<svg width="556" height="545" viewBox="0 0 556 545" fill="none" xmlns="http://www.w3.org/2000/svg">
<path d="M539.552 211.113C477.833 105.404 310.418 143.051 276.228 91.6393C258.715 65.3511 239.126 34.7956 210.71 18.929C183.624 3.7336 152.22 -1.59747 124.843 0.403261C27.0731 7.55778 -14.3724 95.0329 4.40661 191.093C29.4791 319.229 143.065 450.125 278.001 451.037C348.583 451.569 416.026 426.243 468.83 390.622L470.008 389.825C522.812 353.875 586.683 291.814 539.552 211.113Z" fill="#FFF2F6"/>
<path d="M60.4394 218.799H53.5761C46.2111 218.799 39.1478 221.725 33.9399 226.933C28.7321 232.141 25.8064 239.204 25.8064 246.569V398.954C25.8064 406.319 28.7321 413.382 33.9399 418.59C39.1478 423.798 46.2111 426.724 53.5761 426.724H147.737C155.102 426.724 162.165 423.798 167.373 418.59C172.581 413.382 175.507 406.319 175.507 398.954" stroke="#FD3E72" stroke-width="2" stroke-linecap="round" stroke-linejoin="round" stroke-dasharray="8 8"/>
<path d="M167.833 75.0124V44.9127C167.833 40.409 169.62 36.0891 172.801 32.9009C175.982 29.7127 180.298 27.9166 184.802 27.9065H307.252C311.762 27.9065 316.088 29.6982 319.277 32.8875C322.466 36.0768 324.258 40.4024 324.258 44.9127" stroke="#FD3E72" stroke-width="2" stroke-linecap="round" stroke-linejoin="round" stroke-dasharray="8 8"/>
<path d="M278 544.21C411.94 544.21 520.519 529.039 520.519 510.325C520.519 491.61 411.94 476.439 278 476.439C144.06 476.439 35.4807 491.61 35.4807 510.325C35.4807 529.039 144.06 544.21 278 544.21Z" fill="#FFE0E9"/>
<g filter="url(#filter0_d)">
<path d="M52.6011 113.47H505.932V340.828C505.932 348.369 503.015 355.6 497.824 360.932C492.632 366.264 485.59 369.26 478.248 369.26H80.2979C72.9558 369.26 65.9144 366.264 60.7227 360.932C55.531 355.6 52.6144 348.369 52.6144 340.828V113.47H52.6011Z" fill="#FAFAFA"/>
<path d="M505.931 113.47H52.6003C53.09 106.253 56.2295 99.496 61.3855 94.5608C66.5416 89.6256 73.3304 86.88 80.3825 86.8779H478.149C485.201 86.88 491.99 89.6256 497.146 94.5608C502.302 99.496 505.441 106.253 505.931 113.47Z" fill="#FD3E72"/>
<path d="M105.635 100.351C105.635 101.336 105.343 102.298 104.796 103.116C104.25 103.934 103.472 104.572 102.563 104.949C101.654 105.326 100.653 105.424 99.6878 105.232C98.7224 105.04 97.8357 104.566 97.1397 103.87C96.4437 103.174 95.9698 102.287 95.7778 101.322C95.5857 100.357 95.6843 99.3562 96.0609 98.4468C96.4376 97.5375 97.0755 96.7603 97.8938 96.2134C98.7122 95.6666 99.6744 95.3748 100.659 95.3748C101.978 95.3748 103.244 95.8991 104.178 96.8323C105.111 97.7656 105.635 99.0314 105.635 100.351Z" fill="white"/>
<path d="M126.68 100.351C126.68 101.336 126.388 102.298 125.841 103.116C125.294 103.934 124.517 104.572 123.608 104.949C122.698 105.326 121.698 105.424 120.732 105.232C119.767 105.04 118.88 104.566 118.184 103.87C117.488 103.174 117.014 102.287 116.822 101.322C116.63 100.357 116.729 99.3562 117.106 98.4468C117.482 97.5375 118.12 96.7603 118.938 96.2134C119.757 95.6666 120.719 95.3748 121.703 95.3748C123.023 95.3748 124.289 95.8991 125.222 96.8323C126.155 97.7656 126.68 99.0314 126.68 100.351Z" fill="white"/>
<path d="M142.75 105.328C145.499 105.328 147.727 103.1 147.727 100.351C147.727 97.6028 145.499 95.3748 142.75 95.3748C140.002 95.3748 137.774 97.6028 137.774 100.351C137.774 103.1 140.002 105.328 142.75 105.328Z" fill="white"/>
<path d="M505.235 156.523C503.389 155.487 501.425 154.675 499.385 154.105L497.017 143.531H486.963L484.62 154.105C482.569 154.664 480.595 155.477 478.745 156.523L469.665 150.711L462.562 157.79L468.272 166.869C467.227 168.72 466.415 170.694 465.854 172.745L455.28 175.087V185.142L465.854 187.51C466.408 189.571 467.221 191.553 468.272 193.41L462.46 202.553L469.577 209.657L478.707 203.845C480.554 204.893 482.523 205.71 484.57 206.276L486.925 216.837H496.941L499.297 206.276C501.337 205.704 503.302 204.888 505.147 203.845L505.615 204.149V156.27L505.235 156.523ZM492.015 193.246C489.445 193.246 486.933 192.484 484.796 191.055C482.659 189.627 480.994 187.597 480.011 185.223C479.028 182.848 478.772 180.235 479.274 177.714C479.776 175.194 481.015 172.879 482.833 171.062C484.651 169.246 486.967 168.01 489.489 167.51C492.01 167.01 494.622 167.269 496.996 168.254C499.37 169.239 501.398 170.907 502.824 173.045C504.25 175.183 505.01 177.696 505.007 180.266C505.007 181.972 504.671 183.661 504.018 185.236C503.365 186.812 502.408 188.243 501.201 189.449C499.995 190.654 498.562 191.61 496.986 192.261C495.41 192.913 493.721 193.247 492.015 193.246Z" fill="#FFDCE5"/>
<path d="M312.76 157.499V136.301L290.474 131.35C289.271 127.044 287.571 122.892 285.408 118.978L288.106 114.736H182.877L185.473 118.864C183.284 122.761 181.583 126.911 180.408 131.223L158.109 136.187V157.436L180.408 162.412C181.583 166.756 183.284 170.941 185.473 174.872L173.228 194.133L188.233 209.125L207.481 196.868C211.386 199.064 215.539 200.786 219.853 201.996L224.817 224.22H245.964L250.953 201.946C255.252 200.729 259.392 199.008 263.286 196.817L282.547 209.075L297.539 194.082L285.37 174.822C287.527 170.914 289.227 166.772 290.436 162.475L312.76 157.499ZM235.517 174.29C230.099 174.29 224.804 172.683 220.3 169.674C215.795 166.664 212.285 162.386 210.212 157.382C208.139 152.377 207.596 146.87 208.653 141.557C209.71 136.243 212.319 131.363 216.149 127.533C219.98 123.702 224.86 121.093 230.173 120.037C235.486 118.98 240.993 119.522 245.998 121.595C251.003 123.668 255.281 127.179 258.29 131.683C261.3 136.187 262.906 141.483 262.906 146.9C262.908 150.497 262.201 154.06 260.825 157.384C259.449 160.707 257.432 163.728 254.888 166.271C252.344 168.815 249.324 170.832 246 172.208C242.676 173.584 239.114 174.291 235.517 174.29Z" fill="#FFDCE5"/>
<path d="M172.116 312.277L173.015 295.448L155.578 290.535C154.768 287.077 153.57 283.721 152.007 280.531L162.542 265.741L151.247 253.218L135.469 262.082C132.453 260.184 129.228 258.642 125.858 257.485L122.844 239.605L106.028 238.833L101.165 256.32C97.7009 257.097 94.3423 258.287 91.1618 259.866L76.3842 249.343L63.8353 260.625L72.7753 276.416C70.8587 279.419 69.3111 282.641 68.166 286.014L63.1009 286.85V309.643L66.7984 310.682C67.5655 314.151 68.7519 317.515 70.3314 320.698L63.0629 330.892L63.5441 339.616V339.692L71.0531 348.012L86.8564 339.084C89.867 341.021 93.1032 342.581 96.4928 343.732L99.456 360.903L99.5952 361.624L116.412 362.511L116.855 360.903L121.274 345.036C124.754 344.257 128.129 343.067 131.328 341.49L146.081 352.001L158.617 340.731L149.753 324.927C151.652 321.928 153.178 318.71 154.299 315.342L172.116 312.277ZM127.454 286.002C124.573 282.798 120.807 280.52 116.632 279.457C112.456 278.394 108.06 278.593 103.997 280.029C99.9352 281.465 96.3902 284.073 93.8109 287.524C91.2315 290.976 89.7337 295.114 89.5069 299.417C89.2801 303.719 90.3344 307.992 92.5366 311.696C94.7388 315.399 97.9898 318.366 101.878 320.221C105.767 322.076 110.119 322.736 114.383 322.118C118.646 321.5 122.631 319.631 125.833 316.747C130.107 312.885 132.678 307.487 132.982 301.734C133.285 295.982 131.298 290.343 127.454 286.052V286.002Z" fill="#FFDCE5"/>
<path d="M306.62 287.192C307.271 284.586 307.615 281.913 307.646 279.227L319.739 272.895L316.396 260.625L302.746 261.258C301.363 258.965 299.719 256.84 297.845 254.927L301.885 241.871L290.868 235.54L281.649 245.594C279.048 244.966 276.385 244.626 273.71 244.581L267.378 232.488L255.121 235.818L255.766 249.482C253.473 250.864 251.348 252.508 249.435 254.382L236.367 250.343L230.035 261.347L240.166 270.553C239.511 273.149 239.175 275.815 239.165 278.492L227.047 284.824L230.39 297.081L244.066 296.436C245.421 298.741 247.059 300.867 248.941 302.767L244.876 315.759L255.906 322.091L265.074 312.112C267.678 312.768 270.353 313.104 273.039 313.113L279.37 325.218L291.628 321.888L291.083 310.213L290.995 308.212C293.32 306.843 295.472 305.198 297.402 303.311L310.457 307.364L315.852 297.942L316.763 296.347L306.62 287.192ZM277.66 294.637C274.517 295.504 271.187 295.418 268.093 294.39C264.998 293.362 262.279 291.437 260.28 288.862C258.28 286.286 257.091 283.174 256.863 279.921C256.634 276.668 257.377 273.421 258.997 270.591C260.616 267.761 263.04 265.476 265.96 264.025C268.881 262.575 272.166 262.024 275.4 262.443C278.633 262.862 281.67 264.232 284.124 266.379C286.578 268.526 288.339 271.354 289.184 274.503C290.31 278.701 289.73 283.173 287.571 286.945C285.413 290.717 281.85 293.482 277.66 294.637Z" fill="#FFDCE5"/>
<path d="M446.822 308.769L449.608 291.927L432.564 285.077C432.177 281.488 431.356 277.958 430.12 274.567L442.39 260.903L432.462 246.974L415.545 254.154C412.736 251.903 409.666 249.998 406.402 248.481L405.414 230.133L388.573 227.347L381.672 244.315C378.098 244.735 374.584 245.563 371.199 246.784L357.498 234.514L343.632 244.442L350.825 261.347C348.845 263.818 347.126 266.487 345.696 269.312C345.506 269.704 345.304 270.097 345.127 270.489L326.791 271.502L323.992 288.319L326.753 289.433L341.036 295.194C341.426 298.767 342.247 302.279 343.48 305.654L331.185 319.406L341.125 333.335L358.03 326.117C360.83 328.389 363.895 330.311 367.16 331.841L368.11 350.101L384.939 352.887L391.827 336.045C395.409 335.654 398.929 334.829 402.312 333.588L415.988 345.859L429.917 335.918L422.725 319.001C425.016 316.189 426.951 313.106 428.486 309.82L446.822 308.769ZM399.59 308.009C396.046 310.551 391.829 311.986 387.471 312.131C383.113 312.276 378.809 311.125 375.105 308.824C371.401 306.523 368.462 303.176 366.661 299.204C364.859 295.233 364.276 290.817 364.985 286.515C365.693 282.212 367.662 278.216 370.641 275.032C373.621 271.848 377.478 269.62 381.725 268.628C385.971 267.637 390.416 267.927 394.498 269.462C398.579 270.996 402.114 273.707 404.655 277.251C408.058 282.005 409.434 287.916 408.479 293.684C407.525 299.453 404.318 304.605 399.564 308.009H399.59Z" fill="#FFDCE5"/>
</g>
<g filter="url(#filter1_d)">
<path d="M218.586 184.092H86.1579C76.9894 184.092 69.5569 191.524 69.5569 200.693V384.038C69.5569 393.207 76.9894 400.639 86.1579 400.639H218.586C227.755 400.639 235.187 393.207 235.187 384.038V200.693C235.187 191.524 227.755 184.092 218.586 184.092Z" fill="#5B5863"/>
</g>
<g filter="url(#filter2_d)">
<path d="M250.598 217.053V400.399C250.599 402.58 250.171 404.74 249.338 406.756C248.504 408.771 247.282 410.603 245.74 412.146C244.198 413.689 242.367 414.913 240.352 415.748C238.338 416.583 236.178 417.013 233.997 417.013H101.568C99.3883 417.011 97.2299 416.58 95.2164 415.744C93.2029 414.908 91.3737 413.684 89.8334 412.141C88.293 410.599 87.0716 408.768 86.2388 406.753C85.4061 404.738 84.9783 402.579 84.98 400.399V217.053C84.98 212.653 86.7273 208.432 89.8378 205.319C92.9484 202.206 97.1677 200.456 101.568 200.452H233.997C238.4 200.452 242.622 202.201 245.735 205.314C248.849 208.428 250.598 212.65 250.598 217.053Z" fill="white"/>
<path d="M250.598 217.053V226.867H84.98V217.053C84.98 212.653 86.7273 208.432 89.8378 205.319C92.9484 202.206 97.1677 200.456 101.568 200.452H233.997C238.399 200.452 242.622 202.201 245.735 205.314C248.849 208.428 250.598 212.65 250.598 217.053Z" fill="#FD3E72"/>
<path d="M141.305 238.238H100.556V245.076H141.305V238.238Z" fill="#FD3E72"/>
<path d="M141.305 299.514H100.556V306.352H141.305V299.514Z" fill="#FD3E72"/>
<path d="M141.305 355.078H100.556V361.916H141.305V355.078Z" fill="#FD3E72"/>
<path d="M216.282 255.169H100.556V260.183H216.282V255.169Z" fill="#FFE4EC"/>
<path d="M195.413 264.754H100.556V269.642H195.413V264.754Z" fill="#FFE4EC"/>
<path d="M207.835 274.188H100.556V279.076H207.835V274.188Z" fill="#FFE4EC"/>
<path d="M207.835 283.609H100.556V288.497H207.835V283.609Z" fill="#FFE4EC"/>
<path d="M216.282 310.733H100.556V315.748H216.282V310.733Z" fill="#FFE4EC"/>
<path d="M195.413 320.319H100.556V325.207H195.413V320.319Z" fill="#FFE4EC"/>
<path d="M207.835 329.753H100.556V334.641H207.835V329.753Z" fill="#FFE4EC"/>
<path d="M216.282 371.743H100.556V376.758H216.282V371.743Z" fill="#FFE4EC"/>
<path d="M195.413 381.342H100.556V386.229H195.413V381.342Z" fill="#FFE4EC"/>
<path d="M207.835 390.775H100.556V395.663H207.835V390.775Z" fill="#FFE4EC"/>
</g>
<g filter="url(#filter3_d)">
<path d="M437.262 73.3167V147.42C437.262 150.02 436.749 152.595 435.754 154.997C434.758 157.399 433.299 159.581 431.46 161.419C429.621 163.257 427.438 164.715 425.035 165.709C422.632 166.703 420.057 167.214 417.457 167.212H246.787C244.187 167.214 241.612 166.703 239.209 165.709C236.806 164.715 234.623 163.257 232.783 161.419C230.944 159.581 229.485 157.399 228.49 154.997C227.494 152.595 226.982 150.02 226.982 147.42V73.3167C226.985 68.0652 229.073 63.0297 232.786 59.3163C236.5 55.603 241.535 53.5153 246.787 53.512H417.457C422.71 53.512 427.747 55.5985 431.461 59.3126C435.175 63.0267 437.262 68.0642 437.262 73.3167Z" fill="white"/>
</g>
<path d="M437.262 73.3167V75.0135H226.982V73.3167C226.985 68.0652 229.073 63.0297 232.786 59.3163C236.5 55.603 241.535 53.5153 246.787 53.512H417.457C422.71 53.512 427.747 55.5985 431.461 59.3126C435.175 63.0267 437.262 68.0642 437.262 73.3167Z" fill="#FD3E72"/>
<path d="M257.879 67.8081C257.455 68.2339 256.913 68.5241 256.323 68.6419C255.734 68.7598 255.122 68.7 254.566 68.4702C254.011 68.2404 253.536 67.8509 253.201 67.351C252.867 66.851 252.689 66.2632 252.689 65.6618C252.689 65.0604 252.867 64.4725 253.201 63.9726C253.536 63.4726 254.011 63.0831 254.566 62.8533C255.122 62.6235 255.734 62.5638 256.323 62.6816C256.913 62.7995 257.455 63.0897 257.879 63.5154C258.445 64.0868 258.762 64.858 258.762 65.6618C258.762 66.4655 258.445 67.2368 257.879 67.8081Z" fill="white"/>
<path d="M271.959 67.8081C271.535 68.2339 270.993 68.5241 270.404 68.6419C269.814 68.7598 269.202 68.7 268.647 68.4702C268.091 68.2404 267.616 67.8509 267.281 67.351C266.947 66.851 266.769 66.2632 266.769 65.6618C266.769 65.0604 266.947 64.4725 267.281 63.9726C267.616 63.4726 268.091 63.0831 268.647 62.8533C269.202 62.6235 269.814 62.5638 270.404 62.6816C270.993 62.7995 271.535 63.0897 271.959 63.5154C272.525 64.0868 272.842 64.858 272.842 65.6618C272.842 66.4655 272.525 67.2368 271.959 67.8081Z" fill="white"/>
<path d="M286.042 67.8081C285.617 68.2339 285.076 68.5241 284.486 68.6419C283.896 68.7598 283.285 68.7 282.729 68.4702C282.173 68.2404 281.698 67.8509 281.364 67.351C281.03 66.851 280.851 66.2632 280.851 65.6618C280.851 65.0604 281.03 64.4725 281.364 63.9726C281.698 63.4726 282.173 63.0831 282.729 62.8533C283.285 62.6235 283.896 62.5638 284.486 62.6816C285.076 62.7995 285.617 63.0897 286.042 63.5154C286.607 64.0868 286.924 64.858 286.924 65.6618C286.924 66.4655 286.607 67.2368 286.042 67.8081Z" fill="white"/>
<path d="M309.126 88.639H240.392V148.053H309.126V88.639Z" stroke="#FFE4EC" stroke-width="1.1" stroke-linecap="round" stroke-linejoin="round" stroke-dasharray="4.41 4.41"/>
<path d="M398.843 88.639H319.738V92.8178H398.843V88.639Z" fill="#FFE4EC"/>
<path d="M380.418 97.2874H319.738V101.453H380.418V97.2874Z" fill="#FFE4EC"/>
<path d="M410.087 105.898H319.738V110.115H410.087V105.898Z" fill="#FFE4EC"/>
<path d="M396.677 114.294H319.738V118.51H396.677V114.294Z" fill="#FFE4EC"/>
<path d="M337.338 504.082C337.338 504.082 300.616 514.604 295.487 516.428C290.828 518.074 278.19 522.506 268.706 521.126C267.79 520.994 266.884 520.8 265.996 520.543C256.385 517.681 252.066 515.01 250.8 508.969C249.534 502.929 254.32 498.472 258.93 495.623C263.539 492.774 288.536 489.798 288.536 489.798L294.576 491.571L337.338 504.082Z" fill="#5B5863"/>
<path d="M268.706 521.126C267.79 520.994 266.884 520.8 265.996 520.543C256.385 517.681 252.066 515.01 250.8 508.969C249.534 502.929 254.32 498.472 258.93 495.623C263.539 492.774 288.536 489.798 288.536 489.798L294.576 491.571C289.105 494.103 268.743 495.483 264.299 498.041C259.854 500.599 257.714 505.411 260.335 511.971C261.741 515.39 265.489 518.745 268.706 521.126Z" fill="#3B3843"/>
<path d="M449.189 522.835C448.809 526.634 447.48 530.192 443.681 532.434C441.148 533.928 437.552 534.814 432.398 534.764C419.52 534.599 395.309 525.393 395.309 525.393L372.642 512.857L384.431 494.205L387.66 489.139L395.992 491.013C395.992 491.013 402.894 494.926 409.833 498.041C416.772 501.156 433.626 501.84 439.565 506.614C445.504 511.388 449.835 516.58 449.189 522.835Z" fill="#5B5863"/>
<path d="M449.19 522.835C448.81 526.634 447.48 530.192 443.681 532.434C444.776 528.699 444.552 524.702 443.048 521.113C440.516 515.428 432.272 510.413 421.433 509.577C410.593 508.742 402.299 503.676 397.956 501.41C394.562 499.65 387.408 495.8 384.432 494.205L387.661 489.139L395.993 491.013C395.993 491.013 402.894 494.926 409.834 498.041C416.773 501.156 433.627 501.84 439.566 506.614C445.505 511.388 449.836 516.58 449.19 522.835Z" fill="#3B3843"/>
<path d="M403.25 320.204L364.894 305.616L364.413 305.427C364.413 305.427 364.552 304.413 364.666 302.894C364.907 299.83 365.033 294.84 363.59 293.156C361.45 290.624 355.397 292.751 349.483 290.041C343.57 287.331 332.642 292.181 332.642 292.181C332.642 292.181 324.74 290.725 321.245 296.423C319.472 301.02 320.08 307.82 320.08 307.82L319.358 308.073C314.787 309.783 289.917 319.14 284.662 322.901C278.85 327.017 272.417 369.273 270.353 381.682C268.289 394.092 264.617 405.273 266.478 409.541C268.339 413.808 295.058 434.385 310.431 439.691C325.804 444.997 380.317 443.49 380.317 443.49C380.317 443.49 381.204 443.249 382.787 442.743C392.005 439.78 424.713 427.547 442.074 398.828C442.099 398.879 425.283 343.757 403.25 320.204ZM299.617 391.281C296.793 393.282 298.351 401.031 298.351 401.031L293.551 396.802L305.606 367.158L310.747 389.951C310.747 389.951 302.441 389.293 299.617 391.281ZM396.057 410.111C394.728 410.794 399.856 396.549 397.425 393.32C394.994 390.09 387.662 390.394 387.662 390.394L388.282 386.507L392.626 364.22L394.069 362.511C394.069 362.511 408.986 388.077 411.658 397.093C411.658 397.118 395.399 410.111 396.057 410.111Z" fill="#FD3E72"/>
<path d="M326.741 292.219C325.589 292.522 324.509 293.053 323.567 293.782C322.625 294.511 321.84 295.422 321.258 296.461C319.244 300.007 320.46 311.163 320.46 311.163C320.46 311.163 330.856 321.445 339.707 325.789L342.316 311.112L346.368 325.789C346.368 325.789 360.069 316.102 363.868 307.909C363.868 307.909 365.134 298.348 363.868 295.246C363.58 294.384 363.032 293.633 362.3 293.095C361.567 292.558 360.686 292.261 359.778 292.245" fill="#FD3E72"/>
<path d="M330.83 227.752L311.025 248.773C311.025 248.773 308.303 251.191 309.379 257.282C310.456 263.373 312.988 268.679 314.9 269.033C316.414 269.298 317.948 269.434 319.484 269.439C319.484 269.439 323.726 278.632 326.74 282.241C326.74 282.241 327.778 296.436 327.221 300.374C327.221 300.374 334.338 306.591 341.036 307.377C347.735 308.162 358.081 297.905 358.081 297.905L360.613 285.343C360.613 285.343 366.691 276.125 367.097 273.668C367.502 271.211 370.288 271.845 371.655 270.629C373.023 269.413 376.176 264.006 376.72 258.89C377.265 253.775 377.278 247.899 371.339 249.621C366.185 248.241 369.414 237.351 369.414 237.351L360.36 229.373L330.83 227.752Z" fill="#FFA68A"/>
<path opacity="0.2" d="M403.248 320.204L364.892 305.616L364.411 305.426C364.411 305.426 364.55 304.413 364.664 302.894L363.866 307.87L358.193 315.569C364.258 317.802 370.178 320.407 375.922 323.37C378.671 324.842 380.914 327.108 382.359 329.872C383.805 332.636 384.385 335.771 384.026 338.869L376.96 399.334L374.06 433.663L382.81 442.743C392.029 439.779 424.737 427.547 442.098 398.828C442.098 398.878 425.281 343.757 403.248 320.204ZM396.055 410.11C394.726 410.794 399.854 396.548 397.423 393.319C394.992 390.09 387.66 390.394 387.66 390.394L388.28 386.507L392.624 364.22L394.067 362.511C394.067 362.511 408.984 388.077 411.656 397.093C411.656 397.118 395.397 410.11 396.055 410.11Z" fill="black"/>
<path opacity="0.2" d="M313.291 393.32L307.327 373.388C307.327 373.388 296.627 336.907 289.295 327.916L291.22 353.571C291.22 353.571 284.888 384.215 279.102 393.32C273.315 402.424 272.023 404.716 279.102 404.716C286.18 404.716 303.414 418.443 303.414 418.443L302.085 407.046L313.291 393.32ZM298.26 401.031L293.461 396.802L305.516 367.158L310.657 389.951C310.657 389.951 302.401 389.331 299.577 391.319C296.754 393.307 298.26 401.031 298.26 401.031Z" fill="black"/>
<path d="M327.22 288.217C327.22 288.217 331.083 298.854 339.706 301.881C348.329 304.907 359.777 289.218 359.777 289.218L361.574 283.786C361.574 283.786 351.672 296.93 343.328 295.271C334.983 293.612 326.739 282.291 326.739 282.291L327.22 288.217Z" fill="#FF9473"/>
<path d="M318.421 263.69C320.207 263.408 321.818 262.457 322.929 261.031C323.607 259.778 324.037 258.407 324.195 256.991C324.665 254.298 324.902 251.57 324.904 248.836C324.848 247.768 324.946 246.698 325.195 245.658C325.576 244.611 326.161 243.651 326.918 242.834C328.703 240.732 330.868 238.959 332.578 236.781C333.494 235.753 334.191 234.549 334.627 233.243C335.062 231.937 335.227 230.555 335.11 229.183C339.028 232.413 343.606 234.746 348.521 236.017C353.437 237.288 358.572 237.467 363.564 236.541C372.618 234.768 381.292 226.828 380.241 216.85C380.042 215.177 379.325 213.608 378.19 212.363C377.054 211.119 375.557 210.261 373.909 209.911C369.439 208.796 365.425 211.177 361.373 212.709C353.991 215.495 346.76 210.708 339.302 209.911C332.97 209.214 325.081 210.012 321.764 216.356C321.764 216.356 310.367 217.698 305.302 227.119C300.237 236.541 309.823 249.571 309.823 249.571C309.823 249.571 313.622 244.911 318.598 254.332L318.421 263.69Z" fill="#5B5863"/>
<path d="M362.842 233.362C362.842 233.362 359.878 248.811 367.616 256.295C367.616 256.295 369.312 251.647 371.022 250.508C372.254 247.766 372.776 244.758 372.54 241.761C372.303 238.765 371.315 235.876 369.667 233.362C363.943 224.371 362.842 233.362 362.842 233.362Z" fill="#5B5863"/>
<path d="M376.949 215.786C376.269 217.894 375.118 219.819 373.582 221.414C372.046 223.01 370.166 224.233 368.085 224.992C357.347 229.373 346.925 224.523 336.162 223.574C327.386 222.788 317.699 230.715 317.079 239.731" stroke="#6B6873" stroke-width="1.1" stroke-linecap="round" stroke-linejoin="round"/>
<path d="M310.456 237.351C310.587 233.793 311.729 230.346 313.747 227.413C315.765 224.48 318.576 222.182 321.852 220.788" stroke="#6B6873" stroke-width="1.1" stroke-linecap="round" stroke-linejoin="round"/>
<g filter="url(#filter4_d)">
<path d="M443.01 257.232H404.325C399.758 257.232 396.056 260.934 396.056 265.501V288.205C396.056 292.772 399.758 296.474 404.325 296.474H443.01C447.577 296.474 451.279 292.772 451.279 288.205V265.501C451.279 260.934 447.577 257.232 443.01 257.232Z" fill="#5B5863"/>
</g>
<path d="M413.872 269.034L403.248 275.694L413.113 284.432" stroke="white" stroke-width="2" stroke-linecap="round" stroke-linejoin="round"/>
<path d="M433.221 285.065L442.769 276.935L431.752 269.717" stroke="white" stroke-width="2" stroke-linecap="round" stroke-linejoin="round"/>
<path d="M419.04 290.079L426.878 265.488" stroke="white" stroke-width="2" stroke-linecap="round" stroke-linejoin="round"/>
<path d="M345.492 331.981C345.492 332.424 345.361 332.857 345.115 333.226C344.868 333.594 344.518 333.882 344.109 334.051C343.699 334.221 343.248 334.265 342.814 334.179C342.379 334.092 341.98 333.879 341.666 333.565C341.353 333.252 341.139 332.853 341.053 332.418C340.966 331.983 341.011 331.532 341.18 331.123C341.35 330.713 341.637 330.363 342.006 330.117C342.374 329.871 342.808 329.739 343.251 329.739C343.546 329.738 343.838 329.794 344.111 329.906C344.383 330.019 344.631 330.184 344.84 330.392C345.048 330.6 345.213 330.848 345.325 331.121C345.437 331.394 345.494 331.686 345.492 331.981Z" fill="#5B5863"/>
<path d="M384.774 451.29H307.53C307.05 451.29 306.589 451.099 306.25 450.76C305.91 450.42 305.719 449.959 305.719 449.479C305.719 448.999 305.91 448.538 306.25 448.199C306.589 447.859 307.05 447.668 307.53 447.668H384.774C385.254 447.668 385.714 447.859 386.054 448.199C386.394 448.538 386.584 448.999 386.584 449.479C386.584 449.959 386.394 450.42 386.054 450.76C385.714 451.099 385.254 451.29 384.774 451.29Z" fill="#263238"/>
<path d="M388.903 444.982L399.447 396.953C399.611 396.208 399.601 395.438 399.417 394.697C399.234 393.957 398.881 393.266 398.386 392.675C397.891 392.083 397.266 391.607 396.556 391.28C395.847 390.954 395.07 390.785 394.285 390.787H302.259C301.48 390.787 300.71 390.955 300.006 391.278C299.302 391.601 298.681 392.071 298.187 392.655C297.693 393.239 297.339 393.922 297.151 394.654C296.962 395.386 296.943 396.15 297.096 396.891L306.557 443.319C306.789 444.459 307.415 445.489 308.333 446.237C309.251 446.985 310.404 447.407 311.603 447.434L383.611 449.035C384.842 449.061 386.043 448.671 387.009 447.931C387.975 447.192 388.645 446.149 388.903 444.982Z" fill="#5B5863"/>
<path d="M354.535 418.43C354.532 419.854 354.107 421.246 353.314 422.429C352.521 423.613 351.395 424.534 350.078 425.078C348.761 425.621 347.313 425.762 345.916 425.482C344.519 425.203 343.237 424.516 342.23 423.508C341.224 422.499 340.539 421.216 340.262 419.818C339.985 418.421 340.128 416.973 340.674 415.657C341.22 414.341 342.143 413.217 343.328 412.425C344.512 411.634 345.905 411.212 347.329 411.212C348.277 411.212 349.215 411.399 350.09 411.762C350.965 412.125 351.76 412.656 352.429 413.327C353.098 413.997 353.628 414.793 353.99 415.669C354.351 416.544 354.536 417.483 354.535 418.43Z" fill="white"/>
<path d="M368.705 395.016H379.43" stroke="white" stroke-width="1.1" stroke-linecap="round" stroke-linejoin="round"/>
<path d="M317.482 395.016H358.193" stroke="white" stroke-width="1.1" stroke-linecap="round" stroke-linejoin="round"/>
<path d="M387.66 496.864L379.43 518.467C379.43 518.467 358.435 513.174 331.551 507.665C303.427 501.904 274.062 494.445 258.828 467.714C256.98 464.46 255.739 460.61 256.612 456.963C258.803 447.732 270.82 445.225 278.734 444.3C283.71 443.762 288.71 443.483 293.715 443.465C296.247 443.465 304.668 442.084 306.707 443.591C309.77 445.826 313.039 447.764 316.47 449.378C320.965 451.29 386.584 447.669 386.584 447.669C387.726 445.179 388.424 442.509 388.648 439.78C398.968 434.537 422.838 430.105 432.968 432.068C448.835 435.145 458.091 444.402 456.331 454.101C454.571 463.801 419.52 489.811 387.66 496.864Z" fill="#8F4620"/>
<path d="M387.661 496.864C387.661 496.864 367.691 491.571 351.382 480.554C335.072 469.537 322.333 456.748 299.603 459.394" stroke="#803B18" stroke-width="1.1" stroke-linecap="round" stroke-linejoin="round"/>
<path d="M347.645 477.958C357.953 474.995 365.513 468.322 373.781 461.927C382.503 454.927 391.869 448.771 401.754 443.541" stroke="#803B18" stroke-width="1.1" stroke-linecap="round" stroke-linejoin="round"/>
<defs>
<filter id="filter0_d" x="40.6003" y="78.8779" width="477.332" height="306.382" filterUnits="userSpaceOnUse" color-interpolation-filters="sRGB">
<feFlood flood-opacity="0" result="BackgroundImageFix"/>
<feColorMatrix in="SourceAlpha" type="matrix" values="0 0 0 0 0 0 0 0 0 0 0 0 0 0 0 0 0 0 127 0"/>
<feOffset dy="4"/>
<feGaussianBlur stdDeviation="6"/>
<feColorMatrix type="matrix" values="0 0 0 0 0 0 0 0 0 0 0 0 0 0 0 0 0 0 0.15 0"/>
<feBlend mode="normal" in2="BackgroundImageFix" result="effect1_dropShadow"/>
<feBlend mode="normal" in="SourceGraphic" in2="effect1_dropShadow" result="shape"/>
</filter>
<filter id="filter1_d" x="62.5569" y="181.092" width="179.63" height="230.548" filterUnits="userSpaceOnUse" color-interpolation-filters="sRGB">
<feFlood flood-opacity="0" result="BackgroundImageFix"/>
<feColorMatrix in="SourceAlpha" type="matrix" values="0 0 0 0 0 0 0 0 0 0 0 0 0 0 0 0 0 0 127 0"/>
<feOffset dy="4"/>
<feGaussianBlur stdDeviation="3.5"/>
<feColorMatrix type="matrix" values="0 0 0 0 0 0 0 0 0 0 0 0 0 0 0 0 0 0 0.1 0"/>
<feBlend mode="normal" in2="BackgroundImageFix" result="effect1_dropShadow"/>
<feBlend mode="normal" in="SourceGraphic" in2="effect1_dropShadow" result="shape"/>
</filter>
<filter id="filter2_d" x="77.98" y="197.452" width="179.618" height="230.56" filterUnits="userSpaceOnUse" color-interpolation-filters="sRGB">
<feFlood flood-opacity="0" result="BackgroundImageFix"/>
<feColorMatrix in="SourceAlpha" type="matrix" values="0 0 0 0 0 0 0 0 0 0 0 0 0 0 0 0 0 0 127 0"/>
<feOffset dy="4"/>
<feGaussianBlur stdDeviation="3.5"/>
<feColorMatrix type="matrix" values="0 0 0 0 0 0 0 0 0 0 0 0 0 0 0 0 0 0 0.15 0"/>
<feBlend mode="normal" in2="BackgroundImageFix" result="effect1_dropShadow"/>
<feBlend mode="normal" in="SourceGraphic" in2="effect1_dropShadow" result="shape"/>
</filter>
<filter id="filter3_d" x="216.982" y="47.512" width="230.28" height="133.7" filterUnits="userSpaceOnUse" color-interpolation-filters="sRGB">
<feFlood flood-opacity="0" result="BackgroundImageFix"/>
<feColorMatrix in="SourceAlpha" type="matrix" values="0 0 0 0 0 0 0 0 0 0 0 0 0 0 0 0 0 0 127 0"/>
<feOffset dy="4"/>
<feGaussianBlur stdDeviation="5"/>
<feColorMatrix type="matrix" values="0 0 0 0 0 0 0 0 0 0 0 0 0 0 0 0 0 0 0.08 0"/>
<feBlend mode="normal" in2="BackgroundImageFix" result="effect1_dropShadow"/>
<feBlend mode="normal" in="SourceGraphic" in2="effect1_dropShadow" result="shape"/>
</filter>
<filter id="filter4_d" x="390.056" y="253.232" width="67.2228" height="51.2422" filterUnits="userSpaceOnUse" color-interpolation-filters="sRGB">
<feFlood flood-opacity="0" result="BackgroundImageFix"/>
<feColorMatrix in="SourceAlpha" type="matrix" values="0 0 0 0 0 0 0 0 0 0 0 0 0 0 0 0 0 0 127 0"/>
<feOffset dy="2"/>
<feGaussianBlur stdDeviation="3"/>
<feColorMatrix type="matrix" values="0 0 0 0 0 0 0 0 0 0 0 0 0 0 0 0 0 0 0.15 0"/>
<feBlend mode="normal" in2="BackgroundImageFix" result="effect1_dropShadow"/>
<feBlend mode="normal" in="SourceGraphic" in2="effect1_dropShadow" result="shape"/>
</filter>
</defs>
</svg>
