<svg width="198" height="51" viewBox="0 0 198 51" fill="none" xmlns="http://www.w3.org/2000/svg">
<path d="M179.549 21.1984V41.3664C178.373 41.3664 177.235 41.4031 176.106 41.3366C175.849 41.3228 175.541 40.9992 175.376 40.7421C172.649 36.5189 169.934 32.2881 167.23 28.0496C167.109 27.8591 166.98 27.6709 166.714 27.2761V41.3228H162.973V21.1456C164.265 21.1456 165.546 21.1112 166.819 21.1778C167.065 21.1892 167.345 21.5633 167.508 21.8296C170.056 25.7942 172.596 29.7641 175.128 33.7394C175.303 34.0395 175.538 34.3011 175.817 34.5083V21.1961L179.549 21.1984Z" fill="#5B5863"/>
<path d="M150.396 20.921C156.134 20.9371 160.676 25.5482 160.654 31.3504C160.633 36.9989 155.857 41.75 150.3 41.6559C148.938 41.6496 147.591 41.3752 146.336 40.8483C145.081 40.3214 143.941 39.5525 142.983 38.5853C141.048 36.632 139.968 33.9899 139.981 31.2403C139.993 28.4906 141.098 25.8587 143.051 23.9235C145.005 21.9883 147.647 20.9082 150.396 20.921ZM156.706 31.3986C156.754 27.7676 153.864 24.7724 150.291 24.7425C148.585 24.7658 146.957 25.4576 145.756 26.6693C144.555 27.8809 143.878 29.5155 143.87 31.2213C143.862 32.9271 144.524 34.5678 145.714 35.7904C146.904 37.013 148.526 37.7198 150.231 37.7587C151.074 37.769 151.912 37.6123 152.694 37.2978C153.477 36.9832 154.19 36.517 154.792 35.9258C155.393 35.3347 155.872 34.6304 156.201 33.8534C156.529 33.0764 156.701 32.2422 156.706 31.3986Z" fill="#5B5863"/>
<path d="M108.781 20.9922C111.882 21.1529 114.948 21.0427 117.914 21.527C122.651 22.3028 125.66 26.2505 125.731 31.1898C125.772 33.4681 125.025 35.6907 123.617 37.4824C122.21 39.2742 120.227 40.5253 118.003 41.0248C117.025 41.2283 116.03 41.3382 115.031 41.353C112.965 41.4035 110.913 41.369 108.781 41.369V20.9922ZM112.711 37.598C113.927 37.598 115.077 37.6852 116.206 37.5797C119.215 37.2973 121.403 35.0205 121.715 31.7521C121.944 29.2779 120.937 26.4731 117.813 25.2957C116.163 24.6783 114.453 24.8573 112.708 24.8872L112.711 37.598Z" fill="#5B5863"/>
<path d="M89.4961 41.3676V21.1192C92.9228 21.3166 96.345 20.6877 99.6707 21.7504C103.598 23.0059 106.065 26.2903 106.366 30.3919C106.765 35.8109 103.382 40.1419 98.3326 41.1082C96.9968 41.3653 95.5991 41.324 94.2288 41.3584C92.6795 41.3974 91.1349 41.3676 89.4961 41.3676ZM93.4576 37.6516C94.355 37.6516 95.2066 37.6654 96.0558 37.6516C100.469 37.5782 103.357 33.775 102.253 29.5036C101.231 25.5306 97.6349 24.3325 93.4507 25.0119L93.4576 37.6516Z" fill="#5B5863"/>
<path d="M180.879 37.4442L184.049 34.9195C185.137 35.787 186.048 36.7143 187.138 37.3248C187.779 37.6812 188.491 37.8935 189.222 37.947C189.954 38.0005 190.689 37.894 191.375 37.6347C192.392 37.2812 192.963 36.5353 193.002 35.5552C193.041 34.5752 192.663 33.8568 191.565 33.4758C190.188 33.0007 188.768 32.6954 187.367 32.3006C186.709 32.117 186.048 31.9288 185.407 31.6901C180.975 30.0376 181.246 24.8779 183.95 22.6447C186.362 20.6524 189.116 20.5446 191.983 21.1987C193.968 21.6577 195.543 22.7893 196.906 24.3868L193.789 26.8518C192.963 25.7042 191.981 24.7609 190.592 24.5566C189.609 24.4207 188.611 24.4377 187.634 24.6071C187.165 24.7004 186.743 24.9552 186.442 25.3272C186.142 25.6991 185.981 26.1647 185.988 26.6429C185.97 27.6391 186.592 28.1693 187.436 28.4263C188.8 28.8372 190.191 29.1585 191.568 29.5326C192.177 29.6844 192.778 29.8667 193.369 30.0789C195.449 30.8707 196.847 32.2524 197.062 34.566C197.271 36.813 196.502 38.6974 194.678 40.0332C191.878 42.0828 188.772 41.8923 185.655 40.9513C183.718 40.366 182.164 39.1564 180.879 37.4442Z" fill="#5B5863"/>
<path d="M87.9148 41.3663C86.6938 41.3663 85.5255 41.3892 84.3595 41.341C84.1667 41.341 83.9005 41.045 83.8179 40.8292C83.4851 40.0121 83.1913 39.1767 82.9204 38.3366C82.7804 37.8982 82.5693 37.7054 82.0735 37.7123C79.6957 37.7383 77.3178 37.7383 74.94 37.7123C74.4488 37.7123 74.2377 37.8936 74.0954 38.3481C73.8337 39.1881 73.5239 40.019 73.1773 40.8338C73.0878 41.0472 72.8238 41.3319 72.631 41.3387C71.4673 41.3869 70.2991 41.3617 69 41.3617C69.5302 39.9455 70.0145 38.6442 70.5011 37.3428C72.452 32.1946 74.3846 27.0534 76.2919 21.8914C76.503 21.3199 76.7716 21.0835 77.3936 21.1271C78.19 21.1845 79.0002 21.0973 79.7967 21.1662C79.9596 21.1864 80.1159 21.2429 80.2541 21.3315C80.3923 21.4201 80.5089 21.5385 80.5954 21.678C83.0283 28.0678 85.4398 34.4676 87.8299 40.8774C87.8719 41.0377 87.9003 41.2012 87.9148 41.3663ZM78.5205 26.1812L75.6653 34.0813H81.3597L78.5205 26.1812Z" fill="#5B5863"/>
<path d="M138.099 29.6465V32.908H128V29.6465H138.099Z" fill="#5B5863"/>
<path d="M110.703 16.835V8.64108C112.211 8.64108 113.687 8.56075 115.149 8.67321C115.957 8.73289 116.526 9.36177 116.74 10.172C116.983 11.1061 116.74 11.9163 115.906 12.4878C117.35 13.8948 117.32 15.6736 115.847 16.4861C115.527 16.6759 115.168 16.7898 114.798 16.8189C113.46 16.8579 112.119 16.835 110.703 16.835ZM111.674 15.8779C112.801 15.8779 113.852 15.9467 114.887 15.8549C115.59 15.7929 115.952 15.2513 115.975 14.5329C115.998 13.8145 115.656 13.2223 114.965 13.1558C113.882 13.0433 112.776 13.1259 111.669 13.1259L111.674 15.8779ZM111.699 12.0609C112.732 12.0609 113.724 12.1091 114.708 12.0449C115.436 11.9944 115.798 11.494 115.803 10.7641C115.808 10.0343 115.372 9.55687 114.683 9.50178C113.705 9.42145 112.714 9.48112 111.699 9.48112V12.0609Z" fill="#5B5863"/>
<path d="M84.8001 14.6772C85.2591 15.0078 85.6287 15.4071 86.0739 15.554C86.8635 15.8134 87.5245 15.4668 88.0524 14.7231L89.2735 15.4599C88.4839 16.7774 87.0196 17.2961 85.4588 16.86C84.0817 16.4721 83.2279 15.2694 83.2669 13.7615C83.3059 12.2535 84.3204 10.9498 85.7274 10.6537C87.2491 10.3324 88.578 10.9406 89.2528 12.2719C89.3431 12.4467 89.4124 12.6316 89.4594 12.8227C89.8037 14.2503 89.6889 14.3812 88.236 14.3857C87.2078 14.3857 86.1703 14.4064 85.1467 14.4225C85.1031 14.4294 85.0595 14.4867 84.8001 14.6772ZM87.9331 13.0522C87.738 12.2535 87.1986 11.962 86.5146 11.9046C86.341 11.8795 86.164 11.8895 85.9943 11.9339C85.8245 11.9784 85.6654 12.0564 85.5263 12.1634C85.3873 12.2704 85.271 12.4041 85.1845 12.5568C85.098 12.7095 85.043 12.8779 85.0227 13.0522H87.9331Z" fill="#5B5863"/>
<path d="M71.5851 16.8116H70.0312V8.54883H75.4755V9.98333H71.6241V12.049H75.4709V13.5616H71.5851V16.8116Z" fill="#5B5863"/>
<path d="M94.0913 13.8135C94.1165 11.9773 95.5281 10.5451 97.2747 10.5727C98.1285 10.5841 98.9431 10.9323 99.5414 11.5414C100.14 12.1505 100.473 12.9712 100.47 13.825C100.448 14.6778 100.093 15.4882 99.4817 16.0828C98.87 16.6774 98.0498 17.0088 97.1967 17.0061C96.7812 17.0072 96.3697 16.9248 95.9867 16.7636C95.6037 16.6025 95.257 16.3659 94.9673 16.068C94.6775 15.7702 94.4507 15.4171 94.3002 15.0298C94.1497 14.6425 94.0787 14.2288 94.0913 13.8135ZM98.9112 13.8135C98.9239 13.5936 98.8929 13.3733 98.82 13.1654C98.7472 12.9575 98.6338 12.7661 98.4866 12.6022C98.3394 12.4383 98.1611 12.3052 97.9622 12.2106C97.7633 12.1159 97.5476 12.0616 97.3275 12.0508C96.3911 12.0186 95.6451 12.7967 95.6451 13.802C95.6352 14.022 95.6699 14.2418 95.7472 14.448C95.8245 14.6543 95.9427 14.8427 96.0947 15.0021C96.2468 15.1614 96.4295 15.2883 96.6319 15.3751C96.8343 15.462 97.0522 15.507 97.2724 15.5074C98.2158 15.5074 98.9066 14.7935 98.9181 13.8112L98.9112 13.8135Z" fill="#5B5863"/>
<path d="M138.099 10.7888C137.431 12.7213 136.77 14.6539 136.077 16.575C136.018 16.6574 135.94 16.7236 135.849 16.7678C135.758 16.8119 135.657 16.8324 135.556 16.8275C135.444 16.806 135.338 16.7609 135.244 16.6952C135.151 16.6295 135.072 16.5447 135.014 16.4465C134.539 15.3195 134.112 14.1719 133.665 13.0335C133.564 12.7741 133.454 12.5216 133.27 12.0787C132.71 13.5338 132.244 14.8329 131.707 16.0907C131.563 16.4216 131.298 16.6846 130.966 16.8252C130.399 17.0203 130.36 16.4579 130.245 16.1091C129.66 14.3326 129.097 12.5515 128.523 10.775C129.258 10.5088 129.554 10.775 129.738 11.4337C130.096 12.7351 130.548 14.0112 131.014 15.4687L132.591 11.4268C132.728 11.0688 132.776 10.5386 133.325 10.7061C133.63 10.8393 133.872 11.0863 133.998 11.3947C134.516 12.6456 134.975 13.9194 135.551 15.4389C136.059 13.9125 136.515 12.641 136.896 11.3465C137.096 10.7153 137.41 10.5271 138.099 10.7888Z" fill="#5B5863"/>
<path d="M100.324 16.6883L101.414 15.2286L102.532 13.7275L100.453 10.8401C102.248 10.0666 102.72 11.5287 103.462 12.5822C104.242 11.5425 104.703 10.0965 106.508 10.8172L104.396 13.7114C105.146 14.7236 105.888 15.7174 106.629 16.7159C104.777 17.4825 104.3 15.9286 103.469 14.9325C102.567 15.807 102.248 17.5834 100.324 16.6883Z" fill="#5B5863"/>
<path d="M150.638 14.1212H145.389C145.306 15.1104 145.882 15.5993 146.589 15.9275C147.68 16.4371 148.717 16.0882 149.621 14.9704L150.33 15.3813C149.507 16.841 147.822 17.385 146.247 16.7377C145.545 16.4397 144.973 15.899 144.636 15.2143C144.299 14.5296 144.219 13.7466 144.411 13.008C144.586 12.2482 145.038 11.5806 145.678 11.1352C146.318 10.6898 147.101 10.4984 147.875 10.5981C149.663 10.8322 150.652 12.0486 150.638 14.1212ZM145.359 13.2031H149.582C149.389 12.1129 148.641 11.4335 147.629 11.3991C146.617 11.3647 145.669 12.0624 145.361 13.2123L145.359 13.2031Z" fill="#5B5863"/>
<path d="M91.039 12.2177L90.0039 12.1144V10.7235L90.922 10.6409C91.3282 8.34567 91.8401 7.88663 93.7543 8.1391V9.3372C93.0244 9.42671 92.2624 9.52999 92.6503 10.6455L93.7566 10.7143V12.0914L92.5722 12.236V16.8265H91.039V12.2177Z" fill="#5B5863"/>
<path d="M121.785 13.7634C121.781 13.3349 121.864 12.91 122.028 12.5142C122.192 12.1184 122.435 11.7597 122.741 11.4597C123.047 11.1597 123.41 10.9245 123.809 10.7683C124.208 10.612 124.635 10.5378 125.063 10.5502C125.914 10.5633 126.726 10.9082 127.326 11.5115C127.926 12.1147 128.267 12.9286 128.276 13.7795C128.256 14.6432 127.896 15.4643 127.276 16.0654C126.655 16.6666 125.823 16.9997 124.96 16.9928C124.539 16.9895 124.123 16.9033 123.736 16.7392C123.349 16.575 122.998 16.3362 122.703 16.0362C122.408 15.7363 122.175 15.3812 122.018 14.9912C121.86 14.6012 121.781 14.184 121.785 13.7634ZM127.14 13.7405C127.14 12.3909 126.204 11.3925 124.946 11.3971C123.688 11.4017 122.77 12.4139 122.777 13.7657C122.784 15.1176 123.674 16.0357 125.015 16.0357C126.275 16.0357 127.14 15.097 127.14 13.7405Z" fill="#5B5863"/>
<path d="M138.461 15.6706L139.241 15.1473C139.948 15.9598 140.802 16.3913 141.835 16.0034C142.015 15.921 142.174 15.7982 142.299 15.6446C142.424 15.4909 142.512 15.3106 142.556 15.1175C142.585 14.8742 142.177 14.4496 141.867 14.3256C141.293 14.0961 140.644 14.0502 140.047 13.8666C139.358 13.6508 138.805 13.2721 138.778 12.4413C138.75 11.6104 139.202 11.0641 139.962 10.7474C140.558 10.5146 141.214 10.4826 141.831 10.6561C142.447 10.8297 142.99 11.1993 143.377 11.7091L142.709 12.2094C142.106 11.5553 141.387 11.1789 140.547 11.4314C140.363 11.5033 140.198 11.6154 140.063 11.7596C139.928 11.9037 139.827 12.0763 139.767 12.2645C139.723 12.4711 140.164 12.9049 140.472 13.0334C141.071 13.2836 141.734 13.3731 142.365 13.5567C143.09 13.7656 143.582 14.2292 143.607 15.0073C143.632 15.8359 143.178 16.4028 142.429 16.7333C141.022 17.3553 139.544 16.9812 138.461 15.6706Z" fill="#5B5863"/>
<path d="M80.8295 16.8163H79.3789V10.7111C79.9298 10.8167 80.6 10.2796 80.9557 11.1977C81.6259 10.5826 82.3902 10.4403 83.2922 11.0026L82.7001 12.3017C81.2725 12.0377 80.9098 12.3292 80.896 13.7316C80.896 14.6726 80.896 15.6137 80.8846 16.5547C80.8724 16.6431 80.854 16.7305 80.8295 16.8163Z" fill="#5B5863"/>
<path d="M76.6328 10.7041H78.0535V16.8048H76.6328V10.7041Z" fill="#5B5863"/>
<path d="M118.109 16.7968V10.7718C118.658 10.602 119.105 10.5263 119.039 11.4489C119.815 10.5951 120.662 10.439 121.72 10.8269C121.603 11.1368 121.49 11.4053 121.401 11.6647C119.714 11.3663 119.062 11.9103 119.037 13.5881C119.023 14.6416 119.037 15.6928 119.037 16.8014L118.109 16.7968Z" fill="#5B5863"/>
<path d="M152.603 16.8213H151.766V10.7206L152.537 10.6816L152.684 11.5078C153.427 10.5898 154.29 10.3901 155.36 10.8583L155.052 11.6456C153.264 11.4023 152.707 11.8889 152.697 13.6424C152.697 14.6125 152.691 15.5834 152.679 16.555C152.662 16.646 152.637 16.7351 152.603 16.8213Z" fill="#5B5863"/>
<path d="M77.4051 10.1511C76.9461 9.55892 76.4434 9.19399 76.487 8.88184C76.5306 8.56969 77.0034 8.07622 77.3638 8.00277C77.5933 7.95687 78.1855 8.49165 78.2084 8.79692C78.2314 9.15038 77.8045 9.5222 77.4051 10.1511Z" fill="#5B5863"/>
<path d="M46.7803 16.919C45.7246 14.3786 43.5829 11.6357 41.9058 10.7686C43.1017 13.0845 43.9318 15.5716 44.3666 18.1415L44.371 18.1823C41.6237 11.336 36.9667 8.57115 33.1612 2.55872C32.9687 2.25465 32.7762 1.94996 32.5888 1.62833C32.4815 1.44464 32.3957 1.27912 32.321 1.12677C32.1632 0.821171 32.0416 0.498199 31.9587 0.164409C31.9588 0.149006 31.9532 0.134101 31.943 0.122538C31.9329 0.110975 31.9188 0.103562 31.9035 0.101714C31.8885 0.0976058 31.8727 0.0976058 31.8577 0.101714C31.8546 0.101714 31.8496 0.107356 31.8458 0.10861C31.8421 0.109864 31.8339 0.115507 31.8283 0.118015L31.8377 0.101714C25.7343 3.67532 23.6623 10.2896 23.4742 13.5999C21.036 13.7671 18.7047 14.6653 16.7846 16.1773C16.5844 16.0077 16.3751 15.849 16.1577 15.7021C15.6041 13.7641 15.5805 11.7132 16.0894 9.76298C13.8479 10.8487 11.8563 12.388 10.2406 14.2833H10.2293C9.26629 13.0626 9.334 9.0376 9.38917 8.19687C9.10429 8.31136 8.83234 8.45574 8.5779 8.62758C7.72778 9.2343 6.93305 9.91511 6.20302 10.662C5.37112 11.5055 4.61132 12.4171 3.93159 13.3874V13.3911V13.3867C2.36957 15.6009 1.26154 18.1025 0.671461 20.7471L0.63886 20.9076C0.593093 21.1214 0.428205 22.1922 0.399993 22.4248C0.399993 22.443 0.396231 22.4599 0.39435 22.4781C0.181657 23.5836 0.0498576 24.7032 0 25.8279V25.9533C0.0107386 32.0338 2.30064 37.8893 6.41766 42.3639C10.5347 46.8386 16.1796 49.6072 22.2382 50.1232C28.2968 50.6392 34.3286 48.8652 39.1431 45.1512C43.9576 41.4373 47.2047 36.0534 48.2436 30.0623C48.2844 29.7488 48.3176 29.4385 48.354 29.1219C48.8545 24.9852 48.3127 20.7891 46.7778 16.9152L46.7803 16.919ZM18.7746 35.9406C18.8881 35.9951 18.9946 36.054 19.1113 36.1061L19.1282 36.1167C19.0103 36.0603 18.8925 36.0016 18.7746 35.9406ZM44.3716 18.1892V18.166L44.376 18.1917L44.3716 18.1892Z" fill="url(#paint0_linear)"/>
<path d="M46.7792 16.9189C45.7235 14.3785 43.5818 11.6356 41.9047 10.7686C43.1006 13.0844 43.9307 15.5715 44.3655 18.1415V18.1647L44.3699 18.1904C46.2431 23.5502 45.9722 29.4266 43.6138 34.5913C40.8289 40.5668 34.0904 46.6914 23.5389 46.3905C12.141 46.0676 2.09729 37.6069 0.222711 26.5288C-0.118976 24.7815 0.222711 23.8956 0.394495 22.4756C0.160173 23.5786 0.029409 24.7011 0.00390625 25.8285V25.9539C0.0146448 32.0343 2.30455 37.8899 6.42157 42.3645C10.5386 46.8392 16.1836 49.6078 22.2421 50.1238C28.3007 50.6398 34.3325 48.8657 39.147 45.1518C43.9615 41.4379 47.2086 36.054 48.2475 30.0629C48.2883 29.7494 48.3215 29.4391 48.3579 29.1225C48.8584 24.9858 48.3166 20.7896 46.7817 16.9158L46.7792 16.9189Z" fill="url(#paint1_radial)"/>
<path d="M46.7792 16.9189C45.7235 14.3785 43.5818 11.6356 41.9047 10.7686C43.1006 13.0844 43.9307 15.5715 44.3655 18.1415V18.1647L44.3699 18.1904C46.2431 23.5502 45.9722 29.4266 43.6138 34.5913C40.8289 40.5668 34.0904 46.6914 23.5389 46.3905C12.141 46.0676 2.09729 37.6069 0.222711 26.5288C-0.118976 24.7815 0.222711 23.8956 0.394495 22.4756C0.160173 23.5786 0.029409 24.7011 0.00390625 25.8285V25.9539C0.0146448 32.0343 2.30455 37.8899 6.42157 42.3645C10.5386 46.8392 16.1836 49.6078 22.2421 50.1238C28.3007 50.6398 34.3325 48.8657 39.147 45.1518C43.9615 41.4379 47.2086 36.054 48.2475 30.0629C48.2883 29.7494 48.3215 29.4391 48.3579 29.1225C48.8584 24.9858 48.3166 20.7896 46.7817 16.9158L46.7792 16.9189Z" fill="url(#paint2_radial)"/>
<path d="M34.9682 19.7713C35.0209 19.8083 35.0698 19.8453 35.1193 19.8823C34.509 18.7999 33.7492 17.809 32.8623 16.9387C25.3076 9.38401 30.883 0.562852 31.8228 0.111449L31.8322 0.0976562C25.7289 3.67126 23.6568 10.2856 23.4688 13.5958C23.7521 13.5764 24.033 13.5526 24.3227 13.5526C26.488 13.5568 28.6137 14.1343 30.4835 15.2263C32.3534 16.3184 33.9007 17.8861 34.9682 19.77V19.7713Z" fill="url(#paint3_radial)"/>
<path d="M24.3323 21.2817C24.2922 21.8861 22.1568 23.9707 21.4101 23.9707C14.5011 23.9707 13.3789 28.1505 13.3789 28.1505C13.6849 31.6702 16.1375 34.5705 19.1023 36.1002C19.2377 36.1704 19.375 36.2338 19.5123 36.2958C19.7502 36.4012 19.988 36.4985 20.2258 36.588C21.2433 36.948 22.3091 37.1537 23.3875 37.198C35.5001 37.766 37.8449 22.7155 29.1046 18.3457C31.1664 18.0774 33.2543 18.5844 34.9635 19.7682C33.8959 17.8843 32.3486 16.3166 30.4788 15.2245C28.6089 14.1324 26.4833 13.555 24.3179 13.5508C24.0295 13.5508 23.7474 13.5746 23.464 13.594C21.0258 13.7612 18.6945 14.6594 16.7745 16.1714C17.145 16.4849 17.5632 16.9037 18.444 17.772C20.0929 19.3964 24.3217 21.0792 24.3311 21.2767L24.3323 21.2817Z" fill="url(#paint4_radial)"/>
<path d="M24.3323 21.2817C24.2922 21.8861 22.1568 23.9707 21.4101 23.9707C14.5011 23.9707 13.3789 28.1505 13.3789 28.1505C13.6849 31.6702 16.1375 34.5705 19.1023 36.1002C19.2377 36.1704 19.375 36.2338 19.5123 36.2958C19.7502 36.4012 19.988 36.4985 20.2258 36.588C21.2433 36.948 22.3091 37.1537 23.3875 37.198C35.5001 37.766 37.8449 22.7155 29.1046 18.3457C31.1664 18.0774 33.2543 18.5844 34.9635 19.7682C33.8959 17.8843 32.3486 16.3166 30.4788 15.2245C28.6089 14.1324 26.4833 13.555 24.3179 13.5508C24.0295 13.5508 23.7474 13.5746 23.464 13.594C21.0258 13.7612 18.6945 14.6594 16.7745 16.1714C17.145 16.4849 17.5632 16.9037 18.444 17.772C20.0929 19.3964 24.3217 21.0792 24.3311 21.2767L24.3323 21.2817Z" fill="url(#paint5_radial)"/>
<path d="M15.646 15.3708C15.8429 15.4962 16.0053 15.6053 16.1476 15.7037C15.594 13.7658 15.5704 11.7148 16.0793 9.76465C13.8378 10.8504 11.8462 12.3896 10.2305 14.2849C10.349 14.2818 13.8737 14.2185 15.646 15.3708Z" fill="url(#paint6_radial)"/>
<path d="M0.223828 26.5299C2.09903 37.608 12.1421 46.0718 23.54 46.3916C34.0916 46.69 40.8312 40.5647 43.6149 34.5924C45.9733 29.4277 46.2442 23.5513 44.371 18.1915V18.1683C44.371 18.1501 44.3672 18.1394 44.371 18.1451L44.3754 18.1858C45.2374 23.8139 42.3748 29.264 37.899 32.9567L37.8852 32.9881C29.1644 40.0914 20.8197 37.2726 19.1332 36.1228C19.0153 36.0664 18.8975 36.0076 18.7796 35.9466C13.6957 33.5166 11.5948 28.8872 12.0462 24.9123C10.8394 24.9301 9.6533 24.5976 8.63167 23.955C7.61003 23.3123 6.79669 22.3872 6.29018 21.2917C7.62482 20.4741 9.14659 20.0119 10.7105 19.9492C12.2744 19.8864 13.8283 20.2251 15.2242 20.9331C18.1014 22.2391 21.3754 22.3678 24.3463 21.2917C24.3369 21.0942 20.1081 19.4109 18.4592 17.7871C17.5784 16.9188 17.1602 16.5006 16.7897 16.1865C16.5894 16.0169 16.3801 15.8582 16.1627 15.7112C16.0185 15.6128 15.8561 15.5062 15.6612 15.3783C13.8888 14.226 10.3641 14.2893 10.2475 14.2925H10.2362C9.27319 13.0718 9.34091 9.04679 9.39608 8.20605C9.11119 8.32055 8.83925 8.46493 8.58481 8.63677C7.73468 9.24349 6.93995 9.9243 6.20993 10.6712C5.37504 11.5123 4.61209 12.4218 3.92909 13.3903V13.394V13.3897C2.36707 15.6038 1.25904 18.1054 0.668961 20.75C0.657049 20.7996 -0.206258 24.5738 0.21944 26.5311L0.223828 26.5299Z" fill="url(#paint7_radial)"/>
<path d="M32.8637 16.937C33.7508 17.8083 34.5106 18.8002 35.1208 19.8836C35.2543 19.9846 35.3791 20.0849 35.485 20.1821C40.994 25.2604 38.1075 32.4389 37.8925 32.9467C42.3677 29.2597 45.2278 23.8058 44.3689 18.1758C41.6203 11.3233 36.9583 8.55846 33.159 2.54603C32.9666 2.24196 32.7741 1.93726 32.5866 1.61564C32.4794 1.43194 32.3935 1.26643 32.3189 1.11408C32.1611 0.808475 32.0395 0.485503 31.9566 0.151713C31.9567 0.136311 31.9511 0.121406 31.9409 0.109843C31.9307 0.0982793 31.9167 0.0908666 31.9014 0.0890186C31.8864 0.0849105 31.8706 0.0849105 31.8556 0.0890186C31.8525 0.0890186 31.8475 0.0946612 31.8437 0.0959151C31.8399 0.097169 31.8318 0.102811 31.8261 0.105319C30.8863 0.551079 25.3122 9.37788 32.8669 16.9263L32.8637 16.937Z" fill="url(#paint8_radial)"/>
<path d="M35.4859 20.1843C35.3799 20.0871 35.2552 19.9868 35.1216 19.8859C35.0721 19.8489 35.0232 19.8119 34.9705 19.7749C33.2614 18.5911 31.1735 18.0841 29.1117 18.3524C37.8514 22.7222 35.5066 37.7689 23.3946 37.2047C22.3161 37.1604 21.2504 36.9547 20.2329 36.5947C19.995 36.5056 19.7572 36.4083 19.5194 36.3025C19.3821 36.2398 19.2448 36.1771 19.1094 36.1069L19.1263 36.1176C20.8153 37.2705 29.1575 40.0874 37.8783 32.9828L37.8921 32.9515C38.1097 32.4437 40.9961 25.2651 35.4846 20.1868L35.4859 20.1843Z" fill="url(#paint9_radial)"/>
<path d="M13.38 28.1465C13.38 28.1465 14.5016 23.9666 21.4112 23.9666C22.1579 23.9666 24.2952 21.882 24.3334 21.2777C21.3626 22.3538 18.0886 22.225 15.2114 20.919C13.8155 20.2111 12.2616 19.8723 10.6977 19.9351C9.13376 19.9979 7.61199 20.4601 6.27734 21.2777C6.78385 22.3732 7.5972 23.2983 8.61883 23.9409C9.64047 24.5835 10.8265 24.9161 12.0334 24.8983C11.5832 28.8712 13.6835 33.5 18.7668 35.9326C18.8803 35.9871 18.9868 36.046 19.1034 36.0981C16.1361 34.5652 13.686 31.6662 13.38 28.1484V28.1465Z" fill="url(#paint10_radial)"/>
<path d="M46.783 16.918C45.7272 14.3776 43.5856 11.6347 41.9085 10.7676C43.1044 13.0835 43.9345 15.5706 44.3693 18.1405L44.3736 18.1813C41.6264 11.335 36.9694 8.57018 33.1638 2.55775C32.9713 2.25368 32.7789 1.94898 32.5914 1.62736C32.4842 1.44366 32.3983 1.27815 32.3237 1.1258C32.1659 0.820194 32.0443 0.497222 31.9613 0.163432C31.9614 0.148029 31.9559 0.133125 31.9457 0.121561C31.9355 0.109998 31.9214 0.102585 31.9062 0.100737C31.8912 0.0966292 31.8754 0.0966292 31.8604 0.100737C31.8573 0.100737 31.8522 0.10638 31.8485 0.107634C31.8447 0.108888 31.8366 0.11453 31.8309 0.117038L31.8403 0.100737C25.737 3.67434 23.6649 10.2886 23.4768 13.5989C23.7602 13.5795 24.0411 13.5557 24.3307 13.5557C26.4961 13.5599 28.6218 14.1373 30.4916 15.2294C32.3615 16.3215 33.9088 17.8892 34.9763 19.7731C33.2671 18.5893 31.1792 18.0823 29.1175 18.3506C37.8571 22.7204 35.5124 37.7671 23.4004 37.2029C22.3219 37.1586 21.2562 36.9529 20.2386 36.5929C20.0008 36.5038 19.763 36.4065 19.5252 36.3007C19.3879 36.238 19.2506 36.1753 19.1152 36.1051L19.1321 36.1158C19.0142 36.0593 18.8964 36.0006 18.7785 35.9396C18.892 35.9941 18.9985 36.0531 19.1152 36.1051C16.1478 34.5716 13.6977 31.6726 13.3918 28.1554C13.3918 28.1554 14.5134 23.9755 21.423 23.9755C22.1696 23.9755 24.3069 21.8909 24.3452 21.2866C24.3358 21.0891 20.107 19.4057 18.4581 17.7819C17.5773 16.9136 17.1591 16.4954 16.7886 16.1813C16.5883 16.0117 16.379 15.8531 16.1616 15.7061C15.608 13.7682 15.5844 11.7172 16.0933 9.76702C13.8518 10.8528 11.8602 12.392 10.2445 14.2873H10.2332C9.2702 13.0666 9.33791 9.04164 9.39308 8.20091C9.10819 8.3154 8.83625 8.45978 8.58181 8.63162C7.73168 9.23834 6.93695 9.91915 6.20693 10.6661C5.37502 11.5095 4.61522 12.4211 3.9355 13.3914V13.3952V13.3908C2.37348 15.6049 1.26545 18.1065 0.675367 20.7512L0.642766 20.9116C0.596999 21.1254 0.391987 22.2113 0.36252 22.4445C0.175001 23.5654 0.0552454 24.6966 0.00390625 25.8319V25.9573C0.0146448 32.0378 2.30455 37.8933 6.42157 42.368C10.5386 46.8426 16.1836 49.6112 22.2421 50.1273C28.3007 50.6433 34.3325 48.8692 39.147 45.1553C43.9615 41.4413 47.2087 36.0574 48.2476 30.0663C48.2883 29.7529 48.3215 29.4425 48.3579 29.1259C48.8584 24.9893 48.3166 20.7931 46.7817 16.9192L46.783 16.918ZM44.3724 18.1662L44.3768 18.1919L44.3724 18.1662Z" fill="url(#paint11_linear)"/>
<defs>
<linearGradient id="paint0_linear" x1="43.5641" y1="7.86328" x2="3.22439" y2="46.7842" gradientUnits="userSpaceOnUse">
<stop offset="0.048" stop-color="#FFF44F"/>
<stop offset="0.111" stop-color="#FFE847"/>
<stop offset="0.225" stop-color="#FFC830"/>
<stop offset="0.368" stop-color="#FF980E"/>
<stop offset="0.401" stop-color="#FF8B16"/>
<stop offset="0.462" stop-color="#FF672A"/>
<stop offset="0.534" stop-color="#FF3647"/>
<stop offset="0.705" stop-color="#E31587"/>
</linearGradient>
<radialGradient id="paint1_radial" cx="0" cy="0" r="1" gradientUnits="userSpaceOnUse" gradientTransform="translate(42.0019 5.74043) scale(50.6574)">
<stop offset="0.129" stop-color="#FFBD4F"/>
<stop offset="0.186" stop-color="#FFAC31"/>
<stop offset="0.247" stop-color="#FF9D17"/>
<stop offset="0.283" stop-color="#FF980E"/>
<stop offset="0.403" stop-color="#FF563B"/>
<stop offset="0.467" stop-color="#FF3750"/>
<stop offset="0.71" stop-color="#F5156C"/>
<stop offset="0.782" stop-color="#EB0878"/>
<stop offset="0.86" stop-color="#E50080"/>
</radialGradient>
<radialGradient id="paint2_radial" cx="0" cy="0" r="1" gradientUnits="userSpaceOnUse" gradientTransform="translate(23.1935 26.4297) scale(50.6574)">
<stop offset="0.3" stop-color="#960E18"/>
<stop offset="0.351" stop-color="#B11927" stop-opacity="0.74"/>
<stop offset="0.435" stop-color="#DB293D" stop-opacity="0.343"/>
<stop offset="0.497" stop-color="#F5334B" stop-opacity="0.094"/>
<stop offset="0.53" stop-color="#FF3750" stop-opacity="0"/>
</radialGradient>
<radialGradient id="paint3_radial" cx="0" cy="0" r="1" gradientUnits="userSpaceOnUse" gradientTransform="translate(29.4636 -5.54488) scale(36.6953)">
<stop offset="0.132" stop-color="#FFF44F"/>
<stop offset="0.252" stop-color="#FFDC3E"/>
<stop offset="0.506" stop-color="#FF9D12"/>
<stop offset="0.526" stop-color="#FF980E"/>
</radialGradient>
<radialGradient id="paint4_radial" cx="0" cy="0" r="1" gradientUnits="userSpaceOnUse" gradientTransform="translate(17.5487 39.5948) scale(24.1187)">
<stop offset="0.353" stop-color="#3A8EE6"/>
<stop offset="0.472" stop-color="#5C79F0"/>
<stop offset="0.669" stop-color="#9059FF"/>
<stop offset="1" stop-color="#C139E6"/>
</radialGradient>
<radialGradient id="paint5_radial" cx="0" cy="0" r="1" gradientUnits="userSpaceOnUse" gradientTransform="translate(25.6414 22.0804) rotate(-13.5916) scale(12.7898 14.9737)">
<stop offset="0.206" stop-color="#9059FF" stop-opacity="0"/>
<stop offset="0.278" stop-color="#8C4FF3" stop-opacity="0.064"/>
<stop offset="0.747" stop-color="#7716A8" stop-opacity="0.45"/>
<stop offset="0.975" stop-color="#6E008B" stop-opacity="0.6"/>
</radialGradient>
<radialGradient id="paint6_radial" cx="0" cy="0" r="1" gradientUnits="userSpaceOnUse" gradientTransform="translate(22.5675 3.86005) scale(17.3539)">
<stop stop-color="#FFE226"/>
<stop offset="0.121" stop-color="#FFDB27"/>
<stop offset="0.295" stop-color="#FFC82A"/>
<stop offset="0.502" stop-color="#FFA930"/>
<stop offset="0.732" stop-color="#FF7E37"/>
<stop offset="0.792" stop-color="#FF7139"/>
</radialGradient>
<radialGradient id="paint7_radial" cx="0" cy="0" r="1" gradientUnits="userSpaceOnUse" gradientTransform="translate(36.3649 -7.42564) scale(74.0426)">
<stop offset="0.113" stop-color="#FFF44F"/>
<stop offset="0.456" stop-color="#FF980E"/>
<stop offset="0.622" stop-color="#FF5634"/>
<stop offset="0.716" stop-color="#FF3647"/>
<stop offset="0.904" stop-color="#E31587"/>
</radialGradient>
<radialGradient id="paint8_radial" cx="0" cy="0" r="1" gradientUnits="userSpaceOnUse" gradientTransform="translate(30.208 -3.32095) rotate(83.976) scale(54.2595 35.61)">
<stop stop-color="#FFF44F"/>
<stop offset="0.06" stop-color="#FFE847"/>
<stop offset="0.168" stop-color="#FFC830"/>
<stop offset="0.304" stop-color="#FF980E"/>
<stop offset="0.356" stop-color="#FF8B16"/>
<stop offset="0.455" stop-color="#FF672A"/>
<stop offset="0.57" stop-color="#FF3647"/>
<stop offset="0.737" stop-color="#E31587"/>
</radialGradient>
<radialGradient id="paint9_radial" cx="0" cy="0" r="1" gradientUnits="userSpaceOnUse" gradientTransform="translate(22.5708 10.1281) scale(46.2186)">
<stop offset="0.137" stop-color="#FFF44F"/>
<stop offset="0.48" stop-color="#FF980E"/>
<stop offset="0.592" stop-color="#FF5634"/>
<stop offset="0.655" stop-color="#FF3647"/>
<stop offset="0.904" stop-color="#E31587"/>
</radialGradient>
<radialGradient id="paint10_radial" cx="0" cy="0" r="1" gradientUnits="userSpaceOnUse" gradientTransform="translate(34.4768 12.6358) scale(50.5884)">
<stop offset="0.094" stop-color="#FFF44F"/>
<stop offset="0.231" stop-color="#FFE141"/>
<stop offset="0.509" stop-color="#FFAF1E"/>
<stop offset="0.626" stop-color="#FF980E"/>
</radialGradient>
<linearGradient id="paint11_linear" x1="43.0777" y1="7.6554" x2="8.7586" y2="41.9808" gradientUnits="userSpaceOnUse">
<stop offset="0.167" stop-color="#FFF44F" stop-opacity="0.8"/>
<stop offset="0.266" stop-color="#FFF44F" stop-opacity="0.634"/>
<stop offset="0.489" stop-color="#FFF44F" stop-opacity="0.217"/>
<stop offset="0.6" stop-color="#FFF44F" stop-opacity="0"/>
</linearGradient>
</defs>
</svg>
