<svg width="220" height="64" viewBox="0 0 220 64" fill="none" xmlns="http://www.w3.org/2000/svg">
<g clip-path="url(#clip0)">
<path d="M110.336 -0.000462912C143.148 -0.000462912 175.96 -0.000462912 208.77 -0.000462912C210.316 -0.000462912 211.863 0.101803 213.344 0.586909C216.352 1.57286 218.36 3.57884 219.361 6.56814C219.648 7.49498 219.824 8.45269 219.885 9.4211C220.04 11.1963 219.985 12.9742 219.985 14.752C219.985 27.4277 219.985 40.1017 219.985 52.7739C219.985 54.397 219.861 56.028 219.311 57.5778C218.284 60.4622 216.284 62.3921 213.375 63.365C212.429 63.6614 211.45 63.8376 210.461 63.8894C208.257 64.0467 206.05 63.989 203.843 63.989C139.815 63.989 75.7859 63.989 11.7546 63.989C10.1087 63.989 8.44716 63.9471 6.85896 63.441C3.30254 62.303 1.12204 59.9063 0.362006 56.2378C0.141734 55.0789 0.0363913 53.9011 0.0475109 52.7215C-0.0442169 39.2827 0.0265445 25.8413 0.0186822 12.4025C-0.0254746 10.8377 0.0869052 9.27228 0.354144 7.72978C1.14038 3.83581 3.89222 1.07988 7.79982 0.311579C8.93655 0.0952402 10.0917 -0.0092718 11.2488 -0.000462912C44.2848 -0.000462912 77.3138 -0.000462912 110.336 -0.000462912ZM13.1987 32.7193C13.2537 35.7794 13.1017 39.579 13.2668 43.3786C13.3191 44.8958 13.6183 46.3944 14.1526 47.8153C15.0725 50.2146 16.7996 51.7486 19.237 52.5091C20.989 53.0264 22.8092 53.2757 24.6358 53.2485C29.3707 53.2642 34.1065 53.2642 38.8431 53.2485C41.1468 53.2485 43.4505 53.3193 45.7542 53.1882C47.2393 53.1277 48.7076 52.8503 50.1126 52.3648C51.1285 52.0252 52.0596 51.4707 52.8423 50.7391C53.6251 50.0074 54.2414 49.1158 54.6492 48.1247C55.4005 46.2578 55.766 44.2579 55.7237 42.2458C55.7237 35.2183 55.7971 28.1908 55.6922 21.1633C55.6728 19.6502 55.4309 18.1482 54.9741 16.7056C54.1695 14.1883 52.5447 12.4628 50.0365 11.5818C48.3289 11.0055 46.5367 10.7201 44.7347 10.7374C38.4998 10.7112 32.2676 10.7374 26.0327 10.7374C24.8822 10.7374 23.7316 10.7374 22.5837 10.8397C21.2595 10.9415 19.9545 11.2175 18.7023 11.6605C17.6074 12.0451 16.6164 12.6783 15.807 13.5104C14.9977 14.3425 14.3919 15.3509 14.0373 16.4565C13.4728 18.1684 13.1922 19.9612 13.2065 21.7638C13.1803 25.1726 13.1987 28.5815 13.1987 32.7193ZM134.804 43.5254C134.804 42.2379 134.804 40.9478 134.804 39.6603C134.804 39.4662 134.756 39.419 134.562 39.419C132.151 39.419 129.741 39.419 127.332 39.419C127.138 39.419 127.085 39.4689 127.088 39.6629C127.101 40.3342 127.106 41.0055 127.088 41.6741C127.088 41.9363 127.138 42.0465 127.439 42.0412C128.708 42.0229 129.976 42.0412 131.242 42.0412C131.475 42.0412 131.569 42.0779 131.564 42.3428C131.549 43.4415 131.564 44.5402 131.564 45.6415C131.571 45.6817 131.569 45.7228 131.559 45.7622C131.549 45.8017 131.531 45.8388 131.507 45.8713C131.482 45.9038 131.452 45.9311 131.417 45.9515C131.381 45.972 131.342 45.9851 131.302 45.9903C129.868 46.4635 128.348 46.6227 126.847 46.457C124.75 46.1948 123.207 45.1092 122.376 43.1452C121.589 41.2677 121.516 39.2984 121.886 37.3108C122.114 35.8435 122.85 34.5028 123.964 33.5217C125.497 32.2106 127.319 31.8776 129.268 32.0559C130.612 32.1965 131.921 32.57 133.137 33.1599C133.328 33.2516 133.415 33.2569 133.488 33.0156C133.687 32.347 133.905 31.6836 134.148 31.0306C134.251 30.7684 134.185 30.6557 133.936 30.5508C130.422 29.0561 126.876 28.7887 123.319 30.3725C121.491 31.1938 120.026 32.6563 119.202 34.4841C118.597 35.7952 118.262 37.2151 118.219 38.6586C118.1 40.4044 118.361 42.1553 118.984 43.7902C119.363 44.8012 119.942 45.7252 120.686 46.5066C121.431 47.288 122.325 47.9107 123.317 48.3371C124.869 48.9891 126.55 49.2762 128.231 49.1762C130.408 49.0883 132.55 48.5957 134.547 47.7235C134.633 47.6959 134.707 47.6386 134.755 47.5618C134.803 47.485 134.822 47.3936 134.809 47.304C134.798 46.0401 134.806 44.7814 134.806 43.528L134.804 43.5254ZM86.7748 48.9166C85.7973 46.4832 84.8381 44.0866 83.8763 41.6925C82.2881 37.733 80.6998 33.7717 79.1116 29.8087C79.0941 29.7357 79.05 29.6719 78.988 29.6297C78.926 29.5875 78.8504 29.57 78.7762 29.5806C77.8641 29.5806 76.9416 29.5963 76.0427 29.5806C75.9583 29.5686 75.8726 29.589 75.8026 29.6377C75.7327 29.6863 75.6836 29.7595 75.6653 29.8428C75.3063 30.7632 74.942 31.6783 74.5803 32.604L68.9403 46.9998C68.694 47.6265 68.4502 48.2558 68.196 48.9114C69.3125 48.9114 70.3896 48.9114 71.4694 48.9114C71.6136 48.9114 71.6555 48.8511 71.7 48.7226C72.274 47.1493 72.8558 45.576 73.4298 44.0026C73.4874 43.8401 73.5398 43.7404 73.7443 43.7404C76.1659 43.7509 78.5866 43.7509 81.0065 43.7404C81.0413 43.7341 81.0771 43.7349 81.1116 43.7427C81.1462 43.7506 81.1788 43.7654 81.2074 43.7863C81.2361 43.8071 81.2602 43.8335 81.2784 43.864C81.2966 43.8944 81.3084 43.9282 81.3131 43.9633C81.8897 45.5366 82.4767 47.0837 83.0612 48.6439C83.111 48.775 83.1346 48.9062 83.3442 48.9062C84.4764 48.9114 85.606 48.9166 86.7748 48.9166ZM106.667 36.3039C106.622 35.7532 106.554 35.255 106.475 34.7489C106.447 34.5549 106.376 34.5155 106.2 34.5182C105.32 34.5182 104.439 34.5182 103.558 34.5182C103.336 34.5182 103.296 34.5942 103.312 34.7804C103.351 35.5933 103.404 36.4088 103.406 37.2216C103.406 43.0132 103.406 48.8056 103.406 54.5989C103.406 54.8192 103.406 54.9529 103.7 54.9241C104.622 54.8297 105.535 54.7379 106.47 54.6802C106.732 54.6645 106.748 54.5753 106.748 54.3629C106.748 52.5825 106.748 50.802 106.748 49.0215C106.748 48.7593 106.803 48.7331 107.039 48.8091C108.097 49.1469 109.212 49.2691 110.317 49.1684C112.938 48.9324 114.791 47.6187 115.782 45.1774C116.644 43.0455 116.665 40.835 116.188 38.6219C115.95 37.3353 115.266 36.1739 114.257 35.3415C113.377 34.6652 112.309 34.28 111.201 34.2396C110.093 34.1992 109 34.5056 108.074 35.116C107.563 35.4596 107.091 35.8579 106.667 36.3039ZM91.5919 48.7331C93.4841 49.2969 94.425 49.2706 95.392 49.1526C98.0993 48.8275 99.9155 47.3407 100.796 44.771C101.489 42.6953 101.553 40.4614 100.982 38.3492C100.71 37.1797 100.066 36.1299 99.1476 35.3573C97.4939 33.9885 94.9124 33.8652 93.049 35.0426C92.5144 35.397 92.0143 35.8008 91.5552 36.2488C91.4818 35.7244 91.411 35.2288 91.3429 34.7358C91.3245 34.6073 91.3088 34.5129 91.1227 34.5155C90.2029 34.5155 89.2882 34.5155 88.3578 34.5155C88.2242 34.5155 88.177 34.5155 88.1848 34.6991C88.2346 35.8161 88.2844 36.9332 88.287 38.0503C88.287 42.4188 88.287 46.7874 88.287 51.1612C88.287 52.3334 88.287 53.5055 88.287 54.6802C88.287 54.8638 88.3185 54.9425 88.5255 54.9267C89.469 54.8349 90.4125 54.7484 91.3586 54.6802C91.5578 54.6645 91.5997 54.6068 91.5971 54.418C91.5971 53.7887 91.5971 53.1594 91.5971 52.5327L91.5919 48.7331ZM192.867 34.5208C192.893 34.6099 192.904 34.6598 192.922 34.707C193.836 37.2085 194.752 39.7101 195.671 42.2117C196.468 44.3916 197.266 46.5706 198.064 48.7488C198.101 48.8176 198.122 48.8933 198.128 48.971C198.133 49.0487 198.122 49.1267 198.096 49.1998C197.914 49.676 197.7 50.1394 197.456 50.587C196.911 51.5074 196.183 52.1891 195.079 52.3281C194.422 52.3931 193.759 52.3281 193.127 52.1367C192.93 52.0843 192.865 52.1367 192.812 52.3281C192.663 52.9863 192.498 53.6392 192.322 54.2974C192.27 54.4888 192.322 54.536 192.5 54.5911C193.516 54.8834 194.576 54.9926 195.63 54.9136C196.666 54.8742 197.669 54.5314 198.512 53.9277C199.394 53.2366 200.102 52.3495 200.58 51.3369C201.353 49.8554 201.838 48.2585 202.415 46.6956C203.638 43.3445 204.861 39.9889 206.084 36.629C206.346 35.9368 206.582 35.2445 206.841 34.5313C205.748 34.5313 204.692 34.5313 203.636 34.5313C203.453 34.5313 203.45 34.6493 203.411 34.7673C203.04 35.8843 202.67 37.0005 202.299 38.1158C201.712 39.8963 201.118 41.6741 200.544 43.4572C200.316 44.1705 200.135 44.8968 199.915 45.6756C199.657 44.5055 199.334 43.3508 198.947 42.2169C198.13 39.7223 197.31 37.2295 196.489 34.7384C196.447 34.6073 196.413 34.526 196.245 34.526C195.124 34.526 194.002 34.5208 192.854 34.5208H192.867ZM146.395 47.1073C146.461 47.6318 146.526 48.1562 146.589 48.6806C146.61 48.8563 146.668 48.9429 146.88 48.9429C147.75 48.9245 148.62 48.9271 149.501 48.9429C149.732 48.9429 149.781 48.8721 149.763 48.6597C149.721 47.9648 149.671 47.2647 149.669 46.5619C149.669 44.4982 149.669 42.4372 149.669 40.3735C149.678 39.6733 149.61 38.9743 149.467 38.2889C149.019 36.2488 147.866 34.88 145.748 34.4631C144.825 34.284 143.882 34.2224 142.944 34.2795C141.433 34.3654 139.945 34.6865 138.533 35.2314C138.5 35.2371 138.469 35.2502 138.442 35.2695C138.415 35.2889 138.392 35.3141 138.376 35.3433C138.36 35.3725 138.351 35.4049 138.349 35.4382C138.347 35.4714 138.353 35.5047 138.365 35.5356C138.517 36.1964 138.661 36.858 138.798 37.5206C138.834 37.7041 138.876 37.7671 139.075 37.6753C139.694 37.3887 140.338 37.1621 140.999 36.9988C141.998 36.7628 142.999 36.5923 144.029 36.7759C145.179 36.983 145.934 37.6097 146.191 38.7818C146.277 39.2325 146.327 39.6893 146.34 40.148C146.34 40.3578 146.293 40.4102 146.078 40.3761C144.461 40.1553 142.82 40.1748 141.209 40.4338C140.234 40.6095 139.314 40.9163 138.554 41.6007C137.479 42.5657 137.115 43.8007 137.199 45.1905C137.304 46.8818 138.066 48.151 139.678 48.817C140.457 49.1211 141.295 49.2431 142.129 49.1736C143.827 49.0766 145.192 48.3188 146.382 47.1047L146.395 47.1073ZM175.51 42.1619C176.988 42.1619 178.466 42.1619 179.941 42.1619C180.059 42.1619 180.217 42.2327 180.222 41.9914C180.289 40.7516 180.141 39.5095 179.784 38.3203C179.305 36.8808 178.474 35.6981 177.132 34.9692C175.455 34.0645 173.678 34.0435 171.89 34.6021C169.878 35.234 168.614 36.671 167.959 38.6298C167.319 40.5436 167.256 42.6039 167.778 44.5533C168.329 46.714 169.673 48.185 171.83 48.8458C172.897 49.147 174.008 49.264 175.114 49.192C176.702 49.1367 178.266 48.7808 179.721 48.1431C179.897 48.0644 179.947 47.9779 179.881 47.7865C179.679 47.207 179.48 46.6222 179.32 46.0296C179.244 45.749 179.129 45.7674 178.911 45.8539C177.588 46.4209 176.157 46.6895 174.718 46.6406C173.306 46.5645 172.147 46.0401 171.447 44.7447C171.092 44.0346 170.886 43.259 170.842 42.466C170.818 42.2038 170.881 42.175 171.104 42.175C172.564 42.1645 174.021 42.1592 175.497 42.1592L175.51 42.1619ZM160.692 37.0407C160.692 39.7223 160.692 42.404 160.692 45.0856C160.692 45.5653 160.723 46.0444 160.786 46.52C160.972 47.8966 161.834 48.8537 163.145 49.1002C164.231 49.2774 165.343 49.1929 166.389 48.8537C166.554 48.8065 166.594 48.741 166.56 48.5653C166.463 48.0671 166.397 47.561 166.316 47.0575C166.282 46.853 166.316 46.5803 166.182 46.4596C166.049 46.339 165.781 46.4937 165.574 46.5226C164.696 46.6458 164.17 46.2604 164.062 45.3636C164.045 45.2182 164.037 45.072 164.036 44.9257C164.036 39.4802 164.036 34.0339 164.036 28.5867C164.036 28.5133 164.036 28.4399 164.036 28.3691C164.036 28.2249 164.02 28.1777 163.845 28.1934C162.912 28.2826 161.976 28.3665 161.04 28.4163C160.76 28.432 160.692 28.5081 160.694 28.7782C160.689 31.5332 160.684 34.2865 160.679 37.0381L160.692 37.0407ZM155.82 36.7785V28.4504C155.82 28.3114 155.888 28.1593 155.6 28.1882C154.711 28.2904 153.817 28.3743 152.921 28.4058C152.546 28.4058 152.51 28.5527 152.512 28.8673C152.512 34.4369 152.512 40.0073 152.512 45.5786C152.509 46.0274 152.562 46.4749 152.669 46.9107C152.932 47.9438 153.524 48.6859 154.577 49.0084C155.804 49.3703 157.012 49.1946 158.21 48.8511C158.341 48.8144 158.378 48.741 158.351 48.5889C158.252 48.0461 158.168 47.5007 158.089 46.9552C158.011 46.4098 158.005 46.3993 157.476 46.499C157.434 46.499 157.395 46.5173 157.353 46.5226C156.59 46.6327 156.061 46.3154 155.898 45.631C155.845 45.3971 155.82 45.1577 155.822 44.9178C155.815 42.2029 155.81 39.489 155.807 36.7759L155.82 36.7785ZM186.124 37.1797C186.04 36.3353 185.951 35.5303 185.883 34.7227C185.867 34.547 185.809 34.5208 185.657 34.5208C184.745 34.5208 183.833 34.5208 182.921 34.5208C182.767 34.5208 182.748 34.5549 182.754 34.7122C182.798 35.7611 182.848 36.81 182.853 37.8746C182.864 41.4565 182.864 45.0402 182.853 48.6256C182.853 48.8878 182.916 48.935 183.16 48.9298C184.061 48.9298 184.963 48.914 185.862 48.9298C186.124 48.9298 186.168 48.8563 186.168 48.6177C186.168 45.9562 186.189 43.2947 186.145 40.6357C186.118 40.312 186.162 39.9862 186.274 39.6813C186.387 39.3765 186.564 39.0999 186.795 38.871C186.868 38.7976 186.934 38.7163 187.005 38.6376C188.053 37.4524 189.324 36.8939 190.915 37.2505C191.096 37.2898 191.117 37.2505 191.14 37.0879C191.255 36.254 191.379 35.4176 191.51 34.5837C191.533 34.4369 191.491 34.3844 191.355 34.3582C190.21 34.1406 189.112 34.1904 188.116 34.8826C187.629 35.2274 187.203 35.6521 186.858 36.1387C186.601 36.4717 186.368 36.8126 186.111 37.1771L186.124 37.1797ZM168.455 18.4834C168.363 18.3549 168.31 18.2946 168.268 18.2212C166.845 15.9871 165.401 13.7635 164.01 11.511C163.677 10.9865 163.339 10.6457 162.684 10.7846C162.596 10.7905 162.509 10.7905 162.421 10.7846C162.12 10.8056 161.735 10.6535 161.546 10.8476C161.357 11.0416 161.499 11.4061 161.499 11.6972C161.499 14.6524 161.499 17.605 161.499 20.5602C161.499 20.8617 161.588 20.9299 161.866 20.9116C162.215 20.8928 162.565 20.8928 162.914 20.9116C163.111 20.9116 163.161 20.8513 163.158 20.6493C163.158 19.9886 163.158 19.3382 163.158 18.6696C163.142 17.1304 163.197 15.5911 163.129 14.0519C163.116 13.7477 163.129 13.4435 163.129 13.0712L164.384 15.0431C165.567 16.9276 166.753 18.8068 167.941 20.6808C167.977 20.759 168.036 20.824 168.111 20.8667C168.186 20.9095 168.272 20.9279 168.358 20.9194C168.819 20.8958 169.28 20.8985 169.741 20.9194C169.985 20.9194 170.056 20.8644 170.056 20.6126C170.056 18.5463 170.056 16.4827 170.056 14.419C170.056 13.2993 170.056 12.177 170.056 11.0573C170.056 10.8581 170.017 10.7741 169.794 10.7951C169.46 10.8214 169.124 10.8214 168.79 10.7951C168.455 10.761 168.4 10.8895 168.402 11.1937C168.431 13.5878 168.384 15.9949 168.441 18.4808L168.455 18.4834ZM109.623 15.6514C109.631 15.2587 109.601 14.866 109.531 14.4793C109.409 13.5979 109.022 12.7746 108.421 12.1188C107.82 11.463 107.033 11.0059 106.166 10.8082C105.432 10.6335 104.673 10.5952 103.925 10.6955C102.091 10.9157 100.71 11.7968 99.9758 13.5432C99.544 14.606 99.4108 15.7666 99.5905 16.8996C99.8212 18.549 100.586 19.8496 102.146 20.5707C103.118 20.9967 104.191 21.1412 105.241 20.9876C106.751 20.8172 107.993 20.1616 108.818 18.8505C109.403 17.8896 109.683 16.7745 109.623 15.6514ZM149.485 16.0133C149.469 16.4207 149.504 16.8284 149.587 17.2274C149.886 18.7089 150.636 19.8679 152.025 20.5497C153.001 20.9993 154.088 21.1559 155.151 21.0007C156.96 20.7988 158.344 19.9518 159.083 18.2395C159.676 16.8668 159.762 15.3273 159.324 13.8972C159.139 13.1571 158.754 12.482 158.212 11.9456C157.67 11.4092 156.991 11.0321 156.249 10.8554C155.153 10.5598 153.996 10.5743 152.908 10.8974C152.274 11.0648 151.685 11.3708 151.184 11.7934C150.683 12.216 150.282 12.7447 150.009 13.3413C149.63 14.1791 149.45 15.094 149.485 16.0133ZM116.17 16.4565C117.357 15.932 118.114 15.0746 118.224 13.7556C118.303 12.8326 118.07 12.0118 117.281 11.4349C116.715 11.053 116.052 10.841 115.37 10.824C114.188 10.7453 113.012 10.824 111.822 10.782C111.578 10.782 111.534 10.8502 111.534 11.0809C111.534 13.0371 111.534 14.9959 111.534 16.9547C111.534 18.1792 111.534 19.4038 111.534 20.6257C111.534 20.8696 111.599 20.9247 111.83 20.9142C112.225 20.8958 112.616 20.8958 113.022 20.9142C113.261 20.9142 113.344 20.867 113.339 20.61C113.324 19.4562 113.339 18.3051 113.339 17.154C113.339 16.9599 113.386 16.8917 113.58 16.9127C113.863 16.9311 114.146 16.9127 114.429 16.9127C114.48 16.9068 114.53 16.9164 114.575 16.9403C114.62 16.9642 114.656 17.0013 114.678 17.0464C115.352 18.077 116.075 19.0813 116.689 20.1459C117.037 20.7464 117.428 21.0191 118.12 20.9168C118.507 20.8889 118.896 20.8889 119.283 20.9168C118.198 19.3881 117.192 17.9275 116.17 16.4565ZM75.0913 10.7899C75.1411 10.8948 75.17 10.9708 75.2119 11.0521C76.1571 12.5398 77.1041 14.0257 78.0528 15.5098C78.1117 15.578 78.1441 15.665 78.1441 15.755C78.1441 15.845 78.1117 15.9321 78.0528 16.0002C77.2063 17.2562 76.3755 18.5227 75.5421 19.7866L74.7978 20.9273C75.4058 20.9273 75.9615 20.9273 76.5144 20.9273C76.5948 20.9347 76.6756 20.917 76.7455 20.8766C76.8154 20.8362 76.8711 20.7752 76.9049 20.7018C77.6571 19.4667 78.4198 18.2395 79.1903 16.9914C79.261 17.0936 79.3266 17.1749 79.379 17.2536C79.9555 18.2055 80.5793 19.1363 81.0903 20.138C81.4179 20.7726 81.8189 21.0453 82.5239 20.9247C82.8947 20.8969 83.267 20.8969 83.6378 20.9247L83.5041 20.7097C82.482 19.1232 81.4625 17.5342 80.4273 15.9556C80.3644 15.8827 80.3298 15.7897 80.3298 15.6934C80.3298 15.5971 80.3644 15.504 80.4273 15.4312C81.245 14.1804 82.0312 12.9296 82.8175 11.6814C82.9983 11.3982 83.1765 11.1124 83.3809 10.7899C82.7362 10.7899 82.1518 10.7899 81.5673 10.7899C81.4284 10.7899 81.3708 10.8554 81.3053 10.9629C80.9016 11.6316 80.4902 12.295 80.0787 12.9584C79.7904 13.4278 79.4969 13.8946 79.1955 14.3797C79.1431 14.2984 79.109 14.2486 79.0776 14.1961C78.4503 13.1228 77.8205 12.0442 77.188 10.9603C77.1329 10.8685 77.0989 10.7846 76.9626 10.7873C76.3467 10.7925 75.7413 10.7899 75.0913 10.7899ZM68.1856 15.8166C68.1856 17.4197 68.1856 19.0218 68.1856 20.6231C68.1856 20.7857 68.162 20.9194 68.4162 20.9194C70.2271 20.9194 72.0407 20.9194 73.8517 20.9194C74.0011 20.9194 74.0719 20.8985 74.0797 20.7228C74.0954 20.3897 74.1452 20.0594 74.1898 19.7316C74.2212 19.5113 74.1767 19.4274 73.9277 19.4326C72.7038 19.4484 71.4773 19.4326 70.2586 19.4326C69.9965 19.4326 69.9546 19.354 69.9572 19.1206C69.9703 18.3025 69.9729 17.487 69.9572 16.6689C69.9572 16.4381 70.0149 16.3699 70.2507 16.3725C71.3305 16.3857 72.4103 16.3725 73.4874 16.3725C73.6971 16.3725 73.7888 16.3385 73.7731 16.1103C73.7521 15.8284 73.7521 15.5453 73.7731 15.2634C73.7888 15.0457 73.7259 14.9802 73.511 14.9828C72.4312 14.9959 71.3515 14.9828 70.2743 14.9828C70.0542 14.9828 69.9598 14.9487 69.9677 14.697C69.986 13.9654 69.9808 13.2311 69.9677 12.4969C69.9677 12.295 70.0175 12.2347 70.2298 12.2347C71.1418 12.2347 72.0643 12.2347 72.9633 12.2347C73.3092 12.2347 73.7495 12.3553 73.9696 12.1875C74.1898 12.0197 74.0954 11.5503 74.1321 11.2147C74.1377 11.1529 74.1473 11.0916 74.161 11.0311C74.2081 10.8213 74.1452 10.7505 73.9146 10.7532C72.1141 10.7532 70.3136 10.7532 68.5105 10.7532C68.2485 10.7532 68.2118 10.8502 68.2118 11.0757C68.1882 12.6752 68.1856 14.2459 68.1856 15.8166ZM120.601 15.8481V20.6546C120.601 20.7883 120.565 20.9168 120.793 20.9168C122.627 20.9168 124.462 20.9168 126.296 20.9168C126.451 20.9168 126.485 20.8565 126.493 20.7149C126.502 20.3812 126.533 20.0483 126.585 19.7185C126.632 19.4562 126.543 19.4274 126.323 19.43C125.086 19.43 123.849 19.43 122.614 19.43C122.41 19.43 122.352 19.3828 122.352 19.1678C122.365 18.3182 122.365 17.4712 122.352 16.6217C122.352 16.4171 122.407 16.3594 122.614 16.3594C123.694 16.3594 124.771 16.3594 125.851 16.3594C126.082 16.3594 126.197 16.3253 126.171 16.0579C126.147 15.7866 126.147 15.5137 126.171 15.2424C126.186 15.0169 126.105 14.9618 125.888 14.9644C124.81 14.9644 123.731 14.9644 122.654 14.9644C122.433 14.9644 122.347 14.933 122.355 14.6812C122.376 13.9601 122.37 13.2364 122.355 12.5153C122.355 12.2898 122.394 12.2164 122.638 12.219C123.812 12.2347 124.997 12.219 126.158 12.219C126.338 12.219 126.42 12.1875 126.42 11.9882C126.439 11.6549 126.479 11.3231 126.538 10.9944C126.577 10.7637 126.496 10.7322 126.275 10.7322C124.472 10.7322 122.671 10.7322 120.871 10.7322C120.641 10.7322 120.573 10.7768 120.575 11.0206C120.601 12.6648 120.594 14.2564 120.594 15.8481H120.601ZM84.8879 15.8481C84.8879 17.4398 84.8879 19.0315 84.8879 20.6231C84.8879 20.8696 84.9586 20.9221 85.1867 20.9116C85.5629 20.8919 85.9399 20.8919 86.3162 20.9116C86.5783 20.9273 86.67 20.8722 86.6648 20.5786C86.6438 19.4694 86.6648 18.3602 86.6648 17.2484C86.6648 17.07 86.6988 17.015 86.8875 17.0491C87.38 17.14 87.8816 17.1708 88.3814 17.1408C90.0246 17.0281 91.4582 16.0369 91.5919 14.1306C91.6548 13.2338 91.4792 12.4052 90.7925 11.7522C90.243 11.2638 89.5551 10.9586 88.8243 10.879C87.6161 10.6981 86.4001 10.824 85.1893 10.7794C84.9482 10.7794 84.8984 10.8397 84.901 11.0731C84.8853 12.67 84.88 14.2617 84.88 15.8533L84.8879 15.8481ZM141.101 16.6007C141.101 15.2398 141.101 13.8788 141.101 12.5179C141.101 12.3186 141.143 12.2557 141.363 12.2557C142.199 12.2557 143.038 12.2557 143.877 12.2557C144.058 12.2557 144.113 12.1849 144.139 12.0328C144.173 11.6788 144.186 11.3222 144.249 10.9839C144.286 10.7846 144.212 10.7768 144.063 10.7768C141.57 10.7768 139.076 10.7768 136.583 10.7768C136.41 10.7768 136.376 10.8476 136.363 10.9944C136.334 11.3379 136.295 11.6788 136.25 12.0197C136.227 12.1954 136.25 12.2819 136.468 12.2662C137.325 12.2531 138.184 12.2662 139.044 12.2531C139.306 12.2531 139.372 12.2976 139.372 12.5704C139.372 15.2502 139.372 17.9301 139.372 20.61C139.372 20.8329 139.406 20.9273 139.657 20.9116C140.054 20.8906 140.452 20.8906 140.85 20.9116C141.08 20.9116 141.146 20.8644 141.146 20.6231C141.086 19.2884 141.093 17.9459 141.093 16.6059L141.101 16.6007ZM93.2744 15.8429C93.2744 17.4337 93.2744 19.0253 93.2744 20.6179C93.2744 20.8119 93.2744 20.9194 93.5365 20.9194C95.2977 20.9072 97.058 20.9072 98.8174 20.9194C99.0402 20.9194 99.0795 20.8198 99.0978 20.6572C99.1293 20.3268 99.1581 19.9938 99.1948 19.6634C99.2131 19.4746 99.2131 19.3645 98.9327 19.3697C97.7507 19.3907 96.574 19.3697 95.3815 19.3854C95.0985 19.3854 95.0251 19.3173 95.0251 19.0315C95.0382 16.4093 95.0251 13.7871 95.0408 11.1439C95.0408 10.8449 94.9517 10.7741 94.6739 10.7925C94.3082 10.8135 93.9416 10.8135 93.5758 10.7925C93.3137 10.7741 93.2639 10.8607 93.2639 11.1045C93.2797 12.6779 93.2744 14.2617 93.2744 15.8429ZM132.982 15.8429C132.982 17.4372 132.982 19.0288 132.982 20.6205C132.982 20.8644 133.048 20.9194 133.278 20.9089C133.698 20.8906 134.117 20.9089 134.536 20.9089C134.722 20.9089 134.798 20.867 134.798 20.6651C134.798 17.4503 134.798 14.2346 134.798 11.018C134.798 10.8161 134.73 10.7715 134.536 10.7768C134.117 10.7768 133.698 10.7951 133.278 10.7768C133.045 10.7637 132.985 10.8266 132.985 11.0678C132.987 12.6674 132.982 14.2591 132.982 15.8507V15.8429Z" fill="black"/>
<path d="M13.1957 32.7188C13.1957 28.5731 13.1773 25.1695 13.1957 21.7633C13.1816 19.9532 13.4649 18.1531 14.0343 16.435C14.3889 15.3294 14.9947 14.3211 15.804 13.489C16.6134 12.6569 17.6044 12.0237 18.6993 11.639C19.954 11.1953 21.2617 10.9194 22.5886 10.8182C23.7365 10.7055 24.887 10.716 26.0375 10.716C32.2724 10.716 38.5047 10.7002 44.7395 10.716C46.5466 10.7005 48.3433 10.9895 50.0545 11.5708C52.5626 12.4519 54.1875 14.1773 54.9921 16.6946C55.4488 18.1372 55.6908 19.6392 55.7102 21.1523C55.815 28.1798 55.7521 35.2073 55.7416 42.2348C55.784 44.247 55.4185 46.2468 54.6671 48.1138C54.2593 49.1048 53.6431 49.9965 52.8603 50.7281C52.0775 51.4597 51.1465 52.0142 50.1305 52.3539C48.7256 52.8394 47.2573 53.1167 45.7721 53.1772C43.4685 53.3083 41.1648 53.2297 38.8611 53.2375C34.1244 53.2498 29.3887 53.2498 24.6538 53.2375C22.8228 53.266 20.9981 53.0167 19.2418 52.4981C16.8045 51.7324 15.0774 50.2037 14.1575 47.8043C13.6249 46.3831 13.3275 44.8846 13.2769 43.3676C13.1013 39.5785 13.2507 35.7789 13.1957 32.7188ZM41.0154 35.7449C40.6537 34.6514 40.3183 33.6314 39.9828 32.6113C39.7705 31.9663 39.7679 31.9794 39.0996 31.9636C39.0096 31.9517 38.9186 31.9759 38.8464 32.0309C38.7742 32.086 38.7267 32.1674 38.7143 32.2573C38.4968 32.9548 38.2636 33.6471 38.0355 34.3394C37.8888 34.7773 37.7394 35.2152 37.5664 35.7239C37.2467 34.7327 36.9479 33.8202 36.6596 32.905C36.3609 31.9479 36.3661 31.9479 35.3702 31.9689C35.1789 31.9689 35.1081 31.9925 35.1894 32.2128C35.4226 32.8264 35.627 33.4531 35.8419 34.0719C36.222 35.1654 36.6046 36.2562 36.982 37.3496C36.9954 37.4201 37.0351 37.4829 37.093 37.5252C37.1509 37.5676 37.2227 37.5864 37.2939 37.5778C38.0041 37.5778 38.0041 37.5935 38.2505 36.9406C38.2871 36.8436 38.3133 36.7413 38.3474 36.6417C38.6462 35.7763 38.9476 34.911 39.2699 33.988C39.3407 34.1715 39.3957 34.2948 39.4403 34.4207C39.7251 35.2493 40.0116 36.077 40.2999 36.9039C40.5279 37.5778 40.5253 37.5647 41.225 37.5804C41.4504 37.5804 41.5291 37.4965 41.5946 37.3024C41.9536 36.2536 42.3258 35.2047 42.6901 34.1558C42.939 33.4399 43.1828 32.7267 43.4396 31.982C43.1382 31.982 42.8762 32.003 42.6167 31.982C42.3127 31.9479 42.1895 32.0659 42.0925 32.3596C41.7623 33.4609 41.4059 34.5675 41.0154 35.7449ZM27.9193 17.83C27.3453 17.83 27.3453 17.83 27.3951 18.4305C27.3951 18.5144 27.3951 18.5983 27.3951 18.6927C27.804 22.5421 31.515 25.4318 35.3466 24.889C36.977 24.6872 38.4869 23.9254 39.6183 22.7336C40.7498 21.5418 41.4325 19.994 41.55 18.3544C41.5972 17.83 41.5972 17.83 41.0888 17.83C40.9735 17.83 40.8555 17.83 40.7428 17.83C40.562 17.8143 40.5174 17.8877 40.5096 18.0634C40.4473 19.6077 39.7978 21.0698 38.6939 22.151C37.5901 23.2322 36.1152 23.8507 34.5707 23.8802C33.0263 23.9097 31.5289 23.3478 30.3847 22.3096C29.2404 21.2713 28.5357 19.8349 28.4146 18.2941C28.3727 17.83 28.3727 17.83 27.9193 17.83ZM22.7537 34.772C22.7537 34.1217 22.7537 33.4609 22.7537 32.8237C22.7537 32.5615 22.848 32.1918 22.7091 32.0371C22.5702 31.8824 22.185 32.003 21.8993 31.9715C21.687 31.9479 21.6084 32.0135 21.6163 32.2337C21.632 32.8211 21.6163 33.4059 21.6163 33.9932C21.6163 34.1584 21.5743 34.2056 21.4066 34.203C20.7077 34.203 20.0088 34.203 19.31 34.203C19.1396 34.203 19.1003 34.1479 19.1029 33.988C19.1029 33.6104 19.1029 33.2328 19.1029 32.8578C19.1029 32.5668 19.2313 32.1813 19.0453 32.0161C18.8592 31.8509 18.4661 31.9794 18.1647 31.9636H18.1332C17.9786 31.9479 17.9367 32.0213 17.9367 32.1656C17.9367 33.8927 17.9367 35.6199 17.9367 37.347C17.9367 37.507 17.9838 37.5752 18.1516 37.5673C18.3819 37.5516 18.6131 37.5516 18.8435 37.5673C19.0767 37.5883 19.1055 37.4886 19.1055 37.2788C19.0924 36.7046 19.1055 36.1277 19.1055 35.5534C19.1055 35.3437 19.1658 35.2912 19.3676 35.2912C20.0385 35.3043 20.7095 35.2912 21.3778 35.2912C21.5639 35.2912 21.6399 35.3306 21.6399 35.5325C21.6215 35.9205 21.6399 36.3191 21.6399 36.6941C21.6399 36.9747 21.5167 37.3392 21.6923 37.507C21.8679 37.6748 22.2322 37.5358 22.5126 37.562C22.7144 37.5804 22.7747 37.5122 22.7747 37.2998C22.7458 36.4686 22.7537 35.619 22.7537 34.772ZM44.3202 34.772C44.3202 35.5875 44.3202 36.4057 44.3202 37.2212C44.3202 37.4834 44.3674 37.5778 44.6557 37.5725C45.683 37.5516 46.7078 37.5725 47.7351 37.5725C47.9972 37.5725 48.3326 37.6879 48.4925 37.5227C48.6524 37.3575 48.5135 37.0219 48.5423 36.7649C48.5711 36.5079 48.4637 36.5027 48.2566 36.5027C47.6696 36.5158 47.0825 36.5027 46.4955 36.5027C46.1626 36.5027 45.8272 36.4896 45.4943 36.4843C45.4577 36.1219 45.4445 35.7576 45.455 35.3935C45.4419 35.2204 45.5153 35.1811 45.6725 35.1863C46.0185 35.1863 46.3644 35.1863 46.7209 35.1863C47.5621 35.1863 47.5569 35.1863 47.5071 34.3263C47.5071 34.1637 47.4547 34.1034 47.2896 34.1086C46.9567 34.1086 46.6186 34.1086 46.2858 34.1086C46.0237 34.1086 45.6516 34.2292 45.4996 34.0509C45.3476 33.8726 45.4681 33.5265 45.4445 33.2643C45.4236 33.044 45.5153 33.002 45.7066 33.002C46.3566 33.002 47.017 33.002 47.6565 33.002C48.4637 33.002 48.4558 33.002 48.4427 32.197C48.4427 31.9925 48.3615 31.9558 48.1806 31.9584C46.9777 31.9584 45.7721 31.9584 44.5666 31.9584C44.3543 31.9584 44.3045 32.0266 44.3045 32.2206C44.3255 33.0833 44.3202 33.9303 44.3202 34.7799V34.772ZM25.4505 33.8359C25.4505 33.4373 25.4505 33.1436 25.4505 32.85C25.4505 32.5563 25.5841 32.1682 25.3876 32.0161C25.191 31.864 24.8267 31.982 24.5358 31.961C24.3104 31.9427 24.2738 32.0476 24.2738 32.2232C24.2738 33.2092 24.2738 34.1925 24.2738 35.1785C24.2381 35.8346 24.4611 36.4786 24.8949 36.972C25.419 37.5358 26.1083 37.6564 26.8448 37.646C27.1379 37.6562 27.4301 37.6072 27.7039 37.5021C27.9778 37.3969 28.2277 37.2377 28.4387 37.0338C28.6498 36.83 28.8177 36.5858 28.9324 36.3157C29.0471 36.0456 29.1063 35.7551 29.1065 35.4617C29.1563 34.5623 29.1248 33.6628 29.1353 32.7634C29.1353 31.9768 29.1353 32.0004 28.3491 31.9768C28.0058 31.9768 27.9507 32.0816 27.9507 32.3937C27.9507 33.419 28.0162 34.4469 27.9193 35.4695C27.9192 35.6173 27.8889 35.7636 27.8301 35.8992C27.7713 36.0348 27.6853 36.1569 27.5775 36.2579C27.4696 36.3589 27.3422 36.4367 27.2031 36.4865C27.064 36.5363 26.9162 36.5569 26.7687 36.5473C26.0192 36.5473 25.5868 36.2169 25.4793 35.4984C25.4417 34.9477 25.4347 34.3953 25.4584 33.8438L25.4505 33.8359ZM32.6944 31.961C32.3668 31.961 32.1099 31.8902 31.9501 32.2704C31.266 33.9041 30.5375 35.5194 29.8246 37.1399C29.6385 37.5647 29.6438 37.5253 30.0867 37.5752C30.6449 37.6355 31.0066 37.4834 31.135 36.8986C31.1693 36.8014 31.2087 36.706 31.2529 36.6128C31.3001 36.4424 31.3997 36.3925 31.5753 36.3952C32.2331 36.3952 32.8857 36.4135 33.554 36.3952C33.6539 36.3807 33.7555 36.4041 33.839 36.4609C33.9224 36.5177 33.9816 36.6037 34.0048 36.702C34.3612 37.5909 34.3664 37.5804 35.3283 37.5752C35.5589 37.5752 35.5903 37.5306 35.4934 37.3129C34.7674 35.6872 34.0467 34.0588 33.3469 32.4199C33.2002 32.079 33.0403 31.8692 32.7022 31.9689L32.6944 31.961ZM49.8448 34.7484C49.8448 35.4092 49.8448 36.0595 49.8448 36.7282C49.8448 36.9904 49.7295 37.3496 49.8946 37.5148C50.0597 37.68 50.4188 37.5411 50.6809 37.5699C50.943 37.5988 50.9823 37.5227 50.9796 37.2815C50.9665 35.7947 50.9796 34.3053 50.9796 32.8237C50.9796 32.5615 51.074 32.1892 50.9377 32.0371C50.8014 31.885 50.4136 32.0056 50.1253 31.9741C49.9077 31.9505 49.8396 32.0213 49.8422 32.2364C49.8606 33.0807 49.8527 33.9172 49.8527 34.7563L49.8448 34.7484Z" fill="#C7102E"/>
<path d="M134.806 43.5285C134.806 44.7845 134.806 46.0432 134.806 47.2992C134.819 47.3888 134.8 47.4802 134.752 47.557C134.704 47.6338 134.63 47.6911 134.544 47.7187C132.544 48.5952 130.397 49.0905 128.215 49.1793C126.534 49.2793 124.853 48.9922 123.301 48.3402C122.312 47.9117 121.421 47.2878 120.679 46.5061C119.937 45.7243 119.361 44.8007 118.984 43.7907C118.369 42.154 118.116 40.4031 118.243 38.659C118.286 37.2155 118.62 35.7956 119.226 34.4845C120.05 32.6568 121.515 31.1942 123.343 30.3729C126.899 28.7996 130.445 29.0618 133.96 30.5512C134.209 30.6561 134.274 30.761 134.172 31.0311C133.928 31.684 133.711 32.3422 133.512 33.0161C133.438 33.2573 133.352 33.2521 133.16 33.1603C131.94 32.5687 130.625 32.1951 129.276 32.0563C127.326 31.878 125.505 32.2058 123.972 33.5222C122.858 34.5032 122.122 35.8439 121.894 37.3112C121.524 39.2989 121.592 41.2681 122.384 43.1456C123.214 45.1097 124.742 46.2005 126.855 46.4575C128.363 46.6225 129.889 46.4597 131.328 45.9802C131.369 45.9751 131.408 45.9619 131.443 45.9415C131.478 45.9211 131.509 45.8938 131.533 45.8613C131.558 45.8288 131.575 45.7917 131.585 45.7522C131.595 45.7127 131.597 45.6717 131.591 45.6315C131.591 44.5302 131.591 43.4315 131.591 42.3328C131.591 42.0705 131.501 42.0286 131.268 42.0312C130.002 42.0312 128.734 42.0312 127.465 42.0312C127.164 42.0312 127.106 41.9394 127.114 41.6641C127.133 40.9954 127.127 40.3241 127.114 39.6529C127.114 39.4588 127.164 39.409 127.358 39.409C129.769 39.409 132.179 39.409 134.589 39.409C134.783 39.409 134.83 39.4562 134.83 39.6502C134.801 40.9482 134.806 42.2384 134.806 43.5285Z" fill="#FBFBFB"/>
<path d="M86.7741 48.9168C85.6052 48.9168 84.4757 48.9168 83.3435 48.9168C83.1338 48.9168 83.1103 48.7883 83.0605 48.6546C82.476 47.0813 81.889 45.5368 81.3124 43.974C81.3076 43.9388 81.2958 43.905 81.2777 43.8746C81.2595 43.8442 81.2354 43.8178 81.2067 43.7969C81.178 43.7761 81.1455 43.7613 81.1109 43.7534C81.0764 43.7455 81.0406 43.7447 81.0058 43.7511C78.5841 43.7511 76.1634 43.7511 73.7435 43.7511C73.5391 43.7511 73.4815 43.8429 73.429 44.0133C72.8551 45.5866 72.2733 47.1599 71.6993 48.7333C71.6548 48.8617 71.6128 48.9247 71.4687 48.9221C70.3889 48.9221 69.3118 48.9221 68.1953 48.9221C68.4574 48.2665 68.6933 47.6372 68.9396 47.0105L74.5796 32.6146C74.9412 31.6942 75.3055 30.7791 75.6646 29.8534C75.6829 29.7702 75.7319 29.6969 75.8019 29.6483C75.8719 29.5997 75.9576 29.5793 76.042 29.5912C76.9514 29.6096 77.8765 29.5912 78.7755 29.5912C78.8497 29.5806 78.9252 29.5982 78.9873 29.6404C79.0493 29.6826 79.0934 29.7464 79.1109 29.8193C80.6974 33.7771 82.2821 37.7349 83.865 41.6927C84.8374 44.0867 85.7966 46.4834 86.7741 48.9168ZM74.535 41.0502C74.5735 41.0623 74.613 41.071 74.653 41.0764C76.4351 41.0764 78.2146 41.0764 79.9941 41.0764C80.2772 41.0764 80.1697 40.9375 80.1199 40.7985C79.4333 38.9629 78.7414 37.1143 78.0626 35.2683C77.8136 34.5839 77.5935 33.8864 77.3393 33.1338C76.5268 35.8688 75.4549 38.4359 74.535 41.0607V41.0502Z" fill="#FBFBFB"/>
<path d="M106.667 36.3038C107.089 35.8574 107.558 35.4582 108.067 35.1133C108.993 34.5029 110.086 34.1965 111.194 34.2369C112.302 34.2774 113.37 34.6625 114.249 35.3388C115.258 36.1712 115.942 37.3326 116.181 38.6192C116.658 40.835 116.637 43.0455 115.774 45.1747C114.784 47.616 112.933 48.9297 110.31 49.1657C109.204 49.2664 108.089 49.1442 107.031 48.8065C106.796 48.7304 106.738 48.7619 106.741 49.0189C106.741 50.7993 106.741 52.5798 106.741 54.3603C106.741 54.5727 106.72 54.6618 106.463 54.6776C105.538 54.7352 104.615 54.827 103.693 54.9214C103.41 54.9503 103.399 54.8165 103.399 54.5963C103.399 48.803 103.399 43.0105 103.399 37.219C103.399 36.4061 103.344 35.5906 103.305 34.7777C103.305 34.5889 103.328 34.5155 103.551 34.5155C104.432 34.5286 105.312 34.5155 106.193 34.5155C106.368 34.5155 106.439 34.5522 106.468 34.7462C106.541 35.2497 106.61 35.7531 106.667 36.3038ZM106.746 42.3558C106.746 43.5489 106.746 44.7447 106.746 45.9378C106.734 46.0294 106.757 46.1221 106.81 46.1974C106.864 46.2728 106.944 46.3252 107.034 46.3442C107.789 46.6208 108.59 46.7473 109.393 46.7166C110.012 46.7208 110.62 46.551 111.147 46.2265C111.674 45.9019 112.1 45.4358 112.375 44.881C112.788 44.0671 113.015 43.1713 113.038 42.2588C113.101 41.0893 113.093 39.9224 112.69 38.7949C112.49 38.167 112.073 37.6308 111.514 37.282C110.955 36.9332 110.291 36.7947 109.639 36.8912C108.536 37.0118 107.713 37.6228 106.929 38.3308C106.864 38.3886 106.812 38.4608 106.779 38.5418C106.746 38.6227 106.732 38.7102 106.738 38.7975C106.735 39.988 106.733 41.168 106.733 42.3558H106.746Z" fill="#FBFBFB"/>
<path d="M91.5763 48.7328V52.535C91.5763 53.1617 91.5763 53.791 91.5763 54.4204C91.5763 54.6039 91.537 54.6616 91.3378 54.6826C90.3917 54.7508 89.4482 54.8373 88.5048 54.9291C88.2977 54.9474 88.2636 54.8661 88.2663 54.6826C88.2663 53.5078 88.2663 52.3226 88.2663 51.1636C88.2663 46.795 88.2663 42.4264 88.2663 38.0526C88.2663 36.9355 88.2139 35.8185 88.1641 34.7014C88.1641 34.5231 88.2034 34.5179 88.337 34.5179C89.2596 34.5179 90.1716 34.5179 91.102 34.5179C91.288 34.5179 91.3038 34.6097 91.3221 34.7381C91.3903 35.2311 91.461 35.7241 91.5344 36.2511C91.9935 35.8032 92.4937 35.3993 93.0283 35.0449C94.8916 33.8676 97.4836 33.9961 99.1268 35.3596C100.046 36.1323 100.689 37.182 100.961 38.3515C101.532 40.4638 101.468 42.6977 100.775 44.7733C99.8947 47.343 98.0785 48.8298 95.3712 49.155C94.4094 49.2704 93.4685 49.2966 91.5763 48.7328ZM91.5763 42.3504C91.5763 43.5225 91.5763 44.7104 91.5763 45.8694C91.5602 45.98 91.5875 46.0925 91.6525 46.1834C91.7175 46.2744 91.8151 46.3366 91.9249 46.3571C92.6341 46.6078 93.3822 46.7303 94.1342 46.719C94.8385 46.741 95.5321 46.5427 96.1184 46.1516C96.7047 45.7606 97.1545 45.1962 97.405 44.5373C97.7067 43.7854 97.876 42.987 97.9056 42.1773C98.013 41.0279 97.8882 39.8686 97.5386 38.7685C97.3353 38.1592 96.9273 37.6392 96.384 37.297C95.8408 36.9547 95.1958 36.8112 94.5588 36.891C93.4135 37.0116 92.5434 37.6252 91.7467 38.3882C91.6899 38.4407 91.6455 38.505 91.6165 38.5766C91.5875 38.6482 91.5747 38.7254 91.579 38.8025C91.579 39.9852 91.5763 41.1678 91.5763 42.3504Z" fill="#FBFBFB"/>
<path d="M192.855 34.5205C194.003 34.5205 195.124 34.5205 196.246 34.5205C196.414 34.5205 196.448 34.6018 196.49 34.7329C197.307 37.2257 198.127 39.7186 198.948 42.2114C199.33 43.3447 199.649 44.4985 199.902 45.6675C200.122 44.8808 200.303 44.1623 200.531 43.4491C201.105 41.666 201.7 39.8881 202.287 38.1077C202.656 36.9906 203.026 35.8744 203.398 34.7591C203.437 34.6411 203.44 34.5205 203.623 34.5231C204.672 34.5231 205.736 34.5231 206.829 34.5231C206.567 35.2469 206.323 35.9391 206.071 36.6209C204.848 39.9773 203.625 43.3328 202.402 46.6875C201.828 48.2608 201.354 49.8341 200.568 51.3288C200.089 52.3414 199.381 53.2284 198.5 53.9195C197.656 54.5233 196.654 54.8661 195.617 54.9055C194.563 54.9845 193.503 54.8753 192.488 54.5829C192.302 54.5279 192.257 54.4807 192.31 54.2893C192.485 53.6363 192.65 52.9782 192.8 52.32C192.847 52.1207 192.918 52.0761 193.114 52.1286C193.746 52.3199 194.409 52.385 195.067 52.32C196.17 52.181 196.901 51.4992 197.444 50.5788C197.687 50.1312 197.901 49.6678 198.083 49.1917C198.11 49.1185 198.121 49.0405 198.115 48.9629C198.11 48.8852 198.088 48.8095 198.052 48.7407C197.257 46.5608 196.459 44.3817 195.659 42.2035C194.742 39.702 193.825 37.2004 192.91 34.6988C192.891 34.6595 192.891 34.6123 192.855 34.5205Z" fill="#FBFBFB"/>
<path d="M146.382 47.1047C145.19 48.3188 143.827 49.0766 142.129 49.1736C141.295 49.2431 140.457 49.1211 139.678 48.817C138.067 48.151 137.304 46.8818 137.199 45.1905C137.115 43.8007 137.479 42.5683 138.554 41.6007C139.314 40.9163 140.234 40.6095 141.209 40.4338C142.82 40.1748 144.461 40.1553 146.078 40.3761C146.298 40.4024 146.356 40.3578 146.34 40.148C146.327 39.6894 146.277 39.2325 146.191 38.7818C145.929 37.6097 145.179 36.983 144.029 36.7759C142.999 36.5923 141.998 36.7628 140.999 36.9988C140.329 37.1553 139.675 37.3766 139.047 37.6595C138.848 37.7513 138.806 37.6884 138.769 37.5048C138.633 36.8423 138.489 36.1806 138.336 35.5198C138.324 35.489 138.318 35.4557 138.32 35.4224C138.322 35.3892 138.331 35.3567 138.348 35.3275C138.364 35.2984 138.386 35.2732 138.413 35.2538C138.44 35.2344 138.471 35.2214 138.504 35.2157C139.916 34.6708 141.404 34.3496 142.915 34.2638C143.854 34.2066 144.796 34.2683 145.719 34.4474C147.837 34.8722 148.99 36.2331 149.438 38.2731C149.581 38.9586 149.649 39.6576 149.64 40.3578C149.64 42.4215 149.64 44.4825 149.64 46.5462C149.64 47.2437 149.692 47.9438 149.734 48.6439C149.734 48.8563 149.695 48.9324 149.472 48.9271C148.605 48.9271 147.735 48.9114 146.851 48.9271C146.639 48.9271 146.589 48.8432 146.561 48.6649C146.503 48.151 146.448 47.637 146.382 47.1047ZM146.343 43.7168C146.343 43.3287 146.343 42.9433 146.343 42.5552C146.343 42.4136 146.304 42.3585 146.152 42.3428C145.022 42.1912 143.877 42.1832 142.745 42.3192C141.5 42.5106 140.787 43.1059 140.606 44.1757C140.362 45.6179 141.015 46.7455 142.684 46.7114C143.995 46.6852 145.106 46.1083 146.091 45.2561C146.183 45.1873 146.255 45.0962 146.301 44.9915C146.347 44.8867 146.365 44.772 146.353 44.6582C146.327 44.3462 146.343 44.0315 146.343 43.7168Z" fill="#FBFBFB"/>
<path d="M175.495 42.1587C174.03 42.1587 172.562 42.1587 171.094 42.1587C170.864 42.1587 170.801 42.2007 170.832 42.4498C170.876 43.2428 171.082 44.0183 171.438 44.7285C172.137 46.0238 173.296 46.5483 174.708 46.6243C176.147 46.6733 177.579 46.4047 178.902 45.8377C179.119 45.7485 179.235 45.7328 179.311 46.0134C179.47 46.606 179.67 47.1907 179.871 47.7702C179.937 47.9616 179.887 48.0482 179.712 48.1268C178.256 48.7645 176.692 49.1204 175.104 49.1757C173.998 49.2478 172.887 49.1307 171.82 48.8296C169.663 48.1688 168.319 46.6978 167.769 44.5371C167.246 42.5877 167.309 40.5274 167.949 38.6135C168.61 36.6547 169.873 35.2178 171.881 34.5858C173.655 34.0273 175.432 34.0483 177.122 34.9529C178.477 35.6819 179.295 36.8645 179.774 38.3041C180.132 39.4932 180.28 40.7354 180.212 41.9752C180.212 42.2164 180.05 42.1456 179.932 42.1456C178.451 42.1613 176.973 42.1587 175.495 42.1587ZM173.946 40.019C174.868 40.019 175.78 40.019 176.711 40.019C176.92 40.019 176.973 39.9692 176.947 39.7568C176.909 39.3844 176.84 39.016 176.74 38.6555C176.612 38.1931 176.367 37.7713 176.03 37.4306C175.692 37.09 175.273 36.8419 174.812 36.7102C174.351 36.5786 173.863 36.5678 173.397 36.6788C172.93 36.7899 172.5 37.019 172.148 37.3444C171.419 37.9842 171.139 38.8469 170.945 39.7568C170.893 39.998 170.963 40.0347 171.181 40.019C172.103 40.0138 173.023 40.019 173.946 40.019Z" fill="#FBFBFB"/>
<path d="M160.678 37.0387C160.678 34.2854 160.678 31.5312 160.678 28.7761C160.678 28.5139 160.744 28.43 161.024 28.4142C161.96 28.3644 162.896 28.2805 163.829 28.1914C164.004 28.1756 164.03 28.2228 164.02 28.3671C164.02 28.4378 164.02 28.5113 164.02 28.5847C164.02 34.0301 164.02 39.4764 164.02 44.9236C164.021 45.07 164.029 45.2161 164.046 45.3615C164.154 46.2505 164.68 46.6438 165.558 46.5205C165.765 46.4917 166.017 46.3081 166.166 46.4576C166.316 46.6071 166.266 46.8509 166.3 47.0555C166.381 47.5589 166.447 48.065 166.544 48.5632C166.578 48.7389 166.544 48.8045 166.373 48.8517C165.327 49.1908 164.215 49.2753 163.129 49.0982C161.818 48.8517 160.964 47.8946 160.77 46.5179C160.707 46.0424 160.676 45.5632 160.676 45.0836C160.676 42.4002 160.677 39.7186 160.678 37.0387Z" fill="#FBFBFB"/>
<path d="M155.806 36.7759C155.806 39.4872 155.806 42.1969 155.806 44.9047C155.804 45.1446 155.829 45.384 155.882 45.6179C156.045 46.3023 156.574 46.6196 157.337 46.5095C157.379 46.5095 157.418 46.4938 157.46 46.4859C157.984 46.3863 157.984 46.3889 158.073 46.9422C158.162 47.4954 158.244 48.033 158.335 48.5758C158.362 48.7226 158.335 48.7961 158.194 48.838C156.996 49.1815 155.788 49.3624 154.561 48.9953C153.513 48.6859 152.918 47.9465 152.653 46.8976C152.546 46.4618 152.493 46.0143 152.496 45.5655C152.496 39.996 152.496 34.4255 152.496 28.8542C152.496 28.5396 152.53 28.4058 152.905 28.3927C153.801 28.3613 154.695 28.2773 155.584 28.1751C155.872 28.1436 155.804 28.2957 155.804 28.4373V36.7628L155.806 36.7759Z" fill="#FBFBFB"/>
<path d="M186.111 37.1769C186.373 36.8125 186.599 36.4716 186.842 36.1281C187.188 35.6415 187.613 35.2168 188.1 34.872C189.096 34.1745 190.197 34.1247 191.34 34.3476C191.476 34.3738 191.518 34.4263 191.494 34.5731C191.363 35.407 191.232 36.2434 191.125 37.0773C191.101 37.2346 191.08 37.2792 190.899 37.2399C189.309 36.8833 188.035 37.4418 186.989 38.627C186.918 38.7057 186.853 38.787 186.78 38.8604C186.547 39.0913 186.367 39.3709 186.255 39.6792C186.143 39.9874 186.1 40.3167 186.13 40.6435C186.174 43.3024 186.13 45.9639 186.153 48.6255C186.153 48.8641 186.101 48.9401 185.847 48.9375C184.948 48.9191 184.046 48.9218 183.145 48.9375C182.901 48.9375 182.838 48.8824 182.838 48.6333C182.838 45.0514 182.838 41.4677 182.838 37.8823C182.838 36.8334 182.783 35.7846 182.738 34.7199C182.738 34.5626 182.751 34.5259 182.906 34.5285C183.818 34.5285 184.73 34.5285 185.642 34.5285C185.794 34.5285 185.852 34.5547 185.868 34.7304C185.938 35.5276 186.027 36.3326 186.111 37.1769Z" fill="#FBFBFB"/>
<path d="M168.441 18.4812C168.384 15.9954 168.441 13.5882 168.405 11.181C168.405 10.8768 168.457 10.7484 168.793 10.7824C169.127 10.8087 169.462 10.8087 169.796 10.7824C170.014 10.7693 170.058 10.8532 170.058 11.0447C170.058 12.1643 170.058 13.2866 170.058 14.4063C170.058 16.47 170.058 18.5337 170.058 20.6C170.058 20.8622 169.988 20.9172 169.744 20.9068C169.283 20.8884 168.821 20.8858 168.36 20.9068C168.274 20.9152 168.188 20.8968 168.114 20.854C168.039 20.8113 167.979 20.7463 167.943 20.6681C166.754 18.8029 165.558 16.9341 164.355 15.0619L163.1 13.09C163.1 13.4623 163.1 13.7665 163.1 14.0707C163.168 15.6099 163.1 17.1491 163.129 18.6884C163.129 19.3465 163.129 19.9995 163.129 20.6681C163.129 20.8569 163.082 20.9304 162.885 20.9304C162.536 20.9116 162.186 20.9116 161.837 20.9304C161.559 20.9487 161.467 20.8805 161.47 20.579C161.483 17.6238 161.47 14.6712 161.47 11.7159C161.47 11.4249 161.344 11.042 161.517 10.8664C161.69 10.6907 162.091 10.8244 162.392 10.8034C162.48 10.8093 162.567 10.8093 162.655 10.8034C163.31 10.6644 163.648 10.9922 163.981 11.5298C165.388 13.7665 166.832 15.9954 168.255 18.2242C168.297 18.2924 168.35 18.3554 168.441 18.4812Z" fill="#FBFBFB"/>
<path d="M109.624 15.6516C109.693 16.7772 109.418 17.8971 108.838 18.8638C108.013 20.1749 106.77 20.8304 105.261 21.0009C104.21 21.1545 103.138 21.01 102.166 20.584C100.606 19.8497 99.841 18.5491 99.6103 16.9129C99.4296 15.7831 99.56 14.6254 99.9877 13.5643C100.722 11.818 102.105 10.9421 103.937 10.7166C104.685 10.6164 105.444 10.6546 106.178 10.8294C107.045 11.027 107.832 11.4842 108.433 12.1399C109.034 12.7957 109.421 13.6191 109.543 14.5005C109.608 14.8806 109.635 15.2662 109.624 15.6516ZM107.771 15.7617C107.789 15.2608 107.724 14.7603 107.58 14.2802C107.25 13.1553 106.584 12.3529 105.381 12.1431C104.071 11.9124 102.871 12.1693 102.103 13.3572C101.13 14.8649 101.149 16.4776 101.888 18.0771C102.837 20.1172 105.898 20.0779 107.022 18.4967C107.568 17.6934 107.832 16.7313 107.771 15.7617Z" fill="#FBFBFB"/>
<path d="M149.485 16.0133C149.449 15.0922 149.629 14.1755 150.009 13.336C150.281 12.7395 150.683 12.2108 151.184 11.7882C151.685 11.3655 152.274 11.0595 152.908 10.8921C153.996 10.5691 155.153 10.5546 156.249 10.8502C156.992 11.0272 157.671 11.4051 158.213 11.9425C158.755 12.4799 159.139 13.1561 159.323 13.8972C159.761 15.3273 159.676 16.8668 159.082 18.2395C158.335 19.9518 156.952 20.7988 155.151 21.0007C154.089 21.1549 153.005 20.9983 152.03 20.5497C150.638 19.8679 149.891 18.7142 149.592 17.2274C149.507 16.8287 149.471 16.4209 149.485 16.0133ZM154.606 12.08C153.178 12.08 152.19 12.7408 151.655 14.065C151.293 15.0158 151.224 16.0536 151.458 17.0438C151.781 18.6486 152.942 19.708 154.7 19.6293C155.276 19.6098 155.833 19.4242 156.306 19.0947C156.778 18.7653 157.146 18.3062 157.363 17.7728C157.808 16.6375 157.854 15.3847 157.494 14.2197C157.083 12.7959 156.097 12.08 154.606 12.08Z" fill="#FBFBFB"/>
<path d="M116.17 16.4566C117.192 17.9277 118.209 19.3882 119.273 20.9144C118.886 20.8865 118.497 20.8865 118.11 20.9144C117.418 21.0166 117.027 20.7439 116.679 20.1434C116.065 19.0788 115.342 18.0745 114.668 17.044C114.646 16.9988 114.61 16.9618 114.565 16.9379C114.521 16.9139 114.47 16.9043 114.419 16.9103C114.136 16.9103 113.853 16.926 113.57 16.9103C113.376 16.8971 113.327 16.9575 113.329 17.1515C113.329 18.3026 113.329 19.4538 113.329 20.6076C113.329 20.8698 113.251 20.9222 113.012 20.9117C112.616 20.8934 112.226 20.8934 111.82 20.9117C111.589 20.9117 111.521 20.8672 111.524 20.6233C111.539 19.3987 111.524 18.1742 111.524 16.9522C111.524 14.9934 111.524 13.0346 111.524 11.0785C111.524 10.8477 111.568 10.7743 111.812 10.7796C112.994 10.811 114.171 10.7428 115.36 10.8215C116.042 10.8386 116.705 11.0506 117.271 11.4325C118.057 12.0094 118.293 12.8301 118.214 13.7531C118.115 15.0747 117.357 15.9217 116.17 16.4566ZM113.334 13.8344C113.334 14.0966 113.334 14.3353 113.334 14.587C113.334 14.899 113.201 15.316 113.387 15.4943C113.573 15.6726 114.021 15.5651 114.351 15.5572C115.138 15.5336 115.793 15.2504 116.199 14.5372C116.781 13.5145 116.354 12.4394 115.269 12.2113C114.671 12.0828 114.063 12.1536 113.458 12.1352C113.3 12.1352 113.334 12.2427 113.334 12.3293C113.332 12.8485 113.334 13.3388 113.334 13.8397V13.8344Z" fill="#FBFBFB"/>
<path d="M75.0904 10.7901C75.7324 10.7901 76.3457 10.7901 76.9616 10.7901C77.0979 10.7901 77.132 10.8714 77.187 10.9632C77.8195 12.04 78.4528 13.1177 79.0871 14.1963C79.1185 14.2488 79.1526 14.2986 79.205 14.3799C79.5064 13.8948 79.7999 13.428 80.0882 12.9587C80.4997 12.2953 80.9111 11.6318 81.3147 10.9632C81.3803 10.8557 81.4379 10.7875 81.5768 10.7901C82.1613 10.7901 82.7457 10.7901 83.3904 10.7901C83.186 11.1126 83.0078 11.3985 82.8269 11.6817C82.0407 12.9298 81.2361 14.1806 80.4342 15.4262C80.3713 15.499 80.3367 15.5921 80.3367 15.6884C80.3367 15.7847 80.3713 15.8777 80.4342 15.9506C81.4694 17.5239 82.4889 19.1182 83.511 20.7046L83.6446 20.9197C83.2739 20.8919 82.9016 20.8919 82.5308 20.9197C81.8258 21.0298 81.4248 20.7571 81.0972 20.133C80.5862 19.1444 79.9624 18.2136 79.3858 17.2486C79.3334 17.1594 79.2679 17.0781 79.1971 16.9864C78.4266 18.2345 77.664 19.4617 76.9118 20.6968C76.878 20.7701 76.8223 20.8312 76.7524 20.8716C76.6824 20.912 76.6017 20.9297 76.5213 20.9223C75.9683 20.9223 75.4127 20.9223 74.8047 20.9223L75.549 19.7816C76.3824 18.5177 77.2132 17.2512 78.0597 15.9952C78.1186 15.9271 78.1509 15.84 78.1509 15.75C78.1509 15.66 78.1186 15.5729 78.0597 15.5048C77.1092 14.0224 76.1623 12.5365 75.2188 11.0471C75.169 10.971 75.1401 10.895 75.0904 10.7901Z" fill="#FBFBFB"/>
<path d="M68.1875 15.817C68.1875 14.2436 68.1875 12.6703 68.1875 11.097C68.1875 10.8715 68.2164 10.7718 68.4863 10.7745C70.2894 10.7876 72.0899 10.7745 73.8904 10.7745C74.121 10.7745 74.1839 10.8426 74.1368 11.0524C74.1231 11.1129 74.1135 11.1742 74.1079 11.236C74.0712 11.5716 74.1604 12.0436 73.9455 12.2088C73.7305 12.374 73.285 12.256 72.9391 12.256C72.0296 12.256 71.1176 12.256 70.2056 12.256C69.9985 12.256 69.9435 12.3111 69.9435 12.5182C69.9566 13.2524 69.9618 13.9867 69.9435 14.7183C69.9435 14.9805 70.03 15.0041 70.2501 15.0041C71.3273 15.0041 72.407 15.0041 73.4868 15.0041C73.7096 15.0041 73.7725 15.067 73.7489 15.2846C73.7279 15.5666 73.7279 15.8497 73.7489 16.1316C73.7646 16.365 73.6729 16.3938 73.4632 16.3938C72.3861 16.3938 71.3063 16.3938 70.2265 16.3938C69.9907 16.3938 69.9304 16.4594 69.933 16.6901C69.9487 17.5083 69.9461 18.3238 69.933 19.1419C69.933 19.3753 69.9749 19.4566 70.2344 19.4539C71.4583 19.4382 72.6848 19.4539 73.9035 19.4539C74.1656 19.4539 74.2049 19.5326 74.1656 19.7529C74.121 20.0806 74.0712 20.411 74.0555 20.7441C74.0555 20.9198 73.9769 20.9407 73.8275 20.9407C72.0165 20.9407 70.2029 20.9407 68.392 20.9407C68.1299 20.9407 68.1613 20.807 68.1613 20.6444C68.1806 19.0291 68.1893 17.42 68.1875 15.817Z" fill="#FBFBFB"/>
<path d="M120.593 15.8477C120.593 14.2561 120.593 12.6644 120.593 11.0727C120.593 10.8289 120.659 10.7817 120.89 10.7843C122.691 10.7843 124.492 10.7843 126.294 10.7843C126.506 10.7843 126.587 10.8157 126.556 11.0465C126.497 11.3751 126.457 11.707 126.438 12.0403C126.425 12.2396 126.346 12.2737 126.176 12.2711C125.004 12.2711 123.817 12.2711 122.656 12.2711C122.412 12.2711 122.37 12.3419 122.373 12.5674C122.389 13.2885 122.394 14.0122 122.373 14.7333C122.373 14.9955 122.452 15.0191 122.672 15.0165C123.749 15.0165 124.829 15.0165 125.906 15.0165C126.123 15.0165 126.204 15.069 126.189 15.2945C126.165 15.5658 126.165 15.8386 126.189 16.11C126.215 16.3722 126.1 16.4141 125.869 16.4115C124.789 16.4115 123.712 16.4115 122.632 16.4115C122.428 16.4115 122.37 16.464 122.37 16.6737C122.383 17.5233 122.383 18.3703 122.37 19.2199C122.37 19.427 122.425 19.4821 122.632 19.4821C123.867 19.4821 125.104 19.4821 126.341 19.4821C126.569 19.4821 126.658 19.5136 126.603 19.7706C126.543 20.0825 126.502 20.3977 126.48 20.7145C126.48 20.8561 126.438 20.9165 126.283 20.9165C124.449 20.9165 122.614 20.9165 120.779 20.9165C120.551 20.9165 120.588 20.788 120.588 20.6542L120.593 15.8477Z" fill="#FBFBFB"/>
<path d="M84.8804 15.8537C84.8804 14.262 84.8804 12.6703 84.8804 11.0786C84.8804 10.8453 84.9275 10.7745 85.1686 10.7849C86.3795 10.8295 87.5955 10.7037 88.8037 10.8846C89.5345 10.9642 90.2223 11.2694 90.7719 11.7578C91.4586 12.4107 91.6342 13.2393 91.5713 14.1361C91.4376 16.0425 89.9988 17.0205 88.3608 17.1464C87.8609 17.1764 87.3593 17.1456 86.8669 17.0546C86.6782 17.0205 86.6415 17.0756 86.6442 17.2539C86.6442 18.3657 86.6442 19.4749 86.6442 20.5841C86.6442 20.8778 86.5603 20.9328 86.2956 20.9171C85.9193 20.8975 85.5423 20.8975 85.166 20.9171C84.938 20.9171 84.8646 20.8752 84.8673 20.6287C84.8856 19.037 84.8804 17.4453 84.8804 15.8537ZM86.6415 13.9342V15.4708C86.6415 15.5836 86.6153 15.7016 86.7909 15.733C87.3249 15.8274 87.8713 15.8274 88.4053 15.733C88.8293 15.6497 89.2069 15.411 89.4643 15.0638C89.7217 14.7165 89.8403 14.2857 89.797 13.8555C89.7577 12.8984 89.2964 12.3871 88.3267 12.2219C87.8398 12.1638 87.3493 12.141 86.8591 12.1537C86.6809 12.1537 86.6337 12.2036 86.6363 12.3792C86.6494 12.8879 86.6415 13.4098 86.6415 13.9342Z" fill="#FBFBFB"/>
<path d="M141.094 16.6061C141.094 17.9461 141.094 19.2886 141.094 20.6286C141.094 20.8698 141.028 20.9301 140.798 20.917C140.401 20.896 140.003 20.896 139.605 20.917C139.343 20.9328 139.32 20.8384 139.32 20.6155C139.32 17.9356 139.32 15.2557 139.32 12.5758C139.32 12.3136 139.244 12.2533 138.992 12.2585C138.132 12.2769 137.273 12.2585 136.416 12.2716C136.204 12.2716 136.175 12.2008 136.198 12.0251C136.243 11.6843 136.282 11.3434 136.311 10.9999C136.311 10.853 136.358 10.7822 136.531 10.7822C139.023 10.7822 141.516 10.7822 144.011 10.7822C144.16 10.7822 144.234 10.7822 144.197 10.9894C144.134 11.3355 144.121 11.6921 144.087 12.0383C144.071 12.1903 144.016 12.2638 143.825 12.2611C142.986 12.248 142.147 12.2611 141.311 12.2611C141.099 12.2611 141.049 12.3215 141.049 12.5234C141.097 13.8974 141.094 15.2452 141.094 16.6061Z" fill="#FBFBFB"/>
<path d="M93.2734 15.8431C93.2734 14.2698 93.2734 12.6782 93.2734 11.097C93.2734 10.8531 93.3311 10.7666 93.5853 10.7849C93.9511 10.8059 94.3177 10.8059 94.6834 10.7849C94.9612 10.7666 95.053 10.8374 95.0503 11.1363C95.0503 13.7585 95.0503 16.3964 95.0346 19.0239C95.0346 19.3097 95.108 19.3831 95.391 19.3779C96.5756 19.3621 97.7498 19.3779 98.9422 19.3621C99.2043 19.3621 99.2043 19.467 99.2043 19.6558C99.1676 19.9862 99.1388 20.3192 99.1073 20.6496C99.0916 20.8201 99.0497 20.9119 98.8269 20.9119C97.0657 20.8996 95.3054 20.8996 93.546 20.9119C93.297 20.9119 93.2839 20.8043 93.2839 20.6103C93.2787 19.0247 93.2752 17.4357 93.2734 15.8431Z" fill="#FBFBFB"/>
<path d="M132.979 15.8509C132.979 14.2593 132.979 12.6676 132.979 11.0759C132.979 10.8347 133.04 10.7717 133.273 10.7848C133.692 10.8032 134.111 10.7848 134.531 10.7848C134.717 10.7848 134.793 10.8242 134.793 11.0261C134.793 14.2444 134.793 17.4601 134.793 20.6732C134.793 20.8751 134.727 20.9354 134.531 20.917C134.111 20.917 133.692 20.8987 133.273 20.917C133.042 20.917 132.974 20.8724 132.977 20.6286C132.984 19.0369 132.979 17.4452 132.979 15.8509Z" fill="#FBFBFB"/>
<path d="M41.0177 35.7453C41.395 34.5679 41.7646 33.4614 42.1027 32.3364C42.1918 32.0427 42.3149 31.9247 42.6268 31.9588C42.8889 31.9851 43.151 31.9588 43.4497 31.9588C43.1877 32.7035 42.9492 33.4168 42.7002 34.1326C42.3359 35.1815 41.9638 36.2304 41.6047 37.2793C41.5392 37.4733 41.4606 37.5599 41.2352 37.5572C40.5354 37.5415 40.538 37.5572 40.31 36.8807C40.0235 36.0521 39.737 35.2244 39.4504 34.3975C39.4059 34.2716 39.3508 34.1353 39.2801 33.9648C38.9577 34.8878 38.6563 35.7532 38.3576 36.6185C38.3235 36.7181 38.2973 36.8204 38.2606 36.9174C38.0142 37.5703 38.0142 37.5599 37.304 37.5546C37.2328 37.5632 37.161 37.5444 37.1031 37.5021C37.0452 37.4597 37.0055 37.397 36.9921 37.3265C36.6147 36.233 36.2321 35.1422 35.8521 34.0487C35.6372 33.4299 35.4327 32.8032 35.1995 32.1896C35.1183 31.9693 35.1995 31.9484 35.3803 31.9457C36.3762 31.9248 36.371 31.9248 36.6698 32.8819C36.958 33.797 37.2568 34.7174 37.5766 35.7007C37.7495 35.192 37.8989 34.7541 38.0457 34.3162C38.2737 33.6239 38.5069 32.9317 38.7245 32.2342C38.7368 32.1442 38.7843 32.0628 38.8565 32.0078C38.9287 31.9527 39.0197 31.9285 39.1097 31.9405C39.778 31.9562 39.7806 31.9405 39.9929 32.5882C40.3205 33.6318 40.656 34.6518 41.0177 35.7453Z" fill="#FBFBFB"/>
<path d="M27.9217 17.8313C28.3751 17.8313 28.3751 17.8313 28.417 18.2928C28.5381 19.8336 29.2428 21.27 30.3871 22.3083C31.5313 23.3465 33.0287 23.9084 34.5732 23.8789C36.1176 23.8494 37.5925 23.2309 38.6963 22.1497C39.8002 21.0686 40.4497 19.6064 40.512 18.0621C40.512 17.8864 40.5644 17.7999 40.7452 17.8287C40.8579 17.8287 40.9759 17.8287 41.0912 17.8287C41.5996 17.8287 41.5996 17.8287 41.5524 18.3531C41.4333 19.9856 40.7537 21.5267 39.6289 22.7152C38.5041 23.9037 37.0032 24.6666 35.3805 24.8745C31.5489 25.4173 27.8378 22.5146 27.429 18.6783C27.429 18.597 27.429 18.5131 27.429 18.4161C27.3477 17.8313 27.3477 17.8313 27.9217 17.8313Z" fill="#FBFBFB"/>
<path d="M22.756 34.7724C22.756 35.6194 22.756 36.469 22.756 37.3159C22.756 37.5257 22.6957 37.5939 22.4939 37.5782C22.2135 37.5519 21.8492 37.6909 21.6736 37.5231C21.498 37.3553 21.6264 36.9986 21.6212 36.7102C21.6212 36.3247 21.6054 35.9236 21.6212 35.5486C21.6212 35.3467 21.5556 35.3047 21.3591 35.3073C20.6908 35.3073 20.0198 35.3204 19.3489 35.3073C19.1471 35.3073 19.0868 35.3572 19.0868 35.5696C19.0868 36.1438 19.0868 36.7207 19.0868 37.295C19.0868 37.5047 19.0528 37.6044 18.8248 37.5834C18.5944 37.5677 18.3632 37.5677 18.1329 37.5834C17.9651 37.5834 17.918 37.5231 17.918 37.3631C17.918 35.6377 17.918 33.9106 17.918 32.1817C17.918 32.0375 17.9599 31.964 18.1145 31.9798H18.146C18.4474 31.9955 18.83 31.8565 19.0266 32.0322C19.2231 32.2079 19.0764 32.5829 19.0842 32.8739C19.0842 33.2489 19.0842 33.6265 19.0842 34.0041C19.0842 34.1641 19.1209 34.2191 19.2913 34.2191C19.9901 34.2086 20.689 34.2086 21.3879 34.2191C21.5556 34.2191 21.6002 34.1745 21.5976 34.0093C21.5976 33.422 21.5976 32.8372 21.5976 32.2499C21.5976 32.0217 21.6683 31.9562 21.8806 31.9876C22.1584 32.0191 22.5306 31.8696 22.6904 32.0532C22.8503 32.2367 22.7324 32.5776 22.735 32.8398C22.7586 33.4744 22.756 34.1221 22.756 34.7724Z" fill="#FBFBFB"/>
<path d="M44.3242 34.781C44.3242 33.9314 44.3242 33.0845 44.3242 32.2349C44.3242 32.0356 44.3688 31.9727 44.5863 31.9727C45.7919 31.9727 46.9974 31.9727 48.2004 31.9727C48.3812 31.9727 48.4625 32.0067 48.4625 32.2113C48.4782 33.0163 48.486 33.0163 47.6762 33.0163C47.0263 33.0163 46.3658 33.0163 45.7263 33.0163C45.5324 33.0163 45.4407 33.0478 45.4643 33.2785C45.4879 33.5407 45.383 33.9 45.5193 34.0652C45.6556 34.2304 46.0251 34.115 46.3055 34.1229C46.6384 34.1229 46.9765 34.1229 47.3093 34.1229C47.4744 34.1229 47.5216 34.1779 47.5268 34.3405C47.5661 35.2006 47.5714 35.2006 46.7406 35.2006C46.3946 35.2006 46.0487 35.2006 45.6923 35.2006C45.535 35.2006 45.4616 35.2347 45.4747 35.4077C45.4643 35.7718 45.4774 36.1362 45.5141 36.4986C45.8469 36.4986 46.1824 36.5143 46.5152 36.5169C47.1023 36.5169 47.6893 36.5169 48.2764 36.5169C48.4834 36.5169 48.5883 36.5484 48.562 36.7791C48.5358 37.0099 48.6669 37.3744 48.5123 37.537C48.3576 37.6995 48.0143 37.5842 47.7548 37.5868C46.7275 37.5868 45.7028 37.5868 44.6754 37.5868C44.3871 37.5868 44.3321 37.5029 44.3399 37.2354C44.3347 36.4147 44.3242 35.5965 44.3242 34.781Z" fill="#FBFBFB"/>
<path d="M25.4609 33.8446C25.4418 34.3946 25.4532 34.9452 25.495 35.494C25.6024 36.202 26.0349 36.5428 26.7844 36.5428C26.9318 36.5525 27.0797 36.5318 27.2188 36.4821C27.3579 36.4323 27.4853 36.3545 27.5931 36.2535C27.701 36.1525 27.787 36.0304 27.8458 35.8948C27.9046 35.7592 27.9349 35.6129 27.9349 35.4651C28.0319 34.4425 27.9664 33.4146 27.9664 32.3893C27.9664 32.0772 28.0214 31.9592 28.3648 31.9724C29.151 32.0038 29.151 31.9724 29.151 32.759C29.151 33.6584 29.172 34.5578 29.1222 35.4573C29.122 35.7507 29.0628 36.0412 28.9481 36.3113C28.8333 36.5814 28.6655 36.8256 28.4544 37.0294C28.2434 37.2333 27.9935 37.3925 27.7196 37.4977C27.4458 37.6028 27.1536 37.6517 26.8604 37.6415C26.124 37.6415 25.4452 37.5314 24.9106 36.9676C24.4905 36.4787 24.2747 35.8468 24.3078 35.2029C24.292 34.217 24.3078 33.2336 24.3078 32.2477C24.3078 32.0589 24.3366 31.954 24.5698 31.9855C24.8608 32.0064 25.2382 31.8963 25.4216 32.0405C25.6051 32.1848 25.4714 32.5859 25.4845 32.8744C25.4976 33.1628 25.4609 33.446 25.4609 33.8446Z" fill="#FBFBFB"/>
<path d="M32.7062 31.9692C33.0443 31.8695 33.2042 32.0793 33.351 32.4254C34.0507 34.0643 34.7714 35.6927 35.4974 37.3185C35.5944 37.5335 35.5629 37.5807 35.3323 37.5807C34.3704 37.5807 34.3652 37.5964 34.0088 36.7075C33.9856 36.6092 33.9264 36.5232 33.843 36.4664C33.7595 36.4096 33.6579 36.3862 33.558 36.4007C32.8976 36.4243 32.2476 36.4164 31.5793 36.4007C31.4037 36.4007 31.3172 36.4479 31.2569 36.6183C31.2127 36.7115 31.1733 36.8069 31.139 36.9042C31.0211 37.4889 30.6594 37.641 30.0907 37.5807C29.6451 37.5309 29.6399 37.5807 29.8286 37.1454C30.5415 35.5249 31.27 33.9096 31.9541 32.276C32.1218 31.8984 32.3786 31.9902 32.7062 31.9692ZM32.6093 33.4455C32.3472 34.0696 32.1113 34.6255 31.8728 35.1761C31.8257 35.2863 31.7863 35.3702 31.9698 35.3675C32.397 35.3675 32.8242 35.3675 33.2514 35.3675C33.385 35.3675 33.4112 35.3177 33.3588 35.1945C33.1151 34.6307 32.8766 34.0696 32.6093 33.4455Z" fill="#FBFBFB"/>
<path d="M49.8522 34.7574C49.8522 33.9183 49.8522 33.0818 49.8522 32.2427C49.8522 32.0172 49.9177 31.9464 50.1352 31.9805C50.413 32.0119 50.7852 31.8625 50.9476 32.0434C51.1101 32.2243 50.9896 32.5679 50.9896 32.8301C50.9896 34.3169 50.9896 35.8063 50.9896 37.2878C50.9896 37.5291 50.9214 37.5999 50.6908 37.5763C50.4602 37.5527 50.0697 37.6864 49.9046 37.5212C49.7395 37.356 49.8574 36.9967 49.8548 36.7345C49.8495 36.0764 49.8522 35.4182 49.8522 34.7574Z" fill="#FBFBFB"/>
<path d="M74.5352 41.0606C75.4551 38.4384 76.5191 35.8686 77.3394 33.1494C77.6015 33.902 77.8138 34.5995 78.0627 35.2839C78.7415 37.1194 79.4334 38.9707 80.1201 40.8141C80.1699 40.9531 80.2773 41.0921 79.9943 41.0921C78.2148 41.0921 76.4352 41.0921 74.6531 41.0921C74.613 41.0849 74.5735 41.0744 74.5352 41.0606Z" fill="black"/>
<path d="M106.732 42.3559C106.732 41.1706 106.732 39.9959 106.732 38.8054C106.726 38.7181 106.74 38.6306 106.773 38.5497C106.806 38.4687 106.858 38.3965 106.923 38.3387C107.709 37.6307 108.53 37.0276 109.633 36.8991C110.285 36.8042 110.948 36.9441 111.506 37.2938C112.064 37.6435 112.48 38.1802 112.678 38.808C113.082 39.9356 113.09 41.1024 113.027 42.2719C113.003 43.1844 112.777 44.0802 112.364 44.8941C112.089 45.4489 111.663 45.9151 111.136 46.2396C110.608 46.5641 110.001 46.7339 109.381 46.7297C108.579 46.7604 107.777 46.6339 107.023 46.3573C106.932 46.3383 106.853 46.2859 106.799 46.2106C106.746 46.1352 106.723 46.0425 106.734 45.9509C106.737 44.7447 106.732 43.549 106.732 42.3559Z" fill="black"/>
<path d="M91.5775 42.3501C91.5775 41.1675 91.5775 39.9901 91.5775 38.8022C91.5732 38.7251 91.586 38.6479 91.615 38.5763C91.644 38.5047 91.6884 38.4404 91.7452 38.3879C92.5314 37.6249 93.412 37.0113 94.5573 36.8906C95.1943 36.8109 95.8393 36.9544 96.3825 37.2966C96.9258 37.6389 97.3338 38.1589 97.5371 38.7681C97.8867 39.8683 98.0115 41.0276 97.9041 42.177C97.8745 42.9867 97.7052 43.7851 97.4035 44.537C97.153 45.1959 96.7032 45.7602 96.1169 46.1513C95.5306 46.5424 94.837 46.7407 94.1327 46.7186C93.3807 46.73 92.6326 46.6075 91.9234 46.3568C91.8136 46.3363 91.716 46.274 91.651 46.1831C91.586 46.0922 91.5587 45.9797 91.5748 45.8691C91.5879 44.6969 91.5775 43.5274 91.5775 42.3501Z" fill="black"/>
<path d="M146.344 43.7167C146.344 44.0313 146.328 44.346 146.344 44.658C146.355 44.7718 146.337 44.8866 146.291 44.9913C146.245 45.096 146.173 45.1871 146.082 45.2559C145.104 46.1081 144.003 46.685 142.675 46.7112C141.005 46.7453 140.353 45.6178 140.596 44.1755C140.777 43.1057 141.49 42.5104 142.735 42.319C143.867 42.1831 145.012 42.191 146.142 42.3426C146.294 42.3584 146.336 42.4134 146.333 42.555C146.338 42.9431 146.344 43.3286 146.344 43.7167Z" fill="black"/>
<path d="M173.947 40.0197C173.024 40.0197 172.112 40.0197 171.182 40.0197C170.965 40.0197 170.894 39.9856 170.946 39.7575C171.14 38.8476 171.421 37.9849 172.149 37.3451C172.502 37.0197 172.932 36.7906 173.398 36.6795C173.865 36.5685 174.352 36.5793 174.813 36.7109C175.274 36.8426 175.693 37.0907 176.031 37.4313C176.369 37.772 176.613 38.1938 176.741 38.6562C176.841 39.0167 176.91 39.3851 176.948 39.7575C176.977 39.9778 176.922 40.0197 176.712 40.0197C175.789 40.0145 174.87 40.0197 173.947 40.0197Z" fill="black"/>
<path d="M107.768 15.7619C107.826 16.7288 107.562 17.6878 107.018 18.489C105.894 20.0623 102.825 20.1095 101.884 18.0694C101.145 16.4778 101.127 14.8651 102.099 13.3495C102.867 12.1616 104.059 11.9046 105.378 12.1354C106.581 12.3452 107.246 13.1476 107.576 14.2725C107.721 14.7551 107.786 15.2583 107.768 15.7619Z" fill="black"/>
<path d="M154.606 12.0801C156.097 12.0801 157.083 12.7959 157.489 14.2224C157.849 15.3874 157.802 16.6402 157.358 17.7755C157.14 18.3089 156.773 18.768 156.301 19.0974C155.828 19.4269 155.271 19.6125 154.695 19.632C152.937 19.7107 151.776 18.6513 151.453 17.0465C151.218 16.0555 151.287 15.0167 151.65 14.0651C152.19 12.7409 153.178 12.0801 154.606 12.0801Z" fill="black"/>
<path d="M113.332 13.8402C113.332 13.3393 113.332 12.8359 113.332 12.335C113.332 12.2485 113.298 12.1384 113.455 12.141C114.061 12.1594 114.669 12.0886 115.266 12.217C116.351 12.4504 116.778 13.5281 116.197 14.5429C115.79 15.2562 115.133 15.5394 114.349 15.563C114.019 15.563 113.597 15.7072 113.385 15.5C113.172 15.2929 113.343 14.9048 113.332 14.5928C113.327 14.341 113.332 14.0919 113.332 13.8402Z" fill="black"/>
<path d="M86.6406 13.9341C86.6406 13.4097 86.6406 12.8852 86.6406 12.3608C86.6406 12.1851 86.6852 12.13 86.8634 12.1353C87.3536 12.1225 87.8441 12.1453 88.331 12.2034C89.3007 12.3686 89.762 12.88 89.8013 13.8371C89.8447 14.2672 89.726 14.6981 89.4687 15.0453C89.2113 15.3925 88.8336 15.6312 88.4097 15.7146C87.8757 15.809 87.3293 15.809 86.7953 15.7146C86.6197 15.691 86.6459 15.573 86.6459 15.4523L86.6406 13.9341Z" fill="black"/>
<path d="M32.6079 33.4463C32.87 34.0704 33.1137 34.6315 33.3574 35.1927C33.4098 35.3159 33.3836 35.3657 33.25 35.3657C32.8228 35.3657 32.3956 35.3657 31.9684 35.3657C31.785 35.3657 31.8243 35.2845 31.8714 35.1743C32.1099 34.6263 32.3432 34.0704 32.6079 33.4463Z" fill="#C7102E"/>
</g>
<defs>
<clipPath id="clip0">
<rect width="220" height="64" fill="white"/>
</clipPath>
</defs>
</svg>
