<svg xmlns="http://www.w3.org/2000/svg" width="620" height="537" fill="none" xmlns:v="https://vecta.io/nano"><style><![CDATA[.B{fill:#fd3e72}.C{fill:#ffa68a}.D{fill:#5b5863}.E{fill:#df2154}]]></style><path d="M596.887 0H22.967C10.282 0 0 10.413 0 23.257v342.487C0 378.588 10.282 389 22.967 389h573.92c12.685 0 22.968-10.412 22.968-23.256V23.257C619.855 10.413 609.572 0 596.887 0z" class="D"/><path d="M588.39 8.18H31.695c-12.304 0-22.278 9.974-22.278 22.278v328.085c0 12.303 9.974 22.278 22.278 22.278H588.39c12.304 0 22.278-9.975 22.278-22.278V30.459c0-12.304-9.974-22.278-22.278-22.278z" fill="#fff"/><g filter="url(#A)"><path d="M158.466 199.578c-2.697-.722-5.118-2.473-6.625-5.081l-19.534-33.806c-15.641-27.07-6.328-61.806 20.76-77.433s61.853-6.314 77.497 20.762l19.528 33.796a10.9 10.9 0 0 1-3.99 14.894 10.92 10.92 0 0 1-14.904-3.994L211.67 114.92c-9.627-16.661-31.02-22.391-47.69-12.775s-22.402 30.99-12.779 47.645l19.534 33.806a10.9 10.9 0 0 1-3.991 14.894c-2.608 1.505-5.582 1.811-8.278 1.088z" fill="url(#B)"/><path d="M158.144 84.433c-27.089 15.627-36.402 50.363-20.76 77.434l19.53 33.808c1.016 1.751 2.435 3.113 4.079 4.039-.923-.011-1.838-.137-2.723-.374a10.89 10.89 0 0 1-6.626-5.077l-19.529-33.808c-15.642-27.071-6.329-61.807 20.76-77.434 14.389-8.301 30.947-9.565 45.653-4.862-13.309-2.894-27.686-1.047-40.384 6.274z" fill="#ff6b94"/><path d="M154.31 292.464c-15.472 0-28.06-9.96-28.06-22.202v-69.564c0-12.242 12.588-22.201 28.06-22.201h87.922c15.472 0 28.06 9.959 28.06 22.201v69.564c0 12.242-12.588 22.202-28.06 22.202H154.31z" fill="url(#C)"/><path d="M211.985 220.562a13.58 13.58 0 1 0-27.165 0 13.66 13.66 0 0 0 6.661 11.727l-3.778 32.485h11.034 11.034l-3.813-32.87a13.67 13.67 0 0 0 6.027-11.342z" fill="#fff"/><path d="M280.08 150.981c-4.777 3.629-6.43 2.239-3.673-3.087l14.522-28.057c2.757-5.326 8.484-6.215 12.727-1.975l.935.935c4.243 4.24 3.807 10.678-.971 14.306l-23.54 17.878z" class="B"/><path d="M284.119 167.986c-4.858-3.519-3.947-5.92 2.025-5.335l20.014 1.961c5.971.585 8.648 5.345 5.948 10.578s-8.884 6.634-13.743 3.115l-14.244-10.319z" class="B"/><path d="M240.033 155.072c-3.729-.035-7.346-1.986-9.349-5.452l-19.527-33.795c-4.322-7.479-11.018-12.755-18.591-15.434 9.686 1.811 18.558 7.671 23.86 16.846l19.527 33.795c1.012 1.75 2.436 3.113 4.08 4.04z" fill="#ff6b93"/></g><path d="M43.784 337.991v1.133h-4.529v-.765l2.463-2.321c.203-.146.37-.337.487-.558s.184-.466.192-.716c0-.566-.368-.877-1.132-.877-.272-.014-.544.035-.794.143a1.8 1.8 0 0 0-.65.479l-.793-.594a2.83 2.83 0 0 1 2.321-1.019c1.359 0 2.208.651 2.208 1.755-.009.378-.105.749-.282 1.083s-.429.622-.737.842l-1.642 1.557 2.887-.142zm.675-3.03a.71.71 0 0 1 .197-.519.7.7 0 0 1 .233-.161c.088-.037.182-.056.277-.056.195 0 .382.077.52.215s.216.325.216.521-.078.382-.216.52-.325.216-.52.216a.71.71 0 0 1-.277-.057.7.7 0 0 1-.385-.4.72.72 0 0 1-.046-.279zm0 3.34a.71.71 0 0 1 .197-.519.71.71 0 0 1 .233-.161c.088-.038.182-.056.277-.056.195 0 .382.077.52.215a.74.74 0 0 1 .216.521c0 .195-.078.382-.216.52s-.325.216-.52.216c-.095 0-.19-.019-.277-.057a.71.71 0 0 1-.233-.16c-.066-.069-.118-.15-.151-.24a.74.74 0 0 1-.046-.279zm4.25-5.463v6.284h-1.161v-5.18h-1.274v-.962l2.435-.142zm6.674 4.727h-1.076v1.416h-1.104v-1.416h-3.369v-.792l3.114-3.935h1.217l-2.831 3.765h2.01v-1.217h1.076v1.217h1.076l-.113.962z" class="B"/><path d="M531.066 335.133H65.407v2.123h465.659v-2.123z" class="D"/><path d="M210.602 332.838H65.073v5.662h145.529v-5.662z" class="B"/><path d="M215.273 336.293c0 1.4-.415 2.768-1.193 3.932s-1.883 2.07-3.176 2.606-2.716.676-4.089.403-2.633-.947-3.623-1.937-1.664-2.251-1.937-3.623-.133-2.796.403-4.089a7.07 7.07 0 0 1 2.606-3.176c1.164-.778 2.532-1.193 3.932-1.193 1.877 0 3.677.746 5.004 2.073s2.073 3.127 2.073 5.004z" fill="#ff725e"/><g class="B"><path d="M542.674 336.123c-.007.28-.071.556-.189.81a2.03 2.03 0 0 1-1.22 1.081c-.267.087-.548.117-.827.09-1.671 0-2.661-1.076-2.661-3.057a2.82 2.82 0 0 1 .091-1.265c.125-.409.342-.784.634-1.098a2.83 2.83 0 0 1 1.049-.711 2.84 2.84 0 0 1 1.255-.182c.554-.014 1.102.123 1.585.397l-.396.849c-.364-.199-.775-.297-1.189-.283-1.133 0-1.869.708-1.869 2.095.211-.22.467-.392.75-.505a2.11 2.11 0 0 1 .892-.146 1.89 1.89 0 0 1 .794.085c.255.084.49.222.688.404a1.9 1.9 0 0 1 .613 1.436zm-1.104 0c0-.652-.481-1.048-1.217-1.048-.151-.015-.304 0-.449.044a1.12 1.12 0 0 0-.396.216 1.13 1.13 0 0 0-.28.353c-.069.135-.11.283-.121.435 0 .566.453 1.019 1.274 1.019a1.06 1.06 0 0 0 .434.021c.145-.023.283-.077.406-.157a1.06 1.06 0 0 0 .462-.714l-.113-.169zm1.783-2.123a.68.68 0 0 1 .046-.275c.034-.088.086-.168.153-.234a.67.67 0 0 1 .233-.153c.088-.034.182-.05.276-.046.095-.003.19.012.28.046s.17.085.239.151.123.146.161.234a.71.71 0 0 1 .056.277c0 .195-.078.382-.216.52s-.325.216-.52.216a.72.72 0 0 1-.511-.217c-.066-.069-.117-.15-.151-.239a.71.71 0 0 1-.046-.28zm0 3.34a.68.68 0 0 1 .046-.275c.034-.088.086-.167.153-.234a.67.67 0 0 1 .233-.153c.088-.034.182-.049.276-.045.095-.004.19.011.28.045s.17.086.239.152a.71.71 0 0 1 .161.233c.037.088.056.182.056.277 0 .196-.078.383-.216.521s-.325.215-.52.215a.72.72 0 0 1-.278-.056c-.087-.037-.167-.092-.233-.161s-.117-.15-.151-.239a.7.7 0 0 1-.046-.28zm2.157-2.376c0-2.038 1.103-3.171 2.547-3.171s2.576 1.133 2.576 3.171-1.104 3.142-2.576 3.142-2.547-1.132-2.547-3.142zm3.963 0c0-1.5-.567-2.18-1.416-2.18s-1.415.68-1.415 2.18.594 2.151 1.415 2.151 1.444-.679 1.444-2.151h-.028zm1.948 0c0-2.038 1.104-3.171 2.547-3.171s2.576 1.133 2.576 3.171-1.104 3.142-2.576 3.142-2.547-1.132-2.547-3.142zm3.991 0c0-1.5-.594-2.18-1.444-2.18s-1.415.68-1.415 2.18.594 2.151 1.415 2.151 1.444-.679 1.444-2.151zm11.037-.398h-2.123v-6.114h6.115v2.123h-3.992v3.991zm3.992 7.981h-6.115v-6.086h2.123v3.963h3.992v2.123zm9.772.003h-6.115v-2.123h3.992v-3.991h2.123v6.114zm0-7.984h-2.123v-3.991h-3.992v-2.123h6.115v6.114zM500.974 44.387a15.53 15.53 0 0 1 3.256-.283l9.398-.311h.736v.594l.141 16.107v1.783l-1.273-1.274-1.699-1.699-4.303-4.303h.991l-6.709 5.945-1.104.962v-1.444c0-4.954.198-9.087.312-11.861-.023-1.423.091-2.845.339-4.246a118.72 118.72 0 0 0 .312 4.642c.142 2.83.254 6.794.311 11.323l-1.076-.481 6.624-6.058.51-.453.481.481 4.331 4.303 1.67 1.67-1.245.538V44.217l.594.594c-3.708 0-6.794-.198-9.03-.311a25.47 25.47 0 0 1-3.567-.113zm46.57 2.007a48.92 48.92 0 0 1-3.142 3.935c-2.095 2.548-5.209 6.369-9.002 10.615l-1.217 1.387v-1.84-7.983-.793l.226.538-5.661-5.463-1.246-1.217h1.727c5.662 0 10.304.311 13.474.481l4.841.311c-.142.057-2.208 0-5.492.255s-7.671.34-12.823.34l.481-1.189 5.662 5.378.226.227v1.104 7.983l-1.217-.481c3.567-3.907 6.794-7.162 9.172-9.596l3.991-3.991z"/><path d="M547.546 46.396c.17.396-2.548 1.868-6.058 3.34a16.7 16.7 0 0 1-6.596 1.981 32.14 32.14 0 0 1 12.654-5.322zm22.704-2.009a4.27 4.27 0 0 1 2.264 0 8.89 8.89 0 0 1 5.266 3.17 9.4 9.4 0 0 1 1.938 4.316 9.39 9.39 0 0 1-.41 4.714c-.657 1.879-1.881 3.506-3.504 4.658s-3.564 1.77-5.554 1.77a9.6 9.6 0 0 1-5.554-1.77c-1.623-1.151-2.848-2.78-3.505-4.658a9.45 9.45 0 0 1-.415-4.709 9.44 9.44 0 0 1 1.916-4.321 9.03 9.03 0 0 1 5.293-3.227 4.27 4.27 0 0 1 2.265 0c0 .142-.793.17-2.123.566a8.83 8.83 0 0 0-4.586 3.312 8.33 8.33 0 0 0-.716 8.685 8.32 8.32 0 0 0 11.782 3.33 8.32 8.32 0 0 0 3.067-3.331c.695-1.372.996-2.91.87-4.444a8.32 8.32 0 0 0-1.585-4.241c-1.125-1.577-2.736-2.741-4.586-3.312-1.387-.34-2.123-.368-2.123-.51zm3.05 12.794c-.283.283-2.236-1.189-4.359-3.284l-.198-.226v-.453c0-3.001.311-5.435.736-5.435s.736 2.434.736 5.435l-.227-.51c2.123 2.236 3.595 4.19 3.312 4.473zm-220.829-.595c0 .425-61.795.736-137.999.736s-138.027-.311-138.027-.736 61.795-.736 138.027-.736l137.999.736zM52.532 67.485A10.9 10.9 0 0 0 63.43 56.587a10.9 10.9 0 0 0-10.898-10.898 10.9 10.9 0 0 0-10.898 10.898 10.9 10.9 0 0 0 10.898 10.898z"/></g><path d="M462.967 131.77l-77.284-27.705c5.06 60.281 9.974 122.064-6.051 180.392-1.735 6.313-3.266 14.217 1.75 18.416 3.004 2.508 7.291 2.596 11.213 2.479 8.011-.243 16.006-.831 23.987-1.764 8.487-.977 17.498-2.639 23.579-8.676 5.06-5.075 7.101-12.337 8.749-19.292a505.86 505.86 0 0 0 14.057-143.85z" class="D"/><path d="M336.439 380.595l9.157-12.001 6.125-32.08 13.94-78.085s6.139-29.368 25.08-37.782l4.01 78.013-38.641 98.033-19.671-16.098z" class="B"/><path d="M419.5 199.416l-11.388 13.474-17.367 7.728-39.196 73.711c-.962.685-7.16 21.508-3.748 39.254s5.833 40.961 5.454 57.671-22.237 71.685-23.579 84.312L323.844 537l193.179-1.459a354.38 354.38 0 0 0-7.174-36.454s-.685-48.47-7.845-57.686c0 0 5.454-12.628 4.783-19.787s28.668-45.393 34.471-58.707 28.668-43.745 29.003-65.53-3.076-40.275-13.998-55.295-30.709-25.255-38.904-30.709l-16.04-20.487-81.819 8.53z" fill="url(#D)"/><path d="M350.627 537a2.99 2.99 0 0 1 0-.583v-1.721l.277-6.576 1.006-24.177.438-16.711v-9.288a42.61 42.61 0 0 1 .977-9.887 155.39 155.39 0 0 1 6.314-20.268 98.63 98.63 0 0 0 3.339-10.645 46.35 46.35 0 0 0 .744-5.629l.568-5.833 2.275-22.645 1.094-10.776c.364-3.485.802-6.956.904-10.324.817-11.917 2.44-23.765 4.855-35.463l4.944-23.71 1.341-6.431.365-1.676a3.57 3.57 0 0 1 .146-.569c-.008.196-.033.391-.073.583l-.277 1.692-1.211 6.474-4.71 23.739a272.44 272.44 0 0 0-4.695 35.521c-.087 3.383-.569 6.81-.889 10.339l-1.065 10.776-2.26 22.66-.569 5.833c-.142 1.919-.4 3.828-.773 5.716a93.92 93.92 0 0 1-3.368 10.732c-2.564 6.571-4.678 13.309-6.329 20.167-.702 3.188-1.04 6.446-1.006 9.711.102 3.223.088 6.329 0 9.333l-.525 16.71-1.239 24.177-.438 6.576-.131 1.706c-.002.156-.012.312-.029.467z" class="E"/><path d="M380.711 313.402c0-1.56 6.853-28.026 21.173-50.146s17.498-41.427 17.498-41.427l.233-28.551 1.225 3.674 72.618-10.528 2.201 10.499-48.601 43.906s-22.456 4.374-23.331 4.987-43.016 67.586-43.016 67.586z" class="C"/><g fill="#e92c5f"><path d="M517.357 211.403a6.49 6.49 0 0 1-.641 1.006l-1.954 2.829c-1.721 2.435-4.287 5.906-7.539 10.134l-11.461 14.815-6.562 8.895a20.23 20.23 0 0 1-1.823 2.333c-.724.804-1.712 1.321-2.785 1.459-1.079.008-2.137-.296-3.048-.875-.904-.525-1.72-1.079-2.581-1.634l-10.003-6.416-4.753-3.033c-1.413-1.021-3.129-1.535-4.871-1.458a9.76 9.76 0 0 0-4.462 2.085c-1.312.992-2.61 1.998-3.966 2.829a28.16 28.16 0 0 1-8.108 3.369c-4.13 1.035-8.439 1.134-12.613.291a18.17 18.17 0 0 1-1.939-.466l-1.458-.438c-.386-.115-.757-.271-1.109-.466a9.31 9.31 0 0 1 1.152.32c.379.117.846.234 1.459.365a19.64 19.64 0 0 0 1.939.394 29.09 29.09 0 0 0 12.424-.511 28.1 28.1 0 0 0 7.903-3.397c1.312-.817 2.566-1.808 3.908-2.829 1.365-1.153 3.01-1.927 4.768-2.246a8.53 8.53 0 0 1 5.337 1.459l4.783 3.032 10.003 6.402c1.706 1.035 3.354 2.479 5.162 2.391a3.67 3.67 0 0 0 2.304-1.225c.643-.704 1.232-1.454 1.764-2.245 2.231-3.106 4.462-6.081 6.606-8.88 4.287-5.6 8.297-10.529 11.665-14.714s5.921-7.611 7.714-9.988l2.085-2.741c.216-.296.45-.579.7-.846z"/><path d="M408.108 294.708c.29-.725.652-1.418 1.079-2.071l3.266-5.439c2.917-4.55 6.971-10.718 11.914-17.25s9.74-12.176 13.357-16.142c1.808-1.984 3.295-3.558 4.374-4.623a13.65 13.65 0 0 1 1.692-1.604c-.432.64-.92 1.24-1.458 1.794l-4.171 4.783c-3.485 4.053-8.224 9.74-13.124 16.258s-9.113 12.613-12.059 17.076c-1.458 2.158-2.581 3.937-3.47 5.307a14.24 14.24 0 0 1-1.4 1.911z"/></g><path d="M414.379 300.307h.277l.831.175 3.223.685 12.249 2.581 8.749 1.648 5.001.773s3.529.7 5.352 1.181c3.645.933 7.466 2.158 11.446 3.543 1.998.7 4.025 1.459 6.096 2.261l3.12 1.268 1.56.686.788.379.408.218.204.132.102.087c.098.089.164.206.19.336v.087l-15.224 48.616c-.837 1.566-1.813 3.055-2.916 4.447-1.1 1.475-2.395 2.795-3.849 3.923-.54.411-1.14.735-1.779.962l-1.809.613-3.587 1.21-7.028 2.435-13.678 4.593-.204.073-.16-.146-14.305-13.254-3.383-3.15c-1.146-1.01-2.236-2.081-3.266-3.208-1.014-1.164-1.681-2.589-1.925-4.112-.191-1.454-.162-2.929.087-4.375 1.954-11.169 4.156-20.954 6.154-29.076s3.835-14.582 5.133-18.956l1.545-5.031.423-1.283c.042-.152.101-.299.175-.438 0 0 0 .161-.102.452s-.219.759-.365 1.313L412.454 307c-1.225 4.375-2.989 10.834-4.928 18.956s-4.083 17.922-5.964 29.047c-.241 1.383-.27 2.794-.088 4.185.228 1.407.856 2.718 1.808 3.777a40.55 40.55 0 0 0 3.194 3.135l3.397 3.267 14.32 13.225h-.365l13.663-4.622 7.087-2.392 3.587-1.21 1.808-.612c.561-.206 1.088-.496 1.561-.861 1.394-1.091 2.64-2.36 3.703-3.776a30.09 30.09 0 0 0 2.785-4.375l15.326-48.587.277.103c-7.702-3.314-15.613-6.119-23.681-8.4-1.808-.481-3.587-.889-5.293-1.195s-3.412-.525-5.016-.817a274.67 274.67 0 0 1-8.749-1.721l-12.22-2.755-3.208-.788-.816-.219c-.175-.014-.278-.043-.263-.058z" class="E"/><path opacity=".09" d="M415.968 468.714c-16.886-2.552-40.348-9.595-59.596-13.62-6.868-1.458-12.817-3.091-19.685-4.52l-1.182 3.806c19.504 4.208 38.376 10.938 56.14 20.021 10.674 5.468 21.261 11.855 33.13 13.59 13.284 1.954 26.627-2.129 39.371-6.168 7.291-2.29 14.801-4.783 19.948-10.324 3.631-3.923 5.702-8.997 7.612-13.984 5.026-13.192 9.425-26.607 13.196-40.246-22.922 25.752-54.856 56.607-88.934 51.445z" fill="#000"/><path d="M495.586 302.524l-48.528 89.241s-11.257 2.26-11.257 14.173c0 0-3.923-3.135-9.624.263-3.66 2.172-13.97 5.074-19.671 8.122-1.364.724-2.44 1.892-3.049 3.31a6.78 6.78 0 0 0-.305 4.491l15.063 54.725s18.3 0 19.919-4.534l25.095-7.86s16.2-4.243 22.471-15.063 43.628-66.464 43.628-66.464" fill="url(#E)"/><path d="M529.328 382.929s-.102.204-.335.568l-1.036 1.604-4.083 6.198-15.281 23.097-10.703 16.332-12.191 19.175a28.21 28.21 0 0 1-8.909 8.749 51.7 51.7 0 0 1-11.87 5.643l-26.67 8.37.233-.233a4.14 4.14 0 0 1-1.91 1.954 12.66 12.66 0 0 1-2.45.991 31.79 31.79 0 0 1-5.162 1.094 83.8 83.8 0 0 1-10.746.758h-.292v-.277l-8.501-30.884-4.535-16.492-2.187-8.137c-.228-1.447-.007-2.929.631-4.248s1.665-2.411 2.941-3.13c4.884-2.282 9.888-4.297 14.99-6.037l3.602-1.458a29.43 29.43 0 0 1 3.543-1.706c1.259-.468 2.61-.633 3.945-.484s2.615.61 3.74 1.344l-.583.277c-.063-3.441 1.094-6.793 3.266-9.463a15.79 15.79 0 0 1 8.297-5.046l-.233.175 35.215-64.495 9.988-18.169 2.669-4.797.7-1.211c.071-.142.154-.279.248-.408 0 0 0 .146-.205.423l-.656 1.254-2.566 4.841-9.814 18.257-34.996 64.626v.131h-.16a15.2 15.2 0 0 0-7.904 4.827c-2.063 2.543-3.153 5.738-3.077 9.011v.686l-.568-.408c-1.03-.658-2.199-1.066-3.414-1.192a7.88 7.88 0 0 0-3.586.462c-1.188.482-2.342 1.042-3.455 1.677-1.196.569-2.421 1.065-3.66 1.546a147.1 147.1 0 0 0-14.889 6.008 6.45 6.45 0 0 0-2.628 2.804c-.57 1.18-.768 2.506-.565 3.801.627 2.61 1.458 5.352 2.173 8.049l4.535 16.507 8.486 30.87-.35-.277c3.561-.013 7.116-.257 10.645-.729 1.712-.225 3.403-.58 5.06-1.065a11.8 11.8 0 0 0 2.289-.933 3.45 3.45 0 0 0 1.59-1.56l.073-.161h.16l26.67-8.311c4.108-1.351 8.028-3.218 11.666-5.556a27.86 27.86 0 0 0 8.749-8.516c4.199-6.897 8.384-13.24 12.248-19.16l10.791-16.288 15.311-23.112 4.17-6.139 1.094-1.575c.306-.35.452-.452.452-.452zm-56.679 42.899c-.442-.146-.863-.347-1.254-.598-.802-.423-1.911-1.093-3.267-1.968-3.489-2.326-6.742-4.987-9.711-7.947a62.7 62.7 0 0 1-7.947-9.712c-.875-1.341-1.546-2.45-1.969-3.252-.256-.391-.453-.819-.583-1.268.102 0 1.137 1.633 3.004 4.214a78.08 78.08 0 0 0 8.034 9.493 80.61 80.61 0 0 0 9.478 8.034c2.596 1.852 4.287 2.887 4.215 3.004zm1.603-27.997a17.14 17.14 0 0 1-4.141.744c-6.778.697-13.627-.028-20.108-2.129a16.59 16.59 0 0 1-3.894-1.604c0-.102 1.561.423 4.054 1.093a62.19 62.19 0 0 0 9.857 1.867 64.09 64.09 0 0 0 10.047.248c1.39-.155 2.787-.228 4.185-.219z" class="E"/><path d="M419.498 199.417l-.19.306-.583.846c-.51.758-1.342 1.823-2.435 3.164-2.202 2.698-5.541 6.46-9.755 11.082l-6.854 7.612c-2.479 2.741-5.045 5.745-7.51 9.099a59.33 59.33 0 0 0-9.434 25.241l-.714-.204a42.59 42.59 0 0 1 4.097-6.343l2.304-3.208a28.19 28.19 0 0 0 1.05-1.633l.481-.831.233-.423.102-.219v-.102l.088-.131a.42.42 0 0 1 .177-.126c.069-.025.144-.032.217-.02.067.012.131.039.187.079s.101.093.133.154v.088.116l.088.234.175.466a5.39 5.39 0 0 1 .306.933 12.69 12.69 0 0 1 .423 1.925c.206 1.273.289 2.562.248 3.85a76.43 76.43 0 0 1-2.392 14.305c-1.706 9.099-4.826 16.885-6.678 23.578a60.76 60.76 0 0 0-2.698 16.186 37.57 37.57 0 0 0 .205 4.462c0 .467.102.861.131 1.152a1.27 1.27 0 0 1 0 .408c-.445-1.976-.665-3.996-.656-6.022.052-5.534.891-11.033 2.493-16.331 1.794-6.752 4.841-14.582 6.504-23.579 1.216-4.642 1.998-9.387 2.333-14.174.034-1.244-.049-2.489-.248-3.718a11.89 11.89 0 0 0-.409-1.837 4.78 4.78 0 0 0-.277-.89l-.175-.437-.072-.219v-.117c.116 0-.292.102.277-.146-.248-.131.35.161.277.146v.102l-.03.161-.233.452-.496.86c-.35.569-.7 1.123-1.079 1.662-.743 1.094-1.531 2.159-2.318 3.238-1.52 1.944-2.867 4.018-4.025 6.197l-1.079 2.275.365-2.479a59.29 59.29 0 0 1 9.638-25.533c2.494-3.383 5.133-6.343 7.597-9.099l6.941-7.568 9.901-10.907 2.538-3.077.641-.802c.088-.131.175-.219.19-.204z" fill="#e92c5f"/><path d="M422.517 407.528a2.61 2.61 0 0 1 .511.496l1.356 1.531c.725.795 1.401 1.632 2.027 2.508l2.493 3.485 2.698 4.447 2.712 5.308c1.865 4.165 3.367 8.482 4.491 12.905 1.047 4.441 1.716 8.963 1.998 13.517 0 2.1.16 4.098 0 5.964-.026 1.736-.143 3.468-.35 5.191-.102 1.59-.394 3.004-.583 4.244-.154 1.066-.368 2.122-.642 3.164l-.496 1.983a2.49 2.49 0 0 1-.218.685c-.012-.24.012-.481.072-.714l.35-2.012c.132-.802.38-1.925.511-3.179s.408-2.64.481-4.229.262-3.281.248-5.147 0-3.821-.117-5.906a83.51 83.51 0 0 0-2.041-13.371c-1.104-4.381-2.567-8.663-4.375-12.803-.889-1.881-1.691-3.689-2.624-5.293s-1.75-3.121-2.596-4.448-1.677-2.508-2.377-3.529a41.54 41.54 0 0 0-1.925-2.581l-1.239-1.618a3.05 3.05 0 0 1-.365-.598zm46.297-79.427a12.68 12.68 0 0 1-2.202-.744l-5.935-2.172a239.67 239.67 0 0 0-19.904-6.227c-7.874-2.085-15.121-3.558-20.414-4.476l-6.241-1.05a15.63 15.63 0 0 1-2.29-.438c.781-.023 1.562.026 2.333.146 1.459.146 3.631.423 6.285.817a195.38 195.38 0 0 1 20.415 4.258 198.23 198.23 0 0 1 20.05 6.459c2.493.977 4.491 1.794 5.832 2.421.718.275 1.411.612 2.071 1.006z" class="E"/><path opacity=".09" d="M460.91 430.947a20.12 20.12 0 0 0-4.112-5.264l-20.939-21.319v1.575c4.651 3.164 5.643 9.58 6.985 15.048s2.508 11.316 6.313 15.472c1.504 1.749 3.563 2.928 5.833 3.339a6.1 6.1 0 0 0 3.337-.364 6.11 6.11 0 0 0 2.642-2.071 6.76 6.76 0 0 0 .779-3.216c-.01-1.119-.298-2.219-.838-3.2zm-28.771-50.57c-2.23 1.049-4.714 1.439-7.159 1.122a12.74 12.74 0 0 1-5.41-3.47l-17.425-15.88c4.987 7.291 8.982 14.757 13.969 22.092 1.342 1.983 2.829 4.068 5.074 4.885s4.958.102 7.291-.788c8.382-3.224 15.964-8.229 22.223-14.669l-18.563 6.708zm-21.885-90.058c16.287-7.801 22.149-29.469 38.321-37.533 4.66-2.255 9.837-3.225 14.997-2.81a29.08 29.08 0 0 1 14.356 5.172c2.799 2.012 5.905 4.695 9.23 3.748 2.508-.715 3.952-3.267 5.133-5.585l12.132-23.769-15.909 18.753c-1.016 1.465-2.456 2.584-4.127 3.208-3.208.831-5.526-2.771-8.486-4.244-9.216-4.593-15.69-10.382-20.823-6.503 0 0-8.968 6.168-12.555 6.824l-32.269 42.127m-27.738 16.477c-1.341-7.175.263-15.107 3.223-21.771s6.678-13.124 8.501-20.152c1.458-5.657 1.662-11.565.598-17.309-.511-2.683-1.283-5.41-.7-8.078a15.16 15.16 0 0 1 2.187-4.725 105.41 105.41 0 0 1 12.715-16.477l10.208-15.311s.437 17.79.102 19.467a112.97 112.97 0 0 1-4.375 15.515c-3 8.262-6.872 16.18-11.549 23.622-5.504 8.567-10.298 17.57-14.333 26.918l-6.577 18.301z" fill="#000"/><path d="M447.057 240.828c-20.663-4.871-27.006-15.151-27.254-33.32l-.306-23.126s-22.879-1.182-28.216-35.259c-2.654-16.944-4.957-44.329-3.47-67.076 1.327-20.415 22.558-56.461 42.9-54.259l55.906 27.195c2.982.324 5.734 1.754 7.713 4.009s3.041 5.168 2.976 8.167l-4.375 132.068" class="C"/><path d="M419.499 184.718a86.59 86.59 0 0 0 45.626-12.06s-11.505 24.002-45.626 20.707v-8.647z" fill="#f1987c"/><g class="D"><path d="M546.228 209.186c-7.422-12-13.488-41.908-16.04-57.058s-10.615-63.766-23.535-89.314-28.128-35.871-43.045-39.896a34.37 34.37 0 0 0-32.868 7.466c-6.736 6.022-9.04 23.579-9.04 23.579s36.002 8.005 48.12 28.537c13.925 23.578 17.308 35.433 17.308 35.433l4.506 12.905-5.833 37.315c-1.604 12.351.919 23.798 11.083 28.799l20.414 14.451 27.939 19.087c5.701 4.375 16.886 20.954 16.886 20.954s-.715-17.716-15.895-42.258z"/><path d="M422.113 54.099s-22.037-2.178-29.648 21.153c-3.427 10.514-6.066 40.829-6.066 40.829s-3.004-24.119-1.896-37.913 7.976-31.176 18.534-40.829c10.207-9.376 20.403-13.862 38.703-12.739 0 0-8.545 2.916-13.24 9.901-2.348 3.543-3.369 6.504-6.387 19.598z"/></g><path d="M486.866 119.727c.365-7.539 8.574-12.555 15.107-8.749 3.587 2.085 6.343 6.255 6.008 14.246-.875 21.348-22.121 16.04-22.135 15.442 0-.422.568-12.102 1.02-20.939z" class="C"/><path d="M492.7 132.806c.102 0 .364.278.977.598.867.414 1.861.471 2.77.161 2.29-.729 4.375-4.229 4.608-8.064.126-1.828-.158-3.662-.831-5.366-.178-.665-.513-1.277-.978-1.784s-1.044-.896-1.69-1.132a1.89 1.89 0 0 0-1.292.059c-.411.17-.748.48-.954.874-.306.583-.189 1.006-.306 1.05s-.438-.379-.233-1.254c.139-.526.453-.988.889-1.313a2.92 2.92 0 0 1 2.085-.452 5.27 5.27 0 0 1 3.748 3.471c.831 1.882 1.187 3.94 1.035 5.993-.306 4.301-2.668 8.239-5.833 8.997-.578.144-1.181.155-1.764.034s-1.131-.372-1.604-.734c-.612-.613-.7-1.094-.627-1.138z" fill="#f1987c"/><path d="M455.08 21.577c0 .16-2.917 0-7.568.685a26.14 26.14 0 0 0-7.787 2.333 25.79 25.79 0 0 0-7.816 6.081 39.62 39.62 0 0 0-8.647 15.85c-1.239 4.52-1.385 7.451-1.546 7.437a11.04 11.04 0 0 1 .073-2.056 38.97 38.97 0 0 1 .948-5.512 38.22 38.22 0 0 1 8.603-16.215 24.25 24.25 0 0 1 16.04-8.443 45.58 45.58 0 0 1 5.6-.277c.702-.033 1.405.007 2.1.117z" fill="#455a64"/><path d="M506.61 135.154a1.03 1.03 0 0 1 0-.35l.174-.992.321-1.619.321-2.216c.611-4.739.547-9.54-.189-14.261-1.071-6.997-3.584-13.696-7.379-19.671a57.55 57.55 0 0 0-18.738-17.586 106.07 106.07 0 0 0-11.913-6.241c-3.951-1.823-7.918-3.237-11.665-4.9-6.426-3.008-12.612-6.503-18.505-10.455a184.68 184.68 0 0 1-11.665-8.385l-3.033-2.45-.773-.656c-.175-.16-.262-.233-.248-.248l.292.19.816.598 3.136 2.333c2.726 2.012 6.707 4.885 11.782 8.166 5.933 3.862 12.148 7.274 18.591 10.207 3.631 1.633 7.627 3.048 11.666 4.856 4.128 1.836 8.136 3.93 12.001 6.27a57.75 57.75 0 0 1 18.956 17.863c3.818 6.067 6.303 12.877 7.291 19.977.711 4.761.711 9.602 0 14.363l-.394 2.231-.379 1.604-.262.991c-.146.263-.19.394-.204.38zm4.945-8.05a1.86 1.86 0 0 1 0-.35v-1.021-3.922a81.67 81.67 0 0 0-8.006-34.486c-3.774-7.848-8.808-15.025-14.902-21.246a94.47 94.47 0 0 0-20.882-15.515c-6.97-3.995-13.546-7.072-18.956-9.741l-12.919-6.431-3.442-1.867-.889-.51a1.36 1.36 0 0 1-.292-.204s.117 0 .336.131l.918.437 3.5 1.75 13.021 6.197c5.512 2.566 12.103 5.658 19.132 9.624a93.82 93.82 0 0 1 21.07 15.588c6.146 6.289 11.215 13.545 15.005 21.479 3.044 6.494 5.231 13.356 6.504 20.414a76.29 76.29 0 0 1 1.152 14.393c0 1.706-.161 3.033-.205 3.922 0 .408-.072.744-.087 1.021a1.36 1.36 0 0 1-.058.335z" fill="#8f8e93"/><path d="M510.925 206.853a2.81 2.81 0 0 1-.321-.641l-.802-1.896-1.138-3.062-1.268-4.141-.642-2.436-.583-2.668c-.437-1.852-.7-3.85-1.05-5.935a126.51 126.51 0 0 1-1.035-13.765 216.47 216.47 0 0 1 1.239-25.008l.861-7.524.277-2.041a3.78 3.78 0 0 1 .145-.715 2.62 2.62 0 0 1 0 .729l-.145 2.056-.613 7.553c-.496 6.373-1.181 15.195-1.021 24.935.091 4.573.417 9.139.977 13.678.321 2.085.569 4.083.963 5.833.189.918.335 1.808.539 2.668l.598 2.421c.336 1.56.802 2.916 1.152 4.156s.7 2.245 1.006 3.091l.671 1.939a2.2 2.2 0 0 1 .19.773z" fill="#777381"/><path d="M240.986 402.73s23.185 29.747 31.497 32.08 39.794 10.134 39.794 10.134l103.312 23.871-12.162-44.285-97.843-1.327-64.598-20.473z" class="C"/><path d="M108.147 251.255c7.743 19.204 46.764 107.059 55.805 127.401.587 1.325 1.45 2.51 2.531 3.475a10.2 10.2 0 0 0 3.739 2.124l122.808 38.992 121.845 9.099v-4.01l-98.5-29.849-31.117-3.645L238.8 279.645a16.6 16.6 0 0 0-4.903-6.655 16.59 16.59 0 0 0-7.506-3.464l-115.809-21.231c-.384-.068-.779-.032-1.144.103a2.21 2.21 0 0 0-.937.666c-.247.301-.411.663-.473 1.048s-.021.779.119 1.143z" fill="#455a64"/><path d="M414.876 428.337h-.394l-1.122-.088-4.375-.394-15.967-1.604-23.666-2.493-29.003-2.917c-10.295-1.02-20.109-1.793-29.047-2.303l-12.701-.788a21.86 21.86 0 0 1-2.917-.379 5.85 5.85 0 0 1-1.458-.467c-.471-.231-.858-.603-1.108-1.064-.764-1.623-1.436-3.288-2.012-4.987l-5.673-15.005-1.458-4.097-.379-1.079a1.72 1.72 0 0 1-.102-.365s0 .102.175.35l.437 1.035 1.648 4.054 5.906 14.932a47.13 47.13 0 0 0 1.998 4.856c.198.364.504.659.874.845.412.179.843.311 1.284.394a20.39 20.39 0 0 0 2.916.336l12.701.743c8.953.467 18.796 1.21 29.09 2.231L369.527 423l23.666 2.639 15.952 1.837 4.375.54 1.123.145.233.176z" fill="#324752"/><path d="M351.911 404.8s1.765-11.578 0-13.867-14.173-13.445-14.173-13.445l-7.043-6.62-15.53-2.377a4.73 4.73 0 0 0-4.739 2.187l-1.589 2.552-4.215-.7-3.718-5.38h-10.353l-7.655 8.268v11.169s1.035 3.106 3.732.831 2.917-8.574 2.917-8.574l4.593 4.229-4.885 14.903s3.427 3.12 5.92 0l5.994-7.656s4.141 11.17 11.169 14.48 24.002 6.328 27.531 5.541 11.373.656 12.044-5.541z" class="C"/><g fill="#f39476"><path d="M327.342 379.401s0 .175-.277.422c-.34.353-.761.618-1.225.773-.726.25-1.493.359-2.26.321-.89 0-1.867-.219-2.917-.321a5.15 5.15 0 0 0-3.266.511 14.88 14.88 0 0 0-2.727 2.916 12.27 12.27 0 0 1-3.698 3.081 12.28 12.28 0 0 1-4.599 1.425c-1.333.099-2.67-.145-3.883-.709a7.84 7.84 0 0 1-3.043-2.514l-.161-.233.205-.204a81.34 81.34 0 0 0 7.509-9.158l2.669-3.835c-.127.398-.308.776-.54 1.123a36.07 36.07 0 0 1-1.764 2.917 67.1 67.1 0 0 1-7.291 9.405v-.452a7.18 7.18 0 0 0 2.773 2.271 7.17 7.17 0 0 0 3.526.645c3.051-.332 5.851-1.845 7.802-4.214a15.4 15.4 0 0 1 2.916-3.004 5.67 5.67 0 0 1 3.675-.51l2.916.437a6.39 6.39 0 0 0 2.143-.175 4.38 4.38 0 0 0 1.517-.918zm12.19 24.787c-.087 0-.175-.656-.642-1.749a16.94 16.94 0 0 0-2.683-4.244l-4.87-5.832c-.894-1.254-1.547-2.663-1.925-4.156-.391-1.623-.366-3.318.073-4.929.434-1.596 1.194-3.086 2.231-4.374a5.27 5.27 0 0 1 1.867-1.561c.382-.173.799-.256 1.218-.243a2.77 2.77 0 0 1 1.202.316c1.23.765 2.114 1.978 2.465 3.383a15.8 15.8 0 0 0 1.458 3.194 13.41 13.41 0 0 0 3.295 3.747l1.458 1.123a5.93 5.93 0 0 1-1.676-.875c-1.435-.985-2.655-2.249-3.588-3.718a15.58 15.58 0 0 1-1.458-3.252c-.335-1.213-1.116-2.255-2.187-2.916a2.04 2.04 0 0 0-.911-.213c-.317 0-.628.072-.912.213-.625.327-1.164.796-1.575 1.37a11.46 11.46 0 0 0-2.07 4.127 9.21 9.21 0 0 0-.102 4.579c.359 1.403.967 2.732 1.793 3.922 1.59 2.319 3.398 4.17 4.71 5.906 1.09 1.34 1.948 2.853 2.537 4.476.155.445.263.904.321 1.371.01.224 0 .335-.029.335zm-39.46-28.551a3.28 3.28 0 0 0-2.245.919 15.02 15.02 0 0 0-2.771 5.497l-2.172 5.978c-.257.854-.656 1.657-1.182 2.377a11.05 11.05 0 0 1 .671-2.552l1.969-6.066a13.22 13.22 0 0 1 3.135-5.628c.518-.465 1.185-.728 1.881-.744.496-.058.729.102.714.219z"/><path d="M301.182 375.375c0 .088-.641.219-1.706.088a7.74 7.74 0 0 1-3.893-1.736h.554l-.948.832c-1.721 1.622-3.607 3.059-5.628 4.287 1.53-1.804 3.251-3.437 5.132-4.871l.963-.816.248-.204.233.204a8.75 8.75 0 0 0 3.514 1.822 9.48 9.48 0 0 1 1.531.394zm16.431 26.67c.223-.934.598-1.826 1.108-2.639 1.091-2.031 2.412-3.929 3.937-5.658a30.98 30.98 0 0 1 5.104-4.651 8.74 8.74 0 0 1 2.479-1.459 90.63 90.63 0 0 0-7.014 6.577c-2.016 2.503-3.89 5.117-5.614 7.83z"/></g><path d="M230.065 271.364c.085.113.15.242.19.379l.495 1.137 1.808 4.375 6.504 16.185 21.216 53.501 20.998 53.588 6.3 16.274 1.662 4.374.423 1.167c.055.13.094.268.116.408-.074-.121-.137-.247-.189-.379l-.481-1.138-1.808-4.374-6.519-16.186-21.216-53.515-20.998-53.574-6.285-16.273-1.677-4.448-.422-1.151c-.045-.115-.084-.232-.117-.35z" fill="#324752"/><path d="M203.758 337.58c3.139-2.269 3.174-7.58.079-11.861s-8.15-5.912-11.289-3.642-3.174 7.58-.079 11.862 8.15 5.911 11.289 3.641z" class="B"/><defs><filter id="A" x="100.128" y="58.713" width="221.031" height="245.75" filterUnits="userSpaceOnUse" color-interpolation-filters="sRGB"><feFlood flood-opacity="0" result="A"/><feColorMatrix in="SourceAlpha" values="0 0 0 0 0 0 0 0 0 0 0 0 0 0 0 0 0 0 127 0"/><feOffset dy="4"/><feGaussianBlur stdDeviation="4"/><feColorMatrix values="0 0 0 0 0 0 0 0 0 0 0 0 0 0 0 0 0 0 0.3 0"/><feBlend in2="A"/><feBlend in="SourceGraphic"/></filter><linearGradient id="B" x1="242.497" y1="194.774" x2="104.528" y2="99.84" gradientUnits="userSpaceOnUse"><stop stop-color="#ec2d61"/><stop offset="1" stop-color="#fd3e72"/></linearGradient><linearGradient id="C" x1="260.003" y1="287.715" x2="126.25" y2="173.748" gradientUnits="userSpaceOnUse"><stop stop-color="#d92657"/><stop offset="1" stop-color="#fd3e72"/></linearGradient><linearGradient id="D" x1="447.064" y1="190.886" x2="447.064" y2="537" gradientUnits="userSpaceOnUse"><stop stop-color="#fd3e72"/><stop offset="1" stop-color="#f23267"/></linearGradient><linearGradient id="E" x1="509.999" y1="346" x2="407.999" y2="466" gradientUnits="userSpaceOnUse"><stop stop-color="#f93a6e"/><stop offset="1" stop-color="#fd3e72" stop-opacity="0"/></linearGradient></defs></svg>