<svg width="322" height="279" viewBox="0 0 322 279" fill="none" xmlns="http://www.w3.org/2000/svg">
<path d="M309.485 0H12.3723C5.80572 0 0.482422 5.39025 0.482422 12.0394V189.342C0.482422 195.991 5.80572 201.381 12.3723 201.381H309.485C316.051 201.381 321.375 195.991 321.375 189.342V12.0394C321.375 5.39025 316.051 0 309.485 0Z" fill="#5B5863"/>
<path d="M305.085 4.23413H16.89C10.5205 4.23413 5.35693 9.39769 5.35693 15.7672V185.613C5.35693 191.982 10.5205 197.146 16.89 197.146H305.085C311.455 197.146 316.618 191.982 316.618 185.613V15.7672C316.618 9.39769 311.455 4.23413 305.085 4.23413Z" fill="white"/>
<g filter="url(#filter0_d)">
<path d="M82.5203 103.319C81.1239 102.945 79.8706 102.039 79.0904 100.688L68.9779 83.1873C60.881 69.1737 65.7023 51.1913 79.7253 43.1015C93.7484 35.0116 111.746 39.8329 119.845 53.8494L129.954 71.3452C131.514 74.0454 130.59 77.4975 127.888 79.0555C125.187 80.6136 121.732 79.6882 120.173 76.9881L110.063 59.4922C105.08 50.8672 94.0047 47.9005 85.3749 52.879C76.7451 57.8573 73.7776 68.9223 78.7594 77.5442L88.8716 95.0452C90.4318 97.7454 89.5069 101.197 86.8057 102.755C85.4554 103.535 83.9161 103.693 82.5203 103.319Z" fill="url(#paint0_linear)"/>
<path d="M82.3521 43.71C68.3287 51.8 63.5074 69.7827 71.605 83.7971L81.7152 101.299C82.2413 102.205 82.9762 102.911 83.8272 103.39C83.3492 103.384 82.8756 103.319 82.4173 103.196C81.0206 102.822 79.7691 101.917 78.9874 100.568L68.8771 83.0662C60.7795 69.0518 65.6009 51.0691 79.6242 42.9791C87.0734 38.6817 95.6456 38.0276 103.259 40.462C96.3683 38.9637 88.9256 39.9201 82.3521 43.71Z" fill="#FF6B94"/>
<path d="M80.3678 151.405C72.358 151.405 65.8414 146.249 65.8414 139.912V103.899C65.8414 97.5615 72.358 92.4055 80.3678 92.4055H125.884C133.894 92.4055 140.41 97.5615 140.41 103.899V139.912C140.41 146.249 133.894 151.405 125.884 151.405H80.3678Z" fill="url(#paint1_linear)"/>
<path d="M110.224 114.183C110.224 110.302 107.076 107.156 103.192 107.156C99.309 107.156 96.1607 110.302 96.1607 114.183C96.1607 116.754 97.5471 119.029 99.6092 120.254L97.6532 137.071H103.366H109.078L107.104 120.055C108.985 118.794 110.224 116.617 110.224 114.183Z" fill="white"/>
<path d="M145.476 78.1609C143.003 80.0393 142.147 79.3199 143.575 76.5627L151.092 62.0378C152.52 59.2806 155.485 58.8206 157.681 61.0156L158.165 61.4994C160.362 63.6944 160.136 67.0274 157.663 68.9059L145.476 78.1609Z" fill="#FD3E72"/>
<path d="M147.569 86.965C145.054 85.143 145.525 83.9001 148.617 84.2029L158.978 85.218C162.069 85.5212 163.455 87.9852 162.057 90.6942C160.66 93.4032 157.458 94.1287 154.943 92.3068L147.569 86.965Z" fill="#FD3E72"/>
<path d="M124.746 80.2788C122.815 80.2611 120.943 79.251 119.906 77.4568L109.797 59.9612C107.56 56.0895 104.093 53.3579 100.173 51.9714C105.187 52.9089 109.78 55.9424 112.525 60.6922L122.634 78.1877C123.157 79.0932 123.895 79.7992 124.746 80.2788Z" fill="#FF6B93"/>
</g>
<path d="M23.1484 174.974V175.561H20.8036V175.165L22.0786 173.963C22.1836 173.887 22.2698 173.789 22.3308 173.674C22.3918 173.56 22.4258 173.433 22.4303 173.304C22.4303 173.011 22.2398 172.849 21.8441 172.849C21.7032 172.843 21.5625 172.868 21.433 172.924C21.3034 172.98 21.1884 173.065 21.0967 173.172L20.6864 172.864C20.8319 172.689 21.0163 172.55 21.2249 172.458C21.4335 172.367 21.6605 172.325 21.8881 172.337C22.5915 172.337 23.0311 172.674 23.0311 173.245C23.0266 173.441 22.9766 173.633 22.885 173.806C22.7934 173.979 22.6628 174.128 22.5036 174.242L21.6536 175.048L23.1484 174.974Z" fill="#FD3E72"/>
<path d="M23.4963 173.406C23.4943 173.356 23.5023 173.307 23.5198 173.261C23.5374 173.215 23.564 173.173 23.5983 173.137C23.6325 173.102 23.6735 173.073 23.719 173.054C23.7644 173.035 23.8133 173.025 23.8626 173.025C23.9637 173.025 24.0606 173.065 24.132 173.136C24.2035 173.208 24.2436 173.305 24.2436 173.406C24.2436 173.507 24.2035 173.604 24.132 173.675C24.0606 173.747 23.9637 173.787 23.8626 173.787C23.8133 173.787 23.7644 173.777 23.719 173.757C23.6735 173.738 23.6325 173.71 23.5983 173.674C23.564 173.639 23.5374 173.597 23.5198 173.55C23.5023 173.504 23.4943 173.455 23.4963 173.406ZM23.4963 175.135C23.4943 175.086 23.5023 175.036 23.5198 174.99C23.5374 174.944 23.564 174.902 23.5983 174.866C23.6325 174.831 23.6735 174.802 23.719 174.783C23.7644 174.764 23.8133 174.754 23.8626 174.754C23.9637 174.754 24.0606 174.794 24.132 174.865C24.2035 174.937 24.2436 175.034 24.2436 175.135C24.2436 175.236 24.2035 175.333 24.132 175.404C24.0606 175.476 23.9637 175.516 23.8626 175.516C23.8133 175.516 23.7644 175.506 23.719 175.487C23.6735 175.467 23.6325 175.439 23.5983 175.403C23.564 175.368 23.5374 175.326 23.5198 175.28C23.5023 175.233 23.4943 175.184 23.4963 175.135Z" fill="#FD3E72"/>
<path d="M25.6981 172.306V175.559H25.0973V172.877H24.4378V172.379L25.6981 172.306Z" fill="#FD3E72"/>
<path d="M29.1522 174.753H28.5953V175.486H28.0238V174.753H26.2799V174.343L27.8919 172.306H28.522L27.0566 174.255H28.0971V173.625H28.6539V174.255H29.2108L29.1522 174.753Z" fill="#FD3E72"/>
<path d="M275.408 173.494H34.3415V174.593H275.408V173.494Z" fill="#5B5863"/>
<path d="M109.508 172.306H34.1697V175.237H109.508V172.306Z" fill="#FD3E72"/>
<path d="M111.925 174.095C111.925 174.819 111.71 175.528 111.307 176.13C110.905 176.733 110.332 177.202 109.663 177.48C108.994 177.757 108.257 177.829 107.546 177.688C106.836 177.547 106.183 177.198 105.67 176.685C105.158 176.173 104.809 175.52 104.668 174.81C104.526 174.099 104.599 173.362 104.876 172.693C105.154 172.023 105.623 171.451 106.226 171.049C106.828 170.646 107.536 170.431 108.261 170.431C109.233 170.431 110.165 170.817 110.852 171.504C111.539 172.191 111.925 173.123 111.925 174.095Z" fill="#FF725E"/>
<path d="M281.419 174.006C281.415 174.151 281.382 174.294 281.321 174.426C281.26 174.558 281.172 174.675 281.063 174.772C280.955 174.868 280.827 174.941 280.689 174.985C280.551 175.03 280.405 175.046 280.261 175.032C279.396 175.032 278.883 174.475 278.883 173.449C278.849 173.23 278.865 173.006 278.93 172.795C278.995 172.583 279.108 172.388 279.259 172.226C279.409 172.064 279.595 171.938 279.802 171.858C280.008 171.778 280.231 171.746 280.451 171.764C280.738 171.757 281.022 171.828 281.272 171.969L281.067 172.409C280.878 172.306 280.666 172.255 280.451 172.262C279.865 172.262 279.484 172.629 279.484 173.347C279.593 173.233 279.726 173.144 279.872 173.086C280.019 173.027 280.177 173.001 280.334 173.01C280.473 172.995 280.613 173.01 280.745 173.054C280.877 173.097 280.999 173.169 281.101 173.263C281.204 173.357 281.285 173.472 281.34 173.6C281.395 173.729 281.421 173.867 281.419 174.006ZM280.847 174.006C280.847 173.669 280.598 173.464 280.217 173.464C280.139 173.456 280.06 173.464 279.985 173.487C279.909 173.51 279.84 173.548 279.78 173.598C279.719 173.649 279.67 173.711 279.634 173.781C279.599 173.851 279.578 173.928 279.572 174.006C279.572 174.299 279.807 174.534 280.232 174.534C280.305 174.553 280.381 174.557 280.456 174.545C280.531 174.533 280.603 174.505 280.666 174.464C280.73 174.422 280.784 174.368 280.825 174.304C280.866 174.241 280.894 174.169 280.906 174.094L280.847 174.006Z" fill="#FD3E72"/>
<path d="M281.771 172.908C281.769 172.859 281.777 172.81 281.794 172.765C281.812 172.72 281.839 172.678 281.873 172.644C281.908 172.61 281.949 172.583 281.994 172.565C282.04 172.547 282.088 172.539 282.137 172.541C282.186 172.539 282.236 172.547 282.282 172.565C282.328 172.582 282.37 172.609 282.406 172.643C282.441 172.678 282.47 172.719 282.489 172.764C282.508 172.809 282.518 172.858 282.518 172.908C282.518 173.009 282.478 173.106 282.407 173.177C282.335 173.249 282.238 173.289 282.137 173.289C282.088 173.289 282.039 173.279 281.993 173.259C281.948 173.24 281.907 173.212 281.873 173.176C281.838 173.141 281.812 173.099 281.794 173.052C281.777 173.006 281.769 172.957 281.771 172.908ZM281.771 174.637C281.769 174.588 281.777 174.54 281.794 174.494C281.812 174.449 281.839 174.408 281.873 174.373C281.908 174.339 281.949 174.312 281.994 174.294C282.04 174.277 282.088 174.268 282.137 174.271C282.186 174.269 282.236 174.277 282.282 174.294C282.328 174.312 282.37 174.338 282.406 174.373C282.441 174.407 282.47 174.448 282.489 174.493C282.508 174.539 282.518 174.588 282.518 174.637C282.518 174.738 282.478 174.835 282.407 174.906C282.335 174.978 282.238 175.018 282.137 175.018C282.088 175.018 282.039 175.008 281.993 174.989C281.948 174.969 281.907 174.941 281.873 174.906C281.838 174.87 281.812 174.828 281.794 174.782C281.777 174.735 281.769 174.686 281.771 174.637Z" fill="#FD3E72"/>
<path d="M282.886 173.406C282.886 172.351 283.457 171.765 284.205 171.765C284.952 171.765 285.538 172.351 285.538 173.406C285.538 174.462 284.967 175.033 284.205 175.033C283.443 175.033 282.886 174.447 282.886 173.406ZM284.938 173.406C284.938 172.63 284.644 172.278 284.205 172.278C283.765 172.278 283.472 172.63 283.472 173.406C283.472 174.183 283.78 174.52 284.205 174.52C284.63 174.52 284.952 174.168 284.952 173.406H284.938Z" fill="#FD3E72"/>
<path d="M285.946 173.406C285.946 172.351 286.518 171.765 287.265 171.765C288.013 171.765 288.599 172.351 288.599 173.406C288.599 174.462 288.027 175.033 287.265 175.033C286.503 175.033 285.946 174.447 285.946 173.406ZM288.013 173.406C288.013 172.63 287.705 172.278 287.265 172.278C286.826 172.278 286.532 172.63 286.532 173.406C286.532 174.183 286.84 174.52 287.265 174.52C287.69 174.52 288.013 174.168 288.013 173.406Z" fill="#FD3E72"/>
<path d="M293.727 173.202H292.628V170.036H295.793V171.135H293.727V173.202Z" fill="#FD3E72"/>
<path d="M295.793 177.333H292.628V174.183H293.727V176.234H295.793V177.333Z" fill="#FD3E72"/>
<path d="M300.852 177.334H297.686V176.235H299.752V174.169H300.852V177.334Z" fill="#FD3E72"/>
<path d="M300.852 173.202H299.752V171.135H297.686V170.036H300.852V173.202Z" fill="#FD3E72"/>
<path d="M259.829 22.9791C260.384 22.8712 260.949 22.8221 261.515 22.8326C262.643 22.8326 264.328 22.7154 266.38 22.6714H266.761V22.9791C266.761 25.4411 266.761 28.2548 266.834 31.3175V32.2408L266.175 31.5813L265.296 30.702L263.068 28.4746H263.581L260.108 31.552L259.536 32.0503V31.3029C259.536 28.7383 259.639 26.5988 259.698 25.1626C259.686 24.426 259.745 23.6899 259.873 22.9645C259.873 22.9645 259.961 23.9024 260.035 25.3678C260.108 26.8333 260.166 28.8849 260.196 31.2296L259.639 30.9805L263.068 27.8444L263.332 27.6099L263.581 27.8591L265.823 30.0866L266.688 30.9512L266.043 31.2296C266.043 28.1668 266.043 25.3678 266.043 22.8912L266.351 23.1989C264.431 23.1989 262.834 23.0964 261.676 23.0377C261.06 23.0614 260.443 23.0418 259.829 22.9791Z" fill="#FD3E72"/>
<path d="M283.938 24.0163C283.431 24.7228 282.888 25.4027 282.311 26.0533C281.227 27.3722 279.615 29.3505 277.651 31.5487L277.021 32.2668V31.3142C277.021 30.01 277.021 28.6178 277.021 27.1817V26.7713L277.138 27.0498L274.207 24.2214L273.563 23.5913H274.457C277.387 23.5913 279.791 23.7525 281.432 23.8404C283.073 23.9284 284.011 23.9723 283.938 24.0016C283.865 24.0309 282.795 24.0016 281.095 24.1335C279.395 24.2654 277.124 24.3094 274.457 24.3094L274.706 23.6939L277.637 26.4782L277.754 26.5955V27.167C277.754 28.6325 277.754 29.9953 277.754 31.2996L277.124 31.0504C278.97 29.0281 280.641 27.3429 281.872 26.0826C283.103 24.8223 283.865 24.0602 283.938 24.0163Z" fill="#FD3E72"/>
<path d="M283.94 24.0178C284.028 24.223 282.621 24.985 280.804 25.7471C279.749 26.3225 278.586 26.6719 277.389 26.7729C279.349 25.3934 281.583 24.4535 283.94 24.0178Z" fill="#FD3E72"/>
<path d="M295.693 22.978C296.077 22.8726 296.482 22.8726 296.866 22.978C297.94 23.1836 298.907 23.7655 299.591 24.6193C300.111 25.2663 300.456 26.0355 300.595 26.8538C300.733 27.672 300.66 28.5121 300.383 29.2941C300.043 30.2666 299.409 31.1093 298.568 31.7056C297.728 32.3018 296.723 32.6222 295.693 32.6222C294.663 32.6222 293.658 32.3018 292.818 31.7056C291.978 31.1093 291.344 30.2666 291.004 29.2941C290.727 28.5128 290.653 27.6741 290.789 26.8564C290.924 26.0388 291.266 25.269 291.78 24.6193C292.468 23.7565 293.439 23.1647 294.521 22.9487C294.904 22.8433 295.309 22.8433 295.693 22.9487C295.693 23.022 295.283 23.0366 294.594 23.2418C293.636 23.5376 292.802 24.14 292.22 24.9563C291.749 25.5983 291.465 26.3583 291.399 27.152C291.334 27.9457 291.49 28.7419 291.85 29.4524C292.209 30.1628 292.759 30.7597 293.438 31.1766C294.116 31.5935 294.897 31.8143 295.693 31.8143C296.49 31.8143 297.27 31.5935 297.949 31.1766C298.627 30.7597 299.177 30.1628 299.537 29.4524C299.897 28.7419 300.052 27.9457 299.987 27.152C299.922 26.3583 299.638 25.5983 299.166 24.9563C298.584 24.14 297.75 23.5376 296.792 23.2418C296.074 23.0659 295.693 23.0513 295.693 22.978Z" fill="#FD3E72"/>
<path d="M297.274 29.6019C297.127 29.7484 296.116 28.9864 295.017 27.9019L294.914 27.7847V27.5502C294.914 25.9969 295.075 24.7366 295.295 24.7366C295.515 24.7366 295.676 25.9969 295.676 27.5502L295.559 27.2865C296.658 28.4442 297.42 29.4553 297.274 29.6019Z" fill="#FD3E72"/>
<path d="M182.951 29.2936C182.951 29.5134 150.961 29.6746 111.511 29.6746C72.0609 29.6746 40.0555 29.5134 40.0555 29.2936C40.0555 29.0738 72.0462 28.9126 111.511 28.9126C150.975 28.9126 182.951 29.0885 182.951 29.2936Z" fill="#FD3E72"/>
<path d="M27.6769 34.9365C30.7929 34.9365 33.3189 32.4106 33.3189 29.2946C33.3189 26.1786 30.7929 23.6526 27.6769 23.6526C24.5609 23.6526 22.0349 26.1786 22.0349 29.2946C22.0349 32.4106 24.5609 34.9365 27.6769 34.9365Z" fill="#FD3E72"/>
<path d="M240.155 68.2171L200.147 53.8743C202.766 85.0812 205.31 117.066 197.014 147.261C196.115 150.53 195.323 154.621 197.92 156.795C199.475 158.094 201.694 158.139 203.725 158.078C207.872 157.953 212.011 157.648 216.143 157.165C220.536 156.659 225.201 155.799 228.349 152.674C230.968 150.047 232.025 146.287 232.878 142.686C238.856 118.34 241.307 93.2605 240.155 68.2171Z" fill="#5B5863"/>
<path d="M174.652 197.03L179.393 190.817L182.563 174.21L189.78 133.786C189.78 133.786 192.958 118.582 202.764 114.227L204.84 154.613L184.836 205.364L174.652 197.03Z" fill="#FD3E72"/>
<path d="M217.653 103.235L211.758 110.21L202.767 114.211C202.767 114.211 182.974 152.016 182.476 152.371C181.977 152.725 178.769 163.505 180.535 172.692C182.302 181.879 183.555 193.897 183.359 202.548C183.163 211.199 171.847 239.658 171.152 246.195C170.458 252.732 168.133 277.998 168.133 277.998L268.14 277.244C267.233 270.892 265.993 264.593 264.426 258.371C264.426 258.371 264.071 233.279 260.365 228.508C260.365 228.508 263.188 221.971 262.841 218.264C262.493 214.558 277.682 194.765 280.686 187.873C283.69 180.981 295.527 165.226 295.701 153.948C295.874 142.67 294.108 133.098 288.454 125.323C282.8 117.548 272.556 112.248 268.313 109.425L260.01 98.8191L217.653 103.235Z" fill="url(#paint2_linear)"/>
<path d="M181.999 278C181.989 277.9 181.989 277.798 181.999 277.698C181.999 277.479 181.999 277.185 181.999 276.807C181.999 276.007 182.082 274.867 182.142 273.403C182.271 270.429 182.444 266.156 182.663 260.887C182.754 258.245 182.852 255.346 182.89 252.236C182.89 250.726 182.89 249.08 182.89 247.427C182.858 245.707 183.028 243.99 183.395 242.309C184.245 238.741 185.337 235.235 186.664 231.816C187.344 230.014 187.921 228.174 188.393 226.306C188.58 225.343 188.709 224.37 188.778 223.392L189.072 220.372C189.48 216.356 189.872 212.438 190.25 208.649C190.446 206.754 190.627 204.874 190.816 203.07C191.005 201.266 191.231 199.469 191.284 197.726C191.707 191.556 192.547 185.423 193.798 179.367C194.817 174.173 195.753 169.991 196.357 167.092C196.659 165.666 196.893 164.548 197.051 163.763L197.24 162.895C197.257 162.795 197.282 162.697 197.315 162.601C197.311 162.702 197.299 162.803 197.278 162.903C197.24 163.122 197.195 163.409 197.134 163.778C196.983 164.533 196.772 165.688 196.508 167.13C195.949 170.036 195.058 174.218 194.069 179.42C192.856 185.489 192.044 191.632 191.639 197.809C191.593 199.56 191.344 201.334 191.178 203.161C191.012 204.988 190.816 206.845 190.627 208.739L189.457 220.47L189.163 223.49C189.089 224.483 188.956 225.472 188.763 226.449C188.293 228.334 187.71 230.189 187.019 232.005C185.691 235.407 184.597 238.895 183.743 242.445C183.379 244.096 183.204 245.782 183.222 247.472C183.275 249.141 183.267 250.749 183.222 252.304C183.169 255.414 183.056 258.343 182.95 260.955C182.723 266.239 182.482 270.519 182.308 273.471C182.21 274.935 182.135 276.075 182.082 276.875C182.052 277.248 182.029 277.542 182.014 277.758C182.013 277.839 182.008 277.92 181.999 278Z" fill="#DF2154"/>
<path d="M197.571 162.245C197.571 161.438 201.119 147.736 208.532 136.285C215.945 124.833 217.591 114.839 217.591 114.839L217.712 100.058L218.346 101.96L255.939 96.51L257.079 101.945L231.919 124.675C231.919 124.675 220.293 126.939 219.84 127.256C219.388 127.573 197.571 162.245 197.571 162.245Z" fill="#FFA68A"/>
<path d="M268.311 109.441C268.217 109.625 268.106 109.799 267.979 109.962C267.753 110.302 267.413 110.8 266.968 111.427C266.077 112.687 264.748 114.484 263.065 116.673C261.382 118.862 259.336 121.437 257.132 124.343C256.029 125.8 254.867 127.362 253.735 128.948C253.45 129.373 253.135 129.776 252.791 130.155C252.416 130.571 251.905 130.839 251.349 130.91C250.791 130.914 250.243 130.757 249.771 130.457C249.303 130.186 248.881 129.899 248.435 129.612L243.257 126.29C242.419 125.754 241.604 125.211 240.796 124.72C240.065 124.191 239.176 123.925 238.275 123.965C237.425 124.122 236.63 124.493 235.965 125.045C235.285 125.558 234.613 126.079 233.911 126.509C232.612 127.307 231.196 127.895 229.714 128.253C227.576 128.789 225.345 128.841 223.184 128.404C222.846 128.342 222.51 128.261 222.18 128.163C221.894 128.08 221.652 128.012 221.426 127.936C221.226 127.877 221.034 127.796 220.852 127.695C221.054 127.737 221.253 127.792 221.448 127.861C221.644 127.921 221.886 127.981 222.203 128.049C222.534 128.134 222.869 128.202 223.207 128.253C225.345 128.63 227.539 128.54 229.639 127.989C231.085 127.616 232.465 127.023 233.73 126.23C234.41 125.807 235.059 125.294 235.753 124.766C236.46 124.169 237.311 123.768 238.222 123.603C239.201 123.541 240.173 123.806 240.985 124.358C241.807 124.864 242.615 125.392 243.461 125.928L248.639 129.242C249.522 129.778 250.375 130.525 251.311 130.48C251.773 130.422 252.197 130.196 252.504 129.846C252.837 129.481 253.142 129.093 253.418 128.683C254.572 127.075 255.727 125.536 256.837 124.086C259.057 121.187 261.132 118.636 262.876 116.469C264.62 114.303 265.941 112.529 266.87 111.298L267.949 109.879C268.061 109.726 268.182 109.58 268.311 109.441Z" fill="#E92C5F"/>
<path d="M211.756 152.568C211.906 152.193 212.093 151.834 212.314 151.496C212.692 150.824 213.273 149.858 214.005 148.68C215.515 146.325 217.614 143.132 220.173 139.75C222.732 136.368 225.215 133.447 227.087 131.393C228.023 130.367 228.793 129.551 229.352 129C229.62 128.699 229.913 128.421 230.228 128.17C230.004 128.501 229.752 128.812 229.473 129.098C228.922 129.74 228.189 130.57 227.314 131.574C225.51 133.673 223.056 136.617 220.52 139.991C217.983 143.366 215.802 146.521 214.277 148.831C213.522 149.948 212.941 150.869 212.48 151.579C212.267 151.928 212.024 152.259 211.756 152.568Z" fill="#E92C5F"/>
<path d="M215.003 155.466H215.147L215.577 155.557L217.245 155.912C218.71 156.229 220.853 156.667 223.586 157.248C224.952 157.52 226.47 157.814 228.115 158.101C228.946 158.244 229.806 158.365 230.705 158.501C231.603 158.637 232.532 158.863 233.475 159.112C235.362 159.596 237.34 160.23 239.401 160.947C240.435 161.309 241.484 161.702 242.556 162.117C243.092 162.328 243.628 162.54 244.172 162.774L244.98 163.128L245.387 163.325L245.599 163.438L245.704 163.506L245.757 163.551C245.808 163.597 245.842 163.658 245.855 163.725V163.77L237.974 188.938C237.541 189.749 237.035 190.519 236.464 191.24C235.895 192.004 235.224 192.687 234.472 193.271C234.192 193.484 233.882 193.652 233.551 193.769L232.615 194.086L230.758 194.713L227.119 195.973L220.038 198.351L219.932 198.389L219.849 198.314L212.444 191.452L210.693 189.821C210.1 189.298 209.535 188.744 209.002 188.16C208.477 187.558 208.132 186.82 208.005 186.032C207.906 185.279 207.922 184.515 208.051 183.767C209.062 177.985 210.202 172.919 211.236 168.715C212.27 164.51 213.222 161.166 213.893 158.901L214.694 156.297L214.913 155.632C214.934 155.554 214.965 155.478 215.003 155.406C215.003 155.406 215.003 155.489 214.95 155.64C214.897 155.791 214.837 156.033 214.762 156.319L214.007 158.931C213.373 161.196 212.459 164.54 211.455 168.745C210.451 172.95 209.341 178.022 208.368 183.782C208.243 184.498 208.228 185.228 208.322 185.949C208.44 186.677 208.765 187.355 209.258 187.904C209.779 188.475 210.331 189.017 210.912 189.527L212.671 191.218L220.083 198.064H219.895L226.968 195.672L230.637 194.434L232.494 193.807L233.43 193.49C233.72 193.384 233.993 193.233 234.238 193.045C234.96 192.48 235.604 191.822 236.155 191.089C236.7 190.377 237.182 189.62 237.597 188.825L245.531 163.672L245.674 163.725C241.687 162.01 237.592 160.557 233.415 159.377C232.479 159.128 231.558 158.916 230.675 158.758C229.791 158.599 228.908 158.486 228.078 158.335C226.425 158.041 224.907 157.731 223.548 157.444C220.816 156.863 218.679 156.365 217.222 156.017L215.562 155.61L215.139 155.497C215.048 155.489 214.996 155.474 215.003 155.466Z" fill="#DF2154"/>
<g opacity="0.3">
<path opacity="0.3" d="M215.823 242.647C207.082 241.326 194.936 237.68 184.971 235.597C181.416 234.842 178.336 233.997 174.78 233.257L174.169 235.227C184.265 237.405 194.035 240.89 203.232 245.592C208.758 248.422 214.238 251.729 220.383 252.627C227.26 253.639 234.167 251.525 240.765 249.434C244.539 248.249 248.427 246.958 251.092 244.089C252.971 242.059 254.043 239.432 255.032 236.85C257.634 230.021 259.911 223.076 261.864 216.015C249.997 229.346 233.465 245.32 215.823 242.647Z" fill="black"/>
</g>
<path d="M257.042 156.614L231.92 202.813C231.92 202.813 226.092 203.983 226.092 210.151C226.092 210.151 224.062 208.528 221.11 210.287C219.215 211.411 213.878 212.914 210.927 214.491C210.221 214.866 209.664 215.471 209.348 216.205C209.032 216.939 208.977 217.76 209.19 218.53L216.988 246.861C216.988 246.861 226.462 246.861 227.3 244.513L240.292 240.444C240.292 240.444 248.678 238.247 251.924 232.646C255.17 227.045 274.51 198.239 274.51 198.239" fill="url(#paint3_linear)"/>
<path d="M274.508 198.238C274.508 198.238 274.455 198.344 274.334 198.533C274.213 198.721 274.025 199.001 273.798 199.363L271.684 202.571L263.773 214.529C262.09 217.095 260.233 219.918 258.232 222.983C256.232 226.048 254.081 229.339 251.922 232.91C250.742 234.745 249.166 236.293 247.309 237.439C245.394 238.67 243.329 239.652 241.165 240.361L227.358 244.694L227.478 244.573C227.273 245.012 226.924 245.369 226.49 245.585C226.086 245.799 225.661 245.971 225.221 246.098C224.348 246.36 223.454 246.55 222.549 246.664C220.705 246.914 218.847 247.045 216.986 247.057H216.835V246.913L212.434 230.925C211.638 228.051 210.856 225.205 210.086 222.387C209.708 220.968 209.331 219.609 208.954 218.175C208.836 217.425 208.95 216.658 209.281 215.975C209.611 215.293 210.142 214.727 210.803 214.355C213.331 213.174 215.922 212.13 218.563 211.23C219.197 210.981 219.824 210.731 220.428 210.475C221.019 210.14 221.632 209.845 222.262 209.592C222.914 209.35 223.613 209.264 224.304 209.341C224.995 209.419 225.658 209.657 226.24 210.037L225.938 210.18C225.906 208.399 226.505 206.664 227.629 205.281C228.751 203.981 230.254 203.067 231.925 202.669L231.804 202.76C239.308 189.021 245.611 177.486 250.034 169.371L255.205 159.966C255.809 158.886 256.27 158.063 256.587 157.482L256.949 156.855C256.986 156.782 257.029 156.711 257.077 156.644C257.077 156.644 257.077 156.72 256.972 156.863L256.632 157.512C256.33 158.093 255.877 158.931 255.304 160.018C254.118 162.215 252.397 165.416 250.223 169.47L232.106 202.926V202.994H232.023C230.432 203.381 229.002 204.254 227.931 205.493C226.864 206.809 226.299 208.463 226.339 210.158V210.513L226.044 210.301C225.511 209.961 224.906 209.75 224.277 209.684C223.648 209.619 223.013 209.701 222.421 209.924C221.806 210.173 221.208 210.463 220.632 210.792C220.013 211.086 219.379 211.343 218.737 211.592C216.113 212.488 213.54 213.526 211.03 214.702C210.439 215.036 209.964 215.543 209.669 216.154C209.373 216.765 209.271 217.451 209.376 218.122C209.701 219.473 210.131 220.892 210.501 222.289C211.271 225.102 212.054 227.95 212.849 230.834C214.359 236.307 215.831 241.674 217.242 246.815L217.061 246.672C218.904 246.665 220.745 246.539 222.572 246.294C223.458 246.178 224.333 245.994 225.191 245.743C225.602 245.624 225.999 245.462 226.376 245.26C226.733 245.089 227.022 244.805 227.199 244.452L227.237 244.369H227.32L241.127 240.066C243.253 239.367 245.283 238.401 247.166 237.19C248.983 236.074 250.53 234.568 251.695 232.782C253.869 229.211 256.036 225.927 258.036 222.862L263.622 214.43L271.549 202.466L273.708 199.287L274.274 198.472C274.432 198.291 274.508 198.238 274.508 198.238Z" fill="#DF2154"/>
<path d="M245.166 220.448C244.937 220.372 244.719 220.268 244.516 220.138C244.101 219.919 243.527 219.572 242.825 219.119C241.019 217.915 239.335 216.537 237.798 215.005C236.262 213.471 234.884 211.787 233.684 209.978C233.231 209.283 232.884 208.709 232.665 208.294C232.532 208.091 232.43 207.87 232.363 207.637C232.416 207.637 232.952 208.483 233.918 209.819C235.171 211.565 236.562 213.209 238.077 214.733C239.603 216.244 241.244 217.635 242.984 218.893C244.328 219.851 245.203 220.387 245.166 220.448Z" fill="#DF2154"/>
<path d="M245.998 205.954C245.302 206.169 244.582 206.299 243.854 206.339C240.345 206.7 236.8 206.324 233.444 205.236C232.74 205.046 232.063 204.767 231.429 204.406C231.429 204.353 232.237 204.625 233.527 204.972C235.2 205.431 236.906 205.754 238.63 205.938C240.358 206.117 242.097 206.16 243.832 206.067C244.551 205.987 245.274 205.949 245.998 205.954Z" fill="#DF2154"/>
<path d="M217.652 103.237L217.554 103.395L217.252 103.833C216.988 104.226 216.558 104.777 215.991 105.471C214.852 106.868 213.123 108.815 210.941 111.208C209.862 112.416 208.677 113.73 207.393 115.149C206.11 116.568 204.781 118.123 203.506 119.859C200.897 123.783 199.226 128.254 198.622 132.926L198.252 132.821C198.86 131.665 199.57 130.567 200.373 129.537C200.78 128.986 201.188 128.435 201.566 127.876C201.754 127.597 201.943 127.317 202.109 127.031L202.358 126.6L202.479 126.381L202.532 126.268V126.215L202.577 126.147C202.602 126.118 202.633 126.096 202.669 126.083C202.705 126.069 202.743 126.066 202.781 126.072C202.816 126.078 202.849 126.092 202.878 126.113C202.907 126.134 202.93 126.161 202.947 126.193V126.238V126.298L202.992 126.419L203.083 126.661C203.15 126.817 203.203 126.978 203.241 127.144C203.34 127.47 203.413 127.803 203.46 128.14C203.567 128.799 203.61 129.466 203.589 130.133C203.411 132.635 202.997 135.115 202.351 137.539C201.467 142.249 199.852 146.28 198.893 149.745C198.051 152.462 197.581 155.281 197.497 158.124C197.486 158.896 197.521 159.667 197.602 160.434C197.602 160.676 197.655 160.88 197.67 161.031C197.682 161.101 197.682 161.172 197.67 161.242C197.44 160.219 197.326 159.173 197.331 158.124C197.358 155.259 197.792 152.412 198.622 149.67C199.55 146.174 201.128 142.121 201.988 137.463C202.618 135.06 203.023 132.604 203.196 130.126C203.214 129.481 203.171 128.837 203.068 128.201C203.023 127.879 202.952 127.56 202.856 127.25C202.824 127.092 202.776 126.938 202.713 126.789L202.622 126.563L202.585 126.449V126.389C202.645 126.389 202.434 126.442 202.728 126.313C202.6 126.246 202.909 126.397 202.871 126.389V126.442L202.856 126.525L202.736 126.759L202.479 127.204C202.298 127.499 202.117 127.786 201.92 128.065C201.535 128.631 201.128 129.182 200.72 129.741C199.933 130.747 199.236 131.821 198.637 132.949L198.078 134.127L198.267 132.843C198.879 128.109 200.588 123.583 203.256 119.625C204.547 117.874 205.914 116.341 207.189 114.915C208.465 113.488 209.681 112.19 210.783 110.997C212.987 108.627 214.746 106.709 215.908 105.35C216.49 104.663 216.935 104.135 217.222 103.758L217.554 103.342C217.599 103.274 217.645 103.229 217.652 103.237Z" fill="#E92C5F"/>
<path d="M219.213 210.973C219.312 211.046 219.401 211.133 219.477 211.23L220.179 212.022C220.555 212.434 220.905 212.868 221.229 213.321C221.614 213.849 222.089 214.431 222.519 215.125C222.95 215.82 223.463 216.574 223.916 217.427C224.369 218.28 224.845 219.194 225.32 220.175C226.285 222.331 227.063 224.566 227.645 226.856C228.187 229.155 228.533 231.496 228.679 233.854C228.679 234.941 228.762 235.975 228.679 236.941C228.666 237.839 228.605 238.737 228.498 239.629C228.445 240.451 228.294 241.184 228.196 241.825C228.117 242.377 228.006 242.924 227.864 243.463L227.607 244.49C227.587 244.613 227.549 244.733 227.494 244.845C227.488 244.72 227.501 244.596 227.532 244.475C227.585 244.188 227.645 243.848 227.713 243.433C227.781 243.018 227.909 242.437 227.977 241.788C228.045 241.138 228.189 240.421 228.226 239.598C228.264 238.776 228.362 237.9 228.355 236.934C228.347 235.967 228.355 234.956 228.294 233.876C228.13 231.544 227.776 229.229 227.237 226.954C226.666 224.686 225.909 222.469 224.973 220.326C224.512 219.352 224.097 218.416 223.614 217.586C223.131 216.756 222.708 215.97 222.27 215.284C221.833 214.597 221.402 213.985 221.04 213.457C220.678 212.928 220.33 212.475 220.043 212.121L219.402 211.283C219.327 211.187 219.264 211.083 219.213 210.973Z" fill="#DF2154"/>
<path d="M243.182 169.856C242.791 169.763 242.409 169.634 242.042 169.471L238.969 168.346C236.365 167.402 232.742 166.202 228.665 165.123C224.589 164.043 220.837 163.281 218.097 162.805L214.866 162.262C214.466 162.216 214.07 162.14 213.681 162.035C214.085 162.023 214.489 162.048 214.889 162.111C215.643 162.186 216.768 162.33 218.142 162.533C221.702 163.08 225.229 163.815 228.71 164.738C232.227 165.668 235.692 166.784 239.09 168.082C240.381 168.588 241.415 169.01 242.11 169.335C242.481 169.477 242.84 169.652 243.182 169.856Z" fill="#DF2154"/>
<g opacity="0.3">
<path opacity="0.3" d="M239.09 223.097C238.537 222.077 237.818 221.155 236.962 220.372L226.122 209.335V210.151C228.53 211.789 229.043 215.11 229.737 217.941C230.432 220.772 231.036 223.799 233.006 225.95C233.784 226.856 234.851 227.467 236.026 227.679C236.608 227.779 237.206 227.714 237.753 227.491C238.3 227.268 238.774 226.897 239.121 226.418C239.391 225.906 239.53 225.334 239.524 224.754C239.519 224.174 239.37 223.605 239.09 223.097Z" fill="black"/>
</g>
<g opacity="0.3">
<path opacity="0.3" d="M224.196 196.917C223.041 197.461 221.755 197.663 220.489 197.499C219.417 197.149 218.453 196.53 217.689 195.702L208.668 187.481C211.249 191.256 213.318 195.121 215.899 198.918C216.594 199.945 217.364 201.024 218.526 201.447C219.689 201.87 221.093 201.5 222.301 201.039C226.64 199.37 230.565 196.779 233.805 193.445L224.196 196.917Z" fill="black"/>
</g>
<g opacity="0.3">
<path opacity="0.3" d="M212.865 150.295C221.297 146.257 224.332 135.039 232.704 130.865C235.116 129.697 237.796 129.195 240.468 129.41C243.139 129.625 245.705 130.549 247.899 132.088C249.349 133.129 250.957 134.518 252.678 134.028C253.976 133.658 254.724 132.337 255.335 131.136C257.429 127.04 259.522 122.938 261.616 118.832L253.38 128.54C252.854 129.298 252.108 129.877 251.244 130.2C249.583 130.631 248.383 128.766 246.85 128.004C242.079 125.626 238.728 122.629 236.07 124.637C236.07 124.637 231.428 127.83 229.571 128.17L212.865 149.978" fill="black"/>
</g>
<g opacity="0.3">
<path opacity="0.3" d="M198.503 158.508C197.808 154.794 198.639 150.687 200.171 147.238C201.704 143.788 203.629 140.444 204.572 136.805C205.327 133.876 205.433 130.818 204.882 127.845C204.617 126.456 204.217 125.044 204.519 123.663C204.753 122.788 205.136 121.961 205.652 121.217C207.559 118.163 209.764 115.306 212.234 112.687L217.518 104.76C217.518 104.76 217.745 113.97 217.571 114.838C217.009 117.566 216.252 120.25 215.307 122.87C213.753 127.147 211.749 131.246 209.328 135.099C206.478 139.534 203.997 144.195 201.907 149.034L198.503 158.508Z" fill="black"/>
</g>
<path d="M231.92 124.675C221.223 122.154 217.94 116.832 217.811 107.426L217.653 95.4533C217.653 95.4533 205.809 94.8419 203.046 77.2003C201.672 68.4285 200.479 54.2518 201.249 42.4756C201.936 31.9072 212.927 13.2465 223.458 14.3863L252.4 28.4649C253.944 28.6327 255.369 29.3731 256.393 30.5401C257.417 31.7071 257.967 33.2157 257.933 34.7682L255.669 103.138" fill="#FFA68A"/>
<path d="M217.651 95.6272C225.951 95.7734 234.128 93.6122 241.272 89.3843C241.272 89.3843 235.316 101.81 217.651 100.104V95.6272Z" fill="#F1987C"/>
<path d="M283.258 108.293C279.415 102.081 276.275 86.5979 274.954 78.7547C273.633 70.9114 269.458 45.7436 262.77 32.518C256.082 19.2925 248.208 13.9479 240.486 11.8644C237.557 10.9931 234.452 10.891 231.472 11.568C228.492 12.2449 225.736 13.6781 223.471 15.7294C219.983 18.8471 218.791 27.9359 218.791 27.9359C218.791 27.9359 237.429 32.0802 243.702 42.709C250.911 54.9154 252.662 61.0527 252.662 61.0527L254.995 67.7334C254.995 67.7334 252.806 80.657 251.975 87.0509C251.145 93.4447 252.451 99.3706 257.712 101.96L268.281 109.441C268.281 109.441 282.11 118.839 282.744 119.322C285.696 121.587 291.486 130.17 291.486 130.17C291.486 130.17 291.116 120.998 283.258 108.293Z" fill="#5B5863"/>
<path d="M219.005 28.0062C219.005 28.0062 207.597 26.8786 203.656 38.9568C201.882 44.3995 200.516 60.0935 200.516 60.0935C200.516 60.0935 198.961 47.6078 199.535 40.4665C200.108 33.3253 203.664 24.3271 209.129 19.3298C214.413 14.4759 219.692 12.1536 229.166 12.7349C229.166 12.7349 224.742 14.2446 222.311 17.8605C221.096 19.6949 220.568 21.2273 219.005 28.0062Z" fill="#5B5863"/>
<path d="M252.527 61.9816C252.715 58.0788 256.965 55.482 260.347 57.4523C262.204 58.5318 263.631 60.6907 263.457 64.8275C263.005 75.879 252.006 73.1312 251.998 72.8217C251.998 72.6028 252.293 66.5562 252.527 61.9816Z" fill="#FFA68A"/>
<path d="M255.548 68.7524C255.601 68.7524 255.736 68.8958 256.054 69.0619C256.502 69.276 257.017 69.3058 257.488 69.145C258.673 68.7675 259.752 66.9558 259.873 64.9704C259.938 64.024 259.791 63.0749 259.443 62.1925C259.351 61.8484 259.177 61.5316 258.937 61.2689C258.696 61.0061 258.396 60.805 258.062 60.6827C257.842 60.6141 257.605 60.625 257.393 60.7133C257.18 60.8016 257.005 60.9618 256.899 61.1658C256.74 61.4678 256.801 61.6867 256.74 61.7093C256.68 61.732 256.514 61.5131 256.62 61.0601C256.692 60.7882 256.854 60.5487 257.08 60.3807C257.397 60.1692 257.783 60.0856 258.16 60.1467C258.609 60.2569 259.023 60.4797 259.362 60.794C259.702 61.1083 259.955 61.5038 260.1 61.9433C260.53 62.9179 260.714 63.9834 260.636 65.0459C260.477 67.2728 259.254 69.311 257.616 69.7036C257.317 69.778 257.005 69.784 256.703 69.7213C256.401 69.6586 256.117 69.5287 255.872 69.3412C255.555 69.0242 255.51 68.7751 255.548 68.7524Z" fill="#F1987C"/>
<path d="M236.07 11.1704C236.07 11.2534 234.56 11.1704 232.152 11.5252C230.754 11.7151 229.394 12.1227 228.121 12.733C226.582 13.5111 225.208 14.5801 224.075 15.8808C221.971 18.235 220.439 21.0432 219.598 24.0864C218.957 26.4266 218.881 27.9439 218.798 27.9363C218.777 27.5811 218.79 27.2248 218.836 26.872C218.931 25.9103 219.095 24.9566 219.327 24.0185C220.107 20.9 221.636 18.0188 223.78 15.6242C225.879 13.1486 228.855 11.5822 232.084 11.2534C233.047 11.1462 234.015 11.0983 234.983 11.11C235.346 11.0932 235.711 11.1134 236.07 11.1704Z" fill="#455A64"/>
<path d="M262.747 69.9681C262.738 69.9081 262.738 69.847 262.747 69.787L262.838 69.2736C262.883 69.0396 262.944 68.7603 263.004 68.4357C263.065 68.1111 263.11 67.6808 263.17 67.2883C263.486 64.8351 263.453 62.3495 263.072 59.9055C262.518 56.2832 261.217 52.8155 259.252 49.7221C256.747 45.995 253.43 42.8828 249.552 40.6182C247.567 39.4119 245.507 38.3327 243.385 37.3873C241.339 36.4437 239.286 35.7115 237.346 34.8509C234.019 33.294 230.816 31.4845 227.766 29.4384C225.147 27.7022 223.109 26.1773 221.727 25.0978C221.04 24.5543 220.504 24.1316 220.157 23.8296L219.757 23.4899C219.666 23.4069 219.621 23.3691 219.628 23.3616L219.779 23.4597L220.202 23.7692L221.825 24.977C223.237 26.0188 225.298 27.5059 227.925 29.2044C230.996 31.2037 234.214 32.97 237.549 34.4886C239.429 35.334 241.497 36.0663 243.589 37.0023C245.726 37.9526 247.801 39.0368 249.801 40.2483C253.734 42.5432 257.091 45.7061 259.615 49.4957C261.591 52.6368 262.878 56.1619 263.389 59.8376C263.757 62.3025 263.757 64.8083 263.389 67.2732L263.185 68.4282C263.11 68.7452 263.042 69.0245 262.989 69.2585L262.853 69.7719C262.778 69.9077 262.755 69.9757 262.747 69.9681Z" fill="#8F8E93"/>
<path d="M265.308 65.8014C265.303 65.7411 265.303 65.6805 265.308 65.6203C265.308 65.4768 265.308 65.3032 265.308 65.0918C265.308 64.6238 265.361 63.9444 265.308 63.0612C265.249 56.8787 263.834 50.7845 261.164 45.2082C259.21 41.1452 256.604 37.4297 253.449 34.2095C250.233 31.0465 246.596 28.3435 242.639 26.1775C239.031 24.1092 235.626 22.5164 232.826 21.1349C230.025 19.7535 227.7 18.6362 226.137 17.8059C225.382 17.4058 224.763 17.051 224.356 16.8396L223.895 16.5754C223.841 16.547 223.79 16.5114 223.744 16.4697C223.744 16.4697 223.805 16.4697 223.918 16.5377L224.394 16.7641L226.205 17.67C227.783 18.4249 230.093 19.5497 232.946 20.8783C235.8 22.2069 239.212 23.8072 242.851 25.8605C246.846 28.0268 250.518 30.7432 253.759 33.9302C256.94 37.1858 259.564 40.9424 261.526 45.0497C263.102 48.4115 264.234 51.9641 264.893 55.618C265.327 58.0771 265.527 60.5719 265.489 63.0687C265.489 63.952 265.406 64.6389 265.384 65.0994C265.384 65.3107 265.346 65.4844 265.338 65.6278C265.336 65.6867 265.326 65.7451 265.308 65.8014Z" fill="#8F8E93"/>
<path d="M264.982 107.087C264.913 106.984 264.857 106.872 264.816 106.755L264.401 105.773C264.22 105.343 264.009 104.815 263.812 104.188C263.616 103.561 263.352 102.852 263.156 102.044C263.05 101.636 262.937 101.221 262.823 100.783C262.71 100.346 262.627 99.8776 262.522 99.402C262.295 98.4433 262.159 97.4091 261.978 96.3296C261.67 93.9658 261.491 91.5869 261.442 89.2035C261.406 84.8793 261.62 80.5567 262.084 76.2572C262.257 74.6116 262.408 73.283 262.529 72.362C262.589 71.9393 262.635 71.6072 262.672 71.3052C262.686 71.1798 262.711 71.0559 262.748 70.9353C262.765 71.0605 262.765 71.1875 262.748 71.3127L262.672 72.3771C262.589 73.3585 262.484 74.6418 262.355 76.2874C262.099 79.5863 261.744 84.1533 261.827 89.196C261.874 91.5634 262.043 93.9267 262.333 96.2768C262.499 97.3562 262.627 98.3904 262.831 99.2963C262.929 99.7719 263.005 100.232 263.11 100.678L263.42 101.931C263.593 102.739 263.835 103.441 264.016 104.082C264.197 104.724 264.379 105.245 264.537 105.683C264.696 106.12 264.786 106.438 264.884 106.687C264.941 106.813 264.974 106.948 264.982 107.087Z" fill="#777381"/>
<path d="M125.238 208.489C125.238 208.489 137.241 223.889 141.544 225.097C145.847 226.305 162.145 230.343 162.145 230.343L215.628 242.701L209.333 219.775L158.68 219.088L125.238 208.489Z" fill="#FFA68A"/>
<path d="M56.4684 130.072C60.4768 140.014 80.6775 185.495 85.3578 196.026C85.662 196.712 86.1088 197.325 86.6685 197.825C87.2282 198.325 87.888 198.7 88.6038 198.925L152.18 219.11L215.258 223.821V221.745L164.266 206.292L148.157 204.405L124.106 144.769C123.564 143.425 122.691 142.24 121.568 141.324C120.444 140.408 119.108 139.791 117.682 139.53L57.729 128.539C57.5303 128.504 57.3258 128.523 57.1366 128.593C56.9473 128.663 56.78 128.782 56.6518 128.938C56.5236 129.094 56.4391 129.281 56.4068 129.48C56.3746 129.679 56.3959 129.883 56.4684 130.072Z" fill="#455A64"/>
<path d="M215.26 221.746H215.057L214.475 221.701L212.211 221.497L203.945 220.666L191.693 219.376L176.678 217.866C171.349 217.337 166.268 216.937 161.641 216.673L155.066 216.266C154.559 216.234 154.054 216.168 153.556 216.069C153.295 216.022 153.041 215.941 152.801 215.828C152.557 215.708 152.357 215.516 152.228 215.277C151.832 214.436 151.484 213.574 151.186 212.695C149.955 209.441 148.921 206.792 148.249 204.927C147.917 204.029 147.66 203.319 147.494 202.806L147.298 202.247C147.274 202.187 147.256 202.123 147.245 202.059C147.245 202.059 147.245 202.111 147.336 202.24L147.562 202.776C147.774 203.282 148.053 203.984 148.415 204.874L151.473 212.604C151.771 213.461 152.116 214.3 152.507 215.118C152.61 215.307 152.768 215.459 152.96 215.556C153.173 215.649 153.396 215.717 153.624 215.76C154.123 215.854 154.627 215.912 155.134 215.933C157.187 216.032 159.399 216.182 161.709 216.318C166.344 216.56 171.439 216.945 176.769 217.473L191.783 218.983L204.035 220.349L212.294 221.301L214.558 221.58L215.14 221.655L215.26 221.746Z" fill="#324752"/>
<path d="M182.664 209.561C182.664 209.561 183.577 203.567 182.664 202.382C181.751 201.197 175.326 195.422 175.326 195.422L171.68 191.995L163.641 190.765C163.166 190.691 162.68 190.76 162.244 190.961C161.807 191.163 161.44 191.488 161.188 191.897L160.365 193.218L158.183 192.856L156.258 190.07H150.898L146.935 194.35V200.133C146.935 200.133 147.471 201.741 148.868 200.563C150.264 199.385 150.378 196.124 150.378 196.124L152.755 198.313L150.227 206.028C150.227 206.028 152.001 207.644 153.291 206.028C154.582 204.413 156.394 202.065 156.394 202.065C156.394 202.065 158.538 207.848 162.176 209.561C165.815 211.275 174.602 212.837 176.429 212.43C178.255 212.022 182.317 212.769 182.664 209.561Z" fill="#FFA68A"/>
<path d="M169.943 196.412C169.943 196.412 169.943 196.503 169.8 196.631C169.624 196.813 169.406 196.951 169.166 197.031C168.79 197.16 168.393 197.217 167.996 197.197C167.535 197.197 167.03 197.084 166.486 197.031C165.909 196.931 165.314 197.024 164.795 197.295C164.259 197.733 163.784 198.241 163.383 198.805C162.857 199.458 162.206 200 161.469 200.4C160.732 200.8 159.923 201.051 159.088 201.138C158.398 201.189 157.706 201.062 157.078 200.77C156.45 200.478 155.908 200.03 155.502 199.469L155.419 199.349L155.525 199.243C156.934 197.759 158.234 196.175 159.413 194.502C160.281 193.257 160.749 192.494 160.794 192.517C160.729 192.723 160.635 192.918 160.515 193.098C160.319 193.46 160.017 193.989 159.601 194.608C158.49 196.34 157.227 197.969 155.827 199.477V199.243C156.198 199.75 156.692 200.154 157.263 200.418C157.833 200.682 158.461 200.797 159.088 200.753C160.668 200.581 162.117 199.798 163.127 198.571C163.557 197.986 164.065 197.463 164.637 197.016C165.223 196.717 165.893 196.624 166.539 196.752C167.105 196.827 167.603 196.948 168.049 196.978C168.421 197.011 168.796 196.98 169.158 196.888C169.45 196.784 169.717 196.622 169.943 196.412Z" fill="#F39476"/>
<path d="M176.253 209.244C176.208 209.244 176.162 208.905 175.921 208.339C175.569 207.541 175.101 206.801 174.532 206.142C173.837 205.281 172.879 204.345 172.01 203.122C171.547 202.473 171.209 201.744 171.014 200.971C170.812 200.131 170.825 199.253 171.052 198.419C171.276 197.593 171.67 196.822 172.207 196.155C172.462 195.814 172.792 195.537 173.173 195.347C173.371 195.257 173.587 195.214 173.804 195.221C174.021 195.227 174.234 195.283 174.426 195.385C175.063 195.78 175.52 196.409 175.702 197.136C175.891 197.713 176.145 198.268 176.457 198.789C176.899 199.537 177.478 200.195 178.163 200.729C178.646 201.114 178.955 201.28 178.918 201.311C178.606 201.207 178.313 201.054 178.05 200.858C177.307 200.348 176.675 199.693 176.193 198.933C175.877 198.402 175.624 197.837 175.438 197.249C175.264 196.621 174.86 196.082 174.305 195.74C174.159 195.667 173.997 195.629 173.834 195.629C173.67 195.629 173.508 195.667 173.362 195.74C173.038 195.909 172.759 196.152 172.546 196.449C172.048 197.081 171.683 197.808 171.475 198.585C171.258 199.359 171.24 200.174 171.422 200.956C171.608 201.683 171.922 202.37 172.35 202.986C173.173 204.187 174.109 205.145 174.788 206.044C175.353 206.737 175.797 207.521 176.102 208.361C176.182 208.591 176.238 208.829 176.268 209.071C176.273 209.187 176.268 209.244 176.253 209.244Z" fill="#F39476"/>
<path d="M155.827 194.464C155.393 194.469 154.977 194.639 154.665 194.94C153.995 195.779 153.507 196.748 153.231 197.786C152.793 198.994 152.415 200.096 152.106 200.881C151.973 201.323 151.766 201.739 151.494 202.111C151.557 201.659 151.673 201.215 151.842 200.79C152.083 199.983 152.423 198.865 152.861 197.65C153.153 196.56 153.711 195.559 154.484 194.736C154.752 194.496 155.097 194.359 155.457 194.351C155.714 194.321 155.835 194.404 155.827 194.464Z" fill="#F39476"/>
<path d="M156.401 194.328C156.401 194.374 156.069 194.442 155.518 194.374C154.775 194.269 154.077 193.957 153.502 193.475H153.789L153.299 193.906C152.408 194.745 151.431 195.489 150.385 196.125C151.177 195.191 152.068 194.346 153.042 193.604L153.54 193.181L153.668 193.075L153.789 193.181C154.316 193.63 154.938 193.953 155.608 194.124C155.878 194.17 156.143 194.238 156.401 194.328Z" fill="#F39476"/>
<path d="M164.907 208.135C165.022 207.651 165.216 207.19 165.48 206.768C166.045 205.717 166.729 204.734 167.518 203.839C168.307 202.941 169.193 202.133 170.161 201.431C170.544 201.111 170.977 200.856 171.444 200.677C170.174 201.746 168.962 202.883 167.813 204.081C166.769 205.377 165.799 206.73 164.907 208.135Z" fill="#F39476"/>
<path d="M119.584 140.482C119.628 140.541 119.661 140.608 119.682 140.679L119.938 141.268L120.874 143.532L124.241 151.911C127.065 159.022 130.937 168.806 135.225 179.608C139.513 190.41 143.31 200.232 146.095 207.35C147.461 210.891 148.571 213.759 149.356 215.775L150.217 218.039C150.307 218.288 150.375 218.485 150.436 218.643C150.464 218.711 150.485 218.782 150.496 218.855C150.458 218.792 150.425 218.726 150.398 218.658C150.333 218.507 150.25 218.311 150.149 218.069C149.922 217.526 149.605 216.763 149.213 215.805L145.838 207.426C143.023 200.315 139.143 190.531 134.855 179.721C130.567 168.911 126.778 159.105 123.985 151.987L120.731 143.562C120.361 142.581 120.074 141.811 119.863 141.26L119.644 140.664C119.621 140.604 119.601 140.544 119.584 140.482Z" fill="#324752"/>
<path d="M105.965 174.762C107.59 173.587 107.608 170.838 106.006 168.622C104.403 166.405 101.787 165.561 100.162 166.736C98.5366 167.911 98.5184 170.66 100.121 172.877C101.723 175.093 104.34 175.937 105.965 174.762Z" fill="#FD3E72"/>
<path d="M310.5 278H11.9996" stroke="#7D7D7E"/>
<defs>
<filter id="filter0_d" x="56.9475" y="35.0552" width="113.655" height="128.35" filterUnits="userSpaceOnUse" color-interpolation-filters="sRGB">
<feFlood flood-opacity="0" result="BackgroundImageFix"/>
<feColorMatrix in="SourceAlpha" type="matrix" values="0 0 0 0 0 0 0 0 0 0 0 0 0 0 0 0 0 0 127 0"/>
<feOffset dy="4"/>
<feGaussianBlur stdDeviation="4"/>
<feColorMatrix type="matrix" values="0 0 0 0 0 0 0 0 0 0 0 0 0 0 0 0 0 0 0.3 0"/>
<feBlend mode="normal" in2="BackgroundImageFix" result="effect1_dropShadow"/>
<feBlend mode="normal" in="SourceGraphic" in2="effect1_dropShadow" result="shape"/>
</filter>
<linearGradient id="paint0_linear" x1="126.022" y1="100.832" x2="54.5972" y2="51.6857" gradientUnits="userSpaceOnUse">
<stop stop-color="#EC2D61"/>
<stop offset="1" stop-color="#FD3E72"/>
</linearGradient>
<linearGradient id="paint1_linear" x1="135.084" y1="148.947" x2="65.8414" y2="89.9472" gradientUnits="userSpaceOnUse">
<stop stop-color="#D92657"/>
<stop offset="1" stop-color="#FD3E72"/>
</linearGradient>
<linearGradient id="paint2_linear" x1="231.922" y1="98.8191" x2="231.922" y2="277.998" gradientUnits="userSpaceOnUse">
<stop stop-color="#FD3E72"/>
<stop offset="1" stop-color="#F23267"/>
</linearGradient>
<linearGradient id="paint3_linear" x1="264.504" y1="179.122" x2="211.7" y2="241.244" gradientUnits="userSpaceOnUse">
<stop stop-color="#F93A6E"/>
<stop offset="1" stop-color="#FD3E72" stop-opacity="0"/>
</linearGradient>
</defs>
</svg>
