<svg width="86" height="54" viewBox="0 0 86 54" fill="none" xmlns="http://www.w3.org/2000/svg">
<path d="M30.8293 15.4798C30.8293 17.8273 30.8293 20.1748 30.8611 22.5203C30.8611 23.0575 30.7537 23.2544 30.1668 23.2525C22.9584 23.2326 15.7507 23.2326 8.54368 23.2525C8.01052 23.2525 7.80163 23.147 7.81356 22.5581C7.84937 20.4746 7.84937 18.3916 7.81356 16.3093C7.80163 15.6787 7.95282 15.4678 8.60933 15.4837C10.6584 15.5295 12.7096 15.4837 14.7587 15.5156C15.3833 15.5275 15.5345 15.3325 15.5246 14.7317C15.4861 12.6826 15.4861 10.6328 15.5246 8.58239C15.5246 7.95373 15.3893 7.72694 14.7129 7.74285C12.6638 7.78861 10.6127 7.74286 8.56358 7.77469C7.9389 7.78861 7.79367 7.60757 7.80362 7.00478C7.84142 4.92184 7.84738 2.82697 7.80362 0.755973C7.78969 0.115377 8.00256 0.00197976 8.58347 0.00595862C13.1791 0.0298318 17.7746 0.0298318 22.3702 0.00595862C23.0606 0.00595862 23.166 0.236732 23.166 0.847487C23.1421 5.44307 23.166 10.0387 23.1362 14.6342C23.1362 15.3166 23.2913 15.5355 24.0036 15.5215C26.2834 15.4758 28.5653 15.5056 30.8472 15.5076L30.8293 15.4798Z" fill="#FE0003"/>
<path d="M53.8868 7.76878C53.8868 5.45508 53.8987 3.14137 53.8609 0.829649C53.849 0.202978 53.9903 -0.00392273 54.6567 5.61306e-05C59.2191 0.031887 63.7802 0.031887 68.34 5.61306e-05C69.0184 5.61306e-05 69.2253 0.149263 69.2194 0.85949C69.1855 5.41927 69.2193 9.98103 69.1835 14.5408C69.1835 15.3246 69.3825 15.5355 70.1623 15.5176C72.1518 15.4599 74.1293 15.5176 76.1107 15.4878C76.6638 15.4878 76.9284 15.5455 76.9065 16.2159C76.8568 18.3287 76.8647 20.4454 76.9065 22.5602C76.9165 23.157 76.7076 23.2505 76.1704 23.2485C68.9647 23.2353 61.7596 23.2353 54.5553 23.2485C53.9783 23.2485 53.849 23.0655 53.857 22.5224C53.8888 20.1769 53.8769 17.8293 53.8808 15.4838L53.857 15.5057C56.1687 15.5057 58.4804 15.4778 60.7901 15.5057C61.387 15.5057 61.5859 15.3704 61.576 14.7417C61.5348 12.6621 61.5348 10.5818 61.576 8.5009C61.5879 7.87423 61.387 7.73099 60.7901 7.73894C58.4804 7.7668 56.1687 7.73894 53.857 7.73894L53.8868 7.76878Z" fill="#FE0003"/>
<path d="M53.8868 15.4878C51.607 15.4878 49.3291 15.5196 47.0512 15.4878C46.3728 15.4778 46.148 15.641 46.1659 16.3532C46.2136 18.3983 46.1659 20.4474 46.1977 22.4926C46.2096 23.1053 46.0405 23.2724 45.4278 23.2605C43.3826 23.2207 41.3362 23.2207 39.2884 23.2605C38.6617 23.2744 38.5185 23.0814 38.5284 22.4846C38.5642 20.4713 38.4986 18.454 38.5642 16.4427C38.5901 15.6231 38.3076 15.4739 37.5695 15.4878C35.3254 15.5276 33.0794 15.4878 30.8333 15.4878L30.8572 15.5097C30.8572 13.1601 30.8731 10.8126 30.8413 8.4631C30.8413 7.8981 31.0004 7.74293 31.5575 7.75287C33.4753 7.78669 35.3991 7.6912 37.3129 7.79465C38.3991 7.85235 38.608 7.47236 38.5682 6.48362C38.4906 4.5678 38.5682 2.64799 38.5344 0.728192C38.5245 0.165183 38.6896 0.00403893 39.2506 0.0119967C41.3335 0.0438275 43.4284 0.0478064 45.5034 0.0119967C46.1002 0.0119967 46.2057 0.21094 46.1977 0.752065C46.1698 2.835 46.2096 4.92987 46.1718 7.00286C46.1619 7.61361 46.329 7.79863 46.9437 7.78272C49.2594 7.7489 51.5751 7.78272 53.8908 7.78272L53.8669 7.76083V15.5196L53.8868 15.4878Z" fill="#FE0003"/>
<path d="M41.7453 52.7096C38.3891 54.4185 35.2558 54.4325 32.2259 52.5425C28.1873 50.0219 26.8305 44.6345 29.1164 40.4269C30.211 38.4008 32.0387 36.8699 34.2253 36.1476C36.4119 35.4253 38.7919 35.5662 40.8779 36.5415C41.5802 36.8698 41.7572 36.818 41.7294 36.0163C41.6777 34.4964 41.7553 32.9745 41.6976 31.4565C41.6697 30.7324 41.9244 30.5613 42.5948 30.6011C43.5192 30.6518 44.4457 30.6518 45.3701 30.6011C45.949 30.5732 46.1658 30.6966 46.1658 31.3451C46.142 38.6145 46.142 45.8845 46.1658 53.1553C46.1658 53.6606 46.0584 53.8516 45.5173 53.8257C44.5937 53.771 43.6676 53.771 42.744 53.8257C41.992 53.8814 41.5086 53.77 41.7453 52.7096ZM37.0881 49.441C38.319 49.4449 39.5011 48.9597 40.3743 48.0921C41.2476 47.2245 41.7404 46.0455 41.7443 44.8146C41.7483 43.5836 41.2631 42.4015 40.3954 41.5283C39.5278 40.655 38.3489 40.1623 37.1179 40.1583C34.6132 40.1304 32.4467 42.3129 32.4686 44.8434C32.4882 46.0604 32.9819 47.2218 33.8446 48.0804C34.7073 48.939 35.871 49.4272 37.0881 49.441Z" fill="#030303"/>
<path d="M59.0354 46.3047C57.0838 46.3047 55.1302 46.3385 53.1805 46.2908C52.3112 46.2689 52.4166 46.5693 52.7409 47.1243C53.9504 49.2073 56.473 50.2338 59.0434 49.2172C60.6349 48.5846 61.7629 48.9188 62.9665 49.8041C63.0227 49.8392 63.0812 49.8704 63.1416 49.8976C64.952 50.954 64.9699 50.9799 63.1794 52.2093C58.3451 55.5277 49.5538 54.533 47.8847 46.6986C47.1128 43.0878 48.2189 39.9186 51.1792 37.6129C54.0658 35.3648 57.3205 35.0266 60.5991 36.5823C63.9593 38.1739 65.6662 40.9869 65.7836 44.7291C65.7836 44.928 65.7657 45.127 65.7836 45.3259C65.8612 46.0759 65.5966 46.3564 64.7889 46.3206C62.873 46.2609 60.9612 46.3047 59.0354 46.3047ZM60.9711 43.2728C60.6762 42.3531 60.0918 41.5535 59.3052 40.9931C58.5186 40.4327 57.5719 40.1416 56.6063 40.1633C54.6527 40.2349 52.8941 41.5559 52.5121 43.2728H60.9711Z" fill="#030303"/>
<path d="M67.3552 44.8023C67.1424 39.8625 71.6266 35.5614 76.4489 35.7026C81.4722 35.8518 85.4372 39.7551 85.4332 44.8421C85.4459 47.249 84.5022 49.5624 82.8096 51.2736C81.117 52.9849 78.8141 53.9539 76.4072 53.9676C71.35 53.9855 67.3493 49.937 67.3552 44.8023ZM76.3773 49.4396C77.592 49.4166 78.7493 48.9185 79.6009 48.0521C80.4526 47.1857 80.9307 46.02 80.9328 44.8051C80.9349 43.5902 80.4608 42.4229 79.6121 41.5535C78.7634 40.6842 77.6078 40.1821 76.3932 40.155C73.8905 40.1291 71.73 42.3135 71.7539 44.848C71.7745 46.0648 72.2693 47.2255 73.1328 48.0831C73.9963 48.9407 75.1604 49.4274 76.3773 49.4396Z" fill="#030303"/>
<path d="M0.707306 35.8079C2.26304 35.8079 3.67952 35.8337 5.094 35.7959C5.63712 35.782 5.73062 36.1361 5.88977 36.4942C7.31288 39.6097 8.7393 42.7225 10.169 45.8326C10.3003 46.1211 10.4456 46.4036 10.6425 46.8035C12.2341 43.312 13.7838 39.9737 15.2859 36.6156C15.5485 36.0188 15.8349 35.7581 16.5193 35.792C17.8045 35.8556 19.1056 35.8099 20.3907 35.8099C20.5618 36.1461 20.3112 36.3788 20.1918 36.6235C17.699 42.1084 15.1884 47.5873 12.7095 53.0781C12.4569 53.6372 12.1326 53.7506 11.5437 53.848C9.4986 54.1843 8.52975 53.3606 7.73398 51.4448C5.69083 46.523 3.35723 41.7205 1.141 36.8682C1.01965 36.5718 0.900281 36.2615 0.707306 35.8079Z" fill="#030303"/>
<path d="M26.6833 35.9473C26.6833 41.8201 26.6833 47.4999 26.6973 53.1797C26.6973 53.7348 26.4983 53.8283 26.0189 53.8163C24.9287 53.7865 23.8305 53.7746 22.7502 53.8163C22.2031 53.8382 22.1057 53.6373 22.1057 53.1439C22.1236 48.4548 22.1176 43.7637 22.1057 39.0747C22.1057 38.7723 22.1057 38.5057 22.4299 38.3226C23.8166 37.5726 25.1813 36.7928 26.6833 35.9473Z" fill="#030303"/>
<path d="M26.5102 33.2299L22.1335 35.7684V30.6914L26.5102 33.2299Z" fill="#FE0003"/>
<path d="M53.8629 15.5107V7.75195C56.1747 7.75195 58.4864 7.77782 60.7961 7.75195C61.3929 7.75195 61.5919 7.88723 61.5819 8.51391C61.5408 10.5949 61.5408 12.6751 61.5819 14.7547C61.5939 15.3834 61.3929 15.5266 60.7961 15.5187C58.4864 15.4829 56.1747 15.5068 53.8629 15.5107Z" fill="#FEFEFE"/>
<path d="M60.9712 43.2727H52.5121C52.8941 41.5558 54.6527 40.2349 56.6064 40.1632C57.5719 40.1416 58.5186 40.4326 59.3052 40.993C60.0919 41.5534 60.6762 42.353 60.9712 43.2727Z" fill="#FEFEFE"/>
</svg>
