<svg width="91" height="42" viewBox="0 0 91 42" fill="none" xmlns="http://www.w3.org/2000/svg">
<g clip-path="url(#clip0)">
<path d="M14.127 18.2945C10.255 19.0854 7.52865 23.2861 8.25458 27.2327C8.70332 30.3735 11.2136 33.0596 14.2733 33.6508C16.5335 34.0918 19.004 33.3444 20.6488 31.6973C22.9894 29.5619 23.7144 25.8535 22.4767 22.9292C21.2283 19.6292 17.5357 17.5372 14.127 18.2945ZM38.5858 16.0296C38.5829 20.1047 38.5897 24.1798 38.5829 28.2579C38.5965 29.8506 39.0656 31.6123 40.4041 32.5812C41.3587 33.3681 42.6342 33.4946 43.8157 33.5549C43.4532 32.3291 42.7573 31.2356 42.4578 29.986C41.0263 25.3681 41.7319 20.2302 44.0386 16.0325C42.2213 16.0197 40.4041 16.0227 38.5858 16.0296ZM50.1814 21.4522C55.4481 21.4631 60.7118 21.466 65.9775 21.4492C65.2719 17.4117 61.1441 14.6504 57.2295 15.1635C53.8663 15.4384 50.9703 18.1452 50.1814 21.4522ZM11.6303 0.0958846C14.6794 -0.0365912 17.7392 0.0998391 20.7883 0.000976562C20.7486 0.17102 20.6749 0.503199 20.6352 0.673242C18.8674 3.93966 17.1034 7.21399 15.3191 10.4735C18.8073 10.3381 22.3798 11.2308 25.1924 13.3979C27.3973 15.1062 29.2582 17.4048 30.1305 20.1175C30.3427 18.7631 30.2468 17.3909 30.2633 16.0256C30.2701 10.8165 30.2497 5.61143 30.273 0.40137C33.0429 0.40829 35.8129 0.40137 38.5829 0.405325C38.5926 3.12207 38.579 5.83486 38.5858 8.5516C40.47 8.56149 42.3512 8.5516 44.2353 8.5516C44.2722 10.8778 44.2092 13.2041 44.2692 15.5303C45.0475 14.7968 45.5244 13.8012 46.2697 13.038C48.7896 10.3173 52.2051 8.36179 55.8706 7.91987C58.408 7.84869 61.0442 7.65492 63.4576 8.6129C68.6709 10.253 72.6097 15.0449 73.6953 20.4438C74.2574 17.2555 75.2964 14.0088 77.6205 11.6865C79.1383 10.1542 81.0292 9.03405 83.0801 8.43297C85.4798 7.60747 88.0434 7.94063 90.5274 7.87637C90.54 10.4804 90.5701 13.0854 90.5604 15.6865C88.6859 15.6865 86.6652 15.4759 85.001 16.5417C82.7932 17.7241 81.8346 20.3963 81.8579 22.8214C81.8686 28.9539 81.8744 35.0903 81.855 41.2227C79.2013 41.2366 76.5515 41.2395 73.8978 41.2227C73.8416 36.9005 73.891 32.5772 73.8746 28.2539C65.9445 28.251 58.0184 28.2411 50.0884 28.2609C50.7077 30.6108 52.2923 32.7235 54.4556 33.7932C57.9079 35.46 62.656 34.5169 64.6632 31.0152C67.5195 30.9064 70.3825 30.9914 73.2426 30.9746C73.2989 32.4378 72.4498 33.6874 71.7675 34.9005C69.4065 38.8896 65.0257 41.3048 60.5548 41.8238C55.7378 42.5574 50.6544 40.9687 47.0984 37.5658C46.1699 36.8392 45.6407 35.7052 44.6986 35.0092C44.6753 36.9578 44.7354 38.9103 44.6918 40.8599C44.4456 41.4303 43.7197 41.199 43.2467 41.2741C40.4603 41.3661 37.5507 40.7956 35.2469 39.114C32.6175 37.2366 31.0852 34.0888 30.6161 30.9064C29.3009 34.8154 26.6142 38.2895 22.9623 40.16C18.3915 42.6256 12.6121 42.5851 8.07431 40.0621C1.9625 36.8125 -1.29984 29.0587 0.487376 22.2846C1.00687 19.9989 2.04198 17.8872 3.09454 15.819C5.61737 11.1458 8.13149 6.46659 10.6282 1.77655C10.9577 1.21995 11.1544 0.544721 11.6303 0.0958846Z" fill="#E93B72"/>
</g>
<defs>
<clipPath id="clip0">
<rect width="90.5625" height="42" fill="white"/>
</clipPath>
</defs>
</svg>
