<svg width="124" height="27" viewBox="0 0 124 27" fill="none" xmlns="http://www.w3.org/2000/svg">
<path d="M23.8086 27C21.9487 26.8521 20.5227 25.2465 20.5227 23.3451C20.5227 21.338 22.114 19.6901 24.0773 19.6901C24.098 19.6901 24.1393 19.6901 24.16 19.6901C26.1233 19.7113 27.694 21.338 27.6733 23.3451C27.694 25.2465 26.2473 26.8521 24.3873 27H23.8086ZM33.2946 27C32.7366 26.9789 32.2199 26.7676 31.7859 26.3873C31.2899 25.9648 30.9386 25.3944 30.7733 24.7394C30.6906 24.4648 30.6493 24.169 30.6699 23.8944C30.6699 23.1761 30.9179 22.4789 31.3519 21.9296C31.7653 21.4225 32.3026 21.0845 32.9226 20.8944C33.2119 20.8099 33.5012 20.7887 33.8319 20.7887H50.8818C50.9645 20.7887 51.0058 20.7676 51.0058 20.662V16.8169C51.0058 16.5845 51.0058 16.5634 50.7785 16.5634H33.9352C33.6459 16.5634 33.1706 16.5423 32.7779 16.4366C31.8066 16.1408 31.1659 15.507 30.8559 14.5141C30.7733 14.2183 30.7113 13.9014 30.7113 13.5845V3.19014C30.7113 2.47183 30.8766 1.8169 31.3106 1.22535C31.7033 0.676054 32.3026 0.295774 32.9433 0.147887C33.1706 0.105633 33.4186 0.0633777 33.6046 0.0633777H54.0025C54.8291 0.0633777 55.5731 0.359155 56.1724 0.950704C56.5444 1.30986 56.7924 1.75352 56.9164 2.26056C57.0198 2.61972 57.0404 3.06338 57.0404 3.35915V23.8521C57.0404 24.507 56.8751 25.162 56.5444 25.7113C56.2138 26.2817 55.7178 26.6408 55.0978 26.831C54.7671 26.9366 54.4364 27 54.1058 27H33.2946ZM13.5374 27C11.6567 26.8521 10.2307 25.2254 10.2514 23.3028C10.2721 21.2958 11.8841 19.6901 13.8474 19.6901C13.868 19.6901 13.868 19.6901 13.8887 19.6901C15.852 19.7113 17.4227 21.338 17.4227 23.3451C17.4227 25.2465 15.9967 26.831 14.1367 27H13.5374ZM3.28678 27C1.42679 26.8521 -0.0198691 25.2465 0.000797456 23.3239C0.021464 21.3169 1.63345 19.6901 3.59677 19.6901H3.61744C5.66343 19.7113 7.17208 21.4437 7.15142 23.3451C7.19275 25.2042 5.74609 26.8521 3.86544 27H3.28678ZM51.0058 10.5423V6.35915C51.0058 6.29577 50.9645 6.27465 50.9231 6.27465H36.8906C36.8079 6.27465 36.7872 6.3169 36.7872 6.38028V10.5423C36.7872 10.6056 36.8286 10.6479 36.8906 10.6479H50.9231C50.9645 10.6268 51.0058 10.6056 51.0058 10.5423ZM118.193 0.0422529H124L119.577 14.831C118.151 19.6268 116.209 19.6268 115.258 19.6268C114.328 19.6268 112.385 19.6268 110.856 14.7676L108.355 6.76056L105.855 14.7676C104.325 19.6268 102.383 19.6268 101.432 19.6268C100.502 19.6268 98.5595 19.6268 97.1335 14.831L96.3482 12.2324C97.1335 8.49296 95.9762 4.60563 93.2689 1.94366L92.6902 0.0211248H98.5182L101.845 12.8662L105.731 0.0211248H111.001L114.886 12.8662L118.193 0.0422529ZM85.7462 14.8944C88.4329 14.8944 90.6235 12.6549 90.6235 9.90845C90.6235 7.16197 88.4329 4.92253 85.7462 4.92253C83.0596 4.92253 80.8689 7.16197 80.8689 9.90845C80.8689 12.6761 83.0596 14.8944 85.7462 14.8944ZM85.7462 0C91.0989 0 95.4595 4.45775 95.4595 9.92958C95.4595 15.4014 91.0989 19.8592 85.7462 19.8592C80.3936 19.8592 76.033 15.4014 76.033 9.92958C76.033 4.45775 80.3936 0 85.7462 0ZM76.4876 4.11972C75.4336 5.87324 74.8756 7.88028 74.8756 9.92958C74.8756 12.0634 75.4543 14.0493 76.4876 15.7394V19.6056H74.0903C73.0983 19.6056 72.1477 19.1197 71.5483 18.2958L64.6044 8.6831V19.6056H59.9337V0.0422529H62.7031C63.7157 0.0422529 64.6457 0.528169 65.245 1.37324L71.817 10.5423V0.0422529H76.4876V4.11972ZM24.098 9.88732C25.958 9.8662 27.6733 11.4085 27.6733 13.5423C27.6733 15.5493 26.1026 17.1972 24.1186 17.1972C24.098 17.1972 24.098 17.1972 24.0773 17.1972C22.114 17.1972 20.502 15.5704 20.502 13.5634V13.5423C20.5227 11.4718 22.1967 9.84507 24.098 9.88732ZM13.7854 17.2183C11.8221 17.1972 10.2307 15.5493 10.2514 13.5423C10.2514 13.5423 10.2514 13.5423 10.2514 13.5211C10.2721 11.4085 11.9667 9.8662 13.8474 9.88732C15.7487 9.8662 17.4227 11.4718 17.4227 13.5423C17.4227 15.5493 15.8314 17.1972 13.8474 17.1972C13.8267 17.2183 13.806 17.2183 13.7854 17.2183ZM24.098 7.39437C22.1347 7.39437 20.5227 5.7676 20.5227 3.76056C20.5227 3.76056 20.5227 3.76056 20.5227 3.73944C20.502 1.73239 22.0933 0.0845045 24.0566 0.0633777C24.0773 0.0633777 24.098 0.0633777 24.1186 0.0633777C26.082 0.0422509 27.6733 1.64788 27.694 3.65493C27.694 3.67605 27.694 3.69718 27.694 3.71831C27.7146 5.72535 26.1233 7.37324 24.16 7.37324C24.1186 7.39437 24.1186 7.39437 24.098 7.39437ZM13.8267 7.39437C11.8634 7.39437 10.2721 5.74648 10.2721 3.73944C10.2721 3.71831 10.2721 3.67605 10.2721 3.65493C10.2927 1.64788 11.9047 0.063379 13.868 0.0845058C15.8314 0.0845058 17.4227 1.71127 17.4434 3.71831C17.4434 3.73943 17.4434 3.73943 17.4434 3.76056C17.4434 5.7676 15.852 7.41549 13.868 7.41549C13.8474 7.39436 13.8267 7.39437 13.8267 7.39437ZM3.57611 0.0633777C5.66343 0.0633777 7.21342 1.8169 7.15142 3.84507C7.08942 5.74648 5.56009 7.39437 3.57611 7.37324C1.63345 7.37324 0.0421305 5.7676 0.000797456 3.78169C-0.0405356 1.77465 1.53012 0.105631 3.49344 0.0633777C3.53477 0.0633777 3.55544 0.0633777 3.57611 0.0633777ZM3.63811 17.1972C1.67479 17.2394 0.0421305 15.6338 0.000797456 13.6056C0.000797456 13.5634 0.000797456 13.5211 0.000797456 13.4789C0.021464 11.4296 1.69545 9.84507 3.63811 9.8662C5.53943 9.90845 7.17208 11.5141 7.15142 13.5211C7.19275 15.4648 5.66343 17.1761 3.63811 17.1972Z" fill="#0084CC"/>
</svg>
