<svg width="112" height="35" viewBox="0 0 112 35" fill="none" xmlns="http://www.w3.org/2000/svg">
<path d="M87.6061 12.8952C88.6728 12.876 89.9631 13.2784 90.8382 14.3516C91.2343 14.7348 91.9625 16.5745 91.9625 16.5745L96.3189 28.1362C96.881 29.5223 98.5609 29.6309 99.0592 28.2384L100.413 24.591L102.719 30.6657C101.595 32.7162 100.509 33.2144 99.2253 33.6871C97.7242 34.1534 95.9292 34.0001 94.6389 33.2016C94.2109 32.927 93.0867 32.1988 92.3329 30.3527L87.7466 17.539V29.2029L89.4649 24.2716L91.6686 30.423C91.3492 31.8347 90.3272 33.0164 89.1391 33.5721C87.8424 34.1853 86.2902 33.9682 85.1149 33.2272C83.9459 32.3585 83.6138 31.3364 83.5627 29.5095L83.5754 16.8875C83.7096 14.7859 85.051 13.6425 86.2327 13.1315C86.7565 12.9591 86.9865 12.908 87.6061 12.8952Z" fill="black"/>
<path d="M107.663 33.9366C106.597 33.9557 105.306 33.5533 104.431 32.4802C104.035 32.0969 103.307 30.2573 103.307 30.2573L98.957 18.6956C98.3949 17.303 96.7149 17.2008 96.2167 18.5934L94.8625 22.2407L92.5565 16.166C93.6808 14.122 94.7667 13.6174 96.0506 13.1447C97.5517 12.6784 99.3466 12.8317 100.637 13.6301C101.065 13.9048 102.189 14.6394 102.943 16.479L107.529 29.2863V17.616L105.817 22.5473L103.614 16.396C103.933 14.9779 104.955 13.8026 106.143 13.2469C107.44 12.6336 108.992 12.8508 110.167 13.5918C111.336 14.4605 111.668 15.4826 111.72 17.303L111.7 29.9251C111.566 32.0267 110.225 33.1701 109.043 33.6811C108.513 33.8727 108.283 33.9238 107.663 33.9366Z" fill="black"/>
<path d="M55.8465 0.0957031H57.8395L62.0554 10.003H59.7941L58.8935 7.79925H54.7351L53.8344 10.003H51.6307L55.8465 0.0957031ZM58.1206 5.88295L56.8111 2.69549L55.5016 5.88295H58.1206Z" fill="#00BFBD"/>
<path d="M62.6175 0.166016H67.1847C68.3089 0.166016 69.1968 0.472624 69.7589 1.03474C70.2061 1.48188 70.436 2.03122 70.436 2.70831V2.73386C70.436 3.84532 69.8484 4.46493 69.1457 4.85458C70.2827 5.28894 70.9854 5.95326 70.9854 7.26912V7.29467C70.9854 9.096 69.5226 9.99027 67.3061 9.99027H62.6239V0.166016H62.6175ZM66.7248 4.14554C67.6829 4.14554 68.2834 3.83893 68.2834 3.10435V3.0788C68.2834 2.43364 67.7787 2.06955 66.8653 2.06955H64.7318V4.15193H66.7248V4.14554ZM67.2997 8.10591C68.2578 8.10591 68.8327 7.76736 68.8327 7.03916V7.01361C68.8327 6.35568 68.3409 5.94687 67.2294 5.94687H64.7254V8.11229H67.2997V8.10591Z" fill="#00BFBD"/>
<path d="M71.375 5.11015V5.0846C71.375 2.28679 73.4829 0 76.5043 0C78.3567 0 79.4682 0.619605 80.3816 1.52027L79.0083 3.10441C78.2481 2.41454 77.4752 1.99296 76.4915 1.99296C74.8307 1.99296 73.6362 3.3727 73.6362 5.05905V5.0846C73.6362 6.77094 74.8052 8.17623 76.4915 8.17623C77.6158 8.17623 78.3056 7.7291 79.0785 7.02645L80.4583 8.41897C79.449 9.49849 78.3248 10.1756 76.4277 10.1756C73.5276 10.1692 71.375 7.93989 71.375 5.11015Z" fill="#00BFBD"/>
<path d="M47.9385 27.8046C46.776 29.2291 45.0066 30.1361 43.02 30.1361C39.5132 30.1361 36.6707 27.2936 36.6707 23.7868C36.6707 20.2799 39.5132 17.4374 43.02 17.4374C46.5077 17.4374 49.3374 20.248 49.3694 23.7229H53.4447C53.4 18.0123 48.7625 13.4004 43.0456 13.4004C37.303 13.4004 32.6464 18.057 32.6464 23.7995C32.6464 29.5421 37.303 34.1987 43.0456 34.1987C47.37 34.1987 51.0813 31.5606 52.6463 27.7982H47.9385V27.8046Z" fill="#00BFBD"/>
<path d="M49.2544 23.8127L41.0846 18.9453V28.6738L49.2544 23.8127Z" fill="black"/>
<path d="M31.6819 14.1543H27.0891V33.592H31.6819V14.1543Z" fill="#00BFBD"/>
<path d="M26.1757 14.1543H21.2316L16.6261 26.5656L11.9695 14.1543H6.94878L14.6779 33.592H18.4466L26.1757 14.1543Z" fill="#00BFBD"/>
<path d="M6.06728 14.1543H1.47453V33.592H6.06728V14.1543Z" fill="#00BFBD"/>
<path d="M3.71024 12.3861C5.27306 12.3861 6.53998 11.1191 6.53998 9.55631C6.53998 7.99348 5.27306 6.72656 3.71024 6.72656C2.14741 6.72656 0.880493 7.99348 0.880493 9.55631C0.880493 11.1191 2.14741 12.3861 3.71024 12.3861Z" fill="#00BFBD"/>
<path d="M80.2538 14.1543L73.3168 33.592H69.5225L65.9454 21.8004L62.4322 33.592H58.6251L51.7264 14.1543H56.6641L60.5478 26.6742L64.01 14.1543H67.9895L71.4388 26.5911L75.2714 14.1543H80.2538Z" fill="#00BFBD"/>
</svg>
