<svg width="70" height="70" viewBox="0 0 70 70" fill="none" xmlns="http://www.w3.org/2000/svg">
<g clip-path="url(#clip0)">
<path d="M34.5626 0.937988C15.5995 0.937988 0.366455 16.1609 0.366455 35.0473C0.366455 53.9338 15.6002 69.1567 34.5626 69.1567C53.5241 69.1567 68.7452 53.9338 68.7452 35.0473C68.7452 16.1609 53.5241 0.937988 34.5626 0.937988Z" fill="black"/>
<path d="M12.1407 24.3537C6.19266 24.3537 1.42017 29.1285 1.42017 35.0479C1.42017 40.9675 6.19266 45.7422 12.1407 45.7422C15.7932 45.7422 17.2209 43.1728 17.2209 43.1728V45.5102H22.8613V35.0478C22.8613 29.1281 18.0888 24.3535 12.1407 24.3535V24.3537ZM12.1407 29.9451C14.9766 29.9451 17.2498 32.2234 17.2498 35.0481C17.2498 37.8727 14.9766 40.1511 12.1407 40.1511C9.30491 40.1511 7.03166 37.8727 7.03166 35.0481C7.03166 32.2234 9.30491 29.9451 12.1407 29.9451Z" fill="white"/>
<path d="M24.2256 16.9891V35.0479C24.2256 40.9675 29.0017 45.7459 34.9498 45.7459C40.8979 45.7459 45.6616 40.9673 45.6616 35.0479C45.6616 29.1283 40.8979 24.3499 34.9498 24.3499C31.2973 24.3499 29.8646 26.9262 29.8646 26.9262V16.9888L24.2256 16.9891ZM34.9498 29.9445C37.7856 29.9445 40.0595 32.2236 40.0595 35.0482C40.0595 37.8729 37.7858 40.1519 34.9498 40.1519C32.1139 40.1519 29.84 37.8729 29.84 35.0482C29.84 32.2236 32.1139 29.9445 34.9498 29.9445Z" fill="white"/>
<path d="M57.3019 24.3537C51.3538 24.3537 46.5813 29.1285 46.5813 35.0479C46.5813 40.9675 51.3538 45.7422 57.3019 45.7422C62.4361 45.7422 66.6959 42.1844 67.7652 37.404H61.8352C60.9846 39.0342 59.2811 40.1508 57.3019 40.1508C54.466 40.1508 52.1928 37.8724 52.1928 35.0478C52.1928 32.2231 54.466 29.9447 57.3019 29.9447C59.2871 29.9447 60.9995 31.0656 61.8474 32.7038H67.765C66.7001 27.9174 62.4402 24.3535 57.3017 24.3535L57.3019 24.3537Z" fill="white"/>
</g>
<defs>
<clipPath id="clip0">
<rect width="69.0625" height="68.9" fill="white" transform="translate(0 0.5)"/>
</clipPath>
</defs>
</svg>
