<svg width="120" height="24" viewBox="0 0 120 24" fill="none" xmlns="http://www.w3.org/2000/svg">
<path d="M4.9625 9.92291C4.9625 8.411 5.04211 7.90279 5.08192 7.75033C5.47997 6.08596 7.11199 4.87897 8.96958 4.87897C10.8139 4.87897 12.4459 6.08596 12.844 7.75033C12.8838 7.90279 12.9634 8.411 12.9634 9.92291V12.8959H4.9625V9.92291ZM1.08811 6.88638C0.928891 7.52164 0.862549 8.46182 0.862549 9.92291V21.3956C0.862549 22.4629 1.77807 23.3395 2.90589 23.3395C4.03371 23.3395 4.94924 22.4629 4.94924 21.3956V16.7964H12.9501V21.3956C12.9501 22.4629 13.8656 23.3395 14.9935 23.3395C16.1213 23.3395 17.0368 22.4629 17.0368 21.3956V9.92291C17.0368 8.46182 16.9705 7.52164 16.8112 6.88638C16.0151 3.48141 12.698 1.00391 8.95631 1.00391C5.22787 1.00391 1.91076 3.48141 1.08811 6.88638Z" fill="black"/>
<path d="M25.2765 16.7964C25.2632 15.221 25.2632 13.6074 25.2765 12.0447C25.303 10.4946 26.6299 9.17331 28.3017 9.17331C29.9735 9.17331 31.2738 10.4438 31.3136 12.0574C31.3534 13.6709 31.3534 15.3607 31.3136 16.7329C31.2606 18.3464 29.9072 19.655 28.2884 19.655C26.6431 19.6678 25.303 18.3591 25.2765 16.7964ZM21.4021 2.84615V15.4496C21.4021 16.7329 21.4552 17.9017 21.6807 18.6386C22.5166 21.3575 25.1703 23.3522 28.3017 23.3522C31.9903 23.3522 35.0952 20.4301 35.2013 16.8472C35.2411 15.4115 35.2411 13.6709 35.2013 12.032C35.1084 8.34747 32.123 5.50152 28.3017 5.50152C27.2137 5.50152 26.192 5.74292 25.2765 6.16219V2.84615C25.2765 1.82974 24.414 1.00391 23.3393 1.00391C22.2778 1.00391 21.4021 1.82974 21.4021 2.84615Z" fill="black"/>
<path d="M66.1301 6.97527C65.0952 6.0605 63.7152 5.48877 62.2159 5.48877C59.5357 5.48877 57.2004 7.28019 56.537 9.84663C56.3645 10.52 56.3645 11.2696 56.3645 11.9303V21.5099C56.3645 22.5264 57.2402 23.3522 58.3017 23.3522C59.3764 23.3522 60.2389 22.5264 60.2389 21.5099V11.9303C60.2389 11.5491 60.2389 10.9647 60.292 10.736C60.5308 9.82122 61.3269 9.17326 62.2159 9.17326C63.3039 9.17326 64.1929 10.1007 64.1929 11.2442V21.5099C64.1929 22.5264 65.0553 23.3522 66.1301 23.3522C67.2048 23.3522 68.0673 22.5264 68.0673 21.5099V11.2442C68.0673 10.1007 68.9563 9.17326 70.0443 9.17326C70.9333 9.17326 71.7294 9.82122 71.9682 10.736C72.0346 10.9647 72.0346 11.5491 72.0213 11.9303V21.5099C72.0213 22.5264 72.897 23.3522 73.9585 23.3522C75.0332 23.3522 75.8957 22.5264 75.8957 21.5099V11.9303C75.8957 11.2696 75.8957 10.52 75.7232 9.84663C75.0598 7.28019 72.7113 5.48877 70.0443 5.48877C68.545 5.48877 67.1783 6.0478 66.1301 6.97527Z" fill="black"/>
<path d="M83.2863 17.6222C83.2863 17.1648 83.2863 16.3008 86.5106 15.5766C87.5455 15.3352 88.5274 15.1066 89.4164 14.827C89.4297 15.7672 89.4429 16.682 89.3898 17.5968C89.3235 18.6005 88.1426 19.6931 86.3381 19.6931C84.6795 19.6804 83.2863 18.7402 83.2863 17.6222ZM80.1152 7.86463C79.3589 8.58882 79.3589 9.74499 80.1152 10.4692C80.8715 11.1807 82.1054 11.1807 82.8618 10.4692C83.0873 10.2532 84.3213 9.17326 86.3381 9.17326C87.864 9.17326 89.0714 9.88475 89.3368 10.8885C88.3284 11.3712 86.5637 11.7651 85.6083 11.9811C84.0692 12.3241 79.3987 13.3787 79.3987 17.6222C79.3987 20.7858 82.5168 23.3649 86.3248 23.3649C90.0931 23.3649 93.1979 20.7985 93.251 17.6476C93.2908 15.5385 93.2908 13.493 93.251 11.2061C93.1979 7.94086 90.2125 5.48877 86.3248 5.48877C82.8883 5.48877 80.699 7.3056 80.1152 7.86463Z" fill="black"/>
<path d="M42.8838 11.2696C42.9502 10.2659 44.1311 9.1733 45.9356 9.1733C47.5941 9.1733 48.9873 10.1135 48.9873 11.2315C48.9873 11.7016 48.9873 12.5656 45.7631 13.2898C44.7281 13.5185 43.7463 13.7598 42.844 14.0394C42.8308 13.0992 42.8175 12.1844 42.8838 11.2696ZM38.9962 11.2061C38.9564 13.3152 38.9564 15.3607 38.9962 17.6476C39.0492 20.9128 42.0346 23.3649 45.9223 23.3649C49.3721 23.3649 51.5614 21.5481 52.1452 20.9891C52.9015 20.2649 52.9015 19.096 52.1452 18.3845C51.3889 17.6603 50.1549 17.6603 49.3986 18.3845C49.1731 18.6005 47.9391 19.6804 45.9223 19.6804C44.3964 19.6804 43.189 18.969 42.9236 17.978C43.932 17.4952 45.6967 17.1013 46.6521 16.8853C48.1912 16.5423 52.8617 15.4877 52.8617 11.2442C52.8617 8.08065 49.7569 5.50151 45.9223 5.50151C42.1673 5.48881 39.0625 8.05524 38.9962 11.2061Z" fill="black"/>
<path d="M97.4172 0.86377C96.568 0.86377 96.1301 1.20681 96.1301 2.05805C96.1301 3.23963 97.0855 3.23963 97.4172 3.23963H99.7259V11.1295C99.7259 12.057 100.257 12.3238 101.106 12.3238C102.3 12.3238 102.446 11.6504 102.446 11.1295V3.23963H104.755C105.365 3.23963 106.042 3.08717 106.042 2.04535C106.042 0.952705 105.232 0.86377 104.755 0.86377H97.4172Z" fill="black"/>
<path d="M116.258 1.86765L113.645 9.50344L111.031 1.86765C110.765 1.09264 110.606 0.635254 109.598 0.635254C108.722 0.635254 108.151 1.07993 108.151 1.7279C108.151 1.9947 108.191 2.18528 108.47 2.92218L111.243 10.2912C111.628 11.3203 111.999 12.3367 113.671 12.3367C115.303 12.3367 115.701 11.3076 116.086 10.2912L118.819 2.92218C119.098 2.17258 119.138 1.982 119.138 1.70249C119.138 1.2451 118.793 0.635254 117.665 0.635254C116.683 0.635254 116.524 1.10534 116.258 1.86765Z" fill="black"/>
</svg>
