<svg width="133" height="40" viewBox="0 0 133 40" fill="none" xmlns="http://www.w3.org/2000/svg">
<g clip-path="url(#clip0_9371:8236)">
<path d="M133 10.5163C132.667 10.642 132.645 10.972 132.52 11.2181C129.566 16.9718 126.623 22.7325 123.691 28.5001C123.533 28.8091 123.375 29.1128 123.146 29.5475C119.806 23.106 116.527 16.7745 113.193 10.3488C114.77 10.3488 116.205 10.3488 117.635 10.3488C118.126 10.3488 118.219 10.6787 118.377 10.972L122.693 19.0369C122.829 19.2883 122.971 19.5606 123.124 19.8015C123.511 19.6339 123.555 19.2778 123.67 19.0212C125.017 16.4027 126.365 13.7371 127.664 11.0715C127.747 10.8257 127.92 10.6167 128.15 10.4823C128.38 10.3478 128.653 10.2968 128.919 10.3383C130.272 10.3907 131.647 10.3645 132.984 10.3697L133 10.5163Z" fill="#777878"/>
<path d="M53.7457 8.54492L64.4566 31.3677C62.8688 31.3677 61.3956 31.3677 59.9169 31.3677C59.4967 31.3677 59.4258 31.0901 59.3057 30.844C58.7601 29.739 58.2581 28.634 57.7616 27.5132C57.7126 27.3244 57.5936 27.1591 57.4269 27.0483C57.2603 26.9375 57.0572 26.8887 56.8558 26.911C54.7824 26.9494 52.709 26.9494 50.6355 26.911C50.45 26.8866 50.2618 26.9295 50.1074 27.0312C49.9531 27.1328 49.8437 27.286 49.8007 27.4609C49.3151 28.613 48.7803 29.7442 48.2674 30.8859C48.1419 31.1687 48.0219 31.3781 47.6236 31.3677C46.1613 31.3677 44.7044 31.3677 43.1166 31.3677L53.7457 8.54492ZM53.7457 17.5735C52.9709 19.4431 52.2615 21.1713 51.5631 22.9047C51.4485 23.177 51.4321 23.3603 51.8305 23.3603C53.0964 23.3603 54.3622 23.3603 55.65 23.3603C55.9228 23.3603 56.0865 23.2975 55.9664 22.9937L53.7457 17.5735Z" fill="#080909"/>
<path d="M77.481 15.5089C73.6615 12.7595 69.9512 13.9378 68.2979 15.6555C66.1699 17.8969 66.1153 21.5262 68.1396 24.0347C69.7766 26.0457 73.6615 27.1402 77.4756 24.6212C77.8772 25.5805 78.4014 26.4882 79.0361 27.3235C79.3307 27.6744 79.1179 27.8001 78.8288 27.9781C77.3532 28.8728 75.6816 29.4267 73.9453 29.5963C69.0345 30.12 64.5329 27.7529 63.0324 23.1915C61.1336 17.3523 64.4511 11.6126 70.5023 10.4919C71.9271 10.2029 73.3982 10.1931 74.8271 10.463C76.256 10.733 77.6134 11.2772 78.8178 12.063C79.2216 12.3196 79.3635 12.5238 78.9979 12.9166C78.3777 13.7142 77.8679 14.5855 77.481 15.5089Z" fill="#080909"/>
<path d="M95.9674 27.4623C91.4931 30.6621 85.0109 30.3741 81.6116 26.7082C78.6597 23.5293 78.2231 19.7849 79.8491 15.941C81.4752 12.097 84.689 10.4002 88.8577 10.3007C91.3968 10.1828 93.893 10.9615 95.8746 12.4898C96.3603 12.8721 96.3657 13.1078 95.8092 13.3696C95.6609 13.4427 95.5233 13.5343 95.3999 13.6419C94.2159 14.5741 93.2174 15.0821 91.4386 14.328C90.7408 14.0251 89.9876 13.8573 89.2222 13.8342C88.4568 13.8112 87.6941 13.9333 86.9779 14.1935C86.2618 14.4538 85.6061 14.8471 85.0485 15.351C84.491 15.8548 84.0424 16.4593 83.7287 17.1298C82.1681 20.2719 83.5104 24.9119 87.6736 25.8912C89.1259 26.2464 90.6594 26.1342 92.0388 25.5718C92.2419 25.4731 92.4712 25.4353 92.6969 25.4633C92.9227 25.4913 93.1344 25.5839 93.3047 25.7289C94.1613 26.2945 95.0398 26.8496 95.9674 27.4623Z" fill="#080909"/>
<path d="M107.737 21.8026C107.737 24.1121 107.699 26.4216 107.737 28.7311C107.737 29.4696 107.508 29.6319 106.804 29.59C105.837 29.5324 104.868 29.5324 103.901 29.59C103.17 29.6319 102.919 29.4538 102.924 28.6945C102.968 24.0493 102.924 19.3989 102.963 14.7537C102.963 14.0571 102.793 13.8215 102.051 13.8686C101.086 13.9367 100.114 13.8686 99.1485 13.8948C98.9862 13.9195 98.8198 13.8918 98.6756 13.816C98.5314 13.7402 98.4176 13.6205 98.3519 13.4758C97.899 12.596 97.4188 11.7267 96.9332 10.8574C96.7204 10.4803 96.775 10.3337 97.2388 10.3337H110.602C110.723 10.3204 110.846 10.3441 110.953 10.4014C111.059 10.4588 111.144 10.5468 111.196 10.6531C111.698 11.5713 112.213 12.4808 112.74 13.3816C112.997 13.8267 112.74 13.8634 112.386 13.8634C111.06 13.8634 109.728 13.8634 108.403 13.8634C107.857 13.8634 107.699 14.0205 107.704 14.5442C107.753 16.9741 107.737 19.3779 107.737 21.8026Z" fill="#777878"/>
<path d="M0 19.2825C0.545465 18.2541 1.1826 17.2729 1.90429 16.3498C4.66704 13.2388 8.03446 10.6739 11.8186 8.79811C12.4388 8.49716 13.1342 8.36839 13.8265 8.42629C15.9814 8.53172 18.1058 8.95932 20.1232 9.69364C21.7602 10.3273 22.1967 10.9662 22.2076 12.6473C22.2076 14.1032 22.0057 15.559 22.2076 17.0202C22.7914 20.7751 24.4229 23.9801 27.5221 26.4153C28.7771 27.3998 30.0703 28.3373 31.3416 29.2956C32.5147 30.1807 32.5911 30.6834 31.7127 31.8198C31.145 32.6041 30.3688 33.228 29.4646 33.6266C28.5916 33.988 28.0569 33.8727 27.5276 33.1029C26.7255 31.9612 25.9943 30.7725 25.225 29.6098C23.8227 27.5151 22.4968 27.117 20.1287 28.2639C18.8246 28.9029 17.5969 29.6779 16.3092 30.3064C15.3268 30.8348 14.2163 31.1044 13.0903 31.0878C11.9644 31.0713 10.863 30.7691 9.89793 30.2121C6.61138 28.4449 3.72356 26.0684 1.4023 23.2207C0.829013 22.4451 0.357997 21.6042 0 20.7175L0 19.2825ZM8.59385 20C8.57348 20.4529 8.6486 20.9051 8.81471 21.3295C8.98082 21.7539 9.2345 22.1417 9.56055 22.4697C9.88659 22.7977 10.2783 23.0591 10.7121 23.2383C11.146 23.4175 11.6131 23.5108 12.0854 23.5126C12.5577 23.5143 13.0256 23.4245 13.4609 23.2486C13.8962 23.0726 14.2899 22.8141 14.6186 22.4886C14.9473 22.163 15.2041 21.7771 15.3737 21.354C15.5432 20.9309 15.622 20.4792 15.6053 20.0262C15.6148 19.5817 15.5317 19.1399 15.361 18.7267C15.1903 18.3134 14.9353 17.937 14.6111 17.6195C14.2869 17.302 13.9 17.0498 13.4729 16.8776C13.0459 16.7055 12.5873 16.6168 12.1241 16.6169C9.92521 16.664 8.73026 17.9471 8.59385 20ZM34.7028 40C34.7464 39.8324 34.8937 39.8534 35.0247 39.8272C35.6228 39.7164 36.178 39.4508 36.6301 39.059C37.0822 38.6672 37.4141 38.1642 37.5897 37.6043C37.7653 37.0445 37.7781 36.4493 37.6266 35.883C37.4751 35.3167 37.1651 34.801 36.7301 34.3917C36.2952 33.9824 35.7519 33.695 35.159 33.5608C34.5662 33.4265 33.9463 33.4505 33.3666 33.63C32.7869 33.8096 32.2694 34.1379 31.8702 34.5795C31.4709 35.021 31.2051 35.559 31.1015 36.1351C30.9663 36.9178 31.1319 37.7211 31.5674 38.3954C32.003 39.0697 32.679 39.5692 33.4696 39.801C33.6606 39.8638 33.9334 39.7486 34.0153 40.0209L34.7028 40ZM20.9199 0C20.7616 0.256612 20.4725 0.146635 20.2487 0.209479C19.4555 0.422518 18.7699 0.904726 18.3193 1.56647C17.8687 2.22822 17.6837 3.02449 17.7988 3.80728C17.9382 4.58835 18.3675 5.29455 19.0075 5.7952C19.6475 6.29585 20.4548 6.55706 21.28 6.53051C22.0876 6.49249 22.8533 6.17409 23.4344 5.63457C24.0156 5.09506 24.3727 4.37121 24.4393 3.5978C24.5219 2.79892 24.2866 1.99961 23.7805 1.36041C23.2744 0.721211 22.5351 0.289459 21.7111 0.151872C21.5365 0.12045 21.3455 0.188531 21.28 0H20.9199ZM26.5618 7.00707C25.2686 9.69364 24.1392 12.4797 24.2919 15.4595C24.5866 21.1364 27.5658 25.2265 32.9185 27.6722C33.4642 27.9235 34.0098 28.0807 34.2881 27.3841C34.6591 26.4415 34.8337 25.7083 33.9061 25.436C32.8737 25.1379 31.9182 24.6347 31.1015 23.9592C29.0499 22.1995 27.5549 20.0576 27.2821 17.3291C27.0201 14.8154 27.7568 12.464 30.3758 11.2909C31.3853 10.8405 31.5653 10.0498 30.8724 9.19613C30.1794 8.3425 29.3937 7.54648 28.6462 6.72951C28.5308 6.59617 28.3854 6.48968 28.2209 6.41802C28.0565 6.34636 27.8773 6.31141 27.6967 6.31579C27.4557 6.30078 27.2158 6.35964 27.0119 6.48388C26.8079 6.60812 26.6503 6.79132 26.5618 7.00707ZM43.1711 9.90835C43.1733 9.4854 43.0886 9.06618 42.922 8.67463C42.7553 8.28308 42.5099 7.92687 42.1998 7.62633C41.8898 7.3258 41.521 7.08683 41.1147 6.92307C40.7084 6.75931 40.2725 6.67396 39.8318 6.6719C38.9395 6.66337 38.0795 6.99193 37.4374 7.58665C36.7953 8.18138 36.4226 8.99458 36.3997 9.85075C36.4053 10.7043 36.7592 11.5218 37.3856 12.1278C38.0119 12.7338 38.8607 13.0801 39.7499 13.0924C40.1931 13.1015 40.6337 13.026 41.0463 12.8704C41.4588 12.7148 41.8351 12.4822 42.1533 12.1861C42.4715 11.8899 42.7253 11.5361 42.9 11.1451C43.0747 10.7541 43.1669 10.3338 43.1711 9.90835ZM29.2191 16.1037C29.0907 17.75 29.5495 19.3892 30.5203 20.7521C31.4911 22.115 32.916 23.1203 34.5609 23.603C34.7008 23.6573 34.8546 23.6693 35.0018 23.6375C35.149 23.6057 35.2826 23.5315 35.3848 23.425C36.0232 22.7546 35.614 21.3302 34.7137 21.0264C33.8581 20.7964 33.1048 20.3034 32.5693 19.6229C31.3907 17.9576 31.7017 16.6064 33.4423 15.4334C33.8843 15.1349 34.2171 14.763 33.988 14.2393C33.6988 13.6214 33.606 12.8044 32.8258 12.7258C31.2816 12.7206 29.3991 14.5797 29.2191 16.1037ZM36.6507 18.0047C36.626 17.584 36.4344 17.1882 36.1153 16.8988C35.7962 16.6093 35.3738 16.448 34.9347 16.448C34.4956 16.448 34.0731 16.6093 33.754 16.8988C33.4349 17.1882 33.2434 17.584 33.2186 18.0047C33.2207 18.2225 33.2679 18.4376 33.3573 18.6377C33.4468 18.8379 33.5767 19.0189 33.7397 19.1704C33.9026 19.322 34.0953 19.4409 34.3065 19.5204C34.5177 19.5999 34.7433 19.6383 34.9701 19.6334C35.4138 19.6188 35.835 19.4421 36.1474 19.1393C36.4598 18.8366 36.6398 18.4307 36.6507 18.0047Z" fill="url(#paint0_linear_9371:8236)"/>
<path d="M53.7457 17.5723L55.9282 22.9873C56.0483 23.291 55.8846 23.3591 55.6117 23.3539C54.3404 23.3539 53.0745 23.3539 51.7923 23.3539C51.3939 23.3539 51.4103 23.1706 51.5249 22.8983C52.2615 21.1701 52.9708 19.4419 53.7457 17.5723Z" fill="#FDFDFE"/>
</g>
<defs>
<linearGradient id="paint0_linear_9371:8236" x1="21.5856" y1="0" x2="21.5856" y2="40" gradientUnits="userSpaceOnUse">
<stop stop-color="#0A8BCD"/>
<stop offset="1" stop-color="#44B0E4"/>
</linearGradient>
<clipPath id="clip0_9371:8236">
<rect width="133" height="40" fill="white"/>
</clipPath>
</defs>
</svg>
