<svg width="142" height="25" viewBox="0 0 142 25" fill="none" xmlns="http://www.w3.org/2000/svg">
<path d="M113.11 17.8044C113.088 17.5911 113.048 17.3794 113.048 17.1677C113.048 11.7011 113.048 6.23453 113.035 0.767952C113.035 0.253373 113.087 0.015625 113.712 0.015625C122.867 0.0384228 132.022 0.0438508 141.177 0.0319091H141.776C141.335 1.00896 140.942 1.8769 140.54 2.74647C138.307 7.55029 136.076 12.3547 133.846 17.1596C133.632 17.622 133.411 17.8484 132.839 17.8451C128.317 17.8125 123.794 17.8239 119.27 17.8223L113.11 17.8044ZM131.419 8.5827C131.113 8.3645 131.053 8.09418 130.931 7.85318C130.224 6.42343 129.529 4.9888 128.814 3.56068C128.7 3.3327 128.64 3.0347 128.275 3.03796C127.461 3.0461 126.647 3.03796 125.713 3.03796C127.611 7.00477 129.442 10.8348 131.336 14.7984C132.126 13.1048 132.836 11.5888 133.541 10.076C134.544 7.91994 135.531 5.75578 136.551 3.60628C136.806 3.07053 136.588 3.01679 136.135 3.03633C135.676 3.0738 135.214 3.0738 134.754 3.03633C134.197 2.97282 133.94 3.21383 133.722 3.6991C132.997 5.31285 132.212 6.91358 131.419 8.5827ZM125.394 5.47569C125.104 4.75919 124.842 4.19902 124.652 3.61442C124.5 3.14706 124.235 3.02005 123.761 3.02656C121.786 3.05261 119.81 3.03796 117.835 3.03796C115.948 3.03796 115.959 3.03796 116.055 4.966C116.073 5.34216 116.166 5.49849 116.563 5.48221C117.239 5.45778 117.92 5.51478 118.592 5.46429C119.175 5.42196 119.314 5.63528 119.307 6.19219C119.276 8.43615 119.294 10.6801 119.294 12.9241C119.294 14.8114 119.294 14.7837 121.201 14.8081C121.818 14.8081 121.968 14.6453 121.96 14.0363C121.926 11.4699 121.976 8.90025 121.926 6.33224C121.911 5.58643 122.146 5.41056 122.838 5.46267C123.647 5.52129 124.461 5.47569 125.399 5.47569H125.394Z" fill="#BE0303"/>
<path d="M56.4033 0.0273576C63.3224 0.0175871 68.5708 5.18128 68.5838 12.0092C68.5968 18.8893 63.3436 24.1002 56.4179 24.1002C49.5265 24.1002 44.2716 18.8893 44.2683 12.0662C44.2651 5.24316 49.5021 0.0387565 56.4033 0.0273576ZM56.3821 20.731C61.2055 20.744 64.7456 17.0801 64.7505 12.0678C64.7505 7.10281 61.2266 3.38677 56.4847 3.36398C51.6727 3.33955 48.1456 7.00185 48.1374 12.0499C48.1309 17.0557 51.606 20.7163 56.3821 20.731Z" fill="#0F1A35"/>
<path d="M87.6639 24.0993C86.3612 24.0993 85.1203 24.0765 83.8746 24.1124C83.676 24.1281 83.4769 24.087 83.3007 23.9939C83.1246 23.9007 82.9785 23.7594 82.8796 23.5864C81.774 21.984 80.6259 20.4093 79.5284 18.8005C79.245 18.3869 78.9552 18.2761 78.4634 18.3119C77.5205 18.3836 76.5679 18.3738 75.6218 18.3543C75.161 18.3445 75.0128 18.4878 75.0209 18.9535C75.0486 20.4419 75.0079 21.9319 75.0437 23.4203C75.0568 23.9544 74.9069 24.1368 74.3663 24.1091C73.5272 24.0643 72.6863 24.0643 71.8471 24.1091C71.2821 24.1417 71.173 23.9235 71.1779 23.4121C71.2007 20.9695 71.1876 18.5399 71.1876 16.1038C71.1876 11.0411 71.2007 5.97835 71.173 0.91561C71.173 0.241447 71.2756 -0.0223558 72.0409 0.00369883C74.3419 0.0818626 76.6542 -0.0484104 78.947 0.114431C82.2429 0.347294 85.052 1.59792 86.695 4.67399C89.0448 9.0707 87.5646 14.5568 83.3698 16.9994C82.8699 17.2909 83.0441 17.488 83.2737 17.7843C84.6047 19.6299 85.9313 21.4754 87.2536 23.3209C87.4148 23.5424 87.6281 23.7199 87.6639 24.0993ZM75.0388 9.24494C75.0388 11.002 75.0486 12.7607 75.0388 14.5194C75.0388 14.9167 75.1105 15.1154 75.5664 15.0942C76.594 15.0437 77.628 15.0942 78.649 15.0014C81.8082 14.7213 83.4919 13.0212 83.7883 9.88654C84.114 6.4115 82.4774 4.12847 79.1994 3.5455C78.0498 3.34032 76.8806 3.39405 75.7163 3.37288C75.1887 3.36311 75.0209 3.50804 75.0323 4.05193C75.0535 5.78294 75.0388 7.51394 75.0388 9.24494Z" fill="#101B36"/>
<path d="M106.596 15.526V0.411039C106.617 0.396383 106.658 0.375214 106.655 0.367072C106.639 0.326317 106.62 0.287068 106.598 0.249826C106.583 -0.00583494 106.76 0.0267333 106.923 0.0267333C107.817 0.0267333 108.714 0.0381322 109.607 0.0267333C109.978 0.0267333 110.133 0.121181 110.131 0.526656C110.12 8.29961 110.114 16.072 110.113 23.8439C110.113 23.8602 110.081 23.8781 110.113 23.8439C104.947 18.6949 99.7734 13.5404 94.5929 8.38049C94.2297 8.75177 94.347 9.0628 94.347 9.33311C94.3372 13.9904 94.3274 18.6493 94.347 23.3065C94.347 23.9579 94.1841 24.1647 93.5328 24.111C92.8281 24.0586 92.1205 24.0586 91.4158 24.111C90.8801 24.1468 90.7286 23.9758 90.7351 23.4417C90.7612 20.9502 90.7465 18.4587 90.7465 15.9673V0.218886L90.9973 0.033247C91.5005 0.60482 91.9744 1.2057 92.5134 1.74634C97.0024 6.2603 101.498 10.7656 106.002 15.2622C106.164 15.425 106.288 15.666 106.571 15.679C106.685 15.6448 106.71 15.5944 106.596 15.526Z" fill="#101B36"/>
<path d="M41.4935 17.328C42.1042 18.2774 42.6611 19.1698 43.249 20.041C43.4948 20.4057 43.249 20.5751 43.0454 20.7868C41.3388 22.5357 39.2545 23.5388 36.8574 23.8987C33.2 24.4458 29.7787 23.9166 26.802 21.5668C22.7309 18.3605 21.2572 12.6512 23.1413 7.6113C24.9326 2.83028 29.5589 -0.139945 34.8659 0.0261534C37.7645 0.117345 40.3146 1.03903 42.5194 2.92799C42.9086 3.26344 43.034 3.51096 42.6823 3.98157C42.0781 4.79577 41.5521 5.68 40.9806 6.55609C37.8768 2.26196 31.412 2.66907 28.5362 5.79074C25.3397 9.28205 25.4862 15.47 28.9287 18.6764C31.9217 21.4675 38.0283 21.7671 41.4935 17.328Z" fill="#0F1A35"/>
<path d="M11.5209 0C12.3351 1.80102 13.0923 3.49457 13.8495 5.19301C15.4551 8.79343 17.0673 12.4004 18.6468 16.0203C18.8813 16.5593 19.1793 16.7808 19.7297 16.6717C20.3485 16.5544 20.6465 16.8541 20.8696 17.4012C21.2213 18.2724 21.6431 19.1143 22.0844 20.0751H21.1253C16.4371 20.0751 11.7505 20.0848 7.0623 20.062C6.54609 20.062 6.29694 20.2135 6.11293 20.6906C5.74654 21.6481 5.29872 22.5763 4.91442 23.5273C4.75158 23.923 4.55291 24.1233 4.0823 24.1054C3.03034 24.0712 1.97676 24.1005 0.783134 24.1005C4.36564 16.0415 7.92047 8.07856 11.5209 0ZM11.4737 8.3847C10.2898 11.1058 9.18575 13.6542 8.06865 16.2011C7.87325 16.6473 8.06865 16.6896 8.44807 16.6896C9.80129 16.6766 11.1561 16.6896 12.5093 16.6896H15.0708C13.856 13.8806 12.6982 11.2084 11.4737 8.3847Z" fill="#0F1A35"/>
<path d="M113.11 17.8027L119.27 17.8206V23.9207L119.071 23.9891C118.496 23.3996 117.913 22.8199 117.35 22.2222C115.951 20.7339 114.425 19.3693 113.11 17.8027Z" fill="#730303"/>
<path d="M22.2669 24.101C20.9641 24.101 19.808 24.0929 18.6485 24.101C18.5162 24.1184 18.382 24.0867 18.2713 24.012C18.1606 23.9374 18.0811 23.8248 18.0477 23.6955C17.665 22.7185 17.2514 21.7528 16.7987 20.6602C18.2447 20.9533 19.5898 21.2268 20.9348 21.4939C21.0122 21.5125 21.0832 21.5514 21.1405 21.6067C21.1977 21.6619 21.2392 21.7315 21.2605 21.8082C21.5748 22.5279 21.8907 23.2396 22.2669 24.101Z" fill="#101B36"/>
<path d="M106.598 0.251953C106.62 0.289196 106.639 0.328444 106.655 0.369199C106.655 0.377341 106.617 0.39851 106.596 0.413166L106.598 0.251953Z" fill="#0F1A35"/>
<path d="M106.596 15.5254C106.71 15.5938 106.685 15.6443 106.576 15.6882L106.596 15.5254Z" fill="#0F1A35"/>
<path d="M131.419 8.57959C132.212 6.91046 132.997 5.30974 133.733 3.69435C133.953 3.20583 134.209 2.96808 134.766 3.03159C135.225 3.06905 135.687 3.06905 136.147 3.03159C136.599 3.01204 136.818 3.06578 136.562 3.60153C135.543 5.75104 134.556 7.9152 133.553 10.0712C132.848 11.5905 132.138 13.1066 131.348 14.7936C129.454 10.8349 127.622 7.00166 125.725 3.0381C126.65 3.0381 127.469 3.0381 128.286 3.0381C128.651 3.0381 128.711 3.33284 128.825 3.56082C129.534 4.98894 130.229 6.42357 130.942 7.85332C131.056 8.08618 131.113 8.36138 131.419 8.57959Z" fill="#FDFDFD"/>
<path d="M125.399 5.47257C124.461 5.47257 123.647 5.51817 122.843 5.45954C122.15 5.40743 121.916 5.5833 121.931 6.32912C121.981 8.89712 121.931 11.4668 121.965 14.0331C121.973 14.6356 121.823 14.8131 121.206 14.805C119.299 14.7806 119.299 14.805 119.299 12.9209C119.299 10.677 119.281 8.43302 119.312 6.18907C119.312 5.63215 119.18 5.41883 118.597 5.46117C117.925 5.51165 117.244 5.46117 116.568 5.47908C116.171 5.49537 116.08 5.33904 116.06 4.96288C115.964 3.03484 115.953 3.03484 117.84 3.03484C119.815 3.03484 121.791 3.04949 123.766 3.02344C124.24 3.02344 124.505 3.14394 124.657 3.61129C124.847 4.19589 125.109 4.75607 125.399 5.47257Z" fill="#FDFDFD"/>
</svg>
