<svg width="102" height="57" viewBox="0 0 102 57" fill="none" xmlns="http://www.w3.org/2000/svg">
<path d="M51 56.7866C79.1665 56.7866 102 44.1226 102 28.5007C102 12.8789 79.1665 0.214844 51 0.214844C22.8335 0.214844 6.10352e-05 12.8789 6.10352e-05 28.5007C6.10352e-05 44.1226 22.8335 56.7866 51 56.7866Z" fill="#00529B"/>
<path d="M88.9856 43.477H89.1956C89.4846 43.477 89.6274 43.5654 89.6274 43.7711C89.6274 43.967 89.4948 44.0499 89.2202 44.0499H88.9856V43.477ZM88.5045 43.1735V45.1468H88.9856V44.3393H89.2202L89.5976 45.1468H90.1319L89.6911 44.2666C89.961 44.1969 90.1217 44.001 90.1217 43.7418C90.1217 43.3644 89.8429 43.174 89.2793 43.174H88.5045V43.1735ZM89.2398 42.4141C88.598 42.4141 88.0443 42.7328 87.7268 43.2709C87.5504 43.5705 87.4675 43.879 87.4675 44.1969C87.4675 44.6585 87.6439 45.0992 87.9771 45.4362C88.3192 45.7835 88.7651 45.9743 89.2398 45.9743C89.7001 45.9743 90.1514 45.7941 90.4986 45.4571C90.8357 45.1277 91.0222 44.6865 91.0222 44.1969C91.0222 43.7222 90.8459 43.2815 90.5178 42.9483C90.1744 42.6011 89.7298 42.4141 89.2398 42.4141ZM89.2449 42.7086C89.6571 42.7086 90.0184 42.8599 90.3078 43.1544C90.5862 43.4383 90.729 43.7966 90.729 44.2216C90.729 44.6037 90.5722 44.976 90.2921 45.2458C89.9993 45.5255 89.6274 45.681 89.2394 45.681C88.8479 45.681 88.4705 45.5191 88.1866 45.2297C87.9078 44.9513 87.7599 44.5841 87.7599 44.1927C87.7599 43.8013 87.9219 43.4192 88.2113 43.1298C88.4905 42.851 88.8441 42.7086 89.2449 42.7086Z" fill="white"/>
<path d="M55.2186 44.1878H32.0455L31.2074 39.9982H22.2577L20.9606 43.266C27.9642 48.7991 38.8153 52.3525 50.9988 52.3525C62.4886 52.3525 72.7885 49.1943 79.7993 44.1942H68.4042L66.9286 24.8848H63.9885L64.5121 34.7307H55.2182V44.1878" fill="#E21E31"/>
<path d="M21.4749 13.3622H36.3431L41.4715 29.1301L41.9187 13.3724H80.5358C76.1163 10.0289 70.2632 7.44788 63.5643 5.99523V8.53801H59.6403V5.28888C58.6084 5.13971 57.5586 5.01816 56.4957 4.92211V10.6898H52.573V4.70111C52.0494 4.68836 51.5279 4.67773 51.0005 4.67773C50.4726 4.67773 49.949 4.68793 49.428 4.70111V10.6906H45.5027V4.92253C44.4398 5.01858 43.3921 5.14056 42.3602 5.28931V8.53843H38.4362V5.99566C31.7408 7.44831 25.8928 10.0217 21.4749 13.3622Z" fill="#E21E31"/>
<path d="M79.9213 18.1522L81.7858 32.7093H88.6512C89.0414 31.348 89.245 29.948 89.245 28.5141C89.245 24.052 87.2755 19.8777 83.8521 16.3047L79.9213 18.1522Z" fill="#E21E31"/>
<path d="M20.9411 17.7467L18.0341 16.4258C14.6808 19.9699 12.7547 24.103 12.7547 28.5132C12.7547 29.2472 12.8091 29.9731 12.9141 30.6913L20.9411 17.7467Z" fill="#E21E31"/>
<path d="M62.0156 25.5735L62.3216 31.2723H52.7842V40.8501H33.5262L32.5822 36.7169H21.0507L18.9529 40.8501H8.68408L22.8051 18.0739H25.9896L19.1969 14.9485H34.8228L42.6713 38.3638H42.9901L43.7525 14.9485H66.2163L66.7034 21.2839H52.7842V25.5735H62.0156ZM93.6887 40.8505H70.1803L68.1475 14.9434H82.3744L75.0809 18.0769H78.0496L80.1265 34.3191H92.1413L93.6887 40.8505Z" fill="white"/>
<path d="M29.1555 21.6914H28.6408L23.4622 31.993H31.4998L29.1555 21.6914Z" fill="#00529B"/>
<path d="M50.9987 2.1543C27.8184 2.1543 9.02533 13.9493 9.02533 28.5C9.02533 30.7168 9.4635 32.8699 10.2859 34.9277L12.2974 31.6837C12.0955 30.648 11.9906 29.5889 11.9906 28.5128C11.9906 17.0892 23.7324 7.44384 39.8365 4.33795V7.14464H40.9568V4.1348C42.8859 3.80287 44.8719 3.56232 46.9047 3.42675V9.30152H48.025V3.36002C49.0076 3.312 49.9983 3.2882 50.9992 3.2882C52.0009 3.2882 52.9928 3.312 53.9729 3.36002V9.30194H55.0957V3.42717C57.1285 3.56275 59.1145 3.8033 61.0436 4.13522V7.14507H62.1639V4.33837C78.2676 7.44469 90.009 17.0896 90.009 28.5132C90.009 29.9433 89.8212 31.3446 89.4689 32.7084H92.44C92.7898 31.3395 92.9743 29.9331 92.9743 28.5005C92.9734 13.9493 74.182 2.1543 50.9987 2.1543Z" fill="white"/>
<path d="M50.9987 53.7369C38.6414 53.7369 27.6259 50.0216 20.4778 44.2212H17.3196C24.9709 50.6671 37.2075 54.844 50.9987 54.844C64.8129 54.844 77.0665 50.654 84.7152 44.1914H81.5583C74.4128 50.0084 63.3794 53.7369 50.9987 53.7369Z" fill="white"/>
</svg>
