<svg width="62" height="62" viewBox="0 0 62 62" fill="none" xmlns="http://www.w3.org/2000/svg">
<path fill-rule="evenodd" clip-rule="evenodd" d="M0 31V62H31H62V31V0H31H0V31ZM39.463 19.778L40.207 20.5302L37.634 23.0707C34.6572 26.0098 34.559 26.0797 33.903 25.7264C33.6804 25.6065 30.38 22.3908 30.38 22.2938C30.38 22.2084 31.7786 20.8734 31.8981 20.8447C31.9399 20.8346 32.2956 21.2252 32.6884 21.7127C33.0813 22.2002 33.6059 22.8501 33.8542 23.157C34.4074 23.8409 34.3401 23.8446 34.9756 23.095C35.2647 22.754 36.1784 21.6729 37.0059 20.6927C38.2518 19.2167 38.5285 18.9202 38.6148 18.968C38.672 18.9997 39.0538 19.3643 39.463 19.778ZM28.7488 21.217C28.8528 21.3319 28.8633 21.5569 28.892 24.3055L28.923 27.2701L29.0734 27.43C29.2375 27.6049 29.434 27.6291 29.853 27.5261C33.3038 26.678 36.3906 27.3888 37.539 29.2959C38.2757 30.5195 38.2732 30.4939 38.2994 37.1242L38.322 42.8456L38.1378 43.0297L37.9536 43.214H35.557H33.1604L32.9792 43.0328L32.798 42.8516L32.7975 37.8713C32.7969 31.8106 32.8009 31.8455 32.0597 31.4543C31.591 31.2068 30.0429 31.3027 29.2456 31.6285C28.8782 31.7787 28.892 31.5498 28.892 37.4788V42.9099L28.728 43.0619L28.5639 43.214H26.2748C24.8236 43.214 23.9422 43.1906 23.8666 43.1501C23.5439 42.9775 23.56 43.5516 23.56 32.2073V21.6904L23.7355 21.5151C23.9377 21.3128 23.9757 21.3068 25.761 21.1998C28.7359 21.0217 28.5711 21.0206 28.7488 21.217ZM48.205 24.3689C51.3402 24.6372 53.052 26.0336 53.6085 28.7767C53.7382 29.4167 53.8148 39.6315 53.692 39.928C53.3401 40.7776 47.9905 41.6186 44.9723 41.299C41.9049 40.9741 40.1427 39.8176 39.5737 37.756C39.3516 36.9512 39.4394 35.059 39.7333 34.317C40.6708 31.9509 43.5511 30.8352 47.2414 31.4092C48.1914 31.5569 48.4074 31.3658 48.342 30.4355C48.2588 29.2524 47.8601 28.7796 46.7725 28.5741C45.9649 28.4214 43.7773 28.619 42.5433 28.956C41.8548 29.144 41.6952 29.0456 41.4837 28.303C41.3218 27.7338 40.92 26.0292 40.92 25.9107C40.92 25.2622 44.2762 24.4103 47.213 24.3135C47.3494 24.309 47.7958 24.3339 48.205 24.3689ZM17.515 24.5226C20.0395 24.9741 21.4277 26.2841 21.9585 28.7164C22.1256 29.4822 22.2227 39.5022 22.0666 39.8792C21.8772 40.3364 19.6889 40.9476 17.3378 41.1998C11.3038 41.8472 7.86563 40.0655 7.87508 36.2959C7.88439 32.6035 10.912 30.7053 15.666 31.4114C16.6098 31.5515 16.735 31.456 16.738 30.5928C16.7453 28.5186 14.9656 28.0091 11.0473 28.9638C10.1612 29.1795 10.1581 29.1761 9.73508 27.495C9.27272 25.6578 9.27923 25.6311 10.2753 25.3041C12.7742 24.4838 15.595 24.1792 17.515 24.5226ZM14.7075 34.228C12.9692 34.5334 12.3733 36.9503 13.8492 37.7089C14.5928 38.0909 16.2192 38.0985 16.5962 37.7216C16.8226 37.4951 16.8215 34.6943 16.5949 34.4813C16.3373 34.2393 15.3769 34.1104 14.7075 34.228ZM45.8507 34.3627C44.5295 34.8225 44.1367 36.8971 45.2298 37.6427C45.9959 38.1652 47.9276 38.1875 48.2386 37.6774C48.448 37.3339 48.4215 34.8026 48.2059 34.5464C47.9139 34.1994 46.6119 34.0978 45.8507 34.3627Z" fill="#F46C33"/>
</svg>
