<svg width="112" height="45" viewBox="0 0 112 45" fill="none" xmlns="http://www.w3.org/2000/svg">
<path d="M14.7243 0.0390625H7.93073V6.7218H14.7243V0.0390625Z" fill="#231F20"/>
<path d="M25.8609 0.0390625H19.0673V6.7218H25.8609V0.0390625Z" fill="#231F20"/>
<path d="M19.0993 33.8675H48.2299V11.1108H41.4292V27.2982H37.0898V11.1072H30.2998V27.2982H25.9V10.9902C1.59241 11.8553 0.881042 33.9562 0.881042 33.9562H7.87382C9.887 21.5231 19.0993 19.4988 19.0993 19.4988V33.8675Z" fill="#231F20"/>
<path d="M25.8609 38.2383H19.0673V44.921H25.8609V38.2383Z" fill="#231F20"/>
<path d="M37.0934 38.2383H30.2998V44.921H37.0934V38.2383Z" fill="#231F20"/>
<path d="M48.2298 38.2383H41.4362V44.921H48.2298V38.2383Z" fill="#231F20"/>
<path d="M90.2897 0V27.2982H81.8457C81.8457 27.2982 92.8293 11.9935 76.6421 11.1355H69.4465L66.4623 19.7859C70.0868 22.2108 71.1289 27.3691 71.1289 27.3691H62.1728V11.0611H55.4148V34.3532C55.4148 34.3532 55.3614 38.2175 51.3386 38.2175V44.9959C51.3386 44.9959 61.5254 45.4851 62.187 33.9384H97.0869V8.69287C97.0869 8.69287 104.176 10.9122 104.176 19.6263V33.9632L111.087 32.5876V20.6686C111.087 20.6686 111.812 0.595597 90.2897 0ZM76.418 24.462C76.891 21.1153 73.5547 17.7261 73.5547 17.7261L76.1192 17.5488C81.1557 17.7261 76.4144 24.462 76.4144 24.462H76.418Z" fill="#231F20"/>
</svg>
