<svg width="60" height="64" viewBox="0 0 60 64" fill="none" xmlns="http://www.w3.org/2000/svg">
<path d="M24.6003 0.000996206C23.5398 0.0159444 22.9087 0.184577 16.8033 1.58462C13.5258 2.33616 11.2907 2.89356 10.833 3.07329C9.94044 3.42381 8.92009 4.10356 8.4367 4.66808C7.99156 5.18793 7.35594 6.49865 7.16837 7.28512C7.09105 7.6093 6.7516 9.90179 6.41177 12.3795C6.07194 14.8573 5.49627 19.0565 5.13244 21.7109C4.76861 24.3654 4.25433 28.1058 3.99067 30.0229C-0.224494 60.6719 -0.0296015 59.1757 0.0151051 60.3212C0.0619073 61.5208 0.197199 62.0579 0.623127 62.7679C1.14251 63.6336 2.04034 64.0684 3.15704 63.9912C3.47178 63.9695 5.68829 63.5028 8.08454 62.955C13.3427 61.753 13.6946 61.6245 14.8554 60.5056C15.9054 59.4935 16.5724 58.2169 17.0151 56.3608C17.2184 55.5083 18.0007 50.1135 17.9313 50.043C17.9121 50.0235 16.9456 50.2257 15.7853 50.4927C13.3326 51.0571 12.6165 51.1127 12.1261 50.7776C11.2848 50.2027 11.2676 50.4545 13.2294 36.2345C14.1347 29.6721 15.1271 22.4591 15.4359 20.2055C15.7447 17.9519 16.0091 16.0952 16.0247 16.0803C16.0514 16.0545 26.2389 32.0526 26.2923 32.2042C26.3063 32.2437 26.0705 32.3256 25.7696 32.3857C22.865 32.9659 21.1213 34.8699 20.3249 38.3236C20.163 39.0258 18.7891 48.8276 18.8447 48.8839C18.8597 48.8992 22.3784 48.1112 26.6638 47.1327C30.9491 46.1542 34.501 45.3513 34.5571 45.3508C34.6133 45.3502 35.3407 46.4267 36.1749 47.7416C38.0532 50.7026 38.3501 51.1137 39.2673 52.0205C40.4464 53.1861 41.6113 53.8592 43.1273 54.2521C43.6432 54.3858 44.0763 54.4202 45.1082 54.4141L46.4288 54.4057L51.1499 53.3192C54.0604 52.6486 56.1139 52.1312 56.4984 51.9702C58.8455 50.9876 60.2803 48.8677 59.954 46.8618C59.899 46.524 59.7596 46.034 59.6458 45.7753C59.4873 45.415 45.3118 23.0192 34.6974 6.36065C33.468 4.43107 33.0228 3.82432 32.1718 2.9141C30.9698 1.62846 29.3861 0.632134 27.8523 0.199307C27.2368 0.0256063 26.9371 0.00250281 25.4752 0.00379511C25.1121 0.00418087 24.8451 -0.00245341 24.6003 0.000999149V0.000996206Z" fill="#EE3D42"/>
</svg>
