<svg width="105" height="33" viewBox="0 0 105 33" fill="none" xmlns="http://www.w3.org/2000/svg">
<g clip-path="url(#clip0)">
<path d="M52.2507 32.68V32.6284C52.3025 32.5638 52.3931 32.5251 52.4707 32.538C52.846 32.5251 53.2084 32.5251 53.5837 32.538C53.6614 32.538 53.752 32.5638 53.8037 32.6284V32.68H52.2507Z" fill="#D1EFFA"/>
<path d="M53.8036 32.628C53.2859 32.6151 52.7682 32.6151 52.2506 32.628C51.5388 32.5893 50.827 32.5634 50.1152 32.5118C48.2258 32.3698 46.3492 32.0857 44.5115 31.6597C38.1572 30.1878 32.5794 27.2312 27.7134 22.9318C27.2605 22.5315 26.8334 22.1184 26.3934 21.7052C26.2899 21.6148 26.1993 21.4857 26.1475 21.3566C26.0699 21.1759 26.1087 20.9822 26.2381 20.8402C26.3675 20.6982 26.5746 20.6465 26.7558 20.724C26.8722 20.7756 26.9887 20.8273 27.0922 20.8918C31.7382 23.7581 36.8113 25.8497 42.1303 27.0891C43.9162 27.5023 45.7151 27.8251 47.5269 28.0575C50.1282 28.3802 52.7553 28.4964 55.3695 28.4061C56.7801 28.3673 58.1778 28.2382 59.5755 28.0575C62.8367 27.6443 66.0592 26.9084 69.1781 25.8755C70.8217 25.3332 72.4264 24.7135 73.9923 23.9905C74.2253 23.8614 74.51 23.8226 74.7688 23.8872C75.1959 23.9905 75.4547 24.4295 75.3512 24.8555C75.3383 24.9072 75.3124 24.9717 75.2865 25.0234C75.183 25.217 75.0406 25.3849 74.8594 25.514C73.3711 26.676 71.7664 27.696 70.0711 28.5481C66.8745 30.162 63.4579 31.3111 59.9378 31.9695C57.906 32.331 55.8613 32.5505 53.8036 32.628Z" fill="#00A8E1"/>
<path d="M34.6372 6.45727C34.9607 6.2636 35.2972 6.05702 35.6466 5.87627C36.5525 5.41147 37.5619 5.17907 38.5843 5.23071C39.322 5.26945 39.9949 5.47602 40.5126 6.01829C41.0044 6.52182 41.1856 7.14155 41.2373 7.81293C41.2503 7.95495 41.2503 8.09697 41.2503 8.25191V14.9398C41.2503 15.5208 41.1726 15.5983 40.5903 15.5983H39.0114C38.9079 15.5983 38.8043 15.5983 38.7008 15.5854C38.5455 15.5725 38.4161 15.4434 38.3902 15.2884C38.3643 15.1464 38.3643 15.0044 38.3643 14.8624V8.88455C38.3773 8.63924 38.3514 8.40684 38.2867 8.17444C38.1831 7.7742 37.8208 7.49015 37.4066 7.46433C36.6431 7.41269 35.8795 7.56762 35.1807 7.8904C35.0772 7.91622 35.0125 8.01951 35.0254 8.1228V14.914C35.0254 15.0431 35.0254 15.1593 34.9995 15.2884C34.9995 15.4692 34.8572 15.5983 34.676 15.5983C34.4819 15.6112 34.2877 15.6112 34.0807 15.6112H32.7089C32.23 15.6112 32.1265 15.495 32.1265 15.0173V8.91037C32.1265 8.69088 32.1136 8.45849 32.0618 8.239C31.9712 7.80002 31.5959 7.49015 31.1559 7.46433C30.3794 7.41269 29.59 7.56762 28.8911 7.90331C28.7876 7.92913 28.7229 8.04533 28.7488 8.14862V15.0302C28.7488 15.5079 28.6452 15.6112 28.1664 15.6112H26.4322C25.9793 15.6112 25.8628 15.4821 25.8628 15.0431V6.08285C25.8628 5.97956 25.8757 5.87627 25.9016 5.77298C25.9534 5.61805 26.1087 5.52767 26.264 5.52767H27.8817C28.1146 5.52767 28.257 5.66969 28.3346 5.88918C28.3993 6.06993 28.4382 6.23778 28.5029 6.43145C28.6323 6.43145 28.7099 6.34107 28.8005 6.28942C29.5123 5.85045 30.2629 5.47603 31.1041 5.32109C31.7512 5.19198 32.3983 5.19198 33.0453 5.32109C33.6536 5.4502 34.1971 5.81171 34.5466 6.32816C34.5724 6.36689 34.5983 6.39271 34.6242 6.41853C34.6113 6.43145 34.6242 6.43145 34.6372 6.45727Z" fill="#00A8E1"/>
<path d="M61.465 12.8872C61.5426 12.629 61.6203 12.3837 61.6979 12.1255C62.2932 10.1243 62.8885 8.13597 63.4839 6.13475L63.5615 5.90235C63.6262 5.66995 63.8462 5.52793 64.0792 5.52793H66.0463C66.538 5.52793 66.6416 5.66995 66.4733 6.13475L65.6969 8.18761C64.8298 10.4341 63.9627 12.6936 63.0956 14.9401C63.0697 15.0176 63.0309 15.095 63.005 15.1725C62.9144 15.4436 62.6427 15.6244 62.3579 15.5986C61.7885 15.5857 61.2191 15.5857 60.6497 15.5986C60.2485 15.6115 60.0155 15.4307 59.8732 15.0692C59.5496 14.2171 59.2132 13.352 58.8896 12.4999C58.1131 10.4729 57.3237 8.44583 56.5472 6.40588C56.4696 6.25095 56.4178 6.07019 56.379 5.90235C56.3401 5.64413 56.4307 5.51502 56.6896 5.51502C57.4272 5.5021 58.1649 5.51502 58.8896 5.51502C59.2002 5.51502 59.3426 5.72159 59.4202 5.99273C59.5626 6.48335 59.7049 6.98688 59.8602 7.4775C60.3908 9.27214 60.9085 11.0797 61.4391 12.8743C61.4262 12.8872 61.4391 12.8872 61.465 12.8872Z" fill="#232F3E"/>
<path d="M15.5097 6.94781C15.6003 6.92198 15.678 6.87034 15.7297 6.79287C15.9627 6.56047 16.2086 6.34099 16.4674 6.13441C17.1403 5.61797 17.9815 5.35974 18.8227 5.4243C19.1592 5.43721 19.2757 5.5405 19.3016 5.86328C19.3275 6.30225 19.3145 6.75414 19.3145 7.19312C19.3275 7.37387 19.3145 7.54172 19.2886 7.72247C19.2369 7.95487 19.1463 8.04525 18.9133 8.07107C18.7322 8.08398 18.5639 8.07107 18.3827 8.05816C17.5157 7.98069 16.6745 8.14854 15.8591 8.41967C15.678 8.48423 15.678 8.61334 15.678 8.75536V14.9527C15.678 15.0689 15.678 15.1722 15.665 15.2884C15.6521 15.4562 15.5227 15.5853 15.3544 15.5853C15.2638 15.5982 15.1603 15.5982 15.0697 15.5982H13.3873C13.2967 15.5982 13.1932 15.5982 13.1026 15.5853C12.9344 15.5724 12.8049 15.4304 12.792 15.2625C12.7791 15.1593 12.7791 15.056 12.7791 14.9527V6.17314C12.7791 5.57923 12.8438 5.51468 13.4391 5.51468H14.6815C15.0179 5.51468 15.1732 5.63088 15.2638 5.95365C15.3544 6.27643 15.4321 6.59921 15.5097 6.94781Z" fill="#00A8E1"/>
<path d="M76.0501 20.0396C76.9043 20.0654 77.7455 20.117 78.5737 20.3365C78.8067 20.4011 79.0267 20.4785 79.2467 20.5818C79.5443 20.698 79.7385 20.9821 79.7773 21.2919C79.8291 21.6534 79.842 22.0279 79.8161 22.4023C79.6479 24.6101 78.962 26.7404 77.8231 28.6383C77.409 29.3226 76.9043 29.9424 76.3219 30.4846C76.2054 30.6008 76.0631 30.6912 75.9078 30.7428C75.6619 30.8074 75.5066 30.6783 75.4936 30.433C75.5066 30.3039 75.5325 30.1748 75.5842 30.0456C76.0372 28.832 76.4772 27.6313 76.8266 26.3789C77.0337 25.6946 77.176 24.9974 77.2666 24.2873C77.2925 24.0291 77.3055 23.7709 77.2796 23.5126C77.2666 23.0737 76.9819 22.6992 76.5549 22.5701C76.1537 22.441 75.7395 22.3635 75.3125 22.3377C74.1218 22.2861 72.9312 22.3377 71.7535 22.4927L70.1876 22.6863C70.0194 22.6992 69.8641 22.6863 69.7735 22.5314C69.6829 22.3765 69.7217 22.2215 69.8123 22.0666C69.9158 21.9246 70.0453 21.7955 70.2006 21.7051C71.1582 21.0208 72.2324 20.6076 73.3712 20.3365C74.2513 20.1558 75.1442 20.0654 76.0501 20.0396Z" fill="#00A8E1"/>
<path d="M70.6277 10.5632V15.2111C70.6018 15.4694 70.4853 15.5856 70.2265 15.5985C69.5276 15.6114 68.8417 15.6114 68.1429 15.5985C67.8841 15.5985 67.7676 15.4694 67.7417 15.2241C67.7288 15.1466 67.7288 15.0562 67.7288 14.9787V6.04428C67.7417 5.64403 67.8452 5.52783 68.2464 5.52783H70.11C70.5112 5.52783 70.6277 5.64403 70.6277 6.04428V10.5632Z" fill="#232F3E"/>
<path d="M20.5569 10.5375V5.95403C20.5698 5.64416 20.6863 5.52797 20.9969 5.51505C21.6699 5.50214 22.3428 5.50214 23.0158 5.51505C23.3134 5.51505 23.404 5.60543 23.4299 5.90239C23.4429 6.01859 23.4428 6.12188 23.4428 6.23807V14.8369C23.4428 14.9789 23.4299 15.1209 23.417 15.2629C23.404 15.4308 23.2746 15.547 23.1064 15.5599C23.0287 15.5728 22.964 15.5728 22.8864 15.5728H21.0875C21.0228 15.5728 20.971 15.5728 20.9063 15.5599C20.7251 15.547 20.5698 15.4049 20.5569 15.2242C20.5439 15.1209 20.5439 15.0176 20.5439 14.9143C20.5569 13.4812 20.5569 12.0093 20.5569 10.5375Z" fill="#00A8E1"/>
<path d="M22.0581 0.892122C22.2652 0.879211 22.4723 0.917944 22.6664 0.9825C23.3652 1.2149 23.7276 1.82172 23.6629 2.6093C23.6111 3.28067 23.1064 3.82294 22.4334 3.92623C22.1487 3.97787 21.8511 3.97787 21.5664 3.92623C20.8287 3.7842 20.2851 3.24194 20.3369 2.31234C20.4146 1.39565 21.0228 0.892122 22.0581 0.892122Z" fill="#00A8E1"/>
<path d="M69.1912 0.892323C69.45 0.8665 69.7088 0.918145 69.9547 1.02143C70.4595 1.2151 70.8089 1.6799 70.8348 2.22216C70.9383 3.39707 70.1489 3.99098 69.1006 3.96516C68.9582 3.96516 68.8159 3.93934 68.6735 3.91352C67.8711 3.71985 67.457 3.10012 67.5346 2.20925C67.5993 1.49914 68.1558 0.969789 68.9194 0.905234C69.01 0.892323 69.1006 0.879411 69.1912 0.892323Z" fill="#232F3E"/>
<path d="M10.8637 9.47849C10.8119 8.80711 10.6307 8.14864 10.3589 7.54182C9.82833 6.43147 9.01302 5.61807 7.77063 5.33403C6.34706 5.02416 5.06585 5.33403 3.90111 6.19907C3.82346 6.27654 3.73287 6.34109 3.62934 6.39274C3.60346 6.37982 3.57757 6.36691 3.57757 6.354C3.53875 6.22489 3.51287 6.09578 3.47404 5.96667C3.37051 5.64389 3.24109 5.52769 2.89167 5.52769C2.50343 5.52769 2.10224 5.5406 1.71399 5.52769C1.41634 5.51478 1.14456 5.55351 0.9375 5.78591C0.9375 10.3048 0.9375 14.8366 0.950442 19.3426C1.11868 19.6137 1.37751 19.6653 1.67517 19.6524C2.14106 19.6395 2.60696 19.6524 3.07285 19.6524C3.88817 19.6524 3.88817 19.6524 3.88817 18.8519V15.1723C3.88817 15.0819 3.84935 14.9786 3.93994 14.9011C4.58701 15.4047 5.37645 15.7145 6.19176 15.792C7.33062 15.9082 8.36594 15.6242 9.23302 14.8495C9.86716 14.2685 10.3331 13.5197 10.5789 12.6933C10.9284 11.6346 10.9542 10.563 10.8637 9.47849ZM7.77063 12.1511C7.68004 12.5513 7.47297 12.9128 7.17532 13.184C6.83884 13.468 6.42471 13.6359 5.9847 13.6359C5.32468 13.6746 4.6776 13.5326 4.09523 13.2227C3.95288 13.1581 3.86229 13.0161 3.87523 12.8612V10.5243C3.87523 9.74962 3.88817 8.97495 3.87523 8.20029C3.86229 8.01953 3.96582 7.8646 4.13406 7.80004C4.84584 7.46435 5.58351 7.30942 6.36 7.46436C6.90355 7.54182 7.36944 7.89042 7.58945 8.39395C7.78357 8.80711 7.90004 9.259 7.92593 9.71089C8.00358 10.5372 8.00358 11.3635 7.77063 12.1511Z" fill="#00A8E1"/>
<path d="M104.496 9.76278V9.81443C104.444 9.76278 104.418 9.68532 104.444 9.62076V9.51747C104.444 9.51747 104.444 9.50456 104.457 9.50456H104.444V9.37545H104.47C104.47 9.36254 104.457 9.36254 104.457 9.34963C104.431 9.10432 104.379 8.85901 104.315 8.62661C103.836 6.92234 102.762 5.79908 101.015 5.3601C100.199 5.16644 99.3709 5.14061 98.5427 5.26973C96.7956 5.52795 95.5403 6.45754 94.932 8.11016C94.3367 9.68532 94.3496 11.4154 94.945 12.9906C95.4626 14.4237 96.4979 15.3275 97.9862 15.7019C98.7756 15.8955 99.6039 15.9472 100.419 15.831C103.137 15.5082 104.263 13.4554 104.444 11.6736H104.431V11.4929C104.418 11.4154 104.405 11.3508 104.483 11.2992V11.325C104.483 11.3121 104.496 11.2863 104.509 11.2734V9.7886C104.509 9.77569 104.496 9.77569 104.496 9.76278ZM101.39 12.2159C101.312 12.487 101.196 12.7323 101.027 12.9647C100.743 13.365 100.29 13.6232 99.798 13.6619C99.5521 13.6878 99.3062 13.6878 99.0603 13.6361C98.5168 13.5328 98.0638 13.1713 97.8438 12.6678C97.6497 12.2675 97.5332 11.8286 97.4944 11.3896C97.4297 10.6278 97.4168 9.86607 97.598 9.11723C97.6627 8.82027 97.7921 8.52332 97.9474 8.2651C98.2321 7.8003 98.7239 7.50334 99.2674 7.46461C99.5133 7.43879 99.7592 7.43879 100.005 7.49043C100.523 7.59372 100.95 7.92941 101.183 8.40712C101.403 8.85901 101.532 9.36254 101.558 9.86607C101.571 10.0985 101.584 10.3309 101.571 10.5633C101.61 11.1314 101.545 11.6865 101.39 12.2159Z" fill="#232F3E"/>
<path d="M81.8091 0.98291H80.0102C79.5184 0.98291 79.4278 1.07329 79.4278 1.56391V5.7471C79.4278 5.83748 79.4666 5.92786 79.4019 6.01823C79.2855 6.00532 79.2208 5.92786 79.1302 5.87621C77.7842 5.08863 76.3736 4.94661 74.9501 5.60508C73.9536 6.06988 73.3324 6.9091 72.9312 7.90325C72.5429 8.85867 72.4523 9.86574 72.4782 10.8857C72.4782 11.8411 72.6982 12.7836 73.1253 13.6358C73.6171 14.5783 74.3289 15.3013 75.3642 15.6112C76.7748 16.0501 78.0948 15.8307 79.2984 14.9398C79.389 14.8881 79.4408 14.7978 79.5572 14.7719C79.6219 14.914 79.6737 15.0689 79.6996 15.2238C79.7514 15.4304 79.9325 15.5724 80.1525 15.5724H80.4631C80.929 15.5724 81.382 15.5853 81.8349 15.5724C82.1973 15.5724 82.3008 15.4562 82.3138 15.0818V1.47353C82.3008 1.07329 82.1973 0.98291 81.8091 0.98291ZM79.4408 10.4855V12.8353C79.4666 12.9902 79.376 13.1322 79.2337 13.1968C78.6125 13.5454 77.9007 13.6874 77.2019 13.5841C76.6066 13.5196 76.0889 13.1581 75.8171 12.6287C75.6101 12.2156 75.4936 11.7766 75.4548 11.3247C75.3512 10.5113 75.4159 9.68498 75.6101 8.8974C75.6748 8.67792 75.7524 8.47134 75.8689 8.26476C76.1407 7.76123 76.6583 7.43845 77.2278 7.39972C77.9137 7.33516 78.5996 7.46427 79.2208 7.74832C79.3761 7.79996 79.4666 7.95489 79.4537 8.12274C79.4278 8.92323 79.4408 9.69789 79.4408 10.4855Z" fill="#232F3E"/>
<path d="M45.9738 11.3767C46.9445 11.5574 47.941 11.5703 48.9116 11.4154C49.481 11.3379 50.0245 11.1701 50.5293 10.899C51.1116 10.5633 51.5387 10.0985 51.7199 9.45292C52.1728 7.82612 51.474 6.18641 49.7786 5.57959C48.9504 5.30846 48.0704 5.21808 47.2033 5.33428C45.1585 5.56668 43.8255 6.68994 43.2173 8.63952C42.7902 9.96936 42.842 11.325 43.1914 12.6678C43.6444 14.3849 44.7832 15.4049 46.5044 15.7664C47.488 15.9859 48.4845 15.9472 49.4681 15.7923C49.9857 15.7019 50.5034 15.5728 50.9952 15.3791C51.2928 15.2629 51.4481 15.0821 51.4352 14.7465C51.4222 14.4366 51.4352 14.1138 51.4352 13.791C51.4352 13.4037 51.2799 13.2875 50.9046 13.3779C50.5293 13.4683 50.1669 13.5457 49.7916 13.6232C48.9892 13.791 48.161 13.791 47.3586 13.649C46.2586 13.4295 45.5468 12.487 45.6115 11.325C45.728 11.3379 45.8574 11.3508 45.9738 11.3767ZM45.6503 9.40127C45.6891 9.0914 45.7797 8.79445 45.8962 8.51041C46.2844 7.5679 47.0998 7.24512 47.928 7.29676C48.161 7.30968 48.3939 7.36132 48.6139 7.4517C48.9504 7.59372 49.1704 7.90359 49.2092 8.2651C49.248 8.48458 49.2351 8.71698 49.1704 8.93647C49.0151 9.40127 48.6398 9.59494 48.1868 9.68531C47.9151 9.74987 47.6304 9.77569 47.3456 9.74987C46.8409 9.74987 46.3233 9.71114 45.8185 9.63367C45.6244 9.60785 45.6244 9.60785 45.6503 9.40127Z" fill="#00A8E1"/>
<path d="M89.6259 11.5058C90.3765 11.4542 91.1271 11.3122 91.8001 10.9507C92.486 10.615 92.9648 9.98234 93.1072 9.2335C93.1978 8.7687 93.1978 8.27808 93.0942 7.81328C92.8225 6.65128 92.0848 5.92826 90.9718 5.55384C90.3506 5.36017 89.6906 5.28271 89.0435 5.30853C86.8694 5.36017 85.2128 6.45761 84.5399 8.62668C84.0869 10.0598 84.1516 11.5188 84.5917 12.9519C85.0446 14.4238 86.0799 15.3146 87.5553 15.7149C88.1894 15.8698 88.8494 15.9344 89.4965 15.9085C90.4412 15.8956 91.386 15.7149 92.2789 15.3792C92.6542 15.2372 92.7448 15.108 92.7448 14.7078V13.7782C92.7319 13.4038 92.5766 13.2747 92.2013 13.365C91.9166 13.4425 91.6448 13.5071 91.3601 13.5716C90.493 13.7782 89.5871 13.8169 88.7071 13.662C87.827 13.4942 87.2317 12.9906 86.9988 12.1127C86.9341 11.8544 86.8823 11.5962 86.8564 11.3251C86.9211 11.3251 86.9858 11.3251 87.0376 11.3509C87.8917 11.5058 88.7588 11.5704 89.6259 11.5058ZM86.9211 9.44008C87.0117 8.93654 87.1282 8.44592 87.4388 8.03277C87.9176 7.40012 88.5776 7.21937 89.3283 7.29684C89.393 7.29684 89.4447 7.32266 89.5094 7.32266C90.4153 7.46468 90.6354 8.1877 90.4671 8.8849C90.3377 9.40134 89.9106 9.59501 89.4318 9.68539C89.173 9.73703 88.9012 9.76285 88.6294 9.74994C88.0988 9.73703 87.5812 9.6983 87.0635 9.62083C86.947 9.60792 86.8953 9.55628 86.9211 9.44008Z" fill="#232F3E"/>
</g>
<defs>
<clipPath id="clip0">
<rect width="103.571" height="31.8" fill="white" transform="translate(0.9375 0.879883)"/>
</clipPath>
</defs>
</svg>
