<svg width="95" height="54" viewBox="0 0 95 54" fill="none" xmlns="http://www.w3.org/2000/svg">
<g clip-path="url(#clip0)">
<path d="M51.5267 16.5431C51.5267 16.5431 47.8053 30.4538 47.4941 31.9381L43.4357 16.5431H35.7563V37.8979H40.784V22.1932L45.1829 37.8979H49.8184C49.8184 37.8979 54.1037 22.6869 54.2107 22.2287V37.8979H59.2579V16.5431H51.5267Z" fill="black"/>
<path d="M27.9807 29.7466C27.9807 30.3791 27.9807 31.0051 27.6825 31.6343C27.1314 32.896 25.3097 34.0738 22.7261 34.0738C20.6936 34.0738 19.2933 33.2348 19.2933 31.5924C19.2933 29.3723 21.3971 28.8722 23.2188 28.6431C25.5106 28.3623 27.9807 28.2784 27.9807 28.2784V29.7466ZM33.0635 34.49V23.3608C33.0635 21.0924 33.0214 19.1176 30.5189 17.6075C28.6582 16.5136 26.2011 16.2619 24.1621 16.2619C22.8072 16.2619 17.7697 16.2619 15.7308 19.9178C15.0727 21.1085 14.9755 21.9765 14.888 22.993V22.9994L20.0972 22.993C20.1037 22.5251 20.1685 22.0443 20.6061 21.5119C21.1183 20.8407 22.2561 20.1695 24.3793 20.1695C28.5577 20.1695 27.9418 24.345 27.9418 24.345C27.9418 24.345 25.8543 24.3708 21.41 24.9161C19.3581 25.1678 16.1165 25.9648 14.5897 28.9883C14.1586 29.8338 13.9058 30.7986 13.9058 31.844C13.9058 35.458 16.794 38.4009 21.5786 38.4009C24.4993 38.4009 26.7522 37.1812 27.8478 36.2583C27.8478 36.5519 27.9354 37.3941 27.9807 37.8975H33.1543C33.0635 34.49 33.0635 36.0873 33.0635 34.49Z" fill="black"/>
<path d="M81.5809 29.6035L76.6505 29.61C76.4981 30.2005 75.4705 34.0533 71.6293 34.0533C71.5774 34.0533 70.9647 34.0533 70.8999 34.05C68.0765 33.9629 65.7652 31.6332 65.7652 27.0382C65.7652 23.5113 67.5449 20.3426 70.9453 20.262H71.6293C75.1431 20.262 76.3782 23.9082 76.4528 24.1309L81.3735 24.147C80.4172 19.594 76.8255 15.8768 71.3862 15.8768C65.2855 15.8768 60.9482 20.8686 60.9482 27.1899C60.9482 34.4211 65.5578 38.5288 71.2597 38.5288C77.6165 38.5288 80.9099 33.7112 81.5809 29.6035Z" fill="black"/>
<path d="M89.6983 49.4141H5.01839V5.54273H89.6983V49.4141ZM0.25 53.9801H94.3826V0.97998H0.25V53.9801Z" fill="black"/>
</g>
<defs>
<clipPath id="clip0">
<rect width="94.1338" height="53" fill="white" transform="translate(0.25 0.97998)"/>
</clipPath>
</defs>
</svg>
