<svg width="120" height="71" viewBox="0 0 120 71" fill="none" xmlns="http://www.w3.org/2000/svg">
<g clip-path="url(#clip0)">
<path d="M117.746 56.6321V58.7204H119.736V60.9759H117.746V64.4844C117.746 65.2015 118.036 65.5519 118.883 65.5519C119.263 65.5519 119.753 65.4233 119.753 65.4233L120 67.5111C120 67.5111 119.362 67.772 118.19 67.772C116.003 67.772 114.843 66.6864 114.843 64.6514V60.9759H113.549V58.7204H114.843V56.6321H117.746ZM108.307 58.3936C105.591 58.3936 103.636 60.1621 103.636 63.0977C103.636 65.9689 105.611 67.7966 108.835 67.7966C110.426 67.7966 111.997 67.0813 111.997 67.0813L111.36 65.0034C111.36 65.0034 110.288 65.5568 109.069 65.5568C107.537 65.5568 106.824 64.6893 106.632 63.9018H112.936C113.025 60.9049 111.794 58.3936 108.307 58.3936ZM108.431 60.5029C109.437 60.5029 110.164 61.2135 110.294 62.1475H106.586C106.689 61.1438 107.607 60.5029 108.431 60.5029ZM93.3622 67.4917V58.7204H96.2318V59.8709C96.2318 59.8709 97.1857 58.3861 99.2935 58.3861C101.675 58.3861 102.485 59.9068 102.485 61.8113V67.4917H99.6157V62.8137C99.6157 61.335 99.049 60.7263 98.1048 60.7263C97.0235 60.7263 96.2318 61.6677 96.2318 63.1478V67.4917H93.3622ZM71.4355 58.3936C74.1496 58.3936 75.8364 60.6003 75.8364 63.0299C75.8364 65.8283 73.8252 67.807 71.3888 67.807C69.5934 67.807 68.4808 66.4914 68.4808 66.4914V71.0001H65.6298V58.7226H68.4808V59.8085C68.4808 59.8085 69.45 58.3936 71.4355 58.3936ZM70.5957 60.8162C69.3063 60.8162 68.3979 62.1044 68.3979 63.0769C68.3979 64.4087 69.4284 65.3167 70.5957 65.3167C71.7068 65.3167 72.8558 64.5599 72.8558 63.0925C72.8558 61.9307 71.9045 60.8162 70.5957 60.8162ZM76.9866 67.4917V55.2118H79.8895V67.4917H76.9866ZM85.5099 58.3936C82.7957 58.3936 81.109 60.6003 81.109 63.0299C81.109 65.8283 83.1202 67.807 85.5565 67.807C87.3519 67.807 88.4645 66.4914 88.4645 66.4914V67.4938H91.3155V58.7226H88.4645V59.8085C88.4645 59.8085 87.4953 58.3936 85.5099 58.3936ZM86.3496 60.8162C87.6391 60.8162 88.5475 62.1044 88.5475 63.0769C88.5475 64.4087 87.517 65.3167 86.3496 65.3167C85.2386 65.3167 84.0896 64.5599 84.0896 63.0925C84.0896 61.9307 85.0408 60.8162 86.3496 60.8162ZM56.9718 67.4917V55.2118H59.8746V67.4917H56.9718ZM49.1291 58.3936C46.4149 58.3936 44.7282 60.6003 44.7282 63.0299C44.7282 65.8283 46.7394 67.807 49.1757 67.807C50.9711 67.807 52.0837 66.4914 52.0837 66.4914V67.4938H54.9347V58.7226H52.0837V59.8085C52.0837 59.8085 51.1145 58.3936 49.1291 58.3936ZM49.9688 60.8162C51.2583 60.8162 52.1667 62.1044 52.1667 63.0769C52.1667 64.4087 51.1362 65.3167 49.9688 65.3167C48.8578 65.3167 47.7088 64.5599 47.7088 63.0925C47.7088 61.9307 48.66 60.8162 49.9688 60.8162ZM37.2962 63.3149V67.4917H34.4265V62.8137C34.4265 61.335 33.8598 60.7263 32.9156 60.7263C31.8343 60.7263 31.0426 61.6677 31.0426 63.1478V67.4917H28.173V58.7204H31.0426V59.8709C31.0426 59.8709 31.9965 58.3861 34.1043 58.3861C35.5653 58.3861 36.4349 58.9582 36.8889 59.8402C36.8889 59.8402 37.8263 58.377 40.2355 58.377C42.4952 58.377 43.5994 59.7617 43.5994 61.6442V67.4917H40.7298V62.8137C40.7298 61.6729 40.2839 60.6991 39.2178 60.6991C38.1282 60.6991 37.2962 61.6885 37.2962 63.3149ZM26.4089 55.4673C26.4089 55.9181 26.2311 56.3504 25.9146 56.6691C25.5982 56.9879 25.1689 57.167 24.7214 57.167C24.2738 57.167 23.8446 56.9879 23.5281 56.6691C23.2116 56.3504 23.0338 55.9181 23.0338 55.4673C23.0338 55.0165 23.2116 54.5842 23.5281 54.2654C23.8446 53.9467 24.2738 53.7676 24.7214 53.7676C25.1689 53.7676 25.5982 53.9467 25.9146 54.2654C26.2311 54.5842 26.4089 55.0165 26.4089 55.4673ZM23.2465 67.4917V58.7204H26.1493V67.4917H23.2465ZM12.2489 67.4917V58.7204H15.1186V59.8709C15.1186 59.8709 16.0724 58.3861 18.1802 58.3861C20.5621 58.3861 21.3721 59.9068 21.3721 61.8113V67.4917H18.5024V62.8137C18.5024 61.335 17.9357 60.7263 16.9915 60.7263C15.9102 60.7263 15.1186 61.6677 15.1186 63.1478V67.4917H12.2489ZM4.40089 58.3936C1.68673 58.3936 0 60.6003 0 63.0299C0 65.8283 2.01118 67.807 4.44755 67.807C6.24295 67.807 7.35556 66.4914 7.35556 66.4914V67.4938H10.2066V58.7226H7.35556V59.8085C7.35556 59.8085 6.38635 58.3936 4.40089 58.3936ZM5.24064 60.8162C6.53012 60.8162 7.4385 62.1044 7.4385 63.0769C7.4385 64.4087 6.40802 65.3167 5.24064 65.3167C4.12962 65.3167 2.98058 64.5599 2.98058 63.0925C2.98058 61.9307 3.93185 60.8162 5.24064 60.8162Z" fill="black"/>
<path d="M67.1844 0V13.9187C67.1844 13.9187 69.3305 15.6879 70.3513 17.1084C65.094 13.6538 59.5086 12.2027 52.7169 12.2027C41.5368 12.2027 31.3574 17.4199 26.3318 26.0553L26.9805 27.2833C26.9805 27.2833 29.1672 24.6352 34.2199 22.038C28.7011 27.5214 26.3896 31.8956 22.9963 41.9815L28.379 47.3806C35.4217 39.444 45.7834 34.2 57.4806 34.2C68.5488 34.2 78.7405 39.1893 85.1122 45.8221L90.9104 39.9646C87.66 34.3618 83.4393 29.1944 80.0844 25.6067C83.5555 27.6033 89.0973 28.7452 94.3909 28.7452C103.652 28.7452 110.457 23.7229 110.457 16.8848C110.457 8.46114 103.286 3.33472 91.5904 1.38543L89.6991 4.58135C95.585 5.63855 104.742 9.08898 104.742 15.2529C104.742 18.6342 102.145 21.4703 98.403 21.4703C93.7786 21.4703 89.9382 16.2762 87.6045 11.6895L84.0329 11.6029C79.9337 6.49377 73.3067 1.50805 67.1844 0Z" fill="#0074FF"/>
</g>
<defs>
<clipPath id="clip0">
<rect width="120" height="71" fill="white"/>
</clipPath>
</defs>
</svg>
