<svg width="60" height="67" viewBox="0 0 60 67" fill="none" xmlns="http://www.w3.org/2000/svg">
<path d="M0.541537 33.57C0.541537 29.4974 0.541537 25.4247 0.541537 21.3521C0.541537 17.8463 2.05347 15.2181 4.95209 13.472C11.7424 9.38566 18.552 5.34351 25.3811 1.34555C26.7776 0.465845 28.3859 0 30.0265 0C31.6671 0 33.2754 0.465845 34.6719 1.34555C41.3996 5.27342 48.1093 9.24244 54.8012 13.2526C58.0443 15.1952 59.6546 18.148 59.6546 22.0058C59.6546 29.6756 59.677 37.3455 59.6546 45.0154C59.6546 48.896 58.1203 51.9082 54.7028 53.8874C48.5432 57.4618 42.4463 61.155 36.2957 64.7477C32.158 67.1657 27.9577 67.1794 23.8155 64.7477C17.553 61.091 11.2906 57.4344 5.06392 53.6543C2.12057 51.8625 0.483386 49.2114 0.541537 45.5822C0.608635 41.569 0.541537 37.574 0.541537 33.57ZM18.8816 42.4283C20.1385 41.8889 20.975 41.6649 21.6639 41.2079C23.4934 39.992 25.2424 38.6528 27.0317 37.4003C29.4204 35.7411 30.6863 35.7594 33.0168 37.4003C34.7032 38.5979 36.3628 39.832 38.067 40.9976C40.3931 42.5883 42.4597 42.3689 43.8151 40.4034C45.0273 38.6573 44.5889 36.5822 42.5 34.9504C39.497 32.6101 36.4582 30.3247 33.3836 28.0941C31.4154 26.668 29.0759 26.4989 27.1748 27.7787C23.5337 30.2287 20.0849 32.9941 16.6808 35.7823C15.3388 36.8701 15.2628 38.671 16.1127 40.0697C16.7434 41.0799 17.9869 41.6878 18.8816 42.4283Z" fill="#3B0087"/>
<path d="M18.8821 42.4284C17.9875 41.6879 16.7439 41.08 16.1311 40.079C15.2812 38.6803 15.3662 36.8794 16.6992 35.7916C20.1033 33.0033 23.5521 30.238 27.1933 27.788C29.0944 26.5082 31.4339 26.6773 33.4021 28.1034C36.4766 30.3431 39.5154 32.6285 42.5184 34.9597C44.6074 36.5914 45.0458 38.6666 43.8335 40.4127C42.4916 42.3599 40.4115 42.5975 38.0855 41.0069C36.3812 39.8413 34.7217 38.6072 33.0353 37.4096C30.7047 35.7504 29.4567 35.7321 27.0502 37.4096C25.2609 38.662 23.494 40.0013 21.6823 41.2171C20.9935 41.6742 20.157 41.8982 18.9 42.4376" fill="white"/>
</svg>
