<svg width="76" height="77" viewBox="0 0 76 77" fill="none" xmlns="http://www.w3.org/2000/svg">
<path d="M75.7624 76.0013H0.233964C0.05726 75.6744 0.144662 75.3191 0.144662 74.979C0.144662 50.4673 0.144662 25.9568 0.144662 1.44753C0.144662 1.10362 0.0895606 0.754011 0.203563 0.413904C0.503769 0.159299 0.864776 0.241 1.20298 0.241C25.7122 0.241 50.2227 0.241 74.7345 0.241C75.8574 0.241 75.8593 0.241 75.8593 1.40952C75.8593 25.9631 75.8593 50.5186 75.8593 75.0759C75.8517 75.3837 75.9315 75.7067 75.7624 76.0013Z" fill="#1C3867"/>
<path d="M0.279166 0.432659C0.263965 0.778466 0.235465 1.12237 0.235465 1.46818C0.235465 26.3131 0.235465 51.1574 0.235465 76.001C-0.155943 75.83 0.0587611 75.488 0.0587611 75.241C0.0448275 64.4462 0.0403941 53.6509 0.0454609 42.8548V0.0469512C25.0639 0.0469512 50.0811 0.0513846 75.097 0.0602515C75.3744 0.0602515 75.7392 -0.158253 75.9501 0.236955C75.591 0.426959 75.2053 0.326257 74.8348 0.326257C50.3522 0.326257 25.8708 0.329424 1.39069 0.335757C1.02208 0.335757 0.634473 0.235055 0.279166 0.432659Z" fill="#FEFEFE"/>
<path d="M0.279297 0.432178C0.585203 0.097771 0.984211 0.276375 1.32812 0.274475C25.8564 0.265608 50.3833 0.262441 74.909 0.264974C75.2548 0.264974 75.6025 0.245974 75.9483 0.236474C75.9483 25.2068 75.9439 50.1771 75.9351 75.1474C75.9351 75.4248 76.1536 75.7896 75.7583 76.0005V1.79641C75.7583 0.441678 75.7583 0.441678 74.4283 0.441678H1.51812C1.09821 0.439778 0.689705 0.434078 0.279297 0.432178Z" fill="#2D4978"/>
<path d="M19.1558 30.5255C21.4358 23.845 25.9959 19.4844 32.6461 17.2385C34.7703 16.5203 36.9591 16.0985 39.1993 16.1954C44.6695 16.4177 49.4975 18.2322 53.4401 22.1463C53.8581 22.5624 54.2932 22.9595 54.7226 23.3662C55.0817 23.6626 55.2774 24.0806 55.5206 24.4606C57.1452 26.5506 58.2035 28.8801 58.9882 31.4109C59.8394 34.1603 59.8812 36.9305 59.6304 39.7046C59.4404 41.7946 58.9084 43.8467 57.8235 45.6973C57.4986 46.1875 57.4967 46.8563 56.9761 47.242C55.456 47.6221 53.8961 47.5023 52.378 47.3503C50.6679 47.1793 48.9408 47.223 47.2156 46.9323C45.2148 46.5941 43.178 46.3718 41.1772 46.0165C38.0519 45.4576 34.9606 44.7224 31.9183 43.8144C27.7896 42.5869 23.7026 41.2417 19.8474 39.2809C19.5054 39.1061 19.1634 38.9541 19.0133 38.5646C18.8765 37.6506 18.5402 36.7785 18.544 35.8266C18.5309 34.4654 18.6461 33.1059 18.8879 31.7662C19.0513 31.3691 18.8556 30.8941 19.1558 30.5255Z" fill="#E75348"/>
<path d="M19.1882 38.5061C21.9737 39.8682 24.842 41.0537 27.7764 42.0554C31.3999 43.2881 35.0938 44.3033 38.8384 45.0954C40.8544 45.5325 42.9083 45.8194 44.949 46.15C48.5734 46.7329 52.2393 47.0195 55.9103 47.0069C56.2903 47.0069 56.6703 46.9689 57.0503 46.9499C57.1531 46.8548 57.2826 46.7938 57.4214 46.7751C57.5601 46.7564 57.7013 46.7809 57.8255 46.8454C59.6458 46.7675 61.4356 46.5414 63.0829 45.6864C63.4395 45.3995 63.821 45.1452 64.223 44.9263C65.4675 44.0523 65.1046 42.0877 63.86 40.7672C63.3261 40.5126 63.0069 40.0508 62.72 39.5682C62.4331 39.0856 61.7548 38.8367 61.9353 38.0786C62.0208 37.7252 62.0512 37.5314 62.4502 37.7651C65.1692 39.3782 67.8292 41.1111 69.7483 43.7008C71.2075 45.656 70.6109 47.3622 68.4182 48.4794C66.3415 49.5377 64.1223 49.7961 61.8783 50.0469C60.2899 50.4403 58.6691 50.3377 57.0579 50.3453C56.2751 50.3453 55.4942 50.3244 54.7152 50.4004C54.4922 50.458 54.2633 50.4893 54.033 50.4935C52.5985 50.1134 51.1089 50.178 49.6478 49.9918C47.4722 49.7125 45.3024 49.4009 43.1382 49.0418C40.3566 48.5839 37.5977 48.0082 34.8521 47.3603C30.6031 46.3589 26.4185 45.1013 22.3214 43.5944C22.1141 43.5178 21.9021 43.4543 21.6868 43.4044C20.9154 43.2961 20.3131 42.7641 19.5834 42.5494C19.2957 42.4255 19.0153 42.2853 18.7436 42.1295C18.6068 42.025 18.5232 41.8559 18.3484 41.797C18.1328 41.7828 17.9232 41.7202 17.7351 41.614C17.5469 41.5077 17.3851 41.3605 17.2616 41.1833C14.0904 39.6822 10.9763 38.0824 8.36181 35.6903C7.48969 34.8922 6.65177 34.0239 6.25656 32.8554C5.63905 31.0561 6.05706 29.935 7.74619 29.042C10.1155 27.788 12.6749 27.2541 15.3311 27.1116C15.9696 27.0204 16.6137 26.9786 17.2521 26.8665C17.4934 26.8228 17.8639 26.7012 18.0121 26.9995C18.1394 27.2598 17.8677 27.5125 17.7689 27.7595C17.6226 28.1281 17.216 28.111 16.9101 28.2402C15.5972 28.5556 14.3222 28.9489 13.1689 29.6956C11.7249 30.6324 11.5482 32.1657 12.4944 33.4957C13.1499 34.4441 13.9924 35.2485 14.9701 35.8594C15.3672 36.0057 15.6181 36.3534 15.9487 36.5909C16.589 37.0355 17.2255 37.4858 17.9627 37.7632C18.5612 37.6948 18.9982 37.8848 19.1882 38.5061Z" fill="#F59230"/>
<path d="M53.9994 50.0781H54.5562C54.6976 50.12 54.8208 50.2084 54.9058 50.3289C54.9549 50.4419 54.9661 50.5678 54.9376 50.6877C54.9092 50.8076 54.8427 50.915 54.7481 50.9939L54.7272 50.9768C54.4238 51.1709 54.1679 51.4306 53.9785 51.7369C52.4087 53.2835 50.6462 54.6214 48.7344 55.7174C47.7578 56.2723 46.6976 56.6276 45.6678 57.057C45.3562 57.399 44.8393 57.0912 44.5277 57.4218L42.6505 57.8265C42.1869 58.197 41.5656 57.8151 41.0944 58.1552H36.6122C36.2645 57.8702 35.7743 58.1305 35.4266 57.8417L34.7026 57.7847C34.372 57.4788 33.8685 57.7676 33.5436 57.4427C31.7082 57.0627 30.0608 56.2057 28.3964 55.402C28.2425 55.3279 28.1494 55.1265 28.0297 54.9859C28.0297 54.6686 27.7618 54.5945 27.5528 54.4634C27.2773 54.3127 27.0267 54.1205 26.8099 53.8934C26.3349 53.3367 26.0499 52.7135 26.352 52.0086C26.5895 51.4595 27.5395 51.2485 28.3033 51.5355C29.297 51.9155 30.2414 52.4456 31.2674 52.7268C32.8577 53.1638 34.4822 53.4678 36.1106 53.7471C37.3779 53.9656 38.6604 53.9371 39.9296 54.0416C40.9519 54.1214 42.0197 53.8687 43.0742 53.8516C43.3725 53.8516 43.6708 53.8516 43.933 53.8345C43.4048 53.8117 42.8443 53.8953 42.2781 53.863C41.9551 53.8459 41.615 53.8915 41.6758 53.3937C42.0672 52.951 42.6011 53.0422 43.0856 53.065C45.8171 53.1847 48.5363 52.6328 51.005 51.4575C51.746 51.1155 52.4091 50.6405 53.1482 50.3042C53.4237 50.2054 53.7239 50.1902 53.9994 50.0781Z" fill="#A3272B"/>
<path d="M41.6854 53.4751C42.7855 53.9121 43.9654 53.4447 45.3354 53.8057C42.3447 54.2731 39.6125 54.4422 36.8365 54.1097C33.8876 53.7563 31.0224 53.1483 28.3034 51.9323C28.2749 51.9209 28.2426 51.9171 28.2122 51.9038C27.9399 51.7732 27.6333 51.732 27.3361 51.7859C27.039 51.8398 26.7664 51.9861 26.5573 52.204C26.3407 52.413 27.1178 53.8874 27.4978 54.0489C27.6439 54.1056 27.793 54.1545 27.9443 54.1952C28.1761 54.2636 28.5029 54.237 28.4991 54.5752C28.4991 54.8317 28.2122 54.8735 28.0298 54.9856C26.8898 54.6911 26.24 53.6556 25.2615 53.1027C24.9803 52.945 24.8187 52.5973 24.4786 52.4947C24.2955 52.1798 24.0336 51.9178 23.7186 51.7347C22.8427 50.4616 21.6894 49.3805 20.9978 47.9878C20.2701 46.5248 19.3219 45.1377 19.1319 43.4543C19.0787 42.9223 18.5923 42.4777 18.8165 41.8887L19.5765 42.225C20.2416 42.8216 20.9484 43.3916 20.975 44.3986C21.0871 45.3486 21.8737 45.8579 22.4456 46.4032C25.6225 49.4432 29.2857 51.7385 33.5798 52.7949C34.9536 53.1312 36.3729 53.5682 37.853 53.2889C38.347 53.1939 38.8429 53.4257 39.3388 53.4903C39.9089 53.5663 40.3896 53.5169 40.8456 53.1749C41.1762 53.1255 41.4802 53.1578 41.6854 53.4751Z" fill="#9B1F23"/>
<path d="M19.1886 38.5064L17.9688 37.7635C17.9688 36.2321 18.2595 34.733 18.4191 33.2186C18.6357 32.8386 18.5179 32.3769 18.7592 32.0102L18.7858 31.6929C18.8276 31.6055 18.8827 31.5979 18.9492 31.6701C18.8751 33.8494 18.7592 36.0307 19.3159 38.1758C19.3349 38.2689 19.2285 38.3962 19.1886 38.5064Z" fill="#7B1214"/>
<path d="M54.748 50.9945L54.786 50.2611C56.7951 50.079 58.8164 50.0745 60.8263 50.2478C60.6667 50.6848 60.2886 50.6126 59.9523 50.6164C59.1656 50.6164 58.3752 50.6658 57.5924 50.6164C56.6294 50.5728 55.6663 50.7009 54.748 50.9945Z" fill="#2F364E"/>
<path d="M60.8258 50.2478L54.7856 50.2611L54.5557 50.0711L61.8765 50.0293C61.5725 50.3352 61.1659 50.1262 60.8258 50.2478Z" fill="#CB532C"/>
<path d="M16.9081 28.2442C17.3641 27.9553 17.7708 27.6323 17.767 26.9749C16.9442 26.9388 16.1481 27.2941 15.333 27.1117C16.1671 26.8077 17.043 26.7849 17.9114 26.7602C18.3807 26.7488 18.4719 26.9502 18.242 27.3207C17.9342 27.8261 17.6777 28.4114 16.9081 28.2442Z" fill="#C68847"/>
<path d="M18.8081 41.8993C19.0418 42.3952 19.2774 42.8911 19.1235 43.4649C18.6428 43.064 18.4946 42.5035 18.3825 41.924C18.3694 41.908 18.3604 41.889 18.3562 41.8687C18.352 41.8485 18.3527 41.8275 18.3583 41.8076C18.3639 41.7877 18.3742 41.7694 18.3883 41.7542C18.4024 41.7391 18.42 41.7276 18.4395 41.7207L18.8081 41.8993Z" fill="#6E292E"/>
<path d="M62.6999 39.5762C63.2133 39.8236 63.6187 40.2499 63.84 40.7751C63.04 40.7865 62.6809 40.3647 62.6999 39.5762Z" fill="#3E3840"/>
<path d="M57.8123 46.8506C57.5748 47.0406 57.3031 46.9855 57.0371 46.9551C57.0485 46.3851 57.4684 46.0602 57.8218 45.6973C57.818 46.0811 57.8142 46.4668 57.8123 46.8506Z" fill="#912D2E"/>
<path d="M18.4441 41.7213L18.3871 41.9246C17.895 41.8562 17.2015 42.0918 17.2604 41.1836L18.4441 41.7213Z" fill="#414147"/>
<path d="M41.0889 58.162C41.505 57.5635 42.1187 57.9017 42.645 57.8333C42.2384 58.4736 41.6209 58.1107 41.0889 58.162Z" fill="#55334E"/>
<path d="M64.2191 44.9335C63.9398 45.342 63.6016 45.6631 63.0791 45.6935C63.2691 45.1539 63.632 44.8841 64.2191 44.9335Z" fill="#494046"/>
<path d="M53.978 51.7429C53.9324 51.1995 54.1794 50.9411 54.7266 50.9829C54.6945 51.1709 54.6055 51.3446 54.4716 51.4805C54.3378 51.6163 54.1655 51.7079 53.978 51.7429Z" fill="#5B2B43"/>
<path d="M23.7148 51.7453C24.2545 51.7111 24.5148 51.9581 24.4749 52.5053C24.2849 52.4733 24.1097 52.3829 23.9735 52.2467C23.8373 52.1105 23.7469 51.9352 23.7148 51.7453Z" fill="#4A304E"/>
<path d="M18.9431 31.6692C18.8883 31.6739 18.8338 31.6815 18.7797 31.692C18.8291 31.2797 18.5897 30.7724 19.1597 30.5254C19.1882 30.9263 19.2718 31.3367 18.9431 31.6692Z" fill="#5A3C49"/>
<path d="M55.5187 24.4597C55.0532 24.2412 54.8803 23.8079 54.7207 23.3652C55.1634 23.6008 55.5757 23.8592 55.5187 24.4597Z" fill="#6F4350"/>
<path d="M44.5215 57.4286C44.7666 56.8719 45.2606 57.1037 45.6615 57.0638C45.4297 57.6376 44.93 57.3811 44.5215 57.4286Z" fill="#5D3246"/>
<path d="M33.543 57.451C33.9534 57.4795 34.4417 57.2477 34.702 57.793C34.2916 57.7607 33.7938 58.0248 33.543 57.451Z" fill="#603142"/>
<path d="M35.4268 57.8508C35.841 57.8812 36.335 57.6095 36.6124 58.1643C36.1906 58.1624 35.7061 58.398 35.4268 57.8508Z" fill="#513452"/>
<path d="M15.958 36.5906C15.7483 36.5557 15.55 36.4711 15.3798 36.3438C15.2095 36.2165 15.0723 36.0503 14.9795 35.8591C15.578 35.7204 15.7775 36.1384 15.958 36.5906Z" fill="#57484C"/>
<path d="M18.751 32.0098C18.7933 32.2236 18.7847 32.4444 18.726 32.6543C18.6672 32.8642 18.5599 33.0574 18.4128 33.2182C18.428 32.7888 18.238 32.3005 18.751 32.0098Z" fill="#5A3C49"/>
<path d="M47.7195 28.7349C50.8508 27.8798 53.108 30.8401 51.7096 33.675C50.5164 35.3641 49.7697 35.7498 48.0634 35.3432C47.0773 35.1076 46.9842 35.1855 47.0355 36.2267C47.0507 36.5421 46.9766 36.848 46.9899 37.1634C47.0127 37.6251 46.8246 37.9862 46.342 38.0603C45.8594 38.1344 45.4984 37.9007 45.4053 37.3686C45.525 34.6706 45.4851 31.9725 45.4053 29.2783C45.7283 28.3815 45.9639 28.258 46.7676 28.7197C47.1191 28.9382 47.4003 28.6988 47.7195 28.7349Z" fill="#FBFAFA"/>
<path d="M28.0944 28.6571C28.9703 28.5868 29.8519 28.4842 30.6253 29.0561C30.8723 29.2461 31.0053 29.1321 31.1364 28.9022C31.1952 28.7886 31.2936 28.7005 31.413 28.6546C31.5324 28.6087 31.6645 28.6083 31.7843 28.6533C32.0693 28.7483 32.1111 29.02 32.1111 29.2727C32.1111 31.1822 32.2365 33.0918 32.0294 34.9975C32.0037 35.0649 31.9631 35.1255 31.9107 35.1749C31.8582 35.2243 31.7953 35.2612 31.7265 35.2828C31.6578 35.3043 31.585 35.3101 31.5137 35.2995C31.4425 35.2889 31.3745 35.2623 31.315 35.2217C30.745 34.8778 30.2433 35.1058 29.698 35.2635C27.8721 35.7917 25.7574 34.3458 25.7878 32.6168C25.7441 31.4292 25.7498 30.2835 26.7549 29.3867C27.1229 29.021 27.5876 28.7679 28.0944 28.6571Z" fill="#FAF8F7"/>
<path d="M34.5525 33.9805C35.0066 34.0337 35.2403 34.3206 35.4683 34.7006C37.1784 37.5392 40.7542 37.5202 42.4852 34.6759C42.7132 34.2959 42.8861 33.7867 43.4618 34.1401C43.9957 34.4669 43.7164 34.8906 43.4979 35.2801C42.9789 36.2467 42.1637 37.0215 41.172 37.4906C40.1803 37.9598 39.0643 38.0987 37.9878 37.8869C37.68 37.828 37.3722 37.7786 37.0644 37.7235C35.626 37.3131 34.5943 36.4581 34.0965 35.016C33.9388 34.5524 33.9825 34.1458 34.5525 33.9805Z" fill="#FBF9F8"/>
<path d="M47.7199 28.7346C47.3076 28.9246 46.9466 29.5098 46.4526 28.746C46.2816 28.4838 45.8066 28.6282 45.6299 29.031C45.5501 31.8678 45.495 34.7026 45.6565 37.5375C46.3937 38.0049 46.6996 37.8928 46.7357 37.0967C46.7718 36.3005 46.7357 35.4797 46.7357 34.5373C48.7269 35.7438 50.3344 35.3201 51.6948 33.6823C51.482 34.7482 50.1197 35.8027 49.1412 35.6849C48.5559 35.6146 47.8643 35.3942 47.4007 35.6184C46.9371 35.8426 47.4349 36.5799 47.2278 37.1385C47.0378 37.6439 47.0264 38.2063 46.4564 38.4229C45.9434 38.6129 45.5444 38.2918 45.21 37.9422C44.7692 37.4805 44.83 36.9922 45.1568 36.4773C45.2603 36.317 45.2971 36.1227 45.2594 35.9357C44.7996 34.5582 45.4589 33.1959 45.2898 31.8203C45.1929 31.0298 44.7996 30.3002 45.0561 29.4262C45.3525 28.4173 45.8484 28.062 46.8193 28.4762C47.1138 28.5812 47.4146 28.6675 47.7199 28.7346Z" fill="#CD514B"/>
<path d="M25.9552 32.6274C26.4074 34.6205 28.5013 35.6047 30.1353 34.9226C30.54 34.7554 30.9428 34.2519 31.319 35.0138C31.4178 35.2171 31.7826 35.1012 32.0201 34.9986C32.0231 35.0794 32.0055 35.1596 31.969 35.2317C31.9325 35.3038 31.8783 35.3654 31.8114 35.4108C31.7446 35.4562 31.6673 35.4839 31.5868 35.4912C31.5063 35.4985 31.4253 35.4853 31.3513 35.4527C30.6122 35.219 29.9548 35.4147 29.248 35.6199C28.125 35.9467 26.6677 35.2798 26.0407 34.212C25.7253 33.6743 25.218 33.1556 25.5828 32.4298C25.8146 32.3006 25.8716 32.4906 25.9552 32.6274Z" fill="#C44942"/>
<path d="M34.5527 33.9793C34.0948 34.3346 34.1309 34.7393 34.376 35.2162C34.9726 36.3848 35.9815 37.0935 37.0664 37.73C35.4172 37.768 33.8211 36.21 33.9161 34.6709C33.9427 34.2377 34.0283 33.9223 34.5527 33.9793Z" fill="#BF4D49"/>
<path d="M25.9542 32.6266L25.5913 32.4366C25.4469 31.156 25.7699 30.0597 26.7637 29.1686C27.1646 28.8113 27.5541 28.5833 28.0937 28.665C26.3115 29.4042 25.7471 30.8064 25.9542 32.6266Z" fill="#BA544B"/>
<path d="M20.6875 44.3701C20.5564 43.5322 19.6729 43.0894 19.5703 42.2363L21.6319 43.0552C21.9131 43.2643 22.1772 43.498 22.4489 43.7203C25.0006 46.6824 28.1167 48.8732 31.6831 50.435C33.3551 51.1665 35.0651 51.8106 36.7828 52.4281C37.0754 52.5326 37.4079 52.5706 37.5808 52.8841C37.4193 53.8703 36.5909 53.5302 36.1691 53.4029C34.6205 52.9392 33.0093 52.7492 31.4817 52.1678C29.028 51.2314 26.7263 49.9374 24.651 48.3279C23.1424 47.165 21.8941 45.8046 20.6875 44.3701Z" fill="#751318"/>
<path d="M22.1733 43.8088C21.8845 43.6359 21.7933 43.3224 21.6318 43.0488C24.3831 43.9532 27.1039 44.9375 29.8932 45.7279C34.224 46.9523 38.616 47.9493 43.051 48.7147C46.6746 49.3553 50.3287 49.8088 53.999 50.0733L53.4005 50.4096C51.7675 50.7274 50.087 50.7112 48.4604 50.3621C47.2216 50.0885 45.9086 50.1436 44.6356 49.9061C42.8211 49.5641 41.0122 49.1803 39.1939 48.8914C37.3756 48.6026 35.5838 48.0801 33.7959 47.6469C31.2954 47.0446 28.7931 46.4594 26.3857 45.5132C25.9411 45.3365 25.4661 45.3232 25.0158 45.1655C24.0145 44.8254 23.0113 44.4967 22.1733 43.8088Z" fill="#CB532C"/>
<path d="M22.1738 43.8086C23.2055 43.9435 24.1024 44.5268 25.1037 44.7206C27.1595 45.1177 28.9988 46.1836 31.0907 46.5123C32.7684 46.7765 34.3797 47.4396 36.0422 47.8272C36.9124 48.0286 37.7522 48.3497 38.6814 48.3972C39.6105 48.4447 40.5643 48.7487 41.4953 48.9786C42.3417 49.1687 43.1972 49.3158 44.0585 49.4194C45.4303 49.6189 46.8705 49.6873 48.1987 49.9628C49.9429 50.3257 51.7004 49.9837 53.401 50.4226C50.9765 52.4044 48.117 53.2119 45.0693 53.4627C43.9483 53.5501 42.8139 53.4874 41.6853 53.4931L40.76 53.457C39.62 53.6071 38.5085 53.6622 37.5299 52.9098C35.8674 52.7901 34.4329 51.9598 32.928 51.3746C28.8468 49.8089 25.2006 47.5745 22.3885 44.1373C22.311 44.0317 22.2393 43.922 22.1738 43.8086Z" fill="#E65347"/>
<path d="M37.5262 52.893C38.6149 52.9956 39.6945 53.1785 40.7563 53.4402C40.2946 54.1014 39.5859 53.8886 39.0177 53.8088C37.5585 53.6036 36.0841 53.6188 34.6249 53.3718C32.0997 52.9481 29.8748 51.867 27.6346 50.7117C25.651 49.68 24.0245 48.2151 22.3829 46.7901C21.6647 46.1687 20.4962 45.7032 20.6843 44.3789C20.9186 44.4138 21.1422 44.5 21.3393 44.6314C21.5364 44.7628 21.702 44.9361 21.8243 45.1389C23.0688 47.1188 25.0544 48.2474 26.8746 49.566C29.0482 51.1411 31.5487 51.9088 34.1099 52.5415C34.7712 52.7049 35.4058 52.9785 36.0632 53.1685C36.5895 53.311 37.1291 53.4478 37.5262 52.893Z" fill="#851C21"/>
<path d="M50.9853 31.9512C50.9663 33.1711 50.0163 34.1477 48.8573 34.1382C47.6432 34.1382 46.7216 33.1122 46.7672 31.8277C46.8052 30.5756 47.7173 29.6826 48.939 29.7035C50.1075 29.7244 51.0062 30.7086 50.9853 31.9512Z" fill="#E55348"/>
<path d="M45.6564 37.5377C45.5785 37.4046 45.5233 37.2595 45.493 37.1083C45.4854 34.5319 45.4854 31.9554 45.493 29.379C45.5157 29.2565 45.5594 29.1388 45.6222 29.0312C45.6374 31.8686 45.6488 34.7041 45.6564 37.5377Z" fill="#E75348"/>
<path d="M26.9786 31.8821C26.9672 30.6527 27.8222 29.6932 28.9509 29.6666C30.1156 29.6381 31.0409 30.6166 31.0276 31.884C31.0276 33.0829 30.1897 34.012 29.0972 34.0443C27.8963 34.0785 26.9938 33.157 26.9786 31.8821Z" fill="#E45348"/>
</svg>
