<svg width="105" height="41" viewBox="0 0 105 41" fill="none" xmlns="http://www.w3.org/2000/svg">
<g clip-path="url(#clip0)">
<path d="M57.8124 8.82031C48.382 8.82031 41.2477 15.984 41.2477 24.8585C41.2477 34.214 48.6827 40.8966 57.8124 40.8966C66.9422 40.8966 74.3498 34.214 74.3498 24.8585C74.3498 15.984 67.2428 8.82031 57.8124 8.82031ZM57.8124 17.2938C61.8853 17.2671 65.2201 20.6618 65.2201 24.8585C65.2201 29.0284 61.8853 32.4231 57.8124 32.4231C53.7396 32.4231 50.4048 29.0284 50.4048 24.8585C50.4048 20.6618 53.7396 17.2938 57.8124 17.2938Z" fill="black"/>
<path d="M105 35.2833C105 38.384 102.431 40.8966 99.2598 40.8966C96.089 40.8966 93.5195 38.384 93.5195 35.2833C93.5195 32.1826 96.089 29.6699 99.2598 29.6699C102.431 29.6699 105 32.1826 105 35.2833Z" fill="black"/>
<path d="M88.2904 39.8281H79.27V0H88.2904V39.8281Z" fill="black"/>
<path fill-rule="evenodd" clip-rule="evenodd" d="M-6.10352e-05 39.8281L16.4006 0H24.8743L41.0017 39.8281H29.5212L27.6078 34.2147H13.3938L11.4804 39.8281H-6.10352e-05ZM24.8743 25.9283H16.4006L20.6375 12.5632L24.8743 25.9283Z" fill="black"/>
</g>
<defs>
<clipPath id="clip0">
<rect width="105" height="41" fill="white"/>
</clipPath>
</defs>
</svg>
