<svg width="88" height="74" viewBox="0 0 88 74" fill="none" xmlns="http://www.w3.org/2000/svg">
<g clip-path="url(#clip0)">
<path d="M50.5222 42.8035V27.3129C50.5222 26.4496 50.5222 26.4442 51.2457 26.8542C53.5448 28.1762 55.844 29.5089 58.1538 30.82C58.5308 31.0199 58.8307 31.3408 59.006 31.7318C61.5248 37.149 64.0544 42.5625 66.5948 47.9724C66.8244 48.378 66.969 48.8266 67.0197 49.2906C67.0704 49.7546 67.0261 50.2241 66.8895 50.6702C66.6934 51.2705 66.3111 51.7917 65.7988 52.1569C65.2865 52.5221 64.6713 52.7121 64.0437 52.6989C61.841 52.7313 59.6384 52.6989 57.4357 52.6989C55.4045 52.6989 53.3733 52.6989 51.3421 52.6989C50.8062 52.6989 50.6025 52.5425 50.6079 51.9705C50.6079 48.9113 50.6079 45.8574 50.6079 42.7981L50.5222 42.8035Z" fill="#1A7FC2"/>
<path d="M34.4282 52.6881H20.9013C20.4886 52.6881 19.8294 52.8284 19.7383 52.4399C19.6472 52.0515 20.2742 51.9382 20.6065 51.7439C29.8138 46.3196 39.0229 40.9097 48.2338 35.5141C48.8984 35.1202 48.9091 35.1256 48.9091 35.8918C48.9091 38.05 48.9091 40.2082 48.9091 42.3665C48.9091 45.4689 48.9734 48.5659 49.0002 51.663C49.0002 52.7043 49.0002 52.7043 47.9926 52.7043L34.4282 52.6881Z" fill="#64B4E4"/>
<path d="M42.2047 0.000164199C42.8168 -0.00618521 43.4167 0.171741 43.9276 0.511109C44.4385 0.850476 44.837 1.3358 45.072 1.90479C46.8227 5.67089 48.577 9.42979 50.3348 13.1815C51.0208 14.6599 51.0155 14.6707 49.6274 15.4854L36.2291 23.3737C35.5913 23.746 35.5806 23.7406 35.5806 23.023C35.5806 18.9763 35.5806 14.9297 35.5806 10.883C35.5729 10.5391 35.6425 10.1978 35.7843 9.88482C37.0437 7.18704 38.2871 4.48926 39.5358 1.82386C39.7548 1.29044 40.1244 0.833373 40.5987 0.50923C41.0731 0.185089 41.6315 0.00809839 42.2047 0.000164199Z" fill="#2C89C9"/>
<path d="M17.4875 49.6659C17.5172 49.1412 17.6502 48.6277 17.8787 48.1552C20.6299 42.2704 23.3774 36.3839 26.1214 30.4955C26.3786 29.956 26.5876 29.8912 27.1075 30.1934C31.4432 32.7077 35.8003 35.1897 40.1467 37.6878C40.7309 38.0223 40.7255 38.0331 40.1092 38.3946L19.0471 50.7666C17.927 51.4195 17.734 51.3062 17.525 50.0274C17.509 49.9033 17.4982 49.7738 17.4875 49.6659Z" fill="#12B2E6"/>
<path d="M33.9136 14.1846C33.9136 15.2637 33.9136 16.3428 33.9136 17.422C33.9458 22.0513 33.9797 26.6807 34.0154 31.3101C34.0154 32.2327 33.9458 32.2651 33.1365 31.8011C31.3894 30.7921 29.653 29.7778 27.8897 28.8012C27.3538 28.4936 27.177 28.2292 27.4824 27.5926C29.5029 23.3409 31.4805 19.0676 33.4741 14.7997C33.576 14.5839 33.6832 14.3789 33.7903 14.1738L33.9136 14.1846Z" fill="#64B4E4"/>
<path d="M57.4037 28.5164L50.9135 24.7827C48.7698 23.5525 46.6261 22.3169 44.4823 21.1029C44.0536 20.8601 43.9464 20.7198 44.4823 20.4123C46.7493 19.112 48.9949 17.7793 51.2404 16.4412C51.5834 16.2361 51.7764 16.2092 51.9747 16.63C53.7683 20.4932 55.5583 24.351 57.3447 28.2035C57.3733 28.3059 57.393 28.4106 57.4037 28.5164Z" fill="#12B2E6"/>
<path d="M44.1983 70.0658C43.7524 70.4857 43.2142 70.7934 42.6275 70.9637C42.0409 71.1341 41.4226 71.1623 40.8231 71.046C40.2235 70.9297 39.6599 70.6722 39.1781 70.2946C38.6964 69.917 38.3102 69.43 38.0512 68.8734C37.6552 68.1047 37.4383 67.2552 37.417 66.3896C37.3956 65.5239 37.5703 64.6647 37.9279 63.8771C39.0641 61.2549 42.9549 60.5804 44.9325 62.6361C45.0207 62.7299 45.103 62.829 45.1791 62.9329C45.5167 63.3915 45.9722 64.012 45.715 64.4329C45.4578 64.8537 44.6431 64.5246 44.1072 64.5731C43.9571 64.5731 43.8982 64.4652 43.8446 64.3357C43.6915 63.9287 43.4097 63.5836 43.0427 63.3535C42.6757 63.1235 42.2438 63.0212 41.8134 63.0624C41.3912 63.0493 40.9751 63.1662 40.6208 63.3977C40.2664 63.6291 39.9907 63.9639 39.8305 64.3573C39.5382 64.9599 39.3894 65.6228 39.3959 66.2934C39.4025 66.964 39.5641 67.6238 39.868 68.2205C40.0536 68.6375 40.3658 68.9844 40.7597 69.2112C41.1536 69.4381 41.6089 69.5333 42.0599 69.4831C42.4698 69.4663 42.8658 69.3284 43.1984 69.0866C43.531 68.8448 43.7855 68.5098 43.9303 68.1234C44.1072 67.6972 44.134 67.3518 43.4909 67.4382C43.2819 67.4652 43.0568 67.4382 42.8531 67.4382C42.1886 67.5515 42.0224 67.2763 42.0385 66.6288C42.0385 66.0893 42.1832 65.8789 42.7567 65.9112C43.6302 65.9598 44.5092 65.9112 45.3881 65.9112C45.7204 65.9112 45.8383 66.0191 45.8383 66.3591C45.8383 67.6918 45.8383 69.0245 45.8383 70.3626C45.8383 70.6539 45.7579 70.8104 45.4417 70.7834C45.2636 70.7629 45.0838 70.7629 44.9057 70.7834C44.3912 70.8697 44.0697 70.7564 44.1983 70.0658Z" fill="black"/>
<path d="M8.26404 70.1852C7.3744 67.7249 6.53834 65.2429 5.65942 62.7771C5.21459 61.5362 5.56295 61.7898 4.2124 61.7574C3.09766 61.7574 3.09766 61.7574 2.72251 62.8365C2.44025 63.6458 2.15442 64.4552 1.86502 65.2645C1.27013 66.9425 0.685968 68.6259 0.0750059 70.2931C-0.0911329 70.741 0.0214128 70.8327 0.460877 70.8327C1.89717 70.8327 1.89717 70.8327 2.37951 69.4838C2.37951 69.4838 2.37951 69.446 2.37951 69.4245C2.42775 69.0522 2.64748 68.955 3.00655 68.9658C3.73006 68.9658 4.45893 68.9982 5.18244 68.9658C5.27364 68.9456 5.36805 68.9448 5.45959 68.9634C5.55113 68.9821 5.63778 69.0198 5.71399 69.0742C5.79019 69.1285 5.85426 69.1983 5.90209 69.2791C5.94991 69.3599 5.98043 69.4498 5.99169 69.5432C6.35613 70.8381 6.38292 70.8327 7.71739 70.8273H7.78171C8.33907 70.8759 8.46234 70.7302 8.26404 70.1852ZM4.94663 67.358H4.82336C3.00655 67.4767 3.01191 67.4767 3.58536 65.7393C3.76758 65.1997 3.94443 64.6062 4.1856 63.8616C4.55004 65.0379 4.86088 66.0199 5.17708 67.0396C5.24675 67.2608 5.17172 67.3526 4.94663 67.358Z" fill="black"/>
<path d="M70.0141 66.0524C69.911 65.5768 69.682 65.138 69.3513 64.7828C69.0206 64.4275 68.6006 64.1689 68.1358 64.0345C67.671 63.9001 67.1787 63.8949 66.7111 64.0193C66.2436 64.1437 65.8182 64.3932 65.4801 64.7413C65.5926 64.1478 65.3407 64.0291 64.9442 64.0777C64.7951 64.102 64.6431 64.102 64.494 64.0777C63.958 63.9913 63.7651 64.191 63.7705 64.7737C63.8026 67.4715 63.7705 70.1693 63.7705 72.867C63.7705 74.0271 63.7705 74.0001 64.9281 74.0217C65.4051 74.0217 65.5551 73.8976 65.539 73.412C65.5015 72.3329 65.539 71.2861 65.539 70.1261C65.7105 70.2448 65.7802 70.288 65.8392 70.3365C66.1313 70.6161 66.4867 70.8198 66.8745 70.93C67.2624 71.0403 67.6711 71.0538 68.0653 70.9693C68.4596 70.8848 68.8274 70.7049 69.1371 70.4452C69.4467 70.1855 69.6889 69.8537 69.8426 69.4786C70.308 68.3947 70.3689 67.178 70.0141 66.0524ZM67.0986 69.4301C66.8647 69.4724 66.6236 69.4479 66.4029 69.3592C66.1821 69.2705 65.9905 69.1212 65.8499 68.9283C65.6056 68.4878 65.4729 67.9934 65.4636 67.489C65.4542 66.9846 65.5685 66.4856 65.7963 66.0363C65.9144 65.8354 66.0834 65.6698 66.286 65.5564C66.4886 65.443 66.7175 65.3858 66.9492 65.3907C67.181 65.3957 67.4073 65.4625 67.6049 65.5845C67.8026 65.7065 67.9645 65.8791 68.074 66.0848C68.3196 66.5187 68.4297 67.0169 68.3902 67.5146C68.3688 68.7125 67.9615 69.3168 67.0986 69.4301Z" fill="black"/>
<path d="M14.7542 65.5501C14.5511 65.0485 14.1978 64.6232 13.7435 64.3331C13.2892 64.043 12.7564 63.9026 12.2192 63.9314C11.4935 63.9712 10.8131 64.2991 10.3274 64.8433C10.5739 64.1095 10.2523 64.0609 9.85574 64.0933C9.7278 64.1122 9.59781 64.1122 9.46987 64.0933C8.82675 63.98 8.70348 64.2714 8.70884 64.8757C8.741 67.5411 8.70884 70.2065 8.70884 72.8719C8.70884 74.0319 8.70884 74.0049 9.86646 74.0157C10.3381 74.0157 10.4399 73.8539 10.4024 73.4222C10.4024 72.3431 10.4024 71.264 10.4024 70.0554L10.7454 70.3629C11.0401 70.6308 11.3938 70.8244 11.7773 70.9277C12.1609 71.0311 12.5633 71.0414 12.9516 70.9576C13.3398 70.8739 13.7027 70.6985 14.0105 70.446C14.3183 70.1934 14.5622 69.871 14.722 69.505C15.0154 68.8886 15.1703 68.2147 15.1759 67.5312C15.1814 66.8477 15.0375 66.1713 14.7542 65.5501ZM13.3447 67.4116C13.3447 68.5932 12.9481 69.2461 12.1602 69.4079C11.8469 69.4937 11.5129 69.4575 11.2249 69.3065C10.9369 69.1555 10.7159 68.9008 10.606 68.5932C10.3488 67.9474 10.3111 67.2341 10.4989 66.5645C10.5641 66.2442 10.7322 65.9545 10.9773 65.7399C11.2223 65.5254 11.5307 65.398 11.8548 65.3774C12.1779 65.3995 12.4854 65.5258 12.7316 65.7377C12.9777 65.9496 13.1495 66.2357 13.2214 66.5537C13.3158 66.8293 13.3576 67.1203 13.3447 67.4116Z" fill="black"/>
<path d="M84.1681 67.8064C84.704 66.0205 85.2775 64.2453 85.7759 62.4594C85.9313 61.9199 86.1725 61.6663 86.7513 61.7472C87.1635 61.7747 87.5771 61.7747 87.9893 61.7472C87.6677 62.6968 87.373 63.5817 87.0728 64.4719C86.4244 66.4036 85.7652 68.3352 85.1328 70.2722C85.1216 70.3544 85.0944 70.4336 85.0528 70.5052C85.0111 70.5769 84.9559 70.6395 84.8902 70.6896C84.8245 70.7397 84.7496 70.7763 84.6698 70.7973C84.5901 70.8182 84.507 70.8231 84.4253 70.8117C83.1552 70.8117 83.1552 70.8117 82.7425 69.5815C81.9332 67.1859 81.1347 64.7849 80.3094 62.3893C80.154 61.9414 80.1111 61.7202 80.7274 61.7364C82.1476 61.7742 82.1476 61.7364 82.5603 63.0961C83.0426 64.6716 83.5285 66.2453 84.018 67.8172L84.1681 67.8064Z" fill="black"/>
<path d="M53.3359 63.9317C51.2993 63.9317 49.9756 65.3075 49.9702 67.428C49.9648 69.5484 51.2993 70.9836 53.4109 70.9729C55.5225 70.9621 56.8087 69.6024 56.8087 67.4442C56.8087 65.2859 55.4903 63.9263 53.3359 63.9317ZM52.7999 69.3704C52.5117 69.287 52.2674 69.0933 52.1193 68.8308C51.9046 68.414 51.7925 67.9514 51.7925 67.4819C51.7925 67.0124 51.9046 66.5498 52.1193 66.133C52.2768 65.9298 52.4803 65.7674 52.7128 65.6593C52.9453 65.5512 53.2001 65.5006 53.4559 65.5117C53.7118 65.5228 53.9613 65.5952 54.1837 65.723C54.4061 65.8508 54.595 66.0302 54.7346 66.2463C54.9105 66.6391 54.9931 67.0677 54.9758 67.4981C54.9865 69.0251 54.0754 69.8236 52.8106 69.3704H52.7999Z" fill="black"/>
<path d="M30.5481 63.9316C28.458 63.9316 27.1289 65.2859 27.1128 67.4226C27.0967 69.5592 28.4473 70.9836 30.5535 70.9728C32.6597 70.962 33.9138 69.6455 33.9191 67.4441C33.9245 65.2428 32.6919 63.9316 30.5481 63.9316ZM30.3552 69.4621C30.2279 69.4442 30.1024 69.4153 29.98 69.3758C29.1118 69.079 28.6992 67.7571 29.0797 66.5269C29.1365 66.3221 29.2352 66.1316 29.3695 65.9675C29.5037 65.8033 29.6705 65.6692 29.8592 65.5737C30.0479 65.4782 30.2543 65.4235 30.4652 65.4129C30.6761 65.4024 30.8869 65.4363 31.0841 65.5125C31.7808 65.7014 32.1559 66.3435 32.1559 67.4334C32.1559 68.8686 31.5235 69.6024 30.3713 69.4621H30.3552Z" fill="black"/>
<path d="M18.8326 63.9316C16.7371 63.9316 15.424 65.2805 15.424 67.4334C15.424 69.5862 16.7317 70.9836 18.8594 70.9728C20.987 70.9621 22.2304 69.6024 22.225 67.4442C22.2197 65.2859 20.9388 63.9316 18.8326 63.9316ZM20.4404 67.4927C20.4404 68.8362 19.824 69.5376 18.72 69.4675C18.4175 69.4678 18.1237 69.3658 17.8856 69.178C17.6476 68.9902 17.479 68.7273 17.407 68.4315C17.263 67.9807 17.2227 67.5029 17.2891 67.0341C17.4767 65.8686 17.9644 65.4154 18.9933 65.464C19.9044 65.5071 20.4082 66.1276 20.4404 67.2391V67.4927Z" fill="black"/>
<path d="M61.5144 70.0663C61.2645 70.3594 60.9533 70.5932 60.603 70.7508C60.2527 70.9085 59.8722 70.9861 59.4886 70.9782C58.9454 71.0169 58.409 70.8378 57.9964 70.48C57.5838 70.1222 57.3284 69.6147 57.2859 69.0681C57.1787 67.525 57.2323 65.9711 57.2162 64.4226C57.2162 64.1798 57.3234 64.0611 57.5646 64.0827C57.5857 64.0881 57.6078 64.0881 57.6289 64.0827C58.9687 63.9909 58.9687 63.9909 58.9687 65.3614C58.9687 66.2679 58.9687 67.1743 58.9687 68.0592C58.9687 68.944 59.3278 69.4242 60.0406 69.4512C60.2186 69.4731 60.3992 69.4552 60.5694 69.3986C60.7397 69.342 60.8955 69.2482 61.0255 69.124C61.1556 68.9997 61.2568 68.8481 61.3219 68.6798C61.3869 68.5116 61.4142 68.331 61.4018 68.1509C61.4608 66.9909 61.4608 65.8254 61.434 64.6654C61.434 64.1798 61.5787 64.0449 62.0557 64.0557C63.2026 64.0557 63.2026 64.0557 63.2026 65.2157C63.2026 66.8991 63.2026 68.5772 63.2026 70.2552C63.2026 70.6814 63.074 70.8433 62.6666 70.7947C62.5187 70.7812 62.3698 70.7812 62.2218 70.7947C61.7556 70.8379 61.3054 70.8595 61.5144 70.0663Z" fill="black"/>
<path d="M75.277 67.089C75.277 66.0099 75.277 64.9794 75.277 63.9218C75.277 63.4902 75.1376 63.3823 74.7411 63.3823C74.2051 63.4147 73.6692 63.3823 73.1333 63.3823C72.7367 63.3823 72.5598 63.3014 72.5705 62.8427C72.6134 61.4777 72.4419 61.7636 73.6424 61.7313C75.5235 61.7313 77.3939 61.7313 79.2911 61.7313C79.7466 61.7313 79.9342 61.8176 79.9181 62.3302C79.8913 63.3769 79.9181 63.3769 78.8463 63.3769C77.2063 63.3769 77.2063 63.3769 77.2063 65.0603C77.2063 66.7437 77.2063 68.5081 77.2063 70.2292C77.2063 70.6933 77.0616 70.8012 76.6222 70.8012C75.2663 70.8012 75.2663 70.8012 75.2663 69.4631L75.277 67.089Z" fill="black"/>
<path d="M24.4278 66.2358C24.4278 67.5901 24.4278 68.9336 24.4278 70.2987C24.4278 70.6926 24.326 70.8382 23.924 70.8382C22.6217 70.8382 22.6217 70.8652 22.6217 69.5811C22.6217 67.1261 22.6217 64.6765 22.6217 62.2269C22.6217 61.7791 22.7396 61.6334 23.1952 61.6388C24.4278 61.6388 24.4278 61.6388 24.4278 62.8366V66.2358Z" fill="black"/>
<path d="M24.9423 66.2629C24.9423 64.8871 24.9423 63.5112 24.9423 62.1353C24.9423 61.7415 25.0655 61.5958 25.4514 61.5958C26.7484 61.5958 26.7484 61.5634 26.7484 62.8637C26.7484 65.3133 26.7484 67.7683 26.7484 70.2179C26.7484 70.6711 26.6197 70.8006 26.1749 70.7952C24.9369 70.7952 24.9369 70.7952 24.9369 69.5326L24.9423 66.2629Z" fill="black"/>
<path d="M47.9927 64.7474C48.3464 64.4938 48.5287 64.3212 48.7591 64.2079C49.1986 63.9651 49.831 63.7438 50.1204 64.0784C50.4098 64.4129 50.2276 65.1089 50.1954 65.6377C50.1954 65.8481 49.9596 65.7564 49.8256 65.7618C48.5662 65.8211 48.1535 66.242 48.1428 67.5045C48.1428 68.4542 48.1428 69.3984 48.1428 70.3426C48.1428 70.7473 48.0088 70.8444 47.6068 70.8498C46.3152 70.8498 46.3152 70.8875 46.3152 69.5926C46.3152 67.9739 46.3152 66.3553 46.3152 64.7366C46.3152 64.2294 46.4546 64.0244 46.9584 64.1053C47.1081 64.1188 47.2588 64.1188 47.4085 64.1053C47.8051 64.0676 48.2339 64.019 47.9927 64.7474Z" fill="black"/>
</g>
<defs>
<clipPath id="clip0">
<rect width="88" height="74" fill="white"/>
</clipPath>
</defs>
</svg>
