<svg width="84" height="32" viewBox="0 0 84 32" fill="none" xmlns="http://www.w3.org/2000/svg">
<g clip-path="url(#clip0)">
<path d="M17.5285 5.10184C18.7107 3.6764 19.2965 1.84823 19.1633 0C17.3515 0.175149 15.679 1.05006 14.5004 2.43928C13.9134 3.10471 13.4636 3.87974 13.1767 4.71984C12.8897 5.55994 12.7714 6.44854 12.8284 7.3346C13.7309 7.35231 14.6253 7.15986 15.4409 6.7724C16.2565 6.38494 16.9712 5.81307 17.5285 5.10184ZM19.0519 7.67137C16.451 7.52066 14.2589 9.15987 13.0142 9.15987C11.7695 9.15987 9.87458 7.75324 7.83105 7.79045C6.493 7.82821 5.18827 8.21703 4.04726 8.91805C2.90625 9.61906 1.96891 10.6077 1.32893 11.7852C-1.4577 16.6229 0.585828 23.8291 3.29814 27.768C4.61714 29.6398 6.19623 31.8707 8.29549 31.7981C10.3947 31.7256 11.045 30.4957 13.4415 30.4957C15.838 30.4957 16.5439 31.7981 18.6246 31.7516C20.7053 31.7051 22.1543 29.8761 23.4547 27.8443C24.3927 26.4565 25.1249 24.9398 25.6283 23.3416C24.3791 22.7877 23.3164 21.8839 22.5682 20.7391C21.82 19.5942 21.4182 18.2572 21.4112 16.8889C21.4266 15.6749 21.7459 14.4841 22.3398 13.4257C22.9338 12.3673 23.7834 11.475 24.8109 10.8307C24.158 9.89584 23.2989 9.12419 22.3002 8.57563C21.3014 8.02708 20.1899 7.71638 19.0519 7.66765V7.67137ZM35.6416 3.91662V9.22872H39.8772V12.736H35.6416V25.3045C35.6416 27.1801 36.4775 28.1364 38.3353 28.1364C38.8447 28.1272 39.3533 28.0899 39.8587 28.0248V31.56C39.0296 31.6945 38.1905 31.7567 37.3507 31.746C32.9664 31.746 31.2759 30.0398 31.2759 25.7623V12.8197H27.9505V9.30314H31.183V3.92034L35.6416 3.91662ZM54.6835 31.5525H50.0391L42.2366 9.30314H46.8624L52.3427 27.1801H52.4542L57.9346 9.30314H62.4675L54.6835 31.5525ZM75.0816 31.5525H71.0688V22.4355H62.4489V18.4202H71.0503V9.30314H75.063V18.4202H83.683V22.4355H75.0816V31.5525Z" fill="#333333"/>
</g>
<defs>
<clipPath id="clip0">
<rect width="83.6842" height="31.8" fill="white"/>
</clipPath>
</defs>
</svg>
