<svg width="113" height="27" viewBox="0 0 113 27" fill="none" xmlns="http://www.w3.org/2000/svg">
<g clip-path="url(#clip0)">
<path d="M62.1395 -0.0908505C65.8847 -0.0953961 69.6229 -0.0996169 73.3684 -0.102539C73.3701 1.56145 73.3714 3.23129 73.3731 4.89495C75.5764 4.89366 77.7664 4.89073 79.9717 4.88911C79.974 7.17876 79.9763 9.46971 79.978 11.7626C77.774 11.7642 75.583 11.7672 73.3807 11.7685C73.386 16.7471 73.3909 21.6949 73.3956 26.6736C70.6247 26.9119 67.2324 27.1126 65.0622 26.4307C63.9081 26.0681 62.9312 25.0216 62.513 23.9346C62.1458 22.9904 62.1326 14.7045 62.1293 11.7801C60.6228 11.7801 59.0859 11.7818 57.5808 11.7847C57.5779 9.49179 57.5762 7.20117 57.5735 4.91119C59.0783 4.90989 60.6155 4.90827 62.122 4.90664C62.12 3.26311 62.0766 1.45463 62.1395 -0.0908505Z" fill="#F47920"/>
<path d="M14.975 4.32937C21.3814 3.86151 28.5566 5.81771 29.9132 10.2772C29.956 10.4775 30.123 11.3578 30.123 11.3578C30.123 11.3578 30.1588 23.6148 30.1618 26.7496C26.4394 26.7541 22.7125 26.7564 18.9922 26.761C18.9899 24.6979 18.9879 22.6307 18.9862 20.569C15.8554 21.4738 9.16998 22.7898 13.4351 26.7671C10.7334 26.7697 3.58437 26.7931 2.32383 26.7772C0.689829 26.4213 -0.274464 24.2255 0.118874 22.1216C0.4751 20.2076 1.71278 18.8641 3.18208 18.0293C6.7831 15.9796 12.1242 16.0936 16.7806 15.0042C17.3893 14.8611 18.002 14.7952 18.458 14.4912C18.7364 14.3055 18.8504 14.0497 18.9206 13.6386C19.2311 11.7876 17.3343 11.2392 15.5608 11.2584C15.0303 11.2629 14.2953 11.3448 13.8244 11.4879C13.496 11.5844 13.0394 11.7948 12.7829 11.9996C12.2441 12.4237 11.9157 13.0276 11.9174 13.988C8.33061 13.9912 4.73754 13.9951 1.15176 13.9984C1.28 13.0594 1.44569 12.2847 1.72835 11.5552C2.23899 10.2363 2.91764 9.19667 3.80871 8.25834C6.25854 5.67615 10.2287 4.67451 14.975 4.32937Z" fill="#F47920"/>
<path d="M51.9007 4.40527C53.1318 4.31598 54.2124 4.62605 55.0842 4.91372C55.0865 7.2037 55.0888 9.49465 55.0912 11.7859C53.0917 11.7888 50.9265 11.6674 49.5354 12.2463C48.696 12.5928 47.8537 13.4015 47.512 14.2379C47.0733 15.3022 47.2257 17.0334 47.227 18.4971C47.23 21.2384 47.2323 23.9891 47.236 26.7336C43.4352 26.7362 39.6317 26.7404 35.8338 26.7437C35.8265 19.4724 35.8189 12.2041 35.8113 4.93288C39.2837 4.92833 42.8562 4.92573 46.3317 4.92119C46.333 5.77672 46.2677 6.85856 46.3473 7.53585C47.4762 5.76471 49.1662 4.60397 51.9007 4.40527Z" fill="#F47920"/>
<path d="M111.754 12.0713C110.66 9.68485 108.82 7.66858 106.538 6.45362C103.913 5.05424 100.193 4.10845 95.9455 4.41982C88.364 4.9695 83.1727 8.39229 81.8923 15.1681C81.4118 17.7019 81.7236 20.6318 82.4788 22.6656C82.7976 23.5267 84.2474 26.4673 84.9144 26.6955C85.8784 26.6442 91.1227 26.6891 93.1908 26.6881C93.1885 24.8676 93.1861 23.0533 93.1845 21.2344C99.7407 21.2286 106.304 21.2227 112.863 21.2152C113.315 17.9067 112.826 14.4135 111.754 12.0713ZM92.8306 15.4986C92.9081 14.5116 93.0334 13.8112 93.4065 13.1693C93.9894 12.1592 95.0272 11.4615 96.473 11.3154C100.034 10.9514 101.642 12.5859 101.975 15.4895C98.9278 15.4911 95.8762 15.4957 92.8306 15.4986Z" fill="#F47920"/>
</g>
<defs>
<clipPath id="clip0">
<rect width="113" height="27" fill="white"/>
</clipPath>
</defs>
</svg>
