<svg width="114" height="49" viewBox="0 0 114 49" fill="none" xmlns="http://www.w3.org/2000/svg">
<path d="M31.5736 38.8242C35.8352 39.0774 40.1064 39.2733 44.3632 39.6029C48.4671 39.9182 52.5663 40.3434 56.6607 40.7686C60.1627 41.1365 63.6599 41.6047 67.1714 41.9774C70.1813 42.2927 73.2007 42.6176 76.2249 42.8039C79.8559 43.0284 83.5012 43.253 87.1417 43.2196C93.8733 43.1527 100.466 42.1589 106.73 39.4883C108.921 38.5939 110.974 37.3922 112.826 35.9194C112.958 35.8095 113.106 35.7209 113.266 35.6566C113.614 35.5324 113.805 35.7044 113.743 36.0436C113.682 36.3218 113.572 36.587 113.418 36.8271C111.799 39.5456 109.467 41.5474 106.825 43.2148C102.836 45.7326 98.4359 47.1563 93.8303 48.021C89.8167 48.7731 85.7341 49.0934 81.6522 48.9765C78.2602 48.8858 74.8633 48.7042 71.4903 48.3602C66.45 47.8395 61.4287 47.1563 56.4027 46.5113C52.2271 45.9762 48.0706 45.3026 43.8854 44.8535C39.1652 44.3757 34.4354 43.898 29.7008 43.6686C25.3388 43.4728 20.9626 43.5922 16.5959 43.6686C14.3504 43.7069 12.1049 43.9314 9.86425 44.1464C6.97906 44.4045 4.12219 44.9161 1.3267 45.6752C0.934943 45.7803 0.395076 46.024 0.203973 45.551C0.0128692 45.078 0.590957 44.8822 0.944498 44.7054C4.61453 42.8943 8.49025 41.5339 12.4871 40.654C18.1967 39.3416 24.05 38.7604 29.9062 38.9245C30.4604 38.9245 31.0146 38.9245 31.5688 38.9245L31.5736 38.8242Z" fill="#EC008C"/>
<path d="M18.9751 32.3888C15.9461 35.7331 8.49787 36.3255 4.94812 34.553C1.39838 32.7805 -0.140004 29.484 0.170539 25.896C0.567078 21.3717 3.72984 18.6771 7.91978 17.884C11.3744 17.3004 14.9201 17.5894 18.2346 18.7249L19.085 18.9877C18.9752 18.053 18.8157 17.1248 18.6072 16.2071C17.8572 13.5938 15.9605 12.2608 13.3853 11.7687C10.2608 11.1763 7.2987 11.7831 4.38915 12.944L3.33808 13.3692C2.99409 11.9073 2.6501 10.5027 2.33001 9.06939C2.33504 8.99267 2.35852 8.91829 2.39844 8.85259C2.43836 8.78688 2.49356 8.73178 2.55933 8.69196C4.86894 7.42052 7.4033 6.60927 10.0219 6.30317C12.8215 5.9722 15.6595 6.33311 18.2871 7.35424C22.587 9.12194 24.9758 12.3946 25.1286 17.0002C25.315 22.8241 25.2003 28.6575 25.2242 34.4909C25.2242 34.8922 25.0809 35.0165 24.6843 35.0117C23.2176 35.0117 21.7461 35.0117 20.2794 35.0117C20.2102 35.0232 20.1394 35.0205 20.0712 35.004C20.0031 34.9874 19.939 34.9573 19.8828 34.9153C19.8265 34.8734 19.7794 34.8205 19.7441 34.7599C19.7088 34.6993 19.6861 34.6322 19.6774 34.5626C19.4768 33.8555 19.2427 33.158 18.9751 32.3888ZM11.8087 30.817C12.3152 30.7501 13.0844 30.7071 13.8249 30.5542C16.1516 30.0764 17.924 28.8773 18.6025 26.5124C18.7975 25.604 18.9268 24.6827 18.9894 23.7557C19.0516 23.3114 18.827 23.1203 18.4352 22.9769C16.1397 22.1243 13.6865 21.7804 11.245 21.9689C9.92318 22.0115 8.64206 22.4363 7.55668 23.1919C7.02944 23.5722 6.60284 24.0752 6.31385 24.6575C6.02486 25.2398 5.88218 25.8838 5.89818 26.5337C5.91418 27.1836 6.08837 27.8197 6.40567 28.3871C6.72297 28.9545 7.1738 29.4359 7.71912 29.7898C8.88963 30.559 10.1987 30.7644 11.7992 30.817H11.8087Z" fill="#EC008C"/>
<path d="M113.81 20.9512C113.739 24.8593 112.726 28.4186 109.988 31.3329C107.775 33.6986 104.768 35.165 101.541 35.4512C98.6062 35.8345 95.6249 35.2811 93.0229 33.8698C89.091 31.7104 86.8885 28.2992 86.1432 23.9468C85.5508 20.4735 85.8326 17.0527 87.3997 13.8517C89.6022 9.35603 93.2761 6.85735 98.2448 6.31749C102.459 5.83973 106.233 6.94813 109.377 9.85768C111.832 12.127 113.113 15.0127 113.562 18.2806C113.705 19.1549 113.739 20.0626 113.81 20.9512ZM92.0435 20.6598C92.0055 22.3842 92.3652 24.0942 93.0946 25.6572C94.461 28.4186 96.6634 30.0334 99.7832 30.0669C101.151 30.1341 102.509 29.793 103.683 29.0869C104.857 28.3808 105.794 27.3417 106.376 26.1015C108.249 22.4084 108.206 18.6484 106.023 15.113C105.461 14.2058 104.706 13.4337 103.812 12.8519C102.918 12.2701 101.906 11.893 100.849 11.7474C99.7919 11.6018 98.7159 11.6914 97.6975 12.0097C96.6792 12.3281 95.7437 12.8673 94.9578 13.589C92.8414 15.5287 92.1391 18.0751 92.0435 20.6598Z" fill="#EC008C"/>
<path d="M29.4332 28.0125C30.9 28.4903 32.2998 29.0397 33.7331 29.4458C35.1683 29.8204 36.625 30.1076 38.095 30.3057C39.2783 30.4839 40.4867 30.2476 41.5158 29.6369C43.3265 28.5428 43.4555 26.2591 41.7307 25.0361C40.9841 24.5393 40.1825 24.1305 39.342 23.8178C37.7415 23.1632 36.098 22.6043 34.4927 21.9641C32.5817 21.1949 30.9238 20.053 29.8584 18.2328C27.5748 14.3343 29.1514 9.49935 33.3604 7.5071C35.6387 6.45368 38.1595 6.03602 40.6558 6.29837C42.8477 6.48939 45.0068 6.95651 47.0816 7.68865C47.2775 7.75553 47.4686 7.83675 47.7266 7.9323L46.58 12.7911C45.0416 12.4137 43.6083 11.9885 42.1082 11.7162C40.854 11.4141 39.5481 11.3961 38.2861 11.6636C37.1968 11.9455 36.3225 12.5236 36.0215 13.6893C35.8776 14.1711 35.904 14.6878 36.0963 15.1525C36.2886 15.6171 36.635 16.0014 37.0774 16.2405C37.9339 16.7321 38.823 17.1647 39.7385 17.5352C41.5588 18.314 43.4411 18.9685 45.2136 19.8333C47.6406 21.0181 49.222 22.9578 49.5134 25.7001C49.8765 29.2212 48.5245 32.2693 45.0751 34.0657C42.6474 35.3037 39.9098 35.8021 37.2016 35.499C34.4806 35.275 31.8291 34.5237 29.395 33.2869C28.3201 32.7136 28.3201 32.7041 28.6115 31.5431C28.9029 30.3822 29.1609 29.1878 29.4332 28.0125Z" fill="#EC008C"/>
<path d="M50.7747 6.75703H53.5839C54.4152 6.75703 54.4152 6.75703 54.4152 5.90662V1.1577C54.4152 0.957038 54.4152 0.751602 54.4439 0.522278H60.7838C60.7838 0.742047 60.8172 0.961816 60.8172 1.18158C60.8172 2.8203 60.8172 4.45901 60.8172 6.09772C60.8172 6.64236 60.9988 6.77614 61.51 6.77136C63.0913 6.74269 64.6775 6.77136 66.2875 6.77136C66.6984 6.77136 66.8704 6.88124 66.8609 7.316C66.837 8.32885 66.8322 9.33692 66.8609 10.3498C66.8609 10.7989 66.6841 10.947 66.2637 10.9756C64.7062 11.0855 63.1487 11.2288 61.5864 11.3292C61.0656 11.3626 60.8315 11.4868 60.8363 12.0936C60.865 16.7278 60.8363 21.3573 60.8363 25.9916C60.8441 26.5243 60.9098 27.0545 61.0322 27.573C61.1235 28.2162 61.4542 28.8014 61.9582 29.2114C62.4621 29.6215 63.1022 29.8263 63.7506 29.785C65.0406 29.785 66.3305 29.7229 67.6826 29.6894V33.6118C67.6826 34.6151 67.6826 34.6151 66.7271 34.897C64.5936 35.5775 62.3289 35.7413 60.1197 35.3748C57.0047 34.7919 54.9742 32.6802 54.5872 29.5127C54.4957 28.7757 54.4495 28.0337 54.4487 27.2911C54.4487 22.2428 54.4487 17.1913 54.4487 12.1366C54.4487 11.5824 54.3101 11.3626 53.7368 11.3196C52.8824 11.249 52.0323 11.1325 51.1904 10.9709C51.0981 10.9375 51.0156 10.8815 50.9506 10.8081C50.8855 10.7346 50.8398 10.646 50.8177 10.5504C50.7413 9.2987 50.7747 8.08042 50.7747 6.75703Z" fill="#EC008C"/>
<path d="M86.1862 6.18849V12.0601C85.5937 12.1318 84.9918 12.17 84.3994 12.2799C80.969 12.944 79.058 15.1178 78.3366 18.4C78.0675 19.7031 77.9314 21.0301 77.9305 22.3606C77.8779 26.326 77.9305 30.2914 77.9305 34.252C77.9305 35.0021 77.9305 35.0021 77.1756 35.0069H71.5381V6.81913H77.6295V11.119C79.574 7.84631 82.474 6.38915 86.1862 6.18849Z" fill="#EC008C"/>
</svg>
