<svg width="68" height="64" viewBox="0 0 68 64" fill="none" xmlns="http://www.w3.org/2000/svg">
<path d="M23.5524 63.8743C23.2626 63.8743 22.9728 63.7796 22.7362 63.614L1.49654 48.3364C1.13574 48.0761 0.916893 47.6562 0.916893 47.2126C0.916893 46.769 1.13574 46.3431 1.49654 46.0829L21.1747 31.9408L1.49654 17.7929C1.13574 17.5326 0.916893 17.1127 0.916893 16.6632C0.916893 16.2196 1.13574 15.7937 1.49654 15.5335L22.7421 0.261725C23.2271 -0.0872417 23.8837 -0.0872417 24.3687 0.261725L66.8657 30.8052C67.2265 31.0714 67.4454 31.4913 67.4454 31.9349C67.4454 32.3785 67.2325 32.7985 66.8717 33.0587L24.3687 63.6081C24.1262 63.7796 23.8482 63.8743 23.5524 63.8743ZM4.69047 47.2126L23.5583 60.775L63.6718 31.9408L23.5524 3.10669L4.68456 16.6691L24.3627 30.817C24.7235 31.0773 24.9424 31.4972 24.9424 31.9467C24.9424 32.3903 24.7235 32.8103 24.3627 33.0705L4.69047 47.2126Z" fill="#FF0028"/>
</svg>
