<svg width="114" height="18" viewBox="0 0 114 18" fill="none" xmlns="http://www.w3.org/2000/svg">
<g clip-path="url(#clip0)">
<path d="M26.6142 8.56248C26.6142 10.0023 24.7212 9.91665 24.7212 9.91665H22.8284V7.3148H24.7212C26.6709 7.30434 26.6142 8.56248 26.6142 8.56248ZM22.8284 3.34827H24.2706C25.7692 3.42299 25.7126 4.47838 25.7126 4.47838C25.7126 5.79015 24.0566 5.81151 24.0566 5.81151H22.8284V3.34827ZM26.265 6.32329C26.265 6.32329 27.5607 5.80092 27.5497 4.41456C27.5497 4.41456 27.7464 2.14336 24.5663 1.86614H21.0369V11.3884H25.082C25.082 11.3884 28.4622 11.399 28.4622 8.7011C28.4622 8.70103 28.541 6.86702 26.265 6.32329ZM17.1323 0H31.9887V13.2492H17.1323V0ZM9.48193 8.56248C9.48193 10.0023 7.58906 9.91665 7.58906 9.91665H5.69606V7.3148H7.58906C9.53832 7.30434 9.48193 8.56248 9.48193 8.56248ZM5.69606 3.34827H7.13835C8.63689 3.42299 8.58057 4.47838 8.58057 4.47838C8.58057 5.79015 6.92431 5.81151 6.92431 5.81151H5.69612V3.34827H5.69606ZM9.13281 6.32329C9.13281 6.32329 10.4284 5.80092 10.4172 4.41456C10.4172 4.41456 10.6144 2.14336 7.43417 1.86614H3.90452V11.3884H7.9497C7.9497 11.3884 11.3299 11.399 11.3299 8.7011C11.3299 8.70103 11.4086 6.86702 9.13281 6.32329ZM0 0H14.8566V13.2492H0V0ZM46.0901 2.54861V4.30802C46.0901 4.30802 44.2759 3.25244 42.2702 3.23095C42.2702 3.23095 38.5297 3.16203 38.3607 6.62481C38.3607 6.62481 38.2256 9.81043 42.2253 9.99175C42.2253 9.99175 43.9042 10.1835 46.1805 8.80795V10.6316C46.1805 10.6316 43.1267 12.3481 39.5887 11.0259C39.5887 11.0259 36.6139 9.99743 36.5015 6.62481C36.5015 6.62481 36.3775 3.15655 40.3437 2.00488C40.3437 2.00488 41.4029 1.62106 43.3069 1.79161C43.3069 1.79154 44.445 1.89821 46.0901 2.54861ZM34.2645 13.2492H49.1212V0H34.2645V13.2492Z" fill="black"/>
<path d="M96.6787 5.21649L97.4203 3.46193H93.8713L91.7524 9.92875H91.6994L89.4217 3.46193H85.5548L86.0845 4.66506H86.0315C85.131 3.61232 83.6478 3.21127 82.0057 3.21127C80.4695 3.21127 79.6749 3.4118 78.3507 3.76271C78.3507 3.76271 77.5561 6.06871 77.5031 6.16897C77.4502 6.26923 77.5561 6.41962 77.715 6.31936C78.6155 5.91832 79.7809 5.46714 81.2641 5.46714C82.5354 5.46714 83.5948 5.81805 83.6478 7.17158C83.1711 7.07131 82.5354 7.02118 82.0057 7.02118C80.4695 7.02118 78.0328 7.27184 77.0794 8.87601H77.0264V0.00292969H73.4773V3.16114H73.4243C72.7357 1.1058 70.7758 0.00292969 67.2797 0.00292969H62.8301V3.56219L64.3662 6.31936C64.5781 6.51988 64.6311 6.77053 64.3662 7.02118L62.8301 9.82849V13.3877H66.5381V9.12666H67.9683C70.8287 9.12666 72.7357 7.8734 73.3184 5.91832H73.3714V13.3877H76.9204V11.9841H76.9734C77.6091 13.087 78.9863 13.5381 80.4695 13.5883C82.2705 13.6384 83.277 12.7862 83.6478 12.5355C83.7537 12.4854 83.8067 12.4353 83.8067 12.5355C83.8067 12.8363 83.8597 13.1371 83.8597 13.3376H87.1439C86.985 12.5355 86.932 11.7836 86.932 10.9815V7.27184C86.932 7.07131 86.932 6.87079 86.879 6.67027H86.932L89.7925 13.5381C89.7925 13.5381 89.3157 15.0922 87.8325 15.0922C87.1969 15.0922 86.8261 14.9919 86.2964 14.7413C86.1904 14.6911 86.1374 14.7413 86.0845 14.8415L85.2369 17.348C85.7666 17.5987 87.038 17.9997 88.4152 17.9997C91.4346 17.9997 92.7589 14.8415 93.6594 12.6358L95.8312 7.3721H95.8842C95.8312 7.67288 95.8312 7.97366 95.8312 8.32457C95.8312 11.583 98.4268 13.5381 101.87 13.5381C102.929 13.5381 104.042 13.3376 104.942 13.0368C104.942 13.0368 105.684 10.9815 105.843 10.5303C105.896 10.3799 105.737 10.2797 105.631 10.3799C104.73 10.8311 103.724 11.2823 102.559 11.2823C100.81 11.2823 99.6981 10.7308 99.5392 9.37731H106.478V13.3376H110.027V9.12666C110.027 6.97105 111.246 6.01858 112.623 6.01858C112.941 6.01858 113.206 6.11884 113.206 6.11884L114 3.51206C114 3.4118 114 3.36167 113.894 3.31154C113.577 3.2614 113.206 3.21127 112.835 3.21127C111.299 3.21127 110.186 4.01336 109.551 5.26662H109.498V3.46193H106.267V6.7204H106.214C105.631 4.71519 104.148 3.2614 101.287 3.2614C99.3273 3.2614 97.6852 3.96323 96.6787 5.21649ZM67.4916 6.57001H66.5381V2.55958H67.4916C68.7629 2.55958 69.7693 3.21127 69.7693 4.5648C69.7693 5.96845 68.7629 6.57001 67.4916 6.57001ZM81.37 11.3324C80.5225 11.3324 79.8868 10.9314 79.8868 10.2295C79.8868 9.27705 80.8403 8.92614 82.0587 8.92614C82.5884 8.92614 83.1181 8.97627 83.5419 8.97627C83.5948 10.1293 82.7473 11.3324 81.37 11.3324ZM99.2743 7.47236C99.3273 6.31936 99.963 5.41701 101.234 5.41701C102.664 5.41701 103.194 6.36949 103.194 7.47236H99.2743Z" fill="#F54997"/>
<path d="M58.6983 0.00292969H55.2021V3.36167H58.6983V1.95801L64.3662 6.67027L58.6983 11.4327V5.01597H55.2021V13.3877H58.6983L66.538 6.67027" fill="#F54997"/>
</g>
<defs>
<clipPath id="clip0">
<rect width="114" height="18" fill="white"/>
</clipPath>
</defs>
</svg>
