<svg width="128" height="15" viewBox="0 0 128 15" fill="none" xmlns="http://www.w3.org/2000/svg">
<path fill-rule="evenodd" clip-rule="evenodd" d="M37.5694 0H53.5599V14.9997H37.5694V0ZM47.6424 2.08904C47.574 2.07814 47.5029 2.06723 47.4263 2.05086L47.3415 2.03996C47.2184 2.02359 47.0925 2.00996 46.9667 1.99905C46.8846 1.98814 46.7971 1.98814 46.7123 1.97996C46.5618 1.96905 46.4141 1.96632 46.2691 1.96632C46.2034 1.96632 46.1679 1.96632 46.1022 1.96632C45.9818 1.96905 45.8615 1.97723 45.7466 1.98269C45.6782 1.98815 45.6152 1.99359 45.5523 1.99905C45.4538 2.00996 45.3608 2.01814 45.2705 2.03178L45.1939 2.03995L45.1064 2.05086L44.9997 2.06995C44.9532 2.07813 44.9067 2.08631 44.8629 2.09177C44.7973 2.10267 44.7371 2.11904 44.6769 2.12995C44.2966 2.20904 43.9437 2.3154 43.6209 2.44358C43.454 2.50903 43.2926 2.57721 43.1421 2.65085C43.0135 2.71357 42.8932 2.7763 42.7755 2.84448C42.6606 2.90993 42.5512 2.97811 42.4445 3.04902C42.3843 3.0872 42.3241 3.12811 42.2694 3.16902C42.2174 3.2072 42.1682 3.24265 42.1217 3.27811C42.0177 3.35719 41.922 3.43628 41.8317 3.51537C41.7469 3.59173 41.6621 3.6681 41.5855 3.74719C41.5171 3.81264 41.4487 3.88082 41.3885 3.95173C41.3228 4.02264 41.2599 4.09627 41.197 4.1699C41.1313 4.25172 41.0657 4.33354 41.0028 4.42081C40.959 4.48353 40.9125 4.54899 40.8687 4.61717C40.8359 4.6608 40.8113 4.70716 40.7812 4.75353C40.6116 5.02625 40.4666 5.31806 40.3462 5.62896C40.2012 6.01623 40.089 6.43076 40.0316 6.87257C40.0124 7.01166 39.9987 7.15347 39.9905 7.29802C39.9823 7.40983 39.9796 7.52438 39.9796 7.63619C39.9796 7.72346 39.9796 7.80528 39.9823 7.88982C39.9933 7.97709 39.9988 8.06164 40.007 8.14891L40.0152 8.20891C40.0288 8.30981 40.0398 8.41072 40.0617 8.50617C40.0699 8.54708 40.0753 8.58526 40.0835 8.62344C40.1027 8.70526 40.1219 8.78708 40.1437 8.86616C40.1711 8.96707 40.2012 9.0707 40.234 9.16888C40.2778 9.29161 40.3188 9.41161 40.3708 9.52615C40.4474 9.70887 40.5295 9.88614 40.6198 10.0498C40.6772 10.1507 40.7265 10.2434 40.7839 10.3334C40.8331 10.4098 40.8797 10.4779 40.9262 10.5434C40.9891 10.6389 41.052 10.7234 41.1177 10.8025C41.1861 10.8898 41.2545 10.9716 41.3256 11.0507C41.4104 11.1488 41.4952 11.2388 41.5773 11.3207L41.621 11.367C41.6894 11.4297 41.766 11.5034 41.8508 11.577C41.9083 11.6261 41.9712 11.6752 42.0369 11.727C42.0971 11.7761 42.16 11.8252 42.2284 11.8743C42.3077 11.9316 42.3925 11.9916 42.4828 12.0488C42.5813 12.1115 42.6798 12.1688 42.7865 12.2315C42.9971 12.3461 43.2324 12.4606 43.4868 12.5615C43.5826 12.6024 43.6811 12.6379 43.785 12.6734C43.889 12.7061 43.9902 12.7415 44.0996 12.7715C44.2802 12.8233 44.4772 12.8724 44.6796 12.9079C44.8438 12.9406 45.0134 12.9679 45.1885 12.987C45.3635 13.0115 45.5468 13.0252 45.7356 13.0361C45.8232 13.0388 45.9162 13.0415 46.0119 13.047C46.053 13.047 46.0967 13.047 46.1405 13.047C46.477 13.047 46.7889 13.0333 47.0761 13.0115L47.1336 13.0061C47.2485 12.9952 47.3606 12.9842 47.4646 12.9706C47.6288 12.9488 47.7874 12.927 47.9379 12.8997C48.0309 12.8806 48.1212 12.8643 48.2115 12.8424C48.3483 12.8152 48.4796 12.7852 48.6054 12.7497C48.6957 12.7252 48.786 12.7006 48.8735 12.6733C48.9775 12.6433 49.0705 12.6106 49.1662 12.5779L49.2565 12.5479C49.303 12.5288 49.366 12.5097 49.4398 12.4797C49.5328 12.4415 49.6505 12.3952 49.7845 12.3406C49.8611 12.3079 49.9487 12.2697 50.0362 12.2315C50.1128 12.1934 50.1949 12.1552 50.277 12.1115C50.3125 12.0979 50.3481 12.0815 50.3837 12.0625V10.017C50.359 10.0334 50.3317 10.0498 50.3098 10.0634L50.1675 10.1452C50.028 10.2325 49.894 10.3116 49.7572 10.3825C49.6094 10.4643 49.4617 10.5407 49.3194 10.6061C49.065 10.7261 48.8243 10.827 48.5863 10.9116C48.1403 11.0697 47.7272 11.1707 47.3661 11.2361C47.3223 11.2443 47.2813 11.2497 47.2375 11.2579C47.1391 11.2716 47.0433 11.2825 46.9503 11.2934C46.808 11.3097 46.6767 11.3179 46.5536 11.3234C46.477 11.3261 46.4059 11.3288 46.3375 11.3288C46.1925 11.3288 46.042 11.3261 45.8916 11.3125C45.711 11.3016 45.5304 11.2825 45.3471 11.2497C45.0489 11.2007 44.7507 11.1297 44.458 11.0207C44.417 11.007 44.3732 10.9879 44.3322 10.9716C44.3048 10.9607 44.2747 10.9498 44.2474 10.9388C44.2009 10.917 44.1516 10.8952 44.1051 10.8734C44.0066 10.827 43.9054 10.7779 43.8069 10.7234C43.7604 10.6934 43.7112 10.6634 43.6647 10.6334C43.6154 10.6061 43.5662 10.5707 43.5197 10.5407C43.4595 10.497 43.3993 10.4561 43.3391 10.4098C43.2871 10.3661 43.2297 10.3198 43.1804 10.2761L43.112 10.2161L43.0792 10.1861L43.0601 10.167L43.0354 10.1425C42.9397 10.0498 42.8576 9.95977 42.7783 9.86705C42.7372 9.81523 42.6962 9.76342 42.6579 9.7116C42.6196 9.65705 42.584 9.60796 42.5512 9.55887C42.5184 9.50978 42.491 9.46342 42.4609 9.41706C42.4199 9.34342 42.3816 9.26979 42.346 9.19888C42.3159 9.13616 42.2886 9.07888 42.2639 9.01616C42.2174 8.91252 42.1819 8.80889 42.149 8.71344C42.1244 8.63708 42.1053 8.55799 42.0861 8.48435C42.0314 8.27163 42.0013 8.07527 41.9849 7.90891C41.9794 7.84619 41.9767 7.78891 41.974 7.73164C41.9712 7.64983 41.9685 7.57892 41.9685 7.51892C41.9685 7.48347 41.9712 7.43983 41.9712 7.39074C41.9767 7.27347 41.9849 7.1262 42.0095 6.95711C42.0259 6.85621 42.0451 6.74712 42.0724 6.62712C42.0889 6.55348 42.1135 6.47985 42.1381 6.39531C42.16 6.3244 42.1846 6.25077 42.2174 6.1744C42.2339 6.12259 42.2557 6.07622 42.2776 6.02168C42.3077 5.9535 42.3433 5.88532 42.3788 5.81441C42.4035 5.76259 42.4363 5.70805 42.4637 5.65623C42.5321 5.54169 42.6087 5.42442 42.6962 5.30715C42.7263 5.26897 42.7591 5.22806 42.7947 5.18443C42.8357 5.13534 42.8822 5.08079 42.9315 5.02897C42.9561 5.0017 42.978 4.97443 43.0053 4.94988C43.3829 4.57626 43.8014 4.29535 44.2419 4.09627C44.3103 4.06354 44.3787 4.03627 44.4471 4.009C44.5182 3.98445 44.5866 3.95718 44.655 3.93809C44.7343 3.90809 44.8109 3.88627 44.8848 3.86445C44.9587 3.84264 45.0298 3.82627 45.1009 3.81264C45.1775 3.79355 45.2459 3.77991 45.3198 3.76627C45.3964 3.75264 45.4785 3.739 45.5551 3.73082C45.6371 3.71991 45.7137 3.709 45.7903 3.70355C45.9408 3.69264 46.0885 3.68446 46.2308 3.68446H46.3703C46.4797 3.68719 46.5864 3.69264 46.6849 3.69536C46.756 3.70082 46.8244 3.70627 46.8901 3.71445C47.0214 3.72536 47.1445 3.74173 47.2676 3.75809C47.3716 3.77445 47.4728 3.79354 47.5686 3.81264C47.7163 3.83991 47.8504 3.87263 47.968 3.90536C48.0501 3.92445 48.1212 3.949 48.1868 3.96536C48.2853 3.99263 48.3701 4.02263 48.4385 4.04445C48.5507 4.08536 48.6136 4.10717 48.6136 4.10717C48.7148 4.14263 48.8133 4.18354 48.9118 4.22172C49.0404 4.27626 49.1662 4.33353 49.2866 4.38262C49.3851 4.42898 49.4809 4.47535 49.5657 4.51626C49.6423 4.55444 49.7107 4.59262 49.7736 4.62262C49.8857 4.67989 49.9815 4.7317 50.0581 4.77261L50.2688 4.88988V2.87994C50.2688 2.87994 50.1429 2.82812 49.9268 2.7463C49.8283 2.70812 49.7161 2.66722 49.5876 2.62358C49.5137 2.59631 49.4398 2.57176 49.3605 2.54176C49.2948 2.51995 49.2292 2.49813 49.1635 2.47631C49.0869 2.45176 49.0076 2.42449 48.9228 2.39995C48.8626 2.38358 48.8024 2.36177 48.7422 2.34813L48.6875 2.33177C48.6273 2.3154 48.5644 2.29631 48.5042 2.28268C48.4331 2.26086 48.3565 2.24177 48.2826 2.22541C48.2361 2.21177 48.1841 2.20086 48.1376 2.18995C48.0583 2.17086 47.9762 2.15177 47.8941 2.13814C47.8121 2.11905 47.7272 2.10268 47.6424 2.08904Z" fill="black"/>
<path fill-rule="evenodd" clip-rule="evenodd" d="M19.1426 0V15H35.1328V0H19.1426ZM23.3365 2.1044H26.8572C28.7476 2.1044 29.5853 3.09368 29.5853 3.09368C29.5853 3.09368 30.3533 3.7528 30.3533 4.90096C30.3533 6.03548 29.832 6.50775 29.687 6.6523C29.3697 6.96592 28.9647 7.15218 28.9647 7.15218C28.9647 7.15218 29.8649 7.33996 30.5707 8.04358C31.3996 8.8672 31.3386 9.94873 31.3386 9.94873C31.3386 9.94873 31.3987 10.9768 30.5041 11.8714C29.4043 12.965 27.4182 12.9096 27.4182 12.9096H23.3365V2.1044ZM25.2792 3.78933V6.58588H26.2119C26.2119 6.58588 26.2701 6.58784 26.3522 6.58238C26.4179 6.58238 26.4942 6.57812 26.5626 6.57539C26.7541 6.56175 27.0188 6.53017 27.2815 6.45654C27.3334 6.44563 27.3873 6.43018 27.4393 6.41109C27.6444 6.33473 27.8471 6.229 28.0003 6.079C28.1234 5.959 28.2016 5.82461 28.2563 5.69098C28.322 5.5328 28.3463 5.37786 28.3545 5.2715C28.3627 5.17332 28.365 5.11419 28.365 5.11419V4.99534C28.3568 4.87261 28.331 4.67587 28.2353 4.48497C28.1888 4.39497 28.1237 4.30384 28.0389 4.2193C27.9349 4.11839 27.804 4.03537 27.6672 3.97809C27.4046 3.86355 27.1089 3.81695 26.8572 3.80331C26.745 3.79513 26.6412 3.78933 26.5591 3.78933H25.2792H25.2792ZM25.2792 8.27429V11.2212H27.1973C27.1973 11.2212 27.2396 11.2204 27.3025 11.2177C27.3682 11.2177 27.4596 11.2111 27.569 11.2002C27.7769 11.1838 28.0506 11.1434 28.3159 11.0534C28.5594 10.9743 28.7946 10.8531 28.9752 10.6758C29.0436 10.6049 29.0978 10.5335 29.147 10.4626C29.2975 10.2253 29.3324 9.98372 29.3434 9.84736C29.3461 9.78736 29.3469 9.75298 29.3469 9.75298C29.3469 9.75298 29.3496 9.72943 29.3469 9.68306C29.3441 9.62579 29.3376 9.51369 29.3048 9.39642C29.2692 9.2546 29.2042 9.09274 29.0839 8.94547C29.0593 8.9182 29.0368 8.89234 29.0067 8.86507C28.9575 8.81053 28.9013 8.75839 28.8384 8.71476C28.7317 8.63567 28.6093 8.57278 28.4807 8.5155C28.3056 8.44187 28.1155 8.38512 27.9021 8.34421C27.79 8.3224 27.6796 8.30891 27.562 8.29527C27.4909 8.28982 27.4169 8.28675 27.3376 8.28129C27.2746 8.27856 27.2026 8.2743 27.1342 8.2743H25.2792L25.2792 8.27429Z" fill="black"/>
<path fill-rule="evenodd" clip-rule="evenodd" d="M0.71875 0V15H16.709V0H0.71875ZM4.91268 2.1044H8.42984C10.323 2.1044 11.165 3.09368 11.165 3.09368C11.165 3.09368 11.9259 3.7528 11.9259 4.90096C11.9259 6.03548 11.4074 6.50775 11.2597 6.6523C10.9478 6.96592 10.5443 7.15218 10.5443 7.15218C10.5443 7.15218 11.4438 7.33996 12.1469 8.04358C12.9758 8.8672 12.9078 9.94873 12.9078 9.94873C12.9078 9.94873 12.9748 10.9768 12.0802 11.8714C10.9832 12.965 8.9909 12.9096 8.9909 12.9096H4.91268V2.1044ZM6.85536 3.78933V6.58588H7.78812C7.78812 6.58588 7.84982 6.58784 7.93189 6.58238C7.99482 6.58238 8.07039 6.57812 8.13879 6.57539C8.33029 6.56175 8.59501 6.53017 8.85765 6.45654C8.91236 6.44563 8.96269 6.43018 9.01194 6.41109C9.21712 6.33473 9.41706 6.229 9.573 6.079C9.69611 5.959 9.78051 5.82461 9.83249 5.69098C9.90088 5.5328 9.92247 5.37786 9.93067 5.2715C9.94162 5.17332 9.94119 5.11419 9.94119 5.11419C9.94119 5.11419 9.93966 5.06897 9.93418 4.99534C9.92871 4.87261 9.90369 4.67587 9.80794 4.48497C9.76143 4.39497 9.69911 4.30384 9.61157 4.2193C9.50761 4.11839 9.38367 4.03537 9.24688 3.97809C8.98425 3.86355 8.68426 3.81695 8.42984 3.80331C8.32041 3.79513 8.22359 3.78933 8.13879 3.78933H6.85536ZM6.85536 8.27429V11.2212H8.77699C8.77699 11.2212 8.81499 11.2204 8.87518 11.2177C8.94084 11.2177 9.03225 11.2111 9.14168 11.2002C9.35233 11.1838 9.62751 11.1434 9.89561 11.0534C10.1336 10.9743 10.3673 10.8531 10.5478 10.6758C10.619 10.6049 10.6759 10.5335 10.7197 10.4626C10.8701 10.2253 10.9078 9.98372 10.916 9.84736C10.9215 9.78736 10.9231 9.75298 10.9231 9.75298C10.9231 9.75298 10.9223 9.72943 10.9195 9.68306C10.9195 9.62579 10.9138 9.51369 10.881 9.39642C10.8454 9.2546 10.7769 9.09274 10.6565 8.94547C10.6347 8.9182 10.6095 8.89234 10.5794 8.86507C10.5302 8.81052 10.474 8.75839 10.4111 8.71475C10.3071 8.63566 10.1855 8.57277 10.0569 8.5155C9.88183 8.44186 9.68897 8.38512 9.47832 8.34421C9.36615 8.32239 9.25504 8.3089 9.13467 8.29527C9.06354 8.28981 8.99309 8.28674 8.91375 8.28129C8.85083 8.27856 8.77876 8.27429 8.71037 8.27429H6.85536Z" fill="black"/>
<path fill-rule="evenodd" clip-rule="evenodd" d="M61.1149 4.17744L62.9379 8.26621H59.418L61.1149 4.17744ZM61.7152 1.69531H60.5703L55.7054 13.0531H57.3653L58.7956 9.7252H63.6085L65.1202 13.0531H66.7801L61.7152 1.69531Z" fill="black"/>
<path fill-rule="evenodd" clip-rule="evenodd" d="M67.9119 1.76562V13.0523H69.5409V4.25593H69.5741L73.06 8.63045H73.326L76.8119 4.25593H76.8451V13.0523H78.4741V1.76562H76.9639L73.193 6.39109L69.4412 1.76562H67.9119Z" fill="black"/>
<path fill-rule="evenodd" clip-rule="evenodd" d="M81.6846 1.76562V13.0523H88.2575V11.5942H83.3136V8.08126H87.944V6.62311H83.3136V3.21907H88.1102V1.76562H81.6846Z" fill="black"/>
<path fill-rule="evenodd" clip-rule="evenodd" d="M92.8866 3.15442H93.9315C95.5098 3.15442 96.1434 3.80077 96.1583 4.85718C96.1731 5.80274 95.6766 6.69655 93.9315 6.69655H92.8866V3.15442ZM91.2601 1.76562V13.0569H92.8866V8.15557H93.5684C94.3984 8.15557 95.0801 8.4178 96.5732 10.7337L98.0703 13.0569H100.012C99.2299 11.9784 98.9521 11.598 98.4703 10.8186C97.6033 9.41134 96.9735 8.36975 95.9434 7.69017C97.1549 7.20995 97.8367 6.2349 97.8367 4.92732C97.8367 2.96977 96.4102 1.76562 94.1167 1.76562H91.2601Z" fill="black"/>
<path fill-rule="evenodd" clip-rule="evenodd" d="M101.684 1.76172V13.0532H103.307V1.76172H101.684Z" fill="black"/>
<path fill-rule="evenodd" clip-rule="evenodd" d="M115.669 2.54034C114.128 1.894 112.946 1.61328 111.783 1.61328C108.178 1.61328 105.573 4.12865 105.573 7.57472C105.573 9.94231 107.433 13.2001 111.683 13.2001C113.461 13.2001 114.677 12.79 115.788 12.2102V10.4373C114.506 11.2646 113.113 11.7115 111.834 11.7115C109.108 11.7115 107.251 9.95706 107.251 7.42328C107.251 4.94117 109.175 3.1018 111.764 3.1018C113.079 3.1018 114.273 3.46747 115.669 4.27634V2.54034Z" fill="black"/>
<path fill-rule="evenodd" clip-rule="evenodd" d="M121.62 4.17744L123.443 8.26621H119.923L121.62 4.17744ZM122.213 1.69531H121.068L116.203 13.0531H117.863L119.297 9.7252H124.106L125.618 13.0531H127.281L122.213 1.69531Z" fill="black"/>
</svg>
