<svg width="88" height="51" viewBox="0 0 88 51" fill="none" xmlns="http://www.w3.org/2000/svg">
<path fill-rule="evenodd" clip-rule="evenodd" d="M60.0076 0H85.8374V24.3194H60.0076V0ZM76.2808 3.38691C76.171 3.36402 76.0543 3.35487 75.933 3.32284L75.7957 3.30681C75.5988 3.27935 75.4066 3.25875 75.1961 3.23816C75.0588 3.22213 74.9238 3.21756 74.7842 3.21069C74.5347 3.1901 74.3059 3.18552 74.0702 3.18552C73.9649 3.18552 73.8985 3.19014 73.7933 3.19014C73.5896 3.19014 73.4042 3.21074 73.2257 3.2176C73.1159 3.22222 73.0083 3.23362 72.9008 3.2382C72.7497 3.25422 72.6033 3.26566 72.4545 3.29769L72.3218 3.30679L72.1799 3.32281L72.0151 3.35485C71.9396 3.36394 71.8641 3.37544 71.7931 3.39832C71.6925 3.41205 71.5895 3.42807 71.4888 3.45554C70.8823 3.58369 70.3057 3.75303 69.7976 3.95899C69.5207 4.06426 69.2553 4.18326 69.015 4.30455C68.8044 4.40067 68.6145 4.50593 68.42 4.61807C68.2323 4.71876 68.0676 4.83089 67.8868 4.93616C67.7906 5.00939 67.6968 5.07347 67.5938 5.14212C67.5206 5.20162 67.4428 5.25425 67.3627 5.31376C67.2025 5.43504 67.0377 5.57235 66.889 5.70051C66.754 5.82637 66.6235 5.94995 66.4908 6.07123C66.3855 6.17651 66.2711 6.28406 66.1773 6.40992C66.0652 6.52205 65.9645 6.63877 65.8661 6.76692C65.7562 6.89279 65.6601 7.02552 65.5617 7.16969C65.477 7.27038 65.413 7.37565 65.342 7.48779C65.2871 7.56331 65.2436 7.63196 65.2047 7.70061C64.9278 8.14686 64.6967 8.61828 64.4976 9.11716C64.255 9.74878 64.0811 10.4262 63.985 11.1333C63.9598 11.3667 63.9392 11.5956 63.9232 11.8336C63.9094 12.0143 63.9049 12.1951 63.9049 12.3759C63.9049 12.5178 63.9049 12.6551 63.9095 12.7878C63.9232 12.9274 63.9392 13.0602 63.9553 13.2089L63.9599 13.3096C63.9851 13.4744 64.0079 13.6323 64.04 13.7925C64.056 13.8611 64.0651 13.9138 64.0766 13.9824C64.104 14.1106 64.1384 14.2364 64.1635 14.3692C64.2116 14.5339 64.2597 14.6987 64.3214 14.8658C64.3787 15.0603 64.4565 15.2571 64.532 15.447C64.6578 15.7331 64.7951 16.0214 64.937 16.296C65.024 16.4516 65.1178 16.6027 65.2048 16.7583C65.2803 16.8682 65.3604 16.9871 65.429 17.0993C65.5297 17.2412 65.6373 17.3785 65.7426 17.5112C65.8478 17.66 65.9645 17.7812 66.0767 17.9185C66.2117 18.0742 66.3467 18.2183 66.4863 18.3488L66.555 18.4197C66.6694 18.525 66.7884 18.6417 66.9211 18.7698C67.0218 18.8431 67.1179 18.9277 67.2278 19.0124C67.3216 19.0879 67.4246 19.168 67.5344 19.2481C67.6694 19.342 67.8022 19.4266 67.9463 19.5342C68.1088 19.6189 68.269 19.7241 68.4315 19.8248C68.7793 20.0102 69.1546 20.2024 69.5734 20.3672C69.7222 20.4313 69.8847 20.4839 70.0563 20.5365C70.2165 20.6006 70.3858 20.6532 70.5529 20.7013C70.855 20.7814 71.1708 20.8661 71.498 20.9279C71.7589 20.9759 72.0427 21.024 72.3219 21.0514C72.6056 21.0881 72.8917 21.1132 73.1938 21.1315C73.3471 21.1407 73.4958 21.1407 73.6446 21.1476H73.862C74.3975 21.1476 74.9009 21.1315 75.3678 21.0881L75.4639 21.0766C75.6493 21.0674 75.8255 21.0468 75.9948 21.024C76.2717 20.9873 76.512 20.9507 76.7546 20.9027C76.9079 20.8866 77.0567 20.85 77.1986 20.818C77.4274 20.77 77.6288 20.7173 77.8416 20.6647C77.9835 20.6258 78.1277 20.5846 78.2718 20.5411C78.4389 20.4999 78.5899 20.445 78.7478 20.3878L78.8966 20.3397C78.9721 20.3145 79.0728 20.2757 79.1872 20.2276C79.3428 20.1704 79.5282 20.1017 79.7365 20.001C79.8738 19.953 80.0111 19.8843 80.1552 19.8248C80.2719 19.7607 80.4093 19.699 80.5443 19.6349C80.5969 19.612 80.6587 19.5708 80.7113 19.5548V16.232C80.6724 16.2594 80.6335 16.2869 80.5969 16.3121L80.3704 16.4402C80.1438 16.589 79.9264 16.7102 79.7044 16.8338C79.4641 16.9597 79.2238 17.0856 78.9927 17.2046C78.5831 17.3831 78.1849 17.5478 77.8119 17.692C77.0818 17.946 76.4251 18.1062 75.8415 18.2115C75.766 18.2229 75.7019 18.2389 75.6333 18.2504C75.4708 18.2687 75.3152 18.2916 75.1641 18.3076C74.9353 18.335 74.727 18.3442 74.5348 18.3488C74.3975 18.3556 74.2945 18.3671 74.1801 18.3671C73.9467 18.3671 73.6972 18.3556 73.4524 18.3442C73.164 18.319 72.8757 18.287 72.5713 18.2389C72.093 18.1542 71.6125 18.0307 71.1502 17.8659C71.0701 17.8407 71.006 17.8133 70.9374 17.7812C70.8893 17.7675 70.8481 17.7515 70.7955 17.724C70.7222 17.692 70.6444 17.6668 70.5689 17.6279C70.4019 17.5478 70.2462 17.4631 70.0838 17.3739C70.0151 17.3258 69.9396 17.2846 69.8549 17.2411C69.7748 17.1885 69.6993 17.1405 69.6169 17.081C69.5254 17.0237 69.4293 16.9436 69.3354 16.875C69.2439 16.8063 69.1547 16.7217 69.07 16.6576L68.967 16.5569L68.9075 16.5088L68.8777 16.4837L68.8411 16.4402C68.6878 16.296 68.5528 16.1427 68.4223 15.9939C68.356 15.9161 68.2965 15.8246 68.2232 15.7399C68.1683 15.6553 68.1134 15.5797 68.0676 15.4951C68.0058 15.415 67.9486 15.3417 67.9166 15.2571C67.8457 15.1449 67.7839 15.0328 67.7175 14.9115C67.6786 14.8108 67.6351 14.7147 67.5893 14.614C67.5207 14.4492 67.4612 14.2753 67.4131 14.122C67.3696 14.0053 67.3353 13.8657 67.301 13.7444C67.2232 13.4034 67.1751 13.0922 67.1454 12.8199C67.1271 12.71 67.1271 12.6139 67.1202 12.5292C67.118 12.3965 67.118 12.2844 67.118 12.1951V11.9869C67.1202 11.7969 67.1455 11.5521 67.1752 11.282C67.2073 11.1127 67.237 10.9365 67.2874 10.7465C67.3171 10.6184 67.3514 10.5017 67.3812 10.3689C67.4247 10.2522 67.4613 10.1355 67.5208 10.0028C67.546 9.92955 67.578 9.84488 67.6192 9.76478C67.6695 9.65265 67.7176 9.54051 67.7794 9.43067C67.8228 9.34141 67.8755 9.25675 67.9213 9.16979C68.0357 8.98442 68.1524 8.79448 68.2966 8.61369C68.3423 8.5336 68.395 8.47638 68.4499 8.40544C68.5185 8.32535 68.5918 8.23152 68.6719 8.156C68.7085 8.11481 68.752 8.07362 68.7932 8.02327C69.4042 7.41454 70.0838 6.96829 70.7864 6.64333C70.8962 6.59757 71.013 6.54264 71.1182 6.50145C71.2395 6.45339 71.3448 6.41678 71.4638 6.3733C71.5736 6.33668 71.7018 6.30921 71.8299 6.26803C71.9398 6.23141 72.0702 6.20395 72.1801 6.1765C72.2991 6.15133 72.4226 6.12387 72.5348 6.10327C72.6561 6.08268 72.7796 6.06665 72.9124 6.04378C73.0405 6.03005 73.1664 6.01861 73.2968 6.00716C73.5371 5.98656 73.7705 5.97054 73.9994 5.97054C74.0909 5.97054 74.1619 5.97054 74.2328 5.982C74.4136 5.982 74.5738 5.98661 74.7363 5.99573C74.8484 6.00719 74.9628 6.00719 75.075 6.01862C75.2786 6.03922 75.4892 6.06668 75.6768 6.10329C75.8439 6.11931 76.0132 6.15134 76.1688 6.17651C76.4045 6.22457 76.6219 6.2772 76.8233 6.33671C76.9423 6.36874 77.0568 6.39392 77.1689 6.43282C77.3222 6.47859 77.4641 6.52208 77.5717 6.55411C77.7502 6.62277 77.8577 6.65937 77.8577 6.65937C78.0156 6.71887 78.1781 6.78753 78.3337 6.8516C78.5511 6.9317 78.7479 7.01637 78.9401 7.1102C79.098 7.18572 79.2491 7.25437 79.3955 7.31845C79.5123 7.3871 79.6244 7.43973 79.7274 7.49237C79.9082 7.58849 80.0638 7.68002 80.1919 7.73724L80.5215 7.9226V4.67071C80.5215 4.67071 80.3201 4.58146 79.9745 4.44873C79.8166 4.3938 79.6335 4.32973 79.4229 4.2565C79.3062 4.20844 79.1872 4.16497 79.0522 4.12377C78.9492 4.09173 78.8485 4.05054 78.7387 4.02308C78.6105 3.97502 78.4938 3.93383 78.3542 3.88577C78.2581 3.86975 78.162 3.83314 78.0545 3.80111L77.9629 3.78051C77.8737 3.75305 77.7776 3.73016 77.6814 3.69355C77.5601 3.67295 77.432 3.63633 77.3222 3.59743C77.2421 3.58834 77.1574 3.56768 77.0773 3.55624C76.9491 3.5242 76.8233 3.48758 76.6905 3.46012C76.5578 3.43952 76.4251 3.41206 76.2809 3.38689" fill="black"/>
<path fill-rule="evenodd" clip-rule="evenodd" d="M40.1554 13.4486V18.2246H43.2539C43.2539 18.2246 43.3157 18.2177 43.405 18.2177C43.524 18.2132 43.6681 18.204 43.8535 18.1926C44.1808 18.1605 44.6293 18.1079 45.0641 17.9546C45.4508 17.8264 45.8261 17.6296 46.1145 17.339C46.2266 17.2268 46.3205 17.1101 46.4005 16.9934C46.634 16.6044 46.698 16.2176 46.7141 15.9957C46.7164 15.9041 46.7164 15.8469 46.7164 15.8469C46.7164 15.8469 46.7209 15.8057 46.7164 15.7348C46.7164 15.6387 46.7095 15.4602 46.6546 15.2702C46.6019 15.0391 46.4921 14.7805 46.2953 14.5356C46.2564 14.499 46.2106 14.451 46.1694 14.4029C46.087 14.3182 45.9978 14.2381 45.8971 14.1535C45.7232 14.0436 45.5286 13.9269 45.3181 13.8399C45.0435 13.7186 44.7277 13.6294 44.3776 13.5607C44.2105 13.5287 44.0183 13.4967 43.8306 13.4898C43.7162 13.4692 43.6018 13.4692 43.4782 13.4601C43.3706 13.4486 43.2539 13.4486 43.1441 13.4486H40.1554Z" fill="black"/>
<path fill-rule="evenodd" clip-rule="evenodd" d="M40.1554 6.18115V10.7031H41.6497H41.8854C41.9976 10.7031 42.1051 10.7031 42.2195 10.6871C42.5331 10.6642 42.961 10.6185 43.3821 10.5063C43.4713 10.4789 43.5583 10.4537 43.6338 10.4262C43.9702 10.3004 44.286 10.1356 44.5492 9.88615C44.7437 9.68934 44.8742 9.47194 44.9588 9.26369C45.0687 8.99823 45.1076 8.75565 45.1167 8.57487C45.1327 8.4101 45.1327 8.32542 45.1327 8.32542C45.1327 8.32542 45.1327 8.24533 45.1282 8.12862C45.1167 7.93181 45.0801 7.60914 44.9245 7.30706C44.8467 7.15374 44.7437 7.00957 44.6018 6.86997C44.4302 6.71207 44.2311 6.57476 44.0137 6.47864C43.588 6.28641 43.0983 6.22005 42.6978 6.19717C42.517 6.18115 42.3523 6.18115 42.2195 6.18115H40.1554Z" fill="black"/>
<path fill-rule="evenodd" clip-rule="evenodd" d="M30.2372 0H56.0738V24.3194H30.2372V0ZM37.0133 3.41208V20.9279H43.6109C43.6109 20.9279 46.8262 21.008 48.5975 19.2413C50.0415 17.7927 49.9385 16.1198 49.9385 16.1198C49.9385 16.1198 50.0415 14.3829 48.705 13.0327C47.5608 11.9022 46.1099 11.5956 46.1099 11.5956C46.1099 11.5956 46.7667 11.2935 47.2702 10.7786C47.5059 10.5406 48.348 9.78542 48.348 7.9455C48.348 6.0827 47.1077 5.00942 47.1077 5.00942C47.1077 5.00942 45.7506 3.41208 42.6978 3.41208H37.0133Z" fill="black"/>
<path fill-rule="evenodd" clip-rule="evenodd" d="M10.3824 13.4486V18.2246H13.4855C13.4855 18.2246 13.545 18.2177 13.6457 18.2177C13.7464 18.2132 13.8997 18.204 14.0828 18.1926C14.4146 18.1605 14.854 18.1079 15.2888 17.9546C15.6756 17.8264 16.0555 17.6296 16.353 17.339C16.4605 17.2268 16.5475 17.1101 16.6276 16.9934C16.861 16.6044 16.9251 16.2176 16.9411 15.9957C16.9502 15.9041 16.9502 15.8469 16.9502 15.8469V15.7348C16.9411 15.6387 16.9319 15.4602 16.8885 15.2702C16.8267 15.0391 16.7191 14.7805 16.5246 14.5356C16.4903 14.499 16.4468 14.451 16.4056 14.4029C16.3141 14.3182 16.2248 14.2381 16.1287 14.1535C15.9525 14.0436 15.758 13.9269 15.5497 13.8399C15.2705 13.7186 14.9593 13.6294 14.6114 13.5607C14.4467 13.5287 14.2613 13.4967 14.0645 13.4898C13.9547 13.4692 13.8311 13.4692 13.7144 13.4601C13.6091 13.4486 13.4901 13.4486 13.3848 13.4486H10.3824Z" fill="black"/>
<path fill-rule="evenodd" clip-rule="evenodd" d="M10.3824 6.18115V10.7031H11.8836H12.117C12.2177 10.7031 12.3505 10.7031 12.4557 10.6871C12.7601 10.6642 13.1949 10.6185 13.6183 10.5063C13.7029 10.4789 13.7784 10.4537 13.8677 10.4262C14.1995 10.3004 14.5222 10.1356 14.7693 9.88615C14.9684 9.68934 15.0989 9.47194 15.1904 9.26369C15.2911 8.99823 15.3369 8.75565 15.3483 8.57487C15.3643 8.4101 15.3643 8.32542 15.3643 8.32542V8.12862C15.3483 7.93181 15.3117 7.60914 15.1561 7.30706C15.0783 7.15374 14.9684 7.00957 14.8403 6.86997C14.6641 6.71207 14.4581 6.57476 14.2293 6.47864C13.8128 6.28641 13.3322 6.22005 12.918 6.19717C12.7464 6.18115 12.5862 6.18115 12.4557 6.18115H10.3824Z" fill="black"/>
<path fill-rule="evenodd" clip-rule="evenodd" d="M0.464935 0H26.3015V24.3194H0.464935V0ZM7.24333 3.41208V20.9279H13.8364C13.8364 20.9279 17.0516 21.008 18.8275 19.2413C20.2692 17.7927 20.1639 16.1198 20.1639 16.1198C20.1639 16.1198 20.2692 14.3829 18.9327 13.0327C17.7862 11.9022 16.3353 11.5956 16.3353 11.5956C16.3353 11.5956 16.9944 11.2935 17.4979 10.7786C17.7359 10.5406 18.5803 9.78542 18.5803 7.9455C18.5803 6.0827 17.34 5.00942 17.34 5.00942C17.34 5.00942 15.9921 3.41208 12.9347 3.41208H7.24333Z" fill="black"/>
<path fill-rule="evenodd" clip-rule="evenodd" d="M3.34744 32.8154H5.20795C7.99986 32.8154 9.13035 33.9665 9.15553 35.8499C9.1807 37.5342 8.29965 39.1247 5.20795 39.1247H3.34744V32.8154ZM0.463989 30.3439V50.4434H3.34744V41.7244H4.55803C6.03637 41.7244 7.2378 42.1866 9.89698 46.3196L12.5493 50.4434H15.9911C14.6112 48.5325 14.1077 47.8483 13.2473 46.4683C11.7186 43.9579 10.595 42.102 8.77564 40.8959C10.9245 40.0378 12.1351 38.3031 12.1351 35.9735C12.1351 32.4928 9.5972 30.3439 5.53291 30.3439H0.463989Z" fill="black"/>
<path fill-rule="evenodd" clip-rule="evenodd" d="M25.4383 34.6511L28.6834 41.9215H22.4336L25.4383 34.6511ZM26.5025 30.2252H24.4589L15.8268 50.4414H18.7721L21.3145 44.5212H29.8573L32.5417 50.4414H35.4801L26.5025 30.2252Z" fill="black"/>
<path fill-rule="evenodd" clip-rule="evenodd" d="M40.7734 32.937H45.213C50.8518 32.937 53.4125 36.3606 53.4125 40.3974C53.4125 42.8712 51.9113 47.8486 45.3709 47.8486H40.7734V32.937ZM37.8854 50.4414H45.7234C52.3553 50.4414 56.3875 45.5487 56.3875 40.3974C56.3875 35.6489 53.1173 30.3419 45.6936 30.3419H37.8854V50.4414Z" fill="black"/>
<path d="M59.5088 50.4413H62.8133V30.3418H59.5088V50.4413Z" fill="black"/>
<path fill-rule="evenodd" clip-rule="evenodd" d="M68.9082 40.3976C68.9082 35.9717 72.2424 32.7358 76.7232 32.7358C81.2315 32.7358 84.5612 35.9717 84.5612 40.3976C84.5612 44.7799 81.2315 48.0547 76.7232 48.0547C72.2424 48.0547 68.9082 44.7799 68.9082 40.3976ZM65.9332 40.3976C65.9332 45.8418 70.0913 50.707 76.6637 50.707C83.4673 50.707 87.5361 45.8097 87.5361 40.3976C87.5361 34.7954 83.3551 30.0766 76.7232 30.0766C70.2103 30.0766 65.9332 34.8206 65.9332 40.3976Z" fill="black"/>
</svg>
