<svg width="68" height="67" viewBox="0 0 68 67" fill="none" xmlns="http://www.w3.org/2000/svg">
<path d="M67.0422 33.4688C67.0422 39.6185 67.1471 45.7699 67.0115 51.9165C66.905 56.7701 65.1617 60.9749 61.1393 63.9691C58.1629 66.1837 54.7281 66.9907 51.0721 66.9907C39.3956 66.9972 27.7201 66.9972 16.0458 66.9907C14.709 66.9882 13.3755 66.8574 12.0637 66.6001C5.76867 65.3831 1.24914 60.6553 0.329098 54.3086C0.151929 53.0964 0.0639923 51.8729 0.0659973 50.6478C0.0778341 44.9209 0.0832145 39.1946 0.0821384 33.4688C0.348468 33.4784 0.614797 33.4962 0.889197 33.4962H66.2448C66.5079 33.4962 66.7758 33.4784 67.0422 33.4688ZM31.4945 59.8967L38.4465 55.4256L31.4945 50.9642V59.8967ZM23.0623 43.72C23.0623 44.5658 23.0623 45.4132 23.0623 46.259C23.0623 46.7061 22.9267 47.3292 23.6305 47.3114C24.3342 47.2937 24.1631 46.6658 24.1664 46.2267C24.1777 44.6013 24.1664 42.9743 24.1664 41.3489C24.1664 40.9389 24.1438 40.4998 24.6506 40.3804C25.1574 40.261 25.3237 40.6677 25.4803 41.0519C26.1614 42.7418 26.8329 44.4415 27.5447 46.1154C27.9579 47.0919 28.7698 47.5083 29.6786 47.2953C30.5873 47.0822 31.0554 46.4398 31.0603 45.3583C31.0603 43.8879 31.0603 42.4174 31.0603 40.947C31.0603 40.5241 31.0716 40.0995 31.0506 39.6783C31.0539 39.6048 31.0421 39.5315 31.016 39.4628C30.9899 39.3941 30.9499 39.3315 30.8987 39.2789C30.8474 39.2262 30.7858 39.1847 30.7178 39.1568C30.6499 39.1288 30.5769 39.1151 30.5034 39.1165C30.1628 39.1165 29.9756 39.328 29.9336 39.654C29.9198 39.8345 29.9177 40.0157 29.9272 40.1964C29.9272 41.8449 29.9272 43.493 29.9272 45.1404C29.9272 45.552 29.9546 45.9975 29.4284 46.0928C28.9442 46.1799 28.7924 45.8022 28.6504 45.431C28.4438 44.8919 28.2194 44.3592 28.0047 43.8249C27.5092 42.6111 27.0363 41.3844 26.5052 40.1883C26.113 39.3135 25.3108 38.9697 24.4069 39.1779C23.5353 39.3796 23.0672 39.9995 23.0575 40.9873C23.0559 41.8928 23.0639 42.8064 23.0623 43.72ZM32.2725 43.6554C32.2725 44.5916 32.2725 45.5262 32.2725 46.4624C32.2725 46.8837 32.2725 47.3308 32.8455 47.3211C33.3588 47.3114 33.3862 46.895 33.3814 46.4914C33.3814 45.9572 33.3814 45.4229 33.3814 44.8886C33.3814 43.6404 33.3814 42.3932 33.3814 41.1471C33.3814 40.7823 33.4701 40.4659 33.8656 40.3788C34.2611 40.2916 34.4838 40.5128 34.6178 40.8711C34.7792 41.2875 34.9503 41.6943 35.1198 42.1059C35.6831 43.4843 36.2206 44.8741 36.8211 46.2348C37.2068 47.1064 37.9848 47.4777 38.829 47.3114C39.6732 47.1452 40.2301 46.5802 40.2511 45.6892C40.2979 43.7087 40.2737 41.725 40.2688 39.7428C40.2688 39.3893 40.0896 39.1198 39.7152 39.1182C39.3407 39.1165 39.1583 39.3619 39.1373 39.7235C39.126 39.901 39.1373 40.0802 39.1373 40.2577C39.1373 41.9719 39.1373 43.6877 39.1373 45.4019C39.1373 45.7667 38.9953 46.0234 38.6434 46.0895C38.3206 46.1509 38.0914 45.9749 37.9671 45.6715C37.8573 45.4035 37.7459 45.1372 37.6443 44.8644C37.0244 43.3407 36.4256 41.8089 35.7783 40.2981C35.37 39.3425 34.6162 38.9632 33.6929 39.1537C32.7696 39.3441 32.2935 39.9607 32.2854 41.0454C32.2676 41.9186 32.2725 42.787 32.2725 43.6554ZM17.9956 47.3502C20.349 47.3582 22.2601 45.4971 22.2488 43.2051C22.2375 40.9453 20.3248 39.0762 18.0279 39.0746C16.9249 39.0711 15.8652 39.5033 15.0793 40.2771C14.2934 41.051 13.8448 42.1038 13.8312 43.2067C13.8308 43.7527 13.9383 44.2934 14.1477 44.7977C14.3571 45.302 14.6642 45.7599 15.0512 46.145C15.4383 46.5301 15.8977 46.8348 16.403 47.0417C16.9084 47.2485 17.4496 47.3533 17.9956 47.3502ZM41.5165 43.2229H41.502C41.502 43.7571 41.4713 44.293 41.502 44.8257C41.6005 46.2784 42.4495 47.1161 43.8909 47.1904C44.6011 47.2259 45.3162 47.1904 46.028 47.2065C46.3831 47.2065 46.6736 47.0935 46.7011 46.7223C46.7237 46.301 46.4105 46.1622 46.0328 46.1589C45.4759 46.1589 44.9191 46.1589 44.3622 46.1509C43.171 46.1218 42.4931 45.3583 42.5431 44.1623C42.556 43.8394 42.6545 43.7345 42.9725 43.741C43.7069 43.7587 44.4429 43.741 45.1773 43.7491C45.5389 43.7491 45.8924 43.699 45.9134 43.2648C45.9344 42.7806 45.5599 42.7047 45.1773 42.7015C44.4413 42.7015 43.7069 42.6854 42.9725 42.7015C42.6609 42.7015 42.556 42.6079 42.5431 42.2851C42.4947 41.0696 43.1984 40.3013 44.4268 40.2819C44.961 40.2819 45.4953 40.2819 46.0312 40.2819C46.3831 40.2819 46.6865 40.1786 46.7027 39.7977C46.7204 39.3667 46.3912 39.2505 46.0183 39.2537C45.2112 39.2618 44.4155 39.1972 43.6165 39.2989C42.393 39.4604 41.6343 40.1948 41.5181 41.4312C41.4713 42.0171 41.5165 42.6176 41.5165 43.2229ZM51.7177 47.3502C52.6161 47.3804 53.4977 47.1012 54.2148 46.5592C54.5586 46.301 55.1687 46.033 54.7394 45.4762C54.3375 44.9548 53.9646 45.4649 53.6095 45.7005C52.4925 46.4479 51.3207 46.5528 50.1472 45.8845C49.0173 45.2389 48.4976 44.2172 48.6138 42.9226C48.7203 41.7395 49.3595 40.8824 50.4394 40.4046C51.6273 39.8784 52.7443 40.0818 53.7628 40.8646C54.0727 41.1019 54.3939 41.4005 54.7313 40.9889C55.0686 40.5773 54.7313 40.2965 54.4327 40.0495C53.7293 39.4754 52.8617 39.1396 51.9551 39.0905C51.0485 39.0415 50.1497 39.2818 49.3886 39.7767C48.6419 40.2672 48.0746 40.9868 47.772 41.8273C47.4693 42.6678 47.4477 43.5839 47.7103 44.4377C47.9729 45.2916 48.5056 46.0372 49.2282 46.5624C49.9509 47.0876 50.8245 47.364 51.7177 47.3502ZM5.66698 43.2035C5.66294 43.6063 5.71731 44.0075 5.82839 44.3947C6.66289 47.284 10.4399 48.3525 12.6497 46.3316C12.9128 46.0895 13.1484 45.82 12.874 45.4762C12.5996 45.1324 12.2881 45.2583 11.9992 45.4988C11.8638 45.6156 11.7209 45.7235 11.5714 45.8216C9.87176 46.8966 7.59585 46.1622 6.90985 44.3188C6.67942 43.6984 6.654 43.0204 6.83732 42.3845C7.02064 41.7485 7.40304 41.1881 7.92836 40.7855C9.12119 39.8736 10.6143 39.9171 11.9346 40.9163C12.2381 41.1455 12.5512 41.3779 12.8611 41.0083C13.171 40.6387 12.916 40.3449 12.6174 40.1076C11.2421 39.0132 9.71196 38.7614 8.1156 39.4781C6.51924 40.1948 5.72993 41.4667 5.66698 43.2035ZM58.0677 43.6522C58.0677 44.6304 58.0677 45.6085 58.0677 46.5867C58.0677 46.9208 58.2016 47.1694 58.5519 47.1904C58.9393 47.2113 59.0959 46.9482 59.1201 46.5947C59.1314 46.4333 59.1201 46.2832 59.1201 46.1283C59.1201 44.3705 59.1346 42.6143 59.1104 40.8582C59.1104 40.3949 59.2363 40.2125 59.7076 40.2626C60.0821 40.2981 60.463 40.2626 60.8375 40.2626C61.1603 40.2626 61.4154 40.148 61.4396 39.788C61.4638 39.4281 61.2281 39.2457 60.9021 39.2441C59.3461 39.2333 57.79 39.2333 56.234 39.2441C55.9112 39.2441 55.6723 39.4442 55.703 39.7977C55.7304 40.1028 55.9451 40.2577 56.2566 40.2593C56.6569 40.2593 57.0637 40.2884 57.4559 40.2593C57.9111 40.2222 58.0854 40.3675 58.0677 40.8485C58.0435 41.7831 58.0677 42.7176 58.0677 43.6522Z" fill="#5C2E91"/>
<path d="M67.0421 33.4693C66.7758 33.479 66.5079 33.4967 66.2351 33.4967H0.887559C0.619616 33.4967 0.353287 33.479 0.0805008 33.4693C0.0805008 27.3227 0.0207785 21.1762 0.103098 15.0296C0.148294 11.7207 1.07964 8.61833 3.08437 5.92114C5.72345 2.383 9.36974 0.665577 13.6601 0.142603C14.7678 0.0290997 15.8815 -0.0167187 16.9948 0.00540353C28.2861 0.00540353 39.5774 0.00540353 50.8687 0.00540353C53.7563 0.00540353 56.5472 0.45897 59.133 1.79062C63.5573 4.07298 65.9462 7.81934 66.7855 12.6407C66.9898 13.9166 67.0816 15.2081 67.0599 16.5001C67.047 22.1559 67.0411 27.8123 67.0421 33.4693ZM59.1782 17.8737C59.1782 16.4694 59.1878 15.0667 59.1782 13.6641C59.1869 13.348 59.0703 13.0413 58.8538 12.8109C58.6373 12.5805 58.3384 12.4451 58.0225 12.4341C57.6968 12.4054 57.3729 12.5046 57.1191 12.7107C56.8654 12.9168 56.702 13.2136 56.6634 13.5382C56.6459 13.7378 56.6421 13.9384 56.6521 14.1386C56.6521 16.6114 56.6521 19.0827 56.6521 21.5555C56.6521 22.327 56.2631 22.8661 55.5997 23.0889C55.2688 23.1978 54.9116 23.1967 54.5815 23.0859C54.2513 22.975 53.9658 22.7604 53.7676 22.4739C53.6466 22.3125 53.5433 22.1511 53.4367 21.9735C51.7952 19.4055 50.1682 16.8261 48.5072 14.271C48.0456 13.5394 47.3602 12.9762 46.553 12.665C45.7458 12.3539 44.8597 12.3114 44.0264 12.5439C42.3365 13.0007 41.0355 14.4534 41.0016 16.1207C40.9451 18.9261 40.9725 21.733 40.9822 24.54C40.9822 25.1969 41.4665 25.6553 42.1266 25.6925C42.9805 25.7409 43.5067 25.2211 43.5099 24.2785C43.5196 21.7621 43.5099 19.2457 43.5099 16.7293C43.5099 15.8012 43.8828 15.2217 44.5946 15.0199C45.3064 14.8182 46.0344 15.1426 46.5073 15.8932C47.1831 16.9692 47.86 18.0415 48.5379 19.1101C49.55 20.7065 50.5459 22.3157 51.587 23.8943C52.6281 25.4729 54.515 26.1008 56.3454 25.531C58.1128 24.9822 59.1685 23.5263 59.1765 21.6152C59.183 20.3675 59.1782 19.1198 59.1782 17.8737ZM9.9476 15.0474C9.9476 13.0426 9.9476 11.2025 9.9476 9.36244C9.95838 9.07351 9.95461 8.78421 9.9363 8.49566C9.90079 8.15024 9.71678 7.90812 9.3423 7.89036C8.93232 7.87261 8.7354 8.11957 8.67729 8.49404C8.66218 8.64906 8.6584 8.80496 8.66599 8.96052C8.66599 12.3034 8.66599 15.6446 8.66599 18.9874C8.66283 19.4994 8.71095 20.0104 8.80964 20.5128C9.11613 21.9875 9.91959 23.3123 11.0857 24.2657C12.2518 25.2191 13.7099 25.7433 15.2161 25.7506C16.7652 25.7407 18.2648 25.2034 19.4678 24.2273C20.6707 23.2511 21.5053 21.8943 21.834 20.3804C22.1352 18.894 21.9188 17.3492 21.2209 16.0027C20.523 14.6561 19.3854 13.5889 17.9972 12.9781C15.5954 11.924 12.3446 12.2501 9.9476 15.0474ZM31.9722 19.717C33.0408 19.717 34.1109 19.717 35.1795 19.717C35.9365 19.717 36.0769 19.5556 36.0624 18.8066C35.9849 14.9231 32.2305 11.8353 28.3905 12.4971C24.6635 13.1427 22.2456 16.4678 22.8153 20.169C23.3609 23.7103 26.7021 26.1719 30.3629 25.6569C32.3128 25.3874 33.8446 24.377 34.9535 22.7386C35.1423 22.4594 35.2263 22.1721 35.039 21.8686C34.9799 21.7726 34.895 21.6953 34.7939 21.6453C34.6929 21.5954 34.5798 21.5748 34.4676 21.5861C34.1093 21.6104 33.9544 21.8961 33.7736 22.1527C33.1625 23.0523 32.2906 23.7434 31.2752 24.1329C30.2598 24.5225 29.1495 24.5919 28.0935 24.3318C25.5755 23.7426 23.8338 21.3456 24.0146 18.7211C24.1165 17.4672 24.6532 16.2883 25.5321 15.3881C26.411 14.488 27.5768 13.9233 28.8279 13.7916C31.4267 13.5365 33.8963 15.2443 34.5435 17.7365C34.6743 18.2385 34.6065 18.4435 34.0109 18.4305C32.2983 18.3934 30.5825 18.4192 28.8683 18.4176C28.384 18.4176 27.8514 18.3999 27.8659 19.0778C27.8804 19.7557 28.4244 19.7105 28.8989 19.7105L31.9722 19.717ZM39.7942 19.1214C39.7942 17.3862 39.7942 15.651 39.7942 13.9159C39.7942 13.0087 39.31 12.4502 38.5288 12.447C37.7475 12.4438 37.2488 13.0087 37.2488 13.9094C37.2488 17.3798 37.2488 20.8496 37.2488 24.3188C37.2488 25.2018 37.7798 25.7716 38.5546 25.7538C39.3294 25.736 39.791 25.1889 39.7926 24.3253C39.7975 22.5901 39.7942 20.8566 39.7942 19.1214Z" fill="#FEFDFE"/>
<path d="M31.4944 59.8974V50.9648L38.4464 55.4263L31.4944 59.8974Z" fill="#FEFDFE"/>
<path d="M23.0639 43.7199C23.0639 42.8063 23.0639 41.8927 23.0639 40.9759C23.0736 39.9881 23.5482 39.3618 24.4133 39.1665C25.3124 38.9582 26.1146 39.3021 26.5117 40.1769C27.0492 41.373 27.5157 42.5981 28.0112 43.8135C28.2307 44.3478 28.4551 44.8804 28.6569 45.4196C28.7989 45.7908 28.9571 46.1685 29.4349 46.0813C29.9611 45.9861 29.9352 45.5406 29.9336 45.129C29.9336 43.4815 29.9336 41.8335 29.9336 40.185C29.9266 40.0068 29.9309 39.8283 29.9465 39.6507C29.9885 39.3279 30.1757 39.1051 30.5163 39.1132C30.5897 39.1127 30.6624 39.1271 30.73 39.1557C30.7975 39.1844 30.8585 39.2265 30.9092 39.2796C30.9598 39.3327 30.9991 39.3955 31.0245 39.4644C31.0499 39.5332 31.061 39.6065 31.057 39.6798C31.078 40.101 31.0667 40.5256 31.0667 40.9485C31.0667 42.4189 31.0667 43.8894 31.0667 45.3598C31.0667 46.4397 30.5954 47.0805 29.685 47.2968C28.7747 47.5131 27.9644 47.0934 27.5512 46.1169C26.8394 44.4382 26.1679 42.7434 25.4867 41.0534C25.3253 40.6692 25.1865 40.2592 24.6571 40.3819C24.1276 40.5046 24.1728 40.9404 24.1728 41.3504C24.1728 42.9758 24.1825 44.6028 24.1728 46.2282C24.1728 46.6673 24.3343 47.2952 23.637 47.3129C22.9397 47.3307 23.0752 46.7076 23.0688 46.2605C23.0559 45.4131 23.0623 44.5657 23.0639 43.7199Z" fill="#FEFDFE"/>
<path d="M32.2724 43.6557C32.2724 42.7873 32.2724 41.9189 32.2724 41.0505C32.2805 39.9658 32.7405 39.3541 33.6799 39.1588C34.6194 38.9635 35.357 39.3476 35.7654 40.3032C36.411 41.814 37.0115 43.3458 37.6313 44.8695C37.7411 45.1375 37.8524 45.4038 37.9541 45.6766C38.0784 45.98 38.3092 46.1608 38.6304 46.0946C38.9823 46.0285 39.126 45.7718 39.1244 45.407C39.1244 43.6928 39.1244 41.977 39.1244 40.2628C39.1244 40.0853 39.1244 39.9061 39.1244 39.7286C39.1453 39.367 39.3374 39.12 39.7022 39.1233C40.067 39.1265 40.2542 39.3944 40.2558 39.7479C40.2558 41.7301 40.2849 43.7138 40.2381 45.6943C40.2171 46.5853 39.6457 47.147 38.8161 47.3165C37.9864 47.486 37.1939 47.1115 36.8081 46.2399C36.2076 44.8792 35.6701 43.4959 35.1068 42.111C34.9454 41.6994 34.7598 41.2926 34.6048 40.8762C34.4709 40.5179 34.2481 40.2967 33.8526 40.3839C33.4572 40.4711 33.3684 40.7874 33.3684 41.1522C33.3684 42.3983 33.3684 43.6455 33.3684 44.8937C33.3684 45.428 33.3684 45.9623 33.3684 46.4966C33.3684 46.9001 33.3458 47.3165 32.8325 47.3262C32.266 47.3359 32.2579 46.8888 32.2595 46.4675C32.2757 45.5232 32.2724 44.5919 32.2724 43.6557Z" fill="#FEFDFE"/>
<path d="M17.9956 47.3498C17.4493 47.3534 16.9077 47.2489 16.402 47.0423C15.8964 46.8356 15.4366 46.5309 15.0491 46.1458C14.6617 45.7606 14.3544 45.3026 14.1448 44.7981C13.9352 44.2936 13.8275 43.7527 13.828 43.2064C13.8416 42.1035 14.2901 41.0506 15.0761 40.2768C15.862 39.5029 16.9217 39.0708 18.0247 39.0742C20.3216 39.0742 22.2343 40.9498 22.2456 43.2048C22.2601 45.4968 20.349 47.3579 17.9956 47.3498ZM18.0214 40.1008C17.1893 40.0926 16.3876 40.4132 15.7906 40.9929C15.1936 41.5727 14.8497 42.3647 14.8336 43.1967C14.8142 44.9206 16.2863 46.3717 18.0344 46.3652C18.8667 46.3666 19.6662 46.0408 20.2605 45.458C20.8548 44.8752 21.1961 44.0822 21.2109 43.25C21.2138 42.8322 21.133 42.4181 20.9732 42.032C20.8134 41.646 20.578 41.2959 20.2807 41.0024C19.9834 40.7089 19.6303 40.4779 19.2423 40.323C18.8543 40.1682 18.4391 40.0926 18.0214 40.1008Z" fill="#FEFDFE"/>
<path d="M41.5165 43.2241C41.5165 42.6236 41.4713 42.0183 41.5261 41.4227C41.6391 40.1863 42.3978 39.447 43.6245 39.2905C44.4316 39.1888 45.2257 39.2533 46.0263 39.2453C46.3992 39.2453 46.7284 39.3583 46.7107 39.7892C46.6946 40.1718 46.3879 40.2735 46.0392 40.2735C45.5033 40.2735 44.9691 40.2735 44.4348 40.2735C43.2064 40.2928 42.4978 41.0612 42.5511 42.2766C42.564 42.5994 42.6689 42.6995 42.9805 42.693C43.7149 42.6785 44.4493 42.693 45.1853 42.693C45.5679 42.693 45.9424 42.7754 45.9214 43.2564C45.9004 43.6922 45.5469 43.7406 45.1853 43.7406C44.4509 43.7406 43.7149 43.7503 42.9805 43.7325C42.6576 43.7325 42.564 43.8358 42.5511 44.1538C42.5011 45.3499 43.179 46.1133 44.3702 46.1424C44.9271 46.1569 45.484 46.1424 46.0408 46.1505C46.4185 46.1505 46.7317 46.2925 46.7091 46.7138C46.6881 47.0899 46.3863 47.2077 46.036 47.198C45.3242 47.1883 44.6091 47.2174 43.8989 47.1819C42.4575 47.1076 41.6085 46.2635 41.51 44.8172C41.4745 44.2846 41.51 43.7487 41.51 43.2144L41.5165 43.2241Z" fill="#FEFDFE"/>
<path d="M51.7177 47.3499C50.8254 47.3612 49.9535 47.083 49.2328 46.5569C48.512 46.0308 47.9813 45.2852 47.7201 44.4319C47.459 43.5786 47.4815 42.6637 47.7844 41.8243C48.0872 40.985 48.654 40.2664 49.3998 39.7764C50.161 39.2815 51.0597 39.0412 51.9664 39.0902C52.873 39.1393 53.7406 39.4751 54.4439 40.0492C54.7393 40.2962 55.0896 40.5754 54.7425 40.9886C54.3955 41.4018 54.0775 41.1016 53.7741 40.8643C52.7556 40.0815 51.6386 39.8781 50.4506 40.4043C49.3708 40.8886 48.7316 41.7392 48.625 42.9223C48.5088 44.2136 49.027 45.2402 50.1585 45.8842C51.3319 46.5525 52.5038 46.4476 53.6207 45.7002C53.971 45.4646 54.3439 44.9545 54.7506 45.4759C55.18 46.0327 54.5698 46.3007 54.226 46.559C53.5059 47.1034 52.6199 47.3828 51.7177 47.3499Z" fill="#FEFDFE"/>
<path d="M5.66698 43.2039C5.72993 41.4671 6.52408 40.1758 8.11398 39.4672C9.70389 38.7586 11.2405 39.0024 12.6158 40.0967C12.9144 40.334 13.1646 40.6342 12.8595 40.9974C12.5544 41.3606 12.2364 41.1346 11.933 40.9054C10.6126 39.9063 9.11958 39.8627 7.92675 40.7747C7.40142 41.1773 7.01902 41.7377 6.83571 42.3736C6.65239 43.0096 6.67781 43.6875 6.90824 44.308C7.59424 46.1513 9.87014 46.8906 11.5698 45.8107C11.7193 45.7126 11.8622 45.6048 11.9975 45.4879C12.2865 45.2474 12.6061 45.1328 12.8724 45.4653C13.1387 45.7978 12.9111 46.0787 12.648 46.3208C10.4383 48.3481 6.66128 47.2796 5.82678 44.3838C5.71732 44.0002 5.6635 43.6028 5.66698 43.2039Z" fill="#FEFDFE"/>
<path d="M58.0676 43.6537C58.0676 42.7191 58.0434 41.7846 58.0773 40.8532C58.0951 40.369 57.9159 40.2269 57.4656 40.2641C57.0685 40.2963 56.6666 40.2641 56.2663 40.2641C55.9547 40.2641 55.7401 40.1026 55.7126 39.8024C55.682 39.4489 55.9192 39.252 56.2437 39.2488C57.7997 39.2348 59.3557 39.2348 60.9117 39.2488C61.2345 39.2488 61.4734 39.4296 61.4492 39.7927C61.425 40.1559 61.1764 40.2689 60.8471 40.2673C60.4694 40.2673 60.0885 40.2979 59.7173 40.2673C59.2459 40.2221 59.1136 40.3996 59.12 40.8629C59.1442 42.619 59.1297 44.3752 59.1297 46.133C59.1297 46.2944 59.1297 46.4445 59.1297 46.5995C59.1055 46.953 58.9489 47.2161 58.5615 47.1951C58.2145 47.1741 58.0773 46.9255 58.0773 46.5914C58.0773 45.6132 58.0773 44.6351 58.0773 43.6569L58.0676 43.6537Z" fill="#FEFDFE"/>
<path d="M59.1782 17.8742C59.1782 19.1203 59.1782 20.368 59.1782 21.6157C59.1782 23.5268 58.1145 24.9828 56.347 25.5316C54.5166 26.1013 52.6345 25.4767 51.5886 23.8948C50.5426 22.313 49.5516 20.707 48.5395 19.1106C47.8594 18.0345 47.1826 16.9622 46.509 15.8937C46.036 15.1431 45.3194 14.8154 44.5962 15.0204C43.8731 15.2254 43.5115 15.8017 43.5115 16.7298C43.5115 19.2462 43.5115 21.7626 43.5115 24.279C43.5115 25.2217 42.9821 25.7414 42.1282 25.693C41.4826 25.6558 40.9871 25.1974 40.9838 24.5405C40.9742 21.7335 40.9467 18.9266 41.0032 16.1213C41.0371 14.4539 42.3381 13.0012 44.0281 12.5444C44.8613 12.3119 45.7474 12.3544 46.5546 12.6655C47.3618 12.9767 48.0472 13.5399 48.5088 14.2715C50.1698 16.8266 51.7968 19.406 53.4384 21.974C53.5449 22.1435 53.6482 22.3162 53.7693 22.4744C53.9671 22.7586 54.251 22.9716 54.5791 23.0821C54.9073 23.1925 55.2622 23.1945 55.5916 23.0878C56.255 22.865 56.6424 22.3259 56.644 21.5544C56.644 19.0815 56.644 16.6103 56.644 14.1375C56.634 13.9373 56.6378 13.7367 56.6553 13.5371C56.6943 13.2112 56.8591 12.9136 57.1145 12.7076C57.3699 12.5016 57.6958 12.4036 58.0225 12.4346C58.3376 12.4468 58.6352 12.5828 58.8506 12.8131C59.0661 13.0434 59.1821 13.3493 59.1733 13.6646C59.1878 15.0672 59.1782 16.4699 59.1782 17.8742Z" fill="#5C2E91"/>
<path d="M9.94758 15.0466C12.3445 12.2493 15.597 11.9232 18.002 12.9773C19.3903 13.5881 20.5278 14.6553 21.2257 16.0019C21.9237 17.3484 22.14 18.8932 21.8388 20.3796C21.5101 21.8935 20.6756 23.2503 19.4726 24.2265C18.2696 25.2027 16.7701 25.7399 15.2209 25.7498C13.7147 25.7425 12.2566 25.2183 11.0905 24.2649C9.92441 23.3115 9.12095 21.9867 8.81447 20.512C8.71578 20.0096 8.66765 19.4986 8.67082 18.9866C8.6579 15.6438 8.67082 12.3026 8.67082 8.95973C8.66323 8.80417 8.667 8.64826 8.68212 8.49325C8.74022 8.11878 8.93715 7.87182 9.34713 7.88957C9.72161 7.90733 9.90562 8.14944 9.94113 8.49486C9.95745 8.78514 9.95906 9.07605 9.94597 9.36649C9.94758 11.2017 9.94758 13.0418 9.94758 15.0466ZM15.2871 13.6455C14.5796 13.6451 13.879 13.7844 13.2255 14.0555C12.5721 14.3266 11.9786 14.7241 11.4791 15.2251C10.9797 15.7262 10.5842 16.321 10.3152 16.9754C10.0463 17.6298 9.90931 18.3308 9.91207 19.0383C9.9266 22.0551 12.3236 24.4052 15.3855 24.402C18.2619 24.402 20.6637 21.9614 20.6637 19.0463C20.6656 18.3386 20.528 17.6374 20.2588 16.9829C19.9896 16.3283 19.594 15.7333 19.0947 15.2317C18.5953 14.7301 18.002 14.3318 17.3487 14.0597C16.6954 13.7875 15.9948 13.6468 15.2871 13.6455Z" fill="#5C2E91"/>
<path d="M31.9722 19.7168H28.9054C28.4308 19.7168 27.8869 19.7572 27.8724 19.0841C27.8578 18.411 28.3905 18.4223 28.8747 18.4239C30.5889 18.4239 32.3047 18.3997 34.0173 18.4368C34.6129 18.4497 34.6807 18.2447 34.55 17.7427C33.9043 15.2554 31.4331 13.546 28.8344 13.7978C27.5818 13.9282 26.4143 14.4926 25.5341 15.3931C24.6539 16.2937 24.1163 17.4738 24.0146 18.729C23.8338 21.3535 25.5755 23.7505 28.0935 24.3396C29.1495 24.5997 30.2598 24.5303 31.2752 24.1408C32.2906 23.7513 33.1625 23.0602 33.7736 22.1606C33.9544 21.9039 34.1093 21.6182 34.4676 21.594C34.5798 21.5827 34.6929 21.6032 34.7939 21.6532C34.895 21.7031 34.9799 21.7805 35.039 21.8765C35.2263 22.18 35.1423 22.4673 34.9535 22.7465C33.8446 24.3784 32.3128 25.392 30.3629 25.6697C26.7021 26.1765 23.3609 23.715 22.8153 20.1817C22.2456 16.4805 24.6635 13.1522 28.3905 12.5098C32.2305 11.848 35.9849 14.931 36.0624 18.8194C36.0769 19.5699 35.9365 19.7249 35.1795 19.7297C34.1109 19.7217 33.0408 19.7168 31.9722 19.7168Z" fill="#5C2E91"/>
<path d="M39.7942 19.1217C39.7942 20.8568 39.7942 22.5904 39.7942 24.3256C39.7942 25.1891 39.31 25.7331 38.5562 25.7541C37.8024 25.775 37.252 25.202 37.2504 24.3191C37.2504 20.8498 37.2504 17.38 37.2504 13.9097C37.2504 13.009 37.754 12.4441 38.5304 12.4473C39.3068 12.4505 39.7942 13.009 39.7959 13.9161C39.7975 15.6513 39.7942 17.3865 39.7942 19.1217Z" fill="#5C2E91"/>
<path d="M18.0214 40.1022C18.4391 40.094 18.8542 40.1695 19.2423 40.3244C19.6303 40.4792 19.9834 40.7102 20.2807 41.0037C20.5779 41.2973 20.8134 41.6474 20.9732 42.0334C21.133 42.4194 21.2138 42.8335 21.2109 43.2513C21.1961 44.0832 20.855 44.876 20.2611 45.4588C19.6671 46.0415 18.868 46.3675 18.036 46.3666C16.283 46.3666 14.8158 44.9138 14.8352 43.198C14.8513 42.3663 15.195 41.5746 15.7916 40.9949C16.3883 40.4152 17.1896 40.0944 18.0214 40.1022Z" fill="#5C2E91"/>
<path d="M15.2871 13.6465C15.9951 13.648 16.6959 13.789 17.3494 14.0616C18.0028 14.3341 18.5961 14.7329 19.0954 15.2349C19.5946 15.737 19.9899 16.3326 20.2588 16.9876C20.5276 17.6426 20.6647 18.3441 20.6621 19.0522C20.6621 21.9673 18.2603 24.4046 15.384 24.4078C12.3171 24.4078 9.92501 22.0609 9.91049 19.0441C9.90708 18.3361 10.0437 17.6344 10.3124 16.9793C10.5811 16.3243 10.9767 15.7289 11.4764 15.2272C11.9761 14.7256 12.57 14.3277 13.2239 14.0565C13.8779 13.7852 14.5791 13.6458 15.2871 13.6465Z" fill="#FEFDFE"/>
</svg>
