<svg width="140" height="29" viewBox="0 0 140 29" fill="none" xmlns="http://www.w3.org/2000/svg">
<path d="M1.89746 11.3918C1.89746 19.9287 1.90208 21.2673 1.93209 21.541C2.19523 23.9769 3.70253 26.1391 5.77074 27.0473C6.24625 27.2538 6.70329 27.3907 7.29882 27.5002C7.53195 27.5425 10.0157 27.5449 69.9107 27.5524C115.917 27.5574 132.349 27.5524 132.546 27.5325C134.452 27.331 136.163 26.2287 137.22 24.5218C137.601 23.9073 137.952 23.0041 138.095 22.2601C138.231 21.5634 138.224 22.2078 138.224 11.4416V1.55611H70.0607H1.89746V11.3918ZM62.6696 2.58123C62.6904 2.60363 62.6973 4.6265 62.6973 11.5336C62.6973 21.2599 62.7043 20.7224 62.5681 21.3843C62.3696 22.3546 61.8848 23.4171 61.2939 24.1735C61.0308 24.5144 60.606 24.9473 60.2806 25.211C59.408 25.9202 58.4917 26.3158 57.2844 26.5049C57.0213 26.5447 55.7217 26.5472 33.0707 26.5571C16.3172 26.5621 9.01156 26.5571 8.72995 26.5372C8.0744 26.4949 7.58735 26.3979 7.02413 26.1988C5.42912 25.634 4.18034 24.4696 3.45555 22.8672C3.09777 22.0785 2.90618 21.332 2.84385 20.4811C2.81846 20.1228 2.80923 2.59616 2.83693 2.56879C2.84385 2.55884 16.3034 2.55138 32.7475 2.55138C55.9687 2.55138 62.6489 2.55884 62.6696 2.58123ZM74.2964 7.79891C75.2197 7.96561 76.0853 8.37865 76.6439 8.91858C77.4149 9.66005 77.8627 10.8046 77.8719 12.0561C77.8742 12.3746 77.8719 12.3995 77.8096 12.5339C77.6226 12.9469 77.2002 13.1285 76.8447 12.9494C76.6578 12.8548 76.5423 12.7329 76.4592 12.5364C76.3923 12.3796 76.3854 12.3398 76.3738 12.0288C76.3508 11.3595 76.2169 10.8419 75.963 10.4388C75.866 10.2871 75.6167 10.0084 75.4575 9.87403C75.3028 9.74714 75.0304 9.59535 74.8158 9.52071C74.1487 9.28931 73.1353 9.29428 72.4498 9.53564C71.5842 9.8367 71.0648 10.5035 70.9263 11.4839C70.834 12.1233 70.9286 12.4916 71.2726 12.8673C71.4872 13.0987 71.658 13.2256 71.9166 13.3425C72.3528 13.5416 72.7822 13.6162 73.6962 13.6486C74.6519 13.6834 75.2613 13.7979 75.8776 14.0616C77.0848 14.5791 77.7865 15.4177 78.0289 16.6418C78.0958 16.9802 78.1004 17.6222 78.0381 17.9904C77.7196 19.8839 76.4131 21.1205 74.4672 21.3718C73.5762 21.4863 72.8606 21.4216 72.1312 21.1603C70.8617 20.705 69.9476 19.7197 69.5667 18.401C69.4421 17.963 69.4052 17.7217 69.4052 17.2813C69.4029 16.8334 69.4259 16.7513 69.6129 16.5348C69.8461 16.2661 70.1554 16.1989 70.4531 16.3507C70.6378 16.4453 70.7347 16.5448 70.8271 16.7438C70.8917 16.8782 70.9009 16.9305 70.9171 17.2191C70.9517 17.7615 71.0256 18.0651 71.2149 18.4457C71.5011 19.0155 71.9812 19.4335 72.5652 19.6152C72.9368 19.7321 73.1169 19.7545 73.6847 19.757C74.271 19.757 74.5457 19.7247 74.9266 19.6052C75.7483 19.3489 76.2815 18.7941 76.48 17.9904C76.5493 17.7117 76.5677 17.0648 76.5146 16.8334C76.3946 16.3209 75.9999 15.8605 75.4667 15.6167C75.0443 15.4251 74.6265 15.3455 73.8578 15.3156C72.9599 15.2808 72.6968 15.2509 72.212 15.139C71.4988 14.9748 70.7763 14.5891 70.3192 14.1338C69.8761 13.6909 69.5321 12.9942 69.4236 12.3199C69.3475 11.8546 69.4259 11.1455 69.6221 10.506C70.033 9.18232 70.9217 8.28161 72.1659 7.92829C72.4659 7.84121 72.766 7.78398 73.0684 7.75163C73.3892 7.71928 73.9779 7.74168 74.2964 7.79891ZM84.4136 7.75412C85.5561 7.88599 86.6503 8.53042 87.3312 9.47095C88.4392 10.9987 88.5754 13.0315 87.6821 14.6364C87.0427 15.7834 86.064 16.5348 84.8337 16.8235L84.5451 16.8931L82.9363 16.9006L81.3274 16.9105L81.3205 18.7319L81.3135 20.5532L81.2489 20.695C81.1658 20.8792 80.9742 21.0683 80.7988 21.1379C80.4456 21.2822 80.0278 21.0757 79.8501 20.6677L79.7901 20.5283L79.7831 16.2611C79.7785 13.4022 79.7855 11.9118 79.8016 11.7476C79.9909 9.81431 81.1381 8.35625 82.837 7.88848C83.0032 7.84369 83.2363 7.79393 83.3564 7.779C83.4764 7.76407 83.608 7.74665 83.6449 7.74167C83.8018 7.72426 84.2035 7.72924 84.4136 7.75412ZM96.6866 7.78895C98.4455 8.04026 100.047 9.07284 101.052 10.6006C101.557 11.3669 101.956 12.3547 102.12 13.2405C102.282 14.1114 102.296 14.8454 102.166 15.6889C101.753 18.3636 99.8882 20.5433 97.4368 21.2126C96.8667 21.3693 96.6335 21.3967 95.9249 21.3992C95.2393 21.3992 95.0755 21.3818 94.5261 21.2499C93.2773 20.9488 91.9962 20.1427 91.1906 19.1474C89.8911 17.545 89.3232 15.4749 89.6372 13.4744C90.0434 10.8792 91.7954 8.7444 94.1244 8.0104C94.5676 7.87106 94.8816 7.80886 95.5094 7.74167C95.6941 7.72177 96.4166 7.74914 96.6866 7.78895ZM108.212 7.75412C109.098 7.85862 110.005 8.29654 110.668 8.93848C111.328 9.58043 111.817 10.5259 112.007 11.5336C112.053 11.7825 112.06 11.8919 112.06 12.3672C112.057 12.8648 112.053 12.9444 111.997 13.2256C111.709 14.6787 110.869 15.8481 109.654 16.49C109.454 16.5946 109.371 16.6518 109.371 16.6816C109.371 16.704 109.761 17.4181 110.238 18.2666C110.716 19.1126 111.141 19.8789 111.18 19.9685C111.319 20.2795 111.259 20.6229 111.021 20.8767C110.786 21.133 110.467 21.1952 110.178 21.0459C110.095 21.0036 109.998 20.9414 109.962 20.9065C109.922 20.8742 109.403 19.9834 108.794 18.9085L107.695 16.9703L106.398 16.9628L105.103 16.9578L105.096 18.7045L105.089 20.4537L105.036 20.5955C104.918 20.909 104.629 21.123 104.327 21.1255C104.184 21.1255 104.14 21.113 103.988 21.0309C103.745 20.904 103.614 20.7174 103.556 20.4213C103.521 20.2422 103.519 12.2005 103.556 11.8297C103.611 11.2425 103.752 10.6827 103.972 10.1925C104.401 9.21964 105.213 8.42095 106.151 8.04275C106.797 7.78149 107.556 7.67698 108.212 7.75412ZM127.581 7.80139C128.326 7.94073 128.989 8.21691 129.536 8.61253C130.427 9.25697 130.964 10.2771 131.103 11.5834C131.175 12.2428 131.128 12.5189 130.907 12.7503C130.671 12.9967 130.38 13.0539 130.097 12.9096C129.91 12.815 129.801 12.7006 129.716 12.5115C129.66 12.3821 129.651 12.3274 129.635 11.9915C129.589 11.0609 129.346 10.4488 128.839 9.98102C128.559 9.72474 128.301 9.58291 127.918 9.47343C127.594 9.38386 127.38 9.35898 126.913 9.35898C126.256 9.36147 125.829 9.44855 125.395 9.66751C124.624 10.0582 124.164 10.8743 124.167 11.8496C124.169 12.3647 124.231 12.5289 124.568 12.8922C124.776 13.1161 124.829 13.1584 125.044 13.2704C125.535 13.5316 126.145 13.6486 127.017 13.6486C127.703 13.6486 128.478 13.7954 129.076 14.0367C130.572 14.6389 131.394 15.8804 131.338 17.4555C131.311 18.2442 131.094 18.9658 130.692 19.6052C130.496 19.9187 130.06 20.384 129.764 20.5955C129.189 21.0085 128.485 21.2723 127.684 21.3743C127.331 21.4191 126.641 21.4266 126.348 21.3867C125.434 21.2648 124.621 20.8966 123.952 20.292C123.476 19.864 123.036 19.1399 122.832 18.4482C122.701 18.0053 122.659 17.7316 122.657 17.2937C122.655 16.913 122.657 16.8906 122.715 16.7563C122.791 16.5846 122.925 16.4353 123.086 16.3432C123.19 16.286 123.236 16.2736 123.393 16.2736C123.55 16.2736 123.599 16.286 123.714 16.3457C123.885 16.4353 124.003 16.5622 124.086 16.7438C124.141 16.8658 124.153 16.9305 124.169 17.2116C124.194 17.6047 124.22 17.7814 124.296 18.0228C124.547 18.8339 125.136 19.4236 125.909 19.6425C126.567 19.8292 127.601 19.8018 128.252 19.5803C129.323 19.2196 129.886 18.3114 129.796 17.0947C129.776 16.7961 129.75 16.7015 129.642 16.4726C129.533 16.2487 129.229 15.9128 128.998 15.766C128.522 15.4624 127.945 15.3331 126.925 15.3032C126.156 15.2808 125.722 15.2211 125.205 15.0643C123.963 14.6936 123.142 13.9173 122.791 12.7902C122.708 12.5189 122.643 12.1358 122.643 11.9019C122.643 11.7103 122.703 11.2201 122.761 10.9614C122.955 10.0582 123.384 9.25448 123.943 8.75187C124.601 8.15471 125.369 7.84369 126.429 7.74167C126.683 7.71679 127.304 7.74914 127.581 7.80139ZM121.244 8.08504C121.318 8.12486 121.42 8.1995 121.466 8.24926C121.512 8.29902 121.581 8.4085 121.618 8.48812C121.676 8.61502 121.685 8.6623 121.685 8.84642C121.685 9.02806 121.676 9.07533 121.621 9.18978C121.535 9.36395 121.411 9.49583 121.244 9.58291L121.108 9.65507L119.626 9.66254L118.142 9.67V15.037C118.142 20.9588 118.154 20.5308 117.997 20.7796C117.842 21.0285 117.54 21.1902 117.295 21.1529C117.156 21.133 116.919 21.011 116.826 20.909C116.787 20.8667 116.722 20.7647 116.681 20.6801L116.607 20.5283L116.6 15.0992L116.595 9.67L115.123 9.66254L113.652 9.65507L113.519 9.58291C113.336 9.48837 113.218 9.35898 113.133 9.16739C113.034 8.93848 113.025 8.81407 113.087 8.59511C113.131 8.43836 113.156 8.39357 113.278 8.2617C113.378 8.15471 113.461 8.09251 113.549 8.05518L113.676 8.00293L117.392 8.00791L121.108 8.01289L121.244 8.08504Z" fill="#5C2D91"/>
<path d="M8.91209 3.37235C8.85439 3.3823 8.7759 3.40967 8.73897 3.42958C8.6351 3.4868 8.48275 3.67839 8.45275 3.78787C8.43428 3.85754 8.42967 5.47982 8.43428 9.75448L8.44121 15.6265L8.4943 15.9351C8.61202 16.6069 8.7736 17.1269 9.05059 17.7415C9.34605 18.3884 9.68305 18.901 10.1839 19.4558C11.1811 20.5606 12.3076 21.1677 13.7964 21.4016C14.2257 21.4712 15.1652 21.4638 15.6061 21.3891C16.9772 21.1627 18.1567 20.5033 19.117 19.4309C20.1534 18.2714 20.8089 16.7586 20.9428 15.206C20.9797 14.7806 20.9567 13.9844 20.8966 13.5589C20.6912 12.0983 20.0841 10.8518 19.0708 9.80673C18.0921 8.79902 16.901 8.17948 15.5276 7.95803C15.1421 7.89831 14.2096 7.89831 13.8218 7.96052C12.6076 8.1521 11.6243 8.60992 10.7033 9.40613C10.4471 9.62758 9.97851 10.1227 9.80309 10.3566C9.74076 10.4412 9.68075 10.5034 9.67152 10.4984C9.66228 10.491 9.65305 9.00057 9.65305 7.18421C9.65305 5.01951 9.64381 3.85008 9.62996 3.79036C9.59765 3.67093 9.42222 3.46192 9.31373 3.41465C9.1937 3.36489 9.03905 3.34996 8.91209 3.37235ZM15.2898 9.25934C16.474 9.42356 17.6743 10.1103 18.4245 11.0558C20.1465 13.223 20.0795 16.3182 18.2629 18.3361C17.8382 18.8064 17.4204 19.1398 16.901 19.421C16.2385 19.7793 15.5945 19.9559 14.8582 19.9858C13.7248 20.0281 12.6099 19.6449 11.6636 18.886C10.6017 18.0351 9.87464 16.6591 9.71075 15.1911C9.48685 13.2105 10.3732 11.2125 11.9729 10.0829C12.2268 9.90626 12.7554 9.6226 13.0324 9.52059C13.374 9.39121 13.861 9.27427 14.2003 9.23694C14.4335 9.21206 15.0313 9.2245 15.2898 9.25934Z" fill="#5C2D91"/>
<path d="M27.3344 7.92827C24.3706 8.24427 22.0346 10.7026 21.6907 13.8725C21.6514 14.2283 21.6468 15.0394 21.6791 15.3903C21.8315 16.9553 22.4385 18.3412 23.468 19.4584C24.4444 20.5208 25.6124 21.1603 26.9905 21.3892C27.4336 21.4639 28.35 21.4713 28.7771 21.4041C30.596 21.1155 32.131 20.0979 33.1305 18.5204C33.3451 18.177 33.3821 18.0825 33.3821 17.8486C33.3821 17.6346 33.3405 17.5251 33.2043 17.3758C33.0658 17.224 32.9273 17.1718 32.7104 17.1867C32.4749 17.2066 32.341 17.2962 32.1841 17.545C31.8217 18.1173 31.4639 18.5502 31.0853 18.8737C30.1666 19.6575 29.1025 20.0705 27.9807 20.0755C27.1913 20.0804 26.5196 19.9137 25.7925 19.533C24.9222 19.0777 24.2898 18.488 23.7889 17.6669C23.2234 16.7413 22.9417 15.7436 22.9417 14.6687C22.9417 14.1462 22.9764 13.8476 23.0987 13.335C23.3734 12.183 24.0405 11.1056 24.9246 10.3866C25.5847 9.85162 26.2841 9.52567 27.1382 9.35647C27.4521 9.29178 28.1977 9.27934 28.5508 9.3291C29.8135 9.50825 31.0369 10.2373 31.8124 11.2773C32.1287 11.7003 32.4172 12.2378 32.6088 12.7628C32.7242 13.0837 32.8673 13.6535 32.8789 13.8426L32.8858 13.9596L29.885 13.972C26.9027 13.9844 26.8843 13.9845 26.7804 14.0367C26.6604 14.0964 26.5149 14.2606 26.4642 14.3925C26.418 14.507 26.4134 14.8006 26.4549 14.9275C26.4965 15.0593 26.6534 15.236 26.7804 15.3007C26.8843 15.3529 26.8889 15.3529 30.2659 15.3604C32.6457 15.3654 33.6844 15.3579 33.7698 15.338C33.9337 15.3032 34.0699 15.1862 34.1507 15.017L34.2177 14.8802L34.2061 14.3826C34.19 13.7605 34.1207 13.2778 33.9684 12.7304C33.576 11.3122 32.7888 10.1104 31.6624 9.20719C30.8176 8.52792 29.8458 8.1099 28.754 7.95066C28.5001 7.91334 27.5998 7.89842 27.3344 7.92827Z" fill="#5C2D91"/>
<path d="M42.2713 7.9284C40.9187 8.06773 39.8038 8.87141 39.2221 10.1254C38.9751 10.6579 38.8343 11.1754 38.7835 11.7452C38.7674 11.9294 38.7605 13.4148 38.7651 16.2861L38.772 20.5533L38.8274 20.7026C38.899 20.8942 39.1921 21.2201 39.3837 21.3197C39.7853 21.5312 40.3255 21.4963 40.6971 21.2376C40.9395 21.0709 41.1311 20.7673 41.1841 20.4687C41.198 20.3816 41.2072 18.8813 41.2072 16.112C41.2072 11.9916 41.2072 11.8846 41.2534 11.698C41.3942 11.0983 41.7889 10.7151 42.4121 10.5758C42.7561 10.4962 43.0423 10.5459 43.3447 10.7375C43.5132 10.8445 43.7786 11.1282 43.8802 11.3098C44.1064 11.7179 47.5711 17.6148 48.4529 19.0977C48.8684 19.7969 48.9261 19.879 49.1708 20.1527C49.4731 20.4886 49.7778 20.7474 50.1079 20.9464C51.2505 21.6357 52.6609 21.6307 53.9489 20.934C54.9576 20.3891 55.6108 19.4585 55.8694 18.1945L55.9225 17.9407V13.3625V8.78432L55.8578 8.63752C55.777 8.44842 55.4885 8.13491 55.3108 8.04285C54.9184 7.83633 54.4105 7.86868 54.0458 8.12247C53.7965 8.29416 53.5934 8.60268 53.5357 8.89131C53.5172 8.98586 53.5103 10.215 53.5103 13.2605C53.5103 17.4879 53.5103 17.5003 53.4618 17.6695C53.2656 18.3687 52.6355 18.834 51.9407 18.7917C51.5852 18.7718 51.2574 18.6101 50.9966 18.3289C50.8697 18.1896 50.7081 17.9208 46.6017 10.9366C46.1469 10.1652 45.7522 9.52082 45.6599 9.40387C44.8174 8.32401 43.5917 7.79155 42.2713 7.9284Z" fill="#5C2D91"/>
<path d="M36.2884 7.95067C35.8868 8.01785 35.5498 8.2816 35.3743 8.66229L35.2866 8.85636V14.716V20.5781L35.3536 20.7274C35.4436 20.9215 35.7229 21.225 35.9029 21.3171C36.54 21.6505 37.3202 21.3818 37.6203 20.7249L37.7103 20.5308V14.6836V8.83398L37.648 8.68966C37.5764 8.52544 37.3341 8.2393 37.1702 8.12733C36.9486 7.97556 36.5816 7.90091 36.2884 7.95067Z" fill="#5C2D91"/>
<path d="M83.5756 9.37166C83.1763 9.43138 82.7193 9.61301 82.4192 9.83695C81.8906 10.2251 81.5536 10.7999 81.3897 11.5886C81.3412 11.8101 81.3389 11.9021 81.332 13.5418L81.3228 15.2661H82.777C83.6841 15.2661 84.2958 15.2562 84.4089 15.2387C84.6813 15.1989 84.9583 15.1044 85.2376 14.9576C85.9716 14.5744 86.4656 13.9101 86.6872 13.0168C86.731 12.8402 86.738 12.7481 86.738 12.2928C86.738 11.7976 86.7356 11.7578 86.6733 11.5239C86.5371 10.9989 86.3271 10.6058 85.9762 10.2251C85.5769 9.79216 85.1683 9.54334 84.649 9.41645C84.4181 9.35922 83.8249 9.33434 83.5756 9.37166Z" fill="#5C2D91"/>
<path d="M95.4862 9.36121C95.0822 9.39853 94.5444 9.53041 94.182 9.6797C92.49 10.3764 91.3128 12.0011 91.0889 13.9469C91.0589 14.2156 91.0589 14.9422 91.0889 15.2159C91.1582 15.823 91.3105 16.3803 91.5506 16.9028C92.2661 18.4529 93.628 19.5204 95.1953 19.7543C95.4954 19.8015 96.2202 19.8065 96.5133 19.7667C98.1384 19.5502 99.5418 18.4753 100.264 16.8978C101.019 15.2482 100.908 13.2079 99.9827 11.7075C99.0571 10.2022 97.5359 9.32638 95.8901 9.34877C95.7193 9.35126 95.537 9.35623 95.4862 9.36121Z" fill="#5C2D91"/>
<path d="M107.443 9.37165C106.997 9.41893 106.485 9.62047 106.153 9.87675C105.977 10.0111 105.673 10.352 105.555 10.5461C105.428 10.7501 105.299 11.0611 105.227 11.3224C105.107 11.7702 105.1 11.8847 105.1 13.6687V15.3184L106.654 15.3084C108.369 15.2985 108.311 15.3034 108.768 15.1268C109.16 14.975 109.479 14.7511 109.8 14.3928C110.026 14.139 110.148 13.9474 110.296 13.614C110.601 12.9272 110.647 12.0838 110.418 11.3423C110.164 10.5237 109.493 9.79464 108.733 9.51846C108.352 9.37912 107.872 9.32438 107.443 9.37165Z" fill="#5C2D91"/>
</svg>
