<svg width="121" height="38" viewBox="0 0 121 38" fill="none" xmlns="http://www.w3.org/2000/svg">
<g clip-path="url(#clip0)">
<path d="M92.2418 0.0424506C83.6043 0.0826835 74.9646 0.106153 66.3227 0.112858C62.2787 0.0927417 58.2347 -0.0346625 54.194 0.0793308C50.2134 0.189971 46.2362 -0.336409 42.2522 0.934281C39.4094 1.84958 37.5142 3.58295 35.7925 5.73876C35.0317 6.68759 34.4044 7.75041 33.7137 8.75623C33.5035 8.60201 33.3801 8.55507 33.3467 8.47125C33.2266 8.1058 33.1532 7.72359 33.0364 7.35814C32.0688 4.35743 30.604 2.01051 27.2874 0.904106C25.1152 0.17656 22.9531 0.20003 20.8376 0.122916C14.4713 -0.108423 8.095 0.0659198 1.72201 -0.0011351C0.484119 -0.0011351 0.0303357 0.240263 0.0370089 1.61489C0.100405 13.2288 0.073712 24.8393 0.103742 36.4533C0.103742 36.9159 -0.296655 37.5798 0.490792 37.8581C8.13838 37.8581 15.7826 37.8849 23.4269 37.8581C24.5893 37.8192 25.7434 37.6471 26.8669 37.3451C28.5461 36.9582 30.055 36.0343 31.1669 34.7121C32.2788 33.3898 32.9336 31.7408 33.0331 30.0126C33.0631 29.6371 32.9997 29.2381 33.6203 29.0068C35.9359 34.3712 40.2369 37.2847 45.9225 37.7809C50.3736 38.1665 54.8847 37.8882 59.3658 37.8949C60.2534 37.8949 60.0699 37.2009 60.0765 36.6913C60.0765 34.4248 59.9965 32.1517 60.1132 29.8919C60.1867 28.4838 59.7128 28.1485 58.3482 28.1452C54.6412 28.1452 50.9175 28.4804 47.2238 28.0043C44.1107 27.5987 43.3299 26.6834 42.8862 23.3105H44.7113C49.3659 23.3105 54.0239 23.2803 58.6785 23.3306C59.7362 23.3306 60.1566 23.0657 60.1066 21.9459C59.9915 20.0691 59.9915 18.1868 60.1066 16.31C60.2234 14.8783 59.6361 14.6738 58.4149 14.6872C53.5935 14.7409 48.772 14.6872 43.9506 14.7174C43.1598 14.7174 42.6159 14.647 42.9496 13.6647C43.3453 12.8204 43.8863 12.0532 44.5478 11.3982C44.6533 11.2935 44.7647 11.195 44.8815 11.1032C45.9516 10.2064 47.3089 9.72997 48.7019 9.76206C50.14 9.76206 51.5748 9.70841 53.0129 9.68159C56.4963 9.68159 59.9931 9.85593 63.4632 9.61789C65.6554 9.46702 65.9057 9.3899 65.9057 11.5424C65.9057 19.7801 65.9257 28.0144 65.8756 36.2521C65.8756 37.4825 66.1059 38.0156 67.4939 37.9486C69.9797 37.8279 72.4822 37.8379 74.968 37.9486C76.3393 38.0056 76.7464 37.6133 76.7331 36.2152C76.663 28.0915 76.7331 19.9645 76.6563 11.8408C76.6396 10.2415 76.9166 9.61789 78.7017 9.70171C82.1284 9.86934 85.5685 9.74864 89.0019 9.75535C89.7393 9.75535 90.3733 9.79894 90.6469 8.81993C91.3676 6.22156 92.165 3.6433 93.0059 1.0818C93.2695 0.250321 93.0926 0.0390978 92.2418 0.0424506ZM28.8222 18.439C29.91 17.6309 31.0411 16.8799 31.9453 15.3746V22.2209C30.8175 21.2754 30.0968 19.9578 28.6087 19.4951C27.8012 19.247 28.4752 18.6837 28.8222 18.439ZM23.9374 26.1503C23.7338 27.592 22.4426 28.1384 21.1379 28.1887C18.4686 28.286 15.8293 28.2323 13.1734 28.2357C9.39295 28.2357 9.47303 28.2357 9.29285 24.4974C9.23613 23.3541 9.62652 23.2837 10.4974 23.3071C12.2124 23.3507 13.9275 23.3071 15.6425 23.3071C17.4142 23.3071 19.1827 23.277 20.9544 23.3071C22.7262 23.3373 24.1543 24.6013 23.9374 26.1503ZM12.8864 9.78888C15.4256 9.78888 17.9648 9.78888 20.504 9.78888C21.3949 9.78888 22.3358 9.86264 22.9697 10.5365C23.4969 11.0998 24.1142 11.8508 23.8239 12.6521C23.4202 13.7585 22.6661 14.6638 21.2914 14.6638H15.6625C13.8974 14.6638 12.129 14.6403 10.3639 14.6638C9.57647 14.6805 9.36292 14.3721 9.29953 13.6009C9.05262 9.78888 9.02926 9.78888 12.8864 9.78888Z" fill="url(#paint0_linear)"/>
<path d="M121.001 17.1479V20.8359C121 21.2043 120.854 21.5574 120.594 21.8176C120.335 22.0778 119.983 22.2239 119.616 22.2239H106.753C106.387 22.2239 106.036 22.3701 105.777 22.6305C105.518 22.8908 105.372 23.2438 105.372 23.6119V36.5737C105.371 36.9421 105.225 37.2951 104.965 37.5553C104.706 37.8156 104.354 37.9617 103.987 37.9617H100.317C99.9507 37.9617 99.5994 37.8155 99.3403 37.5551C99.0813 37.2948 98.9357 36.9418 98.9357 36.5737V23.6052C98.9348 23.2368 98.7886 22.8838 98.529 22.6235C98.2694 22.3633 97.9177 22.2172 97.551 22.2172H84.6382C84.2718 22.2172 83.9205 22.071 83.6614 21.8107C83.4024 21.5504 83.2568 21.1973 83.2568 20.8292V17.1411C83.2577 16.7736 83.4036 16.4214 83.6626 16.1618C83.9216 15.9022 84.2724 15.7565 84.6382 15.7565H97.561C97.9277 15.7565 98.2794 15.6103 98.539 15.3501C98.7986 15.0899 98.9448 14.7369 98.9457 14.3684V1.41343C98.9457 1.0453 99.0913 0.692244 99.3503 0.431937C99.6094 0.17163 99.9607 0.0253906 100.327 0.0253906H103.997C104.364 0.0253896 104.716 0.171522 104.975 0.431733C105.235 0.691944 105.381 1.04499 105.382 1.41343V14.3718C105.383 14.7376 105.528 15.0883 105.784 15.3476C106.041 15.6069 106.389 15.7538 106.753 15.7565H119.616C119.983 15.7565 120.336 15.9031 120.595 16.164C120.855 16.4249 121.001 16.7788 121.001 17.1479Z" fill="url(#paint1_linear)"/>
</g>
<defs>
<linearGradient id="paint0_linear" x1="-0.800488" y1="-0.0514282" x2="129.336" y2="51.6423" gradientUnits="userSpaceOnUse">
<stop stop-color="#A500DE"/>
<stop offset="1" stop-color="#FF136D"/>
</linearGradient>
<linearGradient id="paint1_linear" x1="87.7079" y1="10.9319" x2="121.581" y2="29.6426" gradientUnits="userSpaceOnUse">
<stop stop-color="#FE0599"/>
<stop offset="1" stop-color="#FF1956"/>
</linearGradient>
<clipPath id="clip0">
<rect width="121" height="38" fill="white"/>
</clipPath>
</defs>
</svg>
