<svg width="112" height="57" viewBox="0 0 112 57" fill="none" xmlns="http://www.w3.org/2000/svg">
<path d="M0 0H112V57H0V0Z" fill="#027B5B"/>
<path d="M21.2511 20.3489C22.8404 20.3478 24.4297 20.3467 26.0201 20.3489C26.0055 22.4288 26.0223 24.5075 26.01 26.5873C26.4625 25.9471 27.0527 25.3659 27.8233 25.1287C29.2054 24.6967 30.8764 24.9973 31.8665 26.0985C32.8622 27.2019 33.2004 28.7227 33.2418 30.1668C33.2654 31.6153 33.1254 33.1329 32.4018 34.42C31.909 35.3252 31.0478 36.0411 30.0274 36.266C29.0094 36.492 27.8468 36.4597 26.9609 35.854C26.3527 35.4476 26.0167 34.774 25.7065 34.1372C25.7266 34.8097 25.6886 35.4799 25.6751 36.1513C24.2001 36.1513 22.725 36.1513 21.25 36.1513C21.25 30.8838 21.25 25.6164 21.2511 20.3489Z" fill="#FAFCFC"/>
<path d="M47.4287 22.6538C49.0213 22.1439 50.5927 21.5694 52.1853 21.0605C52.1719 22.44 52.1809 23.8206 52.1797 25.2001C52.9033 25.2001 53.6279 25.199 54.3537 25.199C54.3447 26.2434 54.3525 27.2866 54.3469 28.3299C53.6223 28.3421 52.8954 28.3109 52.1719 28.3466C52.1943 29.4299 52.1596 30.5132 52.1887 31.5966C52.201 32.0787 52.4105 32.6242 52.8921 32.8157C53.3781 32.9204 53.8844 32.8235 54.3548 32.6832C54.3447 33.7298 54.3492 34.7775 54.3503 35.8241C53.0209 36.2349 51.6085 36.5255 50.2153 36.3251C49.373 36.2026 48.5666 35.754 48.1041 35.0325C47.5866 34.252 47.4466 33.2945 47.4119 32.3804C47.4085 31.0298 47.4119 29.6804 47.4108 28.331C46.8553 28.3321 46.3009 28.3243 45.7465 28.3421C45.7263 27.2944 45.7397 26.2467 45.7397 25.1979C46.2964 25.2012 46.853 25.199 47.4108 25.199C47.422 24.3506 47.3873 23.5 47.4287 22.6538Z" fill="#FAFCFC"/>
<path d="M55.4871 21.8129C57.035 21.2451 58.7161 21.2195 60.3468 21.2384C61.8252 21.3008 63.3551 21.7272 64.4796 22.7203C65.9669 24.0152 66.0285 26.6729 64.4639 27.9277C64.0641 28.2628 63.5892 28.4955 63.0941 28.6558C63.8121 28.9063 64.5277 29.2481 65.0228 29.8438C65.8169 30.7557 65.9434 32.0739 65.6567 33.2085C65.398 34.2484 64.6118 35.0923 63.6654 35.5711C61.9473 36.4974 59.9156 36.4785 58.0228 36.2959C57.1346 36.2124 56.2599 36.0354 55.3998 35.8049C55.3639 34.6681 55.3998 33.5291 55.3818 32.3935C56.858 32.88 58.4764 33.2029 60.0164 32.8355C61.049 32.5772 61.1017 30.9817 60.1799 30.5464C59.2055 30.0643 58.0642 30.2502 57.0282 30.3871C57.0338 29.3138 57.0294 28.2394 57.0305 27.1639C57.8346 27.2017 58.6466 27.2474 59.4441 27.1149C59.9257 27.0303 60.4711 26.7898 60.6033 26.2754C60.6772 25.8634 60.6324 25.3947 60.3457 25.0696C60.0198 24.691 59.5046 24.5418 59.0196 24.5129C57.8279 24.4517 56.6284 24.6576 55.5129 25.0696C55.4737 23.9863 55.5185 22.8985 55.4871 21.8129Z" fill="#F9DC1C"/>
<path d="M68.1703 23.5186C69.2802 22.1558 70.9972 21.3731 72.7422 21.2562C74.3639 21.1905 76.0159 21.2139 77.594 21.6414C77.5716 22.7626 77.594 23.8849 77.5817 25.0061C76.297 24.6487 74.9575 24.3959 73.6191 24.5451C72.806 24.6542 71.9974 25.0706 71.5841 25.7977C71.2951 26.2854 71.2302 26.8576 71.1876 27.411C72.153 26.6606 73.4377 26.4835 74.6294 26.5559C76.138 26.6528 77.5694 27.5624 78.2638 28.9007C78.7834 29.8983 78.8742 31.0696 78.714 32.1696C78.5438 33.3353 77.9143 34.4376 76.959 35.1424C75.5534 36.2324 73.6729 36.553 71.9358 36.3292C70.4193 36.1455 68.9991 35.345 68.0583 34.1515C66.9562 32.8276 66.4634 31.0919 66.431 29.3917C66.3862 27.3297 66.7994 25.1352 68.1703 23.5186Z" fill="#F9DC1C"/>
<path d="M79.817 21.4852C82.9317 21.4841 86.0464 21.4841 89.16 21.4852C89.1567 22.612 89.16 23.7387 89.1578 24.8655C87.4912 24.8788 85.8224 24.8421 84.157 24.8844C84.1727 25.6304 84.176 26.3797 84.1559 27.1268C85.1012 27.1089 86.0812 26.9675 86.9928 27.2927C88.2965 27.7269 89.309 28.8859 89.6125 30.2142C89.9015 31.4935 89.8253 32.9142 89.1533 34.0665C88.5216 35.1465 87.358 35.8067 86.1685 36.1129C84.0215 36.6451 81.768 36.3568 79.6636 35.78C79.6322 34.6611 79.658 33.5421 79.649 32.4232C80.9997 32.7616 82.4557 33.0923 83.8232 32.6547C84.9612 32.304 85.1303 30.6117 84.2332 29.9236C83.6944 29.5205 82.9967 29.4226 82.3404 29.3947C81.6056 29.3836 80.8698 29.4805 80.1552 29.6486C80.0029 29.6775 79.8708 29.7644 79.7498 29.8546C79.7845 29.7332 79.808 29.6096 79.8181 29.4849C79.8148 26.8183 79.8159 24.1507 79.817 21.4852Z" fill="#F9DC1C"/>
<path d="M35.4817 26.5076C36.6947 25.2973 38.4979 24.9422 40.1588 24.95C41.4155 24.9143 42.7438 25.2283 43.688 26.0945C44.6668 26.993 45.1204 28.3135 45.2985 29.5961C45.4195 30.3711 45.4049 31.1571 45.4027 31.9387C43.1952 31.9387 40.9888 31.9387 38.7801 31.9387C38.816 32.3251 38.8955 32.7348 39.1923 33.012C39.7187 33.5075 40.4859 33.5743 41.1747 33.6199C42.3809 33.64 43.632 33.5108 44.7083 32.9274C44.6993 33.8716 44.7083 34.8168 44.7004 35.7621C43.352 36.2331 41.915 36.3689 40.4948 36.3945C38.8843 36.4234 37.1539 36.1406 35.895 35.0673C34.7224 34.082 34.2027 32.5355 34.1344 31.0491C34.0302 29.4536 34.3091 27.69 35.4817 26.5076Z" fill="#FAFCFC"/>
<path d="M39.2067 27.8905C39.5875 27.3427 40.5272 27.3082 40.9057 27.8771C41.2462 28.3926 41.2675 29.0384 41.2787 29.6341C40.4488 29.6352 39.62 29.6352 38.79 29.6352C38.8124 29.0384 38.846 28.396 39.2067 27.8905Z" fill="#027B5B"/>
<path d="M26.8101 28.2333C27.257 28.0896 27.7868 28.3101 27.9895 28.7354C28.2818 29.3099 28.2717 29.9768 28.2807 30.6059C28.2583 31.2361 28.2269 31.9175 27.8652 32.4608C27.5146 32.9986 26.594 32.9997 26.2557 32.4474C25.9343 31.9342 25.9018 31.3018 25.8984 30.7139C25.8984 30.1461 25.8973 29.5649 26.0664 29.0171C26.1751 28.6619 26.4316 28.3223 26.8101 28.2333Z" fill="#027B5B"/>
<path d="M72.2029 29.4092C72.8761 29.1643 73.734 29.368 74.1092 30.0038C74.5672 30.7809 74.5359 31.8286 74.0498 32.5846C73.5704 33.3818 72.2757 33.4753 71.6821 32.7628C71.1703 32.1827 71.1221 31.3398 71.2801 30.615C71.3764 30.1051 71.69 29.5918 72.2029 29.4092Z" fill="#027B5B"/>
</svg>
