<svg width="105" height="27" viewBox="0 0 105 27" fill="none" xmlns="http://www.w3.org/2000/svg">
<path d="M98.7267 19.2236C98.7955 18.9687 98.8615 18.7247 98.9249 18.4806C99.5218 16.2179 100.119 13.9552 100.716 11.6926C100.923 10.9064 101.132 10.1203 101.333 9.33281C101.359 9.23437 101.398 9.2074 101.495 9.20875C102.62 9.20875 103.743 9.20875 104.866 9.20875C105.018 9.20875 105.02 9.20875 104.973 9.35708L104.164 11.8665L101.169 21.1235C101.014 21.6009 100.857 22.0769 100.706 22.5569C100.681 22.6419 100.639 22.6621 100.555 22.6621C99.2921 22.6621 98.0287 22.6621 96.7647 22.6621C96.7457 22.6651 96.7264 22.6644 96.7077 22.6598C96.689 22.6553 96.6714 22.6471 96.656 22.6356C96.6405 22.6242 96.6275 22.6098 96.6177 22.5933C96.6079 22.5767 96.6015 22.5584 96.5989 22.5394C96.0379 20.7505 95.4752 18.9624 94.9106 17.1753C94.4009 15.5572 93.8917 13.9391 93.3828 12.3209C93.3807 12.3055 93.3755 12.2907 93.3675 12.2774C93.3595 12.2641 93.3489 12.2525 93.3363 12.2435C93.3237 12.2344 93.3093 12.228 93.2941 12.2246C93.279 12.2212 93.2633 12.221 93.248 12.2239C92.3729 12.2239 91.495 12.2239 90.6199 12.2239C90.4851 12.2239 90.5053 12.294 90.5053 12.3749V22.4881C90.5053 22.6621 90.5053 22.6621 90.3354 22.6621C89.2809 22.6621 88.2264 22.6621 87.172 22.6621C87.0371 22.6621 87.0007 22.6405 87.0007 22.4989C87.0061 19.1278 87.0088 15.7568 87.0088 12.3857C87.0088 12.2508 86.9683 12.2212 86.8389 12.2212C85.6064 12.2212 84.3739 12.2212 83.1415 12.2279C83.0147 12.2279 82.9905 12.1874 82.9905 12.0701C82.9905 11.164 82.9905 10.2569 82.9905 9.34899C82.9905 9.23842 83.0188 9.20605 83.1253 9.20605C87.3917 9.20605 91.6582 9.20605 95.9247 9.20605C96.019 9.20605 96.0595 9.23572 96.0757 9.32472C96.5737 11.2188 97.0726 13.1129 97.5724 15.007C97.932 16.3635 98.2916 17.7205 98.6512 19.0779C98.6577 19.1341 98.6845 19.1859 98.7267 19.2236Z" fill="#F79C0E"/>
<path d="M60.1829 13.555C59.8984 12.2955 59.3739 11.1601 58.4489 10.2365C57.6133 9.38351 56.5046 8.85134 55.3164 8.73295C54.6644 8.66705 54.006 8.71265 53.3693 8.86779C52.2447 9.13748 51.2833 9.66337 50.5929 10.6208C50.5632 10.6599 50.5443 10.7408 50.489 10.7246C50.4338 10.7084 50.4634 10.6302 50.4634 10.5817C50.4634 8.40258 50.4634 6.22306 50.4634 4.04309C50.4634 3.92443 50.4324 3.89746 50.3164 3.89746C49.1694 3.90285 48.0219 3.90285 46.8739 3.89746C46.7485 3.89746 46.7242 3.93252 46.7242 4.05118C46.7242 7.12831 46.7242 10.2063 46.7242 13.2853C46.7242 16.3642 46.7242 19.4467 46.7242 22.5328C46.7242 22.6286 46.735 22.6677 46.8496 22.6677C47.9526 22.6623 49.0557 22.6623 50.1587 22.6677C50.2517 22.6677 50.2787 22.6448 50.2787 22.5504C50.2787 22.0474 50.2787 21.5458 50.2787 21.0428C50.2787 21.0064 50.2544 20.9511 50.3016 20.9376C50.3488 20.9242 50.3596 20.9835 50.3785 21.0145C50.868 21.8465 51.6002 22.3859 52.5077 22.6906C53.1248 22.8927 53.7679 23.0048 54.417 23.0237C55.3578 23.0839 56.2975 22.8892 57.1368 22.46C58.3342 21.8357 59.1595 20.8662 59.6989 19.6499C60.0969 18.7308 60.331 17.7492 60.3906 16.7494C60.4802 15.6802 60.4102 14.6036 60.1829 13.555ZM56.1525 18.4916C55.7776 19.2629 55.2221 19.8494 54.3766 20.0908C53.2318 20.4171 51.9912 20.1259 51.2253 19.0822C50.7899 18.467 50.5121 17.7545 50.4162 17.0069C50.2726 16.1182 50.2996 15.2103 50.4958 14.3317C50.6562 13.621 50.9259 12.9468 51.4356 12.4074C51.6711 12.146 51.9564 11.9341 52.2748 11.7843C52.5931 11.6345 52.9382 11.5497 53.2897 11.535C53.7992 11.4949 54.3103 11.5878 54.773 11.8047C55.2608 12.0423 55.6686 12.4172 55.9462 12.8834C56.3992 13.6089 56.5948 14.4139 56.6676 15.2553C56.6851 15.4684 56.6932 15.6814 56.6945 15.8945C56.6838 16.7858 56.553 17.6663 56.1525 18.4916Z" fill="#0A5186"/>
<path d="M40.0253 12.7902C39.6207 11.5658 38.964 10.5167 37.9217 9.73325C37.1809 9.17285 36.3001 8.82716 35.3758 8.73407C34.8084 8.6759 34.2354 8.7018 33.6755 8.81093C32.7775 8.96017 31.9378 9.35341 31.2483 9.94766C31.0107 10.1574 30.7989 10.3946 30.6172 10.6542C30.597 10.6839 30.5822 10.7419 30.5336 10.7244C30.4851 10.7068 30.5161 10.6529 30.5107 10.6165C30.5093 10.5985 30.5093 10.5805 30.5107 10.5625C30.5107 8.39156 30.5107 6.22103 30.5107 4.05095C30.5107 3.91611 30.4729 3.89453 30.3489 3.89453C29.2099 3.89992 28.0709 3.89992 26.9319 3.89453C26.7971 3.89453 26.7755 3.92959 26.7755 4.05499C26.7755 7.12853 26.7755 10.2021 26.7755 13.2756C26.7755 16.3491 26.7755 19.4312 26.7755 22.5218C26.7755 22.6391 26.8038 22.6674 26.9212 22.6661C28.0152 22.6661 29.1092 22.6661 30.2033 22.6661C30.303 22.6661 30.33 22.6432 30.33 22.542C30.3233 22.0445 30.33 21.5455 30.33 21.048C30.33 21.0102 30.3098 20.9536 30.3502 20.9401C30.3907 20.9266 30.4163 20.9886 30.4352 21.0224C30.9247 21.8557 31.6555 22.3802 32.5549 22.6904C33.1722 22.8922 33.8152 23.0048 34.4643 23.0248C35.3908 23.0868 36.3171 22.9006 37.1477 22.4854C38.4705 21.8112 39.3335 20.7324 39.8715 19.3651C40.2377 18.4045 40.4375 17.3885 40.4621 16.3608C40.5322 15.154 40.3842 13.9445 40.0253 12.7902ZM36.1849 18.5304C35.8006 19.2977 35.241 19.8789 34.3874 20.1027C33.2494 20.4088 32.0263 20.1027 31.2739 19.0793C30.8507 18.4725 30.5767 17.7744 30.4743 17.0418C30.3715 16.4009 30.3566 15.749 30.4298 15.1041C30.5228 14.2141 30.7507 13.3673 31.3009 12.6378C31.537 12.3103 31.8444 12.0408 32.2 11.8494C32.5555 11.6581 32.9498 11.5501 33.3532 11.5334C33.8604 11.4936 34.3693 11.5865 34.8297 11.8031C35.328 12.0476 35.7431 12.4336 36.0231 12.9129C36.4721 13.6464 36.6582 14.4582 36.7256 15.3036C36.7405 15.4992 36.7459 15.6947 36.7526 15.8241C36.731 16.8018 36.6029 17.6985 36.1849 18.5304Z" fill="#0A5186"/>
<path d="M74.3092 14.9853C74.2008 13.8908 73.87 12.8299 73.337 11.8677C72.5091 10.4033 71.3009 9.40683 69.672 8.9551C68.491 8.63066 67.2469 8.6121 66.0568 8.90116C64.1353 9.35154 62.6857 10.4411 61.7284 12.1698C61.1239 13.2875 60.8118 14.5399 60.8209 15.8105C60.8114 17.159 61.0555 18.4521 61.6933 19.6522C62.335 20.8872 63.3827 21.8635 64.6599 22.4165C65.484 22.7763 66.3679 22.9793 67.2664 23.0152C68.48 23.0746 69.6531 22.9438 70.7723 22.457C71.4205 22.1774 72.0077 21.7739 72.501 21.269C72.9618 20.7923 73.3449 20.2463 73.6364 19.6509C73.8289 19.2664 73.9907 18.8674 74.1205 18.4575H73.9654C73.0215 18.4575 72.0709 18.4575 71.1229 18.4575C71.0422 18.4435 70.9591 18.4591 70.889 18.5015C70.8189 18.5438 70.7664 18.6101 70.7413 18.6881C70.4716 19.272 69.9754 19.632 69.405 19.8936C68.4611 20.3211 67.4875 20.3211 66.5166 20.0163C66.1984 19.9192 65.9031 19.759 65.6482 19.5451C65.3934 19.3313 65.1842 19.0682 65.0334 18.7717C64.7443 18.1891 64.5834 17.5514 64.5614 16.9014C64.5614 16.7949 64.587 16.776 64.6841 16.7774C65.3867 16.7774 66.0905 16.7774 66.7931 16.7774C69.2661 16.7774 71.7382 16.7774 74.2095 16.7774C74.3308 16.7774 74.3605 16.7464 74.3659 16.6263C74.3904 16.0787 74.3714 15.53 74.3092 14.9853ZM70.4986 14.4082C69.5295 14.4082 68.56 14.4082 67.59 14.4082C66.6259 14.4082 65.6604 14.4082 64.6963 14.4082C64.5709 14.4082 64.5466 14.3731 64.5614 14.2585C64.707 12.991 65.4568 11.8772 66.8605 11.594C67.5629 11.43 68.2987 11.486 68.9681 11.7545C69.4947 11.9854 69.9193 12.4 70.1628 12.9208C70.3769 13.3676 70.5285 13.8418 70.6132 14.33C70.6348 14.4554 70.5458 14.4082 70.4986 14.4082Z" fill="#0A5186"/>
<path d="M75.0941 13.2809C75.0941 10.2065 75.0941 7.1325 75.0941 4.05896C75.0941 3.92412 75.1251 3.89176 75.2613 3.89311C76.403 3.8985 77.546 3.8985 78.6904 3.89311C78.801 3.89311 78.8252 3.92008 78.8252 4.02795C78.8252 10.193 78.8252 16.3585 78.8252 22.5244C78.8252 22.6364 78.7956 22.6593 78.6904 22.6593C77.5379 22.6593 76.3855 22.6593 75.233 22.6593C75.1238 22.6593 75.0982 22.6364 75.0982 22.5244C75.0982 19.4419 75.0982 16.3594 75.0982 13.2769L75.0941 13.2809Z" fill="#0A5186"/>
<path d="M45.1022 15.9412C45.1022 18.1346 45.1022 20.3276 45.1022 22.5202C45.1022 22.6375 45.0752 22.6658 44.9579 22.6658C43.8045 22.6604 42.6521 22.6604 41.5005 22.6658C41.3926 22.6658 41.3657 22.6429 41.3657 22.531C41.3657 18.1405 41.3657 13.75 41.3657 9.35945C41.3657 9.25158 41.3899 9.22461 41.5005 9.22461C42.6521 9.22461 43.8041 9.22461 44.9565 9.22461C45.0752 9.22461 45.1035 9.25293 45.1035 9.37159C45.1035 11.5641 45.1035 13.7567 45.1035 15.9493L45.1022 15.9412Z" fill="#0A5186"/>
<path d="M15.1008 13.2353C15.3921 13.4106 15.6847 13.5872 15.9773 13.7612L19.0652 15.5897C19.9192 16.094 20.7732 16.5987 21.6272 17.1039L22.5981 17.6838C22.6353 17.727 22.6764 17.7667 22.7208 17.8024C22.7493 17.8239 22.7726 17.8514 22.7893 17.8829C22.806 17.9144 22.8156 17.9492 22.8174 17.9848C22.8192 18.0204 22.8132 18.056 22.7997 18.089C22.7863 18.122 22.7658 18.1517 22.7397 18.1759C22.6889 18.2321 22.6319 18.2823 22.5698 18.3256C22.2556 18.5414 21.963 18.7881 21.6502 19.0066C21.5859 19.0542 21.5315 19.1137 21.4897 19.1819C21.3549 19.3302 21.3549 19.3329 21.1796 19.2466C21.1672 19.2391 21.1535 19.2342 21.1392 19.2322C21.125 19.2301 21.1104 19.2309 21.0965 19.2345C21.0825 19.2382 21.0694 19.2446 21.058 19.2534C21.0466 19.2622 21.037 19.2732 21.0299 19.2857C20.9893 19.3454 20.9707 19.4174 20.9773 19.4893C20.9807 19.6669 20.9712 19.8444 20.949 20.0206C20.9465 20.0557 20.9407 20.0905 20.9315 20.1244C20.9166 20.1703 20.9099 20.2323 20.8479 20.231C20.7858 20.2296 20.7858 20.173 20.775 20.1312C20.715 19.908 20.6882 19.6772 20.6955 19.4462C20.7014 19.3918 20.6907 19.3368 20.6647 19.2886C20.6387 19.2405 20.5986 19.2013 20.5498 19.1765C20.1993 18.9594 19.8365 18.7625 19.4819 18.5495C18.5501 17.9872 17.6103 17.4384 16.6758 16.8801L14.788 15.7528C14.4145 15.5303 14.0477 15.2957 13.6674 15.0786C13.6175 15.0503 13.565 15.0206 13.569 14.9438C13.6243 14.9033 13.6688 14.9438 13.7146 14.964C13.8158 15.0139 13.9115 15.0759 14.0113 15.1271C14.5507 15.4184 15.09 15.738 15.6159 16.0495C16.34 16.4742 17.0682 16.8909 17.7842 17.3278C18.2953 17.6406 18.8104 17.9454 19.3255 18.2501C19.6963 18.4686 20.0631 18.6937 20.4298 18.9243C20.5269 19.0147 20.6523 19.0686 20.7454 19.1657C20.8155 19.2385 20.8802 19.2129 20.9153 19.1172C20.9275 19.0886 20.9339 19.0579 20.9342 19.0268C20.9303 18.9797 20.9424 18.9326 20.9686 18.8932C20.9948 18.8538 21.0335 18.8244 21.0784 18.8097C21.1113 18.7955 21.1404 18.7738 21.1634 18.7463C21.251 18.6587 21.2429 18.5791 21.131 18.5265C20.6469 18.3041 20.21 17.9966 19.7462 17.7391C19.1448 17.4046 18.5609 17.0419 17.9649 16.7008C17.6224 16.5052 17.2907 16.2962 16.9455 16.1021C16.5679 15.8782 16.1836 15.6652 15.8061 15.4413C15.7763 15.4223 15.7427 15.4104 15.7076 15.4063C15.5782 15.3487 15.4548 15.2782 15.3395 15.1959C15.121 15.0611 14.8999 14.9262 14.6788 14.7995C14.4576 14.6727 14.2162 14.5028 13.9884 14.3504C13.8835 14.2662 13.7721 14.1905 13.6553 14.1239C13.6083 14.0911 13.5632 14.0556 13.5205 14.0174C13.3681 13.9041 13.3546 13.7261 13.3317 13.5643C13.2724 13.1708 13.2507 12.7726 13.267 12.375C13.2683 12.3573 13.271 12.3397 13.275 12.3224C13.2779 12.3085 13.2842 12.2955 13.2934 12.2847C13.3026 12.2738 13.3144 12.2655 13.3276 12.2604C13.3677 12.2541 13.4087 12.2633 13.4422 12.286C13.4126 12.2563 13.3748 12.255 13.3425 12.2401C13.331 12.2342 13.3223 12.224 13.3182 12.2118C13.3152 12.1952 13.3175 12.1781 13.3248 12.1629C13.3321 12.1476 13.3439 12.135 13.3586 12.1269C13.6177 11.9914 13.8698 11.8429 14.1138 11.6819C14.5857 11.4001 15.0577 11.1088 15.5188 10.8162C15.8074 10.6342 16.1014 10.4589 16.3872 10.2768C16.6488 10.1096 16.9185 9.95454 17.1788 9.78599C17.5024 9.57428 17.8301 9.37067 18.1537 9.15896C18.36 9.02412 18.5515 8.86905 18.7645 8.74365C18.8387 8.69915 18.9344 8.68701 18.987 8.6088C19.0105 8.58367 19.0419 8.56746 19.076 8.56296C19.0581 8.56404 19.0407 8.56893 19.0249 8.5773C19.0091 8.58567 18.9952 8.59733 18.9843 8.6115C18.6418 8.7868 18.3101 8.98367 17.9636 9.15087C17.6561 9.30325 17.3729 9.49338 17.0736 9.65788C16.5612 9.94106 16.0555 10.2391 15.5499 10.5357C14.8756 10.9308 14.2014 11.3272 13.5272 11.7183C13.4746 11.748 13.4234 11.7965 13.3559 11.7534C13.3332 11.7203 13.3236 11.6799 13.329 11.6401C13.3411 11.3556 13.3128 11.0724 13.3492 10.7879C13.3562 10.6648 13.3499 10.5414 13.3303 10.4198C13.325 10.3745 13.3324 10.3288 13.3517 10.2875C13.371 10.2463 13.4014 10.2113 13.4395 10.1865C13.5809 10.0617 13.7649 9.99604 13.9533 10.0031C14.0338 10.0068 14.1143 9.99532 14.1906 9.96937C14.3963 9.9117 14.6065 9.872 14.819 9.85071C14.969 9.8218 15.1243 9.84263 15.2613 9.91004C15.3255 9.94564 15.3986 9.96191 15.4718 9.95689C15.545 9.95186 15.6152 9.92576 15.6739 9.88172C15.8357 9.78868 15.9746 9.66463 16.1459 9.58372C16.6852 9.32887 17.2098 9.06997 17.737 8.80163C18.1955 8.56835 18.6715 8.36878 19.1259 8.12741C19.5304 7.91436 19.9228 7.67568 20.3166 7.44375C20.9261 7.08507 21.5409 6.73448 22.1477 6.3731C22.1867 6.34697 22.231 6.32965 22.2773 6.32232C22.3237 6.315 22.3711 6.31785 22.4163 6.33068C22.4614 6.34351 22.5033 6.36601 22.5388 6.39662C22.5744 6.42723 22.6029 6.46521 22.6224 6.50794C22.6428 6.53612 22.657 6.56837 22.6638 6.60249C22.6707 6.63661 22.6702 6.67181 22.6622 6.70571C22.6543 6.7396 22.6392 6.77139 22.6179 6.79892C22.5966 6.82646 22.5696 6.84908 22.5388 6.86528C22.3015 7.02169 22.0587 7.17137 21.816 7.3197C21.2928 7.63928 20.7737 7.9656 20.2505 8.28653C19.4671 8.76657 18.6984 9.2547 17.9191 9.7334C17.0561 10.2665 16.1922 10.7982 15.3274 11.3286C14.823 11.6441 14.312 11.9502 13.8131 12.2725C13.7753 12.2968 13.6674 12.3049 13.747 12.3979C14.1596 12.6366 14.5655 12.8847 14.9795 13.122C15.032 13.1442 15.075 13.1844 15.1008 13.2353Z" fill="#F6CA15"/>
<path d="M0.442023 17.8168C0.757557 17.597 1.09467 17.4123 1.42368 17.2114C2.77212 16.4023 4.11741 15.5906 5.45955 14.7761C5.48517 14.7599 5.51484 14.7491 5.5418 14.7357C5.71068 14.6608 5.87228 14.5705 6.02454 14.466C6.38862 14.2381 6.76214 14.0264 7.12622 13.7918C7.46872 13.5787 7.81931 13.3778 8.16046 13.1634C8.58253 12.8937 9.01672 12.6577 9.43743 12.3921C9.52913 12.3314 9.62756 12.2842 9.71521 12.2208L9.74757 12.1993C10.0247 12.0494 10.2874 11.8742 10.5324 11.6761C10.6931 11.5224 10.8406 11.3555 10.9733 11.1771C10.9976 11.1461 11.0138 11.0585 11.0879 11.1273C11.1069 11.1776 11.112 11.232 11.1027 11.285C11.034 11.7125 11.1027 12.1426 11.0825 12.5728C11.0825 12.6658 11.065 12.7575 11.0663 12.8519C11.0663 12.9193 11.0245 12.9463 10.9598 12.9328C10.8662 12.9168 10.7753 12.8873 10.6901 12.8452C10.4299 12.7103 10.1818 12.5525 9.92826 12.4056C9.79342 12.3287 9.76645 12.3449 9.7651 12.4973C9.78452 12.7995 9.76595 13.1031 9.70982 13.4007C9.64374 13.6461 9.62352 13.9131 9.41181 14.0979C9.40098 14.1067 9.38923 14.1144 9.37675 14.1208C9.17179 14.203 9.01942 14.3675 8.82794 14.4714C8.59601 14.5981 8.37352 14.7411 8.14428 14.8759C7.77751 15.0876 7.3986 15.2804 7.04531 15.5164C6.87406 15.6324 6.67584 15.7227 6.4938 15.8292C6.31176 15.9358 6.08927 16.0652 5.89644 16.1974C5.77763 16.2825 5.65018 16.3548 5.51618 16.4131C5.40715 16.4552 5.30526 16.5139 5.21413 16.5871C5.1442 16.6444 5.06541 16.6899 4.98086 16.7219C4.76106 16.8149 4.55205 16.9336 4.34035 17.0455C4.2837 17.0721 4.23354 17.1108 4.19337 17.1588C4.18338 17.1738 4.17048 17.1867 4.15543 17.1967C4.14037 17.2066 4.12347 17.2135 4.10572 17.2168C3.85356 17.2451 3.66883 17.415 3.45173 17.5202C3.28048 17.6024 3.11058 17.6887 2.94607 17.7899C2.83549 17.8546 2.76807 17.9746 2.63053 18.0029C2.40265 18.0474 2.226 18.2065 2.04127 18.3238C1.98952 18.3587 1.92948 18.3794 1.86721 18.3836C1.80494 18.3879 1.74265 18.3756 1.68663 18.3481C1.41694 18.2308 1.15534 18.1 0.885658 17.9854C0.865605 17.975 0.844883 17.966 0.82363 17.9584C0.760254 17.9409 0.688786 17.9085 0.641591 17.9773C0.594396 18.0461 0.641591 18.1229 0.690135 18.1836C0.690135 18.1836 0.702271 18.1984 0.710361 18.2011C0.966564 18.2672 1.14591 18.4708 1.38458 18.5706C1.45396 18.6004 1.5185 18.6404 1.57606 18.6893C1.59281 18.7007 1.60524 18.7174 1.61135 18.7367C1.61747 18.756 1.61691 18.7768 1.60977 18.7958C1.59224 18.8416 1.55583 18.8484 1.51133 18.8443C1.46683 18.8403 1.43582 18.812 1.41559 18.8551C1.40967 18.8748 1.41013 18.8958 1.41692 18.9152C1.4237 18.9346 1.43646 18.9513 1.45335 18.963C1.56937 19.0664 1.67217 19.1837 1.75944 19.3123C1.79855 19.3648 1.8363 19.3621 1.87406 19.3123L1.95227 19.2044C2.03183 19.0871 2.14105 19.079 2.21387 19.2044C2.23248 19.2383 2.25948 19.2669 2.2923 19.2875C2.32511 19.308 2.36264 19.3198 2.4013 19.3217C2.36354 19.4457 2.33253 19.4565 2.2287 19.4066C2.04801 19.3123 1.98463 19.35 1.98059 19.5604C1.97951 19.68 1.96686 19.7992 1.94283 19.9164C1.93069 19.973 1.91991 20.0431 1.84979 20.0512C1.77967 20.0593 1.76079 19.9878 1.74596 19.9312C1.71475 19.8064 1.69089 19.6799 1.67449 19.5523C1.6683 19.4688 1.64399 19.3877 1.60323 19.3145C1.56248 19.2414 1.50627 19.178 1.43852 19.1289C1.11894 18.8821 0.781828 18.6583 0.464946 18.4088C0.411765 18.3692 0.367993 18.3183 0.336758 18.2598C0.305523 18.2013 0.287595 18.1366 0.284256 18.0703C0.313697 17.9735 0.368107 17.886 0.442023 17.8168Z" fill="#F6CA16"/>
<path d="M13.3397 16.4797C13.3397 19.1914 13.3397 21.9031 13.3397 24.6148C13.3525 24.7708 13.3173 24.9271 13.2387 25.0626C13.1601 25.1981 13.042 25.3062 12.9001 25.3726C12.5684 25.5506 12.2488 25.7515 11.9333 25.9578C11.815 26.0452 11.6718 26.0923 11.5247 26.0923C11.3776 26.0923 11.2344 26.0452 11.1161 25.9578C10.7534 25.7272 10.3772 25.5182 10.0091 25.2971C9.92182 25.2519 9.84769 25.1849 9.79384 25.1027C9.73998 25.0205 9.70823 24.9259 9.70163 24.8278C9.68968 24.7802 9.68648 24.7309 9.69219 24.6822C9.69219 21.9961 9.69219 19.31 9.69219 16.6239C9.69219 16.574 9.67466 16.5201 9.70972 16.4702C9.77579 16.4864 9.78523 16.5417 9.79332 16.5929C9.79803 16.6459 9.79803 16.6991 9.79332 16.752C9.79332 16.984 9.79332 17.2159 9.79332 17.4465C9.77444 19.012 9.81894 20.5762 9.82838 22.1417C9.82838 22.9629 9.8567 23.7855 9.88906 24.6067C9.88906 24.6512 9.88906 24.6957 9.88906 24.7415C9.88823 24.8123 9.90597 24.882 9.94051 24.9438C9.97506 25.0055 10.0252 25.0571 10.0859 25.0935C10.4082 25.3159 10.7723 25.4697 11.0716 25.7272C11.1323 25.7798 11.189 25.8364 11.251 25.8863C11.2997 25.9293 11.3601 25.9567 11.4245 25.9651C11.4888 25.9735 11.5543 25.9625 11.6124 25.9335C11.6677 25.9102 11.7148 25.871 11.7477 25.8208C11.7806 25.7706 11.7978 25.7117 11.7971 25.6517C11.8429 25.1946 11.8173 24.7361 11.82 24.279C11.82 23.6385 11.8065 22.998 11.82 22.3575C11.8645 20.7569 11.82 19.1563 11.851 17.5557C11.8618 16.9772 11.8605 16.4001 11.8713 15.8216C11.866 15.7641 11.8753 15.7061 11.8982 15.6531C11.9073 15.6408 11.92 15.6318 11.9346 15.6274C12.049 15.6611 12.157 15.7135 12.2542 15.7825C12.5819 15.9699 12.9042 16.1682 13.2305 16.3569C13.2831 16.3866 13.3491 16.4028 13.3397 16.4797Z" fill="#C9801F"/>
<path d="M11.9481 15.6434C11.9104 15.6744 11.9225 15.7162 11.9212 15.7553C11.9212 15.8349 11.9212 15.9158 11.9212 15.9953C11.8861 17.9101 11.9212 19.8262 11.8861 21.741C11.8672 22.9546 11.8861 24.1682 11.8672 25.3818C11.8672 25.5166 11.8484 25.638 11.8349 25.7634C11.812 25.9616 11.4978 26.0924 11.2955 25.9724C11.2156 25.9162 11.1419 25.8515 11.0757 25.7796C10.8556 25.6083 10.6199 25.458 10.3718 25.3305C10.237 25.2496 10.1021 25.1593 9.9673 25.0716C9.92117 25.0358 9.88548 24.9883 9.8639 24.934C9.84233 24.8797 9.83566 24.8206 9.84459 24.7629C9.85403 24.5026 9.8365 24.2424 9.83515 23.9821C9.83515 23.4684 9.82571 22.9519 9.80414 22.4395C9.78391 21.9675 9.7974 21.4956 9.78526 21.0277C9.7502 19.566 9.75964 18.1043 9.75829 16.6426C9.75829 16.5913 9.77177 16.5347 9.7057 16.4916V24.6779C9.7057 24.7305 9.7057 24.7844 9.7057 24.837C9.67064 24.7939 9.68548 24.744 9.68548 24.7022V16.501L9.25937 16.7397C9.22296 16.7505 9.22161 16.7289 9.2297 16.706C9.23779 16.683 9.27825 16.6561 9.30791 16.6372C9.7974 16.3405 10.2815 16.0385 10.7723 15.7472C10.8829 15.6811 10.9908 15.6124 11.1027 15.549C11.1404 15.5288 11.2079 15.4708 11.2106 15.5841C11.1788 15.6768 11.1642 15.7746 11.1674 15.8726C11.1674 16.2852 11.1526 16.7006 11.1674 17.1132C11.2133 18.1313 11.1607 19.1493 11.1957 20.1674C11.22 20.8416 11.2038 21.528 11.2173 22.2076C11.2321 22.9357 11.2375 23.6639 11.251 24.3934C11.251 24.7979 11.2631 25.2105 11.2726 25.6191C11.2726 25.7958 11.3467 25.8726 11.4802 25.8699C11.4983 25.8718 11.5165 25.87 11.5338 25.8646C11.5512 25.8593 11.5672 25.8505 11.5811 25.8388C11.5949 25.827 11.6063 25.8127 11.6144 25.7965C11.6226 25.7803 11.6274 25.7626 11.6286 25.7445C11.6346 25.7053 11.6373 25.6656 11.6367 25.6259C11.6542 24.8303 11.6555 24.0334 11.669 23.2391C11.6825 22.4449 11.669 21.6911 11.6973 20.9185C11.7176 20.3589 11.6973 19.7979 11.7216 19.2397C11.7553 18.5897 11.7216 17.9411 11.7486 17.2925C11.7688 16.7896 11.7661 16.2879 11.7715 15.7863C11.7692 15.7412 11.7723 15.6959 11.7809 15.6515C11.7904 15.611 11.8079 15.5733 11.8565 15.5706C11.905 15.5679 11.9441 15.5841 11.9481 15.6434Z" fill="#D99623"/>
<path d="M15.1008 13.2349L13.7388 12.438C13.697 12.3895 13.7388 12.3665 13.7712 12.3423C13.8303 12.2881 13.8944 12.2398 13.9627 12.198C14.8553 11.6667 15.7359 11.1192 16.6245 10.5799C17.4174 10.0971 18.2049 9.60493 18.9977 9.12219C19.7906 8.63945 20.5633 8.15537 21.3494 7.67937C21.7148 7.45957 22.0722 7.22629 22.4403 7.00515C22.4827 6.98054 22.5237 6.95353 22.563 6.92424C22.5981 6.89235 22.6258 6.85309 22.644 6.80927C22.6622 6.76544 22.6705 6.71814 22.6683 6.67074C22.6661 6.62333 22.6535 6.577 22.6313 6.53504C22.6092 6.49308 22.578 6.45654 22.5401 6.42802C22.4925 6.3884 22.4399 6.3553 22.3837 6.32958C21.9791 6.13002 21.6002 5.87786 21.2078 5.65537C21.1236 5.597 21.0244 5.56422 20.922 5.56098C20.9044 5.56456 20.8861 5.56346 20.8691 5.55778C20.852 5.5521 20.8368 5.54204 20.8249 5.52861C20.9014 5.49962 20.9836 5.48843 21.0651 5.49591C21.1467 5.50338 21.2255 5.52932 21.2955 5.57176C21.7202 5.81988 22.1463 6.06664 22.5657 6.32419C22.6522 6.37946 22.7227 6.45652 22.7701 6.54765C22.8174 6.63877 22.8399 6.74075 22.8354 6.84334C22.8354 7.29237 22.8354 7.7414 22.8354 8.19177C22.8365 8.30734 22.8061 8.42103 22.7474 8.52059C22.6887 8.62015 22.604 8.70181 22.5023 8.75677C21.5072 9.35547 20.5125 9.95553 19.5182 10.5569C18.3622 11.2509 17.2057 11.9485 16.0487 12.6497C15.7318 12.8425 15.4042 13.0205 15.1008 13.2349Z" fill="#C97F1F"/>
<path d="M7.92715 13.266C7.37834 12.9464 6.83222 12.6107 6.28206 12.2857C4.34751 11.1413 2.4116 9.99739 0.47435 8.85392C0.351377 8.79143 0.249427 8.69426 0.18112 8.57442C0.112813 8.45458 0.0811487 8.31735 0.0900463 8.1797C0.0994853 7.77517 0.0900463 7.36255 0.0900463 6.95262C0.083327 6.82589 0.113024 6.69988 0.175628 6.58949C0.238232 6.4791 0.331127 6.38893 0.443336 6.32965C0.802919 6.12109 1.15531 5.90669 1.50051 5.68644C1.61862 5.60329 1.75915 5.55789 1.90358 5.5562C2.04801 5.55452 2.18956 5.59663 2.30957 5.677C3.0566 6.12064 3.79285 6.55483 4.53988 6.99308C4.57359 7.0133 4.60596 7.03623 4.63832 7.0578C4.57764 7.13196 4.5264 7.06589 4.4792 7.04162C4.15153 6.87172 3.84679 6.66406 3.52721 6.48202C3.07953 6.22716 2.64263 5.95343 2.19361 5.70262C2.12556 5.6541 2.04329 5.62961 1.95979 5.63303C1.87628 5.63645 1.79629 5.66758 1.73244 5.7215C1.49916 5.88601 1.24161 6.02085 0.990801 6.16244C0.851574 6.26585 0.70306 6.35613 0.547166 6.43213C0.438694 6.4758 0.345075 6.54976 0.277479 6.64518C0.253204 6.68737 0.237601 6.73398 0.231588 6.78228C0.225574 6.83058 0.22927 6.8796 0.242459 6.92645C0.255648 6.9733 0.278064 7.01705 0.308392 7.05512C0.338719 7.09319 0.376346 7.12482 0.419064 7.14815C1.15936 7.58099 1.88886 8.03272 2.6278 8.46826C3.26022 8.83908 3.88454 9.22474 4.51561 9.5969C5.1251 9.95559 5.7292 10.3197 6.33735 10.6757C7.15585 11.1611 7.97435 11.6452 8.7888 12.1374C8.89533 12.2007 9.0059 12.2601 9.11243 12.3234C9.17715 12.3612 9.24727 12.3976 9.23783 12.492C9.13292 12.5924 9.0122 12.6749 8.8805 12.7361C8.61081 12.91 8.32089 13.0678 8.04447 13.2404C8.01075 13.2606 7.97704 13.3024 7.92715 13.266Z" fill="#D59125"/>
<path d="M11.2011 15.5368C10.9732 15.6716 10.744 15.8065 10.5161 15.9413C10.0994 16.1908 9.68413 16.4429 9.26881 16.6924C9.24993 16.7045 9.22836 16.7167 9.25532 16.7423C8.79551 17.0241 8.33704 17.3086 7.87453 17.5878C6.97018 18.1361 6.06403 18.6831 5.15608 19.2288C4.24184 19.7817 3.32626 20.3318 2.41336 20.8874C2.30654 20.9644 2.17892 21.0072 2.04728 21.0104C1.91564 21.0135 1.78613 20.9767 1.67577 20.9049L1.27124 20.6581C1.3036 20.588 1.35754 20.6258 1.3899 20.6487C1.53823 20.7525 1.72566 20.7687 1.87399 20.8887C2.02232 21.0087 2.30144 20.8591 2.32437 20.6393C2.35943 20.3129 2.39584 19.9853 2.40527 19.6576C2.40365 19.5667 2.42691 19.477 2.47254 19.3984C2.51818 19.3197 2.58444 19.255 2.66417 19.2113C2.92442 19.0481 3.18062 18.8782 3.43818 18.7137C4.05711 18.3213 4.67469 17.9276 5.29632 17.5406C5.94896 17.1333 6.6043 16.7315 7.26234 16.3351C7.80171 16.006 8.34108 15.6716 8.8926 15.348C9.01678 15.2889 9.13062 15.2101 9.2297 15.1147C9.46398 14.9619 9.71286 14.8327 9.97269 14.7291C10.1318 14.6684 10.2909 14.7399 10.4433 14.779C10.8061 14.8706 11.148 15.0308 11.4506 15.2509C11.5504 15.3224 11.5531 15.3615 11.4506 15.4249C11.371 15.4694 11.3036 15.5422 11.2011 15.5368Z" fill="#C9801F"/>
<path d="M11.0663 11.1045C10.8666 11.4127 10.6109 11.6807 10.3125 11.8947C10.133 12.0273 9.93833 12.1382 9.73271 12.2251C9.68147 12.1752 9.6963 12.1091 9.69495 12.0498C9.66798 10.7836 9.70304 9.51744 9.71113 8.25125C9.71788 7.21296 9.71113 6.17466 9.71922 5.13772C9.71922 5.11884 9.69226 5.13772 9.70844 5.13772C9.72462 5.13772 9.71653 5.13772 9.71653 5.14851C9.71653 5.65012 9.71653 6.15174 9.71653 6.65336C9.71653 7.11183 9.71653 7.56895 9.71653 8.02741C9.71653 8.06652 9.7435 8.11641 9.68956 8.14473C9.68956 7.54467 9.68956 6.94462 9.68147 6.34457C9.68147 4.84151 9.68147 3.33801 9.68147 1.83405C9.67314 1.70492 9.70215 1.57611 9.76503 1.46302C9.82792 1.34992 9.92202 1.25731 10.0361 1.19624C10.4083 0.973751 10.775 0.74991 11.1472 0.523373C11.2522 0.44974 11.3769 0.409454 11.5051 0.40777C11.6333 0.406086 11.7591 0.443083 11.8659 0.513934C12.2489 0.747213 12.6372 0.968357 13.0188 1.20164C13.1178 1.25952 13.199 1.34348 13.2535 1.44435C13.3587 1.69786 13.3236 1.84888 13.0971 2.00935C12.8815 2.17323 12.6564 2.32407 12.4228 2.46107C12.114 2.62828 12.0466 2.89527 12.0776 3.20271C12.0894 3.4393 12.0827 3.67645 12.0574 3.91199C12.0399 4.26663 12.0412 4.62127 12.0318 4.97591C12.0318 5.15255 12.0197 5.33054 12.0102 5.50719C11.9617 6.41873 12.0008 7.32892 11.9886 8.23912C11.9886 8.56814 11.9779 8.89715 11.9657 9.22482C11.9576 9.47698 12.0035 9.72914 11.9752 9.98264C11.9752 10.0352 11.9752 10.0905 11.928 10.1269C11.9204 10.1298 11.9122 10.1305 11.9043 10.1288C11.8964 10.1271 11.8892 10.1232 11.8835 10.1175C11.8543 10.0072 11.8452 9.89256 11.8565 9.77903C11.8651 9.65108 11.8588 9.52256 11.8376 9.39608C11.8219 9.20007 11.8165 9.00338 11.8214 8.80681C11.8605 8.46566 11.8444 8.1245 11.8538 7.782C11.8956 6.24074 11.8713 4.69948 11.8781 3.15687C11.8781 3.02202 11.905 2.88718 11.9118 2.75908C11.9171 2.7174 11.932 2.67753 11.9554 2.64265C11.9788 2.60777 12.0101 2.57883 12.0466 2.55816C12.3797 2.31275 12.6898 2.03901 13.0229 1.7936C13.2049 1.66685 13.1847 1.48481 13.0202 1.34996C12.6305 1.02229 12.168 0.824074 11.7486 0.548993C11.6846 0.503899 11.6088 0.478365 11.5306 0.475493C11.4523 0.47262 11.3749 0.492533 11.3077 0.532812C11.0739 0.658531 10.8487 0.799523 10.6335 0.954872C10.5518 1.00129 10.4676 1.04315 10.3813 1.08028C10.2289 1.16927 10.1022 1.29333 9.94441 1.38098C9.7435 1.4929 9.76507 1.80573 9.96599 1.95946C10.1669 2.11318 10.4056 2.24532 10.6186 2.3977C10.6738 2.44544 10.7181 2.50443 10.7486 2.57072C10.779 2.63701 10.795 2.70905 10.7953 2.782C10.856 3.36992 10.8735 3.96053 10.9005 4.55115C10.9274 5.14176 10.9665 5.72159 10.98 6.30411C10.9894 6.70864 11.0501 7.11317 11.0663 7.5258C11.0663 7.72536 11.0865 7.92358 11.1027 8.1218C11.1526 8.76501 11.1297 9.41091 11.1283 10.0541C11.1283 10.189 11.1647 10.3238 11.1567 10.4586C11.1566 10.4831 11.1539 10.5076 11.1486 10.5315C11.1286 10.6454 11.1227 10.7613 11.131 10.8767C11.127 10.9657 11.1472 11.0493 11.0663 11.1045Z" fill="#DA9922"/>
<path d="M11.9199 10.1149C11.956 9.90376 11.9619 9.68856 11.9374 9.47575C11.926 9.29615 11.926 9.11599 11.9374 8.93638C11.9374 8.85682 11.9509 8.77052 11.9509 8.68692C11.9509 7.77133 11.9509 6.85574 11.9509 5.94151C11.9509 5.63406 11.9792 5.32527 11.99 5.01918C11.99 4.8277 12.0089 4.63487 12.0035 4.44205C11.9959 4.10597 12.0125 3.76978 12.0534 3.43611C12.0538 3.38288 12.0502 3.32969 12.0426 3.277C12.0305 3.05586 12.0008 2.82932 12.141 2.62975C12.1961 2.56613 12.2624 2.51312 12.3366 2.47333C12.5523 2.32635 12.7681 2.18072 12.9879 2.03913C13.2077 1.89755 13.3492 1.7209 13.2575 1.44043C13.311 1.50061 13.3403 1.57841 13.3398 1.65888V4.9113C13.3273 4.95832 13.324 5.00734 13.3304 5.05558C13.3304 6.66022 13.3223 8.26351 13.3371 9.8668C13.3279 10.1537 13.3342 10.4409 13.356 10.7271C13.3654 10.8107 13.3411 10.8943 13.3425 10.9779C13.3425 11.311 13.3425 11.644 13.3546 11.9771C13.3601 12.0439 13.3532 12.111 13.3344 12.1753C13.325 12.2643 13.2656 12.2441 13.2184 12.2185C12.9418 12.0853 12.6842 11.9157 12.4525 11.7142C12.3204 11.5982 12.2058 11.4633 12.0912 11.3393C12.0296 11.2723 11.9822 11.1936 11.9518 11.1079C11.9215 11.0221 11.9088 10.9311 11.9145 10.8404C11.9171 10.7775 11.9094 10.7146 11.8916 10.6543C11.8808 10.5707 11.8781 10.4862 11.8835 10.4021C11.8943 10.3077 11.8565 10.2066 11.9199 10.1149Z" fill="#C97F1F"/>
<path d="M84.9067 20.6501C84.9067 21.0508 84.7877 21.4423 84.5648 21.7753C84.342 22.1082 84.0253 22.3674 83.6549 22.5201C83.2845 22.6728 82.8772 22.712 82.4844 22.6329C82.0917 22.5537 81.7313 22.3598 81.449 22.0755C81.1667 21.7913 80.9751 21.4296 80.8986 21.0364C80.8221 20.6432 80.8641 20.2361 81.0192 19.8667C81.1744 19.4974 81.4357 19.1824 81.7701 18.9618C82.1045 18.7412 82.4969 18.6248 82.8975 18.6275C83.4316 18.631 83.9426 18.8457 84.319 19.2247C84.6954 19.6036 84.9067 20.116 84.9067 20.6501Z" fill="#0A5186"/>
<path d="M13.3398 16.4795C13.1754 16.3596 13.0033 16.2506 12.8247 16.1532C12.6305 16.0183 12.4202 15.9172 12.2193 15.7958C12.137 15.7473 12.0345 15.7311 11.9725 15.6462C11.9105 15.5612 11.7878 15.5491 11.7028 15.4817C11.6691 15.4547 11.6273 15.4372 11.5909 15.4102C11.5262 15.3603 11.5194 15.3104 11.5909 15.2646C11.9347 15.035 12.3057 14.8489 12.6953 14.7104C12.7455 14.6914 12.7981 14.6796 12.8517 14.6753C12.9141 14.6749 12.9753 14.6922 13.0283 14.7252C13.3951 14.9234 13.7551 15.1297 14.099 15.367C14.4806 15.6232 14.8919 15.8228 15.2721 16.0777C15.7845 16.4202 16.3279 16.7182 16.8525 17.0418C17.2804 17.3034 17.7087 17.5641 18.1375 17.8239C18.4706 18.0248 18.7942 18.2419 19.134 18.4347C19.3956 18.5831 19.6383 18.7665 19.8945 18.9229C20.0596 19.0498 20.2335 19.1647 20.415 19.2667C20.4964 19.2997 20.5666 19.3553 20.6173 19.4271C20.668 19.4988 20.697 19.5835 20.7009 19.6713C20.7306 19.949 20.7346 20.2282 20.7575 20.5059C20.7573 20.5526 20.768 20.5986 20.7889 20.6403C20.8097 20.682 20.8401 20.7182 20.8776 20.746C20.8965 20.7663 20.9212 20.7802 20.9483 20.786C20.9755 20.7917 21.0037 20.7889 21.0293 20.778C21.0548 20.7671 21.0763 20.7486 21.0909 20.725C21.1055 20.7014 21.1125 20.6739 21.1108 20.6462C21.1156 20.6014 21.1156 20.5561 21.1108 20.5113C21.1088 20.2983 21.1196 20.0853 21.1432 19.8735C21.154 19.6739 21.278 19.5108 21.3347 19.3234C21.3441 19.291 21.3832 19.2357 21.4345 19.2964C21.4468 19.4723 21.441 19.649 21.4169 19.8236C21.4061 20.0353 21.3873 20.2457 21.3738 20.4574C21.3701 20.5368 21.3574 20.6155 21.336 20.692C21.3182 20.7683 21.2721 20.835 21.207 20.8785C21.1419 20.9221 21.0627 20.9393 20.9854 20.9266C20.9585 20.9266 20.9328 20.9118 20.9072 20.9266C20.6024 20.7748 20.3066 20.6056 20.0213 20.4196C18.7628 19.6825 17.5042 18.9404 16.2457 18.1934C15.3072 17.6396 14.37 17.0832 13.4342 16.524C13.4054 16.504 13.3735 16.489 13.3398 16.4795Z" fill="#D99623"/>
<path d="M13.3048 12.225C13.3048 9.84371 13.3048 7.46147 13.3048 5.07834C13.3048 5.0217 13.2859 4.96237 13.325 4.91113C13.325 4.96372 13.325 5.01766 13.325 5.07025C13.325 6.67129 13.325 8.27233 13.325 9.87337C13.325 9.90978 13.3048 9.96237 13.3439 9.98125C13.383 10.0001 13.4167 9.95833 13.449 9.9381L18.0337 7.17381L20.5863 5.64333C20.6632 5.59749 20.7481 5.56512 20.829 5.52602C21.0022 5.51826 21.1728 5.57067 21.3118 5.67435C21.5599 5.81998 21.812 5.96291 22.0601 6.10854C22.2399 6.20112 22.4146 6.3033 22.5833 6.41464C22.6249 6.44779 22.6581 6.49014 22.6804 6.53835C22.7028 6.58656 22.7136 6.63931 22.712 6.69241C22.7104 6.74552 22.6965 6.79753 22.6714 6.84434C22.6462 6.89115 22.6106 6.93146 22.5672 6.9621C21.9698 7.33562 21.3684 7.70239 20.7683 8.07186L19.2284 9.01577C18.7484 9.30973 18.2656 9.59829 17.7856 9.8936C17.4094 10.1242 17.0359 10.3629 16.6597 10.5934C16.1203 10.9279 15.5715 11.2582 15.0281 11.5899C14.6411 11.8273 14.2527 12.0646 13.8684 12.306C13.8199 12.337 13.7565 12.3626 13.743 12.4327C13.6257 12.3882 13.6459 12.3424 13.743 12.2857C14.2109 11.9972 14.6761 11.7059 15.1427 11.416L16.8956 10.3224C17.5887 9.89495 18.2832 9.47019 18.9763 9.04139C19.5156 8.70608 20.0573 8.36897 20.6011 8.03006C21.2255 7.64171 21.8484 7.24932 22.4782 6.87041C22.64 6.77197 22.6791 6.64657 22.5712 6.49824C22.5529 6.46337 22.5276 6.43268 22.4968 6.40815C22.4661 6.38361 22.4305 6.36576 22.3924 6.35574C22.3544 6.34571 22.3146 6.34373 22.2758 6.34993C22.2369 6.35612 22.1997 6.37036 22.1667 6.39171C21.8619 6.57375 21.5585 6.75579 21.2524 6.93109C20.7535 7.221 20.2519 7.50283 19.7557 7.79544C19.4617 7.96938 19.1691 8.14333 18.8617 8.29301C18.6553 8.39414 18.4409 8.48044 18.2333 8.58157C17.8773 8.75687 17.5254 8.94026 17.1707 9.12095C17.0763 9.16814 16.9792 9.21264 16.8835 9.25579C16.5895 9.39872 16.2902 9.53357 16.0003 9.68729C15.8331 9.77494 15.7036 9.92327 15.5148 9.98125C15.4889 9.99359 15.4606 9.99999 15.4319 9.99999C15.4032 9.99999 15.3749 9.99359 15.349 9.98125C15.1117 9.83427 14.8595 9.86798 14.602 9.90304C14.3444 9.9381 14.0922 10.0487 13.8199 10.0379C13.65 10.0379 13.5205 10.1579 13.3924 10.259C13.3797 10.2687 13.3702 10.282 13.3652 10.2971C13.3601 10.3123 13.3597 10.3286 13.3641 10.344C13.3924 10.4694 13.3371 10.5988 13.3897 10.7229C13.4248 10.8024 13.356 10.8712 13.3587 10.9535C13.3681 11.2164 13.3587 11.478 13.3587 11.741C13.3915 11.8033 13.4087 11.8727 13.4087 11.9432C13.4087 12.0137 13.3915 12.0831 13.3587 12.1455L13.3317 12.2264C13.3276 12.2289 13.3228 12.2301 13.318 12.2298C13.3132 12.2296 13.3086 12.2279 13.3048 12.225Z" fill="#F2C316"/>
<path d="M43.2399 6.96887C42.6614 6.96887 42.0843 6.96887 41.5058 6.96887C41.4101 6.96887 41.371 6.95673 41.371 6.84347C41.371 5.90136 41.371 4.95745 41.371 4.01175C41.371 3.91197 41.3966 3.8877 41.4964 3.8877C42.6596 3.8877 43.8242 3.8877 44.9902 3.8877C45.0954 3.8877 45.1102 3.92141 45.1102 4.0158C45.1102 4.9597 45.1102 5.90361 45.1102 6.84751C45.1102 6.94864 45.0846 6.97157 44.9848 6.97157C44.3982 6.96617 43.8157 6.96887 43.2399 6.96887Z" fill="#0A5186"/>
<path d="M0.521515 6.40793C0.764233 6.26095 0.993467 6.11397 1.22944 5.96969C1.3509 5.89233 1.47649 5.82165 1.60566 5.75799C1.66571 5.73243 1.72126 5.69737 1.77017 5.65416C1.80878 5.61339 1.86007 5.58693 1.91567 5.57909C1.97127 5.57125 2.02788 5.5825 2.07626 5.61101C2.41067 5.78226 2.73295 5.97643 3.05253 6.17196C3.28176 6.3068 3.51909 6.44164 3.75102 6.57649C4.00048 6.72751 4.25803 6.87854 4.51423 7.02687C4.54794 7.04709 4.583 7.09024 4.63289 7.05788C5.33947 7.47769 6.0456 7.89346 6.75129 8.30518C7.72755 8.88231 8.70337 9.45944 9.67874 10.0366C9.72998 10.0635 9.72728 10.108 9.70571 10.1498C9.69481 10.1698 9.677 10.185 9.65564 10.1927C9.63428 10.2004 9.61084 10.2 9.58974 10.1916C9.50413 10.1678 9.42304 10.13 9.34972 10.0797C9.08003 9.90982 8.81035 9.7507 8.54066 9.59429C8.40242 9.51283 8.25158 9.45495 8.09433 9.42304C8.05382 9.42036 8.01579 9.40255 7.9878 9.37314C7.90959 9.26392 7.77205 9.2383 7.67766 9.14795C7.65013 9.12482 7.61518 9.11238 7.57922 9.11289C7.50806 9.10856 7.43862 9.08926 7.37542 9.05627C7.31222 9.02328 7.25669 8.97733 7.21245 8.92142C7.17874 8.88501 7.14773 8.86074 7.09783 8.87422C7.08435 8.87422 7.06547 8.88366 7.05873 8.87422C6.95625 8.73938 6.78904 8.78792 6.66229 8.73129C6.53554 8.67465 6.54363 8.68005 6.59217 8.5506C6.35215 8.52363 6.13235 8.5506 5.95571 8.72455C5.93155 8.74743 5.90288 8.765 5.87153 8.77615C5.84018 8.7873 5.80685 8.79177 5.77367 8.78927C5.74507 8.78602 5.7163 8.79364 5.69306 8.81063C5.66983 8.82762 5.65384 8.85273 5.64827 8.88096C5.59837 9.02929 5.52151 9.05087 5.36914 8.99963C4.93118 8.83042 4.50924 8.62238 4.10835 8.378C2.99634 7.76671 1.89242 7.13744 0.796596 6.49019C0.70625 6.44704 0.602421 6.47401 0.521515 6.40793Z" fill="#EFBF14"/>
<path d="M0.521458 6.40805C0.758783 6.3703 0.925989 6.53481 1.09994 6.63729C1.81596 7.05261 2.53467 7.46388 3.25743 7.86032C3.4597 7.96954 3.64578 8.10708 3.85209 8.21091C4.14875 8.36194 4.42383 8.53723 4.72858 8.65994C4.80228 8.69831 4.87225 8.74345 4.93758 8.79478C5.10592 8.87221 5.27993 8.93667 5.45808 8.98761C5.55652 9.02806 5.61719 8.9512 5.61854 8.85277C5.61854 8.77725 5.64821 8.75163 5.72237 8.75433C5.82216 8.75433 5.92464 8.77456 5.96105 8.63028C5.97858 8.56555 6.07971 8.59117 6.14039 8.5669C6.27576 8.49845 6.43091 8.47983 6.57863 8.51431C6.61656 8.52119 6.65037 8.54245 6.67302 8.57364C6.65549 8.61275 6.58402 8.59387 6.58133 8.66129C6.67167 8.68826 6.75797 8.75838 6.87259 8.72871C6.88472 8.72871 6.89956 8.72871 6.91169 8.72871C7.01957 8.695 6.99395 8.89322 7.08294 8.84198C7.19621 8.77725 7.19486 8.86625 7.2461 8.91345C7.28656 8.96408 7.33783 9.00501 7.39616 9.03324C7.45449 9.06148 7.51841 9.07629 7.58321 9.07661C7.61288 9.07661 7.65738 9.07661 7.67086 9.09279C7.75716 9.2101 7.91088 9.22763 8.00797 9.33955C8.08348 9.4272 8.2372 9.42315 8.35317 9.4744C8.62809 9.60344 8.89311 9.75263 9.14605 9.92073C9.28089 10.0016 9.41574 10.0771 9.56137 10.154C9.57787 10.1659 9.59768 10.1722 9.618 10.1722C9.63832 10.1722 9.65813 10.1659 9.67464 10.154C9.72318 10.1176 9.69621 10.0744 9.67464 10.0353C9.67464 9.45552 9.67464 8.87614 9.67464 8.29721C9.67464 8.24462 9.67464 8.19203 9.67464 8.1381C9.69196 8.09255 9.69662 8.04315 9.68812 7.99516C9.68812 7.07014 9.68812 6.14556 9.68812 5.22143C9.6836 5.17177 9.69293 5.12182 9.71509 5.07715V12.2239C9.63014 12.2495 9.63284 12.1794 9.62744 12.1335C9.61396 12.0378 9.62744 11.942 9.61935 11.8463C9.61935 11.7802 9.5762 11.7546 9.52901 11.7276C9.04357 11.4499 8.56353 11.1626 8.07809 10.8835C7.51714 10.5509 6.9499 10.2192 6.37636 9.88837C5.88688 9.5998 5.3947 9.31393 4.90522 9.02537C4.41574 8.7368 3.92895 8.47655 3.45026 8.18664C2.83672 7.81717 2.20431 7.48276 1.59212 7.10789C1.30355 6.93664 1.01633 6.75865 0.714285 6.60897C0.657959 6.57152 0.589616 6.5566 0.522807 6.56717C0.486933 6.57209 0.45332 6.58752 0.426204 6.61152C0.399088 6.63552 0.379682 6.667 0.370434 6.70201C0.358178 6.73813 0.35843 6.77732 0.371148 6.81327C0.383867 6.84923 0.408313 6.87986 0.440552 6.90023C0.575396 6.99193 0.710239 7.07553 0.845083 7.15509C1.31434 7.42477 1.77146 7.72008 2.23127 8.00595C2.62097 8.24597 3.01876 8.47386 3.40846 8.71253C4.26067 9.23437 5.11962 9.74813 5.97048 10.27C6.62852 10.6745 7.2906 11.079 7.94864 11.4836C8.38284 11.7533 8.81973 12.0184 9.25932 12.2791C9.31595 12.3115 9.36584 12.3479 9.33483 12.4261C9.31612 12.4383 9.29386 12.4439 9.27161 12.4419C9.24937 12.44 9.22842 12.4306 9.21212 12.4153C8.77388 12.1362 8.3235 11.876 7.87717 11.6063L6.12421 10.5626C5.19918 10.0061 4.27191 9.44877 3.34238 8.89052C2.60749 8.44958 1.86855 8.01404 1.135 7.57041L0.405493 7.13216C0.196485 7.0135 0.157381 6.85708 0.255817 6.62111C0.301663 6.49705 0.420326 6.46199 0.521458 6.40805Z" fill="#F6CA16"/>
<path d="M9.33212 12.4073C9.33056 12.3855 9.32373 12.3645 9.31222 12.3459C9.30071 12.3273 9.28487 12.3119 9.26605 12.3008C9.0058 12.1484 8.74555 11.9974 8.4907 11.8383C8.01605 11.5457 7.5468 11.2477 7.06406 10.9658C6.41411 10.5842 5.78709 10.1676 5.13175 9.79674C4.72722 9.56615 4.33887 9.29377 3.93164 9.06184C3.63903 8.89463 3.36125 8.7045 3.06999 8.5373C2.6277 8.28514 2.2016 8.00601 1.7674 7.74172C1.43838 7.5435 1.10128 7.34528 0.764167 7.14841C0.654944 7.08234 0.544372 7.01357 0.437846 6.9448C0.409256 6.93189 0.383826 6.9129 0.363326 6.88916C0.342827 6.86541 0.327751 6.83748 0.31915 6.80732C0.31055 6.77715 0.308631 6.74547 0.313527 6.71449C0.318423 6.6835 0.330017 6.65396 0.3475 6.62791C0.387074 6.58391 0.439328 6.55327 0.497053 6.54023C0.554779 6.52719 0.615129 6.53238 0.669776 6.5551C1.07431 6.75467 1.44782 6.99873 1.83752 7.21988C2.30273 7.48956 2.77064 7.74577 3.22911 8.02894C3.63364 8.27166 4.04491 8.4955 4.45079 8.73012C4.89847 8.99037 5.34885 9.24792 5.79922 9.51087C6.51659 9.93293 7.22991 10.3604 7.94863 10.7811C8.488 11.098 9.03682 11.4081 9.58293 11.725C9.62309 11.7437 9.65651 11.7743 9.67867 11.8126C9.6099 11.8666 9.54383 11.8261 9.49528 11.7924C8.90332 11.4283 8.29113 11.102 7.69243 10.7514C6.96787 10.3262 6.23791 9.91045 5.50257 9.50413C4.92004 9.18185 4.34022 8.85148 3.7496 8.54134C3.30866 8.30941 2.86907 8.07748 2.44162 7.82263C2.38926 7.78941 2.33189 7.76482 2.27172 7.74981C2.37617 7.83535 2.48758 7.91203 2.60478 7.97905C3.46104 8.49685 4.31055 9.04566 5.1722 9.57559C5.44189 9.73741 5.70214 9.90057 5.95969 10.0759C6.16735 10.2107 6.40197 10.3213 6.60963 10.4656C6.89011 10.6611 7.18946 10.8256 7.47668 11.0117C7.76389 11.1978 8.01605 11.3758 8.28574 11.5403C8.46508 11.6454 8.63498 11.7668 8.80758 11.8855C8.98018 12.0041 9.17166 12.1228 9.36044 12.232C9.42651 12.2711 9.50877 12.3102 9.45888 12.4167L7.84075 13.3849C7.41465 13.6425 6.98989 13.9041 6.56379 14.1616C6.23612 14.3612 5.90575 14.5567 5.57673 14.7549C5.57291 14.7572 5.56864 14.7586 5.56421 14.7591C5.55979 14.7596 5.55531 14.7591 5.55109 14.7577C5.54687 14.7563 5.543 14.754 5.53975 14.7509C5.53649 14.7479 5.53393 14.7442 5.53223 14.7401C5.8235 14.5311 6.14173 14.3625 6.44782 14.1751C6.90764 13.8933 7.37285 13.6169 7.83401 13.3364C7.8631 13.3159 7.89101 13.2939 7.91761 13.2703C8.12527 13.1732 8.31406 13.0397 8.51093 12.9224C8.74555 12.7876 8.98018 12.6392 9.21481 12.4963C9.24313 12.4437 9.29976 12.4451 9.33212 12.4073Z" fill="#F4D928"/>
<path d="M9.25123 15.1351C9.15731 15.2362 9.04405 15.3173 8.91816 15.3738C8.4125 15.6907 7.8974 15.9914 7.38769 16.3015C6.75932 16.6845 6.13499 17.0701 5.50932 17.4558C5.07243 17.7255 4.63418 17.9951 4.19999 18.2648C3.68758 18.5885 3.18192 18.9215 2.67086 19.2465C2.59791 19.2879 2.53771 19.3485 2.49682 19.4217C2.45592 19.4949 2.4359 19.578 2.43893 19.6618C2.43084 19.9962 2.39713 20.336 2.35937 20.665C2.35287 20.7244 2.33037 20.7808 2.29427 20.8283C2.25816 20.8758 2.20982 20.9126 2.15441 20.9347C2.0371 20.9711 1.88472 20.9995 1.78764 20.866C1.70943 20.7594 1.57324 20.8012 1.47885 20.7311C1.41951 20.6893 1.36288 20.6165 1.27119 20.6475C1.01498 20.4978 0.757433 20.3509 0.503927 20.1971C0.407029 20.1422 0.327328 20.0614 0.273744 19.9638C0.220161 19.8661 0.19481 19.7555 0.200529 19.6443C0.200529 19.1818 0.200529 18.7206 0.200529 18.2581C0.200324 18.1694 0.221996 18.082 0.263628 18.0037C0.30526 17.9254 0.365565 17.8585 0.439203 17.8091C0.412234 17.9034 0.316495 17.9614 0.304359 18.0639C0.295936 18.1276 0.30579 18.1923 0.33277 18.2505C0.35975 18.3088 0.402743 18.3582 0.456732 18.3929C0.698102 18.5871 0.952956 18.7449 1.18219 18.9471C1.27629 19.0347 1.37582 19.1162 1.48019 19.1912C1.5219 19.2215 1.55661 19.2605 1.58197 19.3054C1.60732 19.3503 1.62274 19.4001 1.62717 19.4515C1.69055 19.8277 1.78224 20.1998 1.81326 20.5814C1.81169 20.6239 1.82104 20.666 1.8404 20.7037C1.85976 20.7415 1.88848 20.7737 1.92383 20.7972C1.94277 20.8112 1.96487 20.8203 1.98818 20.8237C2.01149 20.8271 2.03527 20.8247 2.05743 20.8167C2.07958 20.8087 2.09941 20.7953 2.11515 20.7778C2.1309 20.7603 2.14207 20.7392 2.14767 20.7163C2.16343 20.6563 2.17247 20.5948 2.17464 20.5329C2.22183 20.1445 2.35398 19.771 2.38769 19.38C2.39774 19.3316 2.41746 19.2857 2.44567 19.2451C2.59041 19.1214 2.75038 19.0168 2.92167 18.9337C3.40711 18.6383 3.8885 18.3376 4.37663 18.0477C4.91601 17.7255 5.45538 17.383 5.99476 17.0593C6.44378 16.7896 6.89146 16.52 7.33105 16.2354C7.5522 16.1006 7.78278 15.9657 8.00527 15.8228C8.04738 15.7984 8.08671 15.7694 8.12259 15.7365C8.14976 15.7086 8.18234 15.6866 8.21832 15.6718C8.37655 15.6017 8.52481 15.511 8.65926 15.4021C8.83414 15.2897 9.01818 15.1923 9.20942 15.1108C9.22564 15.1141 9.24033 15.1227 9.25123 15.1351Z" fill="#D89623"/>
<path d="M20.9179 20.9225C20.9179 20.9225 20.9314 20.909 20.9395 20.9077C21.2766 20.8524 21.3332 20.7729 21.344 20.4196C21.3548 20.0663 21.3939 19.7521 21.4182 19.419C21.4182 19.3705 21.4182 19.3219 21.4182 19.2721C21.4182 19.2222 21.46 19.2046 21.4721 19.1655C21.4984 19.0847 21.5543 19.0168 21.6285 18.9754C21.9414 18.7394 22.2636 18.5156 22.5724 18.2769C22.6749 18.1987 22.8138 18.1272 22.7707 17.9492C22.7608 17.903 22.7389 17.8603 22.7073 17.8252C22.6655 17.7807 22.6061 17.7497 22.5913 17.6836C22.7007 17.7388 22.7917 17.8247 22.853 17.9308C22.9143 18.0369 22.9433 18.1586 22.9365 18.2809C22.9365 18.703 22.9365 19.1237 22.9365 19.5458C22.9434 19.666 22.9169 19.7857 22.86 19.8918C22.8032 19.998 22.7181 20.0863 22.6142 20.1472C22.2164 20.3872 21.82 20.6313 21.4209 20.8686C21.3464 20.9147 21.2626 20.9435 21.1755 20.9529C21.0885 20.9622 21.0004 20.9518 20.9179 20.9225Z" fill="#C9801F"/>
<path d="M15.7103 15.3737C15.8621 15.4186 16.0036 15.4928 16.1269 15.5921C16.5139 15.8254 16.9117 16.0385 17.2974 16.2663C17.7491 16.536 18.2103 16.799 18.666 17.0687C19.374 17.4867 20.0913 17.8912 20.7952 18.316C20.8934 18.394 21.0055 18.4525 21.1256 18.4886C21.1614 18.4935 21.1945 18.5107 21.2191 18.5373C21.2436 18.5638 21.2583 18.5981 21.2604 18.6342C21.2605 18.6792 21.2458 18.7231 21.2185 18.7589C21.1912 18.7947 21.1529 18.8206 21.1094 18.8324C21.063 18.8466 21.0232 18.8767 20.9968 18.9174C20.9704 18.9581 20.9592 19.0068 20.9651 19.0549C20.9704 19.093 20.9632 19.1318 20.9444 19.1654C20.9257 19.199 20.8965 19.2255 20.8613 19.241C20.779 19.2693 20.7264 19.2127 20.6819 19.1574C20.6078 19.0643 20.4824 19.0428 20.4123 18.9524C20.4608 18.9093 20.5026 18.9443 20.5471 18.9646C20.6213 19.0058 20.6897 19.0566 20.7507 19.1156C20.7804 19.1426 20.8195 19.1641 20.8572 19.1318C20.8715 19.1172 20.8807 19.0986 20.8836 19.0785C20.8865 19.0583 20.883 19.0378 20.8734 19.0198C20.8662 19.0012 20.8553 18.9842 20.8414 18.9699C20.8275 18.9555 20.8109 18.9441 20.7925 18.9362C20.2329 18.6355 19.6881 18.3065 19.142 17.9843C18.5959 17.662 18.0363 17.341 17.4835 17.0201C17.0789 16.7828 16.6677 16.5522 16.2577 16.3216C15.9611 16.1544 15.6671 15.9791 15.3664 15.8173C14.8001 15.5112 14.2513 15.1755 13.693 14.8545C13.0934 14.5093 12.5032 14.1498 11.9225 13.7758C11.761 13.6739 11.6151 13.549 11.4897 13.405C11.4812 13.3718 11.4847 13.3368 11.4995 13.306C11.5143 13.2752 11.5394 13.2505 11.5706 13.2364C11.5838 13.233 11.5977 13.233 11.611 13.2364C12.1261 13.3605 12.5549 13.6544 12.9986 13.9268C13.3505 14.1439 13.7119 14.3435 14.0584 14.57C14.4818 14.8397 14.9255 15.0919 15.3556 15.3588C15.8532 15.669 16.3521 15.9751 16.8564 16.2731C17.4025 16.5967 17.9352 16.9352 18.4894 17.2521C18.9708 17.5298 19.4414 17.8238 19.9187 18.107C20.2599 18.3092 20.6024 18.5115 20.9341 18.7232C20.9623 18.7457 20.9981 18.7567 21.0341 18.754C21.0701 18.7512 21.1038 18.7349 21.1283 18.7084C21.1822 18.6571 21.1849 18.5951 21.1067 18.5735C20.9259 18.5127 20.755 18.4254 20.5997 18.3146C19.4441 17.6404 18.2925 16.9662 17.1356 16.292C16.6973 16.0371 16.2645 15.7742 15.833 15.5112C15.779 15.4775 15.713 15.4532 15.7103 15.3737Z" fill="#F5E045"/>
<path d="M15.7102 15.3735C15.9328 15.5326 16.1657 15.6768 16.4074 15.805C16.6312 15.9399 16.8497 16.0747 17.0735 16.2096C17.6129 16.5224 18.1522 16.8312 18.6916 17.1454C19.0962 17.38 19.4912 17.6187 19.8931 17.8546C20.2127 18.0421 20.5363 18.2241 20.8559 18.4129C20.9322 18.4778 21.026 18.5186 21.1255 18.5302C21.1483 18.5326 21.1693 18.5435 21.1843 18.5608C21.1994 18.5781 21.2073 18.6004 21.2065 18.6233C21.2065 18.6907 21.162 18.7271 21.1121 18.7581C21.0852 18.7782 21.0526 18.7891 21.019 18.7891C20.9855 18.7891 20.9528 18.7782 20.926 18.7581C20.6563 18.5639 20.3704 18.4116 20.0913 18.2416C19.7407 18.0272 19.3874 17.8169 19.0341 17.6065C18.5595 17.3247 18.0835 17.0442 17.6102 16.7611C17.1369 16.4779 16.6258 16.1745 16.1363 15.8765C15.7453 15.6392 15.3623 15.3857 14.9659 15.1564C14.707 15.0068 14.44 14.8638 14.1946 14.698C13.755 14.4 13.2884 14.1491 12.8462 13.8619C12.5468 13.6691 12.2245 13.5127 11.9023 13.3468C11.8326 13.3054 11.7526 13.2848 11.6717 13.2875C11.6339 13.2875 11.6002 13.2875 11.5935 13.2349C11.5867 13.1823 11.5935 13.1702 11.6164 13.1459C11.6859 13.137 11.7544 13.1221 11.8213 13.1014C11.8482 13.0903 11.8777 13.0871 11.9064 13.0921C11.935 13.0972 11.9616 13.1102 11.9832 13.1297C12.4416 13.4399 12.9405 13.6839 13.4058 13.9833C13.5986 14.106 13.8035 14.2139 13.9977 14.3352C14.4589 14.6211 14.9201 14.9097 15.3826 15.1942C15.4931 15.2589 15.597 15.3155 15.7102 15.3735Z" fill="#F6ED9F"/>
<path d="M11.495 13.4025C11.5193 13.3904 11.5436 13.3782 11.5638 13.4093C11.7216 13.6547 11.9845 13.7693 12.211 13.9244C12.4807 14.1118 12.7733 14.275 13.0592 14.4435C13.4516 14.6754 13.8507 14.8966 14.2391 15.1366C14.5357 15.3186 14.8472 15.4751 15.1398 15.6652C15.3084 15.7744 15.5012 15.8459 15.6792 15.9349C15.8572 16.0239 15.9988 16.1075 16.1498 16.2046C16.3008 16.3017 16.4964 16.4082 16.673 16.5066C16.8807 16.6226 17.0775 16.7453 17.2892 16.8653C17.6709 17.0878 18.0498 17.317 18.4354 17.5314C18.8817 17.7809 19.32 18.0438 19.7623 18.2987C20.0738 18.478 20.3933 18.6493 20.6981 18.8381C20.7331 18.8566 20.7691 18.8733 20.806 18.888C20.8399 18.8994 20.8691 18.9218 20.8891 18.9515C20.9091 18.9812 20.9187 19.0167 20.9165 19.0525C20.9165 19.0956 20.9246 19.1455 20.8747 19.1698C20.8503 19.1814 20.8227 19.1845 20.7964 19.1786C20.77 19.1728 20.7463 19.1583 20.7291 19.1374C20.6478 19.0374 20.5352 18.9676 20.4095 18.9392L19.0934 18.1423C18.484 17.7741 17.8799 17.4033 17.265 17.0406C16.6865 16.6981 16.1013 16.3664 15.5201 16.0266L14.0031 15.1474C13.8224 15.0126 13.6121 14.9209 13.4219 14.8008C13.1522 14.6282 12.8623 14.4745 12.5926 14.2965C12.3998 14.1698 12.1962 14.0606 11.9926 13.954C11.8534 13.8801 11.7184 13.7986 11.5881 13.71C11.5638 13.6882 11.533 13.6751 11.5005 13.6729C11.468 13.6707 11.4357 13.6795 11.4087 13.6978C11.2496 13.7868 11.0972 13.8853 10.9408 13.9783C10.9008 14.008 10.8548 14.0287 10.806 14.039C10.748 14.0471 10.7345 14.0188 10.7588 13.9689C10.8551 13.8709 10.965 13.7873 11.0851 13.7208C11.2199 13.621 11.3615 13.5198 11.495 13.4025Z" fill="#F6EB8C"/>
<path d="M21.4775 19.1656C21.4775 19.2128 21.4397 19.2357 21.4236 19.2721C21.344 19.3166 21.3683 19.407 21.3332 19.4677C21.1296 19.8277 21.162 20.2201 21.1566 20.6084C21.1599 20.6344 21.1599 20.6607 21.1566 20.6866C21.1534 20.7123 21.144 20.7368 21.1292 20.758C21.1143 20.7791 21.0945 20.7963 21.0715 20.808C21.0485 20.8198 21.0229 20.8256 20.997 20.8252C20.9712 20.8247 20.9459 20.8179 20.9233 20.8053C20.8683 20.7815 20.8212 20.7427 20.7874 20.6933C20.7535 20.6439 20.7342 20.586 20.7318 20.5262C20.7021 20.2093 20.7385 19.8884 20.663 19.5755C20.6475 19.5159 20.6185 19.4606 20.5783 19.4138C20.5381 19.3671 20.4878 19.3302 20.4311 19.3058C20.2963 19.2384 20.1897 19.1454 20.0697 19.0699C19.9187 18.9741 19.7771 18.8636 19.6234 18.7732C19.3537 18.6154 19.1002 18.4455 18.8319 18.2932C18.6484 18.167 18.458 18.0513 18.2615 17.9466C18.079 17.8484 17.9033 17.738 17.7356 17.6163C17.5239 17.4814 17.3014 17.3749 17.0978 17.24C16.8577 17.0796 16.6096 16.9353 16.3642 16.787C15.9246 16.5173 15.4783 16.257 15.0481 15.9779C14.7893 15.8067 14.4966 15.6961 14.2391 15.514C13.9815 15.332 13.6822 15.1648 13.4031 14.9909C13.2682 14.9032 13.1158 14.8371 12.9823 14.7414C12.9414 14.7183 12.894 14.7093 12.8475 14.7158C12.8934 14.6119 12.9743 14.6484 13.043 14.6753C13.1698 14.7239 13.2871 14.7926 13.4098 14.852C13.4624 14.8884 13.5312 14.8992 13.5676 14.9598C13.6107 15.0434 13.7024 15.0569 13.7712 15.0947C14.0409 15.2605 14.3106 15.4358 14.5802 15.599C15.0926 15.9051 15.6091 16.2058 16.1229 16.5092L17.3877 17.2643C18.0147 17.6365 18.6444 18.0046 19.2755 18.3781C19.7272 18.6478 20.1776 18.9175 20.6307 19.1872C20.6649 19.2078 20.6921 19.2383 20.7087 19.2746C20.7253 19.3109 20.7305 19.3514 20.7237 19.3908C20.7164 19.6387 20.7431 19.8864 20.8033 20.127C20.8114 20.1621 20.8141 20.1972 20.8586 20.2214C20.9093 20.0674 20.9352 19.9063 20.9354 19.7441C20.9408 19.6421 20.9408 19.54 20.9354 19.438C20.9324 19.3933 20.9412 19.3487 20.9608 19.3085C20.9805 19.2682 21.0103 19.2339 21.0473 19.2088C21.0784 19.1872 21.1215 19.1521 21.1539 19.1926C21.2833 19.3369 21.3804 19.2627 21.4775 19.1656Z" fill="#E4AB1C"/>
<path d="M13.3627 12.1456V11.741C13.5081 11.6939 13.6447 11.6233 13.7673 11.532C14.2702 11.2421 14.7651 10.9401 15.2654 10.6474C15.7656 10.3548 16.2578 10.0824 16.7487 9.78849C17.0332 9.61859 17.3312 9.477 17.6049 9.28957C17.7847 9.17729 17.9722 9.07771 18.1659 8.99157C18.4007 8.87876 18.629 8.75271 18.8495 8.614C18.8916 8.59448 18.9382 8.58656 18.9844 8.59108C18.989 8.61549 18.9844 8.64076 18.9715 8.66196C18.9585 8.68316 18.9381 8.69875 18.9142 8.7057C18.7374 8.76145 18.5804 8.86731 18.4625 9.01044C18.4275 9.05629 18.3398 9.05899 18.2859 9.09405C17.9919 9.28283 17.7033 9.47835 17.4094 9.66713C17.1869 9.81141 16.959 9.94895 16.7352 10.0892C16.1392 10.46 15.5445 10.8335 14.9471 11.2003C14.6276 11.3972 14.3039 11.5873 13.9871 11.7842C13.8252 11.8853 13.658 11.9797 13.5003 12.0876C13.4627 12.1224 13.414 12.143 13.3627 12.1456Z" fill="#F5DB2C"/>
<path d="M11.9171 10.41V10.6797C11.9292 10.8202 11.9292 10.9614 11.9171 11.1018C11.9171 11.4969 11.9346 11.892 11.9171 12.2871C11.9083 12.4804 11.9124 12.6741 11.9292 12.8669C11.9292 12.9559 11.967 12.9815 12.0452 12.9451C12.1234 12.9087 12.2178 12.8521 12.3014 12.8022C12.5711 12.6404 12.8408 12.4812 13.1105 12.3181C13.1658 12.2857 13.2278 12.2196 13.2925 12.3181C13.2774 12.7236 13.2972 13.1296 13.3518 13.5317C13.3748 13.707 13.3802 13.9065 13.5582 14.0252C13.5137 14.0603 13.4745 14.0373 13.4368 14.0131C13.1455 13.827 12.8448 13.6571 12.5455 13.4845C12.3326 13.3358 12.107 13.2063 11.8713 13.0975C11.8173 13.0786 11.8065 13.0247 11.8011 12.9761C11.7789 12.8537 11.7667 12.7297 11.7647 12.6053C11.7782 12.19 11.7459 11.772 11.7647 11.3566C11.7944 10.878 11.7512 10.3979 11.8106 9.92056C11.809 9.8744 11.8173 9.82843 11.8349 9.78572C11.8366 9.78229 11.8389 9.77925 11.8419 9.77677C11.8448 9.77429 11.8482 9.77243 11.8518 9.77129C11.8555 9.77016 11.8593 9.76978 11.8631 9.77017C11.8669 9.77056 11.8706 9.77173 11.874 9.77358V10.1188C11.9265 10.2118 11.8888 10.313 11.9171 10.41Z" fill="#F5DB2C"/>
<path d="M13.3047 12.3074C13.2413 12.2642 13.1995 12.3074 13.1496 12.3384C12.79 12.5533 12.4304 12.7663 12.0709 12.9776C12.0331 12.9991 11.9913 13.045 11.936 13.0018C11.9144 12.9828 11.8995 12.9573 11.8935 12.9292C11.8874 12.901 11.8905 12.8717 11.9023 12.8454C11.9105 12.8248 11.9151 12.8029 11.9158 12.7807C11.8565 12.2103 11.9158 11.6386 11.8942 11.0682C11.896 10.937 11.9046 10.8061 11.9198 10.6758C11.9497 10.731 11.9583 10.7953 11.9441 10.8565C11.9293 11.079 12.0479 11.2367 12.1801 11.3958C12.487 11.7542 12.8716 12.0378 13.3047 12.2251H13.3343C13.3492 12.24 13.3775 12.2481 13.3613 12.2777C13.35 12.2767 13.3387 12.279 13.3287 12.2843C13.3186 12.2895 13.3103 12.2976 13.3047 12.3074Z" fill="#F6CC16"/>
<path d="M13.5743 14.9516C13.5161 14.9357 13.4619 14.9077 13.4152 14.8693C13.0525 14.6536 12.6857 14.4486 12.323 14.2342C12.1005 14.0994 11.878 13.974 11.6609 13.8297C11.6097 13.7945 11.5491 13.7757 11.487 13.7757C11.4249 13.7757 11.3642 13.7945 11.313 13.8297C11.1242 13.9376 10.9462 14.063 10.7602 14.1735C10.3934 14.3906 10.032 14.6145 9.66657 14.8329C9.50746 14.9287 9.35508 15.0365 9.19597 15.1323L8.65659 15.4262C8.50826 15.5206 8.3532 15.6042 8.20217 15.6959L8.12531 15.7485C7.59537 16.0735 7.06544 16.3957 6.52741 16.7045C6.44246 16.7531 6.36695 16.8165 6.27795 16.8596C6.23076 16.8839 6.17412 16.923 6.14311 16.8596C6.1353 16.8458 6.1306 16.8304 6.12934 16.8146C6.12808 16.7988 6.13029 16.7828 6.13581 16.7679C6.14133 16.7531 6.15003 16.7395 6.1613 16.7284C6.17258 16.7172 6.18616 16.7086 6.20109 16.7032C6.3656 16.625 6.51528 16.5198 6.67304 16.4335C7.10185 16.1908 7.52526 15.9359 7.94597 15.6797C8.7348 15.197 9.52768 14.7237 10.3084 14.2302C10.4328 14.1444 10.5615 14.0652 10.6941 13.9928C10.7049 13.985 10.7178 13.9809 10.7312 13.9809C10.7445 13.9809 10.7574 13.985 10.7682 13.9928C10.7507 14.0387 10.7682 14.0535 10.806 14.0265L11.1242 13.8378C11.2348 13.773 11.3454 13.7097 11.4546 13.6422C11.4964 13.6153 11.5166 13.6422 11.5463 13.6611C11.7077 13.776 11.8776 13.8783 12.0547 13.9672C12.261 14.0764 12.4592 14.2032 12.6574 14.3205C12.8246 14.4189 12.9959 14.5133 13.1563 14.6199C13.4354 14.8059 13.7523 14.9313 13.9991 15.1592C13.8521 15.1039 13.7348 14.9866 13.5743 14.9516Z" fill="#F8E667"/>
<path d="M11.8686 9.77114C11.8308 10.1959 11.8551 10.622 11.8362 11.0468C11.8227 11.3313 11.8362 11.6118 11.8362 11.8936C11.8434 12.0955 11.8384 12.2977 11.8214 12.499C11.8152 12.6486 11.8224 12.7984 11.843 12.9467C11.843 13.0182 11.8807 13.0573 11.9643 13.0896C12.1202 13.1641 12.2695 13.2516 12.4106 13.3512C12.7774 13.571 13.1428 13.7922 13.5096 14.0106C13.5303 14.0187 13.5522 14.0233 13.5743 14.0241C13.6651 14.1073 13.7673 14.1773 13.8777 14.2318C13.9296 14.2553 13.9733 14.2938 14.0031 14.3423C13.9116 14.3276 13.8261 14.2874 13.7564 14.2264C13.159 13.8636 12.5428 13.536 11.9562 13.1476C11.9375 13.1323 11.9146 13.1231 11.8905 13.1211C11.8664 13.1192 11.8423 13.1247 11.8214 13.1368C11.762 13.1657 11.695 13.1752 11.6299 13.1638C11.6163 13.1381 11.6079 13.11 11.6054 13.081C11.6028 13.0521 11.6061 13.0229 11.6151 12.9953C11.6772 12.6265 11.7011 12.2524 11.6865 11.8787C11.6865 10.5586 11.7378 9.23851 11.7216 7.91839C11.7216 7.58938 11.7216 7.26036 11.7216 6.93134C11.7184 6.87806 11.722 6.82458 11.7324 6.77222C11.7432 6.72773 11.758 6.67514 11.8106 6.67783C11.8632 6.68053 11.878 6.73177 11.8821 6.77627C11.8882 6.86606 11.8882 6.95617 11.8821 7.04596C11.8564 7.50308 11.8753 7.96154 11.8713 8.41866C11.8524 8.5411 11.8524 8.6657 11.8713 8.78814V9.39898C11.8896 9.52242 11.8887 9.64798 11.8686 9.77114Z" fill="#F5E45E"/>
<path d="M18.9951 8.59672C18.9951 8.58458 18.9951 8.5684 19.0032 8.55896C19.0342 8.51986 19.0693 8.48615 19.1232 8.50772C19.1299 8.51235 19.1353 8.51864 19.1388 8.52596C19.1424 8.53329 19.144 8.5414 19.1435 8.54952C19.1259 8.60616 19.076 8.59402 19.0342 8.59672H18.9951Z" fill="#F5DB2C"/>
<path d="M13.3627 12.2786L13.3358 12.2261C13.4328 12.2126 13.4854 12.2706 13.5529 12.3717L13.3627 12.2786Z" fill="#F5DB2C"/>
<path d="M10.7723 13.9876C10.5174 14.1225 10.2868 14.2924 10.0401 14.4366C9.42248 14.798 8.82647 15.1877 8.20484 15.5491C7.86638 15.7473 7.53062 15.9631 7.19756 16.1599C6.86449 16.3568 6.55705 16.5645 6.21455 16.729C6.19324 16.7385 6.17649 16.7559 6.16792 16.7776C6.15935 16.7993 6.15963 16.8235 6.1687 16.8449C6.19432 16.8975 6.23208 16.8449 6.26444 16.8315C6.76201 16.5362 7.25824 16.2368 7.75986 15.9482C7.8729 15.863 7.99843 15.7956 8.13202 15.7487C8.01225 15.8651 7.87593 15.9633 7.72749 16.0399C7.08429 16.4445 6.43165 16.8342 5.7817 17.2306L4.03817 18.2918L2.47669 19.2479C2.44972 19.2667 2.44567 19.318 2.39578 19.2991C2.30409 19.3328 2.24341 19.3274 2.20026 19.2168C2.15711 19.1063 2.04249 19.0928 1.97102 19.2168C1.96752 19.2252 1.96347 19.2333 1.95889 19.2411C1.83079 19.4326 1.79842 19.4326 1.66762 19.2411C1.61999 19.1553 1.5519 19.0826 1.4694 19.0294C1.42475 18.9959 1.3925 18.9484 1.37771 18.8946C1.36153 18.8582 1.33726 18.8191 1.37771 18.784C1.41816 18.7489 1.44378 18.7759 1.4775 18.784C1.51121 18.7921 1.56514 18.8379 1.59211 18.7732C1.61908 18.7085 1.56784 18.691 1.52604 18.6761C1.24826 18.575 1.05544 18.3242 0.760128 18.25C0.633375 18.2177 0.596967 18.1071 0.590225 17.9911C0.590225 17.9264 0.622588 17.8886 0.696752 17.8846C0.825508 17.8951 0.949886 17.9362 1.05948 18.0046C1.28737 18.1017 1.51121 18.2109 1.7337 18.3147C1.77794 18.3362 1.8272 18.3452 1.87616 18.3406C1.92512 18.3361 1.97191 18.3183 2.01148 18.2891C2.2368 18.1303 2.48036 17.999 2.73693 17.8981C2.83427 17.8401 2.92672 17.7742 3.01336 17.7012C3.08079 17.6594 3.14821 17.619 3.21833 17.5839C3.45983 17.4698 3.69481 17.3424 3.92221 17.2023C3.933 17.1942 3.94244 17.1807 3.95457 17.1794C4.25662 17.147 4.44405 16.8935 4.70969 16.791C4.80004 16.756 4.88634 16.7155 4.97938 16.6777C5.02704 16.663 5.07243 16.6416 5.11422 16.6144C5.3475 16.4391 5.63742 16.3568 5.8653 16.1883C6.03386 16.0642 6.21994 15.9631 6.39524 15.8552C6.57587 15.7279 6.76716 15.6165 6.96698 15.5221C7.13488 15.4437 7.29174 15.3435 7.43353 15.2241C7.57332 15.1218 7.72917 15.0434 7.8947 14.9922C8.00662 14.9544 8.08078 14.8574 8.19405 14.8061C8.37474 14.7333 8.51228 14.5863 8.69971 14.5135C8.84665 14.4432 8.98286 14.3524 9.10424 14.2438C9.18293 14.1862 9.26745 14.1369 9.3564 14.0968C9.38742 14.1548 9.33752 14.1737 9.30516 14.1966C9.23355 14.2459 9.16468 14.299 9.09885 14.3557C8.74961 14.5823 8.39901 14.8088 8.04437 15.03C7.79626 15.1846 7.5477 15.3392 7.29869 15.4938C6.92113 15.7257 6.53952 15.9523 6.16331 16.1856C5.94082 16.3204 5.71293 16.4553 5.48909 16.5901C5.07242 16.8355 4.65576 17.0823 4.23639 17.3223C3.7159 17.6216 3.21428 17.948 2.68569 18.2325C2.51034 18.318 2.33974 18.413 2.17464 18.517L2.00743 18.5952C1.96024 18.6168 1.91978 18.6478 1.92518 18.7044C1.92756 18.729 1.93662 18.7523 1.95135 18.7721C1.96609 18.7918 1.98595 18.8071 2.00878 18.8164C2.04359 18.8367 2.0836 18.8464 2.12387 18.8442C2.16413 18.8421 2.20287 18.8282 2.23532 18.8042C2.53411 18.5855 2.84619 18.3855 3.16978 18.2055C3.66196 17.8954 4.16358 17.6028 4.65306 17.294C5.17086 16.9677 5.6981 16.6535 6.21859 16.3312C6.82 15.9604 7.43219 15.6084 8.02684 15.2295C8.4125 14.9828 8.80759 14.7535 9.19324 14.5095L10.0711 13.9566C10.2992 13.8301 10.519 13.6891 10.7291 13.5345C10.8984 13.425 11.0793 13.3345 11.2685 13.2649C11.3278 13.25 11.3952 13.2649 11.4492 13.2257C11.491 13.2082 11.5328 13.1786 11.5665 13.2379C11.5382 13.2905 11.4883 13.3323 11.4883 13.3997C11.4397 13.5345 11.317 13.5858 11.2186 13.6694C11.0797 13.78 10.9246 13.8811 10.7723 13.9876Z" fill="#F4D722"/>
<path d="M9.46574 12.4069C9.46687 12.3732 9.4573 12.3401 9.4384 12.3122C9.4195 12.2844 9.39225 12.2632 9.36056 12.2518C9.03805 12.0695 8.72689 11.8677 8.4288 11.6477C8.33036 11.5803 8.22248 11.5291 8.1227 11.4643C7.911 11.3295 7.69525 11.1947 7.49163 11.0504C7.23543 10.8697 6.95226 10.7362 6.7001 10.5501C6.50729 10.4024 6.29774 10.2779 6.07578 10.1793C5.96735 10.1217 5.86405 10.0549 5.76698 9.97971C5.18985 9.62013 4.61093 9.26055 4.0302 8.90096L2.90426 8.20382C2.69795 8.06898 2.49298 7.94492 2.28802 7.81278C2.24341 7.78412 2.20529 7.74646 2.1761 7.7022C2.20386 7.69153 2.23385 7.68803 2.26332 7.69204C2.29278 7.69605 2.32076 7.70743 2.34466 7.72513C2.70424 7.9202 3.06382 8.11797 3.4234 8.31844C3.73624 8.49374 4.05987 8.64881 4.36731 8.8268C5.0213 9.20032 5.68473 9.55765 6.34142 9.92577C6.68122 10.1159 7.01564 10.3168 7.35274 10.511C7.79368 10.7645 8.23732 11.014 8.6796 11.2675C8.94929 11.4239 9.21898 11.5817 9.48866 11.7435C9.54132 11.7846 9.60664 11.806 9.6734 11.8041V12.1305C9.6734 12.1723 9.66261 12.2222 9.72599 12.2316C9.66396 12.3246 9.54665 12.3395 9.46574 12.4069Z" fill="#F5DE38"/>
<path d="M11.4641 13.242C11.425 13.335 11.3428 13.2784 11.2808 13.2946C11.2565 13.2487 11.363 13.2244 11.3064 13.184C11.2782 13.1697 11.2465 13.1637 11.2151 13.1665C11.1836 13.1694 11.1536 13.1811 11.1284 13.2002C10.9113 13.3215 10.7009 13.455 10.4852 13.5764C10.1251 13.7787 9.78669 14.0173 9.41587 14.1994C9.35519 14.229 9.30395 14.2735 9.24462 14.3018C9.18529 14.3302 9.15023 14.3774 9.08685 14.3329C9.15697 14.2277 9.29586 14.2061 9.35654 14.0955H9.38081C9.606 13.8811 9.89457 13.7665 10.1535 13.6047C10.4555 13.4186 10.7603 13.2366 11.0623 13.0492C11.0851 13.0353 11.1035 13.0153 11.1155 12.9914C11.1274 12.9676 11.1323 12.9409 11.1297 12.9143C11.1297 12.2495 11.1459 11.5834 11.1189 10.9173C11.1104 10.7711 11.114 10.6246 11.1297 10.479C11.1378 10.3442 11.1041 10.2093 11.1189 10.0745C11.1338 9.90863 11.1378 9.74198 11.1311 9.57558C11.1311 9.54457 11.1311 9.5122 11.1311 9.48119C11.1311 9.37871 11.1311 9.27623 11.1311 9.1751C11.1333 9.15875 11.1365 9.14254 11.1405 9.12655C11.1583 9.00742 11.1646 8.88686 11.1594 8.76652C11.1594 8.13006 11.1594 7.49405 11.1594 6.85848C11.1594 6.69397 11.1918 6.53081 11.1823 6.36631C11.1473 5.77165 11.1742 5.17968 11.1473 4.58637C11.1257 4.03486 11.1473 3.4847 11.1297 2.93319C11.1341 2.87568 11.1267 2.81789 11.1082 2.76329C11.0863 2.72413 11.0783 2.67875 11.0854 2.63447C11.0925 2.59019 11.1143 2.54959 11.1473 2.51922C11.1725 2.49662 11.2048 2.48335 11.2386 2.48164C11.2725 2.47992 11.3059 2.48985 11.3333 2.50978C11.3805 2.53021 11.4195 2.56591 11.444 2.61116C11.4684 2.6564 11.477 2.70856 11.4682 2.75924C11.444 2.85856 11.4318 2.96042 11.4318 3.06264C11.4318 3.1422 11.4318 3.2231 11.4318 3.30266C11.4507 4.36523 11.4318 5.42914 11.3954 6.49036C11.336 8.16512 11.359 9.84122 11.359 11.516C11.3507 11.9561 11.366 12.3963 11.4048 12.8347C11.4326 12.9692 11.4524 13.1052 11.4641 13.242Z" fill="#F4E980"/>
<path d="M11.1472 10.4909C11.1863 11.2999 11.1741 12.0996 11.1755 12.9032C11.18 12.9443 11.171 12.9858 11.1498 13.0213C11.1287 13.0569 11.0965 13.0845 11.0582 13.1001C10.8087 13.2511 10.5566 13.3995 10.3098 13.5559C10.063 13.7123 9.8338 13.8471 9.58704 13.9739C9.51557 14.0103 9.47377 14.0899 9.38612 14.0939C9.61671 13.8512 9.64502 13.5329 9.70705 13.2282C9.7378 12.9683 9.74637 12.7062 9.73267 12.4448C9.73267 12.3005 9.78391 12.2695 9.90662 12.3409C10.1884 12.5041 10.4703 12.6659 10.7507 12.8331C10.8263 12.8776 10.9139 12.8682 10.9894 12.9046C11.0231 12.9208 11.0407 12.9046 11.0393 12.8655C11.0272 12.4272 11.0717 11.9863 11.0177 11.5481C11.0081 11.5136 11.0081 11.4773 11.0177 11.4429C11.0609 11.3356 11.0758 11.2191 11.0609 11.1044C11.0831 11.0357 11.0927 10.9635 11.0892 10.8914C11.1256 10.7781 11.0784 10.6581 11.1148 10.5435V10.4922C11.1283 10.4801 11.1377 10.4787 11.1472 10.4909Z" fill="#F6E03E"/>
<path d="M2.39185 19.2989L2.47276 19.2477C2.38106 19.4432 2.40129 19.6617 2.35005 19.8653C2.27511 20.1242 2.22544 20.3897 2.20172 20.6582C2.20395 20.712 2.18502 20.7646 2.14898 20.8047C2.11295 20.8447 2.06267 20.8691 2.00889 20.8726C1.94661 20.8652 1.88907 20.8356 1.84675 20.7893C1.80442 20.7431 1.78013 20.6831 1.77831 20.6204C1.76214 20.4182 1.73513 20.217 1.6974 20.0177C1.661 19.8275 1.62459 19.6374 1.59088 19.4459C1.58841 19.3992 1.57491 19.3536 1.55147 19.3131C1.52803 19.2725 1.49533 19.2381 1.45604 19.2126C1.33543 19.1364 1.2245 19.0459 1.12567 18.943C0.920706 18.7758 0.709002 18.6193 0.494601 18.4751C0.330092 18.3631 0.265367 18.2162 0.313911 18.0786C0.329491 18.1595 0.362223 18.2362 0.409905 18.3034C0.457586 18.3706 0.519111 18.4269 0.59034 18.4683C0.892389 18.685 1.19219 18.9039 1.48975 19.125C1.67448 19.2598 1.69201 19.454 1.72842 19.6468C1.7446 19.7385 1.76483 19.8289 1.78101 19.9165C1.78775 19.9597 1.80393 20.0028 1.84708 20.0042C1.89023 20.0055 1.89023 19.9543 1.89697 19.9219C1.92799 19.8068 1.94297 19.6879 1.94147 19.5686C1.93734 19.5236 1.93961 19.4782 1.94821 19.4338C1.98597 19.2666 2.07227 19.2288 2.2179 19.3354C2.30016 19.4001 2.346 19.3879 2.39185 19.2989Z" fill="#E5AE1B"/>
<path d="M9.19594 15.134C9.33691 15.0018 9.49415 14.8881 9.66385 14.7956C9.8769 14.6607 10.094 14.534 10.3084 14.4045C10.5673 14.2467 10.8248 14.089 11.0837 13.9339C11.1781 13.8773 11.2712 13.8193 11.3669 13.7667C11.4108 13.7427 11.4607 13.7321 11.5106 13.7362C11.5604 13.7403 11.608 13.7588 11.6474 13.7896C12.1688 14.1016 12.6897 14.4162 13.2102 14.7335C13.2817 14.7767 13.372 14.7915 13.4125 14.8765C13.2912 14.8258 13.1736 14.7668 13.0606 14.6998C12.9904 14.6688 12.9257 14.6418 12.8542 14.6998C12.5089 14.7903 12.1799 14.9345 11.8793 15.1273C11.7979 15.1877 11.7102 15.2393 11.6177 15.281C11.5544 15.3026 11.5368 15.3322 11.6096 15.374C11.7243 15.4401 11.8362 15.5089 11.9481 15.5817C11.9683 15.5938 12.0034 15.6033 11.9724 15.6383H11.9481C11.9198 15.6073 11.8847 15.5803 11.8443 15.5952C11.8038 15.61 11.8146 15.6639 11.8146 15.7004C11.8146 16.1399 11.8348 16.5795 11.8146 17.0164C11.7782 17.6569 11.8254 18.2961 11.7876 18.9339C11.7593 19.4274 11.7876 19.9196 11.7661 20.4172C11.7323 21.1143 11.758 21.8115 11.7364 22.5086C11.7162 23.168 11.7148 23.826 11.7148 24.4854C11.7148 24.8805 11.6717 25.2742 11.6865 25.6693C11.6865 25.8622 11.6433 25.9188 11.495 25.9201C11.317 25.9201 11.2361 25.8446 11.2348 25.6612C11.2348 25.3848 11.2469 25.1084 11.2348 24.8347C11.1984 24.2346 11.2348 23.6345 11.2065 23.0372C11.1754 22.3144 11.2065 21.593 11.1822 20.8716C11.1471 19.7349 11.1822 18.5968 11.1498 17.4601C11.1363 16.9059 11.1498 16.3503 11.1296 15.7961C11.1218 15.7027 11.1514 15.6101 11.2118 15.5385C11.2941 15.4873 11.3764 15.4347 11.4613 15.3875C11.5179 15.3552 11.5382 15.3376 11.4613 15.2904C11.1683 15.0844 10.8435 14.9277 10.4999 14.8266C10.365 14.7902 10.2302 14.7672 10.0859 14.7403C10.0185 14.7369 9.95203 14.7564 9.89713 14.7956C9.68138 14.9048 9.46832 15.0221 9.25527 15.1367L9.19594 15.134Z" fill="#F6CA15"/>
<path d="M9.33223 12.4071C9.32009 12.4664 9.25941 12.4583 9.22435 12.4866C9.1839 12.3329 9.03018 12.314 8.92231 12.248C8.42743 11.9459 7.92311 11.6574 7.42824 11.354C6.83897 10.9993 6.23892 10.6541 5.64561 10.3035C4.97948 9.90799 4.31335 9.512 3.64723 9.11556C2.85704 8.64226 2.06821 8.17166 1.27803 7.69431C0.977326 7.51362 0.68067 7.32753 0.371879 7.16437C0.289388 7.10463 0.231907 7.01649 0.210498 6.91692C0.189089 6.81734 0.205265 6.71337 0.255913 6.625C0.255913 6.65601 0.245126 6.68568 0.238384 6.71535C0.197931 6.90278 0.224899 6.98503 0.38806 7.08751C0.899117 7.39091 1.40478 7.68757 1.91314 7.99636C2.4669 8.32897 3.02155 8.66159 3.57711 8.9942L5.84787 10.3521C6.33736 10.646 6.82549 10.944 7.31632 11.238C7.8476 11.558 8.38023 11.8754 8.91422 12.19C9.05041 12.2722 9.16502 12.3896 9.33223 12.4071Z" fill="#EFBF14"/>
<path d="M11.4641 13.2417C11.4058 13.1541 11.3744 13.0515 11.3737 12.9464C11.3537 12.8241 11.3411 12.7007 11.336 12.5769C11.2915 10.9588 11.309 9.34065 11.3117 7.72253C11.3117 7.4407 11.3373 7.16023 11.3522 6.87976C11.3764 6.42938 11.3522 5.9763 11.3643 5.53132C11.3886 4.67372 11.3859 3.81611 11.3872 2.95851C11.3871 2.90122 11.3995 2.8446 11.4236 2.79265C11.4394 2.76263 11.444 2.72797 11.4366 2.69487C11.4292 2.66177 11.4103 2.63238 11.3832 2.61196C11.3238 2.55667 11.2605 2.4906 11.1755 2.54184C11.0906 2.59308 11.1108 2.67668 11.1458 2.75624C11.1681 2.80996 11.1773 2.86818 11.1728 2.92614C11.1728 3.36169 11.1593 3.79858 11.1728 4.23278C11.1971 4.76136 11.1836 5.28995 11.1957 5.81854C11.22 6.90672 11.1769 7.99491 11.1957 9.08175C11.1983 9.09727 11.1977 9.11315 11.194 9.12844C11.1903 9.14373 11.1835 9.15812 11.1742 9.17075C11.1147 9.04474 11.0923 8.90447 11.1094 8.76622C11.073 7.83849 11.0973 6.90942 11.0717 5.9817C11.0447 4.96902 11.0622 3.95905 11.0541 2.94233C11.0602 2.88073 11.0478 2.81872 11.0185 2.76421C10.9892 2.70969 10.9444 2.66513 10.8896 2.63623C10.775 2.5742 10.6968 2.46498 10.5849 2.39891C10.3362 2.27359 10.1023 2.1207 9.88775 1.94313C9.65178 1.73952 9.76505 1.3269 10.0347 1.29184C10.1156 1.2797 10.1305 1.19206 10.1912 1.157C10.3125 1.08553 10.4433 1.02215 10.5579 0.949338C10.7481 0.822585 10.949 0.710665 11.1364 0.579867C11.4061 0.392435 11.5409 0.382996 11.8268 0.550202C12.1302 0.730892 12.4349 0.908885 12.7397 1.08958C12.8745 1.16644 12.9676 1.28105 13.097 1.35926C13.1309 1.3863 13.158 1.42084 13.1762 1.46016C13.1944 1.49948 13.2032 1.54249 13.2018 1.5858C13.2005 1.6291 13.1892 1.67151 13.1686 1.70966C13.1481 1.74781 13.119 1.78065 13.0835 1.80559C12.7437 2.06719 12.4044 2.32969 12.0655 2.59308C12.0265 2.62143 11.9949 2.65881 11.9736 2.70203C11.9522 2.74524 11.9416 2.79299 11.9428 2.84119C11.8929 4.23278 11.9428 5.62301 11.9131 7.02134C11.9023 7.49599 11.9131 7.96525 11.8915 8.44529C11.8915 8.55991 11.8619 8.67317 11.8673 8.78914C11.8255 8.74329 11.843 8.68801 11.843 8.63677V6.85009C11.854 6.79598 11.8444 6.7397 11.816 6.69232C11.7432 6.74761 11.7621 6.82717 11.7621 6.88785C11.7621 7.83175 11.781 8.77565 11.7621 9.71956C11.7445 10.4666 11.7621 11.2123 11.7365 11.958C11.7203 12.3625 11.7445 12.7738 11.6407 13.1716L11.6084 13.2484C11.5998 13.2477 11.5913 13.2477 11.5827 13.2484C11.5369 13.2161 11.5005 13.2403 11.4641 13.2417Z" fill="#F6CC16"/>
<path d="M10.5849 2.4043C10.759 2.49044 10.922 2.59729 11.0704 2.72253C11.1135 2.75219 11.0933 2.81422 11.0933 2.85737C11.0933 3.70554 11.0731 4.5537 11.0933 5.40052C11.127 6.51702 11.1027 7.63218 11.1149 8.74868C11.1149 8.88353 11.1796 9.01837 11.1688 9.15321C11.1276 9.25576 11.1276 9.37025 11.1688 9.47279V9.55505C11.1378 9.7236 11.1809 9.89485 11.1472 10.0634C11.1472 10.1983 11.1472 10.3452 11.1472 10.4868H11.1203C11.0677 9.83148 11.1203 9.17344 11.0865 8.5181C11.0888 8.28463 11.0675 8.05153 11.0232 7.82231C11.013 7.68316 11.013 7.54345 11.0232 7.40429C10.9814 6.86492 10.9369 6.32555 10.9315 5.77538C10.9315 5.45311 10.8978 5.13083 10.8843 4.80856C10.8614 4.25705 10.8357 3.70419 10.802 3.15268C10.7912 2.98682 10.7481 2.82231 10.7508 2.65376C10.7427 2.53779 10.6362 2.4906 10.5849 2.4043Z" fill="#F6CA16"/>
<path d="M11.8686 9.77086V9.396C11.8977 9.51871 11.9055 9.64552 11.8915 9.77086H11.8686Z" fill="#F6CC16"/>
<path d="M11.1202 10.5435C11.1067 10.6594 11.1499 10.7794 11.0946 10.8914C11.1067 10.7767 11.0636 10.654 11.1202 10.5435Z" fill="#F6CA16"/>
<path d="M11.9172 10.4102C11.8686 10.3158 11.905 10.2146 11.8956 10.1162H11.9199C11.9185 10.216 11.9185 10.3131 11.9172 10.4102Z" fill="#F6CC16"/>
<path d="M7.07354 9.38525C7.09511 9.39334 7.11264 9.40548 7.1059 9.4311C7.10329 9.44384 7.09606 9.45516 7.08561 9.46287C7.07515 9.47059 7.0622 9.47417 7.04926 9.4729C7.04376 9.47319 7.03827 9.47213 7.03328 9.46982C7.02828 9.4675 7.02393 9.46399 7.0206 9.4596C7.01728 9.45521 7.01508 9.45007 7.0142 9.44463C7.01332 9.43919 7.01378 9.43362 7.01555 9.4284C7.02095 9.39874 7.04791 9.39334 7.07354 9.38525Z" fill="#EFBF14"/>
<path d="M8.20895 15.696C8.34508 15.5824 8.49849 15.4914 8.66338 15.4263C8.53044 15.5443 8.37621 15.6358 8.20895 15.696Z" fill="#F4D722"/>
<path d="M9.08673 14.3327C9.24166 14.2706 9.38986 14.1929 9.52902 14.1008C9.77309 13.9659 10.0064 13.8162 10.2464 13.6746C10.5296 13.5061 10.8141 13.3416 11.0986 13.1744C11.1379 13.1465 11.1853 13.1323 11.2334 13.1339C11.2874 13.1339 11.3602 13.111 11.3791 13.1906C11.398 13.2701 11.3063 13.2526 11.2793 13.2944L10.7399 13.5641C10.2316 13.858 9.73398 14.1736 9.22832 14.4743C8.57972 14.8586 7.93787 15.2577 7.29601 15.6541C6.91171 15.8928 6.53415 16.1409 6.14984 16.3783C5.72508 16.6385 5.30302 16.9015 4.87827 17.159C4.38339 17.4611 3.89391 17.7752 3.39499 18.0719C3.09564 18.2499 2.80707 18.4495 2.49693 18.6113C2.41183 18.6588 2.33301 18.7168 2.2623 18.7839C2.22343 18.8207 2.17331 18.8434 2.11999 18.8482C2.06668 18.8531 2.01327 18.84 1.96834 18.8108C1.94785 18.7992 1.931 18.7821 1.9197 18.7614C1.90839 18.7408 1.90307 18.7173 1.90433 18.6938C1.90559 18.6703 1.91338 18.6476 1.92683 18.6282C1.94028 18.6089 1.95886 18.5937 1.98048 18.5843C2.23938 18.5034 2.44165 18.3267 2.67762 18.2081C2.98372 18.026 3.29386 17.8481 3.59725 17.662C4.06921 17.3721 4.55195 17.101 5.02525 16.8152C5.38258 16.5994 5.74936 16.3971 6.10399 16.1814C6.36559 16.0263 6.62045 15.8591 6.87934 15.6986C7.2178 15.491 7.55356 15.286 7.89607 15.0757C8.23857 14.8653 8.59186 14.6361 8.93571 14.4109C8.98965 14.3772 9.04358 14.3623 9.08673 14.3327Z" fill="#F6ED9D"/>
<path d="M2.6845 18.205C2.49532 18.3687 2.27715 18.4953 2.04129 18.5786C1.99005 18.5961 1.95095 18.619 1.94151 18.673C1.93207 18.7269 1.93342 18.766 1.98466 18.7862C2.05882 18.8145 2.14512 18.859 2.2112 18.7862C2.36756 18.655 2.53861 18.5423 2.72091 18.4505C3.05352 18.241 3.38748 18.0333 3.72279 17.8275C4.13676 17.5713 4.54804 17.3124 4.9647 17.0629C5.35575 16.8296 5.73196 16.5748 6.1284 16.3523C6.39809 16.2013 6.64081 16.0084 6.90105 15.8439C7.1613 15.6794 7.44043 15.5338 7.70202 15.3625C7.89081 15.2398 8.08363 15.1252 8.27511 15.0079C8.7565 14.7113 9.24059 14.4227 9.72468 14.1328C9.99436 13.9683 10.2762 13.8024 10.554 13.6406C10.6108 13.6015 10.6751 13.5744 10.7427 13.561C10.609 13.6614 10.4679 13.7515 10.3207 13.8307C10.1589 13.9399 9.97953 14.0235 9.82986 14.1436C9.67814 14.2556 9.51912 14.3574 9.35386 14.4483C8.98573 14.6694 8.61222 14.8839 8.25354 15.1225C7.62921 15.5271 6.98331 15.9033 6.35089 16.2997C5.57959 16.7838 4.80019 17.2544 4.02215 17.729C3.78482 17.8733 3.53266 17.9987 3.30478 18.1525C2.96228 18.3871 2.57797 18.557 2.25974 18.8267C2.21525 18.8608 2.16074 18.8793 2.10467 18.8793C2.0486 18.8793 1.9941 18.8608 1.9496 18.8267C1.92746 18.8131 1.90944 18.7937 1.89749 18.7706C1.88554 18.7476 1.8801 18.7217 1.88176 18.6957C1.88343 18.6698 1.89213 18.6448 1.90693 18.6234C1.92174 18.6021 1.94208 18.5852 1.96578 18.5745C2.18263 18.4757 2.39177 18.3607 2.59146 18.2307C2.62123 18.2181 2.65251 18.2095 2.6845 18.205Z" fill="#F5E564"/>
<path d="M2.22993 19.1316C2.22993 19.0588 2.25824 18.9847 2.31758 18.9698C2.56434 18.9091 2.75312 18.7419 2.96617 18.6206C3.38014 18.3859 3.79411 18.1527 4.19864 17.9032C4.63554 17.6335 5.08052 17.3773 5.52415 17.1171C5.62026 17.048 5.72498 16.9918 5.83564 16.9499C5.86666 16.9418 5.90576 16.9 5.92599 16.9499C5.94621 16.9998 5.89767 17.0119 5.86801 17.0267C5.67653 17.1306 5.50123 17.2587 5.31784 17.3733C4.96725 17.5944 4.61396 17.8115 4.26067 18.0286C3.90738 18.2457 3.5932 18.4439 3.25744 18.6489C3.04079 18.781 2.82324 18.9127 2.60479 19.044C2.53337 19.0888 2.46925 19.1443 2.41466 19.2085C2.38365 19.2436 2.3405 19.2854 2.28926 19.2543C2.27028 19.2401 2.25499 19.2216 2.24466 19.2002C2.23434 19.1789 2.22929 19.1553 2.22993 19.1316Z" fill="#F6E55F"/>
<path d="M1.88478 19.1816C1.88478 19.2383 1.88478 19.3003 1.80657 19.2949C1.70948 19.2868 1.68251 19.2045 1.67173 19.1236C1.66094 19.0427 1.70679 19.0279 1.77151 19.0346C1.8632 19.0414 1.89017 19.0994 1.88478 19.1816Z" fill="#F6E87D"/>
<path d="M1.80928 18.8892C1.76511 18.901 1.71861 18.901 1.67444 18.8892C1.72972 18.7948 1.73377 18.7948 1.80928 18.8892Z" fill="#F6CA16"/>
<path d="M11.1715 9.47681C11.1346 9.43174 11.1144 9.37527 11.1144 9.31702C11.1144 9.25876 11.1346 9.2023 11.1715 9.15723V9.47681Z" fill="#F6CC16"/>
<path d="M11.1471 10.0679C11.1579 9.89803 11.1175 9.72678 11.1687 9.55957C11.1811 9.72929 11.1739 9.89987 11.1471 10.0679Z" fill="#F6CC16"/>
<path d="M11.7406 5.66504C11.6934 5.62189 11.7082 5.5747 11.7082 5.5302C11.7082 5.33468 11.7082 5.13916 11.7082 4.94363C11.6947 4.31256 11.6759 3.68284 11.6786 3.05582C11.6786 2.93446 11.6529 2.81041 11.6529 2.68635C11.6506 2.65824 11.6572 2.6301 11.6717 2.60591C11.6862 2.58173 11.7079 2.5627 11.7338 2.55151C11.7558 2.54098 11.7803 2.53729 11.8044 2.54089C11.8284 2.5445 11.8508 2.55524 11.8687 2.57173C11.9159 2.61623 11.893 2.67152 11.8687 2.72006C11.8026 2.87378 11.8404 3.03694 11.8255 3.19471C11.8013 3.44822 11.8121 3.70577 11.8107 3.96197C11.8107 4.25998 11.8215 4.55933 11.8107 4.85598C11.7986 5.09061 11.7864 5.32524 11.7878 5.55987C11.789 5.57991 11.7854 5.59995 11.7771 5.61827C11.7689 5.63659 11.7564 5.65264 11.7406 5.66504Z" fill="#F5E24E"/>
<path d="M11.5113 2.32633C11.4196 2.32633 11.3603 2.29262 11.3589 2.19148C11.3576 2.09035 11.4344 2.05664 11.5194 2.05664C11.6043 2.05664 11.6798 2.09305 11.6771 2.19148C11.6744 2.28992 11.6057 2.32633 11.5113 2.32633Z" fill="#F6EA87"/>
</svg>
