<svg width="111" height="25" viewBox="0 0 111 25" fill="none" xmlns="http://www.w3.org/2000/svg">
<path d="M0.133789 24.4139H12.094C14.8024 24.4139 17.5906 24.5822 20.0674 23.259C23.8683 21.2284 26.2013 13.5952 20.5506 12.2431C21.5802 11.7579 22.5481 11.4011 23.2326 10.4174C24.8314 8.11994 24.5782 3.38683 22.3623 1.57885C21.0886 0.539586 19.4609 0.326109 17.8928 0.173242C14.632 -0.144659 11.2644 0.0722259 7.98642 0.0722259H4.60375C4.25171 0.0722259 3.34769 0.0796783 3.34769 0.0796783C3.34769 0.0796783 3.10866 1.47212 3.05309 1.89786C2.85194 3.43917 2.59384 4.97914 2.41045 6.52277C1.70105 12.4922 0.881962 18.4497 0.133789 24.4139V24.4139ZM28.2825 0.0722303L27.4368 6.76619H35.531L35.7526 6.7662L29.2489 10.144L26.8712 11.5603L26.3308 15.2858L25.2622 24.4139H31.1819L33.4654 24.4194L33.7071 22.71L34.3229 18.0851L35.7526 6.7662L36.6488 0.0556337L33.7189 0.0722399H28.2825V0.0722303ZM35.8935 24.4139L43.3913 24.4216L44.9618 11.7639L46.6364 14.6849L50.0623 21.1355L51.8041 24.4194L53.9018 24.4217H59.3382C60.3635 16.2822 61.2753 8.21284 62.3584 0.0800503L54.8606 0.0723689L53.2901 12.8517C51.5394 10.1774 50.1547 7.07534 48.7291 4.21045C48.1657 3.0782 46.7821 0.0830545 46.7821 0.0830545C46.7821 0.0830545 45.4256 0.072382 44.9542 0.072382H40.7259C40.285 0.072382 38.9862 0.0936805 38.9862 0.0936805C38.9862 0.0936805 38.736 2.0545 38.6534 2.74995L35.8935 24.4139ZM86.7544 10.4174H76.2439C76.7261 11.5839 77.3887 12.7242 78.0048 13.8253C78.2672 14.2943 78.9278 15.2526 78.9278 15.2526C78.9278 15.2526 77.9982 16.5999 77.5727 16.9483C75.3867 18.738 71.9957 17.2326 70.7288 15.0424C69.1189 12.259 70.4824 8.37334 73.4653 7.1879C75.0134 6.57267 76.7911 6.76618 78.4185 6.76618H87.2376L88.0833 0.0722259H77.5728C75.3655 0.0722259 73.071 -0.115569 70.9283 0.525101C62.3713 3.08365 59.6915 14.6076 65.7442 21.0042C68.8246 24.2597 72.693 24.4139 76.848 24.4139H82.8885C83.3639 24.4139 84.9206 24.4032 84.9206 24.4032C84.9206 24.4032 85.3334 21.521 85.4582 20.6409C85.9393 17.2489 86.1333 13.7858 86.7544 10.4174V10.4174ZM87.2376 24.4139H102.218H106.084L107.611 24.4041L107.929 22.5883L108.5 17.8417L95.6943 17.72L95.9359 15.5292H106.567L107.413 8.83525H96.7816L97.0232 6.76621L109.95 6.6445L110.675 0.193961L95.6943 0.0722539H91.9492L90.3221 0.0778192L90.103 1.89787L89.5143 6.52278L87.2376 24.4139ZM9.55695 9.56548C9.66245 8.88062 10.2127 6.05425 10.2127 6.05425C10.2127 6.05425 11.2082 6.03594 11.6107 6.03594C12.8474 6.03594 14.6409 5.79525 15.6404 6.70112C16.867 7.81281 15.8852 9.30843 14.631 9.51193C13.9984 9.61465 13.3367 9.56548 12.698 9.56548H9.55695ZM8.40494 18.6936C8.52926 17.88 8.97773 14.6115 8.97773 14.6115C8.97773 14.6115 10.6619 14.585 11.158 14.585C12.5194 14.585 14.0448 14.4081 15.2505 15.1852C17.1426 16.3474 15.6154 18.3123 14.1477 18.5956C13.4311 18.734 12.6996 18.6936 11.9731 18.6936H8.40494Z" fill="url(#paint0_linear)"/>
<defs>
<linearGradient id="paint0_linear" x1="1.27285" y1="11.7649" x2="106.205" y2="11.8506" gradientUnits="userSpaceOnUse">
<stop stop-color="#2173FA"/>
<stop offset="0.138789" stop-color="#3241DE"/>
<stop offset="0.356093" stop-color="#5117BF"/>
<stop offset="0.429494" stop-color="#6911AC"/>
<stop offset="0.546877" stop-color="#92078B"/>
<stop offset="0.628296" stop-color="#A90178"/>
<stop offset="0.721225" stop-color="#C00057"/>
<stop offset="0.804277" stop-color="#CF0541"/>
<stop offset="0.88898" stop-color="#DB363A"/>
<stop offset="1" stop-color="#EB7531"/>
</linearGradient>
</defs>
</svg>
