<svg width="91" height="69" viewBox="0 0 91 69" fill="none" xmlns="http://www.w3.org/2000/svg">
<path d="M90.6736 0H0V68.0052H90.6736V0Z" fill="black"/>
<path d="M27.4798 11.334H11.3342V56.6708H27.4798L34.0026 50.148V37.1306L30.88 34.0081L34.0026 30.8855V17.8568L27.4798 11.334ZM18.1347 30.6021V18.1345H24.6575L27.2021 20.679V28.0633L24.6575 30.6021H18.1347ZM24.6575 37.4026L27.2021 39.9472V47.3314L24.6575 49.8759H18.1347V37.4083" fill="white"/>
<path d="M80.1895 56.6708L74.5564 35.6572L79.3394 30.8741V17.8568L72.8166 11.334H56.671V56.6708H63.4715V37.4026H68.2262L73.389 56.6708H80.1895ZM63.4715 18.1345H69.9944L72.5389 20.679V28.0633L69.9944 30.6078H63.4715V18.1345Z" fill="white"/>
<path d="M39.6697 35.6623V43.6756L51.0039 32.3414V24.3281L39.6697 35.6623Z" fill="white"/>
</svg>
