<svg width="114" height="52" viewBox="0 0 114 52" fill="none" xmlns="http://www.w3.org/2000/svg">
<path d="M105.855 46.4431C105.345 46.4431 104.888 46.4431 104.48 46.3922C103.615 46.3417 102.749 46.2907 101.884 46.2907C101.324 46.2907 101.324 46.2907 101.273 45.7321L100.458 36.4863L99.6441 28.8157L99.0842 24.0913L98.5749 19.9767L97.6584 13.5758C97.353 11.2901 96.9969 9.05489 96.5387 6.76868C96.4876 6.41339 96.4876 6.36241 96.8953 6.31144C98.4732 6.00661 100.102 5.85419 101.731 5.85419H102.291C102.546 5.90517 102.698 6.05759 102.749 6.36241L102.953 9.86742L104.378 28.8157L105.091 37.5022L105.549 42.4809L105.855 46.4431ZM43.4417 5.85419H44.3581C44.8163 5.85419 44.918 6.00661 44.918 6.46385L45.3256 12.6109L46.2421 25.3611L46.8019 32.0158L47.2091 37.1469L48.0239 45.9859C48.0239 46.3922 47.9728 46.4431 47.5656 46.4431L43.8999 46.2907C43.6455 46.3417 43.4928 46.1893 43.4928 45.9349L43.34 44.1569C43.1873 42.6333 43.0346 41.1092 42.9329 39.5346L42.1181 31.5081L41.2528 24.2438L40.6418 19.1132L39.9803 14.4393C39.6748 12.3565 39.3182 10.2232 38.9622 8.1404L38.7073 6.71822C38.6567 6.46385 38.7073 6.36241 38.9622 6.31144C40.3874 6.05759 41.7621 5.80374 43.4417 5.85419ZM94.6553 26.3266C95.9277 26.3266 96.0805 26.3776 96.2843 27.5963C96.5387 29.1205 96.7425 30.6446 96.8953 32.1682L97.4551 37.096L98.5243 47.5605C98.5749 47.8149 98.5243 47.9163 98.2694 47.9163L94.2987 48.3736C93.8916 48.424 93.7894 48.3736 93.7388 47.9673L91.4477 36.2834L90.0225 28.5108L89.8187 27.4439C89.7681 27.2411 89.8698 27.0886 90.0736 27.0377C91.6516 26.6824 93.179 26.428 94.6553 26.3266ZM36.7728 26.3266C38.1474 26.2756 38.3002 26.428 38.4529 27.6983C38.8095 29.7811 39.0639 31.813 39.2677 33.8958L39.9292 39.9913L40.3363 44.1065L40.6929 47.4081C40.6929 47.8653 40.6418 47.9673 40.2347 48.0177L36.4678 48.3736C36.0601 48.424 35.9585 48.3736 35.9074 47.9673L32.8021 32.0158L31.9878 27.4949C31.9367 27.2411 32.0384 27.0886 32.2933 27.0377C33.8712 26.6824 35.3475 26.428 36.7728 26.3266ZM56.2197 42.0741V48.3736V48.5764C56.2708 48.8813 56.118 49.0337 55.8125 48.9832H54.5906C53.7253 48.9832 52.8599 49.0337 51.9946 49.0846C51.5364 49.1356 51.4853 49.1356 51.4342 48.5764L50.6199 39.4326L50.2128 34.9117L49.6018 28.0031C49.5507 27.4439 49.6529 27.3425 50.1106 27.2915C51.5364 27.1391 52.9616 27.1391 54.3873 27.1901L55.456 27.3425C55.8636 27.4949 55.9142 27.5459 55.9142 27.9521L56.0669 30.6951L56.118 33.7434C56.1691 36.5373 56.2197 39.2802 56.2197 42.0741ZM114 42.3789V48.3226V48.6274C114 48.8813 113.898 49.0337 113.643 48.9832H111.811C111.098 48.9832 110.385 49.0337 109.724 49.0846C109.317 49.1356 109.266 49.0846 109.215 48.6274L108.146 36.7401L107.585 30.8475L107.382 27.8507C107.331 27.4439 107.433 27.3425 107.84 27.3425C109.52 27.1391 111.251 27.0886 112.931 27.2915C113.593 27.3425 113.695 27.5459 113.746 28.206L113.898 34.9622L114 42.3789ZM93.179 15.5062C93.6877 15.5062 94.146 15.5572 94.5025 15.6077C94.7569 15.6586 94.8586 15.7601 94.9097 16.0144L95.5712 23.0754C95.7239 23.6851 95.6223 23.7865 95.0113 23.7865L93.2806 23.8879C92.924 23.9389 92.7713 23.9899 92.7713 23.4312L92.0587 17.6905L91.8554 16.0649C91.8043 15.7601 91.906 15.6077 92.2114 15.5572L93.179 15.5062ZM35.5003 15.5062C35.9074 15.5062 36.3151 15.5572 36.6711 15.6077C36.8749 15.6586 36.9766 15.7601 37.0277 16.0144L37.231 17.7924L37.7403 23.3293C37.7914 23.7355 37.7914 23.7865 37.3837 23.7865L35.3986 23.8879C34.9915 23.9389 34.9404 23.8879 34.8893 23.4817L34.4311 19.418L34.024 16.0144C33.9729 15.7601 34.0751 15.6077 34.3294 15.6077C34.686 15.5572 35.0931 15.5062 35.5003 15.5062ZM55.8125 20.5863V24.0913C55.8636 24.65 55.7614 24.65 55.3032 24.65C54.6417 24.65 54.0307 24.5996 53.4198 24.5486C53.0127 24.4976 52.9616 24.4976 53.0127 24.0913L52.8599 19.7733C52.8599 18.8083 52.8599 17.8429 52.8088 16.8779C52.7583 16.4207 52.8088 16.3697 53.2671 16.3697C53.9797 16.3697 54.6923 16.4207 55.4054 16.5221C55.8125 16.5221 55.8125 16.6241 55.8125 17.0304V20.5863ZM113.643 20.6368V24.1423C113.643 24.5996 113.593 24.65 113.135 24.65L111.2 24.5486C110.895 24.4976 110.742 24.3452 110.793 24.0913L110.64 16.827C110.64 16.4207 110.691 16.3697 111.098 16.3697C111.76 16.3697 112.371 16.4207 112.982 16.4717C113.746 16.5221 113.643 16.6746 113.643 17.2332V20.6368ZM33.9223 23.3802C33.9729 23.9899 33.9223 24.0913 33.3114 24.1423L32.0894 24.4471C31.6823 24.5996 31.6312 24.4976 31.5807 24.1423L30.3077 16.9794C30.1549 16.5221 30.2566 16.4207 30.7148 16.3697L32.4966 16.0649C32.9042 16.0144 33.0059 16.0144 33.0059 16.4207C33.1586 17.2842 33.3114 18.1477 33.413 19.0112L33.9223 23.0754V23.3802ZM88.088 16.4207C88.8517 16.2683 89.6659 16.1668 90.4807 16.0649C90.7351 16.0144 90.8368 16.1669 90.8879 16.4207L91.295 19.2146C91.4988 20.5863 91.6516 21.9575 91.7027 23.3293V23.7355C91.7532 23.9389 91.6516 24.0913 91.4477 24.1423L89.8187 24.4976C89.5643 24.5486 89.4626 24.4471 89.4116 24.1928L88.088 16.6241V16.4207ZM51.9435 21.9071C51.9435 22.7196 51.8924 23.4817 51.8418 24.1928C51.8418 24.4471 51.7397 24.5486 51.4853 24.5996L49.9073 24.752C49.6529 24.8024 49.5507 24.65 49.5507 24.3962C49.4491 23.6341 49.398 22.923 49.3474 22.1609C49.2453 20.7892 49.1436 19.367 49.0925 17.9448L48.9909 16.9289C48.9398 16.7255 49.042 16.6241 49.2453 16.6241L51.3325 16.4717C51.6891 16.4717 51.7907 16.5221 51.7907 16.9289L51.9435 21.9071ZM109.673 21.094C109.724 22.0595 109.724 23.0754 109.673 24.0404C109.724 24.4976 109.622 24.5996 109.164 24.5996L107.738 24.752C107.484 24.8024 107.331 24.65 107.331 24.3962C107.28 23.1264 107.178 21.8056 107.077 20.5354L106.873 16.9794C106.822 16.7255 106.924 16.6241 107.127 16.6241L109.164 16.4717C109.52 16.4717 109.571 16.5221 109.571 16.9289C109.673 18.3001 109.724 19.7228 109.673 21.094ZM31.9367 38.4167C32.7515 39.3822 32.9042 40.4485 32.5477 41.6169C32.2422 42.7347 31.6823 43.6997 30.8675 44.5127C29.544 45.8845 28.0171 47.0018 26.337 47.8653C23.4354 49.3895 20.4317 50.4564 17.2242 51.015C14.9336 51.4723 12.6425 51.7771 10.352 51.9295C9.63935 51.98 8.92674 51.98 8.21361 51.98H6.68674C6.27909 51.98 6.17743 51.8786 6.12635 51.4723L5.7703 46.5446L4.80278 36.8421L3.73413 27.5963L3.12317 22.6692L2.46112 17.9448C2.10508 15.3538 1.64686 12.7633 1.18864 10.1722C0.832077 8.08943 0.476032 6.00661 0.0178141 3.92431C-0.0332728 3.66994 0.017814 3.46707 0.272206 3.41609L7.34826 0.469764C7.80648 0.266372 8.21361 0.113958 8.67183 0.0125223C8.97731 -0.0384558 9.13005 0.0635003 9.07896 0.368328C9.07896 1.18086 9.07896 1.9939 9.0284 2.85741L8.97731 3.51753C8.92675 6.46385 8.92675 9.41018 8.97731 12.4075C9.0284 14.9985 9.18114 17.64 9.33388 20.2305C9.58827 24.2947 9.9954 28.3584 10.4031 32.3716C10.4031 32.7779 10.4536 32.7779 10.9118 32.7274C11.7772 32.575 12.592 32.5241 13.4573 32.5241C16.1555 32.5241 18.8532 32.8289 21.4498 33.489C23.7404 34.0482 25.9298 34.8103 28.1187 35.7752C29.1879 36.2834 30.1549 36.8926 31.0714 37.6042C31.4279 37.858 31.6823 38.1119 31.9367 38.4167ZM89.3099 37.9595C90.3791 38.823 90.7351 39.9913 90.4296 41.363C90.1753 42.4809 89.666 43.4458 88.9023 44.3093C87.6809 45.6811 86.2551 46.748 84.6772 47.6115C81.6229 49.288 78.3648 50.4564 74.9029 51.066C73.0194 51.4213 71.1355 51.7261 69.252 51.8786C68.1829 51.98 67.012 52.031 65.8412 51.98H64.4666C64.1616 52.031 64.0089 51.8786 64.0089 51.5737C63.9067 50.1515 63.805 48.7288 63.6523 47.3067L62.8375 38.6201L61.9722 31.0509L60.9035 22.5167C60.7508 21.0436 60.5469 19.5194 60.2925 18.0463L59.3761 12.3565C58.969 9.66455 58.4597 6.97207 57.8998 4.27959L57.8487 3.92431C57.7471 3.66994 57.8487 3.46707 58.1031 3.41609C60.598 2.40017 63.0413 1.28229 65.5357 0.31735C66.1978 0.0635003 67.012 -0.241328 66.9615 0.368328C66.7576 2.24775 66.8087 4.12718 66.7576 5.95615C66.7066 7.47977 66.7066 9.00391 66.8087 10.4771V11.6454C66.8087 13.4744 66.8593 15.3033 67.012 17.0808C67.1142 19.4685 67.267 21.9071 67.4703 24.2947L67.9285 29.4253C67.9796 30.3903 68.0812 31.3047 68.234 32.2702C68.234 32.8289 68.3356 32.7779 68.7938 32.7274C69.7103 32.575 70.6267 32.5241 71.5431 32.5241C74.7501 32.575 77.8555 33.0827 80.9098 33.9462C82.997 34.5054 84.9826 35.267 86.9172 36.2834C87.7825 36.7401 88.5462 37.2993 89.3099 37.9595ZM15.6973 46.9004C16.461 46.4431 17.7846 45.5287 19.6169 44.1065C21.4498 42.6333 22.5696 41.6679 23.0278 41.1602C20.279 39.9408 17.428 38.8739 14.4754 37.909L15.6973 46.9004ZM80.7065 41.414C80.8592 41.2616 80.8081 41.1602 80.6554 41.0582L79.4334 40.5505C77.2956 39.636 75.1573 38.823 72.9684 38.1119L72.6629 38.0104C72.5612 37.9595 72.4596 38.0104 72.3068 38.0614L73.5282 46.8494C73.681 46.8494 73.7831 46.7984 73.8337 46.748C75.8193 45.3253 77.8044 43.8521 79.79 42.2775L80.7065 41.414Z" fill="#07A3D7"/>
</svg>
