<svg width="132" height="31" viewBox="0 0 132 31" fill="none" xmlns="http://www.w3.org/2000/svg">
<g clip-path="url(#clip0)">
<path d="M3.51287 3.41074H6.38077C9.00191 3.41074 10.157 4.23277 10.157 5.90258C10.157 7.35368 9.00191 8.33898 6.68339 8.33898H3.51287V3.41074ZM0.0392761 19.8295H7.06827C10.7622 19.8295 14.4562 18.5198 14.4562 14.304C14.4562 11.8122 12.6959 9.89922 10.2428 9.62244V9.56482C12.2499 8.96805 13.6341 7.51739 13.6341 5.32764C13.6341 1.79681 10.5977 0.457031 7.64757 0.457031H0.0392761V19.8295ZM3.51287 11.2927H6.8479C9.6595 11.2927 10.9874 12.0051 10.9874 14.0316C10.9874 16.5728 8.50046 16.8758 6.70935 16.8758H3.51287V11.2927Z" fill="#010101"/>
<path fill-rule="evenodd" clip-rule="evenodd" d="M20.0331 0V19.8295H16.7341V0H20.0331Z" fill="#010101"/>
<path d="M25.5555 13.2633C25.5555 11.2111 27.0176 9.32472 29.4444 9.32472C31.8711 9.32472 33.3288 11.2115 33.3288 13.2633C33.3288 15.3151 31.8711 17.2023 29.4444 17.2023C27.0176 17.2023 25.5555 15.3155 25.5555 13.2633ZM22.2465 13.2633C22.2465 17.3953 25.4429 20.156 29.4444 20.156C33.441 20.156 36.6423 17.3957 36.6423 13.2633C36.6423 9.13089 33.441 6.36621 29.4444 6.36621C25.4429 6.36621 22.2465 9.13133 22.2465 13.2633Z" fill="#010101"/>
<path d="M41.4434 13.2629C41.4434 11.2106 42.9055 9.32429 45.3322 9.32429C47.7589 9.32429 49.2166 11.2111 49.2166 13.2629C49.2166 15.3147 47.7589 17.2019 45.3322 17.2019C42.9055 17.2019 41.4434 15.3151 41.4434 13.2629ZM38.1343 13.2629C38.1343 17.3948 41.3312 20.1556 45.3322 20.1556C49.3288 20.1556 52.5301 17.3953 52.5301 13.2629C52.5301 9.13046 49.3292 6.36621 45.3322 6.36621C41.3312 6.36577 38.1343 9.13089 38.1343 13.2629Z" fill="#010101"/>
<path d="M54.5456 6.69473H57.6901V8.74914H57.742C58.3218 7.51719 59.589 6.36426 61.7949 6.36426C63.8368 6.36426 65.247 7.15616 65.9345 8.80065C66.8991 7.13477 68.3049 6.36426 70.286 6.36426C73.8155 6.36426 75.0577 8.85828 75.0577 12.0054V19.8297H71.7486V12.3874C71.7486 10.7472 71.2555 9.32408 69.2959 9.32408C67.2285 9.32408 66.454 11.0196 66.454 12.7135V19.8293H63.1493V12.0049C63.1493 10.3862 62.4873 9.32408 60.8871 9.32408C58.7111 9.32408 57.8547 10.9061 57.8547 12.6598V19.8293H54.5456V6.69473Z" fill="#010101"/>
<path d="M88.7141 13.2633C88.7141 15.3177 87.2564 17.2023 84.8253 17.2023C82.3981 17.2023 80.9364 15.3177 80.9364 13.2633C80.9364 11.2111 82.3981 9.31995 84.8253 9.31995C87.2559 9.31995 88.7141 11.2111 88.7141 13.2633ZM77.7395 19.8295H80.8841V17.8607H80.936C81.9046 19.4427 83.6394 20.1556 85.4903 20.1556C89.5652 20.1556 92.0223 17.146 92.0223 13.2629C92.0223 9.37758 89.4011 6.36624 85.6249 6.36624C83.1459 6.36624 81.8184 7.51262 81.1304 8.36696H81.0482V0H77.7391V19.8295H77.7395Z" fill="#010101"/>
<path d="M96.8286 11.9493C97.0754 10.0581 98.2907 8.82836 100.246 8.82836C102.314 8.82836 103.581 10.0328 103.611 11.9493H96.8286ZM106.92 14.4114V13.5099C106.92 8.93794 104.411 6.36621 100.717 6.36621C96.7116 6.36621 93.5191 9.13089 93.5191 13.2629C93.5191 17.3948 96.7116 20.1556 100.717 20.1556C102.806 20.1556 104.77 19.4174 106.31 17.5323L103.939 15.7573C103.113 16.7644 102.036 17.5323 100.384 17.5323C98.5371 17.5323 97.0442 16.3541 96.8282 14.4114H106.92Z" fill="#010101"/>
<path d="M109.074 6.69473H112.383V8.7749H112.44C113.158 7.2701 114.615 6.36426 116.354 6.36426C116.769 6.36426 117.154 6.44808 117.539 6.5594V9.73226C116.99 9.59693 116.462 9.48735 115.938 9.48735C112.824 9.48735 112.383 12.0888 112.383 12.8017V19.8297H109.074V6.69473H109.074Z" fill="#010101"/>
<path d="M124.941 9.32408C127.337 9.32408 128.855 10.9061 128.855 13.1832C128.855 15.3686 127.367 17.0384 124.914 17.0384C122.682 17.0384 121.025 15.3149 121.025 13.2347C121.026 10.9061 122.622 9.32408 124.941 9.32408ZM128.855 6.69473V8.66532H128.803C127.835 7.07671 126.096 6.36426 124.249 6.36426C120.17 6.36426 117.717 9.37559 117.717 13.2631C117.717 16.9808 120.338 19.9925 124.305 19.9925C125.962 19.9925 127.67 19.3657 128.639 18.08H128.687V19.0395C128.687 21.6366 127.7 23.4444 124.499 23.4444C122.652 23.4444 121.272 22.7572 119.949 21.5467L117.968 24.2336C119.836 25.8821 122.072 26.3976 124.529 26.3976C129.686 26.3976 132 23.3841 132 18.6528V6.69473H128.855Z" fill="#010101"/>
<path d="M1.87293 25.5863H0V24.3115H5.19521V25.5863H3.31744V30.8367H1.87293V25.5863Z" fill="#010101"/>
<path d="M6.41055 24.3115H10.8747V25.6421H7.85946V26.8614H10.7102V28.1837H7.85946V29.51H11.0432V30.8323H6.41055V24.3115Z" fill="#010101"/>
<path d="M12.7776 24.3115H14.2269V29.51H16.9043V30.8323H12.7776V24.3115Z" fill="#010101"/>
<path d="M18.2802 24.3115H22.744V25.6421H19.7291V26.8614H22.5755V28.1837H19.7291V29.51H22.9085V30.8323H18.2802V24.3115Z" fill="#010101"/>
<path d="M23.7561 24.3115H25.4126L27.0308 28.5871H27.048L28.7006 24.3115H30.2533L27.5411 30.8323H26.3821L23.7561 24.3115Z" fill="#010101"/>
<path fill-rule="evenodd" clip-rule="evenodd" d="M32.7957 24.3115V30.8323H31.3441V24.3115H32.7957Z" fill="#010101"/>
<path d="M38.1563 25.9081C37.9271 25.616 37.46 25.4702 37.1094 25.4702C36.6986 25.4702 36.1316 25.6592 36.1316 26.1486C36.1316 27.3378 39.1552 26.569 39.1552 28.8531C39.1552 30.3081 37.9786 30.9996 36.6247 30.9996C35.7815 30.9996 35.0372 30.7507 34.4144 30.1837L35.4436 29.0547C35.7463 29.4455 36.2266 29.6685 36.7069 29.6685C37.1829 29.6685 37.7103 29.4542 37.7103 28.9901C37.7103 27.797 34.6308 28.4405 34.6308 26.2643C34.6308 24.8774 35.8461 24.1475 37.1354 24.1475C37.8752 24.1475 38.5887 24.3448 39.1468 24.8298L38.1563 25.9081Z" fill="#010101"/>
<path fill-rule="evenodd" clip-rule="evenodd" d="M42.3728 24.3115V30.8323H40.9213V24.3115H42.3728Z" fill="#010101"/>
<path d="M47.309 24.1484C49.3548 24.1484 50.8516 25.4839 50.8516 27.5745C50.8516 29.6651 49.3548 31.0006 47.309 31.0006C45.2544 31.0006 43.7619 29.6651 43.7619 27.5745C43.7619 25.4839 45.2544 24.1484 47.309 24.1484ZM47.309 29.6734C48.5375 29.6734 49.3464 28.7894 49.3464 27.5741C49.3464 26.3587 48.5375 25.4747 47.309 25.4747C46.0716 25.4747 45.2671 26.3587 45.2671 27.5741C45.2671 28.7894 46.0721 29.6734 47.309 29.6734Z" fill="#010101"/>
<path d="M52.0757 24.3115H54.0441L56.8381 28.8451H56.8557V24.3115H58.3046V30.8323H56.4057L53.5422 26.1918H53.5251V30.8323H52.0757V24.3115Z" fill="#010101"/>
</g>
<defs>
<clipPath id="clip0">
<rect width="132" height="31" fill="white"/>
</clipPath>
</defs>
</svg>
