<svg width="106" height="36" viewBox="0 0 106 36" fill="none" xmlns="http://www.w3.org/2000/svg">
<path fill-rule="evenodd" clip-rule="evenodd" d="M3.25729 1.08674L-9.15527e-05 1.09813V12.7168C-9.15527e-05 22.6599 0.00891845 24.3445 0.0621835 24.398C0.130024 24.4656 0.107234 24.6384 0.0303835 24.6384C0.00441345 24.6384 0.0189885 24.6649 0.0632435 24.6972C0.130024 24.746 0.138769 24.7939 0.115184 24.9871C0.0966335 25.139 0.102464 25.2092 0.131879 25.1909C0.156524 25.1758 0.176664 25.1954 0.176664 25.2346C0.176664 25.2741 0.196539 25.294 0.220654 25.2789C0.283459 25.2402 0.275509 25.316 0.209789 25.387C0.176399 25.4228 0.174544 25.4352 0.205019 25.418C0.232844 25.4026 0.267559 25.4206 0.281869 25.458C0.296974 25.4972 0.289289 25.5147 0.264379 25.4994C0.208729 25.4649 0.206874 25.6228 0.262524 25.6785C0.300684 25.7169 0.359779 25.9506 0.365609 26.085C0.366934 26.1152 0.393964 26.1401 0.426029 26.1401C0.498904 26.1401 0.547664 26.3238 0.508179 26.4486C0.485919 26.5183 0.510299 26.5723 0.602784 26.6582C0.671419 26.7215 0.705074 26.7809 0.678044 26.7902C0.621599 26.809 0.701099 27.0226 0.764699 27.0231C0.784574 27.0234 0.788814 27.061 0.774239 27.1071C0.758339 27.1577 0.778744 27.2221 0.826444 27.2698C0.869904 27.3133 0.906474 27.37 0.908064 27.396C0.913629 27.4982 0.979879 27.6419 1.02122 27.6419C1.04533 27.6419 1.05275 27.6618 1.03791 27.6859C1.02281 27.7103 1.03076 27.7301 1.0554 27.7301C1.08005 27.7301 1.11291 27.798 1.12828 27.8809C1.14391 27.9639 1.19453 28.0722 1.2409 28.1221C1.28701 28.1716 1.32491 28.2405 1.32491 28.2752C1.32491 28.3476 1.45608 28.6144 1.45847 28.5471C1.45926 28.523 1.48046 28.5381 1.50537 28.5808C1.53028 28.6234 1.54009 28.6751 1.52763 28.6955C1.51491 28.7159 1.55148 28.7578 1.60872 28.7883C1.67921 28.8262 1.72135 28.8977 1.73937 29.0106C1.7566 29.1185 1.79369 29.1844 1.84458 29.1977C1.88804 29.2091 1.92673 29.2626 1.93097 29.3169C1.93494 29.3713 1.989 29.4823 2.05128 29.5637C2.11329 29.645 2.16417 29.733 2.16417 29.759C2.16417 29.7847 2.19252 29.8059 2.22724 29.8059C2.26222 29.8059 2.30329 29.8456 2.31866 29.8944C2.33403 29.9429 2.38518 30.0033 2.43208 30.0285C2.47899 30.0536 2.51741 30.1141 2.51741 30.1628C2.51741 30.2119 2.5667 30.2977 2.62712 30.3536C2.68754 30.4095 2.72385 30.4681 2.70821 30.484C2.69231 30.4996 2.70265 30.5126 2.731 30.5126C2.75936 30.5126 2.78241 30.5423 2.78241 30.5789C2.78241 30.6154 2.81077 30.6451 2.84575 30.6451C2.88046 30.6451 2.92154 30.6849 2.93691 30.7334C2.95254 30.7821 2.98434 30.8219 3.00766 30.8219C3.06623 30.8219 3.33229 31.0924 3.36965 31.19C3.38635 31.2334 3.41735 31.2586 3.43802 31.2456C3.45896 31.2326 3.49844 31.2711 3.52574 31.3312C3.55303 31.3911 3.60444 31.4401 3.63969 31.4401C3.67493 31.4401 3.71018 31.4849 3.71786 31.5395C3.72555 31.5941 3.75682 31.6389 3.78729 31.6389C3.8175 31.6389 3.84162 31.6545 3.84082 31.6736C3.83817 31.7314 3.96405 31.8376 4.03507 31.8376C4.07164 31.8376 4.11404 31.8774 4.12941 31.9259C4.14504 31.9746 4.18638 32.0144 4.22189 32.0144C4.2574 32.0144 4.3051 32.0639 4.32816 32.1246C4.35121 32.1853 4.4005 32.2351 4.4376 32.2351C4.4747 32.2351 4.50491 32.2643 4.50491 32.2998C4.50491 32.37 4.65358 32.4691 4.69571 32.427C4.70976 32.4129 4.7344 32.4535 4.75057 32.5171C4.76965 32.5937 4.8094 32.6326 4.86823 32.6326C4.93527 32.6326 4.95117 32.6544 4.93368 32.7211C4.92096 32.7696 4.9252 32.8004 4.94269 32.7895C4.96045 32.7786 5.0267 32.7967 5.0903 32.8295C5.15363 32.8624 5.21538 32.8791 5.22757 32.8669C5.23976 32.8547 5.27553 32.8865 5.3076 32.9374C5.3394 32.9885 5.40035 33.0301 5.44301 33.0301C5.48568 33.0301 5.52331 33.05 5.52622 33.0744C5.5294 33.0985 5.53417 33.1414 5.53735 33.1695C5.54027 33.1976 5.57975 33.226 5.6248 33.2326C5.67012 33.2392 5.74962 33.284 5.80156 33.3322C5.8535 33.3805 5.94174 33.4266 5.99739 33.4348C6.05278 33.443 6.0973 33.465 6.09571 33.4838C6.09147 33.5389 6.20224 33.641 6.24093 33.6176C6.26054 33.6057 6.35991 33.6518 6.46194 33.7202C6.5637 33.7883 6.67182 33.8392 6.70229 33.8328C6.7325 33.8265 6.75741 33.8405 6.75741 33.8641C6.75741 33.9436 6.89521 34.0459 7.00254 34.0459C7.06534 34.0459 7.13663 34.0885 7.17691 34.1503C7.22434 34.2224 7.27973 34.2507 7.35737 34.2422C7.42256 34.2348 7.47954 34.256 7.49358 34.2923C7.50683 34.3265 7.53519 34.3437 7.55692 34.3302C7.57892 34.3167 7.59667 34.326 7.59667 34.3506C7.59667 34.3753 7.66557 34.4081 7.74957 34.424C7.8524 34.4434 7.91255 34.4839 7.93296 34.5475C7.96237 34.6403 7.9637 34.6405 7.99762 34.5539C8.02676 34.4792 8.0326 34.4773 8.03524 34.5428C8.03736 34.5984 8.07844 34.622 8.18179 34.6268C8.26076 34.6305 8.3453 34.6381 8.36941 34.6437C8.39379 34.6495 8.43858 34.6564 8.46879 34.6591C8.49926 34.662 8.52417 34.6914 8.52417 34.7248C8.52417 34.759 8.61136 34.8099 8.72398 34.8414C8.83396 34.8721 8.93386 34.9135 8.94632 34.9334C8.95851 34.9532 8.99985 34.9577 9.03774 34.9429C9.0759 34.9283 9.12201 34.9405 9.1403 34.9702C9.17448 35.0256 9.32209 35.0598 9.57225 35.0704C9.67268 35.0746 9.70289 35.0913 9.67401 35.1263C9.64645 35.1594 9.65758 35.1788 9.70766 35.1843C9.749 35.1891 9.82267 35.2018 9.87117 35.2124C9.91966 35.223 10.0164 35.2333 10.0856 35.2352C10.181 35.2376 10.2053 35.2553 10.1855 35.307C10.1698 35.3478 10.1778 35.3643 10.2048 35.3473C10.23 35.3319 10.2745 35.3383 10.3036 35.3616C10.3331 35.3847 10.4414 35.4069 10.5448 35.4104C10.9028 35.4233 10.9532 35.4332 10.9532 35.4901C10.9532 35.567 15.8832 35.576 15.9087 35.4991C15.9177 35.4724 16.0237 35.44 16.1443 35.4271C16.2648 35.4141 16.3883 35.3841 16.4183 35.3603C16.4485 35.3364 16.5187 35.3285 16.5746 35.3425C16.6305 35.3566 16.7331 35.3385 16.8025 35.3025C16.8719 35.2665 17.0002 35.2294 17.0879 35.2201C17.2893 35.1986 17.4075 35.1515 17.3784 35.104C17.3656 35.0836 17.3908 35.0661 17.4337 35.0648C17.6985 35.0571 18.1286 34.8851 17.8832 34.8851C17.8532 34.8851 17.8403 34.8735 17.8546 34.8589C17.8993 34.8144 18.0671 34.8886 18.0358 34.9392C18.0181 34.9681 18.0268 34.9744 18.0581 34.9551C18.0864 34.9376 18.0962 34.9013 18.0795 34.8745C18.0605 34.8435 18.0756 34.8358 18.122 34.8536C18.1614 34.869 18.2221 34.8533 18.2563 34.8191C18.2905 34.785 18.331 34.7693 18.3464 34.7847C18.3618 34.7998 18.4039 34.7741 18.4399 34.7272C18.5049 34.6437 18.5054 34.644 18.4802 34.7306C18.4561 34.8133 18.4585 34.8141 18.5181 34.7415C18.5531 34.6991 18.6231 34.6644 18.6737 34.6644C18.7243 34.6644 18.7781 34.644 18.7932 34.6193C18.8086 34.5947 18.8396 34.5859 18.8621 34.6C18.8849 34.614 18.9032 34.6021 18.9032 34.5738C18.9032 34.5454 18.9323 34.5335 18.9681 34.5473C19.0039 34.561 19.0436 34.5547 19.0566 34.5337C19.0699 34.5125 19.0555 34.485 19.0251 34.4728C18.9946 34.4606 19.0211 34.4489 19.0844 34.4468C19.2559 34.4418 19.4761 34.3546 19.465 34.296C19.4597 34.2679 19.505 34.2425 19.5657 34.2396C19.7286 34.2322 19.824 34.181 19.8545 34.0848C19.8694 34.0379 19.9049 34.0024 19.9335 34.0059C20.088 34.0249 20.1484 33.999 20.1203 33.9258C20.1042 33.884 20.1052 33.8641 20.1224 33.8813C20.1397 33.8985 20.1802 33.8909 20.2125 33.8641C20.2449 33.8371 20.3005 33.8265 20.336 33.84C20.3715 33.8538 20.4463 33.8246 20.5022 33.7753C20.5581 33.7263 20.5759 33.7003 20.5417 33.7181C20.5006 33.7395 20.4903 33.7332 20.5115 33.6987C20.5292 33.6704 20.5607 33.6576 20.5817 33.6706C20.6026 33.6834 20.6323 33.6735 20.6479 33.6484C20.6633 33.6235 20.6946 33.6145 20.7174 33.6285C20.7402 33.6425 20.7709 33.6232 20.7852 33.5853C20.7998 33.5474 20.8329 33.5297 20.8586 33.5456C20.8883 33.5638 20.8952 33.5471 20.8777 33.501C20.8514 33.4329 20.941 33.399 21.0817 33.4234C21.1019 33.4271 21.1035 33.4062 21.0854 33.377C21.0632 33.3407 21.0767 33.3333 21.1286 33.3534C21.1705 33.3693 21.1933 33.3643 21.1795 33.342C21.1657 33.3198 21.2336 33.2572 21.33 33.2029C21.4265 33.1486 21.4951 33.0876 21.4827 33.0672C21.47 33.0468 21.5007 33.0301 21.5505 33.0301C21.6308 33.0301 21.661 32.9867 21.648 32.8905C21.6422 32.8465 21.894 32.7678 21.9321 32.802C21.9501 32.8181 21.9507 32.8065 21.9332 32.7763C21.913 32.741 21.9292 32.7209 21.9777 32.7209C22.0196 32.7209 22.0402 32.7074 22.0235 32.6907C22.0071 32.6742 22.0548 32.6348 22.1298 32.6032C22.2048 32.5717 22.2549 32.5277 22.2411 32.5057C22.217 32.4665 22.3209 32.4042 22.3768 32.4241C22.3919 32.4294 22.421 32.3891 22.4412 32.3345C22.4632 32.2749 22.5149 32.2351 22.5702 32.2351C22.6211 32.2351 22.6532 32.22 22.6418 32.2015C22.6031 32.1389 22.7393 32.0025 22.8122 32.0303C22.8525 32.0457 22.8715 32.039 22.8564 32.0146C22.818 31.9526 22.9145 31.7934 22.9903 31.7934C23.0258 31.7934 23.0549 31.7552 23.0549 31.7086C23.0549 31.6503 23.0963 31.6148 23.1877 31.5946C23.2608 31.5785 23.3096 31.5472 23.2958 31.5252C23.2669 31.4786 23.5481 31.1751 23.6199 31.1751C23.6464 31.1751 23.6822 31.1521 23.6997 31.1242C23.7206 31.0903 23.7103 31.0845 23.6689 31.1073C23.635 31.1261 23.6665 31.0871 23.7394 31.0212C23.8123 30.9549 23.8672 30.8831 23.8611 30.8614C23.855 30.8396 23.8706 30.8219 23.896 30.8219C23.9215 30.8219 23.9363 30.7869 23.9292 30.7445C23.9207 30.6936 23.9411 30.6714 23.9885 30.679C24.0338 30.6865 24.0709 30.6502 24.0884 30.581C24.1035 30.5206 24.1555 30.4498 24.2037 30.4241C24.2522 30.3981 24.2917 30.3486 24.2917 30.3139C24.2917 30.2792 24.3314 30.2293 24.3799 30.2034C24.4284 30.1774 24.4682 30.1186 24.4682 30.0727C24.4682 30.0266 24.518 29.95 24.5787 29.9021C24.6394 29.8544 24.6892 29.7757 24.6892 29.7274C24.6892 29.6776 24.7263 29.6299 24.7745 29.6172C24.831 29.6026 24.8702 29.5401 24.8903 29.4333C24.907 29.3445 24.9303 29.2817 24.9425 29.2939C24.9733 29.3244 25.0867 29.2054 25.0867 29.1426C25.0867 29.1145 25.1275 29.0583 25.1773 29.018C25.2634 28.9481 25.2966 28.863 25.304 28.6908C25.3061 28.6449 25.3421 28.6134 25.3933 28.6134C25.4625 28.6134 25.4815 28.5776 25.4927 28.4258C25.5001 28.3224 25.5226 28.2479 25.543 28.2601C25.5952 28.2917 25.7015 28.0828 25.7033 27.945C25.7044 27.8666 25.7338 27.8213 25.7932 27.8057C25.8631 27.7874 25.8817 27.7455 25.8817 27.6048C25.8817 27.4691 25.9013 27.4206 25.9652 27.4005C26.0243 27.3816 26.0576 27.3146 26.0791 27.1715C26.0998 27.0329 26.1337 26.9629 26.1864 26.9492C26.2455 26.9335 26.2659 26.8755 26.2731 26.7001C26.2794 26.548 26.307 26.4528 26.3555 26.4163C26.3958 26.3858 26.4133 26.3609 26.3947 26.3609C26.3762 26.3609 26.3923 26.3296 26.4305 26.2914C26.471 26.2509 26.4999 26.1467 26.4999 26.0405C26.4999 25.9138 26.5296 25.8272 26.5975 25.7551C26.677 25.6703 26.696 25.595 26.7008 25.3427C26.7056 25.1045 26.7268 25.0118 26.7941 24.9357C26.8654 24.8549 26.8829 24.7624 26.8916 24.4182C26.8995 24.1068 26.9186 23.9896 26.9661 23.9631C27.0013 23.9435 27.0299 23.8903 27.0299 23.845C27.0299 23.7996 27.0548 23.7541 27.0851 23.744C27.129 23.7292 27.1293 23.7119 27.0856 23.6589C27.0554 23.6224 27.0421 23.5808 27.0564 23.5667C27.1078 23.515 27.0872 20.2041 27.0352 20.1866C27.0079 20.1776 26.9857 20.1437 26.9857 20.1114C26.9857 20.079 26.9671 20.0459 26.9446 20.0377C26.9221 20.0297 26.899 19.8739 26.8937 19.6919C26.8829 19.3347 26.8378 19.1187 26.7647 19.0734C26.7395 19.0577 26.7114 18.8873 26.7021 18.6947C26.682 18.2651 26.6838 18.2773 26.6436 18.2837C26.5222 18.3027 26.4999 18.2648 26.4999 18.0388C26.4999 17.8093 26.4289 17.6601 26.32 17.6601C26.2975 17.6601 26.2792 17.5276 26.2792 17.3657C26.2792 17.2038 26.2667 17.0835 26.2516 17.0986C26.197 17.1532 26.1083 17.0058 26.0945 16.8381C26.0865 16.7416 26.0561 16.664 26.0251 16.6608C25.9948 16.6579 25.9501 16.6529 25.9257 16.6499C25.9016 16.6468 25.8817 16.545 25.8817 16.4234C25.8817 16.2975 25.8615 16.2026 25.8348 16.2026C25.8091 16.2026 25.8003 16.1827 25.8154 16.1584C25.8303 16.1342 25.8117 16.1144 25.7738 16.1144C25.7304 16.1144 25.7049 16.0746 25.7049 16.007C25.7049 15.9003 25.6032 15.7609 25.525 15.7609C25.5025 15.7609 25.4842 15.6803 25.4842 15.5817C25.4842 15.4733 25.4667 15.4132 25.4399 15.4296C25.4156 15.4447 25.3957 15.4259 25.3957 15.3883C25.3957 15.3504 25.3779 15.3194 25.3565 15.3194C25.3347 15.3194 25.3045 15.2696 25.2894 15.2089C25.2714 15.1376 25.2306 15.0984 25.1741 15.0984C25.1036 15.0984 25.0867 15.0684 25.0867 14.9449C25.0867 14.8299 25.0589 14.7732 24.9762 14.7189C24.9155 14.6791 24.8657 14.6073 24.8657 14.5594C24.8657 14.5101 24.8286 14.4621 24.7809 14.4496C24.7316 14.4367 24.7014 14.3966 24.7093 14.3545C24.7326 14.2268 24.6526 14.0826 24.558 14.0826C24.5077 14.0826 24.4682 14.0535 24.4682 14.0164C24.4682 13.9798 24.4284 13.9101 24.3797 13.8613C24.3309 13.8126 24.2848 13.7325 24.2774 13.6835C24.27 13.6345 24.2199 13.5637 24.1666 13.5264C24.1131 13.4887 24.0765 13.4448 24.085 13.4281C24.0937 13.4116 24.0643 13.3631 24.0195 13.3207C23.9747 13.2783 23.9371 13.2585 23.9355 13.2765C23.9339 13.2948 23.9141 13.2632 23.8913 13.2063C23.8685 13.1493 23.8099 13.0923 23.7614 13.0796C23.6854 13.0597 23.6525 12.9916 23.6665 12.8835C23.6687 12.8679 23.6263 12.8657 23.5725 12.879C23.5187 12.8922 23.4887 12.8877 23.506 12.8686C23.551 12.8199 23.4614 12.6694 23.3875 12.6694C23.3536 12.6694 23.3138 12.6315 23.2993 12.5854C23.2608 12.4645 23.056 12.2719 22.9662 12.2719C22.9158 12.2719 22.88 12.2252 22.8623 12.1365C22.8474 12.062 22.8183 12.0114 22.7973 12.0241C22.7767 12.0371 22.7186 11.9918 22.668 11.9234C22.6177 11.8553 22.5053 11.7657 22.4181 11.7244C22.3164 11.6761 22.2599 11.6186 22.2599 11.563C22.2599 11.505 22.2297 11.4769 22.1674 11.4769C22.1121 11.4769 22.0657 11.4414 22.0519 11.3884C22.0392 11.3399 22.0063 11.2977 21.9788 11.2951C21.9512 11.2922 21.9088 11.2853 21.8844 11.2797C21.8603 11.2741 21.8168 11.2665 21.7882 11.2627C21.7593 11.259 21.7233 11.2161 21.7079 11.1676C21.6923 11.1191 21.6435 11.0794 21.5993 11.0794C21.5497 11.0794 21.5079 11.0359 21.4906 10.967C21.475 10.9053 21.4432 10.8666 21.4199 10.8811C21.3966 10.8955 21.3269 10.8568 21.2651 10.795C21.2034 10.7333 21.1384 10.6848 21.1212 10.6874C20.9996 10.7057 20.8907 10.6721 20.8907 10.6161C20.8907 10.5801 20.8197 10.5207 20.733 10.4844C20.6323 10.4426 20.587 10.3999 20.6074 10.3668C20.6267 10.3352 20.6204 10.3265 20.591 10.3448C20.5645 10.3612 20.5173 10.3474 20.4863 10.314C20.455 10.2807 20.3967 10.2621 20.3567 10.2724C20.3074 10.2854 20.2748 10.2555 20.256 10.1805C20.2335 10.0909 20.2019 10.07 20.0935 10.0732C20.0027 10.0758 19.9372 10.0459 19.8919 9.98121C19.8551 9.92847 19.8063 9.89667 19.7835 9.91072C19.761 9.92476 19.7424 9.91734 19.7424 9.89429C19.7424 9.87123 19.7175 9.85348 19.6873 9.85454C19.5418 9.85984 19.4774 9.83731 19.4774 9.78113C19.4774 9.71753 19.386 9.66586 19.2731 9.66586C19.2376 9.66586 19.1597 9.6171 19.0998 9.55747C19.0187 9.47638 18.9525 9.452 18.8372 9.46101C18.7232 9.47002 18.6769 9.45333 18.6591 9.39688C18.6374 9.32825 18.2597 9.2302 18.1381 9.2612C18.118 9.2665 18.1129 9.25245 18.1267 9.22993C18.1405 9.20767 18.1209 9.17746 18.083 9.16288C18.0454 9.14857 18.0252 9.11916 18.0382 9.09796C18.0515 9.0765 17.9595 9.06272 17.8339 9.06696C17.6571 9.07305 17.5853 9.05476 17.5167 8.98613C17.4536 8.92306 17.3511 8.89179 17.1626 8.87827C16.9135 8.86025 16.7832 8.79983 16.7832 8.70258C16.7832 8.67926 16.6157 8.65938 16.4082 8.65806C16.0202 8.65567 15.9224 8.63262 15.9709 8.55391C15.9892 8.52423 15.9643 8.5192 15.8999 8.5396C15.8453 8.55709 15.8111 8.55418 15.8239 8.53351C15.8369 8.51257 15.7846 8.49482 15.7081 8.49376C14.4162 8.47706 14.3542 8.47309 14.3542 8.4071C14.3542 8.3708 14.3491 8.33873 14.343 8.33582C14.2736 8.30428 12.849 8.31064 12.8294 8.34271C12.8148 8.36603 12.7732 8.38511 12.7369 8.38511C12.7003 8.38511 12.6796 8.37027 12.691 8.35198C12.7022 8.3337 12.6635 8.31886 12.6046 8.31886C12.5418 8.31886 12.488 8.35066 12.4735 8.39624C12.4523 8.46328 12.385 8.47388 11.9551 8.4768C11.5282 8.47971 11.2677 8.49349 11.0547 8.5245C11.0252 8.52874 11.0107 8.54755 11.0221 8.5661C11.0639 8.63368 10.9399 8.65859 10.5578 8.65965C10.1902 8.66071 10.1648 8.6668 10.1197 8.76591C10.0736 8.86688 9.90058 8.89974 9.50388 8.88225C9.47181 8.88092 9.45591 8.8902 9.46863 8.90265C9.53038 8.9644 9.34117 9.05265 9.12678 9.06192C8.99534 9.06775 8.8586 9.09637 8.82336 9.12578C8.78785 9.1552 8.74253 9.16474 8.72266 9.14672C8.70278 9.1287 8.70146 9.13956 8.71974 9.1711C8.74677 9.21827 8.76612 9.21827 8.82627 9.1711C8.89173 9.11996 8.89305 9.12208 8.83899 9.19124C8.80004 9.2408 8.71762 9.26836 8.6095 9.26836C8.51675 9.26836 8.4285 9.28876 8.41314 9.31341C8.39803 9.33805 8.36703 9.3468 8.34424 9.33275C8.32171 9.31871 8.30316 9.34945 8.30316 9.40059C8.30316 9.48327 8.28275 9.49175 8.11952 9.47532C7.96555 9.45995 7.92024 9.47479 7.841 9.56701C7.7835 9.63353 7.69922 9.67699 7.62714 9.67699C7.56169 9.67699 7.50816 9.69077 7.50816 9.70746C7.50816 9.72416 7.44164 9.76391 7.36055 9.79571C7.2792 9.82751 7.18035 9.90595 7.14087 9.96955C7.07409 10.0771 7.06905 9.76867 7.06905 5.69138C7.06905 2.70403 7.05448 1.29238 7.02347 1.28204C6.9983 1.27356 6.98902 1.24865 7.00254 1.22639C7.01632 1.20413 6.98796 1.18585 6.9392 1.18585C6.84089 1.18585 6.77411 1.11403 6.84937 1.08912C6.87587 1.08011 6.81147 1.07349 6.706 1.07428C6.6008 1.07508 5.04869 1.08064 3.25729 1.08674ZM29.6041 1.14186C29.5927 1.17816 29.5649 1.24786 29.5421 1.29635C29.4987 1.38884 29.513 23.462 29.5567 23.6669C29.5697 23.7276 29.5853 23.7822 29.5914 23.7882C29.5975 23.7943 29.6052 23.8198 29.6081 23.845C29.6113 23.8701 29.6336 23.9051 29.6579 23.9223C29.6823 23.9398 29.7067 24.2088 29.7128 24.5281C29.7255 25.2174 29.7504 25.3894 29.8365 25.3894C29.9033 25.3894 29.9084 25.4138 29.9076 25.7426C29.907 25.9827 29.973 26.2575 30.0414 26.2997C30.0716 26.3185 30.0788 26.3105 30.0597 26.2795C30.0422 26.2514 30.0491 26.2284 30.0748 26.2284C30.1005 26.2284 30.1217 26.315 30.1217 26.421C30.1217 26.7035 30.1723 27.0247 30.2128 26.9995C30.269 26.9648 30.3072 27.0602 30.3181 27.2624C30.3236 27.3657 30.3414 27.4718 30.3575 27.498C30.374 27.5245 30.3626 27.5542 30.3329 27.564C30.3029 27.574 30.3228 27.5937 30.3769 27.608C30.44 27.6244 30.4646 27.617 30.446 27.5868C30.4291 27.5592 30.4381 27.5528 30.468 27.5714C30.4961 27.5886 30.5192 27.6888 30.5192 27.7937C30.5192 27.9477 30.5361 27.9893 30.6074 28.0078C30.6649 28.0229 30.6978 28.0709 30.7012 28.1456C30.7044 28.2085 30.7118 28.28 30.7179 28.3044C30.724 28.3285 30.7315 28.3682 30.7344 28.3926C30.7375 28.417 30.7797 28.4369 30.8282 28.4369C30.9085 28.4369 30.9488 28.572 30.9228 28.7544C30.9204 28.771 30.9578 28.7973 31.0057 28.8124C31.0903 28.8394 31.1033 28.8741 31.108 29.0896C31.1096 29.1556 31.1441 29.1988 31.2077 29.2147C31.2834 29.2337 31.3118 29.2828 31.3343 29.4343C31.3571 29.5849 31.3826 29.6294 31.4462 29.6294C31.4981 29.6294 31.5341 29.6662 31.5429 29.7288C31.5506 29.7833 31.5802 29.8281 31.6086 29.8281C31.6868 29.8281 31.708 29.8639 31.7196 30.0181C31.7265 30.1085 31.7589 30.1684 31.8092 30.1843C31.8527 30.1981 31.8908 30.228 31.8937 30.2505C31.9054 30.3372 31.9128 30.3597 31.9473 30.414C31.9666 30.4448 32.0011 30.4586 32.0236 30.4445C32.0461 30.4307 32.0877 30.4702 32.1161 30.5322C32.1442 30.5942 32.2027 30.6451 32.2462 30.6451C32.3011 30.6451 32.3196 30.6719 32.3079 30.7334C32.2976 30.7872 32.3146 30.8219 32.3517 30.8219C32.3851 30.8219 32.4574 30.8863 32.5125 30.9652C32.5676 31.0442 32.6384 31.1248 32.6699 31.1441C32.7015 31.1637 32.7274 31.1998 32.7274 31.2247C32.7274 31.2721 32.8364 31.3959 32.878 31.3959C32.9288 31.3959 33.2084 31.6953 33.1819 31.7218C33.1668 31.7369 33.179 31.7494 33.2089 31.7494C33.2781 31.7494 33.5667 32.0525 33.5667 32.1254C33.5667 32.1713 33.7511 32.2367 33.8648 32.2314C33.8831 32.2306 33.9088 32.2759 33.9221 32.3319C33.935 32.388 33.97 32.4363 33.9992 32.4394C34.0286 32.4424 34.0744 32.4474 34.1012 32.4506C34.1282 32.4535 34.1388 32.4856 34.125 32.5216C34.111 32.5579 34.1139 32.5855 34.1314 32.5831C34.2133 32.5722 34.3612 32.6496 34.3821 32.7148C34.4089 32.7969 34.6805 32.9949 34.8207 33.0341C34.8718 33.0484 34.9092 33.0818 34.9036 33.1086C34.8981 33.1353 34.9306 33.169 34.976 33.1836C35.0213 33.1979 35.1114 33.2586 35.176 33.3187C35.2486 33.386 35.3462 33.4276 35.4312 33.4276C35.507 33.4276 35.5571 33.4393 35.5431 33.4533C35.5001 33.4963 35.6562 33.6484 35.7431 33.6484C35.7879 33.6484 35.8123 33.668 35.7975 33.6921C35.7818 33.717 35.7996 33.7247 35.8385 33.7096C35.8807 33.6934 35.9196 33.7149 35.9403 33.7652C35.9586 33.8103 35.9986 33.8492 36.0288 33.8516C36.1981 33.8651 36.2193 33.8734 36.1939 33.9144C36.1785 33.9393 36.1822 33.9547 36.2024 33.9486C36.2639 33.9295 36.6142 34.0867 36.6142 34.1333C36.6142 34.1577 36.6953 34.1903 36.7944 34.2062C36.898 34.2229 36.9961 34.2698 37.0257 34.3172C37.0538 34.3623 37.1193 34.3994 37.171 34.3994C37.2224 34.3994 37.3143 34.4383 37.3753 34.4863C37.436 34.534 37.4982 34.5605 37.5136 34.5451C37.529 34.5298 37.5417 34.5425 37.5417 34.5732C37.5417 34.6061 37.5703 34.6185 37.6101 34.6032C37.6488 34.5883 37.667 34.5958 37.6522 34.6199C37.6358 34.6464 37.6774 34.6525 37.7595 34.6363C37.8581 34.6164 37.9005 34.6278 37.9201 34.6787C37.936 34.72 38.0465 34.7688 38.1944 34.7993C38.4324 34.8488 38.5969 34.9156 38.6478 34.9834C38.6611 35.0012 38.7901 35.0258 38.9348 35.0383C39.2639 35.0667 39.3418 35.0807 39.3805 35.1194C39.4311 35.17 39.4926 35.1541 39.4587 35.0993C39.4388 35.0672 39.4465 35.06 39.4788 35.0802C39.5072 35.0977 39.5191 35.1305 39.5051 35.1533C39.491 35.1758 39.5106 35.1968 39.5485 35.2C39.5864 35.2029 39.6373 35.2103 39.6617 35.2164C39.6858 35.2225 39.835 35.2299 39.993 35.2331C40.2259 35.2373 40.2799 35.2519 40.2799 35.3102C40.2799 35.3666 40.2932 35.3709 40.3419 35.3303C40.3891 35.2911 40.4079 35.2914 40.4215 35.3314C40.431 35.3603 40.5105 35.386 40.5982 35.3884C40.7516 35.3929 40.7935 35.3303 40.6417 35.3234C40.6006 35.3213 40.5905 35.3102 40.6191 35.2985C40.648 35.2869 40.7275 35.3038 40.7959 35.3362C40.957 35.4125 41.0262 35.4074 41.1754 35.3083L41.2978 35.227L41.2859 31.7502C41.2763 29.0615 41.2612 28.2588 41.2188 28.2077C41.1886 28.1714 41.1756 28.1297 41.1902 28.1154C41.2045 28.1011 41.1714 28.1011 41.1165 28.1154C41.0535 28.1321 41.0272 28.1247 41.0453 28.0956C41.0641 28.0653 40.9727 28.051 40.7779 28.054C40.519 28.0579 40.479 28.0476 40.4583 27.9715C40.4384 27.8992 40.3904 27.883 40.1724 27.8743C39.9134 27.8637 39.818 27.8096 39.8597 27.6965C39.874 27.6575 39.844 27.6474 39.7587 27.6623C39.672 27.6777 39.6007 27.6525 39.5101 27.5743C39.4402 27.5144 39.3461 27.4651 39.3013 27.4651C39.2565 27.4651 39.2199 27.4354 39.2199 27.3989C39.2199 27.3623 39.194 27.3326 39.1619 27.3326C39.1301 27.3326 39.048 27.2741 38.9793 27.2025C38.9107 27.1307 38.8124 27.0658 38.7612 27.0578C38.7098 27.0499 38.6727 27.0191 38.6788 26.9892C38.6849 26.9595 38.6706 26.9351 38.6473 26.9351C38.5797 26.9351 38.2924 26.6298 38.2924 26.5583C38.2924 26.5177 38.249 26.4934 38.1769 26.4934C38.0831 26.4934 38.0656 26.4769 38.0844 26.4049C38.1019 26.3383 38.0812 26.3097 38.0012 26.2899C37.9363 26.2734 37.8949 26.2308 37.8949 26.1804C37.8949 26.1298 37.8536 26.0874 37.7889 26.071C37.6851 26.045 37.5928 25.8309 37.6856 25.8309C37.7113 25.8309 37.7089 25.8068 37.68 25.7718C37.6527 25.7392 37.6424 25.7008 37.6567 25.6864C37.671 25.6721 37.6437 25.6705 37.5958 25.683C37.525 25.7015 37.5033 25.6777 37.4807 25.5571C37.4654 25.4755 37.4158 25.3767 37.3702 25.338C37.3191 25.294 37.2926 25.2222 37.3005 25.149C37.3104 25.061 37.2873 25.0189 37.211 24.9839C37.1349 24.9495 37.101 24.8872 37.0795 24.7444C37.0626 24.6307 37.0165 24.5276 36.9672 24.4931C36.8972 24.4439 36.8826 24.371 36.8758 24.0302C36.8691 23.6987 36.8527 23.6126 36.7854 23.5513C36.7056 23.4793 36.7032 23.1464 36.7027 12.4221C36.7022 1.63317 36.6963 1.14186 36.5684 1.14186C36.5421 1.14186 36.5297 1.12675 36.5411 1.10873C36.5522 1.09045 35.0006 1.07561 33.0931 1.07561C30.0485 1.07561 29.6222 1.08356 29.6041 1.14186ZM43.0892 8.13839C43.1022 8.17205 43.0884 8.21445 43.0587 8.233C43.0219 8.25552 43.0161 8.24784 43.0405 8.20835C43.064 8.17019 43.0587 8.16118 43.0251 8.18212C42.997 8.19934 42.9742 8.2436 42.9742 8.2799C42.9742 8.31647 42.9538 8.3337 42.9291 8.31833C42.8987 8.29951 42.8852 10.834 42.8875 16.1785C42.8902 21.8813 42.9045 24.058 42.9395 24.0363C42.9686 24.0183 42.9753 24.0267 42.9559 24.0578C42.9387 24.0861 42.9554 24.1402 42.9933 24.1783C43.0314 24.2162 43.0662 24.2311 43.0709 24.2109C43.0754 24.191 43.0937 24.4926 43.1117 24.8814C43.1499 25.7188 43.1457 25.6909 43.24 25.7209C43.3015 25.7402 43.3121 25.7938 43.3012 26.0294C43.2941 26.1862 43.3073 26.3264 43.3306 26.3407C43.3539 26.3553 43.3616 26.3855 43.3476 26.4083C43.3335 26.4308 43.3444 26.4494 43.3717 26.4494C43.3987 26.4494 43.4088 26.469 43.394 26.4928C43.3786 26.518 43.3963 26.5254 43.4356 26.5103C43.4933 26.4881 43.5042 26.5302 43.5042 26.7759C43.5042 26.941 43.5233 27.0676 43.5482 27.0676C43.5726 27.0676 43.5924 27.1074 43.5924 27.1559C43.5924 27.2046 43.6155 27.2393 43.6436 27.2332C43.6751 27.2264 43.6971 27.2934 43.7011 27.4095C43.7051 27.5237 43.7448 27.6469 43.8029 27.7256C43.8553 27.7966 43.9033 27.9283 43.9094 28.0184C43.9176 28.1401 43.9465 28.1941 44.0215 28.2283C44.1012 28.2646 44.1224 28.3099 44.1224 28.4438C44.1224 28.562 44.1418 28.6134 44.186 28.6134C44.2658 28.6134 44.3106 28.6839 44.3241 28.8307C44.3297 28.8935 44.3366 28.9573 44.339 28.9727C44.3413 28.9881 44.3829 29.0111 44.4317 29.0239C44.4815 29.0368 44.5223 29.0869 44.5255 29.1394C44.5345 29.2902 44.5388 29.301 44.6193 29.3816C44.6906 29.4529 44.7145 29.5141 44.7023 29.5949C44.6996 29.6124 44.7375 29.6482 44.7865 29.6744C44.8356 29.7007 44.9066 29.7992 44.9445 29.8936C44.9946 30.0189 45.0319 30.0582 45.0831 30.0385C45.1268 30.0218 45.1416 30.0298 45.1231 30.06C45.0942 30.1066 45.1814 30.2243 45.2675 30.2548C45.2906 30.263 45.3202 30.3292 45.3332 30.4021C45.346 30.475 45.3939 30.5654 45.4398 30.6027C45.4853 30.6404 45.5466 30.7154 45.5757 30.7697C45.6049 30.824 45.6475 30.8569 45.6706 30.8426C45.6936 30.8282 45.7124 30.8473 45.7124 30.885C45.7124 30.9228 45.7522 30.9785 45.8007 31.0087C45.8494 31.0392 45.8892 31.0988 45.8892 31.1415C45.8892 31.195 45.9236 31.2194 45.9994 31.2194C46.088 31.2194 46.1099 31.2414 46.1099 31.3296C46.1099 31.4107 46.1335 31.4401 46.1982 31.4401C46.2774 31.4401 46.3074 31.486 46.2917 31.5838C46.2891 31.6018 46.3283 31.6169 46.3792 31.6169C46.4325 31.6169 46.4807 31.6519 46.4931 31.6998C46.5051 31.7454 46.5639 31.805 46.6235 31.8321C46.6898 31.8623 46.7271 31.9118 46.7192 31.959C46.7099 32.0146 46.734 32.0348 46.8045 32.0311C46.8628 32.0282 46.9129 32.0576 46.9275 32.104C46.9413 32.1471 47.003 32.1948 47.065 32.2105C47.1413 32.2296 47.1697 32.26 47.1527 32.3046C47.1366 32.347 47.1646 32.3846 47.2309 32.4098C47.2879 32.4315 47.3459 32.493 47.36 32.5468C47.3748 32.6035 47.4098 32.6347 47.4437 32.6218C47.4755 32.6096 47.5272 32.6268 47.5584 32.6602C47.6045 32.7097 47.6045 32.7217 47.5582 32.7246C47.5269 32.7264 47.5674 32.7572 47.6483 32.7924C47.7291 32.8277 47.8372 32.8955 47.8884 32.9435C47.9398 32.9912 48.0187 33.0301 48.0643 33.0301C48.1096 33.0301 48.1359 33.0479 48.1226 33.0694C48.09 33.1221 48.1817 33.1931 48.3307 33.2305C48.398 33.2474 48.4724 33.2973 48.496 33.3412C48.5196 33.3855 48.5837 33.4279 48.6383 33.4356C48.6932 33.4433 48.738 33.4729 48.738 33.5013C48.738 33.5771 48.7687 33.5967 48.9314 33.6256C49.0642 33.6489 49.2258 33.7578 49.2224 33.8219C49.2216 33.8357 49.2483 33.841 49.2817 33.8333C49.3151 33.8257 49.3687 33.8553 49.401 33.8996C49.4331 33.9436 49.481 33.9823 49.5073 33.9852C49.5335 33.9884 49.5841 33.9931 49.6196 33.9963C49.6549 33.9992 49.7245 34.0453 49.7741 34.0983C49.8237 34.1516 49.8647 34.1765 49.8655 34.1537C49.8663 34.1309 49.8862 34.1455 49.91 34.1866C49.9381 34.2346 49.9914 34.2539 50.0608 34.2412C50.1231 34.23 50.1835 34.2473 50.2039 34.282C50.2556 34.3694 50.4146 34.4434 50.5511 34.4434C50.6468 34.4434 50.6603 34.4553 50.6197 34.5041C50.562 34.5735 50.7353 34.6297 51.0898 34.6567C51.1444 34.6609 51.1842 34.689 51.1781 34.7195C51.172 34.75 51.195 34.7688 51.2292 34.7614C51.2634 34.754 51.3045 34.7691 51.3206 34.795C51.3365 34.821 51.4566 34.8446 51.5872 34.8475C51.7635 34.8515 51.8427 34.8748 51.8936 34.9373C51.958 35.0166 52.0677 35.041 52.4943 35.0696C52.5921 35.0762 52.6295 35.0953 52.6043 35.126C52.5797 35.1557 52.6001 35.1737 52.6615 35.1766C53.0156 35.1936 53.3309 35.2461 53.3609 35.2932C53.3887 35.3372 53.3961 35.3367 53.3967 35.2906C53.3972 35.2466 53.4147 35.2495 53.4669 35.3014C53.5424 35.3772 53.5941 35.3947 53.5549 35.3314C53.5162 35.2689 53.6458 35.2397 53.7067 35.2972C53.7488 35.3367 53.7666 35.3359 53.782 35.2938C53.8061 35.2283 53.9577 35.2193 53.9789 35.2821C53.999 35.3412 54.4082 35.4149 54.4392 35.3648C54.4527 35.3431 54.4821 35.3367 54.5046 35.3507C54.5274 35.3648 54.5465 35.3502 54.547 35.3184C54.5481 35.2797 54.5624 35.2842 54.5902 35.3319C54.6628 35.4565 56.2242 35.4048 56.2242 35.2779C56.2242 35.2564 56.3633 35.2408 56.5332 35.2434C56.7322 35.2466 56.8427 35.2662 56.8433 35.2985C56.8435 35.3335 56.8544 35.3325 56.878 35.2951C56.8968 35.2657 57.0351 35.2323 57.1851 35.2212C57.4639 35.2007 57.5659 35.1687 57.5309 35.1125C57.5203 35.095 57.5481 35.0807 57.5932 35.0807C57.6382 35.0807 57.6663 35.095 57.6555 35.1125C57.6449 35.1297 57.6563 35.1565 57.6809 35.1719C57.7056 35.187 57.7257 35.1674 57.7257 35.1281C57.7257 35.0887 57.7443 35.068 57.7668 35.082C57.7896 35.0961 57.8198 35.0884 57.8341 35.0653C57.8484 35.042 57.9491 35.0269 58.058 35.0314C58.1754 35.0364 58.2557 35.0203 58.2557 34.9919C58.2557 34.9005 58.4767 34.8138 58.5231 34.8872C58.5509 34.9312 58.5639 34.9339 58.5642 34.8963C58.5647 34.8658 58.596 34.8409 58.6339 34.8409C58.6718 34.8409 58.6911 34.8594 58.6773 34.8822C58.6633 34.9047 58.7081 34.8952 58.7767 34.861C58.8453 34.8268 58.95 34.7934 59.0091 34.7868C59.0685 34.7802 59.1392 34.7463 59.1665 34.7113C59.2094 34.6564 59.2746 34.6403 59.5698 34.6109C59.6001 34.6079 59.625 34.5809 59.625 34.551C59.625 34.4948 59.8894 34.3792 59.8908 34.4346C59.891 34.4516 59.9059 34.4458 59.9239 34.4214C59.9822 34.3416 60.1693 34.2507 60.1343 34.3188C60.1179 34.3509 60.1353 34.339 60.1732 34.2921C60.2114 34.2454 60.2554 34.22 60.271 34.2356C60.2869 34.2515 60.3582 34.2152 60.4295 34.1551C60.5008 34.0952 60.5784 34.0459 60.602 34.0459C60.6253 34.0459 60.6982 33.9963 60.7637 33.9356C60.8291 33.875 60.9327 33.8246 60.9937 33.8238C61.1098 33.8222 61.2756 33.7236 61.2332 33.6815C61.2197 33.668 61.2725 33.6428 61.3506 33.6256C61.4288 33.6086 61.5565 33.5307 61.6342 33.4528C61.7121 33.3752 61.8377 33.2856 61.9135 33.2543C61.9893 33.223 62.0632 33.1597 62.0778 33.1136C62.0924 33.0678 62.1221 33.0301 62.1438 33.0301C62.1658 33.0301 62.2776 32.9705 62.3926 32.8976C62.5074 32.8248 62.5861 32.7651 62.5675 32.7651C62.5098 32.7651 62.6441 32.6565 62.7718 32.6C62.8386 32.5704 62.8932 32.5258 62.8932 32.5012C62.8932 32.4763 62.9237 32.4559 62.9605 32.4559C62.9976 32.4559 63.0469 32.4063 63.07 32.3456C63.093 32.2849 63.141 32.2351 63.1762 32.2351C63.2117 32.2351 63.2533 32.1954 63.2687 32.1469C63.2942 32.0663 63.3744 32.0337 63.4895 32.0568C63.5138 32.0618 63.5191 32.0512 63.5014 32.0335C63.4834 32.0154 63.5032 31.9728 63.5454 31.9381C63.5875 31.9036 63.5941 31.8898 63.5599 31.9073C63.5191 31.9285 63.5088 31.9222 63.5295 31.8885C63.5467 31.8607 63.5896 31.8376 63.6246 31.8376C63.6821 31.8376 63.7078 31.7841 63.6935 31.694C63.6887 31.6641 63.7921 31.6426 63.8761 31.6558C63.9079 31.6609 63.9264 31.5899 63.9132 31.5135C63.9095 31.4934 63.9458 31.4664 63.9938 31.4539C64.0417 31.4415 64.087 31.3885 64.0945 31.3362C64.1019 31.284 64.1376 31.2414 64.1742 31.2414C64.2105 31.2414 64.2595 31.1979 64.2829 31.1447C64.3062 31.0917 64.3608 31.0387 64.4042 31.0275C64.4485 31.0159 64.4832 30.966 64.4832 30.9144C64.4832 30.8635 64.4983 30.8243 64.5163 30.8269C64.607 30.8412 64.6565 30.8139 64.6814 30.7358C64.6963 30.6883 64.7474 30.6374 64.7948 30.6223C64.8486 30.6051 64.8807 30.5553 64.8807 30.489C64.8807 30.4172 64.9003 30.3905 64.9414 30.4061C64.983 30.4223 65.0206 30.3663 65.0614 30.228C65.0943 30.1175 65.1433 30.0269 65.1703 30.0269C65.1976 30.0269 65.2432 29.976 65.2713 29.914C65.2997 29.8517 65.3405 29.8117 65.3617 29.825C65.3983 29.8475 65.5345 29.7224 65.5101 29.6887C65.456 29.6137 65.5135 29.4587 65.6036 29.4359C65.6778 29.4174 65.7062 29.3808 65.7017 29.3098C65.698 29.251 65.7322 29.1884 65.7846 29.1582C65.8336 29.1299 65.8761 29.0803 65.8784 29.0477C65.8811 29.0154 65.8861 28.9542 65.8898 28.9115C65.8935 28.8691 65.9179 28.8344 65.9439 28.8344C66.0441 28.8344 66.1114 28.7127 66.0894 28.572C66.0711 28.4557 66.0833 28.426 66.158 28.4064C66.2081 28.3934 66.2388 28.3664 66.2266 28.3465C66.2145 28.3266 66.2245 28.298 66.2492 28.2826C66.2738 28.2673 66.2942 28.2063 66.2942 28.147C66.2942 28.0879 66.3374 27.9959 66.3904 27.9432C66.4516 27.882 66.4893 27.7855 66.4938 27.6782C66.5054 27.4002 66.512 27.3769 66.5812 27.3769C66.6175 27.3769 66.6483 27.3718 66.6491 27.3657C66.6498 27.3597 66.6623 27.2354 66.6766 27.0896C66.6938 26.9137 66.7301 26.7981 66.7853 26.7457C66.8674 26.6675 66.8759 26.6015 66.8759 26.0407C66.8759 25.877 66.8963 25.8163 66.9692 25.7654C67.0548 25.7053 67.064 25.6507 67.0784 25.114C67.0916 24.6267 67.107 24.517 67.1706 24.4619C67.2519 24.3911 67.2498 24.4216 67.2861 22.8719C67.3039 22.1211 67.3102 22.0493 67.3691 21.9552C67.3892 21.9229 67.382 21.9001 67.3513 21.9001C67.3129 21.9001 67.3121 21.8845 67.3479 21.8416C67.3815 21.8007 67.3831 21.7366 67.3532 21.6319C67.2885 21.4064 67.301 20.9967 67.3783 20.8033C67.4337 20.6652 67.443 20.4935 67.4271 19.9081C67.404 19.0689 67.4027 18.9936 67.4093 18.8746C67.412 18.8261 67.4056 16.5506 67.3953 13.8176L67.3767 8.84886L67.3542 13.8176L67.3314 18.7864L67.3208 13.8102C67.3123 9.9237 67.3219 8.83031 67.3638 8.81627C67.394 8.8062 67.4189 8.71848 67.4202 8.61725C67.4215 8.51416 67.4046 8.44738 67.381 8.46222C67.3571 8.4768 67.3516 8.45533 67.3683 8.41214C67.3855 8.36682 67.3797 8.34721 67.3534 8.36364C67.329 8.37848 67.2975 8.35967 67.2829 8.32177C67.2665 8.27884 67.2024 8.25261 67.1139 8.25261C67.0354 8.25261 66.9599 8.24121 66.9461 8.22743C66.9141 8.19537 63.821 8.20305 63.631 8.23565C63.5454 8.25049 63.5107 8.24492 63.543 8.2216C63.5819 8.19378 63.57 8.16701 63.4987 8.12249C63.41 8.06711 63.4065 8.06817 63.4614 8.13468C63.5539 8.24651 63.5252 8.2489 61.9509 8.26241C60.5058 8.2746 60.5 8.27513 60.4197 8.37424C60.3754 8.4291 60.3325 8.45401 60.3243 8.42963C60.3161 8.40551 60.3108 11.5047 60.3121 15.317C60.3137 19.1293 60.2981 22.238 60.2774 22.225C60.2567 22.2123 60.2504 22.2534 60.2636 22.3159C60.2766 22.3787 60.2978 22.4799 60.3105 22.5406C60.323 22.6013 60.3134 22.6509 60.289 22.6509C60.2626 22.6509 60.2525 22.7439 60.2639 22.8812C60.2742 23.0076 60.2663 23.1318 60.2459 23.157C60.2254 23.1825 60.2119 23.2527 60.2159 23.3134C60.2199 23.3743 60.1929 23.4501 60.156 23.4824C60.1189 23.5145 60.1123 23.5291 60.1409 23.5148C60.1695 23.5005 60.2056 23.5089 60.2207 23.5336C60.236 23.5582 60.227 23.5784 60.2011 23.5784C60.1748 23.5784 60.1536 23.6332 60.1539 23.7C60.155 24.0575 60.1139 24.2952 60.0415 24.3482C59.9994 24.3789 59.9777 24.425 59.9933 24.4505C60.0092 24.4759 59.992 24.5083 59.9554 24.5223C59.9053 24.5414 59.8942 24.5931 59.9114 24.7298C59.9339 24.9079 59.8354 25.1684 59.7453 25.1684C59.7249 25.1684 59.719 25.1861 59.7323 25.2073C59.7455 25.2288 59.7174 25.2958 59.67 25.356C59.6226 25.4164 59.5963 25.4784 59.6117 25.4938C59.6271 25.5092 59.6165 25.5219 59.5881 25.5219C59.5598 25.5219 59.5367 25.5516 59.5367 25.5881C59.5367 25.6244 59.5118 25.6546 59.4813 25.6549C59.4376 25.6554 59.4376 25.6629 59.4819 25.6909C59.5232 25.7172 59.5092 25.753 59.4267 25.8306C59.3658 25.8878 59.3157 25.9732 59.3157 26.0201C59.3157 26.0826 59.2956 26.0977 59.2399 26.0763C59.198 26.0604 59.1771 26.0604 59.193 26.0763C59.223 26.1062 59.2137 26.1208 59.0279 26.3301C58.9678 26.3982 58.9182 26.4849 58.9182 26.5225C58.9182 26.5644 58.8933 26.5816 58.8543 26.5668C58.8114 26.5503 58.7984 26.5633 58.8148 26.606C58.8315 26.65 58.809 26.6701 58.7438 26.6701C58.6818 26.6701 58.6593 26.6884 58.68 26.7218C58.7012 26.7562 58.6882 26.7645 58.6407 26.7462C58.593 26.7279 58.5769 26.738 58.5917 26.7772C58.6174 26.8437 58.4926 26.906 58.4216 26.8622C58.3951 26.8458 58.3874 26.854 58.4044 26.8811C58.4205 26.9076 58.384 26.9831 58.3227 27.0488C58.2615 27.1148 58.2117 27.1537 58.2117 27.1349C58.2117 27.1164 58.1322 27.1832 58.035 27.2831C57.9377 27.3832 57.8582 27.4529 57.8582 27.4376C57.8582 27.4225 57.8293 27.4341 57.7941 27.4635C57.7586 27.493 57.7098 27.5046 57.6854 27.4895C57.6613 27.4747 57.6107 27.5091 57.5733 27.5661C57.5198 27.648 57.4724 27.6673 57.3491 27.6575C57.263 27.6509 57.2029 27.6618 57.2153 27.6819C57.2588 27.7521 57.0836 27.8541 56.8713 27.8822C56.7534 27.8976 56.6085 27.9424 56.5488 27.9813C56.4754 28.0296 56.3408 28.0524 56.1299 28.0524C55.9306 28.0524 55.8116 28.0712 55.7989 28.1046C55.7748 28.1671 55.65 28.1756 55.65 28.1149C55.65 28.0916 55.6211 28.0966 55.5856 28.126C55.5503 28.1555 55.5 28.1663 55.4743 28.1502C55.4483 28.1343 55.4324 28.1475 55.439 28.1796C55.448 28.223 55.3892 28.2363 55.2082 28.2315C54.909 28.2233 54.6782 28.1751 54.6782 28.121C54.6782 28.0977 54.6424 28.0995 54.5945 28.1252C54.5317 28.1589 54.5044 28.1544 54.4866 28.1078C54.4683 28.0603 54.3848 28.0481 54.1397 28.0569C53.7928 28.0691 53.6508 28.0497 53.6847 27.9949C53.7128 27.9493 53.5893 27.8968 53.3996 27.8738C53.2472 27.8549 53.0254 27.7195 53.0715 27.6732C53.085 27.6596 53.0405 27.6549 52.9724 27.6623C52.8357 27.6774 52.7259 27.6482 52.7527 27.604C52.7874 27.5465 52.661 27.4651 52.5362 27.4651C52.4996 27.4651 52.47 27.4439 52.47 27.4177C52.47 27.3575 52.3555 27.2412 52.3255 27.2709C52.3133 27.2833 52.2484 27.2425 52.1814 27.1805C52.1143 27.1185 52.025 27.0676 51.9829 27.0676C51.9407 27.0676 51.8954 27.0263 51.8822 26.9759C51.8689 26.9256 51.817 26.8736 51.7666 26.8604C51.7147 26.8469 51.675 26.8002 51.675 26.7533C51.675 26.6995 51.6437 26.6701 51.5867 26.6701C51.5273 26.6701 51.4982 26.6407 51.4982 26.5803C51.4982 26.531 51.4685 26.4793 51.4319 26.4653C51.3956 26.4512 51.3657 26.4123 51.3657 26.3784C51.3657 26.3444 51.3479 26.3169 51.3265 26.3169C51.3047 26.3169 51.2745 26.2671 51.2594 26.2064C51.2441 26.1457 51.2035 26.0959 51.1693 26.0959C51.1349 26.0959 51.1007 26.0513 51.0927 25.9965C51.0837 25.9326 51.0432 25.8921 50.9793 25.8831C50.9004 25.8719 50.8797 25.8404 50.8792 25.7286C50.8786 25.5775 50.828 25.4665 50.7647 25.476C50.7429 25.4795 50.7093 25.4016 50.6897 25.3035C50.6687 25.198 50.6187 25.1058 50.5683 25.0788C50.5055 25.0451 50.4825 24.9858 50.4825 24.8578C50.4825 24.7613 50.4615 24.6826 50.4355 24.6826C50.4098 24.6826 50.4011 24.6627 50.4162 24.6384C50.4313 24.6143 50.4125 24.5944 50.3746 24.5944C50.3277 24.5944 50.3036 24.5485 50.2991 24.4507C50.2954 24.3718 50.2895 24.2576 50.2861 24.1969C50.2789 24.0668 50.1753 23.8434 50.1221 23.8434C50.1016 23.8434 50.0849 20.3679 50.0849 16.1197C50.0849 8.9917 50.0794 8.3912 50.0121 8.33529C49.9538 8.28706 49.618 8.27195 48.3558 8.26162C47.485 8.25446 46.7724 8.23459 46.7724 8.21736C46.7724 8.2004 46.4497 8.19113 46.0548 8.19722C44.2025 8.22531 43.2045 8.22849 43.2183 8.20623C43.2267 8.19298 43.1957 8.15827 43.1496 8.12965C43.0815 8.08725 43.0701 8.08884 43.0892 8.13839ZM14.8961 15.6633C14.961 15.68 14.9647 15.6951 14.9181 15.7526C14.8725 15.8091 14.8728 15.8157 14.9192 15.7876C14.9507 15.7688 15.0002 15.7733 15.0297 15.7974C15.0922 15.8496 15.0906 15.8494 15.3519 15.8494C15.5136 15.8494 15.5594 15.8663 15.5766 15.9326C15.5907 15.9866 15.6262 16.0084 15.6779 15.9949C15.7216 15.9835 15.7693 15.993 15.7833 16.0161C15.7976 16.0394 15.8798 16.0505 15.9656 16.041C16.0979 16.0264 16.1294 16.0407 16.1723 16.1353C16.2116 16.2209 16.2563 16.2469 16.3655 16.2469C16.4707 16.2469 16.5139 16.2699 16.5312 16.3351C16.5478 16.399 16.5913 16.4234 16.6875 16.4234C16.8338 16.4234 16.9782 16.5349 16.931 16.6112C16.9122 16.6415 16.9273 16.6494 16.9711 16.6324C17.0609 16.598 17.218 16.7342 17.1886 16.8209C17.1703 16.8755 17.1783 16.8773 17.2334 16.832C17.2893 16.7859 17.3201 16.8005 17.4194 16.9202C17.4846 16.9992 17.5472 17.0588 17.5583 17.0527C17.6312 17.0127 17.7131 17.058 17.7366 17.1518C17.752 17.2125 17.7798 17.2525 17.7989 17.2406C17.841 17.2147 17.9407 17.3273 17.9057 17.362C17.8919 17.3758 17.9216 17.4002 17.9717 17.4161C18.0899 17.4534 18.3069 17.671 18.3069 17.7518C18.3069 17.7865 18.3517 17.821 18.4063 17.8289C18.4699 17.8379 18.5057 17.8734 18.5057 17.9272C18.5057 17.9805 18.5465 18.0221 18.6162 18.0396C18.711 18.0632 18.7267 18.0923 18.7267 18.2439C18.7267 18.3852 18.7402 18.4151 18.795 18.3942C18.8345 18.3791 18.8523 18.3865 18.8367 18.4114C18.8218 18.4355 18.8287 18.4551 18.8518 18.4551C18.8748 18.4551 18.9061 18.5047 18.9215 18.5654C18.9366 18.6258 18.9718 18.6706 18.9999 18.6647C19.028 18.6586 19.0725 18.7233 19.0985 18.8084C19.1602 19.0087 19.2087 19.081 19.2596 19.0495C19.2824 19.0355 19.3033 19.0848 19.3062 19.1592C19.3158 19.3935 19.3208 19.4043 19.4223 19.4189C19.5058 19.4306 19.5217 19.4603 19.5217 19.6039C19.5217 19.698 19.5429 19.7881 19.5688 19.804C19.5948 19.8201 19.6049 19.862 19.5914 19.8972C19.5779 19.9325 19.585 19.95 19.6073 19.9365C19.6632 19.9018 19.7109 20.0695 19.7196 20.3321C19.7255 20.5123 19.7448 20.5611 19.823 20.5966C19.9316 20.6459 19.9348 20.7071 19.9218 22.5369C19.9144 23.5415 19.9152 23.537 19.7816 23.5113C19.7109 23.4975 19.7011 23.5066 19.7382 23.5511C19.7644 23.5829 19.7748 23.6197 19.7612 23.6332C19.7475 23.647 19.7289 23.7464 19.7196 23.854C19.6958 24.1349 19.6852 24.168 19.5988 24.2324C19.5461 24.2719 19.5217 24.3506 19.5217 24.4815C19.5217 24.6357 19.5068 24.6715 19.4454 24.6667C19.3712 24.6606 19.3619 24.6792 19.3505 24.8562C19.3473 24.9031 19.316 24.9701 19.2808 25.0054C19.2456 25.0406 19.2299 25.083 19.2463 25.0992C19.2625 25.1156 19.2418 25.1159 19.2 25.0997C19.1417 25.0775 19.1239 25.0947 19.1234 25.1747C19.1226 25.3025 19.0219 25.5025 18.9641 25.4917C18.9408 25.4874 18.9185 25.5253 18.9146 25.5762C18.9071 25.6743 18.821 25.7516 18.7606 25.7143C18.7407 25.7021 18.7272 25.7082 18.7307 25.7283C18.7598 25.8958 18.7177 26.0439 18.635 26.0654C18.5846 26.0786 18.533 26.1295 18.52 26.1785C18.5073 26.2276 18.454 26.2737 18.4018 26.2811C18.3355 26.2906 18.3085 26.324 18.3122 26.3921C18.3149 26.4457 18.3051 26.4873 18.29 26.4844C18.2277 26.473 18.1082 26.5511 18.1082 26.6039C18.1082 26.6351 18.0562 26.6736 17.9926 26.6895C17.929 26.7056 17.889 26.7308 17.9039 26.7454C17.9494 26.791 17.8408 26.8872 17.7732 26.8615C17.7327 26.8458 17.7178 26.8585 17.7319 26.897C17.7621 26.9791 17.7067 27.0538 17.6004 27.075C17.549 27.0854 17.517 27.1225 17.5238 27.1636C17.5344 27.2279 17.4401 27.2658 17.1937 27.2966C17.1645 27.3003 17.1483 27.3157 17.1576 27.331C17.1884 27.3806 17.1081 27.4707 17.0217 27.4831C16.9756 27.4898 16.9316 27.5369 16.9241 27.5881C16.9125 27.6665 16.8841 27.6787 16.7394 27.6679C16.5918 27.6565 16.5651 27.6689 16.5425 27.7587C16.5182 27.8563 16.3385 27.9037 16.1429 27.8642C16.1185 27.8592 16.113 27.8695 16.1302 27.8867C16.2216 27.9784 16.0759 28.0688 15.8591 28.055C15.6617 28.0426 15.6307 28.0529 15.5806 28.1483C15.5499 28.2071 15.5093 28.254 15.4908 28.2522C15.3731 28.2408 14.9263 28.3158 14.9048 28.3505C14.8905 28.3735 14.8577 28.3926 14.832 28.3926C14.8018 28.3926 14.8047 28.3648 14.8399 28.3152C14.8704 28.2728 14.8479 28.2877 14.7901 28.3484L14.6854 28.4589L13.4603 28.456C12.2972 28.4533 12.2302 28.4488 12.1353 28.3643C12.0625 28.2996 11.9655 28.2734 11.7781 28.2678C11.534 28.2604 11.3949 28.196 11.3949 28.0905C11.3949 28.0667 11.3104 28.0508 11.2073 28.0555C11.0809 28.0611 10.9979 28.0402 10.9532 27.9911C10.9169 27.9514 10.8177 27.9034 10.7332 27.8849C10.6487 27.8663 10.4918 27.7842 10.3847 27.7023C10.2774 27.6204 10.1714 27.5534 10.1494 27.5534C10.1272 27.5534 10.1195 27.5361 10.1325 27.5152C10.1457 27.494 10.1219 27.4768 10.08 27.477C9.88733 27.4776 9.84917 27.4609 9.84917 27.3769C9.84917 27.2995 9.80624 27.2698 9.71137 27.2812C9.69653 27.2831 9.63823 27.2356 9.58232 27.176C9.52614 27.1164 9.43418 27.0676 9.37774 27.0676C9.31493 27.0676 9.27492 27.0414 9.27492 27.0003C9.27492 26.9632 9.22536 26.9139 9.16441 26.8909C9.09551 26.8646 9.05417 26.8146 9.05417 26.757C9.05417 26.7064 9.0343 26.677 9.01018 26.6921C8.9858 26.707 8.94287 26.6685 8.91478 26.6063C8.88643 26.5443 8.83608 26.4934 8.80322 26.4934C8.77009 26.4934 8.72027 26.4438 8.69271 26.3831C8.64819 26.2856 8.60685 26.2567 8.52232 26.2644C8.50907 26.2655 8.49502 26.2233 8.49105 26.1709C8.48707 26.1181 8.46084 26.0675 8.43275 26.0582C8.39697 26.0463 8.39989 26.0296 8.44176 26.0029C8.48601 25.975 8.48734 25.9647 8.44679 25.9642C8.41632 25.9636 8.37657 25.9631 8.35855 25.9628C8.34026 25.9623 8.30316 25.8979 8.2764 25.8192C8.24407 25.7249 8.20273 25.6809 8.15476 25.6894C8.1015 25.6989 8.08242 25.669 8.08242 25.5762C8.08242 25.4609 7.95681 25.2216 7.94965 25.3231C7.9478 25.3472 7.90115 25.2624 7.84604 25.1344C7.79065 25.0065 7.73182 24.9156 7.71513 24.932C7.69843 24.9487 7.68333 24.9243 7.68174 24.8777C7.67458 24.694 7.63589 24.57 7.57123 24.5212C7.5336 24.4934 7.49571 24.4139 7.48669 24.3447C7.47768 24.2756 7.46656 24.2088 7.46178 24.1969C7.45728 24.1847 7.45648 24.1585 7.45993 24.1383C7.46337 24.1182 7.44986 24.1121 7.42998 24.1243C7.33352 24.1839 7.28556 24.062 7.2792 23.7411C7.27549 23.5492 7.25323 23.4019 7.22832 23.4019C7.2042 23.4019 7.19731 23.3889 7.21321 23.373C7.22885 23.3571 7.20738 23.3192 7.16525 23.2882C7.03964 23.1965 7.04971 21.0251 7.17638 20.8852C7.24422 20.8099 7.26648 20.714 7.27602 20.4559C7.28609 20.1742 7.30517 20.1029 7.40057 19.9897C7.46231 19.9163 7.50975 19.814 7.50577 19.7629C7.49305 19.6004 7.50657 19.5594 7.57256 19.5594C7.61231 19.5594 7.64728 19.4966 7.66425 19.3937C7.67935 19.3026 7.70346 19.1982 7.71751 19.1619C7.73155 19.1253 7.74004 19.0805 7.73606 19.0625C7.73235 19.0442 7.75885 19.0294 7.79542 19.0294C7.83173 19.0294 7.86167 19.0021 7.86167 18.969C7.86167 18.9358 7.90566 18.8526 7.95946 18.7842C8.01352 18.7156 8.06175 18.6319 8.06651 18.598C8.08507 18.4718 8.12588 18.4109 8.19133 18.4109C8.22896 18.4109 8.25917 18.3727 8.25917 18.3255C8.25917 18.2786 8.29866 18.2277 8.34742 18.2121C8.39591 18.1967 8.44865 18.131 8.46481 18.0658C8.48098 18.0006 8.52762 17.9174 8.56843 17.8809C8.60924 17.8446 8.66727 17.7682 8.69748 17.7115C8.72743 17.6548 8.76347 17.6198 8.77751 17.6339C8.81514 17.6712 8.92485 17.5684 8.89623 17.5226C8.88298 17.5009 8.92406 17.4635 8.98792 17.4394C9.05152 17.415 9.09207 17.3766 9.07802 17.354C9.0502 17.309 9.70316 16.8357 9.76729 16.8543C9.78902 16.8606 9.8293 16.8158 9.85712 16.7549C9.88468 16.6942 9.93265 16.6444 9.96339 16.6444C9.99413 16.6444 10.0593 16.5935 10.1081 16.5315C10.1568 16.4697 10.208 16.4199 10.2215 16.4212C10.3829 16.4358 10.46 16.4122 10.4783 16.3425C10.4899 16.298 10.527 16.2593 10.5607 16.2564C10.5944 16.2538 10.6868 16.2474 10.7658 16.2424C10.8702 16.2357 10.9068 16.2137 10.8983 16.1629C10.8896 16.1085 10.946 16.0828 11.1403 16.0521C11.3194 16.0237 11.4005 15.9893 11.418 15.9344C11.436 15.878 11.5041 15.8518 11.6726 15.8364C11.971 15.8096 12.0579 15.7874 12.094 15.7291C12.143 15.6506 14.6184 15.5923 14.8961 15.6633ZM67.3653 21.1714C67.3659 21.2686 67.3749 21.3031 67.3855 21.2482C67.3958 21.1931 67.3956 21.1136 67.3844 21.0715C67.3733 21.0293 67.3648 21.0741 67.3653 21.1714Z" fill="#0474FC"/>
<path fill-rule="evenodd" clip-rule="evenodd" d="M74.9067 1.0091C74.9067 1.03321 74.8487 1.05309 74.7777 1.05309C74.5914 1.05309 74.5092 1.09522 74.5092 1.19036C74.5092 1.24574 74.478 1.2741 74.4167 1.2741C74.363 1.2741 74.315 1.30934 74.3023 1.35837C74.2901 1.40448 74.2421 1.45244 74.196 1.46463C74.148 1.47709 74.1117 1.52505 74.1117 1.57593C74.1117 1.63503 74.0781 1.67027 74.0124 1.67955C73.9297 1.69121 73.9106 1.72513 73.8992 1.88121C73.8883 2.03306 73.8693 2.0691 73.7998 2.0691C73.7232 2.0691 73.7142 2.10143 73.7142 2.37809C73.7142 2.6203 73.7002 2.68735 73.6496 2.68735C73.4967 2.68735 73.4893 2.82912 73.5025 5.48601C73.5131 7.61847 73.5266 8.11985 73.5756 8.17894C73.6313 8.24572 73.5017 8.25209 71.8751 8.26295L70.1145 8.27434L70.1004 8.37372C70.0885 8.45799 70.0594 8.47309 69.9086 8.47309C69.7708 8.47309 69.726 8.49218 69.7088 8.55736C69.6968 8.60374 69.6489 8.65171 69.6025 8.66363C69.5548 8.67635 69.5182 8.72432 69.5182 8.7752C69.5182 8.83429 69.4846 8.86927 69.4188 8.87855C69.3364 8.89047 69.3174 8.92439 69.306 9.08048C69.2951 9.23232 69.276 9.2681 69.2066 9.2681C69.1297 9.2681 69.1207 9.30069 69.1207 9.57735C69.1207 9.82486 69.1075 9.88661 69.0534 9.88661C68.8814 9.88661 68.8536 10.3644 69.0213 10.4381C69.1136 10.4784 69.1207 10.5096 69.1207 10.8687C69.1207 11.2174 69.1289 11.2556 69.2034 11.2556C69.2657 11.2556 69.2932 11.2991 69.3139 11.4294C69.3333 11.5492 69.369 11.6118 69.43 11.6311C69.4785 11.6465 69.5182 11.6976 69.5182 11.7445C69.5182 11.7914 69.5484 11.8299 69.5855 11.8299C69.6224 11.8299 69.6754 11.8797 69.7029 11.9404C69.7308 12.001 69.7875 12.0506 69.8293 12.0506C69.8712 12.0506 69.9152 12.0874 69.9269 12.1325C69.9417 12.1895 70.0069 12.2236 70.1407 12.2448C70.2464 12.2618 70.3705 12.3095 70.416 12.3508C70.4902 12.4182 70.6601 12.4274 72.0074 12.4388L73.5155 12.4513L73.5017 20.5653C73.4871 29.2348 73.4946 29.7587 73.6305 29.7942C73.7081 29.8144 73.7142 29.8663 73.7142 30.5116C73.7142 31.1402 73.7227 31.2178 73.8025 31.3193C73.8648 31.3988 73.8907 31.4987 73.8907 31.6596C73.8907 31.9116 73.9482 32.0581 74.0471 32.0581C74.0942 32.0581 74.1117 32.1119 74.1117 32.2569C74.1117 32.4243 74.1252 32.4556 74.1973 32.4556C74.2668 32.4556 74.2858 32.4917 74.2967 32.6435C74.3081 32.7996 74.3272 32.8335 74.4099 32.8452C74.4957 32.8574 74.5092 32.8857 74.5092 33.055C74.5092 33.2175 74.5233 33.2506 74.5924 33.2506C74.6534 33.2506 74.6841 33.2938 74.7059 33.4101C74.7255 33.5151 74.765 33.5774 74.8211 33.5919C74.8755 33.6062 74.9067 33.6526 74.9067 33.7197C74.9067 33.7843 74.9324 33.8249 74.9738 33.8249C75.0109 33.8249 75.0636 33.8747 75.0914 33.9354C75.119 33.9961 75.1781 34.0456 75.2229 34.0456C75.2746 34.0456 75.3042 34.0777 75.3042 34.1331C75.3042 34.1898 75.3432 34.2306 75.4145 34.2483C75.4836 34.2658 75.525 34.3074 75.525 34.3596C75.525 34.4182 75.5565 34.4431 75.6302 34.4431C75.6972 34.4431 75.7436 34.4744 75.7579 34.5287C75.7725 34.5849 75.8348 34.6244 75.9397 34.644C76.056 34.6657 76.0992 34.6965 76.0992 34.7574C76.0992 34.8231 76.1316 34.8406 76.2527 34.8406C76.3677 34.8406 76.4244 34.8684 76.4787 34.9511C76.5201 35.0142 76.5932 35.0616 76.6494 35.0616C76.7037 35.0616 76.784 35.1014 76.828 35.1499C76.8722 35.1989 76.9639 35.2381 77.0334 35.2381C77.1131 35.2381 77.1592 35.2614 77.1592 35.3015C77.1592 35.3764 77.2279 35.3995 77.5676 35.4395C77.7073 35.4557 77.8217 35.4867 77.8217 35.5084C77.8217 35.5299 78.3218 35.5474 78.9422 35.5474H80.0626L80.0899 35.3817C80.1257 35.1658 80.1257 31.8655 80.0899 31.6492C80.0647 31.4974 80.048 31.4809 79.893 31.456C79.7812 31.4383 79.7144 31.4007 79.6969 31.3461C79.6789 31.2894 79.629 31.2631 79.5381 31.2631C79.4051 31.2631 79.2792 31.1786 79.2792 31.0898C79.2792 31.0636 79.2395 31.0424 79.1907 31.0424C79.1319 31.0424 79.1025 31.013 79.1025 30.9541C79.1025 30.8892 79.0731 30.8656 78.992 30.8656C78.9037 30.8656 78.8817 30.8436 78.8817 30.7554C78.8817 30.6753 78.8579 30.6449 78.7959 30.6449C78.7264 30.6449 78.7074 30.6088 78.6965 30.4572C78.6851 30.3012 78.666 30.267 78.5836 30.2553C78.493 30.2426 78.4842 30.2174 78.4842 29.9752C78.4842 29.7463 78.4718 29.706 78.3957 29.6861C78.3078 29.663 78.3075 29.6257 78.3075 21.0556V12.4481L79.9969 12.45L81.6862 12.4518L81.7827 12.6034C81.8357 12.6866 81.8927 12.8453 81.9094 12.9561C81.929 13.0862 81.969 13.1731 82.0228 13.2018C82.0784 13.2317 82.1057 13.2945 82.1057 13.3934C82.1057 13.4766 82.1468 13.5924 82.2001 13.6602C82.2517 13.7259 82.304 13.8685 82.3164 13.9769C82.331 14.1081 82.366 14.1886 82.4208 14.218C82.4794 14.2493 82.5032 14.3113 82.5032 14.4319C82.5032 14.5559 82.5287 14.6185 82.5973 14.664C82.6673 14.7104 82.6969 14.7865 82.7139 14.9622C82.7309 15.1408 82.7558 15.203 82.8165 15.2189C82.874 15.234 82.8999 15.2905 82.9095 15.423C82.9206 15.5743 82.9402 15.6085 83.0224 15.6202C83.1114 15.6329 83.1217 15.6591 83.1217 15.8746C83.1217 16.0603 83.1416 16.1321 83.21 16.1904C83.2585 16.232 83.2982 16.3198 83.2982 16.3852C83.2982 16.562 83.342 16.6441 83.4355 16.6441C83.5052 16.6441 83.5192 16.6772 83.5192 16.8429C83.5192 17.0122 83.5322 17.0416 83.6075 17.0416C83.682 17.0416 83.696 17.0713 83.6965 17.2292C83.6973 17.4932 83.735 17.6039 83.8325 17.6296C83.8985 17.6469 83.9167 17.6917 83.9167 17.8366C83.9167 17.9842 83.9345 18.0261 84.005 18.0446C84.0734 18.0624 84.0932 18.1048 84.0932 18.2328C84.0932 18.3475 84.1269 18.4339 84.2037 18.5169C84.2872 18.607 84.3142 18.6841 84.3142 18.8325C84.3142 18.9976 84.3278 19.0291 84.3998 19.0291C84.4693 19.0291 84.4883 19.0649 84.4992 19.2167C84.5098 19.3617 84.5355 19.4144 84.6124 19.4481C84.699 19.4862 84.7117 19.5244 84.7117 19.7502C84.7117 19.9717 84.7245 20.0123 84.8 20.0321C84.8617 20.0483 84.8882 20.0923 84.8882 20.1789C84.8882 20.3602 84.9312 20.4424 85.0255 20.4424C85.0963 20.4424 85.1092 20.476 85.1092 20.6597C85.1092 20.918 85.141 21.0166 85.2243 21.0166C85.2635 21.0166 85.2857 21.0656 85.2857 21.152C85.2857 21.3198 85.3565 21.4581 85.4421 21.4581C85.4893 21.4581 85.5067 21.5119 85.5067 21.6569C85.5067 21.8262 85.5197 21.8556 85.595 21.8556C85.6618 21.8556 85.6835 21.8853 85.6838 21.9772C85.6848 22.2576 85.7373 22.4299 85.8216 22.4299C85.8899 22.4299 85.9042 22.4638 85.9042 22.6257C85.9042 22.7783 85.9225 22.8271 85.9869 22.8478C86.0471 22.8668 86.0776 22.9334 86.0988 23.0921C86.1173 23.232 86.1576 23.3311 86.2116 23.369C86.2681 23.4082 86.3004 23.4925 86.3097 23.6245C86.3216 23.7896 86.3396 23.8235 86.4231 23.8352C86.509 23.8473 86.5225 23.8757 86.5225 24.045C86.5225 24.2112 86.5357 24.2406 86.6107 24.2406C86.6884 24.2406 86.6992 24.27 86.6992 24.4804C86.6992 24.7097 86.77 24.8591 86.8789 24.8591C86.9014 24.8591 86.92 24.9484 86.92 25.0579C86.92 25.2251 86.9335 25.2566 87.0059 25.2566C87.075 25.2566 87.0941 25.2924 87.1052 25.4442C87.1164 25.6003 87.1354 25.6342 87.2181 25.6462C87.3093 25.6592 87.3175 25.6833 87.3175 25.9443C87.3175 26.1987 87.3268 26.2281 87.4057 26.2281C87.481 26.2281 87.4942 26.2575 87.4942 26.4261C87.4942 26.6004 87.5072 26.6272 87.6045 26.6518C87.7009 26.676 87.715 26.7035 87.715 26.8697C87.715 27.1002 87.7489 27.1999 87.8276 27.1999C87.8668 27.1999 87.8915 27.2706 87.9002 27.4097C87.9119 27.5886 87.9283 27.6215 88.0131 27.6337C88.099 27.6459 88.1125 27.674 88.1125 27.8433C88.1125 28.0081 88.1263 28.0391 88.1986 28.0391C88.2736 28.0391 88.2866 28.0752 88.298 28.315C88.3094 28.5524 88.3253 28.5972 88.4106 28.6348C88.4914 28.6701 88.51 28.7138 88.51 28.8667C88.51 29.0212 88.5248 29.0549 88.5927 29.0549C88.66 29.0549 88.6796 29.0973 88.6973 29.2838C88.713 29.4463 88.7469 29.535 88.8134 29.5891C88.8813 29.644 88.9075 29.715 88.9075 29.843C88.9075 29.9802 88.9271 30.0269 88.9934 30.0478C89.0572 30.0682 89.0827 30.1228 89.0927 30.2606C89.1039 30.4143 89.1232 30.4485 89.2056 30.4602C89.296 30.4731 89.305 30.4981 89.305 30.7405C89.305 30.9692 89.3174 31.0098 89.3932 31.0296C89.4552 31.0458 89.4817 31.0898 89.4817 31.1765C89.4817 31.3577 89.5244 31.4399 89.6187 31.4399C89.6884 31.4399 89.7025 31.473 89.7025 31.6386C89.7025 31.7791 89.7205 31.8374 89.764 31.8374C89.8416 31.8374 89.8636 31.8954 89.9023 32.206C89.9277 32.41 89.9487 32.4556 90.0168 32.4556C90.0859 32.4556 90.1 32.4893 90.1 32.6544C90.1 32.837 90.109 32.8531 90.2105 32.8531C90.3168 32.8531 90.3207 32.8635 90.3207 33.1404C90.3207 33.3953 90.3305 33.4274 90.4069 33.4274C90.4779 33.4274 90.4948 33.4634 90.5062 33.6373C90.5176 33.8161 90.5341 33.849 90.6189 33.8612C90.7031 33.8731 90.7182 33.9023 90.7182 34.053C90.7182 34.1935 90.7368 34.2354 90.8067 34.2536C90.8555 34.2666 90.895 34.3141 90.895 34.3599C90.895 34.4193 90.9268 34.4431 91.0055 34.4431C91.1049 34.4431 91.1157 34.4609 91.1157 34.6209C91.1157 34.7699 91.1338 34.8056 91.2262 34.8406C91.2869 34.8637 91.3367 34.9114 91.3367 34.9461C91.3367 34.9858 91.403 35.0208 91.5132 35.0394C91.632 35.0595 91.69 35.0921 91.69 35.1387C91.69 35.2299 91.9484 35.4591 92.0512 35.4591C92.0954 35.4591 92.1317 35.479 92.1317 35.5031C92.1317 35.5317 92.6837 35.5474 93.6995 35.5474C94.6275 35.5474 95.2675 35.5307 95.2675 35.5066C95.2675 35.4843 95.3385 35.4424 95.4252 35.4138C95.5118 35.3852 95.5929 35.3359 95.6051 35.3041C95.6173 35.2723 95.6743 35.2344 95.7315 35.2201C95.7888 35.2055 95.8484 35.1541 95.8637 35.1056C95.8791 35.0571 95.9207 35.0174 95.9562 35.0174C95.9915 35.0174 96.0394 34.9678 96.0625 34.9069C96.0856 34.8462 96.1327 34.7966 96.1672 34.7966C96.2393 34.7966 96.2832 34.7031 96.2832 34.5499C96.2832 34.4656 96.3063 34.4431 96.3937 34.4431C96.4725 34.4431 96.5043 34.4193 96.5043 34.3599C96.5043 34.3141 96.5437 34.2666 96.5925 34.2536C96.6625 34.2354 96.6807 34.1935 96.6807 34.053C96.6807 33.9023 96.6959 33.8731 96.7801 33.8612C96.8647 33.849 96.8816 33.8161 96.8927 33.6418C96.9031 33.482 96.9251 33.4316 96.9921 33.4141C97.0658 33.3948 97.0782 33.3521 97.0782 33.1224C97.0782 32.8648 97.083 32.8531 97.1887 32.8531C97.2902 32.8531 97.2993 32.837 97.2993 32.6544C97.2993 32.489 97.313 32.4556 97.3827 32.4556C97.4901 32.4556 97.52 32.3729 97.52 32.0767C97.52 31.8668 97.5309 31.8374 97.6082 31.8374C97.6835 31.8374 97.6968 31.808 97.6968 31.6418C97.6968 31.4725 97.71 31.4441 97.7961 31.4319C97.8783 31.4203 97.8976 31.3861 97.9088 31.2345C97.9188 31.097 97.9435 31.0458 98.0081 31.0289C98.0813 31.0098 98.0943 30.9668 98.0943 30.7405C98.0943 30.4981 98.103 30.4731 98.1936 30.4602C98.2766 30.4485 98.2951 30.4146 98.3068 30.2535C98.3171 30.1069 98.341 30.0555 98.4062 30.0385C98.4793 30.0195 98.4918 29.976 98.4918 29.7372C98.4918 29.4818 98.5 29.4574 98.5911 29.4444C98.6735 29.4328 98.6926 29.3986 98.704 29.2425C98.7149 29.0909 98.734 29.0549 98.8034 29.0549C98.8768 29.0549 98.8893 29.0233 98.8893 28.8341C98.8893 28.6656 98.9052 28.6131 98.9566 28.6131C99.0422 28.6131 99.11 28.4364 99.11 28.2127C99.11 28.0685 99.1248 28.0391 99.1982 28.0391C99.2735 28.0391 99.2868 28.0097 99.2868 27.8433C99.2868 27.674 99.3 27.6459 99.3861 27.6337C99.4744 27.621 99.4868 27.5905 99.4988 27.3607C99.5099 27.1479 99.5274 27.0981 99.5981 27.0796C99.6665 27.0618 99.6843 27.0181 99.6843 26.8684C99.6843 26.7038 99.6983 26.676 99.7945 26.6518C99.8912 26.6275 99.905 26.5999 99.905 26.4314C99.905 26.2755 99.922 26.2339 99.9932 26.2154C100.07 26.1955 100.082 26.1552 100.082 25.9231C100.082 25.6655 100.086 25.6541 100.192 25.6541C100.293 25.6541 100.303 25.638 100.303 25.4554C100.303 25.286 100.315 25.2566 100.391 25.2566C100.467 25.2566 100.479 25.2272 100.479 25.0356C100.479 24.8673 100.495 24.8149 100.547 24.8149C100.632 24.8149 100.7 24.6384 100.7 24.4176C100.7 24.2743 100.716 24.2446 100.799 24.2327C100.882 24.221 100.901 24.1868 100.912 24.0355C100.922 23.8977 100.947 23.8468 101.011 23.8299C101.085 23.8108 101.098 23.7678 101.098 23.5429C101.098 23.2977 101.105 23.2765 101.208 23.2508C101.302 23.2272 101.318 23.1978 101.318 23.0502C101.318 22.9164 101.338 22.8711 101.407 22.8494C101.478 22.8268 101.495 22.7826 101.495 22.6257C101.495 22.4797 101.512 22.4299 101.562 22.4299C101.648 22.4299 101.716 22.2531 101.716 22.0294C101.716 21.885 101.731 21.8556 101.804 21.8556C101.88 21.8556 101.893 21.8262 101.893 21.6569C101.893 21.5119 101.91 21.4581 101.957 21.4581C102.043 21.4581 102.113 21.3198 102.113 21.152C102.113 21.0754 102.152 20.9782 102.202 20.9281C102.264 20.8664 102.29 20.781 102.29 20.6443C102.29 20.475 102.304 20.4466 102.389 20.4344C102.472 20.4228 102.491 20.3886 102.502 20.237C102.512 20.0994 102.537 20.0483 102.601 20.0313C102.675 20.0123 102.688 19.9693 102.688 19.7446C102.688 19.4995 102.695 19.4783 102.798 19.4526C102.893 19.4287 102.908 19.4001 102.908 19.2448C102.908 19.102 102.927 19.0601 102.997 19.0418C103.068 19.0233 103.085 18.9817 103.085 18.8274C103.085 18.6846 103.113 18.6059 103.196 18.5169C103.273 18.4326 103.306 18.3478 103.306 18.2275C103.306 18.0868 103.321 18.0574 103.394 18.0574C103.47 18.0574 103.483 18.0279 103.483 17.8544C103.483 17.6919 103.499 17.6471 103.567 17.6296C103.664 17.6039 103.702 17.4932 103.703 17.2292C103.703 17.0713 103.717 17.0416 103.792 17.0416C103.867 17.0416 103.88 17.0122 103.88 16.8458C103.88 16.6764 103.894 16.6484 103.979 16.6362C104.061 16.6245 104.081 16.5898 104.092 16.4454C104.101 16.3338 104.138 16.2437 104.192 16.2016C104.251 16.1565 104.288 16.0569 104.307 15.8973C104.328 15.7187 104.355 15.6554 104.417 15.6392C104.48 15.6225 104.498 15.5754 104.498 15.4243C104.498 15.2632 104.513 15.2306 104.583 15.2306C104.65 15.2306 104.673 15.1871 104.696 15.0133C104.714 14.8858 104.761 14.7645 104.811 14.7194C104.869 14.6669 104.896 14.584 104.896 14.456C104.896 14.31 104.914 14.2647 104.979 14.2474C105.037 14.2323 105.073 14.1685 105.095 14.0389C105.112 13.9361 105.164 13.8144 105.21 13.7686C105.269 13.7087 105.293 13.6218 105.293 13.4641C105.293 13.2773 105.306 13.2431 105.376 13.2431C105.459 13.2431 105.512 13.1323 105.513 12.9556C105.514 12.9068 105.554 12.8422 105.603 12.8117C105.667 12.7717 105.691 12.7089 105.691 12.5803C105.691 12.459 105.71 12.4041 105.752 12.4041C105.828 12.4041 105.856 12.3347 105.894 12.0511C105.91 11.9295 105.94 11.8299 105.962 11.8299C105.983 11.8299 106 11.303 106 10.6593C106 9.9086 105.984 9.48911 105.956 9.48911C105.932 9.48911 105.912 9.45148 105.912 9.4059C105.912 9.36005 105.862 9.28983 105.801 9.25008C105.741 9.21033 105.691 9.14858 105.691 9.11254C105.691 9.07677 105.653 9.04735 105.608 9.04735C105.562 9.04735 105.514 9.00787 105.501 8.95911C105.487 8.90611 105.441 8.8706 105.386 8.8706C105.325 8.8706 105.293 8.8425 105.293 8.78738C105.293 8.70365 105.182 8.65171 105 8.65038C104.944 8.65012 104.897 8.6146 104.883 8.5616C104.848 8.42804 102.957 8.42301 102.923 8.55657C102.907 8.61381 102.845 8.64879 102.723 8.66814C102.598 8.68801 102.539 8.7222 102.523 8.78368C102.51 8.83323 102.463 8.8706 102.413 8.8706C102.364 8.8706 102.316 8.90796 102.304 8.95487C102.292 9.00124 102.244 9.04921 102.198 9.06113C102.148 9.07412 102.113 9.12182 102.113 9.17561C102.113 9.22755 102.085 9.2681 102.049 9.2681C101.968 9.2681 101.893 9.40378 101.893 9.54714C101.893 9.61737 101.862 9.66321 101.806 9.67779C101.734 9.69687 101.718 9.74616 101.707 9.98121C101.695 10.234 101.684 10.2634 101.594 10.2762C101.509 10.2883 101.495 10.3164 101.495 10.4858C101.495 10.6522 101.482 10.6816 101.407 10.6816C101.331 10.6816 101.318 10.711 101.318 10.8804C101.318 11.0253 101.301 11.0791 101.254 11.0791C101.158 11.0791 101.098 11.2235 101.098 11.4514C101.098 11.6237 101.085 11.6531 101.009 11.6531C100.935 11.6531 100.921 11.6825 100.921 11.845C100.921 12.0063 100.904 12.0445 100.811 12.0869C100.71 12.1325 100.7 12.1622 100.7 12.403C100.7 12.6341 100.689 12.6691 100.617 12.6691C100.552 12.6691 100.527 12.7126 100.504 12.8631C100.483 13.0041 100.451 13.0634 100.389 13.0799C100.315 13.0992 100.303 13.1416 100.303 13.3716C100.303 13.5786 100.288 13.6406 100.238 13.6406C100.152 13.6406 100.082 13.7789 100.082 13.9469C100.082 14.0529 100.062 14.0824 99.9932 14.0824C99.9143 14.0824 99.905 14.1118 99.905 14.3664C99.905 14.6272 99.8968 14.6516 99.8056 14.6646C99.7235 14.6762 99.7039 14.7104 99.693 14.8617C99.6829 14.9995 99.6583 15.0504 99.5936 15.0674C99.5194 15.0867 99.5075 15.1296 99.5075 15.3779C99.5075 15.6432 99.4996 15.6673 99.4081 15.6803C99.3254 15.692 99.3064 15.7262 99.2952 15.8822C99.2841 16.0338 99.265 16.0699 99.1959 16.0699C99.1198 16.0699 99.11 16.1022 99.11 16.3539C99.11 16.6147 99.1018 16.6391 99.0106 16.6521C98.9285 16.6637 98.9089 16.6979 98.898 16.8492C98.8879 16.987 98.8633 17.0379 98.7986 17.0549C98.7244 17.0742 98.7125 17.1171 98.7125 17.3654C98.7125 17.6307 98.7045 17.6548 98.6131 17.6678C98.5304 17.6795 98.5114 17.7137 98.5002 17.8697C98.4891 18.0213 98.47 18.0574 98.4009 18.0574C98.3288 18.0574 98.315 18.0886 98.315 18.254C98.315 18.405 98.2893 18.4766 98.2045 18.5614C98.1192 18.6467 98.0943 18.7172 98.0943 18.8725C98.0943 19.0437 98.0813 19.0731 98.0057 19.0731C97.9305 19.0731 97.9175 19.1025 97.9175 19.2719C97.9175 19.4171 97.9 19.4706 97.8528 19.4706C97.758 19.4706 97.6968 19.6148 97.6968 19.8382C97.6968 19.9974 97.6801 20.039 97.6082 20.0576C97.538 20.0761 97.52 20.118 97.52 20.2627C97.52 20.4161 97.5028 20.4511 97.4095 20.4866C97.3088 20.5248 97.2993 20.5513 97.2993 20.7945C97.2993 21.0312 97.2895 21.0606 97.2107 21.0606C97.1358 21.0606 97.1225 21.09 97.1225 21.2564C97.1225 21.4258 97.109 21.4539 97.0231 21.4661C96.9351 21.4788 96.9222 21.5093 96.9105 21.7332C96.901 21.9174 96.8755 22.0016 96.8169 22.0427C96.7727 22.0734 96.7226 22.1813 96.7054 22.2823C96.6839 22.4103 96.6489 22.472 96.5893 22.4876C96.5233 22.5049 96.5043 22.5491 96.5043 22.6856C96.5043 22.8223 96.4852 22.8663 96.4187 22.8835C96.3506 22.9016 96.3267 22.9607 96.3026 23.1745C96.279 23.3823 96.2533 23.4493 96.1894 23.4695C96.1253 23.4899 96.1068 23.5389 96.1068 23.6865C96.1068 23.8346 96.0885 23.8818 96.0251 23.8985C95.9419 23.9202 95.8857 24.0941 95.8857 24.3294C95.8857 24.4142 95.859 24.4582 95.7975 24.4743C95.7278 24.4926 95.7093 24.5345 95.7093 24.6731C95.7093 24.8066 95.6896 24.8538 95.6276 24.87C95.5412 24.8925 95.4882 25.0669 95.4882 25.3282C95.4882 25.4479 95.4708 25.4774 95.4 25.4774C95.3247 25.4774 95.3118 25.5068 95.3118 25.6761C95.3118 25.8409 95.2974 25.8749 95.2288 25.8749C95.1403 25.8749 95.0907 26.0257 95.0907 26.2949C95.0907 26.4017 95.068 26.4446 95.0025 26.4618C94.932 26.4804 94.9142 26.522 94.9142 26.6699C94.9142 26.8143 94.8957 26.8596 94.8305 26.8766C94.7478 26.8983 94.6932 27.0552 94.6932 27.2712C94.6932 27.3287 94.6535 27.4007 94.605 27.4309C94.539 27.472 94.5168 27.534 94.5168 27.6742C94.5168 27.8133 94.499 27.8624 94.4494 27.8624C94.3776 27.8624 94.2957 28.0306 94.2957 28.1785C94.2957 28.2278 94.256 28.3184 94.2075 28.3804C94.1497 28.4536 94.1192 28.5596 94.1192 28.6855C94.1192 28.8288 94.1018 28.8781 94.0519 28.8781C93.9751 28.8781 93.899 29.0477 93.8967 29.2234C93.8959 29.2886 93.8463 29.4015 93.7867 29.4744L93.678 29.6069L93.6778 29.4879C93.6775 29.4208 93.6404 29.3432 93.5924 29.3095C93.5386 29.2716 93.5021 29.1855 93.4931 29.075C93.4814 28.9327 93.4602 28.8977 93.3794 28.8861C93.2922 28.8739 93.28 28.8463 93.28 28.6611C93.28 28.5063 93.2564 28.4289 93.1917 28.3704C93.1377 28.3213 93.1032 28.2342 93.1032 28.1462C93.1032 27.9448 93.0635 27.8624 92.9662 27.8624C92.8965 27.8624 92.8825 27.8292 92.8825 27.6636C92.8825 27.4943 92.8695 27.4649 92.7942 27.4649C92.7174 27.4649 92.7057 27.4355 92.7057 27.2412C92.7057 26.9929 92.648 26.8466 92.5497 26.8466C92.5033 26.8466 92.485 26.7949 92.485 26.6656C92.485 26.522 92.467 26.4801 92.3967 26.4618C92.3265 26.4436 92.3082 26.4014 92.3077 26.2562C92.3069 25.9886 92.2661 25.8749 92.1707 25.8749C92.1015 25.8749 92.0875 25.8412 92.0875 25.6761C92.0875 25.5068 92.0745 25.4774 91.9992 25.4774C91.9282 25.4774 91.9107 25.448 91.9107 25.3284C91.9107 25.0716 91.8604 24.9071 91.7729 24.8795C91.7099 24.8594 91.69 24.8106 91.69 24.6752C91.69 24.5345 91.6714 24.4926 91.6017 24.4743C91.5331 24.4563 91.5132 24.4142 91.5132 24.2849C91.5132 24.1561 91.4883 24.102 91.403 24.0461C91.3076 23.9836 91.2925 23.9409 91.2925 23.7347C91.2925 23.5346 91.2782 23.4912 91.2042 23.4679C91.143 23.4483 91.1157 23.4008 91.1157 23.3139C91.1157 23.1305 91.0733 23.0481 90.9787 23.0481C90.9067 23.0481 90.895 23.0142 90.895 22.8056C90.895 22.6109 90.8775 22.5523 90.8067 22.508C90.754 22.4752 90.7182 22.405 90.7182 22.3345C90.7182 22.1585 90.6748 22.0766 90.5812 22.0766C90.5115 22.0766 90.4975 22.0432 90.4975 21.8779C90.4975 21.7085 90.4845 21.6791 90.4092 21.6791C90.3332 21.6791 90.3207 21.6494 90.3202 21.4692C90.3194 21.1748 90.2813 21.0606 90.1832 21.0606C90.114 21.0606 90.1 21.0272 90.1 20.8619C90.1 20.6793 90.091 20.6631 89.9895 20.6631C89.883 20.6631 89.8792 20.653 89.8792 20.3719C89.8792 20.1204 89.8673 20.0777 89.7931 20.0584C89.7285 20.0414 89.7038 19.9903 89.6938 19.8527C89.6826 19.7012 89.6633 19.667 89.5811 19.6553C89.4905 19.6426 89.4817 19.6174 89.4817 19.3752C89.4817 19.1462 89.4693 19.106 89.3932 19.0861C89.322 19.0673 89.305 19.0257 89.305 18.8693C89.305 18.6923 89.2955 18.6756 89.1945 18.6756C89.0893 18.6756 89.0842 18.6637 89.0842 18.4133C89.0842 18.2042 89.0668 18.1384 88.9989 18.091C88.9451 18.0534 88.9086 17.9673 88.8995 17.8568C88.8881 17.7144 88.8669 17.6792 88.7861 17.6678C88.7 17.6556 88.6867 17.6273 88.6867 17.4579C88.6867 17.2934 88.673 17.2624 88.6004 17.2624C88.5256 17.2624 88.5124 17.2261 88.501 16.9862C88.4899 16.7491 88.4739 16.7043 88.3886 16.6666C88.3078 16.6314 88.2892 16.5877 88.2892 16.4348C88.2892 16.276 88.2755 16.2466 88.2007 16.2466C88.1244 16.2466 88.1125 16.2172 88.1125 16.0293C88.1125 15.7553 88.0807 15.6724 87.9752 15.6724C87.9055 15.6724 87.8917 15.6392 87.8917 15.4736C87.8917 15.3043 87.8785 15.2749 87.8032 15.2749C87.7325 15.2749 87.715 15.2454 87.715 15.1257C87.715 14.8691 87.6646 14.7046 87.5772 14.677C87.5123 14.6563 87.4942 14.6076 87.4942 14.4547C87.4942 14.2904 87.4805 14.2591 87.4084 14.2591C87.339 14.2591 87.3199 14.2231 87.309 14.0712C87.2976 13.9151 87.2785 13.8812 87.1961 13.8696C87.1047 13.8566 87.0967 13.8325 87.0967 13.5672C87.0967 13.3189 87.0848 13.276 87.0106 13.2566C86.946 13.2397 86.9213 13.1888 86.9112 13.051C86.9001 12.8997 86.8808 12.8652 86.7986 12.8535C86.7072 12.8406 86.6992 12.8164 86.6992 12.5554C86.6992 12.2819 86.695 12.2716 86.5887 12.2716C86.4872 12.2716 86.4782 12.2554 86.4782 12.0729C86.4782 11.9051 86.465 11.8741 86.3921 11.8741C86.3161 11.8741 86.3041 11.8378 86.2927 11.576C86.2808 11.3049 86.2705 11.2765 86.1801 11.2635C86.0943 11.2514 86.0807 11.2233 86.0807 11.0539C86.0807 10.8875 86.0675 10.8581 85.9925 10.8581C85.9162 10.8581 85.9042 10.8287 85.9042 10.6411C85.9042 10.3668 85.8722 10.2841 85.767 10.2841C85.6975 10.2841 85.6832 10.251 85.6832 10.0904C85.6832 9.93616 85.666 9.89217 85.5976 9.87442C85.5327 9.85746 85.5089 9.80605 85.4983 9.6595C85.4869 9.49838 85.4683 9.46473 85.3851 9.4528C85.2993 9.44061 85.2857 9.41226 85.2857 9.24292C85.2857 9.07677 85.2725 9.04735 85.1975 9.04735C85.1387 9.04735 85.1092 9.01794 85.1092 8.95911C85.1092 8.89418 85.0798 8.8706 84.9987 8.8706C84.9105 8.8706 84.8882 8.8486 84.8882 8.76036C84.8882 8.67927 84.8646 8.64985 84.8 8.64985C84.7412 8.64985 84.7117 8.62044 84.7117 8.5616C84.7117 8.49668 84.6823 8.47309 84.6012 8.47309C84.5223 8.47309 84.4907 8.44924 84.4907 8.38962C84.4907 8.25314 84.4746 8.25235 81.2519 8.25155C79.2824 8.25129 78.1771 8.23565 78.2192 8.20916C78.2765 8.17285 78.2871 7.81828 78.2987 5.54882C78.3131 2.74008 78.3054 2.55749 78.1715 2.52252C78.1024 2.5045 78.0867 2.46024 78.0867 2.28481C78.0867 2.10063 78.074 2.0691 78.0009 2.0691C77.9314 2.0691 77.9124 2.03306 77.9015 1.88121C77.8901 1.72513 77.871 1.69121 77.7886 1.67955C77.7165 1.66921 77.6892 1.63582 77.6892 1.55791C77.6892 1.48 77.6649 1.45059 77.6007 1.45059C77.5419 1.45059 77.5125 1.42117 77.5125 1.36234C77.5125 1.29821 77.4831 1.2741 77.4052 1.2741C77.3275 1.2741 77.2939 1.24654 77.2838 1.17472C77.2719 1.09204 77.2379 1.07296 77.0819 1.06157C76.9785 1.05415 76.8942 1.02924 76.8942 1.00645C76.8942 0.981539 76.493 0.964844 75.9005 0.964844C75.2674 0.964844 74.9067 0.980744 74.9067 1.0091Z" fill="#2C2C44"/>
</svg>
