<svg width="70" height="70" viewBox="0 0 70 70" fill="none" xmlns="http://www.w3.org/2000/svg">
<g clip-path="url(#clip0_9314:3932)">
<path d="M0 0H35H70V11.6672V23.3328H35H0V11.6672V0Z" fill="#6E8897"/>
<path d="M70 23.332H0V46.6648H70V23.332Z" fill="white"/>
<path d="M70 46.666H0V70.0005H70V46.666Z" fill="#6E8897"/>
<path d="M11.506 28.8574H21.7664V31.5444H14.9198V33.5184H18.0959C19.3097 33.4398 20.5145 33.7735 21.5149 34.4655C21.9141 34.7928 22.2303 35.2097 22.4377 35.6824C22.6451 36.1551 22.7378 36.6701 22.7083 37.1855C22.734 37.7406 22.6263 38.2938 22.3942 38.7987C22.1621 39.3036 21.8124 39.7456 21.3744 40.0875C20.2814 40.8433 18.966 41.2099 17.6397 41.1283H11.506V28.8574ZM17.4159 38.6478C17.8866 38.682 18.3555 38.56 18.7499 38.3008C18.9006 38.1837 19.0206 38.0317 19.0998 37.858C19.1789 37.6843 19.2148 37.494 19.2043 37.3034C19.2043 36.4396 18.6082 36.0071 17.4159 36.0059H14.9198V38.653L17.4159 38.6478Z" fill="black"/>
<path d="M41.7964 28.8584V41.1362H38.3236V36.3486H33.5898V41.1362H30.117V28.8584H33.5898V33.4726H38.3236V28.8584H41.7964Z" fill="black"/>
<path d="M59.9321 31.613H56.1783V41.1362H52.7576V31.613H48.9865V28.8584H59.9321V31.613Z" fill="black"/>
<path d="M8.62989 33.4717H5.75385V36.3477H8.62989V33.4717Z" fill="black"/>
<path d="M27.2375 33.4717H24.3614V36.3477H27.2375V33.4717Z" fill="black"/>
<path d="M47.5485 33.4717H44.6724V36.3477H47.5485V33.4717Z" fill="black"/>
<path d="M64.2462 33.4717H61.3702V36.3477H64.2462V33.4717Z" fill="black"/>
</g>
<defs>
<clipPath id="clip0_9314:3932">
<rect width="70" height="70" fill="white"/>
</clipPath>
</defs>
</svg>
