<svg width="123" height="36" viewBox="0 0 123 36" fill="none" xmlns="http://www.w3.org/2000/svg">
<path d="M122.605 35.31H0V0H122.605V35.31ZM24.5863 17.4098C24.6443 17.3321 24.7103 17.2607 24.7831 17.1966C26.282 16.1569 26.774 14.7022 26.4378 12.9688C26.1016 11.2354 25.0586 10.0628 23.3055 9.67577C22.411 9.4754 21.4981 9.36932 20.5815 9.35926C16.885 9.32318 13.1886 9.34286 9.49045 9.34122C8.72131 9.34122 8.52124 9.52817 8.5196 10.3252C8.5196 15.2079 8.5196 20.0895 8.5196 24.97C8.5196 25.8901 8.67539 26.0327 9.59213 26.0327C13.3296 26.0327 17.0671 26.0327 20.8062 26.0213C21.6029 26.0266 22.3989 25.9718 23.1874 25.8573C24.6929 25.6244 26.0295 25.0537 26.7379 23.5744C27.8433 21.2801 26.9839 18.8005 24.5863 17.4098ZM109.997 19.5647C110.161 19.5073 110.243 19.4762 110.325 19.4549C112.785 18.7858 114.015 17.2901 114.069 14.7498C114.117 12.5441 113.323 10.4252 110.648 9.75777C109.743 9.5192 108.814 9.38548 107.878 9.35926C104.346 9.31334 100.813 9.34122 97.2808 9.33958C96.3756 9.33958 96.2444 9.45929 96.2444 10.3498C96.2444 15.0051 96.2444 19.6604 96.2444 24.3157C96.2444 25.9557 95.9623 26.0573 97.9991 26.0213C98.7502 26.0098 98.9257 25.8277 98.9274 25.0619C98.9274 23.5498 98.9274 22.0394 98.9274 20.529C98.9274 19.8173 99.0405 19.709 99.7473 19.709C101.85 19.709 103.954 19.7287 106.056 19.709C106.32 19.6982 106.581 19.7595 106.812 19.8864C107.044 20.0133 107.236 20.2009 107.368 20.429C108.234 21.7147 109.11 22.9955 109.966 24.2862C111.176 26.1098 111.171 26.1164 113.377 26.0196C113.562 26.0114 113.844 25.9606 113.902 25.8409C113.959 25.7211 113.851 25.4588 113.749 25.3013C113.077 24.255 112.387 23.2202 111.701 22.1854L109.997 19.5647ZM75.3808 17.6771C75.3808 20.1699 75.3923 22.6626 75.3726 25.1554C75.3726 25.7605 75.6104 26.0278 76.1926 26.018C76.4369 26.018 76.6846 26.018 76.9273 26.018H90.4734C91.9723 26.018 92.0067 25.9852 91.9788 24.4699C91.9641 23.622 91.7935 23.4482 90.9801 23.4482L78.9051 23.4613C78.1819 23.4613 78.0572 23.3416 78.0539 22.6019C78.0539 21.5808 78.0539 20.5591 78.0539 19.5369C78.0539 18.7333 78.172 18.6218 78.9854 18.6218H87.9347C89.3713 18.6218 89.3713 18.6218 89.368 17.1556C89.368 16.2192 89.204 16.0733 88.2512 16.0733H78.8723C78.1704 16.0733 78.0523 15.9601 78.0523 15.2533C78.0523 14.3939 78.0523 13.5357 78.0523 12.6785C78.0523 11.9783 78.1671 11.8766 78.8903 11.8766H89.801C91.3475 11.8766 91.3475 11.8766 91.3425 10.3022C91.3425 9.43961 91.2212 9.32646 90.3438 9.3281H76.3828C75.5202 9.3281 75.3824 9.45273 75.3824 10.3121C75.3792 12.7709 75.3786 15.2259 75.3808 17.6771ZM41.3631 26.4821C43.4001 26.5139 45.4031 25.9582 47.1325 24.8815C52.505 21.5556 52.5689 13.9839 47.2538 10.5613C43.4278 8.10141 38.093 8.20964 34.3703 10.8319C33.3117 11.5613 32.4368 12.5263 31.8143 13.6511C31.1919 14.7759 30.8389 16.0297 30.7831 17.3141C30.7273 18.5984 30.9702 19.8781 31.4928 21.0526C32.0154 22.2272 32.8033 23.2644 33.7947 24.0828C35.8856 25.8343 38.3308 26.4936 41.3631 26.4821ZM54.3893 9.3363C54.0614 9.32222 53.7329 9.3255 53.4053 9.34614C53.1753 9.39113 52.9501 9.45813 52.7329 9.54621C52.8395 9.76925 52.8969 10.0382 53.0609 10.2022C55.1043 12.3451 57.1565 14.4803 59.2173 16.6079C60.2013 17.6214 60.1784 17.4836 59.1895 18.4988C57.0214 20.7215 54.8589 22.9491 52.7018 25.1816C52.546 25.3456 52.4771 25.585 52.3738 25.79C52.5821 25.892 52.8025 25.967 53.0298 26.0131C53.5218 26.0475 54.0137 25.9983 54.5057 26.0311C55.3257 26.0869 55.944 25.7802 56.5048 25.1832C58.1661 23.4088 59.8717 21.6786 61.5445 19.914C61.9052 19.5336 62.1529 19.4991 62.5284 19.914C63.9109 21.39 65.3164 22.8414 66.7284 24.2895C68.6635 26.2755 68.0141 26.0196 70.9103 26.0213C71.1612 26.0213 71.4137 25.8573 71.6646 25.7605C71.5623 25.5279 71.4335 25.3078 71.2809 25.1045C69.068 22.8086 66.8492 20.5214 64.6243 18.2429C63.9454 17.5443 63.9486 17.5476 64.6374 16.8342C66.7639 14.6301 68.8866 12.4211 71.0054 10.2071C71.1694 10.0431 71.2087 9.76105 71.3055 9.53309C71.1131 9.44432 70.9095 9.38198 70.7003 9.34778C70.1706 9.32154 69.636 9.37566 69.1079 9.33302C68.3716 9.27398 67.8255 9.54949 67.3286 10.0825C65.7542 11.77 64.1405 13.4198 62.5727 15.109C62.1644 15.5485 61.8987 15.5435 61.4936 15.109C60.0472 13.5526 58.5417 12.057 57.1116 10.481C56.354 9.64297 55.5602 9.08866 54.3893 9.3363Z" fill="black"/>
<path d="M24.5863 17.41C26.9839 18.8007 27.8432 21.2803 26.7445 23.5746C26.036 25.0506 24.6994 25.6246 23.194 25.8575C22.4055 25.972 21.6095 26.0268 20.8127 26.0215C17.0736 26.0395 13.3361 26.0329 9.59868 26.0329C8.68194 26.0329 8.52778 25.8903 8.52614 24.9702C8.51959 20.0897 8.51959 15.2081 8.52614 10.3254C8.52614 9.5333 8.72786 9.34142 9.497 9.34142C13.1951 9.34142 16.8916 9.32338 20.5881 9.35946C21.5024 9.36998 22.4132 9.47606 23.3055 9.67598C25.0586 10.0663 26.0934 11.2323 26.4378 12.9723C26.7822 14.7123 26.2738 16.1604 24.7831 17.2001C24.7104 17.2631 24.6445 17.3335 24.5863 17.41ZM17.0425 23.4779V23.4369C18.7792 23.4369 20.5159 23.4746 22.2493 23.4238C23.5465 23.3844 24.36 22.5923 24.4206 21.4558C24.4994 19.9913 23.9106 19.2041 22.5101 18.9352C22.2086 18.8824 21.9027 18.8583 21.5966 18.863C18.4107 18.863 15.2248 18.863 12.0389 18.863C11.383 18.863 11.1944 19.0385 11.1862 19.683C11.1752 20.667 11.1752 21.6471 11.1862 22.6235C11.1862 23.3221 11.3502 23.4631 12.0799 23.4648L17.0425 23.4779ZM16.9195 11.8981C15.2795 11.8981 13.6543 11.908 12.0209 11.8981C11.5289 11.8981 11.2009 12.0424 11.2009 12.5541C11.1845 13.5949 11.1845 14.6336 11.2009 15.67C11.2009 16.0636 11.4141 16.326 11.8569 16.326C15.1024 16.3145 18.3479 16.3441 21.5934 16.2653C22.1887 16.2506 22.861 15.9127 23.3416 15.5274C24.0713 14.9419 24.1025 14.0514 23.7909 13.2314C23.4629 12.3557 22.7331 11.9391 21.8229 11.9194C20.1879 11.8719 18.5545 11.8932 16.9211 11.8932L16.9195 11.8981Z" fill="white"/>
<path d="M109.997 19.5651L111.708 22.1726C112.393 23.2123 113.083 24.2472 113.756 25.2885C113.858 25.4525 113.971 25.7018 113.908 25.8281C113.846 25.9544 113.569 25.9921 113.384 26.0068C111.178 26.1036 111.183 26.097 109.972 24.2734C109.116 22.9828 108.241 21.7019 107.375 20.4162C107.242 20.1881 107.05 20.0005 106.819 19.8736C106.588 19.7467 106.326 19.6854 106.063 19.6963C103.96 19.7225 101.856 19.6963 99.7539 19.6963C99.0471 19.6963 98.9339 19.8061 98.9339 20.5163C98.9339 22.0267 98.9339 23.5371 98.9339 25.0491C98.9339 25.815 98.7568 25.997 98.0057 26.0085C95.9689 26.0446 96.2526 25.9462 96.2509 24.3029C96.2509 19.6465 96.2509 14.9912 96.2509 10.337C96.2509 9.44652 96.3821 9.3268 97.2874 9.3268C100.82 9.3268 104.352 9.30056 107.885 9.34648C108.82 9.3727 109.75 9.50642 110.655 9.74499C113.329 10.4125 114.123 12.5329 114.076 14.737C114.022 17.2773 112.785 18.773 110.332 19.4421C110.243 19.4765 110.169 19.5159 109.997 19.5651ZM104.215 11.8917C102.706 11.8917 101.195 11.9048 99.6866 11.8917C99.1356 11.8917 98.9109 12.1065 98.9175 12.6543C98.9339 13.8974 98.9355 15.1421 98.9175 16.3868C98.9175 16.9739 99.1799 17.1773 99.7375 17.1757C102.389 17.1625 105.041 17.1658 107.693 17.1658C108.681 17.1625 109.64 16.8359 110.425 16.236C111.839 15.1979 111.637 12.9724 110.03 12.264C109.505 12.0442 108.944 11.9246 108.375 11.9114C106.991 11.8589 105.602 11.8917 104.215 11.8917Z" fill="white"/>
<path d="M75.3808 17.6771C75.3808 15.2259 75.3808 12.7742 75.3808 10.3219C75.3808 9.46417 75.5185 9.33789 76.3812 9.33789H90.3618C91.2392 9.33789 91.3589 9.44941 91.3606 10.312C91.3606 11.8897 91.3606 11.888 89.819 11.8864H78.9083C78.1851 11.8864 78.0752 11.9881 78.0703 12.6883C78.0627 13.5455 78.0627 14.4037 78.0703 15.2631C78.0703 15.9715 78.1884 16.083 78.8903 16.083H88.2692C89.2286 16.083 89.3828 16.229 89.386 17.1654C89.386 18.6414 89.3861 18.6315 87.9527 18.6315H78.9969C78.1769 18.6315 78.0687 18.7431 78.0654 19.5466C78.0654 20.5678 78.0654 21.5895 78.0654 22.6117C78.0654 23.3514 78.1933 23.4727 78.9165 23.4711L90.9916 23.458C91.8116 23.458 91.9755 23.6318 91.9903 24.4796C92.0182 25.995 91.9903 26.0278 90.4848 26.0278H76.9387C76.6944 26.0278 76.4468 26.0179 76.204 26.0278C75.6153 26.0376 75.3726 25.7703 75.3841 25.1652C75.4037 22.6724 75.3923 20.1797 75.3923 17.6869L75.3808 17.6771Z" fill="white"/>
<path d="M41.3631 26.4819C38.3308 26.4934 35.8856 25.8341 33.7947 24.0827C32.8033 23.2643 32.0153 22.227 31.4928 21.0525C30.9702 19.878 30.7272 18.5982 30.783 17.3139C30.8388 16.0296 31.1918 14.7757 31.8143 13.6509C32.4368 12.5262 33.3117 11.5611 34.3703 10.8318C38.093 8.20784 43.4278 8.09797 47.2538 10.5612C52.5689 13.9838 52.5017 21.5489 47.1325 24.8813C45.403 25.9581 43.4 26.5138 41.3631 26.4819ZM41.0203 23.9629C41.55 23.9269 42.083 23.9236 42.6078 23.8498C43.0922 23.78 43.5699 23.6703 44.0362 23.5218C46.5601 22.7231 48.2361 20.6912 48.4083 18.2526C48.6002 15.5581 47.3932 13.3524 44.8972 12.2061C42.1191 10.9318 39.2852 10.9564 36.599 12.4685C35.6909 12.9689 34.929 13.6973 34.3881 14.5819C33.8472 15.4665 33.5462 16.4767 33.5146 17.513C33.483 18.5494 33.7219 19.5761 34.2078 20.492C34.6937 21.4079 35.4099 22.1814 36.2857 22.7363C37.7191 23.671 39.3328 23.9679 41.0203 23.9629Z" fill="white"/>
<path d="M54.3893 9.33675C55.5602 9.08911 56.3573 9.64342 57.1067 10.4847C58.5318 12.0607 60.0422 13.5564 61.4887 15.1127C61.8938 15.5489 62.1594 15.5538 62.5678 15.1127C64.1405 13.4235 65.7542 11.7737 67.3237 10.0862C67.8157 9.55322 68.3667 9.27771 69.103 9.33675C69.6311 9.37939 70.1657 9.32527 70.6954 9.35151C70.9026 9.38785 71.1039 9.45183 71.294 9.54174C71.1973 9.7697 71.1546 10.0485 70.9939 10.2158C68.8816 12.4352 66.759 14.6442 64.6259 16.8428C63.9372 17.5562 63.9339 17.553 64.6128 18.2516C66.8355 20.5366 69.0544 22.8238 71.2694 25.1132C71.422 25.3164 71.5508 25.5365 71.6532 25.7692C71.4023 25.8594 71.1497 26.0299 70.8988 26.0299C68.0026 26.0299 68.652 26.2841 66.7169 24.2981C65.3049 22.85 63.8994 21.397 62.5169 19.9227C62.1365 19.516 61.8888 19.5504 61.533 19.9227C59.8602 21.6873 58.1547 23.4175 56.4934 25.1919C55.9325 25.7888 55.3142 26.0955 54.4943 26.0397C54.0023 26.0069 53.5103 26.0561 53.0183 26.0217C52.791 25.9756 52.5706 25.9007 52.3623 25.7987C52.4722 25.5937 52.5411 25.351 52.6903 25.1902C54.8452 22.9544 57.0078 20.7268 59.178 18.5074C60.162 17.4923 60.1898 17.63 59.2059 16.6165C57.1439 14.4911 55.0918 12.3559 53.0495 10.2108C52.8855 10.0468 52.8297 9.77298 52.7215 9.55486C52.9387 9.46678 53.1638 9.39978 53.3938 9.35479C53.7251 9.33101 54.0574 9.32499 54.3893 9.33675Z" fill="white"/>
<path d="M17.0441 23.4724H12.0816C11.3584 23.4724 11.196 23.3298 11.1878 22.6311C11.1769 21.6472 11.1769 20.667 11.1878 19.6907C11.1878 19.0347 11.383 18.8707 12.0406 18.8707C15.2254 18.8707 18.4113 18.8707 21.5983 18.8707C21.9043 18.8659 22.2102 18.8901 22.5117 18.9429C23.9123 19.2118 24.501 19.999 24.4223 21.4635C24.3616 22.5918 23.5482 23.3839 22.251 23.4314C20.5175 23.4823 18.7808 23.4446 17.0441 23.4446V23.4724Z" fill="black"/>
<path d="M16.9211 11.893C18.5611 11.893 20.1879 11.8716 21.8213 11.9028C22.7266 11.9192 23.4613 12.3357 23.7893 13.2148C24.1009 14.0479 24.0697 14.9334 23.3399 15.5107C22.8594 15.8961 22.1919 16.2339 21.5917 16.2487C18.3462 16.3274 15.1007 16.2979 11.8553 16.3094C11.4158 16.3094 11.2108 16.0552 11.1993 15.6534C11.1818 14.6126 11.1818 13.5739 11.1993 12.5375C11.2091 12.0176 11.542 11.87 12.0193 11.8815C13.6592 11.8979 15.2844 11.8815 16.9178 11.8815L16.9211 11.893Z" fill="black"/>
<path d="M104.215 11.8912C105.602 11.8912 106.991 11.8584 108.375 11.906C108.944 11.9192 109.505 12.0388 110.03 12.2585C111.637 12.967 111.834 15.1924 110.425 16.2305C109.639 16.8276 108.68 17.1513 107.693 17.1522C105.041 17.1522 102.389 17.1522 99.7375 17.162C99.1783 17.162 98.9077 16.9603 98.9175 16.3732C98.9372 15.1285 98.9356 13.8837 98.9175 12.6407C98.9175 12.0929 99.1356 11.8715 99.6867 11.8781C101.195 11.8978 102.706 11.8781 104.215 11.8781V11.8912Z" fill="black"/>
<path d="M41.0203 23.9634C39.3328 23.9634 37.7174 23.6715 36.2858 22.7367C35.4088 22.1821 34.6915 21.4084 34.2048 20.492C33.7181 19.5756 33.4788 18.5481 33.5104 17.5109C33.542 16.4738 33.8435 15.4628 34.3852 14.5777C34.9268 13.6927 35.6898 12.9641 36.599 12.464C39.2853 10.9519 42.1191 10.9273 44.8972 12.2016C47.3932 13.3496 48.6002 15.5537 48.4084 18.2481C48.2362 20.6868 46.5601 22.7187 44.0362 23.5173C43.5699 23.6658 43.0922 23.7755 42.6078 23.8453C42.083 23.924 41.55 23.9273 41.0203 23.9634Z" fill="black"/>
</svg>
