<svg width="107" height="29" viewBox="0 0 107 29" fill="none" xmlns="http://www.w3.org/2000/svg">
<path d="M24.3039 11.3565V8.68804H22.1217C21.6656 8.68823 21.2959 9.05778 21.2955 9.51384V27.5704H24.3399V17.8678C24.5274 14.4295 27.3508 11.6996 30.7679 11.651L31.7432 11.6372V8.68611L30.7216 8.69575C28.3471 8.72855 26.0709 9.67335 24.3032 11.3562L24.3039 11.3565ZM45.9389 23.5256C45.3685 23.1672 44.9474 22.6141 44.7539 21.9688C44.6147 21.5296 44.6147 21.0858 44.6147 20.614V11.68H50.1233V8.67774H44.6127V0.609388H42.4341C41.9792 0.610996 41.611 0.979683 41.6102 1.43455V8.67967H38.3011V11.6822H41.6102V21.2247C41.6102 21.5543 41.6886 24.491 44.4002 26.1062C46.4843 27.3475 48.9032 27.9083 49.0051 27.9318L49.957 28.1515L50.6256 25.2225L49.6737 25.0026C49.5869 24.983 47.5449 24.5025 45.9389 23.5256ZM32.8893 2.12466L35.0137 0L37.1383 2.12466L35.0137 4.24899L32.8893 2.12466ZM34.3355 8.68643C33.8796 8.68733 33.5105 9.05701 33.5103 9.51288L33.5142 27.5704H36.5164V8.68643H34.3355ZM10.0998 24.5656C6.56572 24.5656 3.69082 21.6775 3.69082 18.1279C3.69082 14.5787 6.56572 11.6906 10.0998 11.6906C13.634 11.6906 16.5095 14.5784 16.5095 18.1279C16.5095 21.6775 13.6365 24.5659 10.0995 24.5659L10.0998 24.5656ZM10.0995 8.68578C8.25142 8.68578 6.59337 9.34502 4.98967 9.98785C4.75685 10.0811 4.52467 10.1731 4.29249 10.2641L3.59531 10.5348V0.60585H1.41534C0.959219 0.606751 0.590114 0.977143 0.590821 1.43327V17.9903C0.590821 19.5393 0.912398 20.9752 1.54269 22.2566C3.15874 25.5036 6.46915 27.5602 10.096 27.5704C15.2862 27.5704 19.5095 23.3346 19.5095 18.1279C19.5095 12.9216 15.2904 8.68578 10.0995 8.68578Z" fill="#4C97A6"/>
<path d="M82.0702 24.59C78.5046 24.59 75.6152 21.7 75.6152 18.1347C75.6152 14.5697 78.5046 11.6797 82.0702 11.6797C85.6355 11.6797 88.5249 14.5697 88.5249 18.1347C88.5213 21.6984 85.6333 24.5861 82.0702 24.59ZM82.0702 8.6935C76.8555 8.6935 72.6287 12.9203 72.6287 18.135C72.6287 23.3494 76.8555 27.5765 82.0702 27.5765C87.2846 27.5765 91.511 23.3494 91.511 18.135C91.511 12.9203 87.2846 8.6935 82.0702 8.6935ZM61.4208 24.5607C57.886 24.5607 55.0111 21.6762 55.0111 18.1231C55.0111 14.57 57.886 11.6855 61.4208 11.6855C64.9556 11.6855 67.8305 14.5735 67.8305 18.1234C67.8305 21.6727 64.9556 24.5607 61.4208 24.5607ZM61.4208 8.68096C59.5727 8.68096 57.9147 9.34019 56.311 9.98302C56.0788 10.076 55.846 10.1683 55.6138 10.2589L54.9166 10.53V0.609387H52.736C52.6284 0.608795 52.5217 0.629413 52.422 0.670063C52.3223 0.710714 52.2317 0.770602 52.1552 0.846304C52.0787 0.922007 52.0178 1.01204 51.9761 1.11126C51.9344 1.21049 51.9127 1.31695 51.9121 1.42458V17.9855C51.9121 19.5351 52.2337 20.9703 52.864 22.2518C54.4801 25.4986 57.7905 27.5551 61.4173 27.5652C66.6075 27.5652 70.8308 23.3297 70.8308 18.1231C70.8308 12.9168 66.6114 8.68096 61.4208 8.68096Z" fill="#C0555B"/>
<path d="M106.711 10.1916L104.326 8.40625L98.9016 15.6507L93.4779 8.40625L91.0928 10.1916L97.0403 18.1362L91.0928 26.0817L93.4779 27.8671L98.9016 20.6223L104.326 27.8671L106.711 26.0817L100.763 18.1362L106.711 10.1916Z" fill="#C0555B"/>
</svg>
