<svg width="106" height="43" viewBox="0 0 106 43" fill="none" xmlns="http://www.w3.org/2000/svg">
<path d="M22.2576 0C10.3835 0 0.758301 9.62516 0.758301 21.4993C0.758301 33.3734 10.3835 43 22.2576 43C34.1317 43 43.7583 33.3734 43.7583 21.4993C43.7583 9.6252 34.1317 0 22.2576 0ZM22.2477 2.65093C32.6707 2.65093 41.1201 11.1004 41.1201 21.5233C41.1201 31.9462 32.6707 40.3956 22.2477 40.3956C11.8248 40.3956 3.37539 31.9462 3.37539 21.5233C3.37539 11.1004 11.8248 2.65093 22.2477 2.65093Z" fill="#7509B7"/>
<path d="M11.5425 14.1504V28.7883H17.4986C20.2057 28.7883 22.2858 27.0981 22.2858 24.4213C22.2858 22.0604 20.4428 21.1598 20.4428 21.1598C20.4428 21.1598 21.8571 20.2566 21.8571 18.2481C21.8571 15.915 20.0152 14.1504 17.2984 14.1504L11.5425 14.1504ZM14.8364 17.0114H16.5962C17.8469 17.0114 18.3926 17.6543 18.3926 18.4483C18.3926 19.3102 17.7747 19.8541 16.6794 19.8541H14.8364V17.0114ZM14.8364 22.7871H16.5962C17.8469 22.7871 18.3926 23.43 18.3926 24.2239C18.3926 25.0859 17.7747 25.6298 16.6794 25.6298H14.8364V22.7871Z" fill="#7509B7"/>
<path d="M26.7036 28.7426V17.5072H23.4096V14.123H33.6524V17.5072H30.2231V28.7426H26.7036Z" fill="#7509B7"/>
<path d="M47.9694 25.2315V28.3854C47.9694 28.3854 49.8994 29.159 52.2084 29.159C55.546 29.159 57.7041 27.6715 57.7041 24.4839C57.7041 20.1082 51.7112 20.203 51.7112 18.1896C51.7112 17.4812 52.2971 17.1402 53.546 17.1402C55.1843 17.1402 56.9385 17.8887 56.9385 17.8887V14.6854C56.9385 14.6854 55.4995 14.041 53.2752 14.041C50.6021 14.041 47.9222 15.3174 47.9222 18.4046C47.9222 23.0513 53.8804 22.5491 53.8804 24.8491C53.8804 25.7582 53.2536 26.0987 51.9136 26.0987C49.9783 26.0987 47.9694 25.2315 47.9694 25.2315V25.2315Z" fill="#7509B7"/>
<path d="M59.3532 14.2188V28.8797H63V24.0995H63.7058C67.6335 24.0995 69.2124 21.8662 69.2124 19.058C69.2124 15.6255 66.7343 14.2188 64.1334 14.2188H59.3532ZM63 17.1756H63.6406C64.6397 17.1756 65.6629 17.4707 65.6629 19.0875C65.6629 20.5936 64.8643 21.1427 63.6406 21.1427H63V17.1756Z" fill="#7509B7"/>
<path d="M76.2899 14.0469C72.8805 14.0469 70.4512 16.5059 70.4512 21.6083C70.4512 25.935 71.9364 29.1281 76.2503 29.1281C80.2553 29.1281 82.0474 25.662 82.0474 21.5402C82.0474 16.1145 79.5644 14.0469 76.2898 14.0469L76.2899 14.0469ZM76.288 17.1809C78.0436 17.1809 78.329 19.3368 78.329 21.6052C78.329 23.9887 77.9219 26.0326 76.2383 26.0326C74.3528 26.0326 74.1817 23.3953 74.1817 21.546C74.1817 19.4522 74.5 17.181 76.288 17.181V17.1809Z" fill="#7509B7"/>
<path d="M93.6431 18.9086C93.6431 15.8297 91.5295 14.2188 88.5766 14.2188H83.7964V28.8797H87.4431V23.7053H88.0338L90.8435 28.8797H94.7367L91.184 22.8904C92.539 22.2892 93.6431 21.0558 93.6431 18.9086H93.6431ZM87.4431 17.1756H88.0838C89.0828 17.1756 90.106 17.5634 90.106 18.9687C90.106 20.2072 89.3075 20.7955 88.0838 20.8039H87.4431V17.1756Z" fill="#7509B7"/>
<path d="M98.2356 28.8797V17.1509H94.8599V14.2188H105.258V17.1509H101.882V28.8797H98.2356Z" fill="#7509B7"/>
</svg>
