<svg width="66" height="66" viewBox="0 0 66 66" fill="none" xmlns="http://www.w3.org/2000/svg">
<path fill-rule="evenodd" clip-rule="evenodd" d="M63.178 33.0253C63.178 40.9628 60.0098 48.5752 54.3703 54.1879C48.7308 59.8006 41.082 62.9538 33.1066 62.9538C25.1311 62.9538 17.4824 59.8006 11.8429 54.1879C6.20339 48.5752 3.03516 40.9628 3.03516 33.0253C3.03516 25.0877 6.20339 17.4753 11.8429 11.8626C17.4824 6.24986 25.1311 3.09668 33.1066 3.09668C41.082 3.09668 48.7308 6.24986 54.3703 11.8626C60.0098 17.4753 63.178 25.0877 63.178 33.0253Z" fill="#55585D"/>
<path fill-rule="evenodd" clip-rule="evenodd" d="M63.2354 33.8475C63.2354 40.2639 60.6811 46.4175 56.1346 50.9546C51.588 55.4917 45.4215 58.0406 38.9917 58.0406C32.5619 58.0406 26.3954 55.4917 21.8489 50.9546C17.3023 46.4175 14.748 40.2639 14.748 33.8475C14.748 27.431 17.3023 21.2774 21.8489 16.7403C26.3954 12.2032 32.5619 9.6543 38.9917 9.6543C45.4215 9.6543 51.588 12.2032 56.1346 16.7403C60.6811 21.2774 63.2354 27.431 63.2354 33.8475Z" fill="#7D8085"/>
<path fill-rule="evenodd" clip-rule="evenodd" d="M63.0626 35.87C63.0632 38.1829 62.6043 40.4732 61.7121 42.6101C60.8199 44.7471 59.5119 46.6888 57.8628 48.3245C56.2136 49.9601 54.2557 51.2576 52.1007 52.1428C49.9458 53.028 47.6361 53.4837 45.3035 53.4837C42.971 53.4837 40.6613 53.028 38.5064 52.1428C36.3514 51.2576 34.3935 49.9601 32.7443 48.3245C31.0952 46.6888 29.7871 44.7471 28.8949 42.6101C28.0027 40.4732 27.5438 38.1829 27.5444 35.87C27.5438 33.5572 28.0027 31.2669 28.8949 29.1299C29.7871 26.9929 31.0952 25.0512 32.7443 23.4156C34.3935 21.7799 36.3514 20.4824 38.5064 19.5972C40.6613 18.712 42.971 18.2563 45.3035 18.2563C47.6361 18.2563 49.9458 18.712 52.1007 19.5972C54.2557 20.4824 56.2136 21.7799 57.8628 23.4156C59.5119 25.0512 60.8199 26.9929 61.7121 29.1299C62.6043 31.2669 63.0632 33.5572 63.0626 35.87Z" fill="white"/>
<path fill-rule="evenodd" clip-rule="evenodd" d="M47.3257 24.5541C42.3204 24.464 38.8558 26.562 38.8191 30.4878C38.7959 32.9401 39.8202 34.0434 41.4668 35.0596C38.7425 36.5546 37.9876 37.6405 38.1036 40.7235C38.2565 44.7914 41.8465 47.1066 47.3257 47.0805C52.7193 47.1348 56.372 44.7589 56.4987 40.7235C56.5854 37.9616 55.7846 36.3572 53.1341 35.0596C55.0294 34.3427 55.9028 32.8777 55.8719 30.4878C55.8297 27.2237 53.5125 24.6392 47.3257 24.5541Z" fill="#3D4142"/>
<path fill-rule="evenodd" clip-rule="evenodd" d="M50.4546 39.6808C50.4548 40.0554 50.3746 40.4263 50.2188 40.7724C50.0629 41.1185 49.8343 41.433 49.5461 41.6979C49.2578 41.9628 48.9156 42.173 48.5389 42.3163C48.1623 42.4597 47.7585 42.5335 47.3508 42.5335C46.9431 42.5335 46.5394 42.4597 46.1627 42.3163C45.786 42.173 45.4438 41.9628 45.1556 41.6979C44.8673 41.433 44.6387 41.1185 44.4829 40.7724C44.327 40.4263 44.2469 40.0554 44.2471 39.6808C44.2469 39.3063 44.327 38.9354 44.4829 38.5893C44.6387 38.2432 44.8673 37.9287 45.1556 37.6638C45.4438 37.3988 45.786 37.1887 46.1627 37.0453C46.5394 36.9019 46.9431 36.8281 47.3508 36.8281C47.7585 36.8281 48.1623 36.9019 48.5389 37.0453C48.9156 37.1887 49.2578 37.3988 49.5461 37.6638C49.8343 37.9287 50.0629 38.2432 50.2188 38.5893C50.3746 38.9354 50.4548 39.3063 50.4546 39.6808Z" fill="white"/>
<path fill-rule="evenodd" clip-rule="evenodd" d="M50.2535 31.196C50.2535 31.8051 49.9556 32.3892 49.4255 32.8199C48.8953 33.2506 48.1763 33.4926 47.4265 33.4926C46.6768 33.4926 45.9577 33.2506 45.4276 32.8199C44.8974 32.3892 44.5996 31.8051 44.5996 31.196C44.5996 30.5869 44.8974 30.0028 45.4276 29.5721C45.9577 29.1414 46.6768 28.8994 47.4265 28.8994C48.1763 28.8994 48.8953 29.1414 49.4255 29.5721C49.9556 30.0028 50.2535 30.5869 50.2535 31.196Z" fill="white"/>
</svg>
