<svg width="126" height="40" viewBox="0 0 126 40" fill="none" xmlns="http://www.w3.org/2000/svg">
<path d="M20.3327 10.2199H26.3065C26.1858 12.6599 26.2153 15.0629 25.9196 17.4266C25.0078 24.7245 23.9727 32.0076 22.9844 39.2981C22.9622 39.478 22.9203 39.6554 22.8711 39.9266C20.3154 39.9266 17.7893 39.9413 15.2657 39.897C15.0833 39.897 14.7728 39.4706 14.7531 39.2266C14.4648 35.5296 14.2158 31.8326 13.9571 28.1208C13.824 26.223 13.7008 24.3252 13.5554 22.4274C13.5259 22.2583 13.4779 22.093 13.4124 21.9345H13.1389C12.7076 27.8965 12.2763 33.8561 11.8401 39.9266H5.32157C3.78127 39.9266 3.74677 39.9266 3.53729 38.3935C2.49975 30.8319 1.44249 23.2678 0.501064 15.689C0.279261 13.9144 0.466561 12.0881 0.466561 10.2297H6.30735L7.6012 27.7412H7.96594C8.3849 21.9073 8.8014 16.0735 9.22282 10.2051H17.3556C17.7893 16.0611 18.2222 21.9057 18.6543 27.7388H19.0191C19.4652 21.9345 19.894 16.1301 20.3327 10.2199Z" fill="black"/>
<path d="M94.7498 10.2347C96.5587 10.2347 98.306 10.2076 100.051 10.2668C100.278 10.2668 100.598 10.6956 100.694 10.984C101.912 14.7155 103.097 18.4569 104.295 22.1958C104.403 22.5334 104.541 22.8563 104.679 23.1816L104.997 23.1397V10.2914H110.744V39.8946H104.987L100.859 27.0093L100.554 27.0586V39.902H94.7498V10.2347Z" fill="black"/>
<path d="M55.6953 26.25C56.7181 28.9981 57.6078 31.6574 58.6971 34.233C59.4832 36.0914 59.084 37.9547 59.2343 39.9264C57.3391 39.9264 55.5647 39.9535 53.7928 39.8919C53.5759 39.8919 53.2851 39.4261 53.184 39.1254C52.0479 35.7611 50.9512 32.387 49.82 29.0202C49.7239 28.7343 49.438 28.515 49.2409 28.2636L48.9476 28.4213V39.8623H42.3724V10.168H43.2448C46.7148 10.168 50.1848 10.168 53.6547 10.168C56.6786 10.168 58.3767 11.8094 58.4309 14.8213C58.4703 16.9729 58.4309 19.1246 58.4457 21.2762C58.4605 23.4279 57.9232 25.2419 55.6953 26.25ZM48.9944 22.9424C49.7338 22.9424 50.4189 23.0163 51.0794 22.9054C51.2498 22.8508 51.4039 22.7546 51.5278 22.6255C51.6518 22.4964 51.7416 22.3385 51.7891 22.166C51.8483 20.2353 51.8483 18.3047 51.7891 16.374C51.7891 16.1078 51.3652 15.6765 51.0868 15.6346C50.4263 15.5237 49.7338 15.5976 48.9994 15.5976L48.9944 22.9424Z" fill="black"/>
<path d="M77.3777 25.0636C77.3777 21.6328 77.3605 18.2019 77.3777 14.7736C77.3777 13.0089 77.9963 11.5153 79.6598 10.6748C80.185 10.4123 80.7611 10.2676 81.348 10.2509C83.9751 10.2065 86.5998 10.2312 89.2343 10.2336C91.3932 10.2336 93.0296 11.636 93.35 13.7976C93.4383 14.4147 93.4812 15.0375 93.4781 15.6609C93.488 21.9589 93.488 28.257 93.4781 34.555C93.468 35.4262 93.3647 36.2938 93.17 37.1429C92.8152 38.74 90.9077 40.0685 89.3353 39.9921C86.8365 39.8565 84.3323 39.8565 81.8335 39.9921C79.1226 40.1548 77.4098 37.9366 77.3974 35.7282C77.3851 32.1742 77.3974 28.6201 77.3974 25.066L77.3777 25.0636ZM83.9751 25.0636C83.9751 27.8684 83.9924 30.6732 83.9751 33.4804C83.9751 34.2198 84.2092 34.6117 84.9979 34.5402C85.1531 34.5255 85.3109 34.5402 85.4661 34.5402C86.8438 34.5402 86.8462 34.5402 86.8462 33.2069C86.8462 30.057 86.8462 26.908 86.8462 23.7598C86.8462 21.4233 86.8092 19.0769 86.8585 16.7453C86.8758 15.8309 86.5406 15.4735 85.6509 15.5869C85.5262 15.5956 85.4011 15.5956 85.2763 15.5869C84.0293 15.5869 83.9874 15.6264 83.9874 16.834C83.9792 19.578 83.9751 22.3237 83.9751 25.071V25.0636Z" fill="black"/>
<path d="M41.2313 39.9268C39.3164 39.9268 37.4755 39.9095 35.6345 39.9268C35.0135 39.9268 35.0307 39.5349 34.9962 39.1233C34.8631 37.509 34.7251 35.8921 34.5822 34.2063H31.477C31.3316 35.8404 31.1443 37.4473 31.0654 39.0592C31.0309 39.7641 30.7918 39.9514 30.1141 39.9342C28.3717 39.8923 26.6269 39.9194 24.6307 39.9194C24.781 37.4547 24.7687 35.0763 25.0964 32.7521C26.1389 25.3778 27.3145 18.0208 28.4333 10.6563C28.4506 10.5356 28.49 10.4099 28.5368 10.2324H37.5396C37.9832 13.1112 38.4292 15.9677 38.863 18.8292C39.6565 24.0666 40.5043 29.2991 41.1944 34.5513C41.4211 36.2717 41.2313 38.0364 41.2313 39.9268ZM34.0425 27.8696C33.7591 24.7444 33.483 21.6833 33.2046 18.6222H32.8423C32.5663 21.6882 32.2927 24.7543 32.0142 27.8672L34.0425 27.8696Z" fill="black"/>
<path d="M60.1314 16.49V10.3086H76.212C75.9483 12.5514 76.6606 14.814 75.5516 17.0495C72.991 22.213 70.5561 27.4381 68.0744 32.6385C67.9166 32.9639 67.786 33.304 67.5815 33.7649H76.1381V39.8871H60.0599C60.3334 37.6541 59.6138 35.394 60.7179 33.1635C63.2637 28.0271 65.6863 22.8341 68.1557 17.6607C68.3134 17.3304 68.4489 16.9903 68.6634 16.49H60.1314Z" fill="black"/>
<path d="M125.607 10.3086V16.4703H118.808V21.8088H124.927C124.75 23.3714 124.609 24.8181 124.417 26.2575C124.183 28.0419 124.171 28.0394 122.31 28.0394H118.81V33.7353H125.588V39.9093H112.201V10.3086H125.607Z" fill="black"/>
<path d="M78.9229 8.54634H76.5201C76.4979 7.43477 76.5201 6.32813 76.5201 5.22149C76.5201 4.11486 76.5201 3.00329 76.5201 1.89912C76.2736 1.88186 76.0395 1.89912 75.8054 1.89912H75.0981V0.247786H75.1794H75.3371C76.7788 0.247786 78.2206 0.247786 79.6647 0.247786C80.271 0.247786 80.8772 0.247786 81.4835 0.247786C81.5155 0.247786 81.5476 0.247786 81.5796 0.247786C81.6093 0.243464 81.6395 0.250807 81.6638 0.268272C81.6882 0.285738 81.7048 0.311965 81.7102 0.341443C81.8039 0.639668 81.9049 0.937894 82.001 1.23365C82.2015 1.83996 82.3995 2.44627 82.595 3.05258C82.6098 3.09202 82.6295 3.12899 82.6467 3.16596H82.6788C82.696 3.12159 82.7207 3.07723 82.7355 3.0304C82.9277 2.43149 83.1175 1.83011 83.3097 1.23119C83.4033 0.932964 83.5019 0.637204 83.5956 0.338978C83.6004 0.309699 83.6165 0.283489 83.6405 0.265978C83.6645 0.248467 83.6943 0.24105 83.7237 0.245321C84.2782 0.245321 84.8327 0.245321 85.3872 0.245321H85.5031C85.4971 0.281944 85.4889 0.318162 85.4784 0.353766C85.1942 1.2164 84.9108 2.08479 84.6282 2.95893C84.3834 3.70326 84.141 4.44266 83.9012 5.17713C83.8716 5.26586 83.8395 5.35212 83.8174 5.44085C83.7918 5.53751 83.7769 5.6367 83.773 5.73661C83.773 6.63622 83.773 7.53582 83.773 8.44775V8.54141C83.6793 8.56606 81.7275 8.57345 81.555 8.54141C81.5524 8.51106 81.5524 8.48056 81.555 8.45022C81.555 8.2629 81.555 8.07312 81.555 7.88581C81.555 7.35097 81.555 6.8186 81.555 6.28377C81.555 6.10385 81.555 5.92393 81.555 5.744C81.5553 5.65235 81.5429 5.5611 81.518 5.47289C81.242 4.61026 80.9586 3.74762 80.6801 2.88498C80.584 2.58922 80.4879 2.291 80.3942 1.99277C80.3548 1.872 80.3498 1.86954 80.2242 1.8794C80.0985 1.88926 80.0147 1.8794 79.9112 1.8794H79.056C78.9279 1.8794 78.9303 1.8794 78.9328 2.00263C78.9352 2.12587 78.9328 2.2836 78.9328 2.42163V8.54634H78.9229Z" fill="black"/>
<path d="M63.1134 0.152344H63.2366C64.003 0.152344 64.7695 0.152344 65.5384 0.152344C65.9031 0.152344 66.2777 0.191779 66.6301 0.206567C66.8877 0.213027 67.1438 0.246902 67.3941 0.307618C67.6937 0.37104 67.973 0.507331 68.2074 0.70443C68.4898 0.949015 68.6665 1.29355 68.7003 1.66565C68.7442 2.15731 68.7631 2.65088 68.757 3.14446C68.757 4.20919 68.757 5.27393 68.757 6.34853C68.7571 6.68542 68.7373 7.02202 68.6978 7.35658C68.6814 7.55834 68.6124 7.75228 68.4979 7.91917C68.3833 8.08605 68.2271 8.22008 68.0447 8.30795C67.7453 8.45698 67.4178 8.54098 67.0836 8.55441C65.8514 8.62096 64.6191 8.57413 63.3869 8.58645H63.1134V0.152344ZM65.4546 1.56953C65.4546 1.62868 65.4546 1.67551 65.4423 1.7248C65.4423 1.85297 65.4423 1.97127 65.4423 2.10929V5.688C65.4423 6.11439 65.4423 6.53831 65.4423 6.9647C65.4423 7.01153 65.4423 7.05836 65.4423 7.11504C65.485 7.11732 65.5277 7.11732 65.5704 7.11504C65.7035 7.11504 65.8341 7.11504 65.9672 7.09533C66.0425 7.08681 66.1174 7.07447 66.1915 7.05836C66.2537 7.04941 66.3113 7.02057 66.3557 6.97614C66.4001 6.93171 66.429 6.87408 66.4379 6.81189C66.4625 6.70251 66.4774 6.59116 66.4823 6.47916C66.4823 6.29431 66.4823 6.10946 66.4823 5.92461C66.4823 4.69227 66.4823 3.47472 66.4823 2.24978C66.4823 2.12562 66.4699 2.00177 66.4453 1.88008C66.4349 1.80987 66.4009 1.74528 66.349 1.69692C66.297 1.64855 66.2302 1.61927 66.1594 1.61389C66.0313 1.59418 65.913 1.58185 65.775 1.572C65.637 1.56214 65.563 1.57446 65.4546 1.56953Z" fill="black"/>
<path d="M69.2154 0.262357H71.5148C71.5217 0.290737 71.5266 0.31956 71.5296 0.348621C71.5296 1.33449 71.5296 2.32036 71.5296 3.30623C71.5296 4.2921 71.5296 5.27797 71.5296 6.26383C71.5296 6.48812 71.5419 6.7124 71.5567 6.93669C71.5715 7.16097 71.6405 7.25217 71.8894 7.29653C72.0371 7.31787 72.1879 7.2956 72.3231 7.23245C72.3555 7.22074 72.3839 7.20024 72.4053 7.17324C72.4266 7.14624 72.44 7.11383 72.4439 7.07964C72.4636 6.94408 72.4808 6.80853 72.4882 6.67297C72.4956 6.53741 72.4882 6.37474 72.4882 6.22686V3.37277C72.4882 2.67281 72.4882 1.9753 72.4882 1.27534V0.420096C72.4882 0.373268 72.4882 0.323974 72.4882 0.262357C73.2522 0.247569 74.0113 0.274681 74.7827 0.262357V0.383126C74.7827 2.23902 74.7827 4.09492 74.7827 5.95082C74.7827 6.27862 74.7531 6.60642 74.7358 6.93669C74.7111 7.23869 74.5979 7.52671 74.4105 7.76482C74.1077 8.17435 73.6722 8.46615 73.1783 8.59048C72.8845 8.67276 72.5814 8.71748 72.2763 8.72358C72.0156 8.73306 71.7545 8.724 71.4951 8.69647C71.0018 8.64774 70.5259 8.48852 70.1026 8.23064C69.8625 8.08662 69.6606 7.88692 69.5139 7.6484C69.3672 7.40989 69.28 7.13957 69.2598 6.86028C69.2154 6.39693 69.2154 5.9311 69.2154 5.46528V2.06896C69.2154 1.49469 69.2154 0.920425 69.2154 0.343692C69.2138 0.316605 69.2138 0.289444 69.2154 0.262357Z" fill="black"/>
<path d="M46.3254 3.86655H43.9694C43.9694 3.82219 43.9694 3.78029 43.9694 3.73593C43.9694 3.21095 43.9694 2.68351 43.9694 2.15854C43.9627 1.9983 43.9462 1.83862 43.9201 1.68039C43.9157 1.63199 43.8962 1.58619 43.8644 1.54948C43.8325 1.51277 43.7899 1.487 43.7426 1.47582C43.5414 1.40191 43.3204 1.40191 43.1191 1.47582C43.0686 1.49062 43.0236 1.52006 42.9899 1.56042C42.9561 1.60078 42.935 1.65025 42.9294 1.70257C42.903 1.86573 42.8865 2.03035 42.8801 2.19551C42.8801 3.6283 42.8801 5.06192 42.8801 6.49636C42.8888 6.69202 42.9085 6.88704 42.9392 7.08049C42.9453 7.13471 42.9676 7.18583 43.0032 7.22716C43.0389 7.2685 43.0861 7.29812 43.1388 7.31216C43.3407 7.38733 43.5629 7.38733 43.7648 7.31216C43.8211 7.29482 43.8708 7.26079 43.9073 7.21458C43.9438 7.16837 43.9655 7.11215 43.9694 7.05337C43.9842 6.93014 44.0014 6.80691 44.0039 6.68367C44.0039 6.33369 44.0039 5.98371 44.0187 5.63619V5.22212H46.3254C46.3375 5.79341 46.3112 6.36486 46.2465 6.93261C46.211 7.20448 46.116 7.46517 45.9682 7.69608C45.8204 7.92699 45.6234 8.12243 45.3914 8.26846C45.0927 8.4717 44.7582 8.61639 44.4056 8.69485C44.1905 8.74206 43.9722 8.77337 43.7525 8.7885C43.4322 8.81153 43.1104 8.80493 42.7913 8.76879C42.3018 8.72445 41.8292 8.56665 41.4112 8.30789C41.0756 8.09657 40.8265 7.77229 40.7089 7.3935C40.5803 6.95815 40.5148 6.50665 40.5142 6.05272C40.5019 5.06685 40.4994 4.06126 40.4994 3.06554C40.4994 2.72048 40.5191 2.37543 40.5462 2.03037C40.5705 1.67799 40.689 1.3386 40.8892 1.04768C41.0895 0.756752 41.3643 0.524976 41.6848 0.376578C42.0644 0.180216 42.4789 0.0604596 42.9047 0.0241298C43.2845 -0.0136606 43.6675 -0.00704347 44.0458 0.0438471C44.4787 0.0885995 44.898 0.221101 45.278 0.433265C45.5857 0.59189 45.8421 0.834621 46.0173 1.13323C46.0882 1.26786 46.1436 1.41007 46.1825 1.55716C46.2798 1.9472 46.327 2.34807 46.3229 2.75006C46.3229 3.07293 46.3229 3.39827 46.3377 3.7236L46.3254 3.86655Z" fill="black"/>
<path d="M49.6007 5.27416L49.236 2.04298C49.2169 2.05701 49.2013 2.07515 49.1902 2.09606C49.1791 2.11697 49.1728 2.1401 49.1719 2.16375C49.1448 2.37325 49.1152 2.58274 49.0881 2.7947C49.061 3.00667 49.0216 3.27039 48.987 3.50946C48.9501 3.78797 48.9082 4.06401 48.8712 4.34252C48.8343 4.62103 48.7924 4.94636 48.7554 5.24952C48.7012 5.70302 48.6519 6.15898 48.6001 6.61248C48.5558 6.99944 48.5089 7.38392 48.4621 7.77088C48.4301 8.03706 48.398 8.30325 48.3685 8.56943C48.26 8.60394 46.3304 8.59901 46.1504 8.56943C46.1776 8.37965 46.2047 8.18987 46.2342 8.00009C46.286 7.63039 46.3402 7.26069 46.3944 6.89345C46.4486 6.52622 46.5053 6.13187 46.562 5.74985C46.6261 5.31853 46.6877 4.88475 46.7493 4.45343C46.838 3.84712 46.9268 3.23835 47.0179 2.63204C47.0968 2.1046 47.1781 1.57716 47.2644 1.05218C47.3038 0.785997 47.3408 0.519812 47.3802 0.253628C47.3844 0.228647 47.3902 0.203953 47.3975 0.179688H50.8798C51.3406 2.97955 51.8015 5.77449 52.2623 8.58175C51.5378 8.61133 50.828 8.59408 50.1035 8.59901C50.0098 8.0272 49.9482 7.4554 49.857 6.87374H49.3641L49.0659 5.28402L49.6007 5.27416Z" fill="black"/>
<path d="M56.7501 0.150391H59.1481V6.86416C59.2703 6.87261 59.393 6.87261 59.5153 6.86416C59.6385 6.86416 59.7617 6.86416 59.8899 6.86416H60.6292V8.52042C60.5454 8.54753 57.0114 8.55739 56.7698 8.53274C56.7329 8.4588 56.723 0.372211 56.7501 0.150391Z" fill="black"/>
<path d="M56.3508 6.87462V8.53335C56.2646 8.55799 52.6812 8.56785 52.489 8.53335C52.4643 8.43969 52.4594 0.26437 52.489 0.138672H54.8573V6.87462C55.37 6.87955 55.8555 6.87709 56.3508 6.87462Z" fill="black"/>
<path d="M61.265 3.58538C61.265 3.87621 61.265 4.16458 61.265 4.45294C61.2745 4.591 61.2339 4.72787 61.1506 4.83837C61.0673 4.94886 60.9469 5.02555 60.8115 5.05432C60.5676 5.12977 60.3046 5.11311 60.0722 5.0075C59.9824 4.96601 59.9055 4.90107 59.8495 4.81952C59.7936 4.73797 59.7607 4.64283 59.7543 4.54414C59.7394 4.44046 59.732 4.33586 59.7321 4.23112C59.7321 3.81459 59.7321 3.3956 59.7321 2.97907C59.7321 2.86816 59.7469 2.75479 59.7543 2.64388C59.7607 2.55012 59.7939 2.46018 59.8498 2.38463C59.9056 2.30909 59.982 2.25109 60.0697 2.21749C60.214 2.14917 60.3723 2.11559 60.532 2.11944C60.6916 2.12329 60.8481 2.16447 60.989 2.23967C61.0776 2.28061 61.1522 2.34698 61.2031 2.43036C61.254 2.51374 61.2789 2.61036 61.2748 2.70796C61.2773 2.99139 61.265 3.28962 61.265 3.58538ZM60.3999 3.62235V4.32232C60.3999 4.41926 60.3999 4.51538 60.3999 4.61068C60.3999 4.65751 60.4147 4.69695 60.4714 4.70927C60.5281 4.72159 60.5897 4.70927 60.5922 4.5885C60.5922 4.02656 60.5922 3.46215 60.5922 2.9002C60.5922 2.79669 60.5922 2.69317 60.5922 2.58965C60.5886 2.56835 60.5777 2.54899 60.5612 2.53503C60.5447 2.52106 60.5238 2.5134 60.5022 2.5134C60.4806 2.5134 60.4597 2.52106 60.4433 2.53503C60.4268 2.54899 60.4158 2.56835 60.4123 2.58965C60.4036 2.63684 60.3986 2.68464 60.3975 2.7326C60.4098 3.02097 60.4098 3.32166 60.4098 3.62235H60.3999Z" fill="black"/>
<path d="M62.6205 3.69677C62.4751 3.72881 62.3371 3.67952 62.1966 3.72635V5.04495H61.5558C61.5312 4.95622 61.5189 2.36338 61.5435 2.16128C61.9137 2.13895 62.2848 2.13895 62.655 2.16128C62.6797 2.31309 62.6797 2.4679 62.655 2.61971H62.204V3.28763C62.3371 3.31228 62.4775 3.28763 62.6205 3.30489V3.69677Z" fill="black"/>
</svg>
