<svg width="88" height="52" viewBox="0 0 88 52" fill="none" xmlns="http://www.w3.org/2000/svg">
<path d="M43.7998 0H87.024L87.0233 43.2119H43.7998V0Z" fill="white"/>
<path d="M0.577087 0H43.7999V43.2119H0.577087V0Z" fill="black"/>
<path d="M40.1681 12.0591L29.4329 18.2003C27.86 15.6755 25.6205 14.7093 23.5339 14.6918C19.7339 14.66 16.4569 17.7106 16.4589 21.602C16.457 25.605 19.7445 28.5088 23.3406 28.5698C25.4902 28.606 28.1058 27.4087 29.4346 25.0347L40.1691 31.1918C36.2668 37.9183 29.577 40.9553 23.3259 40.9445C13.4139 40.9282 4.08907 33.0036 4.09042 21.6189C4.09008 10.2938 13.4525 2.23156 23.3631 2.2953C29.7906 2.33713 36.3434 5.36098 40.1684 12.0588L40.1681 12.0591Z" fill="white"/>
<path d="M46.9047 3.0957H59.2483L71.6047 18.5428V3.0957H83.9381L83.9388 40.1304H71.6047L59.2483 24.7091V40.1304H46.9013L46.9047 3.0957Z" fill="black"/>
<path d="M5.52042 46.3447C6.19937 46.5356 6.77024 47.0108 7.13917 47.6059L5.71794 48.4188C5.47018 48.0736 5.06216 47.8258 4.62422 47.8915C4.19166 47.9334 3.81257 48.2625 3.69886 48.6809C3.52353 49.4235 4.05493 50.0401 4.70477 50.072C5.06829 50.0828 5.45601 49.9224 5.71794 49.5352L7.13917 50.3557C6.67006 51.1314 5.83932 51.6574 4.93355 51.7339C3.25405 51.7856 1.80603 50.4993 2.03759 48.5408C2.34962 46.8427 3.92961 45.9035 5.52042 46.3448V46.3447Z" fill="black"/>
<path d="M27.7006 46.2432C27.1706 46.2059 26.6255 46.32 26.1356 46.6041C24.8292 47.3617 24.3774 49.0605 25.1349 50.367C25.8924 51.6734 27.5914 52.1254 28.8979 51.3679C30.1478 50.6433 30.603 49.0604 29.9781 47.7804C29.9583 47.7196 29.9319 47.6611 29.8994 47.6061C29.8992 47.6057 29.8991 47.6053 29.8989 47.6049C29.8988 47.6048 29.8987 47.6047 29.8986 47.6046C29.8662 47.5475 29.8276 47.4941 29.7834 47.4456C29.2965 46.7312 28.5213 46.301 27.7006 46.2432L27.7006 46.2432ZM27.5867 47.9892C27.9036 48.0095 28.2015 48.1845 28.3769 48.487C28.377 48.4871 28.377 48.4871 28.3771 48.4872C28.3771 48.4873 28.3772 48.4874 28.3772 48.4874C28.6576 48.9714 28.4995 49.5654 28.0155 49.846C27.5315 50.1266 26.9374 49.9686 26.6567 49.4846C26.3761 49.0006 26.5342 48.4066 27.0182 48.1259V48.1258C27.1997 48.0205 27.3966 47.9771 27.5867 47.9892L27.5867 47.9892Z" fill="black"/>
<path d="M71.8556 46.2432C71.3257 46.2059 70.7806 46.32 70.2907 46.6041C68.9843 47.3617 68.5324 49.0605 69.29 50.367C70.0475 51.6734 71.7465 52.1254 73.053 51.3679C74.303 50.6432 74.7583 49.06 74.133 47.7798C74.1132 47.7193 74.0869 47.661 74.0546 47.6061C74.0546 47.6057 74.0546 47.6053 74.0539 47.6049C74.0539 47.6048 74.0539 47.6047 74.0539 47.6046C74.0215 47.5474 73.9829 47.494 73.9386 47.4454C73.4517 46.7311 72.6765 46.301 71.8558 46.2432L71.8556 46.2432ZM71.7418 47.9892C72.0586 48.0095 72.3566 48.1845 72.532 48.487C72.532 48.4871 72.532 48.4871 72.532 48.4872C72.532 48.4873 72.532 48.4874 72.532 48.4874C72.8124 48.9714 72.6544 49.5654 72.1704 49.846C71.6864 50.1266 71.0924 49.9686 70.8118 49.4846C70.5311 49.0006 70.6891 48.4066 71.1731 48.1259V48.1258C71.3546 48.0205 71.5515 47.9771 71.7416 47.9892L71.7418 47.9892Z" fill="black"/>
<path d="M11.5367 46.3477H8.90093L7.25024 51.6247H9.10544L9.3766 50.7396H11.0667L11.3328 51.6247H13.1874L11.5367 46.3477ZM10.2192 47.8035L10.6906 49.441H9.74675L10.2192 47.8035Z" fill="black"/>
<path d="M13.7194 46.3477V51.6247H15.4672L15.4672 50.0819H16.0368L16.8201 51.6247H18.7642L17.7455 49.8937C18.5301 49.3907 18.7987 48.7674 18.7691 48.1409C18.7698 47.195 17.9177 46.3741 16.9861 46.3477H13.7194ZM16.6301 47.8867C16.8552 47.8896 17.0195 48.1087 17.0294 48.2961C17.0352 48.5641 16.8312 48.765 16.6284 48.7698L15.4672 48.7715V47.8867H16.6301Z" fill="black"/>
<path d="M19.2517 47.8884V46.3477H24.5393V47.8884H22.8848V51.6247H20.9073V47.8884H19.2517Z" fill="black"/>
<path d="M36.7662 46.3477H38.5104L40.2971 48.542V46.3477H42.0424V51.6247H40.2971L38.5104 49.4255V51.6247H36.7662V46.3477Z" fill="black"/>
<path d="M45.6123 46.3477H47.3563L49.143 48.542V46.3477H50.8882V51.6247H49.143L47.3563 49.4255V51.6247H45.6123V46.3477Z" fill="black"/>
<path d="M51.6471 46.3477H56.2553L56.2553 47.8871H53.3925V48.4274H55.803V49.6602H53.3925V50.2155H56.2553L56.2552 51.6246H51.6471L51.6471 46.3477Z" fill="black"/>
<path d="M56.8384 47.8884V46.3477H62.126V47.8884H60.4715V51.6247H58.494V47.8884H56.8384Z" fill="black"/>
<path d="M62.5674 46.3477H64.3412C64.3412 46.3477 64.7848 48.6519 64.7867 48.6614L65.6609 46.5364L66.551 48.6566L66.9965 46.3477H68.7541L67.7492 51.6247H66.2866L65.6607 50.2001L65.0274 51.6247H63.5892C63.5892 51.6247 62.5864 46.4667 62.5674 46.3477Z" fill="black"/>
<path d="M74.934 46.3477V51.6247H76.6817L76.6851 50.0819H77.2513L78.0345 51.6247H79.9788L78.96 49.8937C79.7446 49.3907 80.0136 48.7674 79.9839 48.1409C79.9846 47.195 79.1323 46.3741 78.2006 46.3477H74.934ZM77.8446 47.8867C78.0698 47.8896 78.2339 48.1087 78.2438 48.2961C78.2496 48.5641 78.0458 48.765 77.8429 48.7698L76.6817 48.7715V47.8867H77.8446Z" fill="black"/>
<path d="M80.5484 51.6247V46.3477H82.3134V48.0572L83.6295 46.3477H85.88L83.8377 48.8634L85.88 51.6247H83.6295L82.3134 49.6608V51.6247H80.5484Z" fill="black"/>
<path d="M33.6656 46.2432C33.1356 46.2059 32.5905 46.32 32.1006 46.6041C30.7942 47.3617 30.3424 49.0605 31.0999 50.367C31.8575 51.6734 33.5563 52.1254 34.8628 51.3679C36.1127 50.6433 36.568 49.0604 35.9431 47.7804C35.9233 47.7196 35.8969 47.6611 35.8644 47.6061C35.8642 47.6057 35.8641 47.6053 35.8639 47.6049C35.8638 47.6048 35.8637 47.6047 35.8636 47.6046C35.8312 47.5474 35.7925 47.494 35.7483 47.4454C35.2614 46.7311 34.4863 46.301 33.6656 46.2432L33.6656 46.2432ZM33.5517 47.9892C33.8686 48.0095 34.1664 48.1845 34.3418 48.487C34.3419 48.4871 34.3419 48.4871 34.342 48.4872C34.342 48.4873 34.3421 48.4874 34.3421 48.4874C34.6225 48.9714 34.4645 49.5654 33.9806 49.846C33.4965 50.1266 32.9024 49.9686 32.6218 49.4846C32.3411 49.0006 32.4991 48.4066 32.983 48.1259V48.1258C33.1645 48.0205 33.3616 47.9771 33.5517 47.9892L33.5517 47.9892Z" fill="black"/>
</svg>
