<svg width="125" height="31" viewBox="0 0 125 31" fill="none" xmlns="http://www.w3.org/2000/svg">
<g clip-path="url(#clip0)">
<path d="M59.9327 16.8965C62.3398 16.8965 64.7469 16.9134 67.154 16.8842C67.6922 16.8842 67.7918 17.01 67.7336 17.5362C66.9041 24.892 60.7054 30.1599 53.9639 30.907C46.8606 31.6939 39.8309 27.4308 37.4054 20.7976C34.2455 12.1977 39.7604 2.98579 48.3448 1.09431C54.7198 -0.310875 60.1734 1.40112 64.4955 6.39444C65.0663 7.05389 65.5294 7.79942 65.8677 8.60347C65.9811 8.87192 65.9581 8.97777 65.6408 8.97317C64.7316 8.96243 63.8209 8.96397 62.9117 8.97317C62.8179 8.97507 62.7255 8.95119 62.6444 8.90412C62.5632 8.85705 62.4966 8.78861 62.4517 8.70625C59.232 4.31734 54.8179 2.7879 49.6204 3.77275C44.2849 4.78216 40.9655 8.18314 39.7175 13.4372C38.5262 18.4536 41.0974 23.7752 45.7537 26.4245C51.6519 29.7764 59.1921 28.0766 62.8181 22.5771C63.319 21.7991 63.7305 20.9669 64.0447 20.0965C64.2118 19.6517 64.0846 19.6041 63.6783 19.6056C59.9986 19.6164 56.3189 19.6056 52.6469 19.6256C52.1302 19.6256 52.003 19.4875 52.0428 19.0028C52.0865 18.4734 52.0865 17.9413 52.0428 17.412C52.0061 16.9625 52.1808 16.8888 52.5871 16.8919C55.0418 16.9057 57.4949 16.8965 59.9327 16.8965Z" fill="#221F1F"/>
<path d="M108.888 11.7941C111.617 7.31473 117.29 6.48175 121.613 9.79989C124.005 11.6331 125.008 14.0016 124.997 16.9286C124.981 21.1217 124.981 25.3106 124.997 29.4955C124.997 29.8468 124.937 29.9956 124.537 29.9741C123.873 29.9371 123.208 29.9371 122.544 29.9741C122.128 29.9971 122.009 29.8913 122.012 29.4556C122.032 25.7218 122.023 21.9863 122.024 18.2571C122.024 17.082 122.024 15.8977 121.671 14.7671C120.931 12.4384 119.313 11.0241 116.919 10.6774C114.524 10.3307 112.564 11.1989 111.171 13.1932C110.427 14.267 110.347 15.5372 110.343 16.7936C110.327 21.002 110.327 25.2099 110.343 29.4173C110.343 29.8652 110.229 29.9987 109.785 29.9695C109.179 29.9281 108.572 29.9281 107.966 29.9695C107.488 30.0033 107.338 29.8928 107.341 29.3697C107.368 25.1618 107.364 20.9539 107.353 16.746C107.345 13.6335 105.409 11.2419 102.427 10.685C99.733 10.1819 95.9306 11.699 95.7513 15.8456C95.5979 19.4628 95.7221 23.0832 95.6961 26.7035C95.6884 27.6316 95.6792 28.5613 95.6961 29.4894C95.7053 29.8437 95.6301 29.9895 95.2361 29.968C94.5722 29.9326 93.9069 29.9326 93.2429 29.968C92.8044 29.9925 92.6772 29.8729 92.6787 29.4157C92.7002 25.9473 92.691 22.4788 92.691 19.0103C92.691 15.5986 92.6987 12.1869 92.6818 8.77361C92.6818 8.34561 92.7615 8.1692 93.2322 8.20295C93.8568 8.2367 94.4827 8.2367 95.1073 8.20295C95.4216 8.19067 95.5335 8.27505 95.5228 8.6064C95.4983 9.36269 95.5228 10.122 95.5228 10.8737C95.5857 10.9075 95.624 10.909 95.6577 10.843C96.619 8.94389 98.2642 8.01886 100.288 7.80409C103.405 7.47427 106.071 8.45913 108.172 10.8354C108.44 11.1314 108.65 11.4689 108.888 11.7941Z" fill="#221F1F"/>
<path d="M91.5566 18.8073C91.4999 18.0142 91.4447 17.2227 91.3359 16.4342C90.4711 10.163 84.3629 5.80629 78.1504 7.03506C71.9379 8.26383 68.0512 13.9705 69.1321 20.2923C70.3587 27.4793 78.2347 31.6442 84.8397 28.5761C87.5734 27.3059 89.5635 25.281 90.7517 22.489C90.905 22.1377 90.9449 21.9491 90.4451 21.9721C89.6877 22.0073 88.9287 21.9935 88.1713 21.9721C88.0708 21.9594 87.9689 21.9819 87.8831 22.0359C87.7973 22.0899 87.7328 22.172 87.7007 22.2681C86.2318 25.2979 82.4556 27.1219 78.9875 26.6662C75.5194 26.2106 72.3947 23.1548 71.9455 19.7462C71.8873 19.312 72.0038 19.2568 72.3917 19.2583C75.4811 19.2721 78.5705 19.2583 81.6614 19.2583C84.8075 19.2583 87.9475 19.2583 91.1013 19.2675C91.4677 19.2767 91.5842 19.1755 91.5566 18.8073ZM88.0303 16.5707C85.4346 16.5369 82.8389 16.5553 80.2432 16.5553C77.6475 16.5553 75.0901 16.5431 72.5128 16.5661C72.0222 16.5661 71.8888 16.4725 72.039 15.9739C72.9881 12.8061 75.0702 10.7582 78.2485 9.96509C81.5127 9.14284 84.2893 10.1461 86.5676 12.5837C87.4487 13.5523 88.0965 14.7099 88.4611 15.9678C88.5838 16.3835 88.5853 16.5768 88.0242 16.5676L88.0303 16.5707Z" fill="#221F1F"/>
<path d="M20.9131 15.4207C20.909 16.8854 20.3236 18.2885 19.2856 19.3213C18.2476 20.3541 16.8421 20.932 15.3782 20.928C13.9144 20.9239 12.5121 20.3382 11.4798 19.2996C10.4476 18.261 9.86998 16.8547 9.87404 15.3901C9.87606 14.6648 10.0208 13.9471 10.3001 13.2778C10.5793 12.6086 10.9876 12.0009 11.5015 11.4895C12.0155 10.9781 12.6251 10.573 13.2955 10.2973C13.9659 10.0217 14.6841 9.88082 15.4089 9.88283C16.1337 9.88485 16.8511 10.0297 17.5199 10.3091C18.1888 10.5885 18.7962 10.997 19.3073 11.5112C19.8184 12.0254 20.2233 12.6354 20.4988 13.3062C20.7743 13.977 20.9151 14.6955 20.9131 15.4207Z" fill="#FE0013"/>
<path d="M21.7279 15.3848C21.7279 13.7372 21.7417 12.0896 21.7188 10.4421C21.7188 10.0033 21.8 9.86065 22.2814 9.90667C23.6434 10.0396 24.9075 10.674 25.8284 11.6868C26.7493 12.6996 27.2614 14.0185 27.2652 15.3877C27.269 16.757 26.7644 18.0788 25.8491 19.0967C24.9339 20.1146 23.6733 20.7561 22.3121 20.8966C21.7923 20.9503 21.7141 20.7831 21.7203 20.3274C21.7417 18.6799 21.7279 17.0277 21.7279 15.3848Z" fill="#FE0013"/>
<path d="M9.06469 15.3942C9.06469 17.0816 9.05549 18.7691 9.07236 20.4565C9.07236 20.84 8.96197 20.9336 8.58173 20.9045C7.21396 20.775 5.94361 20.1398 5.01901 19.1231C4.09441 18.1063 3.58203 16.7811 3.58203 15.4065C3.58203 14.0318 4.09441 12.7066 5.01901 11.6898C5.94361 10.6731 7.21396 10.0379 8.58173 9.90843C9.02176 9.87315 9.08309 10.0189 9.08002 10.3947C9.05703 12.0592 9.06469 13.7267 9.06469 15.3942Z" fill="#FE0013"/>
<path d="M15.3916 21.7491C17.0597 21.7491 18.7263 21.7705 20.3929 21.7368C20.8835 21.726 20.9464 21.9055 20.9065 22.3182C20.6382 25.0488 18.4396 27.0998 15.5786 27.2747C13.0228 27.4281 10.5482 25.5059 10.007 22.941C9.75402 21.7491 9.75402 21.7491 10.9606 21.7491H15.3916Z" fill="#FE0013"/>
<path d="M15.3398 9.08173C13.6717 9.08173 12.0035 9.07099 10.3354 9.09094C9.95519 9.09094 9.86166 8.98816 9.88926 8.61231C10.004 7.23882 10.6279 5.9579 11.6385 5.0212C12.649 4.0845 13.973 3.55972 15.3505 3.54996C18.2161 3.52849 20.6462 5.70683 20.9114 8.50033C20.9589 8.99889 20.8056 9.09861 20.3426 9.09247C18.6745 9.06639 17.0064 9.08173 15.3398 9.08173Z" fill="#FE0013"/>
<path d="M21.7281 24.3561C21.7281 23.6182 21.7404 22.8788 21.7281 22.141C21.7205 21.8541 21.7956 21.7421 22.1038 21.7452C23.6186 21.7575 25.1334 21.7575 26.6482 21.7452C26.9778 21.7452 27.0039 21.8771 26.987 22.1563C26.8337 24.6752 24.6872 26.8336 22.1712 26.9901C21.8247 27.0116 21.7113 26.9349 21.7235 26.5713C21.7496 25.8334 21.7281 25.0955 21.7281 24.3561Z" fill="#FE0013"/>
<path d="M24.326 9.05112C23.587 9.05112 22.848 9.03885 22.109 9.05112C21.8116 9.05112 21.7211 8.96061 21.7227 8.66301C21.736 7.16578 21.736 5.66855 21.7227 4.17132C21.7227 3.84303 21.8622 3.80008 22.1351 3.81235C24.648 3.92741 26.8803 6.17632 26.9877 8.68295C27.003 9.02504 26.865 9.05112 26.5998 9.04805C25.8424 9.04038 25.085 9.05112 24.326 9.05112Z" fill="#FE0013"/>
<path d="M6.46103 21.751C7.20003 21.751 7.93903 21.7602 8.67803 21.751C8.96627 21.751 9.0736 21.8262 9.07053 22.1314C9.05673 23.6287 9.0598 25.1259 9.07053 26.6231C9.07053 26.9039 9.023 27.0128 8.69643 27.0005C6.25405 26.9146 3.95885 24.6826 3.83313 22.268C3.81473 21.8983 3.8684 21.7218 4.30382 21.7464C5.01983 21.7832 5.74196 21.7495 6.46103 21.751Z" fill="#FE0013"/>
<path d="M9.06494 6.43249C9.06494 7.15196 9.05114 7.87296 9.0726 8.5909C9.0818 8.91918 9.02047 9.06031 8.64484 9.05111C7.16888 9.02963 5.69241 9.02963 4.21543 9.05111C3.88273 9.05111 3.8168 8.95293 3.826 8.63845C3.89653 6.21466 6.20706 3.89825 8.64791 3.80774C8.96374 3.79547 9.0818 3.88291 9.0726 4.21426C9.04654 4.95521 9.06494 5.69462 9.06494 6.43249Z" fill="#FE0013"/>
<path d="M28.1494 10.6572C29.9433 11.8845 30.8601 13.4722 30.8034 15.5662C30.7512 17.5251 29.8344 19.0055 28.1494 20.1453V10.6572Z" fill="#FE0013"/>
<path d="M2.67083 20.1457C0.909186 18.9936 0 17.4151 0 15.3856C0 13.356 0.919918 11.8128 2.67083 10.6592V20.1457Z" fill="#FE0013"/>
<path d="M20.0546 28.1709C18.9813 29.797 17.5386 30.7021 15.6466 30.7987C13.5109 30.9061 11.8596 30.0025 10.6055 28.1709H20.0546Z" fill="#FE0013"/>
<path d="M20.1611 2.68163H10.6553C11.8052 0.92822 13.3522 0.0123947 15.3653 0.000122331C17.4029 -0.01215 18.979 0.899073 20.1611 2.68163Z" fill="#FE0114"/>
</g>
<defs>
<clipPath id="clip0">
<rect width="125" height="31" fill="white"/>
</clipPath>
</defs>
</svg>
