<svg width="141" height="14" viewBox="0 0 141 14" fill="none" xmlns="http://www.w3.org/2000/svg">
<g clip-path="url(#clip0)">
<path fill-rule="evenodd" clip-rule="evenodd" d="M39.8669 0.328613C36.407 0.328613 33.5967 3.16976 33.5967 6.67414C33.5967 10.1785 36.407 13.0197 39.8669 13.0197C43.3269 13.0197 46.1299 10.1785 46.1299 6.67414C46.1299 3.16976 43.3269 0.328613 39.8669 0.328613ZM39.9921 3.09981C44.1438 3.14486 45.7472 6.60902 45.7472 6.60902C45.7472 6.60902 44.0042 10.2485 39.9921 10.2485C35.5246 10.2485 33.9352 6.60902 33.9352 6.60902C33.9352 6.60902 35.7568 3.05385 39.9921 3.09981Z" fill="#0066FF"/>
<path fill-rule="evenodd" clip-rule="evenodd" d="M43.354 6.67366C43.354 8.53429 41.7916 10.0426 39.8643 10.0426C37.9369 10.0426 36.3745 8.53429 36.3745 6.67366C36.3745 4.81303 37.9369 3.30469 39.8643 3.30469C41.7916 3.30469 43.354 4.81303 43.354 6.67366Z" fill="#0066FF"/>
<path d="M6.74195 12.3046C5.93819 12.3046 5.18251 12.1653 4.47493 11.8867C3.76735 11.608 3.15365 11.2186 2.63384 10.7183C2.11403 10.218 1.70135 9.62479 1.39581 8.93874C1.09027 8.25269 0.937499 7.50729 0.9375 6.70253V6.67136C0.937499 5.8874 1.08757 5.15238 1.38771 4.46632C1.68786 3.78028 2.10053 3.18191 2.62574 2.67122C3.15095 2.16054 3.77536 1.76077 4.49898 1.47188C5.22259 1.18302 6.01326 1.03859 6.87101 1.03857C7.4497 1.03859 7.9749 1.09274 8.44663 1.20104C8.91835 1.30935 9.34984 1.4641 9.74109 1.66528C10.1323 1.86648 10.486 2.10631 10.8022 2.38479C11.1184 2.66328 11.6132 3.40914 11.8599 3.92861L9.29898 5.04674C8.9774 4.65445 8.62361 4.34488 8.2376 4.11802C7.85158 3.89118 7.38525 3.77776 6.83862 3.77775C6.44213 3.77776 6.08041 3.85254 5.75345 4.00208C5.42647 4.15164 5.14506 4.35535 4.9092 4.6132C4.67334 4.87107 4.48842 5.17537 4.35447 5.5261C4.2205 5.87685 4.15352 6.24837 4.15353 6.64066V6.67136C4.15352 7.07374 4.2205 7.4529 4.35447 7.80883C4.48842 8.16477 4.67334 8.47174 4.9092 8.72976C5.14506 8.98778 5.42647 9.19156 5.75345 9.34111C6.08041 9.49067 6.44213 9.56545 6.83862 9.56544C7.12813 9.56545 7.39343 9.53451 7.63453 9.47264C7.87562 9.41078 8.09537 9.32049 8.29378 9.20179C8.49218 9.0831 8.67979 8.94378 8.85661 8.78383C9.03342 8.62389 9.20753 8.446 9.37896 8.25017L11.8977 9.43874C11.6508 9.91593 11.1665 10.5353 10.8503 10.8344C10.5341 11.1335 10.175 11.3914 9.77299 11.608C9.37094 11.8246 8.92072 11.9949 8.42235 12.1188C7.92395 12.2427 7.36382 12.3046 6.74195 12.3046Z" fill="#0066FF"/>
<path d="M17.6367 9.6736C18.1192 9.6736 18.489 9.58852 18.7462 9.41834C19.0033 9.24816 19.1318 9.00314 19.1319 8.68325V8.65255C19.1318 8.35313 19.0086 8.11574 18.7621 7.94036C18.5156 7.765 18.1297 7.67731 17.6043 7.67731H15.2249V9.6736H17.6367ZM17.1862 5.57286C17.6687 5.57287 18.036 5.4955 18.2879 5.34074C18.5397 5.186 18.6657 4.94868 18.6657 4.62879V4.59762C18.6657 4.29853 18.5477 4.069 18.3119 3.90905C18.076 3.74912 17.7224 3.66915 17.251 3.66914H15.2249V5.57287L17.1862 5.57286ZM12.186 1.25488H17.9581C18.6657 1.25489 19.2714 1.33746 19.7752 1.50259C20.2789 1.66774 20.697 1.91025 21.0294 2.23012C21.2544 2.44675 21.4313 2.69949 21.5601 2.98836C21.6888 3.27724 21.7531 3.60743 21.7532 3.97895V4.00964C21.7531 4.63903 21.5897 5.1472 21.2627 5.53414C20.9357 5.92109 20.5203 6.21768 20.0166 6.4239C20.7026 6.64052 21.2465 6.95261 21.6484 7.36018C22.0503 7.76775 22.2512 8.3377 22.2512 9.07004V9.1012C22.2512 10.0401 21.8788 10.7726 21.1339 11.2987C20.389 11.8248 19.3412 12.0879 17.9905 12.0879H12.186V1.25488Z" fill="#0066FF"/>
<path d="M27.0927 12.2735C26.0852 12.2735 25.1285 12.124 24.2226 11.8249C23.3168 11.5258 22.6436 11.2448 21.9468 10.6463L23.5553 8.48212C24.6806 9.34889 25.8972 9.78228 27.2051 9.78228C27.6232 9.78228 27.9421 9.71774 28.162 9.58865C28.3818 9.45956 28.4917 9.27648 28.4917 9.0394V9.00822C28.4917 8.89488 28.4649 8.79437 28.4112 8.70668C28.3576 8.619 28.2584 8.53383 28.1136 8.45118C27.9689 8.36854 27.7759 8.28856 27.5348 8.21126C27.2937 8.13397 26.9802 8.05408 26.5942 7.97159C25.9939 7.83747 25.4365 7.69043 24.9219 7.53049C24.4073 7.37055 23.9598 7.16416 23.5793 6.91134C23.1989 6.65852 22.8987 6.34383 22.6789 5.96727C22.4591 5.59071 22.3492 5.12395 22.3492 4.56698V4.53581C22.3492 4.03049 22.4484 3.56632 22.6468 3.14332C22.8452 2.72033 23.1346 2.35408 23.5151 2.04458C23.8955 1.73509 24.3537 1.49518 24.8897 1.32484C25.4257 1.15451 26.0313 1.06935 26.7065 1.06934C27.6716 1.06935 28.5319 1.19056 29.2876 1.43299C30.0433 1.67543 30.7267 2.03404 31.3377 2.50882L29.7778 4.62885C29.2632 4.27812 28.7353 4.01246 28.1941 3.83189C27.6528 3.65133 27.1303 3.56105 26.6266 3.56104C26.2513 3.56105 25.9699 3.62811 25.7823 3.76223C25.5947 3.89636 25.5009 4.06134 25.5009 4.25717V4.28834C25.5009 4.41209 25.5303 4.52039 25.5892 4.61327C25.6481 4.70615 25.7499 4.79124 25.8947 4.86853C26.0394 4.94583 26.2378 5.02321 26.4897 5.10065C26.7415 5.17811 27.0605 5.25808 27.4465 5.34056C28.0897 5.4747 28.6711 5.63204 29.1909 5.8126C29.7107 5.99317 30.1529 6.21239 30.5175 6.47024C30.8821 6.72811 31.1608 7.0402 31.3537 7.40652C31.5465 7.77285 31.6429 8.20883 31.643 8.71448V8.74517C31.6429 9.30246 31.5331 9.79771 31.3135 10.2309C31.0938 10.6642 30.7856 11.0329 30.389 11.3372C29.9923 11.6415 29.5153 11.8737 28.9579 12.0336C28.4004 12.1935 27.7787 12.2735 27.0927 12.2735Z" fill="#0066FF"/>
<path d="M55.2697 8.45534L52.7626 2.54294L50.2406 8.45534H55.2697ZM52.2289 1.14941H53.3257L57.6314 11.8302H56.6125L55.5785 9.29414H49.9318L48.8523 11.8302H47.6821L52.2289 1.14941Z" fill="#0066FF"/>
<path d="M58.6328 1.22461H59.8038V10.7241H65.6427V11.83H58.6328V1.22461Z" fill="#0066FF"/>
<path d="M66.6992 1.22461H67.8702V10.7241H73.7091V11.83H66.6992V1.22461Z" fill="#0066FF"/>
<path d="M91.4765 12.0118C90.7254 12.0118 90.0338 11.8704 89.4015 11.5876C88.7692 11.3048 88.2209 10.9185 87.7565 10.4287C87.2922 9.93892 86.9291 9.36067 86.6672 8.69396C86.4053 8.02726 86.2744 7.31523 86.2744 6.5579V6.52738C86.2744 5.77992 86.4053 5.07291 86.6672 4.40634C86.9291 3.7398 87.2922 3.15654 87.7565 2.65658C88.2209 2.15663 88.7742 1.76271 89.4164 1.4748C90.0586 1.18692 90.7601 1.04298 91.5209 1.04297C91.9951 1.04298 92.4225 1.08336 92.8028 1.1641C93.1832 1.24487 93.5364 1.35853 93.8625 1.50509C94.1886 1.65166 94.49 1.82844 94.7666 2.03541C95.0433 2.24239 95.31 2.47211 95.5669 2.72454L94.7664 3.60347C94.322 3.17935 93.8453 2.83089 93.3365 2.55809C92.8277 2.28532 92.2175 2.14892 91.5059 2.14891C90.933 2.14892 90.4021 2.26004 89.913 2.48227C89.4239 2.70451 88.9991 3.01259 88.6385 3.40651C88.2779 3.80044 87.9962 4.26256 87.7936 4.79287C87.591 5.32319 87.4897 5.89135 87.4897 6.49733V6.52738C87.4897 7.14355 87.591 7.71678 87.7936 8.2471C87.9962 8.77742 88.2779 9.23954 88.6385 9.63346C88.9991 10.0274 89.4239 10.3379 89.913 10.5651C90.4021 10.7923 90.933 10.9058 91.5059 10.9058C92.2175 10.9058 92.8301 10.772 93.3438 10.5043C93.8574 10.2366 94.3613 9.86047 94.8555 9.37593L95.6262 10.1485C95.3593 10.4312 95.0802 10.6862 94.7888 10.9135C94.4974 11.1408 94.1837 11.3352 93.8478 11.4967C93.5119 11.6582 93.1513 11.7845 92.766 11.8754C92.3806 11.9663 91.9508 12.0118 91.4765 12.0118V12.0118Z" fill="#0066FF"/>
<path d="M101.564 12.0118C100.813 12.0118 100.121 11.8704 99.4889 11.5876C98.8566 11.3048 98.3083 10.9185 97.8439 10.4287C97.3796 9.93892 97.0165 9.36067 96.7546 8.69396C96.4927 8.02726 96.3618 7.31523 96.3618 6.5579V6.52738C96.3618 5.77992 96.4927 5.07291 96.7546 4.40634C97.0165 3.7398 97.3796 3.15654 97.8439 2.65658C98.3083 2.15663 98.8616 1.76271 99.5038 1.4748C100.146 1.18692 100.848 1.04298 101.608 1.04297C102.083 1.04298 102.51 1.08336 102.89 1.1641C103.271 1.24487 103.624 1.35853 103.95 1.50509C104.276 1.65166 104.577 1.82844 104.854 2.03541C105.131 2.24239 105.397 2.47211 105.654 2.72454L104.854 3.60347C104.409 3.17935 103.933 2.83089 103.424 2.55809C102.915 2.28532 102.305 2.14892 101.593 2.14891C101.02 2.14892 100.489 2.26004 100 2.48227C99.5113 2.70451 99.0865 3.01259 98.7259 3.40651C98.3653 3.80044 98.0836 4.26256 97.881 4.79287C97.6784 5.32319 97.5771 5.89135 97.5771 6.49733V6.52738C97.5771 7.14355 97.6784 7.71678 97.881 8.2471C98.0836 8.77742 98.3653 9.23954 98.7259 9.63346C99.0865 10.0274 99.5113 10.3379 100 10.5651C100.489 10.7923 101.02 10.9058 101.593 10.9058C102.305 10.9058 102.918 10.772 103.431 10.5043C103.945 10.2366 104.449 9.86047 104.943 9.37593L105.714 10.1485C105.447 10.4312 105.168 10.6862 104.876 10.9135C104.585 11.1408 104.271 11.3352 103.935 11.4967C103.599 11.6582 103.239 11.7845 102.853 11.8754C102.468 11.9663 102.038 12.0118 101.564 12.0118V12.0118Z" fill="#0066FF"/>
<path d="M107.166 1.22461H114.665V2.31576H108.336V5.93643H113.998V7.02758H108.336V10.7393H114.739V11.83H107.166V1.22461Z" fill="#0066FF"/>
<path d="M119.199 11.982C118.369 11.982 117.611 11.843 116.925 11.5652C116.238 11.2873 115.583 10.8606 114.961 10.2852L115.687 9.40622C116.23 9.91142 116.779 10.2877 117.332 10.5351C117.886 10.7824 118.523 10.9061 119.244 10.9061C119.945 10.9061 120.506 10.7369 120.926 10.3987C121.346 10.0604 121.556 9.62862 121.556 9.10338V9.07287C121.556 8.8306 121.516 8.61098 121.437 8.41402C121.358 8.21706 121.22 8.03775 121.022 7.87607C120.825 7.71441 120.55 7.56792 120.2 7.43661C119.849 7.3053 119.402 7.17908 118.859 7.05794C118.266 6.92664 117.75 6.77514 117.31 6.60345C116.87 6.43177 116.507 6.22471 116.221 5.98228C115.934 5.73986 115.722 5.45706 115.583 5.13387C115.445 4.81069 115.376 4.43195 115.376 3.99764V3.96713C115.376 3.55317 115.46 3.16942 115.628 2.81587C115.796 2.46233 116.033 2.1568 116.339 1.89926C116.645 1.64174 117.006 1.43977 117.421 1.29335C117.836 1.14695 118.29 1.07374 118.785 1.07373C119.545 1.07374 120.21 1.18232 120.778 1.39946C121.346 1.61662 121.897 1.94234 122.43 2.37664L121.748 3.30088C121.264 2.89679 120.778 2.60381 120.289 2.42195C119.8 2.2401 119.288 2.14917 118.755 2.14916C118.073 2.14917 117.534 2.3133 117.139 2.64156C116.744 2.96984 116.547 3.3764 116.547 3.86125V3.89176C116.547 4.14422 116.586 4.36892 116.665 4.56587C116.744 4.76284 116.887 4.94462 117.095 5.11122C117.302 5.27782 117.589 5.42932 117.954 5.56571C118.32 5.70211 118.789 5.83087 119.363 5.952C120.519 6.21462 121.371 6.57826 121.919 7.04292C122.467 7.50759 122.742 8.14386 122.742 8.95174V8.98225C122.742 9.43659 122.653 9.84809 122.475 10.2167C122.297 10.5854 122.052 10.901 121.741 11.1636C121.43 11.4262 121.057 11.6283 120.622 11.7698C120.187 11.9113 119.713 11.982 119.199 11.982V11.982Z" fill="#0066FF"/>
<path d="M128.181 11.982C127.351 11.982 126.593 11.843 125.906 11.5652C125.22 11.2873 124.565 10.8606 123.943 10.2852L124.669 9.40622C125.212 9.91142 125.761 10.2877 126.314 10.5351C126.867 10.7824 127.505 10.9061 128.226 10.9061C128.927 10.9061 129.488 10.7369 129.908 10.3987C130.328 10.0604 130.538 9.62861 130.538 9.10338V9.07287C130.538 8.8306 130.498 8.61098 130.419 8.41402C130.34 8.21706 130.202 8.03774 130.004 7.87607C129.806 7.71441 129.532 7.56792 129.182 7.43661C128.831 7.3053 128.384 7.17908 127.841 7.05794C127.248 6.92664 126.732 6.77514 126.292 6.60345C125.852 6.43177 125.489 6.22471 125.202 5.98228C124.916 5.73986 124.704 5.45706 124.565 5.13387C124.427 4.81069 124.358 4.43195 124.358 3.99764V3.96713C124.358 3.55317 124.442 3.16942 124.61 2.81587C124.777 2.46233 125.015 2.1568 125.321 1.89926C125.627 1.64174 125.988 1.43977 126.403 1.29335C126.818 1.14695 127.272 1.07374 127.766 1.07373C128.527 1.07374 129.192 1.18232 129.76 1.39946C130.328 1.61662 130.879 1.94234 131.412 2.37664L130.73 3.30087C130.246 2.89679 129.76 2.60381 129.271 2.42194C128.782 2.24009 128.27 2.14916 127.737 2.14915C127.055 2.14916 126.516 2.3133 126.121 2.64156C125.726 2.96984 125.529 3.3764 125.529 3.86124V3.89176C125.529 4.14421 125.568 4.36891 125.647 4.56587C125.726 4.76284 125.869 4.94462 126.077 5.11121C126.284 5.27782 126.571 5.42931 126.936 5.5657C127.302 5.7021 127.771 5.83087 128.344 5.952C129.5 6.21462 130.353 6.57826 130.901 7.04291C131.449 7.50758 131.723 8.14385 131.723 8.95173V8.98225C131.723 9.43659 131.634 9.84808 131.457 10.2167C131.279 10.5854 131.034 10.901 130.723 11.1636C130.412 11.4262 130.039 11.6283 129.604 11.7698C129.169 11.9112 128.695 11.982 128.181 11.982V11.982Z" fill="#0066FF"/>
<path d="M83.6951 8.45534L81.188 2.54294L78.6659 8.45534H83.6951ZM80.6543 1.14941H81.7511L86.1773 11.8302H85.0378L84.0039 9.29414H78.3571L77.2777 11.8302H76.228L80.6543 1.14941Z" fill="#0066FF"/>
<path fill-rule="evenodd" clip-rule="evenodd" d="M135.511 0.299805L133.87 4.00438H136.423L135.629 0.299805H135.511Z" fill="#0066FF"/>
<path fill-rule="evenodd" clip-rule="evenodd" d="M137.233 0.299805L138.793 7.4123H138.926C139.588 7.4123 140.125 6.85842 140.125 6.16779V1.55155C140.125 0.860919 139.588 0.299805 138.926 0.299805H137.233Z" fill="#0066FF"/>
<path fill-rule="evenodd" clip-rule="evenodd" d="M133.312 5.26318L132.922 6.00844V6.16762C132.922 6.85825 133.452 7.41213 134.115 7.41213H137.161L136.698 5.26318H134.357H133.312Z" fill="#0066FF"/>
</g>
<defs>
<clipPath id="clip0">
<rect width="139.188" height="12.72" fill="white" transform="translate(0.9375 0.299805)"/>
</clipPath>
</defs>
</svg>
