<svg width="39" height="53" viewBox="0 0 39 53" fill="none" xmlns="http://www.w3.org/2000/svg">
<g clip-path="url(#clip0)">
<path d="M9.84528 48.6954H14.1499V53H9.84528V48.6954ZM23.9736 53H34.7297V48.6954H23.9736V53ZM0 35.4888H21.2086V31.1841H0V35.4888ZM16.9149 53H21.2195V38.2537H16.9149V53ZM14.1391 19.7667V12.9248L1.60474 28.4192H7.1455L14.1391 19.7666V19.7667ZM24.6132 0L23.9737 0.791604V7.63347L27.9641 2.69997L24.6132 9.34445e-05V0ZM31.0431 31.184V35.4887H38.4161V31.184H31.0431ZM28.2782 6.70096L23.9736 12.0138V45.9303H28.2782V6.70106V6.70096ZM16.9149 28.4191H21.2195V4.19639L16.9149 9.50926V28.4192V28.4191Z" fill="#192D48"/>
</g>
<defs>
<clipPath id="clip0">
<rect width="38.4161" height="53" fill="white"/>
</clipPath>
</defs>
</svg>
