<svg width="125" height="25" viewBox="0 0 125 25" fill="none" xmlns="http://www.w3.org/2000/svg">
<path d="M6.95293 12.5C6.95293 15.4995 9.38388 18.0314 12.4602 18.0314C13.9059 18.0314 14.9521 17.4684 16.1826 16.5623C16.8287 16.0939 17.444 15.5622 18.5519 15.5622C19.4748 15.5622 20.2127 15.906 20.7362 16.3124C21.5357 16.9374 21.9667 17.8122 21.9667 18.9062C21.9667 20.0622 21.4741 20.8438 20.9513 21.4374C19.3206 23.3123 15.9675 25 12.2142 25C5.29216 25 0 19.1874 0 12.5C0 5.8126 5.32226 0 12.2142 0C15.9367 0 19.198 1.6877 20.8279 3.56259C21.3514 4.15622 21.8434 4.9378 21.8434 6.09376C21.8434 7.15575 21.4131 8.06262 20.6128 8.68758C19.9667 9.18725 19.2281 9.43709 18.4286 9.43709C17.3214 9.43709 16.7061 8.90609 16.0593 8.43774C14.9521 7.62484 13.9367 6.96856 12.3985 6.96856C9.38388 6.96856 6.95293 9.49973 6.95293 12.5ZM93.5268 5.53144V11.3127H97.7727C99.3417 11.3127 100.541 10.0628 100.541 8.43774C100.541 6.84327 99.3109 5.53144 97.7727 5.53144H93.5268ZM65.6226 12.5C65.6226 16.469 68.6989 19.6871 72.5138 19.6871C76.2979 19.6871 79.4058 16.469 79.4058 12.5C79.4058 8.56229 76.2979 5.31218 72.5138 5.31218C68.6989 5.31218 65.6226 8.56229 65.6226 12.5ZM112.94 23.5629C111.74 23.5629 111.094 22.8753 111.094 21.7499V3.21878C111.094 2.00018 111.801 1.40579 112.94 1.40579H123.031C124.17 1.40579 124.877 2.00018 124.877 3.21878V3.71845C124.877 4.9378 124.17 5.53144 123.031 5.53144H115.401V10.4685H121.739C122.877 10.4685 123.584 11.0621 123.584 12.2815V12.8125C123.584 13.9998 122.877 14.5934 121.739 14.5934H115.401V19.4372H123.154C124.322 19.4372 125 20.0622 125 21.2502V21.7812C125 22.9685 124.322 23.5629 123.154 23.5629H112.94ZM93.5268 21.7499C93.5268 22.8753 92.9115 23.5629 91.7118 23.5629H91.0657C89.8661 23.5629 89.2192 22.8753 89.2192 21.7499V3.21878C89.2192 2.06208 89.8661 1.40579 91.0657 1.40579H97.9878C101.834 1.40579 104.941 4.62458 104.941 8.43774C104.941 10.7183 103.618 12.7812 101.741 13.9998C102.818 14.9372 103.494 16.0626 103.925 17.5004L104.941 21.0623C105.094 21.5627 105.156 21.9378 105.156 22.1563C105.156 22.9685 104.418 23.5629 103.464 23.5629H102.541C101.587 23.5629 101.033 23.0938 100.787 22.219L99.772 18.5624C99.3417 17.0314 98.0187 15.4376 95.8344 15.4376H93.5268V21.7499ZM47.7792 15.0312C47.2248 15.8441 46.8247 16.469 45.6867 16.469H45.1023C43.9642 16.469 43.5641 15.8441 43.0105 15.0312L39.2873 9.43709V21.7499C39.2873 22.8753 38.6413 23.5629 37.4416 23.5629H36.8263C35.5958 23.5629 34.9805 22.8753 34.9805 21.7499V3.21878C34.9805 2.06208 35.5958 1.40579 36.8263 1.40579H37.595C38.6413 1.40579 39.1031 1.71828 39.6567 2.53117L45.3791 11.0621L51.1323 2.53117C51.655 1.71828 52.1169 1.40579 53.1932 1.40579H53.9627C55.1932 1.40579 55.8084 2.06208 55.8084 3.21878V21.7499C55.8084 22.8753 55.1932 23.5629 53.9627 23.5629H53.3474C52.1169 23.5629 51.5016 22.8753 51.5016 21.7499V9.43709L47.7792 15.0312ZM61.2232 12.5C61.2232 6.2183 66.2995 1.09331 72.5138 1.09331C78.7289 1.09331 83.8052 6.2183 83.8052 12.5C83.8052 18.7809 78.7289 23.8746 72.5138 23.8746C66.2995 23.8746 61.2232 18.7809 61.2232 12.5Z" fill="#FF3033"/>
</svg>
