<svg width="96" height="37" viewBox="0 0 96 37" fill="none" xmlns="http://www.w3.org/2000/svg">
<path d="M66.8026 0.375V4.04276L66.5554 4.1163L65.5634 4.39361C64.548 4.57404 63.94 6.05041 63.94 8.35173V28.6576C63.94 31.1863 64.4578 32.3988 65.6536 32.6259L66.863 32.9567V36.6344H53.2843V32.9433L53.5515 32.8865L54.8575 32.6226C56.0568 32.3587 56.5645 31.1795 56.5645 28.6575V10.0821C55.5824 12.9514 47.5089 36.5941 47.5089 36.5941H45.5281C45.5281 36.5941 37.5648 13.0082 36.5825 10.1021V28.6575C36.5825 31.1796 37.0937 32.3587 38.2794 32.6226L39.8662 32.9433V36.6344H29.1705V32.9567L29.4177 32.8898L30.4432 32.6125C31.5622 32.3987 32.0665 31.1862 32.0665 28.6575V8.35163C32.0665 6.05032 31.4586 4.57395 30.4098 4.3869L29.1705 4.04607V0.375H42.3514C42.3514 0.375 47.8863 16.9466 48.4909 18.7537C49.0689 16.9466 54.3467 0.375 54.3467 0.375" fill="black"/>
<path d="M13.4444 0C15.2414 0 16.8281 0.330623 18.428 1.05217C19.4703 1.57646 20.5527 1.93062 21.1371 1.93062C21.4144 1.93062 21.7485 1.93062 21.7485 0.557749V0.210396H26.5118V12.0152H19.6607V11.671C19.6607 6.38666 18.9592 4.17863 14.6168 4.17863C11.1196 4.17863 9.4895 5.96256 9.4895 9.79714V25.8106C9.4895 27.9184 9.95368 32.8253 14.2728 32.8253C18.0072 32.8253 19.6607 30.4438 19.6607 25.1056V24.7651H26.5117V25.1056C26.5117 30.5738 23.2516 36.9473 14.0989 36.9473C4.23829 36.9474 0.741131 29.5284 0.741131 23.1784V12.543C0.741131 6.47683 5.84169 0 13.4444 0Z" fill="black"/>
<path d="M95.2589 0.375V11.9961H91.0534V11.2013C91.0534 8.14474 90.2317 4.87121 87.9334 4.87121C86.4904 4.87121 85.7724 6.47139 85.7724 9.74483V28.6576C85.7724 31.2196 86.2903 32.3988 87.5193 32.6126L87.5427 32.6227L88.7018 32.9633V36.6344H75.4341V32.9567L75.6846 32.8898L76.7135 32.6125C77.8791 32.3987 78.3902 31.1862 78.3902 28.6575V9.74473C78.3902 6.4712 77.692 4.87111 76.239 4.87111C73.9444 4.87111 73.1158 8.14464 73.1158 11.2012V11.996H68.9003V0.375" fill="black"/>
</svg>
