<svg width="113" height="57" viewBox="0 0 113 57" fill="none" xmlns="http://www.w3.org/2000/svg">
<g clip-path="url(#clip0)">
<path d="M0 57.0331C0 42.7059 0.0193361 28.3788 0.0580082 14.0516C0.0580082 9.91879 0.116016 5.78596 0.0580082 1.65313C0.0580082 0.314095 0.497213 0 1.71539 0C19.6151 0.0330626 37.5175 0.0330626 55.4227 0C56.4834 0 57.1795 0.0991879 57.1795 1.45476C57.1243 19.9698 57.0939 38.4849 57.0884 57L0 57.0331ZM38.0617 30.6408L38.4512 30.5829C39.7522 32.5998 41.0615 34.6083 42.346 36.6251C43.6305 38.642 45.2547 39.452 47.1192 38.8569C48.9838 38.2617 49.8208 36.6995 49.8208 34.724C49.8208 29.8638 49.8208 25.0064 49.8208 20.1517C49.8208 19.135 49.7545 18.3663 48.3623 18.4076C46.9701 18.449 47.0944 19.2342 47.0944 20.1104C47.0944 24.7061 47.0944 29.3018 47.0944 33.8975C47.0944 34.724 47.4176 35.7655 46.2657 36.0879C45.1138 36.4102 44.8238 35.4018 44.3763 34.7075C42.0145 30.988 39.6776 27.2684 37.291 23.5489C36.8932 22.9289 36.6198 21.7883 35.7413 22.0032C34.8629 22.2181 35.2358 23.3422 35.2193 24.0531C35.1696 27.4668 35.2193 30.8888 35.2193 34.3025C35.2193 35.0133 35.327 35.8482 34.3906 36.1044C33.4542 36.3606 33.1558 35.5589 32.7746 34.9637C30.2471 31.0376 27.7362 27.1031 25.1839 23.1934C24.8524 22.681 24.6535 21.7304 23.8745 21.9453C23.0956 22.1602 23.3939 23.0695 23.3856 23.6894C23.3856 27.3015 23.3856 30.9136 23.3856 34.5257C23.3856 35.3026 23.5016 36.2284 22.3083 36.2201C19.5322 36.2201 16.7395 36.5673 14.0214 36.0135C12.2549 35.655 10.6824 34.6607 9.60347 33.2203C8.52455 31.7798 8.01463 29.9937 8.17087 28.2024C8.28465 26.3775 9.06827 24.6583 10.3721 23.373C11.676 22.0877 13.4087 21.3264 15.2396 21.2345C16.2257 21.1766 17.2202 21.1766 18.2063 21.2345C19.1924 21.2923 19.5488 20.9617 19.5405 19.9946C19.5322 19.0276 19.3913 18.4572 18.2809 18.4738C16.7642 18.3993 15.244 18.4657 13.7397 18.6721C11.2445 19.1429 9.01214 20.5178 7.47256 22.5321C5.93297 24.5465 5.19501 27.0577 5.40078 29.5823C5.60656 32.1069 6.74153 34.4663 8.58711 36.2061C10.4327 37.9459 12.8584 38.9431 15.397 39.0057C17.6428 39.0552 19.8885 39.0057 22.1343 39.0057C25.0098 39.0057 26.1617 37.7989 26.2114 34.8728C26.2114 33.4759 26.2114 32.0708 26.2114 30.6739C27.8645 32.6881 29.379 34.8118 30.7444 37.0302C31.164 37.7907 31.8314 38.3856 32.6361 38.7162C33.4408 39.0469 34.3346 39.0936 35.1696 38.8486C36.0534 38.6583 36.8364 38.1506 37.3696 37.4222C37.9028 36.6938 38.1491 35.7953 38.0617 34.8976C38.0534 33.4677 38.0617 32.0542 38.0617 30.6408ZM32.0205 26.8303L31.5565 26.9213C30.1643 24.7061 28.8135 22.4578 27.355 20.3087C26.9312 19.5476 26.2514 18.9602 25.4358 18.6502C24.6201 18.3402 23.7208 18.3275 22.8967 18.6143C22.0528 18.8204 21.3111 19.3217 20.8062 20.027C20.3014 20.7323 20.0669 21.5948 20.1454 22.4578C20.1454 24.5655 20.1454 26.665 20.1454 28.7645C20.1454 33.2032 20.1454 33.2032 15.6871 32.9717C14.5866 32.9729 13.5281 32.5509 12.7317 31.7934C11.9352 31.036 11.4622 30.0015 11.411 28.905C11.3767 27.7751 11.7849 26.6762 12.5491 25.8414C13.3133 25.0066 14.3735 24.5015 15.5048 24.4333C16.363 24.3796 17.2238 24.3796 18.082 24.4333C18.9853 24.4333 19.5902 24.3424 19.5736 23.1852C19.5571 22.028 19.2919 21.532 18.1317 21.6312C16.9465 21.6335 15.7623 21.7025 14.5849 21.8379C13.0002 22.1051 11.5563 22.9093 10.4968 24.1147C9.43722 25.3201 8.82678 26.8531 8.76837 28.4551C8.70996 30.0571 9.20717 31.6303 10.1762 32.9093C11.1451 34.1882 12.5266 35.0948 14.0877 35.4762C16.4329 36.0796 18.8278 35.6002 21.1896 35.7738C22.5818 35.8812 23.0458 35.3109 23.021 33.9471C22.9547 30.3432 23.021 26.7229 23.021 23.1191C23.021 22.4165 22.847 21.5568 23.7751 21.2923C24.7032 21.0278 25.0015 21.8379 25.4325 22.433C27.9903 26.4171 30.5565 30.3956 33.131 34.3686C33.4293 34.8232 33.5785 35.6415 34.3574 35.3688C34.9707 35.1539 34.7469 34.4595 34.7469 33.9719C34.7469 30.5581 34.7469 27.1444 34.7469 23.7307C34.7469 22.8463 34.4403 21.6891 35.5756 21.3089C36.7109 20.9287 37.0838 22.1354 37.5562 22.838C40.0422 26.7064 42.4869 30.6077 44.9647 34.4843C45.2381 34.9224 45.5033 35.5754 46.0834 35.468C46.9121 35.3026 46.5806 34.5091 46.5889 33.9719C46.5889 29.31 46.5889 24.6482 46.5889 19.9864C46.5889 19.011 46.448 18.3746 45.205 18.3746C43.9619 18.3746 43.8542 19.0606 43.8625 20.0277C43.8625 22.3008 43.8625 24.5738 43.8625 26.8469C42.2222 24.8643 40.7214 22.7708 39.371 20.5815C38.1943 18.7796 36.5949 18.0605 34.8629 18.5399C33.131 19.0193 32.1034 20.4079 32.0537 22.5735C31.9957 23.9704 32.0205 25.4004 32.0205 26.8303Z" fill="#AE231C"/>
<path d="M81.9739 20.1109C82.1148 18.4578 83.0263 18.185 84.3191 18.2759C85.7683 18.3503 87.2204 18.3503 88.6697 18.2759C89.6724 18.2759 90.1199 18.4825 89.8796 19.6067C88.4708 26.0787 87.1532 32.5672 85.7361 39.031C85.4049 40.6885 84.5785 42.2071 83.3657 43.3874C82.1528 44.5676 80.6103 45.3541 78.9409 45.6435C75.5976 46.5384 72.0642 46.432 68.7812 45.3377C66.6929 44.569 65.1432 43.2382 64.7703 40.8908C64.6046 39.8823 64.7703 39.2376 66.0382 39.2872C67.7536 39.3533 69.469 39.2872 71.1844 39.2872C71.7893 39.2872 72.3445 39.2872 72.5931 40.0311C72.7557 40.537 73.0984 40.966 73.5564 41.237C74.0144 41.5081 74.5561 41.6025 75.0792 41.5024C75.6471 41.4872 76.198 41.3059 76.6635 40.9812C77.129 40.6565 77.4887 40.2025 77.6978 39.6757C77.8277 39.4477 77.9253 39.203 77.9879 38.9483C78.0708 38.1879 78.8663 37.3448 78.2696 36.7497C77.673 36.1545 76.9355 36.9315 76.2725 37.1133C70.0076 38.907 65.5907 35.5842 65.7233 29.1039C65.7979 25.3513 66.9498 21.9707 70.0076 19.5571C71.448 18.359 73.2421 17.6643 75.1157 17.5792C76.9893 17.4941 78.8392 18.0233 80.3828 19.0859L81.9739 20.1109ZM80.8386 27.2772C80.8386 25.0703 79.4795 23.4419 77.6813 23.475C75.6178 23.475 73.5378 26.0952 73.4798 28.6989C73.4301 30.8562 74.7891 32.5672 76.5543 32.592C78.7254 32.6416 80.8552 29.9718 80.8386 27.2772Z" fill="black"/>
<path d="M90.0453 29.7559C90.0453 22.4574 94.8434 17.6633 102.194 17.6137C103.05 17.6081 103.906 17.6606 104.755 17.7707C110.912 18.5973 113.796 22.5483 112.818 28.6979C111.608 36.3189 105.592 40.6418 98.0256 39.3028C92.6557 38.377 90.037 35.2443 90.0453 29.7559ZM97.951 29.7559C98.0504 31.4835 98.3322 33.0622 100.056 33.5499C101.63 34.0128 102.675 32.8804 103.478 31.748C104.171 30.8664 104.642 29.8326 104.852 28.7327C105.063 27.6328 105.006 26.4986 104.688 25.4247C104.108 23.5402 102.426 22.945 100.827 24.1105C98.8791 25.5653 98.2162 27.673 97.951 29.7973V29.7559Z" fill="black"/>
</g>
<defs>
<clipPath id="clip0">
<rect width="113" height="57" fill="white"/>
</clipPath>
</defs>
</svg>
