<svg width="122" height="51" viewBox="0 0 122 51" fill="none" xmlns="http://www.w3.org/2000/svg">
<path d="M68.5835 0.446289H52.2248V17.0751H68.5835V0.446289Z" fill="#005FFF"/>
<path d="M42.3367 17.5339C47.1785 17.5339 51.1036 13.6088 51.1036 8.76695C51.1036 3.9251 47.1785 0 42.3367 0C37.4948 0 33.5697 3.9251 33.5697 8.76695C33.5697 13.6088 37.4948 17.5339 42.3367 17.5339Z" fill="#EA0000"/>
<path d="M69.3264 0.446289L79.174 17.5479L89.0082 0.446289H69.3264Z" fill="#23BE19"/>
<path d="M45.9704 10.8881C45.6023 11.5258 45.0725 12.0551 44.4345 12.4227C43.7966 12.7903 43.0729 12.9832 42.3367 12.9819C41.2189 12.9819 40.1469 12.5379 39.3565 11.7475C38.5661 10.9571 38.122 9.88507 38.122 8.76728C38.122 7.64949 38.5661 6.57749 39.3565 5.78709C40.1469 4.9967 41.2189 4.55266 42.3367 4.55266C43.0729 4.5514 43.7966 4.74429 44.4345 5.11189C45.0725 5.47949 45.6023 6.00881 45.9704 6.64646L47.1727 5.91701C46.5459 4.83827 45.581 3.99621 44.4274 3.52115C43.2738 3.0461 41.9958 2.96454 40.7911 3.2891C39.5865 3.61366 38.5224 4.32624 37.7636 5.31655C37.0048 6.30686 36.5935 7.51968 36.5935 8.76728C36.5935 10.0149 37.0048 11.2277 37.7636 12.218C38.5224 13.2083 39.5865 13.9209 40.7911 14.2455C41.9958 14.57 43.2738 14.4885 44.4274 14.0134C45.581 13.5384 46.5459 12.6963 47.1727 11.6176L45.9704 10.8881Z" fill="white"/>
<path d="M59.6544 4.80852V14.1969H61.1403V4.80852H65.5981V3.34961H55.1967V4.80852H59.6544Z" fill="white"/>
<path d="M74.6622 3.34961H72.9332L79.174 14.1969L85.4014 3.34961H83.6723L79.174 11.2655L74.6622 3.34961Z" fill="white"/>
<path d="M24.7893 20.7081C26.6175 20.7001 28.4068 21.2354 29.9303 22.2461C31.4537 23.2568 32.6425 24.6973 33.3459 26.3848C34.0492 28.0724 34.2353 29.9308 33.8806 31.7243C33.5259 33.5178 32.6464 35.1654 31.3536 36.4582C30.0609 37.7509 28.4132 38.6305 26.6197 38.9852C24.8262 39.3399 22.9678 39.1537 21.2803 38.4504C19.5928 37.7471 18.1523 36.5583 17.1415 35.0348C16.1308 33.5114 15.5955 31.722 15.6035 29.8938C15.6107 27.4598 16.5807 25.1275 18.3018 23.4064C20.023 21.6853 22.3552 20.7152 24.7893 20.7081ZM20.2234 29.8938C20.2527 30.7997 20.5485 31.6768 21.0739 32.4153C21.5993 33.1538 22.3309 33.7209 23.1771 34.0457C24.0233 34.3704 24.9464 34.4382 25.831 34.2408C26.7156 34.0433 27.5222 33.5893 28.15 32.9355C28.7777 32.2818 29.1987 31.4573 29.3601 30.5655C29.5215 29.6736 29.4163 28.754 29.0575 27.9217C28.6987 27.0894 28.1024 26.3814 27.3432 25.8864C26.5839 25.3914 25.6956 25.1314 24.7893 25.1389C24.1745 25.1421 23.5667 25.2687 23.0017 25.5112C22.4368 25.7537 21.9263 26.1071 21.5006 26.5506C21.0748 26.994 20.7423 27.5184 20.5229 28.0927C20.3036 28.667 20.2017 29.2794 20.2234 29.8938Z" fill="#FA5C13"/>
<path d="M13.4017 33.2031C12.991 33.6984 12.4744 34.0952 11.8898 34.3641C11.3053 34.6329 10.6679 34.7671 10.0246 34.7566C8.74588 34.7561 7.51974 34.2478 6.61575 33.3434C5.71176 32.4391 5.20393 31.2128 5.20393 29.9341C5.20393 28.6554 5.71176 27.4291 6.61575 26.5247C7.51974 25.6204 8.74588 25.1121 10.0246 25.1116C10.6627 25.109 11.2941 25.2426 11.8764 25.5035C12.4588 25.7644 12.9788 26.1466 13.4017 26.6245C13.8251 25.1173 14.5412 23.7081 15.509 22.4774C14.136 21.4708 12.511 20.8643 10.8143 20.7251C9.11753 20.586 7.41542 20.9198 5.89686 21.6894C4.3783 22.459 3.10268 23.6343 2.21158 25.0849C1.32048 26.5355 0.848755 28.2046 0.848755 29.9071C0.848755 31.6095 1.32048 33.2787 2.21158 34.7292C3.10268 36.1798 4.3783 37.3552 5.89686 38.1248C7.41542 38.8943 9.11753 39.2281 10.8143 39.089C12.511 38.9499 14.136 38.3433 15.509 37.3367C14.5477 36.1069 13.8322 34.7035 13.4017 33.2031Z" fill="#FA5C13"/>
<path d="M40.4185 38.4579H35.7581V21.3023H40.4185V23.3826C40.8968 22.554 41.5865 21.8673 42.4172 21.3926C43.2479 20.9179 44.1897 20.6723 45.1464 20.6809C46.0884 20.6757 47.0164 20.9096 47.8433 21.3609C48.6702 21.8122 49.369 22.4659 49.8743 23.261C50.5367 22.4252 51.3875 21.7582 52.3572 21.3144C53.3269 20.8707 54.3879 20.6628 55.4533 20.7079C59.5058 20.7079 62.0049 23.6527 62.0049 28.6373V38.4579H57.3445V29.0021C57.3445 26.6651 56.3314 24.9495 54.17 24.9495C52.0087 24.9495 51.1711 26.7056 51.1711 29.0021V38.4579H46.5783V29.0021C46.5783 26.6651 45.5111 24.9495 43.4038 24.9495C41.2965 24.9495 40.4185 26.7056 40.4185 29.0021V38.4579Z" fill="#FA5C13"/>
<path d="M97.1537 23.4508V15.9941H101.814V38.4586H97.1537V36.6485C96.5173 37.4663 95.6953 38.1207 94.7557 38.5577C93.816 38.9946 92.7858 39.2014 91.7504 39.161C89.4093 39.066 87.2004 38.0505 85.6042 36.3354C84.0079 34.6203 83.1534 32.3442 83.2266 30.0024C83.1525 27.647 84.0027 25.3561 85.5955 23.6193C87.1884 21.8826 89.3974 20.8379 91.7504 20.7086C92.8057 20.6946 93.8486 20.9368 94.7897 21.4144C95.7308 21.892 96.542 22.5908 97.1537 23.4508ZM87.6979 30.0024C87.6979 31.2384 88.1889 32.4238 89.0629 33.2977C89.9368 34.1717 91.1222 34.6628 92.3583 34.6628C93.5943 34.6628 94.7797 34.1717 95.6536 33.2977C96.5276 32.4238 97.0187 31.2384 97.0187 30.0024C97.0676 29.3605 96.9833 28.7155 96.7713 28.1077C96.5593 27.4999 96.224 26.9425 95.7864 26.4703C95.3489 25.9982 94.8186 25.6215 94.2286 25.3639C93.6387 25.1063 93.002 24.9734 92.3583 24.9734C91.7145 24.9734 91.0778 25.1063 90.4879 25.3639C89.8979 25.6215 89.3676 25.9982 88.9301 26.4703C88.4925 26.9425 88.1572 27.4999 87.9452 28.1077C87.7332 28.7155 87.6489 29.3605 87.6979 30.0024Z" fill="#FA5C13"/>
<path d="M109.865 34.4059L103.016 21.3027H108.109L112.243 29.705L116.376 21.3027H121.469L110.351 42.8081H105.367L109.865 34.4059Z" fill="#FA5C13"/>
<path d="M72.663 20.708C71.4689 20.7131 70.2878 20.9559 69.1884 21.4222C68.0891 21.8885 67.0936 22.569 66.26 23.424C65.4264 24.279 64.7713 25.2914 64.333 26.4022C63.8947 27.5129 63.6819 28.6999 63.707 29.8937C63.7352 31.7732 64.323 33.6017 65.3952 35.1456C66.4674 36.6895 67.9755 37.8788 69.7268 38.5616C71.4781 39.2444 73.3932 39.3898 75.2275 38.9792C77.0618 38.5685 78.7321 37.6205 80.0251 36.2562L77.0263 33.1222C76.5138 33.6863 75.8877 34.1356 75.1893 34.4406C74.4909 34.7456 73.7358 34.8993 72.9737 34.8918C71.9763 34.9663 70.9846 34.6858 70.1739 34.1C69.3631 33.5142 68.7855 32.6607 68.543 31.6903H81.5381C81.6542 31.099 81.6996 30.4958 81.6731 29.8937C81.691 28.6973 81.4715 27.5091 81.0272 26.3981C80.5829 25.287 79.9227 24.2751 79.0848 23.4208C78.2468 22.5666 77.2478 21.887 76.1456 21.4213C75.0433 20.9557 73.8596 20.7132 72.663 20.708ZM68.5295 28.1511C68.7351 27.2204 69.2623 26.3919 70.0183 25.8113C70.7743 25.2307 71.7107 24.9352 72.663 24.9767C73.6017 24.9544 74.5189 25.2588 75.2581 25.8378C75.9972 26.4168 76.5124 27.2345 76.7156 28.1511H68.5295Z" fill="#FA5C13"/>
<path d="M40.2563 42.6465V50.5489H42.1205V47.496H45.5381V50.5489H47.3888V42.6465H45.5381V45.6994H42.1205V42.6465H40.2563Z" fill="#FA5C13"/>
<path d="M52.576 42.6465L48.5235 50.5489H50.5092L51.1036 49.3602H54.5618L55.1696 50.5489H57.1554L52.9813 42.6465H52.576ZM51.7115 47.6716L52.7786 45.5643L53.8458 47.6716H51.7115Z" fill="#FA5C13"/>
<path d="M58.1685 50.5489H60.0326V46.2938L64.8957 50.5219L64.9362 50.5489H65.3685V42.6465H63.5043V46.8476L58.6008 42.6465H58.1685V50.5489Z" fill="#FA5C13"/>
<path d="M67.3002 50.5489H69.1643V46.2938L74.0274 50.5219L74.0679 50.5489H74.5002V42.6465H72.636V46.8476L67.7324 42.6465H67.3002V50.5489Z" fill="#FA5C13"/>
<path d="M78.296 48.7658V47.496H82.335V45.6994H78.296V44.4296H82.6457V42.6465H76.4319V50.5489H82.6457V48.7658H78.296Z" fill="#FA5C13"/>
<path d="M84.3883 50.5489H90.413V48.7658H86.2525V42.6465H84.3883V50.5489Z" fill="#FA5C13"/>
<path d="M36.7442 44.6181C37.0025 44.7999 37.219 45.0348 37.3791 45.3071L39.0676 44.3615C38.6953 43.77 38.1791 43.2825 37.5673 42.9447C36.9554 42.6069 36.2679 42.4297 35.569 42.4298C35.0209 42.4262 34.4777 42.5313 33.9705 42.7389C33.4634 42.9466 33.0024 43.2527 32.6142 43.6396C32.2261 44.0265 31.9185 44.4864 31.7092 44.9929C31.4999 45.4994 31.3931 46.0423 31.3949 46.5904C31.3984 47.6951 31.8398 48.7533 32.6222 49.5332C33.4046 50.313 34.4643 50.751 35.569 50.751C36.3285 50.7336 37.0698 50.5145 37.7168 50.1161C38.2264 49.7889 38.6594 49.3558 38.9866 48.8463L37.325 47.8872C37.1677 48.1333 36.9716 48.3523 36.7442 48.5356C36.3287 48.8299 35.8221 48.967 35.3149 48.9224C34.8077 48.8779 34.3328 48.6546 33.975 48.2924C33.7445 48.0729 33.5609 47.8088 33.4356 47.5163C33.3102 47.2237 33.2455 46.9087 33.2455 46.5904C33.2526 45.9446 33.5148 45.3279 33.975 44.8748C34.3311 44.5106 34.8052 44.2848 35.3124 44.2378C35.8197 44.1907 36.3271 44.3256 36.7442 44.6181Z" fill="#FA5C13"/>
</svg>
