<svg width="80" height="63" viewBox="0 0 80 63" fill="none" xmlns="http://www.w3.org/2000/svg">
<path d="M39.035 12.7658C37.7413 12.6751 36.4186 12.7924 35.1158 13.1385C29.9044 14.5228 26.2598 19.2331 26.2598 24.581C26.2598 29.9289 29.9044 34.6391 35.1158 36.0235C40.3271 37.4078 45.8599 35.1358 48.5576 30.504L43.7701 27.7641C42.3101 30.2709 39.3668 31.4795 36.5467 30.7303C33.7266 29.9812 31.7878 27.4759 31.7878 24.581C31.7878 21.686 33.7266 19.1808 36.5467 18.4316C39.3668 17.6825 42.3101 18.891 43.7701 21.3978L48.5576 18.6579C46.5343 15.1841 42.9162 13.0378 39.035 12.7658Z" fill="black"/>
<path d="M37.993 0.00101608C29.0716 0.0816482 20.6521 4.95478 16.3154 13.0398L21.1966 15.6122C25.3559 7.85785 34.2728 3.92244 42.8682 6.04713C51.4635 8.1718 57.4703 15.796 57.4703 24.5786C57.4703 33.3613 51.4635 40.9855 42.8682 43.1101C34.2728 45.2348 25.3559 41.2994 21.1966 33.545L16.3154 36.1175C21.6529 46.0682 33.1751 51.1535 44.2057 48.4269C55.2362 45.7002 62.9983 35.8479 62.9983 24.5786C62.9983 13.3093 55.2362 3.45701 44.2057 0.730377C42.1375 0.21913 40.0518 -0.0175911 37.993 0.00101608Z" fill="black"/>
<path d="M13.3452 61.6821C13.3219 61.8179 13.3935 61.9311 13.4957 61.9311H14.3612C14.4635 61.9311 14.5314 61.8179 14.5493 61.6821L14.8503 59.4129L16.1547 61.8813C16.2217 62.0077 16.4873 62.0077 16.5562 61.8813L17.8763 59.4568L18.1803 61.6821C18.1989 61.8179 18.209 61.9311 18.3529 61.9311H19.281C19.3593 61.9311 19.4034 61.8179 19.3798 61.6821L18.5128 56.709C18.4773 56.5058 18.2186 56.5058 18.1616 56.6094L16.3554 59.892L14.5493 56.6094C14.4782 56.4802 14.2288 56.5307 14.1981 56.709L13.3452 61.6821ZM0.150391 59.2702C0.166185 60.7831 1.38452 61.9873 2.88467 61.9805C3.51135 61.978 4.22387 61.7669 4.76918 61.2345C4.81964 61.1855 4.81896 61.1377 4.76607 61.0855L4.06367 60.3889C4.01755 60.3436 3.96839 60.3448 3.91786 60.3889C3.66686 60.6097 3.28333 60.7743 2.88467 60.7868C2.05002 60.8133 1.37019 60.1244 1.35446 59.2702C1.37012 58.416 2.05002 57.7271 2.88467 57.7531C3.28333 57.7657 3.66686 57.9306 3.91786 58.1511C3.96839 58.1957 4.01755 58.1969 4.06367 58.1511L4.76607 57.4549C4.81896 57.4024 4.81964 57.355 4.76918 57.3056C4.22387 56.7736 3.51135 56.5624 2.88467 56.5596C1.38452 56.5532 0.166216 57.7572 0.150391 59.2702ZM6.27118 59.27C6.27118 60.7672 7.49535 61.9805 9.00546 61.9805C10.5156 61.9805 11.7397 60.7672 11.7397 59.27C11.7397 57.7733 10.5156 56.5596 9.00546 56.5596C7.49535 56.5596 6.27118 57.7733 6.27118 59.27ZM21.3724 56.7772V61.7628C21.3724 61.8559 21.448 61.9311 21.5418 61.9311H24.6649C24.7588 61.9311 24.8342 61.8559 24.8342 61.7628V60.955C24.8342 60.8619 24.7588 60.7868 24.6649 60.7868H22.5766V59.7924H24.3136C24.4076 59.7924 24.483 59.7174 24.483 59.6245V58.8163C24.483 58.7232 24.4076 58.6485 24.3136 58.6485H22.5766V57.7531H24.6649C24.7588 57.7531 24.8342 57.6785 24.8342 57.5854V56.7772C24.8342 56.6845 24.7588 56.6094 24.6649 56.6094H21.5418C21.448 56.6094 21.3724 56.6845 21.3724 56.7772ZM26.8473 56.8146V61.7259C26.8473 61.8392 26.94 61.9311 27.0543 61.9311H28.992C29.0144 61.9311 29.0348 61.9266 29.0549 61.9198C30.4284 61.8034 31.5068 60.662 31.5068 59.27C31.5068 57.8781 30.4284 56.737 29.0549 56.6202C29.0348 56.6137 29.0144 56.6094 28.992 56.6094H27.0543C26.94 56.6094 26.8473 56.7013 26.8473 56.8146ZM32.6201 56.8146L34.3164 59.3463V61.6854C34.3164 61.821 34.4271 61.9307 34.5642 61.9307H35.323C35.4601 61.9307 35.5708 61.821 35.5708 61.6854V59.3555L37.2733 56.8146C37.3493 56.7013 37.2992 56.6094 37.1621 56.6094H36.2903C36.1531 56.6094 35.9822 56.7013 35.9062 56.8146L34.9467 58.2459L33.9871 56.8146C33.9113 56.7013 33.7387 56.6094 33.6015 56.6094H32.7299C32.5926 56.6094 32.5441 56.7013 32.6201 56.8146ZM7.47521 59.27C7.47521 58.4325 8.16033 57.7531 9.00546 57.7531C9.85056 57.7531 10.5356 58.4325 10.5356 59.27C10.5356 60.1079 9.85056 60.7868 9.00546 60.7868C8.16033 60.7868 7.47521 60.1079 7.47521 59.27ZM28.0452 57.7531H28.7224C29.5675 57.7531 30.2526 58.4325 30.2526 59.27C30.2526 60.1079 29.5675 60.7868 28.7224 60.7868H28.0452V57.7531ZM63.2533 56.7215V61.6854C63.2533 61.8214 63.364 61.9311 63.5009 61.9311H64.2598C64.3971 61.9311 64.5077 61.8214 64.5077 61.6854V59.0806L67.4708 61.9652C67.5688 62.0603 67.9191 61.9547 67.9191 61.819V56.8551C67.9191 56.719 67.8086 56.6094 67.6712 56.6094H66.9126C66.7754 56.6094 66.6647 56.719 66.6647 56.8551V59.553L63.7018 56.5753C63.6778 56.5512 63.6369 56.5395 63.5903 56.5379C63.4506 56.5336 63.2533 56.6194 63.2533 56.7215ZM75.2316 57.3056C75.181 57.355 75.1818 57.4024 75.2345 57.4549L75.9368 58.1511C75.9829 58.1969 76.0319 58.1957 76.0825 58.1511C76.3337 57.9306 76.7172 57.7657 77.1157 57.7531C77.9504 57.7271 78.6305 58.416 78.6458 59.2702C78.6305 60.1244 77.9504 60.8133 77.1157 60.7868C76.7172 60.7743 76.3337 60.6097 76.0825 60.3889C76.0319 60.3448 75.9829 60.3436 75.9368 60.3889L75.2345 61.0855C75.1814 61.1377 75.181 61.1855 75.2316 61.2345C75.7767 61.7665 76.4891 61.978 77.1161 61.9805C78.6163 61.9869 79.8345 60.7831 79.8503 59.2702C79.8345 57.7572 78.6163 56.5532 77.1161 56.5596C76.4891 56.562 75.7767 56.7736 75.2316 57.3056ZM40.7266 56.7724V57.5903C40.7266 57.6806 40.8003 57.7531 40.8914 57.7531H42.6836V61.7677C42.6836 61.858 42.7569 61.9307 42.8481 61.9307H43.7731C43.8642 61.9307 43.9376 61.858 43.9376 61.7677C43.9376 60.564 43.9376 58.3891 43.9376 56.7724C43.9441 56.6825 43.8642 56.6094 43.7731 56.6094H40.8914C40.8003 56.6094 40.7266 56.6821 40.7266 56.7724ZM45.5086 56.7724L47.926 61.9307C47.9843 62.0547 48.199 62.0547 48.2569 61.9307L50.6761 56.7724C50.7186 56.6821 50.6717 56.6094 50.5713 56.6094H49.7105C49.6097 56.6094 49.4943 56.6821 49.4518 56.7724L49.1553 57.4051H47.0359L46.7394 56.7724C46.6969 56.6821 46.5827 56.6094 46.4823 56.6094H45.6139C45.513 56.6094 45.4665 56.6821 45.5086 56.7724ZM51.9648 60.3146C51.9648 61.2071 52.6952 61.9307 53.5954 61.9307C54.431 61.9307 55.0681 61.9307 55.872 61.9307C55.9862 61.9307 56.079 61.8392 56.079 61.7254V56.8146C56.079 56.7013 55.9862 56.6094 55.872 56.6094H55.0818C54.9677 56.6094 54.8748 56.7013 54.8748 56.8146V58.6983H54.4075L53.3698 56.7897C53.3156 56.6901 53.1799 56.6094 53.0656 56.6094H52.1281C52.0139 56.6094 51.9656 56.6901 52.02 56.7897L53.0984 58.7742C52.4412 58.9826 51.9648 59.5936 51.9648 60.3146ZM57.8348 60.9502V61.7677C57.8348 61.858 57.9083 61.9307 57.9995 61.9307H61.383C61.4741 61.9307 61.5475 61.858 61.5475 61.7677V60.9502C61.5475 60.8599 61.4741 60.7868 61.383 60.7868H60.2931V56.7724C60.2931 56.6821 60.2198 56.6094 60.1287 56.6094H59.2538C59.1627 56.6094 59.089 56.6821 59.089 56.7724V60.7868H57.9995C57.9083 60.7868 57.8348 60.8599 57.8348 60.9502ZM69.9259 56.7772V57.5854C69.9259 57.6785 70.0017 57.7531 70.0953 57.7531H72.1835V58.7481H70.4464C70.3529 58.7481 70.277 58.8227 70.277 58.916V59.7241C70.277 59.8169 70.3529 59.892 70.4464 59.892H72.1835V60.7868H70.0953C70.0017 60.7868 69.9259 60.8619 69.9259 60.9546V61.7628C69.9259 61.8559 70.0017 61.9307 70.0953 61.9307H73.2184C73.3123 61.9307 73.3876 61.8559 73.3876 61.7628V56.7772C73.3876 56.6841 73.3123 56.6094 73.2184 56.6094H70.0953C70.0017 56.6094 69.9259 56.6841 69.9259 56.7772ZM47.5263 58.4494H48.6648L48.0954 59.6635L47.5263 58.4494ZM53.169 60.24C53.169 59.9104 53.4388 59.643 53.7712 59.643H54.8748V60.8366H53.7712C53.4388 60.8366 53.169 60.5696 53.169 60.24Z" fill="black"/>
</svg>
