<svg width="90" height="54" viewBox="0 0 90 54" fill="none" xmlns="http://www.w3.org/2000/svg">
<path d="M0.271652 26.893C0.271652 18.9441 0.271652 10.9895 0.271652 3.02921C0.183253 2.14611 0.415301 1.26067 0.925455 0.534432C1.05542 0.347851 1.23391 0.200343 1.44163 0.107854C1.64935 0.015365 1.8784 -0.0185867 2.10402 0.00966926C5.95801 0.465611 9.84642 0.964565 13.6488 1.42911C15.8941 1.69579 18.1308 2.0485 20.3761 2.28938C21.9418 2.41842 23.4902 2.6937 25.0559 2.89156C27.2926 3.16685 29.5379 3.42493 31.7832 3.70882L36.5921 4.311C38.8632 4.59489 41.1343 4.84437 43.3968 5.11965C44.9797 5.30891 46.5626 5.52398 48.1455 5.72184C50.5112 6.00573 52.877 6.26381 55.2341 6.58211C58.3052 6.8918 61.3506 7.33054 64.4389 7.75207C67.1574 8.08757 69.8758 8.38867 72.5857 8.71557C74.1686 8.91343 75.7514 9.1371 77.3343 9.33496L84.2165 10.1952C85.5929 10.3673 86.9607 10.5393 88.3199 10.763C88.6933 10.786 89.0449 10.9464 89.307 11.2133C89.5691 11.4801 89.7231 11.8346 89.7394 12.2083C89.7894 12.5387 89.8181 12.872 89.8254 13.2062V40.7347C89.8254 41.0874 89.7652 41.4401 89.748 41.7928C89.7463 42.1451 89.616 42.4847 89.3815 42.7477C89.147 43.0106 88.8246 43.1789 88.4748 43.2209C87.193 43.4617 85.894 43.6768 84.6036 43.8058C82.7798 43.9865 80.9647 44.2274 79.1409 44.4596C76.9042 44.7607 74.6589 44.993 72.4136 45.2683L67.6649 45.8619L59.5182 46.8426C56.3352 47.2469 53.1522 47.7029 49.9607 48.047C47.7068 48.2706 45.4787 48.6233 43.2248 48.847C41.5903 49.0105 39.973 49.2771 38.3385 49.475L31.6026 50.275C30.0025 50.4643 28.3938 50.688 26.7937 50.8858C24.4968 51.1697 22.2085 51.4192 19.9115 51.7461C18.3803 51.9354 16.849 52.1676 15.3177 52.3569C12.9778 52.6408 10.6379 52.8989 8.29794 53.2172C6.71505 53.415 5.14076 53.6387 3.55787 53.8452C3.01685 53.9312 2.47092 53.9829 1.92336 54C1.13192 53.9054 0.787812 53.3462 0.546937 52.7268C0.33068 52.0966 0.237232 51.4308 0.271652 50.7654V26.893ZM48.1455 26.893C47.8874 26.7296 47.939 26.4973 47.9132 26.2908C47.6379 24.4326 47.3799 22.5745 47.053 20.7163C46.6142 17.9032 46.1411 15.0901 45.7453 12.2599C45.6593 11.6147 45.4098 11.3136 44.7991 11.2534C43.2076 11.1071 41.6247 10.9781 40.0332 10.8146C39.431 10.7544 39.2675 10.9953 39.2675 11.5803C39.2675 21.8518 39.2675 32.1177 39.2675 42.3778C39.2675 42.8509 39.4138 43.0316 39.8869 42.98L43.1559 42.6875C43.5087 42.6875 43.5517 42.4122 43.5517 42.1283V40.3476C43.4915 34.9451 43.6807 29.5426 43.4484 24.1401C43.4217 24.018 43.4201 23.8917 43.4438 23.769C43.4674 23.6462 43.5158 23.5296 43.5861 23.4261C43.6549 23.6584 43.6979 23.7874 43.7323 23.9251C44.3087 26.6177 44.5926 29.3706 44.9883 32.0976C45.4787 35.358 45.9346 38.627 46.3819 41.9047C46.4422 42.3348 46.6314 42.4036 46.9927 42.3692C47.853 42.2918 48.6444 42.2057 49.4789 42.1369C49.7886 42.1369 49.8402 41.9219 49.8746 41.6552C50.2876 38.8593 50.7349 36.0634 51.1134 33.2676C51.4919 30.6094 51.8188 27.9425 52.2059 25.2929C52.1927 24.7413 52.3391 24.1976 52.6275 23.7272C52.7292 23.9869 52.759 24.2693 52.7135 24.5445C52.7135 30.0932 52.7135 35.6419 52.7135 41.1906C52.7135 41.7756 52.9114 41.8788 53.4189 41.8186C54.2792 41.7154 55.2169 41.595 56.1202 41.5778C56.7998 41.5778 56.9288 41.3111 56.9288 40.7175C56.9288 31.4782 56.8428 22.239 56.9288 12.9997C56.9288 12.6384 56.8772 12.3115 56.4127 12.2943C54.6921 12.2427 52.9028 12.0362 51.1564 11.8727C51.0242 11.8529 50.8895 11.8861 50.7816 11.965C50.6736 12.0439 50.6012 12.1623 50.58 12.2943C50.5024 12.5771 50.4421 12.8644 50.3994 13.1545C49.7628 17.1462 49.152 21.1378 48.4896 25.1209C48.5066 25.7325 48.3891 26.3403 48.1455 26.9016V26.893ZM23.4214 27.022V35.0913C23.3757 36.5671 23.5261 38.0425 23.8688 39.4787C24.3677 41.3283 25.2452 42.9198 27.069 43.78C30.338 45.3027 34.3382 43.5736 35.8781 40.0723C36.5856 38.2749 36.9136 36.3506 36.8416 34.4203C36.8416 29.4652 36.8416 24.5187 36.8416 19.5635C36.8513 18.3977 36.7708 17.2329 36.6007 16.0795C36.0243 12.4577 33.779 10.0576 30.3552 9.48981C29.1844 9.32844 27.9926 9.541 26.9498 10.0972C25.9071 10.6533 25.0666 11.5246 24.5484 12.5868C23.7423 14.4887 23.3635 16.5443 23.4386 18.6086C23.3956 21.4561 23.4214 24.2434 23.4214 27.0306V27.022ZM7.72156 27.022C7.72156 30.5405 7.67855 34.0676 7.72156 37.5947C7.71721 39.3914 8.14816 41.1625 8.97755 42.7563C9.413 43.7165 10.1298 44.5219 11.0331 45.0657C11.9364 45.6095 12.9835 45.8662 14.0359 45.8017C15.1741 45.7601 16.2799 45.411 17.2356 44.7915C18.1914 44.172 18.9615 43.3052 19.4642 42.2832C21.3052 39.04 20.8148 35.401 20.9869 31.96C20.9914 31.8804 20.9767 31.8008 20.9442 31.7281C20.9116 31.6553 20.8621 31.5913 20.7998 31.5416C20.7374 31.4919 20.6641 31.4579 20.5859 31.4424C20.5077 31.4268 20.4269 31.4303 20.3503 31.4524C19.2147 31.6503 18.062 31.4524 16.9092 31.6245C16.3242 31.6933 16.1608 31.8911 16.1608 32.4847C16.2211 34.2923 16.178 36.1018 16.0317 37.9044C16.0216 38.3373 15.8485 38.7505 15.5471 39.0614C15.2458 39.3724 14.8382 39.5582 14.4058 39.5819C14.1875 39.6278 13.9618 39.6246 13.7448 39.5726C13.5279 39.5205 13.3253 39.4209 13.1516 39.281C12.9779 39.141 12.8374 38.9642 12.7404 38.7633C12.6434 38.5625 12.5923 38.3425 12.5907 38.1195C12.489 37.5341 12.4343 36.9415 12.4272 36.3473C12.4272 30.2222 12.4272 24.1057 12.4272 17.9806C12.3853 17.1102 12.4841 16.2388 12.7197 15.3998C12.8065 15.0985 12.9847 14.8316 13.2297 14.6358C13.4747 14.4401 13.7745 14.3253 14.0875 14.3073C14.3902 14.2746 14.6954 14.3407 14.9574 14.4958C15.2195 14.6508 15.4243 14.8865 15.5414 15.1676C15.7794 15.6338 15.9365 16.137 16.0059 16.6558C16.1291 18.0286 16.1751 19.4072 16.1436 20.7851C16.1436 21.1378 16.1436 21.4733 16.6425 21.4905L20.3589 21.6196C20.8062 21.6196 20.9783 21.4475 20.9697 20.983C21.0015 19.0797 20.8691 17.1772 20.5739 15.2966C20.1094 12.9309 19.2921 10.7458 17.2705 9.27474C16.6821 8.80414 16.0012 8.46268 15.2722 8.27256C14.5431 8.08245 13.7822 8.04793 13.0389 8.17127C12.2956 8.29461 11.5866 8.57304 10.958 8.98844C10.3294 9.40385 9.79535 9.94692 9.39048 10.5823C8.30309 12.3043 7.73005 14.301 7.73877 16.3375C7.66134 19.7958 7.72156 23.4261 7.72156 27.022ZM59.3892 26.807V40.1669C59.3763 40.3818 59.3763 40.5972 59.3892 40.8121C59.3892 41.1218 59.5526 41.225 59.9053 41.1906C61.471 41.0358 63.0367 40.9325 64.6024 40.8035L71.0802 40.2357C71.5705 40.2357 71.7942 40.0293 71.7684 39.4873C71.7168 38.4894 71.7168 37.4915 71.7684 36.485C71.7684 35.8656 71.605 35.6247 70.9512 35.7021C68.9295 35.8656 66.9079 35.9516 64.9293 36.1151C64.3615 36.1581 64.2325 35.9688 64.2411 35.444C64.2411 33.4941 64.2411 31.5413 64.2411 29.5856C64.2411 28.9576 64.4389 28.7254 65.1013 28.7254C66.435 28.7755 67.7704 28.7526 69.1016 28.6565C69.5403 28.6049 69.7468 28.5017 69.7296 28.0113C69.7296 26.9704 69.678 25.9209 69.7296 24.8714C69.7296 24.3036 69.5919 24.0713 68.9639 24.0885C67.6133 24.0885 66.2541 24.0885 64.8949 24.0885C64.482 24.0885 64.2841 24.0025 64.2927 23.538C64.2927 21.7773 64.2927 20.0137 64.2927 18.2473C64.2927 17.7742 64.4475 17.6365 64.9293 17.6795C66.8735 17.8258 68.8263 17.929 70.7705 18.0667C71.2436 18.0667 71.3383 17.8946 71.3297 17.4903C71.3297 16.3891 71.3297 15.2966 71.3297 14.2041C71.3297 13.6535 71.1232 13.5245 70.6243 13.4987C69.5747 13.4556 68.5338 13.3438 67.4929 13.2578L60.1634 12.6298C59.6559 12.5782 59.458 12.7072 59.4666 13.2836C59.4064 17.8086 59.3892 22.3078 59.3892 26.807ZM77.1365 29.0265C77.1365 32.3385 77.1365 35.6505 77.1365 38.9625C77.1365 39.5303 77.2999 39.7282 77.8763 39.668C78.8914 39.5475 79.9065 39.4615 80.9303 39.3927C81.954 39.3239 81.997 39.3239 81.997 38.3001C81.997 31.9944 81.997 25.68 81.997 19.3743C81.997 18.7721 82.1862 18.6602 82.7454 18.7291C83.6057 18.8409 84.5434 18.8581 85.4467 18.9441C85.894 18.9872 86.0402 18.8323 86.0316 18.3936C86.0316 17.4903 86.0316 16.587 86.0316 15.6837C86.0316 15.0299 85.851 14.8235 85.1714 14.8235C82.5906 14.6428 79.9495 14.3933 77.3429 14.1697C76.1644 14.0664 74.9772 13.9546 73.79 13.86C73.3943 13.86 73.0846 13.86 73.0932 14.4019C73.0932 15.5031 73.0932 16.5956 73.0932 17.6881C73.0932 18.1097 73.2567 18.2473 73.6868 18.2903C74.5437 18.3841 75.4058 18.4215 76.2676 18.4022C76.9214 18.4022 77.1279 18.5484 77.1279 19.2624C77.1107 22.5056 77.1365 25.7661 77.1365 29.0265Z" fill="#46C7ED"/>
<path d="M48.1455 26.9021C48.4246 26.3286 48.5688 25.6989 48.567 25.0611C49.2294 21.0781 49.8402 17.0865 50.4768 13.0948C50.5195 12.8047 50.5799 12.5174 50.6575 12.2346C50.6786 12.1025 50.7511 11.9842 50.859 11.9053C50.9669 11.8264 51.1016 11.7932 51.2338 11.813C52.9544 11.9765 54.7351 12.1829 56.4901 12.2346C56.9546 12.2346 57.0148 12.5787 57.0062 12.94C56.8772 22.1792 57.0062 31.4185 57.0062 40.6578C57.0062 41.2858 56.8772 41.518 56.1976 41.518C55.3373 41.518 54.391 41.6557 53.4963 41.7589C52.9888 41.8191 52.7823 41.7159 52.7909 41.1309C52.7909 35.5822 52.7909 30.0335 52.7909 24.4848C52.8364 24.2096 52.8067 23.9272 52.7049 23.6675C52.4165 24.1379 52.2702 24.6816 52.2834 25.2332C51.8962 27.8828 51.5693 30.5496 51.1908 33.2079C50.7951 36.0037 50.3306 38.7996 49.952 41.5955C49.952 41.8621 49.866 42.0514 49.5563 42.0772C48.6961 42.146 47.896 42.232 47.0702 42.3095C46.7088 42.3095 46.5196 42.3095 46.4594 41.8449C46.012 38.5673 45.5991 35.2983 45.0657 32.0379C44.6614 29.3108 44.3861 26.558 43.8097 23.8654C43.8097 23.7277 43.7323 23.5987 43.6635 23.3664C43.5933 23.4698 43.5448 23.5865 43.5212 23.7092C43.4975 23.832 43.4991 23.9583 43.5259 24.0804C43.7581 29.4829 43.5259 34.8854 43.6291 40.2878V42.1632C43.6291 42.4471 43.6291 42.688 43.2334 42.7224L39.9299 43.0235C39.4568 43.0751 39.3105 42.8945 39.3105 42.4213C39.3105 32.1612 39.3105 21.8953 39.3105 11.6238C39.3105 11.0388 39.474 10.7635 40.0762 10.8581C41.6677 11.0216 43.2506 11.1506 44.8421 11.2969C45.4529 11.3571 45.7023 11.6582 45.7884 12.3034C46.1841 15.1337 46.6486 17.9467 47.096 20.7598C47.3798 22.618 47.6379 24.4761 47.9562 26.3343C47.939 26.5064 47.8874 26.7386 48.1455 26.9021Z" fill="#FCFDFE"/>
<path d="M23.4214 27.0317C23.4214 24.2445 23.4214 21.4572 23.4214 18.6699C23.3463 16.6056 23.7252 14.55 24.5312 12.6481C25.0477 11.5733 25.8933 10.6912 26.9452 10.1296C27.9971 9.5681 29.2006 9.35641 30.381 9.5253C33.8221 10.1103 36.0502 12.4932 36.6265 16.1149C36.7966 17.2683 36.8771 18.4332 36.8674 19.599C36.8674 24.5542 36.8674 29.5007 36.8674 34.4558C36.9422 36.3855 36.6171 38.3098 35.9125 40.1078C34.3726 43.6091 30.3724 45.3382 27.1034 43.8155C25.2796 42.9553 24.4022 41.338 23.9032 39.5142C23.5606 38.078 23.4101 36.6026 23.4559 35.1268V27.0317H23.4214ZM28.1615 26.9543V35.557C28.1311 36.2237 28.2185 36.8906 28.4196 37.527C28.5031 37.8788 28.7112 38.1885 29.0053 38.3988C29.2994 38.6091 29.6598 38.7058 30.0197 38.6711C30.3924 38.6785 30.7581 38.5699 31.0664 38.3603C31.3746 38.1507 31.6101 37.8505 31.7402 37.5012C32.0006 36.7672 32.1231 35.9914 32.1015 35.2129C32.1015 29.6727 32.1015 24.1269 32.1015 18.5753C32.1608 17.7159 32.0041 16.8553 31.6456 16.0719C31.4713 15.7789 31.2165 15.542 30.9115 15.3895C30.6065 15.237 30.2641 15.1753 29.9251 15.2117C29.625 15.1905 29.3264 15.2682 29.0747 15.4329C28.823 15.5976 28.6322 15.8402 28.5314 16.1235C28.2657 16.8885 28.1518 17.6979 28.1959 18.5065C28.1615 21.3368 28.1615 24.1412 28.1615 26.9543Z" fill="#FCFDFE"/>
<path d="M7.72157 27.0225C7.72157 23.4266 7.66135 19.8221 7.72157 16.2348C7.71286 14.1982 8.2859 12.2015 9.37328 10.4796C9.77816 9.84416 10.3123 9.30108 10.9408 8.88568C11.5694 8.47027 12.2784 8.19185 13.0217 8.06851C13.765 7.94517 14.5259 7.97968 15.255 8.1698C15.984 8.35991 16.6649 8.70138 17.2533 9.17197C19.275 10.6602 20.0922 12.8453 20.5568 15.1938C20.852 17.0744 20.9844 18.9769 20.9525 20.8802C20.9525 21.3447 20.789 21.534 20.3417 21.5168L16.6167 21.405C16.135 21.405 16.1178 21.0523 16.1178 20.6995C16.1493 19.3216 16.1033 17.943 15.9801 16.5703C15.9107 16.0514 15.7536 15.5482 15.5156 15.082C15.3985 14.8009 15.1937 14.5653 14.9316 14.4102C14.6696 14.2552 14.3645 14.1891 14.0617 14.2217C13.7487 14.2398 13.4489 14.3546 13.2039 14.5503C12.9589 14.746 12.7807 15.0129 12.6939 15.3143C12.4583 16.1532 12.3595 17.0247 12.4014 17.8951C12.4014 24.0202 12.4014 30.1367 12.4014 36.2618C12.4085 36.8559 12.4632 37.4485 12.5649 38.0339C12.5523 38.2669 12.594 38.4995 12.6867 38.7136C12.7794 38.9277 12.9206 39.1173 13.0991 39.2674C13.2776 39.4176 13.4886 39.5242 13.7154 39.5788C13.9421 39.6335 14.1785 39.6347 14.4058 39.5824C14.841 39.5519 15.2483 39.3572 15.5453 39.0378C15.8424 38.7184 16.007 38.2981 16.0059 37.8619C16.1522 36.0592 16.1953 34.2497 16.135 32.4422C16.135 31.8658 16.2984 31.6679 16.8834 31.5819C18.019 31.4443 19.1717 31.5819 20.3245 31.4099C20.4011 31.3877 20.4819 31.3843 20.5601 31.3998C20.6383 31.4154 20.7116 31.4494 20.774 31.4991C20.8363 31.5488 20.8858 31.6127 20.9184 31.6855C20.9509 31.7583 20.9656 31.8378 20.9611 31.9174C20.789 35.4101 21.2794 39.006 19.4384 42.2406C18.9437 43.267 18.1801 44.1401 17.2288 44.7672C16.2776 45.3943 15.1742 45.7519 14.0359 45.8021C12.9911 45.8552 11.9546 45.5923 11.0615 45.0475C10.1683 44.5027 9.46012 43.7015 9.02918 42.7482C8.19979 41.1543 7.76883 39.3833 7.77319 37.5866C7.72157 34.0595 7.77319 30.5324 7.77319 27.0139L7.72157 27.0225Z" fill="#FCFDFE"/>
<path d="M59.3892 26.8063C59.3892 22.3071 59.3892 17.8079 59.3892 13.3087C59.3892 12.7323 59.5784 12.6033 60.086 12.6549L67.4155 13.2829C68.4564 13.3689 69.4973 13.4808 70.5468 13.5238C71.0458 13.5238 71.2695 13.6786 71.2523 14.2292C71.2523 15.3217 71.2523 16.4143 71.2523 17.5154C71.2523 17.9197 71.1662 18.1262 70.6931 18.0918C68.7489 17.9542 66.7961 17.8509 64.8519 17.7047C64.3701 17.6617 64.2153 17.7993 64.2153 18.2725C64.2153 20.0331 64.2153 21.7967 64.2153 23.5631C64.2153 24.0276 64.4045 24.1137 64.8175 24.1137C66.1767 24.1137 67.5359 24.1567 68.8865 24.1137C69.5145 24.1137 69.6608 24.3287 69.6522 24.8965C69.6522 25.946 69.6522 26.9956 69.6522 28.0365C69.6522 28.5268 69.4629 28.6301 69.0242 28.6817C67.693 28.7777 66.3576 28.8007 65.0239 28.7505C64.4045 28.7505 64.1637 28.9484 64.1637 29.6108C64.1981 31.5607 64.1981 33.5135 64.1637 35.4692C64.1637 35.994 64.2841 36.1832 64.8519 36.1402C66.8649 35.9767 68.8865 35.8907 70.8737 35.7273C71.5275 35.6757 71.734 35.8907 71.691 36.5101C71.691 37.5166 71.691 38.5145 71.691 39.5124C71.691 40.0544 71.4931 40.2179 71.0028 40.2609L64.525 40.8286C62.9593 40.9577 61.3936 41.0609 59.8279 41.2158C59.4752 41.2158 59.3376 41.1469 59.3117 40.8373C59.2989 40.6224 59.2989 40.4069 59.3117 40.1921L59.3892 26.8063Z" fill="#FCFDFE"/>
<path d="M77.1365 29.0254C77.1365 25.765 77.1365 22.5046 77.1365 19.2356C77.1365 18.513 76.8956 18.3753 76.2762 18.3753C75.4144 18.3946 74.5523 18.3573 73.6954 18.2635C73.2653 18.2205 73.1019 18.0828 73.1019 17.6613C73.1019 16.5688 73.1019 15.4762 73.1019 14.3751C73.1019 13.8417 73.4029 13.7987 73.7987 13.8331C74.9858 13.9277 76.173 14.0396 77.3516 14.1428C79.9324 14.3665 82.5648 14.6159 85.18 14.7966C85.8338 14.8396 86.0403 15.0289 86.0403 15.6569C85.9886 16.5601 86.0403 17.4634 86.0403 18.3667C86.0403 18.8054 85.9026 18.9603 85.4553 18.9173C84.595 18.8313 83.6487 18.814 82.754 18.7022C82.1949 18.6334 82.0056 18.7452 82.0056 19.3474C82.0056 25.6618 82.0056 31.9761 82.0056 38.2733C82.0056 39.297 82.0056 39.2884 80.9561 39.3658C79.9066 39.4432 78.9172 39.5207 77.9021 39.6411C77.3258 39.7013 77.1623 39.5035 77.1623 38.9357C77.1623 35.6237 77.1623 32.3116 77.1623 28.9996L77.1365 29.0254Z" fill="#FCFDFE"/>
<path d="M28.1615 26.9524C28.1615 24.1393 28.1615 21.3349 28.1615 18.5218C28.1174 17.7132 28.2313 16.9038 28.497 16.1388C28.5978 15.8555 28.7886 15.6129 29.0403 15.4482C29.2919 15.2835 29.5906 15.2058 29.8906 15.227C30.2297 15.1906 30.5721 15.2523 30.8771 15.4048C31.182 15.5573 31.4368 15.7942 31.6112 16.0872C31.9787 16.8623 32.1472 17.7168 32.1015 18.5734C32.1015 24.125 32.1015 29.6708 32.1015 35.211C32.1271 35.9764 32.0134 36.7401 31.766 37.4649C31.6359 37.8142 31.4004 38.1144 31.0922 38.324C30.7839 38.5336 30.4182 38.6422 30.0455 38.6348C29.6856 38.6695 29.3252 38.5728 29.0311 38.3625C28.737 38.1522 28.5289 37.8425 28.4454 37.4907C28.2442 36.8543 28.1569 36.1874 28.1873 35.5207L28.1615 26.9524Z" fill="#46C7ED"/>
</svg>
