<svg width="61" height="61" viewBox="0 0 61 61" fill="none" xmlns="http://www.w3.org/2000/svg">
<rect x="6.37076" y="7.16699" width="49.3734" height="46.5065" fill="#151A1F"/>
<path d="M0 0.0107487C20.1506 0.0107487 40.3016 0.00716579 60.453 0C60.8997 0 61 0.100321 61 0.546989C60.9865 20.698 60.9825 40.849 60.9881 61H0.78467C0.00358299 61 0.00358297 61 0.00358297 60.2189L0 0.0107487ZM36.2274 37.1737C36.2335 36.3463 35.9939 35.5357 35.539 34.8445C35.0841 34.1534 34.4342 33.6128 33.6718 33.2912C32.9094 32.9697 32.0687 32.8816 31.2562 33.0382C30.4437 33.1948 29.696 33.589 29.1077 34.1709C28.5194 34.7528 28.1171 35.4962 27.9516 36.307C27.7862 37.1177 27.8651 37.9593 28.1784 38.7252C28.4916 39.491 29.0251 40.1467 29.7113 40.6091C30.3975 41.0715 31.2055 41.3199 32.0329 41.3227C33.1379 41.324 34.1987 40.8888 34.9843 40.1117C35.7699 39.3346 36.2167 38.2787 36.2274 37.1737ZM22.9143 30.4546C22.9081 29.6264 22.6568 28.8185 22.1919 28.133C21.727 27.4474 21.0695 26.915 20.3023 26.6028C19.535 26.2906 18.6925 26.2128 17.8811 26.379C17.0696 26.5452 16.3256 26.948 15.7429 27.5367C15.1603 28.1254 14.765 28.8735 14.6071 29.6866C14.4492 30.4996 14.5357 31.3413 14.8557 32.1052C15.1757 32.8692 15.7149 33.5213 16.4052 33.9791C17.0954 34.4369 17.9058 34.68 18.7341 34.6777C19.287 34.6786 19.8345 34.5698 20.3449 34.3574C20.8554 34.1449 21.3185 33.8332 21.7074 33.4403C22.0963 33.0474 22.4033 32.5811 22.6105 32.0686C22.8176 31.556 22.9209 31.0074 22.9143 30.4546ZM32.0592 19.6558C31.2338 19.6495 30.425 19.8877 29.7349 20.3404C29.0447 20.7931 28.5039 21.4399 28.1808 22.1995C27.8578 22.959 27.7668 23.7972 27.9193 24.6083C28.0719 25.4195 28.4612 26.1673 29.0382 26.7576C29.6151 27.3478 30.3539 27.7541 31.1614 27.925C31.9689 28.096 32.809 28.0242 33.5757 27.7185C34.3424 27.4127 35.0014 26.8869 35.4697 26.2072C35.938 25.5275 36.1945 24.7244 36.2071 23.8991C36.2183 23.3466 36.1195 22.7973 35.9163 22.2834C35.713 21.7695 35.4095 21.3012 35.0235 20.9058C34.6374 20.5103 34.1764 20.1957 33.6675 19.9803C33.1586 19.7649 32.6118 19.6529 32.0592 19.651V19.6558ZM22.9107 43.7472C22.9081 42.919 22.66 42.1102 22.1978 41.4229C21.7356 40.7357 21.0801 40.2009 20.314 39.8862C19.548 39.5714 18.7058 39.4908 17.894 39.6546C17.0821 39.8184 16.337 40.2191 15.7529 40.8063C15.1688 41.3934 14.7718 42.1405 14.6122 42.9531C14.4526 43.7658 14.5375 44.6075 14.8562 45.3719C15.1749 46.1364 15.713 46.7892 16.4027 47.2478C17.0923 47.7064 17.9024 47.9504 18.7306 47.9487C19.2817 47.9487 19.8274 47.8397 20.3363 47.628C20.8452 47.4163 21.3072 47.1061 21.6957 46.7151C22.0842 46.3242 22.3915 45.8603 22.6001 45.3501C22.8086 44.8399 22.9141 44.2935 22.9107 43.7424V43.7472ZM49.4843 30.4678C49.4815 29.6393 49.2332 28.8302 48.7709 28.1427C48.3085 27.4552 47.6529 26.9202 46.8866 26.6051C46.1204 26.29 45.2779 26.209 44.4657 26.3724C43.6535 26.5358 42.9078 26.9361 42.323 27.523C41.7382 28.1098 41.3403 28.8568 41.1797 29.6695C41.0191 30.4823 41.103 31.3244 41.4207 32.0896C41.7384 32.8547 42.2757 33.5086 42.9648 33.9686C43.6539 34.4286 44.4638 34.6741 45.2923 34.6741C45.8448 34.6757 46.3923 34.5677 46.9028 34.3564C47.4134 34.1451 47.877 33.8347 48.2668 33.4431C48.6567 33.0514 48.965 32.5864 49.174 32.0749C49.383 31.5634 49.4885 31.0155 49.4843 30.463V30.4678ZM18.7509 21.3779C19.8617 21.3692 20.9236 20.9196 21.7029 20.128C22.4823 19.3363 22.9152 18.2675 22.9065 17.1567C22.8978 16.0459 22.4482 14.984 21.6565 14.2047C20.8648 13.4253 19.796 12.9924 18.6852 13.0011C17.5743 13.0098 16.5124 13.4595 15.7331 14.2511C14.9537 15.0428 14.5208 16.1115 14.5295 17.2224C14.5382 18.3332 14.9879 19.3951 15.7795 20.1744C16.5712 20.9537 17.64 21.3867 18.7509 21.3779Z" fill="#151A1F"/>
<path d="M38.1178 39.381C38.097 40.4811 37.7511 41.5505 37.1236 42.4544C36.4961 43.3583 35.6151 44.0563 34.5917 44.4604C33.5682 44.8646 32.448 44.9567 31.3723 44.7254C30.2965 44.494 29.3133 43.9494 28.5465 43.1603C27.7797 42.3711 27.2636 41.3726 27.0632 40.2907C26.8628 39.2087 26.9871 38.0917 27.4205 37.0802C27.8538 36.0688 28.5768 35.2082 29.4984 34.607C30.42 34.0057 31.4989 33.6906 32.5992 33.7014C33.3349 33.7104 34.0617 33.8645 34.7377 34.1551C35.4137 34.4457 36.0257 34.8669 36.5385 35.3946C37.0513 35.9223 37.4548 36.5462 37.7258 37.2303C37.9968 37.9144 38.13 38.6452 38.1178 39.381Z" fill="#C100FC"/>
<path d="M20.3641 30.4207C20.371 31.5259 20.0502 32.6083 19.4421 33.5312C18.8341 34.4541 17.9662 35.176 16.948 35.6058C15.9298 36.0357 14.8071 36.154 13.7217 35.946C12.6363 35.738 11.6368 35.2129 10.8497 34.4371C10.0626 33.6614 9.52306 32.6697 9.29932 31.5874C9.07557 30.5051 9.17764 29.3808 9.59262 28.3565C10.0076 27.3321 10.7169 26.4538 11.6309 25.8325C12.5448 25.2111 13.6225 24.8746 14.7276 24.8654C15.4627 24.8591 16.1919 24.9979 16.8733 25.2739C17.5547 25.5498 18.1749 25.9575 18.6985 26.4736C19.2221 26.9896 19.6388 27.6039 19.9246 28.2812C20.2104 28.9585 20.3597 29.6856 20.3641 30.4207Z" fill="#00B9ED"/>
<path d="M32.5593 16.0131C33.6606 16.0267 34.7332 16.3661 35.6417 16.9887C36.5502 17.6112 37.2539 18.4889 37.6641 19.511C38.0743 20.5331 38.1725 21.6538 37.9463 22.7317C37.7202 23.8096 37.1798 24.7963 36.3935 25.5674C35.6071 26.3384 34.6099 26.8593 33.5278 27.0642C32.4457 27.2691 31.3271 27.1489 30.3133 26.7187C29.2994 26.2885 28.4358 25.5676 27.8312 24.647C27.2267 23.7265 26.9083 22.6474 26.9164 21.5461C26.9218 20.8118 27.0723 20.0857 27.3591 19.4097C27.646 18.7337 28.0636 18.121 28.5879 17.6068C29.1123 17.0927 29.7331 16.6872 30.4146 16.4137C31.0962 16.1402 31.825 16.0041 32.5593 16.0131Z" fill="#D7AE08"/>
<path d="M20.3593 48.1403C20.3593 49.6216 19.7709 51.0423 18.7234 52.0898C17.6759 53.1373 16.2552 53.7258 14.7738 53.7258C13.2924 53.7258 11.8717 53.1373 10.8242 52.0898C9.7767 51.0423 9.18822 49.6216 9.18822 48.1403C9.18822 46.6589 9.7767 45.2382 10.8242 44.1907C11.8717 43.1432 13.2924 42.5547 14.7738 42.5547C16.2552 42.5547 17.6759 43.1432 18.7234 44.1907C19.7709 45.2382 20.3593 46.6589 20.3593 48.1403Z" fill="#0065FF"/>
<path d="M55.7967 30.4311C55.7998 31.5395 55.4733 32.6238 54.8588 33.5463C54.2442 34.4688 53.3693 35.1877 52.3452 35.6118C51.3211 36.0359 50.194 36.1459 49.1072 35.928C48.0204 35.7101 47.0229 35.174 46.2415 34.3878C45.4601 33.6017 44.93 32.601 44.7186 31.5129C44.5072 30.4248 44.6241 29.2985 45.0543 28.2769C45.4846 27.2554 46.2088 26.3848 47.1349 25.7758C48.061 25.1668 49.1473 24.8469 50.2557 24.8567C51.7267 24.8709 53.1328 25.4638 54.1698 26.5071C55.2069 27.5504 55.7913 28.9601 55.7967 30.4311Z" fill="#CD024B"/>
<path d="M14.812 18.3156C13.7076 18.3215 12.6263 18 11.7047 17.3916C10.783 16.7831 10.0624 15.9151 9.63389 14.8973C9.20539 13.8794 9.08825 12.7574 9.29726 11.673C9.50627 10.5886 10.0321 9.59045 10.8082 8.80478C11.5843 8.0191 12.5759 7.48112 13.6576 7.25884C14.7394 7.03656 15.8628 7.13995 16.8858 7.55594C17.9089 7.97193 18.7856 8.68186 19.4053 9.59599C20.025 10.5101 20.3597 11.5874 20.3673 12.6918C20.3738 13.4264 20.2351 14.155 19.959 14.8358C19.683 15.5166 19.2751 16.1361 18.7589 16.6587C18.2426 17.1813 17.6282 17.5967 16.9508 17.8811C16.2735 18.1654 15.5466 18.3131 14.812 18.3156Z" fill="#00C74E"/>
</svg>
