<svg width="126" height="29" viewBox="0 0 126 29" fill="none" xmlns="http://www.w3.org/2000/svg">
<path d="M0.567001 22.3027H76.23V28.8127H0.567001V22.3027Z" fill="#D2DD27"/>
<path d="M113.589 19.908C118.629 19.908 122.556 16.989 122.556 9.975C122.556 9.66 122.535 9.366 122.514 9.051H113.694V12.747H117.033C116.508 14.616 115.374 15.729 113.61 15.75H113.547C111.006 15.708 109.767 13.461 109.767 9.954C109.767 6.384 110.985 4.284 113.547 4.284H113.61C115.416 4.284 116.529 5.313 117.033 7.14H122.283C121.338 2.142 117.705 0 113.568 0C108.696 0 104.601 2.919 104.601 9.933C104.601 16.947 108.549 19.908 113.589 19.908ZM28.203 0.0209981C23.583 0.0209981 18.795 2.94 18.795 9.954C18.795 16.968 23.583 19.887 28.203 19.887C32.802 19.887 37.59 16.968 37.59 9.954C37.59 2.94 32.802 0.0209981 28.203 0.0209981ZM28.203 15.729C25.494 15.729 23.961 13.461 23.961 9.933C23.961 6.405 25.494 4.263 28.203 4.263C30.891 4.263 32.424 6.405 32.424 9.933C32.424 13.461 30.891 15.729 28.203 15.729ZM48.111 0.0209981C43.491 0.0209981 38.703 2.94 38.703 9.954C38.703 16.968 43.491 19.887 48.111 19.887C52.71 19.887 57.477 16.968 57.477 9.954C57.477 2.94 52.71 0.0209981 48.111 0.0209981ZM48.111 15.729C45.402 15.729 43.869 13.461 43.869 9.933C43.869 6.405 45.402 4.263 48.111 4.263C50.799 4.263 52.332 6.405 52.332 9.933C52.332 13.461 50.799 15.729 48.111 15.729ZM75.558 0.377997H69.678L64.491 9.828L70.602 19.509H76.482L70.245 9.828L75.558 0.377997ZM59.283 0.272997H64.47V19.509H59.283V0.272997ZM78.078 0.377997H83.244V19.509H78.078V0.377997ZM97.986 19.509H102.774V0.377997H98.049V11.109H97.986L90.972 0.377997H85.89V19.509H90.615V8.799H90.678L97.986 19.509ZM9.009 15.771H8.946C6.405 15.729 5.166 13.482 5.166 9.975C5.166 6.426 6.384 4.305 8.946 4.305H9.009C10.815 4.305 11.928 5.334 12.432 7.161H17.682C16.737 2.163 13.104 0.0209981 8.967 0.0209981C4.095 0.0209981 0 2.94 0 9.954C0 16.968 3.927 19.887 8.967 19.887C13.398 19.887 16.968 17.64 17.766 12.348H12.558C12.075 14.469 10.899 15.75 9.009 15.771ZM88.578 24.843H85.575V22.197H84.462V28.812H85.575V25.872H88.578V28.812H89.691V22.197H88.578V24.843ZM93.009 22.176L90.657 28.812H91.707L92.253 27.237H94.773L95.298 28.812H96.432L94.101 22.176H93.009ZM92.589 26.25L93.513 23.562H93.534L94.437 26.25H92.589ZM101.829 26.901L98.7 22.176H97.566V28.791H98.595V23.982H98.616L101.871 28.791H102.9V22.176H101.85L101.829 26.901ZM108.864 26.901L105.735 22.176H104.58V28.791H105.609V23.982H105.63L108.885 28.791H109.893V22.176H108.864V26.901ZM112.728 25.851H115.038V24.864H112.728V23.205H115.878V22.176H111.594V28.791H116.046V27.783H112.707L112.728 25.851ZM118.524 22.197H117.39V28.812H121.548V27.804H118.503L118.524 22.197ZM80.787 27.888C79.695 27.888 79.002 27.027 79.002 25.452C79.002 23.961 79.653 23.079 80.766 23.058C81.564 23.058 81.984 23.541 82.236 24.36H83.391C83.034 22.827 82.152 22.029 80.787 22.029C79.128 22.029 77.889 23.226 77.889 25.431C77.889 27.699 79.107 28.875 80.787 28.875C82.215 28.875 83.118 28.035 83.433 26.418H82.278C82.047 27.384 81.627 27.888 80.787 27.888ZM124.068 3.948C122.997 3.948 122.136 3.087 122.136 2.016C122.136 0.945001 122.997 0.0839987 124.068 0.0839987C125.139 0.0839987 126 0.945001 126 2.016C125.979 3.087 125.118 3.948 124.068 3.948ZM124.068 0.503999C123.228 0.503999 122.535 1.176 122.535 2.037C122.535 2.898 123.207 3.57 124.068 3.57C124.929 3.57 125.601 2.898 125.601 2.037C125.601 1.176 124.908 0.503999 124.068 0.503999Z" fill="black"/>
<path d="M123.963 1.88933C124.068 1.88933 124.152 1.86833 124.194 1.82633C124.236 1.78433 124.257 1.72133 124.257 1.61633C124.257 1.53233 124.236 1.46933 124.194 1.40633C124.131 1.36433 124.068 1.34333 123.963 1.34333H123.753V1.84733L123.963 1.88933ZM123.753 2.22533V2.98133H123.249V0.986328H124.047C124.299 0.986328 124.509 1.02833 124.635 1.11233C124.761 1.19633 124.824 1.32233 124.824 1.53233C124.824 1.65833 124.782 1.76333 124.74 1.86833C124.677 1.95233 124.572 2.01533 124.446 2.05733C124.509 2.07833 124.572 2.12033 124.635 2.16233C124.698 2.20433 124.74 2.30933 124.803 2.41433L125.076 2.98133H124.53L124.299 2.47733C124.236 2.39333 124.215 2.30933 124.152 2.26733C124.089 2.22533 124.047 2.20433 123.942 2.20433L123.753 2.22533Z" fill="black"/>
</svg>
