<svg width="111" height="34" viewBox="0 0 111 34" fill="none" xmlns="http://www.w3.org/2000/svg">
<g clip-path="url(#clip0)">
<path d="M92.4568 17.0005L101.607 6.63525C102.918 5.15034 102.778 2.88111 101.296 1.5686C99.8142 0.255274 97.5481 0.394951 96.2376 1.8797L87.6739 11.5817L79.1106 1.8797C77.7992 0.394757 75.5351 0.255186 74.0521 1.5686C72.5702 2.88193 72.4303 5.15031 73.7413 6.63525L82.8903 17.0005L73.7403 27.3657C72.4289 28.8506 72.5691 31.1198 74.051 32.4323C75.5329 33.7456 77.7986 33.606 79.1095 32.1212L87.6728 22.4192L96.2365 32.1212C97.5479 33.6061 99.812 33.7457 101.295 32.4323C102.777 31.119 102.917 28.8506 101.606 27.3657L92.4568 17.0005Z" fill="#00D258"/>
<path d="M49.9527 34.002C40.5955 34.002 32.9823 26.3765 32.9823 17.002C32.9823 7.62742 40.5955 0.00195312 49.9527 0.00195312C59.3095 0.00195312 66.9231 7.62742 66.9231 17.002C66.9231 26.3765 59.3098 34.002 49.9527 34.002ZM49.9527 7.18201C44.5474 7.18201 40.1498 11.5873 40.1498 17.002C40.1498 22.4163 44.5474 26.8219 49.9527 26.8219C55.3576 26.8219 59.7555 22.4166 59.7555 17.002C59.7555 11.5873 55.3579 7.18201 49.9527 7.18201Z" fill="url(#paint0_linear)"/>
<path d="M16.9687 34.002C7.61053 34.002 -0.00166321 26.3751 -0.00166321 17.002C-0.00166321 7.62883 7.61053 0.00195312 16.9687 0.00195312C20.0091 0.00195312 22.9932 0.818248 25.5989 2.36168C27.3025 3.37112 27.8662 5.57272 26.8592 7.27927C25.8522 8.98592 23.6538 9.55073 21.9502 8.54122C20.4492 7.65199 18.7263 7.18162 16.9694 7.18162C11.5641 7.18162 7.16656 11.5869 7.16656 17.0016C7.16656 22.4163 11.5641 26.8215 16.9694 26.8215C18.7264 26.8215 20.4495 26.3511 21.9502 25.4619C23.6538 24.4525 25.8515 25.0172 26.8592 26.7238C27.8662 28.4305 27.3038 30.632 25.5989 31.6414C22.993 33.1847 20.0087 34.0012 16.9687 34.0012V34.002Z" fill="#00AAF4"/>
<path d="M108.068 27.1719C108.56 27.1719 109.041 27.299 109.509 27.5533C109.978 27.8049 110.343 28.1669 110.605 28.639C110.867 29.1086 110.997 29.599 110.997 30.1101C110.997 30.616 110.868 31.1024 110.609 31.5694C110.352 32.0365 109.991 32.3997 109.525 32.6591C109.061 32.916 108.576 33.0444 108.068 33.0444C107.561 33.0444 107.074 32.9159 106.608 32.6591C106.144 32.3997 105.783 32.0365 105.524 31.5694C105.265 31.1024 105.135 30.616 105.135 30.1101C105.135 29.599 105.266 29.1086 105.528 28.639C105.792 28.1669 106.158 27.8049 106.627 27.5533C107.096 27.299 107.576 27.1719 108.068 27.1719H108.068ZM108.068 27.6583C107.656 27.6583 107.255 27.7647 106.864 27.9774C106.475 28.1876 106.171 28.4898 105.951 28.8842C105.731 29.276 105.621 29.6846 105.621 30.1101C105.621 30.533 105.728 30.939 105.943 31.3282C106.161 31.7147 106.464 32.017 106.852 32.2349C107.241 32.4502 107.646 32.5579 108.068 32.5579C108.49 32.5579 108.896 32.4502 109.284 32.2349C109.673 32.017 109.974 31.7147 110.189 31.3282C110.404 30.939 110.512 30.533 110.512 30.1101C110.512 29.6846 110.402 29.276 110.182 28.8842C109.964 28.4898 109.66 28.1876 109.269 27.9774C108.878 27.7647 108.477 27.6583 108.068 27.6583H108.068ZM106.9 31.7329V28.5729H107.984C108.355 28.5729 108.54 28.6027 108.706 28.6624C108.872 28.7195 108.95 28.8206 109.049 28.9659C109.147 29.1112 109.197 29.2656 109.197 29.429C109.197 29.8148 109.127 30.1276 108.623 30.3871L109.55 31.7329H108.928C108.575 31.2115 108.063 30.4823 108.063 30.4823H107.409V31.7329L106.9 31.7329ZM107.409 30.0464H108.027C108.322 30.0464 108.525 29.9501 108.601 29.8346C108.676 29.7207 108.71 29.5981 108.71 29.4718C108.709 29.3848 108.684 29.2954 108.632 29.2228C108.58 29.1475 108.508 29.0917 108.414 29.0554C108.324 29.0191 108.237 29.0009 107.988 29.0009H107.409L107.409 30.0464Z" fill="#00D258"/>
</g>
<defs>
<linearGradient id="paint0_linear" x1="37.9582" y1="4.98285" x2="61.9876" y2="28.9698" gradientUnits="userSpaceOnUse">
<stop offset="0.12" stop-color="#00AAF4"/>
<stop offset="0.88" stop-color="#00D258"/>
</linearGradient>
<clipPath id="clip0">
<rect width="111" height="34" fill="white"/>
</clipPath>
</defs>
</svg>
