<svg width="108" height="62" viewBox="0 0 108 62" fill="none" xmlns="http://www.w3.org/2000/svg">
<path d="M43.8005 0C44.7787 0.136401 45.7619 0.238082 46.7327 0.415403C48.6991 0.773766 50.6581 1.17181 52.6195 1.55621C52.9402 1.61945 53.0919 1.79057 53.0906 2.15638C53.0757 5.58128 53.0906 9.00742 53.067 12.4323C53.0583 13.4392 52.9116 14.4449 52.8346 15.4518C52.7799 16.1722 52.2305 15.8238 51.8887 15.8783C51.4971 15.9478 51.4089 15.7146 51.4263 15.3563C51.5792 12.2042 51.7333 9.05206 51.8539 5.89996C51.8874 5.03196 51.8029 4.16395 51.788 3.29594C51.7818 2.93634 51.6724 2.73422 51.2746 2.66726C49.2013 2.32006 47.1454 1.82529 45.0596 1.61697C42.7528 1.38683 40.4339 1.29986 38.1162 1.35657C32.5688 1.48801 27.1928 2.60402 21.9772 4.51859C17.6597 6.07948 13.5516 8.16563 9.74608 10.7298C9.09122 11.163 8.45934 11.6299 7.853 12.1285C7.64237 12.3409 7.5108 12.6187 7.4801 12.9159C7.37569 13.7331 7.31105 14.5577 7.27998 15.3811C7.25636 16.0321 6.80018 15.8548 6.43722 15.8882C6.01833 15.9279 5.89403 15.7233 5.92884 15.3327C6.02331 14.2651 6.07675 13.1937 6.20603 12.1298C6.26251 11.8378 6.41947 11.5746 6.64978 11.3858C10.2259 8.49406 14.2321 6.32033 18.4272 4.48263C23.2191 2.39243 28.2822 0.986085 33.4674 0.305042C34.2555 0.192201 35.051 0.0992007 35.8441 0H43.8005Z" fill="#00AA44"/>
<path d="M28.2618 61.9995C27.0188 61.1129 25.7484 60.2635 24.5489 59.331C19.2776 55.2227 14.975 50.0097 11.9449 44.0603C11.8418 43.8594 11.7485 43.6536 11.6491 43.4478C12.6435 43.0758 13.0947 43.2531 13.5521 44.1124C16.9581 50.5773 21.9385 56.0842 28.0355 60.1271C28.4818 60.426 28.795 60.3962 29.2437 60.0974C35.3406 56.0475 39.9273 50.6572 43.3741 44.255C43.9509 43.1836 44.0428 43.139 45.4114 43.4106C44.8048 44.5142 44.238 45.6054 43.6153 46.6643C40.0106 52.7825 35.3046 57.8542 29.3121 61.7118C29.2017 61.7979 29.0997 61.8942 29.0075 61.9995H28.2618Z" fill="#00AA44"/>
<path d="M21.4824 39.2631C20.3389 39.2631 19.2649 39.2755 18.1922 39.247C18.0617 39.247 17.9014 39.0387 17.8193 38.8911C17.7584 38.7783 17.8007 38.6084 17.8007 38.4633C17.8007 32.4542 17.8007 26.4447 17.8007 20.4348C17.8007 19.578 17.8007 19.5668 18.6559 19.5755C21.864 19.5879 25.0734 19.5681 28.2804 19.6325C29.8963 19.666 31.2934 21.1206 31.327 22.7412C31.3692 24.7649 31.3767 26.7899 31.327 28.8173C31.2947 30.0747 30.5675 30.96 29.501 31.58C29.3431 31.6718 29.1729 31.7437 28.933 31.8615L32.0964 39.2669C30.7651 39.2669 29.5296 39.2879 28.2965 39.2421C28.1238 39.2359 27.9013 38.9246 27.8068 38.7088C26.9056 36.6517 26.0132 34.5908 25.1505 32.5175C24.9703 32.0847 24.7378 31.926 24.2742 31.9496C23.552 31.988 22.8249 31.9843 22.1014 31.9496C21.6328 31.9285 21.4998 32.0996 21.5036 32.5547C21.5234 34.5784 21.5135 36.6021 21.511 38.6307C21.511 38.8118 21.4949 38.9891 21.4824 39.2631ZM21.5123 28.103C21.6055 28.1613 21.6366 28.2022 21.6751 28.2022C23.5582 28.2171 25.4401 28.237 27.3233 28.2208C27.4401 28.2208 27.6502 27.9294 27.6539 27.7695C27.68 26.4476 27.6639 25.1258 27.6713 23.8015C27.6713 23.4778 27.5731 23.2918 27.2151 23.2918C25.455 23.2918 23.695 23.2856 21.9349 23.3116C21.7919 23.3116 21.5321 23.5522 21.5297 23.6837C21.5011 25.1717 21.5123 26.6597 21.5123 28.103Z" fill="#00AA44"/>
<path d="M67.6038 30.6542C66.8419 31.6598 66.1818 32.6072 65.441 33.4876C65.1541 33.8087 64.9359 34.1847 64.7995 34.5928C64.6632 35.0009 64.6116 35.4324 64.648 35.8609C64.7188 36.967 64.6654 38.0793 64.6654 39.2263H61.0122C60.9985 38.9783 60.9749 38.7303 60.9749 38.4935C60.9749 32.4637 60.9749 26.4327 60.9749 20.4005C60.9749 19.5809 60.9749 19.5796 61.7866 19.5772C62.5113 19.5772 63.2372 19.6044 63.9606 19.5672C64.52 19.5387 64.7188 19.726 64.7126 20.3026C64.6865 22.8024 64.7002 25.301 64.7039 27.8009C64.6953 28.0932 64.7562 28.3835 64.8817 28.6478C65.0905 28.3887 65.3055 28.1357 65.5032 27.8703C67.5019 25.239 69.4932 22.6028 71.5006 19.9777C71.6349 19.8028 71.8735 19.6057 72.0699 19.6057C73.2694 19.5722 74.4701 19.5896 75.6746 19.5945C75.7829 19.6139 75.8888 19.6451 75.9903 19.6875L74.582 21.5326C73.2035 23.3393 71.8325 25.151 70.4391 26.9453C70.1781 27.2801 70.1358 27.5182 70.3521 27.9175C72.2937 31.5135 74.2054 35.1194 76.1233 38.7229C76.2004 38.868 76.2712 39.0155 76.4005 39.2722C75.5018 39.2722 74.6603 39.1867 73.8399 39.2921C72.5969 39.4508 71.9419 38.9994 71.3974 37.8524C70.2589 35.4468 68.9289 33.1391 67.6038 30.6542Z" fill="#00AA44"/>
<path d="M14.0456 27.2549C12.8859 27.2549 11.7933 27.2685 10.7032 27.2338C10.5913 27.2338 10.4011 26.9362 10.3962 26.7713C10.3651 25.8227 10.3663 24.8716 10.3862 23.9192C10.3949 23.4852 10.2731 23.2794 9.7933 23.2844C8.1165 23.3042 6.43721 23.2955 4.76165 23.2906C4.42852 23.2906 4.2197 23.3476 4.22094 23.7618C4.23503 27.6033 4.24125 31.4448 4.23959 35.2864C4.25056 35.3512 4.26805 35.4148 4.29179 35.4761C4.4857 35.4848 4.70447 35.5046 4.92324 35.5046C6.49687 35.5046 8.07051 35.4761 9.64663 35.5208C10.2681 35.5381 10.426 35.3162 10.3924 34.7408C10.3489 33.9583 10.3924 33.1709 10.3763 32.3848C10.3676 32.0128 10.5006 31.8714 10.8735 31.8788C11.7635 31.8975 12.6547 31.895 13.5447 31.8788C13.9014 31.8727 14.0705 31.9681 14.063 32.3637C14.0419 33.6037 14.0804 34.8437 14.0431 36.0837C13.9921 37.7751 12.4769 39.2234 10.6721 39.2557C8.39659 39.2978 6.11776 39.2978 3.83561 39.2557C1.92264 39.2247 0.467092 37.697 0.46212 35.77C0.451347 31.4713 0.451347 27.1751 0.46212 22.8814C0.46212 21.2433 1.90027 19.6722 3.52487 19.6325C5.98766 19.573 8.45045 19.573 10.9132 19.6325C12.5043 19.6673 13.93 21.0313 14.0207 22.6259C14.1164 24.1201 14.0456 25.6304 14.0456 27.2549Z" fill="#00AA44"/>
<path d="M57.1813 27.0807H53.5294C53.5294 26.0366 53.4996 25.0297 53.5406 24.0253C53.5642 23.4487 53.3666 23.2714 52.7948 23.2813C51.1789 23.3123 49.563 23.2962 47.9471 23.2912C47.604 23.2912 47.3529 23.3111 47.3542 23.7748C47.3691 27.5965 47.3654 31.4182 47.3703 35.2399C47.3842 35.3305 47.4058 35.4197 47.435 35.5065H48.6966C50.1049 35.5065 51.5133 35.4904 52.9228 35.5152C53.3778 35.5239 53.5443 35.3912 53.5331 34.9237C53.5033 33.9404 53.5244 32.9534 53.5244 31.8919C54.6953 31.8919 55.7867 31.8808 56.8805 31.9105C56.9936 31.9105 57.19 32.1684 57.1925 32.3086C57.2099 33.6515 57.2547 34.9969 57.1726 36.3349C57.0782 37.8737 55.5443 39.2303 53.9035 39.2576C51.6065 39.2948 49.3045 39.2997 47.0086 39.2576C45.0522 39.2216 43.6227 37.7125 43.6078 35.6479C43.5771 31.4319 43.5771 27.2158 43.6078 22.9998C43.619 21.1534 45.031 19.6654 46.8744 19.6183C49.2945 19.5575 51.7221 19.5724 54.1397 19.6183C55.6437 19.6493 57.0707 20.9823 57.1652 22.4827C57.2596 23.9831 57.1813 25.5046 57.1813 27.0807Z" fill="#00AA44"/>
<path d="M91.3912 39.2392H78.8033C78.7909 39.0073 78.7685 38.7891 78.7685 38.5709C78.7685 32.4774 78.7759 26.384 78.7536 20.2894C78.7536 19.6979 78.945 19.5628 79.4994 19.5665C83.2284 19.5847 86.9574 19.5847 90.6864 19.5665C91.2669 19.5665 91.4322 19.7562 91.411 20.3105C91.3713 21.2727 91.3999 22.2375 91.3999 23.2729H90.5708C88.1059 23.2729 85.641 23.2877 83.1774 23.2617C82.6491 23.2617 82.5099 23.4266 82.5248 23.9313C82.5584 25.1056 82.536 26.2799 82.536 27.5273H90.3222V30.9299C90.1084 30.9398 89.871 30.9597 89.6336 30.9597C87.4794 30.9597 85.3253 30.9733 83.17 30.9522C82.6989 30.9522 82.5124 31.0589 82.5273 31.5722C82.5638 32.7899 82.5638 34.0084 82.5273 35.2278C82.5136 35.7238 82.6827 35.8664 83.1637 35.8627C85.6696 35.8453 88.1755 35.8738 90.6802 35.8416C91.2669 35.8354 91.426 36.0264 91.3986 36.5856C91.3613 37.4486 91.3912 38.308 91.3912 39.2392Z" fill="#00AA44"/>
<path d="M98.6601 39.229V38.4577C98.6601 33.6453 98.6514 28.8328 98.6713 24.0203C98.6713 23.4574 98.5246 23.2664 97.9454 23.2763C96.5197 23.3135 95.0865 23.2887 93.5676 23.2887C93.5676 22.112 93.5613 20.9848 93.58 19.8589C93.58 19.7671 93.7378 19.6394 93.8485 19.5972C93.9893 19.564 94.1348 19.5552 94.2785 19.5712C98.4612 19.5712 102.644 19.5712 106.827 19.5625C107.341 19.5625 107.572 19.6704 107.543 20.2457C107.495 21.2291 107.53 22.2174 107.53 23.2887H103.249C102.426 23.2887 102.425 23.2887 102.425 24.0885C102.425 28.8832 102.425 33.675 102.425 38.4639V39.2241L98.6601 39.229Z" fill="#00AA44"/>
<path d="M39.3468 39.1154H35.7868C35.7694 38.8972 35.7408 38.7 35.7408 38.5016C35.7408 34.6576 35.747 30.8135 35.7296 26.9695C35.7296 26.4735 35.844 26.2652 36.381 26.2912C37.2274 26.3321 38.0777 26.3086 38.9266 26.2987C39.2399 26.2987 39.4338 26.3532 39.4325 26.7351C39.4217 30.7858 39.4164 34.8341 39.4164 38.8798C39.4028 38.9609 39.3795 39.04 39.3468 39.1154Z" fill="#00AA44"/>
<path d="M84.5385 50.8949H83.6448C83.6324 50.6729 83.61 50.4571 83.61 50.2401C83.61 48.4855 83.5864 46.7297 83.6212 44.9763C83.6324 44.4171 83.4372 44.2534 82.9089 44.2782C82.1905 44.3117 81.4708 44.2869 80.6989 44.2869V50.8849L79.6771 50.9296C79.6647 50.6717 79.646 50.4547 79.646 50.2377C79.646 48.462 79.6249 46.6863 79.656 44.9118C79.6659 44.4022 79.4783 44.2621 79.0146 44.2819C78.4776 44.3055 77.9369 44.3092 77.3987 44.2819C76.9152 44.2583 76.7449 44.4468 76.7499 44.928C76.7685 46.664 76.7573 48.4 76.7499 50.1298C76.7499 50.9829 76.7499 50.9829 75.835 50.8738C75.8056 50.7828 75.7868 50.6888 75.7791 50.5935C75.7791 48.5289 75.7679 46.4643 75.7791 44.3935C75.7791 43.7152 76.1793 43.3197 76.8667 43.3159C79.0602 43.3035 81.2561 43.3035 83.4546 43.3159C84.0873 43.3159 84.5211 43.6396 84.5286 44.2025C84.5571 46.411 84.5385 48.617 84.5385 50.8949Z" fill="#00AA44"/>
<path d="M93.7354 46.1641C93.7657 46.0735 93.7886 45.9806 93.8037 45.8863C93.7938 43.9469 94.0934 44.3301 92.301 44.2855C91.7839 44.2731 91.2668 44.2855 90.7497 44.2855C89.9007 44.2855 89.8933 44.2718 90.025 43.3331C91.3289 43.3331 92.6478 43.2897 93.9591 43.3517C94.5607 43.3815 94.8292 43.9122 94.8292 44.4677C94.8566 46.2409 94.8603 48.0166 94.8292 49.7898C94.8168 50.5165 94.3743 50.9059 93.6173 50.9195C92.6229 50.9406 91.6285 50.9443 90.6341 50.9195C89.8224 50.8984 89.4533 50.4843 89.4483 49.6646C89.4483 48.902 89.4483 48.1382 89.4483 47.3743C89.4483 46.5683 89.8485 46.1777 90.6702 46.1727C91.6894 46.1591 92.7 46.1641 93.7354 46.1641ZM90.4477 49.8841C91.5216 49.8841 92.5073 49.894 93.493 49.868C93.6024 49.868 93.7913 49.651 93.7963 49.5294C93.8249 48.7718 93.81 48.0117 93.81 47.1598C92.7509 47.1598 91.7478 47.1499 90.7447 47.1734C90.6428 47.1734 90.4638 47.3756 90.4601 47.4884C90.4352 48.2622 90.4464 49.0396 90.4464 49.8816L90.4477 49.8841Z" fill="#00AA44"/>
<path d="M73.5914 47.1519C73.5914 47.9976 73.5988 48.8433 73.5914 49.689C73.5827 50.4454 73.1787 50.8893 72.4155 50.9129C71.402 50.9426 70.3894 50.9426 69.3776 50.9129C68.6082 50.8881 68.2117 50.4516 68.208 49.689C68.2005 47.953 68.2005 46.2211 68.208 44.4933C68.208 43.7493 68.5945 43.3364 69.3391 43.3215C70.372 43.3005 71.4062 43.3029 72.4391 43.3215C73.1638 43.3339 73.5777 43.7605 73.5901 44.4946C73.6025 45.3849 73.5914 46.2653 73.5914 47.1519ZM72.5559 49.8799C72.5559 48.0658 72.5634 46.341 72.5398 44.6149C72.5398 44.4909 72.3024 44.2739 72.1669 44.2689C71.3216 44.2367 70.4727 44.2292 69.6287 44.2689C69.4721 44.2776 69.2036 44.5491 69.2011 44.7041C69.17 46.2901 69.1738 47.8773 69.2011 49.4633C69.2011 49.6047 69.4497 49.8539 69.5964 49.8589C70.5473 49.8998 71.4957 49.8824 72.5559 49.8824V49.8799Z" fill="#00AA44"/>
<path d="M66.2639 45.6945H65.364C65.3491 45.4564 65.3292 45.2556 65.3254 45.0547C65.3118 44.2524 65.313 44.2512 64.4814 44.2499C63.799 44.2499 63.1141 44.2598 62.433 44.2499C62.08 44.2425 61.9035 44.3442 61.9072 44.7397C61.9221 46.3083 61.9184 47.8782 61.9072 49.4517C61.9072 49.7655 62.0203 49.8994 62.3435 49.8944C63.1722 49.8837 64.0008 49.8837 64.8295 49.8944C65.1713 49.8944 65.3267 49.7618 65.3267 49.422C65.3267 49.0822 65.3267 48.7276 65.3267 48.3345H66.2577C66.2577 48.9111 66.3136 49.5063 66.239 50.0854C66.2153 50.2962 66.1123 50.4903 65.9509 50.6283C65.7894 50.7664 65.5814 50.8383 65.3689 50.8294C64.1906 50.8468 63.0072 50.8592 61.8326 50.8294C61.3068 50.8182 60.9799 50.471 60.9737 49.954C60.9488 48.0555 60.9414 46.1558 60.9662 44.2574C60.9737 43.6572 61.3578 43.3261 61.9768 43.3137C63.074 43.2939 64.1711 43.2939 65.2683 43.3137C65.8699 43.3236 66.2241 43.6708 66.2627 44.2735C66.2875 44.7174 66.2639 45.17 66.2639 45.6945Z" fill="#00AA44"/>
<path d="M101.391 43.3682C102.359 43.264 102.364 43.264 102.366 44.0651C102.366 45.8829 102.366 47.702 102.366 49.5211C102.366 50.5553 101.983 50.9186 100.935 50.9211C100.086 50.9211 99.2357 50.9298 98.3867 50.9211C97.4022 50.9099 97.0306 50.5491 97.0281 49.5782C97.0223 47.6983 97.0223 45.8181 97.0281 43.9374C97.0281 43.7563 97.053 43.5753 97.0691 43.357H97.9467C97.9591 43.605 97.9815 43.8456 97.9815 44.0849C97.9815 45.7999 98.0001 47.516 97.974 49.2297C97.9653 49.7431 98.1257 49.9266 98.6452 49.8969C99.3075 49.854 99.9718 49.854 100.634 49.8969C101.219 49.939 101.426 49.7654 101.411 49.1529C101.371 47.459 101.397 45.7651 101.397 44.0688L101.391 43.3682Z" fill="#00AA44"/>
<path d="M36.468 19.4023C37.2871 20.1563 37.6613 20.1724 38.5973 19.5722C38.7079 19.5015 39.0025 19.5152 39.0572 19.5945C39.2212 19.8351 39.3928 20.1228 39.4089 20.4018C39.4562 21.2016 39.4089 22.0064 39.435 22.8087C39.4462 23.1968 39.2809 23.3047 38.9192 23.2972C38.0329 23.2811 37.1442 23.2761 36.2579 23.2972C35.8428 23.3084 35.7222 23.1435 35.7334 22.7529C35.7545 22.0324 35.7595 21.3107 35.7334 20.5915C35.711 20.0347 35.9124 19.6417 36.468 19.4023Z" fill="#00AA44"/>
<path d="M39.0547 12.8868L35.4836 16.4332C34.7154 15.5801 34.8099 14.0995 35.7484 13.1645C36.6868 12.2296 38.1896 12.1192 39.0547 12.8868Z" fill="#00AA44"/>
<path d="M36.1622 17.112L39.6923 13.6016C40.412 14.2079 40.3896 15.7393 39.6153 16.6941C38.7539 17.7568 37.1964 17.9428 36.1622 17.112Z" fill="#00AA44"/>
<path d="M37.619 24.0768C38.0727 24.0768 38.5277 24.0867 38.9863 24.0768C39.2921 24.0694 39.4189 24.176 39.44 24.5009C39.5047 25.5127 39.5034 25.5289 38.4792 25.5289C37.716 25.5289 36.9528 25.514 36.1896 25.5289C35.5843 25.5425 35.7558 25.1048 35.7508 24.7948C35.7459 24.4848 35.6054 24.0508 36.2033 24.0731C36.6731 24.0942 37.148 24.0768 37.619 24.0768Z" fill="#00AA44"/>
<path d="M59.0197 50.8825H57.9234V49.6797H59.0197V50.8825Z" fill="#00AA44"/>
<path d="M86.5211 49.6699H87.5975V50.8764H86.5211V49.6699Z" fill="#00AA44"/>
</svg>
