<svg width="122" height="39" viewBox="0 0 122 39" fill="none" xmlns="http://www.w3.org/2000/svg">
<g clip-path="url(#clip0)">
<path fill-rule="evenodd" clip-rule="evenodd" d="M41.04 1.02637H77.03V37.9737H41.04V1.02637Z" fill="#005FFF"/>
<path d="M38.6333 19.5C38.6333 30.2695 29.985 39 19.3167 39C8.64838 39 0 30.2695 0 19.5C0 8.73046 8.64838 0 19.3167 0C29.985 0 38.6333 8.73046 38.6333 19.5Z" fill="#EB0000"/>
<path d="M78.6904 1.02637L100.345 38.9658L122 1.02637H78.6904Z" fill="#23BE19"/>
<path d="M27.3146 24.2207C25.6879 26.9917 22.7057 28.8733 19.3168 28.8733C14.1996 28.8733 10.0313 24.6654 10.0313 19.4996C10.0313 14.3338 14.1996 10.1259 19.3168 10.1259C22.7396 10.1259 25.7218 12.0075 27.3485 14.7786L30.0935 13.1707C27.9246 9.44173 23.8918 6.91016 19.3168 6.91016C12.4374 6.91016 6.8457 12.5549 6.8457 19.4996C6.8457 26.4444 12.4035 32.0891 19.3168 32.0891C23.9257 32.0891 27.9246 29.5575 30.0935 25.8286L27.3146 24.2207Z" fill="white"/>
<path d="M70.4892 7.45801H47.6143V10.6738H57.4081V31.5422H60.6954V10.6738H70.4892V7.45801Z" fill="white"/>
<path d="M114.07 7.45801H110.275L100.345 25.0422L90.4157 7.45801H86.6201L100.345 31.5422L114.07 7.45801Z" fill="white"/>
</g>
<defs>
<clipPath id="clip0">
<rect width="122" height="39" fill="white"/>
</clipPath>
</defs>
</svg>
