<svg width="109" height="26" viewBox="0 0 109 26" fill="none" xmlns="http://www.w3.org/2000/svg">
<path fill-rule="evenodd" clip-rule="evenodd" d="M109 3.78842C109 5.86427 107.328 7.57685 105.301 7.57685C103.274 7.57685 101.602 5.86427 101.602 3.78842C101.602 1.71257 103.274 0 105.301 0C107.378 0 109 1.71257 109 3.78842ZM101.551 14.7904C101.551 20.6547 96.9396 25.3772 91.2134 25.3772C85.5379 25.3772 80.9265 20.6547 80.9265 14.7904C80.9265 8.97804 85.5379 4.25549 91.2134 4.25549C96.9396 4.25549 101.551 8.97804 101.551 14.7904ZM70.1836 4.67066H74.947V7.47305C76.1632 5.13772 78.3422 4.20359 81.1292 4.20359V9.18563C77.8861 9.18563 74.947 10.7425 74.947 15.1537V24.9102H70.1836V4.67066ZM58.934 0.0518962H63.6973V4.56687H67.954V8.92615H63.6973V18.3194C63.6973 19.9281 64.0014 20.8104 65.8257 20.8104C66.4844 20.8104 67.2445 20.6547 67.9033 20.6028V24.5988C66.7885 24.8583 65.623 25.0659 64.1027 25.0659C60.2008 25.0659 58.8833 23.2495 58.8833 20.1876L58.934 0.0518962ZM51.8903 24.7026V22.8862C50.066 24.3912 47.9377 25.1697 45.5053 25.1697C41.8061 25.1697 38.867 22.7305 38.867 18.8902C38.867 14.9461 41.9075 13.2335 44.8466 12.6108L46.8229 12.1956C48.5458 11.8323 50.7248 11.4691 51.941 11.002V10.4311C51.941 8.45908 50.2687 7.88822 48.2417 7.88822C45.5053 7.88822 44.5932 8.71856 44.5932 10.8982L39.8805 10.6906C39.8805 5.96806 43.9344 4.1517 48.2417 4.1517C52.4477 4.1517 56.6537 5.03393 56.6537 10.7425V24.7026H51.8903ZM51.8903 14.6866C51.2822 14.998 50.5221 15.2575 49.6606 15.4132L47.0762 15.984C45.3027 16.3473 43.8331 16.8663 43.8331 18.7345C43.8331 20.2395 45.2013 21.2255 46.8735 21.2255C49.0525 21.2255 51.8903 20.1357 51.8903 17.5409V14.6866ZM14.1887 11.8842C13.5807 9.91218 11.9084 8.66667 10.0335 8.66667C6.63831 8.66667 4.96606 11.6248 4.96606 14.7385C4.96606 17.9042 6.48629 20.8104 9.7801 20.8104C12.6179 20.8104 13.834 18.7345 14.5435 16.9182L18.5974 19.0978C17.2799 22.0559 14.9995 25.2735 9.72943 25.2735C3.69921 25.2735 0 20.7585 0 14.7385C0 8.77046 3.69921 4.20359 10.0335 4.20359C14.7968 4.20359 17.1278 6.9022 18.344 9.91218L14.1887 11.8842ZM32.5835 4.77445H37.1948V17.6966V17.9042C37.1948 18.7864 37.0428 21.3812 35.1172 23.4571C33.5969 25.1178 31.4179 26 28.6309 26C25.7424 26 23.4114 25.1178 21.8405 23.4052C19.6109 21.018 19.7122 18.008 19.7629 17.6447V17.7485V4.77445H24.3742V17.7485V17.8523C24.3742 18.008 24.3742 19.2535 25.2357 20.1357C25.9451 20.8623 27.06 21.2255 28.6309 21.2255C30.0497 21.2255 31.1139 20.8623 31.722 20.1876C32.5328 19.3573 32.5835 18.0599 32.5835 17.8523V4.77445Z" fill="#FF0000"/>
</svg>
