<svg width="65" height="65" viewBox="0 0 65 65" fill="none" xmlns="http://www.w3.org/2000/svg">
<mask id="mask0" mask-type="alpha" maskUnits="userSpaceOnUse" x="0" y="0" width="65" height="65">
<path d="M0 0H64.9619V64.9817H0V0Z" fill="white"/>
</mask>
<g mask="url(#mask0)">
<path fill-rule="evenodd" clip-rule="evenodd" d="M32.4511 0C14.4949 0 -0.061615 14.5459 -0.061615 32.4903C-0.061615 50.4348 14.4949 64.9817 32.4511 64.9817C50.4074 64.9817 64.9629 50.4348 64.9629 32.4903C64.9629 14.5459 50.4074 0 32.4511 0Z" fill="#FBA60B"/>
</g>
<path fill-rule="evenodd" clip-rule="evenodd" d="M32.3991 53.9086C30.6809 53.9086 29.2904 52.5189 29.2904 50.804C29.2904 49.085 30.6809 47.6953 32.3991 47.6953C34.1172 47.6953 35.5098 49.085 35.5098 50.804C35.5098 52.5189 34.1172 53.9086 32.3991 53.9086Z" fill="#FFFFFE"/>
<path fill-rule="evenodd" clip-rule="evenodd" d="M40.9583 32.6838C40.9583 36.0802 38.5809 39.0159 35.2678 40.0542V45.8202H29.572V40.0542C26.2579 39.0159 23.942 36.0802 23.942 32.6838V14.3828H29.572V32.6838C29.572 34.1214 30.8864 35.2754 32.4512 35.2754C34.0149 35.2754 35.2678 34.1214 35.2678 32.6838V14.3828H40.9583V32.6838Z" fill="#FFFFFE"/>
</svg>
