<svg width="132" height="23" viewBox="0 0 132 23" fill="none" xmlns="http://www.w3.org/2000/svg">
<path d="M65.9334 22.9963H6.66795C2.95839 22.9963 0.847685 20.8893 0.838379 17.1742C0.838379 13.3275 0.838379 9.48081 0.838379 5.63413C0.853269 2.17585 3.03284 0 6.48182 0H125.476C128.927 0 131.107 2.17585 131.114 5.63786C131.124 9.54533 131.124 13.454 131.114 17.364C131.114 20.8279 128.929 23 125.478 23C105.629 23 85.781 22.9988 65.9334 22.9963ZM71.5899 13.0905C71.5899 11.8806 71.5619 10.6708 71.5899 9.46281C71.6401 7.72623 70.8695 6.41588 69.5257 5.41822C67.1916 3.6835 63.9753 3.74306 61.5687 5.58574C61.0214 6.00639 60.6938 5.99709 60.1708 5.58574C58.6613 4.37962 56.8987 3.99061 55.0076 4.25864C52.5488 4.6067 49.9542 6.66157 50.118 9.75318C50.2483 12.1952 50.1403 14.6484 50.1459 17.0978C50.1459 18.2146 50.6689 18.8046 51.6349 18.8121C52.6009 18.8195 53.0048 18.3468 53.0086 17.1537C53.0086 14.7991 53.0086 12.4427 53.0086 10.0808C53.0086 9.20968 53.1724 8.4056 53.9262 7.84721C55.1509 6.96496 56.4817 6.95938 57.8051 7.54941C59.028 8.09849 59.4691 9.12034 59.4542 10.4232C59.4226 12.6866 59.4375 14.948 59.4542 17.2114C59.4542 18.0974 59.9512 18.6781 60.718 18.7804C61.7343 18.9145 62.3113 18.3933 62.3188 17.256C62.3374 14.8699 62.302 12.4837 62.3355 10.0975C62.3616 8.31067 63.6794 7.19576 65.6319 7.23112C67.5844 7.26649 68.7365 8.3479 68.7402 10.1534C68.7402 12.4167 68.7402 14.6782 68.7402 16.9415C68.7402 18.0694 69.2744 18.7451 70.1492 18.76C71.0538 18.7749 71.5843 18.129 71.5899 16.9917C71.5954 15.6926 71.5899 14.3915 71.5899 13.0905ZM41.9953 4.95104V4.97338C39.8567 4.97338 37.7143 4.88962 35.5813 4.99571C33.1281 5.11669 31.4455 7.04313 31.5758 9.35486C31.7358 11.9123 33.2249 13.2859 35.8549 13.2896C38.9843 13.2896 42.1144 13.2983 45.2451 13.3157C45.9617 13.3157 46.5611 13.5837 46.7341 14.3133C46.9203 15.0858 46.468 15.6162 45.8333 15.9792C45.3084 16.2807 44.7165 16.3198 44.1246 16.3198C40.3437 16.3198 36.5628 16.3242 32.7819 16.3328C31.9089 16.3328 31.4902 16.7535 31.479 17.5594C31.4678 18.3654 31.8512 18.7804 32.6628 18.7804C36.5715 18.7804 40.4709 18.7935 44.3759 18.7693C45.5298 18.7596 46.6606 18.4449 47.6536 17.8572C49.2841 16.9098 49.9319 15.2756 49.3679 13.5763C48.8486 12.024 47.3205 10.9425 45.582 10.9314C42.3582 10.909 39.1345 10.909 35.9126 10.9035C35.0806 10.9035 34.4347 10.5833 34.2263 9.74015C34.0178 8.89698 34.4384 8.23808 35.1569 7.79137C35.7041 7.45076 36.3314 7.43773 36.9549 7.43587C40.6775 7.43587 44.4001 7.43587 48.1115 7.41539C49.1669 7.41539 49.6005 7.0301 49.6005 6.18322C49.6005 5.33633 49.1892 4.95662 48.1245 4.94732C46.0939 4.93801 44.0483 4.95104 42.0027 4.95104H41.9953ZM11.82 18.8568C13.6162 18.8456 15.416 18.92 17.2066 18.7079C17.7287 18.6382 18.2442 18.5255 18.7477 18.371C20.8268 17.7642 22.5299 16.679 23.4177 14.5981C25.1227 10.6019 22.301 5.36611 17.899 4.67185C14.4351 4.12649 10.9098 4.54342 7.41247 4.48572C7.38158 4.48923 7.35106 4.49546 7.32126 4.50433C6.67912 4.65323 6.25474 5.00316 6.26405 5.71417C6.27336 6.42518 6.68098 6.79558 7.30823 6.95751C7.58258 7.00744 7.86221 7.02183 8.14023 7.00032C10.9601 7.00032 13.78 6.9631 16.5998 7.00032C19.1777 7.03383 21.3126 9.12034 21.4838 11.6945C21.6383 13.9411 20.0302 15.7372 17.389 16.1616C14.9693 16.5599 12.5012 16.2379 10.0611 16.3589C9.33891 16.3943 9.16767 16.1374 9.19186 15.4618C9.24026 14.0677 9.21978 12.6698 9.19186 11.2776C9.17697 10.1738 8.54786 9.44606 7.64699 9.43117C6.74612 9.41628 6.23613 10.0175 6.12817 11.1678C6.11328 11.3222 6.11701 11.4767 6.11701 11.6331C6.11701 13.7401 6.15609 15.847 6.09839 17.9615C6.07606 18.7544 6.39062 18.8921 7.07371 18.8698C8.65581 18.8307 10.2342 18.8568 11.82 18.8568ZM89.9943 13.6544C89.9943 12.7573 89.9385 11.8546 90.0036 10.9612C90.1805 8.58615 89.0376 6.92587 87.0572 5.91519C83.6306 4.16371 80.0252 4.02412 76.4609 5.45917C74.46 6.26511 73.2055 7.86769 73.1105 10.0919C73.0156 12.5358 73.0919 14.9853 73.0863 17.431C73.0863 18.25 73.4363 18.7339 74.2869 18.7525C75.1375 18.7711 75.5898 18.3468 75.6307 17.4664C75.6605 17.0643 75.6605 16.6605 75.6307 16.2584C75.5619 15.6069 75.8169 15.4152 76.4627 15.4227C79.3738 15.4487 82.2849 15.4227 85.1959 15.4227C85.8772 15.4227 86.7166 15.1919 87.1987 15.5064C87.8036 15.901 87.3662 16.8205 87.4332 17.5073C87.5207 18.3859 87.8967 18.8102 88.6784 18.8102C89.5011 18.7972 89.9813 18.3282 89.9813 17.4682C89.9943 16.1933 89.9832 14.9238 89.9832 13.6544H89.9943ZM98.7796 4.97524C96.6838 4.97524 94.9789 4.97524 93.2721 4.97524C91.6881 4.97524 91.2507 5.41822 91.2488 7.03383C91.2488 9.97839 91.2488 12.9242 91.2488 15.8712C91.2281 16.4595 91.2561 17.0484 91.3326 17.632C91.4387 18.2463 91.783 18.7134 92.4959 18.7656C93.259 18.8214 93.756 18.451 93.9849 17.766C94.0807 17.4083 94.1196 17.0377 94.1003 16.6679C94.1003 13.7829 94.1152 10.8979 94.1003 8.01473C94.1003 7.45634 94.1804 7.17901 94.8449 7.18645C97.9141 7.21996 100.987 7.20507 104.055 7.2032C104.585 7.19295 105.107 7.33298 105.56 7.6071C106.69 8.30509 106.74 9.68803 105.659 10.4605C105.113 10.8239 104.464 11.0021 103.809 10.9686C101.668 10.9686 99.5279 10.9686 97.3892 10.9686C96.6187 10.9686 96.1161 11.2441 96.1422 12.0965C96.1682 12.9155 96.628 13.2133 97.4209 13.2133C99.0011 13.1873 100.585 13.2338 102.165 13.191C102.767 13.1742 103.124 13.3771 103.468 13.8629C104.518 15.3519 105.605 16.841 106.705 18.2928C106.81 18.4375 106.943 18.5592 107.096 18.6502C107.25 18.7413 107.421 18.7998 107.598 18.8221C107.775 18.8445 107.955 18.8302 108.126 18.7801C108.298 18.73 108.457 18.6452 108.594 18.531C109.238 18.0117 109.186 17.4645 108.689 16.8559C107.894 15.8638 107.178 14.8084 106.361 13.8369C105.838 13.2133 105.89 12.9732 106.675 12.6735C108.073 12.1449 109.017 11.1249 109.132 9.57449C109.251 7.98867 108.41 6.86817 107.133 6.03803C106.454 5.60309 105.694 5.30878 104.9 5.17253C102.72 4.76863 100.542 5.09436 98.7685 4.97524H98.7796ZM117.815 4.58809C115.738 4.58809 113.663 4.58809 111.585 4.58809C110.439 4.58809 109.862 5.05527 109.873 5.94311C109.884 6.83095 110.454 7.24601 111.621 7.25904C112.788 7.27207 113.977 7.25904 115.157 7.25904C116.832 7.27393 116.598 7.04686 116.605 8.66246C116.618 11.5456 116.605 14.4325 116.605 17.31C116.605 18.276 117.007 18.7637 117.767 18.7991C118.576 18.8326 119.036 18.3263 119.038 17.3417C119.038 14.2426 119.057 11.1417 119.038 8.0352C119.038 7.43028 119.2 7.21996 119.82 7.23857C121.212 7.27766 122.612 7.25346 124.004 7.24974C125.234 7.24974 125.807 6.81047 125.796 5.89285C125.785 4.97524 125.21 4.57878 123.955 4.57692L117.815 4.58809ZM29.1915 11.7894C29.1915 11.3576 29.2064 10.9258 29.1915 10.4865C29.158 9.67686 28.728 9.22829 27.9128 9.22085C27.0975 9.2134 26.621 9.6415 26.5801 10.4437C26.5317 11.3359 26.5317 12.23 26.5801 13.1221C26.6229 13.9188 27.0882 14.3468 27.9128 14.3338C28.7373 14.3208 29.158 13.8852 29.1896 13.0737C29.2045 12.6568 29.1896 12.2213 29.1915 11.7894Z" fill="#E06236"/>
<path d="M71.59 13.0902C71.59 14.3931 71.59 15.696 71.59 16.9989C71.59 18.1362 71.0539 18.782 70.1493 18.7671C69.2745 18.7523 68.7422 18.0766 68.7403 16.9487C68.7403 14.6853 68.7403 12.4239 68.7403 10.1605C68.7403 8.35321 67.5826 7.27366 65.632 7.23829C63.6813 7.20293 62.3617 8.31784 62.3356 10.1047C62.3021 12.4909 62.3356 14.877 62.3189 17.2632C62.3189 18.4005 61.7344 18.9216 60.7182 18.7876C59.9513 18.6852 59.4599 18.1045 59.4544 17.2185C59.4413 14.9552 59.4264 12.6937 59.4544 10.4304C59.473 9.1275 59.0281 8.10193 57.8146 7.5603C56.4912 6.97027 55.1603 6.97585 53.9356 7.8581C53.1911 8.39974 53.0161 9.21312 53.018 10.0917C53.018 12.4462 53.018 14.8026 53.018 17.1646C53.018 18.3577 52.6141 18.8304 51.6444 18.823C50.6746 18.8155 50.1553 18.2274 50.1553 17.1087C50.1553 14.6593 50.2577 12.2061 50.1274 9.76407C49.9636 6.67246 52.5583 4.61759 55.017 4.26953C56.9081 4.0015 58.6708 4.39051 60.1803 5.59663C60.7033 6.01542 61.0309 6.02473 61.5781 5.59663C63.9847 3.74837 67.2011 3.69439 69.5351 5.42912C70.879 6.42677 71.6495 7.73712 71.5993 9.4737C71.5677 10.6705 71.59 11.8804 71.59 13.0902Z" fill="#FDF8F6"/>
<path d="M42.0028 4.95047C44.0503 4.95047 46.0977 4.93744 48.1451 4.95047C49.2098 4.95977 49.623 5.32273 49.6211 6.18637C49.6193 7.05001 49.1856 7.41296 48.1321 7.41854C44.4095 7.43529 40.6869 7.43529 36.9755 7.43902C36.352 7.43902 35.7247 7.45391 35.1775 7.79452C34.4628 8.24123 34.0365 8.87966 34.2468 9.7433C34.4572 10.6069 35.1012 10.9047 35.9332 10.9066C39.1551 10.9066 42.3788 10.9066 45.6026 10.9345C47.3485 10.9457 48.8692 12.0271 49.3885 13.5794C49.9468 15.2713 49.3047 16.9056 47.6742 17.8604C46.6811 18.4481 45.5504 18.7627 44.3965 18.7724C40.4878 18.7966 36.579 18.7836 32.6834 18.7836C31.87 18.7836 31.4958 18.3481 31.4996 17.5626C31.5033 16.7771 31.9239 16.3397 32.8025 16.336C36.5834 16.3211 40.3643 16.3168 44.1452 16.323C44.7427 16.323 45.329 16.2839 45.8539 15.9824C46.4886 15.6101 46.9464 15.0889 46.7547 14.3165C46.5686 13.5869 45.973 13.3207 45.2657 13.3188C42.135 13.3089 39.0049 13.3002 35.8755 13.2928C33.225 13.2853 31.736 11.9117 31.5833 9.35429C31.453 7.03325 33.1356 5.11612 35.5888 4.99514C37.7219 4.88904 39.8698 4.9728 42.0028 4.9728V4.95047Z" fill="#FDF8F6"/>
<path d="M11.82 18.8559C10.2398 18.8559 8.65582 18.8299 7.0793 18.8671C6.39621 18.8839 6.08165 18.7517 6.10398 17.9588C6.16168 15.8518 6.1226 13.7448 6.1226 11.6304C6.1226 11.4741 6.1226 11.3196 6.13376 11.1651C6.24358 10.0092 6.77033 9.41547 7.66933 9.43036C8.56834 9.44525 9.19931 10.1749 9.21421 11.2768C9.23282 12.6709 9.25329 14.0687 9.21421 15.4609C9.19001 16.1366 9.36125 16.3916 10.0834 16.3581C12.5087 16.2446 14.9675 16.5647 17.4039 16.1682C20.0376 15.7364 21.6458 13.9347 21.4987 11.7011C21.3126 9.12139 19.1926 7.04791 16.6091 7.00696C13.7893 6.97159 10.9694 7.00696 8.14955 7.00696C7.87152 7.02846 7.59189 7.01407 7.31755 6.96415C6.69029 6.80221 6.28267 6.40576 6.27336 5.7208C6.26406 5.03585 6.68843 4.65987 7.33058 4.51096C7.36037 4.50209 7.39089 4.49586 7.42178 4.49235C10.9191 4.54819 14.4444 4.13126 17.9083 4.67848C22.3196 5.37274 25.132 10.6086 23.427 14.6048C22.5392 16.6857 20.8361 17.769 18.7571 18.3776C18.2535 18.5321 17.738 18.6448 17.2159 18.7145C15.4105 18.9192 13.6106 18.8448 11.82 18.8559Z" fill="#FDF8F6"/>
<path d="M89.9831 13.6554C89.9831 14.9248 89.9925 16.1942 89.9831 17.4636C89.972 18.3235 89.4974 18.7925 88.6802 18.8056C87.8985 18.8167 87.5225 18.3886 87.435 17.5027C87.368 16.8158 87.8073 15.8964 87.2005 15.5018C86.7184 15.1872 85.879 15.4161 85.1978 15.418C82.2867 15.418 79.3756 15.4422 76.4646 15.418C75.8168 15.418 75.5637 15.6041 75.6326 16.2537C75.6624 16.6558 75.6624 17.0596 75.6326 17.4617C75.5972 18.3421 75.1431 18.7758 74.2887 18.7479C73.4344 18.7199 73.0863 18.2453 73.0882 17.4263C73.0882 14.9806 73.0175 12.5311 73.1124 10.0873C73.1999 7.86302 74.4544 6.26044 76.4627 5.4545C80.0271 4.01945 83.6324 4.1516 87.0591 5.91052C89.0264 6.92679 90.1693 8.58706 89.9943 10.9621C89.9273 11.8555 89.9831 12.7582 89.9831 13.6554ZM81.4808 12.9518C83.218 12.9518 84.9552 12.9518 86.6924 12.9518C87.02 12.9518 87.3513 13.0244 87.4369 12.5051C87.8371 10.225 86.9102 8.45118 84.7548 7.55776C82.752 6.72577 80.7046 6.72204 78.6683 7.41258C76.3473 8.20177 75.3999 9.72245 75.5451 12.1756C75.5805 12.7675 75.7461 12.9797 76.3603 12.9667C78.069 12.9276 79.774 12.9518 81.4808 12.9518Z" fill="#FDF8F6"/>
<path d="M98.7684 4.97573C100.542 5.09485 102.72 4.76913 104.877 5.16186C105.672 5.29811 106.432 5.59241 107.111 6.02736C108.388 6.85564 109.229 7.97613 109.11 9.56382C108.994 11.1143 108.051 12.1343 106.653 12.6629C105.867 12.9625 105.815 13.2026 106.338 13.8262C107.155 14.7978 107.872 15.8531 108.667 16.8452C109.164 17.4631 109.216 18.0104 108.572 18.5204C108.435 18.6346 108.275 18.7193 108.104 18.7694C107.932 18.8195 107.753 18.8338 107.575 18.8115C107.398 18.7891 107.228 18.7306 107.074 18.6395C106.92 18.5485 106.787 18.4268 106.683 18.2821C105.583 16.8229 104.496 15.3506 103.446 13.8522C103.107 13.3683 102.75 13.1636 102.143 13.1803C100.563 13.2231 98.9787 13.1803 97.3985 13.2026C96.6056 13.2157 96.1458 12.9123 96.1198 12.0859C96.0937 11.2334 96.5962 10.9542 97.3668 10.9579C99.5073 10.9579 101.648 10.9579 103.786 10.9579C104.442 10.9914 105.09 10.8133 105.637 10.4498C106.718 9.67736 106.668 8.29442 105.538 7.59643C105.084 7.32231 104.562 7.18227 104.032 7.19253C100.963 7.19253 97.8898 7.20928 94.8224 7.17578C94.1561 7.17578 94.0779 7.44753 94.0779 8.00405C94.0984 10.8891 94.0909 13.7741 94.0779 16.6572C94.0972 17.027 94.0582 17.3976 93.9625 17.7554C93.7317 18.4403 93.2348 18.8107 92.4735 18.7549C91.7606 18.7028 91.4163 18.2356 91.3102 17.6214C91.2337 17.0377 91.2057 16.4488 91.2264 15.8606C91.219 12.9148 91.219 9.96896 91.2264 7.02315C91.2264 5.40755 91.6657 4.97573 93.2496 4.96456C94.9676 4.97387 96.6726 4.97573 98.7684 4.97573Z" fill="#FDF8F6"/>
<path d="M117.804 4.5883H123.946C125.201 4.5883 125.774 5.00337 125.787 5.90424C125.8 6.8051 125.229 7.2574 123.995 7.26112C122.599 7.26112 121.203 7.28904 119.81 7.24995C119.191 7.23134 119.023 7.43608 119.029 8.04659C119.055 11.1456 119.045 14.2466 119.029 17.3531C119.029 18.3377 118.567 18.8421 117.757 18.8104C116.998 18.7769 116.6 18.2893 116.596 17.3214C116.587 14.4383 116.596 11.5514 116.596 8.67384C116.596 7.05824 116.823 7.28532 115.148 7.27043C113.97 7.2574 112.792 7.27043 111.611 7.27043C110.431 7.27043 109.875 6.83302 109.864 5.95449C109.853 5.07596 110.422 4.60133 111.576 4.59947C113.651 4.58458 115.727 4.5883 117.804 4.5883Z" fill="#FDF8F6"/>
<path d="M29.1896 11.7904C29.1896 12.2222 29.2045 12.654 29.1896 13.0933C29.158 13.9048 28.741 14.3385 27.9128 14.3534C27.0845 14.3682 26.6229 13.9383 26.5801 13.1417C26.5317 12.2495 26.5317 11.3554 26.5801 10.4633C26.621 9.66103 27.105 9.23108 27.9128 9.24038C28.7206 9.24969 29.158 9.6964 29.1915 10.5061C29.2064 10.9267 29.1915 11.3548 29.1896 11.7904Z" fill="#FDF8F6"/>
<path d="M81.4809 12.951C79.7741 12.951 78.0692 12.9268 76.3643 12.964C75.75 12.977 75.5844 12.7648 75.549 12.1729C75.4038 9.71975 76.3512 8.19907 78.6723 7.40988C80.7085 6.71935 82.7559 6.72307 84.7587 7.55507C86.9141 8.44849 87.841 10.2223 87.4408 12.5024C87.3496 13.0217 87.0183 12.9472 86.6963 12.9491C84.9566 12.9528 83.2182 12.9534 81.4809 12.951Z" fill="#E06236"/>
</svg>
