<svg width="114" height="48" viewBox="0 0 114 48" fill="none" xmlns="http://www.w3.org/2000/svg">
<path d="M57.9307 47.0379C26.7122 47.0379 32.9601 47.0487 1.73942 47.0718C0.529937 47.0718 0.390625 46.7388 0.390625 45.677C0.424398 13.7273 0.424398 33.3351 0.390625 1.36649C0.390625 0.238744 0.61859 0 1.76475 0C64.1512 0.0356021 50.1747 0.0362571 112.559 0.000655001C113.556 0.000655001 114 0.0320686 114 1.3106C113.947 33.3253 113.947 13.7698 114 45.7782C114 46.8494 113.794 47.0693 112.708 47.0661C81.485 47.0284 89.1556 47.019 57.9307 47.0379Z" fill="#EA5528"/>
<path d="M69.2117 18.3939C70.2629 18.3939 71.3204 18.3468 72.3779 18.4096C73.372 18.4662 74.0876 18.7992 73.429 19.9803C72.8971 20.9416 72.4443 21.9531 71.8459 22.8641C71.4027 23.5269 71.4565 23.9321 72.0327 24.4599C72.8844 25.2358 73.638 26.1185 74.4739 26.9164C75.1071 27.5258 74.9013 27.9217 74.3219 28.4368C73.7425 28.952 73.4037 28.8766 72.9414 28.2923C72.1309 27.2683 71.3805 25.8295 70.2122 25.5751C69.0439 25.3206 68.36 27.0421 67.2581 27.6264C66.6999 27.9213 66.1635 28.2551 65.6529 28.6253C64.7379 29.2819 64.2503 28.5876 63.8703 27.9971C63.3574 27.218 64.2376 27.1991 64.6176 26.995C67.0777 25.6756 69.1484 23.9604 70.5668 21.529C71.1209 20.5866 71.0196 20.1122 69.7658 20.1814C68.512 20.2505 67.2328 20.1813 65.9663 20.2128C65.3553 20.2128 64.817 20.2662 64.8202 19.374C64.8202 18.5635 65.2191 18.4316 65.9093 18.4316C67.0143 18.4662 68.1257 18.4316 69.2307 18.4316L69.2117 18.3939Z" fill="#FAFAF8"/>
<path d="M17.464 21.0915C17.464 20.1491 17.4925 19.4297 17.464 18.7072C17.4355 17.9847 17.635 17.5543 18.512 17.5606C19.389 17.5669 19.579 17.9344 19.5727 18.6978C19.5473 21.6224 19.5378 24.5439 19.5727 27.4685C19.5727 28.5491 18.9648 28.8381 18.1891 28.4392C17.5748 28.125 17.2139 28.125 16.6566 28.4611C16.3317 28.6387 15.97 28.7398 15.5995 28.7566C15.2289 28.7735 14.8594 28.7057 14.5194 28.5585C12.8382 27.9303 11.9643 25.5051 12.6197 23.2936C13.253 21.2203 14.6271 20.3847 16.6693 20.8559C16.8751 20.9125 17.0651 20.9816 17.464 21.0915Z" fill="#FBFAF8"/>
<path d="M61.0999 26.814C60.6567 27.0936 60.2229 27.3952 59.7638 27.6527C59.3047 27.9103 59.1306 27.4548 58.8836 27.2255C56.6673 25.1177 56.6863 25.1271 54.4509 27.037C53.7354 27.6465 52.9343 28.1522 52.1808 28.7208C51.6425 29.126 51.2119 29.1198 50.6642 28.6423C49.9708 28.0423 49.8505 27.6559 50.7782 27.2098C52.07 26.5815 53.1117 25.6391 54.1565 24.6653C54.8815 23.9931 54.9005 23.5062 54.0552 22.9721C53.4219 22.5794 52.8489 22.1334 52.2378 21.7156C51.7882 21.4014 51.2879 21.169 51.766 20.503C52.1998 19.903 52.6526 19.6423 53.308 20.2109C53.5195 20.3656 53.7405 20.5072 53.9697 20.6349C56.3665 22.2465 56.3665 22.2465 57.4525 19.4946C57.5929 19.1566 57.7124 18.8104 57.8103 18.458C58.0351 17.5627 58.5986 17.8643 59.1622 18.037C59.7258 18.2098 60.1437 18.414 59.7955 19.124C59.5604 19.591 59.3645 20.0764 59.2097 20.5753C58.8931 21.5616 57.7469 22.4067 58.0667 23.3679C58.3422 24.2004 59.406 24.7721 60.1026 25.4758C60.544 25.8307 60.8872 26.2912 61.0999 26.814Z" fill="#F9F9F8"/>
<path d="M80.6359 23.3239C80.6359 21.7533 80.6929 20.1826 80.6138 18.6119C80.5695 17.7292 80.9304 17.5721 81.703 17.5627C82.4755 17.5533 82.6971 17.9208 82.6148 18.6182C82.5737 18.9794 82.6402 19.3533 82.58 19.7114C82.3742 20.9302 82.9219 21.4957 84.0966 21.7815C85.1636 22.0391 86.1736 22.5197 87.2121 22.8904C87.915 23.1417 88.4248 23.3742 88.0354 24.3449C87.6459 25.3156 87.152 25.1051 86.4681 24.791C85.5594 24.3794 84.6127 24.0464 83.6977 23.6506C82.8935 23.3051 82.5388 23.4747 82.58 24.4046C82.6402 25.6611 82.58 26.9177 82.6465 28.1742C82.694 28.9847 82.3299 29.1009 81.627 29.1166C80.9241 29.1323 80.5758 29.0035 80.6074 28.1742C80.6676 26.5595 80.6264 24.9386 80.6264 23.3177L80.6359 23.3239Z" fill="#FBFAF8"/>
<path d="M27.7034 18.2636C29.1788 18.2636 30.6574 18.2981 32.1361 18.2447C32.4242 18.215 32.715 18.2644 32.9768 18.3873C33.2387 18.5103 33.4615 18.7022 33.621 18.9421C34.0073 19.4887 33.4469 19.784 33.2252 20.161C32.5321 21.2734 31.6919 22.2887 30.7271 23.1798C30.0622 23.8364 29.5968 23.4217 29.1218 22.9819C28.4886 22.3976 29.2168 22.2311 29.4765 21.9201C29.9292 21.3798 30.9456 20.9777 30.6701 20.2678C30.4295 19.6583 29.4321 20.0542 28.7704 20.0416C26.9245 20.0039 25.0786 20.0133 23.2327 20.0416C22.5552 20.0416 22.1404 19.9442 22.1436 19.1212C22.1467 18.2981 22.6185 18.2416 23.2676 18.2541C24.7493 18.2887 26.2248 18.2636 27.7034 18.2636Z" fill="#FAF6F3"/>
<path d="M97.3687 18.265C98.8442 18.265 100.32 18.2304 101.801 18.265C103.185 18.3058 103.543 19.0032 102.824 20.1498C102.14 21.2046 101.334 22.1757 100.421 23.043C99.8637 23.5864 99.4172 23.6712 98.8125 23.1246C98.04 22.4273 98.7745 22.1822 99.1481 21.8147C99.1891 21.7823 99.2272 21.7466 99.2621 21.7079C99.604 21.221 100.487 20.8974 100.187 20.2534C99.9428 19.7288 99.1291 20.0524 98.5782 20.043C96.6785 20.0084 94.7788 20.0273 92.8791 20.043C92.2458 20.043 91.7424 20.043 91.7171 19.1885C91.6854 18.2304 92.2522 18.2461 92.9392 18.2461C94.4147 18.2681 95.8901 18.2461 97.3719 18.2461L97.3687 18.265Z" fill="#FAF6F3"/>
<path d="M41.2836 27.9368C39.7543 27.9368 38.2219 27.8897 36.6958 27.9556C35.8599 27.9933 35.5654 27.7232 35.5654 26.9064C35.5654 26.1556 35.8346 25.9138 36.5913 25.92C39.6498 25.9515 42.7105 25.9515 45.7732 25.92C46.5648 25.92 46.9035 26.1242 46.9067 26.9693C46.9067 27.874 46.4508 27.9808 45.7162 27.9651C44.2408 27.9305 42.7622 27.9651 41.2836 27.9651V27.9368Z" fill="#FBF2EE"/>
<path d="M92.5371 27.9395C95.2379 26.8557 96.0421 24.6756 95.8711 22.0055C95.8268 21.3332 96.0547 21.0631 96.7513 21.0788C97.3212 21.1039 97.8025 21.1227 97.8088 21.883C97.8246 24.3521 97.4922 26.6578 95.4152 28.395C94.3197 29.3217 93.4363 29.4442 92.5371 27.9395Z" fill="#FAF7F5"/>
<path d="M28.1915 23.1718C28.239 25.3896 27.3303 27.3655 25.2755 28.8262C24.4396 29.4262 23.876 29.0964 23.3758 28.5121C22.695 27.6859 23.6924 27.6011 24.0533 27.3624C25.7029 26.2597 26.2918 24.7079 26.3045 22.8074C26.3045 22.1257 25.7504 20.976 27.2892 21.0765C28.2548 21.1425 28.2833 21.1739 28.1915 23.1718Z" fill="#FAF6F4"/>
<path d="M41.1854 21.0918C40.0867 21.0918 38.988 21.0635 37.8894 21.0918C37.1548 21.117 36.7052 21.0039 36.7242 20.0991C36.7432 19.273 37.1548 19.1913 37.8197 19.1976C40.0709 19.2164 42.322 19.229 44.5732 19.1976C45.3362 19.1976 45.732 19.3358 45.7225 20.206C45.7225 21.0227 45.3267 21.1484 44.6428 21.1075C43.4904 21.0667 42.3379 21.1075 41.1854 21.1075V21.0918Z" fill="#FBF5F1"/>
<path d="M17.4671 24.6523C17.4101 25.689 17.8186 27.0806 16.0803 27.0618C14.6239 27.046 14.5321 25.846 14.5352 24.7811C14.5352 23.6565 14.6619 22.4157 16.1595 22.3686C17.8344 22.3183 17.4196 23.6628 17.4671 24.6523Z" fill="#EB582D"/>
</svg>
