<svg width="64" height="65" viewBox="0 0 64 65" fill="none" xmlns="http://www.w3.org/2000/svg">
<g clip-path="url(#clip0)">
<path d="M0.125 32.4799V64.2799H31.7832H63.4518V32.4799V0.679932H31.7832H0.125V32.4799Z" fill="black"/>
<path d="M55.8858 19.0103V29.5966L54.451 31.028L53.0059 32.4697L54.451 33.9114L55.8858 35.3428V45.9291V56.5051H31.7835H7.69141V45.9497V35.3531L9.12619 33.9217L10.5713 32.48L9.12619 31.0383L7.69141 29.6069V19.0103V8.43433H31.7938H55.8962V19.0103H55.8858ZM10.0242 19.6694V28.5771L11.9751 30.5234L13.9363 32.48L11.9751 34.4366L10.0242 36.3829V45.2906V54.1983H31.7835H53.5427V45.2906V36.3829L51.5918 34.4366L49.6306 32.48L51.5918 30.5234L53.5427 28.5771V19.6694V10.7617H31.7835H10.0242V19.6694Z" fill="white"/>
<path d="M27.4894 17.8156L29.0068 19.3294V22.9337V26.5379L27.4997 28.0414L25.9824 29.5552H21.9464H17.9104V22.9234V16.2915H21.9464H25.9824L27.4894 17.8156ZM20.2535 22.9337V27.2279H22.6173H24.9811L25.7553 26.3938L26.5294 25.5699V22.9337V20.2871L25.7449 19.453L24.9605 18.6188H22.5967H20.2535V22.9337Z" fill="white"/>
<path d="M44.0254 22.9233C45.5324 26.5482 46.7608 29.514 46.7608 29.5346C46.7608 29.5552 46.1931 29.5655 45.4912 29.5655H44.2215L43.8912 28.7828L43.5609 28.0002H40.1855H36.8102L36.5005 28.7622L36.1908 29.5243L34.9006 29.5449C33.8787 29.5552 33.6103 29.5449 33.6413 29.4728C33.6619 29.4213 34.8799 26.4761 36.356 22.9336C37.8321 19.3808 39.0501 16.4459 39.0707 16.3944C39.1017 16.3327 39.3701 16.3121 40.2062 16.3224L41.29 16.3429L44.0254 22.9233ZM39.0398 22.6968C38.4308 24.1694 37.9043 25.4257 37.8837 25.4978C37.8424 25.6214 37.9766 25.6317 40.1959 25.6317C42.0848 25.6317 42.539 25.6111 42.5184 25.539C42.4667 25.333 40.2372 20.0193 40.1959 20.0193C40.1649 20.0193 39.6591 21.2345 39.0398 22.6968Z" fill="white"/>
<path d="M27.9952 36.5477V37.7113L24.5166 42.0056L21.0587 46.2895L24.5166 46.3101L27.9952 46.3204V47.4944V48.658H22.9476H17.9104V47.4635L17.9207 46.2895L21.4096 42.0262L24.8985 37.7628L21.3993 37.7422L17.9104 37.7216V36.558V35.3943H22.9476H27.9952V36.5477Z" fill="white"/>
<path d="M39.979 40.1107L43.2924 44.8478L43.3131 40.1107L43.3234 35.3943H44.5001H45.6665V42.0262V48.658H44.335H43.0034L40.0409 44.3638L37.0784 40.0798L37.0578 44.3741L37.0475 48.658H35.8088H34.5598V42.0262V35.3943H35.6127H36.6552L39.979 40.1107Z" fill="white"/>
</g>
<defs>
<clipPath id="clip0">
<rect width="63.3268" height="63.6" fill="white" transform="translate(0.125 0.679932)"/>
</clipPath>
</defs>
</svg>
