<svg width="68" height="68" viewBox="0 0 68 68" fill="none" xmlns="http://www.w3.org/2000/svg">
<path d="M59.925 47.1748V54.6803H52.258V47.1748H0V67.9998H68V47.1748" fill="url(#paint0_linear)"/>
<path d="M0 0V41.5225H8.16C10.081 37.162 14.076 35.1645 18.87 33.8215L25.075 32.0365C26.571 31.6285 27.761 30.6935 27.761 29.427C27.761 27.7865 26.163 26.622 22.831 26.5965C19.652 26.5965 17.2465 27.8375 16.966 30.804H7.8455C8.3555 23.2475 14.535 20.91 22.865 20.91C31.45 20.91 36.924 23.766 36.924 29.58C36.924 39.3125 20.043 36.788 16.3965 41.5055H33.7365L48.3565 25.823H59.9165V41.5225H67.9915V0H0Z" fill="black"/>
<path d="M52.258 41.5223V31.5518L42.9505 41.5223" fill="#1A1A1A"/>
<path d="M55.335 6.00098H59.585C59.789 6.00098 59.925 6.12848 59.925 6.34098V15.555C59.925 15.742 59.789 15.8695 59.585 15.8695H55.335C55.1395 15.8695 54.995 15.742 54.995 15.5295V6.34948C54.995 6.14548 55.131 6.00948 55.335 6.00948V6.00098ZM52.8105 15.878H39.4995C36.7625 15.878 34.5525 13.668 34.544 10.948C34.544 8.21098 36.754 6.00098 39.474 6.00098H49.096C49.402 6.00098 49.487 6.28998 49.3765 6.46848L48.977 7.12298C48.926 7.20798 48.807 7.27598 48.722 7.26748H43.18C43.0355 7.26748 42.8995 7.26748 42.755 7.30148C42.415 7.33548 42.075 7.42048 41.769 7.55648C41.4885 7.66698 41.225 7.81148 40.9785 7.99848V8.03248L40.9105 8.09198L40.851 8.15998L40.7915 8.21098H40.7745L40.7405 8.26198H40.7065L40.664 8.31298V8.32998L40.6045 8.37248H40.5875L40.562 8.42348H40.545C40.528 8.42348 40.5195 8.42348 40.5025 8.46598L40.477 8.48298C40.477 8.49998 40.4515 8.51698 40.443 8.52548C40.443 8.52548 40.443 8.55098 40.426 8.55948C40.392 8.61048 40.341 8.64448 40.3155 8.70398V8.74648L40.2815 8.77198V8.81448C40.2815 8.83148 40.2815 8.83998 40.256 8.84848L40.222 8.88248C40.222 8.91648 40.1965 8.92498 40.188 8.93348L40.171 8.97598L40.1455 9.00148L40.1285 9.03548V9.06098C40.1285 9.09498 40.1285 9.10348 40.103 9.12048V9.15448C40.103 9.17998 40.0775 9.18848 40.069 9.20548V9.23948L40.0435 9.27348C40.0435 9.27348 40.0435 9.29898 40.0265 9.30748C40.0265 9.32448 40.0265 9.34148 40.0095 9.34998V9.36698L39.9755 9.42648L39.95 9.45198L39.9245 9.51148V9.55398L39.8905 9.61348V9.63898L39.8565 9.69848V9.71548L39.814 9.80048V9.81748L39.797 9.87698V9.90248L39.7715 9.93648V10.064L39.746 10.115V10.1745L39.729 10.2255V10.353L39.712 10.4125V10.4975C39.712 10.523 39.712 10.54 39.695 10.5485V11.5175C39.695 11.5345 39.695 11.5515 39.7205 11.5685V11.781L39.7545 11.8235V11.8575L39.7715 11.9085V11.9425L39.797 11.9935V12.0275L39.814 12.0785V12.1125L39.865 12.1805C39.865 12.2145 39.882 12.2485 39.899 12.2655V12.291L39.9245 12.359V12.3845L39.95 12.444C39.95 12.444 39.95 12.4695 39.967 12.478V12.512C39.967 12.512 39.967 12.5545 39.9925 12.563C39.9925 12.58 39.9925 12.597 40.0095 12.6055C40.0095 12.6395 40.0095 12.6565 40.0265 12.665L40.052 12.7075L40.0775 12.7585C40.0775 12.7755 40.0775 12.784 40.0945 12.801L40.12 12.8435L40.137 12.8775L40.154 12.903C40.154 12.92 40.154 12.9285 40.171 12.9455L40.188 12.971C40.188 12.9965 40.205 13.0135 40.2135 13.022L40.2305 13.056L40.2645 13.107L40.2815 13.141L40.2985 13.175C40.2985 13.192 40.2985 13.2005 40.3155 13.209C40.3155 13.226 40.341 13.2345 40.3495 13.2515V13.277L40.4005 13.328C40.4005 13.345 40.4005 13.345 40.4175 13.3535L40.4685 13.4045C40.4685 13.4215 40.4855 13.4215 40.494 13.43L40.528 13.4725H40.545L40.579 13.532L40.6045 13.5575C40.6045 13.5575 40.6045 13.583 40.63 13.5915L40.664 13.6085L40.6895 13.634L40.715 13.6765L40.7405 13.7105L40.7575 13.736C40.7575 13.753 40.7745 13.7615 40.783 13.7785L40.817 13.804L40.851 13.838L40.8765 13.855L40.902 13.8805L40.9275 13.906L40.9615 13.923L40.987 13.9485L41.021 13.9655C41.021 13.9655 41.0465 13.9655 41.055 13.9825L41.089 13.9995C41.123 13.9995 41.1315 13.9995 41.1485 14.0165C41.1485 14.0165 41.174 14.0165 41.1825 14.0335L41.4375 14.178L41.497 14.2205H41.5395C41.582 14.2205 41.5905 14.2545 41.6075 14.263H41.6415C41.667 14.263 41.684 14.263 41.6925 14.2885C41.6925 14.2885 41.7095 14.2885 41.718 14.3055L41.7605 14.3225C41.7605 14.3225 41.7945 14.3225 41.803 14.3395H41.837L41.854 14.365L41.905 14.382H41.9305L41.99 14.416H42.024L42.075 14.4415H42.1005C42.1005 14.4585 42.126 14.4585 42.1515 14.467H42.1685C42.1855 14.501 42.2025 14.501 42.228 14.5095L42.296 14.5435L42.602 14.6285H42.7295C42.7295 14.6285 42.7295 14.6455 42.7465 14.6455H42.806L43.231 14.671H48.926V10.676C48.926 10.472 49.045 10.336 49.249 10.336H53.465C53.652 10.336 53.805 10.472 53.805 10.676V15.5465C53.805 15.7505 53.6605 15.8865 53.465 15.8865H52.785L52.8105 15.878ZM28.7045 6.00098H32.98C33.1755 6.00098 33.32 6.12848 33.32 6.34098V15.555C33.32 15.742 33.201 15.8695 32.997 15.8695H28.73C28.5175 15.8695 28.39 15.742 28.39 15.5295V6.34948C28.373 6.14548 28.509 6.00948 28.7045 6.00948V6.00098ZM12.784 15.878H8.53397C8.33847 15.878 8.19397 15.742 8.19397 15.538V6.34098C8.19397 6.14548 8.32147 6.00098 8.51697 6.00098H22.321C25.041 6.00098 27.251 8.21098 27.268 10.948C27.268 13.668 25.058 15.878 22.338 15.878H12.7755H12.784ZM13.124 14.6455H18.615C18.768 14.6455 18.9125 14.6455 19.04 14.62C19.448 14.5775 19.839 14.45 20.1875 14.297C20.417 14.195 20.6295 14.0675 20.825 13.9145L20.876 13.872H20.893L20.944 13.821L20.961 13.804C20.978 13.804 20.995 13.7785 21.0035 13.77L21.0715 13.753L21.114 13.719V13.702C21.148 13.702 21.1565 13.6765 21.1735 13.6595V13.6425L21.216 13.6085H21.2755L21.301 13.5745C21.318 13.5745 21.335 13.549 21.3435 13.532C21.3435 13.532 21.3605 13.532 21.3605 13.515C21.3605 13.498 21.3605 13.4895 21.386 13.4725H21.403C21.403 13.447 21.4285 13.43 21.4455 13.4215H21.4625L21.59 13.2515V13.2005L21.6155 13.175L21.641 13.141L21.6665 13.0985L21.6835 13.0645L21.709 13.039L21.726 13.005V12.9795L21.76 12.937L21.7855 12.8945L21.811 12.8605V12.8095L21.845 12.7755C21.845 12.7415 21.879 12.733 21.8875 12.716L21.9045 12.6905L21.9215 12.6565V12.631C21.9215 12.631 21.9215 12.597 21.9385 12.58C21.9385 12.563 21.9385 12.5545 21.9555 12.546V12.495C21.9725 12.495 21.9725 12.478 21.981 12.461L22.015 12.41L22.049 12.376L22.0745 12.3165V12.2995C22.0915 12.2825 22.1 12.257 22.1085 12.2145V12.1975L22.1425 12.138V12.1125L22.168 12.0615L22.185 12.036V11.9085C22.2105 11.9085 22.2105 11.8915 22.2105 11.883V11.832L22.2275 11.7725V11.73L22.2445 11.6875V11.6365C22.2445 11.611 22.2445 11.6025 22.2615 11.5855V11.543V11.3985L22.287 11.3645V10.6845L22.27 10.6505V10.5655V10.4295L22.2445 10.37V10.3275L22.2275 10.268V10.2425C22.2275 10.217 22.2275 10.2 22.2105 10.183V10.149L22.1935 10.0895V10.047L22.1765 9.98748V9.81748L22.1255 9.74948V9.73248L22.083 9.64748L22.0575 9.63048C22.0575 9.60498 22.0575 9.58798 22.032 9.57098V9.51998L21.998 9.46898V9.43498C21.9725 9.41798 21.9555 9.40098 21.9555 9.38398V9.34998L21.93 9.29898V9.26498L21.913 9.22248C21.913 9.22248 21.913 9.19698 21.896 9.18848L21.8705 9.15448V9.12898C21.8535 9.12898 21.845 9.10348 21.8365 9.08648L21.811 9.05248C21.811 9.02698 21.794 9.01848 21.7855 9.00148V8.96748L21.76 8.93348L21.7345 8.89948C21.7345 8.88248 21.709 8.87398 21.709 8.85698C21.709 8.83998 21.6835 8.82298 21.675 8.81448C21.675 8.78898 21.675 8.78048 21.6495 8.77198C21.6495 8.74648 21.624 8.72948 21.6155 8.72098V8.69548L21.556 8.66148C21.556 8.64448 21.539 8.63598 21.5305 8.62748L21.4795 8.55948C21.4795 8.55948 21.4795 8.54248 21.4625 8.53398C21.4625 8.51698 21.4455 8.50848 21.437 8.49148L21.386 8.46598L21.369 8.44048C21.369 8.44048 21.369 8.38948 21.3435 8.37248L21.318 8.34698L21.301 8.30448L21.2755 8.27048H21.25L21.1905 8.22798L21.1565 8.19398L21.131 8.17698L21.1055 8.13448C21.0885 8.13448 21.08 8.11748 21.0715 8.10048L21.0545 8.07498L21.029 8.03248L21.0035 8.00698L20.978 7.97298L20.944 7.94748L20.91 7.92198C20.91 7.92198 20.876 7.92198 20.8675 7.90498L20.8335 7.88798L20.808 7.86248L20.774 7.83698C20.7485 7.83698 20.74 7.81148 20.723 7.80298L20.638 7.75198L20.621 7.73498C20.604 7.73498 20.587 7.71798 20.5785 7.70948L20.5445 7.68398C20.5105 7.68398 20.502 7.68398 20.485 7.66698H20.451L20.4 7.64148L20.383 7.62448C20.366 7.62448 20.349 7.62448 20.332 7.60748L20.3065 7.59048H20.2555L20.2215 7.57348L20.1875 7.54798C20.1875 7.53098 20.1535 7.53098 20.145 7.52248H20.1025C20.1025 7.52248 20.0855 7.52248 20.0685 7.49698C20.0685 7.49698 20.043 7.49698 20.026 7.47148H20.009L19.9665 7.44598H19.941L19.8815 7.42048H19.839L19.788 7.40348H19.754C19.737 7.40348 19.7115 7.40348 19.6945 7.38648L19.4395 7.31848H19.3545L19.2865 7.30148H19.2015L19.1335 7.28448L18.7085 7.26748H13.1835V14.6625L13.124 14.6455ZM25.194 52.6405H27.149V55.9725H30.974V52.6405H32.9545V61.5825H30.9825V57.715H27.1575V61.574H25.1855V52.649L25.194 52.6405ZM34.765 52.6405H37.723C40.613 52.6405 43.01 53.8645 43.01 57.1455C43.01 60.0355 40.647 61.5825 37.995 61.5825H34.765V52.6405ZM36.737 59.7635H37.757C39.5845 59.7635 40.9615 59.0835 40.9615 57.0435C40.9615 55.3265 39.5165 54.4935 37.8505 54.4935H36.72V59.7635H36.737Z" fill="white"/>
<defs>
<linearGradient id="paint0_linear" x1="34" y1="71.0598" x2="34" y2="41.0548" gradientUnits="userSpaceOnUse">
<stop stop-color="#763BFF"/>
<stop offset="1" stop-color="#3100A2"/>
</linearGradient>
</defs>
</svg>
