<svg width="114" height="63" viewBox="0 0 114 63" fill="none" xmlns="http://www.w3.org/2000/svg">
<path d="M51.8181 42.4056C51.8804 42.4142 51.8939 42.4167 51.9546 42.4246C52.9689 42.5631 53.9656 42.7467 54.7285 43.0893C55.4356 43.403 55.85 43.7999 56.2285 44.5075C56.8039 45.5804 56.8414 47.0835 56.3214 48.2211C55.9329 49.0676 55.0803 49.7774 54.3018 50.1537C53.4934 50.5475 52.6969 50.7349 51.7834 50.8397C50.1857 51.0165 48.4602 50.6839 47.0225 49.9853C46.172 49.568 45.1333 48.8494 44.6094 47.9236C44.2241 47.2453 44.2364 46.3628 44.7051 45.7182C45.4523 44.6908 47.0526 44.4646 48.2579 44.5075C49.1768 44.5432 50.8314 44.8286 51.7039 45.1405C51.9457 45.2283 52.8376 45.5773 52.9932 45.7375C53.1028 45.8488 53.1739 46.0106 53.1246 46.1602C52.9253 46.7728 51.4436 47.0957 51.0157 47.1606C49.8703 47.3369 49.276 46.9013 47.9738 46.3848C47.6506 46.2576 47.2198 46.1165 46.8907 46.086C46.2996 46.0294 45.5855 46.1957 45.4727 46.8441C45.4166 47.1782 45.8066 47.4907 46.104 47.6221C46.8025 47.9236 47.3704 48.032 48.0579 48.0412C50.0887 48.0748 52.3711 47.7389 54.0322 46.5564C54.2596 46.3934 54.4829 46.1548 54.4853 45.8539C54.4925 45.2464 53.4323 44.8749 53.4323 44.8749C52.3134 44.4062 50.2459 44.1781 49.1808 44.09C48.0632 43.9928 46.3045 43.8474 45.8823 43.7849C45.4475 43.7225 44.9753 43.6344 44.5988 43.4649C44.2206 43.2932 43.8506 42.9091 43.7408 42.4841C43.5461 41.7179 43.7945 40.7779 44.218 40.1658C45.3279 38.5627 47.9279 37.9538 49.8702 37.712C51.7502 37.477 54.7893 37.4794 56.6358 38.4651C56.9209 38.6187 57.0665 38.7615 57.0069 39.0677C56.8867 39.6425 56.4566 40.013 55.9354 40.1753C55.3886 40.3502 54.2575 40.4183 53.7607 40.4497C51.5346 40.5751 48.8444 40.5094 46.724 41.0903C46.5579 41.1379 46.271 41.2157 46.1777 41.3203C45.8458 41.6823 46.7938 41.7857 46.9968 41.8271C47.0572 41.8416 47.0689 41.8437 47.1319 41.8506L51.8181 42.4056ZM38.5746 32.4327C38.5746 32.4327 38.9367 31.887 39.2401 31.4731C39.7925 30.7193 40.7923 29.6739 41.5452 29.0267C41.7755 28.829 42.0471 28.605 42.0471 28.605C42.0471 28.605 41.6224 28.6492 41.3817 28.6986C40.8104 28.8103 39.9728 29.3696 39.5543 29.731C38.8637 30.325 38.1043 31.2905 38.4479 32.1484C38.4978 32.2696 38.5746 32.4327 38.5746 32.4327ZM42.4138 33.4648C43.5048 33.3892 44.5267 33.0737 45.4782 32.5434C46.4113 32.0189 47.7837 30.996 47.6414 29.7935C47.5981 29.4042 47.3445 29.1104 47.0243 28.9732C46.6082 28.7921 46.3911 28.8213 45.8595 28.98C45.4733 29.0935 45.2993 29.1624 44.9347 29.3721C43.8644 29.9968 42.3469 31.3338 41.523 32.4009C41.3329 32.6525 41.1403 32.9339 40.9896 33.1268C40.8946 33.2458 40.8207 33.355 40.8299 33.384C40.8628 33.505 41.9877 33.4939 42.4138 33.4648ZM39.636 35.5147C39.5235 35.6343 39.4044 35.9226 39.281 36.1314C39.215 36.2431 39.0928 36.3869 39.0119 36.4446C38.728 36.6544 38.4874 36.6641 38.2133 36.4217C37.8289 36.0801 37.6066 35.5518 37.5908 35.0379C37.5826 34.8136 37.6209 34.5655 37.5787 34.3764C37.5087 34.0572 37.1908 33.7284 37.0194 33.4232C36.8181 33.0637 36.6553 32.4368 36.635 32.0321C36.5659 30.7701 37.2281 29.6076 38.0882 28.6907C38.9544 27.7635 40.0876 26.993 41.3201 26.4684C42.4851 25.9754 44.1922 25.6393 45.4715 26.0845C45.888 26.2278 46.4683 26.5839 46.7599 26.957C46.8218 27.0344 46.8723 27.1181 46.9358 27.1591C46.9927 27.1955 47.1414 27.2099 47.2598 27.2317C47.6678 27.3028 48.2553 27.6132 48.4953 27.8199C48.9774 28.2378 49.2416 28.6372 49.3637 29.2169C49.6088 30.3832 48.9403 31.6629 48.1788 32.4417C46.875 33.7821 45.5873 34.7246 43.9193 35.3806C43.1867 35.6681 42.0457 35.9368 41.2145 35.8616C40.9564 35.8401 40.6913 35.7718 40.4399 35.755C40.3116 35.7439 39.8427 35.6224 39.7925 35.5881C39.7304 35.5402 39.6501 35.4984 39.636 35.5147ZM41.1257 38.1007C41.1765 38.1093 41.2547 38.1321 41.3221 38.1582C41.9068 38.3816 42.1474 38.9253 42.2915 39.5226C42.6253 40.9094 42.7677 43.9774 42.8233 45.1783C42.864 46.0796 42.8865 46.9664 42.9241 47.8574C42.9559 48.6119 43.0159 49.615 42.8593 50.3218C42.8024 50.5761 42.6332 50.8717 42.3908 51.0231C42.1132 51.2017 41.4812 51.2153 41.1339 51.1433C40.2777 50.9654 39.9995 50.4123 39.8773 49.5617C39.5869 47.5318 39.7268 43.5481 39.8982 41.8671C39.9552 41.3118 40.1633 39.5329 40.4518 38.787C40.5504 38.5354 40.7602 38.0288 41.1257 38.1007ZM15.0796 41.4779C15.0796 41.4779 13.8053 41.5686 12.9283 41.6663C11.8125 41.7871 9.71602 42.1507 8.50586 42.5849C8.14287 42.7155 7.40551 43.0255 7.34143 43.4005C7.27408 43.7892 7.5142 44.0931 7.78123 44.4076C7.93564 44.5902 8.80961 45.4349 9.05468 45.6401C10.0819 46.5018 12.1649 47.8307 13.6991 48.476C14.2262 48.695 15.0981 49.0087 15.0981 49.0087C15.0981 49.0087 15.0334 46.5144 15.045 44.0574C15.0517 42.7612 15.0796 41.4779 15.0796 41.4779ZM38.4441 42.4706C38.5171 43.1407 38.3456 44.4077 38.3159 44.5748C38.2616 44.96 37.9725 45.8485 37.9245 45.9569C37.6912 46.4968 37.4611 46.9392 37.2172 47.3805C36.7994 48.1361 35.8058 49.3338 35.216 49.8464C33.0226 51.7511 29.6272 52.8355 26.7143 53.1927C24.7377 53.4326 22.4665 53.3974 20.3721 53.0081C19.6513 52.8764 18.5787 52.628 18.5787 52.628C18.5787 52.628 18.5822 53.0589 18.5478 53.3619C18.5312 53.5002 18.4276 53.8641 18.3694 53.982C18.2172 54.298 17.9672 54.4611 17.6036 54.5312C17.1648 54.613 16.6994 54.6403 16.294 54.4661C15.6283 54.1847 15.3893 53.559 15.2733 52.8373C15.1795 52.2601 15.0812 51.2568 15.0812 51.2568C15.0812 51.2568 14.5832 51.0199 14.168 50.8117C12.8925 50.1803 11.6811 49.4152 10.6213 48.6285C10.3277 48.4083 9.06628 47.3469 8.78787 47.0834C8.00716 46.3387 7.30483 45.5979 6.77053 44.6473C6.35517 43.9047 6.23556 43.2456 6.55148 42.4587C6.98711 41.362 8.55226 40.5362 9.62344 40.0656C10.4097 39.7168 12.8544 38.9148 13.87 38.7661C14.3496 38.6972 15.0936 38.5634 15.1394 38.5335C15.1581 38.5191 15.171 38.5069 15.1845 38.4914C15.208 38.4582 15.2475 37.3725 15.2398 36.9754C15.2299 36.5849 15.5275 34.0202 15.6231 33.4778C15.673 33.1846 15.8941 32.0555 16.1198 31.7592C16.2674 31.5589 16.5285 31.5751 16.7413 31.7066C17.9061 32.4342 18.26 34.9579 18.3466 36.2419C18.3984 37.0243 18.4242 38.2011 18.4242 38.2011C18.4242 38.2011 19.7604 38.1613 20.5823 38.1848C21.381 38.2034 22.2614 38.33 23.0905 38.4628C24.1518 38.6337 26.2207 39.0871 27.4072 39.6915C28.3842 40.1891 29.2987 41.0276 29.595 41.9149C29.8703 42.7284 29.829 43.2913 29.4097 44.0255C28.9383 44.8544 28.0465 45.4705 27.1424 45.522C26.8733 45.5376 25.8606 45.4024 25.549 45.16C25.4268 45.0634 25.4331 44.889 25.5213 44.7708C25.5547 44.7293 26.0281 44.4764 26.3075 44.3288C26.4476 44.2523 26.5635 44.1698 26.6728 44.0697C26.905 43.8643 27.1139 43.6383 27.0906 43.3732C27.0585 43.0293 26.6962 42.8171 26.3508 42.6806C24.7306 42.034 21.4957 41.4972 19.9325 41.4043C19.3206 41.3682 18.4502 41.3373 18.4502 41.3373L18.6342 50.01C18.6342 50.01 19.3538 50.1477 19.9209 50.24C20.2462 50.2896 21.6249 50.4143 21.9912 50.4233C24.7807 50.4973 27.8941 50.2464 30.4541 49.0327C31.578 48.5013 32.6091 47.8397 33.3897 46.9441C34.4185 45.7591 34.9573 44.1373 34.8147 42.4432C34.6584 40.5932 33.3624 38.397 32.3275 37.0598C29.5931 33.5268 24.906 30.6206 20.7823 28.9168C16.5724 27.1784 12.4116 26.1784 7.94364 26.0109C6.79182 25.968 4.28039 26.0264 3.01089 26.3792C2.82956 26.4306 2.64677 26.4919 2.47839 26.5299C2.34538 26.5626 2.13579 26.6511 2.07824 26.6979C2.04636 26.7238 2.01483 26.7596 2.01483 26.7596C2.01483 26.7596 2.0931 26.8031 2.16789 26.8349C2.30236 26.8938 2.86841 26.9291 3.16135 26.983C3.42343 27.0326 3.69632 27.1708 3.80433 27.3638C3.90693 27.5472 3.91977 27.6918 3.79712 27.8448C3.50948 28.1962 2.42681 28.1369 1.95007 28.0611C1.45463 27.9818 0.837785 27.8295 0.724484 27.3961C0.59305 26.8857 0.834406 26.3853 1.09513 25.9228C1.61895 24.9973 2.36926 24.5159 3.46803 24.2145C5.02868 23.7831 6.99928 23.4814 8.47297 23.4248C11.8085 23.2982 14.9654 23.8842 18.1971 24.87C20.0468 25.4319 22.4683 26.3748 24.2412 27.2324C25.5133 27.8486 27.5175 28.9818 28.6434 29.7224C28.9985 29.9579 31.0766 31.4919 31.3994 31.7615C32.0728 32.3146 32.9535 33.1096 33.5913 33.7454C34.8252 34.9739 36.3599 36.857 37.1055 38.3517C37.2849 38.7096 37.4239 39.0617 37.6554 39.4765C37.735 39.6186 38.0756 40.4686 38.1322 40.7142C38.1883 40.9571 38.2705 41.3142 38.2821 41.3284C38.2986 41.4588 38.4565 42.1891 38.4441 42.4706ZM80.377 40.553C78.815 40.9149 74.7074 41.1159 74.7074 41.1159L74.1895 42.7459C74.1895 42.7459 76.2422 42.5699 77.7355 42.7266C77.7355 42.7266 78.2193 42.6701 78.2762 43.2784C78.2954 43.8458 78.2282 44.4545 78.2282 44.4545C78.2282 44.4545 78.1972 44.8228 77.6777 44.9165C77.1147 45.0108 73.2533 45.1608 73.2533 45.1608L72.628 47.2856C72.628 47.2856 72.3957 47.7768 72.9165 47.6366C73.4003 47.5065 77.4462 46.7437 77.9732 46.8535C78.5379 46.9944 79.1629 47.7508 78.9822 48.4401C78.7669 49.2945 74.7287 51.882 72.2695 51.7014C72.2695 51.7014 70.9773 51.7851 69.885 50.0329C68.8678 48.3633 70.2706 45.2018 70.2706 45.2018C70.2706 45.2018 69.6276 43.7259 70.0935 43.2257C70.0935 43.2257 70.3708 42.9729 71.1791 42.9158L72.1689 40.8585C72.1689 40.8585 71.0415 40.9365 70.3708 40.1033C69.7461 39.3128 69.6937 38.9494 70.1727 38.7312C70.6849 38.477 75.3798 37.6162 78.6104 37.7254C78.6104 37.7254 79.7332 37.6146 80.707 39.5712C80.7072 39.5713 81.1789 40.3626 80.377 40.553ZM68.2257 48.4631C67.8117 49.4415 66.718 50.4857 65.3593 49.8366C64.0181 49.1862 61.8817 44.7932 61.8817 44.7932C61.8817 44.7932 61.0707 43.1551 60.9147 43.1973C60.9147 43.1973 60.7394 42.8774 60.632 44.6675C60.5203 46.45 60.6535 49.9257 59.9458 50.4728C59.2753 51.0213 58.4635 50.8029 58.0425 50.1621C57.6598 49.5307 57.5006 48.0304 57.7094 45.3954C57.9548 42.7553 58.5652 39.9464 59.3451 39.0718C60.1239 38.203 60.7492 38.8337 60.993 39.0625C60.993 39.0625 62.0347 40.0112 63.7527 42.7968L64.0559 43.3121C64.0559 43.3121 65.6171 45.944 65.7802 45.9378C65.7802 45.9378 65.9078 46.0588 66.0216 45.9719C66.1854 45.9248 66.1193 45.0809 66.1193 45.0809C66.1193 45.0809 65.7954 42.2128 64.3712 37.3581C64.3712 37.3581 64.1558 36.7527 64.3014 36.1855C64.446 35.6122 65.018 35.8813 65.018 35.8813C65.018 35.8813 67.2254 36.9964 68.2969 40.6072C69.3613 44.2192 68.6461 47.4773 68.2257 48.4631ZM91.9834 46.3005C90.9786 48.0619 88.1418 51.7503 84.3718 50.8794C83.1268 53.9126 82.081 56.981 81.4829 61.5722C81.4829 61.5722 81.3515 62.4644 80.6135 62.1545C79.8821 61.8973 78.6773 60.6756 78.4336 58.9855C78.1714 56.7653 79.1552 53.0121 81.1659 48.7086C80.5795 47.7508 80.1796 46.3823 80.5219 44.4337C80.5219 44.4337 81.0269 40.8152 84.6441 37.5538C84.6441 37.5538 85.0777 37.1776 85.3291 37.2935C85.606 37.4101 85.4778 38.5876 85.258 39.1601C85.0297 39.7294 83.4194 42.5303 83.4194 42.5303C83.4194 42.5303 82.4149 44.4225 82.6976 45.915C84.5947 42.9847 88.9071 37.0756 91.58 38.939C92.4779 39.5844 92.8918 40.9883 92.8918 42.5011C92.8923 43.8298 92.5734 45.2421 91.9834 46.3005ZM91.2034 41.6597C91.2034 41.6597 91.0546 40.4946 89.9209 41.7781C88.9458 42.8612 87.1871 44.8905 85.7713 47.6468C87.2568 47.4792 88.6896 46.6695 89.1229 46.257C89.8272 45.6292 91.4681 43.9257 91.2034 41.6597ZM112.752 41.3944H105.842C105.705 39.0351 105.421 36.7369 104.975 34.3699C104.93 34.125 104.717 33.9473 104.471 33.9473H102.878C102.739 33.9473 102.608 34.0099 102.518 34.1191C102.428 34.2301 102.393 34.3713 102.419 34.5096C102.872 36.8 103.158 39.0543 103.3 41.3967H96.6525C96.3428 41.3967 96.0912 41.6487 96.0912 41.9586V43.402C96.0912 43.7126 96.3428 43.9664 96.6525 43.9664H103.395C103.399 44.3226 103.403 44.6416 103.403 44.9409C103.403 47.0211 103.313 48.7346 103.105 50.6684C103.088 50.8179 103.137 50.9667 103.238 51.0763C103.335 51.1869 103.476 51.2499 103.623 51.2499H105.1C105.388 51.2499 105.627 51.032 105.656 50.7435C105.858 48.7966 105.944 47.0618 105.944 44.9407C105.944 44.6426 105.941 44.3225 105.937 43.9663H112.752C113.061 43.9663 113.313 43.7125 113.313 43.4019V41.9585C113.313 41.6472 113.061 41.3944 112.752 41.3944Z" fill="#101C50"/>
<path d="M20.3648 22.053C20.2669 22.1992 20.2432 22.3786 20.2994 22.5471C20.3581 22.7152 20.4857 22.8431 20.6506 22.9011L21.8891 23.3199C21.964 23.3434 22.0385 23.3558 22.1115 23.3558C22.341 23.3558 22.5565 23.2416 22.6841 23.0499C26.741 17.062 32.2317 12.0764 38.5635 8.63203C45.1003 5.07565 52.5064 3.19449 59.9834 3.19449C69.0146 3.19449 77.7284 5.871 85.1834 10.9341C92.4575 15.8728 98.1067 22.7631 101.521 30.8604C101.623 31.1027 101.858 31.259 102.119 31.259H103.598C103.769 31.259 103.929 31.1728 104.026 31.0296C104.122 30.8868 104.141 30.7055 104.076 30.5449C100.556 21.8386 94.6033 14.4168 86.8593 9.08475C78.9319 3.62594 69.6383 0.73999 59.9834 0.73999C44.0221 0.73999 29.2109 8.70773 20.3648 22.053Z" fill="url(#paint0_linear)"/>
<defs>
<linearGradient id="paint0_linear" x1="105.486" y1="20.5833" x2="22.0158" y2="9.35039" gradientUnits="userSpaceOnUse">
<stop stop-color="#101C50"/>
<stop offset="0.236" stop-color="#0D267A"/>
<stop offset="0.4973" stop-color="#085AA4"/>
<stop offset="0.6549" stop-color="#058BBF"/>
<stop offset="1" stop-color="#B1FFFF"/>
</linearGradient>
</defs>
</svg>
