<svg width="127" height="56" viewBox="0 0 127 56" fill="none" xmlns="http://www.w3.org/2000/svg">
<path d="M61.062 20.1593C62.547 19.7926 63.976 19.4094 65.4462 19.1871C66.4462 19.0344 67.4478 18.8851 68.4576 18.8021C69.7486 18.6891 71.0448 18.6481 72.3402 18.6794C74.1223 18.7358 75.9044 18.7673 77.6766 19.0112C79.3761 19.2468 81.0559 19.5487 82.6482 20.2207C83.4733 20.5691 84.2867 20.9589 84.9451 21.5993C85.0276 21.679 85.1431 21.8034 85.2388 21.7453C85.3741 21.6624 85.29 21.4898 85.2817 21.3571C85.2108 20.3169 85.1052 19.28 85.5028 18.2679C85.9616 17.0966 86.8526 16.511 88.0423 16.4263C88.8822 16.3683 89.6264 16.783 90.3045 17.2559C91.2137 17.883 91.9084 18.7242 92.5239 19.635C92.7335 19.9452 92.9513 20.2489 93.1575 20.5624C93.2697 20.7283 93.3885 20.7433 93.5717 20.6587C94.6508 20.1609 95.8125 19.9535 96.9675 19.7379C98.0186 19.5421 99.073 19.3579 100.134 19.2219C101.043 19.1058 101.949 18.9398 102.867 18.8785C103.573 18.832 104.276 18.7126 104.982 18.6877C105.846 18.6757 106.703 18.8405 107.502 19.1721C108.301 19.4742 109.045 19.907 109.704 20.4529C109.902 20.6188 110.034 20.6188 110.234 20.4529C111.418 19.5097 112.762 18.7917 114.203 18.3343C115.601 17.8891 117.085 17.7856 118.531 18.0323C121.724 18.5301 124.174 20.2157 125.87 22.9797C126.451 23.9287 126.723 24.9971 126.885 26.0938C127.055 27.2415 127.032 28.4098 126.816 29.5496C126.502 31.1332 125.856 32.6311 124.92 33.9429C122.671 37.1914 119.64 39.315 115.783 40.1578C115.069 40.3137 114.849 40.6339 114.674 41.2478C113.937 43.8227 113.16 46.3909 112.397 48.9526C112.11 49.9198 112 50.9235 111.772 51.9024C111.477 53.1732 111.071 54.391 110.049 55.2886C109.325 55.929 108.48 56.0965 107.574 55.9522C106.174 55.7562 104.89 55.0629 103.954 53.9978C103.89 53.9231 103.809 53.8646 103.718 53.8271C103.627 53.7897 103.529 53.7743 103.431 53.7821C102.518 53.7921 101.604 53.802 100.692 53.7821C96.9246 53.7042 93.1559 53.7257 89.3888 53.7124H87.0028C84.3626 53.7042 81.7143 53.7124 79.0725 53.6345C77.0594 53.5698 75.0496 53.6079 73.0382 53.583C71.0713 53.5565 69.1044 53.5217 67.1392 53.5432C65.9841 53.5565 64.8208 53.6096 63.6641 53.5664C61.3821 53.4818 59.1 53.5665 56.8196 53.5017C53.333 53.3923 49.8464 53.4719 46.3598 53.4354C45.1234 53.4381 43.9235 53.0141 42.9607 52.2342C41.9393 51.4146 41.37 50.3163 41.0433 49.072C40.9869 48.8206 40.9609 48.5632 40.9658 48.3055C40.9493 46.741 40.9212 45.1765 40.908 43.612C40.908 43.3581 40.837 43.2437 40.5681 43.2586C39.9279 43.2968 39.2827 43.3051 38.6457 43.3067C37.7382 43.3067 36.8307 43.2968 35.9165 43.2404C35.3126 43.2039 34.7103 43.1143 34.1015 43.0744C32.3868 42.9515 30.6843 42.6946 29.0093 42.3063C28.8899 42.2685 28.7616 42.2698 28.643 42.3101C28.5244 42.3503 28.4215 42.4274 28.3493 42.5303C27.9735 43.0017 27.5045 43.3897 26.972 43.6695C26.4394 43.9494 25.8549 44.1151 25.2554 44.1562C24.6434 44.215 24.0259 44.1442 23.4427 43.9485C22.8596 43.7527 22.3236 43.4363 21.8695 43.0197C20.9982 42.2482 20.5494 41.2345 20.32 40.1246C20.2309 39.7132 20.0973 39.388 19.6881 39.1889C17.9274 38.3203 16.2593 37.2736 14.7098 36.0648C12.8518 34.6264 11.0945 33.0785 9.71834 31.1473C9.01046 30.1519 8.46923 29.0752 8.32403 27.8458C8.21017 26.8885 8.48903 26.0125 8.9758 25.1913C9.69853 23.9503 10.8107 23.1357 12.0037 22.4223C13.4888 21.5313 15.1025 20.9175 16.7575 20.4114C17.8169 20.0796 18.8795 19.791 19.9636 19.572C20.221 19.5205 20.2936 19.3281 20.3151 19.0742C20.6072 15.9087 21.056 12.7697 22.0625 9.74192C22.0807 9.68552 22.1021 9.63243 22.1236 9.57602C22.3694 8.92732 22.3694 8.90243 21.683 8.72989C20.4521 8.41964 19.2079 8.19235 17.9538 7.98662C16.5496 7.75435 15.1339 7.68799 13.7214 7.5619C12.3089 7.43581 10.9163 7.53535 9.51538 7.49885C9.11606 7.4889 8.9758 7.76265 8.8669 8.07621C8.73295 8.47236 8.51433 8.8342 8.22641 9.1363C7.93849 9.4384 7.58825 9.67343 7.20033 9.82488C6.86918 9.97197 6.51125 10.0482 6.14923 10.0489C5.34564 10.0339 4.53546 10.1401 3.73517 9.97751C1.96465 9.62247 0.87065 8.2305 1.01091 6.43704C1.10833 5.2301 1.6077 4.09146 2.42832 3.20516C3.58337 1.92269 5.07833 1.21427 6.7185 0.801157C7.95034 0.508995 9.20252 0.311548 10.4642 0.210526C13.0069 -0.0366769 15.553 -0.0250634 18.0958 0.0396406C19.4308 0.0901671 20.7596 0.249407 22.0691 0.515796C24.3098 0.936612 26.5224 1.4968 28.6942 2.19312C33.798 3.83741 38.6313 6.23315 43.0366 9.30227C44.875 10.5571 46.6114 11.9568 48.2294 13.4881C48.5247 13.7735 48.8234 14.0539 49.1221 14.3359C49.1996 14.4089 49.2871 14.4786 49.4009 14.4288C49.5148 14.379 49.4735 14.2911 49.4752 14.2115C49.495 13.0385 49.9157 12.0016 50.4949 11.0061C50.9437 10.2347 51.5592 9.61086 52.145 8.95884C52.222 8.89737 52.2747 8.81039 52.2937 8.71343C52.3128 8.61647 52.2969 8.51587 52.2489 8.42959C50.9536 5.75848 52.3364 2.91648 54.7505 1.79329C55.6316 1.38515 56.5655 1.12965 57.5275 1.22422C59.864 1.45152 62.0042 3.01934 62.4678 5.40012C62.5454 5.7983 62.6576 5.82982 62.9942 5.61082C64.1092 4.85949 65.4595 4.54544 66.7894 4.72819C69.0995 5.02683 71.3518 6.9779 71.8072 9.55777C72.0387 10.8037 71.8132 12.0917 71.1724 13.1832C70.5316 14.2747 69.519 15.0957 68.3223 15.4939C67.6969 15.7227 67.031 15.8182 66.367 15.7743C66.2445 15.7628 66.1211 15.7843 66.0097 15.8369C65.8983 15.8894 65.8029 15.9709 65.7333 16.073C64.7433 17.3206 63.5437 18.3442 62.2682 19.275C61.8639 19.567 61.4662 19.864 61.062 20.1593ZM26.9467 29.9711C26.9088 28.5227 26.8741 27.076 26.8329 25.6292C26.8246 25.3655 26.9154 25.2394 27.1959 25.2443C29.0786 25.2808 30.963 25.3074 32.8226 25.6624C34.2995 25.9428 35.7664 26.263 37.1541 26.8686C37.5053 27.0021 37.8262 27.2052 38.0979 27.4658C38.1681 27.5284 38.2148 27.6132 38.2304 27.7061C38.246 27.7991 38.2296 27.8946 38.1837 27.9768C38.0279 28.2803 37.8201 28.5538 37.5699 28.7848C37.3068 29.0179 37.0803 29.2897 36.8983 29.5911C36.702 29.976 36.8109 30.2166 37.2283 30.3228C37.444 30.3829 37.6651 30.4212 37.8884 30.4373C38.7349 30.4837 39.6061 30.643 40.3041 29.9395C40.4691 29.7819 40.6341 29.6442 40.7991 29.4866C42.1588 28.1295 42.2528 26.3974 41.0565 24.886C40.7056 24.4443 40.292 24.0569 39.8289 23.7362C38.5484 22.847 37.1046 22.3526 35.6113 21.9959C33.115 21.4183 30.561 21.1316 27.9995 21.1414C27.719 21.1414 27.4368 21.1414 27.1563 21.1414C26.9236 21.1298 26.7768 21.0419 26.7669 20.7565C26.7454 20.1112 26.7025 19.4641 26.6448 18.8204C26.521 17.4931 26.3725 16.1526 25.9534 14.8718C25.762 14.2895 25.5244 13.7237 25.0162 13.3322C24.5855 13.0004 24.2786 13.0335 23.9222 13.445C23.704 13.7057 23.5361 14.005 23.4271 14.3276C23.1998 14.995 23.0341 15.682 22.9321 16.3799C22.6853 17.8763 22.5403 19.3879 22.4981 20.9042C22.4833 21.4517 22.4354 21.4998 21.9206 21.5894C19.198 22.0573 16.5381 22.7507 14.0514 23.9917C12.9294 24.5542 11.8568 25.2029 11.0813 26.2414C10.8233 26.5643 10.6633 26.955 10.6203 27.3669C10.5773 27.7788 10.6531 28.1944 10.8387 28.5642C11.169 29.2915 11.5947 29.9711 12.1043 30.5849C13.4627 32.2209 15.0358 33.6637 16.7806 34.8736C18.3543 35.9951 20.0353 36.956 21.7985 37.7422C22.1533 37.8998 22.3661 38.0906 22.381 38.517C22.4047 38.9743 22.4665 39.4288 22.5658 39.8757C22.7787 40.9143 23.4024 41.7289 24.4419 41.8948C25.7702 42.1039 26.724 41.5 27.0375 40.1893C27.0586 40.0861 27.0856 39.9842 27.1183 39.884C27.1843 39.7032 27.2834 39.6418 27.4979 39.7065C28.8016 40.0758 30.1378 40.3175 31.4877 40.4282C33.6781 40.6539 35.8864 40.6372 38.0732 40.3784C40.7027 40.0832 43.2666 39.3581 45.6635 38.2316C48.1386 37.052 50.2606 35.4228 51.8232 33.1349C53.3693 30.8719 53.9848 28.3651 53.5377 25.6392C53.2076 23.6483 52.2918 21.9079 51.1813 20.2605C49.5478 17.8316 47.5314 15.7611 45.3104 13.8863C42.6219 11.6256 39.7006 9.66057 36.5964 8.02478C32.8167 5.99383 28.7958 4.45404 24.63 3.44241C21.7441 2.75389 18.8201 2.32253 15.85 2.32253C13.2099 2.32253 10.5896 2.45692 7.99236 2.92478C7.03037 3.09068 6.05683 3.2765 5.22189 3.84225C4.2995 4.47933 3.52397 5.23587 3.30946 6.41382C3.189 7.07745 3.42166 7.51212 4.08994 7.72283C4.81762 7.95344 5.57501 7.88873 6.30929 7.78421C6.42664 7.77141 6.53719 7.72246 6.6258 7.64406C6.71442 7.56565 6.77676 7.46162 6.80431 7.34622C6.85381 7.12058 6.6261 7.0144 6.47429 6.89495C6.23243 6.75189 6.00718 6.58217 5.80272 6.38893C5.7767 6.36948 5.75574 6.34401 5.74162 6.31467C5.7275 6.28534 5.72063 6.253 5.72161 6.22043C5.72258 6.18785 5.73136 6.15599 5.7472 6.12756C5.76305 6.09912 5.78549 6.07496 5.81262 6.05711C6.03526 5.84609 6.31797 5.71035 6.62115 5.66889C7.74616 5.44947 8.88656 5.31911 10.0318 5.27901C12.429 5.17031 14.8309 5.28138 17.208 5.61082C19.3253 5.88663 21.4206 6.31241 23.4783 6.88499C27.7258 8.04099 31.8145 9.72172 35.6509 11.8888C38.9246 13.7519 41.9624 15.9303 44.5431 18.7026C46.142 20.4214 47.5 22.3061 48.2426 24.5724C48.9438 26.7159 48.9026 28.8263 47.8598 30.857C47.0694 32.3867 45.8368 33.4949 44.3649 34.3278C41.5911 35.8973 38.5632 36.5559 35.4347 36.8313C33.2997 37.0173 31.1509 36.9706 29.0258 36.692C28.5308 36.6273 28.0358 36.5559 27.5408 36.4647C27.323 36.4249 27.1068 36.3519 27.1216 36.0433C27.1396 35.3724 27.1186 34.701 27.0589 34.0325C26.9715 32.6836 26.9962 31.3232 26.9467 29.9711ZM124.784 27.7993C124.796 27.3519 124.767 26.9044 124.699 26.4621C124.501 25.0237 124.002 23.723 122.847 22.7823C122.187 22.2481 121.445 21.8748 120.552 22.1585C119.858 22.4042 119.207 22.7611 118.626 23.2153C116.419 24.8395 114.607 26.8653 112.833 28.9374C112.338 29.5065 111.884 30.0988 111.404 30.6762C111.175 30.9482 111.137 30.935 111.006 30.5982C110.833 30.1327 110.843 29.6185 111.033 29.1598C111.64 27.4725 112.557 25.9428 113.402 24.3766C113.732 23.8235 114.026 23.2493 114.282 22.6578C114.562 21.9328 114.435 21.1365 113.99 20.7184C113.813 20.5525 113.66 20.5276 113.47 20.6952C113.28 20.8627 113.054 21.0402 112.871 21.236C111.066 23.1423 109.6 25.2775 108.655 27.7429C107.785 30.0059 107.632 32.2821 108.688 34.5451C108.77 34.7275 108.777 34.9349 108.708 35.1225C108.259 36.5675 107.802 38.0109 107.388 39.4676C106.583 42.3013 105.85 45.1483 105.652 48.1114C105.586 48.8386 105.688 49.5712 105.95 50.2521C106.212 50.933 106.628 51.5438 107.163 52.0368C107.595 52.4897 108.164 52.7866 108.78 52.8812C108.895 52.9074 109.016 52.8905 109.12 52.8337C109.223 52.7769 109.303 52.6841 109.343 52.5727C109.462 52.2792 109.547 51.9731 109.597 51.6602C109.846 50.4772 109.99 49.2728 110.361 48.1147C111.383 44.9193 112.358 41.7107 113.166 38.4556C113.234 38.1802 113.387 38.1038 113.646 38.1238C114.535 38.1692 115.425 38.0569 116.275 37.7919C119.047 36.9624 121.225 35.2818 122.92 32.9806C124.05 31.4393 124.808 29.7554 124.784 27.7993ZM71.8436 20.9971C70.37 20.9919 68.8979 21.0901 67.4379 21.2908C66.027 21.5081 64.6327 21.7968 63.3325 22.4106C62.1989 22.9449 61.1874 23.635 60.6759 24.8445C60.2765 25.7968 60.1412 26.7856 60.7369 27.7147C61.2154 28.458 62.0009 28.7267 62.8144 28.9026C63.9991 29.1581 65.2086 29.1432 66.4115 29.1697C68.5352 29.2162 70.6357 29.4219 72.6818 30.0441C73.3946 30.2614 74.119 30.4771 74.6998 30.9831C75.0612 31.2967 75.0826 31.4659 74.8203 31.8624C74.4806 32.3321 74.0009 32.6808 73.4507 32.8578C70.7811 33.8566 67.941 34.3129 65.0948 34.2C64.5436 34.1801 63.976 34.0955 63.4942 33.762C62.8936 33.3473 62.8243 32.8313 63.2863 32.2689C63.7483 31.7064 64.3225 31.5588 64.9875 31.6899C65.966 31.8823 66.8636 32.3253 67.7926 32.6704C69.017 33.1283 70.2413 33.2676 71.4954 32.8578C71.9409 32.7118 72.3699 32.526 72.6851 32.1461C73.0003 31.7662 72.992 31.5157 72.6339 31.1755C72.3108 30.885 71.9267 30.6712 71.5102 30.5501C70.0136 30.0523 68.4626 29.835 66.9016 29.694C65.8967 29.6027 64.8934 29.6027 63.91 29.8964C62.3127 30.3725 61.3986 31.5206 61.4349 33.0669C61.4497 33.8533 61.859 34.4738 62.3639 35.0246C63.7367 36.5178 65.5205 37.1963 67.461 37.5132C68.9188 37.7481 70.4028 37.7694 71.8667 37.5763C73.7312 37.339 75.4176 36.7301 76.7146 35.2536C78.5956 33.1117 78.3168 29.2328 75.081 27.9238C73.6421 27.3414 72.1257 27.1523 70.6043 27.0063C69.0104 26.8536 67.4082 26.7724 65.8191 26.5666C65.3993 26.5347 64.9872 26.4361 64.5981 26.2746C64.1443 26.0573 64.1311 25.84 64.5337 25.5463C64.9067 25.3003 65.3305 25.1432 65.7729 25.0867C67.8504 24.7068 69.9608 24.6819 72.0581 24.5177C73.4672 24.4082 74.8764 24.3003 76.2525 23.9453C76.8416 23.7927 77.4241 23.6135 77.802 23.0676C77.899 22.9307 77.9488 22.7656 77.9438 22.5975C77.9387 22.4294 77.879 22.2677 77.7739 22.1369C77.401 21.6657 76.8746 21.4733 76.3251 21.3505C74.8962 21.0502 73.4573 21.0154 71.8436 21.0004V20.9971ZM78.5329 33.5779C78.5141 34.197 78.5499 34.8167 78.6402 35.4294C78.7441 36.0748 78.9125 36.7052 79.4652 37.1267C80.1253 37.6244 81.0724 37.7471 81.5757 36.7948C81.7309 36.5057 81.8475 36.1972 81.9222 35.8774C82.1383 34.8261 82.2565 33.7569 82.2753 32.6836C82.3166 31.4377 82.3364 30.195 82.4634 28.9491C82.4898 28.7052 82.4964 28.3866 82.7522 28.3203C83.0079 28.2539 83.1614 28.5459 83.3033 28.7367C83.9138 29.5563 84.4452 30.4273 84.9897 31.2884C85.7995 32.6195 86.6975 33.8943 87.6776 35.1042C87.9251 35.4012 88.2057 35.6716 88.4779 35.9454C89.6165 37.0902 90.8243 36.7749 91.7583 35.8624C92.9975 34.6629 93.5337 33.1133 93.7086 31.4443C93.8539 30.0656 93.6773 28.6952 93.3621 27.3481C92.7698 24.8196 91.8226 22.4455 90.2666 20.3467C89.831 19.7594 89.3376 19.2269 88.6644 18.9017C88.0951 18.6279 87.737 18.6777 87.5539 19.5073C87.4483 19.9884 87.5654 20.4679 87.6661 20.939C88.077 22.8387 88.7205 24.6736 89.2337 26.5467C89.5364 27.5439 89.7604 28.5635 89.9036 29.5961C89.9696 30.1801 90.0092 30.7707 89.7534 31.3298C89.6198 31.6235 89.5208 31.6451 89.3063 31.4128C89.1491 31.2389 89.002 31.0561 88.8657 30.8653C87.6281 29.1963 86.5556 27.4111 85.3164 25.7454C84.5722 24.7499 83.8478 23.7329 82.9007 22.9167C81.876 22.0324 81.2506 22.1518 80.5906 23.3364C80.0065 24.3932 79.7061 25.5496 79.4355 26.7209C78.9302 28.9757 78.6281 31.2718 78.5329 33.5812V33.5779ZM99.5087 33.8566C98.6836 33.918 98.5351 33.8284 98.578 33.3589C98.6356 32.5016 98.8598 31.664 99.238 30.8935C99.2916 30.7743 99.3758 30.6717 99.4819 30.5962C99.5881 30.5206 99.7124 30.4749 99.842 30.4638C100.215 30.4306 100.589 30.4008 100.962 30.3925C102.203 30.3626 103.437 30.3477 104.683 30.3178C105.375 30.3012 105.856 29.7604 105.868 29.0088C105.88 28.2572 105.432 27.7562 104.725 27.7197C104.432 27.7048 104.139 27.7296 103.847 27.7081C102.949 27.64 102.045 27.66 101.155 27.5023C100.89 27.4559 100.67 27.3265 100.677 27.0328C100.673 26.5258 100.779 26.0241 100.989 25.5629C101.044 25.4515 101.127 25.3566 101.23 25.2876C101.333 25.2187 101.453 25.178 101.576 25.1697C102.071 25.1033 102.566 25.0535 103.076 25.0187C104.512 24.9208 105.947 24.8379 107.383 24.735C107.681 24.717 107.971 24.625 108.226 24.4673C108.481 24.3095 108.693 24.0909 108.843 23.8308C108.898 23.7562 108.93 23.6668 108.934 23.5741C108.938 23.4814 108.915 23.3894 108.868 23.3099C108.233 22.0141 106.434 20.949 104.97 21.0419C104.025 21.1016 103.084 21.2078 102.141 21.2791C100.58 21.3986 99.0054 21.4766 97.4642 21.7171C96.7415 21.83 96.0006 21.9162 95.3686 22.341C94.9165 22.6429 94.8637 23.0892 95.2201 23.5023C95.4519 23.7849 95.7367 24.0188 96.0584 24.1908C96.4115 24.3717 96.7679 24.5492 97.1259 24.7201C97.5913 24.9424 97.6771 25.0784 97.5698 25.5695C97.4807 25.971 97.3537 26.3626 97.2481 26.7591C97.203 26.9301 97.1189 27.0882 97.0023 27.2207C96.8856 27.3532 96.7398 27.4565 96.5765 27.5223C96.2278 27.6595 95.9 27.8455 95.6029 28.0747C95.131 28.4862 94.8208 28.891 95.2465 29.5248C95.3309 29.6595 95.3811 29.813 95.3929 29.9717C95.4047 30.1305 95.3777 30.2897 95.3142 30.4356C95.1046 31.0312 94.9182 31.6368 94.7169 32.2357C94.3324 33.3838 94.0387 34.5269 94.4908 35.738C94.9149 36.8695 95.4808 37.8616 96.6194 38.4124C97.4444 38.8123 98.314 38.7177 99.1671 38.6148C101.207 38.366 103.07 37.5962 104.817 36.531C105.423 36.1763 105.978 35.7398 106.467 35.2336C106.688 34.9964 106.878 34.7475 106.693 34.3892C106.554 34.098 106.359 33.8377 106.118 33.6237C105.877 33.4097 105.597 33.2463 105.292 33.1432C104.703 32.9408 104.137 33.0984 103.561 33.1847C102.136 33.412 100.71 33.7272 99.5087 33.8566ZM57.1612 3.26821C56.0062 3.26821 55.224 3.60002 54.4567 4.44283C53.772 5.19771 53.5987 6.10191 53.8215 7.07081C54.0228 7.94017 54.6234 8.53412 55.3725 8.98373C55.4633 9.03848 55.6233 9.06004 55.6052 9.20604C55.587 9.35204 55.4402 9.36034 55.3428 9.41675C54.046 10.1143 52.9718 11.1662 52.244 12.4512C51.381 14.0074 51.6747 15.7295 52.9981 16.8876C54.4831 18.1833 56.2619 18.4255 58.1017 18.185C59.9416 17.9444 61.4596 16.9473 62.8474 15.7611C63.5644 15.1533 64.1694 14.4232 64.6344 13.6043C64.74 13.4168 64.8654 13.2724 65.1113 13.4085C65.4406 13.559 65.7946 13.6473 66.1558 13.669C68.5055 13.956 70.2512 12.0381 69.7529 9.70708C69.3387 7.77592 67.1458 6.35077 65.2515 6.85015C63.9711 7.18197 63.1064 7.99823 62.882 9.3819C62.8672 9.47149 62.8474 9.60256 62.7863 9.63574C62.684 9.69049 62.5949 9.57768 62.5239 9.50634C61.8938 8.88557 61.0858 8.47935 60.2138 8.34498C59.8838 8.28194 59.8838 8.23216 60.0686 7.9468C60.5521 7.22345 60.7765 6.45363 60.5125 5.57764C60.2859 4.87466 59.8342 4.26688 59.228 3.8491C58.6218 3.43133 57.895 3.22708 57.1612 3.26821ZM59.3657 33.3771C59.3921 31.4095 59.3063 29.7172 59.2254 28.025C59.1446 26.2995 59.0225 24.5774 58.6595 22.8818C58.5242 22.248 58.3377 21.6259 57.8196 21.173C57.737 21.0946 57.6396 21.0339 57.533 20.9946C57.4265 20.9552 57.3131 20.9379 57.1998 20.9438C57.0864 20.9497 56.9754 20.9786 56.8735 21.0288C56.7716 21.0791 56.6809 21.1495 56.6068 21.236C56.1695 21.7022 56.0078 22.2928 55.8791 22.8951C55.6332 24.079 55.4809 25.2806 55.4237 26.4887C55.2851 29.0503 55.1465 31.6102 55.3197 34.1752C55.3742 34.9931 55.4616 35.8093 55.8461 36.5642C56.2801 37.417 56.9781 37.6211 58.0242 37.5099C58.803 37.4286 59.1264 37.0254 59.2849 36.0715C59.2849 36.0134 59.2848 35.9537 59.3013 35.8956C59.4367 34.9649 59.3393 34.0325 59.3657 33.3771ZM76.8878 45.7439C76.8878 44.5073 76.8878 43.2713 76.8878 42.0359C76.8955 41.7891 76.89 41.5421 76.8713 41.2959C76.8328 41.0386 76.7034 40.8038 76.5067 40.6347C76.31 40.4656 76.0592 40.3734 75.8004 40.3751C75.5492 40.3917 75.3124 40.4991 75.1338 40.6775C74.9551 40.8559 74.8467 41.0932 74.8285 41.3457C74.8186 41.4851 74.8087 41.6277 74.8087 41.7671C74.8087 42.6519 74.8164 43.5368 74.8318 44.4216C74.8318 44.9011 74.7559 45.0122 74.2824 45.1118C73.52 45.2744 72.7566 45.4342 71.9921 45.5913C71.7297 45.6444 71.5828 45.5913 71.5911 45.2594C71.6109 44.342 71.6043 43.4245 71.5911 42.507C71.5911 41.9446 71.1819 41.5746 70.5878 41.5498C70.3404 41.5329 70.096 41.6129 69.906 41.7731C69.7159 41.9333 69.5948 42.1612 69.5681 42.4092C69.5502 42.5611 69.5431 42.7141 69.5467 42.8671C69.5467 44.5726 69.5521 46.2781 69.5631 47.9837C69.5631 48.5594 69.5318 49.1367 69.5631 49.7124C69.5846 50.1886 69.913 50.4723 70.3222 50.6349C70.7314 50.7975 71.0185 50.6033 71.2891 50.3246C71.3927 50.2207 71.4739 50.0966 71.5278 49.9599C71.5817 49.8233 71.6072 49.6769 71.6026 49.5299C71.6026 48.8829 71.6026 48.2342 71.5845 47.5871C71.5845 47.3117 71.6868 47.2022 71.9574 47.1458C72.723 46.9899 73.4837 46.814 74.2428 46.6182C74.7378 46.4938 74.8582 46.5784 74.8384 47.0994C74.7988 48.1092 74.7988 49.1201 74.8384 50.1322C74.8426 50.3415 74.9169 50.5433 75.0492 50.705C75.1816 50.8666 75.3642 50.9787 75.5678 51.0231C76.1882 51.1608 76.9109 50.8406 76.8994 49.9148C76.8746 48.5212 76.8878 47.1325 76.8878 45.7439ZM46.3219 45.6244C46.3219 46.8372 46.3219 48.05 46.3219 49.2611C46.3219 49.8352 46.741 50.2052 47.3235 50.1919C47.934 50.1786 48.3366 49.7954 48.3383 49.2213C48.3399 48.6473 48.3383 48.1147 48.3383 47.5622C48.3383 47.4528 48.2673 47.2985 48.3861 47.242C48.5049 47.1856 48.594 47.315 48.6864 47.3797C49.8118 48.1794 50.9338 48.9841 52.0592 49.7821C52.3241 49.9941 52.621 50.1621 52.9387 50.2798C53.4205 50.4291 53.8908 50.1869 54.2109 49.6494C54.4749 49.2081 54.0624 49.0554 53.871 48.8099C53.802 48.7333 53.7232 48.6664 53.6367 48.6108C52.3166 47.6153 50.9371 46.7261 49.5593 45.8252C49.2739 45.6377 49.3415 45.5432 49.5593 45.3955C50.4438 44.8049 51.3315 44.2192 52.2077 43.6136C52.7997 43.2374 53.3525 42.8022 53.8578 42.3146C54.1317 42.0292 54.1086 41.8617 53.8083 41.6128C53.2687 41.1665 52.6235 41.14 52.0014 41.568C50.886 42.3378 49.7788 43.1209 48.665 43.8907C48.5858 43.9455 48.5 44.0566 48.3911 43.9886C48.2822 43.9206 48.335 43.8227 48.335 43.7265C48.335 43.1137 48.335 42.5015 48.335 41.8899C48.3481 41.7004 48.2892 41.513 48.17 41.3656C48.0238 41.1895 47.8291 41.0609 47.6103 40.9959C47.3915 40.931 47.1585 40.9326 46.9407 41.0006C46.5215 41.1433 46.3169 41.4436 46.3136 41.996C46.3153 43.2005 46.3219 44.4133 46.3219 45.6244ZM100.2 50.2533C100.984 50.2533 101.236 49.8966 100.956 49.2064C100.791 48.785 100.58 48.3769 100.386 47.9621C99.4713 45.9944 98.5544 44.0273 97.6358 42.0607C97.474 41.6544 97.178 41.3163 96.7976 41.1035C96.1112 40.7567 95.6772 40.8861 95.3488 41.6012C94.6778 43.0468 94.0178 44.4968 93.3687 45.9513C92.9331 46.9235 92.4414 47.8692 92.085 48.8746C92.0355 49.0156 91.9563 49.1682 92.0256 49.3176C92.1033 49.4957 92.2227 49.6524 92.3735 49.7742C92.5243 49.8961 92.7021 49.9796 92.8919 50.0177C93.0574 50.0595 93.2314 50.0532 93.3936 49.9994C93.5557 49.9457 93.6993 49.8467 93.8077 49.7141C94.07 49.4171 94.1938 49.0504 94.3489 48.6937C95.0089 47.1707 95.6689 45.646 96.3471 44.123C96.3851 44.0384 96.4082 43.9023 96.5418 43.9023C96.6755 43.9023 96.6804 44.0185 96.7151 44.0998C96.9725 44.6887 97.2101 45.2827 97.4791 45.87C98.0087 47.0662 98.5467 48.2607 99.0813 49.4569C99.3057 49.9497 99.6308 50.2981 100.2 50.2533ZM84.4484 41.0686C84.0574 41.0686 83.7274 41.3689 83.5508 41.8783C83.0129 43.4278 82.47 44.9741 81.937 46.5237C81.6582 47.3316 81.343 48.128 81.112 48.9526C81.0603 49.0832 81.0471 49.2261 81.074 49.3641C81.1009 49.5021 81.1668 49.6294 81.2638 49.7307C81.7588 50.2533 82.3545 50.1786 82.6862 49.5382C82.8425 49.197 82.9658 48.8414 83.0541 48.4764C83.0851 48.3277 83.1613 48.1924 83.2722 48.0893C83.383 47.9861 83.5231 47.9202 83.6729 47.9007C84.663 47.7016 85.653 47.4776 86.643 47.2138C86.9599 47.1292 87.1496 47.1724 87.3163 47.4312C87.4054 47.5705 87.5027 47.7016 87.5902 47.841C87.8789 48.3088 88.1496 48.7883 88.4548 49.2462C88.5952 49.4814 88.8191 49.6541 89.0813 49.7296C89.3435 49.8051 89.6245 49.7776 89.8673 49.6527C90.288 49.4685 90.387 49.1915 90.1709 48.7817C90.094 48.6238 90.0074 48.4709 89.9118 48.3238C89.0318 47.023 88.1474 45.7245 87.2585 44.4283C86.6051 43.4726 85.9484 42.5175 85.2883 41.563C85.2 41.4172 85.077 41.2957 84.9304 41.2094C84.7838 41.1231 84.6182 41.0747 84.4484 41.0686ZM56.8394 49.1815C56.8609 49.3706 56.8097 49.5133 56.9137 49.6162C57.1414 49.8551 57.3774 50.1139 57.7387 50.0741C57.9154 50.056 58.0829 49.9863 58.2207 49.8737C58.3585 49.7611 58.4605 49.6105 58.5143 49.4403C58.6199 49.1433 58.7205 48.8414 58.8014 48.5361C58.8276 48.3674 58.9072 48.2116 59.0285 48.092C59.1498 47.9725 59.3063 47.8955 59.4746 47.8725C60.4383 47.6867 61.4019 47.4909 62.3441 47.2221C62.7649 47.101 62.981 47.1956 63.1691 47.544C63.212 47.627 63.2648 47.7099 63.3143 47.7846C63.6245 48.2823 63.9183 48.7916 64.2516 49.2777C64.5849 49.7638 65.108 49.885 65.6475 49.6477C66.027 49.4818 66.1426 49.2081 65.9676 48.8281C65.8835 48.6468 65.7842 48.4731 65.6706 48.3088C64.2747 46.2549 62.8754 44.2026 61.4728 42.152C61.2418 41.8202 61.0471 41.4486 60.6924 41.213C60.5436 41.0989 60.3581 41.0443 60.1716 41.0597C59.9852 41.075 59.8109 41.1591 59.6825 41.2959C59.4716 41.5171 59.322 41.7899 59.2486 42.0873C58.6182 43.8907 57.9796 45.6908 57.3658 47.4992C57.1662 48.0732 56.8889 48.6257 56.8394 49.1815Z" fill="#1B69CC"/>
<path d="M26.9472 29.9713C26.9967 31.3234 26.9719 32.6789 27.0561 34.031C27.1157 34.6995 27.1367 35.3709 27.1188 36.0418C27.1039 36.3504 27.3201 36.4234 27.5379 36.4632C28.0329 36.5545 28.5279 36.6292 29.023 36.6905C31.148 36.9691 33.2968 37.0158 35.4318 36.8299C38.567 36.5562 41.5916 35.8975 44.3604 34.328C45.8322 33.4985 47.0648 32.3869 47.8552 30.8572C48.903 28.8265 48.9393 26.7095 48.238 24.5726C47.4955 22.3063 46.1375 20.4249 44.5386 18.7028C41.9612 15.9272 38.9234 13.7521 35.6513 11.889C31.8158 9.72335 27.7282 8.04374 23.482 6.88853C21.4244 6.31595 19.3291 5.89017 17.2117 5.61436C14.8347 5.28492 12.4327 5.17385 10.0356 5.28255C8.88915 5.32302 7.74764 5.45394 6.62159 5.67409C6.3184 5.71555 6.0357 5.85129 5.81305 6.06231C5.78592 6.08016 5.76348 6.10432 5.74764 6.13275C5.73179 6.16119 5.72301 6.19305 5.72204 6.22563C5.72107 6.2582 5.72794 6.29053 5.74206 6.31987C5.75618 6.34921 5.77714 6.37468 5.80315 6.39413C6.00761 6.58737 6.23286 6.75709 6.47473 6.90015C6.63974 7.01296 6.8592 7.12578 6.80474 7.35142C6.7772 7.46682 6.71485 7.57085 6.62624 7.64926C6.53762 7.72766 6.42707 7.77661 6.30972 7.78941C5.56719 7.89725 4.82466 7.95532 4.09038 7.72803C3.4221 7.51732 3.18944 7.0843 3.30989 6.41901C3.5244 5.24107 4.29994 4.47955 5.22563 3.84745C6.06056 3.2817 7.0407 3.10252 7.9961 2.92998C10.5933 2.45714 13.2186 2.32275 15.8504 2.32275C18.8206 2.32275 21.7412 2.75411 24.6272 3.44263C28.7929 4.45426 32.8139 5.99405 36.5935 8.025C39.6989 9.66058 42.6213 11.6256 45.3108 13.8865C47.5318 15.7613 49.5482 17.8318 51.1834 20.2524C52.2939 21.8999 53.2147 23.6436 53.5397 25.6311C53.9869 28.357 53.3747 30.8639 51.8253 33.1268C50.2627 35.4147 48.1423 37.0439 45.6656 38.2235C43.2686 39.35 40.7048 40.0751 38.0753 40.3704C35.8885 40.6291 33.6802 40.6458 31.4898 40.4201C30.1398 40.3094 28.8037 40.0677 27.4999 39.6984C27.2904 39.6337 27.1864 39.6984 27.1204 39.876C27.0877 39.9761 27.0607 40.078 27.0396 40.1812C26.7261 41.4919 25.7723 42.0958 24.444 41.8868C23.4045 41.7209 22.7807 40.9062 22.5679 39.8677C22.4686 39.4207 22.4068 38.9662 22.3831 38.5089C22.3682 38.0825 22.1554 37.8917 21.8006 37.7341C20.0373 36.9479 18.3564 35.987 16.7827 34.8656C15.0391 33.6554 13.467 32.2126 12.1097 30.5768C11.6001 29.9631 11.1744 29.2834 10.8441 28.5561C10.6585 28.1864 10.5826 27.7707 10.6257 27.3589C10.6687 26.947 10.8287 26.5562 11.0867 26.2334C11.8573 25.1948 12.9298 24.5461 14.0568 23.9837C16.5435 22.7394 19.2034 22.0492 21.926 21.5813C22.4408 21.4917 22.4887 21.4436 22.5035 20.8961C22.5414 19.3807 22.682 17.8697 22.9243 16.3735C23.0263 15.6756 23.192 14.9886 23.4193 14.3212C23.5283 13.9986 23.6962 13.6993 23.9143 13.4386C24.2708 13.0271 24.5744 12.9956 25.0083 13.3258C25.5166 13.7173 25.7542 14.283 25.9456 14.8654C26.3647 16.1462 26.5132 17.4784 26.637 18.814C26.6947 19.4577 26.7376 20.1047 26.7591 20.7501C26.769 21.0355 26.9241 21.1234 27.1485 21.135C27.429 21.1483 27.7112 21.135 27.9917 21.135C30.5531 21.1252 33.1072 21.4119 35.6034 21.9895C37.0968 22.3462 38.5406 22.8406 39.821 23.7298C40.2841 24.0504 40.6978 24.4378 41.0487 24.8796C42.245 26.391 42.1509 28.1231 40.7913 29.4802C40.6263 29.6378 40.4613 29.7755 40.2962 29.9331C39.5983 30.6332 38.727 30.474 37.8805 30.4308C37.6573 30.4148 37.4362 30.3765 37.2205 30.3164C36.8063 30.2102 36.6974 29.9696 36.8905 29.5847C37.0725 29.2833 37.2989 29.0115 37.5621 28.7784C37.8123 28.5474 38.0201 28.2739 38.1759 27.9704C38.2217 27.8882 38.2382 27.7927 38.2226 27.6997C38.207 27.6068 38.1602 27.522 38.0901 27.4594C37.8184 27.1988 37.4975 26.9957 37.1463 26.8622C35.7585 26.2566 34.2916 25.9364 32.8148 25.656C30.9552 25.301 29.0708 25.2744 27.1881 25.2379C26.9076 25.2379 26.8168 25.359 26.8251 25.6228C26.8746 27.0762 26.9059 28.5229 26.9472 29.9713ZM22.2841 30.3031H22.3567V25.9231C22.3567 25.4652 22.3253 25.4171 21.8814 25.4503C20.3073 25.5714 18.7298 25.6477 17.1672 25.8866C15.8471 26.089 14.5271 26.3047 13.2813 26.7908C12.7962 26.98 12.3424 27.2122 12.0256 27.6502C11.7533 28.0252 11.7418 28.2243 11.981 28.6141C12.1736 28.9234 12.4 29.21 12.6559 29.4686C13.9001 30.7527 15.3835 31.71 16.9131 32.5976C18.5252 33.5317 20.2314 34.2567 21.9425 34.9817C22.2313 35.1028 22.2874 34.9817 22.2874 34.7179C22.2857 33.2446 22.2857 31.773 22.2857 30.3014L22.2841 30.3031Z" fill="#FCFDFD"/>
<path d="M124.785 27.7993C124.808 29.7553 124.051 31.4393 122.927 32.9673C121.226 35.2751 119.054 36.9591 116.282 37.7786C115.432 38.0436 114.542 38.1559 113.653 38.1105C113.394 38.0955 113.241 38.1718 113.173 38.4423C112.358 41.6974 111.383 44.9127 110.368 48.1014C109.997 49.2628 109.853 50.4639 109.604 51.6469C109.554 51.9598 109.469 52.2659 109.35 52.5594C109.31 52.6708 109.23 52.7636 109.127 52.8204C109.023 52.8772 108.902 52.8941 108.787 52.868C108.171 52.7733 107.602 52.4764 107.17 52.0235C106.636 51.5327 106.22 50.9247 105.957 50.2465C105.694 49.5683 105.59 48.8383 105.652 48.113C105.85 45.1499 106.583 42.3063 107.388 39.4692C107.802 38.0126 108.259 36.5692 108.708 35.1241C108.777 34.9365 108.77 34.7291 108.688 34.5468C107.632 32.2838 107.786 30.0075 108.655 27.7445C109.601 25.2775 111.06 23.1423 112.875 21.236C113.058 21.0402 113.274 20.876 113.474 20.6951C113.673 20.5143 113.817 20.5524 113.993 20.7183C114.439 21.1364 114.566 21.9328 114.285 22.6578C114.03 23.2493 113.736 23.8235 113.406 24.3766C112.561 25.9428 111.644 27.4724 111.036 29.1597C110.847 29.6185 110.837 30.1327 111.01 30.5981C111.14 30.93 111.175 30.9482 111.408 30.6761C111.888 30.1004 112.347 29.5065 112.837 28.9374C114.61 26.8702 116.422 24.8395 118.63 23.2153C119.211 22.761 119.861 22.4041 120.556 22.1584C121.448 21.8747 122.194 22.248 122.851 22.7822C124.006 23.7229 124.501 25.0236 124.702 26.4621C124.769 26.9044 124.797 27.352 124.785 27.7993ZM122.445 27.2717C122.438 26.8987 122.375 26.5289 122.257 26.175C121.993 25.4484 121.422 25.2675 120.806 25.7122C120.46 25.9725 120.149 26.2789 119.884 26.623C118.763 28.05 117.732 29.5461 116.797 31.1025C116.322 31.869 115.861 32.6438 115.394 33.4153C115.335 33.5131 115.229 33.6127 115.32 33.7338C115.411 33.8549 115.516 33.7969 115.615 33.7852C115.858 33.7624 116.1 33.727 116.34 33.6791C118.062 33.3064 119.627 32.4049 120.818 31.0992C121.797 30.049 122.422 28.8296 122.445 27.2717Z" fill="#FCFDFD"/>
<path d="M71.844 21.0001C73.4578 21.015 74.8966 21.0498 76.3091 21.3618C76.8585 21.4845 77.3849 21.677 77.7578 22.1482C77.863 22.2789 77.9226 22.4407 77.9277 22.6088C77.9328 22.7768 77.883 22.942 77.7859 23.0789C77.408 23.6231 76.8255 23.8039 76.2365 23.9565C74.8603 24.3116 73.4512 24.4194 72.042 24.5289C69.9448 24.6948 67.8343 24.7181 65.7569 25.098C65.3144 25.1544 64.8906 25.3116 64.5177 25.5576C64.1151 25.8512 64.1283 26.0686 64.582 26.2859C64.9712 26.4474 65.3833 26.546 65.8031 26.5779C67.3921 26.7836 68.9943 26.8649 70.5883 27.0175C72.1097 27.1635 73.6261 27.3494 75.0649 27.935C78.3007 29.244 78.5796 33.1229 76.6985 35.2648C75.4015 36.7414 73.7152 37.3503 71.8506 37.5875C70.3867 37.7806 68.9027 37.7594 67.4449 37.5245C65.5044 37.2059 63.7207 36.529 62.3478 35.0359C61.8429 34.485 61.4337 33.8646 61.4189 33.0781C61.3908 31.5319 62.3049 30.3838 63.894 29.9077C64.884 29.614 65.874 29.614 66.8855 29.7052C68.4465 29.8463 69.9976 30.0669 71.4942 30.5613C71.9106 30.6825 72.2947 30.8962 72.6179 31.1868C72.9759 31.5269 72.9891 31.7741 72.669 32.1574C72.3489 32.5406 71.9248 32.7231 71.4793 32.8691C70.2253 33.2789 69.0042 33.1395 67.7766 32.6816C66.8509 32.3365 65.9532 31.8936 64.9715 31.7011C64.3114 31.57 63.7191 31.7326 63.2702 32.2801C62.8214 32.8276 62.8775 33.3569 63.4781 33.7733C63.96 34.1051 64.5276 34.1914 65.0787 34.2113C67.9249 34.3241 70.7651 33.8679 73.4347 32.8691C73.9848 32.6921 74.4645 32.3434 74.8042 31.8737C75.0666 31.4771 75.0451 31.3079 74.6838 30.9943C74.1029 30.4883 73.3786 30.2726 72.6657 30.0553C70.6246 29.4332 68.5241 29.2258 66.3955 29.181C65.1926 29.1544 63.9831 29.1694 62.7983 28.9139C61.9848 28.738 61.1994 28.4692 60.7209 27.726C60.1252 26.7969 60.2605 25.8081 60.6598 24.8558C61.168 23.6463 62.1828 22.9561 63.3164 22.4219C64.6183 21.808 66.011 21.5194 67.4218 21.302C68.8871 21.0978 70.3647 20.9969 71.844 21.0001Z" fill="#FCFDFD"/>
<path d="M78.5333 33.5812C78.6335 31.2752 78.94 28.9831 79.4491 26.7325C79.7148 25.5612 80.0151 24.4098 80.6042 23.348C81.2642 22.1634 81.8813 22.0439 82.9143 22.9282C83.8614 23.7445 84.5858 24.7532 85.33 25.7569C86.5708 27.416 87.6401 29.2078 88.8793 30.8769C89.0156 31.0677 89.1627 31.2505 89.3199 31.4244C89.5344 31.6566 89.6334 31.6351 89.767 31.3414C90.0228 30.7823 89.9832 30.1917 89.9172 29.6077C89.774 28.5751 89.55 27.5554 89.2473 26.5583C88.7341 24.6852 88.0922 22.8502 87.6797 20.9506C87.579 20.4794 87.4619 20 87.5675 19.5188C87.7507 18.6893 88.1087 18.6395 88.678 18.9133C89.3512 19.2451 89.8446 19.771 90.2802 20.3583C91.8362 22.457 92.7834 24.8378 93.3758 27.3596C93.6909 28.7068 93.8708 30.0772 93.7223 31.4559C93.5474 33.1249 93.0111 34.6745 91.7719 35.874C90.8379 36.7782 89.6268 37.1017 88.4915 35.9569C88.2193 35.6832 87.9388 35.4128 87.6912 35.1158C86.7111 33.9059 85.8131 32.6311 85.0033 31.2999C84.4587 30.4389 83.9274 29.5678 83.3169 28.7483C83.175 28.5575 83.0281 28.2622 82.7658 28.3318C82.5034 28.4015 82.5034 28.7167 82.477 28.9606C82.35 30.2016 82.3302 31.4492 82.2889 32.6952C82.268 33.7664 82.1482 34.8334 81.9308 35.8823C81.8561 36.2021 81.7396 36.5106 81.5843 36.7998C81.081 37.7587 80.1306 37.6426 79.4739 37.1316C78.926 36.7102 78.7577 36.0797 78.6488 35.4343C78.5557 34.8213 78.5171 34.2011 78.5333 33.5812Z" fill="#FCFDFD"/>
<path d="M99.509 33.8565C100.709 33.7271 102.134 33.4119 103.576 33.1929C104.147 33.1066 104.718 32.949 105.307 33.1514C105.612 33.2545 105.893 33.4179 106.133 33.6319C106.374 33.8459 106.569 34.1062 106.708 34.3974C106.893 34.7557 106.708 35.0046 106.482 35.2418C105.994 35.748 105.438 36.1845 104.832 36.5392C103.085 37.6044 101.222 38.3742 99.1823 38.623C98.3292 38.7259 97.4597 38.8205 96.6346 38.4206C95.4994 37.8698 94.9301 36.8777 94.506 35.7462C94.0539 34.5351 94.341 33.392 94.7321 32.2439C94.9334 31.645 95.1198 31.0394 95.3294 30.4438C95.3929 30.2979 95.4199 30.1387 95.4082 29.9799C95.3964 29.8211 95.3461 29.6677 95.2618 29.5329C94.836 28.8992 95.1462 28.4944 95.6182 28.0829C95.9153 27.8537 96.243 27.6677 96.5917 27.5304C96.7551 27.4647 96.9009 27.3614 97.0175 27.2289C97.1341 27.0964 97.2183 26.9383 97.2633 26.7673C97.3689 26.3707 97.496 25.9792 97.5851 25.5777C97.6923 25.08 97.6065 24.9506 97.1412 24.7283C96.7831 24.5624 96.4267 24.3799 96.0736 24.199C95.752 24.027 95.4671 23.7931 95.2353 23.5105C94.8789 23.0941 94.9317 22.6478 95.3839 22.3491C96.0158 21.9244 96.7567 21.8381 97.4795 21.7253C99.0289 21.4848 100.595 21.4068 102.156 21.2873C103.1 21.2143 104.04 21.1098 104.986 21.0501C106.449 20.9572 108.248 22.0223 108.883 23.318C108.931 23.3976 108.954 23.4896 108.949 23.5823C108.945 23.675 108.913 23.7643 108.858 23.839C108.708 24.0991 108.496 24.3177 108.241 24.4754C107.986 24.6332 107.697 24.7252 107.398 24.7432C105.962 24.8461 104.527 24.929 103.091 25.0269C102.596 25.0617 102.088 25.1115 101.591 25.1779C101.468 25.1862 101.349 25.2269 101.246 25.2958C101.143 25.3648 101.059 25.4597 101.004 25.5711C100.795 26.0323 100.688 26.534 100.692 27.041C100.692 27.3347 100.905 27.4641 101.171 27.5105C102.06 27.6681 102.964 27.6482 103.862 27.7163C104.154 27.7378 104.448 27.7163 104.74 27.7279C105.448 27.7644 105.895 28.2737 105.883 29.017C105.872 29.7602 105.388 30.3094 104.699 30.326C103.458 30.3558 102.223 30.3708 100.978 30.4006C100.605 30.4089 100.23 30.4388 99.8572 30.472C99.7276 30.4831 99.6033 30.5288 99.4972 30.6043C99.391 30.6799 99.3068 30.7825 99.2533 30.9017C98.8751 31.6722 98.6508 32.5098 98.5933 33.3671C98.5372 33.8283 98.684 33.9179 99.509 33.8565Z" fill="#FCFDFD"/>
<path d="M57.1616 3.26854C57.8968 3.22863 58.6245 3.43497 59.2306 3.85527C59.8367 4.27556 60.2871 4.88609 60.5113 5.59125C60.7753 6.46226 60.5509 7.23705 60.0674 7.96041C59.8777 8.24577 59.8777 8.29223 60.2126 8.35859C61.0846 8.49296 61.8926 8.89918 62.5227 9.51994C62.5937 9.59128 62.6877 9.7041 62.7851 9.64935C62.8461 9.61617 62.8659 9.48344 62.8808 9.39551C63.1019 8.01184 63.9698 7.20221 65.2503 6.86376C67.1446 6.36604 69.3375 7.78953 69.7517 9.72069C70.2467 12.0434 68.5042 13.9696 66.1545 13.6826C65.7934 13.6609 65.4394 13.5726 65.11 13.4221C64.8642 13.291 64.7388 13.4221 64.6332 13.6179C64.1681 14.4368 63.5632 15.1669 62.8461 15.7747C61.4584 16.9609 59.9387 17.9597 58.1005 18.1986C56.2623 18.4375 54.4704 18.1986 52.9969 16.9012C51.6768 15.7398 51.3798 14.021 52.2428 12.4648C52.9705 11.1798 54.0448 10.1279 55.3416 9.43035C55.4423 9.37394 55.5858 9.3474 55.604 9.21965C55.6221 9.0919 55.4621 9.05374 55.3713 8.99733C54.6222 8.54772 54.0215 7.95377 53.8202 7.08442C53.5975 6.12215 53.7707 5.21132 54.4555 4.45644C55.2244 3.60036 56.0016 3.27186 57.1616 3.26854ZM57.4322 15.9356C57.7246 15.9354 58.0167 15.9165 58.3068 15.8792C59.3514 15.6721 60.3549 15.2931 61.2769 14.7576C62.0145 14.3379 62.6927 13.8385 63.0573 13.0223C63.2603 12.5693 63.2619 12.1297 62.927 11.7398C62.7722 11.5531 62.5664 11.416 62.3351 11.3455C62.1037 11.2751 61.8569 11.2743 61.6251 11.3433C61.1949 11.4543 60.7834 11.6287 60.404 11.8609C58.754 12.8132 57.3745 14.0841 56.0412 15.4229C55.9686 15.4959 55.8581 15.5739 55.8911 15.6818C55.9241 15.7896 56.0775 15.8161 56.1864 15.8377C56.5981 15.9066 57.0149 15.9393 57.4322 15.9356ZM57.5081 10.819C56.5907 11.101 55.7244 11.3947 54.9588 11.9306C54.3759 12.3101 53.9537 12.8936 53.774 13.5681C53.7427 13.6875 53.6932 13.8551 53.807 13.9298C53.9209 14.0044 54.038 13.8651 54.1206 13.7755C55.0477 12.7987 56.0836 11.9324 57.2078 11.194C57.325 11.116 57.4801 11.0496 57.5048 10.819H57.5081Z" fill="#FCFDFD"/>
<path d="M59.3661 33.3767C59.3397 34.0321 59.4371 34.9645 59.3001 35.8902C59.2919 35.9483 59.2919 36.008 59.2836 36.0661C59.1186 37.0201 58.8018 37.4232 58.023 37.5045C56.9768 37.6157 56.2789 37.4116 55.8449 36.5589C55.4604 35.804 55.373 34.9877 55.3185 34.1698C55.1453 31.6048 55.2839 29.0449 55.4225 26.4833C55.48 25.2769 55.6323 24.077 55.8779 22.8947C56.0066 22.2991 56.1683 21.7085 56.6056 21.2356C56.6797 21.1489 56.7705 21.0782 56.8726 21.0278C56.9746 20.9774 57.0858 20.9484 57.1994 20.9425C57.3129 20.9366 57.4265 20.954 57.5332 20.9935C57.6398 21.0331 57.7374 21.094 57.82 21.1726C58.3381 21.6255 58.5246 22.2477 58.6599 22.8814C59.0229 24.5753 59.145 26.2975 59.2259 28.0246C59.3067 29.7168 59.3925 31.4091 59.3661 33.3767Z" fill="#FCFDFD"/>
<path d="M76.8882 45.7434C76.8882 47.132 76.875 48.5207 76.8882 49.9093C76.8998 50.8351 76.177 51.1553 75.5566 51.0176C75.3531 50.9732 75.1704 50.8611 75.0381 50.6995C74.9057 50.5378 74.8315 50.336 74.8273 50.1267C74.7888 49.1168 74.7888 48.1059 74.8273 47.0939C74.8471 46.5729 74.7217 46.4883 74.2316 46.6127C73.4726 46.8019 72.7119 46.9844 71.9463 47.1403C71.6757 47.1967 71.5668 47.3062 71.5734 47.5816C71.5899 48.2287 71.5849 48.8774 71.5915 49.5244C71.5961 49.6714 71.5706 49.8178 71.5167 49.9545C71.4628 50.0911 71.3815 50.2153 71.278 50.3191C71.0074 50.5978 70.6988 50.7837 70.3111 50.6294C69.9233 50.4751 69.5735 50.1831 69.552 49.7069C69.5273 49.1312 69.552 48.5539 69.552 47.9782C69.552 46.2726 69.5465 44.5671 69.5355 42.8616C69.5319 42.7086 69.5391 42.5556 69.557 42.4037C69.5837 42.1558 69.7047 41.9278 69.8948 41.7676C70.0849 41.6074 70.3293 41.5274 70.5767 41.5443C71.1707 41.5692 71.5668 41.9391 71.58 42.5016C71.5915 43.419 71.5981 44.3365 71.58 45.254C71.5717 45.5858 71.7186 45.6372 71.9809 45.5858C72.7444 45.4287 73.5078 45.2689 74.2712 45.1063C74.7448 45.0068 74.8256 44.8956 74.8207 44.4161C74.8097 43.5313 74.802 42.6465 74.7976 41.7616C74.7976 41.6223 74.8075 41.4796 74.8174 41.3402C74.8356 41.0877 74.944 40.8504 75.1226 40.672C75.3013 40.4936 75.538 40.3862 75.7893 40.3697C76.0481 40.368 76.2988 40.4601 76.4955 40.6292C76.6922 40.7984 76.8217 41.0331 76.8602 41.2904C76.8789 41.5366 76.8844 41.7836 76.8767 42.0304C76.8767 43.2658 76.8767 44.5019 76.8767 45.7384L76.8882 45.7434Z" fill="#FCFDFD"/>
<path d="M46.3223 45.6245C46.3223 44.4117 46.3223 43.1989 46.3223 41.9862C46.3223 41.442 46.5302 41.1417 46.9493 40.9907C47.1672 40.9227 47.4002 40.9211 47.6189 40.986C47.8377 41.051 48.0325 41.1796 48.1786 41.3557C48.2978 41.5031 48.3568 41.6905 48.3436 41.88C48.3436 42.4916 48.3436 43.1038 48.3436 43.7166C48.3436 43.8078 48.3106 43.9223 48.3997 43.9787C48.4888 44.0351 48.5944 43.9356 48.6736 43.8808C49.7874 43.106 50.8946 42.323 52.0101 41.5581C52.6322 41.1301 53.2773 41.1566 53.8169 41.6029C54.1172 41.8518 54.1469 42.0193 53.8664 42.3047C53.3612 42.7923 52.8083 43.2275 52.2163 43.6038C51.3269 44.2143 50.4458 44.795 49.5614 45.3906C49.3403 45.5382 49.2726 45.6328 49.5614 45.8203C50.9359 46.7212 52.317 47.6154 53.637 48.6109C53.7258 48.6681 53.8063 48.7373 53.8763 48.8166C54.0677 49.0621 54.4802 49.2148 54.2162 49.6561C53.8961 50.1936 53.4258 50.4358 52.944 50.2865C52.6263 50.1689 52.3294 50.0008 52.0645 49.7888C50.9392 48.9908 49.8171 48.1861 48.6918 47.3865C48.5994 47.3218 48.5004 47.1957 48.3915 47.2488C48.2826 47.3018 48.3453 47.4595 48.3436 47.569C48.3436 48.1231 48.3436 48.6756 48.3436 49.228C48.3436 49.7805 47.9394 50.1853 47.3288 50.1986C46.7464 50.2119 46.3388 49.8419 46.3272 49.2679C46.3173 48.0567 46.3272 46.8439 46.3272 45.6312L46.3223 45.6245Z" fill="#FCFDFD"/>
<path d="M100.201 50.2528C99.6312 50.2976 99.3062 49.9492 99.0834 49.4498C98.5488 48.2536 98.0109 47.0591 97.4812 45.8629C97.2205 45.2756 96.9746 44.6816 96.7172 44.0927C96.6825 44.0114 96.6611 43.8952 96.5439 43.8952C96.4268 43.8952 96.3872 44.0313 96.3492 44.1159C95.6793 45.6389 95.0193 47.1636 94.351 48.6867C94.1959 49.04 94.0721 49.41 93.8098 49.707C93.7014 49.8396 93.5578 49.9386 93.3957 49.9924C93.2335 50.0461 93.0595 50.0524 92.894 50.0106C92.7042 49.9726 92.5264 49.8891 92.3756 49.7672C92.2248 49.6453 92.1054 49.4886 92.0277 49.3105C91.9584 49.1612 92.0376 49.0085 92.0871 48.8675C92.4435 47.8621 92.9352 46.9164 93.3708 45.9442C94.021 44.4909 94.681 43.0408 95.3509 41.5941C95.6809 40.8857 96.1133 40.7563 96.7997 41.0964C97.1801 41.3092 97.4761 41.6473 97.6379 42.0537C98.5587 44.018 99.4756 45.9851 100.389 47.955C100.582 48.3681 100.786 48.7845 100.958 49.1993C101.237 49.8961 100.984 50.2512 100.201 50.2528Z" fill="#FCFDFD"/>
<path d="M84.4488 41.0684C84.6183 41.0753 84.7835 41.1245 84.9294 41.2113C85.0754 41.2982 85.1977 41.4201 85.2854 41.5661C85.9454 42.5184 86.6022 43.4735 87.2556 44.4313C88.1422 45.7287 89.0267 47.0272 89.9089 48.3268C90.0045 48.474 90.091 48.6269 90.168 48.7847C90.3841 49.1945 90.2851 49.4716 89.8643 49.6557C89.6215 49.7806 89.3406 49.8081 89.0784 49.7327C88.8162 49.6572 88.5922 49.4844 88.4519 49.2493C88.1466 48.7914 87.876 48.3119 87.5873 47.844C87.4998 47.7047 87.4025 47.5736 87.3133 47.4342C87.1483 47.1754 86.9569 47.1323 86.6401 47.2169C85.66 47.4807 84.6683 47.7047 83.67 47.9038C83.5202 47.9233 83.3801 47.9892 83.2692 48.0923C83.1584 48.1955 83.0822 48.3308 83.0512 48.4795C82.9629 48.8445 82.8396 49.2001 82.6833 49.5413C82.3532 50.1817 81.7592 50.2563 81.2609 49.7337C81.1639 49.6324 81.098 49.5051 81.0711 49.3671C81.0442 49.2291 81.0573 49.0863 81.1091 48.9556C81.3401 48.1261 81.6553 47.3347 81.9341 46.5267C82.4671 44.9755 83.01 43.4292 83.5479 41.8813C83.7277 41.3687 84.0578 41.07 84.4488 41.0684ZM83.9538 46.2663C84.5528 46.1534 85.1237 46.0473 85.693 45.9344C86.3745 45.8017 86.3728 45.8001 85.9982 45.2044C85.6237 44.6088 85.2722 44.0431 84.9059 43.4541C84.858 43.3795 84.8118 43.2666 84.7079 43.2733C84.6039 43.2799 84.5924 43.3977 84.566 43.4856C84.3102 44.3152 84.071 45.1596 83.7954 45.9908C83.7244 46.2165 83.7872 46.2712 83.9555 46.2663H83.9538Z" fill="#FCFDFD"/>
<path d="M56.8398 49.1813C56.8893 48.6255 57.1699 48.0731 57.3596 47.5007C57.9734 45.6923 58.612 43.8922 59.2423 42.0888C59.3158 41.7914 59.4654 41.5185 59.6763 41.2974C59.8047 41.1606 59.979 41.0764 60.1654 41.0611C60.3519 41.0458 60.5374 41.1004 60.6862 41.2144C61.0409 41.45 61.2356 41.8183 61.4666 42.1535C62.8725 44.203 64.2718 46.2553 65.6644 48.3103C65.778 48.4746 65.8773 48.6483 65.9614 48.8296C66.1347 49.2095 66.0208 49.4849 65.6413 49.6492C65.1018 49.8864 64.5853 49.767 64.2454 49.2792C63.9054 48.7915 63.6183 48.2838 63.3081 47.786C63.2586 47.7064 63.2058 47.6284 63.1629 47.5455C62.9798 47.1971 62.7636 47.1025 62.3379 47.2236C61.3957 47.4924 60.432 47.6882 59.4684 47.874C59.3001 47.897 59.1436 47.974 59.0223 48.0935C58.901 48.2131 58.8214 48.3689 58.7952 48.5376C58.7143 48.8429 58.6137 49.1448 58.5081 49.4418C58.4543 49.612 58.3523 49.7626 58.2145 49.8752C58.0767 49.9878 57.9092 50.0574 57.7325 50.0756C57.3728 50.1187 57.1369 49.8566 56.9075 49.6177C56.8101 49.5065 56.8613 49.3705 56.8398 49.1813ZM59.6351 46.2746C60.4337 46.1286 61.1449 46.0075 61.8511 45.8648C62.0161 45.8317 62.1019 45.7255 61.9749 45.533C61.5343 44.8478 61.1119 44.151 60.6812 43.4592C60.6334 43.3812 60.6053 43.2634 60.4964 43.2733C60.3875 43.2833 60.3726 43.4227 60.3396 43.5172C60.0492 44.3468 59.8694 45.2029 59.5377 46.0142C59.4635 46.1917 59.5361 46.2763 59.6351 46.2746Z" fill="#FCFDFD"/>
<path d="M22.2857 30.3005C22.2857 31.7721 22.2857 33.2437 22.2857 34.7153C22.2857 34.9758 22.2296 35.1002 21.9409 34.9791C20.2298 34.2591 18.5236 33.5291 16.9115 32.595C15.3818 31.7074 13.8984 30.7501 12.6543 29.466C12.3983 29.2074 12.172 28.9208 11.9794 28.6116C11.7401 28.2217 11.7517 28.0226 12.024 27.6476C12.3408 27.2096 12.7945 26.984 13.2797 26.7882C14.5304 26.3021 15.8505 26.0864 17.1705 25.8807C18.7331 25.6418 20.3057 25.5655 21.8848 25.4444C22.3287 25.4112 22.36 25.4593 22.36 25.9172V30.2972L22.2857 30.3005Z" fill="#1B69CC"/>
<path d="M122.445 27.2719C122.424 28.8298 121.798 30.0492 120.818 31.101C119.627 32.4061 118.062 33.307 116.34 33.6792C116.1 33.7288 115.859 33.7659 115.615 33.7904C115.516 33.802 115.391 33.8385 115.32 33.739C115.249 33.6394 115.335 33.5183 115.394 33.4204C115.861 32.649 116.322 31.8742 116.797 31.1077C117.732 29.5512 118.763 28.0551 119.884 26.6282C120.149 26.2841 120.46 25.9777 120.806 25.7173C121.422 25.2727 121.993 25.4535 122.257 26.1802C122.374 26.5324 122.438 26.9005 122.445 27.2719Z" fill="#1B69CC"/>
<path d="M57.4322 15.935C57.0127 15.9391 56.5937 15.9064 56.1798 15.8371C56.0709 15.8155 55.9224 15.8072 55.8845 15.6812C55.8465 15.5551 55.962 15.4953 56.0346 15.4223C57.3646 14.0835 58.7523 12.8126 60.4024 11.8603C60.7817 11.6281 61.1932 11.4537 61.6234 11.3427C61.8552 11.2737 62.1021 11.2745 62.3334 11.3449C62.5648 11.4154 62.7706 11.5525 62.9253 11.7392C63.2553 12.1291 63.2553 12.5687 63.0557 13.0217C62.691 13.8379 62.0128 14.3373 61.2753 14.7571C60.3533 15.2925 59.3498 15.6715 58.3051 15.8786C58.0156 15.9159 57.7241 15.9347 57.4322 15.935Z" fill="#1B69CC"/>
<path d="M57.5048 10.8184C57.4801 11.049 57.3249 11.112 57.2045 11.1933C56.0805 11.9302 55.0446 12.7948 54.1172 13.7699C54.0347 13.8595 53.939 14.0137 53.8037 13.9242C53.6684 13.8346 53.7394 13.6819 53.7707 13.5625C53.9519 12.8896 54.3746 12.308 54.9571 11.9299C55.7211 11.3941 56.5874 11.1004 57.5048 10.8184Z" fill="#1B69CC"/>
<path d="M83.9555 46.2667C83.7905 46.2667 83.7245 46.2169 83.7905 45.9946C84.0595 45.165 84.3053 44.3256 84.5611 43.4894C84.5875 43.4014 84.5908 43.282 84.703 43.277C84.8152 43.272 84.8532 43.3832 84.901 43.4579C85.2673 44.0402 85.6254 44.6275 85.9934 45.2082C86.3614 45.7889 86.3696 45.8054 85.6881 45.9382C85.1254 46.0477 84.5545 46.1539 83.9555 46.2667Z" fill="#1B69CC"/>
<path d="M59.6351 46.2751C59.5361 46.2751 59.4701 46.1921 59.5377 46.0096C59.8678 45.1984 60.0493 44.3373 60.3397 43.5127C60.3727 43.4182 60.3644 43.2805 60.4964 43.2689C60.6284 43.2572 60.6334 43.3767 60.6812 43.4547C61.1119 44.1465 61.5343 44.8433 61.9749 45.5285C62.102 45.7259 62.0145 45.8321 61.8512 45.8603C61.1449 46.008 60.4337 46.1225 59.6351 46.2751Z" fill="#1B69CC"/>
</svg>
