<svg width="120" height="71" viewBox="0 0 120 71" fill="none" xmlns="http://www.w3.org/2000/svg">
<path d="M74.2122 14.9474L68.8548 0.205078L54.1395 5.57078L59.4943 20.3131L74.2122 14.9474Z" fill="black"/>
<path d="M35.6344 54.597V57.8033H52.9468V14.1934H35.6344V28.3828C32.9078 26.5954 29.004 24.0639 21.1203 24.0639C7.49844 24.0639 0.205566 32.4508 0.205566 41.5825C0.205566 51.5759 8.60309 58.5474 20.9061 58.5474C24.0681 58.5474 27.0935 58.0482 29.8892 57.1865C32.8361 56.3248 34.1636 55.5219 35.6344 54.597ZM17.5136 41.2745C17.5136 36.6476 21.1212 33.9354 26.6461 33.9354C32.9078 33.9354 35.6344 37.5145 35.6344 41.2745C35.6344 45.5925 32.0268 48.9277 26.5019 48.9277C21.9322 48.9269 17.5136 46.5182 17.5136 41.2745Z" fill="black"/>
<path d="M69.8766 25.3223H55.5162V57.7691H69.8766V25.3223Z" fill="black"/>
<path d="M32.3377 63.8202C31.7435 63.4733 31.101 63.3262 30.1457 63.3262C28.6801 63.3262 27.8337 63.7916 27.0546 64.3592V63.4586H23.8556V70.597H27.0546V67.4193C27.0546 66.7877 27.0693 66.1656 27.6437 65.6907C27.9451 65.451 28.3208 65.3576 28.7069 65.3576C29.3011 65.3576 30.0119 65.5972 30.2407 66.4209C30.2926 66.6121 30.3219 66.8664 30.3219 67.3362V70.5978H33.5063V66.837C33.5063 65.4268 33.4398 64.4716 32.3377 63.8202Z" fill="black"/>
<path d="M43.4818 64.5893C42.3754 63.4585 40.7551 63.2578 39.3128 63.2578C38.2513 63.2578 36.1137 63.3019 34.902 64.8488C34.528 65.3195 34.1912 66.0583 34.1912 66.9979C34.1912 68.6685 35.1741 69.7742 36.5447 70.3227C37.417 70.6757 38.3558 70.7933 39.3033 70.7933C39.92 70.7933 41.611 70.7146 42.8478 70.0441C43.8333 69.5008 44.177 68.8355 44.3532 68.5067L41.0488 68.3501C40.8579 68.5413 40.724 68.6685 40.3889 68.8052C40.1592 68.8978 39.8224 68.9964 39.4475 68.9964C38.8421 68.9964 37.7297 68.7265 37.4706 67.4737H44.5389C44.5138 66.6804 44.4724 65.6033 43.4818 64.5893ZM37.5803 66.2339C37.7141 65.9061 38.0518 65.0738 39.3914 65.0738C39.7291 65.0738 40.2689 65.1283 40.699 65.4804C41.0341 65.759 41.0997 65.9606 41.2094 66.2339H37.5803Z" fill="black"/>
<path d="M48.7364 67.944V65.5986H49.8773V63.7575H48.7217V61.3438H45.6565L45.6323 63.7575H44.6063V65.5986H45.6029L45.5615 68.4925L45.5468 68.9822C45.5615 69.3438 45.5468 69.7064 45.8569 70.0983C46.2714 70.4997 46.8268 70.568 47.858 70.5975H49.8911V68.5747C49.0715 68.5747 48.7614 68.5747 48.7364 67.944Z" fill="black"/>
<path d="M61.6112 63.459L61.0196 66.5286C60.8857 67.1748 60.8563 67.3366 60.7501 67.9976C60.6551 67.1748 60.599 66.9741 60.3355 66.1903L59.338 63.459H56.1398L54.998 66.1807C54.6733 66.9975 54.624 67.2042 54.4902 67.9578C54.4194 67.3513 54.3952 67.1887 54.2898 66.5286L53.8035 63.459H50.335L52.7101 70.5922H55.8997L57.2021 67.4292C57.4414 66.8123 57.4958 66.6609 57.6711 66.0147C57.8179 66.6073 57.8715 66.7881 58.1012 67.4197L59.2421 70.5922H62.3755L64.9441 63.459H61.6112Z" fill="black"/>
<path d="M69.5199 63.2725C66.9927 63.3123 64.4803 64.36 64.4803 67.0385C64.4803 69.8434 67.2467 70.7838 69.7444 70.7838C72.6921 70.7838 75.0137 69.531 75.0137 67.0143C75.0128 65.2122 73.6983 63.2197 69.5199 63.2725ZM69.8126 68.8597C68.8747 68.8597 67.7597 68.4288 67.7597 66.984C67.7597 66.1907 68.1898 65.1776 69.608 65.143C70.9423 65.0988 71.749 65.8135 71.749 66.984C71.7481 68.5413 70.4578 68.8597 69.8126 68.8597Z" fill="black"/>
<path d="M78.8407 64.5893V63.4585H75.6684V70.597H78.826V67.4045C78.8407 67.0818 78.8545 66.7435 79.168 66.4649C79.3641 66.2737 79.7009 66.0834 80.5464 66.0834C80.8202 66.0834 81.0603 66.1128 81.3047 66.1414V63.3262C80.8988 63.3365 80.4203 63.3651 79.8235 63.6887C79.4228 63.9041 79.0894 64.2121 78.8407 64.5893Z" fill="black"/>
<path d="M81.8272 61.0879L81.8514 70.596H84.9702V69.0534L86.2449 67.9529L87.9948 70.596H91.4995L88.3817 66.0824L91.3968 63.4723H87.3988L84.9555 65.7494V61.0879H81.8272Z" fill="black"/>
<path fill-rule="evenodd" clip-rule="evenodd" d="M66.9971 17.6217L83.2955 45.2153C84.9487 47.6074 85.1839 49.3725 81.6264 49.4604H72.4953V57.9508H85.7501C93.0746 58.3793 99.2072 54.2401 103.914 44.6364L119.794 17.6074H101.165L93.3102 36.7249L85.8482 17.6217H66.9971Z" fill="black"/>
</svg>
