<svg width="117" height="33" viewBox="0 0 117 33" fill="none" xmlns="http://www.w3.org/2000/svg">
<path d="M0 32.2211V1.13192C5.4888 1.13192 10.9143 0.669831 16.2088 1.2693C20.8068 1.78968 23.8931 5.04097 25.4976 9.37464C27.1769 13.7479 27.2679 18.5598 25.7551 22.9918C24.0325 28.1955 20.3719 31.5717 14.8831 32.117C10.0361 32.6041 5.10458 32.2211 0 32.2211ZM6.16856 26.7385C10.7834 26.6052 15.5755 27.7084 18.4972 23.0625C20.7772 19.4366 20.4605 12.1097 17.999 9.22477C14.7733 5.44062 10.3992 6.2857 6.17701 6.35231L6.16856 26.7385Z" fill="black"/>
<path d="M59.7302 15.7195C59.7302 20.1489 58.2947 27.5049 53.0128 30.7062C44.2602 36.0349 33.5191 31.6346 31.0576 21.5976C29.5714 15.503 30.2131 9.49581 34.5957 4.6043C41.7734 -3.42194 55.3603 -0.516176 58.7211 9.69147C59.4089 11.628 59.7504 13.6677 59.7302 15.7195ZM36.8335 16.652C36.9119 19.0713 37.5349 21.4431 38.6574 23.5958C41.1907 28.5082 48.3135 28.5331 51.1508 23.7957C53.8319 19.3121 53.6841 14.5289 51.573 9.87048C50.3317 7.13956 48.056 5.65753 44.8682 5.78659C41.7607 5.91148 39.2443 7.27277 38.1128 9.91627C37.2504 12.0593 36.816 14.3465 36.8335 16.652Z" fill="black"/>
<path d="M91.8953 21.6476C91.5828 26.4184 87.2509 31.2225 82.4588 32.334C73.8202 34.3364 66.4146 29.9029 64.4808 21.3438C63.1593 15.5738 63.7546 10.0246 67.5546 5.17471C71.0125 0.736962 76.9235 -0.911581 82.957 0.741125C87.7153 2.03998 91.4688 6.41111 92.2035 11.5649H86.2925C85.0258 8.2803 83.0119 5.90323 79.1866 5.69924C75.5935 5.50775 73.1954 6.76497 71.802 10.0329C69.9274 14.4374 69.8472 18.9917 72.0343 23.3004C74.6393 28.4333 81.7114 28.8538 84.7472 23.9623C86.0138 21.9557 87.3142 21.4062 89.3915 21.6268C90.2251 21.6782 91.0609 21.6851 91.8953 21.6476Z" fill="black"/>
<path d="M110.105 8.87109V15.4403H117V20.8147H110.139V27.6628H104.786V20.9313H97.9541V15.5818H104.655V8.87109H110.105Z" fill="black"/>
</svg>
