<svg width="120" height="36" viewBox="0 0 120 36" fill="none" xmlns="http://www.w3.org/2000/svg">
<path d="M0.00683594 36H119.994V0H0.00683594V36Z" fill="black"/>
<path d="M41.2441 23.4741H33.1999C32.9717 23.4741 32.9275 23.3839 32.9275 23.2017V12.378C32.9275 12.1957 32.9717 12.1055 33.1999 12.1055H41.2441C46.0283 12.1055 47.9427 13.4714 47.9427 17.7769C47.9427 22.0844 46.0283 23.4741 41.2441 23.4741ZM47.893 8.80134H22.216C21.9878 8.80134 21.8737 8.93755 21.8737 9.14188V26.4359C21.8737 26.6421 21.9878 26.7783 22.216 26.7783H47.893C55.4365 26.7783 59.2413 24.2712 59.2413 17.7328C59.2413 11.2385 55.4365 8.80134 47.893 8.80134Z" fill="white"/>
<path d="M83.6247 18.8492H74.6473C74.4411 18.8492 74.373 18.7793 74.373 18.5768V12.3789C74.373 12.1728 74.4411 12.1047 74.6473 12.1047H83.6247C86.6326 12.1047 87.9082 12.9256 87.9082 15.4088C87.9082 17.916 86.6326 18.8492 83.6247 18.8492ZM99.7536 26.0504L92.3261 20.8097C92.142 20.6716 92.0297 20.6035 92.0297 20.5115C92.0297 20.4231 92.0978 20.3752 92.258 20.3752C96.0168 20.3752 98.9344 18.6228 98.9344 14.748C98.9344 10.899 96.4273 8.80231 91.8014 8.80231H63.6616C63.4333 8.80231 63.321 8.93669 63.321 9.14286V26.4369C63.321 26.6412 63.4333 26.7793 63.6616 26.7793H74.0159C74.2442 26.7793 74.3583 26.6412 74.3583 26.4369V22.3357C74.3583 22.1295 74.4264 22.0632 74.6326 22.0632H80.5911C80.8875 22.0632 81.0016 22.0853 81.206 22.2455L86.3785 26.529C86.6307 26.7333 86.8111 26.7793 87.1075 26.7793H99.9818C100.164 26.7793 100.254 26.7093 100.254 26.5731C100.254 26.3909 99.9358 26.1866 99.7536 26.0504Z" fill="white"/>
</svg>
