<svg width="60" height="60" viewBox="0 0 60 60" fill="none" xmlns="http://www.w3.org/2000/svg">
<g clip-path="url(#clip0)">
<path d="M0 0V60H60V0H0Z" fill="#FF001E"/>
<path d="M60 42H0V60H60V42Z" fill="black"/>
<path d="M23.9454 46.4003H11.1054C11.0824 46.3978 11.0592 46.4005 11.0373 46.4082C11.0155 46.4159 10.9957 46.4283 10.9793 46.4446C10.9629 46.461 10.9504 46.4807 10.9426 46.5025C10.9348 46.5243 10.932 46.5475 10.9344 46.5706V55.2181C10.9321 55.2411 10.9349 55.2644 10.9427 55.2863C10.9504 55.3081 10.9629 55.3279 10.9793 55.3444C10.9956 55.3608 11.0154 55.3734 11.0372 55.3813C11.0591 55.3891 11.0823 55.392 11.1054 55.3898H23.9454C27.7172 55.3898 29.6207 54.1366 29.6207 50.8666C29.6207 47.619 27.7172 46.4003 23.9454 46.4003ZM20.6207 53.7376H16.5984C16.4844 53.7376 16.4612 53.6918 16.4612 53.6003V48.1883C16.4612 48.0983 16.4844 48.0518 16.5984 48.0518H20.6207C23.0124 48.0518 23.9702 48.7351 23.9702 50.8891C23.9702 53.0431 23.0124 53.7376 20.6207 53.7376Z" fill="white"/>
<path d="M49.8753 55.0253L46.1613 52.4048C46.0698 52.3358 46.0113 52.3021 46.0113 52.2548C46.0113 52.2076 46.0458 52.1858 46.1261 52.1858C48.0011 52.1858 49.4636 51.3091 49.4636 49.3726C49.4636 47.4361 48.2148 46.4003 45.9003 46.4003H31.8303C31.8074 46.3978 31.7841 46.4005 31.7623 46.4082C31.7406 46.4159 31.7208 46.4283 31.7044 46.4447C31.6881 46.461 31.6756 46.4808 31.668 46.5026C31.6603 46.5244 31.6576 46.5476 31.6601 46.5706V55.2181C31.6576 55.2411 31.6603 55.2644 31.668 55.2862C31.6757 55.3081 31.6881 55.3279 31.7044 55.3444C31.7207 55.3608 31.7405 55.3734 31.7623 55.3813C31.784 55.3891 31.8073 55.3921 31.8303 55.3898H37.0053C37.0284 55.3922 37.0518 55.3894 37.0736 55.3816C37.0955 55.3737 37.1154 55.3612 37.1318 55.3447C37.1481 55.3282 37.1607 55.3083 37.1684 55.2864C37.1761 55.2645 37.1788 55.2412 37.1763 55.2181V53.1676C37.1763 53.0648 37.2108 53.0311 37.3136 53.0311H40.2933C40.4433 53.0311 40.4981 53.0423 40.6008 53.1226L43.1876 55.2646C43.2368 55.3087 43.2943 55.3425 43.3568 55.364C43.4193 55.3855 43.4854 55.3943 43.5513 55.3898H49.9893C50.0808 55.3898 50.1266 55.3553 50.1266 55.2863C50.1296 55.1956 49.9698 55.0936 49.8753 55.0253ZM41.8098 51.4253H37.3241C37.2213 51.4253 37.1868 51.3908 37.1868 51.2888V48.1883C37.1868 48.0863 37.2213 48.0518 37.3241 48.0518H41.8128C43.3173 48.0518 43.9548 48.4628 43.9548 49.7018C43.9548 50.9573 43.3173 51.4246 41.8128 51.4246L41.8098 51.4253Z" fill="white"/>
<path d="M26.4087 26.2321L35.5497 20.9536C35.6058 20.9212 35.6524 20.8746 35.6847 20.8186C35.7171 20.7625 35.7341 20.6989 35.7341 20.6341C35.7341 20.5694 35.7171 20.5057 35.6847 20.4497C35.6524 20.3936 35.6058 20.347 35.5497 20.3146L26.4072 15.0369C26.3512 15.0044 26.2876 14.9873 26.2229 14.9873C26.1581 14.9873 26.0945 15.0043 26.0385 15.0367C25.9824 15.0691 25.9359 15.1157 25.9036 15.1719C25.8713 15.228 25.8544 15.2916 25.8545 15.3564V25.9126C25.8544 25.9775 25.8715 26.0412 25.9039 26.0974C25.9363 26.1536 25.983 26.2003 26.0392 26.2327C26.0954 26.2651 26.1592 26.2821 26.2241 26.282C26.2889 26.2819 26.3526 26.2647 26.4087 26.2321Z" fill="white"/>
<path d="M29.7441 35.0565C26.9139 35.0596 24.1456 34.2277 21.7859 32.6649C19.4261 31.1022 17.5798 28.8781 16.4781 26.271L19.8396 24.846C20.6623 26.7924 22.0408 28.4528 23.8025 29.6194C25.5643 30.7861 27.6311 31.4071 29.7441 31.4048C35.6736 31.4048 40.4969 26.5815 40.4969 20.6528C40.4969 14.724 35.6736 9.90004 29.7441 9.90004C27.6294 9.89771 25.5611 10.5197 23.7985 11.6881C22.0359 12.8565 20.6574 14.5192 19.8359 16.4678L16.4736 15.0428C17.5741 12.4333 19.4205 10.2068 21.7813 8.64244C24.142 7.07808 26.9121 6.24548 29.7441 6.24903C37.6866 6.24903 44.1479 12.7103 44.1479 20.6528C44.1479 28.5953 37.6866 35.0565 29.7441 35.0565Z" fill="white"/>
</g>
<defs>
<clipPath id="clip0">
<rect width="60" height="60" fill="white"/>
</clipPath>
</defs>
</svg>
