<svg width="135" height="26" viewBox="0 0 135 26" fill="none" xmlns="http://www.w3.org/2000/svg">
<path d="M31.5638 25.05H2.24327C1.95828 25.05 1.67174 25.0609 1.38832 25.0376C0.519354 24.9644 0.00389321 24.4489 0.00389321 23.5753C-0.00129774 16.2187 -0.00129774 8.86258 0.00389321 1.50701C0.00545049 0.515023 0.570745 0.0338225 1.6951 0.030708C4.67574 0.0203261 7.6569 0.0192879 10.6386 0.0275934C14.3184 0.0275934 17.9999 -0.0580572 21.6751 0.183322C25.9872 0.455846 30.2401 1.03516 34.2174 2.86496C37.0205 4.15595 39.3222 5.97953 40.5743 8.93837C41.9758 12.2492 41.2797 16.3993 38.8114 19.0124C38.0434 19.8567 37.1765 20.6054 36.2294 21.2425C35.9834 21.3982 35.6065 21.5384 35.7389 21.9292C35.8666 22.2843 36.2481 22.2407 36.5518 22.2407C40.1284 22.2469 43.706 22.2469 47.2846 22.2407C49.9538 22.2407 52.6245 22.2407 55.2953 22.2329C56.2537 22.2143 57.2088 22.1127 58.1498 21.9292C58.5852 21.8542 59.0036 21.7012 59.3847 21.4776C60.5604 20.7831 60.738 19.4532 59.788 18.483C59.21 17.9233 58.5466 17.4591 57.8227 17.1079C55.4557 15.8621 53.0107 14.7969 50.6156 13.6196C48.3435 12.503 46.0325 11.4394 44.2308 9.53948C41.6207 6.77998 42.8915 3.88499 45.2632 2.29967C47.5789 0.753288 50.1765 0.275202 52.8737 0.184879C63.3776 -0.171739 73.8736 0.111687 84.3697 0.0338225C85.7183 0.0229215 86.1949 0.533711 86.1995 1.8574C86.1995 3.10323 86.1995 4.34906 86.1995 5.59488C86.1995 6.5713 86.3459 6.71457 87.3395 6.71457C93.3802 6.71457 99.4209 6.73637 105.46 6.70055C106.661 6.70055 107.485 7.04939 108.199 8.06785C111.199 12.3878 114.273 16.6578 117.311 20.945C117.401 21.0727 117.487 21.202 117.579 21.3266C118.202 22.1784 118.357 22.18 118.98 21.3515C122.434 16.8198 125.886 12.286 129.335 7.75016C129.864 7.04939 130.5 6.68342 131.379 6.71301C132.027 6.73482 132.675 6.71301 133.325 6.72236C133.581 6.72236 133.876 6.71146 134.007 6.98865C134.127 7.24093 133.91 7.42313 133.773 7.61157C131.191 11.0179 128.608 14.4221 126.022 17.8242C124.465 19.8658 122.908 21.8965 121.371 23.9506C121.158 24.2583 120.871 24.5078 120.536 24.6765C120.202 24.8451 119.831 24.9275 119.457 24.9161C106.65 24.9161 93.8427 24.927 81.0356 24.8896C79.0937 24.8896 77.2981 24.3399 76.0523 22.6518C75.3593 21.7174 75.1179 20.6491 75.1179 19.5092C75.1179 14.4584 75.1179 9.40763 75.1179 4.35684C75.1179 2.95529 75.0276 2.85718 73.6198 2.85562C69.317 2.85562 65.0127 2.84628 60.7099 2.85562C59.4641 2.85562 58.2183 2.92414 57.0176 3.28387C56.6955 3.37611 56.3827 3.4981 56.0832 3.64828C54.4294 4.50634 54.3002 6.06051 55.8154 7.13192C57.192 8.10678 58.74 8.78576 60.263 9.49899C62.94 10.7448 65.6637 11.8972 68.2051 13.4202C69.4182 14.1273 70.4956 15.0448 71.3867 16.1299C73.0405 18.1886 72.5624 20.9388 70.2841 22.5864C68.1039 24.1593 65.5983 24.7666 62.9742 24.9068C56.7575 25.2385 50.5362 24.994 44.3164 25.0469C40.0681 25.0718 35.8136 25.05 31.5638 25.05ZM10.5856 12.4578V20.6912C10.5856 22.222 10.5965 22.2313 12.1647 22.2313C14.1331 22.2313 16.1031 22.2827 18.0653 22.0756C21.0023 21.7642 23.8272 21.1303 26.389 19.5466C31.4501 16.4118 31.7258 9.51457 27.2953 6.03715C25.1509 4.35373 22.6421 3.60467 20.0103 3.14216C17.282 2.6594 14.5349 2.85095 11.791 2.81669C10.6542 2.80267 10.5856 2.87742 10.5856 3.98777C10.5856 6.80956 10.5856 9.63292 10.5856 12.4578ZM97.3263 22.2687C100.329 22.2687 103.332 22.2687 106.337 22.2687C106.584 22.2687 106.901 22.3559 107.045 22.0834C107.19 21.8109 106.913 21.6084 106.767 21.4153C103.914 17.6654 101.056 13.9217 98.1937 10.1842C97.8963 9.79488 97.5241 9.52235 97.0211 9.5208C93.6558 9.5208 90.289 9.5208 86.9237 9.5208C86.4565 9.5208 86.2027 9.72947 86.2042 10.2216C86.2042 13.5853 86.1887 16.949 86.2338 20.3112C86.2478 21.462 86.933 22.0974 88.0885 22.2267C88.5027 22.2643 88.9186 22.2783 89.3344 22.2687C91.9994 22.2687 94.6634 22.2687 97.3263 22.2687Z" fill="#179EDB"/>
</svg>
