<svg width="102" height="45" viewBox="0 0 102 45" fill="none" xmlns="http://www.w3.org/2000/svg">
<path d="M16.0882 10.1387C6.04581 10.1387 0 17.9448 0 27.5693C0 37.1938 5.53581 44.9999 16.0882 44.9999C24.1555 44.9999 29.2369 40.656 31.1842 34.3101L22.5513 32.9509C21.2531 35.2836 19.0462 36.8448 16.0604 36.8448C12.1658 36.8448 9.76418 34.4662 8.88327 30.9213H31.8982C32.0187 29.957 32.0836 28.9652 32.0836 27.955C32.0836 18.3213 26.1213 10.1387 16.0882 10.1387ZM9.03163 23.804C10.0516 20.4979 12.5089 18.303 16.0604 18.303C19.7973 18.303 22.3473 20.4244 23.2745 23.804H9.03163ZM47.1611 10.8183H32.8625V44.3387H41.5047V35.1642H47.2909C54.0044 35.1642 59.3176 29.6632 59.3176 22.8489C59.3084 16.2091 54.0785 10.8183 47.1611 10.8183ZM50.6291 23.0877C50.6291 25.1907 49.0805 26.7336 47.1611 26.7336H41.5047V18.8815H47.1611C49.0805 18.8815 50.6291 20.4152 50.6291 22.5275V23.0877ZM102 44.3387H91.6887L85.0958 34.1907L78.4844 44.3387H60.1336V10.8183H68.7758V43.154L80.1256 26.5499L70.3615 10.8183H80.3389L85.0958 19.7723L90.1587 10.8183H100.331L90.0753 26.5499L102 44.3387Z" fill="black"/>
<path fill-rule="evenodd" clip-rule="evenodd" d="M69.3135 4.81225C69.3135 6.08853 68.8016 7.31254 67.8904 8.21501C66.9792 9.11749 65.7433 9.62449 64.4546 9.62449C63.166 9.62449 61.9301 9.11749 61.0188 8.21501C60.1076 7.31254 59.5957 6.08853 59.5957 4.81225C59.5957 4.18029 59.7214 3.55453 59.9656 2.97068C60.2097 2.38683 60.5677 1.85633 61.0188 1.40947C61.47 0.962616 62.0057 0.608148 62.5952 0.36631C63.1847 0.124472 63.8165 -9.28633e-08 64.4546 0C65.7433 4.82261e-07 66.9792 0.507003 67.8904 1.40947C68.8016 2.31195 69.3135 3.53596 69.3135 4.81225Z" fill="url(#paint0_radial)"/>
<defs>
<radialGradient id="paint0_radial" cx="0" cy="0" r="1" gradientUnits="userSpaceOnUse" gradientTransform="translate(65.3735 1.45628) rotate(13.0373) scale(11.1135 8.00144)">
<stop offset="0.2228" stop-color="#E0C479"/>
<stop offset="1" stop-color="#907231"/>
</radialGradient>
</defs>
</svg>
