<svg width="92" height="60" viewBox="0 0 92 60" fill="none" xmlns="http://www.w3.org/2000/svg">
<mask id="mask0" mask-type="alpha" maskUnits="userSpaceOnUse" x="0" y="0" width="92" height="60">
<path d="M0.655273 13.3561C0.693932 6.47053 5.74188 1.03125 12.6922 0.370155C20.2387 -0.347894 26.245 5.19716 26.9144 12.9004C26.9958 13.8321 26.4159 13.8463 25.7567 13.8463C21.2588 13.8463 16.7608 13.8463 12.2629 13.8463C10.7084 13.8463 9.15194 13.8463 7.59748 13.8463C6.45401 13.8463 6.34414 13.9989 6.59033 15.0892C7.24752 17.9878 9.56294 20.1196 12.6393 20.6505C15.6119 21.161 18.4991 19.9141 20.021 17.3206C20.5032 16.5069 21.0383 16.1896 21.9539 16.2364C23.2032 16.3015 24.4565 16.2893 25.7078 16.2364C26.6316 16.2039 26.7353 16.5985 26.4586 17.3491C24.7332 22.0561 21.6121 25.1703 16.5906 26.1691C9.05632 27.6703 2.13242 22.9287 0.82008 15.3719C0.70614 14.7108 0.708174 14.0273 0.655273 13.3561ZM13.8215 9.93872C15.7483 9.93872 17.673 9.93872 19.5998 9.93872C20.6172 9.93872 20.7046 9.78413 20.1919 8.89725C18.7677 6.45629 16.6415 5.128 13.795 5.14427C10.9485 5.16054 8.83454 6.50917 7.4225 8.95624C6.96877 9.74141 7.09492 9.92855 8.04306 9.93466C9.96987 9.94686 11.8946 9.93872 13.8215 9.93872Z" fill="black"/>
<path d="M71.6488 13.3626C71.6488 20.7567 65.7748 26.7879 58.3585 26.7716C50.8487 26.7472 44.8363 20.836 44.8058 13.3321C44.7773 6.00918 50.8934 0.0593376 58.3321 0.000347677C65.6893 -0.054574 71.9683 6.40584 71.6488 13.3626ZM50.692 13.3992C50.6882 14.3907 50.8811 15.3731 51.2597 16.2895C51.6382 17.206 52.1947 18.0382 52.8971 18.7382C53.5995 19.4381 54.4338 19.9919 55.3517 20.3673C56.2696 20.7428 57.2529 20.9325 58.2446 20.9255C62.3769 20.9377 65.8887 17.502 65.905 13.4338C65.9233 9.25566 62.3627 5.70406 58.1856 5.74678C54.0898 5.78339 50.6838 9.26176 50.6879 13.3992H50.692Z" fill="black"/>
<path d="M55.3563 43.0651C55.3563 45.0992 55.3563 47.1232 55.3563 49.1532C55.3787 53.2602 58.4082 56.4212 62.3616 56.4578C64.2985 56.4773 66.1638 55.7269 67.5474 54.3716C68.9309 53.0162 69.7193 51.167 69.7392 49.2305C69.7961 44.9589 69.7534 40.7055 69.7575 36.4419C69.7575 34.9692 69.7697 34.9591 71.2143 34.955C73.4768 34.955 73.2489 34.8533 73.2489 36.9891C73.2489 41.0818 73.2327 45.1765 73.2489 49.2692C73.2673 52.3631 75.0069 54.8936 77.7923 55.9818C80.4943 57.0375 83.6928 56.3602 85.6521 54.2671C86.9391 52.9364 87.6503 51.1526 87.6318 49.3017C87.6318 45.0056 87.6318 40.7089 87.6318 36.4114C87.6318 34.9875 87.6583 34.9611 89.0215 34.9611C91.4183 34.9611 91.3003 34.7577 91.2596 37.1986C91.2026 41.5273 91.3776 45.8539 91.1253 50.1825C90.8323 55.2109 86.1933 59.7429 81.1434 59.9667C77.3711 60.1274 74.3314 58.8072 72.0017 55.8679C71.5398 55.2862 71.2753 55.3411 70.8542 55.8679C69.2854 57.8309 67.3118 59.1713 64.8316 59.7328C58.5242 61.1872 52.2697 56.529 51.8486 50.0706C51.5454 45.4064 51.7916 40.738 51.698 36.0738C51.6817 35.2459 52.0256 34.9285 52.8455 34.9367C55.6432 34.9611 55.3176 34.7536 55.3319 37.3776C55.3644 39.2755 55.3563 41.1774 55.3563 43.0651Z" fill="black"/>
<path d="M75.8453 17.6763C76.0142 17.6763 76.1831 17.6763 76.354 17.6763C77.0275 17.7007 77.7599 17.5685 78.3561 17.7983C79.0153 18.0506 78.7752 18.9313 79.0458 19.4968C79.6379 20.7437 80.6084 21.4476 81.9757 21.5086C83.227 21.5655 84.3298 21.1689 85.0094 20.0359C85.7825 18.7442 85.3878 17.4423 84.047 16.6999C82.7631 15.9879 81.3511 15.6177 79.9553 15.2129C77.9064 14.6169 76.0183 13.7463 74.6876 11.9929C73.0864 9.87943 72.9582 7.5178 73.9328 5.17448C75.2472 2.00733 79.0845 -0.189532 82.5759 0.0443938C86.22 0.28849 89.0075 2.56062 90.0797 6.159C90.4337 7.351 90.3117 7.52391 89.0624 7.53204C87.8131 7.54018 86.6208 7.51984 85.4102 7.53204C84.8405 7.53204 84.4926 7.31236 84.2179 6.79162C83.3227 5.09922 81.6665 4.68222 80.0286 5.68301C79.7755 5.82418 79.5596 6.02336 79.3986 6.2642C79.2375 6.50503 79.1359 6.78064 79.1022 7.06837C79.0684 7.35609 79.1034 7.64772 79.2043 7.91929C79.3052 8.19085 79.4692 8.43459 79.6827 8.63047C80.1527 9.10646 80.7468 9.32818 81.3572 9.54583C83.107 10.1703 84.9117 10.6565 86.5903 11.4681C90.1021 13.1666 91.6423 15.7642 91.2944 19.745C90.9933 23.1339 88.8345 25.107 85.7886 26.2298C80.6145 28.1358 74.9542 25.6074 73.3142 20.6848C72.3702 17.8553 72.5004 17.6783 75.4404 17.6763H75.8453Z" fill="black"/>
<path d="M36.8066 33.7041C40.2569 33.7471 43.5514 35.1475 45.9761 37.602C48.4009 40.0565 49.7605 43.3674 49.7605 46.8172C49.7605 50.2669 48.4009 53.5778 45.9761 56.0323C43.5514 58.4868 40.2569 59.8872 36.8066 59.9302C29.6324 59.9302 23.6668 53.9661 23.6709 46.7999C23.6768 43.3221 25.0638 39.9891 27.527 37.5334C29.9902 35.0777 33.3279 33.7003 36.8066 33.7041ZM46.4345 46.8263C46.4345 41.4359 42.2614 37.2008 36.9164 37.1825C31.4717 37.1621 27.1725 41.3708 27.1501 46.7327C27.1416 48.0032 27.3837 49.2629 27.8628 50.4396C28.3419 51.6164 29.0485 52.6871 29.942 53.5905C30.8356 54.4938 31.8986 55.2121 33.0703 55.7042C34.2419 56.1962 35.4991 56.4524 36.7699 56.4579C38.0412 56.4748 39.303 56.2374 40.4812 55.7598C41.6594 55.2821 42.7301 54.5738 43.6306 53.6764C44.531 52.779 45.2429 51.7108 45.7244 50.5344C46.2059 49.358 46.4473 48.0973 46.4345 46.8263Z" fill="black"/>
<path d="M4.33758 36.6302C5.42815 35.6131 6.50447 34.8239 7.79647 34.3255C14.3643 31.7849 21.9718 36.8173 22.0898 43.8595C22.1672 48.4241 22.0898 52.9928 22.1265 57.5594C22.1265 58.4158 21.8701 58.7799 20.9688 58.7595C18.2912 58.7046 18.6106 59.0057 18.6025 56.4488C18.5882 52.5249 18.6025 48.6011 18.6025 44.6772C18.5903 40.4788 15.4671 37.214 11.4914 37.2221C7.58487 37.2221 4.25416 40.6802 4.23992 44.7484C4.22364 48.9082 4.23992 53.0701 4.23992 57.2299C4.23992 58.6822 4.23992 58.6863 2.83398 58.8226C2.53285 58.8531 2.22359 58.847 1.92246 58.849C1.06587 58.849 0.685395 58.5073 0.701672 57.5614C0.736939 50.4243 0.736939 43.2866 0.701672 36.1481C0.701672 35.2083 1.02721 34.8361 1.93874 34.9276C2.14207 34.9379 2.34579 34.9379 2.54913 34.9276C4.09139 34.9398 4.09139 34.9398 4.33758 36.6302Z" fill="black"/>
<path d="M35.4629 4.18633C37.7559 1.96912 40.226 0.728297 43.0887 0.305197C43.4549 0.250275 43.8273 0.236036 44.1976 0.215695C44.8263 0.179081 45.0481 0.502508 44.9687 1.09648C44.7652 2.56919 44.5618 4.0419 44.3929 5.51665C44.3136 6.18791 43.8842 6.27335 43.3329 6.34251C40.0306 6.74934 37.5972 8.40309 36.1607 11.4421C35.682 12.4916 35.4442 13.6349 35.4649 14.7882C35.4649 18.0429 35.4364 21.2792 35.4771 24.5236C35.4893 25.4695 35.2106 25.8865 34.2116 25.8275C33.0974 25.7654 31.9807 25.7654 30.8666 25.8275C29.8859 25.8783 29.5644 25.4776 29.5726 24.5236C29.6051 20.5692 29.5848 16.6129 29.5848 12.6585C29.5848 9.27776 29.6072 5.89703 29.5705 2.5163C29.5604 1.55619 29.9022 1.17174 30.8727 1.22259C31.9875 1.28463 33.1049 1.28463 34.2197 1.22259C35.2228 1.16157 35.5605 1.5867 35.471 2.52851C35.4283 2.99025 35.4629 3.45811 35.4629 4.18633Z" fill="black"/>
</mask>
<g mask="url(#mask0)">
<path d="M91.3434 -1.74316H0.655273V60.0111H91.3434V-1.74316Z" fill="url(#paint0_linear)"/>
</g>
<defs>
<linearGradient id="paint0_linear" x1="4.10806" y1="9.91243" x2="86.5223" y2="47.7467" gradientUnits="userSpaceOnUse">
<stop stop-color="#036FB8"/>
<stop offset="0.33" stop-color="#16A7E0"/>
<stop offset="1" stop-color="#76C854"/>
</linearGradient>
</defs>
</svg>
