<svg width="64" height="71" viewBox="0 0 64 71" fill="none" xmlns="http://www.w3.org/2000/svg">
<path d="M30.1797 16.1583V1.44771C30.1797 0.171234 30.3509 0 31.5962 0H46.3847C47.5677 0 47.7701 0.217935 47.7857 1.41658V2.89542C47.7701 3.84499 47.521 4.09406 46.5715 4.09406H36.8422C35.27 4.09406 35.1455 4.21859 35.1455 5.7597V30.8845C35.1455 32.2388 34.9898 32.3944 33.6199 32.3944H31.5184C30.3976 32.3944 30.1797 32.1765 30.1797 31.0868V16.1583Z" fill="#EA145A"/>
<path d="M32.6237 48.1946C25.5563 47.8522 20.2014 44.6765 16.7611 38.4187C16.4654 37.8894 16.2319 37.3446 16.2941 36.7219C16.343 36.2405 16.5447 35.7875 16.8696 35.4289C17.1945 35.0704 17.6256 34.8253 18.0999 34.7294C19.0961 34.527 20.0613 34.9784 20.5594 35.9591C21.475 37.8589 22.8176 39.5212 24.4822 40.816C26.0264 42.0214 27.8172 42.872 29.7272 43.3072C31.6373 43.7423 33.6197 43.7515 35.5337 43.3339C37.4477 42.9163 39.2462 42.0823 40.8014 40.8911C42.3567 39.6999 43.6304 38.1808 44.5322 36.4417C45.3728 34.8228 46.5559 34.2779 47.8168 34.9162C49.1089 35.57 49.3891 36.9243 48.5018 38.5277C45.0304 44.7388 39.7065 47.8522 32.6237 48.1946Z" fill="#EA145A"/>
<path d="M43.8784 14.6016C44.3453 14.6028 44.8074 14.6967 45.2378 14.8778C45.6681 15.0589 46.0583 15.3237 46.3855 15.6567C46.7128 15.9898 46.9707 16.3845 47.1442 16.818C47.3178 17.2515 47.4035 17.7151 47.3965 18.182C47.3964 18.8927 47.1847 19.5874 46.7885 20.1774C46.3923 20.7675 45.8294 21.2263 45.1715 21.4953C44.5137 21.7644 43.7906 21.8316 43.0944 21.6883C42.3983 21.545 41.7605 21.1978 41.2623 20.6908C40.7642 20.1838 40.4282 19.5401 40.2972 18.8415C40.1661 18.1429 40.246 17.4212 40.5265 16.7681C40.8071 16.1151 41.2757 15.5603 41.8726 15.1745C42.4695 14.7887 43.1678 14.5893 43.8784 14.6016Z" fill="#EA145A"/>
<path d="M18.0532 18.1196C18.0625 17.414 18.2811 16.727 18.6812 16.1457C19.0813 15.5644 19.6449 15.115 20.3006 14.8543C20.9564 14.5935 21.6748 14.5333 22.3648 14.6812C23.0548 14.8291 23.6853 15.1785 24.1766 15.6851C24.6679 16.1916 24.9978 16.8326 25.1245 17.5268C25.2512 18.221 25.169 18.9372 24.8883 19.5847C24.6077 20.2321 24.1411 20.7817 23.5479 21.1638C22.9546 21.5459 22.2613 21.7434 21.5557 21.7311C20.6127 21.7155 19.7143 21.3266 19.0577 20.6495C18.4011 19.9725 18.0398 19.0627 18.0532 18.1196Z" fill="#EA145A"/>
<path d="M10.2386 62.0801C10.2386 60.6013 10.2542 59.1224 10.2231 57.6436C10.2075 57.0988 10.4099 56.8964 10.9391 56.912C11.8731 56.9431 12.8072 56.8964 13.7412 56.9431C15.2356 57.0365 16.1229 57.9238 16.2163 59.4182C16.2941 60.6636 16.2941 61.8778 14.9865 62.625C14.644 62.8118 14.8308 63.1231 14.9398 63.3877C15.3134 64.384 15.687 65.3803 16.045 66.3766C16.1384 66.6412 16.4965 67.0926 15.9516 67.2016C15.5158 67.295 14.8931 67.5596 14.6285 66.828C14.286 65.8473 13.9435 64.8666 13.5855 63.9014C13.3676 63.2943 12.4336 62.9519 11.8887 63.2632C11.6396 63.4189 11.6863 63.6679 11.6863 63.8859C11.6863 64.7887 11.6708 65.7072 11.6863 66.6101C11.7019 67.1393 11.4528 67.2639 10.9858 67.2639C10.4877 67.2639 10.2075 67.1705 10.2075 66.5945C10.2542 65.0845 10.2386 63.5745 10.2386 62.0801ZM11.7175 60.0409V61.4263C11.7175 61.6131 11.7175 61.7844 11.9043 61.9089C12.8227 62.5004 14.5818 61.7532 14.753 60.6791C14.8022 60.3233 14.8127 59.9631 14.7841 59.605C14.6596 58.4219 14.0214 58.0328 12.3869 58.1106C11.2193 58.1729 11.9354 59.0757 11.733 59.5739C11.6708 59.714 11.7175 59.8852 11.7175 60.0409Z" fill="#2F9ED6"/>
<path d="M59.9589 60.7883C60.5037 59.5741 60.9552 58.5934 61.4066 57.6127C61.543 57.314 61.787 57.0775 62.0899 56.9506C62.3928 56.8237 62.7324 56.8155 63.0411 56.9278C63.4458 57.099 63.1189 57.3325 63.0567 57.4882C62.4807 58.7335 61.8892 59.9789 61.2665 61.1931C61.0019 61.6912 60.9707 62.1115 61.2509 62.6252C61.9514 63.9173 62.5585 65.2716 63.2435 66.5792C63.5081 67.0929 63.3991 67.2174 62.8387 67.2486C62.1849 67.2797 61.7958 67.1084 61.5467 66.4546C61.2042 65.5673 60.7684 64.7112 60.3481 63.8394C60.2546 63.6371 60.2391 63.3102 59.9589 63.3257C59.7098 63.3413 59.6787 63.6682 59.5853 63.8706C59.1494 64.789 58.7291 65.7074 58.3088 66.6103C58.0597 67.1396 57.2036 67.4509 56.6899 67.2019C56.363 67.0306 56.612 66.7971 56.6899 66.6259C57.3437 65.2716 57.9819 63.9173 58.6824 62.5941C58.8047 62.3865 58.8691 62.15 58.8691 61.9092C58.8691 61.6683 58.8047 61.4318 58.6824 61.2242C58.0442 59.9789 57.4682 58.7024 56.8455 57.4571C56.6276 57.0368 56.7521 56.9434 57.188 56.9122C57.8729 56.85 58.3399 56.9901 58.6046 57.7373C58.947 58.7024 59.4296 59.6208 59.9589 60.7883Z" fill="#EA145A"/>
<path d="M0.0735502 62.0178C0.0735502 60.539 0.0891169 59.0601 0.0579834 57.5813C0.0579834 57.0831 0.213651 56.8808 0.727354 56.8963C2.09723 56.9275 3.4671 56.9119 4.85255 56.8963C5.30398 56.8963 5.50635 57.0364 5.50635 57.519C5.50635 58.0327 5.25728 58.1261 4.83698 58.1105C3.94967 58.095 3.07794 58.1261 2.19063 58.095C1.72363 58.0794 1.53683 58.2662 1.55239 58.7332C1.56796 59.5894 1.56796 60.4456 1.55239 61.3017C1.53683 61.7687 1.72363 61.9555 2.19063 61.94C2.89113 61.9088 3.59164 61.9555 4.29214 61.9244C4.74358 61.9088 4.86811 62.1268 4.86811 62.5315C4.86811 62.9362 4.74358 63.1542 4.29214 63.1542C3.5605 63.1386 2.84443 63.1697 2.1128 63.1542C1.72363 63.1386 1.55239 63.3098 1.55239 63.699C1.56796 64.275 1.56796 64.8354 1.55239 65.4114C1.53683 65.9095 1.77033 66.034 2.22176 66.0185C3.07794 66.0029 3.93411 66.034 4.79028 66.0029C5.24171 65.9873 5.52192 66.0807 5.52192 66.6411C5.52192 67.1548 5.25728 67.2327 4.83698 67.2327C3.48267 67.2171 2.14393 67.2015 0.789621 67.2327C0.229218 67.2482 0.0735502 67.0303 0.0891169 66.501C0.0891169 65.0222 0.0735502 63.5278 0.0735502 62.0178Z" fill="#2F9ED6"/>
<path d="M22.1784 62.7184C22.1784 61.4419 22.1472 60.181 22.1939 58.9045C22.2095 58.2818 21.976 58.0639 21.3845 58.1106C21.0731 58.1417 20.7618 58.095 20.4505 58.1262C20.0146 58.1573 19.7655 58.0328 19.7811 57.5346C19.7967 57.0365 20.0146 56.912 20.4505 56.9275C22.1161 56.9431 23.7662 56.9431 25.4318 56.9275C25.8988 56.9275 26.0701 57.0832 26.0701 57.5658C26.0701 58.0172 25.8833 58.1262 25.463 58.1573C23.6572 58.2351 23.6572 58.2507 23.6572 60.1187C23.6572 62.2514 23.6416 64.3684 23.6572 66.5011C23.6572 67.0148 23.5949 67.3106 22.9567 67.3106C22.3185 67.3106 22.1628 67.0771 22.1784 66.4855C22.1939 65.1935 22.1784 63.9481 22.1784 62.7184Z" fill="#2F9ED6"/>
<path d="M41.7925 62.0958C41.7925 60.6169 41.8236 59.1381 41.7769 57.6748C41.7614 57.1144 41.917 56.8965 42.5086 56.8965C43.069 56.8965 43.2869 57.0677 43.2869 57.6593C43.2558 60.0721 43.3025 62.4694 43.2558 64.8822C43.2402 65.5672 43.4114 65.8629 44.1586 65.8007C44.8747 65.7384 45.6064 65.8162 46.338 65.7851C46.9607 65.754 46.9918 66.0809 46.9918 66.5479C46.9918 66.9837 46.9607 67.2795 46.3691 67.2639C45.046 67.2172 43.7228 67.2328 42.4152 67.2639C41.917 67.2795 41.7925 67.0771 41.8081 66.6257C41.8081 65.1002 41.7925 63.6058 41.7925 62.0958Z" fill="#EA145A"/>
<path d="M32.0944 61.6134C32.0944 60.2902 32.11 58.967 32.0788 57.6594C32.0633 57.099 32.2189 56.8655 32.8105 56.8811C34.0714 56.9278 35.3478 56.9122 36.6088 56.8811C37.0758 56.8811 37.247 57.0523 37.247 57.5193C37.247 57.9863 37.0446 58.0953 36.6243 58.0953C35.8771 58.0797 35.1143 58.1264 34.3671 58.0797C33.7445 58.0486 33.4954 58.251 33.511 58.9048C33.5421 61.1308 33.511 63.3569 33.5421 65.5829C33.5421 66.1745 33.3864 66.3924 32.7482 66.3924C32.11 66.3924 32.0633 66.0499 32.0633 65.5518C32.0944 64.2597 32.0944 62.9366 32.0944 61.6134Z" fill="#EA145A"/>
<path d="M50.9613 62.0333C50.9613 60.5233 50.9769 59.0289 50.9457 57.5189C50.9302 57.0208 51.1481 56.8807 51.584 56.9118C52.0198 56.943 52.4401 56.8496 52.4401 57.5034C52.4246 60.57 52.4246 63.6211 52.4401 66.6878C52.4401 67.3883 51.942 67.1859 51.5684 67.2326C51.1014 67.2949 50.9457 67.1081 50.9457 66.6255C50.9769 65.0999 50.9613 63.5744 50.9613 62.0333Z" fill="#EA145A"/>
<path d="M32.7638 71.0001C30.7712 70.8911 29.2301 70.0038 28.2183 68.2447C27.9848 67.84 27.8914 67.4353 28.3584 67.1551C28.8254 66.8749 29.1056 67.1862 29.3547 67.5754C31.1604 70.3774 34.4605 70.393 36.2507 67.5909C36.4998 67.2018 36.78 66.8904 37.247 67.1551C37.7607 67.4508 37.6206 67.8867 37.3715 68.2915C36.3441 70.0505 34.803 70.9222 32.7638 71.0001Z" fill="#EA145A"/>
<path d="M29.557 61.1775C29.7617 61.1729 29.9631 61.2292 30.1358 61.3391C30.3086 61.449 30.4448 61.6076 30.5274 61.7949C30.6099 61.9823 30.6351 62.1899 30.5997 62.3915C30.5643 62.5931 30.4699 62.7797 30.3284 62.9277C30.187 63.0757 30.0048 63.1784 29.805 63.2229C29.6051 63.2674 29.3966 63.2516 29.2057 63.1776C29.0149 63.1035 28.8503 62.9746 28.7327 62.807C28.6151 62.6394 28.5499 62.4407 28.5452 62.236C28.543 61.9626 28.6474 61.6991 28.8363 61.5015C29.0253 61.3038 29.2838 61.1876 29.557 61.1775Z" fill="#EA145A"/>
<path d="M37.1225 62.2051C37.1233 62.4793 37.0158 62.7427 36.8234 62.9381C36.631 63.1334 36.3692 63.2448 36.0951 63.2481C35.959 63.2522 35.8236 63.2284 35.6971 63.1783C35.5706 63.1281 35.4557 63.0525 35.3594 62.9563C35.2632 62.8601 35.1877 62.7452 35.1375 62.6187C35.0873 62.4922 35.0635 62.3567 35.0676 62.2207C35.066 62.0846 35.0913 61.9495 35.1422 61.8232C35.193 61.697 35.2684 61.582 35.3639 61.4851C35.4595 61.3881 35.5733 61.311 35.6987 61.2583C35.8242 61.2055 35.9589 61.1781 36.0951 61.1777C36.3652 61.1852 36.6222 61.2958 36.8133 61.4869C37.0044 61.678 37.115 61.935 37.1225 62.2051Z" fill="#EA145A"/>
</svg>
