<svg width="109" height="24" viewBox="0 0 109 24" fill="none" xmlns="http://www.w3.org/2000/svg">
<path d="M64.0115 0.939941C68.241 0.939941 69.3945 3.43332 69.0741 6.18243C69.01 6.69389 68.946 7.39715 68.946 7.39715H24.1516C24.1516 7.39715 24.2797 6.50209 24.4079 5.47917C24.7283 2.79399 26.9712 0.939941 30.4318 0.939941H64.0115ZM68.6255 9.89052C68.6255 9.89052 68.4974 10.7856 68.3692 11.8085C68.1129 13.7904 66.639 15.2609 63.9474 15.2609H54.399L53.3737 23.9557H45.8118L47.5421 9.89052C47.478 9.89052 68.6255 9.89052 68.6255 9.89052ZM3.13218 0.939941H23.4467L22.6777 7.39715H2.36317L3.13218 0.939941ZM2.04276 9.82659H22.3572L21.7164 15.1969H8.96378L8.64336 17.8182H21.3319L20.627 23.9557H0.3125L2.04276 9.82659ZM71.253 0.939941H87.7865C90.4139 0.939941 93.1054 2.15466 92.5928 6.37422C92.5287 7.14142 92.4646 7.39715 92.4646 7.39715H70.484L71.253 0.939941ZM68.4333 23.9557L70.1635 9.89052H77.7254L75.9951 23.9557H68.4333ZM82.8521 23.9557L84.5823 9.89052H92.2083L90.478 23.9557H82.8521ZM40.557 9.89052C42.928 9.89052 45.94 10.9134 45.3632 15.3248C45.2351 16.092 44.9146 19.6722 44.4661 20.6952C43.1844 23.8279 39.4035 23.8918 38.8908 23.9557C38.25 23.9557 22.165 23.9557 22.165 23.9557L22.934 17.8182H37.6732L37.9936 15.1969C37.9936 15.1969 29.1501 15.1969 27.7402 15.1969C25.1769 15.1969 23.3185 13.5347 23.8952 9.82659C26.4586 9.82659 39.2112 9.89052 40.557 9.89052Z" fill="black"/>
<path fill-rule="evenodd" clip-rule="evenodd" d="M102.752 10.0825L103.457 4.26465H97.561L96.8561 10.0825H91.3449L90.7041 15.8365H96.2153L95.5104 21.7822H101.406L102.111 15.8365H107.622L108.263 10.0825H102.752Z" fill="#F9B300"/>
</svg>
