<svg width="138" height="19" viewBox="0 0 138 19" fill="none" xmlns="http://www.w3.org/2000/svg">
<path d="M118.169 11.4882C119.619 13.518 121.045 15.5098 122.543 17.6106H121.806C120.917 17.6106 120.028 17.5962 119.14 17.6178C119.007 17.6297 118.873 17.6025 118.755 17.5395C118.637 17.4766 118.54 17.3806 118.476 17.2634C117.324 15.5283 116.159 13.8026 114.997 12.0747C114.895 11.9206 114.792 11.7666 114.587 11.4799V17.5654H111.299V2.26758C111.582 2.26758 111.833 2.26758 112.085 2.26758C113.981 2.2912 115.886 2.24601 117.773 2.36311C119.299 2.45762 120.649 3.07397 121.444 4.47C122.951 7.10284 121.773 10.653 118.522 11.3824C118.422 11.4019 118.328 11.4399 118.169 11.4882ZM114.593 9.01147C115.25 9.01147 115.845 9.01147 116.442 9.01147C116.613 9.0159 116.785 9.01041 116.955 8.99503C118.004 8.86971 118.671 8.14755 118.728 7.08332C118.778 6.1588 118.262 5.36884 117.365 5.26715C116.468 5.16545 115.543 5.24455 114.598 5.24455L114.593 9.01147Z" fill="#241C32"/>
<path d="M90.0897 7.18972C92.4945 7.18972 94.7658 7.17123 97.036 7.20307C97.5732 7.21129 97.8105 7.05617 97.9718 6.5333C98.6354 4.3843 99.3504 2.2507 100.083 0C100.178 0.22394 100.243 0.34721 100.288 0.477671C100.979 2.54655 101.677 4.61543 102.35 6.69047C102.477 7.08288 102.675 7.21437 103.086 7.21026C105.223 7.19074 107.361 7.20204 109.498 7.20204H110.159C109.587 7.62219 109.144 7.95091 108.697 8.27449C107.274 9.30174 105.854 10.3454 104.417 11.3562C104.063 11.6059 104.006 11.839 104.141 12.2489C104.837 14.3342 105.498 16.4308 106.171 18.5244C106.21 18.6477 106.246 18.773 106.314 19L101.92 15.8237C101.449 15.4827 100.972 15.1519 100.516 14.7965C100.223 14.5664 99.9955 14.591 99.6996 14.8129C98.0088 16.0569 96.3046 17.2783 94.6035 18.511C94.4197 18.6488 94.22 18.764 94.0087 18.8541C94.2511 17.9882 94.3888 17.1078 95.0031 16.3733C97.1736 13.7816 99.6637 11.5298 102.307 9.43734C102.401 9.36337 102.496 9.29044 102.585 9.21134C102.606 9.19285 102.608 9.15279 102.657 9.00589C102.065 9.16203 101.513 9.24421 101.013 9.45275C99.5681 10.0557 98.131 10.6854 96.7206 11.3593C96.3097 11.5566 96.0693 11.5761 95.6934 11.2915C93.9604 9.98897 92.1946 8.73162 90.441 7.4568C90.3568 7.40544 90.2808 7.33969 90.0897 7.18972Z" fill="url(#paint0_linear)"/>
<path d="M79.9662 5.29159L77.1207 6.54586C76.9214 6.23769 76.7663 5.95417 76.5639 5.70455C76.0431 5.06457 75.3641 4.8283 74.5526 4.99985C73.9886 5.11799 73.5818 5.4313 73.4452 6.00656C73.3044 6.59723 73.4955 7.10982 73.9917 7.44471C74.4385 7.72613 74.9039 7.97701 75.3846 8.19562C76.1653 8.58084 76.9779 8.90648 77.7329 9.33382C79.4536 10.3087 80.3185 11.7766 80.1017 13.7849C79.8963 15.6678 78.7869 16.843 77.0755 17.4984C74.5526 18.465 71.5571 17.5744 70.1991 15.4439C69.9022 14.9796 69.7091 14.4505 69.442 13.8969L72.4303 13.0237C72.6008 13.3257 72.7384 13.602 72.9018 13.8558C73.4935 14.7567 74.6871 15.1912 75.6394 14.8543C76.2557 14.6396 76.6451 14.2287 76.7539 13.5743C76.8567 12.9374 76.6512 12.396 76.1191 12.0622C75.4 11.6092 74.6255 11.2404 73.8838 10.8223C73.0836 10.3693 72.2156 9.99434 71.5129 9.41805C69.3773 7.66762 69.6279 4.39686 71.9516 2.8981C74.3009 1.38188 77.8069 1.96536 79.3169 4.1308C79.5563 4.47904 79.7309 4.86836 79.9662 5.29159Z" fill="#241C32"/>
<path d="M91.1652 2.30777V5.26522H87.7979V17.5789H84.4686V5.28371H81.1044V2.30469L91.1652 2.30777Z" fill="#241C32"/>
<path d="M132.839 8.7036H137.696V11.169H136.265C135.29 11.169 134.313 11.1865 133.341 11.1618C132.953 11.1515 132.842 11.2799 132.848 11.658C132.868 12.904 132.855 14.1511 132.855 15.3972V15.993H130.287V11.1978H125.49V8.7221H130.265V3.9043H132.834L132.839 8.7036Z" fill="#241C32"/>
<path d="M15.0401 17.6437C15.0401 17.4348 15.0735 17.2259 15.0944 17.0129C15.1362 16.5575 15.1821 16.1063 15.2239 15.651L15.3618 14.264C15.3618 14.0718 15.3994 13.8838 15.4119 13.6916C15.4119 13.6164 15.4412 13.5914 15.5205 13.5914H25.6304L25.9019 11.7574H18.7624C18.2764 11.7624 17.7978 11.6384 17.3754 11.3981C17.1066 11.238 16.8724 11.0258 16.6866 10.774C16.5008 10.5222 16.3671 10.2359 16.2934 9.93178C16.1684 9.44933 16.1344 8.9478 16.1931 8.45289C16.1931 8.3401 16.2224 8.2273 16.2349 8.10615H27.8571C28.4748 8.09457 29.0864 8.23063 29.6409 8.50303C30.0001 8.67914 30.3111 8.94005 30.5469 9.26321C30.7827 9.58638 30.9363 9.96208 30.9945 10.3579C31.0816 10.9042 31.0703 11.4616 30.9611 12.0039C30.8775 12.4718 30.8232 12.948 30.7438 13.4201C30.6519 13.9799 30.5684 14.5439 30.443 15.0912C30.3553 15.4712 30.1912 15.8294 29.9607 16.144C29.7301 16.4585 29.438 16.7229 29.102 16.921C28.5911 17.235 28.0232 17.4451 27.431 17.5392C27.2179 17.581 27.0132 17.5977 26.7876 17.6228H26.7166L15.0401 17.6437Z" fill="#DD0000"/>
<path d="M0 17.643C0.0584868 17.1876 0.112796 16.7281 0.171283 16.2686C0.238125 15.7464 0.300789 15.2242 0.363454 14.7019C0.426118 14.1797 0.492961 13.6534 0.559803 13.127C0.626645 12.6006 0.689309 12.0826 0.751974 11.5604C0.814638 11.0382 0.88148 10.5118 0.948322 9.9854C1.01516 9.45902 1.07365 8.94099 1.14049 8.41879L1.17809 8.10547H15.1732C15.1439 8.34777 15.1188 8.5859 15.0938 8.82402L14.9309 10.3071C14.8849 10.7248 14.8348 11.1635 14.7888 11.5938C14.7888 11.6356 14.7888 11.6523 14.7262 11.6481H6.01579L5.7526 13.4821H14.5256C14.5256 13.6074 14.5006 13.7244 14.4838 13.8414C14.3961 14.539 14.3084 15.2325 14.2248 15.9302L14.0118 17.6012C14.0139 17.6235 14.0139 17.6458 14.0118 17.6681L0 17.643Z" fill="#DD0000"/>
<path d="M31.2741 17.643C31.3159 17.2795 31.3618 16.9161 31.4078 16.5526C31.4705 16.0304 31.5373 15.5041 31.6 14.9777C31.6626 14.4513 31.7295 13.9333 31.7921 13.4111C31.8548 12.8889 31.9133 12.446 31.9718 11.9614C32.0303 11.4768 32.1013 10.9128 32.1681 10.3865C32.235 9.86007 32.2935 9.34205 32.3603 8.81984C32.3854 8.59843 32.4146 8.37284 32.4397 8.15142V8.10547H47.0614C47.0363 8.27257 47.0112 8.43968 46.9945 8.60678C46.9778 8.77389 46.9486 9.04544 46.9402 9.26685C46.9343 9.72325 46.7993 10.1686 46.5509 10.5516C46.3025 10.9345 45.9509 11.2393 45.5365 11.4309C45.0784 11.652 44.5746 11.7622 44.066 11.7525H37.4152C37.3902 11.928 37.3609 12.1035 37.3359 12.2747C37.2272 12.9557 37.1228 13.6408 37.0142 14.3218C36.9056 15.0027 36.8053 15.6837 36.6967 16.3646C36.634 16.7824 36.563 17.2002 36.4961 17.6388L31.2741 17.643Z" fill="#DD0000"/>
<path d="M63.5005 5.10872C63.5005 5.23405 63.4796 5.3552 63.4587 5.47635C63.4211 5.68106 63.3794 5.89411 63.3376 6.09046C63.3376 6.14477 63.3376 6.19908 63.3083 6.25757H48.2689C48.4401 4.82046 48.6156 3.38754 48.7911 1.95043H60.1584C60.7171 1.9376 61.2735 2.02679 61.8002 2.21362C62.2466 2.35982 62.6415 2.63133 62.9377 2.99578C63.234 3.36022 63.4192 3.80221 63.4713 4.26902C63.4713 4.39017 63.5005 4.51132 63.5172 4.62829L63.5005 5.10872Z" fill="#DD0000"/>
<path d="M56.7789 17.6412C56.8082 17.4281 56.8416 17.2234 56.8708 16.9937C56.9544 16.3963 57.0338 15.7947 57.1131 15.1973C57.1925 14.5999 57.2761 14.0108 57.3554 13.4176C57.4348 12.8244 57.5142 12.2353 57.5977 11.6421L57.8359 9.8708C57.9194 9.25251 58.003 8.6384 58.0823 8.02011C58.0823 7.96997 58.1158 7.9658 58.1576 7.96997L60.8438 8.03682L63.2375 8.0953H63.3211C63.2793 8.38356 63.2417 8.65928 63.2041 8.93083L62.9785 10.5685C62.8992 11.1575 62.8198 11.7466 62.7362 12.3314C62.6527 12.9163 62.59 13.4218 62.5148 13.9649C62.4396 14.508 62.3519 15.143 62.2725 15.7278L62.0469 17.3696C62.0469 17.4574 62.0469 17.5451 62.0177 17.6287L56.7789 17.6412Z" fill="#DD0000"/>
<path d="M46.9655 17.6402C46.9655 17.4898 47.0073 17.3436 47.0282 17.1891C47.0908 16.6543 47.1577 16.1154 47.2245 15.5765C47.2914 15.0376 47.3499 14.5154 47.4167 13.989C47.4835 13.4626 47.5462 12.9279 47.6089 12.3973C47.6715 11.8668 47.7258 11.4239 47.7885 10.9393C47.8512 10.4547 47.918 9.87402 47.9807 9.33928C48.035 8.8881 48.0935 8.43274 48.1478 7.96484L53.374 8.09435C53.3531 8.27399 53.3364 8.44527 53.3155 8.61655C53.2487 9.14711 53.1818 9.67767 53.1192 10.2082L52.9061 11.9043C52.8434 12.4266 52.7808 12.9488 52.7139 13.471C52.6471 13.9932 52.5844 14.5195 52.5218 15.0459C52.4591 15.5723 52.3923 16.082 52.3296 16.5958C52.2878 16.9217 52.2502 17.2434 52.2084 17.565C52.2064 17.5901 52.2064 17.6152 52.2084 17.6402H46.9655Z" fill="#DD0000"/>
<path d="M47.0951 6.39089H16.3561C16.3561 6.24467 16.3561 6.10264 16.377 5.97313C16.4024 5.52309 16.4723 5.07668 16.5859 4.64046C16.81 3.80309 17.3508 3.08558 18.094 2.63938C18.6563 2.28548 19.2923 2.06537 19.953 1.99602C20.2403 1.96613 20.529 1.95079 20.8178 1.95007H43.7948C44.3603 1.94011 44.924 2.01762 45.4658 2.17984C45.8806 2.29309 46.2637 2.50037 46.5854 2.7856C47.0073 3.20148 47.2628 3.75707 47.304 4.34803C47.3402 4.74742 47.3177 5.14997 47.2372 5.54283C47.1996 5.75589 47.1494 5.9606 47.1118 6.17783C47.1012 6.24836 47.0956 6.31956 47.0951 6.39089Z" fill="#DD0000"/>
<path d="M1.44217 6.38586L1.96437 1.94922H15.9594L15.4581 6.38586H1.44217Z" fill="#DD0000"/>
<defs>
<linearGradient id="paint0_linear" x1="90.213" y1="20.28" x2="108.868" y2="3.50908" gradientUnits="userSpaceOnUse">
<stop stop-color="#FA165F"/>
<stop offset="1" stop-color="#FFC121"/>
</linearGradient>
</defs>
</svg>
