<svg width="119" height="47" viewBox="0 0 119 47" fill="none" xmlns="http://www.w3.org/2000/svg">
<path d="M4.70963 19.5259C4.70963 19.9202 4.70963 20.3803 4.70963 20.7747C4.70963 21.9577 4.90681 23.0751 5.3669 24.1924C6.08989 25.9671 7.33869 27.3473 9.04758 28.2675C10.2307 28.9247 11.4137 29.3191 12.7283 29.582C14.3714 29.9106 16.0146 29.9764 17.6578 29.9106C20.3525 29.7792 22.9816 29.1877 25.4135 27.8731C27.451 26.8215 29.1599 25.3755 30.6059 23.6009C30.8031 23.4037 30.9345 23.2065 31.1317 22.9436C28.897 22.9436 26.6623 22.9436 24.4933 22.9436C23.9675 23.338 23.5074 23.7323 23.0473 24.1267C21.9957 24.8497 20.8784 25.1783 19.6953 25.3755C18.6437 25.5727 17.592 25.5727 16.5404 25.507C15.2259 25.4412 13.9771 25.1126 12.9254 24.3239C11.8738 23.5352 11.2823 22.4835 11.0851 21.2347C11.0194 20.7089 10.8879 20.1174 11.0194 19.5916C20.7469 19.5916 30.4744 19.5916 40.2677 19.5916C40.1362 20.1831 40.0048 20.7747 39.8076 21.3662C39.216 23.7323 38.6245 26.1642 38.0987 28.5304C37.9015 29.2534 37.7701 30.0421 37.5729 30.8308C37.4414 31.4224 37.4414 32.0796 37.5072 32.6712C37.6386 33.5913 38.2302 34.2486 39.0846 34.643C39.7419 34.9059 40.3991 35.0373 41.1221 35.1688C42.2395 35.3002 43.3568 35.3002 44.4742 35.2345C45.6572 35.1688 46.8403 35.0373 48.0234 34.9716C48.0891 34.9716 48.1549 34.9059 48.2206 34.9059C48.5492 33.6571 48.8121 32.474 49.075 31.2909C49.2065 31.751 49.2722 32.2111 49.4694 32.6712C49.798 33.5913 50.521 34.1829 51.3097 34.643C52.0984 35.103 52.9529 35.3002 53.8731 35.4317C54.859 35.5631 55.8449 35.6288 56.8308 35.6288C59.1312 35.5631 61.3659 35.2345 63.4691 34.38C64.3236 34.0514 65.178 33.5913 65.901 33.0655C65.9667 32.9998 66.0982 32.9341 66.1639 32.8683C66.1639 33.5256 66.1639 34.1829 66.1639 34.8401C68.2672 34.8401 70.4361 34.8401 72.5394 34.8401C72.4737 34.4458 72.4737 34.0514 72.4737 33.6571C72.4737 32.8026 72.6051 31.9482 72.8023 31.1594C73.4596 28.5304 74.0511 25.9671 74.7084 23.338C74.9055 22.4178 75.1684 21.5634 75.2999 20.6432C75.4314 19.9202 75.4971 19.1315 75.2999 18.3428C75.037 17.2254 74.314 16.4367 73.2624 15.8452C72.3422 15.3194 71.3563 15.0565 70.3047 14.8593C68.2672 14.4649 66.1639 14.4649 64.1264 14.5306C62.4175 14.5964 60.7743 14.7278 59.1312 15.1879C57.8167 15.5165 56.5021 16.1081 55.3848 17.0282C54.0702 18.1456 53.1501 19.4601 52.5585 21.1033C54.5961 21.1033 56.6993 21.1033 58.7368 21.1033C58.934 20.8404 59.1312 20.5118 59.3284 20.2488C59.9199 19.4601 60.6429 18.8029 61.6288 18.4742C62.0231 18.3428 62.4175 18.277 62.8119 18.277C64.2578 18.1456 65.7038 18.1456 67.0841 18.4085C67.4127 18.4742 67.8071 18.6057 68.1357 18.7371C68.8587 19.0658 69.1216 19.5916 68.9902 20.3146C68.9244 20.8404 68.7272 21.3005 68.3986 21.6948C68.1357 22.0235 67.7414 22.2206 67.2813 22.2864C66.8212 22.3521 66.3611 22.4178 65.9667 22.4835C65.1123 22.5493 64.2578 22.615 63.4034 22.6807C62.2861 22.7465 61.1687 22.8779 59.9856 22.9436C59.2626 23.0094 58.5396 23.0094 57.8167 23.0751C56.3049 23.2065 54.859 23.5352 53.4787 24.1267C51.1783 25.1126 49.798 26.8215 49.2722 29.2534C49.2722 29.5163 49.2722 29.7135 49.2722 29.9106C49.2722 30.1078 49.2065 30.2393 49.2065 30.4365C48.8778 30.4365 48.5492 30.5022 48.2206 30.5022C47.629 30.5022 46.9718 30.5679 46.3802 30.5679C45.9859 30.5679 45.5915 30.5022 45.1972 30.4365C44.6714 30.305 44.4084 29.9764 44.4084 29.3848C44.4084 29.1219 44.4742 28.7933 44.5399 28.5304C45.2629 25.6384 45.9859 22.6807 46.6431 19.7888C46.6431 19.6573 46.7089 19.5916 46.7089 19.4601C48.4178 19.4601 50.1266 19.4601 51.9013 19.4601C52.2299 18.0141 52.6243 16.6339 52.9529 15.1222C51.244 15.1222 49.5351 15.1222 47.7605 15.1222C48.2206 13.0847 48.7464 11.1129 49.2065 9.07534C47.0375 9.07534 44.9343 9.07534 42.7653 9.07534C42.3052 11.0471 41.7794 13.0189 41.3193 15.0565C38.6902 15.0565 36.1269 15.0565 33.4321 15.0565C33.4321 14.925 33.4321 14.7935 33.4321 14.6621C33.4321 13.7419 33.3007 12.8218 33.1035 11.9016C32.7091 10.3899 31.9861 9.07534 30.9345 7.95799C30.0143 7.03782 28.897 6.38055 27.7139 5.92047C26.4651 5.46038 25.2163 5.13175 23.836 5.06602C22.9816 5.0003 22.1272 4.93457 21.2727 4.93457C17.7892 5.0003 14.5686 5.85474 11.6766 7.76081C9.04758 9.53543 7.14151 11.9016 5.89271 14.7935C5.82698 14.925 5.82698 14.9907 5.76126 15.1222C4.31527 15.1222 2.93502 15.1222 1.48903 15.1222C1.48903 15.1879 1.22613 16.0423 1.02895 17.094C0.83177 18.1456 0.63459 19.5259 0.63459 19.5259C0.897496 19.4601 4.31527 19.4601 4.70963 19.5259ZM56.3049 28.9247C56.6336 27.6102 57.488 26.8872 58.7368 26.6243C59.3941 26.4929 60.0514 26.4271 60.7086 26.3614C61.7602 26.23 62.8119 26.1642 63.7978 26.0985C64.455 26.0328 65.1123 25.9671 65.7696 25.9013C66.4925 25.8356 67.2155 25.5727 68.0043 25.3098C68.0043 25.3755 68.0043 25.4412 68.0043 25.507C67.8728 26.0328 67.7414 26.4929 67.6099 27.0187C67.2813 28.0703 66.6897 28.9247 65.8353 29.6477C64.6522 30.5679 63.3377 31.1594 61.826 31.4223C60.9058 31.6195 59.9856 31.6853 59.0655 31.6195C58.4739 31.6195 57.8824 31.4881 57.3566 31.2252C56.5021 30.7651 56.042 29.9764 56.3049 28.9247ZM11.9395 14.925C12.8597 12.9532 14.1743 11.3758 16.0803 10.3241C17.3291 9.66688 18.6437 9.27252 20.0896 9.14107C21.4699 9.00961 22.7844 9.20679 24.099 9.7326C25.7421 10.3899 26.8595 11.5729 27.2538 13.3476C27.3853 13.9391 27.3853 14.5306 27.3853 15.1222C22.1929 15.1222 17.0662 15.1222 11.9395 15.1222C11.9395 15.0565 11.9395 14.9907 11.9395 14.925Z" fill="white"/>
<path d="M87.5251 8.28613C85.3561 8.28613 83.2528 8.28613 81.0839 8.28613C78.9806 17.0935 76.8116 25.9008 74.7084 34.7082C76.8774 34.7082 78.9806 34.7082 81.1496 34.7082C83.2528 25.8351 85.4218 17.0935 87.5251 8.28613Z" fill="white"/>
<path d="M105.206 19.6575C105.929 19.1974 106.651 18.6716 107.374 18.2115C108.097 17.6857 108.886 17.2256 109.609 16.6998C110.332 16.2397 111.055 15.7796 111.778 15.1881C108.755 15.1881 105.797 15.1881 102.839 15.1881C99.4216 17.62 96.0695 19.9861 92.586 22.4837C93.7691 17.7514 94.8865 13.0191 96.0038 8.35254C93.8348 8.35254 91.7316 8.35254 89.5626 8.35254C87.4594 17.1599 85.2904 25.9015 83.1871 34.7089C85.3561 34.7089 87.4594 34.7089 89.6283 34.7089C90.0884 32.8685 90.5485 31.0282 90.9429 29.1221C92.1917 28.2677 93.4405 27.479 94.6893 26.6245C96.1353 29.3193 97.647 32.0141 99.0929 34.7089C101.919 34.7089 104.745 34.7089 107.572 34.7089C105.271 30.6995 102.971 26.6902 100.67 22.6809C101.393 22.1551 102.182 21.695 102.905 21.1692C103.694 20.6434 104.483 20.1176 105.206 19.6575Z" fill="white"/>
<path d="M118.154 9.5358C118.088 8.15555 117.562 7.0382 116.445 6.24948C115.459 5.59221 114.407 5.32931 113.224 5.32931C89.3654 5.32931 65.5724 5.32931 41.7137 5.32931C41.3851 5.32931 41.1221 5.32931 40.7935 5.39503C39.0189 5.65794 37.4415 6.44666 36.1269 7.62974C36.0612 7.69546 35.9955 7.76119 35.864 7.82691C35.7983 7.76119 35.7983 7.76119 35.7983 7.69546C34.7467 6.24948 33.4979 5.0664 32.0519 4.01478C29.2256 2.04298 26.0051 1.12281 22.5873 0.991359C21.0756 0.925632 19.5639 1.05709 18.0521 1.31999C15.8832 1.71435 13.9114 2.37162 11.9396 3.35751C9.5077 4.60632 7.33872 6.24948 5.49838 8.287C3.85522 10.1273 2.54069 12.2306 1.68624 14.531C1.62052 14.7282 1.55479 14.9254 1.48907 15.1226C2.93505 15.1226 4.38103 15.1226 5.76129 15.1226C5.82701 14.9911 5.89274 14.8597 5.89274 14.7939C7.14154 11.902 9.04761 9.60153 11.6767 7.82691C14.5686 5.92085 17.7892 5.0664 21.2727 5.00068C22.1272 5.00068 22.9816 5.0664 23.8361 5.13213C25.1506 5.19785 26.4651 5.52649 27.7139 5.98657C28.9627 6.44666 30.0144 7.10392 30.9345 8.02409C32.0519 9.14144 32.7749 10.456 33.1035 11.9677C33.3007 12.8879 33.4321 13.808 33.4321 14.7282C33.4321 14.8597 33.4321 14.9911 33.4321 15.1226C36.0612 15.1226 38.6903 15.1226 41.3193 15.1226C41.7794 13.1508 42.3052 11.1132 42.7653 9.14144C44.9343 9.14144 47.0375 9.14144 49.2065 9.14144C48.7464 11.1132 48.2206 13.1508 47.7605 15.1883C49.5351 15.1883 51.1783 15.1883 52.9529 15.1883C52.6243 16.6343 52.2299 18.0802 51.9013 19.5262C50.1267 19.5262 48.4178 19.5262 46.7089 19.5262C46.7089 19.6577 46.6432 19.7234 46.6432 19.8549C45.9202 22.7468 45.1972 25.7045 44.5399 28.5965C44.4742 28.8594 44.4085 29.188 44.4085 29.4509C44.4085 30.0425 44.6056 30.3711 45.1972 30.5026C45.5915 30.5683 45.9859 30.634 46.3803 30.634C46.9718 30.634 47.6291 30.5683 48.2206 30.5683C48.5492 30.5683 48.8779 30.5026 49.2065 30.5026C49.2065 30.3054 49.2722 30.1082 49.2722 29.9767C49.2722 29.7796 49.338 29.5824 49.338 29.4509C49.8638 27.0191 51.244 25.3102 53.5445 24.3243C54.9247 23.7327 56.3707 23.4041 57.8824 23.2726C58.6054 23.2069 59.3284 23.1412 60.0514 23.1412C61.1687 23.0755 62.2861 22.944 63.4692 22.8783C64.3236 22.8126 65.178 22.8126 66.0325 22.6811C66.4926 22.6154 66.9527 22.5497 67.347 22.4839C67.7414 22.4182 68.1357 22.221 68.4644 21.8924C68.793 21.498 68.9902 21.0379 69.0559 20.5121C69.1874 19.7234 68.9245 19.2633 68.2015 18.9347C67.8728 18.8032 67.4785 18.6718 67.1498 18.6061C65.7038 18.3432 64.2579 18.3432 62.8776 18.4746C62.4833 18.4746 62.0889 18.6061 61.6945 18.6718C60.7086 18.9347 59.9856 19.592 59.3941 20.4464C59.1969 20.7093 58.9998 21.0379 58.8026 21.3008C56.765 21.3008 54.6618 21.3008 52.6243 21.3008C53.2158 19.6577 54.136 18.2774 55.4505 17.2258C56.5679 16.3056 57.8824 15.7141 59.2627 15.3197C60.9058 14.8597 62.549 14.7282 64.2579 14.6625C66.3611 14.5967 68.3986 14.6625 70.4362 14.9911C71.4878 15.1883 72.4737 15.4512 73.3939 15.977C74.3798 16.5028 75.1685 17.2915 75.4314 18.4746C75.6286 19.2633 75.5628 19.9863 75.4314 20.775C75.2342 21.6952 75.037 22.5497 74.8398 23.4698C74.1826 26.0989 73.591 28.6622 72.9338 31.2913C72.7366 32.1457 72.6051 32.9344 72.6051 33.7889C72.6051 34.1832 72.6709 34.5776 72.6709 34.972C70.5676 34.972 68.3986 34.972 66.2954 34.972C66.2954 34.3147 66.2954 33.6574 66.2954 33.0002C66.2297 33.0659 66.0982 33.1316 66.0325 33.1973C65.2438 33.7232 64.4551 34.1832 63.6006 34.5119C61.4316 35.3663 59.1969 35.695 56.9622 35.7607C55.9763 35.7607 54.9904 35.695 54.0045 35.5635C53.1501 35.432 52.2299 35.1691 51.4412 34.7748C50.5868 34.3147 49.9295 33.7232 49.6009 32.803C49.4037 32.3429 49.338 31.8828 49.2065 31.4227C48.9436 32.6058 48.615 33.8546 48.3521 35.0377C48.2863 35.0377 48.2206 35.1034 48.1549 35.1034C46.9718 35.2349 45.7887 35.3006 44.6056 35.3663C43.4883 35.432 42.3709 35.432 41.2536 35.3006C40.5306 35.2349 39.8733 35.1034 39.2161 34.7748C38.3616 34.3804 37.8358 33.7889 37.6386 32.803C37.5072 32.1457 37.5729 31.5542 37.7044 30.9626C37.8358 30.1739 38.033 29.4509 38.2302 28.6622C38.8217 26.2961 39.3475 23.8642 39.9391 21.498C40.0705 20.9065 40.202 20.315 40.3992 19.7234C30.6059 19.7234 20.8784 19.7234 11.1509 19.7234C11.0194 20.315 11.0851 20.8408 11.2166 21.3666C11.4138 22.6154 12.0053 23.667 13.0569 24.4557C14.1086 25.2444 15.3574 25.5731 16.6719 25.6388C17.7235 25.7045 18.7751 25.7045 19.8268 25.5073C21.0098 25.3102 22.1929 24.9158 23.1788 24.2585C23.7046 23.9299 24.1647 23.4698 24.6248 23.0755C26.7938 23.0755 28.9627 23.0755 31.2632 23.0755C31.066 23.3384 30.8688 23.5355 30.7374 23.7327C29.2914 25.5073 27.5825 26.9533 25.545 28.0049C23.1131 29.3195 20.5498 29.911 17.7892 30.0425C16.1461 30.1082 14.5029 30.0425 12.8598 29.7138C11.5452 29.4509 10.2964 29.0566 9.17907 28.3993C7.40445 27.282 6.15565 25.9674 5.36693 24.1271C4.90684 23.0097 4.70966 21.8924 4.70966 20.7093C4.70966 20.315 4.70966 19.8549 4.70966 19.4605C4.3153 19.3948 0.8318 19.3948 0.634621 19.4605C0.568894 20.9065 0.634621 22.3525 0.963253 23.7985C1.8177 27.3477 3.72377 30.2397 6.68146 32.3429C7.60163 33.0002 8.58753 33.5917 9.57343 34.249C11.8081 35.695 14.0428 37.0752 16.2775 38.5212C19.1038 40.2958 21.93 42.0704 24.7562 43.9108C26.3994 44.9624 27.9768 45.9483 29.62 46.9999C29.6857 46.9999 29.7515 46.9999 29.8829 46.9999C54.2674 46.9999 78.7177 46.9999 103.102 46.9999C103.497 46.9999 103.957 46.9999 104.351 46.9342C106.389 46.6055 108.163 45.6197 109.478 44.0422C110.135 43.3192 110.529 42.4648 110.792 41.4789C110.924 40.9531 111.055 40.4273 111.187 39.9014C112.041 36.3522 112.83 32.803 113.684 29.2538C114.276 26.6247 114.933 23.9299 115.525 21.3008C116.313 18.0145 117.036 14.7282 117.825 11.4419C117.956 10.8503 118.154 10.1931 118.154 9.5358ZM107.703 34.6433C104.877 34.6433 102.051 34.6433 99.2244 34.6433C97.7784 31.9485 96.3324 29.3195 94.8207 26.559C93.5719 27.4134 92.3231 28.2021 91.0743 29.0566C90.6142 30.8969 90.1541 32.7373 89.7598 34.6433C87.6565 34.6433 85.4875 34.6433 83.3186 34.6433C85.4218 25.836 87.5908 17.0286 89.694 8.287C91.863 8.287 93.9663 8.287 96.1352 8.287C95.0179 13.0193 93.8348 17.6859 92.7175 22.4182C96.1352 19.9863 99.553 17.5544 102.971 15.1226C105.928 15.1226 108.886 15.1226 111.91 15.1226C111.187 15.7141 110.398 16.1085 109.741 16.6343C109.018 17.1601 108.229 17.6202 107.506 18.146C106.783 18.6061 106.06 19.1319 105.337 19.592C104.614 20.1178 103.825 20.5779 103.102 21.1037C102.379 21.5638 101.656 22.0896 100.868 22.6154C103.102 26.6247 105.337 30.634 107.703 34.6433ZM81.0839 8.287C83.2528 8.287 85.3561 8.287 87.5251 8.287C85.4218 17.0944 83.2528 25.9017 81.1496 34.7091C78.9806 34.7091 76.8774 34.7091 74.7084 34.7091C76.8774 25.836 78.9806 17.0944 81.0839 8.287Z" fill="#E4212A"/>
<path d="M27.2539 13.3471C26.8595 11.5725 25.7422 10.3894 24.099 9.73216C22.8502 9.20634 21.47 9.07489 20.0897 9.14062C18.6437 9.27207 17.3292 9.66643 16.0804 10.3237C14.1743 11.3753 12.7941 12.9528 11.9396 14.9246C11.9396 14.9903 11.9396 15.056 11.8739 15.1217C17.0663 15.1217 22.1929 15.1217 27.3196 15.1217C27.3853 14.5302 27.3853 13.9387 27.2539 13.3471Z" fill="#E4212A"/>
<path d="M57.4223 31.2259C57.9481 31.4888 58.5397 31.6203 59.1312 31.6203C60.0514 31.686 60.9715 31.6203 61.8917 31.4231C63.3377 31.0945 64.7179 30.5687 65.901 29.6485C66.7555 28.9255 67.4127 28.0711 67.6756 27.0194C67.8071 26.4936 67.9385 26.0335 68.07 25.5077C68.07 25.442 68.07 25.3763 68.07 25.3105C67.347 25.6392 66.624 25.8364 65.8353 25.9021C65.178 25.9678 64.5208 26.0335 63.8635 26.0993C62.8119 26.165 61.7603 26.2964 60.7744 26.3622C60.1171 26.4279 59.4598 26.4936 58.8026 26.6251C57.5538 26.888 56.6993 27.611 56.3707 28.9255C56.0421 29.9771 56.5021 30.7658 57.4223 31.2259Z" fill="#E4212A"/>
</svg>
