<svg width="136" height="16" viewBox="0 0 136 16" fill="none" xmlns="http://www.w3.org/2000/svg">
<path d="M13.1454 11.5461C12.0318 13.1397 10.2462 14.0869 8.3454 14.0869C5.587 14.0869 3.15499 12.0645 2.56619 9.28045L2.54699 9.17805H12.7742H15.635H16.0318C16.115 8.62765 16.0894 8.03245 16.0894 8.03245C16.0894 8.01325 16.0894 8.00045 16.0894 7.98125C16.0894 3.58444 12.6206 0.00683594 8.3518 0.00683594C4.08299 0.00683594 0.607788 3.58444 0.607788 7.98765C0.607788 12.3909 4.08299 15.9685 8.3518 15.9685C11.2574 15.9685 13.8942 14.3109 15.2382 11.6421L15.4302 11.2517H13.3438C13.267 11.3733 13.1966 11.4757 13.1454 11.5461ZM2.48299 7.20685C2.86059 4.17324 5.3886 1.88204 8.3518 1.88204C11.315 1.88204 13.843 4.17324 14.2206 7.20685L14.2334 7.30285H2.47019L2.48299 7.20685Z" fill="#005587"/>
<path d="M24.7742 15.9743C23.9166 15.9743 23.091 15.8207 22.3294 15.5199C21.5742 15.2191 20.9022 14.7775 20.339 14.2207C19.763 13.6511 19.315 12.9727 19.0078 12.2047C18.6878 11.4047 18.5598 10.5279 18.5662 9.60629V0.319877H20.3582V9.45909C20.3582 10.1759 20.4414 10.8415 20.6782 11.4495C20.9022 12.0255 21.2222 12.5311 21.6382 12.9599C22.0414 13.3759 22.515 13.7023 23.0526 13.9199C23.5966 14.1439 24.1726 14.2591 24.7678 14.2591C25.3758 14.2591 25.9582 14.1439 26.5022 13.9199C27.0398 13.6959 27.5134 13.3695 27.923 12.9535C28.339 12.5247 28.6654 12.0191 28.8894 11.4431C29.1262 10.8351 29.2734 10.1695 29.2734 9.45909V0.313477H31.059V9.59989C31.059 10.5279 30.867 11.3983 30.547 12.1919C30.2334 12.9599 29.7854 13.6383 29.2094 14.2079C28.6398 14.7711 27.9742 15.2063 27.219 15.5071C26.4574 15.8143 25.6382 15.9743 24.7742 15.9743Z" fill="#005587"/>
<path d="M33.619 15.5589V6.76525C33.619 6.11245 33.6958 5.47244 33.8494 4.86444C34.0606 4.01964 34.4062 3.27084 34.8798 2.63084C35.4686 1.83724 36.2622 1.21004 37.235 0.768437C38.355 0.262836 39.731 0.00683594 41.3246 0.00683594H41.6254V1.92044H41.331C40.1726 1.92044 39.1806 2.07404 38.3678 2.37484C37.6574 2.63724 37.075 3.02124 36.6334 3.51404C36.2494 3.94284 35.9614 4.46124 35.7822 5.06284C35.6286 5.57484 35.5518 6.15085 35.5454 6.77165V15.5589H33.619Z" fill="#005587"/>
<path d="M70.4127 15.5589V7.52685C70.4127 6.90605 70.3487 6.33005 70.1503 5.81165C69.9647 5.33164 69.6959 4.90924 69.3567 4.55084C69.0303 4.21164 68.6399 3.94284 68.2047 3.76364C67.7567 3.57804 67.2831 3.48204 66.7903 3.48204C66.2847 3.48204 65.8047 3.57804 65.3567 3.76364C64.9215 3.94924 64.5311 4.21164 64.1983 4.55724C63.8527 4.90924 63.5839 5.33804 63.3983 5.81805C63.1935 6.33645 63.0655 6.91885 63.0591 7.53325V15.5589H59.5135V7.37325C59.5199 6.31725 59.7311 5.31884 60.1023 4.40364C60.4671 3.50764 60.9855 2.72044 61.6575 2.05484C62.3167 1.40204 63.0975 0.890037 63.9743 0.538037C64.8511 0.186036 65.7983 0.00683594 66.7839 0.00683594C67.7695 0.00683594 68.7167 0.186036 69.5935 0.538037C70.4703 0.890037 71.2511 1.40204 71.9103 2.05484C72.5759 2.72044 73.1007 3.51404 73.4591 4.40364C73.8239 5.32524 73.9711 6.33005 73.9711 7.38605V15.5653H70.4127V15.5589Z" fill="#005587"/>
<path d="M83.4367 15.9616C79.1678 15.9616 75.699 12.384 75.699 7.98081C75.6926 3.58401 79.1678 0 83.4367 0C87.7055 0 91.1743 3.58401 91.1743 7.98081C91.1743 8.39041 91.1423 8.79361 91.0847 9.19682L91.0655 9.31842H78.9758L79.0271 9.48482C79.6543 11.4432 81.427 12.7616 83.4303 12.7616C84.5183 12.7616 85.5487 12.3776 86.3935 11.648C86.3935 11.648 86.6175 11.456 86.6495 11.424H90.4191L90.3103 11.6352C88.9791 14.304 86.3423 15.9616 83.4367 15.9616ZM83.4367 3.20001C81.427 3.20001 79.6606 4.51841 79.0334 6.47681L78.9822 6.64321H87.8911L87.8399 6.47681C87.2127 4.51841 85.4399 3.20001 83.4367 3.20001Z" fill="#005587"/>
<path d="M92.384 0.403077V0.313477H96.224C96.6912 3.98708 97.9008 9.81749 98.9376 12.4543C100.038 9.81749 101.325 3.99348 101.798 0.313477H104.986C105.478 3.98708 106.739 9.57429 107.866 12.4543C108.909 9.57429 110.093 3.99348 110.579 0.313477H114.4V0.403077C113.523 6.14389 111.846 12.0447 110.419 15.5519H105.632C104.838 13.6319 103.878 10.6943 103.386 8.05749C102.918 10.6943 101.875 13.7983 101.158 15.5519H96.3776C94.7072 11.7183 92.8896 5.27988 92.384 0.403077Z" fill="#005587"/>
<path d="M115.974 14.8862V11.9742H116.134C116.998 12.2366 118.867 12.595 120.211 12.595H120.992C122.234 12.595 123.181 12.211 123.181 10.9502C123.181 10.0094 122.355 9.62535 121.453 9.38215L119.104 8.76135C117.376 8.31975 115.974 7.11655 115.974 4.52454C115.974 1.47174 118.483 0.210938 121.536 0.210938H122.317C123.258 0.210938 125.146 0.454138 126.01 0.774138V3.66694H125.85C125.069 3.44294 123.181 3.20614 122.317 3.20614H121.613C120.512 3.20614 119.565 3.42374 119.565 4.53094C119.565 5.39495 120.205 5.73415 120.992 5.93895L123.341 6.57895C125.606 7.18055 126.79 8.52455 126.79 10.9566C126.79 14.3294 124.365 15.5966 120.992 15.5966H120.211C119.021 15.5902 117.056 15.2702 115.974 14.8862Z" fill="#005587"/>
<path d="M135.392 12.3774C135.392 14.1566 133.952 15.5966 132.173 15.5966C130.394 15.5966 128.954 14.1566 128.954 12.3774C128.954 10.5982 130.394 9.1582 132.173 9.1582C133.952 9.1582 135.392 10.5982 135.392 12.3774Z" fill="#005587"/>
<path d="M49.9774 0.0380859C45.6766 0.0380859 42.1886 3.60929 42.1886 8.0189C42.1886 12.4285 45.6766 15.9997 49.9774 15.9997C54.2782 15.9997 57.7663 12.4285 57.7663 8.0189C57.7663 3.60929 54.2782 0.0380859 49.9774 0.0380859ZM49.9774 13.8237C46.9758 13.8237 44.5374 11.2189 44.5374 8.0189C44.5374 4.81889 46.9758 2.21409 49.9774 2.21409C52.979 2.21409 55.4175 4.81889 55.4175 8.0189C55.4175 11.2189 52.979 13.8237 49.9774 13.8237Z" fill="#005587"/>
</svg>
