<svg width="66" height="66" viewBox="0 0 66 66" fill="none" xmlns="http://www.w3.org/2000/svg">
<path d="M54.831 9.64453H13.5166V56.7487H54.831V9.64453Z" fill="white"/>
<path d="M66 12.21V53.79C65.8944 54.1299 65.7773 54.4665 65.6849 54.8097C64.5711 58.9017 62.2199 62.0482 58.5387 64.18C57.0537 65.0413 55.4318 65.5495 53.79 65.995H12.21C11.9246 65.901 11.6424 65.7871 11.352 65.7162C7.2699 64.7278 4.1844 62.37 1.98 58.8324C1.0164 57.2764 0.5412 55.5192 0 53.79V12.21C0.31845 11.2497 0.5907 10.2696 0.96195 9.33075C2.41065 5.66445 4.92195 2.9997 8.49255 1.29855C9.6888 0.72765 10.9708 0.4323 12.21 0H53.79C54.013 0.104193 54.2429 0.192952 54.4781 0.26565C58.9463 1.35135 62.2826 3.8841 64.4375 7.9728C65.1486 9.3225 65.505 10.7877 66 12.21ZM33.99 44.6523C34.0164 46.1901 33.9504 47.7295 34.155 49.264C34.2633 50.2822 34.6953 51.2387 35.3876 51.9931C37.5326 54.313 40.2485 54.9632 43.2168 54.313C46.9029 53.4963 48.5611 50.1451 47.1933 46.6158C46.7273 45.4394 46.1218 44.3232 45.3899 43.291C44.0039 41.3011 42.3176 39.5653 40.755 37.7239C39.6462 36.4171 38.6315 35.0443 38.1018 33.396C37.7834 32.406 37.4781 31.3945 37.7504 30.327C38.2206 28.479 39.5819 27.5979 41.278 27.1045C42.2532 26.8224 43.2581 26.6475 44.2266 26.3356C46.398 25.6327 48.5826 24.9711 49.8449 22.7716C51.2259 20.3676 50.6897 17.0115 48.5942 15.5512C46.6505 14.1966 43.3538 14.2065 41.4002 15.5512C39.4961 16.8564 38.511 18.8067 37.62 20.8312C36.8775 22.5208 35.9156 23.986 34.1831 24.882C31.9902 26.0155 29.8832 25.5816 28.4625 23.5537C27.9906 22.8789 27.5583 22.1743 27.0501 21.5275C25.9232 20.0953 23.9695 19.6845 22.4648 20.5227C20.7157 21.4945 20.1135 23.1016 20.7405 24.9975C21.1844 26.3439 21.9401 27.5269 22.6463 28.7314C23.9102 30.893 23.3063 33.1864 21.0639 34.2441C17.5989 35.8726 15.906 38.7123 15.416 42.3753C15.1602 44.2794 16.0892 45.6258 17.891 46.233C18.6783 46.4825 19.5057 46.5811 20.3297 46.5234C21.7602 46.4574 22.8047 45.568 23.1231 44.1622C23.3381 43.111 23.4333 42.0388 23.4069 40.9662C23.3987 39.76 23.4069 38.5638 23.7155 37.3675C24.25 35.2341 26.004 34.0312 28.1606 34.4305C31.5365 35.0542 33.7937 37.7173 33.9851 41.3605C34.0379 42.4495 33.99 43.56 33.99 44.6523ZM35.31 15.1437C35.31 13.0168 34.0807 11.5417 32.3087 11.5368C30.4376 11.5368 28.6127 13.2445 28.5912 15.0282C28.5681 16.9653 30.393 18.8232 32.3186 18.8067C34.0312 18.7985 35.31 17.2293 35.31 15.1437Z" fill="#FE6D0A"/>
</svg>
