<svg width="132" height="30" viewBox="0 0 132 30" fill="none" xmlns="http://www.w3.org/2000/svg">
<path d="M112.688 8.54492V12.6134H125.138L112.363 25.2255H112.281V29.294H114.819H131.81V25.2255H119.072L131.81 12.6577V12.5986V8.54492H112.688Z" fill="#FF3200"/>
<path d="M98.0419 8.54411V2.33789L93.5667 3.71376V8.53671H89.4982V12.6051H93.5667V22.3916C93.5667 25.1211 94.2102 27.0296 95.6157 28.0652C96.6513 28.8197 98.1529 29.2044 100.342 29.2044C101.067 29.2044 101.696 29.16 102.517 29.0786V25.0102C102.11 25.0472 101.223 25.0472 100.601 25.0102C99.7581 24.9584 99.1885 24.7217 98.7521 24.3223C98.4044 24.0042 98.0346 23.405 98.0346 22.3916V12.6125H105.765V29.2931H110.24V12.6199V8.54411H105.824H98.0419Z" fill="#FF3200"/>
<path d="M57.1579 7.996C52.7639 7.90724 50.4412 11.0214 50.4412 11.0214V8.54339H45.5591V29.2924H50.4412V17.923C50.4412 16.0885 50.9147 14.683 51.8245 13.7436C52.7344 12.8042 53.9697 12.3233 55.4713 12.3233C56.8324 12.3233 57.831 12.7376 58.6595 13.5513C59.488 14.365 59.7986 15.5411 59.7986 17.0427V29.2924H64.6808V16.3622C64.6808 13.751 64.0298 11.6798 62.6022 10.2078C61.1745 8.74312 59.3474 8.04778 57.1579 7.996Z" fill="#FF3200"/>
<path d="M38.6428 10.8436C37.0154 8.92037 34.7445 7.88477 32.2368 7.88477C26.3117 7.88477 21.5701 12.6855 21.5701 18.6106C21.5701 24.5358 26.2895 29.3365 32.2146 29.3365C35.0108 29.3365 37.4296 28.2639 38.6502 26.5108V29.2847H43.5323V8.54311H38.6502V10.8436H38.6428ZM32.3552 25.0906C28.775 25.0906 25.8753 22.1909 25.8753 18.6106C25.8753 15.0304 28.775 12.1307 32.3552 12.1307C35.9354 12.1307 38.8351 15.0304 38.8351 18.6106C38.8351 22.1909 35.9354 25.0906 32.3552 25.0906Z" fill="#FF3200"/>
<path d="M83.3956 10.8436C81.7682 8.92037 79.5047 7.88477 76.997 7.88477C71.0719 7.88477 66.3303 12.6855 66.3303 18.6106C66.3303 24.5358 71.0423 29.3365 76.9674 29.3365C79.7636 29.3365 82.175 28.2639 83.3956 26.5108V29.2847H88.2777V8.54311H83.3956V10.8436ZM77.1228 25.0906C73.5426 25.0906 70.6429 22.1909 70.6429 18.6106C70.6429 15.0304 73.5426 12.1307 77.1228 12.1307C80.703 12.1307 83.6027 15.0304 83.6027 18.6106C83.6027 22.1909 80.6956 25.0906 77.1228 25.0906Z" fill="#FF3200"/>
<path d="M0.591766 29.2931H4.96349C5.05965 20.3425 12.2053 13.1747 21.1559 12.9971V8.63281C9.76424 8.76596 0.695327 17.9015 0.591766 29.2931Z" fill="#FF3200"/>
<path d="M0 0V17.3389C0.739716 16.3255 4.172 10.9848 9.43878 8.54372H4.06844V4.47528H21.1559V0H3.77995H0Z" fill="#FF3200"/>
<path d="M108.265 0.369141C106.667 0.369141 105.365 1.66364 105.365 3.26883C105.365 4.87401 106.66 6.16851 108.265 6.16851C109.87 6.16851 111.165 4.87401 111.165 3.26883C111.165 1.66364 109.863 0.369141 108.265 0.369141Z" fill="#FF3200"/>
</svg>
