<svg width="126" height="34" viewBox="0 0 126 34" fill="none" xmlns="http://www.w3.org/2000/svg">
<path d="M72.3112 14.6914V24.6189C72.3112 25.6243 72.3112 25.6243 71.323 25.6243C70.8769 25.6243 70.4273 25.6003 69.9812 25.6243C69.4631 25.6552 69.2537 25.4321 69.264 24.938C69.264 24.2139 69.264 23.4933 69.264 22.7693C69.264 17.6906 69.264 12.6119 69.264 7.52979C69.264 6.84349 69.4699 6.64446 70.1837 6.55524C71.673 6.36993 72.4313 6.89839 73.001 8.31562C74.2054 11.3079 75.6295 14.2144 76.9644 17.1587C77.009 17.2616 77.0742 17.3577 77.2286 17.6288C77.2561 17.2342 77.2835 17.0317 77.2835 16.8258C77.2835 13.7134 77.3076 10.601 77.2835 7.48862C77.2835 6.78515 77.5135 6.54151 78.1826 6.58612C78.6303 6.62215 79.0801 6.62215 79.5278 6.58612C80.2141 6.52435 80.3685 6.84692 80.3651 7.4646C80.3513 13.2433 80.3513 19.0209 80.3651 24.7973C80.3651 25.4424 80.1351 25.5797 79.5037 25.662C78.0007 25.8542 77.2252 25.3189 76.6487 23.8742C75.4477 20.8545 74.0064 17.9274 72.6613 14.9522C72.6132 14.8493 72.5446 14.7566 72.4862 14.6571L72.3112 14.6914Z" fill="black"/>
<path d="M121.496 17.5722C122.755 19.7032 123.942 21.7621 125.157 23.8245C125.359 24.1677 125.562 24.5108 125.747 24.854C126.005 25.3344 125.895 25.6192 125.305 25.6158C124.656 25.6158 124.011 25.6158 123.362 25.6158C122.714 25.6158 122.419 25.1353 122.137 24.6652C120.864 22.5548 119.601 20.441 118.332 18.334C118.212 18.1316 118.074 17.936 117.827 17.5654C117.807 17.984 117.786 18.1933 117.786 18.3992C117.786 20.5165 117.769 22.6338 117.786 24.7476C117.786 25.3756 117.621 25.681 116.942 25.6261C116.396 25.5814 115.84 25.6604 115.302 25.5883C115.099 25.5609 114.893 25.2829 114.759 25.0701C114.68 24.9466 114.739 24.727 114.739 24.5588C114.739 18.8797 114.739 13.2039 114.739 7.52813C114.739 6.79034 114.931 6.49866 115.7 6.52955C117.415 6.59132 119.131 6.49866 120.847 6.6119C122.089 6.69282 123.265 7.20121 124.174 8.05071C125.084 8.90021 125.671 10.0384 125.836 11.2719C126.017 12.5429 125.752 13.8371 125.087 14.9352C124.422 16.0334 123.398 16.868 122.189 17.2977C121.983 17.3732 121.78 17.459 121.496 17.5722ZM117.803 14.5628C118.747 14.5628 119.636 14.5971 120.521 14.5628C121.109 14.5216 121.663 14.2719 122.083 13.8586C122.503 13.4453 122.762 12.8955 122.813 12.3083C122.88 11.7454 122.738 11.1775 122.415 10.7117C122.092 10.2459 121.61 9.91428 121.06 9.77921C120.013 9.57332 118.918 9.61793 117.803 9.5493V14.5628Z" fill="black"/>
<path d="M61.7525 18.7689H56.8042C56.8042 19.0434 56.763 19.3042 56.763 19.565C56.763 21.3082 56.7424 23.0514 56.763 24.7912C56.763 25.4432 56.5537 25.704 55.8983 25.6319C55.5005 25.6113 55.1019 25.6113 54.7041 25.6319C53.709 25.6319 53.6918 25.6113 53.6746 24.6436C53.6746 22.356 53.6746 20.0683 53.6746 17.7806C53.6746 15.8383 53.6369 13.8961 53.6746 11.947C53.7536 9.01299 55.7095 6.9472 58.7293 6.53199C61.1828 6.18883 63.8183 7.9046 64.5629 10.3341C64.729 10.9061 64.8122 11.4989 64.81 12.0945C64.8306 16.3016 64.81 20.5086 64.834 24.7123C64.834 25.4295 64.6178 25.6662 63.8972 25.6422C61.4265 25.5564 61.7319 26.0437 61.7147 23.4666C61.7456 21.9259 61.7525 20.3851 61.7525 18.7689ZM61.7525 15.6805C61.7525 14.4314 61.7525 13.2166 61.7525 12.0053C61.7529 11.3903 61.5219 10.7976 61.1055 10.345C60.6891 9.89233 60.1177 9.61286 59.5048 9.56204C58.3621 9.42821 56.9895 10.3135 56.8625 11.4974C56.7184 12.87 56.8282 14.2427 56.8282 15.6805H61.7525Z" fill="black"/>
<path d="M85.0078 25.6151C84.9735 25.2411 84.9152 24.9288 84.9152 24.6097C84.9152 18.9339 84.9152 13.2547 84.9152 7.57898C84.9152 6.85149 85.1039 6.54952 85.8829 6.59413C87.4236 6.65247 88.9713 6.59413 90.5154 6.61815C91.2267 6.61317 91.9319 6.74907 92.5903 7.01801C93.2488 7.28696 93.8475 7.68362 94.3519 8.18513C94.8562 8.68663 95.2563 9.28304 95.529 9.93995C95.8017 10.5969 95.9416 11.3013 95.9407 12.0125C95.9796 14.7257 95.9796 17.4401 95.9407 20.1556C95.9367 20.8801 95.7893 21.5966 95.5071 22.2639C95.2249 22.9312 94.8133 23.5361 94.2962 24.0436C93.7792 24.5511 93.1667 24.9513 92.4943 25.221C91.8218 25.4907 91.1027 25.6247 90.3782 25.6151C88.6109 25.6186 86.8471 25.6151 85.0078 25.6151ZM87.9452 9.61045V10.6742C87.9452 13.9113 87.9452 17.1461 87.9452 20.3786C87.9452 22.6537 87.9452 22.6537 90.2169 22.5817C91.8469 22.5302 92.9038 21.5522 92.9312 19.9257C92.9724 17.3383 92.9724 14.7509 92.9312 12.1635C92.9577 11.5303 92.7357 10.9118 92.3126 10.44C91.8895 9.96814 91.2988 9.68032 90.6664 9.6379C89.812 9.55555 88.9335 9.61045 87.9452 9.61045Z" fill="black"/>
<path d="M17.0634 33.4439C7.77425 33.5743 0.283207 25.7641 0.248891 16.8181C0.214576 7.498 8.0625 -0.188639 17.4066 0.00352664C21.7908 0.101954 25.9632 1.90933 29.0338 5.04024C32.1045 8.17114 33.8304 12.3778 33.8436 16.7632C33.878 26.0832 26.0952 33.5914 17.0634 33.4439ZM17.0634 32.1845C19.1021 32.1895 21.1216 31.7919 23.0062 31.0145C24.8908 30.2372 26.6034 29.0954 28.0458 27.6547C29.4881 26.214 30.6318 24.5026 31.4112 22.6189C32.1906 20.7351 32.5904 18.716 32.5877 16.6774C32.5843 8.23922 25.5702 1.2629 17.084 1.25604C8.52576 1.24574 1.46366 8.23922 1.51513 16.7597C1.52052 18.7942 1.92726 20.8077 2.71207 22.6847C3.49687 24.5618 4.64431 26.2655 6.08865 27.6984C7.53299 29.1312 9.24584 30.265 11.1291 31.0348C13.0123 31.8047 15.0289 32.1953 17.0634 32.1845Z" fill="black"/>
<path d="M110.772 16.048C110.772 17.4206 110.796 18.7932 110.772 20.1658C110.761 21.6356 110.166 23.0407 109.118 24.072C108.071 25.1033 106.657 25.6762 105.187 25.6649C103.717 25.6535 102.312 25.0587 101.281 24.0113C100.25 22.964 99.6767 21.5498 99.6881 20.08C99.6881 17.4149 99.6881 14.7497 99.6881 12.0845C99.6935 10.6499 100.264 9.27514 101.275 8.25782C102.287 7.2405 103.658 6.66251 105.093 6.64899C108.253 6.60781 110.696 8.87949 110.769 11.9473C110.799 13.3199 110.769 14.6925 110.769 16.0651L110.772 16.048ZM102.711 16.1303C102.711 17.4 102.711 18.6697 102.711 19.9393C102.732 21.487 103.827 22.6125 105.254 22.5919C105.591 22.5822 105.923 22.5057 106.23 22.367C106.537 22.2283 106.814 22.03 107.044 21.7836C107.274 21.5372 107.453 21.2477 107.57 20.9317C107.688 20.6157 107.742 20.2796 107.728 19.9428C107.742 17.4034 107.742 14.8641 107.728 12.3248C107.728 10.7909 106.61 9.61727 105.22 9.62756C103.83 9.63786 102.715 10.7943 102.698 12.3213C102.701 13.6013 102.711 14.871 102.711 16.1303Z" fill="black"/>
<path d="M39.3068 16.1321C39.3068 13.2462 39.324 10.3603 39.3068 7.47438C39.3068 6.78807 39.5195 6.55129 40.199 6.55472C43.3583 6.57303 46.5176 6.57303 49.6769 6.55472C50.2774 6.55472 50.5622 6.74003 50.5108 7.37143C50.473 7.81902 50.473 8.269 50.5108 8.71659C50.5691 9.38231 50.274 9.58134 49.6426 9.57448C47.4773 9.55046 45.312 9.57448 43.1467 9.54016C42.5016 9.54016 42.3368 9.73233 42.3574 10.3363C42.3952 11.5305 42.3952 12.7384 42.3574 13.9188C42.3574 14.4267 42.5324 14.5605 43.006 14.5502C44.3786 14.5262 45.7512 14.5502 47.1238 14.5296C47.6386 14.5296 47.8479 14.7115 47.8376 15.2159C47.7827 18.1293 48.2459 17.5013 45.662 17.5665C44.8919 17.6163 44.1193 17.6163 43.3491 17.5665C42.5393 17.4807 42.4089 17.8102 42.4226 18.5274C42.4707 20.5863 42.4226 22.6452 42.4569 24.7247C42.4569 25.411 42.2716 25.7542 41.5304 25.665C41.0843 25.6203 40.6348 25.6203 40.1887 25.665C39.5436 25.7164 39.3137 25.4728 39.3205 24.8139C39.324 21.904 39.3068 19.0181 39.3068 16.1321Z" fill="black"/>
<path d="M10.3 25.5767V18.4906C10.3 16.6719 10.3 14.8543 10.3 13.0379C10.3412 8.14105 15.5743 4.86737 19.8088 7.32435C22.6673 8.98521 25.2204 11.178 27.9896 13.1923C27.7494 13.4119 27.6224 13.5354 27.4749 13.6624C25.7591 14.8909 24.0433 16.1331 22.3001 17.3307C22.1016 17.4477 21.9408 17.6191 21.8368 17.8247C21.7328 18.0303 21.69 18.2614 21.7133 18.4906C21.7442 20.6318 21.7133 22.7731 21.7133 24.9144C21.7133 25.134 21.7133 25.3536 21.7133 25.8444L16.0341 21.8192L21.6104 17.818C21.1142 17.6472 20.6273 17.4502 20.152 17.2278C18.5941 16.3939 18.3573 14.5855 19.6338 13.3741C19.8123 13.2026 20.0079 13.031 20.2 12.8903C21.2295 12.0221 21.3702 10.9 20.5809 9.80192C19.0402 7.64691 15.6326 7.33464 13.5428 9.14306C12.9562 9.62981 12.4845 10.2404 12.1618 10.931C11.839 11.6216 11.6732 12.3751 11.6761 13.1374C11.6521 14.8291 11.6383 16.5243 11.6761 18.2126C11.7428 18.5855 11.952 18.9178 12.2594 19.1391C13.4468 20.0382 14.6615 20.8789 15.9895 21.8089L10.4991 25.714L10.3 25.5767Z" fill="black"/>
<path d="M16.5866 12.4802C16.2852 12.4683 15.9996 12.3427 15.787 12.1289C15.5744 11.915 15.4506 11.6286 15.4404 11.3272C15.4454 11.0169 15.5735 10.7212 15.7965 10.5053C16.0195 10.2894 16.3191 10.1709 16.6294 10.1759C16.9398 10.1809 17.2354 10.309 17.4513 10.532C17.6673 10.755 17.7857 11.0546 17.7807 11.365C17.7553 11.6658 17.619 11.9464 17.3983 12.1525C17.1777 12.3585 16.8884 12.4753 16.5866 12.4802Z" fill="black"/>
</svg>
