<svg width="131" height="40" viewBox="0 0 131 40" fill="none" xmlns="http://www.w3.org/2000/svg">
<path d="M4.63231 15.2548V19.5029H16.8479V23.1074H4.63231V28.3419H0.238281V11.6504H18.2979V15.2548H4.63231Z" fill="#FFC638"/>
<path d="M26.0308 11.6553H21.6367V28.3386H26.0308V11.6553Z" fill="#FFC638"/>
<path d="M47.4308 24.7378V28.3423H29.8545V11.6504H34.2485V24.7378H47.4308Z" fill="#FFC638"/>
<path d="M77.1789 28.3423H72.7848V16.885L65.6664 28.3423H62.5026L55.3843 16.885V28.3423H50.9902V11.6504H56.9223L64.0846 23.4077L71.2469 11.6504H77.1789V28.3423Z" fill="#FFC638"/>
<path d="M100.159 15.2548L87.1527 24.7378H100.159V28.3423H80.8691V24.7378L93.8316 15.2548H80.8691V11.6504H100.159V15.2548Z" fill="#FFC638"/>
<path d="M108.244 11.6553H103.85V28.3386H108.244V11.6553Z" fill="#FFC638"/>
<path d="M116.505 15.0402V18.43H130.171V21.5196H116.505V24.9094H130.171V28.3422H112.111V11.6504H130.171V15.0402H116.505Z" fill="#FFC638"/>
</svg>
