<svg width="63" height="63" viewBox="0 0 63 63" fill="none" xmlns="http://www.w3.org/2000/svg">
<g clip-path="url(#clip0)">
<path d="M48.7466 17.3662H14.3242V44.7232H48.7466V17.3662Z" fill="white"/>
<path d="M63.0099 31.5228C62.9901 48.8337 48.7546 63.0356 31.4457 63.0099C14.1367 62.9842 -0.0157886 48.7725 1.32197e-05 31.426C0.0158151 14.1328 14.2533 -0.0295821 31.5919 4.64037e-05C48.8435 0.0296749 63.0099 14.2474 63.0099 31.5228ZM45.1222 31.6709C45.1325 31.3745 45.0753 31.0796 44.9548 30.8086C44.8344 30.5376 44.6539 30.2975 44.4269 30.1065C41.4463 27.4419 38.4558 24.7912 35.491 22.1088C35.0663 21.7256 34.8609 21.854 34.5567 22.2135C33.976 22.9244 33.3589 23.6048 32.7079 24.2519C32.1785 24.7596 32.3128 25.042 32.8086 25.4726C34.8609 27.2503 36.8519 29.111 38.9101 30.8867C39.5994 31.4793 39.7535 31.8151 38.9476 32.4906C36.842 34.2683 34.8391 36.1547 32.7711 37.9699C32.3029 38.3788 32.222 38.6652 32.694 39.1314C33.3431 39.7794 33.9576 40.4611 34.535 41.1737C34.8786 41.5945 35.1038 41.6557 35.5423 41.2587C38.4558 38.6198 41.3969 36.0085 44.3262 33.3874C44.8378 32.9311 45.1518 32.382 45.1123 31.6709H45.1222ZM32.1034 31.7242C32.0909 31.4087 32.0154 31.0989 31.8814 30.8129C31.7474 30.527 31.5576 30.2707 31.3232 30.0591C28.3604 27.4123 25.3975 24.7714 22.4604 22.1068C22.0515 21.7355 21.8303 21.8185 21.5182 22.1957C20.9646 22.8882 20.371 23.5477 19.7405 24.171C19.1775 24.7062 19.2289 25.0262 19.8096 25.5279C21.9409 27.3748 24.0129 29.2809 26.1303 31.1475C26.6321 31.5879 26.6202 31.8171 26.1106 32.2615C23.9378 34.1557 21.8085 36.1073 19.6457 38.0173C19.2506 38.359 19.1202 38.5803 19.5528 39.0049C20.2461 39.7022 20.8822 40.4567 21.5103 41.2132C21.8283 41.5945 22.0416 41.6399 22.4406 41.2784C25.3824 38.6132 28.338 35.9651 31.3074 33.334C31.7671 32.9188 32.0487 32.3421 32.0936 31.7242H32.1034Z" fill="black"/>
</g>
<defs>
<clipPath id="clip0">
<rect width="63" height="63" fill="white"/>
</clipPath>
</defs>
</svg>
