<svg width="124" height="46" viewBox="0 0 124 46" fill="none" xmlns="http://www.w3.org/2000/svg">
<path d="M12.261 13.0733V16.1856C12.261 16.279 12.1684 16.4035 12.0448 16.4035H4.35467C4.23113 16.4035 4.13848 16.4969 4.13848 16.6214V20.9475C4.13848 21.0409 4.23113 21.1653 4.35467 21.1653H10.0065C10.13 21.1653 10.2227 21.2587 10.2227 21.3832V24.4955C10.2227 24.5889 10.13 24.7134 10.0065 24.7134H4.35467C4.23113 24.7134 4.13848 24.8068 4.13848 24.9312V32.9299C4.13848 33.0544 4.04583 33.1478 3.92229 33.1478H0.46326C0.339723 33.1478 0.24707 33.0544 0.24707 32.9299V13.0733C0.24707 12.9488 0.339723 12.8555 0.46326 12.8555H12.0448C12.1684 12.8555 12.261 12.9488 12.261 13.0733ZM20.4453 12.8555H16.9554C16.8319 12.8555 16.7392 12.9488 16.7392 13.0733V32.8677C16.7392 32.961 16.8319 33.0855 16.9554 33.0855H20.4453C20.5689 33.0855 20.6615 32.9921 20.6615 32.8677V13.0733C20.6615 12.9488 20.5689 12.8555 20.4453 12.8555ZM36.9684 29.5375H29.2473C29.1238 29.5375 29.0311 29.4441 29.0311 29.3196V13.0733C29.0311 12.9488 28.9385 12.8555 28.8149 12.8555H25.325C25.2015 12.8555 25.1088 12.9488 25.1088 13.0733V32.8677C25.1088 32.961 25.2015 33.0855 25.325 33.0855H36.9684C37.0919 33.0855 37.1846 32.9921 37.1846 32.8677V29.7553C37.1846 29.6308 37.0919 29.5375 36.9684 29.5375ZM58.8344 12.8555H55.9004C55.8386 12.8555 55.7459 12.8866 55.7151 12.9488L50.1559 21.9434C50.0633 22.0679 49.878 22.0679 49.8162 21.9434L44.1644 12.9488C44.1335 12.8866 44.0717 12.8555 43.9791 12.8555H41.076C40.9524 12.8555 40.8598 12.9488 40.8598 13.0733V32.8677C40.8598 32.961 40.9524 33.0855 41.076 33.0855H44.5659C44.6894 33.0855 44.7821 32.9921 44.7821 32.8677V21.9745C44.7821 21.7878 45.06 21.6944 45.1527 21.8501L49.7853 28.6971C49.878 28.8216 50.0324 28.8216 50.125 28.6971L54.7577 21.8501C54.8812 21.6944 55.1283 21.7567 55.1283 21.9745V32.8677C55.1283 32.961 55.2209 33.0855 55.3445 33.0855H58.8344C58.9579 33.0855 59.0506 32.9921 59.0506 32.8677V13.0733C59.0197 12.9488 58.927 12.8555 58.8344 12.8555Z" fill="#193054"/>
<path d="M87.8961 13.0727V32.867C87.8961 32.9604 87.8034 33.0849 87.6799 33.0849H84.19C84.0664 33.0849 83.9738 32.9915 83.9738 32.867V13.0727C83.9738 12.9482 84.0664 12.8548 84.19 12.8548H87.6799C87.8034 12.8548 87.8961 12.9482 87.8961 13.0727ZM115.784 16.4028C115.815 16.4028 115.846 16.3717 115.877 16.3717H123.567C123.691 16.3717 123.783 16.2784 123.783 16.1539V13.0727C123.783 12.9482 123.691 12.8548 123.567 12.8548H111.955C111.831 12.8548 111.739 12.9482 111.739 13.0727V32.867C111.739 32.9915 111.831 33.0849 111.955 33.0849H123.567C123.691 33.0849 123.783 32.9915 123.783 32.867V29.7547C123.783 29.6302 123.691 29.5368 123.567 29.5368H115.877C115.815 29.5368 115.784 29.5057 115.754 29.4746C115.692 29.4434 115.692 29.3812 115.692 29.3189V24.8683C115.692 24.7438 115.784 24.6505 115.908 24.6505H121.529C121.652 24.6505 121.745 24.5571 121.745 24.4326V21.3203C121.745 21.1958 121.652 21.1024 121.529 21.1024H121.189L116.742 21.1647H115.877C115.754 21.1647 115.661 21.0713 115.661 20.9468V16.5896C115.661 16.4962 115.723 16.434 115.784 16.4028ZM101.825 21.2892L99.4467 20.9468C98.6437 20.8223 97.9643 20.5111 97.5937 20.1376C97.1613 19.733 97.0069 19.2039 97.0069 18.6748C97.0069 17.2743 98.0261 16.1227 100.095 16.1227C101.362 16.1227 102.844 16.2784 104.048 17.3988C104.141 17.461 104.265 17.461 104.326 17.3988L106.519 15.2202C106.612 15.1268 106.612 15.0023 106.519 14.9089C104.821 13.3528 102.875 12.6992 100.188 12.6992C95.8333 12.6992 93.2081 15.2202 93.2081 18.8305C93.2081 20.5422 93.7023 21.8494 94.6597 22.8142C95.5553 23.6857 96.8216 24.2459 98.5511 24.4949L100.991 24.8372C101.917 24.9928 102.381 25.1796 102.751 25.553C103.184 25.9576 103.369 26.549 103.369 27.2648C103.369 28.8832 102.134 29.7547 99.8174 29.7547C98.0261 29.7547 96.3583 29.3501 95.123 28.1985C95.0303 28.1051 94.9068 28.1051 94.845 28.1985L92.5904 30.4705C92.4978 30.5639 92.4978 30.6884 92.5904 30.7817C94.5361 32.6802 96.7907 33.3027 99.7556 33.3027C103.956 33.3027 107.199 31.093 107.199 27.1715C107.199 25.3974 106.705 23.9035 105.654 22.8765C104.821 22.0673 103.647 21.5382 101.825 21.2892ZM79.125 33.0849H75.6042C75.4806 33.0849 75.388 33.0226 75.3262 32.8981C75.0174 32.3379 73.9982 29.7235 73.5658 26.9225C73.3805 25.8332 72.454 25.024 71.3421 25.024H68.2228C67.9758 25.024 67.7905 25.2107 67.7905 25.4597V32.8981C67.7905 33.0226 67.6978 33.116 67.5743 33.116H64.0844C63.9608 33.116 63.8682 33.0226 63.8682 32.8981V13.3217C63.8682 13.0727 64.0535 12.8859 64.3005 12.8859H71.1259C71.6819 12.8859 72.2069 12.9482 72.6702 13.0415C73.0408 13.1038 73.3805 13.1972 73.7202 13.3217C74.1217 13.4773 74.4614 13.6329 74.8012 13.8507C74.832 13.8819 74.8629 13.8819 74.8938 13.913C74.9247 13.913 74.9556 13.9441 74.9865 13.9752C75.6968 14.4421 76.2527 15.0334 76.6851 15.7181C77.0557 16.3095 77.3337 16.9631 77.4881 17.6478C77.519 17.8034 77.5499 17.9901 77.5807 18.1457C77.6425 18.457 77.6425 18.7682 77.6425 19.1106C77.6425 20.2621 77.3645 21.2269 76.9013 22.0361C76.9013 22.0673 76.8704 22.0673 76.8704 22.0984C76.4998 22.6897 76.0365 23.1877 75.5115 23.5923C75.4806 23.5923 75.4806 23.6234 75.4497 23.6234C75.4497 23.6234 75.4497 23.6234 75.4806 23.6234H75.5115C75.6042 23.6857 75.8203 23.7479 76.0983 23.9035C76.6233 24.2459 76.9322 24.8061 76.9939 25.4286C77.0557 25.8332 77.1175 26.2378 77.1792 26.6424C77.3954 27.825 77.7043 28.9455 78.1058 30.0659C78.4146 30.9685 78.8779 31.9333 79.3102 32.7736C79.372 32.9292 79.2794 33.0849 79.125 33.0849ZM73.7202 19.0794C73.7202 18.9861 73.7202 18.8927 73.7202 18.7993C73.7202 18.706 73.6893 18.6126 73.6893 18.5503C73.6893 18.4881 73.6584 18.4258 73.6584 18.3947C73.6584 18.3636 73.6584 18.3325 73.6276 18.3014C73.5967 18.2391 73.5658 18.1457 73.5658 18.0835V18.0524C73.3805 17.5855 73.0408 17.212 72.6393 16.9319C72.2995 16.7141 71.9289 16.5896 71.4657 16.4962C71.2804 16.4651 71.0951 16.4651 70.9098 16.4651H68.0375C67.914 16.4651 67.8213 16.5585 67.8213 16.683V21.6004C67.8213 21.6938 67.914 21.8183 68.0375 21.8183H70.9098C71.2804 21.8183 71.6201 21.756 71.9598 21.6627C72.3922 21.5382 72.7937 21.2892 73.0717 20.9779C73.1025 20.9468 73.1643 20.9157 73.1952 20.8535C73.257 20.7601 73.3496 20.6667 73.3805 20.5733C73.5967 20.231 73.7202 19.8264 73.7511 19.3907C73.7202 19.2662 73.7202 19.1728 73.7202 19.0794ZM97.5319 45.4719C97.5319 45.6275 97.4393 45.7831 97.254 45.7831C96.7907 45.8142 96.3274 45.8142 95.8333 45.8142C88.1122 45.8142 81.2868 41.9238 77.1792 35.9482C77.0557 35.7614 77.1792 35.4813 77.4263 35.4813H80.7927C80.8853 35.4813 80.9471 35.5125 81.0089 35.5747C84.5606 39.8386 89.9035 42.5152 95.8333 42.5152C96.2348 42.5152 96.6054 42.5152 97.0069 42.484C97.1613 42.484 97.3157 42.5774 97.3157 42.7641L97.5319 45.4719ZM114.364 9.80474C114.487 9.99148 114.364 10.2716 114.117 10.2716H110.75C110.658 10.2716 110.596 10.2405 110.534 10.1782C106.982 6.03884 101.732 3.42449 95.8642 3.42449C95.4009 3.42449 94.9376 3.45562 94.4744 3.48674C94.32 3.48674 94.1655 3.39337 94.1655 3.23776L93.9494 0.561166C93.9494 0.40555 94.042 0.249935 94.2273 0.249935C94.7832 0.218812 95.3083 0.187688 95.8642 0.187688C103.523 0.156565 110.256 3.98471 114.364 9.80474Z" fill="#E41D32"/>
</svg>
