<svg width="130" height="32" viewBox="0 0 130 32" fill="none" xmlns="http://www.w3.org/2000/svg">
<path d="M5.25717 11.0458H27.6277C28.3346 11.0458 28.3532 11.0928 28.2582 11.7615C27.8921 14.3423 26.681 16.5217 25.0273 18.4729C22.7471 21.1673 19.9019 23.143 16.816 24.8104C15.2847 25.6377 13.8279 25.5672 12.3338 24.7125C9.75203 23.2439 7.3132 21.5854 5.25521 19.4256C3.19723 17.2657 1.62485 14.7985 1.17155 11.7762C0.944408 10.2596 0.636983 8.74107 1.00903 7.18633C1.79227 3.91039 4.98499 1.57827 8.35883 1.8387C10.3238 1.99045 11.9363 2.80209 13.2541 4.24425C13.9855 5.04414 14.0433 5.0275 14.5191 4.04844C15.8173 1.37756 18.495 -0.195787 21.4606 0.0196061C24.8873 0.268287 27.5807 2.93035 27.941 6.173C27.9802 6.52644 27.9958 6.88282 28.0389 7.23724C28.0732 7.56131 27.9479 7.68956 27.614 7.73656C24.4771 8.17909 21.3418 8.63174 18.2082 9.09451C14.4773 9.63887 10.7477 10.1855 7.01948 10.7344C6.43204 10.8206 5.83579 10.897 5.24444 10.9772L5.25717 11.0458ZM9.64532 6.68309C10.3796 7.45459 11.0963 8.18203 11.7787 8.93493C11.8574 9.03521 11.9629 9.11128 12.0829 9.15439C12.2029 9.19751 12.3326 9.20594 12.4572 9.17871C13.3511 9.04458 14.2469 8.91926 15.1427 8.78709C15.2201 8.77632 15.319 8.79688 15.3572 8.70681C15.4051 8.58932 15.2945 8.54428 15.2299 8.47673C14.5445 7.76201 13.8592 7.05219 13.1885 6.32279C13.025 6.14363 12.8615 6.1495 12.6677 6.17691C12.2682 6.23468 11.8658 6.27482 11.4722 6.35902C10.877 6.48826 10.2582 6.46182 9.64042 6.68309H9.64532ZM8.24428 9.76908C7.46103 8.95157 6.74534 8.22511 6.06 7.46927C5.98694 7.37503 5.88905 7.30302 5.77732 7.26134C5.6656 7.21966 5.54446 7.20996 5.42752 7.23332C4.44063 7.37822 3.45276 7.51921 2.41104 7.66998C3.14827 8.57267 3.97754 9.32361 4.72554 10.1509C4.76291 10.1933 4.81102 10.2247 4.86479 10.2419C4.91856 10.2592 4.97599 10.2615 5.03101 10.2488C6.06881 10.0951 7.10564 9.94042 8.24428 9.76908ZM16.8257 5.60319C17.6315 6.45105 18.3746 7.23528 19.1236 8.01559C19.2088 8.10468 19.2969 8.19378 19.4565 8.1693C20.5119 8.00874 21.5693 7.85894 22.6874 7.69544C21.8885 6.85344 21.1434 6.0702 20.4013 5.27716C20.3508 5.21533 20.2842 5.16869 20.2089 5.14242C20.1335 5.11615 20.0524 5.11128 19.9744 5.12834C18.9552 5.28695 17.9331 5.43772 16.8257 5.60319ZM17.3818 14.5812C18.2816 14.5812 19.0668 14.5312 19.8422 14.5959C20.5442 14.6546 21.0102 14.4627 21.3784 13.8351C21.8043 13.1096 22.3359 12.4468 22.8675 11.692C21.723 11.692 20.6823 11.692 19.6366 11.692C19.5719 11.6884 19.5075 11.7021 19.4498 11.7317C19.3922 11.7613 19.3435 11.8057 19.3086 11.8604C18.6918 12.7376 18.0672 13.6158 17.3818 14.5812ZM8.27659 11.691C7.46691 11.691 6.77765 11.7517 6.10308 11.6763C5.18668 11.5784 4.54931 11.83 4.09894 12.6808C3.75138 13.3378 3.25695 13.9164 2.7919 14.5812H6.00126C6.12951 14.5812 6.23525 14.5812 6.33022 14.4392C6.94507 13.5522 7.57656 12.6769 8.27757 11.691H8.27659ZM10.0898 14.5812H13.2855C13.399 14.5812 13.5136 14.591 13.5919 14.4833L15.5696 11.6969H12.3064C12.2413 11.6976 12.1775 11.7153 12.1214 11.7483C12.0652 11.7813 12.0186 11.8283 11.9862 11.8848C11.3743 12.7552 10.7605 13.6276 10.0908 14.5812H10.0898ZM24.0551 4.5644C24.8707 5.42304 25.6363 6.2288 26.4049 7.03457C26.6408 7.28227 26.8944 7.06884 27.1352 7.03457C27.3761 7.0003 27.2429 6.77218 27.2429 6.63707C27.2429 5.8832 27.0119 5.18023 26.7475 4.48314C26.6555 4.24033 26.5135 4.17572 26.2668 4.21782C25.5629 4.33922 24.8599 4.44104 24.0551 4.5644ZM24.6896 14.5812C25.3289 14.5812 25.8791 14.5763 26.4293 14.5812C26.6252 14.5812 26.7084 14.5107 26.7828 14.3295C27.1 13.5702 27.3299 12.7773 27.4681 11.9661C27.4838 11.8682 27.5543 11.7252 27.4397 11.7204C27.1382 11.7066 26.8043 11.5461 26.5586 11.9083C25.9682 12.7797 25.3543 13.6334 24.6866 14.5812H24.6896Z" fill="#3B3B3A"/>
<path d="M72.3337 18.4059C73.2756 17.5845 74.2047 16.8815 75.4129 16.6896C76.9451 16.4468 78.2228 16.8707 79.0941 18.2032C79.3056 18.5273 79.4114 18.4314 79.6219 18.2561C80.5197 17.5071 81.5095 16.9363 82.6726 16.7033C84.7365 16.2882 86.393 17.3309 86.9247 19.3713C87.1841 20.3601 87.1205 21.3666 87.1205 22.3682C87.1312 24.0326 87.1068 25.697 87.1205 27.3614C87.1283 28.1936 87.2458 29.016 87.6815 29.7493C87.799 29.9451 87.7343 30.043 87.5836 30.1409C86.5281 30.8263 85.3924 31.1258 84.1569 30.7489C83.2395 30.4699 82.9272 29.7052 82.9027 28.8535C82.8527 27.0814 82.8772 25.3063 82.8586 23.5332C82.8518 22.8851 82.9232 22.233 82.7754 21.5888C82.5629 20.6597 81.8551 20.2837 80.973 20.646C80.6087 20.7958 80.3121 21.0513 80.0086 21.2951C79.8294 21.438 79.8343 21.629 79.8353 21.8258C79.8353 24.5877 79.8353 27.3496 79.8558 30.1106C79.8558 30.5482 79.753 30.7558 79.2939 30.7783C78.1885 30.8321 77.0871 30.8625 75.9817 30.7528C75.6263 30.7176 75.5421 30.5962 75.5441 30.2496C75.5607 27.6443 75.5509 25.039 75.5558 22.4347C75.5583 22.1097 75.5215 21.7856 75.4462 21.4694C75.2621 20.7038 74.6414 20.3493 73.8855 20.5814C73.7014 20.6455 73.5227 20.724 73.351 20.8163C72.7694 21.1022 72.4825 21.485 72.4982 22.2184C72.557 24.8873 72.5149 27.5582 72.5295 30.228C72.5295 30.5707 72.4532 30.7176 72.0929 30.7499C70.9755 30.8509 69.8514 30.8525 68.7337 30.7548C68.3039 30.7186 68.2442 30.5306 68.2442 30.1762C68.254 28.8965 68.2442 27.6179 68.2442 26.3382C68.2442 23.3032 68.2599 20.2681 68.2442 17.233C68.2442 16.7983 68.392 16.6455 68.8121 16.6798C69.0505 16.6938 69.2897 16.6912 69.5277 16.672C70.8563 16.5946 71.8824 16.998 72.3337 18.4059Z" fill="#A5C500"/>
<path d="M94.9608 18.389C95.7156 17.7556 96.4597 17.1877 97.3614 16.8578C99.0444 16.2419 100.766 16.7696 101.767 18.2647C101.944 18.529 102.014 18.4448 102.188 18.2989C102.879 17.7018 103.67 17.2321 104.524 16.9116C107.273 15.9198 109.551 17.4285 109.713 20.4C109.793 21.8392 109.746 23.2853 109.758 24.7284C109.767 25.8054 109.771 26.8755 109.797 27.9476C109.81 28.551 109.972 29.1419 110.268 29.6678C110.398 29.8979 110.399 30.0183 110.163 30.172C109.142 30.8387 108.044 31.0678 106.858 30.7819C106.027 30.5861 105.519 29.7549 105.504 28.5389C105.481 26.4878 105.493 24.4357 105.494 22.3836C105.496 22.1077 105.465 21.8326 105.401 21.5641C105.178 20.6379 104.454 20.2629 103.585 20.6477C103.227 20.8063 102.933 21.0638 102.628 21.3056C102.399 21.4858 102.465 21.7139 102.464 21.9263C102.464 24.6971 102.455 27.4678 102.469 30.2386C102.469 30.5744 102.406 30.7134 102.038 30.7477C100.856 30.8608 99.6655 30.8549 98.4844 30.7301C98.1829 30.6968 98.1731 30.5342 98.1741 30.3061C98.1786 28.3571 98.1786 26.4078 98.1741 24.4582C98.1741 23.6299 98.1956 22.7997 98.1525 21.9724C98.083 20.6222 97.195 20.1562 96.0084 20.7975C95.4209 21.1127 95.1125 21.4828 95.1272 22.2357C95.186 24.8723 95.138 27.5109 95.1615 30.1485C95.1615 30.5852 95.0313 30.7359 94.6171 30.7663C93.5299 30.8509 92.4375 30.8463 91.351 30.7526C90.9643 30.7173 90.8938 30.5568 90.8947 30.2092C90.9078 26.2218 90.9124 22.2341 90.9084 18.2461C90.9084 17.8544 90.9084 17.4687 90.9084 17.081C90.9016 16.7941 91.0259 16.6629 91.3157 16.6708C91.6055 16.6786 91.8904 16.6845 92.1763 16.6708C93.4951 16.5866 94.5055 17.0144 94.9608 18.389Z" fill="#A5C500"/>
<path d="M36.1418 22.1682V14.4512C36.1418 12.9072 36.7684 12.1416 38.2889 11.8714C38.6897 11.804 39.0955 11.7712 39.5019 11.7735C42.1748 11.7647 44.8476 11.7735 47.5195 11.7598C47.9169 11.7598 48.0844 11.8802 48.0981 12.2669C48.1098 12.6233 48.1676 12.9787 48.1695 13.3351C48.1793 14.8761 47.5439 15.5272 45.9823 15.5448C44.3767 15.5624 42.771 15.5526 41.1654 15.5526C40.4379 15.5526 40.4526 15.5526 40.48 16.2585C40.5094 17.1642 40.5495 18.0708 40.5104 18.9745C40.4918 19.4219 40.6602 19.464 41.0224 19.464C42.6251 19.4473 44.2288 19.464 45.8316 19.4405C46.2232 19.4346 46.3994 19.5266 46.4591 19.9525C46.5833 20.8503 46.5787 21.7612 46.4454 22.6577C46.4004 22.9778 46.2927 23.0875 45.9559 23.0836C44.3013 23.065 42.6467 23.0836 40.9921 23.0689C40.666 23.0689 40.5113 23.1149 40.5143 23.5124C40.5319 25.777 40.5074 28.0425 40.5192 30.3071C40.5192 30.6008 40.4428 30.7085 40.1579 30.7428C38.9732 30.8828 37.7905 30.8485 36.6039 30.7614C36.1907 30.7251 36.132 30.5479 36.132 30.1778C36.1496 27.5079 36.1418 24.838 36.1418 22.1682Z" fill="#A5C500"/>
<path d="M122.35 23.9029C122.35 22.7046 122.334 21.5052 122.358 20.3078C122.366 19.9475 122.238 19.8555 121.91 19.878C121.475 19.9074 121.037 19.9035 120.6 19.9221C120.345 19.9319 120.191 19.8731 120.147 19.5696C120.024 18.7996 120.021 18.0152 120.139 17.2443C120.19 16.935 120.286 16.792 120.637 16.8341C121.087 16.888 121.546 16.8654 122 16.8958C122.279 16.9144 122.368 16.8106 122.366 16.5355C122.366 15.8903 122.35 15.2431 122.404 14.6019C122.511 13.3399 123.118 12.7622 124.371 12.7015C124.94 12.6741 125.511 12.7015 126.081 12.6878C126.419 12.68 126.543 12.8268 126.539 13.1577C126.528 14.2249 126.558 15.2931 126.519 16.3583C126.501 16.8273 126.669 16.9252 127.093 16.9007C127.87 16.8547 128.651 16.8684 129.431 16.8292C129.724 16.8145 129.812 16.9213 129.856 17.2013C129.965 17.9585 129.969 18.7272 129.866 19.4854C129.827 19.8124 129.715 19.9231 129.377 19.9074C128.568 19.8692 127.757 19.879 126.948 19.8486C126.642 19.8369 126.52 19.9064 126.523 20.2461C126.539 22.217 126.523 24.1878 126.536 26.1597C126.542 27.1387 126.878 27.4775 127.845 27.5157C128.198 27.5303 128.551 27.5215 128.904 27.5108C129.143 27.5029 129.295 27.5636 129.365 27.826C129.561 28.6191 129.701 29.4121 129.566 30.2335C129.535 30.4156 129.491 30.5508 129.292 30.5713C127.869 30.7162 126.441 30.9688 125.016 30.724C123.383 30.444 122.568 29.5032 122.414 27.8544C122.289 26.5395 122.387 25.2198 122.35 23.9029Z" fill="#A5C500"/>
<path d="M50.6407 19.8933C50.6407 17.29 50.6407 14.6867 50.6358 12.0824C50.6358 11.6908 50.7788 11.5243 51.1861 11.5517C51.6218 11.5801 52.0614 11.5517 52.499 11.5605C54.1115 11.5762 54.7841 12.2185 54.7969 13.8457C54.8204 16.8866 54.8106 19.9286 54.8135 22.9705C54.8135 24.0553 54.8057 25.1391 54.8135 26.2239C54.8223 27.1775 55.1425 27.528 56.1127 27.4967C56.6522 27.48 56.8666 27.6671 56.9361 28.1674C57.0281 28.8292 57.1133 29.4881 57.0487 30.1568C57.0301 30.3526 57.0183 30.5484 56.755 30.5837C55.5801 30.7433 54.3964 30.9126 53.2118 30.755C51.703 30.5592 50.862 29.6183 50.721 28.0362C50.5732 26.406 50.6721 24.771 50.6476 23.1409C50.628 22.058 50.6407 20.9762 50.6407 19.8933Z" fill="#A5C500"/>
<path d="M118.316 24.9685C118.316 26.7308 118.308 28.4931 118.323 30.2495C118.323 30.5589 118.279 30.7038 117.931 30.739C116.75 30.8622 115.559 30.8596 114.378 30.7312C114.113 30.7028 114.022 30.5971 114.024 30.3308C114.034 28.4373 114.031 26.5447 114.031 24.6522C114.031 23.5185 114.046 22.3847 114.021 21.2519C114.002 20.363 113.581 19.9508 112.692 19.941C112.385 19.941 112.301 19.8098 112.265 19.5494C112.169 18.7923 112.169 18.0262 112.265 17.2691C112.289 17.041 112.37 16.8775 112.646 16.8628C113.635 16.7962 114.628 16.6739 115.618 16.7649C117.241 16.9196 118.261 18.0054 118.304 19.6796C118.351 21.4419 118.315 23.2042 118.315 24.9665L118.316 24.9685Z" fill="#A5C500"/>
<path d="M64.5473 24.9976C64.5473 26.753 64.5375 28.5095 64.5561 30.2649C64.5561 30.5978 64.4719 30.7084 64.1371 30.7427C63.0039 30.8548 61.8625 30.8568 60.729 30.7486C60.355 30.7143 60.2629 30.5792 60.2649 30.216C60.2806 27.3845 60.2747 24.5521 60.2708 21.7197C60.2709 21.4927 60.2549 21.2659 60.2228 21.0412C60.1131 20.2854 59.7479 19.9388 58.9921 19.9417C58.6622 19.9417 58.5094 19.8291 58.481 19.5227C58.4105 18.7619 58.3773 18.0022 58.5036 17.2415C58.5398 17.0212 58.6162 16.8782 58.856 16.8626C59.8791 16.7979 60.9062 16.6599 61.9264 16.7744C63.4928 16.9497 64.4915 18.0639 64.5267 19.6783C64.5659 21.4504 64.5355 23.2245 64.5355 24.9976H64.5473Z" fill="#A5C500"/>
<path d="M64.1458 12.9597C63.9667 14.6916 63.9608 14.6397 62.3502 14.8953C61.5827 15.0167 60.8337 14.8845 60.0984 14.6652C59.9959 14.6403 59.902 14.5882 59.8265 14.5145C59.751 14.4408 59.6968 14.3481 59.6696 14.2461C59.3803 13.3777 59.3803 12.4388 59.6696 11.5704C59.6971 11.4777 59.7474 11.3933 59.8158 11.3249C59.8841 11.2566 59.9685 11.2063 60.0612 11.1787C61.1846 10.7608 62.4204 10.7581 63.5457 11.1709C63.6312 11.1962 63.7092 11.242 63.773 11.3043C63.8368 11.3665 63.8845 11.4434 63.9118 11.5283C64.0707 11.9886 64.1498 12.4727 64.1458 12.9597Z" fill="#A5C500"/>
<path d="M115.599 10.864C115.913 10.8512 116.227 10.8842 116.531 10.9619C117.729 11.2419 117.636 11.1274 117.887 12.4305C118.007 13.0464 117.871 13.6583 117.7 14.2565C117.674 14.3502 117.623 14.4352 117.553 14.5026C117.483 14.5701 117.396 14.6176 117.301 14.6403C116.201 15.0123 115.012 15.027 113.903 14.6824C113.786 14.6515 113.68 14.5897 113.596 14.5035C113.511 14.4174 113.452 14.31 113.423 14.1928C113.167 13.3829 113.16 12.5146 113.405 11.7011C113.438 11.5599 113.509 11.4305 113.611 11.3277C113.713 11.2248 113.842 11.1528 113.983 11.1196C114.505 10.9494 115.05 10.8632 115.599 10.864Z" fill="#A5C500"/>
<path d="M9.64043 6.68466C10.2582 6.46046 10.877 6.48885 11.4674 6.36647C11.859 6.28521 12.2633 6.24213 12.6628 6.18436C12.8586 6.15695 13.0201 6.15108 13.1836 6.33024C13.8514 7.06062 14.5416 7.77044 15.225 8.48418C15.2896 8.55173 15.4002 8.59677 15.3523 8.71426C15.3141 8.80433 15.2152 8.78377 15.1379 8.79454C14.242 8.92377 13.3462 9.04909 12.4523 9.18616C12.3277 9.21339 12.198 9.20496 12.078 9.16184C11.958 9.11873 11.8526 9.04266 11.7738 8.94238C11.0914 8.1836 10.3747 7.45616 9.64043 6.68466Z" fill="#FEFEFD"/>
<path d="M8.24428 9.76887C7.10564 9.94021 6.06881 10.0949 5.03101 10.2584C4.97599 10.2711 4.91856 10.2687 4.86479 10.2515C4.81102 10.2343 4.76291 10.2028 4.72554 10.1605C3.97852 9.33319 3.14827 8.58225 2.41104 7.67956C3.45276 7.52878 4.44063 7.38584 5.42752 7.2429C5.54446 7.21953 5.6656 7.22924 5.77732 7.27092C5.88905 7.3126 5.98694 7.38461 6.06 7.47885C6.74534 8.22392 7.46299 8.95136 8.24428 9.76887Z" fill="#FEFEFD"/>
<path d="M16.8257 5.60202C17.9331 5.43656 18.9552 5.2897 19.9744 5.12718C20.0524 5.11011 20.1335 5.11498 20.2089 5.14125C20.2842 5.16752 20.3508 5.21416 20.4013 5.27599C21.1434 6.06903 21.8885 6.85228 22.6844 7.69427C21.5654 7.85777 20.508 8.00757 19.4535 8.16814C19.294 8.19261 19.2058 8.10352 19.1207 8.01442C18.3766 7.23411 17.6315 6.44989 16.8257 5.60202Z" fill="#FEFEFD"/>
<path d="M17.3818 14.5812C18.0672 13.6158 18.6918 12.7376 19.3135 11.8584C19.3484 11.8038 19.3971 11.7594 19.4547 11.7298C19.5124 11.7002 19.5768 11.6865 19.6415 11.69C20.6823 11.69 21.723 11.69 22.8724 11.69C22.3408 12.4449 21.8092 13.1077 21.3833 13.8332C21.0151 14.4607 20.5491 14.6526 19.8471 14.5939C19.0668 14.5312 18.2787 14.5812 17.3818 14.5812Z" fill="#FEFEFD"/>
<path d="M8.27757 11.6908C7.57656 12.6767 6.94507 13.551 6.33022 14.438C6.23231 14.5751 6.13441 14.58 6.00126 14.58H2.79287C3.25793 13.9152 3.75235 13.3366 4.09992 12.6796C4.55029 11.8288 5.18765 11.5743 6.10406 11.6751C6.77863 11.7485 7.46789 11.6908 8.27757 11.6908Z" fill="#FEFEFD"/>
<path d="M10.0908 14.5796C10.7605 13.626 11.3743 12.7537 11.9863 11.8794C12.0186 11.8229 12.0652 11.7758 12.1214 11.7429C12.1775 11.7099 12.2413 11.6922 12.3064 11.6914H15.5725L13.5948 14.4778C13.5165 14.5884 13.399 14.5757 13.2884 14.5757L10.0908 14.5796Z" fill="#FEFEFD"/>
<path d="M24.0551 4.56263C24.8629 4.43927 25.5658 4.33745 26.2658 4.22094C26.5126 4.17884 26.6575 4.24346 26.7466 4.48627C27.0109 5.18238 27.2361 5.88534 27.242 6.6402C27.242 6.77531 27.3859 7.00539 27.1343 7.0377C26.8827 7.07 26.6447 7.28148 26.4039 7.0377C25.6334 6.22801 24.8677 5.42127 24.0551 4.56263Z" fill="#FEFEFD"/>
<path d="M24.6866 14.5808C25.3543 13.6331 25.9682 12.7794 26.5595 11.9109C26.8063 11.5487 27.1401 11.7093 27.4407 11.723C27.5553 11.7279 27.4848 11.8757 27.4691 11.9687C27.3309 12.7799 27.1009 13.5728 26.7838 14.3322C26.7093 14.5133 26.6222 14.5867 26.4303 14.5838C25.8762 14.5759 25.3279 14.5808 24.6866 14.5808Z" fill="#FEFEFD"/>
<path opacity="0.2" d="M15.1604 31.0013C20.5908 31.0013 24.9931 30.7133 24.9931 30.3581C24.9931 30.0028 20.5908 29.7148 15.1604 29.7148C9.72991 29.7148 5.32766 30.0028 5.32766 30.3581C5.32766 30.7133 9.72991 31.0013 15.1604 31.0013Z" fill="black"/>
</svg>
