<svg width="67" height="67" viewBox="0 0 67 67" fill="none" xmlns="http://www.w3.org/2000/svg">
<path d="M0 0H67.0001V54.3433H0V0Z" fill="#003366"/>
<path d="M-6.10352e-05 55.0859H67V66.9995H-6.10352e-05V55.0859Z" fill="#C20017"/>
<path d="M67.0001 38.898H66.8753C66.1321 37.0752 65.2912 35.2958 64.3526 33.5652H65.1773C65.8283 34.8129 66.4359 36.077 67.0001 37.3627V38.898ZM0 7.44325C3.29847 6.33653 6.68916 5.55531 10.1395 5.10503L11.1215 0H19.0801L17.2952 4.63304C19.4382 4.62762 21.5757 4.7524 23.7023 5.00738L26.1816 0H34.9269L30.7604 6.32568C36.2886 7.75791 41.5509 10.0582 46.3467 13.145C47.3015 13.7581 48.2292 14.4037 49.1298 15.071H47.8657C42.5654 11.3385 36.6249 8.59337 30.3372 6.98212L25.243 14.8865H21.5865V20.2682L12.5646 34.9865H9.67839V39.9071L0.434009 54.3433H0.141053L23.3659 5.70179C21.2664 5.45766 19.1506 5.34373 17.0403 5.36001L0.0651013 54.3433H0V7.44325ZM0 53.4373L9.97678 5.87539C6.59693 6.34738 3.27134 7.15029 0.0434009 8.26244H0V53.4373Z" fill="white"/>
<path d="M27.5432 27.3053H32.4367V22.7319H27.5432V20.551H33.5L33.1745 15.9668H22.563V32.7521H27.5432V27.3053ZM48.2454 32.7033H53.6L56.0413 28.5856L58.5423 32.7087H64.0216L58.7376 24.0122L63.4954 15.9939H58.0703L56.025 19.4768L53.9038 15.9831H48.3865L53.2854 24.0502L48.2454 32.7033ZM42.0174 32.8877C46.7535 32.9528 50.6488 29.1769 50.7301 24.4408C50.5294 19.6233 46.466 15.88 41.6431 16.0753C37.1023 16.2652 33.4674 19.9 33.2776 24.4408C33.3535 29.1824 37.2596 32.9637 42.0011 32.8877H42.0174ZM40.4767 20.7572C40.4821 19.9271 41.1385 19.2544 41.9632 19.2164C42.8149 19.2327 43.5039 19.9109 43.5364 20.7572V27.8803C43.4768 28.7267 42.7444 29.3614 41.8981 29.3017C41.1331 29.2475 40.5309 28.6399 40.4767 27.8803V20.7572ZM28.6771 45.2841H33.7441V41.9259H28.6771V39.642H34.8508V36.0072H24.7656V51.702H34.9268V47.9261H28.6771V45.2841ZM50.486 36.0072L48.5438 44.9911L46.645 36.0072H43.2923L41.4857 45.0834L39.6032 36.0072H35.6049L39.2343 51.702H42.88L44.6649 42.7072L46.504 51.702H50.0737L53.7194 36.0072H50.486ZM63.7233 43.0978C62.6816 42.1375 61.4881 41.8825 60.1481 41.5028C58.564 41.0579 57.6905 41.0091 57.6905 40.0868C57.7556 39.4033 58.3633 38.9042 59.0468 38.9693C59.0522 38.9693 59.0577 38.9693 59.0577 38.9693C60.0667 38.8879 60.989 39.5552 61.2223 40.5425L64.6455 39.4033C64.0108 37.0162 61.7974 35.3941 59.3289 35.5026C55.7538 35.5026 53.5675 37.6998 53.5675 40.6565C53.5675 43.2117 55.0539 44.4703 58.0323 45.36C59.8118 45.8971 60.7557 45.8537 60.7557 46.9984C60.7557 47.6006 60.1969 48.0726 59.2693 48.0726C58.0432 48.2136 56.9256 47.3728 56.714 46.1575L52.9599 46.9821C53.6 49.9605 55.8189 51.7291 59.2204 51.7291C60.9022 51.7725 62.5243 51.1052 63.6853 49.89C64.5425 48.946 65.0144 47.7145 65.0036 46.4342C65.0741 45.1864 64.6021 43.9712 63.7178 43.0923H63.7233V43.0978ZM19.8938 43.8844L15.2174 36.0777H10.682V51.7128H14.664V42.577L20.0023 51.6911H23.7782V36.056H19.9047L19.8938 43.8844Z" fill="white"/>
<path d="M6.43958 60.4732C6.86817 60.3972 7.29132 60.6414 7.44323 61.0483H9.67837C9.53732 59.9904 8.33837 59.361 6.47213 59.361C4.33464 59.3882 2.97836 60.305 2.97836 61.7969C2.97836 63.1532 4.31294 64.0321 6.33651 64.0321C8.20274 64.0321 9.42339 63.3865 9.65125 62.2852H7.44865C7.32388 62.7083 6.97124 62.9199 6.40161 62.9199C5.65837 62.9199 5.25691 62.5239 5.25691 61.7372C5.25691 60.9506 5.67464 60.4732 6.43958 60.4732ZM28.178 63.0339V61.39C28.2648 60.8801 28.0966 60.3593 27.7331 59.9958C26.9845 59.5455 26.111 59.3448 25.2376 59.4316C23.3117 59.4316 22.2592 59.8981 22.0422 60.9181H24.0875C24.1743 60.598 24.5486 60.4244 25.1888 60.4244C25.8289 60.4244 26.0676 60.56 26.0676 60.8096V60.9126C26.0676 61.249 25.2267 61.1785 23.6535 61.4172C22.4545 61.5962 21.8523 62.0411 21.8523 62.7626C21.8523 63.4841 22.639 64.0158 23.9735 64.0158C24.7331 64.0375 25.4871 63.8313 26.1327 63.4299C26.1544 63.5818 26.1924 63.7337 26.2467 63.8747H28.4818V63.712C28.2865 63.636 28.1834 63.4082 28.1834 63.0176L28.178 63.0339ZM26.0568 62.334C26.0568 62.7951 25.5197 63.0772 24.771 63.0772C24.2719 63.0772 23.9518 62.8602 23.9518 62.5619C23.9518 62.2635 24.1851 62.1658 24.6951 62.079C25.1562 62.0356 25.6119 61.9543 26.0568 61.8349V62.334ZM36.077 59.437C35.3229 59.3719 34.5796 59.6269 34.0208 60.1368V59.5564H31.8616V63.8964H34.0968V61.5636C34.0968 60.8204 34.4169 60.5166 35.2198 60.5166C36.0227 60.5166 36.1529 60.9018 36.1529 61.6993V63.8802H38.3881V61.0428C38.3609 59.947 37.7479 59.437 36.1041 59.437H36.077ZM16.7636 59.4967C16.0095 59.4424 15.2608 59.6866 14.6803 60.1748V58.0699H12.4452V63.9507H14.6803V61.6342C14.6803 60.8909 15.0004 60.5871 15.8033 60.5871C16.6062 60.5871 16.7364 60.9723 16.7364 61.7698V63.9507H18.9716V60.9723C18.9716 60.0066 18.2066 59.4967 16.7853 59.4967H16.7636ZM46.542 59.437C45.7879 59.3719 45.0447 59.6269 44.4859 60.1368V59.5564H42.3647V63.8964H44.5998V61.5636C44.5998 60.8204 44.9199 60.5166 45.7228 60.5166C46.5257 60.5166 46.6559 60.9018 46.6559 61.6993V63.8802H48.8911V61.0428C48.8639 59.947 48.2455 59.437 46.5962 59.437H46.542ZM55.2222 59.3936C53.1552 59.3936 51.8152 60.2779 51.8152 61.7318C51.8152 63.1858 53.1823 64.0266 55.2764 64.0266C57.0125 64.0266 58.2548 63.4733 58.6291 62.5402H56.4916C56.3343 62.8548 55.9546 63.0176 55.3524 63.0176C54.5657 63.0176 54.1371 62.6921 54.1371 62.079H58.7214C58.7268 61.9922 58.7268 61.9109 58.7214 61.824C58.7376 60.305 57.4085 59.399 55.2764 59.399L55.2222 59.3936ZM54.0232 61.2436C54.11 60.6631 54.5766 60.3484 55.2873 60.3484C55.998 60.3484 56.5405 60.6739 56.5513 61.2436H54.0232ZM61.7865 58.0645V63.9453H64.0217V58.0645H61.7865Z" fill="white"/>
</svg>
