<svg width="111" height="58" viewBox="0 0 111 58" fill="none" xmlns="http://www.w3.org/2000/svg">
<path d="M80.6913 57.9867C80.3135 57.0992 80.3245 57.0575 81.1471 56.6544C85.8504 54.3478 90.0714 51.3822 93.6246 47.5028C97.1779 43.6233 99.6986 39.1694 100.798 33.9763C101.052 32.7626 101.209 31.5308 101.268 30.2924C101.295 29.7608 101.503 29.6619 101.968 29.6641C104.618 29.678 107.268 29.678 109.918 29.6641C110.413 29.6641 110.609 29.8069 110.577 30.3176C110.454 32.0846 110.099 33.8277 109.52 35.5019C108.303 39.0541 106.283 42.113 103.722 44.8282C99.2285 49.5897 93.7564 52.8969 87.7956 55.4824C85.5824 56.4424 83.3032 57.2233 81.0186 57.9922L80.6913 57.9867Z" fill="#142E54"/>
<path d="M30.3266 57.9865C28.5154 57.3594 26.6932 56.7619 24.9138 56.0424C19.523 53.8611 14.4793 51.0855 10.1012 47.2214C6.2272 43.8066 3.15285 39.8283 1.60415 34.8175C1.2318 33.6093 1.0297 32.3659 0.810028 31.1281V29.7002L7.93187 29.6694C8.42504 29.6694 8.9204 29.6903 9.41138 29.6628C9.86281 29.6387 10.0473 29.7727 10.0704 30.2658C10.1783 32.2148 10.51 34.1449 11.0589 36.018C12.2144 39.9315 14.1948 43.3925 16.8276 46.4888C20.4775 50.7834 24.9369 54.0302 29.963 56.5323C30.8725 56.9848 30.8736 56.9815 30.6528 57.9843L30.3266 57.9865Z" fill="#142E54"/>
<path d="M0.809998 26.8538C1.05603 25.3786 1.32953 23.9123 1.8194 22.4921C3.09681 18.7972 5.22435 15.6416 7.91976 12.8473C12.3616 8.24844 17.7249 5.02912 23.5397 2.51165C25.6529 1.59582 27.8165 0.801144 30.0201 0.13148C30.2672 0.0567906 30.5759 -0.190343 30.7219 0.294039C30.8373 0.679567 30.9416 0.987111 30.4353 1.22765C26.8689 2.92684 23.5672 5.0423 20.607 7.66191C15.7599 11.9522 12.1727 17.0442 10.6833 23.4455C10.4043 24.562 10.2289 25.7018 10.1593 26.8505C10.1418 27.2558 10.0495 27.5424 9.53217 27.5391C6.62588 27.5183 3.71958 27.5205 0.813293 27.515L0.809998 26.8538Z" fill="#142E54"/>
<path d="M40.938 23.1761C40.938 16.5474 45.2655 11.1193 51.5306 9.80121C56.6589 8.72151 62.1124 10.994 65.0966 15.8532C68.3544 21.1584 67.6229 28.0792 63.2931 32.5485C61.1242 34.7906 58.4738 36.0885 55.342 36.4422C48.8847 37.1803 42.5075 32.6649 41.173 25.6156C41.0039 24.7511 40.8874 23.8834 40.938 23.1761ZM51.9403 22.9762H51.9348C51.9348 24.7336 51.9348 26.4833 51.9348 28.2363C51.9348 28.6009 51.9349 28.9656 52.0634 29.3182C52.4401 30.3287 53.4034 30.8559 54.5347 30.656C55.5144 30.4857 56.2855 29.5576 56.2921 28.4966C56.3053 26.6876 56.2921 24.8797 56.2921 23.0717C56.2921 21.2451 56.3009 19.4186 56.2866 17.5931C56.2789 16.5474 55.5968 15.6006 54.694 15.3183C53.8153 15.0426 52.9366 15.3447 52.3676 16.1114C52.0238 16.5749 51.9283 17.0999 51.9283 17.6623C51.9447 19.4284 51.9403 21.199 51.9403 22.9707V22.9762Z" fill="#142E54"/>
<path d="M83.5767 36.8477C82.3872 36.8477 81.1987 36.829 80.0103 36.8576C79.5336 36.8697 79.2491 36.7269 79.0086 36.2952C77.9047 34.3181 76.7646 32.3587 75.6355 30.3948C75.5652 30.2728 75.5366 30.0762 75.3785 30.0653C75.2203 30.0543 75.1819 30.2564 75.1138 30.3761C73.9857 32.3619 72.8544 34.3456 71.7451 36.3413C71.543 36.706 71.3123 36.8642 70.8861 36.8609C68.5093 36.8433 66.1313 36.8543 63.7544 36.851C63.0734 36.851 63.0416 36.7939 63.3898 36.1788C65.7941 31.9347 68.1841 27.6829 70.6247 23.4596C71.0234 22.771 71.0212 22.2811 70.6181 21.5924C68.328 17.6844 66.095 13.7445 63.8434 9.81348C63.4963 9.20827 63.5139 9.17313 64.2278 9.17203C66.6783 9.17203 69.1287 9.17972 71.5781 9.16434C71.9977 9.16434 72.2448 9.30164 72.448 9.66959C73.3487 11.3007 74.2834 12.9131 75.1863 14.5431C75.4125 14.9517 75.5235 14.9736 75.7629 14.5431C76.6833 12.9032 77.6455 11.2853 78.5649 9.64323C78.7768 9.26649 79.0372 9.15995 79.4435 9.16214C81.8018 9.17752 84.1611 9.16873 86.5193 9.16983C87.1783 9.16983 87.2123 9.21047 86.8795 9.7992C84.6074 13.8244 82.3279 17.844 80.0411 21.8582C79.8016 22.2778 79.795 22.5766 80.0411 22.9972C82.5878 27.3907 85.1214 31.7923 87.6418 36.2019C87.9911 36.8093 87.9713 36.8433 87.253 36.8455C86.0261 36.8499 84.8014 36.8477 83.5767 36.8477Z" fill="#142E54"/>
<path d="M24.1548 22.9902C24.1548 18.6421 24.1548 14.2937 24.1548 9.94487C24.1548 9.1145 24.1614 9.10352 24.9665 9.10352H39.9988C40.7413 9.10352 40.7369 9.1167 40.7886 9.87238C40.927 11.9099 41.0873 13.9462 41.2125 15.9837C41.262 16.7998 41.2301 16.8031 40.4173 16.8042C37.857 16.8042 35.2967 16.8152 32.7364 16.7943C32.2377 16.7943 32.0477 16.9393 32.0697 17.4467C32.1026 18.1947 32.0939 18.9449 32.0697 19.694C32.0576 20.1235 32.2268 20.2674 32.6507 20.2652C34.6992 20.2509 36.7466 20.2575 38.795 20.2652C39.5573 20.2652 39.5639 20.2751 39.5639 21.0252C39.5639 23.0894 39.5639 25.154 39.5639 27.219C39.5639 27.9604 39.5507 27.9735 38.7862 27.9735C36.7378 27.9735 34.6893 27.9878 32.6419 27.9648C32.1378 27.9593 31.9829 28.1196 31.9829 28.6238C32.0049 31.1445 31.9829 33.6664 32.0027 36.1872C32.0027 36.7056 31.8511 36.8879 31.3184 36.8824C29.1422 36.8568 26.9659 36.8568 24.7897 36.8824C24.2735 36.8879 24.1307 36.6979 24.1384 36.2113C24.1603 31.7959 24.1548 27.3936 24.1548 22.9902Z" fill="#142E54"/>
<path d="M105.88 27.5317C104.528 27.5317 103.175 27.5196 101.823 27.5383C101.37 27.5448 101.217 27.3526 101.186 26.9265C100.878 22.7252 99.4966 18.8743 97.2888 15.3145C93.8839 9.82262 89.1323 5.76743 83.5592 2.60522C82.6541 2.09118 81.7249 1.61668 80.7891 1.16196C80.3355 0.942284 80.4541 0.633642 80.5496 0.289852C80.6661 -0.125333 80.944 0.00317667 81.2087 0.0855545C87.7593 2.145 93.9245 4.9766 99.3746 9.21302C103.05 12.0688 106.177 15.41 108.3 19.6014C109.48 21.8956 110.227 24.3877 110.503 26.9528C110.552 27.4185 110.415 27.5394 109.994 27.5361C108.623 27.5251 107.251 27.5317 105.88 27.5317Z" fill="#142E54"/>
<path d="M57.2872 43.8781C57.2872 42.4161 57.2982 40.9542 57.2795 39.4934C57.2795 39.0661 57.43 38.9003 57.8517 38.909C59.7882 38.9541 61.7268 38.8355 63.6632 38.9837C65.2921 39.11 66.5915 40.1425 66.9759 41.6473C67.401 43.3069 66.8287 44.8919 65.4382 45.7585C65.0615 45.9935 65.0582 46.1341 65.3371 46.4428C65.9116 47.0809 66.452 47.7498 67.0012 48.4089C67.0901 48.5187 67.2472 48.6187 67.1736 48.7801C67.1 48.9416 66.9188 48.8899 66.7793 48.8899C66.0851 48.8899 65.3899 48.8834 64.6924 48.8899C64.547 48.8943 64.4027 48.8623 64.2728 48.7967C64.143 48.7311 64.0316 48.634 63.9488 48.5143C63.4578 47.9014 62.935 47.3138 62.4429 46.702C62.3698 46.5981 62.2715 46.5146 62.1571 46.4592C62.0428 46.4039 61.9162 46.3786 61.7894 46.3857C61.2051 46.3999 60.6185 46.4021 60.032 46.3857C59.6827 46.3758 59.5312 46.5021 59.5432 46.8624C59.5608 47.3544 59.5301 47.8509 59.5509 48.3419C59.5685 48.7494 59.3895 48.902 59.0017 48.891C58.614 48.8801 58.2329 48.8757 57.8495 48.891C57.4278 48.9097 57.2696 48.7373 57.2751 48.3089C57.2982 46.8371 57.2872 45.362 57.2872 43.8781ZM61.6082 44.1538V44.1472C62.1574 44.1472 62.7065 44.167 63.2557 44.1472C64.0982 44.1087 64.6397 43.5815 64.6924 42.7885C64.7484 41.9449 64.2893 41.3804 63.4139 41.2376C62.2518 41.0476 61.0799 41.186 59.9134 41.1508C59.6091 41.142 59.5575 41.3354 59.5586 41.5825C59.5586 42.2767 59.5729 42.9708 59.5531 43.6639C59.541 44.0549 59.7102 44.1768 60.077 44.1626C60.5845 44.134 61.0963 44.1538 61.6082 44.1538Z" fill="#142E54"/>
<path d="M29.416 49.0371C27.819 49.0371 26.4834 48.8174 25.3586 47.8959C24.6063 47.2786 24.2899 46.4384 24.1702 45.5047C24.1307 45.2027 24.28 45.0654 24.5755 45.0577C24.871 45.05 25.162 45.0665 25.4542 45.0478C26.0616 45.0094 26.5789 45.005 26.7514 45.8101C26.8667 46.3428 27.4236 46.5636 27.9211 46.7097C28.8224 46.9613 29.7727 46.981 30.6835 46.7668C30.8422 46.7244 30.9952 46.6632 31.1394 46.5844C31.3854 46.4625 31.5535 46.267 31.5535 45.9858C31.5535 45.6695 31.3437 45.496 31.0702 45.3872C30.2749 45.072 29.4226 45.0753 28.5944 44.9775C27.8124 44.8853 27.0337 44.7919 26.2879 44.5382C25.2894 44.1944 24.5436 43.587 24.3943 42.4787C24.2372 41.3156 24.6238 40.3578 25.6025 39.6669C27.3972 38.3994 30.7011 38.4587 32.4453 39.8009C33.1355 40.3287 33.5986 41.0998 33.7403 41.957C33.8139 42.3469 33.7194 42.6039 33.2427 42.5699C32.9328 42.5446 32.6213 42.5446 32.3113 42.5699C31.7369 42.6215 31.2986 42.5699 31.1635 41.8516C31.0779 41.3968 30.6253 41.175 30.1849 41.0596C29.386 40.8507 28.5482 40.8401 27.7443 41.0289C27.2566 41.1387 26.7799 41.3452 26.7733 41.9076C26.7667 42.4699 27.2808 42.6325 27.7344 42.705C28.8141 42.8774 29.9037 42.9972 30.9856 43.1564C31.4939 43.2215 31.9898 43.361 32.4574 43.5705C34.2796 44.4217 34.5575 46.6679 32.9791 47.9212C31.8819 48.7955 30.5858 49.047 29.416 49.0371Z" fill="#142E54"/>
<path d="M83.0243 49.0338C81.9548 49.0688 80.8948 48.8243 79.9488 48.3243C78.8856 47.7476 78.3331 46.8316 78.1563 45.6596C78.0937 45.2445 78.2332 45.027 78.678 45.0511C78.8787 45.066 79.0803 45.066 79.281 45.0511C79.9719 44.9852 80.5617 45.0094 80.7594 45.8903C80.8539 46.311 81.3086 46.5197 81.7084 46.6592C82.6863 46.9806 83.7367 47.0099 84.7311 46.7437C85.1024 46.6504 85.4934 46.4867 85.4923 46.0045C85.4912 45.5223 85.1024 45.3905 84.7234 45.2895C83.7349 45.0259 82.6958 45.0555 81.6919 44.8699C81.2243 44.7915 80.7618 44.6851 80.3069 44.5514C79.2964 44.2383 78.5495 43.6288 78.3803 42.5293C78.1958 41.3452 78.5901 40.3721 79.5765 39.6625C81.3954 38.3544 84.8915 38.495 86.5874 39.9481C87.1835 40.4684 87.5829 41.1776 87.7187 41.957C87.7978 42.3513 87.7022 42.6029 87.2266 42.5688C86.9531 42.5507 86.6786 42.5507 86.405 42.5688C85.8075 42.6029 85.2682 42.6358 85.1221 41.8153C85.0453 41.3848 84.5883 41.1772 84.1731 41.0663C83.3053 40.8282 82.3885 40.8342 81.5239 41.0838C81.0988 41.2068 80.721 41.4265 80.7396 41.9384C80.7583 42.4502 81.179 42.5897 81.5667 42.6874C82.4355 42.9071 83.3351 42.9357 84.2215 43.0455C84.9486 43.1367 85.668 43.2597 86.3468 43.542C88.2141 44.3174 88.5436 46.6251 86.974 47.9025C85.8504 48.812 84.5191 49.0514 83.0243 49.0338Z" fill="#142E54"/>
<path d="M35.2308 43.858C35.2308 42.4147 35.2429 40.9726 35.2242 39.5304C35.2187 39.0911 35.3527 38.8967 35.814 38.9087C37.767 38.9582 39.721 38.8626 41.6761 38.9746C43.3983 39.0735 45.327 40.3201 45.1908 42.9661C45.092 44.8246 43.5598 46.3304 41.519 46.3875C40.369 46.4205 39.2124 46.4106 38.0657 46.3875C37.6461 46.3799 37.4638 46.5029 37.4902 46.9455C37.5198 47.4365 37.4902 47.9341 37.4978 48.4239C37.5044 48.7534 37.3551 48.8951 37.0387 48.8896C37.0212 48.8896 37.0025 48.8896 36.9849 48.8896C34.8255 48.8622 35.2813 49.1796 35.2396 47.2487C35.211 46.1217 35.2308 44.9893 35.2308 43.858ZM39.6243 44.1491H41.2719C41.3269 44.1494 41.3819 44.1465 41.4366 44.1403C42.2538 44.0546 42.7722 43.5318 42.8019 42.7629C42.8337 41.9391 42.3757 41.3757 41.5442 41.2395C40.3273 41.0396 39.0993 41.1857 37.8768 41.1439C37.5473 41.1329 37.488 41.3295 37.4902 41.6019C37.4968 42.2961 37.5044 42.9914 37.4902 43.6888C37.4814 44.0546 37.6406 44.171 37.9844 44.1611C38.5303 44.137 39.0784 44.1546 39.6276 44.1546L39.6243 44.1491Z" fill="#142E54"/>
<path d="M51.0144 49.0303C48.0488 49.0303 45.9289 46.8764 45.9487 43.8844C45.9707 40.8705 48.0664 38.7693 51.0496 38.7715C53.9855 38.7715 56.146 40.9594 56.1372 43.9218C56.1284 46.8841 53.9778 49.0336 51.0144 49.0303ZM53.6911 43.9349C53.6977 42.1677 52.7279 41.1209 51.0693 41.1066C49.4108 41.0923 48.3618 42.1655 48.352 43.8526C48.341 45.5924 49.3701 46.7083 51.0166 46.7457C52.6092 46.7808 53.6845 45.6506 53.6911 43.9349Z" fill="#142E54"/>
<path d="M72.6249 38.9131C74.033 38.9131 75.44 38.9274 76.8481 38.9055C77.3709 38.8978 77.5456 39.09 77.5423 39.6117C77.5346 41.1384 77.5533 41.1384 76.0046 41.1384C75.4554 41.1384 74.9062 41.1615 74.357 41.1319C73.9122 41.1077 73.7957 41.2922 73.7979 41.7096C73.8122 43.8646 73.8056 46.0196 73.7979 48.1746C73.7979 48.8622 73.7683 48.8897 73.095 48.8962C72.7292 48.8962 72.3624 48.8754 71.9966 48.8962C71.5034 48.9314 71.3222 48.7436 71.3277 48.2372C71.3497 46.1185 71.3365 43.9997 71.3354 41.8809C71.3354 41.1373 71.3354 41.1373 70.5742 41.1362C69.7878 41.1362 69.0013 41.1231 68.216 41.1362C67.8382 41.1439 67.6844 40.999 67.702 40.6222C67.7245 40.2388 67.7245 39.8545 67.702 39.4711C67.6712 39.0318 67.8832 38.9011 68.2885 38.9044C69.7362 38.9197 71.1805 38.9131 72.6249 38.9131Z" fill="#142E54"/>
</svg>
