<svg width="123" height="39" viewBox="0 0 123 39" fill="none" xmlns="http://www.w3.org/2000/svg">
<path d="M116.587 0H122.903V37.9325H116.588L116.587 0ZM101.364 12.0655C93.8784 12.0655 88.0689 18.0966 88.0689 25.4255C88.0689 32.7528 93.8784 38.5639 101.364 38.5639C105.629 38.5639 109.418 36.9845 111.882 33.6058L107.587 29.8472C106.229 31.6149 104.301 32.7844 101.364 32.7844C98.0802 32.7844 95.2996 30.6985 94.3832 27.573H113.115C113.21 26.7517 113.273 25.962 113.273 25.0773C113.273 18.1299 108.568 12.0655 101.366 12.0655H101.364ZM94.4799 22.6132C95.3962 19.6443 97.8586 17.5601 101.364 17.5601C104.744 17.5601 106.924 19.8976 107.238 22.6132H94.4799ZM80.5817 4.01017H74.2658V37.9642H80.5817V18.2232H86.7095V12.6653H80.5817V4.01017ZM71.4235 12.6653H63.938L58.0002 20.3074L52.2523 12.6653H44.6718L53.9567 24.7608L43.8505 37.9642H51.431L57.7469 29.5006L63.9696 37.9642H71.5818L61.6638 24.8874L71.4235 12.6653Z" fill="#F2320A"/>
<path d="M32.0065 12.0651C24.7092 12.0651 18.6465 17.9712 18.6465 25.3301C18.6465 32.6574 24.7109 38.5952 32.0065 38.5952C39.3038 38.5952 45.3665 32.689 45.3665 25.3301C45.3665 17.9712 39.3021 12.0651 32.0065 12.0651ZM32.0065 32.8473C27.9014 32.8473 24.7092 29.5619 24.7092 25.2985C24.7092 21.0334 27.9014 17.7496 32.0065 17.7496C36.1116 17.7496 39.3038 21.0351 39.3038 25.2968C39.3038 29.5619 36.1116 32.8473 32.0065 32.8473ZM11.6358 9.9792C11.6358 6.98032 12.5821 5.58917 15.2678 5.58917H18.8048V0.03125H14.7929C9.23669 0.03125 5.28816 2.52698 5.28816 10.0109V12.6982H0.83316V18.2561H5.28816V37.9971H11.6058V18.2544H17.7318V12.6982H11.6041V9.98253H11.6358V9.9792Z" fill="#F2320A"/>
</svg>
