<svg width="127" height="26" viewBox="0 0 127 26" fill="none" xmlns="http://www.w3.org/2000/svg">
<path d="M13.0581 4.95818C12.7052 4.86384 12.1642 4.79309 11.7643 4.79309C10.7057 4.79309 9.88241 5.09968 9.3649 5.71286C9.01204 6.18454 8.77681 6.77414 8.77681 8.25992V8.75518H13.7168V12.3871H8.77681V24.7686H4.49552V12.3871H0.378906V8.75518H4.49552V8.09483C4.49552 5.52419 5.08361 3.96766 6.21274 2.8828C7.34187 1.79794 9.01204 0.996094 11.1762 0.996094C12.0231 0.996094 12.8229 1.06685 13.7168 1.30268L13.0581 4.95818Z" fill="#232323"/>
<path d="M25.4081 12.5521C25.1023 12.4578 24.4907 12.387 23.8555 12.387C21.9737 12.387 20.4917 13.7313 19.9742 14.6983V24.7686H15.6929V8.75512H19.8095V10.3588C20.774 9.17963 22.5147 8.40137 24.4436 8.40137C25.0788 8.40137 25.4316 8.47212 25.9021 8.54287L25.4081 12.5521Z" fill="#232323"/>
<path d="M42.6975 24.7684H38.5809V23.4713C37.2636 24.6033 35.7581 25.0986 34.135 25.0986C31.7591 25.0986 29.5244 24.0373 28.113 22.3864C26.8662 20.9242 26.0664 18.9432 26.0664 16.7735C26.0664 12.0567 29.5479 8.4248 33.8997 8.4248C35.7111 8.4248 37.3342 9.0144 38.5809 10.0521V8.75498H42.6975V24.7684ZM38.4163 14.3679C37.5224 13.1887 36.111 12.3869 34.4643 12.3869C31.9708 12.3869 30.3477 14.4623 30.3477 16.7735C30.3477 19.2734 32.159 21.1365 34.5584 21.1365C36.1815 21.1365 37.5929 20.3346 38.4163 19.1555V14.3679Z" fill="#232323"/>
<path d="M46.3203 24.7684V8.75498H50.4369V10.0521C51.6602 9.06157 53.1657 8.4248 54.9534 8.4248C57.1647 8.4248 59.1642 9.41533 60.4815 10.9954C61.54 12.2454 62.1281 13.8727 62.1281 16.6084V24.7684H57.8468V16.2782C57.8468 14.6981 57.494 13.8727 56.8824 13.2831C56.3178 12.7171 55.471 12.3869 54.483 12.3869C52.6717 12.3869 51.1897 13.5425 50.6016 14.3679V24.7684H46.3203Z" fill="#232323"/>
<path d="M79.9118 21.4903C78.0299 23.9901 75.6541 25.0986 72.6666 25.0986C67.7266 25.0986 64.104 21.3959 64.104 16.7735C64.104 12.1275 67.8207 8.4248 72.6901 8.4248C75.4659 8.4248 77.9358 9.72192 79.4178 11.6322L76.4068 14.2972C75.56 13.1652 74.2662 12.3869 72.7136 12.3869C70.2436 12.3869 68.4088 14.3444 68.4088 16.7735C68.4088 19.2734 70.2201 21.1365 72.8312 21.1365C74.572 21.1365 75.9599 20.0752 76.642 19.014L79.9118 21.4903Z" fill="#232323"/>
<path d="M95.5082 22.2214C93.9557 24.0609 91.4151 25.0986 88.9452 25.0986C84.1699 25.0986 80.5708 21.7968 80.5708 16.7735C80.5708 12.3161 83.6053 8.4248 88.3336 8.4248C92.756 8.4248 95.8846 12.1511 95.8846 16.6084C95.8846 17.0329 95.8611 17.4574 95.7905 17.8348H84.7345C84.9697 20.0752 86.781 21.6318 89.0393 21.6318C90.8506 21.6318 92.309 20.6177 93.0618 19.7922L95.5082 22.2214ZM91.5092 14.6981C91.3681 13.2831 90.0978 11.8916 88.3571 11.8916C86.5693 11.8916 85.1344 13.2359 84.9227 14.6981H91.5092Z" fill="#232323"/>
<path d="M111.415 24.696V21.4313L119.466 12.9245C120.361 11.9208 120.96 11.0667 121.263 10.362C121.567 9.65729 121.718 9.01133 121.718 8.42406C121.718 8.02903 121.641 7.64732 121.487 7.27894C121.332 6.9106 121.125 6.58227 120.864 6.29398C120.603 6.00571 120.294 5.77615 119.937 5.6053C119.58 5.43448 119.184 5.34907 118.747 5.34905C117.98 5.34907 117.331 5.5893 116.798 6.06975C116.266 6.55025 115.813 7.34832 115.813 8.77356H111.399C111.399 6.76389 112.176 5.21293 112.645 4.55627C113.113 3.89964 113.664 3.34177 114.298 2.88263C114.932 2.42353 115.629 2.06318 116.391 1.80157C117.152 1.54 117.959 1.40921 118.811 1.40918C119.791 1.40921 120.723 1.58271 121.607 1.92969C122.491 2.27672 123.271 2.76253 123.947 3.38712C124.623 4.01175 125.158 4.76182 125.552 5.63733C125.946 6.51288 126.143 7.46314 126.143 8.48813C126.143 9.88685 125.843 11.1174 125.241 12.1798C124.639 13.2421 123.955 14.2111 123.188 15.0866L117.715 20.7562H126.621V24.696H111.415Z" fill="#232323"/>
<path fill-rule="evenodd" clip-rule="evenodd" d="M108.679 16.7265C108.679 19.177 106.697 21.1635 104.253 21.1635C101.809 21.1635 99.8276 19.177 99.8276 16.7265C99.8276 14.2761 101.809 12.2896 104.253 12.2896C106.697 12.2896 108.679 14.2761 108.679 16.7265Z" fill="#DE0038"/>
</svg>
