<svg width="127" height="25" viewBox="0 0 127 25" fill="none" xmlns="http://www.w3.org/2000/svg">
<path d="M13.0111 4.80629C12.6596 4.71255 12.1205 4.64224 11.7221 4.64224C10.6675 4.64224 9.84731 4.94691 9.33173 5.55623C8.9802 6.02494 8.74584 6.61082 8.74584 8.08725V8.5794H13.6673V12.1885H8.74584V24.4921H4.48059V12.1885H0.379395V8.5794H4.48059V7.9232C4.48059 5.36874 5.06648 3.822 6.19138 2.74398C7.31628 1.66595 8.9802 0.869141 11.1363 0.869141C11.9799 0.869141 12.7767 0.939447 13.6673 1.1738L13.0111 4.80629Z" fill="#232323"/>
<path d="M25.3146 12.3527C25.0099 12.2589 24.4006 12.1886 23.7678 12.1886C21.893 12.1886 20.4166 13.5244 19.901 14.4853V24.4922H15.6357V8.57956H19.7369V10.1732C20.6978 9.0014 22.432 8.22803 24.3537 8.22803C24.9865 8.22803 25.338 8.29833 25.8067 8.36864L25.3146 12.3527Z" fill="#232323"/>
<path d="M42.5396 24.4922H38.4384V23.2033C37.126 24.3282 35.6261 24.8203 34.0091 24.8203C31.6421 24.8203 29.4157 23.7657 28.0096 22.1252C26.7675 20.6722 25.9707 18.7037 25.9707 16.5476C25.9707 11.8605 29.4391 8.25146 33.7747 8.25146C35.5792 8.25146 37.1963 8.83735 38.4384 9.86851V8.57956H42.5396V24.4922ZM38.2743 14.1572C37.3838 12.9854 35.9776 12.1886 34.3372 12.1886C31.853 12.1886 30.236 14.2509 30.236 16.5476C30.236 19.0318 32.0405 20.8832 34.4309 20.8832C36.0479 20.8832 37.4541 20.0864 38.2743 18.9146V14.1572Z" fill="#232323"/>
<path d="M46.1489 24.4922V8.57956H50.2501V9.86851C51.4688 8.88422 52.9686 8.25146 54.7497 8.25146C56.9527 8.25146 58.9447 9.23575 60.2571 10.8059C61.3117 12.048 61.8975 13.665 61.8975 16.3836V24.4922H57.6323V16.0555C57.6323 14.4853 57.2808 13.665 56.6714 13.0792C56.109 12.5167 55.2653 12.1886 54.281 12.1886C52.4765 12.1886 51.0001 13.337 50.4142 14.1572V24.4922H46.1489Z" fill="#232323"/>
<path d="M79.6143 21.2347C77.7395 23.7189 75.3725 24.8203 72.3962 24.8203C67.4748 24.8203 63.8657 21.141 63.8657 16.5476C63.8657 11.9308 67.5685 8.25146 72.4197 8.25146C75.185 8.25146 77.6458 9.54041 79.1222 11.4387L76.1225 14.0869C75.2788 12.962 73.9898 12.1886 72.4431 12.1886C69.9824 12.1886 68.1544 14.1338 68.1544 16.5476C68.1544 19.0318 69.9589 20.8832 72.5603 20.8832C74.2945 20.8832 75.6772 19.8286 76.3568 18.774L79.6143 21.2347Z" fill="#232323"/>
<path d="M95.1525 21.9612C93.6058 23.7892 91.0747 24.8203 88.614 24.8203C83.8566 24.8203 80.271 21.5394 80.271 16.5476C80.271 12.1183 83.2942 8.25146 88.0047 8.25146C92.4105 8.25146 95.5275 11.9543 95.5275 16.3836C95.5275 16.8054 95.504 17.2272 95.4337 17.6022H84.4191C84.6534 19.8286 86.4579 21.3753 88.7077 21.3753C90.5123 21.3753 91.9653 20.3676 92.7152 19.5473L95.1525 21.9612ZM91.1685 14.4853C91.0279 13.0792 89.7623 11.6965 88.0281 11.6965C86.247 11.6965 84.8175 13.0323 84.6065 14.4853H91.1685Z" fill="#232323"/>
<path d="M108.274 16.5009C108.274 18.935 106.299 20.91 103.865 20.91C101.431 20.91 99.4561 18.935 99.4561 16.5009C99.4561 14.0668 101.431 12.0918 103.865 12.0918C106.299 12.0918 108.274 14.0643 108.274 16.5009Z" fill="#007FE9"/>
<path d="M110.607 21.176L113.816 18.5431C114.31 19.2013 114.886 19.7773 115.626 20.1887C116.367 20.6001 117.19 20.8469 118.095 20.8469C118.671 20.8469 119.164 20.7646 119.658 20.5178C120.152 20.271 120.646 20.0241 121.057 19.695C121.468 19.3659 121.797 18.8722 122.044 18.3785C122.291 17.8848 122.373 17.3089 122.373 16.6507C122.373 16.0747 122.291 15.4987 122.044 15.0051C121.797 14.5114 121.468 14.0177 121.057 13.6063C120.646 13.1949 120.152 12.9481 119.576 12.7012C119 12.4544 118.424 12.3721 117.766 12.3721C116.778 12.3721 115.873 12.619 114.968 13.0304V10.3974L119.247 5.29609H111.512V1.34668H125.5V3.97962L121.304 9.08095C122.867 9.6569 124.184 10.6443 125.171 11.9607C126.158 13.2772 126.652 14.8405 126.652 16.5684C126.652 17.8026 126.405 18.9545 125.994 19.9418C125.582 20.9292 124.924 21.752 124.184 22.4925C123.443 23.233 122.538 23.7267 121.468 24.1381C120.399 24.5495 119.329 24.714 118.095 24.714C116.614 24.714 115.297 24.3849 113.981 23.809C112.747 23.233 111.595 22.4102 110.607 21.176Z" fill="#232323"/>
</svg>
