<svg width="132" height="38" viewBox="0 0 132 38" fill="none" xmlns="http://www.w3.org/2000/svg">
<path d="M18.4678 37.4714C28.5565 37.4714 36.7351 29.0832 36.7351 18.7357C36.7351 8.38827 28.5565 0 18.4678 0C8.379 0 0.200439 8.38827 0.200439 18.7357C0.200439 29.0832 8.379 37.4714 18.4678 37.4714Z" fill="#0066FF"/>
<path d="M39.4114 13.1523V25.6619H43.9027V21.2727H47.1818V17.9939H43.9027V16.7132H47.6255V13.1523H39.4114Z" fill="black"/>
<path d="M48.867 13.1523V25.6619H53.2815V21.4949L55.3224 25.6619H60.5053L57.2093 20.7008C57.5565 20.6041 57.8471 20.4845 58.0805 20.3422C58.3139 20.1999 58.5359 20.0006 58.7465 19.7444C58.9571 19.4826 59.1305 19.1496 59.2671 18.7454C59.4038 18.3413 59.4721 17.897 59.4721 17.4131C59.4721 16.6731 59.3213 16.0272 59.0196 15.475C58.7236 14.9228 58.3365 14.4674 57.8583 14.1088C57.3858 13.7444 56.8424 13.4939 56.2276 13.3573C55.6185 13.2206 54.7703 13.1523 53.683 13.1523H48.867ZM53.2559 16.5934H53.5806C54.1726 16.5934 54.5738 16.6818 54.7845 16.8582C54.9951 17.0347 55.1002 17.2967 55.1002 17.644C55.1002 18.0652 54.9353 18.3782 54.6052 18.5831C54.4344 18.6856 54.0843 18.7368 53.5549 18.7368H53.2559V16.5934Z" fill="black"/>
<path d="M60.8129 13.1523V25.6619H69.2153V22.2634H65.2703V20.9653H68.7456V17.7464H65.2703V16.5339H69.07V13.1523H60.8129Z" fill="black"/>
<path d="M70.2054 13.1523V25.6619H78.6075V22.2634H74.6628V20.9653H78.1381V17.7464H74.6628V16.5339H78.4625V13.1523H70.2054Z" fill="black"/>
<path d="M79.9261 13.1523V25.6619H84.4174V21.2727H87.6965V17.9939H84.4174V16.7132H88.1403V13.1523H79.9261Z" fill="black"/>
<path d="M95.8118 12.8711C94.7814 12.8711 93.8364 13.0307 92.9768 13.3495C92.1229 13.6626 91.3801 14.1433 90.7483 14.7922C90.1221 15.4412 89.6552 16.1899 89.3478 17.0381C89.0461 17.8862 88.8953 18.6973 88.8953 19.4715C88.8953 20.4335 89.0776 21.3503 89.4419 22.2213C89.6924 22.8304 90.0736 23.408 90.5859 23.9545C91.0983 24.501 91.713 24.9479 92.4302 25.2951C93.398 25.7676 94.5026 26.0037 95.7436 26.0037C97.7986 26.0037 99.4578 25.392 100.722 24.1681C101.985 22.9385 102.617 21.3672 102.617 19.4545C102.617 17.5304 101.991 15.9536 100.739 14.724C99.4862 13.4888 97.844 12.8711 95.8118 12.8711ZM95.7605 16.9955C96.3981 16.9955 96.933 17.226 97.3656 17.6871C97.7983 18.1425 98.0147 18.7431 98.0147 19.4888C98.0147 20.1833 97.7983 20.7523 97.3656 21.1964C96.933 21.6347 96.3896 21.854 95.7349 21.854C95.0917 21.854 94.5564 21.6406 94.1295 21.2137C93.7082 20.781 93.4977 20.2202 93.4977 19.5314C93.4977 18.7629 93.7141 18.1482 94.1468 17.6871C94.5851 17.226 95.123 16.9955 95.7605 16.9955Z" fill="black"/>
<path d="M103.625 13.1523V25.6619H108.039V21.4949L110.08 25.6619H115.263L111.967 20.7008C112.315 20.6041 112.605 20.4845 112.838 20.3422C113.072 20.1999 113.294 20.0006 113.504 19.7444C113.715 19.4826 113.889 19.1496 114.025 18.7454C114.162 18.3413 114.23 17.897 114.23 17.4131C114.23 16.6731 114.079 16.0272 113.777 15.475C113.481 14.9228 113.094 14.4674 112.616 14.1088C112.144 13.7444 111.6 13.4939 110.985 13.3573C110.376 13.2206 109.528 13.1523 108.441 13.1523H103.625ZM108.014 16.5934H108.338C108.93 16.5934 109.332 16.6818 109.542 16.8582C109.753 17.0347 109.858 17.2967 109.858 17.644C109.858 18.0652 109.693 18.3782 109.363 18.5831C109.192 18.6856 108.842 18.7368 108.313 18.7368H108.014V16.5934Z" fill="black"/>
<path d="M116.971 13.1523L114.862 25.6619H119.234L119.943 18.9843L121.924 25.6619H124.579L126.722 18.9843L127.311 25.6619H131.726L129.736 13.1523H125.083L123.298 19.2235L121.565 13.1523H116.971Z" fill="black"/>
<path d="M18.4277 9.59821V14.1879C18.1616 14.0236 17.8877 13.9414 17.606 13.9414C17.3008 13.9414 17.0621 14.0197 16.89 14.1762C16.7178 14.3249 16.5965 14.544 16.5261 14.8335C16.4791 15.0135 16.4517 15.3813 16.4439 15.937H18.4277V20.5032H16.4791V28.098H10.5982V20.5032H8.98999V15.937H10.5982C10.606 14.1371 10.7429 12.8497 11.009 12.075C11.2829 11.2924 11.8229 10.6312 12.6289 10.0912C13.4428 9.54342 14.4875 9.26953 15.7631 9.26953C16.5691 9.26953 17.4573 9.37909 18.4277 9.59821Z" fill="black"/>
<path d="M27.0664 9.59821V14.1879C26.8003 14.0236 26.5264 13.9414 26.2447 13.9414C25.9395 13.9414 25.7008 14.0197 25.5287 14.1762C25.3565 14.3249 25.2352 14.544 25.1648 14.8335C25.1178 15.0135 25.0904 15.3813 25.0826 15.937H27.0664V20.5032H25.1178V28.098H19.2369V20.5032H17.6287V15.937H19.2369C19.2447 14.1371 19.3816 12.8497 19.6477 12.075C19.9216 11.2924 20.4616 10.6312 21.2676 10.0912C22.0815 9.54342 23.1262 9.26953 24.4018 9.26953C25.2078 9.26953 26.096 9.37909 27.0664 9.59821Z" fill="black"/>
</svg>
