<svg width="129" height="17" viewBox="0 0 129 17" fill="none" xmlns="http://www.w3.org/2000/svg">
<g clip-path="url(#clip0)">
<path d="M64.8081 11.2486C66.7273 8.13911 68.6453 5.02732 70.5609 1.91553C71.799 1.98256 73.0359 2.06371 74.2739 2.13074C75.7905 5.44716 77.3081 8.76476 78.8235 12.0824C77.7549 12.0212 76.6862 11.9518 75.6176 11.8965C75.3368 11.3497 75.0641 10.7981 74.8019 10.2419C72.8665 10.1184 70.9299 9.99254 68.9933 9.90434C68.6801 10.4265 68.3262 10.924 68.0013 11.4379C66.9361 11.3791 65.8721 11.3156 64.8081 11.2486ZM70.2581 7.62401C71.4637 7.69339 72.6692 7.77219 73.8759 7.83569C73.3236 6.67965 72.7852 5.51655 72.2422 4.35698C71.5762 5.44246 70.9195 6.535 70.2581 7.62401Z" fill="black"/>
<path d="M37.9962 3.20441C38.9627 3.13855 39.9304 3.07269 40.8981 3.00684C41.1058 6.22212 41.3239 9.43622 41.5305 12.6503C40.1103 12.7315 38.69 12.8703 37.2698 12.9173C35.2068 10.7393 33.1762 8.52832 31.1318 6.33267C31.2745 8.66357 31.4532 10.9933 31.5785 13.3254C30.6108 13.3865 29.6419 13.4536 28.6742 13.5206C28.4654 10.3065 28.2542 7.09356 28.0396 3.87945C29.4168 3.7842 30.7953 3.69364 32.1726 3.59838C32.3455 3.53252 32.4511 3.7007 32.5566 3.80301C34.5199 5.95163 36.4889 8.09554 38.458 10.2395C38.3048 7.89444 38.1505 5.54943 37.9962 3.20441Z" fill="black"/>
<path d="M121.113 3.25592C122.078 3.15714 123.042 3.05835 124.009 2.96191C124.322 6.16661 124.641 9.37131 124.959 12.5748C123.54 12.7195 122.122 12.8677 120.703 13.0076C118.595 10.8696 116.469 8.75036 114.356 6.61703C114.585 8.9397 114.815 11.2624 115.048 13.5839C114.078 13.685 113.108 13.7814 112.138 13.8802C111.82 10.6744 111.504 7.46966 111.188 4.26496C112.622 4.12031 114.055 3.9733 115.488 3.82748C117.591 5.9808 119.705 8.12236 121.808 10.278C121.577 7.93654 121.341 5.59741 121.113 3.25592Z" fill="black"/>
<path d="M2.18311 4.52294C5.64664 4.29361 9.109 4.06076 12.5725 3.83496C12.6201 4.62055 12.67 5.40614 12.7257 6.19174C10.2333 6.35873 7.741 6.52338 5.24981 6.6892C5.28926 7.25722 5.32059 7.82642 5.36352 8.39445C7.70851 8.23569 10.0535 8.08515 12.3973 7.92521C12.4577 8.70728 12.5006 9.49052 12.554 10.2738C10.2067 10.4302 7.85819 10.5819 5.51088 10.7442C5.58514 11.8191 5.6478 12.8951 5.72206 13.97C4.74971 14.0371 3.77737 14.097 2.80503 14.1653C2.5985 10.9512 2.38848 7.73705 2.18311 4.52294Z" fill="black"/>
<path d="M78.3345 4.67351C81.95 4.38185 85.5656 4.0902 89.1799 3.79736C89.2414 4.58766 89.3076 5.37678 89.3644 6.16825C88.044 6.27527 86.7224 6.38229 85.4019 6.48696C85.5911 8.90841 85.7814 11.3287 85.974 13.7502C85.0028 13.8325 84.0305 13.9066 83.0604 13.9865C82.8667 11.5663 82.6787 9.1448 82.4861 6.72452C81.1645 6.83271 79.8417 6.93856 78.5201 7.04557C78.4598 6.2541 78.3925 5.46381 78.3345 4.67351Z" fill="black"/>
<path d="M91.4653 3.77148C92.4342 3.87968 93.4019 3.99023 94.3707 4.10077C94.0157 7.30077 93.6629 10.5008 93.309 13.7019C92.3402 13.5973 91.3725 13.4797 90.4048 13.3738C90.7575 10.1726 91.1102 6.97148 91.4653 3.77148Z" fill="black"/>
<path d="M103.595 4.20187C104.668 4.13601 105.753 4.03487 106.825 4.17482C107.541 4.26655 108.261 4.61231 108.642 5.25913C109.222 6.20936 109.19 7.36658 109.271 8.44148C109.31 9.34232 109.43 10.242 109.382 11.1452C109.34 11.8873 109.099 12.6717 108.507 13.1515C107.829 13.7101 106.926 13.8383 106.086 13.9406C104.747 14.0712 103.402 14.1253 102.062 14.2229C100.99 14.2828 99.9059 14.4004 98.8373 14.2346C98.0993 14.1253 97.3765 13.7242 97.0052 13.0492C96.5167 12.1742 96.5375 11.1358 96.4668 10.1632C96.4204 9.19649 96.2997 8.23214 96.3507 7.26426C96.3879 6.52571 96.6327 5.74836 97.221 5.27324C97.9148 4.71109 98.8303 4.57938 99.6855 4.47706C100.985 4.34887 102.292 4.29595 103.595 4.20187ZM102.605 6.70094C101.71 6.7915 100.747 6.7127 99.928 7.14901C99.2538 7.56651 99.3316 8.4697 99.3838 9.15886C99.4673 9.86918 99.3513 10.6701 99.7864 11.2863C100.237 11.8355 101.018 11.8143 101.661 11.8073C102.713 11.7367 103.769 11.705 104.815 11.578C105.361 11.4956 106.008 11.3228 106.249 10.7583C106.53 10.0174 106.309 9.21295 106.304 8.445C106.284 7.8217 106.147 7.0467 105.503 6.78444C104.572 6.4481 103.567 6.67625 102.605 6.70094Z" fill="black"/>
<path d="M48.2786 4.37189C49.7116 4.37542 51.1434 4.37424 52.5764 4.37189C53.7124 6.37586 54.839 8.38452 55.9668 10.3932C57.126 8.3857 58.2596 6.3641 59.4362 4.36719C60.8448 4.38248 62.2534 4.36836 63.6632 4.37424C63.6609 7.59893 63.662 10.8224 63.662 14.046C62.7198 14.0483 61.7765 14.0448 60.8343 14.0471C60.8309 11.7656 60.839 9.48529 60.8297 7.20378C59.5197 9.47941 58.219 11.7609 56.9206 14.0424C56.2824 14.0507 55.6454 14.0448 55.0084 14.046C53.71 11.7621 52.4163 9.47588 51.1156 7.19438C51.1179 9.47706 51.1144 11.7609 51.1179 14.0448C50.1688 14.0436 49.2185 14.0554 48.2705 14.0389C48.281 10.8166 48.2647 7.59423 48.2786 4.37189Z" fill="black"/>
<path d="M14.1642 5.10889C15.1366 5.14887 16.1089 5.1865 17.0813 5.2159C17.0174 7.15519 16.9432 9.09447 16.8759 11.0338C16.8608 11.5112 16.9374 12.0945 17.3945 12.3486C17.8981 12.6202 18.4864 12.6226 19.0422 12.659C19.8532 12.6814 20.6655 12.7425 21.4777 12.7202C21.8803 12.6978 22.3363 12.6167 22.6032 12.278C22.8445 11.9605 22.8921 11.5453 22.9095 11.1572C22.978 9.25206 23.0418 7.34688 23.1137 5.4417C24.0849 5.4711 25.0549 5.51227 26.0261 5.54519C25.9542 7.8467 25.8718 10.147 25.7801 12.4473C25.7395 13.3411 25.3833 14.3208 24.5455 14.7394C23.4583 15.2922 22.1971 15.184 21.0194 15.1499C19.6514 15.0805 18.2764 15.0993 16.913 14.9394C16.0637 14.8182 15.1377 14.6289 14.5251 13.9691C13.9786 13.3752 13.9009 12.5132 13.9287 11.7394C14.0041 9.52843 14.0853 7.31866 14.1642 5.10889Z" fill="black"/>
<path d="M43.0249 5.59082C43.9961 5.52614 44.9661 5.46028 45.9373 5.39795C46.1508 8.6097 46.3631 11.8238 46.5673 15.0367C45.5962 15.1014 44.625 15.1673 43.655 15.2331C43.4461 12.019 43.2326 8.8061 43.0249 5.59082Z" fill="black"/>
<path d="M127.822 11.0211C127.822 11.4758 127.458 11.8444 127.01 11.8444C126.561 11.8444 126.197 11.4758 126.197 11.0211C126.197 10.5664 126.561 10.1978 127.01 10.1978C127.458 10.1978 127.822 10.5664 127.822 11.0211Z" stroke="#999999"/>
<path d="M126.559 11.5355V10.458H127.03C127.125 10.458 127.197 10.4677 127.247 10.487C127.296 10.5064 127.335 10.5406 127.365 10.5896C127.394 10.6386 127.409 10.6927 127.409 10.752C127.409 10.8285 127.385 10.8929 127.336 10.9453C127.287 10.9978 127.212 11.0311 127.11 11.0453C127.147 11.0634 127.175 11.0813 127.194 11.0989C127.235 11.1372 127.274 11.1849 127.311 11.2423L127.496 11.5355H127.319L127.178 11.3114C127.137 11.2467 127.103 11.1972 127.077 11.1629C127.05 11.1286 127.026 11.1046 127.005 11.0909C126.984 11.0771 126.963 11.0676 126.941 11.0622C126.925 11.0588 126.899 11.057 126.863 11.057H126.7V11.5355H126.559ZM126.7 10.9336H127.002C127.066 10.9336 127.117 10.9268 127.153 10.9134C127.189 10.8999 127.217 10.8783 127.236 10.8487C127.255 10.819 127.264 10.7868 127.264 10.752C127.264 10.7011 127.246 10.6592 127.209 10.6263C127.173 10.5935 127.115 10.5771 127.036 10.5771H126.7V10.9336Z" fill="#333333" fill-opacity="0.486631"/>
<path d="M126.937 11.65V11.6123H126.974V11.65H126.937Z" fill="#333333" fill-opacity="0.486631" stroke="white" stroke-width="1.25"/>
</g>
<defs>
<clipPath id="clip0">
<rect width="128.562" height="15.9" fill="white" transform="translate(0.25 0.359863)"/>
</clipPath>
</defs>
</svg>
