<svg width="123" height="26" viewBox="0 0 123 26" fill="none" xmlns="http://www.w3.org/2000/svg">
<path d="M115.922 24.3727H116.195V25.0987H116.332V24.3727H116.599V24.25H115.922V24.3727Z" fill="black"/>
<path d="M117.407 24.25L117.145 24.9014L116.878 24.25H116.676V25.0996H116.811V24.398H116.816L117.102 25.0996H117.182L117.469 24.398H117.473V25.0996H117.609V24.25H117.407Z" fill="black"/>
<path d="M115.533 0.907703L111.533 15.1417L107.96 0.907703H100.48L96.8462 14.7427L93.1823 0.907703H84.4793L85.5364 4.28003C83.1403 1.65421 79.5393 0 75.1671 0C68.1929 0 63.2113 4.17158 61.9149 9.78636V0.907703H54.4028V12.3097L53.0287 10.4211L45.9452 0.90758H40.4852H39.0138H30.8766L27.8744 5.5927L24.8624 0.90758H15.3101L15.3117 0.91077H0V25.0884H8.42474V17.2221H17.6816V10.6375H8.42474V7.72228H19.6927L23.1082 13.032L15.3818 25.0917H24.8947L27.8824 20.4561L30.8636 25.0917H40.4105L32.6623 13.0413L39.0138 3.19052V18.7389L43.0975 25.0916H46.525V13.7264L47.9297 15.6512L55.044 25.0914H61.9151V16.1318C63.2114 21.7475 68.1932 26 75.1672 26C82.8212 26 88.1127 20.8397 88.6988 14.3815L92.0529 25.0914H99.3503L103.412 11.8006L107.196 25.0914H115.044L122.679 0.907703H115.533ZM79.4724 13.2901C79.4724 16.3036 77.9149 18.9182 75.1671 18.9182C72.3889 18.9182 70.8611 16.3036 70.8611 13.2901V12.6725C70.8611 9.65902 72.3888 7.00731 75.1671 7.00731C77.9147 7.00731 79.4724 9.65889 79.4724 12.6725V13.2901Z" fill="#010101"/>
</svg>
