<svg width="86" height="59" viewBox="0 0 86 59" fill="none" xmlns="http://www.w3.org/2000/svg">
<path d="M4.58184 46.6232V24.0063H-4.57764e-05V15.4274H4.58184V11.2355C4.58184 5.0513 7.71148 0.609377 16.2773 0.609375H18.425L20.9597 8.40834H19.2974C16.4533 8.40834 15.3054 9.93501 15.3054 12.6219V15.4274H19.1074L22.1748 24.0063H15.3054V46.6232H4.58184Z" fill="#106755"/>
<path d="M21.9344 15.4297H32.1213L38.458 32.9527L44.7833 15.4297H54.9825L43.5382 47.2696C40.9239 55.0467 36.767 58.519 30.5133 58.519L27.5887 50.4275C30.3276 50.4275 32.1972 49.2747 33.3271 47.1156L21.9344 15.4297Z" fill="#106755"/>
<path d="M54.7251 24.0085L57.8099 15.4297H71.653V46.6255H60.9295V24.0085H54.7251Z" fill="#106755"/>
<path d="M71.9657 6.11491C71.9657 9.30655 69.3783 11.8939 66.1867 11.8939C62.995 11.8939 60.4077 9.30655 60.4077 6.11491C60.4077 2.92327 62.995 0.335938 66.1867 0.335938C69.3783 0.335938 71.9657 2.92327 71.9657 6.11491Z" fill="#106755"/>
<path d="M80.2318 46.9151C76.4363 46.9151 74.4413 44.0241 74.4413 41.1733C74.4413 37.7874 77.1464 35.4062 80.2083 35.4062C82.9968 35.4062 86 37.6821 86 41.1979C86 42.3911 85.4871 43.5842 85.0052 44.9862L81.9866 53.1542H80.2318V46.9151Z" fill="#57B6A5"/>
</svg>
