<svg width="74" height="65" viewBox="0 0 74 65" fill="none" xmlns="http://www.w3.org/2000/svg">
<path fill-rule="evenodd" clip-rule="evenodd" d="M36.9473 0.182617C25.828 0.182617 16.8035 9.26591 16.8035 20.3856C16.8035 31.5257 25.828 40.6103 36.9473 40.6103C48.089 40.6103 57.1122 31.5257 57.1122 20.3856C57.1122 9.26591 48.089 0.182617 36.9473 0.182617ZM35.2409 10.3043C35.8141 10.3025 36.3832 10.3033 36.9473 10.3064C41.4813 10.2834 46.3391 10.3927 50.6996 10.8684C51.9746 10.9981 52.6424 11.3011 52.7949 12.685C53.0309 15.194 53.0539 17.7682 53.0539 20.3855C53.0539 23.0246 53.0309 25.5987 52.7949 28.1077C52.6424 29.4922 51.9746 29.7953 50.6996 29.925C46.3391 30.401 41.4813 30.4873 36.9473 30.4873C32.4349 30.4873 27.5768 30.401 23.2155 29.925C21.9419 29.7953 21.2724 29.4922 21.1213 28.1077C20.8839 25.5987 20.8623 23.0246 20.8623 20.3855C20.8623 17.7682 20.8839 15.194 21.1213 12.685C21.2724 11.3011 21.9419 10.9981 23.2155 10.8684C27.0316 10.4522 31.2284 10.3163 35.2409 10.3043V10.3043ZM36.9473 12.209C32.4133 12.209 28.7643 15.8864 28.7643 20.3856C28.7643 24.9063 32.4133 28.5621 36.9473 28.5621C41.5028 28.5621 45.1515 24.9063 45.1515 20.3856C45.1515 15.8864 41.5028 12.209 36.9473 12.209ZM32.0713 45.8905C26.8604 45.8905 22.608 50.143 22.608 55.3543C22.608 60.5658 26.8604 64.8183 32.0713 64.8183C37.282 64.8183 41.5335 60.5658 41.5335 55.3543C41.5335 50.143 37.282 45.8905 32.0713 45.8905ZM64.5381 45.8905C59.3274 45.8905 55.0742 50.143 55.0742 55.3543C55.0742 60.5658 59.3274 64.8183 64.5381 64.8183C69.7482 64.8183 74 60.5658 74 55.3543C74 50.143 69.7482 45.8905 64.5381 45.8905ZM9.00378 45.8949C3.96589 46.002 0.012842 50.3145 9.91821e-05 54.9646C9.91821e-05 60.6556 4.55878 64.3212 9.14854 64.3212H22.5908V60.2845H17.1106L25.4939 46.3869H20.1035V46.3871L15.5469 53.9594H9.00378V57.8833H13.464C12.6136 59.1463 11.4602 60.0483 9.36898 60.0358C6.95217 60.0219 4.64882 58.4309 4.64882 55.0875C4.64882 52.2494 7.09711 50.345 9.27192 50.3461C10.9335 50.3475 12.9612 50.8428 14.3342 53.1207L16.7819 49.0687C14.7451 46.9105 12.4875 45.895 9.00378 45.895V45.8949ZM42.3903 46.3871V64.3212H48.9154C52.5496 64.3212 54.5864 61.9295 54.5864 58.8321C54.5864 57.1935 53.8 55.5987 52.2753 54.8029C53.4728 53.9211 53.927 52.821 53.9182 51.1819C53.906 48.9232 52.3773 46.3871 48.3572 46.3871H42.3903ZM46.9721 50.309L48.262 50.3099C48.9348 50.3106 49.7316 50.8234 49.7332 51.7711C49.7344 52.6862 49.1098 53.3379 48.2435 53.3379H46.9721V50.3089V50.309ZM32.0713 50.5553C34.7137 50.5553 36.8688 52.7116 36.8688 55.3543C36.8688 57.9963 34.7137 60.1538 32.0713 60.1538C29.4287 60.1538 27.2731 57.9965 27.2731 55.3543C27.2731 52.7116 29.4287 50.5553 32.0713 50.5553ZM64.5381 50.5553C67.1797 50.5553 69.336 52.7116 69.336 55.3543C69.336 57.9963 67.1797 60.1538 64.5381 60.1538C61.8959 60.1538 59.7389 57.9965 59.7389 55.3543C59.7389 52.7116 61.8959 50.5553 64.5381 50.5553ZM46.9721 56.7779H48.4155C49.5007 56.7779 50.2568 57.6007 50.2568 58.5804C50.2568 59.4832 49.5043 60.3578 48.5194 60.3578H46.9721V56.7779Z" fill="#00AEEF"/>
</svg>
