<svg width="87" height="58" viewBox="0 0 87 58" fill="none" xmlns="http://www.w3.org/2000/svg">
<path fill-rule="evenodd" clip-rule="evenodd" d="M0.731214 16.9225C0.263071 17.2574 0.00207143 17.7886 0 18.3354V18.3571C0.00207143 18.5876 0.0497143 18.8212 0.148107 19.0434L8.47525 37.909C8.84396 38.7451 9.79579 39.1544 10.6585 38.8485C16.1105 36.9044 34.9906 30.7536 47.2089 34.0714C47.2089 34.0714 34.9523 34.7804 23.8691 43.4716C23.2445 43.9625 23.0364 44.8163 23.3564 45.5418C24.2564 47.5748 26.0627 51.6615 27.085 53.9716L28.5205 57.3389C28.8622 58.1378 29.9539 58.234 30.4355 57.5105C33.0217 53.616 37.382 51.6708 41.5705 49.9727C45.8614 48.2343 50.3388 46.9371 54.9063 46.1651C59.7731 45.3424 64.7425 45.1222 69.6611 45.5573C70.4804 45.6297 71.2406 45.1274 71.485 44.3439L75.2467 32.3215C75.4684 31.6104 75.2136 30.8332 74.6087 30.396C70.4141 27.3573 53.7981 17.1509 24.5785 21.2511C24.5785 21.2511 49.5123 6.92796 81.1669 22.6619C82.1259 23.1394 83.2839 22.6381 83.6039 21.619L86.9202 11.0167C86.972 10.8524 86.9969 10.686 87 10.5217V10.471C86.9907 9.86741 86.6675 9.29482 86.1186 8.98372C82.1456 6.73572 68.6948 2.02436e-07 50.1918 2.02436e-07C36.0097 -0.00103336 18.8614 3.95544 0.731214 16.9225Z" fill="url(#paint0_linear)"/>
<defs>
<linearGradient id="paint0_linear" x1="-5.68176e-07" y1="16.1111" x2="72.1282" y2="64.1966" gradientUnits="userSpaceOnUse">
<stop stop-color="#FF4C1D"/>
<stop offset="1" stop-color="#9B0063"/>
</linearGradient>
</defs>
</svg>
