<svg width="128" height="31" viewBox="0 0 128 31" fill="none" xmlns="http://www.w3.org/2000/svg">
<path fill-rule="evenodd" clip-rule="evenodd" d="M0.924988 0.426758H128V30.773H0.924988V0.426758Z" fill="white" fill-opacity="0.01"/>
<path d="M36.9233 22.7124C37.4605 23.4855 38.1856 24.1092 39.0304 24.5246C39.8752 24.94 40.8119 25.1336 41.7521 25.087C44.0054 25.087 45.6592 23.6417 45.6592 21.673V20.6375H45.6042C44.3714 21.8513 42.6872 22.4848 40.9669 22.3843C39.6287 22.4216 38.3048 22.1003 37.1326 21.4536C35.9604 20.807 34.9825 19.8586 34.3002 18.7067C33.6142 17.5514 33.2465 16.2349 33.2345 14.8913C33.2225 13.5477 33.5666 12.2249 34.232 11.0575C34.8933 9.89317 35.8541 8.92692 37.0146 8.25893C38.1752 7.59095 39.4933 7.24555 40.8323 7.25855C41.7009 7.2035 42.5716 7.32521 43.3918 7.61633C44.212 7.90745 44.9647 8.36192 45.6042 8.95225H45.6611V7.53166H49.5113V21.6199C49.5113 25.7167 46.2832 28.5559 41.754 28.5559C40.2887 28.6351 38.8256 28.3644 37.4856 27.7661C36.1456 27.1679 34.9673 26.2593 34.048 25.1154L36.9233 22.7124ZM45.4961 13.9499C45.4961 12.3093 43.6526 10.8072 41.5909 10.8072C38.9849 10.8072 37.2495 12.3928 37.2495 14.7674C37.1737 15.8921 37.5928 16.9959 38.3989 17.7792C39.205 18.5644 40.3145 18.9513 41.4278 18.8356C43.6791 18.8356 45.4961 17.4151 45.4961 15.6398V13.948V13.9499ZM59.6052 7.12199C64.2975 7.12199 67.7172 10.479 67.7172 14.7674C67.7172 19.0538 64.2975 22.4108 59.6052 22.4108C58.2129 22.5016 56.8225 22.2074 55.5864 21.5604C54.3502 20.9134 53.316 19.9385 52.5971 18.7427C51.8741 17.5428 51.492 16.1683 51.492 14.7674C51.492 13.3664 51.8741 11.9919 52.5971 10.792C53.3158 9.59583 54.3498 8.62062 55.586 7.97325C56.8222 7.32589 58.2128 7.03137 59.6052 7.12199ZM59.6052 10.6706C58.5239 10.6816 57.491 11.1211 56.7333 11.8927C55.9756 12.6643 55.5549 13.7049 55.5635 14.7863C55.5645 15.8675 55.9944 16.9041 56.759 17.6686C57.5235 18.4331 58.5601 18.8631 59.6413 18.8641C60.7226 18.8581 61.7575 18.4234 62.5187 17.6554C63.28 16.8873 63.7055 15.8487 63.702 14.7674C63.7275 14.221 63.6388 13.6754 63.4415 13.1653C63.2443 12.6552 62.9428 12.1918 62.5564 11.8048C62.1716 11.4193 61.7099 11.1191 61.2015 10.9237C60.6931 10.7283 60.1492 10.6421 59.6052 10.6706ZM69.8888 7.53166H73.739V8.81569H73.7959C74.4176 8.2394 75.1478 7.7928 75.944 7.50199C76.7403 7.21118 77.5865 7.082 78.4332 7.12199C82.5698 7.19785 85.887 10.5909 85.8946 14.7541C85.9022 18.9172 82.5982 22.3217 78.4598 22.4127C76.8254 22.4494 75.2306 21.9073 73.9571 20.8821H73.904V28.1463H69.8888V7.53166ZM77.8111 10.6991C75.6926 10.6991 73.904 12.2012 73.904 13.8399V15.6683C73.904 17.4151 75.6394 18.8622 77.8358 18.8622C78.3702 18.859 78.8987 18.7505 79.3912 18.5429C79.8837 18.3354 80.3304 18.0328 80.706 17.6525C81.0815 17.2723 81.3784 16.8217 81.5797 16.3267C81.7811 15.8316 81.8829 15.3018 81.8794 14.7674C81.8794 14.2331 81.7742 13.7041 81.5697 13.2105C81.3653 12.7169 81.0656 12.2684 80.6878 11.8906C80.31 11.5129 79.8616 11.2132 79.368 11.0087C78.8744 10.8043 78.3454 10.6991 77.8111 10.6991ZM88.0093 2.06934H92.0264V22.003H88.0093V2.06934ZM100.679 13.3733C103.311 13.0205 104.099 12.6374 104.099 11.8996C104.099 10.9437 103.093 10.3709 101.548 10.3709C100.739 10.3039 99.9334 10.5288 99.2764 11.0048C98.6195 11.4808 98.1549 12.1764 97.9667 12.9655L94.1696 12.1727C94.7121 9.22536 97.7201 7.12199 101.438 7.12199C105.642 7.12199 108.247 9.28037 108.247 12.8005V22.003H104.643V20.4193H104.588C103.986 21.1024 103.235 21.6374 102.393 21.9828C101.551 22.3282 100.64 22.4746 99.7325 22.4108C96.5575 22.4108 94.3612 20.6659 94.3612 18.0979C94.3612 15.3951 96.1516 14.003 100.681 13.3752L100.679 13.3733ZM104.423 14.9039H104.37C104.017 15.4217 103.258 15.7233 101.305 16.0779C98.9435 16.5142 98.1033 16.9788 98.1033 17.8247C98.1033 18.6991 98.8069 19.0822 100.328 19.0822C102.634 19.0822 104.425 18.0163 104.425 16.6242V14.9039H104.423ZM115.52 21.2102L108.872 7.53166H113.293L117.661 16.9769H117.716L122.029 7.53166H126.479L116.522 28.1482H112.1L115.52 21.2102Z" fill="black"/>
<path d="M13.8487 29.2498C20.9863 29.2498 26.7724 23.4271 26.7724 16.2445C26.7724 9.06192 20.9863 3.23926 13.8487 3.23926C6.71113 3.23926 0.924988 9.06192 0.924988 16.2445C0.924988 23.4271 6.71113 29.2498 13.8487 29.2498Z" fill="#DF1995"/>
<path d="M11.9711 22.8328C11.3945 23.1078 10.7212 23.0794 10.1693 22.7588C9.89694 22.6001 9.66708 22.3778 9.4993 22.1109C9.33153 21.8441 9.23082 21.5406 9.20577 21.2263C8.92852 17.913 8.92852 14.5823 9.20577 11.269C9.23082 10.9547 9.33153 10.6513 9.4993 10.3844C9.66708 10.1175 9.89694 9.89524 10.1693 9.73648C10.7212 9.41595 11.3945 9.3894 11.9711 9.66441C14.9635 11.0794 17.8313 12.7442 20.5439 14.6412C20.8033 14.8212 21.0152 15.0614 21.1616 15.3411C21.308 15.6209 21.3844 15.9319 21.3844 16.2477C21.3844 16.5634 21.308 16.8744 21.1616 17.1542C21.0152 17.4339 20.8033 17.6741 20.5439 17.8541C17.8312 19.7515 14.9635 21.417 11.9711 22.8328Z" fill="white"/>
</svg>
