<svg width="136" height="20" viewBox="0 0 136 20" fill="none" xmlns="http://www.w3.org/2000/svg">
<g clip-path="url(#clip0)">
<path d="M117.633 0.508027L117.651 0.509753C120.351 0.775508 122.846 1.36483 124.981 2.20092C125.39 2.36055 125.794 2.53398 126.192 2.71949C126.585 2.90241 126.962 3.09396 127.319 3.29069H127.321L127.326 3.29414H127.325C129.186 4.32437 130.631 5.57894 131.51 6.97847C131.682 7.25112 131.834 7.53414 131.964 7.82405C132.095 8.11914 132.203 8.41423 132.283 8.7076V8.71191C132.356 8.97939 132.451 9.20201 132.607 9.35041C132.762 9.4971 133.003 9.59374 133.386 9.62566H136.001V10.8889H133.356C133.045 10.9061 132.801 10.9769 132.628 11.1046C132.465 11.2254 132.348 11.41 132.279 11.6628C131.858 13.1814 130.806 14.5801 129.275 15.7786H129.273C128.982 16.0064 128.671 16.229 128.341 16.4447C128.017 16.6569 127.673 16.8632 127.31 17.0633L127.307 17.0659C125.935 17.8244 124.332 18.462 122.565 18.9469C122.209 19.0444 121.859 19.1333 121.517 19.2135C119.337 19.7183 116.938 19.9987 114.422 19.9987H114.418C114.298 19.9987 114.181 19.9979 114.064 19.997C113.941 19.9953 113.824 19.9935 113.711 19.991L113.406 19.9849L113.308 19.6993L113.112 19.1402C110.88 19.041 108.77 18.6976 106.878 18.1609C106.49 18.0504 106.113 17.9331 105.747 17.8088C105.382 17.6846 105.025 17.55 104.676 17.4093L104.675 17.4076L104.657 17.4007L104.105 17.1755L104.492 16.7234L105.73 15.2824L105.923 15.0572L106.204 15.1556C107.392 15.5732 108.625 15.8726 109.872 16.0685C110.087 16.1013 110.332 16.1358 110.606 16.1694C110.883 16.204 111.129 16.2307 111.343 16.2505L111.352 16.2514C114.31 16.5249 117.515 16.3601 120.43 15.4895C120.995 15.3213 121.548 15.1263 122.085 14.9037C122.62 14.6819 123.142 14.4317 123.646 14.1504L123.654 14.1461C124.535 13.6551 125.269 13.0995 125.822 12.4972C125.931 12.3781 126.03 12.2616 126.12 12.1469C126.672 11.4394 126.975 10.674 126.975 9.88106V9.8802C126.975 8.57041 126.147 7.33655 124.736 6.30286C124.456 6.09837 124.146 5.89819 123.813 5.70578C123.479 5.51164 123.127 5.32958 122.76 5.16046L122.759 5.1596C119.267 3.54868 115.148 3.11984 111.214 3.55299C110.449 3.63669 109.685 3.7549 108.931 3.90417C108.171 4.05516 107.433 4.23291 106.728 4.43654C106.706 4.44344 106.683 4.45034 106.661 4.45552V4.45638C104.402 5.11559 102.321 6.1372 101.288 7.67046C101.096 7.9552 100.94 8.26065 100.827 8.5868C100.687 8.98543 100.612 9.41513 100.612 9.87847V9.88106C100.612 9.90263 100.613 9.92852 100.613 9.95785V9.95958C100.613 9.97425 100.614 10.0027 100.616 10.0381L100.639 10.4894H97.4244L97.2975 10.2771L96.382 8.74211L95.9951 8.09067H98.4599C99.3337 6.06127 101.461 4.30366 104.364 3.07153C104.951 2.82216 105.566 2.59524 106.202 2.39333C106.691 2.23802 107.202 2.09479 107.734 1.96536L107.595 1.56932L107.435 1.10943L107.918 1.00847C110.21 0.528735 112.564 0.317339 114.904 0.353579C115.37 0.361344 115.827 0.377738 116.271 0.402761C116.694 0.425195 117.149 0.460571 117.633 0.508027Z" fill="url(#paint0_linear)"/>
<path d="M113.848 8.20399H113.85C114.421 8.20399 114.961 8.29027 115.427 8.43781C115.502 8.46111 115.577 8.48785 115.651 8.51546L115.652 8.5146C116.037 8.66214 116.366 8.85714 116.612 9.08751C116.721 9.18932 116.806 9.27646 116.878 9.3498C117.047 9.52582 117.092 9.57241 117.56 9.57241H119.326V10.7683H117.56C117.277 10.7683 117.129 10.7709 117.051 10.8036C116.972 10.8364 116.871 10.9365 116.682 11.1315L116.677 11.1376C116.675 11.1401 116.675 11.1393 116.676 11.1367C116.593 11.2212 116.5 11.3006 116.399 11.3748C116.302 11.4456 116.193 11.5146 116.073 11.5784C115.496 11.8899 114.708 12.0841 113.847 12.0841H113.845C112.991 12.0841 112.206 11.8934 111.632 11.5871C110.979 11.2385 110.574 10.7294 110.573 10.1445V10.1427C110.574 9.55774 110.979 9.04868 111.632 8.70011C112.206 8.39381 112.99 8.20312 113.843 8.20312H113.848V8.20399Z" fill="url(#paint1_linear)"/>
<path d="M70.3661 1.83008H77.9569V2.78262H82.7672V4.10273H81.3658C80.8859 4.10273 80.5564 4.24595 80.3503 4.44958C80.1573 4.64112 80.0695 4.88875 80.0695 5.11653V14.3693H92.3454C92.7314 14.3693 93.0922 14.1545 93.3591 13.8784C93.6234 13.6066 93.786 13.2951 93.786 13.0872V12.6541H95.0475V17.2529H93.3209C93.2704 17.3961 93.2009 17.5384 93.1218 17.6627C92.9253 17.969 92.6384 18.2045 92.3463 18.2063H75.6025V16.7576H70.7139V15.3607H72.6953C73.0639 15.3607 73.3099 15.164 73.4647 14.8922C73.6516 14.5626 73.7246 14.1286 73.7255 13.7455V4.39695C73.7255 3.91377 73.6333 3.57986 73.4542 3.37883C73.2951 3.1985 73.0378 3.11222 72.6935 3.11222H69.9314V1.83008H70.3661Z" fill="url(#paint2_linear)"/>
<path d="M49.9381 1.04217L63.8202 15.7864H67.1971V17.2368H63.462V17.8624H59.1871L59.0575 17.7191L58.6219 17.2368H56.0754V15.7864H57.0457L53.1072 11.4299H46.1291L42.7784 15.2687C42.654 15.4111 42.561 15.5534 42.5228 15.6751C42.5106 15.713 42.5045 15.7381 42.5071 15.7458C42.5106 15.7562 42.5062 15.7303 42.5158 15.7355C42.5871 15.7674 42.7045 15.7864 42.8784 15.7864H45.6544V17.2368H39.8223L39.4085 17.7122L39.2781 17.8624H33.5764V15.7872H35.6882L41.1326 9.66281L41.263 9.51613H43.1627L44.0503 8.45052L44.1808 8.29262H50.2702L47.7741 5.53239L47.1272 6.30895L46.9968 6.46599H43.973L44.6094 5.74983L46.5334 3.58583L46.8569 3.22257L47.1133 3.50645L49.2956 1.0508L49.6112 0.695312L49.9381 1.04217Z" fill="url(#paint3_linear)"/>
<path d="M0.434715 0.00195312H8.22564V7.74077H21.8713V1.98303H22.3077C23.1624 1.98303 24.0023 2.1556 24.7587 2.41704C24.9447 2.48176 25.1238 2.54992 25.2925 2.62154C26.1854 2.9986 26.927 3.48955 27.3808 3.9296C27.9634 4.4939 27.959 4.87441 27.9512 5.50515C27.9503 5.57072 27.9494 5.63889 27.9494 5.70619V16.0629H29.8978V17.3157H27.9494V17.9646H23.9005V17.3157H21.8722V10.3785H10.1749V14.7315C10.1749 15.3795 10.5896 15.804 11.0852 16.0801C11.6268 16.383 12.2659 16.5228 12.6475 16.5883H13.7535V18.3994H11.9711L11.8364 18.6229L11.7094 18.8334H5.12962V17.9646H0.596428V16.5883H2.46135C2.69435 16.5883 2.82477 16.5322 2.88824 16.4201C2.9917 16.2389 3.02213 15.9196 3.02213 15.483V3.82261C3.02213 3.02362 2.85868 2.45587 2.59872 2.09779C2.37527 1.79148 2.07358 1.6448 1.74842 1.6448H1.90735e-06V0.00195313H0.434715V0.00195312Z" fill="url(#paint4_linear)"/>
<path fill-rule="evenodd" clip-rule="evenodd" d="M117.608 0.938928C114.414 0.62658 111.147 0.7724 108.005 1.42902L108.301 2.2746C103.446 3.36437 99.7945 5.69836 98.7538 8.52157H96.7567L97.6713 10.0574H100.181C100.178 9.99875 100.176 9.93922 100.176 9.88054C100.176 6.80538 103.179 5.02448 106.539 4.04343C111.74 2.52483 117.959 2.46961 122.94 4.76821C125.683 6.034 127.41 7.85804 127.41 9.88054C127.41 11.664 126.067 13.2948 123.866 14.5226C120.164 16.5891 115.496 17.0671 111.313 16.6797C109.522 16.5141 107.746 16.156 106.06 15.5623L104.822 17.0033C107.249 17.9869 110.21 18.609 113.426 18.7212L113.718 19.5599C113.951 19.5651 114.183 19.5676 114.418 19.5676C119.387 19.5676 123.887 18.4624 127.096 16.6901C129.593 15.3121 131.309 13.5304 131.859 11.551C132.053 10.8538 132.54 10.5009 133.334 10.4578H135.566V10.0574H133.35C132.372 9.97632 132.048 9.49744 131.864 8.8227C131.323 6.83817 129.61 5.05123 127.113 3.66895C124.604 2.28237 121.304 1.30218 117.608 0.938928Z" fill="url(#paint5_linear)"/>
<path fill-rule="evenodd" clip-rule="evenodd" d="M113.847 8.62305C114.907 8.62305 115.834 8.93366 116.325 9.39354C116.846 9.87844 116.754 9.99147 117.561 9.99147H118.906V10.3521H117.561C116.885 10.3521 116.837 10.3737 116.38 10.8431C115.905 11.3314 114.948 11.6679 113.848 11.6679C112.277 11.6679 110.997 10.9837 110.997 10.145C110.997 9.30639 112.276 8.62305 113.847 8.62305Z" fill="url(#paint6_linear)"/>
<path fill-rule="evenodd" clip-rule="evenodd" d="M70.3661 2.26172H77.5222V3.21426H82.3325V3.67155H81.3675C80.1477 3.67155 79.6348 4.45068 79.6348 5.11935V14.8018H92.3445C93.3817 14.8018 94.2207 13.7087 94.2207 13.0874H94.6119V16.8225H92.9688C92.9688 17.1806 92.6036 17.7751 92.3437 17.7751H76.0372V16.3264H71.1486V15.7923H72.6935C73.8037 15.7923 74.1602 14.637 74.1602 13.7414V4.39632C74.1602 3.21513 73.6386 2.68105 72.6935 2.68105H70.3661V2.26172Z" fill="url(#paint7_linear)"/>
<path fill-rule="evenodd" clip-rule="evenodd" d="M49.6199 1.33594L63.6324 16.2182H66.7624V16.8058H63.0265V17.4314H59.381L58.8158 16.8058H56.5092V16.2182H58.0194L53.3011 10.9989H45.9309L42.4489 14.9878C41.9507 15.5581 41.8151 16.2182 42.8766 16.2182H45.218V16.8058H39.6241L39.079 17.4314H34.0102V16.2191H35.8812L41.456 9.94795H43.3661L44.3842 8.7253H51.2449L47.7611 4.87099L46.7925 6.0341H44.9346L46.8577 3.8701L47.1151 4.15397L49.6199 1.33594Z" fill="url(#paint8_linear)"/>
<path fill-rule="evenodd" clip-rule="evenodd" d="M0.4347 0.433594H7.79178V8.17241H22.3069V2.41467C24.3204 2.41467 26.2436 3.42851 27.08 4.23786C27.5851 4.72709 27.5165 5.06014 27.5165 5.70641V16.4945H29.4657V16.8845H27.5165V17.5334H24.3352V16.8845H22.3069V9.94727H9.74017V14.7317C9.74017 16.416 11.8024 16.8845 12.6145 17.0208H13.3196V17.9674H11.7268L11.4651 18.4022H5.56431V17.5334H1.032V17.0208H2.4622C3.28294 17.0208 3.4577 16.4945 3.4577 15.4833V3.82456C3.4577 2.03416 2.67608 1.21446 1.7484 1.21446H0.4347V0.433594Z" fill="url(#paint9_linear)"/>
</g>
<defs>
<linearGradient id="paint0_linear" x1="5942.44" y1="-17.138" x2="5516.38" y2="791.771" gradientUnits="userSpaceOnUse">
<stop stop-color="#405E9E"/>
<stop offset="0.47" stop-color="white"/>
<stop offset="0.75" stop-color="#D4D8E2"/>
<stop offset="1" stop-color="#E6E7EB"/>
</linearGradient>
<linearGradient id="paint1_linear" x1="1294.43" y1="42.8987" x2="1276.22" y2="81.2449" gradientUnits="userSpaceOnUse">
<stop stop-color="#405E9E"/>
<stop offset="0.47" stop-color="white"/>
<stop offset="0.75" stop-color="#D4D8E2"/>
<stop offset="1" stop-color="#E6E7EB"/>
</linearGradient>
<linearGradient id="paint2_linear" x1="2752.07" y1="0.683768" x2="2376.29" y2="538.005" gradientUnits="userSpaceOnUse">
<stop stop-color="#405E9E"/>
<stop offset="0.47" stop-color="white"/>
<stop offset="0.75" stop-color="#D4D8E2"/>
<stop offset="1" stop-color="#E6E7EB"/>
</linearGradient>
<linearGradient id="paint3_linear" x1="2482.17" y1="88.0757" x2="2169.95" y2="658.089" gradientUnits="userSpaceOnUse">
<stop stop-color="#405E9E"/>
<stop offset="0.47" stop-color="white"/>
<stop offset="0.75" stop-color="#D4D8E2"/>
<stop offset="1" stop-color="#E6E7EB"/>
</linearGradient>
<linearGradient id="paint4_linear" x1="925.936" y1="-53.1028" x2="428.568" y2="683.16" gradientUnits="userSpaceOnUse">
<stop stop-color="#405E9E"/>
<stop offset="0.47" stop-color="white"/>
<stop offset="0.75" stop-color="#D4D8E2"/>
<stop offset="1" stop-color="#E6E7EB"/>
</linearGradient>
<linearGradient id="paint5_linear" x1="96.1756" y1="61.6698" x2="96.1756" y2="-73.642" gradientUnits="userSpaceOnUse">
<stop offset="0.1" stop-color="#405E9E"/>
<stop offset="0.7" stop-color="#D4D8E2"/>
<stop offset="0.9" stop-color="#E6E7EB"/>
</linearGradient>
<linearGradient id="paint6_linear" x1="110.879" y1="18.4918" x2="110.879" y2="-3.43935" gradientUnits="userSpaceOnUse">
<stop offset="0.1" stop-color="#405E9E"/>
<stop offset="0.7" stop-color="#D4D8E2"/>
<stop offset="0.9" stop-color="#E6E7EB"/>
</linearGradient>
<linearGradient id="paint7_linear" x1="70.0031" y1="52.5421" x2="70.0031" y2="-59.1953" gradientUnits="userSpaceOnUse">
<stop offset="0.1" stop-color="#405E9E"/>
<stop offset="0.7" stop-color="#D4D8E2"/>
<stop offset="0.9" stop-color="#E6E7EB"/>
</linearGradient>
<linearGradient id="paint8_linear" x1="33.5198" y1="53.5028" x2="33.5198" y2="-62.4269" gradientUnits="userSpaceOnUse">
<stop offset="0.1" stop-color="#405E9E"/>
<stop offset="0.7" stop-color="#D4D8E2"/>
<stop offset="0.9" stop-color="#E6E7EB"/>
</linearGradient>
<linearGradient id="paint9_linear" x1="-1.98784e-06" y1="58.6718" x2="-1.75189e-05" y2="-70.7501" gradientUnits="userSpaceOnUse">
<stop offset="0.1" stop-color="#405E9E"/>
<stop offset="0.7" stop-color="#D4D8E2"/>
<stop offset="0.9" stop-color="#E6E7EB"/>
</linearGradient>
<clipPath id="clip0">
<rect width="136" height="20" fill="white"/>
</clipPath>
</defs>
</svg>
