<svg width="102" height="40" viewBox="0 0 102 40" fill="none" xmlns="http://www.w3.org/2000/svg">
<g clip-path="url(#clip0)">
<path d="M14.077 7.92777C11.3166 7.92777 9.42719 9.07552 8.04703 10.4145V0.743931C8.04703 0.340007 7.70737 0 7.30366 0H0.742914C0.339504 0 -0.000461578 0.339803 -0.000461578 0.743931V32.2421C-0.000461578 32.6461 0.339504 32.9861 0.742914 32.9861H7.30366C7.70707 32.9861 8.04703 32.6463 8.04703 32.2421V19.341C8.04703 17.5345 8.62007 15.3878 11.4017 15.3878C13.546 15.3878 14.6291 16.7271 14.6291 19.341V32.2421C14.6291 32.6461 14.9688 32.9861 15.3722 32.9861H21.9329C22.3363 32.9861 22.6763 32.6463 22.6763 32.2421V17.2794C22.6759 11.5197 19.3848 7.92777 14.077 7.92777Z" fill="#747678"/>
<path d="M35.5218 8.09766C31.4454 8.09766 28.8761 8.86282 26.2643 10.0105C25.9033 10.1592 25.7338 10.5631 25.8611 10.9244L27.4961 15.9189C27.5597 16.1103 27.6873 16.2805 27.8783 16.3656C28.0695 16.4505 28.2605 16.4718 28.4514 16.3869C30.5321 15.6217 32.1885 15.1753 34.5664 15.1753C37.1356 15.1753 38.4943 16.1103 38.7492 18.0234C37.4965 17.6621 35.9465 17.3644 33.8871 17.3644C30.9356 17.3644 28.4514 18.0447 26.7316 19.2986C24.8207 20.7014 23.8229 22.8482 23.8229 25.4834V25.5685C23.8229 30.2446 27.3051 33.3901 32.5069 33.3901C34.9911 33.3901 37.0294 32.7526 38.7492 31.4136V32.1998C38.7492 32.6037 39.0889 32.9439 39.4923 32.9439H45.8196C46.2228 32.9439 46.5628 32.6039 46.5628 32.1998V18.7883C46.5627 11.817 42.7409 8.09766 35.5218 8.09766ZM38.8765 23.4217V24.1018C38.8765 26.0784 37.1141 27.4175 34.5026 27.4175C33.8445 27.4175 31.6787 27.2685 31.6787 25.3559V25.2709C31.6787 23.1455 34.0566 22.8267 35.4581 22.8267C36.6471 22.8053 37.8362 23.0179 38.8765 23.4217Z" fill="#747678"/>
<path d="M70.3004 8.3728C70.2578 8.3728 70.2153 8.35156 70.1943 8.35156H63.3788C63.0601 8.35156 62.763 8.56414 62.6781 8.86188L58.3255 22.4431L53.7815 8.86178C53.6754 8.56435 53.3993 8.35177 53.0811 8.35177H46.138C45.8834 8.35177 45.671 8.47919 45.5224 8.67054C45.3736 8.88312 45.3524 9.13827 45.4375 9.37209L54.3761 32.2626C53.9939 32.9426 53.633 33.0704 52.9111 33.0704C52.2531 33.0704 51.2977 32.7514 50.4905 32.2626C50.2994 32.1564 50.0873 32.135 49.8962 32.1988C49.6838 32.2626 49.5352 32.4114 49.4289 32.6026L47.2208 37.3423C47.051 37.6823 47.1783 38.1075 47.5183 38.2987C49.514 39.4675 51.425 39.9989 53.718 39.9989C57.9009 39.9989 60.0663 38.1711 61.9986 33.0488L69.6848 12.5389V9.11683C69.7058 8.75538 69.9607 8.43662 70.3004 8.3728Z" fill="#747678"/>
<path d="M97.7536 24.9746C95.4606 24.9746 93.5071 26.9085 93.5071 29.2252C93.5071 31.5207 95.4392 33.4762 97.7536 33.4762C100.047 33.4762 102 31.5418 102 29.2252C102 26.93 100.047 24.9746 97.7536 24.9746Z" fill="#747678"/>
<path d="M91.6174 8.37315H85.0568C84.6532 8.37315 84.3136 8.71346 84.3136 9.11728V22.0185C84.3136 23.825 83.7404 25.9718 80.9589 25.9718C78.8145 25.9718 77.7316 24.6325 77.7316 22.0185V9.11698C77.7316 8.71336 77.3917 8.37305 76.9883 8.37305H70.4488C70.0454 8.37305 69.7058 8.71305 69.7058 9.11698V24.0797C69.7058 29.8397 72.9967 33.4103 78.3048 33.4103C81.0649 33.4103 82.9545 32.2626 84.3347 30.9237V32.2201C84.3347 32.6239 84.6744 32.9639 85.0778 32.9639H91.6387C92.0418 32.9639 92.3818 32.6239 92.3818 32.2201V9.11698C92.3606 8.69212 92.0208 8.37315 91.6174 8.37315Z" fill="#FF3D67"/>
</g>
<defs>
<clipPath id="clip0">
<rect width="102" height="40" fill="white"/>
</clipPath>
</defs>
</svg>
