<svg width="107" height="25" viewBox="0 0 107 25" fill="none" xmlns="http://www.w3.org/2000/svg">
<g clip-path="url(#clip0)">
<path d="M94.5216 18.4574C91.299 18.4574 88.6827 15.7424 88.6827 12.3984C88.6827 9.05249 91.299 6.34118 94.5216 6.34118C97.7459 6.34118 100.357 9.05249 100.357 12.3984C100.357 15.7424 97.7459 18.4574 94.5216 18.4574ZM94.4781 0.26416C88.0434 0.26416 82.8281 5.67777 82.8281 12.3533C82.8281 19.027 88.0434 24.4388 94.4781 24.4388C100.909 24.4388 106.125 19.027 106.125 12.3533C106.125 5.67777 100.909 0.26416 94.4781 0.26416Z" fill="black"/>
<path d="M94.4781 7.60059C91.9487 7.60059 89.897 9.72601 89.897 12.3526C89.897 14.9756 91.9487 17.1046 94.4781 17.1046C97.0076 17.1046 99.0575 14.9756 99.0575 12.3526C99.0575 9.72601 97.0076 7.60059 94.4781 7.60059Z" fill="#4279BB"/>
<path d="M70.7147 15.632H77.2694C75.8066 20.0054 71.8196 19.2771 71.8196 19.2771C68.5987 19.2158 67.0873 16.4829 67.0873 16.4829C64.3929 11.6209 67.0873 8.04067 67.0873 8.04067C68.3156 5.79265 71.5347 5.54929 71.5347 5.54929C75.4557 5.54929 76.8021 8.5869 76.8021 8.5869H82.8877C81.3641 3.75557 76.9862 0.263672 71.8196 0.263672C65.3883 0.263672 60.1748 5.67728 60.1748 12.3528C60.1748 19.0265 65.3883 24.4401 71.8196 24.4401C78.2561 24.4401 83.4697 19.0265 83.4697 12.3528C83.4697 11.9003 83.4436 11.455 83.3967 11.017H70.7147V15.632Z" fill="black"/>
<path d="M45.922 16.8309C48.4427 16.8309 50.4805 14.7109 50.4805 12.0969C50.4805 9.48115 48.4427 7.36114 45.922 7.36114C43.403 7.36114 41.36 9.48115 41.36 12.0969C41.36 14.7109 43.403 16.8309 45.922 16.8309ZM40.1178 12.0969C40.1178 8.76727 42.7185 6.07399 45.922 6.07399C49.1272 6.07399 51.7279 8.76727 51.7279 12.0969C51.7279 15.4212 49.1272 18.118 45.922 18.118C42.7185 18.118 40.1178 15.4212 40.1178 12.0969ZM32.0378 12.0969C32.7536 11.9996 33.9506 11.1505 34.3727 10.6043C34.225 11.2803 34.2146 13.2326 34.3866 13.9051C33.9054 13.1371 32.7658 12.1907 32.0378 12.0969ZM27.865 5.72065C28.777 5.72065 29.4945 6.65447 29.4945 7.71988C29.4945 8.78169 28.777 9.71911 27.865 9.71911H24.7292V5.72065H27.865ZM27.8528 14.6027C28.7666 14.6027 29.4841 15.5365 29.4841 16.6038C29.4841 17.6674 28.7666 18.6012 27.8528 18.6012H24.7188V14.6027H27.8528ZM45.9185 24.2311C52.3064 24.2293 57.5043 18.7202 57.5025 12.0933C57.5025 5.32224 52.3064 0.0636682 45.9185 0.0600666C39.5358 0.0528562 36.2767 4.92564 35.4724 6.89423C35.4793 3.94315 32.6754 0.456664 29.3937 0.451258H18.8243V24.1103L28.678 24.1139C32.6528 24.1139 35.4793 20.5427 35.4828 17.4799C36.3931 19.407 39.5358 24.2347 45.9185 24.2311V24.2311ZM17.5335 24.1193H11.3384V14.9398H7.31669V24.1193H0.958337L0.9375 0.454852H7.3167V9.2594H11.3384V0.454852H17.5335V24.1193H17.5335L17.5335 24.1193Z" fill="black"/>
</g>
<defs>
<clipPath id="clip0">
<rect width="105.188" height="24.38" fill="white" transform="translate(0.9375 0.0600586)"/>
</clipPath>
</defs>
</svg>
