<svg width="105" height="43" viewBox="0 0 105 43" fill="none" xmlns="http://www.w3.org/2000/svg">
<g clip-path="url(#clip0)">
<path d="M51.3891 0.718262C54.5729 0.718262 63.6346 2.44838 63.6346 11.3183C63.6346 18.458 60.2059 20.578 57.5119 21.0654C55.5526 21.4309 63.1448 21.0654 63.1448 30.0084C63.1448 42.6796 52.1238 42.1923 52.1238 42.1923H33.7555V0.718262H51.3891ZM44.0418 10.8309V17.0934H50.1645C50.1645 17.0934 52.6136 16.801 52.6136 13.8038C52.6136 10.8065 50.1645 10.8309 50.1645 10.8309H44.0418ZM44.0418 26.1095V32.4452H50.1645C50.1645 32.4452 52.6136 32.2015 52.6136 29.0337C52.6136 26.1095 50.1645 26.1095 50.1645 26.1095H44.0418ZM0.9375 0.718262V42.1923H12.4483V26.8406H19.7956V42.1923H31.3064V0.718262H19.7956V16.3624H12.4483V0.718262H0.9375Z" fill="black"/>
<path d="M82.9827 37.3188C91.7746 37.3188 98.9018 30.2274 98.9018 21.4797C98.9018 12.732 91.7746 5.64062 82.9827 5.64062C74.1907 5.64062 67.0635 12.732 67.0635 21.4797C67.0635 30.2274 74.1907 37.3188 82.9827 37.3188Z" stroke="black" stroke-width="10"/>
<path d="M82.9825 30.0086C87.7166 30.0086 91.5544 26.1902 91.5544 21.4799C91.5544 16.7696 87.7166 12.9512 82.9825 12.9512C78.2484 12.9512 74.4106 16.7696 74.4106 21.4799C74.4106 26.1902 78.2484 30.0086 82.9825 30.0086Z" fill="black"/>
</g>
<defs>
<clipPath id="clip0">
<rect width="103.352" height="42.4" fill="white" transform="translate(0.9375 0.279785)"/>
</clipPath>
</defs>
</svg>
