<svg width="111" height="57" viewBox="0 0 111 57" fill="none" xmlns="http://www.w3.org/2000/svg">
<path d="M0.443283 26.8262V55.9915H10.192V45.5341H19.1081V55.9915H28.8541V26.8262H19.1081V37.1165H10.192V26.8262H0.443283Z" fill="black"/>
<path d="M46.1286 26.2031C43.8231 26.2032 41.6925 26.5846 39.7345 27.3483C37.7766 28.112 36.0754 29.1751 34.6311 30.5359C33.1868 31.8967 32.0606 33.5063 31.2549 35.3671C30.4493 37.228 30.0478 39.2418 30.0478 41.4082V41.4917C30.0478 43.7412 30.4697 45.7959 31.3169 47.6567C32.1641 49.5176 33.3312 51.1143 34.8171 52.4476C36.3029 53.7808 38.0396 54.8106 40.0255 55.5328C42.0114 56.2549 44.1421 56.616 46.4196 56.616C49.0861 56.616 51.504 56.2118 53.6705 55.4061C55.8369 54.6005 57.7106 53.5454 59.2939 52.2401V38.7433H45.1693V44.9919H50.1703V47.9073C49.7821 48.1294 49.3366 48.2948 48.8365 48.4058C48.3364 48.5169 47.6704 48.5729 46.8372 48.5729C45.8099 48.5729 44.874 48.4075 44.0269 48.0744C43.1797 47.7413 42.45 47.2682 41.8389 46.6571C41.2278 46.046 40.7471 45.3114 40.4001 44.4503C40.053 43.5891 39.88 42.643 39.88 41.6157V41.5348C39.88 40.5347 40.0405 39.617 40.3596 38.7838C40.6788 37.9506 41.1287 37.2285 41.7123 36.6174C42.2958 36.0063 42.9899 35.5283 43.7951 35.1812C44.6003 34.8341 45.4753 34.6585 46.4196 34.6585C47.6418 34.6585 48.7809 34.8826 49.8362 35.3267C50.8914 35.7709 51.9061 36.396 52.8783 37.2021L58.3347 30.6167C56.7513 29.2284 54.9537 28.1475 52.9403 27.3698C50.9268 26.5922 48.6561 26.2032 46.1286 26.2031Z" fill="black"/>
<path d="M59.3639 26.8262V35.0767H67.396V55.9915H76.5201V35.0767H84.5521V26.8262H59.3639Z" fill="black"/>
<path d="M77.9937 26.8262L89.8253 56.1989H99.159L110.991 26.8262H100.242L94.5757 43.2007L88.9092 26.8262H77.9937Z" fill="black"/>
<path d="M39.0052 0L0.990662 24.8921L76.4367 25.0231L39.0052 0Z" fill="black"/>
</svg>
