<svg width="116" height="46" viewBox="0 0 116 46" fill="none" xmlns="http://www.w3.org/2000/svg">
<path fill-rule="evenodd" clip-rule="evenodd" d="M0.674805 36.3007V0.853586H7.11027V13.3498C7.11027 13.3498 10.5493 9.98541 14.9203 10.0711C21.2308 10.1948 22.9802 15.3912 22.9802 15.3912C22.9802 15.3912 26.6666 10.5041 33.1645 10.5041C39.6625 10.5041 43.2863 15.0201 43.2863 15.0201C43.2863 15.0201 46.5969 10.3871 53.0957 10.5041C59.9685 10.6278 63.5924 15.515 63.5924 15.515C63.5924 15.515 67.4088 10.2624 73.9641 10.3804C80.8369 10.5041 84.5233 15.515 84.5233 15.515V0.667969H91.0837V15.948C91.0837 15.948 94.0827 10.3185 101.018 10.2566C106.586 10.2061 108.953 13.5972 108.953 13.5972V10.8753H115.326V35.8677H108.953V33.2076C108.953 33.2076 106.266 36.4863 101.143 36.4863C94.5201 36.4863 91.0837 30.5475 91.0837 30.5475V36.4863H84.5233V31.3517C84.5233 31.3517 81.2743 36.4863 73.9016 36.4863C70.7151 36.4863 68.2159 35.2491 68.2159 35.2491V45.3326H61.6555V33.5787C61.6555 33.5787 58.3479 36.7054 53.0957 36.61C46.2853 36.4863 43.2238 32.1558 43.2238 32.1558C43.2238 32.1558 39.8499 36.61 33.0396 36.61C26.9165 36.61 23.5426 32.4034 23.5426 32.4034V36.3007H17.1696V22.9384C17.1696 22.9384 17.667 15.8384 12.796 15.948C7.29772 16.0717 7.17278 22.5672 7.17278 22.5672L7.04781 36.3007H0.674805ZM53.2519 30.7949C56.9959 30.7949 60.0935 27.9493 60.0935 23.619C60.0935 19.2886 57.2194 16.329 53.2519 16.381C49.5082 16.4315 46.4103 19.103 46.4103 23.619C46.4103 28.1349 49.5079 30.7949 53.2519 30.7949ZM74.1203 30.6712C77.8643 30.6712 80.9619 27.8256 80.9619 23.4953C80.9619 19.1649 78.0878 16.2053 74.1203 16.2573C70.3766 16.3078 67.2787 18.9794 67.2787 23.4953C67.2787 28.0112 70.3763 30.6712 74.1203 30.6712ZM102.424 30.7333C106.079 30.7333 109.265 27.8258 109.265 23.4954C109.265 19.1651 106.579 16.072 102.424 16.072C98.3934 16.072 95.5822 18.9795 95.5822 23.4954C95.5822 28.0114 98.7687 30.7333 102.424 30.7333ZM33.2583 30.857C37.0022 30.857 40.0374 28.0731 40.0374 23.5572C40.0374 19.0413 37.0022 16.3194 33.2583 16.3194C29.5143 16.3194 26.4792 19.0413 26.4792 23.5572C26.4792 28.0731 29.5143 30.857 33.2583 30.857Z" fill="black"/>
</svg>
