<svg width="88" height="62" viewBox="0 0 88 62" fill="none" xmlns="http://www.w3.org/2000/svg">
<path d="M33.3268 61.5364H1.86264C0.724624 61.5364 0.733054 61.5364 1.01967 60.4237C2.32206 55.0708 3.6919 49.7348 4.88893 44.3608C6.02273 39.1976 7.29563 34.0343 8.56431 28.8753C9.15861 26.4644 9.76134 24.0577 10.8488 21.8027C12.9562 17.4698 16.2017 14.8187 21.112 14.3466C22.2627 14.2328 23.4007 14.1991 24.5472 14.1991C34.542 14.1991 44.5369 14.1991 54.5318 14.1991C55.8932 14.1991 56.0913 13.9462 55.6319 12.6227C54.7889 10.1233 53.8743 7.6323 52.9976 5.13708C52.7152 4.32783 52.7447 3.56072 53.5456 3.05072C54.2494 2.60394 54.8564 2.81468 55.2779 3.67452C56.0829 5.32675 56.5423 7.10544 57.1956 8.82089C57.6846 10.1359 58.1229 11.4678 58.6034 12.7829C59.0249 13.8998 59.5771 14.1274 60.6519 13.5669C63.8383 11.8809 67.0163 10.1949 70.2028 8.50899C74.6087 6.20767 79.0147 3.8951 83.4207 1.57129C84.2299 1.1498 85.0223 0.681952 85.84 0.264678C86.7757 -0.211604 87.4164 -0.0430085 87.8463 0.753605C88.0205 1.12844 88.0479 1.55497 87.923 1.94902C87.7982 2.34306 87.5302 2.67599 87.1719 2.88212C83.8843 4.63551 80.584 6.35097 77.288 8.0875C74.3924 9.61751 71.501 11.1644 68.5927 12.6775C68.3996 12.7633 68.2374 12.9063 68.1281 13.0872C68.0188 13.2681 67.9677 13.4782 67.9815 13.6891C68.0448 14.1527 68.5506 14.2033 69.01 14.1991C74.4008 14.1991 79.7959 14.1991 85.1867 14.1738C86.1097 14.1738 86.1477 14.4267 85.9538 15.2149C84.702 20.2306 83.4628 25.2884 82.2995 30.3463C81.0603 35.7835 79.7706 41.2165 78.4134 46.6242C77.7179 49.347 77.0857 52.0656 75.7833 54.5945C73.9835 58.0887 71.2818 60.4111 67.4167 61.2667C66.5234 61.4589 65.612 61.555 64.6981 61.5533C54.2424 61.5645 43.7853 61.5589 33.3268 61.5364ZM79.7537 17.5457C79.7748 16.9303 80.1752 16.2559 78.9107 16.2559C60.1461 16.2981 41.38 16.3079 22.6125 16.2855C20.9316 16.2709 19.2699 16.6445 17.757 17.3771C14.482 18.9661 12.7623 21.8407 11.6791 25.1409C10.3767 29.0818 9.50844 33.1829 8.52637 37.2292C6.93736 43.7623 5.55067 50.3417 3.80149 56.8369C3.59075 57.6208 3.72984 58.1013 4.60232 58.1856C4.43372 59.547 4.43372 59.547 5.82042 59.547H59.9648C60.7572 59.547 61.5454 59.547 62.3336 59.5049C64.4454 59.4173 66.4858 58.7156 68.2049 57.4859C70.9362 55.4544 72.2723 52.5588 73.1616 49.4187C74.7633 43.7328 76.0573 37.971 77.4229 32.2219C78.4892 27.7246 79.5556 23.2232 80.6852 18.7343C80.9339 17.7733 80.6726 17.4698 79.7537 17.5457Z" fill="#089DDC"/>
<path d="M4.60181 58.1858C3.72933 58.093 3.59024 57.621 3.80099 56.837C5.55016 50.3419 6.93686 43.7709 8.52587 37.2294C9.50794 33.1831 10.3762 29.0989 11.6786 25.1411C12.7618 21.8408 14.4815 18.9663 17.7649 17.3773C19.2779 16.6447 20.9395 16.2711 22.6204 16.2856C41.3851 16.2856 60.1512 16.2758 78.9187 16.2561C80.1831 16.2561 79.7616 16.9305 79.7616 17.5459C79.6874 17.6532 79.6265 17.7693 79.5804 17.8915C77.2116 27.2148 75.218 36.6224 72.7944 45.9289C72.0315 48.8793 71.1675 51.7581 69.2033 54.1648C66.8599 57.0435 63.724 58.0635 60.1203 58.0635H5.66396C5.30539 58.0066 4.93808 58.0489 4.60181 58.1858ZM50.485 32.1799C50.3291 31.8638 50.1352 31.8975 49.916 32.1167C48.3527 31.7673 46.7455 31.6565 45.149 31.788C42.0426 32.0956 40.6011 33.4318 39.99 36.4707C39.6992 37.9206 39.7961 39.3916 39.5685 40.8457C39.147 40.7699 39.2735 40.4242 39.2102 40.1461C39.0757 39.2698 38.6824 38.4537 38.0806 37.8026C37.6592 37.3811 36.9131 37.0818 36.8162 36.6856C36.6771 36.1251 37.558 35.8258 37.8868 35.2821C39.0416 33.4444 38.7297 31.4887 38.519 29.4908C38.3377 27.9103 37.4105 26.865 36.0196 26.2285C35.5686 26.022 35.0501 25.63 34.4896 26.0599C31.1343 25.6238 27.7304 25.7377 24.4118 26.3971C23.6152 26.5446 23.3285 26.8481 23.337 27.6616C23.3876 33.3475 23.3876 39.0418 23.4002 44.7108C23.4002 45.6296 23.4339 46.5527 23.4002 47.4673C23.3665 48.1206 23.5983 48.3103 24.2432 48.3103C25.6214 48.2682 27.0039 48.3103 28.3822 48.3103C30.3797 48.3578 32.3754 48.1611 34.3252 47.7244C34.6202 48.0911 34.9701 47.9141 35.3072 47.8129C37.4147 47.1765 39.0121 45.2503 39.2524 42.5949C39.2777 42.2957 39.1175 41.8995 39.6064 41.7983C39.8973 42.3125 39.775 42.89 39.8509 43.4379C40.1417 45.4948 40.6939 47.3957 42.894 48.2176C44.6643 48.8793 46.5146 48.795 48.3481 48.6391C48.9171 48.5801 49.5578 48.7444 50.0341 48.2808C50.0822 48.3657 50.1605 48.4294 50.2535 48.4591C50.3465 48.4887 50.4472 48.4823 50.5356 48.441C51.1618 48.303 51.7476 48.0224 52.2477 47.621C52.7477 47.2197 53.1484 46.7084 53.4186 46.127C54.6409 43.4295 54.5398 40.576 54.3248 37.7225C54.3069 36.5076 54.0006 35.3144 53.4313 34.241C52.7569 33.1241 51.9603 32.1336 50.4808 32.1842L50.485 32.1799ZM20.5847 26.5531C20.0704 26.5067 19.5984 26.2454 19.0462 26.3465C18.351 26.4641 17.731 26.8529 17.3223 27.4275C16.9137 28.0021 16.75 28.7155 16.8671 29.4108C17.1369 31.004 18.4561 31.8175 20.239 31.4845C20.3486 31.6067 20.4624 31.7332 20.6605 31.7121C21.6299 31.6109 22.768 30.3465 22.8649 29.2759C22.9467 28.6733 22.8253 28.0606 22.52 27.5347C22.2147 27.0088 21.7428 26.5996 21.179 26.3718C21.1286 26.3422 21.0727 26.3233 21.0147 26.3164C20.9566 26.3095 20.8978 26.3147 20.8419 26.3318C20.7861 26.3488 20.7343 26.3773 20.69 26.4154C20.6458 26.4535 20.6099 26.5004 20.5847 26.5531ZM20.4877 46.5443C19.6447 46.2998 19.4382 45.7013 19.5014 44.892C19.5882 44.2117 19.7291 43.5394 19.9229 42.8815C20.4329 40.7741 21.2295 38.6961 21.1115 36.458C21.0272 34.8606 19.5099 33.5708 18.1358 33.9586C16.5805 33.7394 15.1601 34.182 13.7439 34.751C13.6168 34.7865 13.498 34.8468 13.3944 34.9284C13.2907 35.01 13.2043 35.1113 13.14 35.2265C13.0758 35.3418 13.035 35.4686 13.02 35.5996C13.005 35.7307 13.0161 35.8634 13.0527 35.9902C13.2339 36.6224 13.6933 36.045 13.9841 35.9902C15.2486 35.6909 16.0368 36.2515 15.9441 37.5328C15.8595 38.2161 15.7313 38.8933 15.5605 39.5602C15.139 41.6086 14.296 43.5812 14.2539 45.7013C14.2118 47.421 15.3708 48.6053 17.0863 48.7529C17.7726 48.7604 18.4578 48.6954 19.1305 48.559C19.1727 48.6053 19.2106 48.6896 19.257 48.6896C20.4203 48.7613 21.318 48.0911 22.2495 47.5558C22.5109 47.4041 22.5404 46.9826 22.4476 46.6581C22.338 46.2366 21.9714 46.4431 21.71 46.3883C21.2717 46.2155 20.9134 46.6159 20.4877 46.5232V46.5443ZM67.2729 48.4578C67.4798 48.5903 67.7248 48.6505 67.9695 48.6292C68.2143 48.6078 68.4451 48.5061 68.6259 48.3398C69.0095 48.0237 68.5458 47.6191 68.3772 47.3114C67.0453 44.9145 65.6938 42.5261 64.3225 40.1461C64.2072 39.9693 64.1457 39.7628 64.1457 39.5518C64.1457 39.3407 64.2072 39.1342 64.3225 38.9575C65.431 37.0018 66.5185 35.0334 67.6186 33.0566C67.7745 32.7742 68.1075 32.4876 67.96 32.1842C67.7619 31.788 67.3783 32.2853 67.0833 32.142C66.266 32.1927 65.4462 32.1842 64.6302 32.1167C63.0538 31.8807 62.1013 32.4328 61.6798 33.9966C61.5487 34.3276 61.3713 34.6384 61.1529 34.9196C60.5544 34.3 60.3563 33.4697 59.998 32.7237C59.7873 32.3022 59.5766 31.6489 58.8853 32.2094C57.4733 32.2094 56.0613 32.1799 54.6704 32.1294C53.9834 32.1294 53.975 32.3232 54.2489 32.8585C55.3448 34.8817 56.3564 36.9385 57.486 38.949C57.6461 39.1912 57.7293 39.4761 57.7248 39.7664C57.7203 40.0567 57.6282 40.3389 57.4607 40.576C56.1119 42.9068 54.8179 45.2714 53.4987 47.6191C53.2584 48.0405 53.1404 48.344 53.8401 48.3229C55.1846 48.2808 56.5334 48.2724 57.878 48.2471C58.5861 48.8203 58.7209 48.2049 58.978 47.7455C59.6609 46.5822 59.821 45.1534 60.8579 44.1629C61.6039 45.166 62.0085 46.3419 62.5101 47.4631C62.5978 47.7407 62.7787 47.9796 63.0221 48.1393C63.2655 48.299 63.5566 48.3698 63.8462 48.3398C65.0053 48.3229 66.156 48.1754 67.2898 48.4367L67.2729 48.4578Z" fill="#C3C5C7"/>
<path d="M4.60206 58.1857C4.93832 58.0488 5.30564 58.0065 5.66421 58.0635H60.1121C63.699 58.0635 66.8559 57.0435 69.1952 54.1647C71.1593 51.758 72.0233 48.8708 72.7862 45.9288C75.2098 36.6223 77.2034 27.2147 79.5722 17.8914C79.6183 17.7692 79.6792 17.6532 79.7534 17.5458C80.6723 17.4699 80.9294 17.7734 80.6849 18.7344C79.5554 23.2232 78.489 27.7247 77.4226 32.222C76.057 37.9711 74.763 43.7329 73.1614 49.4187C72.272 52.5588 70.9359 55.4545 68.2047 57.486C66.4856 58.7157 64.4451 59.4173 62.3333 59.505C61.5451 59.564 60.757 59.5471 59.9646 59.5471H5.82016C4.43347 59.5471 4.43347 59.5471 4.60206 58.1857Z" fill="#364249"/>
<path d="M34.3124 47.7284C32.3626 48.165 30.3668 48.3617 28.3694 48.3142C26.9911 48.3142 25.6086 48.2889 24.2304 48.3142C23.5855 48.3142 23.3537 48.1203 23.3874 47.4713C23.4337 46.5566 23.3874 45.6336 23.3874 44.7147C23.3874 39.0331 23.3874 33.3345 23.3242 27.6655C23.3242 26.8225 23.6023 26.5317 24.399 26.4011C27.7176 25.7416 31.1215 25.6277 34.4767 26.0639C36.3608 26.6708 37.4735 27.9016 37.7264 29.9121C38.051 32.4958 38.0383 34.9699 35.5347 36.6264C36.9425 37.444 37.4777 37.9245 37.8486 38.6664C38.2485 39.4879 38.4739 40.3833 38.5109 41.2963C38.5478 42.2092 38.3954 43.1199 38.0632 43.9711C37.7311 44.8223 37.2264 45.5955 36.5809 46.2421C35.9353 46.8887 35.163 47.3948 34.3124 47.7284ZM28.774 29.8151C28.1165 29.7224 27.8299 29.9668 27.8552 30.6581C27.9015 31.8593 27.9142 33.0648 27.8552 34.266C27.8214 35.0163 28.1123 35.1891 28.7656 35.0078C29.8047 35.1261 30.856 35.0792 31.8804 34.8688C32.2922 34.8107 32.669 34.6053 32.9411 34.2906C33.2131 33.976 33.3618 33.5734 33.3598 33.1575C33.3935 31.9858 33.7096 30.696 32.5168 29.8278C32.4088 29.7523 32.2847 29.7032 32.1543 29.6844C31.0348 29.4401 29.8714 29.4851 28.774 29.8151ZM28.774 44.504C29.614 44.6038 30.4629 44.6038 31.3029 44.504C32.9257 44.3354 33.8867 43.2395 33.8951 41.5957C33.8951 39.7622 33.1069 38.8645 31.2987 38.6706C30.3943 38.5148 29.4745 38.4681 28.559 38.5315C27.9437 38.3798 27.8467 38.7085 27.8552 39.2269C27.8552 40.7317 27.8931 42.2406 27.8552 43.7453C27.8257 44.4956 28.087 44.7063 28.7656 44.504H28.774Z" fill="#3E3E40"/>
<path d="M39.5899 40.846C39.7964 39.3918 39.6994 37.9208 40.0113 36.4709C40.6225 33.432 42.064 32.0959 45.1704 31.7882C46.7669 31.6567 48.3741 31.7676 49.9374 32.1169L50.5064 32.1802C50.5528 32.2603 50.5738 32.3825 50.6413 32.412C52.4748 33.3013 53.1028 34.9409 53.3515 36.7913C53.7057 39.193 53.6758 41.6358 53.2629 44.0282C52.9047 45.9671 52.0364 47.535 50.0765 48.2768C49.5833 48.7404 48.9427 48.5761 48.3905 48.6351C46.5571 48.8121 44.7067 48.8964 42.9365 48.2136C40.7363 47.3706 40.1842 45.4908 39.8933 43.4339C39.8175 42.886 39.9397 42.3085 39.6489 41.7943C39.5899 41.4824 39.5899 41.1621 39.5899 40.846ZM46.928 44.9513C48.2767 44.829 48.8837 44.2432 49.1197 42.7806C49.395 41.1313 49.4134 39.4493 49.1745 37.7944C48.8752 35.7839 48.1924 35.236 46.1398 35.3961C44.9006 35.5563 44.3695 36.3951 44.1546 37.5036C43.812 39.2433 43.7806 41.0299 44.0618 42.7806C44.3695 44.6984 44.9596 45.1283 46.928 44.9513Z" fill="#3E3E40"/>
<path d="M61.1782 34.9191C61.3965 34.6379 61.5739 34.3271 61.705 33.9961C62.1265 32.4324 63.0664 31.8886 64.6554 32.1163C65.4715 32.1838 66.2913 32.1922 67.1085 32.1415C67.0664 32.66 66.725 33.0393 66.4931 33.465C65.5321 35.2142 64.5796 36.9676 63.568 38.6873C63.4022 38.923 63.3132 39.2041 63.3132 39.4923C63.3132 39.7805 63.4022 40.0616 63.568 40.2973C64.9589 42.704 66.2908 45.1445 67.6691 47.5554C67.9599 48.0654 68.0316 48.3983 67.3108 48.4363C66.177 48.175 65.0263 48.3225 63.8883 48.3393C63.5987 48.3694 63.3076 48.2985 63.0642 48.1388C62.8208 47.9791 62.6399 47.7403 62.5522 47.4626C62.0506 46.3415 61.646 45.1655 60.9 44.1624C60.7567 43.7915 60.6134 43.4164 60.3815 42.801L57.9201 48.2466C56.5755 48.2719 55.2267 48.2803 53.8822 48.3225C53.1825 48.3225 53.3005 48.0401 53.5408 47.6186C54.86 45.2709 56.154 42.9064 57.5028 40.5755C57.6704 40.3384 57.7624 40.0563 57.7669 39.766C57.7714 39.4757 57.6882 39.1908 57.5281 38.9486C56.4153 36.9381 55.3869 34.8812 54.291 32.8581C54.0002 32.3228 54.0086 32.1078 54.7125 32.1289C56.1245 32.1795 57.5365 32.1879 58.9274 32.209C59.4922 33.4734 60.057 34.7379 60.6429 36.0403C60.8049 35.9007 60.9362 35.729 61.0284 35.536C61.1205 35.343 61.1715 35.1329 61.1782 34.9191Z" fill="#3E3E40"/>
<path d="M19.1222 48.5208C18.4496 48.6572 17.7643 48.7222 17.078 48.7147C15.3626 48.5672 14.2035 47.3828 14.2456 45.6631C14.2962 43.5557 15.1223 41.5704 15.5522 39.522C15.7224 38.8606 15.8505 38.1891 15.9358 37.5115C16.0285 36.247 15.2403 35.6696 13.9759 35.9689C13.685 36.0405 13.2256 36.618 13.0444 35.9689C13.0078 35.8421 12.9967 35.7094 13.0117 35.5783C13.0267 35.4472 13.0675 35.3204 13.1317 35.2052C13.196 35.09 13.2825 34.9887 13.3861 34.907C13.4898 34.8254 13.6085 34.7651 13.7356 34.7297C15.1518 34.1607 16.5722 33.7181 18.1317 33.9373C19.5184 34.422 20.2729 35.3872 20.2855 36.8877C20.2907 37.5421 20.2157 38.1946 20.0621 38.8308C19.5817 40.7612 19.0885 42.6874 18.6797 44.6347C18.3425 46.2405 18.8735 46.7421 20.4921 46.5398C20.9136 46.6325 21.276 46.2321 21.706 46.367C21.6554 47.3364 21.1032 47.859 20.2055 48.1077C19.8362 48.2231 19.4745 48.361 19.1222 48.5208Z" fill="#3E3E40"/>
<path d="M39.5897 40.8455C39.5897 41.1616 39.5897 41.482 39.5897 41.8023C39.1008 41.9034 39.261 42.2996 39.2357 42.5989C38.9954 45.2543 37.3811 47.1805 35.2905 47.8169C34.9533 47.9181 34.6035 48.0951 34.3085 47.7284C35.1607 47.3961 35.9349 46.8909 36.5822 46.2445C37.2294 45.5981 37.7357 44.8246 38.0692 43.9728C38.4026 43.121 38.5559 42.2093 38.5195 41.2953C38.483 40.3813 38.2576 39.4847 37.8574 38.6622C37.4865 37.9204 36.9512 37.4399 35.5434 36.6222C38.0471 34.9362 38.0724 32.4916 37.7352 29.9079C37.4823 27.8974 36.3696 26.6666 34.4855 26.0597C35.0461 25.6382 35.5645 26.0218 36.0155 26.2283C37.4064 26.8647 38.3337 27.9142 38.5149 29.4906C38.7425 31.4674 39.0376 33.4442 37.8827 35.2819C37.5581 35.8256 36.6772 36.1248 36.829 36.6686C36.9343 37.0648 37.672 37.3809 38.0934 37.7855C38.6952 38.4366 39.0885 39.2527 39.223 40.129C39.2947 40.4156 39.1556 40.7696 39.5897 40.8455Z" fill="#EFEFEF"/>
<path d="M20.2389 31.4846C18.456 31.8176 17.1368 31.0041 16.867 29.4109C16.806 29.0644 16.8144 28.7094 16.8916 28.3662C16.9688 28.023 17.1133 27.6985 17.3168 27.4116C17.5202 27.1247 17.7786 26.8809 18.0769 26.6945C18.3751 26.5081 18.7075 26.3827 19.0545 26.3256C19.6067 26.2244 20.0788 26.4857 20.593 26.5321C22.7679 28.0958 22.123 30.7301 20.2389 31.4846Z" fill="#3E3E40"/>
<path d="M67.2897 48.4364C68.0105 48.3859 67.9388 48.0655 67.648 47.5555C66.2697 45.1446 64.9378 42.7042 63.5469 40.2975C63.3811 40.0618 63.2921 39.7806 63.2921 39.4925C63.2921 39.2043 63.3811 38.9231 63.5469 38.6874C64.5585 36.9677 65.511 35.2144 66.472 33.4652C66.7039 33.0437 67.0453 32.6601 67.0874 32.1417C67.3824 32.285 67.766 31.7876 67.9641 32.1838C68.1116 32.4873 67.7786 32.7739 67.6227 33.0563C66.5226 35.0205 65.4352 36.9888 64.3267 38.9572C64.2113 39.1339 64.1499 39.3404 64.1499 39.5515C64.1499 39.7625 64.2113 39.969 64.3267 40.1458C65.6923 42.523 67.0439 44.9114 68.3814 47.3111C68.55 47.6188 69.0136 48.0234 68.6301 48.3395C68.4478 48.4996 68.2181 48.5957 67.9762 48.6132C67.7342 48.6307 67.4932 48.5686 67.2897 48.4364Z" fill="#EFEFEF"/>
<path d="M50.0385 48.264C51.9985 47.5222 52.8667 45.9542 53.225 44.0154C53.6379 41.623 53.6677 39.1802 53.3135 36.7784C53.0648 34.9323 52.4368 33.2885 50.6033 32.3992C50.5359 32.3697 50.5148 32.2474 50.4685 32.1673C51.9647 32.121 52.7614 33.1073 53.4189 34.2242C53.9882 35.2976 54.2945 36.4908 54.3124 37.7057C54.5274 40.5592 54.6285 43.4127 53.4062 46.1102C53.136 46.6916 52.7353 47.2029 52.2353 47.6042C51.7353 48.0056 51.1494 48.2861 50.5232 48.4242C50.4368 48.4607 50.34 48.4645 50.2508 48.4351C50.1617 48.4056 50.0863 48.3448 50.0385 48.264Z" fill="#EFEFEF"/>
<path d="M20.4878 46.5228C18.8693 46.7336 18.3382 46.2236 18.6754 44.6177C19.0969 42.6704 19.5774 40.7442 20.0579 38.8138C20.2114 38.1777 20.2865 37.5251 20.2812 36.8708C20.2812 35.3871 19.5141 34.4219 18.1274 33.9203C19.5015 33.5326 21.0189 34.8223 21.1031 36.4198C21.2212 38.6579 20.4246 40.7232 19.9146 42.8432C19.7208 43.5011 19.5798 44.1734 19.4931 44.8537C19.4383 45.6925 19.6448 46.2784 20.4878 46.5228Z" fill="#EFEFEF"/>
<path d="M20.2394 31.4841C22.1319 30.7297 22.7894 28.1122 20.5934 26.5316C20.6206 26.4819 20.6575 26.4381 20.702 26.4029C20.7465 26.3677 20.7976 26.3419 20.8523 26.3269C20.907 26.312 20.9642 26.3082 21.0204 26.3159C21.0765 26.3235 21.1306 26.3424 21.1793 26.3715C21.7432 26.5993 22.215 27.0085 22.5203 27.5344C22.8257 28.0603 22.947 28.6729 22.8653 29.2755C22.7683 30.3461 21.6303 31.6106 20.6609 31.7117C20.4544 31.7328 20.3406 31.6106 20.2394 31.4841Z" fill="#EFEFEF"/>
<path d="M57.8991 48.2469L60.3606 42.8013C60.5924 43.4166 60.7357 43.7918 60.879 44.1627C59.859 45.1532 59.682 46.582 58.9991 47.7453C58.7336 48.2047 58.5945 48.8201 57.8991 48.2469Z" fill="#EFEFEF"/>
<path d="M61.1785 34.9194C61.1698 35.1345 61.1161 35.3453 61.0211 35.5384C60.926 35.7315 60.7915 35.9025 60.6264 36.0406C60.0405 34.7255 59.4757 33.4695 58.9109 32.2092C59.6148 31.6487 59.8129 32.2851 60.0236 32.7234C60.3819 33.4695 60.58 34.2998 61.1785 34.9194Z" fill="#EFEFEF"/>
<path d="M19.1225 48.5209C19.4732 48.3584 19.8335 48.2176 20.2015 48.0994C21.0992 47.8507 21.6514 47.3281 21.702 46.3586C21.9633 46.4134 22.33 46.2238 22.4396 46.6284C22.5323 46.9529 22.5028 47.3744 22.2415 47.5262C21.31 48.0615 20.4122 48.7316 19.2489 48.66C19.2026 48.6515 19.1646 48.5672 19.1225 48.5209Z" fill="#EFEFEF"/>
<path d="M50.485 32.1798L49.916 32.1165C50.1352 31.8974 50.3291 31.8636 50.485 32.1798Z" fill="#EFEFEF"/>
<path d="M28.5677 38.5406C29.4832 38.4772 30.403 38.5239 31.3074 38.6797C33.1156 38.8736 33.908 39.7713 33.9038 41.6048C33.9038 43.2402 32.9343 44.3445 31.3116 44.5131C30.4716 44.6129 29.6227 44.6129 28.7827 44.5131C28.7827 43.5605 28.8206 42.608 28.7827 41.6596C28.7194 40.6143 28.9681 39.5564 28.5677 38.5406Z" fill="#C3C5C7"/>
<path d="M28.7743 29.8155C29.8705 29.4925 31.0308 29.4534 32.1462 29.7017C32.2766 29.7205 32.4007 29.7696 32.5087 29.845C33.71 30.7133 33.3938 32.0031 33.3517 33.1748C33.3537 33.5907 33.205 33.9933 32.933 34.3079C32.6609 34.6226 32.2841 34.8279 31.8723 34.886C30.8478 35.0965 29.7966 35.1434 28.7575 35.0251C28.7659 33.2886 28.7715 31.5521 28.7743 29.8155Z" fill="#C3C5C7"/>
<path d="M28.5677 38.5401C28.9681 39.5559 28.7195 40.6138 28.7658 41.6507C28.8038 42.599 28.7658 43.5516 28.7658 44.5042C28.0872 44.7065 27.8301 44.5042 27.8554 43.7539C27.9018 42.2492 27.8849 40.7403 27.8554 39.2356C27.8554 38.7171 27.9523 38.3884 28.5677 38.5401Z" fill="#FEFEFE"/>
<path d="M28.774 29.815C28.774 31.5515 28.774 33.288 28.774 35.0245C28.1207 35.2058 27.8299 35.0245 27.8636 34.2827C27.9226 33.0815 27.91 31.876 27.8636 30.6748C27.8257 29.9667 28.1165 29.7222 28.774 29.815Z" fill="#FEFEFE"/>
<path d="M46.1394 35.4041C48.1921 35.2439 48.8749 35.7919 49.1741 37.8024C49.4131 39.4573 49.3946 41.1393 49.1193 42.7886C48.8833 44.2511 48.2764 44.837 46.9276 44.9592C45.2121 44.4029 45.0773 44.2216 44.9466 42.3882C44.9466 42.2575 44.9255 42.1268 44.9129 41.9962C44.7401 39.7539 44.445 37.4947 46.1099 35.598C46.1478 35.5474 46.131 35.4589 46.1394 35.4041Z" fill="#C3C5C7"/>
<path d="M46.1396 35.4043C46.1396 35.4675 46.1396 35.556 46.1101 35.5982C44.4452 37.4949 44.7402 39.7541 44.9131 41.9964C44.9131 42.127 44.9383 42.2577 44.9468 42.3884C45.0774 44.2218 45.2123 44.4031 46.9278 44.9594C44.9594 45.1365 44.3693 44.7065 44.0616 42.793C43.7799 41.0409 43.8113 39.2528 44.1544 37.5117C44.3693 36.3948 44.9004 35.556 46.1396 35.4043Z" fill="#EFEFEF"/>
</svg>
