<svg width="96" height="58" viewBox="0 0 96 58" fill="none" xmlns="http://www.w3.org/2000/svg">
<path d="M8.03176 57.9698C7.92596 57.932 1.40861 52.7919 1.22506 52.6015C1.08537 52.4566 1.00445 52.3114 0.954093 52.1153C0.925264 52.003 0.921885 49.9564 0.922165 32.7737C0.922439 15.7094 0.926039 13.5426 0.954291 13.4227C1.04723 13.0284 1.40221 12.6795 1.79058 12.6007C1.85155 12.5884 5.0535 12.0654 8.90602 11.4385C16.5712 10.1912 16.0577 10.2652 16.3352 10.3686C16.5602 10.4524 16.5499 10.4446 18.8178 12.258L20.3977 13.5214L20.4083 11.9067C20.4187 10.3063 20.4192 10.2909 20.4652 10.1691C20.5965 9.82152 20.8617 9.56575 21.1877 9.47233C21.2515 9.45407 27.2901 8.45194 34.607 7.24538C43.9319 5.70771 47.9609 5.05115 48.079 5.05001C48.2766 5.04809 48.4902 5.10555 48.6404 5.20107C48.7149 5.24843 54.0182 9.46486 54.2058 9.6259C54.2406 9.65576 54.2462 9.65581 54.2626 9.62636C54.2727 9.6084 54.3777 9.45759 54.4959 9.29123C54.766 8.91122 55.1161 8.47456 55.5096 8.02702C58.6473 4.45829 62.8065 1.97452 67.734 0.726915C71.1138 -0.128849 74.1813 -0.228108 77.0862 0.424288C79.3672 0.936566 81.5131 1.94358 83.2627 3.32279C83.3917 3.42447 83.6903 3.65899 83.9263 3.84394C89.4927 8.20664 92.0589 10.3894 92.82 11.4086C92.9773 11.6193 93.0082 11.6921 93.0083 11.8516C93.0083 12.0052 92.9454 12.1654 92.849 12.2567C92.6737 12.4227 81.8154 20.9969 81.7326 21.0347C81.6034 21.0937 81.3973 21.0934 81.2691 21.0341C81.217 21.01 81.0037 20.855 80.7951 20.6895C80.3468 20.3339 80.1319 20.1885 79.8228 20.0314C79.0771 19.6523 78.2721 19.4948 77.3729 19.5518C76.3553 19.6164 75.5696 19.8217 74.7069 20.2483C73.9365 20.6293 73.3115 21.082 72.6735 21.721C71.5886 22.8079 70.8058 24.1923 70.4598 25.6357C70.3972 25.8966 70.25 26.7185 70.2631 26.7334C70.2757 26.7476 70.9151 26.5642 71.1456 26.4802C71.6744 26.2875 72.255 25.9705 72.7197 25.6206C73.374 25.128 73.9024 24.5744 74.5607 23.692C74.7249 23.4718 74.9082 23.246 74.968 23.1903C75.1829 22.9897 75.4916 22.895 75.7829 22.9402C75.8684 22.9535 76.1921 23.0398 76.5024 23.1319C76.8126 23.2241 78.1471 23.6184 79.4679 24.0082C86.2542 26.0109 87.6339 26.422 87.765 26.4805C87.8131 26.5019 87.8992 26.5554 87.9564 26.5993C88.0137 26.6432 89.6222 28.0008 91.5311 29.6163C95.4101 32.8991 95.0872 32.6012 95.061 32.8733C95.041 33.0798 94.9771 33.2372 94.6572 33.8685C94.1172 34.9338 93.6482 35.7422 93.0562 36.6285C92.0537 38.1292 91.0411 39.3611 89.7387 40.6645C88.9569 41.4469 88.3316 42.0089 87.548 42.6333C84.8786 44.7606 81.9066 46.2704 78.8173 47.0685C76.8856 47.5676 74.8786 47.812 72.99 47.778C71.1224 47.7445 69.5637 47.4893 67.9236 46.9486C67.1128 46.6813 66.5225 46.4259 65.3745 45.8459C61.5629 43.9202 57.9715 41.4946 55.5426 39.2057L55.2537 38.9335L55.2476 40.4463L55.2416 41.9591L55.1826 42.0792C55.1177 42.2114 55.0333 42.2937 54.9045 42.3505C54.8521 42.3737 52.5991 42.7509 48.9427 43.3488C45.7101 43.8774 43.0257 44.3243 42.9774 44.3418C42.9291 44.3593 42.8722 44.3993 42.851 44.4305C42.814 44.485 42.8119 44.6474 42.8019 48.2482L42.7913 52.0091L42.746 52.1072C42.6884 52.2319 42.551 52.3658 42.4372 52.4082C42.3387 52.4449 29.3265 54.5479 29.1978 54.5479C29.016 54.5479 28.967 54.5137 27.5603 53.402L26.191 52.3198L26.1805 53.534C26.1725 54.4529 26.1634 54.7629 26.1431 54.8088C26.0749 54.963 25.9253 55.099 25.7822 55.1371C25.7161 55.1547 21.9433 55.7728 13.0456 57.2238C7.65242 58.1033 8.18392 58.0243 8.03176 57.9698V57.9698Z" fill="black"/>
<path d="M9.0827 50.8066C12.7338 50.2098 15.7628 49.706 15.8138 49.6869C15.9397 49.6399 16.0651 49.522 16.1244 49.3948L16.1736 49.2895L16.1733 30.4641L16.1731 11.6387L16.1302 11.5439C16.0385 11.341 15.8386 11.2074 15.6261 11.207C15.5131 11.2068 2.35604 13.3539 2.20488 13.3972C2.07783 13.4336 1.94292 13.5529 1.87691 13.6874L1.81726 13.8089V32.6343C1.81726 50.0966 1.81978 51.4652 1.85208 51.5363C1.94569 51.7425 2.15164 51.8851 2.36253 51.8897C2.40752 51.8907 5.43161 51.4033 9.08271 50.8066H9.0827Z" fill="white"/>
<path d="M22.6759 48.5869C26.1464 48.0258 34.803 46.605 34.8852 46.5831C35.0013 46.5521 35.1315 46.4413 35.2052 46.3106L35.2706 46.1947L35.2811 42.5172C35.291 39.053 35.2938 38.8364 35.3287 38.7831C35.3491 38.752 35.3917 38.7131 35.4235 38.6967C35.4899 38.6623 35.3612 38.6838 41.2228 37.7271C44.6494 37.1678 45.6779 36.9932 45.7444 36.9592C45.8597 36.9004 45.9591 36.7977 46.0126 36.6822L46.0566 36.5871V30.7615V24.9358L45.9997 24.828C45.9028 24.6443 45.7152 24.5235 45.5241 24.5216C45.4694 24.521 45.3013 24.5409 45.1507 24.5658C45.0001 24.5906 43.9525 24.7619 42.8229 24.9463C41.6932 25.1308 39.6098 25.4718 38.1932 25.704C36.7765 25.9362 35.5887 26.1262 35.5536 26.1262C35.4639 26.1262 35.3707 26.0727 35.3224 25.9935C35.2822 25.9276 35.2812 25.8681 35.2812 23.3827V20.8393L35.3463 20.7651C35.3822 20.7243 35.4461 20.6807 35.4885 20.6683C35.5309 20.6559 38.2207 20.2112 41.4658 19.6801C45.9482 18.9465 47.3862 18.7041 47.4498 18.6717C47.5621 18.6144 47.6639 18.509 47.7183 18.3938L47.763 18.299V12.3785V6.45808L47.7166 6.37135C47.6021 6.1573 47.4256 6.04272 47.2106 6.04297C47.0859 6.04318 21.7586 10.1803 21.6361 10.2206C21.5308 10.2551 21.3679 10.4147 21.317 10.5331L21.2719 10.6378L21.2772 29.4803C21.2823 47.4559 21.2843 48.3258 21.3198 48.3909C21.425 48.5834 21.6176 48.7119 21.8017 48.7123C21.8555 48.7125 22.2489 48.656 22.676 48.5869H22.6759Z" fill="white"/>
<path d="M67.3442 41.8143C70.8618 41.512 73.9736 40.5557 76.9169 38.8725C80.8678 36.6131 84.2035 33.2151 86.453 29.1583C86.7523 28.6185 87.0341 28.0462 87.1054 27.8334C87.2217 27.4862 87.1772 27.2521 86.9749 27.1468C86.8652 27.0897 85.7865 26.7664 80.0893 25.0833C78.2992 24.5545 76.6308 24.06 76.3816 23.9844C75.665 23.767 75.5874 23.7802 75.3023 24.167C75.0181 24.5527 74.7251 24.9295 74.5488 25.1361C74.3109 25.4151 73.8427 25.8873 73.5817 26.1115C72.4996 27.0415 71.2276 27.5868 69.7036 27.7742C69.4147 27.8097 68.5366 27.8095 68.25 27.7739C66.6886 27.5797 65.4399 26.8367 64.6604 25.6379C64.5073 25.4023 64.2709 24.9131 64.1736 24.6304C63.759 23.4255 63.7508 21.9948 64.1503 20.6024C64.7784 18.4139 66.4025 16.4249 68.3553 15.4526C69.0583 15.1027 69.6844 14.9168 70.5568 14.7993C70.8975 14.7534 71.7078 14.7465 71.9893 14.7872C72.9859 14.9311 73.7304 15.2831 74.5594 16.0025C74.8753 16.2766 75.0247 16.3355 75.2532 16.2759C75.4438 16.2263 75.1638 16.4494 78.3303 13.8239C80.091 12.364 84.2906 8.87712 85.1321 8.17633C85.5102 7.86156 85.7182 7.67358 85.758 7.61079C85.8398 7.48173 85.8558 7.35527 85.8117 7.18621C85.7629 6.99916 85.6668 6.83618 85.4051 6.49618C83.6645 4.23518 81.2982 2.56474 78.5304 1.64303C75.5429 0.648144 72.2274 0.546588 68.6713 1.34103C65.1107 2.13648 61.9333 3.57157 59.2305 5.60495C56.5491 7.62228 54.395 10.2067 52.8947 13.2065C51.4146 16.1659 50.6133 19.2913 50.3817 23.0081C50.3461 23.5797 50.3462 25.6836 50.3819 26.2212C50.549 28.739 50.968 30.7482 51.7252 32.6618C53.0969 36.1287 55.4432 38.7414 58.57 40.2838C59.522 40.7534 60.4606 41.0973 61.5088 41.3604C62.5768 41.6284 63.4799 41.761 64.8584 41.8522C65.1752 41.8732 66.9791 41.8456 67.3442 41.8143H67.3442Z" fill="white"/>
</svg>
