<svg width="113" height="58" viewBox="0 0 113 58" fill="none" xmlns="http://www.w3.org/2000/svg">
<path d="M113 4.98492C112.693 2.43143 110.832 0.396232 108.462 0C98.0742 0 14.971 0 4.58289 0C1.98683 0.434255 0 2.83366 0 5.72536C0 10.3741 0 47.5559 0 52.2026C0 55.4045 2.43097 58 5.43186 58C15.649 58 97.3962 58 107.613 58C110.376 58 112.658 55.7967 113 52.945C113 43.3534 113 9.77973 113 4.98492Z" fill="#F6C700"/>
<path d="M13.6289 11.6543H22.5962V46.8049H13.6289V11.6543Z" fill="black"/>
<path d="M39.5401 27.8455C38.7698 22.4883 38.3414 19.5106 38.2569 18.9162C37.8815 16.0485 37.5238 13.5531 37.1819 11.4238C36.4056 11.4238 32.5322 11.4238 25.5557 11.4238V46.5744H33.4106L33.4381 23.3648L36.7436 46.5744H42.3386L45.4731 22.8485L45.5026 46.5744H53.332V11.4238H41.6174L39.5401 27.8455Z" fill="black"/>
<path d="M68.1361 18.7361C68.2343 19.1844 68.2854 20.201 68.2854 21.7899C68.2854 23.1527 68.2854 34.0551 68.2854 35.4179C68.2854 37.7573 68.1361 39.1901 67.8393 39.7184C67.5406 40.2467 66.7466 40.5089 65.4594 40.5089C65.4594 38.2015 65.4594 19.7427 65.4594 17.4354C66.4361 17.4354 67.1023 17.5414 67.4561 17.7495C67.8098 17.9597 68.0378 18.2879 68.1361 18.7361ZM72.1864 46.2162C73.2535 45.9781 74.1496 45.5578 74.8767 44.9595C75.6019 44.3591 76.1109 43.5286 76.4018 42.466C76.6946 41.4054 76.8675 39.2982 76.8675 36.1463C76.8675 34.9136 76.8675 25.0378 76.8675 23.8031C76.8675 20.4771 76.7398 18.2478 76.5413 17.1152C76.3408 15.9805 75.8436 14.9499 75.0477 14.0254C74.2498 13.1008 73.0864 12.4364 71.5575 12.0322C70.0266 11.6279 67.5308 11.4238 63.1896 11.4238C62.7435 11.4238 60.5149 11.4238 56.5 11.4238V46.5744H67.3637C69.8674 46.4944 71.475 46.3763 72.1864 46.2162Z" fill="black"/>
<path d="M91.3359 40.9627C91.1708 41.4089 90.4476 41.6351 89.9012 41.6351C89.3667 41.6351 89.011 41.4189 88.8302 40.9847C88.6494 40.5524 88.561 39.5659 88.561 38.021C88.561 37.0924 88.561 29.6601 88.561 28.7315C88.561 27.1306 88.6396 26.132 88.7988 25.7338C88.956 25.3395 89.3019 25.1394 89.8364 25.1394C90.3827 25.1394 91.1158 25.3655 91.3044 25.8198C91.4911 26.2741 91.5854 27.2446 91.5854 28.7315C91.5854 29.3319 91.5854 32.3336 91.5854 37.7388C91.5285 39.5899 91.4459 40.6645 91.3359 40.9627ZM79.9219 46.2678H87.995C88.331 44.925 88.5158 44.1786 88.5531 44.0285C89.2842 44.929 90.0879 45.6054 90.9703 46.0537C91.8488 46.5039 93.1635 46.7281 94.1815 46.7281C95.5984 46.7281 96.8208 46.3498 97.8525 45.5914C98.8823 44.8349 99.5387 43.9384 99.8177 42.9078C100.097 41.8752 100.236 40.3063 100.236 38.1971C100.236 37.2105 100.236 29.3219 100.236 28.3353C100.236 26.214 100.189 24.8292 100.097 24.1788C100.004 23.5285 99.7293 22.8661 99.2714 22.1877C98.8135 21.5093 98.1473 20.983 97.2747 20.6067C96.4022 20.2305 95.3724 20.0424 94.1854 20.0424C93.1537 20.0424 91.8331 20.2525 90.9526 20.6668C90.0742 21.081 89.2763 21.7094 88.561 22.5519C88.561 21.7894 88.561 17.9792 88.561 11.1172H79.9219V46.2678Z" fill="black"/>
</svg>
