<svg width="60" height="59" viewBox="0 0 60 59" fill="none" xmlns="http://www.w3.org/2000/svg">
<path d="M59.3213 0.527816C59.3213 0.0928028 59.2227 0 58.7921 0C39.3576 0.0135337 19.9227 0.0169172 0.487277 0.0101503C0.493077 0.259558 0.503227 0.507515 0.503227 0.755473C0.500327 19.8757 0.49211 38.9989 0.478577 58.125C0.478577 58.6862 0.58733 58.85 1.18185 58.85C6.88632 58.8239 12.5908 58.8341 18.2924 58.8326C18.4838 58.8326 18.6752 58.8225 18.8651 58.8167C19.1131 58.8167 19.3625 58.8326 19.6104 58.8326H58.5615C58.808 58.8326 59.0574 58.8326 59.3068 58.8413V17.4745C59.3097 11.8251 59.3039 6.17718 59.3213 0.527816ZM46.6668 38.4827C46.6393 42.2412 44.0814 45.2617 40.3765 45.9098C39.829 45.9918 39.2756 46.0282 38.722 46.0186C36.4019 46.0287 34.0949 46.0186 31.7821 46.0186C31.5733 46.0186 31.3645 46.0418 31.1557 46.0548C29.9884 46.0418 28.8226 46.0258 27.6567 46.0186C25.1917 46.0026 22.7164 46.049 20.2514 45.9664C17.0091 45.8634 14.109 43.3302 13.4188 40.1662C13.2915 39.5159 13.2351 38.8537 13.2506 38.1912C13.2448 32.3157 13.2448 26.4396 13.2506 20.5631C13.2506 16.1013 16.2391 12.8242 20.6791 12.7488C26.9926 12.6415 33.3105 12.6661 39.6254 12.772C43.4608 12.8372 46.5769 16.1071 46.6538 19.9555C46.7161 23.0731 46.6712 26.1907 46.6755 29.3141C46.6755 29.4591 46.6871 29.62 46.6929 29.7737C46.6828 32.6724 46.69 35.5768 46.6668 38.4827Z" fill="#E04627"/>
<path d="M51.0344 29.8573C51.0344 33.5143 51.0344 37.1713 51.0083 40.8283C50.972 45.5598 47.7515 49.3618 43.0896 50.1782C42.3996 50.2818 41.7021 50.3274 41.0044 50.3145C38.0928 50.3276 35.1811 50.3145 32.2694 50.3145C32.0069 50.3145 31.743 50.3435 31.4806 50.3595C30.0117 50.3435 28.5442 50.3232 27.0753 50.3145C23.9679 50.2942 20.859 50.3522 17.753 50.2493C13.6755 50.1144 10.0228 46.9258 9.15279 42.9353C8.99362 42.1192 8.92264 41.2884 8.94109 40.4571C8.93529 33.06 8.93529 25.6648 8.94109 18.2715C8.94109 12.6554 12.7025 8.53008 18.2924 8.43437C26.2401 8.29952 34.195 8.33142 42.1427 8.46482C46.9699 8.54748 50.8952 12.67 50.988 17.5073C51.0663 21.4326 51.0097 25.3607 51.0155 29.2889C51.0126 29.4716 51.0271 29.6645 51.0344 29.8573ZM35.2289 38.0153C36.8428 38.3937 38.4611 38.7591 40.0706 39.1579C40.5497 39.2876 41.0546 39.2876 41.5337 39.1579C42.6937 38.8505 43.6218 38.1777 44.4526 37.3758C46.9511 34.9629 47.5804 31.928 47.1787 28.619C46.8887 26.2699 45.9244 24.2384 44.0394 22.7173C42.2123 21.1469 40.0155 20.4248 37.6824 20.3566C33.4918 20.2348 29.2968 20.3059 25.1033 20.2841C24.7248 20.2841 24.603 20.4175 24.603 20.7873C24.6098 25.584 24.6098 30.3808 24.603 35.1775C24.603 35.4951 24.7031 35.6531 25.0206 35.7242C28.4224 36.4801 31.8247 37.2438 35.2275 38.0153H35.2289ZM21.8059 27.6112C21.8059 25.3709 21.8059 23.132 21.8059 20.8917C21.8059 20.5132 21.7943 20.2696 21.2868 20.2769C19.0711 20.3059 16.8554 20.303 14.6412 20.2885C14.2192 20.2885 14.1177 20.4335 14.1177 20.8337C14.1264 24.8068 14.1264 28.7804 14.1177 32.7545C14.1177 33.0779 14.1786 33.2577 14.5687 33.3345C16.7757 33.8043 18.9783 34.2944 21.1693 34.8281C21.716 34.9615 21.8218 34.8498 21.816 34.3234C21.7943 32.0904 21.8044 29.8501 21.8044 27.6112H21.8059ZM17.7515 44.7464C17.3542 45.554 16.7974 45.8034 16.0811 45.5656C15.3648 45.3278 14.9051 44.5637 15.0574 43.8633C15.3082 42.7163 16.6611 42.2349 17.5224 43.0469C17.9923 43.4819 18.3258 43.16 18.5621 42.9411C18.8623 42.6626 18.4374 42.4538 18.2605 42.2842C17.6152 41.6665 16.8105 41.5592 15.9723 41.7042C15.3619 41.8172 14.8166 42.1564 14.4454 42.654C14.0741 43.1515 13.9043 43.7709 13.9698 44.3882C14.0757 45.6222 15.1719 46.5966 16.4828 46.6256C17.0662 46.6467 17.6375 46.4556 18.0908 46.0877C18.5441 45.7197 18.8486 45.1999 18.9478 44.6246C19.0479 44.0184 18.8884 43.7879 18.2576 43.8546C17.7748 43.8881 17.2903 43.8881 16.8076 43.8546C16.5103 43.8459 16.3726 43.9343 16.3726 44.2591C16.3726 44.584 16.4335 44.771 16.8076 44.7406C17.0961 44.7275 17.3861 44.7464 17.7515 44.7464ZM24.7263 44.1388C24.7263 42.7511 23.5967 41.6534 22.1655 41.6534C20.7343 41.6534 19.6018 42.7496 19.6018 44.1359C19.6242 44.8005 19.9039 45.4304 20.382 45.8927C20.86 46.3549 21.499 46.6133 22.164 46.6133C22.829 46.6133 23.468 46.3549 23.9461 45.8927C24.4242 45.4304 24.7039 44.8005 24.7263 44.1359V44.1388Z" fill="#FAEAE7"/>
<path d="M47.1772 28.6115C46.8872 26.2624 45.923 24.2309 44.0379 22.7098C42.2094 21.1394 40.014 20.4173 37.6809 20.3492C33.4903 20.2274 29.2953 20.2984 25.1018 20.2767C24.7219 20.2767 24.6001 20.4101 24.6015 20.7798C24.6073 25.5766 24.6073 30.3733 24.6015 35.1701C24.6015 35.4876 24.7016 35.6457 25.0206 35.7167C28.4253 36.4765 31.829 37.2422 35.2318 38.0136C36.8457 38.3921 38.4625 38.7575 40.072 39.1562C40.5516 39.286 41.057 39.286 41.5366 39.1562C42.6966 38.8488 43.6246 38.176 44.4555 37.3741C46.9481 34.9554 47.5789 31.9205 47.1772 28.6115ZM38.477 33.0907C38.0943 33.726 37.5194 34.2232 36.8355 34.5103C36.8363 34.5233 36.8363 34.5364 36.8355 34.5494C36.8362 34.5364 36.8362 34.5233 36.8355 34.5103C35.4768 34.9279 34.0804 34.619 32.7073 34.7031C32.4245 34.7205 32.3346 34.5697 32.336 34.3058C32.336 31.5652 32.336 28.8242 32.336 26.0826C32.336 25.8115 32.4404 25.6897 32.7189 25.694C33.7759 25.71 34.8388 25.6549 35.8901 25.7419C37.5229 25.8767 38.7061 27.0252 39.0048 28.6536C39.0961 29.1466 39.1585 29.6439 39.2339 30.1384C39.1512 31.1752 39.0338 32.1815 38.4813 33.0907H38.477Z" fill="url(#paint0_linear)"/>
<path d="M21.8044 27.6099C21.8044 29.8488 21.7913 32.0891 21.8131 34.328C21.8131 34.8543 21.713 34.966 21.1664 34.8326C18.9754 34.299 16.7727 33.8089 14.5658 33.339C14.1757 33.2564 14.1148 33.0766 14.1148 32.759C14.1206 28.7859 14.1206 24.8123 14.1148 20.8382C14.1148 20.4438 14.2163 20.2901 14.6383 20.293C16.8525 20.3075 19.0682 20.3104 21.2838 20.2814C21.7913 20.2742 21.8044 20.5178 21.8029 20.8962C21.7928 23.1365 21.8029 25.3754 21.8029 27.6157L21.8044 27.6099Z" fill="#E04627"/>
<path d="M17.7516 44.7448C17.3862 44.7448 17.0962 44.726 16.8105 44.7448C16.4349 44.7753 16.3755 44.5766 16.3755 44.2634C16.3755 43.9502 16.5132 43.8502 16.8105 43.8589C17.2933 43.8924 17.7778 43.8924 18.2605 43.8589C18.8913 43.7922 19.0508 44.0227 18.9508 44.6288C18.8515 45.2042 18.547 45.724 18.0937 46.0919C17.6404 46.4599 17.0691 46.651 16.4857 46.6299C15.1806 46.6009 14.0786 45.6265 13.9728 44.3925C13.9072 43.7751 14.0771 43.1558 14.4483 42.6582C14.8195 42.1607 15.3648 41.8215 15.9753 41.7085C16.8192 41.5635 17.6182 41.6664 18.2634 42.2885C18.4403 42.4581 18.8652 42.6669 18.565 42.9453C18.3287 43.1643 17.9952 43.492 17.5254 43.0512C16.6553 42.2392 15.3097 42.7206 15.0603 43.8676C14.908 44.5679 15.3677 45.3321 16.084 45.5699C16.8003 45.8077 17.3543 45.5525 17.7516 44.7448Z" fill="#E04627"/>
<path d="M24.7262 44.1368C24.7039 44.8014 24.4241 45.4313 23.9461 45.8936C23.468 46.3558 22.829 46.6142 22.164 46.6142C21.499 46.6142 20.86 46.3558 20.382 45.8936C19.9039 45.4313 19.6241 44.8014 19.6018 44.1368C19.6018 42.7505 20.7328 41.6557 22.1655 41.6543C23.5981 41.6528 24.7277 42.7491 24.7262 44.1368ZM20.611 44.1368C20.6141 44.3356 20.6571 44.5318 20.7374 44.7137C20.8177 44.8957 20.9337 45.0597 21.0785 45.1959C21.2233 45.3322 21.394 45.4381 21.5804 45.5072C21.7669 45.5764 21.9653 45.6074 22.164 45.5984C22.963 45.5665 23.6503 44.8734 23.6445 44.1092C23.6354 43.719 23.4729 43.348 23.1923 43.0766C22.9117 42.8052 22.5355 42.6553 22.1452 42.6592C21.265 42.6708 20.598 43.3117 20.611 44.1426V44.1368Z" fill="#E04627"/>
<path d="M39.231 30.1449C39.1512 31.1715 39.0338 32.1836 38.4828 33.0928C38.098 33.7286 37.5212 34.2257 36.8355 34.5124C35.4754 34.93 34.0804 34.6212 32.7058 34.7053C32.423 34.7227 32.3346 34.5719 32.3346 34.308C32.3346 31.5674 32.3346 28.8263 32.3346 26.0848C32.3346 25.8136 32.439 25.6918 32.7174 25.6961C33.7759 25.7121 34.8388 25.657 35.8887 25.744C37.5228 25.8788 38.7046 27.0273 39.0033 28.6557C39.0932 29.1472 39.1556 29.6504 39.231 30.1449Z" fill="#FAEAE7"/>
<path d="M20.611 44.1452C20.5979 43.3143 21.265 42.6734 22.1451 42.6719C22.5355 42.668 22.9117 42.818 23.1923 43.0894C23.4729 43.3608 23.6354 43.7317 23.6445 44.122C23.6445 44.8891 22.963 45.5793 22.164 45.6112C21.965 45.6201 21.7662 45.589 21.5794 45.5196C21.3927 45.4502 21.2218 45.344 21.0769 45.2072C20.932 45.0704 20.8161 44.906 20.7361 44.7235C20.6561 44.5411 20.6135 44.3444 20.611 44.1452Z" fill="#FAEAE7"/>
<defs>
<linearGradient id="paint0_linear" x1="14.7122" y1="19.1906" x2="45.7301" y2="34.6466" gradientUnits="userSpaceOnUse">
<stop stop-color="#E6662B"/>
<stop offset="1" stop-color="#D43051"/>
</linearGradient>
</defs>
</svg>
