<svg width="79" height="40" viewBox="0 0 79 40" fill="none" xmlns="http://www.w3.org/2000/svg">
<path d="M55.1251 14.9808C55.3042 15.2044 55.5177 15.4621 55.8679 16.0291C56.8585 17.6327 58.8301 21.1216 60.8269 24.5801C62.1174 26.8151 63.5081 29.294 64.26 30.7192C66.5577 26.8178 69.1327 20.5365 70.8249 14.9473C70.9949 14.3877 71.2609 14.1162 71.749 14.1162C72.0097 14.1162 72.4484 14.2238 73.6552 14.5884C74.3819 14.8083 75.8306 15.2492 76.3691 15.419C76.9252 15.5936 77.1575 15.8721 77.1575 16.2277C77.1575 16.5749 76.9569 17.128 76.6742 17.8872C74.4178 23.9534 71.2872 30.5462 67.6143 36.121C66.2139 38.2474 64.6596 38.865 62.0696 38.865C59.3359 38.865 58.1141 38.1409 56.7716 36.1721C55.8598 34.8353 54.9111 33.3669 53.626 31.3922C55.589 28.1248 56.4273 24.1696 56.4273 20.2729C56.4273 17.7813 55.751 15.7518 55.1251 14.9808Z" fill="#F89F0E"/>
<path d="M56.4274 20.2727C56.4274 24.1699 55.5885 28.1262 53.6261 31.392L47.1578 21.3434C46.3581 19.9884 46.1436 19.415 46.1436 18.6499C46.1436 16.3952 50.1645 13.9775 52.8789 13.9775C53.8481 13.9775 54.467 14.2113 55.1251 14.9806C55.7511 15.7521 56.4274 17.781 56.4274 20.2727Z" fill="#B70469"/>
<path d="M53.6259 31.3915C50.734 36.0952 45.7781 38.8616 39.0374 38.8616C33.9357 38.8616 29.3156 37.3075 26.7686 35.0065C29.9802 32.3386 32.1733 28.2311 32.1733 23.2217L32.175 24.9446C32.175 27.8467 32.7896 29.585 34.0576 30.8777C35.3872 32.2321 37.4279 32.9764 40.0716 32.9764C45.641 32.9764 48.5254 29.5051 48.5254 25.6724C48.5254 24.1342 48.0679 22.8831 47.1583 21.3418" fill="#837319"/>
<path d="M26.7709 35.0068C24.1787 37.384 19.7931 38.863 15.586 38.863C11.3736 38.863 6.94068 37.7131 4.34693 35.1389C2.35013 33.1578 1.20718 30.6438 1.20718 26.2419V15.2152C1.20718 14.6706 1.40134 14.4411 1.98917 14.4411H10.3422C10.9364 14.4411 11.137 14.6786 11.137 15.212V27.41C11.137 29.3601 11.5613 30.6794 12.4677 31.6309C13.336 32.5418 14.7949 33.0859 16.4393 33.0859C18.1245 33.0859 19.6563 32.5221 20.6314 31.4829C21.74 30.2999 22.2425 28.6116 22.2425 25.4981V24.5366C22.2425 28.5695 23.6815 32.3363 26.7703 35.0068H26.7708H26.7709ZM6.17103 11.0422C3.06078 11.0422 1.14014 8.85035 1.14014 6.08875C1.14014 3.32663 3.06078 1.13525 6.17103 1.13525C9.28182 1.13525 11.2019 3.32663 11.2019 6.08875C11.2019 8.85035 9.28182 11.0422 6.17103 11.0422Z" fill="#4DC3C7"/>
<path d="M27.2076 3.7207C29.0687 3.7207 30.6466 4.05931 31.4125 4.7525C31.9322 5.2226 32.1736 5.8519 32.1736 6.77083V14.4406H40.0278C40.6221 14.4406 40.8307 14.6781 40.8307 15.2116V19.8999C40.8307 20.4334 40.6221 20.6708 40.0278 20.6708H35.618C34.2433 20.6708 33.1025 20.4701 32.1736 20.0756V23.2221C32.1736 28.2294 29.981 32.3406 26.7726 35.0064C23.6833 32.3358 22.2427 28.5621 22.2427 24.5292V6.77138C22.2427 5.85616 22.483 5.2226 23.0027 4.7525C23.7686 4.05931 25.3191 3.7207 27.2076 3.7207Z" fill="#181210"/>
</svg>
