<svg width="99" height="48" viewBox="0 0 99 48" fill="none" xmlns="http://www.w3.org/2000/svg">
<path d="M90.277 3.1123H7.23175V42.3527H90.277V3.1123Z" fill="white"/>
<path d="M1.00756 0.0194506C33.1716 0.0194506 65.3378 0.012967 97.5062 0C98.3144 0 98.4981 0.181539 98.496 0.987657C98.4686 16.4415 98.4621 31.8961 98.4765 47.3513C98.0097 47.3751 97.5451 47.4205 97.0804 47.4205H2.76892C0.934082 47.4226 0.934082 47.4205 0.934082 45.6008C0.934082 30.8745 0.934082 16.1454 0.934082 1.41341C0.934082 0.948756 0.981628 0.484103 1.00756 0.0194506ZM27.4517 29.4114C27.4517 28.1947 27.4517 26.9779 27.4517 25.7634C27.4517 25.0891 27.2831 24.7908 26.5743 25.2015C24.4361 26.442 22.2901 27.6666 20.1361 28.8755C19.5829 29.1888 19.5612 29.4136 20.1361 29.7399C22.3189 30.9819 24.4966 32.2346 26.6693 33.4982C27.3566 33.898 27.4603 33.5674 27.456 32.9687C27.443 31.7822 27.4517 30.6022 27.4517 29.4222V29.4114ZM45.5191 38.4235C45.5321 38.9811 45.9405 38.8558 46.228 38.8558C48.6312 38.8666 51.0344 38.8558 53.4355 38.8687C54.2697 38.8687 54.3648 38.5878 53.9671 37.9156C52.7641 35.8827 51.5754 33.8404 50.4012 31.7887C49.969 31.0453 49.688 31.1793 49.3206 31.8341C48.1665 33.857 46.9801 35.8582 45.8109 37.8703C45.6963 38.0756 45.6056 38.2701 45.5191 38.4343V38.4235ZM56.0656 29.9949C54.8813 29.9949 53.6884 30.0122 52.5148 29.9949C51.7174 29.9798 51.5466 30.237 51.9637 30.9394C53.1697 32.9723 54.3583 35.0154 55.5297 37.0685C55.9619 37.8141 56.2385 37.6887 56.6103 37.0296C57.7816 34.9764 58.9717 32.9341 60.1805 30.9026C60.6279 30.1527 60.3642 29.9776 59.6121 29.9928C58.4343 30.0166 57.25 29.9993 56.0656 29.9993V29.9949ZM43.7145 29.9949C42.4567 29.9949 41.1989 30.0079 39.9411 29.9949C39.2798 29.9949 39.1934 30.2219 39.5089 30.7578C40.7451 32.8614 41.9697 34.97 43.1829 37.0836C43.5438 37.7125 43.8183 37.7773 44.2051 37.1009C45.4154 34.9829 46.64 32.8751 47.8791 30.7773C48.2703 30.1138 47.998 29.9841 47.3669 29.9928C46.1567 30.0122 44.9356 29.9993 43.7253 29.9993L43.7145 29.9949ZM18.5282 10.9204C18.5282 12.1004 18.5455 13.2804 18.5282 14.4604C18.5109 15.2709 18.794 15.407 19.4813 15.0072C21.5243 13.8186 23.576 12.645 25.6363 11.4866C26.2371 11.1473 26.397 10.8621 25.6947 10.4644C23.5767 9.26063 21.4588 8.05686 19.3559 6.82715C18.6211 6.39492 18.5109 6.72341 18.5217 7.38041C18.5412 8.56041 18.5282 9.74041 18.5282 10.9204ZM18.5282 23.09C18.5282 24.3046 18.5282 25.5213 18.5282 26.7359C18.5282 27.4167 18.7011 27.7041 19.3927 27.2978C21.4998 26.0767 23.6156 24.8708 25.7314 23.6627C26.2414 23.3709 26.3473 23.0813 25.7681 22.7507C23.594 21.5102 21.4184 20.2661 19.2414 19.0183C18.7335 18.7266 18.5239 18.8649 18.5282 19.4376C18.5368 20.6587 18.5304 21.8732 18.5282 23.09ZM18.5282 35.3784C18.5282 36.6348 18.5282 37.8897 18.5282 39.1432C18.5282 39.6748 18.7249 39.9082 19.25 39.61C21.4357 38.368 23.6192 37.1218 25.8006 35.8712C26.3128 35.5773 26.2566 35.2941 25.7768 35.0218C23.594 33.7741 21.4112 32.5271 19.2284 31.2808C18.6968 30.9761 18.5217 31.1749 18.526 31.7131C18.5347 32.9406 18.5304 34.1595 18.5325 35.3784H18.5282ZM37.6546 19.4268C36.4011 19.4268 35.1455 19.4268 33.8898 19.4268C33.1875 19.4268 33.0729 19.6948 33.4144 20.2761C34.629 22.3444 35.8457 24.4126 37.0279 26.4982C37.4147 27.1789 37.6762 27.1227 38.0328 26.4982C39.2229 24.4177 40.4288 22.3444 41.6506 20.2783C42.0828 19.5478 41.7565 19.4138 41.0973 19.4311C39.9541 19.4354 38.8065 19.4246 37.6589 19.4268H37.6546ZM62.2228 19.4268C61.0407 19.4268 59.8585 19.4268 58.6785 19.4268C57.9394 19.4268 57.7816 19.7142 58.1533 20.3475C59.3658 22.4135 60.5782 24.4796 61.7647 26.5608C62.1429 27.2092 62.3914 27.0795 62.7091 26.5263C63.9035 24.4486 65.1073 22.3782 66.3204 20.315C66.7224 19.6299 66.4566 19.4203 65.7693 19.4246C64.5915 19.4333 63.4093 19.4268 62.2271 19.429L62.2228 19.4268ZM81.6172 29.459C81.6172 28.279 81.5999 27.099 81.6172 25.919C81.6345 25.1237 81.4292 24.8384 80.636 25.3009C78.629 26.4765 76.6119 27.6349 74.5847 28.776C73.9558 29.1305 73.7505 29.4028 74.535 29.8415C76.6271 31.0129 78.7068 32.208 80.7743 33.4269C81.4897 33.8462 81.6388 33.5674 81.6215 32.8888C81.6086 31.7477 81.6215 30.6044 81.6215 29.4611L81.6172 29.459ZM56.044 28.1817C57.2997 28.1817 58.5532 28.1817 59.8066 28.1817C60.3772 28.1817 60.5155 27.9526 60.2237 27.4577C58.9616 25.2965 57.6952 23.1354 56.446 20.9742C56.1391 20.4425 55.9122 20.5031 55.6334 20.9872C54.4145 23.0907 53.1898 25.1914 51.9594 27.2891C51.5769 27.9375 51.7779 28.1968 52.4997 28.1904C53.684 28.1774 54.8662 28.1839 56.044 28.1817ZM72.8234 10.9074C72.8234 12.0529 72.8385 13.1983 72.8234 14.3437C72.8104 15.1304 73.0136 15.4394 73.8154 14.9705C75.8577 13.7732 77.9216 12.5932 79.9725 11.4305C80.5388 11.1106 80.662 10.8599 80.005 10.4903C77.9101 9.31322 75.8209 8.12097 73.7376 6.9136C73.0568 6.5181 72.8255 6.78609 72.8255 7.46902C72.8277 8.61444 72.8255 9.75986 72.8255 10.9074H72.8234ZM72.8234 23.2607C72.8234 24.4083 72.8234 25.5537 72.8234 26.6991C72.8234 27.3475 72.9768 27.6933 73.6987 27.274C75.808 26.0465 77.923 24.8312 80.0439 23.6281C80.6598 23.278 80.5107 23.036 80.0093 22.7485C77.9187 21.5584 75.8332 20.3633 73.7527 19.1631C73.0892 18.7806 72.8277 19.0205 72.8277 19.7164L72.8234 23.2607ZM43.6259 28.1796C44.8124 28.1796 46.0032 28.1796 47.1811 28.1796C47.9267 28.1796 48.1946 27.9634 47.7624 27.22C46.5449 25.1582 45.3433 23.0842 44.1576 20.998C43.8809 20.5182 43.6475 20.4274 43.3385 20.9591C42.098 23.0986 40.8553 25.2368 39.6105 27.3734C39.2863 27.9289 39.4851 28.1752 40.0859 28.1796C41.2616 28.1839 42.4459 28.1796 43.6302 28.1796H43.6259ZM72.8018 35.5081C72.8018 36.6903 72.8018 37.8724 72.8018 39.0524C72.8018 39.7418 73.0762 39.865 73.6662 39.5236C75.777 38.3018 77.8935 37.0908 80.0158 35.8906C80.5993 35.5621 80.5431 35.3201 80.005 35.0262C77.9158 33.839 75.831 32.6438 73.7505 31.4408C73.113 31.0712 72.8104 31.2592 72.8083 31.9746C72.8083 33.1459 72.8104 34.3259 72.8083 35.5081H72.8018Z" fill="#E60040"/>
</svg>
