<svg width="130" height="32" viewBox="0 0 130 32" fill="none" xmlns="http://www.w3.org/2000/svg">
<path d="M4.86085 7.1863C6.10335 7.16398 7.60625 7.63271 8.62555 8.88265C9.08684 9.32906 9.93501 11.4718 9.93501 11.4718L15.0092 24.9384C15.6639 26.553 17.6207 26.6794 18.201 25.0575L19.7783 20.8092L22.4642 27.8847C21.1547 30.273 19.8899 30.8533 18.3944 31.4039C16.646 31.9471 14.5553 31.7685 13.0524 30.8385C12.5539 30.5185 11.2445 29.6704 10.3665 27.5202L5.02453 12.5953V26.181L7.02592 20.4372L9.59277 27.602C9.22076 29.2463 8.03034 30.6227 6.64648 31.27C5.13613 31.9842 3.32818 31.7313 1.9592 30.8682C0.597653 29.8564 0.210766 28.666 0.151245 26.5381L0.166125 11.8364C0.322368 9.38858 1.88479 8.0568 3.26122 7.46159C3.87131 7.26071 4.13915 7.20118 4.86085 7.1863Z" fill="black"/>
<path d="M28.2229 31.6945C26.9804 31.7168 25.4774 31.2481 24.4581 29.9981C23.9969 29.5517 23.1487 27.409 23.1487 27.409L18.082 13.9423C17.4272 12.3204 15.4705 12.2013 14.8901 13.8233L13.3128 18.0716L10.627 10.996C11.9364 8.61521 13.2012 8.02744 14.6967 7.47687C16.4451 6.93374 18.5358 7.1123 20.0387 8.04232C20.5372 8.36224 21.8467 9.21786 22.7246 11.3606L28.0666 26.2781V12.685L26.0727 18.4287L23.5058 11.2639C23.8778 9.61218 25.0682 8.2432 26.4521 7.59591C27.9624 6.88166 29.7704 7.13462 31.1394 7.99768C32.5009 9.00953 32.8878 10.2 32.9473 12.3204L32.925 27.0221C32.7688 29.4699 31.2063 30.8017 29.8299 31.3969C29.2124 31.6201 28.9445 31.6796 28.2229 31.6945Z" fill="black"/>
<path d="M91.6573 24.5529C90.3032 26.212 88.2423 27.2685 85.9284 27.2685C81.8438 27.2685 78.533 23.9577 78.533 19.873C78.533 15.7884 81.8438 12.4776 85.9284 12.4776C89.9907 12.4776 93.2867 15.7512 93.3239 19.7986H98.0707C98.0186 13.1472 92.6171 7.77539 85.9582 7.77539C79.2695 7.77539 73.8457 13.1992 73.8457 19.8879C73.8457 26.5766 79.2695 32.0004 85.9582 32.0004C90.9952 32.0004 95.3179 28.9277 97.1407 24.5454H91.6573V24.5529Z" fill="#00BFBD"/>
<path d="M93.19 19.9018L83.6741 14.2324V25.5637L93.19 19.9018Z" fill="black"/>
<path d="M72.7222 8.65234H67.3727V31.2926H72.7222V8.65234Z" fill="#00BFBD"/>
<path d="M66.3088 8.65234H60.5502L55.1858 23.1085L49.762 8.65234H43.914L52.9166 31.2926H57.3063L66.3088 8.65234Z" fill="#00BFBD"/>
<path d="M42.8873 8.65234H37.5378V31.2926H42.8873V8.65234Z" fill="#00BFBD"/>
<path d="M40.1419 6.59195C41.9622 6.59195 43.4379 5.11629 43.4379 3.29598C43.4379 1.47566 41.9622 0 40.1419 0C38.3216 0 36.8459 1.47566 36.8459 3.29598C36.8459 5.11629 38.3216 6.59195 40.1419 6.59195Z" fill="#00BFBD"/>
<path d="M129.297 8.65234L121.217 31.2926H116.797L112.631 17.5582L108.539 31.2926H104.105L96.0693 8.65234H101.82L106.344 23.235L110.377 8.65234H115.012L119.03 23.1383L123.494 8.65234H129.297Z" fill="#00BFBD"/>
</svg>
