<svg width="102" height="50" viewBox="0 0 102 50" fill="none" xmlns="http://www.w3.org/2000/svg">
<path d="M10.6673 3.29492H4.30917V10.5807H10.6673V3.29492Z" fill="white"/>
<path d="M12.3128 48.1789C12.719 47.6135 13.1422 47.0549 13.5316 46.4861C17.565 40.5072 21.5915 34.5282 25.6114 28.5493C25.8179 28.2446 26.2343 27.9297 26.0752 27.5708C25.8687 27.107 25.3236 27.3338 24.9309 27.3305C21.8838 27.3305 18.8368 27.2898 15.8067 27.3305C14.6928 27.3305 14.1884 27.0257 14.2426 25.8239C14.3238 24.0193 14.2832 22.2047 14.2595 20.4069C14.2595 19.6147 14.571 19.2287 15.3767 19.2524C15.7999 19.2524 16.2231 19.2524 16.6429 19.2524C31.1333 19.2524 45.6224 19.2524 60.1105 19.2524C66.3197 19.2524 72.5288 19.2524 78.7312 19.178C79.1881 19.1366 79.6465 19.2382 80.0432 19.4687C80.4398 19.6991 80.7551 20.0471 80.9454 20.4645C82.3335 22.9698 83.7859 25.4379 85.218 27.9128C85.8951 29.0706 85.9595 29.0808 86.6129 27.9636C88.1228 25.3804 89.6362 22.8005 91.1022 20.1936C91.2485 19.8693 91.491 19.5979 91.7969 19.4162C92.1028 19.2345 92.4571 19.1513 92.8119 19.178C95.5204 19.2084 98.2288 19.178 100.937 19.178C101.276 19.178 101.77 19.0121 101.953 19.442C102.136 19.872 101.74 20.1361 101.543 20.4577C98.2051 25.6749 94.8737 30.8955 91.505 36.0923C90.9059 36.9587 90.5944 37.9915 90.6146 39.0446C90.662 41.9054 90.5943 44.7696 90.6485 47.6338C90.6485 48.7172 90.3099 49.1404 89.1893 49.1099C86.9097 49.0467 84.6289 49.0467 82.347 49.1099C81.2129 49.1404 80.8878 48.6833 80.9082 47.6169C80.9556 44.6714 80.9082 41.7226 80.9285 38.7771C80.9638 38.0629 80.782 37.3547 80.4071 36.7458C77.3804 32.1301 74.3717 27.5031 71.3811 22.8649C70.809 21.9745 70.5313 21.9778 69.9422 22.8649C66.1368 28.5831 62.2807 34.2675 58.4482 39.9688C58.245 40.2735 57.8252 40.585 57.9945 40.9507C58.2078 41.4077 58.7461 41.1978 59.1422 41.2012C62.6463 41.2012 66.1538 41.2384 69.6579 41.2012C70.748 41.2012 71.1814 41.5398 71.1374 42.6536C71.0696 44.3464 71.0663 46.0223 71.1374 47.7049C71.1848 48.8425 70.704 49.2386 69.6409 49.1201C69.4301 49.1082 69.2187 49.1082 69.0078 49.1201H3.74047C1.62448 49.1201 1.62448 49.1201 1.62109 47.0718C1.62109 38.4431 1.62109 29.8121 1.62109 21.1788C1.62109 19.3337 1.67526 19.2829 3.55765 19.2795C5.83502 19.2795 8.11578 19.2795 10.3999 19.2795C11.9776 19.2795 12.0487 19.3506 12.0487 20.9114C12.0487 29.5424 12.0487 38.1734 12.0487 46.8043V48.1383L12.3128 48.1789ZM42.6578 21.7408L42.3869 21.6901C42.2414 21.8898 42.0856 22.0862 41.9468 22.2927C37.9902 28.161 34.0403 34.0294 30.0973 39.8977C29.8772 40.2363 29.3829 40.5749 29.6504 40.9845C29.9178 41.3942 30.4291 41.1707 30.8353 41.1707C34.3428 41.1707 37.8469 41.2046 41.3543 41.1707C42.3937 41.1707 42.8237 41.5296 42.7492 42.569C42.695 43.307 42.7492 44.0519 42.7492 44.7933L43.0878 44.9931C43.1248 44.8283 43.1829 44.669 43.2604 44.5191C46.9078 39.1021 50.5609 33.6852 54.2196 28.2683C54.7917 27.4219 54.4295 27.3034 53.6339 27.3068C50.4243 27.3068 47.2013 27.3068 44.0053 27.3068C43.0404 27.3068 42.6239 26.9682 42.651 25.9796C42.695 24.5814 42.6578 23.1594 42.6578 21.7408Z" fill="#448EE4"/>
<path d="M13.3284 6.70005C13.3284 10.4242 10.6437 13.2038 7.07188 13.2105C3.50009 13.2173 0.828857 10.4851 0.828857 6.82532C0.828857 3.1655 3.4967 0.507812 7.11589 0.507812C10.7351 0.507812 13.3284 3.07409 13.3284 6.70005ZM5.48742 4.30306C5.35418 4.31006 5.22915 4.36957 5.13968 4.46856C5.05021 4.56754 5.0036 4.69794 5.01006 4.83121C5.01006 6.25654 4.97959 7.68187 5.01006 9.1072C5.01006 9.73692 5.44341 9.74708 5.89031 9.49316C6.80442 8.97178 7.70837 8.43347 8.59878 7.89855C10.1528 6.98105 10.1528 6.93704 8.64618 6.06356C7.84718 5.59973 7.04818 5.12914 6.2458 4.67547C6.00881 4.52989 5.73457 4.42155 5.48742 4.30306Z" fill="#448EE4"/>
</svg>
