<svg width="125" height="31" viewBox="0 0 125 31" fill="none" xmlns="http://www.w3.org/2000/svg">
<path d="M0 0H125V30.0556H0V17.3853C1.37682 20.39 3.50677 23.0507 6.1527 25.0347C9.85232 27.8327 14.5743 29.2321 19.2008 28.9168C21.8806 28.7639 24.5266 28.0446 26.9154 26.8207C29.3658 25.5646 31.5436 23.7804 33.2522 21.6209C36.3212 17.7892 37.8717 12.7945 37.5773 7.89957C37.4539 6.45065 37.1985 5.01216 36.7972 3.61362C36.5557 2.791 36.2752 1.97446 35.8643 1.21873C32.8474 1.8459 29.7958 2.31063 26.7234 2.5582C26.3342 4.30159 25.3718 5.91817 23.9906 7.05698C22.559 8.2618 20.7722 8.98453 18.9463 9.33112C18.6848 11.3951 18.4129 13.4625 17.9691 15.4969C20.0113 15.311 22.0378 14.8706 23.9472 14.1148C23.4572 15.5568 22.6746 16.8884 21.7312 18.0794C21.1831 18.7465 20.5689 19.3659 19.8662 19.8714C17.7128 21.5523 14.9878 22.5208 12.2489 22.4652C10.4916 22.4869 8.74304 22.0709 7.14297 21.3551C4.74374 20.2753 2.72845 18.3791 1.4828 16.0632C0.608929 14.4744 0.132036 12.6876 0 10.8843V0ZM44.9965 2.74583C44.9965 10.9755 44.9956 19.2052 44.9973 27.4348C70.7782 27.4348 96.5591 27.4348 122.34 27.4348C122.342 19.2052 122.342 10.9764 122.34 2.7467C96.5591 2.74409 70.7782 2.74583 44.9965 2.74583Z" fill="#D6153E"/>
<path d="M75.4113 7.83355C76.6952 7.71281 78.0217 7.84397 79.2152 8.35387C80.771 8.99147 82.047 10.2588 82.702 11.8068C83.3083 13.168 83.4334 14.6951 83.2875 16.1648C83.1198 17.6242 82.5508 19.0566 81.5649 20.1572C80.5138 21.3403 79.0128 22.0917 77.451 22.3019C76.0177 22.4852 74.5158 22.3575 73.1928 21.7468C71.895 21.1735 70.7988 20.1598 70.1325 18.9063C69.3151 17.3897 69.078 15.6028 69.2995 13.9063C69.4793 12.4652 70.0656 11.0597 71.042 9.97566C72.16 8.74216 73.7626 7.99773 75.4113 7.83355ZM75.6963 11.3447C74.9848 11.4932 74.3768 11.9953 74.0528 12.6398C73.529 13.571 73.469 14.6794 73.542 15.7218C73.615 16.7434 73.9911 17.824 74.8415 18.4529C75.4504 18.8681 76.2505 19.0236 76.961 18.8064C77.6811 18.637 78.2614 18.0837 78.5767 17.4287C79.0771 16.4802 79.0875 15.3718 79.0189 14.3285C78.9242 13.2948 78.502 12.1916 77.5839 11.6244C77.0184 11.3056 76.3295 11.177 75.6963 11.3447Z" fill="#D6153E"/>
<path d="M54.363 8.13418C56.8595 8.13418 59.356 8.13331 61.8526 8.13418C63.3875 8.17935 64.9571 8.75353 65.9987 9.91319C67.0298 11.0477 67.5119 12.5748 67.6526 14.0767C67.7768 15.5907 67.6526 17.163 67.0315 18.565C66.552 19.6561 65.7111 20.5873 64.6592 21.1501C63.384 21.859 61.8986 22.0466 60.4618 22.0648C58.4292 22.0622 56.3965 22.0657 54.3639 22.0631C54.3621 17.4201 54.3639 12.7772 54.363 8.13418ZM58.6655 18.4868C59.6879 18.4469 60.765 18.6276 61.7344 18.2184C62.4598 17.9231 62.9705 17.2499 63.1894 16.5132C63.4578 15.5968 63.4874 14.5935 63.1877 13.6814C62.9419 12.9422 62.3937 12.2994 61.6675 11.9988C60.7233 11.581 59.6696 11.7157 58.6681 11.6931C58.6628 13.9577 58.6672 16.2222 58.6655 18.4868Z" fill="#D6153E"/>
<path d="M85.3742 8.13395C86.8022 8.13308 88.2312 8.13395 89.6601 8.13395C89.661 9.74097 89.6584 11.348 89.6618 12.9541C90.9448 11.3515 92.2279 9.74879 93.5004 8.13656C95.2725 8.12787 97.0454 8.1383 98.8184 8.13135C97.1219 9.93294 95.4532 11.7606 93.7602 13.5648C95.7199 16.3958 97.6813 19.2258 99.6366 22.0603C97.8507 22.0655 96.0639 22.0681 94.277 22.0585C93.146 20.2535 92.0003 18.4571 90.8606 16.6564C90.4315 17.0559 90.0649 17.5172 89.6618 17.942C89.6566 19.3162 89.6618 20.6895 89.6592 22.0629C88.2312 22.0638 86.8031 22.0638 85.375 22.0629C85.3733 17.4199 85.375 12.7769 85.3742 8.13395Z" fill="#D6153E"/>
<path d="M100.277 17.0299C100.278 14.0634 100.277 11.0978 100.278 8.13135C101.702 8.13482 103.127 8.13482 104.552 8.13135C104.552 10.3716 104.552 12.6119 104.552 14.8522C104.556 15.4333 104.533 16.0144 104.586 16.5938C104.587 17.2349 104.724 17.9376 105.198 18.4032C105.69 18.9079 106.459 18.9652 107.118 18.8714C107.746 18.7924 108.259 18.3025 108.459 17.7161C108.719 17.0221 108.632 16.2707 108.669 15.5462C108.67 13.0757 108.668 10.6044 108.669 8.13395C110.099 8.13308 111.528 8.13482 112.958 8.13308C112.956 10.6913 112.958 13.2486 112.957 15.8068C112.95 16.5573 112.993 17.3148 112.858 18.0575C112.698 19.1303 112.258 20.2005 111.442 20.9397C110.464 21.857 109.101 22.201 107.801 22.3313C106.384 22.4303 104.925 22.4008 103.565 21.95C102.585 21.6407 101.688 21.0231 101.126 20.1544C100.533 19.2293 100.297 18.1166 100.277 17.0299Z" fill="#D6153E"/>
<path d="M26.7234 2.55822C29.7958 2.31065 32.8474 1.84592 35.8643 1.21875C36.2751 1.97448 36.5557 2.79102 36.7972 3.61364C37.1985 5.01218 37.4539 6.45068 37.5773 7.8996C37.8717 12.7945 36.3212 17.7893 33.2522 21.6209C31.5436 23.7804 29.3658 25.5646 26.9154 26.8207C24.5266 28.0446 21.8806 28.7639 19.2008 28.9168C14.5743 29.2321 9.85232 27.8327 6.1527 25.0347C3.50677 23.0507 1.37682 20.39 0 17.3853V10.8843C0.132036 12.6876 0.608929 14.4745 1.4828 16.0632C2.72845 18.3791 4.74374 20.2754 7.14297 21.3551C8.74304 22.0709 10.4916 22.487 12.2489 22.4653C14.9878 22.5208 17.7128 21.5523 19.8662 19.8714C20.5689 19.3659 21.1831 18.7465 21.7312 18.0794C22.6746 16.8885 23.4572 15.5568 23.9472 14.1148C22.0378 14.8706 20.0113 15.311 17.9691 15.4969C18.4129 13.4625 18.6848 11.3951 18.9463 9.33115C20.7722 8.98455 22.559 8.26183 23.9906 7.057C25.3718 5.91819 26.3342 4.30162 26.7234 2.55822Z" fill="white"/>
<path d="M44.9962 2.74617C70.778 2.74617 96.5589 2.74444 122.34 2.74704C122.342 10.9767 122.342 19.2055 122.34 27.4352C96.5589 27.4352 70.778 27.4352 44.9971 27.4352C44.9954 19.2055 44.9962 10.9758 44.9962 2.74617ZM75.4114 7.8339C73.7627 7.99808 72.1601 8.74252 71.0421 9.97601C70.0657 11.0601 69.4794 12.4656 69.2996 13.9067C69.0781 15.6032 69.3152 17.39 70.1326 18.9067C70.7989 20.1602 71.8951 21.1739 73.1929 21.7472C74.5158 22.3579 76.0178 22.4856 77.451 22.3023C79.0129 22.0921 80.5139 21.3407 81.565 20.1576C82.5509 19.057 83.1199 17.6245 83.2876 16.1652C83.4335 14.6954 83.3084 13.1683 82.7021 11.8071C82.0471 10.2592 80.7711 8.99182 79.2153 8.35423C78.0218 7.84433 76.6953 7.71316 75.4114 7.8339ZM54.363 8.13446C54.3639 12.7774 54.3621 17.4204 54.3639 22.0634C56.3965 22.066 58.4292 22.0625 60.4618 22.0651C61.8986 22.0469 63.384 21.8593 64.6592 21.1504C65.7111 20.5875 66.552 19.6563 67.0315 18.5653C67.6526 17.1633 67.7768 15.591 67.6526 14.0769C67.5119 12.575 67.0298 11.0479 65.9987 9.91347C64.9571 8.75381 63.3875 8.17963 61.8526 8.13446C59.356 8.13359 56.8595 8.13446 54.363 8.13446ZM85.3741 8.13446C85.3749 12.7774 85.3732 17.4204 85.3749 22.0634C86.803 22.0643 88.2311 22.0643 89.6592 22.0634C89.6618 20.69 89.6566 19.3167 89.6618 17.9425C90.0648 17.5177 90.4314 17.0564 90.8605 16.6569C92.0002 18.4576 93.146 20.254 94.2769 22.059C96.0638 22.0686 97.8506 22.066 99.6366 22.0608C97.6812 19.2263 95.7198 16.3963 93.7601 13.5653C95.4531 11.7611 97.1218 9.93345 98.8183 8.13185C97.0454 8.1388 95.2724 8.12838 93.5004 8.13706C92.2278 9.74929 90.9448 11.352 89.6618 12.9546C89.6583 11.3485 89.6609 9.74147 89.66 8.13446C88.2311 8.13446 86.8021 8.13359 85.3741 8.13446ZM100.277 17.0304C100.297 18.1171 100.533 19.2298 101.126 20.1549C101.687 21.0236 102.585 21.6412 103.565 21.9505C104.925 22.4013 106.383 22.4308 107.801 22.3318C109.101 22.2015 110.464 21.8575 111.442 20.9402C112.258 20.201 112.698 19.1308 112.858 18.058C112.993 17.3153 112.95 16.5578 112.957 15.8073C112.957 13.2491 112.956 10.6918 112.957 8.13359C111.528 8.13533 110.099 8.13359 108.669 8.13446C108.668 10.6049 108.67 13.0763 108.669 15.5467C108.632 16.2712 108.719 17.0226 108.459 17.7166C108.259 18.303 107.746 18.7929 107.118 18.8719C106.459 18.9658 105.689 18.9084 105.198 18.4037C104.724 17.9381 104.587 17.2354 104.586 16.5943C104.533 16.0149 104.556 15.4338 104.552 14.8527C104.551 12.6124 104.552 10.3721 104.551 8.13185C103.127 8.13533 101.702 8.13533 100.278 8.13185C100.277 11.0983 100.278 14.0639 100.277 17.0304Z" fill="white"/>
<path d="M75.6965 11.3448C76.3297 11.1771 77.0186 11.3057 77.5841 11.6245C78.5022 12.1917 78.9244 13.2949 79.0191 14.3286C79.0877 15.3719 79.0773 16.4803 78.5769 17.4288C78.2616 18.0838 77.6814 18.6371 76.9612 18.8065C76.2507 19.0237 75.4506 18.8682 74.8417 18.453C73.9913 17.8241 73.6152 16.7435 73.5422 15.7219C73.4692 14.6795 73.5292 13.5711 74.053 12.6399C74.377 11.9954 74.985 11.4933 75.6965 11.3448Z" fill="white"/>
<path d="M58.6655 18.4866C58.6673 16.222 58.6629 13.9574 58.6681 11.6928C59.6697 11.7154 60.7234 11.5808 61.6676 11.9986C62.3938 12.2992 62.9419 12.942 63.1878 13.6812C63.4874 14.5933 63.4579 15.5966 63.1895 16.513C62.9706 17.2497 62.4598 17.9229 61.7345 18.2182C60.7651 18.6273 59.6879 18.4467 58.6655 18.4866Z" fill="white"/>
</svg>
