<svg width="108" height="38" viewBox="0 0 108 38" fill="none" xmlns="http://www.w3.org/2000/svg">
<path d="M0.598906 7.29688L0.400223 30.0733H5.277L5.29507 7.31494L0.598906 7.29688Z" fill="#2449A4"/>
<path d="M5.24095 18.3534L14.0553 30.1479L20.4674 30.1841L11.0389 18.4617L20.2145 7.29931L14.0733 7.28125L5.24095 18.3534Z" fill="#2449A4"/>
<path d="M40.2274 17.9731C40.2274 17.9731 42.5032 16.4378 42.5032 13.4575V13.006C42.0697 7.74988 36.7414 7.28026 36.7414 7.28026L23.0864 7.24414L22.9961 30.165L37.4458 30.2553C37.4458 30.2553 42.9547 30.0928 43.623 23.6807V23.2291C43.6592 20.2489 40.2274 17.9731 40.2274 17.9731ZM27.6922 10.8927C27.6922 10.8927 32.3884 10.694 34.9171 10.9649C37.4458 11.2539 37.4458 13.602 37.4458 13.602C36.8859 16.492 34.899 16.203 34.899 16.203L27.6561 16.1849L27.6922 10.8927ZM35.2241 26.5345L27.638 26.4984L27.6742 19.9057L35.17 19.9238C35.17 19.9238 38.5115 20.1225 38.3128 23.3736C38.1321 26.2636 35.2241 26.5345 35.2241 26.5345Z" fill="#2449A4"/>
<path d="M64.6113 7.44383L51.3175 7.35352C51.3175 7.35352 44.9958 7.76895 45.0499 13.9101C45.1041 20.0512 52.0761 19.9067 52.3471 20.1054L56.5917 20.0332C56.5917 20.0332 60.0235 19.9609 60.6556 22.5077C61.2698 25.0364 58.8314 26.391 58.8314 26.391L57.7476 26.6439L46.0795 26.5897L46.0614 30.1118L59.6261 30.1841C59.6261 30.1841 65.406 30.0215 66.2549 24.2416C67.1038 18.4617 61.2336 16.6375 61.2336 16.6375L58.6146 16.4568L52.8347 16.3846C52.8347 16.3846 50.3963 15.9511 50.5047 13.603C50.6131 11.2549 53.3224 11.0021 53.3224 11.0021H64.6293L64.6113 7.44383Z" fill="#2449A4"/>
<path d="M107.716 18.5557C107.687 18.5581 107.663 18.5362 107.643 18.4998C107.636 18.4707 107.629 18.4416 107.619 18.41C107.134 16.4774 106.126 14.7876 104.72 13.3939C100.692 9.39276 93.4014 7.79277 85.7049 9.65983C85.1198 9.80551 84.5468 9.96818 83.9835 10.1478C82.7696 10.5363 81.6042 11.0025 80.5043 11.5342C80.7398 11.9712 81.019 12.3815 81.3347 12.7554C83.6193 11.675 86.2026 10.8932 88.9 10.5339C90.704 10.2959 92.4739 10.2644 94.1637 10.4198C98.7258 10.8422 102.695 12.6267 105.116 15.3193C106.667 17.0455 107.588 19.1481 107.614 21.508V21.7047C107.612 21.7605 107.612 21.8212 107.612 21.877C107.6 21.962 107.541 21.9766 107.493 21.9717C107.461 21.9693 107.423 21.9474 107.413 21.9207C107.406 21.86 107.398 21.8042 107.391 21.7435C107.136 19.8716 106.379 18.1939 105.223 16.7639C103.698 14.8774 101.481 13.4328 98.7962 12.5539C95.601 11.5099 91.7455 11.272 87.6302 12.0707C85.7316 12.4252 83.9155 12.9715 82.2403 13.6707C82.6846 14.0543 83.1775 14.3845 83.7019 14.6637C85.5956 13.8261 87.7516 13.241 90.0848 13.0031C94.7221 12.532 99.0705 13.5056 102.186 15.4528C103.387 16.2006 104.402 17.0965 105.184 18.1114C106.25 19.5026 106.867 21.1122 106.893 22.8676C106.91 23.8534 106.745 24.8148 106.417 25.7325C106.405 25.7665 106.393 25.7957 106.381 25.8272C106.354 25.8661 106.325 25.8904 106.296 25.8831C106.264 25.8734 106.25 25.8297 106.25 25.7787C106.255 25.7471 106.264 25.7107 106.272 25.6816C106.434 24.9435 106.488 24.186 106.425 23.4163C106.308 21.9911 105.801 20.6801 104.99 19.5171C104.82 19.2719 104.63 19.0291 104.429 18.7985C101.435 15.3144 95.5015 13.4886 89.2594 14.654C88.077 14.8434 86.9504 15.1178 85.8797 15.4649C86.8557 15.6762 87.89 15.7272 88.9437 15.5912C88.9437 15.5912 90.6408 15.3678 91.3474 15.2173C91.4833 15.1954 91.7018 15.1639 91.8014 15.159L91.8548 15.1542C92.8599 15.0571 95.9604 14.8847 99.2065 16.0549C99.2065 16.0549 102.848 17.2883 104.439 20.0513C104.439 20.0513 104.798 20.5611 104.276 21.2676C103.795 21.8916 103.264 22.4767 102.686 23.0279C102.122 23.5402 101.149 24.2297 101.149 24.2297C100.265 24.8269 99.3182 25.3756 98.3227 25.8685L98.3179 25.8564C98.2426 25.8904 98.1673 25.9244 98.0945 25.9608C98.0945 25.9656 98.0994 25.9705 98.1042 25.9778C98.1431 26.0433 98.1746 26.1113 98.2135 26.1841C98.3324 26.4221 98.4368 26.6721 98.5315 26.9246C96.8587 27.7259 95.0451 28.3814 93.1246 28.8524C85.6661 30.717 78.6057 29.4157 74.471 25.7714C72.5262 24.0573 71.2273 21.8212 70.8413 19.1554C70.834 19.1117 70.8291 19.0655 70.8243 19.0218C70.8194 18.9563 70.851 18.9417 70.8825 18.9393C70.9092 18.9344 70.9384 18.9587 70.9529 18.9951C70.9627 19.0267 70.9699 19.0558 70.9797 19.085C71.4652 21.02 72.4728 22.7074 73.881 24.101C77.9089 28.1022 85.1999 29.7022 92.8964 27.8375C93.4815 27.6919 94.0496 27.5268 94.6153 27.3471C95.8293 26.9586 96.9947 26.4925 98.0945 25.9608C97.8566 25.5237 97.5774 25.1159 97.2617 24.7371C94.9795 25.82 92.3962 26.6017 89.6964 26.9586C87.8949 27.2014 86.1249 27.2306 84.4351 27.0727C79.8706 26.6527 75.9034 24.8682 73.4828 22.1757C71.929 20.447 71.0136 18.3444 70.9845 15.9869V15.7927C70.9845 15.7344 70.9845 15.6762 70.9869 15.6179C70.9991 15.5329 71.0573 15.5184 71.1059 15.5232C71.1399 15.5256 71.1787 15.5451 71.186 15.5766C71.1933 15.6349 71.203 15.6883 71.2079 15.749C71.4604 17.6234 72.2203 19.3035 73.3736 20.7311C74.9007 22.6175 77.1198 24.0646 79.8051 24.9411C83.0002 25.9875 86.8509 26.223 90.9686 25.4242C92.8696 25.0697 94.6809 24.5235 96.3585 23.8242C95.9142 23.443 95.4238 23.108 94.8994 22.8312C93.0032 23.6688 90.8472 24.2564 88.5164 24.4919C83.8791 24.9653 79.5283 23.9893 76.4133 22.0446C75.2115 21.2943 74.1942 20.396 73.4173 19.3836C72.3514 17.9972 71.7323 16.3851 71.7056 14.6273C71.6886 13.644 71.8537 12.6801 72.179 11.7624C72.1936 11.7284 72.2057 11.6993 72.2179 11.6677C72.2422 11.6289 72.2713 11.6094 72.3029 11.6167C72.332 11.624 72.3514 11.6653 72.349 11.7211C72.3417 11.7503 72.332 11.7818 72.3271 11.8134C72.1645 12.5515 72.1086 13.309 72.1742 14.0786C72.2883 15.5038 72.7957 16.8173 73.6066 17.9754C73.779 18.223 73.9684 18.4658 74.1723 18.7013C77.1635 22.183 83.0998 24.0063 89.3419 22.8433C90.5194 22.654 91.6508 22.3772 92.7167 22.0324C91.7407 21.8188 90.7088 21.7678 89.6551 21.9037C89.6551 21.9037 87.9556 22.1295 87.2515 22.2776C87.1131 22.2995 86.8946 22.3335 86.795 22.3383L86.7465 22.3432C85.7389 22.4403 82.636 22.6103 79.3923 21.4424C79.3923 21.4424 75.7505 20.2091 74.1578 17.4437C74.1578 17.4437 73.8009 16.9363 74.3229 16.2249C74.8012 15.6058 75.3377 15.0206 75.9132 14.4695C76.4764 13.9572 77.4476 13.2653 77.4476 13.2653C78.3338 12.6704 79.2782 12.1242 80.2761 11.6264L80.2834 11.641C80.3538 11.607 80.4315 11.5706 80.5043 11.5342C80.5019 11.5293 80.497 11.5245 80.4946 11.5196C80.4582 11.4492 80.4218 11.3836 80.3854 11.3132C80.2688 11.0729 80.1596 10.8228 80.0673 10.5703C81.7401 9.77151 83.5513 9.11598 85.4742 8.64254C92.9328 6.77791 99.9931 8.08169 104.125 11.726C106.07 13.4425 107.372 15.6737 107.76 18.3396C107.765 18.3857 107.77 18.4294 107.775 18.4731C107.777 18.5387 107.745 18.5532 107.716 18.5557ZM98.9758 29.5881C97.2326 30.382 95.3583 31.0399 93.3916 31.5231C87.0354 33.0988 81.3347 32.3243 77.2267 29.9741C74.3812 28.345 72.298 25.9535 71.3123 23.0643C71.2977 23.0254 71.2807 22.9866 71.2686 22.9477V22.9332C71.2224 22.7899 71.2783 22.7365 71.3317 22.7317C71.3536 22.7268 71.3875 22.7438 71.4118 22.7729C71.4264 22.8094 71.4385 22.8433 71.4482 22.8725C72.349 25.0357 73.8737 26.8858 75.8816 28.3061C80.0673 31.2633 86.3483 32.3534 93.4062 30.5155C95.3437 29.9862 97.1913 29.2991 98.9151 28.4858C98.9248 28.5562 98.9346 28.629 98.9443 28.7019C98.971 29.0005 98.9807 29.2943 98.9758 29.5881ZM98.1795 32.7735C96.6596 33.4824 94.9625 34.036 93.0809 34.4002C90.2427 34.9707 87.4918 35.0605 84.9595 34.7255C79.3729 33.985 74.8352 31.1856 72.6865 26.9149C72.667 26.8834 72.6525 26.8445 72.6355 26.8081C72.6136 26.7571 72.6306 26.7183 72.6598 26.6989C72.6913 26.6794 72.7545 26.6964 72.7957 26.7474C72.82 26.7814 72.8394 26.8178 72.8637 26.8518C74.6167 29.6051 77.4185 31.6955 80.8564 32.907C84.3234 34.1307 88.4363 34.4609 92.7628 33.6742C94.9407 33.293 96.8757 32.6569 98.5777 31.8193C98.4635 32.1446 98.3324 32.4651 98.1795 32.7735ZM79.623 7.90689C81.3687 7.11296 83.243 6.45743 85.2072 5.97185C91.561 4.39371 97.2642 5.17064 101.372 7.51842C104.223 9.1524 106.298 11.539 107.287 14.4331C107.304 14.4719 107.318 14.5108 107.33 14.5521C107.33 14.5545 107.33 14.5593 107.333 14.5618C107.374 14.705 107.323 14.7609 107.27 14.7657C107.243 14.7681 107.209 14.7536 107.187 14.722C107.172 14.688 107.16 14.6565 107.148 14.6225C106.25 12.4592 104.725 10.6116 102.717 9.19368C98.5315 6.23163 92.2505 5.14393 85.1926 6.97943C83.2551 7.50871 81.4075 8.19581 79.6837 9.00915C79.6764 8.93632 79.6643 8.86591 79.657 8.79307C79.6279 8.49444 79.6181 8.20066 79.623 7.90689ZM80.4193 4.72148C81.9392 4.01496 83.6363 3.45897 85.518 3.09478C88.3562 2.52423 91.1046 2.43682 93.6393 2.77187C99.2235 3.50995 103.764 6.30932 105.91 10.58C105.929 10.614 105.946 10.6504 105.963 10.6893C105.985 10.7378 105.968 10.7742 105.941 10.7937C105.905 10.8155 105.844 10.8034 105.801 10.7475C105.779 10.7135 105.757 10.6771 105.74 10.6431C103.982 7.88989 101.178 5.79947 97.74 4.58794C94.273 3.36428 90.1625 3.03409 85.836 3.82315C83.6582 4.20433 81.7207 4.84045 80.0236 5.67564C80.1329 5.35273 80.264 5.03225 80.4193 4.72148ZM107.979 18.1769C107.959 17.4583 107.886 16.7299 107.772 15.9942C107.77 15.9845 107.77 15.9797 107.767 15.9724C107.646 15.1833 107.464 14.3942 107.228 13.6027C106.774 12.0707 106.116 10.5436 105.237 9.07228C102.761 4.90843 99.0778 2.0435 95.249 0.870823L95.2539 0.873253C95.2539 0.873253 86.511 -2.03538 81.7863 2.75973C81.7013 2.84956 81.6212 2.94183 81.5362 3.03651C78.4892 4.11936 75.8719 5.94271 73.9805 8.25165C72.5214 10.0362 71.4919 12.1144 71.0355 14.3627C70.9942 14.5521 70.8898 15.108 70.8825 15.1615C70.5305 17.2907 70.6155 19.0437 70.6155 19.0437H70.6179V19.2403C70.6567 20.7602 70.9044 22.3311 71.3681 23.8898C71.8246 25.4242 72.4825 26.9514 73.3614 28.4227C75.8379 32.5865 79.521 35.4514 83.3474 36.6241V36.6217C83.3474 36.6217 92.0879 39.5352 96.8101 34.7376C96.8951 34.6454 96.9777 34.5531 97.0602 34.4584C100.11 33.3756 102.727 31.5547 104.621 29.2433C105.492 28.175 106.211 27.0023 106.745 25.752C107.918 23.1007 108.068 20.1896 107.979 18.1769Z" fill="#2F97DA"/>
</svg>
