<svg width="155" height="58" viewBox="0 0 155 58" fill="none" xmlns="http://www.w3.org/2000/svg">
<path d="M37.82 16.21C37.82 16.21 35.36 16.26 34.37 17.67C33.38 19.07 30.77 23.46 30.77 23.46V16.21H25.82V30.75H27.92C27.92 30.75 30.25 30.77 31.35 29.29C32.45 27.81 34.98 23.48 34.98 23.48V30.75H39.93V16.21H37.82Z" fill="url(#paint0_linear)"/>
<path d="M50.51 16.1899V21.2899H46.27V16.1899H41.33V30.7399H46.27V25.6599H50.51V30.7399H55.44V16.1899H50.51Z" fill="url(#paint1_linear)"/>
<path d="M72.38 10.3799V30.7399H78.01V14.7299H83.65V30.7399H89.29V10.3799H72.38Z" fill="url(#paint2_linear)"/>
<path d="M21.19 10.3799C19.82 10.3799 18.82 11.0699 18.43 11.7899C18.04 12.5199 15.26 18.3599 15.26 18.3599H14.55V10.3799H8.89999V30.7499H14.55V22.7399H15.26C15.26 22.7399 18.27 28.5699 18.59 29.1899C18.92 29.8199 19.84 30.7499 21.21 30.7499H26.17L20.26 19.8999L25.77 10.3799H21.19Z" fill="url(#paint3_linear)"/>
<path d="M144.92 16.2002C143.61 16.2002 142.53 16.7602 142.05 17.6402C141.57 18.5202 139.86 22.0102 139.86 22.0102H139.37V16.2002H134.42V30.7502H139.37V24.9302H139.86C139.86 24.9302 141.51 28.3302 142.04 29.3002C142.56 30.2602 143.6 30.7602 144.9 30.7602H148.49L144.25 23.3002L148.51 16.2102H144.92V16.2002Z" fill="url(#paint4_linear)"/>
<path d="M60.38 23.5C60.38 21.48 61.96 19.84 63.91 19.84C65.86 19.84 67.44 21.48 67.44 23.5C67.44 25.52 65.82 27.12 63.87 27.12C61.92 27.12 60.38 25.53 60.38 23.5ZM56.15 23.48C56.15 27.9 59.62 31.48 63.91 31.48C68.19 31.48 71.67 27.9 71.67 23.48C71.67 19.06 68.19 15.48 63.91 15.48C59.62 15.47 56.15 19.06 56.15 23.48Z" fill="url(#paint5_linear)"/>
<path d="M121.04 23.48C121.04 27.9 124.5 31.48 128.77 31.48C130.34 31.48 131.8 31 133.02 30.17L133 25.02L130.85 26.47C130.27 26.92 129.54 27.18 128.76 27.18C126.82 27.18 125.25 25.55 125.25 23.54C125.25 21.53 126.82 19.9 128.76 19.9C129.57 19.9 130.3 20.18 130.9 20.65L133.02 21.99L133.03 16.76C131.82 15.94 130.32 15.46 128.76 15.46C124.5 15.47 121.04 19.06 121.04 23.48Z" fill="url(#paint6_linear)"/>
<path d="M94.23 23.5C94.23 21.48 95.81 19.84 97.76 19.84C99.71 19.84 101.29 21.48 101.29 23.5C101.29 25.52 99.67 27.12 97.72 27.12C95.77 27.12 94.23 25.53 94.23 23.5ZM90 23.48C90 27.9 93.47 31.48 97.76 31.48C102.05 31.48 105.52 27.9 105.52 23.48C105.52 19.06 102.05 15.48 97.76 15.48C93.47 15.47 90 19.06 90 23.48Z" fill="url(#paint7_linear)"/>
<path d="M118.21 16.21C118.21 16.21 115.75 16.26 114.76 17.67C113.77 19.07 111.16 23.46 111.16 23.46V16.21H106.21V30.75H108.31C108.31 30.75 110.65 30.77 111.74 29.29C112.84 27.81 115.37 23.48 115.37 23.48V30.75H120.32V16.21H118.21Z" fill="url(#paint8_linear)"/>
<path d="M15.24 37.2798H13.13V39.4698H11.01V37.2798H8.89999V43.8498H11.01V40.9098H13.13V43.8498H15.24V37.2798Z" fill="#C5C4C7"/>
<path d="M21.8 42.5101C21.62 42.5901 21.45 42.6301 21.28 42.6301C20.97 42.6301 20.74 42.5801 20.59 42.4601C20.43 42.3501 20.36 42.1501 20.36 41.8401C20.36 41.6301 20.41 41.4701 20.5 41.3501C20.59 41.2301 20.72 41.1301 20.89 41.0701C21.08 41.0001 21.28 40.9501 21.49 40.9201C21.69 40.9001 21.96 40.8601 22.28 40.8301V42.1601C22.14 42.3201 21.98 42.4401 21.8 42.5101ZM22.28 43.8501H24.42V39.6701C24.42 38.9201 24.18 38.0001 23.69 37.6301C23.2 37.2601 22.21 37.0801 21.14 37.0801C20.71 37.0801 20.25 37.1001 19.83 37.1701C19.4 37.2501 18.96 37.3401 18.77 37.4001V38.9901H18.94C19.23 38.8601 19.61 38.7501 19.92 38.6601C20.23 38.5801 20.56 38.5301 20.79 38.5301C21.29 38.5301 21.67 38.6001 21.92 38.7301C22.17 38.8701 22.3 39.1801 22.3 39.5301V39.5701C21.74 39.6101 21.22 39.6601 20.74 39.7301C20.26 39.8001 19.84 39.9201 19.49 40.0901C19.14 40.2601 18.88 40.4901 18.7 40.7801C18.52 41.0701 18.43 41.5401 18.43 42.0201C18.43 42.5901 18.61 43.0701 18.97 43.4501C19.33 43.8301 19.79 44.0201 20.33 44.0201C20.62 44.0201 20.85 44.0001 21.02 43.9501C21.18 43.9101 21.35 43.8401 21.52 43.7501C21.7 43.6601 21.84 43.5701 21.94 43.4801C22.04 43.3901 22.16 43.2901 22.29 43.1801V43.8501H22.28Z" fill="#C5C4C7"/>
<path d="M34.99 37.2799H32.91L30.76 40.9299V37.2799H28.65V43.8499H30.53L32.88 39.9699V43.8499H35L34.99 37.2799ZM32.48 35.1099C32.47 35.3999 32.42 35.4599 32.33 35.6099C32.23 35.7499 32.06 35.8199 31.82 35.8199C31.58 35.8199 31.41 35.7499 31.31 35.5999C31.21 35.4599 31.16 35.3999 31.16 35.1099H30.06C30.06 35.5799 30.14 35.7699 30.44 36.1999C30.73 36.6399 31.24 36.7599 31.83 36.7599C32.42 36.7599 32.86 36.5599 33.16 36.2699C33.45 35.9699 33.6 35.5899 33.6 35.1099H32.48Z" fill="#C5C4C7"/>
<path d="M45.58 42.3898H44.86V37.2998H39.94C39.94 38.2698 39.86 39.3498 39.69 40.2198C39.52 41.0798 39.3 41.7898 39.02 42.3898H38.53V44.5798H40.64V43.8198H43.45V44.5798H45.58V42.3898ZM40.83 42.3898C41.04 41.9498 41.22 41.4398 41.37 40.8398C41.52 40.2398 41.62 39.4398 41.69 38.7398H42.74V42.3998H40.83V42.3898Z" fill="#C5C4C7"/>
<path d="M55.45 37.2798H53.38L51.21 40.9298V37.2798H49.09V43.8498H50.92L53.29 39.9698V43.8498H55.45V37.2798Z" fill="#C5C4C7"/>
<path d="M67.54 43.8098C67.7 43.7798 67.87 43.7398 68.05 43.6898C68.2 43.6498 68.34 43.5998 68.48 43.5398C68.62 43.4798 68.74 43.4198 68.85 43.3698V41.7098H68.6C68.54 41.7798 68.46 41.8498 68.37 41.9398C68.28 42.0198 68.18 42.0998 68.05 42.1798C67.92 42.2598 67.77 42.3298 67.59 42.3798C67.41 42.4398 67.21 42.4598 66.97 42.4598C66.51 42.4598 66.14 42.3098 65.86 41.9998C65.58 41.6998 65.44 41.2298 65.44 40.6098C65.44 40.0298 65.57 39.5698 65.83 39.2198C66.09 38.8698 66.46 38.6998 66.93 38.6998C67.14 38.6998 67.33 38.7298 67.5 38.7798C67.67 38.8398 67.82 38.8998 67.96 38.9798C68.09 39.0598 68.21 39.1398 68.31 39.2198C68.42 39.3098 68.51 39.3898 68.58 39.4598H68.82V37.7998C68.49 37.6298 68.15 37.4998 67.83 37.4198C67.5 37.3398 67.17 37.2998 66.84 37.2998C66.4 37.2998 65.98 37.3598 65.58 37.4798C65.18 37.6098 64.83 37.7898 64.53 38.0598C64.22 38.3298 63.98 38.6698 63.8 39.0898C63.62 39.5098 63.53 40.0098 63.53 40.6098C63.53 41.1598 63.61 41.6398 63.78 42.0498C63.95 42.4598 64.18 42.7998 64.48 43.0698C64.78 43.3398 65.14 43.5398 65.55 43.6698C65.96 43.7998 66.41 43.8598 66.9 43.8598C67.17 43.8598 67.38 43.8398 67.54 43.8098Z" fill="#C5C4C7"/>
<path d="M78.03 40.81C77.8 40.54 77.52 40.36 77.18 40.27V40.21C77.43 40.08 77.64 39.9 77.8 39.66C77.96 39.42 78.05 39.14 78.05 38.81C78.05 38.52 78 38.28 77.89 38.07C77.79 37.86 77.62 37.7 77.41 37.57C77.2 37.45 76.99 37.37 76.78 37.34C76.57 37.31 76.23 37.29 75.78 37.29H72.38V43.83H75.94C76.32 43.83 76.65 43.8 76.93 43.72C77.21 43.65 77.47 43.51 77.72 43.31C77.92 43.14 78.08 42.94 78.19 42.69C78.31 42.45 78.37 42.17 78.37 41.86C78.37 41.44 78.25 41.08 78.03 40.81ZM76.02 39.75C75.88 39.86 75.67 39.92 75.4 39.92H74.48V38.61H75.37C75.67 38.61 75.89 38.66 76.03 38.76C76.17 38.86 76.24 39.03 76.24 39.29C76.23 39.47 76.16 39.63 76.02 39.75ZM76.28 42.34C76.13 42.47 75.92 42.53 75.64 42.53H74.48V41.03H75.61C75.91 41.03 76.13 41.08 76.28 41.2C76.43 41.31 76.51 41.51 76.51 41.8C76.51 42.03 76.43 42.21 76.28 42.34Z" fill="#C5C4C7"/>
<path d="M87.75 38.1598C87.19 37.5798 86.42 37.2798 85.41 37.2798C84.41 37.2798 83.63 37.5698 83.07 38.1498C82.51 38.7298 82.24 39.5298 82.24 40.5498C82.24 41.5598 82.52 42.3598 83.07 42.9498C83.62 43.5298 84.41 43.8298 85.41 43.8298C86.42 43.8298 87.2 43.5398 87.76 42.9498C88.31 42.3698 88.59 41.5698 88.59 40.5498C88.58 39.5498 88.31 38.7498 87.75 38.1598ZM86.53 41.4998C86.47 41.7198 86.39 41.9098 86.27 42.0698C86.17 42.1998 86.05 42.2998 85.89 42.3598C85.73 42.4198 85.58 42.4598 85.42 42.4598C85.23 42.4598 85.07 42.4298 84.91 42.3598C84.76 42.2898 84.63 42.1898 84.53 42.0498C84.43 41.9098 84.35 41.7298 84.29 41.4998C84.23 41.2598 84.2 40.9598 84.2 40.5798C84.2 40.1998 84.23 39.8898 84.3 39.6398C84.37 39.3898 84.46 39.1898 84.56 39.0498C84.68 38.8998 84.8 38.7998 84.94 38.7398C85.08 38.6898 85.23 38.6598 85.4 38.6598C85.58 38.6598 85.74 38.6898 85.89 38.7498C86.03 38.8098 86.16 38.9198 86.27 39.0698C86.37 39.2198 86.46 39.4098 86.52 39.6598C86.58 39.8998 86.61 40.1998 86.61 40.5698C86.62 40.9698 86.59 41.2698 86.53 41.4998Z" fill="#C5C4C7"/>
<path d="M96.68 43.8199C96.91 43.7899 97.13 43.7499 97.35 43.6899C97.58 43.6299 97.77 43.5799 97.91 43.5299C98.05 43.4799 98.19 43.4199 98.35 43.3599V41.7599H98.14C98.05 41.8199 97.94 41.8899 97.8 41.9699C97.66 42.0499 97.51 42.1299 97.35 42.1999C97.16 42.2799 96.96 42.3499 96.74 42.3999C96.52 42.4499 96.29 42.4799 96.06 42.4799C95.79 42.4799 95.54 42.4599 95.31 42.3999C95.08 42.3499 94.88 42.2699 94.71 42.1499C94.54 42.0399 94.4 41.8799 94.29 41.6899C94.19 41.4999 94.12 41.2099 94.1 40.9199H98.46V40.2699C98.46 39.3199 98.21 38.5899 97.72 38.0799C97.23 37.5699 96.49 37.3099 95.51 37.3099C94.43 37.3099 93.6 37.6099 93 38.2099C92.4 38.8099 92.1 39.6199 92.1 40.6399C92.1 41.6699 92.42 42.4699 93.06 43.0199C93.71 43.5799 94.63 43.8599 95.83 43.8599C96.17 43.8699 96.45 43.8599 96.68 43.8199ZM94.1 39.8099C94.12 39.4199 94.24 39.1199 94.46 38.8899C94.68 38.6699 94.98 38.5599 95.37 38.5599C95.75 38.5599 96.03 38.6699 96.21 38.8799C96.4 39.0899 96.49 39.3999 96.5 39.8099H94.1ZM97.04 35.1099H95.64V36.5499H97.04V35.1099ZM94.94 35.1099H93.52V36.5499H94.94V35.1099Z" fill="#C5C4C7"/>
<path d="M111.4 40.48C111.5 40.39 111.57 40.31 111.61 40.22C111.65 40.13 111.71 39.98 111.8 39.77C111.83 39.7 111.87 39.62 111.9 39.54C111.93 39.46 111.99 39.38 112.06 39.31C112.13 39.23 112.21 39.18 112.3 39.13C112.39 39.08 112.5 39.06 112.62 39.06H113.26V37.3C113.2 37.3 112.85 37.3 112.72 37.3C112.59 37.3 112.46 37.29 112.32 37.29C111.91 37.29 111.56 37.37 111.28 37.53C110.99 37.69 110.75 37.98 110.56 38.41C110.51 38.51 110.46 38.64 110.4 38.78C110.34 38.92 110.29 39.05 110.23 39.17C110.07 39.51 109.82 39.72 109.68 39.8C109.55 39.88 109.32 39.92 109.05 39.93V37.3H106.93V43.85H109.05V41.25H109.57L111.14 43.85H113.36L111.4 40.48Z" fill="#C5C4C7"/>
<path d="M123.14 37.2998H121.11L118.91 40.8598V37.2998H116.77V43.8498H118.61L121.02 39.8698V43.8498H123.14V37.2998Z" fill="#C5C4C7"/>
<path d="M133.01 37.2998H130.9V39.4598H128.78V37.2998H126.67V43.8498H128.78V40.9498H130.9V43.8498H133.01V37.2998Z" fill="#C5C4C7"/>
<path d="M142.06 38.1801C141.51 37.6001 140.73 37.3101 139.72 37.3101C138.72 37.3101 137.94 37.6001 137.38 38.1801C136.82 38.7601 136.55 39.4501 136.55 40.5801C136.55 41.7001 136.83 42.3901 137.38 42.9701C137.94 43.5501 138.72 43.8501 139.72 43.8501C140.73 43.8501 141.51 43.5501 142.07 42.9701C142.62 42.3901 142.9 41.5901 142.9 40.5801C142.89 39.5601 142.61 38.7601 142.06 38.1801ZM140.84 41.5001C140.78 41.7201 140.69 41.9101 140.58 42.0701C140.48 42.2001 140.36 42.3001 140.2 42.3601C140.04 42.4301 139.88 42.4601 139.73 42.4601C139.54 42.4601 139.38 42.4301 139.22 42.3601C139.06 42.2901 138.94 42.1901 138.84 42.0501C138.74 41.9101 138.66 41.7301 138.6 41.4901C138.54 41.2601 138.51 40.9501 138.51 40.5801C138.51 40.2101 138.54 39.8901 138.61 39.6501C138.67 39.4001 138.76 39.2101 138.87 39.0601C138.98 38.9101 139.12 38.8101 139.25 38.7601C139.39 38.7101 139.54 38.6801 139.71 38.6801C139.89 38.6801 140.06 38.7101 140.2 38.7701C140.35 38.8301 140.47 38.9401 140.58 39.0901C140.68 39.2401 140.77 39.4301 140.83 39.6701C140.89 39.9101 140.92 40.2201 140.92 40.5801C140.92 40.9801 140.9 41.2801 140.84 41.5001Z" fill="#C5C4C7"/>
<path d="M146.42 35.0801L146.65 41.6301H148.37L148.55 35.0801H146.42ZM148.53 42.3901H146.43V43.8501H148.53V42.3901Z" fill="#C5C4C7"/>
<defs>
<linearGradient id="paint0_linear" x1="32.8726" y1="30.7412" x2="32.8726" y2="16.2056" gradientUnits="userSpaceOnUse">
<stop stop-color="#DF5F2C"/>
<stop offset="0.7819" stop-color="#E67B29"/>
<stop offset="1" stop-color="#E88428"/>
</linearGradient>
<linearGradient id="paint1_linear" x1="48.3862" y1="30.7411" x2="48.3862" y2="16.1933" gradientUnits="userSpaceOnUse">
<stop stop-color="#DF5F2C"/>
<stop offset="0.7819" stop-color="#E67B29"/>
<stop offset="1" stop-color="#E88428"/>
</linearGradient>
<linearGradient id="paint2_linear" x1="80.835" y1="30.7411" x2="80.835" y2="10.3793" gradientUnits="userSpaceOnUse">
<stop stop-color="#DF5F2C"/>
<stop offset="0.7819" stop-color="#E67B29"/>
<stop offset="1" stop-color="#E88428"/>
</linearGradient>
<linearGradient id="paint3_linear" x1="17.5356" y1="30.7499" x2="17.5356" y2="10.3773" gradientUnits="userSpaceOnUse">
<stop stop-color="#DF5F2C"/>
<stop offset="0.7819" stop-color="#E67B29"/>
<stop offset="1" stop-color="#E88428"/>
</linearGradient>
<linearGradient id="paint4_linear" x1="141.469" y1="30.7492" x2="141.469" y2="16.1999" gradientUnits="userSpaceOnUse">
<stop stop-color="#DF5F2C"/>
<stop offset="0.7819" stop-color="#E67B29"/>
<stop offset="1" stop-color="#E88428"/>
</linearGradient>
<linearGradient id="paint5_linear" x1="63.9087" y1="31.4805" x2="63.9087" y2="15.4746" gradientUnits="userSpaceOnUse">
<stop stop-color="#DF5F2C"/>
<stop offset="0.7819" stop-color="#E67B29"/>
<stop offset="1" stop-color="#E88428"/>
</linearGradient>
<linearGradient id="paint6_linear" x1="127.032" y1="31.4805" x2="127.032" y2="15.4736" gradientUnits="userSpaceOnUse">
<stop stop-color="#DF5F2C"/>
<stop offset="0.7819" stop-color="#E67B29"/>
<stop offset="1" stop-color="#E88428"/>
</linearGradient>
<linearGradient id="paint7_linear" x1="97.7588" y1="31.4805" x2="97.7588" y2="15.4746" gradientUnits="userSpaceOnUse">
<stop stop-color="#DF5F2C"/>
<stop offset="0.7819" stop-color="#E67B29"/>
<stop offset="1" stop-color="#E88428"/>
</linearGradient>
<linearGradient id="paint8_linear" x1="113.269" y1="30.7412" x2="113.269" y2="16.2056" gradientUnits="userSpaceOnUse">
<stop stop-color="#DF5F2C"/>
<stop offset="0.7819" stop-color="#E67B29"/>
<stop offset="1" stop-color="#E88428"/>
</linearGradient>
</defs>
</svg>
