<svg width="145" height="26" viewBox="0 0 145 26" fill="none" xmlns="http://www.w3.org/2000/svg">
<path d="M0.00502221 7.47547C0.130577 7.45036 0.134595 7.33586 0.178791 7.24947C0.538381 6.56947 1.09986 6.21088 1.87529 6.20686C2.65072 6.20285 3.45528 6.20686 4.24577 6.20686C5.35669 6.20686 6.08591 6.92102 6.09194 8.03495C6.10064 9.6608 6.10064 11.287 6.09194 12.9135C6.09194 13.243 6.15723 13.2922 6.46157 13.1556C8.08073 12.4254 9.11732 11.1467 9.85056 9.58781C10.1183 9.00817 10.302 8.39328 10.396 7.76174C10.5436 6.81857 11.2608 6.2139 12.223 6.20787C12.8749 6.20787 13.5288 6.20787 14.1797 6.20787C15.4413 6.20787 16.2609 7.13899 16.1072 8.38751C15.9109 9.94113 15.4513 11.45 14.7482 12.8492C14.3585 13.6367 13.9185 14.3941 13.336 15.059C13.1883 15.2257 13.2044 15.3312 13.3199 15.506C14.8889 17.873 15.845 20.5929 16.1022 23.421C16.2187 24.6022 15.7135 25.4439 14.7311 25.691C14.483 25.7533 14.2289 25.7322 13.9818 25.7332C13.2914 25.7372 12.6014 25.7372 11.9117 25.7332C10.846 25.7262 10.0926 25.012 10.0263 23.9463C9.91713 22.241 9.38855 20.589 8.48753 19.137C8.33586 18.8859 8.20428 18.8357 7.92304 18.9452C7.43315 19.1398 6.92258 19.2776 6.40131 19.356C6.15522 19.3932 6.08591 19.5027 6.08892 19.7497C6.10198 21.1007 6.09696 22.4517 6.08892 23.8027C6.08892 25.003 5.34463 25.7342 4.13428 25.7372C3.38095 25.7372 2.62762 25.7252 1.8763 25.7372C1.05969 25.7543 0.478114 25.4188 0.14464 24.6685C0.115511 24.6022 0.0944175 24.5239 0 24.5178L0.00502221 7.47547Z" fill="#4D4D4E"/>
<path d="M94.541 15.876C94.8815 14.7309 95.22 13.5969 95.5575 12.4609C96.0316 10.8678 96.4997 9.27175 96.9808 7.68071C97.2771 6.7044 97.9682 6.21021 98.9957 6.2082C99.4979 6.2082 100 6.2082 100.502 6.2082C101.909 6.21523 102.857 7.46074 102.451 8.80268C101.193 12.9544 99.9272 17.1027 98.6522 21.2477C98.3388 22.2763 98.0294 23.3058 97.7131 24.3333C97.4358 25.2313 96.7588 25.7275 95.8046 25.7305C94.8002 25.7305 93.7957 25.7305 92.7913 25.7305C91.7989 25.7305 91.1018 25.1901 90.8607 24.2239C90.2581 21.7981 89.6645 19.3694 89.0658 16.9427C89.0337 16.8101 88.9955 16.6795 88.9583 16.5409C88.7886 16.5771 88.8247 16.7207 88.8016 16.8141C88.195 19.277 87.5923 21.7412 86.9936 24.2068C86.7586 25.166 86.0595 25.7255 85.0742 25.7305C84.0888 25.7355 83.0924 25.7305 82.101 25.7305C81.0222 25.7305 80.3633 25.2142 80.053 24.1556C79.5829 22.5485 79.1028 20.9414 78.6266 19.3342C77.586 15.8187 76.5374 12.3142 75.5129 8.79866C75.094 7.36833 76 6.20318 77.4926 6.20117C78.0441 6.20117 78.5975 6.20117 79.149 6.20117C80.1363 6.20117 80.8314 6.73955 81.1056 7.69277C81.8663 10.3344 82.629 12.9761 83.3937 15.6178C83.4068 15.666 83.4249 15.7122 83.4761 15.8669C83.6509 15.2361 83.8035 14.6987 83.9482 14.1594C84.5257 12.0109 85.0963 9.86136 85.6778 7.71386C85.945 6.7285 86.6421 6.2072 87.6566 6.2072C88.5345 6.2072 89.4127 6.2072 90.2912 6.2072C91.2736 6.2072 91.9787 6.76265 92.2378 7.71386C92.9537 10.3421 93.6722 12.9704 94.3934 15.5987C94.4165 15.6921 94.4155 15.8006 94.541 15.876Z" fill="#4D4D4E"/>
<path d="M117.223 24.1367C116.511 24.5788 115.753 24.9432 114.963 25.2235C109.587 27.0797 103.601 23.7841 102.32 18.2567C101.048 12.7624 104.476 7.47703 110.026 6.37516C115.1 5.37072 120.248 8.72555 121.377 13.7699C121.557 14.5883 121.647 15.4239 121.647 16.2619C121.653 18.9518 121.653 21.6413 121.647 24.3306C121.647 25.2968 121.216 25.7297 120.25 25.7308C119.66 25.7308 119.07 25.7308 118.481 25.7308C117.677 25.7308 117.263 25.3109 117.245 24.5033C117.238 24.3958 117.229 24.2884 117.223 24.1367ZM111.869 12.2582C111.134 12.2564 110.416 12.4723 109.804 12.8785C109.192 13.2847 108.714 13.8631 108.431 14.5406C108.148 15.2181 108.071 15.9644 108.212 16.6853C108.352 17.4061 108.703 18.0692 109.22 18.5908C109.737 19.1124 110.397 19.4691 111.117 19.616C111.836 19.7628 112.583 19.6932 113.263 19.4159C113.943 19.1385 114.526 18.666 114.937 18.0578C115.349 17.4496 115.571 16.7331 115.576 15.9987C115.579 15.5091 115.486 15.0238 115.301 14.5705C115.116 14.1172 114.843 13.7049 114.498 13.3573C114.153 13.0098 113.743 12.7337 113.292 12.5451C112.84 12.3565 112.355 12.259 111.866 12.2582H111.869Z" fill="#EE495E"/>
<path d="M25.4455 25.7293C24.1619 25.7297 22.8908 25.4771 21.7048 24.9859C20.5189 24.4947 19.4414 23.7747 18.5339 22.8668C17.6264 21.959 16.9068 20.8812 16.4161 19.695C15.9255 18.5089 15.6734 17.2377 15.6743 15.954C15.6833 10.5662 20.0778 6.19991 25.4847 6.21096C28.0773 6.21867 30.5608 7.25516 32.3897 9.09273C34.2186 10.9303 35.2433 13.4187 35.2388 16.0113C35.2248 21.377 30.8414 25.7293 25.4455 25.7293ZM22.2233 15.9711C22.2233 16.8088 22.2233 17.6465 22.2233 18.4822C22.2233 19.795 23.3723 20.4459 24.5154 19.788L28.8455 17.292C29.9856 16.634 29.9876 15.3253 28.8455 14.6583C27.3851 13.8065 25.9216 12.9601 24.4551 12.1191C23.3804 11.5024 22.2333 12.1723 22.2263 13.4168C22.2192 14.2706 22.2233 15.1204 22.2233 15.9711Z" fill="#EE495E"/>
<path d="M66.2429 25.7304C64.959 25.7296 63.6879 25.4758 62.5021 24.9834C61.3164 24.491 60.2393 23.7698 59.3325 22.8609C58.4257 21.9521 57.7069 20.8734 57.2172 19.6865C56.7276 18.4997 56.4766 17.228 56.4787 15.9441C56.4847 10.5653 60.8983 6.195 66.2991 6.20706C68.8863 6.21742 71.364 7.25237 73.1899 9.08538C75.0157 10.9184 76.041 13.4001 76.0412 15.9873C76.0412 21.3771 71.6588 25.7304 66.2429 25.7304ZM66.2821 19.6294C66.8094 19.6294 67.3367 19.6435 67.8631 19.6294C68.408 19.6129 68.926 19.3885 69.3107 19.0023C69.6955 18.616 69.9178 18.0972 69.9322 17.5522C69.9516 16.5016 69.9516 15.4506 69.9322 14.3993C69.9235 13.8731 69.7172 13.3695 69.3544 12.9884C68.9915 12.6073 68.4986 12.3767 67.9735 12.3422C66.8462 12.2754 65.7159 12.2754 64.5886 12.3422C63.4425 12.4115 62.6148 13.2974 62.5907 14.4405C62.5686 15.465 62.5686 16.4905 62.5907 17.5171C62.5979 18.0819 62.8277 18.6211 63.2302 19.0174C63.6327 19.4137 64.1754 19.6351 64.7402 19.6334C65.2535 19.6374 65.7678 19.6304 66.2821 19.6304V19.6294Z" fill="#EE495E"/>
<path d="M52.4469 14.5796C52.1586 14.5796 51.8704 14.5726 51.5821 14.5796C50.7564 14.6017 50.1267 14.2783 49.6084 13.6244C48.62 12.3689 47.2982 11.8928 45.7332 12.2182C44.2959 12.5195 43.3125 13.4065 42.8515 14.7956C42.2569 16.5865 43.0464 18.4829 44.7007 19.3718C45.501 19.809 46.4305 19.948 47.3237 19.7641C48.2168 19.5802 49.0158 19.0852 49.5782 18.3674C50.1196 17.6733 50.7725 17.3409 51.6464 17.378C52.249 17.4031 52.8517 17.378 53.4544 17.3851C53.617 17.3818 53.7796 17.3952 53.9395 17.4252C55.3126 17.7185 55.9735 19.1328 55.3076 20.4064C54.048 22.8171 52.1245 24.4704 49.52 25.284C47.1333 26.0415 44.5478 25.8621 42.2885 24.7823C40.0293 23.7025 38.2658 21.8032 37.3562 19.4703C35.2107 14.0282 38.5465 7.77054 44.2768 6.48887C48.7496 5.47941 53.14 7.46318 55.2493 11.4368C56.088 13.0157 55.1489 14.5696 53.3489 14.5756L52.4469 14.5796Z" fill="#4D4D4E"/>
<path d="M134.681 12.2633C135.122 11.1744 135.528 10.17 135.934 9.16556C136.248 8.38812 136.559 7.61068 136.874 6.83425C137.075 6.33203 137.423 6.1894 137.928 6.39431C138.207 6.5068 138.487 6.61729 138.758 6.74787C139.148 6.9357 139.279 7.25009 139.114 7.64484C138.056 10.1841 136.993 12.7206 135.926 15.2545C135.697 15.7959 135.259 16.049 134.675 16.046C134.053 16.046 133.635 15.7447 133.397 15.1761C132.694 13.4914 131.991 11.8076 131.288 10.1248C131.1 9.67582 130.899 9.22984 130.725 8.77483C130.652 8.58298 130.56 8.50665 130.345 8.51167C129.655 8.52774 128.965 8.52975 128.275 8.51167C128.012 8.50464 127.974 8.60508 127.974 8.8351C127.983 10.9123 127.981 12.9895 127.981 15.0626C127.981 15.82 127.751 16.049 126.995 16.051C126.743 16.051 126.492 16.056 126.241 16.051C125.77 16.0379 125.52 15.8029 125.5 15.3358C125.485 14.9732 125.5 14.6096 125.5 14.247C125.5 12.4581 125.493 10.6692 125.507 8.8803C125.507 8.57897 125.422 8.50062 125.13 8.51066C124.516 8.53377 123.901 8.52372 123.286 8.5187C122.823 8.5187 122.596 8.2917 122.583 7.83066C122.575 7.58055 122.583 7.32844 122.583 7.08034C122.589 6.53593 122.818 6.29888 123.361 6.29688C124.652 6.29688 125.945 6.29688 127.237 6.29688C128.692 6.29688 130.148 6.29688 131.603 6.29688C132.179 6.29688 132.315 6.39732 132.531 6.92666C133.226 8.67539 133.935 10.4241 134.681 12.2633Z" fill="#4D4D4E"/>
<path d="M144.396 5.19301C144.396 5.64401 144.136 5.97748 143.777 6.05081C143.355 6.13618 142.982 5.95036 142.831 5.55963C142.702 5.22214 142.613 4.86958 142.448 4.54314C142.176 4.00835 141.802 3.53239 141.346 3.14251C140.891 2.75264 140.362 2.45652 139.792 2.27112C139.222 2.08572 138.62 2.01468 138.022 2.06207C137.424 2.10947 136.842 2.27436 136.308 2.54731C136.196 2.60457 136.091 2.67387 135.977 2.72611C135.792 2.8205 135.577 2.84042 135.377 2.7818C135.177 2.72318 135.007 2.59045 134.901 2.41071C134.668 2.00893 134.773 1.56497 135.194 1.30582C136.049 0.774087 137.026 0.470768 138.031 0.424929C140.958 0.292343 143.467 2.06418 144.32 4.85753C144.36 4.98811 144.381 5.12471 144.396 5.19301Z" fill="#4D4D4E"/>
<path d="M138.367 3.44418C139.066 3.4563 139.744 3.68722 140.305 4.10448C140.866 4.52174 141.283 5.10436 141.496 5.77046C141.709 6.4585 141.352 6.99789 140.706 6.96173C140.338 6.94064 140.079 6.74075 139.996 6.39523C139.929 6.12684 139.8 5.87802 139.619 5.66895C139.437 5.45988 139.209 5.29643 138.953 5.19185C138.697 5.08728 138.42 5.04451 138.144 5.06704C137.869 5.08956 137.602 5.17673 137.366 5.32148C137.275 5.37675 137.173 5.41247 137.067 5.42642C136.961 5.44037 136.853 5.43223 136.75 5.40252C136.647 5.37281 136.551 5.32217 136.469 5.25377C136.387 5.18538 136.32 5.10071 136.272 5.00508C136.065 4.61535 136.202 4.15432 136.611 3.90722C137.141 3.5909 137.75 3.43042 138.367 3.44418Z" fill="#4D4D4E"/>
</svg>
