<svg width="86" height="62" viewBox="0 0 86 62" fill="none" xmlns="http://www.w3.org/2000/svg">
<path d="M85.3473 40.1056C84.5971 39.7612 83.9912 40.2491 83.645 40.7943C83.2699 41.3395 76.9799 51.7271 72.3923 51.2967C69.8532 51.0384 69.2473 42.4586 69.4781 40.9951C70.3437 39.3882 86.8188 6.36004 78.9708 0.506225C78.1341 -0.0963734 76.374 -0.268544 75.0468 0.592311C68.4971 4.69572 64.8905 20.7937 64.4289 27.2501C64.3711 28.1971 64.2269 29.1727 64.198 30.464C63.9384 30.3779 62.6111 29.9188 60.7357 30.2057C57.129 30.7223 54.388 32.817 52.5126 34.9691C48.098 35.9448 47.4921 30.5214 46.7708 30.5214H10.1274V40.1917L29.8629 40.163L20.024 57.1792L28.478 62L45.0973 33.3622C45.5301 34.51 46.8574 37.0926 50.1177 38.4413C50.0312 38.6421 49.9446 38.8143 49.8581 38.9865C48.7039 41.5116 47.9538 44.6968 48.0403 47.4228C48.1557 52.9323 50.8679 54.4532 54.0418 53.4488C58.9468 51.928 64.2846 45.5864 64.6597 45.1846C64.7462 45.7298 64.8905 46.5907 65.179 47.7385C66.2755 52.0141 68.4971 54.6253 71.3536 54.8549C76.3452 55.2566 81.3656 49.8906 85.607 42.4586C85.9244 41.856 86.4149 40.5934 85.3473 40.1056ZM62.1495 42.9177C61.1685 43.9794 55.4267 51.1819 52.8011 50.0915C51.1853 49.4315 51.4738 43.0899 57.0713 37.6952C59.1488 35.6865 62.0341 34.2231 63.9672 34.6535C63.9672 36.0022 64.0538 39.1873 64.1115 40.4212C63.7075 40.9951 63.1016 41.856 62.1495 42.9177ZM77.0088 4.58094C81.1925 5.15484 73.229 27.1067 69.0742 35.3996C68.728 29.7466 72.0749 3.92095 77.0088 4.58094ZM11.8586 45.2994L7.38638 52.9897V51.8993H1.38495V45.3281H0V53.1332H7.38638H8.65592C8.65592 53.1332 9.08871 52.3871 9.63692 51.4115H15.321C15.8692 52.3871 16.302 53.1045 16.302 53.1045H17.6869L13.0993 45.2994H11.8586ZM10.3294 50.1776C11.2238 48.628 12.1471 46.9637 12.2625 46.7629L12.4645 46.4185L12.6665 46.7629C12.7819 46.9924 13.7341 48.628 14.6285 50.1776H10.3294Z" fill="#E5004B"/>
</svg>
