<svg width="127" height="33" viewBox="0 0 127 33" fill="none" xmlns="http://www.w3.org/2000/svg">
<path d="M28.3361 30.2287L26.842 26.1673C26.842 26.1673 24.414 28.8752 20.7731 28.8752C17.5514 28.8752 15.264 26.0739 15.264 21.592C15.264 15.8497 18.1582 13.7956 21.0065 13.7956C25.1146 13.7956 26.4217 16.4566 27.5424 19.8648L29.0365 24.5335C30.5301 29.0617 33.3314 32.7032 41.4079 32.7032C47.1974 32.7032 51.1188 30.9293 51.1188 26.2608C51.1188 22.4793 48.971 20.5184 44.9558 19.5846L41.9681 18.931C39.9141 18.4642 39.3073 17.6238 39.3073 16.2232C39.3073 14.6358 40.5675 13.702 42.622 13.702C44.8628 13.702 46.0765 14.5425 46.2635 16.5499L50.9319 15.9896C50.5585 11.7879 47.6641 10.0605 42.9021 10.0605C38.7006 10.0605 34.5921 11.6479 34.5921 16.7367C34.5921 19.9113 36.1328 21.919 40.0073 22.8526L43.1823 23.5993C45.5632 24.1597 46.3566 25.14 46.3566 26.4941C46.3566 28.2211 44.6761 28.9215 41.5014 28.9215C36.7861 28.9215 34.8257 26.4472 33.705 23.039L32.1643 18.3707C30.2039 12.3014 27.0756 10.0605 20.8663 10.0605C14.0036 10.0605 10.362 14.4022 10.362 21.7786C10.362 28.875 14.0036 32.703 20.5399 32.703C25.8146 32.703 28.3361 30.2287 28.3361 30.2287Z" fill="#D51007"/>
<path d="M8.35716 28.034C7.89035 28.1743 7.42336 28.2676 6.81651 28.2676C5.69598 28.2676 4.90223 27.7543 4.90223 26.4V0.955078H0V27.5672C0 31.0687 2.42795 32.5165 5.27568 32.5165C6.20948 32.5165 7.0966 32.3761 8.21712 32.0964L8.35716 28.034Z" fill="#D51007"/>
<path d="M67.4123 27.2874C66.1984 28.1282 65.1714 28.5485 63.7708 28.5485C61.9966 28.5485 61.0163 27.6147 61.0163 25.327V14.4015H67.4591V10.5735H61.0628V5.39062L56.114 5.99766V10.5733H52.9859V14.4013H56.114V26.3535C56.114 30.6496 58.5883 32.7028 62.6036 32.7028C64.798 32.7028 66.7588 32.2832 68.2996 31.3963L67.4123 27.2874Z" fill="#D51007"/>
<path d="M71.6703 28.9679C71.6703 30.8825 73.1644 32.423 75.0785 32.423C77.0864 32.423 78.5802 30.8825 78.5802 28.9679C78.5802 27.0071 77.0862 25.5137 75.0785 25.5137C73.1644 25.5137 71.6703 27.0071 71.6703 28.9679Z" fill="#D51007"/>
<path d="M83.6551 14.4018V32.1433H88.5574V14.4018H94.0666V10.5738H88.5574V8.61262C88.5574 5.67154 89.8181 4.73773 91.8723 4.73773C93.3196 4.73773 94.3 5.06414 95.4206 5.67154L96.2141 1.56253C94.9071 0.955674 93.3662 0.628906 91.4988 0.628906C87.39 0.628906 83.6551 2.58969 83.6551 8.42572V10.5738H80.5272V14.4018H83.6551Z" fill="#D51007"/>
<path d="M113.6 14.8213C113.04 11.3197 110.752 10.0586 107.764 10.0586C104.776 10.0586 102.209 11.4127 101.088 14.7274L100.481 10.5726H96.5125V32.1421H101.415V19.9569C101.415 15.8013 103.562 14.2139 105.85 14.2139C108.231 14.2139 109.212 15.8013 109.212 18.3691V32.142H114.067V19.9101C114.067 15.8011 116.261 14.2137 118.549 14.2137C120.884 14.2137 121.864 15.8011 121.864 18.3689V32.1418H126.766V16.6422C126.766 12.0201 124.058 10.0586 120.463 10.0586C117.429 10.0586 114.721 11.4127 113.6 14.8213Z" fill="#D51007"/>
</svg>
