<svg width="147" height="40" viewBox="0 0 147 40" fill="none" xmlns="http://www.w3.org/2000/svg">
<path d="M119.284 0H143.707C145.938 0 146.964 1.03692 146.964 3.28265C146.964 13.2515 146.964 23.2203 146.964 33.1891C146.964 35.3404 145.851 36.4604 143.668 36.4623C127.387 36.4623 111.105 36.4623 94.8229 36.4623C92.6791 36.4623 91.5308 35.297 91.5289 33.1419C91.5289 23.1403 91.5289 13.14 91.5289 3.14099C91.5251 1.18047 92.7112 0 94.6718 0H119.284ZM119.343 1.65077H95.1949C93.5744 1.65077 93.191 2.02852 93.191 3.61885C93.191 13.3711 93.191 23.1227 93.191 32.8737C93.191 34.4111 93.5914 34.8134 95.1345 34.8134C111.232 34.8134 127.329 34.8134 143.426 34.8134C144.905 34.8134 145.315 34.4055 145.315 32.9247C145.315 23.1108 145.315 13.2962 145.315 3.48097C145.315 2.02663 144.948 1.66021 143.494 1.66021L119.343 1.65077Z" fill="#322F31"/>
<path d="M36.1129 18.9332C36.1129 15.1746 36.1299 11.416 36.0978 7.65545C36.0978 6.91317 36.2527 6.60153 37.0781 6.6242C40.4665 6.71863 43.8606 6.66008 47.2433 6.83007C50.9207 7.01894 53.837 9.31944 54.5547 12.5586C55.6369 17.443 53.4705 22.0024 47.5285 22.8467C45.9723 23.0363 44.4033 23.0994 42.8369 23.0355C41.8925 23.0148 41.6602 23.3585 41.681 24.2255C41.7282 26.2615 41.6602 28.2995 41.7112 30.3337C41.7338 31.1761 41.4354 31.4273 40.6214 31.3876C39.4315 31.3272 38.234 31.3309 37.0422 31.3876C36.2772 31.4235 36.0978 31.1345 36.0978 30.4092C36.1299 26.577 36.1129 22.756 36.1129 18.9332ZM41.6998 14.7779C41.6998 15.8734 41.7131 16.9708 41.6998 18.0681C41.6904 18.665 41.9265 18.8992 42.5422 18.8746C43.5773 18.8312 44.6199 18.8879 45.653 18.852C47.7098 18.7802 48.9262 17.5298 49.2208 15.218C49.4777 13.1952 48.4653 11.4273 46.5766 11.0363C45.2752 10.7681 43.8965 10.889 42.5554 10.7927C41.8679 10.7454 41.6791 11.0628 41.6923 11.6747C41.7131 12.7173 41.6998 13.7505 41.6998 14.7855V14.7779Z" fill="#F26F21"/>
<path d="M16.8665 18.9908C16.8665 15.2 16.8892 11.4074 16.8495 7.61483C16.8495 6.81211 17.1083 6.61945 17.8714 6.62512C22.524 6.65534 27.1747 6.65534 31.8236 6.62512C32.5791 6.62512 32.8378 6.83666 32.7868 7.58272C32.7368 8.396 32.7368 9.21159 32.7868 10.0249C32.8227 10.6992 32.5413 10.8899 31.9048 10.8861C29.202 10.8635 26.4992 10.8748 23.7983 10.8861C22.5574 10.8861 22.5574 10.8861 22.5555 12.1327C22.5555 13.4171 22.5989 14.7033 22.5404 15.9858C22.5026 16.7942 22.818 17.0019 23.5754 16.9868C25.5529 16.9471 27.5418 16.9868 29.5136 16.9641C30.1747 16.9528 30.4164 17.1946 30.3881 17.8386C30.356 18.6206 30.3598 19.4063 30.3881 20.1882C30.4108 20.7945 30.1709 21.0117 29.5571 21.0042C27.5455 20.9758 25.534 21.0174 23.5244 20.9815C22.818 20.9683 22.5082 21.1326 22.5404 21.9127C22.5989 23.3519 22.5989 24.7968 22.5404 26.236C22.5082 27.0123 22.8142 27.1804 23.5225 27.1691C26.2876 27.137 29.0528 27.1691 31.8179 27.1407C32.547 27.1313 32.8473 27.3296 32.7906 28.0851C32.7377 28.8983 32.7377 29.7141 32.7906 30.5273C32.8284 31.2034 32.5488 31.3829 31.9104 31.381C27.1961 31.3621 22.4824 31.3621 17.7694 31.381C17.0686 31.381 16.8533 31.1675 16.8571 30.4668C16.8817 26.6308 16.8665 22.8136 16.8665 18.9908Z" fill="#F26F21"/>
<path d="M55.6992 28.4657C56.2224 27.6403 56.6833 26.898 57.1611 26.1652C57.8335 25.1301 58.4946 25.0187 59.6373 25.5721C60.9235 26.1935 62.206 26.9226 63.5734 27.238C65.3262 27.6422 67.4152 26.9414 67.7079 24.8922C67.8798 23.6796 67.4813 22.6257 66.212 22.059C64.8729 21.4735 63.4469 21.0788 62.0568 20.6179C60.0434 19.9493 58.2339 19.037 57.265 16.9858C55.4745 13.1932 57.282 8.51291 61.3069 7.07179C64.9938 5.74967 68.5786 6.21619 71.9085 8.35803C72.4883 8.73578 72.6508 9.11353 72.2239 9.71416C71.9028 10.1731 71.6875 10.7039 71.4099 11.193C70.6827 12.4774 70.2237 12.5548 68.9016 11.9485C67.8386 11.4319 66.7193 11.0402 65.5661 10.7813C64.8767 10.6396 64.0683 10.8455 63.3638 11.0608C62.3968 11.3574 61.9548 12.1658 61.8528 13.1385C61.789 13.5476 61.8589 13.9663 62.0522 14.3325C62.2455 14.6987 62.5518 14.9927 62.9256 15.1708C63.87 15.6486 64.8691 16.0207 65.8569 16.4041C66.7031 16.7328 67.5719 17.0028 68.4238 17.3145C72.7962 18.9048 73.8199 22.6162 72.4374 26.5335C71.2323 29.9559 68.4502 31.4253 65.0221 31.6747C61.8112 31.9089 58.8837 30.9834 56.3036 29.0304C56.0978 28.8774 55.9391 28.6904 55.6992 28.4657Z" fill="#F26F21"/>
<path d="M5.58126 26.9655C8.41438 26.9655 11.087 27.0033 13.7539 26.9429C14.6529 26.924 14.9117 27.2129 14.8456 28.0629C14.7795 28.9128 14.8777 29.8232 14.8002 30.6939C14.7776 30.9319 14.3904 31.3304 14.1675 31.3323C9.6704 31.3701 5.17518 31.355 0.678061 31.3644C0.0925488 31.3644 0.0207763 31.0358 0.022665 30.5768C0.022665 29.1338 0.022665 27.6908 0.022665 26.2478C0.022665 20.1018 0.0434413 13.9558 0 7.80981C0 6.8371 0.281424 6.55002 1.22769 6.62179C2.32634 6.69545 3.42869 6.69545 4.52733 6.62179C5.34516 6.57268 5.60392 6.81066 5.60014 7.66249C5.56237 13.6838 5.57937 19.7052 5.57937 25.7265L5.58126 26.9655Z" fill="#F26F21"/>
<path d="M81.815 19.0061C81.815 22.7383 81.7734 26.4705 81.8396 30.2008C81.8584 31.2018 81.5336 31.4417 80.61 31.3812C79.5111 31.3132 78.4092 31.3132 77.3103 31.3812C76.4831 31.4284 76.2319 31.1527 76.2375 30.3197C76.2696 24.8329 76.2545 19.3461 76.2545 13.8574C76.2545 11.7571 76.2753 9.65493 76.2432 7.55464C76.2319 6.87846 76.4151 6.59515 77.1441 6.62537C78.4001 6.67826 79.6599 6.67637 80.9216 6.62537C81.6261 6.59704 81.8396 6.82369 81.8339 7.53008C81.798 11.3548 81.815 15.1814 81.815 19.0061Z" fill="#F26F21"/>
<path d="M119.35 38.0563H132.352C132.603 38.0563 132.919 37.9789 133.089 38.1017C133.359 38.3019 133.697 38.6418 133.691 38.9176C133.686 39.1934 133.314 39.4842 133.023 39.6523C132.834 39.7675 132.534 39.6939 132.282 39.6939C123.677 39.6939 115.072 39.6939 106.467 39.6939C105.785 39.6939 104.873 39.8261 104.858 38.8742C104.841 37.8769 105.776 38.0639 106.441 38.062C110.743 38.0532 115.046 38.0513 119.35 38.0563Z" fill="#322F31"/>
<path d="M71.9406 1.15974C70.6185 2.3931 69.4739 3.47346 68.3029 4.51038C68.056 4.692 67.7576 4.78994 67.4511 4.78992C66.5067 4.82392 65.5623 4.71248 64.6179 4.82392C63.1636 4.99768 62.0946 4.4915 61.1615 3.40735C60.5005 2.63863 59.6883 1.99646 58.7685 1.14085C61.0104 1.30706 63.1296 0.664889 64.9523 2.13245C65.0656 2.20029 65.1942 2.2386 65.3262 2.24388C65.4581 2.24916 65.5894 2.22124 65.7078 2.16267C67.2188 0.902871 69.0074 1.17863 70.7507 1.16541L71.9406 1.15974Z" fill="#F26F21"/>
<path d="M76.3528 4.76663C77.5313 3.51816 78.5739 2.36036 79.6807 1.28377C80.0399 0.990658 80.4883 0.828763 80.9519 0.824805C82.8406 0.775698 84.7105 0.804029 86.8542 0.804029C85.7077 1.63697 84.6123 2.21681 83.7982 3.07053C81.7055 5.25015 79.1047 4.81762 76.3528 4.76663Z" fill="#F26F21"/>
<path d="M86.8976 31.0737C85.9419 31.0567 85.3054 30.3994 85.3451 29.4701C85.367 29.0456 85.5518 28.6458 85.861 28.3541C86.1703 28.0625 86.5802 27.9013 87.0053 27.9043C87.9138 27.9327 88.5257 28.607 88.5163 29.5721C88.5068 30.5373 87.9194 31.0925 86.8976 31.0737Z" fill="#322F31"/>
<path d="M129.84 27.5141C132.118 20.8166 134.46 13.9529 136.768 7.07782C136.957 6.5112 137.206 6.35065 137.758 6.37521C138.634 6.41487 139.514 6.37521 140.534 6.37521C140.057 7.75211 139.618 9.05912 139.154 10.3567C136.723 17.1562 134.277 23.9557 131.867 30.7552C131.655 31.3483 131.414 31.6524 130.749 31.5693C130.281 31.506 129.806 31.506 129.338 31.5693C128.261 31.7317 127.785 31.3237 127.449 30.2566C124.969 22.4862 122.406 14.7424 119.877 6.98716C119.841 6.78472 119.826 6.5789 119.834 6.37332C120.878 6.37332 121.881 6.34121 122.88 6.39787C123.092 6.40921 123.398 6.70385 123.47 6.92861C124.783 11.0121 126.077 15.1006 127.351 19.1942C128.223 22.0329 129.049 24.8717 129.84 27.5141Z" fill="#322F31"/>
<path d="M116.547 6.4502V9.3532H108.956V31.6084H105.653V9.38342H98.028V6.4502H116.547Z" fill="#322F31"/>
</svg>
