<svg width="134" height="23" viewBox="0 0 134 23" fill="none" xmlns="http://www.w3.org/2000/svg">
<g clip-path="url(#clip0_9314:3996)">
<path d="M0 21.7746H13.6529L15.0939 18.4938H8.59321L16.0528 1.5625H6.67465L5.19223 4.92764H7.41586L0 21.7746Z" fill="#E42829"/>
<path d="M18.4519 1.55762H24.9503C24.3401 4.74306 21.9847 8.26736 17.3619 9.32941C18.1905 7.54783 18.7796 6.1029 19.2601 4.95503H16.9476L18.4519 1.55762Z" fill="#E42829"/>
<path d="M38.2115 0H34.11L33.3695 1.63856H27.9181L26.4772 4.96189H28.7015L21.3309 21.7766H34.7216L36.204 18.4547H29.6612L32.1914 12.7374H38.735L40.0442 9.71108H33.5428L35.6376 5.0015H42.136L43.5762 1.6811H37.4695L38.2115 0Z" fill="#E42829"/>
<path d="M54.0721 4.67766C55.6284 4.61165 57.156 5.61063 56.5685 7.01815L51.8704 17.7407L50.8022 16.0434L48.196 17.451L48.8362 18.4052C46.5704 18.4052 46.9591 16.5833 47.5143 15.5476L51.6143 6.22894C52.0941 5.18082 53.0906 4.71727 54.0721 4.67766V1.46729C47.2431 1.51349 44.3521 6.31402 42.7695 9.58234C38.2416 18.9421 45.445 21.7161 47.0849 22.0058C48.0242 22.1708 49.9036 22.1708 50.8452 22.0058L51.4425 22.9996H54.9881L53.7927 21.2173C56.4419 21.0523 59.5604 17.5324 60.9276 14.7173C62.2948 11.903 66.2946 1.68732 54.0721 1.46729V4.67766Z" fill="#E42829"/>
<path d="M75.7247 1.61182H66.6938L65.2106 4.92488H67.5224L63.2484 14.7372C61.5038 18.4448 64.0333 21.8569 69.6601 21.9024C75.4603 21.9501 77.4248 18.4448 78.0357 16.9867L84.7548 1.61255H81.0457L74.3281 16.8209C73.15 19.0698 67.9163 18.8636 69.398 15.9885L75.7247 1.61182Z" fill="#E42829"/>
<path d="M95.9618 1.66016H87.1087L85.6685 4.95121H87.6307L80.26 21.8165H87.0206L95.9618 1.66016Z" fill="#E42829"/>
<path d="M107.202 4.93191H108.046C109.747 4.93191 108.743 8.25157 108.438 8.83907C108.133 9.42658 107.261 11.4018 105.952 11.4018H103.16L106.04 4.93191H107.202V1.65625H98.4506L96.9441 4.93117H99.3213L91.9929 21.7745H98.7549L101.806 14.7603H108.526C111.709 14.7603 113.963 11.7055 115.024 9.04811C116.115 6.31742 115.375 1.65625 111.013 1.65625H107.202V4.93191Z" fill="#E42829"/>
<path d="M134 1.53418H117.989L116.487 4.958H118.929L111.578 21.6905H125.099L126.453 18.6929H119.56L122.135 12.8317H129.028L130.378 9.74972H123.486L125.624 4.93526H132.47L134 1.53418Z" fill="#E42829"/>
</g>
<defs>
<clipPath id="clip0_9314:3996">
<rect width="134" height="23" fill="white"/>
</clipPath>
</defs>
</svg>
