<svg width="120" height="36" viewBox="0 0 120 36" fill="none" xmlns="http://www.w3.org/2000/svg">
<path d="M9.2747 26.9128H10.2016C14.4354 26.9128 17.113 24.6692 20.9349 19.1846H21.0035L18.2229 27.7967H0.807068V27.7287C2.47771 26.7768 2.88964 25.893 3.48467 23.468L7.78714 6.39119C8.05032 5.32601 8.19908 4.55547 8.19908 3.96622C8.19908 3.16167 7.98167 2.64042 7.27222 2.13049V2.0625H17.113V2.13049C15.4423 3.08235 15.0304 3.96622 14.4354 6.40253L9.2747 26.9128Z" fill="#F51A50"/>
<path d="M27.4458 24.4553C27.4 24.682 27.3771 24.9199 27.3771 25.1579C27.3771 25.7811 27.6747 26.1891 28.2697 26.1891C28.613 26.1777 28.9448 26.0758 29.2309 25.8945V25.9625C28.0751 27.5489 26.6334 28.1721 25.0314 28.1721C22.617 28.1721 21.5757 26.733 21.5757 24.784C21.5642 24.2514 21.6329 23.7188 21.7588 23.1975L24.1388 13.5996C24.4364 12.4211 24.6194 11.7186 24.6194 11.2086C24.6194 10.5514 24.402 10.1095 23.8413 9.66754V9.58822H31.199L27.4458 24.4553ZM29.4826 0.772184C31.3821 0.772184 32.7095 2.13198 32.7095 3.89972C32.7209 5.83744 31.1418 7.42387 29.1851 7.4352C29.1737 7.4352 29.1622 7.4352 29.1508 7.4352C27.2513 7.4352 25.9239 6.0754 25.9239 4.30766C25.8896 2.38128 27.4458 0.794849 29.3911 0.772184C29.414 0.760834 29.4483 0.760834 29.4826 0.772184H29.4826Z" fill="#F51A50"/>
<path d="M40.3647 9.58658H43.1567L42.7104 10.5044H40.1816L36.0164 27.2073C34.4945 33.3491 31.8169 35.8874 26.3244 35.9667V35.8987C28.2926 34.5729 29.1508 31.3774 30.8557 24.0118L34.0139 10.5158H32.309L32.4234 10.1078L34.3114 9.30329L34.6433 8.27211C35.9821 3.01422 39.987 0 44.2323 0C46.5781 0 48.4661 1.1445 48.4661 3.04822C48.4661 5.22389 46.8641 6.43638 45.0104 6.43638C43.786 6.43638 42.9278 5.77914 42.7447 4.99726C43.8547 4.81595 45.0905 3.85276 45.0905 1.75641C45.0905 1.05384 44.7243 0.577917 44.0492 0.577917C42.7104 0.577917 41.6005 2.41365 40.891 6.71968L40.3647 9.58658Z" fill="#F51A50"/>
<path d="M40.4448 21.4273C40.4448 15.5801 45.3079 9.17773 51.6587 9.17773C54.7024 9.17773 56.2243 10.7188 56.2243 12.8945C56.2243 17.0192 51.7273 18.7756 46.5323 19.0023C46.4179 19.6935 46.3607 20.3961 46.3492 21.0986C46.3492 24.0449 47.7567 25.4726 49.7248 25.4726C51.3955 25.4726 52.5512 24.6681 53.9587 22.821H54.1875C52.6313 26.3905 49.9537 28.1583 46.7268 28.1583C43.0423 28.1583 40.4448 25.8466 40.4448 21.4273ZM46.6467 18.4584C49.7706 17.5065 52.1049 13.937 52.1049 11.0248C52.1049 10.2882 51.8417 9.8463 51.3611 9.8463C49.6905 9.8463 47.4248 14.3676 46.6467 18.4584Z" fill="#F51A50"/>
<path d="M61.9113 23.3762C61.8312 23.6255 61.7969 23.8861 61.7969 24.1468C61.7969 25.2119 62.5064 25.8352 63.3989 25.8352C63.9939 25.8352 64.772 25.5066 65.4815 24.838L65.5158 24.906C64.1427 27.0703 62.3233 28.1468 59.9775 28.1468C57.2999 28.1468 55.8925 26.6057 55.8925 24.2148C55.9153 23.6028 55.9954 23.0023 56.1556 22.413L59.1651 10.4921H57.8263L57.9407 10.0162C61.7969 9.03034 64.2914 6.88866 66.6715 3.17188H67.0034L65.4014 9.57426H68.8914L68.4795 10.4921H65.1382L61.9113 23.3762Z" fill="#F51A50"/>
<path d="M72.9079 24.4523C72.8621 24.6789 72.8392 24.9169 72.8278 25.1549C72.8278 25.7781 73.1253 26.186 73.7203 26.186C74.0636 26.1747 74.3954 26.0727 74.6815 25.8914V25.9594C73.5258 27.5458 72.084 28.1691 70.482 28.1691C68.0676 28.1691 67.0263 26.73 67.0263 24.7809C67.0148 24.2483 67.0835 23.7157 67.2094 23.1945L69.5895 13.5966C69.887 12.4181 70.0701 11.7155 70.0701 11.2056C70.0701 10.5484 69.8412 10.1064 69.292 9.66449V9.58517H76.6496L72.9079 24.4523ZM74.9447 0.769138C76.8442 0.769138 78.1715 2.12894 78.1715 3.89668C78.1715 5.83439 76.5924 7.40949 74.6357 7.42082C74.6243 7.42082 74.6128 7.42082 74.6128 7.42082C72.7248 7.42082 71.386 6.06102 71.386 4.29328C71.3516 2.3669 72.9079 0.780473 74.8531 0.757813C74.8875 0.757813 74.9103 0.757808 74.9447 0.769157L74.9447 0.769138Z" fill="#F51A50"/>
<path d="M100.542 24.454C100.473 24.6806 100.428 24.9186 100.428 25.1565C100.428 25.7798 100.725 26.1877 101.355 26.1877C101.686 26.1764 102.007 26.0744 102.281 25.8931V25.9611C101.171 27.5475 99.7182 28.1708 98.1277 28.1708C95.6789 28.1708 94.6033 26.7316 94.6033 24.7826C94.6033 24.2613 94.7177 23.7514 94.8322 23.1962L96.9491 14.7767C97.0864 14.3348 97.1665 13.8815 97.1779 13.4169C97.1779 12.8277 96.9491 12.4651 96.3655 12.4651C95.2098 12.4651 94.0197 13.9722 93.2073 17.0657L90.5297 27.8081H84.5451L87.8178 14.7881C87.9551 14.3688 88.0352 13.9382 88.0466 13.4963C88.0466 12.873 87.7834 12.4651 87.1541 12.4651C85.9984 12.4651 84.8541 13.9722 84.0302 17.1677L81.364 27.7968H75.3452L78.9153 13.5982C79.1785 12.4197 79.3616 11.7172 79.3616 11.2073C79.3616 10.55 79.1327 10.1081 78.6178 9.66616V9.58684H85.9411L84.8655 13.8135C86.2387 10.9126 87.9436 9.21289 90.5068 9.21289C92.9555 9.21289 94.0312 10.8673 94.0312 12.9977C94.0197 13.2583 93.9968 13.5189 93.9511 13.7682C95.3585 10.8673 97.1436 9.21289 99.6724 9.21289C102.167 9.21289 103.197 10.7993 103.197 12.8957C103.185 13.5869 103.094 14.2781 102.934 14.958L100.542 24.454Z" fill="#F51A50"/>
<path d="M103.654 21.4273C103.654 15.5801 108.518 9.17773 114.868 9.17773C117.912 9.17773 119.434 10.7188 119.434 12.8945C119.434 17.0192 114.937 18.7756 109.742 19.0023C109.628 19.6935 109.57 20.3961 109.559 21.0986C109.559 24.0449 110.966 25.4726 112.935 25.4726C114.605 25.4726 115.761 24.6681 117.168 22.821H117.386C115.83 26.3905 113.152 28.1583 109.925 28.1583C106.263 28.1583 103.654 25.8466 103.654 21.4273ZM109.856 18.4584C112.98 17.5065 115.315 13.937 115.315 11.0248C115.315 10.2882 115.051 9.8463 114.571 9.8463C112.912 9.8463 110.646 14.3676 109.856 18.4584Z" fill="#F51A50"/>
</svg>
