<svg width="116" height="55" viewBox="0 0 116 55" fill="none" xmlns="http://www.w3.org/2000/svg">
<path d="M40.7057 26.0653L30.2067 32.1203C30.1151 32.0059 30.1518 31.8961 30.1472 31.7954C30.1472 30.7839 30.1197 29.7725 30.1197 28.7564C30.1197 28.523 30.0465 28.4727 29.8176 28.4452C29.5452 28.4076 29.2677 28.4452 29.0151 28.5542C28.7626 28.6631 28.5447 28.8391 28.3851 29.0631C27.0121 30.6787 25.5521 32.2668 24.1242 33.8366C23.3644 34.6833 22.5864 35.5117 21.8358 36.3584C21.3781 36.8756 21.3781 36.8847 21.8358 37.3973L23.4514 39.228C25.2043 41.2098 26.9663 43.1915 28.7055 45.1778C28.82 45.3364 28.974 45.4621 29.1524 45.5424C29.3307 45.6228 29.5269 45.6548 29.7215 45.6355C30.2387 45.5897 30.1792 45.6721 30.1792 45.1778C30.1792 44.1618 30.1792 43.1503 30.1792 42.1343V41.8276C30.3257 41.8276 30.3989 41.8963 30.4859 41.9466L39.7629 47.4387C39.9735 47.5623 40.1931 47.6813 40.3991 47.8186C40.605 47.9559 40.573 48.0978 40.3991 48.203L36.5272 50.4319L30.4355 53.9286L30.2067 54.0476C30.1639 53.9612 30.1495 53.8634 30.1655 53.7684C30.1655 52.8896 30.1655 52.0109 30.1655 51.1367C30.1655 50.8667 30.106 50.7752 29.8222 50.7798C28.9069 50.7798 27.9641 50.7798 27.035 50.7798C26.9212 50.7862 26.8074 50.7656 26.7032 50.7194C26.5989 50.6732 26.5071 50.6029 26.4354 50.5143C23.6558 47.4174 20.8686 44.3204 18.0737 41.2235C17.822 40.9443 17.8357 40.958 17.5748 41.251C16.3117 42.6606 15.0485 44.0611 13.7807 45.4661C12.2551 47.1656 10.7296 48.8621 9.20397 50.5555C9.14576 50.6355 9.06931 50.7005 8.98096 50.7451C8.89261 50.7897 8.7949 50.8125 8.69595 50.8118C5.97431 50.8118 3.24961 50.8118 0.521872 50.8118C0.260997 50.8118 0.178615 50.7477 0.183192 50.4777C0.183192 48.9521 0.183192 47.4265 0.183192 45.9009C0.183192 45.6446 0.247267 45.5623 0.512718 45.5668C2.44411 45.5668 4.38007 45.5943 6.31146 45.608C6.39752 45.6145 6.4839 45.6005 6.56347 45.5671C6.64304 45.5337 6.71354 45.4818 6.76914 45.4158C8.59984 43.3471 10.4305 41.2845 12.2612 39.228C12.8608 38.5507 13.4603 37.855 14.0691 37.196C14.2247 37.0266 14.2247 36.9351 14.0691 36.7612C11.6068 34.0334 9.1521 31.3011 6.70506 28.5642C6.64855 28.5001 6.57752 28.4504 6.4979 28.4194C6.41828 28.3883 6.33238 28.3768 6.24739 28.3857C4.33888 28.3857 2.4258 28.3857 0.512718 28.3857C0.25642 28.3857 0.174039 28.3216 0.178615 28.0562C0.178615 26.523 0.178615 24.9943 0.178615 23.4794C0.178615 23.2231 0.25642 23.1682 0.498988 23.1682C3.18096 23.1682 5.86294 23.1682 8.54492 23.1682C8.63152 23.1607 8.71865 23.1747 8.79851 23.209C8.87838 23.2434 8.94849 23.297 9.00259 23.365C9.6708 24.1339 10.3482 24.8982 11.0438 25.6534C12.8745 27.658 14.7052 29.6901 16.568 31.7039C16.9295 32.102 17.3002 32.4956 17.6481 32.903C17.8037 33.086 17.8861 33.0952 18.0508 32.903C19.8449 30.8709 21.6466 28.8434 23.456 26.8205C24.4583 25.6946 25.456 24.5596 26.4492 23.4291C26.5131 23.3424 26.5965 23.2719 26.6927 23.2234C26.7889 23.1749 26.8952 23.1497 27.0029 23.1499C27.9458 23.1499 28.884 23.1499 29.8222 23.1499C30.0648 23.1499 30.1289 23.0813 30.1243 22.8478C30.1243 21.9325 30.1243 21.0171 30.1243 20.1018C30.1243 19.8821 30.1655 19.8409 30.3669 19.9599C31.6804 20.738 33.0214 21.484 34.3166 22.2895C35.2731 22.8845 36.2388 23.4703 37.2183 24.0103C38.3258 24.6236 39.4014 25.2873 40.5044 25.9051C40.5547 25.9646 40.605 26.0012 40.7057 26.0653Z" fill="#51BD8D"/>
<path d="M57.2096 11.1338V0.492831C57.2096 0.0351562 57.2096 0.0351562 57.6673 0.0351562H71.1596C71.6401 0.0351562 71.6401 0.0351562 71.6401 0.492831C71.6401 1.50429 71.6401 2.52033 71.6401 3.53179C71.6401 4.01693 71.6401 4.01693 71.1413 4.01693H62.1983C61.7406 4.01693 61.7406 4.01693 61.7406 4.4746V8.2733C61.7406 8.73098 61.7406 8.73098 62.2257 8.73098H69.6401C70.0978 8.73098 70.0978 8.73098 70.0978 9.18865V12.2322C70.0978 12.7265 70.0978 12.7265 69.608 12.7265H62.1846C61.7269 12.7265 61.7269 12.7265 61.7269 13.1842V17.587C61.7269 18.0447 61.7269 18.0447 62.1846 18.0447H71.1779C71.6676 18.0447 71.6676 18.0447 71.6676 18.539C71.6676 19.6374 71.6676 20.7358 71.6676 21.8342C71.6676 22.118 71.576 22.2187 71.2877 22.2187C66.711 22.2187 62.1495 22.2187 57.6032 22.2187C57.2508 22.2187 57.2142 22.0585 57.2142 21.761C57.2112 18.243 57.2096 14.7006 57.2096 11.1338Z" fill="#241F21"/>
<path d="M101.38 36.904V26.2905C101.38 25.8008 101.38 25.8008 101.87 25.8008H115.334C115.824 25.8008 115.824 25.8008 115.829 26.2905V29.3295C115.829 29.7871 115.829 29.7871 115.371 29.7871H106.405C105.883 29.7871 105.883 29.7871 105.883 30.3135V34.0527C105.883 34.5103 105.883 34.5378 106.341 34.5378H113.755C114.213 34.5378 114.213 34.5378 114.213 34.9955V38.0985C114.213 38.4921 114.213 38.5104 113.801 38.5104H106.355C105.897 38.5104 105.897 38.5104 105.897 38.9681V43.403C105.897 43.7966 105.92 43.8149 106.314 43.8149H115.334C115.833 43.8149 115.838 43.8149 115.838 44.3275C115.838 45.4167 115.838 46.506 115.838 47.5907C115.838 47.8973 115.737 47.9934 115.435 47.9934C110.886 47.9934 106.335 47.9934 101.783 47.9934C101.403 47.9934 101.385 47.9934 101.385 47.5632L101.38 36.904Z" fill="#241F21"/>
<path d="M86.9034 42.2402C87.0827 41.8327 87.2251 41.41 87.329 40.9771C88.577 36.8549 89.8264 32.7313 91.0774 28.6061C91.3245 27.7869 91.5763 26.9676 91.8097 26.1484C91.8245 26.0414 91.8808 25.9444 91.9664 25.8785C92.052 25.8126 92.1601 25.7829 92.2674 25.796C93.5031 25.796 94.7388 25.796 95.9745 25.796C96.391 25.796 96.4322 25.8234 96.2857 26.2536C95.648 28.3223 95.0088 30.391 94.3681 32.4597L90.7067 44.2906C90.3314 45.5035 89.9515 46.7117 89.5854 47.9246C89.5677 48.007 89.5199 48.0799 89.4514 48.129C89.3828 48.1781 89.2984 48.1999 89.2147 48.19C87.6311 48.19 86.0475 48.19 84.464 48.19C84.1894 48.19 84.1024 48.0481 84.0338 47.8239C83.4068 45.7552 82.7706 43.7048 82.139 41.6132C81.3854 39.0808 80.6134 36.5529 79.8232 34.0295C79.0329 31.4452 78.2427 28.8609 77.4524 26.2765C77.3197 25.8189 77.3471 25.8189 77.8002 25.8189C79.036 25.8189 80.2717 25.8189 81.5074 25.8189C81.6262 25.8017 81.747 25.8319 81.8437 25.903C81.9405 25.974 82.0054 26.0802 82.0246 26.1987C82.7797 28.7388 83.5532 31.2743 84.313 33.8099C85.1429 36.5559 85.9728 39.302 86.8027 42.048C86.8256 42.0846 86.8576 42.1395 86.9034 42.2402Z" fill="#241F21"/>
<path d="M42.7746 16.5107L43.3238 14.7075C44.3124 11.4366 45.2994 8.16272 46.2849 4.88577C46.7426 3.38002 47.2003 1.87427 47.658 0.363943C47.675 0.254952 47.7336 0.156819 47.8215 0.0902248C47.9095 0.0236306 48.0198 -0.00622277 48.1294 0.00695644C49.388 0.00695644 50.642 0.00695644 51.9006 0.00695644C52.1798 0.00695644 52.2439 0.0710309 52.1569 0.354789C50.9364 4.32131 49.716 8.28782 48.4955 12.2543C47.4886 15.513 46.4833 18.7716 45.4794 22.0303C45.4635 22.1431 45.4035 22.245 45.3126 22.3137C45.2216 22.3823 45.1072 22.4121 44.9943 22.3964C43.4504 22.3964 41.9096 22.3964 40.3718 22.3964C40.258 22.4062 40.1448 22.3731 40.0542 22.3037C39.9636 22.2343 39.9022 22.1335 39.8821 22.0211C38.6189 17.8471 37.3435 13.6747 36.0559 9.50371C35.1405 6.45255 34.213 3.41358 33.2732 0.386827C33.1725 0.0573007 33.2 0.0161099 33.5478 0.0161099H37.4426C37.5361 0.00303022 37.6309 0.0274592 37.7063 0.084059C37.7818 0.140659 37.8318 0.224828 37.8454 0.318175C39.3435 5.29768 40.8478 10.2787 42.3581 15.2613C42.4622 15.6885 42.6015 16.1064 42.7746 16.5107Z" fill="#241F21"/>
<path d="M21.4789 11.1034V3.94532C21.4789 3.48765 21.4789 3.48765 21.0213 3.48765C20.2524 3.48765 19.4789 3.48765 18.7329 3.48765C18.472 3.48765 18.3759 3.39611 18.3805 3.13524C18.3805 2.21989 18.3805 1.29081 18.3805 0.347995C18.3805 0.0871207 18.472 -0.00441427 18.7329 0.00016248C22.0892 0.00016248 25.4454 0.00016248 28.8017 0.00016248C29.0718 0.00016248 29.1496 0.114581 29.145 0.361726C29.145 1.27708 29.145 2.19243 29.145 3.10778C29.145 3.3778 29.0489 3.48765 28.7743 3.48307C28.0145 3.48307 27.2548 3.48307 26.4859 3.48307C26.0282 3.48307 26.0282 3.48307 26.0282 3.94074V18.3438C26.0282 18.7511 26.0282 18.7648 26.4859 18.7648C27.2456 18.7648 28.0054 18.7648 28.7743 18.7648C29.0626 18.7648 29.1679 18.8564 29.1633 19.1493C29.1633 20.0646 29.1633 20.9724 29.1633 21.8724C29.1633 22.1608 29.0534 22.2569 28.7743 22.2569H18.7649C18.4537 22.2569 18.3622 22.1379 18.3667 21.845C18.3667 20.9479 18.3667 20.0509 18.3667 19.1539C18.3667 18.8701 18.4537 18.7603 18.7466 18.7648C19.5201 18.7648 20.289 18.7648 21.0579 18.7648C21.4515 18.7648 21.4698 18.7648 21.4698 18.3529C21.4789 15.9364 21.482 13.5199 21.4789 11.1034Z" fill="#241F21"/>
<path d="M65.6443 36.9104V29.757C65.6443 29.2993 65.6443 29.2993 65.1866 29.2993C64.4268 29.2993 63.6671 29.2993 62.8982 29.2993C62.6282 29.2993 62.5229 29.2169 62.5275 28.9332C62.5275 28.0178 62.5275 27.1025 62.5275 26.1871C62.5275 25.9171 62.6145 25.8164 62.8936 25.8164H72.871C73.141 25.8164 73.2508 25.9034 73.2462 26.1825C73.2462 27.0979 73.2462 28.0132 73.2462 28.9286C73.2462 29.1986 73.1547 29.3039 72.8801 29.2993C72.1204 29.2993 71.3606 29.2993 70.5917 29.2993C70.2988 29.2993 70.1752 29.3817 70.1752 29.6929C70.1752 34.529 70.1752 39.3651 70.1752 44.2012C70.1752 44.5033 70.2942 44.5811 70.5688 44.5765C71.3286 44.5765 72.0883 44.5765 72.8572 44.5765C73.1456 44.5765 73.2417 44.6818 73.2371 44.9655C73.2371 45.8809 73.2371 46.7962 73.2371 47.7116C73.2371 48.0091 73.1227 48.0914 72.8435 48.0914C69.5269 48.0914 66.2103 48.0914 62.8936 48.0914C62.6053 48.0914 62.5092 47.9908 62.5138 47.7024C62.5138 46.7871 62.5138 45.8717 62.5138 44.9793C62.5138 44.6818 62.619 44.5902 62.9028 44.5948C63.6625 44.5948 64.4223 44.5948 65.1912 44.5948C65.6214 44.5948 65.6488 44.5948 65.6488 44.1371L65.6443 36.9104Z" fill="#241F21"/>
<path d="M0 11.1241V0.469394C0 0.0117188 0 0.0117188 0.457675 0.0117188H4.11907C4.57675 0.0117188 4.57675 0.0117188 4.57675 0.469394V17.6734C4.57675 18.0578 4.59963 18.0762 4.99781 18.0807H13.4328C13.8676 18.0807 13.8904 18.0807 13.8904 18.5384C13.8904 19.646 13.8904 20.7535 13.8904 21.8657C13.8904 22.1632 13.8035 22.273 13.4923 22.2685H0.402754C0.018307 22.2685 0 22.2685 0 21.8474V11.1241Z" fill="#241F21"/>
<path d="M44.166 36.9131V26.2996C44.166 25.8008 44.166 25.8008 44.6785 25.8008H48.1935C48.6512 25.8008 48.6512 25.8008 48.6512 26.2585V43.1284C48.6512 43.8652 48.6512 43.8652 49.3743 43.8652H57.5438C58.0015 43.8652 58.0015 43.8652 58.0015 44.3229C58.0015 45.3984 58.0015 46.4785 58.0015 47.5541C58.0015 48.0117 58.0015 48.0117 57.5438 48.0117H44.6007C44.1751 48.0117 44.1431 48.0117 44.1431 47.5541L44.166 36.9131Z" fill="#241F21"/>
</svg>
