<svg width="114" height="65" viewBox="0 0 114 65" fill="none" xmlns="http://www.w3.org/2000/svg">
<path d="M6.8943 0.000170231V7.07812H40.7838L34.5833 0.000170231H6.8943Z" fill="#FF8C4D"/>
<path d="M0.697632 0.000562668V23.0822L6.89471 30.1602V0.000562668H0.697632Z" fill="#FF5A00"/>
<path d="M73.2098 57.8361L79.4103 64.9141H107.099V57.8361H73.2098Z" fill="#FF8C4D"/>
<path d="M107.098 64.916H113.302V41.8378L107.098 34.7599V64.916Z" fill="#FF5A00"/>
<path d="M20.2426 17.0809H16.4851V30.793H26.1437V27.3486H20.2426V17.0809Z" fill="#FF5A00"/>
<path d="M34.0607 30.959C38.0281 30.959 41.1386 27.8725 41.1386 23.9361C41.1386 19.9997 38.0281 16.9166 34.0607 16.9166C30.0933 16.9166 26.9827 19.9997 26.9827 23.9361C26.9827 27.8725 30.0933 30.959 34.0607 30.959ZM34.0607 20.3954C35.9738 20.3954 37.3089 21.8509 37.3089 23.9361C37.3089 26.0213 35.9738 27.4768 34.0607 27.4768C32.1475 27.4768 30.8125 26.0213 30.8125 23.9361C30.8125 21.8509 32.1475 20.3954 34.0607 20.3954Z" fill="#FF5A00"/>
<path d="M55.1301 30.9375V17.0362H51.5378L51.5447 23.2711L43.2039 16.8401V30.7448H46.7962L46.7928 24.534L55.1301 30.9375Z" fill="#FF5A00"/>
<path d="M98.9222 17.0347H95.3299L95.3368 23.2697L86.996 16.8386V30.7468H90.5883L90.5849 24.5325L98.9222 30.9395V17.0347Z" fill="#FF5A00"/>
<path d="M62.1313 17.0829H57.6925V30.7949H62.1313C66.3636 30.7949 69.3193 27.9734 69.3193 23.9372C69.3193 19.901 66.3636 17.0829 62.1313 17.0829ZM61.4465 20.5272H62.004C64.8702 20.5272 65.4724 22.3819 65.4724 23.9372C65.4724 25.4959 64.8702 27.3506 62.004 27.3506H61.4465V20.5272Z" fill="#FF5A00"/>
<path d="M77.9678 16.9166C74.0004 16.9166 70.8933 19.9997 70.8933 23.9395C70.8933 27.8759 74.0004 30.959 77.9678 30.959C81.9352 30.959 85.0457 27.8759 85.0457 23.9395C85.0457 19.9997 81.9352 16.9166 77.9678 16.9166ZM77.9678 27.4802C76.0581 27.4802 74.7196 26.0213 74.7196 23.9395C74.7196 21.8509 76.0581 20.3954 77.9678 20.3954C79.8809 20.3954 81.216 21.8509 81.216 23.9395C81.216 26.0213 79.8809 27.4802 77.9678 27.4802Z" fill="#FF5A00"/>
<path d="M20.2427 36.1259H16.4852V49.8379H26.1438V46.3935H20.2427V36.1259Z" fill="#FF5A00"/>
<path d="M27.5938 49.8359H31.3513V36.1239H27.5938V49.8359Z" fill="#FF5A00"/>
<path d="M39.4911 42.492L36.2808 36.1263H32.1861L39.467 50.1309L46.459 36.1263H42.6361L39.4911 42.492Z" fill="#FF5A00"/>
<path d="M47.3229 49.8379H57.2396V46.3935H51.0804V44.6559H56.5721V41.27H51.0804V39.5702H57.2396V36.1259H47.3229V49.8379Z" fill="#FF5A00"/>
</svg>
