<svg width="80" height="60" viewBox="0 0 80 60" fill="none" xmlns="http://www.w3.org/2000/svg">
<g clip-path="url(#clip0)">
<path d="M10.019 0L0 60H20.7537L23.3751 43.6809L39.6858 59.9266L56.1786 43.6809L58.6829 60H79.4366L69.6481 0L39.892 29.6618L10.019 0Z" fill="black"/>
<path d="M39.4416 38.2377C35.0287 38.2377 31.4517 34.7902 31.4517 30.5384C31.4517 26.2838 35.0294 22.8363 39.4416 22.8363C43.8524 22.8363 47.4308 26.2845 47.4308 30.5384C47.4308 34.7902 43.8538 38.2377 39.4416 38.2377ZM39.8982 12.2269C42.6989 7.57057 45.6612 2.93887 47.8473 0H34.8758C28.5593 8.55207 22.6615 18.8019 20.9859 25.7519C20.5563 27.2787 20.3262 28.8808 20.3262 30.537C20.3262 40.6524 28.8855 48.8506 39.4416 48.8506C49.9977 48.8506 58.5571 40.6524 58.5571 30.537C58.5586 20.5686 50.2438 12.4598 39.8982 12.2269Z" fill="#E22122"/>
</g>
<defs>
<clipPath id="clip0">
<rect width="79.4366" height="60" fill="white"/>
</clipPath>
</defs>
</svg>
