<svg width="62" height="77" viewBox="0 0 62 77" fill="none" xmlns="http://www.w3.org/2000/svg">
<path d="M0.343567 50.668C0.497525 50.2068 0.466344 49.721 0.531305 49.2482C0.739831 47.7228 1.11011 46.2518 1.77661 44.8522C2.65359 43.0095 3.1408 41.0645 3.13301 39.0149C3.13301 38.6693 3.15249 38.3223 3.12911 37.9772C3.08169 37.2917 3.42858 36.8662 4.02298 36.6308C4.54267 36.4252 5.08184 36.263 5.61842 36.1015C5.81331 36.0419 5.92829 35.942 5.98286 35.7455C6.03483 35.5593 6.11278 35.3803 6.17774 35.1987C6.40381 34.5897 6.85789 34.2524 7.50945 34.27C9.431 34.3225 11.3526 34.3945 13.2741 34.4541C14.6123 34.4957 15.9512 34.5274 17.29 34.567C20.4419 34.6595 23.5941 34.7529 26.7464 34.8472C28.7654 34.9043 30.7851 34.949 32.8047 35.0003C33.906 35.0279 35.0071 35.0567 36.108 35.0865C36.6277 35.1008 37.0331 35.3459 37.3728 35.7208C37.7126 36.0957 37.9685 36.5413 38.2576 36.9577C38.4791 37.2768 38.7045 37.5946 39.0501 37.8008C39.625 38.14 40.0895 38.033 40.4143 37.4525C40.6391 37.0485 40.8145 36.6178 41.0217 36.204C41.9091 34.4373 43.791 33.7809 45.5976 34.6033C45.6625 34.6325 45.721 34.6954 45.8321 34.6597V34.3173C45.8321 32.5895 45.8353 30.8617 45.8269 29.1339C45.8269 28.9127 45.8762 28.8258 46.1114 28.842C46.4142 28.8638 46.7181 28.8638 47.0209 28.842C47.2703 28.8219 47.3229 28.9069 47.3216 29.1462C47.3119 31.1438 47.3158 33.1414 47.3158 35.139C47.3158 35.5678 47.3158 35.5665 47.7523 35.4633C48.3569 35.3182 48.9007 34.9872 49.3069 34.5171C49.9935 33.7491 50.8659 33.4703 51.8514 33.4443C51.9048 33.4371 51.9587 33.4347 52.0125 33.4372C52.8187 33.5591 53.2571 33.1382 53.6027 32.4643C54.4336 30.8377 55.6958 29.5729 57.123 28.4613C57.3992 28.2517 57.7059 28.0857 58.0325 27.969C58.8828 27.6525 59.6045 27.923 60.0274 28.722C60.3854 29.3991 60.5965 30.1139 60.5906 30.8889C60.5906 31.3274 60.6809 31.7217 61.0077 32.0713C61.2844 32.367 61.3085 32.8029 61.3734 33.194C61.5566 34.2914 61.6924 35.3933 61.6605 36.5101C61.649 36.7467 61.5664 36.9743 61.4234 37.1633C61.0986 37.6173 60.779 38.0842 60.4178 38.5123C59.9241 39.096 59.7429 39.7712 59.7169 40.5138C59.6929 41.1922 59.7663 41.8758 59.6273 42.5484C59.4574 43.41 59.0881 44.22 58.5489 44.9138C57.7947 45.8704 57.5745 46.9529 57.5556 48.1216C57.5349 49.2534 57.7193 50.3573 57.9571 51.4547C58.2878 52.9795 58.3222 54.5335 58.4586 56.079C58.7561 59.4646 57.6284 62.3015 55.3015 64.7194C54.6869 65.3583 54.0607 65.9848 53.3949 66.5679C52.6277 67.2411 52.373 68.0881 52.4646 69.0681C52.5107 69.563 52.5855 70.0579 52.7608 70.5222C53.0636 71.3239 53.0207 72.1229 52.8472 72.9395C52.6527 73.8793 52.3395 74.7907 51.9151 75.6518C51.8501 75.777 51.7767 75.8951 51.7137 76.0202C50.9991 77.451 49.592 77.0742 48.8391 76.4048C48.1934 75.8302 47.9414 75.05 47.7764 74.2373C47.6114 73.4246 47.5743 72.5899 47.5776 71.7578C47.584 71.239 47.503 70.7229 47.3379 70.231C46.8338 68.7562 45.6742 68.0765 44.2503 67.7839C42.8263 67.4914 41.5018 67.7664 40.3617 68.7179C39.7264 69.2478 39.0423 69.3431 38.2784 69.0227C37.7327 68.7944 37.2039 68.4974 36.6095 68.4221C34.4593 68.1497 32.5559 68.7121 30.904 70.1286C29.6872 71.1715 28.9785 72.4634 28.7472 74.0589C28.5296 75.5604 27.194 76.2868 25.7688 75.7602C25.4449 75.6398 25.1362 75.4822 24.8489 75.2906C23.7063 74.533 22.5597 73.782 21.4294 73.0069C20.733 72.5289 19.9846 72.2423 19.1369 72.2338C17.9754 72.2222 16.9834 71.7494 16.0564 71.104C15.7313 70.89 15.4186 70.6578 15.1197 70.4087C13.736 69.1881 12.1042 68.5123 10.3125 68.1575C9.50671 68.0068 8.71212 67.8014 7.9343 67.5427C5.70872 66.7767 4.14835 65.2383 2.96151 63.2672C2.02606 61.7107 1.50832 60.0088 1.1244 58.2537C0.798296 56.7678 0.52221 55.2742 0.394237 53.7558C0.383857 53.7172 0.366701 53.6808 0.343567 53.6482L0.343567 50.668ZM45.8314 45.3606C45.8314 42.4455 45.8314 39.5301 45.8314 36.6146C45.8314 36.4848 45.8639 36.3473 45.7424 36.2254C44.5861 35.0476 42.8192 35.344 42.1189 36.8364C41.9136 37.2748 41.7337 37.7269 41.4777 38.1413C40.7631 39.2951 39.4821 39.5792 38.344 38.8398C37.8704 38.5331 37.5281 38.1063 37.2117 37.6523C36.9713 37.3072 36.7329 36.9603 36.4867 36.6198C36.4219 36.5265 36.334 36.4515 36.2315 36.4022C36.1291 36.3529 36.0156 36.3309 35.9021 36.3383C35.4383 36.3383 34.9744 36.3117 34.5106 36.2987C32.1032 36.2334 29.6957 36.1686 27.2882 36.1041C25.8097 36.0631 24.331 36.0198 22.852 35.9744C19.8395 35.8879 16.8275 35.8015 13.8159 35.715C11.9911 35.6631 10.1664 35.6183 8.3416 35.5606C7.425 35.5321 7.42175 35.5204 7.0885 36.385C7.02595 36.5575 6.9248 36.7134 6.79275 36.841C6.6607 36.9686 6.50124 37.0644 6.3265 37.1211C5.97052 37.2469 5.61713 37.3805 5.26179 37.5057C4.37831 37.8235 4.36012 37.8242 4.38221 38.7672C4.43808 41.1566 3.86772 43.4013 2.84588 45.5448C2.37361 46.5359 2.08648 47.5801 1.89679 48.658C1.69021 49.83 1.6311 51.0149 1.59212 52.1999C1.54535 53.6359 1.75128 55.0069 2.57239 56.247C3.64685 57.8685 4.75314 59.4601 6.00949 60.9499C7.46008 62.6699 9.22248 63.838 11.4662 64.2369C12.7921 64.4729 14.0686 64.8498 15.2165 65.5879C15.8999 66.0276 16.5319 66.5335 17.1653 67.042C17.8903 67.6257 18.6899 67.9727 19.6416 67.8923C20.1584 67.8531 20.6775 67.8575 21.1935 67.9052C21.849 67.9604 22.4577 68.14 23.0092 68.522C24.0402 69.2355 25.0003 70.0429 25.9974 70.7979C26.5223 71.1948 26.9569 71.0379 27.1401 70.3997C27.166 70.3062 27.1864 70.2114 27.2012 70.1156C27.2707 69.6901 27.32 69.2608 27.409 68.8398C27.8904 66.551 29.1396 64.8757 31.3457 63.9807C32.821 63.3827 34.3495 63.4378 35.8781 63.6668C36.7407 63.7965 37.5904 64.0105 38.446 64.1856C38.7299 64.2427 38.9878 64.2213 39.2327 64.0196C39.5387 63.7774 39.8931 63.6033 40.272 63.5092C42.8588 62.821 45.2851 63.1849 47.5009 64.6987C48.7482 65.5509 49.392 66.7689 49.4413 68.2859C49.463 68.8682 49.5358 69.4475 49.6589 70.017C49.8148 70.7564 49.9896 71.4932 50.4216 72.132C50.5398 72.3065 50.6814 72.4991 50.9413 72.4407C51.2011 72.3824 51.2421 72.1554 51.2823 71.9433C51.4337 71.1501 51.2882 70.375 51.1082 69.6084C50.89 68.6757 50.519 67.7826 50.3937 66.8247C50.2248 65.5165 50.4969 64.3601 51.4915 63.4281C51.956 62.9922 52.4165 62.5512 52.868 62.1024C53.9496 61.0271 54.7623 59.796 55.1794 58.3063C55.9764 55.459 55.9797 52.5832 55.5964 49.6802C55.4015 48.1884 55.2216 46.6876 55.2774 45.1706C55.3346 43.6036 55.6211 42.1353 56.7189 40.9185C57.1405 40.4516 57.3374 39.8652 57.3861 39.2322C57.4381 38.5655 57.4842 37.8974 57.5738 37.2359C57.7382 36.0244 58.1338 34.9133 59.0601 34.0481C59.2823 33.8247 59.4895 33.5871 59.6805 33.3366C59.8865 33.0863 59.8923 32.8586 59.6519 32.596C59.0933 31.985 58.8873 31.2618 59.0517 30.4394C59.1342 30.0282 59.1167 29.6274 58.8847 29.2545C58.7964 29.1105 58.7009 29.0651 58.5372 29.1248C58.2407 29.2282 57.9649 29.3832 57.7226 29.5827C56.5182 30.5815 55.4009 31.6627 54.696 33.085C54.1764 34.1286 53.4235 34.7544 52.2093 34.7064C52.1229 34.7032 52.0365 34.7123 51.9495 34.7064C51.2297 34.6837 50.6412 34.9179 50.1306 35.4594C49.4459 36.1904 48.5988 36.6859 47.5704 36.7793C47.3515 36.7988 47.3106 36.8733 47.3106 37.0692C47.3154 42.7923 47.3154 48.5151 47.3106 54.2377C47.3106 54.4323 47.371 54.4913 47.5483 54.5289C48.2815 54.6799 48.9665 55.0079 49.5433 55.4843C51.0212 56.703 51.1082 58.6857 49.7421 60.0243C48.046 61.6886 44.8758 61.7366 43.0452 60.1255C41.6557 58.903 41.6031 56.9579 42.9309 55.6711C43.663 54.9615 44.5608 54.586 45.5573 54.4505C45.8171 54.4154 45.834 54.3143 45.834 54.1048C45.8297 51.1909 45.8288 48.2762 45.8314 45.3606ZM27.8105 71.4166L27.6429 71.5762C27.0134 72.1781 26.2748 72.2702 25.5596 71.7649C24.8444 71.2597 24.1642 70.6779 23.4549 70.1506C22.9637 69.7855 22.496 69.382 21.9296 69.1259C21.7126 69.0279 21.6301 69.0545 21.634 69.3204C21.6463 70.2369 21.6424 71.1533 21.634 72.0697C21.634 72.2299 21.6905 72.3175 21.8185 72.4077C22.954 73.2106 24.133 73.9487 25.292 74.7159C25.672 74.9676 26.0825 75.1544 26.5412 75.2121C27.1258 75.2848 27.7969 74.8716 27.8047 74.4072C27.8222 73.4363 27.8105 72.466 27.8105 71.4166ZM47.1943 68.5253C47.1943 67.6173 47.1904 66.7799 47.1982 65.94C47.1986 65.8816 47.1838 65.824 47.1552 65.7729C47.1266 65.7219 47.0853 65.6791 47.0352 65.6488C45.6352 64.5787 44.0268 64.2181 42.2995 64.2479C42.1507 64.2479 42.1234 64.3082 42.1241 64.4425C42.1286 65.2623 42.1299 66.0814 42.1241 66.9012C42.1241 67.0569 42.1819 67.0861 42.319 67.0556C42.6351 66.9852 42.9585 66.953 43.2823 66.9596C44.7583 66.9771 46.0562 67.4687 47.1943 68.5253ZM6.20373 65.8583C6.20373 64.77 6.20373 63.7608 6.20373 62.7516C6.20373 62.6537 6.14461 62.5947 6.0829 62.5337C4.42444 60.8779 3.10117 58.9665 1.82079 57.0162C1.74998 56.9079 1.71165 56.7698 1.5473 56.6809C2.18587 60.2021 3.15964 63.5053 6.20503 65.8583H6.20373ZM15.1924 66.8312C15.1924 67.7431 15.1924 68.5823 15.1924 69.4222C15.1924 69.552 15.2619 69.6168 15.3509 69.6817C15.7511 69.9761 16.1409 70.2855 16.5508 70.5644C17.3173 71.0833 18.1261 71.5003 19.0914 71.4996C19.2428 71.4996 19.296 71.4919 19.2941 71.3252C19.285 70.591 19.2869 69.8568 19.2941 69.12C19.2941 68.9773 19.248 68.9345 19.1109 68.9339C18.1936 68.9274 17.4219 68.5447 16.7073 68.0051C16.2182 67.6341 15.7394 67.2528 15.1937 66.8299L15.1924 66.8312ZM38.4986 66.8013V65.7999C38.4986 65.3349 38.4986 65.3388 38.0257 65.237C37.8373 65.1961 37.6528 65.1351 37.4683 65.0781C36.9538 64.9198 36.4393 64.7687 35.9008 64.709C35.7572 64.6935 35.689 64.6935 35.691 64.8699C35.6988 65.7208 35.6955 66.5718 35.691 67.4227C35.691 67.5323 35.704 67.6023 35.8436 67.6049C36.7109 67.6192 37.5144 67.8838 38.2888 68.249C38.4888 68.3437 38.4999 68.2548 38.4979 68.094C38.4966 67.662 38.4999 67.2307 38.4999 66.8033L38.4986 66.8013ZM43.0231 58.7188C43.7754 58.0598 44.6582 57.6953 45.6417 57.5708C45.7879 57.552 45.8399 57.4994 45.8366 57.347C45.8282 56.7218 45.8243 56.0966 45.8366 55.4713C45.8405 55.267 45.7632 55.2378 45.5924 55.269C44.7667 55.4175 44.021 55.7275 43.4305 56.343C42.7575 57.0448 42.5976 57.9612 43.0231 58.7188ZM47.319 56.4617C47.319 56.7743 47.3307 57.0876 47.3145 57.3989C47.3054 57.5669 47.3756 57.6266 47.5224 57.6583C48.266 57.8008 48.9599 58.1336 49.5362 58.6241C49.6843 58.7538 49.7259 58.6805 49.7726 58.5482C49.9422 58.0734 49.9584 57.5954 49.7609 57.1297C49.3315 56.1186 48.4812 55.6348 47.4788 55.3494C47.3353 55.3092 47.3158 55.3747 47.3177 55.494C47.3197 55.8151 47.3164 56.1387 47.3164 56.4617H47.319ZM51.6513 73.2819C50.9738 73.6581 50.3521 73.5641 49.7616 72.9972V75.9735C49.7616 76.0617 49.7668 76.137 49.8642 76.1882C50.189 76.3594 50.6366 76.2887 50.8516 75.9898C51.4207 75.1952 51.8579 74.3534 51.6487 73.2819H51.6513ZM45.8314 60.4355C45.8314 59.7941 45.8282 59.1708 45.8314 58.5482C45.8314 58.3997 45.7827 58.364 45.6417 58.3893C44.9434 58.5132 44.2983 58.7544 43.7325 59.1955C43.5318 59.3518 43.5097 59.4549 43.7273 59.6164C44.3408 60.0758 45.0684 60.359 45.8314 60.4355ZM58.2968 43.9526C58.5801 43.4558 58.7776 43.0089 58.7685 42.4608C58.7412 40.735 58.7587 39.0085 58.7587 37.2819V36.9577H58.6795C58.3904 39.2608 58.1176 41.5645 58.2968 43.9526ZM47.3184 58.4522C47.3184 59.0398 47.3242 59.6099 47.3184 60.18C47.3184 60.3947 47.4483 60.3402 47.5509 60.3097C48.0805 60.1623 48.5756 59.9114 49.0074 59.5716C49.1834 59.4309 49.1477 59.3518 48.997 59.2311C48.5079 58.8399 47.9314 58.5727 47.3164 58.4522H47.3184ZM21.0253 71.9082C21.0253 70.9672 21.0253 70.0514 21.0253 69.1356C21.0253 68.7964 20.7687 68.9708 20.6251 68.9371C20.4816 68.9034 20.3568 68.9099 20.3601 69.1317C20.3724 69.9197 20.3653 70.7077 20.3646 71.4958C20.3646 71.5956 20.3646 71.6903 20.4887 71.7254C20.6635 71.7798 20.833 71.8427 21.0253 71.9082ZM10.7893 65.1948V66.9641C10.7893 67.5427 10.7893 67.531 11.3662 67.6776C11.5669 67.7282 11.5799 67.6627 11.5773 67.5018C11.5715 67.0167 11.5773 66.5289 11.5773 66.0457C11.5773 65.3109 11.5773 65.3109 10.8498 65.1896C10.8295 65.189 10.8092 65.1907 10.7893 65.1948ZM54.3914 64.5741C54.8675 64.2648 55.0325 63.8698 54.965 63.36C54.9358 63.1375 54.9604 62.906 54.9604 62.6809V61.3455L54.8844 61.3235C54.7578 61.6062 54.4135 61.7716 54.4011 62.094C54.368 62.9118 54.3914 63.7271 54.3914 64.5741ZM14.1485 68.7685V66.5497C14.1485 66.1249 14.0991 66.0704 13.6437 65.9971C13.6437 66.7105 13.6723 67.424 13.6327 68.1342C13.6106 68.5311 13.8243 68.6466 14.1485 68.7685ZM53.8717 62.6167C53.4774 62.8937 53.2604 63.2004 53.3221 63.6817C53.3656 64.0209 53.3306 64.3705 53.3306 64.7155V65.6579C53.5521 65.3985 53.8502 65.3109 53.8619 65.0482C53.8853 64.2459 53.8717 63.443 53.8717 62.6167ZM12.9188 68.1368V67.3461C12.9188 66.8416 12.9129 66.3363 12.9188 65.8317C12.9233 65.5613 12.7051 65.5969 12.5589 65.5723C12.3374 65.5295 12.4322 65.7221 12.429 65.8097C12.4205 66.4005 12.4543 66.9933 12.414 67.5809C12.3887 67.9604 12.5459 68.1004 12.9155 68.1368H12.9188ZM60.0554 34.5748C59.7871 34.7415 59.6981 34.9192 59.7026 35.1864C59.7176 36.182 59.7085 37.1775 59.7085 38.1731C59.8631 38.0233 60.0554 37.9182 60.0554 37.688V34.5748ZM57.6316 41.5146C57.3893 41.7091 57.3413 41.9121 57.3452 42.1534C57.3575 42.8857 57.3497 43.6186 57.3497 44.3508V45.3023C57.4868 45.1726 57.631 45.0655 57.631 44.8807C57.6329 43.7729 57.6316 42.6671 57.6316 41.5126V41.5146Z" fill="#205E2E"/>
<path d="M45.927 0.549994C46.1222 0.332764 46.3501 0.147209 46.6026 0L46.9923 0C47.2522 0.206248 47.3249 0.469571 47.3243 0.805534C47.3139 6.22376 47.3139 11.6422 47.3243 17.0609C47.3243 17.413 47.2197 17.5025 46.8962 17.4688C46.6484 17.4458 46.3989 17.4458 46.1511 17.4688C45.8984 17.4902 45.8263 17.4098 45.8263 17.1497C45.8373 14.9154 45.8328 12.681 45.8321 10.4467C45.8321 10.3169 45.8224 10.1872 45.8172 10.0575C45.812 9.92779 45.8282 9.79807 45.8282 9.66836C45.8282 6.80467 45.8282 3.94141 45.8282 1.07859C45.8289 0.896335 45.8367 0.716679 45.927 0.549994Z" fill="#205E2E"/>
<path d="M45.927 0.549726C45.8367 0.716411 45.8289 0.896067 45.8289 1.08156C45.8315 3.94482 45.8315 6.80808 45.8289 9.67133C45.8289 9.80105 45.8218 9.93077 45.8179 10.0605C44.9084 9.94374 44.0893 10.2181 43.3305 10.6941C42.8557 10.9918 42.3931 11.3096 41.9287 11.6236C41.6596 11.8144 41.3511 11.9425 41.0259 11.9987C40.7006 12.0548 40.367 12.0374 40.0493 11.9478C39.3802 11.7766 38.7046 11.63 38.0044 11.6612C37.7211 11.6735 37.434 11.6994 37.191 11.8441C36.722 12.1281 36.2023 12.2514 35.6683 12.3428C35.0415 12.4505 34.4425 12.6639 33.8221 12.9155C33.8494 12.42 34.0099 11.9971 34.1788 11.582C34.4295 10.9633 34.6816 10.3439 34.9798 9.74787C35.4871 8.73479 35.706 7.66139 35.7645 6.54194C35.7989 5.88558 35.8671 5.23117 35.9074 4.5748C35.9392 4.05594 36.1672 3.64863 36.6298 3.43071C37.701 2.92742 38.7982 2.48119 39.9428 2.16404C40.1954 2.09382 40.4633 2.10082 40.7119 2.18414C41.1459 2.33461 41.5045 2.2049 41.854 1.93509C42.2535 1.62377 42.6705 1.33451 43.0843 1.04135C43.2513 0.923308 43.4286 0.820184 43.604 0.710574C44.3465 0.241003 45.1176 0.121016 45.927 0.549726Z" fill="#CD1D33"/>
<path d="M24.3475 16.8793C24.0759 17.1154 23.7687 17.223 23.4789 17.354C23.234 17.465 23.0645 17.6323 22.9917 17.882C22.2988 20.2376 21.6102 22.5941 20.926 24.9515C20.8921 25.0435 20.8894 25.144 20.9181 25.2377C20.9468 25.3313 21.0055 25.4131 21.0851 25.4704C21.2969 25.6474 21.5359 25.8024 21.6698 26.0541C21.6048 26.1611 21.5093 26.1189 21.432 26.1189C20.4359 26.1224 19.4412 26.1224 18.4477 26.1189C18.3613 26.1189 18.2262 26.1805 18.195 26.0541C18.1683 25.9458 18.3035 25.9101 18.3782 25.8556C18.4954 25.76 18.6219 25.6761 18.7556 25.6053C19.3656 25.3277 19.6404 24.838 19.8106 24.2024C20.2588 22.5284 20.7655 20.8693 21.2521 19.2051C21.2981 19.0721 21.3201 18.932 21.317 18.7913C21.1293 18.7991 21.0773 18.9489 20.9922 19.0507C19.8781 20.429 18.753 21.791 17.6603 23.1861C17.4232 23.4877 17.1543 23.476 16.862 23.4455C16.5878 23.4176 16.6249 23.14 16.5696 22.963C16.2513 21.9453 15.9519 20.9219 15.6407 19.9023C15.6069 19.7921 15.5959 19.6662 15.4926 19.578C15.3536 19.711 15.3269 19.8984 15.2659 20.0651C14.817 21.2896 14.3785 22.518 13.688 23.6323C13.0949 24.5935 12.3887 25.4483 11.3117 25.8919C10.0664 26.4037 8.8503 26.2979 7.74271 25.5164C6.67604 24.7641 6.5786 23.5707 7.51469 22.6627C8.45078 21.7546 9.62593 21.4427 10.9141 21.5828C11.0824 21.5983 11.245 21.6515 11.3899 21.7384C11.5347 21.8253 11.6581 21.9437 11.7508 22.0848C11.9925 22.4493 11.8385 22.8021 11.4078 22.8793C11.0785 22.9383 10.742 22.9169 10.4698 22.7282C9.83381 22.2871 8.40076 22.7509 7.97072 23.3378C7.56406 23.8924 7.72906 24.6116 8.39946 24.9392C9.33166 25.3932 10.2723 25.412 11.1759 24.8399C11.7443 24.4806 12.175 23.9812 12.5271 23.4189C13.573 21.7475 14.1511 19.9107 14.4363 17.9708C14.4766 17.6978 14.4363 17.4993 14.1674 17.3508C13.9666 17.2392 13.8016 17.0628 13.6074 16.9046C13.7139 16.7878 13.8244 16.8105 13.9244 16.8105C14.5838 16.8105 15.2438 16.819 15.9031 16.8047C16.1812 16.7989 16.3046 16.9143 16.3767 17.1744C16.7515 18.5228 17.14 19.8673 17.5239 21.2137C17.5525 21.3149 17.5441 21.4602 17.6539 21.4887C17.7883 21.5238 17.8487 21.3778 17.9195 21.289C18.9778 19.938 20.0405 18.5902 21.0812 17.2256C21.3157 16.9182 21.5658 16.7859 21.9523 16.8021C22.6214 16.8293 23.2925 16.8092 23.9629 16.8099C24.0818 16.8105 24.2033 16.793 24.3475 16.8793Z" fill="#215E30"/>
<path d="M49.9273 20.2167C51.1382 20.2167 52.3173 20.1752 53.4918 20.2278C54.6663 20.2803 55.171 21.3466 54.535 22.3447C54.3162 22.6951 53.9965 22.9713 53.6178 23.1373C53.4132 23.2268 53.3638 23.3156 53.445 23.5524C53.5444 23.8423 53.5463 24.1653 53.5931 24.474C53.6879 25.1018 53.9829 25.585 54.5883 25.8438C54.6949 25.8892 54.8085 25.9353 54.8579 26.0585C54.804 26.1662 54.7059 26.1201 54.6286 26.1233C54.3473 26.1383 54.0654 26.1383 53.7841 26.1233C53.5061 26.0987 53.2079 26.2343 52.9506 25.9936C52.5771 25.6473 52.3478 25.2374 52.3173 24.727C52.3043 24.5116 52.3173 24.295 52.3069 24.0784C52.3031 23.9062 52.278 23.7352 52.2322 23.5692C52.1406 23.2832 51.8963 23.184 51.6222 23.1769C51.3753 23.1704 51.2707 23.3455 51.2084 23.5595C51.1005 23.9318 51.0135 24.3132 50.8654 24.6686C50.7283 24.9981 50.7699 25.2692 50.9719 25.5403C51.0427 25.635 51.1051 25.7348 51.1713 25.8347C51.2188 25.9054 51.2909 25.9735 51.2402 26.0669C51.196 26.1486 51.1103 26.124 51.0356 26.124C50.2249 26.124 49.4141 26.124 48.6034 26.124C48.5456 26.124 48.4644 26.1545 48.4365 26.0728C48.4085 25.991 48.4774 25.9567 48.5196 25.9113C48.5685 25.8535 48.6246 25.8023 48.6866 25.7588C49.253 25.4021 49.5109 24.8683 49.6694 24.2334C49.9143 23.2521 50.2151 22.2877 50.5139 21.3148C50.599 21.0391 50.5705 20.8517 50.3275 20.6753C50.1787 20.5676 50.0144 20.4489 49.9273 20.2167ZM52.1737 22.6165C52.9461 22.6165 53.4976 22.1359 53.597 21.377C53.6509 20.9646 53.4567 20.7324 53.05 20.7285C52.8227 20.7285 52.5953 20.7395 52.3699 20.7246C52.1601 20.711 52.0496 20.7985 51.9944 20.9931C51.8996 21.3239 51.7956 21.652 51.6949 21.9809C51.489 22.6476 51.45 22.6139 52.1737 22.6139V22.6165Z" fill="#205E2E"/>
<path d="M27.4325 26.1239C27.0219 26.1239 26.6113 26.1239 26.1982 26.1239C26.1274 26.1239 26.0299 26.1602 25.9929 26.0798C25.9474 25.9818 26.0494 25.9313 26.1033 25.8703C26.1367 25.8275 26.1779 25.7914 26.2248 25.7639C26.9732 25.3968 27.0856 24.6646 27.2642 23.9693C27.3175 23.7644 27.2499 23.7021 27.042 23.7131C26.7392 23.7311 26.4355 23.7311 26.1326 23.7131C25.8825 23.6963 25.7668 23.802 25.6817 24.0251C25.3927 24.7807 24.9873 25.4623 24.3338 25.965C23.8349 26.3489 23.273 26.5305 22.6383 26.4449C22.3863 26.4106 22.1836 26.3022 22.0972 26.048C22.0368 25.8716 22.0569 25.6952 22.2076 25.5745C22.3059 25.4886 22.4271 25.4329 22.5565 25.4143C22.6858 25.3956 22.8178 25.4148 22.9365 25.4695C23.6459 25.7749 23.8459 25.714 24.1233 24.9895C24.4182 24.2164 24.6508 23.4193 24.9295 22.6397C25.1556 22.0087 25.4323 21.4009 25.8935 20.897C26.499 20.2354 27.3006 20.0571 28.1444 19.9838C28.7264 19.943 29.3102 19.9331 29.8932 19.954C30.0049 19.954 30.1589 19.9436 30.179 20.0979C30.1959 20.2277 30.0634 20.2789 29.9653 20.3061C29.5918 20.4093 29.4456 20.6888 29.3547 21.0299C29.0097 22.2862 28.6654 23.5425 28.299 24.7917C28.1983 25.1348 28.2341 25.3864 28.5199 25.6193C28.668 25.7412 28.9175 25.8859 28.8447 26.083C28.8025 26.2017 28.5108 26.118 28.3315 26.1232C28.0359 26.1304 27.7332 26.1239 27.4325 26.1239ZM26.7367 23.2053C26.9095 23.2053 27.0823 23.2001 27.2564 23.2053C27.4032 23.2111 27.5026 23.1683 27.5474 23.0146C27.7618 22.2795 27.9783 21.5473 28.1971 20.8179C28.2412 20.6706 28.1834 20.6304 28.0483 20.6116C27.7792 20.5685 27.5033 20.61 27.2589 20.7304C27.0144 20.8507 26.8136 21.0441 26.6841 21.2835C26.4791 21.6622 26.3145 22.0613 26.193 22.4743C25.9604 23.2066 25.9617 23.2072 26.7348 23.2072L26.7367 23.2053Z" fill="#215E30"/>
<path d="M46.0821 20.2051C46.8064 20.2051 47.5308 20.2096 48.2544 20.2051C48.4441 20.2051 48.5539 20.2401 48.4844 20.4561C48.3598 20.8796 48.2079 21.2947 48.0297 21.6987C47.9861 21.7928 47.9329 21.9244 47.8049 21.8862C47.7062 21.857 47.714 21.7286 47.7101 21.6313C47.7049 21.5132 47.7101 21.3933 47.6912 21.2765C47.6302 20.8556 47.4781 20.7285 47.0526 20.7278C46.7499 20.7278 46.4472 20.7362 46.1432 20.7278C45.9158 20.7194 45.7755 20.805 45.7099 21.0255C45.58 21.4691 45.4449 21.9128 45.298 22.3519C45.2246 22.5691 45.3084 22.6113 45.5053 22.6113C45.9425 22.6029 46.3816 22.6158 46.6272 22.145C46.659 22.0833 46.7259 22.0075 46.811 22.058C46.8961 22.1086 46.861 22.1936 46.8422 22.2636C46.698 22.7933 46.5518 23.3228 46.4037 23.852C46.3816 23.9311 46.3706 24.0466 46.2634 24.0395C46.1562 24.0323 46.162 23.9188 46.1471 23.8384C46.0399 23.2547 45.984 23.2171 45.3948 23.1931C45.1753 23.184 45.0525 23.2579 44.9888 23.4661C44.8147 24.0433 44.6367 24.6193 44.447 25.1913C44.3704 25.4216 44.4522 25.4774 44.6692 25.4735C45.1447 25.465 45.6209 25.4683 46.0984 25.4735C46.442 25.4735 46.6466 25.2491 46.8493 25.0253C46.9935 24.8657 47.117 24.688 47.256 24.5233C47.2943 24.4772 47.3515 24.4137 47.4171 24.4636C47.4356 24.4825 47.4498 24.5051 47.4587 24.53C47.4675 24.5548 47.4708 24.5813 47.4684 24.6076C47.4119 25.1044 47.241 25.5701 47.0689 26.0345C47.0202 26.1642 46.8915 26.1506 46.7915 26.1512C45.3325 26.1555 43.8732 26.1555 42.4138 26.1512C42.3358 26.1512 42.228 26.1661 42.1896 26.0682C42.1513 25.9703 42.2319 25.9087 42.2864 25.8438C42.3069 25.8183 42.3315 25.7964 42.3592 25.7789C43.0088 25.3898 43.2738 24.7691 43.4486 24.0628C43.6734 23.1548 43.9501 22.2572 44.2327 21.3641C44.3269 21.0664 44.31 20.8608 44.0423 20.672C43.8988 20.5709 43.6526 20.4197 43.7039 20.2829C43.7617 20.1168 44.0287 20.218 44.1995 20.218C44.8277 20.1979 45.4553 20.2051 46.0821 20.2051Z" fill="#215E30"/>
<path d="M36.941 26.0716C37.0774 25.8083 37.3366 25.6825 37.5477 25.5119C37.7525 25.3545 37.8999 25.1344 37.9674 24.8854C38.3026 23.7261 38.6477 22.5704 39.0029 21.4181C39.0815 21.1586 39.0379 21.0185 38.7768 20.9206C38.5449 20.8343 38.3292 20.7079 38.0674 20.7299C37.7712 20.7552 37.6458 20.8914 37.651 21.1904C37.6549 21.372 37.7225 21.5471 37.6763 21.7359C37.588 22.0913 37.3178 22.2833 36.9566 22.2249C36.6591 22.1769 36.5142 21.9285 36.5668 21.5562C36.7026 20.5749 37.8011 19.8388 38.8502 20.0496C39.505 20.1793 40.1494 20.3518 40.8042 20.5036C41.0161 20.5501 41.2344 20.5589 41.4493 20.5295C41.7436 20.4919 41.9891 20.3777 42.0677 20.0489C42.0874 19.9763 42.1244 19.9095 42.1756 19.8543C42.3568 19.6552 42.5861 19.5949 42.8174 19.7331C43.0616 19.8764 43.0506 20.1183 42.922 20.3285C42.5679 20.9076 42.0359 21.2293 41.3629 21.3085C41.1154 21.3352 40.8661 21.3395 40.6178 21.3214C40.4002 21.3072 40.3066 21.4051 40.254 21.5977C39.9396 22.7509 39.6271 23.9047 39.2978 25.054C39.2218 25.3199 39.3835 25.4509 39.5154 25.6189C39.6304 25.7655 39.8974 25.8848 39.8201 26.0664C39.761 26.2059 39.4875 26.1157 39.3108 26.1177C38.63 26.1248 37.9466 26.1222 37.2671 26.1177C37.1671 26.1196 37.0573 26.152 36.941 26.0716Z" fill="#215E30"/>
<path d="M58.6959 20.2024C58.9986 20.1778 59.3248 20.2997 59.6431 20.4301C60.0127 20.5818 60.3498 20.6039 60.661 20.3068C60.726 20.242 60.8267 20.1654 60.9208 20.2348C60.9923 20.2893 60.9611 20.4002 60.9377 20.4807C60.7892 20.9861 60.6361 21.4901 60.4785 21.9925C60.4544 22.069 60.4284 22.1734 60.3148 22.1618C60.2011 22.1501 60.1939 22.0489 60.1731 21.9672C60.1524 21.8855 60.153 21.796 60.1355 21.7117C60.1037 21.5437 60.0363 21.3846 59.9376 21.245C59.8389 21.1054 59.7113 20.9885 59.5635 20.9024C59.4156 20.8163 59.251 20.763 59.0807 20.7459C58.9104 20.7289 58.7384 20.7486 58.5764 20.8036C58.0755 20.9619 57.6455 21.6611 58.2289 22.1825C58.6095 22.523 59.0402 22.7883 59.4586 23.0737C60.6837 23.909 60.6279 25.1978 59.3241 25.9274C58.6095 26.3289 57.8664 26.4424 57.1031 26.0416C56.7549 25.858 56.4177 25.9034 56.0864 26.0915C55.9676 26.1564 55.8344 26.2789 55.7064 26.1635C55.5784 26.0481 55.6733 25.8995 55.7149 25.7685C55.8669 25.2866 56.0202 24.8047 56.1793 24.3248C56.219 24.2074 56.2358 24.0258 56.3827 24.0271C56.5684 24.0271 56.5444 24.2327 56.573 24.3566C56.7802 25.2477 57.3259 25.6615 58.2198 25.5889C58.6407 25.5551 58.9577 25.3379 59.0454 25.0227C59.139 24.686 59.0077 24.3786 58.6303 24.1211C58.1106 23.7683 57.5812 23.4408 57.1291 23.0004C56.3917 22.2831 56.3827 21.5333 57.1291 20.8173C57.5474 20.4171 58.0457 20.1856 58.6959 20.2024Z" fill="#215E30"/>
<path d="M33.3038 20.2015C33.5636 20.1814 33.8884 20.2981 34.2132 20.4291C34.5809 20.5803 34.92 20.6114 35.2318 20.3111C35.2968 20.2462 35.3962 20.1665 35.4917 20.2359C35.5638 20.2897 35.5326 20.4012 35.5092 20.4817C35.3607 20.9876 35.2091 21.4926 35.0545 21.9968C35.0305 22.0746 35.0006 22.1764 34.8882 22.1621C34.7758 22.1479 34.77 22.0454 34.7485 21.9676C34.7271 21.8897 34.7329 21.8171 34.7193 21.7432C34.6912 21.5748 34.6272 21.4145 34.5316 21.273C34.436 21.1315 34.311 21.0122 34.1652 20.9232C34.0194 20.8342 33.856 20.7776 33.6863 20.7571C33.5166 20.7366 33.3445 20.7529 33.1817 20.8047C33.0293 20.8459 32.8906 20.9268 32.7798 21.039C32.669 21.1512 32.59 21.2908 32.5509 21.4435C32.4593 21.7678 32.6106 22.0097 32.84 22.2153C33.1963 22.5302 33.5832 22.8087 33.995 23.0468C35.2253 23.7726 35.2994 25.2072 33.8105 25.9849C33.1109 26.3507 32.395 26.4239 31.6707 26.0439C31.3192 25.859 30.984 25.9187 30.6553 26.1055C30.5436 26.1704 30.4195 26.2741 30.2993 26.1801C30.1629 26.0737 30.2506 25.9207 30.2915 25.7909C30.4466 25.298 30.6051 24.8062 30.767 24.3154C30.806 24.198 30.8262 24.0151 30.9788 24.0313C31.1458 24.0495 31.1302 24.248 31.1581 24.3751C31.3485 25.2338 31.8798 25.647 32.7503 25.5983C33.1934 25.5737 33.5208 25.3655 33.6201 25.0444C33.7299 24.6935 33.5883 24.3829 33.1654 24.1001C32.6366 23.7447 32.0975 23.4074 31.6486 22.9456C31.023 22.3035 30.9743 21.6796 31.5459 20.9999C31.9688 20.483 32.5223 20.1969 33.3038 20.2015Z" fill="#215E30"/>
<path d="M57.3427 73.2096C57.3424 73.4311 57.2982 73.6503 57.2128 73.8547C57.1274 74.0592 57.0024 74.2447 56.845 74.4008C56.6876 74.5569 56.5009 74.6804 56.2956 74.7642C56.0903 74.8481 55.8704 74.8906 55.6485 74.8894C55.423 74.8908 55.1995 74.8473 54.991 74.7615C54.7824 74.6757 54.5931 74.5494 54.434 74.3898C54.2749 74.2302 54.1492 74.0406 54.0642 73.832C53.9793 73.6235 53.9367 73.4001 53.9391 73.1749C53.9415 72.9498 53.9887 72.7274 54.078 72.5206C54.1674 72.3139 54.297 72.1269 54.4595 71.9707C54.6219 71.8145 54.8139 71.6922 55.0241 71.6108C55.2344 71.5294 55.4588 71.4906 55.6843 71.4967C55.9061 71.4994 56.1253 71.546 56.329 71.6337C56.5327 71.7214 56.717 71.8486 56.8712 72.0079C57.0254 72.1672 57.1465 72.3554 57.2274 72.5616C57.3084 72.7679 57.3476 72.9881 57.3427 73.2096ZM54.2285 73.1927C54.2273 73.3818 54.2637 73.5691 54.3356 73.744C54.4075 73.9188 54.5136 74.0777 54.6475 74.2113C54.7814 74.3449 54.9406 74.4506 55.1158 74.5222C55.291 74.5939 55.4787 74.6301 55.668 74.6287C56.0439 74.6207 56.4017 74.466 56.6647 74.1978C56.9278 73.9296 57.0751 73.5691 57.0751 73.1937C57.0751 72.8183 56.9278 72.4579 56.6647 72.1897C56.4017 71.9214 56.0439 71.7667 55.668 71.7587C55.4785 71.7561 55.2904 71.7914 55.1148 71.8625C54.9392 71.9336 54.7796 72.0391 54.6454 72.1727C54.5113 72.3064 54.4053 72.4655 54.3337 72.6406C54.2621 72.8158 54.2263 73.0036 54.2285 73.1927Z" fill="#215E30"/>
<path d="M45.8315 45.3618C45.8315 48.2774 45.8328 51.1927 45.8354 54.1079C45.8354 54.3174 45.8153 54.4186 45.5587 54.4536C44.5622 54.5891 43.6644 54.9647 42.9323 55.6742C41.6045 56.961 41.6571 58.9061 43.0466 60.1286C44.8772 61.7397 48.0486 61.6917 49.7435 60.0275C51.1077 58.6868 51.0226 56.7041 49.5447 55.4874C48.9679 55.011 48.2829 54.683 47.5497 54.5321C47.3724 54.4944 47.3113 54.4328 47.312 54.2408C47.3176 48.5178 47.3176 42.795 47.312 37.0723C47.312 36.8778 47.3497 36.8019 47.5718 36.7824C48.6008 36.689 49.4479 36.1987 50.1359 35.4626C50.6439 34.921 51.2324 34.6843 51.9548 34.7096C52.0412 34.7096 52.1276 34.7031 52.2146 34.7096C53.4287 34.7601 54.1842 34.1343 54.7013 33.0881C55.4062 31.6658 56.5203 30.5846 57.7279 29.5858C57.9702 29.3863 58.246 29.2313 58.5425 29.1279C58.7062 29.0702 58.8023 29.1156 58.89 29.2576C59.12 29.6305 59.1395 30.0314 59.057 30.4426C58.8926 31.265 59.0986 31.9881 59.6572 32.5991C59.8976 32.8585 59.8917 33.0894 59.6858 33.3398C59.495 33.5881 59.2882 33.8239 59.0667 34.0454C58.1404 34.9106 57.7448 36.0216 57.5804 37.2332C57.4908 37.8947 57.4447 38.5628 57.3927 39.2295C57.344 39.8625 57.1471 40.4488 56.7255 40.9158C55.6277 42.1325 55.3412 43.6009 55.284 45.1679C55.2282 46.6849 55.4055 48.1825 55.603 49.6774C55.9863 52.5805 55.983 55.4563 55.1859 58.3035C54.7689 59.7953 53.9562 61.0276 52.8746 62.0997C52.4199 62.5485 51.9652 62.9895 51.4981 63.4254C50.5035 64.3567 50.2313 65.5138 50.4002 66.822C50.5237 67.7799 50.8946 68.673 51.1148 69.6057C51.2948 70.3736 51.4396 71.1486 51.2889 71.9405C51.2486 72.1526 51.2097 72.3796 50.9479 72.438C50.6861 72.4964 50.5445 72.3037 50.4282 72.1293C49.9962 71.4904 49.8214 70.7536 49.6655 70.0143C49.5424 69.4447 49.4696 68.8655 49.4479 68.2832C49.3985 66.7662 48.7548 65.5482 47.5075 64.6959C45.2917 63.1815 42.8654 62.815 40.2786 63.5064C39.8997 63.6006 39.5453 63.7746 39.2392 64.0169C38.9943 64.2186 38.7364 64.24 38.4526 64.1829C37.597 64.0097 36.7473 63.7938 35.8846 63.664C34.3561 63.4351 32.8276 63.38 31.3523 63.9779C29.1436 64.873 27.897 66.5483 27.4156 68.8371C27.3266 69.258 27.2773 69.6874 27.2078 70.1129C27.193 70.2086 27.1726 70.3035 27.1467 70.3969C26.9635 71.0351 26.5289 71.1921 26.004 70.7952C25.0049 70.0402 24.0448 69.234 23.0158 68.5193C22.4643 68.1373 21.8556 67.9576 21.2001 67.9025C20.6841 67.8547 20.165 67.8504 19.6482 67.8895C18.6965 67.9699 17.8943 67.6236 17.1719 67.0392C16.5418 66.5308 15.9097 66.0249 15.2231 65.5851C14.0752 64.847 12.7987 64.4702 11.4728 64.2341C9.23167 63.8353 7.46927 62.6672 6.01609 60.9471C4.75974 59.4554 3.65345 57.8651 2.57899 56.2443C1.75138 55.0068 1.54545 53.6383 1.59223 52.1998C1.6312 51.0148 1.69032 49.8299 1.89689 48.6579C2.08658 47.5812 2.37371 46.537 2.84598 45.5447C3.86782 43.4025 4.43623 41.1577 4.38231 38.7684C4.36023 37.8253 4.37842 37.8247 5.26189 37.5069C5.61723 37.3772 5.97062 37.2474 6.3266 37.1223C6.5011 37.0654 6.6603 36.9695 6.79212 36.8419C6.92393 36.7144 7.02488 36.5585 7.0873 36.3861C7.42055 35.5216 7.4238 35.5333 8.3404 35.5618C10.1652 35.6195 11.9899 35.6643 13.8147 35.7161C16.8263 35.8026 19.8383 35.8891 22.8508 35.9756C24.3293 36.0188 25.8081 36.0621 27.287 36.1053C29.6945 36.1715 32.1019 36.2363 34.5094 36.2999C34.9732 36.3128 35.4371 36.342 35.9009 36.3394C36.0144 36.332 36.1279 36.3541 36.2303 36.4034C36.3328 36.4527 36.4207 36.5276 36.4855 36.6209C36.7317 36.9614 36.9701 37.3084 37.2105 37.6535C37.5269 38.1075 37.8692 38.5342 38.3428 38.841C39.4809 39.5804 40.7639 39.295 41.4765 38.1425C41.7325 37.728 41.9124 37.276 42.1177 36.8375C42.816 35.3458 44.5862 35.0488 45.7412 36.2266C45.8627 36.3505 45.8302 36.486 45.8302 36.6157C45.8324 39.5326 45.8328 42.448 45.8315 45.3618Z" fill="#EDEB1A"/>
<path d="M27.8107 71.4157C27.8107 72.4651 27.8217 73.4353 27.8055 74.405C27.7977 74.8693 27.126 75.2825 26.542 75.2098C26.0834 75.1521 25.6728 74.9653 25.2928 74.7137C24.1339 73.9464 22.9542 73.2083 21.8193 72.4054C21.6894 72.3152 21.6335 72.2277 21.6348 72.0675C21.6426 71.151 21.6465 70.2346 21.6348 69.3182C21.6309 69.0535 21.7134 69.027 21.9304 69.1236C22.4968 69.383 22.9646 69.7832 23.4557 70.1483C24.165 70.6756 24.8387 71.2509 25.5604 71.7626C26.2821 72.2744 27.0142 72.1758 27.6437 71.5739L27.8107 71.4157Z" fill="#FCFDFC"/>
<path d="M47.1944 68.5278C46.0563 67.4712 44.7583 66.9796 43.2785 66.9595C42.9547 66.9529 42.6312 66.9851 42.3151 67.0555C42.1813 67.086 42.1202 67.0555 42.1202 66.9011C42.1267 66.0813 42.1254 65.2622 42.1202 64.4424C42.1202 64.3126 42.1469 64.253 42.2956 64.2478C44.023 64.218 45.6314 64.5786 47.0313 65.6487C47.0814 65.679 47.1228 65.7218 47.1514 65.7728C47.1799 65.8239 47.1948 65.8815 47.1944 65.9399C47.1905 66.7824 47.1944 67.6217 47.1944 68.5278Z" fill="#FCFDFC"/>
<path d="M6.20509 65.8571C3.15971 63.504 2.18594 60.2008 1.54932 56.6797C1.71367 56.7685 1.752 56.9067 1.8228 57.015C3.10319 58.9607 4.42645 60.8766 6.08491 62.5325C6.14988 62.5934 6.20574 62.6525 6.20574 62.7504C6.20444 63.7596 6.20509 64.7688 6.20509 65.8571Z" fill="#FCFDFC"/>
<path d="M15.1938 66.8301C15.7375 67.253 16.2182 67.6343 16.7074 68.0047C17.4181 68.5417 18.1911 68.9269 19.111 68.9334C19.248 68.9334 19.2955 68.9769 19.2942 69.1196C19.2877 69.8537 19.2857 70.5879 19.2942 71.3247C19.2942 71.4914 19.2428 71.4992 19.0915 71.4992C18.1262 71.4992 17.3174 71.0854 16.5509 70.5639C16.1409 70.285 15.7512 69.9757 15.351 69.6812C15.262 69.6164 15.1919 69.5515 15.1925 69.4218C15.1964 68.5819 15.1938 67.742 15.1938 66.8301Z" fill="#FCFDFC"/>
<path d="M38.4999 66.8018C38.4999 67.2324 38.4999 67.6637 38.4999 68.0944C38.4999 68.2552 38.4908 68.3441 38.2907 68.2494C37.5164 67.8842 36.7128 67.6196 35.8456 67.6053C35.7059 67.6053 35.6922 67.5327 35.6929 67.4231C35.6929 66.5722 35.6981 65.7212 35.6929 64.8703C35.6929 64.6939 35.7579 64.6939 35.9027 64.7094C36.4412 64.7691 36.9557 64.9202 37.4702 65.0785C37.6547 65.1356 37.8392 65.1965 38.0276 65.2374C38.4999 65.3392 38.5005 65.3353 38.5005 65.8003L38.4999 66.8018Z" fill="#FEFEFE"/>
<path d="M43.0232 58.7219C42.6003 57.9643 42.7601 57.0479 43.4331 56.3461C44.0236 55.7306 44.7694 55.4206 45.595 55.2721C45.7659 55.241 45.8432 55.2721 45.8393 55.4744C45.8256 56.0997 45.8295 56.7249 45.8393 57.3501C45.8393 57.5025 45.7893 57.5551 45.6444 57.5739C44.6557 57.6984 43.7729 58.0629 43.0232 58.7219Z" fill="#FCFDFC"/>
<path d="M47.3166 56.464C47.3166 56.1397 47.3166 55.8154 47.3166 55.4944C47.3166 55.375 47.3341 55.3095 47.4777 55.3497C48.48 55.6351 49.3304 56.119 49.7598 57.1301C49.9546 57.5958 49.941 58.0738 49.7714 58.5485C49.7247 58.6783 49.6831 58.7522 49.535 58.6244C48.9588 58.1339 48.2649 57.8012 47.5212 57.6587C47.3744 57.6289 47.3042 57.5692 47.3133 57.3993C47.3283 57.0899 47.3166 56.7766 47.3166 56.464Z" fill="#FCFDFC"/>
<path d="M51.6488 73.2808C51.856 74.3523 51.4207 75.1941 50.8491 75.9886C50.6341 76.2876 50.1878 76.3583 49.8617 76.1871C49.7642 76.1359 49.759 76.0574 49.759 75.9724V72.9961C50.3495 73.563 50.9712 73.657 51.6488 73.2808Z" fill="#FCFDFC"/>
<path d="M45.8315 60.4346C45.0694 60.3576 44.3428 60.0743 43.73 59.6154C43.5124 59.4513 43.5351 59.3508 43.7352 59.1945C44.301 58.7535 44.9461 58.5122 45.6444 58.3883C45.7854 58.363 45.8354 58.3987 45.8341 58.5472C45.8283 59.1699 45.8315 59.7931 45.8315 60.4346Z" fill="#FCFDFC"/>
<path d="M58.2969 43.9513C58.1176 41.5632 58.3904 39.2595 58.6795 36.957H58.7588V37.2813C58.7588 39.0078 58.7412 40.7343 58.7685 42.4602C58.7776 43.0076 58.5801 43.4532 58.2969 43.9513Z" fill="#FCFDFC"/>
<path d="M47.3165 58.4531C47.9298 58.5741 48.5047 58.8411 48.9925 59.2314C49.1432 59.3521 49.179 59.4312 49.0029 59.5719C48.5711 59.9117 48.0761 60.1625 47.5465 60.31C47.4465 60.3392 47.3107 60.3937 47.3139 60.1803C47.3224 59.6108 47.3165 59.0407 47.3165 58.4531Z" fill="#FCFDFC"/>
<path d="M21.0254 71.9104C20.8305 71.8455 20.6636 71.7807 20.4901 71.7301C20.3648 71.6925 20.3661 71.6003 20.3661 71.5005C20.3661 70.7124 20.3739 69.9244 20.3615 69.1364C20.3615 68.912 20.4875 68.9068 20.6266 68.9418C20.7656 68.9769 21.0274 68.8011 21.0267 69.1403C21.0241 70.0535 21.0254 70.9693 21.0254 71.9104Z" fill="#FCFDFC"/>
<path d="M10.7896 65.1959C10.8087 65.1909 10.8283 65.1881 10.848 65.1875C11.5756 65.3088 11.5756 65.3088 11.5756 66.0436C11.5756 66.5294 11.5717 67.0165 11.5756 67.4997C11.5756 67.6605 11.5652 67.726 11.3645 67.6755C10.7909 67.5321 10.7876 67.5457 10.7876 66.962L10.7896 65.1959Z" fill="#FCFDFC"/>
<path d="M54.3914 64.5768C54.3914 63.7298 54.3706 62.9126 54.4011 62.0967C54.4135 61.7724 54.7578 61.609 54.8844 61.3262L54.9604 61.3482V62.6836C54.9604 62.91 54.9357 63.1376 54.965 63.3627C55.0299 63.8725 54.8649 64.2675 54.3914 64.5768Z" fill="#FCFDFC"/>
<path d="M14.1486 68.7694C13.8238 68.6475 13.6108 68.532 13.6329 68.1351C13.6725 67.4217 13.6439 66.7082 13.6439 65.998C14.0986 66.0713 14.1486 66.1278 14.1486 66.5506V68.7694Z" fill="#FCFDFC"/>
<path d="M53.8716 62.6152C53.8716 63.4415 53.8885 64.2445 53.8619 65.0467C53.8534 65.3062 53.552 65.3957 53.3305 65.6564V64.714C53.3305 64.369 53.3656 64.0194 53.3221 63.6802C53.2571 63.2002 53.4741 62.8922 53.8716 62.6152Z" fill="#FCFDFC"/>
<path d="M12.9155 68.1383C12.5459 68.1026 12.3886 67.9619 12.4153 67.5792C12.4556 66.9916 12.4218 66.3988 12.4302 65.808C12.4302 65.7204 12.3367 65.5278 12.5601 65.5706C12.7063 65.5985 12.9246 65.5628 12.92 65.83C12.9116 66.3346 12.92 66.8398 12.92 67.3444L12.9155 68.1383Z" fill="#FCFDFC"/>
<path d="M60.0553 34.5762V37.6893C60.0553 37.9196 59.8604 38.0247 59.7084 38.1745C59.7084 37.1789 59.7175 36.1833 59.7026 35.1878C59.698 34.9206 59.787 34.7429 60.0553 34.5762Z" fill="#FCFDFC"/>
<path d="M57.6317 41.5117C57.6317 42.6662 57.6317 43.772 57.6317 44.8778C57.6317 45.0627 57.4874 45.1697 57.3504 45.2994V44.3479C57.3504 43.6157 57.3582 42.8828 57.3458 42.1506C57.3413 41.9093 57.3894 41.7082 57.6317 41.5117Z" fill="#FCFDFC"/>
<path d="M54.8968 72.2344C55.193 72.2344 55.4587 72.2344 55.7244 72.2344C55.9901 72.2344 56.2395 72.2616 56.3246 72.5587C56.413 72.8667 56.2324 73.0451 55.9407 73.1742C56.233 73.4025 56.2181 73.815 56.5598 74.0238C56.2441 74.1185 56.0524 74.042 55.9498 73.7559C55.8974 73.6151 55.8338 73.4787 55.7595 73.348C55.7331 73.2996 55.6905 73.2622 55.6391 73.2422C55.5878 73.2223 55.531 73.2211 55.4788 73.239C55.36 73.2695 55.3898 73.3798 55.3996 73.455C55.4256 73.658 55.2697 73.9298 55.599 74.0439H54.9111C55.1657 73.8098 55.1709 72.4893 54.8968 72.2344ZM55.3879 72.7442C55.4425 72.868 55.2684 73.1197 55.5932 73.097C55.8296 73.0801 56.0161 73.0094 56.02 72.7267C56.0239 72.4782 55.8732 72.3375 55.6146 72.3414C55.3008 72.344 55.4236 72.5827 55.3879 72.7442Z" fill="#215E30"/>
</svg>
