<svg width="106" height="60" viewBox="0 0 106 60" fill="none" xmlns="http://www.w3.org/2000/svg">
<path d="M106 0.102539H-6.10352e-05V59.8974H106V0.102539Z" fill="#F72D17"/>
<path d="M88.3334 36.1152C88.3334 37.9916 86.8123 39.5127 84.9359 39.5127C83.0596 39.5127 81.5385 37.9916 81.5385 36.1152C81.5385 34.2389 83.0596 32.7178 84.9359 32.7178C86.8123 32.7178 88.3334 34.2389 88.3334 36.1152Z" fill="white"/>
<path d="M43.0609 20.4873L37.5562 29.167V20.4873H31.646L27.6396 25.6599L23.5806 20.5093V20.4873H23.5618H17.6666V38.8335H23.5806V29.0532L27.6396 34.2002L31.6461 29.1193V38.8335H37.7027L40.1621 34.9522H46.4065V38.8335H52.3204V25.7002H55.4633V38.8335H61.3772V25.7002H64.3548V33.2977V34.9742H73.4116V38.8335H79.3255V20.4873H73.4116V29.7613H70.2688V20.4873L43.0609 20.4873ZM81.7399 20.4873V31.7092L87.6539 28.2278V20.4873H81.7399ZM46.4065 25.1059V29.7429H43.4664L46.4065 25.1059Z" fill="white"/>
<path d="M83.5769 34.7568V35.1282H84.0471V37.4748H84.4658V35.1282H84.9359V34.7568H83.5769Z" fill="#F72D17"/>
<path d="M84.9359 34.7568V37.4748H86.1772L86.2949 37.3627V36.3095L86.063 36.0886L86.2949 35.8678V34.8656L86.1807 34.7568H84.9359ZM85.3711 35.1306H85.8562V35.7761L85.7277 35.9018H85.3711V35.1306ZM85.3711 36.2755H85.7277L85.8562 36.3978V37.1011H85.3711V36.2755Z" fill="#F72D17"/>
</svg>
