<svg width="110" height="43" viewBox="0 0 110 43" fill="none" xmlns="http://www.w3.org/2000/svg">
<path d="M57.6468 12.4887C58.3536 12.1808 58.928 11.9174 59.5039 11.6633C65.3556 9.07782 73.471 11.591 76.2213 17.9585C77.6257 21.2108 77.8921 24.5802 77.464 28.0404C76.962 32.0888 75.4713 35.6922 72.4716 38.5657C68.6541 42.2215 64.0621 43.4934 58.9018 42.8328C55.9837 42.4571 53.2287 41.5624 51.1914 39.2787C50.3291 38.3116 49.6423 37.1859 48.9062 36.1126C48.739 35.8543 48.6409 35.5574 48.6213 35.2503C48.5997 34.9423 48.7137 34.6343 48.7753 34.3263C49.0309 34.4557 49.3451 34.5296 49.5345 34.7236C51.8983 37.1536 54.8503 38.3624 58.1442 38.6874C62.864 39.1493 66.5028 37.1305 68.8127 33.136C71.6877 28.1605 71.9911 22.8878 69.5319 17.6074C67.7363 13.7622 62.9395 12.3193 59.4485 14.4521C58.2165 15.199 57.4928 16.2615 57.3372 17.6659C56.9846 20.8443 56.6335 24.0243 56.3671 27.2134C56.2524 28.634 56.2524 30.0615 56.3671 31.4821C56.4014 31.9717 56.5504 32.4464 56.8022 32.8677C57.0539 33.2891 57.4013 33.6452 57.8162 33.9075C58.2781 34.2047 58.138 34.5696 57.7499 34.7221C57.2592 34.9286 56.7317 35.0334 56.1992 35.0301C51.9968 34.8514 48.8446 31.6422 48.8569 27.4044C48.8646 24.7988 49.0864 22.1902 49.2989 19.5893C49.5607 16.377 49.9148 13.1709 50.2228 9.96173C50.3537 8.63894 50.4045 7.29921 50.6417 5.9949C51.1622 3.12603 49.3158 1.77861 47.1753 1.29199C46.8951 1.23193 46.5886 1.23193 46.3592 1.1072C46.1297 0.982468 45.9988 0.737621 45.8233 0.545131C46.0466 0.37574 46.2606 0.0831556 46.4947 0.0631366C47.4571 0 48.4334 0 49.4051 0C51.2207 0.0307984 53.044 0 54.8487 0.153992C56.7906 0.320303 58.4552 1.77091 58.1965 4.28559C57.947 6.70326 57.8239 9.13326 57.6498 11.5571C57.6314 11.8158 57.6468 12.0853 57.6468 12.4887Z" fill="black"/>
<path d="M99.3816 9.06641C102.711 9.10644 105.712 10.052 108.406 11.9692C108.801 12.2494 109.419 12.505 109.149 13.1133C109.088 13.2488 108.262 13.1872 107.877 13.0163C102.309 10.5524 96.0431 13.0948 92.7661 17.0432C89.2489 21.281 88.5113 27.5331 91.0045 32.2237C93.2142 36.3815 98.2421 39.0594 102.925 38.5805C104.686 38.4116 106.399 37.9127 107.976 37.1099C108.259 36.9651 108.664 37.0575 109.012 37.0406C108.917 37.404 108.932 37.8675 108.704 38.1185C107.191 39.7878 105.296 40.8904 103.161 41.5587C96.9224 43.5098 91.2385 42.3286 86.4001 38.0415C82.3655 34.4704 80.8425 29.7814 81.4339 24.3917C81.845 20.645 83.2125 17.3743 85.8642 14.6779C88.616 11.8752 92.0193 10.3168 95.8182 9.54686C96.9917 9.31741 98.1928 9.22502 99.3816 9.06641Z" fill="black"/>
<path d="M40.2072 42.0397C39.1292 42.0397 38.0513 42.0397 36.9734 42.0397C34.4787 42.0397 32.9157 40.4844 33.0697 37.9805C33.2375 35.2764 33.5116 32.5769 33.7565 29.8774C34.1014 26.079 34.4546 22.2841 34.8159 18.4928C34.896 17.6274 35.0361 16.7666 35.0746 15.8996C35.1085 15.1666 35.1439 14.4059 34.9884 13.6991C34.7436 12.5703 34.0645 11.7126 32.928 11.3106C32.3013 11.0904 31.6591 10.9057 31.0508 10.6408C30.8399 10.5484 30.709 10.2681 30.5427 10.0741C30.7583 9.93704 30.9631 9.71375 31.1941 9.68142C31.6549 9.6418 32.118 9.63409 32.58 9.65832C34.451 9.65832 36.3204 9.64754 38.1914 9.65832C41.0495 9.67526 42.5756 11.4939 42.2799 14.3427C41.9196 17.8029 41.664 21.2724 41.3637 24.7387C41.0326 28.5362 40.6923 32.3321 40.3658 36.1341C40.1056 39.1585 40.8925 40.1964 43.883 40.834C44.3234 40.9279 45.0241 40.8124 44.9394 41.5254C44.8624 42.1783 44.211 42.0336 43.7428 42.0382C42.5648 42.0505 41.3868 42.0382 40.201 42.0382L40.2072 42.0397Z" fill="black"/>
<path d="M10.3051 42.1023C9.20402 42.1023 8.10298 42.1023 7.00194 42.1023C4.62122 42.0807 3.06745 40.5516 3.19988 38.1632C3.35387 35.2789 3.66185 32.4008 3.91902 29.5242C4.27012 25.6529 4.6628 21.7846 4.99696 17.9133C5.12752 16.5658 5.18407 15.2123 5.16635 13.8587C5.14172 12.7807 4.52267 11.9846 3.51864 11.558C2.76562 11.2393 1.97872 11.0083 1.2257 10.6833C0.985477 10.5802 0.822246 10.2984 0.623596 10.0982C0.873063 9.95959 1.11945 9.70242 1.37046 9.69934C3.75271 9.67162 6.1365 9.63621 8.51568 9.69934C10.9996 9.77172 12.4486 11.2547 12.327 13.717C12.173 16.8831 11.865 20.0414 11.5909 23.1998C11.249 27.239 10.8517 31.2597 10.4929 35.2835C10.4181 36.0475 10.3847 36.815 10.3928 37.5826C10.4236 39.0009 11.1628 39.988 12.5148 40.4546C13.1416 40.6702 13.8084 40.7626 14.4351 40.9874C14.6707 41.0706 14.8417 41.34 15.0511 41.5248C14.8278 41.705 14.6184 42.0176 14.3812 42.0407C13.6205 42.1177 12.8413 42.0915 12.0806 42.0977C11.4908 42.0977 10.9025 42.0977 10.3128 42.0977L10.3051 42.1023Z" fill="black"/>
<path d="M25.3162 42.041C24.1381 42.041 22.9601 42.0533 21.7821 42.041C19.7448 42.0133 18.1879 40.5242 18.2541 38.4838C18.3265 36.1863 18.5405 33.8902 18.7438 31.5988C19.0795 27.8291 19.4537 24.0625 19.8125 20.2943C19.9665 18.6651 20.1297 17.0374 20.2853 15.4081C20.5055 13.0983 19.8233 11.9834 17.6674 11.1626C17.19 10.9809 16.6819 10.8746 16.2199 10.6606C16.0043 10.562 15.8672 10.291 15.6948 10.0985C15.9073 9.96299 16.1198 9.71044 16.3338 9.70736C18.7977 9.68118 21.2523 9.64268 23.71 9.70736C25.6996 9.75972 27.5183 11.0625 27.3643 13.5572C27.2349 15.6761 27.0748 17.7935 26.9023 19.9093C26.6035 23.4511 26.2863 26.9929 25.966 30.5348C25.792 32.4966 25.6057 34.4569 25.4409 36.4172C25.2222 39.0259 25.9722 40.0607 28.5207 40.7105C28.8479 40.767 29.1702 40.8489 29.4847 40.9554C29.7111 41.0524 29.8867 41.2634 30.0853 41.4312C29.8543 41.6314 29.651 41.9378 29.3846 42.0087C29.0012 42.1119 28.5716 42.0487 28.1619 42.0487C27.2123 42.0436 26.2637 42.041 25.3162 42.041Z" fill="black"/>
</svg>
