<svg width="108" height="54" viewBox="0 0 108 54" fill="none" xmlns="http://www.w3.org/2000/svg">
<path fill-rule="evenodd" clip-rule="evenodd" d="M31.0759 29.6718V48.7881H34.895V29.6718C34.895 27.564 36.6063 25.8528 38.7141 25.8528C40.8218 25.8528 42.5331 27.564 42.5331 29.6718H46.3522C46.3522 25.4563 42.9296 22.0337 38.7141 22.0337C34.4985 22.0337 31.0759 25.4563 31.0759 29.6718ZM81.2247 25.8528V41.6091C81.2247 45.8246 84.6473 49.2472 88.8629 49.2472V45.4281C86.7551 45.4281 85.0438 43.7169 85.0438 41.6091V29.6718H96.501V25.8528H81.2247ZM73.5866 29.6718H77.4057V25.8528H73.5866V29.6718ZM0.0224533 29.6718H3.84153V25.8528H0.0224533V29.6718ZM50.1713 40.6699V48.7881H53.9904V40.6699C53.9904 38.5621 55.7016 36.8509 57.8094 36.8509C58.6442 36.8509 61.4407 37.1848 61.8789 41.3586C62.2754 44.9481 63.9241 46.8472 65.2598 47.8072C67.0754 49.122 69.0162 49.2681 69.7466 49.2681C73.9622 49.2681 77.3848 45.8455 77.3848 41.6299V33.5118H73.5657V41.6299C73.5657 43.7377 71.8544 45.449 69.7466 45.449C68.9119 45.449 66.1154 45.1151 65.6771 40.9412C65.2806 37.3517 63.632 35.4526 62.2963 34.4926C60.4807 33.1779 58.5399 33.0318 57.8094 33.0318C53.6147 33.0318 50.1713 36.4543 50.1713 40.6699ZM15.1109 34.4926C13.7753 35.4526 12.1266 37.3517 11.7301 40.9412C11.271 45.1151 8.49537 45.449 7.6606 45.449C5.55281 45.449 3.84153 43.7377 3.84153 41.6299V33.5118H0.0224533V41.6299C0.0224533 45.8455 3.44501 49.2681 7.6606 49.2681C8.41189 49.2681 10.3319 49.122 12.1475 47.8072C13.4831 46.8472 15.1318 44.9481 15.5283 41.3586C15.9874 37.1848 18.763 36.8509 19.5978 36.8509C21.7056 36.8509 23.4169 38.5621 23.4169 40.6699V48.7881H27.236V40.6699C27.236 36.4543 23.8134 33.0318 19.5978 33.0318C18.8674 33.0318 16.9474 33.1779 15.1109 34.4926ZM104.16 33.5118V41.6299C104.16 43.7377 102.449 45.449 100.341 45.449C98.2332 45.449 96.5219 43.7377 96.5219 41.6299V33.5118H92.7028V41.6299C92.7028 45.1986 95.1445 48.1829 98.4419 49.0385V53.0871H102.261V49.0176C105.558 48.162 108 45.1777 108 41.6091V33.4909H104.16V33.5118ZM38.7141 33.5118V37.3309H42.5331V48.7881H46.3522V33.5118H38.7141Z" fill="url(#paint0_linear)"/>
<path fill-rule="evenodd" clip-rule="evenodd" d="M88.5916 4.79505H84.5847L83.1447 16.8366H80.536L81.976 4.79505H78.0735L78.3656 2.37422H88.8629L88.5916 4.79505ZM76.6126 4.79505H71.5414L71.124 8.19674H75.5692L75.277 10.6176H70.8318L70.3727 14.4158H76.7587L76.4665 16.8366H67.4719L69.2249 2.37422H76.9048L76.6126 4.79505ZM66.2406 5.85939C65.4476 5.19157 64.1328 4.58636 63.1937 4.58636C62.2337 4.58636 61.4615 5.21244 61.4615 6.17243C61.4615 8.25935 65.9902 8.53065 65.9902 12.5793C65.9902 14.9166 64.5919 17.0036 61.8372 17.0036C60.0633 17.0036 58.7485 16.4818 57.6633 15.6262L58.0599 13.101C59.0407 13.9567 60.5016 14.5827 61.545 14.5827C62.6094 14.5827 63.3189 13.9567 63.3189 12.9967C63.3189 10.5967 58.7903 10.3254 58.7903 6.5272C58.7903 4.02289 60.6268 2.16553 63.1102 2.16553C64.2998 2.16553 65.5519 2.56204 66.6163 3.31334L66.2406 5.85939ZM50.5261 11.6193H53.3643L52.7173 5.21244H52.6756L50.5261 11.6193ZM56.6616 16.8157H53.9695L53.5938 13.6645H49.7748L48.5852 16.8157H45.7053L51.7156 2.16553H54.4912L56.6616 16.8157ZM44.3905 16.8157H41.7818L43.514 2.37422H46.1226L44.3905 16.8157ZM31.3472 14.4158H33.7889C36.6897 14.4158 37.8793 11.8697 37.8793 9.36542C37.8793 6.81937 36.4393 4.79505 33.7263 4.79505H32.4741L31.3472 14.4158ZM34.248 2.37422C39.1523 2.37422 40.5923 6.27677 40.5923 9.40716C40.5923 13.7062 38.0671 16.8157 34.7906 16.8157H28.4464L30.1577 2.37422H34.248ZM27.1942 4.79505H22.123L21.7056 8.19674H26.1508L25.8586 10.6176H21.4134L20.9543 14.4158H27.3612L27.069 16.8366H18.0744L19.8065 2.37422H27.4864L27.1942 4.79505ZM16.3631 16.8157H13.8379L13.4623 7.04893H13.4205L8.87102 16.8157H7.61886L5.46933 6.77763H5.42759L2.65198 16.8157H0.0224533L4.02935 2.37422H6.88844L8.87102 11.4732L13.0031 2.37422H15.7787L16.3631 16.8157Z" fill="#323F47"/>
<path fill-rule="evenodd" clip-rule="evenodd" d="M94.0593 0.913574C93.3497 0.913574 92.7028 1.49791 92.7028 2.29095V2.31181C92.7028 1.49791 93.3915 1.12227 93.7671 1.76921L97.8158 8.78128C97.9618 9.01085 98.0245 9.28215 98.0245 9.53258C98.0245 9.80388 97.9618 10.0543 97.8158 10.2839C97.9618 10.0543 98.1497 9.86649 98.3792 9.7204C98.6088 9.59519 98.8592 9.51171 99.1305 9.51171H107.249C107.958 9.51171 108 10.2213 107.395 10.6386C107.791 10.3673 108 9.92909 108 9.51171C108 9.05258 107.77 8.59346 107.311 8.32216L94.748 1.1014C94.5393 0.976182 94.3097 0.913574 94.0802 0.913574H94.0593Z" fill="url(#paint1_linear)"/>
<path fill-rule="evenodd" clip-rule="evenodd" d="M99.1305 9.53223C98.8592 9.53223 98.5879 9.59483 98.3792 9.74092C98.1497 9.86613 97.9619 10.054 97.8158 10.3044L96.6888 12.2661L93.7671 17.3165C93.3915 17.9634 92.7028 17.5669 92.7028 16.7739C92.7028 17.8173 93.8506 18.4851 94.748 17.9634H94.7689L107.29 10.7218C107.29 10.7218 107.311 10.7218 107.311 10.7009C107.311 10.7009 107.332 10.7009 107.332 10.68C107.332 10.68 107.332 10.68 107.353 10.68L107.374 10.6592C107.979 10.2418 107.937 9.53223 107.228 9.53223H99.1305Z" fill="url(#paint2_linear)"/>
<path fill-rule="evenodd" clip-rule="evenodd" d="M92.7028 2.29057V16.753C92.7028 17.5669 93.3915 17.9425 93.7671 17.2956L96.6888 12.2452L97.8158 10.2835C97.9619 10.0539 98.0245 9.78263 98.0245 9.5322C98.0245 9.2609 97.9619 9.01047 97.8158 8.78091L93.7463 1.74797C93.6211 1.51841 93.4541 1.41406 93.2871 1.41406C92.9741 1.41406 92.7028 1.76884 92.7028 2.29057Z" fill="url(#paint3_linear)"/>
<defs>
<linearGradient id="paint0_linear" x1="18.5178" y1="39.9773" x2="73.3347" y2="9.13078" gradientUnits="userSpaceOnUse">
<stop stop-color="#8520DA"/>
<stop offset="0.2925" stop-color="#8123DB"/>
<stop offset="0.3885" stop-color="#742DDF"/>
<stop offset="0.4861" stop-color="#603DE4"/>
<stop offset="0.5849" stop-color="#4254ED"/>
<stop offset="0.6835" stop-color="#1D70F7"/>
<stop offset="0.75" stop-color="#0087FF"/>
<stop offset="1" stop-color="#00E474"/>
</linearGradient>
<linearGradient id="paint1_linear" x1="96.6998" y1="5.18958" x2="98.7528" y2="8.74603" gradientUnits="userSpaceOnUse">
<stop stop-color="#B26EFF"/>
<stop offset="0.4842" stop-color="#C576FF"/>
<stop offset="1" stop-color="#CF7AFF"/>
</linearGradient>
<linearGradient id="paint2_linear" x1="98.2132" y1="13.5275" x2="104.226" y2="10.0555" gradientUnits="userSpaceOnUse">
<stop stop-color="#8520DA"/>
<stop offset="0.6815" stop-color="#9136DD"/>
<stop offset="1" stop-color="#9D4DE1"/>
</linearGradient>
<linearGradient id="paint3_linear" x1="92.6974" y1="9.53103" x2="95.3556" y2="9.53103" gradientUnits="userSpaceOnUse">
<stop stop-color="#B3B3B3"/>
<stop offset="0.067" stop-color="#C9C9C9"/>
<stop offset="0.1596" stop-color="#E1E1E1"/>
<stop offset="0.2581" stop-color="#F2F2F2"/>
<stop offset="0.3659" stop-color="#FCFCFC"/>
<stop offset="1" stop-color="white"/>
</linearGradient>
</defs>
</svg>
