<svg width="136" height="31" viewBox="0 0 136 31" fill="none" xmlns="http://www.w3.org/2000/svg">
<g clip-path="url(#clip0)">
<path d="M61.06 7.89939L57.0246 17.4682L55.0966 7.89939H52.305L48.4062 23.1135H50.9703L53.6746 12.5343H53.7064L55.8125 23.1135H57.0246L61.4651 12.8266H61.5017L61.8668 23.1135H64.3255L63.7673 7.89939H61.06ZM74.8887 10.4395L75.1739 7.89939H67.6993L66.0105 23.1135H74.766L75.0495 20.5733H68.8345L69.2731 16.5766H73.6132L73.8905 14.0371H69.5598L69.9618 10.4395H74.8887ZM81.8738 7.89939H77.8912L76.2252 23.1135H82.4035C85.5974 23.1135 88.0527 19.8351 88.0527 15.3067C88.0526 12.002 86.6512 7.89939 81.8738 7.89939ZM81.4372 20.5733H79.0502L80.1568 10.4395H81.3845C84.0169 10.4395 85.42 12.5807 85.42 15.2606C85.42 17.8934 84.2607 20.5733 81.4372 20.5733ZM91.1441 7.89939L89.457 23.1135H92.0036L93.6889 7.89939H91.1441ZM99.354 7.69336L93.4928 23.1135H96.3007L97.4597 19.7957H101.18L101.548 23.1135H104.162L102.058 7.69336H99.354ZM98.1949 17.6278L100.304 10.8918H100.341L100.971 17.6278H98.1949ZM106.234 12.2946C106.234 16.291 110.639 16.5766 110.639 19.104C110.639 20.1014 109.956 20.7728 108.923 20.7728C107.921 20.7728 106.499 20.1016 105.536 19.2102L105.147 21.8632C106.219 22.7544 107.479 23.3132 109.219 23.3132C111.908 23.3132 113.276 21.1054 113.276 18.6517C113.276 14.389 108.871 14.0965 108.871 11.9154C108.871 10.9116 109.621 10.24 110.552 10.24C111.461 10.24 112.749 10.8649 113.521 11.5835L113.869 8.90371C112.832 8.11902 111.608 7.6935 110.447 7.6935C108.027 7.69336 106.234 9.66173 106.234 12.2946ZM123.7 10.4395L123.981 7.89939H116.506L114.816 23.1135H123.572L123.86 20.5733H117.644L118.081 16.5766H122.418L122.699 14.0371H118.365L118.767 10.4395H123.7ZM125.486 10.4395H129.28L127.871 23.1135H130.419L131.825 10.4395H135.719L136 7.89939H125.766L125.486 10.4395Z" fill="#A7A5A5"/>
<path d="M16.3664 13.6778C16.3935 13.8372 16.4095 13.9971 16.4095 14.1566C16.4095 14.4626 16.3538 14.7618 16.2533 15.0342H42.3468V5.38588H41.9687C41.9687 5.38588 40.8766 8.4713 35.6723 9.68151C33.461 4.00949 28.1224 0 21.8977 0C16.9709 0 12.599 2.51329 9.8946 6.37701C10.2406 6.7695 10.4624 7.28095 10.4957 7.85946C12.9082 3.9498 17.1176 1.36348 21.8977 1.36348C27.4832 1.36348 32.2858 4.90038 34.3633 9.93461C33.3887 10.0741 32.2983 10.1606 31.0737 10.1606H24.5732L24.197 13.678H16.3664V13.6778ZM8.71629 22.6485C11.1975 27.6022 16.1766 30.9999 21.8977 30.9999C27.3619 30.9999 32.1422 27.9079 34.7249 23.3132H35.4203C39.2184 23.3132 42.2971 20.3407 42.2971 16.3778L24.6384 16.3712C20.8374 16.3712 17.7585 19.3433 17.7585 23.3066L33.1926 23.3132C30.7578 27.1234 26.6075 29.6369 21.8974 29.6369C16.6614 29.6369 12.1089 26.5244 9.85121 21.9767C9.54521 22.3089 9.15299 22.5484 8.71289 22.6485C8.71629 22.6485 8.71629 22.6485 8.71629 22.6485Z" fill="#A7A5A5"/>
<path d="M8.20529 16.8298C9.61955 16.8298 10.769 15.6266 10.769 14.1565C10.769 12.6805 9.61969 11.4834 8.20529 11.4834C6.79089 11.4834 5.64291 12.6807 5.64291 14.1566C5.64291 15.6266 6.79102 16.8298 8.20529 16.8298ZM5.79605 20.2275C5.71785 20.2011 5.63149 20.2275 5.57287 20.2811C4.65922 21.1385 3.26223 21.1055 2.40285 20.2013C1.53394 19.2965 1.50525 17.8536 2.33104 16.9031C2.3868 16.8365 2.40611 16.75 2.38381 16.6702C2.34695 16.5971 2.27229 16.5502 2.19096 16.5502C0.963152 16.477 0 15.4266 0 14.1566C0 12.8734 0.963152 11.8291 2.19096 11.7694C2.27229 11.7628 2.34382 11.7165 2.38381 11.6427C2.40611 11.5631 2.3868 11.4767 2.33104 11.4102C1.50538 10.4592 1.54346 9.00298 2.40285 8.10557C3.27202 7.20121 4.65922 7.17441 5.56934 8.03226C5.63135 8.08558 5.71458 8.11209 5.79265 8.08558C5.86459 8.04573 5.9058 7.97257 5.90893 7.88621C5.97434 6.6027 6.98986 5.60547 8.20515 5.60547C9.43255 5.60547 10.4358 6.6027 10.4947 7.88621C10.4978 7.97257 10.5442 8.04573 10.6158 8.08558C10.6911 8.11223 10.7756 8.08558 10.8376 8.03226C11.7481 7.17427 13.1466 7.21426 14.0039 8.10557C14.8765 9.01659 14.9034 10.4592 14.0778 11.4102C14.0217 11.47 14.0009 11.5631 14.0247 11.6364C14.0631 11.7163 14.1379 11.7628 14.221 11.7628C15.4484 11.8291 16.4085 12.8868 16.4085 14.1566C16.4085 15.4403 15.4484 16.477 14.221 16.5438C14.1379 16.5504 14.0662 16.5908 14.0279 16.6636C14.0008 16.75 14.0247 16.8366 14.0808 16.9031C14.9034 17.8536 14.8634 19.3097 14.0039 20.2013C13.1366 21.1123 11.7481 21.1385 10.8407 20.2811C10.7787 20.221 10.6942 20.2013 10.6189 20.2275C10.5473 20.2608 10.5011 20.3408 10.4978 20.4271C10.4327 21.7041 9.4199 22.7082 8.20515 22.7082C6.97422 22.7082 5.97448 21.7041 5.91682 20.4271C5.90906 20.3408 5.86786 20.2676 5.79605 20.2275Z" fill="#1A78BD"/>
</g>
<defs>
<clipPath id="clip0">
<rect width="136" height="31" fill="white"/>
</clipPath>
</defs>
</svg>
