<svg width="117" height="15" viewBox="0 0 117 15" fill="none" xmlns="http://www.w3.org/2000/svg">
<path d="M0 8.39447V6.54657C0.06733 6.39963 0.12438 6.24825 0.170745 6.0935C1.05862 2.33491 4.02445 0.00678753 7.94988 0.00678753H25.2514C29.2861 0.00678753 33.3208 -0.00339376 37.3555 0.00678753C39.997 0.0254532 41.6617 1.64088 41.7334 4.24899C41.7471 4.67152 41.7334 5.09743 41.7334 5.52165C41.9507 5.31644 42.1137 5.06117 42.2081 4.77842C43.5058 1.71215 46.0823 0.00678753 49.4323 0.00678753H65.3952V2.47066H64.4271C61.2154 2.47066 58.0054 2.47914 54.7954 2.47066C53.3611 2.47066 52.0345 2.77949 50.8683 3.62284C49.956 4.25432 49.3179 5.20548 49.0823 6.28525H50.0146C54.7954 6.28525 59.5609 6.26998 64.3349 6.30222C65.0281 6.30222 65.2911 6.10368 65.4909 5.45378C66.5307 2.03456 69.3531 0.0237563 72.9814 0.0237563H89.5659V2.47066H88.4799C84.8704 2.48084 81.2625 2.44181 77.6547 2.51648C75.2096 2.56569 73.2341 4.01313 72.6297 5.99848C71.7043 9.03929 73.6217 12.0258 76.9564 12.4025C79.1453 12.6486 81.3769 12.5179 83.5898 12.5518C83.6325 12.5518 83.6752 12.4857 83.7793 12.4008C83.7793 10.8295 83.8203 9.20898 83.7623 7.59015C83.7332 6.81977 83.962 6.5839 84.7526 6.60596C86.7622 6.65856 88.7753 6.62293 90.8874 6.62293C90.8874 5.8797 90.8874 5.21621 90.8874 4.55273C90.8925 1.62561 92.4993 0.0203626 95.4566 0.00678753C100.175 -0.00226251 104.891 -0.00226251 109.606 0.00678753C113.545 0.0169688 116.948 3.44467 116.999 7.42386C117.051 11.403 113.707 14.8901 109.753 14.9631C108.558 14.9869 107.363 14.9631 106.167 14.9631C105.969 14.9631 105.771 14.9207 105.428 14.8817C107.897 13.8737 109.386 11.342 109.369 8.77288H98.0075V14.9207H90.8686V12.7555C89.8835 14.5711 88.3399 15.0276 86.4156 14.9987C81.8431 14.9326 77.2671 14.9461 72.6929 14.9886C70.1795 15.0123 68.2177 13.9942 66.7868 12.0529C66.0714 11.0789 65.6223 9.91488 65.0094 8.75421H48.8859C49.4221 9.56532 49.7755 10.3001 50.3116 10.8685C51.5274 12.1599 53.1494 12.5654 54.8774 12.5654C58.0874 12.5841 61.2991 12.5654 64.5091 12.5654C64.8079 12.5654 65.1067 12.5926 65.4004 12.6078V14.9767H64.4459C59.4158 14.9767 54.3868 14.9767 49.3589 14.9767C46.0242 14.9767 43.4187 13.2306 42.1671 10.1745C42.0681 9.93355 41.9656 9.69428 41.8666 9.45333L41.7095 9.48387V14.9224H34.5792V2.53514H25.4512V14.9224H18.3192V2.53514C16.1798 2.53514 14.1513 2.37563 12.1604 2.57926C10.1115 2.78798 8.58675 3.95882 7.84914 5.9323C6.94931 8.33848 7.86963 12.0546 9.80416 13.7617C10.3079 14.2063 10.9191 14.5321 11.5782 14.9767C10.1644 14.9767 8.85824 14.9529 7.55546 14.9767C5.00624 15.0344 3.01023 13.9467 1.62208 11.9427C0.88958 10.8923 0.529309 9.58738 0 8.39447ZM98.0775 6.21907H109.289C108.606 4.1336 107.176 2.83888 105.133 2.63526C102.817 2.40448 100.461 2.58265 98.0775 2.58265V6.21907Z" fill="black"/>
</svg>
