<svg width="140" height="40" viewBox="0 0 140 40" fill="none" xmlns="http://www.w3.org/2000/svg">
<path fill-rule="evenodd" clip-rule="evenodd" d="M44.4252 0.263184L41.0642 6.28998L37.7025 12.3684H44.4252H51.1488L47.787 6.28998L44.4252 0.263184Z" fill="#E675C6"/>
<path fill-rule="evenodd" clip-rule="evenodd" d="M52.9944 13.1577L59.9378 25.263H73.823L66.8795 13.1577H52.9944Z" fill="#E675C6"/>
<path fill-rule="evenodd" clip-rule="evenodd" d="M93.2784 12.8945L91.2917 22.1475L88.9002 13.2459H86.8046L84.4313 22.1475L82.4255 12.8945H79.887L83.0699 25.263H85.4605L87.7785 17.0851L90.0601 25.263H92.4879L95.7062 12.8945H93.2784Z" fill="#D83BB3"/>
<path fill-rule="evenodd" clip-rule="evenodd" d="M99.7936 12.8945L95.1789 25.263H97.587L98.6453 22.1283H103.168L104.226 25.263H106.78L102.165 12.8945H99.7936ZM100.907 15.3979L102.511 20.1996H99.2825L100.907 15.3979Z" fill="#D83BB3"/>
<path fill-rule="evenodd" clip-rule="evenodd" d="M105.198 12.8945V14.9523H109.425V25.263H111.781V14.9523H116.008V12.8945H105.198Z" fill="#D83BB3"/>
<mask id="mask0" mask-type="alpha" maskUnits="userSpaceOnUse" x="116" y="12" width="12" height="14">
<path d="M116.224 12.769H127.458V25.5338H116.224V12.769Z" fill="white"/>
</mask>
<g mask="url(#mask0)">
<path fill-rule="evenodd" clip-rule="evenodd" d="M127.458 23.0138C127.274 23.2938 127.021 23.5797 126.697 23.8717C126.373 24.1645 125.992 24.4349 125.552 24.684C125.111 24.9338 124.63 25.139 124.104 25.2962C123.578 25.455 123.024 25.534 122.437 25.534C121.52 25.534 120.684 25.3752 119.926 25.0592C119.168 24.7432 118.514 24.301 117.965 23.7351C117.416 23.1693 116.988 22.5021 116.682 21.7353C116.377 20.9685 116.224 20.1287 116.224 19.2151C116.224 18.3264 116.377 17.4926 116.682 16.7129C116.988 15.9341 117.418 15.2523 117.974 14.6676C118.53 14.0837 119.193 13.6217 119.963 13.28C120.731 12.9399 121.582 12.769 122.51 12.769C123.108 12.769 123.658 12.8326 124.159 12.9605C124.66 13.0885 125.115 13.2619 125.524 13.4809C125.933 13.6998 126.296 13.9592 126.614 14.2571C126.932 14.5551 127.213 14.8745 127.458 15.2163L125.827 16.6588C125.435 16.0981 124.98 15.6482 124.461 15.3073C123.942 14.9664 123.292 14.7964 122.51 14.7964C121.911 14.7964 121.373 14.914 120.897 15.1519C120.42 15.3897 120.014 15.7057 119.679 16.1015C119.342 16.4974 119.086 16.9594 118.908 17.4892C118.732 18.0198 118.644 18.5762 118.644 19.161C118.644 19.7449 118.732 20.2927 118.908 20.8045C119.086 21.3145 119.339 21.7602 119.669 22.1371C119.999 22.515 120.393 22.8129 120.851 23.0319C121.309 23.2508 121.826 23.3607 122.4 23.3607C122.924 23.3607 123.374 23.2998 123.747 23.1778C124.12 23.0568 124.437 22.9039 124.7 22.721C124.962 22.539 125.182 22.3475 125.359 22.1457C125.537 21.9457 125.698 21.7722 125.845 21.6262L127.458 23.0138Z" fill="#D83BB3"/>
</g>
<path fill-rule="evenodd" clip-rule="evenodd" d="M129.162 13.0615H131.471V17.9551H137.536V13.0615H139.845V25.2426H137.536V20.0004H131.471V25.2426H129.162V13.0615Z" fill="#D83BB3"/>
<path fill-rule="evenodd" clip-rule="evenodd" d="M81.9757 9.74961H79.6828V1.04871C80.697 0.476837 82.2411 0.169434 83.6956 0.169434C84.7098 0.169434 85.4595 0.389253 85.9446 0.696657C86.7821 0.389253 87.7972 0.169434 88.7674 0.169434C91.7661 0.169434 92.2072 1.79575 92.2072 3.72862V9.74961H89.8695V3.90465C89.8695 2.67417 89.561 2.01557 88.2815 2.01557C87.929 2.01557 87.356 2.10316 86.9588 2.32298C87.0475 2.76262 87.0915 3.20226 87.0915 3.68483V9.70582H84.7546V3.90465C84.7546 2.71882 84.4892 2.01557 83.2114 2.01557C82.8141 2.01557 82.2411 2.10316 81.9757 2.27833V9.74961Z" fill="#F0A4D8"/>
<mask id="mask1" mask-type="alpha" maskUnits="userSpaceOnUse" x="93" y="0" width="10" height="10">
<path d="M93.8828 0.125H102.174V9.83784H93.8828V0.125Z" fill="white"/>
</mask>
<g mask="url(#mask1)">
<path fill-rule="evenodd" clip-rule="evenodd" d="M97.719 4.43111C98.3368 4.38732 99.2631 4.29973 99.7922 4.25508V3.8601C99.7922 2.62962 99.351 1.92637 98.0275 1.92637C96.3076 1.92637 96.087 3.02461 96.087 4.4749L97.719 4.43111ZM93.8828 5.00299C93.8828 1.57432 94.9409 0.124023 98.0723 0.124023C101.468 0.124023 102.174 1.92637 102.174 4.78317C102.174 5.04678 102.174 5.2666 102.129 5.53021C101.071 5.70538 98.9977 5.9252 97.719 6.01364L96.1757 6.10122C96.2645 7.59531 97.0141 7.94736 98.3808 7.94736C99.6155 7.94736 100.762 7.81513 101.732 7.68375L101.908 9.48524C100.938 9.66041 99.6595 9.83644 97.8517 9.83644C94.7212 9.88023 93.8828 7.81513 93.8828 5.00299Z" fill="#F0A4D8"/>
</g>
<mask id="mask2" mask-type="alpha" maskUnits="userSpaceOnUse" x="7" y="0" width="14" height="13">
<path d="M7.17017 0.125H20.8553V12.1933H7.17017V0.125Z" fill="white"/>
</mask>
<g mask="url(#mask2)">
<path fill-rule="evenodd" clip-rule="evenodd" d="M14.0127 12.1926H7.17017L10.591 6.13128L14.0127 0.124023L17.4344 6.13128L20.8553 12.1926H14.0127Z" fill="#E675C6"/>
</g>
<path fill-rule="evenodd" clip-rule="evenodd" d="M44.5013 13.2002H51.3439L47.923 19.2074L44.5013 25.2147L41.0805 19.2074L37.6588 13.2002H44.5013Z" fill="#F0A4D8"/>
<path fill-rule="evenodd" clip-rule="evenodd" d="M22.5782 13.2002H36.2633L43.1059 25.2147H29.4208L22.5782 13.2002Z" fill="#E675C6"/>
<mask id="mask3" mask-type="alpha" maskUnits="userSpaceOnUse" x="0" y="13" width="21" height="13">
<path d="M0 13.2002H20.5284V25.2147H0V13.2002Z" fill="white"/>
</mask>
<g mask="url(#mask3)">
<path fill-rule="evenodd" clip-rule="evenodd" d="M20.5279 13.2002H6.84192L-0.000640869 25.2147H13.6853L20.5279 13.2002Z" fill="#F0A4D8"/>
</g>
<path fill-rule="evenodd" clip-rule="evenodd" d="M45.8964 0.125H59.5824L66.425 12.1936H52.739L45.8964 0.125Z" fill="#D83BB3"/>
<path fill-rule="evenodd" clip-rule="evenodd" d="M15.408 0.125H29.0931L35.9365 12.1936H22.2505L15.408 0.125Z" fill="#D83BB3"/>
<path d="M33.9575 37.8946V35.3841H35.7135C36.9758 35.3841 37.6972 34.5125 37.6972 33.4799C37.6972 32.4473 36.9853 31.5757 35.7135 31.5757H33.1697V37.8946H33.9575ZM35.6186 34.6831H33.9575V32.2767H35.6186C36.3684 32.2767 36.8809 32.7694 36.8809 33.4799C36.8809 34.1904 36.3684 34.6831 35.6186 34.6831ZM39.4247 37.8946V34.6546C39.6335 34.2852 40.2314 33.9252 40.6775 33.9252C40.7819 33.9252 40.8674 33.9346 40.9528 33.9441V33.2146C40.3263 33.2146 39.7948 33.5746 39.4247 34.0483V33.3188H38.7128V37.8946H39.4247ZM43.9236 38.0083C44.664 38.0083 45.2809 37.7525 45.746 37.2978L45.4043 36.8336C45.0341 37.2125 44.5121 37.4209 43.9806 37.4209C42.9935 37.4209 42.3955 36.7009 42.3386 35.8388H46.0402V35.6588C46.0402 34.2852 45.224 33.2052 43.8382 33.2052C42.5284 33.2052 41.5792 34.2757 41.5792 35.602C41.5792 37.0325 42.5569 38.0083 43.9236 38.0083ZM45.3379 35.3083H42.3291C42.367 34.6167 42.8511 33.7925 43.8287 33.7925C44.8728 33.7925 45.3284 34.6357 45.3379 35.3083ZM49.1914 37.8946L51.0992 33.3188H50.3304L48.8023 37.0704L47.2836 33.3188H46.5053L48.4131 37.8946H49.1914ZM52.2002 32.6652C52.466 32.6652 52.6748 32.4567 52.6748 32.1915C52.6748 31.9262 52.466 31.7083 52.2002 31.7083C51.9345 31.7083 51.7162 31.9262 51.7162 32.1915C51.7162 32.4567 51.9345 32.6652 52.2002 32.6652ZM52.5514 37.8946V33.3188H51.8396V37.8946H52.5514ZM55.9779 38.0083C57.3731 38.0083 58.2463 36.9283 58.2463 35.602C58.2463 34.2757 57.3731 33.2052 55.9779 33.2052C54.5826 33.2052 53.7094 34.2757 53.7094 35.602C53.7094 36.9283 54.5826 38.0083 55.9779 38.0083ZM55.9779 37.3736C55.0002 37.3736 54.4592 36.5399 54.4592 35.602C54.4592 34.6736 55.0002 33.8399 55.9779 33.8399C56.9555 33.8399 57.4965 34.6736 57.4965 35.602C57.4965 36.5399 56.9555 37.3736 55.9779 37.3736ZM60.866 38.0083C61.5494 38.0083 62.1474 37.6483 62.4986 37.2504V37.8946H63.2104V33.3188H62.4986V36.682C62.2328 37.0515 61.7013 37.3736 61.1508 37.3736C60.5243 37.3736 60.1162 37.1367 60.1162 36.3315V33.3188H59.4043V36.5494C59.4043 37.5346 59.9074 38.0083 60.866 38.0083ZM66.0958 38.0083C67.2728 38.0083 67.8897 37.3925 67.8897 36.6252C67.8897 34.8441 65.0518 35.4978 65.0518 34.503C65.0518 34.0957 65.4409 33.7831 66.0674 33.7831C66.6653 33.7831 67.1589 34.0294 67.4341 34.3609L67.7663 33.8683C67.4057 33.4988 66.8552 33.2052 66.0674 33.2052C64.9758 33.2052 64.3684 33.802 64.3684 34.522C64.3684 36.2178 67.2063 35.5357 67.2063 36.6441C67.2063 37.0988 66.8172 37.4304 66.1148 37.4304C65.4884 37.4304 64.9094 37.1273 64.6057 36.7767L64.245 37.2883C64.7101 37.7715 65.3365 38.0083 66.0958 38.0083ZM69.7596 37.8946V31.5757H69.0477V37.8946H69.7596ZM71.4491 39.7515C72.0565 39.742 72.5216 39.4862 72.7969 38.823L75.0938 33.3188H74.325L72.7969 37.0704L71.2782 33.3188H70.4999L72.4172 37.942L72.1135 38.6336C71.9521 39.0125 71.7433 39.1167 71.4301 39.1167C71.3162 39.1167 71.1453 39.0883 71.0409 39.0409L70.9365 39.6852C71.0599 39.723 71.2972 39.7515 71.4491 39.7515ZM80.6748 37.8946V32.2767H82.687V31.5757H77.8843V32.2767H79.887V37.8946H80.6748ZM85.7053 38.0083C87.1006 38.0083 87.9738 36.9283 87.9738 35.602C87.9738 34.2757 87.1006 33.2052 85.7053 33.2052C84.3101 33.2052 83.4368 34.2757 83.4368 35.602C83.4368 36.9283 84.3101 38.0083 85.7053 38.0083ZM85.7053 37.3736C84.7277 37.3736 84.1867 36.5399 84.1867 35.602C84.1867 34.6736 84.7277 33.8399 85.7053 33.8399C86.683 33.8399 87.224 34.6736 87.224 35.602C87.224 36.5399 86.683 37.3736 85.7053 37.3736ZM90.9731 39.7515C92.0931 39.7515 93.1657 39.2778 93.1657 37.8283V33.3188H92.4538V34.0104C92.0836 33.5083 91.5236 33.2052 90.9067 33.2052C89.7013 33.2052 88.866 34.1146 88.866 35.5831C88.866 37.0609 89.7107 37.9515 90.9067 37.9515C91.5521 37.9515 92.1121 37.6009 92.4538 37.1367V37.8283C92.4538 38.7946 91.7324 39.1641 90.9731 39.1641C90.3182 39.1641 89.8626 38.9936 89.483 38.5483L89.1223 39.0599C89.6728 39.5999 90.2043 39.7515 90.9731 39.7515ZM91.087 37.3167C90.1569 37.3167 89.6063 36.5873 89.6063 35.5831C89.6063 34.5694 90.1569 33.8399 91.087 33.8399C91.647 33.8399 92.1975 34.1809 92.4538 34.5694V36.5778C92.1975 36.9757 91.647 37.3167 91.087 37.3167ZM96.4307 39.7515C97.5507 39.7515 98.6233 39.2778 98.6233 37.8283V33.3188H97.9114V34.0104C97.5413 33.5083 96.9813 33.2052 96.3643 33.2052C95.1589 33.2052 94.3236 34.1146 94.3236 35.5831C94.3236 37.0609 95.1684 37.9515 96.3643 37.9515C97.0097 37.9515 97.5697 37.6009 97.9114 37.1367V37.8283C97.9114 38.7946 97.1901 39.1641 96.4307 39.1641C95.7758 39.1641 95.3202 38.9936 94.9406 38.5483L94.5799 39.0599C95.1304 39.5999 95.6619 39.7515 96.4307 39.7515ZM96.5446 37.3167C95.6145 37.3167 95.064 36.5873 95.064 35.5831C95.064 34.5694 95.6145 33.8399 96.5446 33.8399C97.1046 33.8399 97.6552 34.1809 97.9114 34.5694V36.5778C97.6552 36.9757 97.1046 37.3167 96.5446 37.3167ZM100.759 37.8946V31.5757H100.047V37.8946H100.759ZM104.261 38.0083C105.002 38.0083 105.619 37.7525 106.084 37.2978L105.742 36.8336C105.372 37.2125 104.85 37.4209 104.318 37.4209C103.331 37.4209 102.733 36.7009 102.676 35.8388H106.378V35.6588C106.378 34.2852 105.562 33.2052 104.176 33.2052C102.866 33.2052 101.917 34.2757 101.917 35.602C101.917 37.0325 102.894 38.0083 104.261 38.0083ZM105.676 35.3083H102.667C102.705 34.6167 103.189 33.7925 104.166 33.7925C105.21 33.7925 105.666 34.6357 105.676 35.3083Z" fill="#666666"/>
</svg>
