<svg width="134" height="30" viewBox="0 0 134 30" fill="none" xmlns="http://www.w3.org/2000/svg">
<path d="M93.4863 11.2026C94.336 11.2026 95.1754 11.1907 96.0217 11.2026C96.9903 11.2196 97.2554 11.6156 96.8884 12.4958C96.6726 13.0192 96.438 13.5358 96.1899 14.0439C95.9843 14.4688 95.9826 14.7916 96.5621 14.7525C97.5409 14.6863 97.7023 15.3337 97.8587 16.0797C98.0286 16.858 97.7669 17.2693 97.026 17.5769C95.9062 18.0374 95.1448 18.9516 94.6469 20.0171C93.7228 21.9697 93.2313 24.0988 93.2059 26.2588C93.1957 26.9148 93.4268 27.1595 94.0929 27.1646C95.5578 27.1646 96.1746 27.6574 96.6963 29.0338C96.8459 29.4247 96.7184 29.5623 96.3463 29.5759C96.1475 29.5759 95.9503 29.5759 95.7515 29.5759L4.6751 29.5708C2.29601 29.5708 1.05039 28.4493 0.800588 26.0957C0.777965 25.8698 0.767187 25.6429 0.768301 25.4159C0.767168 18.2515 0.766602 11.0871 0.766602 3.92262C0.766602 2.55125 1.18634 1.37021 2.41667 0.581709C2.96923 0.228059 3.61294 0.043216 4.26895 0.0498142C13.1055 0.0237576 21.9421 0.00846349 30.7787 0.0039319C37.0816 0.00223256 43.393 0.0855005 49.7077 0.0939972C61.0594 0.110991 72.4104 0.110991 83.7609 0.0939972C91.4352 0.0939972 99.1111 0.109291 106.785 0.0804024C107.635 0.0804024 108.199 0.337004 108.714 1.01504C111.681 4.90994 114.687 8.77425 117.675 12.6522C117.913 12.9614 118.202 13.2486 118.185 13.6939C118.123 14.9276 117.661 15.2131 116.577 14.6404C115.692 14.1846 114.709 13.9513 113.714 13.9607C112.382 13.9459 111.051 13.9459 109.72 13.9607C109.21 13.9607 108.714 13.9403 108.556 13.3591C108.386 12.7099 108.128 11.9605 108.726 11.449C109.119 11.1092 109.18 10.7693 109.164 10.3478C109.096 8.41909 108.916 6.46994 107.307 5.15805C105.066 3.33295 102.462 2.6872 99.66 3.61334C97.6956 4.26419 96.5655 5.7834 96.3208 7.83791C96.2154 8.72157 95.8535 9.29935 95.1312 9.74628C94.5365 10.1116 93.9876 10.5484 93.4166 10.9528L93.4863 11.2026ZM24.7274 11.2434C24.9823 11.5476 24.8973 11.9231 24.8973 12.2766C24.8973 15.1383 24.8769 17.9983 24.8973 20.8583C24.9228 23.4175 24.4538 23.0352 27.2543 23.0827C27.8695 23.0929 28.1125 22.8618 28.104 22.2331C28.0904 17.1917 28.0904 12.1503 28.104 7.10889C28.104 6.47504 27.8423 6.25922 27.2373 6.27621C26.1327 6.3017 25.0282 6.3119 23.9236 6.27621C23.2795 6.25412 22.9465 6.49713 22.7578 7.11569C22.1155 9.22798 21.4357 11.3301 20.7645 13.4322C20.3414 14.7542 19.9148 16.0729 19.4781 17.3916C19.4186 17.5752 19.3897 17.8233 19.1535 17.8369C18.9173 17.8505 18.8799 17.5905 18.8136 17.4154C18.7474 17.2404 18.7066 17.0925 18.6437 16.9311C17.5408 13.6871 16.4346 10.4481 15.347 7.19726C15.1244 6.51752 14.7658 6.24223 14.0504 6.27452C13.0315 6.3281 12.0105 6.3281 10.9916 6.27452C10.1589 6.22523 9.93117 6.54981 9.93627 7.3519C9.96516 11.9401 9.93627 16.5284 9.95326 21.1166C9.95326 23.3563 9.65928 23.0589 11.9636 23.0759C13.1378 23.0759 13.1531 23.0606 13.1531 21.8864C13.1531 18.6305 13.1531 15.3728 13.1531 12.1152C13.1531 11.8603 13.041 11.4541 13.4165 11.415C13.7105 11.3844 13.7139 11.7821 13.7921 12.0064C14.8831 15.1332 15.957 18.2651 17.0497 21.3919C17.755 23.4073 17.4814 23.0029 19.3948 23.0912C20.1442 23.1235 20.5028 22.8448 20.7407 22.1362C21.8997 18.6746 23.1079 15.2267 24.3093 11.7702C24.3875 11.5714 24.396 11.3148 24.7274 11.2434ZM46.6591 14.6829C46.6591 17.1435 46.6829 19.611 46.6438 22.0665C46.6319 22.8465 46.8953 23.1014 47.6634 23.0861C50.1802 23.0488 52.6986 23.0708 55.217 23.0725C55.983 23.0635 56.7422 22.9274 57.4636 22.6698C59.2785 22.0461 60.4544 20.8277 60.6634 18.8854C60.8809 16.8801 60.208 15.2556 58.2979 14.3294C57.7321 14.0541 57.6828 13.8808 58.2368 13.5018C59.6965 12.5094 60.067 11.082 59.7662 9.40301C59.4654 7.72406 58.3812 6.88798 56.7991 6.5617C56.1458 6.40278 55.4778 6.31167 54.8058 6.28981C52.4267 6.29831 50.0476 6.317 47.6685 6.27791C46.8902 6.26602 46.6336 6.52432 46.6489 7.29752C46.6863 9.75817 46.6608 12.2205 46.6591 14.6829ZM31.7049 14.6251C31.7049 17.0574 31.7049 19.4898 31.7049 21.9221C31.7049 23.0589 31.7219 23.0742 32.8281 23.0759C35.7697 23.0759 38.7113 23.0946 41.6529 23.0759C43.6819 23.0589 43.5493 23.4923 43.5476 21.0911C43.5476 20.4318 43.3148 20.2108 42.6521 20.2227C40.5313 20.2567 38.4037 20.2074 36.288 20.2482C35.4859 20.2635 35.1919 20.0069 35.2004 19.1844C35.2327 15.7059 35.214 12.2256 35.2123 8.74706C35.2123 6.25072 35.2123 6.27282 32.6854 6.27791C31.9581 6.27791 31.6828 6.49713 31.6947 7.24824C31.727 9.70379 31.7049 12.1644 31.7032 14.6251H31.7049ZM83.1764 23.0776C85.1578 23.0555 84.8162 23.2969 85.4263 21.431C86.2975 18.7687 87.1551 16.1024 87.9991 13.4322C88.5361 11.7328 88.5191 11.7583 86.7416 11.7175C85.9565 11.7005 85.5758 11.9401 85.3821 12.7371C84.823 15.0465 84.1926 17.3373 83.5774 19.6348C83.5213 19.8455 83.5315 20.1667 83.263 20.1752C82.9945 20.1837 83.0013 19.8557 82.9452 19.6484C82.3997 17.599 81.8662 15.5444 81.3122 13.4967C80.7701 11.4932 81.268 11.7566 79.0673 11.7413C78.0715 11.7413 78.0052 11.8314 78.2941 12.7609C79.2067 15.677 80.1073 18.5965 81.0471 21.504C81.635 23.3138 81.3462 23.0505 83.1747 23.0776H83.1764ZM72.7543 11.7362C71.3948 11.7362 70.0353 11.7498 68.6758 11.7362C68.0947 11.726 67.8262 11.9605 67.8737 12.54C67.8883 12.7096 67.8883 12.8802 67.8737 13.0498C67.7956 13.7975 68.0777 14.1714 68.8781 14.0983C69.3267 14.0575 69.7855 14.1255 70.2375 14.0847C71.0379 14.0116 71.3438 14.3124 71.3251 15.1417C71.2792 17.2064 71.303 19.2728 71.3132 21.3392C71.3234 23.2612 71.0736 23.0488 73.1094 23.098C73.869 23.1167 74.1613 22.8924 74.1443 22.0903C74.0967 19.9118 74.1273 17.7332 74.129 15.5529C74.129 14.0898 74.129 14.0898 75.6347 14.0898C76.0306 14.0898 76.4266 14.0796 76.8242 14.0898C77.3153 14.1017 77.5651 13.8859 77.5481 13.3812C77.5328 13.0982 77.5328 12.8145 77.5481 12.5315C77.5906 11.9452 77.3289 11.7243 76.7477 11.7345C75.4154 11.7515 74.0849 11.7277 72.7543 11.7362ZM63.1292 21.4225C63.133 21.879 63.3146 22.316 63.6354 22.6409C63.9561 22.9658 64.3908 23.1529 64.8472 23.1626C65.7666 23.1524 66.6536 22.245 66.6264 21.3443C66.5975 20.4165 65.7581 19.5923 64.8727 19.6246C64.6396 19.6256 64.409 19.6733 64.1946 19.7647C63.9801 19.8561 63.7861 19.9896 63.624 20.1571C63.4619 20.3246 63.3349 20.5228 63.2505 20.7401C63.1661 20.9575 63.126 21.1894 63.1326 21.4225H63.1292Z" fill="#030087"/>
<path d="M133.971 13.6624C133.971 16.4647 134.047 19.2703 133.942 22.0674C133.884 23.6138 134.078 25.1721 133.736 26.71C133.327 28.5589 132.163 29.5615 130.283 29.5751C127.253 29.5955 124.225 29.5904 121.197 29.6193C120.636 29.6193 120.425 29.3661 120.4 28.8682C120.385 28.5861 120.381 28.3006 120.4 28.0185C120.437 27.2028 120.706 26.9479 121.528 27.0567C122.548 27.1909 123.568 27.1451 124.587 27.1315C126.371 27.1077 128.207 25.4457 128.455 23.6835C128.506 23.3147 128.268 23.0989 128.066 22.878C127.611 22.4109 127.27 21.8458 127.068 21.2262C126.844 20.4853 126.307 20.0044 125.612 19.656C124.706 19.204 123.974 18.6653 123.889 17.4571C123.834 16.7043 123.039 16.1741 122.562 15.5878C122.031 14.9404 121.576 14.2011 120.779 13.6794C120.021 13.1866 119.635 12.1041 119.124 11.2562C117.173 8.04215 115.233 4.81962 113.305 1.5886C113.255 1.52009 113.21 1.44859 113.169 1.37449C112.999 1.00573 112.552 0.66246 112.817 0.235925C113.083 -0.190611 113.545 0.0914805 113.925 0.0914805C119.212 0.0897812 124.514 0.116971 129.806 0.0761864C132.148 0.0574936 133.509 1.0907 133.826 3.4018C134.149 5.76899 133.911 8.15147 133.969 10.5255C133.996 11.5587 133.971 12.614 133.971 13.6624Z" fill="#CD0001"/>
<path d="M52.9374 20.4657C52.3137 20.4657 51.6883 20.4232 51.0681 20.4759C50.4478 20.5286 50.1606 20.3246 50.1691 19.6891C50.1827 18.5573 50.1793 17.4238 50.1691 16.2904C50.1691 15.801 50.3799 15.5597 50.8846 15.5648C52.244 15.5767 53.6035 15.5291 54.963 15.592C56.4108 15.6599 57.2231 16.6354 57.2044 18.141C57.1874 19.5225 56.3428 20.3501 54.8848 20.4096C54.234 20.4317 53.5831 20.4096 52.9323 20.4096L52.9374 20.4657Z" fill="#030087"/>
<path d="M52.8922 8.97486C53.4632 9.00545 54.2517 8.878 55.0351 9.09382C56.0343 9.37081 56.4455 9.9129 56.4931 11.0056C56.5356 11.9419 56.0989 12.7338 55.239 13.004C53.7283 13.4798 52.1632 13.2113 50.6202 13.1977C50.2803 13.1977 50.1766 12.8919 50.1749 12.5843C50.1664 11.5647 50.1749 10.5451 50.1562 9.53905C50.1562 9.06663 50.4349 8.97486 50.8139 8.97486H52.8922Z" fill="#030087"/>
</svg>
