<svg width="72" height="77" viewBox="0 0 72 77" fill="none" xmlns="http://www.w3.org/2000/svg">
<path d="M66.9631 76.1359C66.7489 76.1347 66.5353 76.1124 66.3254 76.0695C65.796 75.9416 65.5021 75.558 65.2999 75.0934C64.7696 73.8839 64.25 72.6666 63.7315 71.4572C63.1735 70.1556 62.6152 68.8573 62.0565 67.5623C61.8505 67.0849 61.9247 66.8341 62.3642 66.551C62.698 66.3198 63.0819 66.1709 63.4844 66.1166C64.1963 66.0395 64.7354 66.3274 65.1388 66.8975C65.3761 67.2333 65.4933 67.6209 65.6154 68.0055L66.9045 72.077C66.9127 72.0965 66.9199 72.1164 66.926 72.1366C66.9406 72.1951 66.9524 72.2469 67.0324 72.2527C67.1125 72.2586 67.1223 72.1981 67.1408 72.1454C67.3831 71.462 67.5784 70.7573 67.7962 70.0622C68.0566 69.2318 68.317 68.4011 68.5775 67.5701C68.6639 67.2729 68.8076 66.9953 69.0003 66.753C69.5414 66.0961 70.3676 65.9233 71.1665 66.3001C71.3684 66.3963 71.5563 66.5195 71.7251 66.6662C72.025 66.9258 72.066 67.1064 71.9136 67.4695C71.565 68.2964 71.2134 69.1222 70.8676 69.9509C70.1847 71.5876 69.5033 73.2253 68.8236 74.864C68.7282 75.101 68.6021 75.3245 68.4485 75.5287C68.3213 75.697 68.1597 75.8362 67.9745 75.9372C67.7893 76.0382 67.5847 76.0986 67.3743 76.1144C67.2424 76.1281 67.1086 76.1291 66.9631 76.1359Z" fill="#094D7E"/>
<path d="M55.1986 66.1918C56.2169 66.1918 57.2356 66.1918 58.2545 66.1918C58.5371 66.1803 58.8195 66.2173 59.0895 66.3011C59.3157 66.3708 59.5129 66.5125 59.6512 66.7046C59.7894 66.8967 59.861 67.1286 59.8552 67.3651C59.8572 67.6209 59.8115 67.8748 59.7204 68.1139C59.5544 68.558 59.2145 68.7454 58.7545 68.763C58.1529 68.7855 57.5513 68.805 56.9488 68.7942C56.8003 68.7942 56.7788 68.8382 56.7798 68.9709C56.7876 70.8081 56.7919 72.6452 56.7925 74.4823C56.806 74.8784 56.702 75.2697 56.4937 75.6069C56.1753 76.0949 55.5952 76.3214 54.9662 76.2013C54.8565 76.1809 54.7482 76.1535 54.642 76.1193C54.0247 75.9241 53.7689 75.5971 53.763 74.9479C53.7532 73.5813 53.763 72.2215 53.763 70.8578C53.763 70.2243 53.763 69.5888 53.7777 68.9582C53.7777 68.8284 53.7288 68.8138 53.6194 68.8128C53.0335 68.8128 52.4367 68.8489 51.8459 68.8011C51.047 68.7357 50.5958 68.2105 50.6573 67.4071C50.6625 67.151 50.7328 66.9004 50.8614 66.6789C51.0734 66.3558 51.3966 66.2377 51.7609 66.2103C52.4446 66.1586 53.1282 66.1957 53.8118 66.1928C54.2709 66.1908 54.7348 66.1918 55.1986 66.1918Z" fill="#094D7E"/>
<path d="M10.2749 67.9295C10.1069 68.2663 9.95653 68.5679 9.80711 68.8715C8.97893 70.5531 8.15075 72.236 7.32257 73.9202C7.18878 74.1915 7.06181 74.4668 6.92118 74.7353C6.80106 74.9637 6.64187 75.1501 6.35279 75.1648C6.23137 75.1731 6.11029 75.1444 6.00562 75.0823C5.90096 75.0202 5.81766 74.9278 5.76681 74.8173C5.59395 74.5 5.43671 74.174 5.2785 73.8509L3.17485 69.5909C2.90921 69.054 2.64357 68.5171 2.34863 67.9783C2.31738 68.2145 2.28515 68.4508 2.25585 68.687C2.11131 69.8831 1.96449 71.0818 1.81539 72.2832C1.67475 73.4233 1.53445 74.5622 1.39446 75.6997C1.35442 76.0218 1.163 76.179 0.853413 76.1478C0.604374 76.1234 0.433466 75.8871 0.467648 75.5982C0.551638 74.8788 0.641486 74.1613 0.729383 73.4428C0.843973 72.5031 0.957913 71.5631 1.0712 70.6227C1.20142 69.5294 1.33489 68.4364 1.47162 67.3438C1.49701 67.132 1.52533 66.9211 1.54877 66.7093C1.58198 66.4028 1.7441 66.187 1.98044 66.1441C2.32421 66.0816 2.55372 66.1909 2.70314 66.4965C3.87965 68.9043 5.05615 71.3099 6.23266 73.7132C6.2561 73.7601 6.28247 73.805 6.32251 73.8792C6.46119 73.599 6.58913 73.3403 6.71316 73.0817L9.12347 68.1384C9.3839 67.5982 9.64434 67.0581 9.90477 66.518C10.0561 66.2046 10.2622 66.0953 10.6177 66.1421C10.858 66.1744 11.0318 66.3735 11.0709 66.6868C11.1959 67.6845 11.314 68.6831 11.4351 69.6817C11.5608 70.6989 11.6842 71.7137 11.8053 72.7263C11.9215 73.6879 12.0397 74.6484 12.153 75.6099C12.1862 75.8959 12.0211 76.1224 11.776 76.1517C11.4781 76.1878 11.2711 76.0365 11.231 75.7261C11.1226 74.8983 11.025 74.0666 10.9234 73.2398L10.4966 69.7393C10.4243 69.1507 10.3521 68.5611 10.2749 67.9295Z" fill="#094D7E"/>
<path d="M19.8605 66.1099C21.0033 66.0847 22.1172 66.4714 22.9983 67.1993C23.8401 67.8772 24.4335 68.8146 24.686 69.8652C24.8399 70.4647 24.8859 71.0868 24.8217 71.7023C24.7419 72.6091 24.4138 73.4764 23.8734 74.2091C23.0462 75.318 21.9387 75.9662 20.5705 76.1829C20.1327 76.2537 19.687 76.2613 19.2471 76.2054C18.619 76.1277 18.0126 75.9263 17.4628 75.6128C17.0452 75.381 16.6633 75.09 16.329 74.7489C15.7699 74.162 15.3576 73.4512 15.1258 72.6746C14.9765 72.149 14.9051 71.6044 14.9139 71.0581C14.9151 70.2074 15.1318 69.3708 15.5438 68.6265C15.8045 68.1382 16.1516 67.7013 16.5683 67.337C17.4698 66.5247 18.6469 66.086 19.8605 66.1099ZM23.8929 71.5852C23.9017 70.3894 23.6976 69.6407 23.2757 68.9496C22.8799 68.302 22.3065 67.7815 21.6236 67.4498C20.9407 67.1181 20.1769 66.9892 19.4229 67.0783C18.8822 67.1293 18.3586 67.295 17.8871 67.5643C17.4155 67.8336 17.0068 68.2004 16.6884 68.6401C16.3306 69.1082 16.0775 69.6476 15.9462 70.2219C15.815 70.7961 15.8086 71.3919 15.9276 71.9688C16.0947 72.967 16.6404 73.8624 17.4511 74.4688C18.2044 75.0358 19.1332 75.3201 20.075 75.2717C21.0168 75.2233 21.9116 74.8455 22.6028 74.2042C23.471 73.3901 23.8763 72.3739 23.8929 71.5852Z" fill="#094D7E"/>
<path d="M44.3884 76.1585C44.1765 76.1585 44.0193 76.0365 43.9284 75.8032C43.6501 75.0798 43.3698 74.3575 43.0973 73.6312C43.087 73.5866 43.06 73.5476 43.0219 73.5222C42.9838 73.4968 42.9374 73.4869 42.8922 73.4945C41.4683 73.4945 40.0444 73.4945 38.6205 73.4945C38.5746 73.4884 38.5281 73.4999 38.4904 73.5267C38.4527 73.5536 38.4266 73.5937 38.4173 73.639C38.1426 74.3705 37.8639 75.0997 37.5814 75.8266C37.5475 75.9295 37.4801 76.018 37.3899 76.078C37.2997 76.138 37.1919 76.166 37.0839 76.1574C36.9759 76.1489 36.8739 76.1043 36.7942 76.0309C36.7146 75.9574 36.662 75.8593 36.6448 75.7524C36.6355 75.646 36.654 75.5391 36.6985 75.442L39.7739 67.4375L40.0874 66.6204C40.2231 66.269 40.4028 66.1402 40.7554 66.1323C41.1079 66.1245 41.2916 66.2544 41.4273 66.6068C42.1637 68.52 42.8991 70.4336 43.6335 72.3476C44.0339 73.3888 44.4337 74.43 44.8328 75.4713C44.9246 75.7124 44.8699 75.9223 44.6873 76.057C44.6028 76.1251 44.4969 76.1611 44.3884 76.1585ZM42.7096 72.5984C42.0631 70.9175 41.4214 69.2512 40.7661 67.5497L38.8246 72.5984H42.7096Z" fill="#094D7E"/>
<path d="M28.0114 71.1146C28.0114 69.6289 28.0114 68.1431 28.0114 66.6574C28.0114 66.3324 28.2067 66.1342 28.5075 66.1449C28.6122 66.1463 28.7132 66.184 28.7931 66.2517C28.8729 66.3194 28.9267 66.4128 28.9451 66.5159C28.9571 66.5891 28.9624 66.6633 28.9607 66.7375C28.9607 69.4746 28.9607 72.2121 28.9607 74.9499C28.9607 75.0885 28.9871 75.1364 29.1394 75.1354C30.3231 75.1285 31.5077 75.1305 32.6914 75.1354C33.0469 75.1354 33.2656 75.3784 33.208 75.7045C33.188 75.8184 33.1264 75.9208 33.035 75.9919C32.9437 76.063 32.8293 76.0976 32.7139 76.0891H28.5534C28.2067 76.0891 28.0114 75.8939 28.0114 75.5444V71.1146Z" fill="#094D7E"/>
<path d="M36.0104 13.1855C36.7268 13.3563 37.4573 13.2557 38.1807 13.2791C43.1837 13.4359 48.1422 13.9249 52.9673 15.3547C55.5004 16.1035 57.9234 17.105 60.0586 18.6986C62.0509 20.1868 63.5234 22.0401 64.0947 24.5135C64.5044 26.2802 64.3545 28.0235 63.9495 29.7809C63.8535 30.2021 63.7388 30.6186 63.6335 31.0375C62.8726 31.1007 62.1562 31.0164 61.5522 30.4829C61.2104 30.181 60.8499 30.1927 60.5759 30.4829C60.302 30.7731 60.3254 31.1334 60.6602 31.4587C60.9961 31.7842 61.3979 32.0341 61.8384 32.1915C62.279 32.3489 62.7482 32.4102 63.2144 32.3713C62.7342 33.8321 62.0357 35.212 61.1425 36.464C61.098 36.4312 61.0863 36.464 61.0769 36.4967C60.9488 36.5063 60.8257 36.5508 60.7211 36.6254C59.8572 37.0654 58.977 37.4725 58.0897 37.8657C55.6313 38.9565 53.0812 39.828 50.4693 40.4701C48.8182 40.8796 47.1445 41.1921 45.4569 41.4061C44.0054 41.591 42.5516 41.7173 41.0907 41.7571C40.2011 41.7805 39.3091 41.7758 38.4124 41.7103C37.4502 41.6424 36.4857 41.5886 35.5282 41.4599C33.9026 41.2436 32.2974 40.8945 30.7288 40.4163C28.8756 39.8391 27.0905 39.0623 25.4051 38.0997C22.9867 36.7284 21.06 34.8751 19.7864 32.39C18.9318 30.706 18.4412 28.8611 18.3466 26.9752C18.2587 25.5008 18.369 24.0212 18.6743 22.576C19.2864 19.7211 20.4516 17.0135 22.1041 14.6059C22.2546 14.4489 22.3577 14.2526 22.4014 14.0396C24.1432 13.7401 25.9014 13.5926 27.6619 13.4522C29.0058 13.3469 30.3589 13.3142 31.7098 13.2861C32.9997 13.258 34.285 13.2861 35.582 13.2721C35.7248 13.2767 35.8887 13.3235 36.0104 13.1855ZM39.6649 28.9338C39.6158 29.5118 39.7703 30.0734 39.8382 30.6373C39.8983 30.9762 39.9957 31.3073 40.1285 31.6248C40.3743 32.3058 40.7442 32.8533 41.5496 32.9516C41.93 32.98 42.3125 32.9428 42.6803 32.8416C44.3191 32.4743 45.8315 31.7465 47.3204 30.986C47.4023 30.9548 47.4693 30.8938 47.508 30.8152C47.5466 30.7366 47.5541 30.6463 47.5288 30.5625C47.3696 29.4143 47.3696 28.2497 47.5288 27.1016C47.5536 27.0238 47.5486 26.9396 47.5149 26.8653C47.4812 26.7909 47.4211 26.7317 47.3462 26.6991C45.7238 25.8637 44.0944 25.026 42.2706 24.7265C41.4021 24.5837 40.7887 24.7054 40.3205 25.6625C39.8195 26.7085 39.7164 27.8129 39.6649 28.9338ZM59.5646 20.7718C59.0202 20.7698 58.4876 20.9306 58.0353 21.2334C57.583 21.5363 57.2316 21.9674 57.0263 22.4714C56.821 22.9753 56.7712 23.5292 56.8832 24.0617C56.9952 24.5942 57.264 25.0811 57.655 25.4597C58.0459 25.8384 58.5412 26.0916 59.0773 26.1867C59.6133 26.2818 60.1655 26.2146 60.663 25.9936C61.1605 25.7727 61.5806 25.4081 61.8692 24.9467C62.1578 24.4853 62.3018 23.9482 62.2826 23.4043C62.2685 22.6976 61.9762 22.0249 61.4692 21.5321C60.9621 21.0393 60.2812 20.7661 59.5739 20.7718H59.5646Z" fill="#0070B1"/>
<path d="M22.4014 14.0397C22.3577 14.2527 22.2546 14.449 22.1041 14.606C20.4493 17.0193 19.2841 19.7334 18.6743 22.5948C18.3689 24.04 18.2587 25.5196 18.3466 26.9941C18.4412 28.88 18.9317 30.7249 19.7864 32.4089C21.067 34.894 22.9937 36.7473 25.4051 38.1185C27.0905 39.0812 28.8755 39.8579 30.7288 40.4351C32.2998 40.9122 33.9073 41.2597 35.5352 41.4741C36.4927 41.6028 37.4572 41.6566 38.4194 41.7245C39.3161 41.79 40.2081 41.7947 41.0977 41.7713C42.5586 41.7315 44.0124 41.6051 45.4639 41.4203C47.1516 41.2063 48.8252 40.8938 50.4763 40.4843C53.0882 39.8422 55.6383 38.9707 58.0967 37.8798C58.984 37.4867 59.8642 37.0795 60.7281 36.6396C60.8327 36.565 60.9558 36.5205 61.084 36.5109C61.084 36.6654 60.9739 36.7636 60.892 36.8736C58.9746 39.4593 56.3947 41.1301 53.4167 42.2346C51.1628 43.0364 48.8257 43.5819 46.4495 43.8609C43.1937 44.2597 39.9155 44.4473 36.6355 44.4225C36.0198 44.4225 36.0245 44.4225 35.9964 45.1245C35.9259 47.4702 35.6644 49.8063 35.2144 52.1095C35.0199 53.1378 34.7015 54.1388 34.2663 55.0907C34.086 55.4715 33.8579 55.8277 33.5873 56.1507C33.3616 56.4226 33.0733 56.6357 32.7471 56.7718C32.4209 56.908 32.0666 56.963 31.7144 56.9323C27.8445 56.8036 25.2974 54.8379 23.8552 51.3162C23.1611 49.5321 22.7236 47.6586 22.5559 45.7517C22.4857 45.1183 22.4357 44.4826 22.4061 43.8445C22.4061 43.6456 22.3124 43.6386 22.1579 43.6105C19.784 43.201 17.4499 42.6465 15.2469 41.6402C12.4586 40.3649 10.2158 38.507 8.86496 35.6943C8.1593 34.1831 7.72655 32.559 7.5867 30.8972C7.44086 29.4339 7.45028 27.9593 7.6148 26.498C8.12516 21.9724 10.3211 18.5677 14.4041 16.4359C16.6024 15.294 18.9623 14.6435 21.3853 14.1942C21.7225 14.145 22.0619 14.0959 22.4014 14.0397Z" fill="#094D7E"/>
<path d="M36.0104 13.1855C35.8887 13.3236 35.7248 13.2768 35.5773 13.2768C34.2873 13.2768 33.0021 13.2627 31.7051 13.2908C30.3542 13.3189 29.0011 13.3517 27.6572 13.457C25.8967 13.5974 24.1455 13.7448 22.3967 14.0443C22.5372 11.4258 22.8649 8.83777 23.8552 6.38075C24.6091 4.5298 25.7071 2.95029 27.4606 1.90196C28.884 1.05019 30.4479 0.75769 32.0843 0.75769C32.8429 0.75769 33.3673 1.20229 33.7863 1.78496C34.4582 2.72097 34.793 3.81141 35.0599 4.9159C35.6639 7.40568 35.877 9.94694 35.9964 12.4976C36.0057 12.7269 36.0057 12.9562 36.0104 13.1855Z" fill="#094D7E"/>
<path d="M63.2074 32.383C62.7411 32.4219 62.272 32.3606 61.8314 32.2032C61.3909 32.0458 60.9891 31.7959 60.6532 31.4704C60.3184 31.1451 60.295 30.7988 60.5689 30.4946C60.8428 30.1904 61.2034 30.1811 61.5452 30.4946C62.1492 31.0281 62.8656 31.1124 63.6265 31.0492C63.5475 31.5106 63.4066 31.9593 63.2074 32.383Z" fill="#094D7E"/>
<path d="M61.0769 36.5085C61.0769 36.4734 61.098 36.443 61.1425 36.4757C61.1254 36.4943 61.1021 36.506 61.0769 36.5085Z" fill="#094D7E"/>
<path d="M39.6649 28.9339C39.7164 27.813 39.8194 26.7086 40.3228 25.6719C40.791 24.7055 41.4044 24.5838 42.2729 24.7359C44.0967 25.0354 45.7261 25.8732 47.3485 26.7086C47.4234 26.7412 47.4835 26.8004 47.5172 26.8747C47.5509 26.9491 47.5559 27.0333 47.5311 27.111C47.3719 28.2592 47.3719 29.4238 47.5311 30.5719C47.5564 30.6558 47.549 30.7461 47.5103 30.8247C47.4717 30.9033 47.4046 30.9643 47.3228 30.9955C45.8338 31.756 44.3308 32.4837 42.6826 32.8511C42.3148 32.9523 41.9323 32.9895 41.5519 32.9611C40.7465 32.8628 40.3813 32.3152 40.1308 31.6343C39.998 31.3168 39.9007 30.9856 39.8405 30.6468C39.7703 30.0735 39.6158 29.5119 39.6649 28.9339Z" fill="#094D7E"/>
<path d="M59.5739 20.772C59.9258 20.7648 60.2755 20.8274 60.603 20.9562C60.9305 21.0849 61.2292 21.2772 61.4819 21.522C61.7346 21.7667 61.9363 22.0591 62.0754 22.3822C62.2144 22.7053 62.288 23.0528 62.292 23.4045C62.3116 23.9489 62.1678 24.4868 61.8792 24.949C61.5905 25.4111 61.1701 25.7764 60.6721 25.9978C60.1741 26.2192 59.6212 26.2867 59.0845 26.1916C58.5478 26.0964 58.0519 25.843 57.6604 25.4639C57.269 25.0848 56.9999 24.5973 56.8879 24.0641C56.7759 23.5309 56.8259 22.9764 57.0317 22.4719C57.2374 21.9674 57.5895 21.536 58.0425 21.233C58.4955 20.9301 59.0289 20.7695 59.5739 20.772ZM60.3512 23.58C60.4658 23.5797 60.5793 23.5566 60.6849 23.5121C60.7905 23.4675 60.8862 23.4024 60.9664 23.3205C61.0466 23.2386 61.1097 23.1416 61.1519 23.0351C61.1942 22.9286 61.2149 22.8147 61.2127 22.7001C61.2135 22.5857 61.1909 22.4723 61.1464 22.3669C61.1018 22.2614 61.0363 22.1662 60.9537 22.0869C60.8711 22.0076 60.7732 21.946 60.666 21.9058C60.5588 21.8656 60.4445 21.8477 60.3301 21.8531C60.2157 21.8512 60.1021 21.8723 59.9961 21.9151C59.89 21.9579 59.7936 22.0215 59.7126 22.1023C59.6316 22.183 59.5676 22.2792 59.5245 22.3851C59.4814 22.491 59.46 22.6045 59.4616 22.7189C59.4671 22.9502 59.5635 23.17 59.7301 23.3307C59.8966 23.4915 60.1197 23.5802 60.3512 23.5777V23.58Z" fill="#094D7E"/>
<path d="M60.3512 23.5775C60.1197 23.5801 59.8966 23.4914 59.7301 23.3306C59.5636 23.1699 59.4671 22.9501 59.4616 22.7188C59.4597 22.6042 59.4808 22.4905 59.5238 22.3843C59.5668 22.2781 59.6307 22.1817 59.7117 22.1007C59.7928 22.0197 59.8893 21.9558 59.9955 21.9128C60.1018 21.8699 60.2155 21.8487 60.3301 21.8506C60.4445 21.8452 60.5588 21.8631 60.666 21.9034C60.7732 21.9436 60.8711 22.0052 60.9537 22.0844C61.0363 22.1637 61.1018 22.259 61.1464 22.3644C61.1909 22.4698 61.2135 22.5832 61.2127 22.6977C61.2149 22.8123 61.1943 22.9261 61.152 23.0326C61.1097 23.1391 61.0466 23.2362 60.9664 23.318C60.8862 23.3999 60.7905 23.4651 60.6849 23.5096C60.5793 23.5542 60.4658 23.5773 60.3512 23.5775Z" fill="#FEFEFE"/>
</svg>
