<svg width="113" height="41" viewBox="0 0 113 41" fill="none" xmlns="http://www.w3.org/2000/svg">
<g filter="url(#filter0_d)">
<path fill-rule="evenodd" clip-rule="evenodd" d="M87.5093 30.6052C80.7935 26.7536 62.4209 26.0741 44.4146 27.611C38.8907 28.0843 33.8759 28.7778 28.3449 29.825C28.3449 29.8321 28.3425 29.8368 28.3413 29.8438C28.6244 29.8344 30.4538 29.6118 31.3102 29.4806C30.549 29.6833 28.3758 30.0898 28.2818 30.1132C28.2818 30.1214 28.2663 30.132 28.2723 30.132C28.3116 30.132 30.0518 29.886 31.0735 29.7641C29.884 30.0277 28.2307 30.3674 28.2283 30.3733C28.2283 30.3803 28.2283 30.3803 28.2259 30.385C28.2259 30.3885 29.8127 30.1706 30.9379 30.0605C29.9007 30.2772 28.2164 30.686 28.2164 30.6896V30.7095C28.214 30.713 29.7603 30.4951 30.8927 30.3768C29.884 30.5806 28.2997 31.0187 28.2997 31.0211V31.0422C28.302 31.0457 29.9614 30.802 30.9593 30.6767C29.9388 30.9156 28.4376 31.3174 28.44 31.3292L28.4495 31.3702C33.5904 30.4799 39.7495 29.7911 45.4114 29.5498C70.9066 28.4486 84.5713 32.2358 87.9304 35.838C88.7511 34.8024 90.0869 32.0894 87.5081 30.6076L87.5093 30.6052ZM21.9764 31.6876C21.9764 31.6759 21.9764 31.6642 21.9788 31.6525C21.9788 31.6454 20.5681 31.8282 19.4571 32.1328C20.2778 31.8399 21.9312 31.4088 21.9312 31.403C21.9312 31.3889 21.9312 31.3772 21.9288 31.3643C21.9288 31.3596 20.3207 31.6337 19.3929 31.8856C20.3445 31.5611 21.8479 31.1851 21.8456 31.1745C21.8456 31.1675 21.842 31.1558 21.8384 31.1441C17.5088 32.1046 13.6786 33.1308 10.4397 34.1863C8.87912 34.6947 10.3945 35.3694 11.7862 35.0004C15.1833 34.1008 18.5543 33.3065 21.8753 32.6177C21.8753 32.6084 21.8789 32.6013 21.8801 32.5966C21.8206 32.5943 19.9353 32.838 19.0812 33.0922C19.7747 32.8462 21.8527 32.3424 21.9502 32.3354L21.9598 32.2979C21.9598 32.2897 20.2897 32.5029 19.3072 32.77C20.4408 32.3764 21.9859 32.0133 21.9883 32.0051L21.9943 31.9617C21.9943 31.957 20.5431 32.1515 19.4214 32.435C20.3373 32.0918 21.974 31.697 21.974 31.6853L21.9764 31.6876Z" fill="#FFC107"/>
<path fill-rule="evenodd" clip-rule="evenodd" d="M107.79 25.8239L105.786 31.0403L103.728 25.8239H94.5514V28.4409H96.9625V35.9545H99.841V28.4421H103.552L102.091 29.0137L105.068 35.9556H106.493L110.534 26.4343V25.8251H107.79V25.8239ZM92.8861 33.0048C91.9584 33.0048 91.2863 33.6303 91.2863 34.4925C91.2863 35.3418 91.9595 35.9568 92.8873 35.9568C93.7985 35.9568 94.4598 35.3418 94.4598 34.4925C94.4598 33.6456 93.7842 33.0048 92.8897 33.0048H92.8861ZM27.0369 28.8661C27.1511 26.7107 27.6649 21.9617 28.3453 18.171C28.7462 15.9429 29.5502 12.2131 29.9868 10.1174C30.0367 9.88783 30.1533 9.08658 29.7453 8.60278C29.5407 8.35678 28.9103 7.92335 28.2585 7.64806C28.2466 7.63986 28.2287 7.63401 28.2109 7.62932C27.3545 7.29546 26.7003 7.42081 26.0496 7.72069C24.872 8.26423 23.8729 9.35718 23.1497 10.2475C21.0764 12.8035 19.4147 16.8356 18.368 19.7641C18.7605 17.7446 20.157 11.8547 20.3937 10.3377C20.421 10.1619 20.6102 9.65823 20.471 9.37241C20.2783 8.97998 19.5361 8.40949 19.0103 8.19512C18.8735 8.14006 18.7332 8.08032 18.588 8.02409L18.5762 8.02058C17.7875 7.75818 17.2868 7.87415 16.6326 8.19863C15.4645 8.77966 14.4594 9.89252 13.7683 10.8179C11.8449 13.3869 10.0191 18.3619 9.06274 21.4217C9.18169 20.6837 9.73242 17.1929 9.79665 16.818C10.1368 14.8336 11.4702 7.36223 11.7402 5.51372C11.7676 5.33801 11.883 4.81086 11.7736 4.63749C11.569 4.30949 10.9231 4.13846 10.5008 4.09863C9.94771 4.04475 8.92357 4.00258 8.43589 4.22398L8.42637 4.22749L8.41448 4.23101C8.41448 4.23101 8.4121 4.23452 8.40972 4.23452H8.40377C8.40139 4.23803 8.39783 4.24038 8.39426 4.24155C8.36333 4.25678 8.33478 4.27435 8.30743 4.29075C7.16077 4.99712 5.25999 7.66446 4.69143 8.61801C3.52693 10.5661 3.04876 11.3943 2.48971 12.4521C2.11621 13.1549 2.74545 15.062 3.50433 13.8812C4.48327 12.3666 5.94037 10.3084 7.17505 8.96123C6.55652 12.9417 4.83773 25.9387 4.58675 27.5869C4.45591 28.4456 3.79575 32.3312 5.38727 32.1532C5.42295 32.1532 5.46815 32.1461 5.51811 32.1333C6.03315 32.0044 7.97794 31.2195 8.1516 30.4909C9.05085 26.7119 11.9984 16.5392 16.1591 12.3689C15.5442 15.5786 14.6247 21.5435 14.4879 22.7314C14.2714 24.6267 13.7302 28.4761 15.0065 28.4187C15.0482 28.4187 15.0946 28.414 15.1552 28.4011C15.6726 28.2898 17.6436 27.5741 17.8244 26.8478C18.6761 23.4319 21.7735 15.4673 25.5488 11.8558C25.311 13.1139 25.2217 13.531 24.9708 14.7774C24.1774 18.7134 22.6465 26.5573 22.6037 30.0259C22.568 32.8373 23.8729 35.0747 26.4576 35.7963C26.9643 35.9369 28.8128 35.8139 28.4464 35.2223C27.245 33.2848 26.9239 31.1071 27.0393 28.8638L27.0369 28.8661ZM35.3442 25.6307C36.988 25.298 38.5117 24.3163 39.9748 22.3038C41.2321 20.5724 41.8815 18.8165 42.349 16.6435C42.4489 16.1807 42.525 15.7555 42.5845 15.3619C43.4718 14.9695 44.2973 14.3311 44.9456 13.3939C44.4401 16.3225 44.182 18.3092 44.0892 19.5697C43.9619 21.3971 44.1368 22.6693 44.5828 23.6638C45.0907 24.806 46.0066 25.3776 47.045 25.5147C48.5259 25.7138 49.5191 25.0075 50.7038 23.8899C50.8739 23.7306 51.0428 23.5502 51.2117 23.3511C51.9694 24.9114 53.5788 25.8345 55.7746 25.4046C57.4196 25.0848 58.9528 24.116 60.4337 22.1129C61.7065 20.3909 62.3726 18.6419 62.8579 16.4724C62.9578 16.0214 63.0363 15.6056 63.1005 15.219C64.0616 14.8559 64.9763 14.2467 65.6888 13.3389C65.0977 16.0495 64.7491 17.8559 64.6302 19.0789C64.4518 20.8969 64.5945 22.1796 65.0144 23.2046C65.4961 24.3807 66.4025 25.0168 67.4457 25.2312C68.929 25.5358 70.0506 24.861 71.1687 23.8688C71.365 23.6966 71.5613 23.501 71.7587 23.2901C72.4427 25.0145 74.1067 26.0781 76.4405 25.633C78.0891 25.3226 79.6247 24.3643 81.1127 22.3823C82.3938 20.6767 83.0635 18.9406 83.5607 16.7875C83.6618 16.3483 83.7391 15.9441 83.8033 15.5693C85.0011 15.0749 85.7945 14.187 86.3107 12.8422C86.5641 12.1815 86.394 10.4946 86.0098 11.3427C85.2033 13.1233 84.2018 13.8906 83.1337 14.146C83.4239 13.9749 83.7165 13.7547 83.9996 13.4724C83.9996 12.3408 83.7807 11.6485 83.5678 11.1682C82.8636 9.57506 81.2162 9.66175 80.8142 9.82575C80.8261 8.85346 80.3562 8.25838 78.7445 8.54186C77.8048 8.70586 76.858 9.06901 76.0777 9.64652C74.6265 10.7207 73.3443 12.5329 72.7055 14.0605C72.0275 15.6794 71.547 17.2725 71.3436 18.9301C71.2365 19.7923 71.2365 20.8044 71.3709 21.7415C71.2306 21.8821 71.0855 22.0133 70.9332 22.1363C70.4907 22.4994 69.764 22.9387 69.2442 22.8626C68.1772 22.7033 68.3235 20.8243 68.358 20.0945C68.4318 18.5541 68.9706 16.3869 69.193 15.2213C69.3833 14.2174 70.0494 10.9925 71.1247 6.95692C75.6828 6.69218 79.5105 7.24158 81.8573 7.73358C82.7673 7.92569 83.8557 8.23378 84.994 8.66486C87.7976 9.83395 87.7024 13.5884 87.3896 15.8059C86.6914 20.7774 84.8382 24.3843 84.8001 25.0309C84.7882 25.2499 84.7287 25.9493 85.1891 26.5045C85.4222 26.7857 85.9622 27.2461 86.6283 27.6479C87.5252 28.1703 88.1461 28.1797 88.7432 28.0227C90.1551 27.6385 95.3686 23.0652 98.3399 18.2881C99.9635 15.6524 101.028 12.718 101.023 11.734C101.016 10.6176 96.6639 10.9257 96.5485 12.6149C96.3535 15.3443 94.8476 18.7005 92.7018 21.3046C91.247 23.0641 89.6532 24.4932 88.4637 25.0731C89.5996 21.9313 91.0365 17.2503 91.3493 12.7965C91.4564 11.3228 91.3767 9.13695 90.4394 7.75701C88.8241 5.37901 84.0198 4.23921 77.8334 4.26381C75.7827 4.26381 73.694 4.39969 71.7076 4.62695C72.0882 3.03029 72.3439 2.05332 72.3832 1.85418C72.4581 1.48283 71.8122 1.32703 70.5431 1.36218C69.2382 1.39732 68.3616 1.59412 68.1403 2.47972C67.881 3.53166 67.6645 4.33643 67.4362 5.28412C66.8462 5.40126 66.2788 5.52192 65.7412 5.64961C64.2829 5.99401 63.3206 6.27983 62.4225 6.66055C61.584 6.95106 60.988 8.99403 61.7326 8.73163C63.4621 8.12601 64.9323 7.77106 66.6452 7.47118L66.958 7.42198C66.8747 7.79683 66.8034 8.12132 66.7617 8.30055C65.9053 12.0374 63.951 13.4267 62.3726 13.7196C62.6747 13.5439 62.9792 13.3143 63.279 13.0167C63.2587 11.9472 63.0458 11.2853 62.8388 10.8191C62.1287 9.21895 60.4813 9.31266 60.0793 9.47783C60.0888 8.50086 59.6154 7.90109 58.0036 8.19161C57.0663 8.36029 56.1207 8.72695 55.3428 9.31149C53.8952 10.3974 52.6225 12.2283 51.9885 13.7664C51.3164 15.3971 50.8442 17.0031 50.6467 18.6747C50.5314 19.6505 50.5516 20.8184 50.7443 21.8551C50.6396 21.9653 50.5302 22.0719 50.4196 22.1749C49.9913 22.5685 49.28 23.0605 48.7626 23.0207C47.7016 22.9387 47.7956 21.0492 47.811 20.3182C47.8443 18.7719 48.3225 16.647 48.5128 15.4685C48.878 13.0975 51.0821 2.23723 51.2058 1.58709C51.2712 1.20755 50.6253 1.09744 49.3681 1.22395C48.0751 1.35515 47.2127 1.61286 47.0177 2.51252C46.4312 5.23258 46.078 7.33881 45.6795 9.39466C44.7814 12.2178 43.2887 13.4595 41.9993 13.8508C42.2491 13.6926 42.4988 13.4993 42.7415 13.2569C42.7201 12.1463 42.4965 11.4646 42.2812 10.9901C41.5556 9.39466 39.9094 9.50243 39.5097 9.66995C39.5097 8.69298 39.0339 8.09672 37.4222 8.40012C36.4861 8.57583 35.5428 8.95069 34.7696 9.53992C33.3328 10.6364 32.0767 12.4767 31.4558 14.0206C30.7992 15.6571 30.34 17.2678 30.1592 18.9383C30.007 20.3206 30.1271 22.0871 30.6231 23.3101C31.3297 25.0461 33.0092 26.1039 35.343 25.6318L35.3442 25.6307ZM75.5555 16.5732C76.0848 14.966 76.5666 14.0546 77.4539 13.0331C78.1283 12.2541 79.187 11.8921 79.6271 11.932C79.3535 12.3455 79.5557 12.6079 79.9839 12.6934C80.4597 12.793 80.8689 13.0952 81.0164 13.873C80.3562 13.4607 79.5866 15.8527 80.4871 15.9898C81.3197 16.1163 82.2772 16.0566 83.1943 15.7848C82.464 16.1597 81.6575 16.3611 80.8748 16.4092C80.5465 18.2507 79.8995 19.9504 79.0549 21.1453C77.894 22.7853 76.6367 23.4741 75.8672 22.9094C74.6777 22.0426 74.5385 19.6669 75.5579 16.5743L75.5555 16.5732ZM54.8492 16.2862C55.3725 14.6661 55.8507 13.7489 56.7321 12.7157C57.4041 11.9308 58.4616 11.5595 58.9017 11.6005C58.6281 12.0151 58.8303 12.2799 59.2585 12.3666C59.7046 12.4556 60.0912 12.725 60.2636 13.3927C59.6808 13.2018 59.0147 15.4662 59.8533 15.5833C60.6003 15.6911 61.4376 15.663 62.2727 15.4685C61.5982 15.7989 60.8845 15.9687 60.1792 16.0074C59.8652 17.8981 59.2181 19.6505 58.3629 20.877C57.2091 22.5311 55.9554 23.2281 55.1822 22.6634C53.9904 21.7942 53.8417 19.4033 54.8492 16.2862ZM34.3391 16.5205C34.847 14.8969 35.3168 13.9749 36.1899 12.9359C36.856 12.144 37.9087 11.7645 38.35 11.8031C38.0823 12.2201 38.2869 12.4825 38.7151 12.5645C39.1671 12.6536 39.5573 12.9253 39.7321 13.6106C39.2088 13.5685 38.2691 15.6431 39.3087 15.7965C40.133 15.9195 41.0406 15.8703 41.9196 15.6044C41.1976 15.991 40.4232 16.1843 39.662 16.2229C39.361 18.1089 38.7318 19.8543 37.8896 21.082C36.7525 22.7454 35.5036 23.4518 34.7256 22.893C33.5266 22.0332 33.3577 19.6435 34.3355 16.5205H34.3391Z" fill="black"/>
</g>
<defs>
<filter id="filter0_d" x="0.378906" y="0.173828" width="112.155" height="38.783" filterUnits="userSpaceOnUse" color-interpolation-filters="sRGB">
<feFlood flood-opacity="0" result="BackgroundImageFix"/>
<feColorMatrix in="SourceAlpha" type="matrix" values="0 0 0 0 0 0 0 0 0 0 0 0 0 0 0 0 0 0 127 0"/>
<feOffset dy="1"/>
<feGaussianBlur stdDeviation="1"/>
<feColorMatrix type="matrix" values="0 0 0 0 0 0 0 0 0 0 0 0 0 0 0 0 0 0 0.256737 0"/>
<feBlend mode="normal" in2="BackgroundImageFix" result="effect1_dropShadow"/>
<feBlend mode="normal" in="SourceGraphic" in2="effect1_dropShadow" result="shape"/>
</filter>
</defs>
</svg>
