<svg width="63" height="63" viewBox="0 0 63 63" fill="none" xmlns="http://www.w3.org/2000/svg">
<path d="M63 0H0V63H63V0Z" fill="url(#paint0_linear)"/>
<path d="M41.201 19.845C41.7689 18.4756 42.4334 17.1483 43.1895 15.8731C44.5836 13.5942 47.0384 13.5918 48.3574 15.9247C49.1154 17.2684 49.4833 18.7548 49.834 20.2412C50.6953 24.159 51.1654 28.1359 51.6329 32.1128C51.9307 34.6476 52.2162 37.1848 52.4254 39.7282C52.6149 42.0242 52.8782 44.3252 52.6259 46.6372C52.588 47.1469 52.4709 47.6475 52.2789 48.1212C51.6637 49.4993 50.2019 49.8438 49.0465 48.8669C48.5395 48.4399 48.1704 47.8985 47.8308 47.3374C46.6754 45.4265 45.8276 43.3642 44.9293 41.3302C43.9314 39.0699 42.9815 36.7886 41.9922 34.5245C41.9067 34.3537 41.8583 34.1667 41.8503 33.9758C41.8422 33.7849 41.8747 33.5945 41.9455 33.4171C42.4069 32.2014 42.8339 30.9734 43.3125 29.642C45.4449 34.3079 47.25 38.9763 49.4722 43.4749C48.9259 35.8583 48.2098 28.2737 46.6815 20.79C46.3665 19.8327 46.2816 18.7979 45.7255 17.8369C45.1739 18.7809 44.7006 19.7686 44.3104 20.79C42.8449 24.4248 41.6735 28.1728 40.2499 31.815C39.3036 34.2304 38.307 36.6212 36.9559 38.8471C36.3588 39.8236 35.6439 40.7228 34.8272 41.5246C33.1193 43.1895 30.2339 43.5131 28.3008 41.7129C26.9141 40.4197 25.8768 38.905 25.0044 37.2549C23.1587 33.7604 21.8974 30.0259 20.5636 26.3222C19.8967 24.4765 19.3048 22.5902 18.5346 20.7752C18.1482 19.8044 17.7901 18.8188 17.1946 17.8898C16.7713 18.8533 16.5412 19.8155 16.3197 20.7826C15.5556 24.1972 15.1286 27.6646 14.6967 31.1309C14.2858 34.4359 13.9006 37.7459 13.6521 41.0681C13.593 41.8618 13.5512 42.6567 13.5635 43.4749C15.7082 39.0563 17.5071 34.4851 19.5989 29.8512C19.9988 30.9721 20.2806 31.9639 20.7063 32.8917C21.1321 33.8194 21.0189 34.5959 20.6165 35.4941C19.0083 39.0871 17.565 42.7539 15.7845 46.2693C15.3686 47.09 14.9145 47.8936 14.2722 48.5666C13.6779 49.188 12.9925 49.6002 12.0881 49.3381C11.1579 49.0699 10.7125 48.3759 10.5267 47.4764C10.112 45.4646 10.3163 43.4405 10.4528 41.4237C10.7051 37.6917 11.1591 33.9782 11.6021 30.2695C12.0155 26.8144 12.5176 23.3789 13.2116 19.9631C13.6127 18.5333 13.9744 17.0974 14.6709 15.7623C15.5999 13.9843 17.6351 13.6176 19.028 15.0425C19.8401 15.8718 20.3421 16.9017 20.8195 17.939C21.1432 18.6416 21.4188 19.3651 21.7153 20.08L22.8031 23.0405L24.2993 20.2695C25.2948 18.5838 26.3714 16.9559 27.7348 15.5408C28.932 14.2968 30.2892 13.3666 32.1325 13.6311C33.0492 13.7628 33.817 14.2636 34.5147 14.8432C35.9777 16.0564 37.0174 17.6203 38.0436 19.1916C38.1888 19.4119 38.3303 19.6346 38.4743 19.8573C39.0009 20.8159 39.5276 21.7756 40.1108 22.84L41.201 19.845ZM34.7312 19.9471C34.068 18.9726 33.4503 17.9599 32.5164 17.202C31.7633 16.5867 31.2318 16.5744 30.4923 17.202C29.5768 17.9735 28.8926 18.9443 28.2774 19.9545C26.7639 22.1841 25.5778 24.5946 24.3941 27.0051C24.3496 27.0834 24.3232 27.1707 24.3168 27.2606C24.3104 27.3504 24.3242 27.4405 24.3571 27.5244C25.3957 30.3335 26.4071 33.1538 27.8184 35.8067C28.4337 36.9621 29.0858 38.0953 30.0333 39.0219C31.0718 40.0432 31.9282 40.0247 32.9261 38.9788C33.609 38.2639 34.1246 37.4284 34.602 36.5708C36.2484 33.6176 37.373 30.4467 38.5334 27.2869C38.6257 27.0334 38.5408 26.855 38.4411 26.6569C38.0498 25.8784 37.6573 25.0991 37.2635 24.319C36.4964 22.8184 35.6512 21.3591 34.7312 19.9471Z" fill="#FDFCFE"/>
<defs>
<linearGradient id="paint0_linear" x1="31.5" y1="63" x2="31.5" y2="0" gradientUnits="userSpaceOnUse">
<stop stop-color="#B200D8"/>
<stop offset="0.09" stop-color="#AD04D8"/>
<stop offset="0.2" stop-color="#9D0FD8"/>
<stop offset="0.33" stop-color="#8420D8"/>
<stop offset="0.46" stop-color="#6139D8"/>
<stop offset="0.55" stop-color="#454DD8"/>
<stop offset="1" stop-color="#00CBFF"/>
</linearGradient>
</defs>
</svg>
