<svg width="72" height="72" viewBox="0 0 72 72" fill="none" xmlns="http://www.w3.org/2000/svg">
<rect width="72" height="72" fill="#004F9A"/>
<path fill-rule="evenodd" clip-rule="evenodd" d="M48.3714 22.3886C48.3714 23.8145 48.3728 23.8561 48.4254 23.8842C48.4616 23.9036 48.9881 23.9108 50.0149 23.906L51.5502 23.8988L51.5573 22.4104L51.5644 20.9219H49.9679H48.3714V22.3886ZM13.8708 24.0436C13.7852 24.0513 13.7495 24.0685 13.7369 24.1081C13.7221 24.1546 13.6936 24.1618 13.5261 24.1618C13.3565 24.1618 13.3238 24.1705 13.263 24.2312C13.2103 24.2837 13.1646 24.3004 13.0729 24.3004C12.9673 24.3004 12.9501 24.309 12.9348 24.3696C12.9195 24.4305 12.9025 24.4387 12.793 24.4387C12.6788 24.4387 12.6686 24.4444 12.6686 24.5081C12.6686 24.5716 12.6584 24.5773 12.5437 24.5773C12.4388 24.5773 12.4187 24.5858 12.4187 24.6308C12.4187 24.665 12.3964 24.6874 12.3562 24.6931C12.3162 24.6987 12.2907 24.7242 12.285 24.7642C12.2785 24.8092 12.2574 24.8264 12.2085 24.8264C12.1552 24.8264 12.1411 24.8409 12.1411 24.8958C12.1411 24.9512 12.1272 24.965 12.0717 24.965C12.0167 24.965 12.0023 24.9789 12.0023 25.0323C12.0023 25.081 11.9851 25.102 11.9399 25.1084C11.8881 25.1157 11.8759 25.1371 11.8689 25.2332C11.8619 25.3284 11.8495 25.3508 11.7995 25.3578C11.7608 25.3634 11.7353 25.3894 11.7297 25.4288C11.724 25.4689 11.7016 25.4911 11.6673 25.4911C11.6161 25.4911 11.6136 25.466 11.6136 24.9395C11.6136 24.6362 11.606 24.3682 11.5968 24.3441C11.5817 24.305 11.4237 24.3004 10.0976 24.3004H8.61526V29.991V35.6819H10.2394H11.8634V31.8169C11.8634 27.767 11.8606 27.8726 11.9726 27.8726C11.989 27.8726 12.0023 27.8201 12.0023 27.7545C12.0023 27.6588 12.014 27.6314 12.0648 27.6092C12.113 27.5881 12.1291 27.5551 12.1358 27.4642C12.1434 27.3602 12.1522 27.3465 12.2121 27.3465C12.266 27.3465 12.2799 27.3322 12.2799 27.2773C12.2799 27.2265 12.2947 27.208 12.3355 27.208C12.3762 27.208 12.391 27.1896 12.391 27.1388C12.391 27.075 12.401 27.0696 12.5185 27.0696C12.6227 27.0696 12.6487 27.0594 12.6606 27.0142C12.6723 26.9694 12.6985 26.9588 12.7968 26.9588C12.8637 26.9588 12.9184 26.9464 12.9184 26.9311C12.9184 26.9159 12.9359 26.9034 12.9571 26.9034C12.9784 26.9034 13.003 26.8848 13.0118 26.8619C13.0388 26.7917 13.9897 26.8009 14.0082 26.8715C14.0223 26.9252 14.1318 26.9588 14.293 26.9588C14.36 26.9588 14.3872 26.973 14.3979 27.0142C14.4097 27.0594 14.4358 27.0696 14.5399 27.0696C14.6575 27.0696 14.6675 27.075 14.6675 27.1388C14.6675 27.1896 14.6823 27.208 14.7231 27.208C14.7634 27.208 14.7786 27.2265 14.7786 27.2754C14.7786 27.3782 14.8277 27.4849 14.875 27.4849C14.9074 27.4849 14.9173 27.518 14.9173 27.6252C14.9173 27.7809 14.9537 27.8726 15.0155 27.8726C15.0511 27.8726 15.0562 28.3666 15.0562 31.7773V35.6819H16.7046H18.353L18.3704 35.5954C18.3799 35.5477 18.3877 33.8538 18.3877 31.8311C18.3877 28.1776 18.388 28.1532 18.4433 28.1357C18.4917 28.1204 18.4988 28.0939 18.4988 27.9261C18.4988 27.7399 18.5008 27.7342 18.5682 27.7342C18.6318 27.7342 18.6375 27.7241 18.6375 27.6096C18.6375 27.4951 18.6432 27.4849 18.7069 27.4849C18.7619 27.4849 18.7764 27.471 18.7764 27.4176C18.7764 27.3689 18.7937 27.3479 18.8389 27.3415C18.8789 27.3358 18.9044 27.3104 18.9101 27.2703C18.9158 27.2303 18.9382 27.208 18.9726 27.208C19.0113 27.208 19.0262 27.1888 19.0262 27.1388C19.0262 27.0834 19.0401 27.0696 19.0956 27.0696C19.1465 27.0696 19.1651 27.0548 19.1651 27.0142C19.1651 26.9697 19.1836 26.9588 19.26 26.9588C19.3901 26.9588 19.4427 26.9345 19.4427 26.8741C19.4427 26.8302 19.4693 26.8217 19.6301 26.8147C19.8003 26.8073 19.8182 26.8008 19.8264 26.7442C19.8389 26.6559 20.2478 26.6463 20.2478 26.7343C20.2478 26.8015 20.2999 26.8203 20.486 26.8203C20.6151 26.8203 20.6365 26.8277 20.6365 26.8727C20.6365 26.932 20.6882 26.9588 20.8021 26.9588C20.8565 26.9588 20.8842 26.9755 20.8944 27.0142C20.9031 27.0473 20.9323 27.0696 20.967 27.0696C21.0105 27.0696 21.0251 27.0869 21.0251 27.1388C21.0251 27.1942 21.039 27.208 21.0945 27.208C21.15 27.208 21.164 27.2219 21.164 27.2773C21.164 27.3327 21.1779 27.3465 21.2334 27.3465C21.2969 27.3465 21.3028 27.3568 21.3028 27.4681C21.3028 27.5747 21.3113 27.5919 21.3721 27.6071C21.4332 27.6224 21.4416 27.6393 21.4416 27.7486C21.4416 27.8542 21.4498 27.8726 21.4972 27.8726C21.5482 27.8726 21.5527 27.8912 21.5527 28.1046C21.5527 28.4036 21.5752 28.5134 21.6401 28.5303C21.6897 28.5433 21.6914 28.6647 21.6914 32.1127V35.6819H23.2183H24.7453V31.2511V26.8203H24.676C24.6085 26.8203 24.6065 26.8147 24.6065 26.6265C24.6065 26.4382 24.6046 26.4326 24.5371 26.4326C24.4723 26.4326 24.4677 26.4234 24.4677 26.2942C24.4677 26.1742 24.4602 26.1557 24.4122 26.1557C24.3649 26.1557 24.3567 26.1373 24.3567 26.0316C24.3567 25.923 24.3481 25.9054 24.2886 25.8905C24.2323 25.8765 24.2194 25.8541 24.2124 25.7585C24.2054 25.6633 24.1932 25.6419 24.1415 25.6346C24.0963 25.6281 24.079 25.6071 24.079 25.5584C24.079 25.5051 24.0646 25.4911 24.0097 25.4911C23.9541 25.4911 23.9402 25.4772 23.9402 25.4219C23.9402 25.3711 23.9254 25.3527 23.8846 25.3527C23.8477 25.3527 23.8291 25.3342 23.8291 25.2973C23.8291 25.2567 23.8106 25.2419 23.7597 25.2419C23.7053 25.2419 23.6904 25.2278 23.6904 25.1764C23.6904 25.092 23.563 24.965 23.4783 24.965C23.4268 24.965 23.4127 24.9501 23.4127 24.8958C23.4127 24.8404 23.3989 24.8264 23.3434 24.8264C23.2878 24.8264 23.2738 24.8126 23.2738 24.7572C23.2738 24.7073 23.2589 24.688 23.2202 24.688C23.1908 24.688 23.1587 24.6631 23.149 24.6327C23.1348 24.5882 23.107 24.5773 23.0083 24.5773C22.8955 24.5773 22.8852 24.5715 22.8852 24.5081C22.8852 24.4447 22.8749 24.4387 22.7633 24.4387C22.6564 24.4387 22.6393 24.4302 22.624 24.3696C22.6074 24.304 22.5963 24.3004 22.4127 24.3004C22.2246 24.3004 22.2189 24.2983 22.2189 24.2312C22.2189 24.1639 22.2133 24.1618 22.0265 24.1618C21.8632 24.1618 21.8315 24.1541 21.8176 24.1104C21.7768 23.982 19.9702 23.9809 19.9702 24.1093C19.9702 24.154 19.9406 24.1607 19.7133 24.1678C19.471 24.1752 19.456 24.1792 19.4478 24.2381C19.4399 24.293 19.4228 24.3004 19.3019 24.3004C19.1745 24.3004 19.1651 24.3051 19.1651 24.3696C19.1651 24.4332 19.1549 24.4387 19.0401 24.4387C18.9254 24.4387 18.9152 24.4444 18.9152 24.5081C18.9152 24.5719 18.9051 24.5773 18.7877 24.5773C18.6853 24.5773 18.6574 24.5877 18.6462 24.6304C18.6386 24.6595 18.6022 24.6909 18.5656 24.7001C18.5231 24.7107 18.4988 24.7368 18.4988 24.7716C18.4988 24.808 18.4801 24.8264 18.4433 24.8264C18.4025 24.8264 18.3877 24.845 18.3877 24.8958C18.3877 24.9512 18.3738 24.965 18.3182 24.965C18.2633 24.965 18.2489 24.9789 18.2489 25.0323C18.2489 25.081 18.2316 25.102 18.1864 25.1084C18.1347 25.1157 18.1225 25.1371 18.1155 25.2332C18.1086 25.3284 18.0961 25.3508 18.046 25.3578C18.0075 25.3634 17.9818 25.3894 17.9763 25.4288C17.9707 25.4678 17.9482 25.4911 17.9161 25.4911C17.8879 25.4911 17.8605 25.5043 17.855 25.5204C17.8389 25.5687 17.7468 25.5164 17.719 25.4431C17.7046 25.4056 17.6681 25.3685 17.6378 25.3605C17.6074 25.3527 17.5826 25.3227 17.5826 25.294C17.5826 25.2568 17.5626 25.2419 17.5132 25.2419C17.4577 25.2419 17.4438 25.2281 17.4438 25.1727C17.4438 25.1173 17.4298 25.1034 17.3743 25.1034C17.3188 25.1034 17.3049 25.0896 17.3049 25.0342C17.3049 24.9788 17.2911 24.965 17.2356 24.965C17.18 24.965 17.1662 24.9512 17.1662 24.8958C17.1662 24.8458 17.1513 24.8264 17.1126 24.8264C17.0781 24.8264 17.0558 24.8042 17.0501 24.7642C17.0444 24.7242 17.0189 24.6987 16.9787 24.6931C16.9387 24.6874 16.9163 24.665 16.9163 24.6308C16.9163 24.5922 16.897 24.5773 16.8469 24.5773C16.7914 24.5773 16.7775 24.5635 16.7775 24.5081C16.7775 24.4446 16.7672 24.4387 16.6545 24.4387C16.5481 24.4387 16.5303 24.4304 16.5226 24.3765C16.5151 24.3235 16.4943 24.3129 16.3835 24.3058C16.2738 24.2987 16.2521 24.2879 16.2448 24.2366C16.2369 24.1815 16.2179 24.175 16.0417 24.1679C15.9035 24.1622 15.8378 24.1473 15.814 24.1159C15.7531 24.0353 14.4848 23.9881 13.8708 24.0436ZM30.6519 24.0441C30.5565 24.0515 30.5123 24.0689 30.4913 24.1081C30.4679 24.1519 30.4326 24.1618 30.3003 24.1618C30.0714 24.1618 29.9597 24.1889 29.9442 24.2479C29.9334 24.2894 29.8966 24.2994 29.7327 24.306C29.5523 24.3135 29.5336 24.3197 29.5257 24.3752C29.5178 24.4304 29.4987 24.4371 29.3313 24.4444C29.1629 24.4519 29.1449 24.4584 29.1369 24.515C29.1291 24.569 29.1115 24.5773 29.0023 24.5773C28.9001 24.5773 28.874 24.5876 28.8622 24.6327C28.8521 24.6714 28.8244 24.688 28.7699 24.688C28.6568 24.688 28.6043 24.7147 28.6043 24.7724C28.6043 24.8125 28.5792 24.8251 28.4863 24.8319C28.3959 24.8384 28.3621 24.8546 28.3415 24.9015C28.3267 24.9352 28.2892 24.9663 28.2581 24.9708C28.2246 24.9755 28.1982 25.0033 28.1931 25.0396C28.186 25.0894 28.1635 25.1019 28.0682 25.1088C27.9718 25.1158 27.9503 25.128 27.943 25.1796C27.9366 25.2247 27.9156 25.2419 27.8667 25.2419C27.8185 25.2419 27.7992 25.2572 27.7992 25.2954C27.7992 25.3296 27.7768 25.352 27.7368 25.3577C27.6966 25.3634 27.6711 25.3888 27.6654 25.4288C27.6597 25.4689 27.6374 25.4911 27.6029 25.4911C27.5642 25.4911 27.5493 25.5104 27.5493 25.5604C27.5493 25.6158 27.5355 25.6296 27.4799 25.6296C27.4244 25.6296 27.4106 25.6434 27.4106 25.6988C27.4106 25.7542 27.3967 25.768 27.3412 25.768C27.2911 25.768 27.2717 25.7829 27.2717 25.8215C27.2717 25.8559 27.2494 25.8781 27.2092 25.8838C27.1697 25.8895 27.1437 25.9149 27.1381 25.9532C27.1328 25.991 27.1066 26.0171 27.0687 26.0224C27.0303 26.028 27.0048 26.054 26.9991 26.0934C26.9934 26.1335 26.9711 26.1557 26.9366 26.1557C26.8979 26.1557 26.883 26.175 26.883 26.225C26.883 26.2804 26.8692 26.2942 26.8136 26.2942C26.7586 26.2942 26.7443 26.3082 26.7443 26.3615C26.7443 26.4103 26.727 26.4312 26.6818 26.4376C26.6301 26.4449 26.6179 26.4663 26.6108 26.5625C26.6039 26.6577 26.5914 26.68 26.5414 26.687C26.5038 26.6925 26.4772 26.7185 26.4719 26.7552C26.4673 26.7879 26.4408 26.8206 26.4133 26.8277C26.3778 26.8371 26.3572 26.8789 26.3436 26.9691C26.3284 27.0708 26.3134 27.0972 26.2706 27.0972C26.2253 27.0972 26.2167 27.117 26.2167 27.2219C26.2167 27.3364 26.2111 27.3465 26.1473 27.3465C26.0826 27.3465 26.078 27.3557 26.078 27.4849C26.078 27.6023 26.0699 27.6234 26.0254 27.6234C25.9581 27.6234 25.9391 27.6754 25.9391 27.8591C25.9391 27.9916 25.9326 28.0082 25.8766 28.0162C25.8197 28.0241 25.8135 28.0419 25.8059 28.2148C25.7988 28.3759 25.7895 28.4068 25.7434 28.4189C25.6948 28.4315 25.6893 28.4583 25.6893 28.6777C25.6893 28.9018 25.6834 28.9283 25.6199 28.9917L25.5504 29.0609V29.9898V30.9188H25.6199C25.689 30.9188 25.6893 30.92 25.6893 31.1781C25.6893 31.3934 25.6985 31.4492 25.7434 31.5062C25.7827 31.5559 25.7999 31.6277 25.8059 31.7661C25.8132 31.9337 25.8219 31.9607 25.8766 31.9846C25.9252 32.0059 25.9391 32.0347 25.9391 32.1144C25.9391 32.2486 25.9826 32.3588 26.0356 32.3588C26.0679 32.3588 26.078 32.3917 26.078 32.4973C26.078 32.6265 26.0826 32.6357 26.1473 32.6357C26.2113 32.6357 26.2167 32.6457 26.2167 32.7629C26.2167 32.865 26.2273 32.8929 26.2699 32.904C26.2991 32.9117 26.3306 32.9478 26.3398 32.9845C26.3506 33.0268 26.3766 33.0512 26.4116 33.0512C26.4583 33.0512 26.4666 33.07 26.4666 33.1757C26.4666 33.2902 26.4722 33.3003 26.536 33.3003C26.5904 33.3003 26.6054 33.3144 26.6054 33.3657C26.6054 33.4018 26.6354 33.4612 26.672 33.4976C26.7087 33.5342 26.743 33.5951 26.7483 33.633C26.755 33.6795 26.7783 33.7047 26.8206 33.7108C26.8618 33.7166 26.883 33.7385 26.883 33.7756C26.883 33.8084 26.9061 33.8377 26.9385 33.8462C26.9693 33.8542 26.9941 33.884 26.9941 33.9128C26.9941 33.9499 27.014 33.9649 27.0636 33.9649C27.1191 33.9649 27.1329 33.9788 27.1329 34.0341C27.1329 34.0895 27.1468 34.1035 27.2023 34.1035C27.2578 34.1035 27.2717 34.1173 27.2717 34.1727C27.2717 34.2281 27.2857 34.2419 27.3412 34.2419C27.3967 34.2419 27.4106 34.2557 27.4106 34.3111C27.4106 34.3665 27.4244 34.3804 27.4799 34.3804C27.5308 34.3804 27.5493 34.3952 27.5493 34.4358C27.5493 34.4726 27.5679 34.491 27.6048 34.491C27.6456 34.491 27.6604 34.5096 27.6604 34.5604C27.6604 34.6152 27.6743 34.6296 27.7278 34.6296C27.7767 34.6296 27.7977 34.6468 27.8043 34.6919C27.8117 34.7451 27.8324 34.7554 27.9449 34.7627C28.064 34.7703 28.0769 34.7776 28.0769 34.8388C28.0769 34.885 28.0923 34.9065 28.1257 34.9065C28.1528 34.9065 28.1871 34.9345 28.2022 34.9688C28.2234 35.0169 28.2565 35.0331 28.3476 35.0396C28.4429 35.0465 28.4655 35.0584 28.4655 35.1019C28.4655 35.1405 28.4847 35.1557 28.533 35.1557C28.5819 35.1557 28.6029 35.173 28.6093 35.2181C28.6166 35.2694 28.6382 35.2817 28.7324 35.2886C28.8222 35.2953 28.8531 35.3114 28.8776 35.3649C28.9058 35.4268 28.9244 35.4326 29.0896 35.4326C29.2642 35.4326 29.2706 35.4352 29.2706 35.5019C29.2706 35.5653 29.2809 35.5711 29.3937 35.5711C29.4924 35.5711 29.5203 35.5821 29.5344 35.6265C29.5503 35.6763 29.5763 35.6819 29.7969 35.6819C30.0352 35.6819 30.0424 35.6838 30.0594 35.7511C30.0759 35.8166 30.0871 35.8203 30.2706 35.8203C30.459 35.8203 30.4645 35.8223 30.4645 35.8899V35.9595L31.5125 35.9522L32.5604 35.945L32.5694 35.8827C32.5776 35.8249 32.5924 35.8203 32.7687 35.8203C32.9451 35.8203 32.9599 35.8157 32.9681 35.758C32.9761 35.7008 32.9935 35.695 33.1782 35.6876C33.355 35.6804 33.3795 35.6729 33.3795 35.6265C33.3795 35.5805 33.4038 35.5726 33.5668 35.5654C33.7372 35.558 33.7551 35.5516 33.7631 35.495C33.771 35.4399 33.7881 35.4326 33.9089 35.4326C34.0364 35.4326 34.0458 35.4278 34.0458 35.3634C34.0458 35.2999 34.056 35.2942 34.1707 35.2942C34.2855 35.2942 34.2957 35.2885 34.2957 35.225C34.2957 35.1604 34.305 35.1557 34.4345 35.1557C34.5516 35.1557 34.5733 35.1477 34.5733 35.1039C34.5733 35.0647 34.6009 35.0476 34.6871 35.0339C34.768 35.0209 34.8051 34.9999 34.8153 34.9611C34.8245 34.926 34.8533 34.9065 34.8958 34.9065C34.9479 34.9065 34.962 34.8917 34.962 34.8373C34.962 34.7819 34.9759 34.768 35.0314 34.768C35.0869 34.768 35.1008 34.7541 35.1008 34.6988C35.1008 34.6354 35.1111 34.6296 35.2238 34.6296C35.3302 34.6296 35.348 34.6212 35.3556 34.5673C35.3613 34.5272 35.3868 34.5017 35.427 34.496C35.4662 34.4905 35.4894 34.468 35.4894 34.4358C35.4894 34.4034 35.5127 34.3809 35.5519 34.3754C35.5914 34.3697 35.6176 34.3442 35.623 34.3059C35.6285 34.2681 35.6545 34.242 35.6924 34.2366C35.7303 34.2313 35.7565 34.2052 35.7618 34.1674C35.7672 34.1296 35.7934 34.1036 35.8313 34.0982C35.8697 34.0928 35.8952 34.0666 35.9009 34.0272C35.9066 33.9869 35.9289 33.9649 35.9641 33.9649C36.0019 33.9649 36.0233 33.9403 36.0347 33.8833C36.0438 33.8383 36.0746 33.7804 36.1034 33.7544C36.1321 33.7284 36.1558 33.6779 36.1558 33.6423C36.1558 33.5913 36.1708 33.5773 36.2251 33.5773C36.2801 33.5773 36.2945 33.5633 36.2945 33.51C36.2945 33.4612 36.3119 33.4402 36.3571 33.4339C36.4088 33.4264 36.4209 33.405 36.4279 33.309C36.4349 33.2138 36.4474 33.1915 36.4973 33.1844C36.5349 33.179 36.5615 33.153 36.5668 33.1163C36.5714 33.0835 36.5996 33.0504 36.6293 33.0426C36.6729 33.0313 36.6832 33.004 36.6832 32.9014C36.6832 32.7841 36.6887 32.7742 36.7527 32.7742C36.8161 32.7742 36.8221 32.7638 36.8221 32.6525C36.8221 32.5459 36.8306 32.5289 36.8914 32.5136C36.9525 32.4983 36.9608 32.4813 36.9608 32.3721C36.9608 32.2816 36.9719 32.248 37.0015 32.248C37.063 32.248 37.0997 32.1565 37.0997 32.0025C37.0997 31.8911 37.1099 31.8609 37.1522 31.8475C37.2186 31.8265 37.2376 31.7548 37.2382 31.5244C37.2384 31.3642 37.2456 31.3388 37.294 31.3261C37.3392 31.3143 37.3495 31.2883 37.3495 31.1864C37.3495 31.0776 37.3578 31.0599 37.4121 31.0523L37.4745 31.0434L37.4817 29.9981L37.489 28.9527H37.4193C37.3545 28.9527 37.3495 28.9432 37.3495 28.8208C37.3495 28.7191 37.3369 28.6812 37.294 28.6545C37.2482 28.6259 37.2384 28.5896 37.2382 28.447C37.2376 28.2229 37.2167 28.1495 37.1532 28.1495C37.1096 28.1495 37.101 28.1226 37.094 27.9627C37.0865 27.7929 37.0801 27.775 37.0234 27.7669C36.9681 27.759 36.9608 27.7419 36.9608 27.6216C36.9608 27.4951 36.9558 27.4849 36.8929 27.4849C36.8317 27.4849 36.8242 27.4722 36.8166 27.3534C36.8094 27.2412 36.799 27.2206 36.7458 27.213C36.6916 27.2054 36.6832 27.1877 36.6832 27.0815C36.6832 26.9797 36.6744 26.9588 36.6309 26.9588C36.5903 26.9588 36.5744 26.9315 36.5602 26.8371C36.5473 26.751 36.5266 26.7114 36.49 26.7018C36.4615 26.6944 36.4339 26.6587 36.4288 26.6227C36.4227 26.5795 36.3982 26.5542 36.3571 26.5484C36.3169 26.5427 36.2945 26.5205 36.2945 26.4861C36.2945 26.4475 36.2752 26.4326 36.2251 26.4326C36.1612 26.4326 36.1558 26.4227 36.1558 26.3054C36.1558 26.2033 36.1453 26.1754 36.1025 26.1643C36.0733 26.1568 36.0419 26.1205 36.0326 26.0839C36.022 26.0415 35.9958 26.0173 35.9609 26.0173C35.9246 26.0173 35.9058 25.9986 35.9058 25.9624C35.9058 25.927 35.8813 25.9014 35.8364 25.8901C35.793 25.8793 35.7671 25.8532 35.7671 25.8204C35.7671 25.783 35.7473 25.768 35.6977 25.768C35.6422 25.768 35.6283 25.7542 35.6283 25.6988C35.6283 25.6434 35.6143 25.6296 35.5588 25.6296C35.5033 25.6296 35.4894 25.6158 35.4894 25.5604C35.4894 25.5127 35.4742 25.4911 35.4406 25.4911C35.4136 25.4911 35.3792 25.463 35.3641 25.4288C35.3491 25.3945 35.3077 25.3624 35.2721 25.3574C35.2365 25.3523 35.1834 25.3242 35.1541 25.295C35.1248 25.2659 35.0695 25.2419 35.0314 25.2419C34.9759 25.2419 34.962 25.2281 34.962 25.1727C34.962 25.1221 34.9471 25.1034 34.9069 25.1034C34.8715 25.1034 34.8458 25.0789 34.8345 25.0342C34.8197 24.9754 34.8011 24.965 34.7105 24.965C34.52 24.965 34.3146 24.908 34.0596 24.7842C33.9222 24.7176 33.7633 24.6444 33.7063 24.6218C33.5516 24.5602 33.4073 24.4351 33.4073 24.3626C33.4073 24.3036 33.3963 24.3004 33.202 24.3004C33.0063 24.3004 32.9961 24.2971 32.9794 24.2312C32.9624 24.1633 32.9565 24.1618 32.6988 24.1618C32.4601 24.1618 32.4355 24.1571 32.4355 24.1101C32.4355 24.0326 31.3419 23.9923 30.6519 24.0441ZM57.0124 24.0437C56.9177 24.0521 56.8944 24.0649 56.8944 24.1081C56.8944 24.1582 56.8727 24.1618 56.5765 24.1618C56.2564 24.1618 56.1171 24.1926 56.1171 24.2632C56.1171 24.2909 56.0644 24.3004 55.9094 24.3004C55.711 24.3004 55.7008 24.3035 55.6843 24.3696C55.6694 24.429 55.651 24.4387 55.5559 24.4387C55.4705 24.4387 55.4322 24.4549 55.3902 24.5081C55.3441 24.5667 55.3127 24.5773 55.185 24.5773C55.0529 24.5773 55.0343 24.584 55.0343 24.6327C55.0343 24.6733 55.0158 24.688 54.9649 24.688C54.9098 24.688 54.8955 24.702 54.8955 24.7558C54.8955 24.8168 54.8826 24.8243 54.7636 24.8319C54.651 24.839 54.6304 24.8495 54.6229 24.9027C54.6165 24.9471 54.5954 24.965 54.5485 24.965C54.5117 24.965 54.4592 24.9953 54.4285 25.0342C54.3953 25.0764 54.3457 25.1034 54.3016 25.1034C54.2429 25.1034 54.2292 25.1165 54.2292 25.1727C54.2292 25.2281 54.2154 25.2419 54.1598 25.2419C54.1098 25.2419 54.0903 25.2568 54.0903 25.2954C54.0903 25.3296 54.0681 25.352 54.0279 25.3577C53.9884 25.3632 53.9623 25.3887 53.9568 25.4271C53.9515 25.4648 53.9253 25.4909 53.8874 25.4963C53.849 25.5018 53.8234 25.5279 53.8177 25.5673C53.812 25.6072 53.7898 25.6296 53.7553 25.6296C53.7166 25.6296 53.7017 25.6488 53.7017 25.6988C53.7017 25.7542 53.6878 25.768 53.6323 25.768C53.5773 25.768 53.5629 25.7821 53.5629 25.8353C53.5629 25.884 53.5457 25.905 53.5005 25.9115C53.4485 25.9188 53.4365 25.9402 53.4295 26.038C53.4219 26.142 53.413 26.1557 53.353 26.1557C53.2993 26.1557 53.2853 26.17 53.2853 26.225C53.2853 26.2757 53.2705 26.2942 53.2298 26.2942C53.1825 26.2942 53.1742 26.3126 53.1742 26.4169C53.1742 26.5231 53.1658 26.5408 53.1118 26.5484C53.0584 26.556 53.048 26.5766 53.0408 26.6888C53.0332 26.8076 53.0257 26.8203 52.9645 26.8203C52.9015 26.8203 52.8966 26.8305 52.8966 26.9588C52.8966 27.088 52.892 27.0972 52.8272 27.0972C52.7633 27.0972 52.7577 27.1072 52.7577 27.2244C52.7577 27.3223 52.7436 27.3629 52.696 27.4014C52.6442 27.4432 52.6326 27.4851 52.6237 27.6595C52.6148 27.8355 52.605 27.8698 52.5605 27.8814C52.5138 27.8936 52.5079 27.9231 52.5079 28.1464C52.5079 28.3914 52.5062 28.3982 52.4386 28.4151L52.3691 28.4326V29.9231C52.3691 31.4113 52.3776 31.5558 52.4656 31.5558C52.5007 31.5558 52.5079 31.6029 52.5079 31.8327C52.5079 32.0911 52.5116 32.1096 52.5635 32.1096C52.6142 32.1096 52.619 32.128 52.619 32.3289C52.619 32.5843 52.6334 32.6357 52.7052 32.6357C52.7518 32.6357 52.7577 32.6578 52.7577 32.8291C52.7577 33.0122 52.7614 33.0233 52.8272 33.0398C52.8881 33.055 52.8966 33.0722 52.8966 33.1787C52.8966 33.29 52.9025 33.3003 52.966 33.3003C53.0307 33.3003 53.0354 33.3095 53.0354 33.4389C53.0354 33.568 53.04 33.5773 53.1049 33.5773C53.1684 33.5773 53.1742 33.5875 53.1742 33.6999C53.1742 33.7984 53.1852 33.8263 53.2298 33.8404C53.2603 33.85 53.2853 33.8819 53.2853 33.9115C53.2853 33.9498 53.3046 33.9649 53.3532 33.9649C53.4144 33.9649 53.4219 33.9777 53.4295 34.0964C53.4367 34.2076 53.4474 34.2294 53.4987 34.2366C53.5366 34.242 53.5628 34.2681 53.5681 34.3059C53.5736 34.3442 53.5997 34.3697 53.6392 34.3754C53.6794 34.3811 53.7017 34.4033 53.7017 34.4377C53.7017 34.4719 53.7208 34.491 53.7553 34.491C53.7898 34.491 53.812 34.5134 53.8177 34.5535C53.8234 34.5934 53.849 34.6189 53.8891 34.6246C53.9344 34.6309 53.9516 34.652 53.9516 34.7007C53.9516 34.754 53.966 34.768 54.021 34.768C54.0765 34.768 54.0903 34.7819 54.0903 34.8373C54.0903 34.8921 54.1045 34.9065 54.1578 34.9065C54.2066 34.9065 54.2279 34.9237 54.2342 34.9685C54.2393 35.0043 54.2666 35.035 54.2983 35.0411C54.3287 35.0468 54.37 35.0749 54.3901 35.1037C54.4139 35.1375 54.4601 35.1557 54.5223 35.1557C54.6057 35.1557 54.6179 35.1645 54.6179 35.225C54.6179 35.2896 54.6271 35.2942 54.7566 35.2942C54.8863 35.2942 54.8955 35.2988 54.8955 35.3634C54.8955 35.4269 54.9058 35.4326 55.0185 35.4326C55.125 35.4326 55.1427 35.441 55.1503 35.495C55.158 35.5481 55.1786 35.5585 55.2911 35.5657C55.4003 35.5727 55.423 35.5834 55.423 35.628C55.423 35.6762 55.4433 35.6819 55.6155 35.6819C55.7938 35.6819 55.8085 35.6863 55.8167 35.7442C55.8251 35.8029 55.84 35.807 56.0796 35.8145C56.3236 35.822 56.3343 35.825 56.3509 35.8906C56.3658 35.9504 56.3833 35.9588 56.4923 35.9588C56.5959 35.9588 56.6168 35.9676 56.6168 36.0112C56.6168 36.0953 56.6463 36.0973 57.917 36.0969C59.1969 36.0965 59.2542 36.0929 59.2542 36.0126C59.2542 35.9729 59.2796 35.9602 59.3722 35.9535C59.4633 35.9469 59.4964 35.9308 59.5176 35.8827C59.5422 35.8269 59.5647 35.8203 59.7328 35.8203C59.9145 35.8203 59.9205 35.8181 59.9205 35.7511C59.9205 35.6839 59.9262 35.6819 60.113 35.6819C60.2811 35.6819 60.3077 35.6748 60.323 35.6265C60.3353 35.5882 60.3651 35.5711 60.4198 35.5711C60.5351 35.5711 60.5868 35.5444 60.5868 35.4851C60.5868 35.4414 60.6077 35.4326 60.7112 35.4326C60.8207 35.4326 60.8377 35.4243 60.853 35.3634C60.8655 35.3137 60.8892 35.2942 60.9368 35.2942C60.9892 35.2942 61.0033 35.2796 61.0033 35.225C61.0033 35.1613 61.0135 35.1557 61.1282 35.1557C61.2332 35.1557 61.2531 35.1471 61.2531 35.1023C61.2531 35.0679 61.2754 35.0457 61.3156 35.04C61.3551 35.0343 61.3813 35.0089 61.3867 34.9705C61.3921 34.9328 61.4182 34.9066 61.4561 34.9012C61.4945 34.8958 61.5202 34.8698 61.5257 34.8304C61.5321 34.7853 61.5533 34.768 61.6022 34.768C61.6555 34.768 61.6696 34.7536 61.6696 34.6988C61.6696 34.648 61.6844 34.6296 61.7252 34.6296C61.7658 34.6296 61.7807 34.6112 61.7807 34.5604C61.7807 34.505 61.7945 34.491 61.8501 34.491C61.901 34.491 61.9194 34.4763 61.9194 34.4358C61.9194 34.3952 61.9379 34.3804 61.9888 34.3804C62.0438 34.3804 62.0583 34.3663 62.0583 34.313C62.0583 34.2644 62.0756 34.2432 62.1208 34.2369C62.1608 34.2312 62.1863 34.2057 62.192 34.1658C62.1977 34.1257 62.2201 34.1035 62.2545 34.1035C62.2996 34.1035 62.3081 34.0834 62.3081 33.9788C62.3081 33.8643 62.3138 33.8542 62.3775 33.8542C62.4333 33.8542 62.447 33.8404 62.447 33.7843C62.447 33.7351 62.4676 33.7066 62.5164 33.688C62.5745 33.666 62.5857 33.6436 62.5857 33.5503C62.5857 33.4593 62.5954 33.4389 62.6383 33.4389C62.6981 33.4389 62.7246 33.3873 62.7246 33.2704C62.7246 33.226 62.7362 33.1896 62.7503 33.1896C62.8213 33.1896 62.8634 33.096 62.8634 32.9384C62.8634 32.8474 62.8757 32.7742 62.8912 32.7742C62.9079 32.7742 62.9189 32.6541 62.9189 32.4696C62.9189 32.1668 62.9185 32.165 62.8525 32.165C62.8158 32.165 62.7788 32.1837 62.7701 32.2064C62.7561 32.2427 62.5666 32.248 61.297 32.248C59.5903 32.248 59.6722 32.2339 59.671 32.5289C59.6707 32.6132 59.6593 32.6326 59.6012 32.6471C59.5575 32.6581 59.5318 32.6841 59.5318 32.7174C59.5318 32.7512 59.5093 32.7736 59.4694 32.7791C59.4292 32.7848 59.4038 32.8103 59.3981 32.8503C59.3924 32.8904 59.37 32.9126 59.3355 32.9126C59.297 32.9126 59.282 32.932 59.282 32.9818C59.282 33.0372 59.2681 33.0512 59.2125 33.0512C59.157 33.0512 59.1432 33.065 59.1432 33.1204C59.1432 33.185 59.1339 33.1896 59.0044 33.1896C58.884 33.1896 58.8655 33.197 58.8655 33.2449C58.8655 33.2941 58.8471 33.3003 58.7025 33.3003C58.4709 33.3003 58.3608 33.3271 58.345 33.3877C58.3241 33.4673 57.4344 33.4662 57.409 33.3865C57.3891 33.3242 57.3164 33.3013 57.1373 33.3007C57.0241 33.3003 57.0055 33.2925 57.0055 33.2449C57.0055 33.198 56.9869 33.1896 56.8825 33.1896C56.7761 33.1896 56.7583 33.1812 56.7505 33.1273C56.7431 33.0741 56.7224 33.0638 56.6099 33.0564C56.4908 33.0489 56.4779 33.0416 56.4779 32.9803C56.4779 32.9266 56.4637 32.9126 56.4086 32.9126C56.353 32.9126 56.3392 32.8988 56.3392 32.8434C56.3392 32.7881 56.3252 32.7742 56.2697 32.7742C56.2178 32.7742 56.2003 32.7596 56.2003 32.7161C56.2003 32.682 56.1782 32.6525 56.1463 32.6441C56.1055 32.6335 56.0901 32.6016 56.0838 32.5152C56.0769 32.4203 56.0645 32.3987 56.013 32.3914C55.9602 32.384 55.9505 32.3656 55.9505 32.2732C55.9505 32.1833 55.938 32.1581 55.8811 32.1322C55.8226 32.1056 55.8116 32.0819 55.8116 31.9806C55.8116 31.8707 55.8057 31.8603 55.7423 31.8603C55.6732 31.8603 55.6729 31.8594 55.6729 31.5972C55.6729 31.3527 55.6689 31.3342 55.6174 31.3342C55.5667 31.3342 55.5618 31.3157 55.5618 31.1265V30.9188H59.2404H62.9189V29.4096C62.9189 28.4219 62.9092 27.9004 62.8912 27.9004C62.8757 27.9004 62.8634 27.8272 62.8634 27.7364C62.8634 27.5377 62.8456 27.4849 62.7784 27.4849C62.7344 27.4849 62.726 27.4584 62.7189 27.298C62.7114 27.1282 62.7049 27.1104 62.6482 27.1022C62.5931 27.0944 62.5857 27.0773 62.5857 26.9569C62.5857 26.8305 62.5807 26.8203 62.5179 26.8203C62.4566 26.8203 62.4492 26.8076 62.4416 26.6888C62.4342 26.5766 62.4239 26.556 62.3706 26.5484C62.3165 26.5408 62.3081 26.5231 62.3081 26.4169C62.3081 26.3126 62.2997 26.2942 62.2526 26.2942C62.2079 26.2942 62.1971 26.2757 62.1971 26.1993C62.1971 26.1091 62.14 26.0173 62.084 26.0173C62.0699 26.0173 62.0583 25.9926 62.0583 25.9624C62.0583 25.927 62.0336 25.9014 61.9888 25.8901C61.9454 25.8793 61.9194 25.8532 61.9194 25.8204C61.9194 25.783 61.8996 25.768 61.8501 25.768C61.7875 25.768 61.7807 25.757 61.7807 25.6567C61.7807 25.5647 61.7685 25.5398 61.7112 25.5138C61.673 25.4965 61.6418 25.4592 61.6418 25.4313C61.6418 25.4033 61.6228 25.3803 61.5996 25.3803C61.5764 25.3803 61.5431 25.3491 61.5257 25.3111C61.5084 25.273 61.4707 25.2419 61.4424 25.2419C61.4126 25.2419 61.3792 25.2124 61.3642 25.1727C61.342 25.1146 61.3196 25.1034 61.2261 25.1034C61.1254 25.1034 61.1144 25.0966 61.1144 25.0342C61.1144 24.9842 61.0994 24.965 61.0608 24.965C61.0263 24.965 61.004 24.9426 60.9983 24.9027C60.9907 24.8496 60.9701 24.839 60.8593 24.832C60.7495 24.825 60.7277 24.8141 60.7204 24.7628C60.715 24.7241 60.6889 24.6986 60.6493 24.6931C60.6092 24.6874 60.5868 24.665 60.5868 24.6308C60.5868 24.5858 60.5669 24.5773 60.4625 24.5773C60.3529 24.5773 60.3359 24.569 60.3206 24.5081C60.3042 24.4425 60.2928 24.4387 60.1118 24.4387C59.9262 24.4387 59.9205 24.4367 59.9205 24.3696C59.9205 24.3022 59.9149 24.3004 59.7262 24.3004C59.554 24.3004 59.5318 24.2944 59.5318 24.2479C59.5318 24.1736 59.4811 24.1618 59.1581 24.1618C58.9035 24.1618 58.8706 24.1563 58.8586 24.1109C58.8384 24.0337 57.6182 23.9893 57.0124 24.0437ZM36.5721 24.4941C36.5721 24.665 36.5784 24.688 36.6241 24.688C36.6787 24.688 36.7101 24.7968 36.7107 24.9883C36.7109 25.0575 36.725 25.0845 36.7665 25.0954C36.8132 25.1076 36.8221 25.1332 36.8221 25.2567C36.8221 25.4392 36.8412 25.4911 36.9083 25.4911C36.9535 25.4911 36.9608 25.5125 36.9608 25.6411C36.9608 25.8269 36.9797 25.8788 37.0471 25.8788C37.0918 25.8788 37.0997 25.8999 37.0997 26.019C37.0997 26.1748 37.1361 26.2664 37.1978 26.2664C37.2281 26.2664 37.2384 26.3018 37.2384 26.405C37.2384 26.525 37.2459 26.5434 37.294 26.5434C37.3428 26.5434 37.3495 26.5619 37.3495 26.6975C37.3495 26.8648 37.3844 26.9588 37.4464 26.9588C37.4757 26.9588 37.488 27.0066 37.4941 27.1457C37.5015 27.3155 37.5079 27.3334 37.5647 27.3415C37.6199 27.3494 37.6271 27.3663 37.6271 27.4887C37.6271 27.6425 37.6638 27.7342 37.7253 27.7342C37.7557 27.7342 37.766 27.7696 37.766 27.8726C37.766 28.0019 37.7706 28.0111 37.8354 28.0111C37.9028 28.0111 37.9047 28.0167 37.9047 28.2049C37.9047 28.3788 37.9104 28.3988 37.959 28.3988C38.0067 28.3988 38.0143 28.4214 38.0215 28.5857C38.0287 28.7478 38.0379 28.7762 38.091 28.7995C38.1439 28.8227 38.1535 28.8513 38.1605 29.0071C38.1677 29.1696 38.1748 29.1888 38.2297 29.1967C38.285 29.2046 38.2918 29.2236 38.2991 29.3906C38.3066 29.5585 38.3131 29.5765 38.3698 29.5845C38.425 29.5924 38.4323 29.6094 38.4323 29.73C38.4323 29.8481 38.4398 29.8665 38.4878 29.8665C38.5366 29.8665 38.5433 29.885 38.5433 30.0165C38.5433 30.2013 38.5622 30.2542 38.6283 30.2542C38.6723 30.2542 38.6807 30.2807 38.6878 30.4412C38.695 30.6033 38.7042 30.6316 38.7573 30.6549C38.8103 30.678 38.8198 30.7067 38.8268 30.8626C38.834 31.0251 38.8411 31.0443 38.8961 31.0522C38.9513 31.0599 38.9581 31.0791 38.9654 31.2459C38.9729 31.414 38.9794 31.4319 39.0362 31.44C39.0913 31.4477 39.0986 31.4648 39.0986 31.5853C39.0986 31.7023 39.1063 31.7219 39.1529 31.7219C39.2006 31.7219 39.2082 31.7445 39.2154 31.9088C39.2228 32.0786 39.2292 32.0965 39.2859 32.1046C39.3439 32.1127 39.3484 32.1274 39.3484 32.3048C39.3484 32.485 39.3525 32.4972 39.4167 32.5133C39.4794 32.529 39.4855 32.5451 39.493 32.7145C39.5005 32.8816 39.507 32.8996 39.5636 32.9076C39.6203 32.9156 39.626 32.9316 39.626 33.0792C39.626 33.2068 39.6373 33.2497 39.678 33.2781C39.7118 33.3017 39.7372 33.366 39.7502 33.4612C39.7621 33.5462 39.7919 33.6279 39.8212 33.6553C39.8522 33.684 39.8756 33.7511 39.881 33.8268C39.8884 33.9314 39.8997 33.9525 39.9523 33.9599C40.0102 33.9682 40.0147 33.9828 40.0147 34.1602C40.0147 34.3403 40.0188 34.3526 40.083 34.3686C40.1457 34.3843 40.1518 34.4004 40.1593 34.57C40.1666 34.7371 40.1733 34.755 40.2299 34.7631C40.285 34.7708 40.2923 34.7879 40.2923 34.9084C40.2923 35.0067 40.3075 35.0601 40.3464 35.0988C40.3813 35.1336 40.4032 35.1995 40.4088 35.2857C40.416 35.3995 40.4263 35.4201 40.4798 35.4277C40.5338 35.4353 40.5423 35.453 40.5423 35.5592V35.6819H42.2094H43.8764L43.9445 35.6086C43.9945 35.5547 44.0125 35.5042 44.0125 35.418C44.0125 35.324 44.0235 35.2977 44.0681 35.2862C44.1164 35.2736 44.1236 35.2484 44.1236 35.0911C44.1236 34.9248 44.1286 34.9096 44.186 34.9015C44.2435 34.8934 44.2492 34.8762 44.2568 34.6919C44.2645 34.4993 44.2676 34.491 44.3331 34.491C44.3963 34.491 44.4012 34.4812 44.4012 34.3541C44.4012 34.2463 44.416 34.2011 44.4706 34.1423C44.522 34.0871 44.5401 34.0371 44.5401 33.9503C44.5401 33.8562 44.5511 33.8301 44.5956 33.8184C44.644 33.8058 44.6511 33.7806 44.6511 33.6233C44.6511 33.457 44.656 33.442 44.7136 33.4339C44.7702 33.4257 44.7767 33.4078 44.7842 33.2398C44.7915 33.073 44.7984 33.0537 44.8536 33.0459C44.9094 33.038 44.9156 33.0195 44.9229 32.8365C44.9308 32.644 44.9339 32.6357 44.9994 32.6357C45.0652 32.6357 45.0675 32.6291 45.0675 32.4438C45.0675 32.2659 45.0721 32.2513 45.13 32.243C45.1822 32.2357 45.1939 32.2144 45.2011 32.1134C45.2078 32.0216 45.2227 31.9894 45.2637 31.9787C45.3101 31.9665 45.3175 31.9393 45.3175 31.776C45.3175 31.6014 45.3221 31.5866 45.3799 31.5784C45.4365 31.5704 45.443 31.5524 45.4505 31.3845C45.4578 31.2175 45.4648 31.1984 45.5199 31.1906C45.5757 31.1827 45.5819 31.164 45.5892 30.9811C45.5971 30.7885 45.6002 30.7804 45.6657 30.7804C45.7283 30.7804 45.7338 30.7698 45.7338 30.6519C45.7338 30.562 45.7484 30.5128 45.7819 30.4883C45.8142 30.4647 45.8347 30.4004 45.8443 30.2914C45.857 30.1499 45.8666 30.1285 45.9213 30.1208C45.9791 30.1125 45.9838 30.0979 45.9838 29.92C45.9838 29.7338 45.9858 29.7281 46.0531 29.7281C46.1205 29.7281 46.1225 29.7224 46.1225 29.5361C46.1225 29.3581 46.1271 29.3435 46.185 29.3354C46.2383 29.3278 46.2486 29.3072 46.256 29.1947C46.2621 29.0992 46.2831 29.0442 46.3323 28.9952C46.3841 28.9435 46.4001 28.8981 46.4001 28.8035C46.4001 28.7038 46.411 28.676 46.4557 28.6618C46.5036 28.6466 46.5112 28.62 46.5112 28.4667C46.5112 28.3004 46.5157 28.2879 46.5806 28.2717C46.6463 28.2553 46.6501 28.2439 46.6501 28.0635C46.6501 27.8784 46.6521 27.8726 46.7194 27.8726C46.7868 27.8726 46.7888 27.8669 46.7888 27.6807C46.7888 27.5028 46.7934 27.4882 46.8513 27.4799C46.9047 27.4723 46.9157 27.4503 46.9277 27.3276C46.9368 27.233 46.9629 27.1596 47.004 27.1127C47.0457 27.0651 47.0664 27.0058 47.0664 26.9342C47.0664 26.8501 47.0785 26.8237 47.122 26.8123C47.1703 26.7997 47.1775 26.7745 47.1775 26.6183C47.1775 26.4498 47.1818 26.4376 47.2469 26.4212C47.3127 26.4048 47.3164 26.3937 47.3164 26.2105C47.3164 26.0228 47.3183 26.0173 47.3857 26.0173C47.4497 26.0173 47.4551 26.0073 47.4551 25.8901C47.4551 25.7934 47.4694 25.7515 47.515 25.7148C47.5592 25.6789 47.578 25.6266 47.5876 25.5119C47.5977 25.3903 47.6115 25.3546 47.6526 25.3437C47.6972 25.3322 47.705 25.3031 47.705 25.1505C47.705 24.982 47.7093 24.9698 47.7744 24.9536C47.8354 24.9383 47.8438 24.9214 47.8438 24.813C47.8438 24.7184 47.8566 24.6832 47.8993 24.6603C47.991 24.6114 47.9793 24.3636 47.8836 24.3273C47.8062 24.2979 44.6594 24.2883 44.584 24.3171C44.5533 24.3289 44.5401 24.3701 44.5401 24.4538C44.5401 24.5469 44.5284 24.5773 44.4876 24.5901C44.4209 24.6113 44.402 24.6828 44.4016 24.9165C44.4012 25.0973 44.3989 25.1034 44.3318 25.1034C44.2645 25.1034 44.2625 25.1091 44.2625 25.2954C44.2625 25.4733 44.2579 25.4879 44.2 25.4961C44.1426 25.5042 44.1368 25.5215 44.1293 25.7057C44.1221 25.8838 44.115 25.9065 44.0668 25.9065C44.0181 25.9065 44.0125 25.9264 44.0125 26.1003C44.0125 26.2887 44.0106 26.2942 43.9432 26.2942C43.876 26.2942 43.8738 26.3002 43.8738 26.4815C43.8738 26.6491 43.8671 26.6716 43.8113 26.6961C43.7569 26.72 43.7478 26.7472 43.7406 26.9086C43.7333 27.0754 43.7265 27.0946 43.6712 27.1024C43.6163 27.1102 43.6092 27.1296 43.6019 27.2911C43.5953 27.436 43.5823 27.4799 43.5351 27.5161C43.4861 27.5536 43.4741 27.5987 43.4633 27.7861C43.4519 27.9828 43.4437 28.0111 43.3982 28.0111C43.3542 28.0111 43.3462 28.0328 43.3462 28.1525C43.3462 28.2703 43.3347 28.303 43.2769 28.3483C43.214 28.3978 43.2075 28.4221 43.2075 28.6085C43.2075 28.8094 43.2059 28.8142 43.138 28.8142C43.0706 28.8142 43.0686 28.8197 43.0686 29.0081C43.0686 29.1798 43.0626 29.2018 43.0161 29.2018C42.9485 29.2018 42.9299 29.2538 42.9299 29.4421C42.9299 29.5702 42.921 29.597 42.8757 29.6089C42.8313 29.6204 42.8183 29.6567 42.8029 29.8116C42.7879 29.9637 42.7741 30.0028 42.7322 30.0138C42.6873 30.0256 42.6799 30.055 42.6799 30.224C42.6799 30.3779 42.6712 30.4203 42.6393 30.4203C42.5793 30.4203 42.5412 30.5108 42.5412 30.6527C42.5412 30.7492 42.5253 30.7937 42.4718 30.847C42.4102 30.9085 42.4023 30.9395 42.4023 31.122C42.4023 31.3195 42.3996 31.3283 42.3329 31.341C42.264 31.3541 42.2636 31.3531 42.2636 31.1478C42.2636 30.9646 42.2573 30.9396 42.208 30.9268C42.1627 30.915 42.1524 30.8889 42.1521 30.784C42.1516 30.6026 42.1273 30.5311 42.0659 30.5311C42.0197 30.5311 42.0136 30.5086 42.0136 30.3373C42.0136 30.1489 42.0117 30.1434 41.9442 30.1434C41.8766 30.1434 41.8749 30.1384 41.8749 29.9423C41.8749 29.7603 41.8689 29.7385 41.8124 29.7139C41.7593 29.6907 41.7486 29.6617 41.7414 29.5232C41.7345 29.3886 41.7211 29.3504 41.6651 29.3065C41.6039 29.2585 41.5972 29.2329 41.5972 29.0449C41.5972 28.8599 41.591 28.835 41.5417 28.8221C41.4942 28.8098 41.4862 28.7845 41.4862 28.6468C41.4862 28.4934 41.4436 28.3988 41.3745 28.3988C41.3609 28.3988 41.3462 28.3147 41.3418 28.2118C41.3343 28.042 41.3278 28.0241 41.271 28.0162C41.2131 28.0079 41.2086 27.9933 41.2086 27.8153C41.2086 27.6291 41.2065 27.6234 41.1392 27.6234C41.0715 27.6234 41.0697 27.6186 41.0697 27.4201C41.0697 27.2535 41.0599 27.2077 41.0155 27.1676C40.9781 27.1339 40.9588 27.0749 40.9531 26.9764C40.9459 26.8529 40.9365 26.833 40.8823 26.8253C40.8257 26.8173 40.8199 26.8013 40.8199 26.6558C40.8199 26.4284 40.7927 26.3168 40.7335 26.3014C40.6927 26.2908 40.682 26.2544 40.6753 26.1044C40.668 25.9386 40.6611 25.9195 40.6059 25.9117C40.5501 25.9037 40.5439 25.8851 40.5364 25.7039C40.5291 25.5215 40.5231 25.5042 40.4658 25.4961C40.408 25.4879 40.4034 25.4733 40.4034 25.2954C40.4034 25.1219 40.3981 25.1034 40.3479 25.1034C40.2984 25.1034 40.2923 25.0849 40.2923 24.9359C40.2923 24.7719 40.236 24.6049 40.1806 24.6049C40.1657 24.6049 40.1536 24.5605 40.1536 24.5062C40.1536 24.2821 40.315 24.3004 38.3341 24.3004H36.5721V24.4941ZM48.4077 24.3347C48.378 24.3807 48.364 35.6046 48.3936 35.7186L48.4164 35.8065H49.9832H51.5502V30.0604V24.3142L49.9903 24.307C48.761 24.3014 48.4255 24.3073 48.4077 24.3347ZM31.6582 25.4219C31.6582 25.4772 31.672 25.4911 31.7276 25.4911C31.7716 25.4911 31.7971 25.5068 31.7971 25.5336C31.7971 25.557 31.8189 25.6095 31.8457 25.6503C31.9231 25.7685 31.8888 26.7353 31.7968 27.028C31.7824 27.0737 31.7521 27.2108 31.7293 27.3327C31.6841 27.5751 31.5691 27.9321 31.5046 28.0301C31.4822 28.0642 31.4636 28.1145 31.4634 28.1417C31.4622 28.2577 31.173 28.589 31.0708 28.5915C31.0204 28.5927 30.7498 28.4698 30.6171 28.3854C30.3808 28.2351 29.9555 27.8275 29.6632 27.4711C29.217 26.927 29.1614 26.8222 29.2472 26.6852C29.2896 26.6174 29.2588 26.5434 29.1882 26.5434C29.1385 26.5434 29.1319 26.5258 29.1319 26.3931C29.1319 26.2465 29.0872 26.1557 29.015 26.1557C28.9987 26.1557 29.0184 26.1229 29.0587 26.0827C29.0989 26.0426 29.1319 25.9803 29.1319 25.9443C29.1319 25.8851 29.1439 25.8788 29.2568 25.8788C29.3606 25.8788 29.3816 25.87 29.3816 25.8266C29.3816 25.7857 29.4096 25.7702 29.5098 25.7551C29.6017 25.7414 29.6418 25.7214 29.6514 25.6842C29.6619 25.6446 29.6955 25.6304 29.7941 25.624C29.9036 25.617 29.9244 25.6063 29.9319 25.5534C29.9402 25.4957 29.9548 25.4911 30.1332 25.4911C30.3199 25.4911 30.3256 25.489 30.3256 25.4219V25.3527H30.9919H31.6582V25.4219ZM33.7732 25.941C33.7808 25.9943 33.8014 26.0047 33.914 26.0119C34.033 26.0195 34.0458 26.0269 34.0458 26.088C34.0458 26.1496 34.0568 26.1557 34.1688 26.1557C34.2752 26.1557 34.293 26.1641 34.3006 26.218C34.3063 26.2575 34.3318 26.2835 34.3703 26.2889C34.4081 26.2943 34.4343 26.3205 34.4398 26.3581C34.4452 26.3966 34.4713 26.422 34.5108 26.4276C34.5509 26.4333 34.5733 26.4556 34.5733 26.49C34.5733 26.5285 34.5926 26.5434 34.6427 26.5434C34.6982 26.5434 34.7121 26.5573 34.7121 26.6127C34.7121 26.6681 34.7259 26.6819 34.7815 26.6819C34.837 26.6819 34.851 26.6957 34.851 26.7511C34.851 26.8011 34.8659 26.8203 34.9045 26.8203C34.9389 26.8203 34.9612 26.8426 34.9669 26.8826C34.9726 26.9227 34.9981 26.9481 35.0383 26.9538C35.0785 26.9595 35.1008 26.9817 35.1008 27.0161C35.1008 27.0547 35.12 27.0696 35.1701 27.0696C35.2257 27.0696 35.2397 27.0834 35.2397 27.1388C35.2397 27.1942 35.2535 27.208 35.309 27.208C35.3738 27.208 35.3784 27.2172 35.3784 27.3465C35.3784 27.4665 35.3859 27.4849 35.4339 27.4849C35.4729 27.4849 35.4896 27.5036 35.4899 27.5472C35.4905 27.6643 35.5227 27.7342 35.5759 27.7342C35.6568 27.7342 35.6475 27.8661 35.5657 27.8776C35.5257 27.8833 35.5002 27.9088 35.4945 27.9488C35.4888 27.9888 35.4664 28.0111 35.432 28.0111C35.3933 28.0111 35.3784 28.0304 35.3784 28.0803C35.3784 28.1426 35.3673 28.1495 35.2673 28.1495C35.1689 28.1495 35.1563 28.1571 35.1563 28.2153C35.1563 28.2516 35.1376 28.2967 35.1146 28.3157C35.0918 28.3346 35.0731 28.3644 35.0731 28.3818C35.0731 28.4109 34.6961 28.6193 34.6397 28.6212C34.626 28.6217 34.5524 28.6527 34.4761 28.6901C34.3997 28.7276 34.312 28.7584 34.2811 28.7585C34.2501 28.7586 34.1981 28.7775 34.1655 28.8002C34.1329 28.823 34.0209 28.8609 33.9164 28.8846C33.812 28.9083 33.6765 28.9444 33.6154 28.9649C33.3413 29.057 32.8438 29.0859 32.6556 29.0209C32.4586 28.9527 32.3717 28.6342 32.4632 28.3158C32.4786 28.2627 32.5028 28.1258 32.5171 28.0114C32.5414 27.818 32.6454 27.4428 32.7281 27.2496C32.7477 27.2039 32.7777 27.114 32.7948 27.05C32.8117 26.9859 32.8375 26.9262 32.8521 26.9173C32.8664 26.9083 32.8922 26.8486 32.9093 26.7845C32.9265 26.7205 32.9566 26.6494 32.9761 26.6265C32.9958 26.6036 33.0325 26.5445 33.0576 26.4949C33.0906 26.4299 33.1224 26.405 33.172 26.405C33.2221 26.405 33.2407 26.3901 33.2407 26.3496C33.2407 26.309 33.2592 26.2942 33.3101 26.2942C33.3651 26.2942 33.3795 26.2803 33.3795 26.2269C33.3795 26.1782 33.3967 26.1572 33.4419 26.1507C33.4821 26.145 33.5076 26.1197 33.5133 26.0796C33.519 26.0395 33.5413 26.0173 33.5758 26.0173C33.6145 26.0173 33.6294 25.9979 33.6294 25.9481C33.6294 25.8529 33.7597 25.8465 33.7732 25.941ZM58.3431 26.7442C58.3511 26.8007 58.3691 26.8073 58.5375 26.8146C58.7048 26.8219 58.7241 26.8288 58.7319 26.8838C58.7375 26.9235 58.7634 26.9481 58.8053 26.9541C58.8408 26.9591 58.894 26.9871 58.9234 27.0164C58.9525 27.0456 59.014 27.0696 59.0599 27.0696C59.1303 27.0696 59.1432 27.0803 59.1432 27.1388C59.1432 27.1942 59.157 27.208 59.2125 27.208C59.2681 27.208 59.282 27.2219 59.282 27.2773C59.282 27.328 59.2968 27.3465 59.3376 27.3465C59.3783 27.3465 59.3931 27.3649 59.3931 27.4157C59.3931 27.4711 59.4069 27.4849 59.4625 27.4849C59.5261 27.4849 59.5318 27.4951 59.5318 27.6096C59.5318 27.7241 59.5375 27.7342 59.6012 27.7342C59.6661 27.7342 59.6707 27.7434 59.6707 27.8726C59.6707 28.0019 59.6753 28.0111 59.7401 28.0111C59.8092 28.0111 59.8095 28.0121 59.8095 28.2741C59.8095 28.5188 59.8134 28.5372 59.865 28.5372C59.9132 28.5372 59.9205 28.5558 59.9205 28.6758V28.8142H57.7967H55.6729V28.6064C55.6729 28.4426 55.6814 28.3988 55.7135 28.3988C55.7751 28.3988 55.8116 28.3072 55.8116 28.1533C55.8116 28.0309 55.8188 28.014 55.8741 28.0061C55.9274 27.9985 55.9379 27.978 55.9451 27.8657C55.9519 27.7595 55.9634 27.7342 56.0045 27.7342C56.0629 27.7342 56.0893 27.6818 56.0893 27.5658C56.0893 27.5035 56.102 27.4849 56.1448 27.4849C56.1855 27.4849 56.2003 27.4665 56.2003 27.4157C56.2003 27.3603 56.2142 27.3465 56.2697 27.3465C56.3252 27.3465 56.3392 27.3327 56.3392 27.2773C56.3392 27.2219 56.353 27.208 56.4086 27.208C56.4641 27.208 56.4779 27.1942 56.4779 27.1388C56.4779 27.0834 56.4918 27.0696 56.5473 27.0696C56.5982 27.0696 56.6168 27.0548 56.6168 27.0142C56.6168 26.967 56.6353 26.9588 56.7417 26.9588C56.8564 26.9588 56.8666 26.9531 56.8666 26.8896C56.8666 26.8249 56.8758 26.8203 57.0055 26.8203C57.1008 26.8203 57.1442 26.8091 57.1442 26.7843C57.1442 26.6922 57.2072 26.6819 57.7725 26.6819C58.3339 26.6819 58.3342 26.6819 58.3431 26.7442ZM27.938 27.5391C27.938 27.5984 27.985 27.611 28.2929 27.6333C28.4844 27.6473 28.4987 27.6555 28.9603 28.0229C29.1974 28.2117 29.6688 28.669 29.7914 28.8292C29.8257 28.8743 29.8825 28.9485 29.9174 28.9941C29.9522 29.0399 29.9964 29.1084 30.0155 29.1465C30.0345 29.1845 30.0682 29.2469 30.0903 29.285C30.2448 29.5514 29.7963 29.8911 29.0485 30.0742C28.9646 30.0948 28.8271 30.1307 28.7432 30.154C28.6591 30.1771 28.4968 30.2085 28.3822 30.2236C28.2677 30.2386 28.0675 30.2661 27.9372 30.2845C27.6499 30.3251 27.5098 30.3041 27.4487 30.2114C27.4081 30.1493 27.3861 30.1434 27.1992 30.1434C26.9989 30.1434 26.9941 30.1418 26.9941 30.0742C26.9941 30.0234 26.9793 30.005 26.9385 30.005C26.8848 30.005 26.883 29.9864 26.883 29.4128C26.883 28.8439 26.8852 28.8201 26.9385 28.8062C26.9875 28.7934 26.9941 28.7684 26.9941 28.5952C26.9941 28.4041 26.996 28.3988 27.0636 28.3988C27.1309 28.3988 27.1329 28.3933 27.1329 28.2049C27.1329 28.0167 27.1348 28.0111 27.2023 28.0111C27.2671 28.0111 27.2717 28.0019 27.2717 27.8726C27.2717 27.7434 27.2763 27.7342 27.3412 27.7342C27.3906 27.7342 27.4106 27.7192 27.4106 27.6821C27.4106 27.6531 27.4353 27.6234 27.4661 27.6153C27.4993 27.6068 27.5216 27.5777 27.5216 27.5429C27.5216 27.4893 27.537 27.4849 27.7299 27.4849C27.9179 27.4849 27.938 27.4902 27.938 27.5391ZM35.5311 29.6727C35.5944 29.7049 35.6949 29.7281 35.771 29.7281C35.8857 29.7281 35.9031 29.7358 35.9108 29.7904C35.9183 29.8421 35.9396 29.8541 36.0378 29.8612L36.1558 29.8697V30.4603C36.1558 31.0275 36.1536 31.0514 36.1002 31.0653C36.0514 31.078 36.0447 31.1031 36.0447 31.2742C36.0447 31.4549 36.0402 31.4694 35.9823 31.4776C35.9255 31.4856 35.919 31.5035 35.9115 31.6734C35.9038 31.8513 35.9 31.8603 35.8352 31.8603C35.7732 31.8603 35.7671 31.8713 35.7671 31.983C35.7671 32.0892 35.7587 32.1069 35.7046 32.1145C35.6514 32.1221 35.641 32.1428 35.6338 32.2534L35.6253 32.3834L35.5099 32.3918C35.4138 32.3989 35.3913 32.412 35.3753 32.4696C35.3583 32.5313 35.3559 32.5324 35.3534 32.4794C35.3499 32.405 35.302 32.3865 35.1124 32.3865C35.0296 32.3865 34.962 32.3741 34.962 32.3588C34.962 32.3436 34.9042 32.3312 34.8337 32.3312C34.5678 32.3312 33.4774 31.4435 33.1689 30.9761C33.0097 30.7348 32.9102 30.5438 32.9088 30.4776C32.906 30.3304 33.3825 29.9974 33.6849 29.9351C33.7383 29.9242 33.8257 29.8934 33.8792 29.8667C33.9327 29.8402 34.0368 29.8096 34.1105 29.7989C34.1844 29.7881 34.2908 29.7631 34.347 29.7434C34.4589 29.704 34.957 29.6429 35.3378 29.6219C35.3842 29.6193 35.4713 29.6422 35.5311 29.6727ZM31.6582 29.7973C31.6582 29.8527 31.672 29.8665 31.7276 29.8665C31.7831 29.8665 31.7971 29.8803 31.7971 29.9357C31.7971 29.9864 31.8119 30.005 31.8526 30.005C31.8933 30.005 31.9081 30.0234 31.9081 30.0742C31.9081 30.125 31.8933 30.1434 31.8526 30.1434C31.8162 30.1434 31.7971 30.1618 31.7971 30.1969C31.7971 30.2313 31.7747 30.2535 31.7346 30.2592C31.6944 30.2649 31.6689 30.2903 31.6632 30.3304C31.649 30.4309 31.3806 30.4242 31.3806 30.3234C31.3806 30.268 31.3667 30.2542 31.3112 30.2542C31.2437 30.2542 31.2418 30.2486 31.2418 30.0604C31.2418 29.872 31.2437 29.8665 31.3112 29.8665C31.3667 29.8665 31.3806 29.8527 31.3806 29.7973C31.3806 29.7327 31.3898 29.7281 31.5194 29.7281C31.649 29.7281 31.6582 29.7327 31.6582 29.7973ZM30.2695 30.9396C30.4482 31.0291 30.4984 31.144 30.4847 31.4311C30.4719 31.6969 30.3677 32.2945 30.325 32.3457C30.3109 32.3626 30.2849 32.444 30.2672 32.5266C30.2494 32.6092 30.2189 32.7018 30.1992 32.7324C30.1796 32.763 30.149 32.8441 30.131 32.9126C30.1131 32.9812 30.0746 33.0761 30.0455 33.1236C30.0163 33.1711 29.9924 33.2286 29.9924 33.2514C29.9924 33.2742 29.9683 33.3236 29.9387 33.3611C29.9091 33.3986 29.8764 33.4632 29.8659 33.5045C29.8442 33.5908 29.6772 33.7158 29.5835 33.7158C29.5348 33.7158 29.5205 33.7315 29.5205 33.785C29.5205 33.8349 29.5056 33.8542 29.4669 33.8542C29.4373 33.8542 29.4053 33.8791 29.3955 33.9096C29.3802 33.9578 29.3535 33.9649 29.1887 33.9649C29.0228 33.9649 28.9977 33.9582 28.985 33.9096C28.9736 33.8658 28.9471 33.8542 28.8598 33.8542C28.7649 33.8542 28.7467 33.8443 28.7318 33.785C28.719 33.7343 28.6958 33.7158 28.6454 33.7158C28.5966 33.7158 28.5766 33.7006 28.5766 33.6635C28.5766 33.6104 28.5065 33.5783 28.3891 33.5777C28.3412 33.5774 28.3267 33.5613 28.3267 33.5081C28.3267 33.4527 28.3128 33.4389 28.2573 33.4389C28.2018 33.4389 28.1879 33.4249 28.1879 33.3695C28.1879 33.3187 28.1731 33.3003 28.1324 33.3003C28.0953 33.3003 28.0769 33.2819 28.0769 33.2449C28.0769 33.2043 28.0583 33.1896 28.0075 33.1896C27.952 33.1896 27.938 33.1757 27.938 33.1204C27.938 33.065 27.9241 33.0512 27.8686 33.0512C27.8105 33.0512 27.7992 33.038 27.7992 32.9703C27.7992 32.8535 27.7728 32.8019 27.7129 32.8019C27.6758 32.8019 27.6604 32.7821 27.6604 32.7346C27.6604 32.6858 27.6431 32.6648 27.5979 32.6585C27.5577 32.6528 27.5323 32.6273 27.5266 32.5872C27.5209 32.5471 27.4985 32.5249 27.4642 32.5249C27.4149 32.5249 27.4106 32.5033 27.4106 32.2618C27.4106 32.0173 27.4145 31.9989 27.4661 31.9989C27.5068 31.9989 27.5216 31.9803 27.5216 31.9295C27.5216 31.8714 27.5346 31.8603 27.6028 31.8603C27.6724 31.8603 27.6969 31.838 27.7732 31.705C27.8307 31.6047 27.8928 31.536 27.9487 31.5108C27.9962 31.4894 28.0539 31.4604 28.0769 31.4465C28.1843 31.3812 28.4953 31.2585 28.8264 31.151C28.8951 31.1287 28.9889 31.097 29.0346 31.0805C29.4429 30.9337 30.1066 30.858 30.2695 30.9396ZM32.1404 31.4836C32.2858 31.55 32.4182 31.6327 32.5444 31.7361C32.7809 31.9299 33.2956 32.4365 33.3188 32.4987C33.3237 32.5114 33.3704 32.5685 33.4227 32.6254C33.4749 32.6824 33.5675 32.8046 33.6282 32.8969C33.689 32.9894 33.7588 33.0857 33.7835 33.111C33.854 33.1835 33.8711 33.3836 33.8105 33.4279C33.7508 33.4715 33.7732 33.5488 33.8517 33.5693C33.9346 33.5909 33.9354 33.9628 33.8523 33.9843C33.8223 33.9922 33.7903 34.0222 33.7811 34.0511C33.772 34.0798 33.7403 34.1035 33.7107 34.1035C33.6723 34.1035 33.6571 34.1227 33.6571 34.1712C33.6571 34.2323 33.6443 34.2397 33.5253 34.2473C33.4127 34.2545 33.3921 34.2649 33.3845 34.318C33.3768 34.3721 33.3591 34.3804 33.25 34.3804C33.1477 34.3804 33.1217 34.3907 33.1099 34.4358C33.0976 34.4825 33.072 34.491 32.9445 34.491C32.7992 34.491 32.6452 34.5437 32.6255 34.6C32.6171 34.6243 32.2443 34.6353 31.5852 34.6309C31.411 34.6297 31.3853 34.6229 31.3726 34.5742C31.3639 34.541 31.3347 34.5188 31.2999 34.5188C31.2462 34.5188 31.2418 34.5034 31.2418 34.3143C31.2418 34.1242 31.2367 34.1065 31.1689 34.0622C31.0983 34.016 31.0966 34.0083 31.1115 33.8029C31.1347 33.481 31.2338 32.7855 31.2645 32.7281C31.2796 32.7002 31.3006 32.615 31.3113 32.5388C31.3221 32.4627 31.3607 32.3356 31.3973 32.2567C31.4339 32.1776 31.4639 32.089 31.4639 32.0598C31.4639 31.8928 31.8161 31.4172 31.9398 31.4172C31.9702 31.4172 32.0603 31.4472 32.1404 31.4836Z" fill="#FCFBFB"/>
<path fill-rule="evenodd" clip-rule="evenodd" d="M43.7349 20.9495C43.7349 20.9666 43.5982 20.9774 43.381 20.9775C42.9326 20.9779 42.8188 20.9953 42.8188 21.0634C42.8188 21.1111 42.7832 21.115 42.2982 21.122C41.7903 21.1293 41.777 21.1311 41.7507 21.1911C41.7247 21.2499 41.7059 21.2531 41.348 21.2604C40.9824 21.2679 40.9724 21.2696 40.9637 21.3303C40.9551 21.391 40.946 21.3926 40.6236 21.3926H40.2923V21.4619C40.2923 21.5308 40.2915 21.5311 40.0287 21.5311C39.7834 21.5311 39.7649 21.535 39.7649 21.5865C39.7649 21.638 39.7464 21.6419 39.5017 21.6419C39.244 21.6419 39.238 21.6434 39.2211 21.7111C39.2041 21.7784 39.1969 21.7803 38.9573 21.7803C38.7177 21.7803 38.7105 21.7822 38.6935 21.8496C38.6771 21.915 38.6657 21.9188 38.4848 21.9188C38.2993 21.9188 38.2934 21.9208 38.2934 21.988C38.2934 22.0553 38.288 22.0572 38.0991 22.0572C37.9278 22.0572 37.9047 22.0634 37.9047 22.1091C37.9047 22.1531 37.8749 22.1638 37.7073 22.1803C37.545 22.1963 37.5074 22.2091 37.4958 22.2531C37.4847 22.2955 37.457 22.3065 37.3602 22.3065C37.2489 22.3065 37.2384 22.3125 37.2384 22.3757C37.2384 22.443 37.2329 22.4449 37.0447 22.4449C36.8612 22.4449 36.8499 22.4485 36.8335 22.5142C36.8181 22.5749 36.801 22.5834 36.6942 22.5834C36.5826 22.5834 36.5721 22.5892 36.5721 22.6526C36.5721 22.7172 36.5629 22.7218 36.4334 22.7218C36.3145 22.7218 36.2945 22.7295 36.2945 22.7757C36.2945 22.8192 36.272 22.8311 36.1765 22.838C36.0785 22.845 36.0571 22.857 36.0497 22.9088C36.0419 22.9638 36.0247 22.9711 35.9039 22.9711C35.7764 22.9711 35.7671 22.9759 35.7671 23.0403C35.7671 23.1038 35.7569 23.1095 35.6427 23.1095C35.5332 23.1095 35.5162 23.1178 35.5009 23.1788C35.4855 23.2395 35.4684 23.248 35.3616 23.248C35.25 23.248 35.2397 23.2539 35.2397 23.3172C35.2397 23.3818 35.2303 23.3864 35.1008 23.3864C34.9818 23.3864 34.962 23.3942 34.962 23.4403C34.962 23.4838 34.9394 23.4957 34.8439 23.5026C34.7468 23.5097 34.7244 23.5219 34.7173 23.572C34.7099 23.6233 34.6882 23.6341 34.5785 23.6412C34.4677 23.6483 34.4471 23.6589 34.4395 23.7118C34.433 23.7575 34.4121 23.7741 34.3613 23.7741C34.2699 23.7741 34.1847 23.8214 34.1847 23.872C34.1847 23.897 34.1577 23.9127 34.1152 23.9127C34.0655 23.9127 34.0458 23.9276 34.0458 23.9655C34.0458 24.0077 34.0184 24.0219 33.907 24.0372C33.7997 24.052 33.7682 24.0674 33.7682 24.1055C33.7682 24.1418 33.7382 24.1597 33.6543 24.1729C33.5735 24.1858 33.5363 24.2069 33.5261 24.2458C33.5182 24.2757 33.4884 24.3004 33.4596 24.3004C33.3003 24.3004 33.4771 24.5306 33.7063 24.6218C33.7633 24.6444 33.9222 24.7176 34.0596 24.7842C34.4533 24.9753 34.8069 25.0258 34.8396 24.8958C34.8548 24.835 34.872 24.8264 34.9789 24.8264C35.0905 24.8264 35.1008 24.8206 35.1008 24.7572C35.1008 24.6899 35.1063 24.688 35.2952 24.688C35.471 24.688 35.4894 24.6828 35.4894 24.6327C35.4894 24.5882 35.5079 24.5773 35.5831 24.5773C35.7474 24.5773 35.8569 24.5441 35.8712 24.4899C35.8819 24.449 35.9117 24.4387 36.0201 24.4387C36.1456 24.4387 36.1558 24.4337 36.1558 24.3708C36.1558 24.3055 36.164 24.3024 36.3571 24.2947C36.5417 24.2872 36.5591 24.2814 36.5672 24.2242C36.5757 24.1649 36.588 24.1618 36.8234 24.1618C37.0643 24.1618 37.0713 24.1601 37.0883 24.0926C37.1047 24.0272 37.1161 24.0234 37.2971 24.0234C37.4699 24.0234 37.4884 24.018 37.4884 23.968C37.4884 23.9162 37.5068 23.9127 37.7775 23.9127C38.1039 23.9127 38.1547 23.901 38.1547 23.8267C38.1547 23.7782 38.1791 23.7741 38.4721 23.7741C38.8062 23.7741 38.932 23.7479 38.932 23.678C38.932 23.6418 38.9979 23.6357 39.3883 23.6357C39.854 23.6357 39.987 23.6143 39.987 23.5395C39.987 23.5024 40.1154 23.4972 41.0446 23.4972C42.0788 23.4972 42.1024 23.496 42.1167 23.4418C42.1305 23.3893 42.1545 23.3864 42.5981 23.3864C43.0405 23.3864 43.0658 23.3894 43.0825 23.4418C43.0997 23.4961 43.1245 23.4972 44.2213 23.4972H45.3427L45.4121 23.5665L45.4814 23.6357H46.0666C46.5986 23.6357 46.6533 23.6401 46.6696 23.6842C46.7003 23.7671 46.7353 23.7733 47.1706 23.7737C47.5672 23.7741 47.594 23.7775 47.594 23.8265C47.594 23.8858 47.6869 23.9194 47.7822 23.8945L47.8438 23.8785V22.4002V20.9219H45.7894C44.4383 20.9219 43.7349 20.9314 43.7349 20.9495ZM31.6582 25.5604C31.6582 25.6158 31.6443 25.6296 31.5888 25.6296C31.5333 25.6296 31.5194 25.6434 31.5194 25.6988C31.5194 25.7542 31.5055 25.768 31.4499 25.768C31.3998 25.768 31.3806 25.7829 31.3806 25.8217C31.3806 25.8641 31.3544 25.8793 31.2557 25.8941C31.1583 25.9087 31.1308 25.9244 31.1308 25.965C31.1308 26.0134 31.1055 26.0173 30.7976 26.0173C30.5792 26.0173 30.4645 26.0274 30.4645 26.0469C30.4645 26.1191 30.3804 26.1557 30.2147 26.1557C30.0326 26.1557 29.9369 26.189 29.9369 26.2521C29.9369 26.279 29.896 26.2938 29.8051 26.2996C29.6925 26.3068 29.6719 26.3172 29.6643 26.3703C29.6567 26.4242 29.6389 26.4326 29.5325 26.4326C29.4279 26.4326 29.4095 26.441 29.4095 26.488C29.4095 26.5286 29.3909 26.5434 29.34 26.5434C29.285 26.5434 29.2706 26.5573 29.2706 26.6109C29.2706 26.6482 29.2581 26.6864 29.2429 26.6957C29.1673 26.7423 29.2372 26.9332 29.415 27.1666C29.7912 27.6601 30.3207 28.1969 30.6171 28.3854C30.7498 28.4698 31.0204 28.5927 31.0708 28.5915C31.173 28.589 31.4622 28.2577 31.4634 28.1417C31.4636 28.1145 31.4822 28.0642 31.5046 28.0301C31.5691 27.9321 31.6841 27.5751 31.7293 27.3327C31.7521 27.2108 31.7824 27.0737 31.7968 27.028C31.8888 26.7353 31.9231 25.7685 31.8457 25.6503C31.8189 25.6095 31.7971 25.557 31.7971 25.5336C31.7971 25.5068 31.7716 25.4911 31.7276 25.4911C31.672 25.4911 31.6582 25.505 31.6582 25.5604ZM33.0592 26.4918C33.0332 26.543 32.9958 26.6036 32.9761 26.6265C32.9566 26.6494 32.9265 26.7205 32.9093 26.7845C32.8922 26.8486 32.8664 26.9083 32.8521 26.9173C32.8375 26.9262 32.8117 26.9859 32.7948 27.05C32.7777 27.114 32.7477 27.2039 32.7281 27.2496C32.6454 27.4428 32.5414 27.818 32.5171 28.0114C32.5028 28.1258 32.4786 28.2627 32.4632 28.3158C32.3717 28.6342 32.4586 28.9527 32.6556 29.0209C32.8438 29.0859 33.3413 29.057 33.6154 28.9649C33.6765 28.9444 33.812 28.9083 33.9164 28.8846C34.0209 28.8609 34.1329 28.823 34.1655 28.8002C34.1981 28.7775 34.2501 28.7586 34.2811 28.7585C34.312 28.7584 34.3997 28.7276 34.4761 28.6901C34.5524 28.6527 34.626 28.6217 34.6397 28.6212C34.6961 28.6193 35.0731 28.4109 35.0731 28.3818C35.0731 28.3644 35.0918 28.3346 35.1146 28.3157C35.1612 28.2772 35.1718 28.1495 35.1286 28.1495C35.1133 28.1495 35.1008 28.1132 35.1008 28.0687C35.1008 27.952 35.0743 27.9004 35.0146 27.9004C34.9764 27.9004 34.962 27.8805 34.962 27.8285C34.962 27.78 34.944 27.752 34.9065 27.7422C34.876 27.7342 34.851 27.7073 34.851 27.6821C34.851 27.657 34.8227 27.6243 34.7884 27.6092C34.743 27.5893 34.7221 27.5517 34.7121 27.4711C34.7011 27.3835 34.6855 27.3586 34.6374 27.3517C34.5995 27.3464 34.5735 27.3203 34.5681 27.2825C34.5626 27.2441 34.5364 27.2187 34.4969 27.213C34.4567 27.2073 34.4345 27.1851 34.4345 27.1507C34.4345 27.1121 34.4152 27.0972 34.3651 27.0972C34.3101 27.0972 34.2957 27.0833 34.2957 27.0299C34.2957 26.9813 34.2783 26.9602 34.2331 26.9538C34.1931 26.9481 34.1676 26.9227 34.1619 26.8826C34.1541 26.8287 34.1363 26.8203 34.03 26.8203C33.9172 26.8203 33.907 26.8145 33.907 26.7511C33.907 26.6963 33.8929 26.6819 33.8396 26.6819C33.7907 26.6819 33.7695 26.6647 33.7631 26.6196C33.7558 26.5677 33.7344 26.5558 33.6363 26.5488C33.5409 26.5419 33.5184 26.53 33.5184 26.4865C33.5184 26.4428 33.4987 26.4326 33.4142 26.4323C33.3569 26.4322 33.2644 26.4245 33.2084 26.4153C33.1139 26.3997 33.1032 26.4052 33.0592 26.4918ZM28.0769 27.7444C28.0769 27.8627 28.0714 27.8726 28.0075 27.8726C27.952 27.8726 27.938 27.8864 27.938 27.9418C27.938 27.9842 27.9222 28.0111 27.8974 28.0111C27.8435 28.0111 27.7992 28.0978 27.7992 28.2032C27.7992 28.2678 27.7868 28.2881 27.747 28.2881C27.6853 28.2881 27.6613 28.3596 27.6608 28.5441C27.6605 28.6571 27.6526 28.6758 27.6048 28.6758C27.5546 28.6758 27.5493 28.6942 27.5493 28.869C27.5493 29.0522 27.5456 29.0633 27.4799 29.0797L27.4106 29.0972V29.631C27.4106 30.3472 27.4326 30.3697 28.0402 30.273C28.1901 30.249 28.3788 30.2214 28.4593 30.2115C28.5398 30.2015 28.6711 30.1749 28.7508 30.1525C28.8306 30.1298 28.9646 30.0946 29.0485 30.0742C29.7957 29.8915 30.2448 29.5514 30.0903 29.285C30.0682 29.2469 30.0345 29.1845 30.0155 29.1465C29.9964 29.1084 29.9522 29.0399 29.9174 28.9941C29.8825 28.9485 29.8257 28.8743 29.7914 28.8292C29.6688 28.669 29.1974 28.2117 28.9603 28.0229C28.4882 27.6473 28.4843 27.6451 28.2705 27.6298L28.0769 27.616V27.7444ZM35.1424 29.6338C34.7444 29.6697 34.4351 29.7124 34.347 29.7434C34.2908 29.7631 34.1844 29.7881 34.1105 29.7989C34.0368 29.8096 33.9327 29.8402 33.8792 29.8667C33.8257 29.8934 33.7383 29.9242 33.6849 29.9351C33.3825 29.9974 32.906 30.3304 32.9088 30.4776C32.9102 30.5438 33.0097 30.7348 33.1689 30.9761C33.356 31.2595 34.1874 32.0121 34.5818 32.2549C34.7221 32.3415 34.962 32.3645 34.962 32.2915C34.962 32.2697 34.9901 32.2479 35.0245 32.243C35.0761 32.2357 35.0883 32.2143 35.0953 32.1191C35.1023 32.0235 35.1152 32.0012 35.1716 31.9871C35.2307 31.9723 35.2397 31.9543 35.2397 31.8492C35.2397 31.755 35.2509 31.7254 35.291 31.7149C35.3449 31.7008 35.3784 31.5915 35.3784 31.4296C35.3784 31.3623 35.3932 31.3333 35.4339 31.3203C35.4783 31.3063 35.4894 31.2784 35.4894 31.1819C35.4894 31.0778 35.498 31.0599 35.5519 31.0523L35.6143 31.0434L35.6218 30.3867L35.6293 29.73L35.559 29.6841C35.4851 29.6357 35.3291 29.617 35.1424 29.6338ZM29.465 30.9746C29.2741 31.0163 29.0804 31.0639 29.0346 31.0805C28.9889 31.097 28.8951 31.1287 28.8264 31.151C28.6033 31.2235 28.3708 31.309 28.2573 31.3604C28.1962 31.388 28.1275 31.4186 28.1046 31.4283C27.8777 31.525 27.5945 31.8603 27.7398 31.8603C27.7861 31.8603 27.7975 31.8812 27.8045 31.978C27.8116 32.0759 27.8237 32.0972 27.8755 32.1046C27.9207 32.111 27.938 32.132 27.938 32.1807C27.938 32.2341 27.9524 32.248 28.0075 32.248C28.0714 32.248 28.0769 32.258 28.0769 32.3752C28.0769 32.4771 28.0875 32.5052 28.1298 32.5163C28.1589 32.5239 28.189 32.5538 28.1966 32.5829C28.2046 32.6136 28.2348 32.6357 28.2686 32.6357C28.312 32.6357 28.3267 32.6532 28.3267 32.7049C28.3267 32.7603 28.3406 32.7742 28.3962 32.7742C28.4517 32.7742 28.4655 32.7881 28.4655 32.8434C28.4655 32.8988 28.4794 32.9126 28.5349 32.9126C28.5904 32.9126 28.6043 32.9264 28.6043 32.9818C28.6043 33.0372 28.6183 33.0512 28.6738 33.0512C28.7293 33.0512 28.7432 33.065 28.7432 33.1204C28.7432 33.1711 28.758 33.1896 28.7987 33.1896C28.8356 33.1896 28.8542 33.208 28.8542 33.2449C28.8542 33.2856 28.8727 33.3003 28.9236 33.3003C28.9791 33.3003 28.993 33.3141 28.993 33.3695C28.993 33.4245 29.007 33.4389 29.0606 33.4389C29.1024 33.4389 29.1344 33.4588 29.1447 33.4911C29.1617 33.5445 29.2358 33.5762 29.345 33.5768C29.3865 33.5771 29.4084 33.5969 29.4145 33.6395C29.4369 33.7976 29.821 33.6831 29.8658 33.5052C29.8762 33.4635 29.9091 33.3986 29.9387 33.3611C29.9683 33.3236 29.9924 33.2742 29.9924 33.2514C29.9924 33.2286 30.0163 33.1711 30.0455 33.1236C30.0746 33.0761 30.1131 32.9812 30.131 32.9126C30.149 32.8441 30.1796 32.763 30.1992 32.7324C30.2189 32.7018 30.2494 32.6092 30.2672 32.5266C30.2849 32.444 30.3109 32.3626 30.325 32.3457C30.3677 32.2945 30.4719 31.6969 30.4847 31.4311C30.5097 30.9093 30.2646 30.7996 29.465 30.9746ZM31.7645 31.5372C31.6396 31.6619 31.4639 31.9673 31.4639 32.0598C31.4639 32.089 31.4339 32.1776 31.3973 32.2567C31.3607 32.3356 31.3221 32.4627 31.3113 32.5388C31.3006 32.615 31.2796 32.7002 31.2645 32.7281C31.2338 32.7853 31.1347 33.4806 31.1115 33.8018C31.0891 34.1123 31.0659 34.1035 31.9004 34.1035H32.5744V34.0341C32.5744 33.9666 32.5793 33.9649 32.7783 33.9649C32.947 33.9649 32.9909 33.9553 33.0325 33.9096C33.06 33.8791 33.1112 33.8542 33.146 33.8542C33.2452 33.8542 33.3518 33.8043 33.3518 33.7579C33.3518 33.7319 33.3772 33.7158 33.4179 33.7158C33.458 33.7158 33.5022 33.6883 33.5296 33.6465C33.5637 33.5946 33.5993 33.5773 33.6716 33.5773C33.755 33.5773 33.7682 33.5682 33.7682 33.511C33.7682 33.4746 33.7885 33.437 33.8134 33.4275C33.872 33.405 33.8514 33.1806 33.7845 33.1118C33.7592 33.0861 33.689 32.9894 33.6282 32.8969C33.5675 32.8046 33.4749 32.6824 33.4227 32.6254C33.3704 32.5685 33.3237 32.5114 33.3188 32.4987C33.2828 32.4027 32.6226 31.7807 32.3815 31.6155C32.0642 31.3983 31.9218 31.3801 31.7645 31.5372ZM24.9188 37.1678C24.8997 37.1755 24.8841 37.2057 24.8841 37.235C24.8841 37.2802 24.8636 37.288 24.744 37.288C24.6302 37.288 24.5918 37.301 24.5395 37.3572C24.4833 37.4178 24.4518 37.4264 24.2903 37.4264C24.1187 37.4264 24.1035 37.4314 24.079 37.4958C24.0569 37.5537 24.0345 37.565 23.9408 37.565C23.8488 37.565 23.8291 37.5744 23.8291 37.6189C23.8291 37.6634 23.8066 37.6741 23.6973 37.6812C23.5847 37.6883 23.5641 37.6988 23.5565 37.7518C23.5489 37.8057 23.5311 37.8141 23.4247 37.8141C23.312 37.8141 23.3017 37.82 23.3017 37.8835C23.3017 37.9388 23.2878 37.9527 23.2323 37.9527C23.1768 37.9527 23.1628 37.9665 23.1628 38.0219C23.1628 38.0772 23.149 38.0911 23.0934 38.0911C23.0433 38.0911 23.0241 38.106 23.0241 38.1445C23.0241 38.1789 23.0018 38.2011 22.9616 38.2068C22.9221 38.2125 22.8959 38.238 22.8905 38.2763C22.885 38.3141 22.859 38.3402 22.8211 38.3455C22.7827 38.3511 22.757 38.3771 22.7514 38.4165C22.7457 38.4565 22.7233 38.4787 22.689 38.4787C22.6503 38.4787 22.6354 38.4981 22.6354 38.5481C22.6354 38.6035 22.6215 38.6173 22.566 38.6173C22.5105 38.6173 22.4965 38.6311 22.4965 38.6865C22.4965 38.7419 22.4826 38.7557 22.4271 38.7557C22.3636 38.7557 22.3577 38.766 22.3577 38.8784C22.3577 38.9845 22.3493 39.0023 22.2953 39.01C22.2419 39.0174 22.2316 39.0381 22.2243 39.1503C22.2175 39.2562 22.206 39.2819 22.1651 39.2819C22.1054 39.2819 22.0811 39.355 22.0805 39.5362C22.0803 39.6413 22.0697 39.6692 22.0246 39.6834C21.9706 39.7005 21.9691 39.7252 21.9691 40.5973C21.9691 41.4693 21.9706 41.494 22.0246 41.5111C22.0697 41.5253 22.0803 41.5532 22.0805 41.6583C22.0811 41.8395 22.1054 41.9126 22.1651 41.9126C22.206 41.9126 22.2175 41.9383 22.2243 42.0442C22.2316 42.1565 22.2419 42.1771 22.2953 42.1845C22.341 42.191 22.3577 42.2119 22.3577 42.2625C22.3577 42.3537 22.4051 42.4388 22.4559 42.4388C22.4807 42.4388 22.4965 42.4656 22.4965 42.508C22.4965 42.5634 22.5105 42.5772 22.566 42.5772C22.6215 42.5772 22.6354 42.591 22.6354 42.6464C22.6354 42.6964 22.6503 42.7158 22.689 42.7158C22.7233 42.7158 22.7457 42.738 22.7514 42.7781C22.7571 42.8181 22.7827 42.8435 22.8227 42.8491C22.8614 42.8547 22.8852 42.8773 22.8852 42.9086C22.8852 42.9683 22.9381 42.9927 23.0679 42.9927C23.1443 42.9927 23.1628 43.0034 23.1628 43.0481C23.1628 43.0887 23.1814 43.1035 23.2323 43.1035C23.2878 43.1035 23.3017 43.1173 23.3017 43.1727C23.3017 43.2363 23.3119 43.2418 23.4266 43.2418C23.5413 43.2418 23.5515 43.2475 23.5515 43.311C23.5515 43.3758 23.5608 43.3804 23.6904 43.3804C23.8199 43.3804 23.8291 43.385 23.8291 43.4496C23.8291 43.5132 23.8393 43.5188 23.9541 43.5188C24.0475 43.5188 24.079 43.5295 24.079 43.561C24.079 43.6182 24.1927 43.6573 24.3584 43.6573C24.4769 43.6573 24.4954 43.6648 24.4954 43.7127C24.4954 43.7627 24.514 43.7681 24.6886 43.7681C24.8575 43.7681 24.8903 43.7767 24.951 43.8373C25.0121 43.8982 25.0443 43.9065 25.2186 43.9065C25.3903 43.9065 25.4187 43.9135 25.4307 43.9593C25.4482 44.0262 25.5165 44.0441 25.7543 44.0446C25.9172 44.0449 25.9463 44.0524 25.9581 44.0974C25.9753 44.1632 26.0729 44.1834 26.373 44.1834C26.5869 44.1834 26.6054 44.1879 26.6054 44.2388C26.6054 44.2902 26.624 44.2942 26.8673 44.2942C27.1176 44.2942 27.1294 44.2969 27.138 44.3565C27.1461 44.4136 27.1633 44.4194 27.3481 44.4269C27.541 44.4347 27.5493 44.4378 27.5493 44.5031C27.5493 44.5647 27.5606 44.5711 27.6677 44.5711C27.7638 44.5711 27.7912 44.5829 27.8135 44.6334C27.8347 44.6816 27.8678 44.6977 27.9589 44.7042C28.0632 44.7118 28.0769 44.7206 28.0769 44.7804C28.0769 44.8281 28.0922 44.848 28.1291 44.848C28.1581 44.848 28.1879 44.8728 28.1959 44.9034C28.2043 44.9354 28.2338 44.9588 28.2656 44.9588C28.3153 44.9588 28.3218 44.9811 28.331 45.183C28.3397 45.3749 28.3503 45.4146 28.4034 45.4575C28.4932 45.5301 28.4893 45.6896 28.3962 45.7506C28.3332 45.7917 28.3267 45.8138 28.3267 45.9866C28.3267 46.1617 28.3219 46.1772 28.2686 46.1772C28.2338 46.1772 28.2046 46.1995 28.1959 46.2326C28.1879 46.2632 28.1581 46.288 28.1291 46.288C28.0918 46.288 28.0769 46.3079 28.0769 46.3572C28.0769 46.4126 28.063 46.4265 28.0075 46.4265C27.952 46.4265 27.938 46.4404 27.938 46.4957C27.938 46.5593 27.9278 46.5649 27.8136 46.5649C27.7041 46.5649 27.6871 46.5732 27.6718 46.6341C27.6566 46.6949 27.6393 46.7035 27.5325 46.7035C27.4326 46.7035 27.4106 46.7127 27.4106 46.7544C27.4106 46.8015 27.3708 46.8068 26.8894 46.8228C26.1016 46.849 25.5227 46.8202 25.5227 46.7545C25.5227 46.7097 25.4987 46.7035 25.3283 46.7035C25.1396 46.7035 25.134 46.7014 25.134 46.6341C25.134 46.5706 25.1238 46.5649 25.0091 46.5649C24.8943 46.5649 24.8841 46.5593 24.8841 46.4957C24.8841 46.4409 24.8701 46.4265 24.8166 46.4265C24.7679 46.4265 24.7467 46.4092 24.7403 46.3641C24.7346 46.3242 24.7091 46.2987 24.669 46.293C24.6289 46.2873 24.6065 46.2651 24.6065 46.2307C24.6065 46.1921 24.5872 46.1772 24.5371 46.1772C24.4816 46.1772 24.4677 46.1634 24.4677 46.1081C24.4677 46.0579 24.4528 46.0389 24.4137 46.0389C24.369 46.0389 24.3583 46.0162 24.3512 45.9072C24.344 45.795 24.3336 45.7744 24.2804 45.7668C24.2197 45.7583 24.2178 45.7487 24.2178 45.4421C24.2178 45.0525 24.3789 45.0939 22.8992 45.1034L21.7053 45.1111L21.6967 45.3742C21.6851 45.7344 21.7072 45.8727 21.7764 45.8727C21.8261 45.8727 21.8303 45.894 21.8303 46.1496V46.4265H21.8997C21.967 46.4265 21.9691 46.432 21.9691 46.6203C21.9691 46.7957 21.9744 46.8142 22.0246 46.8142C22.0665 46.8142 22.0803 46.8328 22.0805 46.8903C22.0812 47.0208 22.1113 47.0912 22.1666 47.0912C22.206 47.0912 22.2189 47.1112 22.2189 47.1719C22.2189 47.2887 22.2453 47.3403 22.3052 47.3403C22.3427 47.3403 22.3577 47.3601 22.3577 47.4095C22.3577 47.4649 22.3716 47.4789 22.4271 47.4789C22.4826 47.4789 22.4965 47.4927 22.4965 47.5481C22.4965 47.6034 22.5105 47.6173 22.566 47.6173C22.6215 47.6173 22.6354 47.6311 22.6354 47.6865C22.6354 47.7364 22.6503 47.7558 22.689 47.7558C22.7233 47.7558 22.7457 47.778 22.7514 47.8181C22.7571 47.858 22.7827 47.8835 22.8227 47.8892C22.8629 47.8949 22.8852 47.9172 22.8852 47.9515C22.8852 47.9901 22.9046 48.0049 22.9547 48.0049C23.0102 48.0049 23.0241 48.0188 23.0241 48.0741C23.0241 48.1295 23.0379 48.1433 23.0934 48.1433C23.149 48.1433 23.1628 48.1573 23.1628 48.2127C23.1628 48.2761 23.1731 48.2819 23.2858 48.2819C23.3922 48.2819 23.41 48.2903 23.4178 48.3442C23.4252 48.3972 23.446 48.4077 23.5568 48.4149C23.6665 48.4219 23.6882 48.4327 23.6955 48.484C23.7027 48.5342 23.725 48.5465 23.8222 48.5535C23.8871 48.5581 23.9402 48.5737 23.9402 48.588C23.9402 48.6042 24.8777 48.6142 26.3973 48.6142C28.0167 48.6142 28.8542 48.6047 28.8542 48.5864C28.8542 48.5713 28.8969 48.5588 28.9491 48.5588C29.079 48.5588 29.1319 48.5344 29.1319 48.4743C29.1319 48.4344 29.157 48.4218 29.2498 48.415C29.3478 48.4079 29.3693 48.396 29.3766 48.3442C29.3831 48.2991 29.4042 48.2819 29.4531 48.2819C29.506 48.2819 29.5205 48.2674 29.5205 48.2143C29.5205 48.1562 29.5351 48.1455 29.6247 48.1382C29.7011 48.1318 29.736 48.113 29.7561 48.0672C29.7725 48.0299 29.8079 48.0049 29.8444 48.0049C29.8799 48.0049 29.9125 47.983 29.9221 47.9525C29.9312 47.9237 29.9634 47.8938 29.9934 47.8859C30.025 47.8777 30.048 47.848 30.048 47.8156C30.048 47.7785 30.0691 47.7566 30.1104 47.7508C30.1552 47.7444 30.1754 47.7203 30.1817 47.6657C30.1866 47.6239 30.2064 47.5896 30.2258 47.5896C30.2627 47.5896 30.3256 47.4764 30.3256 47.4102C30.3256 47.3891 30.3537 47.368 30.388 47.3631C30.4328 47.3567 30.4531 47.3326 30.4593 47.278C30.4642 47.2362 30.4847 47.2019 30.5049 47.2019C30.549 47.2019 30.5755 47.1413 30.5755 47.04C30.5755 46.9896 30.5955 46.957 30.638 46.9384C30.6915 46.915 30.7016 46.8867 30.7086 46.7419C30.7158 46.5927 30.7248 46.569 30.7853 46.5415L30.8538 46.5104L30.8465 45.5477L30.8392 44.5849L30.7767 44.5761C30.7193 44.568 30.7143 44.5528 30.7143 44.3862C30.7143 44.2262 30.7063 44.199 30.6449 44.1508C30.5873 44.1057 30.5755 44.0726 30.5755 43.9572C30.5755 43.8415 30.5661 43.8157 30.52 43.8037C30.484 43.7943 30.4645 43.7659 30.4645 43.7233C30.4645 43.6714 30.4497 43.6573 30.395 43.6573C30.3416 43.6573 30.3256 43.6428 30.3252 43.595C30.3245 43.4842 30.2931 43.4103 30.2394 43.3932C30.2105 43.384 30.1868 43.3528 30.1868 43.3236C30.1868 43.2907 30.1614 43.2643 30.12 43.2539C30.0833 43.2447 30.0473 43.2146 30.0401 43.1871C30.0314 43.1537 29.989 43.1307 29.9126 43.1178C29.8252 43.1031 29.7982 43.086 29.7982 43.0456C29.7982 43.008 29.7786 42.9927 29.7307 42.9927C29.6818 42.9927 29.6608 42.9755 29.6543 42.9304C29.6468 42.8772 29.6262 42.8668 29.5136 42.8596C29.3945 42.852 29.3816 42.8445 29.3816 42.7835C29.3816 42.7216 29.3708 42.7158 29.2568 42.7158C29.1633 42.7158 29.1319 42.7051 29.1319 42.6735C29.1319 42.6184 29.0197 42.5772 28.8696 42.5772C28.7729 42.5772 28.7468 42.5665 28.7352 42.5218C28.7223 42.4731 28.6973 42.4665 28.5237 42.4665C28.3321 42.4665 28.3267 42.4646 28.3267 42.3973C28.3267 42.3301 28.321 42.3281 28.1343 42.3281C27.9559 42.3281 27.9412 42.3235 27.933 42.2658C27.9248 42.2085 27.9076 42.2028 27.7228 42.1952C27.5485 42.1882 27.5216 42.1803 27.5216 42.1359C27.5216 42.0656 27.4691 42.0511 27.214 42.0511C27.0175 42.0511 26.9941 42.0456 26.9941 41.9991C26.9941 41.9364 26.8977 41.9126 26.6437 41.9126C26.4851 41.9126 26.4666 41.9068 26.4666 41.8572C26.4666 41.8058 26.4482 41.8018 26.2029 41.8018C26.0579 41.8018 25.9391 41.7903 25.9391 41.7761C25.9391 41.6976 25.8461 41.6634 25.6317 41.6634C25.4154 41.6634 25.4116 41.6622 25.4116 41.5941C25.4116 41.5297 25.4023 41.5249 25.2743 41.5249C25.1662 41.5249 25.1209 41.5102 25.0619 41.4557C25.0208 41.4177 24.9647 41.3865 24.9374 41.3865C24.9102 41.3865 24.8804 41.363 24.8712 41.3341C24.8595 41.2974 24.8176 41.2762 24.7305 41.2632C24.6327 41.2485 24.6065 41.2332 24.6065 41.191C24.6065 41.1521 24.5873 41.1372 24.5371 41.1372C24.4816 41.1372 24.4677 41.1234 24.4677 41.068C24.4677 41.0172 24.4529 40.9988 24.4122 40.9988C24.3588 40.9988 24.3567 40.9803 24.3567 40.528C24.3567 40.0757 24.3588 40.0573 24.4122 40.0573C24.4594 40.0573 24.4677 40.0387 24.4677 39.9327C24.4677 39.8196 24.474 39.808 24.5342 39.808C24.5708 39.808 24.6301 39.7771 24.6661 39.7393C24.7043 39.699 24.763 39.6703 24.8078 39.67C24.8706 39.6696 24.8841 39.6573 24.8841 39.6004C24.8841 39.5331 24.8897 39.5311 25.0785 39.5311C25.2672 39.5311 25.2728 39.5292 25.2728 39.4619V39.3927H26.078H26.883V39.4619C26.883 39.5292 26.8886 39.5311 27.0774 39.5311C27.2661 39.5311 27.2717 39.5331 27.2717 39.6004C27.2717 39.665 27.2809 39.6696 27.4106 39.6696C27.5401 39.6696 27.5493 39.6742 27.5493 39.7388C27.5493 39.7888 27.5642 39.808 27.6029 39.808C27.6374 39.808 27.6597 39.8303 27.6654 39.8703C27.6711 39.9104 27.6966 39.9358 27.7368 39.9415C27.7768 39.9472 27.7992 39.9694 27.7992 40.0038C27.7992 40.0424 27.8185 40.0573 27.8686 40.0573C27.9335 40.0573 27.938 40.0664 27.938 40.197C27.938 40.3085 27.9518 40.3505 28.0064 40.4049C28.0676 40.466 28.0756 40.4996 28.0827 40.7291L28.0907 40.985L29.333 40.9922L30.5755 40.9994V40.6955C30.5755 40.4198 30.5704 40.3888 30.52 40.3618C30.4717 40.3361 30.4645 40.3039 30.4645 40.1139C30.4645 39.8605 30.4498 39.808 30.3795 39.808C30.3355 39.808 30.3269 39.7814 30.3199 39.6211C30.3125 39.4527 30.3058 39.4333 30.2508 39.4256C30.1992 39.4183 30.1883 39.3966 30.1813 39.287C30.1742 39.1765 30.1636 39.156 30.1104 39.1484C30.0674 39.1423 30.048 39.1208 30.048 39.0789C30.048 39.0456 30.0238 39.0032 29.9943 38.9848C29.9631 38.9654 29.9369 38.9132 29.9319 38.8605C29.9251 38.7906 29.9087 38.7675 29.8606 38.7607C29.8154 38.7543 29.7982 38.7333 29.7982 38.6846C29.7982 38.6312 29.7838 38.6173 29.7286 38.6173C29.6731 38.6173 29.6593 38.6035 29.6593 38.5481C29.6593 38.4927 29.6454 38.4787 29.5899 38.4787C29.5344 38.4787 29.5205 38.4649 29.5205 38.4096C29.5205 38.3542 29.5065 38.3404 29.451 38.3404C29.3955 38.3404 29.3816 38.3265 29.3816 38.2712C29.3816 38.2204 29.3669 38.2018 29.3261 38.2018C29.2892 38.2018 29.2706 38.1834 29.2706 38.1464C29.2706 38.1064 29.2521 38.0911 29.2031 38.0911C29.1543 38.0911 29.1332 38.0739 29.1268 38.0288C29.1192 37.9757 29.0986 37.9653 28.986 37.9581C28.867 37.9505 28.8542 37.943 28.8542 37.8818C28.8542 37.8281 28.8398 37.8141 28.7849 37.8141C28.7411 37.8141 28.7153 37.7986 28.7153 37.772C28.7153 37.7165 28.6029 37.6757 28.4498 37.6757C28.3453 37.6757 28.3267 37.6673 28.3267 37.6204C28.3267 37.5757 28.3082 37.565 28.2315 37.565C28.1412 37.565 28.049 37.5081 28.049 37.4522C28.049 37.4381 27.9646 37.4264 27.8613 37.4264C27.6932 37.4264 27.6707 37.4199 27.6461 37.3641C27.6228 37.3111 27.5942 37.3006 27.4513 37.2937C27.3094 37.287 27.2798 37.2764 27.257 37.2245L27.2301 37.1635L26.0918 37.1584C25.4658 37.1559 24.938 37.1599 24.9188 37.1678ZM45.2689 37.5568L45.2064 37.5688V43.0915V48.6142H49.3153H53.424V47.5203V46.4265H50.509H47.594V45.1665V43.9065H50.2452H52.8966V42.8542V41.8018H50.2452H47.594V40.7357V39.6696H50.509H53.424V38.6211V37.5727L53.2784 37.5552C53.1178 37.536 45.3692 37.5375 45.2689 37.5568ZM54.2917 37.5568L54.2292 37.5688V43.0915V48.6142H55.423H56.6168V46.5234V44.4327H58.1403H59.6639L59.7036 44.4923C59.7341 44.5382 59.7792 44.5548 59.8997 44.5647C60.0335 44.5758 60.0576 44.5864 60.0648 44.6368C60.07 44.6729 60.0967 44.6991 60.1339 44.7043C60.1718 44.7098 60.198 44.7359 60.2034 44.7735C60.2089 44.812 60.2349 44.8374 60.2744 44.843C60.3286 44.8507 60.337 44.8685 60.337 44.9746C60.337 45.087 60.3427 45.0973 60.4064 45.0973H60.4758V46.8557V48.6142H61.6973H62.9189V46.5927C62.9189 45.2635 62.9094 44.5711 62.8912 44.5711C62.8759 44.5711 62.8634 44.5036 62.8634 44.421C62.8634 44.2363 62.8445 44.1834 62.7786 44.1834C62.7374 44.1834 62.726 44.1581 62.7192 44.0519C62.7119 43.9396 62.7015 43.9191 62.6482 43.9115C62.603 43.9051 62.5857 43.884 62.5857 43.8354C62.5857 43.782 62.5713 43.7681 62.5164 43.7681C62.4655 43.7681 62.447 43.7533 62.447 43.7127C62.447 43.6721 62.4284 43.6573 62.3775 43.6573C62.322 43.6573 62.3081 43.6434 62.3081 43.588C62.3081 43.5381 62.2932 43.5188 62.2545 43.5188C62.2201 43.5188 62.1977 43.4966 62.192 43.4565C62.1844 43.4033 62.1638 43.393 62.0513 43.3858C61.8571 43.3733 61.848 43.2418 62.0413 43.2418C62.1483 43.2418 62.1654 43.2333 62.1808 43.1727C62.1919 43.128 62.2176 43.1035 62.2531 43.1035C62.2896 43.1035 62.3081 43.0848 62.3081 43.0481C62.3081 43.0074 62.3266 42.9927 62.3775 42.9927C62.433 42.9927 62.447 42.9787 62.447 42.9234C62.447 42.868 62.4608 42.8542 62.5164 42.8542C62.5719 42.8542 62.5857 42.8403 62.5857 42.785C62.5857 42.7296 62.5996 42.7158 62.6551 42.7158C62.7106 42.7158 62.7246 42.7018 62.7246 42.6464C62.7246 42.5965 62.7394 42.5772 62.7784 42.5772C62.8209 42.5772 62.8361 42.5511 62.8509 42.4526C62.8612 42.3841 62.8807 42.3281 62.8943 42.3281C62.9083 42.3281 62.9189 41.6718 62.9189 40.8049C62.9189 39.808 62.9092 39.2819 62.8912 39.2819C62.8759 39.2819 62.8634 39.2392 62.8634 39.1872C62.8634 39.0578 62.8389 39.005 62.7791 39.005C62.7477 39.005 62.725 38.9813 62.7196 38.9427C62.7139 38.9031 62.6884 38.8771 62.6497 38.8717C62.5997 38.8645 62.5872 38.8422 62.5803 38.747C62.5732 38.651 62.5612 38.6296 62.5094 38.6223C62.4642 38.6158 62.447 38.5948 62.447 38.5461C62.447 38.4932 62.4325 38.4787 62.3794 38.4787C62.3308 38.4787 62.3095 38.4616 62.3031 38.4167C62.2979 38.3808 62.2709 38.3505 62.2387 38.3446C62.2082 38.339 62.1604 38.3103 62.1324 38.2809C62.1046 38.2514 62.0453 38.2201 62.0006 38.2112C61.9455 38.2002 61.9194 38.1783 61.9194 38.1431C61.9194 38.1065 61.8995 38.0911 61.852 38.0911C61.8031 38.0911 61.782 38.0739 61.7757 38.0288C61.7683 37.9773 61.7467 37.965 61.6514 37.9581C61.5555 37.9512 61.5332 37.9383 61.5189 37.882C61.5029 37.8182 61.4906 37.8141 61.3081 37.8141C61.1199 37.8141 61.1144 37.8122 61.1144 37.7449C61.1144 37.6776 61.1088 37.6757 60.92 37.6757C60.7496 37.6757 60.7257 37.6694 60.7257 37.6247C60.7257 37.5784 60.69 37.5719 60.3465 37.5554C59.936 37.5357 54.3944 37.5371 54.2917 37.5568ZM8.61526 43.0892V48.6142H9.90633H11.1973L11.1903 43.0965L11.1833 37.5788L9.89927 37.5716L8.61526 37.5644V43.0892ZM12.0023 43.0895V48.6142H13.196H14.3899V45.1981V41.7818L14.4593 41.7951C14.5208 41.8069 14.5287 41.8223 14.5287 41.9297C14.5287 42.0407 14.5346 42.0511 14.5982 42.0511C14.6563 42.0511 14.6675 42.0641 14.6675 42.1318C14.6675 42.2394 14.6931 42.3003 14.738 42.3003C14.7582 42.3003 14.7787 42.3283 14.7836 42.3626C14.7885 42.3969 14.8205 42.4372 14.8549 42.4522C14.8974 42.4708 14.9173 42.5034 14.9173 42.5538C14.9173 42.6643 14.9448 42.7158 15.0037 42.7158C15.0411 42.7158 15.0562 42.7355 15.0562 42.785C15.0562 42.8403 15.0701 42.8542 15.1256 42.8542C15.1894 42.8542 15.195 42.8643 15.195 42.9787C15.195 43.0933 15.2007 43.1035 15.2645 43.1035C15.32 43.1035 15.3338 43.1173 15.3338 43.1727C15.3338 43.2228 15.3488 43.2418 15.3879 43.2418C15.4325 43.2418 15.4433 43.2645 15.4503 43.3735C15.4575 43.4856 15.4678 43.5062 15.5212 43.5138C15.5593 43.5192 15.5836 43.5419 15.5836 43.5721C15.5836 43.5992 15.6149 43.6551 15.653 43.6962C15.6913 43.7372 15.7225 43.8014 15.7225 43.8386C15.7225 43.8925 15.7368 43.9065 15.7919 43.9065C15.8557 43.9065 15.8613 43.9166 15.8613 44.0311C15.8613 44.1244 15.872 44.1558 15.9036 44.1558C15.927 44.1558 15.9578 44.1869 15.9723 44.225C15.9882 44.2664 16.0206 44.2942 16.0534 44.2942C16.099 44.2942 16.1096 44.3162 16.1166 44.4258C16.1238 44.5379 16.1341 44.5585 16.1875 44.5661C16.2327 44.5726 16.2499 44.5936 16.2499 44.6423C16.2499 44.6955 16.2643 44.7096 16.3193 44.7096C16.3831 44.7096 16.3888 44.7198 16.3888 44.8342C16.3888 44.9486 16.3944 44.9588 16.4582 44.9588C16.5137 44.9588 16.5276 44.9726 16.5276 45.028C16.5276 45.0781 16.5425 45.0973 16.5816 45.0973C16.6263 45.0973 16.637 45.1198 16.6441 45.2288C16.6513 45.3411 16.6617 45.3616 16.7151 45.3692C16.7631 45.376 16.7775 45.3962 16.7775 45.457C16.7775 45.5718 16.8041 45.6234 16.8637 45.6234C16.9013 45.6234 16.9163 45.6432 16.9163 45.6926C16.9163 45.748 16.9301 45.7619 16.9856 45.7619C17.0497 45.7619 17.0551 45.7718 17.0551 45.8891C17.0551 45.9923 17.0655 46.0189 17.1097 46.0306C17.1397 46.0383 17.1718 46.0684 17.181 46.0972C17.1901 46.1259 17.2212 46.1496 17.2498 46.1496C17.2923 46.1496 17.3034 46.1739 17.3104 46.2811C17.3174 46.3909 17.3286 46.4141 17.378 46.421C17.4234 46.4275 17.4412 46.4554 17.4551 46.5415C17.4678 46.6209 17.4892 46.6578 17.5278 46.6679C17.563 46.6771 17.5826 46.7058 17.5826 46.7482C17.5826 46.8002 17.5974 46.8142 17.6519 46.8142C17.716 46.8142 17.7214 46.8241 17.7214 46.9414C17.7214 47.044 17.7318 47.0713 17.7753 47.0826C17.8051 47.0904 17.8332 47.1235 17.8378 47.1563C17.8431 47.193 17.8697 47.219 17.9073 47.2244C17.9573 47.2315 17.9697 47.2538 17.9767 47.349C17.9837 47.445 17.9958 47.4664 18.0477 47.4739C18.0929 47.4802 18.1101 47.5012 18.1101 47.55C18.1101 47.6029 18.1245 47.6173 18.178 47.6173C18.2392 47.6173 18.2467 47.63 18.2543 47.7487C18.2615 47.861 18.2719 47.8816 18.3253 47.8892C18.3761 47.8963 18.3877 47.9156 18.3877 47.9921C18.3877 48.0565 18.4044 48.095 18.4412 48.1146C18.4707 48.1305 18.4989 48.1714 18.5037 48.2056C18.5094 48.2452 18.5349 48.2712 18.5736 48.2767C18.6236 48.2838 18.636 48.3061 18.643 48.4013C18.65 48.4973 18.6621 48.5187 18.714 48.5262C18.7483 48.531 18.7764 48.5528 18.7764 48.5745C18.7764 48.6084 18.9533 48.6142 19.9703 48.6142H21.1642L21.1571 43.0965L21.15 37.5788L19.9632 37.5716L18.7764 37.5643L18.7747 40.8669C18.7736 42.8653 18.763 44.1449 18.7478 44.1073C18.7339 44.073 18.7035 44.045 18.68 44.045C18.6533 44.045 18.6375 44.0194 18.6375 43.9757C18.6375 43.9203 18.6237 43.9065 18.5682 43.9065C18.5044 43.9065 18.4988 43.8963 18.4988 43.7819C18.4988 43.6786 18.4898 43.6573 18.4468 43.6573C18.4077 43.6573 18.3905 43.6301 18.3772 43.5473C18.3664 43.4802 18.3389 43.4264 18.3062 43.409C18.2768 43.3932 18.2487 43.3524 18.2438 43.3181C18.2383 43.2785 18.2128 43.2525 18.1741 43.2471C18.1241 43.24 18.1116 43.2176 18.1047 43.1224C18.0976 43.0264 18.0854 43.005 18.0337 42.9977C17.9885 42.9912 17.9712 42.9702 17.9712 42.9215C17.9712 42.8681 17.9568 42.8542 17.9019 42.8542C17.8379 42.8542 17.8325 42.8441 17.8325 42.727C17.8325 42.6241 17.822 42.597 17.7782 42.5856C17.7388 42.5753 17.7189 42.5381 17.7057 42.4498C17.6914 42.3554 17.6756 42.3281 17.635 42.3281C17.5976 42.3281 17.5826 42.3082 17.5826 42.2587C17.5826 42.2033 17.5687 42.1895 17.5132 42.1895C17.4495 42.1895 17.4438 42.1794 17.4438 42.0655C17.4438 41.9562 17.4355 41.9393 17.3743 41.924C17.3302 41.913 17.3049 41.8872 17.3049 41.853C17.3049 41.8235 17.2737 41.7683 17.2356 41.7301C17.1974 41.692 17.1662 41.6303 17.1662 41.5929C17.1662 41.5435 17.1511 41.5249 17.1107 41.5249C17.0678 41.5249 17.0551 41.5065 17.0551 41.4441C17.0551 41.3273 17.0287 41.2758 16.9688 41.2758C16.9313 41.2758 16.9163 41.256 16.9163 41.2066C16.9163 41.1512 16.9024 41.1372 16.8469 41.1372C16.7821 41.1372 16.7775 41.128 16.7775 40.9988C16.7775 40.8695 16.7729 40.8603 16.708 40.8603C16.6453 40.8603 16.6386 40.8495 16.6386 40.747C16.6386 40.658 16.6271 40.6306 16.5847 40.6195C16.555 40.6118 16.5269 40.5786 16.5223 40.546C16.5168 40.5088 16.4904 40.4832 16.4513 40.4776C16.4006 40.4704 16.3888 40.4511 16.3888 40.3761C16.3888 40.2485 16.3641 40.1957 16.3045 40.1957C16.2732 40.1957 16.2505 40.172 16.2449 40.1334C16.2392 40.0933 16.2138 40.068 16.1737 40.0623C16.1196 40.0546 16.1112 40.0368 16.1112 39.9307C16.1112 39.8183 16.1054 39.808 16.0417 39.808C15.9782 39.808 15.9723 39.7977 15.9723 39.6853C15.9723 39.5869 15.9613 39.5591 15.9168 39.545C15.8862 39.5353 15.8613 39.5047 15.8613 39.4769C15.8613 39.4464 15.8344 39.4196 15.7935 39.4093C15.7369 39.3952 15.7243 39.373 15.7171 39.2749C15.7102 39.178 15.6978 39.1557 15.6477 39.1486C15.5976 39.1415 15.5851 39.1191 15.5782 39.0239C15.5713 38.9279 15.5591 38.9065 15.5073 38.8992C15.4621 38.8927 15.4449 38.8717 15.4449 38.823C15.4449 38.7742 15.4297 38.7557 15.3894 38.7557C15.3474 38.7557 15.3337 38.7371 15.3334 38.6796C15.3328 38.5511 15.3025 38.4787 15.2493 38.4787C15.2182 38.4787 15.1955 38.4549 15.1899 38.4165C15.1842 38.3765 15.1589 38.3511 15.1187 38.3454C15.0646 38.3376 15.0562 38.3199 15.0562 38.2137C15.0562 38.1013 15.0504 38.0911 14.9868 38.0911C14.923 38.0911 14.9173 38.0809 14.9173 37.967C14.9173 37.8577 14.9091 37.8408 14.848 37.8255C14.7981 37.813 14.7786 37.7895 14.7786 37.742C14.7786 37.6942 14.7631 37.6757 14.7231 37.6757C14.686 37.6757 14.6675 37.6573 14.6675 37.6204C14.6675 37.5658 14.6489 37.565 13.3349 37.565H12.0023V43.0895ZM31.5194 43.0895V48.6142H32.7825H34.0458V43.0895V37.565H32.7825H31.5194V43.0895ZM34.962 43.0895V48.6142H37.6133C39.3624 48.6142 40.2646 48.6047 40.2646 48.5864C40.2646 48.5698 40.3842 48.5588 40.5681 48.5588C40.8678 48.5588 40.9586 48.5325 40.9586 48.446C40.9586 48.4319 41.0264 48.4203 41.1091 48.4203C41.2953 48.4203 41.3473 48.4016 41.3473 48.3343C41.3473 48.2907 41.3682 48.2819 41.4724 48.2819C41.5871 48.2819 41.5972 48.2762 41.5972 48.2127C41.5972 48.1481 41.6065 48.1433 41.736 48.1433C41.8656 48.1433 41.8749 48.1387 41.8749 48.0741C41.8749 48.0108 41.8852 48.0049 41.9979 48.0049C42.0966 48.0049 42.1244 47.994 42.1387 47.9496C42.1483 47.9191 42.1803 47.8942 42.2099 47.8942C42.2486 47.8942 42.2636 47.875 42.2636 47.825C42.2636 47.7692 42.2773 47.7558 42.3341 47.7558C42.3731 47.7558 42.4361 47.7245 42.4743 47.6865C42.5124 47.6484 42.5678 47.6173 42.5974 47.6173C42.6316 47.6173 42.6575 47.5921 42.6685 47.5481C42.6795 47.5047 42.7056 47.4789 42.7384 47.4789C42.7718 47.4789 42.791 47.4594 42.791 47.4254C42.791 47.391 42.8134 47.3688 42.8534 47.3631C42.8931 47.3574 42.9191 47.3319 42.9246 47.2936C42.93 47.2558 42.9562 47.2297 42.9939 47.2243C43.032 47.219 43.058 47.1929 43.0634 47.1547C43.0682 47.1212 43.0949 47.0864 43.1229 47.0776C43.175 47.0611 43.2064 46.9862 43.2071 46.8765C43.2074 46.8286 43.2235 46.8142 43.2769 46.8142C43.3263 46.8142 43.3462 46.7992 43.3462 46.762C43.3462 46.7331 43.3711 46.7033 43.4018 46.6953C43.4471 46.6836 43.4573 46.6576 43.4573 46.5537C43.4573 46.4364 43.4627 46.4265 43.5267 46.4265C43.5822 46.4265 43.5962 46.4126 43.5962 46.3572C43.5962 46.3078 43.6111 46.288 43.6487 46.288C43.7105 46.288 43.7349 46.2363 43.7349 46.1058C43.7349 46.0394 43.7475 46.0111 43.7773 46.0111C43.8327 46.0111 43.8738 45.8991 43.8738 45.7481C43.8738 45.6438 43.8823 45.6261 43.9362 45.6184C43.9893 45.6109 43.9999 45.5902 44.007 45.4809C44.0135 45.3817 44.0275 45.349 44.0683 45.3384C44.1146 45.3263 44.1224 45.2937 44.1294 45.0794C44.137 44.849 44.1412 44.8337 44.2 44.8254C44.2598 44.8169 44.2625 44.8051 44.2625 44.5554C44.2625 44.3176 44.2671 44.2942 44.315 44.2942C44.3439 44.2942 44.3752 44.2745 44.3844 44.2504C44.4176 44.1638 44.4034 41.8018 44.3696 41.8018C44.2986 41.8018 44.2642 41.701 44.2633 41.4904C44.2625 41.2825 44.2603 41.2758 44.1958 41.2758C44.1316 41.2758 44.129 41.2676 44.1195 41.0384C44.1116 40.8477 44.1002 40.7957 44.0611 40.7739C44.0299 40.7564 44.0125 40.7136 44.0125 40.6535C44.0125 40.5251 43.988 40.4726 43.9278 40.4726C43.8867 40.4726 43.8752 40.4473 43.8684 40.3411C43.8612 40.2289 43.8507 40.2083 43.7974 40.2007C43.7433 40.1931 43.7349 40.1754 43.7349 40.0692C43.7349 39.9575 43.7288 39.9465 43.6672 39.9465C43.6072 39.9465 43.5983 39.9328 43.5907 39.8288C43.5842 39.738 43.5681 39.7049 43.5197 39.6838C43.4814 39.667 43.4573 39.6322 43.4573 39.5938C43.4573 39.5496 43.441 39.5311 43.4018 39.5311C43.3644 39.5311 43.3462 39.5126 43.3462 39.4745C43.3462 39.4433 43.316 39.3875 43.2789 39.3506C43.2418 39.3136 43.2075 39.2551 43.2026 39.2203C43.1968 39.1802 43.1715 39.1541 43.1328 39.1486C43.0949 39.1432 43.0687 39.1171 43.0634 39.0795C43.058 39.0417 43.0318 39.0155 42.9939 39.0101C42.9562 39.0048 42.93 38.9787 42.9246 38.9409C42.9191 38.9026 42.8931 38.8771 42.8534 38.8715C42.8134 38.8658 42.791 38.8436 42.791 38.8092C42.791 38.7752 42.7718 38.7557 42.7384 38.7557C42.7056 38.7557 42.6795 38.7298 42.6685 38.6865C42.6532 38.6255 42.6362 38.6173 42.5268 38.6173C42.4125 38.6173 42.4023 38.6116 42.4023 38.5481C42.4023 38.4927 42.3885 38.4787 42.3329 38.4787C42.2774 38.4787 42.2636 38.4649 42.2636 38.4096C42.2636 38.3542 42.2497 38.3404 42.1942 38.3404C42.1446 38.3404 42.1247 38.3253 42.1247 38.2881C42.1247 38.2475 42.0971 38.2318 41.9998 38.2171C41.9011 38.2024 41.8749 38.1872 41.8749 38.1448C41.8749 38.0988 41.8549 38.0911 41.736 38.0911C41.6065 38.0911 41.5972 38.0865 41.5972 38.0219C41.5972 37.9546 41.5917 37.9527 41.4028 37.9527C41.2141 37.9527 41.2086 37.9506 41.2086 37.8835C41.2086 37.8162 41.2029 37.8141 41.0162 37.8141C40.8377 37.8141 40.8232 37.8097 40.8149 37.7518C40.8065 37.6928 40.7919 37.6891 40.5383 37.6817C40.2991 37.6747 40.2691 37.668 40.2564 37.6194C40.2422 37.5658 40.203 37.565 37.602 37.565H34.962V43.0895ZM39.4873 39.7101C39.4873 39.7823 39.589 39.808 39.8741 39.808C40.1289 39.808 40.1536 39.8126 40.1536 39.86C40.1536 39.9171 40.2488 39.9465 40.4346 39.9465C40.5237 39.9465 40.5423 39.956 40.5423 40.0019C40.5423 40.0498 40.5607 40.0573 40.681 40.0573C40.8107 40.0573 40.8199 40.0619 40.8199 40.1265C40.8199 40.1819 40.8337 40.1957 40.8893 40.1957C40.9448 40.1957 40.9586 40.2096 40.9586 40.265C40.9586 40.3148 40.9736 40.3342 41.0123 40.3342C41.0467 40.3342 41.069 40.3564 41.0747 40.3965C41.0804 40.4359 41.1059 40.4619 41.1444 40.4675C41.1822 40.4727 41.2084 40.4989 41.2137 40.5367C41.2193 40.575 41.2454 40.6006 41.2849 40.6061C41.3389 40.6137 41.3473 40.6314 41.3473 40.7376C41.3473 40.85 41.3532 40.8603 41.4168 40.8603C41.4804 40.8603 41.4862 40.8706 41.4862 40.9831C41.4862 41.0816 41.4972 41.1093 41.5417 41.1234C41.5867 41.1376 41.5972 41.1655 41.5977 41.2706C41.5982 41.4536 41.6224 41.5249 41.6837 41.5249C41.733 41.5249 41.736 41.5536 41.736 42.02C41.736 42.5818 41.7483 42.6795 41.8226 42.7029C41.9024 42.7282 41.9024 43.2696 41.8226 43.2696C41.7459 43.2696 41.7368 43.3376 41.7364 43.9101C41.736 44.3885 41.7323 44.4271 41.6847 44.4396C41.6297 44.454 41.5972 44.5634 41.5972 44.734C41.5972 44.8047 41.5807 44.845 41.5417 44.8693C41.4962 44.8976 41.4862 44.9339 41.4862 45.0698C41.4862 45.2283 41.4831 45.2357 41.4168 45.2357C41.3519 45.2357 41.3473 45.2449 41.3473 45.3742C41.3473 45.5034 41.3427 45.5126 41.2779 45.5126C41.2291 45.5126 41.2086 45.5277 41.2086 45.5635C41.2086 45.5916 41.1773 45.6287 41.1392 45.646C41.1009 45.6633 41.0697 45.6961 41.0697 45.7187C41.0697 45.7413 41.0447 45.7733 41.0142 45.7896C40.9836 45.8058 40.9586 45.8365 40.9586 45.8578C40.9586 45.8791 40.9305 45.9005 40.8962 45.9053C40.856 45.911 40.8306 45.9365 40.8249 45.9764C40.8185 46.021 40.7974 46.0389 40.7505 46.0389C40.7037 46.0389 40.6824 46.0566 40.676 46.1011C40.6687 46.1529 40.6472 46.1648 40.5492 46.172C40.4551 46.1787 40.4312 46.1911 40.4312 46.2328C40.4312 46.2754 40.407 46.2865 40.2993 46.2934C40.1874 46.3006 40.1661 46.3112 40.1587 46.3633C40.1503 46.4219 40.1362 46.4251 39.8394 46.4325C39.5477 46.4398 39.5272 46.4442 39.5015 46.5027L39.4741 46.5649H38.4118H37.3495V43.1173V39.6696H38.4184C39.3386 39.6696 39.4873 39.6751 39.4873 39.7101ZM59.8145 39.7319C59.8225 39.7885 59.8404 39.795 60.0108 39.8024C60.1539 39.8087 60.1981 39.8202 60.1981 39.8515C60.1981 39.8976 60.3062 39.9465 60.4082 39.9465C60.4573 39.9465 60.4758 39.9617 60.4758 40.0019C60.4758 40.0387 60.4942 40.0573 60.5313 40.0573C60.572 40.0573 60.5868 40.0757 60.5868 40.1265C60.5868 40.1816 60.6008 40.1957 60.655 40.1957C60.7197 40.1957 60.7235 40.2049 60.7313 40.3827C60.7387 40.5525 60.7453 40.5704 60.802 40.5784C60.9054 40.5931 60.8991 41.3619 60.7951 41.4091C60.7342 41.4368 60.7257 41.4582 60.7257 41.5817C60.7257 41.718 60.6842 41.8018 60.6165 41.8018C60.6003 41.8018 60.5868 41.8268 60.5868 41.8572C60.5868 41.8942 60.5684 41.9126 60.5313 41.9126C60.491 41.9126 60.4758 41.9312 60.4758 41.9803C60.4758 42.0415 60.463 42.0488 60.3439 42.0566C60.2314 42.0637 60.2108 42.074 60.2032 42.1272C60.1949 42.1859 60.1812 42.1895 59.9764 42.1895C59.7223 42.1895 59.6707 42.2042 59.6707 42.2757C59.6707 42.3264 59.6233 42.3281 58.1437 42.3281H56.6168V40.9988V39.6696H58.2112H59.8057L59.8145 39.7319Z" fill="#FCDC14"/>
</svg>
