<svg width="132" height="21" viewBox="0 0 132 21" fill="none" xmlns="http://www.w3.org/2000/svg">
<path d="M56.3123 6.0044C56.8659 5.94681 57.4258 5.94783 57.9799 5.99931C58.4918 6.05385 59.0294 6.21135 59.3925 6.61758C59.7745 7.0437 59.9194 7.63598 59.9936 8.20125C60.0658 8.88069 60.1303 9.56421 60.1216 10.2488C60.1289 10.9481 60.0639 11.6459 59.9859 12.3396C59.9083 12.9115 59.7464 13.5099 59.3406 13.9232C58.9533 14.3157 58.4041 14.4498 57.8839 14.4972C57.2853 14.543 56.6803 14.5441 56.086 14.4488C55.6123 14.3687 55.1373 14.1536 54.8401 13.7433C54.4625 13.23 54.3646 12.5644 54.3069 11.9359C54.2022 10.9674 54.1765 9.9888 54.2633 9.01729C54.3185 8.45457 54.3442 7.87911 54.5328 7.34341C54.6593 6.97132 54.8731 6.62064 55.1882 6.39586C55.5178 6.15528 55.9182 6.05181 56.3123 6.0044Z" fill="white"/>
<path d="M103.934 10.9607C104.384 10.8007 104.866 10.765 105.339 10.7686C106.193 10.7589 107.057 10.8165 107.886 11.0479C107.872 11.6998 107.908 12.3533 107.855 13.0037C107.824 13.3594 107.745 13.7341 107.51 14.0057C107.235 14.3207 106.837 14.4788 106.446 14.5537C106.001 14.6449 105.545 14.6113 105.095 14.6164C104.467 14.5919 103.796 14.4589 103.313 14.0063C102.728 13.4446 102.672 12.4578 103.028 11.7462C103.213 11.368 103.555 11.0953 103.934 10.9607Z" fill="white"/>
<path d="M21.9247 0H22.3813C23.2617 0.0693204 24.0838 0.544369 24.6607 1.23808C25.3529 2.0424 25.749 3.06488 26.0757 4.0792C26.7849 6.30612 27.0093 8.67167 27.0016 11.0102C26.989 12.1372 26.8717 13.2596 26.7146 14.3733C26.6288 14.886 26.5474 15.4141 26.305 15.8759C26.1009 16.2755 25.7873 16.6308 25.3854 16.8102C24.9157 17.0187 24.3233 16.9427 23.951 16.563C23.6558 16.2587 23.5225 15.8234 23.4759 15.4008C23.4342 14.9034 23.4837 14.4039 23.5317 13.9089C23.6548 12.76 23.7605 11.6066 23.7644 10.4495C23.744 9.81801 23.7319 9.15233 23.4449 8.58044C23.2205 8.12832 22.743 7.82403 22.2568 7.83983C21.7691 7.87194 21.3517 8.18796 21.0129 8.53456C20.5174 9.06262 20.1476 9.70536 19.8422 10.3695C19.0186 12.2141 18.4941 14.1816 17.9065 16.117C17.685 16.8622 17.384 17.5906 16.9399 18.2206C16.4639 18.9066 15.8036 19.4484 15.0489 19.7533C14.3339 20.0509 13.5611 20.158 12.7967 20.1845C11.945 20.2064 11.0845 19.9959 10.3457 19.5453C9.50129 19.0351 8.82553 18.2522 8.33835 17.3719C7.54819 15.9758 6.79148 14.5593 6.02314 13.15C5.74537 12.6515 5.48311 12.1326 5.09967 11.7121C4.89365 11.4817 4.62848 11.2748 4.3163 11.2646C4.03078 11.2773 3.73168 11.3889 3.5465 11.6275C3.3652 11.8614 3.29491 12.1652 3.25758 12.4588C3.19214 13.0669 3.27455 13.6796 3.39574 14.2744C3.67932 15.6608 4.16505 16.9891 4.50245 18.3607C4.63333 18.9097 4.7521 19.4984 4.58873 20.0545C4.46173 20.502 4.08846 20.8751 3.64151 20.9358C3.13446 21.025 2.57504 20.8471 2.24395 20.4225C1.95067 20.0417 1.7272 19.6049 1.55947 19.1487C1.13967 18.0427 0.800338 16.9025 0.536144 15.7444C0.24238 14.4717 0.0426588 13.1719 0 11.8614V11.076C0.0344179 10.0815 0.147367 9.08963 0.351451 8.11762C0.629218 6.76281 1.05338 5.40648 1.83966 4.27748C2.40198 3.46704 3.20087 2.81155 4.13451 2.56027C5.03714 2.31561 6.04689 2.3783 6.86371 2.87833C7.28594 3.12859 7.63981 3.48233 7.98205 3.83811C8.42948 4.29379 8.78821 4.83204 9.14693 5.36417C9.75239 6.27197 10.3113 7.21289 10.8644 8.15636C11.2202 8.74558 11.6575 9.29505 12.2087 9.6916C12.7162 10.0586 13.3556 10.2513 13.9683 10.1274C14.5854 10.0326 15.1313 9.6284 15.4789 9.09218C15.7872 8.64466 15.9631 8.12017 16.1638 7.61454C16.7421 6.09816 17.3064 4.57362 17.9725 3.09648C18.3118 2.36199 18.7844 1.69172 19.3744 1.15908C20.085 0.511238 20.9818 0.0744175 21.9247 0Z" fill="#00507D"/>
<path d="M93.2079 1.47642C93.1924 1.3495 93.2976 1.24654 93.4164 1.25317C94.1261 1.24399 94.8362 1.25215 95.5459 1.2496C95.6773 1.23635 95.8416 1.30771 95.8305 1.47183C95.8489 2.25169 95.8275 3.03307 95.8411 3.81292C96.5838 3.80681 97.3269 3.81394 98.0696 3.80987C98.1621 3.81241 98.2722 3.80528 98.3459 3.87919C98.4099 3.94443 98.4006 4.04586 98.4069 4.132C98.4045 4.71001 98.4084 5.28802 98.405 5.86603C98.4152 6.00671 98.294 6.11273 98.1665 6.10356C97.3899 6.10763 96.6138 6.10304 95.8372 6.10559C95.8368 8.08071 95.8372 10.0558 95.8372 12.0304C95.8576 12.5172 95.9046 13.0234 96.13 13.4581C96.3225 13.8231 96.671 14.0759 97.0506 14.1829C97.4583 14.3099 97.8878 14.3063 98.309 14.3124C98.4452 14.3012 98.5567 14.4337 98.5499 14.5729C98.5553 15.1351 98.5485 15.6978 98.5529 16.2605C98.5485 16.3635 98.5626 16.4766 98.5112 16.5699C98.4593 16.6622 98.3497 16.6861 98.2567 16.6928C97.2421 16.7055 96.1892 16.6724 95.2483 16.2279C94.5279 15.9007 93.9341 15.2798 93.6258 14.5204C93.2399 13.5774 93.1924 12.531 93.2074 11.5187C93.2079 8.17144 93.207 4.82368 93.2079 1.47642Z" fill="#00507D"/>
<path d="M33.2335 4.107C34.1473 3.66967 35.1672 3.54326 36.1629 3.56824C37.1179 3.54683 38.0932 3.6085 38.9983 3.95612C39.4782 4.13707 39.9324 4.4169 40.2727 4.82161C40.7759 4.20129 41.5321 3.88986 42.2728 3.72472C42.9408 3.57435 43.6263 3.55651 44.3064 3.56824C45.3932 3.54224 46.5174 3.70076 47.485 4.24972C48.2417 4.67277 48.8602 5.39503 49.105 6.26663C49.3687 7.17493 49.3401 8.13421 49.3367 9.07258C49.3358 11.5207 49.3382 13.9694 49.3358 16.4175C49.3397 16.576 49.2025 16.7014 49.0551 16.6922C48.3793 16.6943 47.7041 16.6932 47.0283 16.6932C46.9105 16.6973 46.7685 16.6499 46.7346 16.5179C46.706 16.3828 46.7205 16.2437 46.7181 16.1071C46.719 13.8307 46.7181 11.5549 46.7186 9.2785C46.6948 8.66532 46.7161 8.04603 46.6202 7.43845C46.5416 6.95882 46.2488 6.5276 45.8368 6.30435C45.1891 5.95163 44.4344 5.95367 43.7242 5.98018C43.0785 6.0184 42.3659 6.18151 41.9383 6.73607C41.5835 7.18768 41.5869 7.8029 41.5607 8.35695C41.5248 9.52928 41.552 10.7026 41.5438 11.8755C41.5481 13.4036 41.5399 14.9317 41.5282 16.4598C41.5113 16.6 41.3828 16.6963 41.2524 16.6922C40.5733 16.6948 39.8931 16.6937 39.214 16.6927C39.0972 16.6973 38.9639 16.6474 38.9285 16.5199C38.8965 16.3517 38.9198 16.1784 38.9139 16.0082C38.9076 13.5784 38.9285 11.1481 38.9004 8.71833C38.8567 8.0868 38.9275 7.39156 38.5799 6.83598C38.2513 6.31557 37.6482 6.09384 37.084 6.01586C36.5076 5.94857 35.9196 5.9445 35.3461 6.04542C34.8444 6.14124 34.3199 6.37316 34.045 6.85025C33.7857 7.26566 33.7803 7.77843 33.7546 8.25654C33.7081 9.42836 33.7343 10.6022 33.7275 11.7751C33.726 13.3195 33.7304 14.8644 33.7256 16.4088C33.7338 16.5709 33.5961 16.6999 33.4463 16.6922C32.758 16.6932 32.0691 16.6953 31.3808 16.6912C31.2334 16.6999 31.0928 16.5704 31.1098 16.4098C31.1088 13.7272 31.1093 11.0441 31.1093 8.36154C31.1054 7.51542 31.1612 6.64076 31.4884 5.85632C31.8292 5.06372 32.4875 4.45972 33.2335 4.107Z" fill="#00507D"/>
<path d="M55.9733 3.611C56.5598 3.54983 57.1498 3.5692 57.7388 3.56971C58.7577 3.60998 59.8102 3.77411 60.7036 4.32306C61.4021 4.74969 61.9402 5.44085 62.232 6.22988C62.661 7.37418 62.7531 8.61787 62.7778 9.83607C62.7866 11.171 62.757 12.5314 62.3789 13.8174C62.1385 14.6712 61.6658 15.475 60.9605 15.9857C60.0816 16.6376 58.9865 16.8497 57.9327 16.9073C56.9472 16.9429 55.9481 16.944 54.9824 16.7095C54.3154 16.5479 53.6634 16.2615 53.1389 15.791C52.5984 15.3185 52.2246 14.664 52.0021 13.9683C51.6085 12.722 51.562 11.3943 51.5566 10.0925C51.5726 9.1342 51.6095 8.16779 51.8145 7.23044C51.9721 6.48729 52.2324 5.74821 52.7021 5.15847C53.1021 4.63806 53.6489 4.25731 54.2388 4.01673C54.7924 3.78685 55.3824 3.67216 55.9733 3.611ZM56.3136 6.00357C55.9195 6.05097 55.5191 6.15445 55.1894 6.39503C54.8743 6.61981 54.6606 6.97049 54.534 7.34258C54.3455 7.87828 54.3198 8.45374 54.2645 9.01646C54.1777 9.98796 54.2034 10.9666 54.3081 11.9351C54.3658 12.5635 54.4637 13.2292 54.8414 13.7425C55.1385 14.1528 55.6136 14.3679 56.0872 14.4479C56.6815 14.5432 57.2865 14.5422 57.8852 14.4963C58.4053 14.4489 58.9546 14.3149 59.3419 13.9224C59.7476 13.509 59.9095 12.9106 59.9871 12.3387C60.0651 11.645 60.1301 10.9472 60.1228 10.2479C60.1315 9.56338 60.0671 8.87986 59.9948 8.20042C59.9207 7.63515 59.7757 7.04287 59.3937 6.61675C59.0307 6.21051 58.4931 6.05301 57.9812 5.99847C57.4271 5.94699 56.8672 5.94597 56.3136 6.00357Z" fill="#00507D"/>
<path d="M86.1149 3.59917C87.3583 3.49672 88.607 3.63281 89.833 3.853C89.9934 3.88919 90.1602 3.9055 90.3139 3.97024C90.4399 4.0365 90.4288 4.20419 90.4336 4.33009C90.4268 4.88975 90.4423 5.45043 90.4263 6.00958C90.4273 6.18645 90.2494 6.23997 90.1141 6.20327C88.9973 5.99786 87.8668 5.81487 86.7296 5.85361C86.2443 5.87604 85.745 5.93109 85.3058 6.16453C85.0247 6.31439 84.7915 6.59167 84.744 6.92655C84.6737 7.28487 84.7837 7.68296 85.0571 7.91844C85.4634 8.27371 85.9787 8.44038 86.4663 8.62999C87.4392 9.01737 88.4383 9.34868 89.3594 9.864C89.9072 10.1759 90.4399 10.5781 90.7516 11.1602C91.2165 12.0175 91.2684 13.0696 91.0575 14.0161C90.8578 14.8846 90.3061 15.6426 89.5775 16.0972C88.5527 16.7542 87.321 16.9179 86.142 16.924C84.9772 16.9051 83.8031 16.7568 82.6939 16.3709C82.5534 16.3363 82.4201 16.2226 82.423 16.0595C82.4225 15.4448 82.4167 14.8291 82.4264 14.2139C82.4249 14.0742 82.5795 13.9937 82.6964 14.04C84.0256 14.4758 85.4314 14.7169 86.8246 14.5763C87.3069 14.5166 87.8111 14.4126 88.2061 14.0956C88.7297 13.6843 88.8184 12.7561 88.3293 12.28C88.053 11.9982 87.6899 11.8412 87.3399 11.6893C86.4116 11.3223 85.4702 10.992 84.5525 10.597C83.8768 10.2988 83.1942 9.91293 82.7608 9.26968C82.2121 8.45109 82.1098 7.37509 82.3057 6.41429C82.4908 5.53351 83.0313 4.74296 83.7706 4.28422C84.4779 3.8423 85.3034 3.66696 86.1149 3.59917Z" fill="#00507D"/>
<path d="M101.698 3.88647C102.977 3.63977 104.281 3.52151 105.581 3.5786C106.347 3.61887 107.12 3.71775 107.848 3.9828C108.596 4.26926 109.311 4.72952 109.772 5.42681C110.333 6.26018 110.492 7.30763 110.512 8.30717C110.515 9.59979 110.512 10.8919 110.514 12.1845C110.497 13.0842 110.433 14.0179 110.045 14.837C109.76 15.4421 109.274 15.9243 108.709 16.2372C107.769 16.7622 106.686 16.9442 105.629 16.9223C104.584 16.9345 103.514 16.8555 102.532 16.4508C101.793 16.1541 101.115 15.6353 100.707 14.912C100.227 14.0827 100.137 13.0735 100.226 12.1249C100.312 11.2905 100.637 10.4714 101.202 9.87045C101.735 9.296 102.45 8.9438 103.183 8.75316C104.172 8.48812 105.205 8.49321 106.217 8.56865C106.778 8.613 107.335 8.70423 107.888 8.81025C107.879 8.21644 107.898 7.59409 107.66 7.04003C107.496 6.64297 107.162 6.34683 106.785 6.18525C106.402 6.02113 105.989 5.95843 105.579 5.91918C104.348 5.8203 103.112 5.9355 101.895 6.12511C101.784 6.13989 101.669 6.16945 101.562 6.12715C101.466 6.07974 101.457 5.95945 101.459 5.86312C101.462 5.30091 101.456 4.7387 101.462 4.177C101.46 4.03428 101.558 3.89921 101.698 3.88647ZM103.934 10.9597C103.554 11.0943 103.213 11.367 103.027 11.7452C102.671 12.4567 102.727 13.4435 103.313 14.0052C103.796 14.4578 104.466 14.5909 105.094 14.6153C105.544 14.6102 106 14.6439 106.446 14.5526C106.836 14.4777 107.235 14.3197 107.509 14.0047C107.744 13.733 107.824 13.3584 107.854 13.0026C107.907 12.3522 107.871 11.6988 107.885 11.0469C107.057 10.8154 106.193 10.7578 105.338 10.7675C104.866 10.764 104.384 10.7996 103.934 10.9597Z" fill="#00507D"/>
<path d="M116.653 3.59828C117.373 3.53762 118.096 3.58197 118.817 3.56769C118.961 3.54221 119.091 3.67066 119.08 3.82408C119.082 4.43471 119.079 5.04534 119.081 5.65597C119.091 5.78187 119.03 5.92918 118.897 5.94345C118.172 5.98524 117.434 5.87973 116.72 6.05202C116.335 6.14529 115.948 6.33949 115.722 6.69323C115.474 7.05563 115.421 7.51437 115.398 7.94864C115.341 9.0017 115.366 10.0573 115.361 11.1119C115.36 12.8979 115.362 14.6839 115.359 16.47C115.372 16.6157 115.235 16.7014 115.112 16.6917C114.409 16.6947 113.705 16.6932 113.003 16.6922C112.872 16.7014 112.723 16.6183 112.744 16.4603C112.741 14.2359 112.743 12.011 112.743 9.78665C112.762 8.76519 112.676 7.73202 112.862 6.72228C112.978 5.99493 113.312 5.3058 113.822 4.79711C114.579 4.03612 115.63 3.69614 116.653 3.59828Z" fill="#00507D"/>
<path d="M64.169 4.12945C64.1467 3.98877 64.2185 3.80936 64.3755 3.81445C65.1191 3.80528 65.8637 3.81394 66.6078 3.81037C66.7421 3.8012 66.9186 3.85727 66.9297 4.02496C67.0684 6.17797 67.4925 8.30753 68.1484 10.3515C68.5401 11.6094 69.0113 12.8409 69.5721 14.0265C69.7098 13.8537 69.769 13.6279 69.8698 13.4306C71.1515 10.484 72.0245 7.31462 72.233 4.07287C72.2272 3.9322 72.3353 3.81037 72.471 3.81496C73.2137 3.80477 73.9568 3.81445 74.6999 3.81037C74.8269 3.7961 74.9922 3.86746 74.9738 4.02955C74.9084 6.08062 74.4367 8.09295 73.8143 10.0298C73.0886 12.2608 72.1389 14.4037 71.0851 16.4822C71.0225 16.6316 70.8689 16.6999 70.721 16.6933C69.9643 16.6938 69.2081 16.6943 68.4514 16.6933C68.2953 16.6938 68.1222 16.6367 68.0519 16.4771C67.0495 14.5102 66.1032 12.5019 65.3998 10.3922C64.7212 8.37634 64.3018 6.2636 64.169 4.12945Z" fill="#00507D"/>
<path d="M77.2307 3.83714C77.3204 3.80401 77.4183 3.80961 77.5138 3.80859C78.1746 3.81216 78.8358 3.80655 79.497 3.81114C79.6138 3.80095 79.7583 3.87638 79.7423 4.02012C79.7447 5.29541 79.7423 6.57121 79.7432 7.84651C79.7689 10.6509 79.7486 13.4558 79.7563 16.2603C79.7534 16.3622 79.7621 16.4677 79.7326 16.5671C79.6865 16.6787 79.5527 16.6889 79.4533 16.6925C78.7587 16.6915 78.064 16.6961 77.3699 16.6905C77.2462 16.6981 77.112 16.6094 77.126 16.4667C77.1241 12.337 77.127 8.20738 77.1246 4.07772C77.1168 3.98597 77.1367 3.87231 77.2307 3.83714Z" fill="#00507D"/>
<path d="M124.535 4.0782C124.518 3.93396 124.646 3.8101 124.78 3.81367C125.473 3.80704 126.167 3.81316 126.86 3.81061C127.003 3.79175 127.167 3.90745 127.152 4.07209C127.153 5.67104 127.152 7.27051 127.153 8.86998C127.15 9.78643 127.16 10.7034 127.147 11.6199C126.278 11.6596 125.406 11.6285 124.536 11.6362C123.032 11.6336 121.528 11.6362 120.025 11.6351C119.875 11.6566 119.714 11.5332 119.724 11.3686C119.722 10.6534 119.725 9.93833 119.722 9.2232C119.721 9.12432 119.719 9.0076 119.8 8.93879C119.902 8.84551 120.044 8.87354 120.17 8.86896C121.625 8.871 123.08 8.86947 124.534 8.86998C124.536 7.27255 124.534 5.67563 124.535 4.0782Z" fill="#00507D"/>
<path d="M127.152 8.86872C128.623 8.8677 130.093 8.87076 131.564 8.86719C131.67 8.86974 131.794 8.85444 131.883 8.93498C131.984 9.03131 131.986 9.19289 131.984 9.32745C131.955 10.0237 132.009 10.722 131.96 11.4168C131.935 11.5625 131.794 11.6517 131.66 11.6339C130.159 11.6334 128.658 11.638 127.157 11.6313C127.147 13.1905 127.154 14.7502 127.154 16.3094C127.148 16.4078 127.164 16.5245 127.091 16.6005C127.026 16.6907 126.909 16.6912 126.814 16.6933C126.151 16.6907 125.489 16.6948 124.826 16.6917C124.65 16.7182 124.502 16.5429 124.534 16.3635C124.536 14.7869 124.532 13.2109 124.535 11.6349C125.406 11.6273 126.278 11.6584 127.147 11.6186C127.16 10.7021 127.15 9.78517 127.152 8.86872Z" fill="#27A5D5"/>
</svg>
