<svg width="69" height="58" viewBox="0 0 69 58" fill="none" xmlns="http://www.w3.org/2000/svg">
<path d="M34.2359 5.15133C33.1723 2.50605 30.5743 -0.33414 25.7154 0.0556903C19.5226 0.723971 17.593 6.59927 18.5286 10.1077C16.0615 8.46489 11.868 7.74092 8.20639 10.8317C3.48109 15.5097 6.00664 21.8584 8.60736 23.3898C5.74211 23.1114 1.21729 25.0327 0.214869 30.0448C-0.848811 36.2542 3.94054 39.8741 8.60736 39.8741H60.3351C65.7287 39.8741 68.722 35.2797 68.3879 30.908C67.8588 25.2276 62.6017 23.0557 59.7336 23.5291C62.1311 22.1925 65.3305 15.9831 60.4632 11.1102C56.6039 7.46247 51.6809 8.79903 49.9489 10.3584C50.8817 7.32325 49.353 1.05811 43.0879 0.0556903C42.6563 0.0278452 42.2414 0 41.8432 0C37.0622 0 34.9126 3.45278 34.2359 5.15133Z" fill="white"/>
<path d="M9.06959 11.8333C6.33799 14.2558 5.34392 19.7969 10.2669 23.0548L29.906 36.3926L20.383 14.7848C18.3893 9.6892 12.9289 8.60324 9.06959 11.8333Z" fill="#F37021"/>
<path d="M25.9743 1.33577C22.7833 1.39146 17.9883 5.15054 20.1213 10.8866L29.9729 33.8866L33.4312 9.71713C34.2331 3.7026 29.6387 0.918098 25.9743 1.33577Z" fill="#CC004C"/>
<path d="M34.9683 8.77061H36.8311C36.8311 8.77061 37.8252 8.77061 37.9616 9.24398C37.2293 9.82873 35.2356 9.91226 35.4973 13.0866L38.6299 33.8868L48.4118 10.8311C50.4139 5.67982 46.2121 1.39168 42.4864 1.25245C42.3138 1.25245 42.1384 1.22461 41.9574 1.22461C38.6132 1.22461 34.7817 3.64713 34.9683 8.77061Z" fill="#6460AA"/>
<path d="M48.0192 14.9813L38.7663 36.3106L58.3999 22.9171C62.9275 19.7428 62.1979 14.675 59.664 12.1411C58.6003 10.9716 56.6512 10.0527 54.5851 10.0527C52.1431 10.0527 49.5312 11.3336 48.0192 14.9813Z" fill="#0089D0"/>
<path d="M56.2029 25.9522L37.7639 38.7053H60.4688C65.1244 38.7053 68.1178 33.9438 66.7896 29.5721C65.8985 26.8433 63.2588 24.6992 60.1987 24.6992C58.9122 24.6992 57.545 25.0612 56.2029 25.9522Z" fill="#0DB14B"/>
<path d="M8.53775 38.7051H30.9085L12.4639 25.9521C8.20361 23.2511 3.41148 24.8383 1.6823 29.3213C0.214872 34.4726 3.87649 38.7051 8.53775 38.7051Z" fill="#FCB711"/>
<path d="M68.4268 55.0007L66.4607 53.0222C65.9116 53.5258 65.3598 53.9215 64.8043 54.2183C64.2489 54.5151 63.5697 54.659 62.7668 54.659C62.1644 54.659 61.6126 54.5421 61.1105 54.3082C60.6083 54.0744 60.1802 53.7596 59.8262 53.3549C59.4712 52.9592 59.1931 52.4916 58.9926 51.961C58.7921 51.4303 58.6918 50.8638 58.6918 50.2612V50.2252C58.6918 49.6227 58.7921 49.0561 58.9926 48.5345C59.1931 48.0038 59.4749 47.5452 59.8361 47.1405C60.1974 46.7448 60.6291 46.43 61.1303 46.2052C61.6325 45.9803 62.178 45.8634 62.7668 45.8634C63.4758 45.8634 64.1152 46.0073 64.6833 46.2861C65.2523 46.5649 65.8113 46.9516 66.3595 47.4463L68.3275 45.1799C68.0024 44.8651 67.6583 44.5684 67.2835 44.3075C66.9087 44.0377 66.5004 43.8129 66.0588 43.624C65.6171 43.4352 65.1249 43.2913 64.583 43.1834C64.0412 43.0754 63.4424 43.0215 62.7867 43.0215C61.7029 43.0215 60.7122 43.2103 59.8162 43.5971C58.9194 43.9748 58.1499 44.4964 57.5078 45.1529C56.8648 45.8094 56.3635 46.5829 56.0022 47.4552C55.641 48.3276 55.4604 49.2629 55.4604 50.2612V50.2972C55.4604 51.3044 55.641 52.2397 56.0022 53.1211C56.3635 54.0025 56.8648 54.7579 57.5078 55.4054C58.1499 56.053 58.9122 56.5656 59.7955 56.9343C60.6787 57.312 61.6361 57.5009 62.6657 57.5009C63.3484 57.5009 63.9644 57.4379 64.5135 57.33C65.0617 57.2131 65.5675 57.0512 66.029 56.8264C66.4905 56.6106 66.915 56.3407 67.3033 56.035C67.6917 55.7292 68.0656 55.3874 68.4268 55.0007ZM55.0106 53.4179V53.3819C55.0106 52.4466 54.7767 51.7181 54.3079 51.1875C53.8401 50.6659 53.198 50.2432 52.3815 49.9374C52.6353 49.8115 52.8728 49.6496 53.0941 49.4608C53.3145 49.2719 53.5087 49.0561 53.6757 48.8133C53.8437 48.5614 53.9774 48.2916 54.0776 47.9859C54.1779 47.6711 54.2285 47.3203 54.2285 46.9246V46.8797C54.2285 45.7735 53.8166 44.9011 52.9939 44.2446C52.1702 43.5881 51.0367 43.2643 49.5908 43.2643H43.0674V57.2581H49.7516C50.5418 57.2581 51.2607 57.1771 51.9101 57.0153C52.5586 56.8534 53.114 56.6195 53.5755 56.2958C54.037 55.981 54.3919 55.5763 54.6394 55.0997C54.8869 54.614 55.0106 54.0564 55.0106 53.4179ZM51.1569 47.4463C51.1569 47.9589 50.9564 48.3366 50.5545 48.5704C50.1535 48.8043 49.6116 48.9212 48.9288 48.9212H46.0785V45.9623H49.1293C49.785 45.9623 50.2871 46.0882 50.6348 46.3311C50.9826 46.5829 51.1569 46.9336 51.1569 47.4013V47.4463ZM51.9399 53.0402C51.9399 53.5618 51.7457 53.9395 51.3574 54.1913C50.969 54.4341 50.4343 54.5601 49.7516 54.5601H46.0785V51.4843H49.6513C50.4542 51.4843 51.0358 51.6192 51.398 51.889C51.7593 52.1588 51.9399 52.5365 51.9399 52.9952V53.0402ZM41.1834 57.2581V43.2643H38.1317V51.88L31.5486 43.2643H28.6983V57.2581H31.7482V48.3636L38.5544 57.2581H41.1834ZM27.4592 53.1211V53.0761C27.4592 52.4646 27.3626 51.943 27.1684 51.5023C26.9742 51.0616 26.6861 50.6749 26.305 50.3511C25.9238 50.0274 25.4551 49.7486 24.8997 49.5147C24.3442 49.2809 23.712 49.0651 23.0031 48.8852C22.4007 48.7233 21.9021 48.5794 21.5075 48.4625C21.1128 48.3456 20.8021 48.2107 20.5745 48.0848C20.3469 47.9499 20.1898 47.797 20.1022 47.6351C20.0155 47.4642 19.9721 47.2664 19.9721 47.0415V47.0056C19.9721 46.6548 20.1229 46.367 20.4237 46.1332C20.7244 45.8994 21.176 45.7825 21.7784 45.7825C22.3808 45.7825 22.9823 45.9084 23.5847 46.1512C24.1871 46.403 24.803 46.7358 25.4325 47.1585L27.0374 44.8472C26.3149 44.2716 25.5219 43.8309 24.6594 43.5251C23.796 43.2193 22.8486 43.0665 21.8181 43.0665C21.0956 43.0665 20.4336 43.1654 19.8312 43.3632C19.2297 43.5611 18.7104 43.8489 18.276 44.2266C17.8407 44.5953 17.5029 45.036 17.2618 45.5576C17.0206 46.0703 16.9005 46.6458 16.9005 47.2844V47.3203C16.9005 48.0128 17.0107 48.5974 17.232 49.0651C17.4523 49.5237 17.7639 49.9194 18.1649 50.2342C18.5668 50.54 19.0554 50.8098 19.6307 51.0166C20.206 51.2325 20.8482 51.4303 21.5571 51.6012C22.146 51.7451 22.6246 51.889 22.9931 52.0239C23.3607 52.1498 23.6488 52.2847 23.8556 52.4196C24.0634 52.5545 24.2042 52.6984 24.2774 52.8513C24.3515 53.0042 24.3885 53.1751 24.3885 53.3819V53.4179C24.3885 53.8316 24.2106 54.1553 23.8565 54.3892C23.5016 54.623 23.0031 54.7399 22.3609 54.7399C21.558 54.7399 20.8184 54.587 20.1428 54.2813C19.4663 53.9755 18.8079 53.5618 18.1658 53.0402L16.3387 55.2166C17.1814 55.981 18.1188 56.5386 19.1484 56.9073C20.1789 57.2761 21.2302 57.4559 22.3004 57.4559C23.0636 57.4559 23.759 57.357 24.3885 57.1681C25.0171 56.9703 25.559 56.6915 26.0142 56.3228C26.4693 55.963 26.8234 55.5044 27.0781 54.9648C27.3318 54.4252 27.4592 53.8136 27.4592 53.1211ZM15.3715 57.2581V43.2643H12.0398L8.34589 49.182L4.65292 43.2643H1.32031V57.2581H4.35127V48.1837L8.26551 54.1014H8.34589L12.3008 48.1208V57.2581H15.3715Z" fill="black"/>
</svg>
