<svg width="93" height="70" viewBox="0 0 93 70" fill="none" xmlns="http://www.w3.org/2000/svg">
<g clip-path="url(#clip0)">
<path d="M29.5635 37.1874V61.4873L33.7181 58.3984V41.3273L29.5635 37.1874Z" fill="black"/>
<path d="M38.4893 42.8618L43.8993 41.643L46.0843 39.8764V36.6729L38.4893 42.8618Z" fill="black"/>
<path d="M37.8097 4.2181L30.1665 0.743486L37.0757 8.38037L39.6915 5.83381L37.8097 4.2181Z" fill="black"/>
<path d="M0 63.2762H2.40038L3.18255 67.1393H3.19672L3.9789 63.2762H6.37928V69.8452H4.78375V65.6298H4.76674L3.81736 69.8452H2.56191L1.6097 65.6298H1.59553V69.8452H0V63.2762Z" fill="black"/>
<path d="M11.9633 67.3038C11.9633 69.1264 11.1414 69.9985 9.47222 69.9985C7.80301 69.9985 6.97266 69.1264 6.97266 67.3038V63.2757H8.65887V66.8566C8.65887 67.5274 8.65887 68.3633 9.47789 68.3633C10.2799 68.3633 10.2799 67.5274 10.2799 66.8566V63.2757H11.9633V67.3038Z" fill="black"/>
<path d="M14.1384 67.6351C14.1384 67.8001 14.161 67.9482 14.2007 68.0684C14.3226 68.4626 14.691 68.5464 15.0056 68.5464C15.2805 68.5464 15.7027 68.4374 15.7027 67.9482C15.7027 67.61 15.4675 67.5177 14.521 67.1963C13.6566 66.9 12.6647 66.6148 12.6647 65.2898C12.6647 63.7748 13.7501 63.1207 14.8752 63.1207C16.0626 63.1207 17.114 63.6629 17.1594 65.2647H15.5667C15.595 65.0159 15.5043 64.851 15.3655 64.7364C15.2266 64.6218 15.0339 64.5742 14.8667 64.5742C14.6371 64.5742 14.2602 64.6469 14.2602 65.0159C14.2914 65.4827 15.0736 65.5834 15.8473 65.8433C16.6238 66.1005 17.3889 66.5338 17.3889 67.7358C17.3889 69.4493 16.0796 70 14.861 70C14.2376 70 12.4663 69.7316 12.4521 67.6351H14.1384Z" fill="black"/>
<path d="M17.9307 63.2773H19.6169V69.8464H17.9307V63.2773Z" fill="black"/>
<path d="M23.8794 65.7231C23.8483 65.4827 23.6952 64.7559 22.9952 64.7559C22.2074 64.7559 21.9552 65.6784 21.9552 66.5617C21.9552 67.4423 22.2074 68.3647 22.9952 68.3647C23.5649 68.3647 23.7887 67.8839 23.8879 67.2689H25.543C25.543 68.5939 24.6474 70 23.0434 70C21.2722 70 20.2661 68.5017 20.2661 66.5617C20.2661 64.4932 21.3572 63.1207 23.0434 63.1207C24.5482 63.129 25.3729 64.0767 25.5203 65.7231H23.8794Z" fill="black"/>
<path d="M29.916 64.959H28.3828V63.2762H33.1354V64.959H31.6022V69.8452H29.916V64.959Z" fill="black"/>
<path d="M33.6255 63.2762H38.1542V64.959H35.3117V65.7808H37.8935V67.3406H35.3117V68.1624H38.242V69.8452H33.6255V63.2762Z" fill="black"/>
<path d="M38.7583 63.2762H40.4417V68.1624H42.8676V69.8452H38.7583V63.2762Z" fill="black"/>
<path d="M43.2856 63.2762H47.8143V64.959H44.9719V65.7808H47.5564V67.3406H44.9719V68.1624H47.8994V69.8452H43.2856V63.2762Z" fill="black"/>
<path d="M51.8665 69.8447H49.9819L48.3467 63.2757H50.0499L50.9483 67.259H50.9596L51.8466 63.2757H53.5754L51.8665 69.8447Z" fill="black"/>
<path d="M54.2085 63.2773H55.8975V69.8464H54.2085V63.2773Z" fill="black"/>
<path d="M58.2409 67.6351C58.2409 67.8001 58.2636 67.9482 58.3032 68.0684C58.4251 68.4626 58.7935 68.5464 59.1081 68.5464C59.383 68.5464 59.8052 68.4374 59.8052 67.9482C59.8052 67.61 59.5644 67.5177 58.6235 67.1963C57.7591 66.9 56.7672 66.6148 56.7672 65.2898C56.7672 63.7748 57.8498 63.1207 58.9777 63.1207C60.1652 63.1207 61.2137 63.6629 61.2591 65.2647H59.6664C59.6976 65.0159 59.604 64.851 59.4652 64.7364C59.3291 64.6218 59.1364 64.5742 58.9692 64.5742C58.7397 64.5742 58.3628 64.6469 58.3628 65.0159C58.3939 65.4827 59.1761 65.5834 59.9498 65.8433C60.7263 66.1005 61.4915 66.5338 61.4915 67.7358C61.4915 69.4493 60.1793 70 58.9636 70C58.3401 70 56.5689 69.7316 56.5547 67.6351H58.2409Z" fill="black"/>
<path d="M62.0332 63.2773H63.7194V69.8464H62.0332V63.2773Z" fill="black"/>
<path d="M67.0679 63.1202C68.7343 63.1202 69.8452 64.557 69.8452 66.5612C69.8452 68.5655 68.7343 69.9995 67.0679 69.9995C65.4072 69.9995 64.2935 68.5655 64.2935 66.5612C64.2935 64.557 65.4072 63.1202 67.0679 63.1202ZM67.0679 68.3642C67.4987 68.3642 68.159 68.0232 68.159 66.5612C68.159 65.0993 67.4987 64.7554 67.0679 64.7554C66.64 64.7554 65.9797 65.0993 65.9797 66.5612C65.9797 68.0232 66.64 68.3642 67.0679 68.3642Z" fill="black"/>
<path d="M70.4717 63.2762H72.1976L73.7903 66.7899H73.8073V63.2762H75.4V69.8452H73.7619L72.0814 66.2588H72.0672V69.8452H70.4717V63.2762Z" fill="black"/>
<path d="M90.6357 8.14014C89.9385 7.67052 88.6887 7.43571 87.4531 7.54193C86.277 7.63977 85.4948 8.20723 84.8515 8.73275C84.86 8.72716 83.1767 10.3708 83.1767 10.3708L82.726 11.0808C82.7204 11.0892 81.224 12.9342 81.224 12.9342C81.224 12.9342 81.2099 12.9509 81.207 12.9537V2.72276L76.616 9.15527e-05L76.6188 18.5836L76.5593 18.673L75.4597 19.9477V9.15527e-05H47.0803L36.9857 9.9068L28.019 9.15527e-05H0.027832V61.4194H28.4951V34.3633L36.8752 42.8891L47.1653 34.2375V61.4194H75.4654L75.4626 35.501C75.6836 35.1292 75.865 34.8329 75.865 34.8329C75.8678 34.8245 76.1059 34.4863 76.1059 34.4863C76.1201 34.4695 76.3609 34.0893 76.6245 33.6756L76.6273 61.4194L81.207 58.2998V25.5747C81.4082 25.2784 81.7086 24.8367 81.7086 24.8367C81.7512 24.7669 82.4143 23.7885 82.4143 23.7885C82.4143 23.7857 83.4686 22.2594 83.4686 22.2594C83.4799 22.2343 83.871 21.7451 83.871 21.7451L84.8459 20.3838C85.0386 19.9449 85.5884 19.6542 85.7981 19.5452L85.8973 19.492L86.0305 19.397L86.5377 18.891C86.5462 18.8799 87.4191 18.1531 87.4191 18.1531L88.9098 17.4682L90.3013 16.7135C90.3069 16.7107 91.5766 15.1676 91.5766 15.1676L92.2539 13.0935C92.2567 13.0907 92.4522 11.0836 92.4522 11.0836C92.4097 10.0633 91.6276 8.79984 90.6357 8.14014ZM56.5345 24.8451C56.5656 25.0408 56.6733 26.8578 56.6676 27.1569C56.662 28.057 56.7243 29.0493 56.696 29.4491C56.6733 29.7538 56.7158 30.8048 56.7158 30.8048C56.7923 31.635 56.9737 32.5435 56.9907 32.7056C57.0276 33.1305 56.866 34.7434 56.9142 35.1096C56.9199 35.1851 57.0531 35.8588 57.0247 36.0181C56.951 36.4374 57.0757 36.9434 57.0616 37.1335C57.0389 37.4661 57.0247 37.8463 57.0134 38.2516C56.9907 38.8526 56.9709 39.4732 56.9142 40.0155C56.8972 40.1524 56.917 41.1001 56.917 41.1001C56.8065 42.0533 56.6875 43.0372 56.8519 44.024C56.883 44.2225 56.8434 44.8738 56.8604 44.9884C56.8859 45.1365 57.0984 45.9025 57.1296 46.0702C57.1749 46.3218 57.2713 47.4874 57.3988 47.7558C57.5235 48.0269 58.0308 49.215 58.0761 49.3575C58.2263 49.8076 58.4559 50.8922 58.249 51.4456C58.0535 51.9684 57.7587 53.2123 57.5518 53.5226C57.3733 53.7937 57.1041 53.9531 56.9766 54.1487C56.8547 54.3304 56.6138 54.4982 56.4126 54.5764C55.7891 54.8168 54.6839 54.9846 53.726 54.6966C53.3377 54.582 52.7511 54.6184 52.0908 54.2242C51.5523 53.9028 51.3681 53.0222 51.2916 52.5498C51.2548 52.329 51.3199 51.7392 51.3058 51.6469C51.2888 51.5127 51.0847 50.6406 51.0847 50.361C51.0819 50.2213 51.1329 49.6315 51.0677 49.2429C50.9855 48.7425 50.739 47.9291 50.739 47.9291C50.671 47.5964 50.4896 46.8752 50.4811 46.8529C50.2855 46.3134 50.1892 45.7879 50.1325 45.3406C50.0276 44.5188 50.2345 43.8339 50.4187 43.2273C50.5236 42.8779 50.6228 42.5508 50.6653 42.221C50.6936 41.9834 50.5066 40.8569 50.5434 40.4795C50.5548 40.3258 50.6823 39.8366 50.688 39.7723C50.7361 39.4536 50.7475 38.6038 50.7503 38.4724C50.7531 38.3019 50.8693 37.5863 50.8552 36.8455C50.8495 36.5548 50.8183 36.2529 50.8552 35.9482C50.892 35.624 50.9203 34.7966 50.858 34.4136C50.7588 33.8294 50.7985 33.3066 50.7957 33.2815C50.7531 32.6693 50.7163 32.0264 50.7531 31.4785C50.7588 31.3918 50.6511 30.4638 50.6483 30.1759C50.6426 29.9942 50.6313 28.8564 50.6199 28.7223C50.3734 25.8906 49.9851 25.3483 49.8293 25.2449C49.6734 25.1442 49.2511 25.1498 49.0103 25.2616C48.826 25.3455 48.3471 25.7564 47.9418 25.9717C47.5451 26.1785 46.8054 26.5251 46.5532 26.7096C46.2613 26.9277 45.7824 27.2938 44.85 27.797C44.6148 27.9228 44.4362 28.138 44.2237 28.3281C43.9148 28.5965 43.3366 29.1723 42.4014 29.6391C41.9423 29.8656 41.5342 30.1311 41.2055 30.447C41.0695 30.5812 40.5678 31.4086 40.2448 31.7189C39.9302 32.0152 39.7318 32.4317 39.6751 32.5603C39.5108 32.9069 39.3322 33.2955 38.9865 33.5498C38.4509 33.944 37.2833 34.0167 36.5776 33.7259C36.127 33.5414 35.2286 32.946 34.8375 31.9146C34.4436 30.8859 34.7724 29.5665 35.5517 28.7111C36.0647 28.1492 36.8638 27.9228 37.6403 27.7076C38.1193 27.5734 38.5756 27.4448 38.927 27.2519C39.0998 27.1569 39.6525 26.7488 39.7687 26.6733C39.9444 26.5587 40.5707 26.2596 40.6925 26.1813C40.8059 26.1058 41.4662 25.5384 41.9083 25.2924C42.6395 24.8899 43.2204 24.5656 43.5633 24.3531C43.5633 24.3531 44.5694 23.7941 45.2212 23.1847C45.3686 23.0449 45.9949 22.8157 46.6807 22.4327C46.8536 22.3349 47.5706 22.0973 47.752 22.019C47.8767 21.9603 48.3754 21.5997 48.5228 21.5243C49.1661 21.1944 49.4892 20.8003 49.3078 19.8191C49.2426 19.4781 49.1378 19.1314 49.1746 18.7205C49.186 18.6199 49.3333 18.0021 49.5714 17.5772C49.6904 17.3592 49.8774 17.3648 49.9823 17.1635C50.0872 16.9567 50.4556 16.7833 50.6993 16.7219C50.8693 16.5597 51.2207 16.3864 51.6317 16.3165C52.5329 16.1684 53.692 16.8197 53.8592 16.8532C54.1766 16.9231 54.715 16.8756 54.9984 16.7945C55.0551 16.7833 55.4235 16.5457 55.5596 16.4954C55.7409 16.4283 56.3219 16.2718 56.4409 16.2299C56.6195 16.1684 57.447 15.7407 57.6567 15.6624C57.8721 15.5814 58.3709 15.4919 58.6174 15.436C59.0113 15.1593 59.751 14.9216 60.0344 14.6813C60.3546 14.4045 60.7882 13.742 60.8789 13.6246C61.0461 13.4066 61.8623 12.8643 61.9785 12.7776C62.2449 12.5708 62.8542 12.1487 63.268 12.0313C63.4664 11.9754 64.0473 12.0928 64.4016 12.09C64.7983 12.09 65.3538 12.1123 65.7732 12.7385C65.9829 13.0544 66.3343 13.3758 66.425 13.8119C66.6971 15.1732 65.6655 16.5234 64.8833 17.0042C64.804 17.0517 64.4242 17.1607 64.1918 17.2362C63.8659 17.3424 63.5344 17.5772 63.3133 17.6359C62.8741 17.7505 62.6587 18.0524 62.4773 18.1475C62.2988 18.2397 61.6923 18.6087 61.4967 18.7149C61.3465 18.7932 61.1 19.1398 60.655 19.2684C60.3546 19.3579 59.7283 19.534 59.2296 19.9672C59.0227 20.1462 58.181 20.3167 57.9401 20.3698C57.8494 20.3921 56.7753 20.8394 56.6676 21.46C56.5543 22.1113 56.6478 22.2846 56.5231 23.2182C56.4466 23.7997 56.4863 24.4845 56.5345 24.8451ZM91.5255 12.9425C91.4434 13.3227 91.228 14.2619 90.9219 14.8126C90.7887 15.0558 90.2588 15.8273 89.8563 16.1236C89.4652 16.4088 88.8984 16.6911 88.6604 16.775C88.4393 16.8532 87.3568 17.3508 87.0649 17.5046C86.5406 17.7841 86.26 18.0972 85.9851 18.3963C85.8434 18.5528 85.7046 18.6982 85.5373 18.8435C85.4722 18.8994 84.5115 19.288 84.1629 20.0902C83.9503 20.5766 82.9924 21.5858 82.8309 21.8765C82.5928 22.2958 82.2414 22.9275 81.89 23.2658C81.7852 23.3664 81.6718 23.5201 81.5528 23.699C81.4423 23.8612 81.3289 24.0429 81.207 24.2413C81.173 24.2944 81.1447 24.3392 81.1107 24.3923C80.884 24.7613 80.6289 25.1806 80.4815 25.3343C80.116 25.7229 79.9034 26.226 79.7305 26.6369C79.6625 26.7963 79.0617 27.6433 78.835 28.2331C78.7358 28.4986 78.2144 29.3596 78.1577 29.491C78.0471 29.7677 77.3755 30.4107 77.3103 30.5365C77.214 30.7293 77.1261 30.9921 77.0354 31.266C76.9561 31.5148 76.7492 32.004 76.6783 32.1941C76.5905 32.3367 76.4771 32.5184 76.3581 32.7112C76.3524 32.7196 76.3496 32.7252 76.3439 32.7308C76.2561 32.8734 76.1682 33.0159 76.0747 33.1641C75.865 33.4995 75.6524 33.8294 75.5136 34.0418C75.4201 34.1592 75.3265 34.2962 75.2444 34.4192C75.1112 34.6121 74.1363 36.2529 73.9124 36.6443C73.8132 36.8232 73.6913 37.0021 73.5666 37.1894C73.2691 37.6282 72.963 38.0783 72.8156 38.6346C72.7221 38.9812 72.4529 39.5542 72.4331 39.6046C72.0505 40.5326 71.9031 41.5305 71.8634 41.8129C71.8039 42.2741 71.8181 42.7409 71.8379 43.1882C71.8578 43.6718 71.8748 44.1302 71.7954 44.5355C71.648 45.2875 71.3505 46.0283 70.9566 46.6209C70.8517 46.783 70.4804 47.2834 70.0412 47.6859C69.7209 47.9794 69.1967 48.0996 68.2359 48.108C66.9351 48.1136 66.3768 47.6384 65.6854 46.6348C65.572 46.4727 65.3509 46.0506 65.0817 45.4832C64.736 44.7592 64.4526 44.0967 64.206 43.2245C64.1295 42.9618 64.0218 42.671 63.9226 42.3887C63.8093 42.0812 63.5655 41.2147 63.5457 41.0721C63.523 40.9295 63.217 39.9204 63.1971 39.8226C63.0781 39.2048 62.9137 38.6318 62.7522 38.0783C62.5878 37.508 62.432 36.9685 62.3356 36.4123C62.2421 35.8784 61.953 35.0146 61.7405 34.3884C61.7405 34.3884 61.3324 33.111 61.202 32.6553C61.0235 32.0376 60.4397 30.3324 60.4397 30.3324C60.2215 29.751 59.7057 28.3868 59.6688 28.1688C59.3628 26.3965 59.3656 24.9681 59.6887 24.3448C59.8332 24.0596 60.3291 23.7885 60.7287 23.5704C60.8619 23.495 61.5194 23.0757 61.6611 23.0393C62.0692 22.9303 62.7522 22.8968 63.3275 22.9555C63.404 22.9639 64.1097 22.9694 64.3647 23.1483C65.3141 23.7997 65.3821 24.6411 65.5068 26.1701C65.5068 26.1701 65.6712 27.8138 65.7505 28.4316C65.8072 28.8872 65.8696 29.3596 65.9177 29.8264C65.9489 30.1479 65.9659 30.5001 65.9801 30.8383C66.0056 31.4505 66.2181 32.619 66.2181 32.619C66.4307 33.3206 66.6347 33.9887 67.4679 34.3353C67.6946 34.4276 67.9525 34.4108 68.1963 34.2766C68.7659 33.9775 69.2845 33.0662 69.4829 32.0152C69.4942 31.9565 69.5792 31.8363 69.6614 31.7189C69.8598 31.4477 70.129 31.0732 70.2679 30.4582C70.3104 30.3044 70.693 29.7845 70.9197 29.4742C71.1521 29.1583 71.3675 28.862 71.495 28.6384C71.5375 28.5629 72.4841 27.1066 72.4841 27.1066C72.4841 27.1066 72.8496 26.3043 73.0055 26.0052C73.1614 25.7005 73.2974 25.3371 73.3116 25.2756C73.3881 24.9625 73.544 24.3056 73.8557 23.9422C74.2808 23.4475 74.7427 22.3349 74.7654 22.2874C74.8674 22.0973 75.1452 21.6249 75.4031 21.2084C75.4172 21.1916 75.4427 21.1553 75.4597 21.1329V21.1301C75.4654 21.1245 75.4739 21.1133 75.4796 21.1077C75.5929 20.9596 75.7403 20.7639 75.8537 20.6297L76.6698 19.6765C76.837 19.4976 77.0042 19.3131 77.1544 19.1119C77.3132 18.905 77.6504 18.4158 77.948 17.9826C78.1293 17.7114 78.6536 17.0377 78.8152 16.87C78.9739 16.7079 80.1641 15.1285 80.3483 14.8881C80.4249 14.7903 80.9123 14.3011 81.207 14.0076C81.207 14.0048 81.2099 14.0048 81.2099 14.002C81.618 13.5967 81.7682 13.4485 81.822 13.3786C82.0601 13.0627 82.318 12.7553 82.5673 12.4562C82.8167 12.1571 83.0718 11.8524 83.3155 11.5309C83.4232 11.3967 83.6981 10.9103 83.7718 10.8153C84.0297 10.4798 85.2908 9.33096 85.3276 9.30021C85.9143 8.82221 86.5632 8.35538 87.5155 8.27432C88.5584 8.18487 89.6693 8.38054 90.2191 8.74953C91.0069 9.27225 91.6729 10.3345 91.7069 11.1144C91.7409 11.8635 91.6842 12.1682 91.5255 12.9425Z" fill="black"/>
</g>
<defs>
<clipPath id="clip0">
<rect width="92.4528" height="70" fill="white"/>
</clipPath>
</defs>
</svg>
