<svg width="139" height="35" viewBox="0 0 139 35" fill="none" xmlns="http://www.w3.org/2000/svg">
<path d="M33.8029 17.4927C33.7979 21.9381 32.0309 26.2016 28.8864 29.3557C25.742 32.5098 21.4744 34.2991 17.0124 34.3344C7.79131 34.3942 0.031406 27.0092 9.5014e-05 17.5603C-0.0312159 8.08403 7.68041 0.710744 16.8102 0.663954C19.0357 0.655063 21.2412 1.08355 23.3003 1.92489C25.3595 2.76624 27.2318 4.00391 28.8102 5.56706C30.3886 7.13021 31.642 8.98815 32.4987 11.0345C33.3554 13.0809 33.7986 15.2755 33.8029 17.4927ZM11.696 17.906C11.696 20.2333 11.696 22.5611 11.696 24.8894C11.6895 24.9785 11.6895 25.068 11.696 25.1571C11.6997 25.2091 11.7162 25.2593 11.744 25.3034C11.7719 25.3475 11.8102 25.384 11.8557 25.4098C11.9011 25.4355 11.9523 25.4496 12.0046 25.4509C12.0568 25.4522 12.1086 25.4405 12.1553 25.417C12.2528 25.3706 12.3477 25.319 12.4397 25.2624L19.0854 21.4802C20.9732 20.4053 22.8584 19.324 24.7527 18.2608C25.0945 18.0698 25.075 17.7188 24.7632 17.5889C24.739 17.5771 24.7155 17.5641 24.6927 17.5499C20.6023 15.2173 16.5105 12.8813 12.4175 10.5418C11.9687 10.2819 11.6804 10.3624 11.6869 10.9785C11.7104 13.2868 11.696 15.5964 11.696 17.906Z" fill="#3B8BEF"/>
<path d="M42.0095 18.1598V24.0605C42.0145 24.1858 42.0058 24.3113 41.9834 24.4348C41.9703 24.5197 41.9285 24.5977 41.865 24.6558C41.8014 24.7139 41.7199 24.7487 41.6338 24.7545C41.5441 24.7643 41.4539 24.7682 41.3637 24.7662H39.0715C38.9817 24.7699 38.8917 24.7651 38.8028 24.7519C38.7171 24.7407 38.6375 24.7021 38.5758 24.6418C38.5141 24.5816 38.4738 24.503 38.461 24.4179C38.4427 24.3031 38.4348 24.187 38.4375 24.0709C38.4375 19.7809 38.4375 15.4919 38.4375 11.2037C38.4335 11.0428 38.444 10.8818 38.4688 10.7228C38.5458 10.2991 38.885 10.1535 39.2516 10.3771C39.453 10.5128 39.6347 10.6755 39.7917 10.8605L45.1706 16.6664C45.3468 16.8561 45.5242 17.0459 45.7003 17.237C45.7933 17.1755 45.8746 17.098 45.9404 17.0082C47.7981 14.9988 49.6551 12.9886 51.5111 10.9775C51.652 10.8268 51.7964 10.6795 51.9442 10.5356C52.0259 10.4516 52.1217 10.3825 52.2273 10.3316C52.5457 10.1821 52.8236 10.3056 52.924 10.6383C52.9667 10.8033 52.9843 10.9737 52.9762 11.1439C52.9762 13.1065 52.9762 15.0682 52.9762 17.029V24.015C52.9762 24.1047 52.9762 24.1943 52.9762 24.2827C52.9592 24.6102 52.8183 24.7623 52.4896 24.7649C51.6363 24.7718 50.7823 24.7718 49.9273 24.7649C49.5581 24.7649 49.412 24.5933 49.412 24.1956C49.412 22.2799 49.412 20.3632 49.412 18.4457V18.1429C49.3024 18.1429 49.2724 18.2338 49.2241 18.2884C48.3387 19.2892 47.4546 20.2922 46.5718 21.2973C46.4214 21.4752 46.2565 21.6404 46.0787 21.7912C45.7995 22.016 45.579 22.016 45.305 21.7821C45.1914 21.6804 45.085 21.5709 44.9867 21.4545C44.09 20.439 43.1941 19.4226 42.2992 18.4054C42.2235 18.3183 42.1452 18.2325 42.0682 18.1455L42.0095 18.1598Z" fill="#010101"/>
<path d="M61.6441 14.8541L62.9135 12.8746C63.3153 12.2482 63.7276 11.6295 64.1138 10.994C64.2083 10.8208 64.3511 10.6787 64.525 10.5849C64.6989 10.491 64.8964 10.4493 65.0935 10.465C66.0472 10.4793 66.9996 10.465 67.9533 10.465C68.0519 10.4593 68.1508 10.4681 68.2468 10.491C68.4464 10.5468 68.5077 10.656 68.449 10.8523C68.3938 10.9922 68.3187 11.1236 68.2259 11.2422L64.1542 17.2495C64.1223 17.3035 64.0866 17.3552 64.0472 17.4042C64.0291 17.4208 64.0147 17.4412 64.005 17.4639C63.9954 17.4865 63.9907 17.511 63.9914 17.5356C63.992 17.5602 63.9979 17.5844 64.0086 17.6066C64.0194 17.6287 64.0348 17.6483 64.0538 17.6641C64.0821 17.699 64.1078 17.7359 64.1307 17.7746L68.3316 23.9859C68.4051 24.0875 68.471 24.1944 68.5286 24.3056C68.6343 24.5279 68.5456 24.6956 68.3042 24.7411C68.2062 24.755 68.107 24.7597 68.0081 24.7554C67.0635 24.7554 66.119 24.7333 65.1757 24.7644C64.6539 24.7826 64.3199 24.5903 64.0472 24.1562C63.2749 22.9279 62.4752 21.7179 61.6859 20.5001C61.6376 20.426 61.5867 20.3519 61.5371 20.2778C61.4576 20.3425 61.3938 20.4242 61.3506 20.517C60.5574 21.7526 59.7637 22.983 58.9696 24.2082C58.9024 24.3141 58.8297 24.4165 58.7518 24.5149C58.6936 24.5897 58.6194 24.6505 58.5344 24.6928C58.4495 24.7351 58.3561 24.7578 58.2612 24.7592C58.0642 24.7657 57.8698 24.767 57.6689 24.767H55.1379C55.0393 24.7706 54.9406 24.7649 54.8431 24.7502C54.7969 24.7493 54.7518 24.7363 54.7123 24.7124C54.6728 24.6885 54.6404 24.6546 54.6184 24.6142C54.5964 24.5738 54.5855 24.5282 54.587 24.4822C54.5884 24.4362 54.602 24.3914 54.6265 24.3524C54.6793 24.2387 54.7431 24.1303 54.817 24.0288C56.2286 21.9545 57.6398 19.8805 59.0505 17.8071C59.2345 17.5354 59.2371 17.6316 59.0505 17.3496C57.6667 15.2908 56.2812 13.2321 54.894 11.1733C54.8309 11.0867 54.7767 10.9939 54.7322 10.8965C54.7104 10.8607 54.6976 10.8203 54.6949 10.7786C54.6921 10.7369 54.6995 10.6951 54.7164 10.6568C54.7333 10.6186 54.7592 10.5849 54.7919 10.5588C54.8247 10.5326 54.8632 10.5147 54.9044 10.5066C55.025 10.4692 55.1515 10.4543 55.2775 10.4624C56.2482 10.4624 57.2201 10.4741 58.1908 10.4624C58.3969 10.4479 58.6029 10.493 58.7839 10.5924C58.9649 10.6918 59.1132 10.8412 59.211 11.0225C59.9481 12.2196 60.7035 13.4062 61.4523 14.5968C61.4966 14.6955 61.562 14.7834 61.6441 14.8541Z" fill="#010101"/>
<path d="M135.145 18.6003C135.17 18.7036 135.221 18.799 135.293 18.8771C136.436 20.5901 137.582 22.3027 138.729 24.0149C138.824 24.1454 138.904 24.2857 138.968 24.4334C139.042 24.6231 138.984 24.7362 138.781 24.7557C138.459 24.7849 138.134 24.7849 137.812 24.7557C137.677 24.736 137.554 24.6653 137.47 24.5582C137.352 24.4236 137.244 24.2797 137.149 24.128L134.072 19.462C134.04 19.4202 134.01 19.3768 133.983 19.332C133.931 19.2164 133.841 19.1215 133.729 19.0622C133.616 19.0029 133.487 18.9826 133.362 19.0045C133.291 19.011 133.218 19.0045 133.147 19.0045H130.202C129.867 19.0045 129.86 19.0123 129.859 19.3554V24.2176C129.859 24.7375 129.817 24.7752 129.288 24.7752C129.144 24.7752 128.999 24.7752 128.856 24.7752C128.621 24.7622 128.54 24.6803 128.522 24.4438C128.522 24.3827 128.522 24.3138 128.522 24.2566V11.0034C128.522 10.5277 128.583 10.4692 129.07 10.4692C130.22 10.4692 131.371 10.4692 132.522 10.4692C133.495 10.477 134.459 10.5641 135.392 10.8799C135.698 10.9802 135.994 11.1109 136.274 11.2699C137.288 11.8638 137.854 12.7541 138.022 13.9031C138.117 14.5148 138.101 15.1384 137.976 15.7448C137.88 16.253 137.671 16.7334 137.364 17.1506C137.058 17.5678 136.661 17.9112 136.203 18.1558C135.867 18.3394 135.512 18.4883 135.145 18.6003ZM129.864 14.7479C129.864 15.6421 129.864 16.5367 129.864 17.4318C129.864 17.7009 129.886 17.723 130.156 17.723C130.794 17.723 131.431 17.723 132.069 17.723C132.608 17.7388 133.148 17.7201 133.684 17.6671C134.257 17.6113 134.814 17.4514 135.329 17.1953C135.643 17.0366 135.916 16.8103 136.131 16.5328C136.345 16.2554 136.495 15.9338 136.569 15.5914C136.653 15.234 136.684 14.866 136.659 14.4997C136.584 13.4183 136.061 12.6489 135.05 12.2226C134.968 12.1875 134.884 12.155 134.801 12.1251C134.24 11.9335 133.652 11.827 133.059 11.8092C132.09 11.7677 131.119 11.7962 130.149 11.7897C130.113 11.7897 130.077 11.7897 130.042 11.7897C130.017 11.7879 129.992 11.7917 129.968 11.8008C129.945 11.8099 129.924 11.8241 129.907 11.8423C129.89 11.8605 129.878 11.8823 129.87 11.906C129.863 11.9298 129.861 11.9549 129.864 11.9795C129.864 12.0419 129.864 12.1095 129.864 12.1667V14.7479Z" fill="#010101"/>
<path d="M105.86 24.7633C105.395 24.8699 105.143 24.5853 104.947 24.1538C104.331 22.7748 103.688 21.4062 103.066 20.0298C103.03 19.9207 102.958 19.8271 102.861 19.7649C102.765 19.7026 102.649 19.6755 102.535 19.6879C100.638 19.6983 98.7415 19.6983 96.8455 19.6879C96.7353 19.676 96.6244 19.702 96.5311 19.7616C96.4379 19.8212 96.3679 19.9108 96.3328 20.0155C95.7196 21.3763 95.0921 22.7332 94.4685 24.0901C94.4045 24.2279 94.338 24.363 94.2597 24.4943C94.214 24.5775 94.1464 24.6467 94.064 24.6944C93.9817 24.742 93.8879 24.7663 93.7927 24.7646C93.6048 24.7646 93.4156 24.7724 93.2265 24.7646C92.9173 24.749 92.8351 24.6191 92.9408 24.3201C92.9734 24.2279 93.0125 24.1369 93.053 24.0472C95.0534 19.7313 97.056 15.4149 99.0607 11.0981C99.1527 10.8944 99.2554 10.6957 99.3686 10.5029C99.5891 10.1376 99.8057 10.1376 100.034 10.4899C100.155 10.6886 100.263 10.8953 100.356 11.1085L105.966 23.1179C106.114 23.4337 106.262 23.7496 106.408 24.0667C106.449 24.1564 106.488 24.2474 106.519 24.3396C106.615 24.6217 106.532 24.7451 106.234 24.7646C106.131 24.7698 106.022 24.7633 105.86 24.7633ZM99.6739 12.7644C99.6517 12.8073 99.6269 12.8527 99.6061 12.8943L97.2291 18.0568C97.0803 18.383 97.0986 18.4103 97.4691 18.4103H101.918C101.98 18.4136 102.043 18.4136 102.106 18.4103C102.244 18.3973 102.275 18.3492 102.236 18.2167C102.222 18.1742 102.205 18.1329 102.184 18.0932C101.388 16.3602 100.592 14.6316 99.7939 12.9073C99.7692 12.8566 99.7652 12.7826 99.6739 12.7644Z" fill="#010101"/>
<path d="M74.158 10.4693C74.8364 10.4693 75.584 10.4485 76.3276 10.5122C77.1185 10.5631 77.8948 10.749 78.6224 11.062C79.9401 11.6599 80.6837 12.6866 80.8807 14.1098C81.0228 14.9822 80.942 15.8762 80.6459 16.7092C80.2063 17.8907 79.3413 18.6588 78.1893 19.1215C77.4666 19.3995 76.7036 19.5592 75.9297 19.5946C75.023 19.6544 74.115 19.6167 73.207 19.6258C73.1443 19.6258 73.0765 19.6258 73.0178 19.6258C72.7399 19.6336 72.7177 19.6544 72.7177 19.9416C72.7177 21.3653 72.7177 22.7889 72.7177 24.2125C72.7177 24.722 72.6734 24.7662 72.1698 24.7662C72.008 24.7662 71.8463 24.7662 71.6845 24.7662C71.646 24.7697 71.6073 24.765 71.5707 24.7526C71.5342 24.7401 71.5008 24.7201 71.4726 24.6938C71.4443 24.6675 71.422 24.6356 71.4071 24.6002C71.3921 24.5647 71.3848 24.5265 71.3857 24.4881C71.3772 24.4078 71.3746 24.327 71.3779 24.2463V10.9996C71.3779 10.5356 71.4431 10.4693 71.8997 10.4693H74.158ZM72.723 15.0495C72.723 16.0347 72.723 17.019 72.723 18.0025C72.723 18.2897 72.7425 18.3105 73.0256 18.3118H74.8521C75.3278 18.3244 75.8038 18.3044 76.2767 18.252C76.8682 18.1875 77.4429 18.0162 77.9727 17.7464C78.3424 17.5592 78.6652 17.2917 78.9174 16.9638C79.1696 16.6358 79.3447 16.2557 79.43 15.8514C79.5142 15.4676 79.5419 15.0735 79.5122 14.6817C79.4157 13.3547 78.7294 12.4904 77.4652 12.0823C76.9682 11.9218 76.4517 11.8291 75.9297 11.8067C74.9512 11.7625 73.9728 11.7924 72.9917 11.7859C72.9565 11.7859 72.9199 11.7859 72.8847 11.7859C72.8621 11.7853 72.8397 11.7894 72.8188 11.798C72.7979 11.8066 72.779 11.8194 72.7634 11.8357C72.7478 11.852 72.7358 11.8714 72.7281 11.8926C72.7205 11.9138 72.7174 11.9363 72.719 11.9588C72.719 12.0303 72.719 12.1031 72.719 12.1745L72.723 15.0495Z" fill="#010101"/>
<path d="M118.03 17.6125C118.03 15.4272 118.03 13.2428 118.03 11.0593C118.03 10.5056 118.068 10.4692 118.629 10.4692H125.636C126.13 10.4692 126.189 10.5277 126.189 11.0268C126.189 11.1789 126.196 11.3322 126.181 11.483C126.162 11.6793 126.089 11.743 125.89 11.7729C125.783 11.7833 125.675 11.7872 125.567 11.7845H119.774C119.359 11.7845 119.359 11.7846 119.359 12.2057V16.5025C119.359 16.5662 119.359 16.6325 119.359 16.691C119.372 16.8716 119.408 16.908 119.586 16.9197C119.658 16.9197 119.73 16.9197 119.802 16.9197H124.926C125.441 16.9197 125.495 16.9743 125.495 17.489C125.495 17.632 125.501 17.7762 125.487 17.9192C125.489 17.9577 125.482 17.9962 125.468 18.032C125.453 18.0677 125.431 18.1001 125.404 18.1269C125.376 18.1536 125.342 18.1742 125.306 18.1873C125.27 18.2003 125.231 18.2055 125.192 18.2025C125.094 18.2103 124.995 18.2025 124.896 18.2025H119.719C119.391 18.2025 119.361 18.2337 119.359 18.5509V23.1168C119.359 23.43 119.385 23.4547 119.697 23.4547H125.362C125.524 23.4547 125.685 23.4547 125.847 23.4547C126.108 23.4651 126.198 23.5496 126.206 23.816C126.206 24.0214 126.206 24.228 126.206 24.4334C126.206 24.6387 126.113 24.7362 125.893 24.7518C125.812 24.7583 125.731 24.7518 125.65 24.7518H118.582C118.068 24.7518 118.03 24.7154 118.03 24.2059C118.029 22.0129 118.029 19.8151 118.03 17.6125Z" fill="#010101"/>
<path d="M110.265 18.0564C110.34 17.992 110.4 17.911 110.438 17.8198C111.77 15.5687 113.109 13.3228 114.423 11.0613C114.673 10.6298 114.969 10.3946 115.477 10.466C115.575 10.4803 115.675 10.466 115.773 10.466C116.103 10.4842 116.183 10.6272 116.034 10.9248C116.005 10.9794 115.97 11.0327 115.939 11.086C114.315 13.7617 112.69 16.4343 111.063 19.104C110.974 19.2472 110.929 19.4135 110.933 19.5822C110.933 21.1133 110.933 22.6444 110.933 24.1754C110.933 24.2469 110.933 24.3184 110.933 24.3899C110.922 24.6771 110.847 24.7577 110.562 24.7655C110.365 24.7655 110.171 24.7655 109.969 24.7655C109.697 24.7564 109.623 24.6836 109.6 24.412C109.593 24.3327 109.6 24.2508 109.6 24.1702C109.6 22.6665 109.6 21.1614 109.6 19.6576C109.6 19.4972 109.555 19.3398 109.469 19.204C107.853 16.518 106.24 13.8319 104.629 11.1458C104.558 11.032 104.495 10.9135 104.44 10.791C104.372 10.6246 104.419 10.5427 104.596 10.4972C104.666 10.4813 104.737 10.473 104.809 10.4725C104.962 10.4725 105.116 10.4816 105.268 10.4725C105.429 10.4553 105.591 10.489 105.732 10.5688C105.872 10.6486 105.984 10.7704 106.051 10.917C106.312 11.3862 106.594 11.845 106.865 12.3077C107.949 14.1516 109.033 15.9963 110.119 17.8419C110.171 17.9056 110.214 17.9732 110.265 18.0564Z" fill="#010101"/>
<path d="M82.8678 17.6203V11.0112C82.8678 10.5251 82.9239 10.4692 83.4053 10.4692C83.5357 10.4692 83.6753 10.4692 83.8097 10.4692C84.1032 10.4809 84.1867 10.5654 84.2011 10.8592C84.2011 10.9384 84.2011 11.0203 84.2011 11.1009V23.0024C84.2011 23.4573 84.2011 23.4586 84.659 23.4586H90.6211C90.702 23.4586 90.7829 23.4586 90.8638 23.4586C91.1534 23.469 91.2356 23.5444 91.2434 23.8251C91.25 24.0318 91.2513 24.2384 91.2434 24.4438C91.2317 24.6725 91.156 24.7414 90.9277 24.7583C90.8481 24.7583 90.766 24.7583 90.6851 24.7583H83.4287C82.8938 24.7583 82.8678 24.7323 82.8678 24.1942V17.6203Z" fill="#010101"/>
<path d="M11.6967 17.9057C11.6967 15.5961 11.7111 13.2865 11.6876 10.9769C11.6876 10.3609 11.9694 10.2816 12.4182 10.5402C16.506 12.8875 20.5999 15.2223 24.6999 17.5444C24.7227 17.5587 24.7462 17.5717 24.7704 17.5834C25.0822 17.7134 25.1018 18.0643 24.7599 18.2554C22.8656 19.3185 20.9765 20.3999 19.0927 21.4748L12.4469 25.2569C12.355 25.3136 12.26 25.3652 12.1625 25.4116C12.1158 25.4351 12.064 25.4467 12.0118 25.4454C11.9595 25.4442 11.9084 25.43 11.8629 25.4043C11.8174 25.3786 11.7791 25.342 11.7512 25.298C11.7234 25.2539 11.7069 25.2036 11.7033 25.1517C11.6967 25.0625 11.6967 24.973 11.7033 24.8839C11.6989 22.5592 11.6967 20.2331 11.6967 17.9057Z" fill="white"/>
</svg>
