<svg width="71" height="71" viewBox="0 0 71 71" fill="none" xmlns="http://www.w3.org/2000/svg">
<path d="M71 35.5C71 55.1061 55.1061 71 35.5 71C15.8939 71 0 55.1061 0 35.5C0 15.8939 15.8939 0 35.5 0C55.1061 0 71 15.5596 71 35.5Z" fill="white"/>
<path d="M49.7506 57.8543C51.9699 57.8543 54.1903 57.8455 56.4095 57.8609C56.8271 57.8609 57.0171 57.7507 57.0955 57.3099C57.4623 55.2293 57.8688 53.1553 58.2587 51.0802C58.568 49.4547 58.8895 47.8325 59.1888 46.2059C59.2562 45.8379 59.5125 45.893 59.7489 45.893C61.8529 45.8885 63.9576 45.8885 66.0631 45.893C67.0496 45.893 68.036 45.904 69.0225 45.893C69.45 45.8863 69.5307 46.0373 69.4025 46.4274C67.8843 51.0827 65.4195 55.3753 62.1624 59.0369C58.9053 62.6984 54.9259 65.6502 50.4731 67.7074C48.0336 68.8419 45.4691 69.6871 42.8322 70.2256C41.3232 70.5286 39.78 70.6664 38.2478 70.8515C35.9844 71.116 33.7187 70.9948 31.4652 70.7413C28.5604 70.4143 25.7084 69.7231 22.977 68.6838C15.3033 65.7865 8.86578 60.3378 4.75018 53.2567C3.47975 51.0961 2.4535 48.8016 1.69028 46.4153C0.814287 43.6272 0.221086 40.773 0.0907364 37.846C0.0587013 37.1429 -0.0296713 36.4365 0.0100964 35.7367C0.12719 33.7112 0.169167 31.6681 0.471843 29.6668C1.01754 26.0544 2.18848 22.6139 3.86093 19.3585C7.78118 11.7105 14.3457 5.738 22.3397 2.54612C24.7009 1.60215 27.1565 0.912414 29.6646 0.488651C32.1293 0.0689439 34.6326 -0.0810848 37.1299 0.0412315C40.151 0.180249 43.1424 0.69861 46.0335 1.58406C48.1129 2.23879 50.1337 3.06599 52.0748 4.05699C52.3698 4.20576 52.4725 4.40523 52.4062 4.73032C52.0307 6.6449 51.6606 8.55727 51.2961 10.4674C51.021 11.9309 50.7747 13.3999 50.4996 14.8634C50.2245 16.3269 49.9252 17.7871 49.6435 19.2505C49.4491 20.2633 49.269 21.2794 49.0779 22.2932C48.7863 23.836 48.4891 25.3789 48.1942 26.9217C47.928 28.3378 47.6684 29.755 47.401 31.1722C47.116 32.6842 46.8233 34.195 46.5383 35.707C46.2654 37.155 46.0014 38.6053 45.7286 40.0534C45.3486 42.0645 44.9608 44.0746 44.5842 46.0869C44.3113 47.5504 44.0594 49.0183 43.7844 50.4818C43.5049 51.9618 43.2055 53.4385 42.9227 54.9174C42.7626 55.7538 42.6179 56.5925 42.461 57.43C42.3936 57.7904 42.6068 57.8477 42.8907 57.8477C43.844 57.8477 44.7974 57.8477 45.7518 57.8477L49.7506 57.8543ZM36.9863 33.4567C36.9653 33.3994 36.9454 33.3465 36.9256 33.2859C37.1377 33.0655 37.3398 32.8395 37.5652 32.6346C40.1633 30.2726 42.7626 27.9124 45.3629 25.5541C45.48 25.4439 45.6236 25.3183 45.6524 25.1783C45.9109 23.9132 46.1495 22.6437 46.3859 21.3763C46.5836 20.3173 46.767 19.2549 46.9647 18.1948C47.1624 17.1347 47.3823 16.0481 47.5833 14.9736C47.77 13.9818 47.9379 12.9789 48.1301 11.9838C48.3323 10.9424 48.5598 9.90541 48.7642 8.864C49.0039 7.64517 49.2315 6.42303 49.4612 5.20199C49.4922 5.03999 49.501 4.87138 49.5341 4.59478C49.3408 4.75788 49.2502 4.824 49.1707 4.90114C47.0593 6.94428 44.9491 8.98816 42.8399 11.0328C39.8419 13.9546 36.8479 16.8801 33.8579 19.8093C32.5323 21.1041 31.1913 22.3869 29.8635 23.6818C26.9023 26.569 23.9451 29.4607 20.992 32.3569C20.7825 32.5796 20.6308 32.8501 20.5501 33.1448C20.4198 33.5856 20.3712 34.0407 20.2839 34.4904C20.0795 35.5483 19.863 36.604 19.6697 37.6642C19.4709 38.7574 19.3074 39.8572 19.1052 40.9504C18.8401 42.383 18.5529 43.8046 18.2734 45.2317C18.2149 45.5282 18.3043 45.7166 18.6424 45.7144H19.0367H41.0349C41.1663 45.7144 41.3232 45.7574 41.4237 45.7012C41.5817 45.6142 41.7938 45.4808 41.8236 45.3309C42.0987 43.971 42.3284 42.6023 42.5969 41.2402C43.0509 38.8984 43.5215 36.56 43.9821 34.2193C44.1003 33.6209 44.013 33.5151 43.4165 33.514C41.4922 33.514 39.569 33.514 37.6458 33.514C37.4238 33.514 37.205 33.4765 36.9863 33.4567ZM19.4311 16.7754L19.5614 16.8029V21.2033C19.5614 22.0475 19.5614 22.0475 20.3899 22.0353C20.4562 22.0353 20.5214 22.0353 20.5877 22.0353C20.897 22.0408 21.0295 21.891 21.0295 21.5813C21.024 19.1866 21.0295 16.7919 21.0185 14.3972C21.0188 14.3189 21.0031 14.2413 20.9726 14.1692C20.942 14.097 20.8971 14.0318 20.8406 13.9774C20.4606 13.7041 19.4874 13.9465 19.2334 14.3576C18.0794 16.2237 16.9261 18.0901 15.7736 19.9569C15.667 20.1015 15.5495 20.2378 15.4223 20.3647C15.2698 20.131 15.1594 19.9702 15.0577 19.8037C13.9862 18.0593 12.9015 16.3236 11.8542 14.5636C11.5571 14.0644 11.2102 13.8473 10.6237 13.8903C9.9487 13.941 9.91225 13.9355 9.91115 14.6364C9.91115 16.883 9.91115 19.13 9.91115 21.3774C9.91115 22.0166 9.93435 22.0386 10.5828 22.0386H10.7794C11.3936 22.032 11.4301 22.0001 11.4301 21.4028C11.4301 20.0914 11.4301 18.7789 11.4301 17.4664C11.4301 17.2956 11.4466 17.1247 11.4555 16.9528C11.6246 17.0416 11.7632 17.1791 11.8531 17.3473C12.7369 18.78 13.6106 20.2269 14.5043 21.6607C14.8567 22.2293 16.1028 22.2172 16.4507 21.6518C16.9567 20.8297 17.4526 19.9988 17.9575 19.1767C18.4479 18.3722 18.9384 17.5744 19.4311 16.7754ZM29.8977 16.1506L29.8215 15.9853C29.5345 16.0018 29.2466 15.9996 28.9599 15.9786C28.4782 15.9158 28.2098 16.1296 27.9955 16.5396C27.4586 17.5678 26.8908 18.5805 26.3297 19.5966C26.2613 19.699 26.184 19.7952 26.0988 19.8842C25.9916 19.797 25.8955 19.6971 25.8127 19.5867C25.1996 18.5254 24.5865 17.4631 23.9944 16.3908C23.8287 16.0899 23.6155 15.9632 23.2841 15.9841C23.0875 15.9963 22.8898 15.9841 22.6931 15.9841C22.1894 15.9941 22.1408 16.0745 22.3894 16.5263C23.0897 17.7826 23.7404 19.072 24.5247 20.2732C25.1179 21.1824 25.235 21.9329 24.5854 22.8828C23.9149 23.8614 23.9955 23.9077 25.204 23.9022C25.5542 23.9022 25.7486 23.792 25.9254 23.4614C26.8268 21.7565 27.7713 20.0748 28.6959 18.3821C29.1024 17.6438 29.4945 16.8955 29.8977 16.1506Z" fill="#232B3A"/>
<path d="M65.1109 15.7246C65.5871 16.496 66.0886 17.2586 66.5326 18.0488C69.0661 22.5385 70.5861 27.526 70.9866 32.6627C71.0363 33.3051 70.9745 33.3768 70.3371 33.3768H62.2046C61.6302 33.3768 61.6224 33.3569 61.7285 32.785C62.0985 30.7903 62.4542 28.7924 62.8331 26.7988C63.3501 24.0669 63.8859 21.3372 64.4095 18.6053C64.5907 17.6598 64.7564 16.712 64.9287 15.7654L65.1109 15.7246Z" fill="#232B3A"/>
<path d="M36.9863 33.4562C37.2073 33.4761 37.4282 33.5135 37.6425 33.5135C39.5657 33.5135 41.4889 33.5135 43.4132 33.5135C44.0097 33.5135 44.097 33.6238 43.9788 34.2188C43.5237 36.5628 43.0476 38.8991 42.5936 41.2431C42.3285 42.6052 42.0987 43.9739 41.8203 45.3338C41.7905 45.4815 41.5784 45.617 41.4204 45.7041C41.3199 45.7603 41.163 45.7173 41.0316 45.7173H19.039H18.6446C18.3066 45.7173 18.2171 45.5311 18.2756 45.2346C18.5529 43.8075 18.8423 42.3826 19.1074 40.9533C19.3096 39.8601 19.4731 38.7603 19.6719 37.6671C19.8652 36.6069 20.0817 35.5512 20.2861 34.4932C20.3734 34.0436 20.422 33.5841 20.5523 33.1477C20.633 32.853 20.7847 32.5825 20.9942 32.3597C23.9399 29.4592 26.8971 26.5675 29.8657 23.6846C31.1913 22.3898 32.5335 21.107 33.8601 19.8121C36.856 16.8888 39.85 13.9634 42.8421 11.0357C44.9461 8.9859 47.0564 6.94202 49.1729 4.90402C49.2525 4.82688 49.343 4.76076 49.5364 4.59766C49.5032 4.87647 49.4944 5.03846 49.4634 5.20487C49.2337 6.42591 49.0061 7.64805 48.7664 8.86688C48.562 9.90829 48.3345 10.9453 48.1323 11.9867C47.9401 12.9785 47.7722 13.9803 47.5855 14.9765C47.3845 16.0509 47.168 17.1232 46.9669 18.1977C46.7659 19.2721 46.5858 20.3202 46.3881 21.3792C46.1517 22.6476 45.9131 23.9139 45.6546 25.1812C45.6259 25.3211 45.4823 25.4512 45.3652 25.557C42.767 27.9131 40.167 30.2721 37.5652 32.6341C37.3442 32.8391 37.1377 33.0683 36.9256 33.2854C36.9455 33.3427 36.9653 33.3989 36.9863 33.4562Z" fill="#427DE7"/>
<path d="M19.4311 16.7749C18.9384 17.5739 18.4369 18.3717 17.952 19.1729C17.4471 19.9972 16.9511 20.8259 16.4452 21.648C16.0972 22.2134 14.8512 22.2255 14.4988 21.6568C13.6084 20.2242 12.7313 18.7817 11.8476 17.3435C11.7576 17.1753 11.6191 17.0378 11.4499 16.949C11.4411 17.1209 11.4245 17.2917 11.4245 17.4626C11.4245 18.7751 11.4245 20.0876 11.4245 21.399C11.4245 21.9963 11.3881 22.0282 10.7739 22.0348H10.5806C9.93213 22.0348 9.91004 22.0139 9.90894 21.3736C9.90894 19.127 9.90894 16.88 9.90894 14.6326C9.90894 13.9317 9.94649 13.9372 10.6214 13.8865C11.208 13.8435 11.5549 14.0606 11.852 14.5598C12.897 16.3231 13.9818 18.0554 15.0555 19.7999C15.1572 19.9663 15.2676 20.1305 15.4201 20.3609C15.5473 20.234 15.6648 20.0977 15.7714 19.9531C16.9268 18.0885 18.0801 16.222 19.2311 14.3538C19.4852 13.9427 20.4584 13.7003 20.8384 13.9736C20.8949 14.028 20.9398 14.0932 20.9704 14.1654C21.0009 14.2375 21.0165 14.3151 21.0163 14.3934C21.0273 16.7881 21.0218 19.1828 21.0273 21.5775C21.0273 21.8872 20.8992 22.037 20.5855 22.0315C20.5192 22.0315 20.454 22.0315 20.3877 22.0315C19.5592 22.0436 19.5592 22.0436 19.5592 21.1995V16.8024L19.4311 16.7749Z" fill="white"/>
<path d="M29.8977 16.1501C29.4979 16.8951 29.1024 17.6434 28.6959 18.385C27.7713 20.0777 26.8268 21.7594 25.9254 23.4642C25.7486 23.7948 25.5542 23.905 25.204 23.905C23.9956 23.9106 23.9149 23.8643 24.5854 22.8857C25.235 21.9357 25.1179 21.1853 24.5247 20.2761C23.7404 19.0738 23.0886 17.7844 22.3894 16.5292C22.1375 16.0774 22.1894 15.997 22.6932 15.987C22.8898 15.987 23.0875 15.997 23.2842 15.987C23.6155 15.9661 23.8287 16.0972 23.9944 16.3937C24.5865 17.4659 25.1996 18.5283 25.8127 19.5895C25.8955 19.7 25.9916 19.7999 26.0988 19.8871C26.184 19.7981 26.2613 19.7019 26.3297 19.5995C26.8909 18.5834 27.4587 17.5706 27.9955 16.5425C28.2098 16.1325 28.4783 15.9187 28.9599 15.9815C29.2466 16.0025 29.5345 16.0047 29.8215 15.9881L29.8977 16.1501Z" fill="white"/>
</svg>
