<svg width="119" height="43" viewBox="0 0 119 43" fill="none" xmlns="http://www.w3.org/2000/svg">
<path d="M2.21205 13.4201H8.95237V14.948H0.326717V0.778542H2.21205V13.4201Z" fill="black"/>
<path d="M10.3297 9.5858C10.3297 8.55423 10.5316 7.62647 10.9354 6.80251C11.3457 5.97856 11.9123 5.34275 12.6351 4.89508C13.3645 4.44742 14.1948 4.22359 15.1261 4.22359C16.5654 4.22359 17.7278 4.71991 18.6135 5.71255C19.5057 6.70519 19.9518 8.02547 19.9518 9.67339V9.7999C19.9518 10.825 19.7532 11.7463 19.3559 12.5637C18.9652 13.3747 18.4018 14.0073 17.6659 14.4614C16.9366 14.9156 16.0965 15.1426 15.1457 15.1426C13.7129 15.1426 12.5505 14.6463 11.6583 13.6537C10.7726 12.661 10.3297 11.3473 10.3297 9.71232V9.5858ZM12.1467 9.7999C12.1467 10.9677 12.417 11.9052 12.9575 12.6124C13.5045 13.3196 14.2339 13.6731 15.1457 13.6731C16.0639 13.6731 16.7933 13.3163 17.3338 12.6027C17.8743 11.8825 18.1446 10.8769 18.1446 9.5858C18.1446 8.43096 17.8678 7.49671 17.3143 6.78305C16.7672 6.0629 16.0379 5.70282 15.1261 5.70282C14.2339 5.70282 13.5143 6.05641 12.9673 6.76359C12.4202 7.47076 12.1467 8.48287 12.1467 9.7999Z" fill="black"/>
<path d="M21.7883 9.59553C21.7883 7.95411 22.1693 6.65005 22.9312 5.68336C23.6932 4.71018 24.7026 4.22359 25.9595 4.22359C27.2489 4.22359 28.2551 4.67774 28.978 5.58604L29.0659 4.41823H30.7168V14.695C30.7168 16.0574 30.3097 17.1312 29.4957 17.9162C28.6882 18.7012 27.6006 19.0937 26.233 19.0937C25.471 19.0937 24.7254 18.9316 23.996 18.6072C23.2666 18.2828 22.7098 17.8384 22.3256 17.2739L23.2633 16.1937C24.0383 17.1474 24.9859 17.6243 26.106 17.6243C26.9852 17.6243 27.669 17.3777 28.1574 16.8846C28.6523 16.3916 28.8998 15.6974 28.8998 14.802V13.897C28.1769 14.7274 27.1903 15.1426 25.9399 15.1426C24.7026 15.1426 23.6997 14.6463 22.9312 13.6537C22.1693 12.661 21.7883 11.3083 21.7883 9.59553ZM23.6052 9.7999C23.6052 10.9872 23.8495 11.9214 24.3379 12.6027C24.8263 13.2774 25.5101 13.6148 26.3893 13.6148C27.529 13.6148 28.3658 13.099 28.8998 12.0674V7.25991C28.3463 6.25429 27.5159 5.75148 26.4088 5.75148C25.5297 5.75148 24.8426 6.09209 24.3477 6.77332C23.8527 7.45454 23.6052 8.4634 23.6052 9.7999Z" fill="black"/>
<path d="M35.4155 14.948H33.6083V4.41823H35.4155V14.948ZM33.4617 1.62521C33.4617 1.33325 33.5497 1.08672 33.7255 0.885592C33.9078 0.684468 34.1748 0.583907 34.5265 0.583907C34.8782 0.583907 35.1452 0.684468 35.3275 0.885592C35.5099 1.08672 35.6011 1.33325 35.6011 1.62521C35.6011 1.91716 35.5099 2.16045 35.3275 2.35509C35.1452 2.54973 34.8782 2.64704 34.5265 2.64704C34.1748 2.64704 33.9078 2.54973 33.7255 2.35509C33.5497 2.16045 33.4617 1.91716 33.4617 1.62521Z" fill="black"/>
<path d="M40.7686 1.8685V4.41823H42.7419V5.80987H40.7686V12.3399C40.7686 12.7616 40.8566 13.0795 41.0324 13.2936C41.2082 13.5012 41.5078 13.605 41.9311 13.605C42.1395 13.605 42.426 13.5661 42.7907 13.4882V14.948C42.3153 15.0778 41.853 15.1426 41.4036 15.1426C40.5961 15.1426 39.9872 14.8994 39.5769 14.4128C39.1666 13.9262 38.9615 13.2352 38.9615 12.3399V5.80987H37.037V4.41823H38.9615V1.8685H40.7686Z" fill="black"/>
<path d="M49.2478 15.1426C47.815 15.1426 46.6493 14.6755 45.7506 13.7413C44.8519 12.8005 44.4026 11.5451 44.4026 9.97507V9.64419C44.4026 8.59965 44.6012 7.66864 44.9984 6.85117C45.4022 6.02721 45.9623 5.38492 46.6786 4.92428C47.4015 4.45715 48.183 4.22359 49.0231 4.22359C50.3972 4.22359 51.4652 4.6745 52.2272 5.57631C52.9891 6.47812 53.3701 7.7692 53.3701 9.44956V10.1989H46.2097C46.2358 11.237 46.5386 12.0771 47.1182 12.7194C47.7043 13.3552 48.4467 13.6731 49.3455 13.6731C49.9837 13.6731 50.5242 13.5434 50.967 13.2839C51.4099 13.0244 51.7974 12.6805 52.1295 12.2523L53.2333 13.1087C52.3477 14.4647 51.0191 15.1426 49.2478 15.1426ZM49.0231 5.70282C48.2937 5.70282 47.6815 5.96882 47.1866 6.50083C46.6917 7.02634 46.3856 7.76596 46.2683 8.71967H51.5629V8.58343C51.5108 7.66864 51.2634 6.96147 50.8205 6.4619C50.3777 5.95585 49.7785 5.70282 49.0231 5.70282Z" fill="black"/>
<path d="M59.7099 13.6731C60.3546 13.6731 60.918 13.4785 61.3999 13.0892C61.8818 12.7 62.1488 12.2134 62.2009 11.6295H63.9104C63.8778 12.2328 63.6694 12.807 63.2852 13.352C62.901 13.897 62.3865 14.3317 61.7418 14.6561C61.1036 14.9805 60.4263 15.1426 59.7099 15.1426C58.2707 15.1426 57.1245 14.6658 56.2714 13.7121C55.4248 12.7519 55.0015 11.4413 55.0015 9.78044V9.47875C55.0015 8.45367 55.1903 7.54213 55.568 6.74412C55.9458 5.94612 56.4863 5.32653 57.1896 4.88535C57.8995 4.44418 58.7363 4.22359 59.7001 4.22359C60.8854 4.22359 61.8688 4.57718 62.6503 5.28436C63.4383 5.99153 63.8583 6.90956 63.9104 8.03845H62.2009C62.1488 7.35722 61.8883 6.79927 61.4194 6.36458C60.957 5.92341 60.384 5.70282 59.7001 5.70282C58.7819 5.70282 58.0688 6.0337 57.5608 6.69546C57.0594 7.35074 56.8086 8.30121 56.8086 9.54687V9.88749C56.8086 11.1007 57.0594 12.035 57.5608 12.6902C58.0623 13.3455 58.7786 13.6731 59.7099 13.6731Z" fill="black"/>
<path d="M67.7495 5.69309C68.5505 4.71342 69.5925 4.22359 70.8754 4.22359C73.1091 4.22359 74.2358 5.47899 74.2553 7.98979V14.948H72.4481V7.98006C72.4416 7.22098 72.2658 6.65978 71.9206 6.29646C71.582 5.93314 71.0512 5.75148 70.3284 5.75148C69.7422 5.75148 69.2278 5.90719 68.7849 6.21861C68.3421 6.53002 67.9969 6.93876 67.7495 7.44481V14.948H65.9423V0H67.7495V5.69309Z" fill="black"/>
<path d="M5.38684 32.636C3.77828 32.1754 2.60605 31.6109 1.87015 30.9427C1.14076 30.2679 0.776067 29.4375 0.776067 28.4513C0.776067 27.3354 1.22217 26.4141 2.11437 25.6875C3.01308 24.9544 4.17879 24.5878 5.61152 24.5878C6.58838 24.5878 7.45778 24.776 8.21973 25.1523C8.98819 25.5286 9.58081 26.0476 9.99761 26.7093C10.4209 27.3711 10.6326 28.0945 10.6326 28.8795H8.74723C8.74723 28.0231 8.47371 27.3516 7.92667 26.865C7.37963 26.372 6.60791 26.1254 5.61152 26.1254C4.68676 26.1254 3.96389 26.3298 3.4429 26.7385C2.92842 27.1408 2.67117 27.702 2.67117 28.4221C2.67117 28.9996 2.91538 29.4894 3.40381 29.8916C3.89875 30.2874 4.7356 30.6507 5.91435 30.9816C7.0996 31.3125 8.02435 31.679 8.68861 32.0813C9.35939 32.477 9.85434 32.9409 10.1734 33.4729C10.4991 34.0049 10.6619 34.631 10.6619 35.3512C10.6619 36.4995 10.2125 37.4208 9.3138 38.115C8.4151 38.8027 7.21357 39.1466 5.7092 39.1466C4.73235 39.1466 3.82061 38.9616 2.974 38.5918C2.12739 38.2155 1.4729 37.703 1.01052 37.0542C0.554651 36.4054 0.326717 35.6691 0.326717 34.8451H2.21205C2.21205 35.7015 2.5279 36.3795 3.15961 36.879C3.79782 37.3721 4.64769 37.6187 5.7092 37.6187C6.69909 37.6187 7.45777 37.4175 7.98528 37.0153C8.51278 36.613 8.77654 36.0648 8.77654 35.3706C8.77654 34.6764 8.53233 34.1412 8.0439 33.7649C7.55547 33.3821 6.66978 33.0058 5.38684 32.636Z" fill="black"/>
<path d="M12.3518 33.5994C12.3518 31.945 12.7328 30.6377 13.4948 29.6775C14.2567 28.7108 15.2792 28.2275 16.5621 28.2275C17.8125 28.2275 18.7991 28.646 19.522 29.4829L19.6001 28.4221H21.2608V43.0003H19.4536V37.9787C18.7242 38.7573 17.7539 39.1466 16.5426 39.1466C15.2661 39.1466 14.2469 38.6535 13.485 37.6673C12.7296 36.6747 12.3518 35.3609 12.3518 33.726V33.5994ZM14.159 33.8038C14.159 35.0105 14.413 35.9578 14.921 36.6455C15.4354 37.3332 16.1258 37.6771 16.9919 37.6771C18.0665 37.6771 18.887 37.2034 19.4536 36.2562V31.0984C18.8805 30.1706 18.0665 29.7067 17.0114 29.7067C16.1388 29.7067 15.4452 30.0538 14.9307 30.748C14.4163 31.4357 14.159 32.4543 14.159 33.8038Z" fill="black"/>
<path d="M30.6875 37.9106C29.9841 38.7346 28.9519 39.1466 27.5908 39.1466C26.4642 39.1466 25.6045 38.8222 25.0119 38.1734C24.4258 37.5181 24.1295 36.5514 24.123 35.2733V28.4221H25.9302V35.2246C25.9302 36.8207 26.5814 37.6187 27.8839 37.6187C29.2645 37.6187 30.1828 37.1061 30.6386 36.081V28.4221H32.4458V38.9519H30.7265L30.6875 37.9106Z" fill="black"/>
<path d="M39.5866 39.1466C38.1539 39.1466 36.9882 38.6794 36.0895 37.7452C35.1908 36.8044 34.7414 35.549 34.7414 33.979V33.6481C34.7414 32.6036 34.94 31.6725 35.3373 30.8551C35.7411 30.0311 36.3011 29.3888 37.0175 28.9282C37.7404 28.4611 38.5219 28.2275 39.362 28.2275C40.7361 28.2275 41.8041 28.6784 42.5661 29.5802C43.328 30.482 43.709 31.7731 43.709 33.4535V34.2028H36.5486C36.5747 35.2409 36.8775 36.081 37.4571 36.7233C38.0432 37.3591 38.7856 37.6771 39.6843 37.6771C40.3225 37.6771 40.8631 37.5473 41.3059 37.2878C41.7487 37.0283 42.1362 36.6844 42.4684 36.2562L43.5722 37.1126C42.6865 38.4686 41.358 39.1466 39.5866 39.1466ZM39.362 29.7067C38.6326 29.7067 38.0204 29.9727 37.5255 30.5047C37.0305 31.0302 36.7244 31.7699 36.6072 32.7236H41.9018V32.5873C41.8497 31.6725 41.6022 30.9654 41.1594 30.4658C40.7165 29.9598 40.1174 29.7067 39.362 29.7067Z" fill="black"/>
<path d="M50.1953 39.1466C48.7626 39.1466 47.5969 38.6794 46.6982 37.7452C45.7995 36.8044 45.3501 35.549 45.3501 33.979V33.6481C45.3501 32.6036 45.5487 31.6725 45.946 30.8551C46.3498 30.0311 46.9098 29.3888 47.6262 28.9282C48.3491 28.4611 49.1305 28.2275 49.9706 28.2275C51.3448 28.2275 52.4128 28.6784 53.1747 29.5802C53.9367 30.482 54.3177 31.7731 54.3177 33.4535V34.2028H47.1573C47.1833 35.2409 47.4862 36.081 48.0658 36.7233C48.6519 37.3591 49.3943 37.6771 50.293 37.6771C50.9312 37.6771 51.4718 37.5473 51.9146 37.2878C52.3574 37.0283 52.7449 36.6844 53.0771 36.2562L54.1809 37.1126C53.2952 38.4686 51.9667 39.1466 50.1953 39.1466ZM49.9706 29.7067C49.2413 29.7067 48.6291 29.9727 48.1341 30.5047C47.6392 31.0302 47.3331 31.7699 47.2159 32.7236H52.5105V32.5873C52.4584 31.6725 52.2109 30.9654 51.7681 30.4658C51.3252 29.9598 50.7261 29.7067 49.9706 29.7067Z" fill="black"/>
<path d="M58.1176 37.4824H64.3011V38.9519H55.9099V37.6284L61.7418 29.9111H55.9979V28.4221H64.0081V29.697L58.1176 37.4824Z" fill="black"/>
<path d="M70.5726 39.1466C69.1398 39.1466 67.9741 38.6794 67.0754 37.7452C66.1767 36.8044 65.7274 35.549 65.7274 33.979V33.6481C65.7274 32.6036 65.926 31.6725 66.3232 30.8551C66.727 30.0311 67.2871 29.3888 68.0034 28.9282C68.7263 28.4611 69.5078 28.2275 70.3479 28.2275C71.722 28.2275 72.79 28.6784 73.552 29.5802C74.3139 30.482 74.6949 31.7731 74.6949 33.4535V34.2028H67.5345C67.5606 35.2409 67.8634 36.081 68.443 36.7233C69.0291 37.3591 69.7715 37.6771 70.6703 37.6771C71.3085 37.6771 71.849 37.5473 72.2919 37.2878C72.7347 37.0283 73.1222 36.6844 73.4543 36.2562L74.5582 37.1126C73.6725 38.4686 72.3439 39.1466 70.5726 39.1466ZM70.3479 29.7067C69.6185 29.7067 69.0064 29.9727 68.5114 30.5047C68.0165 31.0302 67.7104 31.7699 67.5932 32.7236H72.8877V32.5873C72.8356 31.6725 72.5882 30.9654 72.1453 30.4658C71.7025 29.9598 71.1033 29.7067 70.3479 29.7067Z" fill="black"/>
<path d="M85.7432 33.8038C85.7432 35.4128 85.372 36.7071 84.6296 37.6868C83.8872 38.66 82.8908 39.1466 81.6404 39.1466C80.3053 39.1466 79.2731 38.6762 78.5437 37.7354L78.4558 38.9519H76.7952V24.0039H78.6024V29.5802C79.3317 28.6784 80.3379 28.2275 81.6208 28.2275C82.9038 28.2275 83.9099 28.7108 84.6393 29.6775C85.3752 30.6442 85.7432 31.9677 85.7432 33.6481V33.8038ZM83.936 33.5994C83.936 32.3732 83.6983 31.426 83.2229 30.7578C82.7475 30.0895 82.0637 29.7554 81.1715 29.7554C79.9797 29.7554 79.1233 30.3069 78.6024 31.4098V35.9643C79.1559 37.0672 80.0188 37.6187 81.191 37.6187C82.0572 37.6187 82.7312 37.2845 83.2131 36.6163C83.695 35.948 83.936 34.9424 83.936 33.5994Z" fill="black"/>
<path d="M87.5504 33.5897C87.5504 32.5581 87.7523 31.6304 88.156 30.8064C88.5663 29.9825 89.1329 29.3467 89.8558 28.899C90.5851 28.4513 91.4155 28.2275 92.3468 28.2275C93.786 28.2275 94.9484 28.7238 95.8341 29.7165C96.7263 30.7091 97.1724 32.0294 97.1724 33.6773V33.8038C97.1724 34.8289 96.9738 35.7502 96.5765 36.5676C96.1858 37.3786 95.6225 38.0112 94.8866 38.4653C94.1572 38.9195 93.3171 39.1466 92.3663 39.1466C90.9336 39.1466 89.7711 38.6502 88.8789 37.6576C87.9932 36.6649 87.5504 35.3512 87.5504 33.7162V33.5897ZM89.3673 33.8038C89.3673 34.9716 89.6376 35.9091 90.1781 36.6163C90.7252 37.3235 91.4545 37.6771 92.3663 37.6771C93.2845 37.6771 94.0139 37.3202 94.5544 36.6066C95.095 35.8864 95.3652 34.8808 95.3652 33.5897C95.3652 32.4349 95.0885 31.5006 94.5349 30.787C93.9879 30.0668 93.2585 29.7067 92.3468 29.7067C91.4545 29.7067 90.7349 30.0603 90.1879 30.7675C89.6408 31.4747 89.3673 32.4868 89.3673 33.8038Z" fill="black"/>
<path d="M102.77 32.2662L105.114 28.4221H107.224L103.766 33.6286L107.332 38.9519H105.241L102.799 35.0105L100.357 38.9519H98.2567L101.822 33.6286L98.3642 28.4221H100.455L102.77 32.2662Z" fill="black"/>
<path d="M117.452 26.1741L116.084 30.0084H115.576L114.209 26.1838V30.0084H113.33V24.7824H114.424L115.83 28.6654L117.237 24.7824H118.331V30.0084H117.452V26.1741ZM112.558 25.5707H111.122V30.0084H110.233V25.5707H108.787V24.7824H112.558V25.5707Z" fill="black"/>
<path d="M76.1562 2.99443C76.1562 2.45461 76.2873 1.95353 76.5495 1.4912C76.8145 1.02888 77.1796 0.66543 77.6448 0.400861C78.1128 0.13362 78.6174 0 79.1587 0C79.7 0 80.2033 0.13362 80.6685 0.400861C81.1337 0.66543 81.4973 1.02888 81.7595 1.4912C82.0246 1.95353 82.1571 2.45461 82.1571 2.99443C82.1571 3.5209 82.0302 4.01396 81.7765 4.47361C81.5227 4.93327 81.1619 5.30339 80.6938 5.584C80.2287 5.86193 79.717 6.00089 79.1587 6.00089C78.6033 6.00089 78.0916 5.86326 77.6236 5.58801C77.1584 5.31008 76.7976 4.94128 76.541 4.48163C76.2845 4.02197 76.1562 3.52624 76.1562 2.99443ZM76.6425 2.99443C76.6425 3.45409 76.7553 3.88034 76.9808 4.27318C77.2064 4.66335 77.5123 4.96934 77.8985 5.19115C78.2876 5.41296 78.7076 5.52387 79.1587 5.52387C79.6126 5.52387 80.0341 5.41163 80.4232 5.18714C80.8123 4.95999 81.1167 4.65266 81.3366 4.26516C81.5594 3.87766 81.6707 3.45409 81.6707 2.99443C81.6707 2.53745 81.5594 2.11655 81.3366 1.73172C81.1167 1.34422 80.8123 1.03957 80.4232 0.817757C80.0341 0.593275 79.6126 0.481033 79.1587 0.481033C78.7076 0.481033 78.2876 0.591938 77.8985 0.813748C77.5094 1.03289 77.2021 1.33754 76.9766 1.72771C76.7539 2.11788 76.6425 2.54012 76.6425 2.99443ZM78.5371 3.29508V4.64999H77.9408V1.24668H79.108C79.5393 1.24668 79.8734 1.33487 80.1103 1.51125C80.3499 1.68495 80.4697 1.93883 80.4697 2.27288C80.4697 2.60159 80.2893 2.8528 79.9284 3.0265C80.2724 3.16012 80.4457 3.43271 80.4486 3.84426V4.08878C80.4486 4.31861 80.4725 4.4843 80.5205 4.58585V4.64999H79.9073C79.8678 4.55378 79.8481 4.38275 79.8481 4.13689C79.8481 3.88835 79.8438 3.74137 79.8354 3.69594C79.7903 3.43939 79.6056 3.30577 79.2814 3.29508H78.5371ZM78.5371 2.78198H79.1968C79.3998 2.77663 79.5633 2.72987 79.6874 2.64168C79.8114 2.55349 79.8734 2.43724 79.8734 2.29293C79.8734 2.09784 79.8185 1.96021 79.7085 1.88004C79.5985 1.79719 79.4026 1.75577 79.1207 1.75577H78.5371V2.78198Z" fill="black"/>
</svg>
