<svg width="126" height="44" viewBox="0 0 126 44" fill="none" xmlns="http://www.w3.org/2000/svg">
<path d="M0.939819 0.128906H31.2291V43.5308H0.939819V0.128906ZM26.8477 4.50128H5.30144V39.1617H26.8481V4.50128H26.8477Z" fill="#FDD700"/>
<path d="M47.3017 12.2725H45.8033C43.8353 9.49703 41.8872 6.73974 39.9387 3.62169H39.9238V12.2725H38.2695V0.207031H39.7679C41.7358 2.96433 43.681 5.70963 45.6142 8.80616H45.6473V0.207031H47.3017V12.2725Z" fill="#010101"/>
<path d="M51.2318 7.50011C51.715 5.91234 52.197 4.44909 52.6272 2.58248H52.6649C53.1481 4.44909 53.5771 5.91234 54.0268 7.50011H51.2318ZM52.0257 0.207031L47.8565 12.2725H49.6457L50.6973 8.98198H54.3379L55.2832 12.2725H57.5953L53.7517 0.207031H52.0257Z" fill="#010101"/>
<path d="M59.5431 12.2725V1.82831H56.3725V0.207031H64.7838V1.82831H61.6128V12.2725H59.5431Z" fill="#010101"/>
<path d="M66.4808 12.2754V0.207031" stroke="#010101" stroke-width="2" stroke-miterlimit="10"/>
<path d="M73.886 10.7566C71.7314 10.7566 70.9739 8.3749 70.9739 6.06605C70.9739 3.84201 71.8344 1.72098 73.886 1.72098C75.94 1.72098 76.7976 3.84201 76.7976 6.06605C76.7976 8.3749 76.0401 10.7566 73.886 10.7566ZM73.886 12.4804C77.04 12.4804 79.0034 9.66853 79.0034 6.06605C79.0034 2.68449 76.834 0 73.886 0C70.9375 0 68.7681 2.68449 68.7681 6.06605C68.7681 9.66895 70.7315 12.4804 73.886 12.4804Z" fill="#010101"/>
<path d="M89.2995 12.2725H87.7965C85.8331 9.49703 83.8817 6.73974 81.9365 3.62169H81.9245V12.2725H80.2639V0.207031H81.7669C83.7303 2.96433 85.6817 5.70963 87.6087 8.80616H87.648V0.207031H89.2995V12.2725Z" fill="#010101"/>
<path d="M93.2325 7.50011C93.7145 5.91234 94.196 4.44909 94.6262 2.58248H94.6627C95.1446 4.44909 95.5778 5.91234 96.0262 7.50011H93.2325ZM94.0264 0.207031L89.848 12.2725H91.6418L92.6964 8.98198H96.3352L97.2805 12.2725H99.5894L95.7474 0.207031H94.0264Z" fill="#010101"/>
<path d="M100.195 0.207031H102.25V10.6546H106.331V12.2725H100.195V0.207031Z" fill="#010101"/>
<path d="M46.0308 22.3683V27.3525C44.9263 27.786 43.772 28.0951 42.5992 28.0951C39.0497 28.0951 36.8058 25.3378 36.8058 21.7866C36.8058 18.4898 39.0497 15.6113 42.6675 15.6113C43.7869 15.6113 44.9081 16.0263 45.596 16.5417L44.9263 17.9748C44.3736 17.6293 43.5114 17.3356 42.7204 17.3356C40.5117 17.3356 39.0133 19.0777 39.0133 21.8172C39.0133 24.6808 40.7372 26.3712 42.5161 26.3712C43.0646 26.3712 43.5296 26.3017 43.9615 26.0775V22.3687H46.0308V22.3683Z" fill="#010101"/>
<path d="M53.4257 17.4406H49.9758V20.7493H53.3545V22.3673H49.9758V26.2639H54.0466V27.8881H47.9094V15.8164H53.4257V17.4406Z" fill="#010101"/>
<path d="M59.8036 26.3704C57.6508 26.3704 56.8904 23.992 56.8904 21.6803C56.8904 19.4591 57.7525 17.3352 59.8036 17.3352C61.8581 17.3352 62.7169 19.4591 62.7169 21.6803C62.7173 23.992 61.9565 26.3704 59.8036 26.3704ZM59.8036 28.0947C62.9593 28.0947 64.9227 25.2828 64.9227 21.6803C64.9227 18.3016 62.7521 15.6113 59.8036 15.6113C56.8556 15.6113 54.6845 18.302 54.6845 21.6803C54.6845 25.2828 56.648 28.0947 59.8036 28.0947Z" fill="#010101"/>
<path d="M74.8557 22.3683V27.3525C73.7557 27.786 72.5981 28.0951 71.4286 28.0951C67.8745 28.0951 65.629 25.3378 65.629 21.7866C65.629 18.4898 67.8745 15.6113 71.4952 15.6113C72.6163 15.6113 73.7375 16.0263 74.4221 16.5417L73.7557 17.9748C73.198 17.6293 72.3375 17.3356 71.5436 17.3356C69.3378 17.3356 67.8348 19.0777 67.8348 21.8172C67.8348 24.6808 69.562 26.3712 71.3376 26.3712C71.8891 26.3712 72.3557 26.3017 72.786 26.0775V22.3687H74.8557V22.3683Z" fill="#010101"/>
<path d="M78.8217 17.4406H79.7368C80.9576 17.4406 81.6456 18.1435 81.6456 19.3887C81.6456 21.0038 80.6668 21.731 79.6822 21.7823C79.4762 21.8034 78.9942 21.8159 78.8217 21.837V17.4406ZM84.0604 27.8881L81.6336 22.8886C82.9608 22.1795 83.7182 20.7493 83.7182 19.301C83.7182 16.9557 82.2881 15.8164 79.973 15.8164H76.7553V27.8881H78.8217V23.3341H79.7186H79.7488L81.7002 27.8881H84.0604Z" fill="#010101"/>
<path d="M87.4755 23.1128C87.9541 21.525 88.4423 20.0585 88.8721 18.1981H88.9056C89.3876 20.0585 89.8207 21.525 90.2692 23.1128H87.4755ZM88.2693 15.8164L84.0939 27.8881H85.8877L86.9393 24.5947H90.5782L91.5235 27.8881H93.8385L89.9936 15.8164H88.2693Z" fill="#010101"/>
<path d="M96.5594 27.8881H94.4901V15.8164H97.717C100.026 15.8164 101.459 16.9557 101.459 19.301C101.459 21.331 99.9592 23.3341 97.4894 23.3341H96.523V21.837C96.626 21.8159 97.1986 21.8034 97.4199 21.7823C98.4078 21.7306 99.3866 21.0038 99.3866 19.3887C99.3866 18.1435 98.6987 17.4406 97.4894 17.4406H96.5594V27.8881Z" fill="#010101"/>
<path d="M111.043 27.8881H108.974V22.0765H104.68V27.8881H102.632V15.8164H104.68V20.4585H108.974V15.8528H111.043V27.8881Z" fill="#010101"/>
<path d="M114.052 27.8881V15.8164" stroke="#010101" stroke-width="2" stroke-miterlimit="10"/>
<path d="M124.387 18.0104C123.884 17.6984 123.06 17.3348 122.266 17.3348C120.163 17.3348 118.627 19.0769 118.627 21.8164C118.627 24.68 120.318 26.3704 122.314 26.3704C123.108 26.3704 123.854 26.113 124.387 25.7676L124.957 27.2673C124.332 27.6979 123.236 28.0947 122.233 28.0947C118.678 28.0947 116.439 25.3374 116.439 21.7833C116.439 18.4898 118.66 15.6113 122.266 15.6113C123.339 15.6113 124.332 16.0598 125.041 16.5417L124.387 18.0104Z" fill="#010101"/>
<path d="M44.69 33.6886C44.1932 33.3795 43.3691 33.0159 42.5769 33.0159C40.4803 33.0159 38.95 34.7551 38.95 37.4884C38.95 40.3425 40.6317 42.0275 42.6269 42.0275C43.4175 42.0275 44.1601 41.7669 44.69 41.4243L45.2585 42.9215C44.6404 43.3484 43.5387 43.7485 42.5434 43.7485C38.9996 43.7485 36.7619 40.9912 36.7619 37.452C36.7619 34.1705 38.9847 31.2949 42.5765 31.2949C43.6446 31.2949 44.64 31.7434 45.3416 32.2282L44.69 33.6886Z" fill="#818285"/>
<path d="M54.3727 43.5382H52.3092V37.7477H48.0278V43.5382H45.9825V31.5H48.0278V36.1264H52.3092V31.536H54.3727V43.5382Z" fill="#818285"/>
<path d="M58.4844 38.7778C58.9647 37.1962 59.4462 35.7354 59.8707 33.875H59.9087C60.389 35.7354 60.8238 37.1958 61.2706 38.7778H58.4844ZM59.2721 31.5L55.1148 43.5386H56.9007L57.9507 40.2567H61.5776L62.5229 43.5386H64.8289L60.9914 31.5H59.2721Z" fill="#818285"/>
<path d="M74.5735 43.5386H73.0797C71.1196 40.7689 69.1768 38.0207 67.2349 34.906H67.2167V43.5386H65.5686V31.5H67.0653C69.0225 34.2511 70.9619 36.9902 72.8952 40.0842H72.9254V31.5H74.5735V43.5386Z" fill="#818285"/>
<path d="M85.527 43.5386H84.0335C82.073 40.7689 80.1282 38.0207 78.1855 34.906H78.1702V43.5386H76.5191V31.5H78.0159C79.9731 34.2511 81.9154 36.9902 83.8424 40.0842H83.8759V31.5H85.527V43.5386Z" fill="#818285"/>
<path d="M92.648 33.1209H89.2085V36.4205H92.5781V38.0385H89.2085V41.9231H93.2689V43.5382H87.1483V31.5H92.648V33.1209Z" fill="#818285"/>
<path d="M94.4202 31.5H96.4623V41.9231H100.541V43.5382H94.4202V31.5Z" fill="#818285"/>
</svg>
