<svg width="64" height="64" viewBox="0 0 64 64" fill="none" xmlns="http://www.w3.org/2000/svg">
<g clip-path="url(#clip0)">
<path d="M57.3594 0H6.6407C2.97312 0 0 2.97312 0 6.64064V57.3594C0 61.0269 2.97312 64 6.6407 64H57.3594C61.0269 64 64 61.0269 64 57.3594V6.64064C64 2.97312 61.0269 0 57.3594 0Z" fill="white"/>
<path d="M20.9467 56.4241C20.1445 55.7109 20.6793 55.3989 20.6347 55.0871C20.0999 52.8586 18.3171 51.5216 19.2531 50.8084C19.062 50.2464 18.8387 49.6958 18.5846 49.1594C15.8214 47.5995 13.5038 45.0145 13.1027 44.658C12.7016 44.3015 11.8103 43.5884 11.632 43.1872C11.4537 42.7861 7.75452 37.9728 6.99682 36.3238L5.7044 36.1454C5.12501 33.6943 3.11944 31.6441 3.0749 29.2374C3.13359 28.1186 3.32815 27.0112 3.65429 25.9394C3.91311 25.5396 4.22837 25.1794 4.59023 24.8697V24.2012C1.73787 24.2904 2.54005 23.9785 2.04988 22.8642C1.55964 21.7499 1.96072 21.9282 2.09442 21.3934C2.49551 19.8335 3.74344 17.3823 4.27823 16.2681C4.81307 15.1538 4.99132 14.3516 4.99132 14.3516C7.13064 10.0285 7.93282 10.3405 10.4732 10.0731L10.6069 9.89482C13.1473 9.80573 12.7462 9.58288 13.1027 7.13162C12.7462 7.30986 12.6124 6.37392 12.6124 6.37392C12.3897 4.99229 13.0136 5.25968 13.281 5.21514C13.3256 2.94211 13.5929 2.18448 15.242 1.56055H6.64034C3.83426 1.56055 1.55957 3.83523 1.55957 6.64131V57.36C1.55957 60.1659 3.83426 62.4408 6.64034 62.4408H21.6153C19.8771 61.5049 20.9022 59.7668 20.9467 56.4241Z" fill="#00438C"/>
<path d="M57.3588 1.55957H16.7571C17.3738 1.7252 17.9014 2.12495 18.2278 2.67381C18.8518 2.71835 19.6095 4.14453 18.4507 6.19471C18.9855 6.55125 18.5844 7.04149 18.1832 7.62088C17.7821 8.20027 17.9604 8.15573 17.6484 8.11112C17.2028 9.04706 16.6679 9.93845 16.2669 9.98306C16.0898 10.1822 16.0714 10.4764 16.2223 10.6961C16.8177 10.9391 17.3735 11.2696 17.8713 11.6766V11.8995C18.317 12.1669 18.5398 12.3897 19.0301 12.6571C20.2334 13.4147 21.7487 14.7964 21.5705 19.5206C21.927 20.5457 22.0607 22.5513 22.3727 23.2198C22.6847 23.8883 23.4423 25.3145 23.6207 26.4733C23.6207 26.4733 23.799 28.2114 24.0217 28.4343H24.1555C25.1806 28.6571 25.0023 28.7908 25.0914 28.9691L25.3588 29.1919C25.6263 29.3257 26.0719 29.4593 26.0719 29.9495L26.2948 30.3061C26.4308 30.5193 26.5501 30.7429 26.6513 30.9746C27.0082 31.9839 27.0082 33.0851 26.6513 34.0944V34.2281C26.2577 35.2041 25.5314 36.0092 24.6011 36.5011H24.512L24.3783 36.5903C23.7787 36.8743 23.1252 37.0263 22.4619 37.0361C19.9731 36.7056 18.2233 34.4202 18.5537 31.9313C18.7709 30.2956 19.8573 28.906 21.3923 28.3007C20.8575 27.0082 19.7878 24.9135 19.4758 24.2449C19.1639 23.5764 18.4063 19.2533 18.2725 18.4064C18.1389 17.5597 16.3115 19.5207 16.3115 19.6098C16.3115 19.699 14.8853 23.1753 14.8408 23.3536C14.8084 23.5449 14.7935 23.7389 14.7962 23.9329C14.7962 23.9329 15.4648 24.022 15.8213 25.1363C16.1778 26.2505 17.3366 30.3953 17.3366 30.3953L17.0246 30.7073C18.4507 35.4759 17.9605 37.5261 18.5844 38.9523C19.2084 40.3786 19.6095 40.646 20.278 42.3396C20.9465 44.0331 21.3031 48.3117 21.5259 48.49C22.2836 49.4705 22.7293 50.2281 22.7293 50.763C22.7293 51.2977 22.0608 52.9469 22.3282 53.9274C22.5956 54.9077 22.551 55.7546 22.8184 55.9775C23.0858 56.2002 23.0413 56.4676 22.9521 56.646C22.9024 56.7271 22.8719 56.8185 22.863 56.9134C23.264 58.4286 24.6457 60.9691 22.4619 62.3061L22.3282 62.3953H57.4479C60.2192 62.371 62.4599 60.1305 62.4841 57.3592V6.64034C62.4596 3.82709 60.1721 1.55944 57.3588 1.55957Z" fill="#DA1A32"/>
<path d="M56.3788 13.6373H51.2979L50.1837 32.1331L49.4261 44.3449L48.6684 32.3116L47.4205 13.6374H42.1169L45.9943 50.4061H52.4121L56.3788 13.6373ZM28.3008 18.2278H32.0891V50.3616H37.0362V18.2278H40.9136V13.5928H28.3008V18.2278Z" fill="white"/>
<path d="M9.44915 59.2759V50.0948H11.2319C12.257 50.0948 12.8809 50.6296 12.8809 51.9222V53.3038C12.8809 54.1505 12.6134 54.5517 12.257 54.7745C12.6825 55.0821 12.9186 55.5879 12.8809 56.1116V57.4486C12.8809 58.6966 12.2123 59.276 11.2319 59.276H9.44915V59.2759ZM10.6971 55.2648V58.1171H11.1873C11.5884 58.1171 11.7222 57.8943 11.7222 57.4485V55.8887C11.7222 55.443 11.5884 55.2648 11.1873 55.2648H10.6971ZM10.6971 51.2536V54.2843H11.1428C11.5884 54.2843 11.6776 54.1505 11.6776 53.6158V51.833C11.6776 51.3873 11.5439 51.2091 11.1428 51.2091H10.6971V51.2536ZM15.8225 57.404H14.7082L14.5745 59.2759H13.3267L14.4408 50.0948H16.179L17.2486 59.2759H15.9562L15.8225 57.404ZM15.2431 51.1199H15.1985C15.1094 52.234 14.9757 54.1505 14.9311 54.7745L14.7974 56.379H15.7333L15.5996 54.7745C15.5551 54.1505 15.3767 52.234 15.2431 51.1199ZM5.83916 59.2759H4.76953V50.0948H6.46316L7.84473 57.6269C7.71104 55.8442 7.57734 53.6602 7.57734 51.7884V50.0947H8.64697V59.2759H7.08704L5.70547 51.9221C5.79462 53.6158 5.83916 54.9974 5.83916 56.379V59.2759Z" fill="white"/>
</g>
<defs>
<clipPath id="clip0">
<rect width="64" height="64" fill="white"/>
</clipPath>
</defs>
</svg>
