<svg width="57" height="56" viewBox="0 0 57 56" fill="none" xmlns="http://www.w3.org/2000/svg">
<g clip-path="url(#clip0)">
<path d="M28.5234 4.30637C27.6455 2.12947 25.5072 -0.221559 21.5027 0.101371C16.4013 0.652275 14.8115 5.50855 15.5823 8.40576C13.5507 7.0391 10.0957 6.4381 7.08012 9.00399C3.18662 12.881 5.26922 18.1241 7.40959 19.3818C5.05063 19.1648 1.32251 20.7482 0.497708 24.89C-0.379703 30.0324 3.56681 33.0303 7.40959 33.0303H50.0225C54.4662 33.0303 56.9319 29.2116 56.6553 25.6103C56.2192 20.9101 51.8893 19.1067 49.5275 19.4931C51.5008 18.3995 54.1364 13.2623 50.1289 9.22378C46.9479 6.21831 42.8926 7.31174 41.4668 8.62269C42.2355 6.11192 40.9751 0.92186 35.8156 0.100878C35.4592 0.0612391 35.1159 0.0400391 34.7886 0.0400391C30.8499 0.0404335 29.0791 2.90026 28.5234 4.30637Z" fill="white"/>
<path d="M7.79094 9.82217C5.54108 11.8452 4.72224 16.4292 8.77794 19.1089L24.9576 30.1353L17.1125 12.2821C15.4687 8.06908 10.9715 7.15038 7.79094 9.82217Z" fill="#F37021"/>
<path d="M21.7181 1.14214C19.0882 1.19529 15.1391 4.30637 16.8966 9.05694L25.0102 28.0651L27.8614 8.07218C28.5212 3.10437 24.7365 0.811126 21.7181 1.14214Z" fill="#CC004C"/>
<path d="M29.128 7.30955H30.6622C30.6622 7.30955 31.4815 7.30955 31.593 7.69341C30.9893 8.18318 29.3457 8.24452 29.5639 10.8607L32.1432 28.0623L40.2016 9.00417C41.8499 4.74888 38.39 1.19507 35.3209 1.08641C35.1777 1.07615 35.0337 1.06787 34.885 1.06787C32.1302 1.06777 28.9735 3.05643 29.128 7.30955Z" fill="#6460AA"/>
<path d="M39.877 12.4442L32.2549 30.0832L48.43 18.9986C52.1585 16.3716 51.557 12.1716 49.47 10.0957C48.595 9.11859 46.9885 8.36377 45.2866 8.36377C43.2761 8.36347 41.1243 9.42278 39.877 12.4442Z" fill="#0089D0"/>
<path d="M46.6196 21.5085L31.4292 32.048H50.1327C53.9699 32.048 56.4359 28.1178 55.3397 24.5113C54.6055 22.2445 52.4333 20.465 49.912 20.4624C48.8508 20.4629 47.7253 20.7804 46.6196 21.5085Z" fill="#0DB14B"/>
<path d="M7.35499 32.0477H25.7825L10.5885 21.5081C7.07844 19.2678 3.13133 20.5787 1.70647 24.2963C0.498704 28.5521 3.5143 32.0477 7.35499 32.0477Z" fill="#FCB711"/>
<path d="M27.7623 46.4686H31.1809C31.9666 46.5177 33.3596 47.1992 33.3596 48.8133C33.3596 50.5015 31.9139 51.1827 31.1306 51.2596H27.7623V46.4686ZM27.7102 38.9528H30.524C31.4858 39.0044 32.6231 39.7104 32.6231 41.0212C32.6231 42.3069 31.7633 43.1637 30.6508 43.3165H27.7102V38.9528ZM23.8633 35.8252V54.3841H32.9286C35.0803 54.3841 37.6381 52.2419 37.6381 49.4427C37.6381 46.5181 35.7146 45.0817 34.4976 44.5013C34.4976 44.5013 36.726 43.2155 36.627 40.441C36.5256 36.7088 33.0548 35.8252 31.8649 35.8252H23.8633Z" fill="black"/>
<path d="M9.95899 54.3839V43.6946L21.7091 55.0899V35.825H17.7607V46.2409L6.00781 35.0703V54.3839H9.95899Z" fill="black"/>
<path d="M38.2729 44.9027C38.372 50.7717 42.6172 55.1596 48.0747 55.1596C49.3686 55.1596 50.7318 54.9164 52.125 54.3831V50.6016C51.0209 51.2718 49.7923 51.595 48.5885 51.595C45.2859 51.595 42.1697 49.1674 42.2987 44.752C42.5212 41.1703 45.4731 38.6971 48.6544 38.6971C49.8194 38.6971 51.0176 39.0305 52.125 39.7587V36.0786C50.8337 35.5587 49.5502 35.3262 48.3139 35.3262C42.8701 35.3261 38.3775 39.8874 38.2729 44.9027Z" fill="black"/>
</g>
<defs>
<clipPath id="clip0">
<rect width="56.3024" height="55.12" fill="white" transform="translate(0.375 0.0400391)"/>
</clipPath>
</defs>
</svg>
