<svg width="65" height="62" viewBox="0 0 65 62" fill="none" xmlns="http://www.w3.org/2000/svg">
<path d="M60.3102 30.6539H52.1295L51.1624 33.9828H52.4314L48.3838 40.2585L47.8255 30.6539H39.5141L38.5844 33.9748L39.84 33.9828L34.4192 42.0376L29.9522 42.0162C29.49 42.0162 27.6893 41.5888 27.6893 39.4033C27.6893 37.2206 29.808 34.052 31.9747 34.052L32.8777 34.0734C32.7281 34.6077 32.4101 35.7245 32.4101 35.7245H36.3882L37.8149 30.6537L31.6888 30.627C27.8763 30.627 24.8015 33.3093 23.8207 36.0584L25.4103 30.6697L19.9628 30.6537L19.0037 33.9826H20.4144L18.9984 38.8717L15.429 30.6698H10.3235L9.37239 33.996H10.7724L7.60645 45.2572H11.686C11.686 45.2572 13.257 39.6681 13.6604 38.2386C14.2401 39.5984 16.6313 45.2572 16.6313 45.2572H21.1785L23.2544 38.1052C23.0674 39.1712 23.062 40.2853 23.2517 41.3913C23.6471 43.7291 25.9875 45.2572 28.5309 45.2572H36.7759L38.1945 43.1626H44.0028L44.1256 45.2358H49.282L50.5938 43.1626H56.5382L56.7733 45.2572H60.4228L61.2323 43.6515L60.3102 30.6539Z" fill="white"/>
<path d="M56.7749 45.2556L56.5398 43.161H50.5953L49.2835 45.2342H44.1272L44.0043 43.161H38.1961L36.7774 45.2556H28.5325C25.989 45.2556 23.6487 43.7274 23.2532 41.3897C23.0636 40.2836 23.0689 39.1695 23.2559 38.1035L21.18 45.2556H16.6329C16.6329 45.2556 14.2417 39.597 13.6619 38.2369C13.255 39.6677 11.684 45.2556 11.684 45.2556H7.60436L10.7703 33.9944H9.37031L10.3214 30.6682H15.4269L18.9963 38.87L20.4123 33.9809H19.0016L19.9607 30.652L25.4082 30.6681L23.8186 36.0568C24.7991 33.3077 27.8742 30.6253 31.6867 30.6253L37.8128 30.652L36.3862 35.7229H32.4081C32.4081 35.7229 32.726 34.6061 32.8756 34.0718L31.9728 34.0499C29.806 34.0499 27.6875 37.2184 27.6875 39.4012C27.6875 41.5866 29.4881 42.0141 29.9504 42.0141L34.4173 42.0354L39.8382 33.9806L38.5825 33.9726L39.5123 30.6517H47.8236L48.3819 40.2563L52.4295 33.9806H51.1605L52.1276 30.6517H60.3083L61.2301 43.6494C63.0441 39.7648 64.062 35.4181 64.062 30.8706C64.062 13.826 49.9317 0 32.5054 0C15.0751 0 0.94751 13.826 0.94751 30.874C0.94751 47.9008 15.0751 61.7158 32.5054 61.7158C44.6188 61.7158 55.1317 55.0447 60.4193 45.2587L56.7749 45.2556ZM53.1895 39.6103L56.3474 34.9403L56.505 39.6103H53.1895ZM40.5392 39.6745L43.6945 34.983L43.8655 39.6745H40.5392Z" fill="#005EB8"/>
</svg>
