<svg width="126" height="30" viewBox="0 0 126 30" fill="none" xmlns="http://www.w3.org/2000/svg">
<g clip-path="url(#clip0)">
<path d="M70.5834 3.51807H2.93076V26.7973H70.5834V3.51807Z" fill="white"/>
<path d="M1.51696 0H71.3586C72.6832 0.730762 73.1098 1.87119 73.107 3.32165C73.0764 11.0445 73.107 18.7673 73.0875 26.4901C73.0875 29.0478 72.1366 29.9917 69.5823 29.9917C47.5603 29.9917 25.5393 29.9917 3.51913 29.9917C0.928582 29.9945 0.0306739 29.0949 0.0278854 26.5123C0.0195198 18.8227 0.0529822 11.1552 0 3.47942C0 2.03451 0.365298 0.885772 1.51696 0ZM4.94965 14.2C4.94965 16.4846 4.94965 18.7673 4.94965 21.0482C4.94965 23.8162 4.94965 23.8162 7.73819 23.8162C9.83795 23.8162 9.90209 23.7498 9.90767 21.6433C9.90767 18.0808 9.93277 14.5184 9.90767 10.9587C9.90767 9.81823 10.3399 9.25632 11.5445 9.32275C12.4703 9.37258 13.4017 9.29507 14.3331 9.35874C17.7351 9.58295 18.87 10.668 19.0401 14.0201C19.1461 16.1598 19.0736 18.3106 19.0959 20.4558C19.1238 24.1373 18.5493 23.8051 22.6569 23.8051C23.5826 23.8051 24.0204 23.4425 24.0093 22.5069C23.9786 19.3098 24.1041 16.1072 23.9256 12.9184C23.6468 8.10482 21.2459 5.64957 16.3715 4.9714C13.1033 4.51744 9.80449 4.89112 6.52239 4.75272C5.2787 4.7029 4.91061 5.24266 4.93292 6.38863C4.9859 8.99336 4.94965 11.5981 4.94965 14.2ZM51.1947 11.0196V11.0417C50.3136 11.0417 49.4352 11.0417 48.554 11.0417C48.0465 11.0417 47.578 11.2327 47.5585 11.7835C47.5027 13.1869 47.0482 14.7564 47.7565 15.9356C48.3895 16.9985 49.9036 16.2428 51.0107 16.4145C51.1035 16.4214 51.1967 16.4214 51.2895 16.4145C55.5616 16.4449 54.9453 16.0325 55.0122 20.0627C55.082 24.2978 54.2816 23.7691 59.0138 23.819C60.1292 23.819 60.4778 23.3318 60.4499 22.3104C60.4081 20.8987 60.4973 19.4787 60.4276 18.067C60.3606 16.7909 60.9351 16.3591 62.1565 16.4062C63.4503 16.456 64.7498 16.4062 66.0465 16.4062C66.9583 16.4062 67.4407 16.0546 67.4129 15.1135C67.385 14.1724 67.3933 13.1952 67.4129 12.2375C67.4268 11.3683 67.0057 11.0002 66.1385 11.014C64.7024 11.0389 63.2663 11.014 61.833 11.0417C60.871 11.0694 60.4889 10.632 60.4917 9.73519C60.4917 8.50341 60.461 7.26887 60.4917 6.03709C60.4917 5.14302 60.1487 4.65307 59.1895 4.67799C58.2302 4.7029 57.2375 4.69459 56.2727 4.67799C55.3943 4.67799 55.0178 5.08765 55.0318 5.94021C55.0485 7.08064 54.9844 8.22384 55.0318 9.36427C55.0792 10.5047 54.6469 11.0777 53.4284 11.003C52.6782 10.9808 51.9337 11.0196 51.1947 11.0196ZM42.6646 20.7381C42.6646 20.2814 42.6423 19.8247 42.6646 19.3541C42.7343 18.2137 42.4164 18.0006 41.3317 18.5846C40.5703 18.9858 39.7333 19.2259 38.8737 19.2897C38.0141 19.3535 37.1505 19.2398 36.3374 18.9555C34.3826 18.3383 32.8852 17.1618 32.6259 14.9945C32.347 12.7385 33.2561 10.9808 35.2276 9.79055C36.7306 8.88264 38.3563 8.83004 40.0601 9.09854C40.9385 9.23694 41.8922 10.3857 42.4917 9.70197C42.9853 9.14837 42.6507 7.86953 42.6785 6.91456C42.6785 6.77893 42.6785 6.63776 42.6785 6.50489C42.7985 5.37276 42.2045 4.82469 41.1393 4.62539C39.2626 4.27385 37.4054 4.05794 35.4953 4.48699C28.1642 6.12567 24.818 14.4326 29.2991 20.1209C31.8562 23.365 35.3893 24.5802 39.5163 24.1124C42.6339 23.7608 42.6785 23.7138 42.6646 20.7381Z" fill="black"/>
<path d="M114.765 25.0947C108.234 25.0947 103.625 20.7821 103.611 14.6758C103.589 8.43942 108.733 3.50954 115.236 3.53723C121.739 3.56491 126.014 7.75018 126 14.0724C125.986 20.5302 121.326 25.103 114.765 25.0947ZM120.509 14.3935C120.526 11.0718 118.382 8.75498 115.245 8.70515C111.854 8.64979 109.319 11.0829 109.286 14.4239C109.252 17.6238 111.516 19.9379 114.706 19.96C117.897 19.9821 120.495 17.5352 120.509 14.3935Z" fill="black"/>
<path d="M95.7974 12.8713C97.0494 12.8713 98.307 12.8879 99.5535 12.8713C100.552 12.8547 101.02 13.281 100.884 14.2885C100.622 16.1957 100.326 18.089 99.4392 19.8246C97.2948 24.1095 93.7394 25.1614 89.2164 24.8541C83.2239 24.4472 79.8218 20.9014 79.6406 15.3238C79.4454 9.33096 83.1207 4.73325 88.8846 3.74783C92.2029 3.19422 92.4009 3.41566 91.8683 6.6598C91.7038 7.65353 91.2939 8.09088 90.3123 8.19883C86.6593 8.59743 84.0688 13.1425 85.8507 17.2005C87.231 20.3339 92.0189 21.1062 94.141 18.6011C94.378 18.3243 94.6987 18.0309 94.5732 17.6461C94.4142 17.206 93.9458 17.3693 93.5972 17.3334C93.4114 17.3236 93.2253 17.3236 93.0395 17.3334C90.2119 17.3334 90.2733 17.3334 90.4462 14.6068C90.5326 13.2228 91.1266 12.7578 92.4539 12.8436C93.5693 12.9156 94.6847 12.8436 95.8001 12.8436L95.7974 12.8713Z" fill="black"/>
<path d="M101.059 12.0466C99.0934 6.56032 98.7058 6.12851 93.5303 3.80058C96.0818 3.80058 98.6361 3.78674 101.188 3.80058C101.745 3.80058 102.024 4.21025 101.963 4.73618C101.684 7.18036 101.366 9.61347 101.059 12.0466Z" fill="#A829FF"/>
</g>
<defs>
<clipPath id="clip0">
<rect width="126" height="30" fill="white"/>
</clipPath>
</defs>
</svg>
