<svg width="79" height="79" viewBox="0 0 79 79" fill="none" xmlns="http://www.w3.org/2000/svg">
<path d="M24.3644 2.47363C12.505 4.06231 3.18364 13.5189 1.64734 25.5201V71.0182C1.64734 73.9548 4.0122 76.3183 6.9488 76.3183H71.6187C74.5553 76.3183 76.9188 73.9548 76.9188 71.0182V7.77373C76.9188 4.83713 74.5553 2.47363 71.6187 2.47363H24.3644ZM37.716 19.3405C39.9838 19.3684 42.2514 19.2848 44.5192 19.3405C41.7309 27.222 39.0916 35.2615 36.3219 43.1522C39.2868 43.1615 41.8512 43.1799 44.816 43.1985C44.8439 40.7541 44.8346 38.3099 44.816 35.8562C47.1209 35.8469 49.8449 35.8376 52.1405 35.8562C52.1405 43.5146 52.1312 51.182 52.1405 58.8496C49.8449 58.8496 44.816 58.8496 44.816 58.8496V49.1752C38.9793 48.9429 33.1334 49.296 27.2874 49.1752C30.8656 39.2677 34.017 29.2016 37.716 19.3405Z" fill="#0079AC" fill-opacity="0.811765"/>
</svg>
