<svg width="111" height="49" viewBox="0 0 111 49" fill="none" xmlns="http://www.w3.org/2000/svg">
<path d="M108.263 2.74902H2.59064V45.7725H108.263V2.74902Z" fill="white"/>
<path d="M55.45 48.659C37.3036 48.659 19.1571 48.6667 1.01062 48.6821C0.164636 48.6821 -0.00324474 48.5175 4.70362e-05 47.6715C0.0329648 32.1168 0.0329648 16.5631 4.70362e-05 1.01058C4.70362e-05 0.164589 0.164636 0 1.01062 0C37.3036 0.0263342 73.5954 0.0263342 109.886 0C110.732 0 110.9 0.164589 110.9 1.01058C110.867 16.5653 110.867 32.119 110.9 47.6715C110.9 48.5175 110.732 48.6854 109.886 48.6821C91.7419 48.6535 73.5965 48.6459 55.45 48.659ZM55.45 43.9584H102.595C103.131 43.9584 103.665 43.9584 104.201 43.9386C105.11 43.9189 105.732 43.4778 105.798 42.5594C105.864 41.5718 105.222 41.0452 104.32 40.8904C103.747 40.8261 103.17 40.8096 102.595 40.8411H10.6424C8.05832 40.8411 8.33812 40.9464 8.33812 38.4776C8.33812 28.8919 8.33812 19.3063 8.33812 9.72062C8.33812 8.09448 8.33812 8.07473 9.984 8.07473C40.3473 8.07473 70.7107 8.07473 101.074 8.07473C102.786 8.07473 102.802 8.07473 102.802 9.78316C102.802 17.0646 102.802 24.3471 102.802 31.6307C102.802 33.3622 103.339 34.2279 104.395 34.2213C105.452 34.2147 105.873 33.4642 105.873 31.6965C105.873 23.7151 105.873 15.7336 105.873 7.75213C105.873 5.28659 105.561 4.96729 103.108 4.96729H7.94969C5.51706 4.96729 5.2241 5.25367 5.2208 7.65009C5.2208 15.219 5.2208 22.7901 5.2208 30.3633C5.2208 34.1884 5.2208 38.0167 5.2208 41.8418C5.2208 43.4284 5.70799 43.8761 7.29791 43.9452C7.83447 43.965 8.36774 43.9452 8.9043 43.9452L55.45 43.9584ZM36.6573 24.2703C36.6573 26.6568 36.6573 29.0433 36.6573 31.4299C36.6573 33.6288 37.2597 34.2378 39.4257 34.2443C43.3758 34.2443 47.3259 34.2443 51.276 34.2443C51.8126 34.28 52.3497 34.1828 52.8396 33.9613C53.0831 33.8486 53.2821 33.6579 53.4049 33.4194C53.5277 33.1809 53.5675 32.9082 53.5177 32.6445C53.509 32.3719 53.4057 32.1108 53.2255 31.906C53.0453 31.7012 52.7995 31.5655 52.5302 31.522C52.0826 31.4545 51.6297 31.428 51.1773 31.443C47.8855 31.443 44.5937 31.42 41.302 31.443C40.3342 31.443 39.8404 31.1501 39.9062 30.0967C39.9655 29.1101 39.9655 28.1208 39.9062 27.1341C39.8536 26.1663 40.2354 25.8174 41.1966 25.8437C44.0341 25.8865 46.8749 25.8437 49.7125 25.8437C50.1644 25.8522 50.6162 25.8191 51.0621 25.745C51.8488 25.5936 52.2998 25.0866 52.2504 24.2703C52.201 23.4539 51.7007 23.1083 50.9567 23.0391C50.5091 22.9963 50.0548 22.9898 49.6005 22.9898C46.8453 22.9898 44.0868 22.9634 41.3316 22.9898C40.298 22.9898 39.8141 22.6375 39.903 21.5447C39.977 20.6827 39.977 19.816 39.903 18.954C39.7976 17.7756 40.3539 17.4662 41.4238 17.4793C44.5509 17.5155 47.6781 17.4793 50.8053 17.4793C51.2168 17.4793 51.6283 17.4793 52.0397 17.4497C52.7606 17.3872 53.3564 17.0547 53.4322 16.2943C53.5177 15.4779 52.9976 15.0006 52.2438 14.7965C51.9213 14.7136 51.5893 14.6727 51.2563 14.6747C47.1811 14.6747 43.1091 14.6517 39.0372 14.6747C37.2992 14.6747 36.6507 15.3594 36.6375 17.0909C36.6408 19.4972 36.6573 21.8837 36.6573 24.2703ZM82.6236 20.9489C83.1898 21.1167 83.3939 21.5513 83.6737 21.887C86.8206 25.6857 89.9621 29.4888 93.0981 33.2963C93.6544 33.9547 94.293 34.4814 95.2213 34.1555C96.1495 33.8296 96.2417 33.0692 96.2417 32.2429C96.2417 27.0617 96.2417 21.8815 96.2417 16.7025C96.2472 16.4548 96.2329 16.2072 96.1989 15.9618C96.1373 15.6137 95.955 15.2985 95.6842 15.0714C95.4133 14.8443 95.0711 14.7198 94.7176 14.7198C94.3641 14.7198 94.0219 14.8443 93.7511 15.0714C93.4802 15.2985 93.298 15.6137 93.2363 15.9618C93.1824 16.3687 93.1648 16.7796 93.1836 17.1897C93.1836 20.4386 93.1836 23.6876 93.1836 26.9366C93.1836 27.2394 93.3285 27.6838 92.9499 27.8089C92.5714 27.934 92.4134 27.5028 92.2159 27.2625C90.3988 25.0877 88.5872 22.9064 86.7812 20.7184C85.3262 18.976 83.8778 17.2346 82.436 15.4944C81.9291 14.8854 81.297 14.5069 80.4906 14.7504C79.6051 15.0303 79.424 15.8104 79.3779 16.6268C79.3582 16.9559 79.3779 17.2851 79.3779 17.6143C79.3779 22.1767 79.3779 26.7402 79.3779 31.3048C79.3614 31.6746 79.368 32.0451 79.3977 32.4141C79.5228 33.3654 79.8092 34.2575 80.9942 34.2279C82.1792 34.1983 82.4722 33.3687 82.4722 32.3582C82.4722 29.0664 82.4722 25.7746 82.4887 22.4828C82.4788 22.0055 82.3833 21.5052 82.6236 20.9489ZM28.5068 27.7497L28.1777 27.8715C27.7991 27.4567 27.4041 27.0518 27.0453 26.6206C23.9971 22.9448 20.9566 19.2646 17.9238 15.58C17.3839 14.9216 16.7684 14.4904 15.9026 14.7406C14.971 15.0072 14.8525 15.7972 14.8525 16.6202C14.8525 21.8442 14.8525 27.0716 14.8525 32.2956C14.8525 33.6123 15.4056 34.2707 16.3898 34.2378C17.5847 34.1884 17.8086 33.2963 17.9271 32.3549C17.9468 32.026 17.9468 31.6962 17.9271 31.3673C17.9271 28.3652 17.9271 25.3598 17.9271 22.3577C17.9271 21.9463 17.7394 21.4558 18.2562 21.041C18.648 21.4821 19.0364 21.8936 19.3985 22.3314C22.4159 25.9721 25.4334 29.6161 28.4509 33.2634C29.0006 33.9218 29.6425 34.4517 30.5774 34.1258C31.5122 33.8 31.5649 33.0165 31.5649 32.2002C31.5649 27.0156 31.5649 21.8311 31.5649 16.6465C31.5649 15.3298 31.0217 14.6714 30.0573 14.6714C29.0928 14.6714 28.52 15.3989 28.4838 16.663C28.4443 18.1838 28.4838 19.7079 28.4673 21.2287L28.5068 27.7497ZM75.7899 24.3591C75.7734 18.6775 71.6587 14.6023 65.9409 14.6023C60.2231 14.6023 55.9174 18.8816 55.9142 24.4414C55.9109 30.0012 60.233 34.274 65.9244 34.2641C71.6159 34.2542 75.8064 30.0835 75.7899 24.3591Z" fill="#141414"/>
<path d="M65.8948 17.4659C69.7923 17.4659 72.5705 20.4647 72.5574 24.6321C72.5574 28.4637 69.6178 31.456 65.9014 31.4461C62.185 31.4362 59.1862 28.309 59.2059 24.3589C59.2257 20.4088 62.0928 17.4462 65.8948 17.4659Z" fill="#141414"/>
</svg>
