<svg width="120" height="33" viewBox="0 0 120 33" fill="none" xmlns="http://www.w3.org/2000/svg">
<g clip-path="url(#clip0)">
<path d="M16.9046 30.6902C15.1099 31.001 13.2837 31.0942 11.3945 31.3424L5.63227 14.6972V32.0568C3.83759 32.2431 2.20031 32.4915 0.5 32.7399V0.939941H5.28612L11.8352 18.983V0.939941H16.9046V30.6902ZM26.823 12.5855C28.7753 12.5855 31.7665 12.4923 33.5612 12.4923V17.4609C31.3255 17.4609 28.7123 17.4609 26.823 17.5541V24.9452C29.7829 24.759 32.7426 24.5103 35.7337 24.4171V29.1993L21.785 30.2864V0.939941H35.7337V5.9087H26.823V12.5855ZM54.4683 5.90881H49.2416V28.765C47.5413 28.765 45.841 28.765 44.2039 28.827V5.90881H38.9771V0.939941H54.4686L54.4683 5.90881ZM62.6548 12.2439H69.5506V17.2126H62.6548V28.4856H57.7111V0.939941H71.7861V5.9087H62.6548V12.2439ZM79.9726 24.1378C82.838 24.1997 85.7346 24.4175 88.5371 24.5725V29.4792C84.0345 29.1995 79.5319 28.9204 74.9348 28.827V0.939941H79.9726V24.1378ZM92.7877 29.8208C94.3935 29.9141 96.0939 30.0073 97.7311 30.1933V0.939941H92.7877V29.8208ZM119.804 0.939941L113.412 16.0636L119.804 32.7399C117.914 32.4915 116.025 32.1499 114.136 31.8393L110.515 22.6473L106.831 31.0942C105.005 30.7834 103.241 30.6902 101.416 30.4418L107.902 15.8771L102.045 0.939941H107.461L110.767 9.29367L114.293 0.939941H119.804V0.939941Z" fill="#D81F26"/>
</g>
<defs>
<clipPath id="clip0">
<rect width="119.304" height="31.8" fill="white" transform="translate(0.5 0.939941)"/>
</clipPath>
</defs>
</svg>
