<svg width="146" height="22" viewBox="0 0 146 22" fill="none" xmlns="http://www.w3.org/2000/svg">
<g clip-path="url(#clip0)">
<path d="M7.25195 7.1543C9.26323 7.1543 10.977 7.87753 12.3931 9.3225C13.8089 10.7497 14.5173 12.4945 14.5173 14.5568V21.365H9.01071V14.6672C9.01071 13.8756 8.8392 13.1987 8.49676 12.6371C8.15359 12.076 7.73889 11.7945 7.25195 11.7945C6.77361 11.7945 6.36344 12.076 6.02057 12.6371C5.67769 13.1987 5.50632 13.8756 5.50632 14.6672V21.3653H0V14.5568C0 12.4945 0.708088 10.7499 2.12426 9.3225C3.53124 7.87738 5.24037 7.1543 7.25195 7.1543Z" fill="#FF6701"/>
<path d="M19.8182 6.03568C19.2319 6.62497 18.9297 7.06242 18.9118 7.3479V7.37546C18.9118 7.67033 19.1688 8.07545 19.6829 8.59098L20.2917 9.2126C20.8328 9.77432 21.1035 10.4464 21.1035 11.2287V21.3655H15.5428V11.2284C15.5428 10.4365 15.8135 9.76433 16.3546 9.212L16.9771 8.59068C17.482 8.07515 17.735 7.66511 17.735 7.36131V7.33375C17.7077 7.05736 17.4055 6.62482 16.8282 6.03553L16.1652 5.34478C15.5609 4.73717 15.2588 4.00083 15.2588 3.13501C15.2588 2.26978 15.5609 1.53761 16.1652 0.939092C16.7514 0.322245 17.4686 0.0136719 18.3167 0.0136719C19.1735 0.0136719 19.8948 0.317626 20.4813 0.925533C21.0855 1.53314 21.3878 2.26964 21.3878 3.13501C21.3878 4.00977 21.0855 4.74626 20.4813 5.34478L19.8182 6.03568Z" fill="#FF6701"/>
<path d="M30.3101 16.9455C30.5536 16.4757 30.7112 15.9237 30.7838 15.2884H36.2767C36.1232 17.065 35.4287 18.575 34.1931 19.818V19.8322C32.7858 21.2772 31.0901 22.0001 29.106 22.0001H29.0384C27.0449 22.0001 25.3449 21.2772 23.9377 19.8322V19.818C22.5217 18.3912 21.8135 16.66 21.8135 14.6255V14.5562C21.8135 12.5217 22.5214 10.7905 23.9377 9.36367C25.3447 7.91839 27.0541 7.19531 29.0654 7.19531C31.0678 7.19531 32.7769 7.91839 34.1933 9.36367C35.4289 10.616 36.1232 12.1256 36.2768 13.8933H30.7836C30.7112 13.258 30.5536 12.7057 30.3099 12.2362C29.9582 11.5916 29.5432 11.2695 29.0651 11.2695C28.5871 11.2695 28.1766 11.5918 27.834 12.2362C27.4912 12.8901 27.3198 13.677 27.3198 14.5978C27.3198 15.5092 27.4912 16.2917 27.834 16.9458C28.1766 17.5901 28.5871 17.9173 29.0651 17.9262C29.5433 17.9171 29.9583 17.5899 30.3101 16.9455Z" fill="#FF6701"/>
<path d="M47.8167 15.1794L50.6039 19.5296C50.8384 19.8887 50.9557 20.2111 50.9557 20.4963C50.9557 20.6161 50.9376 20.7267 50.9016 20.8278C50.7751 21.1869 50.5045 21.3665 50.0897 21.3665H45.5438L42.6754 16.8782V21.3528H37.1689V9.95897C37.1689 9.18538 37.4396 8.52264 37.9808 7.96986C38.5129 7.42677 39.1579 7.15499 39.9155 7.15499C40.6821 7.15499 41.3315 7.42677 41.8637 7.96986C42.4049 8.52264 42.6756 9.18523 42.6756 9.95897V12.9975L45.1652 8.45365C45.5529 7.78138 46.1166 7.34884 46.8562 7.15514C47.1 7.09093 47.3388 7.05859 47.5732 7.05859C48.0514 7.05859 48.5068 7.18777 48.9399 7.44524C49.5981 7.85036 50.0221 8.43056 50.2116 9.18523C50.2745 9.42481 50.3062 9.66425 50.3062 9.90339C50.3062 10.3915 50.1754 10.8564 49.9138 11.2983L47.8167 15.1794Z" fill="#FF6701"/>
<path d="M57.3864 7.19531C59.3618 7.19531 61.0664 7.9321 62.5007 9.40494C63.475 10.3995 64.0568 11.6929 64.246 13.2857C64.2911 13.6724 64.3136 14.0314 64.3136 14.3631C64.3136 14.7313 64.2866 15.0628 64.2326 15.3575H55.6954C55.7676 15.9373 55.9208 16.444 56.1555 16.877C56.4984 17.5212 56.9085 17.848 57.3869 17.8575C57.8738 17.8575 58.3292 17.5676 58.7533 16.9872C58.9607 16.693 59.1227 16.3983 59.2399 16.1035H64.1513C64.097 17.374 63.5646 18.5986 62.5545 19.7772C61.1206 21.2503 59.4111 21.9871 57.4273 21.9871C55.3976 21.9871 53.6748 21.2639 52.2586 19.8186C50.8427 18.3823 50.1348 16.638 50.1348 14.5847C50.1348 12.5406 50.8427 10.7961 52.2586 9.35085C53.6748 7.91333 55.3842 7.19531 57.3864 7.19531ZM58.9832 13.272C58.8838 12.8021 58.7667 12.4431 58.6312 12.1945C58.2704 11.5319 57.8556 11.2001 57.3866 11.2001C56.8634 11.2001 56.453 11.5226 56.1553 12.1667C56.0022 12.4983 55.8802 12.8667 55.79 13.2716L58.9832 13.272Z" fill="#FF6701"/>
<path d="M67.6754 0C68.4417 0 69.0911 0.27624 69.6236 0.828721C70.1648 1.37196 70.4355 2.035 70.4355 2.81783V21.365H64.9287V2.81753C64.9287 2.035 65.1947 1.37196 65.727 0.828572C66.2684 0.27624 66.9177 0 67.6754 0Z" fill="#FF6701"/>
<path d="M83.5803 9.33606C84.9962 10.7818 85.7045 12.5268 85.7045 14.5703C85.7045 16.6234 84.9962 18.373 83.5803 19.8181C83.5347 19.8646 83.4494 19.9472 83.323 20.067C83.215 20.1683 83.1611 20.2237 83.1611 20.2324C81.799 21.4018 80.234 21.9868 78.4662 21.9868H78.3986C76.6397 21.9868 75.0839 21.3971 73.731 20.219C73.6407 20.1637 73.4965 20.0303 73.2979 19.8184C71.8821 18.3732 71.1738 16.6237 71.1738 14.5705C71.1738 12.5267 71.8821 10.7821 73.2979 9.33636C74.714 7.88185 76.4273 7.1543 78.4395 7.1543C80.4505 7.15415 82.1643 7.88155 83.5803 9.33606ZM79.6703 16.9321C80.0217 16.2784 80.198 15.4916 80.198 14.5705C80.198 13.6591 80.0217 12.8764 79.6703 12.2226C79.327 11.5688 78.9173 11.242 78.4391 11.242C77.9607 11.242 77.5462 11.5688 77.1944 12.2226C76.8607 12.8856 76.6936 13.668 76.6936 14.5705C76.6936 15.4819 76.8607 16.269 77.1944 16.9321C77.5462 17.5863 77.9607 17.9126 78.4391 17.9126C78.9173 17.9126 79.3273 17.5857 79.6703 16.9321Z" fill="#FF6701"/>
<path d="M98.6754 19.8318C97.2681 21.2769 95.5586 22 93.5476 22C91.5363 22 89.8271 21.2769 88.4202 19.8318C87.0041 18.3864 86.2959 16.6412 86.2959 14.5975C86.2959 12.5539 87.0041 10.8091 88.4202 9.36357C89.8273 7.9183 91.5363 7.19521 93.5476 7.19521C94.1425 7.19521 94.7245 7.26941 95.293 7.41662V2.81723C95.293 2.0347 95.5635 1.37196 96.1048 0.828274C96.6459 0.27624 97.2951 0 98.053 0C98.8108 0 99.4598 0.27624 100.001 0.828423C100.534 1.37196 100.804 2.03008 100.813 2.80338V14.5974C100.813 16.6415 100.1 18.3862 98.6754 19.8318ZM93.5476 17.926C94.0255 17.926 94.4359 17.5995 94.7788 16.9454C95.1214 16.3012 95.293 15.5139 95.293 14.5837C95.293 13.6632 95.1212 12.8805 94.7788 12.2359C94.4355 11.5821 94.0256 11.2554 93.5476 11.2554C93.0603 11.2554 92.6501 11.5821 92.3165 12.2359C91.9733 12.8805 91.8022 13.663 91.8022 14.5837C91.8022 15.5043 91.9734 16.2915 92.3165 16.9454C92.6501 17.5991 93.0605 17.926 93.5476 17.926Z" fill="#FF6701"/>
<path d="M108.694 7.19531C110.669 7.19531 112.374 7.9321 113.808 9.40494C114.782 10.3995 115.364 11.6929 115.553 13.2857C115.598 13.6724 115.621 14.0314 115.621 14.3631C115.621 14.7313 115.594 15.0628 115.54 15.3575H107.002C107.074 15.9373 107.228 16.444 107.462 16.877C107.805 17.5212 108.215 17.848 108.694 17.8575C109.181 17.8575 109.636 17.5676 110.06 16.9872C110.267 16.693 110.43 16.3983 110.547 16.1035H115.458C115.404 17.374 114.871 18.5986 113.862 19.7772C112.428 21.2503 110.718 21.9871 108.734 21.9871C106.705 21.9871 104.982 21.2639 103.566 19.8186C102.15 18.3823 101.441 16.638 101.441 14.5847C101.441 12.5406 102.15 10.7961 103.566 9.35085C104.982 7.91333 106.691 7.19531 108.694 7.19531ZM110.29 13.272C110.191 12.8021 110.073 12.4431 109.938 12.1945C109.577 11.5319 109.163 11.2001 108.694 11.2001C108.17 11.2001 107.76 11.5226 107.463 12.1667C107.309 12.4983 107.187 12.8667 107.097 13.2716L110.29 13.272Z" fill="#FF6701"/>
<path d="M128.714 9.33606C130.13 10.7818 130.839 12.5268 130.839 14.5703C130.839 16.6234 130.13 18.373 128.714 19.8181C128.669 19.8646 128.583 19.9472 128.457 20.067C128.349 20.1683 128.295 20.2237 128.295 20.2324C126.933 21.4018 125.367 21.9868 123.6 21.9868H123.533C121.774 21.9868 120.218 21.3971 118.865 20.219C118.775 20.1637 118.63 20.0303 118.432 19.8184C117.016 18.3732 116.308 16.6237 116.308 14.5705C116.308 12.5267 117.016 10.7821 118.432 9.33636C119.847 7.88185 121.562 7.1543 123.573 7.1543C125.584 7.15415 127.298 7.88155 128.714 9.33606ZM124.804 16.9321C125.156 16.2784 125.332 15.4916 125.332 14.5705C125.332 13.6591 125.156 12.8764 124.804 12.2226C124.461 11.5688 124.051 11.242 123.573 11.242C123.095 11.242 122.68 11.5688 122.328 12.2226C121.995 12.8856 121.828 13.668 121.828 14.5705C121.828 15.4819 121.995 16.269 122.328 16.9321C122.68 17.5863 123.095 17.9126 123.573 17.9126C124.051 17.9126 124.461 17.5857 124.804 16.9321Z" fill="#FF6701"/>
<path d="M138.735 7.1543C140.746 7.1543 142.46 7.87753 143.876 9.3225C145.292 10.7497 146 12.4945 146 14.5568V21.365H140.494V14.6672C140.494 13.8756 140.322 13.1987 139.98 12.6371C139.637 12.076 139.222 11.7945 138.735 11.7945C138.257 11.7945 137.847 12.076 137.504 12.6371C137.161 13.1987 136.99 13.8756 136.99 14.6672V21.3653H131.483V14.5568C131.483 12.4945 132.191 10.7496 133.608 9.3225C135.014 7.87738 136.723 7.1543 138.735 7.1543Z" fill="#FF6701"/>
</g>
<defs>
<clipPath id="clip0">
<rect width="146" height="22" fill="white"/>
</clipPath>
</defs>
</svg>
