<svg width="124" height="24" viewBox="0 0 124 24" fill="none" xmlns="http://www.w3.org/2000/svg">
<path d="M24.8061 11.9111C24.8269 5.37983 30.2744 5.6872e-05 36.8474 5.6872e-05C38.4276 -0.00481857 39.993 0.303819 41.4531 0.908099C42.9132 1.51238 44.2389 2.4003 45.3535 3.52044C46.4681 4.64059 47.3493 5.97071 47.9463 7.43378C48.5433 8.89686 48.8442 10.4638 48.8314 12.044C48.8106 18.6221 43.4334 24.1322 36.8344 23.9524C29.2766 23.7466 24.8269 18.0438 24.8061 11.9111ZM36.7901 18.0829C40.2811 18.0829 43.0218 15.4203 43.0244 11.9997C43.027 8.57903 40.3983 5.96861 36.949 5.93734C33.4997 5.90608 30.6418 8.61811 30.6965 11.9658C30.7133 13.5793 31.3604 15.1223 32.4994 16.2653C33.6385 17.4082 35.1792 18.0605 36.7927 18.0829H36.7901Z" fill="url(#paint0_linear)"/>
<path d="M63.8374 7.44163e-05C70.499 -0.0233725 76.2331 5.49708 76.0194 12.0466C75.8058 18.5961 71.1451 23.7701 63.9338 23.9264C57.3114 24.0801 51.8613 18.4372 51.8977 11.8981C51.9212 5.47103 57.3921 0.0261266 63.8374 7.44163e-05ZM64.0276 5.93215C60.4871 5.91652 57.7178 8.53737 57.6943 11.9007C57.6709 15.264 60.5002 18.0646 63.8817 18.0829C67.3753 18.1011 70.0014 15.4777 70.0848 11.9919C70.1577 9.0011 67.3884 5.66121 64.0276 5.93476V5.93215Z" fill="url(#paint1_linear)"/>
<path d="M111.516 23.8427C104.786 23.8427 99.456 18.6635 99.4325 12.0723C99.4576 8.91682 100.724 5.89812 102.958 3.66937C105.192 1.44063 108.214 0.181084 111.369 0.163277C114.525 0.145471 117.56 1.37083 119.819 3.57422C122.078 5.77761 123.379 8.78183 123.44 11.9368C123.45 18.5906 118.203 23.8296 111.516 23.8427ZM117.653 12.0072C117.649 10.368 116.998 8.79674 115.842 7.63447C114.686 6.4722 113.118 5.81265 111.479 5.79894C108.157 5.75987 105.281 8.63863 105.276 12.0072C105.276 15.2767 108.105 18.0851 111.417 18.093C114.91 18.1008 117.651 15.4278 117.653 12.0072Z" fill="url(#paint2_linear)"/>
<path d="M0.100835 11.9843C0.100835 8.67303 0.121677 5.3592 0.100835 2.04797C0.100835 1.11009 0.444724 0.719306 1.40344 0.745358C5.03511 0.857382 8.66939 0.565598 12.2985 0.964196C17.6027 1.5634 20.8227 4.64797 21.474 10.0017C21.9664 14.0294 21.6486 18.0779 21.7111 22.1159C21.7267 23.0121 21.237 23.3143 20.4085 23.2987C19.1059 23.2727 17.8033 23.257 16.5007 23.2987C15.4716 23.3378 15.1407 22.8845 15.1512 21.9075C15.1876 18.8542 15.1876 15.8009 15.1512 12.7476C15.1329 11.3799 15.1017 9.99648 14.5285 8.69908C13.9554 7.40169 12.9967 6.56281 11.5091 6.38044C10.2065 6.21892 8.90386 6.30228 7.61949 6.28665C6.61909 6.28665 6.71027 6.99788 6.71027 7.64397C6.71027 12.2031 6.71027 16.7622 6.71027 21.3214C6.71027 23.2883 6.71027 23.2883 4.67299 23.2935C3.6778 23.2935 2.67479 23.2284 1.68741 23.3091C0.405645 23.4133 0.0539411 22.8584 0.0773881 21.6548C0.142518 18.4374 0.100835 15.2095 0.100835 11.9843Z" fill="url(#paint3_linear)"/>
<path d="M87.7299 14.7327C89.1966 10.4211 90.6034 6.51326 91.8487 2.54812C92.2916 1.1387 92.9976 0.583784 94.454 0.753123C95.3502 0.854727 96.2776 0.768754 97.179 0.77136C99.0678 0.77136 99.1147 0.833885 98.4451 2.53249C96.295 7.97565 94.1422 13.4162 91.9868 18.8542C91.5752 19.8963 91.1818 20.9383 90.778 21.9804C90.7256 22.1902 90.6375 22.3893 90.5175 22.5692C89.2461 23.9578 87.5892 23.0251 86.1225 23.257C85.3253 23.382 84.8694 22.9183 84.5828 22.1784C81.9706 15.4431 79.342 8.7138 76.6968 1.9906C76.319 1.03709 76.6265 0.740097 77.5774 0.763544C78.7872 0.827397 79.9998 0.822178 81.209 0.747913C82.5429 0.628073 83.1369 1.21164 83.5251 2.41525C84.6948 6.06255 85.9557 9.67078 87.1854 13.2946C87.3078 13.6542 87.4537 14.0059 87.7299 14.7327Z" fill="url(#paint4_linear)"/>
<defs>
<linearGradient id="paint0_linear" x1="124.002" y1="11.5959" x2="0.17638" y2="12.1404" gradientUnits="userSpaceOnUse">
<stop stop-color="#313AF8"/>
<stop offset="1" stop-color="#082E94"/>
</linearGradient>
<linearGradient id="paint1_linear" x1="11529.2" y1="1074.91" x2="61.0694" y2="1125.76" gradientUnits="userSpaceOnUse">
<stop stop-color="#313AF8"/>
<stop offset="1" stop-color="#082E94"/>
</linearGradient>
<linearGradient id="paint2_linear" x1="11519.4" y1="1079.24" x2="108.561" y2="1129.87" gradientUnits="userSpaceOnUse">
<stop stop-color="#313AF8"/>
<stop offset="1" stop-color="#082E94"/>
</linearGradient>
<linearGradient id="paint3_linear" x1="10312.2" y1="999.566" x2="8.29862" y2="1043.07" gradientUnits="userSpaceOnUse">
<stop stop-color="#313AF8"/>
<stop offset="1" stop-color="#082E94"/>
</linearGradient>
<linearGradient id="paint4_linear" x1="10683.2" y1="1031.87" x2="85.007" y2="1077.79" gradientUnits="userSpaceOnUse">
<stop stop-color="#313AF8"/>
<stop offset="1" stop-color="#082E94"/>
</linearGradient>
</defs>
</svg>
