<svg width="123" height="43" viewBox="0 0 123 43" fill="none" xmlns="http://www.w3.org/2000/svg">
<path d="M37.6757 41.8378V1.16211H26.4088V12.2616C26.4088 15.5732 26.4707 20.9784 26.7737 22.7788C25.8638 21.0925 22.1092 15.69 20.1715 13.1915L10.8448 1.16211H0.486488V41.8378H11.7534V29.4033C11.7534 26.0905 11.6927 20.6865 11.3897 18.8849C12.4795 20.6865 16.1127 25.9166 17.9906 28.416L28.1055 41.8378H37.6757Z" fill="#858E8E"/>
<path d="M122.514 28.7418C122.514 21.1513 117.857 18.0221 107.35 15.5877C101.976 14.3705 100.487 13.6757 100.487 12.1678C100.487 10.7191 101.322 9.67643 104.784 9.67643C109.021 9.67643 112.721 11.0682 116.426 13.5015L122.039 4.69373C117.617 1.67927 112.483 0 105.381 0C95.288 0 88.9015 5.15727 88.9015 12.805C88.9015 20.918 93.7393 23.5842 103.827 25.8429C109.438 27.1194 110.932 28.0459 110.932 29.5515C110.932 31.4646 109.618 32.1605 105.498 32.1605C101.618 32.1605 96.3049 30.1312 93.2596 28.1064L87.6487 36.9109C92.0067 39.6921 98.5156 41.8378 105.258 41.8378C115.291 41.8378 122.514 38.0116 122.514 28.7418Z" fill="#858E8E"/>
<path fill-rule="evenodd" clip-rule="evenodd" d="M52.9819 21.4994C52.9819 15.6748 57.5755 10.9524 63.2427 10.9524C68.911 10.9524 73.5057 15.6748 73.5057 21.4994C73.5057 27.3252 68.911 32.0463 63.2427 32.0463C57.5755 32.0463 52.9819 27.3249 52.9819 21.4994ZM42.3243 21.4994C42.3243 9.62522 51.6894 0 63.2427 0C74.7959 0 84.1622 9.62522 84.1622 21.4994C84.1622 33.3736 74.7959 43 63.2427 43C51.6894 43 42.3243 33.3733 42.3243 21.4994Z" fill="#EE3224"/>
</svg>
