<svg width="63" height="66" viewBox="0 0 63 66" fill="none" xmlns="http://www.w3.org/2000/svg">
<path fill-rule="evenodd" clip-rule="evenodd" d="M40.3817 0.150523L3.96025 2.84592C1.02353 3.10156 0 5.027 0 7.33524V47.3695C0 49.1682 0.637875 50.7056 2.17219 52.7604L10.7338 63.9239C12.1402 65.7215 13.4181 66.106 16.1035 65.9773L58.3995 63.4106C61.9767 63.1552 63 61.4858 63 58.663V13.6235C63 12.1642 62.4256 11.7427 60.732 10.5002C60.6388 10.432 60.5421 10.3611 60.4422 10.2874L48.816 2.07543C46.0049 0.023231 44.8542 -0.235005 40.3817 0.150523ZM17.0625 12.8847C13.6093 13.119 12.8247 13.1723 10.8636 11.5711L5.87672 7.59352C5.36812 7.07916 5.62319 6.43764 6.90025 6.31026L41.9153 3.74374C44.8536 3.48656 46.3868 4.51484 47.5374 5.41244L53.5432 9.7757C53.7989 9.90352 54.4368 10.6724 53.6697 10.6724L17.5083 12.8546L17.0625 12.8847ZM13.0347 58.2773V20.0405C13.0347 18.3726 13.5459 17.6022 15.0784 17.4726L56.6086 15.0355C58.0173 14.9072 58.6552 15.8061 58.6552 17.4726V55.4532C58.6552 57.1226 58.3988 58.5358 56.0978 58.663L16.3566 60.9741C14.0567 61.1013 13.0347 60.3324 13.0347 58.2773ZM52.2673 22.0915C52.5221 23.2476 52.2672 24.4024 51.1149 24.5324L49.1999 24.9159V53.1447C47.5374 54.0428 46.0044 54.5563 44.7269 54.5563C42.6816 54.5563 42.1693 53.9141 40.6374 51.9904L28.1122 32.23V51.3489L32.0755 52.2476C32.0755 52.2476 32.0755 54.5563 28.8781 54.5563L20.0629 55.0702C19.8067 54.5563 20.0629 53.2741 20.9569 53.0171L23.2573 52.3765V27.0978L20.0633 26.8407C19.8072 25.6848 20.445 24.0181 22.2355 23.8887L31.6923 23.2481L44.7269 43.2656V25.5574L41.4037 25.1742C41.1484 23.7609 42.1693 22.7348 43.4475 22.6074L52.2673 22.0915Z" fill="black"/>
</svg>
