<svg width="116" height="40" viewBox="0 0 116 40" fill="none" xmlns="http://www.w3.org/2000/svg">
<path d="M57.715 39.6368H3.6516C1.19729 39.6368 0.000624751 38.463 0.000624751 36.0163V3.51572C-0.0090913 2.95452 0.0946086 2.39713 0.305508 1.87697C0.521772 1.30811 0.910851 0.82131 1.41806 0.484992C1.92527 0.148673 2.52512 -0.0202588 3.1333 0.00193806H112.282C113.082 -0.014569 113.858 0.284827 114.44 0.835389C115.022 1.38595 115.363 2.14344 115.391 2.94406C115.391 3.11937 115.391 3.28706 115.391 3.45474C115.391 14.3746 115.391 25.2996 115.391 36.2297C115.404 36.6547 115.35 37.079 115.231 37.4873C115.046 38.1362 114.651 38.7052 114.107 39.1052C113.564 39.5052 112.903 39.7136 112.228 39.6977C94.0622 39.6571 75.8912 39.6368 57.715 39.6368ZM48.3323 31.725H88.2491C88.6226 31.725 88.775 31.6717 88.775 31.2372C88.775 28.9049 88.775 26.5649 88.775 24.2325C88.775 23.9048 88.6912 23.7981 88.3482 23.8057C86.6256 23.8057 84.9106 23.8057 83.188 23.8057H8.49163C8.06479 23.8057 7.91997 23.8743 7.91997 24.3469C7.95046 26.5979 7.95046 28.8464 7.91997 31.0924C7.91997 31.5955 8.01143 31.7327 8.54498 31.7327C21.8226 31.7225 35.0851 31.72 48.3323 31.725ZM99.0877 27.7692C99.0643 28.3007 99.1488 28.8315 99.3361 29.3296C99.5234 29.8276 99.8096 30.2825 100.177 30.6669C100.545 31.0514 100.987 31.3573 101.477 31.5663C101.966 31.7753 102.492 31.8831 103.025 31.8831C103.557 31.8831 104.083 31.7753 104.572 31.5663C105.062 31.3573 105.504 31.0514 105.872 30.6669C106.239 30.2825 106.526 29.8276 106.713 29.3296C106.9 28.8315 106.985 28.3007 106.961 27.7692C106.985 27.2376 106.9 26.7068 106.713 26.2088C106.526 25.7108 106.239 25.2558 105.872 24.8714C105.504 24.487 105.062 24.1811 104.572 23.9721C104.083 23.7631 103.557 23.6553 103.025 23.6553C102.492 23.6553 101.966 23.7631 101.477 23.9721C100.987 24.1811 100.545 24.487 100.177 24.8714C99.8096 25.2558 99.5234 25.7108 99.3361 26.2088C99.1488 26.7068 99.0643 27.2376 99.0877 27.7692ZM13.0268 13.2872C12.8515 13.0357 12.7524 12.9061 12.6685 12.7765C11.9673 11.6637 11.1898 10.5966 10.6029 9.43808C10.4372 8.98936 10.1136 8.61645 9.69266 8.38916C9.27175 8.16187 8.78243 8.09579 8.31632 8.2033C7.97332 8.25665 7.85899 8.31001 7.85899 8.66825C7.85899 10.9549 7.85899 13.2415 7.85899 15.5662C7.85899 15.9626 7.9657 16.0769 8.36967 16.0693C9.43676 16.0693 9.43676 16.0693 9.43676 15.0098V10.589L9.75689 11.0768C10.6715 12.3878 11.5633 13.7217 12.3636 15.0937C12.5084 15.4261 12.7633 15.6985 13.0853 15.8651C13.4074 16.0317 13.777 16.0823 14.132 16.0083C14.4902 15.9626 14.6198 15.9245 14.6122 15.5281C14.6122 13.3863 14.6122 11.2369 14.6122 9.09508C14.6122 8.14994 14.6122 8.18806 13.6518 8.14232C13.1335 8.14232 13.042 8.28714 13.0496 8.75971C13.0725 10.2308 13.0573 11.6637 13.0573 13.2491L13.0268 13.2872ZM39.5516 11.1607C39.7345 10.5814 39.4373 10.5814 39.1172 10.6043C38.9473 10.6195 38.7764 10.6195 38.6065 10.6043C38.2787 10.6043 38.172 10.6729 38.1796 11.0235C38.1796 12.3497 38.1796 13.676 38.1796 15.0022C38.1796 16.0922 38.1796 16.0769 39.2772 16.0693C39.6126 16.0693 39.6736 15.9473 39.6659 15.6577C39.6659 14.7202 39.6659 13.7827 39.6659 12.8451C39.6574 12.7084 39.6775 12.5713 39.725 12.4428C39.7725 12.3143 39.8463 12.1971 39.9418 12.0988C40.0372 12.0004 40.1522 11.9231 40.2793 11.8719C40.4063 11.8206 40.5427 11.7964 40.6797 11.8009C41.2513 11.8009 41.5867 12.182 41.5943 12.8604C41.602 13.5388 41.5943 14.2857 41.5943 15.0022C41.5943 16.0693 41.5943 16.0617 42.6538 16.0693C42.9739 16.0693 43.0959 16.0007 43.0883 15.6501C43.0883 14.7507 43.0883 13.8513 43.0883 12.9442C43.0883 12.2506 43.4617 11.8162 44.0486 11.8009C44.6355 11.7857 45.0014 12.182 45.009 12.9137V15.0098C45.009 16.0845 45.009 16.0693 46.0685 16.0693C46.3962 16.0693 46.4725 15.9702 46.4648 15.6653C46.4648 14.644 46.4648 13.6226 46.4648 12.6165C46.5235 12.2078 46.4444 11.7912 46.2402 11.4324C46.0359 11.0736 45.7181 10.793 45.3368 10.6347C44.9407 10.4458 44.494 10.3905 44.0639 10.4771C43.6337 10.5637 43.2432 10.7875 42.9511 11.1149C42.8672 11.214 42.8367 11.3284 42.6538 11.153C41.7315 10.185 40.794 10.1698 39.5821 11.1226L39.5516 11.1607ZM17.9125 14.522C18.0726 14.3238 18.1564 14.2095 18.2555 14.0952C19.2769 12.868 20.283 11.618 21.3501 10.4289C21.5856 10.1902 21.7657 9.90257 21.8777 9.58644C21.9897 9.2703 22.0307 8.93342 21.998 8.59965C21.998 8.26428 21.8912 8.17281 21.5559 8.18043C20.0772 8.18043 18.5985 8.18043 17.1122 8.18043C15.9841 8.18043 15.9918 8.18043 16.0299 9.3085C16.0299 9.5829 16.1213 9.65149 16.3805 9.65149C17.4018 9.65149 18.4232 9.65149 19.4293 9.65149C19.5513 9.65149 19.7037 9.59052 19.8104 9.76583C18.7205 11.0844 17.6534 12.4259 16.5177 13.7141C16.2717 13.9558 16.0836 14.25 15.9675 14.5747C15.8513 14.8994 15.8101 15.2462 15.8469 15.5891C15.8469 15.9473 15.9765 16.0312 16.3195 16.0312C17.8439 16.0312 19.4217 16.0312 20.969 16.0312C22.1047 16.0083 22.1047 16.0083 22.1047 14.9412C22.1047 14.6135 22.0284 14.5068 21.6855 14.5144C20.4431 14.5373 19.2388 14.522 17.9125 14.522ZM28.5834 8.18806C27.9584 8.18806 27.3258 8.18806 26.7008 8.18806C26.2206 8.18806 26.0681 8.2719 26.0758 8.7902C26.0758 10.8101 26.0758 12.8375 26.0758 14.8879C26.0758 16.0998 26.0758 16.0922 27.2724 16.0693C27.5621 16.0693 27.6612 15.9854 27.6535 15.6958C27.6535 14.9336 27.6535 14.1257 27.6535 13.3482C27.6535 13.0814 27.7298 12.99 27.9965 13.0052C28.5453 13.0052 29.0865 13.0052 29.6277 13.0052C30.6948 13.0052 30.6795 13.0052 30.6719 11.9305C30.6719 11.6409 30.588 11.557 30.2984 11.5646C29.5362 11.5646 28.774 11.5646 28.0118 11.5646C27.7526 11.5646 27.6535 11.496 27.6688 11.2216C27.6688 10.8177 27.6688 10.4061 27.6688 10.0021C27.6688 9.72772 27.7526 9.65149 28.0194 9.65912C28.6597 9.65912 29.3075 9.65912 29.9554 9.65912C31.1292 9.65912 31.1216 9.65912 31.0682 8.50056C31.0682 8.25665 30.992 8.18043 30.7481 8.18806C30.0316 8.19568 29.3152 8.18806 28.5987 8.18806H28.5834ZM73.3327 12.7613H73.447C73.851 13.7293 74.255 14.6821 74.6437 15.6577C74.6895 15.7869 74.7741 15.8987 74.8861 15.9777C74.998 16.0568 75.1317 16.0993 75.2687 16.0993C75.4057 16.0993 75.5394 16.0568 75.6513 15.9777C75.7632 15.8987 75.8479 15.7869 75.8937 15.6577C76.2901 14.6363 76.7169 13.6302 77.1361 12.6089C77.2321 13.6068 77.2601 14.6102 77.2199 15.612C77.2199 16.0769 77.4257 16.0845 77.7687 16.0845C78.1117 16.0845 78.287 16.0845 78.2794 15.6348C78.2794 14.2705 78.2794 12.9061 78.2794 11.5494C78.2794 10.6729 78.2794 10.6957 77.3953 10.6652C77.2247 10.6361 77.0495 10.6749 76.9071 10.7731C76.7647 10.8714 76.6664 11.0214 76.633 11.1912C76.3968 11.8771 76.1071 12.5555 75.8175 13.2263C75.6844 13.6475 75.4974 14.0497 75.2611 14.4229C74.7885 13.272 74.3159 12.1363 73.8662 11.0387C73.8387 10.9156 73.7646 10.808 73.6595 10.7383C73.5543 10.6687 73.4263 10.6425 73.3022 10.6652C73.0638 10.6843 72.8242 10.6843 72.5857 10.6652C72.3647 10.6652 72.2885 10.7567 72.2885 10.9625C72.2885 12.5631 72.2885 14.1638 72.2885 15.7644C72.2885 15.8864 72.2885 15.9931 72.4409 16.054C72.5341 16.112 72.6415 16.1431 72.7513 16.1438C72.8611 16.1445 72.9689 16.1148 73.0628 16.058C73.1567 16.0011 73.2331 15.9194 73.2834 15.8219C73.3337 15.7243 73.3561 15.6147 73.3479 15.5053L73.3327 12.7613ZM60.2151 13.9122L60.1084 13.958C59.5748 13.1043 58.9803 12.2735 58.5077 11.3817C58.3955 11.1022 58.1873 10.8718 57.9204 10.7321C57.6535 10.5924 57.3456 10.5525 57.0519 10.6195C56.7851 10.6576 56.6632 10.6957 56.6632 10.993C56.6632 12.5631 56.6632 14.1257 56.6632 15.6882C56.6632 15.8025 56.6632 15.9854 56.7623 16.0007C57.0469 16.054 57.3389 16.054 57.6236 16.0007C57.8751 15.9397 57.7455 15.6577 57.7531 15.4671C57.7531 14.461 57.7531 13.4549 57.7531 12.4183C58.4838 13.3709 59.1534 14.3688 59.7578 15.4062C59.8604 15.6248 60.0331 15.8029 60.2486 15.912C60.4641 16.0211 60.7098 16.055 60.9468 16.0083C61.206 16.0083 61.305 15.9245 61.305 15.6577C61.305 14.0875 61.305 12.525 61.305 10.9625C61.305 10.3985 60.9087 10.6424 60.6648 10.6043C60.4209 10.5661 60.1846 10.6043 60.1998 10.9854C60.2151 11.9762 60.2151 12.9595 60.2151 13.9122ZM88.4625 13.836L88.3253 13.8741C87.807 13.0433 87.2277 12.243 86.8009 11.3817C86.6806 11.0928 86.4604 10.8569 86.1805 10.7169C85.9007 10.577 85.5798 10.5424 85.2765 10.6195C85.0402 10.6195 84.9564 10.7033 84.9564 10.9472C84.9564 12.525 84.9564 14.1104 84.9564 15.6958C84.9564 15.8101 84.9564 15.9854 85.0555 16.0007C85.3397 16.058 85.6325 16.058 85.9167 16.0007C86.153 15.9321 86.0463 15.6425 86.0463 15.4519C86.0463 14.8955 86.0463 14.3315 86.0463 13.7674V12.464C86.2392 12.5901 86.3903 12.7705 86.4808 12.9823C87.0753 13.897 87.6698 14.804 88.2339 15.7339C88.5387 16.2294 88.9961 16.0236 89.3848 15.9931C89.7735 15.9626 89.5449 15.6043 89.5449 15.3909C89.5449 13.9656 89.5449 12.5326 89.5449 11.1073C89.5449 10.6805 89.4153 10.589 89.0266 10.6119C88.6378 10.6347 88.4092 10.5661 88.432 11.0844C88.4701 11.9991 88.4168 12.9595 88.4168 13.836H88.4625ZM50.2835 13.2949C50.2764 14.0287 50.5611 14.7352 51.075 15.2591C51.5889 15.783 52.2898 16.0813 53.0236 16.0883C53.7575 16.0954 54.464 15.8107 54.9879 15.2968C55.5118 14.7829 55.8101 14.082 55.8171 13.3482C55.8242 12.6144 55.5395 11.9078 55.0256 11.384C54.5117 10.8601 53.8108 10.5618 53.077 10.5547C52.3432 10.5476 51.6366 10.8324 51.1128 11.3462C50.5889 11.8601 50.2906 12.561 50.2835 13.2949ZM62.4788 13.2949C62.4788 14.0952 62.4788 14.8955 62.4788 15.6958C62.4788 15.9626 62.5627 16.0617 62.8295 16.054C63.3935 16.054 63.9575 16.054 64.5139 16.054C64.8549 16.0615 65.1938 15.9993 65.5099 15.8713C65.826 15.7433 66.1126 15.5522 66.3524 15.3096C66.5921 15.0671 66.7798 14.7782 66.904 14.4606C67.0283 14.143 67.0864 13.8034 67.075 13.4625C67.1161 13.1278 67.089 12.7883 66.9951 12.4644C66.9012 12.1405 66.7426 11.839 66.5288 11.5782C66.315 11.3174 66.0506 11.1027 65.7514 10.9471C65.4522 10.7915 65.1246 10.6982 64.7883 10.6729C64.1328 10.5966 63.4621 10.6729 62.799 10.6271C62.4636 10.6271 62.4026 10.7491 62.4102 11.0463C62.4483 11.7781 62.4407 12.525 62.4407 13.272L62.4788 13.2949ZM90.7796 13.2949C90.7796 14.0952 90.7796 14.8955 90.7796 15.6958C90.7796 15.955 90.8559 16.0617 91.1302 16.054C91.6943 16.054 92.2507 16.054 92.8147 16.054C93.1569 16.0553 93.4957 15.9875 93.8111 15.8548C94.1264 15.7221 94.4118 15.5272 94.6501 15.2818C94.8885 15.0363 95.0749 14.7453 95.1983 14.4262C95.3216 14.1071 95.3794 13.7664 95.3681 13.4244C95.3974 13.0951 95.3615 12.7632 95.2624 12.4477C95.1633 12.1322 95.003 11.8394 94.7906 11.5859C94.5782 11.3325 94.318 11.1234 94.0247 10.9707C93.7314 10.8179 93.4109 10.7245 93.0815 10.6957C92.4413 10.6195 91.7934 10.6957 91.1455 10.65C90.8101 10.65 90.7491 10.7796 90.7568 11.0692C90.7491 11.7781 90.7415 12.525 90.7415 13.272L90.7796 13.2949ZM81.6331 10.6424C81.4273 10.7643 81.092 10.4518 80.9395 10.8405C80.3145 12.4793 79.6819 14.1104 79.0569 15.7415C79.0569 15.833 78.973 15.9321 79.0569 16.0159C79.2543 16.0849 79.4678 16.0934 79.67 16.0405C79.8723 15.9875 80.0542 15.8755 80.1926 15.7187C80.5584 14.8193 80.5584 14.8193 81.5493 14.8193C81.7192 14.8345 81.8901 14.8345 82.06 14.8193C82.1524 14.7879 82.251 14.779 82.3476 14.7931C82.4442 14.8072 82.5361 14.8441 82.6157 14.9006C82.6953 14.9572 82.7603 15.0318 82.8055 15.1183C82.8507 15.2049 82.8747 15.3009 82.8755 15.3985C82.9594 15.9245 83.2414 16.0998 83.7902 16.0693C84.339 16.0388 84.2399 15.9016 84.1027 15.551C83.5387 14.0952 82.967 12.6394 82.4411 11.1683C82.3191 10.7262 82.1057 10.5052 81.6255 10.6195L81.6331 10.6424ZM69.6284 10.6424H68.2411C68.0201 10.6424 67.8829 10.6424 67.8905 10.9396C67.8905 12.5403 67.8905 14.1409 67.8905 15.7415C67.8905 15.955 67.9591 16.054 68.1802 16.054H70.9927C71.1299 16.054 71.2519 16.054 71.2976 15.8711C71.4577 15.2842 71.2976 15.0327 70.6726 15.0327H69.8037C68.95 15.0327 68.9652 15.0327 68.9729 14.1866C68.9729 13.8894 69.0796 13.8055 69.3616 13.8132C69.8189 13.8132 70.2839 13.8132 70.7412 13.8132C71.1985 13.8132 71.107 13.6226 71.0994 13.3635C71.0918 13.1043 71.1604 12.8375 70.7412 12.8604C70.322 12.8833 69.7808 12.8604 69.3082 12.8604C69.0643 12.8604 68.9652 12.7765 68.9805 12.5326C68.9958 12.3806 68.9958 12.2274 68.9805 12.0753C68.9805 11.7552 69.0415 11.618 69.3921 11.6332C69.9027 11.6332 70.4211 11.6332 70.9165 11.6332C71.4119 11.6332 71.3128 11.4122 71.29 11.153C71.2671 10.8939 71.4195 10.5738 70.9394 10.5966C70.4592 10.6195 70.0628 10.6195 69.6207 10.6195L69.6284 10.6424ZM35.1765 12.022V14.9793C35.1765 16.054 35.1765 16.0312 36.2284 16.054C36.6095 16.054 36.701 15.955 36.701 15.5739C36.701 13.4168 36.701 11.2598 36.701 9.1027C36.701 8.01275 36.701 8.02799 35.6034 8.02799C35.2832 8.02799 35.1689 8.10421 35.1689 8.45483C35.1842 9.62101 35.1689 10.8101 35.1689 11.9991L35.1765 12.022ZM33.6521 13.3025V11.5951C33.6521 10.5357 33.6521 10.5509 32.5698 10.5585C32.242 10.5585 32.1734 10.6652 32.1734 10.9701C32.1734 12.2964 32.1734 13.615 32.1734 14.9412C32.1734 16.0769 32.1734 16.0617 33.3091 16.0312C33.5835 16.0312 33.6521 15.9321 33.6445 15.6729C33.6216 14.8726 33.6293 14.0799 33.6369 13.2796L33.6521 13.3025ZM32.8899 9.72009C33.0089 9.7252 33.1277 9.70641 33.2394 9.66484C33.351 9.62327 33.4532 9.55976 33.5398 9.47806C33.6265 9.39635 33.6959 9.29811 33.744 9.18914C33.7921 9.08016 33.8179 8.96265 33.8198 8.84355C33.8202 8.60186 33.728 8.36921 33.5621 8.19342C33.3962 8.01763 33.1693 7.91206 32.928 7.89842C32.688 7.90228 32.4587 7.99885 32.2882 8.16791C32.1177 8.33697 32.0192 8.56542 32.0134 8.80544C32.0124 8.92155 32.0342 9.03673 32.0778 9.14438C32.1213 9.25204 32.1855 9.35007 32.2669 9.43288C32.3483 9.51569 32.4452 9.58166 32.5521 9.62702C32.659 9.67237 32.7738 9.69623 32.8899 9.69723V9.72009Z" fill="#231F20"/>
<path d="M48.3324 31.7248C35.0801 31.7248 21.8278 31.7248 8.57557 31.7248C8.04202 31.7248 7.94294 31.5876 7.95056 31.0846C7.95056 28.8386 7.95056 26.5901 7.95056 24.339C7.95056 23.8665 8.09538 23.7979 8.52222 23.7979H83.2186C84.9412 23.7979 86.6562 23.7979 88.3788 23.7979C88.7218 23.7979 88.8056 23.8969 88.8056 24.2247C88.8056 26.557 88.8056 28.897 88.8056 31.2294C88.8056 31.6638 88.6532 31.7172 88.2797 31.7172H48.3324V31.7248Z" fill="#FEFEFE"/>
<path d="M99.0877 27.7691C99.0907 26.9904 99.3244 26.23 99.7592 25.584C100.194 24.938 100.811 24.4353 101.531 24.1394C102.251 23.8434 103.043 23.7676 103.806 23.9213C104.57 24.0751 105.271 24.4516 105.82 25.0033C106.37 25.555 106.743 26.2572 106.894 27.0212C107.045 27.7852 106.966 28.5767 106.668 29.2959C106.369 30.015 105.864 30.6296 105.216 31.0619C104.568 31.4942 103.807 31.725 103.028 31.725C102.509 31.726 101.995 31.6243 101.516 31.4256C101.036 31.227 100.601 30.9354 100.234 30.5677C99.8679 30.1999 99.578 29.7633 99.3812 29.283C99.1845 28.8027 99.0847 28.2882 99.0877 27.7691Z" fill="#FEFEFE"/>
<path d="M13.0573 13.2494C13.0573 11.6641 13.0573 10.2006 13.0573 8.79053C13.0573 8.31796 13.1411 8.14265 13.6594 8.17314C14.6198 8.21888 14.6198 8.17314 14.6198 9.1259C14.6198 11.2677 14.6198 13.4171 14.6198 15.5589C14.6198 15.9553 14.4979 15.9934 14.1396 16.0391C13.781 16.111 13.4086 16.056 13.086 15.8836C12.7635 15.7112 12.5108 15.4321 12.3713 15.094C11.6091 13.7068 10.6639 12.3882 9.80265 11.039L9.48253 10.5512V14.972C9.48253 16.0239 9.48253 16.0086 8.41543 16.0315C8.01146 16.0315 7.90475 15.9248 7.90475 15.5285C7.90475 13.2418 7.90475 10.9552 7.90475 8.66858C7.90475 8.31034 8.01909 8.25699 8.36208 8.20363C8.82819 8.09612 9.31751 8.1622 9.73842 8.38949C10.1593 8.61678 10.483 8.98969 10.6487 9.43841C11.2356 10.597 12.0131 11.6641 12.7143 12.7769C12.7829 12.8683 12.882 12.9979 13.0573 13.2494Z" fill="#FEFEFE"/>
<path d="M39.5821 11.1221C40.794 10.1693 41.7315 10.1845 42.6843 11.1221C42.8672 11.2974 42.8977 11.183 42.9816 11.0839C43.2737 10.7565 43.6642 10.5327 44.0944 10.4461C44.5246 10.3595 44.9712 10.4148 45.3673 10.6038C45.7444 10.761 46.0592 11.0381 46.2631 11.3921C46.467 11.7462 46.5486 12.1575 46.4953 12.5626C46.4953 13.584 46.4953 14.6054 46.4953 15.6115C46.4953 15.9163 46.4267 16.0154 46.099 16.0154C45.0395 16.0154 45.0395 16.0154 45.0395 14.956V12.8751C45.0395 12.1129 44.6965 11.7471 44.0791 11.7623C43.4618 11.7776 43.1188 12.212 43.1188 12.9056C43.1188 13.8127 43.1188 14.7121 43.1188 15.6115C43.1188 15.9621 43.0044 16.0307 42.6843 16.0307C41.6248 16.0307 41.6248 16.0307 41.6248 14.9636C41.6248 14.2471 41.6248 13.5383 41.6248 12.8218C41.6248 12.1053 41.2818 11.7699 40.7102 11.7623C40.5732 11.7578 40.4368 11.782 40.3098 11.8332C40.1827 11.8845 40.0677 11.9618 39.9723 12.0601C39.8768 12.1585 39.803 12.2757 39.7555 12.4042C39.708 12.5327 39.6879 12.6698 39.6965 12.8065C39.6965 13.7441 39.6965 14.6816 39.6965 15.6191C39.6965 15.9087 39.6431 16.0307 39.3077 16.0307C38.2101 16.0307 38.2101 16.0307 38.2101 14.9636C38.2101 13.6373 38.2101 12.3111 38.2101 10.9849C38.2101 10.6342 38.3092 10.5275 38.637 10.5656C38.8069 10.5809 38.9778 10.5809 39.1477 10.5656C39.4678 10.5428 39.765 10.5428 39.5821 11.1221Z" fill="#FEFEFE"/>
<path d="M17.9125 14.5224C19.2388 14.5224 20.4431 14.5224 21.655 14.5224C21.998 14.5224 22.0742 14.6215 22.0742 14.9493C22.1047 16.0087 22.1047 16.0087 20.9842 16.0087C19.4598 16.0087 17.8821 16.0087 16.3348 16.0087C15.9918 16.0087 15.8927 15.9249 15.8622 15.5667C15.8301 15.2287 15.8736 14.8878 15.9896 14.5688C16.1056 14.2497 16.2912 13.9605 16.5329 13.7221C17.6686 12.434 18.7357 11.0925 19.8257 9.77387C19.719 9.59856 19.5665 9.66716 19.4446 9.65954C18.4232 9.65954 17.4019 9.65954 16.3957 9.65954C16.1366 9.65954 16.0527 9.59094 16.0451 9.31655C16.007 8.18086 15.9994 8.18848 17.1275 8.18848C18.6138 8.18848 20.0925 8.18848 21.5711 8.18848C21.9065 8.18848 21.9827 8.27232 22.0132 8.60769C22.046 8.94146 22.0049 9.27835 21.893 9.59448C21.781 9.91061 21.6009 10.1982 21.3653 10.437C20.2983 11.626 19.2921 12.8761 18.2708 14.1032C18.1564 14.2099 18.0726 14.3243 17.9125 14.5224Z" fill="#FEFEFE"/>
<path d="M28.5988 8.18814C29.3153 8.18814 30.0317 8.18814 30.7482 8.18814C30.9921 8.18814 31.0531 8.25674 31.0683 8.50065C31.1217 9.6592 31.1293 9.6592 29.9555 9.6592C29.3076 9.6592 28.6598 9.6592 28.0195 9.6592C27.7527 9.6592 27.6536 9.7278 27.6689 10.0022C27.6689 10.4062 27.6689 10.8178 27.6689 11.2217C27.6689 11.4961 27.7527 11.5647 28.0119 11.5647C28.7741 11.5647 29.5363 11.5647 30.2985 11.5647C30.5881 11.5647 30.6644 11.6409 30.672 11.9306C30.672 13.0053 30.672 13.0053 29.6278 13.0053C29.0866 13.0053 28.5454 13.0053 27.9966 13.0053C27.7299 13.0053 27.6536 13.0815 27.6536 13.3483C27.6536 14.1105 27.6536 14.9108 27.6536 15.6959C27.6536 15.9855 27.5622 16.0618 27.2725 16.0694C26.0759 16.0694 26.0759 16.0694 26.0759 14.888C26.0759 12.8605 26.0759 10.833 26.0759 8.79029C26.0759 8.27198 26.2207 8.15765 26.7009 8.18814C27.3411 8.21863 27.9738 8.18814 28.5988 8.18814Z" fill="#FEFEFE"/>
<path d="M73.3479 12.7311V15.4598C73.3606 15.5741 73.3399 15.6896 73.2884 15.7923C73.2368 15.895 73.1566 15.9806 73.0574 16.0387C72.9582 16.0968 72.8442 16.1248 72.7294 16.1195C72.6146 16.1141 72.5038 16.0756 72.4104 16.0086C72.2656 15.9476 72.2579 15.8409 72.2579 15.719C72.2579 14.1183 72.2579 12.5177 72.2579 10.9171C72.2579 10.7113 72.3342 10.6046 72.5552 10.6198C72.7936 10.6389 73.0332 10.6389 73.2717 10.6198C73.3957 10.5971 73.5238 10.6233 73.6289 10.6929C73.7341 10.7625 73.8082 10.8702 73.8357 10.9933C74.2854 12.1137 74.758 13.2266 75.2305 14.3775C75.4668 14.0043 75.6539 13.602 75.787 13.1808C76.0766 12.5101 76.3662 11.8317 76.6025 11.1457C76.6359 10.976 76.7342 10.8259 76.8766 10.7277C77.019 10.6294 77.1942 10.5907 77.3647 10.6198C78.2489 10.6198 78.2489 10.6198 78.2489 11.504C78.2489 12.8607 78.2489 14.225 78.2489 15.5894C78.2489 16.0162 78.0812 16.0467 77.7382 16.0391C77.3952 16.0315 77.1742 16.0391 77.1894 15.5665C77.2296 14.5648 77.2016 13.5614 77.1056 12.5634C76.6864 13.5772 76.2595 14.5833 75.8632 15.6123C75.8174 15.7414 75.7327 15.8532 75.6208 15.9323C75.5089 16.0114 75.3752 16.0538 75.2382 16.0538C75.1011 16.0538 74.9675 16.0114 74.8555 15.9323C74.7436 15.8532 74.6589 15.7414 74.6132 15.6123C74.2244 14.6366 73.8509 13.6839 73.4165 12.7159L73.3479 12.7311Z" fill="#959595"/>
<path d="M60.2151 13.912C60.2151 12.944 60.2151 11.976 60.2151 11.008C60.2151 10.6116 60.398 10.5811 60.68 10.6269C60.962 10.6726 61.3279 10.4211 61.3203 10.9851C61.3203 12.5476 61.3203 14.1102 61.3203 15.6803C61.3203 15.9471 61.2212 16.0157 60.962 16.0309C60.7251 16.0776 60.4793 16.0437 60.2638 15.9346C60.0484 15.8255 59.8756 15.6474 59.773 15.4288C59.1686 14.3915 58.4991 13.3935 57.7684 12.4409C57.7684 13.447 57.7684 14.4531 57.7684 15.4898C57.7684 15.6803 57.8903 15.9623 57.6388 16.0233C57.3542 16.0766 57.0621 16.0766 56.7775 16.0233C56.6479 16.0233 56.6784 15.8251 56.6784 15.7108C56.6784 14.1864 56.6784 12.5857 56.6784 11.0156C56.6784 10.7183 56.8004 10.6802 57.0671 10.6421C57.3608 10.5751 57.6688 10.615 57.9356 10.7547C58.2025 10.8944 58.4107 11.1248 58.523 11.4043C58.9955 12.2961 59.59 13.1269 60.1236 13.9806L60.2151 13.912Z" fill="#959595"/>
<path d="M88.4167 13.8356C88.4167 12.921 88.4167 11.9987 88.4167 11.0841C88.4167 10.5658 88.6758 10.6267 89.0112 10.6115C89.3466 10.5963 89.5448 10.6801 89.5295 11.1069C89.5295 12.5323 89.5295 13.9652 89.5295 15.3906C89.5295 15.604 89.6896 15.9698 89.3694 15.9927C89.0493 16.0156 88.5234 16.229 88.2185 15.7335C87.6545 14.8036 87.06 13.8966 86.4654 12.982C86.375 12.7701 86.2238 12.5897 86.031 12.4637V13.7213C86.031 14.2853 86.031 14.8494 86.031 15.4058C86.031 15.5963 86.1377 15.886 85.9014 15.9546C85.6172 16.0119 85.3243 16.0119 85.0401 15.9546C84.9029 15.9546 84.941 15.764 84.941 15.6497C84.941 14.0643 84.941 12.4789 84.941 10.9011C84.941 10.6572 85.0249 10.6039 85.2611 10.5734C85.5644 10.4963 85.8853 10.5309 86.1652 10.6708C86.4451 10.8107 86.6653 11.0467 86.7856 11.3356C87.2353 12.1969 87.8145 12.9972 88.31 13.828L88.4167 13.8356Z" fill="#959595"/>
<path d="M50.2607 13.295C50.2677 12.5612 50.566 11.8602 51.0899 11.3463C51.6138 10.8325 52.3203 10.5477 53.0542 10.5548C53.788 10.5619 54.4889 10.8602 55.0028 11.3841C55.5166 11.9079 55.8014 12.6145 55.7943 13.3483C55.7872 14.0821 55.4889 14.7831 54.965 15.2969C54.7056 15.5514 54.3987 15.7522 54.0616 15.888C53.7246 16.0239 53.3641 16.092 53.0008 16.0884C52.267 16.0814 51.566 15.7831 51.0522 15.2592C50.5383 14.7353 50.2536 14.0288 50.2607 13.295ZM51.3887 13.295C51.3698 13.5194 51.3972 13.7454 51.4691 13.9589C51.5411 14.1724 51.656 14.3688 51.807 14.5361C51.9579 14.7033 52.1415 14.8378 52.3465 14.9313C52.5515 15.0247 52.7735 15.0751 52.9987 15.0792C53.224 15.0834 53.4477 15.0413 53.656 14.9556C53.8643 14.8698 54.0528 14.7422 54.2098 14.5807C54.3669 14.4191 54.4891 14.2271 54.5689 14.0164C54.6487 13.8058 54.6844 13.581 54.6738 13.3559C54.6918 13.1264 54.6619 12.8957 54.586 12.6784C54.5101 12.4611 54.3898 12.2619 54.2329 12.0935C54.0759 11.9251 53.8857 11.7911 53.6743 11.7001C53.4628 11.6091 53.2348 11.563 53.0046 11.5647C52.7854 11.5676 52.5691 11.6144 52.3683 11.7024C52.1676 11.7904 51.9865 11.9177 51.8358 12.0769C51.6852 12.2361 51.568 12.4239 51.4912 12.6292C51.4144 12.8345 51.3795 13.0531 51.3887 13.2721V13.295Z" fill="#959595"/>
<path d="M62.4408 13.2716C62.4408 12.5094 62.4408 11.7472 62.4408 11.0307C62.4408 10.7334 62.4941 10.5962 62.8295 10.6115C63.4926 10.6115 64.1634 10.6115 64.8189 10.6572C65.1539 10.6863 65.4797 10.7829 65.7764 10.9411C66.0731 11.0994 66.3348 11.3161 66.5456 11.5782C66.7564 11.8402 66.9119 12.1423 67.0029 12.466C67.0939 12.7898 67.1184 13.1286 67.075 13.4622C67.0805 13.8032 67.0163 14.1417 66.8864 14.4571C66.7566 14.7724 66.5637 15.058 66.3197 15.2963C66.0757 15.5346 65.7857 15.7206 65.4674 15.8429C65.149 15.9653 64.809 16.0214 64.4683 16.0079C63.9118 16.0079 63.3478 16.0079 62.7838 16.0079C62.517 16.0079 62.4332 15.9165 62.4332 15.6497C62.4484 14.8722 62.4408 14.0719 62.4408 13.2716ZM63.5307 13.2716V14.3387C63.5307 14.9942 63.5307 14.9942 64.1939 14.9942C64.4249 15.0262 64.6602 15.0047 64.8817 14.9315C65.1031 14.8582 65.3048 14.7351 65.4712 14.5717C65.6376 14.4082 65.7643 14.2088 65.8415 13.9887C65.9187 13.7686 65.9443 13.5337 65.9165 13.3021C65.9441 13.0712 65.9185 12.8371 65.8417 12.6177C65.765 12.3982 65.639 12.1992 65.4735 12.0359C65.308 11.8726 65.1073 11.7493 64.8869 11.6755C64.6664 11.6017 64.432 11.5793 64.2015 11.61C63.5307 11.61 63.5307 11.61 63.5307 12.2502V13.2716Z" fill="#959595"/>
<path d="M90.7415 13.2715C90.7415 12.5093 90.7415 11.7471 90.7415 11.0307C90.7415 10.741 90.7949 10.5962 91.1302 10.6114C91.7781 10.6114 92.426 10.6114 93.0662 10.6572C93.3957 10.6859 93.7162 10.7794 94.0094 10.9321C94.3027 11.0849 94.563 11.2939 94.7754 11.5474C94.9877 11.8008 95.1481 12.0937 95.2472 12.4091C95.3463 12.7246 95.3822 13.0565 95.3529 13.3859C95.3632 13.7298 95.3037 14.0722 95.178 14.3925C95.0523 14.7128 94.863 15.0043 94.6215 15.2493C94.38 15.4944 94.0913 15.6879 93.7729 15.8183C93.4545 15.9487 93.113 16.0132 92.769 16.0079C92.2049 16.0079 91.6485 16.0079 91.0845 16.0079C90.8101 16.0079 90.7339 15.9088 90.7339 15.6496C90.7491 14.8722 90.7415 14.0719 90.7415 13.2715ZM91.7781 13.3097V14.6816C91.7781 14.8036 91.7324 14.9408 91.9229 15.0094C92.1506 15.0808 92.3905 15.1049 92.6278 15.08C92.8651 15.0551 93.0947 14.9818 93.3026 14.8646C93.5105 14.7475 93.6921 14.589 93.8363 14.3989C93.9805 14.2088 94.0842 13.9911 94.141 13.7594C94.4154 12.3188 93.4855 11.3889 92.0068 11.6252C91.7934 11.6633 91.7781 11.77 91.7781 11.9301V13.3097Z" fill="#959595"/>
<path d="M81.6255 10.6198C82.1057 10.5055 82.2962 10.7265 82.4487 11.1457C82.9746 12.6168 83.5462 14.0726 84.1103 15.5284C84.2475 15.879 84.2551 16.0162 83.7978 16.0467C83.3405 16.0772 82.967 15.9019 82.8831 15.376C82.8823 15.2783 82.8583 15.1823 82.8131 15.0958C82.7679 15.0092 82.7029 14.9346 82.6233 14.8781C82.5437 14.8215 82.4518 14.7847 82.3552 14.7705C82.2586 14.7564 82.16 14.7654 82.0676 14.7967C81.8977 14.8119 81.7268 14.8119 81.5569 14.7967C80.566 14.7967 80.566 14.7967 80.2002 15.6961C80.0618 15.8529 79.8799 15.965 79.6776 16.0179C79.4753 16.0709 79.2619 16.0623 79.0645 15.9934C78.9654 15.9095 79.0187 15.8104 79.0645 15.719C79.6895 14.0878 80.3221 12.4567 80.9471 10.818C81.0843 10.4292 81.4197 10.7417 81.6255 10.6198ZM81.6255 11.8622C81.3892 12.4872 81.1986 13.0131 81.0081 13.5314C81.0081 13.6077 80.9395 13.7372 81.0081 13.7525C81.3947 13.8096 81.7876 13.8096 82.1743 13.7525C82.2505 13.7525 82.2734 13.6839 82.2581 13.6077V13.5086L81.6255 11.8622Z" fill="#959595"/>
<path d="M69.6207 10.6191C70.0628 10.6191 70.5049 10.6191 70.947 10.6191C71.389 10.6191 71.2823 10.9316 71.2976 11.1756C71.3128 11.4195 71.3433 11.6862 70.9241 11.6557C70.5049 11.6253 69.9027 11.6557 69.3997 11.6557C69.0491 11.6557 68.95 11.7777 68.9881 12.0978C69.0034 12.2499 69.0034 12.4031 68.9881 12.5551C68.9881 12.7991 69.0719 12.8829 69.3158 12.8829C69.7884 12.8829 70.2686 12.8829 70.7488 12.8829C71.229 12.8829 71.0994 13.1344 71.107 13.386C71.1146 13.6375 71.107 13.8585 70.7488 13.8357C70.3905 13.8128 69.8265 13.8357 69.3692 13.8357C69.0872 13.8357 68.9881 13.9119 68.9805 14.2091C68.9805 15.0552 68.9805 15.0552 69.8113 15.0552H70.6802C71.2823 15.0552 71.4424 15.3067 71.3052 15.8936C71.2595 16.0766 71.1375 16.0766 71.0003 16.0766H68.1801C67.9591 16.0766 67.8905 15.9775 67.8905 15.764C67.8905 14.1634 67.8905 12.5628 67.8905 10.9621C67.8905 10.6954 68.0201 10.6573 68.2411 10.6649L69.6207 10.6191Z" fill="#959595"/>
<path d="M35.1689 11.9989C35.1689 10.8098 35.1689 9.62076 35.1689 8.43172C35.1689 8.0811 35.2833 8.00488 35.6034 8.00488C36.701 8.00488 36.701 8.00488 36.701 9.0796C36.701 11.2366 36.701 13.3937 36.701 15.5507C36.701 15.9318 36.6095 16.0386 36.2284 16.0309C35.1766 16.0309 35.1766 16.0309 35.1766 14.9562L35.1689 11.9989Z" fill="#FEFEFE"/>
<path d="M33.6293 13.2797C33.6293 14.0419 33.6293 14.8727 33.6293 15.673C33.6293 15.9322 33.5684 16.0236 33.294 16.0312C32.1583 16.0312 32.1583 16.077 32.1583 14.9413C32.1583 13.615 32.1583 12.2964 32.1583 10.9702C32.1583 10.6653 32.2269 10.5586 32.5546 10.5586C33.6369 10.5586 33.637 10.5586 33.637 11.5952C33.637 12.1973 33.6369 12.7156 33.6293 13.2797Z" fill="#FEFEFE"/>
<path d="M32.8899 9.69778C32.7738 9.69678 32.659 9.67293 32.5521 9.62757C32.4452 9.58221 32.3483 9.51625 32.2669 9.43343C32.1855 9.35062 32.1212 9.25259 32.0777 9.14493C32.0342 9.03728 32.0123 8.92211 32.0133 8.806C32.0133 8.68259 32.0379 8.56041 32.0856 8.44658C32.1332 8.33276 32.2031 8.22956 32.2911 8.14301C32.379 8.05646 32.4834 7.98829 32.5979 7.94246C32.7125 7.89664 32.8351 7.87408 32.9585 7.8761C33.1998 7.88975 33.4267 7.99531 33.5926 8.1711C33.7584 8.3469 33.8506 8.57955 33.8503 8.82124C33.8485 8.94307 33.8219 9.06325 33.7719 9.17437C33.7219 9.28549 33.6497 9.38519 33.5597 9.46733C33.4698 9.54946 33.3639 9.61229 33.2487 9.65192C33.1335 9.69156 33.0114 9.70716 32.8899 9.69778Z" fill="#FEFEFE"/>
<path d="M51.3886 13.2723C51.3763 13.0514 51.4087 12.8303 51.4841 12.6223C51.5595 12.4144 51.6762 12.2238 51.8271 12.0621C51.9781 11.9005 52.1603 11.771 52.3626 11.6817C52.565 11.5923 52.7833 11.5448 53.0045 11.542C53.2347 11.5403 53.4627 11.5864 53.6742 11.6774C53.8856 11.7684 54.0758 11.9024 54.2328 12.0708C54.3897 12.2392 54.51 12.4384 54.5859 12.6557C54.6618 12.873 54.6917 13.1037 54.6737 13.3332C54.6843 13.5583 54.6486 13.7831 54.5688 13.9937C54.489 14.2044 54.3668 14.3964 54.2097 14.558C54.0527 14.7195 53.8642 14.8471 53.6559 14.9329C53.4476 15.0186 53.2239 15.0607 52.9986 15.0565C52.7734 15.0524 52.5514 15.002 52.3464 14.9086C52.1414 14.8151 51.9578 14.6806 51.8069 14.5134C51.6559 14.3461 51.541 14.1497 51.469 13.9362C51.3971 13.7227 51.3697 13.4967 51.3886 13.2723Z" fill="#231F20"/>
<path d="M63.5307 13.2951V12.2737C63.5307 11.6259 63.5307 11.6259 64.2014 11.6335C64.4319 11.6028 64.6663 11.6252 64.8868 11.699C65.1073 11.7728 65.3079 11.8961 65.4735 12.0594C65.639 12.2227 65.7649 12.4217 65.8417 12.6411C65.9185 12.8606 65.944 13.0947 65.9164 13.3256C65.9443 13.5572 65.9186 13.792 65.8414 14.0122C65.7642 14.2323 65.6376 14.4317 65.4712 14.5952C65.3048 14.7586 65.1031 14.8817 64.8816 14.955C64.6602 15.0282 64.4249 15.0497 64.1938 15.0177C63.5307 15.0177 63.5307 15.0177 63.5307 14.3622V13.2951Z" fill="#231F20"/>
<path d="M91.7781 13.31V11.9304C91.7781 11.7703 91.7781 11.6636 92.0068 11.6255C93.4854 11.3892 94.4153 12.3191 94.1409 13.7597C94.0842 13.9914 93.9805 14.2091 93.8363 14.3992C93.6921 14.5893 93.5105 14.7478 93.3026 14.8649C93.0947 14.9821 92.865 15.0554 92.6277 15.0803C92.3905 15.1052 92.1506 15.0811 91.9229 15.0097C91.7324 14.9411 91.7857 14.8039 91.7781 14.6819V13.31Z" fill="#231F20"/>
<path d="M81.6027 11.8623L82.2124 13.5392V13.6382C82.2124 13.7145 82.2124 13.7831 82.1286 13.7831C81.742 13.8402 81.349 13.8402 80.9624 13.7831C80.8862 13.7831 80.9243 13.6383 80.9624 13.562C81.1758 13.0132 81.3664 12.4873 81.6027 11.8623Z" fill="#231F20"/>
</svg>
