<svg width="126" height="31" viewBox="0 0 126 31" fill="none" xmlns="http://www.w3.org/2000/svg">
<path d="M30.3363 15.215C30.39 15.3077 30.3656 15.4054 30.3656 15.4982C30.3656 19.7121 30.3656 23.9308 30.3656 28.1447C30.3656 29.1554 29.6771 29.839 28.6615 29.8439C24.3646 29.8439 20.0677 29.8439 15.7708 29.8439C15.7024 29.8439 15.6096 29.8879 15.5706 29.8097C15.5364 29.7267 15.6341 29.6828 15.678 29.6388C16.5472 28.7746 17.4212 27.9152 18.2952 27.0509C19.2474 26.1086 20.1995 25.1613 21.1517 24.2238C21.2542 24.1213 21.2933 24.0187 21.264 23.8771C21.2298 23.6964 21.2005 23.506 21.2005 23.3205C21.2054 22.925 21.0345 22.6271 20.7708 22.3537C20.3118 21.88 19.8235 21.4406 19.2669 21.0841C18.72 20.7326 18.1194 20.7863 17.5188 20.8937C16.4495 21.0841 15.3899 21.3429 14.3157 21.5187C13.1878 21.7042 12.0842 21.6164 10.9856 21.338C8.71997 20.7619 6.78637 19.6095 5.2141 17.8859C3.76878 16.3038 2.75315 14.463 2.23069 12.3927C1.68381 10.2247 1.9426 8.12021 3.0803 6.15731C4.16917 4.27254 5.71215 2.8907 7.69458 2.01667C8.94458 1.46491 10.2678 1.37214 11.6155 1.55768C13.6809 1.84577 15.5364 2.65144 17.2063 3.87703C18.9495 5.15633 20.263 6.79696 21.1614 8.76963C21.8206 10.2198 22.1038 11.7384 22.0159 13.3204C21.972 14.1163 21.8255 14.8976 21.7083 15.6837C21.5911 16.4601 21.4642 17.2413 21.4935 18.0324C21.4983 18.2179 21.5179 18.4035 21.5521 18.589C21.6106 18.9357 21.7669 19.2287 22.0501 19.4533C22.4261 19.7462 22.763 20.0929 23.1732 20.3468C23.6566 20.6496 24.1888 20.6496 24.7308 20.6203C24.8333 20.6154 24.887 20.5421 24.9505 20.4787C26.0589 19.38 27.1722 18.2814 28.2806 17.1827C28.9007 16.5724 29.5208 15.962 30.1458 15.3566C30.1947 15.298 30.2386 15.215 30.3363 15.215Z" fill="#3F9FFF"/>
<path d="M51.2932 19.9416C51.2932 18.5255 51.2835 17.1095 51.2981 15.6935C51.3079 14.6193 51.3079 13.545 51.4788 12.4855C51.5423 12.0753 51.6399 11.6749 51.8694 11.3185C52.0647 11.0157 52.343 10.8253 52.6897 10.757C53.6028 10.5812 54.5208 10.6251 55.4387 10.6886C55.9514 10.7228 56.0784 10.9523 55.927 11.4454C55.8538 11.6847 55.761 11.9191 55.7024 12.1632C55.5901 12.6222 55.9368 12.9445 56.3958 12.8126C56.7034 12.7247 56.9671 12.5343 57.2356 12.3732C58.0559 11.8898 58.9349 11.6212 59.8821 11.548C60.6634 11.4894 61.3323 11.753 61.9573 12.1827C62.0843 12.2706 62.221 12.3439 62.3382 12.4464C62.9241 12.9493 63.5638 12.9152 64.2376 12.6515C64.7698 12.4464 65.2386 12.1193 65.7659 11.9044C67.7923 11.0695 70.39 11.631 71.5277 14.2091C72.0453 15.3761 72.2894 16.6017 72.4163 17.8615C72.6165 19.8634 72.5628 21.8752 72.5335 23.882C72.514 25.2492 72.4554 26.6115 72.2162 27.9592C72.138 28.4084 72.0404 28.8527 71.7962 29.2482C71.6497 29.4924 71.4544 29.6535 71.1468 29.6486C70.1849 29.634 69.2279 29.634 68.2708 29.6096C67.7337 29.5949 67.5921 29.3996 67.6995 28.8771C67.929 27.7785 68.1878 26.6896 68.3587 25.5812C68.598 24.0138 68.7249 22.4367 68.72 20.8449C68.7152 19.9269 68.681 19.0089 68.5052 18.1056C68.3392 17.2365 68.095 16.4015 67.5091 15.7081C66.8499 14.922 65.8929 14.7755 64.9798 14.9904C64.6771 15.0587 64.4915 15.298 64.3548 15.5617C64.0667 16.1329 63.9837 16.7531 63.9202 17.3781C63.8372 18.2374 63.8275 19.0968 63.8226 19.9611C63.8177 22.1632 63.847 24.3703 63.7591 26.5724C63.7298 27.3976 63.72 28.2326 63.5198 29.0431C63.4075 29.4924 63.2562 29.6291 62.7923 29.6291C61.7571 29.6389 60.7269 29.6389 59.6917 29.6437C59.2864 29.6437 59.1985 29.5412 59.2571 29.1408C59.4964 27.5588 59.7503 25.9767 59.9749 24.3947C60.2776 22.2658 60.4485 20.1271 60.18 17.9787C60.0774 17.173 59.9163 16.3771 59.4329 15.6886C58.8372 14.839 57.7044 14.6437 56.8548 15.2443C56.1663 15.7277 55.844 16.4454 55.6048 17.2169C55.3411 18.0763 55.2337 18.965 55.1751 19.8585C55.0579 21.6164 55.1018 23.3693 55.2337 25.1222C55.3264 26.3576 55.5266 27.5734 55.8391 28.7697C56.0247 29.4777 55.8929 29.6291 55.1604 29.634C54.2473 29.6389 53.3391 29.6437 52.426 29.6535C52.0598 29.6584 51.8938 29.5461 51.7473 29.1799C51.6057 28.8234 51.5423 28.4426 51.4983 28.0666C51.3274 26.6359 51.2981 25.1955 51.2932 23.755C51.2883 22.4855 51.2932 21.216 51.2932 19.9464C51.303 19.9416 51.2981 19.9416 51.2932 19.9416Z" fill="#FF7F00"/>
<path d="M101.527 8.76572C101.483 8.7664 101.438 8.7709 101.391 8.77945C100.967 8.86246 100.713 9.175 100.459 9.47773C100.117 9.87812 99.819 10.3175 99.4675 10.7082C99.1061 11.1037 98.7058 11.4553 98.0954 11.3039C97.5778 11.177 97.0554 11.1135 96.6501 11.1282C95.7077 11.133 94.9118 11.2502 94.1355 11.5138C92.6853 12.0021 91.6549 12.9396 91.0446 14.341C90.7272 15.0637 90.5856 15.8254 90.5466 16.6115C90.4929 17.6125 90.6296 18.5842 91.0397 19.5119C91.3718 20.2541 91.8746 20.8792 92.3434 21.5286C92.6657 21.9827 92.6218 22.1927 92.153 22.5052C91.6501 22.8421 91.113 23.1301 90.6394 23.5207C89.3405 24.595 89.0719 26.3772 89.5797 27.7347C90.1022 29.136 91.2399 29.7708 92.6511 29.9905C93.8278 30.1712 94.9411 29.8782 96.0299 29.4632C96.8161 29.1653 97.5925 28.8235 98.4323 28.6819C99.1404 28.5648 99.7995 28.6234 100.327 29.1702C100.517 29.3704 100.674 29.5999 100.859 29.805C101.128 30.1028 101.435 30.1223 101.728 29.844C101.85 29.7268 101.963 29.595 102.055 29.4534C102.651 28.5354 103.017 27.5247 103.271 26.47C103.374 26.0501 103.252 25.7034 102.91 25.4349C102.802 25.3519 102.69 25.2639 102.573 25.1956C101.342 24.4778 100.034 24.3704 98.6618 24.6536C97.6266 24.8685 96.6306 25.2151 95.6296 25.5471C95.1559 25.7034 94.6823 25.889 94.1696 25.8987C93.7497 25.9085 93.3981 25.674 93.237 25.2834C93.11 24.9709 93.2028 24.6194 93.5104 24.3411C94.3698 23.5647 95.4147 23.2473 96.5426 23.2034C97.319 23.1741 98.0857 23.1106 98.823 22.8616C99.9753 22.4758 100.913 21.7971 101.601 20.7912C102.231 19.8732 102.578 18.8479 102.661 17.7444C102.749 16.5237 102.632 15.3273 102.036 14.2189C101.84 13.8527 101.577 13.5305 101.391 13.1594C101.289 12.9592 101.201 12.7541 101.26 12.51C101.362 12.09 101.67 11.9094 102.055 11.8166C102.505 11.7092 102.973 11.7141 103.427 11.6165C103.847 11.5237 103.95 11.3235 103.774 10.9329C103.691 10.7473 103.584 10.5715 103.462 10.4103C103.017 9.81951 102.568 9.23361 101.904 8.86251C101.783 8.7966 101.66 8.76366 101.527 8.76572ZM96.6064 13.8191C96.7061 13.8207 96.8069 13.8272 96.9088 13.8381C98.1149 13.97 98.9108 14.634 99.2233 15.8107C99.4663 16.7389 99.3386 17.771 98.7876 18.5094C98.7876 18.5097 98.7871 18.51 98.787 18.5103C98.783 18.5156 98.7788 18.5208 98.7748 18.526C98.7592 18.5466 98.7436 18.5671 98.7273 18.5872C98.6144 18.7273 98.4853 18.856 98.3395 18.97C97.4362 19.678 96.4109 19.7561 95.4001 19.3118C94.3747 18.8626 93.9352 17.9641 93.8766 16.8704C93.8815 16.7776 93.8864 16.6994 93.8864 16.5676C93.8877 16.4736 93.8924 16.3802 93.901 16.2877C93.9097 16.195 93.9223 16.1033 93.9388 16.0125C94.0303 15.5104 94.2465 15.0407 94.6276 14.6402C94.6593 14.6067 94.6923 14.5738 94.7262 14.5412C94.7262 14.5411 94.7262 14.541 94.7267 14.5409C94.73 14.5378 94.7329 14.5346 94.7362 14.5315C95.2702 14.0273 95.909 13.8073 96.6066 13.8191L96.6064 13.8191Z" fill="#FF7F00"/>
<path d="M81.8852 11.1232C80.5522 11.1134 79.2094 11.5822 78.0229 12.4807C76.5238 13.6232 75.6107 15.1663 75.0492 16.9387C74.683 18.0911 74.5072 19.2776 74.4486 20.4836C74.3558 22.3196 74.5316 24.1165 75.2494 25.8303C76.1673 28.0227 77.7152 29.4778 80.1078 29.9026C81.8705 30.2151 83.5649 30.0295 85.1469 29.1164C87.3149 27.8664 88.0571 25.3567 87.5932 23.2864C87.5542 23.1253 87.5297 22.9494 87.4125 22.8127C87.2758 22.6516 87.1537 22.6516 87.061 22.842C86.9877 22.9934 86.934 23.1594 86.8705 23.3157C86.641 23.8919 86.3578 24.4338 85.9184 24.883C85.2006 25.6204 84.307 25.9817 83.3109 26.133C82.0218 26.3283 80.8012 26.1526 79.6879 25.4397C79.3119 25.1956 78.975 24.8977 78.7748 24.4827C78.4672 23.8479 78.7211 23.1545 79.4096 22.7102C80.1909 22.2073 81.0746 21.9533 81.9437 21.6701C83.0326 21.3137 84.1215 20.9622 85.1274 20.4055C86.0942 19.8733 86.8998 19.175 87.3539 18.1399C87.7104 17.3342 87.7885 16.4846 87.7006 15.6105C87.5444 14.0822 86.8363 12.8811 85.5326 12.0559C84.473 11.3869 83.2963 11.133 81.8852 11.1232ZM81.8999 14.4631C82.4809 14.5119 83.0571 14.6731 83.5405 15.1369C83.8237 15.4104 84.0288 15.7033 84.146 16.0793C84.3266 16.6359 84.1557 17.0558 83.7065 17.3976C83.0522 17.8957 82.2904 18.1789 81.5287 18.4474C80.7328 18.7306 79.9174 18.9358 79.0922 19.1164C79.0629 19.1213 79.0287 19.1262 78.9946 19.131C78.9619 19.1359 78.9304 19.1398 78.9001 19.1427C78.4765 19.183 78.2877 19.024 78.2646 18.6C78.263 18.57 78.2621 18.5387 78.2621 18.5061C78.2621 17.9885 78.3792 17.4905 78.5746 17.0168C78.9179 16.1883 79.4157 15.4842 80.1646 14.989C80.2145 14.956 80.2656 14.9239 80.3178 14.8928C80.7865 14.6096 81.2993 14.4826 81.8998 14.4631H81.8999Z" fill="#FF7F00"/>
<path d="M119.671 11.1216C118.773 11.1326 117.897 11.3188 117.051 11.7149C115.21 12.5743 113.999 14.0342 113.198 15.8555C112.481 17.4815 112.212 19.2002 112.163 20.958C112.163 21.4317 112.168 21.9004 112.212 22.3741C112.324 23.8536 112.647 25.2793 113.355 26.5977C114.214 28.1993 115.493 29.2931 117.256 29.7814C118.491 30.1232 119.746 30.1378 120.996 29.8692C122.197 29.6104 123.257 29.0684 124.097 28.1554C125.029 27.1348 125.459 25.9093 125.464 24.5323C125.469 23.9952 125.435 23.4581 125.234 22.9503C125.191 22.8331 125.127 22.7207 124.985 22.7159C124.839 22.711 124.815 22.8478 124.771 22.9454C124.697 23.1261 124.629 23.3067 124.556 23.4874C124.121 24.5567 123.408 25.3624 122.324 25.8019C121.362 26.1925 120.356 26.3096 119.336 26.1631C118.413 26.0313 117.568 25.6749 116.89 25.0059C116.182 24.3077 116.24 23.4141 117.036 22.8135C117.573 22.4082 118.193 22.1885 118.814 21.9737C120.039 21.5489 121.294 21.2071 122.461 20.6309C123.315 20.211 124.092 19.6836 124.663 18.9072C125.298 18.043 125.503 17.0615 125.469 16.0068C125.425 14.5517 124.898 13.3262 123.75 12.3985C122.92 11.7295 121.953 11.3682 120.908 11.2119C120.492 11.1478 120.079 11.1166 119.671 11.1216ZM119.639 14.4639C119.85 14.4773 120.055 14.5081 120.252 14.5595C120.843 14.7136 121.356 15.0523 121.719 15.6602C121.885 15.9385 121.953 16.2461 121.953 16.5684C121.953 16.569 121.953 16.5697 121.953 16.5704C121.953 16.5713 121.953 16.5723 121.953 16.5733C121.953 16.9542 121.704 17.1934 121.431 17.4083C120.874 17.8428 120.225 18.1065 119.57 18.3457C118.691 18.6631 117.798 18.917 116.88 19.1026C116.792 19.1221 116.704 19.1368 116.616 19.1465C116.231 19.1856 116.04 19.0293 115.996 18.6436C115.965 18.3816 116.003 18.1238 116.061 17.8736C116.067 17.847 116.073 17.8204 116.079 17.794C116.357 16.627 116.914 15.6358 117.94 14.962C118.433 14.6348 118.979 14.4736 119.639 14.4639V14.4639Z" fill="#FF7F00"/>
<path d="M42.3937 11.1154C41.9033 11.1183 41.401 11.1738 40.8883 11.2776C39.2965 11.5998 38.0807 12.5178 37.1481 13.8362C36.2496 15.1009 35.7369 16.5168 35.4732 18.0256C35.0582 20.428 35.1509 22.801 35.9956 25.1106C36.6207 26.8196 37.6412 28.2406 39.2379 29.1683C41.0348 30.2083 42.9098 30.345 44.819 29.4807C46.5768 28.6848 47.734 27.303 48.4908 25.5647C49.1696 24.0071 49.4186 22.3616 49.4234 20.6722C49.4186 18.7239 49.1598 17.259 48.4713 15.5598C48.0123 14.4318 47.3629 13.4357 46.44 12.6301C45.2279 11.5717 43.8647 11.1067 42.3937 11.1154ZM42.3907 14.461C43.3635 14.4764 44.353 14.9489 44.9655 15.9651C45.0199 16.056 45.0701 16.1479 45.1186 16.2402C45.1408 16.2819 45.1625 16.3235 45.1835 16.3654C45.1864 16.3713 45.1895 16.3772 45.1924 16.3831C45.1924 16.3832 45.1925 16.3833 45.1925 16.3834C45.666 17.3377 45.8432 18.3685 45.8988 19.4358C45.9001 19.4589 45.9018 19.482 45.9029 19.5052C45.9042 19.5357 45.9048 19.5662 45.905 19.5967C45.905 19.5974 45.905 19.598 45.905 19.5987C45.9052 19.6286 45.9051 19.6584 45.9048 19.6883C45.9041 19.7489 45.9029 19.8101 45.9029 19.8714C45.9005 20.1912 45.8868 20.5085 45.8585 20.8229C45.8514 20.9014 45.8434 20.9798 45.8345 21.0579C45.8345 21.058 45.8345 21.058 45.8345 21.058C45.8255 21.1362 45.8156 21.2141 45.8047 21.2918C45.8047 21.2919 45.8047 21.292 45.8047 21.2921C45.6955 22.0699 45.4848 22.8267 45.1217 23.5531C44.1305 25.5257 41.9332 25.677 40.6539 24.8176C39.9264 24.3293 39.5016 23.6165 39.233 22.8108C38.9297 21.8961 38.7724 20.9765 38.7564 20.0545C38.7554 19.9986 38.7548 19.9427 38.7548 19.8867C38.7548 19.886 38.7548 19.8853 38.7548 19.8845C38.7556 19.0205 38.8805 18.1544 39.1256 17.2883C39.3502 16.5022 39.7164 15.7747 40.3365 15.2131C40.8877 14.7133 41.6341 14.4489 42.3907 14.461L42.3907 14.461Z" fill="#FF7F00"/>
<path d="M105.878 19.6339C105.863 17.3047 105.883 15.3223 105.932 13.335C105.976 11.5869 106.044 9.84377 106.244 8.10548C106.332 7.37305 106.401 6.63575 106.674 5.9375C106.816 5.58105 106.874 5.54199 107.25 5.54199C108.144 5.53711 109.042 5.53711 109.936 5.52734C110.107 5.52734 110.277 5.54199 110.443 5.57617C110.771 5.64453 110.937 5.89356 110.859 6.22071C110.614 7.25587 110.414 8.30079 110.258 9.35549C110.082 10.5371 109.955 11.7237 109.858 12.9151C109.677 15.1319 109.667 17.3536 109.726 19.5704C109.779 21.6016 109.916 23.628 110.18 25.6446C110.326 26.7823 110.517 27.9103 110.736 29.0333C110.819 29.463 110.707 29.6192 110.273 29.6241C109.115 29.629 107.963 29.6095 106.806 29.6095C106.65 29.6095 106.571 29.5314 106.513 29.3995C106.274 28.8966 106.215 28.3546 106.151 27.8175C105.922 25.8595 105.902 23.8917 105.878 21.9239C105.873 21.0499 105.859 20.171 105.878 19.6339Z" fill="#FF7F00"/>
<path d="M18.3047 0.0242149C18.3389 -0.0197306 18.4072 0.00956628 18.4658 0.00956628C21.8594 0.00956628 25.2481 0.00956628 28.6416 0.00956628C29.667 0.00956628 30.3604 0.698046 30.3604 1.71856C30.3653 4.57502 30.3604 7.43147 30.3653 10.283C30.3653 10.4149 30.3311 10.5125 30.2334 10.6053C29.1592 11.6649 28.0899 12.7293 27.0205 13.7938C26.6202 14.1942 26.2198 14.5995 25.8194 14.995C25.7705 15.0438 25.7266 15.1122 25.6241 15.1268C26.4737 8.5057 23.5586 3.70099 18.3047 0.0242149Z" fill="#3F9FFF"/>
<path d="M0.575608 17.8848C1.06877 18.7002 1.61077 19.4473 2.226 20.1455C3.72015 21.8399 5.48774 23.1533 7.54829 24.0811C8.67134 24.5889 9.83834 24.96 11.0493 25.1748C12.2895 25.3946 13.5346 25.4287 14.7846 25.2285C15.0386 25.1895 15.2973 25.1553 15.5561 25.1211C15.5708 25.2334 15.4829 25.2725 15.4292 25.3213C14.0425 26.7032 12.646 28.0752 11.2739 29.4717C11.0005 29.7501 10.727 29.8526 10.3413 29.8477C7.6313 29.8331 4.92133 29.8379 2.21624 29.8379C1.22014 29.8379 0.536546 29.1495 0.536546 28.1485C0.536546 24.8037 0.536546 21.4639 0.536546 18.1191C0.531663 18.0557 0.507248 17.9775 0.575608 17.8848Z" fill="#3F9FFF"/>
</svg>
