<svg width="74" height="66" viewBox="0 0 74 66" fill="none" xmlns="http://www.w3.org/2000/svg">
<path d="M73.3351 38.6851C73.3351 44.3907 73.3215 50.0962 73.3429 55.8044C73.3493 57.5143 72.9251 59.0615 71.8556 60.4014C70.8856 61.6159 69.6757 62.4912 68.1463 62.8917C67.4161 63.0792 66.664 63.1679 65.9102 63.1553C64.7352 63.1443 63.5609 63.1553 62.3859 63.1482C62.1337 63.1482 62.0153 63.1876 61.9765 63.4835C61.8966 64.1127 61.6112 64.698 61.1644 65.1487C60.7177 65.5994 60.1347 65.8904 59.5056 65.9764C58.2602 66.1431 57.0322 65.4131 56.5142 64.187C56.4105 63.9378 56.3504 63.6728 56.3364 63.4034C56.326 63.205 56.2387 63.1359 56.0525 63.1521C55.9781 63.1579 55.9018 63.1521 55.8268 63.1521C43.2816 63.1521 30.7381 63.1503 18.1964 63.1469C17.8795 63.1469 17.714 63.1766 17.6596 63.5642C17.4424 65.0979 16.1135 65.9848 14.9023 65.9906C14.2011 65.9964 13.5225 65.7432 12.9967 65.2798C12.4708 64.8164 12.1348 64.1753 12.0531 63.4796C12.0234 63.2109 11.9328 63.1443 11.678 63.1469C10.4714 63.1579 9.26406 63.1346 8.05675 63.1553C5.73588 63.1954 3.81854 62.3484 2.3157 60.5848C1.51684 59.648 0.984227 58.5143 0.773416 57.3018C0.655077 56.6558 0.654431 56.0169 0.654431 55.3735C0.651844 44.0592 0.653137 32.7453 0.65831 21.4315C0.66219 18.412 2.112 16.2505 4.75749 14.859C5.58133 14.4255 6.48342 14.2601 7.40233 14.2129C8.06903 14.1794 8.73833 14.1994 9.40697 14.1994C16.6595 14.1994 23.9118 14.1981 31.1638 14.1955C31.3074 14.1955 31.5208 14.2756 31.5783 14.1257C31.6314 13.9881 31.4316 13.8867 31.3294 13.7834C29.8324 12.2801 28.3282 10.7852 26.837 9.27679C26.4525 8.89085 26.2341 8.37017 26.2283 7.82569C26.2225 7.28122 26.4298 6.75601 26.806 6.36199C27.6408 5.49892 28.9303 5.43561 29.7884 6.26444C30.9427 7.37946 32.0633 8.52548 33.1982 9.66245C34.3331 10.7994 35.4712 11.9287 36.6003 13.0689C36.7943 13.2627 36.9236 13.2814 37.1299 13.076C39.6372 10.5608 42.1493 8.04808 44.6661 5.53768C46.2965 3.90931 47.9279 2.28179 49.56 0.655138C49.9551 0.259134 50.4246 0.0168807 50.9898 0.000730448C51.8505 -0.0225259 52.6996 0.511724 53.0138 1.29275C53.3604 2.15453 53.2188 2.95041 52.5728 3.61839C51.7878 4.43236 50.9762 5.22049 50.1802 6.02025C47.5754 8.6241 44.9713 11.2297 42.3679 13.837C42.2838 13.9216 42.1092 13.9998 42.1739 14.1341C42.2385 14.2685 42.4093 14.1987 42.5334 14.1987C50.3459 14.2013 58.1587 14.2013 65.9716 14.1987C67.2863 14.1987 68.5524 14.399 69.6918 15.0831C71.8504 16.379 73.1411 18.2415 73.3241 20.7971C73.3429 21.0652 73.3371 21.3352 73.3371 21.6039C73.3358 27.297 73.3351 32.9907 73.3351 38.6851ZM33.3114 17.0554C31.5447 17.0554 29.7768 17.0199 28.0088 17.0625C23.0871 17.182 18.1634 17.2395 13.2494 17.5909C11.9897 17.6807 10.7372 17.7634 9.53242 18.1762C8.06451 18.6795 6.8462 19.5412 5.94605 20.8016C4.98317 22.1492 4.57707 23.7248 4.23175 25.3153C4.03775 26.201 4.02094 27.108 3.90842 28.004C3.68087 29.8303 3.55888 31.6682 3.54306 33.5086C3.50685 38.8879 3.34906 44.2698 3.91489 49.6382C4.09143 51.3178 4.37919 52.949 4.93079 54.5479C5.8206 57.1216 7.639 58.6397 10.2334 59.2844C11.7207 59.6539 13.2488 59.7844 14.7749 59.8587C17.0563 59.9707 19.3388 60.0551 21.6224 60.1119C27.5354 60.2579 33.4498 60.3807 39.3661 60.2663C43.5778 60.1843 47.7895 60.0725 51.996 59.851C53.5286 59.7702 55.0728 59.7334 56.573 59.3258C58.1955 58.8852 59.5522 58.0337 60.5649 56.6965C61.6306 55.2992 62.0638 53.637 62.4188 51.9593C62.6012 51.0969 62.671 50.2151 62.7422 49.3365C62.9239 47.1808 63.1179 45.0276 63.1244 42.8615C63.1379 38.1915 63.2537 33.519 62.8288 28.858C62.7357 27.8405 62.6588 26.8192 62.4997 25.8114C62.3095 24.6552 61.9949 23.5228 61.5614 22.4341C60.9677 20.9159 59.9829 19.7454 58.6042 18.881C57.2255 18.0167 55.691 17.7453 54.1144 17.6284C51.5576 17.4391 48.9955 17.3345 46.4328 17.2544C42.0601 17.12 37.6867 17.0315 33.3114 17.0554ZM70.9379 45.0489C71.0214 43.68 69.7953 42.2162 68.1237 42.2065C67.7494 42.2033 67.3783 42.2741 67.0315 42.4148C66.6847 42.5554 66.3692 42.7632 66.1031 43.0261C65.837 43.289 65.6256 43.6018 65.4809 43.9467C65.3363 44.2915 65.2613 44.6615 65.2603 45.0354C65.2603 46.6407 66.5225 47.9198 68.112 47.9114C69.7785 47.903 71.0194 46.4695 70.9379 45.0476V45.0489ZM70.9379 32.2935C71.0369 30.9369 69.7901 29.4284 68.1062 29.4439C66.5148 29.4588 65.2609 30.6985 65.2609 32.2864C65.2586 32.6599 65.3303 33.0302 65.4718 33.376C65.6133 33.7218 65.8218 34.0362 66.0854 34.3012C66.349 34.5661 66.6625 34.7764 67.0077 34.9199C67.353 35.0634 67.7232 35.1372 68.0972 35.1372C69.7701 35.1437 71.0194 33.6876 70.9379 32.2922V32.2935Z" fill="#DF5E36"/>
<path d="M33.3114 17.0557C37.6867 17.0331 42.0601 17.1203 46.4328 17.2546C48.9955 17.3347 51.5576 17.4394 54.1145 17.6287C55.691 17.7456 57.2268 18.0163 58.6042 18.8813C59.9816 19.7463 60.9678 20.9175 61.5614 22.4343C61.9949 23.5231 62.3095 24.6555 62.4997 25.8117C62.6588 26.8195 62.7357 27.8408 62.8288 28.8583C63.255 33.5192 63.1379 38.1918 63.1244 42.8618C63.1179 45.0279 62.9239 47.181 62.7441 49.3368C62.6711 50.216 62.6012 51.0972 62.4208 51.9596C62.0658 53.6392 61.6293 55.2988 60.5707 56.6935C59.558 58.0282 58.2013 58.8822 56.5789 59.3228C55.0786 59.7304 53.5344 59.7673 52.0018 59.848C47.7953 60.0715 43.5836 60.1814 39.3719 60.2634C33.4556 60.3777 27.5413 60.255 21.6282 60.109C19.3434 60.0521 17.0609 59.9677 14.7807 59.8558C13.2546 59.7815 11.7279 59.651 10.2393 59.2815C7.64357 58.6354 5.82516 57.1186 4.93665 54.5449C4.38505 52.9493 4.09599 51.3149 3.92075 49.6352C3.35621 44.2669 3.51271 38.885 3.54892 33.5057C3.56474 31.6653 3.68673 29.8274 3.91428 28.001C4.02421 27.105 4.04361 26.198 4.23761 25.3123C4.58293 23.7218 4.99097 22.1469 5.95385 20.7974C6.854 19.537 8.0723 18.6752 9.54022 18.172C10.7449 17.7592 11.9975 17.6765 13.2572 17.5867C18.1718 17.2353 23.0948 17.1778 28.0166 17.0582C29.7768 17.0188 31.5448 17.0557 33.3114 17.0557ZM43.2577 34.5147C43.2577 33.3306 43.2642 32.1471 43.2577 30.9617C43.2606 30.3487 43.1705 29.7389 42.9906 29.1528C42.7093 28.2769 42.1681 27.6179 41.2543 27.4086C39.4437 26.9907 37.9124 27.4532 36.7639 28.9739C36.5305 29.2833 36.5156 29.2846 36.3572 28.9293C36.0759 28.2969 35.6685 27.7633 35.0147 27.5152C33.6445 26.9952 32.3699 27.2568 31.2085 28.1115C30.7501 28.4564 30.382 28.907 30.1357 29.4248C30.1001 29.4959 30.071 29.6083 29.965 29.5902C29.8841 29.5766 29.8751 29.4778 29.8524 29.408C29.8266 29.326 29.8098 29.2413 29.7845 29.1593C29.62 28.6133 29.371 28.0962 29.0467 27.627C28.9174 27.4435 28.7835 27.3795 28.5559 27.4784C28.0631 27.6935 27.5613 27.8905 27.0569 28.0766C26.8694 28.1451 26.8545 28.2355 26.9354 28.3893C27.0349 28.5792 27.1423 28.7665 27.2251 28.9642C27.732 30.1755 27.8866 31.4559 27.9041 32.7511C27.9293 34.6336 27.917 36.5174 27.9092 38.4005C27.9092 38.6666 27.9888 38.7577 28.2584 38.7506C28.8721 38.7345 29.4871 38.7293 30.1001 38.7506C30.4163 38.7622 30.4991 38.6569 30.4972 38.3488C30.4849 36.5516 30.4972 34.7544 30.492 32.9578C30.4861 32.3656 30.5889 31.7773 30.7953 31.222C31.0746 30.4804 31.4807 29.8389 32.2179 29.4636C33.0043 29.0637 33.9587 29.2665 34.2006 30.2769C34.2849 30.6544 34.3238 31.0407 34.3163 31.4274C34.3163 33.7408 34.3228 36.0548 34.3118 38.3682C34.3118 38.6653 34.3972 38.761 34.6959 38.75C35.2986 38.7287 35.9032 38.7274 36.5066 38.75C36.8163 38.7616 36.8829 38.6466 36.881 38.3624C36.87 36.5755 36.8758 34.7893 36.8758 33.0005C36.8758 32.527 36.8816 32.0567 37.0123 31.5928C37.278 30.6516 37.7624 29.8764 38.6683 29.4429C39.5743 29.0094 40.3781 29.3783 40.5922 30.2672C40.6807 30.6769 40.7202 31.0957 40.7099 31.5147C40.7137 33.7972 40.7127 36.0798 40.7066 38.3624C40.7066 38.6479 40.7713 38.7648 41.0836 38.75C41.6656 38.7261 42.2476 38.7435 42.8296 38.7429C43.2603 38.7429 43.2609 38.7429 43.2616 38.3255L43.2577 34.5147ZM25.1364 30.5256C25.1001 29.169 25.0187 27.9803 24.3823 26.4893C23.7738 25.0623 22.7696 24.039 21.2836 23.541C19.8195 23.0493 18.3367 23.0164 16.832 23.3879C15.0342 23.8323 13.7927 24.9273 12.9927 26.5598C12.4573 27.658 12.207 28.8292 12.123 30.0398C12.0059 31.724 12.0622 33.3926 12.5996 35.0141C13.2275 36.9069 14.4568 38.1679 16.433 38.6395C17.9849 39.0103 19.5266 38.9935 21.0385 38.4625C22.6461 37.8992 23.7208 36.7674 24.3862 35.2221C24.9896 33.8216 25.1454 32.3435 25.1364 30.5256ZM45.3768 33.379C45.373 34.1878 45.486 34.9928 45.7124 35.7693C46.1715 37.3488 47.1946 38.3708 48.808 38.7287C50.7163 39.1518 52.5217 38.717 54.2781 37.9741C54.4721 37.8927 54.4999 37.7803 54.4126 37.5936C54.2587 37.2629 54.1106 36.9276 53.9877 36.5839C53.8965 36.3255 53.7523 36.2854 53.5176 36.3778C52.8392 36.6508 52.1339 36.8518 51.4134 36.9773C50.7842 37.0813 50.1459 37.1188 49.538 36.852C48.5997 36.4405 48.3288 35.6033 48.1801 34.693C48.1607 34.5748 48.2118 34.505 48.3301 34.4921C48.4484 34.4792 48.5661 34.4727 48.6838 34.465C50.0838 34.3713 51.4373 34.0968 52.6543 33.3622C53.6379 32.7686 54.4003 31.9811 54.571 30.7873C54.7766 29.3253 54.1597 27.9448 52.6957 27.4157C51.566 27.0062 50.4085 27.023 49.2619 27.3259C48.2112 27.5977 47.2868 28.2236 46.6449 29.0979C45.6917 30.3699 45.4272 31.8415 45.3781 33.379H45.3768ZM38.8235 55.3104C39.2976 55.3104 39.7715 55.3027 40.2462 55.3143C40.4402 55.3188 40.543 55.2549 40.6032 55.0708C40.7002 54.7762 40.8159 54.4894 40.9265 54.1961C41.5027 52.6592 42.084 51.1236 42.6537 49.5842C43.16 48.216 43.6483 46.84 44.1578 45.473C44.2445 45.2404 44.216 45.1584 43.9638 45.1603C43.1128 45.1659 42.2618 45.1659 41.4108 45.1603C41.2395 45.1603 41.1573 45.2249 41.1121 45.3813C41.0203 45.7004 40.9181 46.0163 40.8185 46.3335C40.5553 47.1733 40.2889 48.0131 40.0283 48.8529C39.6972 49.9182 39.3706 50.9847 39.0415 52.0513C39.0104 52.1521 38.9994 52.2819 38.8565 52.2774C38.7136 52.2729 38.7117 52.1411 38.68 52.0416C38.5461 51.6224 38.4097 51.2018 38.2791 50.7845C37.7255 49.0131 37.1746 47.2409 36.6262 45.4678C36.5525 45.2282 36.4199 45.1564 36.1794 45.1597C35.3503 45.1713 34.5207 45.1636 33.691 45.1648C33.3315 45.1648 33.3244 45.172 33.4505 45.5053C33.8721 46.6184 34.3008 47.7289 34.7211 48.8426C35.1796 50.0584 35.6265 51.2767 36.0862 52.4925C36.4096 53.3472 36.7387 54.198 37.0562 55.0533C37.1209 55.2277 37.2108 55.3182 37.4067 55.315C37.8755 55.304 38.3508 55.3098 38.8235 55.3104ZM27.5271 45.1623C26.03 45.1623 24.533 45.1674 23.036 45.1571C22.7773 45.1571 22.6991 45.2366 22.7056 45.4911C22.7211 46.1145 22.7178 46.7392 22.7056 47.3645C22.701 47.5906 22.7799 47.6623 23.0043 47.6597C23.845 47.6494 24.6856 47.6546 25.5263 47.6559C25.9731 47.6559 25.9751 47.6559 25.9751 48.1081C25.9751 50.3781 25.9809 52.6482 25.9692 54.9183C25.9692 55.2193 26.0339 55.333 26.3572 55.3234C27.1104 55.3001 27.8648 55.3001 28.6206 55.3234C28.9542 55.3343 29.0351 55.2277 29.0331 54.9047C29.0195 52.6237 29.0331 50.3426 29.0208 48.0622C29.0208 47.7553 29.114 47.6468 29.4276 47.6526C30.2779 47.6701 31.1289 47.6526 31.98 47.6636C32.2173 47.6636 32.3033 47.599 32.2988 47.3542C32.2858 46.7411 32.2845 46.1268 32.2988 45.5143C32.3052 45.2521 32.2263 45.1597 31.9528 45.1623C30.4778 45.1687 29.0027 45.1623 27.5271 45.1623Z" fill="#FEFDFD"/>
<path d="M70.938 45.0483C71.0195 46.4695 69.774 47.9036 68.1121 47.912C66.5226 47.9204 65.2577 46.6413 65.2603 45.036C65.2613 44.6621 65.3363 44.2921 65.481 43.9473C65.6256 43.6025 65.8371 43.2896 66.1032 43.0267C66.3693 42.7638 66.6848 42.5561 67.0316 42.4154C67.3783 42.2748 67.7495 42.204 68.1237 42.2071C69.7953 42.2155 71.0214 43.6794 70.938 45.0483Z" fill="#FEFDFD"/>
<path d="M70.938 32.2916C71.0195 33.687 69.7701 35.1438 68.0978 35.1341C67.7235 35.1343 67.3529 35.0604 67.0072 34.9168C66.6616 34.7732 66.3479 34.5627 66.0841 34.2974C65.8203 34.0321 65.6117 33.7172 65.4703 33.371C65.3289 33.0247 65.2575 32.6539 65.2603 32.28C65.2603 30.6941 66.5148 29.4544 68.1056 29.4376C69.7901 29.4266 71.0369 30.9331 70.938 32.2916Z" fill="#FEFDFD"/>
<path d="M43.2577 34.5153V38.3267C43.2577 38.7434 43.2577 38.7441 42.8257 38.7441C42.2437 38.7441 41.6617 38.7273 41.0798 38.7512C40.7687 38.7641 40.7015 38.6472 40.7028 38.3636C40.7118 36.081 40.7129 33.7995 40.706 31.5191C40.7163 31.1001 40.6768 30.6813 40.5883 30.2716C40.3742 29.3814 39.5646 29.0164 38.6645 29.4473C37.7643 29.8782 37.2742 30.656 37.0084 31.5972C36.8791 32.0611 36.8719 32.5314 36.8719 33.0049C36.8719 34.7911 36.8661 36.5773 36.8771 38.3668C36.8771 38.6523 36.8124 38.7673 36.5027 38.7544C35.9007 38.7311 35.296 38.7324 34.692 38.7544C34.3933 38.7654 34.304 38.6698 34.3079 38.3726C34.3189 36.0592 34.315 33.7452 34.3125 31.4319C34.3199 31.0451 34.2811 30.6589 34.1967 30.2813C33.9574 29.2658 33.003 29.0623 32.2166 29.4596C31.4781 29.8349 31.072 30.4764 30.794 31.218C30.5876 31.7733 30.4848 32.3616 30.4907 32.9539C30.4965 34.7504 30.4836 36.5476 30.4959 38.3448C30.4959 38.653 30.415 38.7583 30.0988 38.7466C29.4858 38.7234 28.8702 38.7286 28.2571 38.7466C27.9875 38.7537 27.9066 38.6627 27.9079 38.3965C27.9157 36.5134 27.928 34.6296 27.9028 32.7471C27.8853 31.4551 27.7308 30.1715 27.2238 28.9602C27.141 28.7626 27.0337 28.5726 26.9341 28.3853C26.8532 28.2315 26.8694 28.1411 27.0556 28.0726C27.56 27.8866 28.0618 27.6895 28.5546 27.4744C28.7822 27.3756 28.9174 27.4395 29.0454 27.623C29.3697 28.0923 29.6187 28.6093 29.7833 29.1553C29.8085 29.2374 29.8253 29.322 29.8512 29.404C29.8738 29.4738 29.8828 29.5727 29.9637 29.5862C30.0704 29.6043 30.0988 29.4919 30.1344 29.4208C30.3807 28.903 30.7488 28.4524 31.2072 28.1075C32.3712 27.2561 33.6432 26.9912 35.0134 27.5112C35.6672 27.7593 36.0746 28.2929 36.3559 28.9254C36.5143 29.2807 36.5292 29.2794 36.7627 28.9699C37.9111 27.4492 39.4437 26.9867 41.2531 27.4046C42.1668 27.6159 42.708 28.2748 42.9893 29.1489C43.1692 29.7349 43.2593 30.3447 43.2564 30.9577C43.2655 32.1476 43.2577 33.3311 43.2577 34.5153Z" fill="#E15E36"/>
<path d="M25.1363 30.5244C25.1454 32.3423 24.9895 33.819 24.3862 35.2209C23.7208 36.7661 22.6461 37.8979 21.0385 38.4613C19.5266 38.9923 17.9843 39.0091 16.4329 38.6383C14.4568 38.1667 13.2275 36.9057 12.5996 35.0129C12.0622 33.3914 12.0059 31.7227 12.123 30.0386C12.207 28.828 12.4573 27.6542 12.9927 26.5585C13.7901 24.9261 15.0342 23.8311 16.8319 23.3866C18.3367 23.0152 19.8195 23.0481 21.2835 23.5397C22.7709 24.0378 23.7738 25.0611 24.3823 26.4881C25.0186 27.9791 25.1001 29.169 25.1363 30.5244ZM15.0064 30.8693C15.0064 32.3003 15.1112 33.5484 15.5884 34.7551C16.3282 36.6143 18.1977 37.1253 19.7917 36.6796C20.7617 36.4076 21.3404 35.6938 21.6832 34.7952C22.3298 33.0936 22.3221 31.3216 22.1649 29.5424C22.1003 28.8021 21.9606 28.0754 21.6832 27.379C20.9602 25.5637 19.372 24.9112 17.6383 25.2975C16.3993 25.5734 15.7889 26.5172 15.43 27.6483C15.1118 28.6913 14.9687 29.7797 15.0064 30.8693Z" fill="#E15E36"/>
<path d="M45.3781 33.3795C45.4272 31.842 45.6917 30.3704 46.6501 29.0984C47.2921 28.2246 48.2166 27.5991 49.2671 27.3277C50.4136 27.0247 51.5711 27.0047 52.7008 27.4175C54.1623 27.9478 54.7792 29.3271 54.5762 30.789C54.4087 31.9828 53.643 32.7703 52.6595 33.364C51.4424 34.0985 50.089 34.3731 48.689 34.4667C48.5713 34.4745 48.4529 34.4816 48.3353 34.4939C48.2176 34.5061 48.1658 34.5765 48.1852 34.6948C48.334 35.605 48.6049 36.4422 49.5432 36.8537C50.1504 37.1205 50.7887 37.0831 51.4185 36.9791C52.1388 36.8532 52.8439 36.6521 53.5221 36.3789C53.7568 36.2865 53.901 36.3292 53.9922 36.585C54.1151 36.9287 54.2632 37.2639 54.4171 37.5947C54.5044 37.782 54.4753 37.8938 54.2826 37.9752C52.5262 38.7181 50.7208 39.1529 48.8125 38.7297C47.1958 38.3719 46.1761 37.3499 45.7169 35.7704C45.4894 34.9939 45.3752 34.1886 45.3781 33.3795ZM48.6974 32.8039C49.1675 32.7968 49.6674 32.6566 50.1511 32.4809C50.9917 32.1786 51.6785 31.696 51.9753 30.7961C52.2113 30.079 51.7891 29.1423 51.1385 28.9556C50.314 28.7179 49.4572 29.0138 48.9295 29.7102C48.3527 30.4718 48.1969 31.3691 48.1109 32.2832C48.0468 32.9531 48.105 32.8427 48.6974 32.8039Z" fill="#E15E36"/>
<path d="M38.8235 55.3096C38.3495 55.3096 37.8755 55.3031 37.4009 55.3096C37.2069 55.3096 37.115 55.2224 37.0504 55.0479C36.7322 54.1926 36.4037 53.3418 36.0804 52.4872C35.6232 51.2714 35.1751 50.053 34.7153 48.8372C34.295 47.7235 33.8662 46.613 33.4446 45.4999C33.3185 45.1666 33.3256 45.1595 33.6852 45.1595C34.5148 45.1595 35.3445 45.1659 36.1735 45.1543C36.4141 45.1543 36.5466 45.2228 36.6203 45.4624C37.1653 47.2364 37.7162 49.0086 38.2732 50.7791C38.4025 51.199 38.5403 51.6189 38.6741 52.0362C38.7058 52.1357 38.7104 52.2669 38.8507 52.272C38.991 52.2772 39.0046 52.1467 39.0356 52.0459C39.3648 50.98 39.6913 49.9141 40.0224 48.8475C40.2811 48.0077 40.5495 47.1679 40.8126 46.3281C40.9116 46.0109 41.0144 45.695 41.1062 45.3759C41.1515 45.2183 41.2356 45.1537 41.405 45.1549C42.256 45.1627 43.107 45.1627 43.958 45.1549C44.2134 45.1549 44.2419 45.2351 44.152 45.4676C43.6424 46.8346 43.1542 48.2106 42.6479 49.5788C42.0782 51.1183 41.4968 52.6538 40.9206 54.1907C40.8114 54.4814 40.6956 54.7721 40.5973 55.0654C40.5372 55.2495 40.4318 55.3134 40.2403 55.3089C39.7735 55.3018 39.2975 55.3096 38.8235 55.3096Z" fill="#42A77F"/>
<path d="M27.527 45.1627C29.0027 45.1627 30.4778 45.1692 31.9534 45.1575C32.227 45.1575 32.3059 45.2473 32.2994 45.5096C32.2839 46.1227 32.2852 46.737 32.2994 47.3494C32.3046 47.5923 32.2179 47.6621 31.9806 47.6589C31.1296 47.6466 30.2786 47.6653 29.4282 47.6479C29.1146 47.6421 29.0202 47.7506 29.0215 48.0575C29.0312 50.3379 29.0215 52.619 29.0338 54.9C29.0338 55.223 28.9549 55.3296 28.6212 55.3186C27.8681 55.2941 27.1136 55.2941 26.3579 55.3186C26.0346 55.3283 25.966 55.2146 25.9699 54.9136C25.9815 52.6435 25.9764 50.3734 25.9757 48.1033C25.9757 47.6563 25.9757 47.655 25.5269 47.6511C24.6863 47.6511 23.8456 47.6447 23.005 47.655C22.7806 47.655 22.7017 47.5859 22.7062 47.3598C22.7172 46.7364 22.7204 46.1117 22.7062 45.4863C22.6997 45.2318 22.7799 45.1511 23.0366 45.1524C24.533 45.1679 26.03 45.1627 27.527 45.1627Z" fill="#42A77F"/>
<path d="M15.0064 30.87C14.97 29.7804 15.1144 28.6922 15.4338 27.6497C15.7927 26.5185 16.4038 25.5747 17.6422 25.2988C19.3759 24.9112 20.9641 25.565 21.687 27.3803C21.9644 28.0767 22.1028 28.8015 22.1688 29.5438C22.3259 31.3229 22.3363 33.0968 21.687 34.7965C21.3443 35.6951 20.7675 36.4115 19.7956 36.6809C18.2002 37.1266 16.3308 36.6163 15.5923 34.7564C15.1112 33.549 15.0064 32.301 15.0064 30.87Z" fill="#FEFDFD"/>
<path d="M48.6974 32.8033C48.1064 32.8421 48.0507 32.9525 48.1109 32.2865C48.1969 31.3724 48.3527 30.4777 48.9296 29.7134C49.4572 29.017 50.3141 28.7212 51.1385 28.9589C51.7891 29.1456 52.2114 30.0823 51.9753 30.7994C51.6785 31.6993 50.9898 32.1818 50.1511 32.4842C49.6674 32.656 49.1662 32.7962 48.6974 32.8033Z" fill="#FEFDFD"/>
</svg>
