<svg width="132" height="48" viewBox="0 0 132 48" fill="none" xmlns="http://www.w3.org/2000/svg">
<path d="M65.952 0C87.627 0 109.296 0 130.959 0C131.382 0 131.46 0.0550499 131.46 0.30461C131.447 15.9082 131.447 31.5106 131.46 47.1117C131.46 47.3558 131.401 47.42 130.966 47.42C87.6453 47.4127 44.3247 47.4127 1.00407 47.42C0.559996 47.42 0.477421 47.3595 0.477421 47.0989C0.489654 31.4953 0.489043 15.8935 0.475586 0.2936C0.475586 0.0660599 0.539811 0 0.945345 0C22.6154 0.00733999 44.2843 0.00733999 65.952 0Z" fill="#529B00"/>
<path d="M70.8244 29.9684C69.4794 32.6071 67.2498 33.5686 64.4937 33.2897C61.3246 32.9686 59.396 31.207 59.0327 27.9022C58.5923 28.9463 58.1629 29.9353 57.4675 30.7849C56.9906 31.3928 56.3888 31.8913 55.7028 32.2468C55.0169 32.6023 54.2626 32.8065 53.491 32.8456C51.0395 33.0126 48.5842 32.875 46.1308 32.9392C45.7253 32.9502 45.6281 32.7833 45.6281 32.3887C45.6403 27.2789 45.6403 22.1678 45.6281 17.0555C45.6281 16.6353 45.7382 16.505 46.1786 16.505C48.3273 16.5233 50.4779 16.538 52.6286 16.505C56.6656 16.4444 58.7685 18.9199 59.2731 22.4486C59.3428 22.9403 59.3905 23.4358 59.4658 24.0744C60.6475 21.4852 62.6293 20.3713 65.2772 20.4521C67.9251 20.5328 69.8262 21.7366 70.6923 24.3845L70.8373 24.3074C70.8373 23.3312 70.8611 22.3531 70.8262 21.3714C70.8097 20.909 70.9657 20.7604 71.4116 20.7805C72.023 20.813 72.6357 20.8093 73.2466 20.7695C73.7971 20.7255 73.9806 20.953 73.9109 21.4687C73.8941 21.7651 73.8941 22.0622 73.9109 22.3586C74.0467 22.2834 74.1109 22.2706 74.1347 22.232C75.1146 20.6337 76.6157 20.342 78.3149 20.5805C78.7394 20.6386 79.1444 20.7957 79.497 21.0393C79.8495 21.2828 80.1398 21.6059 80.3444 21.9825C80.5481 22.3256 80.6618 22.533 81.0325 22.0302C82.5005 20.0117 86.1705 19.8282 87.6146 22.3329C88.0165 23.0247 88.0972 23.8009 88.1064 24.5643C88.1394 27.2195 88.1064 29.8766 88.1193 32.5319C88.1193 32.853 87.9504 32.8989 87.699 32.8989C86.9283 32.8989 86.1558 32.8989 85.3869 32.919C84.9631 32.9337 84.8364 32.7814 84.8364 32.3594C84.8585 30.2289 84.8585 28.1003 84.8548 25.9699C84.8604 25.5045 84.8346 25.0391 84.7777 24.5771C84.6695 23.8156 84.2603 23.3917 83.5648 23.2394C82.7868 23.0688 81.9133 23.3477 81.5353 23.8945C81.2163 24.3679 81.0539 24.9295 81.071 25.5002C81.082 27.7719 81.06 30.0436 81.0857 32.3153C81.0857 32.8108 80.9407 32.9466 80.4581 32.919C79.7719 32.8768 79.0801 32.8989 78.3901 32.919C77.9992 32.9319 77.8635 32.8053 77.8671 32.3961C77.8873 30.2271 77.8818 28.0563 77.8781 25.8855C77.8753 25.5207 77.8533 25.1562 77.8121 24.7937C77.6983 23.7716 77.1441 23.2504 76.1606 23.2193C75.0064 23.1844 74.3256 23.6982 74.1237 24.7038C73.9769 25.4506 74.0448 26.2011 74.0412 26.948C74.0301 28.7732 74.0301 30.599 74.0412 32.4254C74.0412 32.7704 73.9916 32.9356 73.5806 32.9154C72.8319 32.8787 72.0795 32.9007 71.3309 32.9154C70.9639 32.9154 70.8262 32.8034 70.8373 32.4236C70.8428 31.6235 70.8244 30.796 70.8244 29.9684Z" fill="#FEFEFE"/>
<path d="M18.1064 14.3141C23.0609 14.2186 27.2814 18.3712 27.3529 23.4248C27.3775 24.6488 27.1607 25.8656 26.7149 27.0058C26.2691 28.146 25.6031 29.1871 24.7548 30.0698C23.9065 30.9525 22.8926 31.6595 21.7711 32.1502C20.6496 32.641 19.4423 32.906 18.2183 32.9301C13.3097 33.0219 9.04333 28.9041 8.85983 24.0891C8.62312 18.5346 13.1886 14.1691 18.1064 14.3141Z" fill="#FEFEFE"/>
<path d="M32.6522 19.9616C32.4687 20.3103 32.5073 20.6406 32.5091 20.9617C32.5213 24.6916 32.5373 28.4228 32.5568 32.1552C32.5568 32.9259 32.5568 32.9259 31.7971 32.924C31.0374 32.9222 30.2943 32.902 29.5456 32.9387C29.0722 32.9607 28.9125 32.8249 28.9254 32.3313C28.9621 30.9734 28.9455 29.6137 28.9455 28.254C28.9455 23.8744 28.9455 19.4937 28.9455 15.1117C28.9455 14.2896 28.9455 14.2915 29.7383 14.2896C30.6099 14.2896 31.4834 14.3135 32.3531 14.275C32.8596 14.2529 33.111 14.4713 33.3459 14.8915C35.4818 18.7108 37.6288 22.5227 39.7867 26.3272C39.9106 26.5589 40.088 26.7577 40.3042 26.9071C40.3042 26.4557 40.3042 26.0024 40.3042 25.551C40.3042 22.0205 40.3042 18.4918 40.284 14.9631C40.284 14.4126 40.4363 14.2529 40.9685 14.2786C41.7777 14.319 42.5906 14.3043 43.4017 14.2786C43.7687 14.2676 43.9393 14.3355 43.9393 14.7686C43.9222 20.6503 43.9222 26.5321 43.9393 32.4139C43.9393 32.7809 43.8677 32.9479 43.4292 32.9259C42.5117 32.8837 41.6052 32.8983 40.6932 32.9259C40.4945 32.9499 40.2934 32.9093 40.1196 32.8102C39.9458 32.711 39.8085 32.5586 39.728 32.3754C37.5566 28.5304 35.3766 24.6928 33.1881 20.8626C33.0192 20.569 32.8412 20.2809 32.6522 19.9616Z" fill="#FEFEFE"/>
<path d="M111.743 24.5689C111.89 24.2019 112.029 23.8129 112.183 23.4404C113.479 20.3209 117.753 19.3814 119.903 22.0623C120.087 21.8494 120.004 21.5962 120.006 21.3668C120.006 19.218 120.028 17.0693 119.995 14.9205C119.986 14.3461 120.167 14.1865 120.72 14.2213C121.367 14.2654 122.017 14.2654 122.665 14.2213C123.107 14.192 123.215 14.3424 123.203 14.7608C123.186 17.6179 123.19 20.4768 123.192 23.3358C123.192 26.336 123.192 29.3362 123.206 32.3383C123.206 32.7933 123.138 32.9879 122.612 32.9328C121.985 32.8833 121.356 32.8833 120.729 32.9328C120.245 32.9603 120.063 32.7842 120.127 32.3034C120.144 32.0504 120.144 31.7967 120.127 31.5437C119.876 31.5235 119.845 31.696 119.76 31.7951C118.081 33.9109 114.855 33.6576 113.235 31.9474C112.403 31.08 111.835 29.9935 111.598 28.8151C111.314 28.4472 111.182 27.9838 111.231 27.5214C111.258 27.0796 111.258 26.6365 111.231 26.1947C111.205 25.6094 111.387 25.0338 111.743 24.5689Z" fill="#FEFEFE"/>
<path d="M95.9747 31.6392C94.903 32.676 93.6699 33.3385 92.134 33.3036C90.1486 33.2577 88.7301 32.1017 88.4989 30.3217C88.22 28.1711 89.2035 26.6095 91.1908 26.0333C92.3634 25.692 93.5763 25.6388 94.7728 25.4113C95.6224 25.2498 95.9343 24.9342 95.9527 24.3415C95.978 24.0965 95.9144 23.8506 95.7737 23.6485C95.6329 23.4464 95.4242 23.3016 95.1856 23.2405C94.5048 23.0274 93.7792 23.0007 93.0846 23.1634C92.8215 23.2126 92.5796 23.3405 92.3909 23.5303C92.2021 23.72 92.0754 23.9626 92.0276 24.2259C91.9487 24.613 91.767 24.7543 91.3633 24.7323C90.6953 24.6938 90.0257 24.6938 89.3577 24.7323C88.8714 24.7617 88.8237 24.5488 88.8824 24.1561C89.1742 22.1908 90.4348 20.9302 92.6295 20.5981C94.097 20.3435 95.606 20.4906 96.9968 21.0238C98.4262 21.5963 99.074 22.5065 99.085 24.0405C99.1015 26.2278 99.085 28.417 99.1034 30.6061C99.1034 31.2833 99.0318 31.9842 99.7162 32.4705C99.9548 32.6393 99.9218 32.9237 99.5217 32.9274C98.6091 32.9274 97.6971 32.9274 96.7857 32.9274C96.3655 32.9274 96.1637 32.7164 96.1508 32.2907C96.1435 32.0796 96.1729 31.8466 95.9747 31.6392Z" fill="#FEFEFE"/>
<path d="M110.967 32.9321C110.136 32.9321 109.301 32.9009 108.473 32.9486C107.91 32.9816 107.805 32.7651 107.811 32.2531C107.836 30.0622 107.824 27.8712 107.822 25.682C107.826 25.4982 107.818 25.3144 107.8 25.1315C107.636 23.7021 107.108 23.1827 105.781 23.1295C104.616 23.0837 103.719 23.8433 103.465 25.0324C103.269 25.9591 103.355 26.8894 103.343 27.818C103.324 29.3594 103.324 30.9008 103.343 32.4421C103.343 32.8091 103.264 32.9413 102.865 32.9248C102.117 32.8917 101.364 32.9248 100.614 32.9376C100.273 32.9376 100.161 32.8202 100.161 32.4752C100.174 28.7428 100.174 25.0116 100.161 21.2817C100.161 20.8963 100.302 20.7936 100.66 20.8028C101.35 20.8193 102.04 20.8156 102.728 20.7881C103.13 20.7734 103.278 20.9202 103.243 21.3166C103.214 21.6469 103.243 21.9827 103.243 22.3313C103.53 22.2873 103.546 22.0946 103.634 21.9753C104.695 20.5532 106.194 20.3348 107.781 20.5734C109.066 20.7661 110.182 21.3294 110.69 22.669C110.928 23.2728 111.052 23.9155 111.057 24.5645C111.288 25.0104 111.292 25.482 111.29 25.9756C111.29 28.2106 110.971 30.4365 111.106 32.6734C111.081 32.7761 111.083 32.8807 110.967 32.9321Z" fill="#FEFEFE"/>
<path d="M110.712 16.7592C110.712 16.0693 110.712 15.3811 110.712 14.6912C110.712 14.3609 110.824 14.2177 111.172 14.2232C112.105 14.2398 113.039 14.2232 113.971 14.2232C114.264 14.2232 114.431 14.3132 114.42 14.6416C114.42 14.9407 114.341 15.1646 113.985 15.1646C113.396 15.1646 112.806 15.2105 112.222 15.1646C111.69 15.1187 111.761 15.4362 111.734 15.7646C111.697 16.183 111.917 16.2234 112.25 16.2069C112.756 16.183 113.264 16.2069 113.769 16.183C114.086 16.1683 114.204 16.2766 114.189 16.5996C114.176 16.8877 114.176 17.1299 113.787 17.1189C113.279 17.106 112.767 17.1611 112.266 17.106C111.51 17.0235 111.804 17.5629 111.75 17.8987C111.673 18.3667 111.923 18.4236 112.321 18.3942C112.886 18.352 113.457 18.3722 114.024 18.3722C114.143 18.3722 114.319 18.3722 114.369 18.4327C114.622 18.7832 114.686 18.4529 114.736 18.3226C114.98 17.7006 115.2 17.0693 115.426 16.4418C115.652 15.8142 115.886 15.2288 116.074 14.6068C116.208 14.1609 116.534 14.2398 116.852 14.2251C117.169 14.2104 117.444 14.2526 117.569 14.6251C118.021 15.9683 118.487 17.3024 118.945 18.6438C119.015 18.8511 119.25 19.1943 118.914 19.2548C118.578 19.3154 118.138 19.4897 117.918 18.9704C117.813 18.7245 117.918 18.3024 117.566 18.2621C117.042 18.2119 116.514 18.2187 115.991 18.2823C115.743 18.308 115.696 18.6107 115.674 18.8218C115.639 19.1888 115.448 19.308 115.112 19.308C113.795 19.308 112.475 19.308 111.158 19.308C110.849 19.308 110.723 19.1961 110.728 18.8805C110.743 18.1703 110.728 17.462 110.728 16.7519L110.712 16.7592Z" fill="#FEFEFD"/>
<path d="M105.929 16.4336C105.929 17.7658 105.654 18.6539 104.744 19.142C104.355 19.3678 103.91 19.4802 103.46 19.4665C103.011 19.4529 102.574 19.3138 102.199 19.065C101.151 18.3989 100.802 16.5694 101.465 15.2684C102.015 14.1967 103.32 13.7802 104.559 14.2811C104.978 14.4587 105.334 14.7596 105.579 15.144C105.824 15.5284 105.946 15.9781 105.929 16.4336Z" fill="#FDFEFD"/>
<path d="M106.228 16.7813C106.228 16.1133 106.243 15.4435 106.228 14.7756C106.216 14.3884 106.348 14.2141 106.748 14.2251C107.436 14.2434 108.126 14.2251 108.814 14.249C109.414 14.2618 109.898 14.5132 110.098 15.0967C110.282 15.6472 110.306 16.2124 109.818 16.6675C109.726 16.7537 109.524 16.851 109.702 16.9978C110.188 17.3795 110.047 17.9153 110.082 18.4034C110.082 18.4841 110.082 18.5649 110.082 18.6456C110.144 19.3319 110.058 19.4035 109.394 19.275C109.157 19.2273 109.041 19.1356 109.051 18.8787C109.06 18.6218 109.029 18.3116 109.021 18.0291C109.01 17.5978 108.838 17.3813 108.363 17.3428C107.234 17.2492 107.219 17.2437 107.245 18.5245C107.245 18.9245 107.375 19.3778 106.695 19.3044C106.351 19.2677 106.166 19.1612 106.195 18.7869C106.223 18.4438 106.232 18.0988 106.238 17.7538C106.243 17.4088 106.238 17.106 106.238 16.7813H106.228Z" fill="#FDFEFD"/>
<path d="M98.0394 16.1476C98.5293 15.6691 98.9942 15.1656 99.4322 14.6393C99.8194 14.1291 100.32 14.2007 100.807 14.2539C101.185 14.2961 100.908 14.5016 100.807 14.6081C100.366 15.0815 99.9258 15.5586 99.4597 16.0063C99.2065 16.2486 99.168 16.4174 99.3992 16.7128C99.9607 17.4285 100.48 18.1808 101.014 18.9148C101.084 19.0102 101.197 19.0983 101.126 19.2323C101.054 19.3662 100.913 19.3038 100.799 19.3112C100.188 19.3515 99.7203 19.1809 99.4194 18.5772C99.2047 18.1478 98.8597 17.7863 98.5936 17.3807C98.4303 17.1349 98.3055 17.1734 98.1257 17.3624C97.7587 17.7588 97.8651 18.2469 97.8963 18.6928C97.933 19.2524 97.6724 19.3515 97.2119 19.3002C96.966 19.2708 96.8724 19.1589 96.8742 18.9056C96.8742 17.4872 96.8852 16.0706 96.8651 14.6539C96.8651 14.2044 97.1366 14.2539 97.4266 14.2337C97.7458 14.2135 97.9147 14.2796 97.8871 14.6576C97.8541 15.1347 97.8871 15.6136 97.8871 16.0926L98.0394 16.1476Z" fill="#FDFEFD"/>
<path d="M110.967 32.9326C111.084 32.3509 111.013 31.7637 111.016 31.1802C111.029 28.9782 111.029 26.7762 111.033 24.5742C111.269 24.921 111.506 24.7357 111.743 24.5742C111.611 25.5284 111.433 26.4789 111.501 27.4497C111.532 27.9102 111.572 28.3672 111.609 28.8296C111.255 28.5415 111.135 28.6663 111.139 29.0791C111.139 30.1655 111.139 31.2518 111.139 32.3363C111.135 32.5436 111.207 32.784 110.967 32.9326Z" fill="#579C22"/>
<path d="M48.9289 24.6774C48.9289 23.0975 48.9454 21.5157 48.9197 19.9358C48.9197 19.5009 48.9894 19.3192 49.4702 19.3394C50.6244 19.3853 51.7805 19.3266 52.9328 19.444C54.1127 19.5633 55.0229 20.0734 55.4193 21.257C56.1845 23.547 56.223 25.8445 55.2358 28.0703C54.6761 29.342 53.6522 30.0374 52.2227 30.0484C51.2905 30.0484 50.3565 30.0301 49.4262 30.0668C48.9986 30.0833 48.9142 29.9182 48.9179 29.542C48.9325 27.9198 48.9179 26.2995 48.9179 24.6774H48.9289Z" fill="#539C00"/>
<path d="M66.5361 27.7337C67.7729 27.7337 69.0097 27.752 70.2465 27.7227C70.6832 27.7227 70.8502 27.8071 70.8392 28.2842C70.8153 29.3558 70.8392 29.3558 69.7896 29.3595C69.4648 29.3595 69.1381 29.3815 68.817 29.3503C68.0977 29.2824 67.5417 29.3925 67.0591 30.0696C66.5086 30.8532 64.9672 30.9578 63.8258 30.4696C63.3636 30.2564 62.9712 29.9166 62.6942 29.4895C62.4171 29.0625 62.2668 28.5656 62.2606 28.0566C62.2606 27.7006 62.4789 27.7337 62.7046 27.7337H66.5361Z" fill="#559D00"/>
<path d="M64.9682 25.6584C64.2213 25.6584 63.4726 25.6474 62.7258 25.6584C62.423 25.6584 62.3441 25.5721 62.3827 25.2712C62.4574 24.6733 62.7469 24.1229 63.1972 23.7226C63.6475 23.3222 64.228 23.0991 64.8305 23.0949C66.3554 23.06 67.4234 23.8289 67.6528 25.1134C67.7188 25.4804 67.6528 25.6731 67.2124 25.6639C66.4655 25.6327 65.7168 25.6639 64.9682 25.6639V25.6584Z" fill="#549E01"/>
<path d="M23.8284 23.602C21.1548 25.1251 18.6097 26.5729 16.0646 28.0262C15.7599 28.2097 15.6407 28.1491 15.6443 27.7711C15.6572 25.0186 15.6553 22.2661 15.6609 19.5136C15.6609 19.2512 15.5948 18.9246 16.0609 19.1907C18.6024 20.6385 21.1512 22.0808 23.8284 23.602Z" fill="#529D00"/>
<path d="M120.044 26.9308C120.136 27.8533 119.917 28.7799 119.422 29.564C118.457 31.054 116.063 30.9972 115.275 29.4044C114.464 27.7676 114.527 26.0555 115.319 24.4224C115.74 23.5562 116.562 23.2645 117.521 23.3067C117.96 23.3119 118.388 23.4403 118.757 23.6771C119.127 23.914 119.422 24.2498 119.61 24.6462C119.952 25.3564 120.102 26.1443 120.044 26.9308Z" fill="#529D00"/>
<path d="M95.9466 28.1295C95.8604 30.1113 94.6456 31.2178 92.8492 30.9389C92.1152 30.8251 91.7298 30.4581 91.6362 29.7957C91.5243 29.0011 91.8197 28.3699 92.451 28.0653C93.0015 27.7974 93.6107 27.7331 94.2016 27.601C94.5686 27.5184 94.9851 27.4946 95.3117 27.3203C95.9063 27.001 95.987 27.2579 95.9485 27.7662C95.9393 27.8909 95.9466 28.0084 95.9466 28.1295Z" fill="#549C00"/>
<path d="M116.734 15.5977C117.068 16.106 117.139 16.5922 117.317 17.0381C117.418 17.2895 117.336 17.4143 117.048 17.3923C116.864 17.3781 116.68 17.3781 116.497 17.3923C116.237 17.4088 116.172 17.284 116.244 17.062C116.396 16.6051 116.549 16.1482 116.734 15.5977Z" fill="#5C9E18"/>
<path d="M102.212 16.6992C102.228 16.4582 102.264 16.2189 102.319 15.9836C102.458 15.4918 102.704 15.0918 103.293 15.044C103.913 14.9945 104.412 15.1413 104.691 15.7597C104.945 16.3189 104.978 16.9539 104.781 17.536C104.565 18.2333 104.098 18.5526 103.427 18.4938C102.755 18.4351 102.361 18.0388 102.26 17.3121C102.227 17.1304 102.229 16.9469 102.212 16.6992Z" fill="#529E01"/>
<path d="M108.045 15.1379C109.025 15.1636 109.205 15.3214 109.111 15.9966C109.075 16.2554 108.963 16.4022 108.697 16.4224C108.394 16.4462 108.093 16.4701 107.794 16.5068C107.366 16.5582 107.23 16.371 107.232 15.9563C107.234 15.1177 107.216 15.1177 108.045 15.1379Z" fill="#57A204"/>
</svg>
