<svg width="106" height="45" viewBox="0 0 106 45" fill="none" xmlns="http://www.w3.org/2000/svg">
<g clip-path="url(#clip0)">
<path d="M77.3704 33.4121H78.78L78.7894 0.720837L77.3888 0.725471C77.3888 0.725471 77.361 3.3796 77.361 4.34557L77.3704 33.4121Z" fill="#C5B7DA"/>
<path d="M80.4229 0.725471L80.3999 33.4121H78.7814L78.7904 0.725471H80.4229Z" fill="#A48BC1"/>
<path d="M102.727 0.724087C102.727 0.724087 102.727 25.0942 102.736 26.1797L101.164 24.0684L82.8214 0.724087H80.4238L80.3958 33.4107L82.4135 33.4153C82.4135 33.4153 83.7909 33.1853 83.7909 30.7888V10.347L101.168 33.4199L106.001 33.4153L105.996 0.724087H102.727Z" fill="#8867AD"/>
<path d="M102.738 26.2148L82.8008 0.722404C82.8008 0.722404 84.9666 0.860403 86.0147 2.24956C89.5255 6.90922 100.67 21.1458 101.157 21.8082V0.726965H102.729L102.738 26.2148Z" fill="#A48BC1"/>
<path d="M17.436 33.3668C10.1918 33.3668 4.15797 26.8028 4.15797 17.0557C4.15797 7.3086 10.1918 0.795177 17.436 0.795177C24.6894 0.795177 30.7185 7.3086 30.7185 17.0557C30.7185 26.8028 24.6894 33.3668 17.436 33.3668ZM21.6098 0.454765C21.6005 0.450165 21.5913 0.450203 21.582 0.450203C21.4104 0.408802 21.239 0.367363 21.0674 0.335163C20.0007 0.114368 18.9061 -0.000617981 17.7884 -0.000617981C17.7559 -0.000617981 17.7236 -0.000617981 17.6865 -0.000617981C17.654 -0.000617981 17.6215 -0.000617981 17.5936 -0.000617981C7.87758 -0.000617981 -0.00195312 7.69958 -0.00195312 17.1937C-0.00195312 26.6924 7.87758 34.3926 17.5936 34.3926C27.3097 34.3926 35.1892 26.6924 35.1892 17.1937C35.1892 9.04734 29.3872 2.23031 21.6098 0.454765Z" fill="#8867AD"/>
<path d="M24.6134 23.8435C24.3305 25.2511 23.732 26.4194 22.823 27.3486C21.4039 28.7838 19.6556 29.5059 17.5872 29.5059C15.5095 29.5059 13.7658 28.7838 12.342 27.3486C11.4377 26.4194 10.8393 25.2511 10.5564 23.8435C10.3246 22.6338 10.2179 20.3798 10.2179 17.0817C10.2179 13.7882 10.3246 11.5343 10.5564 10.3199C10.8393 8.91233 11.4377 7.744 12.342 6.81483C13.7658 5.37967 15.5095 4.66208 17.5872 4.66208C19.6556 4.66208 21.4039 5.37967 22.823 6.81483C23.732 7.744 24.3305 8.91233 24.6134 10.3199C24.8407 11.5343 24.9565 13.7882 24.9565 17.0817C24.9565 20.3798 24.8407 22.6338 24.6134 23.8435ZM27.8551 9.64833C27.4841 7.78999 26.6447 6.20764 25.3415 4.91048C25.0864 4.66208 24.8265 4.42749 24.5622 4.2067C22.6097 2.59215 20.2864 1.7826 17.5872 1.7826C14.9205 1.7826 12.6248 2.57378 10.6909 4.14234C10.3941 4.38153 10.1113 4.63908 9.8284 4.91048C8.52519 6.20764 7.69033 7.78999 7.31931 9.64833C7.09206 10.9133 6.97595 13.3926 6.97595 17.0817C6.97595 20.7754 7.09206 23.2501 7.31931 24.5151C7.69033 26.378 8.52519 27.9558 9.8284 29.253C10.0696 29.4875 10.3153 29.7084 10.5658 29.9154C12.5229 31.5575 14.8649 32.3809 17.5872 32.3809C20.3884 32.3809 22.7861 31.5023 24.785 29.7589C24.9705 29.5979 25.156 29.4277 25.3415 29.253C26.6447 27.9558 27.4841 26.378 27.8551 24.5151C28.0777 23.2501 28.1936 20.7754 28.1936 17.0817C28.1936 13.3926 28.0777 10.9133 27.8551 9.64833Z" fill="#C5B7DA"/>
<path d="M25.3395 29.253C25.1586 29.4278 24.9731 29.598 24.783 29.759C22.7841 31.5023 20.3864 32.3809 17.5852 32.3809C14.8628 32.3809 12.5255 31.5575 10.5638 29.9153C10.3133 29.7083 10.0674 29.4876 9.83092 29.253C8.52308 27.9558 7.68832 26.3781 7.3173 24.5151C7.09005 23.2502 6.97876 20.7754 6.97876 17.0818C6.97876 13.3927 7.09005 10.9133 7.3173 9.64839C7.68832 7.79004 8.52308 6.2077 9.83092 4.91053C10.1092 4.63914 10.3969 4.38152 10.6937 4.14232C12.623 2.57377 14.9231 1.78259 17.5852 1.78259C20.2843 1.78259 22.608 2.5968 24.5605 4.20675C24.8248 4.42755 25.0844 4.66214 25.3395 4.91053C26.6473 6.2077 27.4823 7.79004 27.8534 9.64839C28.0806 10.9133 28.1919 13.3927 28.1919 17.0818C28.1919 20.7754 28.0806 23.2502 27.8534 24.5151C27.4823 26.3781 26.6473 27.9558 25.3395 29.253ZM17.4369 0.798199C10.1881 0.798199 4.15915 7.31162 4.15915 17.0587C4.15915 26.8058 10.1881 33.3652 17.4369 33.3652C24.6903 33.3652 30.7194 26.8058 30.7194 17.0587C30.7194 7.31162 24.6903 0.798199 17.4369 0.798199Z" fill="#A48BC1"/>
<path d="M45.7939 21.3535L40.6693 3.17484C40.1452 0.994507 38.4572 0.727726 38.4572 0.727726L44.8805 24.5918L45.7939 21.3535Z" fill="#C5B7DA"/>
<path d="M61.6834 33.4121L54.1655 8.28763L46.9725 33.4121H48.4102L54.1794 13.1957L60.2225 33.4121H61.6834Z" fill="#C5B7DA"/>
<path d="M69.9753 0.727743L63.4916 24.6562L62.615 21.8917L67.7399 3.70387C68.4124 1.30274 69.9753 0.727743 69.9753 0.727743Z" fill="#C5B7DA"/>
<path d="M75.294 0.72604H73.6151L64.8036 33.4173L66.4824 33.4219L75.294 0.72604Z" fill="#A48BC1"/>
<path d="M33.0695 0.727425C33.0695 0.727425 33.5934 2.82495 34.0201 4.25551C34.1082 4.5499 34.1917 4.85349 34.2612 5.15708L41.1807 30.8013L41.8904 33.4141H43.7314L34.8735 0.727425H33.0695Z" fill="#A48BC1"/>
<path d="M45.4354 33.4134H46.9704L54.1637 8.28889L61.6813 33.4134L62.312 33.418H63.2953L54.1589 3.52802L45.4354 33.4134Z" fill="#A48BC1"/>
<path d="M69.9752 0.72673L63.4962 24.6276L62.564 21.3571L62.5595 21.3709L57.7593 4.27321C57.7315 4.18121 57.7082 4.09386 57.6897 4.00186L56.7714 0.72673H55.2412H54.193H54.1652H53.0845H51.6052L48.4284 12.0102L45.7939 21.3709V21.3525L44.834 24.3884L38.4571 0.72673H36.8386H34.8721L43.7303 33.4134H45.4369L54.1604 3.52809L63.2969 33.418H64.8039L73.6112 0.72673H69.9752Z" fill="#8867AD"/>
<path d="M83.7897 10.345L83.7852 12.7278C83.7852 12.7278 97.8283 31.2422 98.6631 32.314C99.5071 33.3811 101.167 33.418 101.167 33.418L83.7897 10.345Z" fill="#A48BC1"/>
<path d="M101.154 0.725431C101.154 0.725431 99.6287 1.54423 99.6287 3.04839C99.6287 4.55714 99.6148 19.8609 99.6148 19.8609L101.154 21.8066V0.725431Z" fill="#C5B7DA"/>
<path d="M13.2106 42.4563C13.2106 43.4774 13.1782 43.8454 12.8582 44.172C12.6216 44.402 12.3249 44.517 11.9863 44.517C11.6478 44.517 11.3464 44.402 11.1145 44.172C10.7945 43.8454 10.7621 43.4774 10.7621 42.4563C10.7621 41.4305 10.7945 41.0671 11.1145 40.7405C11.3464 40.5105 11.6478 40.3909 11.9863 40.3909C12.3249 40.3909 12.6216 40.5105 12.8582 40.7405C13.1782 41.0671 13.2106 41.4305 13.2106 42.4563ZM13.7487 42.4563C13.7487 41.3109 13.7163 40.8739 13.2386 40.4047C12.9279 40.0965 12.5104 39.9125 11.9863 39.9125C11.4623 39.9125 11.0404 40.0965 10.725 40.4047C10.2519 40.8739 10.224 41.3109 10.224 42.4563C10.224 43.6016 10.2519 44.0386 10.725 44.5032C11.0404 44.816 11.4623 45 11.9863 45C12.5104 45 12.9279 44.816 13.2386 44.5032C13.7163 44.0386 13.7487 43.6016 13.7487 42.4563Z" fill="#58595B"/>
<path d="M17.63 41.4243C17.63 42.0821 17.1987 42.4179 16.5679 42.4179H15.274V40.4354H16.5679C17.1987 40.4354 17.63 40.7619 17.63 41.4243ZM18.1678 41.4243C18.1678 40.5365 17.5232 39.957 16.6095 39.957H14.7359V44.957H15.274V42.9009H16.6095C17.5232 42.9009 18.1678 42.3167 18.1678 41.4243Z" fill="#58595B"/>
<path d="M21.9403 41.3508C21.9403 41.9625 21.5276 42.2661 20.9386 42.2661H19.5937V40.4308H20.9386C21.5276 40.4308 21.9403 40.739 21.9403 41.3508ZM22.5804 44.957L21.3838 42.6847C22.0331 42.5513 22.4784 42.0775 22.4784 41.3462C22.4784 40.4814 21.8615 39.957 20.985 39.957H19.0556V44.957H19.5937V42.7353H20.7996L21.9497 44.957H22.5804Z" fill="#58595B"/>
<path d="M26.2185 43.3609H24.3355L25.2818 40.7205L26.2185 43.3609ZM27.3502 44.957L25.5043 39.957H25.0497L23.1948 44.957H23.7651L24.1733 43.8255H26.3716L26.7798 44.957H27.3502Z" fill="#58595B"/>
<path d="M31.7759 44.957V39.957H31.2381V42.1925H28.8448V39.957H28.3069V44.957H28.8448V42.6755H31.2381V44.957H31.7759Z" fill="#58595B"/>
<path d="M41.6181 39.957H41.0477L40.0598 43.9911L38.9514 39.957H38.4693L37.356 43.9911L36.3729 39.957H35.7977L37.0871 44.957H37.5881L38.7057 40.9551L39.8235 44.957H40.329L41.6181 39.957Z" fill="#58595B"/>
<path d="M42.4631 44.959H43.0012V39.9589H42.4631V44.959Z" fill="#58595B"/>
<path d="M47.8967 44.957V39.957H47.3634V43.9497L44.6828 39.957H44.1727V44.957H44.7106V40.9459L47.3866 44.957H47.8967Z" fill="#58595B"/>
<path d="M52.2017 40.4334V39.955H49.0713V44.9551H49.6094V42.7518H51.8216V42.2734H49.6094V40.4334H52.2017Z" fill="#58595B"/>
<path d="M56.0703 41.3508C56.0703 41.9625 55.653 42.2661 55.064 42.2661H53.7188V40.4308H55.064C55.653 40.4308 56.0703 40.739 56.0703 41.3508ZM56.7009 44.957L55.5092 42.6847C56.1631 42.5513 56.6036 42.0775 56.6036 41.3462C56.6036 40.4814 55.9914 39.957 55.1149 39.957H53.1762V44.957H53.7188V42.7353H54.9295L56.0748 44.957H56.7009Z" fill="#58595B"/>
<path d="M60.81 44.957V44.4786H58.222V42.6755H60.4296V42.1925H58.222V40.4354H60.81V39.957H57.6794V44.957H60.81Z" fill="#58595B"/>
<path d="M64.9285 39.957H64.3443L63.1662 42.3489L61.979 39.957H61.3948L62.9018 42.8917V44.957H63.4399V42.8917L64.9285 39.957Z" fill="#58595B"/>
<path d="M71.9079 44.957V39.957H71.3655V43.9497L68.694 39.957H68.1839V44.957H68.722V40.9459L71.3978 44.957H71.9079Z" fill="#58595B"/>
<path d="M76.07 44.957V44.4786H73.4777V42.6755H75.6853V42.1925H73.4777V40.4354H76.07V39.957H72.9395V44.957H76.07Z" fill="#58595B"/>
<path d="M80.1276 40.4334V39.955H76.6725V40.4334H78.1286V44.9551H78.6667V40.4334H80.1276Z" fill="#58595B"/>
<path d="M86.4112 39.957H85.8406L84.8575 43.9911L83.749 39.957H83.2622L82.1491 43.9911L81.1658 39.957H80.5909L81.8848 44.957H82.3855L83.5033 40.9551L84.6257 44.957H85.1264L86.4112 39.957Z" fill="#58595B"/>
<path d="M89.9818 42.4563C89.9818 43.4774 89.9446 43.8454 89.6246 44.172C89.3973 44.402 89.0958 44.517 88.7573 44.517C88.4187 44.517 88.122 44.402 87.8854 44.172C87.5701 43.8454 87.533 43.4774 87.533 42.4563C87.533 41.4305 87.5701 41.0671 87.8854 40.7405C88.122 40.5105 88.4187 40.3909 88.7573 40.3909C89.0958 40.3909 89.3973 40.5105 89.6246 40.7405C89.9446 41.0671 89.9818 41.4305 89.9818 42.4563ZM90.5196 42.4563C90.5196 41.3109 90.4872 40.8739 90.0095 40.4047C89.6988 40.0965 89.2813 39.9125 88.7573 39.9125C88.2332 39.9125 87.8065 40.0965 87.4911 40.4047C87.0227 40.8739 86.9949 41.3109 86.9949 42.4563C86.9949 43.6016 87.0227 44.0386 87.4911 44.5032C87.8065 44.816 88.2332 45 88.7573 45C89.2813 45 89.6988 44.816 90.0095 44.5032C90.4872 44.0386 90.5196 43.6016 90.5196 42.4563Z" fill="#58595B"/>
<path d="M94.3913 41.3508C94.3913 41.9625 93.9741 42.2661 93.3898 42.2661H92.0401V40.4308H93.3898C93.9741 40.4308 94.3913 40.739 94.3913 41.3508ZM95.0313 44.957L93.8302 42.6847C94.4842 42.5513 94.9294 42.0775 94.9294 41.3462C94.9294 40.4814 94.3125 39.957 93.4359 39.957H91.5068V44.957H92.0401V42.7353H93.255L94.4054 44.957H95.0313Z" fill="#58595B"/>
<path d="M99.6395 44.957L97.8259 41.8889L99.4122 39.957H98.749L96.4069 42.8273V39.957H95.8643V44.957H96.4069V43.5587L97.4644 42.2937L99.004 44.957H99.6395Z" fill="#58595B"/>
<path d="M77.3704 33.4141H78.78L78.7894 0.722794L77.3888 0.727425C77.3888 0.727425 77.361 3.38156 77.361 4.34753L77.3704 33.4141Z" fill="#C5B7DA"/>
<path d="M80.4229 0.725471L80.3999 33.4121H78.7814L78.7904 0.725471H80.4229Z" fill="#A48BC1"/>
<path d="M102.727 0.724087C102.727 0.724087 102.727 25.0942 102.736 26.1797L101.164 24.0684L82.8214 0.724087H80.4238L80.3958 33.4107L82.4135 33.4153C82.4135 33.4153 83.7909 33.1853 83.7909 30.7888V10.347L101.168 33.4199L106.001 33.4153L105.996 0.724087H102.727Z" fill="#8867AD"/>
<path d="M102.738 26.2129L82.8008 0.720451C82.8008 0.720451 84.9666 0.85845 86.0147 2.24761C89.5255 6.90727 100.67 21.1438 101.157 21.8062V0.725012H102.729L102.738 26.2129Z" fill="#A48BC1"/>
<path d="M17.436 33.3668C10.1918 33.3668 4.15797 26.8028 4.15797 17.0557C4.15797 7.3086 10.1918 0.795177 17.436 0.795177C24.6894 0.795177 30.7185 7.3086 30.7185 17.0557C30.7185 26.8028 24.6894 33.3668 17.436 33.3668ZM21.6098 0.454765C21.6005 0.450165 21.5913 0.450203 21.582 0.450203C21.4104 0.408802 21.239 0.367363 21.0674 0.335163C20.0007 0.114368 18.9061 -0.000617981 17.7884 -0.000617981C17.7559 -0.000617981 17.7236 -0.000617981 17.6865 -0.000617981C17.654 -0.000617981 17.6215 -0.000617981 17.5936 -0.000617981C7.87758 -0.000617981 -0.00195312 7.69958 -0.00195312 17.1937C-0.00195312 26.6924 7.87758 34.3926 17.5936 34.3926C27.3097 34.3926 35.1892 26.6924 35.1892 17.1937C35.1892 9.04734 29.3872 2.23031 21.6098 0.454765Z" fill="#8867AD"/>
<path d="M24.6134 23.8435C24.3305 25.2511 23.732 26.4194 22.823 27.3486C21.4039 28.7838 19.6556 29.5059 17.5872 29.5059C15.5095 29.5059 13.7658 28.7838 12.342 27.3486C11.4377 26.4194 10.8393 25.2511 10.5564 23.8435C10.3246 22.6338 10.2179 20.3798 10.2179 17.0817C10.2179 13.7882 10.3246 11.5343 10.5564 10.3199C10.8393 8.91233 11.4377 7.744 12.342 6.81483C13.7658 5.37967 15.5095 4.66208 17.5872 4.66208C19.6556 4.66208 21.4039 5.37967 22.823 6.81483C23.732 7.744 24.3305 8.91233 24.6134 10.3199C24.8407 11.5343 24.9565 13.7882 24.9565 17.0817C24.9565 20.3798 24.8407 22.6338 24.6134 23.8435ZM27.8551 9.64833C27.4841 7.78999 26.6447 6.20764 25.3415 4.91048C25.0864 4.66208 24.8265 4.42749 24.5622 4.2067C22.6097 2.59215 20.2864 1.7826 17.5872 1.7826C14.9205 1.7826 12.6248 2.57378 10.6909 4.14234C10.3941 4.38153 10.1113 4.63908 9.8284 4.91048C8.52519 6.20764 7.69033 7.78999 7.31931 9.64833C7.09206 10.9133 6.97595 13.3926 6.97595 17.0817C6.97595 20.7754 7.09206 23.2501 7.31931 24.5151C7.69033 26.378 8.52519 27.9558 9.8284 29.253C10.0696 29.4875 10.3153 29.7084 10.5658 29.9154C12.5229 31.5575 14.8649 32.3809 17.5872 32.3809C20.3884 32.3809 22.7861 31.5023 24.785 29.7589C24.9705 29.5979 25.156 29.4277 25.3415 29.253C26.6447 27.9558 27.4841 26.378 27.8551 24.5151C28.0777 23.2501 28.1936 20.7754 28.1936 17.0817C28.1936 13.3926 28.0777 10.9133 27.8551 9.64833Z" fill="#C5B7DA"/>
<path d="M25.3395 29.253C25.1586 29.4278 24.9731 29.598 24.783 29.759C22.7841 31.5023 20.3864 32.3809 17.5852 32.3809C14.8628 32.3809 12.5255 31.5575 10.5638 29.9153C10.3133 29.7083 10.0674 29.4876 9.83092 29.253C8.52308 27.9558 7.68832 26.3781 7.3173 24.5151C7.09005 23.2502 6.97876 20.7754 6.97876 17.0818C6.97876 13.3927 7.09005 10.9133 7.3173 9.64839C7.68832 7.79004 8.52308 6.2077 9.83092 4.91053C10.1092 4.63914 10.3969 4.38152 10.6937 4.14232C12.623 2.57377 14.9231 1.78259 17.5852 1.78259C20.2843 1.78259 22.608 2.5968 24.5605 4.20675C24.8248 4.42755 25.0844 4.66214 25.3395 4.91053C26.6473 6.2077 27.4823 7.79004 27.8534 9.64839C28.0806 10.9133 28.1919 13.3927 28.1919 17.0818C28.1919 20.7754 28.0806 23.2502 27.8534 24.5151C27.4823 26.3781 26.6473 27.9558 25.3395 29.253ZM17.4369 0.798199C10.1881 0.798199 4.15915 7.31162 4.15915 17.0587C4.15915 26.8058 10.1881 33.3652 17.4369 33.3652C24.6903 33.3652 30.7194 26.8058 30.7194 17.0587C30.7194 7.31162 24.6903 0.798199 17.4369 0.798199Z" fill="#A48BC1"/>
<path d="M45.7939 21.3535L40.6693 3.17484C40.1452 0.994507 38.4572 0.727726 38.4572 0.727726L44.8805 24.5918L45.7939 21.3535Z" fill="#C5B7DA"/>
<path d="M61.6834 33.4141L54.1655 8.28959L46.9725 33.4141H48.4102L54.1794 13.1976L60.2225 33.4141H61.6834Z" fill="#C5B7DA"/>
<path d="M69.9753 0.727743L63.4916 24.6562L62.615 21.8917L67.7399 3.70387C68.4124 1.30274 69.9753 0.727743 69.9753 0.727743Z" fill="#C5B7DA"/>
<path d="M75.294 0.724087H73.6151L64.8036 33.4153L66.4824 33.4199L75.294 0.724087Z" fill="#A48BC1"/>
<path d="M33.0695 0.727425C33.0695 0.727425 33.5934 2.82495 34.0201 4.25551C34.1082 4.5499 34.1917 4.85349 34.2612 5.15708L41.1807 30.8013L41.8904 33.4141H43.7314L34.8735 0.727425H33.0695Z" fill="#A48BC1"/>
<path d="M45.4354 33.4134H46.9704L54.1637 8.28889L61.6813 33.4134L62.312 33.418H63.2953L54.1589 3.52802L45.4354 33.4134Z" fill="#A48BC1"/>
<path d="M69.9752 0.72673L63.4962 24.6276L62.564 21.3571L62.5595 21.3709L57.7593 4.27321C57.7315 4.18121 57.7082 4.09386 57.6897 4.00186L56.7714 0.72673H55.2412H54.193H54.1652H53.0845H51.6052L48.4284 12.0102L45.7939 21.3709V21.3525L44.834 24.3884L38.4571 0.72673H36.8386H34.8721L43.7303 33.4134H45.4369L54.1604 3.52809L63.2969 33.418H64.8039L73.6112 0.72673H69.9752Z" fill="#8867AD"/>
<path d="M83.7897 10.345L83.7852 12.7278C83.7852 12.7278 97.8283 31.2422 98.6631 32.314C99.5071 33.3811 101.167 33.418 101.167 33.418L83.7897 10.345Z" fill="#A48BC1"/>
<path d="M101.154 0.723478C101.154 0.723478 99.6287 1.54228 99.6287 3.04643C99.6287 4.55519 99.6148 19.8589 99.6148 19.8589L101.154 21.8047V0.723478Z" fill="#C5B7DA"/>
</g>
<defs>
<clipPath id="clip0">
<rect width="106" height="45" fill="white"/>
</clipPath>
</defs>
</svg>
