<svg width="69" height="46" viewBox="0 0 69 46" fill="none" xmlns="http://www.w3.org/2000/svg">
<path d="M69 30.1562H0V46.0007H69V30.1562Z" fill="#001C61"/>
<path d="M22.9408 15.0953C22.9408 10.2429 19.0084 6.49805 14.1008 6.49805C9.19183 6.49805 5.25941 10.2429 5.25941 15.0953C5.25941 19.9463 9.19183 23.6898 14.1008 23.6898C19.0084 23.6898 22.9408 19.9463 22.9408 15.0953ZM18.7449 15.0953C18.7449 17.7049 16.5022 19.7877 14.1008 19.7877C11.6718 19.7877 9.45528 17.7049 9.45528 15.0953C9.45528 12.4843 11.6718 10.4015 14.1008 10.4015C16.5022 10.4015 18.7449 12.4843 18.7449 15.0953Z" fill="white"/>
<path d="M28.7932 23.3731H32.858V18.5483H35.8925L39.0856 23.3731H44.1518L40.0622 17.5731C41.9877 16.7289 43.3339 14.9096 43.3339 12.6682C43.3339 9.3717 40.9063 6.81445 37.2111 6.81445H28.7932V23.3731ZM36.9739 14.6462H32.858V10.7165H36.9739C38.7422 10.7165 39.2705 11.5869 39.2705 12.6682C39.2705 13.7758 38.7422 14.6462 36.9739 14.6462Z" fill="white"/>
<path d="M50.1684 23.3634H54.2291V17.7882H61.9036V13.8889H54.2291V10.7138H63.6443V6.81445H50.1684V23.3634Z" fill="white"/>
<path d="M0 0H69V30.1556H0V0Z" fill="#E2001A"/>
<path d="M22.9408 15.0953C22.9408 10.2429 19.0084 6.49805 14.1008 6.49805C9.19183 6.49805 5.25941 10.2429 5.25941 15.0953C5.25941 19.9463 9.19183 23.6898 14.1008 23.6898C19.0084 23.6898 22.9408 19.9463 22.9408 15.0953ZM18.7449 15.0953C18.7449 17.7049 16.5022 19.7877 14.1008 19.7877C11.6718 19.7877 9.45528 17.7049 9.45528 15.0953C9.45528 12.4843 11.6718 10.4015 14.1008 10.4015C16.5022 10.4015 18.7449 12.4843 18.7449 15.0953Z" fill="white"/>
<path d="M28.7932 23.3731H32.858V18.5483H35.8925L39.0856 23.3731H44.1518L40.0622 17.5731C41.9877 16.7289 43.3339 14.9096 43.3339 12.6682C43.3339 9.3717 40.9063 6.81445 37.2111 6.81445H28.7932V23.3731ZM36.9739 14.6462H32.858V10.7165H36.9739C38.7422 10.7165 39.2705 11.5869 39.2705 12.6682C39.2705 13.7758 38.7422 14.6462 36.9739 14.6462Z" fill="white"/>
<path d="M50.1684 23.3634H54.2291V17.7882H61.9036V13.8889H54.2291V10.7138H63.6443V6.81445H50.1684V23.3634Z" fill="white"/>
<path d="M10.36 35.1789V33.1582H1.12152V35.1789H4.51428V43.1192H6.96728V35.1789H10.36Z" fill="white"/>
<path d="M20.4649 33.1572H18.2956L15.9041 38.7123L13.5126 33.1572H11.291L14.9893 43.1894H16.7666L20.4649 33.1572Z" fill="white"/>
<path d="M31.6132 35.1779V33.1572H22.3746V35.1779H25.7674V43.1183H28.2204V35.1779H31.6132Z" fill="#D40000"/>
<path d="M41.6517 43.1183V33.1572H39.5311V37.0989H35.6204V33.1572H33.4998V43.1183H35.6204V39.1196H39.5311V43.1183H41.6517Z" fill="#D40000"/>
<path d="M54.0918 43.1183V41.1688H48.0389V39.0769H53.2953V37.1274H48.0389V35.1067H54.0121V33.1572H45.6019V43.1183H54.0918Z" fill="#D40000"/>
<path d="M67.4415 43.1183L62.6948 37.3836L67.2345 33.1572H64.2718L59.7481 37.5116V33.1572H57.2951V43.1183H59.7481V40.073L61.0383 38.8777L64.4948 43.1183H67.4415Z" fill="#D40000"/>
</svg>
