<svg width="87" height="73" viewBox="0 0 87 73" fill="none" xmlns="http://www.w3.org/2000/svg">
<path d="M75.5694 51.1074H63.3259C57.8449 51.1074 53.4017 55.5507 53.4017 61.0317C53.4017 66.5127 57.8449 70.9559 63.3259 70.9559H75.5694C81.0504 70.9559 85.4936 66.5127 85.4936 61.0317C85.4936 55.5507 81.0504 51.1074 75.5694 51.1074Z" fill="white"/>
<path d="M85.1511 57.8093C86.0917 59.5134 86.625 61.2174 86.533 63.0049C86.2825 67.8546 83.125 71.2848 78.9689 72.2595C78.2195 72.4178 77.4547 72.4921 76.6889 72.481C72.7134 72.5032 68.7362 72.481 64.7607 72.5014C62.8759 72.5178 61.0238 72.0092 59.4118 71.0326C59.0313 70.8392 58.5903 70.8025 58.1832 70.9303C53.5124 72.573 48.7292 73.304 43.779 72.8831C38.7505 72.4554 34.0661 70.9048 29.6135 68.5907C21.7545 64.5011 14.6982 59.3668 8.80564 52.7126C6.13713 49.6999 3.87249 46.4077 2.34738 42.6589C-0.784613 34.9447 0.554749 28.0366 6.30072 22.1015C13.0691 15.115 20.7423 9.30769 29.6101 5.18736C36.3887 2.04514 43.4979 0.266135 50.982 0.0173471C57.7844 -0.209288 63.9513 1.79976 69.7739 5.16521C74.7071 8.00922 78.8871 11.6269 81.8112 16.5788C84.1129 20.4819 85.4561 24.8752 85.7304 29.3981C86.274 37.4275 84.1031 44.7804 80.2145 51.7089C80.1617 51.8044 80.0867 51.8879 79.9674 52.0497C77.6602 50.7717 75.1399 50.9847 72.6401 50.9847C69.5729 50.9847 66.5056 50.9626 63.4384 50.9847C60.9705 51.0091 58.5975 51.9389 56.7699 53.5975C54.9422 55.2561 53.7873 57.528 53.5244 59.982C52.9842 64.8657 56.4212 69.5637 61.3629 70.656C62.169 70.8216 62.9903 70.9016 63.8133 70.8946C67.5911 70.9184 71.3689 70.8349 75.145 70.9184C82.1537 71.0735 87.0817 64.3426 85.1204 58.1263C85.1186 58.0198 85.1289 57.9135 85.1511 57.8093ZM50.4742 23.9981C48.9405 23.9981 47.47 23.9742 46.0011 24.0271C45.8307 24.0271 45.5359 24.4548 45.5274 24.6916C45.4814 26.0242 45.5086 27.3601 45.5052 28.6944C45.4967 31.6764 45.5529 34.6585 45.4524 37.6388C45.3587 40.3482 43.6751 41.9193 40.9913 42.0301C38.3074 42.1408 36.5489 40.6771 36.1723 38.0137C36.0805 37.3103 36.0372 36.6015 36.0428 35.8922C36.0308 32.1996 36.0274 28.5086 36.0513 24.816C36.0513 24.2043 35.9082 23.9504 35.247 23.981C34.1121 24.0305 32.9738 24.0254 31.8389 23.981C31.2187 23.9572 30.9699 24.1293 30.9989 24.7871C31.0466 25.864 31.0125 26.9443 31.0108 28.0247V31.0919C28.7956 25.6919 23.5131 22.8394 17.6427 23.7885C12.1438 24.678 8.18026 29.0267 7.83434 34.3534C7.48843 39.6802 10.6579 44.4413 15.7342 46.0669C18.8611 47.0689 21.9607 46.9189 24.9479 45.5353C27.935 44.1516 29.9509 41.8188 31.1113 38.5488C31.5339 41.3774 32.5206 43.746 34.9062 45.1161C38.655 47.27 42.5743 47.2819 46.3675 45.2353C49.1621 43.7324 50.3446 41.0452 50.4571 38.0001C50.6122 33.5185 50.544 29.0301 50.5662 24.5383C50.547 24.3564 50.5163 24.176 50.4742 23.9981ZM62.7261 46.2356C62.7676 46.1145 62.7968 45.9895 62.813 45.8624C62.796 41.236 62.8386 36.6079 62.721 31.9831C62.6951 29.9665 61.891 28.0379 60.4768 26.6001C57.8594 23.9299 54.5263 23.9027 51.0229 24.0441V26.6376C51.0229 28.6143 51.0229 28.6143 52.9552 28.6347C53.1819 28.6347 53.4102 28.6347 53.6368 28.6569C56.0889 28.8273 57.4794 30.1598 57.7265 32.6102C57.7725 33.0601 57.7691 33.5168 57.7708 33.9734C57.7708 37.7223 57.7708 41.4712 57.7708 45.22V46.2509L62.7261 46.2356ZM57.5373 23.9947C57.7333 24.1651 57.781 24.2435 57.8441 24.2622C58.8405 24.5587 59.7638 25.0606 60.5545 25.7356C61.3452 26.4106 61.9857 27.2438 62.4347 28.1815C62.5472 28.4081 62.9459 28.6092 63.2305 28.6143C65.1288 28.6501 67.0271 28.6143 68.927 28.6399C69.4519 28.6399 69.6189 28.4422 69.6087 27.9378C69.5831 26.9154 69.5575 25.893 69.6087 24.8705C69.6513 24.1327 69.3599 23.9776 68.68 23.9828C65.4219 24.0134 62.1621 23.9964 58.9023 23.9964L57.5373 23.9947ZM78.0896 37.9796C77.5204 37.9796 77.12 38.0307 76.7383 37.9694C75.8045 37.8177 75.3853 38.2233 75.1382 39.106C74.7565 40.4692 74.2436 41.8086 73.7307 43.3166C73.1581 41.6245 72.6623 40.1165 72.1255 38.622C72.0369 38.3749 71.7847 38.0375 71.5683 38.0137C70.8764 37.937 70.1693 37.9847 69.3428 37.9847C70.4215 40.7452 71.4456 43.3814 72.4902 46.009C72.5357 46.0923 72.5977 46.1654 72.6724 46.224C72.7471 46.2826 72.8329 46.3254 72.9247 46.3498C74.2044 46.6821 74.8196 46.3498 75.2984 45.111L75.4228 44.794L78.0896 37.9796ZM64.7283 40.1625C64.7283 41.4592 64.7147 42.6776 64.7283 43.8977C64.759 46.0669 66.814 47.2188 68.6902 46.1129C68.7826 46.0573 68.8625 45.9831 68.925 45.8952C68.9874 45.8072 69.0311 45.7073 69.0531 45.6017C69.1026 45.1024 69.0702 44.5946 69.0702 44.0493C68.6408 44.1311 68.2897 44.2913 67.9864 44.2197C67.6831 44.1482 67.2435 43.8789 67.2298 43.6676C67.1566 42.4919 67.194 41.3076 67.194 40.0398H69.0463V37.9523H67.1378V35.9689H64.6977V37.92L63.7843 38.075V40.0159L64.7283 40.1625Z" fill="#793E98"/>
<path d="M67.8195 58.0159C66.78 57.1111 65.6741 56.5982 64.3586 56.6118C62.3138 56.6339 60.5655 58.3789 60.4734 60.4919C60.3678 62.8775 61.9099 64.8865 64.0519 64.97C64.9278 65.0041 65.8326 64.7587 66.6931 64.527C66.947 64.4588 67.2333 64.0158 67.2691 63.7227C67.4395 62.3799 67.3935 62.368 66.0081 62.3595H64.3484V59.8222H70.1864C70.1864 61.6864 70.1983 63.5506 70.1659 65.4148C70.1659 65.6108 69.9206 65.851 69.7297 65.989C67.2026 67.8106 64.4353 68.2793 61.5044 67.2159C58.6263 66.1697 56.9802 63.2098 57.3704 60.0369C57.7777 56.7209 60.1326 54.3216 63.3788 53.9194C65.8718 53.611 68.0138 54.2091 69.7076 55.7308C69.1043 56.4601 68.4977 57.1946 67.8195 58.0159Z" fill="#793E98"/>
<path d="M81.8112 62.3468C81.8197 65.4294 79.4255 67.7537 76.2339 67.752C72.9962 67.752 70.6242 65.4754 70.6311 62.3877C70.6311 59.3341 73.0746 57.0098 76.2543 57.0166C79.434 57.0234 81.8112 59.3 81.8112 62.3468ZM76.256 65.1874C77.7385 65.1874 78.8939 63.9946 78.9007 62.4456C78.9092 60.8524 77.6823 59.5812 76.1538 59.5999C74.6526 59.6187 73.562 60.7927 73.5688 62.3826C73.5756 63.9724 74.7616 65.1908 76.2595 65.1874H76.256Z" fill="#793E98"/>
<path d="M50.4743 23.9982C50.5145 24.1791 50.5429 24.3624 50.5595 24.5469C50.5373 29.0336 50.6055 33.522 50.4504 38.0087C50.3447 41.0504 49.1622 43.7377 46.3693 45.2491C42.5829 47.294 38.6585 47.2837 34.908 45.1298C32.5224 43.7666 31.5357 41.3912 31.1131 38.5625C29.9527 41.824 27.947 44.1534 24.9497 45.549C21.9523 46.9446 18.8629 47.0827 15.736 46.0807C10.6597 44.4414 7.49023 39.7042 7.83615 34.3536C8.18207 29.003 12.1456 24.673 17.6445 23.7886C23.5098 22.8395 28.8008 25.692 31.0126 31.0921V28.0248C31.0126 26.9462 31.0484 25.8658 31.0007 24.7872C30.9717 24.1294 31.2205 23.9573 31.8407 23.9812C32.9739 24.0221 34.1122 24.0272 35.2488 23.9812C35.91 23.9505 36.0565 24.2044 36.0531 24.8162C36.0292 28.5088 36.0326 32.1997 36.0446 35.8923C36.039 36.6016 36.0823 37.3105 36.1741 38.0138C36.5507 40.6772 38.3263 42.141 40.9931 42.0302C43.6599 41.9195 45.3605 40.3484 45.4542 37.639C45.5547 34.6603 45.4985 31.6749 45.507 28.6945C45.507 27.3603 45.4832 26.0243 45.5292 24.6918C45.5377 24.4549 45.8291 24.034 46.0029 24.0272C47.4701 23.9744 48.944 23.9982 50.4743 23.9982ZM19.7047 28.2583C15.8519 28.2498 13.1067 31.0699 13.0811 35.0625C13.0556 39.055 15.9115 42.0694 19.7507 42.0609C23.5421 42.0524 26.3623 39.1198 26.3589 35.1886C26.3538 31.2182 23.52 28.2668 19.7047 28.2583Z" fill="white"/>
<path d="M62.7261 46.235H57.7844V45.2041C57.7844 41.4552 57.7844 37.7064 57.7844 33.9575C57.7844 33.5042 57.7844 33.0476 57.7401 32.5943C57.4879 30.1439 56.0975 28.8062 53.6505 28.6409C53.4238 28.6256 53.1955 28.6205 52.9689 28.6188C51.0365 28.5983 51.0365 28.5983 51.0365 26.6217V24.035C54.54 23.9021 57.873 23.9293 60.4904 26.591C61.9047 28.0288 62.7087 29.9574 62.7346 31.974C62.8522 36.5987 62.8096 41.2269 62.8266 45.8533C62.8066 45.9837 62.7729 46.1116 62.7261 46.235Z" fill="white"/>
<path d="M57.5375 23.9951H58.9007C62.1605 23.9951 65.4203 24.0121 68.6784 23.9814C69.36 23.9814 69.6497 24.1314 69.6071 24.8692C69.5491 25.8917 69.5747 26.9141 69.6071 27.9365C69.619 28.4477 69.452 28.6454 68.9255 28.6385C67.0255 28.6181 65.1272 28.6488 63.2289 28.613C62.9529 28.613 62.5473 28.4068 62.4331 28.1802C61.9841 27.2425 61.3436 26.4093 60.5529 25.7343C59.7623 25.0593 58.839 24.5574 57.8425 24.2609C57.7846 24.2439 57.7334 24.1689 57.5375 23.9951Z" fill="white"/>
<path d="M78.0896 37.9791L75.4228 44.7952L75.2984 45.1122C74.8196 46.3527 74.2044 46.6833 72.9247 46.351C72.833 46.3266 72.7471 46.2838 72.6724 46.2252C72.5977 46.1667 72.5357 46.0935 72.4902 46.0102C71.4456 43.3826 70.4215 40.7465 69.3428 37.986C70.1693 37.986 70.8765 37.9382 71.5683 38.0149C71.7796 38.0388 72.0369 38.3762 72.1255 38.6233C72.6623 40.1177 73.1581 41.6257 73.7307 43.3178C74.2419 41.8098 74.7531 40.4755 75.1382 39.1072C75.3853 38.2245 75.8045 37.819 76.7383 37.9706C77.12 38.0303 77.5205 37.9791 78.0896 37.9791Z" fill="white"/>
<path d="M64.7284 40.1614L63.7844 40.0148V38.0739L64.6977 37.9189V35.9678H67.1413V37.9513H69.0498V40.0438H67.1975C67.1975 41.3116 67.16 42.4959 67.2333 43.6717C67.2469 43.8813 67.7002 44.1624 67.9899 44.2238C68.2796 44.2851 68.6442 44.1283 69.0737 44.0534C69.0737 44.5987 69.106 45.1065 69.0566 45.6057C69.0346 45.7113 68.9909 45.8112 68.9285 45.8992C68.866 45.9872 68.7861 46.0613 68.6937 46.1169C66.8192 47.2229 64.7625 46.0709 64.7318 43.9017C64.7148 42.6765 64.7284 41.4581 64.7284 40.1614Z" fill="white"/>
<path d="M19.7045 28.2578C23.5198 28.2578 26.3502 31.2177 26.3588 35.1881C26.3588 39.1193 23.542 42.0519 19.7505 42.0604C15.9114 42.0604 13.0571 39.075 13.081 35.062C13.1048 31.049 15.8517 28.2493 19.7045 28.2578Z" fill="#793E98"/>
</svg>
