<svg width="85" height="68" viewBox="0 0 85 68" fill="none" xmlns="http://www.w3.org/2000/svg">
<path d="M64.2223 30.2223V20.7778H66.1112V0H0V20.7778H1.88887V37.7778H18.8889V47.2223H17.0001V68H83.111V51H85V30.2223H64.2223Z" fill="#E9DC01"/>
<path d="M75.1123 60.4404H71.9629L66.6192 46.9798V60.4404H63.0565V37.7832H66.2374L71.5495 51.2437V37.7832H75.1123V60.4404Z" fill="#141414"/>
<path d="M52.8437 21.373V30.2512H49.2812V21.373L44.8914 7.59375H48.8359L51.0621 16.5675L53.3206 7.59375H57.2332L52.8437 21.373Z" fill="#141414"/>
<path d="M55.7813 40.9972H49.833V47.4253H54.9545V50.6396H49.833V57.2263H55.7813V60.4404H46.2705V37.7832H55.7813V40.9972Z" fill="#141414"/>
<path d="M35.5503 30.2512L32.9418 22.1047L30.3335 30.2512H26.4209L30.9061 18.509L26.7708 7.59375H30.6833L32.9418 15.1674L35.2004 7.59375H39.1127L34.8823 18.509L39.4626 30.2512H35.5503Z" fill="#141414"/>
<path d="M31.2212 56.6209C31.5393 57.1302 32.0483 57.4802 32.9072 57.4802C34.4658 57.4802 35.1337 56.1434 35.1337 54.5844V51.0522H32.9072V48.124H38.6965V54.393C38.6965 58.5302 36.3107 60.6943 32.9072 60.6943C30.8077 60.6943 29.4398 59.8669 28.5176 58.7532C27.0225 56.9707 26.8632 54.4888 26.8632 49.1111C26.8632 43.7329 27.0225 41.2509 28.5176 39.4689C29.4398 38.3548 30.8076 37.5273 32.9072 37.5273C34.6567 37.5273 35.9928 38.0999 36.947 39.0545C38.0604 40.2003 38.6329 41.8552 38.6965 43.7963H35.1337C35.1021 42.5553 34.8476 40.7415 32.9072 40.7415C32.0483 40.7415 31.5393 41.0917 31.2212 41.6007C30.5215 42.6825 30.4262 44.9739 30.4262 49.1111C30.4262 53.2478 30.5215 55.5391 31.2212 56.6209Z" fill="#141414"/>
<path d="M14.8966 10.5543C14.0378 10.5543 13.5288 10.9045 13.2105 11.4132C12.5428 12.4952 12.4155 14.7865 12.4155 18.9236C12.4155 23.0602 12.5427 25.3515 13.2105 26.4336C13.5288 26.9428 14.0378 27.2925 14.8966 27.2925C15.7554 27.2925 16.2964 26.9428 16.6143 26.4336C17.2821 25.3516 17.3776 23.0602 17.3776 18.9236C17.3776 14.7865 17.2821 12.4952 16.6143 11.4132C16.2964 10.9045 15.7553 10.5543 14.8966 10.5543ZM19.2862 28.5658C18.3637 29.6794 16.9959 30.5067 14.8965 30.5067C12.797 30.5067 11.4292 29.6793 10.5069 28.5658C9.01178 26.7515 8.85266 24.3012 8.85266 18.9236C8.85266 13.5454 9.01178 11.0951 10.5069 9.2815C11.4292 8.16723 12.7969 7.33984 14.8965 7.33984C16.9958 7.33984 18.3637 8.16723 19.2862 9.2815C20.8129 11.0635 20.9402 13.5454 20.9402 18.9236C20.9402 24.3012 20.8129 26.7832 19.2862 28.5658Z" fill="#141414"/>
</svg>
