<svg width="65" height="67" viewBox="0 0 65 67" fill="none" xmlns="http://www.w3.org/2000/svg">
<path d="M38.5067 66.0141H38.4883C38.3779 65.9773 38.286 65.9221 38.1756 65.8853C37.3481 65.7014 36.8699 65.0578 36.8699 64.1383C36.8699 63.2188 37.3665 62.5751 38.194 62.3912C39.2055 62.1705 40.1434 62.6119 40.3825 63.4946C40.7135 64.6348 40.2537 65.6647 39.0951 65.8853C39.0032 65.9037 38.9296 65.9589 38.8377 65.9773H38.8193L38.5067 66.0141ZM38.6556 65.3704C39.3545 65.3704 39.8142 64.9107 39.8308 64.1751C39.851 63.4027 39.3912 62.9245 38.6906 62.9061C37.9899 62.8877 37.5154 63.4027 37.5154 64.1383C37.5154 64.8739 37.955 65.3704 38.6593 65.3704H38.6556Z" fill="#1967A1"/>
<path d="M53.9544 47.2192C53.9479 47.2276 53.9395 47.2344 53.93 47.239C53.9204 47.2437 53.9099 47.2461 53.8993 47.2461C53.8886 47.2461 53.8781 47.2437 53.8685 47.239C53.859 47.2344 53.8506 47.2276 53.8441 47.2192C53.5315 46.6307 53.2188 46.079 52.943 45.5089C52.6303 44.8836 52.2993 44.2583 51.7862 43.7802C51.492 43.5043 51.161 43.2653 50.8667 42.9894C50.7261 42.8714 50.6179 42.7195 50.5522 42.548C50.2764 41.6469 50.0392 40.709 49.7247 39.8263C49.4625 39.1538 49.1623 38.4968 48.8254 37.8585C47.8323 35.7988 46.8209 33.7575 45.8278 31.6978C45.7175 31.4612 45.5197 31.2766 45.2761 31.1829C44.0072 30.6312 42.7382 30.0611 41.4877 29.491C41.3429 29.4236 41.2213 29.3148 41.1383 29.1784C40.4946 28.0749 39.851 26.9715 39.2625 25.8313C38.9866 25.298 38.8395 24.6911 38.6372 24.1026C38.2326 22.8889 37.8832 21.6567 37.4051 20.4798C37.0924 19.6706 36.5959 18.935 36.2097 18.1442C36.0355 17.8019 35.7758 17.5105 35.4557 17.2983C34.7385 16.8017 34.0213 16.2868 33.3224 15.7719C33.065 15.5696 32.8995 15.6248 32.642 15.9558L32.6236 15.9742C31.8144 16.3971 31.2627 17.0592 30.7846 17.7764C30.1961 18.6591 29.5708 19.5051 28.9456 20.351L28.9272 20.3694C28.057 21.0634 27.3215 21.9112 26.7571 22.8705C26.2606 23.6981 25.7254 24.5072 25.2124 25.3164C24.9549 25.7026 24.5503 26.0888 23.9802 25.6842C23.9649 25.6773 23.9478 25.6754 23.9313 25.6787C23.9148 25.682 23.8998 25.6904 23.8883 25.7026C22.8584 27.983 21.2952 29.914 19.8976 31.9369C19.7178 32.2065 19.452 32.4075 19.1436 32.507C18.9129 32.5844 18.7046 32.717 18.5367 32.8932C15.5391 36.3321 12.5415 39.7895 9.54389 43.2285C9.37837 43.4308 9.19447 43.6147 9.01057 43.817C8.97379 43.8537 8.93701 43.8354 8.91862 43.7986C4.94633 35.854 5.07506 22.282 15.5943 13.234C20.6628 8.86765 27.2333 6.64811 33.9114 7.04639C40.5895 7.44467 46.8496 10.4294 51.3632 15.3673C60.6908 25.6106 59.4218 39.3665 53.9544 47.2192Z" fill="#1967A1"/>
<path d="M33.7657 18.1074C34.3542 18.7143 34.9426 19.3212 35.5127 19.9464C35.6599 20.112 35.6966 20.3878 35.7886 20.6085C36.3771 22.3556 36.9472 24.1026 37.5724 25.8497C37.768 26.3016 38.0083 26.7329 38.2897 27.137C38.8782 28.1485 39.5402 29.1416 40.0735 30.1898C40.4781 30.9806 40.7356 31.8449 41.0482 32.6909C41.2505 33.2058 41.508 33.261 41.8574 32.8196C42.1148 32.4886 42.3723 32.3966 42.7585 32.5805C43.1052 32.7351 43.4696 32.8463 43.8435 32.9116C43.9753 32.9386 44.0981 32.9982 44.2009 33.0849C44.3037 33.1717 44.3832 33.2828 44.432 33.4081C45.8848 36.6264 47.356 39.8631 48.8273 43.0813C48.9077 43.2495 49.0131 43.4045 49.1399 43.5411C49.3127 43.7539 49.5102 43.9453 49.7284 44.1112C50.8704 44.9755 51.3467 46.2812 51.9352 47.495C51.9554 47.5134 51.9554 47.5502 51.9554 47.5869C51.9554 47.6237 51.9352 47.6605 51.9003 47.6605C51.5508 47.6973 51.3302 47.7525 50.6313 46.9801C50.6129 46.9617 50.5946 46.9617 50.5578 46.9617C48.4981 47.7157 48.1303 47.8812 47.7625 47.4398C46.8062 46.2261 45.8315 45.0307 44.8752 43.8353C44.8332 43.7732 44.7763 43.7227 44.7097 43.6882C44.701 43.6794 44.6896 43.6738 44.6773 43.6722C44.6651 43.6707 44.6526 43.6733 44.642 43.6796C44.6314 43.686 44.6233 43.6958 44.6188 43.7073C44.6144 43.7189 44.6141 43.7316 44.6177 43.7434C44.82 45.6928 45.7579 47.3479 46.7859 49.0214C46.7915 49.0307 46.7945 49.0413 46.7946 49.0522C46.7947 49.063 46.7919 49.0737 46.7864 49.0831C46.781 49.0925 46.7731 49.1003 46.7637 49.1056C46.7542 49.1109 46.7435 49.1136 46.7326 49.1133C46.602 49.1133 46.5101 49.1317 46.4181 49.1317H40.4413C38.6759 48.4881 36.9122 47.826 35.1449 47.1824C35.0367 47.1445 34.9261 47.1138 34.8139 47.0904C34.8036 47.0865 34.7925 47.0856 34.7817 47.0879C34.7709 47.0902 34.7611 47.0956 34.7533 47.1034C34.7455 47.1112 34.7402 47.121 34.7379 47.1318C34.7356 47.1425 34.7364 47.1537 34.7404 47.164C34.9243 47.6605 35.0898 48.1019 35.2737 48.58C35.2921 48.6168 35.2553 48.6536 35.2185 48.672C35.1273 48.6867 35.035 48.6928 34.9426 48.6904C33.8576 48.6904 32.7726 48.7087 31.6692 48.672C31.6508 48.672 31.6324 48.672 31.6324 48.6536C30.86 47.8628 30.1428 47.0352 29.3888 46.2261C29.314 46.1657 29.2636 46.0804 29.2467 45.9858C29.2298 45.8912 29.2476 45.7937 29.2968 45.7111C29.8853 44.4054 30.4554 43.0997 31.0439 41.794C31.0732 41.7498 31.0931 41.7001 31.1024 41.6479C31.1118 41.5957 31.1104 41.5421 31.0983 41.4905C31.0863 41.4388 31.0638 41.3902 31.0323 41.3475C31.0009 41.3048 30.961 41.269 30.9152 41.2423C30.437 40.8561 30.437 40.8377 30.6596 40.2492C31.8181 37.0861 32.9933 33.9414 34.1721 30.7783C34.264 30.5208 34.2273 30.3921 34.0066 30.245C33.4365 29.8956 32.8664 29.5094 32.2963 29.1599C32.0756 29.0312 32.0756 28.9025 32.1492 28.6818C32.6641 27.2841 33.179 25.8681 33.6939 24.452V24.4337C33.7123 22.4659 33.6939 20.5165 33.6939 18.5488V18.1258C33.7105 18.1442 33.7105 18.1442 33.7657 18.1074Z" fill="#1967A1"/>
<path d="M33.5653 53.4535C33.4733 53.7294 33.3813 53.9317 33.3078 54.134C33.363 54.1707 33.3446 54.1707 33.3997 54.2075C33.4733 54.1523 33.5285 54.0788 33.602 54.0236C34.025 53.6374 34.5032 53.3248 35.0916 53.288C35.625 53.2696 35.8272 53.4719 35.8456 53.9868C35.8456 54.042 35.864 54.0972 35.864 54.1891C35.8629 54.2003 35.8654 54.2115 35.8712 54.2211C35.877 54.2306 35.8857 54.2381 35.8961 54.2422C35.9065 54.2464 35.918 54.247 35.9288 54.2441C35.9396 54.2411 35.9491 54.2348 35.956 54.2259C36.0663 54.134 36.1399 54.0788 36.2318 54.0052C36.71 53.6006 37.2249 53.3064 37.8686 53.288C38.4754 53.2696 38.8249 53.6742 38.641 54.2259C38.3835 54.9983 38.0525 55.7523 37.7214 56.5063C37.5375 56.9477 37.3169 57.3706 37.133 57.8304C37.1026 57.9706 37.109 58.1163 37.1513 58.2534C37.1513 58.2901 37.1881 58.3085 37.2249 58.3085C37.3695 58.3142 37.5137 58.2892 37.6479 58.235C38.2288 57.8246 38.6714 57.2474 38.9168 56.5799C39.1927 55.8442 39.4869 55.1086 40.0018 54.5018C40.6455 53.711 41.473 53.2328 42.5213 53.3064C42.8257 53.3067 43.1209 53.4107 43.3582 53.6012C43.5956 53.7918 43.7609 54.0575 43.827 54.3546C43.9925 54.9799 44.4155 55.1454 44.9672 54.796C45.3283 54.5443 45.5991 54.1833 45.7396 53.7662C45.8499 53.4719 45.997 53.3432 46.3281 53.38C46.6155 53.4076 46.905 53.4076 47.1924 53.38C47.203 53.3804 47.2133 53.3835 47.2224 53.389C47.2316 53.3944 47.2392 53.402 47.2446 53.4111C47.2501 53.4202 47.2532 53.4306 47.2537 53.4412C47.2543 53.4518 47.2521 53.4623 47.2476 53.4719C47.2108 53.5639 47.174 53.6558 47.1372 53.7294C46.5671 54.9983 45.9787 56.2488 45.4086 57.5178C45.326 57.6858 45.2701 57.8658 45.243 58.0511C45.1879 58.3453 45.3902 58.5108 45.6476 58.3637C45.9052 58.2214 46.1356 58.0346 46.3281 57.812C46.9533 57.1132 47.3579 56.2672 47.7257 55.4213C48.0016 54.7592 48.3142 54.0972 48.5901 53.4167C48.6085 53.3984 48.6268 53.38 48.6452 53.38C49.0314 53.4167 49.4176 53.3984 49.859 53.3984C49.8958 53.3984 49.9325 53.4351 49.9142 53.4719C49.859 53.619 49.8222 53.7478 49.767 53.8765C49.1969 55.1822 48.6268 56.4879 48.0751 57.7936C48.032 57.9557 48.0257 58.1253 48.0567 58.2902C48.0567 58.3269 48.0935 58.3637 48.1303 58.3453C48.3076 58.3355 48.4791 58.2783 48.6268 58.1798C49.3808 57.4994 49.859 56.5982 50.282 55.6787C50.5946 55.0167 50.8704 54.3363 51.1831 53.6742C51.2199 53.5823 51.3302 53.4535 51.4222 53.4535C51.7532 53.4351 52.0842 53.4351 52.452 53.4351C52.4888 53.4351 52.5256 53.4719 52.5072 53.5087C52.4336 53.7294 52.3784 53.9133 52.3049 54.0972C52.339 54.117 52.37 54.1418 52.3968 54.1707C52.4503 54.1176 52.5125 54.0741 52.5807 54.042C52.9853 53.8029 53.3899 53.4903 53.8313 53.3616C54.6588 53.1225 55.1922 53.7294 54.8979 54.5385C54.6588 55.219 54.3278 55.8626 54.0336 56.5247C53.8313 56.9661 53.6106 57.4074 53.4267 57.8672C53.3964 58.0074 53.4027 58.1531 53.4451 58.2902C53.446 58.3045 53.452 58.318 53.4622 58.3282C53.4724 58.3384 53.4859 58.3444 53.5003 58.3453C53.6474 58.3269 53.8313 58.3453 53.9232 58.2718C54.2216 58.0194 54.4984 57.7426 54.7508 57.4442C55.4312 56.5615 55.8542 55.5316 56.2956 54.5385C56.3875 54.3363 56.4795 54.134 56.5898 53.8765C56.6082 53.8397 56.5898 53.8029 56.5346 53.7845C56.3822 53.7639 56.2287 53.7516 56.0749 53.7478C56.0605 53.7469 56.047 53.7408 56.0368 53.7306C56.0267 53.7205 56.0206 53.7069 56.0197 53.6926C56.0164 53.6535 56.023 53.6143 56.0389 53.5784C56.0548 53.5426 56.0794 53.5113 56.1106 53.4875C56.1417 53.4636 56.1784 53.448 56.2171 53.4421C56.2559 53.4362 56.2955 53.4401 56.3323 53.4535C56.7001 53.5087 56.8657 53.3248 56.9944 52.9938C57.1783 52.5156 57.399 52.0743 57.6013 51.6145C57.6245 51.5377 57.6742 51.4715 57.7415 51.4278C57.8088 51.384 57.8894 51.3655 57.9691 51.3754C58.2817 51.3938 58.5943 51.3754 58.9622 51.3754C58.9728 51.3759 58.9831 51.379 58.9922 51.3845C59.0013 51.3899 59.0089 51.3975 59.0144 51.4066C59.0199 51.4157 59.023 51.426 59.0235 51.4366C59.024 51.4472 59.0219 51.4578 59.0173 51.4674C58.7415 52.111 58.484 52.6995 58.2081 53.3616C58.2048 53.3712 58.2036 53.3815 58.2047 53.3917C58.2057 53.4019 58.209 53.4117 58.2142 53.4204C58.2195 53.4292 58.2266 53.4367 58.2351 53.4424C58.2436 53.4482 58.2532 53.4519 58.2633 53.4535C58.5208 53.4719 58.7415 53.4719 58.9805 53.4903C58.9949 53.4912 59.0084 53.4973 59.0186 53.5074C59.0287 53.5176 59.0348 53.5311 59.0357 53.5455C59.0357 53.7294 58.9438 53.8213 58.7599 53.7845C58.1162 53.6558 57.8771 54.0052 57.6564 54.5385C57.25 55.5684 56.7553 56.5799 56.3305 57.6097C56.1892 57.9773 56.0904 58.3598 56.0363 58.7499C55.9627 59.32 56.3121 59.5959 56.8638 59.412C57.3604 59.2464 57.6914 58.8602 58.0408 58.4924C58.1695 58.3453 58.2983 58.1798 58.4638 57.9775C58.4716 57.97 58.4811 57.9644 58.4915 57.9613C58.5019 57.9581 58.5128 57.9573 58.5235 57.9591C58.5343 57.9609 58.5444 57.9651 58.5532 57.9715C58.562 57.9779 58.5691 57.9863 58.5741 57.9959C58.5967 58.0608 58.603 58.1303 58.5925 58.1982C58.0408 58.9522 57.4707 59.6878 56.496 59.9269C55.4846 60.2027 54.8225 59.6878 54.8593 58.658C54.8593 58.4557 54.8979 58.2534 54.8777 58.0327C54.8762 58.0206 54.8713 58.0092 54.8636 57.9997C54.8559 57.9903 54.8457 57.9833 54.8341 57.9794C54.8226 57.9756 54.8102 57.9751 54.7983 57.978C54.7865 57.9809 54.7758 57.9871 54.7673 57.9959C54.6938 58.0695 54.6221 58.1614 54.5467 58.235C54.1784 58.6562 53.7105 58.9786 53.1858 59.1729C52.3582 59.4487 51.7697 58.9522 52.0456 58.1246C52.3214 57.2971 52.7076 56.5063 53.057 55.7155C53.2226 55.3293 53.4249 54.9431 53.572 54.5385C53.601 54.4664 53.6112 54.3879 53.6016 54.3107C53.5919 54.2335 53.5627 54.16 53.5168 54.0972C53.4489 54.061 53.3731 54.042 53.2961 54.042C53.2192 54.042 53.1434 54.061 53.0754 54.0972C52.7812 54.3179 52.4502 54.5385 52.2847 54.8512C51.8433 55.5868 51.4755 56.3592 51.0893 57.15C50.8134 57.7201 50.556 58.3269 50.3004 58.9154C50.2806 58.9944 50.2317 59.063 50.1635 59.1073C50.0952 59.1517 50.0127 59.1685 49.9325 59.1545C49.6181 59.1361 49.2889 59.1545 48.9211 59.1545C48.9105 59.154 48.9002 59.1509 48.8911 59.1455C48.8819 59.14 48.8743 59.1324 48.8688 59.1233C48.8634 59.1142 48.8603 59.1039 48.8597 59.0933C48.8592 59.0827 48.8614 59.0721 48.8659 59.0625C48.9763 58.7867 49.0682 58.566 49.1602 58.3453C49.105 58.3085 49.1234 58.3085 49.0682 58.2718C48.9796 58.342 48.8994 58.4222 48.8291 58.5108C48.4429 58.897 48.0384 59.2464 47.4499 59.2464C46.9533 59.2464 46.7327 59.0441 46.7143 58.5292V57.8672L46.6039 57.8304C46.5304 57.9223 46.5487 58.1062 46.4568 58.1798C46.089 58.4924 45.7212 58.7867 45.3534 59.0809C45.2407 59.1518 45.1161 59.2016 44.9856 59.2281C44.158 59.412 43.6431 58.897 43.9006 58.0879C44.1396 57.3522 44.489 56.6534 44.7833 55.9362L45.0591 55.3293C45.0625 55.3197 45.0637 55.3094 45.0626 55.2992C45.0616 55.289 45.0583 55.2792 45.053 55.2705C45.0478 55.2617 45.0407 55.2542 45.0322 55.2485C45.0237 55.2427 45.0141 55.239 45.004 55.2374C44.6851 55.2247 44.3658 55.2309 44.0477 55.2558C43.9741 55.2558 43.8822 55.4397 43.8638 55.55C43.6917 56.4693 43.3006 57.3335 42.7236 58.0695C42.0615 58.897 41.2156 59.3568 40.1306 59.2648C39.3766 59.2097 38.9168 58.7683 38.8249 58.0143C38.8065 57.8856 38.7881 57.7568 38.7697 57.6465C38.7349 57.6315 38.6971 57.6252 38.6593 57.6281C38.6023 57.7507 38.534 57.8676 38.4552 57.9775C38.0506 58.3637 37.6277 58.7499 37.1881 59.0993C37.0213 59.2006 36.8314 59.2575 36.6364 59.2648C35.864 59.32 35.5128 58.897 35.7353 58.1614C35.9273 57.608 36.1546 57.0675 36.4157 56.5431C36.6714 55.9546 36.9674 55.3845 37.2231 54.796C37.315 54.5937 37.464 54.3363 37.2231 54.1707C37.1179 54.1059 36.9915 54.085 36.8711 54.1126C36.7507 54.1401 36.646 54.2138 36.5794 54.3179C36.2484 54.6857 35.864 55.0535 35.6415 55.4764C35.1082 56.5431 34.63 57.6465 34.1519 58.7499C34.0048 59.0809 33.8393 59.2648 33.4531 59.2097C33.1902 59.182 32.9252 59.182 32.6623 59.2097C32.6255 59.2097 32.5887 59.1729 32.6071 59.1361C32.6356 59.0207 32.6789 58.9094 32.7359 58.8051L34.4461 54.9431C34.4461 54.9247 34.4645 54.9063 34.4829 54.888C34.5565 54.6489 34.7588 54.373 34.5013 54.2259C34.3542 54.1523 34.0232 54.2811 33.8393 54.4098C33.214 54.888 32.8462 55.5684 32.5336 56.2672C32.129 57.1683 31.7428 58.0695 31.3566 58.9706C31.3352 59.0548 31.2846 59.1286 31.2139 59.1791C31.1432 59.2296 31.057 59.2535 30.9704 59.2464C30.6578 59.228 30.3635 59.2464 29.9957 59.2464C29.9851 59.246 29.9748 59.2429 29.9657 59.2374C29.9566 59.232 29.9489 59.2244 29.9435 59.2153C29.938 59.2062 29.9349 59.1958 29.9344 59.1852C29.9339 59.1746 29.936 59.1641 29.9405 59.1545C30.0509 58.897 30.1244 58.6763 30.2164 58.4373C30.1612 58.4005 30.1796 58.4005 30.1244 58.3637C29.9405 58.5292 29.775 58.7131 29.5911 58.8786C29.4559 59.0136 29.2953 59.1205 29.1185 59.1931C28.9417 59.2657 28.7524 59.3026 28.5613 59.3016C28.1015 59.2832 27.8441 59.0625 27.8073 58.5844C27.8073 58.4924 27.7889 58.3821 27.7889 58.2534C27.7874 58.2413 27.7825 58.2299 27.7748 58.2204C27.7671 58.211 27.7569 58.2039 27.7453 58.2001C27.7338 58.1962 27.7214 58.1957 27.7096 58.1987C27.6977 58.2016 27.687 58.2078 27.6785 58.2166C27.5314 58.3453 27.4395 58.4557 27.3291 58.5476C26.9062 58.9522 26.4648 59.32 25.8211 59.3016C25.2143 59.2832 24.8832 58.9522 24.8648 58.3453C24.8281 57.4442 25.2143 56.6902 25.6556 55.9546C25.7462 55.8136 25.8261 55.6661 25.8947 55.5132C25.8986 55.503 25.8995 55.4918 25.8972 55.481C25.8949 55.4703 25.8895 55.4604 25.8817 55.4526C25.8739 55.4449 25.8641 55.4395 25.8533 55.4372C25.8426 55.4349 25.8314 55.4358 25.8211 55.4397C25.6954 55.5073 25.5582 55.5509 25.4165 55.5684C25.1775 55.5868 24.8832 55.6052 24.7177 55.4948C24.497 55.3477 24.6074 55.0535 24.6993 54.8328C24.7346 54.7377 24.7593 54.639 24.7729 54.5385C24.7729 54.5202 24.7729 54.4834 24.7545 54.4834L24.6258 54.3546C24.616 54.3457 24.6032 54.3408 24.5899 54.3408C24.5766 54.3408 24.5639 54.3457 24.554 54.3546C24.4258 54.4145 24.3126 54.5025 24.223 54.6121C23.8962 55.0658 23.6071 55.5456 23.3587 56.0465C22.9173 56.9661 22.5311 57.904 22.1265 58.8419C22.0346 59.0441 21.9426 59.1361 21.7219 59.1177C21.4277 59.0993 21.1335 59.1177 20.784 59.1177C20.7734 59.1172 20.7631 59.1141 20.754 59.1087C20.7449 59.1032 20.7373 59.0956 20.7318 59.0865C20.7263 59.0774 20.7232 59.0671 20.7227 59.0565C20.7222 59.0459 20.7243 59.0353 20.7289 59.0258C20.8208 58.7867 20.9128 58.566 20.9845 58.3453C21.0047 58.3085 20.9845 58.2901 20.9661 58.2718L20.9477 58.2534C20.9376 58.2443 20.9245 58.2393 20.9109 58.2393C20.8974 58.2393 20.8843 58.2443 20.8742 58.2534C20.8022 58.3161 20.7346 58.3837 20.6719 58.4557C20.3041 58.8051 19.9179 59.1177 19.3846 59.1729C18.7961 59.228 18.557 59.0074 18.5386 58.4189C18.5408 58.357 18.5346 58.2952 18.5202 58.235C18.5202 58.1798 18.465 58.1614 18.4099 58.1982C18.3179 58.2902 18.2444 58.3453 18.1708 58.4189C17.7294 58.8602 17.2329 59.2097 16.5708 59.1729C15.9824 59.1361 15.6513 58.8235 15.6329 58.2166C15.5962 57.4074 15.9088 56.7086 16.3134 56.0282C17.0306 54.7776 18.0053 53.8029 19.4397 53.3984C20.0863 53.242 20.7609 53.242 21.4075 53.3984C21.7017 53.4535 21.7753 53.5823 21.6465 53.8765C21.0948 55.0903 20.5799 56.304 20.0466 57.4994C19.9812 57.6405 19.9318 57.7886 19.8995 57.9407C19.8811 58.0695 19.8995 58.2901 19.9914 58.3453C20.0586 58.3679 20.13 58.3747 20.2002 58.3651C20.2704 58.3555 20.3374 58.3299 20.396 58.2902C20.6933 58.0672 20.9486 57.7932 21.15 57.481C21.6649 56.5615 22.1247 55.6236 22.6028 54.7041C22.7867 54.3546 22.9155 53.9868 23.0994 53.6374C23.1545 53.5455 23.2465 53.4167 23.3384 53.4167C23.6511 53.3984 23.9453 53.3984 24.2947 53.3984C24.3053 53.3988 24.3157 53.4019 24.3248 53.4074C24.3339 53.4128 24.3415 53.4204 24.347 53.4295C24.3524 53.4386 24.3556 53.4489 24.3561 53.4595C24.3566 53.4701 24.3545 53.4807 24.3499 53.4903C24.2764 53.6926 24.2028 53.8765 24.1292 54.0604C24.1108 54.0972 24.1292 54.1156 24.1476 54.134L24.166 54.1524C24.2028 54.1707 24.2396 54.1707 24.258 54.134C24.258 54.1291 24.2599 54.1244 24.2633 54.121C24.2668 54.1175 24.2715 54.1156 24.2764 54.1156C24.6809 53.8581 25.0671 53.5639 25.4717 53.3616C25.5503 53.3332 25.6343 53.3234 25.7173 53.333C25.8002 53.3426 25.8798 53.3712 25.9499 53.4167C26.0418 53.5087 26.0234 53.7478 25.9683 53.8949C25.8947 54.134 25.7292 54.3546 25.6372 54.6121C25.6122 54.7018 25.606 54.7957 25.6188 54.888C25.6179 54.8954 25.6188 54.903 25.6212 54.9101C25.6237 54.9172 25.6277 54.9236 25.633 54.9289C25.6383 54.9342 25.6448 54.9383 25.6519 54.9407C25.659 54.9432 25.6665 54.944 25.674 54.9431C25.766 54.9431 25.8763 54.9799 25.9499 54.9247C26.2556 54.7628 26.545 54.5719 26.8142 54.3546C27.8808 53.4903 29.0762 53.1225 30.4555 53.3984C30.8784 53.5271 30.9336 53.5455 30.7681 53.8949C30.4187 54.7041 30.0509 55.5132 29.7015 56.3224C29.4992 56.8005 29.2785 57.2787 29.0946 57.7752C29.067 57.9334 29.067 58.0952 29.0946 58.2534C29.0946 58.2901 29.1314 58.3085 29.1681 58.3085C29.3521 58.2718 29.5543 58.2718 29.6463 58.1614C30.0898 57.6988 30.4785 57.1866 30.8049 56.635C31.3198 55.6787 31.7428 54.6673 32.1841 53.6558C32.2945 53.4351 32.4048 53.3432 32.6439 53.3616C32.883 53.38 33.1588 53.3616 33.4531 53.3616C33.5413 53.38 33.5818 53.4167 33.5653 53.4535ZM39.8547 58.1982V58.235C39.9467 58.4005 40.0184 58.6396 40.1857 58.7499C40.4064 58.9154 40.6823 58.7683 40.8662 58.6028C41.0089 58.4713 41.1422 58.3299 41.2652 58.1798C41.8798 57.2884 42.3399 56.2999 42.6261 55.2558C42.7245 54.9201 42.7861 54.5748 42.81 54.2259C42.8284 53.7478 42.4422 53.5455 42.0376 53.8213C41.8793 53.9368 41.7371 54.0729 41.6147 54.2259C40.9723 55.0571 40.4863 55.998 40.1802 57.0028C40.0736 57.3706 39.9779 57.7384 39.8547 58.1982ZM20.2857 53.8029C20.2908 53.7934 20.2933 53.7827 20.293 53.7719C20.2927 53.7611 20.2897 53.7506 20.2841 53.7413C20.2786 53.7321 20.2707 53.7244 20.2613 53.7191C20.2519 53.7138 20.2413 53.711 20.2305 53.711C20.1386 53.711 20.0834 53.6926 20.0466 53.711C19.5373 53.7949 19.071 54.0475 18.7225 54.4282C18.0969 55.0921 17.5983 55.865 17.2513 56.7086C17.1135 57.0298 17.0028 57.362 16.9203 57.7017C16.8651 57.9223 16.8099 58.1798 17.049 58.3269C17.2881 58.474 17.5271 58.3821 17.711 58.235C17.9361 58.0835 18.1297 57.8899 18.2811 57.6649C18.7593 56.8189 19.219 55.973 19.6604 55.1086C19.9025 54.6903 20.1115 54.2538 20.2857 53.8029ZM29.4275 53.7845C29.4275 53.7478 29.4072 53.7294 29.3723 53.711C29.3175 53.7018 29.2616 53.7018 29.2068 53.711C28.6844 53.7964 28.209 54.0634 27.8643 54.465C27.2375 55.1208 26.7497 55.8965 26.4298 56.7454C26.275 57.1366 26.1634 57.5436 26.097 57.9591C26.0418 58.2901 26.3177 58.4924 26.6487 58.3637C26.8634 58.2834 27.0585 58.158 27.2206 57.9959C27.4342 57.788 27.6196 57.553 27.7723 57.2971C28.3424 56.1753 28.8757 55.0351 29.4275 53.8949V53.7845Z" fill="#1967A1"/>
<path d="M15.5795 49.2785C15.5898 49.2746 15.601 49.2738 15.6118 49.2761C15.6225 49.2784 15.6324 49.2837 15.6401 49.2915C15.6479 49.2993 15.6533 49.3091 15.6556 49.3199C15.6579 49.3306 15.657 49.3418 15.6531 49.3521L15.5979 49.4624C14.6214 50.8601 14.1617 52.4968 13.6835 54.0968C13.4077 55.0347 16.0007 52.9566 15.5225 55.7887C15.506 55.8622 15.5979 55.8806 15.6329 55.8255C18.3546 51.1543 18.3013 47.7522 14.8421 47.0349C11.9364 46.4464 9.28825 47.0717 7.15498 49.2234C6.55658 49.8023 6.12106 50.5286 5.89219 51.3291C5.66332 52.1297 5.64916 52.9764 5.85111 53.7841C5.91443 54.1177 6.06067 54.4299 6.27637 54.6921C6.49207 54.9543 6.77028 55.1579 7.08537 55.2844C7.40046 55.4108 7.74229 55.4558 8.07938 55.4154C8.41646 55.375 8.73796 55.2504 9.01423 55.0531C9.65789 54.6301 9.86018 53.968 9.89696 53.2324C9.91535 52.9934 9.93374 52.7911 10.2096 52.7543C10.5958 52.6991 10.7613 52.8279 10.7613 53.2324C10.7613 54.2439 10.0993 55.0715 8.99584 55.4025C8.20199 55.639 7.35466 55.6262 6.56833 55.3657C5.04194 54.9059 4.47185 53.5267 4.63736 52.1106C4.87643 50.1061 6.09019 48.8004 7.74531 47.8257C9.05996 47.0847 10.5203 46.6391 12.0247 46.52C13.5179 46.3502 15.0302 46.5071 16.4568 46.9798C17.3211 47.274 18.0935 47.7154 18.6452 48.4694C19.5463 49.7199 19.4176 51.375 18.3509 52.5704C17.5969 53.4163 16.6223 53.9313 15.5556 54.2807C14.9828 54.4584 14.3993 54.5997 13.8086 54.7037C13.7032 54.712 13.6034 54.754 13.5239 54.8236C13.4444 54.8932 13.3894 54.9866 13.3672 55.0899C12.5764 57.6645 11.1788 59.9265 8.38345 61.4161H8.36506C6.7835 61.6735 4.77896 62.1701 3.27097 61.177C2.35145 60.5885 2.13077 59.7242 2.2595 58.7863C2.27798 58.6333 2.35576 58.4936 2.47612 58.3973C2.59648 58.301 2.74981 58.2558 2.90316 58.2714C3.21579 58.3081 3.36292 58.5288 3.34453 58.915C3.31653 59.302 3.33506 59.691 3.3997 60.0736C3.62038 60.9747 4.41116 61.4896 5.51457 61.4896C7.02257 61.508 8.19954 60.8276 9.13745 59.6874C9.9834 58.6576 10.5351 57.4438 11.1052 56.2484C11.7672 54.8324 12.4293 53.3979 13.1465 52.0003C13.6447 51.0068 14.3614 50.1392 15.243 49.4624C15.335 49.3889 15.4269 49.3337 15.5005 49.2785C15.5189 49.2969 15.5409 49.2969 15.5795 49.2785Z" fill="#1967A1"/>
<path d="M19.3661 42.3094C19.311 42.3646 19.2374 42.3094 19.2742 42.2358C19.5684 41.5554 19.8627 40.9301 20.1385 40.2865C20.6718 39.0727 21.2052 37.8773 21.7569 36.6636C21.8672 36.4245 21.8856 36.259 21.6649 36.0935C21.5178 35.9832 21.5362 35.8728 21.6281 35.7257C22.4753 34.4384 23.3213 33.1511 24.166 31.8637C24.2028 31.8086 24.2395 31.735 24.2947 31.7166C24.9752 31.4408 25.2142 30.7603 25.674 30.2822C25.7943 30.128 25.9298 29.9863 26.0786 29.8592C26.0872 29.8504 26.0986 29.8448 26.1109 29.8432C26.1232 29.8417 26.1356 29.8443 26.1462 29.8506C26.1568 29.857 26.165 29.8667 26.1694 29.8783C26.1738 29.8899 26.1742 29.9026 26.1705 29.9144C26.1705 29.9328 26.1705 29.9512 26.1521 29.9512C26.0178 30.3086 25.8643 30.6585 25.6924 30.9994C25.1591 31.9189 25.1407 32.9304 25.0303 33.9418C25.0085 34.1915 24.9399 34.4348 24.828 34.6591C24.3315 35.6337 23.835 36.6084 23.3016 37.5647C23.2281 37.7118 23.0442 37.7854 22.8971 37.8957C22.7499 38.0061 22.5109 38.098 22.4005 38.2635C21.9921 38.8421 21.6176 39.4439 21.2787 40.0658C20.8208 40.9485 20.1017 41.6106 19.3661 42.3094Z" fill="#1967A1"/>
<path d="M34.5215 62.4279C34.5565 62.4279 34.5767 62.4647 34.5767 62.5015C34.2089 63.5681 33.8411 64.6348 33.4531 65.6646C33.4181 65.7566 33.2342 65.8301 33.1055 65.8669C33.0693 65.8795 33.0308 65.8841 32.9927 65.8804C32.9545 65.8768 32.9176 65.865 32.8845 65.8458C32.8513 65.8266 32.8227 65.8005 32.8005 65.7692C32.7784 65.7379 32.7632 65.7023 32.7561 65.6646C32.5906 65.1313 32.3883 64.5796 32.2044 64.0463C32.1676 63.9543 32.1308 63.8624 32.0756 63.7337C32.0724 63.7214 32.0653 63.7106 32.0553 63.7029C32.0453 63.6952 32.0331 63.691 32.0205 63.691C32.0078 63.691 31.9956 63.6952 31.9856 63.7029C31.9756 63.7106 31.9685 63.7214 31.9653 63.7337C31.936 63.8107 31.8991 63.8847 31.8549 63.9543C31.6508 64.5244 31.4669 65.0945 31.283 65.6646C31.2767 65.7025 31.2621 65.7385 31.2403 65.7701C31.2185 65.8017 31.19 65.8281 31.1568 65.8475C31.1236 65.8668 31.0865 65.8785 31.0483 65.8819C31.01 65.8853 30.9715 65.8801 30.9354 65.8669C30.8067 65.8301 30.6228 65.775 30.586 65.683C30.1998 64.6532 29.8504 63.6049 29.4826 62.5567V62.5015C29.4826 62.4831 29.501 62.4647 29.5194 62.4463C29.9589 62.2808 30.1079 62.3544 30.255 62.7774C30.4187 63.2923 30.586 63.7888 30.7515 64.3037C30.7865 64.3957 30.8067 64.4693 30.8619 64.598C30.8651 64.6102 30.8722 64.621 30.8822 64.6287C30.8922 64.6365 30.9044 64.6406 30.917 64.6406C30.9297 64.6406 30.9419 64.6365 30.9519 64.6287C30.9619 64.621 30.969 64.6102 30.9722 64.598C31.0232 64.51 31.0663 64.4177 31.1009 64.3221C31.2848 63.7704 31.4871 63.2003 31.6527 62.6486C31.7262 62.3912 31.8917 62.3728 32.2411 62.4096C32.2595 62.4096 32.2779 62.4279 32.2963 62.4463C32.4986 63.09 32.7009 63.7153 32.9216 64.3589C32.9541 64.4405 32.9909 64.5203 33.0319 64.598H33.1423C33.2158 64.3957 33.2894 64.2118 33.3629 64.0095C33.4917 63.6417 33.602 63.2555 33.7307 62.8877C33.8944 62.3728 33.933 62.336 34.5215 62.4279Z" fill="#1967A1"/>
<path d="M25.5655 39.293C25.5729 39.2921 25.5805 39.2929 25.5876 39.2954C25.5947 39.2978 25.6011 39.3018 25.6065 39.3072C25.6118 39.3125 25.6158 39.3189 25.6183 39.326C25.6207 39.3331 25.6215 39.3407 25.6206 39.3481C25.6574 39.5136 25.731 39.6792 25.6758 39.8079C25.0506 41.2239 24.8299 42.7503 24.4621 44.2215C24.4621 44.2241 24.4616 44.2267 24.4605 44.229C24.4595 44.2314 24.458 44.2335 24.456 44.2352C24.4541 44.237 24.4519 44.2383 24.4494 44.2391C24.447 44.2399 24.4444 44.2402 24.4418 44.2399C24.0023 44.81 23.5223 45.3801 23.0442 45.9134C22.9097 46.0146 22.761 46.0952 22.6028 46.1525C22.5679 46.1157 22.5476 46.1157 22.5109 46.079C22.623 45.564 22.7683 45.0491 22.8437 44.5342C22.9706 43.6514 23.4506 42.9526 23.8552 42.1986C24.2947 41.3895 24.7545 40.5803 25.1977 39.7527C25.2896 39.5872 25.3816 39.4401 25.4735 39.2746C25.4919 39.2562 25.5103 39.2378 25.5287 39.2378C25.5452 39.293 25.5453 39.293 25.5655 39.293Z" fill="#1967A1"/>
<path d="M14.9893 64.506V62.7773C14.9709 62.5382 15.0077 62.3911 15.3019 62.3911C15.5962 62.3911 15.6146 62.5198 15.6146 62.7589V65.4806C15.6146 65.6094 15.5778 65.8301 15.4858 65.8668C15.3869 65.913 15.2745 65.9217 15.1697 65.8912C15.0648 65.8608 14.9746 65.7933 14.9157 65.7013C14.5295 65.1312 14.125 64.5795 13.7204 64.0094C13.6652 63.9175 13.5733 63.8439 13.5181 63.752L13.4077 63.7887V65.6462C13.4077 65.9036 13.2238 65.8668 13.0583 65.8852C12.8928 65.9036 12.7825 65.8852 12.7825 65.6645V62.483C12.7825 62.4646 12.8009 62.4279 12.8193 62.4279C13.1135 62.3359 13.3342 62.3727 13.5181 62.6669C13.8859 63.2186 14.2905 63.752 14.6785 64.3037C14.7351 64.3914 14.8025 64.4717 14.879 64.5427L14.9893 64.506Z" fill="#1967A1"/>
<path d="M46.0319 65.7569C46.0358 65.7653 46.038 65.7744 46.0382 65.7837C46.0385 65.793 46.0368 65.8022 46.0334 65.8108C46.0299 65.8194 46.0247 65.8272 46.0182 65.8338C46.0116 65.8403 46.0038 65.8454 45.9951 65.8488C45.4434 65.9408 45.4066 65.904 45.1492 65.4443C45.0204 65.2236 44.9285 65.0029 44.7814 64.7822C44.7152 64.689 44.617 64.6235 44.5055 64.5983C44.0458 64.5431 44.009 64.5799 43.9906 65.0581V65.481C43.9906 65.8488 43.9354 65.9224 43.586 65.8488C43.4941 65.8305 43.3653 65.7017 43.3653 65.6282C43.3469 64.6167 43.3469 63.6236 43.3653 62.6122C43.3821 62.5575 43.4131 62.5084 43.4551 62.4696C43.4971 62.4308 43.5486 62.4039 43.6044 62.3915C44.0642 62.3731 44.5239 62.3731 44.9837 62.3915C45.1834 62.3863 45.3794 62.4463 45.542 62.5624C45.7046 62.6786 45.8249 62.8445 45.8848 63.0351C46.0319 63.5133 46.0319 63.9914 45.6089 64.3225C45.4066 64.488 45.425 64.6167 45.5354 64.819C45.7027 65.1316 45.848 65.4259 46.0319 65.7569ZM43.9906 63.4765C43.9906 64.0466 43.9906 64.0466 44.4687 64.0466C45.0591 64.0466 45.2779 63.8995 45.2779 63.4949C45.2779 63.0903 45.0572 62.9432 44.4687 62.9432C43.9906 62.9432 43.9906 62.9432 43.9906 63.4765Z" fill="#1967A1"/>
<path d="M49.8019 63.8255C50.0962 63.4761 50.3923 63.1267 50.6847 62.7773C51.0157 62.3911 51.126 62.3359 51.6777 62.4279C51.688 62.4287 51.6979 62.4323 51.7062 62.4384C51.7145 62.4445 51.7209 62.4528 51.7248 62.4624C51.7286 62.472 51.7297 62.4824 51.7279 62.4926C51.726 62.5027 51.7214 62.5122 51.7145 62.5198C51.4387 62.8509 51.1996 63.1819 50.9054 63.4761C50.6681 63.7152 50.6681 63.9175 50.8686 64.175C51.218 64.6715 51.549 65.2048 51.88 65.7197C51.8839 65.7282 51.8861 65.7373 51.8863 65.7465C51.8866 65.7558 51.8849 65.765 51.8815 65.7736C51.878 65.7823 51.8729 65.7901 51.8663 65.7966C51.8597 65.8032 51.8519 65.8083 51.8433 65.8117C51.4387 65.9588 51.218 65.8852 50.9973 65.5358C50.7766 65.1864 50.5559 64.8738 50.3536 64.5428C50.2433 64.3773 50.1697 64.3956 50.0226 64.506C49.71 64.7818 49.6732 65.1129 49.71 65.4807C49.7284 65.7013 49.71 65.8669 49.4157 65.8485C49.1215 65.8301 49.0479 65.7565 49.0479 65.4807C49.0663 64.5612 49.0479 63.6416 49.0479 62.7221C49.0479 62.4831 49.0663 62.3359 49.379 62.3359C49.6916 62.3359 49.7284 62.4647 49.71 62.7037C49.6916 63.0348 49.71 63.3842 49.71 63.7152C49.7486 63.8072 49.7486 63.8072 49.8019 63.8255Z" fill="#1967A1"/>
<path d="M18.8292 64.138V62.7036C18.8292 62.299 19.0866 62.3542 19.9142 62.5381H19.9326C20.7417 62.391 21.0562 62.2806 21.036 62.6668C21.036 62.8691 20.9643 62.9427 20.7601 62.9427H19.7855C19.5096 62.9427 19.3993 63.053 19.4728 63.4024V63.4208C19.4011 63.7151 19.493 63.8438 19.7137 63.8438H20.5211C20.7252 63.8438 20.7785 63.9357 20.7785 64.1197C20.7785 64.3036 20.6866 64.3587 20.5211 64.3587H19.7137C19.6786 64.353 19.6427 64.3557 19.6088 64.3667C19.575 64.3776 19.5442 64.3964 19.5191 64.4215C19.4939 64.4467 19.4751 64.4774 19.4642 64.5113C19.4533 64.5451 19.4506 64.5811 19.4563 64.6162C19.4563 65.6093 19.4011 65.2782 20.5413 65.3702H20.5597C20.8907 65.315 21.0562 65.3334 21.0562 65.6277C21.0562 65.8667 20.9275 65.8851 20.7436 65.8851H19.1436C18.923 65.8851 18.831 65.8116 18.831 65.5725C18.8292 65.1127 18.8292 64.6162 18.8292 64.138Z" fill="#1967A1"/>
<path d="M46.5488 7.71713C46.3831 7.36438 46.199 7.02062 45.9971 6.68728C45.9787 6.66889 45.9585 6.6505 45.9419 6.66889C45.5741 6.66889 45.2063 6.74245 44.8385 6.77923C44.8255 6.77959 44.8127 6.77625 44.8016 6.76959C44.7905 6.76293 44.7815 6.75324 44.7757 6.74165C44.7699 6.73006 44.7676 6.71705 44.7689 6.70416C44.7703 6.69128 44.7753 6.67904 44.7833 6.66889C44.9856 6.44821 45.1879 6.22753 45.3902 6.02523C45.4254 6.00004 45.4553 5.9681 45.4781 5.93128C45.5009 5.89446 45.5161 5.85348 45.523 5.81072C45.5298 5.76795 45.5281 5.72426 45.5179 5.68216C45.5078 5.64007 45.4894 5.60041 45.4638 5.56548C45.3166 5.28963 45.1879 5.01377 45.0224 4.68275C45.004 4.62758 45.0592 4.57241 45.096 4.60919C45.427 4.7747 45.7028 4.90343 45.9787 5.05055C46.0136 5.07615 46.0533 5.09457 46.0954 5.10474C46.1375 5.1149 46.1812 5.11661 46.2239 5.10977C46.2667 5.10293 46.3077 5.08767 46.3445 5.06488C46.3813 5.04209 46.4132 5.01221 46.4384 4.97699C46.6362 4.75646 46.8583 4.55904 47.1005 4.38851C47.1092 4.3797 47.1206 4.37406 47.1328 4.37251C47.1451 4.37095 47.1575 4.37357 47.1682 4.37993C47.1788 4.3863 47.1869 4.39604 47.1913 4.4076C47.1957 4.41916 47.1961 4.43187 47.1924 4.44368C47.1373 4.71953 47.1005 4.97699 47.0453 5.25285C47.0164 5.34552 47.0254 5.44585 47.0701 5.53197C47.1149 5.6181 47.1919 5.68302 47.2844 5.7126C47.5529 5.82814 47.8062 5.97639 48.0384 6.15397C48.0459 6.16181 48.0515 6.1713 48.0547 6.18168C48.0579 6.19205 48.0586 6.20303 48.0568 6.21374C48.055 6.22445 48.0508 6.23459 48.0444 6.24337C48.038 6.25215 48.0296 6.25932 48.02 6.26431C47.7258 6.31948 47.4499 6.37465 47.1538 6.41143C47.1055 6.40895 47.0572 6.41603 47.0116 6.43226C46.966 6.44849 46.9241 6.47355 46.8882 6.50601C46.8524 6.53847 46.8232 6.57769 46.8025 6.62141C46.7818 6.66514 46.77 6.71252 46.7676 6.76084C46.7308 7.07348 46.6757 7.38611 46.6223 7.68036C46.5984 7.69875 46.5984 7.69874 46.5488 7.71713Z" fill="#1967A1"/>
<path d="M39.7058 4.79307C39.8713 4.554 40.0386 4.29654 40.2225 4.05746C40.4064 3.81839 40.3862 3.67127 40.2023 3.45059C40.0068 3.22703 39.8227 2.99379 39.6506 2.75176C39.6138 2.69659 39.6506 2.64142 39.7242 2.65981C40.092 2.75176 40.3862 2.82532 40.6805 2.91727C40.72 2.93703 40.7633 2.94841 40.8074 2.95071C40.8516 2.95302 40.8958 2.94619 40.9372 2.93066C40.9786 2.91513 41.0164 2.89123 41.0481 2.86044C41.0799 2.82966 41.105 2.79266 41.1218 2.75176C41.2699 2.50901 41.4411 2.28113 41.6331 2.07132C41.6415 2.06253 41.6523 2.05631 41.6641 2.05339C41.6759 2.05047 41.6883 2.05096 41.6999 2.05482C41.7114 2.05867 41.7216 2.06572 41.7294 2.07515C41.7371 2.08458 41.7419 2.09601 41.7434 2.1081C41.7618 2.36556 41.7802 2.62303 41.7802 2.89888C41.7735 2.9509 41.7773 3.00372 41.7914 3.05425C41.8054 3.10478 41.8294 3.15199 41.862 3.19311C41.8945 3.23423 41.935 3.26842 41.9809 3.29369C42.0269 3.31896 42.0774 3.33479 42.1296 3.34024C42.4155 3.39875 42.6933 3.49137 42.9572 3.6161C42.9694 3.61928 42.9802 3.62642 42.9879 3.6364C42.9956 3.64639 42.9998 3.65865 42.9998 3.67127C42.9998 3.68389 42.9956 3.69615 42.9879 3.70613C42.9802 3.71612 42.9694 3.72326 42.9572 3.72644C42.6997 3.81839 42.4422 3.92873 42.1848 4.00229C42.1273 4.01168 42.0723 4.03269 42.0232 4.06403C41.9742 4.09537 41.932 4.13639 41.8993 4.18458C41.8666 4.23277 41.844 4.28712 41.8331 4.34432C41.8221 4.40151 41.8228 4.46034 41.8354 4.51722C41.8538 4.79276 41.8538 5.06923 41.8354 5.34478C41.8339 5.35687 41.829 5.36829 41.8213 5.37773C41.8136 5.38716 41.8034 5.39421 41.7918 5.39806C41.7803 5.40191 41.7679 5.40241 41.756 5.39949C41.7442 5.39656 41.7334 5.39035 41.725 5.38156C41.5963 5.21605 41.4676 5.06893 41.3572 4.9218C40.9158 4.38849 41.0997 4.40688 40.4377 4.64595C40.2354 4.71951 40.0147 4.79307 39.8124 4.86663C39.7717 4.85068 39.7352 4.82551 39.7058 4.79307Z" fill="#1967A1"/>
<path d="M61.774 32.6358C62.0884 32.7461 62.3808 32.8565 62.6935 32.9852C62.7709 33.0238 62.8594 33.0339 62.9434 33.0137C63.0275 32.9935 63.1018 32.9444 63.1532 32.8749C63.3574 32.6358 63.5597 32.3967 63.7969 32.1393C63.8355 32.1025 63.9091 32.1209 63.9091 32.176C63.8888 32.4703 63.8888 32.7093 63.8539 32.9668C63.8171 33.3162 63.9091 33.5185 64.2769 33.5921C64.5101 33.66 64.7376 33.7461 64.9573 33.8495C64.9695 33.8527 64.9803 33.8599 64.9881 33.8698C64.9958 33.8798 65 33.8921 65 33.9047C65 33.9173 64.9958 33.9296 64.9881 33.9396C64.9803 33.9496 64.9695 33.9567 64.9573 33.9599C64.6263 34.0518 64.3688 34.1254 64.093 34.1806C64.0418 34.1842 63.9919 34.1982 63.9463 34.2216C63.9007 34.2451 63.8603 34.2776 63.8276 34.3172C63.795 34.3567 63.7707 34.4025 63.7562 34.4517C63.7418 34.501 63.7375 34.5526 63.7436 34.6035C63.7484 34.8822 63.7175 35.1603 63.6516 35.4311C63.6332 35.4863 63.578 35.5047 63.5413 35.4495C63.3465 35.1305 63.1243 34.829 62.8774 34.5484C62.8704 34.5416 62.862 34.5364 62.8528 34.5332C62.8435 34.53 62.8337 34.5289 62.824 34.53C62.4255 34.593 62.0321 34.6852 61.6471 34.8058C61.6353 34.8095 61.6226 34.8091 61.611 34.8047C61.5994 34.8003 61.5897 34.7922 61.5833 34.7816C61.577 34.7709 61.5744 34.7585 61.5759 34.7462C61.5775 34.734 61.5831 34.7226 61.5919 34.7139C61.7942 34.4748 61.9597 34.2541 62.1436 34.0702C62.3275 33.8863 62.3827 33.684 62.1804 33.4634C62.0101 33.2356 61.8565 32.9959 61.7206 32.7461C61.7372 32.6726 61.7372 32.6726 61.774 32.6358Z" fill="#1967A1"/>
<path d="M12.8744 7.31232C13.1893 7.53798 13.5199 7.74079 13.8638 7.9192H13.9208C14.2609 7.70823 14.5865 7.47477 14.8955 7.22037C14.9507 7.18359 15.0058 7.22037 14.9874 7.27554C14.8955 7.60657 14.8219 7.90081 14.73 8.17666C14.6924 8.26463 14.6907 8.36376 14.725 8.45302C14.7593 8.54228 14.8271 8.61466 14.9139 8.65481C15.1749 8.80973 15.4211 8.98824 15.6495 9.18812C15.6583 9.19656 15.6645 9.20731 15.6674 9.21914C15.6703 9.23096 15.6698 9.24337 15.666 9.25493C15.6621 9.26648 15.6551 9.27671 15.6457 9.28441C15.6362 9.29212 15.6248 9.29699 15.6127 9.29847H14.7484C14.701 9.29012 14.6523 9.29176 14.6056 9.30328C14.5589 9.3148 14.5151 9.33596 14.477 9.36539C14.4389 9.39481 14.4074 9.43187 14.3844 9.47418C14.3615 9.51649 14.3477 9.56313 14.3438 9.6111C14.2761 9.91034 14.1901 10.2051 14.0863 10.4938C14.0831 10.506 14.076 10.5169 14.066 10.5246C14.056 10.5323 14.0438 10.5365 14.0311 10.5365C14.0185 10.5365 14.0063 10.5323 13.9963 10.5246C13.9863 10.5169 13.9792 10.506 13.976 10.4938C13.8472 10.1812 13.7369 9.90534 13.6449 9.62949C13.6267 9.53989 13.5742 9.46095 13.4987 9.40944C13.4231 9.35793 13.3304 9.33791 13.2404 9.35364C12.9277 9.37203 12.6335 9.35364 12.2657 9.35364C12.2526 9.35405 12.2398 9.35024 12.2291 9.34277C12.2183 9.3353 12.2103 9.32457 12.2062 9.31217C12.202 9.29977 12.202 9.28638 12.2061 9.27397C12.2102 9.26156 12.2182 9.2508 12.2289 9.2433C12.5783 8.96744 12.8542 8.74676 13.1852 8.52608C13.2036 8.50769 13.222 8.47091 13.2036 8.45252C13.0436 8.09853 12.9024 7.73635 12.7806 7.36749C12.8137 7.35247 12.8452 7.33397 12.8744 7.31232Z" fill="#1967A1"/>
<path d="M25.2657 4.86619C24.9899 4.77424 24.714 4.68229 24.4382 4.57195C24.1991 4.47999 24.0354 4.49838 23.8864 4.71907C23.7215 4.95518 23.5441 5.18231 23.355 5.39951C23.3182 5.43629 23.2428 5.4179 23.2428 5.36273C23.2428 5.06848 23.2244 4.82941 23.2428 4.59034C23.2796 4.22253 23.1508 4.05702 22.8033 3.96507C22.5588 3.90542 22.3237 3.81261 22.1044 3.68921C22.0474 3.67082 22.0677 3.59726 22.1228 3.57887C22.3987 3.48692 22.6929 3.41336 22.9688 3.3398C23.0597 3.32618 23.1423 3.27896 23.2002 3.20748C23.258 3.13599 23.287 3.04541 23.2814 2.95361V2.03409L23.3918 1.99731C23.5389 2.218 23.7228 2.42029 23.8515 2.65936C24.017 2.972 24.2193 3.04556 24.5319 2.91683C24.771 2.82487 25.0101 2.7697 25.3227 2.67775C25.3779 2.65936 25.4147 2.73292 25.3963 2.7697C25.243 2.9934 25.0772 3.20829 24.8997 3.41336C24.6423 3.67082 24.6791 3.89151 24.8997 4.14897C25.0653 4.35126 25.2124 4.57195 25.3595 4.79263C25.3246 4.81205 25.2929 4.83687 25.2657 4.86619Z" fill="#1967A1"/>
<path d="M35.7482 1.00472C35.8226 1.25144 35.8779 1.50352 35.9137 1.75872C35.9505 2.10813 36.1344 2.23686 36.4838 2.23686C36.7492 2.24636 37.0138 2.27092 37.2764 2.31042C37.3316 2.31042 37.3481 2.38398 37.2948 2.42077C36.9822 2.60467 36.7431 2.77018 36.4672 2.9173C36.3771 2.95403 36.3052 3.02497 36.2673 3.11459C36.2294 3.20421 36.2286 3.3052 36.2649 3.39545C36.3367 3.6713 36.4121 3.94715 36.4838 4.27818C36.504 4.33335 36.4286 4.37013 36.3918 4.33335C36.116 4.09428 35.8971 3.91037 35.6765 3.70808C35.6465 3.67276 35.6098 3.64375 35.5685 3.62275C35.5272 3.60175 35.4821 3.58917 35.4359 3.58574C35.3897 3.58232 35.3433 3.58812 35.2993 3.60281C35.2554 3.6175 35.2148 3.64078 35.1799 3.6713C34.92 3.84669 34.6498 4.00636 34.3707 4.14945C34.36 4.15765 34.3468 4.16202 34.3333 4.16186C34.3197 4.1617 34.3066 4.15702 34.2961 4.14857C34.2855 4.14011 34.278 4.12836 34.2749 4.1152C34.2718 4.10203 34.2732 4.08819 34.2788 4.07589C34.4259 3.74486 34.5179 3.46901 34.665 3.21154C34.6908 3.17342 34.7086 3.13038 34.717 3.0851C34.7255 3.03982 34.7245 2.99328 34.7141 2.9484C34.7038 2.90352 34.6843 2.86126 34.6568 2.82426C34.6294 2.78727 34.5946 2.75633 34.5547 2.7334C34.334 2.5495 34.1133 2.3472 33.8374 2.10813C33.8286 2.0997 33.8224 2.08895 33.8195 2.07712C33.8166 2.0653 33.8171 2.05289 33.8209 2.04133C33.8248 2.02977 33.8318 2.01955 33.8413 2.01184C33.8507 2.00414 33.8621 1.99926 33.8742 1.99779C34.2236 2.01618 34.5363 2.03457 34.8305 2.07135C34.874 2.08497 34.9198 2.08952 34.965 2.08473C35.0103 2.07994 35.0542 2.0659 35.0938 2.04349C35.1335 2.02108 35.1681 1.99077 35.1956 1.95444C35.223 1.91811 35.2427 1.87653 35.2535 1.83228C35.3638 1.53803 35.4926 1.26218 35.6213 0.986328C35.6621 1.00032 35.7051 1.00655 35.7482 1.00472Z" fill="#1967A1"/>
<path d="M51.0893 10.5125C51.0861 10.5247 51.079 10.5355 51.069 10.5432C51.059 10.5509 51.0468 10.5551 51.0341 10.5551C51.0215 10.5551 51.0093 10.5509 50.9993 10.5432C50.9893 10.5355 50.9822 10.5247 50.979 10.5125C50.887 10.1814 50.7951 9.92398 50.7399 9.66652C50.7357 9.61469 50.7206 9.56434 50.6956 9.51878C50.6705 9.47321 50.6361 9.43348 50.5946 9.4022C50.553 9.37092 50.5053 9.3488 50.4546 9.3373C50.4039 9.32581 50.3513 9.32519 50.3004 9.3355C50.0112 9.34166 49.7219 9.32938 49.4342 9.29872C49.3809 9.29872 49.3606 9.22515 49.4158 9.18837C49.6733 9.02286 49.9123 8.85735 50.1698 8.69184C50.2117 8.67349 50.2494 8.64681 50.2806 8.6134C50.3119 8.58 50.336 8.54058 50.3514 8.49756C50.3669 8.45453 50.3735 8.4088 50.3707 8.36316C50.368 8.31752 50.3559 8.27292 50.3353 8.23208C50.2434 7.95623 50.1698 7.66199 50.0779 7.31257C50.0742 7.30076 50.0746 7.28806 50.079 7.2765C50.0834 7.26494 50.0915 7.25519 50.1021 7.24883C50.1127 7.24246 50.1252 7.23985 50.1375 7.2414C50.1497 7.24296 50.1611 7.24859 50.1698 7.2574C50.4641 7.47808 50.7031 7.66199 50.9238 7.84589C50.9552 7.87998 50.9931 7.90752 51.0352 7.92691C51.0773 7.94631 51.1228 7.95717 51.1692 7.95888C51.2155 7.96059 51.2617 7.95311 51.3051 7.93687C51.3486 7.92064 51.3883 7.89597 51.4222 7.86428C51.6594 7.69877 51.9003 7.55165 52.1946 7.36774C52.2053 7.35954 52.2185 7.35517 52.2321 7.35533C52.2456 7.35549 52.2587 7.36017 52.2693 7.36862C52.2798 7.37708 52.2873 7.38882 52.2904 7.40199C52.2935 7.41516 52.2922 7.429 52.2865 7.4413C52.1762 7.75394 52.0842 7.99301 51.9923 8.23208C51.9652 8.27632 51.9475 8.32564 51.9402 8.377C51.933 8.42835 51.9364 8.48065 51.9502 8.53065C51.964 8.58065 51.9879 8.62728 52.0204 8.66766C52.053 8.70804 52.0935 8.74131 52.1394 8.7654C52.3601 8.91252 52.5789 9.09642 52.8548 9.31711C52.8644 9.32517 52.8714 9.33593 52.8748 9.348C52.8782 9.36007 52.8779 9.37289 52.8739 9.38479C52.8699 9.39669 52.8625 9.40712 52.8525 9.41472C52.8426 9.42233 52.8305 9.42677 52.818 9.42745C52.487 9.42745 52.2111 9.44584 51.9353 9.42745C51.6061 9.39067 51.4571 9.53779 51.3652 9.83203C51.2916 9.99754 51.196 10.2366 51.0893 10.5125Z" fill="#1967A1"/>
<path d="M64.1463 39.8266C63.8538 39.8572 63.5596 39.8695 63.2654 39.8634C63.2094 39.8559 63.1525 39.8602 63.0982 39.876C63.044 39.8918 62.9936 39.9187 62.9504 39.9551C62.9071 39.9914 62.8719 40.0364 62.847 40.0871C62.8221 40.1378 62.808 40.1931 62.8057 40.2496C62.7505 40.514 62.6705 40.7726 62.5666 41.022C62.5634 41.0342 62.5563 41.045 62.5463 41.0527C62.5363 41.0604 62.5241 41.0646 62.5114 41.0646C62.4988 41.0646 62.4866 41.0604 62.4766 41.0527C62.4666 41.045 62.4595 41.0342 62.4563 41.022C62.3459 40.7645 62.2172 40.5071 62.1253 40.2312C62.1024 40.1317 62.0414 40.0452 61.9555 39.9902C61.8695 39.9352 61.7654 39.9161 61.6655 39.937C61.3786 39.9709 61.0892 39.977 60.8012 39.9554C60.7889 39.9542 60.7773 39.9495 60.7676 39.9419C60.7579 39.9344 60.7506 39.9242 60.7465 39.9125C60.7425 39.9009 60.7418 39.8884 60.7447 39.8764C60.7475 39.8645 60.7537 39.8536 60.7625 39.845C60.9667 39.6795 61.1506 39.514 61.3529 39.3669C61.6103 39.2014 61.6287 39.0175 61.4981 38.76C61.3842 38.5173 61.2919 38.2649 61.2223 38.006C61.2039 37.9508 61.2609 37.914 61.3142 37.9324C61.5717 38.0979 61.8292 38.2451 62.0885 38.4106C62.1209 38.4387 62.1587 38.46 62.1994 38.4734C62.2402 38.4867 62.2833 38.4919 62.3261 38.4884C62.3688 38.485 62.4105 38.4731 62.4487 38.4534C62.4868 38.4338 62.5206 38.4067 62.5482 38.3738C62.784 38.175 63.0362 37.9966 63.3022 37.8405C63.3574 37.8221 63.4126 37.8589 63.3942 37.914C63.3206 38.2083 63.2654 38.4841 63.1735 38.7784C63.1551 38.8167 63.1447 38.8584 63.143 38.9008C63.1413 38.9433 63.1484 38.9857 63.1637 39.0253C63.179 39.065 63.2023 39.101 63.2322 39.1313C63.262 39.1616 63.2978 39.1854 63.3372 39.2014C63.613 39.3485 63.8705 39.514 64.1463 39.6795C64.1647 39.7715 64.1647 39.7715 64.1463 39.8266Z" fill="#1967A1"/>
<path d="M2.44897 41.0955C2.37357 40.8196 2.30185 40.5254 2.24668 40.2495C2.24305 40.1959 2.22859 40.1437 2.20418 40.0958C2.17977 40.048 2.14591 40.0056 2.10466 39.9712C2.06341 39.9369 2.01561 39.9112 1.96416 39.8958C1.91271 39.8804 1.85867 39.8756 1.80531 39.8817C1.51107 39.8817 1.21499 39.8449 0.922584 39.8266L0.885803 39.7162C1.12304 39.5691 1.38234 39.4036 1.63796 39.2748C1.89359 39.1461 1.93221 39.0174 1.85865 38.7415C1.7657 38.4746 1.71001 38.1961 1.69313 37.914C1.69313 37.8588 1.7483 37.822 1.78508 37.8588C1.97693 37.9957 2.16111 38.1431 2.33679 38.3002C2.61264 38.576 2.85172 38.576 3.16435 38.3369C3.35317 38.1884 3.56417 38.0705 3.78962 37.9875C3.79995 37.9839 3.81108 37.9833 3.82176 37.9857C3.83244 37.988 3.84225 37.9933 3.85008 38.001C3.85791 38.0086 3.86346 38.0183 3.8661 38.0289C3.86874 38.0395 3.86836 38.0507 3.86502 38.0611C3.77307 38.3002 3.68112 38.5392 3.57078 38.7783C3.53652 38.8266 3.51302 38.8816 3.50186 38.9398C3.4907 38.9979 3.49214 39.0577 3.50609 39.1153C3.52003 39.1728 3.54616 39.2266 3.5827 39.2732C3.61924 39.3198 3.66534 39.358 3.7179 39.3852C3.93956 39.5326 4.13792 39.7124 4.30638 39.9185C4.34316 39.9553 4.30638 40.0288 4.25121 40.0288L3.44204 39.9737C3.38768 39.9597 3.33108 39.9568 3.27557 39.965C3.22006 39.9732 3.16675 39.9925 3.11877 40.0216C3.0708 40.0507 3.02914 40.0892 2.99622 40.1346C2.96331 40.1801 2.93981 40.2316 2.92712 40.2863C2.83517 40.5622 2.68805 40.838 2.5777 41.1139C2.53623 41.1001 2.49263 41.0939 2.44897 41.0955Z" fill="#1967A1"/>
<path d="M16.9387 6.13545C17.2008 5.98597 17.471 5.85091 17.7478 5.73087C17.7951 5.71851 17.8392 5.69638 17.8774 5.66593C17.9155 5.63547 17.9469 5.59735 17.9694 5.55404C17.9919 5.51072 18.0051 5.46316 18.0081 5.41443C18.0112 5.3657 18.0039 5.31688 17.9869 5.27111C17.9309 4.99197 17.8941 4.70933 17.8766 4.42516C17.8762 4.41221 17.8796 4.39942 17.8862 4.3883C17.8929 4.37719 17.9026 4.3682 17.9142 4.36241C17.9258 4.35661 17.9388 4.35425 17.9516 4.35559C17.9645 4.35693 17.9768 4.36193 17.9869 4.36999C18.1892 4.57228 18.4099 4.77457 18.6122 4.97687C18.6396 5.0147 18.6744 5.04668 18.7144 5.07092C18.7543 5.09515 18.7987 5.11117 18.845 5.11802C18.8912 5.12487 18.9384 5.12242 18.9837 5.11081C19.029 5.09921 19.0715 5.07868 19.1087 5.05043C19.3726 4.90247 19.6496 4.77934 19.9363 4.68262C19.9914 4.66423 20.0282 4.7194 20.0098 4.77457C19.8995 5.01365 19.7708 5.27111 19.642 5.51018C19.608 5.55514 19.5838 5.60671 19.5709 5.66158C19.558 5.71646 19.5566 5.77342 19.567 5.82883C19.5774 5.88424 19.5993 5.93687 19.6312 5.98333C19.6631 6.0298 19.7044 6.06909 19.7524 6.09867C19.9487 6.27047 20.1273 6.46145 20.2857 6.66877C20.2945 6.67745 20.3001 6.68885 20.3017 6.70112C20.3032 6.71339 20.3006 6.72583 20.2943 6.73644C20.2879 6.74704 20.2782 6.75521 20.2666 6.75961C20.255 6.76401 20.2423 6.7644 20.2305 6.76072C19.8593 6.73125 19.4906 6.67595 19.1271 6.59521C19.0903 6.59521 19.0719 6.59521 19.0535 6.63199C18.8943 6.99651 18.7163 7.35253 18.5202 7.69862C18.5145 7.70962 18.5054 7.71852 18.4943 7.72405C18.4832 7.72958 18.4706 7.73146 18.4584 7.72942C18.4462 7.72738 18.4349 7.72153 18.4262 7.71269C18.4175 7.70386 18.4118 7.6925 18.4099 7.68023C18.3547 7.34921 18.2995 7.05496 18.2628 6.77911C18.226 6.50325 18.1156 6.42969 17.8766 6.39291C17.5671 6.3556 17.2601 6.30034 16.9571 6.2274C16.9404 6.19984 16.9339 6.16731 16.9387 6.13545Z" fill="#1967A1"/>
<path d="M31.1506 2.01627C31.1637 2.01586 31.1765 2.01967 31.1873 2.02714C31.198 2.03461 31.206 2.04534 31.2101 2.05774C31.2143 2.07013 31.2143 2.08353 31.2102 2.09594C31.2061 2.10835 31.1981 2.11911 31.1874 2.12661C30.9318 2.36569 30.7093 2.56798 30.4886 2.75188C30.4122 2.80203 30.358 2.87974 30.3375 2.96881C30.3169 3.05789 30.3315 3.15145 30.3782 3.23003C30.507 3.48749 30.6173 3.76334 30.746 4.07598C30.7517 4.08828 30.7531 4.10212 30.7499 4.11529C30.7468 4.12846 30.7394 4.1402 30.7288 4.14866C30.7182 4.15711 30.7051 4.16179 30.6916 4.16195C30.6781 4.16211 30.6649 4.15774 30.6541 4.14954C30.4387 4.03914 30.23 3.91633 30.0288 3.78173C29.5139 3.4691 29.6242 3.50588 29.2013 3.85529C29.0358 4.00242 28.8702 4.14954 28.6496 4.33344C28.6409 4.34225 28.6295 4.34788 28.6172 4.34944C28.6049 4.35099 28.5925 4.34838 28.5819 4.34201C28.5713 4.33565 28.5631 4.3259 28.5587 4.31434C28.5543 4.30278 28.5539 4.29008 28.5576 4.27827C28.6312 3.92885 28.7047 3.653 28.7783 3.37715C28.7973 3.335 28.8076 3.28947 28.8086 3.24326C28.8095 3.19704 28.8012 3.15111 28.784 3.10819C28.7669 3.06528 28.7412 3.02626 28.7086 2.99348C28.6761 2.9607 28.6372 2.93482 28.5944 2.91739C28.3185 2.77027 28.0611 2.60476 27.7668 2.42086C27.7117 2.38408 27.7301 2.31052 27.7852 2.31052C28.084 2.26922 28.3848 2.24466 28.6863 2.23695C28.9438 2.23695 29.0541 2.10822 29.1093 1.86915C29.1594 1.59356 29.2332 1.32283 29.33 1.05998C29.3332 1.04777 29.3403 1.03696 29.3503 1.02924C29.3603 1.02152 29.3726 1.01733 29.3852 1.01733C29.3978 1.01733 29.4101 1.02152 29.42 1.02924C29.43 1.03696 29.4372 1.04777 29.4403 1.05998C29.5525 1.29905 29.661 1.53813 29.753 1.7772C29.8449 2.01627 29.9737 2.145 30.2679 2.07144C30.5474 2.03466 30.8233 2.03466 31.1506 2.01627Z" fill="#1967A1"/>
<path d="M54.565 11.064C54.7857 11.303 55.0064 11.5421 55.2087 11.7996C55.2324 11.8411 55.2646 11.8773 55.3032 11.9057C55.3417 11.9341 55.3858 11.9541 55.4325 11.9645C55.4793 11.9749 55.5277 11.9754 55.5746 11.966C55.6216 11.9566 55.666 11.9375 55.7052 11.9099L56.5144 11.5605C56.5267 11.5549 56.5405 11.5535 56.5537 11.5566C56.5668 11.5597 56.5786 11.5672 56.587 11.5778C56.5955 11.5883 56.6002 11.6014 56.6003 11.615C56.6005 11.6285 56.5961 11.6417 56.5879 11.6525C56.4224 11.9283 56.2937 12.1674 56.1282 12.4065C55.9994 12.6087 55.981 12.7375 56.1649 12.9214C56.3675 13.1276 56.5464 13.3558 56.6983 13.6018C56.7369 13.6386 56.6799 13.7122 56.6449 13.6938L55.8541 13.5283C55.8024 13.504 55.7463 13.4905 55.6892 13.4885C55.6321 13.4866 55.5752 13.4962 55.5219 13.5168C55.4687 13.5374 55.4201 13.5686 55.3792 13.6085C55.3384 13.6484 55.306 13.6962 55.2841 13.7489C55.1535 13.988 55.0082 14.2271 54.8243 14.5029C54.7857 14.5581 54.714 14.5397 54.714 14.4845C54.6753 14.1535 54.6588 13.8593 54.6404 13.5834C54.6478 13.4961 54.6214 13.4092 54.5667 13.3408C54.5119 13.2724 54.433 13.2276 54.3461 13.2156C54.0501 13.1605 53.7558 13.0869 53.4064 12.9949C53.3531 12.9765 53.3347 12.903 53.388 12.8846C53.7025 12.7559 53.9397 12.6455 54.1972 12.5536C54.2561 12.5408 54.3118 12.5161 54.3608 12.4809C54.4098 12.4458 54.451 12.401 54.482 12.3493C54.5131 12.2976 54.5332 12.2401 54.5411 12.1804C54.549 12.1206 54.5447 12.0599 54.5282 12.0019C54.4914 11.7076 54.473 11.4318 54.4547 11.1375L54.565 11.064Z" fill="#1967A1"/>
<path d="M8.46078 11.634C8.45258 11.6232 8.44821 11.61 8.44837 11.5965C8.44852 11.583 8.4532 11.5699 8.46166 11.5593C8.47011 11.5487 8.48186 11.5413 8.49503 11.5382C8.5082 11.535 8.52204 11.5364 8.53434 11.542C8.80565 11.6417 9.07039 11.7584 9.32696 11.8914C9.58442 12.0202 9.7297 11.965 9.91361 11.7627C10.088 11.5337 10.2928 11.3296 10.5223 11.1558C10.531 11.147 10.5424 11.1414 10.5547 11.1398C10.5669 11.1383 10.5794 11.1409 10.59 11.1473C10.6006 11.1536 10.6088 11.1634 10.6132 11.1749C10.6176 11.1865 10.618 11.1992 10.6143 11.211C10.5959 11.4869 10.5775 11.7627 10.5407 12.0386C10.5272 12.0904 10.524 12.1443 10.5314 12.1974C10.5388 12.2504 10.5565 12.3015 10.5837 12.3476C10.6109 12.3938 10.6469 12.4341 10.6897 12.4662C10.7325 12.4984 10.7812 12.5218 10.8331 12.5351C11.1088 12.6312 11.3743 12.7544 11.6257 12.9029C11.6809 12.9397 11.6607 12.9949 11.6073 13.0133C11.3131 13.0868 11.0189 13.1604 10.7246 13.2155C10.6819 13.218 10.6402 13.2292 10.602 13.2483C10.5638 13.2675 10.5298 13.2942 10.5023 13.3269C10.4748 13.3596 10.4542 13.3976 10.4418 13.4385C10.4294 13.4795 10.4256 13.5225 10.4304 13.565C10.4212 13.8664 10.3967 14.1672 10.3568 14.4661C10.3553 14.4782 10.3505 14.4896 10.3428 14.499C10.3351 14.5085 10.3248 14.5155 10.3133 14.5194C10.3017 14.5232 10.2893 14.5237 10.2775 14.5208C10.2657 14.5179 10.2549 14.5116 10.2465 14.5029C10.0892 14.2967 9.95364 14.0748 9.84189 13.8408C9.69476 13.5282 9.49247 13.4362 9.16145 13.5466C8.91096 13.6218 8.65059 13.659 8.38906 13.6569C8.3761 13.6573 8.36332 13.6539 8.3522 13.6473C8.34108 13.6406 8.3321 13.6309 8.32631 13.6193C8.32051 13.6077 8.31815 13.5947 8.31949 13.5818C8.32083 13.569 8.32583 13.5567 8.33389 13.5466L8.70169 13.1236C9.16145 12.5719 9.14306 12.7742 8.77525 12.1489C8.66164 11.9828 8.55667 11.8109 8.46078 11.634Z" fill="#1967A1"/>
<path d="M1.38051 35.4865C1.36212 35.2107 1.32534 34.9348 1.32534 34.659C1.32534 34.3831 1.23339 34.2176 0.939142 34.1624C0.681679 34.1073 0.426055 34.0337 0.111582 33.9417C0.10032 33.9376 0.0906065 33.93 0.0837473 33.9202C0.0768882 33.9103 0.0732117 33.8986 0.0732117 33.8866C0.0732117 33.8746 0.0768882 33.8628 0.0837473 33.853C0.0906065 33.8431 0.10032 33.8356 0.111582 33.8314C0.426055 33.7211 0.681679 33.6107 0.939142 33.5372C1.02874 33.5189 1.10768 33.4664 1.15919 33.3909C1.2107 33.3153 1.23072 33.2227 1.215 33.1326C1.19844 32.8383 1.17821 32.5257 1.16166 32.1763C1.1604 32.1631 1.16363 32.1498 1.17083 32.1387C1.17803 32.1276 1.18879 32.1192 1.20135 32.1149C1.21391 32.1107 1.22754 32.1108 1.24003 32.1152C1.25253 32.1197 1.26314 32.1283 1.27017 32.1395C1.49085 32.3786 1.67475 32.5993 1.85865 32.8199C1.88568 32.8705 1.923 32.9148 1.96822 32.9501C2.01343 32.9853 2.06553 33.0107 2.12116 33.0246C2.17678 33.0384 2.2347 33.0405 2.29116 33.0306C2.34763 33.0207 2.40139 32.999 2.44898 32.9671C2.70012 32.8485 2.96518 32.762 3.23792 32.7096C3.24973 32.7059 3.26243 32.7063 3.27399 32.7107C3.28555 32.7151 3.2953 32.7233 3.30166 32.7339C3.30803 32.7445 3.31064 32.7569 3.30909 32.7692C3.30753 32.7815 3.3019 32.7929 3.29309 32.8016C3.14597 33.0222 3.01724 33.2429 2.85172 33.4452C2.68621 33.6475 2.7046 33.8314 2.8885 34.0337C3.07241 34.236 3.23792 34.4383 3.44021 34.6774C3.44902 34.686 3.45465 34.6974 3.45621 34.7097C3.45776 34.722 3.45515 34.7344 3.44878 34.745C3.44242 34.7556 3.43267 34.7638 3.42111 34.7682C3.40955 34.7726 3.39685 34.773 3.38504 34.7693C3.03563 34.6774 2.74138 34.6222 2.44898 34.5302C2.4072 34.509 2.36136 34.4969 2.31452 34.4948C2.26769 34.4926 2.22094 34.5006 2.17742 34.518C2.13389 34.5354 2.09458 34.5619 2.06212 34.5957C2.02967 34.6296 2.00481 34.6699 1.98922 34.7141C1.82187 34.99 1.63797 35.2475 1.45407 35.5049C1.43752 35.4865 1.43752 35.4865 1.38051 35.4865Z" fill="#1967A1"/>
<path d="M6.62173 15.5511C6.65851 15.496 6.73207 15.5144 6.73207 15.5695C6.78724 15.9189 6.84241 16.1948 6.8608 16.489C6.87919 16.7465 6.98953 16.8384 7.24699 16.8752C7.53586 16.9097 7.81974 16.9776 8.09294 17.0775C8.10516 17.0807 8.11597 17.0878 8.12369 17.0978C8.1314 17.1078 8.13559 17.1201 8.13559 17.1327C8.13559 17.1453 8.1314 17.1576 8.12369 17.1676C8.11597 17.1775 8.10516 17.1847 8.09294 17.1879C7.83548 17.3166 7.59641 17.4269 7.32055 17.5373C7.0447 17.6476 7.00792 17.7947 7.0447 18.0522C7.08148 18.3097 7.11826 18.6039 7.15504 18.8982C7.11495 18.909 7.07743 18.9277 7.0447 18.9533C6.8608 18.751 6.6769 18.5671 6.51139 18.3648C6.30909 18.089 6.1068 18.0338 5.79417 18.1993C5.55578 18.3306 5.30098 18.4295 5.03649 18.4936C4.98132 18.512 4.94454 18.4568 4.96293 18.4016C5.09166 18.1625 5.22039 17.9235 5.36751 17.7028C5.40612 17.6614 5.43518 17.6121 5.45262 17.5583C5.47006 17.5045 5.47546 17.4475 5.46844 17.3913C5.46142 17.3352 5.44216 17.2813 5.41201 17.2334C5.38185 17.1855 5.34155 17.1449 5.29395 17.1143C5.0971 16.9296 4.9185 16.7264 4.76064 16.5074C4.75183 16.4987 4.74619 16.4873 4.74464 16.4751C4.74308 16.4628 4.7457 16.4504 4.75206 16.4398C4.75843 16.4291 4.76817 16.421 4.77973 16.4166C4.79129 16.4122 4.804 16.4118 4.81581 16.4155C5.08922 16.4592 5.35951 16.5207 5.62498 16.5994C5.67181 16.6199 5.72241 16.6304 5.77354 16.6303C5.82467 16.6301 5.87521 16.6193 5.92193 16.5986C5.96865 16.5778 6.01054 16.5475 6.0449 16.5097C6.07926 16.4718 6.10536 16.4272 6.12151 16.3787C6.29254 16.0845 6.43782 15.8454 6.62173 15.5511Z" fill="#1967A1"/>
<path d="M57.912 18.8797C57.9506 18.6038 57.9856 18.3096 58.0242 18.0337C58.0411 17.9855 58.0477 17.9343 58.0437 17.8834C58.0397 17.8324 58.0251 17.7829 58.0009 17.7379C57.9766 17.6929 57.9433 17.6535 57.903 17.6221C57.8627 17.5907 57.8163 17.568 57.7667 17.5556C57.495 17.4564 57.2352 17.3268 56.9925 17.1694C56.9557 17.1326 56.9557 17.0774 57.0127 17.0591C57.2886 17.0039 57.5442 16.9303 57.8201 16.8935C57.874 16.8935 57.9274 16.8822 57.9768 16.8605C58.0261 16.8387 58.0705 16.807 58.1069 16.7672C58.1434 16.7275 58.1712 16.6806 58.1886 16.6295C58.2061 16.5784 58.2127 16.5243 58.2081 16.4706C58.236 16.1743 58.2789 15.8797 58.3368 15.5878C58.3552 15.5327 58.4288 15.5143 58.4472 15.5694C58.6311 15.8637 58.7782 16.1212 58.9069 16.3602C58.9234 16.4061 58.9492 16.4481 58.9827 16.4836C59.0163 16.519 59.0568 16.5471 59.1017 16.5661C59.1466 16.5851 59.195 16.5946 59.2438 16.594C59.2925 16.5934 59.3407 16.5827 59.3851 16.5625C59.6695 16.4849 59.9581 16.4235 60.2494 16.3786C60.2612 16.3749 60.2739 16.3753 60.2855 16.3797C60.2971 16.3841 60.3068 16.3923 60.3132 16.4029C60.3195 16.4135 60.3221 16.4259 60.3206 16.4382C60.319 16.4505 60.3134 16.4619 60.3046 16.4706C60.1286 16.6856 59.9381 16.8883 59.7345 17.0774C59.6847 17.1107 59.6428 17.1544 59.6115 17.2054C59.5803 17.2564 59.5605 17.3137 59.5535 17.3731C59.5465 17.4325 59.5525 17.4928 59.571 17.5497C59.5896 17.6066 59.6202 17.6588 59.6609 17.7027C59.8139 17.9345 59.9551 18.1739 60.0839 18.4199C60.0921 18.4307 60.0965 18.4439 60.0963 18.4574C60.0962 18.471 60.0915 18.4841 60.083 18.4946C60.0746 18.5052 60.0628 18.5126 60.0497 18.5158C60.0365 18.5189 60.0226 18.5175 60.0103 18.5119C59.6793 18.3831 59.3851 18.2728 59.1276 18.1441C59.0868 18.1169 59.0409 18.0982 58.9926 18.089C58.9444 18.0799 58.8949 18.0804 58.8469 18.0907C58.7989 18.101 58.7535 18.1208 58.7132 18.1489C58.673 18.177 58.6388 18.2129 58.6127 18.2544C58.4104 18.4935 58.1897 18.7142 57.9874 18.9349C57.9672 18.8981 57.9672 18.8981 57.912 18.8797Z" fill="#1967A1"/>
<path d="M62.1804 45.6559L61.2609 45.5456C61.2162 45.5338 61.1696 45.5312 61.1238 45.5379C61.0781 45.5446 61.0342 45.5604 60.9947 45.5844C60.9552 45.6085 60.921 45.6402 60.894 45.6778C60.8671 45.7153 60.848 45.7579 60.8379 45.8031C60.7294 46.0713 60.5873 46.3246 60.4149 46.5571C60.3782 46.5938 60.323 46.5938 60.3046 46.5387C60.2257 46.2483 60.1643 45.9536 60.1207 45.6559C60.1186 45.6099 60.1074 45.5648 60.0877 45.5232C60.068 45.4816 60.0402 45.4443 60.006 45.4135C59.9718 45.3827 59.9318 45.359 59.8883 45.3438C59.8449 45.3286 59.7988 45.3222 59.7529 45.3249C59.4586 45.2881 59.1828 45.2513 58.8334 45.2146C58.8211 45.2127 58.8098 45.207 58.8009 45.1983C58.7921 45.1896 58.7862 45.1783 58.7842 45.1661C58.7821 45.1538 58.784 45.1413 58.7896 45.1301C58.7951 45.119 58.804 45.11 58.815 45.1042C59.0908 44.9571 59.3115 44.8284 59.5506 44.718C59.6099 44.7012 59.6649 44.6718 59.7118 44.6319C59.7588 44.592 59.7966 44.5425 59.8227 44.4867C59.8489 44.4309 59.8628 44.3701 59.8634 44.3085C59.864 44.2469 59.8514 44.1859 59.8264 44.1295C59.7691 43.8817 59.7322 43.6295 59.7161 43.3755C59.7161 43.3204 59.7713 43.302 59.8264 43.3204C60.0287 43.5043 60.231 43.6698 60.4149 43.8721C60.4467 43.9182 60.4879 43.9571 60.5358 43.9861C60.5836 44.0152 60.6371 44.0338 60.6927 44.0408C60.7483 44.0477 60.8047 44.0428 60.8582 44.0264C60.9118 44.01 60.9613 43.9825 61.0034 43.9456C61.2496 43.7931 61.5157 43.6755 61.7942 43.5962C61.8494 43.5778 61.8862 43.633 61.8678 43.6882C61.7574 43.9273 61.6471 44.1663 61.5184 44.387C61.3896 44.6077 61.3896 44.7916 61.6287 44.9755C61.8678 45.1594 62.0517 45.3617 62.254 45.5456C62.197 45.6008 62.197 45.6008 62.1804 45.6559Z" fill="#1967A1"/>
<path d="M62.7321 21.9695C62.7452 21.969 62.758 21.9729 62.7687 21.9803C62.7795 21.9878 62.7875 21.9985 62.7916 22.0109C62.7957 22.0233 62.7958 22.0367 62.7917 22.0491C62.7876 22.0615 62.7796 22.0723 62.7689 22.0798C62.5923 22.2327 62.4014 22.3682 62.1988 22.4844C61.8678 22.6683 61.8126 22.889 61.9781 23.22C62.0803 23.4526 62.1658 23.6923 62.2337 23.9372C62.1804 23.974 62.1969 23.974 62.1418 24.0108C61.8736 23.8491 61.6156 23.671 61.3694 23.4775C61.3337 23.4403 61.2909 23.4107 61.2435 23.3905C61.1961 23.3703 61.1451 23.3599 61.0935 23.3599C61.042 23.3599 60.991 23.3703 60.9436 23.3905C60.8962 23.4107 60.8534 23.4403 60.8177 23.4775C60.5903 23.668 60.3438 23.8344 60.0821 23.974C60.0269 23.9924 59.9717 23.9556 59.9901 23.9004C60.0821 23.6246 60.1556 23.3487 60.266 23.0729C60.2874 23.0347 60.3006 22.9924 60.3047 22.9488C60.3089 22.9052 60.3038 22.8612 60.29 22.8197C60.2761 22.7781 60.2538 22.7399 60.2243 22.7075C60.1948 22.6751 60.1589 22.6492 60.1189 22.6315C59.843 22.4476 59.5874 22.2637 59.3115 22.0798L59.3483 21.9695C59.6242 21.9695 59.9184 21.9511 60.1943 21.9695C60.5069 21.9878 60.6724 21.8959 60.746 21.5833C60.8215 21.3082 60.9136 21.038 61.0218 20.7741C61.025 20.7619 61.0321 20.7511 61.0421 20.7434C61.0521 20.7356 61.0644 20.7314 61.077 20.7314C61.0896 20.7314 61.1019 20.7356 61.1118 20.7434C61.1218 20.7511 61.129 20.7619 61.1322 20.7741C61.2425 21.1051 61.3528 21.381 61.4448 21.6752C61.4653 21.7649 61.5176 21.844 61.592 21.8981C61.6663 21.9522 61.7578 21.9776 61.8494 21.9695H62.7321Z" fill="#1967A1"/>
<path d="M4.65585 46.6122C4.52528 46.3548 4.38 46.0789 4.26965 45.8031C4.25719 45.7535 4.23454 45.7071 4.20315 45.6668C4.17176 45.6265 4.13232 45.5932 4.08733 45.5689C4.04235 45.5447 3.99281 45.5301 3.94188 45.5261C3.89095 45.5221 3.83973 45.5287 3.79151 45.5456C3.49726 45.6008 3.20302 45.6192 2.90878 45.6559C2.89795 45.6159 2.87919 45.5783 2.85361 45.5456C3.07429 45.3433 3.27658 45.141 3.49726 44.9571C3.5388 44.931 3.57468 44.8968 3.60279 44.8566C3.63091 44.8163 3.65069 44.7709 3.66097 44.7229C3.67125 44.6749 3.67183 44.6254 3.66266 44.5772C3.6535 44.5289 3.63478 44.4831 3.60761 44.4422C3.4612 44.1887 3.34984 43.9165 3.27658 43.633C3.25819 43.5779 3.31336 43.5411 3.36853 43.5595C3.62087 43.6672 3.86652 43.7901 4.10414 43.9273C4.36161 44.0928 4.52712 44.0376 4.72941 43.8353C4.91694 43.6398 5.1268 43.4669 5.35468 43.3204C5.36336 43.3116 5.37476 43.3059 5.38703 43.3044C5.3993 43.3028 5.41174 43.3055 5.42235 43.3118C5.43296 43.3182 5.44112 43.3279 5.44552 43.3395C5.44992 43.351 5.45031 43.3638 5.44663 43.3756C5.41393 43.7519 5.31428 44.1193 5.15238 44.4606C5.14848 44.469 5.14634 44.4781 5.14609 44.4874C5.14584 44.4967 5.14748 44.5059 5.15093 44.5145C5.15437 44.5231 5.15954 44.5309 5.16612 44.5375C5.17269 44.544 5.18054 44.5491 5.18917 44.5525C5.57806 44.6442 5.94214 44.82 6.2558 45.0675C6.26459 45.0759 6.2708 45.0866 6.27372 45.0985C6.27665 45.1103 6.27615 45.1227 6.2723 45.1343C6.26845 45.1458 6.2614 45.156 6.25197 45.1638C6.24253 45.1715 6.23111 45.1763 6.21902 45.1778C5.94316 45.2146 5.66731 45.2514 5.39146 45.2698C5.15238 45.2881 4.98687 45.3617 4.95009 45.6376C4.91331 45.9502 4.82136 46.2444 4.76619 46.5387C4.73843 46.5746 4.69968 46.6004 4.65585 46.6122Z" fill="#1967A1"/>
<path d="M2.82966 23.9373C2.92161 23.6614 2.99701 23.404 3.10552 23.1281C3.21402 22.8523 3.18092 22.6868 2.92161 22.5212C2.70376 22.3812 2.49493 22.2277 2.29635 22.0615C2.28565 22.054 2.27766 22.0432 2.27356 22.0308C2.26947 22.0184 2.26949 22.005 2.27362 21.9926C2.27775 21.9802 2.28578 21.9695 2.2965 21.962C2.30722 21.9545 2.32007 21.9507 2.33313 21.9511H3.19747C3.24584 21.959 3.29528 21.957 3.3429 21.9455C3.39051 21.9339 3.43533 21.9129 3.47474 21.8838C3.51414 21.8547 3.54732 21.818 3.57235 21.7759C3.59737 21.7337 3.61372 21.687 3.62044 21.6385L3.91469 20.7558C3.91787 20.7436 3.92501 20.7328 3.93499 20.725C3.94497 20.7173 3.95724 20.7131 3.96986 20.7131C3.98248 20.7131 3.99474 20.7173 4.00472 20.725C4.01471 20.7328 4.02185 20.7436 4.02503 20.7558C4.17215 21.1971 4.30088 21.5282 4.39283 21.9144C4.39283 21.9511 4.42961 21.9695 4.46639 21.9695C4.88937 21.9328 5.31234 21.9511 5.71693 21.9511L5.75371 22.0615C5.49624 22.2454 5.23878 22.4293 4.98132 22.5948C4.76064 22.7235 4.72386 22.8707 4.81581 23.1097C4.92686 23.3851 5.01902 23.6678 5.09166 23.9557C5.11005 24.0109 5.03649 24.066 4.99971 24.0292C4.70547 23.8086 4.46639 23.643 4.22732 23.4591C4.16184 23.3945 4.07454 23.3568 3.98263 23.3534C3.89071 23.35 3.80086 23.3812 3.73078 23.4408C3.47332 23.643 3.19747 23.8086 2.92161 23.9925C2.88542 23.9855 2.85285 23.9659 2.82966 23.9373Z" fill="#1967A1"/>
<path d="M3.6609 29.3259C3.3685 29.1788 3.05403 29.0501 2.75978 28.8846C2.72736 28.8611 2.69057 28.8444 2.65158 28.8354C2.6126 28.8264 2.5722 28.8253 2.53278 28.8321C2.49336 28.839 2.45572 28.8537 2.42206 28.8753C2.3884 28.8969 2.35941 28.9251 2.33681 28.9581C2.12018 29.2019 1.87993 29.4237 1.61959 29.6202C1.6109 29.629 1.59951 29.6346 1.58724 29.6362C1.57497 29.6377 1.56253 29.6351 1.55192 29.6287C1.54131 29.6224 1.53315 29.6126 1.52875 29.6011C1.52434 29.5895 1.52395 29.5768 1.52764 29.565C1.56442 29.2891 1.6012 28.9949 1.65637 28.719C1.67097 28.6744 1.67631 28.6272 1.67208 28.5805C1.66784 28.5337 1.65412 28.4882 1.63175 28.4469C1.60938 28.4056 1.57882 28.3693 1.54195 28.3402C1.50508 28.3111 1.46267 28.2898 1.4173 28.2777C1.15305 28.1684 0.900445 28.0329 0.663299 27.8731C0.626518 27.8363 0.626518 27.7811 0.681689 27.7628C0.939152 27.7076 1.21501 27.6524 1.47247 27.6156C1.52353 27.6143 1.57378 27.6026 1.62021 27.5813C1.66664 27.56 1.70828 27.5296 1.74264 27.4918C1.77699 27.454 1.80335 27.4096 1.82013 27.3614C1.83691 27.3131 1.84376 27.262 1.84027 27.211C1.85866 26.9352 1.91383 26.6593 1.969 26.3283C1.98739 26.2731 2.06096 26.2548 2.07935 26.3099C2.26325 26.6226 2.41037 26.8616 2.5391 27.1191C2.55549 27.1654 2.58097 27.2079 2.61404 27.2441C2.64711 27.2804 2.6871 27.3097 2.73166 27.3302C2.77622 27.3508 2.82444 27.3622 2.87349 27.3639C2.92253 27.3655 2.97141 27.3573 3.01725 27.3398C3.30542 27.2647 3.60218 27.2276 3.89998 27.2294C3.95515 27.2294 3.99193 27.2846 3.93676 27.3398C3.68703 27.6111 3.42307 27.8689 3.14598 28.1122C3.12759 28.1306 3.1092 28.1673 3.12759 28.1857C3.34153 28.5249 3.53795 28.8747 3.71607 29.234C3.7091 29.2702 3.68956 29.3027 3.6609 29.3259Z" fill="#1967A1"/>
<path d="M61.3344 29.252C61.4797 28.9946 61.6287 28.7187 61.7739 28.4613C61.8086 28.4251 61.8346 28.3817 61.85 28.334C61.8654 28.2864 61.8699 28.236 61.863 28.1864C61.856 28.1368 61.838 28.0895 61.8102 28.0479C61.7823 28.0063 61.7454 27.9716 61.7022 27.9463C61.4264 27.7256 61.1689 27.505 60.9114 27.2843C60.9223 27.2442 60.941 27.2067 60.9666 27.1739C61.3344 27.2475 61.7022 27.2659 62.07 27.3578C62.1121 27.3739 62.157 27.3815 62.2021 27.38C62.2471 27.3785 62.2914 27.368 62.3323 27.3492C62.3733 27.3303 62.4101 27.3035 62.4405 27.2702C62.4709 27.237 62.4944 27.198 62.5095 27.1556C62.6567 26.8981 62.8056 26.6406 62.9895 26.328C63.0263 26.2728 63.0999 26.2912 63.0999 26.3464C63.1532 26.6774 63.2102 26.9533 63.2286 27.2291C63.247 27.4498 63.3206 27.5601 63.5596 27.5969C63.8541 27.6333 64.1439 27.7011 64.424 27.7992C64.4362 27.8024 64.447 27.8095 64.4547 27.8195C64.4624 27.8295 64.4666 27.8418 64.4666 27.8544C64.4666 27.867 64.4624 27.8793 64.4547 27.8892C64.447 27.8992 64.4362 27.9064 64.424 27.9095C64.2401 28.0015 64.0562 28.0934 63.8539 28.1854C63.3941 28.4061 63.3573 28.3509 63.4677 28.9026C63.5144 29.1262 63.5324 29.3549 63.521 29.5831C63.5195 29.5951 63.5147 29.6066 63.507 29.616C63.4993 29.6254 63.489 29.6325 63.4775 29.6363C63.4659 29.6402 63.4535 29.6407 63.4417 29.6378C63.4299 29.6348 63.4191 29.6286 63.4107 29.6198C63.2268 29.4359 63.0245 29.2704 62.859 29.0681C62.6383 28.7923 62.4378 28.7555 62.1417 28.9394C61.9045 29.0865 61.6452 29.1785 61.4061 29.3072C61.378 29.2951 61.3534 29.2761 61.3344 29.252Z" fill="#1967A1"/>
<path d="M19.2209 34.4931C18.8163 35.3022 18.3933 36.093 18.0439 36.9022C17.7717 37.4933 17.3541 38.0058 16.8302 38.3918C16.4623 38.686 16.1865 39.1274 15.9106 39.5136C15.175 40.5251 14.4578 41.5549 13.6854 42.548C13.8142 42.3089 13.9613 42.0698 14.09 41.8492C15.2854 39.8998 16.4623 37.9504 17.7129 36.0379C18.0991 35.431 18.6508 34.9344 19.1289 34.4011C19.1497 34.4402 19.1818 34.4723 19.2209 34.4931Z" fill="#1967A1"/>
<path d="M25.3981 62.4097H26.5383C26.7222 62.4097 26.9429 62.3545 26.9245 62.6856C26.9245 63.1085 26.5383 62.8511 26.3728 62.9798C26.3695 62.984 26.3653 62.9874 26.3605 62.9897C26.3558 62.9921 26.3505 62.9933 26.3452 62.9933C26.3399 62.9933 26.3346 62.9921 26.3298 62.9897C26.3251 62.9874 26.3209 62.984 26.3176 62.9798C25.8579 62.8511 25.6942 62.943 25.6942 63.274V65.4993C25.6942 65.7751 25.6206 65.9038 25.3264 65.8854C25.1057 65.8671 25.0505 65.7935 25.0505 65.5912V63.366C25.0505 62.8695 25.0137 62.9614 24.2027 62.943C23.9471 62.9798 23.8349 62.9062 23.8349 62.6672C23.8349 62.4649 23.9471 62.4097 24.131 62.4097H25.3981Z" fill="#1967A1"/>
</svg>
