<svg width="110" height="64" viewBox="0 0 110 64" fill="none" xmlns="http://www.w3.org/2000/svg">
<g clip-path="url(#clip0)">
<path d="M49.0043 32.9081C48.7338 32.8032 48.2904 32.338 49.0281 31.0425L50.7416 27.6936C50.7937 27.5924 50.6686 27.4657 50.5905 27.5517L49.0922 28.9603C48.3832 29.6523 47.1806 31.5971 46.9477 31.957L45.1275 34.7707C45.2626 34.7667 45.3758 34.8661 45.3801 34.9925C45.3814 35.0341 45.3708 35.0753 45.349 35.1117L43.6852 37.7247C43.279 38.3727 44.0089 38.8257 44.1078 38.6765C46.7228 34.738 48.2438 35.0524 48.2438 35.0524L49.1167 33.1622C49.1627 33.0675 49.1178 32.9559 49.0165 32.9129C49.0128 32.9111 49.0086 32.9097 49.0043 32.9081ZM54.9496 0C39.9984 0 27.8781 11.3278 27.8781 25.3014C27.8702 30.7109 29.7261 35.9789 33.1708 40.3248C34.3064 39.8664 34.9375 39.1813 35.3883 38.6566L40.4288 32.6316C40.535 32.5045 40.6736 32.4046 40.832 32.341L41.5907 32.0358L49.8787 22.2103L51.0804 21.331L53.5499 18.1184C53.6137 18.0353 53.6915 17.9622 53.7803 17.902L54.8577 17.17C55.1239 16.9891 55.4834 16.9863 55.7527 17.163L57.0601 18.0207C57.7538 18.4757 58.316 19.0841 58.6969 19.7916L63.934 28.3892C64.0195 28.5532 64.1648 28.6833 64.3437 28.7562C65.3708 29.234 65.9982 29.3185 67.3424 30.6832C67.9696 31.3195 70.7181 34.1924 74.5699 38.6574C75.1297 39.3737 75.8792 39.9415 76.7445 40.3052C80.1787 35.9626 82.0283 30.7024 82.0201 25.3014C82.0201 11.3277 69.9004 0 54.9496 0ZM35.1788 26.696L33.4236 26.1632L32.3393 27.558V25.8342L30.5839 25.3013L32.3393 24.7684V23.0442L33.4236 24.4393L35.1788 23.9065L34.0943 25.3014L35.1788 26.696ZM34.7627 32.3377L34.1926 33.9776L33.6224 32.3377H31.7776L33.27 31.3241L32.7 29.6843L34.1925 30.6979L35.6851 29.6843L35.1149 31.3241L36.6075 32.3377H34.7627ZM35.115 19.2777L35.6852 20.9175L34.1926 19.9039L32.7001 20.9175L33.2701 19.2777L31.7777 18.2642H33.6226L34.1927 16.6244L34.7629 18.2642H36.6077L35.115 19.2777ZM38.0774 15.5684L36.9937 14.1733L35.2385 14.7061L36.3228 13.3112L35.2385 11.9163L36.9937 12.4491L38.0781 11.0541V12.7784L39.8334 13.3103L38.0781 13.8433V15.5675L38.0774 15.5684ZM42.6912 9.532L42.121 11.1719L41.5509 9.5321H39.706L41.1986 8.51854L40.6286 6.87866L42.121 7.89202L43.6134 6.87846L43.0434 8.51967L44.536 9.53323H42.6911V9.532H42.6912ZM48.505 6.76326L47.4206 8.15832V6.43452L45.6652 5.90171L47.4206 5.3687V3.64448L48.505 5.03955L50.2595 4.50675L49.1751 5.90171L50.2596 7.29658L48.505 6.76326ZM55.872 5.18273L56.4422 6.8225L54.9496 5.80893L53.457 6.8225L54.0265 5.18345L52.5341 4.16988H54.3789L54.9492 2.53011L55.5194 4.16988H57.3642L55.872 5.18273ZM62.4779 6.43452V8.15874L61.3939 6.76367L59.6388 7.29658L60.7231 5.90171L59.6389 4.50675L61.3941 5.03955L62.4781 3.64448V5.3687L64.2334 5.90171L62.4779 6.43452ZM74.7195 23.9065L76.4747 24.4393L77.5588 23.0442V24.7684L79.3141 25.3013L77.5588 25.8342V27.5584L76.4747 26.1635L74.7195 26.6963L75.8051 25.3013L74.7195 23.9065ZM67.7779 11.1723L67.2074 9.53241H65.3627L66.8548 8.51884L66.2859 6.87887L67.7779 7.89244L69.2698 6.87907L68.7009 8.51884L70.193 9.53241H68.3482L67.7779 11.1723ZM71.8216 15.5688V13.8447L70.0663 13.3116L71.8216 12.7798V11.0547L72.9055 12.4497L74.6608 11.9169L73.5769 13.3118L74.6608 14.7067L72.9055 14.1739L71.8216 15.5688ZM75.1355 18.2647L75.7061 16.6249L76.2766 18.2647H78.1213L76.6294 19.2783L77.1998 20.918L75.7064 19.9045L74.2143 20.918L74.7848 19.2783L73.2912 18.2647H75.1355ZM76.2765 32.3377L75.706 33.9776L75.1353 32.3377H73.2906L74.7842 31.3241L74.2138 29.6843L75.7058 30.6979L77.1993 29.6843L76.6288 31.3241L78.1207 32.3377H76.2765ZM64.755 39.9237C64.885 39.747 65.0963 39.2623 64.6996 38.3642L63.5017 35.3532C63.3392 34.9688 63.6952 34.7356 63.9342 34.9883C63.9342 34.9883 66.1982 37.4284 66.7833 38.4472L67.8998 40.1796C68.8603 40.2376 71.5111 40.3052 74.0627 40.3052C73.8058 40.0667 73.5685 39.8104 73.3525 39.5385C68.9983 34.493 66.2369 31.6863 66.2093 31.6585C65.3269 30.7619 64.919 30.5896 64.2459 30.303C64.1484 30.2617 64.0427 30.2171 63.9339 30.1686V30.9346C63.9406 30.9863 63.901 31.0333 63.8456 31.0395C63.8008 31.0444 63.7578 31.021 63.7406 30.982L57.3391 20.4715L57.3213 20.4383C57.0543 19.9432 56.6608 19.5174 56.1757 19.1986L55.5513 18.7883L52.4973 25.3734C52.8622 25.3733 53.1582 25.6498 53.1584 25.991C53.1586 26.0755 53.1401 26.1591 53.1041 26.2366L50.2825 32.3374H52.8726C53.8736 32.3374 54.8651 32.5195 55.7915 32.8743L56.4742 33.1359C56.4742 33.1359 54.4144 37.0968 54.4144 39.1825C54.4174 39.5619 54.474 39.939 54.5826 40.3045H59.3305L59.1107 39.0542C60.9732 39.443 62.8575 39.7335 64.7549 39.9243V39.9237H64.755ZM28.1196 46.3419C28.1196 42.2672 23.4977 40.3052 18.0067 40.3052C12.133 40.3052 6.74361 42.7385 4.76548 46.5116C4.21955 47.5168 3.93586 48.6288 3.9374 49.7564C3.91243 50.7314 4.20096 51.6908 4.76548 52.5107C5.61303 53.6809 7.12674 54.4165 9.3472 54.4165C12.0726 54.4165 14.2324 53.0201 14.2324 50.5866C14.2324 50.5866 14.2725 49.908 13.4249 49.908C12.7386 49.908 12.5567 50.3605 12.577 50.5866C12.6784 52.4921 11.4669 54.0204 9.30694 54.0204C6.8854 54.0204 5.87527 52.0961 5.87527 50.0399C5.87527 45.8328 9.26646 43.0404 12.7989 41.8333C14.4497 41.2504 16.2027 40.9621 17.9672 40.9838C21.9639 40.9838 25.234 42.4178 25.234 46.2667C25.234 49.4733 22.3476 52.2089 18.8954 52.4543L19.0367 52.0206C19.7434 49.6621 20.6113 47.0778 22.0239 45.1723C22.1052 45.0584 22.2461 44.8703 22.4077 44.6818L22.2061 44.4552C21.904 44.6266 21.614 44.8156 21.3374 45.0211C14.7173 49.8509 14.5162 63.4339 5.69443 63.4339C5.39061 63.4339 5.08734 63.4148 4.78627 63.3772C2.94971 63.0943 1.98017 61.9432 1.98017 60.3404C1.98017 60.0197 2.1015 59.5855 2.1015 59.3406C2.11547 58.8849 1.73179 58.5051 1.24449 58.4918C1.24064 58.4917 1.23701 58.4917 1.23338 58.4917H1.13273C0.345683 58.4917 0.0226124 59.0758 0.00237245 59.9064C-0.0579075 62.3024 1.83893 63.698 4.76636 63.9626C5.08899 63.9813 5.41206 64 5.75526 64C12.6381 64 16.8568 59.1327 18.6535 53.2277C19.5636 53.128 20.462 52.9514 21.3379 52.7C24.5279 51.8689 28.1196 49.8701 28.1196 46.3419ZM93.683 47.7566H91.2598L90.7154 48.9453L89.7662 50.945H88.6366L88.292 51.6243H89.4637L88.0499 54.5485C87.0422 56.6048 85.4672 58.6235 84.5587 58.6235C84.3572 58.6235 84.2353 58.5476 84.2353 58.3597C84.2353 58.1717 84.2955 58.0007 84.5181 57.4727C84.8009 56.8497 85.2657 55.9444 85.6087 55.2843C86.1125 54.3223 86.9203 52.8318 86.9203 52.0961C86.9203 51.3602 86.4164 50.7753 85.4266 50.7753C84.3166 50.7753 83.3072 51.3985 82.3776 52.3031L82.9838 50.945H80.7037L78.8459 54.9068C78.0998 56.3029 76.585 58.6234 75.6358 58.6234C75.4343 58.6234 75.353 58.5099 75.353 58.3215C75.3727 58.1521 75.4203 57.9865 75.4945 57.8307C75.5757 57.661 76.6858 55.2275 76.6858 55.2275L78.7044 50.9072H76.2422L74.2836 55.114C73.6791 56.4159 72.1449 58.6232 71.155 58.6232C70.9826 58.6389 70.829 58.5211 70.8121 58.3596C70.8121 58.3596 70.8121 58.3595 70.8121 58.3592V58.2833C70.8121 58.0572 70.9942 57.6419 71.1356 57.3399L72.1645 55.2274L74.2837 50.9071H71.8426L71.3566 51.8881C70.9943 52.5483 70.388 53.3217 69.4194 53.3217C68.9547 53.3217 68.7336 53.1524 68.6328 52.9823C68.4915 51.5296 67.5017 50.756 66.0486 50.756C64.03 50.756 62.5967 51.8691 61.6474 53.2276C61.0255 54.164 60.537 55.1722 60.1947 56.2268C59.3265 57.5666 58.4186 58.6045 57.6918 58.6045C57.5099 58.6045 57.3886 58.5096 57.3886 58.2835C57.3886 58.0571 57.631 57.548 57.7118 57.3586L59.3064 54.1895C59.7505 53.2089 60.054 52.5674 60.054 51.9258C60.054 51.2465 59.5502 50.7556 58.7213 50.7556C57.5707 50.7556 56.3189 51.3787 55.33 52.3969C55.3635 52.2354 55.3769 52.0706 55.3702 51.9062C55.3702 51.1514 54.9668 50.7551 54.1388 50.7551C53.0895 50.7551 51.9996 51.3406 51.0106 52.3965L51.6566 50.9243H49.4358L47.559 54.8873C46.671 56.7552 45.2378 58.6045 44.4301 58.6045C44.2487 58.6045 44.1274 58.5094 44.1274 58.2833C44.1274 57.9251 44.5514 57.0383 44.7126 56.6798L47.1957 51.4165C47.3773 51.0205 46.1861 50.7749 44.6723 50.7749C43.1181 50.7749 41.5233 51.4921 40.3529 52.4162C39.5254 53.0573 38.9197 53.3783 38.6163 53.3783C38.5174 53.3981 38.42 53.3391 38.3986 53.2468C38.3958 53.2342 38.3945 53.2215 38.3947 53.2087C38.3947 52.8879 39.2222 51.9819 39.2222 51.2841C39.2222 50.9635 39.0408 50.7557 38.576 50.7557C37.6884 50.7557 36.6382 51.5483 35.8713 52.378L36.5173 50.9251H34.3377L32.4607 54.8873C31.5724 56.7552 30.0988 58.6986 29.2914 58.6986C29.1096 58.6986 28.989 58.6045 28.989 58.3777C28.989 58.0193 29.3927 57.1519 29.6146 56.6986L32.0975 51.4165C32.2791 51.0205 31.088 50.7749 29.5739 50.7749C27.3333 50.7749 25.1531 52.1898 24.0027 53.6426C22.7312 55.2079 21.8636 56.8683 21.8431 58.2269C21.8233 59.321 22.4281 60 23.6395 60C24.9921 60 26.0824 59.0004 26.7077 58.2455C26.6707 58.3948 26.6435 58.546 26.6264 58.6985C26.6264 59.4526 26.9495 59.9999 27.9384 59.9999C28.8062 59.9999 29.9569 59.3208 30.8855 58.2454L30.1378 59.8491H32.4991L34.8207 54.9251C35.5895 53.3218 36.4575 52.4921 36.6988 52.4921C36.7544 52.4821 36.808 52.5161 36.8188 52.568C36.8199 52.574 36.8206 52.5801 36.8206 52.5863C36.8206 52.7562 36.4575 53.2095 36.4575 53.6238C36.4575 54.0383 36.6989 54.3594 37.3458 54.3594C37.8496 54.3594 38.4151 54.1329 38.9199 53.8307C37.7291 55.3405 36.9209 56.9251 36.9209 58.2272C36.901 59.3214 37.5059 60.0003 38.7175 60.0003C39.9889 60.0003 41.1799 58.8684 41.8258 58.1137C41.8015 58.289 41.7881 58.4653 41.7855 58.6419C41.7855 59.3781 42.2298 60.0003 43.138 60.0003C44.1469 60.0003 44.9546 59.4152 45.9639 58.2649L45.2163 59.8496H47.6381L49.8582 55.1518C50.8272 53.1143 52.139 52.0197 52.785 52.0197C52.9464 52.0041 53.091 52.1138 53.1078 52.2649C53.1078 52.2652 53.1078 52.2655 53.108 52.2658V52.322C53.0813 52.5511 53.013 52.7744 52.9062 52.9821L49.7198 59.8683H52.2027L54.4636 55.0761C55.4319 53.0201 56.5022 52.0197 57.3095 52.0197C57.5516 52.0197 57.6529 52.1336 57.6529 52.3782C57.6314 52.6409 57.5559 52.8974 57.4308 53.1337L55.2505 57.4724C55.0498 57.89 54.9269 58.3364 54.8871 58.7927C54.8871 59.4531 55.2704 60.0389 56.361 60.0389C57.7749 60.0389 58.8438 59.039 60.0545 57.5487V57.8692C60.1558 59.0578 60.8621 60.0954 62.7391 60.0954C64.9594 60.0954 66.7568 58.6615 67.8457 56.3793C68.2576 55.5769 68.5241 54.7158 68.6339 53.8315C68.877 53.9468 69.1487 53.9992 69.4205 53.9835C69.7874 53.9873 70.1488 53.9028 70.4705 53.7379L70.087 54.5111C69.6416 55.3791 69.1573 56.3414 68.7754 57.1531C68.5335 57.6331 68.3895 58.1511 68.3513 58.6806C68.3513 59.4915 68.8355 60.0769 69.8238 60.0769C70.812 60.0769 72.1658 59.209 73.1346 57.9828H73.1556C73.0907 58.2363 73.0565 58.4955 73.0532 58.7561C73.0532 59.4355 73.2758 60.077 74.285 60.077C75.4569 60.077 76.3638 59.2845 77.2527 58.2844L76.5052 59.8693H78.9478L80.9065 55.7189C82.0166 53.3796 83.1266 51.9649 84.1552 51.9649C84.332 51.9591 84.4831 52.083 84.4999 52.2478V52.3036C84.4999 52.7001 83.8937 53.7755 83.3492 54.8506C82.8437 55.8317 82.4601 56.586 82.1984 57.1714C81.9556 57.6645 81.8119 58.1951 81.7744 58.7368C81.7744 59.4533 82.1984 60.0007 83.1477 60.0007C84.56 60.0007 85.9936 58.7178 86.759 57.7555C86.5863 58.2168 86.4914 58.7003 86.4778 59.1889C86.4778 60.5101 87.3244 61.1703 88.5157 61.1703C89.3073 61.1646 90.0768 60.9272 90.7164 60.4914C91.6445 59.8874 92.3921 58.9821 93.0178 58.152L92.5938 57.7743C92.0087 58.548 91.3619 59.2839 90.6954 59.7367C90.3442 60.0143 89.9035 60.1738 89.4438 60.1895C88.9401 60.1895 88.6166 59.944 88.6166 59.3408C88.6166 58.7378 88.9189 57.9256 89.3839 56.8312C89.4032 56.8128 90.0696 55.4164 90.6954 54.0773C91.2203 52.9446 91.7452 51.8509 91.8461 51.6245H93.4406L93.7637 50.9452H92.1891L93.683 47.7566ZM24.8301 58.6422C24.4872 58.6422 24.2449 58.5291 24.2449 58.114C24.265 57.0008 25.2538 55.02 26.4859 53.4351C27.3535 52.3409 28.4838 51.5301 29.695 51.5301L28.1607 54.7366C27.0101 57.1518 25.7587 58.6422 24.8301 58.6422ZM39.9289 58.6422C39.586 58.6422 39.3438 58.5291 39.3239 58.114C39.3439 57.0008 40.3328 55.02 41.5644 53.4351C42.4319 52.3409 43.5626 51.5301 44.7737 51.5301L43.2392 54.7367C42.0688 57.2088 40.8779 58.6423 39.9285 58.6423H39.9289V58.6422ZM66.7345 52.3981C66.6744 53.6239 65.5237 56.5854 64.1714 58.3596C63.627 59.0763 63.1621 59.2835 62.7591 59.2835C62.1934 59.2835 62.0309 58.8494 62.1121 58.2082C62.2325 57.0953 63.2222 54.4919 64.5956 52.6996C65.2213 51.8883 65.6455 51.5487 66.1298 51.5487C66.6142 51.5488 66.7555 51.9263 66.7345 52.3981ZM104.408 50.9449L106.632 46.1466H104L101.777 50.9449H96.1844L95.2515 52.9571H100.846L98.6223 57.7554H101.254L103.477 52.9571H109.069L110.001 50.9449H104.408Z" fill="#0064FF"/>
</g>
<defs>
<clipPath id="clip0">
<rect width="110" height="64" fill="white"/>
</clipPath>
</defs>
</svg>
