<svg width="82" height="74" viewBox="0 0 82 74" fill="none" xmlns="http://www.w3.org/2000/svg">
<path d="M73.4458 61.355H74.1061V63.7296H73.6559V61.8596L72.9356 63.7296H72.6054L71.8851 61.8596V63.7296H71.4348V61.355H72.0952L72.7255 63.0469L73.4458 61.355ZM70.2343 63.7296V61.7409H70.9546V61.355H69.0037V61.7409H69.754V63.7296H70.2343ZM8.52416 66.7573H73.2057V66.2824H8.52416V66.7573ZM12.6362 69.785L14.1069 73.2282H13.3265L13.0264 72.4565H11.5556L11.2255 73.2282H10.4451L11.9158 69.785H12.6362ZM12.7262 71.8035L12.276 70.7052L11.8258 71.8035H12.7262ZM17.7987 72.219L16.8982 69.8147H16.0578L17.4385 73.2579H18.0988L19.4795 69.8147H18.6691L17.7987 72.219ZM20.0198 73.2282H20.7701V70.6161H20.0198V73.2282ZM20.0198 70.3193H20.8001V69.6663H20.0198V70.3193ZM23.5915 70.8833C23.8016 71.0911 23.8917 71.3582 23.8917 71.7144V73.2282H23.1713V72.9314C22.9912 73.1392 22.7511 73.2579 22.3609 73.2579C21.8507 73.2579 21.4605 72.9611 21.4605 72.4565C21.4605 71.8925 21.9107 71.6254 22.541 71.6254C22.8111 71.6254 22.9912 71.655 23.2013 71.7441V71.7144C23.2013 71.4176 23.0212 71.2395 22.631 71.2395C22.3309 71.2395 22.1508 71.2988 21.9107 71.3879L21.7306 70.8239C22.0307 70.7052 22.3009 70.6161 22.7511 70.6161C23.1113 70.5864 23.4114 70.7052 23.5915 70.8833ZM23.1713 72.1596C23.0512 72.1003 22.8712 72.0706 22.6911 72.0706C22.3609 72.0706 22.1808 72.1893 22.1808 72.4268C22.1808 72.6346 22.3609 72.7533 22.601 72.7533C22.9612 72.7533 23.2013 72.5752 23.2013 72.3081V72.1596H23.1713ZM25.9026 72.6346C25.4824 72.6346 25.2423 72.3081 25.2423 71.9222C25.2423 71.5363 25.5124 71.2098 25.8726 71.2098C26.1428 71.2098 26.2928 71.3285 26.4729 71.5066L26.9231 71.0317C26.683 70.7645 26.3829 70.5864 25.8726 70.5864C25.0622 70.5864 24.4919 71.2098 24.4919 71.9519C24.4919 72.6939 25.0622 73.2876 25.8726 73.2876C26.3829 73.2876 26.683 73.0798 26.9531 72.8127L26.5029 72.3674C26.3228 72.5455 26.1728 72.6346 25.9026 72.6346ZM30.2247 71.9222C30.2247 72.6643 29.6245 73.2876 28.784 73.2876C27.9736 73.2876 27.3734 72.6939 27.3734 71.9519C27.3734 71.2098 27.9736 70.5864 28.8141 70.5864C29.6244 70.5568 30.2247 71.1504 30.2247 71.9222ZM29.4744 71.9222C29.4744 71.5363 29.2042 71.2098 28.784 71.2098C28.3638 71.2098 28.0937 71.5363 28.0937 71.9222C28.0937 72.3081 28.3638 72.6346 28.784 72.6346C29.2343 72.6346 29.4744 72.3081 29.4744 71.9222ZM34.0066 70.5568C33.6464 70.5568 33.3763 70.7052 33.1362 70.9723C32.9861 70.7052 32.746 70.5568 32.3858 70.5568C31.9956 70.5568 31.7855 70.7645 31.6054 70.9723V70.5864H30.855V73.1986H31.6054V71.7441C31.6054 71.3879 31.7855 71.2098 32.0556 71.2098C32.3258 71.2098 32.5059 71.3879 32.5059 71.7441V73.1986H33.2562V71.7441C33.2562 71.3879 33.4363 71.2098 33.7064 71.2098C33.9766 71.2098 34.1567 71.3879 34.1567 71.7441V73.1986H34.907V71.4769C34.907 70.8833 34.5769 70.5568 34.0066 70.5568ZM37.3982 72.6049C36.7979 72.6049 36.4078 72.13 36.4078 71.5363C36.4078 70.9426 36.828 70.4677 37.3982 70.4677C37.7584 70.4677 37.9985 70.6161 38.2687 70.8536L38.7489 70.3193C38.4187 69.9928 38.0285 69.785 37.3982 69.785C36.3477 69.785 35.5974 70.5864 35.5974 71.5363C35.5974 72.5158 36.3477 73.2876 37.3682 73.2876C38.0285 73.2876 38.4187 73.0501 38.7789 72.6939L38.2987 72.219C38.0285 72.4268 37.7884 72.6049 37.3982 72.6049ZM42.4707 72.2487C42.4707 72.872 41.9605 73.1986 41.1801 73.1986H39.5293V69.8147H41.1201C41.5102 69.8147 41.8104 69.9334 42.0205 70.1115C42.1706 70.2599 42.2606 70.4677 42.2606 70.6755C42.2606 71.0614 42.0505 71.2691 41.8104 71.4176C42.2006 71.566 42.4707 71.8035 42.4707 72.2487ZM40.2496 71.1801H40.94C41.2701 71.1801 41.4802 71.0614 41.4802 70.8239C41.4802 70.5864 41.3001 70.4677 40.97 70.4677H40.2196V71.1801H40.2496ZM41.6903 72.1596C41.6903 71.9222 41.5102 71.8035 41.1201 71.8035H40.2496V72.5455H41.1501C41.5103 72.5455 41.6903 72.4268 41.6903 72.1596ZM44.6018 71.2098C44.0015 71.0614 43.8514 70.9723 43.8514 70.7645C43.8514 70.5864 44.0015 70.4677 44.3016 70.4677C44.6018 70.4677 44.9019 70.5864 45.202 70.7942L45.5922 70.2302C45.2321 69.9631 44.8119 69.785 44.3016 69.785C43.6113 69.785 43.101 70.2006 43.101 70.8239C43.101 71.5066 43.5512 71.6847 44.2416 71.8628C44.8119 72.0112 44.9319 72.1003 44.9319 72.3081C44.9319 72.5158 44.7518 72.6346 44.4217 72.6346C44.0315 72.6346 43.7013 72.4862 43.4012 72.219L42.951 72.7533C43.3712 73.1095 43.8814 73.2876 44.4217 73.2876C45.172 73.2876 45.6823 72.9017 45.6823 72.219C45.6823 71.6254 45.2921 71.3879 44.6018 71.2098ZM49.7042 72.5752C49.104 72.5752 48.7138 72.1003 48.7138 71.5066C48.7138 70.913 49.134 70.438 49.7042 70.438C50.0644 70.438 50.3045 70.5864 50.5747 70.8239L51.0549 70.2896C50.7247 69.9928 50.3346 69.7553 49.7042 69.7553C48.6537 69.7553 47.9034 70.5568 47.9034 71.5066C47.9034 72.4862 48.6537 73.2579 49.6742 73.2579C50.3346 73.2579 50.7247 73.0205 51.0849 72.6643L50.6047 72.1893C50.3346 72.4268 50.0944 72.5752 49.7042 72.5752ZM54.4165 71.9222C54.4165 72.6643 53.8162 73.2876 52.9758 73.2876C52.1654 73.2876 51.5651 72.6939 51.5651 71.9519C51.5651 71.2098 52.1654 70.6161 53.0059 70.6161C53.8162 70.5568 54.4165 71.1504 54.4165 71.9222ZM53.6962 71.9222C53.6962 71.5363 53.4261 71.2098 53.0059 71.2098C52.5857 71.2098 52.3155 71.5363 52.3155 71.9222C52.3155 72.3081 52.5857 72.6346 53.0059 72.6346C53.4261 72.6346 53.6962 72.3081 53.6962 71.9222ZM58.2284 70.5568C57.8682 70.5568 57.5981 70.7052 57.358 70.9723C57.2079 70.7052 56.9678 70.5568 56.6076 70.5568C56.2174 70.5568 56.0073 70.7645 55.8272 70.9723V70.5864H55.1069V73.1986H55.8572V71.7441C55.8572 71.3879 56.0373 71.2098 56.3075 71.2098C56.5776 71.2098 56.7577 71.3879 56.7577 71.7441V73.1986H57.5081V71.7441C57.5081 71.3879 57.6881 71.2098 57.9583 71.2098C58.2284 71.2098 58.4085 71.3879 58.4085 71.7441V73.1986H59.1589V71.4769C59.1288 70.8833 58.7987 70.5568 58.2284 70.5568ZM62.6706 71.8925C62.6706 72.783 62.1003 73.2579 61.47 73.2579C61.0798 73.2579 60.8097 73.0798 60.6596 72.872V74H59.9092V70.6161H60.6596V71.002C60.8397 70.7645 61.0798 70.5864 61.47 70.5864C62.0703 70.5568 62.6706 71.0317 62.6706 71.8925ZM61.9202 71.8925C61.9202 71.4473 61.6201 71.1801 61.2899 71.1801C60.9297 71.1801 60.6596 71.4769 60.6596 71.8925C60.6596 72.3377 60.9597 72.6049 61.2899 72.6049C61.6201 72.6346 61.9202 72.3377 61.9202 71.8925ZM65.3419 70.8833C65.552 71.0911 65.612 71.3582 65.612 71.7144V73.2282H64.8917V72.9314C64.7116 73.1392 64.4714 73.2579 64.0813 73.2579C63.571 73.2579 63.1808 72.9611 63.1808 72.4565C63.1808 71.8925 63.631 71.6254 64.2613 71.6254C64.5315 71.6254 64.7116 71.655 64.9217 71.7441V71.7144C64.9217 71.4176 64.7416 71.2395 64.3514 71.2395C64.0512 71.2395 63.8712 71.2988 63.631 71.3879L63.4509 70.8239C63.7511 70.7052 64.0212 70.6161 64.4715 70.6161C64.8316 70.5864 65.1318 70.6755 65.3419 70.8833ZM64.8917 72.1596C64.7716 72.1003 64.5915 72.0706 64.4114 72.0706C64.0813 72.0706 63.9012 72.1893 63.9012 72.4268C63.9012 72.6346 64.0813 72.7533 64.3214 72.7533C64.6816 72.7533 64.9217 72.5752 64.9217 72.3081V72.1596H64.8917ZM67.8931 70.5568C67.5029 70.5568 67.2928 70.7645 67.1127 70.9723V70.6161H66.3624V73.2282H67.1127V71.7738C67.1127 71.4176 67.2928 71.2395 67.593 71.2395C67.8631 71.2395 68.0432 71.4176 68.0432 71.7738V73.2282H68.7936V71.5363C68.7936 70.913 68.4634 70.5568 67.8931 70.5568ZM70.6545 72.3674L70.0542 70.5864H69.2738L70.2943 73.1986C70.2343 73.3173 70.1742 73.3767 70.0242 73.3767C69.9341 73.3767 69.8141 73.347 69.694 73.2876L69.4539 73.8219C69.634 73.9406 69.8441 74 70.1142 74C70.5644 74 70.7745 73.7922 70.9846 73.2579L72.0051 70.5864H71.2247L70.6545 72.3674ZM78.8485 43.5748L79.929 45.2667L80.0791 43.2483L82 42.7734L80.1391 42.061L80.2892 40.0722L78.9685 41.6157L77.0776 40.8736L78.1581 42.5359L76.8675 44.0794L78.8485 43.5748ZM74.5564 27.4569L76.2072 28.6145L75.5769 30.5142L77.2277 29.2972L78.9085 30.4549L78.2782 28.5552L79.869 27.3975L77.888 27.4272L77.2577 25.5275L76.6274 27.4569H74.5564ZM37.3982 25.7946C37.8485 25.7946 38.4487 25.0229 38.8089 24.3105C39.1691 23.5684 39.3492 23.1231 39.7994 22.1733C39.8294 22.1436 39.7694 22.1436 39.7394 22.1436C39.2291 22.1436 38.6589 22.6482 38.2987 23.0638C37.8785 23.5684 37.1581 24.5479 37.0681 25.2603C37.008 25.6462 37.1581 25.7946 37.3982 25.7946ZM48.7138 26.4773C49.224 26.7445 49.8243 25.6462 50.3646 24.637C50.9048 23.6278 51.325 22.3811 50.8748 22.2327C50.3646 22.0249 49.7042 23.0044 49.164 24.0136C48.6537 25.0229 48.2635 26.2696 48.7138 26.4773ZM79.6288 47.5227L78.0381 48.799L76.3272 47.7008L77.0776 49.5708L75.4868 50.8175L77.5278 50.6988L78.2782 52.5688L78.7884 50.6394L80.7994 50.5503L79.1186 49.4818L79.6288 47.5227ZM42.9209 39.8644C43.101 40.3987 43.7914 43.6639 44.0015 44.3169C44.2116 44.9996 44.4217 45.0293 44.5417 45.2667C44.9619 46.276 45.5322 46.3057 45.8324 46.3947C46.6728 46.6322 46.7328 47.7601 47.3031 48.7694C47.7833 49.7192 48.2936 50.5503 48.7138 51.5596C49.164 52.5688 51.4151 58.1195 51.8053 58.9507C51.9553 59.2475 53.0059 59.2475 52.8858 58.9507C52.6157 58.357 51.9854 56.8135 51.6252 55.2996C51.355 54.2904 52.3155 55.0028 51.7152 53.4296C51.4451 52.6875 50.9348 51.9751 50.6347 51.6783C50.3346 51.3815 50.0344 50.1348 49.7943 49.5708C49.5542 49.0365 49.6742 49.0068 49.194 47.6711C48.8338 46.7212 49.8843 47.0477 49.284 45.5339C48.8939 44.584 46.9729 41.0814 46.7628 40.7549C46.6427 40.5471 46.2826 39.9535 45.8023 39.2411C45.3821 38.5584 45.022 37.8163 44.8119 37.5195C44.3916 36.8961 43.6713 35.4713 43.2511 34.9073C42.8309 34.3137 42.3206 33.0373 42.1105 33.2451C41.9004 33.4232 42.7408 35.3526 43.071 36.5993C43.4312 37.8163 43.1611 38.3209 42.951 38.6771C42.6808 39.0036 42.6808 39.2114 42.9209 39.8644ZM41.1201 6.88648C59.9392 6.88648 75.2167 21.9952 75.2167 40.6065C75.2167 46.4838 73.6859 52.0345 70.9846 56.8432C68.1032 53.0437 59.9993 42.4172 59.6391 41.8235C59.2489 41.1408 58.1684 40.1613 58.1684 40.1613C58.1684 40.1613 58.0783 40.1019 57.6881 39.8644C56.9078 38.8849 56.2174 39.063 56.0073 39.0036C55.7972 38.9442 55.6471 38.7661 55.287 38.499C54.9268 38.2318 54.5066 38.2912 54.0264 37.9944C52.9758 37.282 49.7943 33.9575 49.0139 33.2748C48.6537 32.9186 48.2035 32.2062 47.5432 32.2062C46.8829 32.2062 45.6823 31.2563 45.4722 31.0485C45.2921 30.8408 44.1816 29.8909 44.0315 29.7128C43.8814 29.5644 43.101 28.3474 41.2701 28.3474C39.7094 28.3474 38.3287 29.9799 37.4883 30.6923C36.6779 31.4047 35.8375 31.9093 35.4173 32.2655C35.0271 32.6217 34.4868 33.3045 34.2467 33.4826C34.0066 33.6607 33.5264 34.2246 33.1061 34.4621C32.866 34.6105 32.5359 34.8777 31.9356 35.59C30.8551 36.8664 29.9846 35.412 27.9736 37.6976C26.653 39.1817 15.1274 52.0345 10.7452 56.0714C8.31405 51.3815 6.9634 45.6823 6.9634 40.6065C6.99341 21.9952 22.2709 6.88648 41.1201 6.88648ZM30.3748 22.1733C29.2042 22.8263 28.3638 23.6871 27.8836 24.8744C27.7335 25.3197 27.6435 25.7649 27.8536 26.2102C28.0037 26.507 28.3038 26.7445 28.694 26.6258C29.3243 26.507 29.8045 26.0915 30.3148 25.5868H30.3448C30.3448 25.7946 30.3148 26.0321 30.3448 26.2399C30.4048 26.3883 30.5849 26.5664 30.765 26.5961C31.3653 26.7148 32.1457 26.0915 32.776 25.5275C32.806 25.4978 32.806 25.5275 32.806 25.5572L32.3558 26.5367H33.5564L34.5769 24.2214C34.757 23.8355 34.907 23.509 35.2972 23.2419C35.3272 23.2122 35.4173 23.2122 35.3873 23.2419C35.3873 23.3903 35.4173 23.5684 35.5073 23.6871C35.5974 23.8059 35.7474 23.8949 35.8975 23.9246C36.0776 23.9543 36.3477 23.9246 36.4678 23.8652C36.2577 24.1917 36.0776 24.5776 35.9275 24.9041C35.6574 25.4681 35.7174 25.943 35.8675 26.2696C35.9876 26.5367 36.3477 26.7742 36.7079 26.6851C37.3682 26.5367 37.8184 26.1211 38.3587 25.6462C38.3587 25.6165 38.4187 25.6165 38.4187 25.6462C38.3587 25.8243 38.3587 26.0321 38.3887 26.2696C38.4488 26.4477 38.6288 26.6258 38.8389 26.6258C39.4392 26.7445 40.2796 26.0321 40.91 25.5275C40.91 25.4978 40.94 25.5275 40.94 25.5572C40.8199 25.8243 40.5798 26.3289 40.4597 26.5961H41.6603L42.5608 24.637C42.7108 24.2808 42.8909 23.9543 43.101 23.5981C43.2811 23.2716 43.5512 23.0044 43.8214 22.7966C43.9714 22.7373 44.1515 22.6482 44.2416 22.6779C44.3016 22.7076 44.3316 22.8857 44.2716 22.9747C43.7313 24.1917 43.2211 25.3494 42.6808 26.5664H43.9114C44.2716 25.7056 44.6918 24.8744 45.082 23.984C45.172 23.7762 45.2921 23.5981 45.4422 23.42C45.6823 23.0044 45.9824 22.7966 46.3726 22.5889C46.4927 22.5295 46.7028 22.6185 46.6427 22.7669C46.2225 23.7762 45.8624 24.5776 45.4121 25.4978C45.2921 25.7946 45.172 26.1508 45.3521 26.4773C45.4422 26.5961 45.5322 26.7148 45.6823 26.7445C46.5827 26.8632 47.243 26.1508 47.8133 25.5572C47.8133 25.943 47.9934 26.3586 48.2635 26.5367C48.8038 26.9226 49.4641 26.8632 50.0044 26.5664C51.1449 26.0321 51.8953 24.9041 52.1654 23.6574H52.1955C52.4056 23.7168 52.7657 23.7168 53.0959 23.5981C52.7357 24.4886 52.3755 25.2306 52.2855 25.4978C51.8653 26.4773 52.4656 26.9523 53.1559 26.7445C53.7562 26.5367 54.1764 26.1508 54.6266 25.7056H54.6567C54.5366 26.0024 54.5966 26.3289 54.7167 26.5367C54.8367 26.7742 55.0769 26.8632 55.317 26.7742C55.9473 26.5961 56.5776 26.0618 57.0578 25.5868C57.0578 25.5572 57.0878 25.5572 57.0878 25.5868C56.9378 25.943 56.7277 26.3883 56.5776 26.7148H57.7782C58.0483 26.1805 58.3184 25.6165 58.5586 25.0822C58.9187 24.2511 59.3389 23.4497 60.1794 22.856C60.3594 22.7373 60.5695 22.7373 60.6296 22.7966C60.6896 22.8263 60.6896 22.9747 60.6896 23.0044C60.2694 23.9543 59.9092 24.7854 59.489 25.7056C59.399 25.9134 59.399 26.2102 59.429 26.418C59.489 26.7445 59.8792 26.8335 60.1794 26.8039C60.8697 26.6851 61.3499 26.1805 61.9202 25.7946C61.8602 26.0618 61.8602 26.3586 61.9202 26.5961C61.9502 26.7445 61.9802 26.8632 62.1003 26.9819C62.2504 27.2194 62.5805 27.3975 62.8807 27.3975C63.8712 27.4272 64.8917 26.4773 65.3719 25.5572C65.4019 25.4978 65.0417 25.4384 65.0117 25.5275C64.6215 26.1508 64.1413 26.7148 63.4509 26.9523C63.2408 27.0116 62.9707 26.9819 62.9107 26.7742C62.8206 26.418 63.0007 25.8243 63.1508 25.4978C63.631 24.4589 64.0512 23.5684 64.5615 22.4701H65.4619L65.642 22.1139H64.7416L65.612 20.1845H64.4114L63.511 22.1139H62.8807L62.7006 22.4701H63.3309C63.0007 23.2716 62.7306 23.7465 62.3704 24.5776C61.9502 25.4978 61.1098 26.0321 60.8997 25.9134C60.7496 25.8243 60.8097 25.6759 60.8397 25.4978C61.1698 24.7557 61.56 23.9543 61.8902 23.1825C62.0403 22.8857 62.1303 22.5592 61.9502 22.2623C61.8001 21.9952 61.47 21.9655 61.1998 22.0249C60.5996 22.1139 60.1193 22.4998 59.6691 22.856L59.9693 22.1733H58.7387C58.4085 22.856 58.1684 23.3903 57.8382 24.1027C57.5381 24.6964 56.6376 25.6759 56.1274 25.9727C56.0373 26.0024 55.8873 26.0321 55.8272 25.9134C55.7672 25.6759 55.8873 25.4978 55.9473 25.3197C56.3375 24.4589 56.8777 23.2716 57.358 22.1733H56.1574C55.7972 23.0044 55.437 23.6871 55.0468 24.4886C54.7167 25.1416 54.0564 25.943 53.6662 26.0024C53.5161 26.0321 53.396 26.0024 53.396 25.8837C53.396 25.7353 53.4261 25.6165 53.5161 25.4384L54.9868 22.1436C54.6567 22.1436 54.1164 22.1733 53.8162 22.1436C53.7562 22.2623 53.6662 22.4701 53.6061 22.6482C53.336 23.0638 52.6757 23.6574 52.1955 23.3012C52.1955 23.0935 52.1354 23.0044 52.1054 22.8263C52.0154 22.4998 51.8053 22.1733 51.4451 22.0546C50.4846 21.7577 49.5242 22.2623 48.8938 22.9747C48.2936 23.5684 47.8734 24.2808 47.7833 25.0525C47.4832 25.4978 47.243 25.7056 46.8529 26.0618C46.7628 26.0915 46.6427 26.1508 46.5227 26.0915C46.4627 26.0618 46.4627 25.8837 46.5227 25.8243C46.8829 25.0822 47.4832 23.6278 47.8433 22.9154C48.0835 22.3811 47.7533 21.8171 46.9429 22.0249C46.3726 22.1436 45.9824 22.4998 45.5922 22.7669C45.6222 22.4701 45.4722 22.0842 45.112 22.0249C44.5117 21.8765 43.7013 22.5295 43.3712 22.8263L43.3411 22.7966L43.6713 22.1139H42.5007C42.1706 22.8263 41.9004 23.4497 41.6303 24.073C41.3302 24.726 40.5198 25.6165 40.0996 25.7946C39.9195 25.8837 39.7694 25.8837 39.7094 25.8243C39.6193 25.7649 39.5593 25.7056 39.6493 25.4978C40.1896 24.3105 40.6098 23.3903 41.1801 22.1436C40.3697 21.639 39.2892 21.8765 38.4788 22.2623C38.0586 22.4701 37.6984 22.7076 37.4283 23.0044C37.2482 23.1231 37.1281 23.2122 36.948 23.3309C36.7679 23.4793 36.6479 23.3903 36.5878 23.3012C36.5578 23.1825 36.6479 23.0044 36.6779 22.8263C36.798 22.5888 37.008 22.3811 37.008 22.1139C37.0381 21.8171 36.6179 21.8171 36.4378 21.9061C35.9876 22.1436 35.5974 22.5592 35.2372 22.8263C35.2072 22.856 35.2072 22.8263 35.2372 22.7966L35.5373 22.1436H34.3968L33.6164 23.9246C33.1362 24.7854 32.5959 25.5275 31.9056 25.854C31.8455 25.8837 31.7255 25.8837 31.6354 25.854C31.5454 25.7946 31.5754 25.5868 31.6054 25.4681C32.1457 24.3105 32.5359 23.3903 33.0761 22.1733C32.2657 21.6093 31.1252 21.7577 30.3748 22.1733ZM15.9378 22.5592C15.9378 24.6667 17.8887 25.4087 19.2394 25.4087C20.59 25.4087 21.8206 24.5479 21.8206 23.6871C21.8206 22.7966 21.3104 22.8263 21.1603 22.8263C20.7701 22.8263 20.44 23.3606 20.6801 23.984C20.8302 24.3698 20.44 25.201 19.2094 25.201C18.3089 25.201 17.0783 24.5183 17.0783 22.5592C17.0783 20.6298 19.2994 17.0678 24.4319 17.0678C26.2628 17.0678 28.4239 18.077 28.4239 20.4517C28.4239 21.8171 27.0432 23.8355 24.9121 23.8355C24.9121 23.8355 25.4224 21.075 26.8031 19.3831C26.9231 19.2347 26.7731 19.1159 26.563 19.2347C22.1508 21.9952 22.7211 30.0987 17.7387 30.0987C17.2584 30.0987 15.3975 30.0096 15.3975 28.5552C15.3975 28.5552 15.3075 28.2286 15.7277 27.9318C15.9678 27.8131 16.0878 27.5756 16.0878 27.3085C16.0878 26.8929 15.7277 26.5664 15.3075 26.5664C14.8873 26.5664 14.6772 26.9226 14.5271 27.3085C14.407 27.6647 14.377 30.3361 17.7086 30.3658C20.1999 30.3955 23.8016 28.6739 24.702 24.1917C24.702 24.1917 29.8946 23.6278 29.8946 20.3923C29.8946 18.5816 27.8236 16.8897 24.3719 16.7116C21.2804 16.6225 15.9378 18.2551 15.9378 22.5592ZM79.4788 32.6811L78.4883 34.4621L76.4773 34.0762L77.858 35.5307L76.8975 37.282L78.7284 36.4212L80.1691 37.8756L79.899 35.8869L81.6999 35.0558L79.7489 34.6996L79.4788 32.6811ZM63.9912 11.6061L64.5015 13.5355L65.2218 11.6358L67.2328 11.6951L65.672 10.4485L66.3924 8.63779L64.7416 9.73606L63.1808 8.48937L63.6911 10.4485L61.9802 11.517L63.9912 11.6061ZM67.1728 15.9992L69.1237 16.4444L69.2438 18.4332L70.3243 16.7116L72.3053 17.1568L71.0146 15.643L72.0652 13.9807L70.2343 14.7228L68.9436 13.209L69.0637 15.2274L67.1728 15.9992ZM73.2657 22.203L72.9956 24.1917L74.4063 22.7076L76.2672 23.509L75.2767 21.7577L76.6574 20.3329L74.7064 20.6891L73.716 18.9378L73.4458 20.9563L71.4348 21.3422L73.2657 22.203ZM49.5242 5.81789L51.4151 5.13518L52.6157 6.73807L52.5556 4.71962L54.4766 4.0369L52.5256 3.44324L52.4956 1.48416L51.3851 3.08704L49.4641 2.52306L50.6947 4.15564L49.5242 5.81789ZM42.6508 4.83835L44.3917 3.79944L45.8924 5.13518L45.4722 3.17609L47.213 2.13718L45.202 1.9294L44.8119 0L44.0015 1.81067L41.9905 1.63257L43.5212 2.998L42.6508 4.83835ZM58.0183 7.77698L58.9187 9.55796L59.2489 7.56919L61.2599 7.24268L59.459 6.29282L59.8192 4.36342L58.4085 5.75852L56.6376 4.83835L57.5081 6.6787L56.0373 8.07381L58.0183 7.77698ZM29.3543 25.7946C29.8045 25.7946 30.4348 25.0229 30.795 24.3105C31.1552 23.5684 31.3353 23.1231 31.7855 22.1733C31.8155 22.1436 31.7555 22.1436 31.7255 22.1436C31.2152 22.1436 30.6449 22.6482 30.2848 23.0638C29.8346 23.5684 29.1742 24.5479 29.0542 25.2603C28.9641 25.6462 29.1442 25.7946 29.3543 25.7946ZM2.94143 30.7814L4.62225 29.6534L6.24304 30.8408L5.61274 28.941L7.26354 27.8131L5.22255 27.7834L4.59224 25.8837L3.93192 27.7834L1.98097 27.7537L3.57174 28.9114L2.94143 30.7814ZM1.74085 38.1725L3.18155 36.6883L5.01244 37.5788L4.02196 35.8275L5.43265 34.4027L3.42167 34.7589L2.43119 33.0076L2.16105 34.9964L0.210102 35.3229L2.01098 36.1837L1.74085 38.1725ZM5.52269 23.8059L7.41362 23.0044L8.76427 24.4886L8.52416 22.5295L10.3851 21.728L8.37409 21.3125L8.10395 19.294L7.11347 21.0453L5.16252 20.6298L6.51318 22.0842L5.52269 23.8059ZM11.3755 17.0084L12.4261 18.73L12.5761 16.7413L14.5271 16.296L12.6362 15.5243L12.7562 13.5058L11.4356 15.0197L9.6347 14.2479L10.6852 15.9398L9.39458 17.424L11.3755 17.0084ZM2.01098 45.6229L3.15154 43.931L5.1325 44.4653L3.84187 42.9218L4.95242 41.2595L3.06149 41.9719L1.74085 40.4284L1.83089 42.4172L0 43.1296L1.92094 43.6342L2.01098 45.6229ZM77.5578 54.706L75.757 55.6558L74.2862 54.231L74.6764 56.1901L72.9056 57.14L74.9165 57.4071L75.3067 59.3959L76.2072 57.5852L78.1881 57.8524L76.7474 56.5166L77.5578 54.706ZM6.57321 51.1737L5.01244 49.927L5.76281 48.0866L4.05198 49.1552L2.4612 47.8789L2.97145 49.8083L1.29063 50.8472L3.2716 50.9659L3.78184 52.8953L4.56222 51.0253L6.57321 51.1737ZM7.50366 56.5166L7.89385 54.5576L6.42313 55.9527L4.62225 55.0028L5.49268 56.8135L4.05198 58.1492L6.00293 57.9118L6.87335 59.6927L7.29356 57.704L9.30454 57.4665L7.50366 56.5166ZM24.9722 44.8215C24.7921 44.7028 22.9012 46.6322 21.6406 47.9679C21.1903 48.4428 20.9202 48.8881 20.7401 49.0959C20.7401 49.0959 20.1698 50.016 19.8697 50.3722C19.5695 50.7581 18.8492 51.8267 18.519 52.272C18.399 52.4501 18.1288 53.1328 17.5286 53.8155C17.2584 54.1717 16.9583 54.6169 16.418 55.3293C15.6676 56.2792 15.0974 57.0509 15.2474 57.14C15.3075 57.1994 16.418 55.8933 17.5586 54.4982C18.0388 53.9342 18.5791 53.3109 19.0293 52.7469C19.2394 52.4797 19.7496 52.0048 19.8997 51.7673C20.1999 51.3518 20.5 51.055 20.6201 50.9362C21.2804 50.4019 21.6406 50.3722 21.8206 50.0754C21.9407 49.927 23.2013 47.9976 23.6816 47.2258C24.1918 46.4838 25.2423 45.059 24.9722 44.8215ZM32.806 41.8235C32.9261 41.586 33.2862 40.844 33.2562 40.5174C33.2562 40.4581 33.1362 40.369 33.0161 40.4878C32.5059 40.9924 31.3953 42.8624 31.0051 43.0702C30.0747 43.5154 29.6845 44.584 29.4143 44.9996C29.2042 45.2964 28.9641 45.801 28.5139 46.4541C28.1237 47.0181 27.6735 47.8492 27.5234 48.1163C27.3734 48.4132 27.3133 48.6803 27.6135 48.6803C27.9136 48.6803 27.6735 49.1552 27.3133 49.6895C27.1032 50.016 26.593 51.4705 26.4429 51.8861C26.2628 52.3907 26.2928 53.014 26.2028 53.2218C26.1427 53.4296 25.1523 55.4777 24.9121 55.923C24.7321 56.2198 24.7921 56.3386 24.7321 56.487C24.642 56.6947 24.7321 56.7244 24.9121 56.576C25.0922 56.3979 26.1428 54.8544 26.4429 54.6466C26.7731 54.4388 27.0432 54.142 27.1032 53.489C27.1332 52.8359 27.5835 52.6282 27.9436 52.2423C28.2738 51.8564 28.724 51.3221 28.9941 50.7581C29.2042 50.2238 29.5044 50.6394 30.0447 49.7786C30.5549 48.9475 31.7555 46.84 32.0256 46.4244C32.2958 46.0385 32.1157 45.4448 32.0556 44.9699C32.0556 44.7028 32.0857 44.0794 32.2357 43.3967C32.3858 42.8327 32.6559 42.2094 32.806 41.8235ZM16.448 11.8732L17.1684 13.773L17.6786 11.8436L19.6896 11.7842L17.9788 10.6562L18.519 8.69715L16.9283 9.94384L15.2775 8.84557L15.9678 10.6859L14.377 11.9029L16.448 11.8732ZM64.7416 52.6875C64.9517 52.8953 65.4019 53.3999 65.4619 53.3109C65.552 53.2218 65.3419 52.9547 65.1918 52.7469C65.0717 52.5391 64.3514 51.7377 64.2013 51.5299C64.0813 51.3221 63.1208 49.9864 62.7906 49.5411C62.1903 48.7694 62.7306 48.5022 62.4305 48.057C62.3104 47.8492 61.56 46.929 60.6596 46.0385C60.2094 45.5933 59.6991 45.148 59.2789 44.7621C58.5586 44.1388 58.0483 43.6639 57.9583 43.7826C57.8382 43.9013 58.2584 44.3763 58.4085 44.6137C58.5886 44.8215 58.8587 45.2371 59.2189 45.6526C59.8192 46.365 59.2789 46.8993 59.8492 47.4633C59.9392 47.5523 61.53 49.3036 61.8902 49.6302C62.5205 50.1348 64.5915 52.5391 64.7416 52.6875ZM56.0373 49.8379C56.6076 50.7581 56.7577 50.58 56.9978 50.6097C57.5381 50.6394 58.7387 51.8861 58.9788 52.2423C59.1889 52.5985 61.1398 54.4982 61.6501 54.9731C61.8602 55.1809 63.3909 57.6446 63.601 57.4665C63.8111 57.2884 63.0007 56.1011 62.8807 55.8636C62.7906 55.5965 62.3404 55.2106 62.1003 54.6763C61.8902 54.1123 60.9898 52.7469 60.6896 52.3313C60.3895 51.8861 59.9092 50.9362 59.399 50.3129C58.9187 49.7786 59.3089 49.6302 58.7987 49.1552C58.4985 48.8881 57.5681 48.057 57.358 47.8789C57.1479 47.7304 56.3975 47.0477 55.9473 46.6619C55.5271 46.276 54.4766 45.5636 54.5066 45.1183C54.5366 44.6434 54.2965 43.7529 53.9663 43.4561C53.6962 43.2483 52.9458 42.061 52.1054 41.3783C51.6852 41.0221 50.7548 40.0722 50.0644 39.2411C49.3741 38.4693 48.8938 37.7272 48.7438 37.846C48.5337 37.9944 49.5242 39.3598 49.6142 39.5082C49.7042 39.6863 50.8748 41.6454 50.9949 42.1797C51.1149 42.6843 53.246 46.276 53.7262 47.4039C53.9663 47.9679 55.407 48.8287 56.0373 49.8379ZM35.7174 5.19454L37.2182 3.8588L38.959 4.89771L38.1486 3.02768L39.6493 1.66225L37.6384 1.84035L36.858 0.0296832L36.4078 1.95909L34.3968 2.16687L36.1376 3.20578L35.7174 5.19454ZM22.4209 7.74729L22.7511 9.73606L23.6515 7.95507L25.6325 8.28159L24.1618 6.8568L25.0622 5.04613L23.2613 5.96631L21.8807 4.5712L22.2108 6.5006L20.41 7.42078L22.4209 7.74729ZM28.9941 6.8568L30.1947 5.28359L32.1157 5.96631L30.9451 4.30405L32.1757 2.70116L30.2548 3.26514L29.1442 1.63257L29.0842 3.59166L27.1632 4.15564L29.0842 4.86803L28.9941 6.8568Z" fill="black"/>
</svg>
