<svg width="88" height="88" viewBox="0 0 88 88" fill="none" xmlns="http://www.w3.org/2000/svg">
<path d="M43.9994 0C19.6982 0 0 19.6987 0 44.0024C0 68.3031 19.6982 88 43.9994 88C68.297 88 87.9994 68.3031 87.9994 44.0024C88 19.6987 68.297 0 43.9994 0Z" fill="white"/>
<path d="M44.4186 2.85742C21.6957 2.85742 3.27516 21.2772 3.27516 44.0031C3.27516 66.7249 21.6957 85.1428 44.4186 85.1428C67.1391 85.1428 85.5602 66.7249 85.5602 44.0031C85.5602 21.2766 67.1385 2.85742 44.4186 2.85742Z" fill="#99CC00"/>
<path d="M14.4352 25.5289C14.4684 20.4217 17.2506 15.7676 21.8228 12.2139C28.2811 7.47454 36.195 4.71101 44.7326 4.78058C52.9556 4.84834 60.5555 7.52839 66.8124 12.0476C71.7076 15.724 74.6809 20.6044 74.6471 25.9427C74.6096 31.9761 70.7319 37.3768 64.5965 41.0816L64.6002 41.0835C58.6959 44.6958 51.7886 46.7448 44.4162 46.6867C35.6288 46.6196 27.5443 43.559 21.0678 38.4603C16.887 34.9139 14.4043 30.4092 14.4352 25.5289Z" fill="white"/>
<path d="M50.0137 18.4699C51.5322 17.6368 51.8141 15.3972 51.8171 14.6936C51.8135 11.601 49.4288 9.53922 45.156 9.54104C43.5572 9.53862 41.7817 9.74189 39.3026 10.2591V10.2604C39.1756 10.287 39.0824 10.4049 39.0806 10.5447C39.0818 10.5671 39.0842 10.5925 39.0891 10.6155C39.7406 14.5575 39.7097 20.7059 39.1834 26.9263C39.175 26.9468 39.1719 26.9692 39.1719 26.994C39.1719 27.1362 39.279 27.2548 39.4145 27.2723C40.9468 27.6111 43.9764 27.913 45.6618 27.913C49.7089 27.9106 52.7475 25.6915 52.742 22.493C52.7451 20.4827 51.8443 19.263 50.0137 18.4699ZM45.107 13.3185C46.6321 13.3203 47.6672 14.1116 47.6835 15.2496C47.7198 17.4142 44.1482 17.0803 43.8711 17.0198L43.8421 13.4782C43.8215 13.4813 44.0315 13.3185 45.107 13.3185ZM45.5136 24.288C44.9201 24.2904 44.3823 24.2378 43.8627 24.1065L43.8675 20.4935C43.8675 20.4935 44.7411 20.3871 45.2311 20.3895C46.5516 20.3913 48.1904 20.8523 48.1632 22.1718C48.1451 23.2589 47.7882 24.2904 45.5136 24.288Z" fill="#0A0B1D"/>
<path d="M28.4487 11.6781C26.6641 12.0858 24.7295 12.744 23.4736 13.3672C23.47 13.3672 23.47 13.3684 23.4676 13.3684C23.1887 13.4742 23.3212 13.7211 23.3224 13.7247C24.5873 16.6661 26.793 26.6137 27.1124 29.9363V29.9387C27.1094 29.9635 27.1148 29.9853 27.1202 30.0131C27.1547 30.1625 27.3066 30.2605 27.456 30.2248C27.4602 30.2248 31.6331 28.9568 31.6349 28.9544C31.7922 28.9211 31.8872 28.7717 31.8539 28.6174C31.8491 28.6108 31.8461 28.6047 31.8449 28.5999C31.8255 28.5152 31.8001 28.4075 31.7602 28.2357L31.5351 27.3766L30.8497 24.2561C30.8497 24.2561 31.9223 24.0359 31.9979 24.0196C36.5205 22.9808 38.916 19.55 38.0903 15.9407C37.2385 12.228 33.4274 10.5316 28.4487 11.6781ZM30.638 20.2887C30.3065 20.368 29.9332 20.3982 29.9381 20.397L28.8703 15.732C28.8703 15.732 29.7148 15.4543 30.0699 15.3708C31.8539 14.9637 33.1794 15.7502 33.5042 17.1773C33.8448 18.6498 32.9247 19.7654 30.638 20.2887Z" fill="#0A0B1D"/>
<path d="M63.1894 16.761C63.2366 16.8161 63.4931 16.9455 63.5687 16.9522C63.7012 16.9607 63.7544 16.8935 63.7544 16.8935C63.7544 16.8905 63.7544 16.8905 63.7544 16.8905C64.0224 16.6775 63.7309 16.9298 66.0339 14.2437C66.0786 14.2044 66.1077 14.1457 66.1234 14.0792C66.1476 13.9503 66.0321 13.8202 66.0248 13.8257C66.0085 13.8414 63.8192 11.7766 60.5966 11.4312C56.5846 10.9998 53.7686 13.3865 53.5503 16.876C53.3718 19.7914 55.3796 21.4399 59.3311 22.7364C62.152 23.6626 61.1949 25.6034 59.4587 25.5253C58.3475 25.4751 56.65 24.7038 55.595 23.6983C55.595 23.6983 55.5544 23.642 55.4401 23.6239C55.3397 23.6063 55.2429 23.6475 55.1848 23.7201L52.9272 26.3203C52.9272 26.3227 52.8642 26.4165 52.8485 26.4788C52.8201 26.6349 52.9423 26.7262 52.9423 26.7286C54.549 28.396 56.7631 29.3379 58.953 29.4752C62.7109 29.7075 65.4241 27.4836 65.6945 24.172C65.9849 20.6541 62.9499 19.3648 60.8072 18.651C58.9603 18.0363 58.1775 17.4664 58.2537 16.6666C58.3354 15.8663 59.8737 14.7017 63.1894 16.761Z" fill="#0A0B1D"/>
<path d="M71.6635 47.0136C74.0845 48.0221 76.8672 46.8817 77.8769 44.4587C78.8932 42.0388 77.7504 39.2559 75.3301 38.2444C72.9109 37.2317 70.1233 38.3727 69.1137 40.7932C68.1004 43.2155 69.2413 45.9996 71.6635 47.0136Z" fill="white"/>
<path d="M62.0564 58.2335C61.9741 55.8456 59.9735 53.975 57.5895 54.0573C55.2036 54.1378 53.3325 56.1396 53.4135 58.5245C53.497 60.9105 55.4951 62.7811 57.8798 62.7006C60.2682 62.6177 62.1392 60.6159 62.0564 58.2335Z" fill="white"/>
<path d="M39.8622 72.0405C44.0647 71.0005 46.6206 66.7705 45.5771 62.5919C44.5305 58.4152 40.2772 55.8743 36.0783 56.9179C31.8787 57.9584 29.3204 62.1848 30.3658 66.3664C31.4117 70.5413 35.6633 73.0835 39.8622 72.0405Z" fill="white"/>
<path d="M54.1262 72.9289C55.2344 72.1503 55.5006 70.6118 54.7172 69.5077C53.9344 68.4054 52.3857 68.138 51.2775 68.9179C50.1656 69.6983 49.903 71.2349 50.6877 72.3414C51.0676 72.8762 51.6344 73.2326 52.2859 73.3439C52.9332 73.454 53.5878 73.3088 54.1262 72.9289ZM52.0699 71.3668C51.8219 71.0183 51.9066 70.541 52.2545 70.2948C52.6023 70.0498 53.0893 70.1302 53.3349 70.4799C53.5787 70.826 53.494 71.3093 53.1498 71.5544C52.978 71.6699 52.7747 71.7147 52.569 71.6814C52.3658 71.6451 52.1897 71.5356 52.0699 71.3668Z" fill="#0A0B1D"/>
<path d="M58.0722 73.2511C54.7747 77.2972 49.3955 77.7551 49.3441 77.7624L49.306 77.7636L49.266 77.769C43.0079 78.7418 38.0722 75.7 38.0256 75.6655C37.584 75.3915 36.9996 75.5252 36.7207 75.9656C36.4388 76.4066 36.5725 76.9935 37.0111 77.273C37.2343 77.4115 42.5481 80.7129 49.5141 79.6499C49.9496 79.6142 55.7831 79.0637 59.5404 74.4495C59.6832 74.2765 59.7497 74.0756 59.7564 73.8724C59.7588 73.5892 59.6378 73.3061 59.4025 73.1161C58.9996 72.784 58.4025 72.8463 58.0722 73.2511Z" fill="#0A0B1D"/>
<path d="M35.8496 55.9967C33.5665 56.5624 31.6422 57.9841 30.4311 59.9908C29.2315 61.9914 28.8812 64.3369 29.4444 66.5935C30.6162 71.273 35.3898 74.1267 40.0915 72.9645C42.3739 72.3952 44.2995 70.9808 45.5099 68.9644C46.7132 66.9686 47.0628 64.6225 46.496 62.3635C45.3242 57.687 40.55 54.8315 35.8496 55.9967ZM31.2847 66.1331C30.8437 64.3696 31.1171 62.5353 32.0584 60.9678C33.0051 59.3924 34.5175 58.2787 36.3093 57.8377C39.9929 56.9205 43.7399 59.1595 44.6533 62.8251C44.7749 63.2994 44.8439 63.7803 44.8596 64.2559C44.902 65.559 44.5693 66.847 43.8851 67.9855C42.9335 69.5657 41.4272 70.6801 39.6353 71.1223C35.9488 72.0353 32.2018 69.8005 31.2847 66.1331Z" fill="#0A0B1D"/>
<path d="M33.6512 68.272C35.1999 68.4699 36.6118 67.3833 36.8175 65.8455C37.0189 64.3052 35.9319 62.895 34.3808 62.6978C32.8358 62.4969 31.416 63.5822 31.2145 65.1201C31.0131 66.6622 32.1026 68.0712 33.6512 68.272Z" fill="#0A0B1D"/>
<path d="M52.5648 58.5476C52.6634 61.3964 55.0632 63.6372 57.9071 63.5362C60.7551 63.4406 62.994 61.0455 62.8984 58.1973C62.7998 55.3533 60.4049 53.1124 57.5556 53.208C54.7075 53.3042 52.4686 55.7042 52.5648 58.5476ZM54.1074 58.4986C54.0415 56.5033 55.6137 54.8179 57.6094 54.7507C59.6118 54.6836 61.2947 56.2559 61.3613 58.256C61.4302 60.2536 59.8568 61.9366 57.8599 62.0038C55.8575 62.0728 54.1752 60.4992 54.1074 58.4986Z" fill="#0A0B1D"/>
<path d="M55.8085 60.8295C56.846 60.9626 57.7976 60.2306 57.9318 59.1942C58.0674 58.1543 57.3378 57.2027 56.2955 57.0672C55.2568 56.9304 54.3064 57.6655 54.1679 58.7006C54.0384 59.7399 54.7698 60.6922 55.8085 60.8295Z" fill="#0A0B1D"/>
<path d="M66.9298 58.9804C65.7992 53.2875 62.5627 48.3545 57.7909 45.0102H57.7921C57.7836 45.0054 57.7782 45.0011 57.7709 44.9975C57.5852 44.8674 57.4068 44.7362 57.2144 44.6085C56.5006 44.1439 55.7656 43.7228 55.0184 43.3447C49.5867 40.4324 40.6783 37.5926 20.2644 45.8983L24.0296 49.3812L16.6075 52.0334L22.3351 55.7504L15.6674 58.2145L21.9165 62.6459C19.8488 63.6992 18.4072 65.8172 18.3546 68.2982C18.2802 71.8845 21.1398 74.8647 24.7259 74.9397C25.2649 74.95 25.7827 74.8876 26.2866 74.7757C31.0972 82.2254 40.1332 86.4754 49.358 84.7712C55.0935 83.7136 60.0788 80.5254 63.4012 75.7939C66.8512 70.873 68.1046 64.9001 66.9298 58.9804ZM24.7652 73.086C22.1966 73.034 20.1525 70.9008 20.2063 68.3339C20.2469 66.4676 21.3902 64.8777 22.9994 64.1735C23.0617 65.1148 23.1845 66.0628 23.3714 67.0145C23.7967 69.1694 24.5317 71.184 25.5153 73.0364C25.2703 73.0721 25.0223 73.0896 24.7652 73.086ZM61.7817 74.7279C58.7516 79.0426 54.2115 81.9495 48.9938 82.9084C37.9808 84.9399 27.2545 77.6675 25.0731 66.6981C24.2377 62.4729 24.79 58.3076 26.4167 54.6614L55.4183 45.7392C55.6506 45.882 55.8847 46.0278 56.1146 46.1754C60.7733 49.2336 63.9317 53.907 65.0067 59.3337C66.0847 64.7591 64.9377 70.2281 61.7817 74.7279Z" fill="#0A0B1D"/>
<path d="M67.2547 49.7681C66.5203 50.9738 66.8996 52.5449 68.0943 53.2727C69.2976 54.0163 70.8619 53.6387 71.6018 52.4373C72.3374 51.2352 71.9593 49.6659 70.7597 48.929C69.5619 48.194 67.9891 48.5684 67.2547 49.7681Z" fill="white"/>
<path d="M41.9728 38.5404L41.9777 38.5422L41.8434 37.8525L41.749 36.5748L41.7466 36.5258L41.5572 32.6153L41.5536 32.5596L41.5355 31.3025L41.596 30.669L41.5947 30.6582C41.5935 30.6243 41.5693 30.5977 41.5367 30.5977C41.5367 30.5977 40.9759 30.6243 40.4453 30.6515C39.9069 30.6781 39.351 30.7072 39.351 30.7072C39.3226 30.7072 39.299 30.7338 39.2978 30.7695H39.2953L39.299 30.7804L39.4188 31.4029L39.5216 32.6558L39.5258 32.7163L39.7122 36.6269L39.7146 36.674L39.7478 37.9578L39.6765 38.6535C39.6765 38.6602 39.6753 38.6626 39.6765 38.6644C39.6765 38.7031 39.7067 38.7292 39.74 38.7292L39.8458 38.7225L41.8137 38.6263L41.9238 38.6203C41.9583 38.6203 41.9795 38.5906 41.9795 38.5537C41.9831 38.5507 41.9728 38.5434 41.9728 38.5404Z" fill="#0A0B1D"/>
<path d="M51.661 34.8774C51.563 37.431 49.1783 38.8709 46.7585 38.7795C46.1893 38.7553 46.0822 38.742 45.5565 38.6985C45.0338 38.6567 44.3333 38.6513 44.3333 38.6513L44.2226 38.6476C44.1881 38.6476 44.1633 38.6156 44.1639 38.5799C44.1645 38.5738 44.1639 38.569 44.1645 38.5672H44.1639L44.3031 37.8593L44.3805 36.5556L44.3793 36.5066L44.5323 32.5216L44.539 32.4593L44.5426 31.1774L44.4694 30.5331L44.4719 30.5216C44.4719 30.4883 44.5021 30.4587 44.5323 30.4611C44.5323 30.4611 45.0381 30.4835 45.2329 30.4865C45.5069 30.4865 46.4149 30.446 47.0199 30.4702C49.6641 30.5911 51.7596 32.2633 51.661 34.8774ZM47.0495 32.2772C46.8614 32.2681 46.7743 32.2796 46.6248 32.3032L46.6097 32.5355V32.5997L46.4561 36.5865V36.6355L46.4482 37.0644C46.591 37.0916 46.715 37.114 46.8523 37.1201C48.116 37.1673 49.4868 36.4346 49.5473 34.9488C49.603 33.3952 48.2903 32.3238 47.0495 32.2772Z" fill="#0A0B1D"/>
<path d="M38.0667 38.6438L34.5496 35.2535C35.3088 34.3805 36.1291 33.5638 37.002 32.8118C37.002 32.8118 37.002 32.8118 37.002 32.8094C37.0183 32.7961 37.028 32.7713 37.025 32.7513C37.022 32.7331 37.0099 32.7174 36.999 32.7083L35.5943 31.3096C35.5768 31.2963 35.5622 31.2891 35.5435 31.2915C35.5356 31.2957 35.5241 31.2975 35.5193 31.3024C35.5193 31.3024 35.5193 31.2999 35.5157 31.3024C34.1721 32.4875 32.8896 33.8723 31.8037 35.32L31.5351 33.8245L31.5254 33.7695L31.3415 32.5256L31.3234 31.8916L31.321 31.8789C31.3107 31.8475 31.2847 31.8202 31.2532 31.8281C31.2532 31.8281 30.7045 31.9261 30.18 32.0241C29.6495 32.1203 29.1008 32.2159 29.1008 32.2159C29.0706 32.2225 29.0506 32.2558 29.0567 32.2873V32.3006L29.2587 32.9031L29.5237 34.1306L29.5334 34.1869L30.2303 38.0394L30.2412 38.0866L30.4341 39.3516L30.4571 40.0576C30.4571 40.0612 30.4571 40.0636 30.4571 40.0661C30.4644 40.1036 30.4958 40.129 30.5249 40.1187V40.1211L30.6344 40.1036L32.5696 39.7533L32.6773 39.7309C32.7148 39.7243 32.7347 39.6928 32.7251 39.6619C32.7263 39.6529 32.7226 39.6504 32.7226 39.6468H32.7251L32.4982 38.9807L32.3464 38.2354L32.3597 38.1858C32.67 37.6988 32.9961 37.2263 33.3366 36.7647L35.6481 39.164V39.1616C35.659 39.178 35.6802 39.1889 35.6996 39.1864C35.7014 39.1864 35.7014 39.184 35.7044 39.1816V39.184L38.0431 38.7629V38.7599C38.048 38.7575 38.048 38.7599 38.048 38.7599C38.0806 38.7557 38.1024 38.72 38.0963 38.6861C38.0891 38.6662 38.077 38.6528 38.0667 38.6438Z" fill="#0A0B1D"/>
<path d="M60.1036 37.6587C60.5809 34.1432 55.3469 34.7463 55.5073 33.6078C55.6077 32.8576 57.7129 32.6271 59.2271 34.3325C59.2271 34.3325 59.2271 34.3325 59.2271 34.3343C59.2404 34.3416 59.25 34.3501 59.2633 34.3525C59.2882 34.3525 59.3033 34.344 59.3202 34.3277V34.3253C59.538 34.096 60.3662 33.1782 60.541 32.9792C60.5422 32.9792 60.5483 32.9774 60.5422 32.9725C60.5507 32.9641 60.5531 32.9556 60.5561 32.9423C60.5585 32.9259 60.5585 32.9108 60.5501 32.8969H60.5525C60.5525 32.8969 60.5501 32.8969 60.5476 32.8951C60.5446 32.8951 60.5476 32.8927 60.5446 32.8927C59.3323 30.8612 53.8176 29.9501 53.3537 33.3434C52.8969 36.6314 58.2815 36.4638 58.025 37.5038C57.7855 38.4615 55.0584 38.2425 53.9646 36.4723C53.9532 36.456 53.9338 36.4451 53.9199 36.4433C53.9042 36.4433 53.8866 36.4433 53.8709 36.459C53.6235 36.6556 52.6568 37.4766 52.4287 37.6823C52.4214 37.6865 52.4239 37.6895 52.4178 37.6938C52.4081 37.7053 52.4045 37.7131 52.399 37.7295C52.4015 37.7518 52.4015 37.7627 52.413 37.7815C52.413 37.7815 52.4105 37.7833 52.413 37.7815C54.5551 40.8983 59.6293 41.0877 60.1036 37.6587Z" fill="#0A0B1D"/>
</svg>
