<svg width="114" height="32" viewBox="0 0 114 32" fill="none" xmlns="http://www.w3.org/2000/svg">
<path d="M113.365 30.8528C113.335 30.896 113.437 30.9994 113.296 30.9956C113.108 30.9956 112.92 30.9956 112.732 30.9956C75.5859 30.9956 38.4388 31 1.29049 31.0088C0.762408 31.0088 0.642134 30.8904 0.644013 30.3642C0.662806 20.4591 0.670323 10.5541 0.666564 0.649016C0.666564 0.442295 0.503067 0.173558 0.798114 0.0175781C1.68701 0.290074 2.60786 0.135973 3.50052 0.119059C4.9438 0.09087 6.39461 0.102146 7.8379 0.107784C10.6662 0.120939 13.4945 0.0457673 16.3228 0.0965079C20.0175 0.162283 23.7122 0.0514052 27.4106 0.0965079C31.1955 0.145369 34.9822 0.0589223 38.7671 0.0965079C41.2214 0.122818 43.6776 0.115301 46.132 0.124697C48.793 0.134093 51.4579 0.0946286 54.1208 0.107784C57.3889 0.124697 60.6569 0.0344916 63.925 0.107784C66.727 0.162283 69.529 0.0889908 72.3329 0.128456C75.6498 0.173558 78.9686 0.0814736 82.2931 0.113421C85.5386 0.147248 88.7841 0.057043 92.0277 0.102146C95.2225 0.149128 98.4286 0.0589223 101.629 0.102146C104.303 0.128456 106.989 0.0514052 109.672 0.137852C110.556 0.166041 111.444 0.11718 112.33 0.102146C113.164 0.0889908 113.292 0.224299 113.292 1.07749C113.292 10.6568 113.292 20.2349 113.292 29.8117C113.292 30.7795 113.292 30.7814 112.32 30.7814C85.0468 30.7814 57.7735 30.7814 30.5001 30.7814C20.8162 30.7814 11.1304 30.8039 1.44647 30.7701C1.43143 30.7701 1.41828 30.7964 1.40512 30.8115C1.31116 30.8209 1.44459 30.9167 1.40512 30.834C1.38633 30.8002 1.40512 30.7795 1.4521 30.7833C1.68513 30.7833 1.92004 30.7833 2.15495 30.7833C38.856 30.7833 75.5565 30.7833 112.256 30.7833C112.627 30.7908 113.002 30.6968 113.365 30.8528Z" fill="#FDFDFD"/>
<path d="M113.365 30.854H0.809432C1.20408 30.6435 1.48034 30.7187 1.74907 30.7187C38.4251 30.7187 75.1017 30.7187 111.779 30.7187C111.989 30.7074 112.2 30.7074 112.41 30.7187C113.006 30.7845 113.311 30.5721 113.23 29.9388C113.219 29.7755 113.219 29.6116 113.23 29.4483C113.23 20.1985 113.213 10.9468 113.243 1.69699C113.243 -0.137188 112.969 0.161618 111.476 0.202962C110.405 0.231151 109.338 0.202962 108.269 0.202962C107.047 0.202962 105.825 0.174773 104.602 0.187928C103.711 0.197324 102.82 0.217996 101.926 0.187928C100.376 0.125912 98.8101 0.0563784 97.2729 0.2086C96.0946 0.325115 94.9256 0.2086 93.7567 0.257461C92.7701 0.296926 91.7534 0.148463 90.7499 0.178532C89.0717 0.229272 87.3935 0.225514 85.7153 0.270616C84.4862 0.304443 83.2403 0.210479 82.0037 0.204842C80.66 0.204842 79.3088 0.257461 77.9764 0.217996C76.691 0.178532 75.4187 0.396528 74.1201 0.217996C72.8892 0.046982 71.6132 0.206721 70.3616 0.184169C69.0724 0.159739 67.787 0.263099 66.4978 0.264978C64.9699 0.264978 63.4458 0.146584 61.9086 0.217996C60.781 0.270616 59.6065 0.217996 58.462 0.251824C56.4831 0.319478 54.5155 0.167256 52.5291 0.219876C51.1776 0.281548 49.8237 0.269 48.4736 0.18229C47.7971 0.125912 47.1205 0.291288 46.4515 0.291288C44.8992 0.291288 43.3451 0.195445 41.789 0.178532C40.59 0.167256 39.3986 0.298806 38.1902 0.225514C36.1512 0.0883262 34.1065 0.150342 32.0675 0.167256C30.9399 0.167256 29.8011 0.332633 28.6754 0.278133C26.9991 0.197324 25.3246 0.13155 23.6502 0.167256C21.8743 0.206721 20.0946 0.223634 18.3187 0.263099C16.7626 0.296926 15.1991 0.127791 13.6336 0.187928C13.0285 0.206721 12.4309 0.165377 11.8201 0.281892C10.997 0.428476 10.1682 0.12967 9.32821 0.187928C8.69232 0.246978 8.05323 0.263929 7.4151 0.238669C6.56003 0.201083 5.71059 0.187928 4.85552 0.212359C3.85011 0.246186 2.84093 0.163497 1.84867 0.231151C1.44087 0.259341 1.11388 0.248065 0.798157 0.0187928C38.0906 0.0187928 75.3836 0.0125285 112.677 0C113.314 0 113.378 0.187928 113.378 0.734798C113.362 10.7689 113.358 20.8086 113.365 30.854Z" fill="#EFEFEF"/>
<path d="M57.0224 29.4532C38.9901 29.4532 20.9591 29.4595 2.92925 29.472C2.20009 29.472 2.06854 29.2747 2.07042 28.5925C2.09423 19.8113 2.09485 11.0319 2.0723 2.2544C2.0723 1.67559 2.21137 1.52148 2.79958 1.52148C38.9306 1.53652 75.0616 1.53652 111.193 1.52148C111.781 1.52148 111.865 1.70941 111.864 2.22997C111.85 11.0588 111.85 19.8877 111.864 28.7165C111.864 29.3198 111.734 29.4795 111.112 29.4776C93.0783 29.4526 75.0485 29.4444 57.0224 29.4532Z" fill="#10264A"/>
<path d="M23.0037 15.5073C23.0037 12.7034 23.0169 9.90142 22.9924 7.09941C22.9924 6.59952 23.139 6.47737 23.622 6.48301C25.8264 6.50932 28.0327 6.43039 30.2333 6.50744C34.6759 6.66342 38.2522 9.10836 39.1185 13.6637C40.0789 18.7077 37.1227 23.4792 31.8758 24.2835C30.1957 24.541 28.5175 24.4189 26.8374 24.4564C25.7587 24.4809 24.6782 24.432 23.6013 24.4734C23.0902 24.494 22.9887 24.3211 22.9924 23.8438C23.015 21.0662 23.0037 18.2868 23.0037 15.5073Z" fill="#FDFDFD"/>
<path d="M82.2969 21.2124C82.8945 18.9986 83.8247 17.078 84.5971 15.0841C85.6213 12.4531 86.7226 9.83714 87.7486 7.20051C87.9967 6.56156 88.3256 6.23268 89.0341 6.30786C89.4308 6.34826 89.8307 6.34826 90.2274 6.30786C90.8532 6.24396 90.7311 6.53713 90.5751 6.91298C89.6329 9.18942 88.6971 11.4665 87.7674 13.7442C86.388 17.1118 85.0011 20.4851 83.6481 23.8566C83.477 24.285 83.2722 24.394 82.8306 24.3922C81.0866 24.379 81.1091 24.3922 80.442 22.7478C78.5627 18.1285 76.659 13.5187 74.7872 8.8975C74.6256 8.49722 74.4114 8.39949 74.0186 8.40325C72.0736 8.42392 70.1266 8.43144 68.1816 8.40325C67.6667 8.40325 67.5765 8.56675 67.5783 9.03469C67.5952 13.8926 67.5783 18.7506 67.6065 23.6085C67.6065 24.2775 67.4036 24.4655 66.7815 24.3903C66.2065 24.3208 65.4566 24.6327 65.0902 24.2719C64.7237 23.9111 64.9812 23.1631 64.9793 22.5805C64.9705 18.0703 64.9705 13.56 64.9793 9.04972C64.9793 8.54984 64.8928 8.3713 64.3403 8.38634C62.7956 8.42956 61.247 8.38634 59.6985 8.40889C59.3227 8.40889 59.1798 8.33184 59.1704 7.91652C59.1385 6.3041 59.1216 6.3041 60.7396 6.3041C65.6408 6.3041 70.5401 6.31725 75.4394 6.28906C76.1291 6.28906 76.503 6.49015 76.7549 7.13474C78.4594 11.4477 80.1939 15.7512 81.9154 20.0585C82.0563 20.4043 82.1484 20.7558 82.2969 21.2124Z" fill="#FEFEFE"/>
<path d="M7.28541 15.5091C7.28541 12.7071 7.29857 9.90507 7.27414 7.10306C7.27414 6.60881 7.41133 6.47726 7.90182 6.4829C9.89386 6.51109 11.8878 6.44156 13.8779 6.50921C15.7572 6.57498 17.5801 6.855 19.1061 8.13291C19.6148 8.55884 20.0333 9.08215 20.337 9.67208C20.6407 10.262 20.8234 10.9067 20.8745 11.5682C21.0511 13.2934 20.7918 14.9509 19.5947 16.3416C18.4991 17.6158 17.0351 18.1213 15.4415 18.3844C14.3722 18.5592 13.2972 18.4971 12.226 18.4821C11.7487 18.4821 11.5833 18.5761 11.5946 19.0872C11.6284 20.6733 11.5946 22.2632 11.619 23.8493C11.619 24.3436 11.4762 24.4883 10.9895 24.4714C9.95775 24.4375 8.92227 24.4357 7.8943 24.4714C7.39629 24.4883 7.27226 24.3285 7.27602 23.8437C7.29857 21.068 7.28541 18.2885 7.28541 15.5091Z" fill="#FDFDFD"/>
<path d="M95.8033 25.5818V24.817C95.8033 18.6041 95.8033 12.3905 95.8033 6.17639C95.8033 5.9584 95.6717 5.64456 95.916 5.53744C96.1603 5.43032 96.3201 5.71221 96.5005 5.84752C100.616 8.93706 104.732 12.0278 108.847 15.1199C109.15 15.3473 109.33 15.4957 108.891 15.8133C104.676 18.963 100.471 22.1246 96.2768 25.2981C96.1641 25.3789 96.0419 25.439 95.8033 25.5818Z" fill="#CC3531"/>
<path d="M44.4782 15.5299C44.5215 17.3584 45.0044 19.0009 46.4834 20.2281C48.0169 21.4985 50.7945 21.4402 52.3844 20.1266C53.0233 19.5985 53.4819 19.6267 54.0757 20.2187C54.3238 20.4668 54.5756 20.7111 54.818 20.9704C55.5698 21.7616 55.5604 21.989 54.7128 22.6956C53.309 23.8664 51.706 24.4527 49.8661 24.6012C48.0771 24.7459 46.3782 24.5448 44.7921 23.7649C42.349 22.5659 40.9189 20.5307 40.3983 17.9109C39.8552 15.1747 40.0657 12.508 41.7138 10.1326C43.3169 7.82485 45.5927 6.68976 48.3552 6.40411C50.6366 6.1692 52.7865 6.51499 54.6658 7.85491C55.9813 8.79455 55.9456 8.4732 54.9872 9.73419C54.818 9.95783 54.6677 10.1927 54.5004 10.4164C53.8803 11.2433 53.356 11.3447 52.4859 10.7528C51.0802 9.79809 49.5598 9.6252 47.9624 10.0988C45.914 10.7001 44.9556 12.2336 44.5797 14.205C44.4795 14.639 44.4453 15.0857 44.4782 15.5299Z" fill="#FEFEFE"/>
<path d="M27.1982 15.4347C27.1982 13.7546 27.2114 12.0745 27.1982 10.3963C27.1982 9.96223 27.2734 9.76679 27.762 9.80061C28.7411 9.86827 29.724 9.75175 30.705 9.87015C33.2457 10.1765 34.6646 12.0952 34.8619 14.4669C34.9578 15.6132 34.9728 16.7821 34.5782 17.9153C33.8584 19.9826 32.2986 21.0406 30.1656 21.1721C29.35 21.221 28.5269 21.159 27.7075 21.189C27.311 21.2022 27.1926 21.0819 27.1963 20.6816C27.2095 18.9339 27.1982 17.1843 27.1982 15.4347Z" fill="#10274A"/>
<path d="M13.0134 15.2906C11.6077 15.2906 11.6058 15.2906 11.6077 13.8755C11.6077 12.6389 11.619 11.4023 11.6077 10.1658C11.6077 9.81245 11.6829 9.66963 12.0682 9.68466C12.9063 9.71849 13.7482 9.64896 14.5807 9.81433C15.9808 10.0925 16.6799 10.9926 16.6799 12.3702C16.6799 13.6856 16.2007 14.8132 14.7536 15.159C14.1803 15.2679 13.5966 15.312 13.0134 15.2906Z" fill="#10274A"/>
</svg>
