<svg width="112" height="35" viewBox="0 0 112 35" fill="none" xmlns="http://www.w3.org/2000/svg">
<g clip-path="url(#clip0)">
<path d="M7.85064 11.0543C3.93388 11.0543 0.75 14.227 0.75 18.1301V34.4969H4.11694V25.4125L5.35388 26.7129L10.3016 24.7734C13.1194 23.6776 14.9519 21.1433 14.9519 18.1308C14.9519 14.2277 11.768 11.0543 7.85064 11.0543ZM9.11108 21.8058L4.11756 23.746V18.1308C4.11756 15.8707 5.81279 14.2505 7.85126 14.2505C9.88973 14.2505 11.585 15.8935 11.585 18.1308C11.585 19.5458 10.8978 21.0983 9.11108 21.8058ZM67.2701 11.0543C63.3533 11.0543 60.1694 14.227 60.1694 18.1301C60.1694 22.0333 63.3533 25.206 67.2701 25.206C71.1868 25.206 74.3707 22.0333 74.3707 18.1301C74.3707 14.227 71.1868 11.0543 67.2701 11.0543ZM67.2701 22.0111C65.1172 22.0111 63.5364 20.2996 63.5364 18.1308C63.5364 15.962 65.1629 14.2505 67.2701 14.2505C69.4229 14.2505 71.0037 15.962 71.0037 18.1308C71.0037 20.2996 69.4229 22.0111 67.2701 22.0111ZM82.6402 14.2505C84.1054 14.2505 85.2966 15.0492 85.9157 16.2362L88.5497 14.2277C87.267 12.3331 85.1141 11.0777 82.6402 11.0777C78.7229 11.0777 75.539 14.2505 75.539 18.1536C75.539 22.0567 78.7229 25.2295 82.6402 25.2295C85.0912 25.2295 87.2664 23.974 88.5497 22.0795L85.9157 20.0703C85.2966 21.2579 84.1054 22.0567 82.6402 22.0567C80.4867 22.0567 78.9065 20.3452 78.9065 18.1764C78.9065 16.0076 80.5325 14.2505 82.6402 14.2505ZM53.9155 14.2505C55.3818 14.2505 56.573 15.0492 57.1915 16.2362L59.8255 14.2277C58.5428 12.3331 56.3893 11.0777 53.9155 11.0777C49.9987 11.0777 46.8148 14.2505 46.8148 18.1536C46.8148 22.0567 49.9987 25.2295 53.9155 25.2295C56.3664 25.2295 58.5428 23.974 59.8255 22.0795L57.1915 20.0703C56.573 21.2579 55.3818 22.0567 53.9155 22.0567C51.7626 22.0567 50.1818 20.3452 50.1818 18.1764C50.1818 16.0076 51.7854 14.2505 53.9155 14.2505ZM42.1417 12.7436C40.9963 11.5566 39.4847 11.0549 37.9039 11.0549C34.605 11.0549 31.2615 14.0452 31.2615 18.1308C31.2615 22.2163 34.605 25.2066 37.9039 25.2066C39.4847 25.2066 40.9963 24.705 42.1417 23.518V24.7962H45.5092V11.4875H42.1417V12.7436ZM38.408 22.0111C36.2557 22.0111 34.6285 20.2996 34.6285 18.1308C34.6285 15.962 36.3008 14.2505 38.408 14.2505C40.5615 14.2505 42.1417 15.962 42.1417 18.1308C42.1417 20.2996 40.5615 22.0111 38.408 22.0111ZM97.9183 17.6513H96.4067L102.248 11.4653H97.9183L93.1994 16.5333V4.20703H89.8324V24.7968H93.1994V21.0077L95.0548 19.0441L99.0173 24.7968H103.095L97.9183 17.6513ZM23.1522 11.0543C19.2354 11.0543 16.0515 14.227 16.0515 18.1301C16.0515 22.0333 19.2354 25.206 23.1522 25.206C25.4888 25.206 27.6874 24.088 28.9479 22.3531L26.2445 20.4814C25.9235 21.0065 24.8932 22.0098 23.1522 22.0098C21.5491 22.0098 20.2429 21.0515 19.6937 19.6592H29.9331C30.0481 19.1575 30.0939 18.6552 30.0939 18.1301C30.1155 14.2277 27.0696 11.0543 23.1522 11.0543ZM19.7166 16.6011C20.2664 15.2082 21.572 14.2505 23.1522 14.2505C24.7559 14.2505 25.9699 15.2088 26.474 16.6011H19.7166Z" fill="black"/>
<path d="M109.212 22.7891C108.089 22.7891 107.173 23.7018 107.173 24.821C107.173 25.939 108.089 26.8518 109.212 26.8518C110.334 26.8518 111.25 25.9396 111.25 24.821C111.25 23.7018 110.334 22.7891 109.212 22.7891Z" fill="#069DE0"/>
<path d="M109.212 17.2422C108.089 17.2422 107.173 18.1549 107.173 19.2742C107.173 20.3922 108.089 21.3049 109.212 21.3049C110.334 21.3049 111.25 20.3928 111.25 19.2742C111.228 18.1321 110.334 17.2422 109.212 17.2422Z" fill="#6E55DC"/>
<path d="M109.212 28.3359C108.089 28.3359 107.173 29.2487 107.173 30.3679C107.173 31.4859 108.089 32.3987 109.212 32.3987C110.334 32.3987 111.25 31.4865 111.25 30.3679C111.25 29.2487 110.334 28.3359 109.212 28.3359Z" fill="#05AC3F"/>
<path d="M109.212 11.6719C108.089 11.6719 107.173 12.5846 107.173 13.7039C107.173 14.8218 108.089 15.7352 109.212 15.7352C110.334 15.7352 111.25 14.8225 111.25 13.7039C111.228 12.5852 110.334 11.6719 109.212 11.6719Z" fill="#EF1541"/>
<path d="M109.212 6.125C108.089 6.125 107.173 7.03776 107.173 8.15698C107.173 9.27497 108.089 10.1883 109.212 10.1883C110.334 10.1883 111.25 9.27559 111.25 8.15698C111.228 7.03838 110.334 6.125 109.212 6.125Z" fill="#FF7112"/>
<path d="M109.212 0.578125C108.089 0.578125 107.173 1.49088 107.173 2.61011C107.173 3.7281 108.089 4.64147 109.212 4.64147C110.334 4.64147 111.25 3.72872 111.25 2.61011C111.228 1.4915 110.334 0.578125 109.212 0.578125Z" fill="#FCCC12"/>
</g>
<defs>
<clipPath id="clip0">
<rect width="110.5" height="33.92" fill="white" transform="translate(0.75 0.578125)"/>
</clipPath>
</defs>
</svg>
