<svg width="61" height="67" viewBox="0 0 61 67" fill="none" xmlns="http://www.w3.org/2000/svg">
<path d="M18.1291 33.001V55.8449C18.1454 56.8317 17.9651 57.8119 17.5987 58.7283C17.2324 59.6448 16.6872 60.4791 15.9951 61.1828C15.303 61.8864 14.4778 62.4452 13.5675 62.8267C12.6573 63.2081 11.6802 63.4046 10.6932 63.4046C9.70623 63.4046 8.72914 63.2081 7.81887 62.8267C6.9086 62.4452 6.08337 61.8864 5.39126 61.1828C4.69916 60.4791 4.15403 59.6448 3.78765 58.7283C3.42128 57.8119 3.24098 56.8317 3.25728 55.8449V33.001H18.1291Z" fill="url(#paint0_linear)"/>
<path d="M18.1311 10.1567C18.1311 6.04935 14.8015 2.71973 10.6942 2.71973C6.58688 2.71973 3.25725 6.04935 3.25725 10.1567V55.8444C3.25725 59.9517 6.58688 63.2814 10.6942 63.2814C14.8015 63.2814 18.1311 59.9517 18.1311 55.8444V10.1567Z" fill="url(#paint1_linear)"/>
<path d="M54.2232 39.4395C57.7803 37.3858 58.999 32.8374 56.9453 29.2804C54.8917 25.7234 50.3433 24.5047 46.7863 26.5583L7.21952 49.4022C3.6625 51.4559 2.44377 56.0042 4.49742 59.5612C6.55107 63.1183 11.0994 64.337 14.6565 62.2833L54.2232 39.4395Z" fill="url(#paint2_linear)"/>
<path d="M46.7868 39.443C50.3439 41.4966 54.8922 40.2779 56.9459 36.7208C58.9995 33.1638 57.7808 28.6155 54.2238 26.5618L14.657 3.71792C11.1 1.66426 6.5516 2.88299 4.49795 6.44002C2.4443 9.99705 3.66302 14.5454 7.22005 16.5991L46.7868 39.443Z" fill="url(#paint3_linear)"/>
<path d="M18.1291 10.1564V33.0003H3.25728V10.1564C3.24098 9.16956 3.42128 8.18935 3.78765 7.27291C4.15403 6.35647 4.69916 5.52212 5.39126 4.81849C6.08337 4.11487 6.9086 3.55604 7.81887 3.17459C8.72914 2.79313 9.70623 2.59668 10.6932 2.59668C11.6802 2.59668 12.6573 2.79313 13.5675 3.17459C14.4778 3.55604 15.303 4.11487 15.9951 4.81849C16.6872 5.52212 17.2324 6.35647 17.5987 7.27291C17.9651 8.18935 18.1454 9.16956 18.1291 10.1564Z" fill="url(#paint4_linear)"/>
<defs>
<linearGradient id="paint0_linear" x1="10.6942" y1="33.6983" x2="10.6942" y2="63.1663" gradientUnits="userSpaceOnUse">
<stop stop-color="#EB1C24"/>
<stop offset="1" stop-color="#B51F2A"/>
</linearGradient>
<linearGradient id="paint1_linear" x1="10.6942" y1="2.71973" x2="10.6942" y2="63.2814" gradientUnits="userSpaceOnUse">
<stop stop-color="#EB1C24"/>
<stop offset="1" stop-color="#EB1C24" stop-opacity="0"/>
</linearGradient>
<linearGradient id="paint2_linear" x1="56.9453" y1="29.2804" x2="4.49742" y2="59.5612" gradientUnits="userSpaceOnUse">
<stop stop-color="#D2131A"/>
<stop offset="1" stop-color="#EB1C24"/>
</linearGradient>
<linearGradient id="paint3_linear" x1="56.9459" y1="36.7208" x2="4.49795" y2="6.44002" gradientUnits="userSpaceOnUse">
<stop stop-color="#EB1C24"/>
<stop offset="1" stop-color="#D2131A"/>
</linearGradient>
<linearGradient id="paint4_linear" x1="548.978" y1="2.59668" x2="548.978" y2="8746.97" gradientUnits="userSpaceOnUse">
<stop stop-color="#EB1C24"/>
<stop offset="1" stop-color="#B51F2A"/>
</linearGradient>
</defs>
</svg>
