<svg width="108" height="35" viewBox="0 0 108 35" fill="none" xmlns="http://www.w3.org/2000/svg">
<path d="M10.9519 6.20253C4.90886 6.20253 0 11.2266 0 17.2608V19.0506V35H4.71392V26.2544C6.48608 27.4861 8.63924 28.3544 10.9519 28.3544C16.3835 28.3544 20.9025 24.243 21.762 19.0506C21.8595 18.4658 21.9127 17.8722 21.9127 17.2608C21.9038 11.2266 16.9949 6.20253 10.9519 6.20253ZM10.9519 23.5076C8.13418 23.5076 5.74177 21.6291 4.97089 19.0506C4.80253 18.4835 4.70506 17.881 4.70506 17.2608C4.70506 13.8228 7.50506 11.0139 10.9519 11.0139C14.3899 11.0139 17.1987 13.8139 17.1987 17.2608C17.1987 17.881 17.1101 18.4835 16.9329 19.0506C16.162 21.6203 13.7785 23.5076 10.9519 23.5076ZM43.0722 6.20253C37.0291 6.20253 32.1203 11.2266 32.1203 17.2608C32.1203 17.8722 32.1734 18.4658 32.2709 19.0506C33.1304 24.243 37.6494 28.3544 43.0722 28.3544C45.3937 28.3544 47.5468 27.4949 49.319 26.2544V27.9114H54.0329V19.0506V17.2608C54.0241 11.2266 49.1063 6.20253 43.0722 6.20253ZM43.0722 23.5076C40.2544 23.5076 37.862 21.6291 37.0911 19.0506C36.9228 18.4835 36.8253 17.881 36.8253 17.2608C36.8253 13.8228 39.6253 11.0139 43.0722 11.0139C46.5101 11.0139 49.319 13.8139 49.319 17.2608C49.319 17.881 49.2304 18.4835 49.0532 19.0506C48.2823 21.6203 45.8899 23.5076 43.0722 23.5076ZM29.338 0V19.0506V27.9114H24.6329V19.0506V0H29.338ZM107.641 6.20253V11.0228C105.549 11.0228 104.203 11.7228 103.423 13.238C102.82 14.3987 102.785 15.9848 102.785 16.0025V19.0595V27.9203H98.0798V19.0595V15.8962C98.0798 15.657 98.1152 13.1582 99.2405 10.9696C100.827 7.89494 103.813 6.20253 107.641 6.20253ZM95.9532 17.2608C95.9532 11.2177 91.0354 6.20253 85.0013 6.20253C78.9582 6.20253 74.0494 11.2266 74.0494 17.2608C74.0494 17.8722 74.1025 18.4658 74.2 19.0506C75.0595 24.243 79.5785 28.3544 85.0013 28.3544C89.6709 28.3544 93.6671 25.2797 95.2354 21.1506H89.8747C88.7317 22.5861 86.9684 23.4987 85.0013 23.4987C82.1835 23.4987 79.7911 21.6203 79.0203 19.0418H95.8025C95.9 18.4658 95.9532 17.8722 95.9532 17.2608ZM79.1443 15.1608C80.0038 12.7506 82.2987 11.0228 85.0013 11.0228C87.7038 11.0228 90.0076 12.7506 90.8582 15.1608H79.1443ZM75.1038 6.20253L69.876 19.0506L63.381 35H58.2949L61.476 27.1848L58.5076 19.0506L53.8114 6.20253H58.8266L63.5228 19.0506L64.1253 20.6899L64.7899 19.0506L70.0177 6.20253H75.1038Z" fill="url(#paint0_linear)"/>
<path d="M10.9519 6.20253C4.90886 6.20253 0 11.2266 0 17.2608V19.0506V35H4.71392V26.2544C6.48608 27.4861 8.63924 28.3544 10.9519 28.3544C16.3835 28.3544 20.9025 24.243 21.762 19.0506C21.8595 18.4658 21.9127 17.8722 21.9127 17.2608C21.9038 11.2266 16.9949 6.20253 10.9519 6.20253ZM10.9519 23.5076C8.13418 23.5076 5.74177 21.6291 4.97089 19.0506C4.80253 18.4835 4.70506 17.881 4.70506 17.2608C4.70506 13.8228 7.50506 11.0139 10.9519 11.0139C14.3899 11.0139 17.1987 13.8139 17.1987 17.2608C17.1987 17.881 17.1101 18.4835 16.9329 19.0506C16.162 21.6203 13.7785 23.5076 10.9519 23.5076ZM43.0722 6.20253C37.0291 6.20253 32.1203 11.2266 32.1203 17.2608C32.1203 17.8722 32.1734 18.4658 32.2709 19.0506C33.1304 24.243 37.6494 28.3544 43.0722 28.3544C45.3937 28.3544 47.5468 27.4949 49.319 26.2544V27.9114H54.0329V19.0506V17.2608C54.0241 11.2266 49.1063 6.20253 43.0722 6.20253ZM43.0722 23.5076C40.2544 23.5076 37.862 21.6291 37.0911 19.0506C36.9228 18.4835 36.8253 17.881 36.8253 17.2608C36.8253 13.8228 39.6253 11.0139 43.0722 11.0139C46.5101 11.0139 49.319 13.8139 49.319 17.2608C49.319 17.881 49.2304 18.4835 49.0532 19.0506C48.2823 21.6203 45.8899 23.5076 43.0722 23.5076ZM29.338 0V19.0506V27.9114H24.6329V19.0506V0H29.338ZM107.641 6.20253V11.0228C105.549 11.0228 104.203 11.7228 103.423 13.238C102.82 14.3987 102.785 15.9848 102.785 16.0025V19.0595V27.9203H98.0798V19.0595V15.8962C98.0798 15.657 98.1152 13.1582 99.2405 10.9696C100.827 7.89494 103.813 6.20253 107.641 6.20253ZM95.9532 17.2608C95.9532 11.2177 91.0354 6.20253 85.0013 6.20253C78.9582 6.20253 74.0494 11.2266 74.0494 17.2608C74.0494 17.8722 74.1025 18.4658 74.2 19.0506C75.0595 24.243 79.5785 28.3544 85.0013 28.3544C89.6709 28.3544 93.6671 25.2797 95.2354 21.1506H89.8747C88.7317 22.5861 86.9684 23.4987 85.0013 23.4987C82.1835 23.4987 79.7911 21.6203 79.0203 19.0418H95.8025C95.9 18.4658 95.9532 17.8722 95.9532 17.2608ZM79.1443 15.1608C80.0038 12.7506 82.2987 11.0228 85.0013 11.0228C87.7038 11.0228 90.0076 12.7506 90.8582 15.1608H79.1443ZM75.1038 6.20253L69.876 19.0506L63.381 35H58.2949L61.476 27.1848L58.5076 19.0506L53.8114 6.20253H58.8266L63.5228 19.0506L64.1253 20.6899L64.7899 19.0506L70.0177 6.20253H75.1038Z" fill="url(#paint1_linear)"/>
<defs>
<linearGradient id="paint0_linear" x1="0" y1="17.5" x2="107.641" y2="17.5" gradientUnits="userSpaceOnUse">
<stop stop-color="#00C1E4" stop-opacity="0.5"/>
<stop offset="1" stop-color="#00C1E4"/>
</linearGradient>
<linearGradient id="paint1_linear" x1="107.641" y1="17.5" x2="0" y2="17.5" gradientUnits="userSpaceOnUse">
<stop stop-color="#00C1E4" stop-opacity="0.5"/>
<stop offset="1" stop-color="#00C1E4"/>
</linearGradient>
</defs>
</svg>
