<svg width="122" height="40" viewBox="0 0 122 40" fill="none" xmlns="http://www.w3.org/2000/svg">
<path d="M27.083 10.0986C26.6204 6.43395 24.8892 3.58665 21.5187 1.85537C19.4539 0.821817 17.1908 0.245118 14.8832 0.164505C10.1856 -0.0667816 5.48127 0.11735 0.781435 0.043248C0.0336826 0.0320205 0 0.359864 0.0112275 0.936958C0.0261975 7.2064 0.0291915 13.4788 0.0202095 19.7543C0.0202095 25.9923 0.0381735 32.2303 0 38.4683C0 39.2812 0.22455 39.4563 0.992512 39.4384C3.16766 39.389 5.34504 39.389 7.52468 39.4384C8.26794 39.4563 8.39594 39.2138 8.3892 38.5401C8.35776 34.5387 8.40941 30.5349 8.34878 26.5357C8.33306 25.5836 8.62722 25.4129 9.50521 25.4264C12.0269 25.487 14.5576 25.4915 17.0411 24.9436C21.4648 23.9691 24.9004 21.764 26.4722 17.2932C27.2896 14.9489 27.3951 12.5238 27.083 10.0986ZM18.6871 13.7655C18.3076 16.6173 16.1317 18.2565 12.7208 18.4811C11.4947 18.5619 10.2507 18.508 9.03141 18.5642C8.45881 18.5889 8.35776 18.3508 8.35776 17.8456C8.38471 16.1143 8.35776 14.3808 8.35776 12.6473C8.35776 10.9137 8.35776 9.24307 8.35776 7.54098C8.35776 7.22212 8.31061 6.90101 8.80686 6.91224C10.5718 6.95715 12.3458 6.79098 14.1018 7.04248C18.0202 7.61059 19.1519 10.267 18.6871 13.7655Z" fill="#282A2D"/>
<path d="M59.3773 19.7359C59.3773 13.5248 59.3908 7.31376 59.3594 1.09821C59.3594 0.305547 59.4963 0.0248588 60.3743 0.0293498C67.289 0.0727629 74.2044 0.0727629 81.1205 0.0293498C81.9087 0.0293498 82.14 0.222463 82.1086 1.01288C82.0479 2.61841 82.0479 4.22844 82.1086 5.83397C82.14 6.66032 81.9581 6.95673 81.0464 6.93876C76.9125 6.88262 72.774 6.93876 68.6378 6.8961C67.917 6.8961 67.7396 7.08921 67.7598 7.7943C67.8047 10.0967 67.8047 12.3983 67.7598 14.6992C67.7463 15.3729 67.9552 15.5278 68.6041 15.5233C72.4888 15.4919 76.3735 15.5233 80.256 15.4896C80.9881 15.4896 81.1542 15.6917 81.1295 16.3878C81.0771 18.1214 81.0771 19.8549 81.1295 21.5884C81.1497 22.2845 80.905 22.408 80.274 22.4035C76.4207 22.3743 72.5674 22.4035 68.7164 22.3743C68.0001 22.3743 67.7418 22.5181 67.7576 23.295C67.807 26.0996 67.8002 28.9088 67.7576 31.7111C67.7576 32.4028 67.9821 32.5263 68.6086 32.5218C72.8099 32.4948 77.009 32.5218 81.2081 32.4926C81.8818 32.4926 82.1378 32.5936 82.1063 33.3459C82.0412 35.1423 82.0659 36.9387 82.1063 38.7351C82.1063 39.2762 81.9401 39.4245 81.4102 39.4245C74.3054 39.4095 67.1999 39.4095 60.0937 39.4245C59.3661 39.4245 59.3751 39.0719 59.3773 38.5532C59.3818 32.2823 59.3818 26.0098 59.3773 19.7359Z" fill="#282A2D"/>
<path d="M104.063 29.2276C102.042 32.3713 99.9875 35.515 97.9868 38.6721C97.623 39.247 97.239 39.4783 96.5519 39.4715C93.3319 39.4356 90.1118 39.4558 86.8962 39.4558H85.998C86.4471 38.726 86.8154 38.1085 87.1971 37.5202C90.8468 31.8226 94.5018 26.1295 98.1619 20.4409C98.5032 19.9132 98.5032 19.5584 98.1619 19.0285C94.2548 12.9746 90.3626 6.91175 86.4853 0.839907C86.3506 0.631075 86.2316 0.408771 86.1081 0.195448C86.2967 -0.103204 86.5751 0.0292808 86.8019 0.0292808C90.0849 0.0292808 93.3678 0.0292808 96.6507 0.00682573C96.9124 -0.0115558 97.1738 0.0468595 97.4027 0.174903C97.6317 0.302947 97.8183 0.495048 97.9396 0.727632C99.9606 3.91176 102.022 7.07791 104.068 10.2508C104.188 10.2871 104.299 10.3491 104.393 10.4324C104.488 10.5158 104.563 10.6185 104.613 10.7336C106.311 13.4664 108.094 16.1453 109.805 18.8735C109.943 19.1161 110.035 19.3816 110.079 19.6572C110.098 19.7086 110.098 19.7653 110.079 19.8167C110.016 20.5172 109.531 21.0113 109.181 21.5614C107.692 23.9416 106.138 26.277 104.656 28.6594C104.517 28.8975 104.377 29.1602 104.063 29.2276Z" fill="#E49F0D"/>
<path d="M31.1449 19.6978C31.1449 13.4598 31.1584 7.21958 31.127 0.981573C31.127 0.231575 31.3268 0.0227428 32.0723 0.0407068C34.1853 0.0901079 36.3028 0.0945989 38.4159 0.0407068C39.2534 0.0182518 39.5206 0.218102 39.5206 1.1163C39.4847 11.2323 39.5206 21.346 39.4757 31.462C39.4757 32.34 39.7138 32.5376 40.5626 32.5309C45.2332 32.4882 49.9038 32.5309 54.5745 32.4927C55.32 32.4927 55.5311 32.6791 55.5064 33.4246C55.4502 35.1873 55.4705 36.9523 55.5064 38.7172C55.5064 39.2427 55.3717 39.4291 54.8327 39.4268C47.1636 39.4134 39.4944 39.4134 31.8253 39.4268C31.0439 39.4268 31.1517 38.9777 31.1517 38.5107C31.1502 32.2412 31.1479 25.9703 31.1449 19.6978Z" fill="#282A2D"/>
<path d="M110.081 19.6566L104.063 10.2435C105.905 7.09975 107.76 3.96952 109.578 0.812347C109.895 0.262199 110.236 0.026421 110.903 0.035403C114.148 0.0735766 117.395 0.0645946 120.642 0.035403C121.284 0.035403 121.426 0.145433 121.075 0.744982C117.402 7.04736 113.737 13.3512 110.081 19.6566Z" fill="#282A2D"/>
<path d="M104.063 29.2273L110.079 19.8164C113.739 26.1173 117.403 32.4167 121.069 38.7146C121.414 39.3096 121.293 39.4286 120.638 39.4241C117.328 39.4017 114.018 39.3949 110.71 39.4241C110.122 39.4241 109.888 39.1547 109.635 38.7213C107.784 35.5551 105.923 32.3935 104.063 29.2273Z" fill="#282A2D"/>
</svg>
