<svg width="120" height="33" viewBox="0 0 120 33" fill="none" xmlns="http://www.w3.org/2000/svg">
<g clip-path="url(#clip0)">
<path d="M13.0375 15.2801C13.0375 17.1104 11.5613 18.5986 9.74514 18.5986H6.00657V12.2019H9.74514C11.5613 12.2019 13.0375 13.5827 13.0375 15.2801ZM10.0214 7.47852H1.9365C1.43784 7.47852 1.03125 7.88411 1.03125 8.38161V31.1024C1.03125 31.5999 1.43784 32.0055 1.9365 32.0055H5.10132C5.5844 32.0055 6.00657 31.5829 6.00657 31.1024V23.288H10.0554C14.4244 23.288 17.9788 19.711 17.9788 15.3141C17.9788 10.9935 14.4088 7.47852 10.0214 7.47852Z" fill="black"/>
<path d="M34.685 27.3839H26.1638V8.38161C26.1638 7.90109 25.7416 7.47852 25.2585 7.47852H22.0937C21.5951 7.47852 21.1885 7.88415 21.1885 8.38161V31.101C21.1885 31.5999 21.5951 32.0041 22.0937 32.0041H34.685C35.1837 32.0041 35.5903 31.5999 35.5903 31.101V28.287C35.5903 27.7895 35.1837 27.3839 34.685 27.3839Z" fill="black"/>
<path d="M57.1125 7.47852H53.8443C53.3456 7.47852 52.9391 7.88415 52.9391 8.38161V22.1094C52.9391 24.9671 50.933 27.0405 48.1677 27.0405C45.4236 27.0405 43.4318 24.953 43.4318 22.0754V8.38161C43.4318 7.88415 43.0252 7.47852 42.5265 7.47852H39.2583C38.7752 7.47852 38.353 7.90109 38.353 8.38161V22.3157C38.353 27.7485 42.664 32.0055 48.1677 32.0055C53.6913 32.0055 58.0178 27.7485 58.0178 22.3157V8.38161C58.0178 7.90109 57.5956 7.47852 57.1125 7.47852Z" fill="black"/>
<path d="M77.6699 7.47852H62.6363C62.1376 7.47852 61.7324 7.88415 61.7324 8.38161V11.1956C61.7324 11.6945 62.1376 12.0987 62.6363 12.0987H67.6484V31.1024C67.6484 31.5829 68.072 32.0055 68.5537 32.0055H71.7525C72.2356 32.0055 72.6577 31.5829 72.6577 31.1024V12.0987H77.6699C78.1686 12.0987 78.5751 11.6945 78.5751 11.1956V8.38161C78.5751 7.88415 78.1686 7.47852 77.6699 7.47852Z" fill="black"/>
<path d="M98.9569 19.7806C98.9569 23.8524 95.6206 27.1667 91.5194 27.1667C87.4379 27.1667 84.1173 23.8524 84.1173 19.7806C84.1173 15.6706 87.4379 12.3281 91.5194 12.3281C95.5512 12.3281 98.9569 15.7413 98.9569 19.7806ZM91.5194 7.49023C84.7633 7.49023 79.2666 13.0037 79.2666 19.7806C79.2666 26.6353 84.6485 32.0045 91.5194 32.0045C98.4086 32.0045 103.806 26.6353 103.806 19.7806C103.806 13.0037 98.2938 7.49023 91.5194 7.49023Z" fill="black"/>
<path d="M116.318 6.35401L114.2 11.6102C114.157 11.7164 114.057 11.7825 113.943 11.7825H112.947C112.835 11.7825 112.733 11.716 112.691 11.6102L110.933 7.24579C110.882 7.30388 110.807 7.33914 110.724 7.33914H109.405V11.5071C109.405 11.6597 109.28 11.7827 109.127 11.7827H108.237C108.086 11.7827 107.961 11.6597 107.961 11.5071V7.33914H106.641C106.488 7.33914 106.363 7.21614 106.363 7.0635V6.25088C106.363 6.09944 106.488 5.97524 106.641 5.97524H110.725H110.831H111.826C111.938 5.97524 112.038 6.04172 112.081 6.14628L113.447 9.45073L114.811 6.14628C114.852 6.04172 114.953 5.97524 115.067 5.97524H116.061C116.152 5.97524 116.239 6.02053 116.29 6.09665C116.342 6.17156 116.352 6.26769 116.318 6.35382L116.318 6.35401ZM111.351 1.11035C107.275 1.11035 103.972 4.40624 103.972 8.47239C103.972 12.5386 107.275 15.8345 111.351 15.8345C115.425 15.8345 118.729 12.5386 118.729 8.47239C118.729 4.40624 115.425 1.11035 111.351 1.11035Z" fill="black"/>
</g>
<defs>
<clipPath id="clip0">
<rect width="118.76" height="31.9548" fill="white" transform="translate(0.5 0.580078)"/>
</clipPath>
</defs>
</svg>
