<svg width="104" height="50" viewBox="0 0 104 50" fill="none" xmlns="http://www.w3.org/2000/svg">
<path d="M23.7869 4.3418C21.1023 4.3418 19.7949 5.64921 19.4912 8.26405L19.2344 8.24065L19.5848 4.66887H16.0598V21.4772H19.7018V17.5784L19.4067 14.7732L19.6555 14.7539C20.0757 16.2012 21.3129 17.2733 23.624 17.2733C26.8921 17.2733 28.9698 14.6819 28.9698 10.8069C28.9693 6.90984 26.8917 4.3418 23.7869 4.3418ZM22.6662 14.2167C20.7051 14.2167 19.655 13.0263 19.655 10.8082C19.655 8.59023 20.7055 7.39978 22.6662 7.39978C24.6039 7.39978 25.6311 8.59023 25.6311 10.8082C25.6311 13.0263 24.6044 14.2167 22.6667 14.2167H22.6662Z" fill="#FFC700"/>
<path d="M36.9295 4.34277C33.1008 4.34277 30.5562 6.91082 30.5562 10.8092C30.5562 14.7076 33.1008 17.2757 36.9295 17.2757C40.7581 17.2757 43.3028 14.7076 43.3028 10.8092C43.3028 6.91082 40.7581 4.34277 36.9295 4.34277ZM36.9295 14.1956C34.945 14.1956 33.8944 13.0286 33.8944 10.8106C33.8944 8.61595 34.945 7.42595 36.9295 7.42595C38.914 7.42595 39.9645 8.6164 39.9645 10.8106C39.9645 13.0272 38.9135 14.1943 36.9295 14.1943V14.1956Z" fill="#FFC700"/>
<path d="M49.7535 14.0068C48.9833 14.0068 48.6099 13.5398 48.6099 12.6531V0H45.1546V13.1898C45.1546 15.7092 46.462 17.2749 48.8438 17.2749C49.7542 17.2908 50.6562 17.0992 51.4816 16.7148L51.1779 13.6797C50.7309 13.8864 50.2459 13.9978 49.7535 14.0068Z" fill="#FFC700"/>
<path d="M59.9604 9.47817L57.2291 8.84831C56.3653 8.6616 56.0854 8.4515 56.0854 8.00789C56.0854 7.37803 56.6226 7.12069 57.93 7.12069C59.4365 7.14501 60.9219 7.47869 62.2941 8.10102L62.5978 5.08938C61.1336 4.58467 59.5943 4.33199 58.0456 4.34209C54.8005 4.34209 52.8632 5.76603 52.8632 8.14736C52.8632 10.1319 53.7738 11.2287 55.8515 11.7659L58.5824 12.466C59.6563 12.7463 59.96 12.9798 59.96 13.5165C59.9366 14.2165 59.4462 14.45 58.0222 14.45C56.4297 14.4973 54.8456 14.2028 53.3766 13.5862L53.0499 16.6906C54.3096 17.1108 55.7111 17.2754 58.0222 17.2754C61.244 17.2754 63.1817 15.8978 63.1817 13.3068C63.1817 11.3691 62.25 10.0149 59.9604 9.47817Z" fill="#FFC700"/>
<path d="M74.3402 6.56296L74.0833 6.58321C73.5232 5.2524 72.5424 4.3418 70.2083 4.3418C66.87 4.3418 64.769 6.93323 64.769 10.8082C64.769 14.7066 66.8466 17.2747 69.9514 17.2747C72.636 17.2747 73.9434 15.8507 74.2471 13.0726L74.5134 13.0969L74.1085 16.9481H77.6803V4.66977H74.1553L74.3402 6.56296ZM71.0717 14.2172C69.1339 14.2172 68.1068 13.0267 68.1068 10.8087C68.1068 8.59067 69.1339 7.40023 71.0717 7.40023C73.0328 7.40023 74.0829 8.59067 74.0829 10.8087C74.0829 13.0267 73.0319 14.2167 71.0721 14.2167L71.0717 14.2172Z" fill="#FFC700"/>
<path d="M86.3949 14.007C85.2045 14.007 84.831 13.6102 84.831 12.2794V7.82084H87.7491V4.66927H84.831V1.58789L81.3758 2.10168V4.66972H79.5082V7.82129H81.3776V13.2138C81.3776 15.875 82.9419 17.276 85.393 17.276C86.4337 17.32 87.471 17.1285 88.4275 16.7159L88.1005 13.6565C87.5613 13.8867 86.9812 14.0059 86.3949 14.007Z" fill="#FFC700"/>
<path d="M8.56938 31.9035C5.88481 31.9035 4.5774 33.2109 4.27371 35.8258L4.01772 35.8024L4.48382 31.1567V27.5615H0.841858V44.5098H4.41363L4.18868 42.335L4.43838 42.3156C4.85813 43.763 6.09582 44.8351 8.40696 44.8351C11.6751 44.8351 13.7527 42.2436 13.7527 38.3686C13.7532 34.4716 11.6737 31.9035 8.56938 31.9035ZM7.44867 41.7784C5.48755 41.7784 4.43748 40.588 4.43748 38.37C4.43748 36.152 5.488 34.9615 7.44867 34.9615C9.3864 34.9615 10.4135 36.152 10.4135 38.37C10.4135 40.588 9.3882 41.7784 7.45047 41.7784H7.44867Z" fill="#FFC700"/>
<path d="M21.5698 31.9043C17.7411 31.9043 15.1964 34.4723 15.1964 38.3707C15.1964 42.2691 17.7411 44.8372 21.5698 44.8372C25.3984 44.8372 27.9431 42.2691 27.9431 38.3707C27.9431 34.4723 25.3966 31.9043 21.5698 31.9043ZM21.5698 41.7572C19.5852 41.7572 18.5347 40.5901 18.5347 38.3721C18.5347 36.1775 19.5852 34.9875 21.5698 34.9875C23.5543 34.9875 24.6048 36.1779 24.6048 38.3721C24.6048 40.5888 23.552 41.7558 21.5698 41.7558V41.7572Z" fill="#FFC700"/>
<path d="M40.1148 32.2305H36.2627L34.1032 35.8391L31.9225 32.2305H27.9071L32.1002 38.3491L27.9071 44.5101H31.7358L33.9921 40.7759L36.2866 44.5101H40.2547L35.9991 38.2232L40.1148 32.2305Z" fill="#FFC700"/>
<path d="M85.3448 34.1273L85.0875 34.1475C84.5264 32.8153 83.5452 31.9043 81.2084 31.9043C77.867 31.9043 75.7646 34.4049 75.7646 38.1435C75.7646 41.9061 77.844 44.3828 80.952 44.3828C83.7328 44.3828 85.1113 42.9575 85.415 40.1771L85.6152 40.1987L85.4852 43.1681C85.3916 45.4113 84.1764 46.5563 81.957 46.5563C80.4845 46.5563 79.5033 46.2058 77.4472 45.2709L76.6059 48.2403C78.2429 49.1517 80.0839 49.6341 81.9575 49.6426C86.3503 49.6426 88.6871 47.7265 88.6871 43.1698V32.2314H85.1576L85.3448 34.1273ZM82.0731 41.3212C80.1336 41.3212 79.1038 40.2 79.1038 38.1431C79.1038 36.0861 80.1318 34.965 82.0731 34.965C84.036 34.965 85.0875 36.0866 85.0875 38.1431C85.0875 40.1996 84.036 41.3212 82.0736 41.3212H82.0731Z" fill="#FFC700"/>
<path d="M97.2626 31.9043C93.4304 31.9043 90.883 34.4746 90.883 38.377C90.883 42.2795 93.4304 44.8498 97.2626 44.8498C101.095 44.8498 103.642 42.2795 103.642 38.377C103.642 34.4746 101.095 31.9043 97.2626 31.9043ZM97.2626 41.7653C95.2763 41.7653 94.2249 40.5955 94.2249 38.377C94.2249 36.1806 95.2763 34.9888 97.2626 34.9888C99.2489 34.9888 100.3 36.1806 100.3 38.377C100.3 40.5973 99.2489 41.7653 97.2626 41.7653Z" fill="#FFC700"/>
<path d="M50.9555 32.954C51.1962 34.0932 52.7853 39.7102 53.1398 40.4674C53.7503 41.7721 54.5732 42.5558 57.1439 42.5518C59.7493 42.5473 66.6958 41.0131 67.7166 40.5776C69.4497 39.8375 70.2505 38.1931 70.0957 36.277V36.2707C69.9057 34.6787 69.5059 33.1188 68.9066 31.6317C68.427 30.3666 67.1471 27.0288 63.1294 26.6828C60.1138 26.4755 57.0878 26.8899 54.2389 27.9003C53.1497 28.289 50.2325 29.5289 50.9555 32.954ZM55.4249 29.0376C60.3783 27.6479 63.4309 27.8521 64.4229 27.9758C65.1783 28.0699 66.4826 28.1914 67.6051 30.6892C68.3257 32.3306 68.8199 34.0624 69.074 35.837C69.3381 37.5417 68.4936 38.1976 67.7184 38.4347C64.333 39.2967 60.8898 39.9131 57.4157 40.2793C56.8579 40.336 56.2964 40.2169 55.8097 39.9388C55.3229 39.6607 54.9353 39.2373 54.701 38.7281C54.4607 38.1193 52.9949 32.3691 52.9949 32.3691C52.5473 30.5817 53.7985 29.4938 55.4249 29.0376Z" fill="#FFC700"/>
<path d="M67.8481 36.11C67.7981 35.84 67.0171 31.4103 65.6746 29.3677C62.1626 29.0865 58.6061 29.8032 55.3039 30.9563L57.112 38.0198C60.9591 37.533 64.5588 36.8496 67.8481 36.11Z" fill="#FFC700"/>
<path d="M54.3753 48.1893C46.5267 46.3501 46.264 36.6296 46.264 36.617L46.1933 36.6143C45.7844 41.277 47.1831 45.4157 50.3162 47.7678C51.3622 48.5765 52.5518 49.1798 53.8223 49.5458C55.3207 49.9349 56.8728 50.0757 58.4167 49.9624C62.2823 49.7717 66.0853 48.1916 67.7716 46.0001L67.7446 45.979C65.527 47.6832 58.7704 49.2178 54.3753 48.1893Z" fill="#FFC700"/>
<path d="M67.4755 42.7118C64.3144 43.7962 61.0192 44.4412 57.6825 44.6288C55.5068 44.7278 51.8216 44.3507 50.7392 40.5536C50.4692 39.6088 49.0079 34.5852 48.967 33.0402C48.8595 28.9911 52.8245 27.277 53.1362 27.1465C51.8744 27.5831 50.7338 28.3121 49.8076 29.2738C48.8814 30.2356 48.1959 31.4029 47.8071 32.6803C46.9582 35.2843 48.8271 41.2356 49.5285 42.6506C51.2547 46.131 54.7221 46.6237 56.232 46.7447C60.2438 47.0673 65.2193 45.9798 68.5332 43.7605C69.0949 43.3738 69.5748 42.88 69.9453 42.3076C70.3159 41.7351 70.5699 41.0952 70.6928 40.4244L70.6073 40.4141C70.354 40.9085 69.6589 41.8565 67.4755 42.7118Z" fill="#FFC700"/>
</svg>
