<svg width="133" height="17" viewBox="0 0 133 17" fill="none" xmlns="http://www.w3.org/2000/svg">
<g clip-path="url(#clip0)">
<path d="M41.6934 8.01266C41.5281 5.68218 40.2945 4.33691 37.9875 4.08014C36.8679 3.9639 35.7428 3.91451 34.6177 3.93222C30.28 3.98246 28.5206 5.10723 28.8134 9.82403C28.9598 12.1685 28.5667 14.5324 29.0465 16.8685H31.4864C32.2076 16.1596 31.1909 14.7334 32.2699 14.3845C33.1564 14.1054 34.2273 14.3845 35.2168 14.4152C35.3957 14.4152 35.5774 14.4152 35.759 14.4152C40.6659 14.418 42.0459 12.9304 41.6934 8.01266ZM35.206 11.641H34.6638C31.9527 11.641 31.1394 10.5246 31.8606 7.87311C31.9264 7.55473 32.1018 7.27154 32.3543 7.07565C32.6068 6.87976 32.9196 6.78434 33.235 6.80695C34.539 6.77904 35.8458 6.77904 37.1498 6.80695C38.1393 6.80695 38.5703 7.36515 38.63 8.35038C38.8252 11.4791 38.6679 11.6493 35.206 11.6493V11.641Z" fill="#00B8FF"/>
<path d="M12.9372 7.76232C12.9372 7.62835 12.8938 7.48322 12.8775 7.36041C12.6579 5.75 11.7579 4.73129 10.218 4.29031C8.67815 3.84933 7.01359 3.94422 5.39782 3.93027C3.21003 3.90794 1.33671 4.52475 0.130305 6.52032V14.1453C0.130305 15.0524 -0.222128 16.314 0.227902 16.7689C0.677931 17.2238 1.93313 16.8694 2.83319 16.8694C3.3754 16.1018 2.63529 14.7901 3.43233 14.4161C4.22937 14.0421 5.27853 14.391 6.22197 14.4161C6.49307 14.4161 6.76417 14.4161 7.03528 14.4161C12.0127 14.4161 13.4794 12.7666 12.9372 7.76232ZM9.90625 10.2351C9.84389 10.9859 9.53484 11.4297 8.79744 11.533C7.32415 11.7204 5.8345 11.7279 4.3595 11.5553C3.58686 11.4716 3.14496 11.0138 3.11514 10.2017V10.0677C2.87386 7.01712 3.11514 6.79384 6.54187 6.79384H6.81297C9.96589 6.79384 10.1774 7.04224 9.90625 10.2351Z" fill="#FF3300"/>
<path d="M26.2539 3.15917C24.0851 1.51527 21.5015 0.884505 19.2486 0.348633C17.2316 0.348633 15.9737 1.16081 15.3203 2.72936C15.0492 3.39641 14.8025 4.0802 14.5775 4.76679C13.71 7.42941 14.4826 9.24635 17.0581 10.3767C18.376 10.9561 19.7268 11.4529 21.1029 11.8643C24.0851 12.7602 25.6764 11.9369 26.769 8.99795C27.0614 8.24111 27.3023 7.46427 27.4901 6.67305C27.6609 6.02758 27.6338 5.34356 27.4125 4.71457C27.1912 4.08558 26.7866 3.54233 26.2539 3.15917ZM24.3995 6.41906C24.2559 6.97727 24.0444 7.53547 23.8573 8.09367C23.5429 9.11796 22.838 9.4473 21.8702 9.12913C20.6339 8.72164 19.4058 8.27508 18.1994 7.78387C17.3861 7.44895 17.0391 6.82097 17.3861 5.92227C17.6274 5.28871 17.8335 4.6384 18.1018 4.0188C18.3241 3.54433 18.7064 3.2429 19.5197 3.29872C20.8752 3.709 22.472 4.18068 23.9387 4.97333C24.4971 5.28034 24.5378 5.86086 24.3995 6.41906Z" fill="#00B8FF"/>
<path d="M70.9202 7.59135C70.7874 5.91675 69.8927 4.84221 68.3231 4.3175C67.1058 3.90723 65.837 4.01608 64.5222 3.90723C63.7441 3.95467 62.8956 3.98537 62.0416 4.06352C59.5475 4.29518 58.2896 5.54834 58.1296 8.03791C58.0672 8.9858 58.0863 9.93751 58.1865 10.8819C58.3817 12.6905 59.3089 13.7678 61.0873 14.1697C63.2038 14.5951 65.3772 14.6263 67.5043 14.2618C69.8819 13.913 70.885 12.6068 70.9582 10.1674C70.993 9.3087 70.9803 8.44861 70.9202 7.59135ZM67.9381 10.4438C67.8873 10.7648 67.7242 11.0556 67.4795 11.2612C67.2347 11.4669 66.9253 11.5732 66.6097 11.5602C65.2542 11.616 63.8987 11.6243 62.5675 11.5769C61.6078 11.5406 61.1795 10.9992 61.1497 9.98045C61.0548 6.82103 61.0656 6.78475 64.6415 6.78475H65.0481C67.8676 6.79312 68.5237 7.63322 67.9327 10.4438H67.9381Z" fill="#00B8FF"/>
<path d="M49.9886 3.89062C50.8833 3.95203 51.786 3.97994 52.678 4.0832C53.7271 4.20322 54.7058 4.55209 55.4161 5.38939C55.9583 6.009 56.5873 6.7849 55.9583 7.54963C55.3998 8.22784 54.15 8.16365 53.7163 7.73942C52.3201 6.36345 50.6854 6.92724 49.1319 6.79606C48.7708 6.77349 48.4087 6.77349 48.0475 6.79606C47.0905 6.84351 46.6053 7.28728 46.5565 8.31995C46.4101 11.4319 46.5782 11.6468 49.704 11.6357C51.1137 11.6357 52.5045 11.8227 53.7081 10.589C54.2151 10.0671 55.4134 10.0476 56.0396 10.8011C56.6062 11.4849 56.0125 12.1771 55.6194 12.7549C55.3565 13.1311 55.0223 13.4487 54.637 13.6886C54.2517 13.9284 53.8232 14.0855 53.3774 14.1504C51.1208 14.5872 48.8049 14.5872 46.5483 14.1504C44.6913 13.7736 43.8373 12.6795 43.5798 10.7649C42.9156 5.58197 44.4608 3.90737 49.9886 3.89062Z" fill="#FF3300"/>
<path d="M85.7573 10.3272C85.7573 9.50943 85.7302 8.69166 85.7573 7.87669C85.8414 5.62435 87.1128 4.22885 89.3603 4.0893C91.0676 3.98325 92.7795 3.98325 94.4868 4.0893C96.615 4.22048 97.816 5.4848 97.8892 7.56689C97.9542 9.37825 97.8892 11.1952 97.9136 13.0066C97.938 14.1871 97.2195 14.296 96.3195 14.3016C95.3571 14.3016 94.9342 13.922 94.964 12.9061C95.0155 11.3208 94.9477 9.73271 94.9884 8.16137C95.0128 7.21801 94.5736 6.82448 93.7034 6.8189C92.4888 6.8189 91.2634 6.79657 90.0597 6.83285C89.2058 6.85518 88.7476 7.30453 88.7584 8.2144C88.7774 9.66572 88.7205 11.1198 88.7747 12.5684C88.8181 13.7183 88.528 14.349 87.2104 14.3323C85.9688 14.3323 85.6543 13.749 85.7356 12.6577C85.7926 11.8902 85.7356 11.117 85.7356 10.3467L85.7573 10.3272Z" fill="#FF3300"/>
<path d="M122.395 4.03584C123.352 3.90746 124.021 4.29261 124.599 5.05735C125.036 5.57418 125.501 6.06524 125.992 6.52821C126.434 7.00268 126.822 6.95523 127.231 6.47797C127.703 5.91977 128.237 5.43693 128.684 4.87314C129.533 3.8014 130.691 3.95211 131.786 4.11399C132.651 4.24238 132.434 4.81453 131.986 5.27784C131.078 6.2212 130.178 7.17014 129.221 8.06884C128.614 8.62704 128.627 9.05686 129.221 9.62064C130.338 10.6701 131.406 11.7725 132.474 12.861C132.746 13.1401 133.12 13.4387 132.933 13.9048C132.746 14.3709 132.285 14.2984 131.892 14.3626C130.452 14.597 129.568 13.7653 128.663 12.8108C126.554 10.578 126.494 10.578 124.447 12.8638C123.514 13.8992 122.52 14.611 121.056 14.3486C120.741 14.2928 120.397 14.276 120.242 13.9634C120.047 13.5699 120.299 13.2685 120.557 13.0061C121.695 11.8479 122.815 10.6701 123.994 9.55366C124.553 9.02336 124.574 8.641 124.011 8.11908C123.219 7.38225 122.454 6.61194 121.725 5.81092C121.362 5.40902 120.597 5.11596 120.912 4.41542C121.197 3.8014 121.901 4.16144 122.395 4.03584Z" fill="#00B8FF"/>
<path d="M101.528 10.302C101.528 9.66562 101.514 9.03206 101.528 8.39571C101.549 7.41886 101.633 6.4755 100.24 6.31921C99.5568 6.24385 99.6138 5.54052 99.6165 4.99069C99.6165 4.38783 99.912 4.0557 100.519 4.05012C101.127 4.04454 101.438 3.70683 101.604 3.09002C102.23 0.857214 103.022 0.226448 105.31 0.0729424C105.982 0.0282863 106.665 0.0561964 107.335 0.0729424C108.105 0.0896884 108.46 0.491593 108.452 1.28145C108.444 2.0713 108.113 2.46204 107.316 2.45646C106.641 2.45646 105.96 2.45646 105.291 2.49832C104.765 2.5374 104.277 2.7551 104.255 3.36353C104.225 4.13385 104.865 4.01105 105.339 4.03058C106.058 4.06408 106.779 4.0557 107.508 4.0557C108.238 4.0557 108.457 4.43807 108.465 5.08837C108.473 5.73868 108.378 6.31642 107.611 6.39177C106.891 6.46248 106.166 6.48392 105.442 6.45597C104.532 6.42527 104.138 6.79368 104.157 7.73704C104.198 9.46188 104.138 11.1867 104.174 12.9088C104.193 13.8689 103.838 14.3406 102.848 14.3461C101.858 14.3517 101.511 13.8019 101.525 12.8864C101.539 12.024 101.525 11.1644 101.525 10.302H101.528Z" fill="#00B8FF"/>
<path d="M72.8262 10.4131C72.8262 9.59812 72.8045 8.78315 72.8262 7.97097C72.8994 5.70746 74.1329 4.2701 76.3506 4.09705C78.0072 3.99239 79.6686 3.99239 81.3253 4.09705C82.4314 4.15008 83.4399 4.59943 84.058 5.6014C84.4592 6.24892 84.9852 7.10017 84.1936 7.65279C83.8357 7.89525 83.4123 8.0143 82.9844 7.99272C82.5565 7.97115 82.1464 7.81008 81.8133 7.53278C80.9593 6.84898 77.3455 6.48336 76.4455 7.00249C75.8843 7.32345 75.8409 7.83979 75.8436 8.39799C75.8436 9.89118 75.8056 11.3844 75.8436 12.8636C75.8761 13.9409 75.3882 14.2954 74.3769 14.2842C73.3657 14.2731 72.7124 14.047 72.8045 12.8385C72.875 12.0458 72.8262 11.2281 72.8262 10.4131Z" fill="#FF3300"/>
<path d="M113.294 7.22286C113.294 9.12633 113.294 11.027 113.294 12.9305C113.294 13.8738 112.906 14.3427 111.925 14.3567C110.884 14.3734 110.637 13.8292 110.643 12.9053C110.668 9.10028 110.668 5.29521 110.643 1.49014C110.643 0.532828 110.979 0.0583575 111.968 0.0527754C112.958 0.0471934 113.299 0.610976 113.294 1.51526C113.289 3.41593 113.297 5.3194 113.294 7.22286Z" fill="#00B8FF"/>
<path d="M119.028 9.12437C119.028 10.4836 119.028 11.8456 119.028 13.2076C119.028 14.0198 118.629 14.3491 117.862 14.3491C117.095 14.3491 116.439 14.2207 116.431 13.3025C116.398 10.5375 116.398 7.77073 116.431 5.00206C116.431 4.02242 117.195 4.06149 117.895 4.04474C118.684 4.02521 119.052 4.36292 119.039 5.17789C119.014 6.49245 119.031 7.81539 119.028 9.12437Z" fill="#00B8FF"/>
<path d="M116.322 1.49332C116.423 0.656024 116.767 -0.0110259 117.727 0.000138112C118.686 0.0113021 119.21 0.661606 119.21 1.57985C119.21 2.49809 118.643 3.13164 117.659 3.07024C116.761 3.02 116.363 2.38365 116.322 1.49332Z" fill="#00B8FF"/>
</g>
<defs>
<clipPath id="clip0">
<rect width="133" height="17" fill="white"/>
</clipPath>
</defs>
</svg>
