<svg width="135" height="46" viewBox="0 0 135 46" fill="none" xmlns="http://www.w3.org/2000/svg">
<g clip-path="url(#clip0)">
<path d="M91.5997 13.0153C91.5997 10.9261 91.616 8.97059 91.5897 7.01759C91.5822 6.43406 91.7798 6.22789 92.3713 6.18041C94.9822 5.97298 97.5856 5.6681 100.198 5.49067C103.449 5.27075 106.649 5.39695 109.654 6.89263C112.725 8.4208 114.664 10.8486 115.406 14.1699C116.333 18.3595 115.556 22.2368 112.905 25.6505C110.7 28.4882 107.678 30.0238 104.227 30.7948C102.845 31.1062 101.435 31.2704 100.019 31.2846C97.4368 31.3071 94.8546 31.2846 92.2725 31.3058C91.6848 31.3058 91.4697 31.1347 91.4747 30.5274C91.5035 26.9513 91.4322 23.3726 91.5297 19.799C91.5847 17.4924 91.5322 15.1857 91.5997 13.0153ZM98.7597 18.4058H98.736C98.736 20.6686 98.7472 22.9315 98.7285 25.1944C98.7285 25.7267 98.8923 25.9691 99.4462 25.9191C99.8214 25.8854 100.196 25.9191 100.572 25.8942C104.099 25.6143 107.228 23.5388 108.268 19.9914C109.106 17.1375 108.206 14.0874 106.017 12.413C104.115 10.9598 101.932 10.6637 99.6326 10.8874C98.7572 10.9736 98.7572 11.0048 98.7572 11.8657C98.7581 14.0449 98.7589 16.2249 98.7597 18.4058Z" fill="#F16764"/>
<path d="M22.1329 24.4555C22.0166 17.9318 22.0078 11.4067 22.0078 4.88298C22.0078 3.92085 22.0078 3.91835 22.9794 4.0483C26.1055 4.46689 29.2529 4.81676 32.369 5.32906C35.0074 5.76265 37.437 6.75602 39.5402 8.48286C44.1806 12.2902 43.6867 19.0851 38.5236 22.1726C37.7846 22.615 37.7834 22.6162 38.2735 23.3559C39.9191 25.8317 41.5659 28.3061 43.214 30.7794C43.4479 31.128 43.4479 31.2967 42.9727 31.2954C40.6831 31.2954 38.3936 31.2817 36.104 31.2954C35.6651 31.2954 35.4788 31.0255 35.3 30.7156C34.0495 28.6048 32.8016 26.4935 31.5562 24.3818C31.2761 23.9057 29.9306 23.5709 29.4642 23.8707C29.2229 24.0244 29.2904 24.2768 29.2904 24.4955C29.2904 26.4947 29.2679 28.4852 29.3041 30.4807C29.3154 31.118 29.0978 31.3067 28.4776 31.2954C26.6257 31.2629 24.7725 31.2642 22.9206 31.2879C22.3342 31.2954 22.1128 31.1117 22.1216 30.5045C22.1541 28.4865 22.1329 26.471 22.1329 24.4555ZM30.8309 18.4103C31.6021 18.4217 32.3691 18.2947 33.0955 18.0355C34.3459 17.5682 35.2512 16.7322 35.4638 15.3765C35.6889 13.942 35.2275 12.7113 34.0721 11.7816C32.7616 10.717 31.176 10.4933 29.5667 10.3546C29.2391 10.3259 29.1703 10.5196 29.1916 10.7807C29.3504 12.8137 29.2429 14.8504 29.2729 16.8847C29.2941 18.4041 29.2791 18.4041 30.8334 18.4103H30.8309Z" fill="#F16764"/>
<path d="M0.0100035 15.5413C0.0100035 10.6374 0.0100035 5.73215 0.0100035 0.825689C0.011254 -0.0889623 0.0137549 -0.0877128 0.925326 0.0972168C3.57501 0.635762 6.23094 1.14307 8.87812 1.7191C12.1655 2.43508 15.2354 3.67086 17.5624 6.19489C20.4847 9.36244 21.4563 13.041 19.762 17.1245C18.494 20.1821 15.9794 21.8202 12.8245 22.5649C11.2264 22.9398 9.60588 22.8585 7.98531 22.8148C7.19628 22.7911 7.17252 22.8148 7.17252 23.6033C7.17252 25.8686 7.15877 28.134 7.18753 30.3994C7.19378 30.9904 7.01247 31.2029 6.40475 31.1916C4.53159 31.1591 2.65844 31.1566 0.785276 31.1841C0.173811 31.1879 0 30.9717 0 30.3832C0.0187566 25.4363 0.0100035 20.4919 0.0100035 15.5413ZM8.86812 16.6834C11.0039 16.6971 12.5982 15.7762 13.1509 14.2081C13.7899 12.3975 13.1721 10.3733 11.5791 9.0713C10.5612 8.23911 9.35454 7.888 8.07784 7.69682C7.14877 7.56062 7.14877 7.55438 7.15002 8.51026C7.15002 10.6703 7.15002 12.8307 7.15002 14.9915C7.16127 16.6722 7.16127 16.6722 8.86812 16.6834Z" fill="#F16764"/>
<path d="M88.607 19.0404C88.607 22.9064 88.607 26.7725 88.607 30.6385C88.607 30.9846 88.717 31.4619 88.4082 31.6244C88.0993 31.7868 87.8542 31.342 87.6016 31.1483C82.7975 27.4689 77.9624 23.8286 73.0965 20.2275C73 20.1484 72.899 20.0749 72.7939 20.0075C72.6589 19.9301 72.5501 19.7214 72.3688 19.8276C72.1875 19.9338 72.2675 20.13 72.2675 20.2887C72.2625 22.9077 72.26 25.5267 72.26 28.1457C72.26 28.9779 72.245 29.8088 72.26 30.6448C72.2713 31.1146 72.1112 31.3195 71.6135 31.3145C69.657 31.297 67.698 31.297 65.7365 31.3145C65.245 31.3145 65.0425 31.1308 65.0925 30.6535C65.0925 30.6123 65.0925 30.5698 65.0925 30.5286C65.06 22.8815 65.0283 15.2339 64.9975 7.58602C64.993 7.50277 64.993 7.41935 64.9975 7.33611C65.015 7.15618 64.9349 6.92002 65.135 6.82755C65.3351 6.73509 65.4776 6.93501 65.6202 7.04122C69.244 9.72937 72.8665 12.4204 76.4877 15.1144C77.9232 16.1803 79.3637 17.2386 80.808 18.2957C80.933 18.3919 81.0743 18.5668 81.2369 18.5006C81.4545 18.4119 81.3519 18.1732 81.3619 18.0008C81.5458 14.5546 81.4382 11.1047 81.447 7.65599C81.447 7.03123 81.6358 6.83255 82.261 6.81381C84.1517 6.76133 86.0436 6.67386 87.9293 6.53017C88.527 6.48393 88.637 6.67261 88.6358 7.19866C88.622 11.1472 88.6283 15.0969 88.6283 19.0467L88.607 19.0404Z" fill="#F16764"/>
<path d="M117.236 21.7969C117.236 19.0117 117.161 16.224 117.256 13.4413C117.364 10.3175 117.301 7.20865 117.315 4.09234C117.315 3.43384 117.525 3.18518 118.16 3.09272C122.149 2.4842 126.113 1.73074 130.071 0.944785C131.479 0.666141 132.884 0.375002 134.283 0.0551235C134.796 -0.0610823 135.007 0.0351311 135 0.601166C134.977 2.32676 134.984 4.05235 135 5.77795C135 6.20403 134.861 6.41271 134.415 6.48268C131.334 6.96499 128.257 7.4823 125.174 7.95087C124.642 8.03209 124.47 8.23826 124.474 8.74932C124.489 10.6411 124.474 12.5329 124.474 14.4234C124.474 15.1406 124.56 15.2331 125.266 15.1594C127.314 14.947 129.359 14.722 131.402 14.4846C132.14 14.3997 132.22 14.4384 132.223 15.1556C132.223 16.78 132.205 18.3981 132.231 20.02C132.241 20.6211 131.996 20.7972 131.422 20.826C129.345 20.9297 127.272 21.0871 125.198 21.2083C124.589 21.2433 124.311 21.4695 124.36 22.1317C124.419 22.9377 124.387 23.7561 124.37 24.562C124.36 24.9844 124.507 25.1731 124.949 25.1518C127.211 25.0381 129.475 24.9544 131.737 24.8232C132.672 24.7682 133.613 24.8382 134.542 24.6982C134.856 24.6508 134.991 24.8457 134.99 25.1506C134.99 26.9999 134.99 28.8496 134.99 30.6997C134.99 31.0071 134.842 31.1608 134.535 31.1645C134.327 31.1645 134.118 31.172 133.909 31.172C128.768 31.172 123.625 31.1758 118.483 31.1833C117.207 31.1833 117.209 31.1833 117.209 29.9088V21.7969H117.236Z" fill="#F16764"/>
<path d="M53.9552 31.2977C51.2492 31.2977 48.5433 31.2977 45.8373 31.2977C45.0258 31.2977 45.0058 31.2764 45.0033 30.4505C45.0033 27.3742 45.0033 24.2978 44.987 21.2228C44.962 16.5895 44.9183 11.9575 44.8857 7.32429C44.8857 6.42963 44.8945 6.39589 45.7948 6.44962C48.472 6.59332 51.1454 6.79199 53.8239 6.91195C56.0672 7.01066 58.3142 7.0244 60.56 7.08688C61.1415 7.10187 61.7217 7.16435 62.3031 7.18434C62.652 7.19684 62.7733 7.36802 62.777 7.69415C62.7895 8.98116 62.7383 10.2694 62.8646 11.5539C62.9071 11.9875 62.7083 12.2124 62.2456 12.1987C59.9615 12.122 57.6777 12.0542 55.3944 11.995C54.4791 11.97 53.5638 11.9688 52.6435 11.9525C52.3046 11.9525 52.1508 12.105 52.1521 12.4423C52.1521 14.1055 52.1621 15.7673 52.1521 17.4304C52.1521 17.9365 52.4847 17.9153 52.8298 17.9215C54.9555 17.9615 57.0713 18.0265 59.1933 18.034C59.8185 18.034 60.0436 18.2214 60.0211 18.8549C59.9811 20.0182 59.9923 21.1828 60.0211 22.3461C60.0336 22.8721 59.8723 23.0958 59.3108 23.082C57.085 23.0396 54.858 23.0421 52.6322 23.0033C52.3109 23.0033 52.1596 23.0571 52.1608 23.3907C52.1608 24.1804 52.1683 24.9701 52.1608 25.7648C52.1608 26.3033 52.5297 26.2746 52.8936 26.2758L61.823 26.2896C62.8721 26.2896 62.8746 26.2896 62.8771 27.3167C62.8771 28.3975 62.8596 29.4796 62.8871 30.5592C62.9021 31.1152 62.7195 31.3264 62.1368 31.3214C59.4109 31.2964 56.6836 31.3102 53.9577 31.3102L53.9552 31.2977Z" fill="#F16764"/>
<path d="M71.2308 40.2847C71.5671 39.5063 71.9035 38.7303 72.2374 37.9506C72.6463 36.996 73.0614 36.0438 73.4541 35.0767C73.6179 34.6731 73.8792 34.5007 74.3144 34.5182C74.8145 34.5407 75.3147 34.5182 75.8149 34.5244C76.5239 34.5344 76.5727 34.6006 76.2838 35.2241C75.2534 37.4491 74.2197 39.6733 73.1827 41.8966C72.6042 43.1403 72.0206 44.3827 71.4321 45.6239C71.3646 45.7676 71.3308 45.985 71.1445 45.9988C70.9369 46.01 70.9257 45.7751 70.8594 45.6364C69.2121 42.1378 67.567 38.6391 65.9239 35.1404C65.7238 34.7168 65.7889 34.5094 66.2865 34.5257C66.3278 34.5257 66.3703 34.5257 66.4116 34.5257C68.5373 34.4732 68.5373 34.4707 69.3764 36.3999C69.9378 37.6907 70.4855 38.9865 71.0395 40.281L71.2308 40.2847Z" fill="#F16764"/>
<path d="M59.6265 41.3482C59.6265 40.0986 59.6103 38.8491 59.634 37.6083C59.6428 37.1085 59.494 36.9074 58.9613 36.9049C57.3232 36.8961 57.3445 36.8774 57.347 35.223C57.347 34.6607 57.5696 34.5108 58.0897 34.5158C60.0254 34.5345 61.9661 34.5383 63.8968 34.5158C64.4682 34.5095 64.6545 34.7107 64.647 35.278C64.6395 36.9024 64.6608 36.9198 63.0377 36.9024C62.4213 36.9024 62.2587 37.1285 62.2637 37.7083C62.2862 40.1811 62.2574 42.6552 62.285 45.128C62.2912 45.7315 62.0861 45.9114 61.4934 45.9077C59.6178 45.8977 59.6178 45.9177 59.6178 44.0334L59.6265 41.3482Z" fill="#F16764"/>
</g>
<defs>
<clipPath id="clip0">
<rect width="135" height="46" fill="white"/>
</clipPath>
</defs>
</svg>
