<svg width="73" height="59" viewBox="0 0 73 59" fill="none" xmlns="http://www.w3.org/2000/svg">
<path fill-rule="evenodd" clip-rule="evenodd" d="M25.4232 41.0293H22.0818C21.9747 41.0293 21.8874 41.1148 21.8874 41.22V46.8317C21.8874 48.1053 20.8753 49.1526 19.6028 49.1526C18.3305 49.1526 17.3183 48.1053 17.3183 46.8317V41.22C17.3183 41.1148 17.231 41.0293 17.1239 41.0293H13.7825C13.6744 41.0293 13.5871 41.1148 13.5871 41.22V46.8317C13.5871 50.0866 16.3058 52.8033 19.6029 52.8033C22.8996 52.8033 25.6182 50.0866 25.6182 46.8317V41.22C25.6182 41.1148 25.5309 41.0293 25.4232 41.0293" fill="black"/>
<path fill-rule="evenodd" clip-rule="evenodd" d="M53.3108 41.22C53.3108 41.1152 53.2238 41.0293 53.1164 41.0293H49.775C49.6675 41.0293 49.5803 41.1148 49.5803 41.22L49.5807 46.8317C49.5807 48.1053 48.5686 49.1526 47.2961 49.1526C46.0238 49.1526 45.0115 48.1053 45.0115 46.8317V41.22C45.0115 41.1152 44.9243 41.0293 44.8165 41.0293H41.4756C41.3681 41.0293 41.2806 41.1148 41.2806 41.22V46.8317C41.2806 50.0866 43.9988 52.8035 47.2959 52.8035C50.5921 52.8035 53.3107 50.0866 53.3107 46.8317L53.3108 41.22Z" fill="black"/>
<path fill-rule="evenodd" clip-rule="evenodd" d="M6.01555 49.1583C4.74323 49.1583 3.73094 48.1109 3.73094 46.8371C3.73094 45.5922 4.74323 44.5732 6.01555 44.5732C7.28788 44.5732 8.30011 45.5922 8.30011 46.8371C8.30011 48.1109 7.28788 49.1583 6.01555 49.1583ZM6.01555 40.922C5.20842 40.922 4.43722 41.0854 3.73094 41.3782V41.2158C3.73094 41.1106 3.64403 41.0254 3.53594 41.0254H0.195C0.0869105 41.0254 0 41.1103 0 41.2158V58.3813C0 58.4864 0.0869105 58.5719 0.195 58.5719H3.53594C3.64403 58.5719 3.73094 58.4867 3.73094 58.3813V52.3514C4.43722 52.645 5.20842 52.8087 6.01555 52.8087C9.31224 52.8087 12.0308 50.0919 12.0308 46.837C12.0308 43.6391 9.31224 40.9219 6.01555 40.9219" fill="black"/>
<path fill-rule="evenodd" clip-rule="evenodd" d="M33.4494 40.9261C32.6427 40.9261 31.8706 41.0898 31.1648 41.3832V35.2919C31.1648 35.1868 31.0776 35.1016 30.9698 35.1016H27.6288C27.5214 35.1016 27.4338 35.1868 27.4338 35.2919V52.5093V52.5096C27.4338 52.6144 27.521 52.6999 27.6288 52.6999H30.9698H30.9702C31.0774 52.6999 31.1646 52.6144 31.1646 52.5096V46.8981C31.1646 45.6244 32.1762 44.577 33.4492 44.577C34.7215 44.577 35.7338 45.6244 35.7338 46.8981V52.5096C35.7338 52.6144 35.821 52.6999 35.9282 52.6999H39.2695C39.3767 52.6999 39.4639 52.6144 39.4639 52.5096V46.8981C39.4639 43.6431 36.7457 40.9261 33.449 40.9261" fill="black"/>
<path fill-rule="evenodd" clip-rule="evenodd" d="M61.6351 50.9931V52.7578C61.4041 52.7863 61.1804 52.8028 60.9643 52.8028C59.6858 52.8028 58.684 52.3957 57.9601 51.5813C57.282 50.8127 56.9431 49.7868 56.9431 48.5052V38.541H58.8849V41.0289H60.7766L61.4407 42.8615H58.8849V48.5052C58.8849 50.2696 59.8015 51.0987 61.6351 50.9931" fill="black"/>
<path fill-rule="evenodd" clip-rule="evenodd" d="M61.8167 41.0293H63.8972L67.1794 50.1228H67.2025L70.4848 41.0293H72.5648L68.2421 52.6789H66.139L61.8167 41.0293Z" fill="black"/>
<path fill-rule="evenodd" clip-rule="evenodd" d="M59.1004 21.8663C55.2764 21.8663 52.1764 18.7363 52.1764 14.8749C52.1764 11.0131 55.2764 7.88315 59.1004 7.88315C62.9233 7.88315 66.0231 11.0131 66.0231 14.8749C66.0231 18.7363 62.9233 21.8663 59.1004 21.8663ZM13.9004 21.8663C10.077 21.8663 6.97818 18.7363 6.97818 14.8749C6.97818 11.0131 10.077 7.88315 13.9004 7.88315C17.7245 7.88315 20.8232 11.0131 20.8232 14.8749C20.8232 18.7363 17.7245 21.8663 13.9004 21.8663ZM68.9326 4.94305C63.5111 -0.533101 54.688 -0.533101 49.2659 4.94305L37.482 16.8444C37.2298 17.0989 36.8844 17.2541 36.5002 17.2541C36.1159 17.2541 35.7705 17.0988 35.5187 16.8444L23.7349 4.94305C18.3122 -0.533101 9.49035 -0.533101 4.06664 4.94305C-1.35555 10.4195 -1.35555 19.3292 4.06664 24.806C9.49035 30.2813 18.3122 30.2821 23.7349 24.8065L27.6535 20.8479C27.9059 20.5935 28.2491 20.4413 28.6333 20.4413C29.0164 20.4413 29.364 20.5985 29.6156 20.852L35.5182 26.8113C35.7693 27.0661 36.1159 27.2213 36.5002 27.2213C36.8844 27.2213 37.2313 27.066 37.483 26.8113L43.384 20.852C43.6366 20.5987 43.9838 20.4413 44.367 20.4413C44.7518 20.4413 45.0949 20.5936 45.3466 20.8479L49.2659 24.8065C54.688 30.2821 63.5111 30.2813 68.9326 24.806C74.3558 19.3292 74.3558 10.4195 68.9326 4.94305Z" fill="black"/>
</svg>
