<svg width="125" height="40" viewBox="0 0 125 40" fill="none" xmlns="http://www.w3.org/2000/svg">
<path d="M125 0H0V40H125V0Z" fill="black"/>
<path d="M19.673 32.6194C26.6721 32.6194 32.346 26.9455 32.346 19.9464C32.346 12.9473 26.6721 7.27344 19.673 7.27344C12.6739 7.27344 7 12.9473 7 19.9464C7 26.9455 12.6739 32.6194 19.673 32.6194Z" fill="white"/>
<path d="M19.673 9.74023C14.036 9.74023 9.467 14.3102 9.467 19.9462C9.467 25.5822 14.037 30.1532 19.673 30.1532C25.309 30.1532 29.879 25.5832 29.879 19.9462C29.879 14.3092 25.31 9.74023 19.673 9.74023ZM19.673 23.9612C17.456 23.9612 15.658 22.1632 15.658 19.9462C15.658 17.7292 17.456 15.9312 19.673 15.9312C21.89 15.9312 23.688 17.7292 23.688 19.9462C23.688 22.1642 21.891 23.9612 19.673 23.9612Z" fill="black"/>
<path d="M19.673 20.8182C20.154 20.8182 20.544 20.4282 20.544 19.9472C20.544 19.4661 20.154 19.0762 19.673 19.0762C19.192 19.0762 18.802 19.4661 18.802 19.9472C18.802 20.4282 19.192 20.8182 19.673 20.8182Z" fill="black"/>
<path d="M14.793 19.7387C14.902 17.1367 17.045 15.0607 19.673 15.0607C22.301 15.0607 24.445 17.1367 24.553 19.7387H29.1C28.989 14.6257 24.813 10.5137 19.673 10.5137C14.533 10.5137 10.356 14.6257 10.246 19.7387H14.793Z" fill="url(#paint0_linear)"/>
<path d="M19.673 10.5156V15.0626C22.302 15.0956 24.492 17.2046 24.556 19.8266H29.103C29.039 14.6936 24.814 10.5486 19.673 10.5156Z" fill="url(#paint1_linear)"/>
<path d="M19.673 10.5156V15.0626C17.044 15.0956 14.856 17.2046 14.793 19.8266H10.246C10.31 14.6936 14.533 10.5486 19.673 10.5156Z" fill="url(#paint2_linear)"/>
<path d="M26.395 27.623C24.599 29.196 22.249 30.152 19.674 30.152C19.664 30.152 19.654 30.151 19.644 30.151V32.618C19.654 32.618 19.664 32.619 19.674 32.619C22.868 32.619 25.784 31.435 28.013 29.485C27.478 28.859 26.921 28.253 26.395 27.623Z" fill="url(#paint3_linear)"/>
<path d="M32.201 31.0274L25.364 24.1754C25.162 23.9084 24.843 23.7344 24.483 23.7344C23.873 23.7344 23.379 24.2284 23.379 24.8384C23.379 25.1354 23.497 25.4044 23.688 25.6034C23.701 25.6164 23.714 25.6294 23.728 25.6424L30.695 32.4544L32.201 31.0274Z" fill="white"/>
<path d="M66.011 12.2773C61.746 12.2773 58.288 15.7353 58.288 20.0003C58.288 24.2653 61.746 27.7233 66.011 27.7233C70.276 27.7233 73.734 24.2653 73.734 20.0003C73.734 15.7353 70.276 12.2773 66.011 12.2773ZM66.011 25.0783C63.207 25.0783 60.933 22.8053 60.933 20.0003C60.933 17.1963 63.206 14.9223 66.011 14.9223C68.815 14.9223 71.089 17.1953 71.089 20.0003C71.089 22.8043 68.815 25.0783 66.011 25.0783Z" fill="white"/>
<path d="M48.943 12.2773C44.678 12.2773 41.22 15.7353 41.22 20.0003C41.22 24.2653 44.678 27.7233 48.943 27.7233C50.409 27.7233 51.78 27.3143 52.948 26.6053V23.1203C52.019 24.3113 50.571 25.0783 48.943 25.0783C46.139 25.0783 43.865 22.8053 43.865 20.0003C43.865 17.1963 46.138 14.9223 48.943 14.9223C51.747 14.9223 54.021 17.1953 54.021 20.0003V25.8163V33.9423C54.021 34.6723 54.613 35.2643 55.343 35.2643C56.073 35.2643 56.665 34.6723 56.665 33.9423V20.0003C56.666 15.7353 53.209 12.2773 48.943 12.2773Z" fill="white"/>
<path d="M83.041 27.7233C87.306 27.7233 90.764 24.2653 90.764 20.0003C90.764 15.7353 87.306 12.2773 83.041 12.2773C81.575 12.2773 80.204 12.6863 79.036 13.3953V16.8803C79.965 15.6893 81.413 14.9223 83.041 14.9223C85.845 14.9223 88.119 17.1953 88.119 20.0003C88.119 22.8043 85.846 25.0783 83.041 25.0783C80.237 25.0783 77.963 22.8053 77.963 20.0003V14.1843V6.05833C77.963 5.32833 77.371 4.73633 76.641 4.73633C75.911 4.73633 75.319 5.32833 75.319 6.05833V20.0003C75.318 24.2653 78.776 27.7233 83.041 27.7233Z" fill="white"/>
<path d="M98.892 27.7243C94.569 27.7243 92.51 23.8573 92.51 21.8733C92.51 19.8893 92.51 13.6013 92.51 13.6013C92.51 12.8713 93.102 12.2793 93.833 12.2793C94.563 12.2793 95.155 12.8713 95.155 13.6013C95.155 13.6013 95.155 20.6753 95.155 21.5743C95.155 22.4733 95.392 25.0803 98.985 25.0803C101.979 25.0803 102.628 23.1093 102.628 22.0983C102.628 21.0873 102.628 13.6013 102.628 13.6013C102.628 12.8713 103.22 12.2793 103.951 12.2793C104.681 12.2793 105.273 12.8713 105.273 13.6013C105.273 13.6013 105.273 20.4133 105.273 22.0233C105.274 23.6323 103.777 27.7243 98.892 27.7243Z" fill="white"/>
<path d="M116.684 27.7226C117.411 27.7226 118 27.1336 118 26.4066C118 25.6796 117.411 25.0906 116.684 25.0906H110.477L115.829 17.8676C117.925 15.0606 118 14.9486 118 14.1626C118 13.2646 117.102 12.3906 116.203 12.3906C115.305 12.3906 108.387 12.3906 108.387 12.3906C107.66 12.3906 107.071 12.9796 107.071 13.7066C107.071 14.4336 107.66 15.0226 108.387 15.0226H114.781C114.781 15.0226 107.969 24.0056 107.37 24.8286C106.771 25.6516 107.108 27.7226 108.717 27.7226C110.326 27.7226 116.684 27.7226 116.684 27.7226Z" fill="white"/>
<defs>
<linearGradient id="paint0_linear" x1="10.2462" y1="15.1263" x2="29.1008" y2="15.1263" gradientUnits="userSpaceOnUse">
<stop/>
<stop offset="0.5108" stop-color="#DFDFDF"/>
<stop offset="0.8763"/>
</linearGradient>
<linearGradient id="paint1_linear" x1="19.3791" y1="11.2621" x2="26.7714" y2="17.7048" gradientUnits="userSpaceOnUse">
<stop offset="0.0029" stop-color="#B5B5B5" stop-opacity="0"/>
<stop offset="0.1244" stop-color="#969696" stop-opacity="0.1632"/>
<stop offset="0.5553" stop-color="#2B2B2B" stop-opacity="0.7421"/>
<stop offset="0.7473"/>
</linearGradient>
<linearGradient id="paint2_linear" x1="19.9686" y1="11.2628" x2="12.5772" y2="17.7048" gradientUnits="userSpaceOnUse">
<stop offset="0.0029" stop-color="#B5B5B5" stop-opacity="0"/>
<stop offset="0.1244" stop-color="#969696" stop-opacity="0.1632"/>
<stop offset="0.5553" stop-color="#2B2B2B" stop-opacity="0.7421"/>
<stop offset="0.7473"/>
</linearGradient>
<linearGradient id="paint3_linear" x1="20.8545" y1="31.8996" x2="27.7714" y2="27.1881" gradientUnits="userSpaceOnUse">
<stop offset="0.0029" stop-color="#B5B5B5" stop-opacity="0"/>
<stop offset="0.0486" stop-color="#A8A8A8" stop-opacity="0.0514"/>
<stop offset="0.2682" stop-color="#6C6C6C" stop-opacity="0.2982"/>
<stop offset="0.4701" stop-color="#3E3E3E" stop-opacity="0.5252"/>
<stop offset="0.6478" stop-color="#1C1C1C" stop-opacity="0.725"/>
<stop offset="0.7947" stop-color="#070707" stop-opacity="0.8901"/>
<stop offset="0.8925"/>
</linearGradient>
</defs>
</svg>
