<svg width="122" height="36" viewBox="0 0 122 36" fill="none" xmlns="http://www.w3.org/2000/svg">
<path d="M97.8013 30.1699H24.7087L30.5387 35.9998L97.8013 30.1699Z" fill="#BF0000"/>
<path d="M109.534 26.4529V14.7931C109.534 12.6069 111.064 10.785 113.251 10.785C115.437 10.785 116.967 12.6069 116.967 14.7931V26.4529H121.485V14.7931C121.485 9.98341 118.206 6.12109 113.396 6.12109C111.21 6.12109 109.534 7.35995 109.534 7.35995V6.55834H105.016V26.38H109.534V26.4529Z" fill="#BF0000"/>
<path d="M94.5949 6.04883C89.348 6.04883 85.6314 10.6399 85.6314 16.4698C85.6314 22.5912 90.2953 26.8908 95.0321 26.8908C97.437 26.8908 100.425 26.0892 102.975 22.4455L98.9673 20.1135C95.9066 24.6317 90.7326 22.3726 90.1496 17.7815H103.121C104.287 10.7856 99.6961 6.04883 94.5949 6.04883ZM98.5301 13.9192H90.4411C91.3884 9.32815 97.6556 9.03666 98.5301 13.9192Z" fill="#BF0000"/>
<path d="M84.174 21.7167C83.7367 22.0082 83.2266 22.2268 82.6436 22.2268C81.9149 22.2268 80.5303 21.6438 80.5303 19.822V11.2957H84.3926V6.55894H80.5303V1.60352H76.0121V6.55894H73.6072V11.2957H76.0121V19.822C76.0121 24.2673 79.3643 26.8908 82.7165 26.8908C83.9553 26.8908 85.7043 26.4535 87.0889 25.6519L84.174 21.7167Z" fill="#BF0000"/>
<path d="M67.5586 6.55859V18.2184C67.5586 20.4046 66.0283 22.2265 63.8421 22.2265C61.6558 22.2265 60.1255 20.4046 60.1255 18.2184V6.55859H55.6073V18.2184C55.6073 23.0281 58.8866 26.8904 63.6963 26.8904C65.8825 26.8904 67.5586 25.6516 67.5586 25.6516V26.3803H72.0768V6.55859H67.5586Z" fill="#BF0000"/>
<path d="M47.1539 15.8865L54.8786 6.55865H48.6114L43.1459 13.4817V0H38.5548V26.4532H43.1459V18.2914L49.8503 26.4532H56.1174L47.1539 15.8865Z" fill="#BF0000"/>
<path d="M31.4861 6.55895V7.43343C30.1015 6.55895 28.9355 6.04883 27.2594 6.04883C22.1582 6.04883 18.2231 10.7128 18.2231 16.4698C18.2231 22.2268 22.0854 26.8908 27.2594 26.8908C28.9355 26.8908 30.1744 26.3807 31.4861 25.5062V26.3807H36.0043V6.55895H31.4861ZM27.1865 22.154C24.636 22.154 22.8141 19.6763 22.8141 16.5427C22.8141 13.4091 24.636 10.9314 27.1865 10.9314C29.7371 10.9314 31.4861 13.4091 31.4861 16.5427C31.559 19.6763 29.7371 22.154 27.1865 22.154Z" fill="#BF0000"/>
<path d="M5.25145 26.4535V18.7289H8.53078L14.2878 26.3806H20.1906L13.1947 17.1257C15.3809 15.5953 16.7655 13.0447 16.7655 10.1298C16.7655 5.39296 12.9032 1.60352 8.23928 1.60352H0.514648V26.3806H5.25145V26.4535ZM5.25145 6.34032H8.31216C10.4255 6.34032 12.1745 8.08929 12.1745 10.2026C12.1745 12.316 10.4255 14.065 8.31216 14.065H5.25145V6.34032Z" fill="#BF0000"/>
</svg>
