<svg width="133" height="38" viewBox="0 0 133 38" fill="none" xmlns="http://www.w3.org/2000/svg">
<path d="M122.862 29.2732C122.845 29.4892 122.755 29.6931 122.607 29.8517C122.46 30.0102 122.263 30.114 122.049 30.1462C121.929 30.1499 121.809 30.1445 121.691 30.1303C121.555 30.1157 121.418 30.111 121.281 30.1164H115.286C115.214 30.1015 115.139 30.1091 115.071 30.1382C114.867 30.0965 114.683 29.9896 114.545 29.8335C114.407 29.6774 114.324 29.4808 114.308 29.2732C114.337 28.6766 114.337 28.08 114.308 27.4835C114.324 27.1215 114.451 26.9883 114.797 26.9684C115.019 26.9794 115.241 26.9634 115.459 26.9207C115.517 26.9131 115.572 26.8905 115.619 26.8551C115.665 26.8198 115.702 26.7728 115.725 26.719C115.747 26.6652 115.756 26.6063 115.749 26.5482C115.742 26.4901 115.72 26.4348 115.686 26.3878C115.593 26.2346 115.478 26.096 115.346 25.9761C114.492 25.0481 113.639 24.1201 112.787 23.1921C112.322 22.687 111.74 22.685 111.283 23.1921C110.503 24.075 109.74 24.9699 108.971 25.8608C108.899 25.9225 108.847 26.0041 108.82 26.0952C108.794 26.1864 108.795 26.2833 108.824 26.3738C108.907 26.5727 109.102 26.6045 109.299 26.6125C110.006 26.6443 110.402 27.0599 110.402 27.7738V29.1817C110.399 29.4129 110.315 29.6357 110.165 29.8117C110.015 29.9877 109.809 30.106 109.581 30.1462C109.533 30.1223 109.48 30.1263 109.432 30.1044C107.333 30.1303 105.236 30.1044 103.139 30.1164H102.089C102.003 30.1184 101.917 30.1264 101.833 30.1402C101.613 30.0989 101.415 29.9836 101.27 29.8135C101.125 29.6434 101.043 29.4289 101.037 29.2056C101.004 28.6369 101.037 28.0641 101.037 27.4914C101.037 27.4695 101.057 27.4477 101.069 27.4238C101.133 27.9786 101.069 28.5354 101.099 29.0903C101.073 28.5354 101.137 27.9806 101.069 27.4258C101.127 26.9386 101.505 26.6304 102.049 26.6125C102.5 26.5985 102.956 26.6642 103.401 26.5608C103.971 26.4347 104.486 26.1312 104.872 25.6937C106.371 24.0233 107.876 22.3582 109.386 20.6984C109.736 20.3146 109.734 20.1396 109.386 19.7637C107.532 17.7751 105.673 15.7866 103.868 13.7403C103.748 13.5792 103.589 13.4516 103.405 13.3695C103.222 13.2873 103.021 13.2534 102.821 13.271C102.634 13.2957 102.444 13.2822 102.262 13.2312C102.091 13.1917 101.936 13.1018 101.817 12.9731C101.698 12.8443 101.62 12.6828 101.594 12.5094C101.552 11.8969 101.652 11.2824 101.594 10.6679C101.599 10.4049 101.708 10.1547 101.898 9.97203C102.087 9.78939 102.341 9.68924 102.604 9.6935H109.579C109.711 9.68791 109.843 9.70884 109.968 9.75506C110.092 9.80127 110.205 9.87184 110.302 9.96262C110.398 10.0534 110.476 10.1626 110.529 10.2837C110.583 10.4048 110.612 10.5354 110.615 10.6679C110.582 11.2136 110.582 11.7608 110.615 12.3065C110.583 12.8275 110.217 13.1875 109.603 13.267C109.42 13.2909 109.225 13.2948 109.148 13.4877C109.07 13.6806 109.185 13.8855 109.329 14.0366C110.084 14.8619 110.831 15.6931 111.595 16.5124C111.683 16.6145 111.794 16.6959 111.917 16.7508C112.041 16.8056 112.175 16.8326 112.31 16.8297C112.446 16.8269 112.579 16.7943 112.7 16.7343C112.821 16.6743 112.928 16.5884 113.012 16.4826C113.728 15.6792 114.44 14.8731 115.149 14.0644C115.217 13.9887 115.274 13.9036 115.318 13.8119C115.35 13.7603 115.368 13.7012 115.37 13.6404C115.372 13.5796 115.358 13.5194 115.329 13.4658C115.301 13.4122 115.259 13.367 115.207 13.3349C115.155 13.3028 115.096 13.2849 115.036 13.2829C114.892 13.2571 114.747 13.2571 114.604 13.2312C114.395 13.1922 114.204 13.0859 114.06 12.9283C113.917 12.7707 113.828 12.5705 113.809 12.3582C113.883 12.0898 113.797 11.8213 113.809 11.5508V10.5566C113.838 10.3218 113.95 10.1051 114.125 9.94548C114.299 9.78584 114.525 9.69367 114.761 9.68555H121.381C121.64 9.69292 121.887 9.7987 122.072 9.98146C122.256 10.1642 122.365 10.4103 122.375 10.6699C122.384 11.2002 122.384 11.7305 122.375 12.2608C122.362 12.4922 122.272 12.7127 122.12 12.8877C121.969 13.0627 121.763 13.1821 121.536 13.2272C121.257 13.2829 120.973 13.2272 120.695 13.3048C120.105 13.448 119.576 13.7746 119.184 14.2374C117.753 15.8601 116.348 17.5127 114.884 19.1035C114.861 19.1274 114.839 19.1532 114.815 19.1791C114.465 19.5768 114.471 19.714 114.835 20.1098C116.512 21.9333 118.194 23.7509 119.862 25.5844C120.116 25.8895 120.429 26.1398 120.783 26.3199C121.137 26.5001 121.523 26.6064 121.919 26.6323C122.16 26.6441 122.389 26.7432 122.562 26.9112C122.736 27.0791 122.842 27.3045 122.862 27.5451C122.83 28.1207 122.83 28.6976 122.862 29.2732Z" fill="#E32044"/>
<path d="M127.621 30.6116C126.916 30.6124 126.227 30.4043 125.641 30.0136C125.055 29.6229 124.597 29.0671 124.327 28.4165C124.056 27.7658 123.984 27.0495 124.12 26.358C124.256 25.6664 124.593 25.0307 125.09 24.5311C125.587 24.0315 126.221 23.6905 126.912 23.551C127.602 23.4115 128.319 23.4799 128.97 23.7475C129.622 24.0151 130.18 24.47 130.573 25.0546C130.967 25.6392 131.178 26.3273 131.181 27.0321C131.185 27.5019 131.096 27.9677 130.919 28.4028C130.742 28.8378 130.48 29.2333 130.149 29.5663C129.818 29.8993 129.424 30.1631 128.99 30.3426C128.556 30.522 128.09 30.6135 127.621 30.6116Z" fill="#792E8C"/>
<path d="M125.44 10.9262C125.443 11.0715 125.416 11.2159 125.362 11.3507C125.308 11.4856 125.227 11.6081 125.125 11.7109C125.022 11.8138 124.9 11.8949 124.765 11.9493C124.63 12.0038 124.486 12.0304 124.341 12.0278C124.196 12.0251 124.052 11.9931 123.92 11.9337C123.787 11.8744 123.668 11.7888 123.569 11.6823C123.47 11.5757 123.394 11.4503 123.345 11.3135C123.296 11.1768 123.275 11.0315 123.283 10.8864C123.29 10.5984 123.41 10.3245 123.616 10.1232C123.822 9.92191 124.098 9.80902 124.386 9.80859C124.529 9.81166 124.67 9.84313 124.801 9.90117C124.931 9.95922 125.049 10.0427 125.147 10.1467C125.245 10.2507 125.321 10.3732 125.372 10.507C125.422 10.6408 125.445 10.7833 125.44 10.9262Z" fill="#E31F45"/>
<path d="M101.833 30.1424L101.986 30.0449C102.074 30.0776 102.168 30.0858 102.26 30.0688H109.2C109.292 30.052 109.388 30.0596 109.476 30.0907C109.497 30.0888 109.517 30.0926 109.535 30.1017C109.554 30.1109 109.569 30.125 109.58 30.1424C109.478 30.1891 109.366 30.205 109.256 30.1881H102.183C102.064 30.205 101.943 30.1892 101.833 30.1424Z" fill="#E4193A"/>
<path d="M21.584 20.8127C21.6615 20.7352 21.7609 20.767 21.8523 20.767H36.1805C36.2739 20.767 36.3892 20.7153 36.4587 20.8346C36.3474 20.8346 36.2361 20.8187 36.1268 20.8187H21.8881C21.7828 20.8207 21.6834 20.8147 21.584 20.8127Z" fill="#DD163D"/>
<path d="M121.741 30.0966C121.842 30.1125 121.957 30.0549 122.049 30.1463C121.956 30.1929 121.851 30.2089 121.749 30.1921H115.387C115.277 30.2014 115.165 30.1829 115.063 30.1384L115.165 30.0449C115.383 30.0807 115.605 30.0887 115.825 30.0688H121.456C121.552 30.0527 121.65 30.0623 121.741 30.0966Z" fill="#E4193A"/>
<path d="M54.2211 0.777344C54.2847 0.840979 54.2648 0.922511 54.2648 0.996089V11.3248C54.2665 11.3443 54.2625 11.3639 54.2534 11.3812C54.2442 11.3985 54.2302 11.4128 54.2131 11.4223V0.82507C54.2101 0.817128 54.2092 0.808515 54.2106 0.800124C54.212 0.791733 54.2156 0.783868 54.2211 0.777344Z" fill="#E61E3E"/>
<path d="M11.0022 25.5851C10.9446 25.5294 10.9585 25.4578 10.9585 25.3862V21.8883C10.9582 21.8716 10.9614 21.855 10.9679 21.8396C10.9744 21.8241 10.984 21.8103 10.9963 21.7988C10.9963 21.8724 11.0102 21.944 11.0181 22.0176L11.0022 25.5851Z" fill="#E41D46"/>
<path d="M9.25857 9.80469C9.19496 9.86828 9.11346 9.84841 9.03991 9.84841H5.68054C5.60699 9.84841 5.52549 9.86828 5.46387 9.80469H9.25857Z" fill="#E41539"/>
<path d="M113.792 10.5703C113.873 10.6558 113.836 10.7692 113.838 10.8587V12.1234C113.838 12.2049 113.866 12.2944 113.788 12.362C113.739 11.7658 113.74 11.1664 113.792 10.5703Z" fill="#E3103B"/>
<path d="M10.1913 10.7623V13.4847H10.1377V12.1126V10.8618C10.1377 10.7802 10.1118 10.6907 10.1794 10.6191L10.1913 10.7623Z" fill="#E2183D"/>
<path d="M63.089 0.0117542C63.0354 0.0694235 62.9638 0.0555033 62.8902 0.0555033H60.4055C60.3379 0.0555033 60.2664 0.0694235 60.2067 0.00976562L63.089 0.0117542ZM58.0102 0.0117542C57.9566 0.0714121 57.885 0.0574919 57.8114 0.0574919H55.3267C55.2591 0.0574919 55.1876 0.0714121 55.1279 0.0137428L58.0102 0.0117542Z" fill="#DD1034"/>
<path d="M101.579 10.6699C101.652 10.7395 101.624 10.829 101.624 10.9125V12.2668C101.624 12.3503 101.652 12.4398 101.583 12.5114C101.493 11.8989 101.571 11.2844 101.579 10.6699Z" fill="#E21039"/>
<path d="M93.0023 9.03822C92.5928 9.13367 92.1754 9.06009 91.7619 9.07799C91.6486 9.07799 91.5234 9.11975 91.416 9.03623C91.943 8.97424 92.4755 8.97491 93.0023 9.03822Z" fill="#DF153B"/>
<path d="M114.308 27.4844C114.367 27.6257 114.381 27.7822 114.347 27.9318C114.333 28.3792 114.403 28.8287 114.308 29.2741V27.4844Z" fill="#E01337"/>
<path d="M122.861 29.2732C122.801 29.114 122.787 28.9408 122.821 28.774C122.835 28.3624 122.764 27.9448 122.861 27.5352C122.883 28.1138 122.883 28.6945 122.861 29.2732Z" fill="#E1153E"/>
<path d="M110.599 12.3085C110.501 11.9486 110.567 11.5827 110.559 11.2208C110.523 11.0369 110.536 10.8466 110.599 10.6699V12.3085Z" fill="#E11341"/>
<path d="M19.3232 11.9454C19.2298 11.8539 19.2695 11.7366 19.2735 11.6331C19.2934 11.2255 19.2159 10.8138 19.3152 10.4102C19.3166 10.9259 19.3192 11.4376 19.3232 11.9454Z" fill="#E30D3E"/>
<path d="M102.957 20.3549C102.883 19.9666 102.883 19.568 102.957 19.1797C102.996 19.5704 102.996 19.9642 102.957 20.3549Z" fill="#E30F3C"/>
<path d="M27.7452 9.03559C27.3736 9.10702 26.9917 9.10702 26.6201 9.03559C26.9945 9.00376 27.3708 9.00376 27.7452 9.03559Z" fill="#DF1339"/>
<path d="M58.0102 0.0117188C57.6984 0.0415335 57.3847 0.0475166 57.0719 0.0296161C56.4279 0.0296161 55.7839 0.0574564 55.1398 0.0137073C54.9237 0.0198398 54.7159 0.0981647 54.5494 0.236198C54.383 0.374232 54.2675 0.564029 54.2214 0.775339C54.2462 0.875453 54.2522 0.979269 54.2393 1.08158V11.1697V11.1478V1.05772C54.2544 0.98213 54.246 0.903756 54.2155 0.833008C54.1632 0.949517 54.1459 1.07872 54.1658 1.20488V11.3228C54.1822 11.4189 54.1733 11.5176 54.1399 11.6092C51.2914 9.33624 48.101 8.50302 44.5607 9.38794C41.0205 10.2729 38.6152 12.514 37.1542 15.833C37.1244 15.7753 37.1025 15.7375 37.0866 15.6997C36.5436 14.3587 35.734 13.1419 34.7069 12.1233C33.6797 11.1046 32.4565 10.3053 31.1113 9.77373C30.0393 9.32424 28.8939 9.07552 27.732 9.03994C27.3576 9.07076 26.9813 9.07076 26.6069 9.03994C26.2322 9.04297 25.8582 9.07288 25.4878 9.12942C23.5241 9.33324 21.6607 10.0989 20.1208 11.3348C19.8564 11.5336 19.6337 11.8021 19.3256 11.9532C19.2869 11.4422 19.2869 10.929 19.3256 10.418C19.3391 10.2904 19.3242 10.1614 19.2819 10.0402C19.1646 9.5868 19.0175 9.48141 18.5504 9.48339C17.6031 9.488 16.6569 9.54442 15.7158 9.65242C14.9131 9.72284 14.1349 9.96494 13.4338 10.3624C12.1994 11.0882 11.3446 12.1521 10.7026 13.3969C10.649 13.52 10.5758 13.6335 10.4859 13.733C10.3905 13.8225 10.3229 13.8006 10.2672 13.6893C10.234 13.6011 10.2211 13.5067 10.2295 13.4129V11.4939C10.2494 11.2483 10.2394 11.0012 10.1996 10.7581C10.1913 10.7732 10.1847 10.7892 10.1798 10.8058V10.6069C10.1396 10.3887 10.0268 10.1906 9.85965 10.0447C9.69253 9.8988 9.48097 9.81381 9.25942 9.80356C9.16867 9.82737 9.07418 9.83345 8.98113 9.82146H5.87022C5.73753 9.83477 5.60362 9.82874 5.47266 9.80356C5.21433 9.81368 4.96968 9.92235 4.78891 10.1073C4.60815 10.2922 4.505 10.5393 4.50063 10.7979C4.4887 11.3069 4.4887 11.82 4.4887 12.341C4.4955 12.5788 4.5834 12.807 4.7378 12.9879C4.89221 13.1688 5.10382 13.2914 5.33749 13.3353C5.51814 13.3486 5.69951 13.3486 5.88016 13.3353C6.0321 13.324 6.18469 13.3456 6.32752 13.3987C6.47034 13.4518 6.60005 13.5351 6.70778 13.6428C6.81552 13.7506 6.89875 13.8804 6.9518 14.0233C7.00485 14.1661 7.02647 14.3188 7.01519 14.4708V25.5353C7.02063 25.7103 6.98391 25.8841 6.90815 26.0419C6.83238 26.1997 6.71979 26.337 6.57986 26.4421C6.42594 26.5414 6.25669 26.6147 6.07894 26.6589L6.09484 26.6788C6.09484 26.6788 6.08291 26.6907 6.07695 26.6907C5.86078 26.703 5.64394 26.6963 5.42893 26.6708C5.17776 26.6872 4.94186 26.7972 4.76779 26.979C4.59372 27.1609 4.49414 27.4014 4.4887 27.6532C4.47677 28.1623 4.4887 28.6753 4.4887 29.1844C4.49281 29.4067 4.57028 29.6215 4.70905 29.7952C4.84783 29.9689 5.04012 30.0919 5.25599 30.1449C5.32144 30.1288 5.38783 30.1169 5.45477 30.1091C5.40507 30.1091 5.35538 30.1409 5.30568 30.1528C5.33398 30.1736 5.3662 30.1883 5.40037 30.1962C5.43455 30.204 5.46996 30.2049 5.50446 30.1986H12.3445C12.5774 30.1991 12.8032 30.1178 12.9823 29.9688C13.1614 29.8197 13.2825 29.6125 13.3245 29.3833C13.4278 28.8702 13.3443 28.3472 13.3702 27.8282C13.3842 27.6707 13.3638 27.5121 13.3103 27.3634C13.2569 27.2146 13.1716 27.0793 13.0606 26.9669C12.9495 26.8545 12.8153 26.7676 12.6672 26.7123C12.5192 26.6571 12.3609 26.6348 12.2033 26.647C11.5036 26.6688 11.1021 26.291 11.0107 25.589C10.963 24.3959 11.0107 23.1888 10.9848 21.9897L11.0107 21.9996L11.0266 22.0195C11.0564 21.5363 11.0882 21.0511 11.118 20.5678C11.1582 19.3925 11.2998 18.2228 11.5414 17.0719C11.8992 15.5009 12.8474 14.435 14.4277 13.9856C15.1448 13.8058 15.8766 13.6906 16.6143 13.6415C17.0417 13.5998 17.469 13.5739 17.9381 13.5381L17.7751 13.7927C16.8563 15.1328 16.2802 16.6781 16.0974 18.2929C15.9413 19.5501 15.9741 20.8237 16.1948 22.0712C16.4741 23.8482 17.2627 25.5061 18.4649 26.8438C20.6197 29.2003 23.3291 30.4074 26.4996 30.5963C27.7539 30.6796 29.0137 30.5784 30.2386 30.296C31.5625 29.9818 32.8466 29.5602 33.9857 28.7887C35.0492 28.0428 36.0132 27.164 36.854 26.1737C37.2675 25.7044 37.1463 25.1794 36.5797 24.9228C36.0768 24.6902 35.5699 24.4694 35.0611 24.2527C34.7576 24.1096 34.4187 24.0592 34.0868 24.1077C33.7548 24.1561 33.4445 24.3013 33.1945 24.5251C32.26 25.2973 31.2346 25.9525 30.1412 26.4759C28.8497 27.1179 27.383 27.3178 25.9669 27.0447C24.3766 26.7325 23.1124 25.8754 22.0847 24.6584C21.387 23.8271 21.0371 22.8189 20.7111 21.8047C20.6732 21.6997 20.6629 21.5867 20.6813 21.4766C20.7668 21.0511 21.0252 20.8601 21.5858 20.8204C21.667 20.7933 21.7535 20.7858 21.8382 20.7985H36.2259C36.3034 20.7985 36.3969 20.7528 36.4605 20.8422C36.4732 21.1095 36.5065 21.3755 36.5598 21.6377C36.8548 23.4133 37.5905 25.0864 38.6997 26.5037C39.8088 27.9209 41.2559 29.0369 42.9081 29.7494C44.5604 30.4619 46.365 30.748 48.1565 30.5815C49.948 30.4151 51.6691 29.8013 53.1619 28.7966C53.4979 28.5699 53.8159 28.3194 54.1698 28.0608V29.1347C54.1684 29.2781 54.1959 29.4204 54.2507 29.553C54.3055 29.6855 54.3864 29.8057 54.4886 29.9063C54.5908 30.0069 54.7123 30.0858 54.8457 30.1385C54.9791 30.1911 55.1217 30.2162 55.265 30.2125H57.8035C58.0181 30.2125 58.0698 30.1568 58.0698 29.946V0.25035C58.0579 0.162852 58.1136 0.0673994 58.0102 0.0117188ZM5.61379 30.1171C5.59285 30.1085 5.57074 30.1031 5.5482 30.1011C5.58714 30.1016 5.62588 30.1069 5.66349 30.1171H5.61379ZM10.1639 11.0146V12.5041C10.1698 12.0089 10.1519 11.5118 10.1639 11.0146ZM32.5167 17.9369C32.4511 17.9966 32.3696 17.9707 32.296 17.9707H21.7627C21.6891 17.9707 21.6096 17.9946 21.54 17.9389C21.0212 17.7917 20.8364 17.5829 20.8503 17.1673C20.8565 17.057 20.8878 16.9496 20.9417 16.8531C22.035 14.6657 23.7803 13.3373 26.1955 12.9933C28.4616 12.6691 30.4275 13.391 32.0376 15.0077C32.6041 15.5804 32.8983 16.3321 33.113 17.0977C33.2283 17.5114 33.0037 17.7838 32.5167 17.9369ZM47.1826 26.7066C45.8235 26.7117 44.4935 26.3132 43.361 25.5615C42.2284 24.8098 41.3444 23.7387 40.8208 22.484C40.2973 21.2293 40.1577 19.8473 40.4199 18.5132C40.682 17.1791 41.3341 15.9528 42.2935 14.9897C43.2528 14.0266 44.4764 13.37 45.809 13.1031C47.1417 12.8362 48.5236 12.971 49.7796 13.4904C51.0357 14.0098 52.1094 14.8904 52.8647 16.0208C53.62 17.1511 54.0231 18.4803 54.0227 19.84C54.0185 21.6574 53.2959 23.3995 52.0126 24.6859C50.7293 25.9723 48.9894 26.6987 47.1727 26.7066H47.1826Z" fill="#E32044"/>
<path d="M7.11058 25.4317V25.6306H7.05889V25.3979V14.6595C7.05889 14.5621 7.02112 14.4607 7.10859 14.3672C7.13815 14.4479 7.14637 14.5349 7.13244 14.6197V25.1891C7.14572 25.2705 7.1382 25.354 7.11058 25.4317Z" fill="#E6163E"/>
<path d="M21.5399 17.9395H32.5165C32.4569 18.0309 32.3635 17.9991 32.2839 17.9991H21.6552C21.6015 17.9991 21.5418 18.0289 21.4941 17.9772V17.9593L21.5399 17.9395Z" fill="#E10F3C"/>
<path d="M7.11035 25.4299V14.3574C7.19386 14.433 7.16006 14.5344 7.16006 14.6239V25.1634C7.16006 25.2529 7.19386 25.3543 7.11035 25.4299Z" fill="#DD2544"/>
<path d="M5.56934 30.0957H12.0714V30.1354C12.0058 30.1354 11.9402 30.1454 11.8727 30.1454H5.8357C5.74625 30.1454 5.63692 30.1792 5.56934 30.0957Z" fill="#E71C3F"/>
<path d="M102.953 19.1778C102.957 18.7435 102.909 18.3103 102.812 17.8872C101.987 13.861 99.6556 11.1061 95.8165 9.6226C94.917 9.27559 93.967 9.07745 93.0038 9.03596C92.6937 9.09164 92.3836 9.0121 92.0715 9.02204C91.8556 9.06081 91.6348 9.06484 91.4175 9.03397C90.8121 9.0455 90.2107 9.13575 89.6285 9.30243C85.4899 10.4585 82.8502 13.1099 81.7092 17.2568C81.6813 17.3582 81.7092 17.4935 81.6118 17.5611C80.6179 13.6913 78.3279 10.9331 74.5173 9.63652C70.7067 8.33995 67.2221 9.12346 64.0615 11.6251V3.67073V1.13329C64.0615 0.506879 63.6501 0.0475135 63.0935 0.0236503C62.519 0.0654108 61.9425 0.0375705 61.3661 0.0395591C60.9836 0.0543065 60.6005 0.0450081 60.2191 0.0117188C60.1178 0.0892739 60.1714 0.196658 60.1714 0.288133V29.9381C60.1714 30.1588 60.235 30.2006 60.4418 30.1986C61.2627 30.1867 62.0837 30.1986 62.9046 30.1986C63.6222 30.1986 64.0635 29.7551 64.0675 29.0313V28.0569C67.248 30.5545 70.7544 31.3301 74.565 30.0176C78.3756 28.7051 80.6517 25.939 81.6356 22.0215C81.6754 22.1885 81.6992 22.3039 81.729 22.4192C83.1205 27.9753 88.5889 31.527 94.1706 30.4352C97.9057 29.7034 100.559 27.5359 102.122 24.0717C102.654 22.9055 102.941 21.6427 102.967 20.361C102.928 19.9678 102.923 19.5719 102.953 19.1778ZM72.5693 26.5356C72.2135 26.6191 71.8477 26.6509 71.4859 26.7066C71.2105 26.7633 70.9265 26.7633 70.6511 26.7066C70.0482 26.6565 69.4531 26.5364 68.878 26.3487C66.3117 25.3941 64.7274 23.5646 64.2921 20.8761C63.7256 17.3125 65.9817 14.0114 69.4783 13.1464C73.1815 12.2316 77.0538 14.7035 77.7694 18.44C78.485 22.1766 76.2626 25.6487 72.5693 26.5296V26.5356ZM92.1729 26.6987C90.8112 26.6971 89.4805 26.2915 88.3492 25.5332C87.218 24.775 86.3369 23.6981 85.8175 22.4388C85.2981 21.1795 85.1638 19.7944 85.4314 18.4587C85.699 17.123 86.3567 15.8967 87.3211 14.9349C88.2855 13.9732 89.5134 13.3192 90.8494 13.0557C92.1854 12.7922 93.5695 12.931 94.8266 13.4546C96.0838 13.9782 97.1574 14.863 97.9118 15.9972C98.6662 17.1313 99.0673 18.4638 99.0646 19.8261C99.0551 21.6491 98.3251 23.3944 97.0339 24.6809C95.7428 25.9674 93.9952 26.6906 92.1729 26.6927V26.6987Z" fill="#E32044"/>
<path d="M63.9637 1.23828C64.0352 1.29595 64.0134 1.37748 64.0134 1.45305V11.396C64.0134 11.4123 64.0087 11.4283 63.9999 11.4421C63.9911 11.4558 63.9785 11.4667 63.9637 11.4736V11.0759C63.9332 10.996 63.9249 10.9094 63.9398 10.8253V1.4789C63.9266 1.39799 63.9349 1.31503 63.9637 1.23828Z" fill="#E6153C"/>
<path d="M63.9627 1.23828V11.0798C63.8792 11.0043 63.913 10.9029 63.913 10.8134V1.50276C63.9229 1.40532 63.8792 1.31385 63.9627 1.23828Z" fill="#DD2544"/>
<path d="M70.651 26.7031H71.4779L71.5972 26.721C71.2235 26.8026 70.8517 26.7469 70.4502 26.7688C70.5337 26.6892 70.5973 26.723 70.651 26.7031Z" fill="#E31C47"/>
<path d="M109.476 30.0944H102.251C102.161 30.0944 102.062 30.1282 101.986 30.0447H108.961C109.131 30.0518 109.301 30.0412 109.468 30.0128C109.623 29.981 109.456 30.0665 109.476 30.0944ZM121.741 30.0964H115.464C115.366 30.0964 115.265 30.1341 115.173 30.0466H121.475C121.57 30.0407 121.665 30.0128 121.741 30.0964Z" fill="#DE2646"/>
<path d="M101.06 27.4278C101.076 27.4556 101.107 27.4834 101.107 27.5133C101.107 28.0641 101.107 28.6149 101.06 29.1658V27.4258V27.4278Z" fill="#DF163C"/>
<path d="M124.367 11.7452C124.254 11.7481 124.141 11.7283 124.036 11.6869C123.931 11.6454 123.835 11.5833 123.754 11.504C123.674 11.4248 123.61 11.3302 123.566 11.2257C123.523 11.1213 123.501 11.0092 123.502 10.8961C123.506 10.6687 123.599 10.452 123.761 10.2925C123.923 10.1331 124.141 10.0435 124.369 10.043C124.594 10.043 124.811 10.1326 124.97 10.2923C125.13 10.4519 125.22 10.6684 125.22 10.8941C125.22 11.1198 125.13 11.3363 124.97 11.4959C124.811 11.6555 124.594 11.7452 124.369 11.7452H124.367Z" fill="#FEFEFE"/>
<path d="M124.846 11.3499C124.663 11.4175 124.561 11.3817 124.508 11.2306C124.497 11.1801 124.466 11.1359 124.423 11.1073C124.38 11.0787 124.328 11.068 124.277 11.0775C124.138 11.0994 124.196 11.2048 124.192 11.2764C124.188 11.3479 124.128 11.3817 124.052 11.3817C123.977 11.3817 123.955 11.3499 123.955 11.2783V10.4829C123.955 10.4332 123.955 10.3656 124.019 10.3656C124.237 10.3656 124.466 10.3059 124.673 10.4173C124.71 10.4349 124.743 10.4602 124.77 10.4916C124.797 10.5229 124.817 10.5596 124.829 10.5991C124.841 10.6387 124.844 10.6803 124.839 10.7213C124.833 10.7623 124.819 10.8016 124.798 10.8369C124.663 11.0397 124.641 11.1968 124.846 11.3499Z" fill="#E32147"/>
<path d="M124.19 10.7192C124.19 10.6098 124.174 10.4985 124.349 10.5204C124.478 10.5363 124.616 10.5522 124.61 10.7192C124.604 10.8863 124.467 10.9002 124.337 10.9181C124.208 10.936 124.184 10.8306 124.19 10.7192Z" fill="#FDF8F9"/>
</svg>
