<svg width="57" height="75" viewBox="0 0 57 75" fill="none" xmlns="http://www.w3.org/2000/svg">
<g clip-path="url(#clip0)">
<path d="M6.61744 70.2338L6.56482 70.3353C6.24913 71.0191 5.78875 71.3632 5.15298 71.3632C4.54351 71.3632 4.19275 71.0279 4.02175 70.8382C3.75867 70.4588 3.65344 70.2603 3.65344 68.5882C3.65344 66.925 3.75867 66.7176 4.02175 66.3382C4.19275 66.1485 4.54351 65.8221 5.15298 65.8221C5.88082 65.8221 6.39382 66.3382 6.56482 66.8721L6.59113 67.0132H8.27921L8.24413 66.7971C7.95475 65.2176 6.70513 64.1853 5.15298 64.1853C3.77621 64.1853 2.84228 65.0015 2.40382 65.7691C2.12321 66.2941 2.03551 66.5632 2.03551 68.5882C2.03551 70.5956 2.12321 70.8868 2.40382 71.4074C2.84228 72.1706 3.77621 73 5.15298 73C6.73582 73 7.9109 72.025 8.24413 70.4588L8.29675 70.2338H6.61744Z" fill="#CCE325"/>
<path d="M13.931 64.2528V67.8042H11.0196V64.2528H9.40167V72.9219H11.0196V69.3042H13.931V72.9219H15.5314V64.2528H13.931Z" fill="#CCE325"/>
<path d="M19.463 69.5778C19.5902 69.2072 20.1997 67.3807 20.4145 66.7013C20.6206 67.3807 21.2344 69.2072 21.366 69.5778H19.463ZM21.0634 64.2528H19.7612L16.613 72.9219H18.3318C18.3318 72.9219 18.8974 71.2939 18.9939 71.0778H21.8439C21.9228 71.2939 22.4709 72.9219 22.4709 72.9219H24.1897L21.0634 64.2528Z" fill="#CCE325"/>
<path d="M30.2277 64.2528V69.7322C29.6884 68.8807 26.7595 64.2528 26.7595 64.2528H25.2687V72.9219H26.8954V67.4425C27.4347 68.2939 30.3461 72.9219 30.3461 72.9219H31.8281V64.2528H30.2277Z" fill="#CCE325"/>
<path d="M48.0661 65.8175V64.2513H42.4231V72.916H48.0661V71.3587H44.0498V69.2984H47.4654V67.7984H44.0498V65.8175H48.0661Z" fill="#CCE325"/>
<path d="M51.1489 71.3621V64.2547H49.4959V72.9238H54.0954V71.3621H51.1489Z" fill="#CCE325"/>
<path d="M26.9993 11.4927C26.9993 16.8001 22.7419 21.1016 17.4584 21.1016C12.2012 21.1016 7.90871 16.8001 7.90871 11.4927C7.90871 6.18538 12.2012 1.88391 17.4584 1.88391C22.7419 1.88391 26.9993 6.18538 26.9993 11.4927Z" fill="#CCE325"/>
<path d="M48.9649 11.4927C48.9649 16.8001 44.725 21.1016 39.4152 21.1016C34.1581 21.1016 29.8699 16.8001 29.8699 11.4927C29.8699 6.18538 34.1581 1.88391 39.4152 1.88391C44.725 1.88391 48.9649 6.18538 48.9649 11.4927Z" fill="#CCE325"/>
<path d="M26.9993 33.5943C26.9993 38.8928 22.7419 43.2031 17.4584 43.2031C12.2012 43.2031 7.90871 38.8928 7.90871 33.5943C7.90871 28.2781 12.2012 23.9855 17.4584 23.9855C22.7419 23.9855 26.9993 28.2781 26.9993 33.5943Z" fill="#CCE325"/>
<path d="M38.783 64.2528V69.7322C38.2437 68.8807 35.306 64.2528 35.306 64.2528H33.8591V72.9219H35.477V67.4425C35.9988 68.2939 38.9189 72.9219 38.9189 72.9219H40.4097V64.2528H38.783Z" fill="#CCE325"/>
<path d="M54.2747 65.1461C54.2747 65.3535 54.4282 65.4285 54.6167 65.4285C54.8052 65.4285 54.8842 65.3358 54.8842 65.2344C54.8842 65.1285 54.8052 65.0932 54.7614 65.0756C54.6956 65.0358 54.5728 65.0182 54.3755 64.9653C54.1651 64.9123 54.0949 64.7756 54.0949 64.6476C54.0949 64.3873 54.3536 64.2594 54.5728 64.2594C54.8315 64.2594 55.0639 64.405 55.0639 64.6741H54.8315C54.8315 64.5064 54.7219 64.4491 54.5728 64.4491C54.4545 64.4491 54.3273 64.4844 54.3273 64.6123C54.3273 64.7138 54.3755 64.7579 54.4808 64.7844C54.4983 64.7932 54.7965 64.855 54.8491 64.877C55.0288 64.93 55.0902 65.0756 55.0902 65.2079C55.0902 65.4903 54.8491 65.6094 54.5816 65.6094C54.2922 65.6094 54.0774 65.4638 54.0598 65.1461H54.2747Z" fill="#CCE325"/>
<path d="M55.2854 64.2982H55.6098L55.9518 65.3085L56.3026 64.2982H56.5964V65.582H56.4078V64.5982H56.3903L56.0395 65.582H55.8597L55.5002 64.5982V65.582H55.2854V64.2982Z" fill="#CCE325"/>
<path d="M48.9649 33.5943C48.9649 38.8928 44.725 43.2031 39.4152 43.2031C34.1581 43.2031 29.8699 38.8928 29.8699 33.5943C29.8699 28.2781 34.1581 23.9855 39.4152 23.9855C44.725 23.9855 48.9649 28.2781 48.9649 33.5943Z" fill="#1E1609"/>
<path d="M7.60266 56.5831C8.69005 56.5831 9.29951 56.0581 9.29951 55.2111V55.189C9.29951 54.289 8.66374 53.8258 7.58512 53.8258H5.5112V56.5831H7.60266ZM2.36304 51.0596H7.75612C9.50558 51.0596 10.6938 51.5316 11.4743 52.3081C12.1232 52.9655 12.474 53.8522 12.474 54.9816V55.0169C12.474 56.7728 11.5576 57.9463 10.1282 58.5375L12.851 62.5566H9.21181L6.89235 59.0713H6.86605H5.5112V62.5566H2.36304V51.0596Z" fill="#1E1609"/>
<path d="M14.0765 51.0562H23.2667V53.7782H17.2115V55.5121H22.6923V58.0179H17.2115V59.8444H23.3412V62.5488H14.0765V51.0562Z" fill="#1E1609"/>
<path d="M24.9609 51.0562H34.1598V53.7782H28.0959V55.5121H33.5767V58.0179H28.0959V59.8444H34.2081V62.5488H24.9609V51.0562Z" fill="#1E1609"/>
<path d="M35.8286 51.0562H39.0075V59.7606H43.0413V62.5488H35.8286V51.0562Z" fill="#1E1609"/>
<path d="M44.0152 60.2415L49.7546 53.7606H44.2212V51.0562H54.1392V53.3724L48.4085 59.8532H54.1392V62.5488H44.0152V60.2415Z" fill="#1E1609"/>
</g>
<defs>
<clipPath id="clip0">
<rect width="57" height="75" fill="white"/>
</clipPath>
</defs>
</svg>
