<svg width="116" height="30" viewBox="0 0 116 30" fill="none" xmlns="http://www.w3.org/2000/svg">
<g clip-path="url(#clip0)">
<path d="M21.7478 28.3855C20.4775 26.0933 18.5513 22.6121 17.3538 20.4289C16.7708 19.4083 16.1564 18.3877 15.6185 17.387C15.5427 17.2394 15.5305 17.0696 15.5843 16.9135C15.6381 16.7575 15.7537 16.6276 15.9065 16.5513C18.6832 15.1377 19.5856 12.6969 19.5856 9.41714C19.5856 4.29769 17.1838 1.0939 9.52033 1.0939H0.662926C0.575742 1.09346 0.489332 1.10948 0.408695 1.14103C0.328059 1.17258 0.254797 1.21903 0.193147 1.2777C0.131498 1.33636 0.0826853 1.40608 0.0495336 1.48282C0.0163819 1.55955 -0.000450901 1.64178 9.18286e-06 1.72475V28.6762C-0.000450901 28.7592 0.0163819 28.8414 0.0495336 28.9181C0.0826853 28.9949 0.131498 29.0646 0.193147 29.1232C0.254797 29.1819 0.328059 29.2284 0.408695 29.2599C0.489332 29.2915 0.575742 29.3075 0.662926 29.307H4.6786C4.76579 29.3075 4.8522 29.2915 4.93284 29.2599C5.01347 29.2284 5.08673 29.1819 5.14838 29.1232C5.21003 29.0646 5.25884 28.9949 5.292 28.9181C5.32515 28.8414 5.34198 28.7592 5.34152 28.6762V18.4373C5.34106 18.3543 5.35789 18.2721 5.39105 18.1954C5.4242 18.1186 5.47301 18.0489 5.53466 17.9902C5.59631 17.9316 5.66957 17.8851 5.75021 17.8536C5.83084 17.822 5.91725 17.806 6.00444 17.8064H9.4162C9.54076 17.807 9.66261 17.8411 9.76764 17.9048C9.87268 17.9685 9.9566 18.0592 10.0097 18.1665L15.6185 28.9569C15.673 29.0623 15.7576 29.151 15.8625 29.2129C15.9674 29.2748 16.0885 29.3074 16.212 29.307H21.1717C21.2845 29.3051 21.3949 29.2757 21.4925 29.2218C21.5901 29.1679 21.6715 29.0911 21.7292 28.9989C21.7869 28.9066 21.8189 28.8018 21.8222 28.6945C21.8254 28.5872 21.7998 28.4808 21.7478 28.3855ZM10.0201 12.9182H6.00444C5.82862 12.9182 5.66001 12.8517 5.53569 12.7334C5.41136 12.6151 5.34152 12.4547 5.34152 12.2873V6.62291C5.34106 6.53994 5.35789 6.45771 5.39105 6.38098C5.4242 6.30424 5.47301 6.23452 5.53466 6.17586C5.59631 6.11719 5.66957 6.07074 5.75021 6.03919C5.83084 6.00764 5.91725 5.99162 6.00444 5.99206H10.0201C13.4284 5.99206 13.9282 7.50148 13.9282 9.41714C13.9282 11.3328 13.4284 12.9182 10.0201 12.9182ZM28.8525 0.000650909C28.4213 -0.00789041 27.9928 0.0677075 27.5935 0.222784C27.1941 0.377861 26.8324 0.60913 26.5306 0.902335C26.2216 1.18978 25.9777 1.53444 25.8142 1.91505C25.6506 2.29566 25.5708 2.70414 25.5796 3.11526C25.5704 3.52643 25.65 3.93503 25.8136 4.31569C25.9772 4.69636 26.2212 5.04098 26.5306 5.32818C27.1507 5.90634 27.9843 6.23014 28.8525 6.23014C29.7207 6.23014 30.5543 5.90634 31.1744 5.32818C31.4838 5.04098 31.7278 4.69636 31.8914 4.31569C32.055 3.93503 32.1346 3.52643 32.1254 3.11526C32.1342 2.70414 32.0544 2.29566 31.8908 1.91505C31.7273 1.53444 31.4834 1.18978 31.1744 0.902335C30.8726 0.60913 30.5109 0.377861 30.1115 0.222784C29.7122 0.0677075 29.2837 -0.00789041 28.8525 0.000650909ZM30.8898 9.49971H24.5939C24.4217 9.504 24.258 9.57191 24.1375 9.68904C24.017 9.80617 23.9492 9.96334 23.9483 10.1273V14.0379C23.9492 14.2049 24.0194 14.3649 24.1435 14.483C24.2676 14.6011 24.4357 14.6678 24.6112 14.6687H26.1627V28.6762C26.1622 28.7592 26.179 28.8414 26.2122 28.9181C26.2453 28.9949 26.2941 29.0646 26.3558 29.1232C26.4174 29.1819 26.4907 29.2284 26.5713 29.2599C26.652 29.2915 26.7384 29.3075 26.8256 29.307H30.8898C30.977 29.3075 31.0634 29.2915 31.1441 29.2599C31.2247 29.2284 31.298 29.1819 31.3596 29.1232C31.4213 29.0646 31.4701 28.9949 31.5032 28.9181C31.5364 28.8414 31.5532 28.7592 31.5528 28.6762V10.1273C31.5528 10.0446 31.5356 9.9627 31.5022 9.88634C31.4689 9.80999 31.42 9.74066 31.3584 9.68235C31.2968 9.62403 31.2237 9.57787 31.1433 9.54653C31.0629 9.51519 30.9767 9.49928 30.8898 9.49971ZM115.337 1.13023H111.412C111.222 1.13005 111.037 1.18675 110.883 1.29229C110.729 1.39783 110.614 1.54684 110.554 1.71814L103.55 21.8657C103.506 21.9908 103.422 22.0996 103.309 22.1766C103.196 22.2536 103.061 22.2951 102.922 22.2951C102.783 22.2951 102.648 22.2536 102.535 22.1766C102.423 22.0996 102.338 21.9908 102.294 21.8657L95.2795 1.71814C95.2197 1.54684 95.1047 1.39783 94.9508 1.29229C94.7969 1.18675 94.6119 1.13005 94.4222 1.13023H70.8037C70.6288 1.13023 70.4611 1.19635 70.3374 1.31404C70.2137 1.43173 70.1442 1.59134 70.1442 1.75778V4.89551C70.1442 5.06194 70.2137 5.22156 70.3374 5.33925C70.4611 5.45694 70.6288 5.52305 70.8037 5.52305H78.1409C78.3161 5.52393 78.4838 5.59078 78.6074 5.70899C78.731 5.8272 78.8003 5.98716 78.8003 6.1539V28.6696C78.8003 28.7538 78.818 28.8372 78.8524 28.9149C78.8868 28.9925 78.9372 29.0628 79.0006 29.1216C79.064 29.1804 79.1391 29.2265 79.2216 29.2572C79.304 29.288 79.3921 29.3026 79.4806 29.3004H83.8191C83.9949 29.3004 84.1635 29.234 84.2878 29.1157C84.4121 28.9974 84.482 28.8369 84.482 28.6696V6.1539C84.4828 5.98855 84.5515 5.83006 84.6734 5.71222C84.7953 5.59438 84.9608 5.5265 85.1345 5.52305H90.2955C90.4351 5.521 90.5718 5.5607 90.6864 5.63655C90.801 5.71241 90.8876 5.82058 90.9341 5.94582L99.2119 28.7356C99.2733 28.9046 99.3886 29.051 99.5416 29.1547C99.6947 29.2583 99.8779 29.3138 100.066 29.3136H105.914C106.053 29.3132 106.188 29.2715 106.3 29.1946C106.413 29.1176 106.497 29.0091 106.542 28.8843L115.965 1.95925C115.998 1.86455 116.007 1.76377 115.991 1.66518C115.975 1.56659 115.935 1.473 115.874 1.3921C115.812 1.31119 115.732 1.24527 115.638 1.19975C115.545 1.15423 115.442 1.13041 115.337 1.13023ZM48.0979 17.027C48.0229 16.9086 47.9911 16.7699 48.0074 16.6325C48.0238 16.4952 48.0873 16.3668 48.1882 16.2673L53.9219 10.5698C54.014 10.4817 54.0766 10.3695 54.1016 10.2474C54.1266 10.1254 54.113 9.99902 54.0624 9.88436C54.0118 9.7697 53.9266 9.67193 53.8176 9.60345C53.7085 9.53497 53.5805 9.49886 53.4498 9.49971H48.8337C48.7388 9.49969 48.6451 9.51916 48.5588 9.55678C48.4726 9.5944 48.3958 9.64929 48.3339 9.7177L43.7872 14.7183C43.6997 14.8166 43.5825 14.887 43.4515 14.9197C43.3205 14.9524 43.182 14.946 43.055 14.9013C42.928 14.8565 42.8185 14.7756 42.7415 14.6696C42.6645 14.5636 42.6236 14.4376 42.6245 14.3087V1.75778C42.6236 1.59104 42.5533 1.43143 42.4291 1.31384C42.3049 1.19624 42.1368 1.13023 41.9616 1.13023H37.8696C37.6943 1.13023 37.5262 1.19624 37.402 1.31384C37.2778 1.43143 37.2076 1.59104 37.2066 1.75778V28.6762C37.2066 28.8435 37.2765 29.004 37.4008 29.1223C37.5251 29.2406 37.6937 29.307 37.8696 29.307H41.9616C42.0486 29.307 42.1349 29.2907 42.2153 29.259C42.2957 29.2273 42.3688 29.1809 42.4303 29.1223C42.4919 29.0637 42.5407 28.9941 42.5741 28.9176C42.6074 28.8411 42.6245 28.759 42.6245 28.6762V21.7402C42.6238 21.5792 42.6885 21.4242 42.805 21.3075L43.3534 20.7526C43.4266 20.6798 43.517 20.6246 43.617 20.5917C43.7171 20.5587 43.824 20.549 43.9288 20.5632C44.0337 20.5774 44.1334 20.6152 44.2199 20.6734C44.3063 20.7316 44.3769 20.8086 44.4258 20.8979L48.7851 28.9569C48.842 29.0576 48.9267 29.1416 49.0301 29.1998C49.1335 29.258 49.2516 29.2882 49.3717 29.2872H54.6334C54.7501 29.2869 54.8647 29.2573 54.9655 29.2013C55.0663 29.1454 55.1498 29.0651 55.2076 28.9685C55.2653 28.872 55.2953 28.7627 55.2944 28.6516C55.2935 28.5406 55.2619 28.4317 55.2026 28.336L48.0979 17.027ZM66.4583 17.1756L66.021 17.0138C63.6157 16.1088 62.5502 15.6001 62.5918 14.5168C62.6335 13.4334 63.4942 12.7266 64.8964 12.7266C65.9377 12.7266 67.1316 13.1692 68.867 14.2096C69.0562 14.3233 69.2813 14.3704 69.5032 14.3426C69.7251 14.3149 69.9298 14.2141 70.0818 14.0577L71.602 12.0396C71.6936 11.9448 71.7627 11.8323 71.8046 11.7097C71.8466 11.5872 71.8603 11.4575 71.8449 11.3295C71.8363 11.2072 71.801 11.0879 71.7413 10.9793C71.6815 10.8706 71.5986 10.7751 71.4978 10.6987C69.5654 9.32092 67.2138 8.58 64.7992 8.58812C60.7211 8.64757 57.6495 11.2668 57.6495 14.6786C57.6495 18.718 61.0786 20.2142 64.296 21.3042C66.972 22.1596 67.8639 22.6617 67.8639 23.9465C67.8639 25.1388 66.8227 25.8522 65.0457 25.8522C63.522 25.8522 61.7797 25.1388 60.3844 23.9498C60.2 23.7938 59.9593 23.7118 59.7128 23.7211C59.4662 23.7303 59.233 23.83 59.0621 23.9993L57.5315 25.9811C57.4434 26.069 57.3744 26.1726 57.3285 26.2859C57.2827 26.3993 57.2608 26.5202 57.2642 26.6416C57.2687 26.7598 57.2981 26.8759 57.3505 26.9832C57.403 27.0904 57.4775 27.1865 57.5696 27.2659C59.5996 29.0227 62.2428 29.9996 64.9867 30.0073C68.7663 30.0073 72.8375 27.9661 72.8375 23.4874C72.8375 19.5239 70.0228 18.4967 66.4583 17.1756Z" fill="#EF4642"/>
</g>
<defs>
<clipPath id="clip0">
<rect width="116" height="30" fill="white"/>
</clipPath>
</defs>
</svg>
