<svg width="112" height="35" viewBox="0 0 112 35" fill="none" xmlns="http://www.w3.org/2000/svg">
<path d="M17.6777 11.5268C17.6777 8.33461 15.1205 5.76389 11.9936 5.76389H9.17479V17.2387H11.9936C15.1205 17.2387 17.6777 14.6662 17.6777 11.5268ZM30.5001 34.4023H20.1528L11.9377 22.9531H9.17479V34.3777H0.0556641V0.0554085H13.1194C20.6505 0.0554085 26.7976 5.19856 26.7976 11.5268C26.7976 15.3863 24.441 18.8335 20.8545 20.9426L30.5001 34.4023Z" fill="#6C3C97"/>
<path d="M40.7851 13.585C38.3768 13.585 36.3284 16.8724 36.3284 20.9418C36.3284 25.0113 38.3768 28.3029 40.7851 28.3029C43.2492 28.3029 45.2943 25.0113 45.2943 20.9418C45.2943 16.8724 43.2492 13.585 40.7851 13.585ZM54.8214 20.9418C54.8214 28.7161 48.5261 34.9414 40.7851 34.9414C33.0466 34.9414 26.7979 28.7161 26.7979 20.9418C26.7979 13.1735 33.0466 6.94478 40.7851 6.94478C48.5261 6.94478 54.8214 13.1735 54.8214 20.9418Z" fill="#6C3C97"/>
<path d="M76.2209 7.51435L65.7161 18.0625V7.4795H56.5986V34.3761H65.7161V23.4658L76.6831 34.3761H88.1588L74.2223 20.3782L85.7658 8.78952V24.7512C85.7658 30.0507 88.9392 34.9414 96.9308 34.9414C100.725 34.9414 104.206 32.7804 105.898 30.8252L109.998 34.3761H111.944V7.51435H102.827V21.5088V24.9059C101.8 26.7056 100.369 27.837 98.1582 27.837C95.9151 27.837 94.8857 26.5015 94.8857 22.2297V21.1025V7.51435H76.2209Z" fill="#6C3C97"/>
</svg>
