<svg width="124" height="34" viewBox="0 0 124 34" fill="none" xmlns="http://www.w3.org/2000/svg">
<path d="M106.393 33.3803C115.598 33.3803 123.061 25.9177 123.061 16.7121C123.061 7.50653 115.598 0.0439453 106.393 0.0439453C97.1871 0.0439453 89.7245 7.50653 89.7245 16.7121C89.7245 25.9177 97.1871 33.3803 106.393 33.3803Z" fill="url(#paint0_linear)"/>
<path d="M0.64032 10.5442C0.714535 10.5882 0.709037 10.5222 0.722781 10.4851C0.875729 10.0326 1.18265 9.64813 1.59003 9.39872C1.99742 9.14932 2.47941 9.05082 2.95198 9.12038C3.29066 9.15035 3.62072 9.24359 3.92502 9.39525C4.10439 9.48236 4.25964 9.61214 4.37719 9.7732C4.46492 9.90642 4.58687 10.0136 4.73026 10.0835C4.87365 10.1533 5.0332 10.1834 5.19218 10.1704C8.83421 10.1631 12.4767 10.1631 16.1197 10.1704C16.7615 10.1704 17.3415 10.3161 17.7799 10.8246C18.0204 11.0789 18.1861 11.3946 18.2588 11.7369C18.3316 12.0793 18.3085 12.4351 18.1922 12.7652C18.1001 13.0842 17.9193 13.3706 17.6709 13.591C17.4225 13.8114 17.1167 13.9568 16.789 14.0103C16.5582 14.0473 16.3245 14.0629 16.0908 14.0571C12.8308 14.0571 9.57087 14.0571 6.3109 14.0571C5.86836 14.0571 5.45468 14.1272 5.10559 14.4336C4.95039 14.5744 4.82853 14.7479 4.74888 14.9417C4.66924 15.1355 4.63381 15.3445 4.64519 15.5537C4.64519 17.7719 4.64519 19.9897 4.64519 22.207C4.64519 23.1003 4.64519 23.9932 4.64519 24.8856C4.64519 25.9191 4.02398 26.6819 3.04269 26.8578C2.56693 26.939 2.07772 26.8517 1.65947 26.6108C1.24122 26.37 0.920146 25.9907 0.751642 25.5384C0.732401 25.4848 0.76676 25.3776 0.648566 25.3831V10.7201C0.670556 10.727 0.684299 10.7201 0.684299 10.6968C0.684299 10.6734 0.669181 10.6679 0.648566 10.6775L0.64032 10.5442Z" fill="#0461A2"/>
<path d="M107.458 0C107.402 0.0714664 107.344 0.042605 107.287 0H107.458Z" fill="#010102"/>
<path d="M105.46 0C105.417 0.046728 105.374 0.0577228 105.332 0H105.46Z" fill="#010102"/>
<path d="M123.106 15.6458C123.048 15.6169 123.046 15.5894 123.106 15.5605V15.6458Z" fill="#010102"/>
<path d="M123.106 17.8137C123.039 17.7849 123.054 17.756 123.106 17.7285V17.8137Z" fill="#010102"/>
<path d="M0.64032 10.6717C0.660935 10.6621 0.676053 10.6717 0.676053 10.691C0.676053 10.7102 0.662309 10.7198 0.64032 10.7198V10.6717Z" fill="#010102"/>
<path d="M123.106 17.9831C123.084 17.9941 123.068 17.9831 123.068 17.9625C123.068 17.9418 123.084 17.9308 123.106 17.9418V17.9831Z" fill="#010102"/>
<path d="M42.738 15.4214C42.738 12.7789 42.738 10.1365 42.738 7.49409C42.738 6.14997 44.0986 5.15769 45.3644 5.57C45.7679 5.71263 46.1169 5.97726 46.3632 6.32721C46.6094 6.67715 46.7407 7.09505 46.7388 7.52295C46.7388 10.4421 46.7388 13.3612 46.7388 16.2803C46.7388 17.9873 46.7388 19.6947 46.7388 21.4025C46.7388 22.333 47.1896 22.8291 48.1131 22.9253C48.2327 22.9384 48.3529 22.9452 48.4732 22.9459H57.7845C57.9897 22.9498 58.1947 22.9281 58.3947 22.8813C59.0653 22.7123 59.4612 22.3014 59.468 21.6114C59.4886 19.5293 59.5051 17.4458 59.4433 15.3636C59.4213 14.6421 58.8812 14.1267 58.1638 14.0704C58.0153 14.058 57.8669 14.0511 57.7185 14.0511C55.2872 14.0511 52.8574 14.0511 50.4275 14.0415C49.9682 14.0442 49.522 13.8878 49.1648 13.599C48.8076 13.3101 48.5613 12.9066 48.4677 12.4569C48.2382 11.3849 48.8429 10.3953 49.8036 10.2222C50.0388 10.1832 50.2771 10.1657 50.5155 10.17C53.5473 10.17 56.5801 10.1732 59.6137 10.1796C60.1713 10.1719 60.7271 10.2464 61.2629 10.4008C62.4999 10.7802 63.1554 11.6488 63.3561 12.8967C63.4133 13.2889 63.4391 13.685 63.433 14.0814C63.433 17.05 63.433 20.0186 63.433 22.9872C63.4457 23.5112 63.3875 24.0345 63.2599 24.5429C62.9204 25.7716 62.1013 26.4822 60.8699 26.7419C60.4325 26.8302 59.987 26.8722 59.5409 26.867C55.2401 26.867 50.9388 26.867 46.6371 26.867C46.1128 26.8785 45.5893 26.8184 45.0813 26.6883C43.7757 26.3255 43.0514 25.4514 42.8191 24.132C42.7566 23.7551 42.7276 23.3733 42.7325 22.9913C42.738 20.4662 42.7399 17.9428 42.738 15.4214Z" fill="#0461A2"/>
<path d="M20.8434 15.6459C20.8434 12.9751 20.8434 10.3038 20.8434 7.63203C20.8434 6.64662 21.3697 5.8921 22.2493 5.60211C22.543 5.50748 22.8548 5.48291 23.1597 5.53034C23.4647 5.57777 23.7542 5.6959 24.0053 5.87527C24.2564 6.05465 24.4621 6.29029 24.6058 6.56335C24.7495 6.83642 24.8274 7.13933 24.8331 7.44786C24.84 8.27248 24.8413 9.10533 24.8331 9.93407C24.8331 10.1265 24.8853 10.1663 25.0695 10.165C29.3208 10.165 33.5726 10.165 37.8249 10.165C38.2857 10.1553 38.7358 10.3041 39.1001 10.5865C39.4643 10.869 39.7206 11.2679 39.8259 11.7166C40.0513 12.7144 39.5263 13.8262 38.4255 14.0118C38.2084 14.0432 37.9891 14.0561 37.7699 14.0503H25.141C24.7795 14.0503 24.84 14.0269 24.84 14.3595C24.84 16.7041 24.84 19.0492 24.84 21.3948C24.8358 21.586 24.8576 21.777 24.9046 21.9624C25.042 22.4737 25.7292 22.9657 26.2789 22.9588C26.896 22.9506 27.5158 22.9423 28.1288 22.9423C31.3599 22.9423 34.5883 22.9423 37.8235 22.9423C38.5821 22.9423 39.1896 23.2048 39.6294 23.8247C40.498 25.0492 39.6624 26.5967 38.31 26.8317C38.1349 26.8583 37.9579 26.8698 37.7809 26.8661C33.3939 26.8661 29.0075 26.8661 24.6215 26.8661C24.1119 26.8755 23.6034 26.8164 23.1097 26.6902C21.9085 26.3617 21.2199 25.5605 20.9739 24.3538C20.8905 23.9154 20.8513 23.4697 20.8571 23.0234C20.8479 20.5642 20.8434 18.1051 20.8434 15.6459Z" fill="#0461A2"/>
<path d="M77.3293 10.1709C79.7591 10.1709 82.1872 10.1709 84.6134 10.1709C85.085 10.1619 85.5457 10.3132 85.9202 10.6C86.2947 10.8869 86.5608 11.2923 86.6749 11.7501C86.9498 12.8069 86.2323 14.0013 85.0353 14.0384C84.8731 14.0384 84.7096 14.0562 84.5474 14.0562H74.472C73.4083 14.0562 72.3454 14.0562 71.2835 14.0562C70.6114 14.0562 70.3407 14.3229 70.3352 14.9908C70.3077 18.314 70.2569 21.6358 70.2665 24.959C70.2665 26.0585 69.2632 26.9463 68.3149 26.9779C67.3666 27.0095 66.4444 26.233 66.3083 25.2283C66.2863 24.9674 66.2822 24.7052 66.296 24.4436C66.3262 20.8235 66.3583 17.2044 66.3922 13.5862C66.4004 12.796 66.5434 12.0359 67.0409 11.3872C67.5741 10.7001 68.319 10.3867 69.1519 10.2465C69.572 10.1824 69.9968 10.1539 70.4218 10.1613C72.7252 10.1677 75.0277 10.1709 77.3293 10.1709Z" fill="#0461A2"/>
<path d="M77.6851 21.5976C77.0117 21.5976 76.3396 21.5976 75.6662 21.5976C74.7412 21.5839 73.7792 20.8692 73.5689 20.0487C73.5024 19.7712 73.4926 19.4831 73.5402 19.2017C73.5877 18.9203 73.6916 18.6514 73.8457 18.4111C73.9997 18.1709 74.2006 17.9642 74.4365 17.8035C74.6723 17.6428 74.9382 17.5314 75.2181 17.4759C75.3636 17.4444 75.5119 17.4278 75.6607 17.4264C77.0488 17.4264 78.4382 17.4031 79.825 17.4388C80.6743 17.4608 81.3368 17.8772 81.6762 18.6757C82.0157 19.4742 81.925 20.2191 81.3436 20.8747C81.1353 21.1048 80.8807 21.2881 80.5964 21.4127C80.3122 21.5373 80.0048 21.6003 79.6944 21.5976C79.0306 21.61 78.3572 21.5976 77.6851 21.5976Z" fill="#0461A2"/>
<path d="M100.608 14.1205C100.608 15.778 100.608 17.4355 100.608 19.0943C100.608 19.5066 100.799 19.7128 101.204 19.7815C101.289 19.7948 101.374 19.8012 101.459 19.8008H105.795C105.986 19.8127 106.177 19.7698 106.345 19.6771C106.451 19.6201 106.54 19.5351 106.602 19.4312C106.664 19.3273 106.697 19.2084 106.696 19.0875C106.696 18.1378 106.696 17.1895 106.696 16.2398C106.693 16.0443 106.612 15.8581 106.472 15.722C106.332 15.586 106.143 15.5112 105.947 15.5141C104.757 15.5141 103.567 15.5059 102.374 15.5141C102.164 15.512 101.96 15.4462 101.788 15.3255C101.616 15.2048 101.485 15.0348 101.412 14.838C101.364 14.7072 101.348 14.5671 101.365 14.429C101.381 14.2908 101.43 14.1585 101.507 14.0428C101.585 13.927 101.688 13.8311 101.809 13.7627C101.93 13.6943 102.066 13.6554 102.205 13.6491C102.68 13.6354 103.155 13.6491 103.63 13.6491C104.65 13.6491 105.67 13.6491 106.691 13.6491C106.91 13.647 107.13 13.6677 107.345 13.711C108.142 13.8814 108.582 14.3858 108.596 15.2228C108.615 16.8459 108.62 18.4676 108.596 20.0894C108.579 21.0665 107.917 21.6767 106.92 21.6836C105.163 21.6932 103.406 21.6836 101.648 21.6836C101.152 21.6836 100.656 21.6974 100.161 21.6699C99.5346 21.6341 99.0728 21.3345 98.8309 20.7367C98.739 20.5396 98.6921 20.3246 98.6935 20.1072V12.7008C98.6935 12.6019 98.6935 12.5029 98.6935 12.404C98.7004 11.7938 99.0439 11.4323 99.6225 11.4268C100.201 11.4213 100.585 11.8144 100.597 12.404C100.605 12.8919 100.597 13.3798 100.597 13.8677C100.593 13.9515 100.602 14.0367 100.608 14.1205Z" fill="#FDFEFF"/>
<path d="M96.4767 18.115C97.245 18.7568 97.5034 19.6927 97.1474 20.5434C96.6169 21.8092 94.9113 22.1446 93.9108 21.1784L93.7734 21.041C93.4701 20.6436 93.3159 20.1523 93.3377 19.6529C93.3431 19.3018 93.4471 18.9593 93.6379 18.6645C93.8286 18.3697 94.0985 18.1345 94.4166 17.9858C94.7147 17.8275 95.0489 17.7495 95.3863 17.7597C95.7237 17.7698 96.0526 17.8676 96.3407 18.0435C96.3888 18.0737 96.4327 18.093 96.4767 18.115Z" fill="#FDFEFF"/>
<path d="M110.349 21.4743C109.717 21.0771 109.57 20.471 109.578 19.7715C109.594 18.3408 109.578 16.9101 109.578 15.4794C109.572 15.253 109.594 15.0268 109.644 14.806C109.83 14.0775 110.376 13.6735 111.225 13.6542C111.791 13.6405 112.359 13.6542 112.925 13.6542C114.171 13.6542 115.419 13.6542 116.666 13.6542C117.154 13.6357 117.642 13.6467 118.128 13.6872C119.048 13.947 119.422 14.6204 119.492 15.5096C119.534 16.0456 119.569 16.5871 119.398 17.108C119.177 17.7814 118.795 18.3202 118.08 18.5483C118.014 18.5689 117.943 18.5772 117.874 18.5923C117.187 18.5992 116.485 18.5717 115.79 18.6074H113.63C113.405 18.5992 113.179 18.595 112.955 18.5827C112.773 18.5623 112.6 18.4927 112.455 18.3813C112.31 18.2699 112.197 18.1209 112.131 17.9505C112.062 17.7675 112.051 17.5677 112.101 17.3785C112.15 17.1893 112.256 17.0199 112.405 16.8936C112.585 16.7327 112.82 16.6453 113.061 16.649C113.473 16.649 113.886 16.6751 114.308 16.6325C114.773 16.6325 115.241 16.6435 115.708 16.6435C116.153 16.6435 116.6 16.6435 117.045 16.627C117.164 16.6088 117.276 16.5599 117.369 16.4851C117.463 16.4104 117.536 16.3124 117.58 16.2009C117.621 16.0099 117.477 15.7598 117.249 15.6319C117.162 15.5832 117.064 15.5581 116.964 15.5591H115.197C114.143 15.5316 113.087 15.5344 112.036 15.5591C111.962 15.5573 111.889 15.571 111.821 15.5994C111.753 15.6277 111.692 15.67 111.641 15.7235C111.591 15.777 111.552 15.8406 111.528 15.9101C111.503 15.9795 111.494 16.0533 111.5 16.1267C111.5 17.1479 111.5 18.1676 111.5 19.1888C111.497 19.2921 111.525 19.394 111.579 19.4819C111.634 19.5698 111.712 19.6399 111.806 19.6835C112.064 19.8027 112.351 19.8424 112.631 19.7976H116.685C116.998 19.8168 117.311 19.8168 117.624 19.7976H117.961C118.06 19.8141 118.162 19.8141 118.262 19.7976H118.644C119.405 19.8746 119.652 20.559 119.49 21.1046C119.391 21.4386 119.078 21.664 118.666 21.6763C118.391 21.6846 118.116 21.6763 117.841 21.6763C115.917 21.6763 114.007 21.6763 112.089 21.6763C111.491 21.6887 110.907 21.6997 110.349 21.4743Z" fill="#FDFEFF"/>
<path d="M115.793 18.6047C116.481 18.569 117.183 18.5965 117.877 18.5896C117.837 18.618 117.788 18.6316 117.739 18.6281C117.125 18.6281 116.511 18.6281 115.898 18.6281C115.862 18.6246 115.827 18.6168 115.793 18.6047Z" fill="#436BB3"/>
<path d="M117.622 19.7989C117.31 19.8181 116.996 19.8181 116.684 19.7989C116.995 19.748 117.312 19.748 117.622 19.7989Z" fill="#436BB3"/>
<path d="M118.26 19.8006C118.161 19.8171 118.059 19.8171 117.959 19.8006C118.006 19.7776 118.058 19.7656 118.11 19.7656C118.162 19.7656 118.213 19.7776 118.26 19.8006Z" fill="#436BB3"/>
<path d="M115.324 18.6055H115.408C115.403 18.6118 115.397 18.6169 115.39 18.6204C115.382 18.6239 115.374 18.6257 115.366 18.6257C115.358 18.6257 115.35 18.6239 115.343 18.6204C115.336 18.6169 115.329 18.6118 115.324 18.6055Z" fill="#436BB3"/>
<path d="M114.729 18.6055H114.772C114.757 18.6233 114.743 18.6233 114.729 18.6055Z" fill="#436BB3"/>
<path d="M118.642 19.8013H118.597C118.599 19.7973 118.603 19.7939 118.607 19.7916C118.611 19.7893 118.615 19.7881 118.62 19.7881C118.624 19.7881 118.629 19.7893 118.633 19.7916C118.637 19.7939 118.64 19.7973 118.642 19.8013Z" fill="#436BB3"/>
<defs>
<linearGradient id="paint0_linear" x1="96.8451" y1="9.55168" x2="118.56" y2="28.449" gradientUnits="userSpaceOnUse">
<stop stop-color="#46AACB"/>
<stop offset="1" stop-color="#0436A2"/>
</linearGradient>
</defs>
</svg>
