<svg width="70" height="65" viewBox="0 0 70 65" fill="none" xmlns="http://www.w3.org/2000/svg">
<g clip-path="url(#clip0)">
<path d="M-49.2939 78.252H115.377V-13.2524H-49.2939V78.252Z" stroke="black" stroke-width="0.625"/>
<path d="M34.7289 -3.8147e-06C21.1427 -3.8147e-06 10.1279 10.8586 10.1279 24.2551C10.1279 37.6512 21.1427 48.5098 34.7289 48.5098C48.3143 48.5098 59.3299 37.6512 59.3299 24.2551C59.3299 10.8586 48.3143 -3.8147e-06 34.7289 -3.8147e-06Z" fill="#FF6600"/>
<path d="M16.6495 54.354C19.9158 54.354 19.791 57.7454 19.791 57.7454C19.791 61.2662 15.9248 61.4132 15.9248 61.4132L20.5727 65H13.7558L10.0366 61.0596H7.87504L7.86678 65H0.000488281V54.354C0.000488281 54.354 13.3802 54.351 16.6495 54.351C16.6495 54.351 13.3802 54.354 16.6495 54.354ZM7.86678 56.4771V58.9833L11.1204 58.9816C11.1204 58.9816 12.4447 58.8761 12.4447 57.6657C12.4447 56.4556 11.3669 56.4771 11.3013 56.4771H7.86678Z" fill="#FF6600"/>
<path d="M25.3773 54.3535H44.4909L44.4926 56.4293H38.8661V64.999H31.0007L30.999 56.4293H25.376L25.3773 54.3535Z" fill="#FF6600"/>
<path d="M52.1455 65H69.7792V62.9211L60.0127 62.9228V54.354H52.1455V65Z" fill="#FF6600"/>
<path d="M32.4161 34.3062H24.5581V14.0772H32.4161V34.3062Z" fill="white"/>
<path d="M45.0664 34.3062H37.207V14.0772H45.0664V34.3062Z" fill="white"/>
</g>
<defs>
<clipPath id="clip0">
<rect width="69.7794" height="65" fill="white"/>
</clipPath>
</defs>
</svg>
