<svg width="117" height="32" viewBox="0 0 117 32" fill="none" xmlns="http://www.w3.org/2000/svg">
<path fill-rule="evenodd" clip-rule="evenodd" d="M1.37793 27.8972V27.4824H5.56787V27.8972H3.82432V31.1296H3.13582V27.8972H1.37793Z" fill="#1F1A17"/>
<path fill-rule="evenodd" clip-rule="evenodd" d="M18.1225 27.4824V27.8972H15.1043V29.0488H18.0049V29.4635H15.1043V30.7148H18.2466V31.1296H14.416V27.4824H18.1225Z" fill="#1F1A17"/>
<path fill-rule="evenodd" clip-rule="evenodd" d="M27.9753 30.7148H30.605V31.1296H27.2866V27.4824H27.9753V30.7148Z" fill="#1F1A17"/>
<path fill-rule="evenodd" clip-rule="evenodd" d="M43.1973 27.4824V27.8972H40.1791V29.0488H43.0801V29.4635H40.1791V30.7148H43.3215V31.1296H39.4897V27.4824H43.1973Z" fill="#1F1A17"/>
<path fill-rule="evenodd" clip-rule="evenodd" d="M56.5 27.4824L54.6244 31.1296H53.8843L51.9946 27.4824H52.7277L54.2727 30.5696L55.7669 27.4824H56.5Z" fill="#1F1A17"/>
<path fill-rule="evenodd" clip-rule="evenodd" d="M66.1405 27.4824V31.1296H65.4512V27.4824H66.1405Z" fill="#1F1A17"/>
<path fill-rule="evenodd" clip-rule="evenodd" d="M78.0418 27.9583C77.6831 27.8134 77.4265 27.8185 77.1558 27.8185C75.9249 27.8185 75.7055 28.5938 76.3203 28.8236C76.5109 28.8987 76.7749 28.9592 77.1334 29.0039C77.5729 29.0835 78.0122 29.1689 78.4523 29.2492C78.9135 29.3589 79.3383 29.7093 79.36 30.0644C79.4121 30.7944 78.4084 31.2695 77.2581 31.2449C76.5548 31.2291 76.0274 31.1694 75.5512 30.7848C75.1925 30.4893 75.1781 30.259 75.1631 29.9739H75.8001C75.793 30.189 75.9104 30.6945 76.8332 30.8047C76.9941 30.8241 77.2655 30.8397 77.5367 30.8241C77.8145 30.8045 78.1003 30.7596 78.2908 30.6491C78.6351 30.4489 78.899 30.0292 78.2618 29.7291C77.9468 29.6188 77.5071 29.5494 77.1479 29.4939C76.4234 29.3787 76.7749 29.4393 76.0568 29.2739C75.8224 29.2184 75.4119 29.0588 75.3461 28.6034C75.2583 28.0129 75.8441 27.4233 77.1407 27.4233C77.5881 27.4233 78.1148 27.4785 78.4373 27.6134C79.1627 27.9183 79.2064 28.3834 79.1847 28.5485L78.5183 28.5483C78.5326 28.3334 78.4444 28.1283 78.0418 27.9583Z" fill="#1F1A17"/>
<path fill-rule="evenodd" clip-rule="evenodd" d="M89.1769 27.4824V31.1296H88.4893V27.4824H89.1769Z" fill="#1F1A17"/>
<path fill-rule="evenodd" clip-rule="evenodd" d="M103.284 29.3338C103.292 29.8485 103.035 30.4642 102.347 30.8688C102.09 31.0188 101.446 31.2395 100.706 31.2444C99.9663 31.2395 99.3217 31.0188 99.065 30.8688C98.3766 30.4642 98.1204 29.8487 98.1276 29.3338C98.1348 28.8182 98.3766 28.2032 99.065 27.7979C99.3219 27.6477 99.9661 27.4278 100.706 27.4229C101.446 27.4276 102.09 27.6479 102.347 27.7979C103.035 28.203 103.277 28.8182 103.284 29.3338ZM98.8232 29.3338C98.8087 29.7787 99.0504 30.2188 99.4097 30.4738C99.7396 30.709 100.23 30.8236 100.706 30.8236C101.182 30.8236 101.673 30.709 102.002 30.4738C102.362 30.2188 102.603 29.7787 102.588 29.3338C102.603 28.8882 102.362 28.4481 102.002 28.1931C101.673 27.9579 101.182 27.8427 100.706 27.8427C100.23 27.8427 99.7394 27.9579 99.4097 28.1931C99.0505 28.4479 98.8085 28.8882 98.8232 29.3338Z" fill="#1F1A17"/>
<path fill-rule="evenodd" clip-rule="evenodd" d="M112.85 28.2087V31.1296H112.162V27.4824H112.976L115.649 30.4331V27.4824H116.337V31.1296H115.553L112.85 28.2087Z" fill="#1F1A17"/>
<path d="M71.9239 4.93066H43.6943V19.0407H71.9239V4.93066Z" fill="white"/>
<path d="M111.403 3.97607H83.3438V20.4662H111.403V3.97607Z" fill="white"/>
<path fill-rule="evenodd" clip-rule="evenodd" d="M109.841 15.3397H96.3216V6.19042H85.6816V18.3039H109.841V15.3397ZM79.1406 1.04883H116.281V23.4449H79.1406V1.04883Z" fill="#2056AE"/>
<path fill-rule="evenodd" clip-rule="evenodd" d="M63.2811 9.117H70.2282V6.20839H46.3705V9.117H53.4534V18.2848H63.2811V9.117ZM40.0347 1.04883H76.9714V23.4449H40.0347V1.04883Z" fill="#F9A70C"/>
<path d="M35.0532 4.45166H3.09619V20.1494H35.0532V4.45166Z" fill="white"/>
<path fill-rule="evenodd" clip-rule="evenodd" d="M26.513 6.1994H6.68738V18.2573H16.0412V14.2957H17.8711L22.6503 18.2579H32.6466L26.513 14.0777C28.6805 14.1333 30.5122 12.2688 30.4769 10.1099C30.444 7.96569 28.6481 6.14717 26.513 6.1994ZM0.858887 1.04883H37.832V23.4449H0.858887V1.04883ZM16.0412 9.05297H20.6499C21.7685 9.43993 21.8367 11.0737 20.7857 11.5651L16.0412 11.5774V9.05297Z" fill="#EE2233"/>
</svg>
