<svg width="85" height="64" viewBox="0 0 85 64" fill="none" xmlns="http://www.w3.org/2000/svg">
<path d="M0.390854 53.2366V43.2285L10.0265 43.2454C20.6651 43.2624 19.8611 43.2412 20.9317 43.529C23.7289 44.278 25.849 46.5208 26.4203 49.3392C26.505 49.7496 26.5177 49.9443 26.5177 50.7483C26.5177 51.7809 26.4499 52.2506 26.196 53.025C25.684 54.5696 24.5668 56.0338 23.2465 56.8844C23.1026 56.9775 22.9841 57.0706 22.9841 57.0875C22.9841 57.1044 23.7628 58.4586 24.7107 60.092C25.6586 61.7255 26.4626 63.105 26.488 63.1558L26.5388 63.2489H23.8347H21.1306L19.7045 60.8284C18.9217 59.4953 18.2488 58.3739 18.2107 58.3316C18.1515 58.2597 17.8003 58.2597 11.7531 58.2681L5.35892 58.2808L5.34623 60.7649L5.342 63.2447H2.86643H0.390854V53.2366ZM18.9005 53.7232C19.6072 53.6259 20.2377 53.3128 20.7244 52.8134C22.3325 51.1757 21.6004 48.5309 19.3491 47.8327L19.0317 47.7353L12.189 47.7226L5.342 47.7142V50.7102C5.342 52.3606 5.35469 53.719 5.37162 53.7359C5.41817 53.7867 18.545 53.7698 18.9005 53.7232ZM40.1989 55.4921L40.1862 47.7396L35.2266 47.7269L30.267 47.7142V45.4713V43.2285H42.6872H55.1073V45.4713V47.7142H50.1562H45.205V55.4794V63.2447H42.7083H40.2116L40.1989 55.4921ZM59.3348 53.2366V43.2285H68.3146C73.9809 43.2285 77.5017 43.2454 77.8572 43.2708C80.6375 43.4824 82.9818 45.0101 84.2048 47.4095C85.3601 49.6692 85.2501 52.4199 83.9171 54.5908C82.9099 56.2284 81.2468 57.4599 79.3679 57.955C78.3735 58.2174 78.6655 58.2089 71.1414 58.2089H64.2818V60.7268V63.2447H61.8062H59.3306V53.2366H59.3348ZM77.7006 53.6682C78.3565 53.4863 78.9448 53.1096 79.3552 52.6188C80.1762 51.6328 80.2524 50.1855 79.5499 49.1233C79.2579 48.6875 78.8263 48.3024 78.365 48.0781C77.616 47.7099 78.3015 47.7438 70.8833 47.7311L64.2945 47.7184V50.7441V53.7698L70.8621 53.7571C77.0701 53.7444 77.4383 53.7402 77.7006 53.6682Z" fill="black"/>
<path d="M67.5698 0.750977H17.8891C16.518 0.750977 15.4008 1.87239 15.4008 3.23924C15.4008 4.6061 16.5222 5.72751 17.8891 5.72751H67.5698C68.9409 5.72751 70.0581 4.6061 70.0581 3.23924C70.0581 1.87239 68.9409 0.750977 67.5698 0.750977Z" fill="#32BAF2"/>
<path d="M75.0092 8.19043H10.4328C9.0617 8.19043 7.94452 9.31184 7.94452 10.6787C7.94452 12.0456 9.06593 13.167 10.4328 13.167H75.0092C76.3803 13.167 77.4975 12.0456 77.4975 10.6787C77.4975 9.31184 76.3972 8.19043 75.0092 8.19043Z" fill="#32BAF2"/>
<path d="M75.0092 15.6465H10.4328C9.0617 15.6465 7.94452 16.7679 7.94452 18.1348C7.94452 19.5016 9.06593 20.623 10.4328 20.623H75.0092C76.3803 20.623 77.4975 19.5016 77.4975 18.1348C77.4975 16.7679 76.3972 15.6465 75.0092 15.6465Z" fill="#32BAF2"/>
<path d="M75.0092 23.0986H10.4328C9.0617 23.0986 7.94452 24.22 7.94452 25.5869C7.94452 26.958 9.06593 28.0752 10.4328 28.0752H75.0092C76.3803 28.0752 77.4975 26.9538 77.4975 25.5869C77.5017 24.22 76.3973 23.0986 75.0092 23.0986Z" fill="#32BAF2"/>
<path d="M67.5698 30.5381H17.8891C16.518 30.5381 15.4008 31.6595 15.4008 33.0264C15.4008 34.3932 16.5222 35.5146 17.8891 35.5146H67.5698C68.9409 35.5146 70.0581 34.3932 70.0581 33.0264C70.0623 31.6595 68.9409 30.5381 67.5698 30.5381Z" fill="#32BAF2"/>
<path d="M22.6922 30.5382H62.7668V35.519H22.6922V30.5382ZM15.3247 28.0796V23.0988H70.1343V28.0796H15.3247ZM15.3247 15.6467H70.1343V20.6275H15.3247V15.6467ZM15.3247 8.19039H70.1343V13.1712H15.3247V8.19039ZM22.6922 0.750977H62.7668V5.73174H22.6922V0.750977Z" fill="#0271F9"/>
<path d="M30.2078 30.5382H55.2555V35.519H30.2078V30.5382ZM22.8403 23.0988H62.6187V28.0796H22.8403V23.0988ZM22.8403 15.6467H62.6187V20.6275H22.8403V15.6467ZM22.8403 8.19039H62.6187V13.1712H22.8403V8.19039ZM30.2078 0.750977H55.2555V5.73174H30.2078V0.750977Z" fill="#0A217C"/>
</svg>
