<svg width="133" height="37" viewBox="0 0 133 37" fill="none" xmlns="http://www.w3.org/2000/svg">
<path d="M55.0701 0H0V37H55.0701V0Z" fill="#AF001E"/>
<path d="M12.8327 18.2086L12.5587 19.3557C12.4781 19.6789 12.4458 19.8404 12.4458 19.9535C12.4458 20.2282 12.5264 20.4383 12.7199 20.7776L15.9602 26.6103C16.2343 27.0789 16.4439 27.2566 17.1049 27.2566H20.0712C20.4581 27.2566 20.9095 27.0142 20.4742 26.3356L16.5084 19.7435C17.8464 18.9033 19.3457 17.6915 19.3457 15.0579C19.3457 11.6487 17.4434 9.74219 13.2519 9.74219H7.17418C6.62606 9.74219 6.46484 9.93607 6.46484 10.4854V26.5457C6.46484 27.095 6.62606 27.2889 7.17418 27.2889H9.67297C10.2211 27.2889 10.3823 27.095 10.3823 26.5457V12.9736H12.9617C14.5899 12.9736 15.3799 13.5714 15.3799 15.1064C15.3799 16.4959 14.7512 16.9321 14.1224 17.2068C13.3647 17.53 13.0907 17.1745 12.8327 18.2086Z" fill="white"/>
<path d="M26.0685 26.5301C26.0685 27.0794 26.2298 27.2733 26.7779 27.2733H29.2767C29.8248 27.2733 29.986 27.0794 29.986 26.5301V13.0549H34.6128C35.1609 13.0549 35.3221 12.8611 35.3221 12.3117V10.4698C35.3221 9.92045 35.1609 9.72656 34.6128 9.72656H21.4418C20.8936 9.72656 20.7324 9.92045 20.7324 10.4698V12.3279C20.7324 12.8772 20.8936 13.0711 21.4418 13.0711H26.0685V26.5301Z" fill="white"/>
<path d="M36.8859 24.4619L36.5635 26.5624C36.5151 26.9663 36.6925 27.1279 37.0471 27.1925C37.8371 27.3056 39.82 27.4349 41.7545 27.4349C46.075 27.4349 49.2348 26.013 49.2348 21.9899C49.2348 19.6148 48.203 17.8375 44.608 16.9165L42.5928 16.3995C41.2387 16.044 40.6099 15.6078 40.6099 14.606C40.6099 13.1842 41.9157 12.9095 43.1732 12.9095C44.8659 12.9095 46.5748 13.0388 47.2519 13.1034C47.9612 13.1519 48.1547 13.0711 48.2514 12.4733L48.5738 10.4213C48.6222 10.0174 48.4448 9.85581 48.0902 9.79119C47.3002 9.67809 45.5591 9.54883 43.3505 9.54883C38.8688 9.54883 36.6925 11.5038 36.6925 14.6222C36.6925 17.4335 38.2079 19.0977 40.8517 19.7763L42.8669 20.2934C44.5274 20.7296 45.2367 21.2143 45.2367 22.2645C45.2367 23.7833 44.205 24.058 41.7062 24.058C40.5616 24.058 38.5787 23.8964 37.9016 23.8318C37.1922 23.7833 36.9988 23.8641 36.8859 24.4619Z" fill="white"/>
<path d="M65.5816 17.6117L63.115 14.3317L63.2762 13.6208C63.5825 13.6047 63.8727 13.5724 64.1145 13.54C64.3564 13.5077 64.5821 13.4431 64.7433 13.3461C64.9206 13.2492 65.0496 13.1361 65.1463 12.9745C65.243 12.813 65.2914 12.6191 65.2914 12.3444C65.2914 11.9243 65.1785 11.6173 64.969 11.4234C64.7594 11.2457 64.3886 11.1488 63.8244 11.1488H62.5508V17.6117H61.5352V10.3086H64.0662C64.8561 10.3086 65.4365 10.4863 65.775 10.8418C66.1136 11.1972 66.2909 11.6981 66.2909 12.3282C66.2909 12.6837 66.2264 12.9745 66.1136 13.2007C66.0007 13.4269 65.8395 13.6208 65.6461 13.7662C65.4526 13.9117 65.2269 14.0248 64.9851 14.0894C64.7433 14.1702 64.5015 14.2186 64.2596 14.251L66.8229 17.6117H65.5816Z" fill="#333333"/>
<path d="M67.7737 12.2947C67.7898 12.2947 67.8543 12.2624 67.9671 12.2301C68.08 12.1978 68.2251 12.1655 68.4024 12.1332C68.5797 12.1008 68.7732 12.0685 68.9828 12.0362C69.1923 12.0039 69.418 12.0039 69.6598 12.0039C70.2886 12.0039 70.7722 12.1332 71.1108 12.4078C71.4493 12.6825 71.6266 13.1188 71.6266 13.7489V17.6266H70.8528L70.7722 17.2712C70.7239 17.3035 70.6594 17.3358 70.5626 17.4004C70.4659 17.4489 70.3531 17.5135 70.2241 17.562C70.079 17.6105 69.9178 17.6589 69.7405 17.7074C69.547 17.7397 69.3374 17.772 69.0956 17.772C68.8699 17.772 68.6442 17.7397 68.4346 17.6912C68.2251 17.6428 68.0316 17.5458 67.8704 17.4166C67.7092 17.2873 67.5641 17.1096 67.4674 16.8995C67.3706 16.6733 67.3223 16.3987 67.3223 16.0594C67.3223 15.3969 67.4835 14.9284 67.822 14.6537C68.1606 14.379 68.6603 14.2336 69.3374 14.2336C69.4825 14.2336 69.6437 14.2336 69.8049 14.2498C69.9662 14.2659 70.0951 14.2821 70.2241 14.2982C70.3531 14.3144 70.4659 14.3305 70.5465 14.3467C70.6271 14.3629 70.6916 14.3629 70.6916 14.3629V13.9428C70.6916 13.7812 70.6755 13.6358 70.6432 13.4904C70.611 13.3611 70.5465 13.248 70.4498 13.1511C70.3531 13.0541 70.208 12.9895 70.0468 12.941C69.8694 12.8926 69.6437 12.8764 69.3697 12.8764C69.1762 12.8764 68.9989 12.8926 68.8215 12.9087C68.6442 12.9249 68.483 12.9572 68.3218 12.9895C68.1767 13.0218 68.0477 13.038 67.951 13.0703C67.8543 13.1026 67.7898 13.1188 67.7575 13.1188L67.7737 12.2947ZM69.4019 16.948C69.547 16.948 69.7082 16.9319 69.8533 16.9157C69.9984 16.8995 70.1274 16.8672 70.2563 16.8188C70.3692 16.7864 70.4659 16.7541 70.5465 16.7218C70.6271 16.6895 70.6755 16.6733 70.6916 16.6572V15.0738C70.6755 15.0738 70.6271 15.0738 70.5626 15.0576C70.482 15.0415 70.3853 15.0415 70.2886 15.0253C70.1757 15.0091 70.0468 15.0091 69.9017 14.993C69.7566 14.9768 69.6115 14.9768 69.4664 14.9768C69.0472 14.9768 68.7248 15.0415 68.5314 15.1869C68.3379 15.3323 68.2412 15.607 68.2412 16.027C68.2412 16.2209 68.2734 16.3825 68.3218 16.5118C68.3863 16.641 68.4669 16.7218 68.5636 16.8026C68.6603 16.8672 68.7893 16.9157 68.9344 16.9319C69.0795 16.9319 69.2246 16.948 69.4019 16.948Z" fill="#333333"/>
<path d="M76.6245 17.2553C76.5922 17.2714 76.5438 17.3199 76.4632 17.3684C76.3826 17.4169 76.2698 17.4815 76.1408 17.53C76.0118 17.5784 75.8668 17.6269 75.6894 17.6754C75.5282 17.7238 75.3347 17.74 75.1252 17.74C74.3997 17.74 73.8355 17.5138 73.4324 17.0614C73.0294 16.609 72.8359 15.8819 72.8359 14.8963C72.8359 13.8946 73.0455 13.1675 73.4486 12.699C73.8516 12.2304 74.4803 12.0042 75.3025 12.0042C75.4476 12.0042 75.5927 12.0204 75.7217 12.0365C75.8668 12.0527 75.9957 12.0688 76.1086 12.1011C76.2214 12.1173 76.3181 12.1496 76.3826 12.1658C76.4632 12.1819 76.5116 12.1981 76.5116 12.1981V9.74219H77.4789V17.6107H76.6889L76.6245 17.2553ZM76.5438 12.9736C76.5277 12.9736 76.3988 12.9413 76.1569 12.909C75.9312 12.8767 75.6572 12.8444 75.3509 12.8444C75.0929 12.8444 74.8672 12.8767 74.6738 12.9413C74.4803 13.0059 74.3352 13.119 74.2063 13.2806C74.0934 13.4422 73.9967 13.6522 73.9483 13.9107C73.8838 14.1693 73.8677 14.5086 73.8677 14.8963C73.8677 15.2841 73.9 15.6073 73.9483 15.8658C74.0128 16.1243 74.0934 16.3343 74.2063 16.4797C74.3191 16.6252 74.4803 16.7383 74.6577 16.8029C74.835 16.8675 75.0607 16.8998 75.3025 16.8998C75.4637 16.8998 75.6088 16.8837 75.7539 16.8514C75.899 16.819 76.0118 16.7867 76.1247 16.7544C76.2375 16.7221 76.3181 16.6898 76.3826 16.6575C76.4471 16.6252 76.4955 16.609 76.5116 16.5928L76.5438 12.9736Z" fill="#333333"/>
<path d="M79.0098 10.0488H80.0899V11.1314H79.0098V10.0488ZM79.0743 12.1331H80.0415V17.6266H79.0743V12.1331Z" fill="#333333"/>
<path d="M81.3154 14.8799C81.3154 14.3305 81.3799 13.8781 81.4766 13.5227C81.5895 13.1672 81.7507 12.8602 81.9603 12.634C82.1699 12.4078 82.4278 12.2463 82.7341 12.1493C83.0404 12.0524 83.3951 12.0039 83.7658 12.0039C84.1527 12.0039 84.4913 12.0524 84.7976 12.1493C85.1039 12.2463 85.3618 12.4078 85.5714 12.634C85.781 12.8602 85.9422 13.1511 86.055 13.5227C86.1679 13.8943 86.2163 14.3467 86.2163 14.8799C86.2163 15.4131 86.1518 15.8655 86.055 16.2371C85.9422 16.6087 85.781 16.8995 85.5714 17.1257C85.3618 17.3519 85.1039 17.5135 84.7976 17.6105C84.4913 17.7074 84.1527 17.7559 83.7658 17.7559C83.3789 17.7559 83.0404 17.7074 82.7341 17.6105C82.4278 17.5135 82.1699 17.3519 81.9603 17.1257C81.7507 16.8995 81.5895 16.6087 81.4766 16.2371C81.3638 15.8655 81.3154 15.4131 81.3154 14.8799ZM82.3311 14.8799C82.3311 15.2838 82.3633 15.607 82.4117 15.8816C82.46 16.1402 82.5568 16.3502 82.6696 16.5118C82.7825 16.6733 82.9437 16.7864 83.121 16.8511C83.2983 16.9157 83.524 16.948 83.782 16.948C84.0399 16.948 84.2495 16.9157 84.4429 16.8511C84.6364 16.7864 84.7815 16.6733 84.9104 16.5118C85.0233 16.3502 85.12 16.1402 85.1684 15.8816C85.2329 15.6231 85.249 15.2838 85.249 14.8799C85.249 14.476 85.2167 14.1528 85.1684 13.8781C85.1039 13.6196 85.0233 13.4096 84.9104 13.248C84.7976 13.0864 84.6364 12.9733 84.4429 12.9087C84.2495 12.8441 84.0399 12.8118 83.782 12.8118C83.524 12.8118 83.2983 12.8441 83.121 12.9087C82.9437 12.9733 82.7825 13.0864 82.6696 13.248C82.5568 13.4096 82.46 13.6196 82.4117 13.8781C82.3633 14.1528 82.3311 14.476 82.3311 14.8799Z" fill="#333333"/>
<path d="M90.7296 17.6117V11.1972H88.4404V10.3086H94.0184V11.1972H91.7453V17.6117H90.7296Z" fill="#333333"/>
<path d="M97.84 17.5138C97.8078 17.53 97.7433 17.5461 97.6304 17.5784C97.5337 17.6107 97.4047 17.6269 97.2274 17.6592C97.0662 17.6754 96.8889 17.7077 96.6793 17.7238C96.4697 17.74 96.2601 17.7562 96.0183 17.7562C95.5992 17.7562 95.2284 17.7077 94.906 17.5946C94.5997 17.4976 94.3256 17.3361 94.116 17.0937C93.9064 16.8675 93.7452 16.5767 93.6485 16.2051C93.5518 15.8496 93.4873 15.3972 93.4873 14.864C93.4873 13.8623 93.6808 13.1352 94.0838 12.6666C94.4868 12.2142 95.0672 11.9719 95.8571 11.9719C96.6309 11.9719 97.1952 12.1819 97.5821 12.5859C97.969 12.9898 98.1625 13.6684 98.1625 14.6378V15.2356H94.4707C94.4868 15.5749 94.5513 15.8496 94.6158 16.0596C94.6964 16.2697 94.8092 16.4313 94.9543 16.5605C95.0994 16.6736 95.2929 16.7544 95.5025 16.8029C95.712 16.8514 95.97 16.8675 96.244 16.8675C96.4214 16.8675 96.5987 16.8514 96.776 16.8352C96.9534 16.819 97.1307 16.8029 97.2758 16.7706C97.437 16.7383 97.566 16.7221 97.6788 16.7059C97.7917 16.6898 97.8561 16.6736 97.8723 16.6575L97.84 17.5138ZM95.8732 12.7959C95.6314 12.7959 95.438 12.8282 95.2606 12.8767C95.0833 12.9413 94.9543 13.0383 94.8415 13.1675C94.7286 13.2968 94.648 13.4745 94.5997 13.6845C94.5352 13.8946 94.5029 14.1693 94.5029 14.4762H97.2113C97.2113 14.1531 97.1791 13.8946 97.1307 13.6684C97.0823 13.4583 97.0017 13.2806 96.8889 13.1514C96.776 13.0221 96.6471 12.9252 96.4697 12.8767C96.3085 12.8121 96.0989 12.7959 95.8732 12.7959ZM96.4052 9.74219H97.5176L96.3085 11.3256H95.4541L96.4052 9.74219Z" fill="#333333"/>
<path d="M100.306 9.74219H99.3389V17.6269H100.306V9.74219Z" fill="#333333"/>
<path d="M105.868 17.5138C105.836 17.53 105.756 17.5461 105.659 17.5784C105.562 17.6107 105.433 17.6269 105.256 17.6592C105.095 17.6754 104.917 17.7077 104.708 17.7238C104.498 17.74 104.272 17.7562 104.047 17.7562C103.628 17.7562 103.257 17.7077 102.934 17.5946C102.612 17.4976 102.354 17.3361 102.144 17.0937C101.935 16.8675 101.774 16.5767 101.677 16.2051C101.58 15.8496 101.516 15.3972 101.516 14.864C101.516 13.8623 101.709 13.1352 102.112 12.6666C102.515 12.2142 103.096 11.9719 103.885 11.9719C104.659 11.9719 105.224 12.1819 105.61 12.5859C105.997 12.9898 106.191 13.6684 106.191 14.6378V15.2356H102.499C102.515 15.5749 102.564 15.8496 102.644 16.0596C102.725 16.2697 102.838 16.4313 102.983 16.5605C103.128 16.6736 103.321 16.7544 103.531 16.8029C103.74 16.8514 103.998 16.8675 104.272 16.8675C104.45 16.8675 104.627 16.8514 104.804 16.8352C104.982 16.819 105.159 16.8029 105.304 16.7706C105.465 16.7383 105.594 16.7221 105.707 16.7059C105.82 16.6898 105.884 16.6736 105.901 16.6575L105.868 17.5138ZM103.885 12.7959C103.644 12.7959 103.45 12.8282 103.273 12.8767C103.095 12.9413 102.967 13.0383 102.854 13.1675C102.741 13.2968 102.66 13.4745 102.612 13.6845C102.547 13.8946 102.515 14.1693 102.515 14.4762H105.224C105.224 14.1531 105.191 13.8946 105.143 13.6684C105.095 13.4583 105.014 13.2806 104.901 13.1514C104.788 13.0221 104.659 12.9252 104.482 12.8767C104.337 12.8121 104.127 12.7959 103.885 12.7959ZM104.434 9.74219H105.546L104.337 11.3256H103.482L104.434 9.74219Z" fill="#333333"/>
<path d="M109.383 16.5276L110.915 12.1328H111.914L109.883 17.6101H108.819L106.771 12.1328H107.835L109.383 16.5276Z" fill="#333333"/>
<path d="M112.736 10.0488H113.816V11.1314H112.736V10.0488ZM112.785 12.1331H113.752V17.6266H112.785V12.1331Z" fill="#333333"/>
<path d="M115.041 16.787C115.073 16.787 115.153 16.8031 115.266 16.8193C115.379 16.8354 115.524 16.8516 115.685 16.8678C115.847 16.8839 116.008 16.9001 116.185 16.9162C116.363 16.9324 116.54 16.9324 116.701 16.9324C117.185 16.9324 117.539 16.8839 117.733 16.787C117.942 16.69 118.039 16.48 118.039 16.173C118.039 15.8983 117.959 15.7044 117.797 15.5913C117.636 15.4782 117.362 15.3813 116.959 15.3005L116.314 15.1713C115.911 15.0905 115.589 14.9289 115.347 14.6704C115.105 14.4119 114.992 14.0564 114.992 13.604C114.992 13.1193 115.153 12.7315 115.492 12.4407C115.814 12.1499 116.363 11.9883 117.088 11.9883C117.281 11.9883 117.475 12.0044 117.652 12.0206C117.83 12.0368 118.007 12.0529 118.152 12.0852C118.297 12.1175 118.426 12.1337 118.523 12.166C118.62 12.1983 118.684 12.2145 118.716 12.2145L118.571 12.9739C118.539 12.9739 118.458 12.9577 118.362 12.9416C118.265 12.9254 118.136 12.9092 117.991 12.8931C117.846 12.8769 117.684 12.8608 117.523 12.8446C117.362 12.8285 117.201 12.8285 117.056 12.8285C116.895 12.8285 116.733 12.8446 116.604 12.8608C116.459 12.8769 116.346 12.9092 116.234 12.9739C116.137 13.0223 116.04 13.1031 115.992 13.2001C115.927 13.297 115.911 13.4263 115.911 13.5717C115.911 13.7009 115.927 13.7979 115.96 13.8948C115.992 13.9756 116.04 14.0564 116.105 14.121C116.169 14.1857 116.266 14.2341 116.395 14.2664C116.508 14.2988 116.653 14.3472 116.83 14.3634L117.507 14.5088C118.055 14.6058 118.442 14.7996 118.652 15.0582C118.861 15.3167 118.974 15.6721 118.974 16.1084C118.974 16.69 118.781 17.1101 118.378 17.3848C117.975 17.6433 117.443 17.7726 116.749 17.7726C116.508 17.7726 116.282 17.7564 116.072 17.7403C115.863 17.7241 115.669 17.7079 115.508 17.6756C115.347 17.6433 115.202 17.6271 115.105 17.611C114.992 17.5948 114.928 17.5787 114.896 17.5625L115.041 16.787Z" fill="#333333"/>
<path d="M120.119 10.0488H121.199V11.1314H120.119V10.0488ZM120.184 12.1331H121.151V17.6266H120.184V12.1331Z" fill="#333333"/>
<path d="M122.408 14.8799C122.408 14.3305 122.473 13.8781 122.569 13.5227C122.682 13.1672 122.843 12.8602 123.053 12.634C123.263 12.4078 123.521 12.2463 123.827 12.1493C124.133 12.0524 124.472 12.0039 124.859 12.0039C125.246 12.0039 125.584 12.0524 125.89 12.1493C126.197 12.2463 126.455 12.4078 126.664 12.634C126.874 12.8602 127.035 13.1511 127.148 13.5227C127.261 13.8943 127.309 14.3467 127.309 14.8799C127.309 15.4131 127.261 15.8655 127.148 16.2371C127.035 16.6087 126.874 16.8995 126.664 17.1257C126.455 17.3519 126.197 17.5135 125.89 17.6105C125.584 17.7074 125.246 17.7559 124.859 17.7559C124.472 17.7559 124.133 17.7074 123.827 17.6105C123.521 17.5135 123.263 17.3519 123.053 17.1257C122.843 16.8995 122.682 16.6087 122.569 16.2371C122.473 15.8655 122.408 15.4131 122.408 14.8799ZM123.424 14.8799C123.424 15.2838 123.456 15.607 123.504 15.8816C123.553 16.1402 123.65 16.3502 123.762 16.5118C123.875 16.6733 124.036 16.7864 124.214 16.8511C124.391 16.9157 124.617 16.948 124.875 16.948C125.133 16.948 125.342 16.9157 125.536 16.8511C125.729 16.7864 125.874 16.6733 126.003 16.5118C126.116 16.3502 126.213 16.1402 126.261 15.8816C126.326 15.6231 126.342 15.2838 126.342 14.8799C126.342 14.476 126.31 14.1528 126.261 13.8781C126.197 13.6196 126.116 13.4096 126.003 13.248C125.89 13.0864 125.729 12.9733 125.536 12.9087C125.342 12.8441 125.133 12.8118 124.875 12.8118C124.617 12.8118 124.391 12.8441 124.214 12.9087C124.036 12.9733 123.875 13.0864 123.762 13.248C123.65 13.4096 123.553 13.6196 123.504 13.8781C123.456 14.1528 123.424 14.476 123.424 14.8799Z" fill="#333333"/>
<path d="M132.032 13.9595C132.032 13.6202 131.968 13.3616 131.823 13.1678C131.694 12.9739 131.42 12.8769 131.033 12.8769C130.823 12.8769 130.646 12.8931 130.469 12.9254C130.291 12.9577 130.146 13.0062 130.017 13.0547C129.888 13.1031 129.792 13.1516 129.711 13.1839C129.63 13.2324 129.582 13.2485 129.566 13.2647V17.611H128.599V12.1175H129.389L129.437 12.5215C129.485 12.5053 129.55 12.4568 129.663 12.3922C129.775 12.3276 129.904 12.263 130.066 12.2145C130.227 12.1499 130.42 12.1014 130.614 12.0529C130.823 12.0044 131.033 11.9883 131.275 11.9883C131.823 11.9883 132.242 12.1175 132.532 12.3922C132.822 12.6507 132.984 13.087 132.984 13.6525V17.611H132.016L132.032 13.9595Z" fill="#333333"/>
<path d="M61.5831 26.3043C61.6314 26.3205 61.7282 26.3366 61.8894 26.369C62.0345 26.4013 62.2118 26.4336 62.4053 26.4497C62.5987 26.4821 62.7922 26.4982 63.0017 26.5144C63.2113 26.5305 63.3886 26.5467 63.5337 26.5467C63.8562 26.5467 64.1302 26.5305 64.3559 26.4982C64.5816 26.4659 64.7589 26.4013 64.8879 26.3043C65.0169 26.2074 65.1297 26.0781 65.1781 25.9327C65.2426 25.7711 65.2748 25.5773 65.2748 25.351C65.2748 25.141 65.2426 24.9794 65.1942 24.8502C65.1459 24.7209 65.0653 24.6078 64.9685 24.5109C64.8718 24.4139 64.7267 24.3493 64.5816 24.2847C64.4204 24.22 64.2431 24.1716 64.0335 24.1231L63.1952 23.9292C62.6471 23.8 62.244 23.5738 61.9539 23.2506C61.6798 22.9113 61.5347 22.4589 61.5347 21.8772C61.5347 21.231 61.7282 20.7301 62.1312 20.3585C62.5181 19.9869 63.1629 19.793 64.0174 19.793C64.2431 19.793 64.4688 19.8091 64.6945 19.8253C64.9202 19.8414 65.1136 19.8738 65.3071 19.9061C65.4844 19.9384 65.6456 19.9707 65.7746 20.003C65.9036 20.0353 65.9842 20.0676 66.0325 20.0676L65.8874 20.8755C65.8552 20.8755 65.7746 20.8593 65.6456 20.827C65.5166 20.8109 65.3716 20.7786 65.2103 20.7462C65.033 20.7301 64.8557 20.6978 64.6461 20.6816C64.4365 20.6655 64.227 20.6493 64.0174 20.6493C63.8078 20.6493 63.6143 20.6655 63.437 20.6978C63.2597 20.7301 63.0985 20.7786 62.9695 20.8593C62.8405 20.9401 62.7277 21.0532 62.6632 21.2148C62.5826 21.3602 62.5503 21.5541 62.5503 21.7965C62.5503 22.1681 62.6471 22.4428 62.8405 22.6205C63.034 22.7821 63.308 22.9113 63.6627 22.9921L64.5816 23.2021C65.2265 23.3476 65.694 23.6061 65.9519 23.9454C66.2099 24.2847 66.3388 24.7371 66.3388 25.2703C66.3388 25.658 66.2743 25.9973 66.1615 26.272C66.0325 26.5467 65.8713 26.7729 65.6456 26.9345C65.4199 27.096 65.1459 27.2253 64.8234 27.3061C64.501 27.3869 64.1463 27.4192 63.7594 27.4192C63.437 27.4192 63.1307 27.403 62.8566 27.3707C62.5826 27.3384 62.3408 27.3061 62.1473 27.2738C61.9539 27.2414 61.7926 27.2091 61.6637 27.1768C61.5508 27.1445 61.4702 27.1283 61.4541 27.1283L61.5831 26.3043Z" fill="#333333"/>
<path d="M68.4184 25.4314C68.4184 25.7707 68.4829 26.0453 68.6119 26.2231C68.7409 26.4008 68.9988 26.4977 69.4018 26.4977C69.6114 26.4977 69.7887 26.4816 69.9661 26.4493C70.1434 26.4169 70.2885 26.3685 70.4175 26.32C70.5464 26.2715 70.6432 26.2231 70.7238 26.1907C70.8044 26.1423 70.8527 26.1261 70.8689 26.11V21.7798H71.8361V27.2733H71.0462L70.9817 26.8694C70.9495 26.8855 70.8689 26.934 70.7721 26.9825C70.6593 27.0471 70.5303 27.0956 70.3691 27.1602C70.2079 27.2248 70.0144 27.2733 69.821 27.3218C69.6114 27.3702 69.3857 27.3864 69.16 27.3864C68.6119 27.3864 68.1928 27.2571 67.9026 26.9825C67.6124 26.7078 67.4512 26.2877 67.4512 25.6737V21.7637H68.4184V25.4314Z" fill="#333333"/>
<path d="M73.2393 19.6953H74.3194V20.7778H73.2393V19.6953ZM73.3037 21.7796H74.271V27.273H73.3037V21.7796Z" fill="#333333"/>
<path d="M75.5601 26.4329C75.5924 26.4329 75.673 26.4491 75.7858 26.4652C75.8987 26.4814 76.0438 26.4976 76.205 26.5137C76.3662 26.5299 76.5274 26.546 76.7047 26.5622C76.8821 26.5783 77.0594 26.5783 77.2206 26.5783C77.7043 26.5783 78.0428 26.5299 78.2524 26.4329C78.462 26.336 78.5587 26.1259 78.5587 25.8189C78.5587 25.5443 78.4781 25.3504 78.3169 25.2373C78.1557 25.1242 77.8816 25.0272 77.4786 24.9626L76.8337 24.8334C76.4307 24.7687 76.1083 24.591 75.8664 24.3325C75.6246 24.074 75.4957 23.7185 75.4957 23.2661C75.4957 22.7814 75.6569 22.3936 75.9954 22.1028C76.3178 21.812 76.866 21.6504 77.5914 21.6504C77.7849 21.6504 77.9783 21.6665 78.1557 21.6827C78.333 21.6989 78.5103 21.715 78.6554 21.7473C78.8005 21.7796 78.9295 21.7958 79.0262 21.8281C79.1229 21.8604 79.1874 21.8766 79.2197 21.8766L79.0746 22.636C79.0423 22.636 78.9617 22.6198 78.865 22.6037C78.7683 22.5875 78.6393 22.5714 78.4942 22.5552C78.3491 22.539 78.1879 22.5229 78.0267 22.5067C77.8655 22.4906 77.7043 22.4906 77.5592 22.4906C77.398 22.4906 77.2367 22.5067 77.1078 22.5229C76.9788 22.539 76.8498 22.5714 76.737 22.636C76.6403 22.6845 76.5597 22.7652 76.4952 22.8622C76.4307 22.9591 76.4146 23.0884 76.4146 23.2338C76.4146 23.3631 76.4307 23.46 76.4629 23.5569C76.4952 23.6377 76.5435 23.7185 76.608 23.7831C76.6725 23.8478 76.7692 23.8962 76.8821 23.9286C76.9949 23.9609 77.14 24.0093 77.3174 24.0255L77.9944 24.1709C78.5426 24.2679 78.9295 24.4617 79.139 24.7203C79.3486 24.9788 79.4615 25.3342 79.4615 25.7705C79.4615 26.3521 79.268 26.7884 78.865 27.0469C78.4781 27.3054 77.93 27.4347 77.2367 27.4347C76.9949 27.4347 76.7692 27.4185 76.5597 27.4024C76.3501 27.3862 76.1566 27.37 75.9954 27.3377C75.8342 27.3054 75.6891 27.2893 75.5924 27.2731C75.4795 27.2569 75.4151 27.2408 75.3828 27.2246L75.5601 26.4329Z" fill="#333333"/>
<path d="M80.525 26.4329C80.5572 26.4329 80.6378 26.4491 80.7507 26.4652C80.8635 26.4814 81.0086 26.4976 81.1698 26.5137C81.331 26.5299 81.4923 26.546 81.6696 26.5622C81.8469 26.5783 82.0243 26.5783 82.1855 26.5783C82.6691 26.5783 83.0238 26.5299 83.2172 26.4329C83.4268 26.336 83.5235 26.1259 83.5235 25.8189C83.5235 25.5443 83.4429 25.3504 83.2817 25.2373C83.1205 25.1242 82.8464 25.0272 82.4434 24.9626L81.7986 24.8334C81.3955 24.7687 81.0731 24.591 80.8313 24.3325C80.5895 24.074 80.4605 23.7185 80.4605 23.2661C80.4605 22.7814 80.6217 22.3936 80.9603 22.1028C81.2827 21.812 81.8147 21.6504 82.5563 21.6504C82.7497 21.6504 82.9432 21.6665 83.1205 21.6827C83.2978 21.6989 83.4752 21.715 83.6203 21.7473C83.7653 21.7796 83.8943 21.7958 83.991 21.8281C84.0878 21.8604 84.1523 21.8766 84.1845 21.8766L84.0394 22.636C84.0072 22.636 83.9266 22.6198 83.8298 22.6037C83.7331 22.5875 83.6041 22.5714 83.459 22.5552C83.314 22.539 83.1527 22.5229 82.9915 22.5067C82.8303 22.4906 82.6691 22.4906 82.524 22.4906C82.3628 22.4906 82.2016 22.5067 82.0726 22.5229C81.9275 22.539 81.8147 22.5714 81.7018 22.636C81.589 22.6845 81.5084 22.7652 81.46 22.8622C81.3955 22.9591 81.3794 23.0884 81.3794 23.2338C81.3794 23.3631 81.3955 23.46 81.4278 23.5569C81.46 23.6377 81.5084 23.7185 81.5729 23.7831C81.6374 23.8478 81.7341 23.8962 81.863 23.9286C81.9759 23.9609 82.121 24.0093 82.2983 24.0255L82.9754 24.1709C83.5235 24.2679 83.9104 24.4617 84.12 24.7203C84.3296 24.9788 84.4263 25.3342 84.4263 25.7705C84.4263 26.3521 84.2329 26.7884 83.8298 27.0469C83.4268 27.3054 82.8948 27.4347 82.2016 27.4347C81.9598 27.4347 81.7341 27.4185 81.5245 27.4024C81.3149 27.3862 81.1215 27.37 80.9603 27.3377C80.7991 27.3054 80.654 27.2893 80.5572 27.2731C80.4444 27.2569 80.3799 27.2408 80.3477 27.2246L80.525 26.4329Z" fill="#333333"/>
<path d="M89.7307 27.1591C89.6984 27.1753 89.6339 27.1914 89.5211 27.2237C89.4244 27.2561 89.2793 27.2722 89.1181 27.3045C88.9568 27.3368 88.7634 27.353 88.5699 27.3692C88.3604 27.3853 88.1347 27.4015 87.909 27.4015C87.4898 27.4015 87.119 27.353 86.7966 27.2399C86.4903 27.143 86.2162 26.9814 86.0067 26.739C85.7971 26.5128 85.6359 26.222 85.5391 25.8504C85.4424 25.4949 85.3779 25.0425 85.3779 24.5093C85.3779 23.5076 85.5714 22.7805 85.9744 22.3119C86.3774 21.8434 86.9578 21.6172 87.7477 21.6172C88.5216 21.6172 89.0858 21.8272 89.4727 22.2312C89.8596 22.6351 90.0531 23.3137 90.0531 24.267V24.8648H86.3613C86.3774 25.2041 86.4258 25.4788 86.5064 25.6888C86.587 25.8988 86.6999 26.0604 86.845 26.1897C86.9901 26.3028 87.1835 26.3836 87.3931 26.432C87.6027 26.4805 87.8606 26.4967 88.1347 26.4967C88.312 26.4967 88.4893 26.4805 88.6667 26.4643C88.844 26.4482 89.0213 26.432 89.1664 26.3997C89.3276 26.3836 89.4566 26.3512 89.5694 26.3351C89.6823 26.3189 89.7468 26.3028 89.779 26.2866L89.7307 27.1591ZM87.7477 22.4412C87.5059 22.4412 87.3125 22.4735 87.1351 22.522C86.9739 22.5866 86.8288 22.6836 86.716 22.8128C86.6031 22.9421 86.5225 23.1198 86.4742 23.3298C86.4097 23.5399 86.3774 23.8146 86.3774 24.1216H89.0858C89.0858 23.7984 89.0536 23.5399 89.0052 23.3137C88.9568 23.1037 88.8762 22.9259 88.7634 22.7967C88.6505 22.6674 88.5216 22.5705 88.3442 22.522C88.1991 22.4735 87.9896 22.4412 87.7477 22.4412Z" fill="#333333"/>
</svg>
