<svg width="89" height="46" viewBox="0 0 89 46" fill="none" xmlns="http://www.w3.org/2000/svg">
<g clip-path="url(#clip0)">
<path d="M7.4866 34.489C7.4866 36.4333 6.31613 37.317 3.77643 37.317C1.17047 37.317 0 36.367 0 34.489V11.2238C0 9.14698 0.993797 8.26321 3.2464 8.26321C5.32233 8.26321 6.02903 8.72719 6.49281 10.5168C6.60323 10.8703 6.7799 11.0471 6.95658 11.0471C7.13325 11.0471 7.24367 10.9808 7.66328 10.5831C9.14293 9.16907 11.6164 8.28531 14.1561 8.28531C15.6799 8.28531 16.4529 9.10279 16.4529 10.7157C16.4529 14.4275 15.7462 15.7973 13.9132 15.7973C9.43003 15.7973 7.30993 18.2277 7.4866 23.1105V34.489ZM19.2355 2.96062C19.2355 0.950048 20.428 0 22.9677 0C25.5737 0 26.7442 0.950048 26.7442 2.96062V7.20269C26.7442 8.08646 27.0313 8.37368 27.9146 8.37368H29.9243C31.934 8.37368 32.8836 9.50048 32.8836 11.9087C32.8836 14.2728 31.934 15.3996 29.9243 15.3996H27.9146C27.0975 15.3996 26.7442 15.7531 26.7442 16.5706V25.4304C26.7442 29.4515 28.0472 31.3958 30.6973 31.3958C31.3377 31.3958 32.0003 31.3295 33.767 31.1528C33.9437 31.0865 34.1204 31.0865 34.3633 31.0865C35.6663 31.0865 36.2405 31.7272 36.2405 33.2738C36.2405 36.1681 33.7008 37.7589 29.2176 37.7589C22.6144 37.7589 19.2355 33.4505 19.2355 25.0106V2.96062ZM52.5829 12.4611C53.7755 9.03651 54.6588 8.21902 57.066 8.21902C59.3186 8.21902 60.4891 9.10279 60.4891 10.7599C60.4891 11.1796 60.4228 11.3564 60.202 12.0634L52.34 33.2517C51.1474 36.4995 50.2199 37.317 47.8568 37.317C45.4938 37.317 44.5442 36.4995 43.3737 33.2517L35.5338 12.0634C35.2908 11.4669 35.2467 11.1796 35.2467 10.7599C35.2467 9.10279 36.4392 8.21902 38.6697 8.21902C41.099 8.21902 41.9161 9.03651 43.0866 12.4611L47.0397 23.8617C47.2164 24.3257 47.4593 24.5687 47.8568 24.5687C48.2102 24.5687 48.4973 24.3257 48.6298 23.8617L52.5829 12.4611ZM69.0578 29.1201C68.3511 29.1201 68.064 29.4073 68.064 30.0039C68.064 35.8588 71.9067 39.4602 78.2229 39.4602C80.4755 39.4602 81.9993 39.1066 84.7819 37.9798C85.7315 37.6263 86.1291 37.5159 86.5487 37.5159C87.5425 37.5159 88.2712 38.3996 88.2712 39.7695C88.2712 43.3045 83.4348 46.0221 77.0082 46.0221C66.496 46.0221 60.5995 39.2834 60.5995 27.3084C60.5995 15.4438 66.2752 8.28531 75.639 8.28531C83.6556 8.28531 89.0442 14.317 89.0442 23.2872C89.0442 27.7723 87.8737 29.1422 83.9206 29.1422H69.0578V29.1201ZM80.8509 23.1547C81.5576 23.1547 81.8005 22.8674 81.8005 22.0942C81.8005 16.659 79.4375 13.7205 75.1973 13.7205C71.0013 13.7205 68.1745 17.2555 68.1745 22.3372C68.1745 22.8674 68.5278 23.1547 69.1241 23.1547H80.8509Z" fill="url(#paint0_linear)"/>
</g>
<defs>
<linearGradient id="paint0_linear" x1="16.9973" y1="52.7269" x2="71.3479" y2="-1.59962" gradientUnits="userSpaceOnUse">
<stop stop-color="#F5A717"/>
<stop offset="1" stop-color="#E6511F"/>
</linearGradient>
<clipPath id="clip0">
<rect width="89" height="46" fill="white"/>
</clipPath>
</defs>
</svg>
