<svg width="124" height="53" viewBox="0 0 124 53" fill="none" xmlns="http://www.w3.org/2000/svg">
<g clip-path="url(#clip0)">
<path d="M39.6629 23.1401C39.5441 25.5231 38.9069 27.7855 37.5935 29.4019C37.0254 29.2308 36.4348 29.1489 35.8423 29.159C34.8072 29.159 33.9315 29.3615 33.4938 29.5629V42.4914C31.1212 42.8676 28.7055 42.8676 26.333 42.4914V25.7254C27.5676 24.5532 30.5524 22.6147 35.1299 22.6147C37.0397 22.6147 38.6722 22.7757 39.6665 23.14L39.6629 23.1401ZM60.4791 23.5034V40.8355C59.3651 41.6029 55.6232 43.2185 50.7679 43.2185C43.7233 43.2185 41.1752 40.1078 41.1752 35.3007V23.504C43.5477 23.1278 45.9634 23.1278 48.3359 23.504V33.9678C48.3359 36.1087 49.0529 36.9975 51.0824 36.9975C52.0378 36.9975 52.7938 36.8365 53.3113 36.5126V23.5043C55.6838 23.1281 58.0995 23.1281 60.4721 23.5043L60.4791 23.5034ZM82.9667 23.5043V40.8364C81.8518 41.6037 78.1108 43.2193 73.2554 43.2193C66.2109 43.2193 63.6628 40.1087 63.6628 35.3016V23.5049C66.0353 23.1286 68.451 23.1286 70.8235 23.5049V33.9686C70.8235 36.1096 71.5405 36.9984 73.57 36.9984C74.5254 36.9984 75.2813 36.8373 75.7989 36.5135V23.5052C78.1714 23.1289 80.5871 23.1289 82.9597 23.5052L82.9667 23.5043ZM103.063 40.9576C101.551 42.1298 99.6405 43.14 96.5369 43.14C91.9595 43.14 88.4571 41.241 88.4571 36.5157V29.605H85.2747C84.9564 27.6247 84.9564 25.6052 85.2747 23.6248H88.459V18.617C89.6704 18.4251 90.8948 18.3303 92.1209 18.3337C93.2943 18.3242 94.4662 18.419 95.6233 18.617V23.6268H101.832C102.036 24.5688 102.143 25.53 102.15 26.4945C102.145 27.5395 102.039 28.5815 101.832 29.6052H95.6233V34.6554C95.6233 36.2719 96.3394 36.9987 97.932 36.9987C98.8874 36.9987 99.4838 36.5948 100.161 35.9867C101.43 36.7549 102.867 38.9768 103.061 40.955L103.063 40.9576ZM124.001 23.5054V40.8375C122.887 41.6049 119.146 43.2205 114.29 43.2205C107.245 43.2205 104.698 40.1098 104.698 35.3027V23.506C107.07 23.1298 109.486 23.1298 111.858 23.506V33.9698C111.858 36.1107 112.574 36.9995 114.605 36.9995C115.56 36.9995 116.316 36.8385 116.834 36.5146V23.5063C119.206 23.1301 121.622 23.1301 123.994 23.5063" fill="#02CCC6"/>
<path d="M22.8619 53.0006H8.90311C6.70185 52.9853 4.58284 52.1497 2.94868 50.6527C2.07488 49.8514 1.36537 48.883 0.860775 47.803C0.356181 46.723 0.0664172 45.5526 0.00806918 44.3588C-0.0502788 43.165 0.12394 41.9712 0.520746 40.8458C0.917552 39.7204 1.52916 38.6855 2.32054 37.8004L33.1898 3.00347C35.6661 0.224838 39.5646 -0.734578 43.0196 0.58419C46.4749 1.90301 48.7847 5.2318 48.8437 8.97813V9.94877H45.7175V8.99929C45.708 8.18939 45.5323 7.39037 45.2018 6.65316C44.8713 5.91595 44.3931 5.2567 43.7977 4.71741C41.3955 2.5151 37.691 2.69892 35.5121 5.12867L4.64475 39.9251C4.12753 40.5023 3.72776 41.1776 3.46845 41.9121C3.20914 42.6466 3.09538 43.4259 3.13371 44.2052C3.16905 44.9818 3.35635 45.7436 3.68471 46.4461C4.01307 47.1485 4.47592 47.7776 5.04626 48.2966C6.10874 49.271 7.48659 49.8158 8.91848 49.8276H22.8618L22.8619 53.0006Z" fill="#02CCC6"/>
</g>
<defs>
<clipPath id="clip0">
<rect width="124" height="53" fill="white"/>
</clipPath>
</defs>
</svg>
