<svg width="123" height="22" viewBox="0 0 123 22" fill="none" xmlns="http://www.w3.org/2000/svg">
<path d="M111.756 0C117.966 0 123 4.92525 123 11C123 17.0748 117.966 22 111.756 22C105.545 22 100.511 17.0748 100.511 11C100.511 4.92525 105.545 0 111.756 0ZM7.81642 0.00916667C10.0915 0.00916667 12.3301 0.590333 14.3281 1.69767L12.2016 5.93725C11.0591 4.99583 9.8728 4.52558 8.71569 4.52558C7.43467 4.52558 6.42789 5.30108 6.42789 6.325C6.42789 7.82833 8.52527 8.18125 10.1334 8.679C13.7004 9.7735 15.1727 11.4767 15.1755 14.4687C15.1755 19.0254 12.2654 21.9212 7.16589 21.9212C4.58917 21.9226 2.07908 21.0977 0 19.5662L2.2878 15.1883C3.83304 16.5999 5.44116 17.3333 6.9946 17.3333C8.54804 17.3333 9.55482 16.5211 9.55482 15.2735C9.55482 13.9352 8.18087 13.4768 6.37322 12.8645C3.23171 11.8003 0.841867 11.2264 0.841867 7.04642C0.841867 2.8655 3.62167 0.00916667 7.81642 0.00916667ZM30.0102 0.71225L31.1236 4.21025C33.586 3.32876 36.2753 3.32876 38.7377 4.21025L39.852 0.71225H45.3916L37.7373 21.2822H32.1249L24.4706 0.71225H30.0102ZM61.111 0.71225V16.6045H70.079V21.2758H55.6434V0.71225H61.111ZM92.6892 0.71225V5.38358H86.8562V21.2703H81.6811V5.3845H75.8136V0.711333H92.6873L92.6892 0.71225ZM113.9 5.63108C111.762 4.73552 109.297 5.23978 107.677 6.90433C106.045 8.58013 105.566 11.0744 106.46 13.2413C107.341 15.401 109.435 16.8086 111.756 16.8016C114.899 16.7924 117.439 14.1937 117.431 10.9972C117.431 8.646 116.037 6.52758 113.901 5.63108H113.9ZM37.3619 8.52867C35.8011 7.9012 34.0602 7.9012 32.4993 8.52867L34.932 16.1636L37.3619 8.52867Z" fill="black"/>
</svg>
