<svg width="115" height="64" viewBox="0 0 115 64" fill="none" xmlns="http://www.w3.org/2000/svg">
<path d="M74.553 27.5006C72.972 27.2 71.2852 26.3815 70.1091 25.3449L69.215 24.5566L71.6033 22.1499L72.2788 22.7428C73.4523 23.7731 74.9801 24.3726 76.447 24.377C77.9057 24.3814 78.7206 24.0266 79.1122 23.2161C79.6275 22.1497 78.8146 21.0946 76.9578 20.4198C72.6001 18.8356 71.6863 18.2792 70.9925 16.7889C69.8892 14.419 70.8558 11.8368 73.2394 10.7862C76.0542 9.5461 79.5425 9.97256 82.06 11.8647L83.2817 12.7822L82.1544 13.9196C81.5345 14.5451 80.9828 15.0571 80.9277 15.0571C80.873 15.0571 80.3996 14.735 79.8758 14.3417C77.8341 12.8076 75.2329 12.7676 74.6645 14.262C74.2724 15.2936 75.0374 15.9874 77.44 16.7801C81.4986 18.1191 82.9414 19.3503 83.34 21.814C83.596 23.3956 82.7051 25.4334 81.3478 26.3713C79.7009 27.5093 76.9761 27.9624 74.5549 27.5017L74.553 27.5006ZM89.8686 27.5698C88.1197 27.2611 86.6744 26.2727 86.0888 24.9832C85.6034 23.9148 85.6436 22.01 86.1758 20.8669C87.1732 18.7245 89.9778 17.3938 94.7873 16.7804L96.5755 16.5524L96.5333 15.8699C96.4778 14.9701 95.9917 14.1698 95.228 13.7212C94.7428 13.4362 94.3174 13.3612 93.2674 13.3758C91.7694 13.3965 91.0502 13.6488 89.8254 14.5835L89.0193 15.1989L86.7401 12.8829L87.4555 12.2563C89.3007 10.6399 92.2859 9.8066 94.8313 10.1963C97.5041 10.6056 99.2581 11.8609 100.101 13.9685C100.481 14.9203 100.503 15.2491 100.562 21.0909L100.624 27.2159H96.8435V25.5607L96.2623 26.0318C95.3321 26.7859 94.3873 27.2244 93.1136 27.4943C91.8172 27.7691 91.0999 27.7855 89.8686 27.5683V27.5698ZM94.3049 24.0713C95.8821 23.2856 96.6647 21.9599 96.6647 20.0742C96.6647 19.2206 96.6946 19.227 94.4608 19.6164C91.679 20.1015 90.361 20.8159 89.875 22.1016C89.5967 22.8379 89.9365 23.7568 90.6474 24.1902C91.5022 24.7113 93.1269 24.6585 94.3049 24.0714V24.0713ZM108.36 27.5805C106.59 27.2028 105.494 26.4209 104.746 25.0034L104.263 24.0878L104.159 8.37293L105.996 6.52961C107.006 5.51575 108.021 4.60328 108.022 4.67868C108.024 4.76759 108.108 6.01381 108.108 7.63662V10.5876H113.129L113.026 13.7173L108.108 13.8167V23.1316L108.631 23.6544C109.06 24.0841 109.303 24.1771 109.996 24.1771C110.544 24.1771 111.054 24.0436 111.457 23.794L112.077 23.4109L114.456 25.8068L113.92 26.2602C112.546 27.4211 110.21 27.9756 108.359 27.5808L108.36 27.5805Z" fill="#2D383E"/>
<path d="M64.0659 0H0.065918V64H64.0659V0Z" fill="#E40A22"/>
<path d="M29.2778 54.1143C29.0319 54.0704 28.3476 53.9508 27.7576 53.8485C23.1452 53.0488 18.7469 50.1777 15.7814 46.0291L15.1078 45.0862L18.2026 41.916C19.9046 40.1721 21.3532 38.7217 21.421 38.6925C21.4732 38.7534 21.7388 39.1336 22.2112 39.8312C24.2978 43.5622 28.0193 45.6647 32.0456 45.3891C36.9907 45.05 40.2199 41.5409 39.9664 36.7776C39.871 34.9596 39.2136 33.4673 37.8544 31.9827L36.9007 30.9409L43.2114 24.6303L43.8647 25.251C44.8798 26.2155 46.5388 28.3547 47.2263 29.5846C49.8851 34.3473 49.8066 40.49 47.0241 45.4516C45.8772 47.4958 43.025 50.3751 40.984 51.5493C37.9107 53.3166 35.487 54.013 32.043 54.1195C30.7643 54.1589 29.5172 54.1553 29.2714 54.1115L29.2778 54.1143ZM29.2309 30.8335C27.6829 29.2829 26.4162 27.9351 26.4162 27.8375C26.4162 27.6115 43.3604 10.6589 43.4808 10.7666C43.5283 10.8115 44.8628 12.1322 46.4463 13.7011L49.3257 16.5539L40.7776 25.102C36.077 29.8031 32.1914 33.6501 32.1407 33.6501C32.09 33.6501 30.7822 32.3815 29.2341 30.8316L29.2309 30.8335ZM19.6183 14.0667L15.5977 10.043H41.882L33.8408 18.0905H23.6389L19.6183 14.0667Z" fill="white"/>
</svg>
