<svg width="142" height="21" viewBox="0 0 142 21" fill="none" xmlns="http://www.w3.org/2000/svg">
<g clip-path="url(#clip0)">
<path d="M0 11.6018C1.03634 10.5627 1.92464 9.22669 2.59086 7.66806C3.3311 6.10943 3.6272 4.4766 3.6272 3.06641C2.59085 4.10549 1.70256 5.44145 1.03634 7.00008C0.296093 8.48449 0 10.1174 0 11.6018Z" fill="#010101"/>
<path d="M1.11035 13.7542C2.51682 12.4182 3.70121 10.6369 4.66353 8.48452C5.55182 6.33212 6.06999 4.17973 6.06999 2.25C4.66353 3.58597 3.47913 5.36726 2.51681 7.51966C1.55449 9.74627 1.11035 11.8987 1.11035 13.7542Z" fill="#010101"/>
<path d="M2.59082 16.9457C4.44143 15.1644 6.144 12.7151 7.40242 9.82053C8.66083 6.92593 9.32705 3.95709 9.32705 1.35938H9.25303C7.40242 3.14067 5.69985 5.58995 4.44143 8.48455C3.25704 11.3791 2.59082 14.2737 2.59082 16.9457Z" fill="#010101"/>
<path d="M4.66406 21.0278C7.1809 18.5786 9.47565 15.3129 11.1782 11.3792C12.8808 7.44548 13.695 3.5118 13.7691 0.0234375L13.695 0.0976625C11.1782 2.54694 8.88345 5.81264 7.18089 9.74633C5.55235 13.5316 4.73809 17.4652 4.66406 21.0278Z" fill="#010101"/>
<path d="M20.9445 8.86436H23.0817C23.0367 6.5185 21.2595 4.91699 18.3574 4.91699C15.9052 4.91699 13.9255 6.38316 13.9255 8.50346C13.9255 13.2629 21.2595 10.9621 21.2595 14.12C21.2595 15.3606 20.0222 15.9922 18.7173 15.9922C16.9401 15.9922 15.6803 15.135 15.5903 13.3756H13.4756C13.4756 16.6012 16.0852 17.7065 18.4924 17.7065C21.327 17.7065 23.3742 16.3756 23.3742 13.9621C23.3742 9.06737 16.0177 11.2328 16.0177 8.25534C16.0177 7.2403 16.9626 6.69895 18.2674 6.69895C20.2471 6.69895 20.8321 7.73654 20.9445 8.86436Z" fill="#010101"/>
<path d="M24.207 5.20996V17.413H30.1462C32.5084 17.413 34.2856 16.2626 34.2856 14.0295C34.2856 12.4731 33.7457 11.413 32.0134 10.8491C32.9808 10.443 33.7232 9.78891 33.7232 8.20996C33.7232 6.17989 32.3959 5.20996 30.1687 5.20996C30.1687 5.20996 24.207 5.20996 24.207 5.20996ZM26.3442 6.92425H29.8087C31.1586 6.92425 31.676 7.69116 31.676 8.63853C31.676 9.69868 30.9561 10.3528 29.9437 10.3528H26.3217L26.3442 6.92425ZM26.3442 11.8867H30.0787C31.5635 11.8867 32.2159 12.6987 32.2159 13.8039C32.2159 15.022 31.2485 15.7212 30.1462 15.7212H26.3217L26.3442 11.8867Z" fill="#010101"/>
<path d="M42.3166 8.86436H44.4538C44.4088 6.5185 42.6315 4.91699 39.7294 4.91699C37.2773 4.91699 35.2976 6.38316 35.2976 8.50346C35.2976 13.2629 42.6315 10.9621 42.6315 14.12C42.6315 15.3606 41.3942 15.9922 40.0894 15.9922C38.3121 15.9922 37.0523 15.135 36.9623 13.3756H34.8701C34.8701 16.6012 37.4798 17.7065 39.8869 17.7065C42.7215 17.7065 44.7687 16.3756 44.7687 13.9621C44.7687 9.06737 37.4123 11.2328 37.4123 8.25534C37.4123 7.2403 38.3571 6.69895 39.6619 6.69895C41.6192 6.69895 42.2266 7.73654 42.3166 8.86436Z" fill="#010101"/>
<path d="M81.5282 5.20996C83.3729 5.25507 84.7677 5.77387 85.6901 6.76635C86.635 7.75883 87.0849 9.27011 87.0849 11.2776C87.0849 13.2851 86.6125 14.7964 85.6901 15.7889C84.7452 16.7814 83.3729 17.3002 81.5282 17.3453H77.3438V5.20996H81.5282ZM80.9432 16.3979C81.8206 16.3979 82.563 16.3077 83.1929 16.1273C83.8228 15.9468 84.3403 15.631 84.7452 15.225C85.1502 14.819 85.4426 14.2776 85.6451 13.6461C85.8476 12.9919 85.9376 12.225 85.9376 11.3227C85.9376 10.4205 85.8476 9.63101 85.6451 8.99943C85.4426 8.3453 85.1502 7.8265 84.7452 7.42049C84.3403 7.01447 83.8228 6.72124 83.1929 6.51823C82.563 6.33778 81.8206 6.24755 80.9432 6.24755H78.4911V16.4205H80.9432V16.3979Z" fill="#FDB715"/>
<path d="M96.488 5.20996V6.20244H89.2665V10.6009H96.0155V11.5934H89.2665V16.3979H96.5779V17.3679H88.1191V5.20996H96.488Z" fill="#FDB715"/>
<path d="M99.5037 5.20996L103.531 15.8791L107.715 5.20996H109.425V17.3679H108.277V6.87913H108.232L104.071 17.3679H102.991L99.0087 6.85658H98.9637V17.3679H97.8164V5.20996H99.5037Z" fill="#FDB715"/>
<path d="M116.128 5.20996L120.875 17.3679H119.637L118.153 13.5784H112.641L111.179 17.3679H109.964L114.846 5.20996C114.823 5.20996 116.128 5.20996 116.128 5.20996ZM117.77 12.6085L115.431 6.38289L113.001 12.6085H117.77Z" fill="#FDB715"/>
<path d="M123.013 5.20996L130.077 15.4957H130.122V5.20996H131.269V17.3679H129.987L122.923 7.08214H122.878V17.3679H121.73V5.20996H123.013Z" fill="#FDB715"/>
<path d="M136.443 5.20996C138.288 5.25507 139.683 5.77387 140.605 6.76635C141.55 7.75883 142 9.27011 142 11.2776C142 13.2851 141.527 14.7964 140.605 15.7889C139.66 16.7814 138.288 17.3002 136.443 17.3453H132.259V5.20996H136.443ZM135.858 16.3979C136.736 16.3979 137.478 16.3077 138.108 16.1273C138.738 15.9468 139.255 15.631 139.66 15.225C140.065 14.819 140.358 14.2776 140.56 13.6461C140.763 12.9919 140.853 12.225 140.853 11.3227C140.853 10.4205 140.763 9.63101 140.56 8.99943C140.358 8.36786 140.065 7.8265 139.66 7.42049C139.255 7.01447 138.738 6.72124 138.108 6.51823C137.478 6.33778 136.736 6.24755 135.858 6.24755H133.406V16.4205H135.858V16.3979Z" fill="#FDB715"/>
<path d="M46.9287 7.05957V15.5633L52.8679 11.3453L46.9287 7.05957Z" fill="#FDB715"/>
<path d="M75.6795 17.3678H72.17L68.4355 10.8715V17.3678H64.791V5.23242H68.323L72.035 11.7287V5.23242H75.6795V17.3678Z" fill="#FDB715"/>
<path d="M57.4348 4.91699C54.9827 4.91699 52.823 6.31549 51.7656 8.39068L54.6902 10.511C55.0052 9.31549 56.1075 8.45835 57.4123 8.45835C58.9421 8.45835 60.2469 9.69895 60.2469 11.3005C60.2469 12.8343 58.9646 14.1426 57.4123 14.1426C56.13 14.1426 55.0727 13.308 54.7127 12.1576L51.7881 14.2328C52.8455 16.2629 54.9602 17.6388 57.4123 17.6388C60.8993 17.6388 63.7564 14.7967 63.7564 11.2779C63.7789 7.80421 60.8993 4.91699 57.4348 4.91699Z" fill="#FDB715"/>
</g>
<defs>
<clipPath id="clip0">
<rect width="142" height="21" fill="white"/>
</clipPath>
</defs>
</svg>
