<svg width="105" height="44" viewBox="0 0 105 44" fill="none" xmlns="http://www.w3.org/2000/svg">
<path d="M64.119 21.2196L58.4072 15.9828C58.2062 15.805 58.0451 15.5866 57.9346 15.342C57.824 15.0974 57.7666 14.8322 57.766 14.5638C57.7815 14.0247 58.0103 13.5137 58.4021 13.143C58.7939 12.7724 59.3168 12.5723 59.8559 12.5866H66.1733V9.85547H56.5132C53.5445 9.85547 51.0271 11.8742 51.0271 15.0328C51.0307 16.3426 51.5489 17.5986 52.4699 18.5299L59.1969 24.877C59.5218 25.1237 59.7659 25.4615 59.8981 25.8475C60.0302 26.2334 60.0445 26.65 59.9391 27.0441C59.5413 28.3919 57.8254 28.3919 57.1841 28.3919H51.0271V33.9314H60.3665C64.1427 33.9314 67.2064 31.0399 67.2064 27.4775V27.43C67.3132 24.7641 65.8764 22.8523 64.119 21.2196Z" fill="#005293"/>
<path d="M101.821 21.2196L96.1153 15.9828C95.9123 15.8063 95.7495 15.5883 95.6378 15.3435C95.5262 15.0987 95.4683 14.8328 95.4681 14.5638C95.4758 14.2963 95.5362 14.033 95.6457 13.7888C95.7552 13.5447 95.9117 13.3245 96.1064 13.1409C96.301 12.9573 96.5299 12.8138 96.78 12.7187C97.0302 12.6236 97.2966 12.5787 97.564 12.5866H103.875V9.85547H94.2213C91.2526 9.85547 88.7352 11.8742 88.7352 15.0328C88.7388 16.3426 89.257 17.5986 90.178 18.5299L96.8991 24.877C97.224 25.1237 97.4681 25.4615 97.6002 25.8475C97.7324 26.2334 97.7467 26.65 97.6412 27.0441C97.2494 28.3978 95.5335 28.3978 94.8863 28.3978H88.7352V33.9314H98.0746C101.851 33.9314 104.914 31.0459 104.914 27.4775V27.43C105.015 24.7641 103.585 22.8523 101.821 21.2196Z" fill="#005293"/>
<path d="M87.429 26.944C87.4508 25.4501 86.9941 23.9884 86.1255 22.7727C85.257 21.5569 84.0223 20.651 82.602 20.1873C83.7161 19.9071 84.6972 19.2464 85.3759 18.3195C86.0546 17.3925 86.3881 16.2576 86.3187 15.1109C86.3223 14.3209 86.1366 13.5416 85.7771 12.8381C85.4176 12.1346 84.8948 11.5275 84.2525 11.0676C82.4357 9.82073 79.7223 9.91572 79.7223 9.91572H69.0351V33.962H80.3755C82.0461 33.8959 83.6545 33.3107 84.9769 32.2877C85.7423 31.6227 86.357 30.8021 86.7799 29.8806C87.2027 28.9591 87.424 27.9579 87.429 26.944ZM74.8122 12.6291H77.3652C77.7571 12.6291 80.4289 12.6291 80.6545 15.2356C80.8089 17.0999 79.5442 18.2636 77.4899 18.2636H74.8122V12.6291ZM77.8818 28.3987H74.8122V21.9685H77.7808C78.1668 21.9685 81.1532 21.9685 81.3729 24.9372C81.5154 27.0747 79.9361 28.3987 77.8818 28.3987Z" fill="#005293"/>
<path d="M44.2111 25.1209C44.7454 19.8723 44.6089 18.667 41.8717 14.9621C41.183 14.03 40.6486 13.1809 41.5867 13.4362C42.5248 13.6915 41.8124 11.7144 42.6199 12.2013C41.3493 6.36484 34.3432 2.89743 28.9996 0.96185L25.2115 0.136559C24.505 0.136559 23.5253 0 22.8366 0C18.348 0.593735 14.1265 0.593735 10.3682 3.23585C9.24602 4.07302 8.13573 5.61079 6.87108 6.69733C6.17047 7.39794 5.89141 7.95011 5.19081 8.65072C2.34088 12.13 1.08216 16.0308 0.666549 20.3295C0.547802 28.9505 3.46898 35.6241 11.6031 40.083C12.4759 40.564 18.3955 43.3605 21.5126 43.7523C25.1997 44.2154 30.1514 42.7964 31.5526 42.1017C32.6748 41.2646 33.8682 41.3358 34.7054 40.3621C35.406 39.6615 37.0447 38.5809 37.4662 37.7556C39.4256 34.5554 44.781 28.8674 44.2111 25.1209Z" fill="#0086CE"/>
<path d="M36.0828 23.3408C36.4034 20.194 36.3262 19.4696 34.6816 17.2491C34.266 16.685 33.9454 16.1803 34.5153 16.3347C35.0853 16.4891 35.1922 15.7944 35.1091 15.5925C34.3432 12.0895 30.1395 10.0114 26.9333 8.84771L24.6593 8.34897C24.2378 8.34897 23.65 8.26585 23.2284 8.27179C20.5329 8.61022 17.9976 8.62209 15.7236 10.2133C15.0527 10.712 14.3818 11.6205 13.6277 12.2914C13.2062 12.707 13.034 13.0395 12.6184 13.4788C11.036 15.4914 10.1003 17.9361 9.93472 20.4908C9.86347 25.6563 11.615 29.6641 16.4658 32.3655C16.9942 32.6505 20.5448 34.3308 22.4032 34.5624C24.4608 34.6961 26.5218 34.359 28.4296 33.5768C29.1064 33.0721 29.8189 33.1137 30.3236 32.5259C30.7451 32.1043 31.7248 31.4631 31.9801 30.9643C33.2151 29.005 36.4272 25.591 36.0828 23.3408Z" fill="#F6AC00"/>
<path d="M13.9662 17.6333C15.1175 15.3703 17.115 13.6527 19.525 12.8535C21.9349 12.0542 24.5629 12.2378 26.8384 13.3644C27.9662 13.9113 28.9741 14.6771 29.8032 15.6172C30.6323 16.5573 31.2662 17.653 31.6679 18.8403C32.0696 20.0277 32.2311 21.2832 32.143 22.5336C32.0549 23.784 31.719 25.0044 31.1548 26.1237C30.0022 28.3855 28.0051 30.1024 25.5959 30.9025C23.1867 31.7026 20.5593 31.5215 18.2826 30.3986C17.1546 29.8511 16.1466 29.0847 15.3174 28.144C14.4882 27.2034 13.8544 26.1072 13.4527 24.9194C13.051 23.7315 12.8896 22.4756 12.9777 21.2248C13.0659 19.9739 13.4019 18.7531 13.9662 17.6333Z" fill="white"/>
</svg>
