<svg width="125" height="60" viewBox="0 0 125 60" fill="none" xmlns="http://www.w3.org/2000/svg">
<path d="M103.147 16.7431H107.59V14.3523C107.59 12.7287 107.094 10.8999 105.707 9.39906C104.404 8.01816 102.477 7.31836 100.547 7.31836C98.0039 7.31836 96.3601 8.32863 95.3268 9.33574C93.9986 10.7125 93.2314 12.282 93.2314 14.7075V31.961C93.2314 34.2463 93.9269 35.78 95.2215 37.1708C96.7044 38.5923 98.3698 39.145 100.659 39.145C103.084 39.145 104.614 37.9945 105.62 37.0421C106.811 35.8312 107.59 34.2389 107.59 31.961V30.0834H103.147V32.0099C103.147 33.5133 102.215 34.683 100.46 34.683C99.666 34.683 98.9675 34.4973 98.4242 33.9042C97.9049 33.3371 97.6661 32.2758 97.6661 31.758V15.0627C97.6661 13.939 98.1589 12.7687 98.5518 12.4208C99.0363 11.9887 99.5785 11.7953 100.479 11.7953C102.176 11.7953 103.147 13.216 103.147 14.9105V16.7431Z" fill="#529EE9"/>
<path fill-rule="evenodd" clip-rule="evenodd" d="M58.1848 38.9362H71.4297V34.4723H63.0105V25.4371H69.6843V20.9194H63.0105V12.2948H71.4297V7.6543H58.1848L56.234 9.728V37.2445L58.1848 38.9362Z" fill="#529EE9"/>
<path fill-rule="evenodd" clip-rule="evenodd" d="M74.5099 38.9364V7.6543H80.5677L85.656 26.7014V7.6543H90.0136V38.9902H84.9826L78.88 16.1838V38.8209L74.5099 38.9364Z" fill="#529EE9"/>
<path fill-rule="evenodd" clip-rule="evenodd" d="M110.548 38.9362H123.793V34.4723H115.374V25.4371H122.048V20.9194H115.374V12.2948H123.793V7.6543H110.548V38.9362Z" fill="#529EE9"/>
<path d="M0.892944 58.8055V14.8598L14.2391 1.51367H58.1848V45.7132L45.0924 58.8055H0.892944Z" fill="#529EE9"/>
<path d="M15.5077 30.0843H19.9226V30.9353C19.9226 31.427 19.731 34.6826 23.1641 34.6826C24.3105 34.6826 24.985 34.425 25.5554 33.8902C26.033 33.4338 26.4172 32.8167 26.4172 29.9296C26.4172 28.0193 26.326 27.0092 25.6061 26.2593C25.253 25.8951 24.3691 25.4593 22.9673 24.9083L20.0494 23.6943C19.0876 23.2414 18.2604 22.697 17.5235 21.9395C16.4173 20.764 15.7388 18.8209 15.7388 15.9521C15.7388 13.449 16.4299 10.9057 18.1392 9.28531C19.4144 8.11362 20.9727 7.31836 23.4353 7.31836C25.9752 7.31836 27.6737 8.38374 28.8459 9.53012C30.2027 11.0823 30.7064 12.5426 30.7064 14.2651V16.7382H26.2658V15.4188C26.2658 13.9931 25.8342 11.7952 23.2271 11.7952C21.2735 11.7952 20.206 13.0246 20.206 15.9119C20.206 17.2458 20.2748 18.0026 20.6963 18.652C21.1179 19.3013 21.9359 19.6251 22.5824 19.9622L26.2211 21.3893C27.4476 21.8922 28.3279 22.3951 29.0568 23.1322C30.3257 24.4296 30.8917 26.223 30.8917 29.8821C30.8917 33.0238 30.292 35.5817 28.5493 37.2902C27.3082 38.4302 25.7237 39.1445 23.2229 39.1445C20.6763 39.1445 18.9521 38.233 17.5883 36.8842C16.2244 35.5355 15.5077 33.7081 15.5077 31.8604V30.0843Z" fill="white"/>
<path d="M54.3789 7.6543H49.964V38.9364H54.3789V7.6543Z" fill="white"/>
<path d="M42.9611 16.7431H47.4042V14.3523C47.4042 12.7287 46.9082 10.8999 45.5216 9.39906C44.2189 8.01817 42.2915 7.31836 40.3612 7.31836C37.8184 7.31836 36.1746 8.32863 35.1413 9.33574C33.8131 10.7125 33.0459 12.282 33.0459 14.7075V31.961C33.0459 34.2463 33.7414 35.7799 35.036 37.1708C36.5189 38.5922 38.1843 39.145 40.4739 39.145C42.8987 39.145 44.4282 37.9945 45.4345 37.042C46.6251 35.8312 47.4042 34.2389 47.4042 31.961V30.0834H42.9611V32.0099C42.9611 33.5133 42.029 34.683 40.2741 34.683C39.4805 34.683 38.782 34.4973 38.2387 33.9042C37.7194 33.3371 37.4806 32.2758 37.4806 31.758V15.0627C37.4806 13.939 37.9735 12.7687 38.3663 12.4208C38.8508 11.9887 39.393 11.7953 40.2939 11.7953C41.9902 11.7953 42.9611 13.216 42.9611 14.9105V16.7431Z" fill="white"/>
</svg>
