<svg width="120" height="47" viewBox="0 0 120 47" fill="none" xmlns="http://www.w3.org/2000/svg">
<path d="M113.702 15.5682L77.0305 15.5655C75.7929 7.23256 68.629 0.819897 59.9426 0.819897C51.2602 0.819897 44.095 7.23256 42.8614 15.5655L6.18609 15.5682C3.07248 15.5682 0.536713 18.1094 0.536713 21.227V41.3412C0.536713 44.4575 3.07248 47 6.18609 47H113.702C116.819 47 119.357 44.4575 119.357 41.3412V21.227C119.357 18.1094 116.819 15.5682 113.702 15.5682Z" fill="#FCD000"/>
<path d="M113.365 19.1171H6.52362C5.18518 19.1171 4.09534 20.2096 4.09534 21.5507V41.0199C4.09534 42.3596 5.18518 43.4414 6.52362 43.4414H113.365C114.702 43.4414 115.796 42.3596 115.796 41.0199V21.5507C115.796 20.2096 114.702 19.1171 113.365 19.1171Z" fill="#00AF42"/>
<path d="M11.871 39.8086C9.50725 39.8086 8.44564 38.1584 8.21048 35.3498L10.7368 34.901C10.9209 36.9086 11.2811 37.4018 11.871 37.4018C12.5322 37.4018 12.813 36.9745 12.813 35.9142C12.813 34.3312 12.3212 33.5935 10.8309 31.9433C9.15383 30.2447 8.32604 28.6872 8.32604 26.7951C8.32604 24.4784 9.46156 22.7529 11.7272 22.7529C14.0426 22.7529 14.9618 24.3171 15.2682 26.7508L12.7915 27.2681C12.6007 25.6448 12.3212 25.1476 11.7272 25.1476C11.1615 25.1476 10.8766 25.5494 10.8766 26.5828C10.8766 27.7438 11.2811 28.4292 12.5806 29.8254C14.4901 31.7578 15.3918 33.4107 15.3918 35.6777C15.3918 38.114 14.1165 39.8086 11.871 39.8086Z" fill="white"/>
<path d="M16.8291 39.5547V23.0164H23.0147V25.4796H19.4724V29.6091H22.1896V32.0656H19.4724V37.0955H23.2297V39.5547H16.8291Z" fill="white"/>
<path d="M27.7878 39.8086C25.4267 39.8086 24.3638 38.1584 24.1219 35.3498L26.6536 34.901C26.8498 36.9086 27.1992 37.4018 27.7878 37.4018C28.4503 37.4018 28.7298 36.9745 28.7298 35.9142C28.7298 34.3312 28.238 33.5935 26.749 31.9433C25.0679 30.2447 24.2442 28.6872 24.2442 26.7951C24.2442 24.4784 25.3784 22.7529 27.6427 22.7529C29.9608 22.7529 30.8813 24.3171 31.189 26.7508L28.7097 27.2681C28.5175 25.6448 28.238 25.1476 27.6427 25.1476C27.0769 25.1476 26.7974 25.5494 26.7974 26.5828C26.7974 27.7438 27.1992 28.4292 28.496 29.8254C30.4109 31.7578 31.3059 33.4107 31.3059 35.6777C31.3059 38.114 30.0253 39.8086 27.7878 39.8086Z" fill="white"/>
<path d="M40.068 39.5547L37.4489 23.0164H34.6148L31.9944 39.5547H34.6148L35.0422 35.917H36.9746L37.4274 39.5547H40.068ZM36.7179 33.5371H35.2504L35.6052 30.531C35.7477 29.3498 35.9116 27.9831 35.96 26.6823C36.0312 27.9831 36.1965 29.3269 36.3362 30.5081L36.7179 33.5371Z" fill="white"/>
<path d="M48.2883 39.5536V35.2319C48.2883 33.2269 48.3568 31.3106 48.4066 29.608C48.1687 30.9129 47.654 33.3693 47.2267 35.041L46.0455 40.0508L44.8858 35.041C44.484 33.4392 43.9693 30.8604 43.7341 29.608C43.757 31.1722 43.8484 33.2968 43.8484 35.2319V39.5536H41.4859V23.0153H44.0849L45.1693 28.0492C45.5241 29.5449 45.9017 31.4504 46.0455 32.7955C46.1852 31.4504 46.5857 29.5193 46.9405 28.0304L48.0531 23.0153H50.6494V39.5536H48.2883Z" fill="white"/>
<path d="M52.7965 39.5547V23.0164H58.9874V25.4796H55.4465V29.6091H58.161V32.0656H55.4465V37.0955H59.1957V39.5547H52.7965Z" fill="white"/>
<path d="M68.1734 39.8086C65.811 39.8086 64.748 38.1584 64.5128 35.3498L67.0392 34.901C67.2273 36.9086 67.5861 37.4018 68.1734 37.4018C68.8359 37.4018 69.1167 36.9745 69.1167 35.9142C69.1167 34.3312 68.6249 33.5935 67.136 31.9433C65.4562 30.2447 64.6271 28.6872 64.6271 26.7951C64.6271 24.4784 65.7653 22.7529 68.0377 22.7529C70.3463 22.7529 71.2668 24.3171 71.5719 26.7508L69.0952 27.2681C68.9017 25.6448 68.6249 25.1476 68.0377 25.1476C67.4639 25.1476 67.1843 25.5494 67.1843 26.5828C67.1843 27.7438 67.5861 28.4292 68.8883 29.8254C70.7965 31.7578 71.6928 33.4107 71.6928 35.6777C71.6928 38.114 70.4216 39.8086 68.1734 39.8086Z" fill="white"/>
<path d="M77.0063 25.4796V39.5547H74.3617V25.4796H72.1417V23.0164H79.2518V25.4796H77.0063Z" fill="white"/>
<path d="M87.8921 39.5547L86.262 31.5268C87.1866 30.789 87.7295 29.4909 87.7295 27.5827C87.7295 24.1304 86.0551 23.0164 84.0017 23.0164H80.5508V39.5547H83.1699V32.2806H83.8324L85.2031 39.5547H87.8921ZM85.058 27.6955C85.058 29.4465 84.6091 30.1077 83.7128 30.1077H83.1699V25.2646H83.784C84.7086 25.2646 85.058 25.8814 85.058 27.6955Z" fill="white"/>
<path d="M89.6396 39.5547V23.0164H95.8305V25.4796H92.2828V29.6091H95V32.0656H92.2828V37.0955H96.0401V39.5547H89.6396Z" fill="white"/>
<path d="M97.7428 39.5547V23.0164H103.928V25.4796H100.387V29.6091H103.101V32.0656H100.387V37.0955H104.139V39.5547H97.7428Z" fill="white"/>
<path d="M109.81 25.4796V39.5547H107.168V25.4796H104.944V23.0164H112.056V25.4796H109.81Z" fill="white"/>
<path d="M113.689 40.7138C113.689 40.8415 113.611 40.91 113.479 40.91H113.119V40.527H113.479C113.604 40.527 113.689 40.5821 113.689 40.7138ZM114.01 40.7071C114.01 40.3886 113.781 40.2354 113.496 40.2354H112.803V41.7338H113.119V41.1868H113.378L113.643 41.7338H113.999L113.707 41.1452C113.871 41.0807 114.01 40.9664 114.01 40.7071ZM114.723 41.0148C114.723 40.2341 114.135 39.6374 113.357 39.6374C112.581 39.6374 111.989 40.2341 111.989 41.0148C111.989 41.7862 112.581 42.3828 113.357 42.3828C114.135 42.3828 114.723 41.7862 114.723 41.0148ZM114.481 41.0148C114.481 41.6491 113.998 42.1342 113.357 42.1342C112.72 42.1342 112.232 41.6491 112.232 41.0148C112.232 40.3711 112.72 39.8847 113.357 39.8847C113.998 39.8847 114.481 40.3711 114.481 41.0148Z" fill="white"/>
<path d="M72.7313 14.5384C71.6535 8.84197 66.0431 4.37782 59.9422 4.37782C53.8453 4.37782 48.2201 8.84197 47.1505 14.5384C47.1424 15.3877 47.8035 15.5664 48.0535 15.5664H71.8094C72.0647 15.5664 72.7366 15.3877 72.7366 14.5747V14.5518L72.7313 14.5384Z" fill="#00AF42"/>
<path d="M54.805 13.4258V9.24518H54.0444V8.61897C54.6008 8.55715 54.8386 8.22388 54.9528 7.81133H55.8102V13.4258H54.805Z" fill="white"/>
<path d="M54.805 13.4258V9.24518H54.0444V8.61897C54.6008 8.55715 54.8386 8.22388 54.9528 7.81133H55.8102V13.4258H54.805Z" stroke="white" stroke-width="0.2"/>
<path d="M57.756 13.4258C57.8165 11.7097 58.35 10.9948 59.4156 10.2342C59.8013 9.95203 59.9451 9.7182 59.9451 9.37688C59.9451 8.93342 59.7153 8.72647 59.3028 8.72647C58.9493 8.72647 58.6698 8.92267 58.4011 9.22906L57.7789 8.49668C58.1525 8.02634 58.655 7.71861 59.3404 7.71861C60.3093 7.71861 60.9624 8.25748 60.9624 9.23712C60.9624 10.0165 60.5753 10.4936 60.0378 10.8994C59.2772 11.4665 58.9332 11.8468 58.8942 12.4421H60.9785V13.4258H57.756Z" fill="white"/>
<path d="M57.756 13.4258C57.8165 11.7097 58.35 10.9948 59.4156 10.2342C59.8013 9.95203 59.9451 9.7182 59.9451 9.37688C59.9451 8.93342 59.7153 8.72647 59.3028 8.72647C58.9493 8.72647 58.6698 8.92267 58.4011 9.22906L57.7789 8.49668C58.1525 8.02634 58.655 7.71861 59.3404 7.71861C60.3093 7.71861 60.9624 8.25748 60.9624 9.23712C60.9624 10.0165 60.5753 10.4936 60.0378 10.8994C59.2772 11.4665 58.9332 11.8468 58.8942 12.4421H60.9785V13.4258H57.756Z" stroke="white" stroke-width="0.2"/>
<path d="M64.0216 13.5156C63.2637 13.5156 62.7356 13.1958 62.2935 12.4903L63.0877 11.9272C63.3927 12.3626 63.6736 12.5306 64.0498 12.5306C64.5363 12.5306 64.8024 12.2202 64.8024 11.7673C64.8024 11.1949 64.4288 10.9584 63.9114 10.9584H63.5231V9.98274H63.9195C64.3818 9.98274 64.6478 9.77714 64.6478 9.374C64.6478 9.00713 64.4731 8.71822 63.9867 8.71822C63.6843 8.71822 63.468 8.84319 63.175 9.13345L62.4977 8.45214C62.9049 7.99659 63.2987 7.71976 64.0498 7.71976C65.0281 7.71976 65.6584 8.32582 65.6584 9.25305C65.6584 9.88599 65.3332 10.2448 64.8682 10.4168C65.3614 10.5552 65.8237 10.9584 65.8237 11.7418C65.8237 12.8424 65.1491 13.5156 64.0216 13.5156Z" fill="white"/>
<path d="M64.0216 13.5156C63.2637 13.5156 62.7356 13.1958 62.2935 12.4903L63.0877 11.9272C63.3927 12.3626 63.6736 12.5306 64.0498 12.5306C64.5363 12.5306 64.8024 12.2202 64.8024 11.7673C64.8024 11.1949 64.4288 10.9584 63.9114 10.9584H63.5231V9.98274H63.9195C64.3818 9.98274 64.6478 9.77714 64.6478 9.374C64.6478 9.00713 64.4731 8.71822 63.9867 8.71822C63.6843 8.71822 63.468 8.84319 63.175 9.13345L62.4977 8.45214C62.9049 7.99659 63.2987 7.71976 64.0498 7.71976C65.0281 7.71976 65.6584 8.32582 65.6584 9.25305C65.6584 9.88599 65.3332 10.2448 64.8682 10.4168C65.3614 10.5552 65.8237 10.9584 65.8237 11.7418C65.8237 12.8424 65.1491 13.5156 64.0216 13.5156Z" stroke="white" stroke-width="0.2"/>
</svg>
