<svg width="44" height="62" viewBox="0 0 44 62" fill="none" xmlns="http://www.w3.org/2000/svg">
<path d="M0.0214844 61.7324V60.3911H0.967693V53.6844H0.0214844V52.3431H2.75751V60.3911H3.66952V61.7324H0.0214844Z" fill="#20303A"/>
<path d="M7.19326 54.6846C5.17881 54.6846 4.53946 55.7441 4.4038 56.9272H6.17794C6.24982 56.1813 6.65249 55.8862 7.20395 55.8862C7.95186 55.8862 8.18158 56.6985 8.18364 57.0913L8.18721 57.5664C8.18721 57.5664 7.82671 57.5454 7.56376 57.5454C5.50731 57.5454 4.11523 58.3258 4.11523 59.8194C4.11523 61.297 5.11242 61.9746 6.324 61.9746C7.81989 61.9746 8.34396 60.8533 8.34396 60.8533V61.7336H10.738V60.3923H9.82597V56.9586C9.82597 55.6446 9.1046 54.6846 7.19326 54.6846H7.19326ZM7.63145 58.5095C7.7999 58.51 7.98248 58.5236 8.17652 58.5479V59.0859C8.17789 60.0396 7.72865 60.6193 6.96526 60.6193C6.34094 60.6193 5.8965 60.1702 5.8965 59.6587C5.8965 59.0519 6.45229 58.5058 7.63145 58.5095Z" fill="#20303A"/>
<path d="M11.7979 61.7318V58.4009H13.2691C13.2691 59.504 14.0733 60.4886 15.1863 60.4886C16.0625 60.4886 16.5455 59.9356 16.5455 59.2813C16.5455 57.2252 11.8543 58.0935 11.8543 54.8503C11.8543 53.3991 12.8499 52.2375 14.7285 52.2375C16.2292 52.2375 16.7227 53.2926 16.7227 53.2926V52.3984H18.1477L18.1477 55.5617H16.6368C16.6368 54.7427 16.0888 53.6297 14.9128 53.6297C14.2034 53.6297 13.6446 54.0255 13.6446 54.6323C13.6446 56.6044 18.3524 55.6845 18.3524 59.1242C18.3524 60.7631 17.1274 61.8555 15.3572 61.8555C13.8895 61.8555 13.2457 60.8581 13.2457 60.8581V61.7318H11.7979Z" fill="#20303A"/>
<path d="M40.4325 54.6846C38.4181 54.6846 37.7787 55.7441 37.6431 56.9272H39.4172C39.4891 56.1813 39.8918 55.8862 40.4432 55.8862C41.1911 55.8862 41.4208 56.6985 41.4229 57.0913L41.4265 57.5664C41.4265 57.5664 41.066 57.5454 40.803 57.5454C38.7466 57.5454 37.3545 58.3258 37.3545 59.8194C37.3545 61.297 38.3517 61.9746 39.5633 61.9746C41.0591 61.9746 41.5832 60.8533 41.5832 60.8533V61.7336H43.9772V60.3923H43.0652V56.9586C43.0652 55.6446 42.3439 54.6846 40.4325 54.6846ZM40.8707 58.5095C41.0392 58.5101 41.2217 58.5236 41.4158 58.5479V59.0859C41.4172 60.0396 40.9679 60.6193 40.2045 60.6193C39.5802 60.6193 39.1358 60.1702 39.1358 59.6587C39.1358 59.0519 39.6916 58.5058 40.8707 58.5095Z" fill="#20303A"/>
<path d="M22.0242 54.6886C20.2202 54.6886 18.8535 55.8793 18.8535 58.3842C18.8535 60.6966 20.0005 61.9785 22.1097 61.9785C23.7821 61.9785 25.1363 60.8586 25.177 59.5194H23.3922C23.3191 60.1885 22.843 60.7001 22.0527 60.7001C20.9171 60.7001 20.6312 59.5972 20.6312 58.5484H25.2162V58.0419C25.2162 55.8147 23.8829 54.6886 22.0242 54.6886ZM22.0883 55.9181C22.7499 55.9181 23.4135 56.5581 23.41 57.4306H20.6811C20.6811 56.6143 21.3762 55.9181 22.0883 55.9181Z" fill="#20303A"/>
<path d="M25.6719 61.7324V60.3911H26.2332L27.7239 58.1546L26.3559 56.1994H25.8429V54.8581H28.7499V56.1994H28.1799L29.0919 57.5408L30.0039 56.1994H29.4339V54.8581H32.1471V56.1994H31.5999L30.2319 58.1634L31.7823 60.3911H32.3409V61.7324H29.3199V60.3911H29.8899L28.8639 58.8204L27.8685 60.3911H28.5219V61.7324H25.6719Z" fill="#20303A"/>
<path d="M33.7655 56.2007H32.8535V54.8594H33.8225V53.2679L35.5325 52.8474V54.8594H36.9005V56.2007H35.5325V59.6658C35.5325 60.3357 35.9106 60.604 36.7979 60.4016V61.6778C36.7979 61.6778 36.2301 61.7617 35.6728 61.7617C34.4131 61.7617 33.7632 61.3778 33.7632 60.1374L33.7655 56.2007Z" fill="#20303A"/>
<path d="M28.6532 31.3548L25.2935 25.9156H11.0732V12.892L18.7303 0.0217018H34.2006L26.4369 12.892H32.9505L43.9673 31.3548L33.7318 36.9473L28.6532 31.3548Z" fill="#44DD3A"/>
<path d="M11.0732 49.8164V36.9461H25.2935L28.6532 31.3536H43.9673L32.9505 49.8164H11.0732Z" fill="#3BB33B"/>
<path d="M11.0733 49.8164L0.0751953 31.358L11.0733 12.8909L18.7303 25.9144L15.4067 31.358L18.7303 36.9461L11.0733 49.8164Z" fill="#338A3B"/>
</svg>
