<svg width="132" height="60" viewBox="0 0 132 60" fill="none" xmlns="http://www.w3.org/2000/svg">
<g clip-path="url(#clip0)">
<path d="M21.551 13.058C21.7755 11.8197 22 10.8066 22.2245 9.90602L17.0612 9.79345C11.2245 9.68088 7.63262 10.694 6.95915 14.0711C6.39792 16.3225 7.07139 18.2362 10.102 22.0636L17.8469 31.2944L18.1836 29.6058C17.9592 29.4933 17.8469 29.3807 17.6224 29.3807C16.7245 28.8178 16.2755 27.8047 16.2755 26.2287C16.2755 24.7653 16.8367 23.7522 17.8469 22.9642C18.5204 22.4013 19.3061 22.1762 20.0918 21.951C19.9796 21.951 19.8673 21.951 19.7551 22.0636L21.551 13.058Z" fill="#D51F53"/>
<path d="M62.2965 39.6243L28.623 48.2922C33.6741 55.159 36.1435 57.1853 46.6945 50.6562L64.7659 39.5117L62.2965 39.6243Z" fill="#D51F53"/>
<path d="M99.0005 9.4562L79.6943 10.6945L105.96 16.9984C108.317 14.4093 106.633 8.78077 99.0005 9.4562Z" fill="#D51F53"/>
<path d="M10.7755 28.3681C9.54084 27.4675 7.85717 27.6927 6.84697 28.9309C5.94901 30.1692 6.1735 31.8578 7.40819 32.8709C8.64288 33.7715 10.3266 33.5463 11.3368 32.308C12.347 30.9572 12.0102 29.2686 10.7755 28.3681Z" fill="#FDB913"/>
<path d="M17.5107 6.41724C18.5209 6.41724 19.4189 5.51667 19.4189 4.50354C19.4189 3.49041 18.5209 2.58984 17.5107 2.58984C16.5005 2.58984 15.6025 3.49041 15.6025 4.50354C15.6025 5.51667 16.3883 6.41724 17.5107 6.41724Z" fill="#8DC63F"/>
<path d="M63.7559 4.95381C64.7661 4.95381 65.5518 4.16582 65.5518 3.15269C65.5518 2.13955 64.7661 1.35156 63.7559 1.35156C62.7457 1.35156 61.96 2.13955 61.96 3.15269C61.96 4.16582 62.7457 4.95381 63.7559 4.95381Z" fill="#D51F53"/>
<path d="M2.80648 24.6526C2.02077 24.0897 0.898318 24.2023 0.337093 24.9903C-0.224131 25.7783 -0.111886 26.904 0.673828 27.4668C1.45954 28.0297 2.58199 27.9171 3.14322 27.1291C3.81669 26.3411 3.70444 25.2154 2.80648 24.6526Z" fill="#0095DB"/>
<path d="M17.623 31.4066C18.2965 32.082 19.1945 32.5323 20.5414 32.6449C21.5516 32.6449 22.2251 32.4197 22.5618 32.082C22.8986 31.7443 22.8986 31.4066 22.6741 31.0689C22.4496 30.7312 21.7761 30.506 20.5414 30.3935C20.3169 30.3935 20.0924 30.2809 19.7557 30.2809C19.6435 30.2809 19.5312 30.1683 19.419 30.1683C19.3067 30.1683 19.1945 30.1683 19.0822 30.0558C18.97 30.0558 18.7455 29.9432 18.6333 29.9432C18.6333 29.9432 18.521 29.9432 18.521 29.8306C18.2965 29.718 18.1843 29.718 17.9598 29.6055L17.623 31.4066Z" fill="#F15A22"/>
<path d="M26.1537 31.7441C26.1537 33.095 25.5925 34.1081 24.5823 34.7835C24.3578 35.0087 24.1333 35.1212 23.7965 35.2338C23.6843 35.2338 23.5721 35.3464 23.4598 35.3464C23.2353 35.459 23.1231 35.459 22.8986 35.5715C22.7863 35.5715 22.6741 35.6841 22.5619 35.6841C22.4496 35.6841 22.2251 35.7967 22.1129 35.7967C22.0006 35.7967 21.8884 35.7967 21.6639 35.7967C21.4394 35.7967 21.2149 35.7967 20.8782 35.7967C19.5312 35.7967 18.521 35.5715 17.6231 35.2338C17.2863 35.1212 17.0619 35.0087 16.8374 34.7835L16.5006 36.4721C14.5925 45.14 21.3272 49.9805 28.6231 48.292C28.5108 47.7291 26.8272 37.0349 26.1537 32.5321C26.1537 32.307 26.1537 31.9693 26.1537 31.7441Z" fill="#F15A22"/>
<path d="M22.1129 9.90621L62.1843 11.0319L62.2966 10.9193L62.6333 10.5816C63.3068 9.90621 63.9802 9.45593 64.5415 9.11822L34.6843 0.788012C28.3986 -0.900544 24.3578 -0.900544 22.1129 9.90621C21.8884 10.8068 21.6639 11.8199 21.4394 13.0582L19.5312 21.9512C19.6435 21.9512 19.7557 21.9512 19.868 21.8387C19.9802 21.8387 20.0925 21.8387 20.2047 21.7261C20.4292 21.7261 20.6537 21.6135 20.9904 21.6135C22.2251 21.6135 23.2353 21.7261 24.021 22.0638C24.1333 22.1764 24.2455 22.1764 24.3578 22.2889C23.3476 17.1107 22.2251 10.6942 22.1129 9.90621Z" fill="#F15A22"/>
<path d="M24.8064 24.9902L23.7962 26.1159C23.1227 25.3279 22.4492 24.9902 21.439 24.9902C20.5411 24.9902 19.8676 25.2154 19.5309 25.5531C19.1941 25.8908 19.1941 26.2285 19.5309 26.4536C19.8676 26.6788 20.4288 27.0165 21.439 27.1291C22.786 27.2416 23.9084 27.6919 24.8064 28.2548C25.2554 28.5925 25.5921 29.0428 25.7043 29.493C25.5921 29.2679 25.4799 29.1553 25.3676 28.9302C25.3676 28.0296 25.1431 26.6788 24.8064 24.9902Z" fill="#F15A22"/>
<path d="M38.949 40.9757C33.1122 41.5385 32.551 38.8368 34.3469 36.8106C34.3469 36.8106 34.3469 36.698 34.4592 36.698L36.4796 34.7843V28.0301C36.4796 27.1295 36.2551 26.4541 35.8061 25.8912C35.3571 25.441 34.6837 25.1032 33.7857 25.1032C33 25.1032 32.3265 25.5535 31.7653 26.3415V35.6849H27.949V16.8856L31.7653 14.6342V23.1896C32.6633 22.4016 33.7857 21.9513 35.0204 21.9513C36.8163 21.9513 38.051 22.5141 38.949 23.5273C39.8469 24.5404 40.2959 25.7787 40.2959 27.1295V31.2946L41.7551 29.9438C41.7551 29.6061 41.6429 29.1558 41.6429 28.7055C41.6429 26.6792 42.3163 24.9907 43.551 23.7524C44.7857 22.5141 46.4694 21.8387 48.4898 21.8387C49.1633 21.8387 49.7245 21.9513 50.2857 22.0638L62.1837 11.032L22 9.90625C22.1122 10.6942 23.2347 16.9982 24.2449 22.5141C24.4694 22.6267 24.8061 22.8518 25.0306 22.9644C25.0306 22.9644 25.0306 22.9644 25.1429 23.077C25.3673 23.3021 25.5918 23.5273 25.9286 23.7524L24.8061 25.1032C25.1429 26.6792 25.3673 28.1426 25.4796 29.1558C25.5918 29.3809 25.7041 29.4935 25.8163 29.7186C25.8163 29.8312 25.8163 29.8312 25.9286 29.9438C26.0408 30.1689 26.0408 30.2815 26.0408 30.5066C26.0408 30.6192 26.0408 30.7318 26.0408 30.8443C26.0408 31.182 26.1531 31.5198 26.1531 31.8575C26.1531 32.0826 26.1531 32.4203 26.0408 32.6455C26.7143 37.1483 28.398 47.8425 28.5102 48.4053L62.1837 39.7374L38.949 40.9757Z" fill="#FDB913"/>
<path d="M127.51 26.228C126.837 25.5526 126.051 25.2148 124.929 25.2148C123.919 25.2148 123.021 25.5526 122.347 26.228C121.674 26.9034 121.337 27.804 121.337 28.8171C121.337 29.8302 121.674 30.7308 122.347 31.4062C123.021 32.0816 123.806 32.4193 124.929 32.4193C125.939 32.4193 126.837 32.0816 127.51 31.4062C128.184 30.7308 128.521 29.8302 128.521 28.8171C128.408 27.804 128.184 26.9034 127.51 26.228Z" fill="#0095DB"/>
<path d="M110.225 25.1035C109.214 25.1035 108.316 25.4412 107.643 26.1167C106.97 26.7921 106.633 27.6926 106.633 28.7058C106.633 29.7189 106.97 30.6195 107.643 31.2949C108.316 31.9703 109.102 32.308 110.225 32.308C111.235 32.308 112.133 31.9703 112.806 31.2949C113.48 30.6195 113.816 29.7189 113.816 28.7058C113.816 27.6926 113.48 26.7921 112.806 26.1167C112.133 25.5538 111.235 25.1035 110.225 25.1035Z" fill="#0095DB"/>
<path d="M119.99 33.8833C118.643 32.5325 117.97 30.8439 117.97 28.9302C117.97 26.904 118.643 25.2154 119.99 23.8646C121.337 22.5137 123.021 21.8383 125.041 21.8383C125.603 21.8383 126.276 21.9509 126.725 22.0634L106.072 17.1104L79.6944 10.6938L74.7556 9.56814C70.2658 8.44243 67.7964 7.31673 64.6535 9.11786C64.0923 9.45557 63.4188 10.0184 62.7454 10.5813L62.4086 10.919L62.2964 11.0316L50.3984 22.0634L62.2964 11.0316L97.6535 18.7989C106.521 20.3749 105.174 28.7051 97.878 31.0691V35.6845H94.0617V32.0822L92.0413 32.5325V35.6845H88.225V34.5588C87.1025 35.3468 86.0923 35.6845 85.1944 35.6845C83.3984 35.6845 81.9393 35.3468 81.0413 34.5588C81.2658 34.7839 81.4903 34.8965 81.7148 35.009L62.2964 39.6244L64.7658 39.5119L123.021 36.2473C124.256 36.2473 125.266 36.0222 126.164 35.797C125.827 35.797 125.378 35.9096 125.041 35.9096C122.909 35.797 121.337 35.1216 119.99 33.8833ZM115.276 33.8833C113.929 35.2342 112.245 35.9096 110.225 35.9096C108.205 35.9096 106.521 35.2342 105.174 33.8833C103.827 32.5325 103.154 30.8439 103.154 28.9302C103.154 26.904 103.827 25.2154 105.174 23.8646C106.521 22.5137 108.205 21.8383 110.225 21.8383C112.245 21.8383 113.929 22.5137 115.276 23.8646C116.623 25.2154 117.296 26.904 117.296 28.9302C117.296 30.8439 116.623 32.5325 115.276 33.8833Z" fill="#0095DB"/>
<path d="M129.98 34.7852C129.194 34.7852 128.521 35.4606 128.521 36.2486C128.521 36.3611 128.521 36.5863 128.633 36.6989C128.857 37.2617 129.418 37.712 129.98 37.712C130.653 37.712 131.327 37.2617 131.439 36.5863C131.439 36.4737 131.439 36.3611 131.439 36.2486C131.439 35.348 130.765 34.7852 129.98 34.7852Z" fill="#0095DB"/>
<path d="M50.5102 25.7789C49.949 25.3287 49.2755 25.1035 48.6021 25.1035C47.8164 25.1035 47.2551 25.3287 46.6939 25.7789C46.1327 26.2292 45.9082 26.7921 45.9082 27.4675H51.4082C51.296 26.6795 51.0715 26.1166 50.5102 25.7789Z" fill="#8DC63F"/>
<path d="M85.5308 28.9316C83.8472 29.1568 83.0615 29.7196 82.9492 30.8453C83.0615 31.971 83.9594 32.5339 85.5308 32.6465C86.8778 32.6465 87.7757 32.3087 88.1125 31.5208V29.9448C87.6635 29.2694 86.8778 28.9316 85.5308 28.9316Z" fill="#8DC63F"/>
<path d="M51.9694 22.7386C52.1939 22.8511 52.4184 23.0763 52.6429 23.1888L52.7552 23.3014C52.9797 23.5266 53.2041 23.6391 53.3164 23.8643C54.5511 25.1025 55.1123 26.7911 55.1123 28.8174V30.1682H45.6837C45.796 30.9562 46.1327 31.5191 46.6939 31.8568C47.2552 32.307 47.9286 32.5322 48.6021 32.5322C49.8368 32.5322 51.0715 32.1945 52.0817 31.4065L54.3266 33.6579C53.3164 35.0087 51.4082 35.6842 48.7144 35.6842C46.6939 35.6842 45.0103 35.0087 43.7756 33.7705C43.5511 33.5453 43.3266 33.3202 43.1021 32.9825L42.9899 32.8699C42.7654 32.6448 42.6531 32.307 42.5409 32.0819C42.2041 31.4065 42.0919 30.7311 41.9797 30.0556L40.5205 31.4065V35.7967H36.7041V34.8962L34.9082 36.5847C34.796 36.6973 34.6837 36.8099 34.5715 36.9224C32.7756 38.9487 33.2246 41.6504 39.1735 41.0875L62.5205 39.7367L81.9388 35.1213C81.7143 35.0087 81.3776 34.7836 81.2654 34.671C80.3674 33.883 79.9184 32.7573 79.9184 31.4065C79.9184 31.1813 79.9184 30.9562 79.9184 30.8436C79.9184 30.7311 79.9184 30.5059 80.0307 30.3934C80.0307 30.2808 80.1429 30.1682 80.1429 29.9431C80.1429 29.8305 80.2552 29.7179 80.2552 29.4928C80.3674 29.3802 80.3674 29.1551 80.4797 29.0425C80.4797 29.0425 80.4797 28.9299 80.5919 28.9299C80.5919 28.8174 80.7041 28.8174 80.7041 28.7048C80.8164 28.4797 81.0409 28.2545 81.2654 27.9168C82.1633 26.9037 83.5103 26.4534 85.4184 26.4534C85.6429 26.4534 85.8674 26.4534 86.0919 26.4534C86.2041 26.4534 86.2041 26.4534 86.3164 26.4534C86.4286 26.4534 86.6531 26.4534 86.7654 26.566C86.8776 26.566 86.9899 26.6785 87.1021 26.6785C87.2143 26.6785 87.3266 26.7911 87.5511 26.7911C87.6633 26.7911 87.7756 26.9037 87.8878 26.9037C88.1123 27.0162 88.3368 27.1288 88.5613 27.2414V26.7911C88.5613 26.2282 88.3368 25.8905 88.0001 25.5528C87.8878 25.4403 87.7756 25.4403 87.6633 25.4403C87.6633 25.4403 87.6633 25.4403 87.5511 25.4403C87.4388 25.4403 87.3266 25.3277 87.2143 25.3277C87.2143 25.3277 87.1021 25.3277 86.9899 25.3277C86.8776 25.3277 86.8776 25.3277 86.7654 25.3277C86.6531 25.3277 86.4286 25.3277 86.3164 25.3277C84.6327 25.3277 83.398 25.5528 82.5001 26.1157L80.4797 23.6391C82.1633 22.5134 84.1837 21.9506 86.5409 21.9506C88.2246 21.9506 89.4592 22.4009 90.4694 23.3014C90.6939 23.5266 90.9184 23.7517 91.0307 24.0894C91.1429 24.202 91.2552 24.4271 91.2552 24.6523C91.5919 25.4403 91.8164 26.3408 91.8164 27.4665V32.0819V32.6448L93.8368 32.1945V31.5191V23.8643V22.4009L97.6531 21.9506V23.5266C97.8776 23.3014 98.1021 23.0763 98.3266 22.9637C98.4388 22.9637 98.4388 22.8511 98.5511 22.8511C98.7756 22.7386 99.0001 22.5134 99.2246 22.4009C99.3368 22.4009 99.3368 22.4009 99.449 22.2883C100.01 22.0631 100.571 21.9506 101.245 21.9506C101.694 21.9506 102.143 21.9506 102.48 22.0631L102.031 25.8905C101.582 25.4403 100.908 25.2151 100.123 25.2151C99.5613 25.2151 99.0001 25.5528 98.5511 26.1157C98.4388 26.2282 98.4388 26.3408 98.3266 26.4534C98.3266 26.566 98.2143 26.566 98.2143 26.6785C98.2143 26.7911 98.1021 26.7911 98.1021 26.9037C97.9899 27.0162 97.9899 27.2414 97.8776 27.354V29.2676V31.1813C105.174 28.8174 106.52 20.4872 97.6531 18.9112L62.296 11.0312L50.398 22.0631C50.9592 22.2883 51.4082 22.5134 51.9694 22.7386ZM57.0205 22.2883L60.8368 21.838V23.0763C61.7348 22.2883 62.745 21.838 64.0919 21.838C65.7756 21.838 67.1225 22.4009 68.0205 23.414C69.0307 22.4009 70.4899 21.838 72.5103 21.838C74.1939 21.838 75.5409 22.4009 76.4388 23.414C77.3368 24.4271 77.7858 25.6654 77.7858 27.0162V31.6316V35.459V35.5716H77.449H73.9695V33.5453V28.1419C73.9695 27.2414 73.745 26.566 73.296 26.0031C72.847 25.5528 72.1735 25.2151 71.2756 25.2151C70.4899 25.2151 69.8164 25.778 69.2552 26.6785C69.2552 27.0162 69.1429 27.2414 69.1429 27.5791V35.6842H65.3266V28.1419C65.3266 27.2414 65.1021 26.566 64.6531 26.0031C64.2041 25.5528 63.5307 25.2151 62.6327 25.2151C61.7348 25.2151 61.0613 25.8905 60.5001 26.9037V35.6842H56.6837V22.2883H57.0205Z" fill="#8DC63F"/>
<path d="M110.225 21.8398C108.204 21.8398 106.521 22.5153 105.174 23.8661C103.827 25.217 103.153 26.9055 103.153 28.9318C103.153 30.958 103.827 32.6466 105.174 33.8849C106.521 35.2357 108.204 35.9111 110.225 35.9111C112.245 35.9111 113.929 35.2357 115.276 33.8849C116.623 32.534 117.296 30.8455 117.296 28.8192C117.296 26.7929 116.623 25.1044 115.276 23.7535C113.929 22.5153 112.245 21.8398 110.225 21.8398ZM112.806 31.4083C112.133 32.0837 111.347 32.4215 110.225 32.4215C109.215 32.4215 108.317 32.0837 107.643 31.4083C106.97 30.7329 106.633 29.8323 106.633 28.8192C106.633 27.8061 106.97 26.9055 107.643 26.2301C108.317 25.5547 109.102 25.217 110.225 25.217C111.235 25.217 112.133 25.5547 112.806 26.2301C113.48 26.9055 113.817 27.8061 113.817 28.8192C113.704 29.8323 113.48 30.7329 112.806 31.4083Z" fill="white"/>
<path d="M24.8066 28.3677C23.9087 27.6923 22.7862 27.3546 21.4393 27.242C20.5413 27.0168 19.8678 26.7917 19.5311 26.5666C19.1944 26.3414 19.1944 26.0037 19.5311 25.666C19.8678 25.3283 20.4291 25.1031 21.4393 25.1031C22.3372 25.1031 23.1229 25.4409 23.7964 26.2288L25.9291 23.7523C25.2556 23.1894 24.5821 22.6266 23.9087 22.4015C23.2352 22.0637 22.225 21.9512 20.878 21.9512C19.7556 21.9512 18.6332 22.2889 17.6229 23.0769C16.6127 23.8649 16.0515 24.878 16.0515 26.3414C16.0515 27.9174 16.5005 28.9305 17.3985 29.4934C18.2964 30.0562 19.3066 30.394 20.4291 30.5065C21.6638 30.6191 22.3372 30.8442 22.5617 31.1819C22.7862 31.5197 22.7862 31.8574 22.4495 32.1951C22.1127 32.5328 21.4393 32.7579 20.4291 32.7579C19.0821 32.6454 18.1842 32.1951 17.5107 31.5197L15.6025 33.7711C16.276 34.4465 16.9495 34.8968 17.8474 35.2345C18.7454 35.5722 19.7556 35.7973 21.1025 35.7973C22.4495 35.7973 23.6842 35.4596 24.6944 34.6716C25.7046 33.9962 26.2658 32.9831 26.2658 31.6322C26.1536 30.1688 25.7046 29.0431 24.8066 28.3677Z" fill="white"/>
<path d="M35.0206 21.9518C33.786 21.9518 32.6635 22.4021 31.7655 23.1901V14.6348L27.9492 16.8862V35.798H31.7655V26.4547C32.3268 25.6667 33.0002 25.3289 33.786 25.2164C34.6839 25.2164 35.3574 25.5541 35.8064 26.0044C36.2553 26.4547 36.4798 27.2426 36.4798 28.1432V35.6854H40.2962V27.1301C40.2962 25.7792 39.8472 24.541 38.9492 23.5278C38.0513 22.5147 36.7043 21.9518 35.0206 21.9518Z" fill="white"/>
<path d="M48.6028 21.9512C46.5824 21.9512 44.8987 22.6266 43.664 23.8649C42.4293 25.1031 41.7559 26.7917 41.7559 28.818C41.7559 30.8442 42.4293 32.5328 43.664 33.7711C44.8987 35.0093 46.5824 35.6848 48.6028 35.6848C51.2967 35.6848 53.2048 35.0093 54.215 33.6585L51.9701 31.4071C50.9599 32.1951 49.8375 32.5328 48.4906 32.5328C47.7048 32.5328 47.1436 32.3076 46.5824 31.8574C46.0212 31.4071 45.6844 30.8442 45.5722 30.1688H55.0008V28.818C55.0008 26.7917 54.4395 25.1031 53.2048 23.8649C52.1946 22.6266 50.6232 21.9512 48.6028 21.9512ZM45.7967 27.4671C45.7967 26.6791 46.0212 26.1163 46.5824 25.7786C47.1436 25.3283 47.8171 25.1031 48.4906 25.1031C49.2763 25.1031 49.8375 25.3283 50.3987 25.7786C50.9599 26.2288 51.1844 26.7917 51.1844 27.4671H45.7967Z" fill="white"/>
<path d="M72.6226 21.9512C70.6022 21.9512 69.143 22.514 68.1328 23.5272C67.2349 22.514 65.8879 21.9512 64.2042 21.9512C62.8573 21.9512 61.7349 22.4015 60.9491 23.1894V21.9512L57.1328 22.4015V35.7973H60.9491V27.0168C61.5104 25.8911 62.2961 25.3283 63.0818 25.3283C63.9798 25.3283 64.6532 25.666 65.1022 26.1163C65.5512 26.5666 65.7757 27.3545 65.7757 28.2551V35.7973H69.592V27.6923C69.592 27.3545 69.592 27.1294 69.7042 26.7917C70.2655 25.8911 70.9389 25.3283 71.7247 25.3283C72.6226 25.3283 73.2961 25.666 73.7451 26.1163C74.194 26.5666 74.4185 27.3545 74.4185 28.2551V35.7973H78.2349V27.242C78.2349 25.8911 77.7859 24.6529 76.8879 23.6397C75.7655 22.514 74.4185 21.9512 72.6226 21.9512Z" fill="white"/>
<path d="M97.7655 23.4158V21.8398L93.9492 22.2901V35.686H97.7655V27.2432C98.439 25.8924 99.1125 25.217 100.123 25.217C100.908 25.217 101.582 25.4421 102.031 25.8924L102.592 22.065C102.143 21.9524 101.806 21.9524 101.357 21.9524C100.01 21.9524 98.7758 22.4027 97.7655 23.4158Z" fill="white"/>
<path d="M86.5412 21.9512C84.2963 21.9512 82.2758 22.514 80.4799 23.6397L81.9391 26.0037C82.8371 25.4409 84.184 25.2157 85.7554 25.2157C87.2146 25.3283 87.8881 25.8911 88.0003 26.9043V27.3545C86.8779 26.7917 85.8677 26.5666 84.9697 26.5666C83.0616 26.5666 81.6024 27.0168 80.8167 28.03C79.9187 29.0431 79.4697 30.1688 79.4697 31.5197C79.4697 32.8705 79.9187 33.9962 80.8167 34.7842C81.7146 35.5722 83.0616 35.9099 84.9697 35.9099C85.8677 35.9099 86.8779 35.5722 88.0003 34.7842V35.9099H91.8167V27.6923C91.8167 25.8911 91.3677 24.4277 90.3575 23.5272C89.5718 22.4015 88.2248 21.9512 86.5412 21.9512ZM88.1126 31.6322C87.7758 32.3076 86.8779 32.7579 85.5309 32.7579C83.8473 32.6454 83.0616 32.0825 82.9493 30.9568C83.0616 29.9437 83.735 29.3808 85.082 29.0431C85.3065 29.0431 85.6432 28.9305 85.9799 29.0431C87.1024 29.1557 87.8881 29.4934 88.1126 30.0562V31.6322Z" fill="white"/>
<path d="M129.98 23.8661C128.633 22.5153 126.949 21.8398 124.929 21.8398C122.908 21.8398 121.225 22.5153 119.878 23.8661C118.531 25.217 117.857 26.9055 117.857 28.9318C117.857 30.958 118.531 32.6466 119.878 33.8849C121.225 35.2357 122.908 35.9111 124.929 35.9111C126.949 35.9111 128.633 35.2357 129.98 33.8849C131.327 32.534 132 30.8455 132 28.8192C132 26.7929 131.327 25.1044 129.98 23.8661ZM127.51 31.4083C126.837 32.0837 126.051 32.4215 124.929 32.4215C123.919 32.4215 123.021 32.0837 122.347 31.4083C121.674 30.7329 121.337 29.8323 121.337 28.8192C121.337 27.8061 121.674 26.9055 122.347 26.2301C123.021 25.5547 123.806 25.217 124.929 25.217C125.939 25.217 126.837 25.5547 127.51 26.2301C128.184 26.9055 128.521 27.8061 128.521 28.8192C128.408 29.8323 128.184 30.7329 127.51 31.4083Z" fill="white"/>
<path d="M76.5511 40.9758L113.929 38.7244C117.633 38.3867 117.969 41.5387 116.398 42.5518L90.9184 58.1991C87.7756 60.3379 85.1939 60.7882 83.5103 58.7619C83.1735 58.4242 73.296 47.3923 73.296 47.3923C71.8368 45.7038 71.5001 44.6906 71.7246 43.5649C72.0613 41.8764 73.745 41.201 76.5511 40.9758Z" fill="#F15A22"/>
<path d="M90.8058 50.8838L90.918 46.8312C90.918 46.1558 90.8058 45.7055 90.6935 45.3678C90.4691 45.1427 90.1323 45.0301 89.6833 45.0301C89.1221 45.0301 88.6731 45.2552 88.5609 45.4804C88.3364 45.7055 88.2241 46.2684 88.2241 46.8312L88.1119 50.9963L85.3058 51.2215L85.418 47.1689C85.418 46.4935 85.3058 46.0432 85.1935 45.7055C84.969 45.4804 84.6323 45.3678 84.1833 45.3678C83.6221 45.3678 83.1731 45.5929 83.0609 45.8181C82.8364 46.0432 82.7241 46.6061 82.7241 47.1689L82.6119 51.334L80.0303 51.4466L80.1425 43.5667L82.7241 43.4541V44.1295C83.2854 43.4541 84.0711 43.1164 84.8568 43.1164C85.9792 43.0038 86.765 43.3415 87.1017 44.017C87.7752 43.229 88.6731 42.7787 90.0201 42.7787C91.1425 42.6661 92.0405 42.8913 92.6017 43.3415C93.1629 43.7918 93.4997 44.5798 93.4997 45.8181L93.3874 50.6586L90.8058 50.8838Z" fill="white"/>
<path d="M98.9996 50.5451C97.6527 50.6577 96.5302 50.32 95.7445 49.6446C94.9588 48.9691 94.6221 47.956 94.6221 46.7177C94.6221 45.4795 95.071 44.4663 95.8568 43.5658C96.6425 42.7778 97.7649 42.3275 99.1119 42.2149C100.347 42.1024 101.357 42.4401 102.142 43.0029C102.928 43.5658 103.265 44.4663 103.265 45.7046C103.265 46.1549 103.265 46.6052 103.153 46.8303L97.2037 47.2806C97.2037 47.7309 97.4282 48.1812 97.7649 48.4063C98.1017 48.6314 98.5506 48.744 98.9996 48.744C99.8976 48.744 100.571 48.4063 101.132 47.7309L102.591 48.9691C101.693 49.8697 100.459 50.4326 98.9996 50.5451ZM97.3159 45.592L100.796 45.3669C100.683 44.4663 100.122 44.1286 99.1119 44.1286C98.6629 44.1286 98.2139 44.3538 97.9894 44.5789C97.5404 44.804 97.3159 45.1418 97.3159 45.592Z" fill="white"/>
<path d="M92.6025 58.761C93.6563 58.761 94.5107 57.9042 94.5107 56.8473C94.5107 55.7904 93.6563 54.9336 92.6025 54.9336C91.5486 54.9336 90.6943 55.7904 90.6943 56.8473C90.6943 57.9042 91.5486 58.761 92.6025 58.761Z" fill="#FDB913"/>
<path d="M72.8471 51.2189C74.4588 51.2189 75.7654 49.9085 75.7654 48.2921C75.7654 46.6756 74.4588 45.3652 72.8471 45.3652C71.2353 45.3652 69.9287 46.6756 69.9287 48.2921C69.9287 49.9085 71.2353 51.2189 72.8471 51.2189Z" fill="#8DC63F"/>
</g>
<defs>
<clipPath id="clip0">
<rect width="132" height="60" fill="white"/>
</clipPath>
</defs>
</svg>
