<svg width="141" height="26" viewBox="0 0 141 26" fill="none" xmlns="http://www.w3.org/2000/svg">
<path fill-rule="evenodd" clip-rule="evenodd" d="M16.3286 1.08554L22.7003 0.436523V9.331C23.8742 7.8091 25.5511 6.42252 28.1336 6.42252C31.99 6.42252 34.3044 8.99257 34.3044 13.1523V25.0782H27.9659V15.2152C27.9659 13.1861 26.9262 12.1039 25.3834 12.1039C23.8407 12.1039 22.7003 13.1861 22.7003 15.2152V25.0782H16.3286V1.08554Z" fill="black"/>
<path fill-rule="evenodd" clip-rule="evenodd" d="M47.7606 16.0602V15.9923C47.7606 13.7267 46.1175 11.8329 43.8704 11.8329C41.5563 11.8329 40.0808 13.6926 40.0808 15.9248V15.9924C40.0808 18.2247 41.6905 20.1184 43.9373 20.1184C46.2517 20.1184 47.7606 18.2584 47.7606 16.0602ZM33.9099 16.0602V15.9923C33.9099 10.7844 38.1355 6.42188 43.9373 6.42188C49.7397 6.42188 53.9318 10.7169 53.9318 15.9248V15.9924C53.9318 21.2006 49.7059 25.5632 43.8704 25.5632C38.1021 25.5632 33.9099 21.2681 33.9099 16.0602Z" fill="black"/>
<path fill-rule="evenodd" clip-rule="evenodd" d="M70.8508 16.2758L67.8381 6.90625H62.6063L59.7889 15.9766L57.4079 6.90625H51.2036L56.7373 25.0782H62.1702L65.1887 15.6317L68.1387 25.0782L70.8508 16.2758Z" fill="black"/>
<path fill-rule="evenodd" clip-rule="evenodd" d="M98.4289 6.90625H92.996L89.9775 16.3848L87.0208 6.90625L84.3633 15.5311L87.3281 25.0782H92.5596L95.377 16.0081L97.7583 25.0782H103.963L98.4289 6.90625Z" fill="black"/>
<path fill-rule="evenodd" clip-rule="evenodd" d="M0.435776 22.7854L2.81711 18.9293C4.89659 20.3162 7.14404 21.0263 9.02208 21.0263C10.1288 21.0263 10.6655 20.6885 10.6655 20.0457V19.978C10.6655 19.2336 9.62578 18.9292 7.71396 18.3883C4.12523 17.4414 1.27438 16.2239 1.27438 12.571V12.5031C1.27438 8.61363 4.36013 6.44922 8.55257 6.44922C11.2023 6.44922 13.9524 7.22704 16.0319 8.57988L13.852 12.6384C11.9736 11.5561 9.92764 10.9136 8.48532 10.9136C7.51284 10.9136 7.00984 11.2855 7.00984 11.8268V11.8948C7.00984 12.6051 8.08307 12.9429 9.96143 13.5179C13.5502 14.5326 16.401 15.7842 16.401 19.3352V19.4031C16.401 23.4279 13.416 25.5248 8.98861 25.5248C5.93632 25.5248 2.91783 24.6116 0.435776 22.7854Z" fill="black"/>
<path fill-rule="evenodd" clip-rule="evenodd" d="M120.539 21.2138V10.9337L125.323 16.077L120.539 21.2138ZM115.39 16.0021C115.39 18.4371 113.608 20.1621 111.529 20.1621C109.483 20.1621 107.667 18.4371 107.667 16.0021V15.9344C107.667 13.4991 109.483 11.7744 111.529 11.7744C113.608 11.7744 115.39 13.5328 115.39 15.9344V16.0021ZM140.564 6.90668H132.412L129.044 11.1025L125.677 6.90668H115.069V9.0685C113.781 7.68191 112.302 6.43066 109.552 6.43066C105.259 6.43066 101.553 10.0495 101.553 16.0021V16.0697C101.553 21.9207 105.259 25.5398 109.585 25.5398C112.302 25.5398 113.781 24.2208 115.069 22.6989V25.0787H125.761L129.044 20.9888L132.327 25.0787H140.479L133.12 16.0466L140.564 6.90668Z" fill="black"/>
<path opacity="0.75" fill-rule="evenodd" clip-rule="evenodd" d="M74.2729 25.0782H68.1387L73.7374 6.90625H79.8716L74.2729 25.0782Z" fill="url(#paint0_linear)"/>
<path opacity="0.75" fill-rule="evenodd" clip-rule="evenodd" d="M80.8862 6.90625H87.0207L81.4216 25.0782H75.2874L80.8862 6.90625Z" fill="url(#paint1_linear)"/>
<defs>
<linearGradient id="paint0_linear" x1="199.67" y1="66.5323" x2="199.67" y2="17.6561" gradientUnits="userSpaceOnUse">
<stop stop-color="#C44A88"/>
<stop offset="1" stop-color="#E43F8C"/>
</linearGradient>
<linearGradient id="paint1_linear" x1="219.025" y1="17.6561" x2="219.025" y2="66.5323" gradientUnits="userSpaceOnUse">
<stop stop-color="#658D9D"/>
<stop offset="1" stop-color="#377B8B"/>
</linearGradient>
</defs>
</svg>
