<svg width="131" height="22" viewBox="0 0 131 22" fill="none" xmlns="http://www.w3.org/2000/svg">
<path fill-rule="evenodd" clip-rule="evenodd" d="M58.9991 1.08376C59.1406 1.07407 59.185 1.16222 59.3508 1.12806C59.3501 1.33483 58.9929 1.26421 58.9991 1.08376Z" fill="#CA2026"/>
<path fill-rule="evenodd" clip-rule="evenodd" d="M60.9327 1.21777C60.9128 1.36062 60.8654 1.47507 60.6689 1.43954C60.6788 1.287 60.7997 1.24639 60.9327 1.21777Z" fill="#CA2026"/>
<path fill-rule="evenodd" clip-rule="evenodd" d="M48.2709 8.39648C48.4039 8.46341 48.2345 8.59102 48.2709 8.70663C48.1285 8.6944 48.1663 8.41541 48.2709 8.39648Z" fill="#CA2026"/>
<path fill-rule="evenodd" clip-rule="evenodd" d="M47.832 9.54785C47.9893 9.64039 47.9344 9.94684 48.1397 9.99115C47.9151 10.1418 47.7844 9.81877 47.832 9.54785Z" fill="#CA2026"/>
<path fill-rule="evenodd" clip-rule="evenodd" d="M48.8427 9.54785C49.0254 9.60093 48.8088 9.69969 48.7985 9.81369C48.6218 9.76685 48.7525 9.58154 48.8427 9.54785Z" fill="#CA2026"/>
<path fill-rule="evenodd" clip-rule="evenodd" d="M48.227 9.94661C48.4466 9.88292 48.4422 10.1741 48.271 10.1681C48.2341 10.1167 48.213 10.0493 48.227 9.94661Z" fill="#CA2026"/>
<path fill-rule="evenodd" clip-rule="evenodd" d="M47.3916 10.0791C47.4356 10.0791 47.4795 10.0791 47.5235 10.0791C47.4376 10.3872 47.7126 10.3316 47.6553 10.6108C47.3827 10.6195 47.4816 10.2543 47.3916 10.0791Z" fill="#CA2026"/>
<path fill-rule="evenodd" clip-rule="evenodd" d="M48.3154 10.8772C48.4074 10.8585 48.4319 10.9077 48.4912 10.9215C48.5013 11.0794 48.428 11.1532 48.2714 11.1431C48.2396 11.0078 48.3165 10.9818 48.3154 10.8772Z" fill="#CA2026"/>
<path fill-rule="evenodd" clip-rule="evenodd" d="M46.8643 10.9223C47.0056 10.8835 46.9557 11.0372 47.0401 11.0552C46.9039 11.0951 46.8721 11.2402 46.6885 11.2324C46.6969 11.0785 46.8442 11.0642 46.8643 10.9223Z" fill="#CA2026"/>
<path fill-rule="evenodd" clip-rule="evenodd" d="M48.7548 11.4092C48.851 11.4159 48.8494 11.5209 48.843 11.6309C48.7122 11.6402 48.688 11.4729 48.7548 11.4092Z" fill="#CA2026"/>
<path fill-rule="evenodd" clip-rule="evenodd" d="M59.3505 19.6068C59.4768 19.6207 59.6598 19.3038 59.4821 19.2967C59.4933 19.4557 59.3502 19.4591 59.3505 19.6068ZM67.4837 19.5625C67.5478 19.4497 67.7241 19.4504 67.6595 19.2081C67.4825 19.2364 67.1925 19.1506 67.0881 19.2524C67.2218 19.3539 67.3431 19.4679 67.4837 19.5625ZM61.1532 19.4296C61.2546 19.4252 61.3948 19.2348 61.2851 19.1638C61.243 19.2542 61.1949 19.3391 61.1532 19.4296ZM60.0536 18.4549C60.046 18.6104 60.2026 18.6005 60.2294 18.7207C60.1708 18.7207 60.1122 18.7207 60.0536 18.7207C60.0536 18.8093 60.0536 18.8979 60.0536 18.9865C59.9205 19.1677 60.076 18.9249 60.0975 18.8979C60.3063 18.639 60.6568 18.1119 60.6257 18.0116C60.4615 18.1646 60.4041 18.6346 60.0536 18.4549ZM64.7143 18.3219C64.9401 18.2543 64.8949 17.913 65.022 17.7457C64.8901 17.7457 64.7583 17.7457 64.6259 17.7457C64.674 17.9195 64.5245 18.2915 64.7143 18.3219ZM61.6368 17.3913C61.6612 17.2253 61.9662 16.9145 61.9005 16.9482C61.7874 17.0424 61.4861 17.1787 61.6368 17.3913ZM62.384 16.2834C62.0928 16.5947 62.4791 16.2691 62.384 16.2834V16.2834ZM64.1424 14.245C64.1161 14.6957 64.8833 15.1136 65.2858 15.1314C65.6118 15.1457 65.9506 14.9267 66.2529 14.9542C66.5619 14.9819 66.4699 15.1016 66.6485 15.0871C67.1068 14.8852 67.7463 14.5797 68.0552 14.0678C68.4789 13.3663 68.3189 12.1677 68.3189 10.9659C68.3189 10.1606 68.4849 9.26265 68.3629 8.79467C68.2809 8.47945 67.7914 8.14022 67.7474 7.864C67.3923 7.91269 67.206 7.57116 66.9122 7.42094C66.1844 7.04872 65.0532 7.10087 64.2743 7.33232C64.3081 9.49942 64.3645 11.6432 64.3622 13.8463C64.3148 14.0941 64.1564 14.0048 64.1424 14.245ZM59.614 2.01486C59.5549 2.00079 59.5302 1.95163 59.4381 1.97056C59.4265 2.10001 59.6087 2.14063 59.614 2.01486ZM59.0427 1.74902C59.149 1.97679 59.1563 1.59649 59.0427 1.74902V1.74902ZM60.0096 1.79333C60.0389 1.79333 60.0682 1.79333 60.0975 1.79333C60.0975 1.73426 60.0975 1.67518 60.0975 1.61611C60.0682 1.61611 60.0389 1.61611 60.0096 1.61611C60.0096 1.67518 60.0096 1.73426 60.0096 1.79333ZM61.373 1.5718C61.4099 1.52034 61.4309 1.45296 61.417 1.35027C61.3583 1.35027 61.2997 1.35027 61.2411 1.35027C61.2066 1.50326 61.2821 1.54503 61.373 1.5718ZM61.6807 1.26165C61.9456 1.33642 61.9449 1.27435 62.2522 1.39457C62.2421 1.0032 61.8108 0.977355 61.6807 1.26165ZM62.2961 1.1285C62.4085 1.17673 62.3664 0.853897 62.428 0.995585C62.5805 0.964663 62.5858 1.15089 62.5159 1.21712C62.5945 1.32096 62.8582 1.40473 62.7357 1.5718C62.8781 1.62649 62.7691 1.42826 62.9115 1.48319C62.9063 1.56257 62.9654 1.57665 62.9555 1.66041C63.8727 1.89602 65.6786 1.59834 66.7364 1.83764C66.8337 1.86187 66.7991 1.75295 66.8683 1.74902C68.8746 2.3377 70.9207 2.95314 72.2759 4.31903C72.7072 4.75355 73.0332 5.32608 73.3315 5.91429C73.6326 6.50966 73.9229 7.21048 73.9909 7.90831C74.0136 8.14553 73.9756 8.38991 73.9909 8.61744C74.0353 9.28619 74.1233 9.84233 74.1668 10.6115C74.3882 14.5434 73.2471 17.7226 70.6054 19.2524C70.4916 19.1901 70.4026 19.1024 70.2977 19.0308C70.112 19.08 69.7251 18.9265 69.6823 19.1194C69.7521 19.3151 70.1723 19.1571 70.3856 19.2081C70.3856 19.2671 70.3856 19.3262 70.3856 19.3853C70.2503 19.5925 69.9712 19.6087 69.7702 19.6954C69.1917 19.9451 68.5616 20.2686 67.9233 20.4932C67.9233 20.4489 67.9233 20.4046 67.9233 20.3603C67.8688 20.2518 67.7955 20.4929 67.7035 20.4932C66.5473 20.3312 65.3169 20.7186 64.2743 20.5375C64.0943 20.5061 63.959 20.3335 63.7907 20.316C63.4267 20.2781 63.0077 20.5924 62.6918 20.5375C62.4871 20.5019 62.3367 20.2407 62.2082 20.1385C61.9561 20.1814 61.9332 20.477 61.7247 20.5375C61.291 20.6628 60.6756 20.2938 60.1415 20.316C59.8175 20.3293 59.6563 20.5289 59.3505 20.5375C59.2992 20.3146 59.5027 20.1879 59.614 20.0499C59.9112 19.6839 60.2541 19.2937 60.5378 18.8536C60.894 18.903 60.8448 18.5432 61.2411 18.6321C61.2182 18.3275 60.9897 18.6778 60.8895 18.5435C60.8872 18.3494 60.9991 18.27 61.0653 18.1447C60.9533 18.2243 60.8661 18.3277 60.6697 18.3219C60.5799 19.0292 60.0389 19.2814 59.7898 19.8283C59.6879 19.8427 59.6211 19.8212 59.57 19.784C59.4494 19.8837 59.4418 20.0976 59.3505 20.2273C59.1911 20.196 59.1623 20.033 58.9109 20.0942C58.9626 19.4808 58.7939 19.0897 58.6911 18.6321C58.6908 18.4694 58.8449 18.4622 58.9109 18.3662C58.9399 17.6696 58.466 16.8794 58.8229 16.2834C59.0089 16.2437 58.8676 16.5338 59.0427 16.5051C59.1119 16.3452 58.8401 16.1491 58.6911 16.0618C58.6911 15.0407 58.6911 14.0041 58.6911 12.9599C58.6911 11.9201 58.583 10.8406 58.6911 9.90233C58.7229 9.62611 58.8951 9.36765 58.9109 9.10481C58.9544 8.3763 58.404 7.5504 58.779 6.88926C58.7334 6.71504 58.5876 6.55327 58.5592 6.35735C58.4891 5.87506 58.7456 5.33369 58.735 4.76209C58.7231 4.13049 58.5663 3.6002 58.5152 3.03391C58.9182 2.79207 58.6162 2.2424 58.5152 1.88194C58.7311 1.87087 58.8983 1.9094 58.9988 2.01486C58.9821 1.95048 58.9555 1.74118 58.9988 1.52749C58.9223 1.49011 58.7185 1.72456 58.5152 1.5718C58.4919 1.3858 58.5919 1.32419 58.6032 1.17281C58.7204 1.17281 58.8376 1.17281 58.9548 1.17281C59.0421 1.27504 58.9436 1.22219 58.9109 1.30596C59.2772 1.51319 59.4336 1.32373 59.614 1.52749C59.7447 1.33504 59.8555 1.36942 60.1415 1.39457C60.1275 1.30181 59.8883 1.25935 60.1415 1.26165C60.0625 1.05235 59.91 1.28981 59.7458 1.26165C59.7559 1.06851 59.4288 1.04889 59.57 0.862666C59.7935 0.859204 59.7939 1.08027 59.9217 1.17281C59.9581 1.06135 60.1227 1.07958 60.2734 1.0842C60.3718 1.45803 60.7294 1.57018 61.0213 1.74902C61.0893 1.59141 60.8718 1.72226 60.8895 1.61611C61.0032 1.53903 60.962 1.30527 61.1532 1.30596C61.1431 1.24204 61.0218 1.29027 61.0213 1.21712C61.0383 1.05697 61.2622 1.10589 61.1972 0.862666C61.3783 0.913434 61.6068 0.914126 61.6807 0.818359C61.8366 0.949433 62.4644 0.778437 62.2961 1.1285Z" fill="#CA2026"/>
<path fill-rule="evenodd" clip-rule="evenodd" d="M124.682 7.86447C124.712 7.89931 124.927 7.96323 124.945 7.86447C124.826 7.8647 124.74 7.67824 124.682 7.86447ZM125.077 7.99739C125.234 8.16146 125.603 8.25607 125.781 8.13054C125.61 8.06592 125.43 8.01169 125.297 7.90877C125.291 7.84993 125.476 7.77516 125.341 7.73155C125.224 7.79109 125.21 7.95447 125.077 7.99739ZM124.242 7.77586C124.201 7.94593 124.585 7.59909 124.286 7.77586C124.282 7.77816 124.243 7.77286 124.242 7.77586ZM123.23 7.86447C123.307 7.82362 123.466 7.86608 123.451 7.73155C123.312 7.71055 123.271 7.78693 123.23 7.86447ZM117.779 11.055C118.176 11.0162 118.49 10.6449 118.922 10.6562C119.051 10.299 119.371 10.134 119.67 9.94733C119.976 9.10989 120.537 8.02162 119.89 7.28849C119.234 6.54658 117.846 6.77088 116.68 6.88973C116.509 7.66278 116.553 8.65252 116.548 9.59265C116.529 9.71172 116.681 9.74495 116.724 9.85849C116.742 9.90533 116.638 9.90856 116.636 9.94733C116.636 9.94456 116.722 10.0269 116.724 10.0359C116.824 10.4566 116.662 10.5489 116.592 10.8778C117.051 10.866 117.397 11.0926 117.779 11.055ZM125.693 6.09198C125.51 6.34074 125.766 6.21867 125.693 6.09198V6.09198ZM125.165 7.02265C125.336 6.66796 124.982 6.29759 125.253 6.09198C125.119 6.12429 125.124 6.0156 124.989 6.04767C124.945 6.39105 124.993 6.77942 125.165 7.02265ZM125.517 5.87045C125.643 5.84783 125.853 5.68053 125.737 5.5603C125.731 5.73153 125.558 5.73499 125.517 5.87045ZM107.535 5.5603C107.609 5.5603 107.682 5.5603 107.755 5.5603C107.769 5.35262 107.552 5.44169 107.535 5.5603ZM107.931 5.33877C107.912 5.23724 107.677 5.12601 107.579 5.25016C107.685 5.26447 107.813 5.48346 107.931 5.33877ZM126.176 5.07293C126.087 5.00071 125.997 4.92894 125.868 4.89571C125.842 5.05747 126.087 5.17401 126.176 5.07293ZM125.033 5.64892C125.237 5.35816 124.805 5.13062 124.945 4.62964C124.783 4.68779 124.861 4.97394 124.857 5.16155C124.851 5.47908 124.884 5.83607 124.813 6.00337C125.069 5.95029 125.303 5.64153 125.341 5.516C125.267 5.61892 125.14 5.82776 125.033 5.64892ZM107.975 4.71825C108.016 4.5971 108.11 4.52949 108.151 4.40811C108.024 4.41595 107.874 4.62756 107.975 4.71825ZM108.722 4.23088C108.628 4.36795 108.306 4.71248 108.371 4.71825C108.466 4.65202 108.473 4.49672 108.634 4.49672C108.508 4.8454 108.939 5.00624 108.854 5.5603C109.054 5.48392 108.909 5.22778 108.898 5.07293C108.876 4.76602 108.854 4.48126 108.854 4.18657C108.754 4.19904 108.689 4.17596 108.678 4.09796C108.712 3.73843 108.59 3.46752 108.415 3.21183C108.32 3.6039 108.638 3.8972 108.415 4.14227C108.554 4.13511 108.68 4.14065 108.722 4.23088ZM107.052 3.03438C107.342 3.00184 107.314 2.82646 107.184 2.63562C107.177 2.80661 107.035 2.84054 107.052 3.03438ZM108.81 2.41409C108.866 2.26501 108.587 2.23086 108.546 2.32547C108.638 2.35109 108.672 2.43532 108.81 2.41409ZM107.711 2.14825C107.848 2.23109 108.061 2.23894 108.195 2.32547C108.227 2.44639 108.108 2.41478 108.107 2.5027C108.307 2.51239 108.285 2.29824 108.371 2.19256C108.21 2.1231 107.821 1.99687 107.711 2.14825ZM130.221 6.40213C130.221 6.41689 130.221 6.43189 130.221 6.44666C128.777 6.55697 127.27 6.60335 125.781 6.6682C126.393 10.2986 124.803 12.7405 122.703 14.0683C123.6 15.6746 124.475 17.2764 125.341 18.8541C125.629 19.3786 125.971 19.9357 126.132 20.5379C125.286 20.5802 124.339 20.4936 123.407 20.4936C122.42 20.4936 121.34 20.6515 120.637 20.4493C119.55 20.1369 119.111 18.7078 118.702 17.7019C118.266 16.6295 117.729 15.5676 116.372 15.4863C116.152 15.6631 116.13 16.0395 116.152 16.4613C116.059 16.7179 116.465 16.4703 116.372 16.7271C116.389 17.748 116.294 18.6572 116.328 19.6959C116.321 19.821 116.453 19.8071 116.504 19.8731C116.647 20.0127 116.389 19.9064 116.372 20.006C116.616 19.9963 116.535 20.3146 116.548 20.5379C114.725 20.5613 112.805 20.4876 111.053 20.5823C111.105 19.4388 110.926 18.3134 110.877 17.1702C110.826 16.0235 110.692 14.8723 110.745 13.7138C110.849 11.4011 110.822 9.06651 110.701 6.7125C110.193 6.68827 109.709 6.6682 109.206 6.6682C108.686 6.6682 107.814 6.51197 107.491 6.6682C107.107 6.85396 106.336 6.63312 105.821 6.6682C105.44 6.69404 105.189 6.72981 104.81 6.7125C104.705 6.70766 104.593 6.76627 104.502 6.75681C104.244 6.72981 104.022 6.6225 103.755 6.62389C103.301 6.62597 102.833 6.87242 102.391 6.62389C102.184 6.64973 102.092 6.85857 101.908 6.6682C101.583 6.73789 101.233 6.69566 100.633 6.75681C100.573 7.34848 100.364 8.01908 100.457 8.61791C102.682 8.76029 105.155 8.8699 107.36 8.66221C107.245 8.97513 107.381 9.34273 107.404 9.72557C107.427 10.1393 107.425 10.5762 107.447 11.0107C107.491 11.8419 107.688 12.7248 107.404 13.4037C107.135 13.4083 107.03 13.2484 106.832 13.1822C106.831 13.2992 106.873 13.4598 106.7 13.4037C106.574 13.3243 106.351 13.3421 106.216 13.2708C106.16 13.4847 105.918 13.3725 105.908 13.1822C105.914 13.0841 106.095 13.1632 106.172 13.1379C106.047 12.9115 105.789 13.2703 105.557 13.2265C105.448 13.2013 105.434 13.2392 105.337 13.2708C105.231 13.3047 105.112 13.403 105.029 13.4037C104.892 13.4046 104.897 13.1912 104.766 13.1822C104.596 13.1702 104.651 13.4459 104.458 13.4037C104.421 13.2456 104.231 13.2456 104.194 13.4037C104.031 13.3903 104.036 13.2085 103.798 13.2708C103.556 13.4062 103.396 13.4051 103.139 13.2708C103.086 13.5126 102.644 13.3626 102.391 13.4037C102.226 13.4475 102.296 13.1859 102.171 13.3151C102.035 13.3105 101.961 13.3691 101.864 13.4037C101.723 13.4233 101.792 13.1616 101.644 13.3151C101.215 13.37 100.779 13.418 100.413 13.5366C100.581 13.5648 100.474 13.8225 100.457 13.9354C100.395 14.3547 100.288 14.9484 100.413 15.3977C100.718 15.5579 101.141 15.7111 101.512 15.7079C101.758 15.7058 102.003 15.5853 102.259 15.5749C102.787 15.5535 103.639 15.7835 103.974 15.6636C103.986 15.6592 103.99 15.5881 104.018 15.5749C104.057 15.5565 104.149 15.5759 104.194 15.5749C104.465 15.5689 104.751 15.6882 105.029 15.7079C105.806 15.7628 106.612 15.667 107.447 15.7079C107.418 17.2883 107.506 18.987 107.404 20.4936C106.904 20.4662 106.358 20.5303 105.908 20.4936C105.751 20.4807 105.615 20.4006 105.469 20.405C105.328 20.4092 105.179 20.4941 105.029 20.4936C104.678 20.4925 104.299 20.3792 103.93 20.3607C103.308 20.3293 102.689 20.3889 102.127 20.3607C101.842 20.3464 101.559 20.2465 101.292 20.2721C101.014 20.2989 100.788 20.4777 100.545 20.4936C100.389 20.5038 100.224 20.4027 100.061 20.405C99.9922 20.406 99.9283 20.4835 99.8855 20.4936C99.7905 20.516 99.665 20.501 99.5778 20.4936C99.1258 20.4546 98.7226 20.163 98.3909 19.9617C98.4671 20.4147 98.2338 20.4325 97.9066 20.405C97.848 20.4002 97.8528 20.3256 97.8187 20.3164C97.7338 20.2933 97.7116 20.4064 97.6869 20.405C97.4238 20.39 97.1566 20.3356 97.0275 20.2721C96.9625 20.3208 96.8054 20.393 96.6758 20.405C96.6161 20.4106 96.6325 20.3206 96.5439 20.3164C96.4837 20.3136 96.4109 20.4069 96.3681 20.405C96.2486 20.4 96.1021 20.3196 95.9725 20.3164C95.798 20.3118 95.6579 20.4226 95.5329 20.405C95.3754 20.3826 95.0857 20.267 95.0933 20.0503C94.8941 19.9827 95.1162 20.34 94.9175 20.2721C94.7348 20.1244 94.7535 20.006 94.7416 19.7845C94.7382 19.7227 94.8179 19.731 94.8295 19.6959C94.8483 19.6394 94.7844 19.5697 94.7856 19.563C94.8149 19.3119 94.7284 19.0666 94.7416 18.7655C94.751 18.5446 94.8273 18.3406 94.8295 18.1009C94.8344 17.538 94.7416 16.9621 94.7416 16.3725C94.7416 15.5272 94.8295 14.6784 94.8295 13.6695C94.8295 13.3123 94.9028 12.9265 94.7416 12.6059C94.8073 12.4673 94.822 12.3341 94.8295 12.1629C94.8325 12.095 94.7441 12.0521 94.7416 11.9857C94.7393 11.9273 94.8279 11.8197 94.8295 11.7641C94.8389 11.4004 94.7886 10.9931 94.8295 10.6119C94.8472 10.4437 94.9568 10.2499 94.9614 10.0802C94.9674 9.85456 94.846 9.59334 94.8295 9.37112C94.7833 8.74529 94.7792 8.02785 94.8295 7.46571C94.8396 7.35125 94.9147 7.24372 94.9175 7.15557C94.9211 7.0328 94.8742 6.91996 94.8735 6.80111C94.8735 6.7905 94.9562 6.73465 94.9614 6.6682C94.9779 6.43974 94.7705 6.26344 94.8735 6.09198C95.3424 6.09198 95.8113 6.09198 96.2802 6.09198C96.2 5.70938 96.3658 5.3157 96.3681 4.98432C96.3688 4.88532 96.2985 4.85879 96.2802 4.76256C96.2362 4.52626 96.3477 4.41918 96.3241 4.27519C96.2445 3.78136 96.3699 3.32052 96.3681 2.85715C96.367 2.49001 96.2832 2.11479 96.3241 1.74949C97.1829 1.59211 98.0197 1.77234 98.6546 1.7938C98.735 1.79634 98.7625 1.70542 98.7865 1.70518C98.8579 1.7038 98.817 1.80395 98.9184 1.7938C98.9271 1.79287 99.0333 1.70818 99.0503 1.70518C99.1334 1.69042 99.1739 1.74995 99.2701 1.74949C99.5384 1.74788 99.7799 1.69849 100.017 1.70518C100.194 1.71003 100.366 1.78434 100.545 1.7938C100.638 1.79864 100.6 1.71603 100.633 1.70518C100.715 1.67772 100.744 1.79564 100.765 1.7938C100.911 1.77903 100.967 1.70288 101.116 1.70518C101.247 1.70703 101.334 1.80464 101.468 1.7938C101.603 1.78272 101.688 1.70495 101.82 1.70518C102.185 1.70565 102.567 1.77741 102.963 1.7938C104.431 1.8538 105.751 1.71742 107.228 1.8381C106.908 1.98418 107.276 2.25855 107.272 2.59131C107.23 2.26525 107.402 2.18263 107.491 2.10394C107.573 2.03148 107.302 2.03356 107.447 1.8381C107.974 1.9131 108.672 1.81503 109.118 1.97102C109.163 2.12725 109.076 2.25071 109.074 2.36978C109.069 2.65431 109.106 3.10291 109.25 3.43337C108.888 3.97727 109.24 4.88671 108.986 5.38308C109.192 5.51415 109.076 5.77445 109.074 6.04767C109.982 6.04767 110.892 6.04767 111.8 6.04767C111.927 4.69887 111.835 3.12922 111.932 1.74949C113.436 1.6228 115.372 1.66088 116.988 1.66088C117.585 1.66088 118.196 1.58011 118.702 1.61657C119.002 1.63803 119.308 1.85149 119.582 1.8381C119.838 1.82541 120.062 1.5778 120.285 1.57227C120.239 2.09102 120.918 1.87918 121.208 2.05964C121.418 2.1231 121.174 1.73011 121.384 1.7938C122.079 1.86695 122.897 2.12448 123.407 2.32547C123.58 2.39401 123.763 2.43486 123.934 2.5027C124.827 2.85807 125.87 3.70313 126.088 4.54103C126.126 4.6871 126.191 4.72333 126.044 4.8514C126.494 4.91463 126.445 5.78484 126.616 6.2249C127.844 6.25721 128.994 6.36867 130.221 6.40213Z" fill="#CA2026"/>
<path fill-rule="evenodd" clip-rule="evenodd" d="M49.3267 10.9211V11.054C49.2912 11.0307 49.2553 11.0079 49.1948 11.0097C49.2031 10.9739 49.2388 10.9656 49.2388 10.9211H49.3267ZM49.4146 8.83847C49.3771 9.06647 49.3109 9.26561 49.2388 9.45876C49.2221 9.59376 49.3986 9.53399 49.4146 9.63599C49.19 9.76429 49.1934 10.1222 48.975 10.2565C48.9938 10.3555 49.1916 10.2743 49.2827 10.3008C49.1969 10.3915 48.9876 10.3578 48.8871 10.4337C48.8477 10.5768 49.0304 10.496 49.0629 10.5667C48.7491 10.697 48.9716 10.844 48.799 11.054C48.8876 11.1422 48.9219 11.2848 49.0629 11.3199C49.1282 11.2825 49.1266 11.1773 49.1509 11.0983C49.4528 11.3711 49.3267 11.9822 49.3267 12.4721C49.3267 12.9968 49.4041 13.5876 49.3267 14.023C49.231 14.5607 48.6442 15.4404 48.2275 15.7512C47.8559 16.0286 47.4106 16.017 46.7327 16.017C45.9227 16.017 45.5218 16.0133 45.1939 15.5297C44.7024 14.8041 44.5061 13.456 44.3147 12.3834C44.307 12.2279 44.4633 12.2376 44.4906 12.1176C44.3994 11.3674 44.2401 10.6862 44.0949 9.99067C44.2831 9.79637 44.3656 9.49522 44.3147 9.06C44.1645 8.92593 44.1423 9.29792 43.9191 9.23723C44.5416 8.69678 44.304 7.22383 44.0949 6.40116C45.3054 6.08224 47.523 6.24262 49.1509 6.17963C49.1518 6.28416 49.0751 6.31024 49.1069 6.4457C49.1257 6.54469 49.3235 6.46346 49.4146 6.49C49.2905 6.59754 49.2523 7.15483 49.4586 7.1989C49.2157 7.25683 49.4201 7.48667 49.4146 7.68628C49.2809 7.72897 49.2026 7.82704 49.1509 7.95211C49.2601 8.0968 49.3988 7.75943 49.4586 7.8635C49.7079 8.25072 49.3427 8.46348 49.1948 8.70555C49.209 8.80917 49.3867 8.74848 49.4146 8.83847ZM33.6752 5.16058C33.6688 5.06366 33.5644 5.06527 33.4554 5.07197C33.424 4.95151 33.6628 5.10358 33.6312 4.98335C33.6667 5.16912 34.0646 4.98958 34.1589 5.11627C34.1388 5.30111 33.8228 5.00643 33.6752 5.16058ZM32.5762 4.58436C32.799 4.52252 32.6969 4.78767 32.8839 4.76159C32.8162 4.8412 32.6231 4.67275 32.5762 4.58436ZM29.5426 7.55336C29.5362 8.0788 29.4075 8.48079 29.3228 8.92709H28.9709V8.57263C28.3963 8.67255 27.9294 8.88163 27.3882 9.0157C27.3577 8.77801 27.6059 8.8214 27.6082 8.61694C26.33 8.61371 25.1349 8.69425 23.8711 8.70555C24.1199 8.55925 23.8999 8.43833 23.7831 8.3068C24.2081 7.90642 23.8363 7.02952 23.8271 6.40116C25.6768 6.4277 27.6334 6.34647 29.4107 6.4457C29.4485 6.76184 29.5204 7.04406 29.5426 7.37613C29.59 7.50559 29.9348 7.33529 29.9822 7.46474C29.9884 7.6482 29.6763 7.5109 29.5426 7.55336ZM57.9437 5.91379C57.5806 6.03563 56.7362 6.17847 56.4049 5.91379V2.01436H50.8655C50.8332 3.1841 50.8753 4.27907 51.0413 5.24919C51.02 5.38857 51.2428 5.28219 51.2611 5.38211C51.0679 5.53811 51.0205 5.83741 50.7776 5.91379C50.4685 6.01094 49.9217 5.91379 49.5025 5.91379C49.0735 5.91379 48.6197 5.89533 48.2275 5.91379C46.6915 5.98579 44.9613 6.09424 43.787 5.95809C44.3578 5.83902 45.0048 5.79702 45.6337 5.73656C45.3136 5.30342 45.5057 4.87005 45.6337 4.36283C45.6314 4.15838 45.3832 4.20176 45.4137 3.96407C45.4197 3.79285 45.5921 3.78939 45.6337 3.65393C45.4162 3.10587 45.827 2.30189 45.5824 1.9479C45.5712 1.95921 45.5584 1.96821 45.5424 1.97282C45.5227 1.97813 45.5007 1.98021 45.478 1.98067C45.187 2.2352 44.2941 2.0589 44.0794 1.8909C44.0469 1.86529 44.0439 1.83275 44.0567 1.80414C43.6831 1.81983 43.309 1.83875 42.9328 1.84291C42.9113 1.84314 42.8939 1.83714 42.8806 1.82675C42.6647 1.84221 42.4504 1.83298 42.2324 1.83967C41.9456 1.84821 41.6589 1.87014 41.3716 1.87198C40.8461 1.87498 40.3205 1.87821 39.7948 1.87383C39.7078 2.27697 39.722 2.81811 39.6984 3.34378C39.6602 4.19322 39.7183 5.02904 39.6544 5.78087C39.2014 5.9004 38.4662 5.73518 38.1596 6.0024C37.5573 5.90063 36.7685 5.98648 36.0933 5.95809C36.0636 4.52414 35.9498 2.9381 36.2692 1.74852C34.4096 1.82398 32.211 1.55768 30.6855 1.97006C31.1334 3.19817 30.5031 4.5636 30.7737 6.0024C29.1964 6.09286 27.5466 5.92048 26.0255 5.82517C25.772 5.80925 25.5055 5.8771 25.278 5.73656C25.0511 4.36537 25.3093 3.23325 25.3212 1.80275C25.2569 1.80344 25.1873 1.80852 25.1232 1.7986C24.9808 1.81152 24.8333 1.80021 24.6912 1.80114C24.682 1.80114 24.6751 1.79768 24.6703 1.79237C23.8649 1.82929 23.0754 1.80252 22.267 1.79468C22.2624 1.80068 22.2553 1.80483 22.2453 1.80483H21.6019C21.5916 1.80483 21.5843 1.80021 21.5797 1.79375H20.6376C20.3883 1.89644 20.1758 2.11867 19.9583 2.14728C19.8708 3.43978 19.9432 4.6589 19.9143 5.86948C19.7341 5.87387 19.554 5.87825 19.4308 5.82517C19.3596 5.9161 19.2192 5.93686 19.1231 6.0024C18.2906 5.92556 17.4304 5.87664 16.617 5.78087C16.6445 6.03009 16.2804 6.07117 16.3972 6.26824C16.5327 6.43993 16.8173 6.44316 17.0566 6.4457C17.4597 6.44985 17.9545 6.32824 18.3756 6.35685C18.3907 7.67104 18.43 8.96078 18.5074 10.2122C18.4541 10.365 18.2441 10.3604 18.2876 10.611C18.2563 10.7312 18.4951 10.5793 18.4635 10.6996C18.3517 10.7049 18.2929 10.7642 18.2876 10.8768C18.498 11.4011 18.425 11.9448 18.5074 12.4278C18.466 12.5632 18.2936 12.5667 18.2876 12.7379C18.4213 12.7656 18.5125 12.8364 18.5074 13.0037C17.9099 13.3976 18.8296 14.5582 18.3756 15.1309C18.5237 15.2714 18.537 15.5211 18.5074 15.7512C18.4749 16.0046 18.4763 16.0639 18.5074 16.3272C18.6141 17.2265 18.3675 18.5358 18.5074 19.2519C18.5271 19.352 18.5569 19.4381 18.6393 19.5177C18.4536 19.6365 18.4431 20.3191 18.5953 20.4927C18.5019 20.6794 18.4257 20.8829 18.3756 21.113C18.5404 21.2833 18.4461 21.2881 18.3756 21.512H18.7712C18.953 21.3423 18.5418 21.2346 18.7272 21.0687C18.7714 21.1037 18.711 21.2237 18.8151 21.2902C19.031 21.0827 19.2698 21.3329 19.3868 21.3345C19.3903 21.6049 19.1634 21.7753 19.2549 21.9993C19.472 21.967 19.3561 21.5992 19.5627 21.5563C19.7204 21.6038 19.7064 21.8249 19.8264 21.9107C19.9816 21.7819 20.0716 21.8092 20.266 21.7778C20.3718 21.9982 20.7395 22.0589 20.9696 21.9107C20.9581 21.7074 20.9226 21.6966 20.9696 21.512C21.0057 21.4007 21.1234 21.3716 21.1894 21.2902C21.0806 21.2385 21.027 21.1743 21.1454 21.113C21.1527 21.2937 21.6342 21.0908 21.7608 20.98C21.7098 21.2237 21.8261 21.2985 22.0246 21.2902C22.0887 21.1875 21.9051 21.0675 22.1564 21.0244C22.3705 20.9565 22.322 21.1531 22.4644 21.1573C22.4621 21.0479 22.6558 20.96 22.5523 21.113C22.6146 21.2692 22.925 20.992 23.0358 21.1573C23.1434 21.0984 22.9875 20.9925 23.0798 20.98C23.6437 20.8633 24.1018 20.423 24.0032 19.7835C24.0109 19.6587 24.212 19.7284 24.179 19.562C24.1424 19.4658 24.013 19.4635 24.0032 19.3405V14.5104C23.959 14.422 23.8085 14.4405 23.8271 14.2889C23.9049 14.0719 23.9292 13.801 24.0471 13.6243H27.7401C28.1987 13.6243 28.758 13.532 29.0149 13.6243C29.3801 13.7553 29.4091 14.3613 29.5426 14.6876H29.3668C29.489 15.0518 29.7686 15.2576 29.8943 15.6183C29.6738 15.6695 29.6786 15.3363 29.4987 15.4854C29.2768 15.7819 29.3668 16.3177 29.3668 16.8591C29.3668 17.3711 29.2782 18.0293 29.3668 18.41C29.4286 18.6761 29.6997 18.7915 29.7184 18.986C29.6168 19.046 29.5728 19.1642 29.3668 19.1189C29.6468 19.3389 29.5142 19.9748 29.5426 20.4484C30.2661 20.3798 31.2733 20.5974 31.7847 20.3154C31.8598 20.4168 31.9823 20.4299 32.0924 20.4484C32.4684 20.5111 34.0642 20.5342 34.3348 20.4484C34.8799 20.2755 34.8447 19.4042 34.5106 19.0303C34.5608 18.7617 34.689 18.758 34.7304 18.4987C34.8238 17.9146 34.7753 17.0709 34.7744 16.3272C34.7737 15.7046 34.8021 14.9814 34.7304 14.4661C34.6931 14.1982 34.5273 13.9427 34.5106 13.6686C34.4699 13.0012 34.6109 12.2422 34.6425 11.5416C34.7114 10.0121 34.8373 8.5131 34.5106 7.33182C34.8941 7.19129 34.6141 6.71684 34.6425 6.31255C35.7943 6.2477 37.0087 6.24562 38.2036 6.22393C38.126 7.03437 38.0124 7.83673 38.1157 8.70555C38.1951 9.3743 38.5777 10.0161 38.5113 10.5223C38.4703 10.8369 38.1631 11.0383 38.1157 11.3199C38.6565 11.7791 38.0616 13.5264 38.4673 14.1559C38.3531 14.1294 38.3091 14.1737 38.3355 14.2889C38.3971 14.635 38.5207 14.9461 38.5553 15.3081C38.6052 15.8278 38.427 16.4289 38.5553 16.9034C38.6077 17.097 38.9481 17.4058 39.1269 17.6566C39.3305 17.9425 39.5329 18.2104 39.6984 18.41C40.9412 19.9091 42.8836 20.7024 44.8862 21.2016C45.003 21.2159 44.845 20.9535 45.0181 21.0244C45.4329 21.2983 46.1773 21.2016 46.9964 21.2016C48.1721 21.2016 49.0964 21.1656 49.7223 20.8471C49.7873 20.8554 49.7626 20.9542 49.7663 21.0244C51.0209 20.738 51.9427 20.1161 52.9757 19.6063C53.0613 19.3702 52.8358 19.2186 52.8878 19.1633C53.2145 19.0853 53.2015 19.3492 53.4153 19.3848C53.4382 18.9203 53.5985 18.5947 54.0309 18.543C54.0122 18.3699 53.7706 18.4211 53.8112 18.1885C53.9053 18.2857 54.0245 18.3572 54.2507 18.3214C54.5012 17.6878 54.5706 16.8713 55.0859 16.5046C55.0944 16.3189 54.8703 16.3676 54.9101 16.15C55.091 15.3573 55.3357 14.6292 55.4818 13.8015C55.093 13.3148 55.3914 11.6289 55.5258 10.8768C55.3641 10.6557 55.267 10.3694 55.1299 10.1236C55.1315 9.93298 55.3634 9.97498 55.306 9.7246C55.2398 9.42115 54.7833 9.54022 54.6464 9.37015C54.8352 9.02516 55.3021 9.57299 55.306 9.41446C55.3914 9.08723 55.4278 8.71017 55.5258 8.39541C55.3831 8.22372 55.2925 7.91865 55.1299 7.68628C55.039 7.55636 54.9383 7.53143 54.9101 7.37613C54.8639 7.11975 54.9987 6.82807 55.0859 6.53431C56.0356 6.50754 56.8738 6.59338 57.7239 6.66723C57.8972 6.50592 58.2718 6.18216 57.9437 5.91379Z" fill="#CA2026"/>
<path fill-rule="evenodd" clip-rule="evenodd" d="M33.0156 3.38867C33.0154 3.62151 33.2004 3.43482 33.0156 3.38867V3.38867Z" fill="#CA2026"/>
<path fill-rule="evenodd" clip-rule="evenodd" d="M48.1396 10.6551C48.1914 10.3906 48.2157 10.3911 48.1396 10.1234C48.2759 10.1336 48.2768 10.2806 48.3155 10.3892C48.5792 10.3595 48.7473 10.2337 48.8872 10.0791C48.8554 10.2143 48.932 10.2406 48.9311 10.3449C48.7553 10.3449 48.6672 10.4333 48.4913 10.4336C48.4913 10.5222 48.4913 10.6108 48.4913 10.6994C48.5678 10.8143 48.7917 10.7808 48.7551 11.0095C48.5854 11.0181 48.5025 10.9392 48.4913 10.788C48.3359 10.6396 48.2876 10.6465 48.1396 10.6551Z" fill="#CA2026"/>
<path fill-rule="evenodd" clip-rule="evenodd" d="M4.8343 18.7654C4.82446 18.8 4.79744 18.8169 4.74638 18.8097C4.6967 19.0961 5.31487 19.0086 5.18597 18.9869C4.96228 19.0204 4.89932 18.8916 4.8343 18.7654ZM4.4824 18.854C4.46111 18.8016 4.4357 18.7536 4.39449 18.7211C4.38785 18.7802 4.46363 18.9655 4.4824 18.854ZM3.38344 18.6325C3.25523 18.6435 3.23165 18.5489 3.16365 18.4996C3.03498 18.5861 3.30285 18.7679 3.38344 18.6325ZM6.06514 18.6325C6.02896 18.5072 6.12718 18.5176 6.1091 18.4109C5.97425 18.3994 5.91151 18.3147 5.80139 18.278C5.75789 18.5286 5.95936 18.5323 6.06514 18.6325ZM3.60323 18.4552C3.59705 18.299 3.40611 18.329 3.29552 18.278C3.32139 18.4142 3.51257 18.3842 3.60323 18.4552ZM5.53764 18.1451C5.49139 18.4022 5.72812 18.1636 5.53764 18.1451V18.1451ZM5.09805 18.1008C5.04745 17.9893 5.07722 17.7966 4.92222 17.7904C4.92107 17.954 4.94191 18.0957 5.09805 18.1008ZM1.66883 17.6575C1.74324 17.4805 1.36433 17.3074 1.14133 17.1701C1.13766 16.8835 0.708611 16.8214 0.78943 16.5941C1.07768 16.6253 1.10698 16.9073 1.36112 16.86C1.61068 16.9797 1.47285 17.2177 1.8007 17.2587C1.96853 16.926 1.53764 16.8157 1.36112 16.6828C1.36661 16.5849 1.54749 16.6638 1.62487 16.6385C1.66837 16.4351 1.43644 16.3629 1.58091 16.1952C1.46415 16.1947 1.32975 16.212 1.2732 16.1509C1.66746 16.0872 2.05873 15.2779 1.58091 15.1318C2.07178 14.895 1.67295 14.2981 1.58091 13.891C2.07201 13.8942 2.50106 14.1889 2.94386 14.3784C4.51972 15.0531 6.37331 15.9355 8.87894 15.6635C9.37988 15.609 9.74254 15.4057 10.066 15.0875C9.84443 14.6232 9.33318 14.3931 8.9229 14.2011C7.80516 13.6778 6.48595 13.3284 5.18597 12.9603C4.92794 12.8874 4.61932 12.8796 4.39449 12.7831C4.05587 12.6377 3.6243 12.2457 3.25156 11.9413C2.22152 11.1004 1.23749 9.83903 1.09737 8.21908C1.06417 7.83671 1.09737 7.41626 1.09737 7.02258C1.09737 6.63282 1.03052 6.20083 1.09737 5.82607C1.17521 5.38762 1.78056 4.54557 2.06446 4.1865C3.31567 2.60416 5.25511 1.5392 7.99977 1.66081C10.4299 1.76834 12.7244 2.22456 14.2426 3.43329C14.2426 5.02856 14.2426 6.62382 14.2426 8.21908C13.7657 8.21031 13.33 7.89532 12.8799 7.68717C12.0508 7.30387 11.1581 6.99996 10.11 6.75674C9.60105 6.63859 9.00944 6.43967 8.57123 6.44659C7.95306 6.45605 7.11305 6.81443 6.7687 7.1998C7.11854 7.9034 8.01259 8.1127 8.83498 8.352C9.23519 8.4683 9.675 8.60699 10.11 8.70645C10.5512 8.80729 11.0299 8.82968 11.429 8.97229C11.9796 9.1689 12.5827 9.64681 13.0996 10.0359C14.4028 11.0166 15.5284 12.0853 15.9134 14.0239C16.044 14.6816 16.1328 15.3436 15.8255 15.8407C15.8056 15.9642 16.065 15.8061 16.0453 15.9293C15.8127 18.3454 13.7256 19.5301 11.7807 20.4493C11.4835 20.5896 11.1913 20.8019 10.9452 20.848C10.4537 20.9403 9.81283 20.848 9.23061 20.848C8.64518 20.848 8.02564 20.8979 7.516 20.848C7.06771 20.8044 6.55051 20.651 6.02118 20.5379C4.74707 20.2658 2.97774 19.8484 2.10841 19.1641C1.84947 18.9604 1.61915 18.6611 1.53695 18.3666C1.40348 18.3329 1.28831 18.1629 1.18529 18.0563C1.09393 17.9621 0.887192 17.8834 0.965264 17.7461C1.25626 17.8373 1.31281 18.1643 1.62487 18.2337C1.86573 18.1813 1.44217 17.9326 1.75675 17.9233C1.55321 17.774 1.26107 17.7138 1.09737 17.5246C1.30571 17.5509 1.53031 17.5608 1.66883 17.6575Z" fill="#CA2026"/>
<path fill-rule="evenodd" clip-rule="evenodd" d="M84.8056 7.28847C84.0599 7.21901 83.0067 7.01063 82.3879 7.33278C82.4172 8.62089 82.4089 10.3724 82.4758 11.897C82.504 12.5432 82.5813 13.2966 82.4758 13.8024C82.4428 13.9589 82.2519 14.1317 82.256 14.2898C82.2654 14.6941 82.9323 15.1111 83.3989 15.1319C83.7563 15.1476 84.0741 14.9076 84.4539 14.9546C84.6772 14.8773 84.5565 15.1469 84.7177 15.1319C85.2211 14.8162 85.9971 14.6039 86.3006 13.8024C86.6606 12.8501 86.3792 10.9968 86.4325 9.81417C86.4479 9.47633 86.5298 9.07019 86.4765 8.83943C86.3792 8.42244 85.9114 8.16606 85.8611 7.86446C85.6438 7.86169 85.5504 7.73431 85.3331 7.73154C85.1509 7.45785 84.9725 7.17955 84.8056 6.88971C84.7539 6.88325 84.706 6.81079 84.6737 6.88971C84.8214 6.91787 84.815 7.10225 84.8056 7.28847ZM79.3101 4.40809C79.2762 4.29502 79.4825 4.20433 79.3541 4.14226C79.3225 4.18956 79.1823 4.34648 79.3101 4.40809ZM78.1672 4.27517C78.2698 4.26041 78.3565 4.22971 78.387 4.14226C78.3103 4.1831 78.1507 4.14064 78.1672 4.27517ZM79.0024 3.69919C79.1249 3.77027 79.1237 3.50789 79.0464 3.52197C79.05 3.59904 79.0365 3.65973 79.0024 3.69919ZM78.9145 2.72422C79.2462 2.87098 79.129 2.60676 78.9145 2.72422V2.72422ZM79.6618 2.32546C79.6741 2.23431 79.8252 2.28369 79.8376 2.19254C79.7865 2.15539 79.7199 2.13416 79.6178 2.14824C79.6254 2.21446 79.602 2.31162 79.6618 2.32546ZM79.442 2.10393C79.4484 2.05155 79.5205 2.00355 79.442 1.97101C79.4356 2.02339 79.3634 2.07139 79.442 2.10393ZM79.4859 3.96503C79.7163 3.71327 79.8635 3.40105 80.0134 3.07867C80.2204 2.63376 80.4647 2.24677 80.6728 1.74948C81.2397 1.74948 81.9089 1.74948 82.5637 1.74948C83.2055 1.74948 83.9212 1.64079 84.41 1.74948C84.5993 1.79148 84.6719 1.96178 84.8496 1.97101C85.0348 2.03932 84.8564 1.74163 84.9814 1.74948C86.7233 2.24493 88.3257 2.7323 89.6855 3.7435C90.305 4.20364 90.8055 4.79993 91.2247 5.56029C91.6221 6.28212 92.0242 7.07779 92.1039 7.99737C92.1226 8.21521 92.0897 8.45059 92.1039 8.6622C92.1565 9.46687 92.2891 10.2415 92.3237 11.0107C92.4924 14.7523 91.2698 17.5992 88.8063 19.2085C88.668 19.2581 88.7067 19.2127 88.5425 19.2085C88.4558 19.2392 88.5538 19.4559 88.4546 19.4743C87.6805 19.8163 86.8668 20.1191 86.1248 20.4936C85.9925 20.5382 86.047 20.3949 86.0369 20.3164C85.7157 20.6439 84.7816 20.4519 83.8385 20.4936C82.9928 20.531 82.3432 20.6625 81.9043 20.3164C81.2988 20.4343 80.5961 20.7272 80.3211 20.1389C80.0581 20.2082 80.0416 20.4766 79.7936 20.5379C79.3699 20.6427 78.7533 20.2959 78.2551 20.3164C77.9726 20.3279 77.7967 20.4867 77.5518 20.5379C77.3688 20.5739 77.5296 20.2647 77.4194 20.2278C77.3409 20.1154 77.1456 20.1203 77.0238 20.0503C77.1509 19.3045 76.5565 18.7078 77.0238 18.2781C76.8333 17.5267 76.7095 16.6877 76.7601 15.5306C76.7646 15.427 76.7962 15.316 76.804 15.2205C76.9453 13.4835 76.6241 11.304 76.804 9.85847C76.8397 9.57533 77.022 9.29195 77.0238 9.01665C77.0291 8.32667 76.4441 7.48693 76.8919 6.88971C76.8743 6.71549 76.6616 6.60311 76.6282 6.40211C76.5602 5.99159 76.8292 5.46476 76.848 4.94C76.8725 4.25187 76.6662 3.6775 76.6282 3.07867C76.6932 2.88068 76.8228 2.8786 76.848 2.67991C76.8825 2.41084 76.6316 2.15562 76.6282 1.8824C76.8507 1.91447 76.9611 1.83348 77.0678 1.74948C77.2981 1.81294 77.3578 2.04808 77.5518 2.14824C78.009 2.08085 78.3359 1.78617 78.8266 1.8824C78.8195 1.83025 78.7462 1.84501 78.6947 1.83809C79.1155 1.64194 79.8887 1.80071 80.453 1.74948C80.5251 1.93086 80.2967 1.97586 80.2332 2.10393C80.1348 2.30446 80.0762 2.69284 79.9695 2.94575C79.812 3.32074 79.6121 3.58681 79.4859 3.96503Z" fill="#CA2026"/>
<path fill-rule="evenodd" clip-rule="evenodd" d="M32.6631 1.77579H36.253V1.74902H32.6631V1.77579Z" fill="#CA2026"/>
<path fill-rule="evenodd" clip-rule="evenodd" d="M20.6435 1.79004C20.6401 1.79119 20.6368 1.79235 20.6336 1.79373C20.632 1.79465 20.6302 1.79558 20.6286 1.79673C20.627 1.79789 20.6256 1.79788 20.624 1.79881V1.86342H25.3198V1.79004H20.6435Z" fill="#CA2026"/>
<path fill-rule="evenodd" clip-rule="evenodd" d="M45.5746 1.77539H39.6963V3.45234H45.5746V1.77539Z" fill="#CA2026"/>
</svg>
