<svg width="103" height="33" viewBox="0 0 103 33" fill="none" xmlns="http://www.w3.org/2000/svg">
<path d="M67.192 0C72.5178 10.9836 77.8487 21.9822 83.1845 32.9959H79.111C79.0399 33.0036 78.9683 32.9868 78.908 32.9484C78.8477 32.9101 78.8022 32.8523 78.779 32.7847L76.2896 27.6701C76.2664 27.6025 76.221 27.5448 76.1607 27.5064C76.1003 27.468 76.0288 27.4513 75.9577 27.4589H58.6073C58.5323 27.4508 58.4567 27.4689 58.3935 27.5102C58.3302 27.5514 58.2832 27.6133 58.2603 27.6852C57.4305 29.3901 56.5856 31.0798 55.7558 32.7847C55.7362 32.8505 55.693 32.9068 55.6347 32.943C55.5763 32.9791 55.5066 32.9926 55.439 32.9808C54.1415 32.9658 52.844 32.9808 51.5314 32.9808C51.2598 32.9808 51.2598 32.9808 51.3805 32.7244C53.2513 28.8017 55.1272 24.889 57.0081 20.9864C60.3273 14.0765 63.6414 7.16144 66.9506 0.241397C66.9962 0.167586 67.0269 0.0855879 67.0411 0L67.192 0ZM74.0115 23.325C71.7182 18.5423 69.44 13.7747 67.1316 8.96186C67.1089 9.02091 67.0784 9.07671 67.0411 9.12782C64.8082 13.7898 62.5803 18.4518 60.3574 23.1137C60.2367 23.3551 60.2367 23.3702 60.5234 23.3702H73.7399C73.8322 23.3687 73.9237 23.3535 74.0115 23.325Z" fill="#1F6BFE"/>
<path d="M8.7587 5.31039C9.40746 6.23071 10.026 7.09069 10.6446 7.95066C12.7568 10.9229 14.8741 13.89 16.9964 16.8522C17.0547 16.9131 17.0872 16.9942 17.0872 17.0785C17.0872 17.1628 17.0547 17.2439 16.9964 17.3048C14.3108 21.0565 11.6353 24.8082 8.96993 28.5599C8.90958 28.6504 8.84923 28.741 8.7587 28.8617H21.6583C21.8696 28.8617 21.9299 28.922 21.9299 29.1332C21.9148 30.3402 21.9148 31.5623 21.9299 32.7693C21.9299 32.9352 21.8997 32.9805 21.7187 32.9805H0.943481C1.07927 32.7844 1.19997 32.6184 1.32066 32.4374C4.94162 27.3831 8.56257 22.3238 12.1835 17.2595C12.2086 17.2349 12.2285 17.2056 12.2422 17.1732C12.2558 17.1408 12.2628 17.1061 12.2628 17.0709C12.2628 17.0358 12.2558 17.001 12.2422 16.9687C12.2285 16.9363 12.2086 16.9069 12.1835 16.8823C8.48713 11.7225 4.79074 6.5576 1.09435 1.38769C1.03369 1.32507 0.991861 1.24664 0.973656 1.16138H21.7338C21.9601 1.16138 22.0204 1.20664 22.0204 1.43295C22.0054 2.63993 22.0054 3.84692 22.0204 5.0539C22.0204 5.25004 21.9752 5.2953 21.779 5.2953H9.09062C8.98051 5.30857 8.86957 5.31361 8.7587 5.31039Z" fill="#1F6BFE"/>
<path d="M45.0287 1.19159C44.4101 2.12701 43.8368 3.00207 43.2484 3.89222C40.3818 8.22228 37.5102 12.5473 34.6335 16.8673C34.5752 16.9312 34.5429 17.0146 34.5429 17.1012C34.5429 17.1877 34.5752 17.2711 34.6335 17.335C38.0432 22.4647 41.453 27.5994 44.8627 32.7391C44.908 32.8146 44.9532 32.8749 45.0136 32.9805C44.923 32.9805 44.8476 32.9956 44.7722 32.9956H40.6684C40.5535 33.0097 40.4371 32.9883 40.3346 32.9344C40.2322 32.8804 40.1486 32.7965 40.0951 32.6939C39.3106 31.4718 38.5109 30.2648 37.7113 29.0428C35.1314 25.1201 32.5464 21.1974 29.9564 17.2747C29.881 17.154 29.8207 17.0634 29.9715 16.9427C30.0398 16.8777 30.096 16.8011 30.1375 16.7164C33.5321 11.6169 36.9217 6.51238 40.3063 1.40282C40.3503 1.32312 40.4165 1.25789 40.4969 1.21505C40.5772 1.1722 40.6682 1.15357 40.759 1.16142C42.0866 1.17651 43.3992 1.16142 44.7269 1.16142C44.8248 1.18969 44.9271 1.19992 45.0287 1.19159Z" fill="#1F6BFE"/>
<path d="M91.0147 17.0635V1.47828C91.0147 1.23688 91.075 1.17653 91.3013 1.19162C92.4027 1.20671 93.5041 1.20671 94.5904 1.19162C94.7714 1.19162 94.8469 1.22179 94.8469 1.43302V32.6788C94.8469 32.875 94.8016 32.9202 94.6055 32.9202C93.489 32.9051 92.3725 32.9051 91.2712 32.9202C91.0599 32.9202 91.0147 32.8599 91.0147 32.6637V17.0635Z" fill="#1F6BFE"/>
<path d="M87.0921 3.24377V5.11459C87.0921 5.28055 87.0469 5.32582 86.8809 5.32582H83.4561C83.3052 5.32582 83.2599 5.28055 83.2599 5.12968V1.40312C83.2599 1.23716 83.3052 1.19189 83.4712 1.19189H86.8809C87.0619 1.19189 87.1072 1.23716 87.0921 1.4182C87.077 2.0217 87.0921 2.62519 87.0921 3.24377Z" fill="#1F6BFE"/>
<path d="M102.557 3.24431V5.11513C102.557 5.28109 102.511 5.32635 102.345 5.32635H98.9054C98.7696 5.32635 98.7243 5.29618 98.7243 5.14531V1.37348C98.7243 1.23769 98.7545 1.20752 98.8903 1.20752H102.375C102.526 1.20752 102.557 1.26787 102.557 1.40365V3.24431Z" fill="#1F6BFE"/>
</svg>
