<svg width="98" height="60" viewBox="0 0 98 60" fill="none" xmlns="http://www.w3.org/2000/svg">
<path d="M36.7469 48.3388C37.1725 48.5555 38.0405 48.8166 39.1213 48.8444C40.9861 48.8833 42.0053 48.1777 42.7613 46.5166L52.7685 24.3666C52.3541 24.15 51.4357 23.9055 50.6965 23.8888C49.4085 23.8611 47.6781 24.1222 46.5749 26.7388L43.3325 34.3277L36.9821 24.05C36.5677 23.9277 35.5653 23.75 34.8373 23.75C32.5861 23.75 31.3373 24.5666 30.0325 25.9722L23.8557 32.6722L28.8285 40.4388C29.7469 41.8555 30.9565 42.5777 32.9221 42.5777C34.2101 42.5777 35.2853 42.2777 35.7781 42.0444L29.7861 33.0944L34.0309 28.6277L40.9917 39.4666L36.7469 48.3388ZM23.6149 39.9611C23.6149 41.5944 22.9709 42.5333 19.7565 42.5333C19.3309 42.5333 18.9613 42.5055 18.6029 42.4499V20.7944C18.6029 19.1444 19.1629 17.4277 22.4053 17.4277C22.8197 17.4277 23.2285 17.4666 23.6149 17.55V39.9611ZM16.9845 36.6888C16.9845 39.7388 14.9797 41.9611 10.9029 42.3944C7.95168 42.7055 3.67888 42.3388 1.64608 42.1055C1.57888 41.7777 1.52288 41.3722 1.52288 41.0444C1.52288 38.3888 2.96208 37.7777 4.32288 37.7777C5.73968 37.7777 7.96288 38.0222 9.60928 38.0222C11.4349 38.0222 11.9837 37.4111 11.9837 36.8222C11.9837 36.0611 11.2557 35.7444 9.84448 35.4722L5.97488 34.7388C2.76048 34.1277 1.04688 31.9166 1.04688 29.5777C1.04688 26.7333 3.07968 24.3444 7.07248 23.9111C10.0909 23.5833 13.7757 23.95 15.7917 24.1944C15.8589 24.5333 15.9037 24.8611 15.9037 25.2166C15.9037 27.8722 14.4869 28.4444 13.1317 28.4444C12.0901 28.4444 10.4661 28.2555 8.61248 28.2555C6.73088 28.2555 5.94688 28.7722 5.94688 29.4C5.94688 30.0666 6.68608 30.3388 7.86768 30.5444L11.5637 31.2277C15.3549 31.9222 16.9845 34.0611 16.9845 36.6888Z" fill="url(#paint0_linear)"/>
<path opacity="0.3" fill-rule="evenodd" clip-rule="evenodd" d="M16.2123 34.3388C15.7867 33.6221 15.1707 33.1221 15.1259 33.0832C14.5435 32.5943 13.8547 32.261 13.7763 32.2221C13.1715 31.9554 12.4827 31.711 11.9115 31.6055C11.4131 31.5166 7.5435 30.8332 6.7595 30.5832C6.2107 30.411 5.9643 30.1055 5.9419 30.0777C5.7739 29.8554 5.7235 29.6943 5.7235 29.6221C5.7235 29.5554 5.7123 29.5277 5.6731 29.4999C5.5499 29.4166 5.5443 29.2943 5.5443 29.2443C5.5443 28.811 5.9587 28.4888 6.0091 28.4443C6.4067 28.1332 7.0171 28.0054 7.1235 27.9888C7.4315 27.9388 7.8291 27.8499 9.0611 27.8666C9.6715 27.8777 11.3347 27.9666 11.3851 27.9666C12.1803 28.0166 13.0315 28.0332 13.1211 28.0332C14.0059 28.0332 14.3643 27.8277 14.5603 27.6888C15.1763 27.261 15.4227 26.6054 15.4451 26.5499C15.6579 26.011 15.7139 25.4777 15.7139 25.1499C15.7139 24.8777 15.7027 24.6054 15.7027 24.561C15.6971 24.4888 15.7083 24.4554 15.7139 24.4221C15.7195 24.3888 15.6859 24.3943 15.7027 24.3721C15.7195 24.3499 15.7027 24.3443 15.6747 24.3443C15.6467 24.3443 15.5403 24.3666 15.4619 24.3554C15.1875 24.3277 14.6163 24.2666 14.5323 24.261C13.6083 24.1777 11.8947 24.0499 11.1331 24.0221C10.5003 23.9943 9.3859 23.9943 8.9939 23.9999C8.3779 24.011 7.5883 24.0666 7.0899 24.1221C6.6251 24.1777 5.9419 24.3166 5.3259 24.5054C4.7323 24.6888 4.1051 24.9777 3.6235 25.2888C3.2707 25.5166 2.5931 26.0277 2.1451 26.7054C1.8651 27.1332 1.5403 27.7443 1.4115 28.3388C1.2715 28.9666 1.2491 29.5277 1.3107 30.0832C1.3723 30.6443 1.5123 31.0721 1.6747 31.3943C1.9211 31.8888 2.3579 32.4054 2.4195 32.4721C2.9291 33.0388 3.6403 33.4777 4.0827 33.6888C4.5979 33.9332 5.4043 34.1499 5.7011 34.211C5.9979 34.2721 6.9667 34.4166 7.1067 34.4332C7.2467 34.4499 8.4451 34.5777 8.5123 34.5832C8.7699 34.6054 9.1619 34.6277 9.6267 34.6277C10.1979 34.6332 12.8579 34.2221 12.9699 34.2055C13.0819 34.1888 14.3811 34.0166 14.4483 34.0054C15.3779 33.8443 15.9995 34.6832 16.0331 34.7277C16.2403 34.9777 16.4195 35.3443 16.4867 35.4666C16.5539 35.5888 16.6435 35.7721 16.7051 35.8443C16.7051 35.8443 16.8227 36.3166 16.8171 36.7777C16.8563 36.4054 16.7555 35.8554 16.7499 35.8221C16.6491 35.1888 16.4195 34.6888 16.2123 34.3388ZM11.1051 38.2277C10.6739 38.3777 9.3859 38.4166 8.7699 38.3777C8.4451 38.3554 5.6395 38.1888 5.3819 38.1832C4.5811 38.161 3.6683 38.1388 2.9515 38.511C2.3411 38.8332 1.8371 39.5888 1.7699 40.6554C2.0107 39.6888 2.2515 39.3721 2.6491 39.0054C3.0971 38.5888 3.6459 38.4943 3.8475 38.4721C4.6147 38.3777 5.7123 38.4332 6.1379 38.4499C6.5635 38.4721 8.9603 38.6054 9.1227 38.611C10.0915 38.6388 10.6291 38.5499 10.7691 38.5277C11.6091 38.3777 11.9115 38.0277 12.0011 37.9221C12.2195 37.6721 12.5163 37.2221 12.3147 36.8443C12.3035 37.661 11.6427 38.0388 11.1051 38.2277ZM23.3411 18.0832C23.3411 17.9499 23.4083 17.7999 23.2571 17.761C23.1059 17.7221 22.5067 17.6943 21.9635 17.6943C21.1011 17.6943 20.2443 18.0277 19.7291 18.4443C19.5443 18.5943 19.0795 19.1554 18.9395 19.8888C18.7939 20.6221 18.8331 21.5221 18.8331 21.6443C18.8331 21.7666 18.8275 25.1277 18.8387 26.2832C18.8387 26.4166 18.8499 32.6721 18.8611 33.7221C18.8611 33.8943 18.8667 39.8055 18.8835 39.9666C18.8891 39.2666 18.9171 35.1443 19.0515 34.2443C19.1915 33.3443 19.3763 33.3277 19.9083 33.2499C20.4403 33.1721 21.8347 32.9999 22.2771 32.9499C22.8987 32.8721 23.0555 32.4888 23.0947 32.0054C23.2571 30.1888 23.2739 28.1332 23.2963 27.3166C23.3019 27.1332 23.3299 23.4166 23.3355 23.0443C23.3411 22.6721 23.3411 18.2166 23.3411 18.0832ZM23.3691 32.5888C23.3691 32.5054 23.3299 27.2943 23.3299 27.2943C23.3131 27.5832 23.3187 31.6888 23.3243 31.8277V32.8332C23.3187 32.861 23.3411 32.861 23.3635 32.8443C23.3859 32.8332 23.4251 32.8443 23.4027 32.8054C23.3859 32.7777 23.3747 32.6721 23.3691 32.5888ZM52.4891 24.4499C52.2819 24.3832 51.3859 24.1443 50.6635 24.1499C50.1371 24.1554 49.2691 24.211 48.5243 24.6554C48.3451 24.761 47.9083 25.1221 47.5891 25.5332C47.4267 25.7443 47.1411 26.2221 46.8163 27.011L46.4635 27.8221L45.8587 29.211L45.3379 30.3943L44.7835 31.6499L43.8259 33.861C43.8259 33.861 43.6579 34.261 43.6299 34.3332C43.6131 34.3721 43.5963 34.411 43.5403 34.4277C43.5571 34.4166 43.5795 34.3721 43.5851 34.3555C43.5907 34.3332 43.6187 34.2888 43.6579 34.211C43.6971 34.1332 43.9939 33.461 43.9939 33.461L44.7387 31.7332L44.1451 33.061C44.1451 33.061 43.7475 33.961 43.7139 34.0221C43.6803 34.0832 43.5907 34.2554 43.5627 34.2832C43.5347 34.311 43.4563 34.3721 43.4787 34.3999C43.4787 34.3999 43.4171 34.4499 43.3443 34.4499C43.2379 34.4443 43.1539 34.4277 42.9915 34.1888C42.8739 34.0166 42.7227 33.7888 42.5827 33.5777C42.5043 33.461 40.9027 30.861 40.8075 30.7054C40.7123 30.5499 39.6931 28.9054 39.6147 28.7666C39.5363 28.6277 38.0411 26.1943 37.9459 26.0499C37.8507 25.9054 37.0275 24.561 36.9939 24.5054C36.8539 24.2832 36.6971 24.211 36.5459 24.1832C35.8067 24.0443 34.9667 23.9999 34.7987 23.9999C33.8187 23.9999 33.0179 24.2054 32.6371 24.361C32.0099 24.6166 31.4163 25.0221 31.0019 25.3666C30.4587 25.8166 29.7979 26.5166 29.6579 26.6666C29.5179 26.8166 28.7563 27.6443 28.3307 28.111C28.3307 28.111 25.7715 30.8832 25.6651 30.9943C25.5587 31.1055 24.2539 32.4888 24.1251 32.6721C24.0523 32.7777 24.1083 32.8166 24.1979 32.8277C24.2987 32.8277 24.4107 32.8166 24.4947 32.7943C24.5787 32.7721 24.8587 32.6388 25.0323 32.5721C25.3851 32.4332 27.0819 32.2277 27.3003 32.1943C27.5187 32.1666 28.8403 31.9832 28.9019 31.9777C29.3051 31.9277 29.4955 31.8777 29.5515 31.861C30.0499 31.6943 30.4419 31.3443 30.4979 31.3054C30.7835 31.0888 31.5115 30.3888 31.5619 30.3388C31.7019 30.1943 32.6819 29.2332 32.7267 29.1943C32.9619 28.961 33.5219 28.461 33.6283 28.3721C33.7347 28.2832 33.8803 28.2166 33.9979 28.2166C34.1099 28.2166 34.1715 28.261 34.2387 28.2999C34.3059 28.3443 34.3563 28.4443 34.3731 28.4777C34.3899 28.5054 34.5803 28.7832 34.6307 28.8666C34.6867 28.9499 35.3811 29.9277 35.4819 30.061C35.5827 30.1943 35.8515 30.5332 35.9915 30.661C36.1315 30.7888 36.2883 30.8666 36.3891 30.8943C36.4899 30.9221 36.7083 30.9166 36.8539 30.8999C36.9995 30.8832 38.2987 30.6999 38.3939 30.6888C38.4891 30.6777 39.3291 30.561 39.4971 30.5388C39.7099 30.511 39.9227 30.4999 39.9955 30.5054C40.2139 30.5221 40.3483 30.6277 40.3875 30.6499C40.5275 30.7332 40.7739 31.0499 40.7963 31.0777C40.9419 31.2499 41.2947 31.7943 41.3227 31.8443C41.4459 32.0221 42.1795 33.1499 42.2355 33.2332C42.2915 33.3166 42.8795 34.2166 42.9131 34.2721C42.9523 34.3277 43.0755 34.5054 43.1371 34.5666C43.2155 34.6388 43.2995 34.6554 43.3499 34.6554C43.4787 34.6554 43.5403 34.6166 43.5907 34.5832C43.6803 34.5166 43.7643 34.311 43.7811 34.2721C43.9379 33.8888 44.4531 32.7443 44.4755 32.6943C44.6715 32.2499 45.1195 31.2999 45.1867 31.1666C45.4387 30.661 45.6459 30.2999 45.6795 30.2499C45.9035 29.911 46.0155 29.8221 46.1555 29.7221C46.2955 29.6221 46.5307 29.5832 46.7547 29.561L47.9979 29.3943C47.9979 29.3943 49.2747 29.2221 49.4427 29.1999C49.6107 29.1721 49.7899 29.1054 49.8739 29.0554C50.0083 28.9721 50.1819 28.761 50.2043 28.7332C50.4171 28.4499 50.6299 28.061 50.6971 27.9332C50.7643 27.8054 51.2011 26.9666 51.2515 26.8499C51.3075 26.7332 51.9571 25.3999 51.9739 25.3721C52.1363 25.0332 52.2763 24.7666 52.2987 24.7277C52.3771 24.5832 52.4443 24.5499 52.5003 24.5277C52.5507 24.5054 52.5339 24.4666 52.4891 24.4499ZM35.2971 41.861C35.2635 41.8166 34.2947 40.3721 34.2163 40.2554C34.1379 40.1388 32.9003 38.3221 32.8555 38.2666C32.3067 37.4999 30.8059 35.2277 30.7331 35.1221C30.6603 35.0166 29.7139 33.5499 29.6971 33.5166C29.5795 33.3054 29.5291 33.211 29.5347 33.1499C29.4115 33.161 29.3443 33.1554 29.3219 33.2277C29.3051 33.2999 29.3891 33.4055 29.5123 33.5777C29.5963 33.6999 30.1899 34.5832 30.3243 34.7721C30.4587 34.961 31.1755 36.011 31.3435 36.2499C31.4499 36.4054 32.3123 37.6221 32.4299 37.7943C32.5475 37.961 33.1467 38.8055 33.2755 38.9832C33.4043 39.161 34.7819 41.1832 34.8267 41.2499C34.8659 41.311 35.1067 41.6666 35.1739 41.7554C35.2355 41.8388 35.3027 41.8999 35.3307 41.9166C35.3587 41.9277 35.3699 41.9443 35.3699 41.9666C35.4035 41.9499 35.3363 41.9166 35.2971 41.861ZM41.2779 39.6277C41.2331 39.6166 41.2275 39.6277 41.2219 39.6499C41.2163 39.6721 41.1827 39.7777 41.1659 39.8277C41.1435 39.8777 40.7627 40.6943 40.7347 40.7499C40.7067 40.7999 40.2699 41.7388 40.2251 41.8166C40.1859 41.8943 39.7267 42.8721 39.6931 42.9388C39.6595 43.0055 39.2115 43.961 39.1835 44.0221C39.1555 44.0832 38.7075 45.0332 38.6739 45.0999C38.6403 45.1721 38.1195 46.2499 38.0747 46.3388C38.0299 46.4277 37.7443 47.0221 37.7163 47.0832C37.6883 47.1443 37.4251 47.6721 37.3915 47.7443C37.3635 47.7999 37.2123 48.1166 37.1955 48.1443C37.1787 48.1721 37.1843 48.211 37.1899 48.2166C37.2011 48.2221 37.2627 48.1221 37.2907 48.061C37.3187 47.9999 37.9683 46.6999 38.0019 46.6277C38.0411 46.5499 38.8139 44.961 38.8363 44.9166C38.8923 44.7999 39.5251 43.461 39.5475 43.4221C39.6763 43.1332 40.4883 41.4499 40.5331 41.3555C40.5779 41.261 40.9531 40.4888 40.9811 40.4332C41.0371 40.3166 41.2611 39.9055 41.3003 39.8332C41.3395 39.761 41.3955 39.6499 41.3451 39.5721C41.3339 39.5943 41.3227 39.6388 41.2779 39.6277Z" fill="white"/>
<path d="M96.8069 2.88275C96.5101 1.96608 95.7821 1.21608 94.8749 0.888304C93.9957 0.571637 92.9989 0.660526 92.1925 1.12719C91.8901 1.30497 91.6325 1.53275 91.3693 1.76608C91.2181 1.90497 87.0685 5.6883 84.5541 8.31053C83.7309 9.17164 72.9734 20.755 70.2686 23.7383C63.6046 16.0383 57.8141 9.38275 57.8029 9.37164C54.3197 5.5883 48.0701 13.3661 53.2053 18.5161C57.5733 22.8772 61.0565 26.3939 64.7077 30.0772C59.0517 36.805 53.0205 44.4383 47.7173 51.455C43.9485 56.4439 52.3317 62.4327 55.9885 57.3827C63.0725 47.6105 71.1086 36.5216 71.1086 36.5216C75.6054 41.0272 80.9813 46.3772 88.5805 53.8605C91.1061 56.205 95.2053 52.255 90.0701 46.7494C90.0701 46.7494 76.4285 30.1327 76.3837 30.0827C76.8093 29.2994 78.4109 27.0494 91.3077 11.4494C91.3245 11.4272 96.2693 5.82719 96.4373 5.57164C96.9581 4.78275 97.0925 3.77719 96.8069 2.88275Z" fill="url(#paint1_linear)"/>
<path opacity="0.25" d="M53.8214 44.1946C53.8214 44.1946 64.0638 32.578 71.4838 29.6613C77.8959 27.1391 80.6847 23.4613 80.6847 23.4613C82.9247 20.6669 95.9839 5.57797 96.0567 5.47797C96.5215 4.77797 96.6447 3.87797 96.3871 3.07797C96.1239 2.25575 95.5359 1.66131 94.7239 1.36686C94.4159 1.25575 94.0911 1.2002 93.7607 1.2002C93.2511 1.2002 92.7583 1.33353 92.3271 1.58353C92.0583 1.73908 91.8231 1.94464 91.5655 2.17797C91.5263 2.21686 87.3207 6.04464 84.7895 8.68908C84.0615 9.44464 73.2815 21.0502 70.5542 24.0613L70.3022 24.3391L70.0614 24.0557C63.5654 16.5502 57.7302 9.84464 57.6406 9.73908C57.0974 9.14464 56.4646 8.84464 55.7702 8.84464C54.387 8.84464 52.903 10.0724 52.1638 11.8391C51.2006 14.128 51.7102 16.5835 53.5302 18.4113C57.2878 22.1669 60.4518 25.3502 63.5094 28.4335L65.2062 30.1446L65.0158 30.3724C61.4822 34.5613 57.6462 39.3058 53.8214 44.1946Z" fill="white"/>
<path opacity="0.25" fill-rule="evenodd" clip-rule="evenodd" d="M76.2549 30.2832C76.2605 30.361 76.3333 30.4832 76.5181 30.7443C76.5461 30.7832 77.9685 32.5999 78.0805 32.7276C78.1925 32.8554 80.4437 35.661 81.2669 36.6054C81.3341 36.6776 83.1877 38.9165 83.3053 39.061C83.4229 39.2054 85.0749 41.1388 85.0245 41.1721C84.9965 41.1888 84.8341 41.0276 84.7445 40.9221C84.6493 40.811 84.2909 40.3776 84.2237 40.2943C84.1621 40.2165 82.0901 37.7221 81.8997 37.4999C81.7093 37.2776 80.8133 36.2443 80.6397 36.0388C80.4661 35.8332 79.1837 34.3332 79.0213 34.1443C78.7749 33.8499 77.6997 32.5554 77.4981 32.3277C77.2965 32.0999 76.4117 31.011 76.2829 30.8554C76.1037 30.6388 75.9749 30.5165 75.9917 30.4165C76.0029 30.311 76.0925 30.311 76.2549 30.2832Z" fill="white"/>
<defs>
<linearGradient id="paint0_linear" x1="1.04469" y1="33.1358" x2="52.7706" y2="33.1358" gradientUnits="userSpaceOnUse">
<stop stop-color="#951981"/>
<stop offset="1" stop-color="#134094"/>
</linearGradient>
<linearGradient id="paint1_linear" x1="46.7596" y1="29.9994" x2="96.9547" y2="29.9994" gradientUnits="userSpaceOnUse">
<stop stop-color="#EC6602"/>
<stop offset="1" stop-color="#E50071"/>
</linearGradient>
</defs>
</svg>
