<svg width="129" height="27" viewBox="0 0 129 27" fill="none" xmlns="http://www.w3.org/2000/svg">
<path d="M127.12 0H45.2194V27H127.119C128.15 27 128.965 26.1898 128.965 25.1643V10.4217V10.3944V1.83574C128.966 0.810152 128.151 0 127.12 0Z" fill="url(#paint0_linear)"/>
<path d="M45.2195 0H1.87987C0.848381 0 0.0335693 0.810152 0.0335693 1.83574V18.0893V25.1643C0.0335693 26.1898 0.848381 27 1.87987 27H45.2195V13.7159V0Z" fill="url(#paint1_linear)"/>
<path d="M21.5031 18.2343C21.5031 19.3641 21.0575 20.0053 18.8501 20.0053C18.5602 20.0053 18.3079 19.9881 18.0567 19.9538V4.9442C18.0567 3.81039 18.4432 2.625 20.671 2.625C20.9619 2.625 21.2325 2.65029 21.5041 2.71198V18.2343H21.5031ZM16.9041 15.9354C16.9041 18.0442 15.5237 19.5866 12.7232 19.889C10.6816 20.1075 7.72654 19.8526 6.32681 19.6938C6.26781 19.4652 6.22915 19.182 6.22915 18.9535C6.22915 17.1106 7.22097 16.6848 8.17412 16.6848C9.14559 16.6848 10.6816 16.8608 11.8301 16.8608C13.0742 16.8608 13.4628 16.439 13.4628 16.0335C13.4628 15.5035 12.9572 15.283 11.9857 15.0999L9.30225 14.5871C7.08567 14.1623 5.89957 12.6381 5.89957 11.0168C5.89957 9.03946 7.29929 7.3878 10.0611 7.08842C12.1414 6.85984 14.6886 7.11472 16.0893 7.28363C16.1473 7.52131 16.1666 7.75192 16.1666 7.98859C16.1666 9.83343 15.1951 10.2309 14.241 10.2309C13.5421 10.2309 12.414 10.0974 11.1313 10.0974C9.82816 10.0974 9.28292 10.4565 9.28292 10.8894C9.28292 11.3485 9.80782 11.5336 10.6053 11.6813L13.1718 12.1496C15.777 12.627 16.9041 14.1097 16.9041 15.9354ZM30.5972 24.0348C30.8902 24.1876 31.4731 24.3615 32.233 24.3808C33.5167 24.405 34.2176 23.9216 34.7435 22.7645L41.674 7.40904C41.4014 7.25935 40.7585 7.08943 40.2336 7.08336C39.3577 7.06415 38.1503 7.24013 37.3924 9.04957L35.1535 14.313L30.7539 7.19563C30.4619 7.10865 29.7814 6.98627 29.2748 6.98627C27.7174 6.98627 26.8416 7.55064 25.9454 8.52161L21.6821 13.1762L25.1082 18.5509C25.7511 19.534 26.5883 20.0347 27.931 20.0347C28.8262 20.0347 29.5658 19.8314 29.9157 19.6635L25.7887 13.4634L28.7082 10.3654L33.5157 17.8803" fill="white"/>
<path d="M51.5731 17.5798C52.2109 17.5798 53.7388 18.2514 55.7255 18.2514C57.4884 18.2514 58.7894 17.683 58.7894 16.4096C58.7894 13.5786 50.7542 15.0897 50.7542 10.5413C50.7542 8.81174 52.0319 6.99219 55.6706 6.99219C58.3154 6.99219 60.2238 7.80638 60.2238 7.80638C60.2238 7.80638 60.2563 7.94394 60.2563 8.20994C60.2563 8.82995 60.0274 9.37814 59.5025 9.37409C58.6725 9.37409 57.6705 8.74903 55.6472 8.74903C53.7246 8.74903 52.8498 9.47625 52.8498 10.4442C52.8498 13.1973 60.8819 11.7135 60.8819 16.3398C60.8819 18.4011 59.2604 20.0638 55.6797 20.0638C52.863 20.0638 50.7888 19.1971 50.7888 19.1971C50.7888 19.1971 50.7583 19.0484 50.7583 18.7804C50.7573 17.774 51.2517 17.5798 51.5731 17.5798Z" fill="white"/>
<path d="M69.7492 6.98242C66.6395 6.98242 65.2876 9.17823 65.2876 9.17823V7.93923C65.2876 7.36171 64.9143 7.13919 64.2317 7.13919C63.6915 7.14526 63.2511 7.27776 63.2511 7.27776V24.031C63.2511 24.031 63.599 24.1423 64.2032 24.1423C64.901 24.1423 65.2876 23.9501 65.2876 23.2745V17.8461C65.2876 17.8461 66.5998 20.0369 69.7136 20.0369C73.0288 20.0369 75.8273 17.5225 75.8273 13.5102C75.8262 9.00426 72.4846 6.98242 69.7492 6.98242ZM69.3535 8.80299C71.9322 8.80299 73.7358 10.8653 73.7358 13.498C73.7358 15.9517 72.2008 18.2517 69.2854 18.2517C67.3027 18.2517 65.784 16.8742 65.2866 15.8233V11.2334C65.7698 10.2089 67.2621 8.80299 69.3535 8.80299Z" fill="white"/>
<path d="M84.3595 6.99023C80.848 6.99023 77.8562 9.53195 77.8562 13.5089C77.8562 17.3836 80.7168 20.0407 84.3494 20.0407C88.04 20.0407 90.8445 17.3442 90.8445 13.5099C90.8445 9.59263 87.9586 6.99023 84.3595 6.99023ZM84.3483 8.80372C86.9434 8.80372 88.7612 10.8256 88.7612 13.4816C88.7612 16.4703 86.7542 18.2484 84.3514 18.2484C81.9497 18.2484 79.9467 16.3884 79.9467 13.4927C79.9467 10.6647 81.9252 8.80372 84.3483 8.80372Z" fill="white"/>
<path d="M113.574 17.5798C114.212 17.5798 115.74 18.2514 117.727 18.2514C119.49 18.2514 120.791 17.683 120.791 16.4096C120.791 13.5786 112.755 15.0897 112.755 10.5413C112.755 8.81174 114.033 6.99219 117.672 6.99219C120.317 6.99219 122.225 7.80638 122.225 7.80638C122.225 7.80638 122.258 7.94394 122.258 8.20994C122.258 8.82995 122.029 9.37814 121.504 9.37409C120.674 9.37409 119.672 8.74903 117.648 8.74903C115.726 8.74903 114.851 9.47625 114.851 10.4442C114.851 13.1973 122.883 11.7135 122.883 16.3398C122.883 18.4011 121.262 20.0638 117.681 20.0638C114.864 20.0638 112.79 19.1971 112.79 19.1971C112.79 19.1971 112.76 19.0484 112.76 18.7804C112.759 17.774 113.254 17.5798 113.574 17.5798Z" fill="white"/>
<path d="M93.3494 19.7647V7.28578C93.3494 7.28578 93.7349 7.1543 94.3137 7.1543C95.1631 7.1543 95.392 7.45469 95.392 7.99378V9.45124C96.1366 8.34778 97.5821 7.18059 99.8923 7.18059C100.471 7.18059 100.944 7.29084 100.944 7.29084C100.944 7.29084 101.018 7.55988 101.018 8.12021C101.018 8.68762 100.91 9.07297 99.8841 9.07297C97.7672 9.07297 96.2475 10.0257 95.392 11.8271V19.1164C95.392 19.612 95.0471 19.878 94.3249 19.878C93.7369 19.878 93.3494 19.7647 93.3494 19.7647Z" fill="white"/>
<path d="M107.073 20.0448C104.388 20.0448 103.071 18.4164 103.071 16.3086V4.97355C103.071 4.50425 103.247 4.1543 104.169 4.1543C104.709 4.1543 105.114 4.30095 105.114 4.30095V7.27252H110.163C110.163 7.27252 110.235 7.59517 110.235 8.08975C110.235 8.90395 109.878 9.07084 109.468 9.07084H105.113V16.1994C105.113 17.3564 105.754 18.1959 107.282 18.1959C108.522 18.1959 109.379 17.6993 109.936 17.6993C110.685 17.6993 110.799 18.5216 110.716 19.2114C110.716 19.2114 109.177 20.0448 107.073 20.0448Z" fill="white"/>
<path opacity="0.2" d="M128.966 1.83574C128.966 0.810152 128.151 0 127.12 0H45.2195H1.87987C0.848382 0 0.0335693 0.810152 0.0335693 1.83574V18.0893C0.0335693 17.0941 0.658157 15.5395 2.76182 15.407L45.2195 13.7159L128.966 10.3954V1.83574Z" fill="white"/>
<defs>
<linearGradient id="paint0_linear" x1="87.0926" y1="26.9998" x2="87.0926" y2="0.0438275" gradientUnits="userSpaceOnUse">
<stop stop-color="#B00005"/>
<stop offset="0.25" stop-color="#B70007"/>
<stop offset="0.5" stop-color="#BE010A"/>
<stop offset="0.75" stop-color="#C6010D"/>
<stop offset="1" stop-color="#CD010F"/>
</linearGradient>
<linearGradient id="paint1_linear" x1="22.6266" y1="6.3388e-05" x2="22.6266" y2="26.9998" gradientUnits="userSpaceOnUse">
<stop stop-color="#001455"/>
<stop offset="0.25" stop-color="#001150"/>
<stop offset="0.5" stop-color="#000E4B"/>
<stop offset="0.75" stop-color="#000B46"/>
<stop offset="1" stop-color="#000841"/>
</linearGradient>
</defs>
</svg>
