<svg width="122" height="43" viewBox="0 0 122 43" fill="none" xmlns="http://www.w3.org/2000/svg">
<path d="M54.2391 40.3661C54.0666 40.7094 53.8101 41.2277 52.9516 41.2277H49.0047C48.6191 41.2277 48.1467 40.8819 48.1467 40.3661C48.1467 39.9784 48.2323 39.7624 48.3606 39.5049L52.8238 30.4159L42.9988 15.6872L37.9366 21.1146L44.4146 30.8048C44.7997 31.3211 44.8858 31.5794 44.8858 31.8385C44.8858 32.2693 44.4145 32.6566 43.8564 32.6566H39.3945C38.7504 32.6566 38.3652 32.2262 37.9366 31.6225L30.4288 20.7257L38.7504 11.7242C39.3519 11.0363 39.9088 10.6902 40.9393 10.6902H45.745C46.7736 10.6902 47.3317 11.079 47.8455 11.8971L55.6975 24.4308L61.274 11.7242C61.5321 11.079 61.9181 10.6902 62.7323 10.6902H66.7226C67.1939 10.6902 67.6237 11.0791 67.6237 11.5509C67.6237 11.8121 67.5385 12.1131 67.3656 12.4145L54.2391 40.3661ZM30.0416 30.4159C30.0416 31.8385 28.9701 32.6566 27.8112 32.6566H24.421C24.0357 32.6566 23.5639 32.2693 23.5639 31.6225V3.41304C23.5639 1.68785 24.421 1.12891 25.9241 1.12891H28.9701C29.613 1.12891 30.0416 1.5597 30.0416 2.16297V30.4159ZM15.6702 19.6498C19.7452 20.5968 21.6755 22.7084 21.6755 26.1971C21.6755 29.7712 19.2308 32.6566 13.3959 32.6566H2.32725C1.76968 32.6566 1.51287 32.2693 1.51287 31.6225V29.5125C1.51287 28.3063 2.15512 27.3162 3.74271 27.3162H13.7391C14.855 27.3162 15.2838 26.7983 15.2838 26.4115C15.2838 25.8074 14.855 25.4213 13.5255 25.1199L7.17487 23.7405C3.22881 22.8789 1.12646 20.7257 1.12646 17.4092C1.12646 13.6191 3.74271 10.6902 8.76278 10.6902H19.8756C20.4748 10.6902 20.9036 11.079 20.9036 11.7242V13.8351C20.9036 15.0396 20.2604 16.0741 18.6293 16.0741H9.02084C7.73341 16.0741 7.34624 16.504 7.34624 16.8937C7.34624 17.5389 7.73341 17.7972 9.19129 18.1418L15.6702 19.6498Z" fill="#054AAE"/>
<path d="M90.0282 28.0888V15.9444C90.0282 15.5132 89.8126 15.2976 89.4697 15.2118C88.6981 15.0385 87.2389 14.866 85.608 14.866C80.4175 14.866 78.7875 15.8154 78.7875 22.1895C78.7875 26.7126 79.7308 28.5196 85.3519 28.5196C87.1529 28.5196 89.3406 28.3056 90.0282 28.0888ZM77.1574 41.4409C76.2125 41.2681 75.5704 40.8381 75.6126 39.7182L75.6995 37.779C75.6995 37.4792 75.8273 37.3075 76.0839 37.3075C76.9849 37.349 79.1743 37.8669 84.1087 37.8669C89.2119 37.8669 90.0282 36.4882 90.0282 32.4386C89.1271 32.5684 87.3258 32.697 85.0081 32.697C79.2583 32.697 73.9399 31.1914 73.9399 22.1036C73.9399 15.1686 75.6548 10.6895 85.2655 10.6895C88.3121 10.6895 90.7571 10.9905 93.1596 11.4656C94.2742 11.6796 94.7901 12.1974 94.7901 13.3169V31.0612C94.7901 39.202 92.3024 41.8709 84.2779 41.8709C80.8458 41.8709 78.4871 41.6569 77.1574 41.4409Z" fill="#07B4C9"/>
<path d="M115.981 21.5862C115.981 16.8491 114.738 14.8253 109.633 14.8253C104.528 14.8253 103.283 16.8491 103.283 21.5862C103.283 27.6169 104.999 28.9512 109.633 28.9512C114.266 28.9512 115.981 27.6169 115.981 21.5862ZM98.3911 21.5862C98.3911 13.188 103.412 10.6895 109.633 10.6895C115.853 10.6895 120.873 13.188 120.873 21.5862C120.873 28.3056 118.643 33.1713 109.633 33.1713C100.623 33.1713 98.3911 28.3056 98.3911 21.5862Z" fill="#07B4C9"/>
</svg>
