<svg width="85" height="49" viewBox="0 0 85 49" fill="none" xmlns="http://www.w3.org/2000/svg">
<path d="M42.5576 0H78.8378C82.6004 0 84.7722 2.1627 84.7722 5.91622C84.7722 18.322 84.7722 30.7218 84.7722 43.1156C84.7722 46.7987 82.5913 49 78.9377 49H5.9846C2.4217 49.0023 0.163691 46.7806 0.152344 43.2154C0.152344 30.7294 0.152344 18.2426 0.152344 5.75509C0.163691 2.20355 2.4217 0 6.01637 0C18.1983 0 30.3787 0 42.5576 0ZM48.6849 28.7528C49.1387 28.401 49.2204 27.9018 49.3929 27.4706C51.4172 22.4568 53.4308 17.44 55.4339 12.4202C55.6813 11.7961 55.9309 11.4149 56.7184 11.4285C59.5551 11.4784 62.3918 11.4693 65.2308 11.4285C66.0568 11.4285 66.1975 11.6191 65.8435 12.3725C61.5045 21.5574 57.1813 30.7506 52.8741 39.9521C52.6086 40.5171 52.275 40.7146 51.6736 40.7032C49.9716 40.6737 48.2696 40.6193 46.5653 40.7191C45.4465 40.7849 44.8859 40.4264 44.4048 39.3825C41.3639 32.7673 38.2435 26.1884 35.1413 19.6005C34.9144 19.1148 34.8077 18.552 34.0066 18.5747C31.9143 18.6314 29.8174 18.5974 27.7205 18.5906C27.2825 18.5906 26.9444 18.6496 26.9557 19.2101C27.0261 23.3109 26.7424 27.4184 27.1214 31.5123C27.2576 33.0078 28.1472 33.7045 29.6926 33.7817C31.1396 33.8398 32.579 33.5446 33.8864 32.9216C34.608 32.5835 34.8599 32.7764 35.139 33.4231C35.7949 34.9436 36.4621 36.4641 37.2269 37.9323C37.6512 38.7493 37.3903 39.067 36.6482 39.362C32.9764 40.853 29.1593 41.4635 25.2356 40.9982C19.0697 40.2652 16.5666 37.2924 16.5666 31.0721C16.5666 27.2732 16.5417 23.4742 16.5825 19.6753C16.5825 18.813 16.3306 18.5407 15.4705 18.5815C14.1089 18.6496 12.7632 18.5679 11.4106 18.611C10.7071 18.6337 10.3849 18.4635 10.4076 17.6783C10.4575 15.9332 10.462 14.1835 10.4076 12.4406C10.3758 11.5737 10.7502 11.4126 11.4991 11.4376C12.7632 11.4784 14.034 11.3967 15.2958 11.4648C16.2262 11.5147 16.6347 11.2923 16.5916 10.253C16.5099 8.33536 16.519 6.40867 16.5916 4.49106C16.6256 3.53339 16.258 3.33142 15.382 3.34277C12.3275 3.38815 9.27063 3.35638 6.2138 3.36319C4.21223 3.36319 3.53369 4.03265 3.53142 6.01834C3.53142 18.3319 3.53142 30.6447 3.53142 42.9567C3.53142 44.9651 4.19861 45.6391 6.18657 45.6391C27.5775 45.6391 48.97 45.6391 70.364 45.6391C72.0184 45.6391 72.6538 45.0309 72.6538 43.3516C72.6644 30.7778 72.6644 18.2033 72.6538 5.62801C72.6538 3.95549 72.0161 3.35865 70.3459 3.35865C64.845 3.35865 59.3433 3.35865 53.8408 3.35865C45.3285 3.35865 36.8206 3.37908 28.3015 3.33369C27.2054 3.33369 26.8786 3.63778 26.9399 4.72481C27.0284 6.55391 27.0193 8.39436 26.9399 10.2235C26.899 11.2265 27.2462 11.4784 28.2084 11.4648C32.2683 11.4171 36.3305 11.4875 40.3881 11.4171C41.4411 11.399 41.9063 11.7349 42.283 12.6993C44.3663 18.0596 46.5335 23.388 48.6849 28.7528Z" fill="#1A82C3"/>
</svg>
