<svg width="149" height="29" viewBox="0 0 149 29" fill="none" xmlns="http://www.w3.org/2000/svg">
<g clip-path="url(#clip0)">
<path d="M144.848 18.1874C143.766 16.3266 142.056 16.3266 141.847 16.3266L149 14.852L141.847 13.3775C141.916 13.3072 143.312 12.0784 145.406 12.0433C146.976 12.0082 148.337 10.1123 147.465 8.60264C147.465 8.60264 147.185 10.9198 144.254 10.1474C142.196 9.58569 140.974 10.7794 140.835 10.9549L144.848 4.84599L138.741 8.84841C138.741 8.74308 138.846 6.8823 140.311 5.40772C141.393 4.28424 141.009 1.96705 139.334 1.51064C139.334 1.51064 140.8 3.3363 138.183 4.88109C136.333 5.96947 136.333 7.6547 136.333 7.86535L134.833 0.703125L133.332 7.86535C133.263 7.79513 132.041 6.39078 132.006 4.31935C131.971 2.73945 130.052 1.37019 128.587 2.24792C128.587 2.24792 130.925 2.49368 130.157 5.44283C129.599 7.51426 130.785 8.74308 130.959 8.88352L124.853 4.88109L128.133 9.86657L128.866 10.9901C128.796 10.9901 126.912 10.8847 125.411 9.41015C124.295 8.32178 121.957 8.70797 121.538 10.3581C121.538 10.3581 123.352 8.88352 124.888 11.5167C125.97 13.3775 127.679 13.3775 127.889 13.3775L120.735 14.852L127.889 16.3266C127.854 16.3617 126.423 17.6257 124.329 17.6608C122.759 17.6959 121.398 19.6269 122.271 21.1014C122.271 21.1014 122.515 18.7842 125.481 19.5566C127.575 20.1184 128.761 18.8896 128.901 18.7491L124.888 24.8581L130.994 20.8557C130.994 20.9259 130.89 22.7867 129.424 24.2963C128.342 25.4198 128.726 27.737 130.401 28.1934C130.401 28.1934 128.936 26.3678 131.553 24.823C133.402 23.7346 133.402 22.0494 133.402 21.8387L134.833 29.001L136.333 21.8387C136.403 21.9089 137.624 23.2782 137.659 25.3847C137.694 26.9646 139.613 28.3339 141.079 27.4561C141.079 27.4561 138.741 27.2104 139.509 24.2612C140.067 22.1898 138.881 20.961 138.706 20.8206L144.813 24.823L142.684 21.593L140.8 18.714C140.87 18.714 142.754 18.8194 144.254 20.2939C145.371 21.3823 147.709 20.9961 148.128 19.346C148.197 19.346 146.383 20.8206 144.848 18.1874Z" fill="#E6B12E"/>
<path d="M116.757 21.065H116.583V20.1873H116.234V20.0468H117.071V20.1873H116.757V21.065ZM118.188 21.065H118.014V20.433V20.2224L117.979 20.3979L117.769 21.1001H117.595L117.385 20.3979L117.316 20.2224V20.433V21.065H117.141V20.0117H117.385L117.665 20.8543L117.909 20.0117H118.153L118.188 21.065Z" fill="white"/>
<path d="M0.558314 12.6035C0.942155 13.727 2.12857 16.3251 4.60609 16.3251C6.38572 16.3251 7.50234 15.1314 7.50234 13.2706C7.50234 11.2694 5.96698 10.4268 4.46651 9.6895C3.69883 9.3033 0.523419 8.21492 0.523419 5.3711C0.523419 3.0188 2.26815 1.01758 5.37377 1.01758C6.03677 1.01758 6.83934 1.15802 7.32787 1.33357C7.64192 1.43889 7.95597 1.54421 8.23513 1.57932C8.33981 2.38683 8.47939 3.33477 8.65386 4.77424L8.06066 4.84446C7.67682 3.4401 7.01382 1.78998 4.88525 1.78998C3.2103 1.78998 2.33794 3.01879 2.33794 4.42315C2.33794 6.1786 3.59415 6.951 5.37377 7.7585C6.90913 8.42557 9.38665 9.40862 9.38665 12.3227C9.38665 15.0612 7.1534 17.0624 4.18735 17.0624C3.34988 17.0624 2.54731 16.8868 1.9541 16.7113C1.36089 16.5357 0.942155 16.3251 0.662998 16.2198C0.488525 15.5878 0.209368 13.9377 0 12.6386L0.558314 12.6035Z" fill="black"/>
<path d="M12.4574 9.1639C12.4574 7.75955 12.4225 7.72443 10.8522 7.54889V7.12759C11.934 6.88183 13.0855 6.60095 14.2719 6.17964V7.93509C14.7255 7.61911 15.214 7.30313 15.877 6.88182C16.5749 6.46051 17.1681 6.17964 18.0056 6.17964C19.192 6.17964 20.2389 6.88183 20.6576 8.00531C21.3206 7.51379 22.0534 7.02225 22.4023 6.8116C23.1002 6.4254 23.6934 6.14453 24.4611 6.14453C26.3454 6.14453 27.4272 7.40845 27.4272 9.26923V14.5356C27.4272 15.8697 27.5318 15.975 28.8927 16.1155V16.6421H23.9028V16.1155C25.4382 15.975 25.5777 15.8697 25.5777 14.5356V10.0065C25.5777 8.63727 25.1241 7.44357 23.3794 7.44357C22.5768 7.44357 21.6347 7.82976 20.7623 8.56705C20.7972 8.81281 20.7972 9.02347 20.7972 9.23413V14.6058C20.7972 15.9399 20.9019 16.0453 22.2977 16.1857V16.7123H17.3077V16.1857C18.8431 16.0453 18.9478 15.9399 18.9478 14.6058V9.9714C18.9478 8.60216 18.4592 7.51378 16.8192 7.51378C15.877 7.51378 14.9349 8.00531 14.2021 8.63727V14.6058C14.2021 15.9399 14.3068 16.0453 15.7375 16.1857V16.7123H10.6429V16.1857C12.248 16.0453 12.3876 15.9399 12.3876 14.6058V9.1639" fill="black"/>
<path d="M33.6384 14.6042C33.6384 15.9384 33.7431 16.0437 35.3134 16.1841V16.7108H30.149V16.1841C31.6843 16.0437 31.8239 15.9384 31.8239 14.6042V9.16233C31.8239 7.75797 31.789 7.72286 30.2187 7.54732V7.12602C31.3005 6.88025 32.452 6.59938 33.6384 6.17807V14.6042ZM33.9525 1.92988C33.9525 2.63206 33.4291 3.19381 32.7312 3.19381C32.0682 3.19381 31.5098 2.63206 31.5098 1.92988C31.5098 1.1926 32.0682 0.630859 32.7312 0.630859C33.3942 0.630859 33.9525 1.22771 33.9525 1.92988Z" fill="black"/>
<path d="M39.6403 13.6211C39.6403 15.4468 40.5126 15.7979 41.1408 15.7979C41.5595 15.7979 42.0829 15.6223 42.5365 15.3414L42.7808 15.8681L40.8616 16.8511C40.6173 16.9564 40.3382 17.0267 40.1637 17.0267C38.6632 17.0267 37.8258 16.0436 37.8258 14.1828V7.40682H36.081L35.9763 7.16105L36.6393 6.49398H37.756V5.01941L39.2913 3.47461H39.6054V6.52909H42.3272C42.5016 6.77486 42.4319 7.16106 42.1527 7.44193H39.6054L39.6403 13.6211Z" fill="black"/>
<path d="M46.8286 7.8644C47.6312 7.02179 48.8874 6.2494 50.1785 6.21429C52.2023 6.17918 53.4237 7.51331 53.4237 9.61985V14.6053C53.4237 15.9395 53.5283 16.0448 54.959 16.1501V16.7119H50.004V16.1852C51.4696 16.0448 51.6091 15.9395 51.6091 14.6053V10.322C51.6091 8.6368 51.0159 7.51331 49.3061 7.51331C48.329 7.54842 47.4916 7.89951 46.8984 8.60169V14.6053C46.8984 15.9395 47.003 16.0448 48.4337 16.1852V16.7119H43.4089V16.1852C44.8745 16.0448 45.0141 15.9395 45.0141 14.6053V2.84383C45.0141 1.40436 44.9792 1.43947 43.3391 1.29904V0.842613C44.4557 0.631959 45.9562 0.245763 46.8286 0V7.8644Z" fill="black"/>
<path d="M56.8084 13.4473C57.1923 14.8165 58.2391 16.3262 59.6349 16.3262C60.4724 16.3262 61.3098 15.7294 61.3098 14.5708C61.3098 13.5877 60.7864 12.9207 59.4953 12.3589C57.9599 11.6918 56.6688 10.8843 56.6688 9.30443C56.6688 7.6192 58.1344 6.21484 60.1583 6.21484C60.9958 6.21484 61.6588 6.39039 62.1124 6.60104C62.3567 7.12768 62.566 8.46182 62.6358 8.88313L62.0775 9.02356C61.3796 7.47877 60.6119 6.91702 59.7396 6.91702C58.6927 6.91702 58.2042 7.75964 58.2042 8.53204C58.2042 9.51509 59.2162 10.147 60.2281 10.6035C61.9379 11.3056 63.0546 12.2185 63.0546 13.7984C63.0546 15.9751 61.0656 17.0284 59.2859 17.0284C58.0995 17.0284 57.0178 16.5369 56.5642 16.1507C56.4246 15.7996 56.285 14.5006 56.285 13.5877L56.8084 13.4473Z" fill="black"/>
<path d="M64.6248 11.9025C64.6248 7.93518 67.6606 6.21484 69.8241 6.21484C72.7901 6.21484 74.9187 8.49692 74.9187 11.4461C74.9187 15.1325 72.1969 17.0284 69.8241 17.0284C66.5091 17.0284 64.6248 14.3601 64.6248 11.9025ZM72.7901 11.9727C72.7901 9.33954 71.6735 6.91702 69.5449 6.91702C67.9747 6.91702 66.7883 8.53203 66.7883 11.0248C66.7883 14.009 68.0794 16.3262 70.1382 16.3262C71.5339 16.3262 72.7901 15.1676 72.7901 11.9727Z" fill="black"/>
<path d="M80.0134 7.93509C80.467 7.61911 80.9904 7.26802 81.5836 6.88182C82.2815 6.46051 82.8747 6.17964 83.6075 6.17964C85.5267 6.17964 86.5735 7.44356 86.5735 9.30434V14.5707C86.5735 15.9048 86.6782 16.0101 88.0391 16.1506V16.6772H83.0492V16.1506C84.5846 16.0101 84.7241 15.9048 84.7241 14.5707V10.0416C84.7241 8.67238 84.2705 7.47868 82.5607 7.47868C81.6534 7.47868 80.7112 7.9702 80.0134 8.60216V14.5707C80.0134 15.9048 80.118 16.0101 81.5138 16.1506V16.6772H76.4541V16.1506C78.0593 16.0101 78.1988 15.9048 78.1988 14.5707V9.12879C78.1988 7.72443 78.1639 7.68932 76.5937 7.51378V7.09248C77.6754 6.84671 78.8269 6.56584 80.0134 6.14453V7.93509Z" fill="black"/>
<path d="M92.8197 14.6042C92.8197 15.9384 92.9244 16.0437 94.4946 16.1841V16.7108H89.2953V16.1841C90.8307 16.0437 90.9703 15.9384 90.9703 14.6042V9.16233C90.9703 7.75797 90.9354 7.72286 89.3651 7.54732V7.12602C90.4468 6.88025 91.5984 6.59938 92.7848 6.17807L92.8197 14.6042ZM93.1337 1.92988C93.1337 2.63206 92.5754 3.19381 91.9124 3.19381C91.2494 3.19381 90.6911 2.63206 90.6911 1.92988C90.6911 1.1926 91.2494 0.630859 91.9124 0.630859C92.5754 0.630859 93.1337 1.22771 93.1337 1.92988Z" fill="black"/>
<path d="M102.555 17.0284C101.753 16.888 101.404 16.0805 101.264 15.4836C100.287 16.1156 98.996 17.0284 98.5075 17.0284C96.7977 17.0284 95.681 15.624 95.681 14.325C95.681 13.2366 96.2393 12.4291 97.4607 11.9376C98.6122 11.4812 100.531 10.779 101.229 10.2875V9.47997C101.229 8.0054 100.566 7.233 99.3101 7.233C98.1586 7.233 97.67 8.21605 97.4258 9.19911C97.356 9.47998 97.1466 9.65552 96.9023 9.65552C96.5185 9.65552 95.8904 9.26932 95.8904 8.84802C95.8904 8.53204 96.1696 8.21606 96.693 7.82986C97.2513 7.40855 98.6471 6.49572 100.322 6.21484C100.985 6.21484 101.718 6.4255 102.171 6.77659C102.939 7.37344 103.079 8.21606 103.079 9.05867V14.3601C103.079 15.2378 103.393 15.624 103.742 15.624C103.916 15.624 104.335 15.5187 104.754 15.3081L104.963 15.8347L102.555 17.0284ZM101.264 11.0248C100.741 11.2354 99.345 11.8674 98.8913 12.1131C98.0539 12.5696 97.67 13.026 97.67 13.8686C97.67 15.1325 98.5075 15.6943 99.2054 15.6943C99.7288 15.6943 100.601 15.273 101.264 14.7814V11.0248Z" fill="black"/>
<path d="M109.29 7.93509C109.744 7.61911 110.267 7.26802 110.86 6.88182C111.558 6.46051 112.151 6.17964 112.884 6.17964C114.803 6.17964 115.85 7.44356 115.85 9.30434V14.5707C115.85 15.9048 115.955 16.0101 117.316 16.1506V16.6772H112.326V16.1506C113.861 16.0101 114.001 15.9048 114.001 14.5707V10.0416C114.001 8.67238 113.547 7.47868 111.802 7.47868C110.895 7.47868 109.953 7.9702 109.255 8.60216V14.5707C109.255 15.9048 109.36 16.0101 110.755 16.1506V16.6772H105.696V16.1506C107.301 16.0101 107.441 15.9048 107.441 14.5707V9.12879C107.441 7.72443 107.406 7.68932 105.835 7.51378V7.09248C106.917 6.84671 108.069 6.56584 109.255 6.14453V7.93509" fill="black"/>
<path d="M60.4723 26.3317C60.1932 26.753 59.914 27.2094 59.3208 27.5956C59.0068 27.8062 58.274 28.2627 57.2271 28.2627C55.2381 28.2627 53.633 26.8232 53.633 24.2602C53.633 22.0133 55.1335 20.2578 57.262 20.2578C58.1344 20.2578 58.9021 20.5738 59.4604 20.9951C59.9838 21.4164 60.2281 21.8377 60.4374 22.1888L58.937 22.9261C58.8323 22.6803 58.6927 22.4346 58.3787 22.1537C58.0297 21.8728 57.6459 21.7675 57.3667 21.7675C56.1454 21.7675 55.5173 22.891 55.5173 24.1549C55.5173 25.805 56.3548 26.6476 57.3667 26.6476C58.3438 26.6476 58.7276 25.9806 59.0068 25.5241L60.4723 26.3317Z" fill="black"/>
<path d="M69.8241 20.5391V28.0875H67.9398V24.8575H65.218V28.0875H63.3337V20.5391H65.218V23.2776H67.9398V20.5391H69.8241Z" fill="black"/>
<path d="M77.3265 20.5391L80.0831 28.0875H78.0941L77.7103 26.8938H74.9536L74.5698 28.0875H72.5808L75.3724 20.5391H77.3265ZM76.3145 22.3296C76.2098 22.7158 76.1051 23.102 76.0005 23.4882C75.826 24.05 75.5468 24.9277 75.3724 25.4894H77.2567L76.3145 22.3296Z" fill="black"/>
<path d="M82.9096 20.5391H84.759L86.399 23.3127C86.9922 24.3659 87.1667 24.717 87.5157 25.3841L87.4459 20.5391H89.2255V28.0875H87.3761L85.9803 25.7001C85.3173 24.5766 85.1777 24.3308 84.6543 23.3478L84.7241 28.0875H82.9445L82.9096 20.5391Z" fill="black"/>
<path d="M93.1337 20.5391H94.9831L96.6231 23.3127C97.2163 24.3659 97.3908 24.717 97.7398 25.3841L97.67 20.5391H99.4496V28.0875H97.6002L96.2044 25.7001C95.5414 24.5766 95.4018 24.3308 94.8784 23.3478L94.9482 28.0875H93.1686V20.5391H93.1337Z" fill="black"/>
<path d="M103.393 20.5391H108.941V22.0136H105.277V23.3829H108.697V24.8223H105.277V26.6129H109.29V28.0875H103.428L103.393 20.5391Z" fill="black"/>
<path d="M112.744 20.5039H114.629V26.4724H117.56V28.0523H112.779L112.744 20.5039Z" fill="black"/>
</g>
<defs>
<clipPath id="clip0">
<rect width="149" height="29" fill="white"/>
</clipPath>
</defs>
</svg>
