<svg width="57" height="68" viewBox="0 0 57 68" fill="none" xmlns="http://www.w3.org/2000/svg">
<path d="M28.5021 66.7351C28.4999 66.725 27.9259 62.1247 27.2264 56.5121C26.5269 50.8996 25.9302 46.2832 25.9004 46.2535C25.8472 46.2004 24.6036 46.088 9.73968 44.7919C5.68411 44.4383 2.34494 44.1287 2.3193 44.104C2.28548 44.0713 0.530343 11.9686 0.392672 8.86461L0.375 8.46612L23.7867 4.91558C36.6632 2.96279 48.5078 1.16556 50.1081 0.921739C51.7084 0.677921 53.0277 0.488387 53.0399 0.500555C53.0521 0.512717 53.4105 5.48518 53.8363 11.5504C54.2622 17.6157 54.7257 24.2169 54.8663 26.2197C55.0069 28.2224 55.3563 33.2046 55.6427 37.2911C55.9291 41.3776 56.2228 45.5486 56.2954 46.5601C56.368 47.5717 56.4194 48.4101 56.4096 48.4234C56.3998 48.4368 50.2585 48.0178 42.7622 47.4925C35.266 46.9672 29.1247 46.545 29.1149 46.5543C29.1051 46.5635 29.5622 51.0672 30.1306 56.5624C30.699 62.0576 31.1479 66.5699 31.1281 66.5896C31.0578 66.6598 28.5158 66.8006 28.5021 66.7351H28.5021Z" fill="#9C6C56" stroke="black" stroke-width="0.564444"/>
<path d="M0.658203 16.5408L53.7297 11.4629" stroke="black" stroke-width="0.282222"/>
<path d="M1.00293 24.518L54.5045 22.0605" stroke="black" stroke-width="0.282222"/>
<path d="M55.2165 32.2246L1.44141 32.9252" stroke="black" stroke-width="0.282222"/>
<path d="M2.14941 41.333L56.1151 44.4446" stroke="black" stroke-width="0.282222"/>
<path d="M45.9029 41.2535C45.5527 41.1466 45.1263 41.1217 44.7761 41.1879C44.4663 41.2465 43.9163 41.2972 43.5539 41.3005L42.895 41.3067L42.7898 40.4987C42.732 40.0543 42.6799 39.4062 42.6741 39.0585L42.6635 38.4262L43.2659 38.3559L43.8683 38.2857L41.8786 35.9227C40.7843 34.6231 39.8754 33.5798 39.859 33.6043C39.8426 33.6288 39.8964 34.6605 39.9787 35.897L40.1283 38.1451L40.7973 38.188C41.1653 38.2115 41.4703 38.2748 41.4752 38.3285C41.4801 38.3822 41.5153 39.0512 41.5535 39.8152L41.6229 41.2042L40.7714 41.1081C40.3031 41.0552 39.745 40.9523 39.5312 40.8794C39.3039 40.8018 38.6353 40.792 37.9216 40.8558L36.7007 40.9649L36.6188 40.5562C36.5737 40.3314 36.5368 39.6847 36.5368 39.1192V38.0911L37.1354 38.0478L37.734 38.0046L37.7054 37.3021C37.6896 36.9157 37.6376 36.1191 37.5897 35.5318C37.5044 34.4857 37.4929 34.4595 37.0198 34.2344C36.4267 33.9522 36.4143 33.8268 36.9594 33.6215L37.3819 33.4624L37.3666 32.2208C37.3582 31.5378 37.3107 30.5997 37.261 30.136L37.1706 29.2929L36.5368 29.2227L35.903 29.1524L35.8326 27.7686C35.7939 27.0075 35.803 26.3599 35.8528 26.3294C35.9026 26.2989 36.4478 26.3416 37.0643 26.4244C37.8634 26.5317 38.421 26.5314 39.0066 26.4234C39.4583 26.3401 40.0302 26.2719 40.2775 26.2719H40.727L40.8634 27.6419C40.9385 28.3954 40.9743 29.0593 40.9431 29.1172C40.9119 29.1752 40.5953 29.2226 40.2396 29.2226H39.5929L39.6822 30.5785C39.7313 31.3243 39.8026 31.9655 39.8407 32.0035C39.9179 32.0806 40.7686 31.4159 42.2239 30.1414L43.1928 29.2929L42.6465 29.2226L42.1001 29.1524L41.9927 27.7566C41.8703 26.1648 41.9147 26.0818 42.8043 26.2412C43.5219 26.3698 44.9363 26.3562 46.1279 26.2093L47.0572 26.0947L47.1475 26.64C47.1971 26.9399 47.2385 27.6041 47.2393 28.1161L47.2409 29.047L46.7982 29.1353C46.3516 29.2244 45.6501 29.7946 43.4483 31.8583L42.2613 32.9708L44.3638 35.3942C45.5201 36.727 46.5954 37.9703 46.7532 38.157C46.9257 38.361 47.1915 38.4964 47.4195 38.4964C47.8716 38.4964 47.9168 38.6419 47.976 40.2879L48.0176 41.4471L47.2419 41.4363C46.8153 41.4304 46.2127 41.3481 45.9029 41.2534L45.9029 41.2535Z" fill="black"/>
<path d="M24.2832 26.5147L24.2914 27.3419C24.3031 28.5361 24.4627 29.29 24.7085 29.3123C24.8232 29.3227 25.0544 29.3385 25.2221 29.3474C25.4993 29.3621 25.5345 29.4623 25.611 30.4525C25.6573 31.0514 25.7247 31.8994 25.7605 32.3369C25.8243 33.1155 25.8166 33.1352 25.4064 33.2779C24.8794 33.4612 24.8747 33.6386 25.3909 33.8519C25.755 34.0024 25.8031 34.1021 25.8839 34.8734C25.9332 35.3434 25.9733 36.1612 25.9733 36.6908V37.6538H25.4806H24.9876V38.5495C24.9876 39.0422 25.0271 39.6428 25.0755 39.8844L25.1637 40.3236L26.5191 40.2947C27.2647 40.2787 28.2392 40.3191 28.6846 40.3845L29.4945 40.5032V39.5879C29.4945 38.0583 29.4103 37.8392 28.7852 37.7395C28.1406 37.6366 28.1368 37.6268 28.0128 35.6515C27.9059 33.9479 27.7973 34.0933 29.141 34.1406C29.987 34.1703 30.6863 34.4396 30.8865 34.8129C30.9675 34.9637 31.1018 35.9335 31.1849 36.9677C31.268 38.0019 31.3968 39.0752 31.471 39.3528C31.7071 40.2354 32.3409 40.6033 33.8517 40.7354C34.4376 40.7866 34.9485 40.8159 34.9872 40.8006C35.026 40.7852 35.026 40.1498 34.9872 39.3887L34.9169 38.005L34.3356 37.9626C33.7851 37.9225 33.7498 37.8927 33.6682 37.4005C33.6208 37.1147 33.5815 36.5602 33.5806 36.1682C33.5785 35.2247 33.2392 34.2727 32.7326 33.7885L32.3216 33.3957L32.7704 32.8302C33.1178 32.3925 33.22 32.1261 33.223 31.6494C33.2266 31.0681 33.2582 31.0197 33.7855 30.7876C34.3597 30.5348 34.3449 30.451 33.6987 30.2972C33.2669 30.1944 33.0154 29.6303 33.0154 28.764C33.0154 28.0209 32.283 27.2801 31.1143 26.8413C30.3398 26.5505 30.1281 26.5321 28.5791 26.622C26.2239 26.7586 26.0075 26.7589 25.0931 26.6293L24.2832 26.5146V26.5147ZM27.8044 29.3635H28.5448C29.4881 29.3635 30.1559 29.5557 30.5732 29.9469C30.8464 30.2029 30.9029 30.3973 30.9029 31.0835C30.9029 31.8896 30.7389 32.4187 30.424 32.6284C30.3388 32.6852 29.754 32.7325 29.1246 32.7337L27.9803 32.7357L27.8923 32.2968C27.8439 32.0553 27.8044 31.2965 27.8044 30.6107V29.3635V29.3635Z" fill="black"/>
<path d="M20.439 26.6592L19.5096 26.7788C18.9983 26.8447 17.8986 26.8792 17.0659 26.8554L15.5516 26.8124V27.2241C15.5516 27.4506 15.5924 28.0247 15.6422 28.4997C15.7292 29.3304 15.7476 29.3632 16.1267 29.3632C16.3435 29.3632 16.5507 29.4114 16.5872 29.4703C16.6237 29.5291 16.5144 30.3264 16.3442 31.2421C16.0608 32.7668 16.0023 32.9239 15.6522 33.1069C15.1954 33.3457 15.1748 33.48 15.5551 33.7371L15.8403 33.9301L15.52 35.5457L15.1996 37.1617L14.7417 37.126L14.2842 37.0903L14.2857 37.8287C14.2866 38.2347 14.3252 38.7968 14.3719 39.078L14.4569 39.5891L15.814 39.6713C16.5605 39.7164 17.4154 39.7943 17.7137 39.8444L18.2559 39.9356L18.1765 38.6188C18.1328 37.8946 18.0949 37.2863 18.0921 37.267C18.0893 37.2476 17.898 37.2319 17.6671 37.2319C17.2495 37.2319 17.2478 37.2283 17.3227 36.5646C17.3641 36.1975 17.4291 35.6916 17.4672 35.4405L17.5363 34.9837H18.44H19.3437L19.4894 35.5106C19.5696 35.8005 19.7275 36.3378 19.8402 36.7049L20.0451 37.3725H19.6295H19.2136L19.2159 38.4615C19.2187 39.8841 19.2771 39.9655 20.2207 39.8576C20.6818 39.8048 21.2746 39.8463 21.7487 39.9646C22.1748 40.0709 22.7134 40.1476 22.9458 40.1351C23.3325 40.1143 23.3723 40.0649 23.4148 39.5505C23.4403 39.2414 23.4201 38.6564 23.3697 38.2507L23.2779 37.5129H22.7459H22.2142L21.6476 35.7917L21.081 34.0704L21.4453 33.7599L21.81 33.4493L21.2909 33.2329C20.8019 33.0291 20.7508 32.9456 20.4062 31.7872C20.2051 31.111 19.9535 30.2888 19.847 29.9604L19.6532 29.3632H20.1377H20.622V28.4675C20.622 27.9749 20.5808 27.3663 20.5305 27.1154L20.4391 26.6592H20.439ZM18.2811 31.8518L18.5991 32.68C18.7741 33.1355 18.9205 33.5875 18.9245 33.6841C18.9324 33.8741 18.0066 33.9377 17.9036 33.7543C17.871 33.6964 17.9426 33.2447 18.0627 32.7504L18.2811 31.8518Z" fill="black"/>
<path d="M9.78113 27.0053C9.53847 27.0028 9.27078 27.0123 8.97272 27.0322C8.21443 27.0827 7.13429 27.1174 6.57268 27.1091L5.55176 27.0939V27.8594C5.55176 29.1689 5.66769 29.5035 6.12158 29.5035C6.58275 29.5035 6.61642 29.6127 6.75412 31.5475L6.84469 32.819L6.45368 32.9968L6.06237 33.1746L6.47595 33.5033C6.88181 33.8259 6.89054 33.8608 6.93673 35.3687L6.98392 36.9054L6.54191 36.8404L6.10018 36.7758L6.18929 37.8818C6.2383 38.4898 6.29982 39.058 6.32587 39.1445C6.35915 39.2533 6.60112 39.2649 7.12403 39.1825C7.57385 39.1115 8.07243 39.1187 8.36802 39.2006C8.63937 39.2758 9.09063 39.3379 9.37077 39.3384L9.88021 39.3393L9.81777 38.3204C9.7381 37.0182 9.71291 36.9504 9.3057 36.9504C8.79383 36.9504 8.70037 36.7148 8.66612 35.3348C8.64885 34.6392 8.60237 33.9593 8.56265 33.8241C8.50353 33.6228 8.58043 33.5782 8.98708 33.5782C9.26026 33.5782 9.97477 33.5055 10.5749 33.4164C11.4962 33.2797 11.7382 33.1845 12.1299 32.805C12.5352 32.4123 12.5939 32.265 12.5939 31.6376C12.5939 31.096 12.6643 30.854 12.8808 30.6527L13.1678 30.3857L12.8281 30.1635C12.5455 29.9788 12.4775 29.7977 12.4262 29.09C12.3756 28.3923 12.2918 28.1629 11.9622 27.8197C11.4142 27.249 10.8327 27.0158 9.78113 27.0053V27.0053ZM8.3686 29.5035H8.99323C9.67759 29.5035 10.3451 29.7079 10.5113 29.9687C10.5698 30.0605 10.6185 30.4893 10.6197 30.9217C10.6213 31.501 10.5557 31.7679 10.3697 31.9359C10.2309 32.0612 9.76528 32.205 9.33501 32.2555L8.55268 32.3473L8.46182 31.5928C8.41187 31.1779 8.37053 30.5379 8.36978 30.1708L8.36858 29.5035H8.3686Z" fill="black"/>
<path d="M6.05068 24.4545C5.93301 24.2645 5.85991 23.4978 5.76435 21.4516L5.68032 19.6521L6.35564 19.6952L7.03096 19.7382L7.07469 20.5094C7.12843 21.4569 7.38331 21.7757 8.08727 21.7757C8.7234 21.7757 9.07317 21.4328 9.07317 20.8092C9.07317 19.8847 7.93265 18.4034 7.22088 18.4034C6.84647 18.4034 6.82395 18.377 6.9686 18.1073C7.10377 17.8554 7.06505 17.7455 6.70854 17.3697C5.62034 16.2224 5.19717 14.9673 5.30014 13.1926C5.37425 11.9155 5.53707 11.6546 6.4858 11.2932C6.91566 11.1294 7.3167 11.0831 7.80553 11.1409C8.28208 11.1972 8.67245 11.1552 9.02026 11.0102C9.31106 10.889 9.58581 10.8495 9.65536 10.9189C9.72278 10.9861 9.84276 12.1713 9.92197 13.5526C10.0815 16.335 10.0935 16.2898 9.19773 16.2936L8.68849 16.2957L8.6177 15.3085C8.52382 13.9995 8.12159 13.5465 7.32416 13.8518C7.00392 13.9744 7.0361 15.2254 7.37888 15.9787C7.77816 16.8563 8.25847 17.2793 8.85551 17.2793C9.34382 17.2793 9.50768 17.4495 9.20125 17.6385C9.10535 17.6976 9.23405 17.925 9.54386 18.2439C10.4186 19.1443 10.8111 20.1229 10.877 21.5678C10.9538 23.2487 10.7422 23.7841 9.84492 24.1801C9.28532 24.4271 9.03274 24.4523 7.96032 24.3686C7.13708 24.3044 6.62314 24.3247 6.42725 24.4293C6.24829 24.5249 6.10042 24.5347 6.05068 24.4545Z" fill="black"/>
<path d="M14.8008 10.1314C14.1191 10.1218 13.3048 10.2405 12.8756 10.458C11.5767 11.1164 11.3816 11.763 11.5815 14.7497C11.7215 16.8417 11.6773 17.1597 11.1975 17.5143C11.0023 17.6586 11.0218 17.6977 11.3517 17.8234C11.7754 17.9848 11.8246 18.2013 11.945 20.4403C12.0735 22.8321 12.4973 23.8548 13.4859 24.1585C14.2158 24.3828 16.0039 24.2542 16.5531 23.9377C17.4653 23.4121 17.5557 23.0309 17.4717 20.0663C17.3985 17.4867 17.4023 17.4401 17.7068 17.2154C17.8905 17.0799 17.9527 16.9587 17.8601 16.9172C17.3136 16.6723 17.2654 16.5132 17.1812 14.6795C17.0329 11.449 16.8399 10.8472 15.7725 10.2934C15.5711 10.1889 15.2098 10.1371 14.8008 10.1314ZM14.5877 12.9296C14.8003 12.9364 14.9924 12.9745 15.1083 13.0478C15.2388 13.1303 15.3395 13.7129 15.4278 14.8956C15.5537 16.5818 15.5492 16.6307 15.239 16.9601L14.9213 17.2976L15.2323 17.5342C15.4904 17.7305 15.5688 17.9965 15.693 19.0998C15.8611 20.5921 15.7905 21.1511 15.4084 21.355C15.2649 21.4317 14.9231 21.4942 14.6487 21.4942C13.9036 21.4942 13.6767 21.052 13.5738 19.3984C13.4934 18.1069 13.5043 18.0362 13.837 17.6716L14.1838 17.2915L13.8259 17.1286C13.3824 16.927 13.298 16.5459 13.298 14.74C13.298 13.4737 13.3237 13.3427 13.611 13.1419C13.8221 12.9944 14.2334 12.9183 14.5877 12.9296Z" fill="black"/>
<path d="M21.991 23.8792C20.4159 23.4838 20.1079 22.8687 19.8948 19.6935C19.7495 17.5283 19.6538 17.139 19.2671 17.139C18.9872 17.139 19.0283 16.9416 19.3722 16.6338C19.654 16.3817 19.6664 16.2761 19.5848 14.8205C19.5372 13.9704 19.4976 13.0962 19.4969 12.8779C19.4957 12.5145 19.4568 12.4848 19.0378 12.5266C18.5806 12.5723 18.58 12.5714 18.4884 11.7995C18.438 11.3745 18.3904 10.7337 18.3828 10.3757C18.3659 9.58905 18.5693 9.49024 19.7125 9.72948C20.3796 9.86906 20.5013 9.85805 20.7474 9.63584C20.9008 9.49735 21.2357 9.37425 21.4917 9.3623L21.9571 9.34058L22.0671 10.3944C22.2273 11.9276 22.1831 12.1353 21.6786 12.2224C21.26 12.2946 21.2564 12.3029 21.2873 13.1364C21.3045 13.599 21.3571 14.4912 21.4041 15.1192C21.4815 16.1505 21.5227 16.2759 21.8307 16.4159C22.2558 16.6092 22.2602 16.767 21.8496 17.0936C21.5387 17.3409 21.5308 17.4011 21.6217 18.8377C21.6734 19.656 21.7591 20.4621 21.8122 20.6289C21.9289 20.9955 22.4101 21.1349 23.1963 21.0297C24.1086 20.9076 24.1857 20.7105 24.0867 18.7548C24.0397 17.8275 23.9472 17.0506 23.881 17.0285C23.8149 17.0064 23.6409 16.898 23.4944 16.7876C23.2377 16.5942 23.2424 16.575 23.6212 16.2657L24.0145 15.9446L23.8482 13.9728L23.6819 12.001L23.229 12.0538C22.8005 12.1037 22.7712 12.0774 22.6866 11.5666C22.6374 11.2697 22.5965 10.5952 22.5957 10.0679L22.5941 9.10899L23.6152 9.13654C24.2146 9.15271 24.9551 9.07168 25.4081 8.94038C25.909 8.79521 26.2281 8.76473 26.3171 8.85354C26.3926 8.92882 26.4811 9.60067 26.5138 10.3465C26.5624 11.4568 26.5381 11.6893 26.3794 11.6291C26.2728 11.5886 26.0369 11.6106 25.8552 11.6779C25.5285 11.7991 25.5258 11.8175 25.6153 13.3105C25.7524 15.5996 25.8101 15.8698 26.1996 16.0468C26.6262 16.2407 26.6245 16.3726 26.1901 16.7593C25.8458 17.0658 25.8438 17.0817 25.9738 18.4738C26.2534 21.4662 26.1319 22.6223 25.4681 23.2846C24.9231 23.8282 23.0581 24.1472 21.991 23.8792H21.991Z" fill="black"/>
<path d="M30.5746 23.4975C30.5393 23.4395 30.4881 22.7598 30.4606 21.987L30.4107 20.5819L30.8836 20.5367L31.3565 20.4916L31.255 18.6398C31.1992 17.6214 31.1229 16.7368 31.0853 16.674C31.0478 16.6113 30.8648 16.5022 30.6787 16.4316C30.2414 16.2657 30.2488 16.0509 30.6988 15.8463L31.0573 15.6833L30.9721 13.7768C30.8617 11.3057 30.838 11.1961 30.4412 11.3174C29.8315 11.5038 29.7769 11.6418 29.7769 12.9979V14.302L29.0375 14.3592C28.6308 14.3907 28.2797 14.4048 28.2572 14.3905C28.2347 14.3763 28.1837 13.8666 28.144 13.2579C27.8567 8.85789 27.8499 8.63562 28.0015 8.53456C28.0871 8.47743 28.6326 8.44054 29.2135 8.45257C29.8833 8.46645 30.5791 8.38187 31.1149 8.22145C31.8004 8.01621 32.115 7.99363 32.781 8.10182C33.3772 8.19867 33.6917 8.1888 33.9294 8.06578C34.5351 7.75225 35.2943 7.55285 35.4168 7.67509C35.5917 7.84958 35.9065 13.4699 35.7499 13.6215C35.6795 13.6896 35.305 13.7641 34.9177 13.787L34.2135 13.8285L34.1021 12.6386C33.9857 11.3945 33.7397 10.9569 33.1566 10.9569C32.8024 10.9569 32.776 11.1296 32.8884 12.7133C32.9432 13.4861 32.9944 14.411 33.0022 14.7688C33.0149 15.3533 33.0591 15.4368 33.4388 15.5937C33.9536 15.8065 33.9796 16.0569 33.5092 16.2707C33.1101 16.4521 33.0825 16.7495 33.2481 19.0779L33.3392 20.357L33.9171 20.3992L34.4951 20.4414L34.5238 21.0737C34.5396 21.4214 34.5814 22.0419 34.6168 22.4525C34.6755 23.1347 34.6518 23.2122 34.3419 23.3531C34.094 23.4658 33.8038 23.4636 33.2631 23.3449C32.663 23.2132 32.3771 23.2219 31.7487 23.391C30.8676 23.6282 30.6651 23.6466 30.5746 23.4975Z" fill="black"/>
<path d="M38.0229 23.1434C37.9209 22.8117 37.8188 20.4991 37.8973 20.2952C37.9451 20.1708 38.1648 20.0897 38.4542 20.0897H38.932L38.9181 18.79C38.9104 18.0752 38.8629 17.1539 38.8125 16.7428C38.734 16.1033 38.6598 15.9613 38.2982 15.7593C38.0659 15.6294 37.846 15.504 37.8096 15.4806C37.7732 15.4572 37.9545 15.2733 38.2124 15.0719L38.6813 14.7058L38.5905 13.077C38.5405 12.1812 38.4657 11.2178 38.4242 10.9361C38.3502 10.433 38.3393 10.4251 37.8098 10.496L37.2707 10.5681L37.1709 9.24063C37.0235 7.27902 36.9624 7.37428 38.3718 7.36898C39.1347 7.3661 39.8092 7.27732 40.2398 7.12308C41.5438 6.65597 41.5722 6.68968 41.6384 8.77858L41.6785 10.0432L41.1297 10.088L40.5809 10.1328L40.6712 11.4931C40.7209 12.2413 40.7628 13.1696 40.7644 13.556C40.7689 14.6507 40.7893 14.6622 42.3744 14.4631L43.7424 14.2913L43.6437 12.2375C43.5894 11.1079 43.4855 10.1093 43.4128 10.0183C43.3345 9.92025 43.0908 9.88365 42.8144 9.9284C42.5579 9.96992 42.3138 9.94852 42.2718 9.88084C42.2299 9.81315 42.1778 9.09485 42.1561 8.2846L42.1166 6.81142L43.3126 6.789C44.0861 6.77449 44.8708 6.65681 45.5341 6.4558C46.1114 6.28086 46.6107 6.19855 46.6765 6.26746C46.7407 6.3348 46.8382 7.06656 46.893 7.89361C47.0035 9.55922 47.0691 9.42865 46.0446 9.58284C45.7275 9.63056 45.6619 10.0286 45.7903 11.1246C45.8523 11.6535 45.9271 11.7961 46.1674 11.8432C46.4406 11.8966 46.4373 11.9035 46.1306 11.9209C45.8088 11.9392 45.798 11.9724 45.8829 12.6778C45.9318 13.0835 45.9723 13.5776 45.9729 13.7758C45.974 14.0488 46.0938 14.1931 46.4671 14.3707C46.7382 14.4997 46.9601 14.6633 46.9601 14.7342C46.9601 14.8051 46.7318 14.9974 46.4528 15.1617C46.0507 15.3983 45.9611 15.5251 46.0207 15.7727C46.062 15.9446 46.1403 16.8882 46.1945 17.8697L46.2932 19.6543L46.9435 19.6964L47.5939 19.7385L47.6728 20.8625C47.7162 21.4808 47.7227 22.199 47.6871 22.4587L47.6224 22.9307L46.8335 22.8455C46.3996 22.7986 45.7822 22.7224 45.4614 22.6763C45.0425 22.616 44.7777 22.658 44.5215 22.8255C44.3022 22.9689 43.9572 23.0417 43.6258 23.0145L43.0869 22.9702L42.9818 21.5028C42.8722 19.9716 42.9404 19.7368 43.4586 19.8599C44.0242 19.9943 44.068 19.7874 43.902 17.7687C43.8152 16.714 43.7115 15.8184 43.6716 15.7786C43.6317 15.7388 42.988 15.7519 42.241 15.8078L40.883 15.9094L40.9816 17.8239C41.0358 18.8769 41.1076 19.7859 41.1412 19.8438C41.1747 19.9018 41.4431 19.9492 41.7376 19.9492H42.273L42.3618 20.6869C42.4107 21.0926 42.4512 21.7839 42.4519 22.2231C42.4534 23.1903 42.3137 23.27 41.025 23.0369C40.4114 22.9259 39.9749 22.9212 39.5748 23.0212C38.4929 23.2916 38.0786 23.3242 38.023 23.1434H38.0229Z" fill="black"/>
</svg>
