<svg width="141" height="45" viewBox="0 0 141 45" fill="none" xmlns="http://www.w3.org/2000/svg">
<path d="M28.6585 3.45898H0V17.758H28.6585V3.45898Z" fill="#4B5D9E"/>
<path d="M28.6585 17.7598H0V31.9635H28.6585V17.7598Z" fill="#FDDBB6"/>
<path d="M28.6585 31.9629H0V44.8601H28.6585V31.9629Z" fill="#9E5E54"/>
<path d="M63.2379 3.45898H34.5794V17.758H63.2379V3.45898Z" fill="#279C3A"/>
<path d="M63.2379 17.7598H34.5794V31.9635H63.2379V17.7598Z" fill="#FDDBB6"/>
<path d="M63.2379 31.9629H34.5794V44.8601H63.2379V31.9629Z" fill="#FF6110"/>
<path d="M17.7683 0H10.3171V6.91402H17.7683V0Z" fill="#D71F40"/>
<path d="M106.226 3.45898H68.3965V17.758H106.226V3.45898Z" fill="#47B3BB"/>
<path d="M106.226 17.7598H68.3965V31.9635H106.226V17.7598Z" fill="#FDDBB6"/>
<path d="M106.226 31.9629H68.3965V44.8601H106.226V31.9629Z" fill="#D51E41"/>
<path d="M90.945 0H83.6829V6.91402H90.945V0Z" fill="#FDE40B"/>
<path d="M63.2379 12.1506V6.91319V3.45898H34.5794V6.91319V11.5898H32.0976V23.7356H36.6829V15.8852V11.5898V6.91319H60.3721V12.1506V15.8852V24.2964H64.9574V12.1506H63.2379Z" fill="#52C426"/>
<path d="M141 3.59961H111.957V44.9996H141V3.59961Z" fill="#FE5E12"/>
<path d="M137.246 13.7617H115.706V34.8346H137.246V13.7617Z" fill="#73402F"/>
<path d="M134.219 16.6367H118.744V31.962H134.219V16.6367Z" fill="#FDDBB6"/>
</svg>
