<svg width="125" height="49" viewBox="0 0 125 49" fill="none" xmlns="http://www.w3.org/2000/svg">
<g clip-path="url(#clip0)">
<path d="M77.4564 40.8956V48.4217H73.17V28.9562H77.1738L77.329 30.3175C78.742 28.9921 80.3186 28.2976 82.1916 28.5135C83.0647 28.5891 83.9096 28.8596 84.664 29.305C85.4183 29.7504 86.0629 30.3593 86.55 31.0867C88.5311 33.9561 88.1903 38.3749 85.8296 40.7711C84.109 42.5087 80.6733 43.4827 77.4564 40.8956ZM80.3796 38.7899C82.1861 38.8453 83.505 37.5116 83.5659 35.572C83.6269 33.6323 82.3302 32.1797 80.5791 32.1437C78.8279 32.1077 77.4093 33.5106 77.3622 35.3755C77.3151 37.2404 78.6174 38.7374 80.3796 38.7899Z" fill="black"/>
<path d="M71.9815 25.4562L69.3742 28.6824C68.2077 27.3737 66.8805 26.6211 65.1627 26.7981C64.1514 26.9033 63.3201 27.3017 63.1289 28.3836C62.9378 29.4655 63.6997 29.9165 64.5337 30.243C65.5506 30.6387 66.5896 30.9818 67.612 31.3498C70.8427 32.5423 72.012 34.1555 71.8568 37.1825C71.7238 39.7447 69.8757 41.8559 66.9498 42.4868C63.3728 43.256 60.1338 42.5172 57.2827 39.8388L60.0534 36.9086C61.3501 37.6031 62.4667 38.3197 63.6803 38.8012C64.3277 39.0344 65.0389 39.0186 65.6753 38.7569C66.2848 38.4802 66.9914 37.8162 67.1022 37.2213C67.1992 36.69 66.6201 35.9512 66.1823 35.4421C65.9052 35.1101 65.3317 35.0049 64.8773 34.8334C63.7413 34.4073 62.5582 34.0835 61.4637 33.5689C60.6886 33.2059 60.0129 32.6609 59.4946 31.9805C58.9762 31.3 58.6305 30.5044 58.487 29.6615C58.3435 28.8186 58.4065 27.9536 58.6706 27.1403C58.9347 26.327 59.392 25.5897 60.0035 24.9913C62.8962 22.0888 69.1886 22.2935 71.9815 25.4562Z" fill="black"/>
<path d="M57.3908 16.2533L59.4523 13.8765C60.2225 14.4742 60.9097 15.0884 61.6689 15.5809C63.2122 16.5743 64.8996 16.8869 66.6562 16.292C67.5595 15.9904 68.1801 15.4094 68.2051 14.3552C68.23 13.301 67.6759 12.6673 66.7477 12.3602C65.2099 11.8539 63.6333 11.4582 62.1039 10.9269C60.3694 10.321 58.8316 9.4549 58.3827 7.44609C57.7953 4.83962 59.1087 2.35213 61.6772 1.22875C64.8081 -0.13813 69.0529 0.700257 71.5882 3.25969C70.9204 4.11745 70.2444 4.9918 69.7733 5.59223C68.194 4.9503 66.8308 4.25579 65.3817 3.86842C64.6779 3.68027 63.7192 3.90162 63.0598 4.26133C62.7826 4.43624 62.549 4.67192 62.3766 4.95047C62.2043 5.22902 62.0977 5.54312 62.0651 5.86893C62.0651 6.42232 62.5943 7.1777 63.1013 7.44333C64.0545 7.94691 65.16 8.15997 66.199 8.49477C67.0109 8.75486 67.8393 8.96792 68.6235 9.29165C72.3612 10.8467 73.0927 15.1465 70.1197 17.9079C66.4983 21.2836 59.4661 19.6207 57.3908 16.2533Z" fill="black"/>
<path d="M77.487 18.1564V24.1385H74.0706V7.35697H77.4094L77.595 8.5938C79.0247 7.13838 80.7565 6.52688 82.5963 7.11348C83.8599 7.50038 85.0042 8.20216 85.9212 9.15273C88.0463 11.5212 87.797 15.6993 85.6441 17.9655C83.4912 20.2316 80.5764 20.3257 77.487 18.1564ZM83.8126 13.3391C83.8126 11.4797 82.4272 10.0188 80.6512 10.0188C78.8751 10.0188 77.4593 11.4244 77.4426 13.281C77.426 15.2179 78.828 16.6954 80.6595 16.665C82.491 16.6346 83.8154 15.2179 83.8126 13.3391Z" fill="black"/>
<path d="M112.41 19.3695V1.02734H115.901V12.0398L116.178 12.1782C117.059 11.218 117.932 10.2413 118.821 9.30331C120.977 7.00397 121.224 6.92372 124.698 7.40517L119.664 12.845C121.39 14.9866 123.105 17.1117 125 19.4553C123.518 19.4553 122.312 19.5134 121.121 19.4193C120.766 19.3916 120.381 18.9904 120.121 18.6694C118.802 17.0397 117.519 15.3795 115.965 13.7664V19.3695H112.41Z" fill="black"/>
<path d="M96.8132 19.3942L96.7024 18.351C96.5826 18.3815 96.4678 18.429 96.3616 18.4921C94.8432 19.8203 93.1032 20.0527 91.2357 19.4716C90.5456 19.2802 89.9314 18.8811 89.4768 18.3285C89.0221 17.7759 88.7491 17.0968 88.6949 16.3837C88.5591 14.7567 89.2934 13.5116 90.7203 12.9859C92.2137 12.4325 93.8513 12.2692 95.4306 11.9566C95.8247 11.9018 96.2215 11.8694 96.6193 11.8597C96.2591 9.58807 94.1838 9.34734 90.4848 11.1293L89.2546 8.61687C91.6236 7.13101 94.0785 6.53612 96.7356 7.21402C98.7195 7.71761 99.9608 9.10108 100.091 11.0878C100.268 13.8243 100.135 16.5829 100.135 19.3886L96.8132 19.3942ZM96.5971 14.1563C95.317 14.3417 94.1034 14.433 92.9341 14.7346C92.5601 14.8314 92.1306 15.4568 92.1029 15.8718C92.0697 16.2122 92.5047 16.7905 92.8649 16.9399C94.6686 17.6925 96.949 16.4557 96.5971 14.1563Z" fill="black"/>
<path d="M116.992 32.4065H114.928V29.0529L116.937 28.9561V25.6357H121.29V28.9561H124.288V32.3567H121.415C121.415 34.3489 121.329 36.2304 121.451 38.1092C121.514 39.108 122.395 39.3626 124.202 39.0416C124.244 39.9271 124.329 40.7959 124.291 41.6564C124.291 41.9165 123.914 42.3703 123.703 42.3731C122.268 42.3924 120.777 42.5418 119.409 42.2153C117.693 41.8086 117.128 40.2785 117.028 38.6432C116.97 37.6333 116.998 36.6178 116.995 35.5995C116.992 34.5813 116.992 33.5852 116.992 32.4065Z" fill="black"/>
<path d="M104.859 28.8428H108.966C109.046 29.2855 109.124 29.7116 109.221 30.2512C110.476 29.1223 111.778 28.2839 113.56 28.7736V32.343C113.479 32.3707 113.368 32.4565 113.282 32.4426C110.498 31.9778 109.038 33.8261 109.201 36.344C109.326 38.2809 109.226 40.2178 109.226 42.2127H104.859V28.8428Z" fill="black"/>
<path d="M102.831 7.31603H106.242C106.273 7.82239 106.3 8.2817 106.331 8.79912C108.082 7.08914 108.617 6.87609 110.335 7.20812V10.4289C110.265 10.4759 110.199 10.5617 110.141 10.5561C107.245 10.2573 106.286 11.1095 106.286 14.0397V19.427H102.831V7.31603Z" fill="black"/>
<path d="M88.9414 34.7638C88.9313 33.7816 89.1182 32.8073 89.491 31.8984C89.8639 30.9894 90.4151 30.1642 91.1123 29.4713C91.8095 28.7784 92.6385 28.2319 93.5505 27.864C94.4625 27.4961 95.439 27.3141 96.4225 27.329C97.4114 27.3232 98.3916 27.5141 99.306 27.8904C100.22 28.2667 101.051 28.821 101.748 29.521C102.446 30.2209 102.997 31.0525 103.37 31.9673C103.742 32.8822 103.929 33.8619 103.919 34.8494C103.908 35.837 103.701 36.8126 103.31 37.7195C102.918 38.6264 102.35 39.4463 101.638 40.1316C100.925 40.8169 100.084 41.3538 99.1619 41.7111C98.2399 42.0683 97.2559 42.2387 96.2673 42.2124C95.2943 42.2115 94.3312 42.0172 93.4341 41.6408C92.537 41.2645 91.7239 40.7137 91.0421 40.0204C90.3603 39.3272 89.8234 38.5054 89.4627 37.6029C89.1021 36.7004 88.9249 35.7353 88.9414 34.7638ZM93.128 34.7638C93.1181 35.1885 93.1927 35.611 93.3475 36.0067C93.5024 36.4024 93.7343 36.7635 94.0299 37.069C94.3256 37.3745 94.679 37.6184 95.0697 37.7865C95.4604 37.9546 95.8807 38.0435 96.3061 38.0481C97.1879 38.0481 98.0336 37.6983 98.6572 37.0756C99.2807 36.453 99.631 35.6084 99.631 34.7278C99.6029 33.8702 99.2469 33.0559 98.6363 32.4523C98.0256 31.8487 97.2067 31.5015 96.3477 31.4822C95.9198 31.4858 95.4968 31.5735 95.1028 31.7404C94.7089 31.9073 94.3517 32.15 94.0517 32.4548C93.7517 32.7595 93.5147 33.1202 93.3544 33.5164C93.194 33.9126 93.1133 34.3365 93.117 34.7638H93.128Z" fill="#EF5F5E"/>
<path d="M10.0939 46.2081C9.99728 46.1388 9.90477 46.064 9.8168 45.984C9.53972 45.6741 9.06869 45.3725 9.0493 45.046C9.0493 44.7693 9.54249 44.4677 9.8168 44.1744C9.86667 44.1246 9.9581 44.061 9.95256 44.0167C9.72813 42.802 10.8226 42.3759 11.4183 41.6233C11.2271 41.4158 10.9667 41.2553 10.8946 41.0312C10.8226 40.807 10.7949 40.3892 10.939 40.2287C13.7873 37.0163 16.6633 33.8315 19.5283 30.6385C19.8608 30.2705 20.1877 29.8942 20.5175 29.5317L20.4039 29.374C20.2324 29.4436 20.0681 29.5298 19.9134 29.6313C17.0263 31.9426 14.1438 34.2577 11.2659 36.5764C10.975 36.8116 10.8226 37.2238 10.5233 37.4369C10.4022 37.4964 10.2695 37.5287 10.1345 37.5316C9.99953 37.5345 9.86555 37.5078 9.74199 37.4535C9.44829 37.3151 9.40949 37.0467 9.68934 36.759C11.2936 35.0988 12.8563 33.4165 14.4828 31.7785C15.544 30.7132 16.6994 29.7254 17.8908 28.6103C17.5749 28.472 17.356 28.3585 17.1261 28.2783C13.9092 27.1715 10.7007 26.0315 7.46719 24.9579C5.46393 24.2994 3.42743 23.746 1.402 23.1622C0.989161 23.0432 0.642816 22.8855 0.786895 22.393C0.930975 21.9004 1.32719 22.0111 1.67354 22.1163C5.11851 23.223 8.56164 24.3298 12.0029 25.4366C12.2274 25.5085 12.449 25.5943 12.7372 25.6967L13.0503 24.9994L3.19468 22.0609C3.2972 21.6985 3.37478 21.4328 3.49116 21.0261C2.73474 20.8518 1.99772 20.6747 1.25792 20.5197C1.00301 20.4644 0.676065 20.5446 0.484883 20.4146C0.359427 20.3331 0.251787 20.2272 0.168453 20.103C0.085119 19.9789 0.0278164 19.8392 0 19.6924C0 19.3189 0.304783 19.1086 0.714856 19.2193C3.92616 20.0881 7.31757 20.1656 10.4374 21.4494C11.2687 21.7953 12.1636 22.0222 13.0336 22.2795C13.099 22.2941 13.1671 22.291 13.2309 22.2706C13.2947 22.2502 13.3519 22.2131 13.3966 22.1633L8.88859 20.2762C8.40371 20.0715 7.9216 19.8584 7.42563 19.6758C6.79113 19.4434 6.22866 19.1888 6.65536 18.4417C6.03194 17.9852 5.40575 17.6532 4.9458 17.1551C4.80802 16.9901 4.70931 16.7962 4.65702 16.5878C4.60472 16.3794 4.6002 16.1619 4.64379 15.9515C4.71306 15.7329 5.37804 15.5724 5.75209 15.6167C6.44725 15.7415 7.13248 15.9163 7.80245 16.1396C7.99641 15.3096 8.51731 15.4396 9.06315 15.6942C9.47322 15.8823 9.82788 16.04 10.1715 15.5088C10.2573 15.376 10.7616 15.3787 11.0027 15.4839C14.0754 16.8231 17.1344 18.1955 20.1988 19.5568C20.3429 19.6232 20.4953 19.6758 20.7945 19.792C20.6948 19.4766 20.6532 19.2829 20.5756 19.103C18.9132 15.1795 17.2507 11.256 15.5883 7.33242C15.2752 6.59088 15.4304 6.36122 16.2062 6.41933C16.3946 5.72759 15.0064 4.60144 16.8324 4.25557C16.9266 3.84052 17.0097 3.25393 17.8742 3.53339C17.6248 2.84165 17.4087 2.26336 17.2147 1.67676C17.11 1.46218 17.0696 1.22199 17.0983 0.985026C17.2036 0.67236 17.3754 0.276686 17.6525 0.15494C17.8603 0.0580964 18.3036 0.235181 18.5225 0.431635C18.7682 0.693645 18.9568 1.00359 19.0767 1.34196C19.4757 2.26613 19.7971 3.22349 20.2432 4.12552C20.7235 5.1109 21.3008 6.04612 21.9666 6.91738C21.1113 4.92886 20.2542 2.94311 19.3953 0.960124C19.9799 0.362461 20.16 0.376296 20.5036 1.10677C21.454 3.04364 22.3933 5.01094 23.4323 7.16917C23.4323 6.76243 23.4545 6.54937 23.4323 6.33908C23.2744 4.91133 23.0943 3.48635 22.9308 2.05584C22.9003 1.77914 22.8394 1.4222 22.9696 1.20915C23.2273 0.788572 23.5404 0.315423 23.9532 0.102368C24.0703 0.0487751 24.1971 0.0193848 24.3259 0.0159627C24.4547 0.0125406 24.5829 0.0351574 24.7027 0.082454C24.8225 0.129751 24.9316 0.200751 25.0232 0.291188C25.1149 0.381625 25.1873 0.489633 25.2361 0.60872C25.6609 1.66579 26.0236 2.74675 26.3222 3.84606C26.5078 4.50183 26.566 5.19356 26.8459 5.87423C26.8459 5.59754 26.8874 5.30701 26.8847 5.02201C26.8847 4.20853 26.8099 3.38951 26.8847 2.58156C26.9262 2.4194 27.0082 2.27039 27.1231 2.14846C27.2379 2.02652 27.3818 1.93564 27.5413 1.88429C27.7741 1.85938 28.1675 2.20802 28.2811 2.47641C28.3871 2.84157 28.4042 3.22671 28.331 3.5998C28.0151 6.17307 27.7242 8.74357 27.9486 11.3473C28.0844 12.8995 28.1121 14.4629 28.1925 16.0179C28.2053 16.2699 28.2424 16.5201 28.3033 16.765C28.3033 15.3815 28.3033 13.9786 28.3033 12.5869C28.3033 12.1276 28.2479 11.6876 28.8852 11.6544C29.3728 11.6295 29.5862 11.8702 29.5668 12.3544C29.5335 13.0739 29.5141 13.7933 29.4975 14.5127C29.4975 14.7036 29.4559 15.0246 29.5391 15.0661C30.5531 15.5586 30.0073 16.4883 30.1791 17.2077C30.2047 17.2749 30.2343 17.3405 30.2678 17.4041C30.402 17.3327 30.5308 17.2513 30.6529 17.1606C34.2586 13.8846 37.8606 10.6094 41.4589 7.33519C41.5559 7.23916 41.6723 7.16483 41.8004 7.11713C41.9284 7.06942 42.0651 7.04944 42.2014 7.05849C42.376 7.10276 42.4646 7.47353 42.617 7.74193C42.6739 7.7069 42.7387 7.68691 42.8054 7.68382C43.1573 7.72809 43.6838 7.68382 43.8112 7.87474C43.9858 8.15144 43.9442 8.64119 43.8362 8.98153C43.7447 9.27482 43.4372 9.51001 43.2017 9.74797L34.5541 18.4279C34.3432 18.6175 34.1807 18.8546 34.0803 19.1196C35.377 17.9935 36.6682 16.8646 37.9594 15.744C39.874 14.1115 41.7858 12.4513 43.7059 10.8243C43.9885 10.565 44.3175 10.3613 44.6757 10.2239C44.8076 10.1935 44.9448 10.1934 45.0767 10.2236C45.2087 10.2538 45.3321 10.3135 45.4377 10.3982C45.5244 10.4987 45.5858 10.6184 45.6166 10.7474C45.6475 10.8765 45.6469 11.011 45.615 11.1397C45.2908 11.7678 44.8724 12.3434 44.4014 13.0766C44.8863 12.9023 45.2465 12.7529 45.6205 12.6422C46.557 12.3655 47.5019 12.0888 48.4467 11.8315C49.0009 11.6793 49.4636 11.79 49.7074 12.3489C49.9512 12.9078 49.6381 13.3035 49.1782 13.6051L48.6711 13.9482C49.2004 14.6732 48.7764 15.0273 48.2223 15.4562C45.2825 17.7334 42.376 20.0549 39.4584 22.3736C39.2881 22.5235 39.085 22.6315 38.8654 22.689C40.8271 20.6166 43.0216 18.8153 45.2382 17.0168L45.0996 16.8535L35.4657 24.8555C36.6045 25.2651 37.5632 25.6137 38.5135 25.9623C39.6662 26.3746 40.8077 26.8118 41.977 27.1715C42.6863 27.3873 42.6253 27.819 42.4619 28.3447C42.2818 28.9147 41.9077 28.9866 41.3868 28.8068C39.1259 28.0126 36.8511 27.2573 34.6068 26.4189C33.9695 26.1781 33.6841 26.3995 33.3488 26.9169C34.9393 27.6585 36.4909 28.4 38.0591 29.1001C38.3565 29.1921 38.6687 29.2268 38.979 29.2024C41.7664 29.2467 44.5538 29.2633 47.3412 29.3297C48.2195 29.3491 49.0951 29.4902 49.9706 29.5732L49.9872 29.8776C49.0258 29.9827 48.0643 30.1017 47.1001 30.1847C46.0722 30.2732 45.0387 30.3313 44.0079 30.3922C42.9772 30.4531 42.0102 30.4974 41.01 30.5499L40.974 30.7575L46.0749 32.5283C46.0223 32.805 45.9807 32.9932 45.9364 33.22C46.0203 33.2944 46.1134 33.3576 46.2135 33.4082C46.8978 33.6268 47.5767 33.8703 48.2749 34.0391C50.1341 34.4928 49.9374 36.6649 49.0646 37.578C48.9632 37.6412 48.8493 37.6819 48.7307 37.6972C48.6121 37.7125 48.4916 37.702 48.3774 37.6665C44.1289 36.3273 39.8804 34.978 35.632 33.6185C35.6153 33.6185 35.5904 33.6185 35.474 33.6655L38.2642 39.8109L38.1284 39.8773L35.3272 34.2604L35.0362 34.4098L40.3727 45.5441C39.8657 45.7627 39.5858 46.0338 39.7299 46.6508C39.7262 46.8206 39.6782 46.9864 39.5908 47.1319C39.5033 47.2775 39.3794 47.3978 39.2312 47.4809C38.9042 47.575 38.3362 47.4809 38.1367 47.254C37.4602 46.4493 36.847 45.5937 36.3025 44.6946C35.9667 44.1403 35.7137 43.54 35.5516 42.9127C35.1083 41.2331 34.0111 39.9714 32.864 38.7042C33.141 39.3876 33.3932 40.0738 33.6675 40.7572C34.3768 42.5115 35.0833 44.2657 35.812 46.0144C35.9617 46.3769 36.0032 46.6342 35.5932 46.8445C35.1831 47.0548 34.9891 46.8279 34.8173 46.4931C33.6536 44.2076 32.4853 41.9258 31.3123 39.6477C31.2075 39.394 31.0338 39.1745 30.8108 39.014C30.8912 39.7833 30.9992 40.5497 31.0463 41.3217C31.1572 43.1147 31.2375 44.9187 31.3234 46.7062C31.3831 47.1805 31.4044 47.6589 31.3871 48.1367C31.3511 48.4383 31.1101 48.715 30.9521 49.0028C30.7083 48.7842 30.337 48.6043 30.2484 48.3359C30.027 47.6256 29.8648 46.8981 29.7635 46.1611C29.1234 41.8945 28.5028 37.6223 27.8655 33.3556C27.8184 33.0402 27.7104 32.7303 27.63 32.4149L18.5059 41.3853L18.4255 41.3106L25.2139 34.2687L25.0948 34.1387C24.3134 34.7944 23.4933 35.4115 22.7562 36.1143C20.4233 38.3278 18.0792 40.5414 15.8293 42.8269C14.6739 44.0001 13.6931 45.3448 12.6347 46.6121C12.5737 46.6841 12.5349 46.7754 12.474 46.8501C12.1692 47.2181 11.8561 47.7217 11.3158 47.2762C10.7755 46.8307 11.2188 46.424 11.5513 46.0864C12.1581 45.4721 12.7954 44.8855 13.3966 44.2657C13.7069 43.9475 13.9508 43.5795 14.2472 43.2337L14.0921 43.0649L10.0939 46.2081ZM26.3222 12.8774L26.4219 12.7999C26.4718 12.1165 26.5439 11.433 26.5605 10.7468C26.6049 10.0321 26.591 9.31494 26.5189 8.60245C26.3305 7.25218 26.0978 5.90467 25.7958 4.57653C25.5373 3.48665 25.2172 2.41228 24.8371 1.35856C24.7567 1.13444 24.3827 1.00993 24.1527 0.830077C23.9948 1.10677 23.6706 1.38347 23.7038 1.62696C24.0363 4.14212 23.8008 6.74306 24.6958 9.17245C25.1585 10.4452 25.768 11.6489 26.3222 12.8774ZM33.4015 24.0725C34.7536 24.886 34.9947 24.8638 36.0974 23.9286C38.2198 22.1264 40.3441 20.3325 42.4702 18.5469C43.1878 17.9437 43.9304 17.3709 44.6646 16.7843C40.611 18.7378 36.5158 20.6221 33.4015 24.0725ZM14.0644 20.4755C14.2976 20.6351 14.541 20.7793 14.7931 20.9071C16.691 21.7372 18.6056 22.5396 20.487 23.414C21.0578 23.6907 21.3986 23.5855 21.7754 23.0819C19.3343 21.751 16.8213 20.7798 14.0644 20.4755ZM30.5227 20.7688L41.5253 9.96103C37.602 13.2944 33.9249 16.9064 30.5227 20.7688ZM31.1073 22.9823L31.1987 23.0709C31.3262 22.9712 31.4592 22.8772 31.5811 22.772C34.3519 20.4035 37.1226 18.0341 39.8934 15.6637C41.24 14.509 42.5801 13.3432 43.9137 12.1663C44.1033 11.9672 44.2757 11.7524 44.4291 11.5244L44.249 11.3445L31.1073 22.9823ZM30.6751 33.007C30.772 34.0031 32.9277 37.3124 33.7451 37.7634C33.2491 35.5194 31.6615 33.0153 30.6751 32.9932V33.007ZM43.7198 14.8807L43.8251 15.0356L48.0172 13.1762L47.9175 12.9549C46.4656 13.4668 44.8586 13.6466 43.7198 14.8668V14.8807ZM19.2207 29.0862C18.6167 28.8317 16.5442 30.597 15.8099 31.8532L19.2207 29.0862ZM34.5375 31.3856C34.9642 32.0026 38.6465 33.0125 39.0455 32.7552L34.5375 31.3856ZM21.4512 16.112L21.7283 15.9847C20.9894 14.4979 20.2505 13.0111 19.5117 11.5244L19.3066 11.624L21.4512 16.112ZM31.6808 25.3674C31.6808 26.2307 32.2101 26.4742 32.742 26.5904C32.9692 26.6347 33.2685 26.3414 33.7146 26.1062L31.6808 25.3674ZM30.1098 18.771L30.3869 18.9924L32.6949 16.5491C31.7279 17.1911 30.772 17.8413 30.1098 18.771ZM12.0029 20.8324C11.3102 19.8308 10.2324 19.7892 9.19337 19.6564L12.0029 20.8324ZM30.9438 36.1143L30.7388 36.1696C30.7554 37.2404 31.5368 37.9875 31.8942 38.9144L32.066 38.8425L30.9438 36.1143ZM21.5842 29.9965L21.454 29.8554L19.1653 32.1658L19.3759 32.3761C20.1129 31.5848 20.849 30.7916 21.5842 29.9965ZM35.909 40.9177L36.1085 40.7821L34.8284 38.6211L34.6151 38.7512C35.0473 39.4798 35.4786 40.202 35.909 40.9177ZM18.9714 3.01044L18.7276 3.10451L19.617 5.18526L19.8469 5.08842L18.9714 3.01044ZM45.4404 29.8084V29.7171H41.88V29.8084H45.4404ZM14.0339 19.6813L14.1115 19.4434L12.5543 19.1307L12.5017 19.3825L14.0339 19.6813Z" fill="black"/>
</g>
<defs>
<clipPath id="clip0">
<rect width="125" height="49" fill="white"/>
</clipPath>
</defs>
</svg>
