<svg width="141" height="39" viewBox="0 0 141 39" fill="none" xmlns="http://www.w3.org/2000/svg">
<path d="M113.949 35.7376C114.101 35.5604 114.223 35.3585 114.307 35.1407C115.525 32.8216 116.743 30.5055 117.942 28.1772C118.144 27.7813 118.374 27.6108 118.825 27.6382C119.461 27.6762 120.101 27.6382 120.741 27.6488C121.336 27.6488 121.339 27.6488 121.441 28.2122C121.709 29.6771 121.972 31.1435 122.24 32.6084C122.408 33.5301 122.577 34.4509 122.749 35.3706C122.779 35.5336 122.783 35.7087 122.949 35.8488C123.163 35.1178 123.224 34.3747 123.351 33.6438C123.666 31.8165 123.96 29.9893 124.264 28.162C124.348 27.6564 124.352 27.6473 124.873 27.6473C126.214 27.6473 127.556 27.6473 128.898 27.6473C129.536 27.6523 130.167 27.7789 130.757 28.0204C131.928 28.497 132.61 29.3634 132.717 30.6258C132.881 32.3435 132.374 34.0581 131.302 35.4102C130.402 36.5751 129.134 37.0852 127.702 37.2375C127.363 37.2702 127.023 37.2855 126.682 37.2832C124.66 37.2832 122.637 37.2832 120.614 37.2832C119.996 37.2832 119.996 37.2832 119.918 36.6589C119.906 36.5523 119.892 36.4472 119.882 36.3406C119.856 36.0513 119.697 35.9523 119.411 35.9584C118.666 35.9726 117.921 35.9726 117.176 35.9584C116.894 35.9584 116.719 36.0696 116.655 36.3223C116.449 37.2177 115.843 37.3395 115.036 37.2999C113.762 37.239 112.481 37.2649 111.205 37.2999C110.748 37.3106 110.523 37.1476 110.34 36.7411C109.763 35.4605 109.146 34.1966 108.542 32.9342C108.452 32.7469 108.4 32.5322 108.183 32.3861C107.957 32.817 108.006 33.2738 107.937 33.7032C107.773 34.7326 107.651 35.7681 107.505 36.8005C107.438 37.274 107.429 37.2893 106.945 37.2908C105.348 37.2979 103.751 37.2979 102.154 37.2908C101.697 37.2908 101.697 37.274 101.613 36.7913C101.475 35.9721 101.475 35.9721 100.631 35.9721C100.057 35.9721 99.4816 35.9828 98.9076 35.9721C98.6167 35.9721 98.3914 36.0391 98.3244 36.3376C98.1218 37.2329 97.5173 37.4035 96.7102 37.3075C96.1453 37.2405 95.5682 37.3563 94.9393 37.236C95.1814 36.5355 95.6413 35.9675 95.8667 35.2564C95.5621 35.2153 95.489 35.4209 95.3839 35.5503C93.9815 37.2664 92.1359 37.7963 90.0148 37.4613C88.2134 37.1735 87.1216 35.9477 86.9815 34.1022C86.8438 32.6013 87.2378 31.0998 88.0946 29.8598C89.5884 27.6991 92.0659 26.9971 94.5388 27.7722C96.1712 28.2838 96.657 29.6467 96.6478 30.9867C96.6478 31.2577 96.5351 31.3673 96.2671 31.3658C95.5423 31.3582 94.819 31.3658 94.0942 31.3658C93.8825 31.3658 93.7303 31.3323 93.712 31.0613C93.6709 30.4522 93.3937 29.9954 92.7709 29.8431C92.4619 29.7503 92.1324 29.7505 91.8234 29.8437C91.5145 29.9368 91.2398 30.1188 91.0335 30.3669C90.4046 31.0856 90.1716 31.9703 90.0452 32.8855C90.0029 33.2234 89.9962 33.5649 90.0254 33.9042C90.0833 34.658 90.4823 35.0615 91.2299 35.1605C91.6134 35.2211 92.0061 35.1516 92.3456 34.9631C92.685 34.7747 92.9516 34.478 93.1029 34.1204C93.3222 33.6377 93.6145 33.5312 94.0866 33.557C94.6804 33.5905 95.2789 33.557 95.8758 33.5692C96.3219 33.5768 96.3433 33.6256 96.2017 34.0626C96.1118 34.3382 95.9139 34.5803 95.8971 34.9534C96.2199 34.8453 96.2702 34.5803 96.3752 34.3824C97.4168 32.4048 98.4533 30.4253 99.4847 28.4437C99.5639 28.2914 99.6537 28.1391 99.7207 27.9869C99.758 27.8759 99.8325 27.7813 99.9315 27.7188C100.031 27.6564 100.148 27.6301 100.264 27.6443C101.026 27.6595 101.798 27.664 102.564 27.6443C102.915 27.6351 103.031 27.7798 103.091 28.1102C103.45 30.1405 103.822 32.1708 104.208 34.2012C104.301 34.6991 104.345 35.2092 104.537 35.7239C104.788 35.564 104.759 35.3097 104.796 35.1148C105.114 33.3332 105.42 31.5516 105.729 29.7685C105.827 29.202 105.927 28.6371 106.017 28.0691C106.064 27.7722 106.192 27.6321 106.521 27.6427C107.202 27.6671 107.892 27.6717 108.566 27.6427C108.93 27.626 109.093 27.7767 109.23 28.0889C109.801 29.3954 110.392 30.6943 110.983 31.9917C111.077 32.2018 111.135 32.4378 111.316 32.6008C111.542 32.5627 111.469 32.3754 111.488 32.2505C111.641 30.8801 111.887 29.5096 112.123 28.1498C112.207 27.6686 112.212 27.661 112.684 27.6549C113.281 27.6458 113.876 27.6549 114.473 27.6549C115.132 27.6549 115.137 27.6549 115.035 28.2823C114.852 29.3939 114.657 30.5055 114.476 31.6186C114.257 32.9632 114.047 34.3077 113.832 35.6523C113.811 35.7376 113.747 35.829 113.864 35.896L113.949 35.7376ZM127.94 29.9512C127.116 29.9405 127.098 29.936 127.016 30.3852C126.766 31.7633 126.532 33.1444 126.292 34.524C126.282 34.5864 126.276 34.6504 126.265 34.7128C126.239 34.8651 126.312 34.9397 126.461 34.9732C126.997 35.0827 127.554 35.0081 128.042 34.7616C128.529 34.5151 128.92 34.111 129.149 33.6149C129.405 33.0439 129.486 32.4333 129.553 31.8211C129.694 30.539 129.221 29.9938 127.937 29.9527L127.94 29.9512ZM117.703 34.0199C118.345 34.0199 118.831 34.0199 119.315 34.0199C119.57 34.0199 119.646 33.8966 119.62 33.6591C119.553 33.1139 119.501 32.5657 119.436 32.0206C119.39 31.6308 119.428 31.2257 119.227 30.7232C118.702 31.8592 118.228 32.8825 117.703 34.0215V34.0199ZM99.3994 33.9682C100.008 34.0595 100.485 34.0093 100.968 34.0199C101.228 34.0199 101.294 33.8677 101.272 33.6499C101.178 32.7089 101.084 31.7678 100.991 30.8268L100.861 30.7963C100.388 31.8272 99.9126 32.8505 99.3994 33.9697V33.9682Z" fill="#C6312C"/>
<path d="M0.934814 20.2889L5.33552 18.9809C6.30703 18.6946 6.30855 18.6946 6.03598 17.717C5.46546 15.6664 4.89494 13.6158 4.32442 11.5652C4.2336 11.3374 4.18609 11.0947 4.18433 10.8495C4.44168 10.8267 4.6305 10.9744 4.82997 11.0642C6.72121 11.9291 8.62006 12.8077 10.5281 13.6666C11.6061 14.1523 11.3305 14.2361 12.0203 13.2904C12.8122 12.2063 13.5735 11.1175 14.3623 10.0226C14.4799 9.80777 14.6476 9.62442 14.8511 9.48817L18.2407 16.0877H18.393C18.8117 14.9929 19.1544 13.8645 19.5198 12.7529C19.8853 11.6413 20.2705 10.4901 20.6451 9.35874C21.0197 8.22734 21.3958 7.09595 21.7719 5.96608C22.1481 4.83621 22.5226 3.71091 22.9094 2.54754C23.1439 2.67088 23.1957 2.8597 23.281 3.01502C24.0545 4.43573 24.822 5.86101 25.5955 7.27868C25.8757 7.79489 25.8833 7.79641 26.3782 7.45988C29.846 5.09761 33.3122 2.73483 36.777 0.371548C36.9673 0.242115 37.1653 0.120296 37.3495 0C37.5262 0.140092 37.4043 0.258865 37.3693 0.360888C37.013 1.38569 36.6415 2.40592 36.2897 3.43225C36.2024 3.6944 36.0277 3.91859 35.7948 4.06723C32.3138 6.44574 28.8344 8.8273 25.3565 11.2119C24.9103 11.5165 24.8996 11.5165 24.659 11.0596C24.3789 10.5328 24.1124 9.99372 23.8322 9.47294C23.7454 9.31001 23.7028 9.10901 23.4348 8.96739C21.8496 13.595 20.336 18.2287 18.6945 22.8487C17.2464 20.1443 15.9536 17.382 14.5831 14.667C14.3379 14.7233 14.2664 14.9182 14.1567 15.0675C13.6634 15.7344 13.1807 16.4105 12.6888 17.079C12.4117 17.4551 12.4025 17.4566 11.9701 17.2465C10.9163 16.7349 9.86871 16.2141 8.81345 15.704C8.63072 15.6157 8.46018 15.4573 8.19674 15.5334C8.13888 15.7618 8.22415 15.9903 8.27593 16.2034C8.60484 17.6348 8.94441 19.0631 9.27332 20.4945C9.39057 21.0016 9.38448 21.0107 8.8637 21.1036C8.11147 21.2467 7.35772 21.3792 6.60396 21.5178C6.46235 21.5437 6.29941 21.5269 6.21262 21.6944C6.28114 21.932 6.4928 22.0568 6.65573 22.2167C8.61905 24.1384 10.5849 26.0571 12.5533 27.9727C12.6447 28.0625 12.7375 28.1508 12.8274 28.2407C13.1959 28.6122 13.2005 28.6168 12.8609 28.9929C12.0051 29.9416 11.1417 30.8826 10.2859 31.8313C10.1474 31.9835 9.97073 32.1145 9.88698 32.4267C11.5924 32.2287 13.2233 31.88 14.8633 31.6105C16.5033 31.341 18.128 31.0532 19.736 30.7791C19.9035 30.9877 19.765 31.1141 19.7102 31.2359C18.7326 33.387 17.7514 35.5366 16.7667 37.6847C16.6571 37.9253 16.5398 38.1141 16.2444 38.1826C15.483 38.3623 14.7217 38.58 13.9603 38.7795C13.9082 38.8006 13.8509 38.8049 13.7963 38.7917C13.7417 38.7786 13.6926 38.7488 13.6558 38.7064L15.751 34.3225C13.7365 34.4915 11.8574 34.7793 9.97378 34.9879C8.09015 35.1965 6.18064 35.4447 4.26352 35.6808C4.26352 35.3595 4.47365 35.2148 4.6107 35.0382C6.07557 33.1561 7.544 31.278 9.01597 29.404C9.10734 29.2853 9.19414 29.1634 9.29159 29.0523C9.453 28.8665 9.41493 28.7127 9.24591 28.5574C9.10429 28.428 8.97334 28.2879 8.83782 28.1523L1.48604 20.863C1.32159 20.7107 1.16779 20.5326 0.934814 20.2889Z" fill="#C6312C"/>
<path d="M57.2196 30.4134C57.5241 30.2612 57.5927 30.0191 57.7312 29.8424C59.254 27.8933 61.2731 27.1822 63.6699 27.5781C65.3662 27.8598 66.3865 28.9973 66.5783 30.7637C66.9468 34.1716 64.0201 38.4352 59.1474 37.3876C57.5774 37.0511 56.6775 35.9334 56.5039 34.3345C56.443 33.7817 56.5146 33.232 56.5328 32.7021C56.4095 32.6168 56.3501 32.6778 56.2968 32.7417C55.4015 33.8244 54.1894 34.2035 52.8463 34.2782C52.4428 34.301 52.0377 34.2873 51.6281 34.2903C50.9231 34.2903 50.9216 34.2903 50.7967 35.0136C50.6977 35.5801 50.6048 36.1465 50.5043 36.713C50.4038 37.2795 50.4008 37.2795 49.8069 37.2856C49.1674 37.2856 48.5293 37.2932 47.8898 37.2856C47.3157 37.2764 47.3096 37.2688 47.4177 36.7084C47.9152 34.0954 48.4162 31.4829 48.9207 28.8709C48.9725 28.5983 49.0501 28.3303 49.073 28.0563C49.1065 27.7243 49.2892 27.6451 49.5876 27.6466C51.1424 27.6573 52.6971 27.6466 54.2503 27.6649C54.7206 27.6741 55.1852 27.7702 55.6207 27.9481C56.5587 28.3166 57.1039 28.9866 57.1724 30.013C57.1922 30.1165 57.2028 30.2216 57.2196 30.4134ZM59.5829 33.4148C59.5919 33.6277 59.6148 33.8398 59.6514 34.0497C59.8311 34.8492 60.4402 35.2679 61.2548 35.1568C61.573 35.1155 61.8769 34.9995 62.1415 34.8182C62.4062 34.6369 62.6242 34.3955 62.7776 34.1137C63.2349 33.3415 63.4866 32.4649 63.5085 31.5677C63.5112 31.3337 63.4841 31.1004 63.4278 30.8733C63.2603 30.1257 62.77 29.7617 62.004 29.7846C61.3066 29.8074 60.798 30.1622 60.4158 30.7119C59.8646 31.5037 59.6407 32.4021 59.5829 33.4148ZM52.3164 32.0748C52.599 32.086 52.882 32.0615 53.1585 32.0017C53.4213 31.9494 53.6588 31.8101 53.8326 31.6061C54.0064 31.4022 54.1063 31.1456 54.1163 30.8779C54.1482 30.4211 54.0142 30.2155 53.5787 30.0617C53.0838 29.8881 52.5707 29.9581 52.056 29.9581C51.8763 29.9581 51.7971 30.0708 51.7636 30.2322C51.6936 30.5642 51.6114 30.8931 51.5474 31.2266C51.3814 32.0778 51.3829 32.0793 52.3164 32.0748Z" fill="#445098"/>
<path d="M76.1839 29.5428C76.3621 29.0616 76.423 28.553 76.522 28.0551C76.5829 27.7505 76.7382 27.6424 77.0442 27.644C79.5979 27.6516 82.1515 27.644 84.7051 27.644C85.162 27.644 85.1909 27.6912 85.1224 28.1267C85.0356 28.6733 84.9183 29.2154 84.8422 29.7621C84.7935 30.1062 84.6229 30.2189 84.2879 30.2067C83.7352 30.1885 83.1809 30.1961 82.6281 30.2067C82.0754 30.2174 81.9475 30.0545 81.8028 30.8615C81.4571 32.8091 81.0765 34.7506 80.7064 36.6936C80.5968 37.2692 80.5937 37.2737 80.0227 37.2798C79.4045 37.2798 78.7878 37.2798 78.1711 37.2798C77.5254 37.2798 77.5056 37.2539 77.629 36.6311C77.9833 34.8363 78.3431 33.0426 78.7086 31.2498C78.9203 30.2037 78.9248 30.2037 77.8513 30.2052C77.3625 30.2052 76.8722 30.2052 76.3834 30.2052C76.1672 30.2052 76.024 30.2631 75.9646 30.4976C75.7119 31.4965 75.1743 32.2807 74.2318 32.6857C74.1906 32.8822 74.3109 32.9202 74.3962 32.9614C74.9733 33.2461 75.1408 33.7425 75.1241 34.3318C75.0909 34.8416 75.0186 35.3482 74.9078 35.8469C74.8393 36.22 74.716 36.5855 74.917 36.9646C75.0084 37.1382 74.8896 37.2555 74.7084 37.257C73.8572 37.2646 73.0059 37.2646 72.1547 37.2646C72.112 37.2721 72.0681 37.2689 72.0268 37.2554C71.9856 37.2419 71.9483 37.2185 71.9182 37.1872C71.8882 37.156 71.8662 37.1178 71.8544 37.076C71.8425 37.0343 71.8411 36.9903 71.8502 36.9479C71.87 36.6509 71.8822 36.3525 71.9202 36.0586C71.9583 35.7647 72.0253 35.515 72.0725 35.2424C72.2141 34.3714 71.9324 34.0105 71.0523 33.9283C69.8113 33.8095 69.8128 33.811 69.563 35.0201C69.4427 35.6033 69.2966 36.1819 69.2006 36.7697C69.1412 37.123 69.0057 37.2935 68.6235 37.2814C67.9215 37.26 67.2196 37.2814 66.5176 37.2722C66.0349 37.2631 66.0044 37.2265 66.1003 36.7499C66.548 34.4963 67.0003 32.2441 67.4571 29.9935C67.5881 29.3479 67.7327 28.7038 67.8469 28.0551C67.9002 27.7505 68.0464 27.6318 68.357 27.6348C69.9955 27.65 71.634 27.6424 73.2724 27.6638C73.7416 27.677 74.2066 27.7565 74.6536 27.8998C75.3753 28.1206 75.8991 28.5348 76.0438 29.3205C76.0621 29.4103 76.0712 29.4987 76.1839 29.5428ZM71.5335 29.9539C70.3533 29.9768 70.5543 29.756 70.3153 30.9681C70.2863 31.1204 70.2574 31.2605 70.2254 31.4066C70.163 31.6883 70.294 31.7995 70.5635 31.7919C71.0523 31.7782 71.5426 31.7706 72.0314 31.7493C72.1586 31.7394 72.2835 31.7096 72.4014 31.6609C72.6084 31.5728 72.7804 31.4187 72.8906 31.2226C73.0008 31.0264 73.0429 30.7994 73.0105 30.5767C72.9648 30.1961 72.6984 29.9935 72.173 29.957C71.9598 29.9433 71.7421 29.9555 71.5335 29.9555V29.9539Z" fill="#445098"/>
<path d="M54.1681 23.1864C53.6168 23.2169 53.0671 23.2519 52.5159 23.2763C46.9835 23.519 41.4938 24.362 36.1434 25.7903C32.6929 26.7192 29.215 27.5536 25.8102 28.6531C25.7173 28.6835 25.6153 28.7444 25.5056 28.6622C25.5056 28.5312 25.6107 28.484 25.6868 28.4216C29.148 25.5284 33.0279 23.4118 37.3951 22.2469C39.6929 21.6378 42.0517 21.4734 44.4256 21.5678C47.7261 21.7158 50.997 22.2593 54.1681 23.1864Z" fill="#445098"/>
<path d="M40.4649 34.2868C40.6781 34.2868 40.8913 34.2974 41.103 34.2868C41.5461 34.2578 41.942 34.2639 42.0806 34.8243C42.1384 35.0542 42.3851 35.1821 42.6105 35.2491C42.8644 35.3319 43.1327 35.3611 43.3985 35.3349C43.6642 35.3087 43.9217 35.2277 44.1545 35.0969C44.6814 34.7999 44.6768 34.3066 44.1545 34.0112C43.83 33.8507 43.486 33.733 43.1313 33.6609C42.5502 33.529 41.9797 33.3544 41.4243 33.1386C40.1178 32.5783 39.664 31.6448 40.0036 30.2546C40.1046 29.8059 40.3034 29.385 40.5858 29.022C40.8683 28.6591 41.2274 28.3629 41.6375 28.1547C43.0978 27.3827 44.6494 27.267 46.2239 27.6888C47.3614 27.9933 48.0208 28.8963 48.0177 29.9729C48.0177 30.3992 47.9736 30.4586 47.5609 30.4647C46.8802 30.4738 46.198 30.4647 45.5174 30.4647C45.4138 30.477 45.3092 30.4535 45.2208 30.3981C45.1324 30.3427 45.0657 30.2587 45.0316 30.1602C44.7728 29.6409 43.617 29.4932 43.1739 29.8891C42.9044 30.1282 42.9211 30.4738 43.2257 30.7023C43.5028 30.9124 43.8348 30.987 44.1667 31.0829C44.7362 31.2535 45.3179 31.3875 45.8798 31.587C47.4665 32.1382 48.039 33.1782 47.3249 34.9674C47.0223 35.7277 46.4631 36.3581 45.7443 36.749C45.0502 37.1483 44.2841 37.4066 43.49 37.5091C42.6959 37.6115 41.8893 37.5561 41.1167 37.346C39.8482 37.0247 39.0716 36.1049 38.9635 34.9446C38.9102 34.369 38.9833 34.2868 39.5726 34.2792C39.868 34.2837 40.1665 34.2868 40.4649 34.2868Z" fill="#445098"/>
<path d="M130.89 37.1692C130.973 36.9986 131.042 36.8463 131.121 36.6971C132.6 33.8679 134.087 31.0432 135.546 28.2048C135.761 27.7876 136.003 27.6064 136.477 27.6384C137.086 27.6779 137.71 27.6384 138.328 27.649C138.946 27.6597 138.96 27.649 139.068 28.2414C139.281 29.3915 139.494 30.5422 139.705 31.6934C140 33.3045 140.296 34.9155 140.591 36.5266C140.614 36.653 140.62 36.7809 140.647 36.9057C140.704 37.1615 140.571 37.2757 140.343 37.2773C139.534 37.2864 138.726 37.2773 137.917 37.2773C137.667 37.2773 137.596 37.1326 137.565 36.9164C137.523 36.6118 137.608 36.2159 137.335 36.0271C137.063 35.8383 136.714 35.9677 136.397 35.9616C135.909 35.9525 135.417 35.9769 134.929 35.954C134.588 35.9373 134.32 36.0164 134.249 36.3712C134.065 37.2255 133.487 37.3656 132.726 37.2849C132.178 37.2301 131.621 37.2636 131.068 37.2544C131.036 37.2651 130.999 37.2285 130.89 37.1692ZM135.327 34.0247C135.922 34.0247 136.365 34.0247 136.809 34.0247C137.252 34.0247 137.252 34.0064 137.214 33.5359C137.204 33.2811 137.182 33.027 137.147 32.7745C137.031 32.1396 137.096 31.4787 136.842 30.7249L135.327 34.0247Z" fill="#C6312C"/>
<path d="M27.0908 22.901C27.0908 22.5812 27.2431 22.3878 27.3436 22.1853C29.0289 18.9107 31.041 15.815 33.3493 12.9453C34.4561 11.5634 35.8347 10.4232 37.3997 9.59531C40.1407 8.10759 43.0643 7.063 46.0474 6.17981C46.5651 6.02754 47.0767 5.8311 47.631 5.76562C47.6173 5.9179 47.529 5.93922 47.4589 5.98033C43.3003 8.51264 39.5133 11.5368 35.8648 14.7452C33.0523 17.209 30.3693 19.8281 27.6801 22.435C27.5157 22.5949 27.3756 22.7883 27.0908 22.901Z" fill="#445098"/>
<path d="M59.6317 12.559C58.5109 12.6808 57.3887 12.7844 56.2725 12.929C53.792 13.2503 51.3997 13.931 49.0243 14.6939C43.9992 16.311 38.9955 17.9937 34.1015 19.9671C34.0055 20.0052 33.9065 20.0326 33.8152 20.0615C33.7284 19.9412 33.803 19.8864 33.8624 19.8362C37.3236 16.975 41.0025 14.4579 45.152 12.6793C46.4522 12.1355 47.8449 11.8465 49.2542 11.8281C51.5566 11.7702 53.8498 11.9362 56.1431 12.122C57.308 12.2149 58.4713 12.3397 59.6347 12.4494L59.6317 12.559Z" fill="#445098"/>
<path d="M45.9849 17.6535C46.3459 17.6208 46.7097 17.6619 47.0543 17.7745C47.3988 17.8871 47.7168 18.0687 47.9888 18.3082C48.47 18.7422 48.4974 19.2432 48.0375 19.697C46.9838 20.7324 45.0103 21.372 43.3551 20.2848C42.4902 19.7183 42.475 18.9615 43.3095 18.3478C43.8957 17.9154 44.5901 17.8027 45.289 17.7052C45.5174 17.6656 45.7519 17.6656 45.9849 17.6535Z" fill="#445098"/>
<path d="M41.1867 3.84375C41.6999 3.87877 42.2085 3.87573 42.4628 4.35996C42.7171 4.84419 42.4476 5.26599 42.1872 5.66342C41.9621 6.00109 41.6766 6.29431 41.3451 6.52833C40.5856 7.08225 39.7174 7.46889 38.7976 7.66277C37.8992 7.85768 37.4423 7.40543 37.5794 6.50092C37.6869 5.83963 38.0466 5.24577 38.5829 4.84419C39.3227 4.24284 40.2346 3.89246 41.1867 3.84375Z" fill="#445098"/>
<path d="M51.3281 11.1563C51.0746 11.1729 50.8202 11.1729 50.5667 11.1563C49.7795 11.0482 49.4095 10.395 49.6988 9.65186C49.8274 9.33108 50.0601 9.06291 50.3596 8.89049C50.8547 8.57585 51.4098 8.36761 51.9897 8.279C52.5695 8.1904 53.1615 8.22336 53.7279 8.3758C54.5654 8.5966 54.7543 9.10367 54.3294 9.86656C53.9975 10.4604 53.4736 10.8 52.8402 10.9888C52.3509 11.1379 51.8382 11.1947 51.3281 11.1563Z" fill="#445098"/>
<path d="M113.949 35.7378L113.865 35.8901C113.748 35.8231 113.812 35.7378 113.834 35.6465L113.949 35.7378Z" fill="#C6312C"/>
</svg>
