<svg width="137" height="20" viewBox="0 0 137 20" fill="none" xmlns="http://www.w3.org/2000/svg">
<g clip-path="url(#clip0)">
<path d="M109.773 3.88031H111.007L109.195 12.2898H120.894L121.436 9.76884H114.679L115.154 7.56291H121.425L121.968 5.042H115.698L116.173 2.83642H122.863L123.406 0.3166H110.545L109.773 3.88031ZM124.137 0.3166L123.592 2.83715H127.576L125.54 12.2898H130.65L132.686 2.83715H136.456L137 0.3166H124.137ZM105.289 0.315149L103.559 8.34365H103.508L101.153 0.315149H92.4043L91.6314 3.88031H92.9018L91.3213 11.2154C91.5627 11.2122 91.8033 11.2085 92.0439 11.2085C93.2743 11.2085 94.5021 11.2546 95.7317 11.3488L97.3658 3.76541H97.3993L99.7645 11.8283C102.101 12.202 104.46 12.7446 106.874 13.4652C106.885 13.4688 106.899 13.4736 106.912 13.4775L109.729 0.315149H105.289Z" fill="#5B6770"/>
<path d="M42.0387 6.30282C41.5096 8.75668 40.0397 9.88393 38.3586 9.88393C36.6775 9.88393 35.694 8.75668 36.2227 6.30282C36.7513 3.8486 38.2216 2.72027 39.9031 2.72027C41.5828 2.72027 42.5673 3.8486 42.0387 6.30282ZM40.4887 0.000725629C37.3623 0.000725629 35.7557 0.515052 34.4206 1.32769C32.8148 2.30597 31.5121 3.9809 31.0113 6.30282C30.2402 9.88393 31.8394 12.6042 37.7723 12.6042C40.8994 12.6042 43.1783 11.7756 44.7577 10.5313C45.9704 9.58563 46.8529 8.14303 47.2493 6.30282C48.0211 2.72026 46.4215 0.000725629 40.4887 0.000725629ZM77.2052 0.316427H64.3417L63.7972 2.83698H67.78L65.7455 12.2899H70.855L72.8911 2.83698H76.6608L77.2052 0.316427ZM25.8485 4.34553C25.595 5.52244 24.8533 5.92116 23.0377 5.92116H21.9954L22.6604 2.83662H24.2071C25.6681 2.83662 26.0623 3.35094 25.8485 4.34553ZM26.7504 0.316064H16.7973L16.0236 3.88014H17.3256L15.5133 12.2899H20.6232L21.4524 8.4417H25.4528C28.0076 8.4417 30.1994 7.39746 30.828 4.47784C31.5007 1.36068 29.6752 0.316064 26.7504 0.316064ZM58.3438 4.16322C58.101 5.29084 57.1888 5.62248 56.0965 5.62248H54.1469L54.7685 2.73658H56.6344C57.878 2.73658 58.5727 3.10085 58.3438 4.16322ZM58.8203 0.316427H48.887L48.1133 3.88014H49.4117L47.5997 12.2899H52.71L53.6461 7.94368H54.8423C55.6968 7.94368 56.134 8.28367 56.3691 9.02309L57.4867 12.2899H62.6521L60.3369 6.83419C61.9071 6.56924 63.0382 5.20747 63.2947 3.61554C63.7028 1.07615 62.1308 0.316427 58.8203 0.316427ZM9.40707 0.000725629C4.54954 0.000725629 1.85884 1.178 1.29417 3.79822C1.14758 4.47784 1.16669 5.32382 1.70086 5.88781C3.02711 7.29778 8.70463 7.86176 9.22962 8.62402C9.33175 8.77335 9.37657 8.95531 9.32992 9.1717C9.12308 10.1329 7.92615 10.3823 6.86699 10.3823C6.19541 10.3823 5.77696 10.2159 5.50877 9.90097C5.25675 9.58563 5.22626 9.105 5.353 8.4417H0.142059C-0.235977 10.6643 -0.334436 12.6042 6.25419 12.6042C11.784 12.6042 14.2312 11.0786 14.7411 8.70702C14.992 7.54643 14.6437 6.89943 14.2624 6.48514C12.956 5.0585 7.457 4.52822 6.82768 3.78155C6.70497 3.64962 6.68734 3.41691 6.72665 3.2346C6.8589 2.62095 7.51615 2.22261 8.59185 2.22261C9.23109 2.22261 9.71714 2.30597 10.0166 2.55389C10.3325 2.80291 10.4622 3.21756 10.3527 3.8805H15.362C15.8271 1.4107 14.5673 0.000725629 9.40707 0.000725629ZM90.9978 3.88123C91.4637 1.40997 90.2039 0 85.0415 0C80.1829 0 77.4907 1.17764 76.9249 3.79822C76.7787 4.47856 76.7985 5.32454 77.3323 5.88889C78.6597 7.29923 84.3398 7.86322 84.8644 8.6262C84.9665 8.77517 85.011 8.95749 84.9647 9.17388C84.7575 10.1355 83.5602 10.3852 82.5014 10.3852C81.8287 10.3852 81.4103 10.2185 81.1417 9.90351C80.8904 9.5878 80.8592 9.10718 80.9856 8.44388H75.7728C75.4212 10.511 75.3147 12.3331 80.6024 12.5788C83.2152 11.9558 85.7975 11.5483 88.3777 11.3504C89.5144 10.6861 90.1459 9.78498 90.3781 8.70884C90.6279 7.54824 90.28 6.90052 89.899 6.48659C88.5915 5.05958 83.09 4.52858 82.461 3.78155C82.3383 3.64962 82.3207 3.41728 82.36 3.2346C82.4922 2.62059 83.1498 2.22261 84.2263 2.22261C84.8655 2.22261 85.3512 2.30597 85.6517 2.55389C85.9677 2.80291 86.097 3.21756 85.9871 3.88123H90.9978Z" fill="black"/>
<path d="M95.1657 19.8476C98.0059 17.0009 104.843 19.5751 105.548 19.5058C105.908 19.47 106.073 18.964 105.358 18.6823C98.5728 16.0146 88.5557 15.3314 83.0531 16.3122C82.4469 16.4775 82.2375 16.9991 83.193 17.1125C84.1523 17.2285 86.6023 17.4112 90.1013 18.2253C92.0422 18.6773 93.4746 19.2909 94.6987 19.9568C94.8607 20.0369 95.0047 20.0086 95.1657 19.8476Z" fill="#00558C"/>
<path d="M106.132 17.31L106.707 14.6112C96.0456 11.4277 85.8427 11.5937 75.0831 15.3701C74.5387 15.5575 74.3649 16.3365 75.4884 16.161C77.1452 15.9073 83.8287 15.0222 89.7858 14.991C94.5683 14.9664 100.358 15.9617 105.203 17.5449C105.765 17.7037 106.039 17.6181 106.132 17.31Z" fill="#C8102E"/>
</g>
<defs>
<clipPath id="clip0">
<rect width="137" height="20" fill="white"/>
</clipPath>
</defs>
</svg>
