<svg width="136" height="21" viewBox="0 0 136 21" fill="none" xmlns="http://www.w3.org/2000/svg">
<path d="M0.738281 20.2993V0.0107422H136V20.2993H0.738281ZM39.8227 9.80475C39.8227 9.41098 39.8227 9.01262 39.8227 8.61885C39.7955 7.7891 39.5139 6.98778 39.0159 6.32353C38.5179 5.65927 37.8277 5.16421 37.0388 4.90546C35.3344 4.35476 33.4872 4.44761 31.8465 5.16645C28.0095 6.84686 26.0772 11.3799 26.8877 15.1894C27.0218 15.9241 27.3661 16.6041 27.8789 17.147C28.3917 17.6899 29.051 18.0723 29.7769 18.248C31.4112 18.7292 33.1609 18.6371 34.7357 17.987C38.0782 16.6592 39.9967 12.9778 39.8227 9.80475ZM50.4272 18.2892C50.3585 18.0328 50.3219 17.8314 50.2578 17.6848C49.7129 16.2654 49.1818 14.8414 48.5957 13.4357C48.3988 12.9778 48.4583 12.7672 48.9162 12.52C49.7537 12.109 50.4515 11.4603 50.9223 10.6548C51.393 9.84935 51.6158 8.92297 51.5627 7.99155C51.6054 7.32567 51.4095 6.66636 51.0101 6.13186C50.6107 5.59736 50.0339 5.22263 49.3832 5.07487C48.8037 4.90569 48.2054 4.8088 47.6021 4.78641C46.3933 4.7452 45.1845 4.78641 43.9711 4.78641C42.5609 4.78641 42.538 4.78641 42.2632 6.18294C41.5352 9.95127 40.8163 13.7471 40.1158 17.52C40.0926 17.7774 40.0926 18.0364 40.1158 18.2938C41.1597 18.2938 42.1625 18.2663 43.1561 18.2938C43.646 18.2938 43.7834 18.1336 43.8566 17.6711C44.0764 16.3295 44.3603 15.0017 44.6488 13.509C44.7541 13.7425 44.7953 13.8066 44.8182 13.8799C45.212 15.1757 45.5966 16.476 46.0132 17.7627C46.0774 17.9596 46.2971 18.248 46.4711 18.2526C47.7349 18.3259 49.0444 18.2892 50.4272 18.2892ZM19.7677 14.205C20.0195 14.205 20.1844 14.205 20.3492 14.205C22.9316 14.063 25.0195 13.0832 26.0727 10.5786C27.2128 7.87709 26.3703 4.91004 22.4509 4.76809C21.0772 4.71315 19.7036 4.80472 18.33 4.81388C17.9545 4.81388 17.7897 4.91919 17.7164 5.31755C17.1212 8.55474 16.4893 11.7828 15.8849 15.0108C15.6834 16.0685 15.4865 17.1216 15.2667 18.2801C16.3199 18.2801 17.2997 18.2251 18.2658 18.2801C18.916 18.3259 19.09 18.0466 19.1816 17.4971C19.3419 16.444 19.5571 15.3634 19.7677 14.205ZM5.57347 18.2801C6.20534 18.3579 6.79601 18.4586 7.40498 18.4999C9.62111 18.6555 11.6404 18.2389 13.2155 16.5127C14.6669 14.9192 15.0103 11.65 12.46 10.2443C12.0205 10.0051 11.609 9.71797 11.2328 9.38808C10.6788 8.88442 10.775 8.17013 11.503 7.96408C12.1049 7.83837 12.7224 7.8044 13.3345 7.86335C13.7269 7.90626 14.1146 7.98441 14.4929 8.09687L15.1202 4.63073C13.8432 4.56817 12.5637 4.57734 11.2878 4.6582C9.45628 4.86883 7.92239 5.69301 7.19436 7.51078C6.39765 9.49339 6.50754 11.5264 8.81067 12.7535C9.14621 12.9107 9.45518 13.1192 9.72643 13.3716C9.95536 13.6235 10.2347 14.0401 10.1843 14.2874C10.1228 14.4617 10.0191 14.6182 9.88249 14.7428C9.74589 14.8674 9.5806 14.9564 9.40133 15.0017C8.53695 15.0368 7.67128 14.98 6.8189 14.8323C6.38392 14.7544 6.20077 14.7956 6.1275 15.226C5.94893 16.215 5.77494 17.1766 5.57805 18.2938L5.57347 18.2801ZM95.1802 4.8322C94.6957 4.87406 94.2086 4.87406 93.7241 4.8322C93.0053 4.69025 92.845 5.07029 92.7443 5.64722C92.4741 7.18111 92.1673 8.71042 91.8697 10.258H85.9173C86.2607 8.45401 86.5904 6.6866 86.9384 4.84593H85.5922C84.6536 4.84593 84.6765 4.84593 84.4796 5.79374C83.9896 8.38991 83.4906 10.9861 83.0006 13.5777C82.7076 15.1024 82.4283 16.6317 82.1169 18.2847C82.7534 18.2847 83.3303 18.2847 83.9026 18.2847C84.3147 18.2847 84.4475 18.1107 84.5116 17.7535C84.8001 16.1143 85.1115 14.4797 85.3908 12.8359C85.4594 12.4284 85.6151 12.2727 86.0364 12.2773C87.5565 12.2773 89.0812 12.2773 90.6151 12.2773H91.4714C91.0959 14.3057 90.7342 16.2379 90.3541 18.2709C90.9814 18.2709 91.5217 18.2709 92.0575 18.2709C92.4467 18.2709 92.6298 18.2022 92.7122 17.7535C93.2525 14.7865 93.8386 11.8011 94.4064 8.86152C94.6674 7.58404 94.9146 6.27909 95.1848 4.84593L95.1802 4.8322ZM55.6104 8.12434C54.9602 11.5493 54.3329 14.8735 53.6873 18.2801C54.8961 18.2801 56.0179 18.2801 57.1397 18.2801C57.2725 18.2801 57.4831 18.0145 57.5151 17.8222C57.973 15.4962 58.408 13.1656 58.8521 10.835C59.0216 9.94211 59.2001 9.05383 59.3787 8.15181C60.2029 8.15181 60.9492 8.15181 61.7001 8.15181C61.8833 8.15181 62.1855 7.99155 62.213 7.85419C62.4282 6.88807 62.5884 5.91279 62.7578 4.95582C62.6617 4.90546 62.6251 4.86883 62.5884 4.86883C59.6489 4.86883 56.7078 4.86883 53.7651 4.86883C53.6369 4.86883 53.4171 4.99703 53.3942 5.10234C53.1882 6.09136 53.0142 7.08496 52.8127 8.15639L55.6104 8.12434ZM106.018 18.2892C105.968 17.8909 105.94 17.5658 105.89 17.2407C105.313 13.7456 104.733 10.2535 104.15 6.76444C104.045 6.13715 104.086 5.24887 103.692 4.96498C103.298 4.6811 102.415 4.82304 101.751 4.85967C101.629 4.87609 101.512 4.91851 101.407 4.98407C101.303 5.04964 101.214 5.13681 101.146 5.23971C98.8936 9.35145 96.6561 13.4724 94.4338 17.6024C94.3285 17.7901 94.2415 17.987 94.095 18.2984C94.91 18.2984 95.5923 18.2984 96.2745 18.2984C96.4256 18.2984 96.6042 18.0786 96.6958 17.9183C97.1033 17.1903 97.465 16.4394 97.8908 15.7251C97.959 15.6231 98.0482 15.5368 98.1524 15.472C98.2567 15.4073 98.3735 15.3655 98.4952 15.3497C99.4751 15.3084 100.455 15.3497 101.435 15.3497H103.17C103.303 16.2654 103.404 17.0484 103.55 17.8451C103.582 18.0237 103.765 18.303 103.894 18.303C104.585 18.3259 105.267 18.2892 106.018 18.2892ZM111.765 4.84135C111.091 4.84135 110.533 4.84135 109.974 4.84135C109.617 4.84135 109.471 4.94209 109.402 5.29923C108.866 8.20676 108.275 11.1051 107.781 13.9989C107.669 14.7388 107.715 15.4938 107.914 16.215C108.303 17.6665 109.503 18.1748 110.853 18.3488C114.429 18.8066 117.447 17.52 118.23 13.4678C118.546 11.8148 118.871 10.1573 119.182 8.50438C119.411 7.30932 119.64 6.10968 119.864 4.84135C119.363 4.86916 118.86 4.86916 118.358 4.84135C117.781 4.77267 117.575 4.98788 117.474 5.55107C117.016 8.21591 116.481 10.8716 115.954 13.5273C115.524 15.6793 114.077 16.7324 111.902 16.5264C110.446 16.389 109.736 15.487 109.997 14.0355C110.322 12.2361 110.698 10.4412 111.046 8.64174C111.284 7.41463 111.508 6.18752 111.765 4.84135ZM80.1709 15.7572C80.0317 15.7766 79.894 15.8056 79.7589 15.8442C78.7418 16.2483 77.6433 16.4052 76.5537 16.302C76.0181 16.3128 75.4957 16.1355 75.0774 15.8008C74.6591 15.4662 74.3714 14.9954 74.2643 14.4705C73.8752 12.5898 74.2403 10.6315 75.2808 9.0172C76.3843 7.18569 78.1471 6.50803 80.2854 6.93386L81.7689 7.23606C81.8926 6.81481 82.0208 6.42103 82.1261 6.02268C82.3825 5.01077 82.4741 5.15271 81.4713 4.96956C77.8358 4.30564 74.8596 5.28092 73.0189 8.33496C71.8672 10.262 71.3844 12.5155 71.6453 14.7453C71.6871 15.5687 72.0012 16.3549 72.5382 16.9806C73.0752 17.6063 73.8047 18.036 74.6123 18.2022C76.2824 18.5859 78.0264 18.4971 79.649 17.9458C79.7451 17.9052 79.8303 17.8426 79.8979 17.7631C79.9655 17.6836 80.0135 17.5893 80.0382 17.4879C80.1481 16.9522 80.1435 16.389 80.1709 15.7572ZM70.6105 6.72781C70.6837 6.31114 70.8073 5.76169 70.8669 5.20766C70.8593 5.11908 70.8298 5.03377 70.781 4.95943C70.7323 4.88509 70.6658 4.82406 70.5876 4.78183C69.3575 4.53634 68.0876 4.57392 66.8742 4.89172C65.1525 5.39997 64.0216 6.50345 63.724 8.32123C63.4355 10.052 64.2643 11.2333 65.6791 12.1079C66.124 12.3747 66.544 12.6812 66.9337 13.0236C67.1691 13.2098 67.3524 13.4538 67.4656 13.7318C67.5789 14.0098 67.6183 14.3123 67.5801 14.61C67.5418 14.9078 67.4272 15.1905 67.2473 15.4309C67.0675 15.6712 66.8285 15.8609 66.5537 15.9815C66.1147 16.2177 65.6277 16.3508 65.1297 16.3707C64.2942 16.3325 63.4613 16.2515 62.6342 16.128C62.506 16.737 62.3641 17.433 62.2038 18.1839C62.5701 18.2526 62.8677 18.3213 63.1699 18.3625C65.1388 18.6189 66.9978 18.4083 68.5912 17.0804C69.0411 16.7307 69.4051 16.2828 69.6554 15.771C69.9058 15.2592 70.036 14.6969 70.036 14.1271C70.036 13.5573 69.9058 12.9951 69.6554 12.4832C69.4051 11.9714 69.0411 11.5235 68.5912 11.1738C68.0921 10.7709 67.5427 10.4229 67.0253 10.0383C66.3659 9.54376 65.9172 8.91189 66.1461 8.05566C66.2347 7.68222 66.441 7.34712 66.7344 7.0998C67.0279 6.85248 67.3931 6.70602 67.7762 6.68202C68.7211 6.64493 69.6673 6.66021 70.6105 6.72781ZM127.57 2.49702C124.791 2.2635 121.98 4.72231 121.966 7.99155C121.967 8.72458 122.112 9.45024 122.395 10.1266C122.678 10.803 123.091 11.4167 123.612 11.9322C124.134 12.4478 124.752 12.855 125.431 13.1303C126.11 13.4057 126.837 13.5437 127.57 13.5365C128.301 13.5414 129.024 13.4007 129.699 13.1228C130.374 12.8448 130.987 12.4351 131.502 11.9176C132.017 11.4001 132.424 10.7852 132.699 10.1087C132.973 9.43224 133.11 8.70784 133.102 7.97782C133.106 4.45674 130.139 2.30013 127.57 2.49702Z" fill="#002F5F"/>
<path d="M39.8229 9.80465C39.9969 12.9777 38.0784 16.6728 34.7313 17.9869C33.1565 18.637 31.4068 18.7291 29.7725 18.2479C29.0466 18.0722 28.3873 17.6898 27.8745 17.1469C27.3617 16.604 27.0174 15.924 26.8833 15.1893C26.0728 11.3798 28.0051 6.84676 31.8421 5.16635C33.4828 4.44751 35.3299 4.35466 37.0344 4.90536C37.8233 5.16411 38.5135 5.65918 39.0115 6.32343C39.5094 6.98768 39.7911 7.789 39.8183 8.61875C39.8412 9.01252 39.8229 9.41088 39.8229 9.80465ZM35.9218 10.4869C35.9493 8.82479 35.1938 7.88157 34.0536 8.08303C33.36 8.18958 32.7116 8.49313 32.1855 8.95758C30.8668 10.2442 30.5371 11.9109 30.8119 13.692C30.8478 13.9962 30.9793 14.2811 31.1875 14.5057C31.3957 14.7303 31.6698 14.8831 31.9703 14.942C32.3758 15.0425 32.8006 15.0349 33.2023 14.9201C33.604 14.8052 33.9686 14.587 34.2597 14.2873C34.7748 13.7956 35.1871 13.2065 35.4724 12.554C35.7578 11.9016 35.9105 11.1989 35.9218 10.4869Z" fill="white"/>
<path d="M50.4273 18.2889C49.0537 18.2889 47.735 18.2889 46.43 18.266C46.2744 18.266 46.0546 17.973 45.9722 17.7761C45.5555 16.4895 45.1709 15.1891 44.7771 13.8933C44.7771 13.82 44.713 13.7559 44.6077 13.5224C44.3192 15.0151 44.0353 16.3429 43.8156 17.6845C43.7423 18.1424 43.6049 18.3255 43.115 18.3072C42.1214 18.266 41.1187 18.3072 40.0747 18.3072C40.0516 18.0498 40.0516 17.7908 40.0747 17.5334C40.8165 13.7468 41.5353 9.95096 42.2771 6.17347C42.5518 4.77694 42.5747 4.79983 43.985 4.77694C45.1983 4.77694 46.4071 4.74489 47.6159 4.77694C48.2193 4.79933 48.8175 4.89622 49.3971 5.0654C50.0469 5.21619 50.6217 5.59347 51.0186 6.12962C51.4155 6.66578 51.6084 7.32575 51.5628 7.99124C51.6165 8.92567 51.3926 9.85509 50.9192 10.6625C50.4459 11.4699 49.7442 12.1193 48.9026 12.5288C48.4447 12.7669 48.3852 12.9867 48.5821 13.4446C49.1681 14.8503 49.6993 16.2743 50.2442 17.6937C50.322 17.8677 50.3586 18.0325 50.4273 18.2889ZM45.2167 10.5737C46.4163 10.7706 47.2542 10.2394 47.5061 9.16341C47.6022 8.75132 47.5976 8.28886 47.1626 8.14692C46.6909 8.04234 46.2078 7.99773 45.7249 8.01414C45.6837 8.01414 45.6059 8.13319 45.5967 8.20645C45.4685 8.994 45.3449 9.78612 45.2167 10.5737Z" fill="white"/>
<path d="M19.7679 14.2047C19.5572 15.3494 19.342 16.43 19.168 17.5152C19.0765 18.0646 18.9025 18.3439 18.2523 18.2982C17.2862 18.2249 16.3063 18.2982 15.2532 18.2982C15.473 17.1397 15.6698 16.0866 15.8713 15.0289C16.4849 11.8238 17.1167 8.57283 17.7028 5.33563C17.7761 4.93727 17.9409 4.83196 18.3164 4.83196C19.69 4.83196 21.0636 4.73123 22.4373 4.78617C26.3567 4.92812 27.1992 7.89517 26.0591 10.5966C25.006 13.0967 22.9318 14.0765 20.3494 14.2047C20.1845 14.2276 20.0197 14.2047 19.7679 14.2047ZM20.4272 10.9355C20.727 10.9587 21.0282 10.9141 21.3084 10.8049C21.5885 10.6957 21.8405 10.5247 22.0455 10.3048C22.2505 10.0848 22.4033 9.82142 22.4926 9.53426C22.5818 9.2471 22.6052 8.94352 22.5609 8.64609C22.4419 8.06458 22.0389 7.93638 21.5215 7.87685C21.0041 7.81733 20.9354 8.20194 20.8668 8.55909C20.7111 9.34664 20.5737 10.1159 20.4272 10.9355Z" fill="white"/>
<path d="M5.57819 18.2937C5.77507 17.1765 5.94907 16.215 6.1139 15.2534C6.18716 14.823 6.37032 14.7955 6.8053 14.8596C7.65768 15.0074 8.52335 15.0642 9.38773 15.029C9.567 14.9837 9.73229 14.8948 9.86889 14.7702C10.0055 14.6456 10.1092 14.4891 10.1707 14.3148C10.2394 14.0538 9.96008 13.6371 9.71282 13.399C9.44158 13.1466 9.13261 12.938 8.79707 12.7809C6.50768 11.5538 6.38405 9.52078 7.18076 7.53817C7.90878 5.70666 9.44268 4.89621 11.2742 4.68559C12.5501 4.60472 13.8296 4.59555 15.1066 4.65811L14.4748 8.11051C14.0964 7.99806 13.7087 7.91991 13.3163 7.877C12.7042 7.81805 12.0867 7.85201 11.4848 7.97773C10.7751 8.18377 10.6606 8.89349 11.2147 9.40173C11.5908 9.73162 12.0023 10.0188 12.4418 10.258C14.9922 11.6636 14.6487 14.9329 13.1973 16.5263C11.6222 18.2525 9.60293 18.6692 7.3868 18.5135C6.80072 18.4723 6.23295 18.3716 5.57819 18.2937Z" fill="white"/>
<path d="M95.185 4.84592C94.9148 6.27908 94.6676 7.59319 94.4157 8.88898C93.848 11.8515 93.2619 14.8139 92.7216 17.781C92.6392 18.2389 92.456 18.3167 92.0668 18.2984C91.5311 18.2984 90.9908 18.2984 90.3635 18.2984C90.7435 16.2654 91.1053 14.3332 91.4807 12.3048H90.6245C89.1043 12.3048 87.5796 12.3048 86.0457 12.3048C85.6245 12.3048 85.4688 12.4559 85.4001 12.8634C85.1208 14.5071 84.8094 16.1418 84.521 17.781C84.4569 18.1381 84.3241 18.335 83.912 18.3121C83.3397 18.2801 82.7627 18.3121 82.1263 18.3121C82.4376 16.6592 82.7169 15.107 83.01 13.6051C83.4999 11.0044 83.999 8.40821 84.4889 5.8212C84.6675 4.87339 84.6629 4.87339 85.6016 4.87339H86.9477C86.5997 6.7049 86.2701 8.48147 85.9267 10.2855H91.8791C92.1767 8.73788 92.4835 7.20857 92.7536 5.67468C92.8544 5.09775 93.0146 4.71771 93.7335 4.85966C94.2168 4.89668 94.7024 4.89209 95.185 4.84592Z" fill="white"/>
<path d="M55.6153 8.13791H52.8176C53.0191 7.06647 53.1931 6.07288 53.3991 5.08386C53.3991 4.97855 53.6418 4.85034 53.77 4.85034C56.7157 4.85034 59.6568 4.85034 62.5933 4.85034C62.63 4.85034 62.6666 4.88697 62.7627 4.93734C62.5933 5.8943 62.4331 6.86958 62.2179 7.83571C62.1904 7.97307 61.8882 8.12417 61.705 8.13333C60.9541 8.16538 60.2078 8.13333 59.3836 8.13333C59.205 9.04908 59.0265 9.92363 58.857 10.8165C58.4312 13.1746 57.9733 15.5052 57.5155 17.8312C57.4834 18.0052 57.2728 18.2662 57.14 18.2891C56.0182 18.3257 54.8964 18.2891 53.6876 18.2891C54.3378 14.887 54.9651 11.5628 55.6153 8.13791Z" fill="white"/>
<path d="M106.018 18.2889C105.268 18.2889 104.585 18.2889 103.903 18.266C103.775 18.266 103.592 17.9822 103.56 17.8082C103.413 17.0115 103.312 16.2056 103.18 15.3127H101.444C100.464 15.3127 99.4846 15.3127 98.5047 15.3127C98.383 15.3286 98.2661 15.3703 98.1619 15.4351C98.0577 15.4999 97.9685 15.5861 97.9003 15.6882C97.4745 16.4025 97.1127 17.1534 96.7052 17.8814C96.6137 18.0417 96.4351 18.2523 96.284 18.2615C95.6018 18.3027 94.9104 18.2615 94.1045 18.2615C94.251 17.9501 94.338 17.7532 94.4433 17.5655C96.6747 13.4446 98.9122 9.32369 101.156 5.20279C101.224 5.09989 101.312 5.01272 101.417 4.94716C101.521 4.8816 101.638 4.83917 101.76 4.82275C102.424 4.78612 103.262 4.60297 103.702 4.92806C104.141 5.25316 104.045 6.10023 104.159 6.72752C104.746 10.2166 105.326 13.7086 105.899 17.2038C105.941 17.5655 105.968 17.8906 106.018 18.2889ZM102.017 7.86306L99.0404 13.4583H102.919C102.616 11.5948 102.328 9.79531 102.017 7.86306Z" fill="white"/>
<path d="M111.765 4.84109C111.508 6.18725 111.307 7.41436 111.046 8.63232C110.698 10.4318 110.322 12.2267 109.997 14.0261C109.736 15.4776 110.455 16.3796 111.902 16.517C114.077 16.7276 115.524 15.6699 115.954 13.5179C116.481 10.8622 116.994 8.20649 117.474 5.54164C117.575 4.97845 117.781 4.76325 118.358 4.83193C118.86 4.85974 119.363 4.85974 119.865 4.83193C119.627 6.12315 119.407 7.32279 119.182 8.51785C118.871 10.1708 118.546 11.8283 118.23 13.4812C117.447 17.5335 114.43 18.8201 110.854 18.3622C109.48 18.1882 108.303 17.68 107.914 16.2285C107.715 15.5073 107.67 14.7522 107.781 14.0124C108.276 11.1003 108.866 8.20191 109.402 5.3127C109.471 4.94182 109.617 4.82735 109.974 4.85483C110.533 4.8594 111.087 4.84109 111.765 4.84109Z" fill="white"/>
<path d="M80.1711 15.7576C80.1436 16.3895 80.1711 16.9298 80.0749 17.4609C80.0503 17.5623 80.0023 17.6566 79.9347 17.7361C79.8671 17.8156 79.7818 17.8782 79.6857 17.9188C78.0632 18.4701 76.3192 18.5589 74.6491 18.1752C73.8415 18.009 73.112 17.5793 72.575 16.9536C72.038 16.3279 71.7239 15.5417 71.682 14.7182C71.4211 12.4885 71.904 10.235 73.0557 8.30796C74.8872 5.25391 77.8725 4.27863 81.5081 4.94256C82.5108 5.12571 82.4238 4.98376 82.1629 5.99567C82.0575 6.39403 81.9293 6.7878 81.8057 7.20905L80.2947 6.87938C78.1564 6.45355 76.3936 7.13579 75.2901 8.96272C74.2447 10.5819 73.8795 12.5478 74.2736 14.4344C74.3806 14.9593 74.6684 15.43 75.0867 15.7647C75.505 16.0993 76.0274 16.2767 76.563 16.2659C77.6526 16.3691 78.7511 16.2122 79.7682 15.808C79.9012 15.7822 80.0358 15.7654 80.1711 15.7576Z" fill="white"/>
<path d="M70.6106 6.72777C69.6685 6.66797 68.7238 6.66033 67.7809 6.70487C67.3978 6.72887 67.0326 6.87533 66.7392 7.12265C66.4457 7.36997 66.2394 7.70507 66.1509 8.07851C65.9219 8.93474 66.3706 9.56661 67.03 10.0611C67.5474 10.4457 68.0968 10.7937 68.5959 11.1967C69.0458 11.5464 69.4098 11.9943 69.6602 12.5061C69.9105 13.0179 70.0407 13.5802 70.0407 14.15C70.0407 14.7198 69.9105 15.282 69.6602 15.7939C69.4098 16.3057 69.0458 16.7536 68.5959 17.1033C67.0025 18.4311 65.1435 18.6418 63.1746 18.3853C62.8724 18.3441 62.5748 18.2754 62.2085 18.2068C62.3688 17.4558 62.5107 16.7599 62.6389 16.1509C63.4661 16.2743 64.299 16.3553 65.1344 16.3936C65.6324 16.3736 66.1194 16.2405 66.5584 16.0044C66.8332 15.8837 67.0722 15.694 67.2521 15.4537C67.4319 15.2134 67.5465 14.9306 67.5848 14.6329C67.623 14.3352 67.5836 14.0326 67.4704 13.7546C67.3571 13.4766 67.1738 13.2327 66.9384 13.0465C66.5487 12.704 66.1288 12.3975 65.6838 12.1307C64.269 11.2562 63.4402 10.0749 63.7287 8.34408C64.0263 6.51257 65.1573 5.42282 66.8789 4.91457C68.0923 4.59677 69.3622 4.55919 70.5923 4.80468C70.6705 4.84691 70.737 4.90794 70.7858 4.98228C70.8345 5.05662 70.864 5.14193 70.8716 5.23051C70.7937 5.76164 70.6839 6.3111 70.6106 6.72777Z" fill="white"/>
<path d="M127.571 2.49704C130.121 2.29099 133.065 4.45676 133.065 7.99157C133.072 8.71735 132.935 9.43726 132.661 10.1097C132.388 10.7822 131.985 11.3938 131.474 11.9094C130.963 12.425 130.355 12.8342 129.685 13.1135C129.015 13.3927 128.296 13.5365 127.571 13.5365C126.837 13.5413 126.11 13.4007 125.431 13.1229C124.753 12.845 124.136 12.4354 123.616 11.9176C123.097 11.3999 122.685 10.7843 122.405 10.1065C122.125 9.42869 121.982 8.70208 121.985 7.96868C121.998 4.72233 124.823 2.26352 127.571 2.49704ZM127.571 12.5429C128.72 12.4536 129.794 11.934 130.577 11.0877C131.36 10.2414 131.795 9.13086 131.795 7.97784C131.795 6.82482 131.36 5.71425 130.577 4.86798C129.794 4.0217 128.72 3.50204 127.571 3.41279C126.36 3.42589 125.203 3.9125 124.347 4.76837C123.492 5.62423 123.005 6.78127 122.992 7.99157C122.999 9.20118 123.485 10.3588 124.343 11.2115C125.201 12.0643 126.361 12.5429 127.571 12.5429Z" fill="white"/>
<path d="M35.9217 10.4869C35.9093 11.1996 35.7551 11.9026 35.4682 12.5551C35.1812 13.2076 34.7673 13.7964 34.2505 14.2873C33.9594 14.587 33.5948 14.8052 33.1931 14.9201C32.7914 15.035 32.3666 15.0425 31.9611 14.9421C31.6606 14.8831 31.3865 14.7303 31.1783 14.5057C30.9701 14.2811 30.8386 13.9962 30.8027 13.692C30.5462 11.9109 30.8759 10.2442 32.1763 8.95759C32.7024 8.49314 33.3508 8.18959 34.0444 8.08304C35.1937 7.88158 35.9492 8.82481 35.9217 10.4869Z" fill="#002F5F"/>
<path d="M45.2168 10.5741C45.345 9.78653 45.4686 8.9944 45.606 8.20685C45.606 8.13359 45.693 8.01454 45.7342 8.01454C46.2171 7.99813 46.7002 8.04275 47.1719 8.14733C47.6298 8.28927 47.6298 8.75173 47.5153 9.16382C47.2543 10.2398 46.4164 10.771 45.2168 10.5741Z" fill="#002F5F"/>
<path d="M20.4272 10.9359C20.5783 10.1163 20.7156 9.34704 20.885 8.5778C20.9537 8.22066 20.9583 7.82688 21.5398 7.89556C22.1213 7.96424 22.4556 8.08329 22.5792 8.6648C22.6209 8.96249 22.5949 9.26575 22.5033 9.55204C22.4117 9.83834 22.2568 10.1003 22.05 10.3185C21.8432 10.5367 21.59 10.7055 21.309 10.8124C21.0281 10.9193 20.7267 10.9615 20.4272 10.9359Z" fill="#002F5F"/>
<path d="M102.016 7.86279C102.328 9.79504 102.616 11.5945 102.932 13.4581H99.054L102.016 7.86279Z" fill="#002F5F"/>
<path d="M127.571 12.5431C126.969 12.5486 126.372 12.4353 125.814 12.21C125.256 11.9846 124.748 11.6514 124.319 11.2296C123.89 10.8078 123.548 10.3055 123.314 9.7515C123.079 9.1975 122.955 8.60266 122.951 8.00097C122.943 6.7866 123.418 5.61884 124.271 4.75457C125.124 3.8903 126.285 3.40032 127.5 3.39243C128.714 3.38454 129.882 3.85937 130.746 4.71248C131.61 5.56559 132.1 6.72708 132.108 7.94145C132.116 8.54254 132.005 9.13921 131.78 9.69688C131.556 10.2545 131.223 10.7621 130.801 11.1902C130.379 11.6182 129.876 11.9582 129.321 12.1904C128.767 12.4227 128.172 12.5426 127.571 12.5431ZM125.982 11.577C126.261 11.5037 126.44 11.4671 126.646 11.3984C127.561 11.0825 128.436 10.7299 129.347 10.446C129.778 10.3133 129.874 10.0843 129.869 9.67223C129.869 8.21618 129.869 6.76012 129.869 5.29949C129.869 5.10261 129.869 4.90572 129.833 4.70883C129.695 4.70883 129.631 4.67678 129.576 4.70883C127.873 5.31323 126.17 5.91763 124.475 6.54034C124.407 6.57449 124.348 6.62421 124.303 6.68546C124.257 6.74671 124.227 6.81778 124.214 6.89291C124.178 7.2821 124.214 7.67588 124.214 8.16581L126.005 7.53852L125.982 11.577Z" fill="#002F5F"/>
<path d="M125.996 11.5763V7.53322L124.205 8.16051C124.205 7.67058 124.205 7.27681 124.205 6.88761C124.218 6.81248 124.248 6.74141 124.294 6.68016C124.339 6.61891 124.398 6.5692 124.466 6.53505C126.16 5.90775 127.864 5.30335 129.567 4.70353C129.622 4.68064 129.686 4.70353 129.823 4.70353C129.823 4.90042 129.86 5.09731 129.86 5.2942C129.86 6.75483 129.86 8.21088 129.86 9.66693C129.86 10.079 129.768 10.308 129.338 10.4407C128.422 10.7246 127.539 11.0772 126.637 11.3931C126.472 11.4572 126.275 11.503 125.996 11.5763Z" fill="white"/>
</svg>
