<svg width="123" height="30" viewBox="0 0 123 30" fill="none" xmlns="http://www.w3.org/2000/svg">
<path d="M116.464 16.3802C116.464 17.2423 116.764 17.9733 117.345 18.573C117.945 19.1728 118.676 19.4726 119.557 19.4726C120.419 19.4726 121.15 19.1728 121.731 18.573C122.312 17.992 122.593 17.2611 122.593 16.3802C122.593 15.4993 122.312 14.7683 121.731 14.1873C121.15 13.6063 120.419 13.3252 119.557 13.3252C118.695 13.3252 117.964 13.6063 117.345 14.1873C116.745 14.7871 116.464 15.518 116.464 16.3802Z" fill="#5CB130"/>
<path d="M98.7715 9.83967C98.7715 8.45275 99.2963 7.2345 100.327 6.20368C101.339 5.1916 102.557 4.66682 103.982 4.66682C105.425 4.66682 106.662 5.17286 107.674 6.20368C108.686 7.21576 109.211 8.434 109.211 9.83967C109.211 11.2453 108.705 12.4636 107.674 13.4757C106.643 14.5065 105.406 15.0313 103.982 15.0313C102.576 15.0313 101.358 14.5065 100.327 13.4757C99.2963 12.4448 98.7715 11.2266 98.7715 9.83967ZM93.9923 9.83967C93.9923 11.6202 94.4421 13.2695 95.323 14.7689C96.1851 16.287 97.3846 17.4865 98.9402 18.3674C100.477 19.267 102.145 19.6981 103.963 19.6981C106.006 19.6981 107.749 19.1171 109.192 17.9551V19.1733H114.065V0.356103H109.192V1.74303C107.73 0.58101 105.987 0 103.963 0C101.171 0 98.8278 0.955854 96.8973 2.86756C94.9669 4.77927 93.9923 7.1033 93.9923 9.83967ZM77.4991 14.5815V19.1733H92.6053V14.4877H83.909L92.6053 4.79801V0.356103H77.4991V5.04166H86.233L77.4991 14.5815ZM62.8239 0.356103V19.1733H67.6969V9.65225C67.6969 8.97753 67.7531 8.39652 67.8469 7.87174C67.9406 7.44066 68.128 6.97211 68.4466 6.50355C68.7277 6.07248 69.1401 5.71638 69.6836 5.45399C70.2084 5.21034 70.9018 5.02292 71.8015 4.87298C72.7198 4.72304 73.7694 4.66682 74.9314 4.66682V0C73.0572 0 71.614 0.131196 70.6207 0.374845C69.5711 0.637236 68.5965 1.08705 67.6969 1.74303V0.356103H62.8239ZM45.3187 9.83967C45.3187 8.45275 45.8435 7.2345 46.8743 6.20368C47.8864 5.1916 49.1046 4.66682 50.529 4.66682C51.9722 4.66682 53.2092 5.17286 54.2213 6.20368C55.2333 7.21576 55.7581 8.434 55.7581 9.83967C55.7581 11.2453 55.2521 12.4636 54.2213 13.4757C53.1904 14.5065 51.9534 15.0313 50.529 15.0313C49.1234 15.0313 47.9051 14.5065 46.8743 13.4757C45.8435 12.4448 45.3187 11.2266 45.3187 9.83967ZM40.5394 9.83967C40.5394 11.6202 40.9892 13.2695 41.8701 14.7689C42.7323 16.287 43.9318 17.4865 45.4874 18.3674C47.0242 19.267 48.6923 19.6981 50.5103 19.6981C52.347 19.6981 54.0338 19.2483 55.5707 18.3674C57.1076 17.4865 58.3258 16.287 59.2067 14.7689C60.0876 13.2508 60.5186 11.6014 60.5186 9.83967C60.5186 8.05916 60.0876 6.40984 59.2067 4.89172C58.3258 3.3736 57.1076 2.19284 55.5707 1.31196C54.0338 0.449814 52.347 0.0187434 50.5103 0.0187434C47.7177 0.0187434 45.3749 0.974596 43.4445 2.8863C41.514 4.77927 40.5394 7.1033 40.5394 9.83967ZM23.2591 10.0646V9.61476C23.3153 8.26532 23.8588 7.10331 24.8897 6.12871C25.883 5.15411 27.0825 4.66682 28.4882 4.66682C29.9126 4.66682 31.1308 5.17286 32.1429 6.20368C33.155 7.21576 33.6798 8.434 33.6798 9.83967C33.6798 11.2453 33.1737 12.4636 32.1429 13.4757C31.1121 14.5065 29.8938 15.0313 28.4882 15.0313C27.0825 15.0313 25.883 14.544 24.8897 13.5694C23.8401 12.576 23.2966 11.414 23.2591 10.0646ZM18.3674 0.356103V29.2004H23.2404V17.9551C24.6648 19.1171 26.4078 19.6981 28.4694 19.6981C30.3062 19.6981 31.9742 19.2483 33.4923 18.3674C35.0292 17.4865 36.2475 16.287 37.1283 14.7689C38.0092 13.2508 38.4403 11.6014 38.4403 9.83967C38.4403 7.1033 37.4657 4.77927 35.5353 2.86756C33.5861 0.955854 31.2245 0 28.4507 0C26.4078 0 24.6648 0.58101 23.2216 1.74303V0.356103H18.3674Z" fill="#13110C"/>
<path d="M2.60517 13.2129L0 16.8489C2.34278 18.8543 4.94795 19.7164 8.13413 19.7164C12.8384 19.7164 16.0246 17.6361 16.0246 13.7189C16.0246 10.4953 14.0754 8.54608 8.82759 7.60897C5.86632 7.08419 5.24782 6.65312 5.24782 5.69726C5.24782 5.02254 6.01626 4.46028 7.96545 4.46028C9.57728 4.46028 11.0954 5.0038 12.5948 6.05336L15.0875 2.54857C13.1008 0.917994 10.6831 0.0371094 7.90922 0.0371094C3.52354 0.0371094 0.487298 2.32366 0.487298 6.05336C0.487298 9.40822 2.60517 11.0763 7.04708 11.7697C10.252 12.2758 11.2453 12.8193 11.2453 13.7939C11.2453 14.8622 10.1021 15.2558 8.24658 15.2558C6.2599 15.2558 4.25449 14.4874 2.60517 13.2129Z" fill="#13110C"/>
</svg>
