<svg width="64" height="64" viewBox="0 0 64 64" fill="none" xmlns="http://www.w3.org/2000/svg">
<g clip-path="url(#clip0)">
<path d="M31.7984 0.104736C14.2899 0.104736 0.0957031 14.2985 0.0957031 31.8071C0.0957031 49.3164 14.2899 63.509 31.7984 63.509C49.3088 63.509 63.5015 49.3164 63.5015 31.8071C63.5015 14.2997 49.3088 0.106251 31.798 0.106251L31.7984 0.104736ZM46.3371 45.8286C45.7692 46.7599 44.5502 47.0552 43.6189 46.4835C36.1754 41.9369 26.805 40.9072 15.7697 43.4285C14.7063 43.6707 13.6463 43.0045 13.404 41.9407C13.1606 40.8769 13.8242 39.8169 14.8903 39.5746C26.9667 36.8144 37.3256 38.0035 45.6821 43.1105C46.6134 43.6821 46.9087 44.8973 46.3371 45.8286ZM50.2174 37.1953C49.5019 38.3594 47.9801 38.7266 46.8178 38.0111C38.2962 32.772 25.3063 31.2551 15.2268 34.3147C13.9196 34.7096 12.539 33.9729 12.1422 32.6679C11.7485 31.3607 12.4856 29.9827 13.7905 29.5852C25.304 26.0918 39.6174 27.784 49.4035 33.7976C50.5657 34.5131 50.9329 36.035 50.2174 37.1957V37.1953ZM50.5506 28.2065C40.3329 22.1376 23.4751 21.5796 13.7197 24.5404C12.1532 25.0155 10.4966 24.1312 10.0218 22.5646C9.54712 20.9973 10.4307 19.3418 11.9984 18.8656C23.1969 15.466 41.8131 16.1229 53.5769 23.1064C54.9889 23.9426 55.4508 25.7624 54.6141 27.1696C53.7813 28.5786 51.9566 29.0431 50.5521 28.2065H50.5506Z" fill="#1ED760"/>
</g>
<defs>
<clipPath id="clip0">
<rect width="63.6" height="63.6" fill="white"/>
</clipPath>
</defs>
</svg>
