<svg width="115" height="37" viewBox="0 0 115 37" fill="none" xmlns="http://www.w3.org/2000/svg">
<path d="M14.6205 2.78947C15.689 2.7811 16.7547 2.90121 17.7945 3.14721C18.5793 3.34072 19.3337 3.64134 20.0364 4.04058C22.2455 5.29234 23.6619 7.14999 24.352 9.57615C24.3823 9.68444 24.4571 9.83398 24.2707 9.85267C23.649 9.91713 23.0382 10.0944 22.4048 10.0325L22.3235 9.78886C21.6785 7.8674 20.4956 6.40938 18.6413 5.53856C16.9392 4.7393 15.1371 4.55237 13.2944 4.78313C11.2427 5.04096 9.50195 5.91499 8.21714 7.57089C7.23226 8.8407 6.86268 10.2942 7.03747 11.8895C7.05037 12.0055 7.0852 12.0719 7.21033 12.0623C7.32878 12.9919 7.71231 13.8679 8.31518 14.5857C9.17171 15.6209 10.292 16.2513 11.562 16.629C12.8481 17.0113 14.1813 17.1885 15.4912 17.467C16.7909 17.7416 18.1118 17.9246 19.3534 18.4338C21.3019 19.2299 22.8937 20.432 23.8592 22.3541C23.5928 22.4295 23.8108 22.5681 23.8418 22.6409C24.4765 24.137 24.6338 25.6814 24.2727 27.2612C23.6464 30.0026 21.9249 31.8435 19.3798 32.9083C16.7193 34.0208 13.9659 34.0041 11.2092 33.3008C7.19356 32.2734 4.2589 28.988 3.75388 25.0084C4.22665 24.886 4.72135 24.924 5.19412 24.7506C5.48178 24.6449 5.68882 24.8099 5.74429 25.0922C6.06678 26.7307 6.77626 28.1481 7.96947 29.3554C9.22912 30.631 10.7545 31.3233 12.4663 31.6907C13.1113 31.8326 13.7705 31.9003 14.4309 31.8925C14.5347 31.9756 14.6573 31.9427 14.7727 31.9447C15.5027 31.9558 16.2318 31.891 16.9482 31.7513C18.6961 31.4148 20.217 30.6736 21.3644 29.2665C23.0091 27.2503 23.0872 24.2988 21.527 22.2619C20.6562 21.1294 19.4733 20.432 18.1363 19.9808C16.7109 19.5012 15.2145 19.3253 13.7504 19.0139C12.4747 18.7406 11.1737 18.566 9.96246 18.0471C6.97039 16.7579 5.27926 14.531 5.1967 11.2385C5.14381 9.15718 5.88941 7.32853 7.33352 5.8196C9.16075 3.90458 11.4446 3.0054 14.0626 2.89969C14.2561 2.89067 14.4496 2.91001 14.6205 2.78947Z" fill="#BE0C32"/>
<path d="M103.511 25.7062C103.514 23.2607 103.518 20.8156 103.521 18.3709C103.521 17.9346 103.521 17.9346 103.972 17.9346C104.799 17.9346 105.627 17.9462 106.454 17.9281C106.727 17.9223 106.815 17.9778 106.813 18.2743C106.799 20.634 106.804 22.9932 106.805 25.3529C106.805 25.4702 106.812 25.5882 106.815 25.7062C106.808 25.7545 106.83 25.7706 106.875 25.759C109.239 25.759 111.603 25.7687 113.97 25.759C114.228 25.759 114.315 25.8093 114.309 26.0858C114.288 26.9332 114.288 27.7808 114.309 28.6286C114.315 28.8929 114.227 28.9387 113.986 28.9374C111.708 28.929 109.43 28.9374 107.149 28.9251C106.863 28.9251 106.799 28.9948 106.8 29.2764C106.812 31.6903 106.8 34.1043 106.813 36.5182C106.813 36.7889 106.744 36.8546 106.478 36.8495C105.586 36.8314 104.694 36.834 103.802 36.8495C103.571 36.8534 103.521 36.785 103.521 36.5627C103.529 34.1384 103.521 31.7136 103.534 29.2893C103.534 28.9877 103.449 28.9258 103.163 28.9271C100.905 28.9393 98.648 28.9271 96.3906 28.94C96.1216 28.94 96.05 28.871 96.0558 28.6029C96.0739 27.7559 96.072 26.9076 96.0558 26.0607C96.0513 25.8151 96.1203 25.7603 96.3616 25.7609C98.7254 25.7674 101.089 25.7609 103.456 25.7609C103.496 25.77 103.518 25.7545 103.511 25.7062Z" fill="#0134A0"/>
<path d="M14.6202 2.78977C14.4493 2.91031 14.2558 2.89097 14.0623 2.89999C11.4431 3.00699 9.16047 3.90617 7.33195 5.81539C5.88913 7.32304 5.14353 9.15233 5.19642 11.233C5.27898 14.5255 6.97012 16.7512 9.96218 18.0416C11.1735 18.5637 12.4744 18.7384 13.7502 19.0084C15.2143 19.3211 16.7106 19.497 18.136 19.9753C19.4731 20.4265 20.656 21.1252 21.5267 22.2629C23.0869 24.2997 23.0101 27.2512 21.3642 29.2674C20.2167 30.6745 18.6959 31.4158 16.948 31.7522C16.2315 31.892 15.5024 31.9568 14.7725 31.9456C14.657 31.9456 14.5345 31.9766 14.4306 31.8934L14.4345 30.5398C14.5474 30.4109 14.697 30.4753 14.8286 30.4753C16.2572 30.4695 17.6239 30.2175 18.8642 29.464C21.0571 28.1291 21.6692 25.3169 20.1871 23.3271C19.4318 22.3132 18.3721 21.7305 17.1776 21.403C15.6574 20.9873 14.0984 20.7411 12.5537 20.4362C11.0741 20.1455 9.62421 19.7781 8.28652 19.0574C6.40834 18.0461 4.99712 16.6081 4.18896 14.6099C3.91484 13.9312 3.77166 13.2202 3.62718 12.5086C3.49819 11.8028 3.55237 11.0905 3.56914 10.3815C3.58139 9.88004 3.69813 9.37212 3.83358 8.88483C4.09884 7.898 4.52579 6.96189 5.09709 6.11447C6.29676 4.34448 7.89502 3.07725 9.87898 2.27154C11.347 1.67467 12.8704 1.3975 14.4467 1.36914L14.6099 1.50643C14.6138 1.93443 14.6172 2.36221 14.6202 2.78977Z" fill="#023E98"/>
<path d="M3.62722 12.5078C3.77169 13.2168 3.91488 13.9304 4.18899 14.6091C4.99522 16.6073 6.40837 18.0453 8.28656 19.0566C9.62425 19.7773 11.0742 20.1447 12.5538 20.4354C14.0985 20.7396 15.6574 20.9858 17.1776 21.4022C18.3721 21.7297 19.4318 22.3124 20.1871 23.3263C21.6706 25.3161 21.0552 28.1283 18.8642 29.4632C17.6239 30.2193 16.2572 30.4688 14.8286 30.4746C14.6996 30.4746 14.5474 30.4101 14.4345 30.539H14.4087L14.3836 30.5332C14.3836 30.4971 14.3642 30.4797 14.3274 30.4836C12.9807 30.4249 11.6946 30.1362 10.4976 29.4974C9.26306 28.8393 8.34848 27.8634 7.71575 26.6349C7.42952 26.0704 7.22599 25.4678 7.1114 24.8455C7.07722 24.6657 7.08496 24.5464 7.32876 24.5284C7.70156 24.5 8.07242 24.4349 8.44135 24.3698C8.69419 24.3254 8.6671 24.5278 8.69225 24.6509C8.84759 25.4096 9.17553 26.1224 9.65069 26.7341C10.4724 27.8112 11.5785 28.4506 12.8814 28.7645C14.361 29.1203 15.8341 29.1319 17.286 28.6137C17.9366 28.3843 18.4984 27.9558 18.8913 27.389C19.4937 26.533 19.4241 25.2213 18.8346 24.3492C18.2451 23.4771 17.3666 23.0884 16.4011 22.8712C14.8067 22.5122 13.2045 22.1841 11.6005 21.8702C10.126 21.5814 8.7174 21.1173 7.39326 20.4083C6.31743 19.8321 5.32932 19.1256 4.50181 18.2303C3.4434 17.0843 2.72747 15.741 2.31468 14.2301C2.19794 13.8028 2.17149 13.3522 1.978 12.941C1.92318 12.8249 1.9838 12.7141 2.13408 12.6941L3.62722 12.5078Z" fill="#A1A8AC"/>
<path d="M60.7449 36.9983C59.6123 36.9983 58.3301 36.5168 57.2155 35.6363C56.3551 34.9576 55.7379 34.0752 55.3406 33.0432C55.0774 32.3581 54.96 31.651 54.8891 30.9226C54.731 29.4608 55.0572 27.9876 55.8179 26.729C56.8202 25.0622 58.3539 24.105 60.2992 23.8401C61.9278 23.6177 63.4319 23.9496 64.7954 24.8714C66.2362 25.844 67.0812 27.2021 67.4075 28.9025C67.7178 30.521 67.5688 32.0822 66.8393 33.5647C66.164 34.9357 65.1004 35.9026 63.6957 36.5072C62.8507 36.8694 61.9684 37.0157 60.7449 36.9983ZM61.2318 35.3869C63.2235 35.3811 64.8437 34.2215 65.4713 32.3349C65.8583 31.1746 65.8763 29.9964 65.5887 28.8142C65.1178 26.8753 63.5493 25.5392 61.5963 25.398C59.5497 25.2484 57.7818 26.3326 57.053 28.1954C56.6312 29.2731 56.5886 30.387 56.7608 31.5195C57.1098 33.8109 58.9364 35.3901 61.2318 35.3869Z" fill="#0335A0"/>
<path d="M20.9555 10.2993C20.5188 10.3535 20.0815 10.4063 19.6449 10.4624C19.4514 10.4869 19.3159 10.4489 19.2147 10.2407C18.4697 8.70917 17.223 7.88348 15.546 7.67077C14.4599 7.53283 13.3995 7.60244 12.3979 8.07556C11.4472 8.52676 10.7338 9.20356 10.441 10.2503C10.294 10.7588 10.3101 11.3004 10.4871 11.7992C10.6641 12.298 10.9931 12.7288 11.4278 13.031C12.1496 13.5467 12.9951 13.693 13.8381 13.8651C15.697 14.2454 17.5842 14.4968 19.4127 15.0208C21.6463 15.6609 23.6154 16.7611 25.2175 18.4635C26.1062 19.4109 26.799 20.5243 27.2563 21.7398C27.3092 21.8765 27.3466 22.0112 27.1183 22.0369C26.6836 22.0866 26.2488 22.142 25.8174 22.2142C25.6884 22.2355 25.5968 22.1265 25.4762 22.162C25.4741 22.1584 25.471 22.1554 25.4674 22.1533C25.4638 22.1512 25.4597 22.1501 25.4555 22.1501C25.4513 22.1501 25.4472 22.1512 25.4436 22.1533C25.44 22.1554 25.437 22.1584 25.4349 22.162C24.5648 20.1161 23.0923 18.6285 21.1496 17.5823C19.8848 16.901 18.5265 16.5091 17.1224 16.2397C15.5144 15.9309 13.8975 15.6518 12.3089 15.2638C10.4842 14.8184 9.07301 13.8516 8.64409 11.8676C8.61507 11.3139 8.55057 10.7621 8.67312 10.2084C9.0356 8.57639 10.0585 7.48835 11.5233 6.78255C12.9758 6.0819 14.5121 5.98844 16.0775 6.26689C18.3085 6.66782 19.9403 7.83707 20.7788 9.99573C20.8125 10.1096 20.8731 10.2137 20.9555 10.2993Z" fill="#023F99"/>
<path d="M70.3099 30.3681C70.3099 28.3615 70.3137 26.3556 70.3047 24.3497C70.3047 24.108 70.3505 24.0242 70.6156 24.0274C72.141 24.0423 73.6676 24.0042 75.195 24.0448C76.7223 24.0854 77.9406 24.73 78.5889 26.1764C79.3364 27.8433 78.9507 29.8666 77.1938 30.9572C76.8622 31.1628 76.4804 31.2795 76.0973 31.3697C75.9367 31.4078 75.8812 31.4419 75.9838 31.6205C76.9093 33.2396 77.822 34.8665 78.7456 36.4876C78.8481 36.6681 78.8701 36.7455 78.6166 36.7371C78.0903 36.7255 77.564 36.7313 77.0377 36.7371C76.8771 36.7371 76.7932 36.6965 76.7036 36.5328C75.869 35.0064 74.9918 33.5033 74.1791 31.9653C73.9785 31.585 73.7502 31.5225 73.389 31.547C73.0566 31.5689 72.723 31.5689 72.3906 31.547C72.1494 31.5315 72.0849 31.605 72.0868 31.8474C72.0991 33.3602 72.0868 34.8723 72.0997 36.3851C72.0997 36.661 72.0455 36.7648 71.7501 36.7435C71.3635 36.7199 70.9758 36.7199 70.5892 36.7435C70.3595 36.7545 70.3047 36.6791 70.306 36.4554C70.3137 34.4205 70.3099 32.3953 70.3099 30.3681ZM72.0907 27.7692C72.0907 28.424 72.0907 29.0783 72.0907 29.7325C72.0907 29.8821 72.1055 29.9652 72.2932 29.9633C73.1962 29.9523 74.0991 29.98 75.0021 29.9485C76.1811 29.9079 77.0016 29.1569 77.1305 28.0592C77.2595 26.9725 76.6552 26.052 75.6161 25.7388C75.348 25.6604 75.0699 25.622 74.7906 25.6247C73.974 25.6215 73.1568 25.6292 72.3396 25.6176C72.1365 25.6176 72.0855 25.6782 72.0894 25.8754C72.0978 26.5039 72.0907 27.1368 72.0907 27.7692Z" fill="#0336A1"/>
<path d="M25.4343 22.1642C25.4364 22.1606 25.4394 22.1576 25.443 22.1555C25.4466 22.1534 25.4507 22.1523 25.4549 22.1523C25.4591 22.1523 25.4632 22.1534 25.4668 22.1555C25.4704 22.1576 25.4734 22.1606 25.4755 22.1642C25.7058 22.8874 25.927 23.6093 26.018 24.3693C26.2179 25.9891 26.0218 27.5548 25.3775 29.0469C24.0798 32.0481 21.7379 33.8355 18.642 34.7217C17.312 35.1027 15.9472 35.2013 14.5741 35.2374C14.4496 35.2113 14.3236 35.1936 14.1968 35.1845C13.3606 35.1713 12.5274 35.0812 11.7078 34.9151C8.93435 34.3743 6.54147 33.1483 4.71682 30.9491C3.33463 29.2829 2.49744 27.3704 2.24719 25.2124L3.75387 25.01C4.25889 28.9896 7.19355 32.2749 11.2092 33.2972C13.9658 33.9985 16.7193 34.0172 19.3798 32.9047C21.9249 31.8424 23.6464 29.999 24.2726 27.2576C24.6338 25.6778 24.4765 24.1334 23.8418 22.6373C23.8108 22.5645 23.5928 22.4259 23.8592 22.3511C24.3823 22.2802 24.9028 22.1739 25.4343 22.1642Z" fill="#A2A8AC"/>
<path d="M37.1004 36.9988C36.1912 36.9889 35.3077 36.696 34.5728 36.1609C33.724 35.5311 33.1448 34.7106 32.91 33.667C32.8113 33.2281 32.8113 33.2274 33.2454 33.0869C33.5769 32.9793 33.9123 32.8826 34.2393 32.7646C34.4644 32.6821 34.5457 32.7491 34.5753 32.9773C34.7314 34.1865 35.7176 35.1579 36.9366 35.3667C37.7861 35.5124 38.5691 35.3545 39.3134 34.9581C39.9055 34.6422 40.2434 33.7018 40.1273 33.1146C39.9338 32.142 39.2676 31.7385 38.3633 31.4826C37.5248 31.2454 36.6464 31.1861 35.8305 30.8625C34.9191 30.5009 34.1219 30.0129 33.702 29.0777C33.2951 28.1753 33.2273 27.2593 33.6092 26.3202C34.4147 24.3388 36.4522 23.5382 38.3485 23.8296C39.2005 23.9585 39.9674 24.2357 40.6201 24.8093C41.2141 25.3308 41.5727 25.9902 41.792 26.7372C41.8423 26.9093 41.7275 26.9789 41.6082 27.0215C41.2116 27.1665 40.8084 27.2922 40.4105 27.434C40.2679 27.4849 40.2525 27.4063 40.2286 27.3051C40.0351 26.4588 39.4817 25.9077 38.7264 25.5461C37.6654 25.0394 35.8092 25.3179 35.2719 26.7585C34.8488 27.8929 35.5725 29.079 36.8902 29.2852C37.7454 29.418 38.6187 29.5991 39.4456 29.9117C39.8976 30.0748 40.321 30.3082 40.7001 30.6034C42.2113 31.8139 42.3493 34.2046 41.011 35.6091C40.0325 36.6372 38.8206 37.0272 37.1004 36.9988Z" fill="#0335A0"/>
<path d="M46.4553 31.6302C46.4515 33.2287 46.4412 34.8273 46.4502 36.4251C46.4502 36.683 46.3805 36.7519 46.1309 36.7384C45.7442 36.7177 45.3567 36.7177 44.97 36.7384C44.7345 36.7513 44.6907 36.6688 44.6913 36.4503C44.6991 33.5746 44.7008 30.6994 44.6965 27.8246C44.6965 26.6548 44.7023 25.4855 44.6913 24.3163C44.6913 24.0997 44.732 24.0262 44.9674 24.0281C46.4605 24.0404 47.9556 23.9998 49.4481 24.0468C50.7838 24.0881 51.9087 24.6012 52.6304 25.7917C53.8907 27.8691 52.9858 30.8619 50.2936 31.4368C49.7338 31.5567 49.1662 31.5483 48.598 31.5496C47.9001 31.5496 47.2022 31.5612 46.5044 31.567C46.4534 31.5593 46.4476 31.5902 46.4553 31.6302ZM48.1175 25.6196H47.1293C46.4437 25.6196 46.4437 25.6196 46.4437 26.2964C46.4437 27.4315 46.4437 28.5672 46.447 29.7029C46.447 29.7996 46.3721 29.9646 46.5798 29.9608C47.6189 29.9292 48.6644 30.0613 49.6957 29.8853C50.7271 29.7094 51.3836 28.9185 51.4062 27.8956C51.4301 26.7695 50.8206 25.9618 49.7615 25.7098C49.1894 25.5712 48.6083 25.6402 48.1175 25.6196Z" fill="#0234A0"/>
<path d="M85.2629 31.1911C85.2629 29.4507 85.2578 27.7143 85.2687 25.9759C85.2687 25.7251 85.2088 25.6536 84.9514 25.6536C83.7479 25.6678 82.5443 25.6536 81.3395 25.6658C81.1002 25.6658 81.017 25.6085 81.0332 25.3629C81.0544 24.9993 81.0461 24.6332 81.0332 24.2671C81.028 24.095 81.066 24.0248 81.2608 24.0254C84.5064 24.031 87.7528 24.031 91 24.0254C91.1851 24.0254 91.2406 24.0795 91.2342 24.2607C91.2219 24.6145 91.2148 24.9697 91.2342 25.3229C91.2496 25.5846 91.1755 25.6684 90.9001 25.6652C89.7178 25.6491 88.5349 25.6652 87.3527 25.651C87.0721 25.6471 86.9966 25.7109 86.9973 26.0004C87.0089 29.4662 87.0018 32.9327 87.0108 36.3986C87.0108 36.6609 86.9579 36.7537 86.6819 36.7344C86.3063 36.7102 85.9295 36.7102 85.5538 36.7344C85.3113 36.7486 85.2513 36.677 85.2533 36.4353C85.2681 34.6892 85.2629 32.9404 85.2629 31.1911Z" fill="#00339F"/>
<path d="M20.9552 10.2982C20.8732 10.2133 20.8126 10.1102 20.7785 9.9972C19.94 7.83853 18.3082 6.66928 16.0772 6.26836C14.5119 5.98733 12.9755 6.08079 11.523 6.78401C10.0583 7.49304 9.03535 8.57785 8.67287 10.2099C8.55032 10.7636 8.61482 11.3153 8.64384 11.869L7.21005 12.0624C7.08493 12.0721 7.0501 12.0057 7.0372 11.8897C6.86563 10.2956 7.23069 8.84213 8.21687 7.57103C9.50167 5.91513 11.2425 5.03981 13.2942 4.78327C15.1369 4.55251 16.9389 4.73944 18.641 5.53871C20.4954 6.40952 21.6802 7.86754 22.3232 9.789L22.4045 10.0326C22.0265 10.0849 21.6505 10.1487 21.2713 10.1822C21.1461 10.1931 21.0681 10.2834 20.9552 10.2982Z" fill="#A1A6AB"/>
<path d="M2.24562 25.2109C2.49587 27.369 3.33306 29.2814 4.71525 30.9476C6.5399 33.1469 8.93149 34.3728 11.7062 34.9136C12.5258 35.0797 13.359 35.1699 14.1952 35.1831C14.322 35.1921 14.4481 35.2098 14.5725 35.2359C14.6576 35.6929 14.5951 36.1544 14.6093 36.614C14.6138 36.77 14.5009 36.759 14.3867 36.7674C13.823 36.808 13.2716 36.703 12.7149 36.6501C11.8866 36.5636 11.0668 36.4086 10.264 36.1867C8.6277 35.7529 7.11135 35.0748 5.75302 34.0499C5.14674 33.5923 4.54756 33.1282 4.02641 32.579C2.98325 31.4812 2.14841 30.2031 1.56258 28.807C1.16915 27.873 0.917603 26.8971 0.724109 25.9064C0.6996 25.7833 0.720239 25.6486 0.717659 25.5229C0.717659 25.4301 0.758938 25.394 0.851815 25.3843C1.31685 25.3308 1.78123 25.2696 2.24562 25.2109Z" fill="#044199"/>
<path d="M14.6121 1.50765L14.4496 1.37036C14.4496 0.994572 14.4534 0.618787 14.4431 0.243648C14.4379 0.064457 14.4992 0 14.683 0C17.739 0.0174034 20.6027 0.681955 23.08 2.56797C24.7293 3.82295 25.8735 5.46853 26.6391 7.38162C26.8655 7.95757 27.0486 8.54965 27.1866 9.1529C27.2279 9.32757 27.2247 9.41072 27.0241 9.43264C26.6371 9.48034 26.2501 9.55188 25.8631 9.60474C25.6593 9.6331 25.6535 9.45907 25.6232 9.33338C25.2994 7.95621 24.6881 6.66291 23.8295 5.53815C22.6602 4.01761 21.1709 2.90895 19.3624 2.26373C17.8318 1.71391 16.2555 1.39356 14.6121 1.50765Z" fill="#A2A8AC"/>
<path d="M103.51 25.707C103.517 25.7554 103.496 25.7715 103.45 25.7599L103.51 25.707Z" fill="#CFD9ED"/>
<path d="M106.875 25.7599C106.829 25.7708 106.811 25.7554 106.815 25.707L106.875 25.7599Z" fill="#CFD9ED"/>
<path d="M14.3275 30.4888C14.3643 30.4849 14.3823 30.5023 14.3836 30.5384L14.3275 30.4888Z" fill="#FDFDFE"/>
<path d="M46.4554 31.6298C46.4477 31.5898 46.4554 31.5589 46.5057 31.5653L46.4554 31.6298Z" fill="#FDFCFD"/>
</svg>
