<svg width="120" height="36" viewBox="0 0 120 36" fill="none" xmlns="http://www.w3.org/2000/svg">
<g clip-path="url(#clip0)">
<path d="M99.0506 7.97822C94.0861 7.97822 91.8235 10.492 91.8235 10.492V8.50744H80.3106V26.0378C80.3106 26.0378 79.0062 26.6067 78.1145 26.3685C77.2227 26.1304 77.2227 24.8735 77.2227 24.8735V8.50744H65.7498V10.8625C65.7498 10.8625 63.78 8.77205 61.4508 8.32221C57.937 7.66069 53.3984 8.0973 49.6717 12.6618C45.945 17.2263 47.0364 24.1061 47.0364 24.1061C47.0364 24.1061 43.9353 25.9848 41.4863 25.9848C39.0506 25.9848 39.1837 23.8415 39.1837 23.8415V17.1998H46.7702V8.50744H39.0506V1.98484H27.6442V20.5339C27.6442 20.5339 27.032 16.7765 18.2609 14.0775C13.9486 12.7544 10.9805 12.384 11.4996 10.5052C11.9255 8.95727 14.4943 9.08958 14.4943 9.08958C19.725 9.08958 24.9823 12.5824 24.9823 12.5824V2.07745C24.9823 2.07745 24.2503 1.74669 23.0125 1.32332C19.339 0.119347 10.9406 -1.62707 3.81991 3.20204C0.41263 6.0995 -0.319402 10.1612 0.106508 13.4159C0.359392 15.083 0.945017 16.5251 1.73029 17.4644C4.28575 20.4677 10.0488 21.7379 12.7374 22.32C15.4259 22.8889 16.8368 23.5504 16.8368 24.9396C16.8368 26.3288 15.0932 27.255 11.0471 26.6199C7.01423 25.9716 3.15442 23.2858 3.15442 23.2858L0.359392 32.9044C0.359392 32.9044 6.98761 36.8073 16.6904 35.7224C26.3798 34.6375 27.8439 27.3873 27.8439 27.3873C27.8838 26.686 27.378 35.1006 36.5351 35.9209C44.6806 36.6486 50.4171 32.1238 50.4171 32.1238C50.4171 32.1238 52.906 35.8944 58.8421 35.8944C64.7915 35.8944 66.6549 32.2164 66.6549 32.2164C66.6549 32.2164 67.4534 35.8944 73.6158 35.8944C79.2724 35.8944 80.3106 34.9683 80.3106 34.9683V35.3652H91.7968V19.3167C91.7968 19.3167 93.5803 17.9143 95.7631 18.6816C97.5067 19.3035 97.4668 21.5791 97.4668 21.5791V35.3652H108.78V18.0863C108.78 18.0863 108.554 14.8448 107.289 12.556C106.025 10.2671 104.015 7.97822 99.0506 7.97822ZM65.7897 25.0455C65.7897 25.0455 64.6584 26.1039 62.2627 26.1039C59.8669 26.1039 58.4694 24.3443 58.4694 22.0422C58.4694 19.7533 59.8669 17.8349 62.2627 17.8349C64.6584 17.8349 65.7897 18.8933 65.7897 18.8933V25.0455Z" fill="url(#paint0_linear)"/>
<path d="M114.903 26.1562C110.683 26.1562 110.138 29.5168 110.138 31.1574C110.138 32.745 110.91 35.5499 115.009 35.5499C119.108 35.5499 120.013 32.8509 120.013 30.9324C120 29.0008 119.108 26.1562 114.903 26.1562Z" fill="url(#paint1_linear)"/>
<path d="M51.6419 33.4203C51.4556 33.1953 51.3624 33.0498 51.3624 33.0498C51.3624 33.0498 51.3358 33.063 51.2959 33.1027C51.4024 33.2086 51.5089 33.3144 51.6419 33.4203Z" fill="#0088E6"/>
<path d="M92.7559 11.4184C92.7559 11.4184 95.0185 8.90465 99.9831 8.90465C102.898 8.90465 104.814 9.68524 106.145 10.7966C104.801 9.22218 102.725 7.97852 99.0514 7.97852C95.897 7.97852 94.0736 8.81203 92.7559 9.72493C92.1969 10.1086 91.8242 10.4923 91.8242 10.4923L92.7559 11.4184Z" fill="#0088E6"/>
<path d="M39.9825 9.43394H46.7704V8.50781H39.0508L39.9825 9.43394Z" fill="#0088E6"/>
<path d="M65.7897 25.0452C65.7897 25.0452 64.6584 26.1036 62.2627 26.1036C61.4109 26.1036 60.3594 25.7067 59.4277 24.8864C60.0666 25.8258 61.8102 27.0297 63.1944 27.0297C65.5901 27.0297 66.7214 25.9713 66.7214 25.9713V19.8192C66.7214 19.8192 66.3354 19.2899 65.7897 18.9062V25.0452Z" fill="#0088E6"/>
<path d="M79.1797 27.1627C80.0715 27.4009 81.2427 26.9643 81.2427 26.9643V9.43394H91.8239V8.50781H80.311V26.0381C80.311 26.0381 78.7671 26.435 77.8887 26.2763C78.2347 26.6335 78.7006 27.0436 79.1797 27.1627Z" fill="#0088E6"/>
<path d="M47.7023 16.3665C48.1282 15.0964 48.7538 13.813 49.6721 12.6884C53.3988 8.12392 57.9374 7.68731 61.4512 8.34884C63.7937 8.78544 65.7502 10.8891 65.7502 10.8891V8.5076H77.2231V9.43373H66.6819V11.7887C66.6819 11.7887 64.712 9.69834 62.3829 9.24851C58.8691 8.58698 54.3305 9.02359 50.6038 13.5881C46.8771 18.1526 47.9685 25.0324 47.9685 25.0324C47.9685 25.0324 44.8673 26.9111 42.4184 26.9111C41.1406 26.9111 40.5683 26.3158 40.3154 25.7601C40.6216 25.8924 41.0075 25.985 41.4867 25.985C43.9224 25.985 47.0368 24.1063 47.0368 24.1063C47.0368 24.1063 46.5976 20.9707 47.2365 18.1261C47.4627 17.0015 47.7023 16.3665 47.7023 16.3665Z" fill="#0088E6"/>
<path d="M97.4938 35.3649H98.4255V22.5049C98.4255 22.5049 98.4255 20.097 96.4424 19.0518C97.5205 19.8853 97.4938 21.5788 97.4938 21.5788V35.3649Z" fill="#0088E6"/>
<path d="M2.62204 18.3377C1.85008 17.3983 1.27776 15.9694 1.03819 14.3421C0.612276 11.0874 1.34431 7.0124 4.73827 4.11494C11.8723 -0.70094 20.2707 1.04548 23.9441 2.24945C24.3434 2.38175 24.6895 2.51405 24.9823 2.6199V2.07745C24.9823 2.07745 24.2503 1.74669 23.0125 1.32332C19.339 0.119347 10.9406 -1.62707 3.81991 3.20204C0.41263 6.0995 -0.319402 10.1612 0.106508 13.4159C0.359392 15.083 0.945017 16.5251 1.73029 17.4644C1.99648 17.7687 2.3026 18.0598 2.62204 18.3377Z" fill="#0088E6"/>
<path d="M4.08608 24.2123C4.08608 24.2123 7.94589 26.898 11.9787 27.5463C16.0115 28.1814 17.7684 27.2553 17.7684 25.8661C17.7684 25.1649 17.1163 24.4107 16.5572 23.9609C16.6637 24.1726 16.8368 24.6753 16.8368 24.9399C16.8368 26.3291 15.0799 27.2553 11.047 26.6202C7.01421 25.9719 3.15441 23.2861 3.15441 23.2861L0.359375 32.9047C0.359375 32.9047 0.718736 33.1163 1.41084 33.4339L4.08608 24.2123Z" fill="#0088E6"/>
<path d="M28.5762 22.3867V2.91148H39.0509V1.98535H27.6445V20.4286C28.2701 21.4076 28.5762 22.3867 28.5762 22.3867Z" fill="#0088E6"/>
<path d="M111.057 32.0835C111.057 30.4429 111.616 27.0824 115.822 27.0824C117.299 27.0824 118.364 27.4396 119.136 27.9688C118.404 26.9368 117.113 26.1562 114.89 26.1562C110.671 26.1562 110.125 29.5168 110.125 31.1574C110.125 32.2026 110.458 33.7638 111.842 34.7164C111.23 33.8431 111.057 32.8244 111.057 32.0835Z" fill="#0088E6"/>
</g>
<defs>
<linearGradient id="paint0_linear" x1="54.3885" y1="35.3675" x2="54.3885" y2="9.15486" gradientUnits="userSpaceOnUse">
<stop stop-color="#0072FF"/>
<stop offset="1" stop-color="#0099FF"/>
</linearGradient>
<linearGradient id="paint1_linear" x1="115.076" y1="35.5499" x2="115.076" y2="-0.0931206" gradientUnits="userSpaceOnUse">
<stop stop-color="#0072FF"/>
<stop offset="1" stop-color="#0099FF"/>
</linearGradient>
<clipPath id="clip0">
<rect width="120" height="36" fill="white"/>
</clipPath>
</defs>
</svg>
