<svg width="120" height="34" viewBox="0 0 120 34" fill="none" xmlns="http://www.w3.org/2000/svg">
<path d="M105.45 15.6056V7.29492H111.28V15.6056H120V21.146H111.28V29.4345H105.45V21.146H96.7069V15.6056H105.45Z" fill="#241C32"/>
<path d="M79.4289 9.56117H83.095C85.3021 9.56117 86.7143 10.6936 86.7143 12.6706C86.7143 14.8241 85.3021 16.2256 83.095 16.2256H79.4289V9.56117ZM85.7417 20.5603C89.5387 20.0777 92.6717 16.8383 92.6717 12.7171C92.6717 7.37061 89.0056 4.4375 83.095 4.4375H73.5556V31.346H79.4289V20.5603L86.7143 31.3368H93.5134L85.7417 20.5603Z" fill="#241C32"/>
<path d="M38.2789 9.73753V4.4375H20.3973V9.73753H26.3547V31.3368H32.3215V9.73753H38.2789Z" fill="#241C32"/>
<path d="M9.36164 14.3411C7.59406 13.5521 6.93004 12.6796 6.93004 11.5379C6.93004 10.2199 8.03361 9.1246 9.8012 9.17101C11.3443 9.20814 12.5414 10.0435 13.3831 12.0206L18.4614 9.78362C17.0492 6.19148 14.1781 4.09375 9.54869 4.09375C4.64809 4.09375 1.02875 7.29604 1.02875 11.5843C1.02875 14.5175 2.48771 16.838 5.92935 18.5551L9.72638 20.4394C11.84 21.4975 12.8594 22.2772 12.8594 23.8087C12.8594 25.4702 11.494 26.6583 9.72638 26.6583C7.82786 26.6583 6.10704 25.6002 5.3121 23.2425L0 24.7741C1.2345 29.2016 4.9006 31.7913 9.67027 31.7913C14.8327 31.7913 18.8074 28.5054 18.8074 23.7716C18.8074 20.1331 16.8248 17.7197 13.0184 16.0211L9.36164 14.3411Z" fill="#241C32"/>
<path d="M71.9659 12.9762H58.2086L53.9534 0L49.6981 12.9762H35.9408L46.9765 21.0145C46.9765 21.0145 52.3728 17.4873 58.9101 16.16C49.2679 23.2236 44.0306 30.2315 44.0306 30.2315L42.8241 34L53.9534 25.9803L65.0826 34L60.8366 21.0145L71.9659 12.9762Z" fill="url(#paint0_linear)"/>
<defs>
<linearGradient id="paint0_linear" x1="41.365" y1="32.564" x2="66.4096" y2="7.35289" gradientUnits="userSpaceOnUse">
<stop offset="0.28" stop-color="#FA1660"/>
<stop offset="0.78" stop-color="#FF7D17"/>
</linearGradient>
</defs>
</svg>
