<svg width="63" height="62" viewBox="0 0 63 62" fill="none" xmlns="http://www.w3.org/2000/svg">
<path d="M45.5534 61.6286H13.3171C10.0484 61.6286 6.91344 60.3301 4.60206 58.0187C2.29068 55.7074 0.992157 52.5724 0.992157 49.3037L0.992157 18.0103C2.67 19.6636 4.34376 21.3211 6.04605 22.9487C7.00521 23.8657 7.96708 24.7814 8.90721 25.7174C9.28761 26.0978 9.68432 26.2989 10.2223 26.2609C10.5391 26.2225 10.86 26.2339 11.1733 26.2948C11.4056 26.3492 11.6801 26.4185 11.5918 26.6671L11.5795 26.697C11.5508 26.7588 11.5137 26.8163 11.4695 26.8682C10.7902 27.1127 10.081 26.9701 9.38679 26.9959C8.69256 27.0217 8.02821 26.9864 7.34893 27.0081C6.64383 27.0298 6.49167 27.1942 6.46042 27.9102C6.45091 28.0909 6.46042 28.2716 6.46042 28.4536V45.5146C6.46042 45.7632 6.46042 46.0118 6.474 46.2591C6.49574 46.6911 6.71855 46.9384 7.15329 46.9465C8.24015 46.9819 9.32701 46.9764 10.4139 46.9465C10.8812 46.9343 11.1067 46.6748 11.123 46.2156C11.1312 45.967 11.1339 45.7184 11.1339 45.4698V36.4013C11.1339 36.1988 11.1258 35.9937 11.1434 35.7926C11.172 35.4652 11.0891 35.0359 11.513 34.9381C11.9056 34.8484 12.0999 35.2098 12.2738 35.5019C13.688 37.84 15.1268 40.1632 16.5356 42.5026C17.2815 43.7403 18.0654 44.9549 18.7868 46.2075C19.106 46.7631 19.5462 46.9778 20.1752 46.9751C22.7973 46.9642 25.4207 46.9601 28.0427 46.9751C28.5876 46.9816 29.1139 46.7772 29.5113 46.4045C29.5773 46.3837 29.646 46.3727 29.7151 46.3719C29.7454 46.3685 29.7759 46.3685 29.8062 46.3719C30.1159 46.4099 30.3224 46.6707 30.5398 46.8868C32.9621 49.3186 35.4999 51.6404 37.8965 54.1157C38.0853 54.3086 38.2864 54.488 38.4779 54.6782C38.5255 54.7515 38.5771 54.8222 38.6315 54.8901C38.6518 54.9159 38.6736 54.9431 38.6967 54.9689C39.0132 55.3371 39.414 55.6251 39.7577 55.9647C40.2894 56.491 40.8328 57.0036 41.388 57.5027C41.4641 57.5733 41.5402 57.6385 41.6162 57.7078C41.6923 57.7771 41.7874 57.8627 41.873 57.9388C43.0889 59.1791 44.3307 60.3978 45.5534 61.6286Z" fill="#C82D55"/>
<path d="M62.6184 12.3278V49.3041C62.6192 49.9709 62.5651 50.6366 62.4568 51.2944C62.431 51.4602 62.4011 51.6246 62.3685 51.7876C61.0099 52.9981 59.6608 54.2127 58.2995 55.4164C55.9832 57.4624 53.6804 59.5274 51.3708 61.5816C51.1888 61.5979 51.0054 61.6101 50.8274 61.6169C50.6494 61.6237 50.4728 61.6291 50.2935 61.6291H48.8425C48.8425 61.2732 48.8262 60.9159 48.8262 60.5613C48.8357 56.5548 48.8262 52.5457 48.8344 48.5406C48.8344 48.1235 48.7895 47.6915 48.9974 47.303C49.011 47.2767 49.0259 47.2509 49.0422 47.2255C49.0533 47.2122 49.0651 47.1995 49.0775 47.1875C49.2705 46.9891 49.534 46.9973 49.7881 46.9823C50.2174 46.9579 50.6481 46.9823 51.0774 46.9565C51.7186 46.9171 51.9007 46.7296 51.9414 46.0762C51.9591 45.7841 51.9509 45.4893 51.9509 45.1958V33.1371C51.9509 32.7988 51.9509 32.4578 51.9645 32.1209C52.0093 31.3506 52.1832 31.1617 52.9481 31.1305C54.0785 31.0843 55.2088 31.1305 56.3446 31.1074C57.2956 31.0897 57.4953 30.8927 57.5143 29.9458C57.5265 29.3358 57.5279 28.7231 57.5143 28.1172C57.4939 27.211 57.3024 27.0303 56.3717 27.0045C56.0552 26.9963 55.7386 27.0045 55.4207 27.0045C49.7926 27.0045 44.1636 27.0022 38.5336 26.9977C38.0948 26.9977 37.6207 27.1118 37.2335 26.7735C37.2271 26.739 37.223 26.704 37.2213 26.6689V26.6621C37.2077 26.2899 37.5351 26.2858 37.8095 26.2668C38.6247 26.2111 39.4317 26.2464 40.2427 26.241C40.8514 26.241 41.4654 26.222 42.0673 26.241C42.6691 26.26 43.1976 26.116 43.6269 25.7247C43.6704 25.6853 43.7139 25.6418 43.7546 25.597C43.775 25.5766 43.7927 25.5563 43.8117 25.5345C44.1799 25.3905 44.5684 25.434 44.9488 25.4163C45.4447 25.3932 45.6906 25.1446 45.7042 24.6542C45.7219 24.0455 45.7137 23.4314 45.7137 22.8282C45.7137 20.5526 45.7137 18.2757 45.7219 16C45.7219 15.6455 45.6444 15.2569 45.9175 14.9526C45.929 14.9392 45.9413 14.9265 45.9542 14.9145C45.9868 14.9069 46.02 14.9015 46.0534 14.8982C46.4052 14.8643 46.3903 15.193 46.4609 15.4308C46.439 15.562 46.4258 15.6945 46.4215 15.8275C46.4161 15.9117 46.4161 15.996 46.4215 16.0802C46.4215 16.534 46.484 16.9877 46.4772 17.4388C46.4541 19.0854 46.4664 20.7333 46.4772 22.3813C46.4772 22.5484 46.4039 22.7766 46.624 22.854C46.7897 22.9125 46.9065 22.7399 47.0315 22.6462C48.1483 21.774 49.1754 20.7931 50.2921 19.929L50.4606 19.7932L50.4945 19.766C52.6683 18.0311 54.7061 16.1386 56.8173 14.3385C58.665 12.7694 60.4855 11.1744 62.3209 9.5835C62.3454 9.6949 62.3698 9.80766 62.3916 9.92178C62.5457 10.7144 62.6217 11.5203 62.6184 12.3278Z" fill="#CD2646"/>
<path d="M49.1523 61.3315C49.1523 61.4306 49.1523 61.5298 49.1523 61.629H45.0833C44.1912 60.7233 43.3 59.8176 42.4097 58.9118C42.1597 58.6578 41.926 58.3861 41.6842 58.1225C41.5389 57.9406 41.4376 57.7277 41.388 57.5003C41.3668 57.3998 41.3568 57.2973 41.3581 57.1946C41.3812 54.2261 41.3581 51.259 41.3731 48.2919C41.3582 48.0224 41.3838 47.7522 41.4492 47.4903C41.4687 47.4243 41.497 47.3612 41.5334 47.3028C41.5568 47.2628 41.5851 47.2258 41.6176 47.1928C41.7284 47.081 41.8775 47.0154 42.0347 47.0094C42.6515 46.9659 42.5496 46.6887 42.2915 46.3138C41.4505 45.0911 40.6136 43.8683 39.7917 42.6293C39.4317 42.0859 39.0581 41.5506 38.7048 40.999C38.4902 40.6608 38.2973 40.6146 38.0582 40.9583C37.3902 41.9301 36.4426 42.6759 35.341 43.0967C35.0435 43.2108 35.0448 43.4078 35.1929 43.6306C35.8817 44.659 36.5923 45.6685 37.2974 46.6887C37.4848 46.9605 37.7946 46.9686 38.0894 46.9849C38.3435 46.9985 38.5934 47.0202 38.7605 47.1914C38.7932 47.2235 38.8211 47.2601 38.8434 47.3001C38.8708 47.3454 38.8926 47.3937 38.9086 47.4441C39.0241 47.724 38.9997 48.0202 39.0078 48.3095C39.0594 50.3284 38.9263 52.3486 39.0839 54.3674C39.1138 54.7628 38.9711 54.9625 38.6926 54.9638C38.5516 54.9595 38.413 54.9267 38.285 54.8674C37.0324 53.6446 35.7839 52.407 34.5272 51.1843C33.1102 49.8053 31.6837 48.4345 30.2654 47.0556C30.0738 46.8694 29.9094 46.648 29.7315 46.451C29.716 46.4248 29.7024 46.3976 29.6907 46.3695C29.5548 46.0366 29.7858 45.7826 29.9475 45.534C30.5004 44.6781 31.0764 43.8385 31.6484 42.9975L31.7041 42.916C31.7136 42.8562 31.7218 42.7951 31.7272 42.7353C31.7829 42.1919 31.681 41.6403 31.7517 41.0955C31.8101 41.0262 31.8699 40.9596 31.931 40.8931C31.9921 40.8265 32.0668 40.7436 32.1402 40.6703C33.0776 39.7193 34.2107 38.9883 35.2445 38.1474C36.0475 37.4939 36.0665 37.5157 35.1495 37.0402C34.549 36.729 33.9702 36.3772 33.367 36.0701C33.0844 35.9261 32.8168 35.7522 32.7407 35.4167C32.7407 35.3908 32.7312 35.365 32.7271 35.3379C32.7624 34.8461 33.1917 34.6409 33.4961 34.3869C34.1754 33.8095 34.7541 33.0976 35.5856 32.7212C35.6168 32.7063 35.6494 32.6914 35.682 32.6791C35.7472 32.652 35.8179 32.6261 35.8817 32.6044C36.4252 32.6873 36.8191 33.0324 37.205 33.3761C37.5514 33.6845 37.8163 33.6736 38.1044 33.2986C38.5323 32.743 38.9018 32.1479 39.2972 31.5719C39.5798 31.1643 39.9466 30.9497 40.4465 31.0122C42.1339 31.2227 43.8307 31.0719 45.5222 31.1236C45.6798 31.1236 45.8387 31.1236 45.9963 31.1399C46.8427 31.2187 47.1198 31.489 47.1321 32.3327C47.162 34.4086 47.1416 36.4845 47.1443 38.5604C47.1443 40.9528 47.1443 43.3453 47.1443 45.7364C47.1443 46.8626 47.2082 46.917 48.314 46.9849C48.5858 46.9999 48.8833 46.9523 49.0667 47.1914C49.0944 47.2279 49.1177 47.2676 49.136 47.3096C49.1432 51.9831 49.1487 56.6571 49.1523 61.3315Z" fill="#D0264B"/>
<path d="M62.4567 51.2939C62.4309 51.4597 62.401 51.6241 62.3684 51.7871C61.8327 54.3845 60.4741 56.74 58.494 58.5042C56.5139 60.2684 54.0179 61.3474 51.3762 61.5811C51.1941 61.5974 51.0107 61.6096 50.8328 61.6164C51.4659 61.073 52.1153 60.5377 52.7212 59.9616C53.732 59.0011 54.812 58.1126 55.8554 57.1874C57.8444 55.4213 59.8578 53.6905 61.8073 51.889C62.0179 51.6879 62.2366 51.4923 62.4567 51.2939Z" fill="#C3203B"/>
<path d="M12.9653 26.4493C12.9653 26.831 12.9924 27.2169 12.8756 27.5905C12.8304 27.6785 12.7611 27.752 12.6759 27.8024C12.6687 27.8067 12.6609 27.8099 12.6528 27.8119C12.5737 27.8366 12.4887 27.8354 12.4103 27.8085C12.3319 27.7817 12.2641 27.7305 12.2167 27.6625C11.9613 27.3758 11.6529 27.1055 11.5809 26.6924C11.5802 26.6802 11.5802 26.668 11.5809 26.6558C11.013 26.4262 10.4207 26.5729 9.83919 26.5525C9.67359 26.5548 9.50927 26.5231 9.35643 26.4593C9.20359 26.3955 9.06549 26.301 8.95069 26.1816C6.60171 23.872 4.22285 21.6046 1.87251 19.3032C1.57363 19.0251 1.28017 18.7416 0.992157 18.4527V12.3269C0.991725 9.1734 2.20019 6.13974 4.36882 3.85031C6.53744 1.56088 9.50121 0.189897 12.6501 0.0195514C12.7547 0.0195514 12.8607 0.0100414 12.9666 0.00732422C12.9684 8.82176 12.968 17.6357 12.9653 26.4493Z" fill="#D11E4D"/>
<path d="M11.5659 26.6566C12.146 26.8277 12.267 27.4296 12.6392 27.7964C13.2044 27.9064 13.3266 28.42 13.5753 28.818C13.6844 29.1663 13.8701 29.4856 14.1187 29.7527C14.1578 29.8024 14.1868 29.8591 14.2043 29.9198C14.2953 30.2119 14.5263 30.3967 14.7273 30.5991C16.0615 32.7457 17.4336 34.8691 18.8031 37.0918C18.8483 36.8354 18.8615 36.5743 18.8425 36.3147C18.8493 33.4236 18.8289 30.5326 18.8547 27.6415C18.8615 26.8264 19.0055 26.647 19.6807 26.4759H28.0617C28.354 26.4855 28.6466 26.4718 28.9367 26.4351C29.4461 26.3753 29.7844 26.6239 30.0602 27.0274C31.0384 28.4621 32.003 29.9054 32.954 31.3572C33.4023 32.0365 33.2406 32.368 32.435 32.5215C31.321 32.7335 30.3414 33.1913 29.5344 34.0159C28.8388 34.7238 28.5196 34.6789 27.9449 33.838C26.9681 32.4047 26.0225 30.9483 25.0457 29.5136C24.9764 29.4117 24.9547 29.2419 24.774 29.2677C24.63 29.4742 24.6463 29.7052 24.6476 29.928C24.6599 33.8108 24.5974 37.6936 24.6843 41.5737C24.702 42.3793 24.7387 43.1904 24.7699 44.0966C25.278 43.7175 25.4614 43.2053 25.7685 42.7937C26.3499 41.8644 26.8553 40.8917 27.6637 40.1119C28.0468 39.741 28.3647 39.7885 28.6038 40.1784C29.2832 41.3079 30.3253 42.1737 31.5601 42.6347C31.6583 42.6643 31.7448 42.7241 31.8072 42.8055C31.8696 42.8869 31.9048 42.986 31.9079 43.0885C31.1878 44.2107 30.4673 45.3333 29.7464 46.4564C29.3728 47.1615 28.7954 47.3164 28.0115 47.3028C25.3229 47.2539 22.6329 47.2593 19.9443 47.3028C19.2813 47.3123 18.9158 47.0678 18.5925 46.5311C16.3282 42.7878 14.0539 39.0513 11.7697 35.3215C11.7004 35.2101 11.6244 35.1014 11.5184 34.9398C11.3662 35.2115 11.4274 35.4533 11.4274 35.6816C11.4219 39.2247 11.4219 42.7683 11.4274 46.3124C11.4274 47.2308 11.3757 47.2811 10.4764 47.2824C9.30119 47.2824 8.12603 47.2729 6.95086 47.2824C6.40743 47.2824 6.16425 47.061 6.16425 46.5175C6.16425 40.1513 6.16425 33.7859 6.16425 27.4214C6.16425 26.878 6.43596 26.6566 6.96445 26.6579C8.49284 26.6688 10.0294 26.6606 11.5659 26.6566Z" fill="#FEFEFE"/>
<path d="M38.2932 54.8728C38.5975 54.9394 38.8502 54.9285 38.8067 54.5073C38.569 52.1978 38.7632 49.8882 38.7008 47.5786C38.7008 47.4889 38.7008 47.3993 38.7008 47.3069C38.7309 47.2346 38.7796 47.1714 38.8418 47.1237C38.904 47.076 38.9776 47.0455 39.0553 47.0352C39.811 46.9414 40.5753 46.9414 41.331 47.0352C41.4087 47.0454 41.4824 47.0759 41.5446 47.1236C41.6069 47.1713 41.6555 47.2345 41.6855 47.3069C41.6855 50.4438 41.6855 53.5808 41.6937 56.7177C41.6937 57.1878 41.5252 57.6579 41.6855 58.1266C40.5117 57.0859 39.304 56.0751 38.2932 54.8728Z" fill="#D0274B"/>
<path d="M30.7816 0.0025662H31.2082C31.2082 0.0025662 35 3.7794 36.883 5.68277C39.4982 8.32519 42.0537 11.0274 44.7138 13.6277C44.8849 13.7751 45.0357 13.9446 45.1621 14.1317C45.3211 14.4035 45.3143 14.6032 45.1417 14.7173C45.0412 14.7765 44.9281 14.811 44.8116 14.8178C44.4978 14.8504 44.184 14.8627 43.919 15.0284C43.8567 15.0673 43.7989 15.1128 43.7465 15.1643C43.5617 15.5039 43.6297 15.8734 43.6256 16.2294C43.612 17.4929 43.6378 18.7563 43.6106 20.0198C43.6038 20.3336 43.6174 20.6991 43.2166 20.7888C42.8648 20.8689 42.7045 20.5741 42.5374 20.3309C41.5796 18.9357 40.6978 17.4901 39.8311 16.0378C39.4086 15.3286 38.9208 15.023 38.0935 15.0515C36.705 15.1018 36.7023 15.061 36.7023 16.44C36.7023 19.1028 36.7023 21.7656 36.7023 24.427C36.7023 24.7735 36.6017 25.2286 37.0609 25.3495C37.5568 25.4786 38.0989 25.5424 38.5744 25.268C38.8461 25.1145 38.7836 24.7884 38.7863 24.5221C38.7972 23.0277 38.7782 21.5428 38.7986 20.0538C38.7986 19.7087 38.694 19.2386 39.1219 19.1028C39.5879 18.9669 39.7455 19.4424 39.937 19.7603C40.9071 21.3621 41.9178 22.9394 42.8485 24.5629C43.0862 24.9704 43.4558 25.2422 43.7438 25.5886C43.7805 25.6321 43.8144 25.6783 43.8484 25.7245C43.4775 26.3345 42.9653 26.5831 42.2181 26.5532C40.8079 26.4975 39.3923 26.5355 37.9793 26.5382C37.7171 26.5382 37.4454 26.4948 37.205 26.651L37.1941 26.6578C37.2715 26.992 37.0351 27.208 36.8789 27.4431C36.0176 28.7296 35.1046 29.9822 34.2718 31.2865C33.9186 31.838 33.9254 31.8054 34.5326 31.9834C34.9674 32.1111 35.5339 32.0989 35.6779 32.6627C35.6892 32.7041 35.6974 32.7464 35.7024 32.789C34.8573 33.5417 34.0123 34.2952 33.1673 35.0497C33.0531 35.1516 32.9513 35.2684 32.8439 35.3785C32.8075 35.3865 32.7716 35.3969 32.7366 35.4097C32.3019 35.5592 32.1538 35.9532 32.0397 36.3607L32.0247 36.3743L31.9187 36.4762C30.9596 37.4014 29.9474 38.2695 28.9027 39.0942C28.5726 39.3537 28.256 39.624 27.9422 39.8998C27.7493 40.0701 27.5577 40.2413 27.3675 40.4134C26.8553 40.8726 26.3445 41.3331 25.8079 41.7638C25.6428 41.9136 25.4437 42.0209 25.2278 42.0763C25.1982 42.0828 25.1683 42.0873 25.1381 42.0898C25.031 42.0964 24.9237 42.0806 24.8229 42.0437C24.7759 42.0151 24.733 41.9804 24.6952 41.9404C24.524 41.7638 24.5091 41.5247 24.5091 41.272C24.5091 37.1401 24.5118 33.0082 24.5172 28.8763C24.5172 28.7269 24.4031 28.4973 24.6843 28.4416L28.7125 34.4261C29.8265 32.9738 31.2802 32.2524 33.1143 32.107C31.9337 30.3409 30.8047 28.6617 29.6689 26.9866C29.563 26.8303 29.347 26.7488 29.1826 26.6333C25.975 26.6035 22.7687 26.5491 19.5611 26.6619C19.2446 26.8643 19.1712 27.1537 19.1726 27.5218C19.1862 30.7824 19.1726 34.0566 19.1726 37.324V38.1391C18.5612 37.468 18.2216 36.7805 17.814 36.1339C16.6728 34.293 15.4365 32.5119 14.385 30.6167C14.3973 30.4746 14.3631 30.3324 14.2877 30.2114C14.2122 30.0903 14.0995 29.9971 13.9665 29.9455C13.8212 29.5842 13.7519 29.1752 13.347 28.9796C13.0753 28.6019 12.7764 28.2514 12.6243 27.8058C12.6243 27.8058 12.6243 27.7949 12.6243 27.7895C12.6243 18.5322 12.6279 9.27348 12.6351 0.0134348C12.7397 0.0134348 12.8457 0.00392477 12.9517 0.00120762C13.0577 -0.00150953 13.1854 0.00120762 13.3022 0.00120762H30.7816" fill="#C91E44"/>
<path d="M30.7816 0.00292969H50.2935C53.087 0.00317924 55.7977 0.952028 57.9816 2.69408C60.1654 4.43613 61.693 6.86812 62.3142 9.59175C62.3386 9.70315 62.3631 9.81591 62.3848 9.93003C60.6395 11.4353 58.8942 12.9415 57.1489 14.4487C55.2921 16.059 53.4404 17.6744 51.5936 19.2947C51.3043 19.5487 51.0244 19.8096 50.6426 19.9115C50.5314 19.9617 50.4054 19.9685 50.2894 19.9305C50.1325 19.8632 49.9931 19.761 49.8818 19.6316C48.8113 18.5801 47.7557 17.5122 46.6878 16.4566C46.581 16.3476 46.4932 16.2213 46.4283 16.083C46.3441 15.92 46.2789 15.7542 46.192 15.5939C46.1607 15.363 46.2015 15.1184 46.0642 14.9065C46.0167 14.9242 45.9705 14.9405 45.9284 14.9554C45.2736 15.1605 44.6011 15.0777 43.934 15.0328H43.8756C43.7844 15.0318 43.6958 15.002 43.6226 14.9476C43.5494 14.8931 43.4953 14.8169 43.468 14.7299C43.9761 14.5003 44.5399 14.7475 45.048 14.5723C45.1092 14.3794 44.9652 14.3006 44.8782 14.2177C42.8797 12.1948 40.8759 10.1787 38.9005 8.13536C36.2227 5.38017 33.492 2.70106 30.7816 0.00292969Z" fill="#B22648"/>
<path d="M35.7146 32.8017C35.0353 32.295 34.2202 32.2501 33.3466 32.1129C34.5408 30.3468 35.6874 28.6554 36.8436 26.9653C36.9501 26.849 37.0722 26.748 37.2063 26.665C43.7574 26.665 50.308 26.665 56.8581 26.665C57.6243 26.665 57.8091 26.8607 57.8091 27.631C57.8145 28.5557 57.8145 29.4809 57.8091 30.4066C57.8091 31.2217 57.5985 31.4241 56.7521 31.4268C55.5552 31.4268 54.357 31.4662 53.1614 31.4133C52.4821 31.3834 52.2553 31.5342 52.2621 32.2746C52.3014 36.8937 52.2824 41.5251 52.2811 46.1497C52.2811 47.1972 52.1968 47.28 51.1752 47.2855C50.4959 47.2855 49.8166 47.2991 49.1441 47.3059C48.6007 47.2991 48.0573 47.276 47.5138 47.2868C47.09 47.295 46.8875 47.098 46.8699 46.6904C46.8617 46.4866 46.8617 46.2829 46.8617 46.0804C46.8617 41.498 46.8373 36.9155 46.8848 32.333C46.8848 31.6048 46.5574 31.4445 46.018 31.4309C44.0522 31.382 42.0863 31.3725 40.1205 31.3304C39.7998 31.3236 39.6952 31.5328 39.5594 31.738C38.967 32.6142 38.3774 33.4905 37.7538 34.4184C37.1302 33.7595 36.5787 33.0762 35.7146 32.8017Z" fill="#FEFEFE"/>
<path d="M43.4531 14.7217C44.0957 14.7217 44.7369 14.7217 45.3795 14.7217C45.62 14.7217 45.8727 14.6864 46.0588 14.9051C46.0588 18.2635 46.0452 21.6219 46.0683 24.9789C46.0683 25.5387 45.9094 25.7506 45.3428 25.7099C44.851 25.6759 44.3538 25.7234 43.8579 25.7357C43.3145 25.7669 43.0238 25.464 42.7588 25.0197C41.6095 23.0851 40.4262 21.1695 39.2524 19.243C39.0065 19.3313 39.1165 19.5148 39.1165 19.6425C39.1083 21.4236 39.0907 23.206 39.1246 24.9871C39.1355 25.5658 38.9331 25.7479 38.3829 25.7071C37.8851 25.6798 37.3862 25.6798 36.8884 25.7071C36.489 25.7207 36.3205 25.5713 36.3219 25.1528C36.3319 21.8597 36.3319 18.5665 36.3219 15.2733C36.3219 14.8657 36.4877 14.6891 36.8898 14.7299C36.9349 14.7361 36.9806 14.7361 37.0257 14.7299C38.7307 14.3984 39.8284 15.0328 40.5946 16.6319C41.2739 18.0434 42.2385 19.3191 43.0795 20.6532C43.089 20.6695 43.1189 20.6736 43.146 20.6886C43.3702 20.6138 43.2493 20.4169 43.2493 20.2973C43.2588 18.6969 43.2493 17.0951 43.2574 15.4934C43.2656 15.2189 43.1963 14.9241 43.4531 14.7217Z" fill="#FEFEFE"/>
<path d="M46.1837 15.5879C47.4037 16.7852 48.6242 17.9826 49.8451 19.18C50.1032 19.4313 50.3736 19.6677 50.6385 19.9109C49.6223 20.9977 48.405 21.8604 47.3045 22.8522C47.0872 23.0465 46.863 23.2353 46.6402 23.4241C46.541 23.5097 46.45 23.6442 46.2978 23.5817C46.1457 23.5192 46.1715 23.3562 46.1701 23.2272C46.1701 22.2128 46.1701 21.1983 46.1701 20.1839C46.171 18.6524 46.1756 17.1204 46.1837 15.5879Z" fill="#C72040"/>
<path d="M41.6842 47.3054H38.6954C37.3626 47.5771 36.845 46.6438 36.2757 45.724C35.8016 44.9605 35.2364 44.254 34.7392 43.5041C34.6454 43.3682 34.314 43.1047 34.7935 42.9607C36.3994 42.4892 37.5338 41.4513 38.334 39.8984L41.4057 44.4877C41.8799 45.1942 42.3717 45.8884 42.82 46.6112C43.1787 47.1872 43.1134 47.2701 42.4246 47.2809C42.1801 47.2877 41.9328 47.2986 41.6842 47.3054Z" fill="#FEFEFE"/>
<path d="M25.1327 41.9972C26.8146 40.5463 28.4897 39.0872 30.1838 37.6498C30.7422 37.1743 31.2218 36.5874 31.931 36.3062C32.1864 36.4515 32.2027 36.7042 32.2122 36.9542C32.2462 38.056 32.2421 39.1592 32.2122 40.2623C32.22 40.3976 32.1999 40.533 32.1532 40.6601C32.1064 40.7872 32.034 40.9034 31.9405 41.0014C32.0763 41.6997 32.1837 42.398 31.9024 43.0882C30.2545 42.5447 28.938 41.5937 28.1582 39.9227C27.3431 40.8519 26.7725 41.8763 26.0769 42.8096C25.4465 42.9007 25.2033 42.5502 25.1327 41.9972Z" fill="#D0274E"/>
<path d="M31.9391 41.0018L31.931 36.3066C31.9432 36.1952 31.9622 36.0838 31.9663 35.9724C31.9948 35.0214 31.9935 35.0214 32.8562 35.3909L36.5691 37.4913C35.2703 38.5102 34.0272 39.5074 32.7543 40.4666C32.5002 40.6581 32.3426 41.0317 31.9391 41.0018Z" fill="#FEDC1A"/>
<path d="M25.1327 41.9974L26.0755 42.8126C25.6938 43.644 25.0933 44.326 24.6259 45.1004C24.4235 44.9713 24.4833 44.8477 24.4833 44.7472C24.4833 39.4243 24.4833 34.1018 24.4833 28.7799C24.4833 28.682 24.2646 28.3234 24.6925 28.4565C24.5634 28.6861 24.5974 28.9388 24.5974 29.1847C24.5974 33.1056 24.5974 37.0264 24.5879 40.9472C24.5893 41.416 24.6708 41.7896 25.1327 41.9974Z" fill="#CC2C52"/>
<path d="M19.572 26.6744C19.7677 26.5277 19.9973 26.5467 20.2214 26.5467H28.6025C28.805 26.5242 29.0098 26.559 29.1934 26.6472L19.572 26.6744Z" fill="#D11E4D"/>
<path d="M13.3674 28.9858C13.9788 29.0524 13.9965 29.498 13.9897 29.9599C13.7365 29.6669 13.5269 29.3388 13.3674 28.9858Z" fill="#D11E4D"/>
<path d="M13.9842 29.9521C14.4964 29.9521 14.6227 30.179 14.4081 30.6314C14.216 30.441 14.0709 30.2084 13.9842 29.9521Z" fill="#D11E4D"/>
<path d="M35.5475 18.5441C35.5475 19.5142 35.5665 20.4855 35.5475 21.4542C35.4877 24.0029 34.227 25.428 31.7177 25.8016C30.7079 25.9568 29.6753 25.853 28.7166 25.5C27.2616 24.9634 26.4179 23.8779 26.2467 22.3848C25.975 20.0046 26.1788 17.6054 26.1326 15.2156C26.1244 14.8325 26.3228 14.7075 26.6828 14.7184C27.248 14.7333 27.8131 14.7415 28.377 14.7184C28.8878 14.6953 29.0413 14.9222 29.0372 15.4072C29.0223 17.4451 29.0114 19.4693 29.0454 21.499C29.0671 22.7802 29.9964 23.5111 31.2069 23.2896C32.0573 23.1334 32.6171 22.4487 32.6537 21.4189C32.6904 20.3891 32.6687 19.343 32.6714 18.305C32.6714 17.3133 32.6836 16.3202 32.6714 15.327C32.6633 14.9004 32.8073 14.7007 33.2542 14.7184C33.818 14.7415 34.3846 14.7415 34.9484 14.7184C35.428 14.6994 35.5774 14.914 35.5679 15.3692C35.5475 16.4288 35.5611 17.4899 35.5611 18.5509L35.5475 18.5441Z" fill="#FEFEFE"/>
<path d="M21.5515 14.4825C23.0024 14.4825 24.1939 14.8601 25.2101 15.7486C25.5606 16.0543 25.672 16.3505 25.2685 16.6997C25.2183 16.7431 25.1748 16.7961 25.1327 16.8437C24.7822 17.1942 24.4901 17.6833 24.0675 17.8544C23.5866 18.0514 23.3067 17.4048 22.8869 17.2091C22.3748 16.97 21.8734 16.8396 21.3178 16.9945C21.0135 17.0801 20.7744 17.2512 20.7132 17.5691C20.6521 17.887 20.8409 18.1438 21.1113 18.2878C21.4317 18.4521 21.7636 18.5928 22.1044 18.709C22.8679 18.9807 23.6369 19.2415 24.3624 19.6165C26.5429 20.7387 26.3309 23.4817 24.9058 24.6976C23.6043 25.8062 22.0949 26.0018 20.4524 25.6893C19.1672 25.4462 18.2787 24.665 17.42 23.7683C17.2285 23.5672 17.2842 23.5143 17.4499 23.3607C17.8138 23.0246 18.1563 22.6661 18.4757 22.2875C18.8153 21.8799 19.1414 21.9003 19.4959 22.2318C19.8135 22.5162 20.1569 22.7705 20.5217 22.9912C21.1466 23.392 21.7879 23.2344 22.4359 23.0958C22.8027 23.0184 22.9345 22.7317 22.9793 22.426C23.0242 22.1204 22.8598 21.922 22.5853 21.7468C21.7702 21.2156 20.7947 21.0824 19.9742 20.5879C19.2881 20.1803 18.6006 19.7863 18.1931 19.0255C17.2163 17.201 18.1265 15.1835 20.1399 14.6917C20.6344 14.5613 21.1439 14.4363 21.5515 14.4825Z" fill="#FEFEFE"/>
</svg>
