<svg width="76" height="76" viewBox="0 0 76 76" fill="none" xmlns="http://www.w3.org/2000/svg">
<g clip-path="url(#clip0)">
<path fill-rule="evenodd" clip-rule="evenodd" d="M42.2246 0C44.3711 0.511199 46.5335 0.959157 48.659 1.54941C63.1206 5.55468 74.1382 18.9038 75.7732 33.776C77.9883 53.9236 63.8379 72.4111 43.6169 75.5573C24.2135 78.5823 5.27411 65.6337 0.92297 46.361C0.632894 45.0698 0.722554 43.6891 0 42.5033C0 41.776 0 41.0435 0 40.3162C0.253157 39.6891 0.253157 39.0672 0 38.4401C0 36.7747 0 35.1041 0 33.4387C0.453574 28.7852 1.70354 24.3689 3.96086 20.2635C9.72547 9.77602 18.3539 3.05665 30.0994 0.442688C31.3071 0.173913 32.5729 0.310935 33.7754 0C34.403 0 35.0254 0 35.653 0C36.2806 0.252964 36.903 0.252964 37.5306 0C37.8418 0 38.1582 0 38.4694 0C39.097 0.252964 39.7194 0.252964 40.347 0C40.9693 0 41.5969 0 42.2246 0Z" fill="#F8BD2B"/>
<path fill-rule="evenodd" clip-rule="evenodd" d="M40.347 0C39.7193 0.479578 39.097 0.469038 38.4694 0C39.097 0 39.7193 0 40.347 0Z" fill="#F9C441"/>
<path fill-rule="evenodd" clip-rule="evenodd" d="M0 38.4395C0.469396 39.0666 0.479944 39.6885 0 40.3156C0 39.6885 0 39.0666 0 38.4395Z" fill="#F9C440"/>
<path fill-rule="evenodd" clip-rule="evenodd" d="M37.5306 0C36.903 0.469038 36.2806 0.479578 35.653 0C36.2806 0 36.903 0 37.5306 0Z" fill="#F9C441"/>
<path fill-rule="evenodd" clip-rule="evenodd" d="M25.5689 37.5013C23.7019 37.5066 22.1249 37.222 20.5901 36.6739C19.3454 36.2259 18.2484 33.5013 18.8813 32.3682C19.2294 31.7411 19.7885 31.6989 20.337 32.0994C20.8802 32.5 21.376 32.9637 21.8928 33.4012C22.916 34.2549 24.0974 34.7819 25.4107 34.9664C27.5098 35.2668 28.7492 34.666 29.0867 33.243C29.3926 31.9519 28.7492 31.1772 26.687 30.3129C25.2472 29.7121 23.7757 29.1745 22.3992 28.4578C18.8391 26.6027 18.6651 22.2075 22.03 19.9782C24.8358 18.1232 27.8157 18.6765 30.7639 19.467C31.613 19.6936 32.0508 22.9769 31.3546 23.5619C30.6004 24.1996 30.015 23.6936 29.477 23.1456C28.3958 22.0336 27.2197 21.1587 25.5478 21.2114C24.551 21.243 23.7968 21.5803 23.4962 22.55C23.2061 23.4881 23.5014 24.3208 24.3242 24.8741C24.878 25.2483 25.4898 25.5487 26.1069 25.8175C27.2039 26.2865 28.3325 26.6871 29.4348 27.1508C31.344 27.9624 32.6468 29.3063 32.7997 31.4512C32.9579 33.6805 31.6816 35.1455 29.9411 36.2997C28.5435 37.2325 26.9929 37.5645 25.5689 37.5013Z" fill="black"/>
<path fill-rule="evenodd" clip-rule="evenodd" d="M43.2741 43.0403C45.0409 41.6596 46.8236 40.8321 49.0124 41.4804C51.6125 42.2551 53.1209 44.1576 53.1525 46.8559C53.1842 49.4593 53.1842 52.0627 53.1789 54.6609C53.1789 55.3513 53.1578 56.0047 53.9331 56.3736C54.4289 56.6055 54.4974 57.1115 54.3603 57.591C54.2179 58.0864 53.7854 58.118 53.3477 58.1128C52.1505 58.1075 50.9532 58.1075 49.756 58.1128C49.3182 58.1128 48.8963 58.0706 48.7856 57.5436C48.6906 57.1167 48.6959 56.6635 49.1337 56.4422C50.0039 56.01 50.0092 55.2617 49.9933 54.4501C49.9511 52.2103 49.9775 49.9758 49.9037 47.736C49.8615 46.4817 49.7613 45.1378 48.3109 44.6266C46.6812 44.0522 45.0304 44.1681 43.4587 44.9112C42.984 45.1378 42.9313 45.6543 42.9313 46.1339C42.926 49.0482 42.926 51.9626 42.9313 54.8769C42.9313 55.4672 43.021 56.01 43.638 56.3209C44.1971 56.6055 44.2815 57.122 44.1022 57.6596C43.9334 58.1602 43.464 58.1075 43.0473 58.1128C41.9028 58.118 40.7584 58.1075 39.6086 58.118C39.1709 58.1233 38.7437 58.0812 38.5591 57.6279C38.3534 57.1325 38.4958 56.653 38.9652 56.4158C39.7774 56.0047 39.7932 55.3091 39.7932 54.5607C39.7879 52.3209 39.8143 50.0864 39.7774 47.8466C39.7616 46.8242 40.1307 45.6859 38.7647 45.0324C38.1793 44.7531 38.5749 44.068 38.9493 43.7043C39.5084 43.1615 40.136 42.6925 40.7478 42.2076C42.3775 40.9323 42.6465 41.0113 43.2741 43.0403Z" fill="black"/>
<path fill-rule="evenodd" clip-rule="evenodd" d="M59.7452 16.8442C59.7188 17.3659 59.3496 17.6136 59.0648 17.8982C45.0357 31.9219 31.0012 45.9403 16.9615 59.9588C16.5818 60.3382 16.1493 61.0286 15.5534 60.4489C14.8677 59.7796 15.6588 59.3369 16.0597 58.9364C26.2176 48.7704 36.3808 38.6149 46.5441 28.4542C50.2623 24.7388 53.9806 21.0181 57.7041 17.3027C58.0364 16.9706 58.3475 16.5965 58.7431 16.3646C59.2599 16.0695 59.6344 16.2855 59.7452 16.8442Z" fill="#020200"/>
</g>
<defs>
<clipPath id="clip0">
<rect width="76" height="76" fill="white"/>
</clipPath>
</defs>
</svg>
