<svg width="93" height="63" viewBox="0 0 93 63" fill="none" xmlns="http://www.w3.org/2000/svg">
<path d="M84.4076 23.2974L85.8944 22.5918L92.9252 0L81.6734 3.6036L65.4068 15.4476L63.6176 15.6492L53.2226 16.8084L52.2776 17.6274C51.257 17.262 50.0222 17.1612 48.548 17.325L44.516 17.7786L37.6868 18.5472L29.0558 19.5048L28.451 20.412C27.3296 19.7316 25.8806 19.4796 24.104 19.6812L23.8898 19.7064C20.198 20.1222 17.5268 22.113 16.1912 25.3764L0.100998 63L85.5542 39.1608L85.6802 31.7016L91.8542 26.46L84.8612 25.2378L84.4076 23.2974Z" fill="#5000AA"/>
<path d="M27.9722 34.8391L30.8576 21.5083L34.9022 21.0547L31.9412 34.7257C31.6136 36.2377 31.9664 36.8551 32.9996 36.7417C34.0706 36.6283 34.625 35.9101 34.9526 34.3855L37.9136 20.7145L41.744 20.2861L38.846 33.6799C38.0018 37.5985 36.0614 39.8917 32.3192 40.3075L31.9412 40.3453C28.2368 40.7611 27.1154 38.8081 27.9722 34.8391Z" fill="#00FF96"/>
<path d="M42.8024 20.1603L48.8 19.4925C52.6808 19.0641 53.966 20.7777 53.0336 25.0617C52.0886 29.4087 49.871 31.5381 45.8012 31.9917L44.7932 32.1052L43.3694 38.695L39.3752 39.136L42.689 23.8395L42.8024 20.1603ZM46.4186 28.3755C47.8676 28.2117 48.5732 27.4557 48.9764 25.5783C49.3796 23.7261 48.9638 23.1465 47.5148 23.3103L46.6706 23.4111L45.5744 28.489L46.4186 28.3755Z" fill="#00FF96"/>
<path d="M55.037 18.7993L64.6634 17.7283L63.8318 21.5965L58.1492 22.2265L57.368 25.8175L62.3702 25.2631L61.5512 29.0683L56.549 29.6227L55.7048 33.5413L61.3874 32.9113L60.5558 36.7795L50.9294 37.8505L55.037 18.7993Z" fill="#00FF96"/>
<path d="M69.1994 35.8093L69.0356 29.0179L67.8008 29.1565L66.2888 36.1369L62.2946 36.5779L65.621 21.2815L65.747 17.6023L71.6312 16.9471C75.6002 16.5061 76.8854 18.3331 76.0412 22.2013C75.4742 24.8347 74.441 26.4853 73.0046 27.5941L73.244 35.3557L69.1994 35.8093ZM69.5522 25.3009C70.976 25.1371 71.606 24.4693 71.9588 22.7935C72.3116 21.1429 71.9588 20.5759 70.535 20.7397L69.6026 20.8405L68.6198 25.4017L69.5522 25.3009Z" fill="#00FF96"/>
<path d="M23.6378 29.7109C22.3148 29.0683 21.395 28.6272 21.71 27.1405C21.9746 25.9056 22.5164 25.3765 23.4236 25.2757C24.4064 25.1623 24.7088 25.6285 24.3686 27.1909L24.1796 28.0603L28.4132 26.7121C29.0558 23.2219 27.8588 21.4453 24.356 21.8359L24.1418 21.8611C20.8028 22.2391 18.5222 24.1543 17.7284 27.8209C16.985 31.2607 18.2576 32.2687 20.6138 33.4531C22.6424 34.4611 22.8314 34.65 22.5038 36.1998C22.1888 37.6866 21.8486 38.1024 20.7524 38.2284C19.7696 38.3418 19.4546 37.9387 19.7948 36.3385L20.009 35.3305L15.7754 36.6913C15.0572 40.3201 16.1282 42.1092 19.757 41.706L20.135 41.6683C23.7764 41.2651 25.7294 39.2617 26.5484 35.4313C27.38 31.6513 26.12 30.9331 23.6378 29.7109Z" fill="#00FF96"/>
<path d="M75.2096 27.9469L77.4524 30.7063L75.3986 35.1289L80.0984 32.7979L83.4374 35.0785L83.513 30.6811L86.8772 27.8209L83.0594 27.1657L82.1396 23.2219L79.2038 27.3295L75.2096 27.9469Z" fill="#FF0082"/>
<path d="M83.5886 5.29206L80.5016 22.0249L84.143 20.8657L89.5862 3.36426L83.5886 5.29206Z" fill="#F0FF46"/>
</svg>
