<svg width="120" height="25" viewBox="0 0 120 25" fill="none" xmlns="http://www.w3.org/2000/svg">
<path d="M0.0365295 20.6602L2.97565 18.5224C2.97565 18.5224 4.53577 20.6699 6.7002 20.6699C8.14637 20.6699 9.41701 19.8826 9.41701 18.6176C9.41701 15.4879 1.04224 16.3029 1.04224 10.2144C1.04224 7.19769 3.35974 4.96094 6.80645 4.96094C10.6047 4.96094 12.3505 7.76131 12.3505 7.76131L9.54543 9.79429C9.54543 9.79429 8.42985 8.45549 6.87492 8.45549C5.54533 8.45549 4.78217 9.20097 4.78217 10.2011C4.78217 13.2942 13.1553 12.6843 13.1553 18.5491C13.1553 21.6687 10.7373 24.1891 6.7256 24.1891C2.38905 24.1891 0.0365295 20.6602 0.0365295 20.6602Z" fill="black"/>
<path d="M13.5303 5.31641H17.555L22.4266 18.3788L27.2808 5.31641H31.3282L24.4133 23.8014H20.3942L13.5303 5.31641Z" fill="black"/>
<path d="M33.1782 0H36.9235V5.29784H42.642L41.293 8.9586H36.9235V17.9004C36.9235 19.1597 37.8864 20.6124 39.4162 20.6124C40.5127 20.6124 41.3588 19.868 41.3588 19.868L43.7041 22.5324C43.7041 22.5324 42.2205 24.1923 39.3696 24.1923C35.4932 24.1923 33.1707 20.8771 33.1707 18.0887L33.1782 0Z" fill="black"/>
<path d="M53.7435 5.54102V23.5907H60.6366C63.1147 23.5907 66.3195 22.5304 66.3195 18.6657C66.3195 14.8728 62.6107 14.2239 62.6107 14.2239C62.6107 14.2239 65.4233 13.451 65.4233 10.238C65.4233 6.70371 62.5026 5.54102 59.7491 5.54102H53.7435ZM55.2974 6.7762H59.76C62.2979 6.7762 63.9075 7.93905 63.9075 10.2306C63.9075 12.4935 62.2004 13.8129 60.0788 13.8129H55.2974V6.7762ZM55.2974 14.9842H60.4773C63.1251 14.9842 64.7416 16.3884 64.7416 18.6728C64.7416 20.7129 63.3813 22.3954 60.5569 22.3954H55.2974V14.9842Z" fill="black"/>
<path d="M76.5937 5.53125C75.8451 5.53125 75.6386 5.80574 75.3984 6.4455L68.6929 23.5909H70.2791L72.2713 18.3314H80.908L82.9497 23.5909H84.5787L77.8496 6.45764C77.6077 5.80368 77.3893 5.53125 76.5937 5.53125ZM76.6045 7.11648L80.4509 17.136H72.7495L76.6045 7.11648Z" fill="black"/>
<path d="M88.2889 5.54102V23.5907H89.8429V16.8012H95.3301L99.2861 23.5907H101.083L96.9859 16.6414C99.1949 16.1231 101.129 14.0141 101.129 11.194C101.129 7.53206 98.2846 5.54102 95.5407 5.54102H88.2889ZM89.8429 6.7762H95.2219C97.8585 6.7762 99.5686 8.72988 99.5686 11.2197C99.5686 13.7552 97.708 15.5819 95.2219 15.5819H89.8429V6.7762Z" fill="black"/>
<path d="M107.096 23.5907H105.629V5.54102H107.255L118.228 21.3594V5.54102H119.687V22.9532C119.687 23.2578 119.577 23.5907 119.049 23.5907H118.621C118.154 23.5907 117.918 23.3482 117.614 22.9493L107.096 7.81217V23.5907Z" fill="black"/>
</svg>
