<svg width="95" height="51" viewBox="0 0 95 51" fill="none" xmlns="http://www.w3.org/2000/svg">
<g clip-path="url(#clip0)">
<path d="M69.2858 13.8872H61.1208V12.9946C61.1208 12.4582 61.1425 11.8745 61.2415 11.351C61.3061 10.9604 61.4138 10.6214 61.5388 10.3639C61.7413 9.97339 61.8878 9.77598 62.3316 9.50562C62.7797 9.24813 63.6931 8.90055 65.5114 8.89626H71.0782V1.84337e-05H65.5114C62.8659 -0.00338157 60.5435 0.463524 58.5701 1.42481C57.0965 2.14149 55.8556 3.13712 54.9336 4.24861C53.5419 5.92228 52.874 7.75042 52.5422 9.28677C52.2105 10.8274 52.1889 12.1535 52.1889 12.9946V37.044H61.1251L61.1204 22.3028H69.2853V13.8872" fill="#371A5B"/>
<path d="M82.9788 50.9993C90.8378 50.9932 94.9871 45.2702 95 39.893V13.8867H86.6067V26.8341C86.6067 27.4263 86.5291 28.2331 85.8914 28.9326C85.2624 29.6192 84.4437 30.1471 83.1037 30.1385C81.7034 30.1488 80.7081 29.6321 80.204 28.924C79.6999 28.2245 79.6008 27.422 79.6008 26.8341V13.8867H71.0782V27.0186C71.0865 32.4945 75.1542 38.1164 81.9878 38.1292C83.3192 38.1292 84.6419 37.8587 85.9302 37.3482L86.5507 37.1037L86.5473 37.7689V39.6743C86.5473 40.0734 86.5411 40.627 86.1164 41.3652C85.6985 42.1076 84.7764 42.8371 83.2253 42.8242C81.8293 42.8304 80.9331 42.2149 80.4548 41.584C79.9722 40.9575 79.8645 40.3438 79.8473 40.258L71.2299 40.2236L71.4023 41.5883C72.4019 46.2831 76.6933 51.0081 82.9797 50.9995" fill="#371A5B"/>
<path d="M38.3537 50.9993C46.2128 50.9932 50.3621 45.2702 50.375 39.893V13.8867H41.9817V26.8341C41.9817 27.4263 41.9429 28.2116 41.2664 28.9326C40.6244 29.6149 39.8187 30.1471 38.4787 30.1385C37.0784 30.1488 36.0831 29.6321 35.5789 28.924C35.0705 28.2245 34.9757 27.422 34.9714 26.8341V13.8867H26.4532V27.0186C26.4614 32.4945 30.5292 38.1164 37.3584 38.1292C38.6941 38.1292 40.0169 37.8587 41.3052 37.3482L41.9256 37.1037V37.7689L41.9209 39.6743C41.9209 40.0692 41.9126 40.627 41.4857 41.3652C41.072 42.1076 40.15 42.8371 38.5989 42.8242C37.2028 42.8304 36.3023 42.2149 35.8284 41.584C35.3458 40.9575 35.2338 40.3438 35.2209 40.258L26.6035 40.2236L26.7758 41.5883C27.7754 46.2831 32.0669 51.0081 38.3533 50.9995" fill="#371A5B"/>
<path d="M0.0107662 26.1616C0.0107662 26.1616 0.0150749 25.432 0.0452357 24.9986L8.48164 25.0243L8.4601 25.535C8.45148 27.037 9.36923 28.4704 10.175 29.0583C10.9807 29.6548 12.1311 29.8479 12.8334 29.8479C14.6387 29.8436 16.289 28.745 16.3105 27.0542L16.3062 26.8997C16.2502 25.5822 15.41 24.8613 14.2122 24.3034C13.135 23.8013 11.2952 23.0245 9.30029 22.0375C7.30106 21.0504 5.14241 19.8574 3.44048 18.5185C0.984529 16.5787 -0.122803 14.0811 0.0107662 10.605C0.127101 7.64818 1.41971 5.09904 3.83257 2.98764C6.24543 0.87624 9.22273 0.0351143 12.3767 0.0351143C16.3838 0.0351143 19.7316 1.64442 21.9463 4.27079C24.1911 7.01733 24.622 9.62226 24.7168 11.5362L24.734 11.9053H15.9787C15.8883 11.0084 15.466 9.93553 14.9533 9.35189C14.3501 8.65668 13.4237 8.20607 12.2604 8.21036C11.5925 8.21465 10.8083 8.41206 10.1448 8.82833C9.49418 9.23602 8.95559 9.91407 8.9599 10.8024C8.95128 11.7637 9.39939 12.5147 10.6446 13.1455C11.8596 13.7721 15.5393 15.3943 16.0563 15.5917C21.3 17.6258 24.6177 20.9217 24.9968 25.8998C25.0011 26.0071 25.0054 26.1187 25.0054 26.2431C25.0098 27.9254 24.5013 30.835 22.571 33.3755C20.6321 35.9161 17.2714 38.1348 12.8722 38.1348C4.17295 38.1047 0.0323096 31.8134 0.0107662 26.1616Z" fill="#371A5B"/>
</g>
<defs>
<clipPath id="clip0">
<rect width="95" height="51" fill="white"/>
</clipPath>
</defs>
</svg>
