<svg width="142" height="30" viewBox="0 0 142 30" fill="none" xmlns="http://www.w3.org/2000/svg">
<g clip-path="url(#clip0)">
<path d="M46.0511 0.14847C45.2319 0.14847 44.5741 0.40476 44.1081 0.950323C43.771 1.33199 43.3587 1.92969 43.3587 3.27298C43.3587 4.58646 43.382 22.5565 43.3865 26.223C43.3865 27.2603 43.639 28.0417 44.136 28.601C44.6192 29.1179 45.2562 29.4028 46.0512 29.4028C46.8646 29.4028 47.51 29.1283 48.022 28.6286C48.5121 28.0945 48.7714 27.3905 48.7714 23.928V3.35593C48.7714 2.2843 48.5306 1.489 48.0497 0.950323C47.5469 0.411642 46.8784 0.14847 46.0512 0.14847H46.0511ZM55.5163 0.14847C54.3902 0.273565 53.1569 0.960779 53.1569 3.63245V26.223C53.1569 27.2855 53.4011 28.0796 53.8786 28.6286C54.3549 29.1283 55.0082 29.4028 55.8216 29.4028C56.5418 29.4028 57.1788 29.1375 57.7368 28.6286C58.2856 28.0819 58.4922 27.3172 58.5417 26.8037C58.5798 26.4163 58.6527 24.9289 58.6527 24.2045C58.6527 19.738 61.4913 20.9466 62.2334 21.8819C62.8052 22.612 63.7147 23.566 64.1209 24.1769C64.1209 24.1769 67.4189 28.5844 67.7848 28.9328C68.1438 29.2239 68.6661 29.4028 69.3392 29.4028C70.1123 29.4028 70.726 29.146 71.1989 28.7116C71.6706 28.2222 71.9206 27.5609 71.9206 26.7207C71.9206 26.4159 71.8271 26.1176 71.643 25.7806L66.0916 18.3702C65.2391 17.1633 65.576 16.0181 66.508 14.9969C67.0246 14.3928 69.1332 12.1623 69.5612 11.6511C70.4816 10.5634 70.319 9.36673 69.4779 8.52661C68.5989 7.68421 67.0578 7.65624 66.0361 8.66487L61.9558 12.7572C60.9802 13.7268 58.5695 13.8486 58.5695 11.7064V3.43888C58.5695 0.758055 57.2755 0.14847 55.9881 0.14847C55.8353 0.14847 55.6771 0.13061 55.5162 0.14847H55.5163ZM115.194 0.14847C114.365 0.14847 113.734 0.403608 113.251 0.950323C112.912 1.33085 112.501 1.92969 112.501 3.27298V23.3197C112.501 24.5931 112.498 25.6041 112.501 26.223C112.501 27.2603 112.748 28.0417 113.251 28.601C113.752 29.1179 114.396 29.4028 115.194 29.4028C116.004 29.4028 116.678 29.1283 117.192 28.6286C117.708 28.0934 117.969 27.3894 117.969 23.928V23.3197V3.35593C117.969 2.28428 117.697 1.489 117.192 0.950323C116.691 0.410488 116.015 0.14847 115.194 0.14847ZM124.77 0.14847C123.627 0.273565 122.411 0.960779 122.411 3.63245V23.3197V26.223C122.411 27.2855 122.654 28.0796 123.132 28.6286C123.61 29.1283 124.256 29.4028 125.103 29.4028C125.819 29.4028 126.41 29.1375 126.963 28.6286C127.512 28.0819 127.718 27.3172 127.768 26.8037C127.803 26.4163 127.851 24.9289 127.851 24.2045C127.851 23.8813 127.876 23.5902 127.906 23.3197C128.268 19.918 130.803 21.0131 131.487 21.8819C131.831 22.3151 132.277 22.8509 132.681 23.3197C132.96 23.6418 133.232 23.9305 133.402 24.1769C133.402 24.1769 136.673 28.5844 137.039 28.9328C137.396 29.2239 137.9 29.4028 138.565 29.4028C139.343 29.4028 139.98 29.146 140.453 28.7116C140.93 28.2222 141.174 27.5609 141.174 26.7207C141.174 26.4159 141.079 26.1176 140.897 25.7806L139.037 23.3197L135.345 18.3702C134.482 17.1633 134.768 16.0181 135.706 14.9969C136.242 14.3928 138.393 12.1623 138.815 11.6511C139.734 10.5635 139.575 9.36673 138.732 8.52661C137.856 7.6842 136.307 7.65624 135.262 8.66487C134.681 9.24481 132.898 11.0781 131.182 12.7572C130.205 13.7268 127.795 13.8486 127.795 11.7064V3.43888C127.795 0.758055 126.496 0.14847 125.27 0.14847C125.114 0.14847 124.933 0.13061 124.77 0.14847H124.77ZM3.13889 0.590868C1.46482 0.590868 0.141113 1.27181 0.141113 3.05178C0.141113 4.00423 0.682185 5.48504 2.63925 5.48504H4.30467C8.25912 5.48504 9.27316 7.29034 9.27316 11.9276L9.60625 25.9189C9.60625 27.096 9.99023 28.1241 10.439 28.5733C11.005 29.112 11.4744 29.4028 12.4375 29.4028C13.4108 29.4028 13.8942 29.112 14.4637 28.5733C14.9124 28.1241 15.2964 27.096 15.2964 25.9189L15.6018 11.9276C15.6018 7.29034 16.5949 5.48504 20.5425 5.48504H22.2634C24.1952 5.48504 24.7338 4.00422 24.7338 3.05178C24.7338 1.27181 23.416 0.590868 21.7638 0.590868H3.13889ZM72.2259 0.590868C70.5496 0.590868 69.2004 1.27067 69.2004 3.05178C69.2004 4.00422 69.7403 5.45738 71.6986 5.45738H73.364C77.3472 5.45738 78.3603 7.29034 78.3603 11.9276L78.6101 23.3197L78.6655 25.9189C78.6655 27.096 79.0484 28.1252 79.4983 28.5733C80.0724 29.112 80.5476 29.4028 81.4967 29.4028C82.4736 29.4028 82.9489 29.112 83.523 28.5733C83.9752 28.1252 84.3557 27.096 84.3557 25.9189L84.4113 23.3197L84.6611 11.9276C84.6611 7.29034 85.6853 5.45738 89.6018 5.45738H91.3227C93.2821 5.45738 93.8209 4.00422 93.8209 3.05178C93.8209 1.27067 92.5006 0.590868 90.8231 0.590868H72.2259ZM30.4517 7.58649C28.3485 7.54972 26.4772 7.8279 24.5673 8.60956C23.1337 9.18493 21.2138 10.5993 20.8756 11.9276C20.726 12.5145 20.7283 13.0404 21.3197 13.6696C21.7776 14.1693 22.5128 14.451 22.8741 14.4991C23.6495 14.6024 24.482 14.4956 25.2057 13.7802C26.0893 12.8771 26.6303 12.4414 27.2597 12.2041C27.7521 12.0196 28.4329 11.7271 29.6468 11.7064C31.261 11.6801 32.3376 11.9812 32.9221 12.7572C33.5825 13.6317 33.3956 15.1103 33.2552 15.4393C33.0297 15.9298 32.5319 15.9525 30.2297 16.2688C29.1274 16.4201 26.8184 16.6487 24.706 17.2642C23.0999 17.7296 21.7626 18.6324 21.0976 19.421C20.2151 20.5109 19.8762 21.5958 19.8486 23.0709C19.8326 24.1265 20.1385 25.7289 20.7368 26.6378C22.504 29.3049 25.0344 29.3834 26.1216 29.4028C29.7861 29.467 32.1404 27.9987 33.0609 27.3843C33.6672 26.9729 34.2767 27.0693 34.5597 27.412C35.3145 28.3255 35.381 28.5004 35.8366 28.8775C36.6213 29.4643 37.6459 29.8095 39.0841 28.9051C40.2266 28.1475 40.6679 26.8426 39.6393 25.034C38.9547 23.8179 38.8343 23.2011 38.8343 22.1031C38.8343 21.0165 38.8689 17.2517 38.8621 15.9646C38.8504 13.9119 38.7587 12.4226 38.2237 11.2363C37.6956 10.0077 36.5813 8.93489 35.226 8.36068C33.6819 7.728 31.7139 7.61052 30.4518 7.58645L30.4517 7.58649ZM99.5388 7.58649C97.4149 7.54972 95.5941 7.82904 93.6543 8.60956C92.223 9.18493 90.2755 10.5993 89.9349 11.9276C89.7853 12.5145 89.8085 13.0404 90.4067 13.6696C90.8658 14.1682 91.6334 14.451 91.9889 14.4991C92.7701 14.6024 93.5736 14.4956 94.2927 13.7802C95.1971 12.8771 95.7587 12.4414 96.319 12.2041C96.8206 12.0196 97.5166 11.7282 98.7338 11.7064C100.377 11.6801 101.442 11.9812 102.037 12.7572C102.703 13.6317 102.514 15.1103 102.37 15.4393C102.145 15.9298 101.621 15.9525 99.3167 16.2688C98.1881 16.4201 95.9609 16.6487 93.8209 17.2642C92.2101 17.7296 90.822 18.6324 90.1569 19.421C89.2733 20.511 88.9297 21.5946 88.9079 23.0709C88.9043 23.1523 88.9052 23.2349 88.9079 23.3197C88.9344 24.365 89.2705 25.7965 89.8239 26.6378C91.621 29.306 94.1494 29.3822 95.2642 29.4028C98.8885 29.4659 101.26 27.9987 102.176 27.3843C102.795 26.9729 103.394 27.0682 103.675 27.412C104.37 28.3255 104.468 28.5004 104.924 28.8775C105.706 29.4632 106.713 29.8095 108.171 28.9051C109.314 28.1487 109.753 26.8426 108.726 25.034C108.326 24.3188 108.13 23.8412 108.032 23.3197C107.965 22.9529 107.949 22.5569 107.949 22.1031C107.949 21.0165 107.986 17.2529 107.977 15.9646C107.965 13.913 107.875 12.4237 107.339 11.2363C106.793 10.0077 105.636 8.93603 104.285 8.36068C102.782 7.72915 100.81 7.61052 99.5388 7.58645L99.5388 7.58649ZM31.3955 20.0016C31.7953 19.9898 32.0865 20.0096 32.3114 20.0293C32.8787 20.0762 33.2001 20.386 33.2829 20.9694C33.3613 21.5207 33.2984 22.3167 32.9498 22.8496C32.5287 23.4582 32.1166 23.8782 31.1179 24.2598C29.2459 24.9934 27.7084 25.1028 26.8156 24.5916C26.3082 24.3028 26.0089 23.8035 25.8996 23.1261C25.7213 22.0144 26.2112 21.422 26.538 21.1629C27.2111 20.6346 28.1738 20.345 29.8133 20.1399C30.4985 20.0534 30.9956 20.0134 31.3955 20.0016V20.0016ZM100.51 20.0016C100.912 19.9898 101.201 20.0096 101.426 20.0293C101.99 20.075 102.313 20.3848 102.398 20.9694C102.475 21.5195 102.414 22.3155 102.065 22.8496C101.945 23.0158 101.832 23.1741 101.704 23.3197C101.362 23.6956 100.954 23.9813 100.233 24.2598C98.3274 24.9934 96.7657 25.1028 95.9304 24.5916C95.4691 24.3337 95.1814 23.9054 95.0422 23.3197C95.0294 23.2635 95.0259 23.1812 95.0143 23.1261C94.828 22.0144 95.3538 21.422 95.6805 21.1629C96.2995 20.6357 97.2516 20.3439 98.9003 20.1399C99.5924 20.0534 100.108 20.0134 100.51 20.0016L100.51 20.0016Z" fill="url(#paint0_linear)"/>
</g>
<defs>
<linearGradient id="paint0_linear" x1="-0.0309731" y1="4.29137" x2="140.959" y2="4.29137" gradientUnits="userSpaceOnUse">
<stop stop-color="#FF0000"/>
<stop offset="0.1" stop-color="#FF0200"/>
<stop offset="0.2" stop-color="#FF0E00"/>
<stop offset="0.30979" stop-color="#FF1C00"/>
<stop offset="0.4" stop-color="#FF2700"/>
<stop offset="0.5" stop-color="#FF3300"/>
<stop offset="0.6" stop-color="#FF3E00"/>
<stop offset="0.7" stop-color="#FF4B00"/>
<stop offset="0.8" stop-color="#FF5800"/>
<stop offset="0.897511" stop-color="#FF6300"/>
<stop offset="1" stop-color="#FF6F00"/>
</linearGradient>
<clipPath id="clip0">
<rect width="141.316" height="29.6" fill="white"/>
</clipPath>
</defs>
</svg>
