<svg width="119" height="47" viewBox="0 0 119 47" fill="none" xmlns="http://www.w3.org/2000/svg">
<path d="M41.555 2.72656H77.445V44.2713H41.555V2.72656Z" fill="#EA1B22"/>
<path d="M80.4056 2.72656H116.295V44.2713H80.4056V2.72656Z" fill="#024698"/>
<path d="M2.70451 2.72656H38.5787V44.2713H2.70451V2.72656Z" fill="#024698"/>
<path d="M5.46045 17.064H6.98798C7.19271 15.7578 7.39743 14.4197 8.20059 13.2887C9.27146 11.7913 11.2557 10.8196 13.3975 10.8196H16.6573V35.0646C16.6573 38.0435 14.3108 37.9957 11.4604 37.9957V39.2223H30.0432V37.9957C26.4684 37.9957 24.8936 38.0435 24.8936 34.6982V10.8196H28.6574C30.7991 10.8196 32.5786 11.5364 33.9015 12.9542C35.1298 14.2923 35.2873 15.3914 35.3346 17.064H36.8621V9.01953H5.46045V17.064Z" fill="#FFFEFF"/>
<path fill-rule="evenodd" clip-rule="evenodd" d="M44.6731 38.8392H62.689C65.8859 38.8392 68.2323 38.7117 70.9725 37.294C73.7757 35.8284 75.3504 33.6939 75.3504 30.9221C75.3504 29.2176 74.6418 27.4175 73.2717 26.1113C71.3346 24.3113 68.689 23.7218 65.9331 23.1325C68.689 22.6386 70.8308 22.097 72.6575 20.2492C73.7756 19.0704 74.4371 17.6048 74.4371 16.1074C74.4371 11.9179 70.2638 8.85943 65.3346 8.6842C64.0118 8.65234 62.7362 8.65234 61.4133 8.65234H44.6731V9.86301C48.2795 9.86301 49.0511 10.1179 49.0511 13.2082V33.6461C49.0511 33.8531 49.0984 34.108 49.0984 34.3151C49.3031 37.2143 47.7283 37.6285 44.6731 37.6285V38.8392ZM57.2874 10.4843C57.7913 10.4524 58.3582 10.4046 58.8622 10.4046C63.2401 10.4046 65.6338 12.9215 65.6338 16.3942C65.6338 18.6084 64.4685 21.0457 61.8228 21.9218C60.5 22.336 59.0196 22.336 57.5866 22.336H57.2874V10.4843ZM58.4055 24.2316C59.7756 24.2316 60.8465 24.2635 62.1221 24.6458C65.067 25.5219 66.1851 27.9114 66.1851 30.3486C66.1851 33.7735 64.6102 37.0072 59.8386 37.0072C58.1535 37.0072 57.4449 36.37 57.3976 35.0319C57.3346 34.4107 57.2874 33.7735 57.2874 33.1523V24.2316H58.4055Z" fill="#FFFEFF"/>
<path d="M82.626 10.1187C84.7835 10.2461 85.2402 11.2975 86.5945 12.8108V35.3991C86.5945 37.9797 85.1457 38.1868 83.004 38.1868V39.4134H92.6103V38.1868C91.5709 38.1868 89.7442 38.2665 88.9253 37.47C88.2166 36.785 88.2166 35.7815 88.2166 34.8575V14.7542L108.374 39.4134H109.366V13.6232C109.366 13.1135 109.335 12.5559 109.461 12.0621C109.87 10.2461 111.477 10.2461 112.973 10.2461V9.01953H103.665V10.2461C105.476 10.2461 107.76 10.2461 107.76 12.6834V28.3582L92.0591 9.01953H82.626V10.1187Z" fill="#FFFEFF"/>
</svg>
