<svg width="102" height="55" viewBox="0 0 102 55" fill="none" xmlns="http://www.w3.org/2000/svg">
<g clip-path="url(#clip0)">
<path d="M96.0847 7.93714L93.046 4.89786L88.1549 0H0V39.8621L5.55232 45.4185L11.0955 50.9704L15.118 55.0001H102V13.8647L96.0847 7.93714ZM78.4113 35.7103C71.6654 34.3345 65.7389 32.3979 65.7389 26.0267V25.9435C65.7389 20.2214 70.2061 15.7867 78.4965 15.7867H84.2016L92.0852 23.7483H79.387C77.8808 23.7483 77.1947 24.2654 77.1947 24.9974V25.085C77.1947 25.8998 78.0107 26.4169 81.1907 27.0171C88.8807 28.4366 94.0364 30.6759 94.0364 36.7397V36.8276C94.0364 43.1502 88.8381 47.0233 80.7595 47.0233H73.2729L65.3345 39.0618H80.0006C81.8041 39.0618 82.5779 38.5937 82.5779 37.7742V37.6911C82.578 36.8276 81.634 36.3543 78.4113 35.7103ZM48.957 16.2451C57.7139 16.2451 64.8131 23.3582 64.8131 32.1247C64.8131 40.8963 57.7136 48.0043 48.957 48.0043C45.4871 48.0043 42.2814 46.887 39.6701 44.9943V47.0236H30.5333V7.88375H40.903V18.4457C43.2642 17.0502 46.0157 16.2451 48.957 16.2451ZM9.16983 7.88375H19.9472V17.7626H27.8466V28.5587H19.9472V47.0235L9.16983 36.2323V7.88375Z" fill="black"/>
<path d="M48.9559 37.6416C51.9955 37.6416 54.463 35.1681 54.463 32.1239C54.463 29.0797 51.9958 26.6113 48.9559 26.6113C45.9145 26.6113 43.4484 29.0798 43.4484 32.1239C43.4484 35.168 45.9145 37.6416 48.9559 37.6416Z" fill="black"/>
</g>
<defs>
<clipPath id="clip0">
<rect width="102" height="55" fill="white"/>
</clipPath>
</defs>
</svg>
