<svg width="66" height="66" viewBox="0 0 66 66" fill="none" xmlns="http://www.w3.org/2000/svg">
<path d="M65.6966 32.9992C65.6966 51.0569 51.0579 65.6956 33.0002 65.6956C14.9424 65.6956 0.303711 51.0569 0.303711 32.9992C0.303711 14.9414 14.9424 0.302734 33.0002 0.302734C51.0579 0.302734 65.6966 14.9414 65.6966 32.9992Z" fill="#00A3D8"/>
<path fill-rule="evenodd" clip-rule="evenodd" d="M24.2002 22.1901C25.3712 19.5687 25.9528 15.7988 31.0131 15.7988H45.5781C44.6248 18.9801 42.6726 22.1901 37.9233 22.1901H24.2002Z" fill="white"/>
<path d="M30.8109 36.9505C30.8109 39.1938 28.9918 41.0123 26.7478 41.0123C24.5037 41.0123 22.6846 39.1938 22.6846 36.9505C22.6846 34.7072 24.5037 32.8887 26.7478 32.8887C28.9918 32.8887 30.8109 34.7072 30.8109 36.9505Z" fill="white"/>
<path fill-rule="evenodd" clip-rule="evenodd" d="M21.6176 42.4042L18.9707 48.2068C18.9707 48.2068 21.0603 48.671 26.1683 48.671C37.7774 48.671 45.4394 44.9573 45.4394 36.6016C45.4394 28.2459 37.3131 25.2285 28.0258 25.2285L23.15 25.4606L20.4334 31.4953C20.3638 31.4953 23.15 31.2632 26.1683 31.2632C34.7591 31.2632 38.474 33.3521 38.474 36.6016C38.474 39.8511 35.4556 42.6363 25.9362 42.6363C23.8465 42.6363 21.5247 42.4042 21.6176 42.4042Z" fill="white"/>
</svg>
