<svg width="118" height="34" viewBox="0 0 118 34" fill="none" xmlns="http://www.w3.org/2000/svg">
<path d="M17.5225 34C26.9113 34 34.5225 26.3888 34.5225 17C34.5225 7.61116 26.9113 0 17.5225 0C8.13362 0 0.522461 7.61116 0.522461 17C0.522461 26.3888 8.13362 34 17.5225 34Z" fill="#1DB9E6"/>
<path d="M82.8712 15.9474C82.8712 14.1702 82.8853 12.3915 82.8628 10.6156C82.8628 10.1295 82.9948 9.97635 83.502 9.989C84.9604 10.0283 84.9604 10.003 84.9604 11.4614C84.9604 14.1041 84.9688 16.7468 84.9534 19.3896C84.9534 19.8223 85.0264 19.9979 85.5238 19.9811C86.8796 19.9375 88.2382 19.9811 89.5982 19.9572C90.687 19.9375 90.8626 19.7408 90.8626 18.6857C90.8626 17.4929 90.8401 16.2973 90.8725 15.1073C90.8893 14.4863 90.6097 14.2039 90.0295 14.1238C89.0039 13.9945 87.9726 14.0592 86.9386 14.0704C86.5016 14.0704 86.3906 13.9411 86.3963 13.5084C86.4089 12.14 86.3892 12.1358 87.7394 12.1428C88.5824 12.1428 89.4254 12.1203 90.2683 12.1849C91.8756 12.3086 92.8914 13.3553 92.9377 14.9611C92.9827 16.3661 92.9743 17.7711 92.9377 19.176C92.9318 19.8276 92.6842 20.4537 92.2429 20.9332C91.8017 21.4126 91.1981 21.7111 90.5493 21.771C88.1215 21.9761 85.6839 21.8061 83.252 21.8609C82.808 21.8707 82.8698 21.556 82.8698 21.2764V15.9474H82.8712Z" fill="#050505"/>
<path d="M76.9971 21.8548H74.1169C73.4338 21.8721 72.7616 21.6815 72.1893 21.3082C71.47 20.8277 71.0119 20.218 71.0302 19.2865C71.0583 17.8141 71.0007 16.3361 71.0302 14.8665C71.0569 13.4615 71.9364 12.4781 73.3442 12.2196C74.6452 11.9821 75.9602 12.1254 77.2682 12.0973C78.1815 12.0777 79.0947 12.11 80.0065 12.0791C80.4167 12.065 80.5123 12.2083 80.5207 12.5961C80.5516 14.0348 80.5671 14.0305 79.1045 14.0319C77.4663 14.0319 75.8267 14.0235 74.1872 14.0544C73.6252 14.0643 73.0393 14.1303 73.0154 14.9396C72.9817 16.0003 72.9634 15.9989 74.0382 15.9975C75.6764 15.9975 77.3146 16.0143 78.9556 15.9806C79.4347 15.9708 79.5372 16.1211 79.5358 16.5735C79.5358 18.0024 79.5485 18.001 78.1224 17.9996C76.6711 17.9996 75.2198 17.9883 73.7671 18.008C73.5086 18.008 73.0534 17.8141 73.0449 18.289C73.0351 18.8046 72.7639 19.4621 73.4861 19.7614C73.8795 19.9243 74.3066 19.9328 74.7309 19.9328C76.5096 19.9328 78.2882 19.9412 80.0697 19.9159C80.4912 19.9159 80.6317 19.9988 80.6317 20.4498C80.6233 21.8548 80.6457 21.8548 79.252 21.8548H76.9971Z" fill="#050505"/>
<path d="M56.2164 21.8536C55.2807 21.8536 54.3436 21.8536 53.4064 21.8536C52.7015 21.8697 52.008 21.674 51.4156 21.2916C50.7019 20.8238 50.2846 20.1943 50.2917 19.3162C50.2917 17.7708 50.2706 16.2253 50.2917 14.6799C50.3127 13.5053 51.2751 12.4586 52.5101 12.2338C52.9702 12.1471 53.437 12.1001 53.9052 12.0933C55.66 12.0765 57.4176 12.0933 59.171 12.0723C59.6009 12.0723 59.7976 12.1355 59.7962 12.6342C59.7962 14.0294 59.8173 14.028 58.3912 14.028C56.7769 14.028 55.1598 14.028 53.5469 14.0434C52.4595 14.0589 51.9762 14.8232 52.3724 15.8221C52.4904 16.1185 52.7264 15.9921 52.9091 15.9935C54.7117 16.0005 56.5142 16.0118 58.3154 15.9795C58.7369 15.9795 58.8226 16.0848 58.831 16.4768C58.8647 17.99 58.8788 17.9914 57.3783 17.9928C55.9045 17.9928 54.4279 18.011 52.9555 17.9829C52.5115 17.9745 52.3443 18.0644 52.3485 18.5449C52.3598 19.7419 52.4398 19.8881 53.7071 19.9119C55.5336 19.9471 57.36 19.9428 59.1864 19.9119C59.6782 19.9119 59.8777 19.9738 59.8566 20.54C59.8074 21.8409 59.844 21.8423 58.5289 21.8423H56.2164V21.8536Z" fill="#050505"/>
<path d="M94.9356 16.9407C94.9356 16.286 94.9202 15.6298 94.9356 14.9737C94.9778 13.455 95.662 12.5221 97.147 12.2579C99.2047 11.9088 101.306 11.9088 103.364 12.2579C104.53 12.4462 105.226 13.3271 105.275 14.6183C105.335 16.182 105.338 17.7527 105.275 19.3165C105.217 20.7017 104.291 21.556 102.664 21.7526C101.012 21.9493 99.3428 21.9493 97.6908 21.7526C95.7646 21.5264 94.9525 20.5416 94.9286 18.614C94.9286 18.052 94.9286 17.49 94.9286 16.928L94.9356 16.9407ZM103.198 16.9505V15.3404C103.198 14.3991 103 14.149 102.041 14.0465C100.762 13.9249 99.4741 13.9249 98.1951 14.0465C97.988 14.0716 97.784 14.1187 97.5868 14.1869C97.1878 14.3134 96.9742 14.5691 96.9771 15.0117C96.9869 16.2958 96.9771 17.5785 96.9771 18.8626C96.9771 19.3558 97.2201 19.6916 97.6795 19.7787C99.2426 20.0615 100.842 20.0748 102.41 19.818C102.98 19.7295 103.229 19.3544 103.204 18.7685C103.179 18.1826 103.194 17.5617 103.194 16.9505H103.198Z" fill="#050505"/>
<path d="M111.945 16.7184C112.693 16.7184 113.442 16.7352 114.193 16.7184C114.864 16.7001 115.195 16.391 115.157 15.6562C115.104 14.6292 115.157 13.598 115.136 12.5653C115.136 12.2155 115.205 12.0848 115.597 12.082C117.074 12.0666 117.074 12.0497 117.078 13.5277C117.078 14.3229 117.078 15.1191 117.078 15.9161C117.078 17.2214 116.391 18.1219 115.126 18.4661C114.969 18.5083 114.805 18.5237 114.646 18.5575C114.126 18.6657 113.394 18.4395 113.128 18.83C112.863 19.2206 113.053 19.8669 113.053 20.4036C113.053 21.8619 113.053 21.8423 111.605 21.8774C111.14 21.8886 110.98 21.7622 111.001 21.2943C111.035 20.5469 110.983 19.7952 111.028 19.0464C111.053 18.6038 110.917 18.4746 110.486 18.4942C109.693 18.5322 108.9 18.5603 108.162 18.1444C107.319 17.6681 106.826 17.0204 106.845 16.0075C106.867 14.8385 106.855 13.6682 106.845 12.4951C106.845 12.1466 106.912 12.0202 107.315 12.0342C108.732 12.0862 108.732 12.0652 108.732 13.4533C108.732 14.1557 108.732 14.8582 108.732 15.5607C108.732 16.4276 108.957 16.672 109.842 16.7437C110.191 16.7718 110.545 16.7633 110.895 16.7661C111.244 16.769 111.597 16.7661 111.948 16.7661L111.945 16.7184Z" fill="#050505"/>
<path d="M43.7951 12.0885C45.2001 12.0885 46.6051 12.1026 48.01 12.0801C48.409 12.0801 48.5256 12.1869 48.5327 12.5887C48.5565 14.033 48.572 14.0316 47.1165 14.0316C46.5081 14.0316 45.8984 14.0597 45.29 14.0316C44.8531 14.0063 44.7407 14.1538 44.7449 14.5837C44.7674 16.8035 44.7449 19.0234 44.7716 21.2418C44.7786 21.7406 44.6494 21.8839 44.152 21.8769C42.7161 21.8544 42.7147 21.8769 42.7147 20.4564C42.7147 18.5176 42.6965 16.5774 42.7274 14.6385C42.7358 14.1369 42.5869 14.0063 42.105 14.0288C41.2184 14.0695 40.3291 14.0288 39.4356 14.0498C39.0337 14.0611 38.9241 13.9262 38.9298 13.5244C38.9494 12.0997 38.9298 12.0997 40.3572 12.0997H43.7951V12.0885Z" fill="#050505"/>
<path d="M62.4277 16.9721C62.4277 15.5222 62.4417 14.0723 62.4178 12.6167C62.4108 12.1826 62.5386 12.0688 62.9798 12.0744C64.4929 12.0913 64.4929 12.0744 64.4901 13.6199C64.4901 15.5138 64.5112 17.4133 64.4705 19.3029C64.4578 19.8649 64.6601 19.959 65.1547 19.9464C66.3939 19.9127 67.6344 19.9464 68.875 19.9183C69.2642 19.9099 69.3906 20.0082 69.4019 20.4171C69.4412 21.8571 69.4595 21.8557 68.0391 21.8557C66.3531 21.8557 64.6672 21.8459 62.9812 21.8726C62.5499 21.8796 62.4192 21.7574 62.4192 21.3219C62.4445 19.8733 62.4291 18.422 62.4291 16.9665L62.4277 16.9721Z" fill="#050505"/>
<path d="M26.3019 17.9699C26.3581 18.3759 26.9608 18.3759 26.7796 18.7412C26.6391 19.0222 26.2387 18.9421 25.9366 18.9814C25.761 19.0053 25.5615 18.9913 25.4378 19.1669C26.1249 20.0885 26.1305 20.1082 24.984 20.3709C24.5373 20.4735 24.4698 20.7685 24.408 21.1296C24.1523 22.6245 23.9444 24.1208 24.2956 25.6438C23.8348 25.6438 23.5622 25.322 23.1618 25.2602C23.1618 25.5791 23.1407 25.8573 23.1618 26.1313C23.1997 26.5218 23.3374 26.9574 22.6701 26.5668C22.4579 26.4432 22.3624 26.6876 22.2486 26.8295C19.7969 29.7968 15.4528 29.8123 13.0601 26.8295C12.6653 26.3392 12.4251 26.7747 12.0767 26.8141C12.0163 26.2928 12.3043 25.7997 12.1132 25.2925C11.7142 25.263 11.4908 25.721 10.9977 25.6367C11.1382 24.6055 11.266 23.563 11.0792 22.5205C11.0004 22.1551 10.9464 21.7847 10.9176 21.412C10.8839 20.6379 10.4736 20.288 9.7318 20.2487C9.53791 20.2361 9.24849 20.3133 9.18948 20.0506C9.14171 19.8328 9.39039 19.7036 9.52527 19.5462C9.62783 19.4268 9.80626 19.3523 9.7908 19.1528C9.65031 18.9983 9.45783 19.0222 9.2808 18.9857C8.99981 18.928 8.59378 19.0334 8.47857 18.7047C8.36337 18.3759 8.86494 18.3534 8.9675 18.0148C8.75675 17.9614 8.54601 17.9165 8.33667 17.8533C7.3813 17.5638 6.75469 16.9302 6.57204 15.958C6.38378 14.9478 6.20113 13.9404 5.91312 12.9514C5.63213 12.0016 5.75857 11.0968 6.35147 10.2819C7.0708 9.29846 7.56676 9.17201 8.68229 9.65392C9.87229 10.1681 9.87089 10.1681 10.6296 9.0835C11.4657 7.88247 12.6847 7.00077 14.0872 6.58268C16.1119 5.9536 18.2679 5.87697 20.3322 6.36069C22.2992 6.79904 23.8165 7.91739 24.8548 9.64549C25.1358 10.1133 25.3676 10.2257 25.8944 9.95036C26.5843 9.58788 27.2994 9.00201 28.1424 9.68763C29.1258 10.4828 29.6878 11.4747 29.4068 12.749C29.1736 13.8196 28.9249 14.8846 28.7044 15.9594C28.4669 17.1999 27.572 17.8336 26.3019 17.9699ZM22.0182 23.3214C21.9901 23.289 21.9311 23.2399 21.9381 23.2258C22.6532 21.8757 22.1207 20.7447 21.282 19.6952C20.9925 19.3341 20.602 19.0517 20.2296 18.7117C20.7677 18.7018 20.8984 18.7328 21.5573 19.0053C22.434 19.3678 22.7572 19.2863 23.3557 18.5361C24.3054 17.3475 24.2619 15.122 23.2573 13.658C22.0013 11.8316 19.2237 11.6771 17.778 13.3771C17.497 13.703 17.4225 13.4726 17.2694 13.297C15.8363 11.6504 12.907 11.9187 11.7858 13.8168C11.1609 14.8466 10.9453 16.0735 11.1817 17.2547C11.2876 17.8564 11.5771 18.4105 12.0106 18.8409C12.4082 19.2399 12.8396 19.3833 13.403 19.1304C13.8568 18.928 14.3218 18.7089 14.881 18.6681C14.8262 18.7721 14.8093 18.8494 14.7601 18.8859C13.2639 20.0099 12.5333 21.4233 13.0461 23.32C12.9857 23.3832 12.8705 23.4492 12.8761 23.5068C12.9576 24.4818 13.0278 25.4555 13.6741 26.276C15.6059 28.7304 19.4176 28.7656 21.3269 26.29C21.983 25.44 22.3736 24.4453 22.0182 23.3214ZM6.56361 12.2671C7.05535 13.4333 7.10593 14.7806 7.4951 16.0451C7.6356 16.4876 8.01353 16.8108 8.45609 17.0145C8.70196 17.1269 8.97874 17.2182 9.13609 16.9316C9.27659 16.6731 8.98155 16.5818 8.83262 16.4638C8.49484 16.211 8.22774 15.8756 8.05699 15.4898C7.88623 15.104 7.81757 14.6808 7.85758 14.2608C7.86724 13.7476 7.97551 13.241 8.17651 12.7687C8.2889 12.5285 8.33808 12.3135 8.01494 12.2166C7.56395 12.0761 7.13965 11.8176 6.64229 11.9229C6.60436 11.9299 6.60014 12.0901 6.56361 12.2671ZM28.5133 12.2081C28.5245 11.8527 28.3728 11.7951 28.0749 11.9145C27.8152 12.0172 27.5479 12.0998 27.2755 12.1618C26.8723 12.2517 26.854 12.4428 26.9833 12.808C27.4582 14.213 27.5944 15.5604 26.1895 16.579C26.0602 16.6731 25.9085 16.8052 26.0167 16.9892C26.1319 17.1971 26.3454 17.1578 26.5154 17.0876C26.9777 16.8965 27.4455 16.6267 27.5973 16.1476C28.0047 14.8607 28.1058 13.4979 28.5119 12.2081H28.5133ZM25.3015 12.1702C25.3198 12.2742 25.2734 12.4385 25.4238 12.5172C25.5502 12.5847 25.6331 12.4666 25.7174 12.3964C26.3286 11.892 26.9411 11.3876 27.5439 10.8776C27.6619 10.7793 27.8389 10.6823 27.7139 10.4828C27.6706 10.4133 27.6095 10.3566 27.5368 10.3188C27.4641 10.2809 27.3826 10.2634 27.3008 10.2679C26.4719 10.2665 25.3282 11.3328 25.3001 12.1702H25.3015ZM9.63485 12.5313C9.91585 11.4073 8.81576 10.1302 7.76204 10.2566C7.66944 10.2593 7.57925 10.2868 7.5009 10.3362C7.42255 10.3856 7.35893 10.4552 7.31667 10.5376C7.25485 10.6781 7.38973 10.7385 7.47543 10.8074L9.63485 12.5313Z" fill="#050505"/>
<path d="M13.0462 23.3208C12.5334 21.4241 13.2639 20.0093 14.7602 18.8868C14.8094 18.8502 14.8263 18.773 14.881 18.669C14.3191 18.7027 13.8568 18.9289 13.403 19.1312C12.841 19.3841 12.4083 19.2408 12.0107 18.8418C11.5772 18.4114 11.2876 17.8573 11.1818 17.2556C10.9454 16.0744 11.161 14.8475 11.7859 13.8177C12.9099 11.9196 15.8378 11.6512 17.2765 13.2936C17.4296 13.4693 17.5097 13.6997 17.7851 13.3737C19.2266 11.6695 22 11.8184 23.2644 13.6547C24.269 15.1187 24.3125 17.3441 23.3628 18.5327C22.7643 19.2802 22.4411 19.3645 21.5644 19.002C20.9055 18.7294 20.7748 18.6985 20.2367 18.7083C20.6091 19.054 20.9996 19.3364 21.2891 19.6918C22.132 20.7413 22.6603 21.8723 21.9452 23.2225C21.9452 23.2365 21.9972 23.2857 22.0253 23.318H22.0379C21.7569 23.1677 21.6993 23.4669 21.5799 23.5807C20.4904 24.6203 19.0423 25.2003 17.5364 25.2003C16.0305 25.2003 14.5825 24.6203 13.4929 23.5807C13.3791 23.4698 13.3272 23.1593 13.0377 23.3236L13.0462 23.3208ZM20.6006 17.3034C20.9556 17.3322 21.3091 17.2325 21.5967 17.0224C21.9086 16.7681 22.1011 16.452 21.7372 16.0797C21.446 15.7876 21.0514 15.6222 20.6389 15.6193C20.2265 15.6164 19.8296 15.7763 19.5343 16.0642C18.9948 16.6262 19.0861 16.9479 19.8518 17.1432C20.1005 17.2079 20.352 17.25 20.6006 17.302V17.3034ZM14.4188 17.3188C14.7813 17.2402 15.1466 17.1685 15.5063 17.0828C15.9558 16.9746 15.9685 16.7021 15.7746 16.3494C15.3953 15.6596 14.4666 15.4362 13.6981 15.8549C13.4452 15.9954 13.1993 16.1654 13.2007 16.4773C13.2007 16.8145 13.4382 17.014 13.7332 17.1488C13.9544 17.2452 14.1907 17.3023 14.4315 17.3174L14.4188 17.3188ZM19.5511 19.7255C19.5315 19.6806 19.5244 19.6272 19.4935 19.5991C19.2743 19.3898 19.0102 19.2788 18.7503 19.4755C18.4482 19.7045 18.0773 19.9054 18.0717 20.3662C18.0749 20.3881 18.0835 20.4088 18.0967 20.4264C18.11 20.4441 18.1275 20.4582 18.1476 20.4674C18.4693 20.5165 18.7222 20.3269 18.9779 20.1864C19.1985 20.0698 19.4584 19.9897 19.5567 19.7241L19.5511 19.7255ZM16.1315 19.3602C15.9123 19.4221 15.6678 19.4445 15.5891 19.6511C15.502 19.8815 15.7479 19.963 15.8968 20.0473C16.1611 20.1905 16.4332 20.319 16.7117 20.4322C16.8887 20.5081 17.0896 20.4758 17.0124 20.244C16.9538 20.0341 16.8427 19.8427 16.6896 19.6878C16.5364 19.5329 16.3462 19.4197 16.1371 19.3588L16.1315 19.3602Z" fill="#1DB9E6"/>
<path d="M22.0183 23.3223C22.3709 24.4462 21.9804 25.4438 21.3242 26.2938C19.4149 28.7693 15.6032 28.7342 13.6714 26.2797C13.0251 25.4592 12.9549 24.4856 12.8734 23.5105C12.8734 23.4529 12.983 23.3869 13.0434 23.3237H13.0308C13.6883 24.8438 14.9387 25.5716 16.4827 25.92C18.7152 26.423 21.15 25.2878 22.0309 23.3237L22.0183 23.3223Z" fill="#1DB9E6"/>
<path d="M6.56372 12.2669C6.60165 12.0899 6.60587 11.9297 6.64239 11.9227C7.13975 11.8173 7.56405 12.0814 8.01504 12.2163C8.33818 12.3133 8.29603 12.5282 8.17661 12.7685C7.97562 13.2408 7.86734 13.7473 7.85768 14.2605C7.81767 14.6805 7.88633 15.1037 8.05709 15.4895C8.22784 15.8753 8.49494 16.2107 8.83273 16.4635C8.98165 16.5815 9.2781 16.6728 9.1362 16.9314C8.97884 17.2123 8.70206 17.1266 8.4562 17.0143C8.01363 16.8105 7.63149 16.4874 7.4952 16.0448C7.10463 14.7804 7.05405 13.433 6.56372 12.2669Z" fill="#1DB9E6"/>
<path d="M28.512 12.2089C28.1059 13.4986 28.0048 14.8614 27.5959 16.1428C27.4442 16.6219 26.9763 16.8916 26.5141 17.0827C26.3441 17.1529 26.1305 17.1923 26.0153 16.9843C25.9142 16.8003 26.0589 16.6682 26.1882 16.5741C27.5931 15.5555 27.4526 14.2025 26.982 12.8032C26.8555 12.4309 26.871 12.2412 27.2742 12.1569C27.5466 12.095 27.8138 12.0123 28.0736 11.9096C28.3771 11.8014 28.5232 11.8534 28.512 12.2089Z" fill="#1DB9E6"/>
<path d="M25.3002 12.1706C25.3283 11.3276 26.472 10.2669 27.3037 10.2683C27.3855 10.2638 27.467 10.2813 27.5397 10.3191C27.6124 10.357 27.6735 10.4136 27.7168 10.4832C27.8418 10.6827 27.6648 10.7797 27.5468 10.878C26.9398 11.388 26.3272 11.8924 25.7203 12.3968C25.636 12.467 25.5531 12.5851 25.4267 12.5176C25.2721 12.4389 25.3185 12.2746 25.3002 12.1706Z" fill="#1DB9E6"/>
<path d="M9.63493 12.5307L7.47551 10.8167C7.38981 10.7478 7.25493 10.6762 7.31675 10.5469C7.359 10.4645 7.42263 10.3949 7.50098 10.3455C7.57933 10.296 7.66952 10.2686 7.76212 10.2659C8.81163 10.1296 9.91311 11.4025 9.63493 12.5307Z" fill="#1DB9E6"/>
<path d="M22.0337 23.3216C21.1528 25.2885 18.718 26.4209 16.4855 25.9179C14.9401 25.5709 13.691 24.8417 13.0335 23.3216C13.3229 23.1558 13.3749 23.4621 13.4887 23.5787C14.5782 24.6183 16.0263 25.1983 17.5322 25.1983C19.0381 25.1983 20.4862 24.6183 21.5757 23.5787C21.6951 23.4621 21.7485 23.1642 22.0337 23.3216Z" fill="#050505"/>
<path d="M20.6006 17.303C20.3519 17.251 20.1005 17.2088 19.8546 17.147C19.0889 16.9517 18.9976 16.6328 19.5371 16.068C19.8324 15.7801 20.2293 15.6202 20.6417 15.6231C21.0542 15.626 21.4488 15.7914 21.74 16.0835C22.1011 16.4558 21.9086 16.7719 21.5996 17.0262C21.3106 17.2354 20.956 17.3337 20.6006 17.303Z" fill="#050505"/>
<path d="M14.4315 17.3171C14.1949 17.3001 13.963 17.2426 13.7459 17.1471C13.4508 17.0066 13.2148 16.8128 13.2134 16.4756C13.2134 16.1637 13.4579 15.9923 13.7108 15.8532C14.4793 15.4317 15.4079 15.6579 15.7873 16.3477C15.9812 16.7004 15.9685 16.9729 15.5189 17.0811C15.1522 17.1668 14.787 17.2385 14.4315 17.3171Z" fill="#050505"/>
<path d="M19.5568 19.724C19.4584 19.9895 19.1985 20.0696 18.9835 20.189C18.7278 20.3295 18.475 20.515 18.1532 20.47C18.1346 20.4601 18.1187 20.4459 18.1067 20.4285C18.0947 20.4112 18.0871 20.3912 18.0844 20.3703C18.0844 19.9095 18.4609 19.7085 18.763 19.4795C19.0229 19.2828 19.287 19.3938 19.5062 19.6032C19.5301 19.6257 19.5371 19.679 19.5568 19.724Z" fill="#050505"/>
<path d="M16.1371 19.3594C16.3471 19.4193 16.5383 19.5319 16.6925 19.6866C16.8467 19.8413 16.9588 20.0329 17.018 20.2431C17.0953 20.4749 16.8944 20.5072 16.7173 20.4314C16.4388 20.3182 16.1668 20.1897 15.9025 20.0464C15.7535 19.9621 15.5077 19.8806 15.5948 19.6502C15.6735 19.4437 15.9179 19.4212 16.1371 19.3594Z" fill="#050505"/>
</svg>
