<svg width="76" height="76" viewBox="0 0 76 76" fill="none" xmlns="http://www.w3.org/2000/svg">
<path fill-rule="evenodd" clip-rule="evenodd" d="M29.754 16.4905C29.0852 16.5219 28.2636 16.5521 27.9285 16.5578L27.319 16.568L27.0355 16.929C26.6785 17.3837 25.5537 18.8283 25.1271 19.38C24.5795 20.0884 23.3122 21.7231 22.952 22.1862C22.6039 22.6334 22.2509 23.0909 21.3638 24.244C21.0906 24.5993 20.8059 24.9564 20.7315 25.0373C20.657 25.1184 20.596 25.2168 20.596 25.2562C20.596 25.3687 19.8814 25.2322 19.266 25.0021C19.1824 24.971 18.9601 24.9033 18.772 24.852C18.5839 24.8007 18.3616 24.7329 18.278 24.7014C18.1944 24.6698 17.9037 24.5745 17.632 24.4893C15.8154 23.9209 15.3752 23.7765 15.2579 23.7105C15.1854 23.6695 15.064 23.636 14.9881 23.636C14.9123 23.636 14.8179 23.6089 14.7782 23.5756C14.7385 23.5424 14.5692 23.4717 14.402 23.4185C14.2348 23.3655 14.0296 23.2918 13.946 23.2549C13.8624 23.2179 13.6401 23.1377 13.452 23.0765C13.2639 23.0155 12.6996 22.8054 12.198 22.6097C11.6964 22.414 11.2347 22.2342 11.172 22.2101C10.6738 22.0186 12.4178 23.3569 13.528 24.0181C14.713 24.7238 18.1889 26.448 18.4268 26.448C18.601 26.448 19.2992 26.8512 19.2552 26.9265C19.1852 27.0456 18.5326 27.8998 18.4165 28.0243C18.3671 28.0769 18.2867 28.12 18.2377 28.12C18.0832 28.12 14.6923 26.9603 13.794 26.6002C13.7104 26.5668 13.5223 26.4982 13.376 26.448C13.2297 26.3979 13.033 26.3259 12.939 26.2884C12.8449 26.2508 12.691 26.1896 12.597 26.1526C12.0975 25.9554 10.9497 25.4963 10.735 25.4078C9.82736 25.0337 11.5997 26.4621 13.2318 27.4203C14.463 28.143 15.903 28.8911 16.853 29.3017C17.2792 29.486 17.2689 29.5331 16.625 30.3565C16.3219 30.7441 15.9885 31.1737 15.884 31.3113C15.716 31.5326 14.6832 32.856 14.284 33.3616C14.044 33.6656 13.9834 33.6359 15.466 33.9413C16.1259 34.0771 16.5235 34.1666 16.967 34.2795C17.1237 34.3194 17.3802 34.3847 17.537 34.4246C17.6937 34.4645 17.9588 34.5297 18.126 34.5694C18.8098 34.732 20.6091 35.2162 20.976 35.3362C21.0805 35.3704 21.3199 35.4411 21.508 35.4934C21.6961 35.5456 22.0381 35.6475 22.268 35.7197C22.4979 35.7919 22.9425 35.9289 23.256 36.024C23.5695 36.1192 24.0141 36.2577 24.244 36.3318C24.4739 36.4059 25.1579 36.6239 25.764 36.816C26.3701 37.0081 26.9255 37.1992 26.998 37.2406C27.0706 37.2822 27.1968 37.316 27.2785 37.316C27.3602 37.316 27.4482 37.3502 27.474 37.392C27.4998 37.4338 27.5977 37.468 27.6914 37.468C27.785 37.468 27.8941 37.4952 27.9338 37.5285C27.9735 37.5617 28.1428 37.6326 28.31 37.686C28.4772 37.7394 28.785 37.846 28.994 37.9231C29.203 38 29.6305 38.1543 29.944 38.2657C30.2575 38.377 30.5824 38.4963 30.666 38.5305C30.7496 38.5647 30.9377 38.6339 31.084 38.684C31.505 38.8286 31.7855 38.9396 32.3074 39.1684C32.4577 39.2343 32.8903 39.4062 33.2684 39.5506C33.6467 39.6948 34.1078 39.8822 34.2931 39.9665C34.4785 40.0511 34.8127 40.1921 35.036 40.28C35.2592 40.368 35.5813 40.5025 35.7519 40.5791C35.9223 40.6557 36.3185 40.8295 36.632 40.9656C38.715 41.8694 41.7166 43.3086 43.358 44.1904C43.7342 44.3926 44.2985 44.6949 44.612 44.8623C44.9255 45.0297 45.2728 45.2299 45.3838 45.3075C45.4947 45.3848 45.6066 45.448 45.6323 45.448C45.6581 45.448 45.8067 45.5288 45.9627 45.6274C46.3771 45.8896 46.9857 46.2377 47.1411 46.3013C47.2524 46.3469 47.4354 46.1153 48.191 44.9713C48.6943 44.2094 49.1505 43.5309 49.2051 43.4637C49.2596 43.3964 49.3172 43.3094 49.3331 43.2701C49.3694 43.1808 52.9691 37.7589 53.0545 37.6653C53.0888 37.6275 54.0677 37.591 55.2296 37.5841C57.8822 37.5684 58.9249 37.5019 60.762 37.2309C62.1668 37.0236 63.3882 36.6735 64.3555 36.2002C64.9063 35.9308 64.9942 35.9422 62.119 35.91C57.9585 35.8633 54.568 35.6383 54.568 35.4086C54.568 35.3195 55.5499 33.882 55.6652 33.8022C55.7097 33.7714 56.1564 33.7456 56.658 33.7444C58.5373 33.7404 61.0766 33.4847 62.624 33.1436C62.8121 33.1022 63.0686 33.0467 63.194 33.0203C63.3194 32.9941 63.4904 32.9449 63.574 32.9109C63.6576 32.8771 63.8799 32.8035 64.068 32.7477C64.4446 32.6358 65.3144 32.2256 65.5441 32.0515C65.6727 31.9541 65.4088 31.9455 63.3401 31.9799C60.8855 32.0206 57 31.8805 57 31.7515C57 31.6917 60.0643 27.0065 60.245 26.79C60.28 26.7482 60.432 26.5259 60.5826 26.296C60.7333 26.0661 61.639 24.6981 62.5951 23.256C63.5512 21.8139 64.3429 20.5998 64.3547 20.558C64.3764 20.4801 63.8691 20.292 63.6376 20.292C63.5668 20.292 63.4038 20.259 63.2753 20.2185C63.1471 20.178 62.7513 20.077 62.396 19.9939C61.1513 19.7029 59.2331 19.2626 58.406 19.0783C58.2388 19.0411 57.9395 18.974 57.741 18.9294C57.5424 18.8847 57.2346 18.8163 57.057 18.7774C56.8793 18.7384 56.5801 18.6729 56.392 18.6314C56.2039 18.5902 55.8448 18.5165 55.594 18.4679C55.3432 18.419 55.0696 18.3643 54.986 18.3461C54.8517 18.3166 53.4747 18.0666 52.288 17.8561C51.8844 17.7844 51.4328 17.7113 50.388 17.5483C49.9134 17.4742 49.4477 17.4192 47.88 17.2524C47.4829 17.2102 46.8502 17.1424 46.474 17.1018C46.0978 17.0611 45.448 16.9919 45.03 16.948C44.612 16.9042 43.9622 16.8346 43.586 16.7938C41.0472 16.5173 32.9618 16.34 29.754 16.4905ZM40.584 19.3721C41.1901 19.4123 42.028 19.4809 42.446 19.5244C42.864 19.568 43.548 19.6371 43.966 19.6783C47.1297 19.9894 48.1154 20.1171 49.932 20.452C50.9306 20.6361 51.2035 20.688 51.49 20.748C51.6572 20.783 51.9992 20.8514 52.25 20.9C52.5008 20.9487 52.8428 21.019 53.01 21.0564C53.1772 21.0938 53.9638 21.2662 54.758 21.4391C56.3073 21.7765 56.5275 21.8253 57.114 21.961C57.323 22.0093 57.6308 22.0765 57.798 22.1102C58.1862 22.1886 58.368 22.2661 58.368 22.3534C58.368 22.4149 56.6517 24.986 56.548 25.08C56.4916 25.1312 56.4634 25.1718 54.2972 28.348C51.988 31.734 52.19 31.4897 51.7562 31.4234C51.5681 31.3947 51.1062 31.34 50.73 31.3018C49.2961 31.1561 46.3655 30.7884 44.84 30.5631C43.0168 30.2935 42.549 30.2224 41.496 30.055C40.2524 29.8572 39.6891 29.7565 39.1579 29.637C38.9796 29.5969 38.7442 29.564 38.6348 29.564C38.5252 29.564 38.312 29.5323 38.1607 29.4934C38.0097 29.4546 37.6893 29.3862 37.449 29.3414C36.4346 29.1525 32.5331 28.376 32.034 28.2637C31.7019 28.1888 31.176 28.0775 30.818 28.0062C30.6926 27.9813 30.4703 27.9304 30.324 27.8932C30.1777 27.8561 29.9041 27.7906 29.716 27.7478C28.3999 27.4482 25.3876 26.7201 24.966 26.5995C24.8406 26.5638 24.5841 26.4916 24.396 26.4391C24.2079 26.3867 24.0416 26.335 24.0266 26.3244C23.9755 26.2877 25.3507 24.5382 27.0659 22.458C27.1348 22.3744 27.4246 22.0153 27.7098 21.66C27.995 21.3047 28.2636 20.974 28.3071 20.9249C28.3505 20.8761 28.6425 20.5111 28.956 20.1142L29.526 19.3926L30.172 19.3445C30.5273 19.3183 30.9035 19.2849 31.008 19.2704C31.4036 19.2159 39.5308 19.3021 40.584 19.3721ZM40.09 20.5959C36.9647 20.974 34.743 24.8376 36.2661 27.2464C37.7539 29.5998 41.9499 28.6348 43.3728 25.612C44.7159 22.759 43.0648 20.2362 40.09 20.5959ZM23.7753 28.4136C24.844 28.7678 26.5253 29.2713 28.12 29.7145C28.3081 29.767 28.5475 29.8359 28.652 29.868C28.8291 29.9224 28.9484 29.9543 29.754 30.1618C30.6204 30.385 31.3462 30.5627 31.996 30.7101C32.3931 30.8004 32.8377 30.9028 32.984 30.9377C33.5886 31.082 33.9534 31.165 34.295 31.2364C34.4935 31.278 34.8184 31.3461 35.017 31.3877C35.2155 31.4291 35.5319 31.4979 35.72 31.5404C35.9081 31.583 36.2501 31.6516 36.48 31.6928C36.7099 31.7342 37.069 31.8007 37.278 31.8408C37.8742 31.9552 39.8141 32.3021 40.318 32.3842C41.565 32.5879 43.3033 32.8469 44.08 32.9449C44.2681 32.9687 44.6443 33.02 44.916 33.0589C45.1877 33.0979 45.7691 33.1668 46.208 33.212C46.6469 33.2575 47.2967 33.3266 47.652 33.3656C48.0073 33.4047 48.8024 33.4773 49.419 33.5267C50.7315 33.6321 50.7028 33.5983 50.1488 34.3919C49.6915 35.0469 49.7074 35.0378 49.1695 34.9542C48.9409 34.9186 48.2239 34.8172 47.576 34.7288C45.504 34.4459 43.6073 34.1533 42.218 33.9017C42.009 33.8639 41.6328 33.7976 41.382 33.7543C41.1312 33.711 40.7379 33.6416 40.508 33.6002C40.2781 33.5586 39.7822 33.4699 39.406 33.4028C38.8071 33.296 37.8273 33.1083 36.404 32.8273C36.1741 32.7819 35.8663 32.7148 35.72 32.6783C35.5737 32.6419 35.3343 32.5896 35.188 32.5622C35.0417 32.5349 34.7852 32.4815 34.618 32.4439C34.4508 32.4061 34.143 32.3396 33.934 32.2962C32.6977 32.0397 31.5757 31.7832 29.26 31.2279C28.1318 30.9573 28.1595 30.9643 27.436 30.7696C27.1225 30.685 26.7463 30.5878 26.6 30.5534C26.4537 30.519 26.1288 30.4344 25.878 30.3658C25.1032 30.1534 23.682 29.7749 23.522 29.7383C23.4384 29.7191 23.3016 29.676 23.218 29.6423C23.1344 29.6089 22.9121 29.5397 22.724 29.4888C22.5359 29.4379 22.3035 29.3655 22.2074 29.3281C22.1114 29.2906 21.9661 29.26 21.8844 29.26C21.5946 29.26 21.7079 29.0366 22.3752 28.291C22.6431 27.9918 22.4531 27.9753 23.7753 28.4136ZM20.9 30.9687C21.0881 31.04 21.3104 31.127 21.394 31.1621C21.4776 31.1973 21.7683 31.2989 22.04 31.388C22.3117 31.4772 22.6024 31.5805 22.686 31.6178C22.8572 31.6941 23.5019 31.9048 25.004 32.3749C25.5683 32.5514 26.0984 32.7226 26.182 32.7553C26.2656 32.788 26.4879 32.8567 26.676 32.9082C26.8641 32.9595 27.1035 33.0283 27.208 33.061C27.7379 33.2263 28.537 33.4539 29.184 33.6236C29.5811 33.7277 30.0941 33.8643 30.324 33.927C30.5539 33.9897 30.8275 34.0615 30.932 34.0868C31.0365 34.1119 31.2588 34.1676 31.426 34.2105C31.5932 34.2534 31.8582 34.3199 32.015 34.3583C32.1717 34.3967 32.4282 34.4602 32.585 34.4993C32.7417 34.5384 33.0239 34.6049 33.212 34.6471C33.4001 34.6893 33.8447 34.7927 34.2 34.8768C34.5553 34.961 35.2735 35.1177 35.796 35.2253C36.3185 35.3326 36.8828 35.451 37.05 35.4881C37.2172 35.5253 37.5506 35.5927 37.791 35.638C38.0313 35.683 38.4246 35.7571 38.665 35.8021C38.9053 35.8473 39.2388 35.9142 39.406 35.9505C39.5732 35.987 39.8297 36.0354 39.976 36.0581C40.1223 36.0809 40.4643 36.1365 40.736 36.1817C42.0118 36.3945 44.8759 36.8105 45.942 36.9381C47.7742 37.1572 48.0702 37.2108 48.0611 37.3217C48.0508 37.4462 45.4102 41.3385 45.2487 41.4672C45.1149 41.5738 45.1244 41.5779 42.5608 40.308C40.5773 39.3253 39.7761 38.94 39.026 38.608C38.817 38.5155 38.426 38.339 38.1573 38.2161C37.8885 38.093 37.3755 37.8714 37.0173 37.7236C36.659 37.576 36.2463 37.4033 36.1 37.3398C35.9537 37.2763 35.7656 37.1984 35.682 37.1665C35.5984 37.1346 35.4359 37.0696 35.321 37.0223C35.206 36.9748 35.035 36.9043 34.941 36.8656C34.4878 36.6786 32.6785 35.9969 32.376 35.899C32.1879 35.8382 31.9656 35.7577 31.882 35.72C31.669 35.6245 28.9296 34.7193 27.968 34.4271C27.5291 34.2935 27.1016 34.1565 27.018 34.1225C26.9344 34.0885 26.7805 34.0385 26.676 34.0112C26.4917 33.9633 26.2569 33.897 25.745 33.7484C25.0152 33.5364 23.5733 33.1499 23.028 33.0201C22.3875 32.8676 21.9822 32.7629 21.6927 32.6749C21.5642 32.636 21.3957 32.604 21.318 32.604C21.2403 32.604 21.0718 32.5719 20.9433 32.5326C20.8151 32.4933 20.5048 32.422 20.254 32.374C20.0032 32.3261 19.7195 32.2715 19.6238 32.2531C19.315 32.1935 19.3543 32.0202 19.8064 31.4492C20.2846 30.845 20.3672 30.7669 20.482 30.8104C20.5238 30.8264 20.7119 30.8977 20.9 30.9687ZM34.3174 51.6848C31.5788 52.372 30.9404 56.5762 33.326 58.214C34.1789 58.7995 35.723 58.9407 36.574 58.5107C36.8191 58.3869 37.0173 58.4429 37.3177 58.7207C37.9135 59.2721 37.9052 59.2706 38.2386 58.8923L38.5331 58.5581L38.1526 58.2001C37.7235 57.7963 37.711 57.7551 37.9268 57.4521C39.2114 55.648 38.6004 52.8081 36.734 51.9079C36.1674 51.6346 34.9608 51.5233 34.3174 51.6848ZM10.1238 52.3451L10.146 52.9341L11.153 52.9553L12.16 52.9764V55.7863V58.5961H12.881H13.6021L13.622 55.8031L13.642 53.0101L14.687 52.989L15.732 52.9677V52.362V51.7561H12.9168H10.1015L10.1238 52.3451ZM17.4532 52.2871C17.0115 52.9513 17.0128 52.9724 17.499 52.9705C17.8919 52.9692 17.9079 52.9599 18.544 52.3656L19.19 51.7621L18.4982 51.7591L17.8062 51.7561L17.4532 52.2871ZM20.824 55.176V58.5961H21.47H22.116V55.176V51.7561H21.47H20.824V55.176ZM25.0063 52.3226C24.5408 53.0125 24.5404 52.972 25.012 52.972C25.4347 52.972 25.4748 52.9474 26.3177 52.1644L26.7575 51.7561H26.0731H25.3886L25.0063 52.3226ZM46.8599 52.2457C46.3456 52.9664 46.3454 52.9724 46.8268 52.9703C47.2631 52.9684 47.2163 52.9979 48.165 52.1258C48.5819 51.7426 48.5934 51.7561 47.8486 51.7561H47.2093L46.8599 52.2457ZM50.1347 51.8068C50.1068 51.8345 50.084 53.3735 50.084 55.2268V58.5961H50.73H51.376V58.3301C51.376 58.0057 51.3912 58.0044 51.7423 58.2993C52.9051 59.2755 54.5708 58.6394 54.9917 57.0582C55.6734 54.4972 53.5633 52.571 51.6903 54.0442C51.4037 54.2697 51.376 54.1713 51.376 52.9295V51.7561H50.7807C50.4532 51.7561 50.1625 51.7789 50.1347 51.8068ZM36.1049 52.9911C36.4329 53.1645 36.9307 53.7486 36.9341 53.9638C36.9352 54.0286 36.977 54.1227 37.027 54.1727C37.2066 54.3522 37.1444 55.9934 36.9421 56.411C36.7395 56.8292 36.6759 56.8461 36.3654 56.5627C35.8978 56.1357 35.929 56.1382 35.576 56.4979L35.2524 56.8275L35.5422 57.1009C35.9121 57.45 35.8268 57.5583 35.1863 57.5522C32.6312 57.5283 32.6445 52.8484 35.1998 52.8254C35.6636 52.8212 35.8471 52.8548 36.1049 52.9911ZM17.328 53.5825C15.2595 53.7832 14.4493 56.7033 16.0577 58.1619C17.2189 59.2153 19.7087 58.6874 19.9255 57.342C19.9682 57.0764 18.9688 57.0747 18.76 57.34C18.2685 57.9649 17.0563 57.8936 16.7065 57.2195C16.2805 56.3989 16.2902 56.3945 18.487 56.393L20.14 56.392V56.1745C20.14 54.4674 19.0036 53.4201 17.328 53.5825ZM24.928 53.563C24.6094 53.5823 24.5071 53.6131 24.0225 53.8373C22.9298 54.3423 22.4384 56.1363 23.0417 57.4181C23.8328 59.099 26.5424 59.2105 27.3661 57.5961C27.4463 57.4388 27.512 57.2746 27.512 57.2311C27.512 57.1055 26.4687 57.1296 26.3948 57.2567C25.8881 58.13 24.2966 57.8347 24.1281 56.8365C24.0538 56.397 24.0643 56.3945 25.973 56.3932L27.664 56.392V56.0096C27.664 54.7166 26.7623 53.6422 25.612 53.565C25.4239 53.5523 25.1161 53.5514 24.928 53.563ZM46.74 53.563C46.5519 53.5744 46.3125 53.6217 46.208 53.668C46.1035 53.7144 45.9329 53.7906 45.8286 53.8373C45.7244 53.8839 45.494 54.0703 45.3161 54.2515C45.0175 54.5561 44.938 54.6876 44.6986 55.2747C44.5825 55.5593 44.5903 56.7413 44.7104 57.0861C45.2105 58.5214 46.8093 59.1423 48.298 58.4796C48.6617 58.3177 49.324 57.5389 49.324 57.2733C49.324 57.0808 48.306 57.0987 48.1694 57.2936C47.5769 58.1385 46.091 57.8182 45.9274 56.8104C45.8612 56.4035 45.9006 56.3945 47.785 56.3932L49.476 56.392V55.9984C49.476 55.0917 48.6596 53.732 48.115 53.732C48.0443 53.732 47.9539 53.7018 47.9142 53.665C47.8291 53.5859 47.2245 53.5333 46.74 53.563ZM57.684 53.5825C55.753 53.7699 54.8667 56.4504 56.2244 57.9968C56.879 58.7422 58.2407 58.9652 59.2646 58.4948C59.6927 58.2981 60.344 57.5294 60.344 57.2208C60.344 57.0394 59.3102 57.1481 59.1223 57.3493C58.5143 58 57.4055 57.8917 57.0232 57.1441C56.642 56.3991 56.6532 56.3945 58.843 56.393L60.496 56.392V56.0778C60.496 54.4687 59.3188 53.4241 57.684 53.5825ZM63.042 53.5833C61.4872 53.7725 60.5864 55.4193 61.1173 57.1015C61.7627 59.1463 64.7328 59.3543 65.637 57.4181C65.9271 56.7969 65.911 56.772 65.2209 56.772H64.626L64.4799 57.0933C63.9215 58.3226 62.4184 57.8317 62.2675 56.3708C62.106 54.8063 63.7651 53.7613 64.4233 55.013L64.5688 55.2901L65.1924 55.3121C65.87 55.336 65.8667 55.3389 65.7064 54.8844C65.36 53.9027 64.3739 53.4212 63.042 53.5833ZM39.3201 53.7683C39.1909 54.105 39.337 57.4925 39.4959 57.8442C39.9439 58.8368 41.3983 59.0595 42.2959 58.2731C42.7002 57.9189 42.712 57.9195 42.712 58.292V58.5961H43.32C43.8767 58.5961 43.9282 58.5833 43.9299 58.4441C43.9308 58.3605 43.9316 57.6594 43.9316 56.8861C43.9316 56.1128 43.9308 55.0683 43.9299 54.565L43.928 53.65L43.301 53.672L42.674 53.6941L42.6354 55.3661C42.6096 56.4886 42.5661 57.0924 42.503 57.2032C42.2581 57.6333 41.708 57.8418 41.2323 57.6848C40.7311 57.5193 40.7026 57.408 40.66 55.4457L40.622 53.6941L39.9939 53.672C39.4809 53.654 39.3572 53.6716 39.3201 53.7683ZM18.2364 54.6252C18.5068 54.762 18.9027 55.4059 18.8094 55.5568C18.7275 55.6894 16.5716 55.6537 16.5199 55.519C16.2891 54.9176 17.5341 54.2694 18.2364 54.6252ZM25.9029 54.6535C26.1062 54.7805 26.4051 55.3604 26.3462 55.5139C26.3 55.6343 24.427 55.6974 24.1422 55.5882C23.882 55.4884 24.4294 54.6243 24.8062 54.5399C25.0728 54.4803 25.7355 54.5489 25.9029 54.6535ZM47.8526 54.8325C48.078 55.0907 48.2132 55.4472 48.1346 55.5747C48.115 55.6062 47.6007 55.632 46.9916 55.632H45.884L45.9293 55.3535C45.9792 55.0463 46.3588 54.5981 46.6182 54.5399C47.0979 54.4326 47.6096 54.5538 47.8526 54.8325ZM53.0961 54.6159C53.9784 55.0347 54.0489 57.0149 53.2019 57.5891C52.3057 58.1965 51.3412 57.3736 51.394 56.0466C51.4417 54.847 52.2143 54.1976 53.0961 54.6159ZM58.7128 54.6769C58.9274 54.8175 59.2431 55.4314 59.1654 55.557C59.1383 55.6009 58.6619 55.632 58.0192 55.632C56.756 55.632 56.7137 55.6085 57.0239 55.0792C57.1972 54.7835 57.3469 54.6606 57.684 54.5375C57.8949 54.4605 58.5095 54.5437 58.7128 54.6769ZM28.2876 55.9931L28.31 56.5061H29.716H31.122L31.1444 55.9931L31.167 55.48H29.716H28.265L28.2876 55.9931Z" fill="#F8F9FA"/>
<path fill-rule="evenodd" clip-rule="evenodd" d="M0 38V76H38H76V38V0H38H0V38ZM41.116 16.6037C42.0983 16.6672 43.2098 16.7527 43.586 16.7937C43.9622 16.8346 44.612 16.9041 45.03 16.948C45.448 16.9919 46.0978 17.0611 46.474 17.1017C46.8502 17.1424 47.4829 17.2102 47.88 17.2524C49.4477 17.4192 49.9134 17.4741 50.388 17.5482C51.4328 17.7112 51.8844 17.7844 52.288 17.856C53.4747 18.0665 54.8517 18.3166 54.986 18.346C55.0696 18.3643 55.3432 18.419 55.594 18.4678C55.8448 18.5164 56.2039 18.5902 56.392 18.6314C56.5801 18.6728 56.8793 18.7384 57.057 18.7773C57.2346 18.8163 57.5424 18.8847 57.741 18.9293C57.9395 18.974 58.2388 19.041 58.406 19.0783C59.2331 19.2626 61.1513 19.7028 62.396 19.9939C62.7513 20.0769 63.1471 20.178 63.2753 20.2185C63.4038 20.2589 63.5668 20.292 63.6376 20.292C63.8691 20.292 64.3764 20.4801 64.3547 20.558C64.3429 20.5998 63.5512 21.8139 62.5951 23.256C61.639 24.6981 60.7333 26.0661 60.5826 26.296C60.432 26.5259 60.28 26.7482 60.245 26.79C60.0643 27.0064 57 31.6916 57 31.7515C57 31.8805 60.8855 32.0205 63.3401 31.9799C65.4088 31.9455 65.6727 31.954 65.5441 32.0515C65.3144 32.2255 64.4446 32.6357 64.068 32.7476C63.8799 32.8035 63.6576 32.877 63.574 32.9109C63.4904 32.9449 63.3194 32.9941 63.194 33.0203C63.0686 33.0467 62.8121 33.1022 62.624 33.1436C61.0766 33.4846 58.5373 33.7404 56.658 33.7444C55.5798 33.7467 55.7091 33.6769 55.0762 34.5961C54.3696 35.6225 54.3206 35.5551 55.8444 35.6531C58.8717 35.8479 59.7366 35.8832 62.119 35.91C64.9942 35.9421 64.9063 35.9307 64.3555 36.2001C63.3882 36.6734 62.1669 37.0236 60.762 37.2309C58.9249 37.5018 57.8822 37.5683 55.2296 37.5841C54.0677 37.5909 53.0889 37.6274 53.0545 37.6652C52.9692 37.7589 49.3694 43.1807 49.3331 43.27C49.3172 43.3094 49.2596 43.3964 49.2051 43.4636C49.1505 43.5309 48.6943 44.2094 48.191 44.9713C47.4354 46.1153 47.2524 46.3469 47.1411 46.3013C46.9857 46.2376 46.3771 45.8896 45.9627 45.6274C45.8067 45.5287 45.6581 45.448 45.6323 45.448C45.6066 45.448 45.4947 45.3847 45.3838 45.3074C45.2728 45.2299 44.9255 45.0296 44.612 44.8622C44.2985 44.6948 43.7342 44.3925 43.358 44.1904C41.7166 43.3086 38.715 41.8694 36.632 40.9655C36.3185 40.8295 35.9223 40.6556 35.7519 40.5791C35.5813 40.5025 35.2592 40.368 35.036 40.28C34.8127 40.192 34.4785 40.0511 34.2931 39.9665C34.1078 39.8821 33.6467 39.6948 33.2684 39.5506C32.8903 39.4062 32.4577 39.2342 32.3074 39.1683C31.7855 38.9395 31.505 38.8286 31.084 38.684C30.9377 38.6338 30.7496 38.5647 30.666 38.5305C30.5824 38.4963 30.2575 38.377 29.944 38.2656C29.6305 38.1543 29.203 38 28.994 37.923C28.785 37.8459 28.4772 37.7393 28.31 37.6859C28.1428 37.6325 27.9735 37.5617 27.9338 37.5284C27.8941 37.4952 27.785 37.468 27.6914 37.468C27.5977 37.468 27.4998 37.4338 27.474 37.392C27.4482 37.3502 27.3602 37.316 27.2785 37.316C27.1968 37.316 27.0706 37.2822 26.9981 37.2406C26.9255 37.1992 26.3701 37.008 25.764 36.8159C25.1579 36.6238 24.4739 36.4059 24.244 36.3318C24.0141 36.2577 23.5695 36.1192 23.256 36.024C22.9425 35.9288 22.4979 35.7918 22.268 35.7196C22.0381 35.6474 21.6961 35.5456 21.508 35.4933C21.3199 35.4411 21.0805 35.3704 20.976 35.3362C20.6091 35.2161 18.8098 34.732 18.126 34.5694C17.9588 34.5296 17.6938 34.4645 17.537 34.4246C17.3803 34.3847 17.1238 34.3193 16.967 34.2794C16.5235 34.1666 16.1259 34.0771 15.466 33.9412C13.9834 33.6359 14.044 33.6655 14.284 33.3615C14.6832 32.8559 15.716 31.5326 15.884 31.3112C15.9885 31.1737 16.3219 30.7441 16.625 30.3565C17.2689 29.533 17.2792 29.4859 16.853 29.3016C15.903 28.891 14.463 28.143 13.2318 27.4202C11.5997 26.4621 9.82737 25.0336 10.735 25.4078C10.9497 25.4963 12.0975 25.9553 12.597 26.1525C12.6911 26.1896 12.8449 26.2508 12.939 26.2884C13.033 26.3258 13.2297 26.3978 13.376 26.448C13.5223 26.4982 13.7104 26.5668 13.794 26.6002C14.6923 26.9602 18.0833 28.12 18.2377 28.12C18.2867 28.12 18.3671 28.0769 18.4165 28.0242C18.5326 27.8998 19.1852 27.0455 19.2552 26.9264C19.2992 26.8512 18.601 26.448 18.4268 26.448C18.1889 26.448 14.713 24.7238 13.528 24.0181C12.4178 23.3569 10.6738 22.0185 11.172 22.21C11.2347 22.2342 11.6964 22.4139 12.198 22.6096C12.6996 22.8053 13.2639 23.0155 13.452 23.0765C13.6401 23.1376 13.8624 23.2178 13.946 23.2549C14.0296 23.2917 14.2348 23.3654 14.402 23.4184C14.5692 23.4716 14.7385 23.5423 14.7782 23.5756C14.8179 23.6088 14.9123 23.636 14.9882 23.636C15.064 23.636 15.1854 23.6694 15.2579 23.7105C15.3752 23.7764 15.8154 23.9208 17.632 24.4893C17.9037 24.5744 18.1944 24.6698 18.278 24.7013C18.3616 24.7329 18.5839 24.8007 18.772 24.852C18.9601 24.9033 19.1824 24.9709 19.266 25.0021C19.8814 25.2322 20.596 25.3686 20.596 25.2561C20.596 25.2168 20.657 25.1184 20.7315 25.0372C20.806 24.9563 21.0906 24.5993 21.3638 24.244C22.2509 23.0909 22.6039 22.6334 22.952 22.1861C23.3122 21.7231 24.5795 20.0883 25.1271 19.38C25.5537 18.8282 26.6785 17.3837 27.0355 16.929L27.319 16.568L27.9285 16.5577C28.2636 16.552 29.0852 16.5218 29.754 16.4905C31.6964 16.3993 39.0957 16.4732 41.116 16.6037ZM31.008 19.2704C30.9035 19.2848 30.5273 19.3183 30.172 19.3445L29.526 19.3925L28.956 20.1142C28.6425 20.5111 28.3505 20.8761 28.3071 20.9249C28.2636 20.9739 27.995 21.3047 27.7098 21.66C27.4246 22.0153 27.1348 22.3744 27.0659 22.458C25.3507 24.5381 23.9755 26.2876 24.0266 26.3243C24.0417 26.3349 24.2079 26.3866 24.396 26.4391C24.5841 26.4915 24.8406 26.5637 24.966 26.5994C25.3876 26.7201 28.3999 27.4482 29.716 27.7478C29.9041 27.7905 30.1777 27.8561 30.324 27.8931C30.4703 27.9304 30.6926 27.9813 30.818 28.0062C31.176 28.0774 31.7019 28.1888 32.034 28.2636C32.5331 28.3759 36.4346 29.1525 37.449 29.3413C37.6894 29.3862 38.0097 29.4546 38.1607 29.4933C38.312 29.5323 38.5252 29.564 38.6348 29.564C38.7442 29.564 38.9796 29.5969 39.1579 29.637C39.6891 29.7565 40.2524 29.8572 41.496 30.055C42.549 30.2224 43.0168 30.2934 44.84 30.563C46.3655 30.7884 49.2961 31.156 50.73 31.3017C51.1062 31.3399 51.5681 31.3946 51.7562 31.4233C52.19 31.4897 51.988 31.734 54.2972 28.348C56.4634 25.1718 56.4916 25.1311 56.548 25.08C56.6517 24.986 58.368 22.4149 58.368 22.3533C58.368 22.2661 58.1862 22.1886 57.798 22.1101C57.6308 22.0765 57.323 22.0092 57.114 21.961C56.5275 21.8253 56.3073 21.7765 54.758 21.439C53.9638 21.2661 53.1772 21.0938 53.01 21.0564C52.8428 21.0189 52.5008 20.9486 52.25 20.9C51.9992 20.8514 51.6572 20.783 51.49 20.748C51.2035 20.688 50.9306 20.6361 49.932 20.452C48.1154 20.117 47.1297 19.9893 43.966 19.6783C43.548 19.6371 42.864 19.5679 42.446 19.5244C40.7706 19.35 39.3023 19.2977 35.34 19.2715C33.0619 19.2565 31.1125 19.2559 31.008 19.2704ZM41.8355 20.7239C44.2502 21.5658 44.5381 24.7688 42.3979 26.9844C40.4679 28.9828 37.4454 29.112 36.2661 27.2464C34.332 24.1879 38.3329 19.5026 41.8355 20.7239ZM22.3752 28.291C21.7079 29.0366 21.5946 29.26 21.8844 29.26C21.9661 29.26 22.1114 29.2906 22.2074 29.328C22.3035 29.3654 22.5359 29.4378 22.724 29.4888C22.9121 29.5397 23.1344 29.6088 23.218 29.6423C23.3016 29.6759 23.4384 29.719 23.522 29.7382C23.682 29.7749 25.1032 30.1534 25.878 30.3658C26.1288 30.4344 26.4537 30.5189 26.6 30.5533C26.7463 30.5877 27.1225 30.685 27.436 30.7696C28.1595 30.9643 28.1318 30.9573 29.26 31.2278C31.5757 31.7832 32.6977 32.0397 33.934 32.2962C34.143 32.3395 34.4508 32.406 34.618 32.4438C34.7852 32.4814 35.0417 32.5348 35.188 32.5622C35.3343 32.5896 35.5737 32.6418 35.72 32.6783C35.8663 32.7148 36.1741 32.7818 36.404 32.8272C37.8273 33.1083 38.8071 33.296 39.406 33.4028C39.7822 33.4698 40.2781 33.5586 40.508 33.6002C40.7379 33.6416 41.1312 33.7109 41.382 33.7543C41.6328 33.7976 42.009 33.8639 42.218 33.9017C43.6073 34.1533 45.504 34.4459 47.576 34.7288C48.2239 34.8171 48.941 34.9186 49.1695 34.9541C49.7074 35.0377 49.6915 35.0468 50.1488 34.3919C50.7028 33.5983 50.7315 33.6321 49.419 33.5266C48.8025 33.4772 48.0073 33.4047 47.652 33.3655C47.2967 33.3266 46.6469 33.2574 46.208 33.212C45.7691 33.1668 45.1877 33.0978 44.916 33.0589C44.6443 33.0199 44.2681 32.9686 44.08 32.9449C43.3033 32.8468 41.565 32.5878 40.318 32.3842C39.8141 32.3021 37.8742 31.9551 37.278 31.8408C37.069 31.8007 36.7099 31.7342 36.48 31.6928C36.2501 31.6515 35.9081 31.5829 35.72 31.5404C35.5319 31.4978 35.2155 31.429 35.017 31.3876C34.8185 31.346 34.4935 31.278 34.295 31.2364C33.9534 31.1649 33.5886 31.0819 32.984 30.9377C32.8377 30.9027 32.3931 30.8003 31.996 30.7101C31.3462 30.5626 30.6204 30.385 29.754 30.1617C28.9484 29.9543 28.8291 29.9223 28.652 29.868C28.5475 29.8359 28.3081 29.7669 28.12 29.7145C26.5253 29.2712 24.844 28.7677 23.7753 28.4135C22.4531 27.9752 22.6431 27.9917 22.3752 28.291ZM20.326 30.8378C20.2819 30.8687 20.048 31.1439 19.8064 31.4492C19.3544 32.0201 19.315 32.1934 19.6238 32.2531C19.7195 32.2715 20.0032 32.326 20.254 32.3739C20.5048 32.422 20.8151 32.4932 20.9433 32.5326C21.0718 32.5719 21.2403 32.604 21.318 32.604C21.3957 32.604 21.5642 32.6359 21.6927 32.6749C21.9822 32.7628 22.3875 32.8675 23.028 33.0201C23.5733 33.1499 25.0152 33.5363 25.745 33.7484C26.2569 33.8969 26.4917 33.9633 26.676 34.0111C26.7805 34.0385 26.9344 34.0885 27.018 34.1225C27.1016 34.1565 27.5291 34.2935 27.968 34.4271C28.9296 34.7193 31.669 35.6244 31.882 35.72C31.9656 35.7576 32.1879 35.8382 32.376 35.899C32.6785 35.9968 34.4879 36.6786 34.941 36.8655C35.035 36.9043 35.206 36.9748 35.321 37.0223C35.4359 37.0696 35.5984 37.1346 35.682 37.1665C35.7656 37.1984 35.9537 37.2763 36.1 37.3397C36.2463 37.4032 36.659 37.5759 37.0173 37.7235C37.3755 37.8714 37.8885 38.0929 38.1573 38.216C38.426 38.339 38.817 38.5155 39.026 38.608C39.7761 38.9399 40.5774 39.3252 42.5608 40.3079C45.1244 41.5779 45.1149 41.5737 45.2487 41.4671C45.4102 41.3385 48.0508 37.4461 48.0611 37.3217C48.0702 37.2107 47.7742 37.1572 45.942 36.9381C44.8759 36.8104 42.0118 36.3945 40.736 36.1817C40.4643 36.1365 40.1223 36.0808 39.976 36.058C39.8297 36.0354 39.5732 35.9869 39.406 35.9505C39.2388 35.9142 38.9053 35.8473 38.665 35.8021C38.4246 35.757 38.0313 35.6829 37.791 35.6379C37.5506 35.5927 37.2172 35.5252 37.05 35.488C36.8828 35.451 36.3185 35.3326 35.796 35.2252C35.2735 35.1177 34.5553 34.9609 34.2 34.8768C33.8447 34.7926 33.4001 34.6892 33.212 34.6471C33.0239 34.6049 32.7417 34.5384 32.585 34.4992C32.4282 34.4601 32.1717 34.3966 32.015 34.3583C31.8582 34.3199 31.5932 34.2534 31.426 34.2104C31.2588 34.1675 31.0365 34.1118 30.932 34.0868C30.8275 34.0615 30.5539 33.9897 30.324 33.927C30.0941 33.8643 29.5811 33.7277 29.184 33.6235C28.5371 33.4539 27.7379 33.2262 27.208 33.061C27.1035 33.0283 26.8641 32.9595 26.676 32.9082C26.4879 32.8567 26.2656 32.7879 26.182 32.7552C26.0984 32.7226 25.5683 32.5514 25.004 32.3749C23.5019 31.9048 22.8572 31.6941 22.686 31.6177C22.6024 31.5805 22.3117 31.4771 22.04 31.388C21.7683 31.2989 21.4776 31.1972 21.394 31.1621C21.3104 31.1269 21.0881 31.0399 20.9 30.9687C20.7119 30.8976 20.5238 30.8264 20.482 30.8104C20.4402 30.7946 20.3699 30.807 20.326 30.8378ZM36.734 51.9078C38.6004 52.808 39.2114 55.648 37.9268 57.452C37.711 57.7551 37.7235 57.7963 38.1526 58.2L38.5331 58.558L38.2386 58.8922C37.9052 59.2705 37.9135 59.272 37.3177 58.7206C37.0173 58.4429 36.8191 58.3868 36.574 58.5107C34.7713 59.4214 32.4579 58.2152 31.9525 56.1013C31.2354 53.1018 34.0647 50.6206 36.734 51.9078ZM15.732 52.3619V52.9676L14.687 52.9889L13.642 53.01L13.622 55.803L13.6021 58.596H12.881H12.16V55.7863V52.9764L11.153 52.9553L10.146 52.934L10.1238 52.345L10.1015 51.756H12.9168H15.732V52.3619ZM18.544 52.3655C17.9079 52.9598 17.8919 52.9691 17.499 52.9705C17.0128 52.9724 17.0115 52.9513 17.4532 52.2871L17.8062 51.756L18.4982 51.759L19.19 51.7621L18.544 52.3655ZM22.116 55.176V58.596H21.47H20.824V55.176V51.756H21.47H22.116V55.176ZM26.3177 52.1643C25.4748 52.9473 25.4347 52.972 25.012 52.972C24.5404 52.972 24.5408 53.0125 25.0063 52.3226L25.3886 51.756H26.0731H26.7575L26.3177 52.1643ZM48.488 51.7925C48.488 51.8273 48.1954 52.1054 47.538 52.6955C47.2699 52.9361 47.1857 52.9688 46.8268 52.9703C46.3454 52.9724 46.3456 52.9663 46.8599 52.2456L47.2093 51.756H47.8487C48.2003 51.756 48.488 51.7723 48.488 51.7925ZM51.376 52.9294C51.376 54.1713 51.4037 54.2697 51.6903 54.0442C53.284 52.7907 55.0983 53.899 55.0983 56.126C55.0983 58.2971 53.2023 59.5249 51.7423 58.2992C51.3912 58.0043 51.376 58.0057 51.376 58.33V58.596H50.73H50.084V55.2267C50.084 53.3735 50.1068 51.8345 50.1347 51.8067C50.1625 51.7788 50.4532 51.756 50.7807 51.756H51.376V52.9294ZM34.314 53.0043C32.9508 53.7835 32.9853 56.6601 34.3664 57.3657C35.1658 57.7741 36.0457 57.5759 35.5422 57.1009L35.2524 56.8275L35.576 56.4978C35.929 56.1382 35.8978 56.1357 36.3654 56.5626C36.6759 56.8461 36.7395 56.8292 36.9421 56.411C37.1444 55.9934 37.2066 54.3522 37.027 54.1726C36.977 54.1226 36.9352 54.0286 36.9341 53.9638C36.9206 53.1217 35.2066 52.4941 34.314 53.0043ZM18.8075 53.7715C19.588 54.1483 20.14 55.1435 20.14 56.1744V56.392L18.487 56.3929C16.2902 56.3945 16.2805 56.3988 16.7065 57.2194C17.0563 57.8936 18.2685 57.9648 18.76 57.3399C18.9688 57.0747 19.9682 57.0764 19.9255 57.342C19.7087 58.6874 17.2189 59.2152 16.0577 58.1618C13.8797 56.1864 16.1852 52.5056 18.8075 53.7715ZM26.125 53.66C26.6707 53.8899 26.9067 54.0675 27.1835 54.457C27.424 54.7956 27.664 55.5708 27.664 56.0095V56.392L25.973 56.3931C24.0643 56.3945 24.0538 56.3969 24.1281 56.8364C24.2966 57.8347 25.8881 58.1299 26.3948 57.2567C26.4687 57.1296 27.512 57.1054 27.512 57.231C27.512 58.4862 25.1457 59.1873 23.8355 58.3201C22.3444 57.3335 22.4603 54.5593 24.0225 53.8373C24.5071 53.6131 24.6094 53.5823 24.928 53.5629C25.4093 53.5335 25.924 53.5752 26.125 53.66ZM47.9142 53.6649C47.9539 53.7018 48.0443 53.732 48.115 53.732C48.6596 53.732 49.476 55.0916 49.476 55.9983V56.392L47.785 56.3931C45.9006 56.3945 45.8613 56.4034 45.9274 56.8104C46.091 57.8181 47.577 58.1385 48.1694 57.2936C48.306 57.0986 49.324 57.0807 49.324 57.2732C49.324 58.2063 47.5583 59.0051 46.322 58.6315C45.0133 58.2361 44.1875 56.5282 44.6986 55.2746C44.938 54.6875 45.0175 54.556 45.3161 54.2515C45.494 54.0702 45.7244 53.8838 45.8286 53.8373C45.9329 53.7905 46.1035 53.7143 46.208 53.668C46.542 53.5196 47.7555 53.5175 47.9142 53.6649ZM59.1635 53.7715C59.9152 54.1342 60.496 55.1395 60.496 56.0777V56.392L58.843 56.3929C56.6533 56.3945 56.642 56.399 57.0232 57.144C57.4055 57.8917 58.5143 58 59.1223 57.3492C59.3102 57.148 60.344 57.0393 60.344 57.2208C60.344 57.5293 59.6927 58.2981 59.2646 58.4947C56.9658 59.5511 54.7599 57.2687 55.8364 54.948C56.4049 53.7225 57.9386 53.1802 59.1635 53.7715ZM64.41 53.6748C65.0433 53.8582 65.4919 54.2767 65.7064 54.8843C65.8667 55.3388 65.87 55.336 65.1924 55.312L64.5688 55.29L64.4233 55.013C63.7651 53.7613 62.1061 54.8063 62.2676 56.3707C62.4184 57.8316 63.9215 58.3226 64.4799 57.0933L64.626 56.772H65.2209C65.911 56.772 65.9271 56.7969 65.637 57.418C64.7328 59.3543 61.7627 59.1462 61.1173 57.1015C60.4078 54.8534 62.1646 53.0254 64.41 53.6748ZM40.66 55.4456C40.7026 57.4079 40.7311 57.5193 41.2323 57.6848C41.708 57.8417 42.2581 57.6333 42.503 57.2031C42.5661 57.0923 42.6096 56.4885 42.6354 55.366L42.674 53.694L43.301 53.672L43.928 53.6499L43.9299 54.565C43.9309 55.0683 43.9316 56.1127 43.9316 56.886C43.9316 57.6593 43.9309 58.3604 43.9299 58.444C43.9282 58.5833 43.8767 58.596 43.32 58.596H42.712V58.292C42.712 57.9194 42.7002 57.9188 42.2959 58.273C41.3983 59.0594 39.9439 58.8367 39.4959 57.8442C39.337 57.4925 39.1909 54.105 39.3201 53.7683C39.3572 53.6716 39.4809 53.6539 39.9939 53.672L40.622 53.694L40.66 55.4456ZM17.328 54.5416C16.8956 54.6841 16.4202 55.259 16.5199 55.5189C16.5716 55.6537 18.7275 55.6894 18.8094 55.5568C19.0923 55.0992 17.97 54.3301 17.328 54.5416ZM24.8062 54.5399C24.4294 54.6242 23.882 55.4884 24.1422 55.5881C24.427 55.6974 26.3 55.6343 26.3462 55.5138C26.554 54.9719 25.5926 54.3639 24.8062 54.5399ZM46.6182 54.5399C46.3589 54.598 45.9792 55.0462 45.9293 55.3535L45.884 55.632H46.9916C48.1728 55.632 48.191 55.6269 48.1308 55.3117C48.0214 54.7392 47.322 54.3824 46.6182 54.5399ZM52.0589 54.6339C51.2101 55.089 51.1556 57.0338 51.9762 57.5861C52.8789 58.1938 53.7552 57.4968 53.7649 56.164C53.7744 54.8344 52.9927 54.1333 52.0589 54.6339ZM57.684 54.5374C57.3469 54.6605 57.1972 54.7835 57.0239 55.0791C56.7137 55.6084 56.756 55.632 58.0192 55.632C59.2534 55.632 59.2741 55.6223 59.063 55.1452C58.8424 54.6467 58.182 54.3556 57.684 54.5374ZM31.1444 55.993L31.122 56.506H29.716H28.31L28.2876 55.993L28.265 55.48H29.716H31.167L31.1444 55.993Z" fill="#133C73"/>
</svg>
