<svg width="115" height="42" viewBox="0 0 115 42" fill="none" xmlns="http://www.w3.org/2000/svg">
<path d="M69.74 0V42H0.187973V0H69.74ZM114.932 0V42H72.7808V0H114.932Z" fill="url(#paint0_radial)"/>
<path d="M31.2344 11.3232L33.956 5.77916H6.26962V11.3232H16.4504V36.8256H22.8344V11.3232H31.2344ZM48.1184 36.8256C56.5352 36.8256 63.6416 30.5928 63.6416 21.1512V19.32H49.5632L46.9256 24.6456H56.636C55.4936 28.2576 52.5368 30.744 48.236 30.744C42.776 30.744 38.912 26.7288 38.912 21.1344C38.912 15.4896 42.608 11.4072 47.816 11.4072C50.9408 11.4072 53.2088 13.0032 54.4352 14.7672H62.4488C59.408 8.38316 53.6288 5.32556 47.8328 5.32556C39.3152 5.32556 32.2256 11.5584 32.2256 21C32.2088 30.1224 38.996 36.8256 48.1184 36.8256ZM107.943 28.3248V22.7808H103.054V5.47676C102.147 5.32556 100.921 5.32556 100.165 5.32556C88.808 5.32556 79.6184 13.6416 79.6184 25.7208C79.6184 26.4768 79.652 27.4512 79.7696 28.3416H96.6536V37.7664L103.054 35.784V28.3416H107.943V28.3248ZM86.204 22.7808C86.876 17.1024 91.2272 12.6336 96.6536 11.592V22.7808H86.204Z" fill="url(#paint1_linear)"/>
<defs>
<radialGradient id="paint0_radial" cx="0" cy="0" r="1" gradientUnits="userSpaceOnUse" gradientTransform="translate(68.0617 -35.1667) rotate(90) scale(61.778 111.274)">
<stop offset="0.5781" stop-color="#343434"/>
<stop offset="1"/>
</radialGradient>
<linearGradient id="paint1_linear" x1="56.7255" y1="13.8991" x2="58.7408" y2="30.4013" gradientUnits="userSpaceOnUse">
<stop offset="0.1988" stop-color="white"/>
<stop offset="0.9133" stop-color="#C3C3C3"/>
</linearGradient>
</defs>
</svg>
