<svg width="99" height="55" viewBox="0 0 99 55" fill="none" xmlns="http://www.w3.org/2000/svg">
<path d="M25.8311 9.95172C33.9206 9.95172 42.0096 9.94758 50.0979 9.9393C50.3424 9.92497 50.5869 9.96532 50.8138 10.0574C51.0407 10.1495 51.2442 10.2911 51.4095 10.4717C53.4487 12.5607 55.5306 14.6106 57.561 16.7102C57.9763 17.1397 58.1679 17.1077 58.569 16.7102C63.9147 11.3349 69.2693 5.96671 74.6328 0.605628C74.816 0.403656 75.0417 0.244789 75.2936 0.140452C75.5456 0.0361141 75.8175 -0.0111026 76.0899 0.00219653C81.1965 0.0294101 86.3068 0.0294101 91.4206 0.00219653C92.1181 0.00219653 92.3168 0.179677 92.292 0.871848C92.2388 2.46917 92.292 4.06649 92.2654 5.64783C92.2547 6.1572 92.4127 6.29918 92.9167 6.28854C94.4803 6.25836 96.0457 6.28854 97.6093 6.26546C98.1187 6.26546 98.3192 6.33823 98.3192 6.92214C98.2849 9.90025 98.2849 12.8784 98.3192 15.8565C98.3192 16.4794 98.0992 16.5664 97.5561 16.5664C96.0226 16.5345 94.4857 16.5664 92.9522 16.5433C92.4713 16.5327 92.3559 16.6889 92.363 17.1361C92.3878 18.4637 92.3417 19.7983 92.3843 21.117C92.4056 21.7204 92.2583 21.9139 91.6158 21.905C88.9288 21.8642 86.2435 21.905 83.5564 21.8784C83.3701 21.8683 83.1838 21.8997 83.011 21.9702C82.8382 22.0408 82.6832 22.1489 82.5572 22.2866C79.4904 25.3925 76.42 28.4984 73.3141 31.567C72.8526 32.0231 73.0017 32.2255 73.3655 32.5875C75.7509 34.9586 78.1043 37.36 80.502 39.7187C80.9528 40.1624 80.9067 40.3842 80.4843 40.8048C75.8698 45.411 71.2701 50.032 66.6852 54.6678C66.2628 55.0955 66.0605 55.1257 65.6203 54.6678C63.2563 52.2346 60.8408 49.8528 58.4697 47.4248C58.0845 47.0308 57.9106 47.0308 57.5343 47.4373C55.6956 49.4304 53.8073 51.3809 51.9632 53.3704C51.8222 53.5339 51.6454 53.6628 51.4466 53.7471C51.2478 53.8314 51.0323 53.8689 50.8167 53.8567C34.343 53.8449 17.8699 53.8449 1.39742 53.8567C0.728322 53.8656 0.550842 53.7183 0.550842 53.0421C0.57214 38.949 0.57214 24.8553 0.550842 10.761C0.550842 10.0866 0.728322 9.94107 1.38677 9.94107C9.53488 9.9606 17.683 9.95172 25.8311 9.95172Z" fill="#050707"/>
<path d="M25.398 25.9535C31.0951 26.1966 35.2304 28.7275 37.3176 34.0395C40.4075 41.8947 34.6376 50.4723 26.0795 50.664C18.9111 50.8255 11.7356 50.696 4.56364 50.7244C3.88389 50.7244 3.97263 50.3587 3.9744 49.9488C3.9744 46.5873 3.9744 43.2264 3.9744 39.8661C3.9744 31.2891 3.96967 22.7109 3.96021 14.1315C3.96021 13.4713 4.08267 13.2441 4.81211 13.2441C9.94838 13.2796 15.0829 13.2619 20.2191 13.2637C23.5309 13.2637 26.1559 14.8787 27.2793 17.7557C28.4595 20.7728 27.8117 23.4705 25.5045 25.7636C25.4625 25.823 25.4269 25.8867 25.398 25.9535Z" fill="#FEFEFE"/>
<path d="M50.0198 50.2528C46.7968 47.1114 43.453 43.8351 40.0809 40.5766C39.7029 40.211 39.7757 40.0158 40.1146 39.6786C42.4982 37.3074 44.8463 34.9008 47.2387 32.5385C47.6788 32.1037 47.6735 31.889 47.2387 31.4559C44.8285 29.0706 42.4609 26.6409 40.0596 24.2467C39.7189 23.9059 39.6727 23.7391 40.0436 23.3717C43.2383 20.1865 46.4175 16.9842 49.5814 13.7647C49.979 13.3583 50.1476 13.3973 50.5238 13.7842C52.8719 16.1909 55.2626 18.5567 57.6088 20.9633C58.0312 21.3981 58.2513 21.4372 58.6968 20.9793C61.0413 18.5691 63.4355 16.2086 65.78 13.7984C66.1758 13.392 66.3444 13.4257 66.7171 13.7984C69.8348 16.9777 72.9703 20.1404 76.1235 23.2865C76.5105 23.6734 76.5105 23.8669 76.1235 24.2502C73.7577 26.5983 71.431 28.9854 69.0652 31.3317C68.6357 31.7576 68.515 31.9724 69.0261 32.4711C71.4061 34.8032 73.7222 37.2009 76.0898 39.5472C76.514 39.9678 76.5619 40.1861 76.1111 40.6352C72.952 43.7766 69.8165 46.9393 66.7047 50.1232C66.2805 50.5563 66.0871 50.5013 65.6984 50.1037C63.329 47.6776 60.9153 45.294 58.5513 42.8608C58.1555 42.4526 57.994 42.4934 57.6177 42.8608C55.0531 45.3952 52.4601 47.8888 50.0198 50.2528Z" fill="#FEFEFE"/>
<path d="M89.179 6.08718C89.179 6.88406 89.2092 7.6845 89.1683 8.47606C89.1417 9.0085 89.2979 9.18598 89.8552 9.17355C91.4791 9.13451 93.1031 9.17355 94.727 9.15048C95.2133 9.15048 95.4085 9.26407 95.3926 9.78231C95.3571 10.8738 95.3606 11.9653 95.3926 13.055C95.4068 13.5591 95.2346 13.717 94.7323 13.7082C93.135 13.6815 91.5377 13.7224 89.951 13.6851C89.3795 13.6727 89.1825 13.8289 89.1985 14.4199C89.2393 15.8628 89.1772 17.3092 89.2287 18.7521C89.2518 19.4 89.0299 19.5437 88.4283 19.5135C87.4273 19.4656 86.4192 19.4656 85.4111 19.5135C84.8361 19.5419 84.6391 19.3964 84.6568 18.7912C84.7012 17.3199 84.6479 15.8433 84.6852 14.3702C84.6994 13.7934 84.5361 13.6052 83.9433 13.6194C82.3212 13.6567 80.6955 13.6194 79.0733 13.6425C78.5852 13.6425 78.3971 13.5325 78.4148 13.0107C78.4521 11.9209 78.4539 10.8277 78.4148 9.73794C78.3953 9.2055 78.6136 9.11321 79.0839 9.12031C80.7079 9.14516 82.3318 9.10789 83.9558 9.14161C84.4971 9.15403 84.6657 8.99785 84.6657 8.45121C84.632 6.83082 84.6657 5.20865 84.6426 3.58649C84.6426 3.08422 84.7846 2.92271 85.2886 2.93868C86.3801 2.9724 87.4752 2.97595 88.5649 2.93868C89.0974 2.91916 89.2092 3.14101 89.1932 3.61311C89.1595 4.43839 89.1808 5.2619 89.179 6.08718Z" fill="#ED4486"/>
</svg>
