<svg width="121" height="58" viewBox="0 0 121 58" fill="none" xmlns="http://www.w3.org/2000/svg">
<g clip-path="url(#clip0)">
<path d="M4.012 0C1.80635 0 0 1.80582 0 4.00769V53.9884C0 56.1948 1.80635 58 4.012 58H33.9142C36.1205 58 37.9255 56.1948 37.9255 53.9884V4.00769C37.9255 1.80582 36.1205 0 33.9142 0H4.012Z" fill="#EE2E24"/>
<path d="M37.9265 0H0.00100708V58H37.9265V0Z" fill="#EE2E24"/>
<path d="M45.5447 0C43.3423 0 41.5366 1.80582 41.5366 4.00769V53.9884C41.5366 56.1948 43.3423 58 45.5447 58H75.4482C77.6558 58 79.4641 56.1948 79.4641 53.9884V4.00769C79.4641 1.80582 77.6558 0 75.4482 0H45.5447Z" fill="#EE2E24"/>
<path d="M79.4644 0H41.5356V58H79.4644V0Z" fill="#EE2E24"/>
<path d="M87.0839 0C84.8763 0 83.0706 1.80582 83.0706 4.00769V53.9884C83.0706 56.1948 84.8763 58 87.0839 58H116.989C119.189 58 121 56.1948 121 53.9884V4.00769C121 1.80582 119.189 0 116.989 0H87.0839Z" fill="#EE2E24"/>
<path d="M121.001 0H83.0706V58H121.001V0Z" fill="#EE2E24"/>
<path d="M29.5016 15.9941H7.37424C7.11919 15.9941 6.9061 16.2027 6.9061 16.4577V20.8306C6.9061 21.0883 7.11919 21.2982 7.37424 21.2982H13.9302C15.0337 21.2982 15.9195 22.188 15.9195 23.2876V43.0408C15.9195 43.2998 16.128 43.5083 16.387 43.5083H20.7596C21.0192 43.5083 21.2264 43.2998 21.2264 43.0408V23.2869C21.2264 22.1873 22.1162 21.2975 23.2164 21.2975H29.5009C29.7599 21.2975 29.9743 21.0877 29.9743 20.83V16.4571C29.9756 16.2027 29.7605 15.9941 29.5016 15.9941Z" fill="white"/>
<path d="M68.4912 38.201H60.4259C59.0176 38.201 57.8813 37.0634 57.8813 35.6582V16.4577C57.8813 16.2033 57.6734 15.9941 57.4145 15.9941H53.0464C52.7881 15.9941 52.5776 16.2027 52.5776 16.4577V37.3433C52.5776 40.8278 54.3886 43.5096 58.5743 43.5096H68.4912C68.7542 43.5096 68.9574 43.2985 68.9574 43.0388V38.6738C68.9574 38.4174 68.7548 38.201 68.4912 38.201Z" fill="white"/>
<path d="M112.569 39.224L109.477 36.135C109.296 35.9559 108.982 35.9559 108.797 36.135L108.801 36.1271C107.291 37.4785 105.29 38.3053 103.105 38.3053C98.3809 38.3053 94.546 34.4695 94.546 29.7536C94.546 25.0273 98.3809 21.2025 103.105 21.2025C105.29 21.2025 107.289 22.0267 108.801 23.3755L108.797 23.3709C108.982 23.5552 109.296 23.5552 109.477 23.3755L112.569 20.2819C112.732 20.1127 112.739 19.8498 112.593 19.6636C110.111 17.3253 106.777 15.8906 103.104 15.8906C95.4469 15.8906 89.241 22.0962 89.241 29.7536C89.241 37.3992 95.4469 43.6081 103.104 43.6081C106.777 43.6081 110.119 42.1707 112.593 39.8397C112.739 39.6607 112.732 39.3919 112.569 39.224Z" fill="white"/>
</g>
<defs>
<clipPath id="clip0">
<rect width="121" height="58" fill="white"/>
</clipPath>
</defs>
</svg>
