<svg width="137" height="41" viewBox="0 0 137 41" fill="none" xmlns="http://www.w3.org/2000/svg">
<path d="M135.759 0H1.24006C0.555193 0 0 0.559383 0 1.24942V39.7506C0 40.4406 0.555193 41 1.24006 41H135.759C136.444 41 136.999 40.4406 136.999 39.7506V1.24942C136.999 0.559383 136.444 0 135.759 0Z" fill="#2B2F5F"/>
<path fill-rule="evenodd" clip-rule="evenodd" d="M7.40931 10.895C7.40931 12.5344 7.40931 14.1658 7.40931 15.8052C9.06799 15.8052 10.7346 15.8052 12.3932 15.8052C12.3932 20.3651 12.3932 24.9171 12.3932 29.4771C14.281 29.4771 16.1687 29.4771 18.0643 29.4771C18.0643 24.9171 18.0643 20.3651 18.0643 15.8052C19.723 15.8052 21.3896 15.8052 23.0483 15.8052C23.0483 14.1658 23.0483 12.5344 23.0483 10.895C17.8353 10.895 12.6223 10.895 7.40931 10.895Z" fill="#FEFEFE"/>
<path fill-rule="evenodd" clip-rule="evenodd" d="M25.2046 10.895C25.2046 17.0864 25.2046 23.2778 25.2046 29.4771C27.1318 29.4771 29.059 29.4771 30.9862 29.4771C30.9862 27.6547 30.9862 25.8323 30.9862 24.0099C31.3654 24.0099 31.7445 24.0099 32.1157 24.0099C33.0161 25.8323 33.9166 27.6547 34.817 29.4771C36.8627 29.4771 38.9084 29.4771 40.9541 29.4771C39.8957 27.2568 38.8373 25.0286 37.7789 22.8083C37.8974 22.7605 38.0159 22.7048 38.2528 22.5377C38.4977 22.3706 38.861 22.092 39.2322 21.6941C39.6035 21.2962 39.9668 20.7789 40.2274 20.2378C40.4881 19.6966 40.6382 19.1396 40.7092 18.4234C40.7803 17.7071 40.7803 16.8238 40.7013 16.0996C40.6145 15.3675 40.4486 14.7945 40.1406 14.2135C39.8325 13.6406 39.3744 13.0676 38.8294 12.5901C38.2844 12.1046 37.6367 11.7147 36.7995 11.4441C35.9623 11.1736 34.9355 11.0383 34.0666 10.9666C33.1978 10.895 32.4869 10.895 31.0415 10.895C29.5882 10.895 27.4003 10.895 25.2046 10.895ZM30.9862 15.5982C30.9862 16.8795 30.9862 18.1607 30.9862 19.4499C31.3496 19.4499 31.7129 19.4499 32.1157 19.4499C32.5106 19.4499 32.945 19.4499 33.3716 19.3783C33.7981 19.3067 34.2088 19.1635 34.5089 18.9247C34.8012 18.6939 34.975 18.3677 35.0539 18.0175C35.1408 17.6673 35.1408 17.2854 35.0381 16.9511C34.9434 16.6089 34.7459 16.3145 34.4537 16.0916C34.1614 15.8768 33.7744 15.7335 33.3953 15.6619C33.0082 15.5903 32.6291 15.5903 32.2263 15.5903C31.8235 15.5903 31.4048 15.5903 30.9862 15.5903V15.5982Z" fill="#FEFEFE"/>
<path fill-rule="evenodd" clip-rule="evenodd" d="M64.0808 10.895C64.0808 17.0864 64.0808 23.2778 64.0808 29.4771C65.9685 29.4771 67.8563 29.4771 69.744 29.4771C69.744 26.5485 69.744 23.612 69.744 20.6834C71.9793 23.612 74.2145 26.5485 76.4498 29.4771C77.8399 29.4771 79.238 29.4771 80.6281 29.4771C80.6281 23.2857 80.6281 17.0944 80.6281 10.895C78.7404 10.895 76.8526 10.895 74.9649 10.895C74.9649 13.744 74.9649 16.601 74.9649 19.4499C72.8086 16.601 70.6523 13.744 68.4961 10.895C67.0269 10.895 65.5578 10.895 64.0808 10.895Z" fill="#FEFEFE"/>
<path fill-rule="evenodd" clip-rule="evenodd" d="M85.3751 22.848C84.3246 24.0736 83.2741 25.2991 82.2315 26.5247C82.7054 26.9385 83.1714 27.3443 83.6532 27.7025C84.135 28.0606 84.6168 28.363 85.1618 28.6495C85.7068 28.936 86.315 29.2065 87.0417 29.4134C87.7683 29.6204 88.6213 29.7716 89.427 29.8511C90.2326 29.9228 90.9909 29.9228 91.6544 29.875C92.3178 29.8193 92.8944 29.7159 93.4789 29.5089C94.0634 29.302 94.6637 28.9996 95.1613 28.6574C95.6589 28.3152 96.0538 27.9253 96.3776 27.5353C96.7015 27.1454 96.9384 26.7555 97.1359 26.2939C97.3255 25.8323 97.4676 25.315 97.5387 24.6625C97.6098 24.0099 97.6098 23.238 97.5071 22.5775C97.4044 21.9169 97.1991 21.3678 96.8752 20.8665C96.5514 20.3651 96.1091 19.9115 95.5404 19.4977C94.9638 19.0839 94.2609 18.7178 93.4947 18.4233C92.7286 18.1289 91.915 17.914 91.2989 17.731C90.6828 17.548 90.2721 17.4047 89.9246 17.2376C89.5771 17.0784 89.3085 16.8954 89.1663 16.6407C89.0321 16.3861 89.0321 16.0518 89.1505 15.8211C89.2769 15.5903 89.5218 15.4629 89.8693 15.3993C90.2168 15.3356 90.6671 15.3436 91.0778 15.4152C91.4964 15.4868 91.8834 15.6221 92.2941 15.8131C92.7049 16.0041 93.1393 16.2428 93.5342 16.4816C93.9291 16.7283 94.2688 16.975 94.6163 17.2296C95.5167 15.9484 96.4171 14.6671 97.3176 13.3859C96.7568 12.9323 96.1881 12.4787 95.6589 12.1365C95.1297 11.7863 94.6321 11.5476 94.1345 11.3407C93.6369 11.1337 93.1314 10.9746 92.618 10.8473C92.1046 10.7279 91.5833 10.6483 90.9277 10.6085C90.2721 10.5687 89.4744 10.5687 88.6845 10.6881C87.8947 10.8075 87.0969 11.0542 86.4414 11.3725C85.7858 11.6829 85.2724 12.0648 84.8933 12.423C84.5141 12.7811 84.2772 13.1074 84.0481 13.4973C83.8191 13.8793 83.5979 14.317 83.4479 14.7308C83.2978 15.1446 83.2267 15.5266 83.1951 15.9404C83.1635 16.3542 83.1635 16.8079 83.2899 17.3968C83.4084 17.9936 83.6532 18.7258 83.985 19.3306C84.3246 19.9354 84.759 20.3969 85.3119 20.8028C85.8648 21.2087 86.5362 21.5509 87.2628 21.8294C87.9895 22.1079 88.7793 22.3308 89.4191 22.5377C90.0589 22.7446 90.5644 22.9276 90.9119 23.0788C91.2594 23.23 91.4569 23.3574 91.5912 23.4926C91.7254 23.6279 91.7965 23.7791 91.8281 23.9781C91.8597 24.177 91.8597 24.4237 91.7807 24.6147C91.6939 24.8057 91.5201 24.949 91.3226 25.0524C91.1173 25.1559 90.8882 25.2275 90.596 25.2593C90.3037 25.2912 89.9404 25.2912 89.5929 25.2434C89.2453 25.1957 88.9057 25.1002 88.5898 24.9808C88.2817 24.8614 87.9974 24.7182 87.713 24.559C87.4287 24.3999 87.1443 24.2089 86.7573 23.9303C86.3703 23.6438 85.8727 23.2619 85.383 22.8719L85.3751 22.848Z" fill="#FEFEFE"/>
<path d="M104.426 2.04517H103.155V38.2624H104.426V2.04517Z" fill="#FEFEFE"/>
<path fill-rule="evenodd" clip-rule="evenodd" d="M109.434 5.45093C109.434 7.50411 109.434 9.55729 109.434 11.6184C113.778 11.6184 118.114 11.6184 122.458 11.6184C121.25 13.21 120.034 14.8096 119.038 16.3137C118.043 17.8178 117.261 19.2343 116.598 20.6111C115.934 21.9878 115.381 23.3168 114.836 24.996C114.291 26.6751 113.746 28.7124 113.478 30.5984C113.217 32.4845 113.233 34.2194 113.249 35.9542C115.508 35.9542 117.775 35.9542 120.034 35.9542C120.113 33.4952 120.184 31.0361 120.681 28.3861C121.179 25.7361 122.103 22.903 123.185 20.5156C124.267 18.1281 125.515 16.1943 126.724 14.6027C127.932 13.0111 129.109 11.7696 130.278 10.5282C130.278 8.83311 130.278 7.146 130.278 5.45093C123.327 5.45093 116.377 5.45093 109.434 5.45093Z" fill="#FEFEFE"/>
<path fill-rule="evenodd" clip-rule="evenodd" d="M41.5465 29.461C42.7786 27.3442 44.0187 25.2194 45.2509 23.1025C45.8512 24.2167 46.4514 25.3228 47.0517 26.437C45.2114 27.4476 43.3789 28.4504 41.5386 29.461H41.5465Z" fill="url(#paint0_linear_9314:3480)"/>
<path fill-rule="evenodd" clip-rule="evenodd" d="M45.2588 23.1024C47.7152 23.1024 50.1637 23.1024 52.6201 23.0945C50.764 24.2086 48.9157 25.3227 47.0596 26.4289C46.4593 25.3148 45.859 24.2086 45.2588 23.0945V23.1024Z" fill="url(#paint1_linear_9314:3480)"/>
<path fill-rule="evenodd" clip-rule="evenodd" d="M47.0596 26.437C47.6283 27.4476 48.1891 28.4583 48.7578 29.477C50.0452 27.3522 51.3327 25.2273 52.6201 23.1025C50.764 24.2167 48.9158 25.3308 47.0596 26.437Z" fill="url(#paint2_linear_9314:3480)"/>
<path fill-rule="evenodd" clip-rule="evenodd" d="M41.5465 29.4603C43.3868 28.4497 45.2193 27.447 47.0596 26.4363C47.6283 27.447 48.1891 28.4576 48.7578 29.4763C46.3566 29.4763 43.9476 29.4683 41.5465 29.4683V29.4603Z" fill="url(#paint3_linear_9314:3480)"/>
<path fill-rule="evenodd" clip-rule="evenodd" d="M45.2588 23.1026C46.4751 20.9699 47.6836 18.8371 48.9 16.7043C50.14 18.8371 51.3801 20.9619 52.6201 23.0947C50.1637 23.0947 47.7152 23.0947 45.2588 23.1026Z" fill="url(#paint4_linear_9314:3480)"/>
<path fill-rule="evenodd" clip-rule="evenodd" d="M48.9 16.7124C50.14 16.7124 51.3801 16.7124 52.628 16.7124C52.628 18.8452 52.628 20.97 52.628 23.1027C51.388 20.97 50.1479 18.8452 48.9079 16.7124H48.9Z" fill="url(#paint5_linear_9314:3480)"/>
<path fill-rule="evenodd" clip-rule="evenodd" d="M48.9 16.7125C50.14 14.5876 51.388 12.4628 52.628 10.3301C52.628 12.4549 52.628 14.5797 52.628 16.7125C51.388 16.7125 50.1479 16.7125 48.9 16.7125Z" fill="url(#paint6_linear_9314:3480)"/>
<path fill-rule="evenodd" clip-rule="evenodd" d="M59.9183 23.1026C58.7178 20.9699 57.5172 18.8371 56.3166 16.7043C55.0845 18.8371 53.8523 20.9619 52.6201 23.0947C55.0529 23.0947 57.4856 23.0947 59.9183 23.1026Z" fill="url(#paint7_linear_9314:3480)"/>
<path fill-rule="evenodd" clip-rule="evenodd" d="M56.3166 16.7124C55.0845 16.7124 53.8523 16.7124 52.6201 16.7124C52.6201 18.8452 52.6201 20.97 52.6201 23.1027C53.8523 20.97 55.0845 18.8452 56.3166 16.7124Z" fill="url(#paint8_linear_9314:3480)"/>
<path fill-rule="evenodd" clip-rule="evenodd" d="M56.3166 16.7125C55.0845 14.5876 53.8523 12.4628 52.628 10.3301C52.628 12.4549 52.628 14.5797 52.628 16.7125C53.8602 16.7125 55.0924 16.7125 56.3245 16.7125H56.3166Z" fill="url(#paint9_linear_9314:3480)"/>
<path fill-rule="evenodd" clip-rule="evenodd" d="M52.6201 23.1025C53.8997 25.2273 55.1792 27.3522 56.4509 29.477C57.6041 27.3522 58.7652 25.2273 59.9183 23.1105C57.4856 23.1105 55.0529 23.1105 52.6201 23.1025Z" fill="url(#paint10_linear_9314:3480)"/>
<path fill-rule="evenodd" clip-rule="evenodd" d="M59.9183 23.1025C58.7651 25.2273 57.6041 27.3522 56.4509 29.469C58.8283 29.469 61.2058 29.461 63.5911 29.461C62.3668 27.3442 61.1426 25.2194 59.9183 23.1025Z" fill="url(#paint11_linear_9314:3480)"/>
<defs>
<linearGradient id="paint0_linear_9314:3480" x1="42.5283" y1="28.0694" x2="46.1053" y2="24.5282" gradientUnits="userSpaceOnUse">
<stop stop-color="#F17429"/>
<stop offset="1" stop-color="#F0DC1C"/>
</linearGradient>
<linearGradient id="paint1_linear_9314:3480" x1="46.7283" y1="24.77" x2="51.1462" y2="24.77" gradientUnits="userSpaceOnUse">
<stop stop-color="#C1D951"/>
<stop offset="1" stop-color="#64B688"/>
</linearGradient>
<linearGradient id="paint2_linear_9314:3480" x1="47.8924" y1="26.2886" x2="51.7848" y2="26.2886" gradientUnits="userSpaceOnUse">
<stop stop-color="#D4E48B"/>
<stop offset="1" stop-color="#95D19E"/>
</linearGradient>
<linearGradient id="paint3_linear_9314:3480" x1="43.138" y1="29.1264" x2="47.1838" y2="26.8139" gradientUnits="userSpaceOnUse">
<stop stop-color="#F99E6C"/>
<stop offset="1" stop-color="#F8F388"/>
</linearGradient>
<linearGradient id="paint4_linear_9314:3480" x1="48.9373" y1="22.4668" x2="48.9373" y2="17.3495" gradientUnits="userSpaceOnUse">
<stop stop-color="#5CB257"/>
<stop offset="1" stop-color="#1282C7"/>
</linearGradient>
<linearGradient id="paint5_linear_9314:3480" x1="49.3156" y1="19.7786" x2="52.2032" y2="20.0287" gradientUnits="userSpaceOnUse">
<stop stop-color="#229ED9"/>
<stop offset="0.65098" stop-color="#1A85C6"/>
<stop offset="1" stop-color="#116BB3"/>
</linearGradient>
<linearGradient id="paint6_linear_9314:3480" x1="49.127" y1="18.03" x2="52.4372" y2="9.02634" gradientUnits="userSpaceOnUse">
<stop stop-color="#49C4F5"/>
<stop offset="0.419608" stop-color="#3089C6"/>
<stop offset="1" stop-color="#164E97"/>
</linearGradient>
<linearGradient id="paint7_linear_9314:3480" x1="59.2498" y1="18.8204" x2="53.2908" y2="20.9674" gradientUnits="userSpaceOnUse">
<stop stop-color="#1366A5"/>
<stop offset="0.639216" stop-color="#474B9C"/>
<stop offset="1" stop-color="#7B3092"/>
</linearGradient>
<linearGradient id="paint8_linear_9314:3480" x1="55.3702" y1="17.9691" x2="53.5511" y2="21.8315" gradientUnits="userSpaceOnUse">
<stop stop-color="#0970B0"/>
<stop offset="0.380392" stop-color="#3D55A2"/>
<stop offset="1" stop-color="#723A93"/>
</linearGradient>
<linearGradient id="paint9_linear_9314:3480" x1="56.2278" y1="11.7544" x2="52.6872" y2="15.2594" gradientUnits="userSpaceOnUse">
<stop stop-color="#2F318B"/>
<stop offset="0.639216" stop-color="#2D5EA9"/>
<stop offset="1" stop-color="#2A8BC7"/>
</linearGradient>
<linearGradient id="paint10_linear_9314:3480" x1="53.8124" y1="29.2314" x2="58.7699" y2="23.3823" gradientUnits="userSpaceOnUse">
<stop stop-color="#FF179A"/>
<stop offset="0.729412" stop-color="#92298A"/>
<stop offset="1" stop-color="#243C7A"/>
</linearGradient>
<linearGradient id="paint11_linear_9314:3480" x1="60.0215" y1="29.878" x2="60.0215" y2="22.7045" gradientUnits="userSpaceOnUse">
<stop stop-color="#DD1C95"/>
<stop offset="0.560784" stop-color="#812B88"/>
<stop offset="1" stop-color="#253A7A"/>
</linearGradient>
</defs>
</svg>
