<svg width="100" height="50" viewBox="0 0 100 50" fill="none" xmlns="http://www.w3.org/2000/svg">
<path fill-rule="evenodd" clip-rule="evenodd" d="M0.841202 1.07031V7.76749H11.5571V37.3156H19.4364V7.76749H30.1523V1.07031H0.841202ZM70.2585 1.07031V37.3156H77.4287V1.07031H70.2585ZM37.4016 10.9981C30.5461 10.9981 24.4794 16.6556 24.4794 23.999V37.3156H31.5709V23.999C31.5709 20.7523 34.3523 18.1682 37.4016 18.1682V10.9981ZM39.4501 11.0772L46.6994 32.9816C47.7493 35.8008 50.4799 37.9688 53.862 37.9688C58.0446 37.9688 60.2893 35.0664 61.0398 32.9816L68.2887 11.0772H60.8033L54.4209 30.4601C54.4209 30.4601 54.2775 30.857 53.8713 30.857C53.4581 30.857 53.318 30.4601 53.318 30.4601L46.8835 11.0772H39.4501ZM27.0009 42.3581C25.3186 42.3581 24.4007 43.4391 24.4007 44.4857V46.7707C24.4007 48.0468 25.3391 48.8971 26.9556 48.8971C28.2601 48.8971 28.9871 48.0992 29.4065 47.421L28.4224 46.8892C28.2033 47.2663 27.7728 47.795 27.0009 47.795C25.9997 47.795 25.5036 47.3203 25.5036 46.6916V44.4857C25.5036 43.7831 26.0172 43.3824 26.9218 43.3824C27.8123 43.3824 28.1766 43.912 28.4254 44.2784L29.3967 43.7623C28.8783 42.9368 28.0942 42.3581 27.0009 42.3581ZM48.9053 42.4368V48.7406H50.0087V44.0974L52.7413 48.7406H53.9483V42.4368H52.845V47.1824L50.0366 42.4368H48.9053ZM57.0202 42.4368V48.7406H58.1236V44.0974L60.8562 48.7406H62.0632V42.4368H60.9603V47.1824L58.1515 42.4368H57.0202ZM73.4104 42.4368V48.7406H77.5078V47.7163H74.5133V42.4368H73.4104ZM42.7425 42.4382L40.3957 48.7415H41.5778L42.129 47.0869H44.4931L45.1235 48.7415H46.2265L43.8776 42.4382H42.7425ZM32.5951 42.516V48.8193H33.6981V46.1405H36.6135V48.8193H37.7168V42.516H36.6135V45.1949H33.6981V42.516H32.5951ZM65.216 42.516V48.8193H69.5495V47.7951H66.3189V46.1405H69.313V45.1162H66.3189V43.4616H69.5495V42.516H65.216ZM43.3128 43.4624L44.1602 46.0626H42.4861L43.3128 43.4624Z" fill="#E6BE29"/>
<path d="M82.4716 36.2118V2.25159C82.4716 1.55258 82.8728 1.06641 83.5815 1.06641C83.9955 1.06641 84.2573 1.29989 84.5203 1.62122L98.6244 18.4831C98.6244 18.4831 98.9396 18.8031 98.9396 19.1923C98.9396 19.5725 98.6244 19.9014 98.6244 19.9014L84.4415 36.9209C84.263 37.1313 84.0609 37.3422 83.6106 37.3422C83.0454 37.3422 82.4716 36.8831 82.4716 36.2118Z" fill="#852980"/>
</svg>
