<svg width="119" height="29" viewBox="0 0 119 29" fill="none" xmlns="http://www.w3.org/2000/svg">
<g clip-path="url(#clip0)">
<path d="M40.5996 0.00683594H3.44269L0 7.29245H37.1575L40.5996 0.00683594Z" fill="#EF3E33"/>
<path d="M23.5521 10.8896L14.9488 28.9992H4.76201L13.3734 10.8896H23.5521Z" fill="#EF3E33"/>
<path d="M30.5918 28.9992L34.0795 21.5632H60.2147L62.3726 17.3602C62.3726 17.3602 48.4026 17.3546 46.6501 17.3602C44.5032 17.3602 39.7196 17.5212 38.5515 15.1355C37.7851 13.5489 39.2938 10.8896 39.2938 10.8896H68.528C70.3854 10.8896 71.9602 11.2863 72.8328 12.4017C73.6523 13.4525 73.5992 14.959 72.3545 17.3608C71.6418 18.7442 69.7788 22.9739 69.3327 23.853C68.8964 24.7477 67.9813 26.2922 65.6401 27.402C63.2878 28.5112 61.381 28.9992 58.303 28.9992H30.5918Z" fill="#EF3E33"/>
<path d="M40.9482 7.29297C40.9482 7.29297 42.4033 3.34239 45.7102 1.59964C48.8654 -0.06788 55.2398 0.00735125 55.8168 0.00735125H80.0847L76.663 7.29297H40.9482Z" fill="#EF3E33"/>
<path d="M81.6546 7.293L84.9109 0.00738635H107.833C107.833 0.00738635 117.112 -0.517988 118.804 7.293C119.56 10.8102 117.889 13.7747 117.836 13.8978C117.783 13.9998 110.722 29 110.722 29H100.485L108.397 12.5038C108.397 12.5038 109.61 10.5311 108.78 8.84736C107.971 7.1587 105.534 7.27124 105.343 7.293C105.14 7.30357 81.6546 7.293 81.6546 7.293Z" fill="#EF3E33"/>
<path d="M90.1993 10.8896L81.5959 28.9992H71.4012L79.9946 10.8896H90.1993Z" fill="#EF3E33"/>
</g>
<defs>
<clipPath id="clip0">
<rect width="119" height="29" fill="white"/>
</clipPath>
</defs>
</svg>
