<svg width="97" height="42" viewBox="0 0 97 42" fill="none" xmlns="http://www.w3.org/2000/svg">
<path d="M95.1031 11.8955H88.7066V40.1174C88.7066 40.6201 89.1154 41.0277 89.6204 41.0277H95.1031C95.6077 41.0277 96.0168 40.6205 96.0168 40.1174V12.8059C96.0168 12.3032 95.6081 11.8955 95.1031 11.8955ZM70.4309 33.7447C66.3936 33.7447 63.1207 30.484 63.1207 26.4617C63.1207 22.4394 66.3936 19.1787 70.4309 19.1787C74.4683 19.1787 77.7412 22.4394 77.7412 26.4617C77.7412 30.484 74.4683 33.7447 70.4309 33.7447ZM70.4309 11.8955C68.2847 11.8955 66.2472 12.3565 64.4112 13.1842L64.411 13.184C64.2928 13.2354 64.1642 13.2647 64.0342 13.2647C63.5295 13.2647 63.1204 12.8574 63.1204 12.3543V1.88112C63.1204 1.37841 62.7116 0.970703 62.2066 0.970703H55.8102V26.4613C55.8102 34.506 62.3558 41.0275 70.4306 41.0275C78.5055 41.0275 85.0511 34.506 85.0511 26.4613C85.0511 18.4167 78.5055 11.8953 70.4306 11.8953L70.4309 11.8955ZM22.4436 38.2642L22.4445 38.2649L19.693 33.5138L19.6914 33.5148C19.4588 33.1134 18.9601 32.9504 18.5335 33.1361C17.6366 33.5272 16.6457 33.7445 15.6038 33.7445C11.5665 33.7445 8.2936 30.4838 8.2936 26.4615V20.0887C8.2936 19.586 8.70239 19.1784 9.20736 19.1784H18.3451C18.8498 19.1784 19.259 18.7711 19.259 18.268V12.8059C19.259 12.3032 18.8501 11.8953 18.3451 11.8953H9.20736C8.70269 11.8953 8.2936 11.4881 8.2936 10.985V1.8809C8.2936 1.37818 7.88414 0.970815 7.37984 0.970815H0.983398V26.4615C0.983398 34.5061 7.5292 41.0275 15.6038 41.0275C17.9198 41.0275 20.1099 40.4911 22.056 39.5361C22.5087 39.3138 22.6953 38.7682 22.4716 38.3171C22.4641 38.3024 22.4567 38.2804 22.4419 38.2657L22.4436 38.2642ZM51.2396 11.8968H44.8431V26.4628C44.8431 30.4851 41.5701 33.7459 37.5328 33.7459C33.4955 33.7459 30.2226 30.4851 30.2226 26.4628V12.8071C30.2226 12.3043 29.8138 11.8968 29.3089 11.8968H22.9124V26.4628C22.9124 34.5074 29.4582 41.029 37.5328 41.029C45.6074 41.029 52.1533 34.5074 52.1533 26.4628V12.8071C52.1533 12.3043 51.7445 11.8968 51.2396 11.8968ZM92.3596 0.972159C90.3408 0.972159 88.7046 2.60239 88.7046 4.61362C88.7046 6.62492 90.3408 8.25518 92.3596 8.25518C94.3784 8.25518 96.0148 6.62492 96.0148 4.61362C96.0148 2.60239 94.3784 0.972159 92.3596 0.972159Z" fill="black"/>
</svg>
