<svg width="50" height="69" viewBox="0 0 50 69" fill="none" xmlns="http://www.w3.org/2000/svg">
<path d="M23.9428 7.49124C17.1692 7.49124 11.4422 11.9748 9.56723 18.1357L1.44711 23.0381C1.44056 22.8198 1.43774 22.6024 1.43774 22.3841C1.43774 10.0268 11.5865 0.00828362 23.9428 0.00828362V7.49124Z" fill="#CA264D"/>
<path d="M11.945 68.5697L48.4734 66.765L49.9979 68.625H11.9469L11.945 68.5697Z" fill="#CA264D"/>
<path d="M22.5821 54.0829L49.9999 54.096L43.7997 61.1123H9.15753L22.5821 54.0829Z" fill="#F9AE2B"/>
<path d="M43.7996 61.1124L49.9614 54.0577L49.9576 68.5869L43.7996 61.1124Z" fill="#F9AE2B"/>
<path d="M9.12671 61.1177L0.330075 68.625C0.305713 68.1621 0.266357 67.6496 0.266357 67.1773C0.266357 64.0458 0.871665 61.0024 1.77775 58.5887C5.59325 47.8281 14.1556 41.3168 14.1556 41.3168C29.591 27.7536 31.1389 28.0619 31.4997 22.5157C31.4997 18.3282 28.1227 14.9269 23.9361 14.9269V7.48423C32.2334 7.48423 38.9611 14.2101 38.9611 22.5064C38.9648 26.8813 37.0599 30.8486 34.0174 33.564L32.387 35.1691C27.8763 39.6789 12.8017 48.8907 9.12671 61.1177Z" fill="#037A79"/>
<path d="M9.56024 18.1299L16.3817 23.0342L1.44012 23.0314L9.56024 18.1299Z" fill="#F9AE2B"/>
<path d="M41.3622 35.9602C43.9352 32.3902 45.352 27.8654 45.0971 22.9526C44.5058 11.5427 35.1273 2.33937 24.125 2.34031H23.9338V-0.000331879C36.2911 -0.000331879 46.1775 10.0172 46.1775 22.3736C46.1775 22.4214 46.184 22.4645 46.1859 22.5122C46.1587 27.4109 44.5443 31.9498 41.8232 35.6013C41.7098 35.7456 41.5927 35.8909 41.4718 36.0352L41.3622 35.9602Z" fill="#464B89"/>
</svg>
