<svg width="107" height="55" viewBox="0 0 107 55" fill="none" xmlns="http://www.w3.org/2000/svg">
<path d="M23.2864 51.0577C36.15 51.0577 46.5629 40.518 46.5629 27.5202C46.5629 14.5124 36.15 3.97266 23.2864 3.97266C10.4229 3.97266 0 14.5124 0 27.5202C0 40.518 10.4229 51.0577 23.2864 51.0577Z" fill="#DC1E25"/>
<path d="M33.7992 35.2262H30.6384V8.04731L30.2883 7.58203L29.7481 7.77421L7.89208 40.4657L7.87207 40.9613L8.29219 41.2243H24.4166V44.9163L24.9068 45.3917H30.1482L30.6384 44.9163V41.2243H33.7992L34.2794 40.7388V35.7117L33.7992 35.2262ZM24.4166 35.2464H18.365L24.4166 26.1834V35.2464Z" fill="white"/>
<path d="M61.3612 0C57.5001 17.1347 57.4701 38.1182 61.3612 55C78.5359 49.5379 94.7254 40.5761 106.999 27.1839C93.7451 14.783 78.936 4.98667 61.3612 0Z" fill="url(#paint0_linear)"/>
<path d="M68.405 40.5915L66.9847 41.3805L64.9241 37.6076L66.3345 36.8186C67.3748 36.232 68.6851 36.6062 69.2553 37.6481C69.8254 38.6899 69.4453 40.0048 68.405 40.5915ZM65.3042 34.9271L63.0436 36.1915L62.9435 36.2421C62.4234 36.5354 62.2233 37.203 62.5134 37.7189L66.9446 45.8108H66.9346C67.2247 46.3267 67.8749 46.5189 68.405 46.2255C68.9152 45.9322 69.1152 45.2747 68.8252 44.7487L68.0249 43.2821L69.4453 42.483C71.5259 41.3097 72.2861 38.6798 71.1458 36.586C70.0055 34.5023 67.3848 33.7538 65.3042 34.9271Z" fill="white"/>
<path d="M79.2479 37.673L76.8273 39.0284L72.9162 31.8873C72.6261 31.3613 71.9759 31.1792 71.4558 31.4725C70.9256 31.7659 70.7456 32.4234 71.0257 32.9392L75.4569 41.0413C75.747 41.5571 76.3972 41.7493 76.9173 41.456L77.8676 40.93V40.9199L80.2882 39.5645C80.7984 39.2712 80.9984 38.6137 80.7083 38.0877C80.4283 37.5617 79.7681 37.3797 79.2479 37.673Z" fill="white"/>
<path d="M83.3224 33.6878L82.8422 29.6317L85.9931 32.1908L83.3224 33.6878ZM82.1521 26.2634C81.812 25.9903 81.3418 25.9498 80.9517 26.1623C80.5716 26.3747 80.3516 26.8096 80.4016 27.2446L81.5619 37.1471C81.6319 37.7439 82.1621 38.1687 82.7522 38.0878C83.3424 38.017 83.7625 37.4708 83.6925 36.874L83.5924 36.0041L87.7636 33.6777L87.7936 33.6574L88.4638 34.2036C88.8139 34.4869 89.294 34.5172 89.6641 34.3048L89.9842 34.0418C90.3543 33.5765 90.2843 32.8887 89.8342 32.5144L82.1521 26.2634Z" fill="white"/>
<path d="M91.9482 20.1511C91.348 20.141 90.8579 20.6265 90.8479 21.2233L90.8179 22.6495L90.7478 26.0785L87.837 24.3084L86.6267 23.5801C86.1165 23.2767 85.4564 23.4486 85.1463 23.9544C84.8362 24.4702 84.9962 25.1378 85.5064 25.4412L85.6564 25.5323L90.6978 28.5769L90.9779 28.7488L91.6181 29.9323L92.4783 31.5001C92.7684 32.0261 93.4286 32.2081 93.9487 31.9148C94.4689 31.6215 94.6589 30.964 94.3689 30.4481L93.5186 28.8702L92.8584 27.6969L92.8684 27.3631L92.9985 21.4256V21.2435C93.0185 20.6468 92.5383 20.1613 91.9482 20.1511Z" fill="white"/>
<defs>
<linearGradient id="paint0_linear" x1="52.4134" y1="9.07735" x2="89.1417" y2="45.3983" gradientUnits="userSpaceOnUse">
<stop stop-color="#EE1C23"/>
<stop offset="0.21573" stop-color="#E51C23"/>
<stop offset="0.464467" stop-color="#CE1C22"/>
<stop offset="0.72664" stop-color="#AD1B20"/>
<stop offset="1" stop-color="#85191D"/>
</linearGradient>
</defs>
</svg>
