<svg width="126" height="42" viewBox="0 0 126 42" fill="none" xmlns="http://www.w3.org/2000/svg">
<path d="M50.7816 3.01465H39.7316C38.1186 3.01465 36.9501 4.18897 36.9501 5.73347C36.9501 7.27796 38.1186 8.45229 39.7316 8.45229H42.4878V16.8258C42.4878 18.6383 43.7198 19.7105 45.2693 19.7105C46.8189 19.7105 48.0509 18.6383 48.0509 16.8258V8.45229H50.8071C52.42 8.45229 53.5886 7.27796 53.5886 5.73347C53.5631 4.18897 52.3947 3.01465 50.7816 3.01465Z" fill="#0079F1"/>
<path d="M66.5054 15.3195L61.3361 4.92931C60.6756 3.61458 59.7992 3.01465 58.6816 3.01465C57.0939 3.01465 55.9001 4.22727 55.9001 5.75899C55.9001 6.30786 56.0144 6.80568 56.3318 7.4056L61.5012 17.7958C62.1616 19.1106 63.038 19.6977 64.1557 19.6977C65.7433 19.6977 66.9373 18.4851 66.9373 16.9534C66.9373 16.4173 66.8103 15.9067 66.5054 15.3195Z" fill="#0079F1"/>
<path d="M66.8865 5.84835C66.8865 7.4439 68.1186 8.68204 69.7062 8.68204C71.2938 8.68204 72.5258 7.4439 72.5258 5.84835C72.5258 4.2528 71.2938 3.01465 69.7062 3.01465C68.1186 3.01465 66.8865 4.2528 66.8865 5.84835Z" fill="#0079F1"/>
<path d="M78.0887 16.8639C78.0887 15.2684 76.857 14.0303 75.2694 14.0303C73.6818 14.0303 72.4498 15.2684 72.4498 16.8639C72.4498 18.4595 73.6818 19.6976 75.2694 19.6976C76.8443 19.6976 78.0887 18.4595 78.0887 16.8639Z" fill="#0079F1"/>
<path d="M78.457 7.4056L83.6264 17.7958C84.2873 19.1106 85.1635 19.6977 86.2812 19.6977C87.8693 19.6977 89.0628 18.4851 89.0628 16.9534C89.0628 16.4045 88.9488 15.9067 88.6307 15.3068L83.4614 4.91654C82.8012 3.61458 81.925 3.01465 80.8073 3.01465C79.2192 3.01465 78.0257 4.22727 78.0257 5.75899C78.0384 6.30786 78.1525 6.80568 78.457 7.4056Z" fill="#0079F1"/>
<path d="M114.693 38.8573C114.059 38.7808 113.5 38.6531 113.004 38.4999C112.051 38.1936 111.315 37.7213 110.82 37.0831C110.325 36.4448 109.994 35.6534 109.817 34.7089H114.084C114.224 35.2322 114.567 35.5896 115.1 35.7938C115.633 35.9981 116.294 36.0875 117.068 36.0875C117.792 36.0875 118.326 36.0236 118.657 35.8832C118.987 35.7428 119.152 35.5258 119.152 35.2194C119.152 35.1046 119.126 35.0025 119.075 34.9004C119.025 34.811 118.948 34.7344 118.847 34.6833C118.644 34.5685 118.263 34.4791 117.717 34.4153C117.171 34.3515 116.37 34.2877 115.329 34.2238C113.601 34.1089 112.318 33.7899 111.48 33.2793C110.642 32.7687 110.223 31.9135 110.223 30.7392C110.223 29.5138 110.744 28.5565 111.772 27.8544C112.801 27.1523 114.287 26.7949 116.205 26.7949C118.148 26.7949 119.685 27.1013 120.777 27.7267C121.882 28.3522 122.606 29.3989 122.936 30.8795H118.86C118.745 30.3945 118.441 30.0754 117.97 29.8967C117.501 29.7308 116.865 29.6414 116.078 29.6414C115.329 29.6414 114.82 29.7308 114.528 29.8967C114.237 30.0626 114.096 30.2797 114.096 30.5349C114.096 30.6753 114.135 30.7902 114.211 30.8924C114.287 30.9944 114.439 31.071 114.668 31.1349C114.897 31.1987 115.24 31.2625 115.697 31.3136C116.141 31.3646 116.738 31.4156 117.475 31.4539C118.098 31.4922 118.669 31.5433 119.19 31.6199C119.698 31.6965 120.167 31.7986 120.574 31.9135C121.4 32.156 122.009 32.5262 122.403 33.0112C122.797 33.4962 123 34.1472 123 34.9642C123 35.3726 122.949 35.7556 122.835 36.1002C122.734 36.4576 122.568 36.7768 122.34 37.0831C121.908 37.683 121.248 38.1553 120.32 38.4871C119.406 38.819 118.224 38.9977 116.789 38.9977C116.027 38.985 115.329 38.9467 114.693 38.8573ZM109.105 38.6531H97.8014V27.1396H108.864V30.1392H101.485V31.6837H108.089V33.9813H101.485V35.5386H109.105V38.6531ZM85.8364 38.6531V27.1396H89.8377V35.0408H96.2771V38.6531H85.8364ZM73.8722 38.6531V27.1396H77.873V35.0408H84.3128V38.6531H73.8722ZM72.3227 38.6531H61.0314V27.1396H72.094V30.1392H64.7147V31.6837H71.3193V33.9813H64.7147V35.5386H72.3354V38.6531H72.3227ZM50.807 38.6531L46.0441 27.1396H50.1719L53.0424 34.4791L56.1288 27.1396H60.2312L55.1508 38.6531H50.807ZM37.039 38.7935C36.442 38.6786 35.9086 38.5127 35.4386 38.2829C34.5114 37.8489 33.8256 37.1469 33.3938 36.1895C32.9619 35.2322 32.7333 34.0069 32.7333 32.5006V27.1269H36.7341V32.4751C36.7341 33.5601 36.9374 34.3132 37.3311 34.7344C37.7248 35.1684 38.3091 35.3726 39.0712 35.3726C39.8332 35.3726 40.3921 35.1556 40.7731 34.7344C41.1542 34.3132 41.3446 33.5601 41.3446 32.4623V27.114H45.3455V32.4879C45.3455 33.2537 45.282 33.943 45.1677 34.5557C45.0407 35.1812 44.8629 35.73 44.6215 36.2151C44.1262 37.1597 43.4149 37.8489 42.475 38.2829C41.5352 38.7169 40.3921 38.9467 39.0584 38.9467C38.2964 38.9722 37.6359 38.9084 37.039 38.7935ZM26.5351 34.9514C27.0686 34.543 27.3226 33.8792 27.3226 32.9601C27.3226 32.0156 27.0559 31.3263 26.5351 30.8924C26.0017 30.4583 25.2905 30.2414 24.4014 30.2414C23.4996 30.2414 22.7756 30.4583 22.2549 30.9051C21.7341 31.3519 21.4674 32.0283 21.4674 32.9347V32.9474C21.4674 33.8154 21.7214 34.4664 22.2422 34.9004C22.763 35.3343 23.4742 35.5514 24.3759 35.5514C25.2905 35.5641 26.0017 35.3599 26.5351 34.9514ZM22.42 38.8062C21.8103 38.7042 21.2388 38.5382 20.718 38.3212C19.6892 37.8872 18.8891 37.2363 18.3303 36.3427C17.7714 35.4492 17.492 34.326 17.492 32.9601V32.9218C17.492 32.2837 17.5682 31.6837 17.7206 31.1349C17.873 30.586 18.0889 30.0882 18.381 29.6414C18.9653 28.7352 19.7781 28.0331 20.8197 27.5481C21.8612 27.063 23.0677 26.8205 24.4268 26.8205C25.0999 26.8205 25.735 26.8843 26.3319 26.9992C26.9289 27.114 27.4878 27.2928 27.9958 27.5353C29.0246 28.0203 29.8375 28.7096 30.4217 29.6159C31.0059 30.5222 31.298 31.6199 31.298 32.8964V32.9601C31.298 33.6367 31.2219 34.2494 31.0821 34.811C30.9425 35.3726 30.7265 35.8704 30.4344 36.3172C29.8628 37.2107 29.05 37.8617 28.0212 38.2957C26.9924 38.7296 25.7731 38.9467 24.3887 38.9467C23.6901 38.9722 23.0296 38.9084 22.42 38.8062ZM6.70872 31.8114V38.6531H3V27.1396H6.73413L12.2337 33.7516V27.1396H15.9297V38.6531H12.3353L6.70872 31.8114Z" fill="#E72A31"/>
</svg>
