<svg width="58" height="58" viewBox="0 0 58 58" fill="none" xmlns="http://www.w3.org/2000/svg">
<path d="M57.9898 29.0598C57.9898 38.5501 57.9932 48.0401 58 57.5297C58 57.908 57.9377 57.9987 57.5412 57.9975C38.522 57.9847 19.5028 57.9847 0.483594 57.9975C0.0474776 57.9998 0.00216675 57.8763 0.00216675 57.4957C0.0134945 38.4992 0.0134945 19.5003 0.00216675 0.499239C0.00216675 0.10277 0.0690002 0.00195312 0.489258 0.00195312C19.4896 0.0155464 38.4899 0.0155464 57.4903 0.00195312C57.9377 0.00195312 58 0.127691 57.9989 0.533222C57.9875 10.0417 57.9845 19.5505 57.9898 29.0598ZM13.524 23.26V23.2985C12.1477 23.2985 10.7691 23.2396 9.39736 23.3178C8.35408 23.3767 7.70501 24.2432 7.77184 25.2627C7.83188 26.2562 8.55798 26.9562 9.58427 26.9913C10.055 27.0231 10.5273 27.0231 10.998 26.9913C11.4941 26.9426 11.5802 27.1397 11.5734 27.5917C11.5474 29.3079 11.5553 31.024 11.5666 32.739C11.5745 33.7585 12.1081 34.4744 12.9724 34.6738C14.3317 34.9876 15.3807 34.1357 15.392 32.6812C15.4048 30.9443 15.4048 29.2097 15.392 27.4773C15.392 27.1227 15.4724 26.9732 15.8587 26.9925C16.4248 27.024 16.9924 27.019 17.5578 26.9777C17.9947 26.9441 18.4031 26.7481 18.7027 26.4284C19.0023 26.1087 19.1714 25.6884 19.1766 25.2503C19.2196 24.0495 18.4675 23.294 17.1523 23.2691C15.938 23.2407 14.7282 23.26 13.524 23.26ZM20.8123 25.2106C20.7862 25.5505 20.9142 25.9254 21.0932 26.2845C22.2653 28.6422 23.4381 30.9998 24.6116 33.3575C24.7543 33.6662 24.9494 33.9479 25.1882 34.1901C25.7455 34.727 26.4025 34.8562 27.1139 34.6149C27.8253 34.3736 28.2285 33.8786 28.3452 33.1423C28.4302 32.5952 28.2829 32.1013 28.0416 31.6198C26.8787 29.2984 25.7172 26.9759 24.5572 24.6522C24.4307 24.3784 24.2642 24.1249 24.0633 23.9C23.812 23.616 23.4795 23.416 23.1107 23.3271C22.742 23.2381 22.3549 23.2645 22.0017 23.4027C21.2722 23.6701 20.8259 24.3237 20.8123 25.2106ZM43.6138 32.7605C43.624 32.4071 43.4688 32.0265 43.2831 31.6527C42.1246 29.3282 40.9665 27.0042 39.8089 24.6805C39.6948 24.4427 39.5566 24.2172 39.3965 24.0076C39.1299 23.6608 38.7508 23.4177 38.3243 23.3202C37.8979 23.2226 37.4508 23.2767 37.0599 23.4732C36.669 23.6696 36.3588 23.9961 36.1826 24.3965C36.0064 24.7969 35.9753 25.2462 36.0945 25.6671C36.1768 25.9563 36.2872 26.2366 36.4241 26.5042C37.5463 28.763 38.6727 31.0191 39.8032 33.2726C39.9446 33.5811 40.1309 33.867 40.356 34.121C40.61 34.4031 40.9448 34.5999 41.3148 34.6847C41.6847 34.7694 42.0719 34.7379 42.4233 34.5945C43.1392 34.3181 43.6048 33.6294 43.6138 32.7605ZM45.4104 25.6105C45.2405 25.6105 45.0706 25.6105 44.9018 25.6105C44.3354 25.6343 44.0567 25.8869 44.0522 26.3762C44.0477 26.8656 44.3286 27.142 44.8803 27.1692C45.2382 27.185 45.5973 27.1862 45.9541 27.1692C46.2498 27.1579 46.3585 27.2825 46.3495 27.5713C46.337 27.9293 46.3336 28.2884 46.3495 28.6452C46.3823 29.2036 46.6587 29.4857 47.1424 29.4868C47.6261 29.488 47.8934 29.1923 47.915 28.6384C47.9286 28.2804 47.9319 27.9213 47.915 27.5645C47.9014 27.2689 48.0226 27.159 48.3114 27.1692C48.6875 27.1816 49.0659 27.1805 49.4442 27.1692C49.929 27.1465 50.2213 26.8962 50.2371 26.3944C50.2519 25.9492 49.9449 25.6467 49.4442 25.6196C49.0865 25.6003 48.728 25.6003 48.3703 25.6196C48.0305 25.6388 47.8889 25.5267 47.9172 25.1721C47.9389 24.7948 47.9389 24.4166 47.9172 24.0393C47.8912 23.5738 47.6216 23.2974 47.1617 23.286C46.7018 23.2747 46.4288 23.5522 46.3687 24.0076C46.3513 24.2337 46.3463 24.4606 46.354 24.6873C46.3325 25.7442 46.4695 25.5946 45.4047 25.6105H45.4104ZM32.234 25.205C32.236 24.9505 32.1871 24.6981 32.0903 24.4628C31.9934 24.2274 31.8505 24.0138 31.67 23.8344C31.4895 23.655 31.2749 23.5135 31.0389 23.4182C30.803 23.3229 30.5503 23.2756 30.2958 23.2793C30.0407 23.2779 29.7878 23.327 29.5517 23.4237C29.3156 23.5203 29.1009 23.6627 28.92 23.8426C28.739 24.0225 28.5954 24.2363 28.4974 24.4719C28.3993 24.7074 28.3488 24.96 28.3486 25.2152C28.3483 25.4745 28.3995 25.7313 28.4993 25.9707C28.5991 26.2101 28.7455 26.4273 28.9299 26.6096C29.1143 26.792 29.3332 26.9358 29.5737 27.0329C29.8142 27.1299 30.0716 27.1782 30.331 27.1749C30.5852 27.1712 30.8362 27.1172 31.0695 27.016C31.3028 26.9148 31.5137 26.7684 31.6901 26.5853C31.8665 26.4021 32.0049 26.1859 32.0973 25.9489C32.1897 25.712 32.2342 25.4592 32.2284 25.205H32.234ZM36.0458 32.7945C36.0458 31.6935 35.2211 30.8416 34.1427 30.8337C33.8825 30.8263 33.6234 30.871 33.3807 30.9651C33.138 31.0593 32.9166 31.201 32.7294 31.382C32.5423 31.563 32.3932 31.7795 32.291 32.019C32.1888 32.2584 32.1355 32.5158 32.1342 32.7762C32.1329 33.0365 32.1837 33.2945 32.2836 33.5349C32.3834 33.7753 32.5303 33.9933 32.7157 34.1761C32.901 34.359 33.121 34.5029 33.3628 34.5994C33.6046 34.696 33.8632 34.7432 34.1235 34.7384C34.3782 34.7399 34.6307 34.6904 34.8659 34.5927C35.1012 34.495 35.3145 34.3512 35.4932 34.1696C35.6718 33.9881 35.8123 33.7726 35.9063 33.5358C36.0002 33.299 36.0457 33.0458 36.0401 32.7911L36.0458 32.7945Z" fill="#027BF1"/>
<path d="M13.5241 23.2595C14.7305 23.2595 15.938 23.2403 17.1489 23.2595C18.4641 23.2845 19.2162 24.04 19.1732 25.2407C19.168 25.6789 18.9989 26.0992 18.6993 26.4189C18.3997 26.7386 17.9913 26.9346 17.5545 26.9682C16.989 27.0095 16.4214 27.0144 15.8553 26.983C15.469 26.9637 15.3852 27.1132 15.3886 27.4678C15.403 29.2047 15.403 30.9393 15.3886 32.6717C15.3773 34.1262 14.3306 34.978 12.969 34.6643C12.1047 34.4649 11.5712 33.7513 11.5632 32.7295C11.5519 31.0145 11.544 29.2983 11.57 27.5822C11.5768 27.1291 11.4907 26.9331 10.9946 26.9818C10.5239 27.0135 10.0516 27.0135 9.58089 26.9818C8.5614 26.9467 7.82963 26.2466 7.76846 25.2532C7.70616 24.2337 8.3507 23.3671 9.39398 23.3082C10.7658 23.2301 12.1443 23.289 13.5207 23.289L13.5241 23.2595Z" fill="#FCFDFE"/>
<path d="M20.8123 25.2112C20.8259 24.3242 21.2722 23.6706 22.0074 23.3988C22.3606 23.2606 22.7477 23.2342 23.1164 23.3231C23.4851 23.4121 23.8176 23.612 24.069 23.8961C24.2699 24.121 24.4363 24.3745 24.5629 24.6482C25.7244 26.9704 26.8858 29.293 28.0473 31.6159C28.2886 32.0973 28.4358 32.5912 28.3509 33.1383C28.2376 33.8792 27.8196 34.3844 27.1196 34.6109C26.4195 34.8375 25.7455 34.7242 25.1939 34.1861C24.955 33.944 24.7599 33.6623 24.6173 33.3536C23.4415 30.9974 22.2687 28.6397 21.0989 26.2805C20.9142 25.926 20.7862 25.5556 20.8123 25.2112Z" fill="#FCFDFE"/>
<path d="M43.6138 32.7606C43.6138 33.6294 43.1449 34.3181 42.4233 34.5945C42.0719 34.7379 41.6847 34.7694 41.3148 34.6847C40.9448 34.5999 40.61 34.4031 40.356 34.121C40.1309 33.867 39.9446 33.5811 39.8032 33.2726C38.6727 31.0176 37.5445 28.763 36.4185 26.5088C36.2816 26.2412 36.1711 25.9608 36.0888 25.6717C35.9696 25.2508 36.0008 24.8015 36.177 24.4011C36.3531 24.0007 36.6634 23.6742 37.0542 23.4777C37.4451 23.2813 37.8922 23.2272 38.3187 23.3247C38.7451 23.4223 39.1243 23.6653 39.3909 24.0122C39.551 24.2218 39.6892 24.4472 39.8032 24.685C40.9647 27.0072 42.1227 29.3313 43.2774 31.6572C43.4632 32.0265 43.6138 32.4071 43.6138 32.7606Z" fill="#FCFDFE"/>
<path d="M45.4048 25.6115C46.4696 25.5957 46.3268 25.7452 46.3427 24.6838C46.335 24.4571 46.34 24.2302 46.3574 24.0041C46.4152 23.551 46.6837 23.2712 47.1504 23.2826C47.6171 23.2939 47.8799 23.5703 47.9059 24.0359C47.9276 24.4131 47.9276 24.7913 47.9059 25.1686C47.8833 25.5232 48.0283 25.6353 48.359 25.6161C48.7167 25.5968 49.0752 25.5968 49.4329 25.6161C49.9313 25.6433 50.2383 25.9457 50.2258 26.3909C50.2089 26.8927 49.9166 27.143 49.4329 27.1657C49.0568 27.1827 48.6785 27.1838 48.3001 27.1657C48.0113 27.1555 47.8901 27.2654 47.9037 27.561C47.9195 27.9179 47.9161 28.2769 47.9037 28.6349C47.8821 29.1888 47.6057 29.4845 47.1311 29.4833C46.6565 29.4822 46.3756 29.2002 46.3382 28.6417C46.3178 28.2849 46.3212 27.9258 46.3382 27.5678C46.3472 27.2812 46.2385 27.1544 45.9428 27.1657C45.586 27.1793 45.2269 27.1782 44.869 27.1657C44.3173 27.1408 44.0353 26.8632 44.0409 26.3728C44.0466 25.8823 44.3241 25.6308 44.8905 25.607C45.0649 25.6036 45.2349 25.6115 45.4048 25.6115Z" fill="#19315E"/>
<path d="M32.2284 25.2058C32.2336 25.4601 32.1884 25.713 32.0954 25.9497C32.0024 26.1865 31.8634 26.4024 31.6865 26.5852C31.5096 26.7679 31.2982 26.9138 31.0645 27.0144C30.8309 27.1149 30.5797 27.1682 30.3253 27.1712C30.066 27.1745 29.8086 27.1262 29.568 27.0292C29.3275 26.9322 29.1087 26.7883 28.9243 26.606C28.7398 26.4236 28.5934 26.2065 28.4936 25.9671C28.3939 25.7277 28.3426 25.4708 28.343 25.2115C28.3431 24.9563 28.3937 24.7038 28.4917 24.4682C28.5898 24.2327 28.7334 24.0188 28.9143 23.8389C29.0952 23.659 29.3099 23.5167 29.546 23.42C29.7822 23.3233 30.0351 23.2742 30.2902 23.2756C30.5451 23.2719 30.7981 23.3193 31.0343 23.4149C31.2706 23.5106 31.4854 23.6525 31.666 23.8323C31.8466 24.0122 31.9894 24.2264 32.086 24.4623C32.1825 24.6981 32.231 24.951 32.2284 25.2058Z" fill="#FCFDFE"/>
<path d="M36.0401 32.7927C36.0453 33.0478 35.9992 33.3014 35.9045 33.5384C35.8097 33.7754 35.6684 33.9909 35.4888 34.1722C35.3092 34.3535 35.0949 34.4969 34.8589 34.5938C34.6228 34.6908 34.3696 34.7393 34.1144 34.7365C33.8541 34.7414 33.5955 34.6941 33.3537 34.5976C33.112 34.501 32.892 34.3571 32.7066 34.1743C32.5213 33.9915 32.3744 33.7734 32.2745 33.533C32.1746 33.2926 32.1239 33.0346 32.1251 32.7743C32.1264 32.514 32.1798 32.2565 32.282 32.0171C32.3842 31.7777 32.5333 31.5611 32.7204 31.3802C32.9075 31.1992 33.129 31.0574 33.3717 30.9633C33.6144 30.8691 33.8735 30.8244 34.1337 30.8318C35.2155 30.8398 36.0435 31.6916 36.0401 32.7927Z" fill="#FCFDFE"/>
</svg>
