<svg width="118" height="30" viewBox="0 0 118 30" fill="none" xmlns="http://www.w3.org/2000/svg">
<path d="M79.7682 0.958614H66.5949C61.9969 0.958614 58.2559 4.61796 58.2559 9.11403V29.1309H64.187V9.11403C64.187 7.81404 65.2667 6.75586 66.5949 6.75586H79.7682C81.0964 6.75586 82.1786 7.81404 82.1786 9.11403V29.1309H88.1085V9.11403C88.1085 4.61796 84.3662 0.958614 79.7682 0.958614Z" fill="#70ADB5"/>
<path d="M92.0576 0.999302V6.62897H106.704C102.44 11.5117 91.6316 23.8866 91.6316 23.8866C91.1676 24.4828 90.6535 25.3793 90.891 26.7057C91.1162 27.9685 92.5032 28.9238 93.7861 28.9453H117.41L115.172 23.3157H99.7013C104.389 17.9493 114.181 6.7379 114.181 6.7379C115.447 5.17218 115.276 3.81474 115.276 3.81474C115.276 2.19395 113.581 0.999302 111.991 0.999302H92.0576Z" fill="#70ADB5"/>
<path d="M50.7171 0.931591C50.7171 0.931591 41.9423 20.6611 40.9568 22.8733C40.33 21.444 34.847 8.30414 34.1161 6.71567C33.3853 5.1284 32.0865 0.77239 26.4994 0.77239L2.30491 0.76281L0.589844 6.51457H12.3333V28.9051H18.0061V6.51457H26.1896C27.8937 6.51457 28.5964 8.46215 28.9208 9.17678C29.2452 9.89141 37.1141 27.1634 37.1141 27.1634C37.7581 28.5293 39.0985 29.4043 41.1319 29.4043C43.0624 29.4043 44.0895 28.6226 44.6966 27.4675L44.7126 27.44L56.9273 0.931591H50.7171Z" fill="#1C1719"/>
</svg>
