<svg width="111" height="25" viewBox="0 0 111 25" fill="none" xmlns="http://www.w3.org/2000/svg">
<path d="M48.7892 8.38453C50.292 10.2331 50.9281 12.7349 50.9281 15.036C50.9196 20.1591 48.0207 24.4113 42.5049 24.4198C37.0829 24.4113 34.4232 20.0481 34.4147 15.1342C34.4232 10.1862 37.0488 5.78883 42.539 5.78029C44.9682 5.77603 47.2053 6.42495 48.7892 8.38453ZM42.5348 21.7259C46.4625 21.7259 47.7176 18.3916 47.739 14.8994C47.739 13.3966 47.406 11.5694 46.5735 10.2972C45.7282 8.97796 44.2894 8.46565 42.7311 8.46565C40.9167 8.47846 39.6317 9.06334 38.701 10.6216C37.9581 11.8682 37.5995 13.6058 37.5995 15.0317C37.6209 18.2934 38.8333 21.7217 42.5348 21.7259Z" fill="#ED2E4D"/>
<path d="M75.2799 0V4.23082H70.7203V0H75.2799ZM75.2799 6.18186V23.9633H70.7203V6.18186H75.2799Z" fill="#80298D"/>
<path d="M33.3046 6.24194C32.3227 6.24621 31.1999 6.61336 30.0814 6.60909C28.9244 6.61336 27.7802 6.24621 26.9264 6.24194C26.1537 6.24194 25.5816 6.80975 25.5773 7.55686C25.5816 8.42352 26.2049 8.99987 26.8922 8.99987C27.2807 8.99987 27.5582 8.92302 27.7845 8.81202C27.9724 8.74798 28.0834 8.70102 28.1901 8.70102C28.3096 8.70529 28.4591 8.77787 28.4719 9.18345C28.4804 9.49937 28.2584 10.033 27.9852 10.7289L24.4972 20.4799L20.5524 9.90068C20.45 9.60183 20.2963 9.19625 20.2963 9.01268C20.3176 8.76933 20.3731 8.71383 20.6165 8.69675C20.8427 8.69675 21.0519 8.75225 21.3251 8.81629C21.5471 8.91875 21.8332 8.99133 22.0765 8.99133C22.6315 8.97852 23.4342 8.45767 23.4512 7.54833C23.4512 6.7884 22.8322 6.2334 21.7777 6.2334C20.6976 6.23767 19.5662 6.60482 18.4519 6.60055C17.3035 6.60482 16.4881 6.23767 15.3994 6.2334C14.8829 6.2334 14.4901 6.35721 14.2254 6.60482C13.9607 6.84817 13.8497 7.19398 13.854 7.54833C13.854 8.3851 14.3449 8.98706 14.9682 8.99133C15.2671 8.99133 15.5104 8.91021 15.7282 8.80348C15.8989 8.74798 16.074 8.69248 16.2618 8.69248C16.5137 8.67114 16.8254 8.94437 17.3249 10.2166L21.9399 22.1577C22.3327 23.1567 22.9346 24.2197 24.3008 24.2197H24.3179C25.7225 24.2197 26.3415 23.225 26.7599 22.1619L31.2768 10.5966C31.5969 9.81529 31.7805 9.30725 31.9171 9.01268C32.0666 8.69675 32.1135 8.70956 32.1434 8.70956C32.2544 8.70529 32.485 8.76506 32.7112 8.8291C32.9418 8.93156 33.2235 9.00414 33.4711 9.00414C34.0859 8.99987 34.8373 8.46194 34.8458 7.56113C34.8458 6.80121 34.2439 6.24194 33.3046 6.24194Z" fill="#ED2E4D"/>
<path d="M11.984 14.8527C13.0812 14.8527 13.427 15.8347 13.4313 16.6629C13.427 18.6011 13.2776 20.4241 12.5006 21.8031C11.7279 23.182 10.2977 24.0572 7.92399 24.0572H7.8941C6.28887 24.0572 4.60252 23.4723 3.78282 21.9482C3.26624 20.9492 3.09547 20.0826 3.09547 17.3631V10.0157C3.01436 9.02523 3.16805 9.1533 2.1477 9.06792C1.47316 9.06792 0.960852 9.02096 0.57662 8.79896C0.18385 8.57695 -0.00826598 8.1543 0.000272505 7.62491C0.0130802 6.92476 0.653467 6.2246 1.4817 6.21179H2.6472C2.94605 6.20752 2.99728 6.17337 3.01863 6.13068C3.06559 6.07091 3.09974 5.82329 3.09547 5.36221V2.63844C3.09547 2.16455 3.12963 1.70347 3.35163 1.32778C3.56936 0.947816 4.00055 0.717277 4.61106 0.725815C5.20875 0.717277 5.62714 0.960624 5.83633 1.34059C6.04979 1.70774 6.08394 2.15601 6.08821 2.60428V5.8916C6.08394 6.13495 6.11383 6.17764 6.1181 6.17764C6.1181 6.17764 6.20348 6.21179 6.43829 6.20752H9.75976C10.4557 6.21179 10.9338 6.30999 11.2583 6.57468C11.5742 6.83937 11.6724 7.23214 11.6724 7.65053C11.6724 7.99634 11.5827 8.38057 11.2583 8.6538C10.9338 8.91849 10.43 9.05938 9.66157 9.05938H6.73714C6.35718 9.05511 6.16933 9.0978 6.14798 9.12769C6.13091 9.13196 6.08821 9.21307 6.09248 9.51192V17.5552C6.13518 20.5479 6.66883 21.2609 8.30395 21.295C10.1227 21.295 10.4258 19.8136 10.4471 18.2212V17.1624C10.4471 16.3811 10.5368 15.8219 10.7844 15.4248C11.0235 15.0192 11.4675 14.8399 11.984 14.8527Z" fill="#ED2E4D"/>
<path d="M57.7589 0V13.32L64.2353 6.18186H69.3584L62.9801 12.9913L69.7213 23.9633H64.5982L59.9404 16.2615L57.7589 18.6054V23.959H53.1993V0H57.7589Z" fill="#00AAD9"/>
<path d="M89.3897 23.959V21.7134C88.2669 23.6644 86.1194 24.3902 84.2666 24.3902C79.9034 24.3902 76.6332 20.7571 76.6332 15.0704C76.6332 9.48626 79.8394 5.78483 84.2666 5.78483C86.5122 5.78483 88.4291 6.80944 89.3897 8.46164V0H93.9492V23.959H89.3897ZM89.5562 15.0704C89.5562 11.5013 87.904 9.28561 85.3937 9.28561C82.9132 9.28561 81.4275 11.6337 81.4275 15.1003C81.4275 18.5712 82.9132 20.8851 85.3937 20.8851C87.8997 20.8851 89.5562 18.7036 89.5562 15.0704Z" fill="#F28020"/>
<path d="M106.373 11.536C106.044 10.0503 104.652 8.99156 102.441 8.99156C100.622 8.99156 99.4352 9.61914 99.4352 10.7121C99.4352 11.6684 100.131 12.3643 101.946 12.7613L104.324 13.2907C107.991 14.1189 111.001 14.977 111.001 18.6443C111.001 22.2134 107.333 24.395 103.171 24.395C98.6753 24.395 95.3709 22.1494 94.944 18.085H99.337C99.6017 19.8013 100.823 21.0906 103.303 21.0906C105.387 21.0906 106.642 20.3648 106.642 19.0755C106.642 17.752 105.254 17.2568 103.602 16.8939L100.959 16.3304C97.4884 15.6046 95.277 14.247 95.277 11.0109C95.277 7.80471 98.7137 5.72559 102.68 5.72559C106.514 5.72559 110.049 7.44182 110.642 11.5403H106.373V11.536Z" fill="#AACE36"/>
</svg>
