<svg width="94" height="50" viewBox="0 0 94 50" fill="none" xmlns="http://www.w3.org/2000/svg">
<g clip-path="url(#clip0)">
<path fill-rule="evenodd" clip-rule="evenodd" d="M-0.0113525 0H94.0159V50.0017H-0.0113525V0Z" fill="#CF2424"/>
<path fill-rule="evenodd" clip-rule="evenodd" d="M35.0272 12.9384V10.1572H23.6953V12.9384H27.8002V24.5481H30.9235V12.9384H35.0272Z" fill="white"/>
<path fill-rule="evenodd" clip-rule="evenodd" d="M46.9713 25.0321L40.1731 9.97461H43.481L46.8491 17.5342L46.9713 18.0181L47.0934 17.5342L50.4632 9.97461H53.7705L46.9713 25.0321Z" fill="white"/>
<path fill-rule="evenodd" clip-rule="evenodd" d="M59.959 10.1572V24.5481H62.8976V20.1352L63.5719 20.1952C67.5535 20.1952 69.5145 17.5946 69.5145 15.1157C69.5145 12.6362 67.6149 10.1572 63.8179 10.1572H59.959ZM62.8976 12.9384H64.0003C65.6545 12.9984 66.5139 13.544 66.6355 15.2357C66.5139 16.8696 65.5318 17.4129 63.8179 17.474H62.8976V12.9384Z" fill="white"/>
<path fill-rule="evenodd" clip-rule="evenodd" d="M38.7624 6.65087H55.1797V27.8725H38.7624V6.65087ZM56.405 6.65087H72.8223V27.8725H56.405V6.65087ZM21.1834 6.65087H37.599V27.8725H21.1834V6.65087ZM19.9586 5.5625H73.9857V28.9014H19.9586V5.5625Z" fill="white"/>
<path fill-rule="evenodd" clip-rule="evenodd" d="M57.811 43.8494H55.1896L55.1813 32.5889L62.2586 38.7431V32.9822H64.8728V44.3731L57.8193 37.957L57.811 43.8494Z" fill="white"/>
<path fill-rule="evenodd" clip-rule="evenodd" d="M12.3831 35.0774V37.8269C13.6571 37.8269 14.7923 37.7756 14.7923 36.4145C14.7923 35.0534 12.9248 35.0774 12.3831 35.0774ZM12.3831 39.9218V43.8497H9.80095C9.80095 43.8497 9.78824 34.3791 9.78824 32.9825C11.9156 32.9825 14.778 32.7774 16.1912 33.899C18.7745 35.9486 16.7743 40.5263 12.3831 39.9218Z" fill="white"/>
<path fill-rule="evenodd" clip-rule="evenodd" d="M35.8228 32.9824V41.3614H40.0675L40.0603 43.8496H33.2097L33.2169 32.9824H35.8228Z" fill="white"/>
<path fill-rule="evenodd" clip-rule="evenodd" d="M71.2399 32.9648V43.8561L68.4537 43.8484L68.446 32.9812L71.2399 32.9648Z" fill="white"/>
<path fill-rule="evenodd" clip-rule="evenodd" d="M24.8407 35.2593C23.2506 35.2593 21.9618 36.7044 21.9618 38.4873C21.9618 40.2701 23.2506 41.7152 24.8407 41.7152C26.4314 41.7152 27.7203 40.2701 27.7203 38.4873C27.7203 36.7044 26.4314 35.2593 24.8407 35.2593ZM30.5291 38.4867C30.5291 41.7011 27.9823 44.3066 24.8407 44.3066C21.6992 44.3066 19.1524 41.7011 19.1524 38.4867C19.1524 35.2729 21.6992 32.668 24.8407 32.668C27.9823 32.668 30.5291 35.2729 30.5291 38.4867Z" fill="white"/>
<path fill-rule="evenodd" clip-rule="evenodd" d="M47.0406 35.2593C45.4505 35.2593 44.1616 36.7044 44.1616 38.4873C44.1616 40.2701 45.4505 41.7152 47.0406 41.7152C48.6312 41.7152 49.9201 40.2701 49.9201 38.4873C49.9201 36.7044 48.6312 35.2593 47.0406 35.2593ZM52.7289 38.4867C52.7289 41.7011 50.1821 44.3066 47.0406 44.3066C43.8991 44.3066 41.3522 41.7011 41.3522 38.4867C41.3522 35.2729 43.8991 32.668 47.0406 32.668C50.1821 32.668 52.7289 35.2729 52.7289 38.4867Z" fill="white"/>
<path fill-rule="evenodd" clip-rule="evenodd" d="M81.971 43.8495H84.6659L79.2269 32.6211L73.5308 43.8495H76.2445L76.9393 42.2516H81.2624L81.971 43.8495ZM79.1296 37.1507L80.4483 40.3154H77.7484L79.1296 37.1507Z" fill="white"/>
</g>
<defs>
<clipPath id="clip0">
<rect width="94" height="50" fill="white"/>
</clipPath>
</defs>
</svg>
