<svg width="110" height="55" viewBox="0 0 110 55" fill="none" xmlns="http://www.w3.org/2000/svg">
<path d="M110 0H0V55H110V0Z" fill="#0080DE"/>
<path d="M48.0301 26.2326H44.7037C44.5287 26.2326 44.3869 26.3744 44.3869 26.5494V28.2918C44.3869 28.4667 44.5287 28.6086 44.7037 28.6086H48.0301C48.205 28.6086 48.3469 28.4667 48.3469 28.2918V26.5494C48.3469 26.3744 48.205 26.2326 48.0301 26.2326ZM60.5437 20.847H58.6429C58.4679 20.847 58.3261 20.9888 58.3261 21.1638V29.3166L54.5442 21.2126C54.4401 20.9895 54.2163 20.847 53.9701 20.847H51.9901C51.6401 20.847 51.3565 21.1306 51.3565 21.4806V33.8358C51.3565 34.0107 51.4983 34.1526 51.6733 34.1526H53.5741C53.749 34.1526 53.8909 34.0107 53.8909 33.8358V25.683L57.6727 33.7869C57.7768 34.01 58.0007 34.1526 58.2469 34.1526H60.2269C60.5768 34.1526 60.8605 33.8689 60.8605 33.519V21.1638C60.8605 20.9888 60.7186 20.847 60.5437 20.847ZM67.1965 20.847C66.4091 20.847 65.7709 21.4852 65.7709 22.2726V32.727C65.7709 33.5143 66.4091 34.1526 67.1965 34.1526H73.5325C73.7074 34.1526 73.8493 34.0107 73.8493 33.8358V32.0934C73.8493 31.9184 73.7074 31.7766 73.5325 31.7766H68.6221V23.223H72.7721C72.9476 23.223 73.1089 23.1262 73.1915 22.9714L74.3245 20.847H67.1965ZM69.7309 26.2326C69.5559 26.2326 69.4141 26.3744 69.4141 26.5494V28.2918C69.4141 28.4667 69.5559 28.6086 69.7309 28.6086H73.0573C73.2322 28.6086 73.3741 28.4667 73.3741 28.2918V26.5494C73.3741 26.3744 73.2322 26.2326 73.0573 26.2326H69.7309ZM84.8439 20.847C84.6593 20.847 84.4914 20.9539 84.4133 21.1212L82.5613 25.0898L80.7093 21.1212C80.6311 20.9539 80.4632 20.847 80.2786 20.847H77.9413C77.7021 20.847 77.5492 21.1018 77.6617 21.3128L80.9614 27.4998L77.6617 33.6867C77.5492 33.8977 77.7021 34.1526 77.9413 34.1526H80.2786C80.4632 34.1526 80.6311 34.0456 80.7093 33.8783L82.5613 29.9097L84.4133 33.8783C84.4914 34.0456 84.6593 34.1526 84.8439 34.1526H87.1813C87.4204 34.1526 87.5733 33.8977 87.4608 33.6867L84.1611 27.4998L87.7093 20.847H84.8439ZM91.1149 20.847C90.9399 20.847 90.7981 20.9888 90.7981 21.1638V22.9062C90.7981 23.0811 90.9399 23.223 91.1149 23.223H93.8077V33.8358C93.8077 34.0107 93.9495 34.1526 94.1245 34.1526H96.3421C96.517 34.1526 96.6589 34.0107 96.6589 33.8358V23.223H98.7497C98.9252 23.223 99.0864 23.1262 99.1691 22.9714L100.302 20.847H91.1149ZM23.6365 18.1953C23.5726 18.1953 23.5096 18.1987 23.4474 18.2049C23.4474 18.2049 11.4089 19.4086 11.409 19.4087C10.448 19.5037 9.69727 20.3141 9.69727 21.3V29.0838C9.69727 33.4579 13.2432 37.0038 17.6173 37.0038C21.9914 37.0038 25.5373 33.4579 25.5373 29.0838V20.0961C25.5373 19.0463 24.6863 18.1953 23.6365 18.1953ZM23.9533 29.0838C23.9533 32.583 21.1165 35.4198 17.6173 35.4198C14.118 35.4198 11.2813 32.583 11.2813 29.0838V21.2921C11.2813 21.1293 11.4046 20.993 11.5665 20.9768L23.6049 19.773C23.7915 19.7543 23.9533 19.9008 23.9533 20.0882V29.0838ZM13.6573 29.0838C13.6573 31.2708 15.4302 33.0438 17.6173 33.0438C19.8043 33.0438 21.5773 31.2708 21.5773 29.0838V22.1142L13.6573 22.9062V29.0838ZM41.0605 20.847H38.8429C38.6679 20.847 38.5261 20.9888 38.5261 21.1638V29.7174C38.5261 31.0821 37.885 31.7766 36.6253 31.7766C35.3655 31.7766 34.7245 31.0821 34.7245 29.7174V21.1638C34.7245 20.9888 34.5826 20.847 34.4077 20.847H32.1901C32.0151 20.847 31.8733 20.9888 31.8733 21.1638V29.7174C31.8733 32.8667 33.4759 34.4694 36.6253 34.4694C39.7746 34.4694 41.3773 32.8667 41.3773 29.7174V21.1638C41.3773 20.9888 41.2354 20.847 41.0605 20.847Z" fill="white"/>
</svg>
