<svg width="131" height="38" viewBox="0 0 131 38" fill="none" xmlns="http://www.w3.org/2000/svg">
<path d="M35.1997 11.8001C34.467 11.3857 33.875 10.7618 33.4994 10.0086C33.1051 9.20308 32.9095 8.31487 32.9289 7.41827V0.206484H35.542V7.22428C35.542 8.10293 35.7474 8.78759 36.1468 9.26686C36.5462 9.74612 37.1395 9.97434 37.8813 9.97434C38.6344 9.97434 39.2163 9.73471 39.6157 9.26686C40.0265 8.78759 40.2205 8.11434 40.2205 7.22428V0.206484H42.8337V7.42968C42.8462 8.3256 42.6509 9.21223 42.2631 10.02C41.8875 10.7733 41.2955 11.3971 40.5629 11.8115C39.8097 12.2451 38.9197 12.462 37.8813 12.462C36.8428 12.4505 35.9414 12.2337 35.1997 11.8001ZM50.3878 5.68379C50.8629 5.49293 51.266 5.15764 51.5403 4.72526C51.8256 4.29164 51.9625 3.75532 51.9625 3.10489C51.9743 2.69226 51.8848 2.28302 51.7017 1.91301C51.5187 1.54299 51.2478 1.22348 50.9127 0.982436C50.2166 0.457528 49.2809 0.195074 48.117 0.195074H44.1231V12.2223H48.2767C49.1326 12.2223 49.8857 12.074 50.5247 11.7659C51.1315 11.4909 51.6464 11.0473 52.0081 10.4878C52.361 9.93663 52.5436 9.29365 52.533 8.63925C52.533 7.21287 51.8256 6.23152 50.3878 5.68379ZM46.7362 2.51152H48.1056C48.4659 2.49613 48.8193 2.61393 49.0983 2.84244C49.2217 2.96388 49.318 3.11001 49.3809 3.27127C49.4438 3.43252 49.472 3.60525 49.4635 3.77814C49.4635 4.17753 49.338 4.49704 49.0983 4.71385C48.8473 4.94207 48.5278 5.04477 48.1056 5.04477H46.7362V2.51152ZM49.4749 9.55214C49.1782 9.81459 48.7446 9.94011 48.1854 9.94011H46.7362V6.91618H48.174C48.7332 6.91618 49.1668 7.0417 49.4635 7.30416C49.7716 7.56661 49.9199 7.93177 49.9199 8.43385C49.9348 8.64174 49.9025 8.8503 49.8254 9.04395C49.7484 9.2376 49.6285 9.41132 49.4749 9.55214ZM53.5486 0.206484H56.1618V12.2337H53.5486V0.206484ZM58.7064 11.7545C57.9553 11.3047 57.3797 10.6124 57.0746 9.79177L59.1515 8.23986C59.3241 8.74911 59.6462 9.19449 60.0758 9.5179C60.4786 9.82695 60.9716 9.99531 61.4793 9.99717C61.8606 10.012 62.2353 9.89519 62.5405 9.66625C62.6741 9.55801 62.7807 9.42027 62.852 9.26384C62.9233 9.10741 62.9573 8.93657 62.9513 8.76477C62.9496 8.58188 62.9067 8.40172 62.8257 8.23773C62.7447 8.07374 62.6277 7.93015 62.4835 7.81766C62.1754 7.5552 61.6048 7.26993 60.7718 6.97324C59.7334 6.59667 58.9346 6.12882 58.3755 5.5925C57.8164 5.04477 57.5425 4.31446 57.5425 3.39017C57.5313 2.77463 57.7063 2.17007 58.0446 1.65569C58.3865 1.13036 58.8688 0.711338 59.4367 0.446117C60.0667 0.145194 60.7585 -0.00334598 61.4565 0.0124968C62.3808 0.0124968 63.191 0.195073 63.8642 0.571638C64.5371 0.937499 65.0705 1.51506 65.3819 2.21483L63.3051 3.66403C62.9057 2.71692 62.2553 2.24906 61.3652 2.24906C61.0108 2.23718 60.6622 2.34135 60.3724 2.54575C60.2503 2.62923 60.151 2.74178 60.0832 2.87326C60.0155 3.00474 59.9815 3.15101 59.9845 3.29888C59.9845 3.64121 60.167 3.94931 60.5208 4.20035C60.8859 4.46281 61.5135 4.74808 62.4378 5.06759C63.5105 5.44416 64.2978 5.9006 64.8113 6.43692C65.3134 6.97324 65.5645 7.68072 65.5645 8.57079C65.5645 9.36956 65.3819 10.0656 65.0053 10.6476C64.6437 11.2254 64.1253 11.6884 63.5105 11.9827C62.859 12.2942 62.1443 12.4504 61.4223 12.4391C60.361 12.4391 59.4596 12.2109 58.7064 11.7545ZM77.7401 3.05925C77.2363 2.12218 76.4816 1.34381 75.5605 0.81127C74.6037 0.260305 73.515 -0.0197727 72.4111 0.00108553C71.5187 -0.00449524 70.633 0.154094 69.798 0.468939C69.0796 0.736762 68.4234 1.14835 67.8695 1.67851L68.2803 2.08931C67.657 2.6118 67.158 3.26671 66.8197 4.00636C66.4506 4.83128 66.2675 5.72731 66.2834 6.63091C66.2737 7.65322 66.5419 8.65895 67.0593 9.54072C67.571 10.4328 68.322 11.164 69.2274 11.6518C70.1517 12.1767 71.2129 12.4391 72.3997 12.4391C73.5028 12.453 74.5897 12.1734 75.5491 11.6289C76.467 11.0974 77.221 10.3237 77.7286 9.39238C78.2571 8.41977 78.5244 7.32682 78.5046 6.22011C78.5352 5.11726 78.2713 4.02619 77.7401 3.05925ZM75.4579 8.15999C75.1841 8.7107 74.761 9.17334 74.2369 9.49508C73.685 9.82236 73.0525 9.98839 72.4111 9.97434C71.7678 9.98658 71.133 9.82494 70.5739 9.50649C70.0654 9.20929 69.6472 8.77934 69.3643 8.26269C69.0808 7.73714 68.9355 7.14815 68.9421 6.55103C68.9274 6.02702 69.0369 5.50696 69.2617 5.03336C69.4852 4.62423 69.7832 4.26045 70.1403 3.96072L69.7295 3.54992C70.0462 3.21336 70.4314 2.94874 70.8592 2.77397C71.351 2.57077 71.879 2.46983 72.4111 2.47728C73.0487 2.46471 73.6772 2.63072 74.2255 2.95655C74.7496 3.27829 75.1727 3.74093 75.4464 4.29164C75.742 4.895 75.8906 5.55974 75.8801 6.23152C75.8918 6.89849 75.7472 7.55893 75.4579 8.15999ZM82.1904 2.68268V5.44416H87.2911V7.44109H82.1904V12.2337H79.5772V0.206484H87.7932V2.68268H82.1904ZM98.1544 2.68268H94.7882V12.2451H92.1865V2.68268H88.8088V0.206484H98.1544V2.68268Z" fill="black"/>
<path d="M5.27985 36.6876C3.79852 35.8245 2.58882 34.5635 1.78807 33.0475C0.94365 31.4842 0.532852 29.7041 0.532852 27.6957C0.532852 25.7102 0.955061 23.9301 1.78807 22.3668C2.57894 20.852 3.77622 19.5875 5.24562 18.7152C6.73504 17.8384 8.43552 17.3847 10.1638 17.403C12.0922 17.403 13.7126 17.7909 15.0363 18.5783C16.3665 19.3729 17.4308 20.5444 18.0945 21.9446L16.0747 23.3595C15.4471 22.1842 14.6826 21.317 13.7697 20.735C12.8568 20.153 11.6814 19.8677 10.2665 19.8677C8.97663 19.8492 7.70748 20.1932 6.60353 20.8605C5.51825 21.5301 4.64717 22.4962 4.0931 23.6448C3.49973 24.8316 3.20304 26.1895 3.20304 27.7071C3.20304 29.2819 3.48831 30.6512 4.07028 31.8265C4.60404 32.9588 5.45671 33.9106 6.52365 34.5652C7.58488 35.2156 8.82868 35.5465 10.2665 35.5465C11.7271 35.5465 12.8682 35.2613 13.724 34.6907C14.5799 34.1202 15.333 33.1959 16.0176 31.9064L18.1173 33.3784C17.3071 34.8733 16.2573 36.0144 14.9792 36.8017C13.7012 37.5891 12.1265 37.9771 10.2551 37.9771C8.4293 37.9771 6.7747 37.5549 5.27985 36.6876ZM38.8512 22.4352C38.0543 20.9151 36.854 19.6438 35.3822 18.7609C33.8988 17.8708 32.2213 17.4258 30.3499 17.4258C28.4785 17.4258 26.8011 17.8708 25.3176 18.7609C23.8436 19.6411 22.6427 20.9131 21.8487 22.4352C21.0157 23.9985 20.6049 25.7559 20.6049 27.7071C20.6049 29.6584 21.0271 31.4157 21.8487 32.979C22.6452 34.5025 23.8452 35.7776 25.3176 36.6648C26.8011 37.5549 28.4785 37.9999 30.3499 37.9999C32.2213 37.9999 33.8988 37.5549 35.3822 36.6648C36.8568 35.7803 38.0575 34.5045 38.8512 32.979C39.6842 31.4157 40.095 29.6584 40.095 27.7071C40.1064 25.7559 39.6842 23.9985 38.8512 22.4352ZM36.5575 31.7467C36.0006 32.8933 35.1301 33.8587 34.0471 34.531C32.9745 35.2042 31.7421 35.5351 30.3613 35.5351C28.9806 35.5351 27.7596 35.2042 26.6756 34.531C25.5953 33.8554 24.7256 32.8909 24.1651 31.7467C23.5718 30.5599 23.2751 29.2134 23.2751 27.6957C23.2751 26.1895 23.5718 24.8316 24.1651 23.6562C24.7221 22.5096 25.5925 21.5442 26.6756 20.8719C27.7482 20.1987 28.9806 19.8677 30.3613 19.8677C31.7421 19.8677 32.9631 20.1987 34.0471 20.8719C35.1274 21.5475 35.997 22.512 36.5575 23.6562C37.1509 24.843 37.4476 26.1895 37.4476 27.6957C37.4476 29.2134 37.1509 30.5713 36.5575 31.7467ZM43.1645 17.7567H46.7362L56.2074 34.5652H56.3785L56.2074 32.2145V17.7567H58.8091V37.6348H55.2374L45.7663 20.8149H45.5951L45.7663 23.1655V37.6233H43.1645V17.7567ZM62.3237 17.7567H65.8953L75.3665 34.5652H75.5377L75.3665 32.2145V17.7567H77.9682V37.6348H74.3966L64.9254 20.8149H64.7656L64.9368 23.1655V37.6233H62.3351L62.3237 17.7567ZM94.2746 35.1928V37.6348H81.4942V17.7567H94.1035V20.1987H84.096V26.6117H93.1335V28.7684H84.096V35.1814C84.1074 35.1928 94.2746 35.1928 94.2746 35.1928ZM101.235 36.6876C99.754 35.8245 98.5443 34.5635 97.7436 33.0475C96.9106 31.4842 96.4884 29.7041 96.4884 27.6957C96.4884 25.7102 96.9106 23.9301 97.7436 22.3668C98.5345 20.852 99.7317 19.5875 101.201 18.7152C102.69 17.837 104.391 17.3832 106.119 17.403C108.048 17.403 109.668 17.7909 110.992 18.5783C112.322 19.3729 113.386 20.5444 114.05 21.9446L112.007 23.3367C111.38 22.1614 110.615 21.2941 109.702 20.7122C108.789 20.1416 107.614 19.8449 106.199 19.8449C104.909 19.8264 103.64 20.1703 102.536 20.8377C101.451 21.5073 100.58 22.4734 100.026 23.622C99.4324 24.8087 99.1357 26.1666 99.1357 27.6843C99.1357 29.259 99.421 30.6284 100.003 31.8037C100.537 32.9359 101.389 33.8878 102.456 34.5424C103.518 35.1928 104.761 35.5237 106.199 35.5237C107.66 35.5237 108.801 35.2384 109.657 34.6679C110.513 34.0973 111.266 33.173 111.95 31.8836L114.05 33.3556C113.24 34.8505 112.19 35.9916 110.912 36.7789C109.634 37.5663 108.059 37.9543 106.188 37.9543C104.452 37.9977 102.737 37.5593 101.235 36.6876ZM130.767 20.1416H124.89V37.6348H122.289V20.1416H116.389V17.7567H130.767V20.1416Z" fill="black"/>
</svg>
