<svg width="94" height="46" viewBox="0 0 94 46" fill="none" xmlns="http://www.w3.org/2000/svg">
<path d="M21.2312 0.0183334C24.1206 0.00366668 27.0246 0.00366668 29.9139 0.0183334C28.1833 6.20769 26.4819 12.4117 24.7512 18.6157C24.6486 18.9237 24.6046 19.3197 24.8686 19.5691C25.3526 20.0384 26.0566 19.9651 26.6726 19.9651C27.3766 19.9504 28.1539 20.0384 28.7993 19.6864C29.2833 19.3197 29.3126 18.6597 29.4886 18.1317C31.1899 12.089 32.8326 6.03169 34.5486 0.00366668C37.4233 0.0183334 40.298 0.00366668 43.1726 0.0183334C41.354 6.79436 39.418 13.5411 37.57 20.3171C37.2326 21.4171 37.042 22.6051 36.3673 23.5731C35.8979 24.2624 35.2086 24.7758 34.4166 25.0251C33.0526 25.4651 31.6006 25.5091 30.1779 25.5531C26.8192 25.5384 23.4459 25.5678 20.0872 25.5531C18.5325 25.4944 16.8165 25.0838 15.8192 23.7931C15.2325 23.0891 15.1445 22.0918 15.3792 21.2264C17.3152 14.1571 19.2952 7.0877 21.2312 0.0183334ZM45.7833 5.60636C46.3553 3.74368 46.81 1.85167 47.3673 0.00366668C53.6154 0.0183334 59.8487 -0.011 66.0967 0.0183334C65.6274 1.89567 65.0701 3.74368 64.5567 5.60636C58.3087 5.62102 52.046 5.62102 45.7833 5.60636ZM71.1421 0.619669C72.7554 0.0330001 74.4861 0.00366668 76.1875 0.00366668C80.4115 0.00366668 84.6502 -0.011 88.8742 0.0183334C88.3315 1.86634 87.8475 3.74368 87.3048 5.60636C84.1222 5.63569 80.9395 5.60636 77.7568 5.62102C77.3608 5.63569 76.9354 5.65036 76.5835 5.87036C76.2021 6.16369 76.0994 6.64769 75.9821 7.0877C74.9261 10.9597 73.8114 14.8317 72.7701 18.7037C72.4621 19.4077 73.2248 19.9651 73.8554 19.9357C77.2581 19.9651 80.6461 19.9211 84.0488 19.9651C83.4768 21.8131 83.0221 23.7051 82.4648 25.5678C77.9768 25.5531 73.4888 25.5678 69.0008 25.5678C67.5487 25.5678 66.0087 25.3478 64.8354 24.4238C63.9261 23.7344 63.4127 22.4878 63.7501 21.3731C65.3927 15.4477 67.0354 9.50771 68.6927 3.58235C69.0448 2.30634 69.8661 1.07434 71.1421 0.619669ZM40.2833 25.5531C41.7206 20.1997 43.246 14.8611 44.7127 9.50771C50.9753 9.49304 57.238 9.50771 63.5007 9.50771C62.9434 11.3704 62.4741 13.2624 61.9021 15.1251C58.558 15.0957 55.1994 15.1251 51.8407 15.1104C50.8287 18.5864 49.9487 22.1064 48.8927 25.5678C46.018 25.5384 43.158 25.5678 40.2833 25.5531ZM0.448471 45.7639C0.668472 44.8252 0.94714 43.9012 1.19647 42.9625C13.6192 42.9478 26.0419 42.9625 38.4646 42.9625C38.2006 43.9012 38.01 44.8839 37.6433 45.7932C25.2499 45.7345 12.8419 45.7785 0.448471 45.7639Z" fill="#D51E18"/>
<path d="M19.2952 30.5837C20.7032 30.3637 22.1259 30.6424 23.4899 30.9651C23.2845 31.6104 23.0352 32.2411 22.8152 32.8717C21.7885 32.6224 20.7325 32.4757 19.6912 32.5051C18.9872 32.5197 18.3712 33.0184 18.1952 33.7077C17.8138 34.9984 17.4472 36.3037 17.0952 37.6091C16.9338 38.0638 17.0512 38.6651 17.5792 38.7971C18.2832 38.9584 19.0165 38.8264 19.7205 38.6944C19.8819 38.1224 20.0432 37.5651 20.2045 37.0078C19.7499 37.0078 19.2952 37.0224 18.8258 37.0224C18.9872 36.4357 19.1632 35.8491 19.2952 35.2477C20.4392 35.1891 21.5979 35.2331 22.7419 35.2184C22.2725 36.8758 21.8619 38.5478 21.3339 40.1904C19.9552 40.7478 18.4445 40.8944 16.9778 40.7771C16.0685 40.6891 15.0418 40.2491 14.7925 39.2958C14.5578 38.1664 15.1152 37.1104 15.3498 36.0251C15.7018 34.8664 15.9218 33.6491 16.4058 32.5344C16.9045 31.3904 18.0925 30.7157 19.2952 30.5837ZM74.8087 30.5544C77.0821 30.2611 79.3994 30.4664 81.6141 30.9944C81.3208 31.9331 81.0568 32.8717 80.7341 33.7957C79.3114 33.4584 77.8448 33.2677 76.3928 33.2677C75.8207 33.2971 75.1461 33.3117 74.7647 33.7957C74.3981 34.4117 74.2074 35.1304 74.1927 35.8491C74.3101 36.2597 74.7647 36.4064 75.1314 36.5237C76.4514 36.9344 77.9328 37.1104 79.0181 38.0491C79.8248 38.7678 79.6634 39.9558 79.4434 40.8944C79.0474 42.3904 78.6074 44.0624 77.2728 45.0158C75.8941 45.9545 74.1341 46.0131 72.5207 45.9985C71.0834 45.8811 69.6167 45.6025 68.2967 45.0158C68.6487 44.1651 68.9714 43.3144 69.2941 42.4638C71.0394 43.0211 72.9167 43.4171 74.7501 43.0798C75.7181 42.8158 75.9528 41.7158 76.1141 40.8651C76.2461 40.4691 75.9821 40.0731 75.6154 39.9264C74.2514 39.3251 72.6087 39.2958 71.4501 38.2544C70.6434 37.5211 70.7167 36.3331 70.9221 35.3651C71.2154 34.1624 71.5527 32.9451 72.2714 31.9184C72.8434 31.0677 73.8407 30.6864 74.8087 30.5544ZM87.0848 30.5544C89.3875 30.2464 91.7195 30.4517 93.9782 30.9797C93.6702 31.9037 93.3915 32.8277 93.0982 33.7664C91.3675 33.4291 89.5781 33.0771 87.8181 33.3557C87.1288 33.4437 86.8355 34.1624 86.6888 34.7491C86.5421 35.2624 86.3075 36.0251 86.9528 36.3037C88.4195 36.9344 90.1795 36.9638 91.4115 38.0784C92.2328 38.9144 91.9688 40.1758 91.7048 41.1731C91.3088 42.7424 90.7075 44.5024 89.1528 45.2798C87.5688 46.0571 85.7208 46.0865 84.0048 45.9105C82.8461 45.7198 81.6728 45.5145 80.6168 44.9865C80.9688 44.1504 81.2915 43.2998 81.6141 42.4491C83.3741 43.0064 85.2661 43.4464 87.0995 43.0504C88.0381 42.7718 88.2581 41.6864 88.4341 40.8651C88.5661 40.4838 88.3315 40.0878 87.9795 39.9411C86.5861 39.2958 84.8701 39.2958 83.7261 38.1811C83.0221 37.5064 83.0221 36.4211 83.2275 35.5264C83.5061 34.2797 83.8581 33.0037 84.5768 31.9477C85.1488 31.1117 86.1168 30.7011 87.0848 30.5544ZM12.7538 30.6571C13.4872 30.6717 14.2352 30.6717 14.9685 30.6571C14.0152 33.9864 13.1352 37.3451 12.1672 40.6744C11.4485 40.6304 10.7151 40.6451 9.99648 40.6744C10.8765 37.3304 11.8298 34.0011 12.7538 30.6571ZM25.9685 30.6571C26.7019 30.6717 27.4352 30.6717 28.1686 30.6571C27.8019 32.0064 27.4205 33.3411 27.0539 34.6904C28.1246 34.7051 29.1952 34.6757 30.2659 34.7051C30.7206 33.3704 30.9992 31.9771 31.4539 30.6424C32.1726 30.6864 32.9059 30.6717 33.6246 30.6571C32.7006 33.9864 31.7766 37.3304 30.8526 40.6598C30.1192 40.6891 29.4006 40.6744 28.6672 40.6891C28.9752 39.3104 29.4299 37.9758 29.7379 36.6117C28.6672 36.6411 27.5819 36.6117 26.5112 36.6264C26.1005 37.9758 25.7925 39.3544 25.3525 40.6891C24.6339 40.6451 23.9005 40.6598 23.1819 40.6744C24.1205 37.3304 25.0445 33.9864 25.9685 30.6571ZM4.71646 30.6571C6.84313 30.6571 8.96981 30.6717 11.0965 30.6571C10.9205 31.3024 10.7298 31.9477 10.5538 32.6077C9.16048 32.5931 7.7818 32.6077 6.38846 32.5931C6.18313 33.3411 5.96313 34.0744 5.75779 34.8224C7.04847 34.8077 8.33914 34.8224 9.62981 34.8077C9.43914 35.4531 9.24848 36.0984 9.08714 36.7437C7.79647 36.7291 6.52046 36.7437 5.24446 36.7291C4.84846 38.0344 4.51112 39.3544 4.14445 40.6744C3.41112 40.6891 2.66312 40.6891 1.92978 40.6891C2.86845 37.3451 3.77779 34.0011 4.71646 30.6571ZM34.2406 32.5931C34.4459 31.9477 34.6072 31.3024 34.7979 30.6571C37.3499 30.6717 39.9166 30.6717 42.4686 30.6571C42.2633 31.3024 42.1019 31.9624 41.8966 32.6077C41.0019 32.5784 40.0926 32.5931 39.1979 32.5931C38.4499 35.2771 37.6873 37.9611 36.9686 40.6598C36.2206 40.7038 35.4726 40.6891 34.7246 40.6891C35.4726 37.9904 36.2059 35.2917 36.9686 32.6077C36.0739 32.5784 35.1646 32.5931 34.2406 32.5931ZM45.5046 30.6717C47.514 30.6424 49.5233 30.6571 51.518 30.6571C52.8967 30.6864 54.5393 30.8917 55.4047 32.1091C56.1087 33.1651 55.786 34.4704 55.4487 35.5851C54.9793 37.3011 54.5687 39.2958 52.926 40.2931C50.814 41.4958 48.2913 41.0411 45.974 41.1144C45.5193 42.6544 45.094 44.1944 44.6833 45.7345C43.554 45.7491 42.4393 45.7345 41.3099 45.7491C42.7326 40.7331 44.1113 35.7024 45.5046 30.6717ZM48.1006 33.5904C47.5726 35.1304 47.2206 36.7291 46.766 38.2984C47.998 38.2398 49.2446 38.3864 50.4766 38.2104C51.6646 37.9464 51.826 36.5824 52.1047 35.6144C52.31 34.9837 52.53 33.9864 51.7086 33.7077C50.5206 33.4731 49.3033 33.6051 48.1006 33.5904ZM61.4474 30.6571C62.9727 30.6571 64.5127 30.6571 66.038 30.6571C66.2434 35.6877 66.4487 40.7331 66.6834 45.7638C65.4954 45.7785 64.3074 45.7638 63.1194 45.7638C63.1047 44.7811 63.1047 43.7838 63.1047 42.8011C61.374 42.7424 59.6433 42.7864 57.9273 42.7718C57.3407 43.7544 56.8127 44.7811 56.2113 45.7638C55.0087 45.7345 53.806 45.7491 52.6033 45.7638C55.5807 40.7478 58.4993 35.6877 61.4474 30.6571ZM59.4087 40.0291C60.626 40.0291 61.8434 40.0144 63.0607 40.0291C63.0754 37.8438 63.0754 35.6584 63.09 33.4731C61.7994 35.6144 60.6554 37.8584 59.4087 40.0291Z" fill="black"/>
</svg>
