<svg width="65" height="65" viewBox="0 0 65 65" fill="none" xmlns="http://www.w3.org/2000/svg">
<path d="M32.5 64.9837C21.8833 64.9837 11.2715 64.9891 0.664625 65C0.108875 65 0 64.8911 0 64.3354C0.0184167 43.1118 0.0184167 21.8882 0 0.664625C0 0.108875 0.108875 0 0.664625 0C21.8882 0.0184167 43.1118 0.0184167 64.3354 0C64.8911 0 65 0.108875 65 0.664625C64.9816 21.8882 64.9816 43.1118 65 64.3354C65 64.8911 64.8911 65.0016 64.3354 65C53.723 64.9794 43.1112 64.974 32.5 64.9837Z" fill="#D02030"/>
<path d="M19.5288 14.3265L17.6438 21.1758C17.0642 23.2873 16.483 25.3997 15.9002 27.5133C15.6662 28.3665 15.8677 28.6378 16.7582 28.6996C18.7472 28.8377 18.8252 28.7776 19.3582 26.8308C20.4421 22.8967 21.5406 18.9658 22.6082 15.0268C22.7528 14.4873 22.9641 14.3021 23.5377 14.3151C25.3479 14.3573 27.1598 14.3313 29.0627 14.3313C28.5053 16.3658 27.9674 18.337 27.4247 20.3065C26.558 23.459 25.687 26.6104 24.8117 29.7607C24.2543 31.7708 23.4061 32.5232 21.3326 32.6613C18.2451 32.8596 15.1673 32.7458 12.0831 32.7247C11.318 32.7273 10.5718 32.4879 9.95108 32.0406C9.09795 31.4231 8.78433 30.648 9.06058 29.6388C10.4093 24.7118 11.7776 19.7897 13.1231 14.8643C13.2076 14.5572 13.271 14.32 13.6805 14.3232C15.6077 14.3362 17.5268 14.3265 19.5288 14.3265Z" fill="#FEFEFE"/>
<path d="M51.8176 32.7458C50.3562 32.7458 48.8937 32.7458 47.4301 32.7458C46.8363 32.759 46.2442 32.6761 45.6768 32.5004C44.0518 31.9544 43.4781 30.8754 43.9348 29.2407C45.0463 25.2323 46.1572 21.224 47.2676 17.2157C47.7844 15.3502 48.5433 14.6693 50.4933 14.4532C52.9454 14.1769 55.4105 14.38 57.8691 14.3329C58.9774 14.3102 60.0873 14.3524 61.1955 14.3183C61.7236 14.302 61.865 14.4353 61.7025 14.9569C61.4133 15.8848 61.15 16.8224 60.9241 17.7682C60.8104 18.2459 60.5991 18.4003 60.097 18.3938C58.0966 18.3645 56.0946 18.4035 54.0926 18.3743C53.2281 18.3613 52.7926 18.6717 52.5635 19.554C51.8891 22.1979 51.1205 24.8158 50.3941 27.4467C50.1325 28.3924 50.3324 28.6849 51.3318 28.6947C53.4443 28.7174 55.5568 28.7207 57.6611 28.6947C58.2673 28.6865 58.407 28.8295 58.2071 29.4243C57.9146 30.292 57.6904 31.1874 57.4791 32.0795C57.3621 32.5752 57.1541 32.7799 56.6033 32.7653C55.0091 32.7198 53.4134 32.7458 51.8176 32.7458Z" fill="#FEFEFE"/>
<path d="M3.34544 50.6666C3.31782 50.5366 3.30157 50.5041 3.30807 50.4846C3.75494 48.6094 3.75494 48.6094 5.67894 48.6094H54.6288C55.6477 48.6094 55.5941 48.5996 55.3942 49.6039C55.2317 50.4245 54.8953 50.6943 54.0064 50.6926C37.5268 50.659 21.0476 50.6504 4.56907 50.6666H3.34544Z" fill="#FEFDFD"/>
<path d="M38.8909 25.2239C37.9435 25.2239 36.9961 25.2581 36.052 25.2109C35.4719 25.1817 35.2103 25.3507 35.0575 25.9422C34.5294 28.0092 33.92 30.0567 33.3708 32.1172C33.2603 32.5316 33.1335 32.7672 32.6314 32.7574C30.9284 32.7266 29.2189 32.7314 27.5208 32.7574C27.0024 32.7574 26.965 32.6193 27.0966 32.1529C28.0716 28.6971 29.0266 25.2342 29.9615 21.7643C30.0753 21.3451 30.228 21.1468 30.7204 21.1484C34.8035 21.1712 38.8866 21.1712 42.9696 21.1484C43.4815 21.1484 43.6521 21.2459 43.4831 21.7838C43.1906 22.7101 42.9355 23.6509 42.708 24.5951C42.5959 25.0614 42.4009 25.2564 41.8955 25.2353C40.8929 25.1882 39.8903 25.2239 38.8909 25.2239Z" fill="#FEFEFE"/>
<path d="M41.9249 41.1969C42.9421 41.9769 43.0445 42.3003 42.7065 43.5272C42.0451 45.9192 41.1465 46.6065 38.6586 46.6147C37.2839 46.6147 35.9091 46.6147 34.4531 46.6147C35.1405 44.1235 35.8067 41.7072 36.4746 39.2908C36.7054 38.4572 36.9491 37.6284 37.1717 36.7932C37.2465 36.5169 37.3001 36.2748 37.6722 36.2846C39.1851 36.3268 40.7045 36.1789 42.2109 36.3609C43.6035 36.5234 44.026 37.1881 43.7091 38.5433C43.285 40.3341 43.1225 40.5811 41.9249 41.1969Z" fill="#FEFDFD"/>
<path d="M23.5186 46.5389C23.4617 46.5606 23.4037 46.579 23.3447 46.5941C21.0356 46.7225 21.0551 46.7144 20.033 44.5954C19.8217 44.1582 19.8705 43.4692 19.1457 43.3912C18.0228 43.2726 17.9773 43.3002 17.6718 44.4117C17.6426 44.5157 17.6068 44.6181 17.5776 44.7221C17.0348 46.7095 17.0348 46.7095 14.7988 46.5714C14.9613 46.001 15.1011 45.4452 15.2538 44.8911C15.977 42.2602 16.7163 39.6326 17.4151 36.9952C17.5548 36.4704 17.7498 36.2347 18.3397 36.2689C19.7421 36.3534 21.1542 36.1795 22.555 36.3664C24.3132 36.6036 24.9486 37.5396 24.5326 39.2491C24.3798 39.878 24.2076 40.5036 23.9963 41.1179C23.7347 41.8897 23.2586 42.5284 22.4948 42.8404C21.9829 43.0484 22.035 43.271 22.2316 43.6772C22.6768 44.597 23.075 45.5395 23.5186 46.5389Z" fill="#FEFEFE"/>
<path d="M37.6674 18.3766C35.6638 18.3766 33.6601 18.3425 31.6549 18.3945C30.9383 18.414 30.9269 18.1784 31.104 17.621C31.3819 16.7451 31.6224 15.8562 31.8385 14.9625C31.949 14.5075 32.1213 14.3125 32.651 14.3125C36.7373 14.3385 40.8242 14.3385 44.9116 14.3125C45.4934 14.3125 45.5161 14.475 45.3666 14.9625C45.066 15.9147 44.793 16.88 44.5688 17.8534C44.4664 18.3002 44.2551 18.3945 43.8408 18.3912C41.7803 18.362 39.7246 18.3766 37.6674 18.3766Z" fill="#FEFEFE"/>
<path d="M24.0615 46.6113C25.1486 44.7426 26.148 43.0184 27.149 41.2959C28.0038 39.8334 28.8845 38.3709 29.7084 36.8825C29.9684 36.4112 30.2641 36.2211 30.7923 36.2731C31.2496 36.3251 31.7113 36.3251 32.1686 36.2731C32.9438 36.1756 33.2395 36.4015 33.259 37.2481C33.324 40.1389 33.4654 43.0282 33.6181 45.9174C33.649 46.5138 33.4556 46.6991 32.9015 46.6113C32.8204 46.6056 32.7389 46.6056 32.6578 46.6113C31.2456 46.6113 31.2245 46.6113 31.1953 45.2073C31.1871 44.7198 31.0701 44.5021 30.5583 44.5573C30.2629 44.5996 29.9631 44.5996 29.6678 44.5573C28.2459 44.3119 27.214 44.7198 26.7623 46.1953C26.6648 46.5203 26.4178 46.6292 26.07 46.6146C25.4606 46.5934 24.8399 46.6113 24.0615 46.6113Z" fill="#FEFEFE"/>
<path d="M4.48828 46.4976C4.53541 46.3985 4.57928 46.2783 4.64266 46.1726C6.46266 43.0461 8.28916 39.9229 10.0962 36.7883C10.3139 36.4113 10.556 36.2455 10.9932 36.2796C11.7975 36.343 12.8457 35.9546 13.3462 36.4194C13.8857 36.9215 13.5883 37.9973 13.6305 38.8228C13.7475 41.1709 13.8028 43.5239 13.9442 45.8704C13.9815 46.5106 13.7947 46.639 13.1999 46.6293C11.6237 46.6016 11.609 46.6293 11.5294 45.0904C11.5099 44.7118 11.4059 44.559 11.0159 44.5671C10.1514 44.585 9.28528 44.5883 8.4159 44.5671C8.26714 44.5488 8.11689 44.5868 7.99477 44.6738C7.87266 44.7607 7.78753 44.8902 7.75616 45.0368C7.26866 46.7398 5.98978 46.7934 4.57928 46.5919C4.56466 46.5838 4.55003 46.5545 4.48828 46.4976Z" fill="#FEFEFE"/>
<path d="M46.5908 46.612C48.5766 43.1995 50.4762 39.9317 52.3791 36.6654C52.4863 36.4818 52.5903 36.2835 52.8568 36.2852C53.6953 36.2852 54.5338 36.2852 55.3723 36.2852C55.6599 36.2852 55.7314 36.4347 55.7412 36.6898C55.8701 39.852 56.0028 43.0137 56.1393 46.1749C56.1539 46.4869 56.0727 46.6364 55.7461 46.6137C55.6112 46.6039 55.4747 46.6137 55.3398 46.6137C53.8269 46.6137 53.8139 46.6137 53.7359 45.091C53.7164 44.7189 53.6254 44.5402 53.2273 44.5662C52.8769 44.606 52.5231 44.606 52.1727 44.5662C50.7866 44.3354 49.7612 44.7027 49.3224 46.1587C49.2152 46.5129 48.9601 46.6462 48.5766 46.625C47.9639 46.5893 47.3481 46.612 46.5908 46.612Z" fill="#FEFEFE"/>
<path d="M44.6552 46.6116C43.4105 46.6116 43.4056 46.6116 43.7095 45.5131C44.4944 42.6791 45.3036 39.8532 46.0495 37.0111C46.212 36.4131 46.4638 36.2587 47.044 36.2701C48.5568 36.301 48.5585 36.2701 48.1441 37.7749C47.4323 40.3472 46.6816 42.9099 46.0316 45.4985C45.8073 46.3922 45.4758 46.8489 44.6552 46.6116Z" fill="#FEFDFD"/>
<path d="M38.3371 44.7694H38.2575C37.2419 44.7694 37.2419 44.7694 37.5084 43.8171C37.9422 42.2604 38.3989 41.9857 39.9816 42.3189C40.4334 42.4147 40.5942 42.6585 40.513 43.1314C40.2822 44.4931 39.9361 44.7661 38.3371 44.7694Z" fill="#D12131"/>
<path d="M39.4209 40.546C38.4086 40.546 38.4086 40.546 38.6799 39.571C38.6881 39.545 38.6897 39.519 38.6978 39.493C39.0911 38.0792 39.4502 37.868 40.8802 38.1523C41.1516 38.206 41.3368 38.3148 41.3677 38.596C41.4029 38.8399 41.3849 39.0885 41.3148 39.3248C41.2448 39.561 41.1244 39.7793 40.962 39.9646C40.7995 40.1499 40.5989 40.2978 40.3738 40.3982C40.1487 40.4986 39.9046 40.549 39.6582 40.546C39.5818 40.5476 39.5022 40.546 39.4209 40.546Z" fill="#D02130"/>
<path d="M18.5117 41.4174C18.7701 40.4667 18.9992 39.5844 19.2527 38.7052C19.2933 38.559 19.3096 38.3445 19.5143 38.3429C20.296 38.3429 21.0825 38.2454 21.856 38.3997C21.9762 38.4268 22.0836 38.494 22.1604 38.5903C22.2372 38.6866 22.2789 38.8063 22.2785 38.9295C22.441 40.366 21.4936 41.4141 20.0392 41.4174H18.5117Z" fill="#D02130"/>
<path d="M31.1709 38.5393C31.1709 39.7288 31.1514 40.92 31.1806 42.1143C31.192 42.5888 31.0181 42.7302 30.5696 42.7058C30.0041 42.6766 29.4321 42.7058 28.7139 42.7058C29.5264 41.2433 30.2739 39.8751 31.0295 38.502L31.1709 38.5393Z" fill="#D12635"/>
<path d="M11.4996 38.538C11.4996 39.7941 11.4996 41.0486 11.4996 42.3048C11.4996 42.6541 11.2981 42.6948 11.0251 42.6931C10.4109 42.6931 9.79824 42.6931 9.02637 42.6931L11.3517 38.4941L11.4996 38.538Z" fill="#D22736"/>
<path d="M51.2393 42.6925L53.5549 38.4902L53.6833 38.5097C53.6833 39.8097 53.6833 41.1097 53.6833 42.3967C53.6833 42.7022 53.4265 42.6909 53.2071 42.6925H51.2393Z" fill="#D22837"/>
</svg>
