<svg width="107" height="61" viewBox="0 0 107 61" fill="none" xmlns="http://www.w3.org/2000/svg">
<path d="M7.11415 42.5546C5.40976 42.5546 3.7101 42.5612 2.00854 42.5498C1.66482 42.5498 1.25577 42.6445 1.06166 42.2118C0.858076 41.763 1.08722 41.424 1.37318 41.1068C3.45633 38.7901 5.53632 36.4734 7.61316 34.1567C7.8442 33.8991 8.04494 33.6037 8.31196 33.3906C8.75889 33.0346 8.74469 32.6492 8.59035 32.1464C8.07619 30.4685 7.36697 28.8721 6.61325 27.2946C6.00758 26.0199 5.47519 24.7117 5.01869 23.3764C4.70822 22.4957 4.493 21.5843 4.3767 20.6578C4.1504 18.7461 4.94484 17.2614 6.27048 15.9821C7.41621 14.8657 8.80813 14.1224 10.2379 13.4625C14.1666 11.6463 18.1227 9.90027 22.0049 7.98188C22.5257 7.72433 22.8391 7.42511 23.0616 6.89864C23.7614 5.24538 24.4772 3.5978 25.4743 2.09414C25.6988 1.77068 25.9439 1.46199 26.2081 1.16998C26.9221 0.34619 27.7951 0.229723 28.7827 0.539354C30.1604 0.972081 31.3128 1.79871 32.4623 2.63008C33.8012 3.5978 35.1069 4.61002 36.4989 5.50482C37.5528 6.18185 38.6919 6.67423 39.8632 7.10127C40.6746 7.39292 41.5164 7.29065 42.3468 7.24047C45.356 7.05109 48.3179 6.56912 51.258 5.89305C54.6033 5.12418 57.9724 4.46325 61.2865 3.56087C64.7653 2.61398 68.2167 1.57241 71.6511 0.480647C72.2334 0.28595 72.8289 0.133422 73.4331 0.0242484C73.9672 -0.0657058 74.397 0.093371 74.7237 0.52231C75.0504 0.95125 75.0457 1.38114 74.807 1.84795C74.4131 2.61493 73.8602 3.25692 73.2693 3.87239C69.7412 7.57472 66.2832 11.349 62.9587 15.2445C60.2288 18.4355 57.6078 21.7212 55.0588 25.0637C55 25.136 54.9568 25.2197 54.9318 25.3094C54.9069 25.3992 54.9008 25.4932 54.9139 25.5854C55.0976 27.2898 55.2662 29.0018 55.1118 30.7232C55.0768 31.1134 55.2633 31.4609 55.4129 31.8055C56.8475 35.0997 58.3975 38.3315 60.3642 41.3539C63.0003 45.4047 65.6084 49.4738 68.1883 53.5612C69.0812 54.9701 69.9079 56.4227 70.4608 58.0115C70.6502 58.5503 70.7941 59.0986 70.7544 59.6743C70.7127 60.2784 70.4485 60.5568 69.8463 60.6278C68.6778 60.7641 67.5605 60.4772 66.4498 60.1828C63.6887 59.4508 61.0526 58.36 58.3899 57.3421C55.4915 56.238 52.5988 55.1179 49.6786 54.0725C47.2877 53.2156 44.7832 52.7914 42.3004 52.2734C39.5668 51.7053 36.8397 51.9354 34.1089 52.138C31.3497 52.3425 28.6302 52.1683 25.9562 51.4439C23.5559 50.7944 21.2029 50.9374 18.8413 51.6939C17.2402 52.2071 15.603 52.6266 13.9175 52.8112C13.4441 52.8624 12.9706 52.8851 12.5095 52.7592C11.9414 52.6067 11.6422 52.2232 11.5522 51.656C11.4187 50.819 11.6355 50.0265 11.877 49.2424C12.2605 47.9944 12.661 46.7512 13.0644 45.5089C13.3759 44.5478 13.3608 43.7751 13.0644 42.8405C12.9697 42.5565 12.6762 42.5432 12.4091 42.5442C10.6441 42.5546 8.87915 42.5442 7.11415 42.5442V42.5546ZM39.063 18.1429C39.0725 16.9309 39.0839 15.7198 39.0896 14.5078C39.0896 14.4567 39.0337 14.4056 39.0043 14.3544C38.9429 14.263 38.86 14.188 38.763 14.1358C38.666 14.0837 38.5577 14.056 38.4476 14.0552C37.37 14.0599 36.2915 14.0751 35.2139 14.0855C34.9204 14.2048 35.0587 14.4643 35.0577 14.6536C35.0482 18.5952 35.0463 22.5365 35.052 26.4774C35.052 27.2813 35.0634 28.0871 35.052 28.8901C35.052 29.2148 35.1628 29.3304 35.4933 29.3237C36.5017 29.3058 37.5111 29.3095 38.5233 29.3181C38.8557 29.3181 39.0157 29.2101 39.0053 28.8522C38.9683 27.6402 39.0479 26.4263 38.9295 25.2152C38.8926 24.8364 38.9125 24.4577 38.9068 24.0789C38.9021 23.8148 39.0261 23.8214 39.1909 23.9502C39.2738 24.0223 39.3522 24.0995 39.4257 24.1812C41.0259 25.7884 42.6249 27.3962 44.2226 29.0046C44.3168 29.1088 44.4327 29.1911 44.5621 29.2457C44.6915 29.3003 44.8313 29.326 44.9716 29.3209C46.3588 29.3086 47.746 29.3209 49.1332 29.3133C49.2648 29.3133 49.4532 29.4004 49.5119 29.2404C49.5706 29.0804 49.3869 29.0037 49.2922 28.9118C48.299 27.9489 47.3417 26.9508 46.3474 25.9879C45.0483 24.7313 43.8164 23.4057 42.541 22.1246C42.2843 21.8661 42.2569 21.7051 42.5305 21.4343C44.7854 19.1889 47.0314 16.935 49.2686 14.6726C49.3907 14.5504 49.6208 14.452 49.5034 14.2162C49.4087 14.0268 49.2118 14.0079 49.012 14.0088C47.6087 14.0145 46.2057 14.0176 44.8031 14.0183C44.7099 14.0141 44.6169 14.0302 44.5306 14.0655C44.4442 14.1008 44.3666 14.1545 44.3031 14.2228C43.2672 15.2814 42.2313 16.3381 41.1736 17.374C40.4805 18.053 39.865 18.8114 39.0829 19.3994C39.0753 19.3294 39.0668 19.2593 39.0592 19.1892V18.9052C39.0611 18.6533 39.0621 18.3976 39.063 18.1429ZM32.521 16.0493V15.4064C32.521 15.4064 32.5201 15.0277 32.521 14.8383C32.521 14.309 32.343 14.0808 31.807 14.0694C30.721 14.0543 30.061 14.0836 28.9749 14.094C28.7533 14.2408 28.8613 14.4662 28.8603 14.6508C28.8499 17.1875 28.8603 19.7242 28.8442 22.2609C28.8338 23.5496 28.3547 24.6281 27.2289 25.3374C26.0396 26.0949 24.7669 25.9292 23.8125 24.9094C23.1642 24.2265 22.8104 23.316 22.8277 22.3745C22.8277 19.8388 22.8378 17.3024 22.858 14.7654C22.858 14.4254 22.7633 14.237 22.4187 14.1603C22.2386 14.1075 22.0531 14.0757 21.8657 14.0656C20.9188 14.0656 19.9719 14.0817 19.0298 14.0599C18.669 14.0514 18.5876 14.1745 18.5885 14.523C18.6027 17.1534 18.5885 19.7839 18.5989 22.4143C18.5989 22.9256 18.562 23.4313 18.6747 23.953C19.0137 25.5343 19.7248 26.8779 20.9472 27.9413C22.0441 28.9025 23.4113 29.5011 24.8616 29.6552C27.637 29.979 30.827 28.4839 31.8771 26.2615C32.1953 25.5864 32.4468 24.9762 32.5153 24.0979C32.5386 23.8 32.521 23.3328 32.521 23.3328V19.0756V16.3808V16.0493ZM26.9865 47.0646C27.0346 47.0872 27.0886 47.0941 27.1409 47.0844C27.1932 47.0748 27.2412 47.049 27.2781 47.0106C27.4138 46.9934 27.5399 46.9318 27.637 46.8355C27.9987 46.7796 27.8888 46.4917 27.8888 46.2825C27.8888 42.8614 27.8936 39.4412 27.8765 36.0211C27.8765 35.6253 27.9911 35.5098 28.3822 35.5211C29.329 35.5476 30.2759 35.5372 31.2228 35.5277C31.6622 35.5277 32.1025 35.5637 32.5428 35.4851C32.8354 35.434 32.9301 35.3062 32.9215 35.0117C32.9035 34.1292 32.8837 33.2448 32.9215 32.3604C32.9395 31.9457 32.7833 31.8008 32.4149 31.7875C32.289 31.7875 32.1631 31.7875 32.0362 31.7875L24.9431 31.7932C23.0048 31.7932 21.0608 31.8027 19.1273 31.7932C18.7324 31.7932 18.5696 31.9078 18.5847 32.3367C18.6169 33.2183 18.6103 34.1027 18.5847 34.988C18.5715 35.3952 18.6851 35.5391 19.1121 35.5315C20.4046 35.505 21.6971 35.523 22.9944 35.523C23.7055 35.523 23.7074 35.523 23.7074 36.2095C23.7074 39.6618 23.714 43.1132 23.7074 46.5656C23.7074 46.9387 23.7879 47.1129 24.2007 47.0949C24.9715 47.0618 25.7441 47.0712 26.5159 47.0637L26.9865 47.0646ZM49.5223 31.8481C49.4011 31.7421 49.2638 31.7752 49.1265 31.8017L46.087 31.815C46.0092 31.7892 45.9268 31.7801 45.8453 31.7883C45.7637 31.7964 45.6848 31.8217 45.6136 31.8623C45.5881 31.8594 45.5623 31.8616 45.5376 31.8687C45.513 31.8758 45.4899 31.8877 45.4699 31.9037C45.4498 31.9197 45.4331 31.9395 45.4207 31.962C45.4084 31.9845 45.4005 32.0092 45.3977 32.0347C44.7159 33.5535 44.0339 35.0726 43.3515 36.592L42.3288 38.8646C42.2727 38.7949 42.2224 38.7208 42.1783 38.643C41.6916 37.4651 41.2163 36.2834 40.7201 35.1092C40.3593 34.257 40.1103 33.3632 39.6927 32.5318C39.4446 32.0366 39.1549 31.7497 38.5432 31.7809C37.5689 31.832 36.5907 31.7904 35.6145 31.7989C35.0852 31.8036 35.0672 31.8472 35.2954 32.3329C36.8899 35.7171 38.4845 39.1013 40.079 42.4855C40.704 43.8064 41.3412 45.1216 41.9728 46.4397C42.0751 46.5987 41.9728 46.9131 42.2503 46.9178C42.4841 46.9178 42.6016 46.6802 42.7085 46.4851C42.7518 46.4018 42.7904 46.3161 42.8241 46.2285C43.218 45.2816 43.7085 44.3726 44.1497 43.4465C45.9403 39.7168 47.6958 35.9661 49.457 32.225C49.5129 32.1161 49.671 31.9977 49.5214 31.8481H49.5223Z" fill="#01B9C5"/>
<path d="M94.2419 32.7613C94.2362 33.6277 94.2542 34.4932 94.1472 35.3577C93.9114 37.3215 92.8717 38.6623 91.0016 39.2721C88.9961 39.9254 86.984 39.8696 85.0798 38.8981C83.3177 37.9995 82.6425 36.457 82.8073 34.5424C82.9635 32.7376 83.8725 31.447 85.6091 30.8069C87.1942 30.2227 88.8285 30.2956 90.4638 30.4831C90.7934 30.5118 91.1212 30.5582 91.4457 30.6223C91.7781 30.6971 91.815 30.5645 91.7866 30.2805C91.6739 29.1442 90.8142 28.2617 89.6022 28.0733C88.1922 27.8545 86.8136 28.0449 85.4463 28.4056C85.2211 28.4751 84.989 28.5199 84.7541 28.5391C84.1774 28.5609 83.7457 28.2305 83.6387 27.7229C83.5118 27.1235 83.7135 26.6245 84.2674 26.4645C86.5068 25.8168 88.7746 25.51 91.049 26.2657C92.9077 26.884 93.9057 28.2314 94.15 30.1621C94.2599 31.0276 94.2343 31.894 94.2419 32.7613ZM88.7907 32.4346C88.286 32.4346 87.7813 32.4346 87.2861 32.5369C87.0547 32.5842 86.8269 32.6475 86.6043 32.7263C85.6177 33.0861 85.1707 33.7678 85.1489 34.9145C85.1262 36.0792 85.5627 36.814 86.5295 37.2003C87.4153 37.5436 88.3769 37.6434 89.3143 37.4891C90.941 37.2524 91.5698 36.5962 91.815 34.9675C91.9173 34.2934 91.8605 33.6163 91.8832 32.9403C91.8908 32.7016 91.7677 32.6562 91.5679 32.6392C90.6428 32.5606 89.7215 32.4327 88.7907 32.4327V32.4346Z" fill="#01B9C5"/>
<path d="M97.3534 44.1358C96.4794 44.1509 96.0609 43.8905 95.953 43.347C95.7977 42.5621 96.1679 42.0621 96.9841 41.9949C97.7179 41.9333 98.4338 41.8348 98.9669 41.2554C99.7111 40.4458 100.065 39.4326 100.419 38.4204C100.485 38.231 100.357 38.16 100.238 38.088C99.4716 37.625 99.0483 36.9101 98.7112 36.1081C97.5219 33.2788 96.3226 30.4542 95.1131 27.6344C94.7892 26.8769 94.9407 26.3088 95.5609 26.0379C95.7188 25.9658 95.8894 25.9259 96.0628 25.9205C96.2363 25.9152 96.4091 25.9446 96.571 26.007C96.7329 26.0693 96.8808 26.1634 97.0059 26.2837C97.131 26.404 97.2308 26.548 97.2994 26.7074C97.8505 27.9781 98.3893 29.2536 98.9309 30.529C99.6146 32.1387 100.293 33.7484 100.98 35.3581C101.044 35.5068 101.057 35.7634 101.253 35.7483C101.417 35.735 101.448 35.4888 101.503 35.3326C102.489 32.5109 103.472 29.6879 104.451 26.8636C104.641 26.3106 105 25.9963 105.579 25.9414C106.495 25.8533 107.047 26.5436 106.746 27.4157C105.929 29.7627 105.11 32.1087 104.289 34.4539C103.556 36.5313 102.932 38.6495 102.054 40.6721C101.498 41.9542 100.701 43.0516 99.3759 43.6652C98.7375 43.9484 98.0512 44.1081 97.3534 44.1358Z" fill="#01B9C5"/>
<path d="M66.6297 35.8533C66.6297 36.7197 66.6345 37.5871 66.6297 38.4535C66.6297 39.1646 66.161 39.5897 65.4158 39.5897C64.6933 39.5897 64.2436 39.1655 64.2407 38.4696C64.2351 36.8599 64.2407 35.2558 64.2322 33.649C64.2322 33.4056 64.2909 33.2428 64.5087 33.1045C65.5705 32.4329 66.6259 31.7476 67.6751 31.0488C67.8853 30.9096 68.0169 30.8935 68.2508 31.0488C69.6787 31.9777 71.528 31.8925 72.7959 30.8727C74.1887 29.7516 74.6896 28.0169 74.0931 26.3816C73.525 24.825 71.9815 23.7853 70.2667 23.825C69.5532 23.8338 68.8586 24.0561 68.2726 24.4632C68.0482 24.6214 67.8806 24.6526 67.6486 24.4812C67.2168 24.1669 66.7699 23.8714 66.3154 23.5912C66.0824 23.4482 66.0313 23.3667 66.2623 23.1537C68.4402 21.1823 71.6501 21.0298 74.1016 22.7939C76.4073 24.4547 77.2415 27.64 76.0607 30.2743C75.697 31.0939 75.1594 31.8246 74.4852 32.4158C73.811 33.007 73.0163 33.4445 72.1562 33.6981C71.2961 33.9516 70.3912 34.0152 69.5041 33.8842C68.6171 33.7533 67.7691 33.431 67.0189 32.9398C66.9242 32.8763 66.8295 32.7324 66.6941 32.811C66.5587 32.8896 66.6316 33.042 66.6307 33.1604C66.6259 34.0571 66.6288 34.9557 66.6297 35.8533Z" fill="#01B9C5"/>
<path d="M61.3954 27.7388C61.3954 26.1016 61.3954 24.4635 61.3954 22.8264C61.3954 22.529 61.4162 22.2459 61.7069 22.0906C61.9976 21.9353 62.2495 22.0442 62.5004 22.208C65.0254 23.8613 67.5523 25.513 70.0812 27.1631C70.6493 27.5371 70.6493 28.0001 70.0707 28.3808C67.5621 30.029 65.0491 31.6731 62.5316 33.3131C62.2703 33.4845 62.0042 33.6133 61.6974 33.44C61.3906 33.2667 61.3954 32.9524 61.3954 32.6512C61.3954 31.0131 61.3954 29.3757 61.3954 27.7388Z" fill="#01B9C5"/>
<path d="M77.9573 28.6891C77.9573 26.4052 77.9659 24.1204 77.9517 21.8355C77.9517 21.3422 78.0946 20.9691 78.5529 20.7646C78.7736 20.6557 79.0205 20.611 79.2654 20.6354C79.5103 20.6598 79.7434 20.7525 79.9382 20.9029C80.2857 21.1547 80.317 21.524 80.317 21.9151C80.3119 24.7513 80.3119 27.5872 80.317 30.4228C80.317 31.9511 80.3388 33.4803 80.3103 35.0077C80.2905 36.0966 80.637 36.9649 81.5413 37.6125C82.0924 38.0046 82.1615 38.4856 81.8396 39.012C81.5176 39.5385 80.9874 39.761 80.4192 39.4618C79.0936 38.7583 78.2556 37.6627 78.0255 36.1543C77.9731 35.764 77.95 35.3702 77.9564 34.9764C77.9526 32.8829 77.9564 30.7874 77.9573 28.6891Z" fill="#01B9C5"/>
<path d="M39.082 19.3945C39.8642 18.8065 40.4796 18.0481 41.1728 17.3691C42.2304 16.3332 43.2663 15.2765 44.3022 14.2179C44.3657 14.1496 44.4433 14.0959 44.5297 14.0606C44.616 14.0253 44.709 14.0092 44.8022 14.0134C46.2055 14.0134 47.6084 14.0102 49.0111 14.0039C49.2109 14.0039 49.405 14.0181 49.5025 14.2113C49.6199 14.447 49.3898 14.5455 49.2677 14.6677C47.0261 16.9257 44.7801 19.1796 42.5297 21.4294C42.2579 21.7002 42.2835 21.8612 42.5401 22.1197C43.8155 23.4008 45.0474 24.7264 46.3465 25.983C47.3408 26.9459 48.2981 27.944 49.2914 28.9069C49.3861 29.0016 49.5669 29.0887 49.511 29.2355C49.4552 29.3823 49.2611 29.3084 49.1323 29.3084C47.7451 29.3084 46.3579 29.3037 44.9707 29.316C44.8304 29.3211 44.6906 29.2954 44.5612 29.2408C44.4318 29.1862 44.316 29.1039 44.2217 28.9997C42.6272 27.3869 41.0282 25.7791 39.4248 24.1763C39.3513 24.0946 39.2729 24.0174 39.19 23.9453C39.0233 23.8165 38.8993 23.8099 38.9059 24.074C38.9116 24.4528 38.8917 24.8315 38.9286 25.2103C39.047 26.4214 38.9675 27.6353 39.0044 28.8473C39.0148 29.2052 38.8548 29.3151 38.5224 29.3132C37.514 29.3046 36.5046 29.3009 35.4924 29.3188C35.1619 29.3255 35.0464 29.2099 35.0511 28.8852C35.0644 28.0813 35.0511 27.2755 35.0511 26.4725C35.0511 22.5316 35.053 18.5903 35.0568 14.6487C35.0568 14.4594 34.9195 14.2037 35.2131 14.0806C35.339 14.2188 35.5066 14.1677 35.6571 14.1687C36.4431 14.1734 37.2299 14.1971 38.014 14.1611C38.4476 14.1412 38.5366 14.2955 38.5309 14.698C38.5092 16.2528 38.5234 17.8085 38.5205 19.3642C38.5205 19.5621 38.5149 19.7837 38.7573 19.8045C39.0186 19.8291 39.0906 19.6246 39.082 19.3945Z" fill="#E3E2E6"/>
<path d="M32.4718 24.0923C32.5248 24.882 32.1991 25.5837 31.8809 26.2588C30.8346 28.4812 27.6408 29.9763 24.8655 29.6524C23.4152 29.4984 22.0479 28.8998 20.951 27.9386C19.7201 26.8752 19.0137 25.5316 18.6785 23.9503C18.5658 23.4286 18.6046 22.9229 18.6027 22.4116C18.5923 19.7812 18.6027 17.1507 18.5923 14.5203C18.5923 14.1718 18.6728 14.0468 19.0336 14.0572C19.9805 14.079 20.9274 14.0658 21.8695 14.0629C22.0569 14.073 22.2424 14.1048 22.4225 14.1576C22.7653 14.2343 22.8647 14.4227 22.8618 14.7627C22.841 17.2997 22.8309 19.8361 22.8315 22.3718C22.8142 23.3133 23.168 24.2238 23.8163 24.9067C24.7736 25.9265 26.0434 26.0874 27.2327 25.3346C28.3585 24.6207 28.8376 23.5469 28.8481 22.2582C28.8679 19.7215 28.8537 17.1848 28.8642 14.6481C28.8642 14.4635 28.7572 14.2381 28.9787 14.0913C29.1094 14.2229 29.276 14.169 29.4266 14.1699C30.15 14.1756 30.8734 14.1699 31.5969 14.1699C32.2843 14.1699 32.2852 14.1699 32.2852 14.8327C32.2852 17.4594 32.2966 20.0861 32.2786 22.7118C32.272 23.813 32.112 24.8896 31.4804 25.8365C31.4315 25.8965 31.4001 25.9688 31.3895 26.0454C31.379 26.1221 31.3898 26.2002 31.4207 26.2711C31.9207 25.7238 32.0836 25.0534 32.2729 24.402C32.3099 24.2798 32.2777 24.1207 32.4718 24.0923ZM29.8205 28.0816C29.8811 28.0721 29.9502 28.073 29.9625 27.9926C29.9625 27.9774 29.9256 27.9386 29.9095 27.9414C29.83 27.9528 29.8319 28.0229 29.8224 28.0835L29.7997 28.1213L29.8205 28.0816ZM31.1461 26.6612C30.8933 26.7985 30.7134 26.9936 30.5875 27.3544C30.9321 27.165 31.096 26.9557 31.1452 26.6603C31.2399 26.648 31.3346 26.6215 31.3128 26.4984C31.3081 26.469 31.2456 26.4207 31.2285 26.4274C31.1177 26.4738 31.1566 26.5789 31.1452 26.6641L31.1461 26.6612ZM30.3536 27.6327L30.3224 27.5532C30.2958 27.5636 30.2542 27.5674 30.2457 27.5863C30.2371 27.6053 30.2627 27.6375 30.2731 27.6649L30.3536 27.6327Z" fill="#E3E2E6"/>
<path d="M26.5074 47.0593C25.7356 47.0669 24.963 47.0593 24.1922 47.0906C23.7794 47.1086 23.6979 46.9343 23.6989 46.5613C23.7093 43.1089 23.7046 39.6575 23.6989 36.2052C23.6989 35.5177 23.6989 35.5187 22.9859 35.5187C21.6934 35.5187 20.4009 35.5007 19.1037 35.5272C18.6766 35.5348 18.563 35.3908 18.5762 34.9837C18.6037 34.1021 18.6103 33.2177 18.5762 32.3324C18.5611 31.9035 18.724 31.787 19.1188 31.7889C21.0571 31.7974 23.001 31.7889 24.9346 31.7889L32.0277 31.7832C32.1536 31.7832 32.2796 31.7832 32.4065 31.7832C32.7748 31.7965 32.931 31.9413 32.913 32.3561C32.8733 33.2367 32.8932 34.1211 32.913 35.0073C32.9187 35.2999 32.824 35.4278 32.5343 35.4808C32.094 35.5594 31.6537 35.5196 31.2143 35.5234C30.2674 35.5329 29.3206 35.5433 28.3737 35.5168C27.9826 35.5054 27.8661 35.6209 27.868 36.0167C27.8851 39.4369 27.8832 42.857 27.8803 46.2781C27.8803 46.4874 27.9902 46.7752 27.6285 46.8311C27.6086 45.889 27.6048 44.9478 27.5612 44.0037C27.4798 42.2605 27.5319 40.5125 27.4599 38.7655C27.4183 37.7609 27.2847 36.7591 27.3416 35.7497C27.3416 35.6957 27.3416 35.6181 27.2194 35.6171C27.1153 35.7753 27.1664 35.9656 27.1664 36.1417C27.1664 39.5306 27.1579 42.9205 27.1664 46.3103C27.1664 46.7213 27.1304 46.9987 26.6248 46.9069C26.5253 46.8898 26.4496 46.9249 26.5074 47.0593Z" fill="#E3E2E6"/>
<path d="M41.9748 46.4404C41.3432 45.1223 40.7059 43.8071 40.081 42.4862C38.4833 39.1026 36.8887 35.7184 35.2973 32.3336C35.0691 31.8479 35.0871 31.8043 35.6164 31.7996C36.5927 31.7911 37.5708 31.8327 38.5451 31.7816C39.1568 31.7504 39.4466 32.0373 39.6947 32.5325C40.1122 33.3639 40.3575 34.2587 40.722 35.1099C41.2182 36.2841 41.6935 37.4658 42.1802 38.6437C42.2243 38.7215 42.2746 38.7956 42.3308 38.8653L43.3534 36.5927C44.0352 35.0733 44.7173 33.5542 45.3997 32.0354C45.5313 32.0524 45.6146 32.0098 45.6155 31.863C45.6867 31.8224 45.7657 31.7971 45.8472 31.789C45.9288 31.7808 46.0112 31.7899 46.089 31.8157C46.0123 31.8621 45.874 31.9057 45.8721 31.9549C45.8665 32.0893 46.0019 32.0496 46.0852 32.0496C46.9298 32.0685 47.7744 32.0287 48.621 32.0969C48.8596 32.1159 48.995 32.184 48.8918 32.3725C48.6219 32.8686 48.5329 33.4491 48.2337 33.9102C47.6722 34.7738 47.3048 35.7349 46.908 36.6562C46.5918 37.3919 46.2566 38.1314 45.9337 38.8662C45.4877 39.8709 44.9575 40.8234 44.5408 41.8338C44.216 42.6244 43.8837 43.4217 43.4585 44.1603C43.072 44.8476 42.7508 45.5698 42.4993 46.3173C42.4444 46.4754 42.22 46.4839 42.2276 46.6752C42.0713 46.6761 42.1301 46.4432 41.9748 46.4404Z" fill="#E3E2E6"/>
<path d="M41.9748 46.439C42.1301 46.439 42.0695 46.6748 42.2295 46.6738C42.2219 46.4844 42.4463 46.474 42.5012 46.3159C42.7527 45.5684 43.0739 44.8463 43.4604 44.1589C43.8856 43.4203 44.2179 42.623 44.5427 41.8324C44.9575 40.8221 45.4896 39.8695 45.929 38.8743C46.2518 38.1395 46.587 37.4 46.9033 36.6643C47.3019 35.7392 47.6693 34.7781 48.2289 33.9183C48.5282 33.4572 48.6172 32.8767 48.887 32.3806C48.9902 32.1912 48.8548 32.124 48.6162 32.105C47.7697 32.0369 46.9251 32.0766 46.0805 32.0577C45.9971 32.0577 45.8617 32.0927 45.8674 31.963C45.8674 31.9138 46.0075 31.8683 46.0842 31.8238L49.1238 31.8105C49.2459 31.9119 49.3841 31.8721 49.5196 31.8569C49.6692 32.0066 49.511 32.1249 49.4608 32.2357C47.6996 35.9797 45.9441 39.7275 44.1535 43.4572C43.7085 44.3833 43.218 45.2876 42.8279 46.2392C42.7943 46.3268 42.7557 46.4125 42.7124 46.4958C42.6054 46.6909 42.488 46.9295 42.2541 46.9285C41.9729 46.9162 42.0789 46.5981 41.9748 46.439Z" fill="#FEFEFE"/>
<path d="M26.5074 47.0594C26.4496 46.9211 26.5254 46.8861 26.638 46.9069C27.1437 47.0016 27.1816 46.7175 27.1797 46.3104C27.1664 42.9205 27.1711 39.5307 27.1797 36.1418C27.1797 35.9656 27.1285 35.7753 27.2327 35.6172C27.3577 35.6172 27.3577 35.6958 27.3548 35.7498C27.298 36.7591 27.4315 37.7609 27.4732 38.7656C27.5452 40.5126 27.4931 42.2605 27.5745 44.0038C27.6181 44.9506 27.6219 45.889 27.6417 46.8312C27.5447 46.9275 27.4185 46.9891 27.2829 47.0063C27.1797 46.9921 27.0755 46.9732 26.9912 47.0603L26.5074 47.0594Z" fill="#FEFEFE"/>
<path d="M39.082 19.398C39.0905 19.6281 39.0185 19.8326 38.7581 19.8109C38.5157 19.79 38.5214 19.5685 38.5214 19.3706C38.5214 17.8148 38.5101 16.2591 38.5318 14.7043C38.5375 14.3019 38.4485 14.1475 38.0148 14.1674C37.2308 14.2034 36.444 14.1797 35.658 14.175C35.5075 14.175 35.3399 14.2252 35.214 14.0869C36.2915 14.0765 37.37 14.0614 38.4476 14.0566C38.5577 14.0575 38.666 14.0851 38.763 14.1373C38.86 14.1894 38.9429 14.2645 39.0043 14.3559C39.0043 15.28 38.9892 16.2042 39.0043 17.1274C39.0091 17.4664 38.9229 17.8129 39.0668 18.1443C39.0668 18.3991 39.0668 18.6528 39.0668 18.9075C39.0457 18.9247 39.0286 18.9463 39.0169 18.9709C39.0052 18.9955 38.9991 19.0223 38.9991 19.0496C38.9991 19.0768 39.0052 19.1037 39.0169 19.1283C39.0286 19.1528 39.0457 19.1745 39.0668 19.1916C39.0659 19.2579 39.0744 19.328 39.082 19.398Z" fill="#FEFEFE"/>
<path d="M39.0631 18.142C38.9191 17.8106 39.0053 17.464 39.0006 17.1251C38.9892 16.2018 39.0006 15.2777 39.0006 14.3535C39.0299 14.4046 39.0858 14.4558 39.0858 14.5069C39.0839 15.717 39.0725 16.93 39.0631 18.142Z" fill="#E3E2E6"/>
<path d="M49.5215 31.8484C49.386 31.8636 49.2478 31.9033 49.1257 31.802C49.263 31.7755 49.4002 31.7424 49.5215 31.8484Z" fill="#E3E2E6"/>
<path d="M45.6155 31.8626C45.6155 32.0093 45.5313 32.052 45.3997 32.0349C45.4025 32.0094 45.4103 31.9847 45.4227 31.9622C45.4351 31.9398 45.4518 31.9199 45.4718 31.9039C45.4919 31.8879 45.5149 31.876 45.5396 31.8689C45.5642 31.8618 45.5901 31.8597 45.6155 31.8626Z" fill="#FEFEFE"/>
<path d="M39.0583 19.1845C39.0372 19.1673 39.0201 19.1457 39.0084 19.1211C38.9966 19.0965 38.9906 19.0697 38.9906 19.0424C38.9906 19.0152 38.9966 18.9883 39.0084 18.9637C39.0201 18.9392 39.0372 18.9175 39.0583 18.9004V19.1845Z" fill="#E3E2E6"/>
<path d="M26.9865 47.0642C27.0708 46.9771 27.1759 46.9961 27.2782 47.0103C27.2413 47.0486 27.1933 47.0744 27.141 47.0841C27.0887 47.0938 27.0347 47.0868 26.9865 47.0642Z" fill="#E3E2E6"/>
<path d="M29.8196 28.0801L29.7987 28.1198L29.8214 28.082L29.8196 28.0801Z" fill="#FEFEFE"/>
</svg>
