<svg width="104" height="72" viewBox="0 0 104 72" fill="none" xmlns="http://www.w3.org/2000/svg">
<g clip-path="url(#clip0)">
<path d="M48.4404 42.2564C48.4404 43.4202 47.4602 44.3819 46.2738 44.3819C45.0872 44.3819 44.107 43.4202 44.107 42.2564C44.107 41.0925 45.0872 40.1309 46.2738 40.1309C47.4603 40.1309 48.4404 41.0925 48.4404 42.2564Z" fill="#11A1AB"/>
<path d="M46.2738 44.9883C45.0872 44.9883 44.1586 45.9498 44.1586 47.0633V51.3648C44.1586 52.5287 45.0872 53.4395 46.2738 53.4395C47.4602 53.4395 48.3888 52.478 48.3888 51.3648V47.0633C48.3888 45.8992 47.4603 44.9883 46.2738 44.9883Z" fill="#11A1AB"/>
<path d="M54.8371 49.8474H53.9086V43.7241H54.8371C56.5912 43.7241 57.9839 45.0903 57.9839 46.811C57.9839 48.481 56.5912 49.8474 54.8371 49.8474ZM55.3531 40.1309H51.7936C50.607 40.1309 49.6784 41.0925 49.6784 42.2059V51.3656C49.6784 52.5294 50.607 53.4403 51.7936 53.4403H55.3531C59.1189 53.4403 62.1627 50.4544 62.1627 46.7602C62.111 43.1167 59.1189 40.1309 55.3531 40.1309Z" fill="#11A1AB"/>
<path d="M72.3253 43.3684C71.9127 44.3298 70.8292 44.7347 69.6428 44.2793C68.8174 43.9757 67.4762 43.5203 67.1665 43.9757C66.8053 44.5829 68.3531 44.9372 68.9721 45.1396C69.5395 45.3419 70.9842 45.8479 71.8094 46.7589C72.6347 47.7204 73.2539 49.3904 72.3252 51.2121C71.345 53.1352 69.1785 53.6412 67.1664 53.4894C65.6188 53.3881 64.0197 52.8823 63.0911 52.1232C62.1625 51.364 62.2655 50.1494 62.8332 49.441C63.4006 48.783 64.4324 48.4289 65.5673 49.036C66.9603 49.795 68.095 49.9469 68.353 49.5421C68.5593 49.1372 68.0435 48.8843 67.4243 48.6312C67.0117 48.4795 64.7419 47.8721 63.7102 46.6069C62.6267 45.2405 62.4205 43.4187 63.5038 41.7993C64.587 40.18 66.4443 39.8763 67.9919 39.927C68.972 39.9775 70.1584 40.1799 71.2419 40.7366C72.3769 41.3442 72.738 42.4068 72.3253 43.3684Z" fill="#11A1AB"/>
<path d="M42.869 50.3027L40.238 45.7988L42.25 43.1673C42.869 42.3068 42.7143 41.0925 41.8372 40.4851C40.9602 39.8273 39.7222 40.0298 39.1031 40.8899L36.0594 44.9386V42.2059C36.0594 41.0421 35.1308 40.1309 33.9444 40.1309C32.7578 40.1309 31.8292 41.0926 31.8292 42.2059V51.3656C31.8292 52.5295 32.7578 53.4403 33.9444 53.4403C35.1308 53.4403 36.0594 52.4788 36.0594 51.3656V49.9991L37.0396 48.734L39.2578 52.4788C39.8252 53.4909 41.1666 53.8453 42.1983 53.2378C43.1269 52.5799 43.4364 51.3147 42.869 50.3027Z" fill="#11A1AB"/>
<path d="M53.9602 33.9052H50.1945V32.8931H52.8254C53.754 32.8931 54.5277 32.1341 54.5277 31.2231C54.5277 30.2617 53.754 29.5531 52.8254 29.5531H50.1945V28.541H53.9602C55.0437 28.541 55.9722 27.6806 55.9722 26.5674C55.9722 25.454 55.0951 24.5938 53.9602 24.5938H48.0793C46.8929 24.5938 45.9643 25.5553 45.9643 26.6686V35.8284C45.9643 36.9922 46.8929 37.9032 48.0793 37.9032H53.9602C55.0437 37.9032 55.9722 37.0428 55.9722 35.9294C55.9721 34.8161 55.0437 33.9052 53.9602 33.9052Z" fill="#11A1AB"/>
<path d="M12.5356 26.569C12.5356 25.4051 11.6071 24.4941 10.4205 24.4941C9.23406 24.4941 8.30554 25.4556 8.30554 26.569V31.832C8.30554 32.9453 7.37682 33.8562 6.24198 33.8562C5.10702 33.8562 4.22999 32.9453 4.22999 31.832V26.569C4.22999 25.4051 3.30148 24.4941 2.11494 24.4941C0.928408 24.4941 0 25.4556 0 26.569V31.832C0 35.2731 2.83722 38.006 6.29366 38.006C9.80159 38.006 12.5873 35.2226 12.5873 31.832V26.569H12.5356Z" fill="#11A1AB"/>
<path d="M79.0318 27.7316C78.6189 28.693 77.5356 29.0979 76.3491 28.6424C75.5238 28.3388 74.1825 27.8834 73.873 28.3388C73.5118 28.946 75.0594 29.3004 75.6785 29.5028C76.2458 29.7052 77.6903 30.2112 78.5157 31.1222C79.3412 32.0836 79.9602 33.7537 79.0317 35.5755C78.0514 37.4986 75.8846 38.0047 73.8729 37.8527C72.3251 37.7516 70.726 37.2961 69.7973 36.4865C68.8687 35.7274 68.9719 34.5129 69.5394 33.8042C70.1069 33.1464 71.1387 32.7922 72.2737 33.3994C73.6664 34.1584 74.8014 34.3102 75.0593 33.9054C75.2656 33.5006 74.7498 33.2476 74.1307 32.9946C73.718 32.8428 71.4481 32.2355 70.4163 30.9704C69.3331 29.604 69.1267 27.7822 70.2102 26.1627C71.2935 24.5433 73.1505 24.2397 74.6981 24.2903C75.6784 24.3409 76.8648 24.5433 77.9481 25.1C79.0318 25.7073 79.4445 26.77 79.0318 27.7316Z" fill="#11A1AB"/>
<path d="M31.9326 26.569C31.9326 25.4051 31.0039 24.4941 29.8174 24.4941C28.6309 24.4941 27.7023 25.4556 27.7023 26.569V35.7287C27.7023 36.8925 28.6309 37.8035 29.8174 37.8035C31.0039 37.8035 31.9326 36.8418 31.9326 35.7287V26.569Z" fill="#11A1AB"/>
<path d="M101.833 33.6031H98.2221V26.569C98.2221 25.4051 97.2935 24.4941 96.107 24.4941C94.9205 24.4941 93.992 25.4556 93.992 26.569V35.7287C93.992 36.8925 94.9205 37.8035 96.107 37.8035H101.885C103.071 37.8035 104 36.8925 104 35.7287C104 34.5646 103.02 33.6031 101.833 33.6031Z" fill="#11A1AB"/>
<path d="M85.4285 32.2346L86.5118 29.2488L87.6468 32.2346H85.4285ZM83.4682 26.6174C82.9007 28.0849 80.0636 35.2203 80.0636 35.2203C79.6507 36.2324 80.1665 37.3456 81.1983 37.6999C82.2301 38.1048 83.3651 37.5987 83.7262 36.5867L84.0872 35.6252H88.988L89.3492 36.5867C89.7619 37.5987 90.8452 38.0542 91.8769 37.6999C92.9087 37.295 93.3731 36.1817 93.0119 35.2203C93.0119 35.2203 90.2263 28.0849 89.6072 26.6174C89.0914 25.2509 87.9563 24.3906 86.5119 24.3906C85.0674 24.3906 83.9841 25.2509 83.4682 26.6174Z" fill="#11A1AB"/>
<path d="M24.2459 24.4941C23.0595 24.4941 22.131 25.4556 22.131 26.569V30.3139L17.5397 25.2026C17.127 24.7472 16.5595 24.4941 15.9405 24.4941C14.754 24.4941 13.8254 25.4556 13.8254 26.569V35.7287C13.8254 36.8925 14.754 37.8035 15.9405 37.8035C17.127 37.8035 18.0555 36.8418 18.0555 35.7287V31.9838L22.75 37.196C23.1112 37.6009 23.6787 37.8034 24.246 37.8034C25.4327 37.8034 26.3612 36.8417 26.3612 35.7286V26.5689C26.4127 25.4556 25.4326 24.4941 24.2459 24.4941Z" fill="#11A1AB"/>
<path d="M63.5553 28.3909C64.0713 28.3909 64.4842 28.7958 64.4842 29.3018C64.4842 29.8078 64.0713 30.2127 63.5553 30.2127H61.234V28.3909H63.5553ZM66.5475 33.0467C67.6825 32.1864 68.4048 30.8199 68.4048 29.3018C68.4048 26.6703 66.238 24.4941 63.5039 24.4941H59.0674C57.881 24.4941 56.9524 25.4556 56.9524 26.569V35.7287C56.9524 36.8925 57.881 37.8035 59.0674 37.8035C60.2539 37.8035 61.1825 36.8418 61.1825 35.7287V34.1092H61.9048L64.5871 37.1456C65.3609 38.0059 66.6507 38.107 67.5276 37.3478C68.4047 36.5889 68.5077 35.3236 67.7341 34.4634L66.5475 33.0467Z" fill="#11A1AB"/>
<path d="M43.6945 24.695C42.6111 24.2395 41.3731 24.7456 40.9087 25.8083L38.9484 30.4135L36.988 25.8083C36.5237 24.7456 35.2856 24.2395 34.2024 24.695C33.119 25.1505 32.6031 26.3651 33.0674 27.4277L36.988 36.5875C37.3491 37.3972 38.123 37.8525 38.9484 37.8525C39.7738 37.8525 40.5475 37.3971 40.9087 36.5875L44.8293 27.4277C45.2936 26.3651 44.7778 25.1505 43.6945 24.695Z" fill="#11A1AB"/>
<path d="M87.3373 45.5972C87.75 44.0789 86.8728 42.4597 85.2737 42.0547C83.7261 41.6497 82.0752 42.5102 81.6625 44.0789V44.1296C79.857 50.506 75.9363 56.3257 70.0553 60.5258C56.2816 70.3436 36.988 67.3072 27.0317 53.7953C24.865 50.8602 23.2658 47.6213 22.3372 44.2814C22.3372 44.2309 22.2856 44.1296 22.2856 44.0789C21.873 42.5607 20.2221 41.6497 18.6745 42.0547C17.1269 42.4597 16.1982 44.0789 16.611 45.5972C17.7459 49.6457 19.6032 53.5424 22.2855 57.1354C34.2023 73.228 57.107 76.821 73.5118 65.1312C80.5277 60.121 85.1706 53.1881 87.3373 45.5972Z" fill="#FEEF34"/>
<path d="M82.3333 15.8391C82.3333 15.8391 81.8689 15.1812 81.611 14.8776C69.746 -1.21509 46.7895 -4.80819 30.4364 6.83126C26.8769 9.3616 23.8849 12.4485 21.5635 15.8391C20.6349 17.1548 21.0476 18.926 22.3889 19.837C23.7301 20.7478 25.5358 20.3937 26.4644 19.0778C26.516 19.0272 26.516 18.9767 26.5675 18.926C28.5278 16.1427 30.9525 13.6124 33.893 11.5376C47.6667 1.72007 66.9605 4.75634 76.9167 18.2682C77.1231 18.5212 77.2778 18.7742 77.4842 19.0779C78.3611 20.3937 80.2183 20.7479 81.5596 19.8371C82.9007 18.926 83.2618 17.1548 82.3333 15.8391Z" fill="#FEEF34"/>
</g>
<defs>
<clipPath id="clip0">
<rect width="104" height="72" fill="white"/>
</clipPath>
</defs>
</svg>
