<svg width="142" height="25" viewBox="0 0 142 25" fill="none" xmlns="http://www.w3.org/2000/svg">
<path d="M36.0037 0.634766C27.3798 0.634766 16.1871 3.83554 7.56324 7.03631C19.3981 4.75004 34.0789 4.20061 45.2716 4.93221C43.5285 2.82885 40.8661 0.634766 36.0037 0.634766V0.634766ZM37.2204 6.12893C24.2515 6.31503 11.8304 8.9575 0.500107 13.7131C17.5644 14.7191 30.3167 16.1819 44.9039 19.2912C46.647 17.2793 47.7476 14.7191 47.7476 11.8841C47.6558 9.87219 47.1975 7.95173 46.28 6.39707C43.2353 6.17416 40.2133 6.08621 37.2204 6.12914V6.12893ZM21.7121 18.8214C18.9168 18.8514 16.1659 18.9471 13.62 19.1071C30.4091 21.4849 31.51 23.1313 35.6385 23.1313C38.8495 23.1313 41.601 22.125 43.6194 20.4789C38.8717 19.2443 30.0983 18.7314 21.712 18.8214H21.7121Z" fill="#FFD400"/>
<path d="M123.069 5.11523C118.115 5.11523 114.629 9.41268 114.171 13.528C113.804 17.0031 115.546 19.199 119.399 19.199C120.867 19.199 122.427 19.0157 124.078 18.3756L125.089 15.1748C123.988 15.6321 122.243 16.1804 120.776 16.1804C119.583 16.1804 118.758 15.8153 118.299 15.0837C118.024 14.7179 118.023 14.0778 118.023 13.712C123.344 13.8034 126.922 12.6146 127.289 9.13943C127.565 6.67027 125.822 5.11524 123.07 5.11524L123.069 5.11523ZM78.6644 5.20632C74.8112 5.20632 71.8765 7.03533 71.5095 9.77885C71.2343 11.425 72.5191 12.6142 74.1705 13.3458C75.4549 13.9859 75.9125 14.4436 75.8208 15.0837C75.7299 15.7239 75.0877 16.1802 73.8033 16.1802C72.3354 16.1802 70.684 15.6315 69.7666 15.1742L68.8492 18.375C69.8583 18.8323 71.1424 19.1984 73.069 19.1984C77.014 19.1984 80.1329 17.5512 80.4998 14.4419C80.7751 12.6129 79.2158 11.5155 77.6562 10.7839C76.4635 10.2352 75.9141 9.77866 76.0059 9.22995C76.0976 8.49835 76.9222 8.04036 78.1149 8.04036C79.3993 8.04036 80.5923 8.49833 81.2345 8.77268L82.1529 5.75445C81.4189 5.48009 80.4088 5.20611 78.6657 5.20611L78.6644 5.20632ZM94.169 5.20632C90.3158 5.20632 86.3705 8.31527 85.0861 12.1562C83.8934 15.9971 85.82 19.199 89.6733 19.199C93.9852 19.199 97.7481 15.9971 98.9412 12.1562C100.226 8.31491 98.1155 5.20595 94.1705 5.20595L94.169 5.20632ZM110.042 5.20632C108.482 5.20632 106.739 6.12047 105.454 7.58367H105.363L105.913 5.4814H102.335C101.968 6.85316 101.326 9.13869 100.867 10.6934L96.647 24.4109V24.502H100.591L102.334 18.7417H102.426C102.884 19.0161 103.803 19.2901 104.904 19.2901C109.583 19.2901 113.252 14.9912 113.802 10.3272C114.078 7.58332 112.977 5.20597 110.041 5.20597L110.042 5.20632ZM138.298 5.20632C136.463 5.20632 134.72 5.84612 133.252 7.58367H133.16L133.71 5.4814H130.134C129.859 6.67026 129.492 8.13237 128.941 9.8703L126.189 18.9239V19.015H130.135C130.135 19.015 131.143 15.8153 132.061 12.7975C133.07 9.68814 134.537 8.22493 135.913 8.22493C137.381 8.22493 137.29 9.50524 136.739 11.4257C136.281 13.0718 134.446 18.9237 134.446 18.9237H138.483L140.868 11.1504C141.052 10.5103 141.235 9.50432 141.327 8.86417C141.602 6.5779 140.501 5.20615 138.299 5.20615L138.298 5.20632ZM66.9213 5.38849C66.9213 5.38849 66.0042 8.49854 64.995 11.6079C63.9859 14.7172 62.5169 16.1804 61.1407 16.1804C59.6728 16.1804 59.7642 14.9001 60.3147 12.9796C60.7734 11.3335 62.6082 5.4814 62.6082 5.4814H58.6644L56.2794 13.2547C56.0959 13.8949 55.9125 14.9008 55.8207 15.541C55.5455 17.8272 56.6453 19.199 58.8471 19.199C60.682 19.199 62.4251 18.5574 63.893 16.8198H63.9844L63.4339 18.9241H67.0119C67.2872 17.7352 67.6549 16.2713 68.2053 14.5337L70.9576 5.48159V5.38871H66.9206L66.9213 5.38849ZM122.242 8.04092C123.159 8.04092 123.618 8.49924 123.618 9.13943C123.434 10.3283 121.876 10.7844 118.756 10.7844C119.123 9.59558 120.407 8.04092 122.242 8.04092ZM93.2507 8.13201C94.8103 8.13201 95.1773 9.5045 95.0856 10.6934C94.8103 12.9796 93.2503 16.1804 91.0485 16.1804C89.6723 16.1804 89.0301 15.1741 89.2136 13.528C89.3971 11.4246 90.9571 8.13201 93.2507 8.13201ZM108.297 8.13201C109.581 8.13201 109.856 9.22979 109.764 10.3272C109.397 12.9793 107.195 16.18 105.085 16.18C104.351 16.18 103.709 15.9978 103.342 15.5406L104.259 12.6131C104.993 10.0525 106.828 8.13163 108.296 8.13163L108.297 8.13201Z" fill="#00288C"/>
</svg>
