<svg width="103" height="55" viewBox="0 0 103 55" fill="none" xmlns="http://www.w3.org/2000/svg">
<g clip-path="url(#clip0)">
<path d="M51.2925 49.5873V54.8613H49.0805V50.4198C49.0805 49.3095 48.5274 48.7548 47.5597 48.7548C46.7301 48.7548 46.3154 49.3095 46.3154 50.4198V54.8613H43.965V46.8108H46.3154V47.9212C46.8684 47.0887 47.5597 46.6719 48.5274 46.6719C50.3248 46.6719 51.2925 47.6444 51.2925 49.5873Z" fill="#71CDF4"/>
<path d="M29.31 3.78166C29.7248 2.81027 30.5543 1.83877 31.5221 0.867379L32.3516 0.173828H21.5677V19.467C21.5677 20.8553 21.5677 21.9656 21.4294 22.6592C21.1529 25.1578 20.3234 26.8239 18.8026 27.6565C18.1113 28.0721 17.1435 28.211 16.0375 28.211C14.9314 28.211 13.9637 27.9344 13.2724 27.2396C12.0281 26.2683 11.3368 24.602 11.1986 22.2424L11.0603 0.173828H0V19.8838C0 22.7982 0.138486 25.0189 0.415226 26.4072C0.829301 28.3501 1.52115 30.1551 2.62719 31.8201C3.59487 33.3473 4.97753 34.7356 6.77439 35.707C8.57171 36.6785 10.5073 37.2341 12.4429 37.5109C14.3784 37.7888 16.4523 37.7888 18.6643 37.6498C20.5999 37.5109 22.5355 37.0952 24.3328 36.4005C26.1301 35.707 27.5127 34.5966 28.757 33.2084C30.0013 31.9591 30.8308 30.5708 31.5221 28.7668L31.6603 28.3501C33.3194 29.8772 34.8402 30.9875 36.0845 31.6811C38.0201 32.6526 39.8174 32.9304 41.4764 32.6526C42.306 32.6526 43.1355 32.2369 43.965 31.5422C44.5181 30.8486 44.9328 30.1551 45.2093 29.1825C45.3476 28.3501 45.2093 27.5175 44.7946 26.8239C44.3798 26.1292 43.965 25.5746 43.2738 25.1578C42.4442 24.602 41.4764 24.1865 40.2322 23.7696L34.0107 21.5489L31.3838 19.8838C30.1395 18.7723 29.0335 17.2463 28.3422 15.3023C27.6509 13.4983 27.3744 11.5554 27.5127 9.61148C27.6509 7.25172 28.3422 5.30883 29.31 3.78166Z" fill="#71CDF4"/>
<path fill-rule="evenodd" clip-rule="evenodd" d="M60.1409 51.6691H54.7489C54.8872 52.7795 55.5785 53.3352 56.5462 53.3352C57.2375 53.3352 57.7905 53.0574 58.4818 52.5016L59.8644 53.612C59.1731 54.5845 58.0671 55.0003 56.5462 55.0003C53.7811 55.0003 52.3986 53.612 52.3986 50.8366C52.3986 48.0601 53.7811 46.6719 56.408 46.6719C59.0348 46.6719 60.2791 48.1991 60.2791 51.1145L60.1409 51.6691ZM54.6107 50.2809H58.0671C57.9288 49.0315 57.3758 48.477 56.408 48.477C55.4402 48.477 54.7489 49.0315 54.6107 50.2809Z" fill="#71CDF4"/>
<path d="M61.9382 44.7285H64.1503V46.8103H66.0859V48.7544H64.1503V52.2244C64.1503 52.6402 64.4268 52.918 64.9798 52.918L66.0859 52.7791V54.4452C65.5328 54.8609 64.9798 54.9998 64.2885 54.9998C62.7677 54.9998 61.9382 54.1673 61.9382 52.6401V48.7544H60.9704V46.8103H61.9382V44.7285Z" fill="#71CDF4"/>
<path d="M74.2429 46.8105L75.7637 51.6689L77.008 46.8105H79.3583L76.8698 54.8611H74.7959L73.2751 50.0028L71.7543 54.8611H69.6805L67.3301 46.8105H69.5422L70.7865 51.6689L72.3073 46.8105H74.2429Z" fill="#71CDF4"/>
<path fill-rule="evenodd" clip-rule="evenodd" d="M83.9208 55.0003C81.0174 55.0003 79.4966 53.612 79.4966 50.8366C79.4966 48.0601 81.0174 46.6719 83.9208 46.6719C86.8242 46.6719 88.2067 48.0601 88.2067 50.8366C88.2067 53.612 86.8242 55.0003 83.9208 55.0003ZM85.9946 50.8366C85.9946 49.3095 85.3034 48.6159 83.9208 48.6159C82.5383 48.6159 81.847 49.3095 81.847 50.8366C81.847 52.3627 82.5383 53.0574 83.9208 53.0574C85.3034 53.0574 85.9946 52.3627 85.9946 50.8366Z" fill="#71CDF4"/>
<path d="M97.608 43.8965V49.7262L100.235 46.8108H103L99.9584 50.003L103 54.8613H100.511L98.4376 51.6691L97.608 52.5015V54.8613H95.2577V43.8965H97.608Z" fill="#71CDF4"/>
<path d="M91.5248 46.8108V48.477C92.0778 47.2277 92.9074 46.6719 94.1517 46.6719V49.1706H94.0134C92.3544 49.1706 91.5248 50.1419 91.5248 51.9471V54.8613H89.3127V46.8108H91.5248Z" fill="#71CDF4"/>
<path d="M90.004 35.4297L90.557 36.4011L91.11 35.4297H91.5248V37.3726H91.2483V35.9854L90.557 36.9569L90.004 35.9854V37.3726H89.5892V35.4297H90.004Z" fill="#71CDF4"/>
<path d="M87.6537 35.8464V35.4297H89.1745V35.8464H88.6215V37.3726H88.2067V35.8464H87.6537Z" fill="#71CDF4"/>
<path fill-rule="evenodd" clip-rule="evenodd" d="M72.5839 11.5552C74.9342 13.3592 76.0402 16.1357 75.7637 19.6058C75.6255 23.0759 74.3812 25.5744 71.7543 27.1006C70.7865 27.7953 69.5422 28.0719 68.1597 28.0719C66.5006 28.0719 64.9798 27.5173 63.7355 26.407C62.4912 25.2966 61.5234 23.7694 60.9704 21.9654C59.7261 17.8007 60.4174 14.4696 63.3208 11.832C64.7033 10.4449 66.2241 9.75023 67.8832 9.75023C69.5422 9.61131 71.0631 10.306 72.5839 11.5552ZM60.9704 0.867203C59.7261 1.28396 58.4818 1.97762 57.3758 2.67118C55.1637 4.19835 53.3664 6.41908 51.9838 9.19559C49.91 7.39046 48.3892 6.28016 47.1449 5.72553C44.9328 4.8919 42.9973 4.8919 41.4764 5.58661C40.5087 6.00336 39.9556 6.558 39.5409 7.25155C38.9879 7.94625 38.8496 8.91776 38.9879 9.88914C38.9879 10.7216 39.2644 11.5552 39.9556 12.2488C40.6469 12.8046 41.3382 13.2203 42.306 13.4981L48.1127 15.5799C50.1865 16.2746 51.9838 17.2461 53.2281 18.4954C55.9932 21.1318 57.0993 24.6019 56.408 29.1824C56.2698 30.4317 55.9932 31.4042 55.5785 32.2367L55.1637 33.2082L55.5785 33.4861L56.5463 34.4574C57.9288 35.4289 59.4496 36.2614 60.9704 36.9561C64.2886 38.2055 67.4684 38.2055 70.6483 37.234C72.4456 36.5392 73.9664 35.5679 75.349 34.1796V37.3718H85.9946V0.450333H75.349V3.64372C73.9664 2.39438 72.4456 1.42184 70.9248 0.867203C69.5422 0.450333 68.1597 0.173653 66.6389 0.0347344C64.5651 -0.104184 62.7677 0.173653 60.9704 0.867203Z" fill="#71CDF4"/>
</g>
<defs>
<clipPath id="clip0">
<rect width="103" height="55" fill="white"/>
</clipPath>
</defs>
</svg>
