<svg width="135" height="19" viewBox="0 0 135 19" fill="none" xmlns="http://www.w3.org/2000/svg">
<path d="M128.354 0C128.334 5.70613 128.314 11.4123 128.295 17.1184C128.295 17.6404 128.295 18.1625 128.295 18.6641C126.465 19.2361 124.813 18.9546 124.209 17.9423C123.306 18.4843 122.298 18.8257 121.251 18.9431C120.205 19.0606 119.145 18.9515 118.145 18.6232C116.58 18.1381 115.238 17.1144 114.356 15.7338C112.409 12.7537 112.833 8.50926 115.332 5.95126C117.638 3.58846 120.873 3.35695 124.286 5.461V0H128.354ZM117.232 11.326C117.214 13.5572 118.594 15.1278 120.603 15.1732C122.666 15.2186 124.234 13.5957 124.223 11.4236C124.223 9.38084 122.693 7.74889 120.759 7.72166C118.825 7.69442 117.243 9.27643 117.225 11.326H117.232Z" fill="black"/>
<path d="M39.0736 0V18.9682C37.6482 18.4984 36.0593 19.724 35.0198 18.024C30.4032 19.6423 27.1029 18.8525 25.0783 15.6317C23.174 12.6061 23.6688 8.36853 26.2132 5.87182C28.5533 3.57938 31.7287 3.3751 34.9926 5.41787V0H39.0736ZM35.0016 11.4009C34.9835 9.32636 33.4787 7.73301 31.5312 7.72166C29.5838 7.71031 28.0108 9.3309 27.9972 11.3532C27.9836 13.5821 29.4816 15.2118 31.5358 15.18C33.5899 15.1482 35.0221 13.5572 35.0016 11.4009Z" fill="black"/>
<path d="M77.5956 0V18.7889H73.5101V0H77.5956Z" fill="black"/>
<path d="M90.2585 5.50616C90.1427 4.37129 90.7601 4.31227 91.5205 4.34632C92.4125 4.38718 93.3113 4.35767 94.2646 4.35767V18.9067C92.8868 18.5731 91.3457 19.6058 90.145 17.9988C88.2044 19.0542 86.0595 19.3243 83.851 18.5027C82.3123 17.9465 81.0196 16.8644 80.2013 15.4476C78.3741 12.3608 78.9915 8.08458 81.5949 5.71951C84.0099 3.53375 87.2533 3.40438 90.2585 5.50616ZM83.2472 11.3939C83.2541 13.6182 84.6613 15.1639 86.7041 15.173C88.7468 15.1821 90.2403 13.5842 90.2562 11.4642C90.2721 9.3738 88.6878 7.69646 86.7222 7.72369C84.7566 7.75093 83.2404 9.33748 83.2472 11.3939Z" fill="black"/>
<path d="M100.422 18.8388H96.4435V4.45321H100.164C100.259 4.77552 100.37 5.15229 100.502 5.6017C102.281 4.18765 104.236 3.76775 106.403 4.03104C108.975 4.34654 110.856 5.67887 111.17 8.24368C111.578 11.7187 111.517 15.2481 111.66 18.8229H107.347C107.347 17.5315 107.347 16.3035 107.347 15.0756C107.347 13.6502 107.372 12.2225 107.304 10.7994C107.22 9.03809 106.26 8.03486 104.542 7.77611C102.776 7.51055 101.278 8.29361 100.776 9.91421C100.547 10.7818 100.437 11.6769 100.45 12.5743C100.393 14.6285 100.422 16.6826 100.422 18.8388Z" fill="black"/>
<path d="M64.2813 18.9705C63.2829 18.9907 62.2905 18.812 61.3619 18.4446C60.4333 18.0772 59.5872 17.5287 58.8729 16.8309C58.1585 16.1331 57.5903 15.3 57.2013 14.3803C56.8123 13.4606 56.6103 12.4726 56.6072 11.474C56.604 10.4754 56.7997 9.48615 57.1829 8.56398C57.566 7.64181 58.129 6.80517 58.8389 6.10285C59.5488 5.40053 60.3914 4.8466 61.3177 4.47337C62.2439 4.10013 63.2352 3.91506 64.2337 3.92895C68.4055 3.88583 71.8963 7.33356 71.8759 11.494C71.8591 13.4922 71.0498 15.402 69.6258 16.8039C68.2018 18.2057 66.2795 18.985 64.2813 18.9705ZM60.8041 11.4327C60.7927 13.6094 62.2703 15.1869 64.3086 15.1755C66.2742 15.1619 67.7722 13.5867 67.7904 11.4917C67.8085 9.39676 66.2242 7.69899 64.2564 7.71715C62.2885 7.73531 60.8132 9.34001 60.8041 11.4327Z" fill="black"/>
<path d="M44.8296 12.4427C45.0021 15.4774 48.4135 16.3421 50.2407 14.8895C50.5866 14.6319 50.9996 14.4798 51.43 14.4514C52.4832 14.3924 53.5409 14.4333 54.6077 14.4333C53.8586 17.7448 50.2952 19.3859 46.8905 18.9115C43.0116 18.369 40.1517 14.4651 40.7055 10.4408C41.2866 6.20775 44.9703 3.43185 49.1739 4.0583C53.003 4.62801 55.7879 8.4616 55.1115 12.4563H44.8296V12.4427ZM44.9091 10.0277H51.0237C50.7582 8.2664 49.5325 7.18601 47.9029 7.21551C46.2732 7.24502 45.1428 8.30499 44.9091 10.0277Z" fill="black"/>
<path d="M-3.05176e-05 4.3667C1.58879 4.3667 2.93701 4.32131 4.2807 4.39848C4.58485 4.41664 4.96162 4.80476 5.13866 5.11572C6.23041 7.07904 7.26314 9.07869 8.44113 11.2554C9.41031 9.45773 10.4135 7.87118 11.1353 6.16661C11.7595 4.68901 12.6379 4.09888 14.2199 4.35082C15.0166 4.47338 15.8473 4.37351 16.8959 4.37351C14.027 9.3329 11.2828 14.0903 8.44794 18.9997C5.61077 14.0835 2.87346 9.34652 -3.05176e-05 4.3667Z" fill="black"/>
<path d="M22.0165 18.8231H18.1034V4.43066H22.0165V18.8231Z" fill="black"/>
<path d="M132.342 18.9522C130.957 18.9522 129.924 17.9604 129.961 16.6621C129.99 16.0564 130.255 15.4862 130.699 15.0732C131.143 14.6602 131.731 14.437 132.337 14.4513C133.699 14.4513 134.73 15.4636 134.702 16.771C134.677 18.0443 133.688 18.95 132.342 18.9522Z" fill="black"/>
</svg>
