<svg width="134" height="25" viewBox="0 0 134 25" fill="none" xmlns="http://www.w3.org/2000/svg">
<path d="M133.36 19.9972C132.573 19.9972 131.785 19.9903 130.997 20.0042C130.785 20.0042 130.743 19.9373 130.754 19.7458C130.771 19.4875 130.754 19.228 130.754 18.9674C130.732 18.9674 130.706 18.9582 130.7 18.9674C129.882 20.0272 128.721 20.2233 127.501 20.1806C125.071 20.0976 123.25 18.4565 122.865 16.0543C122.634 14.6415 122.721 13.2599 123.326 11.9452C124.342 9.75403 126.893 8.65267 129.08 9.44496C129.332 9.53525 129.572 9.65856 129.792 9.81169C130.02 9.9799 130.224 10.1768 130.401 10.3975V8.55234C130.401 7.33335 130.401 6.11436 130.401 4.89537C130.401 4.69586 130.447 4.63474 130.653 4.6405C131.553 4.66588 132.455 4.61629 133.357 4.66818L133.36 19.9972ZM125.671 14.683C125.661 15.4661 125.807 16.2088 126.268 16.8615C126.491 17.184 126.79 17.4477 127.137 17.63C127.485 17.8123 127.871 17.9079 128.264 17.9086C128.656 17.9093 129.043 17.815 129.391 17.6339C129.739 17.4528 130.038 17.1902 130.263 16.8685C131.083 15.7152 131.093 13.6982 130.286 12.5391C130.069 12.2203 129.78 11.9576 129.442 11.773C129.103 11.5885 128.726 11.4873 128.341 11.478C127.955 11.4686 127.574 11.5513 127.227 11.7192C126.88 11.8871 126.578 12.1354 126.346 12.4434C125.84 13.1019 125.671 13.8688 125.671 14.683Z" fill="#0E0E0E"/>
<path d="M22.023 24.6793V24.7808H21.8546C21.8015 24.7035 21.7139 24.692 21.6343 24.6655L19.314 23.7429C16.9313 22.7995 14.5464 21.8608 12.1638 20.9082C11.5629 20.6671 10.9448 20.4653 10.3705 20.1609C10.4662 20.1009 10.5608 20.0363 10.66 19.9798L16.5623 16.5719C18.9703 15.1834 21.3791 13.7957 23.7886 12.4087C23.7976 12.4359 23.8023 12.4643 23.8024 12.4929C23.6441 13.5892 23.4845 14.6852 23.3238 15.7808C23.1601 16.8964 22.9955 18.0112 22.8302 19.1252C22.6849 20.1078 22.5408 21.0904 22.3978 22.073C22.2724 22.9402 22.1475 23.809 22.023 24.6793Z" fill="#D84042"/>
<path d="M22.0255 0V0.115325C22.0543 0.322911 22.0809 0.530497 22.112 0.738082C22.2366 1.5838 22.3615 2.43144 22.4868 3.28101C22.6121 4.13057 22.7371 4.97821 22.8616 5.82393C22.9862 6.66965 23.1111 7.51768 23.2364 8.36801C23.3621 9.21565 23.4936 10.0621 23.6089 10.9121C23.6735 11.3907 23.7877 11.8647 23.7935 12.3513C23.7303 12.3316 23.6686 12.3074 23.6089 12.2787C19.4872 9.89607 15.3659 7.51652 11.2449 5.14005C10.9508 4.97168 10.6833 4.74218 10.3338 4.67875L10.3004 4.64646C10.3077 4.63158 10.3139 4.61616 10.3188 4.60033C10.3926 4.57957 10.4676 4.56343 10.538 4.53575C14.233 3.07265 17.9284 1.60764 21.6242 0.140697C21.7061 0.107253 21.8168 0.110712 21.8548 0H22.0255Z" fill="#F38F91"/>
<path d="M0.519562 12.4479V12.3325L0.624508 12.2172C0.709849 12.2956 0.739833 12.1941 0.782504 12.1607C2.98522 10.4231 5.18678 8.68363 7.38719 6.94222C8.35669 6.17338 9.32773 5.40993 10.3003 4.65186L10.3338 4.68415C10.3338 9.70311 10.3338 14.7221 10.3338 19.741C10.3338 19.8656 10.3338 19.9901 10.3245 20.1147C10.2792 20.1044 10.2356 20.0873 10.1954 20.0639C9.35733 19.4035 8.52391 18.7435 7.69511 18.0838C5.51469 16.3539 3.33312 14.624 1.15039 12.8942C0.991243 12.7719 0.865538 12.5759 0.626814 12.5701L0.519562 12.4479Z" fill="#F38F91"/>
<path d="M7.66975 24.7797L0.722551 12.7455C0.689107 12.6879 0.659122 12.6302 0.626831 12.5691C0.864401 12.576 0.991259 12.7721 1.15041 12.8978C3.33621 14.6207 5.51778 16.3506 7.69512 18.0874C8.52393 18.7455 9.35696 19.4029 10.1942 20.0595C10.2345 20.0828 10.278 20.0999 10.3234 20.1102C10.3285 20.1171 10.332 20.125 10.3336 20.1334C10.3352 20.1418 10.3348 20.1504 10.3326 20.1587C9.73523 21.2058 9.13092 22.2507 8.54161 23.3024C8.26714 23.7926 7.93039 24.2504 7.72626 24.7797H7.66975Z" fill="#D84042"/>
<path d="M0.624451 12.213L7.64431 0.0507432C7.65353 0.0345976 7.66045 0.0172988 7.66968 0H7.72734C7.74167 0.0550694 7.76097 0.108724 7.785 0.160302C8.38124 1.19823 8.98323 2.22117 9.57255 3.25679C9.82626 3.7031 10.1169 4.12865 10.3222 4.60148C10.3172 4.61731 10.311 4.63274 10.3037 4.64761C9.33036 5.41107 8.35817 6.17452 7.38713 6.93797C5.18595 8.67708 2.98439 10.4166 0.782446 12.1564C0.739776 12.1899 0.709791 12.2914 0.624451 12.213Z" fill="#B3272F"/>
<path d="M10.3221 4.60148C10.1169 4.12865 9.82624 3.7031 9.57253 3.25679C8.98321 2.21886 8.38121 1.19246 7.78498 0.160302C7.76055 0.108763 7.74087 0.055108 7.72617 0L21.8547 0C21.8166 0.115325 21.7059 0.107253 21.624 0.140697C17.9336 1.60764 14.239 3.07304 10.5401 4.5369C10.4674 4.56458 10.3925 4.58072 10.3221 4.60148Z" fill="#69171B"/>
<path d="M7.72617 24.7798C7.93029 24.2504 8.26704 23.7926 8.54152 23.3025C9.13083 22.2507 9.73513 21.2058 10.3325 20.1587H10.3521H10.3717C10.9484 20.462 11.5642 20.6638 12.165 20.9048C14.5442 21.8574 16.9291 22.7962 19.3152 23.7395L21.6356 24.6621C21.7151 24.6933 21.8028 24.7048 21.8558 24.7775L7.72617 24.7798Z" fill="#69171B"/>
<path d="M67.1984 18.98C66.5941 19.7273 65.8007 20.0306 64.9196 20.1333C63.1148 20.3512 61.5498 19.8761 60.3631 18.438C59.6769 17.6065 59.3471 16.6216 59.2468 15.5549C59.1222 14.2436 59.2468 12.967 59.8568 11.7745C60.9213 9.68711 63.4135 8.66648 65.5412 9.43916C66.0522 9.62789 66.5017 9.95295 66.8409 10.3791V10.0077C66.8409 8.30781 66.849 6.60792 66.8409 4.90917C66.8409 4.69006 66.8998 4.63585 67.1131 4.63931C67.9296 4.65238 68.7461 4.65238 69.5626 4.63931C69.769 4.63931 69.814 4.70159 69.814 4.8988C69.8094 9.85317 69.8094 14.8072 69.814 19.7608C69.814 19.9441 69.7737 20.0076 69.5834 20.0041C68.8626 19.9914 68.1418 19.9926 67.4222 20.0041C67.2411 20.0041 67.1915 19.9545 67.1996 19.7735C67.21 19.5128 67.1984 19.2464 67.1984 18.98ZM67.3253 14.6888C67.343 14.0049 67.1795 13.3285 66.8513 12.7282C65.8895 11.0906 63.6222 11.0318 62.65 12.6637C61.8796 13.9599 61.8658 15.3507 62.5993 16.6654C63.5357 18.3411 65.8503 18.3204 66.8352 16.6654C67.1996 16.0611 67.3126 15.3876 67.3253 14.6888Z" fill="#0F0F0F"/>
<path d="M45.9958 15.7856C46.3234 14.8411 46.6255 13.9761 46.9254 13.1089C47.8726 10.3664 48.8186 7.62439 49.7635 4.88272C49.8281 4.69474 49.9054 4.61286 50.1222 4.61632C51.0632 4.63131 52.0043 4.62324 52.9453 4.62324C52.9542 4.72241 52.9334 4.82199 52.8854 4.90924C51.1763 9.85824 49.4679 14.8072 47.7603 19.7562C47.698 19.9384 47.6277 20.0053 47.4259 20.003C46.4848 19.9892 45.5426 19.9915 44.6015 20.003C44.4032 20.003 44.304 19.9581 44.2337 19.7528C42.6791 15.2266 41.1195 10.702 39.5549 6.17898C39.3981 5.7269 39.2481 5.27252 39.0844 4.82275C39.0336 4.68205 39.0233 4.61978 39.2089 4.62093C40.1315 4.62785 41.0541 4.63016 41.9767 4.62093C42.1716 4.62093 42.1832 4.73625 42.227 4.86542C42.892 6.78751 43.5586 8.71383 44.2267 10.6444C44.8045 12.3397 45.3881 14.0257 45.9958 15.7856Z" fill="#0E0E0E"/>
<path d="M78.1337 15.5088C76.9147 15.5088 75.6946 15.5169 74.4744 15.5019C74.2299 15.5019 74.1965 15.5838 74.2103 15.7948C74.2888 16.9054 74.8827 17.7139 75.8249 17.9733C77.0819 18.3193 78.1764 17.9733 78.8153 16.9723C79.0136 16.6609 79.2178 16.5675 79.5672 16.5814C80.2672 16.6102 80.9696 16.5964 81.6707 16.5814C81.8898 16.5814 81.9671 16.5998 81.9014 16.8581C81.4401 18.7333 80.2107 19.8335 78.2536 20.1057C77.0208 20.2764 75.7984 20.2902 74.6313 19.7851C72.7572 18.9709 71.7481 17.5051 71.4967 15.5054C71.3399 14.2679 71.4898 13.0639 72.0872 11.958C73.1251 10.0424 74.7962 9.17402 76.9309 9.19016C78.4128 9.19824 79.739 9.65146 80.7966 10.7471C81.537 11.5174 81.8345 12.4769 81.981 13.4964C82.0651 14.073 82.0605 14.6635 82.0894 15.2482C82.1009 15.4789 82.0236 15.5146 81.816 15.5123C80.589 15.5042 79.3585 15.5088 78.1337 15.5088ZM74.2818 13.6556C75.9298 13.6556 77.5594 13.6556 79.1901 13.6556C79.4207 13.6556 79.3446 13.516 79.3239 13.4122C78.9387 11.499 77.4418 11.1057 76.1686 11.3733C75.1237 11.5993 74.4802 12.3881 74.2772 13.6556H74.2818Z" fill="#0E0E0E"/>
<path d="M88.8022 9.18091C91.8157 9.19475 94.0634 11.4424 94.1072 14.5124C94.1245 15.826 93.8489 17.0496 93.0531 18.114C91.9391 19.604 90.4006 20.2614 88.5739 20.2049C86.4819 20.1403 84.8708 19.2154 83.924 17.3056C82.848 15.1375 83.3104 12.2739 84.9677 10.6582C86.016 9.63298 87.3053 9.20051 88.8022 9.18091ZM86.1348 14.7384C86.1212 15.105 86.16 15.4716 86.2501 15.8271C86.5615 17.0565 87.446 17.8292 88.6235 17.903C89.6822 17.9687 90.667 17.3079 91.0718 16.2065C91.4498 15.219 91.4436 14.1256 91.0545 13.1423C90.6509 12.1044 89.786 11.5059 88.748 11.4989C87.7297 11.492 86.859 12.0871 86.4288 13.0916C86.2101 13.612 86.1097 14.1745 86.1348 14.7384Z" fill="#0E0E0E"/>
<path d="M100.195 14.7087C100.226 12.7585 100.907 11.1255 102.591 10.0322C105.371 8.22738 110.105 9.20304 110.842 13.6073C111.202 15.7535 110.698 17.6887 108.916 19.1072C106.219 21.2545 101.131 20.4011 100.284 15.8631C100.215 15.4823 100.186 15.0955 100.195 14.7087ZM102.963 14.7214C102.935 15.3564 103.075 15.9875 103.368 16.5516C103.836 17.4165 104.563 17.894 105.55 17.8986C106.537 17.9032 107.298 17.4373 107.741 16.5631C108.042 15.9918 108.2 15.3562 108.203 14.7105C108.206 14.0648 108.052 13.428 107.756 12.8542C107.33 11.9858 106.592 11.5165 105.612 11.5026C104.632 11.4888 103.908 11.9501 103.421 12.7885C103.093 13.3782 102.936 14.0474 102.967 14.7214H102.963Z" fill="#0E0E0E"/>
<path d="M118.64 18.9688C118.094 19.7288 117.384 20.0368 116.586 20.1555C115.62 20.3009 114.665 20.2455 113.772 19.8096C112.487 19.181 111.91 18.0981 111.942 16.7073C111.974 15.2634 112.797 14.3524 114.091 13.8311C115.199 13.3848 116.37 13.3364 117.55 13.3525C117.801 13.3525 118.05 13.3675 118.3 13.3733C118.372 13.3733 118.44 13.3963 118.458 13.2729C118.566 12.5556 118.128 11.7068 117.485 11.4762C116.881 11.2608 116.217 11.2856 115.63 11.5454C115.463 11.6201 115.313 11.7287 115.189 11.8642C115.066 11.9998 114.972 12.1594 114.913 12.333C114.898 12.3915 114.862 12.4424 114.812 12.476C114.762 12.5096 114.702 12.5236 114.642 12.5152C114.008 12.5049 113.373 12.5014 112.74 12.5152C112.54 12.5152 112.525 12.4449 112.547 12.2846C112.736 10.918 113.501 9.99076 114.773 9.52716C116.178 9.00587 117.73 9.05555 119.098 9.66555C120.494 10.2641 121.103 11.4439 121.256 12.8947C121.371 14.0133 121.296 15.1389 121.307 16.2622C121.318 17.4235 121.307 18.5848 121.314 19.7473C121.314 19.9341 121.288 20.0148 121.071 20.0102C120.332 19.9952 119.592 19.9999 118.852 20.0102C118.694 20.0102 118.632 19.9745 118.643 19.8061C118.651 19.5524 118.64 19.3079 118.64 18.9688ZM118.513 16.1422C118.513 15.8631 118.505 15.5852 118.513 15.3073C118.52 15.1481 118.47 15.0997 118.31 15.0824C117.66 15.0187 117.004 15.0319 116.357 15.1216C115.945 15.1558 115.544 15.271 115.177 15.4606C114.6 15.787 114.333 16.4259 114.468 17.1456C114.596 17.8214 114.983 18.2008 115.69 18.2804C116.613 18.3841 117.403 18.0624 118.121 17.5146C118.396 17.307 118.583 17.0648 118.516 16.6877C118.501 16.5074 118.5 16.3261 118.513 16.1457V16.1422Z" fill="#0E0E0E"/>
<path d="M98.6486 12.3154C98.6486 14.7834 98.6486 17.2513 98.6543 19.7193C98.6543 19.9361 98.6117 20.0099 98.3775 20.0053C97.561 19.9892 96.7445 19.9926 95.928 20.0053C95.7366 20.0053 95.6974 19.9511 95.6974 19.7666C95.7028 14.8022 95.7028 9.83746 95.6974 4.87231C95.6974 4.66011 95.7689 4.62206 95.9603 4.62436C96.7768 4.63359 97.5933 4.6359 98.4098 4.62436C98.6209 4.62436 98.6578 4.69241 98.6578 4.885C98.6493 7.36142 98.6463 9.83822 98.6486 12.3154Z" fill="#0E0E0E"/>
<path d="M22.0231 24.6798C22.1492 23.8102 22.2745 22.9407 22.3991 22.0711C22.5421 21.0886 22.6862 20.106 22.8315 19.1234C22.9953 18.0094 23.1598 16.8946 23.3251 15.779C23.4866 14.6834 23.6461 13.5874 23.8037 12.4911C23.8035 12.4624 23.7989 12.434 23.7899 12.4069L23.8003 12.3965H29.1145C29.1271 12.483 29.0649 12.5383 29.028 12.6029C26.7376 16.5701 24.4465 20.5361 22.1546 24.501C22.1165 24.5645 22.0669 24.6175 22.0231 24.6798Z" fill="#69181C"/>
<path d="M29.1201 12.3903H23.8059C23.7979 12.3751 23.7955 12.3575 23.799 12.3407C23.7932 11.854 23.6837 11.38 23.6145 10.9014C23.4992 10.0515 23.3677 9.205 23.242 8.35736C23.1163 7.50972 22.9917 6.66208 22.8672 5.81329C22.7426 4.96449 22.6181 4.118 22.4924 3.27613C22.3667 2.43425 22.2421 1.58084 22.1176 0.738968C22.0864 0.531382 22.0599 0.323797 22.0311 0.116211C22.1164 0.158881 22.1372 0.248835 22.1787 0.320337C24.466 4.276 26.751 8.23243 29.0336 12.1896C29.0659 12.2484 29.127 12.305 29.1201 12.3903Z" fill="#B3272F"/>
<path d="M54.4734 14.6775C54.4734 12.9972 54.4734 11.3169 54.4734 9.63545C54.4734 9.43709 54.5172 9.37827 54.7225 9.38173C55.5497 9.39404 56.3762 9.39404 57.202 9.38173C57.398 9.38173 57.4326 9.44401 57.4326 9.62392C57.428 13.0068 57.428 16.3874 57.4326 19.7656C57.4326 19.9502 57.3899 20.0067 57.202 20.0032C56.3762 19.9928 55.5493 19.9917 54.7236 20.0032C54.516 20.0032 54.4757 19.9432 54.4768 19.7472C54.4757 18.0588 54.4734 16.3681 54.4734 14.6775Z" fill="#0D0D0D"/>
<path d="M55.9566 7.52742C55.5253 7.52742 55.0928 7.52742 54.6615 7.52742C54.5115 7.52742 54.4643 7.48475 54.4654 7.33252C54.4716 6.46989 54.4716 5.60725 54.4654 4.74462C54.4654 4.59469 54.5081 4.55087 54.6603 4.55202C55.5245 4.55894 56.3879 4.55894 57.2505 4.55202C57.3866 4.55202 57.4304 4.59008 57.4293 4.72847C57.4235 5.60033 57.4224 6.47334 57.4293 7.3452C57.4293 7.51589 57.3543 7.52742 57.2217 7.52511C56.7984 7.52396 56.3787 7.52742 55.9566 7.52742Z" fill="#0F0F0F"/>
<path d="M23.7932 12.3468C23.7897 12.3636 23.7921 12.3811 23.8001 12.3964L23.7898 12.4067C21.3802 13.7906 18.9715 15.1784 16.5635 16.57L10.6611 19.9778C10.5619 20.0344 10.4674 20.0989 10.3716 20.1589H10.352H10.3324C10.3347 20.1507 10.335 20.142 10.3334 20.1336C10.3318 20.1252 10.3283 20.1173 10.3232 20.1105C10.3232 19.9859 10.3313 19.8614 10.3324 19.7368C10.3324 14.7179 10.3324 9.69889 10.3324 4.67993C10.6784 4.74221 10.9494 4.9717 11.2435 5.14123C15.3668 7.51463 19.4881 9.89264 23.6075 12.2753C23.6676 12.3036 23.7297 12.3275 23.7932 12.3468Z" fill="#FEFDFD"/>
</svg>
