<svg width="134" height="36" viewBox="0 0 134 36" fill="none" xmlns="http://www.w3.org/2000/svg">
<path d="M133.15 8.62979C133.165 7.73392 132.732 7.46472 131.903 7.5927C129.954 7.8928 128.372 8.74453 127.293 10.4612C127.137 10.7128 127.101 11.1232 126.525 11.1431C126.525 10.2891 126.51 9.45725 126.525 8.62538C126.541 7.90162 126.25 7.52209 125.488 7.53974C124.129 7.5574 122.769 7.5574 121.408 7.53974C120.66 7.52871 120.347 7.87073 120.354 8.60552C120.367 10.2935 120.354 11.9816 120.354 13.6806C120.354 13.9741 120.354 14.2676 120.354 14.5633C120.354 14.8589 120.307 15.1414 120.263 15.6665C116.892 6.42984 109.383 4.872 101.893 11.7984C102.335 10.5936 102.686 9.572 103.067 8.56139C103.343 7.83543 103.107 7.53313 102.341 7.54416C101.165 7.56181 99.9892 7.54416 98.8109 7.54416C97.1273 7.54416 97.0611 7.60374 96.5624 9.17481C95.3694 12.9495 94.1697 16.7235 92.9635 20.4967C92.8399 20.8785 92.8333 21.3661 92.2618 21.6199C92.0897 21.1499 91.933 20.7372 91.794 20.3356C90.501 16.4741 89.1925 12.6126 87.9369 8.74232C87.6545 7.8597 87.2021 7.51327 86.2754 7.5243C83.1862 7.56622 80.097 7.53974 77.0078 7.53974C75.2249 7.53974 75.2249 7.53974 75.1322 9.32927C75.119 9.5742 75.2205 9.89636 74.9601 10.0332C74.6644 10.1898 74.5077 9.86988 74.3356 9.70439C73.8267 9.22515 73.2543 8.81826 72.6344 8.49519C67.9145 5.99073 61.703 8.67392 59.9576 13.9675C59.865 14.2477 59.8936 14.6008 59.5031 14.8501C59.4876 14.5478 59.47 14.3316 59.47 14.1153C59.47 10.3642 59.4479 6.63064 59.47 2.8883C59.47 1.94168 59.1346 1.56436 58.1791 1.59525C57.0052 1.64159 55.8247 1.65483 54.6486 1.59525C53.563 1.53567 53.2364 2.00567 53.2695 3.02731C53.3247 4.74402 53.285 6.46515 53.285 8.18406L53.0643 8.20392C52.9899 8.07962 52.9235 7.95064 52.8657 7.81777C51.555 4.17031 48.7725 2.30135 45.1008 1.82914C40.8664 1.27971 36.5856 1.69896 32.327 1.62393C31.6496 1.61069 31.4443 2.04098 31.4443 2.63454C31.4443 4.69401 31.4443 6.74906 31.4443 8.7997C31.461 9.31669 31.655 9.81223 31.9938 10.2031C33.2096 11.6947 34.3372 13.2217 35.5331 14.7067C36.0075 15.298 36.0164 15.757 35.5331 16.3506C34.368 17.7672 33.2648 19.2346 32.1196 20.6688C31.6725 21.2094 31.4372 21.894 31.4576 22.5952C31.4841 24.3207 31.5017 26.0462 31.4576 27.7696C31.4311 28.7493 31.7687 29.184 32.7815 29.1376C34.0282 29.0803 35.2838 29.0781 36.5327 29.1376C37.5676 29.1862 37.8787 28.7316 37.8566 27.7607C37.8125 25.8918 37.8566 24.0096 37.839 22.1472C37.8279 21.3154 38.1501 20.9336 39.0085 20.9557C40.2199 20.9866 41.4357 21.0263 42.6471 20.9557C45.8356 20.7549 48.8122 20.0047 51.1159 17.5532C52.0449 16.5646 52.5767 15.3466 53.2982 14.2014V15.3973C53.2982 19.5435 53.3092 23.6896 53.2982 27.8358C53.2982 28.6698 53.5056 29.1796 54.4655 29.1376C55.3834 29.0979 56.3036 29.1376 57.2237 29.1376C59.4678 29.1266 59.4678 29.1266 59.4678 26.834V22.0899L59.7281 22.0193C60.7476 25.3291 62.7313 27.7431 66.1051 28.7912C69.5584 29.8658 72.5042 28.9898 75.1366 26.1632C75.1366 26.8583 75.1366 27.2532 75.1366 27.6504C75.1521 29.0207 75.2359 29.1112 76.5554 29.1222C77.6234 29.1222 78.6892 29.1222 79.755 29.1222C81.2334 29.1222 81.2996 29.0538 81.2996 27.5511C81.2996 21.717 81.2996 15.8828 81.2996 10.0486C81.2996 9.66247 81.1981 9.25646 81.4849 8.72467C82.1954 10.5385 82.8574 12.2309 83.5194 13.9233C85.3817 18.6697 87.2595 23.4116 89.0998 28.169C89.6316 29.5414 89.0358 30.3601 87.5552 30.4329C86.9645 30.4681 86.3747 30.3503 85.8429 30.0909C85.1213 29.7378 84.6756 29.9651 84.3711 30.6844C83.985 31.5958 83.5569 32.4894 83.1332 33.3853C82.9126 33.8266 83.045 34.1113 83.4598 34.3827C87.3301 36.907 92.3346 35.6227 94.3249 31.4854C95.9159 28.1756 96.9883 24.6451 98.2968 21.2315C98.8102 19.8987 99.3214 18.563 99.8303 17.2244C99.9164 19.2853 100.188 21.2425 101 23.0784C102.831 27.2245 107.136 29.5944 111.878 29.1928C114.317 29.0129 116.63 28.0421 118.467 26.428C119.493 25.5453 119.48 25.2541 118.467 24.4023C117.958 23.9803 117.475 23.5287 117.02 23.0497C116.404 22.3988 115.821 22.2752 115.144 22.9592C114.644 23.4566 114.017 23.8083 113.332 23.9765C110.093 24.7731 107.732 24.2589 106.492 21.6971C106.037 20.7637 106.176 20.5276 107.218 20.5254C111.152 20.5254 115.084 20.5431 119.019 20.5055C120.02 20.5055 120.393 20.8608 120.369 21.8604C120.321 23.8463 120.393 25.8322 120.343 27.8027C120.316 28.8199 120.724 29.1818 121.711 29.1266C122.885 29.0737 124.065 29.0803 125.241 29.1266C126.19 29.1641 126.565 28.7912 126.541 27.838C126.501 25.4107 126.455 22.9835 126.541 20.5739C126.684 16.6661 128.383 14.2565 132.148 13.9432C132.907 13.8792 133.158 13.5129 133.147 12.8046C133.13 11.4189 133.125 10.0243 133.15 8.62979ZM44.1564 15.1965C42.3227 15.7063 40.4361 15.4172 38.5716 15.4172C37.9339 15.4172 37.85 14.9009 37.8478 14.3933C37.8478 13.332 37.8478 12.2684 37.8478 11.2071C37.8478 10.1832 37.8478 9.15716 37.8478 8.13111C37.8478 7.54195 38.0376 7.10726 38.7106 7.11608C40.4317 7.13815 42.1594 6.93956 43.8673 7.30364C45.9327 7.74496 47.0315 8.95857 47.1176 10.8849C47.2147 13.129 46.2284 14.625 44.1564 15.1965ZM72.0187 23.7492C71.4671 23.957 70.8826 24.0639 70.2932 24.0647C68.4838 23.9985 67.0584 23.2726 66.1228 21.6684C64.3465 18.6278 65.3681 14.5677 68.2411 13.1687C70.0306 12.2861 71.7076 12.5597 73.2059 13.7181C76.4319 16.2094 75.8405 22.3767 72.0187 23.7492ZM113.595 16.5712C112.492 16.5558 111.388 16.5712 110.285 16.5712C109.149 16.5712 108.012 16.5712 106.876 16.5712C106.243 16.5712 106.046 16.28 106.214 15.6511C106.71 13.7159 108.33 12.4494 110.406 12.4052C112.207 12.3677 113.796 13.6299 114.363 15.4812C114.612 16.2425 114.411 16.5823 113.595 16.5712Z" fill="#EC0100"/>
<path d="M33.2096 16.1498C29.9483 20.5166 26.5369 24.7554 21.8171 27.6482C18.9485 29.4134 15.9498 30.8036 12.4701 30.9051C8.05692 31.0331 5.06922 28.9081 3.04139 25.2143C1.38205 22.1891 0.759794 18.8947 0.773034 15.4635C0.795099 11.655 1.48576 8.02516 3.65481 4.79695C6.42847 0.661842 10.5525 -0.849658 15.3474 0.456631C19.4053 1.55992 22.8608 3.67822 25.939 6.51366C28.5758 8.93648 30.8287 11.6704 32.9889 14.4948C33.3817 15.0045 33.7193 15.4723 33.2096 16.1498Z" fill="#EC0100"/>
<path d="M19.2486 16.0704C18.9243 16.5117 18.6264 16.9155 18.313 17.3127C16.9582 19.025 15.4798 20.6225 13.666 21.8538C12.3882 22.766 10.9239 23.3832 9.37864 23.661C6.95142 24.0515 5.04494 23.1998 3.67466 21.1565C2.8472 19.923 2.45663 18.5351 2.2426 17.0743C2.12011 16.2496 2.09862 15.413 2.17861 14.5831C2.39264 12.467 2.97959 10.4723 4.54626 8.90783C5.31011 8.14647 6.28748 7.63546 7.3486 7.44267C7.89564 7.326 8.45922 7.30881 9.01235 7.39192C9.85388 7.54394 10.6781 7.77974 11.4727 8.09581C13.0769 8.71807 14.4339 9.7353 15.6762 10.9092C16.9391 12.106 18.0817 13.4237 19.0875 14.8435C19.1361 14.9119 19.189 14.9781 19.253 15.0642C19.4737 14.7729 19.6944 14.4993 19.8952 14.2323C20.6875 13.1834 21.6338 12.2602 22.7019 11.4939C23.567 10.8704 24.5633 10.453 25.6146 10.2737C27.1106 10.053 28.3 10.5628 29.1892 11.7786C29.6619 12.4625 29.9872 13.2372 30.1447 14.0536C30.3102 14.7905 30.2395 15.5297 30.2197 16.2601C30.2099 17.5934 29.6932 18.873 28.7744 19.8392C27.8145 20.8476 26.6274 21.0881 25.3101 20.8012C23.8559 20.4857 22.6467 19.7156 21.5589 18.7249C20.7823 17.997 20.076 17.1977 19.4494 16.3373C19.3921 16.2579 19.3303 16.1785 19.2486 16.0704ZM2.7457 15.7019C2.75893 15.9424 2.75893 16.3285 2.80527 16.7235C2.91195 18.0216 3.28768 19.2833 3.90856 20.4283C5.12217 22.6018 7.02865 23.5175 9.46911 23.0541C11.0887 22.7496 12.5164 22.006 13.8293 21.0285C15.8152 19.5523 17.3598 17.6767 18.7919 15.6886C18.8119 15.6485 18.8223 15.6043 18.8223 15.5595C18.8223 15.5147 18.8119 15.4705 18.7919 15.4304C17.739 13.914 16.5338 12.5092 15.1952 11.238C13.8447 9.98905 12.3487 8.96962 10.5923 8.36943C9.48897 7.99431 8.36141 7.81558 7.20517 8.07154C5.78414 8.38929 4.77795 9.27854 4.04095 10.4988C3.09213 12.05 2.75893 13.7623 2.7457 15.7019ZM29.6791 15.5761C29.7118 14.4594 29.4378 13.3551 28.8869 12.3832C28.1345 11.1343 26.9981 10.6179 25.5771 10.8673C24.5629 11.0701 23.6091 11.5043 22.7902 12.136C21.5545 13.0451 20.5836 14.2102 19.701 15.4459C19.6826 15.4867 19.6746 15.5314 19.6776 15.5761C19.6807 15.6208 19.6948 15.664 19.7186 15.7019C20.1599 16.2689 20.6013 16.8471 21.0646 17.3855C22.0157 18.4623 23.0991 19.3714 24.4473 19.923C25.2174 20.2364 26.0096 20.4349 26.8458 20.2739C27.8763 20.0709 28.5559 19.4089 29.0303 18.5086C29.4857 17.5998 29.7086 16.5922 29.6791 15.5761Z" fill="white"/>
<path d="M10.7025 17.2553C10.3384 17.5378 10.0406 17.7739 9.72944 18.0144C8.95711 18.6132 8.24206 19.2825 7.59348 20.0135C7.55155 20.0599 7.50522 20.1018 7.46108 20.1459C7.22939 20.3666 7.0639 20.4063 6.91827 20.2673C6.77263 20.1283 6.79691 19.9385 7.04184 19.7245C7.94874 18.9367 8.87108 18.1622 9.79122 17.3899C10.0333 17.1914 10.2852 17.0051 10.5459 16.8317C10.5808 16.8148 10.612 16.7911 10.6376 16.7619C10.6633 16.7328 10.6829 16.6988 10.6952 16.662C10.7075 16.6253 10.7124 16.5864 10.7095 16.5477C10.7066 16.509 10.696 16.4712 10.6783 16.4367C10.5054 16.499 10.3294 16.5521 10.1509 16.5956C9.917 16.6397 9.72723 16.5382 9.70958 16.3264C9.64117 15.7085 9.61249 15.0863 10.0053 14.5479C10.106 14.4301 10.2289 14.3333 10.3671 14.2632C10.4201 14.2323 10.5084 14.2632 10.5878 14.2632C10.5951 14.3371 10.5898 14.4117 10.5723 14.4839C10.519 14.5695 10.4608 14.652 10.398 14.731C10.219 15.0805 10.1476 15.4752 10.1928 15.8652C10.1877 15.9034 10.1949 15.9423 10.2135 15.9762C10.232 16.01 10.2609 16.0371 10.2959 16.0533C10.3309 16.0696 10.3702 16.0742 10.408 16.0666C10.4458 16.059 10.4802 16.0394 10.5061 16.0108C10.6055 15.9309 10.6747 15.8197 10.7025 15.6953C10.7643 15.254 10.7974 14.8127 10.8438 14.3714C10.8438 14.2941 10.8438 14.1882 10.8769 14.1507C10.9593 14.0583 11.0678 13.9929 11.188 13.9631C11.3446 13.9455 11.3535 14.0911 11.3469 14.2147C11.3093 14.8391 11.2696 15.4636 11.2321 16.0859C11.2321 16.1631 11.2321 16.2403 11.2189 16.3573L14.0499 14.7067C13.8292 14.3934 13.966 14.0448 13.9506 13.727C13.9506 13.6035 13.9749 13.4777 13.9638 13.3541C13.9628 13.3178 13.9537 13.2822 13.9373 13.2498C13.9209 13.2173 13.8976 13.1889 13.869 13.1666C13.831 13.158 13.7917 13.1577 13.7536 13.1657C13.7155 13.1737 13.6796 13.1898 13.6483 13.2129C13.5499 13.2903 13.4697 13.3882 13.4133 13.4999C13.3569 13.6116 13.3256 13.7343 13.3217 13.8594C13.2953 14.0791 13.2828 14.3002 13.2842 14.5214C13.2842 14.7906 13.1849 14.9627 12.9775 15.0135C12.8341 15.051 12.7348 15.0135 12.7414 14.8524C12.7591 14.3581 12.7767 13.866 12.8142 13.3762C12.818 13.323 12.8326 13.2711 12.8571 13.2238C12.8817 13.1764 12.9157 13.1346 12.9571 13.1009C12.9984 13.0672 13.0462 13.0423 13.0976 13.0278C13.1489 13.0133 13.2027 13.0095 13.2555 13.0165C13.3574 13.0283 13.4605 13.0131 13.5546 12.9724C13.6487 12.9318 13.7305 12.8671 13.7917 12.7848C13.8493 12.7211 13.9201 12.6706 13.9991 12.637C14.2661 12.5112 14.4758 12.637 14.4736 12.9349C14.4736 13.2747 14.4537 13.6167 14.4471 13.9565C14.4477 14.0308 14.4566 14.1048 14.4736 14.1772C14.5111 14.3625 14.617 14.3978 14.7803 14.3184C14.9074 14.2421 15.0402 14.1757 15.1775 14.1198C15.2915 14.077 15.4135 14.0597 15.5349 14.0691C15.5695 14.0669 15.604 14.0752 15.6338 14.093C15.6636 14.1108 15.6873 14.1371 15.7019 14.1686C15.7164 14.2001 15.7211 14.2353 15.7154 14.2695C15.7096 14.3037 15.6936 14.3354 15.6695 14.3603C15.5635 14.5104 15.4186 14.6286 15.2503 14.7023C13.8579 15.1723 12.6421 15.9667 11.4197 16.7478C11.3475 16.7914 11.2888 16.854 11.2499 16.9287C11.211 17.0034 11.1934 17.0874 11.199 17.1715C11.199 17.8026 11.1681 18.4359 11.1703 19.0691C11.1857 19.2991 11.2174 19.5277 11.2652 19.7532C11.3113 19.9499 11.335 20.1513 11.3358 20.3534C11.3193 20.4137 11.2892 20.4695 11.2479 20.5165C11.2067 20.5635 11.1552 20.6006 11.0975 20.6248C11.0632 20.641 11.0258 20.6495 10.9879 20.6499C10.95 20.6503 10.9125 20.6425 10.8779 20.6269C10.8433 20.6114 10.8125 20.5886 10.7875 20.56C10.7626 20.5315 10.7441 20.4979 10.7334 20.4615C10.692 20.3279 10.6711 20.1887 10.6716 20.0489C10.6716 19.1883 10.6981 18.3277 10.7114 17.4672L10.7025 17.2553Z" fill="white"/>
<path d="M5.0868 15.532C5.02502 15.6798 4.96103 15.8233 4.90145 15.9733C4.84249 16.1599 4.7687 16.3414 4.68079 16.5161C4.63225 16.5978 4.48882 16.6221 4.38953 16.6706C4.34981 16.5735 4.25713 16.4499 4.28141 16.3815C4.50206 15.6821 4.73375 14.9848 4.98309 14.2941C5.00905 14.2425 5.04745 14.1981 5.09483 14.165C5.14221 14.1318 5.19708 14.111 5.2545 14.1044C5.31268 14.1216 5.36606 14.1521 5.41047 14.1935C5.45488 14.2348 5.48911 14.2859 5.51046 14.3427C5.59431 14.6825 5.64286 15.0311 5.70023 15.3798C5.80394 15.9976 5.90103 16.6176 6.00253 17.2377C6.00755 17.26 6.01776 17.2808 6.03233 17.2985C6.0469 17.3161 6.06541 17.33 6.08638 17.3392C6.13492 17.0369 6.18567 16.7346 6.23201 16.4345C6.54927 14.5381 7.0869 12.6853 7.83398 10.9137C7.89349 10.7698 7.9779 10.6376 8.08332 10.5231C8.14701 10.4466 8.23821 10.3981 8.33727 10.3882C8.43634 10.3783 8.53532 10.4077 8.6129 10.4701C8.69068 10.5306 8.74597 10.6154 8.76996 10.711C8.79396 10.8066 8.78527 10.9074 8.7453 10.9975C8.72159 11.0637 8.68482 11.1245 8.63717 11.1762C8.03478 11.7169 7.85605 12.4781 7.59126 13.1908C7.45004 13.577 7.3706 13.9874 7.26469 14.3846C7.13229 14.8568 6.97563 15.3224 6.8675 15.799C6.77924 16.1874 6.75056 16.5912 6.69098 16.9861C6.57035 17.7776 6.44237 18.5697 6.30704 19.3626C6.28276 19.5016 6.21877 19.6186 6.05107 19.6186C5.88337 19.6186 5.83042 19.484 5.81718 19.3494C5.64507 18.277 5.47516 17.2046 5.30084 16.1322C5.26774 15.9314 5.21037 15.735 5.16624 15.5364L5.0868 15.532Z" fill="white"/>
<path d="M9.32121 14.8104C9.36755 14.8523 9.45581 14.8965 9.45361 14.9362C9.45361 15.0399 9.43375 15.1922 9.36314 15.2385C8.98802 15.4834 8.90859 15.8497 8.90197 16.2557C8.90853 16.4031 8.90189 16.5508 8.88211 16.697C8.86373 16.8174 8.80996 16.9295 8.72765 17.0192C8.68394 17.0531 8.63392 17.078 8.58051 17.0924C8.52709 17.1068 8.47135 17.1104 8.41652 17.103C8.3768 17.103 8.32826 16.9309 8.33267 16.8405C8.34812 16.3815 8.37239 15.9203 8.4099 15.4614C8.43417 15.1591 8.5445 15.0531 8.83577 14.9869C8.91877 14.9666 9.00055 14.9416 9.0807 14.9119C9.15793 14.8877 9.22412 14.8523 9.32121 14.8104Z" fill="white"/>
<path d="M7.26248 17.1538C7.29116 16.7743 7.29999 16.3661 7.36619 15.9689C7.41497 15.7951 7.51679 15.6408 7.65745 15.5276C7.78764 15.4151 7.91783 15.4923 7.91342 15.671C7.91342 15.9424 7.87811 16.2138 7.85384 16.4853C7.82957 16.7567 7.79205 16.995 7.77882 17.2531C7.783 17.35 7.7573 17.4457 7.70519 17.5274C7.65309 17.6092 7.5771 17.6729 7.48755 17.7099C7.35736 17.7651 7.26689 17.7342 7.26689 17.5819C7.26689 17.4297 7.26248 17.3127 7.26248 17.1538Z" fill="white"/>
<path d="M11.7065 15.3137C11.7661 14.7686 11.8146 14.3053 11.8698 13.8419C11.8787 13.7597 11.9135 13.6824 11.9691 13.6212C12.0544 13.5597 12.148 13.5106 12.2471 13.4756C12.2866 13.5593 12.3126 13.6486 12.3244 13.7404C12.3067 14.206 12.2736 14.6715 12.2471 15.1349C12.2471 15.3203 12.0375 15.5409 11.872 15.5078C11.7904 15.4924 11.7374 15.3534 11.7065 15.3137Z" fill="white"/>
<path d="M7.83398 14.7839C7.75675 14.7839 7.73028 14.7839 7.72807 14.7707C7.69938 14.6935 7.64422 14.6074 7.65746 14.5368C7.69056 14.3647 7.96859 14.1617 8.06788 14.2323C8.09858 14.2643 8.12089 14.3034 8.13283 14.3462C8.14476 14.3889 8.14595 14.4339 8.13628 14.4772C8.04693 14.5901 7.94557 14.693 7.83398 14.7839Z" fill="white"/>
<path d="M12.4678 12.4297C12.4854 12.4584 12.5715 12.551 12.5605 12.5665C12.4546 12.6967 12.3398 12.8114 12.214 12.9306C12.1567 12.8732 12.0596 12.8225 12.0508 12.7585C12.0265 12.6018 12.2471 12.4297 12.4678 12.4297Z" fill="white"/>
<path d="M21.6537 14.9517C21.9318 14.7752 22.0951 14.7862 22.3907 15.0466C22.4299 15.0097 22.4711 14.975 22.5143 14.9429C22.5869 14.8862 22.6736 14.8506 22.765 14.8398C22.8564 14.829 22.9491 14.8435 23.0328 14.8818C23.1166 14.92 23.1882 14.9805 23.24 15.0566C23.2917 15.1328 23.3216 15.2216 23.3263 15.3136C23.3462 15.5784 23.3263 15.8454 23.3263 16.1102C23.3263 16.2536 23.2447 16.3021 23.1343 16.269C23.0974 16.2552 23.0644 16.2328 23.0379 16.2036C23.0114 16.1745 22.9923 16.1394 22.9821 16.1013C22.9622 15.8807 22.9821 15.6799 22.9821 15.4702C22.9821 15.2959 22.9115 15.1746 22.7239 15.1768C22.5364 15.179 22.4613 15.2981 22.4547 15.468C22.4547 15.6733 22.4547 15.8763 22.4547 16.0793C22.4547 16.2139 22.4238 16.2823 22.2716 16.2801C22.1193 16.2779 22.0884 16.2006 22.0906 16.0594C22.0906 15.8564 22.0906 15.6534 22.0906 15.4504C22.0906 15.2827 22.0244 15.1746 21.8523 15.1657C21.8142 15.1613 21.7755 15.1654 21.7391 15.1779C21.7028 15.1903 21.6696 15.2107 21.6421 15.2375C21.6147 15.2644 21.5935 15.297 21.5802 15.3331C21.567 15.3691 21.5619 15.4077 21.5655 15.446C21.5655 15.6666 21.5655 15.8873 21.5655 16.1079C21.5533 16.1452 21.5329 16.1792 21.5058 16.2075C21.4787 16.2358 21.4455 16.2576 21.4088 16.2712C21.385 16.2816 21.3588 16.2854 21.3331 16.282C21.3073 16.2787 21.283 16.2685 21.2626 16.2524C21.2422 16.2363 21.2266 16.215 21.2173 16.1907C21.2081 16.1664 21.2057 16.1401 21.2102 16.1146C21.2102 15.7549 21.2102 15.3952 21.2102 15.0356C21.2102 14.9848 21.2654 14.8965 21.2941 14.8965C21.4153 14.9052 21.5355 14.9236 21.6537 14.9517Z" fill="white"/>
<path d="M26.5214 16.2867C26.4067 16.2691 26.3008 16.2514 26.2169 16.2404C26.1639 16.2283 26.1088 16.2283 26.0558 16.2404C25.9217 16.305 25.7692 16.3206 25.6248 16.2843C25.4805 16.248 25.3534 16.1622 25.2659 16.0418C25.1702 15.8981 25.1211 15.7284 25.1255 15.5558C25.1298 15.3832 25.1873 15.2162 25.2901 15.0775C25.3868 14.9637 25.5201 14.8871 25.667 14.8609C25.814 14.8348 25.9656 14.8606 26.0955 14.9341C26.1252 14.9452 26.1554 14.9547 26.186 14.9628C26.186 14.8017 26.186 14.656 26.186 14.5214C26.186 14.2147 26.186 14.2059 26.5236 14.2633L26.5214 16.2867ZM25.8594 15.168C25.8083 15.1662 25.7573 15.1753 25.71 15.1947C25.6626 15.2141 25.6199 15.2434 25.5846 15.2805C25.5494 15.3176 25.5224 15.3618 25.5055 15.4101C25.4886 15.4584 25.4821 15.5097 25.4865 15.5607C25.4925 15.6304 25.5185 15.6968 25.5615 15.752C25.6044 15.8072 25.6624 15.8487 25.7285 15.8717C25.7945 15.8946 25.8658 15.8979 25.9337 15.8811C26.0016 15.8644 26.0632 15.8284 26.111 15.7774C26.1588 15.7264 26.1909 15.6626 26.2032 15.5938C26.2156 15.525 26.2078 15.4541 26.1807 15.3896C26.1536 15.3252 26.1085 15.2699 26.0507 15.2306C25.9929 15.1913 25.9249 15.1695 25.855 15.168H25.8594Z" fill="white"/>
<path d="M28.92 16.3021L28.4786 16.2073C28.3571 16.2862 28.2115 16.3195 28.0677 16.3013C27.9239 16.2832 27.7912 16.2147 27.6931 16.108C27.5758 15.9764 27.5048 15.8101 27.4908 15.6344C27.4769 15.4587 27.5208 15.2833 27.6159 15.1349C27.7051 15.0071 27.8366 14.9149 27.9872 14.8745C28.1377 14.8341 28.2977 14.8482 28.4389 14.9142C28.4914 14.9264 28.5465 14.921 28.5956 14.8988C28.8162 14.8193 28.9111 14.8833 28.9111 15.1194C28.9222 15.4968 28.92 15.8675 28.92 16.3021ZM28.5757 15.5762C28.5826 15.5254 28.5786 15.4738 28.564 15.4247C28.5493 15.3756 28.5243 15.3302 28.4907 15.2915C28.457 15.2529 28.4155 15.2219 28.3689 15.2005C28.3223 15.1792 28.2717 15.1681 28.2205 15.168C28.1693 15.1695 28.119 15.1816 28.0727 15.2034C28.0264 15.2253 27.9851 15.2564 27.9513 15.2949C27.9176 15.3334 27.8922 15.3785 27.8766 15.4272C27.861 15.476 27.8556 15.5275 27.8608 15.5784C27.8556 15.6293 27.861 15.6807 27.8768 15.7294C27.8925 15.7781 27.9183 15.8229 27.9523 15.8611C27.9863 15.8993 28.028 15.93 28.0745 15.9512C28.1211 15.9725 28.1715 15.9838 28.2227 15.9844C28.2736 15.9836 28.3238 15.972 28.37 15.9505C28.4161 15.9289 28.4572 15.8978 28.4906 15.8593C28.5239 15.8208 28.5487 15.7756 28.5634 15.7268C28.5781 15.6781 28.5823 15.6267 28.5757 15.5762Z" fill="white"/>
<path d="M23.9221 15.6666C23.9905 15.9932 24.2751 16.1079 24.4958 15.9181C24.5176 15.8918 24.5447 15.8704 24.5754 15.8553C24.6061 15.8402 24.6396 15.8317 24.6738 15.8305C24.7079 15.8292 24.742 15.8352 24.7737 15.848C24.8053 15.8609 24.834 15.8802 24.8577 15.9049C24.8295 15.9861 24.7849 16.0607 24.7266 16.1239C24.6683 16.1871 24.5976 16.2376 24.5188 16.2722C24.4401 16.3068 24.3551 16.3247 24.2691 16.3249C24.1831 16.3251 24.098 16.3076 24.0192 16.2734C23.9259 16.2377 23.8408 16.1836 23.7688 16.1144C23.6969 16.0452 23.6395 15.9623 23.6002 15.8705C23.5609 15.7787 23.5405 15.68 23.54 15.5801C23.5396 15.4803 23.5592 15.3814 23.5977 15.2893C23.6305 15.2013 23.6807 15.121 23.7454 15.053C23.8101 14.985 23.8879 14.9308 23.9741 14.8937C24.0602 14.8566 24.1531 14.8373 24.2469 14.837C24.3407 14.8368 24.4336 14.8555 24.5201 14.8921C24.6438 14.9429 24.7478 15.0326 24.8162 15.1476C24.8847 15.2626 24.9139 15.3967 24.8996 15.5298C24.8814 15.565 24.8551 15.5954 24.8229 15.6184C24.7907 15.6414 24.7534 15.6564 24.7142 15.6622C24.4539 15.6776 24.1913 15.6666 23.9221 15.6666ZM24.5531 15.415C24.5536 15.3744 24.5452 15.3341 24.5286 15.2969C24.5119 15.2598 24.4875 15.2267 24.4569 15.1998C24.4263 15.173 24.3903 15.1531 24.3513 15.1415C24.3123 15.1299 24.2713 15.1269 24.231 15.1326C24.1929 15.1297 24.1546 15.135 24.1186 15.1481C24.0827 15.1612 24.05 15.1818 24.0226 15.2085C23.9953 15.2352 23.9739 15.2675 23.96 15.3031C23.9461 15.3387 23.9399 15.3768 23.9419 15.415H24.5531Z" fill="white"/>
<path d="M27.2518 15.5938C27.2628 15.7643 27.2628 15.9353 27.2518 16.1057C27.2407 16.1438 27.2207 16.1786 27.1935 16.2074C27.1662 16.2362 27.1325 16.2581 27.0951 16.2712C26.9848 16.3021 26.9009 16.2536 26.9009 16.1124C26.9009 15.7549 26.9009 15.3952 26.9009 15.0378C26.9009 14.9826 27.0046 14.9098 27.0731 14.8877C27.1415 14.8656 27.254 14.901 27.2518 15.0311C27.2363 15.2253 27.2385 15.4063 27.2518 15.5938Z" fill="white"/>
<path d="M27.382 14.3957C27.2363 14.5082 27.1613 14.6163 27.0753 14.6163C26.9892 14.6163 26.9186 14.4906 26.8414 14.4178C26.912 14.3405 26.976 14.2147 27.062 14.1971C27.1481 14.1794 27.2275 14.2964 27.382 14.3957Z" fill="white"/>
</svg>
