<svg width="122" height="45" viewBox="0 0 122 45" fill="none" xmlns="http://www.w3.org/2000/svg">
<path d="M20.5393 3.67026C9.21268 3.70134 0.100951 12.8271 0.120147 24.1205C0.139344 35.3553 9.36899 44.4868 20.6791 44.4609C31.9835 44.435 41.0824 35.2243 41.0403 23.8496C40.9992 12.7028 31.7912 3.63919 20.5393 3.67026ZM20.6039 7.1414C29.9916 7.15907 37.5451 14.7184 37.5393 24.0894C37.5336 33.4244 29.9191 40.9755 20.5259 40.9609C11.2142 40.9465 3.61627 33.3474 3.62358 24.0546C3.63089 14.7031 11.2404 7.12342 20.6039 7.1414ZM95.5839 21.3894C95.5839 23.2249 95.6025 25.0608 95.58 26.8963C95.5306 30.904 97.3634 33.8327 100.927 35.4735C106.117 37.8627 111.451 37.8557 116.641 35.4699C120.214 33.8276 122.01 30.8744 122 26.8859C121.989 22.9818 121.999 19.0774 121.996 15.173C121.996 13.885 121.622 13.5096 120.343 13.506C119.031 13.5023 117.72 13.4971 116.409 13.5084C115.406 13.5172 115.032 13.8283 114.908 14.8174C114.835 15.393 114.843 15.9798 114.834 16.5618C114.78 19.8534 114.732 23.1451 114.682 26.4368C114.64 29.2232 113.466 30.6895 110.726 31.2337C109.08 31.5606 107.418 31.5234 105.81 30.9753C103.786 30.2857 102.76 28.8348 102.746 26.6961C102.722 23.0251 102.707 19.3543 102.684 15.6833C102.682 15.3637 102.656 15.0435 102.628 14.7247C102.558 13.927 102.117 13.5133 101.316 13.5096C99.8302 13.5029 98.3442 13.4904 96.8585 13.513C95.9855 13.5261 95.5903 13.9779 95.5867 14.9207C95.5781 17.077 95.5839 19.2331 95.5839 21.3894ZM74.07 13.5053C73.4 13.5053 72.7263 13.5492 72.0608 13.4953C71.0035 13.4094 70.4499 13.977 70.0834 14.8625C68.5044 18.6755 66.9218 22.4867 65.3395 26.2981C64.9607 27.2107 64.5777 28.1218 64.1981 29.034C63.912 29.7217 63.4747 30.2708 62.6764 30.2799C61.8345 30.2897 61.3936 29.7196 61.0941 28.9975C59.1907 24.4069 57.2793 19.8196 55.3734 15.2299C54.7207 13.6589 54.4946 13.505 52.7713 13.505C51.5189 13.505 50.266 13.5008 49.0134 13.5066C47.9104 13.5114 47.5356 14.0532 47.9796 15.0736C48.6874 16.6995 49.4339 18.3086 50.1676 19.9229C52.1999 24.3956 54.2402 28.8643 56.2652 33.3403C57.3969 35.8422 59.244 37.2237 62.0637 37.1369C62.8489 37.1128 63.6411 37.1591 64.4193 37.0732C66.5232 36.841 67.9642 35.6174 68.8185 33.7666C71.6815 27.5645 74.4945 21.3395 77.312 15.1166C77.7956 14.0486 77.4205 13.512 76.2547 13.506C75.5265 13.5023 74.7983 13.5053 74.07 13.5053ZM89.4878 25.3146C89.4878 21.8501 89.4909 18.3857 89.486 14.9213C89.4841 13.7205 89.2635 13.5066 88.0575 13.502C86.8058 13.4971 85.5538 13.4983 84.3021 13.5017C83.027 13.505 82.7646 13.75 82.7628 15.0334C82.7555 21.0016 82.7588 26.9697 82.7591 32.9378C82.7591 33.9275 82.7762 34.9178 82.7616 35.9071C82.7494 36.7432 83.1236 37.136 83.9724 37.1226C85.3695 37.1006 86.7674 37.125 88.1645 37.1037C89.1898 37.0881 89.4838 36.7706 89.4857 35.7082C89.4918 32.2434 89.4878 28.779 89.4878 25.3146ZM82.1019 4.29795C82.1126 6.5646 83.8847 8.2956 86.1794 8.28067C88.3885 8.26635 90.1682 6.48142 90.1731 4.27662C90.1779 2.05445 88.343 0.22107 86.1148 0.22168C83.8835 0.222594 82.0912 2.04287 82.1019 4.29795Z" fill="#F5B919"/>
<path d="M13.4018 15.0679C13.4018 15.5633 13.4506 16.0642 13.3915 16.5527C13.2711 17.5478 13.783 18.0454 14.6316 18.3918C18.1838 19.8416 21.7268 21.3145 25.2732 22.7789C25.4347 22.8453 25.5968 22.909 25.7586 22.9739C26.382 23.2228 26.9424 23.5513 26.9189 24.3267C26.897 25.0474 26.3707 25.3539 25.7717 25.5986C23.5114 26.5221 21.2573 27.4606 19.0016 28.3954C17.4979 29.0185 16.0006 29.6572 14.4902 30.2641C13.7227 30.5725 13.3445 31.0606 13.3884 31.9269C13.4433 33.0021 13.397 34.0823 13.403 35.1603C13.4091 36.192 13.819 36.4577 14.7809 36.0244C18.0415 34.5558 21.2963 33.075 24.5541 31.5999C25.9579 30.9643 27.3488 30.2982 28.7702 29.705C32.3861 28.1958 32.7024 26.349 32.4053 22.8706C32.2569 21.1384 31.1883 19.997 29.67 19.3029C24.7257 17.042 19.7676 14.8116 14.8089 12.5818C13.7976 12.1272 13.4082 12.3978 13.4021 13.4947C13.3994 14.0188 13.4021 14.5435 13.4021 15.0679H13.4018Z" fill="#F5B919"/>
</svg>
