<svg width="64" height="64" viewBox="0 0 64 64" fill="none" xmlns="http://www.w3.org/2000/svg">
<path fill-rule="evenodd" clip-rule="evenodd" d="M32 64C14.3517 64 0 49.6483 0 32C0 14.3517 14.3517 0 32 0H64V32C64 49.6483 49.6359 64 32 64Z" fill="#5DFC71"/>
<path fill-rule="evenodd" clip-rule="evenodd" d="M48.1983 40.6763C51.6933 40.6763 54.3455 37.8382 54.3455 34.3432C54.3455 34.3147 54.3455 34.2862 54.3442 34.2577C54.3417 34.0445 54.1645 33.8735 53.9501 33.8735L50.8517 33.8747C50.5506 33.8747 50.3151 34.0606 50.2742 34.4225L50.273 34.4374C50.18 35.7387 49.3868 36.5319 48.2776 36.5319C47.0953 36.5319 46.2699 35.6259 46.2699 34.1771L46.2711 34.0098C46.2711 33.7942 46.2674 27.305 46.2674 27.305H51.8073C52.0242 27.305 52.2014 27.129 52.2014 26.9121V23.9624C52.2014 23.7455 52.0242 23.5696 51.8073 23.5696H46.2674V19.3558C46.2674 19.1389 46.0914 18.9629 45.8733 18.9629H42.2668C42.0499 18.9629 41.8739 19.1389 41.8714 19.362V33.8747C41.8739 37.9398 44.474 40.6664 48.1921 40.6664" fill="#16284A"/>
<path fill-rule="evenodd" clip-rule="evenodd" d="M33.1278 38.8662V33.3263C33.248 29.8933 35.6313 27.1419 39.0643 27.2907C39.1213 27.2919 39.1771 27.2894 39.2353 27.2919C39.4807 27.3006 39.6864 27.106 39.6864 26.8594V23.8849C39.6864 23.6556 39.508 23.466 39.2787 23.4512C37.147 23.3061 34.817 23.6147 32.958 25.8803V23.9965C32.958 23.7548 32.7622 23.559 32.5205 23.559H29.1743C28.9338 23.559 28.738 23.7548 28.738 23.9965V39.9593C28.738 40.1997 28.9338 40.3968 29.1743 40.3968H32.694C32.9357 40.3968 33.1315 40.201 33.1315 39.9593V38.8414L33.1278 38.8662Z" fill="#16284A"/>
<path fill-rule="evenodd" clip-rule="evenodd" d="M26.1131 23.5732H22.4446C22.2513 23.5732 22.0802 23.7009 22.0257 23.8868L18.5803 34.8922H18.5134L14.9936 23.8868C14.9379 23.7021 14.7681 23.5757 14.5747 23.5757H10.9063C10.6113 23.5757 10.4006 23.8632 10.4898 24.1446L15.9802 40.1074C16.0384 40.2896 16.2057 40.4123 16.3966 40.4123H20.6228C20.8136 40.4123 20.9822 40.2896 21.0392 40.1074L26.5295 24.1446C26.6187 23.8632 26.408 23.5757 26.1131 23.5757" fill="#16284A"/>
</svg>
