<svg width="96" height="28" viewBox="0 0 96 28" fill="none" xmlns="http://www.w3.org/2000/svg">
<g clip-path="url(#clip0)">
<path d="M24.71 0.88446C23.111 0.879864 22.1206 0.883534 20.5372 0.883534H20.5147H20.4952H20.4933H20.4906C19.7639 0.891576 19.1478 1.34426 18.9013 1.99339C18.8742 2.02846 18.8559 2.07095 18.8426 2.11058C17.2499 6.63497 15.8616 10.5223 14.2707 15.0501C13.8527 16.2438 13.4375 17.4329 13.0114 18.6267C12.9774 18.7203 12.8887 18.8409 12.7966 18.8679C12.6129 18.9196 12.6089 18.7249 12.5697 18.6134C11.5765 15.7906 10.5867 12.9683 9.59456 10.1495C8.57538 7.25308 7.73122 4.84727 6.71032 1.94801C6.70055 1.91639 6.68559 1.88481 6.66196 1.85149C6.38269 1.27819 5.79134 0.883534 5.10958 0.883534C5.09061 0.883534 5.07159 0.88354 5.05777 0.88446C3.44666 0.879864 2.50176 0.877015 0.868768 0.88446C0.329237 0.887217 0.0643586 1.2814 0.242859 1.78577C2.69983 8.61889 5.14988 15.4503 7.60397 22.2748C7.78938 22.7872 7.95005 23.2439 8.10955 23.6856C9.04408 25.845 10.4669 26.9755 12.9774 27.1203C13.7168 27.1203 13.5486 27.1217 13.5486 27.1217C14.368 27.0941 15.2899 26.9694 16.3378 26.7598L18.0785 21.808C20.5049 15.1202 22.8686 8.60707 25.3279 1.82106C25.3561 1.74293 25.3855 1.6671 25.3993 1.58668C25.4546 1.18456 25.1661 0.884684 24.7101 0.884684" fill="#2D6DBE"/>
<path d="M48.2391 2.67398V2.62459C48.2391 1.71523 47.5377 0.97475 46.647 0.907539C46.6003 0.891455 42.2674 0.907539 42.2674 0.907539C42.2674 0.907539 42.2692 1.84047 42.2692 3.33634C42.2692 7.8705 42.2724 11.8819 42.2628 16.4844C42.2628 16.9382 42.2295 17.4099 42.1172 17.8499C41.7049 19.5434 40.6748 20.7152 38.9957 21.2231C37.3086 21.7355 35.7326 21.4459 34.4019 20.2333C33.404 19.3228 32.9186 18.152 32.9181 16.8147C32.9094 13.6794 32.9071 7.00708 32.9071 3.38344V0.907539C32.9071 0.907539 28.5512 0.891455 28.5057 0.907539C27.6149 0.97475 26.9136 1.71523 26.9136 2.62459C26.9136 2.63952 26.9177 2.6556 26.9177 2.67398V3.48626C26.9177 8.19505 26.9091 12.2156 26.9275 17.0186C26.9321 17.7683 27.0139 18.5289 27.1849 19.2579C28.4408 24.66 33.7842 28.2337 39.5049 27.2031C42.183 26.7177 44.3831 25.3896 46.0697 23.2469C47.462 21.4787 48.2129 19.4583 48.2295 17.2065C48.2503 14.6892 48.2346 12.1789 48.2346 9.66853V2.67398H48.2392H48.2391Z" fill="#2D6DBE"/>
<path d="M95.7621 2.67398C95.7667 2.6556 95.7667 2.63952 95.7667 2.62459C95.7667 1.71523 95.0653 0.97475 94.1769 0.907539C94.1268 0.891455 89.791 0.907539 89.791 0.907539C89.791 0.907539 89.7956 1.84047 89.7956 3.33634C89.7956 7.8705 89.8002 11.8819 89.7905 16.4844C89.7905 16.9382 89.7513 17.4099 89.6454 17.8499C89.2326 19.5434 88.2001 20.7152 86.5257 21.2231C84.8351 21.7355 83.2574 21.4459 81.9319 20.2333C80.9334 19.3228 80.4503 18.152 80.4474 16.8147C80.4382 13.6794 80.4383 7.00708 80.4383 3.38344V0.907539C80.4383 0.907539 76.0828 0.891455 76.0362 0.907539C75.1477 0.97475 74.4452 1.71523 74.4452 2.62459V2.67398V3.48626C74.4452 8.19505 74.4369 12.2156 74.4609 17.0186C74.4609 17.7683 74.5449 18.5289 74.7131 19.2579C75.9695 24.66 81.3147 28.2337 87.0325 27.2031C89.7123 26.7177 91.9107 25.3896 93.595 23.2469C94.9855 21.4787 95.7393 19.4583 95.7594 17.2065C95.7732 14.6892 95.7594 12.1789 95.7594 9.66853V2.67398H95.7621Z" fill="#2D6DBE"/>
<path d="M65.1118 19.0928C63.9101 20.5192 62.3606 21.324 60.5041 21.5314C60.1477 21.5716 59.7867 21.5802 59.4263 21.5825C58.3996 21.5929 57.3666 21.5889 56.3376 21.5889C55.9616 21.5889 55.9564 21.5889 55.9564 21.2212V13.9865V6.74442C55.9564 6.40434 55.9615 6.40034 56.2973 6.40034C57.5555 6.41127 58.8113 6.37795 60.0695 6.44339C62.4107 6.56345 64.2613 7.62044 65.5977 9.53969C66.4148 10.7173 66.8237 12.0477 66.9014 13.4787C67.0154 15.5795 66.4782 17.4763 65.1118 19.0928ZM66.8709 2.93003C64.9511 1.71851 62.8414 1.06995 60.5704 0.991252C59.5236 0.957337 58.4779 0.957341 57.4363 0.957341C55.2954 0.952745 54.0638 0.956422 51.9298 0.957341C51.9169 0.957341 51.9064 0.956415 51.8902 0.956415C50.9373 0.956415 50.1646 1.7279 50.1646 2.67977C50.1646 2.68896 50.1646 2.69987 50.1646 2.71251C50.1646 2.78431 50.1646 2.85899 50.1646 2.92448V14.0034V25.3224C50.1646 25.3333 50.1646 25.3419 50.1646 25.3511C50.1646 26.3007 50.9373 27.075 51.8902 27.075C54.9846 27.0652 57.1099 27.075 60.2043 27.063C60.8325 27.0593 61.4699 27.0038 62.0889 26.8998C64.6156 26.4822 66.863 25.4453 68.7384 23.7036C72.2687 20.4234 73.6897 16.3603 72.8565 11.6245C72.1955 7.85958 70.1059 4.97238 66.871 2.9302" fill="#2D6DBE"/>
<path d="M94.7283 25.1216H94.2999V25.692H94.7283C94.8648 25.692 95.0093 25.5742 95.0093 25.4151C95.0093 25.2462 94.8648 25.1216 94.7283 25.1216ZM94.984 26.4916L94.5804 25.881H94.2999V26.4916H94.0932V24.9423H94.7283C94.9903 24.9423 95.2195 25.1273 95.2195 25.4151C95.2195 25.7586 94.9114 25.8764 94.8256 25.8764L95.2373 26.4916H94.984ZM94.6143 24.5494C93.9689 24.5494 93.4437 25.0584 93.4437 25.7115C93.4437 26.3549 93.9689 26.8783 94.6143 26.8783C95.2587 26.8783 95.7821 26.3549 95.7821 25.7115C95.7821 25.0584 95.2587 24.5494 94.6143 24.5494ZM94.6143 27.0649C93.8664 27.0649 93.2583 26.4589 93.2583 25.7115C93.2583 24.9596 93.8664 24.3633 94.6143 24.3633C95.3663 24.3633 95.9703 24.9596 95.9703 25.7115C95.9703 26.4589 95.3663 27.0649 94.6143 27.0649Z" fill="#2D6DBE"/>
</g>
<defs>
<clipPath id="clip0">
<rect width="95.7831" height="26.5" fill="white" transform="translate(0.1875 0.879883)"/>
</clipPath>
</defs>
</svg>
