<svg width="130" height="37" viewBox="0 0 130 37" fill="none" xmlns="http://www.w3.org/2000/svg">
<path d="M34.6626 25.5237C33.9697 25.5278 33.2761 25.5284 32.5809 25.5403C32.4215 25.5403 32.4137 25.4678 32.4024 25.3429C32.3911 25.1722 32.4744 25.0241 32.4738 24.8522C32.4659 21.5567 32.4635 18.2608 32.4667 14.9646C32.464 14.7904 32.5147 14.6197 32.6118 14.4751C32.8848 14.0439 33.1185 13.5877 33.3719 13.1434C33.5872 12.7663 33.7942 12.3833 34.0291 12.0187C34.2439 11.6844 34.4199 11.3299 34.6239 10.9927C35.0403 10.3176 35.4209 9.62468 35.8242 8.94485C36.0847 8.50511 36.3387 8.06121 36.5861 7.61315C36.8751 7.08915 37.1809 6.57526 37.483 6.0578C37.7606 5.58198 38.0381 5.10616 38.3157 4.63034C38.6286 4.09504 38.9468 3.56866 39.2572 3.03515C39.5142 2.59263 39.7634 2.14596 40.0156 1.70166C40.1779 1.41616 40.3362 1.12829 40.5045 0.846368C40.5681 0.739308 40.6686 0.695294 40.8019 0.697674C41.267 0.706595 41.7327 0.701242 42.1984 0.701242H45.497C45.5666 0.701242 45.6362 0.701242 45.7052 0.701242C45.8438 0.708974 45.8836 0.770236 45.8141 0.883839C45.6249 1.19788 45.4251 1.50598 45.2389 1.8218C45.001 2.22922 44.7708 2.64319 44.5323 3.0524C44.3283 3.40272 44.116 3.75007 43.9102 4.09861C43.6822 4.47927 43.4544 4.86012 43.2268 5.24118C42.9187 5.75447 42.6082 6.26717 42.3078 6.78462C42.0176 7.28542 41.7285 7.78801 41.4311 8.28465C41.01 8.98887 40.5931 9.69606 40.1738 10.4015C39.8681 10.9153 39.5505 11.4239 39.2644 11.9509C39.0758 12.2976 38.8569 12.6289 38.6571 12.9697C38.4126 13.3861 38.1747 13.806 37.9315 14.2223C37.7332 14.5645 37.5316 14.9055 37.3266 15.2453C37.0946 15.6349 36.8633 16.0251 36.6271 16.4123C36.3155 16.9238 36.005 17.4365 35.7076 17.9557C35.4102 18.475 35.1093 18.9704 34.8119 19.4784C34.4318 20.1267 34.0809 20.7928 33.6485 21.4096C33.7127 21.5048 33.8109 21.459 33.8917 21.459C36.9247 21.4617 39.9581 21.4617 42.9918 21.459C43.0674 21.459 43.1506 21.4875 43.2184 21.4257C43.2184 21.3067 43.2238 21.1877 43.2238 21.0688C43.2238 16.6865 43.2216 12.3049 43.2173 7.92421C43.2171 7.64459 43.3026 7.37162 43.4623 7.14208C44.066 6.20234 44.6661 5.25961 45.2508 4.30738C45.6493 3.65788 46.0781 3.02682 46.4873 2.38446C46.9275 1.69333 47.3599 0.997441 47.7958 0.302742C47.8553 0.206982 47.919 0.112413 47.9921 0C48.0671 0.0814845 48.0409 0.162969 48.0409 0.233153C48.0409 7.29673 48.0409 14.3603 48.0409 21.4239C48.1384 21.4952 48.2509 21.459 48.3555 21.4596C49.7658 21.4596 51.1754 21.4596 52.585 21.4631C52.6909 21.4631 52.8021 21.4316 52.9026 21.4941C52.9074 22.0674 52.9133 22.6408 52.9151 23.2147C52.9151 23.8773 52.9151 24.5405 52.9151 25.2037C52.9151 25.5011 52.927 25.4695 52.6367 25.4695H48.3103C48.0552 25.4695 48.0534 25.4695 48.0528 25.7283C48.0528 26.2921 48.0528 26.8583 48.0528 27.4204C48.0962 27.6583 48.0706 27.8962 48.0712 28.1288C48.0712 29.3939 48.0712 30.6584 48.0712 31.9229C48.0712 32.0299 48.0451 32.1406 48.0974 32.2435C48.1022 32.975 48.1087 33.706 48.1117 34.437C48.1117 34.8623 48.1117 35.2875 48.1117 35.7128C48.1117 36.0048 48.1575 35.9876 47.8488 35.987C47.2451 35.987 46.6354 35.9311 46.0389 35.9953C45.2889 36.0762 44.5424 36.0179 43.7948 36.0387C43.366 36.0512 43.3493 36.0274 43.3499 35.5974C43.3499 34.5595 43.4058 33.5157 43.3439 32.4838C43.2619 31.1229 43.3683 29.7615 43.2809 28.406C43.2214 27.5084 43.2648 26.6151 43.2363 25.7199C43.228 25.4565 43.2452 25.469 43.0019 25.4695L39.4987 25.4731C39.3946 25.5213 39.284 25.4969 39.1763 25.4975C37.7802 25.4975 36.3841 25.4975 34.9879 25.4975C34.8785 25.5034 34.7684 25.485 34.6626 25.5237Z" fill="#51C4F1"/>
<path d="M31.1093 15.6022V15.9031C31.1093 19.1399 31.1218 22.3767 31.1009 25.6135C31.095 26.5253 30.9522 27.424 30.5537 28.2686C30.3093 28.7854 30.0779 29.3076 29.7556 29.7805C29.5682 30.0529 29.36 30.3081 29.1501 30.5638C28.6213 31.208 27.9605 31.6873 27.2706 32.1334C26.8328 32.4159 26.3415 32.5765 25.8461 32.7193C25.4644 32.8281 25.076 32.9115 24.6833 32.9691C23.82 33.1003 22.947 33.1572 22.074 33.1392C21.7528 33.1241 21.4333 33.0843 21.1182 33.0202C20.6793 32.9435 20.2338 32.8965 19.8037 32.7788C18.9633 32.5492 18.1794 32.2012 17.4794 31.6695C16.9012 31.23 16.338 30.7773 15.8294 30.2569C15.8144 30.2465 15.7977 30.2386 15.7801 30.2337C15.5231 30.5008 15.2614 30.7589 14.9843 31.0069C14.6173 31.329 14.2222 31.6174 13.8036 31.8688C13.0043 32.3577 12.1638 32.7502 11.2271 32.9025C10.6709 32.9929 10.1154 33.0809 9.55514 33.1505C9.1388 33.2016 8.72959 33.1927 8.318 33.1927C7.96768 33.1927 7.62033 33.1255 7.27179 33.0892C6.58958 33.0185 5.94365 32.8234 5.3001 32.6057C4.61076 32.3707 4.0023 31.9901 3.41645 31.569C3.0941 31.3288 2.78884 31.0664 2.50287 30.7839C2.06214 30.3616 1.71657 29.8673 1.40134 29.3564C1.08574 28.838 0.836741 28.2819 0.660248 27.7011C0.514464 27.2595 0.437042 26.7982 0.430664 26.3332C0.437801 19.5131 0.439784 12.6929 0.436612 5.87283C0.436612 5.46957 0.380108 5.52251 0.77623 5.52191C1.79647 5.51874 2.81691 5.51874 3.83755 5.52191C4.05761 5.52191 4.06059 5.52191 4.06118 5.74793C4.06118 6.21304 4.06118 6.67875 4.06118 7.14387C4.06118 13.1523 4.06118 19.1607 4.06118 25.1692C4.06118 25.7265 4.19263 26.2636 4.3901 26.7804C4.58756 27.2973 4.88971 27.7511 5.24182 28.1841C5.77867 28.8462 6.49852 29.3356 7.31164 29.5914C7.62568 29.6948 7.94567 29.7745 8.28529 29.7573C8.52022 29.7457 8.7557 29.761 8.98713 29.8031C9.29641 29.8578 9.60629 29.749 9.90784 29.6794C10.2302 29.6085 10.5458 29.51 10.8512 29.385C11.2443 29.2115 11.6081 28.9779 11.9295 28.6926C12.0556 28.5838 12.1841 28.4779 12.3084 28.3685C12.5696 28.1329 12.789 27.8548 12.9573 27.5459C13.2773 26.9779 13.5181 26.3754 13.6115 25.7318C13.6578 25.4817 13.6854 25.2284 13.6942 24.9741C13.691 18.6096 13.691 12.2455 13.6942 5.88175C13.6942 5.46541 13.6347 5.52488 14.0558 5.52488C15.086 5.52488 16.1167 5.52488 17.1487 5.52488C17.3866 5.52488 17.3824 5.50764 17.3812 5.74376C17.3812 5.81276 17.3812 5.88235 17.3812 5.95134C17.3812 12.3159 17.3846 18.68 17.3913 25.0437C17.3913 25.7354 17.493 26.439 17.8249 27.0689C18.1406 27.6636 18.5752 28.187 19.1019 28.6064C19.6372 29.0376 20.2153 29.3659 20.8732 29.5265C21.3603 29.6455 21.8426 29.796 22.3536 29.8239C22.5558 29.8352 22.7616 29.8834 22.9656 29.8697C23.991 29.7888 24.9676 29.5491 25.7777 28.8746C26.5235 28.2531 27.0511 27.4823 27.2474 26.5152C27.3532 25.9906 27.4353 25.4624 27.43 24.9229C27.4216 24.1497 27.43 23.3765 27.424 22.6069C27.4194 22.4603 27.4479 22.3145 27.5073 22.1804C27.8344 21.4804 28.1211 20.7631 28.5375 20.1029C28.7831 19.7127 28.9829 19.2886 29.2149 18.8871C29.5486 18.3084 29.8543 17.7154 30.2016 17.1445C30.4473 16.74 30.6555 16.3118 30.8821 15.8954C30.9326 15.7955 30.9784 15.6896 31.1093 15.6022Z" fill="#131416"/>
<path d="M70.6403 33.0638V32.67C70.6403 31.1456 70.6861 29.6194 70.6302 28.0974C70.5333 25.4804 70.6558 22.858 70.5707 20.241C70.4869 17.7007 70.5707 15.161 70.5148 12.6219C70.5101 12.1642 70.6051 11.711 70.7932 11.2938C71.1429 10.4747 71.5289 9.67239 72.0517 8.9426C72.1558 8.79098 72.2694 8.64615 72.3919 8.50901C72.8963 7.97371 73.4274 7.46755 74.0466 7.05359C74.4445 6.78772 74.8394 6.51829 75.2665 6.30536C75.9904 5.95162 76.7571 5.69312 77.5475 5.53631C77.8871 5.46732 78.2332 5.39356 78.5901 5.39594C78.8399 5.39594 79.0838 5.26331 79.3372 5.28829C79.7743 5.3323 80.2133 5.34777 80.651 5.39118C81.4125 5.474 82.1598 5.65575 82.8743 5.93184C83.7266 6.25064 84.5236 6.66639 85.2379 7.24035C85.5835 7.51751 85.9267 7.79408 86.2265 8.11943C86.5388 8.46348 86.8176 8.8365 87.0591 9.23345C87.4832 9.9216 87.7574 10.6686 87.9561 11.4454C88.0477 11.8023 88.1345 12.1639 88.1131 12.5362C88.1018 12.7545 88.1821 12.9579 88.1797 13.1768C88.169 14.4633 87.8764 15.6749 87.2281 16.7895C86.8275 17.4741 86.3031 18.0781 85.6816 18.5709C85.4538 18.7534 85.2219 18.9277 84.9745 19.1062C85.2249 19.281 85.5097 19.3881 85.775 19.5278C86.0962 19.6968 86.3769 19.9198 86.6672 20.1339C86.8843 20.3032 87.0883 20.4887 87.2774 20.6889C87.9315 21.3539 88.399 22.1793 88.6329 23.0822C88.7313 23.4088 88.7807 23.7481 88.7792 24.0892C88.7721 24.32 88.8542 24.5525 88.8304 24.7887C88.6989 26.0793 88.7412 27.3765 88.7893 28.6654C88.8375 29.9543 88.7965 31.2313 88.8304 32.513C88.8304 32.5826 88.8304 32.6522 88.8304 32.7212C88.8351 32.8086 88.7989 32.8461 88.7114 32.8431C88.5925 32.8396 88.4735 32.8431 88.3546 32.8431C87.5814 32.8431 86.8081 32.8473 86.0349 32.8431C85.69 32.8431 85.3539 32.9329 85.0066 32.9091C84.6854 32.8865 84.7282 32.9264 84.7282 32.6118C84.7282 30.7311 84.7621 28.8498 84.7133 26.9703C84.6884 26.0139 84.7133 25.0563 84.6539 24.1029C84.6159 23.5595 84.4012 23.0436 84.0424 22.6338C83.805 22.3578 83.5308 22.1156 83.2276 21.9141C82.788 21.6167 82.2896 21.4549 81.7817 21.3282C81.2605 21.1981 80.7248 21.1354 80.1877 21.1415C78.8702 21.154 77.5522 21.1456 76.2348 21.1456H76.0861C75.7744 21.1456 75.8095 21.1641 75.8089 20.8804C75.8089 20.5437 75.7947 20.2065 75.8089 19.8693C75.8405 19.2376 75.7429 18.6113 75.7495 17.9814C75.7495 17.6936 75.7173 17.7209 76.01 17.6942C77.3131 17.5752 78.6175 17.6626 79.9212 17.6442C80.4665 17.6286 81.0048 17.5167 81.5111 17.3135C81.9211 17.1575 82.3118 16.955 82.6756 16.7098C83.5 16.1549 83.9562 15.3882 84.137 14.4247C84.2213 14.0066 84.2755 13.583 84.2994 13.1572C84.3374 12.2686 84.0234 11.4734 83.5511 10.7299C82.995 9.8538 82.1671 9.39285 81.1917 9.14542C80.8455 9.05739 80.51 8.9194 80.1526 8.88253C79.719 8.83792 79.2949 8.73562 78.8441 8.83376C78.5467 8.89918 78.2261 8.91227 77.924 8.98423C77.3949 9.11665 76.8954 9.34704 76.4513 9.66347C75.8447 10.077 75.3348 10.6169 74.9566 11.2462C74.7336 11.6215 74.6033 12.0545 74.5022 12.491C74.3719 13.0531 74.3892 13.6211 74.3886 14.1873C74.3886 15.2764 74.3553 16.3666 74.3951 17.4539C74.4957 20.2112 74.3779 22.9698 74.4612 25.7254C74.5308 28.0284 74.4707 30.3302 74.507 32.632C74.507 32.7016 74.504 32.7712 74.507 32.8402C74.5117 32.9282 74.4742 32.9656 74.388 32.9591C74.319 32.9555 74.2494 32.9591 74.1798 32.9591H71.0596C70.9294 32.9615 70.7997 32.9425 70.6403 33.0638Z" fill="#131416"/>
<path d="M95.7813 17.0402C96.247 17.0165 96.6979 17.0997 97.1493 16.9927C97.2375 16.9793 97.3269 16.9761 97.4158 16.9831C98.9907 16.9831 100.568 17.0319 102.141 16.9701C104.001 16.8969 105.859 16.9671 107.717 16.9106C108.078 16.9005 108.441 16.8701 108.805 16.8588C108.95 16.8541 108.988 16.9023 108.987 17.0438C108.982 18.1323 108.984 19.2213 108.987 20.3103C108.987 20.4239 108.968 20.4674 108.833 20.4935C108.581 20.5352 108.326 20.5521 108.071 20.5441C105.793 20.5441 103.513 20.4983 101.235 20.5589C99.4951 20.6059 97.756 20.5756 96.0163 20.6036C95.9764 20.6036 95.9372 20.6036 95.8973 20.6036C95.8027 20.6036 95.7635 20.663 95.7956 20.7362C95.9062 20.9854 95.8473 21.2542 95.8967 21.513C95.999 22.0435 96.1025 22.5746 96.2911 23.079C96.548 23.7654 96.8692 24.4238 97.3159 25.0138C97.5389 25.3076 97.753 25.6086 98.0088 25.8751C98.3109 26.1899 98.619 26.498 98.9331 26.7993C99.6215 27.4656 100.439 27.984 101.335 28.3226C101.925 28.545 102.518 28.7508 103.138 28.8751C103.584 28.9649 104.03 29.0536 104.485 29.1053C105.198 29.1898 105.918 29.2677 106.63 29.2022C107.371 29.1344 108.109 29.1814 108.848 29.157C109.122 29.1481 109.104 29.1255 109.104 29.4092C109.104 30.4402 109.104 31.4695 109.104 32.4973C109.104 32.7311 109.122 32.7192 108.877 32.7192C107.628 32.7192 106.378 32.7537 105.129 32.7043C104.489 32.6793 103.848 32.6966 103.21 32.6526C102.776 32.6234 102.35 32.5098 101.928 32.4016C100.764 32.1042 99.6676 31.6361 98.6137 31.0651C97.8373 30.6381 97.1008 30.1425 96.413 29.5841C96.0605 29.2986 95.7326 28.9841 95.4328 28.6438C94.7238 27.8473 94.0577 27.0153 93.5295 26.0862C93.0537 25.2535 92.6516 24.3953 92.3804 23.4751C92.2297 22.9774 92.1146 22.4696 92.036 21.9555C91.9676 21.4844 91.9129 21.0128 91.854 20.5411C91.7465 19.7529 91.7144 18.9563 91.7583 18.162C91.7815 17.8051 91.7547 17.4405 91.8558 17.0866C91.9064 16.9082 91.879 16.7197 91.901 16.5341C91.9831 15.8412 92.2733 15.2208 92.5017 14.5761C92.7825 13.7827 93.1405 13.0225 93.492 12.2618C93.7145 11.78 94.0428 11.353 94.3759 10.9331C94.7327 10.4804 95.0896 10.026 95.5137 9.6317C96.1852 9.00421 96.8924 8.42311 97.69 7.95443C98.387 7.54403 99.0889 7.14216 99.7955 6.74882C100.439 6.39195 101.118 6.14274 101.818 5.92921C102.382 5.75669 102.956 5.6159 103.537 5.50752C103.965 5.42663 104.412 5.4522 104.827 5.29102C104.895 5.27623 104.965 5.27341 105.034 5.28269C106.223 5.28269 107.413 5.28269 108.602 5.28269C108.88 5.28269 108.868 5.24701 108.868 5.52715C108.868 6.59774 108.868 7.66676 108.868 8.73418C108.868 8.99053 108.863 8.99648 108.63 8.92868C108.544 8.90848 108.455 8.90107 108.367 8.90667C107.534 8.90667 106.701 8.88407 105.869 8.91678C105.562 8.92868 105.247 8.9376 104.94 9.01432C104.761 9.05774 104.573 9.05298 104.389 9.07678C103.928 9.14471 103.471 9.23984 103.021 9.36167C102.173 9.58483 101.357 9.91375 100.591 10.3407C99.896 10.7159 99.2398 11.1592 98.6321 11.6641C98.0296 12.1655 97.5615 12.7674 97.1339 13.4091C96.7823 13.9337 96.52 14.5029 96.2875 15.0888C96.0989 15.5646 95.9943 16.0654 95.8598 16.5567C95.8248 16.7163 95.7986 16.8777 95.7813 17.0402Z" fill="#131416"/>
<path d="M126.481 32.5416C125.787 32.5416 125.094 32.5285 124.399 32.5463C123.974 32.557 123.556 32.4916 123.135 32.4678C122.734 32.4452 122.336 32.3197 121.945 32.2133C120.943 31.9382 119.974 31.5528 119.057 31.0642C118.305 30.6766 117.59 30.2202 116.922 29.7009C116.602 29.4458 116.255 29.2174 115.975 28.9194C115.41 28.3266 114.884 27.6985 114.399 27.0387C113.935 26.4103 113.532 25.7392 113.195 25.0343C112.812 24.2263 112.516 23.3797 112.312 22.5089C112.201 21.9984 112.119 21.4821 112.066 20.9625C112.018 20.536 111.99 20.1078 111.94 19.6837C111.885 19.2198 111.902 18.7606 111.897 18.2996C111.898 17.8305 111.936 17.3621 112.011 16.8989C112.04 16.7068 112.041 16.5106 112.06 16.3173C112.119 15.7475 112.365 15.2425 112.536 14.7114C112.754 14.0321 113.066 13.3874 113.345 12.7313C113.654 11.9993 114.068 11.316 114.574 10.7031C114.9 10.31 115.242 9.9347 115.598 9.56891C116.197 8.94852 116.871 8.40507 117.604 7.95112C118.293 7.52764 118.99 7.11843 119.694 6.72112C120.381 6.33584 121.109 6.02728 121.864 5.801C122.493 5.60994 123.133 5.45328 123.78 5.33172C124.774 5.14317 125.775 5.1967 126.775 5.14853C127.405 5.11819 128.035 5.11284 128.665 5.10154C128.714 5.10422 128.764 5.10422 128.814 5.10154C128.96 5.0831 129.043 5.12771 129.016 5.29187C129.014 5.31166 129.014 5.33155 129.016 5.35135C129.016 6.42194 129.016 7.49096 129.016 8.55838C129.016 8.79629 129.029 8.80165 128.794 8.78261C128.027 8.72217 127.257 8.7051 126.489 8.73146C126.098 8.73632 125.708 8.77211 125.323 8.83852C125.14 8.86694 124.956 8.88442 124.771 8.89086C124.3 8.92239 123.849 9.03599 123.398 9.14781C122.615 9.3391 121.856 9.61532 121.133 9.97157C120.334 10.3573 119.584 10.8364 118.898 11.399C118.212 11.9638 117.633 12.6459 117.186 13.4135C116.785 14.1118 116.439 14.8315 116.212 15.6059C116.101 15.9854 116.029 16.3738 115.941 16.7586C115.936 16.7701 115.935 16.7826 115.936 16.7948C115.938 16.807 115.943 16.8186 115.95 16.8286C115.958 16.8385 115.967 16.8464 115.979 16.8515C115.99 16.8566 116.002 16.8588 116.015 16.8579C116.034 16.8579 116.054 16.8579 116.074 16.8615H116.193C118.913 16.8668 121.633 16.7592 124.353 16.802C125.824 16.6688 127.297 16.7782 128.769 16.7425C128.818 16.7425 128.868 16.7425 128.918 16.7425C129.129 16.7467 129.134 16.7467 129.134 16.9465C129.134 18.0254 129.134 19.1038 129.138 20.1827C129.138 20.3225 129.106 20.3808 128.959 20.3683C128.813 20.3558 128.662 20.3653 128.514 20.3653C127.226 20.3653 125.937 20.3225 124.651 20.3748C122.159 20.4753 119.666 20.3808 117.174 20.4343C116.804 20.4426 116.43 20.4807 116.057 20.4837C115.969 20.4837 115.908 20.5307 115.947 20.608C116.066 20.8459 116.003 21.1076 116.044 21.3556C116.139 21.9447 116.293 22.5226 116.505 23.0805C116.73 23.6873 117.037 24.2608 117.416 24.7851C117.623 25.067 117.833 25.3436 118.062 25.6095C118.341 25.9402 118.64 26.2535 118.958 26.5474C119.537 27.072 120.148 27.5645 120.861 27.8946C121.592 28.2297 122.353 28.4947 123.133 28.6862C123.632 28.8065 124.137 28.899 124.647 28.9634C124.937 29.0112 125.23 29.0375 125.524 29.0419C126.336 29.0294 127.149 29.0419 127.963 29.036C128.306 29.036 128.644 28.9467 128.991 28.9765C129.193 28.9931 129.197 28.983 129.198 29.1924C129.198 30.2416 129.198 31.2906 129.198 32.3394C129.198 32.538 129.194 32.5416 128.982 32.5416C128.147 32.5424 127.313 32.5424 126.481 32.5416Z" fill="#131416"/>
<path d="M67.9889 17.578C68.0483 17.6857 68.0222 17.7868 68.0228 17.8832C68.0228 18.3483 68.04 18.814 68.0228 19.2785C67.9984 19.8412 68.1197 20.3961 68.0882 20.9582C68.0745 21.2121 68.1114 21.2002 67.8503 21.2002C66.4823 21.2002 65.1143 21.1503 63.7499 21.2127C62.138 21.2865 60.5274 21.227 58.9173 21.2591C58.6985 21.2639 58.6955 21.2639 58.6955 21.4917C58.6955 23.1844 58.6437 24.8819 58.708 26.5687C58.7871 28.6439 58.7193 30.7173 58.7532 32.7918C58.7585 33.116 58.793 33.0773 58.4736 33.0779C57.4129 33.0779 56.3528 33.0779 55.2934 33.0779C55.0739 33.0779 55.0644 33.0738 55.0703 32.8793C55.109 31.6951 54.993 30.5138 55.0043 29.3291C55.0227 27.4686 55.0578 25.6063 54.9977 23.7477C54.9115 21.089 54.9977 18.431 54.9383 15.7735C54.9293 15.3435 54.8972 14.9117 54.8895 14.4798C54.8812 14.0581 54.9371 13.6472 54.9948 13.2272C55.0275 12.9893 55.0394 12.7389 55.0775 12.501C55.1191 12.2417 55.0941 11.9758 55.175 11.7213C55.225 11.5642 55.2184 11.3894 55.2285 11.2312C55.2589 10.7554 55.4914 10.3652 55.6603 9.94705C55.8309 9.52417 56.0541 9.1245 56.3247 8.7575C56.5549 8.44524 56.7946 8.14547 57.1062 7.89507C57.4837 7.58685 57.8768 7.2982 58.2839 7.03026C58.7263 6.74602 59.1983 6.51088 59.6917 6.32902C60.2003 6.14093 60.7192 5.98206 61.2459 5.8532C61.6157 5.76852 61.9919 5.71441 62.3706 5.69142C63.3669 5.61469 64.3667 5.69142 65.3594 5.62302C66.1599 5.56949 66.9575 5.60458 67.7557 5.5796C67.9627 5.57306 67.9669 5.5796 67.9669 5.78658C67.9669 6.84568 67.9669 7.90478 67.9669 8.96388C67.9669 9.21607 67.9877 9.20179 67.7248 9.20179C66.0802 9.20179 64.4357 9.19049 62.7917 9.20655C62.0402 9.20783 61.2966 9.35888 60.6041 9.65085C60.1656 9.82894 59.792 10.1369 59.5335 10.5335C59.254 10.9724 58.9387 11.3912 58.8002 11.9074C58.7109 12.2363 58.6306 12.5617 58.6318 12.9067C58.6372 14.3936 58.6318 15.8758 58.6318 17.3604C58.6318 17.4299 58.6348 17.4989 58.6318 17.5685C58.6277 17.6542 58.6628 17.6994 58.7508 17.6934C59.1921 17.6661 59.6376 17.7529 60.0766 17.6417C60.1648 17.6287 60.2543 17.6265 60.343 17.6351H67.5945C67.7295 17.6357 67.8669 17.6554 67.9889 17.578Z" fill="#131416"/>
<path d="M43.2274 21.4307C43.2307 21.4371 43.2323 21.4442 43.2321 21.4514C43.232 21.4586 43.23 21.4657 43.2264 21.4719C43.2227 21.4781 43.2176 21.4833 43.2114 21.487C43.2053 21.4908 43.1983 21.4929 43.1911 21.4932C43.112 21.4985 43.0329 21.4979 42.9532 21.4979H33.9381C33.859 21.4979 33.7799 21.4979 33.7002 21.495C33.6479 21.492 33.6408 21.4581 33.6574 21.4141C33.7353 21.4206 33.8138 21.4343 33.8917 21.4343H43.1685C43.1881 21.4343 43.2077 21.4319 43.2274 21.4307Z" fill="#A3F0FB"/>
<path d="M52.9121 21.4996C51.4014 21.4996 49.8902 21.4996 48.3787 21.4996C48.2681 21.4996 48.1408 21.5502 48.0498 21.4312C49.5748 21.4312 51.0992 21.4342 52.6236 21.4425C52.7176 21.4413 52.8395 21.37 52.9121 21.4996Z" fill="#A3F0FB"/>
<path d="M34.6621 25.5221C34.7293 25.4662 34.8102 25.4775 34.8881 25.4775H39.4965C39.4643 25.5477 39.4001 25.537 39.3436 25.537" fill="#B0EFFB"/>
<path d="M48.0977 32.2494C48.0311 32.1899 48.0436 32.1049 48.0436 32.027C48.0436 30.5329 48.0424 29.0388 48.04 27.5447C48.04 27.5049 48.0466 27.4656 48.0501 27.4258C48.1096 27.4472 48.1096 27.496 48.1096 27.5447C48.1069 29.1138 48.1029 30.682 48.0977 32.2494Z" fill="#A3E0F8"/>
</svg>
