<svg width="93" height="45" viewBox="0 0 93 45" fill="none" xmlns="http://www.w3.org/2000/svg">
<g clip-path="url(#clip0)">
<path d="M0 0.0155964H11.3481L18.5482 27.9283L24.358 0.0155964H36.2566L41.7974 27.652L49.2663 0.0155964H67.533C67.533 0.0155964 92.9996 -1.37907 92.9996 22.6313C92.9996 22.6313 93.2735 44.9555 71.1305 44.9555C71.1305 44.9555 59.2317 46.3576 51.7576 33.5169C50.6567 38.2611 48.1602 44.9555 48.1602 44.9555H35.1503L30.175 17.8845L25.1849 44.9555H11.9037L0 0.0155964Z" fill="#52327C"/>
<path d="M65.5399 17.8313C65.5399 20.3793 68.1259 22.2641 70.9261 22.2641C73.8359 22.2641 76.3175 20.5251 76.3175 17.8791C76.3175 15.2858 73.9955 13.3032 71.0358 13.3032C68.1808 13.303 65.5399 15.2379 65.5399 17.8313ZM65.8639 30.4205C66.0832 31.1291 66.731 31.7875 67.5331 32.1645C68.3951 32.5464 69.3667 32.6369 70.1192 32.6369C74.9674 32.6369 76.2579 28.7267 76.8509 26.038L76.7461 25.9426C74.3744 27.7368 71.5194 28.5359 68.3452 28.5359C61.0207 28.5359 55.6294 24.857 55.6294 18.115C55.6294 10.1494 62.904 5.85742 71.4145 5.85742C82.4014 5.85742 87.1997 13.21 87.1997 21.4648C87.1997 31.878 81.5993 39.4267 70.119 39.4267C63.1732 39.4267 57.1938 36.8785 56.0081 30.4205H65.8639Z" fill="white"/>
</g>
<defs>
<clipPath id="clip0">
<rect width="93" height="45" fill="white"/>
</clipPath>
</defs>
</svg>
