<svg width="104" height="63" viewBox="0 0 104 63" fill="none" xmlns="http://www.w3.org/2000/svg">
<path d="M52.1101 63.0002C80.6541 63.0002 103.794 49.0629 103.794 31.8702C103.794 14.6776 80.6541 0.740234 52.1101 0.740234C23.5661 0.740234 0.426624 14.6776 0.426624 31.8702C0.426624 49.0629 23.5661 63.0002 52.1101 63.0002Z" fill="#CF0A2C"/>
<path d="M5.79774 33.2083V33.137C5.00648 33.1773 4.21355 33.1713 3.42299 33.1192C2.17328 32.9738 2.01001 33.5645 2.21187 34.6034C2.58263 36.6461 3.25595 38.6221 4.20962 40.4661C6.9109 45.5629 11.037 49.2556 15.9053 52.1706C26.4402 58.4964 38.0468 60.883 50.1759 61.2748C51.1287 61.3045 51.2 60.8682 51.2 60.126C51.2 59.3839 51.1525 58.8199 50.1284 58.8259C47.0136 58.7991 43.9073 58.4961 40.8461 57.9205C32.4484 56.4571 24.6147 53.637 17.9327 48.1662C14.1034 45.0256 11.2597 41.1874 9.93871 36.3251C9.65671 35.2921 10.0456 33.793 9.14317 33.3181C8.24076 32.8431 6.93168 33.2083 5.79774 33.2083ZM98.7276 33.137C98.0356 33.1772 97.3418 33.1772 96.6497 33.137C95.5276 33.0064 95.1388 33.4101 95.0082 34.5648C94.6905 37.4056 93.5804 39.9941 91.9982 42.3689C88.6023 47.4657 83.7994 50.8556 78.3671 53.4322C70.8421 56.9943 62.857 58.5973 54.5692 58.8348C53.6549 58.8615 53.0078 58.8585 53.0256 60.1379C53.0434 61.4173 53.7261 61.2778 54.5484 61.26C59.2902 61.1568 64.0123 60.6152 68.6544 59.6422C77.3549 57.8255 85.5567 54.8304 92.6037 49.2319C96.8664 45.8479 100.209 41.7722 101.684 36.3964C102.575 33.1519 102.575 33.1519 99.3094 33.1519L98.7276 33.137Z" fill="#CE0E2F"/>
<path d="M5.79648 33.2083C6.93042 33.2083 8.25435 32.8432 9.14488 33.3092C10.0354 33.7753 9.65842 35.2833 9.94042 36.3163C11.2614 41.1786 14.0962 45.0168 17.9344 48.1574C24.6164 53.6282 32.4501 56.4482 40.8478 57.9116C43.909 58.4873 47.0153 58.7903 50.1301 58.817C51.1542 58.817 51.2047 59.3365 51.2017 60.1172C51.1987 60.8979 51.1304 61.3046 50.1776 61.266C38.0485 60.8741 26.4301 58.4875 15.907 52.1618C11.0506 49.2468 6.91261 45.554 4.21133 40.4572C3.25561 38.6135 2.58028 36.6376 2.20764 34.5946C2.00579 33.5645 2.16905 32.9738 3.41876 33.1104C4.20933 33.1625 5.00225 33.1684 5.79351 33.1282L5.79648 33.2083Z" fill="#FBF6F7"/>
<path d="M98.7264 33.138H99.32C102.585 33.138 102.585 33.138 101.695 36.3825C100.211 41.7584 96.877 45.834 92.6143 49.218C85.5673 54.8165 77.3655 57.8117 68.665 59.6283C64.0229 60.6014 59.3008 61.143 54.559 61.2461C53.7367 61.264 53.054 61.4005 53.0362 60.1241C53.0184 58.8476 53.6655 58.8476 54.5798 58.8209C62.8676 58.5835 70.8527 56.9835 78.3777 53.4184C83.81 50.8418 88.6129 47.4518 92.0088 42.355C93.591 39.9803 94.7012 37.3918 95.0188 34.551C95.1494 33.3963 95.5383 32.9926 96.6603 33.1232C97.3481 33.1679 98.038 33.1728 98.7264 33.138Z" fill="#FBF6F7"/>
<path d="M9.44754 31.3984H2.02645C2.06673 28.7974 2.70026 26.2399 3.87876 23.9209C6.46723 18.6401 10.6587 14.8701 15.5655 11.8156C22.7936 7.30359 30.7639 4.8101 39.123 3.53664C42.5783 3.00826 46.1226 2.83906 49.6342 2.51847C50.0943 2.47691 50.5604 2.51847 51.1541 2.51847V11.964H47.7641V5.3563L45.6684 5.60564C45.6684 6.96222 45.6328 8.206 45.6684 9.46461C45.6981 10.2394 45.4339 10.5718 44.6384 10.5184C43.9141 10.4709 43.1868 10.5184 42.3111 10.5184V5.91436C40.1174 6.3626 38.1078 6.69506 36.1368 7.19079C29.9209 8.75219 24.0701 11.1863 18.9465 15.1403C13.6271 19.2456 9.96405 24.3573 9.44754 31.3984Z" fill="white"/>
<path d="M102.182 31.4655C99.9849 31.4655 97.8417 31.4892 95.7044 31.4328C95.4758 31.4328 95.087 30.9757 95.0632 30.7055C94.3834 23.4151 90.2039 18.3539 84.5282 14.3257C77.8285 9.5762 70.2144 7.15396 62.0097 5.92206V10.3747H58.5811V5.56288L56.5507 5.34618V11.9658H53.0331V2.4668C54.9745 2.55882 56.8446 2.59444 58.7058 2.74583C67.4775 3.45529 75.9583 5.35509 83.9227 9.18734C89.818 12.0252 95.0662 15.7179 98.8123 21.2125C100.654 23.8794 101.81 26.9597 102.176 30.1801C102.199 30.6082 102.201 31.0372 102.182 31.4655Z" fill="white"/>
<path d="M46.179 48.4571C44.3416 48.4571 42.7089 48.5254 41.0882 48.4066C40.7171 48.3799 40.257 47.7744 40.0641 47.335C39.0637 45.0879 39.0904 45.076 36.683 45.076C35.4333 45.076 34.1836 45.1176 32.9368 45.0612C32.1294 45.0226 31.7287 45.2927 31.4289 46.0705C30.4998 48.4779 30.4612 48.463 27.9053 48.463H24.9369C25.1477 47.8901 25.2723 47.4983 25.4326 47.1183C27.7896 41.5347 30.1821 35.9659 32.4856 30.3674C32.8448 29.4977 33.3138 29.1801 34.2162 29.2602C35.4986 29.3522 37.0778 28.904 37.9891 29.5066C38.9004 30.1092 39.1765 31.7062 39.6693 32.8876C41.6759 37.5897 43.6707 42.2976 45.6536 47.0115C45.808 47.4003 45.9386 47.804 46.179 48.4571ZM33.5009 40.7392H37.4993C36.8255 39.0323 36.217 37.4976 35.4986 35.6928C34.7595 37.5689 34.1509 39.1065 33.5009 40.7451V40.7392Z" fill="white"/>
<path d="M62.1967 41.6732C59.6409 41.6732 57.1949 41.7326 54.7519 41.6495C53.5912 41.6109 53.2469 42.0027 53.3151 43.1337C53.4012 44.5467 53.3151 45.9715 53.3418 47.3905C53.3597 48.1237 53.1637 48.5125 52.3326 48.4828C50.9255 48.4353 49.5185 48.4828 48.0343 48.4828V29.4492H63.1318V34.0355H53.6328C53.4873 34.2551 53.4101 34.3323 53.4012 34.3917C53.0866 37.182 53.0866 37.182 55.8264 37.182H62.1848L62.1967 41.6732Z" fill="white"/>
<path d="M65.5748 48.3599V29.4688H70.823C70.8497 30.0031 70.8942 30.5047 70.8972 31.0094C70.8972 34.7526 70.9358 38.4987 70.8764 42.239C70.8586 43.3729 71.1109 43.833 72.3606 43.7826C74.8511 43.6787 77.3476 43.7529 79.9509 43.7529V48.3599H65.5748Z" fill="white"/>
<path d="M41.0762 17.5596C39.9749 20.8932 38.9152 24.0635 37.8822 27.2456C37.5646 28.2282 36.7779 27.8156 36.1575 27.8898C35.5371 27.964 35.0177 27.8898 34.7802 27.1031C34.3023 25.5447 33.7234 24.0189 33.0704 22.1548C32.4589 23.9002 31.883 25.3488 31.4615 26.8449C31.1884 27.8452 30.5887 27.9195 29.7427 27.9165C28.8967 27.9135 28.4069 27.8156 28.1249 26.8983C27.273 24.105 26.3142 21.3444 25.4029 18.5689C25.3138 18.2928 25.2634 18.0019 25.1387 17.4943C25.9677 17.4482 26.799 17.4611 27.6262 17.5329C27.9231 17.5774 28.2674 18.0316 28.3832 18.37C28.8849 19.8275 29.3094 21.3117 30.0307 22.8523C30.4967 21.472 31.0132 20.1095 31.4051 18.6965C31.6663 17.7704 32.0878 17.4112 33.103 17.4082C34.1182 17.4053 34.5427 17.7852 34.801 18.6995C35.1987 20.1006 35.6915 21.475 36.2852 23.2353C36.7572 21.7154 37.1193 20.528 37.4993 19.3436C38.1879 17.1826 37.6418 17.5062 40.1145 17.4735C40.3638 17.4854 40.6191 17.524 41.0762 17.5596Z" fill="white"/>
<path d="M70.9714 17.5973C73.8092 17.2767 73.8092 17.2767 73.8211 19.9216V21.2574H77.3595V17.5736H80.2121V27.7523H77.4099V24.0537H73.8478V27.7523H70.9862L70.9714 17.5973Z" fill="white"/>
<path d="M51.5638 27.853C50.5871 27.853 49.8866 27.945 49.2276 27.8173C48.815 27.7402 48.2658 27.4047 48.1352 27.0544C47.8384 26.2233 47.3634 25.9086 46.5055 26.0244C46.0353 26.0823 45.5598 26.0823 45.0896 26.0244C44.1545 25.9116 43.546 26.158 43.2848 27.1672C43.2106 27.4641 42.7149 27.7609 42.3765 27.8203C41.6191 27.8815 40.8584 27.8914 40.0997 27.85C40.1618 27.5302 40.2451 27.2148 40.349 26.906C41.5364 24.0593 42.8098 21.2363 43.9111 18.3569C44.3326 17.2645 45.0985 17.4664 45.8762 17.4456C46.654 17.4248 47.2061 17.4456 47.5712 18.3688C48.812 21.4708 50.1538 24.5224 51.5638 27.853ZM45.7278 20.9899C45.3182 22.0497 45.0362 22.7888 44.7334 23.5784H46.7341L45.7278 20.9899Z" fill="white"/>
<path d="M69.8107 19.5398L67.8367 21.0656C65.5896 19.7921 64.5002 19.7595 63.6067 20.9112C63.1924 21.4677 62.988 22.1528 63.0299 22.8454C63.0717 23.5379 63.357 24.1934 63.8353 24.696C64.8416 25.6726 66.1002 25.5361 67.81 24.1884L69.7425 25.5539C69.0271 27.2667 66.9195 28.3115 64.806 28.0503C62.3006 27.7535 60.4008 25.9724 60.0861 23.6363C59.7299 20.9854 60.9559 18.7027 63.2475 17.7498C64.3818 17.2563 65.6506 17.1648 66.844 17.4902C68.0374 17.8157 69.084 18.5388 69.8107 19.5398Z" fill="white"/>
<path d="M53.6803 20.098H50.6228V17.6016H59.5281V20.0624H56.5596V27.7803H53.6803V20.098Z" fill="white"/>
</svg>
