<svg width="73" height="67" viewBox="0 0 73 67" fill="none" xmlns="http://www.w3.org/2000/svg">
<path d="M6.10352e-05 63.1758C6.21908 57.1446 21.0951 52.3063 36.7464 50.281C39.6521 49.9051 42.5475 49.6158 45.378 49.399C45.4833 49.3908 46.3397 49.3536 46.3397 49.3536L47.6383 52.3519L49.2171 49.1617C49.2171 49.1617 50.429 49.082 50.4711 49.08C58.4574 48.6896 65.6013 48.846 70.5315 49.1978C69.2589 51.9488 66.4596 57.9225 66.4596 57.9225C61.8298 56.4036 47.4519 54.7381 33.518 55.8827C16.5532 57.2759 1.73666 62.5155 0.00186522 63.1753" fill="#EE2624"/>
<path d="M47.6652 51.9954L37.0976 26.0288L26.5306 51.9954L1.19571 0.145508L11.0146 27.4748L26.2135 66.832L37.0976 42.1614L47.9823 66.832L63.1812 27.4748L73.0001 0.144814L47.6652 51.9954Z" fill="#231F20"/>
<path d="M67.6966 0.22015L48.1288 25.952L37.1323 0.928577L26.1365 25.952L6.56876 0.22015L26.2829 39.1523L37.1323 11.282L47.9824 39.1523L67.6966 0.22015Z" fill="#231F20"/>
<path d="M53.3276 59.6172V58.1654H52.7858V57.9711H54.0893V58.1654H53.5453V59.6172H53.3276Z" fill="#231F20"/>
<path d="M54.3054 59.6172V57.9711H54.6329L55.0222 59.1366C55.0581 59.2451 55.0843 59.3264 55.1008 59.3802C55.1194 59.3203 55.1486 59.2325 55.1882 59.1164L55.582 57.9711H55.8748V59.6172H55.6651V58.2395L55.1872 59.6172H54.9909L54.5152 58.216V59.6172H54.3054Z" fill="#231F20"/>
</svg>
