<svg width="124" height="33" viewBox="0 0 124 33" fill="none" xmlns="http://www.w3.org/2000/svg">
<path d="M50.7495 19.0706C51.001 19.0278 51.0063 18.8085 51.0705 18.664C52.8789 14.8262 54.6783 10.9866 56.4688 7.14525C56.5562 6.89198 56.7259 6.67532 56.9509 6.52985C57.1759 6.38438 57.4432 6.3185 57.71 6.34273C58.459 6.36948 59.2134 6.34273 59.9624 6.34273C60.7114 6.34273 61.0324 6.56744 61.1662 7.3325L63.2206 18.9583C63.2183 19.0582 63.2372 19.1575 63.2759 19.2497C63.3146 19.3419 63.3724 19.4249 63.4453 19.4933C63.6379 19.0225 63.8305 18.573 63.9803 18.1236C65.407 14.4963 66.8444 10.8689 68.2925 7.24155C68.6081 6.44438 68.7793 6.33203 69.6567 6.33203H71.5293C72.5404 6.33203 72.9203 6.90984 72.5191 7.84611C71.5025 10.2073 70.4807 12.5613 69.4535 14.9082C67.918 18.4553 66.3611 21.9971 64.8524 25.5549C64.7645 25.8735 64.5631 26.1489 64.2862 26.3293C64.0093 26.5097 63.6759 26.5825 63.349 26.534C62.6749 26.4805 61.9954 26.534 61.316 26.534C61.1851 26.5521 61.0518 26.5424 60.9249 26.5056C60.798 26.4688 60.6803 26.4057 60.5794 26.3205C60.4785 26.2352 60.3966 26.1296 60.3392 26.0106C60.2817 25.8916 60.2499 25.7619 60.2459 25.6298C59.5076 21.5102 58.7657 17.3925 58.0203 13.2765C57.9882 13.1053 57.9454 12.9394 57.9026 12.7682C57.6083 12.8377 57.6083 13.0678 57.5334 13.2337C55.611 17.4139 53.6921 21.5923 51.7767 25.7689C51.6902 26.0221 51.5188 26.2375 51.2917 26.3789C51.0645 26.5202 50.7955 26.5788 50.5302 26.5447C49.8507 26.5072 49.1712 26.5447 48.4971 26.5447C48.3658 26.5692 48.2306 26.5643 48.1013 26.5303C47.9721 26.4964 47.852 26.4342 47.7497 26.3482C47.6473 26.2622 47.5653 26.1547 47.5096 26.0332C47.4538 25.9118 47.4256 25.7795 47.4271 25.6459L45.2015 11.0776L44.6665 7.54115C44.6251 7.39509 44.6198 7.24115 44.6512 7.09261C44.6825 6.94407 44.7495 6.80538 44.8464 6.68849C44.9433 6.57161 45.0671 6.48003 45.2073 6.42166C45.3474 6.36329 45.4997 6.33988 45.6509 6.35343C46.5604 6.35343 47.4699 6.35343 48.3794 6.35343C48.5181 6.33866 48.6583 6.354 48.7905 6.39842C48.9226 6.44283 49.0437 6.51526 49.1453 6.61077C49.2469 6.70627 49.3267 6.82259 49.3791 6.95177C49.4316 7.08095 49.4556 7.21995 49.4494 7.35925C49.8668 11.2006 50.2876 15.042 50.7121 18.8834C50.7181 18.9469 50.7307 19.0096 50.7495 19.0706Z" fill="#050505"/>
<path d="M112.682 19.593C113.041 18.9402 113.319 18.4373 113.592 17.9237C115.475 14.357 117.353 10.776 119.225 7.18073C119.33 6.90677 119.523 6.67553 119.774 6.52344C120.025 6.37136 120.32 6.30709 120.611 6.34077C121.323 6.38357 122.04 6.34077 122.751 6.34077C123.666 6.34077 124.062 7.03628 123.623 7.82274C120.445 13.558 117.251 19.2826 114.089 25.0233C113.132 26.7621 113.34 26.4999 111.5 26.532C109.483 26.5588 109.659 26.532 109.21 24.7772C107.972 20.0584 106.745 15.3361 105.529 10.6101C105.272 9.63107 104.994 8.65201 104.764 7.66224C104.555 6.77947 104.919 6.34077 105.834 6.33542H108.349C109.344 6.33542 109.531 6.48522 109.766 7.47499C110.679 11.3128 111.6 15.1452 112.527 18.9723C112.527 19.1275 112.591 19.2559 112.682 19.593Z" fill="#050505"/>
<path d="M95.5298 6.3484H102.324C103.304 6.3484 103.608 6.67475 103.507 7.65917C103.443 8.24233 103.352 8.82549 103.255 9.4033C103.143 10.0614 102.876 10.2968 102.185 10.3021C100.773 10.3021 99.3659 10.3021 97.9588 10.3021C97.5361 10.3021 97.3328 10.361 97.2686 10.8371C96.8781 13.7315 96.4554 16.6206 96.0434 19.5096C95.7545 21.5373 95.4763 23.565 95.1874 25.5927C95.1897 25.728 95.1625 25.8622 95.1076 25.986C95.0527 26.1097 94.9715 26.22 94.8697 26.3091C94.7678 26.3982 94.6477 26.4641 94.5178 26.502C94.3879 26.54 94.2512 26.5492 94.1174 26.529C93.3523 26.529 92.5819 26.529 91.8169 26.529C91.0518 26.529 90.6612 26.1437 90.7736 25.2931C90.9983 23.5436 91.2498 21.7995 91.5012 20.0553C91.9363 16.9666 92.3768 13.8831 92.8227 10.805C92.8869 10.3717 92.7371 10.27 92.3465 10.27C91.0251 10.27 89.7036 10.27 88.3875 10.27C87.5154 10.27 87.1837 9.89551 87.2746 9.03415C87.3442 8.41353 87.4298 7.79827 87.5207 7.18301C87.5313 7.05475 87.5677 6.92994 87.6278 6.81614C87.6879 6.70234 87.7704 6.60191 87.8705 6.5209C87.9705 6.43989 88.0859 6.38 88.2097 6.34483C88.3335 6.30967 88.4631 6.29996 88.5908 6.3163L95.5298 6.3484Z" fill="#050505"/>
<path d="M85.6803 16.9808C85.3967 15.2795 84.6744 13.867 83.0855 13.0217C81.6746 12.3508 80.0822 12.1628 78.5539 12.4867C76.4098 12.773 74.4611 13.8822 73.1201 15.5797C71.7791 17.2771 71.1511 19.4296 71.3688 21.5819C71.4293 22.3589 71.6566 23.1138 72.0351 23.7952C72.4136 24.4765 72.9345 25.0683 73.5623 25.5302C76.3871 27.6703 80.7635 27.2797 83.5456 24.9364C83.6505 24.8521 83.7351 24.7454 83.7933 24.6241C83.8515 24.5028 83.8817 24.37 83.8817 24.2355C83.8817 24.101 83.8515 23.9682 83.7933 23.8469C83.7351 23.7256 83.6505 23.6189 83.5456 23.5346C83.1978 23.2297 82.8287 22.9461 82.4756 22.6519C82.3837 22.5464 82.2702 22.4618 82.1428 22.4038C82.0155 22.3458 81.8772 22.3158 81.7372 22.3158C81.5973 22.3158 81.459 22.3458 81.3316 22.4038C81.2043 22.4618 81.0908 22.5464 80.9989 22.6519C80.4808 23.0853 79.8661 23.388 79.2067 23.5346C77.3876 23.9252 75.8896 23.0585 75.5686 21.4535C75.4883 21.0576 75.5686 20.9184 75.9859 20.9184C77.4465 20.9452 78.9124 20.9184 80.373 20.9184C81.8335 20.9184 83.262 20.9184 84.7119 20.9184C85.2469 20.9184 85.4984 20.7579 85.584 20.2176C85.7873 19.1506 85.8198 18.058 85.6803 16.9808ZM81.5981 17.687C81.5981 18.0187 81.4002 18.0508 81.1434 18.0508H78.7412C77.9547 18.0508 77.1736 18.0508 76.3925 18.0508C76.0073 18.0508 75.8575 17.9866 76.0287 17.5693C76.3594 16.7843 76.9655 16.1471 77.733 15.7776C78.5005 15.4082 79.3766 15.3318 80.1964 15.563C80.6233 15.7253 80.9883 16.0178 81.2399 16.3989C81.4914 16.7801 81.6167 17.2307 81.5981 17.687Z" fill="#050505"/>
<path d="M34.5655 19.2998C36.85 16.8976 36.5825 14.6827 34.5387 12.7887C31.5266 9.95319 27.9956 7.658 24.2505 5.49656C20.6295 3.39987 16.8239 1.63946 12.8815 0.237414C11.813 -0.13414 10.6408 -0.0675106 9.62117 0.422735C8.60157 0.912981 7.81755 1.78696 7.4405 2.85361C7.35995 3.05775 7.30774 3.27196 7.28535 3.49027C5.74021 11.8177 5.72751 20.3572 7.2479 28.6892C7.45107 29.8036 8.08773 30.7921 9.01837 31.4379C9.94902 32.0837 11.0977 32.3343 12.2128 32.1347C12.4396 32.0872 12.663 32.0247 12.8815 31.9474C16.8857 30.5054 20.7458 28.6909 24.411 26.5278C28.0812 24.4145 31.7406 22.2531 34.5655 19.2998Z" fill="url(#paint0_linear)"/>
<path d="M7.2479 3.78875C7.13656 3.76771 7.02858 3.73172 6.92689 3.68175C4.66915 2.98624 2.67892 3.78875 1.7801 6.2391C0.66193 9.3047 0.710081 12.7502 0.710081 16.1154C0.710081 19.4806 0.710081 22.8672 1.748 25.9381C2.73242 28.763 4.6424 29.1964 6.90549 28.5008C7.01249 28.4741 7.3014 28.3403 7.38165 28.3082C6.59048 24.2996 6.16252 20.2277 6.10298 16.1421C6.14479 11.9999 6.52772 7.86812 7.2479 3.78875Z" fill="url(#paint1_linear)"/>
<path d="M7.22652 3.74219C5.766 11.9148 5.766 20.2817 7.22652 28.4543C10.8014 27.3612 14.2771 25.967 17.6164 24.2866C20.9248 22.7352 24.0596 20.8378 26.9684 18.6262C29.0389 16.9676 28.8302 15.0469 26.9684 13.5008C24.1489 11.2323 20.8479 9.47214 17.4024 7.79221C14.1301 6.15902 10.7261 4.80423 7.22652 3.74219Z" fill="url(#paint2_linear)"/>
<path d="M10.8753 10.9964C10.8753 10.9964 10.5275 11.5314 10.5275 16.0896C10.5275 20.6479 10.8753 21.2418 10.8753 21.2418C10.9823 21.8089 11.2444 21.9908 11.8543 21.857C11.8543 21.857 12.8922 21.7019 17.0065 19.61C21.1207 17.5181 21.8215 16.7317 21.8215 16.7317C22.2763 16.2715 22.3566 15.9826 21.8215 15.5011C21.8215 15.5011 20.7087 14.4579 17.0065 12.5693C13.3042 10.6807 11.8543 10.3864 11.8543 10.3864C11.314 10.2259 10.993 10.3864 10.8753 10.9964Z" fill="url(#paint3_linear)"/>
<defs>
<linearGradient id="paint0_linear" x1="21.1474" y1="-0.00334004" x2="21.1474" y2="32.2096" gradientUnits="userSpaceOnUse">
<stop stop-color="#53C4FE"/>
<stop offset="1" stop-color="#0D84F4"/>
</linearGradient>
<linearGradient id="paint1_linear" x1="4.04854" y1="3.441" x2="4.04854" y2="28.7951" gradientUnits="userSpaceOnUse">
<stop stop-color="#F9B93B"/>
<stop offset="1" stop-color="#FA7535"/>
</linearGradient>
<linearGradient id="paint2_linear" x1="17.2794" y1="3.76894" x2="17.2794" y2="28.481" gradientUnits="userSpaceOnUse">
<stop stop-color="#AEF922"/>
<stop offset="1" stop-color="#62BB0D"/>
</linearGradient>
<linearGradient id="paint3_linear" x1="16.3537" y1="10.3276" x2="16.3537" y2="21.8838" gradientUnits="userSpaceOnUse">
<stop stop-color="white"/>
<stop offset="0.6" stop-color="white"/>
<stop offset="1" stop-color="#E5F6D2"/>
</linearGradient>
</defs>
</svg>
