<svg width="142" height="23" viewBox="0 0 142 23" fill="none" xmlns="http://www.w3.org/2000/svg">
<path d="M5.76419 13.3966C5.02734 14.378 4.27743 15.2747 3.64507 16.2539C2.98549 17.2715 2.13001 17.7232 0.943647 17.5858C0.629305 17.5695 0.314342 17.5695 0 17.5858C0.166526 17.3374 0.257952 17.1891 0.36135 17.0484C1.60322 15.3582 2.83965 13.6637 4.09675 11.9845C4.31444 11.6988 4.30137 11.513 4.09675 11.2317C2.96155 9.71845 1.85791 8.19861 0.747734 6.68316C0.638893 6.52601 0.530053 6.36117 0.380942 6.14138C1.11235 6.14138 1.79587 6.03808 2.42605 6.17655C2.89407 6.27875 3.38385 6.61613 3.70711 6.99087C4.32532 7.70298 4.83143 8.5162 5.38434 9.28657C5.49971 9.44591 5.61834 9.59867 5.76419 9.80747C6.41723 8.92831 7.07027 8.11619 7.64386 7.25571C8.21745 6.39524 8.94995 6.02819 9.94475 6.10841C10.3355 6.13919 10.7306 6.10841 11.2258 6.10841C11.0647 6.34689 10.9635 6.50843 10.8514 6.65789C9.73795 8.17663 8.62996 9.69427 7.49149 11.1888C7.24333 11.5185 7.27381 11.7207 7.50237 12.0328C9.91863 15.3297 12.3265 18.6305 14.7261 21.9354C14.835 22.0816 14.934 22.2299 15.1419 22.5267C14.2233 22.4684 13.4081 22.5091 12.6386 22.3321C12.2391 22.2398 11.8505 21.8222 11.5839 21.453C9.75102 18.9518 7.95188 16.4253 6.14187 13.9087C6.03738 13.7659 5.92745 13.6219 5.76419 13.3966Z" fill="black"/>
<path d="M123.55 17.5395H122.148V6.13792H123.466V7.63469C124.696 6.34452 126.086 5.76648 127.728 5.88297C129.395 6.00275 130.688 6.77531 131.599 8.25119C131.78 8.04239 131.939 7.85448 132.103 7.67095C134.004 5.55109 137.156 5.25327 139.261 6.98081C140.392 7.91052 140.937 9.15782 140.975 10.5788C141.038 12.8865 140.992 15.1866 140.992 17.4889C139.784 17.7878 139.577 17.2516 139.577 16.4394C139.594 14.4273 139.637 12.4063 139.479 10.404C139.281 7.87645 136.823 6.52805 134.509 7.56435C133.57 7.97959 132.799 8.7071 132.325 9.62597C132.189 9.88532 132.236 10.2557 132.238 10.5755C132.249 12.7349 132.271 14.8943 132.289 17.0592C132.289 17.2021 132.289 17.3461 132.289 17.4757C131.242 17.767 130.867 17.4757 130.859 16.4416C130.845 14.5569 130.849 12.6712 130.799 10.7865C130.76 9.32267 130.157 8.14899 128.777 7.54347C127.362 6.91927 126.039 7.22478 124.832 8.11273C123.98 8.73913 123.47 9.50729 123.53 10.6952C123.624 12.7602 123.556 14.8328 123.556 16.9021L123.55 17.5395Z" fill="black"/>
<path d="M28.8112 6.14167V7.19996C29.0452 7.02852 29.1932 6.90874 29.3554 6.80544C31 5.73286 32.7501 5.49329 34.5177 6.37465C36.2341 7.22963 36.9383 8.79233 36.9753 10.655C37.0178 12.8332 36.9884 15.0135 36.9884 17.1927C36.9884 17.3026 36.9731 17.4059 36.9655 17.5092C36.9094 17.5356 36.8501 17.5548 36.7892 17.5663C35.2339 17.6037 34.5982 17.7355 34.681 15.5596C34.7321 14.2057 34.6919 12.8485 34.6886 11.4935C34.6964 11.2191 34.6852 10.9444 34.6548 10.6715C34.5003 9.59895 34.0823 8.69342 32.9961 8.29231C31.751 7.83735 30.6082 8.08681 29.5742 8.90112C29.0463 9.31762 28.7818 9.80226 28.8014 10.5364C28.858 12.6584 28.821 14.7838 28.821 16.9102V17.5388H26.5528V6.14167H28.8112Z" fill="black"/>
<path d="M53.3579 22.4788C53.5897 22.0392 53.7726 21.6908 53.962 21.3425C54.9481 19.5314 55.9211 17.7159 56.929 15.9159C57.0159 15.781 57.0645 15.6246 57.0695 15.4638C57.0745 15.303 57.0357 15.1438 56.9573 15.0037C55.6686 12.2828 54.3963 9.55408 53.1196 6.8265C53.0216 6.6177 52.9323 6.4045 52.8192 6.14955C53.4243 6.14955 53.962 6.11438 54.4942 6.15944C55.1015 6.20999 55.5021 6.56495 55.7611 7.1375C56.6405 9.08263 57.545 11.0157 58.4723 13.0224C58.6019 12.8026 58.7053 12.6421 58.7989 12.4729C59.7371 10.7146 60.6949 8.97493 61.6004 7.20453C61.9922 6.44077 62.58 6.11438 63.3887 6.11328H64.6545C64.5348 6.35505 64.4542 6.53088 64.3639 6.70122C61.7582 11.5564 59.1395 16.4049 56.5556 21.271C56.104 22.1205 55.476 22.5073 54.5508 22.4799C54.1862 22.47 53.8238 22.4788 53.3579 22.4788Z" fill="black"/>
<path d="M16.72 17.5444H14.4159V8.19566H11.7319C12.2445 7.47035 12.6777 6.82967 13.1468 6.21755C13.2263 6.11425 13.4733 6.12744 13.6475 6.11535C13.8771 6.09997 14.109 6.11535 14.3343 6.11535C14.4083 5.3351 14.4126 4.59881 14.5519 3.89109C15.0863 1.31516 17.7366 -0.166218 20.2399 0.748104C20.0985 1.38659 19.9548 2.03497 19.8046 2.7339C18.8392 2.61082 17.914 2.60862 17.2523 3.44272C16.6341 4.22187 16.7081 5.14169 16.732 6.10107H19.6196V8.17917H16.72V17.5444Z" fill="black"/>
<path d="M46.2736 8.19953H43.866V6.12362H46.2736C46.2736 5.04776 46.2899 4.04442 46.2649 3.04658C46.2551 2.66304 46.3617 2.44875 46.7307 2.31138C47.3206 2.09159 47.8909 1.81576 48.5614 1.52344V6.11703C49.2144 6.11703 49.7859 6.1467 50.3573 6.10604C50.7545 6.07857 50.9385 6.23901 51.0756 6.58738C51.2813 7.10828 51.5284 7.61379 51.7885 8.19404H48.5886V10.3678C48.5886 11.3755 48.5821 12.3821 48.5886 13.3888C48.6028 15.0196 49.5344 15.8306 51.1485 15.6295C51.326 15.6075 51.5023 15.5822 51.721 15.5537C51.8767 16.213 52.0247 16.8504 52.1716 17.4779C49.8446 18.7769 46.5359 16.9614 46.3432 14.2141C46.2202 12.4645 46.2899 10.6974 46.2736 8.94462C46.2714 8.71933 46.2736 8.48306 46.2736 8.19953Z" fill="black"/>
<path d="M117.535 7.58263V6.154H118.878V17.5314H117.552V15.9104C116.3 17.305 114.853 17.86 113.157 17.7786C111.461 17.6973 110.044 16.9907 108.961 15.6654C107.102 13.3906 107.261 9.78162 109.298 7.61011C111.417 5.34628 114.376 5.31881 117.535 7.58263ZM117.491 11.7586C117.491 11.1366 117.503 10.5146 117.485 9.89042C117.491 9.69244 117.442 9.49667 117.341 9.32666C116.284 7.9288 114.896 7.13646 113.133 7.24416C111.057 7.37164 109.559 8.80466 109.164 10.9091C108.769 13.0136 109.737 15.0917 111.549 15.9797C113.362 16.8676 115.483 16.4028 116.87 14.8016C117.289 14.3181 117.588 13.8126 117.502 13.129C117.446 12.6762 117.492 12.2147 117.491 11.7564V11.7586Z" fill="black"/>
<path d="M106.049 11.9612H96.8409C96.6287 14.5866 99.0058 16.757 101.63 16.4042C102.519 16.2998 103.359 15.9363 104.047 15.358C104.738 14.7734 105.12 14.8086 105.789 15.5141C105 16.569 103.87 17.3107 102.595 17.6098C99.8797 18.2889 97.2208 17.1372 96.0192 14.7778C94.7294 12.2502 95.303 8.85889 97.3557 7.12805C98.9731 5.76206 100.827 5.49721 102.762 6.26318C104.665 7.01596 105.669 8.54679 105.97 10.5579C106.036 10.9996 106.023 11.4535 106.049 11.9612ZM104.538 10.615C104.179 8.51711 102.565 7.14233 100.63 7.22366C98.7554 7.30278 97.0542 8.8468 96.9225 10.615H104.538Z" fill="black"/>
<path d="M68.8135 16.1517L69.6733 15.066C70.5212 15.7352 71.4148 16.2309 72.4673 16.3847C73.3195 16.51 74.1369 16.4177 74.8683 15.9264C76.0655 15.1264 76.0111 13.5967 74.7268 12.9703C73.9845 12.6076 73.1562 12.4208 72.3693 12.1571C71.8556 11.9823 71.3244 11.8406 70.8357 11.6076C68.9713 10.735 68.5893 8.55252 70.0412 7.07005C70.9838 6.10737 72.1701 5.79747 73.4773 5.87989C74.6246 5.95088 75.7333 6.32491 76.6925 6.96455L75.9665 8.13273C75.7641 8.02283 75.579 7.92612 75.3962 7.82282C74.4427 7.28764 73.4261 7.05906 72.3595 7.3294C71.9208 7.43706 71.5116 7.64286 71.1623 7.93162C70.2915 8.6811 70.4254 9.87126 71.4442 10.3691C72.1386 10.7087 72.907 10.8933 73.6417 11.1471C74.2065 11.3427 74.7867 11.5021 75.3309 11.745C76.3355 12.1922 77.0505 12.9043 77.1289 14.0857C77.216 15.3836 76.736 16.4221 75.6367 17.1144C74.2218 18.0079 72.698 17.9122 71.1742 17.4924C70.2875 17.2548 69.4751 16.7935 68.8135 16.1517Z" fill="black"/>
<path d="M85.9905 16.3016C86.0722 16.7565 86.1407 17.1467 86.2082 17.5258C83.645 18.6247 81.01 16.8862 80.9501 14.0608C80.9088 12.0827 80.9403 10.1046 80.9382 8.13201V7.47703H78.326V6.12313H80.9382C80.9382 4.95935 80.9708 3.84832 80.9251 2.74058C80.9022 2.19111 81.0274 1.87791 81.5912 1.7845C81.8339 1.74493 82.0636 1.62735 82.3531 1.52734V6.08797H86.132V7.46604H82.4097C82.3877 7.59446 82.3725 7.72394 82.364 7.85397C82.364 9.88482 82.3542 11.9201 82.3716 13.9476C82.3781 14.7378 82.5555 15.4861 83.251 15.9752C83.8801 16.4235 84.5952 16.4785 85.3321 16.395C85.528 16.373 85.7217 16.3378 85.9905 16.3016Z" fill="black"/>
<path d="M21.5331 6.125H23.7403V17.5375H21.5331V6.125Z" fill="black"/>
<path d="M39.7311 6.14453H41.9765V17.5395H39.7311V6.14453Z" fill="black"/>
<path d="M90.245 17.548H88.8486V6.1508H90.2537V7.52119C91.5119 6.16179 92.9454 5.71013 94.6629 5.93321C94.5965 6.37279 94.5344 6.7783 94.4648 7.23436C94.1479 7.2172 93.8304 7.2172 93.5135 7.23436C92.2444 7.37943 91.2529 8.00363 90.5966 9.10257C90.3874 9.45936 90.2717 9.86402 90.2602 10.2784C90.2287 12.4763 90.245 14.6742 90.245 16.8721V17.548Z" fill="black"/>
</svg>
