<svg width="138" height="39" viewBox="0 0 138 39" fill="none" xmlns="http://www.w3.org/2000/svg">
<path d="M4.50895 38.7484C4.50895 36.7936 4.50895 34.8411 4.4969 32.8887C4.4969 32.6934 4.58127 32.6741 4.73794 32.6741C5.61293 32.6741 6.49033 32.7079 7.36532 32.6283C8.144 32.5695 8.90179 32.3486 9.59016 31.9799C10.4314 31.5219 10.7954 30.794 10.8098 29.8708C10.8364 29.0054 10.5471 28.2076 10.2699 27.4097C8.69026 22.8958 7.11223 18.3802 5.5358 13.8631L0.888474 0.564683C0.775183 0.241685 0.777594 0.241685 1.11264 0.241685C2.82888 0.241685 4.54511 0.241685 6.25893 0.241685C7.97275 0.241685 9.12735 1.11908 9.61426 2.76541C11.3048 8.49101 13.0074 14.215 14.722 19.9374L14.7605 20.0507C14.8425 20.0073 14.8401 19.9277 14.8618 19.8602C16.5636 14.1363 18.2653 8.41066 19.9671 2.68346C20.4419 1.09016 21.57 0.241685 23.267 0.241685C25.0121 0.229632 26.7549 0.241685 28.5 0.241685C28.7411 0.241685 28.7652 0.309177 28.6905 0.523706C27.0417 5.22406 25.3978 9.92763 23.7587 14.6344C22.3366 18.6984 20.9128 22.7688 19.4874 26.8457C18.7643 28.8753 18.0894 30.9145 17.3349 32.9296C16.8143 34.3735 16.0066 35.6969 14.9606 36.8201C14.1387 37.6854 13.0925 38.0783 11.9741 38.3411C11.1284 38.531 10.2679 38.6479 9.40214 38.6906C9.32983 38.6906 9.24546 38.6665 9.19243 38.7484H4.50895Z" fill="#C0D52E"/>
<path d="M111.86 30.8924H96.8577C95.5219 30.8766 94.2364 30.3809 93.2358 29.4958C92.2352 28.6108 91.5864 27.3953 91.4077 26.0715C91.3659 25.7373 91.3458 25.4007 91.3474 25.0639C91.3474 18.665 91.3474 12.2661 91.3474 5.86718C91.3437 4.5568 91.7972 3.28616 92.6296 2.27418C93.4621 1.26219 94.6215 0.572234 95.908 0.323175C96.2499 0.261971 96.5971 0.234521 96.9445 0.24122H126.805C128.185 0.236142 129.518 0.743797 130.545 1.66573C131.572 2.58766 132.22 3.85816 132.363 5.23083C132.395 5.54637 132.411 5.86338 132.409 6.18054C132.409 12.5328 132.409 18.8844 132.409 25.2351C132.413 26.4966 131.996 27.7233 131.225 28.7216C130.453 29.7198 129.372 30.4328 128.15 30.7477C127.738 30.8473 127.316 30.8967 126.892 30.8948L111.86 30.8924ZM119.509 21.3181C119.268 20.7974 119.075 20.3539 118.872 19.9056C117.164 16.0923 115.454 12.2781 113.743 8.46323C113.69 8.32827 113.611 8.20531 113.51 8.10175C113.409 7.99818 113.287 7.91613 113.154 7.86052C113.02 7.80492 112.876 7.77691 112.732 7.77816C112.587 7.77942 112.444 7.80993 112.311 7.86785C112.216 7.89862 112.129 7.94901 112.056 8.01573C111.982 8.08245 111.923 8.16398 111.883 8.255C111.843 8.34601 111.823 8.44446 111.823 8.5439C111.824 8.64334 111.846 8.74152 111.887 8.83202C112.73 10.6945 113.575 12.5586 114.42 14.4242C115.804 17.4775 117.185 20.5307 118.564 23.5839C118.622 23.7371 118.712 23.8757 118.83 23.9899C118.947 24.104 119.089 24.1909 119.243 24.2444C119.726 24.4035 120.246 24.1142 120.502 23.5405C121.837 20.5484 123.172 17.5562 124.505 14.564L127.017 8.93085C127.067 8.84274 127.099 8.74528 127.11 8.64445C127.122 8.54363 127.112 8.44156 127.083 8.3445C127.053 8.24745 127.004 8.15746 126.939 8.08005C126.873 8.00265 126.792 7.93946 126.701 7.89436C126.574 7.82651 126.433 7.78557 126.289 7.77408C126.145 7.76258 126 7.78078 125.863 7.82754C125.726 7.8743 125.6 7.94863 125.493 8.04595C125.386 8.14326 125.3 8.26149 125.241 8.39332L120.08 20.0478C119.897 20.4479 119.721 20.8481 119.509 21.3181ZM102.334 16.5744C102.334 18.8546 102.334 21.1349 102.334 23.4152C102.322 23.6091 102.381 23.8009 102.499 23.955C102.617 24.1092 102.787 24.2154 102.978 24.254C103.701 24.4468 104.241 24.0347 104.241 23.2898C104.241 18.7566 104.241 14.2242 104.241 9.69255C104.241 9.42499 104.313 9.3575 104.576 9.35991C105.54 9.37678 106.504 9.35991 107.468 9.35991C107.912 9.35991 108.355 9.35991 108.799 9.35991C109.003 9.35679 109.199 9.27991 109.351 9.14346C109.503 9.007 109.601 8.82019 109.626 8.61749C109.622 8.4184 109.547 8.2273 109.414 8.07875C109.281 7.93021 109.1 7.83402 108.903 7.80759C108.807 7.7935 108.71 7.78785 108.613 7.79071C105.059 7.79071 101.503 7.79071 97.9472 7.79071C97.3494 7.79071 96.9228 8.12817 96.9228 8.58375C96.9228 9.03932 97.347 9.36473 97.952 9.36473C99.3115 9.36473 100.669 9.36473 102.028 9.36473C102.281 9.36473 102.349 9.4274 102.349 9.68291C102.329 11.9728 102.334 14.2724 102.334 16.5744Z" fill="#C0D52E"/>
<path d="M47.2846 17.5756H36.8498C36.346 17.5756 36.334 17.5756 36.3677 18.0576C36.4295 19.2226 36.7419 20.3605 37.2837 21.3937C37.6688 22.0969 38.189 22.7172 38.8145 23.219C39.4399 23.7207 40.1582 24.0941 40.9283 24.3176C42.5123 24.8316 44.2065 24.9041 45.8287 24.5273C47.6534 24.1175 48.9333 23.0207 49.7456 21.3599C49.7688 21.2837 49.8178 21.2179 49.8842 21.1739C49.9507 21.1299 50.0304 21.1104 50.1096 21.1189C52.5651 21.1189 55.0221 21.1189 57.4807 21.1189C57.6905 21.1189 57.7748 21.1189 57.7218 21.3937C57.0686 24.5273 55.2559 26.8124 52.6382 28.5286C50.7098 29.7868 48.579 30.4377 46.3132 30.7149C44.6793 30.9257 43.026 30.9403 41.3887 30.7582C38.4567 30.4253 35.6649 29.3226 33.2968 27.562C30.9129 25.8096 29.5703 23.4136 28.9122 20.5886C28.6135 19.227 28.452 17.8389 28.4301 16.4451C28.3651 14.1118 28.5555 11.8098 29.2955 9.58978C30.8864 4.793 34.2682 1.88601 39.147 0.724183C42.4437 -0.0719507 45.8971 0.0674562 49.1189 1.12673C53.0455 2.37774 55.656 5.06297 57.177 8.84977C57.7714 10.4154 58.1076 12.0671 58.1725 13.7406C58.24 14.9048 58.2208 16.0666 58.24 17.2309C58.24 17.5057 58.1774 17.5828 57.8929 17.5828C54.3576 17.5731 50.8215 17.5707 47.2846 17.5756ZM43.3025 12.5884C45.4502 12.5884 47.5979 12.5884 49.7456 12.5884C49.9867 12.5884 50.112 12.5691 50.0301 12.2822C49.9944 12.0933 49.9687 11.9026 49.9529 11.711C49.6107 9.64522 48.5477 8.0953 46.6362 7.18898C45.0405 6.42969 43.3628 6.32604 41.6442 6.62976C40.8855 6.74683 40.1592 7.01946 39.5108 7.43053C38.8625 7.84159 38.3061 8.38223 37.8766 9.0185C37.2168 10.0063 36.774 11.1228 36.5774 12.2943C36.5268 12.5546 36.5774 12.5956 36.8185 12.5956C38.9855 12.5859 41.1428 12.5884 43.3025 12.5884Z" fill="#C0D52E"/>
<path d="M64.7964 21.1426C66.0016 21.1426 67.1852 21.1426 68.3807 21.1426C68.6218 21.1426 68.7375 21.1619 68.7929 21.4487C69.1376 23.1867 70.3067 24.146 71.9265 24.6474C72.6225 24.8386 73.3352 24.9629 74.0549 25.0186C74.7246 25.0844 75.3986 25.0949 76.07 25.0499C77.1186 24.9945 78.1551 24.8523 79.1144 24.3774C80.0738 23.9026 80.5269 23.1722 80.4281 22.1887C80.3293 21.2053 79.705 20.6027 78.8107 20.2604C77.2126 19.6674 75.5494 19.2962 73.9006 18.8768C71.8011 18.3513 69.6703 17.956 67.6335 17.2039C66.4121 16.7868 65.2576 16.1949 64.2059 15.4467C63.2264 14.7425 62.5118 13.7298 62.1763 12.5711C61.323 9.52911 61.8533 6.74988 63.8949 4.30087C65.6377 2.21584 67.9131 1.05401 70.5598 0.571922C71.4261 0.423303 72.3 0.322715 73.1775 0.270618C74.1452 0.212717 75.1157 0.222382 76.0821 0.299543C78.5094 0.468274 80.8475 0.964824 83.0169 2.13389C84.8121 3.0875 86.1791 4.68616 86.8423 6.60766C87.1731 7.57561 87.4049 8.57463 87.5341 9.58937C87.5678 9.8039 87.51 9.87139 87.293 9.87139C84.8376 9.87139 82.3806 9.87139 79.9219 9.87139C79.7628 9.87139 79.6809 9.84488 79.6664 9.66169C79.6025 9.06041 79.4137 8.47911 79.112 7.9551C78.6799 7.25892 78.0197 6.73416 77.2439 6.47027C76.5231 6.22356 75.7706 6.08151 75.0094 6.04844C73.95 5.96662 72.8842 6.04792 71.8494 6.28948C71.4622 6.36865 71.0947 6.52435 70.7686 6.74746C70.4424 6.97057 70.1641 7.25658 69.9499 7.58871C69.8056 7.82946 69.7132 8.09779 69.6788 8.3764C69.6445 8.65501 69.6688 8.93773 69.7503 9.20636C69.8318 9.47499 69.9687 9.72356 70.1521 9.93608C70.3356 10.1486 70.5615 10.3203 70.8153 10.4403C71.5639 10.763 72.34 11.0179 73.1341 11.202C75.0167 11.6985 76.9209 12.1035 78.8252 12.5108C80.1641 12.7855 81.4746 13.1841 82.7397 13.7016C83.9465 14.1827 85.0612 14.8685 86.0348 15.7288C87.3354 16.868 88.1555 18.4582 88.3295 20.1784C88.7369 24.0689 86.9628 27.5785 83.0266 29.4369C81.5644 30.0828 80.0116 30.4998 78.4226 30.6735C76.793 30.8894 75.1473 30.9587 73.5053 30.8808C71.0298 30.7747 68.576 30.4541 66.3222 29.3285C64.0685 28.2028 62.3643 26.5806 61.3881 24.2424C61.1097 23.5498 60.9421 22.8177 60.8915 22.073C60.8746 21.8561 60.8264 21.6416 60.8216 21.4198C60.8168 21.198 60.8819 21.145 61.0988 21.1474C62.3281 21.1474 63.5623 21.1426 64.7964 21.1426Z" fill="#C0D52E"/>
<path d="M136.133 3.46434C135.902 3.47141 135.672 3.43225 135.456 3.34917C135.239 3.26608 135.042 3.14074 134.875 2.98047C134.708 2.82021 134.575 2.62824 134.483 2.4158C134.391 2.20337 134.342 1.97474 134.34 1.74329C134.346 1.27574 134.537 0.829581 134.871 0.502814C135.206 0.176048 135.656 -0.00460438 136.124 0.000540809C136.355 -0.00523202 136.586 0.0352608 136.802 0.11965C137.018 0.204039 137.214 0.330628 137.381 0.492012C137.547 0.653395 137.679 0.84633 137.77 1.05953C137.861 1.27272 137.909 1.5019 137.91 1.73365C137.911 1.96521 137.866 2.19468 137.777 2.40831C137.687 2.62194 137.556 2.81535 137.39 2.97694C137.224 3.13853 137.027 3.26498 136.811 3.34873C136.595 3.43248 136.365 3.4718 136.133 3.46434ZM134.89 1.75534C134.892 2.08585 135.025 2.40194 135.261 2.63406C135.377 2.749 135.515 2.83986 135.667 2.90147C135.818 2.96307 135.981 2.99421 136.144 2.9931C136.308 2.99199 136.47 2.95866 136.62 2.89501C136.771 2.83136 136.908 2.73864 137.023 2.62213C137.138 2.50563 137.229 2.36763 137.29 2.21601C137.352 2.06439 137.383 1.90212 137.382 1.73847C137.38 1.40795 137.246 1.09187 137.011 0.859744C136.776 0.627619 136.458 0.498469 136.127 0.500707C135.797 0.502944 135.481 0.636386 135.249 0.871675C135.016 1.10696 134.887 1.42483 134.89 1.75534Z" fill="#C0D52E"/>
<path d="M119.509 21.3189C119.721 20.8368 119.901 20.4487 120.08 20.0486L125.241 8.39896C125.3 8.26712 125.386 8.1489 125.493 8.05158C125.6 7.95427 125.726 7.87994 125.863 7.83318C126 7.78641 126.145 7.76822 126.289 7.77971C126.433 7.79121 126.574 7.83214 126.701 7.9C126.792 7.9451 126.873 8.00829 126.939 8.08569C127.004 8.1631 127.053 8.25309 127.083 8.35014C127.112 8.44719 127.122 8.54927 127.11 8.65009C127.099 8.75092 127.067 8.84838 127.017 8.93649L124.505 14.5697C123.17 17.5634 121.835 20.5556 120.502 23.5462C120.246 24.1198 119.735 24.4091 119.243 24.25C119.089 24.1965 118.947 24.1097 118.83 23.9955C118.712 23.8814 118.622 23.7428 118.564 23.5895C117.185 20.5363 115.804 17.4831 114.42 14.4299C113.572 12.5594 112.727 10.6929 111.887 8.83043C111.846 8.73993 111.824 8.64174 111.823 8.54231C111.823 8.44287 111.843 8.34442 111.883 8.2534C111.923 8.16239 111.982 8.08085 112.056 8.01414C112.129 7.94742 112.216 7.89703 112.311 7.86625C112.444 7.80833 112.587 7.77783 112.732 7.77657C112.876 7.77531 113.02 7.80332 113.154 7.85893C113.287 7.91453 113.409 7.99658 113.51 8.10015C113.611 8.20372 113.69 8.32667 113.743 8.46163C115.454 12.2749 117.164 16.0891 118.872 19.904C119.075 20.3523 119.275 20.7983 119.509 21.3189Z" fill="#FEFEFE"/>
<path d="M102.334 16.5743C102.334 14.2723 102.334 11.9727 102.334 9.67319C102.334 9.41768 102.267 9.3526 102.014 9.35501C100.654 9.36948 99.297 9.35501 97.9376 9.35501C97.3325 9.35501 96.9107 9.03201 96.9083 8.57403C96.9059 8.11605 97.3349 7.781 97.9327 7.781C101.489 7.781 105.044 7.781 108.599 7.781C108.696 7.77813 108.792 7.78378 108.888 7.79787C109.086 7.8243 109.267 7.92049 109.4 8.06904C109.532 8.21758 109.607 8.40868 109.611 8.60778C109.586 8.81047 109.489 8.99729 109.337 9.13374C109.185 9.27019 108.989 9.34707 108.785 9.35019C108.341 9.36465 107.897 9.35019 107.454 9.35019C106.49 9.35019 105.526 9.35019 104.561 9.35019C104.299 9.35019 104.226 9.41527 104.226 9.68283C104.236 14.2145 104.236 18.7469 104.226 23.2801C104.226 24.0298 103.689 24.4419 102.963 24.2443C102.773 24.2057 102.603 24.0995 102.485 23.9453C102.366 23.7912 102.308 23.5994 102.32 23.4055C102.329 21.1396 102.334 18.8626 102.334 16.5743Z" fill="#FEFEFE"/>
<path d="M136.601 1.75773C136.895 1.92405 136.895 2.19402 136.965 2.42783C136.969 2.44485 136.97 2.46268 136.966 2.47987C136.962 2.49705 136.954 2.51309 136.943 2.52666C136.828 2.63754 136.418 2.52666 136.37 2.36516C136.35 2.30249 136.341 2.235 136.321 2.16992C136.306 2.11052 136.269 2.05858 136.219 2.02329C136.169 1.988 136.108 1.97163 136.047 1.97708C135.875 1.99154 135.957 2.13617 135.943 2.21813C135.921 2.36034 136.018 2.55077 135.728 2.55077C135.487 2.55077 135.408 2.50015 135.422 2.25187C135.446 1.8879 135.437 1.52874 135.422 1.15753C135.422 0.983982 135.483 0.916489 135.663 0.916489C135.924 0.916489 136.184 0.904437 136.442 0.916489C136.659 0.928542 136.869 0.986392 136.938 1.23226C137.008 1.47812 136.854 1.64203 136.601 1.75773ZM135.941 1.44679C135.912 1.60105 135.998 1.62757 136.126 1.61793C136.254 1.60829 136.348 1.58659 136.348 1.44679C136.348 1.30698 136.232 1.26841 136.107 1.25877C135.981 1.24913 135.919 1.32385 135.941 1.44679Z" fill="#C0D52E"/>
</svg>
