<svg width="63" height="63" viewBox="0 0 63 63" fill="none" xmlns="http://www.w3.org/2000/svg">
<path d="M2.82467 0.105469H60.1743C61.6813 0.105469 62.8945 1.31867 62.8945 2.82565V60.1753C62.8945 61.6823 61.6813 62.8955 60.1743 62.8955H2.82467C1.3177 62.8955 0.104492 61.6823 0.104492 60.1753V2.82565C0.104492 1.31867 1.3177 0.105469 2.82467 0.105469Z" fill="#00B8CD"/>
<path d="M10.3891 45.6058C10.3891 44.539 11.1538 44.5218 11.5174 44.5218C12.5476 44.5218 13.4193 44.7691 14.7917 44.7691C17.6599 44.7691 17.7323 43.3301 18.4428 40.0697H17.1119C13.7936 40.0697 13.5566 37.378 13.0603 35.6413L10.2454 25.5477C10.2454 25.5477 9.98633 24.6256 9.98633 24.0048C9.98633 22.8849 10.7622 22.6621 11.4703 22.6621H12.3183C13.3223 22.6621 13.5432 22.9762 14.0497 24.7232L16.7468 35.0288C17.1092 36.251 16.9307 36.8426 19.0788 36.8426L22.0704 23.9106C22.2404 23.1945 22.6206 22.6621 23.5426 22.6621H24.5908C25.4295 22.6621 25.8629 23.1528 25.8629 23.9812C25.8629 24.6485 25.4506 26.3368 25.4506 26.3368L20.9515 44.5335C20.7488 45.0573 19.9725 48.1847 15.145 48.1847C12.3131 48.1847 10.3891 47.9599 10.3891 46.663V45.6058Z" fill="white"/>
<path d="M30.2493 38.8106V17.1657H29.3998C28.5616 17.1657 27.8008 16.8255 27.8008 15.9831V14.6672C27.8008 14.0119 28.3137 13.5596 29.1833 13.5596H32.273C33.9277 13.5596 33.9636 15.2019 33.9636 16.4328V38.8023C33.9636 39.3594 33.8408 40.2431 32.5229 40.2431H31.6484C30.7886 40.2431 30.2493 39.9101 30.2493 38.8106Z" fill="white"/>
<path d="M46.0237 22.1777C41.5712 22.1777 38.2285 24.1478 38.2285 30.9334V32.4462C38.2285 38.5441 41.3609 40.4846 45.5744 40.4846H47.5448C50.5697 40.4846 52.475 39.7699 52.475 38.8687V37.801C52.475 37.1946 52.0861 36.721 51.4527 36.721C50.5782 36.721 49.6362 37.1786 47.1779 37.1786C43.5055 37.1786 42.0169 36.744 42.0169 32.6235H50.8179C51.9363 32.6235 53.2252 32.1792 53.2252 30.4469V29.639C53.2252 24.7742 50.7746 22.1777 46.0237 22.1777ZM46.0814 25.0262C48.9128 25.0262 49.8285 27.0586 49.8285 29.5895H42.0911C42.0911 27.1589 43.0386 25.0262 46.0814 25.0262Z" fill="white"/>
</svg>
