<svg width="120" height="22" viewBox="0 0 120 22" fill="none" xmlns="http://www.w3.org/2000/svg">
<g clip-path="url(#clip0)">
<path d="M108.72 4.12831H105.661V19.5532H102.652V4.12831H99.5928V1.76465H108.72V4.12831ZM109.389 1.76465H112.603L113.606 9.75728C113.888 12.0479 114.146 14.0216 114.454 16.7265H114.583C114.865 14.0216 115.148 12.0966 115.431 9.75728L116.46 1.76465H119.648L116.562 19.5288H112.5L109.389 1.76465Z" fill="black"/>
<path d="M31.3284 3.54368C30.9685 2.25218 29.9143 1.27745 28.5773 0.911939C26.1347 0.302742 16.3643 0.302734 16.3643 0.302734C16.3643 0.302734 6.59387 0.302742 4.15127 0.911939C2.81426 1.25308 1.76008 2.25218 1.40012 3.54368C0.757333 5.85862 0.757324 10.6591 0.757324 10.6591C0.757324 10.6591 0.757333 15.4839 1.40012 17.7745C1.78579 19.066 2.81426 20.065 4.17698 20.4062C6.59387 21.0154 16.3643 21.0154 16.3643 21.0154C16.3643 21.0154 26.1347 21.0154 28.5773 20.4062C29.9143 20.065 30.9685 19.066 31.3542 17.7988C31.9969 15.4839 31.9969 10.6834 31.9969 10.6834C31.9969 10.6834 31.9713 5.85862 31.3284 3.54368Z" fill="#FF0000"/>
<path d="M13.2534 15.0945L21.3783 10.6596L13.2534 6.22461V15.0945Z" fill="white"/>
<path d="M46.0871 19.1633C45.4186 18.7246 44.9558 18.0667 44.7758 17.3113C44.493 16.2147 44.3644 15.1182 44.3901 13.9973V12.121C44.3644 10.9757 44.5187 9.85476 44.8529 8.75821C45.0843 8.0028 45.5729 7.34487 46.2414 6.90625C46.987 6.492 47.8612 6.29705 48.7354 6.32142C49.7381 6.32142 50.5609 6.51636 51.178 6.90625C51.8208 7.36924 52.3093 8.0028 52.515 8.75821C52.8235 9.85476 52.9778 10.9757 52.9264 12.121V13.9973C52.9521 15.1182 52.8235 16.2391 52.515 17.3357C52.3093 18.0911 51.8465 18.7246 51.178 19.1876C50.5609 19.5775 49.7124 19.7725 48.6582 19.7725C47.5784 19.7481 46.7042 19.5531 46.0871 19.1633ZM49.5582 17.1164C49.7381 16.7021 49.8153 15.9954 49.8153 15.0451V11.0244C49.841 10.3421 49.7639 9.63545 49.5582 8.97752C49.4553 8.58763 49.0696 8.31958 48.6582 8.31958C48.2469 8.31958 47.8869 8.58763 47.7841 8.97752C47.5784 9.63545 47.5012 10.3421 47.5269 11.0244V15.0695C47.5269 16.0198 47.6041 16.7265 47.7841 17.1407C47.8869 17.5306 48.2469 17.7987 48.684 17.7743C49.0954 17.7743 49.4553 17.5062 49.5582 17.1164ZM93.5507 14.0217V14.6796C93.5507 15.3132 93.5765 15.9223 93.6279 16.5559C93.6536 16.8727 93.7565 17.1895 93.9622 17.4575C94.1678 17.6524 94.4507 17.7743 94.7335 17.7499C95.1192 17.7742 95.5049 17.5794 95.6848 17.2382C95.8648 16.897 95.9419 16.3366 95.9677 15.5325L98.616 15.703C98.6417 15.8492 98.6417 16.0198 98.6417 16.166C98.6417 17.36 98.3075 18.2616 97.6132 18.8465C96.919 19.4313 95.942 19.7237 94.6821 19.7237C93.1651 19.7237 92.111 19.2607 91.4939 18.3591C90.8768 17.4575 90.5683 16.0686 90.5683 14.1679V11.9016C90.5683 9.95222 90.8768 8.53888 91.5196 7.63727C92.1624 6.73566 93.2423 6.29705 94.7593 6.29705C95.8134 6.29705 96.6362 6.492 97.2019 6.85752C97.7932 7.27177 98.2303 7.88097 98.4103 8.56326C98.6674 9.61108 98.796 10.7076 98.7446 11.7798V13.9973L93.5507 14.0217ZM93.9364 8.56326C93.7564 8.83132 93.6279 9.14807 93.6279 9.46486C93.5765 10.0984 93.5507 10.732 93.5507 11.3655V12.2915H95.8134V11.3655C95.8134 10.732 95.7876 10.0984 95.7105 9.46486C95.6847 9.14807 95.5819 8.83132 95.3763 8.56326C95.1963 8.36833 94.9135 8.27084 94.6563 8.29521C94.3735 8.27081 94.1164 8.36834 93.9364 8.56326H93.9364ZM38.5793 13.778L35.0825 1.76465H38.1422L39.3764 7.19867C39.6849 8.5389 39.9163 9.68419 40.0706 10.6345H40.1734C40.2763 9.95223 40.5077 8.83132 40.8676 7.22304L42.1532 1.76465H45.2129L41.6647 13.778V19.5531H38.605V13.778H38.5793ZM62.8768 6.5651V19.5531H60.4599L60.2028 17.9692H60.1256C59.4828 19.1633 58.4801 19.7725 57.1688 19.7725C56.2689 19.7725 55.6004 19.48 55.1633 18.9196C54.7262 18.3591 54.5205 17.4819 54.5205 16.2635V6.5651H57.6059V16.0929C57.5801 16.5072 57.6573 16.9458 57.8116 17.3357C57.9401 17.5794 58.1972 17.7256 58.4801 17.7012C58.7629 17.7012 59.02 17.6037 59.2514 17.4575C59.4828 17.3113 59.6885 17.1164 59.7914 16.8727V6.5651H62.8768ZM78.6894 6.5651V19.5531H76.2725L76.0154 17.9692H75.9383C75.2955 19.1633 74.2927 19.7725 72.9814 19.7725C72.0815 19.7725 71.413 19.48 70.9759 18.9196C70.5388 18.3591 70.3331 17.4819 70.3331 16.2635V6.5651H73.4185V16.0929C73.3928 16.5072 73.4699 16.9458 73.6242 17.3357C73.7528 17.5794 74.0099 17.7256 74.2927 17.7012C74.5755 17.7012 74.8327 17.6037 75.0641 17.4575C75.2955 17.3113 75.5012 17.1164 75.604 16.8727V6.5651H78.6894Z" fill="black"/>
<path d="M71.2585 4.12902H68.1988V19.5539H65.1905V4.12902H62.1309V1.76536H71.2585V4.12902ZM88.8966 8.63708C88.7167 7.83294 88.4081 7.22375 87.9967 6.85823C87.5166 6.47396 86.902 6.274 86.2741 6.29776C85.7084 6.29776 85.1684 6.44397 84.6799 6.76076C84.1914 7.05317 83.8057 7.46741 83.5486 7.95477H83.5229V1.10742H80.566V19.5539H83.1115L83.42 18.3355H83.4972C83.7286 18.7741 84.1143 19.1396 84.5771 19.3833C85.0656 19.627 85.6055 19.7732 86.1712 19.7732C87.1482 19.7976 88.0738 19.2614 88.4852 18.4086C88.9738 17.5069 89.2309 16.0693 89.2309 14.1442V12.0973C89.2052 10.9033 89.1023 9.758 88.8966 8.63708H88.8966ZM86.0684 13.9249C86.0684 14.6559 86.0426 15.4113 85.9398 16.1424C85.914 16.5566 85.7598 16.9465 85.5284 17.2876C85.3484 17.507 85.0656 17.6288 84.7571 17.6288C84.5 17.6288 84.2685 17.5801 84.0629 17.4582C83.8572 17.3364 83.6772 17.1658 83.5486 16.9465V9.58741C83.6515 9.24627 83.8314 8.95387 84.0886 8.71019C84.2943 8.49088 84.6028 8.36903 84.9113 8.36903C85.1942 8.36903 85.477 8.49088 85.6313 8.71019C85.837 9.07571 85.9655 9.46558 85.9912 9.87983C86.0684 10.6596 86.0941 11.4394 86.0941 12.2191L86.0684 13.9249Z" fill="black"/>
</g>
<defs>
<clipPath id="clip0">
<rect width="119.405" height="21.2" fill="white" transform="translate(0.5 0.0595703)"/>
</clipPath>
</defs>
</svg>
