<svg width="132" height="28" viewBox="0 0 132 28" fill="none" xmlns="http://www.w3.org/2000/svg">
<path d="M22.2869 6.09534L13.7748 14.5996V22.1842L8.89726 24.9605V14.596L0.337017 6.0918H6.14372L11.3316 11.2758L16.5194 6.09534H22.2869Z" fill="black"/>
<path d="M40.3223 18.5228L36.6449 22.1832H28.263L24.591 18.5281V3.31445L29.4775 6.1173V18.583H35.4412V6.09604H40.3258L40.3223 18.5228Z" fill="black"/>
<path d="M61.6123 11.0583L57.3304 16.811H48.1317V22.1828L43.2506 24.9608V6.0957H57.9403L61.6123 11.0583ZM56.5992 11.3736L55.3205 9.69404H48.1317V13.1577H55.2991L56.5992 11.3736Z" fill="black"/>
<path d="M81.9465 11.0583L77.6663 16.811H67.9148V22.1828L63.0301 24.9608V6.0957H78.2709L81.9465 11.0583ZM76.9334 11.3736L75.6547 9.69404H67.9148V13.1577H75.6404L76.9334 11.3736Z" fill="black"/>
<path d="M101.598 6.0957L98.0023 9.69404H93.1978V22.1828L88.3131 24.9608V9.69404H83.5105L79.9134 6.0957H101.598Z" fill="#F37121"/>
<path d="M125.174 6.0957L116.391 22.1828H111.834L103.051 6.0957H108.016L114.097 17.1193L120.18 6.0957H125.174Z" fill="#F37121"/>
<path d="M90.6244 2.54153H127.769V27.6644L131.567 21.1303L131.66 2.54153C131.66 2.54153 131.846 0.511153 129.251 0.333984H94.7922L90.6244 2.54153Z" fill="#3DA648"/>
</svg>
