<svg width="130" height="36" viewBox="0 0 130 36" fill="none" xmlns="http://www.w3.org/2000/svg">
<path d="M77.3296 18.2169H75.15V31.2982H69.2079V18.2169H63.3438V13.1743H79.8224C78.6798 14.6779 77.8339 16.3899 77.3307 18.2169H77.3296Z" fill="black"/>
<path d="M61.5985 18.2171H55.7345V31.2983H49.7924V18.2171H43.9272V13.1777H61.5985V18.2171Z" fill="black"/>
<path fill-rule="evenodd" clip-rule="evenodd" d="M46.2528 31.2983H39.9392L38.3965 28.2201H28.7733L27.3194 31.2983H20.9819L30.1025 13.1777H36.9914L46.2518 31.2983H46.2528ZM33.541 18.3793L30.967 23.7596H36.1887L33.541 18.3793Z" fill="black"/>
<path d="M19.3428 31.2983H3.23802C2.68928 31.2816 2.15861 31.096 1.7168 30.7662C1.27499 30.4365 0.943034 29.9783 0.765197 29.4527C0.58736 28.9271 0.572097 28.3592 0.721445 27.8246C0.870793 27.29 1.17765 26.8142 1.6011 26.4607L1.72568 26.3642L12.4214 18.0724H2.3096V13.1777H19.2183C19.7847 13.1812 20.3356 13.365 20.7931 13.7029C21.2505 14.0409 21.5913 14.516 21.7671 15.0608C21.9429 15.6057 21.9448 16.1927 21.7726 16.7387C21.6004 17.2847 21.2627 17.762 20.8075 18.1031L10.1194 26.4037H19.3418V31.2983H19.3428Z" fill="black"/>
<path fill-rule="evenodd" clip-rule="evenodd" d="M112.356 25.0839C112.485 25.9488 113.316 26.6559 114.399 26.7655C116.683 26.9307 118.975 26.9307 121.259 26.7655C122.342 26.6559 123.176 25.9466 123.304 25.0795C123.5 23.1893 123.5 21.2835 123.304 19.3934C123.174 18.5285 122.344 17.8214 121.259 17.7118C118.975 17.5469 116.683 17.5469 114.399 17.7118C113.316 17.8214 112.481 18.5307 112.356 19.3978C112.157 21.2878 112.157 23.1938 112.356 25.0839ZM112.221 13.0452C115.962 12.8121 119.713 12.8157 123.453 13.0561C126.444 13.3324 128.815 15.2354 129.159 17.6931C129.454 20.7128 129.454 23.7546 129.159 26.7743C128.814 29.232 126.444 31.135 123.453 31.4113C119.713 31.6517 115.962 31.6553 112.221 31.4222C110.349 31.2534 108.717 30.4499 107.671 29.2693C108.878 27.0702 109.512 24.5966 109.513 22.0813C109.515 19.6438 108.908 17.2453 107.747 15.1093C108.796 13.9769 110.394 13.2096 112.217 13.0452H112.221Z" fill="black"/>
<path fill-rule="evenodd" clip-rule="evenodd" d="M87.8032 28.6267C87.6158 28.5751 86.7372 28.3438 86.3299 27.0799C85.9518 25.612 85.9085 21.9397 86.2097 20.1649C86.3278 19.4688 86.7329 19.1498 87.2085 18.9393C89.3968 18.093 95.093 16.9365 99.5758 17.329C100.292 17.4145 100.863 17.6644 100.996 18.5008H105.871C104.234 13.4154 99.1728 9.7124 93.182 9.7124C85.863 9.7124 79.9307 15.2407 79.9307 22.0614C79.9307 27.0974 83.1655 31.4286 87.8043 33.3525L87.8032 28.6267Z" fill="#FFDBBB"/>
<path fill-rule="evenodd" clip-rule="evenodd" d="M94.718 8.4059L100.18 1.34512C100.263 1.23947 100.301 1.10495 100.286 0.971002C100.271 0.837051 100.204 0.714577 100.1 0.630382L99.658 0.27959C99.6059 0.238259 99.5463 0.207713 99.4826 0.189696C99.4189 0.17168 99.3522 0.166546 99.2865 0.174588C99.2209 0.182631 99.1574 0.203691 99.0997 0.236567C99.0421 0.269443 98.9914 0.31349 98.9506 0.366192L92.7799 8.33136C92.2108 8.34304 91.6426 8.38549 91.078 8.45852L86.7338 2.98946C86.6503 2.88418 86.5289 2.81674 86.3962 2.80195C86.2636 2.78715 86.1306 2.8262 86.0264 2.91053L85.5931 3.26461C85.5412 3.30649 85.4981 3.35832 85.4661 3.41711C85.4341 3.47591 85.4139 3.54051 85.4067 3.60723C85.3994 3.67394 85.4053 3.74145 85.4239 3.80587C85.4425 3.87029 85.4735 3.93036 85.5151 3.98264L89.3306 8.78629C83.0353 10.3506 78.3965 15.7057 78.3965 22.0747C78.3965 29.6694 84.9918 35.8258 93.1298 35.8258C101.268 35.8258 107.863 29.6694 107.863 22.0747C107.856 14.9843 102.104 9.14914 94.718 8.4059ZM100.642 26.8378C100.268 28.6038 99.5269 29.2495 97.6798 29.3975C94.6162 29.6398 90.2655 29.1848 87.7478 28.6586C86.7728 28.4602 86.2203 28.3133 85.449 28.0831C84.4187 27.7751 83.5997 27.1601 83.2639 25.6714C82.8815 23.7607 82.7612 20.6156 83.1144 18.1075C83.3246 17.0014 83.9811 16.1178 85.0449 15.7594C87.4012 14.8824 93.4537 13.6908 98.1446 14.0986C98.7735 14.1605 99.3648 14.4302 99.8271 14.8661C100.289 15.302 100.597 15.8798 100.702 16.5103C100.811 17.1154 100.889 17.7907 100.949 18.5065C101.176 21.2668 101.102 24.4382 100.642 26.8378Z" fill="#F96522"/>
</svg>
