<svg width="70" height="70" viewBox="0 0 70 70" fill="none" xmlns="http://www.w3.org/2000/svg">
<path fill-rule="evenodd" clip-rule="evenodd" d="M34.7363 2.29236V2.56107e-08C15.5519 -0.000726325 0 15.4487 0 34.506C0 53.5633 15.5519 69.012 34.7363 69.012V66.7196C22.2823 66.7087 10.4108 59.5288 5.07283 47.4772C-2.13765 31.1968 5.30163 12.1911 21.691 5.0278C25.8037 3.2243 30.2455 2.2929 34.7363 2.29236Z" fill="#22BBBE"/>
<path fill-rule="evenodd" clip-rule="evenodd" d="M22.6127 7.13549L21.6816 5.03125C5.29147 12.1945 -2.14781 31.1995 5.0634 47.4799C12.2746 63.7603 31.4067 71.1516 47.796 63.9877L46.8634 61.8841C38.3884 65.5798 28.3168 65.3583 19.6863 60.4082C5.28711 52.1503 0.353741 33.8608 8.66755 19.5568C11.8708 14.0336 16.7579 9.68077 22.6135 7.13549" fill="#7DAD41"/>
<path fill-rule="evenodd" clip-rule="evenodd" d="M48.6373 10.5887L49.7885 8.60726C35.3894 0.348657 16.9778 5.2508 8.66404 19.5534C0.350957 33.8567 5.28505 52.1469 19.6835 60.4048L20.8384 58.4182C18.531 57.0897 16.4267 55.436 14.5903 53.5081C4.02556 42.4494 4.4868 24.977 15.6188 14.482C24.7592 5.86529 38.2526 4.6334 48.6373 10.5895" fill="#F4B719"/>
<path fill-rule="evenodd" clip-rule="evenodd" d="M17.2004 16.1475L15.6133 14.4863C4.48051 24.9814 4.01492 42.4479 14.5797 53.5066C25.1444 64.566 42.733 65.0229 53.8651 54.5286L52.2729 52.8616C46.3372 58.4472 37.8062 61.0999 29.2236 59.2092C15.4883 56.1847 6.82299 42.6716 9.86785 29.0279C10.9626 24.0953 13.5177 19.6068 17.2004 16.1475Z" fill="#E55824"/>
<path fill-rule="evenodd" clip-rule="evenodd" d="M39.749 12.0478L40.2502 9.80047C26.5149 6.77594 12.9126 15.3839 9.86699 29.0284C6.82213 42.6722 15.4889 56.1852 29.2235 59.2097L29.7247 56.9653L29.7211 56.9646C17.2329 54.2132 9.35492 41.9291 12.123 29.526C14.8912 17.1228 27.258 9.29711 39.744 12.0463L39.749 12.0478Z" fill="#B52C80"/>
<path fill-rule="evenodd" clip-rule="evenodd" d="M51.7468 38.0082H57.6107C57.7356 37.1969 57.8169 36.3717 57.8547 35.535L51.7461 35.5648V38.0082H51.7468ZM51.7468 30.9277V33.2884L57.8438 33.2579C57.8018 32.4775 57.7201 31.6998 57.599 30.9277H51.7468Z" fill="#020303"/>
<path fill-rule="evenodd" clip-rule="evenodd" d="M49.1872 40.285V28.6518H57.1204C54.5128 18.7822 45.4734 11.502 34.7198 11.502C21.9302 11.502 11.5615 21.8016 11.5615 34.5055C11.5615 47.2101 21.9302 57.5097 34.719 57.5097C45.4995 57.5097 54.5586 50.1925 57.1393 40.285H49.1857H49.1872ZM60.8735 38.6951L62.1409 37.2206C63.0743 38.0813 64.0585 38.6115 65.1415 38.6115C66.5419 38.6115 67.4585 37.8169 67.4585 36.6075V36.5748C67.4585 35.3989 66.4584 34.6536 65.0412 34.6536C64.2074 34.6536 63.4912 34.8861 62.8913 35.1672L61.6565 34.3551L61.9906 28.6751H68.9592V30.48H63.7578L63.574 33.1966C64.1246 32.9976 64.6418 32.8646 65.4248 32.8646C67.6917 32.8646 69.4756 34.0573 69.4756 36.508V36.5414C69.4756 38.9093 67.7418 40.4666 65.1582 40.4666C63.3743 40.4666 61.9739 39.7548 60.8727 38.6943" fill="#020303"/>
<path fill-rule="evenodd" clip-rule="evenodd" d="M46.0853 30.9275H39.7276V33.2881H46.0853V35.5645H39.7276V38.008H46.0853V40.2843H37.1672V28.6511H46.0846L46.0853 30.9275ZM34.4746 30.5956L28.0326 38.0406H34.4746V40.2851H24.7197V38.3399L31.161 30.8948H24.9217V28.6511H34.4746V30.5956ZM57.8449 33.2576H57.76L51.7458 33.2874V30.9275H57.6009C57.4801 30.1608 57.3201 29.4007 57.1215 28.6504H49.1876V40.2843H57.1418C57.3365 39.5398 57.4934 38.7808 57.6125 38.008H51.7472V35.5645L57.7738 35.5355L57.8551 35.5347H57.8558C57.8897 34.7762 57.8863 34.0165 57.8457 33.2584" fill="white"/>
</svg>
