<svg width="133" height="48" viewBox="0 0 133 48" fill="none" xmlns="http://www.w3.org/2000/svg">
<path d="M46.213 11.3135C43.4186 11.3173 40.8814 13.6578 40.8814 16.1683V36.229C43.6757 36.2214 46.213 33.8847 46.213 31.3742V11.3135ZM119.407 31.4875C117.595 31.4837 116.049 30.8759 114.684 29.6339C113.375 28.3806 112.759 26.9574 112.744 25.1265C112.718 24.3752 112.718 22.7142 112.748 21.9328C112.763 20.1434 113.383 18.7391 114.695 17.5046C116.015 16.24 117.558 15.6246 119.407 15.6246C121.256 15.6246 122.795 16.24 124.122 17.5122C125.43 18.7391 126.046 20.1434 126.065 21.9479C126.092 22.6802 126.103 24.3337 126.065 25.1454C126.05 26.9574 125.434 28.3806 124.141 29.6226C122.764 30.8759 121.214 31.4837 119.407 31.4875ZM131.484 21.9215C131.476 18.7504 130.281 16.0059 127.937 13.7635C125.566 11.4947 122.696 10.3471 119.407 10.3471H119.403C116.117 10.3471 113.247 11.4947 110.876 13.7635C108.532 16.0059 107.337 18.7504 107.329 21.8988C107.314 22.3896 107.314 24.4998 107.329 25.1567C107.348 28.3579 108.543 31.1137 110.876 33.3486L110.906 33.375C113.285 35.406 116.143 36.4366 119.403 36.4366H119.407C122.662 36.4366 125.525 35.406 127.903 33.3788L127.937 33.3486C130.27 31.1137 131.461 28.3579 131.484 25.168C131.499 24.4998 131.499 22.3896 131.484 21.9215ZM99.8273 24.5716C98.0425 25.285 97.5132 26.6856 97.2636 27.3538C96.946 28.1918 96.4355 28.9355 95.7208 29.6226C94.3445 30.8759 92.7979 31.4837 90.9867 31.4875C89.1793 31.4837 87.629 30.8759 86.2639 29.6339C84.9556 28.3806 84.3393 26.9574 84.3242 25.1265C84.2977 24.3752 84.2977 22.7142 84.3279 21.9328C84.3468 20.1434 84.9632 18.7391 86.2753 17.5046C87.5949 16.24 89.1377 15.6246 90.9867 15.6246C92.8358 15.6246 94.4163 16.1682 96.0839 17.8972C96.53 18.3616 97.2296 18.6673 97.9631 18.6673C98.7042 18.6673 99.3773 18.3653 99.8613 17.8821C100.349 17.3989 100.648 16.727 100.648 15.987C100.648 15.3491 100.429 14.7601 100.05 14.3034C98.5644 12.5064 95.3578 10.3471 90.9867 10.3471C87.697 10.3471 84.8271 11.4947 82.4562 13.7635C80.1119 16.0059 78.917 18.7504 78.9094 21.8988C78.8943 22.3896 78.8943 24.4998 78.9094 25.1567C78.9321 28.3579 80.1232 31.1137 82.4562 33.3486L82.4903 33.375C84.8687 35.406 87.7273 36.4366 90.9867 36.4366C93.4937 36.4366 95.7473 35.8364 97.7476 34.6283C97.7476 36.161 96.8098 41.3064 91.0397 41.3064C89.3948 41.3064 88.2415 40.6798 87.8596 40.4495C85.5758 39.0867 83.2465 40.1022 81.5714 41.7745C81.5714 41.7745 84.7817 46.584 91.017 46.584C94.1932 46.584 97.0859 45.6402 99.3811 43.3525C101.93 40.8119 103.053 37.622 103.053 33.9526V24.0393C103.053 24.0393 101.328 23.9751 99.8273 24.5716ZM74.6328 24.0393V33.9526C74.6328 37.622 73.5098 40.8119 70.9612 43.3525C68.6698 45.6402 65.7734 46.584 62.5971 46.584C56.3618 46.584 53.1515 41.7745 53.1515 41.7745C54.8266 40.1022 57.1597 39.0867 59.4398 40.4495C59.8255 40.6798 60.975 41.3064 62.6198 41.3064C68.39 41.3064 69.3277 36.161 69.3277 34.6283C67.3312 35.8364 65.0738 36.4366 62.5669 36.4366C59.3074 36.4366 56.4488 35.406 54.0704 33.375L54.0401 33.3486C51.7033 31.1137 50.5122 28.3579 50.4895 25.1567C50.4744 24.4998 50.4744 22.3896 50.4895 21.8988C50.4971 18.7504 51.692 16.0059 54.0401 13.7635C56.4072 11.4947 59.2772 10.3471 62.5669 10.3471C66.938 10.3471 70.1445 12.5064 71.6305 14.3034C72.0086 14.7601 72.2279 15.3491 72.2279 15.987C72.2279 16.727 71.9292 17.3989 71.4414 17.8821C70.9574 18.3653 70.2882 18.6673 69.5433 18.6673C68.8135 18.6673 68.1102 18.3616 67.664 17.8972C66.0002 16.1682 64.4159 15.6246 62.5669 15.6246C60.7178 15.6246 59.1789 16.24 57.8592 17.5046C56.5433 18.7391 55.927 20.1434 55.9081 21.9328C55.8778 22.7142 55.8778 24.3752 55.9081 25.1265C55.9232 26.9574 56.5395 28.3806 57.8479 29.6339C59.2091 30.8759 60.7594 31.4837 62.5669 31.4875C64.3781 31.4837 65.9246 30.8759 67.301 29.6226C68.0194 28.9355 68.5261 28.1918 68.8437 27.3538C69.0933 26.6856 69.6227 25.285 71.4074 24.5716C72.9086 23.9751 74.6328 24.0393 74.6328 24.0393ZM36.0565 36.229C35.962 34.2886 34.6461 31.2987 31.3451 30.9061H19.5967L33.1298 17.969C33.7046 17.4216 34.9864 15.5793 34.0714 13.5899C33.3378 11.993 32.1089 11.3135 29.9649 11.3135H13.1006C13.1686 13.5484 14.2841 16.2136 17.2524 16.6892H26.887L12.6468 30.053C12.0683 30.6041 11.1192 32.3067 11.8679 34.0357C12.5447 35.5948 13.6867 36.229 15.8042 36.229H36.0565ZM43.2749 39.3963C43.7967 39.9172 44.0576 40.6005 44.0576 41.28C44.0576 42.0917 43.6946 42.7447 43.2787 43.1638C42.4846 43.9528 41.4032 44.7795 39.989 45.3609C38.8017 45.8554 37.501 46.1272 36.1359 46.1272H11.5049C8.72187 46.1272 6.20356 44.9985 4.37721 43.1789C2.55465 41.3593 1.42784 38.8451 1.42784 36.0666V11.4758C1.42784 8.69739 2.55465 6.18319 4.37721 4.36361C6.20356 2.54403 8.72187 1.41528 11.5049 1.41528H36.1359C37.501 1.41528 38.8017 1.68708 39.989 2.18162C41.6187 2.85358 42.6586 3.68409 43.6644 4.76754C44.0652 5.1979 44.4471 5.83589 44.4471 6.6513C44.4471 7.33081 44.1862 8.0141 43.6644 8.53129C43.1426 9.05225 42.462 9.31273 41.7813 9.31273C41.0969 9.31273 40.405 9.0447 39.8945 8.53129C39.1836 7.82158 38.7941 7.45916 37.9774 7.11186C37.4102 6.87403 36.7901 6.7419 36.1359 6.7419H11.5049C10.1966 6.7419 9.00924 7.27041 8.1509 8.13113C7.29256 8.98429 6.7594 10.1697 6.7594 11.4758V36.0666C6.7594 37.3728 7.29256 38.5582 8.1509 39.4151C9.00924 40.2721 10.1966 40.8006 11.5049 40.8006H36.1359C36.7901 40.8006 37.4102 40.6684 37.9774 40.4306C38.4879 40.2154 39.021 39.8795 39.505 39.3963C40.0193 38.8866 40.7075 38.6186 41.3919 38.6186C42.0725 38.6186 42.7569 38.8791 43.2749 39.3963Z" fill="#F48C00"/>
</svg>
