<svg width="70" height="73" fill="none" xmlns="http://www.w3.org/2000/svg"><g clip-path="url(#clip0)" stroke-width="3" stroke-miterlimit="10"><path d="M58.925 20.95l-.302-.302c-1.359-1.359-1.66-3.17-.755-3.925l3.622-3.472c1.359-1.207 3.472-1.207 4.68.302l.302.302c1.358 1.359 1.358 3.472 0 4.68l-3.623 3.471c-.755.755-2.566.302-3.924-1.056zM28.736 71.365s2.868-3.02 4.528-4.529c12.377.906 16.906-7.547 18.113-9.056m8.453-8.604l-.302-.15c-1.358-1.058-1.811-2.718-1.056-3.473l3.019-3.471c1.056-1.208 3.019-1.359 4.377-.302l.302.15c1.358 1.057 1.51 3.02.453 4.378l-3.02 3.472c-.754.755-2.414.604-3.773-.604zM30.245 60.799c3.321-9.359 0-17.812-2.868-21.585 1.208-3.774 1.812-6.34 2.114-10.868.301-2.566-.906-4.68-1.963-6.189-1.207-1.66-3.924-1.207-4.528.604-2.415 7.85-2.868 10.113-4.528 14.038-1.66 4.377-.755 10.717-1.51 12.528 0 .302-3.32 5.434-3.32 5.434m46.339-14.943l-.302-.151c-1.358-1.208-1.811-2.717-1.056-3.623l3.019-3.472c1.056-1.358 3.17-1.358 4.377-.302l.302.151c1.358 1.208 1.51 3.17.453 4.378l-3.02 3.471c-.754.906-2.565.604-3.773-.452zm0-9.358l-.302-.152c-1.358-1.207-1.811-2.717-1.056-3.622l3.019-3.472c1.056-1.358 3.17-1.358 4.377-.302l.302.151c1.358 1.208 1.51 3.17.453 4.377l-3.02 3.472c-.754.906-2.565.755-3.773-.453z" stroke="#766CF0"/><path d="M40.811 53.252h4.529" stroke="#B3ADF8"/><path d="M60.434 14.006V6.46c0-2.566-1.962-4.528-4.528-4.528h-25.66c-2.567 0-4.53 1.962-4.53 4.528v15.095m4.529 36.225h25.66c2.567 0 4.529-1.962 4.529-4.529v-3.018M30.245 71.365L10.623 51.742 3.075 59.29l12.076 12.076" stroke="#766CF0"/><path d="M10.623 59.29l1.509 1.509" stroke="#B3ADF8"/><path d="M31.755 48.723h27.17M25.717 9.478h34.717" stroke="#766CF0"/><path d="M34.5 16.421h5m-5 5h5m-5 5h5m-5 5h5m-5 5h5m-5 5h5m2-25h5m2 0h5m-12 5h5m2 0h5m-12 5h5m2 0h5m-12 5h5m2 0h5m-12 5h5m2 0h5m-12 5h5m2 0h5" stroke="#B3ADF8"/></g><defs><clipPath id="clip0"><path fill="#fff" d="M.962.421h68.076v72H.962z"/></clipPath></defs></svg>