<svg width="132" height="132" fill="none" xmlns="http://www.w3.org/2000/svg"><path d="M10 .33h112a9.67 9.67 0 019.67 9.67v112a9.67 9.67 0 01-9.67 9.67H10A9.67 9.67 0 01.33 122V10C.33 4.66 4.66.33 10 .33z" fill="#fff" stroke="#EBE8DF" stroke-width=".66"/><path d="M8.8 6.16H6.16V8.8H8.8V6.16zm2.64 0H8.8V8.8h2.64V6.16z" fill="#000"/><path d="M14.08 6.16h-2.64V8.8h2.64V6.16z" fill="#000"/><path d="M16.72 6.16h-2.64V8.8h2.64V6.16zm2.64 0h-2.64V8.8h2.64V6.16zm2.64 0h-2.64V8.8H22V6.16zm2.64 0H22V8.8h2.64V6.16zm7.92 0h-2.64V8.8h2.64V6.16zm2.64 0h-2.64V8.8h2.64V6.16zm5.28 0h-2.64V8.8h2.64V6.16zm10.56 0H48.4V8.8h2.64V6.16zm2.64 0h-2.64V8.8h2.64V6.16zm5.28 0h-2.64V8.8h2.64V6.16zm5.28 0H61.6V8.8h2.64V6.16zm2.64 0h-2.64V8.8h2.64V6.16zm18.48 0h-2.64V8.8h2.64V6.16zm2.64 0h-2.64V8.8H88V6.16zm2.64 0H88V8.8h2.64V6.16zm13.2 0h-2.64V8.8h2.64V6.16zm5.28 0h-2.64V8.8h2.64V6.16zm2.64 0h-2.64V8.8h2.64V6.16zm2.64 0h-2.64V8.8h2.64V6.16zm2.64 0h-2.64V8.8h2.64V6.16zm2.64 0h-2.64V8.8h2.64V6.16z" fill="#000"/><path d="M122.32 6.16h-2.64V8.8h2.64V6.16zm2.64 0h-2.64V8.8h2.64V6.16zM8.8 8.8H6.16v2.64H8.8V8.8zm15.84 0H22v2.64h2.64V8.8zm5.28 0h-2.64v2.64h2.64V8.8zm2.64 0h-2.64v2.64h2.64V8.8zm2.64 0h-2.64v2.64h2.64V8.8zm2.64 0H35.2v2.64h2.64V8.8z" fill="#000"/><path d="M40.48 8.8h-2.64v2.64h2.64V8.8zm2.64 0h-2.64v2.64h2.64V8.8zm2.64 0h-2.64v2.64h2.64V8.8zm2.64 0h-2.64v2.64h2.64V8.8zm2.64 0H48.4v2.64h2.64V8.8zm2.64 0h-2.64v2.64h2.64V8.8zm2.64 0h-2.64v2.64h2.64V8.8zm5.28 0h-2.64v2.64h2.64V8.8zm7.92 0h-2.64v2.64h2.64V8.8zm2.64 0h-2.64v2.64h2.64V8.8zm5.28 0H74.8v2.64h2.64V8.8zM88 8.8h-2.64v2.64H88V8.8zm2.64 0H88v2.64h2.64V8.8zm2.64 0h-2.64v2.64h2.64V8.8zm7.92 0h-2.64v2.64h2.64V8.8zm7.92 0h-2.64v2.64h2.64V8.8zm15.84 0h-2.64v2.64h2.64V8.8zM8.8 11.44H6.16v2.64H8.8v-2.64zm5.28 0h-2.64v2.64h2.64v-2.64z" fill="#000"/><path d="M16.72 11.44h-2.64v2.64h2.64v-2.64zm2.64 0h-2.64v2.64h2.64v-2.64zm5.28 0H22v2.64h2.64v-2.64zm10.56 0h-2.64v2.64h2.64v-2.64zm2.64 0H35.2v2.64h2.64v-2.64z" fill="#000"/><path d="M40.48 11.44h-2.64v2.64h2.64v-2.64zm5.28 0h-2.64v2.64h2.64v-2.64zm5.28 0H48.4v2.64h2.64v-2.64zm5.28 0h-2.64v2.64h2.64v-2.64zm2.64 0h-2.64v2.64h2.64v-2.64zm10.56 0h-2.64v2.64h2.64v-2.64zm2.64 0h-2.64v2.64h2.64v-2.64zm5.28 0H74.8v2.64h2.64v-2.64zm5.28 0h-2.64v2.64h2.64v-2.64zm5.28 0h-2.64v2.64H88v-2.64zm2.64 0H88v2.64h2.64v-2.64zm2.64 0h-2.64v2.64h2.64v-2.64zm2.64 0h-2.64v2.64h2.64v-2.64zm5.28 0h-2.64v2.64h2.64v-2.64zm7.92 0h-2.64v2.64h2.64v-2.64zm5.28 0h-2.64v2.64h2.64v-2.64zm2.64 0h-2.64v2.64h2.64v-2.64zm2.64 0h-2.64v2.64h2.64v-2.64zm5.28 0h-2.64v2.64h2.64v-2.64zM8.8 14.08H6.16v2.64H8.8v-2.64zm5.28 0h-2.64v2.64h2.64v-2.64z" fill="#000"/><path d="M16.72 14.08h-2.64v2.64h2.64v-2.64zm2.64 0h-2.64v2.64h2.64v-2.64zm5.28 0H22v2.64h2.64v-2.64zm5.28 0h-2.64v2.64h2.64v-2.64zm7.92 0H35.2v2.64h2.64v-2.64z" fill="#000"/><path d="M40.48 14.08h-2.64v2.64h2.64v-2.64zm2.64 0h-2.64v2.64h2.64v-2.64zm5.28 0h-2.64v2.64h2.64v-2.64zm5.28 0h-2.64v2.64h2.64v-2.64zm2.64 0h-2.64v2.64h2.64v-2.64zm5.28 0h-2.64v2.64h2.64v-2.64zm2.64 0H61.6v2.64h2.64v-2.64zm2.64 0h-2.64v2.64h2.64v-2.64zm2.64 0h-2.64v2.64h2.64v-2.64zm2.64 0h-2.64v2.64h2.64v-2.64zm7.92 0h-2.64v2.64h2.64v-2.64zm5.28 0h-2.64v2.64h2.64v-2.64zm2.64 0h-2.64v2.64H88v-2.64zm2.64 0H88v2.64h2.64v-2.64zm10.56 0h-2.64v2.64h2.64v-2.64zm2.64 0h-2.64v2.64h2.64v-2.64zm5.28 0h-2.64v2.64h2.64v-2.64zm5.28 0h-2.64v2.64h2.64v-2.64zm2.64 0h-2.64v2.64h2.64v-2.64zm2.64 0h-2.64v2.64h2.64v-2.64zm5.28 0h-2.64v2.64h2.64v-2.64zM8.8 16.72H6.16v2.64H8.8v-2.64zm5.28 0h-2.64v2.64h2.64v-2.64z" fill="#000"/><path d="M16.72 16.72h-2.64v2.64h2.64v-2.64zm2.64 0h-2.64v2.64h2.64v-2.64zm5.28 0H22v2.64h2.64v-2.64zm10.56 0h-2.64v2.64h2.64v-2.64zm5.28 0h-2.64v2.64h2.64v-2.64zm2.64 0h-2.64v2.64h2.64v-2.64zm10.56 0h-2.64v2.64h2.64v-2.64zm5.28 0h-2.64v2.64h2.64v-2.64zm2.64 0h-2.64v2.64h2.64v-2.64zm2.64 0H61.6v2.64h2.64v-2.64zm2.64 0h-2.64v2.64h2.64v-2.64zm2.64 0h-2.64v2.64h2.64v-2.64zm2.64 0h-2.64v2.64h2.64v-2.64zm7.92 0h-2.64v2.64h2.64v-2.64zm2.64 0h-2.64v2.64h2.64v-2.64zm2.64 0h-2.64v2.64h2.64v-2.64zm2.64 0h-2.64v2.64H88v-2.64zm5.28 0h-2.64v2.64h2.64v-2.64zm5.28 0h-2.64v2.64h2.64v-2.64zm2.64 0h-2.64v2.64h2.64v-2.64zm2.64 0h-2.64v2.64h2.64v-2.64zm5.28 0h-2.64v2.64h2.64v-2.64zm5.28 0h-2.64v2.64h2.64v-2.64zm2.64 0h-2.64v2.64h2.64v-2.64zm2.64 0h-2.64v2.64h2.64v-2.64zm5.28 0h-2.64v2.64h2.64v-2.64zM8.8 19.36H6.16V22H8.8v-2.64zm15.84 0H22V22h2.64v-2.64zm5.28 0h-2.64V22h2.64v-2.64zm5.28 0h-2.64V22h2.64v-2.64zm5.28 0h-2.64V22h2.64v-2.64zm10.56 0H48.4V22h2.64v-2.64zm5.28 0h-2.64V22h2.64v-2.64zm5.28 0h-2.64V22h2.64v-2.64zm10.56 0h-2.64V22h2.64v-2.64zm2.64 0h-2.64V22h2.64v-2.64zm2.64 0H74.8V22h2.64v-2.64zm2.64 0h-2.64V22h2.64v-2.64zm10.56 0H88V22h2.64v-2.64zm18.48 0h-2.64V22h2.64v-2.64zm15.84 0h-2.64V22h2.64v-2.64zM8.8 22H6.16v2.64H8.8V22zm2.64 0H8.8v2.64h2.64V22z" fill="#000"/><path d="M14.08 22h-2.64v2.64h2.64V22z" fill="#000"/><path d="M16.72 22h-2.64v2.64h2.64V22zm2.64 0h-2.64v2.64h2.64V22zM22 22h-2.64v2.64H22V22zm2.64 0H22v2.64h2.64V22zm5.28 0h-2.64v2.64h2.64V22zm5.28 0h-2.64v2.64h2.64V22zm5.28 0h-2.64v2.64h2.64V22zm5.28 0h-2.64v2.64h2.64V22zm5.28 0H48.4v2.64h2.64V22zm5.28 0h-2.64v2.64h2.64V22zm5.28 0h-2.64v2.64h2.64V22zm5.28 0h-2.64v2.64h2.64V22zm5.28 0h-2.64v2.64h2.64V22zm5.28 0H74.8v2.64h2.64V22zm5.28 0h-2.64v2.64h2.64V22zM88 22h-2.64v2.64H88V22zm5.28 0h-2.64v2.64h2.64V22zm5.28 0h-2.64v2.64h2.64V22zm5.28 0h-2.64v2.64h2.64V22zm5.28 0h-2.64v2.64h2.64V22zm2.64 0h-2.64v2.64h2.64V22zm2.64 0h-2.64v2.64h2.64V22zm2.64 0h-2.64v2.64h2.64V22zm2.64 0h-2.64v2.64h2.64V22z" fill="#000"/><path d="M122.32 22h-2.64v2.64h2.64V22zm2.64 0h-2.64v2.64h2.64V22zm-81.84 2.64h-2.64v2.64h2.64v-2.64zm10.56 0h-2.64v2.64h2.64v-2.64zm5.28 0h-2.64v2.64h2.64v-2.64zm2.64 0h-2.64v2.64h2.64v-2.64zm10.56 0h-2.64v2.64h2.64v-2.64zm2.64 0h-2.64v2.64h2.64v-2.64zm2.64 0H74.8v2.64h2.64v-2.64zm2.64 0h-2.64v2.64h2.64v-2.64zm2.64 0h-2.64v2.64h2.64v-2.64zm2.64 0h-2.64v2.64h2.64v-2.64zm2.64 0h-2.64v2.64H88v-2.64zm5.28 0h-2.64v2.64h2.64v-2.64zm5.28 0h-2.64v2.64h2.64v-2.64zm2.64 0h-2.64v2.64h2.64v-2.64zM8.8 27.28H6.16v2.64H8.8v-2.64zm2.64 0H8.8v2.64h2.64v-2.64z" fill="#000"/><path d="M14.08 27.28h-2.64v2.64h2.64v-2.64z" fill="#000"/><path d="M16.72 27.28h-2.64v2.64h2.64v-2.64zm2.64 0h-2.64v2.64h2.64v-2.64zm5.28 0H22v2.64h2.64v-2.64zm2.64 0h-2.64v2.64h2.64v-2.64zm2.64 0h-2.64v2.64h2.64v-2.64zm23.76 0h-2.64v2.64h2.64v-2.64zm2.64 0h-2.64v2.64h2.64v-2.64zm2.64 0h-2.64v2.64h2.64v-2.64zm2.64 0h-2.64v2.64h2.64v-2.64zm2.64 0H61.6v2.64h2.64v-2.64zm2.64 0h-2.64v2.64h2.64v-2.64zm2.64 0h-2.64v2.64h2.64v-2.64zm2.64 0h-2.64v2.64h2.64v-2.64zm2.64 0h-2.64v2.64h2.64v-2.64zm21.12 0h-2.64v2.64h2.64v-2.64zm2.64 0h-2.64v2.64h2.64v-2.64zm7.92 0h-2.64v2.64h2.64v-2.64zm5.28 0h-2.64v2.64h2.64v-2.64zm5.28 0h-2.64v2.64h2.64v-2.64zm5.28 0h-2.64v2.64h2.64v-2.64zM11.44 29.92H8.8v2.64h2.64v-2.64zm21.12 0h-2.64v2.64h2.64v-2.64zm2.64 0h-2.64v2.64h2.64v-2.64zm2.64 0H35.2v2.64h2.64v-2.64zm5.28 0h-2.64v2.64h2.64v-2.64zm5.28 0h-2.64v2.64h2.64v-2.64zm5.28 0h-2.64v2.64h2.64v-2.64zm5.28 0h-2.64v2.64h2.64v-2.64zm2.64 0h-2.64v2.64h2.64v-2.64zm13.2 0h-2.64v2.64h2.64v-2.64zm5.28 0h-2.64v2.64h2.64v-2.64zm2.64 0h-2.64v2.64h2.64v-2.64zm2.64 0h-2.64v2.64h2.64v-2.64zm2.64 0h-2.64v2.64H88v-2.64zm5.28 0h-2.64v2.64h2.64v-2.64zm10.56 0h-2.64v2.64h2.64v-2.64zm10.56 0h-2.64v2.64h2.64v-2.64zm5.28 0h-2.64v2.64h2.64v-2.64z" fill="#000"/><path d="M122.32 29.92h-2.64v2.64h2.64v-2.64zm2.64 0h-2.64v2.64h2.64v-2.64zM11.44 32.56H8.8v2.64h2.64v-2.64z" fill="#000"/><path d="M14.08 32.56h-2.64v2.64h2.64v-2.64z" fill="#000"/><path d="M16.72 32.56h-2.64v2.64h2.64v-2.64zm7.92 0H22v2.64h2.64v-2.64zm7.92 0h-2.64v2.64h2.64v-2.64zm2.64 0h-2.64v2.64h2.64v-2.64zm2.64 0H35.2v2.64h2.64v-2.64z" fill="#000"/><path d="M40.48 32.56h-2.64v2.64h2.64v-2.64zm5.28 0h-2.64v2.64h2.64v-2.64zm10.56 0h-2.64v2.64h2.64v-2.64zm5.28 0h-2.64v2.64h2.64v-2.64zm2.64 0H61.6v2.64h2.64v-2.64zm5.28 0h-2.64v2.64h2.64v-2.64zm2.64 0h-2.64v2.64h2.64v-2.64zm2.64 0h-2.64v2.64h2.64v-2.64zm5.28 0h-2.64v2.64h2.64v-2.64zm10.56 0H88v2.64h2.64v-2.64zm2.64 0h-2.64v2.64h2.64v-2.64zm2.64 0h-2.64v2.64h2.64v-2.64zm2.64 0h-2.64v2.64h2.64v-2.64zm10.56 0h-2.64v2.64h2.64v-2.64zm7.92 0h-2.64v2.64h2.64v-2.64zm2.64 0h-2.64v2.64h2.64v-2.64z" fill="#000"/><path d="M122.32 32.56h-2.64v2.64h2.64v-2.64zM14.08 35.2h-2.64v2.64h2.64V35.2z" fill="#000"/><path d="M16.72 35.2h-2.64v2.64h2.64V35.2zm2.64 0h-2.64v2.64h2.64V35.2zm2.64 0h-2.64v2.64H22V35.2zm5.28 0h-2.64v2.64h2.64V35.2zm2.64 0h-2.64v2.64h2.64V35.2zm5.28 0h-2.64v2.64h2.64V35.2zm2.64 0H35.2v2.64h2.64V35.2z" fill="#000"/><path d="M40.48 35.2h-2.64v2.64h2.64V35.2zm5.28 0h-2.64v2.64h2.64V35.2zm2.64 0h-2.64v2.64h2.64V35.2zm7.92 0h-2.64v2.64h2.64V35.2zm7.92 0H61.6v2.64h2.64V35.2zm10.56 0h-2.64v2.64h2.64V35.2zm7.92 0h-2.64v2.64h2.64V35.2zm10.56 0h-2.64v2.64h2.64V35.2zm2.64 0h-2.64v2.64h2.64V35.2zm5.28 0h-2.64v2.64h2.64V35.2zm5.28 0h-2.64v2.64h2.64V35.2zm2.64 0h-2.64v2.64h2.64V35.2zm5.28 0h-2.64v2.64h2.64V35.2zm5.28 0h-2.64v2.64h2.64V35.2zm-105.6 2.64h-2.64v2.64h2.64v-2.64z" fill="#000"/><path d="M16.72 37.84h-2.64v2.64h2.64v-2.64zm7.92 0H22v2.64h2.64v-2.64zm2.64 0h-2.64v2.64h2.64v-2.64zm7.92 0h-2.64v2.64h2.64v-2.64zm15.84 0H48.4v2.64h2.64v-2.64zm5.28 0h-2.64v2.64h2.64v-2.64zm2.64 0h-2.64v2.64h2.64v-2.64zm2.64 0h-2.64v2.64h2.64v-2.64zm2.64 0H61.6v2.64h2.64v-2.64zm2.64 0h-2.64v2.64h2.64v-2.64zm5.28 0h-2.64v2.64h2.64v-2.64zm2.64 0h-2.64v2.64h2.64v-2.64zm5.28 0h-2.64v2.64h2.64v-2.64zm5.28 0h-2.64v2.64h2.64v-2.64zm2.64 0h-2.64v2.64H88v-2.64zm7.92 0h-2.64v2.64h2.64v-2.64zm2.64 0h-2.64v2.64h2.64v-2.64zm7.92 0h-2.64v2.64h2.64v-2.64zm5.28 0h-2.64v2.64h2.64v-2.64zm5.28 0h-2.64v2.64h2.64v-2.64zm5.28 0h-2.64v2.64h2.64v-2.64zM8.8 40.48H6.16v2.64H8.8v-2.64z" fill="#000"/><path d="M16.72 40.48h-2.64v2.64h2.64v-2.64zm2.64 0h-2.64v2.64h2.64v-2.64zm7.92 0h-2.64v2.64h2.64v-2.64zm2.64 0h-2.64v2.64h2.64v-2.64zm5.28 0h-2.64v2.64h2.64v-2.64zm5.28 0h-2.64v2.64h2.64v-2.64zm5.28 0h-2.64v2.64h2.64v-2.64zm2.64 0h-2.64v2.64h2.64v-2.64zm18.48 0h-2.64v2.64h2.64v-2.64zm13.2 0h-2.64v2.64h2.64v-2.64zm5.28 0h-2.64v2.64h2.64v-2.64zm2.64 0h-2.64v2.64H88v-2.64zm5.28 0h-2.64v2.64h2.64v-2.64zm7.92 0h-2.64v2.64h2.64v-2.64zm2.64 0h-2.64v2.64h2.64v-2.64zm7.92 0h-2.64v2.64h2.64v-2.64zm7.92 0h-2.64v2.64h2.64v-2.64z" fill="#000"/><path d="M122.32 40.48h-2.64v2.64h2.64v-2.64zm2.64 0h-2.64v2.64h2.64v-2.64zM11.44 43.12H8.8v2.64h2.64v-2.64zm10.56 0h-2.64v2.64H22v-2.64zm2.64 0H22v2.64h2.64v-2.64zm2.64 0h-2.64v2.64h2.64v-2.64zm7.92 0h-2.64v2.64h2.64v-2.64zm2.64 0H35.2v2.64h2.64v-2.64z" fill="#000"/><path d="M40.48 43.12h-2.64v2.64h2.64v-2.64zm2.64 0h-2.64v2.64h2.64v-2.64zm2.64 0h-2.64v2.64h2.64v-2.64zm2.64 0h-2.64v2.64h2.64v-2.64zm2.64 0H48.4v2.64h2.64v-2.64zm5.28 0h-2.64v2.64h2.64v-2.64zm5.28 0h-2.64v2.64h2.64v-2.64zm2.64 0H61.6v2.64h2.64v-2.64zm5.28 0h-2.64v2.64h2.64v-2.64zm2.64 0h-2.64v2.64h2.64v-2.64zm2.64 0h-2.64v2.64h2.64v-2.64zm2.64 0H74.8v2.64h2.64v-2.64zm2.64 0h-2.64v2.64h2.64v-2.64zm2.64 0h-2.64v2.64h2.64v-2.64zm7.92 0H88v2.64h2.64v-2.64zm2.64 0h-2.64v2.64h2.64v-2.64zm2.64 0h-2.64v2.64h2.64v-2.64zm2.64 0h-2.64v2.64h2.64v-2.64zm2.64 0h-2.64v2.64h2.64v-2.64zm5.28 0h-2.64v2.64h2.64v-2.64zm2.64 0h-2.64v2.64h2.64v-2.64zm10.56 0h-2.64v2.64h2.64v-2.64zM8.8 45.76H6.16v2.64H8.8v-2.64zm2.64 0H8.8v2.64h2.64v-2.64zm5.28 0h-2.64v2.64h2.64v-2.64zm2.64 0h-2.64v2.64h2.64v-2.64zm7.92 0h-2.64v2.64h2.64v-2.64zm2.64 0h-2.64v2.64h2.64v-2.64zm10.56 0h-2.64v2.64h2.64v-2.64zm5.28 0h-2.64v2.64h2.64v-2.64zm2.64 0h-2.64v2.64h2.64v-2.64zm23.76 0h-2.64v2.64h2.64v-2.64zm2.64 0h-2.64v2.64h2.64v-2.64zm7.92 0h-2.64v2.64h2.64v-2.64zm5.28 0h-2.64v2.64H88v-2.64zm7.92 0h-2.64v2.64h2.64v-2.64zm5.28 0h-2.64v2.64h2.64v-2.64zm2.64 0h-2.64v2.64h2.64v-2.64zm2.64 0h-2.64v2.64h2.64v-2.64zm2.64 0h-2.64v2.64h2.64v-2.64zm5.28 0h-2.64v2.64h2.64v-2.64zm2.64 0h-2.64v2.64h2.64v-2.64zm2.64 0h-2.64v2.64h2.64v-2.64z" fill="#000"/><path d="M122.32 45.76h-2.64v2.64h2.64v-2.64zm2.64 0h-2.64v2.64h2.64v-2.64zM8.8 48.4H6.16v2.64H8.8V48.4zm2.64 0H8.8v2.64h2.64V48.4z" fill="#000"/><path d="M14.08 48.4h-2.64v2.64h2.64V48.4zm5.28 0h-2.64v2.64h2.64V48.4zm5.28 0H22v2.64h2.64V48.4zm2.64 0h-2.64v2.64h2.64V48.4zm5.28 0h-2.64v2.64h2.64V48.4zm7.92 0h-2.64v2.64h2.64V48.4zm2.64 0h-2.64v2.64h2.64V48.4zm2.64 0h-2.64v2.64h2.64V48.4zm2.64 0h-2.64v2.64h2.64V48.4zm7.92 0h-2.64v2.64h2.64V48.4zm2.64 0h-2.64v2.64h2.64V48.4zm5.28 0H61.6v2.64h2.64V48.4zm2.64 0h-2.64v2.64h2.64V48.4zm2.64 0h-2.64v2.64h2.64V48.4zm2.64 0h-2.64v2.64h2.64V48.4zm2.64 0h-2.64v2.64h2.64V48.4zm10.56 0h-2.64v2.64h2.64V48.4zm2.64 0h-2.64v2.64H88V48.4zm2.64 0H88v2.64h2.64V48.4zm7.92 0h-2.64v2.64h2.64V48.4zm10.56 0h-2.64v2.64h2.64V48.4zm7.92 0h-2.64v2.64h2.64V48.4zm5.28 0h-2.64v2.64h2.64V48.4zm2.64 0h-2.64v2.64h2.64V48.4zM8.8 51.04H6.16v2.64H8.8v-2.64zm2.64 0H8.8v2.64h2.64v-2.64zm5.28 0h-2.64v2.64h2.64v-2.64zm2.64 0h-2.64v2.64h2.64v-2.64zm15.84 0h-2.64v2.64h2.64v-2.64zm15.84 0H48.4v2.64h2.64v-2.64zm2.64 0h-2.64v2.64h2.64v-2.64zm7.92 0h-2.64v2.64h2.64v-2.64zm5.28 0h-2.64v2.64h2.64v-2.64zm7.92 0h-2.64v2.64h2.64v-2.64zm10.56 0h-2.64v2.64h2.64v-2.64zm2.64 0h-2.64v2.64H88v-2.64zm13.2 0h-2.64v2.64h2.64v-2.64zm2.64 0h-2.64v2.64h2.64v-2.64zm2.64 0h-2.64v2.64h2.64v-2.64zm7.92 0h-2.64v2.64h2.64v-2.64zm2.64 0h-2.64v2.64h2.64v-2.64zm5.28 0h-2.64v2.64h2.64v-2.64zm2.64 0h-2.64v2.64h2.64v-2.64zM8.8 53.68H6.16v2.64H8.8v-2.64zm2.64 0H8.8v2.64h2.64v-2.64zm7.92 0h-2.64v2.64h2.64v-2.64zm5.28 0H22v2.64h2.64v-2.64zm2.64 0h-2.64v2.64h2.64v-2.64zm7.92 0h-2.64v2.64h2.64v-2.64zm7.92 0h-2.64v2.64h2.64v-2.64zm2.64 0h-2.64v2.64h2.64v-2.64zm2.64 0h-2.64v2.64h2.64v-2.64zm2.64 0H48.4v2.64h2.64v-2.64zm2.64 0h-2.64v2.64h2.64v-2.64zm5.28 0h-2.64v2.64h2.64v-2.64zm2.64 0h-2.64v2.64h2.64v-2.64zm7.92 0h-2.64v2.64h2.64v-2.64zm2.64 0h-2.64v2.64h2.64v-2.64zm5.28 0H74.8v2.64h2.64v-2.64zm7.92 0h-2.64v2.64h2.64v-2.64zm10.56 0h-2.64v2.64h2.64v-2.64zm2.64 0h-2.64v2.64h2.64v-2.64zm2.64 0h-2.64v2.64h2.64v-2.64zm7.92 0h-2.64v2.64h2.64v-2.64zm7.92 0h-2.64v2.64h2.64v-2.64zm5.28 0h-2.64v2.64h2.64v-2.64zM8.8 56.32H6.16v2.64H8.8v-2.64zm2.64 0H8.8v2.64h2.64v-2.64zm15.84 0h-2.64v2.64h2.64v-2.64zm2.64 0h-2.64v2.64h2.64v-2.64zm2.64 0h-2.64v2.64h2.64v-2.64zm10.56 0h-2.64v2.64h2.64v-2.64zm2.64 0h-2.64v2.64h2.64v-2.64zm5.28 0H48.4v2.64h2.64v-2.64zm2.64 0h-2.64v2.64h2.64v-2.64zm5.28 0h-2.64v2.64h2.64v-2.64zm10.56 0h-2.64v2.64h2.64v-2.64zm5.28 0h-2.64v2.64h2.64v-2.64zm7.92 0h-2.64v2.64h2.64v-2.64zm2.64 0h-2.64v2.64h2.64v-2.64zm2.64 0h-2.64v2.64H88v-2.64zm5.28 0h-2.64v2.64h2.64v-2.64zm7.92 0h-2.64v2.64h2.64v-2.64zm10.56 0h-2.64v2.64h2.64v-2.64zm2.64 0h-2.64v2.64h2.64v-2.64zm2.64 0h-2.64v2.64h2.64v-2.64zm2.64 0h-2.64v2.64h2.64v-2.64zM8.8 58.96H6.16v2.64H8.8v-2.64zm5.28 0h-2.64v2.64h2.64v-2.64z" fill="#000"/><path d="M16.72 58.96h-2.64v2.64h2.64v-2.64zm2.64 0h-2.64v2.64h2.64v-2.64zm2.64 0h-2.64v2.64H22v-2.64zm2.64 0H22v2.64h2.64v-2.64zm2.64 0h-2.64v2.64h2.64v-2.64zm2.64 0h-2.64v2.64h2.64v-2.64zm2.64 0h-2.64v2.64h2.64v-2.64zm2.64 0h-2.64v2.64h2.64v-2.64zm2.64 0H35.2v2.64h2.64v-2.64zm5.28 0h-2.64v2.64h2.64v-2.64zm7.92 0H48.4v2.64h2.64v-2.64zm2.64 0h-2.64v2.64h2.64v-2.64zm2.64 0h-2.64v2.64h2.64v-2.64zm5.28 0h-2.64v2.64h2.64v-2.64zm2.64 0H61.6v2.64h2.64v-2.64zm2.64 0h-2.64v2.64h2.64v-2.64zm2.64 0h-2.64v2.64h2.64v-2.64zm2.64 0h-2.64v2.64h2.64v-2.64zm5.28 0H74.8v2.64h2.64v-2.64zm2.64 0h-2.64v2.64h2.64v-2.64zm7.92 0h-2.64v2.64H88v-2.64zm2.64 0H88v2.64h2.64v-2.64zm5.28 0h-2.64v2.64h2.64v-2.64zm5.28 0h-2.64v2.64h2.64v-2.64zm2.64 0h-2.64v2.64h2.64v-2.64zm2.64 0h-2.64v2.64h2.64v-2.64zm2.64 0h-2.64v2.64h2.64v-2.64zm2.64 0h-2.64v2.64h2.64v-2.64zm2.64 0h-2.64v2.64h2.64v-2.64zm7.92 0h-2.64v2.64h2.64v-2.64zM11.44 61.6H8.8v2.64h2.64V61.6zm7.92 0h-2.64v2.64h2.64V61.6zm10.56 0h-2.64v2.64h2.64V61.6zm7.92 0H35.2v2.64h2.64V61.6z" fill="#000"/><path d="M40.48 61.6h-2.64v2.64h2.64V61.6zm2.64 0h-2.64v2.64h2.64V61.6zm2.64 0h-2.64v2.64h2.64V61.6zm2.64 0h-2.64v2.64h2.64V61.6zm7.92 0h-2.64v2.64h2.64V61.6zm5.28 0h-2.64v2.64h2.64V61.6zm10.56 0h-2.64v2.64h2.64V61.6zm15.84 0h-2.64v2.64H88V61.6zm13.2 0h-2.64v2.64h2.64V61.6zm2.64 0h-2.64v2.64h2.64V61.6zm10.56 0h-2.64v2.64h2.64V61.6zm5.28 0h-2.64v2.64h2.64V61.6z" fill="#000"/><path d="M122.32 61.6h-2.64v2.64h2.64V61.6zM8.8 64.24H6.16v2.64H8.8v-2.64zm2.64 0H8.8v2.64h2.64v-2.64zm7.92 0h-2.64v2.64h2.64v-2.64zm5.28 0H22v2.64h2.64v-2.64zm5.28 0h-2.64v2.64h2.64v-2.64zm7.92 0H35.2v2.64h2.64v-2.64zm10.56 0h-2.64v2.64h2.64v-2.64zm2.64 0H48.4v2.64h2.64v-2.64zm2.64 0h-2.64v2.64h2.64v-2.64zm7.92 0h-2.64v2.64h2.64v-2.64zm5.28 0h-2.64v2.64h2.64v-2.64zm5.28 0h-2.64v2.64h2.64v-2.64zm5.28 0H74.8v2.64h2.64v-2.64zm2.64 0h-2.64v2.64h2.64v-2.64zm5.28 0h-2.64v2.64h2.64v-2.64zm13.2 0h-2.64v2.64h2.64v-2.64zm2.64 0h-2.64v2.64h2.64v-2.64zm2.64 0h-2.64v2.64h2.64v-2.64zm5.28 0h-2.64v2.64h2.64v-2.64zm5.28 0h-2.64v2.64h2.64v-2.64zm2.64 0h-2.64v2.64h2.64v-2.64zm5.28 0h-2.64v2.64h2.64v-2.64zM8.8 66.88H6.16v2.64H8.8v-2.64zm2.64 0H8.8v2.64h2.64v-2.64z" fill="#000"/><path d="M14.08 66.88h-2.64v2.64h2.64v-2.64zm5.28 0h-2.64v2.64h2.64v-2.64zm10.56 0h-2.64v2.64h2.64v-2.64zm2.64 0h-2.64v2.64h2.64v-2.64zm2.64 0h-2.64v2.64h2.64v-2.64zm5.28 0h-2.64v2.64h2.64v-2.64zm2.64 0h-2.64v2.64h2.64v-2.64zm5.28 0h-2.64v2.64h2.64v-2.64zm5.28 0h-2.64v2.64h2.64v-2.64zm2.64 0h-2.64v2.64h2.64v-2.64zm5.28 0h-2.64v2.64h2.64v-2.64zm10.56 0h-2.64v2.64h2.64v-2.64zm2.64 0h-2.64v2.64h2.64v-2.64zm2.64 0H74.8v2.64h2.64v-2.64zm5.28 0h-2.64v2.64h2.64v-2.64zm5.28 0h-2.64v2.64H88v-2.64zm2.64 0H88v2.64h2.64v-2.64zm7.92 0h-2.64v2.64h2.64v-2.64zm5.28 0h-2.64v2.64h2.64v-2.64zm10.56 0h-2.64v2.64h2.64v-2.64zm5.28 0h-2.64v2.64h2.64v-2.64z" fill="#000"/><path d="M122.32 66.88h-2.64v2.64h2.64v-2.64zM8.8 69.52H6.16v2.64H8.8v-2.64zm10.56 0h-2.64v2.64h2.64v-2.64zm2.64 0h-2.64v2.64H22v-2.64zm2.64 0H22v2.64h2.64v-2.64zm2.64 0h-2.64v2.64h2.64v-2.64zm2.64 0h-2.64v2.64h2.64v-2.64zm10.56 0h-2.64v2.64h2.64v-2.64zm15.84 0h-2.64v2.64h2.64v-2.64zm2.64 0h-2.64v2.64h2.64v-2.64zm2.64 0h-2.64v2.64h2.64v-2.64zm2.64 0H61.6v2.64h2.64v-2.64zm2.64 0h-2.64v2.64h2.64v-2.64zm2.64 0h-2.64v2.64h2.64v-2.64zm2.64 0h-2.64v2.64h2.64v-2.64zm5.28 0H74.8v2.64h2.64v-2.64zm7.92 0h-2.64v2.64h2.64v-2.64zm5.28 0H88v2.64h2.64v-2.64zm7.92 0h-2.64v2.64h2.64v-2.64zm2.64 0h-2.64v2.64h2.64v-2.64zm2.64 0h-2.64v2.64h2.64v-2.64zm2.64 0h-2.64v2.64h2.64v-2.64zm2.64 0h-2.64v2.64h2.64v-2.64zm2.64 0h-2.64v2.64h2.64v-2.64zm2.64 0h-2.64v2.64h2.64v-2.64zm2.64 0h-2.64v2.64h2.64v-2.64zM8.8 72.16H6.16v2.64H8.8v-2.64zm2.64 0H8.8v2.64h2.64v-2.64zm5.28 0h-2.64v2.64h2.64v-2.64zm2.64 0h-2.64v2.64h2.64v-2.64zm10.56 0h-2.64v2.64h2.64v-2.64zm2.64 0h-2.64v2.64h2.64v-2.64zm5.28 0H35.2v2.64h2.64v-2.64zm5.28 0h-2.64v2.64h2.64v-2.64zm5.28 0h-2.64v2.64h2.64v-2.64zm5.28 0h-2.64v2.64h2.64v-2.64zm5.28 0h-2.64v2.64h2.64v-2.64zm2.64 0h-2.64v2.64h2.64v-2.64zm7.92 0h-2.64v2.64h2.64v-2.64zm5.28 0h-2.64v2.64h2.64v-2.64zm7.92 0h-2.64v2.64h2.64v-2.64zm2.64 0h-2.64v2.64h2.64v-2.64zm2.64 0h-2.64v2.64H88v-2.64zm5.28 0h-2.64v2.64h2.64v-2.64zm10.56 0h-2.64v2.64h2.64v-2.64zm2.64 0h-2.64v2.64h2.64v-2.64zm10.56 0h-2.64v2.64h2.64v-2.64zm2.64 0h-2.64v2.64h2.64v-2.64z" fill="#000"/><path d="M122.32 72.16h-2.64v2.64h2.64v-2.64zm2.64 0h-2.64v2.64h2.64v-2.64zM8.8 74.8H6.16v2.64H8.8V74.8zm2.64 0H8.8v2.64h2.64V74.8z" fill="#000"/><path d="M14.08 74.8h-2.64v2.64h2.64V74.8z" fill="#000"/><path d="M16.72 74.8h-2.64v2.64h2.64V74.8zm2.64 0h-2.64v2.64h2.64V74.8zm2.64 0h-2.64v2.64H22V74.8zm2.64 0H22v2.64h2.64V74.8zm5.28 0h-2.64v2.64h2.64V74.8zm5.28 0h-2.64v2.64h2.64V74.8zm21.12 0h-2.64v2.64h2.64V74.8zm13.2 0h-2.64v2.64h2.64V74.8zm7.92 0H74.8v2.64h2.64V74.8zm2.64 0h-2.64v2.64h2.64V74.8zm5.28 0h-2.64v2.64h2.64V74.8zm5.28 0H88v2.64h2.64V74.8zm5.28 0h-2.64v2.64h2.64V74.8zm2.64 0h-2.64v2.64h2.64V74.8zm2.64 0h-2.64v2.64h2.64V74.8zm2.64 0h-2.64v2.64h2.64V74.8zm7.92 0h-2.64v2.64h2.64V74.8zm7.92 0h-2.64v2.64h2.64V74.8z" fill="#000"/><path d="M122.32 74.8h-2.64v2.64h2.64V74.8zM8.8 77.44H6.16v2.64H8.8v-2.64zm5.28 0h-2.64v2.64h2.64v-2.64zm7.92 0h-2.64v2.64H22v-2.64zm7.92 0h-2.64v2.64h2.64v-2.64zm7.92 0H35.2v2.64h2.64v-2.64zm7.92 0h-2.64v2.64h2.64v-2.64zm2.64 0h-2.64v2.64h2.64v-2.64zm21.12 0h-2.64v2.64h2.64v-2.64zm2.64 0h-2.64v2.64h2.64v-2.64zm2.64 0h-2.64v2.64h2.64v-2.64zm7.92 0h-2.64v2.64h2.64v-2.64zm2.64 0h-2.64v2.64h2.64v-2.64zm5.28 0H88v2.64h2.64v-2.64zm2.64 0h-2.64v2.64h2.64v-2.64zm2.64 0h-2.64v2.64h2.64v-2.64zm5.28 0h-2.64v2.64h2.64v-2.64zm7.92 0h-2.64v2.64h2.64v-2.64zm5.28 0h-2.64v2.64h2.64v-2.64zm2.64 0h-2.64v2.64h2.64v-2.64zm2.64 0h-2.64v2.64h2.64v-2.64zM11.44 80.08H8.8v2.64h2.64v-2.64z" fill="#000"/><path d="M14.08 80.08h-2.64v2.64h2.64v-2.64z" fill="#000"/><path d="M16.72 80.08h-2.64v2.64h2.64v-2.64zm7.92 0H22v2.64h2.64v-2.64zm5.28 0h-2.64v2.64h2.64v-2.64zm2.64 0h-2.64v2.64h2.64v-2.64zm2.64 0h-2.64v2.64h2.64v-2.64zm2.64 0H35.2v2.64h2.64v-2.64zm5.28 0h-2.64v2.64h2.64v-2.64zm5.28 0h-2.64v2.64h2.64v-2.64zm7.92 0h-2.64v2.64h2.64v-2.64zm2.64 0h-2.64v2.64h2.64v-2.64zm2.64 0h-2.64v2.64h2.64v-2.64zm2.64 0H61.6v2.64h2.64v-2.64zm5.28 0h-2.64v2.64h2.64v-2.64zm2.64 0h-2.64v2.64h2.64v-2.64zm5.28 0H74.8v2.64h2.64v-2.64zm2.64 0h-2.64v2.64h2.64v-2.64zm5.28 0h-2.64v2.64h2.64v-2.64zm2.64 0h-2.64v2.64H88v-2.64zm2.64 0H88v2.64h2.64v-2.64zm7.92 0h-2.64v2.64h2.64v-2.64zm5.28 0h-2.64v2.64h2.64v-2.64zm10.56 0h-2.64v2.64h2.64v-2.64zm10.56 0h-2.64v2.64h2.64v-2.64zM8.8 82.72H6.16v2.64H8.8v-2.64zm7.92 0h-2.64v2.64h2.64v-2.64zm10.56 0h-2.64v2.64h2.64v-2.64zm7.92 0h-2.64v2.64h2.64v-2.64zm2.64 0H35.2v2.64h2.64v-2.64z" fill="#000"/><path d="M40.48 82.72h-2.64v2.64h2.64v-2.64zm5.28 0h-2.64v2.64h2.64v-2.64zm7.92 0h-2.64v2.64h2.64v-2.64zm5.28 0h-2.64v2.64h2.64v-2.64zm2.64 0h-2.64v2.64h2.64v-2.64zm2.64 0H61.6v2.64h2.64v-2.64zm2.64 0h-2.64v2.64h2.64v-2.64zm7.92 0h-2.64v2.64h2.64v-2.64zm7.92 0h-2.64v2.64h2.64v-2.64zm5.28 0h-2.64v2.64H88v-2.64zm5.28 0h-2.64v2.64h2.64v-2.64zm2.64 0h-2.64v2.64h2.64v-2.64zm5.28 0h-2.64v2.64h2.64v-2.64zm2.64 0h-2.64v2.64h2.64v-2.64zm2.64 0h-2.64v2.64h2.64v-2.64zm15.84 0h-2.64v2.64h2.64v-2.64zm2.64 0h-2.64v2.64h2.64v-2.64zM8.8 85.36H6.16V88H8.8v-2.64zm2.64 0H8.8V88h2.64v-2.64z" fill="#000"/><path d="M14.08 85.36h-2.64V88h2.64v-2.64zm5.28 0h-2.64V88h2.64v-2.64zm2.64 0h-2.64V88H22v-2.64zm2.64 0H22V88h2.64v-2.64zm13.2 0H35.2V88h2.64v-2.64zm5.28 0h-2.64V88h2.64v-2.64zm2.64 0h-2.64V88h2.64v-2.64zm5.28 0H48.4V88h2.64v-2.64zm5.28 0h-2.64V88h2.64v-2.64zm7.92 0H61.6V88h2.64v-2.64zm10.56 0h-2.64V88h2.64v-2.64zm2.64 0H74.8V88h2.64v-2.64zm2.64 0h-2.64V88h2.64v-2.64zm5.28 0h-2.64V88h2.64v-2.64zm5.28 0H88V88h2.64v-2.64zm7.92 0h-2.64V88h2.64v-2.64zm2.64 0h-2.64V88h2.64v-2.64zm5.28 0h-2.64V88h2.64v-2.64zm7.92 0h-2.64V88h2.64v-2.64zM19.36 88h-2.64v2.64h2.64V88zM22 88h-2.64v2.64H22V88zm5.28 0h-2.64v2.64h2.64V88zm2.64 0h-2.64v2.64h2.64V88zm5.28 0h-2.64v2.64h2.64V88zm5.28 0h-2.64v2.64h2.64V88zm5.28 0h-2.64v2.64h2.64V88zm7.92 0h-2.64v2.64h2.64V88zm2.64 0h-2.64v2.64h2.64V88zm7.92 0H61.6v2.64h2.64V88zm5.28 0h-2.64v2.64h2.64V88zm2.64 0h-2.64v2.64h2.64V88zm2.64 0h-2.64v2.64h2.64V88zm2.64 0H74.8v2.64h2.64V88zm2.64 0h-2.64v2.64h2.64V88zm2.64 0h-2.64v2.64h2.64V88zm2.64 0h-2.64v2.64h2.64V88zM88 88h-2.64v2.64H88V88zm2.64 0H88v2.64h2.64V88zm7.92 0h-2.64v2.64h2.64V88zm2.64 0h-2.64v2.64h2.64V88zm7.92 0h-2.64v2.64h2.64V88zm10.56 0h-2.64v2.64h2.64V88z" fill="#000"/><path d="M122.32 88h-2.64v2.64h2.64V88zm2.64 0h-2.64v2.64h2.64V88zM8.8 90.64H6.16v2.64H8.8v-2.64zm5.28 0h-2.64v2.64h2.64v-2.64zm5.28 0h-2.64v2.64h2.64v-2.64zm2.64 0h-2.64v2.64H22v-2.64zm2.64 0H22v2.64h2.64v-2.64zm10.56 0h-2.64v2.64h2.64v-2.64zm2.64 0H35.2v2.64h2.64v-2.64z" fill="#000"/><path d="M40.48 90.64h-2.64v2.64h2.64v-2.64zm2.64 0h-2.64v2.64h2.64v-2.64zm2.64 0h-2.64v2.64h2.64v-2.64zm2.64 0h-2.64v2.64h2.64v-2.64zm7.92 0h-2.64v2.64h2.64v-2.64zm5.28 0h-2.64v2.64h2.64v-2.64zm7.92 0h-2.64v2.64h2.64v-2.64zm2.64 0h-2.64v2.64h2.64v-2.64zm15.84 0h-2.64v2.64H88v-2.64zm2.64 0H88v2.64h2.64v-2.64zm15.84 0h-2.64v2.64h2.64v-2.64zm5.28 0h-2.64v2.64h2.64v-2.64zm2.64 0h-2.64v2.64h2.64v-2.64zm7.92 0h-2.64v2.64h2.64v-2.64zm2.64 0h-2.64v2.64h2.64v-2.64zM8.8 93.28H6.16v2.64H8.8v-2.64zm2.64 0H8.8v2.64h2.64v-2.64z" fill="#000"/><path d="M14.08 93.28h-2.64v2.64h2.64v-2.64zm13.2 0h-2.64v2.64h2.64v-2.64zm2.64 0h-2.64v2.64h2.64v-2.64zm10.56 0h-2.64v2.64h2.64v-2.64zm10.56 0H48.4v2.64h2.64v-2.64zm7.92 0h-2.64v2.64h2.64v-2.64zm2.64 0h-2.64v2.64h2.64v-2.64zm5.28 0h-2.64v2.64h2.64v-2.64zm2.64 0h-2.64v2.64h2.64v-2.64zm5.28 0h-2.64v2.64h2.64v-2.64zm13.2 0h-2.64v2.64H88v-2.64zm2.64 0H88v2.64h2.64v-2.64zm5.28 0h-2.64v2.64h2.64v-2.64zm13.2 0h-2.64v2.64h2.64v-2.64zm10.56 0h-2.64v2.64h2.64v-2.64zm5.28 0h-2.64v2.64h2.64v-2.64zm-105.6 2.64h-2.64v2.64h2.64v-2.64zm5.28 0H22v2.64h2.64v-2.64zm2.64 0h-2.64v2.64h2.64v-2.64zm5.28 0h-2.64v2.64h2.64v-2.64zm2.64 0h-2.64v2.64h2.64v-2.64zm2.64 0H35.2v2.64h2.64v-2.64z" fill="#000"/><path d="M40.48 95.92h-2.64v2.64h2.64v-2.64zm2.64 0h-2.64v2.64h2.64v-2.64zm5.28 0h-2.64v2.64h2.64v-2.64zm2.64 0H48.4v2.64h2.64v-2.64zm5.28 0h-2.64v2.64h2.64v-2.64zm5.28 0h-2.64v2.64h2.64v-2.64zm5.28 0h-2.64v2.64h2.64v-2.64zm10.56 0H74.8v2.64h2.64v-2.64zm13.2 0H88v2.64h2.64v-2.64zm5.28 0h-2.64v2.64h2.64v-2.64zm2.64 0h-2.64v2.64h2.64v-2.64zm7.92 0h-2.64v2.64h2.64v-2.64zm10.56 0h-2.64v2.64h2.64v-2.64zm5.28 0h-2.64v2.64h2.64v-2.64zM11.44 98.56H8.8v2.64h2.64v-2.64z" fill="#000"/><path d="M14.08 98.56h-2.64v2.64h2.64v-2.64z" fill="#000"/><path d="M16.72 98.56h-2.64v2.64h2.64v-2.64zm2.64 0h-2.64v2.64h2.64v-2.64zm10.56 0h-2.64v2.64h2.64v-2.64zm2.64 0h-2.64v2.64h2.64v-2.64zm2.64 0h-2.64v2.64h2.64v-2.64zm5.28 0h-2.64v2.64h2.64v-2.64zm2.64 0h-2.64v2.64h2.64v-2.64zm7.92 0H48.4v2.64h2.64v-2.64zm5.28 0h-2.64v2.64h2.64v-2.64zm2.64 0h-2.64v2.64h2.64v-2.64zm2.64 0h-2.64v2.64h2.64v-2.64zm7.92 0h-2.64v2.64h2.64v-2.64zm2.64 0h-2.64v2.64h2.64v-2.64zm10.56 0h-2.64v2.64h2.64v-2.64zm5.28 0h-2.64v2.64H88v-2.64zm2.64 0H88v2.64h2.64v-2.64zm2.64 0h-2.64v2.64h2.64v-2.64zm5.28 0h-2.64v2.64h2.64v-2.64zm2.64 0h-2.64v2.64h2.64v-2.64zm7.92 0h-2.64v2.64h2.64v-2.64zm2.64 0h-2.64v2.64h2.64v-2.64zm2.64 0h-2.64v2.64h2.64v-2.64zm2.64 0h-2.64v2.64h2.64v-2.64zm2.64 0h-2.64v2.64h2.64v-2.64z" fill="#000"/><path d="M122.32 98.56h-2.64v2.64h2.64v-2.64zM8.8 101.2H6.16v2.64H8.8v-2.64zm7.92 0h-2.64v2.64h2.64v-2.64zm2.64 0h-2.64v2.64h2.64v-2.64zm5.28 0H22v2.64h2.64v-2.64zm5.28 0h-2.64v2.64h2.64v-2.64zm2.64 0h-2.64v2.64h2.64v-2.64zm2.64 0h-2.64v2.64h2.64v-2.64zm2.64 0H35.2v2.64h2.64v-2.64zm5.28 0h-2.64v2.64h2.64v-2.64zm7.92 0H48.4v2.64h2.64v-2.64zm5.28 0h-2.64v2.64h2.64v-2.64zm2.64 0h-2.64v2.64h2.64v-2.64zm2.64 0h-2.64v2.64h2.64v-2.64zm2.64 0H61.6v2.64h2.64v-2.64zm2.64 0h-2.64v2.64h2.64v-2.64zm2.64 0h-2.64v2.64h2.64v-2.64zm2.64 0h-2.64v2.64h2.64v-2.64zm2.64 0h-2.64v2.64h2.64v-2.64zm2.64 0H74.8v2.64h2.64v-2.64zm2.64 0h-2.64v2.64h2.64v-2.64zm5.28 0h-2.64v2.64h2.64v-2.64zm2.64 0h-2.64v2.64H88v-2.64zm2.64 0H88v2.64h2.64v-2.64zm13.2 0h-2.64v2.64h2.64v-2.64zm2.64 0h-2.64v2.64h2.64v-2.64zm2.64 0h-2.64v2.64h2.64v-2.64zm2.64 0h-2.64v2.64h2.64v-2.64zm2.64 0h-2.64v2.64h2.64v-2.64zm7.92 0h-2.64v2.64h2.64v-2.64zm2.64 0h-2.64v2.64h2.64v-2.64zm-95.04 2.64h-2.64v2.64h2.64v-2.64zm2.64 0h-2.64v2.64h2.64v-2.64zm2.64 0h-2.64v2.64h2.64v-2.64zm2.64 0H35.2v2.64h2.64v-2.64z" fill="#000"/><path d="M40.48 103.84h-2.64v2.64h2.64v-2.64zm5.28 0h-2.64v2.64h2.64v-2.64zm2.64 0h-2.64v2.64h2.64v-2.64zm5.28 0h-2.64v2.64h2.64v-2.64zm5.28 0h-2.64v2.64h2.64v-2.64zm2.64 0h-2.64v2.64h2.64v-2.64zm10.56 0h-2.64v2.64h2.64v-2.64zm15.84 0h-2.64v2.64H88v-2.64zm2.64 0H88v2.64h2.64v-2.64zm10.56 0h-2.64v2.64h2.64v-2.64zm2.64 0h-2.64v2.64h2.64v-2.64zm10.56 0h-2.64v2.64h2.64v-2.64zm2.64 0h-2.64v2.64h2.64v-2.64zm5.28 0h-2.64v2.64h2.64v-2.64zM8.8 106.48H6.16v2.64H8.8v-2.64zm2.64 0H8.8v2.64h2.64v-2.64z" fill="#000"/><path d="M14.08 106.48h-2.64v2.64h2.64v-2.64z" fill="#000"/><path d="M16.72 106.48h-2.64v2.64h2.64v-2.64zm2.64 0h-2.64v2.64h2.64v-2.64zm2.64 0h-2.64v2.64H22v-2.64zm2.64 0H22v2.64h2.64v-2.64zm5.28 0h-2.64v2.64h2.64v-2.64zm2.64 0h-2.64v2.64h2.64v-2.64zm5.28 0H35.2v2.64h2.64v-2.64z" fill="#000"/><path d="M40.48 106.48h-2.64v2.64h2.64v-2.64zm10.56 0H48.4v2.64h2.64v-2.64zm2.64 0h-2.64v2.64h2.64v-2.64zm5.28 0h-2.64v2.64h2.64v-2.64zm2.64 0h-2.64v2.64h2.64v-2.64zm5.28 0h-2.64v2.64h2.64v-2.64zm5.28 0h-2.64v2.64h2.64v-2.64zm2.64 0h-2.64v2.64h2.64v-2.64zm2.64 0H74.8v2.64h2.64v-2.64zm2.64 0h-2.64v2.64h2.64v-2.64zm2.64 0h-2.64v2.64h2.64v-2.64zm2.64 0h-2.64v2.64h2.64v-2.64zm5.28 0H88v2.64h2.64v-2.64zm7.92 0h-2.64v2.64h2.64v-2.64zm5.28 0h-2.64v2.64h2.64v-2.64zm5.28 0h-2.64v2.64h2.64v-2.64zm5.28 0h-2.64v2.64h2.64v-2.64zm2.64 0h-2.64v2.64h2.64v-2.64zm5.28 0h-2.64v2.64h2.64v-2.64zM8.8 109.12H6.16v2.64H8.8v-2.64zm15.84 0H22v2.64h2.64v-2.64zm7.92 0h-2.64v2.64h2.64v-2.64zm2.64 0h-2.64v2.64h2.64v-2.64zm2.64 0H35.2v2.64h2.64v-2.64zm5.28 0h-2.64v2.64h2.64v-2.64zm10.56 0h-2.64v2.64h2.64v-2.64zm2.64 0h-2.64v2.64h2.64v-2.64zm2.64 0h-2.64v2.64h2.64v-2.64zm2.64 0h-2.64v2.64h2.64v-2.64zm10.56 0h-2.64v2.64h2.64v-2.64zm5.28 0H74.8v2.64h2.64v-2.64zm2.64 0h-2.64v2.64h2.64v-2.64zm2.64 0h-2.64v2.64h2.64v-2.64zm2.64 0h-2.64v2.64h2.64v-2.64zm7.92 0h-2.64v2.64h2.64v-2.64zm5.28 0h-2.64v2.64h2.64v-2.64zm5.28 0h-2.64v2.64h2.64v-2.64zm10.56 0h-2.64v2.64h2.64v-2.64zm5.28 0h-2.64v2.64h2.64v-2.64zm5.28 0h-2.64v2.64h2.64v-2.64zM8.8 111.76H6.16v2.64H8.8v-2.64zm5.28 0h-2.64v2.64h2.64v-2.64z" fill="#000"/><path d="M16.72 111.76h-2.64v2.64h2.64v-2.64zm2.64 0h-2.64v2.64h2.64v-2.64zm5.28 0H22v2.64h2.64v-2.64zm5.28 0h-2.64v2.64h2.64v-2.64zm10.56 0h-2.64v2.64h2.64v-2.64zm7.92 0h-2.64v2.64h2.64v-2.64zm7.92 0h-2.64v2.64h2.64v-2.64zm5.28 0h-2.64v2.64h2.64v-2.64zm2.64 0H61.6v2.64h2.64v-2.64zm2.64 0h-2.64v2.64h2.64v-2.64zm2.64 0h-2.64v2.64h2.64v-2.64zm2.64 0h-2.64v2.64h2.64v-2.64zm2.64 0h-2.64v2.64h2.64v-2.64zm10.56 0h-2.64v2.64h2.64v-2.64zm2.64 0h-2.64v2.64H88v-2.64zm2.64 0H88v2.64h2.64v-2.64zm7.92 0h-2.64v2.64h2.64v-2.64zm5.28 0h-2.64v2.64h2.64v-2.64zm2.64 0h-2.64v2.64h2.64v-2.64zm2.64 0h-2.64v2.64h2.64v-2.64zm2.64 0h-2.64v2.64h2.64v-2.64zm2.64 0h-2.64v2.64h2.64v-2.64zM8.8 114.4H6.16v2.64H8.8v-2.64zm5.28 0h-2.64v2.64h2.64v-2.64z" fill="#000"/><path d="M16.72 114.4h-2.64v2.64h2.64v-2.64zm2.64 0h-2.64v2.64h2.64v-2.64zm5.28 0H22v2.64h2.64v-2.64zm5.28 0h-2.64v2.64h2.64v-2.64zm2.64 0h-2.64v2.64h2.64v-2.64zm2.64 0h-2.64v2.64h2.64v-2.64zm2.64 0H35.2v2.64h2.64v-2.64zm5.28 0h-2.64v2.64h2.64v-2.64zm5.28 0h-2.64v2.64h2.64v-2.64zm5.28 0h-2.64v2.64h2.64v-2.64zm5.28 0h-2.64v2.64h2.64v-2.64zm10.56 0h-2.64v2.64h2.64v-2.64zm2.64 0h-2.64v2.64h2.64v-2.64zm2.64 0h-2.64v2.64h2.64v-2.64zm7.92 0h-2.64v2.64h2.64v-2.64zm2.64 0h-2.64v2.64h2.64v-2.64zm2.64 0h-2.64v2.64H88v-2.64zm2.64 0H88v2.64h2.64v-2.64zm2.64 0h-2.64v2.64h2.64v-2.64zm13.2 0h-2.64v2.64h2.64v-2.64zm2.64 0h-2.64v2.64h2.64v-2.64zm5.28 0h-2.64v2.64h2.64v-2.64zM8.8 117.04H6.16v2.64H8.8v-2.64zm5.28 0h-2.64v2.64h2.64v-2.64z" fill="#000"/><path d="M16.72 117.04h-2.64v2.64h2.64v-2.64zm2.64 0h-2.64v2.64h2.64v-2.64zm5.28 0H22v2.64h2.64v-2.64zm5.28 0h-2.64v2.64h2.64v-2.64zm2.64 0h-2.64v2.64h2.64v-2.64zm10.56 0h-2.64v2.64h2.64v-2.64zm21.12 0H61.6v2.64h2.64v-2.64zm2.64 0h-2.64v2.64h2.64v-2.64zm2.64 0h-2.64v2.64h2.64v-2.64zm7.92 0H74.8v2.64h2.64v-2.64zm2.64 0h-2.64v2.64h2.64v-2.64zm5.28 0h-2.64v2.64h2.64v-2.64zm2.64 0h-2.64v2.64H88v-2.64zm2.64 0H88v2.64h2.64v-2.64zm10.56 0h-2.64v2.64h2.64v-2.64zm2.64 0h-2.64v2.64h2.64v-2.64zm2.64 0h-2.64v2.64h2.64v-2.64zm13.2 0h-2.64v2.64h2.64v-2.64zm5.28 0h-2.64v2.64h2.64v-2.64zM8.8 119.68H6.16v2.64H8.8v-2.64zm15.84 0H22v2.64h2.64v-2.64zm5.28 0h-2.64v2.64h2.64v-2.64zm2.64 0h-2.64v2.64h2.64v-2.64zm5.28 0H35.2v2.64h2.64v-2.64zm7.92 0h-2.64v2.64h2.64v-2.64zm2.64 0h-2.64v2.64h2.64v-2.64zm7.92 0h-2.64v2.64h2.64v-2.64zm5.28 0h-2.64v2.64h2.64v-2.64zm2.64 0H61.6v2.64h2.64v-2.64zm10.56 0h-2.64v2.64h2.64v-2.64zm2.64 0H74.8v2.64h2.64v-2.64zm5.28 0h-2.64v2.64h2.64v-2.64zm2.64 0h-2.64v2.64h2.64v-2.64zm2.64 0h-2.64v2.64H88v-2.64zm5.28 0h-2.64v2.64h2.64v-2.64zm7.92 0h-2.64v2.64h2.64v-2.64zm5.28 0h-2.64v2.64h2.64v-2.64zm7.92 0h-2.64v2.64h2.64v-2.64zm2.64 0h-2.64v2.64h2.64v-2.64zm2.64 0h-2.64v2.64h2.64v-2.64z" fill="#000"/><path d="M8.8 122.32H6.16v2.64H8.8v-2.64zm2.64 0H8.8v2.64h2.64v-2.64z" fill="#000"/><path d="M14.08 122.32h-2.64v2.64h2.64v-2.64z" fill="#000"/><path d="M16.72 122.32h-2.64v2.64h2.64v-2.64zm2.64 0h-2.64v2.64h2.64v-2.64zm2.64 0h-2.64v2.64H22v-2.64zm2.64 0H22v2.64h2.64v-2.64zm5.28 0h-2.64v2.64h2.64v-2.64zm2.64 0h-2.64v2.64h2.64v-2.64zm5.28 0H35.2v2.64h2.64v-2.64zm13.2 0H48.4v2.64h2.64v-2.64zm5.28 0h-2.64v2.64h2.64v-2.64zm2.64 0h-2.64v2.64h2.64v-2.64zm5.28 0H61.6v2.64h2.64v-2.64zm2.64 0h-2.64v2.64h2.64v-2.64zm2.64 0h-2.64v2.64h2.64v-2.64zm2.64 0h-2.64v2.64h2.64v-2.64zm2.64 0h-2.64v2.64h2.64v-2.64zm5.28 0h-2.64v2.64h2.64v-2.64zm5.28 0h-2.64v2.64h2.64v-2.64zm2.64 0h-2.64v2.64H88v-2.64zm2.64 0H88v2.64h2.64v-2.64zm7.92 0h-2.64v2.64h2.64v-2.64zm10.56 0h-2.64v2.64h2.64v-2.64zm5.28 0h-2.64v2.64h2.64v-2.64zm7.92 0h-2.64v2.64h2.64v-2.64z" fill="#000"/></svg>