<svg width="230" height="72" fill="none" xmlns="http://www.w3.org/2000/svg"><path d="M222.812 72H7.187C3.235 72 0 68.76 0 64.8V7.2C0 3.24 3.234 0 7.188 0h215.624C226.766 0 230 3.24 230 7.2v57.6c0 3.96-3.234 7.2-7.188 7.2z" fill="#000"/><path d="M62.541 49.37C46.2 57.122 36.09 50.72 29.688 46.676c-.337-.168-1.01 0-.505.674 2.19 2.696 9.266 8.93 18.533 8.93 9.267 0 14.658-5.055 15.5-5.897.506-.843.169-1.348-.674-1.011z" fill="#F90"/><path d="M67.26 46.843c-.505-.505-2.695-.674-4.043-.505-1.348.168-3.538 1.01-3.37 1.516.169.169.337.169 1.18 0 1.01-.168 3.706-.505 4.212.337.505.674-.843 4.212-1.18 4.886-.168.506.169.674.506.337.505-.337 1.347-1.348 1.853-2.696.842-1.516 1.18-3.538.842-3.875z" fill="#F90"/><path d="M58.498 36.903V23.93c0-2.19-2.19-7.245-9.94-7.245S36.595 21.57 36.595 25.95l6.571.506s1.517-4.38 4.718-4.38c3.37 0 3.2 2.695 3.2 3.369v2.864c-4.38.169-14.994 1.348-14.994 10.446 0 9.604 12.13 10.11 16.174 3.875.169.337.337.506.506.674l3.37 3.37 5.054-4.886c.168-.169-2.696-2.359-2.696-4.886zm-7.413-1.011c0 7.076-7.413 6.065-7.413 1.516 0-4.212 4.38-5.054 7.413-5.054v3.538zM85.287 15h2.022l4.212 10.783H89.5l-1.01-2.864h-4.381l-1.011 2.864h-2.022L85.287 15zm-.674 6.402h3.37l-1.685-4.717-1.685 4.717zm6.572-3.538h1.853l2.022 6.066 1.853-6.066h1.853l-2.864 7.919H93.88l-2.695-7.919zm15.162 6.234v.506c0 .168.168.168.337.168h.337v1.18h-1.18c-.337 0-.674 0-.842-.17-.168-.168-.337-.336-.505-.673-.337.337-.843.505-1.348.674-.506.168-1.011.168-1.517.168-.337 0-.674 0-1.011-.168-.337-.169-.673-.169-.842-.506l-.674-.674c-.168-.337-.168-.673-.168-1.01 0-.506.168-.843.337-1.18.168-.337.337-.505.674-.674.336-.168.673-.337 1.01-.337.337 0 .674-.168 1.011-.168.337 0 .674-.169.843-.169.337 0 .505 0 .674-.168.168 0 .337-.169.505-.337.169-.169.169-.337.169-.505 0-.169 0-.337-.169-.506l-.337-.337c-.168 0-.337-.168-.505-.168h-.506c-.505 0-.842.168-1.179.337-.337.168-.506.505-.506 1.01h-1.684c0-.505.168-.842.337-1.179a2.03 2.03 0 01.842-.842 8.226 8.226 0 011.179-.506c.337 0 .843-.168 1.348-.168.337 0 .843 0 1.18.168.337 0 .674.169 1.01.337.337.169.506.337.674.674.169.337.337.674.337 1.011v4.212h.169zm-1.685-2.19c-.337.168-.505.337-1.011.337-.337 0-.842.168-1.179.168-.169 0-.337 0-.506.169-.168 0-.337.168-.505.168l-.337.337c0 .169-.169.337-.169.506 0 .168 0 .337.169.505l.337.337c.168 0 .337.169.505.169h1.18c.168 0 .505-.169.674-.337l.505-.506c.169-.168.169-.337.169-.674v-1.18h.168zM108.37 15h1.685v1.685h-1.685V15zm0 2.864h1.685v7.919h-1.685v-7.919zM112.077 15h1.685v10.783h-1.685V15zm10.109 9.098v.506c0 .168.168.168.337.168h.337v1.18h-1.18c-.337 0-.674 0-.842-.17a2.327 2.327 0 01-.506-.673c-.337.337-.842.505-1.347.674-.506.168-1.011.168-1.517.168-.337 0-.674 0-1.011-.168-.337-.169-.674-.169-.842-.506l-.674-.674c-.169-.337-.169-.673-.169-1.01 0-.506.169-.843.337-1.18.169-.337.337-.505.674-.674.337-.168.674-.337 1.011-.337.337 0 .674-.168 1.011-.168.337 0 .674-.169.843-.169.337 0 .505 0 .674-.168.168 0 .336-.169.505-.337.168-.169.168-.337.168-.505 0-.169 0-.337-.168-.506l-.337-.337c-.168 0-.337-.168-.505-.168h-.506c-.505 0-.842.168-1.179.337-.337.168-.506.505-.506 1.01h-1.685c0-.505.169-.842.337-1.179a2.03 2.03 0 01.843-.842 8.226 8.226 0 011.179-.506c.337 0 .843-.168 1.348-.168.337 0 .842 0 1.179.168.337 0 .674.169 1.011.337.337.169.506.337.674.674.169.337.337.674.337 1.011v4.212h.169zm-1.685-2.19c-.337.168-.506.337-1.011.337-.337 0-.842.168-1.179.168-.169 0-.337 0-.506.169-.168 0-.337.168-.505.168l-.337.337c0 .169-.169.337-.169.506 0 .168 0 .337.169.505l.337.337c.168 0 .337.169.505.169h1.18c.168 0 .505-.169.673-.337l.506-.506c.168-.168.168-.337.168-.674v-1.18h.169zM124.04 15h1.684v4.044l.506-.506c.168-.168.337-.337.505-.337.169-.168.506-.168.674-.168h.674c.674 0 1.18.168 1.685.337.505.168.842.505 1.179.842.337.337.506.843.674 1.348.169.505.169 1.01.169 1.685 0 .505 0 1.01-.169 1.516-.168.506-.337 1.011-.674 1.348-.337.337-.674.674-1.01.842-.506.169-.843.337-1.517.337h-.842c-.337 0-.506-.168-.843-.168-.168-.169-.505-.169-.674-.337-.168-.169-.337-.337-.505-.674v1.01h-1.685V15h.169zm6.065 6.908c0-.337 0-.674-.168-1.011-.169-.337-.169-.674-.337-.842-.169-.337-.337-.506-.674-.674-.337-.169-.506-.169-1.011-.169-.674 0-1.348.337-1.685.843-.337.505-.506 1.179-.506 2.021 0 .337 0 .843.169 1.18.168.337.168.674.505.842.169.169.506.506.674.506.337.168.506.168 1.011.168.337 0 .674 0 1.011-.168.337-.169.506-.337.674-.674.169-.337.337-.506.337-.843v-1.18zm3.2-6.908h1.685v10.783h-1.685V15zm5.054 7.245c0 .337 0 .674.169.842.168.337.168.506.337.674.168.169.337.337.674.506.336.168.505.168 1.01.168.506 0 .843-.168 1.18-.337.337-.168.505-.505.674-1.01h1.685c-.169.505-.169.842-.506 1.179a2.027 2.027 0 01-.842.842l-1.011.505c-.337.169-.843.169-1.18.169-.674 0-1.179-.169-1.684-.337-.506-.169-.843-.506-1.18-.843-.337-.336-.505-.842-.674-1.347-.168-.506-.168-1.011-.168-1.685 0-.506.168-1.011.337-1.517.168-.505.505-1.01.842-1.347.337-.337.674-.674 1.18-.843.505-.168 1.01-.337 1.516-.337.674 0 1.179.169 1.685.337.505.337.842.674 1.179 1.011.337.506.506.843.674 1.516.169.506.169 1.18.169 1.685h-6.066v.169zm4.044-1.011c0-.337 0-.506-.169-.843-.168-.168-.168-.505-.337-.673a2.317 2.317 0 00-.674-.506c-.168-.168-.505-.168-.842-.168-.337 0-.506 0-.842.168-.169.169-.506.169-.674.506a2.327 2.327 0 00-.506.673c-.168.337-.168.506-.168.843h4.212zm10.784 4.717c-.674 0-1.179-.168-1.685-.337-.505-.168-.842-.505-1.179-.842a3.66 3.66 0 01-.842-1.348c-.169-.505-.337-1.01-.337-1.685 0-.674.168-1.18.337-1.684a3.657 3.657 0 01.842-1.348c.337-.337.674-.674 1.179-.843.506-.168 1.011-.337 1.685-.337.674 0 1.18.169 1.685.337.505.169.842.506 1.179.843.337.337.674.842.843 1.348.168.505.337 1.01.337 1.684 0 .674-.169 1.18-.337 1.685a3.676 3.676 0 01-.843 1.348c-.337.337-.674.674-1.179.842-.505.337-1.011.337-1.685.337zm0-1.348c.337 0 .674 0 1.011-.168.337-.168.506-.337.674-.674.168-.337.337-.505.337-.842.168-.337.168-.674.168-1.011 0-.337 0-.674-.168-1.011-.169-.337-.169-.674-.337-.842-.168-.337-.337-.506-.674-.674-.337-.169-.674-.169-1.011-.169-.337 0-.674 0-1.011.169-.337.168-.505.337-.674.674-.168.336-.337.505-.337.842-.168.337-.168.674-.168 1.01 0 .338 0 .675.168 1.012.169.337.169.674.337.842.169.337.337.506.674.674.337.169.674.169 1.011.169zm5.392-6.739h1.684v1.18c.337-.506.674-.843 1.011-1.011.506-.169.843-.337 1.348-.337.843 0 1.517.168 2.022.674.506.505.674 1.179.674 2.021v5.392h-1.685v-4.886c0-.674-.168-1.011-.337-1.348-.168-.337-.674-.337-1.179-.337-.337 0-.506 0-.843.169-.168.168-.505.168-.674.505-.168.169-.337.337-.337.674-.168.337-.168.505-.168.842v4.55h-1.685v-8.088h.169z" fill="#fff"/><path fill-rule="evenodd" clip-rule="evenodd" d="M126.397 40.104v-1.853c0-.337.168-.506.505-.506h7.919c.337 0 .505.169.505.506v1.516c0 .337-.168.506-.674 1.18l-4.212 5.896c1.516 0 3.201.169 4.549 1.011.337.169.337.506.506.674v1.854c0 .337-.337.505-.506.337-2.527-1.348-5.728-1.348-8.424 0-.337.168-.505-.169-.505-.337v-1.854c0-.337 0-.842.337-1.18l4.717-6.907h-4.212c-.337 0-.505-.168-.505-.337zm-29.148 11.12H94.89c-.168 0-.337-.168-.505-.337V38.42c0-.168.168-.505.505-.505h2.19c.169 0 .506.168.506.337v1.685c.505-1.517 1.685-2.36 3.201-2.36 1.517 0 2.527.675 3.201 2.36.506-1.517 1.854-2.36 3.37-2.36 1.011 0 2.19.338 2.864 1.349.843 1.01.674 2.527.674 3.875v7.919c0 .168-.168.505-.505.505h-2.359c-.169 0-.506-.168-.506-.505v-8.93c-.168-.842-.673-1.01-1.347-1.01-.506 0-1.18.336-1.517 1.01-.168.674-.168 1.685-.168 2.359v6.57c0 .17-.169.506-.506.506h-2.358c-.169 0-.506-.168-.506-.505v-6.571c0-1.348.169-3.37-1.516-3.37s-1.685 2.022-1.685 3.37v6.57c-.169.338-.337.506-.674.506zm44.818-13.647c3.538 0 5.56 3.033 5.56 7.076 0 3.875-2.19 6.74-5.56 6.74-3.538 0-5.391-3.033-5.391-6.908 0-3.875 1.853-6.908 5.391-6.908zm0 2.527c-1.853 0-1.853 2.359-1.853 3.875 0 1.517 0 4.718 1.853 4.718 1.854 0 2.022-2.696 2.022-4.212 0-1.011 0-2.359-.337-3.37-.337-.674-.842-1.01-1.685-1.01zm10.276 11.12h-2.359c-.169 0-.505-.168-.505-.505V38.25c0-.169.168-.337.505-.337h2.19c.169 0 .337.168.506.337v1.853c.674-1.685 1.685-2.527 3.369-2.527 1.011 0 2.191.337 2.865 1.516.674 1.011.674 2.696.674 3.875v7.75c0 .17-.169.338-.506.338h-2.359c-.168 0-.337-.169-.505-.337v-6.74c0-1.348.168-3.37-1.516-3.37-.506 0-1.18.338-1.348 1.011-.506.843-.506 1.517-.506 2.36v6.739c0 .337-.337.505-.505.505z" fill="#fff"/><path d="M162.115 51.392a1.18 1.18 0 100-2.358 1.18 1.18 0 000 2.358zm24.43-.168c-.168 0-.505-.168-.505-.505V38.25c0-.169.169-.337.505-.337h.843c.168 0 .505.168.505.337v1.853c.674-1.516 1.854-2.527 3.37-2.527h.337c1.516 0 2.696 1.18 3.201 2.864.674-1.685 1.854-2.864 3.538-2.864h.337c1.18 0 2.359.842 2.865 1.853.505 1.18.505 2.528.505 3.875v7.414c0 .168-.168.505-.505.505h-1.011c-.169 0-.337-.168-.506-.337v-7.582c0-.842 0-1.853-.337-2.695-.337-.843-1.011-1.348-1.853-1.348-.843 0-1.685.674-2.19 1.516-.674 1.011-.674 2.022-.674 3.37v6.74c0 .168-.169.336-.506.336h-1.011c-.168 0-.505-.168-.505-.505v-7.92c0-.673 0-1.516-.337-2.19-.337-.673-1.011-1.179-1.853-1.347-.843 0-1.517.674-2.022 1.348-.506.842-.674 1.853-.674 3.032v7.245c0 .169-.169.506-.506.506h-1.011v-.169zm-7.243.168c-3.37 0-5.055-3.538-5.055-7.076 0-3.706 1.853-6.908 5.223-6.908h.337c3.37 0 5.055 3.37 5.055 6.908 0 3.707-1.854 6.908-5.392 6.908h-.168v.169zm.168-1.684c1.179 0 2.022-.674 2.527-1.854.506-1.01.506-2.19.506-3.37 0-1.179-.169-2.527-.674-3.706-.506-1.01-1.517-1.516-2.359-1.516-1.011 0-2.022.842-2.527 1.853-.506 1.01-.506 2.19-.506 3.37 0 1.18.169 2.527.674 3.706.506.843 1.348 1.517 2.359 1.517zm-10.951 0c1.516 0 2.359-1.348 2.696-2.864 0-.169.168-.337.505-.337h1.011c.168 0 .505.168.505.337-.505 2.695-2.19 4.549-4.38 4.549h-.337c-3.37 0-4.886-3.37-4.886-6.908 0-3.37 1.516-6.908 4.886-6.908h.337c2.359 0 4.043 1.853 4.38 4.549a.362.362 0 01-.337.337h-1.01c-.169 0-.337-.169-.337-.505-.337-1.517-1.18-2.696-2.528-2.865-2.358 0-3.032 2.864-3.032 5.055-.337 2.358.168 5.391 2.527 5.56z" fill="#fff"/><path fill-rule="evenodd" clip-rule="evenodd" d="M119.993 45.159c0 1.01 0 1.684-.505 2.527-.337.674-1.011 1.18-1.685 1.18-1.011 0-1.516-.675-1.516-1.685 0-2.022 1.853-2.36 3.538-2.36v.338h.168zm2.528 6.065c-.169.169-.337.169-.506 0-.842-.674-1.011-1.01-1.348-1.685-1.348 1.348-2.19 1.685-4.043 1.685-2.022 0-3.707-1.18-3.707-3.707 0-2.021 1.011-3.37 2.527-4.043 1.348-.506 3.201-.674 4.549-.843v-.337c0-.505 0-1.179-.337-1.684-.337-.506-.842-.674-1.348-.674-.842 0-1.684.505-2.021 1.516 0 .169-.169.506-.337.506l-2.359-.169c-.169 0-.337-.169-.337-.506.505-2.864 3.033-3.706 5.391-3.706 1.18 0 2.696.337 3.707 1.18 1.179 1.179 1.011 2.526 1.011 4.211v3.707c0 1.18.505 1.685.842 2.19a.511.511 0 010 .674l-1.684 1.685zM88.32 45.159c0 1.01 0 1.684-.505 2.527-.337.674-1.011 1.18-1.685 1.18-1.011 0-1.517-.675-1.517-1.685 0-2.022 1.854-2.36 3.538-2.36v.338h.169zm2.359 6.065c-.169.169-.337.169-.506 0-.842-.674-1.01-1.01-1.348-1.685-1.347 1.348-2.19 1.685-4.043 1.685-2.022 0-3.707-1.18-3.707-3.707 0-2.021 1.011-3.37 2.528-4.043 1.347-.506 3.2-.674 4.549-.843v-.337c0-.505 0-1.179-.338-1.684-.168-.337-.673-.506-1.179-.506-.842 0-1.685.506-2.022 1.517 0 .168-.168.505-.337.505l-2.358-.337c-.169 0-.337-.169-.337-.506.505-2.864 3.032-3.706 5.391-3.706 1.18 0 2.696.337 3.707 1.18 1.18 1.179 1.01 2.526 1.01 4.211v3.707c0 1.18.506 1.685.843 2.19.169.169.169.506 0 .674-.505.337-1.348 1.18-1.853 1.685z" fill="#fff"/></svg>