<svg width="37" height="10" fill="none" xmlns="http://www.w3.org/2000/svg"><path d="M4.176 0L0 9.24h4.999l.62-1.473h1.416l.62 1.474h5.502V8.116l.49 1.125h2.847l.49-1.148V9.24h11.444l1.391-1.435 1.303 1.435L37 9.253l-4.189-4.607L37 0h-5.787L29.86 1.409 28.597 0h-12.45L15.08 2.385 13.985 0H8.996v1.086L8.441 0H4.176zm.967 1.312H7.58l2.77 6.266V1.312h2.669l2.14 4.493 1.97-4.493h2.657v6.631H18.17l-.014-5.196L15.8 7.943h-1.445l-2.37-5.196v5.196H8.661l-.63-1.486H4.624l-.629 1.485h-1.78l2.928-6.63zm16.121 0h6.572l2.01 2.171 2.075-2.17h2.01l-3.054 3.332 3.053 3.294h-2.1l-2.01-2.196-2.086 2.196h-6.47V1.312zM6.328 2.434L5.206 5.082H7.45L6.33 2.434zm16.56.251v1.21h3.584v1.35h-3.585v1.321h4.021l1.869-1.946-1.79-1.936h-4.1v.001z" fill="#fff"/></svg>