<svg width="230" height="72" fill="none" xmlns="http://www.w3.org/2000/svg"><rect width="230" height="72" rx="5" fill="#000"/><path d="M94.314 43.343h-5.678L87.272 47.3h-2.405l5.379-14.636h2.498L98.123 47.3h-2.446l-1.363-3.956zm-5.09-1.825h4.501l-2.219-6.42h-.062l-2.22 6.42zm20.514.446c0 3.316-1.806 5.447-4.532 5.447a3.697 3.697 0 01-3.418-1.867h-.051v5.285h-2.23v-14.2h2.158v1.774h.041a3.87 3.87 0 013.459-1.886c2.756 0 4.573 2.14 4.573 5.447zm-2.291 0c0-2.16-1.137-3.58-2.87-3.58-1.704 0-2.85 1.45-2.85 3.58 0 2.15 1.146 3.59 2.85 3.59 1.733 0 2.87-1.41 2.87-3.59zm14.245 0c0 3.316-1.806 5.447-4.532 5.447a3.697 3.697 0 01-3.418-1.867h-.051v5.285h-2.23v-14.2h2.158v1.774h.041a3.87 3.87 0 013.459-1.886c2.756 0 4.573 2.14 4.573 5.447zm-2.291 0c0-2.16-1.137-3.58-2.87-3.58-1.704 0-2.849 1.45-2.849 3.58 0 2.15 1.145 3.59 2.849 3.59 1.733 0 2.87-1.41 2.87-3.59zm10.192 1.257c.165 1.452 1.6 2.405 3.561 2.405 1.879 0 3.231-.953 3.231-2.262 0-1.136-.815-1.816-2.746-2.282l-1.93-.457c-2.736-.65-4.006-1.906-4.006-3.946 0-2.525 2.24-4.26 5.421-4.26 3.148 0 5.306 1.735 5.378 4.26h-2.25c-.135-1.46-1.364-2.342-3.16-2.342s-3.025.892-3.025 2.19c0 1.035.785 1.644 2.705 2.11l1.642.396c3.056.71 4.326 1.916 4.326 4.057 0 2.738-2.22 4.453-5.751 4.453-3.304 0-5.534-1.675-5.678-4.322h2.282zm13.958-9.118v2.526h2.066v1.734h-2.066v5.883c0 .913.414 1.34 1.322 1.34.245-.005.49-.022.733-.051v1.724a6.235 6.235 0 01-1.238.101c-2.199 0-3.057-.812-3.057-2.88v-6.117h-1.579v-1.734h1.579v-2.526h2.24zm3.262 7.861c0-3.357 2.013-5.467 5.151-5.467 3.149 0 5.152 2.11 5.152 5.467 0 3.367-1.992 5.467-5.152 5.467-3.158 0-5.151-2.1-5.151-5.467zm8.032 0c0-2.303-1.075-3.662-2.881-3.662-1.806 0-2.88 1.37-2.88 3.662 0 2.313 1.074 3.662 2.88 3.662 1.806 0 2.881-1.35 2.881-3.662zm4.109-5.335h2.127v1.816h.051c.297-1.17 1.387-1.974 2.613-1.928a3.43 3.43 0 01.763.082v2.048a3.163 3.163 0 00-1.001-.132 2.268 2.268 0 00-1.737.702 2.182 2.182 0 00-.586 1.753v6.329h-2.23v-10.67zm15.833 7.536c-.3 1.937-2.22 3.266-4.676 3.266-3.16 0-5.121-2.08-5.121-5.416 0-3.347 1.972-5.518 5.027-5.518 3.005 0 4.894 2.028 4.894 5.264v.75h-7.671v.132a2.755 2.755 0 00.767 2.16 2.855 2.855 0 002.155.863 2.46 2.46 0 002.508-1.501h2.117zm-7.536-3.185h5.43a2.542 2.542 0 00-.73-1.926 2.637 2.637 0 00-1.934-.782 2.778 2.778 0 00-1.958.788c-.519.509-.81 1.2-.808 1.92zM88.945 21.647a3.197 3.197 0 012.526.964 3.08 3.08 0 01.842 2.53c0 2.247-1.236 3.539-3.368 3.539h-2.586v-7.033h2.586zm-1.474 6.038h1.35a2.271 2.271 0 001.792-.713c.458-.49.667-1.158.568-1.816a2.191 2.191 0 00-.577-1.804 2.277 2.277 0 00-1.784-.71h-1.35v5.043zm6.097-1.661a2.5 2.5 0 011.199-2.376 2.598 2.598 0 012.698 0 2.5 2.5 0 011.198 2.376 2.5 2.5 0 01-1.196 2.38 2.599 2.599 0 01-2.702 0 2.5 2.5 0 01-1.197-2.38zm3.999 0c0-1.15-.526-1.823-1.45-1.823-.926 0-1.447.672-1.447 1.823 0 1.16.521 1.827 1.448 1.827.923 0 1.449-.672 1.449-1.827zm7.869 2.655h-1.106l-1.116-3.908h-.085l-1.112 3.909h-1.095l-1.489-5.308h1.081l.968 4.05h.08l1.11-4.05h1.023l1.111 4.05h.084l.963-4.05h1.066l-1.483 5.308zm2.735-5.306h1.027v.843h.079c.277-.621.925-1 1.612-.946a1.773 1.773 0 011.418.545c.364.384.53.91.452 1.429v3.436h-1.066v-3.173c0-.853-.377-1.277-1.166-1.277a1.25 1.25 0 00-.959.381c-.248.259-.369.61-.331.964v3.105h-1.066v-5.308zm6.287-2.072h1.066v7.379h-1.066V21.3zm2.548 4.723a2.499 2.499 0 011.198-2.376 2.599 2.599 0 012.699 0 2.5 2.5 0 011.198 2.376 2.502 2.502 0 01-1.197 2.38 2.598 2.598 0 01-2.701 0 2.498 2.498 0 01-1.197-2.38zm3.998 0c0-1.15-.526-1.823-1.449-1.823-.927 0-1.448.672-1.448 1.823 0 1.16.521 1.827 1.448 1.827.923 0 1.449-.672 1.449-1.827zm2.219 1.155c0-.956.724-1.506 2.01-1.585l1.463-.082v-.459c0-.56-.377-.877-1.106-.877-.595 0-1.008.215-1.126.59h-1.032c.109-.911.982-1.496 2.207-1.496 1.354 0 2.118.662 2.118 1.784v3.626h-1.026v-.746h-.084a1.828 1.828 0 01-1.623.833 1.65 1.65 0 01-1.259-.402 1.592 1.592 0 01-.542-1.186zm3.473-.454v-.444l-1.319.083c-.744.05-1.082.298-1.082.766 0 .477.422.755 1.002.755.343.034.686-.07.95-.288.263-.22.425-.534.449-.872zm2.462-.701c0-1.677.878-2.74 2.243-2.74a1.786 1.786 0 011.656.931h.08v-2.914h1.066v7.379h-1.022v-.839h-.084c-.346.595-1 .951-1.696.926-1.375 0-2.243-1.062-2.243-2.743zm1.102 0c0 1.125.54 1.803 1.443 1.803.898 0 1.454-.687 1.454-1.799 0-1.106-.562-1.803-1.454-1.803-.898 0-1.444.682-1.444 1.799h.001zm8.353 0a2.501 2.501 0 011.199-2.376 2.597 2.597 0 012.698 0 2.499 2.499 0 011.198 2.376 2.5 2.5 0 01-1.196 2.38 2.6 2.6 0 01-2.702 0 2.502 2.502 0 01-1.197-2.38zm3.999 0c0-1.15-.526-1.823-1.449-1.823-.927 0-1.448.672-1.448 1.823 0 1.16.521 1.827 1.448 1.827.923 0 1.449-.672 1.449-1.827zm2.527-2.652h1.026v.844h.08c.277-.621.924-1 1.612-.946a1.774 1.774 0 011.418.545c.363.384.53.91.451 1.429v3.436h-1.066v-3.173c0-.853-.377-1.277-1.165-1.277a1.252 1.252 0 00-.96.381c-.248.259-.368.61-.33.964v3.105h-1.066v-5.308zm10.611-1.32v1.345h1.171v.882h-1.171v2.729c0 .556.233.8.764.8.136-.001.272-.01.407-.025v.872a3.579 3.579 0 01-.58.054c-1.186 0-1.658-.41-1.658-1.433v-2.997h-.858v-.882h.858V22.05h1.067zm2.627-.751h1.056v2.924h.085a1.666 1.666 0 011.647-.95 1.797 1.797 0 011.404.559c.359.383.527.903.456 1.42v3.425h-1.067v-3.167c0-.848-.402-1.277-1.155-1.277a1.277 1.277 0 00-.999.361 1.23 1.23 0 00-.361.984v3.1h-1.066V21.3zm10.864 5.946a2.193 2.193 0 01-2.34 1.535 2.473 2.473 0 01-1.893-.802 2.383 2.383 0 01-.603-1.937 2.418 2.418 0 01.602-1.945 2.51 2.51 0 011.889-.828c1.503 0 2.41 1.009 2.41 2.675v.366h-3.815v.059a1.39 1.39 0 00.377 1.072c.274.29.66.452 1.062.448a1.302 1.302 0 001.285-.643h1.026zm-3.75-1.71h2.729a1.269 1.269 0 00-.355-.977 1.315 1.315 0 00-.975-.398 1.394 1.394 0 00-.994.397c-.264.259-.41.611-.405.977z" fill="#fff"/><path fill-rule="evenodd" clip-rule="evenodd" d="M73.28 35.283c.003 2.262 1.382 4.303 3.502 5.185a12.827 12.827 0 01-1.821 3.644c-1.073 1.577-2.198 3.118-3.983 3.146-1.735.04-2.318-1.003-4.308-1.003-2.009 0-2.63.975-4.294 1.043-1.7.061-3-1.683-4.112-3.245-2.223-3.19-3.953-8.99-1.633-12.936 1.09-1.924 3.127-3.144 5.366-3.216 1.702-.034 3.282 1.13 4.329 1.13 1.026 0 2.98-1.392 4.994-1.184a6.106 6.106 0 014.787 2.543 5.812 5.812 0 00-2.826 4.893zm-3.276-9.534a4.952 4.952 0 01-3.883 1.803 5.405 5.405 0 011.372-3.961 5.982 5.982 0 013.848-1.956 5.676 5.676 0 01-1.337 4.114z" fill="#fff"/></svg>