<svg width="139" height="40" fill="none" xmlns="http://www.w3.org/2000/svg"><rect width="139" height="40" rx="3" fill="#000"/><path d="M51.869 26.662h-4.73l-1.136 3.35H44l4.48-12.392h2.081l4.48 12.391h-2.037l-1.135-3.349zm-4.24-1.545h3.749L49.53 19.68h-.052l-1.85 5.436zm17.087.378c0 2.807-1.505 4.61-3.776 4.61a3.068 3.068 0 01-2.846-1.58h-.043V33h-1.857V20.977h1.798v1.503h.034a3.21 3.21 0 012.88-1.597c2.296 0 3.81 1.812 3.81 4.612zm-1.909 0c0-1.83-.946-3.032-2.39-3.032-1.42 0-2.374 1.228-2.374 3.032 0 1.82.955 3.04 2.373 3.04 1.445 0 2.391-1.195 2.391-3.04zm11.865 0c0 2.807-1.504 4.61-3.775 4.61a3.068 3.068 0 01-2.846-1.58h-.043V33H66.15V20.977h1.797v1.503h.035a3.21 3.21 0 012.88-1.597c2.296 0 3.81 1.812 3.81 4.612zm-1.908 0c0-1.83-.947-3.032-2.39-3.032-1.42 0-2.374 1.228-2.374 3.032 0 1.82.954 3.04 2.373 3.04 1.444 0 2.39-1.195 2.39-3.04zm8.49 1.064c.137 1.229 1.332 2.035 2.965 2.035 1.566 0 2.692-.806 2.692-1.914 0-.962-.68-1.538-2.287-1.933l-1.609-.387c-2.278-.55-3.336-1.613-3.336-3.34 0-2.138 1.866-3.606 4.515-3.606 2.622 0 4.42 1.468 4.48 3.606h-1.875c-.112-1.236-1.135-1.983-2.631-1.983-1.496 0-2.52.755-2.52 1.855 0 .875.654 1.391 2.253 1.786l1.367.335c2.546.601 3.604 1.622 3.604 3.435 0 2.318-1.85 3.77-4.79 3.77-2.752 0-4.61-1.418-4.73-3.66h1.901zm11.625-7.72v2.138h1.72v1.469h-1.72v4.98c0 .774.345 1.134 1.101 1.134.204-.003.408-.017.611-.043v1.46c-.34.064-.686.092-1.031.086-1.832 0-2.546-.687-2.546-2.44v-5.177h-1.316v-1.469h1.316V18.84h1.865zm2.717 6.656c0-2.843 1.676-4.629 4.29-4.629 2.623 0 4.292 1.786 4.292 4.629 0 2.85-1.66 4.628-4.291 4.628-2.631 0-4.29-1.778-4.29-4.628zm6.69 0c0-1.95-.895-3.1-2.4-3.1-1.504 0-2.398 1.159-2.398 3.1 0 1.957.894 3.1 2.398 3.1 1.505 0 2.4-1.142 2.4-3.1zm3.423-4.518h1.771v1.538h.043a2.157 2.157 0 012.176-1.632c.214-.001.427.022.636.069v1.734a2.597 2.597 0 00-.834-.112 1.871 1.871 0 00-1.935 2.079v5.358h-1.857v-9.034zm13.188 6.38c-.25 1.64-1.85 2.766-3.896 2.766-2.631 0-4.265-1.76-4.265-4.585 0-2.834 1.642-4.672 4.187-4.672 2.503 0 4.077 1.717 4.077 4.456v.636h-6.389v.112a2.351 2.351 0 002.433 2.559 2.047 2.047 0 002.089-1.271h1.764zm-6.278-2.695h4.523a2.177 2.177 0 00-2.219-2.293 2.291 2.291 0 00-2.304 2.293zM47.396 8.293a2.64 2.64 0 012.104.816c.544.574.8 1.36.702 2.143 0 1.902-1.03 2.995-2.806 2.995h-2.153V8.293h2.153zm-1.227 5.112h1.124a1.876 1.876 0 001.966-2.141 1.875 1.875 0 00-1.966-2.13h-1.124v4.271zM51.248 12a2.128 2.128 0 01.998-2.012 2.134 2.134 0 012.247 0A2.128 2.128 0 0155.491 12a2.128 2.128 0 01-.996 2.014 2.134 2.134 0 01-2.25 0A2.128 2.128 0 0151.247 12zm3.33 0c0-.974-.438-1.544-1.207-1.544-.772 0-1.206.57-1.206 1.544 0 .981.434 1.547 1.206 1.547.769 0 1.207-.57 1.207-1.547zm6.554 2.248h-.921l-.93-3.309h-.07l-.926 3.31h-.912l-1.24-4.494h.9l.806 3.429h.066l.925-3.429h.852l.925 3.429h.07l.803-3.429h.888l-1.236 4.493zm2.279-4.493h.854v.714h.067c.23-.526.77-.847 1.342-.8a1.465 1.465 0 011.558 1.67v2.91h-.888V11.56c0-.722-.314-1.081-.971-1.081a1.033 1.033 0 00-1.075 1.139v2.628h-.887V9.754zM68.647 8h.888v6.247h-.888V8zm2.122 3.999a2.128 2.128 0 01.998-2.012 2.134 2.134 0 012.248 0A2.128 2.128 0 0175.013 12a2.128 2.128 0 01-.997 2.014 2.135 2.135 0 01-2.25 0A2.128 2.128 0 0170.769 12zm3.33 0c0-.974-.438-1.544-1.207-1.544-.772 0-1.206.57-1.206 1.544 0 .981.434 1.547 1.206 1.547.77 0 1.207-.57 1.207-1.547zm1.849.977c0-.808.603-1.275 1.673-1.34l1.219-.071v-.388c0-.474-.314-.742-.921-.742-.496 0-.84.181-.938.5h-.86c.091-.773.818-1.268 1.839-1.268 1.128 0 1.764.561 1.764 1.51v3.07h-.855v-.631h-.07c-.29.46-.806.73-1.351.705a1.36 1.36 0 01-1.5-1.345zm2.892-.383v-.376l-1.099.07c-.62.041-.9.252-.9.648 0 .404.35.64.834.64a1.062 1.062 0 001.165-.982zm2.051-.594c0-1.42.731-2.32 1.868-2.32a1.483 1.483 0 011.38.789h.066V8h.888v6.247h-.851v-.71h-.07a1.562 1.562 0 01-1.413.784c-1.145 0-1.868-.9-1.868-2.322zm.917 0c0 .953.45 1.526 1.202 1.526.749 0 1.212-.582 1.212-1.522 0-.937-.468-1.527-1.212-1.527-.747 0-1.202.577-1.202 1.523zm6.959 0a2.128 2.128 0 01.998-2.012 2.134 2.134 0 012.247 0A2.128 2.128 0 0193.01 12a2.128 2.128 0 01-.997 2.014 2.134 2.134 0 01-2.25 0A2.128 2.128 0 0188.767 12zm3.33 0c0-.974-.438-1.544-1.207-1.544-.772 0-1.206.57-1.206 1.544 0 .981.434 1.547 1.206 1.547.769 0 1.207-.57 1.207-1.547zm2.105-2.245h.854v.714h.067c.23-.526.77-.847 1.343-.8a1.464 1.464 0 011.557 1.67v2.91h-.888V11.56c0-.722-.314-1.081-.971-1.081a1.033 1.033 0 00-1.074 1.139v2.628h-.888V9.754zm8.838-1.119v1.14h.975v.746h-.975v2.31c0 .472.194.678.636.678.114 0 .227-.008.339-.02v.738a2.915 2.915 0 01-.483.045c-.987 0-1.381-.347-1.381-1.213V10.52h-.714v-.747h.714V8.635h.889zM105.228 8h.88v2.476h.07c.242-.53.791-.852 1.372-.805a1.482 1.482 0 011.55 1.675v2.901h-.889v-2.682c0-.718-.335-1.081-.962-1.081a1.052 1.052 0 00-1.133 1.139v2.624h-.888V8zm9.049 5.034a1.826 1.826 0 01-1.949 1.3 2.045 2.045 0 01-2.079-2.32 2.07 2.07 0 012.075-2.347c1.252 0 2.007.854 2.007 2.265v.31h-3.177v.05a1.188 1.188 0 001.198 1.287c.434.052.857-.163 1.07-.545h.855zm-3.123-1.448h2.272a1.08 1.08 0 00-1.107-1.164 1.15 1.15 0 00-1.165 1.164z" fill="#fff"/><path fill-rule="evenodd" clip-rule="evenodd" d="M34.034 19.7A4.83 4.83 0 0037 24.144a11.05 11.05 0 01-1.543 3.124c-.908 1.352-1.861 2.672-3.373 2.697-1.47.034-1.964-.86-3.649-.86-1.7 0-2.227.835-3.636.894-1.44.053-2.541-1.443-3.483-2.782-1.882-2.734-3.348-7.706-1.383-11.089a5.404 5.404 0 014.545-2.756c1.441-.03 2.78.968 3.666.968.87 0 2.523-1.193 4.23-1.015a5.154 5.154 0 014.054 2.18 4.994 4.994 0 00-2.394 4.195zm-2.775-8.173a4.175 4.175 0 01-3.289 1.546 4.667 4.667 0 011.162-3.396c.836-.947 2-1.545 3.26-1.677a4.905 4.905 0 01-1.133 3.527z" fill="#fff"/></svg>