<svg width="24" height="12" fill="none" xmlns="http://www.w3.org/2000/svg"><path d="M7.172 2.921c-.093.085-.185.165-.274.254-.32.304-.562.654-.646 1.093a2.052 2.052 0 00.377 1.667c.185.25.404.458.697.577.034.016.069.027.111.042-.038.104-.073.204-.111.305-.239.577-.547 1.112-.97 1.574-.077.085-.17.165-.258.238-.308.25-.655.347-1.047.231a25.64 25.64 0 01-.581-.18c-.2-.062-.4-.112-.612-.116-.262-.008-.5.073-.743.162-.185.069-.366.138-.554.18-.297.07-.566-.019-.813-.188a2.4 2.4 0 01-.615-.631 6.507 6.507 0 01-.955-1.99A4.623 4.623 0 01.05 4.19c.088-.581.304-1.105.712-1.536.423-.446.943-.63 1.555-.573.304.03.593.12.885.204.123.035.247.061.37.092.177.046.35.023.52-.027.238-.069.477-.15.715-.22a2.287 2.287 0 011.082-.065c.473.093.85.347 1.162.705.039.046.077.088.116.135 0 .003 0 .007.004.015z" fill="#fff"/><path d="M5.39 0c.004.104.019.204.011.3a2.138 2.138 0 01-.608 1.363 1.627 1.627 0 01-.57.412c-.192.077-.392.092-.596.107l-.012-.003C3.646 1 4.24.239 5.39 0zm4.315 1.402c.47-.077 1.085-.147 1.87-.147.963 0 1.667.224 2.118.628.415.358.662.908.662 1.578 0 .681-.2 1.22-.582 1.613-.515.55-1.354.827-2.305.827a3.5 3.5 0 01-.785-.065v3.021h-.974V1.402h-.004zm.974 3.637c.212.058.481.077.804.077 1.174 0 1.894-.57 1.894-1.613 0-.997-.704-1.478-1.782-1.478-.427 0-.75.035-.92.077V5.04h.004zm7.186 3.817l-.077-.681h-.035c-.304.427-.885.804-1.659.804-1.097 0-1.659-.773-1.659-1.555 0-1.308 1.167-2.028 3.257-2.017v-.111c0-.447-.123-1.255-1.232-1.255-.504 0-1.031.158-1.413.404l-.223-.65c.447-.293 1.097-.482 1.782-.482 1.66 0 2.06 1.132 2.06 2.218v2.028c0 .47.023.928.088 1.297h-.889zm-.142-2.763c-1.074-.024-2.294.169-2.294 1.22 0 .639.427.939.927.939.705 0 1.155-.447 1.309-.909a.988.988 0 00.058-.311v-.94zm2.259-2.656l1.186 3.202c.123.358.258.786.346 1.109h.023c.1-.323.212-.74.347-1.132l1.073-3.179H24l-1.477 3.864c-.705 1.86-1.186 2.81-1.86 3.392-.48.427-.962.592-1.208.638l-.247-.827a2.6 2.6 0 00.863-.481c.27-.212.604-.593.827-1.097a.678.678 0 00.077-.235.94.94 0 00-.065-.258l-2.002-4.996h1.074z" fill="#fff"/></svg>