<svg width="327" height="64" fill="none" xmlns="http://www.w3.org/2000/svg"><rect width="327" height="64" rx="8" fill="#fff"/><rect x=".5" y=".5" width="326" height="63" rx="7.5" stroke="#fff" stroke-opacity=".3"/><mask id="a" maskUnits="userSpaceOnUse" x="54" y="13" width="45" height="39"><path d="M54 13.905v34.349c.005 1.623 1.345 2.938 3.001 2.946h38.035c1.656-.008 2.996-1.323 3-2.946V13.905H54zm27.022 7.836h-9.987c-1.103 0-1.998-.878-1.998-1.959s.894-1.959 1.998-1.959h9.989c1.105 0 1.998.878 1.998 1.959s-.894 1.959-1.998 1.959h-.002z" fill="#fff"/></mask><g mask="url(#a)"><path d="M54 13.905h44.041v37.293H54V13.905z" fill="#EEE"/></g><mask id="b" maskUnits="userSpaceOnUse" x="54" y="13" width="45" height="39"><path d="M54 13.905v34.349c.005 1.623 1.345 2.938 3.001 2.946h38.035c1.656-.008 2.996-1.323 3-2.946V13.905H54zm27.022 7.836h-9.987c-1.103 0-1.998-.878-1.998-1.959s.894-1.959 1.998-1.959h9.989c1.105 0 1.998.878 1.998 1.959s-.894 1.959-1.998 1.959h-.002z" fill="#fff"/></mask><g mask="url(#b)"><path d="M81.026 17.831h-9.989c-1.103 0-1.998.878-1.998 1.959s.893 1.959 1.998 1.959h9.99c1.102 0 1.997-.878 1.997-1.959s-.893-1.959-1.998-1.959z" fill="#fff"/></g><mask id="c" maskUnits="userSpaceOnUse" x="54" y="13" width="45" height="39"><path d="M54 13.905v34.349c.005 1.623 1.345 2.938 3.001 2.946h38.035c1.656-.008 2.996-1.323 3-2.946V13.905H54zm27.022 7.836h-9.987c-1.103 0-1.998-.878-1.998-1.959s.894-1.959 1.998-1.959h9.989c1.105 0 1.998.878 1.998 1.959s-.894 1.959-1.998 1.959h-.002z" fill="#fff"/></mask><g mask="url(#c)"><mask id="d" maskUnits="userSpaceOnUse" x="57" y="29" width="39" height="38"><path d="M76.023 66.898c10.502 0 19.016-8.348 19.016-18.646s-8.514-18.646-19.016-18.646c-10.502 0-19.015 8.348-19.015 18.646s8.513 18.646 19.015 18.646z" fill="#fff"/></mask><g mask="url(#d)"><path d="M60.027 29.607v22.88h8.511l7.485-12.71h19.019V29.592l-35.015.016zm0 0v22.88h8.511l7.485-12.71h19.019V29.592l-35.015.016z" fill="#DB4437"/><path d="M57.008 66.897h18.1l8.39-8.228v-6.182h-14.96l-11.53-19.385v33.795zm0 0h18.1l8.39-8.228v-6.182h-14.96l-11.53-19.385v33.795z" fill="#0F9D58"/><path d="M76.025 39.778l7.488 12.71-8.392 14.404h19.93V39.778H76.026zm0 0l7.488 12.71-8.392 14.404h19.93V39.778H76.026z" fill="#FFCD40"/><path d="M76.022 56.73c4.776 0 8.648-3.796 8.648-8.478 0-4.683-3.872-8.479-8.648-8.479-4.775 0-8.647 3.796-8.647 8.479 0 4.682 3.872 8.478 8.647 8.478z" fill="#F1F1F1"/><path d="M76.025 55.032c3.82 0 6.916-3.036 6.916-6.78 0-3.746-3.096-6.782-6.916-6.782-3.82 0-6.916 3.036-6.916 6.781 0 3.745 3.097 6.781 6.916 6.781z" fill="#4285F4"/></g><mask id="e" maskUnits="userSpaceOnUse" x="54" y="13" width="45" height="39"><path d="M54 13.905v34.348c.005 1.624 1.345 2.939 3.001 2.947h38.035c1.656-.008 2.996-1.323 3-2.947V13.905H54zm27.022 7.836h-9.987c-1.103 0-1.998-.878-1.998-1.96 0-1.08.894-1.958 1.998-1.958h9.989c1.105 0 1.998.877 1.998 1.959 0 1.08-.894 1.959-1.998 1.959h-.002z" fill="#fff"/></mask><g mask="url(#e)"><path d="M54 13.905h44.041v18.644H54V13.905z" fill="#212121" fill-opacity=".05"/></g><path d="M54 32.309h44.041v.242H54v-.242z" fill="#212121" fill-opacity=".02"/><path d="M54 32.55h44.041v.247H54v-.248z" fill="#fff" fill-opacity=".05"/><path d="M81.027 21.756h-9.99a1.982 1.982 0 01-1.997-1.837A1.98 1.98 0 0071.038 22h9.989a1.978 1.978 0 001.998-2.08c-.066 1.035-.94 1.839-1.998 1.837zM54 13.905v.247h44.041v-.247H54z" fill="#212121" fill-opacity=".02"/><path d="M71.02 17.831h9.987a1.98 1.98 0 011.998 1.841v-.122c0-1.081-.894-1.959-1.998-1.959h-9.988c-1.103 0-1.998.878-1.998 1.96v.122c.063-1.035.94-1.843 1.998-1.842zm24.019 33.121H57.006c-1.658-.001-3.003-1.316-3.006-2.943v.243c.005 1.625 1.345 2.94 3.001 2.947h38.035c1.656-.007 2.996-1.322 3-2.947v-.243c-.004 1.622-1.343 2.937-2.996 2.944h-.001z" fill="#231F20" fill-opacity=".1"/><path d="M54 13.905v34.348c.005 1.624 1.345 2.939 3.001 2.947h38.035c1.656-.008 2.996-1.323 3-2.947V13.905H54zm27.022 7.836h-9.989c-1.103 0-1.998-.878-1.998-1.96 0-1.08.895-1.958 1.998-1.958h9.99c1.102 0 1.997.877 1.997 1.959 0 1.08-.893 1.959-1.998 1.959z" fill="url(#paint0_radial)"/></g><path d="M119.436 48.114c1.063 0 2.021-.22 2.874-.659a6.606 6.606 0 002.162-1.767l-1.6-1.362c-.431.536-.94.958-1.52 1.275a3.988 3.988 0 01-1.916.465c-.809 0-1.53-.184-2.163-.553a3.847 3.847 0 01-1.485-1.556c-.36-.668-.536-1.441-.536-2.303 0-.896.176-1.687.527-2.373a3.86 3.86 0 011.477-1.59c.633-.37 1.353-.563 2.18-.563.659 0 1.292.158 1.889.474a5.028 5.028 0 011.547 1.275l1.6-1.354c-.668-.826-1.451-1.441-2.329-1.845a6.425 6.425 0 00-2.707-.607c-.809 0-1.565.114-2.259.334-.695.229-1.292.536-1.802.94a6.089 6.089 0 00-2.127 3.226 8.043 8.043 0 00-.264 2.083c0 .826.106 1.582.334 2.285a5.52 5.52 0 00.932 1.811c.396.51.861.94 1.406 1.3a6.078 6.078 0 001.776.8c.632.176 1.3.264 2.004.264zm12.023-9.026a4.3 4.3 0 00-1.661.316c-.51.211-.949.51-1.31.914h-.035v-5.572h-2.013V48h2.013v-4.465c0-.844.202-1.494.624-1.942.422-.449 1.002-.677 1.74-.677.633 0 1.108.185 1.424.545.317.36.484.958.484 1.802v4.746h2.012v-5.265c0-.633-.079-1.195-.237-1.67-.158-.474-.387-.852-.686-1.142a2.952 2.952 0 00-1.028-.633 3.895 3.895 0 00-1.327-.211zm10.529 0c-.536 0-1.037.132-1.511.378a3.54 3.54 0 00-1.222 1.072h-.026V39.22h-2.013V48h2.013v-4.166c0-.475.087-.905.272-1.283a2.16 2.16 0 01.826-.906c.369-.22.8-.334 1.301-.334.176 0 .378.01.606.027v-2.241c-.052 0-.131-.01-.246-.01zm5.775 9.053c.879 0 1.67-.185 2.373-.563a4.108 4.108 0 001.643-1.6c.387-.685.589-1.476.589-2.355s-.202-1.67-.589-2.364a4.143 4.143 0 00-1.634-1.6c-.704-.378-1.495-.571-2.382-.571-.914 0-1.723.202-2.426.597a4.114 4.114 0 00-1.626 1.618c-.378.685-.563 1.459-.563 2.32 0 .642.106 1.24.334 1.793a4.24 4.24 0 00.923 1.441c.396.405.888.712 1.468.94.58.23 1.204.344 1.89.344zm0-1.828c-.747 0-1.363-.255-1.846-.774-.483-.51-.721-1.151-.721-1.916 0-.773.238-1.415.712-1.933.475-.51 1.09-.774 1.855-.774.729 0 1.336.255 1.828.756.483.51.729 1.16.729 1.951 0 .782-.246 1.424-.738 1.934s-1.099.755-1.819.755zm17.297-7.225c-.651 0-1.248.132-1.785.378a3.55 3.55 0 00-1.362 1.08h-.035c-.527-.966-1.398-1.458-2.619-1.458-.519 0-1.02.123-1.494.352a3.646 3.646 0 00-1.248.993h-.027V39.22h-2.012V48h2.012v-4.377c0-.835.194-1.494.589-1.977.396-.484.905-.73 1.521-.73 1.16 0 1.749.844 1.749 2.514v4.579h2.012v-4.386c0-.835.194-1.494.58-1.977.387-.484.879-.73 1.468-.73 1.143 0 1.723.844 1.723 2.514v4.579h2.013v-5.09c0-1.282-.273-2.24-.8-2.873-.536-.633-1.301-.958-2.285-.958zm13.596 4.42c0-.843-.176-1.608-.518-2.276a3.906 3.906 0 00-1.494-1.573c-.651-.378-1.407-.571-2.25-.571a4.36 4.36 0 00-1.697.334c-.527.22-.984.527-1.362.914a4.04 4.04 0 00-.897 1.433 5.03 5.03 0 00-.325 1.837c0 .896.194 1.696.589 2.39a3.948 3.948 0 001.609 1.59c.676.37 1.441.555 2.293.555.818 0 1.539-.15 2.163-.449a4.3 4.3 0 001.538-1.212l-1.407-1.205c-.553.695-1.283 1.038-2.188 1.038-.65 0-1.195-.176-1.644-.537-.448-.351-.738-.843-.861-1.467h6.399a5.01 5.01 0 00.052-.8zm-4.157-2.592c.369 0 .703.08 1.002.229.299.149.536.351.721.615.184.263.325.571.413.923h-4.395c.141-.563.413-.993.818-1.301.404-.308.879-.466 1.441-.466zm25.488-5.704l-2.751 9.255h-.017l-2.496-9.255h-2.312l-2.514 9.228h-.017l-2.742-9.228h-2.321L188.869 48h2.03l2.672-9.615h.027L196.217 48h2.03l4.052-12.788h-2.312zm11.031 8.297c0-.844-.176-1.609-.519-2.277a3.906 3.906 0 00-1.494-1.573c-.651-.378-1.406-.571-2.25-.571-.607 0-1.169.114-1.696.334a4.08 4.08 0 00-1.363.914 4.06 4.06 0 00-.896 1.433 5.01 5.01 0 00-.325 1.837c0 .896.193 1.696.588 2.39a3.948 3.948 0 001.609 1.59c.677.37 1.441.555 2.294.555.817 0 1.538-.15 2.162-.449a4.291 4.291 0 001.538-1.212l-1.406-1.205c-.554.695-1.283 1.038-2.189 1.038-.65 0-1.195-.176-1.643-.537-.449-.351-.739-.843-.862-1.467h6.399a5 5 0 00.053-.8zm-4.158-2.593c.369 0 .703.08 1.002.229.299.149.536.351.721.615.185.263.325.571.413.923h-4.394c.14-.563.413-.993.817-1.301.404-.308.879-.466 1.441-.466zm11.075-1.828c-1.187 0-2.11.395-2.778 1.186h-.044v-5.528h-2.012V48h1.924v-1.178h.036c.668.88 1.617 1.319 2.856 1.319.598 0 1.16-.106 1.687-.317.528-.21.976-.518 1.354-.905.369-.387.668-.861.888-1.424a5.217 5.217 0 00.325-1.846c0-.518-.07-1.01-.211-1.485a4.42 4.42 0 00-.589-1.266 4.497 4.497 0 00-.896-.966 4.208 4.208 0 00-1.178-.624 4.414 4.414 0 00-1.362-.22zm-.334 7.224c-.73 0-1.336-.246-1.829-.738-.492-.492-.738-1.125-.738-1.916 0-.307.035-.598.114-.879a2.51 2.51 0 01.352-.756 2.355 2.355 0 011.239-.967c.264-.087.554-.14.853-.14.72 0 1.318.255 1.802.756.483.5.729 1.16.729 1.986 0 .782-.237 1.424-.703 1.916-.475.492-1.081.739-1.819.739zm15.574 1.829c.413 0 .826-.044 1.239-.141.404-.088.8-.237 1.187-.448.386-.202.72-.449 1.01-.747.29-.29.528-.65.703-1.081a3.64 3.64 0 00.264-1.407c0-.492-.079-.931-.22-1.318-.254-.668-.782-1.23-1.59-1.679-.37-.202-1.09-.51-2.145-.931-.896-.343-1.485-.607-1.758-.783-.43-.28-.641-.632-.633-1.072 0-.457.176-.826.51-1.09.334-.263.765-.404 1.275-.404.914 0 1.889.44 2.944 1.31l1.292-1.706c-1.345-1.054-2.76-1.573-4.236-1.573-.73 0-1.407.159-2.022.475a3.82 3.82 0 00-1.468 1.292 3.197 3.197 0 00-.545 1.81 3.38 3.38 0 00.422 1.67c.123.22.282.431.492.624.203.194.405.37.607.51.202.14.448.281.729.422.282.14.545.264.783.352.228.096.509.202.826.307.263.097.483.176.65.237.158.07.343.141.536.229.194.088.352.158.466.228.114.07.229.159.352.255.114.106.202.203.263.308.053.105.106.22.141.352.035.131.062.272.062.43 0 .492-.185.87-.545 1.152-.37.28-.897.413-1.582.413-.572 0-1.152-.14-1.732-.43a4.774 4.774 0 01-1.547-1.258l-1.371 1.688a6.563 6.563 0 002.18 1.503 6.286 6.286 0 002.461.5zm9.105 0c.519 0 .941-.044 1.266-.132.325-.088.65-.211.967-.387l-.528-1.74c-.474.255-.914.378-1.3.378-.29 0-.501-.088-.642-.282-.141-.184-.202-.5-.202-.94v-4.104h2.584V39.22h-2.584v-3.138l-2.013.22v2.918h-1.072v1.714h1.072v4.289c0 .967.211 1.687.642 2.18.43.492 1.037.738 1.81.738zm7.629 0c.879 0 1.67-.185 2.373-.563a4.117 4.117 0 001.644-1.6c.386-.685.589-1.476.589-2.355s-.203-1.67-.589-2.364a4.152 4.152 0 00-1.635-1.6c-.703-.378-1.494-.571-2.382-.571-.914 0-1.722.202-2.426.597a4.114 4.114 0 00-1.626 1.618c-.378.685-.562 1.459-.562 2.32 0 .642.105 1.24.334 1.793.22.563.527 1.037.923 1.441.395.405.887.712 1.468.94.58.23 1.204.344 1.889.344zm0-1.828c-.747 0-1.362-.255-1.846-.774-.483-.51-.72-1.151-.72-1.916 0-.773.237-1.415.712-1.933.474-.51 1.09-.774 1.854-.774.73 0 1.336.255 1.828.756.484.51.73 1.16.73 1.951 0 .782-.246 1.424-.738 1.934-.493.51-1.099.755-1.82.755zm11.487-7.225c-.536 0-1.037.132-1.511.378a3.54 3.54 0 00-1.222 1.072h-.026V39.22h-2.013V48h2.013v-4.166a2.9 2.9 0 01.272-1.283 2.16 2.16 0 01.826-.906c.369-.22.8-.334 1.301-.334.176 0 .378.01.607.027v-2.241c-.053 0-.132-.01-.247-.01zm9.704 4.42c0-.843-.176-1.608-.519-2.276a3.906 3.906 0 00-1.494-1.573c-.65-.378-1.406-.571-2.25-.571-.607 0-1.169.114-1.696.334a4.08 4.08 0 00-1.363.914 4.06 4.06 0 00-.896 1.433 5.01 5.01 0 00-.325 1.837c0 .896.193 1.696.589 2.39a3.94 3.94 0 001.608 1.59c.677.37 1.441.555 2.294.555.817 0 1.538-.15 2.162-.449a4.291 4.291 0 001.538-1.212l-1.406-1.205c-.554.695-1.283 1.038-2.189 1.038-.65 0-1.195-.176-1.643-.537-.448-.351-.739-.843-.862-1.467h6.399a5 5 0 00.053-.8zm-4.158-2.592c.37 0 .704.08 1.002.229.299.149.536.351.721.615.185.263.325.571.413.923h-4.394c.14-.563.413-.993.817-1.301.404-.308.879-.466 1.441-.466zM121.008 28h1.469l-4.329-11.367h-1.398L112.453 28h1.461l1.008-2.766h5.07L121.008 28zm-5.641-3.984l2.071-5.68h.031l2.078 5.68h-4.18zm13.438-3.805l-2.352 6.14h-.039l-2.398-6.14h-1.391l3.18 7.789h1.242l3.164-7.79h-1.406zm8.648 0v1.156h-.031a3.318 3.318 0 00-1.18-.93 3.555 3.555 0 00-1.492-.32 3.707 3.707 0 00-3.328 1.977c-.328.617-.484 1.304-.484 2.062 0 .586.093 1.125.296 1.617.196.5.461.915.805 1.25.344.344.75.61 1.219.797.469.188.969.282 1.5.282.562 0 1.078-.118 1.547-.352a3.338 3.338 0 001.179-.984h.024V28h1.242v-7.79h-1.297zm-2.57 6.703c-.781 0-1.414-.258-1.899-.773-.484-.516-.726-1.18-.726-1.977 0-.852.25-1.539.75-2.07.5-.524 1.133-.79 1.89-.79.36 0 .704.079 1.032.227.32.149.593.352.828.602a3.143 3.143 0 01.742 2.031c0 .406-.07.781-.211 1.125s-.336.64-.57.875a2.747 2.747 0 01-.836.555 2.593 2.593 0 01-1 .195zm7.031-8.148c.25 0 .469-.086.648-.266a.861.861 0 00.274-.64.9.9 0 00-.461-.79.95.95 0 00-.461-.125.894.894 0 00-.656.266.884.884 0 00-.266.648c0 .25.086.47.266.641.172.18.39.266.656.266zM141.258 28h1.289v-7.79h-1.289V28zm4 0h1.289V16.219h-1.289V28zm9.93-7.79v1.157h-.032a3.315 3.315 0 00-1.179-.93 3.556 3.556 0 00-1.493-.32 3.712 3.712 0 00-3.328 1.977c-.328.617-.484 1.304-.484 2.062 0 .586.094 1.125.297 1.617.195.5.461.915.804 1.25.344.344.75.61 1.219.797.469.188.969.282 1.5.282a3.41 3.41 0 001.547-.352 3.341 3.341 0 001.18-.984h.023V28h1.242v-7.79h-1.296zm-2.571 6.704c-.781 0-1.414-.258-1.898-.773-.485-.516-.727-1.18-.727-1.977 0-.852.25-1.539.75-2.07.5-.524 1.133-.79 1.891-.79.359 0 .703.079 1.031.227.32.149.594.352.828.602a3.143 3.143 0 01.742 2.031c0 .406-.07.781-.211 1.125-.14.344-.335.64-.57.875a2.735 2.735 0 01-.836.555 2.59 2.59 0 01-1 .195zm10.266-6.797c-.539 0-1.039.11-1.5.32a3.224 3.224 0 00-1.172.93h-.031V16.22h-1.297V28h1.242v-1.234h.023a3.2 3.2 0 001.172.992c.469.234.985.344 1.555.344.531 0 1.031-.094 1.5-.282a3.603 3.603 0 002.023-2.047 4.334 4.334 0 00.297-1.617c0-.758-.164-1.445-.492-2.062a3.725 3.725 0 00-1.359-1.446 3.748 3.748 0 00-1.961-.53zm-.133 6.797a2.53 2.53 0 01-1-.195 2.53 2.53 0 01-1.406-1.43 2.936 2.936 0 01-.211-1.125c0-.523.109-1.008.336-1.445.219-.438.531-.782.929-1.032a2.47 2.47 0 011.336-.382c.75 0 1.383.265 1.883.789.5.531.758 1.218.758 2.07 0 .797-.242 1.461-.727 1.977-.484.515-1.117.773-1.898.773zM168.805 28h1.289V16.219h-1.289V28zm10.75-4.016a4.35 4.35 0 00-.453-1.984 3.402 3.402 0 00-1.274-1.383 3.662 3.662 0 00-1.898-.5c-.524 0-1.016.102-1.469.297a3.677 3.677 0 00-1.188.82 3.698 3.698 0 00-.781 1.266 4.369 4.369 0 00-.289 1.61c0 .585.094 1.124.297 1.624.195.5.469.922.812 1.266.344.344.75.617 1.227.813.477.195.992.289 1.539.289.68 0 1.289-.125 1.82-.391a3.817 3.817 0 001.329-1.078l-.907-.774c-.265.32-.578.578-.945.766a2.748 2.748 0 01-1.25.281c-.703 0-1.289-.21-1.758-.648-.476-.438-.758-1.016-.836-1.742h5.985c.023-.157.039-.328.039-.532zM176 21.312c.609 0 1.109.196 1.508.579.398.39.648.906.758 1.547h-4.704c.118-.649.399-1.165.844-1.547a2.37 2.37 0 011.594-.578zm10.695-2.546c.25 0 .469-.086.649-.266a.864.864 0 00.273-.64.9.9 0 00-.461-.79.947.947 0 00-.461-.125.896.896 0 00-.656.266.884.884 0 00-.266.648c0 .25.086.47.266.641.172.18.391.266.656.266zM186.039 28h1.289v-7.79h-1.289V28zm8.031-7.883c-.586 0-1.125.125-1.609.375-.492.25-.899.602-1.219 1.063h-.023V20.21h-1.297V28h1.297v-3.89c0-.86.219-1.547.664-2.047.445-.5 1.039-.758 1.781-.758.297 0 .555.047.781.125.219.086.422.218.594.406.172.187.297.445.391.758.093.32.14.703.14 1.148v4.266h1.297v-4.625c0-1.078-.25-1.899-.75-2.445-.5-.547-1.179-.82-2.047-.82zm11.742 7.985c.282 0 .555-.024.805-.07.25-.048.445-.11.602-.173.148-.062.304-.148.476-.242l-.343-1.133c-.469.266-.907.399-1.313.399-.359 0-.601-.11-.742-.328-.141-.22-.211-.578-.211-1.07v-4.15h2.578v-1.124h-2.578v-2.805l-1.297.14v2.665h-.992v1.125h.992v4.344c0 1.617.672 2.422 2.023 2.422zm7.821-7.985a4.4 4.4 0 00-.86.086 4.093 4.093 0 00-.773.258 3.04 3.04 0 00-.68.43 3.016 3.016 0 00-.554.586h-.032v-5.258h-1.296V28h1.296v-3.922c0-.867.219-1.547.672-2.039.453-.484 1.071-.734 1.852-.734 1.265 0 1.906.797 1.906 2.39v4.313h1.297v-4.68c0-1.07-.258-1.875-.758-2.406-.5-.531-1.195-.805-2.07-.805zm12.031 3.867c0-.734-.156-1.398-.453-1.984a3.406 3.406 0 00-1.273-1.383 3.665 3.665 0 00-1.899-.5 3.661 3.661 0 00-2.656 1.117 3.683 3.683 0 00-.781 1.266c-.196.5-.29 1.031-.29 1.61 0 .585.094 1.124.297 1.624.196.5.469.922.813 1.266s.75.617 1.226.813c.477.195.993.289 1.54.289.679 0 1.289-.125 1.82-.391a3.823 3.823 0 001.328-1.078l-.906-.774a2.98 2.98 0 01-.946.766 2.748 2.748 0 01-1.25.281c-.703 0-1.289-.21-1.757-.648-.477-.438-.758-1.016-.836-1.742h5.984c.023-.157.039-.328.039-.532zm-3.555-2.672c.61 0 1.11.196 1.508.579.399.39.649.906.758 1.547h-4.703c.117-.649.398-1.165.844-1.547a2.365 2.365 0 011.593-.578z" fill="#5B5863"/><defs><radialGradient id="paint0_radial" cx="0" cy="0" r="1" gradientUnits="userSpaceOnUse" gradientTransform="matrix(56.9463 0 0 56.9479 53.593 13.743)"><stop stop-color="#fff" stop-opacity=".1"/><stop offset="1" stop-color="#fff" stop-opacity="0"/></radialGradient></defs></svg>