<svg width="72" height="73" fill="none" xmlns="http://www.w3.org/2000/svg"><g clip-path="url(#clip0)"><path d="M71.994 63.787l-.167-3.424a1.2 1.2 0 00-1.199-1.142H67.2v-14.4h-2.4v14.4H43.877a3.227 3.227 0 00-2.297.952.843.843 0 01-.6.248H30.849a.843.843 0 01-.6-.248 3.226 3.226 0 00-2.297-.952H7.2v-32.4a3.604 3.604 0 013.6-3.6v33.6h2.4v-39.6c0-2.085 1.703-3.6 4.05-3.6H24v-2.4h-6.75c-3.677 0-6.45 2.58-6.45 6v3.6a6.007 6.007 0 00-6 6v32.4H1.2a1.2 1.2 0 00-1.2 1.2v3.6a4.805 4.805 0 004.8 4.8h62.4a4.8 4.8 0 004.794-5.034zm-3.056 1.89a2.378 2.378 0 01-1.738.744H4.8a2.403 2.403 0 01-2.4-2.4v-2.4h25.552c.225 0 .44.09.6.249a3.226 3.226 0 002.297.951H40.98c.862.003 1.69-.34 2.297-.951a.843.843 0 01.6-.249h25.608l.112 2.284a2.378 2.378 0 01-.66 1.772z" fill="#62D5B4"/><path d="M58.8 44.821h2.4v12h-2.4v-12zm-42-28.8h2.4v2.4h-2.4v-2.4zm4.8 0H24v2.4h-2.4v-2.4zm-4.8 4.8H24v2.4h-7.2v-2.4z" fill="#93E7CF"/><path d="M32.4 42.421h4.41l-1.963 6.87a1.2 1.2 0 001.842 1.313l11.69-8.183H66a6.007 6.007 0 006-6v-26.4a6.007 6.007 0 00-6-6H32.4a6.007 6.007 0 00-6 6v26.4a6.007 6.007 0 006 6zm-3.6-32.4a3.604 3.604 0 013.6-3.6H66a3.604 3.604 0 013.6 3.6v26.4a3.604 3.604 0 01-3.6 3.6H48a1.2 1.2 0 00-.688.217l-9.228 6.46 1.47-5.147a1.2 1.2 0 00-1.154-1.53h-6a3.604 3.604 0 01-3.6-3.6v-26.4z" fill="#62D5B4"/><path d="M16.8 25.621h2.4v2.4h-2.4v-2.4zm0 4.8H24v2.4h-7.2v-2.4zm0 4.8H24v2.4h-7.2v-2.4zm0 4.8h8.4v2.4h-8.4v-2.4zm0 4.8h4.8v2.4h-4.8v-2.4zm0 4.8h15.6v2.4H16.8v-2.4zm30-4.8h8.4v2.4h-8.4v-2.4zm-6 4.8h14.4v2.4H40.8v-2.4zm-24 4.8h30v2.4h-30v-2.4zm4.8-28.8H24v2.4h-2.4v-2.4zm2.401 19.2h8.4v2.4h-8.4v-2.4zm25.199 9.6h6v2.4h-6v-2.4z" fill="#93E7CF"/><path d="M43.2 31.756l-7.038 1.983a2.819 2.819 0 00-.71-.663 1.2 1.2 0 00-1.305 2.014.536.536 0 01.145.714 1.2 1.2 0 102.055 1.24l.003-.006a2.87 2.87 0 00.361-.96l7.416-2.09c.09.022.18.033.273.034H54a1.2 1.2 0 00.273-.033l7.415 2.09c.063.338.185.663.361.96a1.2 1.2 0 002.059-1.235.536.536 0 01.145-.714 1.2 1.2 0 00-1.306-2.014 2.823 2.823 0 00-.71.663L55.2 31.758v-.87l7.036-1.983c.196.262.437.487.71.666a1.2 1.2 0 101.307-2.014.536.536 0 01-.145-.714 1.2 1.2 0 00-2.048-1.252l-.01.018a2.9 2.9 0 00-.36.956l-2.024.57c.22-.474.334-.99.334-1.513v-6c0-5.964-4.836-10.8-10.8-10.8-5.965 0-10.8 4.835-10.8 10.8v6c0 .523.114 1.04.334 1.513l-2.023-.57a2.9 2.9 0 00-.36-.957 1.2 1.2 0 00-2.059 1.235.534.534 0 01-.145.713 1.2 1.2 0 101.306 2.014c.274-.179.515-.404.711-.665l7.036 1.983v.87zm-2.4-12.135a8.4 8.4 0 1116.8 0v6a1.2 1.2 0 01-1.2 1.2H54a1.2 1.2 0 00-1.2 1.2v3.6h-7.2v-3.6a1.2 1.2 0 00-1.2-1.2H42a1.2 1.2 0 01-1.2-1.2v-6z" fill="#62D5B4"/><path d="M45.601 23.221a2.4 2.4 0 100-4.8 2.4 2.4 0 000 4.8zm7.199 0a2.4 2.4 0 100-4.8 2.4 2.4 0 000 4.8zm-4.801 1.2h2.4v3.6h-2.4v-3.6z" fill="#62D5B4"/></g><defs><clipPath id="clip0"><path fill="#fff" d="M0 .421h72v72H0z"/></clipPath></defs></svg>