<svg width="68" height="68" fill="none" xmlns="http://www.w3.org/2000/svg"><path d="M36.133 12.667h12.8a8.534 8.534 0 018.534 8.533v6.4" stroke="#B1ACF1" stroke-width="3" stroke-miterlimit="10"/><path d="M44.667 4.133l-8.534 8.534 8.534 8.533" stroke="#B1ACF1" stroke-width="3" stroke-miterlimit="10" stroke-linecap="square"/><path d="M31.866 55.333h-12.8a8.534 8.534 0 01-8.533-8.533v-6.4" stroke="#B1ACF1" stroke-width="3" stroke-miterlimit="10"/><path d="M23.334 63.867l8.533-8.534-8.534-8.533" stroke="#B1ACF1" stroke-width="3" stroke-miterlimit="10" stroke-linecap="square"/><path d="M27.6 29.733v-2.096a4.266 4.266 0 00-2.098-3.679C23.427 22.731 19.83 21.2 14.8 21.2c-5.095 0-8.669 1.521-10.722 2.747A4.262 4.262 0 002 27.614v2.12h25.6zM14.8 14.8a6.4 6.4 0 100-12.8 6.4 6.4 0 000 12.8zM66 66v-2.096a4.266 4.266 0 00-2.098-3.679c-2.075-1.228-5.672-2.758-10.702-2.758-5.096 0-8.669 1.52-10.722 2.746A4.262 4.262 0 0040.4 63.88V66H66zM53.2 51.067a6.4 6.4 0 100-12.8 6.4 6.4 0 000 12.8z" stroke="#766CF0" stroke-width="3" stroke-miterlimit="10" stroke-linecap="square"/></svg>