<svg width="48" height="20" fill="none" xmlns="http://www.w3.org/2000/svg"><path d="M22.684 2.799V7.6h2.96c.7 0 1.291-.242 1.749-.713.47-.47.713-1.035.713-1.695 0-.645-.243-1.197-.713-1.668-.458-.484-1.05-.726-1.75-.726h-2.959zm0 6.498v5.57h-1.776V1.103h4.695c1.198 0 2.207.403 3.04 1.197.848.794 1.279 1.762 1.279 2.906 0 1.17-.417 2.139-1.278 2.92-.82.78-1.83 1.17-3.04 1.17h-2.92zm9.028 2.691c0 .458.202.848.592 1.157.39.31.848.458 1.372.458.74 0 1.413-.283 1.991-.82.579-.553.875-1.198.875-1.938-.552-.43-1.319-.66-2.314-.66-.713 0-1.318.175-1.803.525-.47.337-.713.767-.713 1.278zM34 5.141c1.305 0 2.341.35 3.094 1.049.754.7 1.13 1.655 1.13 2.879v5.812H36.53v-1.305h-.081c-.727 1.076-1.709 1.614-2.92 1.614-1.035 0-1.91-.31-2.61-.928-.7-.619-1.049-1.386-1.049-2.314 0-.969.363-1.749 1.103-2.327.74-.579 1.722-.861 2.96-.861 1.05 0 1.924.188 2.596.578v-.404c0-.618-.242-1.143-.726-1.56a2.505 2.505 0 00-1.709-.646c-.982 0-1.775.417-2.354 1.251l-1.56-.982c.874-1.238 2.139-1.856 3.82-1.856zm13.96.309l-5.92 13.574h-1.816l2.193-4.75L38.53 5.45h1.924l2.812 6.78h.04l2.731-6.78h1.924z" fill="#5F6368"/><path d="M15.525 8.1c0-.55-.054-1.089-.135-1.614H7.924v3.04h4.278a3.639 3.639 0 01-1.588 2.409v1.977h2.557c1.493-1.372 2.354-3.403 2.354-5.811z" fill="#4285F4"/><path d="M7.924 15.82c2.14 0 3.942-.7 5.247-1.91l-2.556-1.978c-.713.484-1.628.753-2.69.753-2.073 0-3.822-1.386-4.44-3.269H.848v2.031a7.889 7.889 0 007.076 4.373z" fill="#34A853"/><path d="M3.484 9.431a4.735 4.735 0 01-.242-1.52c0-.525.094-1.036.242-1.52V4.359H.848a7.856 7.856 0 000 7.103l2.636-2.03z" fill="#FABB05"/><path d="M7.924 3.135c1.17 0 2.22.403 3.04 1.184l2.26-2.247C11.853.794 10.065 0 7.925 0A7.925 7.925 0 00.848 4.359L3.47 6.39c.632-1.87 2.395-3.255 4.453-3.255z" fill="#E94235"/></svg>