<svg width="139" height="40" fill="none" xmlns="http://www.w3.org/2000/svg"><rect width="139" height="40" rx="3" fill="#000"/><path d="M32.48 23.55l4.873-2.666c.55-.302 1.128-1.07 0-1.686l-4.875-2.659-3.49 3.516 3.493 3.496z" fill="#F49C71"/><path d="M28.755 20.045L17.594 31.292c.252.032.555-.035.903-.226l13.752-7.527-3.494-3.494z" fill="#D54A6D"/><path d="M28.764 19.849l3.489-3.517-13.747-7.5a1.331 1.331 0 00-.912-.156l11.17 11.173z" fill="#ADD69E"/><path d="M28.729 19.823L17.559 8.65c-.463.103-.84.503-.84 1.305V29.73c0 .755.298 1.287.847 1.34L28.73 19.823v.001z" fill="#24B9C2"/><path fill-rule="evenodd" clip-rule="evenodd" d="M56.062 24.483v.755c0 3.02-2.221 4.605-4.579 4.605-2.986 0-5.01-2.228-5.01-4.989 0-2.822 2.283-5 5.035-5 2.407 0 3.937 1.41 4.344 2.958l-1.95.594c-.21-.83-1.11-1.646-2.419-1.646-1.629 0-2.974 1.324-2.974 3.082 0 1.684 1.222 3.095 2.974 3.095 1.309 0 2.259-.681 2.493-1.634H51.04v-1.82h5.023zM57 26.402c0-1.969 1.617-3.466 3.616-3.466 1.987 0 3.58 1.46 3.58 3.429 0 1.993-1.617 3.478-3.604 3.478-2 0-3.592-1.448-3.592-3.441zm1.975-.025c0 1.003.728 1.696 1.629 1.696.9 0 1.617-.693 1.617-1.696 0-.99-.728-1.683-1.63-1.683-.9 0-1.616.693-1.616 1.683zm6.183.025c0-1.969 1.617-3.466 3.616-3.466 1.987 0 3.58 1.46 3.58 3.429 0 1.993-1.618 3.478-3.605 3.478-1.999 0-3.591-1.448-3.591-3.441zm1.975-.025c0 1.003.728 1.696 1.629 1.696.9 0 1.617-.693 1.617-1.696 0-.99-.729-1.683-1.63-1.683-.9 0-1.616.693-1.616 1.683zm13.218-3.293v6.512c0 2.277-1.53 3.404-3.555 3.404-2.11 0-3.221-1.164-3.468-2.377l1.765-.545c.173.62.568 1.238 1.69 1.238.89 0 1.655-.482 1.655-1.67v-.83h-.025c-.593.767-1.432.879-1.9.879-1.901 0-3.185-1.486-3.185-3.343 0-1.67 1.21-3.367 3.11-3.367.407 0 1.32.087 2 .904h.024v-.805h1.888zm-1.864 3.268c0-.978-.703-1.646-1.605-1.646-.888 0-1.604.68-1.604 1.646 0 .99.704 1.66 1.604 1.66.89 0 1.605-.67 1.605-1.66zm3.653-6.746h1.938v10.089H82.14v-10.09zm5.32 6.04h2.838c-.037-.482-.444-1.15-1.407-1.15-.864 0-1.358.717-1.432 1.15zm4.739 1.276H87.41c.123.83.827 1.3 1.63 1.3.554 0 1.171-.335 1.394-.88l1.58.545c-.432 1.275-1.654 1.956-2.95 1.956-2 0-3.616-1.411-3.616-3.466 0-1.906 1.592-3.454 3.492-3.454 1.963 0 3.283 1.35 3.283 3.306 0 .235 0 .47-.025.693zm11.773-3.813c0 2.142-1.505 3.169-3.529 3.169h-1.518v3.417h-2v-9.693h3.592c1.937 0 3.455 1.052 3.455 3.107zm-2.011.05c0-.941-.79-1.263-1.617-1.263h-1.42v2.513h1.432c.79 0 1.605-.347 1.605-1.25zm3.27-3.553h1.938v10.089h-1.938v-10.09zm5.529 10.212c-1.147 0-2.184-.742-2.184-1.968v-.05c0-1.584 1.617-2.03 2.9-2.03h.642c.358 0 .518-.185.518-.457 0-.421-.345-.818-1.036-.818-.593 0-1.037.347-1.185.904l-1.691-.384c.222-1.41 1.58-2.08 2.962-2.08 1.641 0 2.839.88 2.839 2.662v4.098h-1.778v-.817l-.024-.013c-.494.706-1.247.954-1.963.954zm.556-1.41c.851 0 1.308-.607 1.308-1.276v-.148h-1.148c-.395 0-.962.235-.962.755 0 .47.395.668.802.668zm5.097 4.542l1.617-3.96-2.777-5.906h2.123l1.641 3.776 1.469-3.776h1.987l-3.999 9.866h-2.061zM51.301 10.128c-.13-.519-.694-1.246-1.758-1.246-1.18 0-2.083.952-2.083 2.22 0 1.254.856 2.237 2.075 2.237 1.064 0 1.666-.62 1.797-1.362h-2.167v-.867h3.193v.333c0 1.532-1.064 2.77-2.815 2.77-1.82 0-3.07-1.323-3.07-3.087C46.473 9.316 47.799 8 49.55 8c1.458 0 2.407.874 2.685 1.834l-.934.294zm6.017-2.043v.859h-2.916v1.687h2.654v.858h-2.654v1.788h2.947v.866h-3.896V8.085h3.865zm2.545.882H57.95v-.882h4.783v.882h-1.92v5.176h-.95V8.967zm6.503 5.176h-.949V8.085h.949v6.058zm2.83-5.176h-1.912v-.882h4.782v.882h-1.92v5.176h-.95V8.967zm5.153 2.159A3.096 3.096 0 0177.458 8c1.712 0 3.093 1.33 3.093 3.103 0 1.787-1.412 3.11-3.116 3.11-1.713 0-3.086-1.3-3.086-3.087zm.995-.023c0 1.23.918 2.228 2.106 2.228 1.18 0 2.106-.998 2.106-2.228 0-1.23-.926-2.221-2.106-2.221-1.188 0-2.106.99-2.106 2.22zm11.386 3.04h-.988l-3.116-4.665v4.665h-.933V8.085h1.118l2.978 4.464V8.085h.94v6.058z" fill="#fff"/></svg>