<svg width="230" height="72" fill="none" xmlns="http://www.w3.org/2000/svg"><rect width="230" height="72" rx="5" fill="#000"/><path d="M58.21 40.475l6.248-3.42c.705-.386 1.446-1.371 0-2.16l-6.25-3.41-4.476 4.509 4.479 4.481z" fill="#F49C71"/><path d="M53.435 35.98L39.124 50.402c.324.04.712-.045 1.159-.29l17.632-9.651-4.48-4.48z" fill="#D54A6D"/><path d="M53.447 35.73l4.473-4.509-17.626-9.617c-.383-.21-.8-.281-1.17-.2L53.446 35.73z" fill="#ADD69E"/><path d="M53.399 35.697L39.077 21.371c-.593.132-1.077.644-1.077 1.674v25.353c0 .969.382 1.65 1.087 1.72l14.312-14.422v.001z" fill="#24B9C2"/><path fill-rule="evenodd" clip-rule="evenodd" d="M93.392 41.736v1.087c0 4.35-3.244 6.631-6.687 6.631-4.362 0-7.318-3.208-7.318-7.184 0-4.064 3.334-7.201 7.354-7.201 3.515 0 5.75 2.032 6.345 4.26l-2.848.856c-.306-1.195-1.622-2.371-3.533-2.371-2.38 0-4.344 1.907-4.344 4.438 0 2.425 1.784 4.457 4.344 4.457 1.91 0 3.299-.98 3.641-2.353h-4.29v-2.62h7.336zm1.37 2.763c0-2.835 2.362-4.992 5.282-4.992 2.902 0 5.227 2.104 5.227 4.938 0 2.87-2.361 5.01-5.263 5.01-2.92 0-5.246-2.086-5.246-4.956zm2.884-.036c0 1.444 1.064 2.442 2.38 2.442 1.316 0 2.361-.998 2.361-2.442 0-1.426-1.063-2.424-2.379-2.424s-2.362.998-2.362 2.424zm9.031.036c0-2.835 2.361-4.992 5.281-4.992 2.903 0 5.228 2.104 5.228 4.938 0 2.87-2.361 5.01-5.264 5.01-2.92 0-5.245-2.086-5.245-4.956zm2.884-.036c0 1.444 1.064 2.442 2.379 2.442 1.316 0 2.362-.998 2.362-2.442 0-1.426-1.064-2.424-2.38-2.424-1.315 0-2.361.998-2.361 2.424zm19.305-4.742v9.377c0 3.28-2.235 4.902-5.191 4.902-3.082 0-4.705-1.676-5.065-3.423l2.577-.784c.253.891.83 1.783 2.47 1.783 1.298 0 2.415-.696 2.415-2.407v-1.194h-.036c-.865 1.105-2.091 1.265-2.776 1.265-2.776 0-4.65-2.139-4.65-4.813 0-2.406 1.766-4.848 4.542-4.848.595 0 1.929.124 2.92 1.3h.036v-1.158h2.758zm-2.722 4.706c0-1.408-1.027-2.37-2.343-2.37-1.298 0-2.343.98-2.343 2.37 0 1.426 1.027 2.389 2.343 2.389 1.298 0 2.343-.963 2.343-2.389zm5.336-9.715h2.83V49.24h-2.83V34.712zm7.769 8.7h4.146c-.054-.696-.649-1.659-2.055-1.659-1.262 0-1.983 1.034-2.091 1.658zm6.922 1.835h-6.994c.18 1.195 1.207 1.872 2.379 1.872.811 0 1.712-.481 2.037-1.266l2.307.785c-.631 1.836-2.415 2.816-4.308 2.816-2.92 0-5.281-2.032-5.281-4.991 0-2.745 2.325-4.974 5.101-4.974 2.866 0 4.795 1.944 4.795 4.76 0 .339 0 .677-.036.998zm17.196-5.49c0 3.084-2.199 4.563-5.155 4.563h-2.218v4.92h-2.92V35.282h5.246c2.83 0 5.047 1.516 5.047 4.475zm-2.938.071c0-1.355-1.154-1.818-2.362-1.818h-2.073v3.619h2.091c1.154 0 2.344-.5 2.344-1.8zm4.776-5.116h2.83V49.24h-2.83V34.712zm8.076 14.707c-1.677 0-3.191-1.07-3.191-2.835v-.071c0-2.282 2.362-2.923 4.236-2.923h.937c.523 0 .758-.268.758-.66 0-.606-.505-1.177-1.515-1.177-.865 0-1.514.5-1.73 1.302l-2.47-.553c.325-2.032 2.308-2.995 4.327-2.995 2.397 0 4.145 1.266 4.145 3.833v5.9h-2.595v-1.176l-.036-.018c-.721 1.016-1.821 1.373-2.866 1.373zm.811-2.032c1.244 0 1.911-.874 1.911-1.837v-.213h-1.677c-.577 0-1.406.338-1.406 1.087 0 .677.577.962 1.172.962zm7.444 6.542l2.362-5.705-4.056-8.503h3.1l2.398 5.437 2.145-5.437h2.902l-5.84 14.208h-3.011zM86.439 21.064c-.191-.747-1.014-1.794-2.568-1.794-1.724 0-3.042 1.37-3.042 3.198 0 1.805 1.25 3.22 3.03 3.22 1.555 0 2.434-.892 2.625-1.961H83.32v-1.248h4.663v.479c0 2.206-1.554 3.989-4.111 3.989-2.66 0-4.484-1.906-4.484-4.446 0-2.607 1.937-4.501 4.495-4.501 2.129 0 3.515 1.259 3.92 2.64l-1.363.424zm8.788-2.941v1.236h-4.259v2.43h3.875v1.236h-3.875v2.573h4.303v1.248h-5.689v-8.723h5.645zm3.717 1.27H96.15v-1.27h6.985v1.27h-2.805v7.453h-1.386v-7.453zm9.497 7.453h-1.385v-8.723h1.385v8.723zm4.135-7.453h-2.794v-1.27h6.985v1.27h-2.805v7.453h-1.386v-7.453zm7.525 3.108c0-2.54 2.04-4.501 4.541-4.501 2.501 0 4.517 1.916 4.517 4.468 0 2.573-2.061 4.479-4.551 4.479-2.501 0-4.507-1.872-4.507-4.446zm1.454-.033c0 1.771 1.34 3.208 3.075 3.208 1.724 0 3.076-1.437 3.076-3.208 0-1.772-1.352-3.198-3.076-3.198-1.735 0-3.075 1.426-3.075 3.198zm16.628 4.378h-1.442l-4.551-6.718v6.718h-1.363v-8.723h1.633l4.349 6.428v-6.428h1.374v8.723z" fill="#fff"/></svg>