<svg width="26" height="11" fill="none" xmlns="http://www.w3.org/2000/svg"><path d="M12.297 1.519v2.604H13.9c.38 0 .7-.132.948-.387.255-.255.387-.561.387-.919 0-.35-.132-.649-.387-.904a1.255 1.255 0 00-.948-.394h-1.604zm0 3.523V8.06h-.963V.601h2.545c.65 0 1.196.218 1.649.648.459.43.692.956.692 1.575 0 .635-.226 1.16-.692 1.583-.445.423-.992.635-1.649.635h-1.582zM17.19 6.5c0 .248.11.46.322.628.211.167.459.247.743.247.402 0 .766-.153 1.08-.444.313-.3.474-.65.474-1.05-.3-.234-.715-.358-1.255-.358-.386 0-.714.095-.977.284-.255.183-.386.416-.386.693zm1.24-3.712c.708 0 1.27.19 1.678.569.408.38.612.897.612 1.56v3.151h-.918v-.707h-.044c-.394.583-.927.875-1.583.875-.561 0-1.035-.168-1.415-.503a1.603 1.603 0 01-.569-1.255c0-.525.197-.948.598-1.261.402-.314.934-.467 1.605-.467.569 0 1.043.102 1.408.314v-.22c0-.335-.132-.62-.394-.845a1.358 1.358 0 00-.927-.35c-.532 0-.962.226-1.276.678l-.846-.532c.474-.671 1.16-1.007 2.071-1.007zm7.57.165l-3.21 7.359h-.984l1.188-2.575-2.107-4.784h1.043l1.524 3.676h.022l1.48-3.676H26zM8.416 4.39c0-.299-.03-.59-.073-.875H4.295v1.648h2.32c-.103.547-.402 1-.861 1.306V7.54h1.385c.81-.744 1.277-1.845 1.277-3.15z" fill="#fff"/><path d="M4.295 8.577c1.16 0 2.137-.38 2.844-1.036L5.754 6.47c-.387.263-.883.409-1.459.409-1.123 0-2.071-.751-2.407-1.773H.46v1.102a4.276 4.276 0 003.836 2.37z" fill="#fff"/><path d="M1.889 5.112a2.567 2.567 0 01-.131-.824c0-.284.05-.561.13-.824V2.363H.46a4.259 4.259 0 000 3.85l1.43-1.1z" fill="#fff"/><path d="M4.295 1.7a2.34 2.34 0 011.648.641L7.17 1.123A4.128 4.128 0 004.295 0 4.296 4.296 0 00.46 2.363l1.422 1.101C2.224 2.45 3.18 1.7 4.295 1.7z" fill="#fff"/></svg>