<svg width="69" height="72" fill="none" xmlns="http://www.w3.org/2000/svg"><g clip-path="url(#clip0)" stroke-width="3" stroke-miterlimit="10"><path d="M58.424 20.528l-.301-.302c-1.359-1.358-1.66-3.17-.755-3.924l3.622-3.472c1.359-1.207 3.472-1.207 4.68.302l.302.302c1.358 1.358 1.358 3.472 0 4.68l-3.623 3.47c-.755.756-2.566.303-3.925-1.056zM28.236 70.943s2.868-3.019 4.528-4.528c12.377.906 16.906-7.547 18.113-9.057m8.453-8.603l-.301-.151c-1.359-1.057-1.812-2.717-1.057-3.472l3.019-3.472c1.056-1.207 3.019-1.358 4.377-.302l.302.151c1.359 1.057 1.51 3.02.453 4.378l-3.019 3.471c-.755.755-2.415.604-3.773-.603zM29.745 60.377c3.321-9.358 0-17.81-2.867-21.585 1.207-3.773 1.81-6.34 2.113-10.867.302-2.567-.906-4.68-1.963-6.19-1.207-1.66-3.924-1.207-4.528.605-2.415 7.849-2.868 10.113-4.528 14.037-1.66 4.378-.755 10.717-1.51 12.529 0 .302-3.32 5.434-3.32 5.434m46.339-14.944l-.302-.15c-1.358-1.208-1.81-2.718-1.056-3.623l3.019-3.472c1.056-1.359 3.17-1.359 4.377-.302l.302.151c1.359 1.208 1.51 3.17.453 4.377l-3.02 3.472c-.754.906-2.565.604-3.773-.453zm0-9.358l-.302-.151c-1.358-1.208-1.81-2.717-1.056-3.623l3.019-3.471c1.056-1.359 3.17-1.359 4.377-.302l.302.15c1.359 1.208 1.51 3.17.453 4.378l-3.02 3.472c-.754.905-2.565.754-3.773-.453z" stroke="#766CF0"/><path d="M40.312 52.83h4.528" stroke="#B3ADF8"/><path d="M59.934 13.585V6.038c0-2.566-1.962-4.529-4.528-4.529h-25.66c-2.566 0-4.529 1.963-4.529 4.529v15.094m4.529 36.227h25.66c2.566 0 4.528-1.963 4.528-4.529v-3.018M29.745 70.943L10.123 51.321l-7.547 7.547L14.65 70.943" stroke="#766CF0"/><path d="M10.123 58.868l1.509 1.51" stroke="#B3ADF8"/><path d="M31.255 48.302h27.17M25.217 9.057h34.717" stroke="#766CF0"/><path d="M34 16h5m-5 5h5m-5 5h5m-5 5h5m-5 5h5m-5 5h5m2-25h5m2 0h5m-12 5h5m2 0h5m-12 5h5m2 0h5m-12 5h5m2 0h5m-12 5h5m2 0h5m-12 5h5m2 0h5" stroke="#B3ADF8"/></g><defs><clipPath id="clip0"><path fill="#fff" d="M.462 0h68.076v72H.462z"/></clipPath></defs></svg>