<svg width="73" height="73" fill="none" xmlns="http://www.w3.org/2000/svg"><g clip-path="url(#clip0)"><path d="M33.594 25.533c0 .365-.13.678-.39.938a1.3 1.3 0 01-.955.39 1.3 1.3 0 01-.955-.39 1.3 1.3 0 01-.39-.955v-9.53c0-.353.136-.672.407-.954.271-.282.59-.423.955-.423s.677.135.938.406c.26.271.39.596.39.971v9.547zm4.883-2.853v2.705c0 .365-.133.68-.4.947a1.29 1.29 0 01-.945.398c-.365 0-.68-.133-.947-.398a1.33 1.33 0 01-.398-.98v-9.33c0-.399.135-.733.407-1.005.27-.27.6-.406.987-.406h3.154c1.25 0 2.27.376 3.055 1.129.786.752 1.179 1.732 1.179 2.938 0 1.195-.371 2.162-1.112 2.897-.742.736-1.727 1.104-2.956 1.104h-2.024zm0-5.662v3.303h1.709c.432 0 .808-.16 1.129-.48.321-.322.482-.704.482-1.146 0-.465-.152-.86-.457-1.188a1.492 1.492 0 00-1.138-.49h-1.725z" fill="#C562F3"/><path d="M63.953 50.972a1.407 1.407 0 00-2.269 1.665 30.995 30.995 0 014.59 9.027c-3.012-3.091-7.482-5.664-12.95-7.411a45.227 45.227 0 00-.451-1.347c-1.706-4.794-4.051-8.728-6.826-11.48l.041-.051c3.022.974 5.869 2.4 8.474 4.25a1.406 1.406 0 101.63-2.294 33.906 33.906 0 00-8.248-4.3c4.63-6.026 8.481-12.586 8.481-18.604C56.425 9.439 47.487.5 36.5.5S16.575 9.439 16.575 20.427c0 4.28 1.958 9.233 5.986 15.139a78.301 78.301 0 002.514 3.462A34.326 34.326 0 009.43 50.463c-4.554 5.968-6.961 13.102-6.961 20.63 0 .777.63 1.407 1.407 1.407h65.248c.777 0 1.407-.63 1.407-1.407 0-7.302-2.275-14.26-6.578-20.121zM50.028 53.33a54.907 54.907 0 00-6.907-1.2 6.74 6.74 0 00-2.58-4.297 251.198 251.198 0 003.698-4.237c2.344 2.386 4.314 5.748 5.789 9.734zm-30.64-32.903c0-9.436 7.677-17.113 17.112-17.113 9.435 0 17.111 7.677 17.111 17.113 0 8.502-9.72 19.416-16.153 26.638-.328.367-.647.726-.957 1.076l-.924-1.04C29.13 39.86 19.389 28.915 19.389 20.428zm13.073 27.407a6.738 6.738 0 00-2.579 4.297 54.77 54.77 0 00-6.911 1.2c1.476-3.99 3.448-7.354 5.795-9.742a243.562 243.562 0 003.695 4.245zM17.194 69.686H5.4c.821-4.92 5.896-9.352 13.346-12.122-.928 3.816-1.456 7.919-1.552 12.122zm-10.42-8.072c3.03-9.427 10.462-17.122 20.153-20.242l.036.044c-2.78 2.752-5.128 6.69-6.835 11.487-.158.443-.308.895-.454 1.35-5.438 1.738-9.89 4.292-12.9 7.361zm28.319 8.072H20.008c.113-4.665.789-9.149 1.925-13.163a50.5 50.5 0 018.1-1.579 6.687 6.687 0 005.06 4.785v9.957zm1.804-12.644a3.891 3.891 0 01-4.283-3.867c0-1.312.667-2.52 1.724-3.23.382.43.751.847 1.105 1.25a1.407 1.407 0 002.114 0c.354-.403.724-.822 1.106-1.251a3.904 3.904 0 011.727 3.232c0 .519-.107 1.041-.31 1.519a3.899 3.899 0 01-3.175 2.346l-.008.001c.002 0-.057.006 0 0 .002 0-.205.021 0 0zm1.01 12.644v-9.957a6.686 6.686 0 004.992-4.554l.017-.056c.017-.058.035-.116.05-.175a50.53 50.53 0 018.1 1.578c1.137 4.016 1.813 8.5 1.926 13.164H37.907zm17.899 0c-.096-4.204-.625-8.306-1.553-12.123 7.45 2.771 12.526 7.203 13.347 12.123H55.806z" fill="#C562F3"/><path d="M36.5 34.501c-7.632 0-13.84-6.208-13.84-13.84 0-7.633 6.208-13.843 13.84-13.843s13.842 6.21 13.842 13.844c0 7.63-6.21 13.84-13.843 13.84zm0-24.869c-6.08 0-11.026 4.948-11.026 11.03 0 6.079 4.946 11.025 11.025 11.025 6.082 0 11.029-4.946 11.029-11.025 0-6.082-4.947-11.03-11.029-11.03zm23.066 39.801c-.412 0-.821-.18-1.1-.528l-.015-.02a1.408 1.408 0 012.197-1.758l.016.02a1.408 1.408 0 01-1.098 2.286z" fill="#D791F8"/></g><defs><clipPath id="clip0"><path fill="#fff" d="M.5.5h72v72H.5z"/></clipPath></defs></svg>