<svg width="72" height="68" fill="none" xmlns="http://www.w3.org/2000/svg"><g clip-path="url(#clip0)" stroke-width="3" stroke-miterlimit="10"><path d="M20.348 34.591H9.39m53.219 0H51.652M1.565 58.07c0-4.07 3.13-7.827 7.826-7.827V23.948c-4.695 0-7.826 3.443-7.826 7.513V58.07zm68.87 0c0-4.07-3.13-7.827-7.826-7.827V23.948c4.695 0 7.826 3.443 7.826 7.513V58.07zm0 0c0 4.226-3.444 7.826-7.826 7.826H9.39c-4.382 0-7.826-3.6-7.826-7.826" stroke="#6CA9F0" stroke-linejoin="round"/><path d="M36 12.678c3.444 0 6.26 2.661 6.26 6.261S39.445 25.2 36 25.2s-6.26-2.66-6.26-6.26c0-3.757 2.817-6.262 6.26-6.262z" stroke="#95BEEE"/><path d="M36 1.565c9.391 0 17.06 7.67 17.06 17.061 0 4.07-.625 6.887-2.973 10.644C47.896 33.026 36 50.243 36 50.243S24.104 33.026 21.756 29.27c-2.347-3.757-2.973-6.574-2.973-10.644.156-9.391 7.826-17.06 17.217-17.06z" stroke="#6CA9F0"/></g><defs><clipPath id="clip0"><path fill="#fff" d="M0 0h72v67.461H0z"/></clipPath></defs></svg>