<svg width="137" height="137" fill="none" xmlns="http://www.w3.org/2000/svg"><rect width="137" height="137" rx="68.5" fill="#FD3E72"/><mask id="a" maskUnits="userSpaceOnUse" x="0" y="0" width="137" height="137"><rect width="137" height="137" rx="68.5" fill="#FD3E72"/></mask><g mask="url(#a)"><path d="M137.001 91.19l-29.969-65.502-9.601 65.503-61.708 3.8L58.91 137H137V91.19z" fill="url(#paint0_linear)" fill-opacity=".24"/><path d="M106.859 25.688c-6.69 0-12.084 5.658-12.084 12.675v36.711c0 1.535-.083 3.07-.25 4.693-.168 1.58-.586 3.027-1.255 4.342-.67 1.316-1.673 2.413-3.01 3.29-1.339.877-3.262 1.316-5.687 1.316-2.425 0-4.349-.439-5.687-1.316s-2.341-1.974-3.01-3.29c-.67-1.315-1.088-2.763-1.255-4.342a44.723 44.723 0 01-.25-4.693V37.223c-6.691 0-12.085 5.658-12.085 12.675V75.03c0 1.535-.084 3.07-.25 4.693-.168 1.58-.586 3.027-1.255 4.343-.67 1.315-1.673 2.412-3.01 3.289-1.339.877-3.262 1.316-5.688 1.316-2.425 0-4.348-.439-5.686-1.316s-2.342-1.974-3.01-3.29c-.67-1.315-1.088-2.763-1.255-4.342a44.727 44.727 0 01-.251-4.693V48.758c-6.69 0-12.084 5.702-12.084 12.676V75.03c0 3.597.334 6.755 1.003 9.474.67 2.72 1.506 5.044 2.51 7.018 1.045 1.974 2.215 3.596 3.553 4.912a22.25 22.25 0 004.098 3.202c3.22 1.93 6.941 2.982 11.08 3.114 4.224-.132 7.945-1.184 11.207-3.114a20.731 20.731 0 004.056-3.202c.334-.35.669-.702 1.003-1.096.335.394.67.745 1.004 1.096a22.25 22.25 0 004.097 3.202c3.22 1.93 6.942 2.982 11.081 3.114 4.223-.132 7.945-1.184 11.206-3.114a20.732 20.732 0 004.056-3.202c1.338-1.316 2.509-2.938 3.554-4.912 1.046-1.974 1.882-4.299 2.509-7.018.627-2.72.92-5.833.92-9.474l.125-49.343z" fill="#fff"/></g><defs><linearGradient id="paint0_linear" x1="75.168" y1="64.219" x2="106.685" y2="124.917" gradientUnits="userSpaceOnUse"><stop stop-color="#666"/><stop offset="1" stop-color="#666" stop-opacity="0"/></linearGradient></defs></svg>