<svg width="232" height="75" fill="none" xmlns="http://www.w3.org/2000/svg"><path d="M107.718 41.281H82.245c-1.158 0-2.035 1.017-1.825 2.138l.106.736c.175.981.456 1.927.842 2.873.596 1.437 1.544 2.699 2.842 3.82 1.263 1.122 3.052 1.647 5.333 1.647 2.28 0 4.035-.56 5.333-1.647a10.878 10.878 0 002.386-2.908 1.843 1.843 0 011.58-.911h7.122c1.298 0 2.175 1.296 1.754 2.487-.316.912-.701 1.788-1.158 2.559-.807 1.436-1.684 2.698-2.666 3.75-.983 1.05-2 1.927-3.123 2.628a24.285 24.285 0 01-3.228 1.717 22.3 22.3 0 01-8.07 1.506c-3.72-.07-7.017-.84-9.895-2.312-1.228-.666-2.42-1.507-3.614-2.523-1.193-1.017-2.245-2.313-3.157-3.855-.913-1.542-1.65-3.4-2.211-5.572-.561-2.173-.842-4.66-.842-7.57 0-2.873.28-5.396.842-7.569.561-2.172 1.298-4.03 2.21-5.607.913-1.577 1.965-2.873 3.158-3.924 1.193-1.052 2.386-1.893 3.614-2.559 2.842-1.542 6.105-2.348 9.79-2.488h.21c3.018.14 5.825.771 8.456 1.893 1.123.49 2.246 1.156 3.369 1.962a16.738 16.738 0 013.157 2.979c.983 1.191 1.825 2.593 2.562 4.24.737 1.647 1.298 3.54 1.614 5.677.105.841.21 1.682.28 2.558.071.876.141 1.822.141 2.839.035-.07.245 1.436-1.439 1.436zm-12.14-6.903c1.333 0 2.28-1.402 1.684-2.593 0 0 0-.035-.035-.035a8.728 8.728 0 00-1.72-2.418c-.736-.701-1.578-1.297-2.56-1.718-.983-.42-2.176-.63-3.474-.63-1.333 0-2.491.21-3.474.63-.982.421-1.86.982-2.561 1.718a9.076 9.076 0 00-1.755 2.418v.035c-.596 1.226.351 2.628 1.685 2.628h12.21v-.035zM64.666 0c-5.614 0-10.14 4.52-10.14 10.127V39.46c0 1.226-.07 2.453-.211 3.75a9.529 9.529 0 01-1.053 3.469c-.561 1.05-1.403 1.927-2.526 2.628-1.123.7-2.737 1.051-4.772 1.051s-3.649-.35-4.772-1.051c-1.122-.701-1.965-1.577-2.526-2.628a9.527 9.527 0 01-1.052-3.47 34.037 34.037 0 01-.211-3.75V9.217a10.117 10.117 0 00-10.14 10.128v20.08c0 1.226-.07 2.453-.21 3.75A9.527 9.527 0 0126 46.642c-.562 1.05-1.404 1.927-2.527 2.628-1.122.7-2.736 1.051-4.771 1.051-2.036 0-3.65-.35-4.772-1.051-1.123-.701-1.965-1.577-2.527-2.628a9.53 9.53 0 01-1.052-3.47 34.063 34.063 0 01-.21-3.75v-20.99C4.525 18.433 0 22.988 0 28.56v10.864c0 2.873.28 5.396.842 7.569.561 2.173 1.263 4.03 2.105 5.607.877 1.577 1.86 2.873 2.983 3.925a18.578 18.578 0 003.438 2.558c2.702 1.542 5.825 2.383 9.298 2.488 3.544-.105 6.667-.946 9.404-2.488a17.3 17.3 0 003.403-2.558c.28-.28.562-.56.842-.876.281.315.562.595.842.876a18.581 18.581 0 003.439 2.558c2.702 1.542 5.824 2.383 9.298 2.488 3.544-.105 6.667-.946 9.403-2.488a17.297 17.297 0 003.404-2.558c1.123-1.051 2.105-2.348 2.982-3.925.877-1.577 1.58-3.434 2.105-5.607.527-2.173.772-4.66.772-7.57L64.666 0zm75.226 59.013c-.281.806-1.018 1.367-1.895 1.367h-10.666c-.842 0-1.614-.561-1.895-1.367L113.05 21.06a1.97 1.97 0 011.895-2.593h6c.842 0 1.614.56 1.894 1.367l7.93 24.215c.597 1.822 3.158 1.822 3.754 0l4.562-13.948 7.649-23.409c1.684-5.08 7.158-7.884 12.245-6.202l-19.087 58.522zm48.912-32.626c-.912-1.577-1.965-2.873-3.157-3.925-1.193-1.051-2.386-1.892-3.614-2.558-2.878-1.542-6.141-2.383-9.755-2.488-3.473 0-6.421.526-8.842 1.542-2.421 1.016-4.421 2.488-6 4.38-1.579 1.893-2.701 4.206-3.438 6.939-.702 2.733-1.088 5.817-1.088 9.286v32.24a2.44 2.44 0 002.456 2.453h4.912a2.44 2.44 0 002.457-2.453V55.578a11.565 11.565 0 001.754 1.927c1.439 1.227 2.842 2.103 4.21 2.629 1.544.596 3.123.946 4.772 1.051h.386c3.334-.07 6.316-.841 8.912-2.313 1.158-.666 2.281-1.507 3.369-2.523 1.087-1.016 2.035-2.313 2.912-3.855.842-1.542 1.544-3.399 2.07-5.536.526-2.138.772-4.661.772-7.535 0-2.873-.281-5.361-.877-7.534-.562-2.103-1.298-3.96-2.211-5.502zm-7.403 17.066a11.96 11.96 0 01-1.333 3.995 8.534 8.534 0 01-2.842 3.084c-1.228.84-2.878 1.226-4.913 1.226s-3.684-.42-4.912-1.226c-1.228-.841-2.21-1.857-2.912-3.084a11.239 11.239 0 01-1.368-3.995 27.537 27.537 0 01-.316-3.96c0-1.471.105-2.943.28-4.415.211-1.472.597-2.769 1.228-3.96.632-1.191 1.579-2.138 2.843-2.839 1.263-.7 2.982-1.086 5.122-1.086 2.035 0 3.684.42 4.913 1.227 1.228.84 2.21 1.857 2.842 3.083.666 1.227 1.087 2.594 1.333 3.995.21 1.437.316 2.769.316 3.96.035 1.227-.071 2.558-.281 3.995zm49.016-13.281c-.842-2.523-1.929-4.59-3.263-6.238-1.333-1.647-2.772-2.908-4.315-3.785-1.544-.876-3.018-1.541-4.386-1.927-1.369-.42-2.597-.63-3.614-.7-1.018-.07-1.614-.07-1.79-.07-.21 0-.842.034-1.824.07-.983.07-2.176.28-3.544.7-1.368.42-2.842 1.051-4.386 1.927-1.544.877-2.982 2.138-4.316 3.785-1.333 1.647-2.421 3.75-3.263 6.238-.842 2.523-1.298 5.607-1.298 9.286v18.713a2.2 2.2 0 002.21 2.208h5.65a2.2 2.2 0 002.21-2.208V39.493c0-1.226.105-2.453.316-3.714.21-1.262.631-2.418 1.228-3.47.596-1.05 1.473-1.927 2.561-2.593 1.088-.7 2.562-1.016 4.386-1.016 1.825 0 3.298.35 4.386 1.016 1.088.701 1.965 1.542 2.561 2.593a10.458 10.458 0 011.228 3.47 22.7 22.7 0 01.316 3.714v18.678a2.2 2.2 0 002.211 2.208h5.789a2.2 2.2 0 002.211-2.208V39.493c0-3.714-.421-6.798-1.264-9.321z" fill="#EF4273"/></svg>