<svg width="232" height="75" fill="none" xmlns="http://www.w3.org/2000/svg"><path d="M107.999 41.281H82.526c-1.158 0-2.035 1.017-1.824 2.138l.105.736c.175.981.456 1.927.842 2.873.597 1.437 1.544 2.699 2.842 3.82 1.263 1.122 3.053 1.647 5.333 1.647 2.281 0 4.035-.56 5.334-1.647a10.88 10.88 0 002.385-2.908 1.843 1.843 0 011.58-.911h7.122c1.298 0 2.176 1.296 1.754 2.487a14.139 14.139 0 01-1.157 2.559c-.807 1.436-1.685 2.698-2.667 3.75-.982 1.05-2 1.927-3.123 2.628a24.271 24.271 0 01-3.228 1.717 22.3 22.3 0 01-8.07 1.506c-3.72-.07-7.017-.84-9.894-2.312-1.228-.666-2.421-1.507-3.614-2.523-1.193-1.017-2.246-2.313-3.158-3.855-.912-1.542-1.65-3.4-2.21-5.572-.562-2.173-.843-4.66-.843-7.57 0-2.873.28-5.396.842-7.569.562-2.172 1.299-4.03 2.21-5.607.913-1.577 1.966-2.873 3.159-3.924 1.193-1.052 2.386-1.893 3.614-2.559 2.842-1.542 6.105-2.348 9.789-2.488h.21c3.018.14 5.825.771 8.456 1.893 1.123.49 2.246 1.156 3.369 1.962a16.743 16.743 0 013.158 2.979c.982 1.191 1.824 2.593 2.561 4.24.737 1.647 1.298 3.54 1.614 5.677.105.841.211 1.682.281 2.558.07.876.14 1.822.14 2.839.035-.07.246 1.436-1.439 1.436zm-12.14-6.903c1.334 0 2.281-1.402 1.684-2.593 0 0 0-.035-.035-.035a8.726 8.726 0 00-1.719-2.418c-.737-.701-1.579-1.297-2.561-1.718-.983-.42-2.176-.63-3.474-.63-1.333 0-2.491.21-3.474.63-.982.421-1.86.982-2.56 1.718a9.072 9.072 0 00-1.755 2.418v.035c-.597 1.226.35 2.628 1.684 2.628h12.21v-.035zM64.947 0c-5.614 0-10.14 4.52-10.14 10.127V39.46c0 1.226-.07 2.453-.21 3.75a9.527 9.527 0 01-1.053 3.469c-.562 1.05-1.404 1.927-2.527 2.628-1.123.7-2.736 1.051-4.772 1.051-2.035 0-3.649-.35-4.771-1.051-1.123-.701-1.965-1.577-2.527-2.628a9.529 9.529 0 01-1.052-3.47 34.062 34.062 0 01-.21-3.75V9.217a10.117 10.117 0 00-10.141 10.128v20.08c0 1.226-.07 2.453-.21 3.75a9.53 9.53 0 01-1.053 3.469c-.561 1.05-1.404 1.927-2.526 2.628-1.123.7-2.737 1.051-4.772 1.051s-3.65-.35-4.772-1.051c-1.123-.701-1.965-1.577-2.526-2.628a9.527 9.527 0 01-1.053-3.47 34.039 34.039 0 01-.21-3.75v-20.99c-5.615 0-10.14 4.555-10.14 10.127v10.864c0 2.873.28 5.396.841 7.569.562 2.173 1.263 4.03 2.106 5.607.877 1.577 1.86 2.873 2.982 3.925a18.578 18.578 0 003.439 2.558c2.701 1.542 5.824 2.383 9.298 2.488 3.543-.105 6.666-.946 9.403-2.488a17.297 17.297 0 003.404-2.558c.28-.28.56-.56.842-.876.28.315.561.595.842.876a18.578 18.578 0 003.438 2.558c2.702 1.542 5.825 2.383 9.298 2.488 3.544-.105 6.667-.946 9.404-2.488a17.3 17.3 0 003.403-2.558c1.123-1.051 2.105-2.348 2.983-3.925.877-1.577 1.578-3.434 2.105-5.607.526-2.173.772-4.66.772-7.57L64.947 0z" fill="#A12B52"/><path d="M140.173 59.013c-.281.806-1.017 1.367-1.895 1.367h-10.666c-.842 0-1.614-.561-1.895-1.367L113.331 21.06a1.97 1.97 0 011.895-2.593h6c.842 0 1.614.56 1.895 1.367l7.929 24.215c.597 1.822 3.158 1.822 3.755 0l4.561-13.948 7.649-23.409c1.684-5.08 7.158-7.884 12.246-6.202l-19.088 58.522zm48.913-32.626c-.913-1.577-1.965-2.873-3.158-3.925-1.193-1.051-2.386-1.892-3.614-2.558-2.877-1.542-6.14-2.383-9.754-2.488-3.474 0-6.421.526-8.842 1.542-2.421 1.016-4.421 2.488-6 4.38-1.579 1.893-2.702 4.206-3.439 6.939-.702 2.733-1.088 5.817-1.088 9.286v32.24a2.44 2.44 0 002.457 2.453h4.912a2.44 2.44 0 002.456-2.453V55.578a11.608 11.608 0 001.754 1.927c1.439 1.227 2.842 2.103 4.211 2.629 1.543.596 3.122.946 4.772 1.051h.385c3.334-.07 6.316-.841 8.913-2.313 1.158-.666 2.28-1.507 3.368-2.523 1.088-1.016 2.035-2.313 2.912-3.855.842-1.542 1.544-3.399 2.07-5.536.527-2.138.772-4.661.772-7.535 0-2.873-.28-5.361-.877-7.534-.561-2.103-1.298-3.96-2.21-5.502zm-7.404 17.066a11.916 11.916 0 01-1.333 3.995 8.534 8.534 0 01-2.842 3.084c-1.228.84-2.877 1.226-4.912 1.226s-3.685-.42-4.913-1.226c-1.228-.841-2.21-1.857-2.912-3.084a11.239 11.239 0 01-1.368-3.995 27.537 27.537 0 01-.316-3.96c0-1.471.105-2.943.281-4.415.21-1.472.596-2.769 1.228-3.96.631-1.191 1.579-2.138 2.842-2.839 1.263-.7 2.982-1.086 5.123-1.086 2.035 0 3.684.42 4.912 1.227 1.228.84 2.21 1.857 2.842 3.083.666 1.227 1.088 2.594 1.333 3.995.211 1.437.316 2.769.316 3.96.035 1.227-.07 2.558-.281 3.995zm49.017-13.281c-.842-2.523-1.93-4.59-3.263-6.238-1.334-1.647-2.772-2.908-4.316-3.785-1.544-.876-3.018-1.541-4.386-1.927-1.368-.42-2.597-.63-3.614-.7-1.018-.07-1.614-.07-1.789-.07-.211 0-.843.034-1.825.07-.982.07-2.175.28-3.544.7-1.368.42-2.842 1.051-4.386 1.927-1.544.877-2.982 2.138-4.315 3.785-1.334 1.647-2.421 3.75-3.264 6.238-.842 2.523-1.298 5.607-1.298 9.286v18.713a2.2 2.2 0 002.211 2.208h5.649a2.2 2.2 0 002.21-2.208V39.493c0-1.226.106-2.453.316-3.714a10.503 10.503 0 011.228-3.47c.597-1.05 1.474-1.927 2.561-2.593 1.088-.7 2.562-1.016 4.386-1.016 1.825 0 3.299.35 4.386 1.016 1.088.701 1.965 1.542 2.562 2.593a10.503 10.503 0 011.228 3.47c.21 1.261.315 2.523.315 3.714v18.678a2.2 2.2 0 002.211 2.208h5.789a2.2 2.2 0 002.211-2.208V39.493c0-3.714-.421-6.798-1.263-9.321z" fill="#EF4273"/></svg>