<svg width="120" height="120" viewBox="0 0 120 120" fill="none" xmlns="http://www.w3.org/2000/svg">
<path d="M110.691 91.2833L105.839 93.3462C104.359 93.9356 103.294 95.2912 102.998 96.8826L102.051 102.069C101.696 104.191 99.8612 105.783 97.7307 105.96L92.4636 106.313C90.8657 106.431 89.4453 107.315 88.676 108.73L86.1312 113.327C85.0659 115.213 82.8762 116.156 80.7457 115.567L75.6561 114.211C74.1174 113.799 72.4603 114.211 71.2766 115.272L67.3707 118.809C65.7728 120.223 63.3463 120.4 61.5709 119.221L57.1915 116.274C55.8895 115.39 54.1732 115.213 52.6937 115.862L47.8408 117.925C45.8287 118.75 43.5206 118.16 42.2186 116.451L39.0228 112.266C38.0759 110.97 36.5372 110.321 34.9393 110.38L29.6722 110.734C27.4825 110.911 25.5295 109.555 24.8193 107.492L23.1622 102.482C22.6888 100.95 21.446 99.8297 19.9072 99.4171L14.8177 98.0615C12.7463 97.531 11.2668 95.5859 11.326 93.4641L11.3851 88.2183C11.3851 86.6269 10.6158 85.1534 9.31379 84.2104L4.93437 81.2633C3.15893 80.0845 2.38957 77.7858 3.09975 75.7818L4.87519 70.8308C5.40782 69.3572 5.17109 67.648 4.16501 66.4102L0.969218 62.2254C-0.332772 60.5161 -0.332772 58.0995 1.0284 56.4492L4.34255 52.3233C5.34864 51.0856 5.64454 49.4352 5.17109 47.9028L3.51402 42.8928C2.80384 40.5941 3.5732 38.3544 5.40782 37.1755L9.84642 34.3464C11.2076 33.5212 12.0361 32.0477 12.0361 30.3973L12.0953 25.1516C12.0953 22.9708 13.634 21.1436 15.7054 20.6132L20.8541 19.3754C22.3929 19.0217 23.6949 17.9019 24.2275 16.3694L26.0029 11.4184C26.7131 9.35545 28.7844 8.11769 30.915 8.29451L36.1821 8.82498C37.78 9.0018 39.3187 8.29451 40.3248 7.05675L43.639 2.93089C45.0001 1.22161 47.3082 0.691138 49.3204 1.57525L54.1141 3.75606C55.5936 4.58124 57.3098 4.46335 58.671 3.57924L63.1096 0.750079C64.9442 -0.428738 67.3115 -0.192975 68.9094 1.28055L72.7562 4.87594C73.9398 5.99582 75.5377 6.4084 77.1356 6.05476L82.2844 4.817C84.4149 4.28653 86.6046 5.28853 87.5515 7.23357L89.978 11.8899C90.7473 13.3045 92.1085 14.2475 93.7064 14.4244L98.9735 14.8959C101.104 15.0727 102.879 16.7231 103.175 18.9039L103.945 24.0907C104.181 25.6821 105.188 27.0377 106.667 27.6861L111.461 29.8669C113.414 30.751 114.538 32.8729 114.183 34.9947L113.236 40.1815C112.94 41.7729 113.473 43.3643 114.657 44.4253L118.503 48.0207C120.101 49.4942 120.456 51.8518 119.391 53.7379L116.787 58.3353C116.018 59.7499 115.959 61.4002 116.728 62.8148L119.214 67.4711C120.22 69.3573 119.805 71.7149 118.148 73.1884L114.183 76.6659C112.999 77.7269 112.408 79.3183 112.644 80.9097L113.473 86.0965C113.828 88.3362 112.704 90.3991 110.691 91.2833Z" fill="#FD3E72"/>
<path d="M110.691 91.2833L105.839 93.3462C104.359 93.9356 103.294 95.2912 102.998 96.8826L102.051 102.069C101.696 104.191 99.8612 105.783 97.7307 105.96L92.4636 106.313C90.8657 106.431 89.4453 107.315 88.676 108.73L86.1312 113.327C85.0659 115.213 82.8762 116.156 80.7457 115.567L75.6561 114.211C74.1174 113.799 72.4603 114.211 71.2766 115.272L67.3707 118.809C65.7728 120.223 63.3463 120.4 61.5709 119.221L57.1915 116.274C55.8895 115.39 54.1732 115.213 52.6937 115.862L47.8408 117.925C45.8287 118.75 43.5206 118.16 42.2186 116.451L39.0228 112.266C38.0759 110.97 36.5372 110.321 34.9393 110.38L29.6722 110.734C27.4825 110.911 25.5295 109.555 24.8193 107.492L23.1622 102.482C22.6888 100.95 21.446 99.8297 19.9072 99.4171L14.8177 98.0615C12.7463 97.531 11.2668 95.5859 11.326 93.4641L11.3851 88.2183C11.3851 86.6269 10.6158 85.1534 9.31379 84.2104L4.93437 81.2633C3.15893 80.0845 2.38957 77.7858 3.09975 75.7818L4.87519 70.8308C5.40782 69.3573 5.17109 67.648 4.16501 66.4102L0.969218 62.2254C-0.332772 60.5161 -0.332772 58.0995 1.0284 56.4492L4.34255 52.3233C5.34864 51.0856 5.64454 49.4352 5.17109 47.9028L3.51402 42.8928C2.80384 40.5941 3.5732 38.3544 5.40782 37.1755L9.84642 34.3464C11.2076 33.5212 12.0361 32.0477 12.0361 30.3973L12.0953 25.1516C12.0953 22.9708 13.634 21.1436 15.7054 20.6132L20.8541 19.3754C22.3929 19.0217 23.6949 17.9019 24.2275 16.3694L26.0029 11.4184C26.7131 9.35545 28.7844 8.11769 30.915 8.29451L36.1821 8.82498C37.78 9.0018 39.3187 8.29451 40.3248 7.05675L43.639 2.93089C45.0001 1.22161 47.3082 0.691138 49.3204 1.57525L54.1141 3.75606C55.5936 4.58124 57.3098 4.46335 58.671 3.57924L63.1096 0.750079C64.9442 -0.428738 67.3115 -0.192975 68.9094 1.28055L72.7562 4.87594C73.9398 5.99582 75.5377 6.4084 77.1356 6.05476L82.2844 4.817C84.4149 4.28653 86.6046 5.28853 87.5515 7.23357L89.978 11.8899C90.7473 13.3045 92.1085 14.2475 93.7064 14.4244L98.9735 14.8959C101.104 15.0727 102.879 16.7231 103.175 18.9039L103.945 24.0907C104.181 25.6821 105.188 27.0377 106.667 27.6861L111.461 29.8669C113.414 30.751 114.538 32.8729 114.183 34.9947L113.236 40.1815C112.94 41.7729 113.473 43.3643 114.657 44.4253L118.503 48.0207C120.101 49.4942 120.456 51.8518 119.391 53.7379L116.787 58.3353C116.018 59.7499 115.959 61.4002 116.728 62.8148L119.214 67.4711C120.22 69.3573 119.805 71.7149 118.148 73.1884L114.183 76.6659C112.999 77.7269 112.408 79.3183 112.644 80.9097L113.473 86.0965C113.828 88.3362 112.704 90.3991 110.691 91.2833Z" fill="url(#paint0_linear)"/>
<path d="M59.9742 93.2304C78.147 93.2304 92.879 78.5582 92.879 60.4592C92.879 42.3602 78.147 27.6881 59.9742 27.6881C41.8013 27.6881 27.0693 42.3602 27.0693 60.4592C27.0693 78.5582 41.8013 93.2304 59.9742 93.2304Z" fill="#F9F8F4"/>
<path d="M25.0572 26.6891L31.9814 32.1116L30.9161 33.4673L26.5959 30.1077L28.253 34.1156L27.5428 34.9997L23.2226 34.3514L27.5428 37.711L26.4775 39.0667L19.4941 33.703L20.5594 32.3474L26.1816 33.2905L23.8736 28.1037L25.0572 26.6891Z" fill="white"/>
<path d="M34.7639 29.5144C34.1721 29.6912 33.6394 29.6912 33.0476 29.6323C32.4558 29.5733 31.9824 29.3376 31.4497 29.0429C30.9171 28.7482 30.5028 28.3356 30.0886 27.8051C29.6743 27.2747 29.4376 26.7442 29.26 26.1548C29.0825 25.5654 29.0233 25.0349 29.1417 24.4455C29.2008 23.915 29.3784 23.3846 29.7335 22.8541C30.0294 22.3236 30.4436 21.8521 30.9763 21.4984C31.5089 21.0859 32.0415 20.8501 32.5742 20.6733C33.166 20.4965 33.6986 20.4965 34.2904 20.5554C34.8231 20.6143 35.3557 20.7912 35.8883 21.1448C36.421 21.4395 36.8944 21.8521 37.2495 22.3826C37.6638 22.913 37.9597 23.4435 38.078 24.0329C38.2556 24.6223 38.2556 25.2117 38.1964 25.7422C38.1372 26.2727 37.9005 26.8031 37.6046 27.3336C37.3087 27.8641 36.8944 28.2766 36.3618 28.6892C35.9475 29.0429 35.3557 29.3376 34.7639 29.5144ZM36.1842 26.5674C36.3618 26.2727 36.4801 25.919 36.4801 25.5654C36.4801 25.2117 36.4801 24.8581 36.3618 24.5044C36.2434 24.1508 36.0659 23.7971 35.8291 23.4435C35.4741 23.0309 35.119 22.6773 34.6455 22.5004C34.1721 22.2647 33.7578 22.2057 33.2843 22.2647C32.8109 22.3236 32.3966 22.5004 31.9824 22.7951C31.5681 23.0899 31.2722 23.5024 31.0946 23.974C30.9171 24.4455 30.8579 24.917 30.9763 25.3885C31.0355 25.8601 31.2722 26.3316 31.5681 26.7442C31.864 27.1568 32.2783 27.5104 32.7517 27.6872C33.2252 27.923 33.6394 27.9819 34.1721 27.923C34.7047 27.8641 35.119 27.6872 35.5332 27.3925C35.77 27.1568 36.0067 26.8621 36.1842 26.5674Z" fill="white"/>
<path d="M44.2307 14.3092L47.8407 22.3252L46.1836 23.0325L40.2655 19.2602L42.6328 24.5649L41.0349 25.2722L37.4248 17.2562L39.0227 16.549L45.0592 20.3801L42.6328 14.9576L44.2307 14.3092Z" fill="white"/>
<path d="M47.4248 13.3106L52.9287 12.0729L53.2838 13.6053L49.437 14.4305L49.9104 16.4934L52.9879 15.8451L53.3429 17.3186L50.2655 18.0259L50.6798 20.0299L54.7633 19.1458L55.1184 20.6782L49.3186 21.9749L47.4248 13.3106Z" fill="white"/>
<path d="M62.8717 11.4814L60.0902 16.4914L60.2085 20.3815L58.4331 20.4405L58.3147 16.5504L55.2373 11.7172L57.2495 11.6583L59.1433 14.8411L60.8004 11.5993L62.8717 11.4814Z" fill="white"/>
<path d="M73.7619 18.496C73.9986 18.9676 73.9986 19.4391 73.8803 20.0285C73.8211 20.3822 73.6435 20.6769 73.466 20.9126C73.2885 21.1484 73.0517 21.3841 72.7558 21.561C72.4599 21.7378 72.164 21.7967 71.7497 21.8557C71.3355 21.9146 70.9212 21.8557 70.5069 21.7378L66.9561 20.8537L69.0274 12.3073L72.164 13.0145C73.0517 13.2503 73.7027 13.604 74.117 14.0755C74.5313 14.547 74.6496 15.1364 74.4721 15.7848C74.4129 16.0795 74.2945 16.3152 74.1762 16.4921C74.0578 16.7278 73.8211 16.9046 73.5844 17.0815C73.3476 17.2583 73.0517 17.3172 72.6966 17.3762C73.2293 17.6709 73.5844 18.0245 73.7619 18.496ZM71.2171 20.1464C71.4538 20.1464 71.6906 20.0285 71.8681 19.9106C72.0457 19.7927 72.164 19.6159 72.2232 19.3802C72.2824 19.0265 72.2232 18.7318 72.0457 18.496C71.8089 18.2603 71.513 18.0245 70.9804 17.9066L69.6192 17.553L69.0866 19.7338L70.3886 20.0874C70.6845 20.1464 70.9804 20.1464 71.2171 20.1464ZM69.8559 16.1384L71.0988 16.4331C71.3355 16.4921 71.5722 16.4921 71.7497 16.4921C71.9273 16.4921 72.164 16.3742 72.2824 16.2563C72.4599 16.1384 72.5783 15.9616 72.5783 15.7258C72.6375 15.549 72.6375 15.3132 72.5783 15.1954C72.5191 15.0185 72.4007 14.9006 72.2232 14.7238C72.0457 14.6059 71.7497 14.4881 71.4538 14.4291L70.3294 14.1344L69.8559 16.1384Z" fill="white"/>
<path d="M79.6234 23.2117L76.546 21.7971L75.244 23.1528L73.5869 22.3865L80.2744 15.7852L81.8131 16.4924L81.1029 25.864L79.4459 25.0978L79.6234 23.2117ZM79.8009 21.6203L80.156 17.966L77.6112 20.6183L79.8009 21.6203Z" fill="white"/>
<path d="M83.6465 27.5733C83.3506 27.2197 83.1139 26.8071 82.9955 26.3945C82.818 25.9819 82.7588 25.5104 82.7588 25.0978C82.7588 24.6263 82.818 24.2137 82.9955 23.6832C83.1731 23.2117 83.4098 22.7402 83.7649 22.2687C84.0608 21.8561 84.4159 21.5024 84.771 21.2077C85.126 20.913 85.5403 20.6773 85.9546 20.5594C86.3689 20.3825 86.8423 20.3236 87.2566 20.3236C87.6708 20.3236 88.1443 20.3825 88.6769 20.5594C89.2096 20.7362 89.6238 20.972 90.0973 21.3256C90.4524 21.5614 90.7483 21.8561 90.985 22.2097C91.2217 22.5634 91.4584 22.917 91.636 23.3885C91.8135 23.8601 91.9319 24.3316 91.9319 24.8031L90.2748 24.921C90.2748 24.5084 90.1565 24.0958 89.9789 23.6832C89.8014 23.2706 89.5055 22.9759 89.1504 22.6812C88.9728 22.5634 88.7953 22.4455 88.6177 22.3865C88.4402 22.3276 88.2627 22.2687 88.0259 22.2097C87.8484 22.1508 87.6117 22.1508 87.4341 22.1508C87.2566 22.1508 87.0199 22.2097 86.8423 22.2687C86.6648 22.3276 86.4872 22.3865 86.3097 22.5044C86.1321 22.6223 85.9546 22.7402 85.777 22.917C85.5995 23.0938 85.422 23.2707 85.3036 23.4475C85.0077 23.8601 84.771 24.3316 84.7118 24.8031C84.6526 25.2746 84.7118 25.7462 84.8893 26.1588C85.0669 26.5713 85.3628 26.9839 85.777 27.2786C86.1321 27.5144 86.5464 27.6912 86.9607 27.7502C87.3749 27.8091 87.8484 27.8091 88.2627 27.6912L88.6177 29.3416C87.9668 29.5184 87.3749 29.5184 86.6648 29.4005C85.9546 29.2826 85.3628 29.0469 84.771 28.5753C84.2975 28.2806 83.9424 27.927 83.6465 27.5733Z" fill="white"/>
<path d="M92.5841 30.9288L91.2229 30.9877L89.3291 32.6381L88.1455 31.3414L94.7738 25.5062L95.9574 26.8029L93.0576 29.3963L98.0288 29.1016L99.5083 30.752L94.4187 30.9288L92.9984 36.705L91.578 35.1136L92.5841 30.9288Z" fill="white"/>
<path d="M27.2428 95.6476C26.9469 95.1171 26.8286 94.5866 26.7694 94.0562C26.7102 93.5257 26.7694 92.9363 27.0061 92.4058C27.1837 91.8164 27.5388 91.286 28.0122 90.7555C28.4265 90.284 28.8999 89.9303 29.4326 89.6356C29.9652 89.3409 30.4978 89.223 31.0305 89.1641C31.5631 89.1051 32.1549 89.1641 32.6875 89.3998C33.2793 89.5767 33.812 89.9303 34.2854 90.3429C34.7589 90.7555 35.1731 91.286 35.4691 91.8754C35.765 92.4648 35.8833 93.1131 35.9425 93.7615L34.3446 93.7025C34.2854 92.8184 33.9303 92.1111 33.2793 91.5217C32.9834 91.286 32.6875 91.1091 32.3916 90.9913C32.0957 90.8734 31.7406 90.8144 31.3855 90.8734C31.0305 90.8734 30.7345 90.9913 30.3795 91.1681C30.0244 91.3449 29.7285 91.5807 29.4326 91.9343C29.0775 92.3469 28.8407 92.7595 28.7224 93.231C28.604 93.7025 28.604 94.1741 28.7224 94.6456C28.8407 95.1171 29.1366 95.5297 29.5509 95.8834C30.0244 96.2959 30.6162 96.5906 31.208 96.7085L32.0365 95.7655L30.557 94.4688L31.5631 93.3489L34.2854 95.7655L31.7998 98.5946C31.2672 98.5946 30.7345 98.4178 30.1427 98.182C29.5509 97.9463 29.0183 97.5926 28.4857 97.1211C27.8347 96.5906 27.4796 96.1191 27.2428 95.6476Z" fill="white"/>
<path d="M35.1733 101.717C34.8774 101.363 34.6998 100.95 34.5815 100.538C34.4631 100.125 34.4631 99.6537 34.5223 99.1821C34.5815 98.7106 34.8182 98.1801 35.1141 97.6497L37.6589 93.1702L39.1976 94.0543L36.6528 98.4748C36.4161 98.8285 36.2977 99.1821 36.2977 99.5358C36.2385 99.8894 36.2977 100.243 36.4161 100.538C36.5344 100.832 36.7712 101.068 37.1262 101.245C37.5997 101.54 38.0731 101.54 38.5466 101.363C39.0201 101.186 39.4343 100.774 39.7894 100.184L42.275 95.8225L43.8137 96.7066L41.2689 101.186C40.9139 101.834 40.4404 102.365 39.9078 102.719C39.3751 103.072 38.8425 103.249 38.1915 103.249C37.5997 103.249 36.9487 103.072 36.2977 102.719C35.8834 102.424 35.4692 102.07 35.1733 101.717Z" fill="white"/>
<path d="M47.1859 105.311L43.9901 104.25L42.8657 105.723L41.1494 105.134L47.0084 97.884L48.6063 98.4145L48.9022 107.727L47.1859 107.138V105.311ZM47.1267 103.719V100.065L44.937 102.953L47.1267 103.719Z" fill="white"/>
<path d="M55.8296 108.73L54.2909 105.489L53.2848 105.371L52.8706 108.318L51.1543 108.082L52.2787 99.4178L55.5929 99.8304C56.1255 99.8894 56.5398 100.007 56.8949 100.243C57.25 100.42 57.5459 100.656 57.7826 100.95C57.9602 101.245 58.1377 101.599 58.1969 101.952C58.2561 102.306 58.2561 102.719 58.2561 103.131C58.1969 103.603 58.0785 103.956 57.901 104.31C57.7234 104.664 57.4867 104.899 57.1908 105.076C56.8949 105.253 56.5398 105.43 56.1847 105.489L57.901 108.907L55.8296 108.73ZM53.4624 103.897L54.646 104.074C55.1786 104.133 55.5929 104.074 55.8888 103.897C56.1847 103.721 56.3623 103.367 56.4214 102.954C56.4806 102.542 56.3623 102.188 56.1255 101.952C55.8888 101.658 55.5337 101.481 55.0011 101.422L53.6991 101.245L53.4624 103.897Z" fill="white"/>
<path d="M65.239 107.023L61.8657 107.258L61.3922 109.027L59.5576 109.144L62.2208 100.244L63.8779 100.126L67.6655 108.673L65.8308 108.791L65.239 107.023ZM64.6472 105.549L63.2269 102.189L62.28 105.667L64.6472 105.549Z" fill="white"/>
<path d="M74.9436 97.7668L77.2516 106.195L75.5354 106.667L70.2682 102.128L71.8069 107.728L70.1499 108.199L67.8418 99.7708L69.4989 99.2993L74.8252 103.956L73.2273 98.2384L74.9436 97.7668Z" fill="white"/>
<path d="M78.4946 97.7648L76.3049 98.8257L75.5947 97.4112L81.5129 94.4641L82.223 95.8787L80.0333 96.9396L83.2291 103.364L81.6904 104.13L78.4946 97.7648Z" fill="white"/>
<path d="M82.1631 94.0522L86.6609 90.7515L87.6078 91.9892L84.4712 94.2879L85.714 95.9972L88.2588 94.17L89.1465 95.4078L86.6017 97.235L87.7853 98.8853L91.1587 96.4098L92.1055 97.6476L87.371 101.125L82.1631 94.0522Z" fill="white"/>
<path d="M87.6689 89.9281L91.5749 85.9202L92.6994 86.9811L89.977 89.8103L91.5157 91.2838L93.7054 89.044L94.8299 90.105L92.6402 92.3447L94.1197 93.7593L97.0196 90.7533L98.144 91.8143L94.0605 96.058L87.6689 89.9281Z" fill="white"/>
<path d="M56.3032 62.0471C57.0134 63.1081 57.3685 64.3458 57.3685 65.7604C57.3685 67.175 57.0134 68.4717 56.244 69.5326C55.4747 70.6525 54.4686 71.4777 53.1666 72.0671C51.8646 72.6565 50.3851 72.9512 48.7872 72.9512C46.5975 72.9512 44.7037 72.4207 43.1058 71.4187C41.5079 70.4167 40.3834 69.0611 39.7324 67.4108L44.1118 65.5836C44.822 67.4697 46.3016 68.4128 48.4913 68.4128C49.5565 68.4128 50.4442 68.1181 51.1544 67.4697C51.8646 66.8214 52.2197 66.0551 52.2197 65.0531C52.2197 64.1101 51.8646 63.2849 51.1544 62.6366C50.4442 61.9882 49.379 61.6935 48.077 61.6935H46.2424V57.6266H48.4913C49.5565 57.6266 50.3851 57.3319 50.9177 56.8014C51.4503 56.2709 51.7462 55.5047 51.7462 54.6795C51.7462 53.7954 51.4503 53.0292 50.7993 52.4398C50.1483 51.8504 49.379 51.5557 48.4321 51.5557C46.775 51.5557 45.5322 52.263 44.7037 53.6775L40.6793 51.5557C41.2711 50.2 42.2772 49.1391 43.6384 48.3139C45.0587 47.4888 46.6566 47.0762 48.4913 47.0762C49.6157 47.0762 50.681 47.253 51.6871 47.5477C52.6931 47.8424 53.5217 48.255 54.291 48.8444C55.0012 49.4338 55.593 50.1411 56.0073 50.9663C56.4216 51.8504 56.6583 52.7934 56.6583 53.8544C56.6583 55.0921 56.3624 56.1531 55.8298 57.1551C55.2971 58.1571 54.4686 58.9233 53.4033 59.5716V59.6895C54.5869 60.22 55.593 60.9862 56.3032 62.0471Z" fill="#353438"/>
<path d="M66.5416 72.0678C65.2988 71.4784 64.2927 70.6532 63.405 69.5333C62.5172 68.4135 61.8662 67.0578 61.3928 65.4664C60.9193 63.875 60.6826 61.9889 60.6826 59.9849C60.6826 58.0399 60.9193 56.3306 61.3928 54.6802C61.8662 53.0299 62.5172 51.7332 63.3458 50.5544C64.1743 49.4345 65.2396 48.5504 66.4824 47.902C67.7252 47.2537 69.0864 46.959 70.6251 46.959C72.1046 46.959 73.4658 47.2537 74.6494 47.8431C75.8922 48.4325 76.8983 49.2577 77.786 50.3776C78.6737 51.4974 79.3247 52.8531 79.7982 54.4445C80.2716 56.0359 80.5084 57.922 80.5084 59.926C80.5084 62.5194 80.0941 64.7591 79.3247 66.7042C78.5554 68.6492 77.3718 70.1817 75.8922 71.2426C74.4127 72.3036 72.6373 72.893 70.6251 72.893C69.0864 72.9519 67.7844 72.6572 66.5416 72.0678ZM74.1168 66.1737C74.9453 64.7591 75.3596 62.6962 75.3596 60.0439C75.3596 57.4505 74.9453 55.4465 74.1168 53.9729C73.2882 52.4994 72.1046 51.7332 70.6251 51.7332C69.1456 51.7332 67.9619 52.4405 67.1334 53.914C66.3048 55.3286 65.8314 57.3915 65.8314 60.0439C65.8314 61.7531 66.0089 63.2267 66.364 64.4644C66.7191 65.7022 67.3109 66.6452 68.0211 67.3525C68.7313 68.0009 69.619 68.3545 70.5659 68.3545C72.1046 68.2956 73.2291 67.5883 74.1168 66.1737Z" fill="#353438"/>
<path d="M59.9755 30.2819L61.2775 34.2309H65.4794L62.0469 36.4707L63.3489 40.3018L59.9755 37.8263L56.543 40.2429L57.845 36.4707L54.4717 34.2309H58.6736L59.9755 30.2819Z" fill="#FD3E72"/>
<path d="M70.6273 35.5289L71.515 38.3581H74.5332L72.1068 39.8316L73.0537 42.5429L70.6273 40.7157L68.1416 42.425L69.0885 39.8316L66.6621 38.3581H69.6804L70.6273 35.5289Z" fill="#FD3E72"/>
<path d="M49.3226 35.5289L50.2103 38.3581H53.2285L50.8021 39.8316L51.749 42.5429L49.3226 40.7157L46.837 42.425L47.7839 39.8316L45.3574 38.3581H48.3757L49.3226 35.5289Z" fill="#FD3E72"/>
<path d="M48.9297 84.6008H51.2125C51.7516 84.6008 52.2437 84.5211 52.6844 84.3523C53.125 84.1883 53.4906 83.9586 53.7906 83.6586C54.0906 83.3586 54.3203 83.0023 54.4797 82.5805C54.6391 82.1633 54.7234 81.7039 54.7234 81.2023C54.7234 80.7055 54.6391 80.2414 54.4703 79.8195C54.3016 79.3977 54.0672 79.0367 53.7625 78.7367C53.4578 78.4367 53.0828 78.2023 52.6422 78.0336C52.2016 77.8648 51.7141 77.7805 51.1844 77.7805H48.9297V84.6008ZM50.2609 83.3961V78.9898H51.2125C51.6156 78.9898 51.9766 79.0883 52.3 79.2758C52.6187 79.4633 52.8719 79.7258 53.05 80.0633C53.2281 80.4008 53.3219 80.7805 53.3219 81.2023C53.3219 81.5117 53.2656 81.8023 53.1625 82.0695C53.0594 82.3414 52.9094 82.5711 52.7219 82.768C52.5344 82.9648 52.3 83.1148 52.0281 83.2273C51.7516 83.3398 51.4516 83.3961 51.1281 83.3961H50.2609Z" fill="#353438"/>
<path d="M59.9594 84.6008H61.3703L58.8344 77.7805H57.5312L55.0047 84.6008H56.4156L56.8797 83.2367H59.4953L59.9594 84.6008ZM57.2687 82.0836L58.1781 79.407H58.1875L59.1016 82.0836H57.2687Z" fill="#353438"/>
<path d="M65.2047 77.7805L63.8312 80.2695H63.8125L62.425 77.7805H60.8781L63.1328 81.6055V84.6008H64.4969V81.6055L66.7656 77.7805H65.2047Z" fill="#353438"/>
<path d="M69.5594 84.6805C69.7891 84.6805 70.0141 84.657 70.2391 84.6102C70.4594 84.5633 70.675 84.4836 70.8859 84.3711C71.0969 84.2586 71.2844 84.1273 71.4437 83.968C71.6031 83.8086 71.7297 83.6117 71.8281 83.3727C71.9219 83.1336 71.9734 82.8711 71.9734 82.5805C71.9734 82.2992 71.9266 82.0555 71.8422 81.8398C71.7016 81.5023 71.4156 81.2164 70.9937 80.982C70.8062 80.8836 70.4312 80.7242 69.8641 80.4992C69.6859 80.4336 69.5406 80.3773 69.4375 80.3305C69.3344 80.2836 69.2266 80.232 69.1234 80.1758C69.0203 80.1195 68.9406 80.0633 68.8891 80.007C68.8328 79.9508 68.7906 79.8898 68.7625 79.8195C68.7297 79.7539 68.7156 79.6742 68.7156 79.5898C68.7156 79.3789 68.7953 79.2102 68.9453 79.0883C69.0953 78.9664 69.2922 78.9055 69.5359 78.9055C69.9766 78.9055 70.4734 79.1305 71.0219 79.5758L71.8 78.5586C71.0922 77.9773 70.3281 77.6914 69.5031 77.7008C69.1 77.7102 68.7297 77.7992 68.3969 77.968C68.0594 78.1367 67.7969 78.3711 67.6047 78.6664C67.4078 78.9664 67.3141 79.2945 67.3141 79.6508C67.3141 79.8289 67.3328 79.9977 67.375 80.157C67.4172 80.3164 67.4734 80.4523 67.5391 80.5742C67.6047 80.6961 67.6937 80.8086 67.8016 80.9164C67.9094 81.0242 68.0172 81.118 68.1297 81.193C68.2375 81.268 68.3687 81.3477 68.5187 81.4227C68.6687 81.4977 68.8047 81.5633 68.9359 81.6102C69.0625 81.6617 69.2078 81.718 69.3766 81.7742C69.5594 81.8398 69.7094 81.8914 69.8219 81.9383C69.9344 81.9852 70.0422 82.0367 70.1453 82.093C70.2484 82.1492 70.3281 82.2102 70.3844 82.2664C70.4406 82.3273 70.4828 82.3977 70.5156 82.4727C70.5437 82.5523 70.5625 82.6414 70.5625 82.7398C70.5625 82.8852 70.525 83.0117 70.4547 83.1148C70.3797 83.2227 70.2719 83.307 70.1219 83.368C69.9719 83.4336 69.7937 83.4617 69.5828 83.4617C69.4422 83.4617 69.3016 83.4477 69.1609 83.4102C69.0156 83.3773 68.8703 83.3258 68.725 83.2555C68.5797 83.1898 68.4344 83.1008 68.2891 82.9883C68.1437 82.8805 68.0078 82.7539 67.8859 82.6086L67.075 83.607C67.4219 83.968 67.8109 84.2352 68.2375 84.4133C68.6641 84.5914 69.1047 84.6805 69.5594 84.6805Z" fill="#353438"/>
<path d="M16.4768 62.8719C18.013 62.8719 19.2584 61.6316 19.2584 60.1016C19.2584 58.5717 18.013 57.3314 16.4768 57.3314C14.9406 57.3314 13.6953 58.5717 13.6953 60.1016C13.6953 61.6316 14.9406 62.8719 16.4768 62.8719Z" fill="white"/>
<path d="M104.654 62.8719C106.19 62.8719 107.435 61.6316 107.435 60.1016C107.435 58.5717 106.19 57.3314 104.654 57.3314C103.117 57.3314 101.872 58.5717 101.872 60.1016C101.872 61.6316 103.117 62.8719 104.654 62.8719Z" fill="white"/>
<defs>
<linearGradient id="paint0_linear" x1="8.5" y1="29" x2="148.801" y2="144.668" gradientUnits="userSpaceOnUse">
<stop stop-color="#FE7E56"/>
<stop offset="0.520833" stop-color="#FD3E72"/>
<stop offset="1" stop-color="#49A8FF"/>
</linearGradient>
</defs>
</svg>
