<svg width="120" height="120" fill="none" xmlns="http://www.w3.org/2000/svg"><path d="M110.691 91.283l-4.852 2.063c-1.48.59-2.545 1.945-2.841 3.537l-.947 5.186c-.355 2.122-2.19 3.714-4.32 3.891l-5.267.353c-1.598.118-3.019 1.002-3.788 2.417l-2.545 4.597a4.714 4.714 0 01-5.385 2.24l-5.09-1.356a4.751 4.751 0 00-4.38 1.061l-3.905 3.537c-1.598 1.414-4.025 1.591-5.8.412l-4.38-2.947a4.697 4.697 0 00-4.497-.412l-4.853 2.063c-2.012.825-4.32.235-5.622-1.474l-3.196-4.185c-.947-1.296-2.486-1.945-4.084-1.886l-5.267.354c-2.19.177-4.143-1.179-4.853-3.242l-1.657-5.01c-.473-1.532-1.716-2.652-3.255-3.065l-5.09-1.356c-2.07-.53-3.55-2.475-3.491-4.597l.06-5.246c0-1.591-.77-3.065-2.072-4.008l-4.38-2.947C3.16 80.085 2.39 77.786 3.1 75.782l1.775-4.951c.533-1.474.296-3.183-.71-4.42L.969 62.224c-1.302-1.709-1.302-4.126.06-5.776l3.314-4.126c1.006-1.237 1.302-2.888.828-4.42l-1.657-5.01c-.71-2.299.06-4.539 1.894-5.718l4.438-2.829c1.362-.825 2.19-2.298 2.19-3.949l.06-5.245c0-2.181 1.538-4.008 3.61-4.539l5.148-1.238a4.682 4.682 0 003.373-3.006l1.776-4.95c.71-2.064 2.781-3.301 4.912-3.124l5.267.53c1.598.177 3.137-.53 4.143-1.768l3.314-4.126C45 1.22 47.309.69 49.32 1.575l4.794 2.181c1.48.825 3.196.707 4.557-.177L63.11.75c1.834-1.179 4.201-.943 5.8.53l3.846 3.596c1.184 1.12 2.782 1.532 4.38 1.179l5.148-1.238c2.13-.53 4.32.472 5.267 2.417l2.427 4.656c.77 1.415 2.13 2.357 3.728 2.534l5.267.472a4.647 4.647 0 014.202 4.008l.77 5.187c.236 1.591 1.243 2.947 2.722 3.595l4.794 2.18c1.953.885 3.077 3.007 2.722 5.129l-.947 5.187c-.296 1.59.237 3.182 1.421 4.243l3.846 3.596a4.646 4.646 0 01.888 5.717l-2.604 4.597c-.769 1.415-.828 3.065-.059 4.48l2.486 4.656c1.006 1.886.591 4.244-1.066 5.717l-3.965 3.478a4.766 4.766 0 00-1.539 4.244l.829 5.187c.355 2.24-.769 4.302-2.782 5.186z" fill="#FD3E72"/><path d="M59.974 93.23c18.173 0 32.905-14.672 32.905-32.77 0-18.1-14.732-32.772-32.905-32.772-18.173 0-32.905 14.672-32.905 32.771 0 18.1 14.732 32.771 32.905 32.771z" fill="#F9F8F4"/><path d="M25.057 26.69l6.924 5.422-1.065 1.355-4.32-3.36 1.657 4.009-.71.884-4.32-.648 4.32 3.36-1.066 1.355-6.983-5.364 1.065-1.356 5.623.944-2.308-5.187 1.183-1.415zm9.707 2.825c-.592.176-1.125.176-1.716.117-.592-.059-1.066-.294-1.598-.59-.533-.294-.947-.706-1.361-1.237-.415-.53-.651-1.06-.829-1.65-.178-.59-.237-1.12-.118-1.71.059-.53.236-1.06.591-1.59a3.89 3.89 0 011.243-1.357c.533-.412 1.066-.648 1.598-.825.592-.176 1.125-.176 1.716-.117a3.54 3.54 0 011.598.589 3.894 3.894 0 011.361 1.238c.415.53.71 1.06.829 1.65.178.59.178 1.179.118 1.71-.059.53-.295 1.06-.591 1.59-.296.531-.71.944-1.243 1.356-.415.354-1.006.649-1.598.826zm1.42-2.948a1.98 1.98 0 00.296-1.002c0-.353 0-.707-.118-1.06a4.453 4.453 0 00-.533-1.061c-.355-.413-.71-.767-1.184-.944a2.244 2.244 0 00-1.36-.235c-.474.059-.888.235-1.303.53-.414.295-.71.707-.887 1.179-.178.472-.237.943-.119 1.415.06.471.296.943.592 1.355.296.413.71.767 1.184.943.473.236.887.295 1.42.236a2.758 2.758 0 001.361-.53 4.45 4.45 0 00.651-.826zM44.23 14.31l3.61 8.015-1.656.707-5.918-3.772 2.367 5.305-1.598.707-3.61-8.016 1.598-.707 6.036 3.831-2.426-5.422 1.598-.649zm3.195-1l5.504-1.237.355 1.532-3.847.826.473 2.063 3.078-.649.355 1.474-3.078.707.415 2.004 4.083-.884.355 1.532-5.8 1.297-1.893-8.664zm15.447-1.829l-2.782 5.01.118 3.89-1.775.06-.118-3.89-3.078-4.834 2.012-.059 1.894 3.183L60.8 11.6l2.072-.118zm10.89 7.015c.237.472.237.943.118 1.533-.059.353-.236.648-.414.884a2.519 2.519 0 01-.71.648c-.296.177-.592.236-1.006.295-.415.059-.829 0-1.243-.118l-3.55-.884 2.07-8.547 3.137.708c.888.235 1.539.589 1.953 1.06.414.472.533 1.062.355 1.71-.06.294-.177.53-.296.707-.118.236-.355.413-.592.59-.236.176-.532.235-.887.294.532.295.887.649 1.065 1.12zm-2.545 1.65c.237 0 .474-.117.651-.235a.858.858 0 00.355-.53c.06-.354 0-.65-.177-.885a2.022 2.022 0 00-1.066-.59l-1.36-.353-.533 2.18 1.302.354c.296.06.591.06.828.06zm-1.361-4.008l1.243.295c.236.06.473.06.65.06.178 0 .415-.119.533-.237a.619.619 0 00.296-.53c.06-.177.06-.413 0-.53-.059-.177-.177-.295-.355-.472a2.325 2.325 0 00-.77-.295l-1.124-.295-.473 2.005zm9.767 7.074l-3.077-1.415-1.302 1.356-1.657-.766 6.687-6.602 1.54.707-.711 9.372-1.657-.766.177-1.886zm.178-1.592l.355-3.654-2.545 2.652 2.19 1.002zm3.846 5.953a3.322 3.322 0 01-.651-1.178c-.178-.413-.237-.885-.237-1.297 0-.472.059-.884.237-1.415.177-.471.414-.943.769-1.414a5.763 5.763 0 011.006-1.061 3.36 3.36 0 011.184-.649c.414-.177.887-.236 1.302-.236.414 0 .887.06 1.42.236.533.177.947.413 1.42.767.355.235.651.53.888.884.237.353.473.707.651 1.178.178.472.296.943.296 1.415l-1.657.118c0-.413-.119-.825-.296-1.238-.178-.412-.474-.707-.829-1.002-.177-.118-.355-.236-.532-.294a7.417 7.417 0 00-.592-.177c-.178-.06-.414-.06-.592-.06-.177 0-.414.06-.592.119a2.104 2.104 0 00-.532.235 3.247 3.247 0 00-.533.413c-.177.177-.355.354-.473.53-.296.413-.533.884-.592 1.356a2.616 2.616 0 001.065 2.476c.355.235.77.412 1.184.471.414.059.887.059 1.302-.059l.355 1.65c-.651.177-1.243.177-1.953.06-.71-.118-1.302-.354-1.894-.826a4.684 4.684 0 01-1.124-1.002zm8.937 3.356l-1.361.059-1.894 1.65-1.183-1.297 6.628-5.835 1.183 1.297-2.9 2.593 4.972-.294 1.48 1.65-5.09.177-1.42 5.776-1.421-1.591 1.006-4.185zM27.243 95.648c-.296-.53-.414-1.061-.474-1.592-.059-.53 0-1.12.237-1.65.178-.59.533-1.12 1.006-1.65a5.18 5.18 0 011.42-1.12c.533-.295 1.066-.413 1.599-.472.532-.059 1.124 0 1.657.236.591.177 1.124.53 1.597.943.474.412.888.943 1.184 1.532.296.59.414 1.238.474 1.886l-1.598-.058c-.06-.885-.415-1.592-1.066-2.181a3.535 3.535 0 00-.887-.53 1.898 1.898 0 00-1.007-.119c-.355 0-.65.118-1.006.295a2.86 2.86 0 00-.946.766c-.355.413-.592.826-.71 1.297a2.86 2.86 0 000 1.415c.118.471.414.884.828 1.237a3.668 3.668 0 001.657.826l.828-.944-1.479-1.296 1.006-1.12 2.722 2.416-2.485 2.83c-.533 0-1.066-.177-1.657-.413-.592-.236-1.125-.59-1.657-1.06-.651-.531-1.006-1.003-1.243-1.474zm7.93 6.069c-.296-.354-.473-.767-.592-1.179-.118-.413-.118-.884-.059-1.356.06-.471.296-1.002.592-1.532l2.545-4.48 1.539.884-2.545 4.42c-.237.355-.355.708-.355 1.062-.06.353 0 .707.118 1.002.118.295.355.53.71.707.474.295.947.295 1.42.118.474-.177.888-.589 1.243-1.179l2.486-4.361 1.539.884-2.545 4.479c-.355.649-.829 1.179-1.361 1.533-.533.353-1.066.53-1.717.53-.591 0-1.242-.177-1.893-.53-.415-.295-.829-.649-1.125-1.002zm12.013 3.594l-3.196-1.061-1.124 1.473-1.717-.589 5.86-7.25 1.597.53.296 9.313-1.716-.589v-1.827zm-.06-1.592v-3.654l-2.189 2.888 2.19.766zm8.704 5.012l-1.54-3.242-1.005-.118-.414 2.947-1.717-.236 1.125-8.664 3.314.413c.532.058.947.176 1.302.412.355.177.65.413.888.707.177.295.355.649.414 1.002.06.354.06.767.06 1.179a3.45 3.45 0 01-.356 1.179 1.793 1.793 0 01-.71.766c-.296.177-.651.354-1.006.413l1.716 3.418-2.071-.176zm-2.368-4.834l1.184.177c.533.059.947 0 1.243-.177.296-.176.473-.53.532-.943.06-.412-.059-.766-.295-1.002-.237-.294-.592-.471-1.125-.53l-1.302-.177-.237 2.652zm11.777 3.126l-3.373.235-.474 1.769-1.834.118 2.663-8.901 1.657-.117 3.787 8.546-1.834.118-.592-1.768zm-.592-1.474l-1.42-3.359-.947 3.477 2.367-.118zm10.297-7.782l2.308 8.428-1.717.472-5.267-4.538 1.539 5.599-1.657.471-2.308-8.428 1.657-.472 5.326 4.657-1.598-5.718 1.717-.471zm3.551-.002l-2.19 1.06-.71-1.414 5.918-2.947.71 1.415-2.19 1.06 3.196 6.425-1.539.766-3.195-6.365zm3.668-3.713l4.498-3.3.947 1.237-3.137 2.299 1.243 1.71 2.545-1.828.888 1.238-2.545 1.827 1.183 1.65 3.374-2.475.947 1.238-4.735 3.477-5.208-7.073zm5.506-4.124l3.906-4.008 1.124 1.061-2.722 2.83 1.539 1.473 2.19-2.24 1.124 1.061-2.19 2.24 1.48 1.414 2.9-3.006 1.124 1.061-4.084 4.244-6.391-6.13z" fill="#fff"/><path d="M56.303 62.047c.71 1.061 1.066 2.299 1.066 3.713 0 1.415-.356 2.712-1.125 3.773-.77 1.12-1.775 1.945-3.077 2.534-1.302.59-2.782.884-4.38.884-2.19 0-4.083-.53-5.681-1.532-1.598-1.002-2.723-2.358-3.374-4.008l4.38-1.827c.71 1.886 2.19 2.829 4.38 2.829 1.065 0 1.952-.295 2.662-.943.71-.649 1.066-1.415 1.066-2.417 0-.943-.355-1.768-1.066-2.416-.71-.649-1.775-.944-3.077-.944h-1.835v-4.066h2.25c1.065 0 1.893-.295 2.426-.826.532-.53.828-1.296.828-2.122 0-.884-.296-1.65-.947-2.24-.65-.589-1.42-.883-2.367-.883-1.657 0-2.9.707-3.728 2.122l-4.025-2.122c.592-1.356 1.598-2.417 2.96-3.242 1.42-.825 3.018-1.238 4.852-1.238 1.125 0 2.19.177 3.196.472 1.006.294 1.835.707 2.604 1.296a6.633 6.633 0 011.716 2.122c.415.884.651 1.827.651 2.888a6.83 6.83 0 01-.828 3.301c-.533 1.002-1.361 1.768-2.427 2.417v.117c1.184.531 2.19 1.297 2.9 2.358zm10.239 10.021c-1.243-.59-2.25-1.415-3.137-2.535-.888-1.12-1.539-2.475-2.012-4.067-.474-1.591-.71-3.477-.71-5.481 0-1.945.236-3.654.71-5.305.473-1.65 1.124-2.947 1.953-4.126a9.08 9.08 0 013.136-2.652c1.243-.648 2.604-.943 4.143-.943 1.48 0 2.84.295 4.024.884 1.243.59 2.25 1.415 3.137 2.535.888 1.12 1.539 2.475 2.012 4.066.474 1.592.71 3.478.71 5.482 0 2.593-.414 4.833-1.183 6.778-.77 1.945-1.953 3.478-3.433 4.539-1.48 1.06-3.255 1.65-5.267 1.65-1.539.059-2.84-.236-4.083-.825zm7.575-5.894c.828-1.415 1.243-3.478 1.243-6.13 0-2.593-.415-4.597-1.243-6.071-.829-1.474-2.012-2.24-3.492-2.24s-2.663.708-3.492 2.181c-.828 1.415-1.302 3.477-1.302 6.13 0 1.71.178 3.183.533 4.42.355 1.238.947 2.181 1.657 2.889a3.743 3.743 0 002.545 1.002c1.539-.06 2.663-.767 3.55-2.181z" fill="#353438"/><path d="M59.975 30.282l1.303 3.949h4.201l-3.432 2.24 1.302 3.83-3.373-2.475-3.433 2.417 1.302-3.772-3.373-2.24h4.202l1.301-3.95zm10.652 5.247l.888 2.829h3.018l-2.426 1.474.947 2.71-2.427-1.826-2.485 1.709.947-2.593-2.427-1.474h3.018l.947-2.83zm-21.304 0l.887 2.829h3.018l-2.426 1.474.947 2.71-2.426-1.826-2.486 1.709.947-2.593-2.427-1.474h3.019l.947-2.83z" fill="#FD3E72"/><path d="M48.93 84.6h2.282c.54 0 1.032-.079 1.472-.248a3.024 3.024 0 001.107-.693c.3-.3.53-.657.689-1.079.16-.417.243-.876.243-1.378 0-.496-.084-.96-.253-1.382a3.124 3.124 0 00-.707-1.083c-.305-.3-.68-.535-1.12-.703a4.05 4.05 0 00-1.459-.254H48.93v6.82zm1.33-1.204V78.99h.953c.403 0 .764.098 1.087.286.319.187.572.45.75.787.178.338.272.718.272 1.14 0 .309-.056.6-.16.867a2.061 2.061 0 01-.44.698 1.995 1.995 0 01-.694.46 2.365 2.365 0 01-.9.168h-.867zm9.7 1.204h1.41l-2.536-6.82h-1.303l-2.526 6.82h1.41l.465-1.363h2.615l.464 1.364zm-2.691-2.516l.91-2.677h.008l.915 2.677h-1.833zm7.936-4.304l-1.374 2.49h-.019l-1.387-2.49h-1.547l2.255 3.826V84.6h1.364v-2.995l2.269-3.825h-1.561zm4.355 6.9c.23 0 .454-.023.68-.07.22-.047.435-.126.646-.239.21-.112.398-.244.558-.403.16-.16.286-.356.384-.595.094-.24.145-.502.145-.793 0-.28-.046-.525-.13-.74-.141-.338-.427-.624-.85-.858-.187-.098-.562-.258-1.129-.483a4.925 4.925 0 01-.74-.323.916.916 0 01-.235-.169.552.552 0 01-.126-.188.516.516 0 01-.047-.23c0-.21.08-.379.23-.5.15-.123.346-.183.59-.183.44 0 .937.224 1.486.67l.778-1.017c-.708-.582-1.472-.868-2.297-.858-.403.01-.773.098-1.106.267a1.98 1.98 0 00-.792.698c-.197.3-.29.629-.29.985a1.885 1.885 0 00.225.923c.065.122.154.235.262.342.107.108.215.202.328.277a3.911 3.911 0 00.806.417c.126.052.272.108.44.164.183.066.333.117.446.164.112.047.22.099.323.155.103.056.183.117.24.173a.722.722 0 01.13.207c.029.08.047.168.047.267a.654.654 0 01-.107.375.718.718 0 01-.333.253c-.15.066-.328.094-.54.094-.14 0-.28-.014-.421-.052a2.03 2.03 0 01-.436-.154 2.189 2.189 0 01-.436-.268 2.363 2.363 0 01-.403-.38l-.811.999c.347.361.736.628 1.162.806a3.4 3.4 0 001.322.267z" fill="#353438"/><path d="M16.477 62.872a2.776 2.776 0 002.781-2.77c0-1.53-1.245-2.77-2.781-2.77a2.776 2.776 0 00-2.782 2.77c0 1.53 1.246 2.77 2.782 2.77zm88.177 0a2.776 2.776 0 002.781-2.77c0-1.53-1.245-2.77-2.781-2.77a2.776 2.776 0 00-2.782 2.77c0 1.53 1.245 2.77 2.782 2.77z" fill="#fff"/></svg>