<svg width="56" height="56" fill="none" xmlns="http://www.w3.org/2000/svg"><path d="M51.656 42.599l-2.265.963c-.69.275-1.187.907-1.325 1.65l-.442 2.42c-.166.99-1.022 1.733-2.016 1.816l-2.458.165a2.175 2.175 0 00-1.768 1.128l-1.188 2.145a2.2 2.2 0 01-2.513 1.045l-2.375-.632a2.216 2.216 0 00-2.044.495l-1.822 1.65a2.25 2.25 0 01-2.707.193L26.69 54.26a2.193 2.193 0 00-2.099-.192l-2.264.962c-.94.386-2.016.11-2.624-.687l-1.491-1.953c-.442-.605-1.16-.908-1.906-.88l-2.458.165c-1.022.082-1.933-.55-2.265-1.513l-.773-2.338c-.22-.715-.8-1.238-1.519-1.43l-2.375-.633a2.182 2.182 0 01-1.63-2.145l.028-2.448c0-.743-.359-1.43-.967-1.87l-2.043-1.376a2.214 2.214 0 01-.856-2.558l.828-2.31a2.141 2.141 0 00-.331-2.064L.452 29.038c-.607-.797-.607-1.925.028-2.695l1.547-1.925a2.22 2.22 0 00.386-2.063l-.773-2.338c-.332-1.073.027-2.118.884-2.668l2.071-1.32a2.133 2.133 0 001.022-1.844l.027-2.448c0-1.017.719-1.87 1.685-2.118l2.403-.577a2.185 2.185 0 001.574-1.403l.829-2.31c.331-.963 1.298-1.54 2.292-1.458l2.458.247c.746.083 1.464-.247 1.933-.825l1.547-1.925C21 .57 22.077.323 23.016.735l2.237 1.018c.69.385 1.492.33 2.127-.083L29.45.35a2.215 2.215 0 012.707.248l1.795 1.677a2.224 2.224 0 002.044.55l2.402-.577a2.144 2.144 0 012.458 1.128l1.133 2.173c.359.66.994 1.1 1.74 1.182l2.458.22a2.169 2.169 0 011.96 1.87l.36 2.421c.11.743.58 1.376 1.27 1.678l2.237 1.018a2.231 2.231 0 011.27 2.393l-.441 2.42a2.12 2.12 0 00.662 1.98l1.796 1.679c.745.687.911 1.788.414 2.668L54.5 27.223c-.36.66-.387 1.43-.028 2.09l1.16 2.174c.47.88.276 1.98-.497 2.668l-1.85 1.622a2.223 2.223 0 00-.719 1.98l.387 2.421c.166 1.046-.359 2.008-1.298 2.42z" fill="#FD3E72"/><path d="M27.986 43.508c8.481 0 15.356-6.847 15.356-15.293 0-8.446-6.875-15.293-15.356-15.293-8.48 0-15.355 6.847-15.355 15.293 0 8.446 6.875 15.293 15.355 15.293z" fill="#F9F8F4"/><path d="M11.694 12.455l3.231 2.53-.497.633-2.016-1.568.773 1.87-.331.413-2.016-.302 2.016 1.568-.497.632-3.26-2.503.498-.632 2.623.44-1.077-2.42.553-.66zm4.529 1.319c-.276.082-.525.082-.801.055-.276-.028-.497-.138-.746-.276-.248-.137-.442-.33-.635-.577a2.248 2.248 0 01-.387-.77 1.573 1.573 0 01-.055-.798 1.64 1.64 0 01.276-.743c.138-.247.332-.467.58-.632.249-.193.497-.303.746-.385.276-.083.525-.083.8-.055.25.027.498.11.746.275.25.137.47.33.636.577.193.248.331.495.386.77.083.276.083.55.056.798-.028.248-.139.495-.277.743-.138.247-.331.44-.58.632-.193.165-.47.303-.745.386zm.663-1.376a.925.925 0 00.138-.467c0-.165 0-.33-.056-.495a2.08 2.08 0 00-.248-.496c-.166-.192-.331-.357-.552-.44a1.053 1.053 0 00-.636-.11 1.3 1.3 0 00-.607.248c-.194.137-.332.33-.415.55-.082.22-.11.44-.055.66.028.22.138.44.276.633.139.192.332.357.553.44a1.1 1.1 0 00.663.11c.248-.028.442-.11.635-.248.11-.11.22-.247.304-.385zm3.757-5.72l1.685 3.74-.774.33-2.761-1.76 1.104 2.476-.745.33-1.685-3.741.745-.33L21.03 9.51l-1.132-2.53.746-.303zm1.49-.468l2.568-.577.166.715-1.795.385.22.963 1.437-.303.166.688-1.436.33.193.935 1.905-.412.166.715-2.706.605-.884-4.044zm7.209-.853l-1.298 2.338.055 1.816-.828.027-.056-1.815-1.436-2.256.94-.027.883 1.485.773-1.513.967-.055zm5.082 3.273c.11.22.11.44.055.715a.956.956 0 01-.193.413c-.083.11-.193.22-.331.303-.139.082-.277.11-.47.137-.193.028-.386 0-.58-.055l-1.657-.412.967-3.989 1.463.33c.415.11.719.275.912.495.193.22.248.495.165.798a.915.915 0 01-.138.33c-.055.11-.165.193-.276.275-.11.083-.248.11-.414.138.249.137.414.302.497.522zm-1.188.77a.58.58 0 00.304-.11.4.4 0 00.166-.247.516.516 0 00-.083-.413.944.944 0 00-.497-.275l-.635-.165-.249 1.018.608.165c.138.027.276.027.386.027zm-.635-1.87l.58.138c.11.027.221.027.304.027a.412.412 0 00.249-.11.289.289 0 00.138-.247.378.378 0 000-.248c-.028-.083-.083-.138-.166-.22a1.085 1.085 0 00-.359-.138l-.525-.137-.22.935zm4.556 3.301l-1.436-.66-.608.633-.773-.358 3.12-3.08.719.33-.332 4.373-.773-.358.083-.88zm.083-.743l.165-1.705-1.187 1.238 1.022.467zm1.795 2.78a1.55 1.55 0 01-.303-.55 1.562 1.562 0 01-.11-.606c0-.22.027-.412.11-.66.082-.22.193-.44.359-.66a2.69 2.69 0 01.47-.495c.165-.138.358-.248.551-.303a1.58 1.58 0 01.608-.11 2.1 2.1 0 01.663.11c.248.083.442.193.663.358.165.11.303.248.414.413.11.165.22.33.304.55.083.22.138.44.138.66l-.773.055c0-.193-.056-.385-.139-.578-.082-.192-.22-.33-.386-.467a1.12 1.12 0 00-.249-.138c-.083-.027-.165-.055-.276-.082-.083-.028-.193-.028-.276-.028a.986.986 0 00-.276.055c-.083.028-.166.055-.249.11-.083.055-.166.11-.248.193a1.783 1.783 0 00-.221.247c-.138.193-.249.413-.276.633a1.221 1.221 0 00.497 1.155c.165.11.359.193.552.22.193.028.414.028.608-.027l.165.77a2.03 2.03 0 01-.911.027 1.82 1.82 0 01-.884-.385 2.19 2.19 0 01-.525-.467zm4.171 1.565l-.635.027-.884.77-.552-.605 3.093-2.723.552.606-1.353 1.21 2.32-.138.69.77-2.375.083-.663 2.695-.662-.742.47-1.953zM12.715 44.635a1.91 1.91 0 01-.22-.742 1.5 1.5 0 01.11-.77c.083-.276.248-.523.47-.77a2.41 2.41 0 01.662-.523c.249-.138.497-.193.746-.22.248-.028.525 0 .773.11.276.082.525.247.746.44.22.192.414.44.552.715.138.275.194.577.221.88l-.746-.028a1.444 1.444 0 00-.497-1.017 1.647 1.647 0 00-.414-.248.89.89 0 00-.47-.055c-.165 0-.303.055-.469.138a1.335 1.335 0 00-.442.357 1.461 1.461 0 00-.331.605c-.056.22-.056.44 0 .66.055.22.193.413.386.578.221.193.498.33.774.385l.386-.44-.69-.605.47-.523 1.27 1.128-1.16 1.32c-.249 0-.497-.082-.773-.192a2.628 2.628 0 01-.774-.495c-.303-.248-.47-.468-.58-.688zm3.701 2.832a1.476 1.476 0 01-.276-.55 1.607 1.607 0 01-.028-.633c.028-.22.138-.468.276-.715l1.188-2.09.718.412-1.188 2.063a.886.886 0 00-.166.495.88.88 0 00.056.468.643.643 0 00.331.33.717.717 0 00.663.055c.22-.083.414-.275.58-.55l1.16-2.036.718.413-1.188 2.09a2 2 0 01-.635.715 1.378 1.378 0 01-.8.248c-.277 0-.58-.083-.885-.248a2.881 2.881 0 01-.524-.467zm5.606 1.678l-1.491-.495-.525.688-.8-.275 2.733-3.383.746.247.138 4.346-.8-.275v-.853zm-.027-.742v-1.706l-1.022 1.348 1.021.358zm4.06 2.337l-.718-1.512-.47-.055-.193 1.375-.801-.11.525-4.044 1.546.193c.249.028.442.083.608.193.166.082.304.192.414.33.083.137.166.302.194.467.027.165.027.358.027.55a1.61 1.61 0 01-.166.55.838.838 0 01-.33.358 1.41 1.41 0 01-.47.193l.8 1.595-.966-.083zm-1.105-2.255l.553.083c.248.027.441 0 .58-.083.138-.083.22-.248.248-.44a.536.536 0 00-.138-.468c-.11-.137-.276-.22-.525-.247l-.607-.083-.11 1.238zm5.496 1.458l-1.574.11-.22.825-.857.055 1.243-4.153.773-.055 1.768 3.988-.857.055-.276-.825zm-.276-.688l-.663-1.568-.442 1.623 1.105-.055zm4.804-3.63l1.077 3.933-.8.22-2.459-2.118.719 2.614-.774.22-1.077-3.934.774-.22 2.485 2.173-.746-2.668.801-.22zm1.659-.003l-1.022.495-.332-.66 2.762-1.375.332.66-1.022.495 1.491 2.998-.718.358-1.491-2.97zm1.711-1.732l2.099-1.54.442.577L39.42 44l.58.798 1.187-.853.415.578-1.188.852.553.77 1.574-1.155.442.578-2.21 1.623-2.43-3.301zm2.57-1.924l1.823-1.87.525.495-1.27 1.32.717.688 1.022-1.045.525.495-1.022 1.045.69.66 1.354-1.403.524.495-1.905 1.98-2.983-2.86z" fill="#fff"/><path d="M26.276 28.955c.331.495.497 1.073.497 1.733 0 .66-.166 1.265-.525 1.76a3.37 3.37 0 01-1.436 1.183c-.607.275-1.298.413-2.044.413-1.021 0-1.905-.248-2.65-.715a3.837 3.837 0 01-1.575-1.87l2.044-.854c.331.88 1.022 1.32 2.043 1.32.498 0 .912-.137 1.243-.44.332-.302.497-.66.497-1.127 0-.44-.165-.825-.497-1.128-.331-.302-.828-.44-1.436-.44h-.856v-1.898h1.05c.497 0 .883-.137 1.132-.385a1.39 1.39 0 00.386-.99c0-.413-.138-.77-.442-1.045a1.571 1.571 0 00-1.104-.413c-.774 0-1.354.33-1.74.99l-1.878-.99c.276-.632.745-1.128 1.38-1.513.664-.385 1.41-.577 2.265-.577a5.27 5.27 0 011.492.22c.47.137.856.33 1.215.605.331.275.608.605.8.99.194.413.305.853.305 1.348 0 .577-.138 1.073-.387 1.54-.248.468-.635.825-1.132 1.128v.055c.552.247 1.022.605 1.353 1.1zm4.779 4.677a4.035 4.035 0 01-1.464-1.183c-.415-.523-.718-1.155-.94-1.898-.22-.743-.33-1.623-.33-2.558 0-.908.11-1.705.33-2.476.222-.77.526-1.375.912-1.925a4.237 4.237 0 011.464-1.238c.58-.302 1.215-.44 1.933-.44.69 0 1.326.138 1.878.413.58.275 1.05.66 1.464 1.182.414.523.718 1.156.939 1.898.22.743.331 1.623.331 2.558 0 1.21-.193 2.256-.552 3.163-.36.908-.911 1.623-1.602 2.118-.69.495-1.519.77-2.458.77a3.947 3.947 0 01-1.905-.384zm3.535-2.751c.386-.66.58-1.623.58-2.86 0-1.21-.194-2.146-.58-2.834-.387-.687-.94-1.045-1.63-1.045s-1.243.33-1.63 1.018c-.386.66-.607 1.623-.607 2.86 0 .798.083 1.486.249 2.063a3.04 3.04 0 00.773 1.348c.331.303.746.468 1.187.468.719-.028 1.243-.358 1.658-1.018z" fill="#353438"/><path d="M27.988 14.13l.608 1.844h1.96l-1.601 1.045.608 1.788-1.575-1.155-1.601 1.127.607-1.76-1.574-1.045h1.96l.608-1.843zm4.972 2.45l.414 1.32h1.409l-1.133.688.442 1.265-1.132-.852-1.16.797.442-1.21-1.133-.688h1.409l.442-1.32zm-9.944 0l.415 1.32h1.408l-1.132.688.442 1.265-1.133-.852-1.16.797.442-1.21-1.132-.688h1.409l.441-1.32z" fill="#FD3E72"/><path d="M22.834 39.48h1.065c.252 0 .482-.037.687-.116.206-.077.376-.184.516-.324a1.4 1.4 0 00.322-.503c.074-.195.114-.409.114-.643 0-.232-.04-.448-.118-.645a1.457 1.457 0 00-.33-.506 1.498 1.498 0 00-.523-.328 1.89 1.89 0 00-.68-.118h-1.053v3.183zm.621-.562V36.86h.444a.99.99 0 01.508.134c.148.087.267.21.35.367.083.158.127.335.127.532 0 .144-.027.28-.075.405a.932.932 0 01-.53.54 1.104 1.104 0 01-.42.079h-.404zm4.526.562h.659l-1.184-3.183h-.608l-1.179 3.183h.658l.217-.637h1.22l.217.637zm-1.256-1.175l.425-1.249h.004l.427 1.25h-.855zm3.704-2.008l-.641 1.162h-.009l-.647-1.162h-.722l1.052 1.785v1.398h.637v-1.398l1.058-1.785h-.728zm2.032 3.22c.107 0 .212-.01.317-.033a1.16 1.16 0 00.562-.299.834.834 0 00.18-.278 1 1 0 00.068-.37.937.937 0 00-.062-.346c-.065-.157-.199-.29-.396-.4a6.754 6.754 0 00-.527-.225 2.335 2.335 0 01-.346-.15.427.427 0 01-.109-.08.257.257 0 01-.059-.087.241.241 0 01-.022-.108.29.29 0 01.108-.234.423.423 0 01.275-.085c.206 0 .438.105.694.313l.363-.475c-.33-.271-.687-.404-1.072-.4a1.18 1.18 0 00-.516.125.924.924 0 00-.37.326.818.818 0 00-.136.459.92.92 0 00.105.43 1.006 1.006 0 00.276.29 1.799 1.799 0 00.376.195c.06.023.127.05.206.076.085.03.155.054.208.076.052.022.102.046.15.073a.49.49 0 01.112.08.343.343 0 01.061.097.373.373 0 01.022.124.305.305 0 01-.05.175.336.336 0 01-.155.119.625.625 0 01-.252.043.944.944 0 01-.4-.096 1.023 1.023 0 01-.204-.125 1.102 1.102 0 01-.188-.177l-.378.466a1.608 1.608 0 001.16.501z" fill="#353438"/><path d="M7.689 29.34c.717 0 1.298-.58 1.298-1.293 0-.714-.581-1.293-1.298-1.293-.717 0-1.298.579-1.298 1.293s.58 1.292 1.298 1.292zm41.151 0c.716 0 1.297-.58 1.297-1.293 0-.714-.581-1.293-1.298-1.293-.717 0-1.298.579-1.298 1.293s.581 1.292 1.298 1.292z" fill="#fff"/></svg>