<svg width="265" height="195" fill="none" xmlns="http://www.w3.org/2000/svg"><path d="M132.926 194.852c49.665 0 89.926-40.261 89.926-89.926S182.591 15 132.926 15 43 55.261 43 104.926s40.261 89.926 89.926 89.926z" fill="url(#paint0_linear)"/><path d="M81.37 149.815c-4.74-4.741-17.63-19.111-19.852-41.037C59 83.296 71.889 59.148 91.297 45.667c19.852-13.63 40.593-12 46.223-11.556 32 2.815 50.37 26.074 53.629 30.222-5.037 2.074-9.926 4.297-14.963 6.37-3.111-5.036-11.259-16.147-26.074-22.518-25.037-10.815-48.148.593-51.555 2.519-2.815 1.481-17.037 9.037-26.223 26.37-9.185 17.037-7.852 32.889-7.555 36.445 1.926 19.555 12.74 32.148 16.592 36.296z" fill="url(#paint1_linear)"/><path d="M197.222 75.445l-14.518 10.222c.889 2.666 1.777 5.778 2.37 9.333 1.333 8.593.445 16-.741 21.037l19.556 3.111c1.333-8.444 2.074-21.185-2.815-35.111-1.333-3.111-2.518-6.074-3.852-8.593z" fill="url(#paint2_linear)"/><path d="M132.333 126.704c12.273 0 22.223-9.95 22.223-22.223 0-12.272-9.95-22.222-22.223-22.222s-22.222 9.95-22.222 22.222c0 12.273 9.949 22.223 22.222 22.223z" fill="#fff"/><path d="M132.778 114.852c5.564 0 10.074-4.511 10.074-10.074 0-5.564-4.51-10.074-10.074-10.074s-10.074 4.51-10.074 10.074c0 5.563 4.51 10.074 10.074 10.074z" fill="#1D3D67"/><path d="M128.185 95.74c21.926-8.74 43.704-17.48 65.63-26.221-18.667 14.518-37.185 29.185-55.852 43.703-3.259-5.778-6.519-11.704-9.778-17.481z" fill="#1D3D67"/><defs><linearGradient id="paint0_linear" x1="222.991" y1="104.996" x2="43" y2="104.996" gradientUnits="userSpaceOnUse"><stop stop-color="#FDE5F2"/><stop offset="1" stop-color="#FEB7C6"/></linearGradient><linearGradient id="paint1_linear" x1="61.2" y1="91.799" x2="191.12" y2="91.799" gradientUnits="userSpaceOnUse"><stop stop-color="#D4356F"/><stop offset="1" stop-color="#FD4380"/></linearGradient><linearGradient id="paint2_linear" x1="182.951" y1="85.396" x2="206.727" y2="116.948" gradientUnits="userSpaceOnUse"><stop stop-color="#04B07E"/><stop offset=".164" stop-color="#0BB382"/><stop offset=".395" stop-color="#1DBB8C"/><stop offset=".665" stop-color="#3BC99D"/><stop offset=".963" stop-color="#64DBB5"/><stop offset="1" stop-color="#6ADEB8"/></linearGradient></defs></svg>