<svg width="339" height="226" fill="none" xmlns="http://www.w3.org/2000/svg"><path d="M334.791 225.68H9.247A3.243 3.243 0 016 222.441V3.239A3.219 3.219 0 019.247 0H334.79a3.243 3.243 0 013.247 3.24v219.2c-.038 1.77-1.473 3.239-3.247 3.239z" fill="#fff"/><path d="M338 39.132H6V3.24A3.219 3.219 0 019.247 0H334.79a3.243 3.243 0 013.247 3.24v35.892H338z" fill="#E0E0E0"/><path d="M102.195 14.161L98.57 7.646c-.604-1.13-1.812-1.808-3.058-1.808H48.85c-1.284 0-2.454.678-3.058 1.808l-3.625 6.515c-.604 1.13-1.812 1.808-3.058 1.808H6v23.126h332V15.969H105.253c-1.284 0-2.454-.678-3.058-1.808z" fill="#EDEDED"/><path d="M304.287 32.39H44.47a4.377 4.377 0 01-4.379-4.368v-1.205a4.377 4.377 0 014.38-4.37h259.816a4.377 4.377 0 014.379 4.37v1.205a4.377 4.377 0 01-4.379 4.369z" fill="#fff"/><path d="M327.693 24.707h-11.061a.756.756 0 01-.755-.753v-.678c0-.414.339-.753.755-.753h11.061c.416 0 .755.339.755.753v.678c.038.414-.302.753-.755.753zm0 3.842h-11.061a.756.756 0 01-.755-.753v-.678c0-.415.339-.754.755-.754h11.061c.416 0 .755.34.755.754v.678c.038.414-.302.753-.755.753zm0 3.841h-11.061a.756.756 0 01-.755-.753v-.678c0-.414.339-.753.755-.753h11.061c.416 0 .755.339.755.753v.678c.038.415-.302.754-.755.754zm-24.841-1.77l-1.812-.941a.115.115 0 00-.151 0l-1.812.942c-.114.075-.265-.038-.227-.151l.34-2.034c0-.038 0-.113-.038-.15l-1.472-1.432c-.076-.075-.038-.264.075-.264l2.039-.3c.038 0 .113-.038.113-.076l.906-1.846c.076-.113.227-.113.265 0l.906 1.846c.037.038.075.075.113.075l2.039.301c.113 0 .188.189.075.264l-1.472 1.431c-.038.038-.038.076-.038.151l.34 2.034c.075.15-.076.226-.189.15zm-4.04-3.352l.906.867c.038.037.038.075.038.15l-.226 1.206c-.038.113.113.226.226.15l1.095-.565a.115.115 0 01.151 0l1.095.565c.113.076.264-.037.226-.15l-.226-1.206c0-.037 0-.113.038-.15l.906-.867c.075-.075.037-.263-.076-.263l-1.246-.189c-.037 0-.113-.037-.113-.075l-.566-1.13c-.076-.113-.227-.113-.264 0l-.567 1.13c-.038.038-.075.075-.113.075l-1.246.189c-.075 0-.113.15-.038.263zm-249.358.452c-.151 1.47-1.36 2.637-2.87 2.637a2.905 2.905 0 01-2.907-2.9c0-1.62 1.322-2.9 2.907-2.9a2.86 2.86 0 011.737.602l-.793.452 1.095.64 1.095.64v-2.56l-.793.452c-.604-.565-1.434-.867-2.378-.867a3.54 3.54 0 100 7.081c1.887 0 3.398-1.469 3.549-3.277h-.642zM21.63 26.44h-7.74l2.077-2.11-1.435-1.43-4.492 4.519.037.038h-.037l4.492 4.52 1.435-1.432-2.077-2.071h7.74V26.44zm3.624 0h7.702l-2.077-2.11 1.435-1.43 4.53 4.519-.038.038h.038l-4.53 4.52-1.435-1.432 2.077-2.071h-7.702V26.44zm83.132-16.233h-1.963V8.286h-1.208v1.92h-1.963v1.244h1.963v1.958h1.208V11.45h1.963v-1.243zm-10.608 1.506l-.869-.866.869-.866-.529-.528-.868.867-.869-.867-.528.528.83.866-.83.866.528.528.869-.867.868.867.529-.528z" fill="#B3B3B3"/><path d="M15.438 11.035a2.828 2.828 0 002.832-2.824 2.828 2.828 0 00-2.832-2.825 2.828 2.828 0 00-2.831 2.825 2.828 2.828 0 002.831 2.824z" fill="#EE6C60"/><path d="M22.913 11.035a2.828 2.828 0 002.832-2.824 2.828 2.828 0 00-2.832-2.825 2.828 2.828 0 00-2.831 2.825 2.828 2.828 0 002.831 2.824z" fill="#F6BF50"/><path d="M30.426 11.035a2.828 2.828 0 002.832-2.824 2.828 2.828 0 00-2.832-2.825 2.828 2.828 0 00-2.831 2.825 2.828 2.828 0 002.831 2.824z" fill="#62C654"/><rect x="40" y="130" width="260" height="20" rx="4" fill="#EAEAEA"/><g filter="url(#filter0_d)"><path d="M40 134a4 4 0 014-4h160v20H44a4 4 0 01-4-4v-12z" fill="url(#paint0_linear)"/></g><path d="M160.909 91H155v6.364h5.909V91zm1.182 6.364H168V91h-5.909v6.364zm-1.182 1.272H155V105h5.909v-6.364zm1.182 6.364H168v-6.364h-5.909V105zm32.223-5.058a2.438 2.438 0 01-1.605-2.135c-.068-.95.408-1.795 1.273-2.259l.719-.385-.513-.626c-.864-1.053-2.099-1.682-3.305-1.682-.836 0-1.415.214-1.881.387-.329.122-.588.217-.873.217-.325 0-.645-.112-1.017-.24-.487-.17-1.038-.363-1.747-.363-1.369 0-2.749.8-3.602 2.086-1.273 1.918-.924 5.207.831 7.821.695 1.035 1.67 2.225 3.051 2.237h.026c1.13 0 1.378-.59 2.475-.597 1.198.056 1.35.602 2.469.594 1.349-.012 2.321-1.192 3.095-2.345.456-.678.633-1.033.989-1.803l.301-.654-.686-.253zm-4.302-8.778c.447-.562.787-1.354.663-2.164-.73.05-1.583.504-2.082 1.096-.452.538-.826 1.335-.681 2.11.797.025 1.622-.44 2.1-1.042zm70.785 3.023c0 .71-.573 1.287-1.281 1.287-.707 0-1.28-.577-1.28-1.287s.573-1.287 1.28-1.287c.708 0 1.281.576 1.281 1.287z" fill="#CECCCC"/><path fill-rule="evenodd" clip-rule="evenodd" d="M262.816 90v14h-3.343a3.481 3.481 0 01-3.473-3.489v-7.022A3.481 3.481 0 01259.473 90h3.343zm-3.343 1.047h2.301v11.906h-2.301a2.436 2.436 0 01-2.431-2.442v-7.022a2.436 2.436 0 012.431-2.442zM264.205 90h2.311A3.492 3.492 0 01270 93.5v7c0 1.933-1.56 3.5-3.484 3.5h-2.311V90zm4.167 7.698c0 .783-.632 1.417-1.411 1.417a1.414 1.414 0 01-1.411-1.417c0-.783.632-1.418 1.411-1.418s1.411.635 1.411 1.418z" fill="#CECCCC"/><path d="M288.174 98.75h.667v-.7h-.667v.7zm3.333 0h.667v-.7h-.667v.7z" fill="#CECCCC"/><path fill-rule="evenodd" clip-rule="evenodd" d="M282.696 90h14.608a.7.7 0 01.696.7v10.5a.7.7 0 01-.696.7h-14.608a.7.7 0 01-.696-.7V90.7a.7.7 0 01.696-.7zm10.698 5.852l-.867.91a4.244 4.244 0 011.647 3.388h-8a4.26 4.26 0 011.633-3.381l-.873-.917a.36.36 0 010-.497c.133-.14.34-.14.473 0l.994 1.036a3.794 3.794 0 011.773-.441c.633 0 1.233.161 1.76.441l.987-1.036c.133-.14.34-.14.473 0a.36.36 0 010 .497z" fill="#CECCCC"/><path d="M285.478 102.6h9.044v.7a.703.703 0 01-.204.495.693.693 0 01-.492.205h-7.652a.693.693 0 01-.492-.205.703.703 0 01-.204-.495v-.7zm-48.15-7.375c.487.13.84.57.976 1.21.095.45.069.97-.067 1.38-.212.639-.673.999-1.232.993-.56.006-1.02-.355-1.232-.993a2.778 2.778 0 01-.067-1.38c.135-.64.489-1.08.976-1.21.221-.047.441-.038.646 0z" fill="#CECCCC"/><path fill-rule="evenodd" clip-rule="evenodd" d="M238 104a7 7 0 100-14 7 7 0 000 14zm-4.23-9.531a.487.487 0 100 .974.487.487 0 000-.974zm-.455 1.486v3.576h.91v-3.576h-.91zm3.69-1.486a2.267 2.267 0 00-1.017.237c-.811.404-1.28 1.255-1.28 2.327 0 1.075.461 1.9 1.275 2.287.22.104.441.161.775.2l.077.004c.141.007.276.013.416-.003.335-.04.555-.097.775-.201.814-.386 1.275-1.212 1.275-2.287 0-1.072-.468-1.923-1.28-2.327a2.263 2.263 0 00-1.016-.237zm3.523 5.038l.096.016c.108.013.422.01.555-.005.712-.08 1.185-.372 1.418-.875.096-.207.121-.332.12-.6-.002-.322-.09-.647-.367-.923-.199-.203-.432-.339-.917-.536-.659-.268-.837-.404-.895-.685-.082-.447.381-.7.808-.694.301.001.658.091.975.217.01-.015.198-.678.198-.698 0-.052-.368-.173-.69-.227a3.518 3.518 0 00-.888 0c-.731.13-1.208.556-1.307 1.168-.036.22-.009.472.07.67.161.402.556.711 1.229.963.604.226.824.409.873.726a.607.607 0 01-.351.66c-.486.223-1.206-.02-1.717-.194a18.9 18.9 0 00-.197.734c.292.166.631.223.987.283z" fill="#CECCCC"/><path d="M208.8 102c0 .367.315.667.7.667h.7V105c0 .553.469 1 1.05 1 .581 0 1.05-.447 1.05-1v-2.333h1.4V105c0 .553.469 1 1.05 1 .581 0 1.05-.447 1.05-1v-2.333h.7c.385 0 .7-.3.7-.667v-6.667h-8.4V102zm-1.75-6.667c-.581 0-1.05.447-1.05 1V101c0 .553.469 1 1.05 1 .581 0 1.05-.447 1.05-1v-4.667c0-.553-.469-1-1.05-1zm11.9 0c-.581 0-1.05.447-1.05 1V101c0 .553.469 1 1.05 1 .581 0 1.05-.447 1.05-1v-4.667c0-.553-.469-1-1.05-1zm-3.479-3.893l.91-.867a.32.32 0 000-.473.359.359 0 00-.497 0l-1.036.987a4.316 4.316 0 00-3.71 0l-1.043-.987a.359.359 0 00-.497 0 .32.32 0 000 .473l.917.874c-1.036.726-1.715 1.893-1.715 3.22h8.4c0-1.327-.679-2.5-1.729-3.227zm-3.871 1.893h-.7v-.666h.7v.666zm3.5 0h-.7v-.666h.7v.666z" fill="#CECCCC"/><path d="M75.265 98.898h-8.576a.613.613 0 00-.615.72l.036.248c.059.33.153.648.283.967.201.484.52.908.957 1.286.425.378 1.028.555 1.796.555.767 0 1.358-.189 1.795-.555.343-.295.603-.625.803-.979a.62.62 0 01.532-.307h2.398a.63.63 0 01.59.838 4.808 4.808 0 01-.39.861 6.488 6.488 0 01-.897 1.262c-.33.354-.673.649-1.051.885a8.121 8.121 0 01-1.087.578 7.494 7.494 0 01-2.717.508c-1.252-.024-2.363-.284-3.331-.779a7.057 7.057 0 01-1.217-.85 5.088 5.088 0 01-1.063-1.297c-.307-.519-.555-1.145-.744-1.876-.19-.732-.284-1.57-.284-2.549 0-.967.095-1.817.284-2.548.189-.731.437-1.357.744-1.888.307-.53.661-.967 1.063-1.321a6.586 6.586 0 011.217-.861c.957-.52 2.055-.79 3.296-.838h.07a8.153 8.153 0 012.847.637c.378.165.756.39 1.134.66.378.272.733.603 1.063 1.004.331.4.615.873.863 1.427.248.555.437 1.192.543 1.911.036.284.071.567.095.862.023.295.047.613.047.955.012-.023.083.484-.484.484zm-4.088-2.324c.45 0 .768-.472.567-.873 0 0 0-.012-.011-.012a2.936 2.936 0 00-.58-.814 2.909 2.909 0 00-.862-.578c-.33-.142-.732-.212-1.169-.212-.449 0-.839.07-1.17.212-.33.141-.626.33-.862.578a3.055 3.055 0 00-.59.814v.012c-.201.413.118.885.567.885h4.11v-.012zM60.771 85a3.406 3.406 0 00-3.414 3.41v9.875c0 .413-.023.826-.07 1.262a3.207 3.207 0 01-.355 1.168 2.342 2.342 0 01-.85.885c-.379.236-.922.354-1.607.354-.685 0-1.229-.118-1.607-.354a2.342 2.342 0 01-.85-.885 3.207 3.207 0 01-.355-1.168 11.45 11.45 0 01-.07-1.262V88.103a3.406 3.406 0 00-3.414 3.41v6.76c0 .413-.024.826-.071 1.262a3.206 3.206 0 01-.355 1.168 2.342 2.342 0 01-.85.885c-.378.236-.922.354-1.607.354-.685 0-1.228-.118-1.606-.354a2.342 2.342 0 01-.85-.885 3.206 3.206 0 01-.355-1.168 11.45 11.45 0 01-.071-1.262v-7.067A3.413 3.413 0 0039 94.616v3.657c0 .967.094 1.817.283 2.548.19.732.426 1.357.71 1.888a5.33 5.33 0 001.003 1.321c.378.354.768.637 1.158.862.91.519 1.961.802 3.13.837 1.194-.035 2.245-.318 3.166-.837a5.86 5.86 0 001.146-.862c.095-.094.19-.188.284-.295.094.107.189.201.283.295.378.354.768.637 1.158.862.91.519 1.96.802 3.13.837 1.193-.035 2.245-.318 3.166-.837a5.86 5.86 0 001.146-.862 5.33 5.33 0 001.004-1.321c.295-.531.532-1.156.709-1.888.177-.731.26-1.569.26-2.548L60.77 85z" fill="#A52A51"/><path d="M86.098 104.868a.675.675 0 01-.638.46h-3.59a.686.686 0 01-.638-.46l-4.17-12.777a.663.663 0 01.638-.874h2.02c.284 0 .544.19.638.46l2.67 8.153a.664.664 0 001.264 0l1.535-4.696 2.576-7.88c.567-1.711 2.41-2.655 4.122-2.089l-6.426 19.703zm16.467-10.984a5.213 5.213 0 00-1.063-1.322 6.578 6.578 0 00-1.217-.86c-.968-.52-2.067-.803-3.284-.839-1.17 0-2.162.177-2.977.52a5.22 5.22 0 00-2.02 1.474c-.531.637-.91 1.416-1.157 2.336-.236.92-.366 1.959-.366 3.127v10.854c0 .46.366.826.827.826h1.653a.821.821 0 00.827-.826v-5.462a3.9 3.9 0 00.59.648c.485.413.958.708 1.418.885.52.201 1.052.319 1.607.354h.13c1.122-.023 2.126-.283 3-.778.39-.225.768-.508 1.134-.85.367-.342.686-.779.981-1.298.283-.519.52-1.144.697-1.864.177-.719.26-1.569.26-2.536 0-.968-.095-1.805-.296-2.537-.189-.708-.437-1.333-.744-1.852zm-2.492 5.745a4.02 4.02 0 01-.45 1.345 2.878 2.878 0 01-.956 1.039c-.413.283-.969.413-1.654.413-.685 0-1.24-.142-1.654-.413a3.17 3.17 0 01-.98-1.039 3.79 3.79 0 01-.46-1.345 9.29 9.29 0 01-.107-1.333c0-.495.035-.99.094-1.486.071-.496.201-.932.414-1.334a2.33 2.33 0 01.957-.955c.425-.236 1.004-.366 1.724-.366.685 0 1.24.142 1.654.413.413.283.744.625.957 1.038.224.413.366.873.449 1.345.071.484.106.932.106 1.333.012.413-.023.862-.094 1.345zm16.501-4.685c-.284-.85-.65-1.546-1.099-2.1-.449-.555-.933-.98-1.453-1.274-.519-.295-1.016-.52-1.476-.65a5.465 5.465 0 00-1.217-.235c-.343-.024-.543-.024-.602-.024-.071 0-.284.012-.615.024-.33.023-.732.094-1.193.236a7.396 7.396 0 00-1.476.648c-.52.295-1.005.72-1.453 1.275-.449.554-.816 1.262-1.099 2.1-.284.85-.437 1.887-.437 3.126v6.3c0 .413.331.744.744.744h1.902a.741.741 0 00.744-.744v-6.288c0-.413.036-.826.107-1.25.07-.425.212-.815.413-1.169.201-.353.496-.648.862-.873.367-.236.863-.342 1.477-.342.614 0 1.11.118 1.477.342.366.236.661.52.862.873.201.354.342.744.413 1.168.071.425.107.85.107 1.251v6.288c0 .413.33.744.744.744h1.949a.741.741 0 00.744-.744v-6.288c0-1.25-.142-2.289-.425-3.138z" fill="#FD3E72"/><path d="M53.88 138.161c-.51 0-.973.118-1.386.343l-.022-.005a3 3 0 01.988-1.3c.452-.344 1.021-.612 1.72-.811l-.436-1.203a4.844 4.844 0 00-1.622.607 4.714 4.714 0 00-1.262 1.08 4.75 4.75 0 00-.811 1.461 5.226 5.226 0 00-.29 1.734c0 .446.064.86.204 1.236.14.381.328.703.57.961.24.258.531.462.864.607.333.15.688.22 1.074.22.51 0 .972-.102 1.386-.311.413-.21.741-.505.977-.886.237-.382.36-.817.36-1.3a2.92 2.92 0 00-.182-1.037 2.167 2.167 0 00-.5-.768 2.28 2.28 0 00-.736-.462 2.496 2.496 0 00-.897-.166zm-.366 3.588c-.376 0-.687-.14-.945-.43-.258-.29-.387-.666-.387-1.128v-.102a2.02 2.02 0 01.59-.484c.232-.123.474-.188.726-.188.37 0 .671.108.897.323.226.215.344.483.344.816 0 .333-.118.612-.35.843-.23.237-.52.35-.875.35zm6.553 1.342c.602 0 1.123-.161 1.574-.483.445-.322.784-.779 1.02-1.359s.355-1.251.355-2.025a5.95 5.95 0 00-.215-1.633c-.145-.483-.344-.891-.602-1.219a2.693 2.693 0 00-.934-.752 2.772 2.772 0 00-1.198-.263c-.451 0-.865.097-1.23.279-.37.188-.682.451-.93.79a3.694 3.694 0 00-.58 1.224 5.614 5.614 0 00-.203 1.574c0 .602.07 1.15.214 1.633.14.489.344.897.602 1.219.258.328.564.58.93.752.359.177.757.263 1.197.263zm.005-1.391c-.295 0-.548-.096-.762-.301-.215-.198-.382-.483-.49-.859-.112-.371-.166-.811-.166-1.316 0-.789.124-1.402.376-1.831.253-.43.602-.645 1.042-.645.44 0 .79.22 1.037.661.247.44.376 1.047.376 1.815 0 .795-.129 1.402-.376 1.832-.247.429-.596.644-1.037.644zm7.901 1.558l3.46-7.767-1.08-.467-3.465 7.767 1.085.467zm-1.783-3.776c.43 0 .816-.097 1.16-.295a2.06 2.06 0 00.79-.801c.182-.333.274-.703.274-1.106 0-.425-.103-.806-.301-1.139a2.134 2.134 0 00-.806-.773 2.359 2.359 0 00-1.117-.269c-.435 0-.822.102-1.16.296a2.02 2.02 0 00-.784.794 2.222 2.222 0 00-.274 1.091c0 .429.096.816.3 1.155.2.338.468.596.806.778.333.183.704.269 1.112.269zm.01-1.026a1.036 1.036 0 01-.934-.559 1.249 1.249 0 01-.145-.606c0-.21.043-.403.134-.581.086-.171.215-.311.382-.413a1.03 1.03 0 01.564-.156c.198 0 .381.048.548.14.16.096.295.231.392.408.096.177.145.376.145.602 0 .333-.102.606-.306.832a.996.996 0 01-.78.333zm5.898 4.635c.43 0 .817-.096 1.16-.295.344-.199.607-.462.79-.795.183-.333.274-.698.274-1.101 0-.322-.06-.618-.178-.892a2.06 2.06 0 00-.472-.693 2.277 2.277 0 00-.71-.44 2.363 2.363 0 00-.864-.161c-.328 0-.628.059-.908.172-.279.118-.51.274-.698.467-.193.199-.338.43-.446.698a2.253 2.253 0 00-.16.849c0 .43.096.811.3 1.144.199.338.467.596.8.779.333.182.704.268 1.112.268zm.01-1.026c-.198 0-.38-.048-.542-.145a1.035 1.035 0 01-.397-.408 1.251 1.251 0 01-.145-.607c0-.322.097-.591.3-.816.205-.226.463-.339.785-.339a1.052 1.052 0 01.94.554c.097.177.145.376.145.601 0 .328-.102.602-.306.827a.996.996 0 01-.78.333z" fill="#fff"/><path d="M42.11 169h2.29a4.25 4.25 0 001.529-.259 3.18 3.18 0 001.157-.722c.308-.313.547-.684.718-1.123.166-.435.254-.914.254-1.436a3.85 3.85 0 00-.264-1.44 3.302 3.302 0 00-.732-1.128 3.342 3.342 0 00-1.167-.733 4.26 4.26 0 00-1.524-.263h-2.26V169zm1.206-1.084v-4.937h1.08c.463 0 .878.108 1.25.318.37.215.654.508.859.884.205.381.307.805.307 1.279 0 .352-.063.674-.18.977a2.24 2.24 0 01-.498.781c-.215.22-.474.39-.786.512a2.69 2.69 0 01-1.02.186h-1.012zm8.291 1.162a2.74 2.74 0 001.319-.312c.39-.21.693-.508.913-.889.215-.381.327-.82.327-1.309a2.66 2.66 0 00-.327-1.313 2.304 2.304 0 00-.908-.889 2.748 2.748 0 00-1.324-.317 2.7 2.7 0 00-1.347.332 2.29 2.29 0 00-.904.898c-.21.381-.312.811-.312 1.289 0 .357.059.689.186.996.122.313.293.577.512.801.22.225.493.396.816.523.322.127.669.19 1.05.19zm0-1.016c-.415 0-.756-.141-1.025-.429-.269-.283-.4-.64-.4-1.065 0-.429.131-.786.395-1.074.264-.283.606-.43 1.03-.43.406 0 .743.142 1.016.42.269.284.405.645.405 1.084 0 .435-.136.791-.41 1.075-.273.283-.61.419-1.01.419zm9.073-3.94l-1.055 3.213h-.015l-.957-3.213h-.932l-.943 3.208h-.02l-1.054-3.208h-1.133L56.246 169h1.01l.914-3.071h.02l.913 3.071h1.035l1.675-4.878H60.68zm4.868-.073c-.322 0-.62.063-.904.19a2.08 2.08 0 00-.732.552h-.014v-.669h-1.119V169h1.118v-2.451c0-.235.03-.445.088-.635.059-.185.147-.342.26-.469a1.11 1.11 0 01.4-.283c.156-.063.327-.098.517-.098.176 0 .322.025.45.069a.898.898 0 01.331.224c.093.103.162.24.21.415.044.176.069.391.069.645v2.588h1.118v-2.876c0-.703-.161-1.226-.479-1.567-.317-.342-.757-.513-1.313-.513zM68.79 169h1.118v-7.363H68.79V169zm4.927.078c.488 0 .927-.102 1.318-.312.39-.21.694-.508.913-.889.215-.381.327-.82.327-1.309a2.66 2.66 0 00-.327-1.313 2.303 2.303 0 00-.908-.889c-.39-.21-.83-.317-1.323-.317a2.7 2.7 0 00-1.348.332c-.39.22-.693.517-.903.898-.21.381-.313.811-.313 1.289 0 .357.059.689.186.996.122.313.293.577.513.801.22.225.493.396.815.523.322.127.669.19 1.05.19zm0-1.016c-.415 0-.757-.141-1.026-.429-.268-.283-.4-.64-.4-1.065 0-.429.132-.786.395-1.074.264-.283.606-.43 1.03-.43.406 0 .743.142 1.016.42.269.284.406.645.406 1.084 0 .435-.137.791-.41 1.075-.274.283-.61.419-1.011.419zm7.314-3.94v.586h-.02c-.37-.439-.873-.659-1.508-.659a2.291 2.291 0 00-1.68.713c-.21.224-.376.493-.493.805-.122.318-.18.655-.18 1.016 0 .298.034.576.112.84s.185.493.327.693c.142.2.308.371.503.518.195.146.41.259.654.332.244.078.498.112.767.112.664 0 1.181-.244 1.552-.732h.015V169h1.07v-4.878h-1.12zm-1.343 3.94c-.415 0-.752-.136-1.01-.41-.264-.273-.39-.63-.39-1.064 0-.225.033-.435.106-.63a1.34 1.34 0 01.748-.786c.17-.068.356-.108.551-.108.396 0 .723.147.987.44.263.293.395.654.395 1.084 0 .434-.136.791-.405 1.064-.269.274-.596.41-.981.41zm7.5-6.425v3.071h-.024c-.371-.439-.889-.659-1.543-.659a2.291 2.291 0 00-1.68.713c-.21.224-.376.493-.493.805-.122.318-.18.655-.18 1.016 0 .298.034.576.112.84s.185.493.327.693c.142.2.308.371.503.518.195.146.41.259.654.332.244.078.498.112.767.112.683 0 1.216-.244 1.587-.732h.02V169h1.069v-7.363h-1.118zm-1.381 6.425c-.415 0-.752-.136-1.011-.41-.264-.273-.39-.63-.39-1.064 0-.225.033-.435.107-.63a1.34 1.34 0 01.747-.786c.17-.068.356-.108.551-.108.416 0 .757.147 1.021.435.264.293.4.654.4 1.089 0 .439-.136.791-.41 1.064a1.38 1.38 0 01-1.015.41zm4.594-4.667a.72.72 0 00.371-.098.742.742 0 00.279-.274.72.72 0 00-.122-.893.718.718 0 00-.528-.22.723.723 0 00-.537.22.707.707 0 00-.22.522c0 .205.074.381.22.528a.723.723 0 00.537.215zM89.835 169h1.118v-4.878h-1.118V169zm5.42-4.951c-.322 0-.62.063-.903.19a2.08 2.08 0 00-.733.552h-.014v-.669h-1.119V169h1.118v-2.451c0-.235.03-.445.088-.635.059-.185.147-.342.26-.469a1.11 1.11 0 01.4-.283c.156-.063.327-.098.517-.098.176 0 .322.025.45.069a.898.898 0 01.331.224c.093.103.161.24.21.415.044.176.069.391.069.645v2.588h1.118v-2.876c0-.703-.161-1.226-.479-1.567-.317-.342-.757-.513-1.313-.513zm6.719.073v.513h-.02a2.163 2.163 0 00-.698-.44 2.337 2.337 0 00-.816-.151c-.449 0-.85.107-1.2.317a2.195 2.195 0 00-.83.884 2.698 2.698 0 00-.294 1.265c0 .478.103.898.308 1.264.205.372.493.655.854.85.362.195.767.293 1.221.293.605 0 1.099-.195 1.48-.596h.019v.518c0 .347-.127.635-.381.859-.254.23-.615.342-1.074.342a2.7 2.7 0 01-.835-.117c-.24-.078-.513-.2-.825-.366l-.264.986c.274.166.581.288.923.376a4.23 4.23 0 001.064.132c.352 0 .669-.039.953-.122.278-.083.512-.2.703-.347.19-.146.346-.332.473-.547.127-.215.215-.449.274-.703a4.08 4.08 0 00.083-.835v-4.375h-1.118zm-1.328 3.765c-.406 0-.738-.127-1.002-.381-.263-.254-.39-.601-.39-1.03 0-.411.127-.747.386-1.011.254-.259.59-.391 1.006-.391.19 0 .371.034.542.103.166.068.312.161.434.278.122.117.22.264.293.44.068.175.107.361.107.566 0 .415-.131.757-.385 1.025-.254.269-.586.401-.991.401zm4.379 1.191a.715.715 0 00.528-.215.724.724 0 00.224-.527.724.724 0 00-.224-.527.72.72 0 00-.528-.22.749.749 0 00-.385.102.756.756 0 00-.279.274.717.717 0 00-.097.371c0 .205.073.381.219.527a.733.733 0 00.542.215zm2.696 0a.711.711 0 00.527-.215.72.72 0 00.225-.527.72.72 0 00-.225-.527.716.716 0 00-.527-.22.75.75 0 00-.386.102.753.753 0 00-.278.274.709.709 0 00-.098.371c0 .205.073.381.22.527a.73.73 0 00.542.215zm2.695 0a.711.711 0 00.527-.215.72.72 0 00.225-.527.72.72 0 00-.225-.527.716.716 0 00-.527-.22.75.75 0 00-.386.102.753.753 0 00-.278.274.718.718 0 00-.098.371.72.72 0 00.22.527.731.731 0 00.542.215z" fill="#B7B7B7"/><defs><linearGradient id="paint0_linear" x1="3.92" y1="140" x2="8.999" y2="107.66" gradientUnits="userSpaceOnUse"><stop stop-color="#BA2C64"/><stop offset=".339" stop-color="#DE3873"/><stop offset=".661" stop-color="#F5407D"/><stop offset="1" stop-color="#FD4380"/></linearGradient><filter id="filter0_d" x="0" y="100" width="244" height="100" filterUnits="userSpaceOnUse" color-interpolation-filters="sRGB"><feFlood flood-opacity="0" result="BackgroundImageFix"/><feColorMatrix in="SourceAlpha" values="0 0 0 0 0 0 0 0 0 0 0 0 0 0 0 0 0 0 127 0"/><feOffset dy="10"/><feGaussianBlur stdDeviation="20"/><feColorMatrix values="0 0 0 0 0.666667 0 0 0 0 0.666667 0 0 0 0 0.666667 0 0 0 0.1 0"/><feBlend in2="BackgroundImageFix" result="effect1_dropShadow"/><feBlend in="SourceGraphic" in2="effect1_dropShadow" result="shape"/></filter></defs></svg>