<svg width="265" height="195" fill="none" xmlns="http://www.w3.org/2000/svg"><path d="M228.795 192.916H21.199c-5.932 0-10.58-4.809-10.58-10.58V52.328c0-5.932 4.809-10.58 10.58-10.58h207.596c5.931 0 10.58 4.809 10.58 10.58v130.008c0 5.771-4.809 10.58-10.58 10.58z" fill="url(#paint0_linear)"/><path d="M235.848 195H13.985A12.93 12.93 0 011 182.015v-.32h247.833v.32A12.93 12.93 0 01235.848 195z" fill="url(#paint1_linear)"/><path d="M228.634 175.443H20.718a3.97 3.97 0 01-4.008-4.008V51.526a3.969 3.969 0 014.008-4.007h207.916a3.969 3.969 0 014.008 4.007v119.909a3.969 3.969 0 01-4.008 4.008z" fill="#fff" opacity=".55"/><path d="M102.474 181.695l3.045 4.969h43.283l2.886-4.969h-49.214z" fill="url(#paint2_linear)"/><path d="M224.306 175.282H25.526V59.862c0-2.084 1.604-3.687 3.688-3.687h191.245c2.084 0 3.687 1.603 3.687 3.687v115.42h.16z" fill="url(#paint3_linear)"/><path d="M167.879 153.801H86.123c-3.527 0-6.413-2.885-6.413-6.412v-63.32c0-3.528 2.886-6.413 6.413-6.413h81.756c3.526 0 6.412 2.885 6.412 6.412v63.321c0 3.527-2.886 6.412-6.412 6.412z" fill="#fff"/><path d="M124.275 94.97h-5.29c-.16 0-.481.16-.32.48v.16c0 .16.16.32.16.641.16.321.32.481.641.802.321.16.641.32 1.122.32.481 0 .802-.16 1.122-.32.161-.16.321-.32.481-.641 0-.16.161-.16.321-.16h1.443c.32 0 .481.32.32.48 0 .16-.16.321-.16.481-.16.321-.321.481-.481.802-.16.16-.481.32-.641.48-.16.161-.481.321-.641.321-.481.16-1.123.321-1.603.321-.802 0-1.443-.16-2.084-.48-.321-.161-.481-.322-.802-.482-.321-.16-.481-.48-.641-.801-.16-.32-.321-.641-.481-1.123-.16-.48-.16-.961-.16-1.603 0-.64 0-1.122.16-1.603.16-.48.321-.801.481-1.122.16-.32.481-.64.641-.801.321-.16.481-.32.802-.481a4.436 4.436 0 012.084-.481c.641 0 1.122.16 1.763.32.16.16.481.16.641.481.16.16.481.321.641.642.161.32.321.48.481.801.161.32.321.802.321 1.122v1.122s0 .321-.321.321zm-2.565-1.444c.321 0 .481-.32.321-.48-.16-.16-.16-.321-.321-.482-.16-.16-.32-.32-.481-.32-.16-.16-.48-.16-.641-.16-.32 0-.481 0-.641.16-.16.16-.321.16-.481.32-.16.16-.321.321-.321.481-.16.321 0 .481.321.481h2.244zm-6.252-7.053c-1.122 0-2.083.962-2.083 2.084v6.893c0 .32-.161.48-.161.641l-.481.481c-.16.16-.641.16-.962.16-.32 0-.801 0-.961-.16-.161-.16-.481-.32-.481-.48-.161-.161-.161-.482-.161-.642v-7.053c-1.122 0-2.084.961-2.084 2.084v4.969c0 .32-.16.48-.16.641l-.481.481c-.16.16-.641.16-.962.16-.481 0-.801 0-.961-.16-.161-.16-.481-.32-.481-.48-.161-.161-.161-.482-.161-.642v-5.13c-1.122 0-2.084.962-2.084 2.084v2.244c0 .642 0 1.123.161 1.603.16.481.32.802.481 1.123.16.32.32.64.641.801.16.16.481.32.641.481.481.32 1.122.481 1.924.481.801 0 1.442-.16 1.923-.48.161-.161.481-.322.642-.482l.16-.16.16.16c.16.16.481.32.641.481.481.32 1.123.481 1.924.481.802 0 1.443-.16 1.924-.48.16-.161.481-.322.641-.482.16-.16.481-.48.641-.801.16-.321.321-.642.481-1.123.16-.48.16-.961.16-1.603l-.481-8.175zm15.39 12.183c0 .16-.16.32-.321.32h-2.244c-.16 0-.321-.16-.321-.32l-2.565-7.855c-.16-.32.161-.48.321-.48h1.283c.16 0 .32.16.32.32l1.603 4.97c.16.32.641.32.802 0l2.565-7.695c.32-1.123 1.442-1.603 2.565-1.283l-4.008 12.023zm10.099-6.733c-.16-.32-.481-.64-.641-.801-.16-.16-.481-.32-.802-.481a4.436 4.436 0 00-2.084-.481c-.641 0-1.282.16-1.763.32-.481.16-.962.481-1.282.962-.321.321-.481.802-.642 1.443-.16.641-.16 1.122-.16 1.924v6.572c0 .321.16.481.481.481h.962c.32 0 .481-.16.481-.481v-3.366c.16.16.16.32.32.32.321.321.642.481.802.481.32.16.641.16.962.16.641 0 1.282-.16 1.763-.48.16-.16.481-.32.641-.481.161-.16.481-.481.641-.802a7.7 7.7 0 00.481-1.122c.161-.48.161-.962.161-1.603s0-1.122-.161-1.603c.321-.32.161-.641-.16-.962zm-1.443 3.527c0 .32-.16.641-.32.801a1.259 1.259 0 01-.641.642c-.321.16-.642.32-.962.32-.321 0-.802-.16-.962-.32a1.248 1.248 0 01-.641-.642c-.161-.32-.161-.48-.321-.801v-1.763c0-.321.16-.642.321-.802.16-.32.32-.48.641-.641.32-.16.641-.16 1.122-.16.481 0 .802.16.962.32.32.16.481.32.641.641.16.321.16.481.321.802v.802c-.161.16-.161.48-.161.801zm10.1-2.886c-.161-.48-.321-.961-.642-1.282-.32-.32-.641-.641-.961-.801-.321-.16-.642-.321-.962-.321-.321-.16-.481-.16-.802-.16h-.641c-.16 0-.481 0-.802.16-.32.16-.641.16-.961.32-.321.16-.642.481-.962.802-.321.32-.481.802-.641 1.282a5.958 5.958 0 00-.321 1.924v3.847c0 .321.16.481.481.481h1.122c.321 0 .481-.16.481-.48v-4.649c0-.321.16-.481.321-.642l.48-.48c.161-.16.481-.16.962-.16.321 0 .642 0 .962.16.16.16.481.32.481.48.16.16.16.481.321.642v4.648c0 .321.16.481.481.481h1.122c.32 0 .481-.16.481-.48v-3.848c.32-.801.16-1.443 0-1.924z" fill="#FD3E72"/><path d="M161.627 115.648H93.016c-1.924 0-3.687-1.603-3.687-3.687 0-1.923 1.603-3.687 3.687-3.687h68.611c1.923 0 3.687 1.603 3.687 3.687 0 2.084-1.764 3.687-3.687 3.687z" fill="url(#paint4_linear)"/><path d="M161.627 127.672H93.016c-1.924 0-3.687-1.604-3.687-3.688 0-1.923 1.603-3.687 3.687-3.687h68.611c1.923 0 3.687 1.603 3.687 3.687 0 2.084-1.764 3.688-3.687 3.688z" fill="url(#paint5_linear)"/><path d="M144.794 143.702h-30.618c-1.443 0-2.405-1.122-2.405-2.565v-2.244c0-1.443 1.123-2.405 2.405-2.405h30.618c1.443 0 2.405 1.122 2.405 2.405v2.244c.16 1.443-.962 2.565-2.405 2.565z" fill="url(#paint6_linear)"/><path d="M253.013 140.15l-45.954-.17c-5.596 0-10.005-4.578-10.005-10.005l.509-114.97C197.563 9.409 202.141 5 207.568 5l45.954.17c5.596 0 10.005 4.578 10.005 10.004l-.509 114.971c0 5.596-4.578 10.005-10.005 10.005z" fill="url(#paint7_linear)"/><path d="M253.522 9.24h-8.987c-1.187 0-2.205 1.017-2.205 2.204v1.695c0 1.188-1.017 2.205-2.204 2.205h-17.297c-1.187 0-2.204-1.018-2.204-2.204v-1.696c0-1.187-1.018-2.205-2.205-2.205h-10.852c-3.9 0-6.953 3.053-7.122 6.953l-.509 112.257c0 3.9 3.052 6.953 6.952 6.953l45.955.169c3.9 0 6.952-3.052 7.122-6.952l.509-112.258c0-4.07-3.053-7.122-6.953-7.122z" fill="url(#paint8_linear)"/><path d="M228.387 51.125h-4.899a.458.458 0 00-.426.426v.213c0 .213 0 .426.213.639.213.213.213.426.639.639.213.213.639.213 1.065.213.426 0 .852-.213 1.065-.213.213-.213.426-.426.426-.64 0-.212.213-.212.213-.212h1.278c.213 0 .426.213.426.426s-.213.426-.213.426c-.213.213-.426.426-.426.639-.213.213-.426.426-.639.426-.213.213-.426.213-.639.426-.426.213-1.065.213-1.491.213-.639 0-1.278-.213-1.917-.426-.213-.213-.426-.213-.639-.426l-.639-.64c-.213-.212-.213-.638-.426-1.064-.213-.426-.213-.852-.213-1.491 0-.64 0-1.065.213-1.491.213-.426.213-.852.426-1.065.213-.213.426-.639.639-.852.213-.213.426-.426.639-.426.639-.213 1.278-.426 1.917-.426s1.065.213 1.704.426c.213 0 .426.213.639.426l.639.639c.213.213.426.426.426.852.213.213.213.639.213 1.065v1.065c.213-.213.213.213-.213.213zm-2.343-1.491a.458.458 0 00.426-.426.458.458 0 00-.426-.426l-.426-.426c-.213-.213-.426-.213-.639-.213-.213 0-.426 0-.639.213a.458.458 0 00-.426.426l-.426.426c-.213.213 0 .426.426.426h2.13zm-5.964-6.603a1.909 1.909 0 00-1.917 1.917v6.177c0 .213 0 .426-.213.639-.213.213-.213.426-.426.426-.213.213-.426.213-.852.213s-.639 0-.852-.213c-.213-.213-.426-.213-.426-.426-.213-.213-.213-.426-.213-.64v-6.388a1.909 1.909 0 00-1.917 1.916v4.473c0 .213 0 .426-.213.639-.213.213-.213.426-.426.426-.213.213-.426.213-.852.213s-.639 0-.852-.213c-.213-.213-.426-.213-.426-.426s-.212-.426-.212-.64V46.44a1.909 1.909 0 00-1.917 1.917v2.13c0 .639 0 1.065.213 1.49.213.427.213.853.426 1.066.213.213.426.639.639.852.213.213.426.426.639.426.425.213 1.064.426 1.703.426s1.278-.213 1.704-.426c.213-.213.426-.213.639-.426l.213-.213.213.213c.213.213.426.426.639.426.426.213 1.065.426 1.704.426s1.278-.213 1.704-.426c.213-.213.426-.213.639-.426.213-.213.426-.426.639-.852.213-.213.213-.64.426-1.065 0-.426.213-.852.213-1.491l-.639-7.455zm14.483 11.502c0 .213-.212.213-.425.213h-2.13c-.213 0-.213-.213-.426-.213l-2.343-7.242c0-.213 0-.426.426-.426h1.065c.213 0 .213.213.426.213l1.491 4.686c.213.426.639.426.639 0l2.342-7.242c.426-1.065 1.278-1.49 2.343-1.278l-3.408 11.289zm9.372-6.39c-.213-.213-.426-.639-.639-.852-.213-.213-.426-.426-.639-.426-.639-.213-1.278-.426-1.917-.426s-1.278 0-1.703.213c-.426.213-.852.426-1.065.852l-.639 1.278c-.213.426-.213 1.065-.213 1.704v6.177c0 .213.213.426.426.426h.852a.458.458 0 00.426-.426v-3.195c0 .213.212.213.425.426s.639.426.852.426c.213.213.639.213.852.213.639 0 1.278-.213 1.704-.426.213-.213.426-.213.639-.426l.639-.64c.213-.212.213-.638.426-1.064 0-.426.213-.852.213-1.491 0-.64 0-1.065-.213-1.491 0-.213-.213-.639-.426-.852zm-1.278 3.195c0 .213-.213.639-.213.852-.213.213-.213.426-.639.639-.213.213-.639.213-.852.213-.426 0-.639 0-.852-.213l-.639-.64c-.213-.212-.213-.425-.213-.851v-1.704c0-.213.213-.64.213-.852.213-.213.213-.426.639-.639.213-.213.639-.213 1.065-.213.426 0 .639 0 .852.213l.639.639c.213.213.213.426.213.852v.852c-.213.426-.213.639-.213.852zm9.372-2.556l-.639-1.278c-.213-.213-.639-.64-.852-.64-.213-.212-.639-.212-.852-.425-.213 0-.426-.213-.639-.213h-.852c-.213 0-.426 0-.639.213-.213 0-.639.213-.852.426-.213.213-.639.426-.852.639-.213.213-.426.639-.639 1.278-.213.426-.213 1.065-.213 1.704v3.62c0 .214.213.427.426.427h1.065a.458.458 0 00.426-.426v-4.261c0-.212.213-.425.213-.638.213-.213.213-.426.426-.426.213-.213.426-.213.852-.213s.639 0 .852.213c.213.213.426.213.426.426.213.213.213.426.213.639v4.259c0 .214.213.427.426.427h1.065a.458.458 0 00.426-.426v-3.621c.426-.64.426-1.278.213-1.704z" fill="#fff"/><path opacity=".5" d="M251.826 70.964h-43.58a2.678 2.678 0 01-2.713-2.713v-1.018a2.678 2.678 0 012.713-2.713h43.58a2.678 2.678 0 012.713 2.713v1.018a2.678 2.678 0 01-2.713 2.713z" fill="url(#paint9_linear)"/><path opacity=".5" d="M251.826 81.817h-43.58a2.678 2.678 0 01-2.713-2.714v-1.017a2.678 2.678 0 012.713-2.713h43.58a2.678 2.678 0 012.713 2.713v1.017c0 1.357-1.187 2.714-2.713 2.714z" fill="url(#paint10_linear)"/><path d="M242.5 94.874h-22.384a1.882 1.882 0 01-1.865-1.865v-1.696c0-1.018.848-1.866 1.865-1.866H242.5c1.017 0 1.865.848 1.865 1.866v1.695c-.17 1.018-.848 1.866-1.865 1.866z" fill="#fff"/><defs><linearGradient id="paint0_linear" x1="208.794" y1="20.834" x2="41.134" y2="213.705" gradientUnits="userSpaceOnUse"><stop stop-color="#FDD0DE"/><stop offset=".092" stop-color="#FDCCDA"/><stop offset=".601" stop-color="#FEBDCB"/><stop offset="1" stop-color="#FEB7C6"/></linearGradient><linearGradient id="paint1_linear" x1="183.925" y1="121.159" x2="65.689" y2="247.952" gradientUnits="userSpaceOnUse"><stop stop-color="#FBBFD3"/><stop offset=".104" stop-color="#FBB6CC"/><stop offset=".392" stop-color="#FAA3BE"/><stop offset=".687" stop-color="#F998B6"/><stop offset="1" stop-color="#F994B3"/></linearGradient><linearGradient id="paint2_linear" x1="102.41" y1="184.175" x2="151.625" y2="184.175" gradientUnits="userSpaceOnUse"><stop stop-color="#04B07E"/><stop offset=".164" stop-color="#0BB382"/><stop offset=".393" stop-color="#1DBB8C"/><stop offset=".661" stop-color="#3BC89D"/><stop offset=".672" stop-color="#3CC99E"/></linearGradient><linearGradient id="paint3_linear" x1="25.512" y1="115.746" x2="224.262" y2="115.746" gradientUnits="userSpaceOnUse"><stop offset=".379" stop-color="#D4356F"/><stop offset="1" stop-color="#FD4380"/></linearGradient><linearGradient id="paint4_linear" x1="162.811" y1="102.531" x2="91.759" y2="121.569" gradientUnits="userSpaceOnUse"><stop stop-color="#FDE5FB"/><stop offset=".5" stop-color="#FED2EA"/><stop offset="1" stop-color="#FEC4DD"/></linearGradient><linearGradient id="paint5_linear" x1="162.811" y1="114.567" x2="91.759" y2="133.605" gradientUnits="userSpaceOnUse"><stop stop-color="#FDE5FB"/><stop offset=".5" stop-color="#FED2EA"/><stop offset="1" stop-color="#FEC4DD"/></linearGradient><linearGradient id="paint6_linear" x1="112.776" y1="135.012" x2="146.225" y2="145.238" gradientUnits="userSpaceOnUse"><stop stop-color="#D4356F"/><stop offset="1" stop-color="#FD4380"/></linearGradient><linearGradient id="paint7_linear" x1="280.634" y1="48.01" x2="179.869" y2="97.156" gradientUnits="userSpaceOnUse"><stop stop-color="#FDE5F2"/><stop offset=".59" stop-color="#FEC7D5"/><stop offset="1" stop-color="#FEB7C6"/></linearGradient><linearGradient id="paint8_linear" x1="200.049" y1="72.182" x2="260.454" y2="72.182" gradientUnits="userSpaceOnUse"><stop offset=".379" stop-color="#D4356F"/><stop offset="1" stop-color="#FD4380"/></linearGradient><linearGradient id="paint9_linear" x1="253.165" y1="61.593" x2="207.006" y2="73.961" gradientUnits="userSpaceOnUse"><stop stop-color="#FDE5FB"/><stop offset=".5" stop-color="#FED2EA"/><stop offset="1" stop-color="#FEC4DD"/></linearGradient><linearGradient id="paint10_linear" x1="253.165" y1="72.324" x2="207.006" y2="84.693" gradientUnits="userSpaceOnUse"><stop stop-color="#FDE5FB"/><stop offset=".5" stop-color="#FED2EA"/><stop offset="1" stop-color="#FEC4DD"/></linearGradient></defs></svg>