<svg width="43" height="11" fill="none" xmlns="http://www.w3.org/2000/svg"><path d="M5.044 0H1.777c-.24 0-.432.14-.432.375L0 8.566c0 .14.096.28.24.328h1.633c.24 0 .433-.14.433-.375l.336-2.2a.452.452 0 01.432-.374h1.057c2.161 0 3.41-1.03 3.746-3.043.145-.889 0-1.59-.432-2.059C6.965.328 6.148 0 5.044 0zm.384 3.043c-.192 1.17-1.057 1.17-1.97 1.17h-.48l.336-2.153c0-.14.144-.234.289-.234h.24c.576 0 1.152 0 1.44.328.145.187.193.468.145.889zm9.462-.047h-1.585c-.144 0-.24.094-.288.234l-.048.421-.096-.14c-.336-.468-1.105-.655-1.873-.655-1.73 0-3.219 1.263-3.507 3.089-.144.89.048 1.779.577 2.34.48.562 1.152.796 1.969.796 1.393 0 2.162-.89 2.162-.89l-.049.422c0 .14.097.28.24.328h1.49c.24 0 .433-.14.433-.375l.865-5.242c0-.187-.097-.328-.289-.328zm-2.21 2.949c-.143.89-.864 1.45-1.776 1.45-.48 0-.817-.14-1.057-.42-.24-.281-.336-.656-.24-1.077.144-.89.864-1.498 1.777-1.498.432 0 .816.14 1.057.422.192.327.288.702.24 1.123zm10.568-2.949h-1.585c-.144 0-.288.094-.384.187L19.117 6.32l-.912-2.995a.46.46 0 00-.433-.328h-1.537c-.144 0-.288.14-.288.28v.095l1.73 4.961-1.634 2.247c-.096.14-.048.28.048.374.048.047.096.047.144.047h1.585c.145 0 .289-.094.385-.187l5.283-7.396c.096-.14.048-.28-.048-.374-.096-.047-.144-.047-.192-.047zM28.483 0h-3.266c-.24 0-.433.14-.433.374L23.44 8.566c0 .14.096.28.24.327h1.729c.145 0 .289-.093.337-.28l.384-2.34a.452.452 0 01.433-.375h1.056c2.162 0 3.41-1.03 3.747-3.043.144-.89 0-1.591-.432-2.06C30.404.329 29.588 0 28.483 0zm.384 3.042c-.192 1.17-1.056 1.17-1.97 1.17h-.48l.337-2.153c0-.14.144-.234.288-.234h.24c.576 0 1.153 0 1.441.328.144.187.192.468.144.89zm9.415-.046h-1.585c-.144 0-.24.093-.289.234l-.047.42-.097-.14c-.336-.468-1.104-.655-1.873-.655-1.73 0-3.218 1.264-3.506 3.09-.145.889.048 1.778.576 2.34.48.561 1.153.795 1.97.795 1.392 0 2.16-.889 2.16-.889l-.047.421c0 .14.096.281.24.328h1.441c.24 0 .432-.14.432-.374l.865-5.243c.048-.187-.048-.327-.24-.327.048 0 .048 0 0 0zM36.12 5.944c-.144.89-.864 1.451-1.777 1.451-.432 0-.817-.14-1.057-.42-.24-.282-.336-.656-.24-1.077.144-.89.865-1.498 1.777-1.498.433 0 .817.14 1.057.421.192.328.288.702.24 1.123zm4.035-5.71L38.81 8.612c0 .14.096.281.24.328h1.393c.24 0 .433-.14.433-.374L42.22.374c0-.14-.096-.28-.24-.327h-1.586c-.096-.047-.24.093-.24.187z" fill="#fff"/></svg>