<svg width="138" height="107" fill="none" xmlns="http://www.w3.org/2000/svg"><path d="M0 22a2 2 0 012-2h97.852a2 2 0 012 2v5.13H0V22z" fill="#FE8FAD"/><path d="M.2 27.33h101.452v74.189a1.8 1.8 0 01-1.8 1.8H2a1.8 1.8 0 01-1.8-1.8v-74.19z" fill="#fff" stroke="#FADEE3" stroke-width=".4"/><path d="M.2 27.33h101.452v9.785H.2V27.33z" fill="#fff" stroke="#FADEE3" stroke-width=".4"/><circle cx="4.583" cy="23.565" r="1.528" fill="#fff"/><circle cx="9.676" cy="23.565" r="1.528" fill="#fff"/><circle cx="14.769" cy="23.565" r="1.528" fill="#fff"/><rect x="8.148" y="30.185" width="87.593" height="5.093" rx="2.5" fill="#FDF3F5"/><rect x="17.315" y="42.407" width="68.241" height="17.315" rx="1" fill="#FDF3F5"/><rect x="17.315" y="83.148" width="68.241" height="8.148" rx="1" fill="#FDF3F5"/><rect x="17.315" y="64.815" width="46.852" height="2.037" rx="1" fill="#FDF3F5"/><rect x="17.315" y="68.889" width="46.852" height="2.037" rx="1" fill="#FDF3F5"/><rect x="17.315" y="72.963" width="46.852" height="2.037" rx="1" fill="#FDF3F5"/><rect x="17.315" y="77.037" width="46.852" height="2.037" rx="1" fill="#FDF3F5"/><rect x="67.222" y="62.778" width="18.333" height="17.315" rx="1" fill="#FDF3F5"/><path fill-rule="evenodd" clip-rule="evenodd" d="M99.306 31.458a.255.255 0 11-.51 0 .255.255 0 01.51 0zm0 1.019a.255.255 0 11-.51 0 .255.255 0 01.51 0zm-.255 1.273a.255.255 0 100-.51.255.255 0 000 .51z" fill="#FADEE3"/><path fill-rule="evenodd" clip-rule="evenodd" d="M3.056 31.458c0-.14.114-.254.255-.254h2.546a.255.255 0 010 .509H3.31a.255.255 0 01-.255-.255zm0 1.019c0-.14.114-.255.254-.255h1.528a.255.255 0 010 .51H3.31a.255.255 0 01-.255-.255zm.254.764a.255.255 0 100 .51h.51a.255.255 0 000-.51h-.51z" fill="#FDF3F5"/><g filter="url(#filter0_d)"><rect x="78" y="6" width="51.944" height="90.648" rx="6" fill="#FF3C71"/><rect x="81.055" y="9.056" width="45.833" height="84.537" rx="4" fill="#fff"/><path d="M81.156 14.248h45.633v8.967H81.156v-8.967z" fill="#fff" stroke="#FDF3F5" stroke-width=".2"/><path opacity=".8" d="M81.055 13.056a4 4 0 014-4h37.834a4 4 0 014 4v1.092H81.055v-1.092z" fill="#FE8FAD"/><rect x="91.241" y="6" width="25.463" height="7.13" rx="2" fill="#FF3C71"/><rect x="88.185" y="16.185" width="33.611" height="5.093" rx="2.5" fill="#FDF3F5"/><rect x="83.092" y="28.407" width="41.759" height="17.315" rx="1" fill="#FDF3F5"/><rect x="83.092" y="69.148" width="41.759" height="8.148" rx="1" fill="#FDF3F5"/><rect x="83.092" y="50.815" width="21.389" height="2.037" rx="1" fill="#FDF3F5"/><rect x="83.092" y="54.889" width="21.389" height="2.037" rx="1" fill="#FDF3F5"/><rect x="83.092" y="58.963" width="21.389" height="2.037" rx="1" fill="#FDF3F5"/><rect x="83.092" y="63.037" width="21.389" height="2.037" rx="1" fill="#FDF3F5"/><rect x="106.518" y="48.778" width="18.333" height="17.315" rx="1" fill="#FDF3F5"/><path fill-rule="evenodd" clip-rule="evenodd" d="M125.361 17.458a.255.255 0 11-.509 0 .255.255 0 01.509 0zm0 1.019a.255.255 0 11-.51 0 .255.255 0 01.51 0zm-.255 1.273a.255.255 0 100-.51.255.255 0 000 .51z" fill="#FADEE3"/><path fill-rule="evenodd" clip-rule="evenodd" d="M83.092 17.458c0-.14.114-.254.255-.254h2.546a.255.255 0 110 .509h-2.546a.255.255 0 01-.255-.255zm0 1.019c0-.14.114-.255.255-.255h1.528a.255.255 0 010 .51h-1.528a.255.255 0 01-.255-.255zm.255.764a.255.255 0 000 .51h.51a.255.255 0 000-.51h-.51z" fill="#FDF3F5"/></g><defs><filter id="filter0_d" x="70" y="0" width="67.944" height="106.648" filterUnits="userSpaceOnUse" color-interpolation-filters="sRGB"><feFlood flood-opacity="0" result="BackgroundImageFix"/><feColorMatrix in="SourceAlpha" values="0 0 0 0 0 0 0 0 0 0 0 0 0 0 0 0 0 0 127 0"/><feOffset dy="2"/><feGaussianBlur stdDeviation="4"/><feColorMatrix values="0 0 0 0 0.996078 0 0 0 0 0.560784 0 0 0 0 0.678431 0 0 0 0.4 0"/><feBlend in2="BackgroundImageFix" result="effect1_dropShadow"/><feBlend in="SourceGraphic" in2="effect1_dropShadow" result="shape"/></filter></defs></svg>