<svg width="146" height="146" fill="none" xmlns="http://www.w3.org/2000/svg"><circle opacity=".1" cx="73" cy="73" r="73" fill="#FADEE3"/><circle opacity=".2" cx="73" cy="73" r="61" fill="#FADEE3"/><circle opacity=".45" cx="73" cy="73" r="44" fill="#FADEE3"/><path d="M8 40a2 2 0 012-2h97.852a2 2 0 012 2v5.13H8V40z" fill="#FADEE3"/><path d="M8.2 45.33h101.452v74.188a1.8 1.8 0 01-1.8 1.8H10a1.8 1.8 0 01-1.8-1.8V45.33z" fill="#fff" stroke="#FADEE3" stroke-width=".4"/><path d="M8.2 45.33h101.452v9.785H8.2V45.33z" fill="#fff" stroke="#FADEE3" stroke-width=".4"/><circle cx="12.583" cy="41.565" r="1.528" fill="#fff"/><circle cx="17.676" cy="41.565" r="1.528" fill="#fff"/><circle cx="22.769" cy="41.565" r="1.528" fill="#fff"/><rect x="16.148" y="48.185" width="87.593" height="5.093" rx="2.5" fill="#FDF3F5"/><rect x="25.315" y="60.407" width="68.241" height="17.315" rx="1" fill="#FDF3F5"/><rect x="25.315" y="101.148" width="68.241" height="8.148" rx="1" fill="#FDF3F5"/><rect x="25.315" y="82.815" width="46.852" height="2.037" rx="1" fill="#FDF3F5"/><rect x="25.315" y="86.889" width="46.852" height="2.037" rx="1" fill="#FDF3F5"/><rect x="25.315" y="90.963" width="46.852" height="2.037" rx="1" fill="#FDF3F5"/><rect x="25.315" y="95.037" width="46.852" height="2.037" rx="1" fill="#FDF3F5"/><rect x="75.222" y="80.778" width="18.333" height="17.315" rx="1" fill="#FDF3F5"/><path fill-rule="evenodd" clip-rule="evenodd" d="M107.306 49.458a.255.255 0 11-.51 0 .255.255 0 01.51 0zm0 1.019a.255.255 0 11-.51 0 .255.255 0 01.51 0zm-.255 1.273a.255.255 0 100-.51.255.255 0 000 .51z" fill="#FADEE3"/><path fill-rule="evenodd" clip-rule="evenodd" d="M11.056 49.458c0-.14.114-.254.255-.254h2.546a.255.255 0 010 .509H11.31a.255.255 0 01-.255-.255zm0 1.019c0-.14.114-.255.254-.255h1.528a.255.255 0 010 .51H11.31a.255.255 0 01-.255-.255zm.254.764a.255.255 0 000 .509h.51a.255.255 0 000-.51h-.51z" fill="#FDF3F5"/><g filter="url(#filter0_d)"><rect x="89" y="65" width="42.056" height="73.391" rx="6" fill="#FADEE3"/><rect x="91.474" y="67.474" width="37.108" height="68.443" rx="4" fill="#fff"/><path d="M91.574 71.697h36.908v7.221H91.574v-7.221z" fill="#fff" stroke="#FDF3F5" stroke-width=".2"/><path opacity=".35" d="M91.474 71.474a4 4 0 014-4h29.108a4 4 0 014 4v.123H91.474v-.123z" fill="#FADEE3"/><rect x="99.72" y="65" width="20.616" height="5.772" rx="2" fill="#FADEE3"/><rect x="97.246" y="73.246" width="27.212" height="4.123" rx="2.062" fill="#FDF3F5"/><rect x="93.123" y="83.141" width="33.809" height="14.018" rx="1" fill="#FDF3F5"/><rect x="93.123" y="116.126" width="33.809" height="6.597" rx="1" fill="#FDF3F5"/><rect x="93.123" y="101.283" width="17.317" height="1.649" rx=".825" fill="#FDF3F5"/><rect x="93.123" y="104.582" width="17.317" height="1.649" rx=".825" fill="#FDF3F5"/><rect x="93.123" y="107.88" width="17.317" height="1.649" rx=".825" fill="#FDF3F5"/><rect x="93.123" y="111.179" width="17.317" height="1.649" rx=".825" fill="#FDF3F5"/><rect x="112.089" y="99.634" width="14.843" height="14.018" rx="1" fill="#FDF3F5"/><path fill-rule="evenodd" clip-rule="evenodd" d="M127.345 74.277a.206.206 0 11-.412 0 .206.206 0 01.412 0zm0 .825a.207.207 0 11-.413-.001.207.207 0 01.413 0zm-.206 1.03a.207.207 0 10-.001-.413.207.207 0 00.001.413z" fill="#FADEE3"/><path fill-rule="evenodd" clip-rule="evenodd" d="M93.123 74.277c0-.114.092-.206.206-.206h2.062a.206.206 0 010 .412h-2.062a.206.206 0 01-.206-.206zm0 .825c0-.114.092-.207.206-.207h1.237a.206.206 0 110 .413h-1.237a.206.206 0 01-.206-.207zm.206.618a.206.206 0 100 .412h.412a.206.206 0 100-.412h-.412z" fill="#FDF3F5"/></g><g opacity=".35" filter="url(#filter1_f)"><circle cx="100.5" cy="110.5" r="5.5" fill="#FF3C71"/></g><path d="M53 58.246v40.359c0 2.522 2.977 4.324 4.837 2.882l33.489-20.179c2.232-1.441 2.232-4.324 0-5.766L57.837 55.364c-1.86-1.08-4.837.36-4.837 2.883z" fill="#FF3C71"/><g opacity=".35" filter="url(#filter2_f)"><circle cx="30.5" cy="54.5" r="3.5" fill="#FF3C71"/></g><g opacity=".25" filter="url(#filter3_f)"><circle cx="112.5" cy="37.5" r="6.5" fill="#FF3C71"/></g><defs><filter id="filter0_d" x="85" y="63" width="50.056" height="81.391" filterUnits="userSpaceOnUse" color-interpolation-filters="sRGB"><feFlood flood-opacity="0" result="BackgroundImageFix"/><feColorMatrix in="SourceAlpha" values="0 0 0 0 0 0 0 0 0 0 0 0 0 0 0 0 0 0 127 0"/><feOffset dy="2"/><feGaussianBlur stdDeviation="2"/><feColorMatrix values="0 0 0 0 0.980392 0 0 0 0 0.870588 0 0 0 0 0.890196 0 0 0 0.47 0"/><feBlend in2="BackgroundImageFix" result="effect1_dropShadow"/><feBlend in="SourceGraphic" in2="effect1_dropShadow" result="shape"/></filter><filter id="filter1_f" x="89" y="99" width="23" height="23" filterUnits="userSpaceOnUse" color-interpolation-filters="sRGB"><feFlood flood-opacity="0" result="BackgroundImageFix"/><feBlend in="SourceGraphic" in2="BackgroundImageFix" result="shape"/><feGaussianBlur stdDeviation="3" result="effect1_foregroundBlur"/></filter><filter id="filter2_f" x="21" y="45" width="19" height="19" filterUnits="userSpaceOnUse" color-interpolation-filters="sRGB"><feFlood flood-opacity="0" result="BackgroundImageFix"/><feBlend in="SourceGraphic" in2="BackgroundImageFix" result="shape"/><feGaussianBlur stdDeviation="3" result="effect1_foregroundBlur"/></filter><filter id="filter3_f" x="100" y="25" width="25" height="25" filterUnits="userSpaceOnUse" color-interpolation-filters="sRGB"><feFlood flood-opacity="0" result="BackgroundImageFix"/><feBlend in="SourceGraphic" in2="BackgroundImageFix" result="shape"/><feGaussianBlur stdDeviation="3" result="effect1_foregroundBlur"/></filter></defs></svg>