<svg width="64" height="64" fill="none" xmlns="http://www.w3.org/2000/svg"><path d="M32 48a6 6 0 114.465-10.008" stroke="#62D5B4" stroke-width="3" stroke-miterlimit="10" stroke-linecap="square"/><path d="M47.556 26.444A21.927 21.927 0 0032 20a21.927 21.927 0 00-15.556 6.444" stroke="#93E7CF" stroke-width="3" stroke-miterlimit="10" stroke-linecap="square"/><path d="M59.224 15.276C52.256 8.309 42.632 4 32 4 21.369 4 11.744 8.309 4.776 15.276" stroke="#CAF2E6" stroke-width="3" stroke-miterlimit="10" stroke-linecap="square"/><path d="M50 57a2 2 0 100-4 2 2 0 000 4z" fill="#93E7CF"/><path d="M60 48H40v14h20V48zm-16 0v-8a6 6 0 1112 0v8" stroke="#62D5B4" stroke-width="3" stroke-miterlimit="10" stroke-linecap="square"/></svg>