<svg width="72" height="72" fill="none" xmlns="http://www.w3.org/2000/svg"><g clip-path="url(#clip0)"><path d="M16.009 11.796h-7.2a1.15 1.15 0 00-1.15 1.149v7.2a1.15 1.15 0 001.15 1.149h7.2a1.15 1.15 0 001.149-1.15v-7.2a1.15 1.15 0 00-1.15-1.148zm-1.15 7.2h-4.9v-4.902h4.902v4.902zm12.946-7.2h-7.2a1.15 1.15 0 00-1.15 1.149v7.2a1.15 1.15 0 001.15 1.149h7.2a1.15 1.15 0 001.148-1.15v-7.2c0-.634-.514-1.148-1.148-1.148zm-1.15 7.2h-4.902v-4.902h4.903v4.902z" fill="#FFC3D4"/><path d="M27.805 35.387h-7.2a1.15 1.15 0 00-1.15 1.15v7.2a1.15 1.15 0 001.15 1.148h7.2c.634 0 1.148-.514 1.148-1.149v-7.2c0-.634-.514-1.149-1.148-1.149zm-1.15 7.2h-4.902v-4.902h4.903v4.902zm12.945-7.2h-7.2a1.15 1.15 0 00-1.15 1.15v7.2a1.15 1.15 0 001.15 1.148h7.2c.634 0 1.148-.514 1.148-1.149v-7.2a1.15 1.15 0 00-1.149-1.149zm-1.15 7.2h-4.902v-4.902h4.902v4.902zm12.945 4.596h-7.2c-.634 0-1.148.514-1.148 1.149v7.2c0 .635.514 1.149 1.148 1.149h7.2a1.15 1.15 0 001.15-1.149v-7.2a1.15 1.15 0 00-1.15-1.149zm-1.149 7.2h-4.902v-4.902h4.902v4.902z" fill="#FD3E72"/><path d="M39.6 11.796h-7.2a1.15 1.15 0 00-1.15 1.149v7.2a1.15 1.15 0 001.15 1.149h7.2a1.15 1.15 0 001.148-1.15v-7.2c0-.634-.514-1.148-1.149-1.148zm-1.15 7.2h-4.902v-4.902h4.902v4.902zm12.945-7.2h-7.2c-.634 0-1.148.514-1.148 1.149v7.2c0 .634.514 1.149 1.148 1.149h7.2a1.15 1.15 0 001.15-1.15v-7.2a1.15 1.15 0 00-1.15-1.148zm-1.149 7.2h-4.902v-4.902h4.902v4.902zm12.945-7.2h-7.2a1.15 1.15 0 00-1.149 1.149v7.2a1.15 1.15 0 001.15 1.149h7.2a1.15 1.15 0 001.148-1.15v-7.2c0-.634-.514-1.148-1.149-1.148zm-1.149 7.2H57.14v-4.902h4.902v4.902zM27.805 0h-7.2a1.15 1.15 0 00-1.15 1.149v7.2a1.15 1.15 0 001.15 1.149h7.2a1.15 1.15 0 001.148-1.15v-7.2C28.953.515 28.44 0 27.805 0zm-1.15 7.2h-4.902V2.298h4.903V7.2zM39.6 0h-7.2a1.15 1.15 0 00-1.15 1.149v7.2a1.15 1.15 0 001.15 1.149h7.2a1.15 1.15 0 001.148-1.15v-7.2C40.748.515 40.234 0 39.6 0zm-1.15 7.2h-4.902V2.298h4.902V7.2zM63.191 0h-7.2a1.15 1.15 0 00-1.149 1.149v7.2a1.15 1.15 0 001.15 1.149h7.2a1.15 1.15 0 001.148-1.15v-7.2C64.34.515 63.826 0 63.191 0zm-1.149 7.2H57.14V2.298h4.902V7.2z" fill="#FFC3D4"/><path d="M63.192 23.592H44.196a1.15 1.15 0 00-1.149 1.149v6.05H40.75v-6.05a1.15 1.15 0 00-1.149-1.15h-7.2a1.15 1.15 0 00-1.148 1.15v6.05h-2.298v-6.05a1.15 1.15 0 00-1.15-1.15h-7.2a1.15 1.15 0 00-1.148 1.15v6.05h-2.298v-6.05a1.15 1.15 0 00-1.149-1.15h-7.2a1.15 1.15 0 00-1.149 1.15v18.995a1.149 1.149 0 002.298 0V33.09h34.238a1.15 1.15 0 001.15-1.148V25.89h16.697v34.622H54a1.15 1.15 0 00-1.149 1.149v8.042H9.958v-21.37a1.149 1.149 0 00-2.298 0v22.52c0 .634.514 1.148 1.149 1.148H54c.039 0 .077-.002.115-.006.027-.002.053-.007.079-.011l.033-.005.091-.023.018-.005c.03-.01.06-.02.089-.032l.016-.006a.733.733 0 00.08-.038l.022-.01.07-.041.027-.017.059-.044.03-.023c.024-.02.046-.04.067-.06l.017-.016 9.191-9.19a1.13 1.13 0 00.075-.084l.018-.024c.017-.021.034-.044.05-.067l.013-.022a1.18 1.18 0 00.044-.074l.009-.017c.014-.028.028-.056.04-.085l.004-.012c.013-.03.024-.062.034-.093l.003-.014c.01-.031.017-.063.024-.095l.005-.03a1.063 1.063 0 00.018-.196V24.74a1.15 1.15 0 00-1.15-1.148zm-48.332 7.2H9.958v-4.903h4.902v4.903zm11.796 0h-4.902v-4.903h4.902v4.903zm11.795 0H33.55v-4.903h4.902v4.903zM55.15 68.077V62.81h5.27l-5.27 5.268z" fill="#FD3E72"/></g><defs><clipPath id="clip0"><path fill="#fff" d="M0 0h72v72H0z"/></clipPath></defs></svg>