<svg width="72" height="73" fill="none" xmlns="http://www.w3.org/2000/svg"><g clip-path="url(#clip0)"><path d="M63 6.046H32.625a1.41 1.41 0 00-1.406 1.407 1.41 1.41 0 001.406 1.406H63a1.41 1.41 0 001.406-1.406A1.41 1.41 0 0063 6.046zm-47.812 0a1.48 1.48 0 00-.999.408 1.392 1.392 0 00-.408.999c0 .365.155.73.408.998.253.267.619.408.998.408.38 0 .732-.155.999-.408.267-.267.408-.619.408-.998 0-.38-.155-.732-.408-.999a1.479 1.479 0 00-.998-.408zM9 6.046c-.366 0-.731.155-.998.408a1.392 1.392 0 00-.408.999c0 .38.154.73.408.998.253.267.618.408.998.408.366 0 .731-.155.998-.408.268-.267.408-.619.408-.998 0-.38-.154-.732-.408-.999A1.479 1.479 0 009 6.046zm12.375 0c-.366 0-.731.155-.998.408a1.369 1.369 0 00-.408.999c0 .38.154.73.408.998.253.267.618.408.998.408s.731-.155.998-.408c.268-.267.408-.619.408-.998 0-.38-.154-.732-.408-.999a1.479 1.479 0 00-.998-.408zM40.57 21.515a1.41 1.41 0 00-1.406 1.406 1.41 1.41 0 001.406 1.407h3.347a1.41 1.41 0 001.406-1.407 1.41 1.41 0 00-1.406-1.406H40.57zm22.43 0H50.836a1.41 1.41 0 00-1.406 1.406 1.41 1.41 0 001.406 1.407H63a1.41 1.41 0 001.406-1.407A1.41 1.41 0 0063 21.515zm-14.695 6.75a1.41 1.41 0 00-1.407 1.406 1.41 1.41 0 001.407 1.407h6.553a1.41 1.41 0 001.406-1.407 1.41 1.41 0 00-1.406-1.406h-6.553zm14.694 0H60.65a1.41 1.41 0 00-1.406 1.406 1.41 1.41 0 001.406 1.407H63a1.41 1.41 0 001.406-1.407A1.41 1.41 0 0063 28.265zm-27.491-5.344a1.41 1.41 0 00-1.407-1.406H23.948a1.41 1.41 0 00-1.406 1.406 1.41 1.41 0 001.406 1.407h10.153a1.41 1.41 0 001.407-1.407zm-16.368 0a1.41 1.41 0 00-1.407-1.406H9a1.41 1.41 0 00-1.406 1.406A1.41 1.41 0 009 24.328h8.733a1.41 1.41 0 001.406-1.407zM8.002 28.673a1.392 1.392 0 00-.408.998c0 .38.154.732.408.999.267.267.618.408.998.408.366 0 .731-.155.998-.408.268-.267.408-.619.408-.999s-.154-.73-.408-.998A1.392 1.392 0 009 28.265c-.38 0-.731.155-.998.408zm7.326 2.405h11.883a1.41 1.41 0 001.406-1.407 1.41 1.41 0 00-1.406-1.406H15.328a1.41 1.41 0 00-1.406 1.406 1.41 1.41 0 001.406 1.407zM70.594 40.5a1.48 1.48 0 00-.999.407 1.369 1.369 0 00-.407.999c0 .38.154.731.407.998s.62.408.999.408c.38 0 .731-.155.998-.408.267-.267.408-.619.408-.998 0-.38-.155-.731-.408-.999a1.479 1.479 0 00-.998-.407z" fill="#B3ADF8"/><path d="M70.594 36.984A1.41 1.41 0 0072 35.578V4.64A4.231 4.231 0 0067.781.421H4.22A4.231 4.231 0 000 4.641v50.624a4.231 4.231 0 004.219 4.219H16.72c3.193 7.551 10.674 12.881 19.378 12.881 8.705 0 16.186-5.316 19.379-12.881H67.78A4.231 4.231 0 0072 55.265v-7.031a1.41 1.41 0 00-1.406-1.406 1.41 1.41 0 00-1.406 1.406v7.031a1.41 1.41 0 01-1.407 1.406H56.42c.45-1.701.689-3.487.689-5.33 0-11.587-9.422-21.009-21.01-21.009-11.587 0-21.023 9.422-21.023 21.01 0 1.842.24 3.628.69 5.33H4.218a1.41 1.41 0 01-1.407-1.407V14.484h66.376v21.094a1.41 1.41 0 001.406 1.406zm-34.496-3.699c9.957 0 18.057 8.1 18.057 18.057 0 9.956-8.1 18.056-18.057 18.056-9.956 0-18.056-8.1-18.056-18.056 0-9.957 8.086-18.057 18.056-18.057zM2.813 11.671v-7.03a1.41 1.41 0 011.406-1.407H67.78a1.41 1.41 0 011.406 1.406v7.031H2.814z" fill="#766CF0"/><path d="M36 39.5A11.5 11.5 0 1047.5 51 11.513 11.513 0 0036 39.5zM27.5 51a8.49 8.49 0 0113.35-6.97L29.029 55.85A8.446 8.446 0 0127.5 51zm8.5 8.5a8.447 8.447 0 01-4.85-1.529l11.821-11.82A8.489 8.489 0 0136 59.5z" fill="#766CF0"/></g><defs><clipPath id="clip0"><path fill="#fff" d="M0 .421h72v72H0z"/></clipPath></defs></svg>