<svg width="72" height="73" fill="none" xmlns="http://www.w3.org/2000/svg"><path d="M36 54.579a6.75 6.75 0 110-13.5c1.995 0 3.788.865 5.023 2.24M53.5 30.328a24.668 24.668 0 00-17.5-7.25 24.668 24.668 0 00-17.5 7.25" stroke="#C562F3" stroke-width="3" stroke-miterlimit="10" stroke-linecap="square"/><path d="M66.627 17.764C58.788 9.926 47.961 5.08 36 5.08c-11.96 0-22.788 4.847-30.627 12.685" stroke="#D791F8" stroke-width="3" stroke-miterlimit="10" stroke-linecap="square"/><path d="M56.25 64.704a2.25 2.25 0 100-4.5 2.25 2.25 0 000 4.5z" fill="#D791F8"/><path d="M67.5 54.579H45v15.75h22.5v-15.75zm-18 0v-9a6.75 6.75 0 1113.5 0v9" stroke="#C562F3" stroke-width="3" stroke-miterlimit="10" stroke-linecap="square"/></svg>