<svg width="73" height="73" fill="none" xmlns="http://www.w3.org/2000/svg"><path fill-rule="evenodd" clip-rule="evenodd" d="M5.15 21.088h7.04v6.724a29.055 29.055 0 009.924 21.875l3.055 2.67a20.18 20.18 0 016.883 15.18v1.965h8.896V67.54a29.246 29.246 0 00-9.927-21.88c0-.002-.002-.002-.003-.003l-3.05-2.665a20.179 20.179 0 01-6.882-15.18v-6.724h7.03L16.604 4.792 5.15 21.088zM15.595 1.011L.735 22.151a1.225 1.225 0 001.006 1.937H9.19v3.724a32.053 32.053 0 0010.949 24.133l3.053 2.669a17.18 17.18 0 015.86 12.923v3.724c0 .685.556 1.241 1.241 1.241h12.414a1.24 1.24 0 001.241-1.241v-3.724A32.247 32.247 0 0033 43.404l-3.053-2.669a17.179 17.179 0 01-5.86-12.923v-3.724h7.449a1.225 1.225 0 001.005-1.936L17.606 1.01a1.243 1.243 0 00-2.01 0z" fill="#6CA9F0"/><path fill-rule="evenodd" clip-rule="evenodd" d="M40.224 22.86a1.234 1.234 0 001.241 1.228h7.449v3.724a17.18 17.18 0 01-5.86 12.923l-3.053 2.67a34.551 34.551 0 00-1.825 1.737c.037.05.077.096.118.143a34.396 34.396 0 017.33 14.866 16.971 16.971 0 014.184-5.537l3.053-2.67a32.054 32.054 0 0010.95-24.132v-3.724h7.448a1.225 1.225 0 001.005-1.936L57.33 1.01a1.243 1.243 0 00-2.01 0L40.46 22.15a1.21 1.21 0 00-.236.708zM56.328 4.791L44.874 21.088h7.04v6.724a20.18 20.18 0 01-6.883 15.18l-.002.002-2.801 2.448a37.4 37.4 0 014.452 8.004c.37-.378.754-.743 1.154-1.092l3.052-2.667.001-.001a29.054 29.054 0 009.923-21.873v-6.725h7.03L56.328 4.792z" fill="#95BEEE"/></svg>