<svg width="300" height="485" fill="none" xmlns="http://www.w3.org/2000/svg"><mask id="a" maskUnits="userSpaceOnUse" x="0" y="0" width="300" height="485"><rect width="299.083" height="485" rx="8.083" fill="#F9F8F4"/></mask><g mask="url(#a)"><path fill="#F9F8F4" d="M0 29.1h299.083V485H0z"/><path fill="#F9F8F4" d="M0 381.533h299.083V485H0z"/><path d="M182.337 381.185l-2.934 7.923h-1.022l-2.873-7.923h1.033l2.194 6.282c.07.203.123.437.16.702h.022c.03-.221.09-.459.182-.713l2.238-6.271h1zm2.067 4.928v2.995h-.928v-7.923h2.177c.847 0 1.503.206 1.967.618.468.413.702.995.702 1.747 0 .751-.26 1.366-.779 1.845-.516.479-1.214.718-2.095.718h-1.044zm0-4.089v3.25h.973c.641 0 1.129-.146 1.464-.437.339-.295.508-.709.508-1.243 0-1.046-.619-1.57-1.856-1.57h-1.089zm11.803 7.084h-1.138l-4.078-6.315a2.657 2.657 0 01-.254-.498h-.034c.03.17.045.533.045 1.089v5.724h-.929v-7.923h1.205l3.967 6.216c.166.258.273.435.321.53h.022c-.037-.228-.055-.617-.055-1.166v-5.58h.928v7.923zm6.111 0h-.928v-7.923h.928v7.923zm3.017-2.995v2.995h-.928v-7.923h2.177c.848 0 1.503.206 1.967.618.468.413.702.995.702 1.747 0 .751-.259 1.366-.779 1.845-.516.479-1.214.718-2.094.718h-1.045zm0-4.089v3.25h.973c.641 0 1.129-.146 1.464-.437.339-.295.509-.709.509-1.243 0-1.046-.619-1.57-1.857-1.57h-1.089zm5.609 2.531a.596.596 0 01-.436-.182.606.606 0 01-.177-.437.603.603 0 01.613-.608.61.61 0 01.442.177.577.577 0 01.182.431c0 .17-.06.315-.182.437a.603.603 0 01-.442.182zm0 4.675a.596.596 0 01-.436-.182.606.606 0 01-.177-.437c0-.169.059-.315.177-.436a.583.583 0 01.436-.188.59.59 0 01.442.188.592.592 0 01.182.436c0 .17-.06.315-.182.437a.603.603 0 01-.442.182z" fill="#AFADB2"/><path d="M179.221 403.464h-3.017v-.945h3.017v.945zm4.553 0h-3.017v-.945h3.017v.945z" fill="#5B5863"/><path d="M34.301 389.108h-.928v-7.923h.928v7.923zm3.017-2.995v2.995h-.928v-7.923h2.177c.847 0 1.503.206 1.967.618.468.413.702.995.702 1.747 0 .751-.26 1.366-.78 1.845-.515.479-1.213.718-2.094.718h-1.044zm0-4.089v3.25h.973c.64 0 1.129-.146 1.464-.437.339-.295.508-.709.508-1.243 0-1.046-.618-1.57-1.856-1.57h-1.089zm5.609 2.531a.597.597 0 01-.437-.182.606.606 0 01-.177-.437.604.604 0 01.613-.608c.174 0 .321.059.443.177a.578.578 0 01.182.431c0 .17-.06.315-.182.437a.604.604 0 01-.442.182zm0 4.675a.597.597 0 01-.437-.182.606.606 0 01-.177-.437c0-.169.06-.315.177-.436a.584.584 0 01.437-.188.59.59 0 01.442.188.594.594 0 01.182.436c0 .17-.06.315-.182.437a.604.604 0 01-.442.182z" fill="#AFADB2"/><path d="M36.147 403.464H33.13v-.945h3.017v.945zm4.553 0h-3.017v-.945H40.7v.945zm13.842 42.56c0 .615-.056 1.161-.17 1.636a3.75 3.75 0 01-.481 1.206 2.172 2.172 0 01-.775.744 2.12 2.12 0 01-1.042.252c-.37 0-.7-.081-.99-.241a2.104 2.104 0 01-.729-.714 3.593 3.593 0 01-.451-1.144 7.13 7.13 0 01-.154-1.56c0-.643.053-1.211.159-1.703.11-.493.268-.905.477-1.237.209-.335.467-.586.775-.754a2.18 2.18 0 011.067-.257c1.543 0 2.314 1.257 2.314 3.772zm-.862.082c0-2.094-.498-3.14-1.493-3.14-1.05 0-1.575 1.065-1.575 3.196 0 1.988.515 2.981 1.544 2.981 1.016 0 1.524-1.012 1.524-3.037zm10.262 3.627h-1.2l-2.843-3.366a2.065 2.065 0 01-.195-.256h-.02v3.622h-.862v-7.357h.861v3.458h.021a2.1 2.1 0 01.195-.252l2.75-3.206h1.073l-3.156 3.53 3.376 3.827zm.975 0v-7.357h2.094c.636 0 1.14.155 1.513.466.373.312.56.717.56 1.216 0 .418-.113.78-.34 1.088a1.826 1.826 0 01-.933.657v.021c.496.058.893.246 1.19.564.298.315.447.725.447 1.231 0 .63-.226 1.14-.677 1.529-.452.39-1.022.585-1.71.585h-2.144zm.862-6.578v2.376h.883c.472 0 .843-.113 1.113-.339.27-.229.405-.55.405-.964 0-.715-.47-1.073-1.41-1.073h-.99zm0 3.151v2.647h1.17c.506 0 .898-.119 1.175-.359.28-.239.42-.568.42-.985 0-.869-.591-1.303-1.775-1.303h-.99z" fill="#5B5863"/><path d="M43.408 447.251l-1.132-1.132-3.476 3.476v-9.862h-1.616v9.862l-3.476-3.476-1.132 1.132 5.416 5.416 5.416-5.416z" fill="#AFADB2"/><path d="M150.491 446.024c0 .615-.056 1.161-.169 1.636a3.75 3.75 0 01-.482 1.206 2.174 2.174 0 01-.775.744 2.12 2.12 0 01-1.042.252c-.369 0-.699-.081-.99-.241a2.102 2.102 0 01-.728-.714 3.589 3.589 0 01-.452-1.144 7.104 7.104 0 01-.154-1.56c0-.643.053-1.211.159-1.703.11-.493.269-.905.477-1.237.209-.335.467-.586.775-.754a2.18 2.18 0 011.067-.257c1.543 0 2.314 1.257 2.314 3.772zm-.862.082c0-2.094-.497-3.14-1.493-3.14-1.05 0-1.575 1.065-1.575 3.196 0 1.988.515 2.981 1.545 2.981 1.015 0 1.523-1.012 1.523-3.037zm10.262 3.627h-1.2l-2.843-3.366a2.065 2.065 0 01-.195-.256h-.02v3.622h-.862v-7.357h.862v3.458h.02a2.12 2.12 0 01.195-.252l2.75-3.206h1.073l-3.156 3.53 3.376 3.827zm.975 0v-7.357h2.094c.636 0 1.141.155 1.513.466.373.312.56.717.56 1.216 0 .418-.113.78-.339 1.088a1.826 1.826 0 01-.934.657v.021c.496.058.893.246 1.191.564.297.315.446.725.446 1.231 0 .63-.226 1.14-.677 1.529-.452.39-1.021.585-1.709.585h-2.145zm.862-6.578v2.376h.883c.472 0 .843-.113 1.113-.339.271-.229.406-.55.406-.964 0-.715-.471-1.073-1.411-1.073h-.991zm0 3.151v2.647h1.17c.507 0 .898-.119 1.175-.359.281-.239.421-.568.421-.985 0-.869-.592-1.303-1.775-1.303h-.991z" fill="#5B5863"/><path d="M139.357 445.149l-1.132 1.132-3.475-3.476v9.862h-1.617v-9.862l-3.476 3.476-1.132-1.132 5.416-5.416 5.416 5.416z" fill="#AFADB2"/><path d="M246.925 446.024c0 .615-.056 1.161-.169 1.636-.11.476-.271.878-.483 1.206a2.171 2.171 0 01-.774.744 2.123 2.123 0 01-1.042.252c-.369 0-.7-.081-.99-.241a2.104 2.104 0 01-.729-.714 3.589 3.589 0 01-.451-1.144 7.104 7.104 0 01-.154-1.56c0-.643.053-1.211.159-1.703.109-.493.268-.905.477-1.237.209-.335.467-.586.775-.754a2.18 2.18 0 011.067-.257c1.543 0 2.314 1.257 2.314 3.772zm-.862.082c0-2.094-.498-3.14-1.493-3.14-1.05 0-1.575 1.065-1.575 3.196 0 1.988.514 2.981 1.544 2.981 1.016 0 1.524-1.012 1.524-3.037zm6.527-.082c0 .615-.057 1.161-.17 1.636a3.75 3.75 0 01-.482 1.206 2.174 2.174 0 01-.775.744 2.116 2.116 0 01-1.041.252c-.37 0-.7-.081-.991-.241a2.102 2.102 0 01-.728-.714 3.589 3.589 0 01-.452-1.144 7.166 7.166 0 01-.154-1.56c0-.643.053-1.211.159-1.703.11-.493.269-.905.478-1.237.208-.335.466-.586.774-.754a2.183 2.183 0 011.068-.257c1.542 0 2.314 1.257 2.314 3.772zm-.862.082c0-2.094-.498-3.14-1.493-3.14-1.051 0-1.576 1.065-1.576 3.196 0 1.988.515 2.981 1.545 2.981 1.016 0 1.524-1.012 1.524-3.037zm2.437-.601a.55.55 0 01-.405-.169.56.56 0 01-.165-.405c0-.158.055-.291.165-.4a.559.559 0 01.405-.165c.161 0 .298.055.41.165.113.109.17.242.17.4a.553.553 0 01-.17.405.555.555 0 01-.41.169zm0 4.341a.55.55 0 01-.405-.169.56.56 0 01-.165-.405c0-.158.055-.293.165-.406a.544.544 0 01.405-.174c.161 0 .298.058.41.174.113.113.17.248.17.406a.553.553 0 01-.17.405.555.555 0 01-.41.169zm6.368-3.822c0 .615-.057 1.161-.17 1.636a3.75 3.75 0 01-.482 1.206 2.174 2.174 0 01-.775.744 2.12 2.12 0 01-1.042.252c-.369 0-.699-.081-.99-.241a2.102 2.102 0 01-.728-.714 3.589 3.589 0 01-.452-1.144 7.104 7.104 0 01-.154-1.56c0-.643.053-1.211.159-1.703.11-.493.269-.905.477-1.237.209-.335.467-.586.775-.754a2.18 2.18 0 011.067-.257c1.543 0 2.315 1.257 2.315 3.772zm-.862.082c0-2.094-.498-3.14-1.494-3.14-1.05 0-1.575 1.065-1.575 3.196 0 1.988.515 2.981 1.545 2.981 1.016 0 1.524-1.012 1.524-3.037zm6.526-.082c0 .615-.056 1.161-.169 1.636-.11.476-.27.878-.482 1.206a2.174 2.174 0 01-.775.744 2.123 2.123 0 01-1.042.252c-.369 0-.699-.081-.99-.241a2.113 2.113 0 01-.729-.714 3.589 3.589 0 01-.451-1.144 7.104 7.104 0 01-.154-1.56c0-.643.053-1.211.159-1.703.109-.493.268-.905.477-1.237.209-.335.467-.586.775-.754a2.18 2.18 0 011.067-.257c1.543 0 2.314 1.257 2.314 3.772zm-.862.082c0-2.094-.498-3.14-1.493-3.14-1.05 0-1.575 1.065-1.575 3.196 0 1.988.515 2.981 1.544 2.981 1.016 0 1.524-1.012 1.524-3.037z" fill="#5B5863"/><path d="M230.375 439.733c-3.557 0-6.467 2.91-6.467 6.467 0 3.557 2.91 6.467 6.467 6.467 3.557 0 6.467-2.91 6.467-6.467 0-3.557-2.91-6.467-6.467-6.467zm0 11.317a4.864 4.864 0 01-4.85-4.85 4.864 4.864 0 014.85-4.85 4.865 4.865 0 014.85 4.85 4.864 4.864 0 01-4.85 4.85z" fill="#AFADB2"/><path d="M231.183 442.967h-1.617v4.041h4.042v-1.616h-2.425v-2.425z" fill="#AFADB2"/><path fill="#E8E6E0" d="M32.334 422.758h234.417v.808H32.334z"/><rect x="32.334" y="286.15" width="234.417" height="72.75" rx="4.042" fill="#fff"/><path d="M235.645 328.847l5.376-6.273a.806.806 0 000-1.051l-5.376-6.273-1.228 1.052 4.926 5.747-4.925 5.746 1.227 1.052zM52.403 311.996v-1.094c.125.111.274.21.448.298.176.089.36.164.552.227.195.059.39.105.586.138.195.033.376.05.541.05.571 0 .997-.105 1.277-.315.283-.214.425-.519.425-.917 0-.214-.048-.4-.143-.558a1.492 1.492 0 00-.387-.431 3.534 3.534 0 00-.591-.376 27.584 27.584 0 00-.73-.381 12.2 12.2 0 01-.773-.426 3.37 3.37 0 01-.625-.475 2.044 2.044 0 01-.42-.586 1.87 1.87 0 01-.149-.773c0-.362.08-.675.238-.94a2.02 2.02 0 01.624-.663c.258-.173.55-.302.879-.387a4.103 4.103 0 011.01-.127c.782 0 1.351.094 1.708.282v1.044c-.468-.324-1.068-.486-1.801-.486-.203 0-.405.022-.608.066a1.677 1.677 0 00-.541.205 1.201 1.201 0 00-.387.37.982.982 0 00-.15.553c0 .202.037.377.111.525.077.147.19.281.337.403.147.122.326.239.536.354.214.114.459.239.735.375.284.14.553.288.807.442.254.155.477.326.668.514.192.188.343.396.453.625.115.228.172.49.172.784 0 .391-.078.722-.232.995a1.863 1.863 0 01-.62.658 2.626 2.626 0 01-.894.364 4.768 4.768 0 01-1.072.116c-.126 0-.28-.011-.464-.033a5.271 5.271 0 01-.564-.088 4.835 4.835 0 01-.547-.138 1.77 1.77 0 01-.409-.194zm10.808-2.282h-3.995c.015.63.184 1.116.509 1.459.324.342.77.514 1.337.514.637 0 1.223-.21 1.757-.63v.851c-.497.361-1.155.541-1.973.541-.8 0-1.427-.256-1.884-.768-.457-.516-.685-1.239-.685-2.171 0-.881.248-1.597.746-2.15a2.403 2.403 0 011.862-.834c.74 0 1.313.239 1.718.718.406.479.608 1.144.608 1.995v.475zm-.928-.768c-.004-.523-.13-.93-.381-1.221-.247-.291-.592-.437-1.034-.437-.427 0-.79.153-1.088.459-.299.306-.483.705-.553 1.199h3.056zm3.21 3.371h-.906v-8.377h.906v8.377zm6.383-2.603H67.88c.015.63.185 1.116.509 1.459.324.342.77.514 1.337.514.637 0 1.223-.21 1.757-.63v.851c-.497.361-1.155.541-1.972.541-.8 0-1.428-.256-1.885-.768-.457-.516-.685-1.239-.685-2.171 0-.881.249-1.597.746-2.15.501-.556 1.122-.834 1.862-.834s1.314.239 1.719.718.608 1.144.608 1.995v.475zm-.929-.768c-.003-.523-.13-.93-.381-1.221-.247-.291-.591-.437-1.033-.437-.428 0-.79.153-1.089.459-.298.306-.482.705-.552 1.199h3.055zm6.162 3.111c-.435.261-.951.392-1.548.392-.807 0-1.459-.261-1.956-.784-.493-.527-.74-1.209-.74-2.045 0-.932.267-1.68.8-2.243.535-.568 1.248-.851 2.14-.851.497 0 .935.092 1.314.276v.928a2.309 2.309 0 00-1.348-.442c-.578 0-1.053.208-1.425.625-.369.412-.553.956-.553 1.63 0 .663.173 1.186.52 1.569.35.383.817.575 1.403.575.494 0 .958-.164 1.393-.492v.862zm3.995.204c-.214.118-.496.177-.846.177-.99 0-1.486-.552-1.486-1.657v-3.349h-.973v-.774h.973v-1.381l.906-.293v1.674h1.426v.774h-1.426v3.188c0 .38.064.65.193.813.13.162.343.243.641.243a.955.955 0 00.592-.188v.773zm5.757-2.547h-3.995c.015.63.184 1.116.509 1.459.324.342.77.514 1.337.514.637 0 1.223-.21 1.757-.63v.851c-.497.361-1.155.541-1.973.541-.799 0-1.427-.256-1.884-.768-.457-.516-.685-1.239-.685-2.171 0-.881.248-1.597.746-2.15.5-.556 1.122-.834 1.862-.834s1.313.239 1.719.718c.405.479.607 1.144.607 1.995v.475zm-.928-.768c-.004-.523-.13-.93-.381-1.221-.247-.291-.592-.437-1.034-.437-.427 0-.79.153-1.088.459-.299.306-.483.705-.553 1.199h3.056zm7.134 3.371h-.906v-.962h-.023c-.42.73-1.068 1.094-1.945 1.094-.71 0-1.28-.252-1.707-.757-.424-.508-.636-1.199-.636-2.072 0-.936.236-1.685.708-2.249.471-.563 1.1-.845 1.884-.845.777 0 1.343.305 1.696.917h.022v-3.503h.907v8.377zm-.906-2.559v-.834a1.62 1.62 0 00-.454-1.161c-.302-.316-.685-.475-1.149-.475-.553 0-.987.203-1.304.608-.317.405-.475.965-.475 1.68 0 .652.15 1.168.453 1.547.306.376.715.564 1.227.564.504 0 .913-.183 1.226-.547.317-.365.475-.826.475-1.382zm10.078 2.559h-4.11v-7.924h.928v7.084h3.182v.84zm3.46.132c-.837 0-1.505-.263-2.006-.79-.498-.53-.746-1.232-.746-2.105 0-.951.259-1.693.779-2.227.519-.534 1.221-.801 2.105-.801.844 0 1.501.259 1.973.779.475.519.713 1.239.713 2.16 0 .903-.256 1.627-.768 2.172-.509.542-1.192.812-2.05.812zm.066-5.161c-.582 0-1.043.199-1.382.597-.339.394-.508.939-.508 1.636 0 .67.171 1.199.514 1.586.343.386.801.58 1.376.58.586 0 1.035-.19 1.348-.569.317-.38.475-.92.475-1.619 0-.708-.158-1.253-.475-1.636-.313-.383-.762-.575-1.348-.575zm8.056 4.769c-.434.261-.95.392-1.547.392-.807 0-1.459-.261-1.956-.784-.494-.527-.74-1.209-.74-2.045 0-.932.267-1.68.801-2.243.534-.568 1.247-.851 2.138-.851.498 0 .936.092 1.315.276v.928a2.308 2.308 0 00-1.348-.442c-.578 0-1.053.208-1.426.625-.368.412-.552.956-.552 1.63 0 .663.173 1.186.519 1.569.35.383.818.575 1.404.575.493 0 .958-.164 1.392-.492v.862zm5.421.26h-.906v-.884h-.022c-.394.677-.975 1.016-1.741 1.016-.563 0-1.006-.149-1.326-.447-.317-.299-.475-.695-.475-1.188 0-1.058.622-1.673 1.867-1.846l1.697-.238c0-.961-.389-1.442-1.166-1.442-.682 0-1.297.232-1.846.696v-.928c.557-.353 1.198-.53 1.923-.53 1.33 0 1.995.703 1.995 2.111v3.68zm-.906-2.863l-1.365.188c-.42.059-.737.164-.95.315-.214.148-.321.411-.321.79 0 .277.098.503.293.68.199.173.462.26.79.26.45 0 .82-.157 1.111-.47.294-.317.442-.716.442-1.199v-.564zm5.238 2.807c-.213.118-.495.177-.845.177-.991 0-1.487-.552-1.487-1.657v-3.349h-.972v-.774h.972v-1.381l.907-.293v1.674h1.425v.774h-1.425v3.188c0 .38.064.65.193.813.129.162.343.243.641.243a.955.955 0 00.591-.188v.773zm1.675-7.039a.576.576 0 01-.586-.586c0-.17.057-.31.171-.42a.565.565 0 01.415-.171.57.57 0 01.419.171.55.55 0 01.177.42c0 .162-.059.3-.177.414a.567.567 0 01-.419.172zm.442 7.095h-.907v-5.659h.907v5.659zm4.199.132c-.836 0-1.505-.263-2.006-.79-.497-.53-.746-1.232-.746-2.105 0-.951.26-1.693.779-2.227.52-.534 1.222-.801 2.106-.801.843 0 1.501.259 1.972.779.476.519.713 1.239.713 2.16 0 .903-.256 1.627-.768 2.172-.508.542-1.192.812-2.05.812zm.066-5.161c-.582 0-1.042.199-1.381.597-.339.394-.508.939-.508 1.636 0 .67.171 1.199.514 1.586.342.386.801.58 1.375.58.586 0 1.036-.19 1.349-.569.316-.38.475-.92.475-1.619 0-.708-.159-1.253-.475-1.636-.313-.383-.763-.575-1.349-.575zm8.897 5.029h-.906v-3.227c0-1.201-.439-1.802-1.316-1.802-.453 0-.828.172-1.127.514-.294.339-.442.768-.442 1.288v3.227h-.906v-5.659h.906v.94h.022c.428-.715 1.046-1.072 1.857-1.072.619 0 1.092.2 1.42.602.328.398.492.974.492 1.73v3.459zm2.028-4.554a.594.594 0 01-.437-.182.603.603 0 01-.177-.436.606.606 0 01.614-.608c.173 0 .32.059.442.177a.577.577 0 01.182.431.596.596 0 01-.182.436.6.6 0 01-.442.182zm0 4.675a.598.598 0 01-.437-.182.606.606 0 01-.177-.437c0-.169.059-.315.177-.436a.589.589 0 01.437-.188c.173 0 .32.063.442.188a.596.596 0 01.182.436c0 .17-.061.315-.182.437a.605.605 0 01-.442.182z" fill="#AFADB2"/><path d="M91.545 332.021c0 2.861-1.355 4.291-4.064 4.291-2.595 0-3.893-1.376-3.893-4.128v-6.23h1.69v5.882c0 1.999.777 2.998 2.331 2.998 1.497 0 2.245-.963 2.245-2.891v-5.989h1.69v6.067zm1.925 3.716v-1.741c.156.142.341.27.554.384.218.113.448.21.69.291.241.076.483.135.724.178.242.042.464.064.668.064.71 0 1.239-.119 1.584-.356.35-.237.526-.58.526-1.03 0-.241-.06-.45-.178-.625a1.754 1.754 0 00-.483-.49 4.769 4.769 0 00-.739-.419c-.279-.138-.58-.28-.902-.427a14.35 14.35 0 01-.966-.561 4.345 4.345 0 01-.781-.625 2.773 2.773 0 01-.52-.782 2.574 2.574 0 01-.184-1.016c0-.478.107-.892.32-1.243.218-.355.502-.646.852-.874a3.843 3.843 0 011.208-.511 5.59 5.59 0 011.378-.171c1.066 0 1.843.121 2.33.363v1.669c-.577-.417-1.32-.625-2.23-.625-.251 0-.502.024-.753.071a2.262 2.262 0 00-.668.234 1.453 1.453 0 00-.476.42c-.123.17-.185.376-.185.618 0 .227.048.424.142.589.095.166.232.318.412.455a4.8 4.8 0 00.668.405c.266.128.571.268.917.419.355.185.689.379 1.001.583.318.203.595.428.832.675.241.246.43.521.568.824.142.298.213.639.213 1.023 0 .516-.104.952-.312 1.307-.209.355-.49.644-.846.867-.35.222-.755.383-1.215.483a6.9 6.9 0 01-1.456.149c-.17 0-.381-.014-.632-.043a7.408 7.408 0 01-.76-.113 6.64 6.64 0 01-.74-.178 2.338 2.338 0 01-.56-.241zm16.767.405h-1.854l-.917-2.594h-4.007l-.881 2.594h-1.847l3.815-10.188h1.904l3.787 10.188zm-3.218-3.972l-1.414-4.064a4.653 4.653 0 01-.135-.639h-.029c-.042.27-.09.483-.142.639l-1.399 4.064h3.119zm12.276.604h-3.879v-1.215h3.879v1.215zm14.856 3.368h-1.848l-4.866-7.489a3.367 3.367 0 01-.306-.589h-.042c.038.218.057.684.057 1.399v6.679h-1.634v-10.188h1.967l4.704 7.31c.199.303.326.512.383.625h.029c-.048-.269-.071-.727-.071-1.371v-6.564h1.627v10.188zm8.504-3.19h-4.959c.019.672.225 1.191.618 1.556.398.364.942.547 1.634.547.777 0 1.489-.232 2.138-.697v1.329c-.663.417-1.539.625-2.628.625-1.071 0-1.911-.329-2.522-.987-.607-.664-.91-1.594-.91-2.792 0-1.132.334-2.054 1.002-2.764.672-.715 1.506-1.073 2.501-1.073.994 0 1.764.32 2.309.959.544.64.817 1.528.817 2.664v.633zm-1.592-1.165c-.005-.592-.144-1.052-.419-1.379-.275-.331-.654-.497-1.137-.497-.473 0-.876.173-1.207.519-.327.345-.529.798-.604 1.357h3.367zm12.945-2.92l-2.146 7.275h-1.726l-1.322-4.931a3.116 3.116 0 01-.099-.639h-.029a2.876 2.876 0 01-.128.625l-1.435 4.945h-1.691l-2.138-7.275h1.705l1.322 5.243c.042.156.071.364.085.625h.05c.014-.199.052-.412.113-.639l1.471-5.229h1.549l1.307 5.264c.042.166.073.374.092.625h.05c.009-.175.045-.383.107-.625l1.293-5.264h1.57zm12.518-2.913l-3.339 6.486v3.702h-1.691v-3.666l-3.254-6.522h1.925l2.004 4.369c.023.052.094.249.213.59h.021c.043-.152.121-.348.235-.59l2.095-4.369h1.791zm3.048 10.358c-1.123 0-2.02-.339-2.693-1.016-.668-.682-1.002-1.584-1.002-2.707 0-1.222.348-2.176 1.045-2.863.701-.687 1.643-1.03 2.827-1.03 1.137 0 2.023.334 2.657 1.002.635.668.952 1.594.952 2.778 0 1.16-.343 2.091-1.03 2.792-.682.696-1.601 1.044-2.756 1.044zm.078-6.302c-.644 0-1.154.225-1.528.675-.374.45-.561 1.071-.561 1.862 0 .762.189 1.364.568 1.804.379.436.886.654 1.521.654.649 0 1.146-.216 1.492-.647.35-.431.525-1.044.525-1.84 0-.8-.175-1.418-.525-1.854-.346-.436-.843-.654-1.492-.654zm9.612.427c-.199-.157-.485-.235-.86-.235-.487 0-.895.22-1.222.661-.326.44-.49 1.04-.49 1.797v3.482h-1.648v-7.275h1.648v1.499h.029c.161-.512.407-.91.739-1.194.336-.289.71-.433 1.122-.433.298 0 .526.045.682.135v1.563zm7.765 5.705h-2.088l-2.828-3.496h-.028v3.496h-1.656v-10.771h1.656v6.828h.028l2.671-3.332h1.982l-3.005 3.509 3.268 3.766z" fill="#5B5863"/><path fill-rule="evenodd" clip-rule="evenodd" d="M51.734 322.525h21.017v1.244H51.734v-1.244zm0 2.488h21.017v1.244H51.734v-1.244zm0 2.485h21.017v1.247H51.734v-1.247zm0 2.488h21.017v1.244H51.734v-1.244zm0 2.488h21.017v1.244H51.734v-1.244zm0 2.485h21.017v1.244H51.734v-1.244zm0 2.488h21.017v1.245H51.734v-1.245z" fill="#BD3D44"/><path fill-rule="evenodd" clip-rule="evenodd" d="M51.734 324.142h21.017v1.176H51.734v-1.176zm0 2.352h21.017v1.174H51.734v-1.174zm0 2.35h21.017v1.176H51.734v-1.176zm0 2.352h21.017v1.177H51.734v-1.177zm0 2.353h21.017v1.176H51.734v-1.176zm0 2.35h21.017v1.176H51.734v-1.176z" fill="#fff"/><path fill-rule="evenodd" clip-rule="evenodd" d="M51.734 322.525h11.64v8.505h-11.64v-8.505z" fill="#192F5D"/><path fill-rule="evenodd" clip-rule="evenodd" d="M52.703 322.889l.107.336h.341l-.275.207.105.339-.278-.209-.276.206.105-.336-.278-.207h.347l.102-.336zm1.941 0l.105.336h.344l-.279.207.105.339-.275-.209-.278.206.105-.336-.276-.207h.341l.108-.336zm1.938 0l.108.336h.338l-.275.207.105.339-.279-.209-.275.206.105-.336-.278-.207h.344l.107-.336zm1.942 0l.105.336h.343l-.278.207.108.339-.278-.209-.278.206.107-.336-.278-.207h.341l.108-.336zm1.938 0l.108.336h.34l-.274.207.104.339-.278-.209-.275.206.105-.336-.276-.207h.342l.104-.336zm1.942 0l.104.336h.344l-.278.207.108.339-.278-.209-.279.206.108-.336-.278-.207h.344l.105-.336zm-8.73.852l.105.336h.344l-.278.207.102.336-.27-.207-.277.207.098-.336-.269-.207h.341l.105-.336zm1.94 0l.107.336h.34l-.277.207.107.336-.278-.207-.278.207.108-.336-.279-.207h.344l.105-.336zm1.94 0l.105.336h.344l-.278.207.105.336-.275-.207-.279.207.105-.336-.275-.207h.34l.109-.336zm1.939 0l.108.336h.34l-.278.207.108.336-.278-.207-.275.207.104-.336-.278-.207h.347l.102-.336zm1.941 0l.105.336h.344l-.278.207.105.336-.276-.207-.278.207.105-.336-.275-.207h.34l.108-.336zm-8.731.848l.107.342h.341l-.275.207.105.336-.278-.21-.276.21.105-.339-.278-.207h.347l.102-.339zm1.941 0l.105.339h.344l-.279.207.105.336-.275-.21-.278.21.105-.339-.276-.207h.341l.108-.336zm1.938 0l.108.339h.338l-.275.207.105.336-.279-.21-.275.21.105-.339-.278-.207h.344l.107-.336zm1.942 0l.105.339h.343l-.278.207.108.336-.278-.21-.278.21.107-.339-.278-.207h.341l.108-.336zm1.938 0l.108.339h.34l-.274.207.104.336-.278-.21-.275.21.105-.339-.276-.207h.342l.104-.336zm1.942 0l.104.339h.344l-.278.207.108.336-.278-.21-.279.21.108-.339-.278-.207h.344l.105-.336zm-8.73.851l.105.337h.344l-.278.206.105.34-.275-.21-.278.207.104-.337-.275-.206h.341l.108-.337zm1.94 0l.107.337h.34l-.277.206.107.34-.278-.21-.278.207.108-.337-.279-.206h.344l.105-.337zm1.94 0l.105.337h.344l-.278.206.105.34-.275-.21-.279.207.105-.337-.275-.206h.34l.109-.337zm1.939 0l.108.337h.34l-.275.206.105.34-.278-.21-.275.207.104-.337-.278-.206h.347l.102-.337zm1.941 0l.105.337h.344l-.278.206.105.34-.276-.21-.278.207.105-.337-.275-.206h.34l.108-.337zm-8.731.852l.107.336h.341l-.275.207.105.339-.278-.21-.276.207.105-.336-.278-.207h.347l.102-.336zm1.941 0l.105.336h.344l-.279.207.105.336-.275-.207-.278.207.105-.336-.276-.207h.341l.108-.336zm1.938 0l.108.336h.338l-.275.207.105.339-.279-.21-.275.207.105-.336-.278-.207h.344l.107-.336zm1.942 0l.105.336h.343l-.278.207.108.339-.278-.21-.278.207.107-.336-.278-.207h.341l.108-.336zm1.938 0l.108.336h.34l-.274.207.104.339-.278-.21-.275.207.105-.336-.276-.207h.342l.104-.336zm1.942 0l.104.336h.344l-.278.207.108.339-.278-.21-.279.207.108-.336-.278-.207h.344l.105-.336zm-8.73.851l.105.336h.344l-.278.207.105.336-.275-.209-.278.209.104-.339-.275-.207h.341l.108-.333zm1.94 0l.107.336h.34l-.277.207.107.336-.278-.209-.278.209.108-.339-.279-.207h.344l.105-.333zm1.94 0l.105.336h.344l-.278.207.105.336-.275-.209-.279.209.105-.339-.275-.207h.34l.109-.333zm1.939 0l.108.336h.34l-.275.207.105.336-.278-.209-.275.209.104-.339-.278-.207h.347l.102-.333zm1.941 0l.105.336h.344l-.278.207.105.336-.276-.209-.278.209.105-.339-.275-.207h.34l.108-.333zm-8.731.848l.107.34h.341l-.275.207.105.333-.278-.207-.276.207.105-.337-.278-.206h.347l.102-.337zm1.941 0l.105.34h.344l-.279.207.108.333-.278-.207-.278.207.108-.337-.279-.206h.341l.108-.337zm1.938 0l.108.34h.338l-.275.207.105.333-.279-.207-.275.207.105-.337-.278-.206h.344l.107-.337zm1.942 0l.105.34h.343l-.278.207.108.333-.278-.207-.278.207.107-.337-.278-.206h.341l.108-.337zm1.938 0l.108.34h.34l-.274.207.104.333-.278-.207-.275.207.105-.337-.276-.206h.342l.104-.337zm1.942 0l.104.34h.344l-.278.207.108.333-.278-.207-.279.207.108-.337-.278-.206h.344l.105-.337zm-8.73.852l.105.336h.344l-.278.207.105.339-.275-.21-.278.207.104-.336-.275-.207h.341l.108-.336zm1.94 0l.107.336h.34l-.277.207.107.339-.278-.21-.278.207.108-.336-.279-.207h.344l.105-.336zm1.94 0l.105.336h.344l-.278.207.105.339-.275-.21-.279.207.105-.336-.275-.207h.34l.109-.336zm1.939 0l.108.336h.34l-.275.207.105.339-.278-.21-.275.207.104-.336-.278-.207h.347l.102-.336zm1.941 0l.105.336h.344l-.278.207.105.339-.276-.21-.278.207.105-.336-.275-.207h.34l.108-.336zm-8.731.851l.107.337h.341l-.275.206.105.337-.278-.207-.276.207.105-.34-.278-.207h.347l.102-.333zm1.941 0l.105.337h.344l-.279.206.108.337-.278-.207-.278.207.108-.34-.279-.207h.341l.108-.333zm1.938 0l.108.337h.338l-.27.206.106.337-.279-.207-.275.207.105-.34-.278-.207h.344l.101-.333zm1.942 0l.105.337h.343l-.278.206.108.337-.278-.207-.278.207.107-.34-.278-.207h.341l.108-.333zm1.938 0l.108.337h.34l-.274.206.104.337-.278-.207-.275.207.105-.34-.276-.207h.342l.104-.333zm1.942 0l.104.337h.344l-.278.206.108.337-.278-.207-.279.207.108-.34-.278-.207h.344l.105-.333z" fill="#fff"/><path fill="#F5F3ED" d="M0 0h299.083v29.1H0z"/><path d="M42.891 9.825l-1.918 6.792h-.933l-1.397-4.964a3.104 3.104 0 01-.109-.692h-.019a3.51 3.51 0 01-.123.683l-1.407 4.973h-.923l-1.99-6.792h.877l1.444 5.21c.06.218.098.445.114.682h.024c.015-.168.064-.395.146-.682l1.502-5.21h.762l1.44 5.248c.05.18.089.391.114.634h.019a3.7 3.7 0 01.128-.653l1.387-5.23h.862zm4.429 4.56h-3.425c.013.54.158.958.436 1.251.278.294.66.44 1.146.44.547 0 1.049-.18 1.507-.54v.73c-.427.31-.99.464-1.691.464-.685 0-1.224-.22-1.615-.658-.392-.442-.588-1.063-.588-1.861 0-.755.213-1.37.64-1.843.43-.477.961-.715 1.596-.715.635 0 1.126.205 1.473.616.347.41.52.98.52 1.71v.407zm-.796-.658c-.003-.448-.112-.797-.327-1.046-.211-.25-.506-.374-.885-.374-.367 0-.678.13-.933.393-.256.262-.414.604-.474 1.027h2.62zm7.128-3.902l-2.515 6.792h-.876l-2.463-6.792h.886l1.88 5.385a3.2 3.2 0 01.138.601h.019c.025-.189.077-.393.156-.61l1.918-5.376h.857zm1.772 4.225v2.567h-.796V9.825h1.866c.726 0 1.288.177 1.686.53.401.354.602.853.602 1.497 0 .644-.223 1.171-.668 1.582-.442.41-1.04.616-1.795.616h-.895zm0-3.505v2.785h.833c.55 0 .968-.125 1.255-.374.29-.253.436-.608.436-1.066 0-.897-.53-1.345-1.591-1.345h-.933zm10.116 6.072h-.975l-3.496-5.414a2.261 2.261 0 01-.217-.426h-.029c.025.145.038.456.038.933v4.907h-.796V9.825h1.033l3.4 5.328c.143.221.234.373.275.455h.02c-.032-.196-.048-.529-.048-1V9.825h.795v6.792z" fill="#5B5863"/><path fill="#F5F3ED" d="M253.816 0h45.267v29.1h-45.267z"/><path d="M273.355 17.645a.421.421 0 00.324.138.419.419 0 00.323-.138l2.448-2.448 2.448 2.448a.5.5 0 00.324.138.498.498 0 00.323-.138.446.446 0 000-.647l-2.448-2.448 2.448-2.448a.446.446 0 000-.647.447.447 0 00-.647 0l-2.448 2.448-2.448-2.448a.447.447 0 00-.647 0 .448.448 0 000 .647l2.448 2.448-2.448 2.448a.448.448 0 000 .647z" fill="#5B5863"/><path fill="#F5F3ED" d="M208.55 0h45.267v29.1H208.55z"/><g opacity=".3"><mask id="b" fill="#fff"><path d="M233.608 15.358h2.425V8.891h-6.467v2.425"/></mask><path d="M233.608 16.166h-.808V14.55h.808v1.616zm2.425-.808h.808v.808h-.808v-.808zm0-6.467v-.808h.808v.808h-.808zm-6.467 0h-.808v-.808h.808v.808zm.809 2.425v.809h-1.617v-.809h1.617zm3.233 3.234h2.425v1.616h-2.425V14.55zm1.617.808V8.891h1.616v6.467h-1.616zm.808-5.658h-6.467V8.083h6.467V9.7zm-5.658-.809v2.425h-1.617V8.892h1.617z" fill="#5B5863" mask="url(#b)"/><path d="M227.546 11.72v5.66h5.658v-5.66h-5.658z" stroke="#5B5863" stroke-width=".808" stroke-miterlimit="10" stroke-linecap="square"/></g><path fill="#F5F3ED" d="M163.283 0h45.267v29.1h-45.267z"/><path d="M183.088 14.55h5.658c.243 0 .404-.162.404-.404 0-.243-.161-.404-.404-.404h-5.658c-.243 0-.404.161-.404.404 0 .242.161.404.404.404z" fill="#5B5863"/><rect x="12.934" y="6.467" width="16.167" height="16.167" rx="8.083" fill="#FD3E72"/><mask id="c" maskUnits="userSpaceOnUse" x="12" y="6" width="18" height="17"><rect x="12.934" y="6.467" width="16.167" height="16.167" rx="8.083" fill="#FD3E72"/></mask><g mask="url(#c)"><path d="M30.11 19.501l-5.052-9.8-1.078 7.527-7.005.555 5.692 9.902 7.443-8.184z" fill="url(#paint0_linear)" fill-opacity=".24"/></g><path d="M25.059 9.498c-.79 0-1.426.668-1.426 1.496v4.332c0 .181-.01.362-.03.554a1.46 1.46 0 01-.148.512 1.008 1.008 0 01-.355.388c-.158.104-.385.156-.671.156-.287 0-.513-.052-.671-.156a1.008 1.008 0 01-.356-.388 1.462 1.462 0 01-.148-.512 5.288 5.288 0 01-.03-.554v-4.467c-.789 0-1.425.668-1.425 1.496v2.966c0 .18-.01.362-.03.553-.02.187-.069.358-.148.513a1.008 1.008 0 01-.355.388c-.158.104-.385.155-.671.155-.286 0-.513-.051-.671-.155a1.007 1.007 0 01-.355-.388 1.459 1.459 0 01-.149-.513 5.288 5.288 0 01-.03-.553v-3.1c-.789 0-1.425.672-1.425 1.495v1.605c0 .424.04.797.118 1.118.08.32.178.595.296.828a2.36 2.36 0 00.903.957c.38.228.82.352 1.308.368.498-.016.937-.14 1.322-.368a2.443 2.443 0 00.597-.507c.04.047.08.088.119.13.158.155.32.279.483.377.38.228.82.352 1.308.368.498-.016.937-.14 1.322-.368a2.406 2.406 0 00.899-.958c.122-.232.221-.506.295-.827.074-.321.109-.689.109-1.118l.015-5.823z" fill="#fff"/><path d="M0 29.1h299.083v97.808c0 17.858-14.476 32.334-32.333 32.334H32.333C14.476 159.242 0 144.766 0 126.908V29.1z" fill="#F5F3ED"/><path d="M279.684 56.583a1.617 1.617 0 10-3.234 0 1.617 1.617 0 003.234 0zm0 7.275a1.617 1.617 0 10-3.234 0 1.617 1.617 0 003.234 0zm0-14.55a1.617 1.617 0 10-3.234 0 1.617 1.617 0 003.234 0z" fill="#5B5863"/><circle cx="149.946" cy="159.646" r="63.454" fill="#F1EFE8"/><circle cx="149.946" cy="159.646" r="63.454" fill="#fff"/><g filter="url(#filter0_d)"><path fill-rule="evenodd" clip-rule="evenodd" d="M163.718 201.846l-1.035-1.611c-.706-1.099-2.211-1.501-3.362-.898l.268-.14a.686.686 0 00-.305.832l1.433 3.775c.227.598.806 1.444 1.287 1.87 0 0 2.881 2.429 2.881 3.34v1.153h4.668l1.167-2.378 1.167 2.378h1.167v-1.153c0-.911 1.761-3.78 1.761-3.78.324-.557.594-1.54.594-2.192v-4.796c-.021-1.062-.907-1.923-2.001-1.923-.547 0-.99.431-.99.962v.384c0-1.062-.886-1.922-1.979-1.922-.547 0-.99.43-.99.961v.384c0-1.062-.886-1.922-1.98-1.922-.547 0-.99.43-.99.961v.384c0-.17-.018-.306-.052-.413l-.302-4.954c-.041-.669-.595-1.19-1.24-1.19-.649 0-1.167.532-1.167 1.189v10.699zm8.19-1.189h1.167v4.755h-1.167v-4.755zm-2.334 0h1.167v4.755h-1.167v-4.755zm-2.334 0h1.167v4.755h-1.167v-4.755z" fill="#fff"/><path d="M163.024 200.017c-.764-1.189-2.323-1.672-3.615-1.164l-.007-.014h-.001l-.267.14.021.041a1.104 1.104 0 00-.249 1.153l1.433 3.774c.249.659.867 1.56 1.397 2.029h0l.007.007h.001l.001.001.006.005.023.019.089.077a24.873 24.873 0 011.296 1.203c.354.355.7.729.954 1.064.127.167.225.316.289.441a.598.598 0 01.079.221v1.557h5.324l.111-.226.804-1.639.804 1.639.111.226h1.823v-1.557c0-.138.078-.419.244-.82.158-.381.372-.812.589-1.222.217-.41.434-.792.598-1.072.081-.14.149-.254.196-.333l.055-.091.014-.023.004-.006.001-.001h0l.005-.009c.185-.318.345-.739.459-1.157.114-.418.19-.864.19-1.238v-4.796h0v-.008c-.026-1.288-1.098-2.319-2.405-2.319a1.41 1.41 0 00-1.01.424 2.401 2.401 0 00-1.959-1.001c-.394 0-.755.162-1.01.424a2.403 2.403 0 00-1.96-1c-.256 0-.499.068-.707.189l-.234-3.831c-.054-.878-.78-1.57-1.643-1.57a1.58 1.58 0 00-1.571 1.593v9.322l-.29-.452zm9.288 1.044h.359v3.947h-.359v-3.947zm-2.334 0h.359v3.947h-.359v-3.947zm-2.334 0h.359v3.947h-.359v-3.947z" stroke="#000" stroke-opacity=".8" stroke-width=".808"/></g><path d="M150.498 134.816a25.381 25.381 0 1025.382 25.382 25.413 25.413 0 00-25.382-25.382zm-1.104 9.932a1.103 1.103 0 012.207 0v13.242a1.104 1.104 0 11-2.207 0v-13.242zm1.104 29.796a14.35 14.35 0 01-13.401-9.227 14.344 14.344 0 013.836-15.812 1.108 1.108 0 011.22-.18 1.102 1.102 0 01.515 1.48 1.12 1.12 0 01-.262.345 12.135 12.135 0 001.236 19.065 12.138 12.138 0 0018.22-5.749 12.14 12.14 0 00-3.338-13.376 1.1 1.1 0 01-.391-.763 1.097 1.097 0 01.621-1.076 1.102 1.102 0 011.229.184 14.35 14.35 0 013.935 15.832 14.346 14.346 0 01-13.42 9.277z" fill="#5B5863"/><path fill-rule="evenodd" clip-rule="evenodd" d="M204.508 54.158a2.425 2.425 0 00-2.425-2.425H98.616a2.425 2.425 0 00-2.425 2.425v24.25a2.425 2.425 0 002.425 2.425h46.018c.021 0 .032.026.017.04a.023.023 0 000 .034l3.984 3.985a2.424 2.424 0 003.429 0l3.985-3.985a.024.024 0 000-.033.024.024 0 01.017-.04h46.017a2.425 2.425 0 002.425-2.426v-24.25z" fill="#fff"/><path d="M116.538 70.06c-.586.31-1.316.464-2.189.464-1.127 0-2.029-.363-2.707-1.088-.678-.726-1.017-1.678-1.017-2.857 0-1.267.381-2.292 1.144-3.073.762-.78 1.729-1.171 2.901-1.171.751 0 1.374.109 1.868.326v.99a3.791 3.791 0 00-1.879-.476c-.91 0-1.649.304-2.216.912-.564.608-.845 1.42-.845 2.436 0 .966.263 1.736.79 2.31.53.571 1.225.857 2.083.857.796 0 1.485-.177 2.067-.53v.9zm2.398.331h-.906v-8.377h.906v8.377zm2.298-7.095a.573.573 0 01-.585-.585c0-.17.057-.31.171-.42a.563.563 0 01.414-.171.57.57 0 01.42.17.55.55 0 01.177.42.555.555 0 01-.177.415.57.57 0 01-.42.172zm.443 7.095h-.907v-5.658h.907v5.658zm5.691-.26c-.435.262-.95.393-1.547.393-.807 0-1.459-.261-1.956-.785-.494-.526-.741-1.208-.741-2.044 0-.932.267-1.68.801-2.243.535-.568 1.247-.852 2.139-.852.497 0 .936.093 1.315.277v.928a2.303 2.303 0 00-1.348-.442c-.579 0-1.054.208-1.426.624-.368.413-.552.956-.552 1.63 0 .664.173 1.187.519 1.57.35.383.818.575 1.404.575.493 0 .957-.164 1.392-.492v.862zm6.067.26h-1.271l-2.497-2.718h-.022v2.718h-.907v-8.377h.907v5.31h.022l2.376-2.59h1.188l-2.625 2.729 2.829 2.928zm6.659-.055c-.214.118-.496.177-.846.177-.991 0-1.486-.553-1.486-1.658v-3.348h-.973v-.774h.973v-1.381l.906-.293v1.674h1.426v.774h-1.426v3.188c0 .38.065.65.194.812.128.162.342.243.64.243a.954.954 0 00.592-.187v.773zm3.575.188c-.836 0-1.505-.263-2.006-.79-.497-.53-.746-1.232-.746-2.105 0-.95.26-1.693.779-2.227.52-.534 1.221-.802 2.105-.802.844 0 1.502.26 1.973.78.475.52.713 1.24.713 2.16 0 .903-.256 1.627-.768 2.172-.508.541-1.192.812-2.05.812zm.066-5.16c-.582 0-1.042.198-1.381.596-.339.394-.509.94-.509 1.636 0 .67.172 1.198.514 1.585.343.387.802.58 1.376.58.586 0 1.035-.19 1.348-.569.317-.379.476-.919.476-1.619 0-.707-.159-1.252-.476-1.635-.313-.383-.762-.575-1.348-.575zm11.162 4.768c-.435.261-.95.392-1.547.392-.807 0-1.459-.261-1.956-.785-.494-.526-.741-1.208-.741-2.044 0-.932.267-1.68.802-2.243.534-.568 1.247-.852 2.138-.852.497 0 .936.093 1.315.277v.928a2.303 2.303 0 00-1.348-.442c-.578 0-1.054.208-1.426.624-.368.413-.552.956-.552 1.63 0 .664.173 1.187.519 1.57.35.383.818.575 1.404.575.493 0 .957-.164 1.392-.492v.862zm3.736.392c-.837 0-1.505-.263-2.006-.79-.498-.53-.746-1.232-.746-2.105 0-.95.259-1.693.779-2.227.519-.534 1.221-.802 2.105-.802.844 0 1.501.26 1.973.78.475.52.713 1.24.713 2.16 0 .903-.256 1.627-.768 2.172-.509.541-1.192.812-2.05.812zm.066-5.16c-.582 0-1.043.198-1.382.596-.339.394-.508.94-.508 1.636 0 .67.171 1.198.514 1.585.343.387.801.58 1.376.58.586 0 1.035-.19 1.348-.569.317-.379.475-.919.475-1.619 0-.707-.158-1.252-.475-1.635-.313-.383-.762-.575-1.348-.575zm8.896 5.027h-.906v-3.227c0-1.2-.438-1.8-1.315-1.8a1.43 1.43 0 00-1.127.513c-.295.339-.442.768-.442 1.288v3.226h-.907v-5.658h.907v.94h.022c.427-.715 1.046-1.073 1.856-1.073.619 0 1.093.201 1.42.603.328.398.492.974.492 1.73v3.458zm6.41 0h-.906v-3.227c0-1.2-.439-1.8-1.315-1.8-.453 0-.829.17-1.128.513-.294.339-.442.768-.442 1.288v3.226h-.906v-5.658h.906v.94h.023c.427-.715 1.046-1.073 1.856-1.073.619 0 1.092.201 1.42.603.328.398.492.974.492 1.73v3.458zm6.261-2.602h-3.995c.014.63.184 1.116.508 1.459.324.342.77.513 1.337.513.637 0 1.223-.21 1.757-.63v.852c-.497.36-1.155.541-1.972.541-.8 0-1.428-.256-1.885-.768-.456-.516-.685-1.24-.685-2.172 0-.88.249-1.597.746-2.15.501-.555 1.122-.834 1.862-.834.741 0 1.314.24 1.719.719s.608 1.144.608 1.995v.475zm-.929-.768c-.003-.523-.13-.93-.381-1.221-.247-.291-.591-.437-1.033-.437-.428 0-.79.153-1.089.459-.298.305-.482.705-.552 1.199h3.055zm6.162 3.11c-.435.262-.951.393-1.548.393-.806 0-1.458-.261-1.956-.785-.493-.526-.74-1.208-.74-2.044 0-.932.267-1.68.801-2.243.534-.568 1.247-.852 2.138-.852.498 0 .936.093 1.316.277v.928a2.306 2.306 0 00-1.349-.442c-.578 0-1.053.208-1.425.624-.369.413-.553.956-.553 1.63 0 .664.173 1.187.52 1.57.35.383.817.575 1.403.575.494 0 .958-.164 1.393-.492v.862zm3.995.205c-.214.118-.496.177-.846.177-.991 0-1.486-.553-1.486-1.658v-3.348h-.973v-.774h.973v-1.381l.906-.293v1.674h1.426v.774h-1.426v3.188c0 .38.064.65.193.812.129.162.343.243.641.243a.954.954 0 00.592-.187v.773z" fill="#5B5863"/></g><defs><linearGradient id="paint0_linear" x1="21.353" y1="14.045" x2="25.072" y2="21.208" gradientUnits="userSpaceOnUse"><stop stop-color="#666"/><stop offset="1" stop-color="#666" stop-opacity="0"/></linearGradient><filter id="filter0_d" x="156.01" y="187.533" width="22.633" height="26.675" filterUnits="userSpaceOnUse" color-interpolation-filters="sRGB"><feFlood flood-opacity="0" result="BackgroundImageFix"/><feColorMatrix in="SourceAlpha" values="0 0 0 0 0 0 0 0 0 0 0 0 0 0 0 0 0 0 127 0"/><feOffset dy=".808"/><feGaussianBlur stdDeviation="1.212"/><feColorMatrix values="0 0 0 0 0 0 0 0 0 0 0 0 0 0 0 0 0 0 0.2 0"/><feBlend in2="BackgroundImageFix" result="effect1_dropShadow"/><feBlend in="SourceGraphic" in2="effect1_dropShadow" result="shape"/></filter></defs></svg>