<svg width="299" height="485" fill="none" xmlns="http://www.w3.org/2000/svg"><mask id="a" maskUnits="userSpaceOnUse" x="0" y="0" width="299" height="485"><rect width="299" height="484.865" rx="8.081" fill="#F9F8F4"/></mask><g mask="url(#a)"><path fill="#F9F8F4" d="M0 29.092h299v455.773H0z"/><rect x="32.324" y="261.827" width="234.351" height="72.73" rx="4.041" fill="#fff"/><path d="M235.579 305.32l5.375-6.271a.808.808 0 000-1.051l-5.375-6.271-1.227 1.052 4.924 5.745-4.924 5.744 1.227 1.052zM52.387 288.477v-1.094c.125.111.274.21.448.298.176.089.36.164.552.227.195.059.39.105.586.138.195.033.375.05.541.05.57 0 .996-.105 1.276-.315.284-.214.425-.519.425-.917 0-.214-.047-.4-.143-.558a1.52 1.52 0 00-.387-.431 3.533 3.533 0 00-.591-.376 34.928 34.928 0 00-.73-.381c-.275-.14-.533-.281-.773-.425a3.374 3.374 0 01-.624-.475 2.027 2.027 0 01-.42-.586 1.86 1.86 0 01-.149-.773c0-.361.08-.674.238-.939a2.02 2.02 0 01.624-.663 2.84 2.84 0 01.878-.387 4.054 4.054 0 011.011-.127c.781 0 1.35.094 1.707.282v1.044c-.468-.324-1.068-.486-1.8-.486-.203 0-.406.022-.608.066a1.699 1.699 0 00-.542.204c-.158.096-.287.22-.386.371a.982.982 0 00-.15.552c0 .203.037.377.111.525.077.147.19.282.337.403.147.122.326.239.536.354.213.114.458.239.735.375.283.14.552.288.806.442.254.155.477.326.668.514.192.188.343.396.453.624.115.229.172.49.172.785 0 .39-.078.721-.232.994a1.85 1.85 0 01-.619.657c-.258.17-.556.291-.895.365a4.823 4.823 0 01-1.072.116c-.125 0-.28-.011-.464-.033a5.273 5.273 0 01-.563-.089 4.441 4.441 0 01-.547-.138 1.773 1.773 0 01-.409-.193zm10.806-2.282h-3.994c.014.63.184 1.116.508 1.459.324.342.77.514 1.337.514.637 0 1.222-.21 1.756-.63v.851c-.497.36-1.154.541-1.972.541-.799 0-1.427-.256-1.884-.768-.456-.516-.685-1.239-.685-2.171 0-.88.249-1.596.746-2.149.501-.556 1.121-.834 1.862-.834.74 0 1.313.239 1.718.718s.608 1.144.608 1.994v.475zm-.929-.767c-.003-.523-.13-.93-.38-1.221-.248-.291-.592-.437-1.034-.437-.427 0-.79.153-1.088.459-.298.306-.483.705-.553 1.199h3.055zm3.21 3.369h-.906v-8.374h.906v8.374zm6.38-2.602H67.86c.015.63.184 1.116.509 1.459.324.342.77.514 1.337.514.637 0 1.222-.21 1.756-.63v.851c-.497.36-1.154.541-1.972.541-.8 0-1.427-.256-1.884-.768-.456-.516-.685-1.239-.685-2.171 0-.88.249-1.596.746-2.149a2.403 2.403 0 011.862-.834c.74 0 1.313.239 1.718.718s.607 1.144.607 1.994v.475zm-.928-.767c-.003-.523-.13-.93-.38-1.221-.248-.291-.592-.437-1.034-.437-.427 0-.79.153-1.088.459-.298.306-.483.705-.553 1.199h3.055zm6.16 3.11c-.435.261-.95.392-1.547.392-.806 0-1.458-.262-1.956-.784-.493-.527-.74-1.208-.74-2.044 0-.932.267-1.68.801-2.243.534-.567 1.247-.851 2.138-.851.497 0 .936.092 1.315.276v.928a2.308 2.308 0 00-1.348-.442c-.578 0-1.053.208-1.425.625-.369.412-.553.955-.553 1.629 0 .663.173 1.186.52 1.569.35.383.817.575 1.403.575.493 0 .957-.164 1.392-.492v.862zm3.994.204c-.214.118-.496.177-.846.177-.99 0-1.485-.553-1.485-1.657v-3.348h-.973v-.773h.973v-1.381l.906-.293v1.674h1.425v.773h-1.425v3.187c0 .38.064.65.193.812.129.163.342.244.64.244a.954.954 0 00.592-.188v.773zm5.756-2.547h-3.994c.015.63.184 1.116.508 1.459.324.342.77.514 1.337.514.637 0 1.223-.21 1.757-.63v.851c-.498.36-1.155.541-1.972.541-.8 0-1.427-.256-1.884-.768-.457-.516-.685-1.239-.685-2.171 0-.88.248-1.596.746-2.149.5-.556 1.121-.834 1.861-.834s1.313.239 1.718.718.608 1.144.608 1.994v.475zm-.928-.767c-.004-.523-.13-.93-.381-1.221-.247-.291-.591-.437-1.033-.437-.427 0-.79.153-1.089.459-.298.306-.482.705-.552 1.199h3.055zm7.132 3.369h-.906v-.961h-.022c-.42.729-1.069 1.094-1.945 1.094-.71 0-1.28-.252-1.707-.757-.423-.508-.635-1.199-.635-2.071 0-.936.236-1.685.707-2.249.471-.563 1.1-.845 1.884-.845.777 0 1.342.306 1.696.917h.022v-3.502h.906v8.374zm-.906-2.557v-.834a1.62 1.62 0 00-.453-1.161c-.302-.316-.685-.475-1.15-.475-.552 0-.986.203-1.303.608-.317.405-.475.965-.475 1.679 0 .652.15 1.168.453 1.547.305.376.714.564 1.226.564.505 0 .913-.183 1.227-.547.316-.365.475-.825.475-1.381zm10.076 2.557H98.1v-7.921h.928v7.082h3.182v.839zm3.458.133c-.836 0-1.505-.263-2.005-.79-.498-.53-.746-1.232-.746-2.105 0-.95.259-1.692.779-2.226.519-.534 1.221-.801 2.104-.801.844 0 1.501.26 1.973.779.475.519.712 1.239.712 2.16 0 .902-.256 1.626-.768 2.171-.508.541-1.191.812-2.049.812zm.066-5.16c-.582 0-1.042.199-1.381.597-.339.394-.508.939-.508 1.635 0 .67.171 1.199.514 1.586.342.386.801.58 1.375.58.586 0 1.035-.19 1.348-.569.317-.38.475-.919.475-1.619 0-.707-.158-1.252-.475-1.635-.313-.383-.762-.575-1.348-.575zm8.054 4.768c-.434.261-.95.392-1.546.392-.807 0-1.459-.262-1.956-.784-.493-.527-.74-1.208-.74-2.044 0-.932.267-1.68.801-2.243.534-.567 1.246-.851 2.138-.851.497 0 .935.092 1.314.276v.928a2.305 2.305 0 00-1.347-.442c-.579 0-1.054.208-1.426.625-.368.412-.552.955-.552 1.629 0 .663.173 1.186.519 1.569.35.383.818.575 1.403.575.494 0 .958-.164 1.392-.492v.862zm5.42.259h-.906v-.884h-.022c-.395.678-.975 1.017-1.741 1.017-.563 0-1.005-.149-1.325-.448-.317-.298-.475-.694-.475-1.187 0-1.057.622-1.672 1.867-1.845l1.696-.238c0-.961-.389-1.442-1.166-1.442-.681 0-1.296.232-1.845.696v-.928c.556-.353 1.197-.53 1.922-.53 1.33 0 1.995.703 1.995 2.11v3.679zm-.906-2.861l-1.365.188c-.42.059-.736.164-.95.315-.214.147-.32.41-.32.789 0 .277.097.503.292.68.199.173.463.26.79.26.45 0 .82-.157 1.111-.47.294-.317.442-.716.442-1.199v-.563zm5.237 2.806c-.214.118-.496.177-.846.177-.99 0-1.486-.553-1.486-1.657v-3.348h-.972v-.773h.972v-1.381l.906-.293v1.674h1.426v.773h-1.426v3.187c0 .38.065.65.194.812.129.163.342.244.64.244a.956.956 0 00.592-.188v.773zm1.673-7.038a.574.574 0 01-.585-.585c0-.17.057-.31.171-.42a.564.564 0 01.414-.171c.166 0 .306.057.42.171a.55.55 0 01.177.42c0 .162-.059.3-.177.414a.571.571 0 01-.42.171zm.442 7.093h-.906v-5.656h.906v5.656zm4.199.133c-.836 0-1.505-.263-2.006-.79-.497-.53-.745-1.232-.745-2.105 0-.95.259-1.692.779-2.226.519-.534 1.22-.801 2.104-.801.844 0 1.501.26 1.972.779.475.519.713 1.239.713 2.16 0 .902-.256 1.626-.768 2.171-.508.541-1.191.812-2.049.812zm.066-5.16c-.582 0-1.042.199-1.381.597-.339.394-.508.939-.508 1.635 0 .67.171 1.199.513 1.586.343.386.801.58 1.376.58.586 0 1.035-.19 1.348-.569.317-.38.475-.919.475-1.619 0-.707-.158-1.252-.475-1.635-.313-.383-.762-.575-1.348-.575zm8.894 5.027h-.906v-3.226c0-1.2-.438-1.801-1.315-1.801-.453 0-.828.172-1.127.514-.294.339-.442.768-.442 1.287v3.226h-.906v-5.656h.906v.939h.022c.428-.715 1.046-1.072 1.857-1.072.618 0 1.091.201 1.419.602.328.398.492.974.492 1.729v3.458zm2.027-4.552a.592.592 0 01-.436-.182.603.603 0 01-.177-.436.603.603 0 01.613-.608.61.61 0 01.442.177.576.576 0 01.183.431.593.593 0 01-.183.436.6.6 0 01-.442.182zm0 4.674a.596.596 0 01-.436-.182.606.606 0 01-.177-.437c0-.169.059-.315.177-.436a.587.587 0 01.436-.188c.173 0 .321.063.442.188a.593.593 0 01.183.436c0 .17-.061.315-.183.437a.603.603 0 01-.442.182z" fill="#AFADB2"/><path d="M91.518 308.497c0 2.86-1.354 4.29-4.063 4.29-2.594 0-3.892-1.376-3.892-4.127v-6.229h1.69v5.881c0 1.998.777 2.997 2.33 2.997 1.496 0 2.245-.963 2.245-2.89v-5.988h1.69v6.066zm1.925 3.714v-1.74c.156.142.34.27.554.384.218.113.447.21.689.291.241.076.483.135.724.178.242.042.464.063.668.063.71 0 1.238-.118 1.584-.355.35-.236.525-.58.525-1.03 0-.241-.059-.449-.177-.625a1.77 1.77 0 00-.483-.49 4.932 4.932 0 00-.739-.419c-.28-.137-.58-.279-.902-.426a14.807 14.807 0 01-.966-.561 4.344 4.344 0 01-.781-.625 2.772 2.772 0 01-.519-.781 2.58 2.58 0 01-.184-1.016c0-.478.106-.892.32-1.243.217-.355.501-.646.852-.873a3.843 3.843 0 011.207-.512c.45-.113.91-.17 1.378-.17 1.065 0 1.842.12 2.33.362v1.669c-.578-.417-1.322-.625-2.23-.625-.252 0-.503.024-.754.071a2.29 2.29 0 00-.667.234 1.455 1.455 0 00-.476.42c-.123.17-.185.376-.185.617 0 .228.048.424.142.59.095.166.232.317.412.454.185.138.407.273.668.405.265.128.57.268.916.419.355.185.69.379 1.002.583.317.203.594.428.83.675.242.246.431.52.569.823.142.299.213.64.213 1.023 0 .516-.104.952-.313 1.307-.208.355-.49.644-.845.867-.35.222-.755.383-1.214.483-.46.099-.945.149-1.456.149a5.9 5.9 0 01-.633-.043 7.411 7.411 0 01-.76-.114 6.421 6.421 0 01-.738-.177 2.333 2.333 0 01-.561-.242zm16.762.405h-1.854l-.916-2.592h-4.006l-.881 2.592h-1.846l3.814-10.185h1.903l3.786 10.185zm-3.218-3.97l-1.413-4.063a4.653 4.653 0 01-.135-.639h-.029c-.042.27-.089.483-.142.639l-1.399 4.063h3.118zm12.273.604h-3.878v-1.215h3.878v1.215zm14.852 3.366h-1.847l-4.865-7.486a3.367 3.367 0 01-.306-.589h-.042c.038.217.057.684.057 1.399v6.676h-1.634v-10.185h1.967l4.702 7.309c.199.303.327.511.384.625h.028c-.047-.27-.071-.727-.071-1.371v-6.563h1.627v10.185zm8.501-3.189h-4.957c.019.673.225 1.191.618 1.556.398.364.942.547 1.633.547.777 0 1.49-.232 2.138-.697v1.329c-.663.416-1.539.625-2.628.625-1.07 0-1.91-.329-2.521-.988-.606-.662-.909-1.593-.909-2.791 0-1.132.334-2.052 1.001-2.763.673-.715 1.506-1.072 2.5-1.072.995 0 1.764.319 2.309.959.544.639.816 1.527.816 2.663v.632zm-1.591-1.165c-.004-.592-.144-1.051-.419-1.378-.274-.331-.653-.497-1.136-.497-.473 0-.876.173-1.207.519-.327.345-.528.798-.604 1.356h3.366zm12.941-2.919l-2.145 7.273h-1.726l-1.321-4.929a3.105 3.105 0 01-.099-.639h-.029a2.926 2.926 0 01-.127.625l-1.435 4.943h-1.69l-2.138-7.273h1.704l1.321 5.242c.043.156.071.364.086.625h.049c.015-.199.052-.412.114-.639l1.47-5.228h1.549l1.306 5.263c.043.166.074.374.093.625h.049c.01-.175.045-.383.107-.625l1.293-5.263h1.569zm12.515-2.912l-3.338 6.485v3.7h-1.691v-3.665l-3.253-6.52h1.925l2.003 4.368c.024.052.095.249.213.59h.021c.043-.152.121-.348.235-.59l2.095-4.368h1.79zm3.047 10.356c-1.122 0-2.02-.339-2.692-1.016-.668-.682-1.001-1.584-1.001-2.706 0-1.222.348-2.176 1.044-2.862.7-.687 1.643-1.03 2.826-1.03 1.137 0 2.022.334 2.657 1.001.634.668.952 1.594.952 2.777 0 1.16-.344 2.091-1.03 2.792-.682.696-1.601 1.044-2.756 1.044zm.078-6.3c-.644 0-1.153.225-1.527.674-.374.45-.561 1.071-.561 1.861 0 .763.189 1.364.568 1.804.379.436.886.654 1.52.654.649 0 1.146-.216 1.492-.647.35-.43.525-1.044.525-1.839 0-.8-.175-1.418-.525-1.854-.346-.435-.843-.653-1.492-.653zm9.61.426c-.199-.156-.486-.234-.86-.234-.487 0-.895.22-1.221.66-.327.44-.49 1.039-.49 1.797v3.48h-1.648v-7.273h1.648v1.499h.028c.161-.512.407-.909.739-1.193a1.68 1.68 0 011.122-.434c.298 0 .525.045.682.135v1.563zm7.763 5.703h-2.088l-2.827-3.494h-.029v3.494h-1.654v-10.767h1.654v6.825h.029l2.67-3.331h1.982l-3.004 3.509 3.267 3.764z" fill="#5B5863"/><path fill-rule="evenodd" clip-rule="evenodd" d="M51.719 299h21.01v1.244H51.72V299zm0 2.487h21.01v1.244H51.72v-1.244zm0 2.485h21.01v1.247H51.72v-1.247zm0 2.487h21.01v1.244H51.72v-1.244zm0 2.488h21.01v1.243H51.72v-1.243zm0 2.484h21.01v1.244H51.72v-1.244zm0 2.487h21.01v1.244H51.72v-1.244z" fill="#BD3D44"/><path fill-rule="evenodd" clip-rule="evenodd" d="M51.719 300.616h21.01v1.176H51.72v-1.176zm0 2.352h21.01v1.173H51.72v-1.173zm0 2.349h21.01v1.176H51.72v-1.176zm0 2.352h21.01v1.176H51.72v-1.176zm0 2.352h21.01v1.176H51.72v-1.176zm0 2.349h21.01v1.176H51.72v-1.176z" fill="#fff"/><path fill-rule="evenodd" clip-rule="evenodd" d="M51.719 299h11.636v8.503H51.719V299z" fill="#192F5D"/><path fill-rule="evenodd" clip-rule="evenodd" d="M52.688 299.364l.107.336h.341l-.275.207.105.339-.278-.21-.275.207.104-.336-.278-.207h.347l.102-.336zm1.94 0l.105.336h.344l-.278.207.105.339-.275-.21-.278.207.104-.336-.275-.207h.341l.108-.336zm1.939 0l.107.336h.338l-.275.207.105.339-.278-.21-.276.207.105-.336-.278-.207h.344l.108-.336zm1.94 0l.105.336h.344l-.278.207.108.339-.279-.21-.278.207.108-.336-.278-.207h.34l.108-.336zm1.938 0l.108.336h.34l-.274.207.104.339-.278-.21-.275.207.105-.336L60 299.7h.34l.105-.336zm1.941 0l.105.336h.344l-.278.207.107.339-.278-.21-.278.207.108-.336-.279-.207h.345l.104-.336zm-8.726.851l.104.336h.344l-.278.207.102.336-.27-.206-.277.206.098-.336-.269-.207h.341l.105-.336zm1.938 0l.107.336h.341l-.278.207.108.336-.278-.206-.279.206.108-.336-.278-.207h.344l.105-.336zm1.94 0l.105.336h.344l-.278.207.105.336-.276-.206-.278.206.105-.336-.275-.207h.34l.108-.336zm1.938 0l.108.336h.34l-.277.207.108.336-.279-.206-.275.206.105-.336-.278-.207h.347l.101-.336zm1.941 0l.105.336h.344l-.278.207.104.336-.275-.206-.278.206.105-.336-.275-.207h.34l.108-.336zm-8.73.848l.108.343h.341l-.275.206.105.336-.278-.209-.275.209.104-.339-.278-.206h.347l.102-.34zm1.942 0l.104.34h.344l-.278.206.105.336-.275-.209-.278.209.104-.339-.275-.207h.341l.108-.336zm1.938 0l.107.34h.338l-.275.206.105.336-.278-.209-.276.209.105-.339-.278-.207h.344l.108-.336zm1.94 0l.105.34h.344l-.278.206.108.336-.279-.209-.278.209.108-.339-.278-.207h.34l.108-.336zm1.938 0l.108.34h.34l-.274.206.104.336-.278-.209-.275.209.105-.339-.275-.207h.34l.105-.336zm1.941 0l.105.34h.344l-.278.206.107.336-.278-.209-.278.209.108-.339-.279-.207h.345l.104-.336zm-8.726.851l.104.337h.344l-.278.206.105.339-.275-.209-.278.206.104-.336-.275-.206h.341l.108-.337zm1.938 0l.107.337h.341l-.278.206.108.339-.278-.209-.279.206.108-.336-.278-.206h.344l.105-.337zm1.94 0l.105.337h.344l-.278.206.105.339-.276-.209-.278.206.105-.336-.275-.206h.34l.108-.337zm1.938 0l.108.337h.34l-.274.206.105.339-.279-.209-.275.206.105-.336-.278-.206h.347l.101-.337zm1.941 0l.105.337h.344l-.278.206.104.339-.275-.209-.278.206.105-.336-.275-.206h.34l.108-.337zm-8.73.852l.108.336h.341l-.275.206.105.34-.278-.21-.275.207.104-.337-.278-.206h.347l.102-.336zm1.942 0l.104.336h.344l-.278.206.105.337-.275-.207-.278.207.104-.337-.275-.206h.341l.108-.336zm1.938 0l.107.336h.338l-.275.206.105.34-.278-.21-.276.207.105-.337-.278-.206h.344l.108-.336zm1.94 0l.105.336h.344l-.278.206.108.34-.279-.21-.278.207.108-.337-.278-.206h.34l.108-.336zm1.938 0l.108.336h.34l-.274.206.104.34-.278-.21-.275.207.105-.337-.275-.206h.34l.105-.336zm1.941 0l.105.336h.344l-.278.206.107.34-.278-.21-.278.207.108-.337-.279-.206h.345l.104-.336zm-8.726.851l.104.336h.344l-.278.207.105.336-.275-.21-.278.21.104-.339-.275-.207h.341l.108-.333zm1.938 0l.107.336h.341l-.278.207.108.336-.278-.21-.279.21.108-.339-.278-.207h.344l.105-.333zm1.94 0l.105.336h.344l-.278.207.105.336-.276-.21-.278.21.105-.339-.275-.207h.34l.108-.333zm1.938 0l.108.336h.34l-.274.207.105.336-.279-.21-.275.21.105-.339-.278-.207h.347l.101-.333zm1.941 0l.105.336h.344l-.278.207.104.336-.275-.21-.278.21.105-.339-.275-.207h.34l.108-.333zm-8.73.848l.108.339h.341l-.275.207.105.333-.278-.207-.275.207.104-.336-.278-.207h.347l.102-.336zm1.942 0l.104.339h.344l-.278.207.108.333-.278-.207-.278.207.107-.336-.278-.207h.341l.108-.336zm1.938 0l.107.339h.338l-.275.207.105.333-.278-.207-.276.207.105-.336-.278-.207h.344l.108-.336zm1.94 0l.105.339h.344l-.278.207.108.333-.279-.207-.278.207.108-.336-.278-.207h.34l.108-.336zm1.938 0l.108.339h.34l-.274.207.104.333-.278-.207-.275.207.105-.336-.275-.207h.34l.105-.336zm1.941 0l.105.339h.344l-.278.207.107.333-.278-.207-.278.207.108-.336-.279-.207h.345l.104-.336zm-8.726.851l.104.336h.344l-.278.207.105.339-.275-.21-.278.207.104-.336-.275-.207h.341l.108-.336zm1.938 0l.107.336h.341l-.278.207.108.339-.278-.21-.279.207.108-.336-.278-.207h.344l.105-.336zm1.94 0l.105.336h.344l-.278.207.105.339-.276-.21-.278.207.105-.336-.275-.207h.34l.108-.336zm1.938 0l.108.336h.34l-.274.207.105.339-.279-.21-.275.207.105-.336-.278-.207h.347l.101-.336zm1.941 0l.105.336h.344l-.278.207.104.339-.275-.21-.278.207.105-.336-.275-.207h.34l.108-.336zm-8.73.851l.108.336h.341l-.275.207.105.336-.278-.206-.275.206.104-.339-.278-.207h.347l.102-.333zm1.942 0l.104.336h.344l-.278.207.108.336-.278-.206-.278.206.107-.339-.278-.207h.341l.108-.333zm1.938 0l.107.336h.338l-.269.207.105.336-.279-.206-.275.206.105-.339-.278-.207h.344l.102-.333zm1.94 0l.105.336h.344l-.278.207.108.336-.279-.206-.278.206.108-.339-.278-.207h.34l.108-.333zm1.938 0l.108.336h.34l-.274.207.104.336-.278-.206-.275.206.105-.339L60 306.5h.34l.105-.333zm1.941 0l.105.336h.344l-.278.207.107.336-.278-.206-.278.206.108-.339-.279-.207h.345l.104-.333z" fill="#fff"/><path d="M182.287 381.081l-2.934 7.922h-1.022l-2.872-7.922h1.033l2.193 6.281c.07.203.123.436.16.702h.022c.03-.221.09-.459.183-.713l2.237-6.27h1zm2.066 4.928v2.994h-.928v-7.922h2.176c.847 0 1.503.206 1.967.619.468.412.701.994.701 1.745 0 .752-.259 1.367-.779 1.845-.515.479-1.213.719-2.093.719h-1.044zm0-4.088v3.248h.972c.641 0 1.129-.146 1.464-.437.339-.294.508-.708.508-1.242 0-1.046-.619-1.569-1.856-1.569h-1.088zm11.799 7.082h-1.138l-4.076-6.314a2.661 2.661 0 01-.255-.498h-.033c.03.17.044.533.044 1.089v5.723h-.928v-7.922h1.205l3.966 6.215c.166.258.273.434.32.53h.023c-.037-.228-.056-.617-.056-1.166v-5.579h.928v7.922zm6.11 0h-.928v-7.922h.928v7.922zm3.016-2.994v2.994h-.928v-7.922h2.177c.847 0 1.502.206 1.966.619.468.412.702.994.702 1.745 0 .752-.26 1.367-.779 1.845-.516.479-1.213.719-2.094.719h-1.044zm0-4.088v3.248h.973c.64 0 1.128-.146 1.463-.437.339-.294.509-.708.509-1.242 0-1.046-.619-1.569-1.856-1.569h-1.089zm5.607 2.53a.593.593 0 01-.436-.183.603.603 0 01-.177-.436.603.603 0 01.613-.608.61.61 0 01.442.177.577.577 0 01.183.431.593.593 0 01-.183.436.6.6 0 01-.442.183zm0 4.673a.596.596 0 01-.436-.182.605.605 0 01-.177-.436c0-.17.059-.315.177-.437a.587.587 0 01.436-.188c.173 0 .321.063.442.188a.595.595 0 01.183.437.595.595 0 01-.183.436.603.603 0 01-.442.182z" fill="#AFADB2"/><path d="M178.757 397.874v8.099h-1.282v-6.53a4.152 4.152 0 01-.751.426 6.36 6.36 0 01-.912.304v-1.094c.214-.07.42-.144.619-.221a7.681 7.681 0 001.171-.58c.199-.118.403-.253.613-.404h.542zm1.657 5.889c0-.228.028-.449.083-.663.059-.213.145-.41.259-.591a2.103 2.103 0 011.039-.834 2.358 2.358 0 01-.818-.735 1.76 1.76 0 01-.303-1c0-.29.059-.559.176-.806.122-.247.288-.46.498-.641.213-.18.464-.32.751-.42.287-.103.6-.154.939-.154.342 0 .657.051.945.154.291.103.541.245.751.426.214.18.379.394.497.64.118.247.177.514.177.801 0 .365-.101.698-.304 1a2.376 2.376 0 01-.807.735c.229.088.43.204.603.348a2.032 2.032 0 01.707 1.072c.059.213.088.436.088.668 0 .346-.064.663-.193.95a2.17 2.17 0 01-.542.741c-.232.202-.51.361-.834.475a3.208 3.208 0 01-1.071.171c-.387 0-.743-.057-1.067-.171a2.622 2.622 0 01-.834-.475 2.237 2.237 0 01-.547-.741 2.292 2.292 0 01-.193-.95zm1.248-.11c0 .224.034.427.1.607a1.214 1.214 0 00.718.746c.173.066.365.1.575.1.202 0 .388-.034.557-.1.17-.07.315-.167.437-.293.125-.129.223-.281.293-.458.07-.181.105-.381.105-.602 0-.203-.033-.392-.1-.569a1.334 1.334 0 00-.723-.785 1.365 1.365 0 00-.569-.116c-.199 0-.385.037-.558.111-.17.07-.317.171-.442.304a1.401 1.401 0 00-.288.464c-.07.18-.105.377-.105.591zm.271-3.58a1.21 1.21 0 00.326.834 1.088 1.088 0 001.569-.005 1.2 1.2 0 00.243-.37c.059-.144.088-.297.088-.459 0-.166-.029-.32-.088-.464a1.074 1.074 0 00-.586-.613 1.096 1.096 0 00-.441-.089 1.08 1.08 0 00-.453.094 1.033 1.033 0 00-.354.249 1.214 1.214 0 00-.304.823zm5.121 5.718v-1.232c.519.35 1.046.525 1.58.525.538 0 .97-.137 1.298-.409.328-.276.492-.643.492-1.1 0-.449-.168-.799-.503-1.049-.331-.251-.808-.376-1.431-.376-.213 0-.646.022-1.298.066l.282-4.165h3.9v1.094h-2.834l-.133 1.983c.255-.015.485-.022.691-.022.84 0 1.488.216 1.945.646.46.431.69 1.021.69 1.768 0 .785-.263 1.414-.79 1.889-.523.472-1.243.708-2.16.708-.773 0-1.35-.109-1.729-.326zm6.795.303a.798.798 0 01-.564-.215.702.702 0 01-.232-.525c0-.206.078-.383.232-.53a.79.79 0 01.564-.221c.224 0 .414.074.569.221a.699.699 0 01.237.53.693.693 0 01-.237.525.805.805 0 01-.569.215zm6.877-.121h-4.971v-.613c0-.251.035-.485.105-.702.07-.221.163-.427.281-.619a3.25 3.25 0 01.415-.546c.158-.174.327-.339.508-.498.18-.162.364-.316.552-.464a38.4 38.4 0 00.553-.453c.169-.143.324-.283.464-.419.14-.14.259-.284.359-.431a1.696 1.696 0 00.315-1c0-.21-.033-.392-.1-.547a1.092 1.092 0 00-.679-.63 1.58 1.58 0 00-.52-.083c-.324 0-.653.076-.988.227a3.38 3.38 0 00-.967.679v-1.232c.162-.121.326-.226.492-.315a3.03 3.03 0 01.513-.226c.177-.063.363-.109.558-.138.195-.03.404-.044.625-.044.357 0 .681.048.972.143.291.092.539.23.746.415.206.18.364.407.475.679.114.273.171.586.171.939 0 .321-.041.61-.122.867a2.648 2.648 0 01-.337.713 3.591 3.591 0 01-.524.63c-.207.199-.437.403-.691.613-.214.173-.427.343-.641.508a7.86 7.86 0 00-.569.481 2.695 2.695 0 00-.414.469.844.844 0 00-.155.47v.028h3.574v1.099zm4.171-8.099v8.099h-1.281v-6.53a4.16 4.16 0 01-.752.426 6.386 6.386 0 01-.911.304v-1.094c.213-.07.42-.144.618-.221a7.894 7.894 0 001.172-.58c.198-.118.403-.253.613-.404h.541zm6.27.177v5.116h1.177v1.066h-1.177v1.74h-1.243v-1.74h-3.585v-1.077a30.05 30.05 0 001.978-2.486c.316-.446.609-.892.878-1.337.269-.446.495-.873.679-1.282h1.293zm-1.243 5.116v-3.326a17.882 17.882 0 01-1.193 1.889c-.39.538-.757 1.017-1.099 1.437h2.292zm4.011 2.927a.798.798 0 01-.564-.215.702.702 0 01-.232-.525c0-.206.078-.383.232-.53a.79.79 0 01.564-.221c.224 0 .414.074.569.221a.699.699 0 01.237.53.693.693 0 01-.237.525.805.805 0 01-.569.215zm2.044-.414v-1.204a2.733 2.733 0 001.745.613c.527 0 .947-.12 1.26-.359.317-.239.475-.564.475-.972 0-.899-.687-1.348-2.061-1.348h-.613v-1.028h.586c1.219 0 1.828-.423 1.828-1.27 0-.781-.475-1.171-1.425-1.171-.53 0-1.029.189-1.497.569v-1.138c.538-.302 1.173-.453 1.906-.453.703 0 1.267.176 1.69.53.424.354.635.807.635 1.359 0 1.042-.53 1.712-1.59 2.011v.022c.57.055 1.021.256 1.353.602.331.342.497.771.497 1.287 0 .711-.267 1.285-.801 1.724-.534.434-1.237.651-2.11.651-.785 0-1.411-.141-1.878-.425zm11.286-6.988a50.65 50.65 0 00-.94 1.806 24.59 24.59 0 00-.801 1.79 19.806 19.806 0 00-.624 1.818 14.25 14.25 0 00-.409 1.867h-1.342c.088-.567.214-1.133.376-1.696.165-.567.359-1.132.58-1.696.221-.567.467-1.136.74-1.707a51.28 51.28 0 01.878-1.729h-3.751v-1.094h5.293v.641zm6.17 2.889c0 .792-.087 1.473-.26 2.044-.169.571-.405 1.041-.707 1.409a2.77 2.77 0 01-1.055.817c-.401.173-.834.26-1.298.26a3.74 3.74 0 01-.458-.028 5.178 5.178 0 01-.813-.165 3.184 3.184 0 01-.276-.105v-1.155c.078.048.173.098.288.149.114.048.237.092.37.133a2.9 2.9 0 00.845.127c.313 0 .596-.061.851-.182a1.76 1.76 0 00.657-.542c.18-.239.318-.536.414-.889.1-.357.149-.77.149-1.238h-.022a1.438 1.438 0 01-.265.337c-.107.104-.23.196-.37.277a2.114 2.114 0 01-1.016.259c-.332 0-.641-.057-.929-.171a2.238 2.238 0 01-.74-.497 2.323 2.323 0 01-.497-.779 2.818 2.818 0 01-.177-1.022 2.9 2.9 0 01.205-1.116 2.457 2.457 0 011.408-1.392 2.827 2.827 0 011.055-.193c.358 0 .695.068 1.011.204.321.133.601.346.84.641.243.291.435.668.575 1.132.143.464.215 1.026.215 1.685zm-1.337-.845c0-.265-.035-.506-.105-.724a1.684 1.684 0 00-.282-.558 1.285 1.285 0 00-.436-.359 1.194 1.194 0 00-.547-.127c-.177 0-.346.037-.508.111-.158.07-.298.171-.42.304a1.493 1.493 0 00-.282.48c-.07.188-.105.396-.105.624 0 .251.034.472.1.663.07.192.166.354.287.486.122.129.267.229.437.299.173.066.362.099.569.099a1.282 1.282 0 00.917-.375 1.299 1.299 0 00.375-.923zm3.237 5.358a.795.795 0 01-.563-.215.699.699 0 01-.232-.525c0-.206.077-.383.232-.53a.788.788 0 01.563-.221c.225 0 .415.074.569.221a.697.697 0 01.238.53.69.69 0 01-.238.525.801.801 0 01-.569.215zm7.248-2.668c0 .398-.066.761-.199 1.089a2.547 2.547 0 01-.541.85c-.232.236-.508.42-.829.553a2.713 2.713 0 01-1.033.193c-.398 0-.764-.077-1.099-.232a2.377 2.377 0 01-.862-.691 3.361 3.361 0 01-.558-1.138 5.72 5.72 0 01-.199-1.585c0-.733.087-1.383.26-1.95.177-.567.418-1.042.724-1.425a3.076 3.076 0 011.077-.873 3.034 3.034 0 011.337-.298c.298 0 .569.02.812.06.246.041.443.096.591.166v1.155a3.785 3.785 0 00-.602-.243 2.46 2.46 0 00-.735-.1c-.309 0-.595.063-.856.188a1.909 1.909 0 00-.68.552c-.188.24-.337.538-.447.895a4.382 4.382 0 00-.166 1.227h.033c.17-.262.398-.468.685-.619a2.19 2.19 0 011.022-.226c.346 0 .658.057.934.171.28.11.517.272.712.486.199.21.352.468.459.773.107.302.16.643.16 1.022zm-1.293.105c0-.228-.027-.436-.082-.624a1.265 1.265 0 00-.244-.481 1.044 1.044 0 00-.408-.314 1.375 1.375 0 00-.575-.111c-.221 0-.416.041-.585.122a1.26 1.26 0 00-.42.309 1.337 1.337 0 00-.26.442 1.604 1.604 0 00-.083.508c0 .188.026.381.078.58.055.195.138.374.248.536.111.162.251.296.42.403.173.103.378.155.613.155.21 0 .396-.039.558-.116.162-.077.297-.184.403-.321a1.37 1.37 0 00.249-.48c.059-.188.088-.391.088-.608zm6.845-5.48v5.116h1.177v1.066h-1.177v1.74h-1.243v-1.74h-3.585v-1.077a30.05 30.05 0 001.977-2.486c.317-.446.61-.892.879-1.337.269-.446.495-.873.679-1.282h1.293zm-1.243 5.116v-3.326a17.882 17.882 0 01-1.193 1.889 32.402 32.402 0 01-1.1 1.437h2.293z" fill="#5B5863"/><path d="M34.29 389.003h-.927v-7.922h.928v7.922zm3.017-2.994v2.994h-.928v-7.922h2.177c.847 0 1.502.206 1.966.619.468.412.702.994.702 1.746 0 .751-.26 1.366-.78 1.845-.515.478-1.213.718-2.093.718h-1.044zm0-4.088v3.248h.972c.641 0 1.13-.145 1.464-.436.339-.295.508-.709.508-1.243 0-1.046-.618-1.569-1.856-1.569h-1.088zm5.607 2.53a.597.597 0 01-.436-.182.606.606 0 01-.177-.437c0-.169.059-.313.177-.431a.608.608 0 01.436-.176.614.614 0 01.624.607c0 .17-.06.315-.182.437a.603.603 0 01-.442.182zm0 4.673a.593.593 0 01-.436-.182.603.603 0 01-.177-.436c0-.17.059-.315.177-.437a.587.587 0 01.436-.187c.173 0 .32.062.442.187a.597.597 0 01.182.437c0 .169-.06.315-.182.436a.6.6 0 01-.442.182z" fill="#AFADB2"/><path d="M35.722 397.874v8.099H34.44v-6.53a4.162 4.162 0 01-.751.426 6.38 6.38 0 01-.912.304v-1.094c.214-.07.42-.144.619-.221a7.69 7.69 0 001.171-.58c.199-.118.403-.253.613-.404h.542zm6.938 3.707c0 .792-.087 1.473-.26 2.044-.17.571-.405 1.041-.707 1.409a2.77 2.77 0 01-1.055.817c-.401.173-.834.26-1.298.26-.151 0-.304-.009-.459-.028a5.163 5.163 0 01-.812-.165 3.08 3.08 0 01-.276-.105v-1.155c.078.048.173.098.287.149.115.048.238.092.37.133a2.9 2.9 0 00.846.127c.313 0 .596-.061.85-.182.258-.122.477-.302.658-.542.18-.239.318-.536.414-.889.1-.357.15-.77.15-1.238h-.023a1.46 1.46 0 01-.265.337c-.107.104-.23.196-.37.277a2.126 2.126 0 01-1.017.259c-.331 0-.64-.057-.928-.171a2.231 2.231 0 01-.74-.497 2.318 2.318 0 01-.497-.779 2.82 2.82 0 01-.177-1.022 2.9 2.9 0 01.205-1.116 2.457 2.457 0 011.408-1.392 2.827 2.827 0 011.055-.193c.358 0 .695.068 1.011.204.32.133.6.346.84.641.243.291.435.668.575 1.132.143.464.215 1.026.215 1.685zm-1.337-.845c0-.265-.035-.506-.105-.724a1.697 1.697 0 00-.282-.558 1.287 1.287 0 00-.436-.359 1.193 1.193 0 00-.547-.127 1.21 1.21 0 00-.508.111c-.159.07-.298.171-.42.304a1.496 1.496 0 00-.282.48c-.07.188-.105.396-.105.624 0 .251.034.472.1.663.07.192.166.354.287.486.122.129.267.229.437.299.172.066.362.099.568.099a1.282 1.282 0 00.917-.375 1.302 1.302 0 00.376-.923zm7.386 5.237h-4.972v-.613c0-.251.035-.485.105-.702.07-.221.164-.427.282-.619.118-.195.256-.377.414-.546.159-.174.328-.339.508-.498.18-.162.365-.316.553-.464.188-.151.372-.302.552-.453.17-.143.324-.283.464-.419.14-.14.26-.284.36-.431.099-.148.176-.302.231-.464a1.69 1.69 0 00.083-.536c0-.21-.033-.392-.1-.547a1 1 0 00-.27-.392 1.082 1.082 0 00-.409-.238 1.573 1.573 0 00-.519-.083c-.324 0-.654.076-.989.227a3.381 3.381 0 00-.967.679v-1.232a3.93 3.93 0 01.492-.315 3.04 3.04 0 01.514-.226c.177-.063.363-.109.558-.138a4.11 4.11 0 01.624-.044c.357 0 .681.048.972.143.291.092.54.23.746.415.206.18.365.407.475.679.114.273.171.586.171.939 0 .321-.04.61-.121.867a2.71 2.71 0 01-.337.713 3.614 3.614 0 01-.525.63c-.206.199-.436.403-.69.613-.214.173-.428.343-.641.508-.21.162-.4.322-.57.481a2.695 2.695 0 00-.414.469.842.842 0 00-.154.47v.028h3.574v1.099zm2.138.121a.796.796 0 01-.564-.215.7.7 0 01-.232-.525c0-.206.078-.383.232-.53a.788.788 0 01.564-.221c.224 0 .414.074.569.221a.698.698 0 01.237.53.693.693 0 01-.237.525.803.803 0 01-.57.215zm4.762-8.22v8.099h-1.282v-6.53a4.158 4.158 0 01-.751.426 6.377 6.377 0 01-.912.304v-1.094c.214-.07.42-.144.619-.221a7.692 7.692 0 001.171-.58c.199-.118.403-.253.613-.404h.542zm2.01 7.917v-1.232c.52.35 1.046.525 1.58.525.538 0 .97-.137 1.299-.409.327-.276.491-.643.491-1.1 0-.449-.167-.799-.502-1.049-.332-.251-.809-.376-1.431-.376a24.3 24.3 0 00-1.298.066l.281-4.165h3.9v1.094h-2.834l-.132 1.983c.254-.015.484-.022.69-.022.84 0 1.488.216 1.945.646.46.431.69 1.021.69 1.768 0 .785-.263 1.414-.79 1.889-.523.472-1.242.708-2.16.708-.773 0-1.35-.109-1.729-.326zm11.314-2.365c0 .398-.066.761-.199 1.089-.129.327-.31.611-.541.85a2.48 2.48 0 01-.829.553 2.713 2.713 0 01-1.033.193c-.398 0-.764-.077-1.1-.232a2.381 2.381 0 01-.861-.691 3.347 3.347 0 01-.558-1.138c-.133-.456-.199-.985-.199-1.585 0-.733.087-1.383.26-1.95.177-.567.418-1.042.724-1.425a3.086 3.086 0 011.077-.873 3.035 3.035 0 011.336-.298c.299 0 .57.02.813.06.246.041.443.096.59.166v1.155a3.76 3.76 0 00-.602-.243 2.456 2.456 0 00-.734-.1c-.31 0-.595.063-.856.188a1.907 1.907 0 00-.68.552c-.188.24-.337.538-.447.895a4.379 4.379 0 00-.166 1.227h.033a1.79 1.79 0 01.685-.619 2.19 2.19 0 011.022-.226c.346 0 .657.057.934.171.28.11.517.272.712.486.2.21.352.468.459.773.106.302.16.643.16 1.022zm-1.293.105c0-.228-.027-.436-.083-.624a1.264 1.264 0 00-.243-.481 1.048 1.048 0 00-.408-.314 1.373 1.373 0 00-.575-.111c-.22 0-.416.041-.585.122a1.26 1.26 0 00-.42.309 1.337 1.337 0 00-.26.442 1.598 1.598 0 00-.083.508c0 .188.026.381.078.58.055.195.138.374.248.536.11.162.25.296.42.403.173.103.377.155.613.155.21 0 .396-.039.558-.116.162-.077.296-.184.403-.321.11-.136.194-.296.249-.48.059-.188.088-.391.088-.608zm3.094 2.563a.796.796 0 01-.564-.215.7.7 0 01-.232-.525c0-.206.078-.383.232-.53a.788.788 0 01.564-.221c.225 0 .414.074.569.221a.698.698 0 01.237.53.693.693 0 01-.237.525.803.803 0 01-.57.215zm6.48-8.043v5.116h1.176v1.066h-1.176v1.74H75.97v-1.74h-3.586v-1.077a29.789 29.789 0 001.978-2.486c.317-.446.61-.892.879-1.337.268-.446.495-.873.679-1.282h1.293zm-1.243 5.116v-3.326a17.93 17.93 0 01-1.194 1.889c-.39.538-.756 1.017-1.099 1.437h2.293zm3.502 2.624v-1.232c.52.35 1.046.525 1.58.525.538 0 .97-.137 1.298-.409.328-.276.492-.643.492-1.1 0-.449-.168-.799-.503-1.049-.331-.251-.808-.376-1.43-.376-.214 0-.647.022-1.299.066l.282-4.165h3.9v1.094h-2.834l-.133 1.983c.255-.015.485-.022.691-.022.84 0 1.488.216 1.945.646.46.431.69 1.021.69 1.768 0 .785-.263 1.414-.79 1.889-.523.472-1.243.708-2.16.708-.773 0-1.35-.109-1.729-.326zm11.11-7.099a50.65 50.65 0 00-.94 1.806c-.294.593-.561 1.19-.8 1.79a19.63 19.63 0 00-.625 1.818 14.25 14.25 0 00-.409 1.867h-1.342c.088-.567.213-1.133.375-1.696.166-.567.36-1.132.58-1.696.221-.567.468-1.136.74-1.707.277-.571.57-1.147.879-1.729H85.29v-1.094h5.292v.641zm1.75 7.402a.796.796 0 01-.563-.215.7.7 0 01-.232-.525c0-.206.077-.383.232-.53a.788.788 0 01.563-.221c.225 0 .415.074.57.221a.698.698 0 01.237.53c0 .203-.08.378-.238.525a.803.803 0 01-.569.215zm6.878-.121h-4.972v-.613c0-.251.035-.485.105-.702.07-.221.164-.427.282-.619.118-.195.256-.377.414-.546.159-.174.328-.339.508-.498.18-.162.365-.316.553-.464.188-.151.372-.302.552-.453.17-.143.324-.283.464-.419.14-.14.26-.284.36-.431.099-.148.176-.302.231-.464a1.69 1.69 0 00.083-.536c0-.21-.033-.392-.1-.547a1 1 0 00-.27-.392 1.081 1.081 0 00-.409-.238 1.573 1.573 0 00-.519-.083c-.324 0-.654.076-.989.227a3.383 3.383 0 00-.967.679v-1.232a3.93 3.93 0 01.492-.315 3.04 3.04 0 01.514-.226 2.95 2.95 0 01.558-.138 4.11 4.11 0 01.624-.044c.357 0 .681.048.972.143.291.092.54.23.746.415.206.18.365.407.475.679.114.273.171.586.171.939 0 .321-.04.61-.121.867a2.71 2.71 0 01-.337.713 3.61 3.61 0 01-.525.63c-.206.199-.436.403-.69.613-.214.173-.428.343-.641.508-.21.162-.4.322-.57.481a2.646 2.646 0 00-.413.469.842.842 0 00-.155.47v.028h3.574v1.099zm4.171-8.099v8.099H102.1v-6.53a4.152 4.152 0 01-.751.426 6.36 6.36 0 01-.912.304v-1.094c.214-.07.42-.144.619-.221a7.681 7.681 0 001.171-.58c.199-.118.403-.253.613-.404h.542zm-50.374 51.737h-.842v-6.356a2.04 2.04 0 01-.287.226 5.553 5.553 0 01-.913.477 3.452 3.452 0 01-.502.169v-.851c.184-.052.38-.12.584-.205a7.745 7.745 0 001.18-.631 4.78 4.78 0 00.462-.349h.318v7.52zm5.91-5.427c0-.226-.037-.423-.109-.59a1.106 1.106 0 00-.287-.416 1.136 1.136 0 00-.426-.251 1.669 1.669 0 00-.533-.082c-.164 0-.325.022-.482.067a2.42 2.42 0 00-.462.184c-.147.079-.29.173-.43.282-.138.11-.266.231-.386.365v-.903c.236-.229.5-.404.79-.523.294-.124.652-.185 1.072-.185.301 0 .58.044.837.133.256.086.478.212.666.38.188.167.336.374.442.621.109.246.164.528.164.846 0 .291-.035.554-.103.79a2.35 2.35 0 01-.303.667 3.171 3.171 0 01-.507.6 7.385 7.385 0 01-.724.585c-.345.246-.63.456-.856.631-.223.174-.4.338-.534.492-.13.151-.222.303-.277.457-.051.15-.077.324-.077.523h3.663v.754h-4.54v-.364c0-.315.034-.592.103-.831.068-.24.181-.467.338-.683a3.87 3.87 0 01.616-.646c.256-.215.57-.458.939-.728.266-.192.489-.375.666-.549a2.79 2.79 0 00.436-.523 1.81 1.81 0 00.231-.529c.048-.181.072-.373.072-.574zm6.673 3.18c0 .359-.062.684-.185.975-.123.29-.3.54-.528.749-.226.208-.5.369-.821.482a3.216 3.216 0 01-1.072.169c-.684 0-1.192-.103-1.524-.308v-.892c.5.321 1.01.482 1.534.482.267 0 .506-.039.718-.118a1.61 1.61 0 00.55-.328c.15-.141.264-.31.343-.508.082-.199.123-.416.123-.652 0-.478-.16-.853-.482-1.123-.322-.274-.788-.41-1.4-.41a9.02 9.02 0 00-.641.02c-.11.004-.218.009-.324.016a4.862 4.862 0 00-.282.025l.251-3.688h3.401v.759H62.58l-.15 2.16c.11-.007.227-.012.35-.016.123-.006.232-.01.328-.01.39 0 .739.051 1.046.154.308.103.568.25.78.441.216.188.378.421.487.698.113.273.17.581.17.923zm12.039 2.247h-.857v-4.935c0-.39.024-.867.072-1.431h-.02a4.578 4.578 0 01-.221.713l-2.514 5.653h-.42l-2.509-5.612a4.386 4.386 0 01-.22-.754h-.02c.027.294.04.775.04 1.441v4.925h-.83v-7.356h1.138l2.257 5.13c.175.393.287.687.339.882h.03c.148-.404.266-.705.354-.903l2.304-5.109h1.077v7.356zm1.939 0v-7.356h2.093c.636 0 1.14.156 1.513.467.373.311.559.716.559 1.216 0 .417-.113.779-.338 1.087a1.825 1.825 0 01-.934.657v.02c.496.058.892.246 1.19.564.297.315.446.725.446 1.231 0 .63-.225 1.139-.677 1.529-.451.39-1.02.585-1.708.585h-2.144zm.862-6.576v2.375h.882c.472 0 .843-.113 1.113-.339.27-.229.405-.55.405-.964 0-.715-.47-1.072-1.41-1.072h-.99zm0 3.149v2.647h1.17c.505 0 .897-.12 1.174-.359.28-.239.42-.568.42-.985 0-.868-.591-1.303-1.774-1.303h-.99z" fill="#5B5863"/><path d="M43.395 447.126l-1.131-1.131-3.475 3.475v-9.859h-1.616v9.859l-3.475-3.475-1.132 1.131 5.415 5.415 5.414-5.415z" fill="#AFADB2"/><path d="M148.931 449.611h-.842v-6.356c-.065.065-.16.14-.287.226a4.482 4.482 0 01-.421.246 5.479 5.479 0 01-.492.231 3.46 3.46 0 01-.503.169v-.851c.185-.052.38-.12.585-.205a7.792 7.792 0 001.18-.631c.178-.12.332-.236.462-.349h.318v7.52zm6.919-2.247c0 .359-.061.684-.184.975-.123.29-.299.54-.529.749a2.333 2.333 0 01-.82.482 3.219 3.219 0 01-1.072.169c-.684 0-1.192-.103-1.524-.308v-.892c.499.321 1.011.482 1.534.482.267 0 .506-.039.718-.118.215-.079.398-.188.549-.328a1.4 1.4 0 00.344-.508c.082-.199.123-.416.123-.652 0-.478-.161-.853-.483-1.123-.321-.274-.788-.41-1.4-.41a8.994 8.994 0 00-.641.02c-.11.004-.217.009-.323.016a4.784 4.784 0 00-.282.025l.251-3.688h3.401v.759h-2.673l-.148 2.16c.109-.007.225-.012.348-.016a6.99 6.99 0 01.329-.01c.39 0 .738.051 1.046.154.308.103.568.25.78.441.215.188.378.421.487.698.113.273.169.581.169.923zm12.04 2.247h-.857v-4.935c0-.39.024-.867.072-1.431h-.021a4.58 4.58 0 01-.22.713l-2.514 5.653h-.42l-2.509-5.612a4.35 4.35 0 01-.22-.754h-.021c.027.294.041.775.041 1.441v4.925h-.831v-7.356h1.139l2.257 5.13c.174.393.287.687.338.882h.031c.147-.404.265-.705.354-.903l2.303-5.109h1.078v7.356zm1.939 0v-7.356h2.092c.637 0 1.141.156 1.514.467.372.311.559.716.559 1.216 0 .417-.113.779-.339 1.087a1.824 1.824 0 01-.933.657v.02c.496.058.892.246 1.19.564.297.315.446.725.446 1.231 0 .63-.226 1.139-.677 1.529-.451.39-1.021.585-1.708.585h-2.144zm.861-6.576v2.375h.883c.472 0 .843-.113 1.113-.339.27-.229.405-.55.405-.964 0-.715-.47-1.072-1.411-1.072h-.99zm0 3.149v2.647h1.17c.506 0 .898-.12 1.175-.359.28-.239.42-.568.42-.985 0-.868-.591-1.303-1.775-1.303h-.99z" fill="#5B5863"/><path d="M139.318 445.025l-1.131 1.131-3.475-3.474v9.859h-1.617v-9.859l-3.474 3.474-1.132-1.131 5.415-5.414 5.414 5.414z" fill="#AFADB2"/><path d="M246.856 445.902c0 .616-.056 1.161-.169 1.636a3.75 3.75 0 01-.482 1.206 2.174 2.174 0 01-.775.744 2.127 2.127 0 01-1.041.251 2.01 2.01 0 01-.99-.241 2.11 2.11 0 01-.729-.713 3.622 3.622 0 01-.451-1.144 7.101 7.101 0 01-.154-1.559c0-.643.053-1.211.159-1.703.11-.493.269-.905.477-1.237.209-.335.467-.586.775-.754a2.179 2.179 0 011.067-.256c1.542 0 2.313 1.257 2.313 3.77zm-.862.082c0-2.093-.497-3.139-1.492-3.139-1.05 0-1.575 1.065-1.575 3.196 0 1.987.515 2.98 1.544 2.98 1.016 0 1.523-1.012 1.523-3.037zm6.264 1.38c0 .359-.062.684-.185.975-.123.29-.299.54-.528.749-.226.208-.5.369-.821.482a3.219 3.219 0 01-1.072.169c-.684 0-1.192-.103-1.524-.308v-.892c.5.321 1.011.482 1.534.482.267 0 .506-.039.718-.118.216-.079.399-.188.549-.328.151-.141.265-.31.344-.508.082-.199.123-.416.123-.652 0-.478-.161-.853-.482-1.123-.322-.274-.789-.41-1.401-.41a9.098 9.098 0 00-.641.02c-.109.004-.217.009-.323.016a4.784 4.784 0 00-.282.025l.251-3.688h3.401v.759h-2.672l-.149 2.16c.109-.007.226-.012.349-.016.123-.006.232-.01.328-.01.39 0 .739.051 1.046.154.308.103.568.25.78.441.216.188.378.421.487.698.113.273.17.581.17.923zm1.836-1.98a.552.552 0 01-.405-.169.56.56 0 01-.164-.405.563.563 0 01.569-.565c.161 0 .298.055.41.164.113.11.17.243.17.401a.553.553 0 01-.17.405.555.555 0 01-.41.169zm0 4.34a.553.553 0 01-.405-.17.558.558 0 01-.164-.405.56.56 0 01.164-.405.546.546 0 01.405-.174c.161 0 .298.058.41.174.113.113.17.248.17.405a.552.552 0 01-.17.405.556.556 0 01-.41.17zm6.104-2.36c0 .359-.061.684-.184.975-.123.29-.3.54-.529.749a2.333 2.333 0 01-.82.482 3.22 3.22 0 01-1.073.169c-.683 0-1.191-.103-1.523-.308v-.892c.499.321 1.01.482 1.534.482.266 0 .506-.039.718-.118.215-.079.398-.188.549-.328.15-.141.265-.31.343-.508.082-.199.124-.416.124-.652 0-.478-.161-.853-.483-1.123-.321-.274-.788-.41-1.4-.41a8.994 8.994 0 00-.641.02c-.11.004-.217.009-.323.016a4.9 4.9 0 00-.283.025l.252-3.688h3.401v.759h-2.673l-.149 2.16c.11-.007.226-.012.349-.016a6.95 6.95 0 01.329-.01c.389 0 .738.051 1.046.154.308.103.568.25.78.441.215.188.378.421.487.698.113.273.169.581.169.923zm5.053-5.109v4.858h.944v.769h-.944v1.729h-.831v-1.729h-3.457v-.728c.321-.363.646-.749.974-1.16a26.1 26.1 0 00.939-1.256c.301-.424.578-.847.831-1.267.256-.424.472-.83.646-1.216h.898zm-3.339 4.858h2.508v-3.601a23.166 23.166 0 01-1.975 2.939l-.533.662z" fill="#5B5863"/><path d="M230.311 439.611c-3.556 0-6.465 2.909-6.465 6.465s2.909 6.465 6.465 6.465c3.555 0 6.464-2.909 6.464-6.465s-2.909-6.465-6.464-6.465zm0 11.314a4.863 4.863 0 01-4.849-4.849 4.863 4.863 0 014.849-4.849 4.863 4.863 0 014.848 4.849 4.863 4.863 0 01-4.848 4.849z" fill="#AFADB2"/><path d="M231.119 442.843h-1.616v4.041h4.04v-1.616h-2.424v-2.425z" fill="#AFADB2"/><path fill="#E8E6E0" d="M32.324 422.641h234.351v.808H32.324z"/><path fill="#62D5B4" d="M0 0h299v29.092H0z"/><path d="M42.88 9.826l-1.918 6.79h-.932l-1.397-4.962a3.103 3.103 0 01-.11-.691h-.018c-.019.233-.06.46-.123.682l-1.406 4.971h-.924l-1.989-6.79h.877l1.444 5.209c.06.217.098.445.113.682h.024a4.04 4.04 0 01.147-.682l1.5-5.209h.763l1.44 5.247c.05.18.088.391.113.634h.02c.012-.164.054-.382.127-.653l1.387-5.228h.862zm4.427 4.56h-3.423c.013.54.158.957.436 1.25.277.294.66.44 1.145.44.546 0 1.048-.18 1.506-.54v.73c-.426.31-.99.464-1.69.464-.685 0-1.223-.22-1.615-.658-.391-.442-.587-1.063-.587-1.861 0-.755.213-1.369.64-1.842.428-.477.96-.715 1.595-.715.634 0 1.125.205 1.472.616.348.41.521.98.521 1.709v.407zm-.795-.658c-.003-.448-.112-.797-.327-1.047-.211-.249-.507-.374-.885-.374-.366 0-.677.131-.933.393s-.414.605-.474 1.028h2.619zm7.126-3.902l-2.514 6.79h-.876l-2.462-6.79h.885l1.88 5.384c.06.173.106.374.137.601h.02c.024-.19.076-.393.155-.61l1.918-5.375h.857zm1.771 4.224v2.566h-.795v-6.79h1.865c.726 0 1.288.177 1.686.53.4.354.601.853.601 1.497 0 .644-.222 1.17-.668 1.581-.441.41-1.04.616-1.794.616h-.895zm0-3.504v2.784h.833c.55 0 .968-.125 1.255-.374.29-.252.436-.608.436-1.065 0-.897-.53-1.345-1.591-1.345h-.933zm10.114 6.07h-.975l-3.495-5.412a2.258 2.258 0 01-.218-.426h-.028c.025.145.038.456.038.933v4.905h-.796v-6.79h1.032l3.4 5.327c.142.221.234.373.275.455h.019c-.032-.196-.047-.53-.047-1V9.827h.795v6.79z" fill="#fff"/><path fill="#62D5B4" d="M253.746 0H299v29.092h-45.254z"/><path d="M273.279 17.64a.42.42 0 00.323.138.42.42 0 00.324-.138l2.447-2.448 2.447 2.448a.5.5 0 00.324.138.498.498 0 00.323-.138.446.446 0 000-.647l-2.447-2.447 2.447-2.447a.446.446 0 000-.647.447.447 0 00-.647 0l-2.447 2.447-2.447-2.447a.447.447 0 00-.647 0 .446.446 0 000 .646l2.448 2.448-2.448 2.447a.446.446 0 000 .647z" fill="#fff"/><path fill="#62D5B4" d="M208.492 0h45.254v29.092h-45.254z"/><g opacity=".3"><mask id="b" fill="#fff"><path d="M233.544 15.354h2.425V8.889h-6.465v2.425"/></mask><path d="M233.544 16.162h-.808v-1.616h.808v1.616zm2.425-.808h.808v.808h-.808v-.808zm0-6.465v-.808h.808v.808h-.808zm-6.465 0h-.808v-.808h.808v.808zm.808 2.425v.808h-1.616v-.809h1.616zm3.232 3.232h2.425v1.616h-2.425v-1.616zm1.617.808V8.889h1.616v6.465h-1.616zm.808-5.657h-6.465V8.081h6.465v1.616zm-5.657-.808v2.425h-1.616V8.889h1.616z" fill="#fff" mask="url(#b)"/><path d="M227.483 11.717v5.657h5.657v-5.656h-5.657z" stroke="#fff" stroke-width=".808" stroke-miterlimit="10" stroke-linecap="square"/></g><path fill="#62D5B4" d="M163.238 0h45.254v29.092h-45.254z"/><path d="M183.037 14.546h5.657c.242 0 .404-.162.404-.404 0-.243-.162-.404-.404-.404h-5.657c-.243 0-.404.161-.404.404 0 .242.161.404.404.404z" fill="#fff"/><rect x="12.93" y="6.465" width="16.162" height="16.162" rx="8.081" fill="#FD3E72"/><mask id="c" maskUnits="userSpaceOnUse" x="12" y="6" width="18" height="17"><rect x="12.93" y="6.465" width="16.162" height="16.162" rx="8.081" fill="#FD3E72"/></mask><g mask="url(#c)"><path d="M30.102 19.496l-5.05-9.799-1.078 7.526-7.003.555 5.69 9.9 7.441-8.182z" fill="url(#paint0_linear)" fill-opacity=".24"/></g><path d="M25.051 9.495c-.79 0-1.425.668-1.425 1.496v4.33c0 .182-.01.363-.03.554-.02.186-.07.357-.148.512a1.007 1.007 0 01-.355.389c-.158.103-.385.155-.671.155-.286 0-.513-.052-.67-.155a1.009 1.009 0 01-.356-.389 1.459 1.459 0 01-.148-.512 5.257 5.257 0 01-.03-.553v-4.466c-.789 0-1.425.668-1.425 1.495v2.965c0 .181-.01.362-.03.554a1.46 1.46 0 01-.148.512 1.007 1.007 0 01-.355.388c-.158.104-.385.155-.67.155-.287 0-.514-.051-.672-.155a1.008 1.008 0 01-.355-.388 1.46 1.46 0 01-.148-.512 5.287 5.287 0 01-.03-.554v-3.1c-.789 0-1.425.674-1.425 1.496v1.604c0 .425.04.797.118 1.118.08.32.178.595.296.828a2.36 2.36 0 00.903.957c.38.228.819.352 1.307.367.498-.015.938-.14 1.322-.367a2.445 2.445 0 00.597-.507 2.58 2.58 0 00.602.507c.38.228.819.352 1.307.367.498-.015.937-.14 1.322-.367a2.406 2.406 0 00.898-.958c.123-.232.222-.506.296-.827.074-.32.108-.688.108-1.118l.015-5.82z" fill="#fff"/><path d="M0 29.092h299v97.781c0 17.852-14.472 32.324-32.324 32.324H32.324C14.472 159.197 0 144.725 0 126.873V29.092z" fill="#62D5B4"/><path d="M279.605 56.568a1.616 1.616 0 10-3.232-.001 1.616 1.616 0 003.232 0zm0 7.272a1.616 1.616 0 10-3.232 0 1.616 1.616 0 003.232 0zm0-14.545a1.616 1.616 0 10-3.232-.001 1.616 1.616 0 003.232 0z" fill="#fff"/><circle cx="149.904" cy="159.602" r="63.437" fill="#62D5B4"/><circle cx="149.905" cy="159.602" r="57.78" fill="#F9F8F4"/><path d="M150.456 134.779a25.377 25.377 0 00-23.443 15.664 25.371 25.371 0 005.5 27.653 25.372 25.372 0 0027.653 5.5 25.372 25.372 0 0015.664-23.443 25.4 25.4 0 00-25.374-25.374zm-1.104 9.929a1.103 1.103 0 012.207 0v13.239a1.104 1.104 0 01-2.207 0v-13.239zm1.104 29.787a14.34 14.34 0 01-9.562-25.031 1.108 1.108 0 011.219-.18 1.1 1.1 0 01.515 1.48 1.104 1.104 0 01-.262.344 12.138 12.138 0 00-3.239 13.396 12.137 12.137 0 1019.353-13.456 1.1 1.1 0 01.229-1.838 1.113 1.113 0 011.229.183 14.345 14.345 0 013.934 15.829 14.336 14.336 0 01-13.416 9.273z" fill="#62D5B4"/><path d="M117.712 69.997c-.682.354-1.53.53-2.544.53-1.314 0-2.366-.414-3.157-1.243-.791-.83-1.187-1.918-1.187-3.264 0-1.448.444-2.618 1.332-3.51.892-.893 2.018-1.339 3.378-1.339.875 0 1.601.124 2.178.373v1.49a3.887 3.887 0 00-2.02-.544c-.981 0-1.776.314-2.387.941-.606.627-.909 1.465-.909 2.513 0 .997.284 1.793.852 2.386.569.59 1.316.884 2.242.884.854 0 1.595-.202 2.222-.606v1.39zm5.284.53c-1.305 0-2.35-.423-3.138-1.269-.782-.846-1.174-1.946-1.174-3.301 0-1.457.4-2.618 1.2-3.485.799-.867 1.885-1.301 3.257-1.301 1.272 0 2.294.42 3.069 1.263.778.841 1.168 1.942 1.168 3.302 0 1.477-.398 2.645-1.194 3.504-.795.858-1.858 1.287-3.188 1.287zm.07-8.037c-.829 0-1.505.31-2.027.928-.518.62-.776 1.434-.776 2.444 0 1.006.252 1.816.757 2.43.505.615 1.166.922 1.983.922.867 0 1.551-.292 2.051-.877.501-.585.752-1.404.752-2.456 0-1.082-.244-1.917-.733-2.507-.484-.589-1.153-.884-2.007-.884zm13.649 7.886h-1.641l-4.325-6.654a2.941 2.941 0 01-.271-.524h-.038c.033.193.05.608.05 1.243v5.935h-1.452v-9.054h1.749l4.179 6.497c.177.27.291.454.341.555h.025c-.042-.24-.063-.645-.063-1.218v-5.834h1.446v9.054zm9.925 0h-1.642l-4.324-6.654c-.11-.169-.2-.343-.272-.524h-.038c.034.193.051.608.051 1.243v5.935h-1.452v-9.054h1.748l4.18 6.497c.177.27.29.454.341.555h.025c-.042-.24-.063-.645-.063-1.218v-5.834h1.446v9.054zm7.329 0h-5.082v-9.054h4.88v1.276h-3.377v2.563h3.112v1.269h-3.112v2.677h3.579v1.269zm7.924-.379c-.682.354-1.53.53-2.545.53-1.313 0-2.365-.414-3.156-1.243-.791-.83-1.187-1.918-1.187-3.264 0-1.448.444-2.618 1.332-3.51.892-.893 2.018-1.339 3.378-1.339.875 0 1.601.124 2.178.373v1.49a3.89 3.89 0 00-2.021-.544c-.98 0-1.776.314-2.386.941-.606.627-.909 1.465-.909 2.513 0 .997.284 1.793.852 2.386.568.59 1.315.884 2.241.884.855 0 1.596-.202 2.223-.606v1.39zm7.525-7.4h-2.601v7.779h-1.502v-7.778h-2.595v-1.276h6.698v1.276zm6.408 7.779h-5.082v-9.054h4.88v1.276h-3.377v2.563h3.112v1.269h-3.112v2.677h3.579v1.269zm1.61 0v-9.054h2.614c3.338 0 5.006 1.471 5.006 4.413 0 1.398-.463 2.522-1.389 3.372-.925.846-2.167 1.269-3.724 1.269h-2.507zm1.496-7.778v6.509h1.2c1.056 0 1.877-.29 2.462-.871.589-.581.884-1.402.884-2.463 0-2.117-1.096-3.175-3.289-3.175h-1.257zm9.332-1.276l-.12 6.39h-1.2l-.164-6.39h1.484zm-.701 9.18a.925.925 0 01-.644-.24.78.78 0 01-.265-.593c0-.24.088-.444.265-.613a.899.899 0 01.644-.252c.244 0 .454.084.631.252a.806.806 0 010 1.206.909.909 0 01-.631.24z" fill="#fff"/></g><defs><linearGradient id="paint0_linear" x1="21.348" y1="14.041" x2="25.066" y2="21.201" gradientUnits="userSpaceOnUse"><stop stop-color="#666"/><stop offset="1" stop-color="#666" stop-opacity="0"/></linearGradient></defs></svg>