<svg width="72" height="76" fill="none" xmlns="http://www.w3.org/2000/svg"><path d="M8.911 54.12l-4.426-1.417c-1.24-.354-2.124-1.593-2.124-2.832V36.59c0-1.239.885-2.478 2.124-2.832l4.426-1.416c1.948-.886 4.072.53 4.072 2.655v16.289c0 2.125-2.124 3.541-4.072 2.833zm58.604-1.417l-4.426 1.417c-1.948.708-4.073-.886-4.073-2.833V34.999c0-2.125 2.125-3.542 4.073-2.833l4.426 1.416c1.24.354 2.124 1.593 2.124 2.833v13.279c0 1.416-.885 2.655-2.124 3.01z" stroke="#62D5B4" stroke-width="3" stroke-miterlimit="10"/><path d="M7.672 32.52v-1.77C7.672 15.168 20.42 2.42 36 2.42s28.328 12.75 28.328 28.33v1.77" stroke="#62D5B4" stroke-width="3" stroke-miterlimit="10"/><path d="M53.027 74.421h-3.54a3.551 3.551 0 01-3.542-3.54 3.551 3.551 0 013.541-3.542h3.541a3.551 3.551 0 013.541 3.541 3.551 3.551 0 01-3.541 3.541z" stroke="#93E7CF" stroke-width="3" stroke-miterlimit="10"/><path d="M64.24 58.487v2.36c0 4.132-2.36 10.033-8.262 10.033" stroke="#93E7CF" stroke-width="3" stroke-miterlimit="10"/><path d="M24.7 36.415c0-2.125 1.593-3.895 3.54-3.895a3.551 3.551 0 013.541 3.54v4.25L24.7 46.684v2.124h8.853m12.392 1.77V32.873h-2.301l-4.78 9.384v1.24h10.622" stroke="#62D5B4" stroke-width="3" stroke-miterlimit="10"/></svg>