<svg width="65" height="67" fill="none" xmlns="http://www.w3.org/2000/svg"><path d="M51.868 41.44l10.6-10.6c.678-.679.95-1.494.814-2.31l-3.26-20.38c-.137-1.087-1.088-2.039-2.175-2.31l-20.79-3.805c-.95-.136-1.766.136-2.446.815L2.816 34.645a2.788 2.788 0 000 3.941L5.67 41.44" stroke="#6CA9F0" stroke-width="3" stroke-miterlimit="10" stroke-linecap="round" stroke-linejoin="round"/><path d="M51.868 19.563c-4.62 1.902-8.152-3.261-4.755-6.93.271-.272.543-.408.815-.544 4.62-1.902 8.153 3.261 4.756 6.93-.272.272-.544.544-.816.544z" stroke="#95BEEE" stroke-width="3" stroke-miterlimit="10" stroke-linecap="round" stroke-linejoin="round"/><path d="M34.883 48.234V27.716H22.654v20.518H12.463l16.306 16.305 16.305-16.305h-10.19z" stroke="#6CA9F0" stroke-width="3" stroke-miterlimit="10" stroke-linecap="round" stroke-linejoin="round"/></svg>