<svg width="20" height="20" fill="none" xmlns="http://www.w3.org/2000/svg"><path d="M13.382 7.097s-.312.16-.183.501c.13.342.215.357.37 1.292.154.934.447 1.606.726 1.954.278.348.679.819 1.096.841.418.024 1.182-1.034 1.298-1.367.115-.332.108-1.29.85-1.096.74.193-.07 1.097-.526 1.452-.456.356-.942.98-.788 1.36.154.378.61.332 1.097.177.487-.155 1.09-.325 1.444-.54.355-.216.793-.247.863.115.071.363-.307.571-.74.478-.432-.092-1.583.278-2.107.425-.526.147-1.028.387-1.63.356-.602-.031-1.228-.294-2.062-.317-.834-.024-1.522.155-1.583-.147-.062-.3.177-.417.594-.255.418.162 1.166.124 1.437-.038.27-.162.27-.378.162-.564-.108-.186-.325-.896-.657-1.282s-.757-.857-1.004-.934c0 0-.474 3.167-3.051 4.701 0 0 .182.447.885.66.703.215 2.736.852 2.72 2.464 0 0 .289.207.983-.215s.827-.406.95-.224c.124.182-.255.885-1.91 1.132-1.652.249-2.05.042-2.214.521-.166.48.512.777 1.016.827.504.05.868.215.744.504-.123.289-1.115.025-1.86-.372-.744-.397-1.272-.72-1.768-.744-.496-.025-2.199.041-3.372-1.348-1.174-1.389-1.256-1.91-1.521-2.099-.265-.19-.48-.223-.678-.529-.198-.306-.075-.306-.339-.546-.264-.24-1.322-.074-1.694-.405-.372-.33-1.331-1.107-.745-1.562.587-.455.892-.584 1.103-1.264.212-.68.68-1.536.914-1.735.235-.2.68-.539 1.067-.246.386.293.445.562.562.434.117-.13.387-.797.633-.903 0 0-.773-.867-.199-1.266.574-.398 1.465-.644 1.806-.926.34-.281.82-.492 1.078-1.687.258-1.196.445-2.99 2.098-3.799C10.9.072 12.787-.29 13.41.271c.62.563 1.477 1.946 1.136 4.057-.338 2.11-1.163 2.77-1.163 2.77z" fill="url(#paint0_linear)"/><defs><linearGradient id="paint0_linear" x1="1.737" y1="8.757" x2="16.191" y2="9.965" gradientUnits="userSpaceOnUse"><stop stop-color="#232B96"/><stop offset="1" stop-color="#1384D4"/></linearGradient></defs></svg>