<svg width="72" height="72" fill="none" xmlns="http://www.w3.org/2000/svg"><g clip-path="url(#clip0)"><path d="M63 5.625H32.625a1.41 1.41 0 00-1.406 1.406 1.41 1.41 0 001.406 1.407H63a1.41 1.41 0 001.406-1.407A1.41 1.41 0 0063 5.625zm-47.812 0a1.48 1.48 0 00-.999.408 1.392 1.392 0 00-.408.998c0 .366.155.732.408.999s.619.408.998.408c.38 0 .732-.155.999-.408.267-.267.408-.62.408-.999 0-.38-.155-.731-.408-.998a1.479 1.479 0 00-.998-.408zM9 5.625c-.366 0-.731.155-.998.408a1.392 1.392 0 00-.408.998c0 .38.154.732.408.999.253.267.618.408.998.408.366 0 .731-.155.998-.408a1.39 1.39 0 00.408-.999c0-.38-.154-.731-.408-.998A1.479 1.479 0 009 5.625zm12.375 0c-.366 0-.731.155-.998.408a1.369 1.369 0 00-.408.998c0 .38.154.732.408.999.253.267.618.408.998.408s.731-.155.998-.408a1.39 1.39 0 00.408-.999c0-.38-.154-.731-.408-.998a1.479 1.479 0 00-.998-.408zM40.57 21.094a1.41 1.41 0 00-1.406 1.406 1.41 1.41 0 001.406 1.406h3.347a1.41 1.41 0 001.406-1.406 1.41 1.41 0 00-1.406-1.406H40.57zm22.43 0H50.836A1.41 1.41 0 0049.43 22.5a1.41 1.41 0 001.406 1.406H63a1.41 1.41 0 001.406-1.406A1.41 1.41 0 0063 21.094zm-14.695 6.75a1.41 1.41 0 00-1.407 1.406 1.41 1.41 0 001.407 1.406h6.553a1.41 1.41 0 001.406-1.406 1.41 1.41 0 00-1.406-1.406h-6.553zm14.695 0h-2.35a1.41 1.41 0 00-1.405 1.406 1.41 1.41 0 001.406 1.406h2.348a1.41 1.41 0 001.407-1.406 1.41 1.41 0 00-1.407-1.406zM35.507 22.5a1.41 1.41 0 00-1.406-1.406H23.948A1.41 1.41 0 0022.54 22.5a1.41 1.41 0 001.407 1.406H34.1a1.41 1.41 0 001.406-1.406zm-16.367 0a1.41 1.41 0 00-1.407-1.406H9A1.41 1.41 0 007.594 22.5 1.41 1.41 0 009 23.906h8.733a1.41 1.41 0 001.406-1.406zM8.002 28.252a1.392 1.392 0 00-.408.998c0 .38.154.731.408.998.267.268.618.408.998.408.366 0 .731-.154.998-.408.268-.267.408-.618.408-.998s-.154-.731-.408-.998A1.392 1.392 0 009 27.844c-.38 0-.731.154-.998.408zm7.326 2.404h11.883a1.41 1.41 0 001.406-1.406 1.41 1.41 0 00-1.406-1.406H15.328a1.41 1.41 0 00-1.406 1.406 1.41 1.41 0 001.406 1.406zm55.266 9.422c-.366 0-.731.155-.999.408a1.369 1.369 0 00-.407.998c0 .38.154.732.407.999s.62.408.999.408c.38 0 .731-.155.998-.408.267-.267.408-.619.408-.999s-.155-.73-.408-.998a1.479 1.479 0 00-.998-.408z" fill="#FFB6A3"/><path d="M70.594 36.563A1.41 1.41 0 0072 35.156V4.22A4.231 4.231 0 0067.781 0H4.22A4.231 4.231 0 000 4.219v50.625a4.231 4.231 0 004.219 4.218H16.72c3.193 7.552 10.674 12.882 19.378 12.882 8.705 0 16.186-5.316 19.379-12.882H67.78A4.231 4.231 0 0072 54.844v-7.032a1.41 1.41 0 00-1.406-1.406 1.41 1.41 0 00-1.406 1.407v7.03a1.41 1.41 0 01-1.407 1.407H56.42c.45-1.702.689-3.487.689-5.33 0-11.587-9.422-21.01-21.01-21.01-11.587 0-21.023 9.423-21.023 21.01 0 1.843.24 3.628.69 5.33H4.218a1.41 1.41 0 01-1.407-1.406V14.062h66.376v21.094a1.41 1.41 0 001.406 1.407zm-34.496-3.699c9.957 0 18.057 8.1 18.057 18.056 0 9.957-8.1 18.057-18.057 18.057-9.956 0-18.056-8.1-18.056-18.057 0-9.956 8.086-18.056 18.056-18.056zM2.813 11.25V4.219a1.41 1.41 0 011.406-1.407H67.78a1.41 1.41 0 011.406 1.407v7.031H2.814z" fill="#F47C5C"/><path d="M36 39.08a11.5 11.5 0 1011.5 11.5A11.513 11.513 0 0036 39.08zm-8.5 11.5a8.49 8.49 0 0113.35-6.972L29.029 55.43a8.446 8.446 0 01-1.529-4.85zm8.5 8.5a8.446 8.446 0 01-4.85-1.53l11.821-11.82A8.49 8.49 0 0136 59.08z" fill="#F47C5C"/></g><defs><clipPath id="clip0"><path fill="#fff" d="M0 0h72v72H0z"/></clipPath></defs></svg>