<svg width="76" height="52" fill="none" xmlns="http://www.w3.org/2000/svg"><path d="M74 20.502v-8c0-6.075-4.925-11-11-11H13c-6.075 0-11 4.925-11 11v26c0 6.075 4.925 11 11 11h31" stroke="#F47C5C" stroke-width="3" stroke-linecap="round"/><path d="M17.5 6.502H15a7 7 0 00-7 7v2" stroke="#F47C5C" stroke-width="3" stroke-linecap="round"/><path d="M75 25.502c-2.344 0-4.234 1.909-4.234 4.277v12.386c0 .517-.03 1.035-.088 1.583a4.056 4.056 0 01-.44 1.465 2.924 2.924 0 01-1.054 1.11c-.469.296-1.143.444-1.992.444-.85 0-1.524-.148-1.993-.444a2.924 2.924 0 01-1.055-1.11 4.056 4.056 0 01-.44-1.465 14.54 14.54 0 01-.087-1.583V29.394c-2.344 0-4.234 1.909-4.234 4.276v8.48c0 .518-.03 1.036-.088 1.583a4.056 4.056 0 01-.44 1.465 2.924 2.924 0 01-1.054 1.11c-.469.296-1.143.444-1.992.444-.85 0-1.524-.148-1.993-.444a2.924 2.924 0 01-1.055-1.11 4.056 4.056 0 01-.44-1.465 14.542 14.542 0 01-.087-1.583v-8.864c-2.344 0-4.234 1.923-4.234 4.276v4.588c0 1.213.117 2.279.352 3.196.234.918.527 1.702.879 2.368.366.666.776 1.213 1.245 1.657.469.444.952.8 1.436 1.08 1.128.651 2.431 1.007 3.882 1.051 1.48-.044 2.783-.4 3.926-1.05a7.23 7.23 0 001.421-1.08c.117-.12.235-.238.352-.37.117.132.234.25.351.37a7.9 7.9 0 001.436 1.08c1.128.65 2.432 1.006 3.882 1.05 1.48-.044 2.784-.4 3.926-1.05a7.23 7.23 0 001.422-1.08c.468-.445.878-.992 1.245-1.658.366-.666.659-1.45.879-2.368.22-.917.322-1.968.322-3.196L75 25.502z" fill="#F47C5C"/><path d="M28.875 14.068l1.256.82 1.276 21.048a2.45 2.45 0 00.776-.362c.063-.042.126-.088.164-.116l.016-.012a.726.726 0 01.069-.048l13.933-8.927.018-.012.019-.012c.536-.367 1.098-1.051 1.098-1.968 0-.493-.171-.984-.441-1.368a2.38 2.38 0 00-.7-.644 4.655 4.655 0 00-.202-.118l-.011-.007a2.159 2.159 0 01-.087-.05l-.809 1.263.81-1.263-13.904-8.907a2.29 2.29 0 00-1.452-.376c-.623.05-1.373.36-1.83 1.059z" stroke="#F47C5C" stroke-width="3"/></svg>