<svg width="75" height="52" fill="none" xmlns="http://www.w3.org/2000/svg"><path d="M73.014 20.74V13c0-6.075-4.925-11-11-11H13C6.925 2 2 6.925 2 13v25.343c0 6.075 4.925 11 11 11h30.425" stroke="#FD3068" stroke-width="3" stroke-linecap="round"/><path d="M17.288 6.932h-2.37a7 7 0 00-7 7v1.876" stroke="#FD3068" stroke-width="3" stroke-linecap="round"/><path d="M74 25.671c-2.313 0-4.177 1.883-4.177 4.218v12.217c0 .51-.028 1.021-.086 1.561a4 4 0 01-.434 1.445 2.882 2.882 0 01-1.04 1.095c-.463.292-1.127.438-1.965.438-.838 0-1.503-.146-1.965-.438a2.883 2.883 0 01-1.04-1.095 4 4 0 01-.434-1.445 14.34 14.34 0 01-.087-1.561V29.51c-2.312 0-4.176 1.883-4.176 4.218v8.363c0 .51-.029 1.022-.086 1.562a4.002 4.002 0 01-.434 1.445 2.884 2.884 0 01-1.04 1.094c-.463.292-1.127.438-1.965.438-.838 0-1.503-.146-1.965-.438a2.884 2.884 0 01-1.04-1.094 4.002 4.002 0 01-.434-1.445 14.34 14.34 0 01-.087-1.562v-8.742c-2.312 0-4.176 1.897-4.176 4.218v4.524c0 1.197.116 2.248.347 3.153.231.904.52 1.678.867 2.335.361.657.766 1.197 1.228 1.635.462.437.94.788 1.416 1.065 1.113.642 2.399.992 3.83 1.036 1.459-.044 2.745-.394 3.872-1.036a7.133 7.133 0 001.401-1.066c.116-.116.231-.233.347-.364.116.131.231.248.347.365a7.66 7.66 0 001.416 1.065c1.112.642 2.398.992 3.829 1.036 1.46-.044 2.745-.394 3.872-1.036a7.133 7.133 0 001.402-1.066c.462-.437.867-.977 1.228-1.634.361-.657.65-1.43.867-2.335.217-.905.318-1.942.318-3.153l.043-16.42z" fill="#FD3068"/><path d="M29.145 35.618V15.67l16.217 9.974-16.218 9.974z" stroke="#FD3068" stroke-width="3"/></svg>