<svg width="221" height="71" viewBox="0 0 221 71" fill="none" xmlns="http://www.w3.org/2000/svg">
<path d="M102.325 39.2157H78.1259C77.0259 39.2157 76.1926 40.1811 76.3926 41.2464C76.4259 41.4794 76.4593 41.7124 76.4926 41.9455C76.6593 42.8776 76.9259 43.7764 77.2926 44.6753C77.8592 46.0401 78.7592 47.2386 79.9924 48.3039C81.1924 49.3691 82.8923 49.8685 85.0589 49.8685C87.2254 49.8685 88.892 49.3359 90.1253 48.3039C91.0919 47.4716 91.8252 46.5395 92.3919 45.5408C92.6918 45.0082 93.2918 44.6753 93.8918 44.6753H100.658C101.891 44.6753 102.725 45.907 102.325 47.0388C102.025 47.9044 101.658 48.7366 101.225 49.469C100.458 50.8339 99.6248 52.0323 98.6916 53.031C97.7583 54.0297 96.7916 54.862 95.725 55.5278C94.6584 56.1936 93.6585 56.7262 92.6585 57.159C90.2253 58.0911 87.6921 58.5905 84.9922 58.5905C81.459 58.5239 78.3259 57.7915 75.5927 56.3933C74.426 55.7608 73.2928 54.9619 72.1595 53.9965C71.0262 53.031 70.0263 51.7993 69.1596 50.3346C68.293 48.8698 67.593 47.1054 67.0597 45.0414C66.5264 42.9775 66.2598 40.6139 66.2598 37.8508C66.2598 35.121 66.5264 32.7241 67.0597 30.6602C67.593 28.5962 68.293 26.8318 69.1596 25.3338C70.0263 23.8357 71.0262 22.604 72.1595 21.6053C73.2928 20.6066 74.426 19.8076 75.5927 19.1751C78.2925 17.7104 81.3924 16.9447 84.8922 16.8115C84.9589 16.8115 85.0255 16.8115 85.0922 16.8115C87.9587 16.9447 90.6253 17.5439 93.1251 18.6092C94.1918 19.0752 95.2584 19.7078 96.325 20.4734C97.3916 21.2391 98.3916 22.1712 99.3249 23.3031C100.258 24.4349 101.058 25.7665 101.758 27.3312C102.458 28.8958 102.991 30.6935 103.291 32.7241C103.391 33.5231 103.491 34.3221 103.558 35.1543C103.625 35.9866 103.691 36.8854 103.691 37.8508C103.725 37.7842 103.925 39.2157 102.325 39.2157ZM90.7919 32.6576C92.0585 32.6576 92.9585 31.326 92.3919 30.1941C92.3919 30.1941 92.3918 30.1608 92.3585 30.1608C91.9585 29.3286 91.4252 28.5629 90.7253 27.8638C90.0253 27.198 89.2253 26.6321 88.292 26.2326C87.3588 25.8331 86.2255 25.6334 84.9922 25.6334C83.7256 25.6334 82.6257 25.8331 81.6924 26.2326C80.7591 26.6321 79.9258 27.1647 79.2591 27.8638C78.5592 28.5629 78.0259 29.2953 77.5926 30.1608V30.1941C77.0259 31.3593 77.9259 32.6909 79.1925 32.6909H90.7919V32.6576Z" fill="#A12B52"/>
<path d="M61.4304 0C56.0973 0 51.7975 4.29441 51.7975 9.62081V37.4845C51.7975 38.6497 51.7309 39.8148 51.5976 41.0466C51.4642 42.245 51.1309 43.3436 50.5976 44.3423C50.0643 45.341 49.2643 46.1732 48.1977 46.839C47.1311 47.5048 45.5978 47.8377 43.6646 47.8377C41.7314 47.8377 40.1981 47.5048 39.1315 46.839C38.0649 46.1732 37.2649 45.341 36.7316 44.3423C36.1983 43.3436 35.865 42.245 35.7316 41.0466C35.5983 39.8481 35.5317 38.6497 35.5317 37.4845V8.75527C30.1986 8.75527 25.8988 13.0497 25.8988 18.3761V37.4513C25.8988 38.6164 25.8321 39.7816 25.6988 41.0133C25.5655 42.2117 25.2321 43.3103 24.6988 44.309C24.1655 45.3077 23.3656 46.1399 22.2989 46.8057C21.2323 47.4715 19.6991 47.8044 17.7658 47.8044C15.8326 47.8044 14.2993 47.4715 13.2327 46.8057C12.1661 46.1399 11.3661 45.3077 10.8328 44.309C10.2995 43.3103 9.9662 42.2117 9.83287 41.0133C9.69954 39.8148 9.63288 38.6164 9.63288 37.4513V17.5105C4.2998 17.5105 0 21.8382 0 27.1314V37.4513C0 40.181 0.266654 42.5779 0.799962 44.6419C1.33327 46.7059 1.99991 48.4702 2.79987 49.9683C3.63316 51.4664 4.56645 52.6981 5.63307 53.6968C6.69968 54.6955 7.79963 55.4944 8.89958 56.1269C11.4661 57.5917 14.4327 58.3907 17.7325 58.4905C21.099 58.3907 24.0655 57.5917 26.6654 56.1269C27.7654 55.4944 28.8653 54.6955 29.8986 53.6968C30.1652 53.4305 30.4319 53.1641 30.6985 52.8645C30.9652 53.1641 31.2319 53.4305 31.4985 53.6968C32.5651 54.6955 33.6651 55.4944 34.765 56.1269C37.3316 57.5917 40.2981 58.3907 43.5979 58.4905C46.9644 58.3907 49.931 57.5917 52.5308 56.1269C53.6308 55.4944 54.7307 54.6955 55.764 53.6968C56.8306 52.6981 57.7639 51.4664 58.5972 49.9683C59.4305 48.4702 60.0972 46.7059 60.5971 44.6419C61.0971 42.5779 61.3304 40.2143 61.3304 37.4513L61.4304 0Z" fill="#A12B52"/>
<path d="M132.892 56.0601C132.625 56.8257 131.925 57.3584 131.092 57.3584H126.025H120.959C120.159 57.3584 119.425 56.8257 119.159 56.0601L107.393 20.007C106.993 18.7753 107.893 17.5435 109.193 17.5435H114.892C115.692 17.5435 116.426 18.0762 116.692 18.8418L124.225 41.8452C124.792 43.5763 127.225 43.5763 127.792 41.8452L132.125 28.5958L139.391 6.35809C140.991 1.53104 146.191 -1.13216 151.024 0.465761L132.892 56.0601Z" fill="#EF4273"/>
<path d="M179.355 25.0677C178.489 23.5696 177.489 22.3379 176.355 21.3392C175.222 20.3405 174.089 19.5415 172.922 18.909C170.189 17.4442 167.089 16.6453 163.656 16.5454C160.356 16.5454 157.556 17.0448 155.256 18.0102C152.956 18.9756 151.057 20.3738 149.557 22.1714C148.057 23.9691 146.99 26.1662 146.29 28.7628C145.623 31.3595 145.257 34.289 145.257 37.5847V68.2115C145.257 69.5098 146.29 70.5418 147.59 70.5418H152.257C153.556 70.5418 154.59 69.5098 154.59 68.2115V52.7982C155.09 53.4973 155.656 54.0965 156.256 54.6292C157.623 55.7943 158.956 56.6266 160.256 57.1259C161.723 57.6919 163.223 58.0248 164.789 58.1246C164.923 58.1246 165.023 58.1246 165.156 58.1246C168.322 58.0581 171.156 57.3257 173.622 55.9275C174.722 55.295 175.789 54.496 176.822 53.5306C177.855 52.5652 178.755 51.3335 179.589 49.8687C180.389 48.404 181.055 46.6396 181.555 44.6089C182.055 42.5782 182.288 40.1813 182.288 37.4515C182.288 34.7218 182.022 32.3582 181.455 30.2942C180.922 28.2968 180.222 26.5324 179.355 25.0677ZM172.322 41.2799C172.122 42.6448 171.689 43.9098 171.056 45.0749C170.422 46.2401 169.522 47.2388 168.356 48.0045C167.189 48.8034 165.623 49.1696 163.689 49.1696C161.756 49.1696 160.189 48.7701 159.023 48.0045C157.856 47.2055 156.923 46.2401 156.256 45.0749C155.59 43.9098 155.156 42.6448 154.956 41.2799C154.756 39.915 154.656 38.65 154.656 37.5181C154.656 36.1199 154.756 34.7218 154.923 33.3236C155.123 31.9254 155.49 30.6937 156.09 29.5618C156.69 28.4299 157.59 27.5311 158.79 26.8653C159.989 26.1995 161.623 25.8333 163.656 25.8333C165.589 25.8333 167.156 26.2328 168.322 26.9985C169.489 27.7974 170.422 28.7628 171.022 29.928C171.656 31.0931 172.056 32.3915 172.289 33.7231C172.489 35.0879 172.589 36.353 172.589 37.4848C172.622 38.65 172.522 39.915 172.322 41.2799Z" fill="#EF4273"/>
<path d="M218.889 28.6624C218.089 26.2655 217.056 24.3014 215.789 22.7368C214.522 21.1721 213.156 19.9737 211.689 19.1415C210.223 18.3092 208.823 17.6767 207.523 17.3105C206.223 16.911 205.056 16.7113 204.09 16.6447C203.123 16.5781 202.556 16.5781 202.39 16.5781C202.19 16.5781 201.59 16.6114 200.656 16.6447C199.723 16.7113 198.59 16.911 197.29 17.3105C195.99 17.71 194.59 18.3092 193.123 19.1415C191.657 19.9737 190.29 21.1721 189.024 22.7368C187.757 24.3014 186.724 26.2988 185.924 28.6624C185.124 31.0593 184.69 33.9888 184.69 37.4842V55.2611C184.69 56.4263 185.624 57.3584 186.79 57.3584H192.157C193.323 57.3584 194.257 56.4263 194.257 55.2611V37.5175C194.257 36.3524 194.357 35.1872 194.557 33.9888C194.757 32.7904 195.157 31.6918 195.723 30.6931C196.29 29.6944 197.123 28.8621 198.156 28.2296C199.19 27.5638 200.59 27.2642 202.323 27.2642C204.056 27.2642 205.456 27.5971 206.489 28.2296C207.523 28.8954 208.356 29.6944 208.923 30.6931C209.489 31.6918 209.889 32.7904 210.089 33.9888C210.289 35.1872 210.389 36.3857 210.389 37.5175V55.2611C210.389 56.4263 211.323 57.3584 212.489 57.3584H217.989C219.155 57.3584 220.089 56.4263 220.089 55.2611V37.5175C220.089 33.9888 219.689 31.0593 218.889 28.6624Z" fill="#EF4273"/>
</svg>
