<svg width="73" height="73" fill="none" xmlns="http://www.w3.org/2000/svg"><g clip-path="url(#clip0)"><path d="M36.514 55.636c-2.493 0-4.518 2.016-4.518 4.495 0 2.483 2.023 4.495 4.518 4.495 2.495 0 4.515-2.014 4.515-4.495 0-2.482-2.02-4.495-4.515-4.495zm-.011-15.785c-5.49 0-10.648 2.203-14.53 6.2-1.61 1.656-1.61 4.347 0 6.003.8.826 1.855 1.24 2.91 1.24a4.046 4.046 0 002.91-1.24c2.325-2.398 5.419-3.858 8.71-3.858 3.287 0 6.38 1.458 8.712 3.854a4.033 4.033 0 005.822 0c1.604-1.656 1.604-4.343 0-5.998-3.883-3.998-9.044-6.2-14.534-6.2z" fill="#FD3E72"/><path d="M36.465 24.11c-9.706 0-18.83 3.752-25.695 10.565a4.333 4.333 0 000 6.157 4.384 4.384 0 003.103 1.278 4.376 4.376 0 003.1-1.278c5.206-5.167 12.13-8.297 19.492-8.297 7.36 0 14.286 3.132 19.49 8.297a4.408 4.408 0 006.202 0 4.33 4.33 0 000-6.157C55.293 27.862 46.166 24.11 36.465 24.11z" fill="#FF759A"/><path d="M71.271 21.869c-9.29-8.702-21.638-13.494-34.77-13.494-13.132 0-25.481 4.792-34.77 13.498-1.641 1.537-1.641 4.025 0 5.564a4.336 4.336 0 002.967 1.152 4.346 4.346 0 002.97-1.152c7.7-7.22 17.941-10.772 28.83-10.772 10.894 0 21.133 3.553 28.834 10.768 1.64 1.536 4.297 1.536 5.939 0 1.638-1.537 1.64-4.028 0-5.564z" fill="#FFC3D4"/></g><defs><clipPath id="clip0"><path fill="#fff" d="M.5.5h72v72H.5z"/></clipPath></defs></svg>