<svg width="454" height="454" viewBox="0 0 454 454" fill="none" xmlns="http://www.w3.org/2000/svg">
<circle cx="227" cy="227" r="227" fill="#FFEAF0"/>
<path d="M227.5 395C320.56 395 396 319.56 396 226.5C396 133.44 320.56 58 227.5 58C134.44 58 59 133.44 59 226.5C59 319.56 134.44 395 227.5 395Z" fill="#FFDDE5"/>
<path d="M26 417.78C26 417.955 116.22 418.083 227.551 418.083C338.882 418.083 429.103 417.955 429.103 417.78C429.103 417.606 338.894 417.478 227.551 417.478C116.209 417.478 26 417.617 26 417.78Z" fill="#263238"/>
<path d="M307.463 318.88H299.483V360.915H307.463V318.88Z" fill="#5B5863"/>
<path d="M321.956 312.508H284.675C282.02 312.508 279.473 311.454 277.594 309.577C275.716 307.701 274.659 305.155 274.656 302.5H331.976C331.973 305.155 330.916 307.701 329.037 309.577C327.158 311.454 324.612 312.508 321.956 312.508Z" fill="#6B441A"/>
<path d="M354.868 304.457H289.813V290.547H354.868C356.722 290.547 358.5 291.283 359.811 292.594C361.122 293.905 361.859 295.683 361.859 297.537C361.84 299.379 361.096 301.139 359.787 302.435C358.478 303.731 356.71 304.458 354.868 304.457Z" fill="#AB6D29"/>
<path d="M318.31 291.222L247.58 292.213L240.671 190.54L299.867 190.167C302.717 190.182 305.444 191.329 307.45 193.354C309.455 195.379 310.574 198.117 310.562 200.967L318.31 291.222Z" fill="#AB6D29"/>
<path d="M311.203 312.508H295.743V320.546H311.203V312.508Z" fill="#6B441A"/>
<path d="M239.25 190.61C237.462 190.851 235.838 191.782 234.726 193.203C233.614 194.624 233.101 196.423 233.297 198.217L242.687 283.568C243.334 289.314 246.075 294.62 250.386 298.473C254.697 302.326 260.276 304.456 266.058 304.457H290.873C292.727 304.457 294.505 303.721 295.816 302.41C297.127 301.099 297.863 299.321 297.863 297.467C297.863 295.613 297.127 293.835 295.816 292.524C294.505 291.213 292.727 290.477 290.873 290.477H269.797C266.901 290.477 264.104 289.426 261.925 287.519C259.746 285.612 258.333 282.978 257.949 280.108L247.044 196.563C246.925 195.661 246.629 194.791 246.173 194.003C245.718 193.215 245.111 192.525 244.388 191.972C243.665 191.419 242.84 191.014 241.961 190.78C241.081 190.546 240.164 190.489 239.262 190.61H239.25Z" fill="#925D23"/>
<path d="M306.368 358.55H300.368C297.814 358.55 295.743 360.621 295.743 363.175V390.752C295.743 393.306 297.814 395.377 300.368 395.377H306.368C308.922 395.377 310.993 393.306 310.993 390.752V363.175C310.993 360.621 308.922 358.55 306.368 358.55Z" fill="#5B5863"/>
<path d="M347.878 393.093H257.122C255.909 393.049 254.7 393.261 253.574 393.715C252.448 394.168 251.43 394.854 250.586 395.726C247.219 399.221 247.429 405.047 247.44 405.256L251.576 405.082C251.576 403.917 251.798 400.421 253.58 398.581C254.037 398.126 254.584 397.771 255.186 397.538C255.787 397.306 256.431 397.2 257.075 397.229H280.889V407.773H285.024V397.229H347.832C349.11 397.232 350.335 397.741 351.239 398.645C352.143 399.549 352.652 400.774 352.655 402.052V405.163H356.791V402.099C356.8 399.724 355.867 397.442 354.196 395.754C352.525 394.065 350.253 393.109 347.878 393.093Z" fill="#5B5863"/>
<path d="M290.966 412.689C290.968 414.291 290.496 415.858 289.607 417.191C288.719 418.524 287.455 419.564 285.976 420.178C284.496 420.793 282.868 420.955 281.297 420.644C279.725 420.333 278.281 419.562 277.148 418.431C276.014 417.299 275.242 415.856 274.929 414.285C274.615 412.714 274.775 411.085 275.387 409.605C276 408.125 277.038 406.86 278.369 405.969C279.701 405.079 281.267 404.604 282.869 404.604C285.015 404.604 287.072 405.455 288.59 406.971C290.109 408.487 290.963 410.544 290.966 412.689Z" fill="#263238"/>
<path d="M257.599 410.72C257.599 412.322 257.125 413.887 256.235 415.219C255.345 416.55 254.081 417.588 252.601 418.201C251.121 418.814 249.493 418.974 247.923 418.662C246.352 418.349 244.909 417.578 243.777 416.446C242.645 415.313 241.873 413.87 241.561 412.3C241.249 410.729 241.409 409.101 242.022 407.622C242.635 406.142 243.672 404.877 245.004 403.988C246.336 403.098 247.901 402.623 249.502 402.623C251.65 402.623 253.709 403.476 255.228 404.995C256.746 406.513 257.599 408.573 257.599 410.72Z" fill="#263238"/>
<path d="M361.929 411.012C361.931 412.613 361.458 414.18 360.57 415.513C359.681 416.846 358.418 417.886 356.938 418.5C355.459 419.115 353.831 419.277 352.259 418.966C350.688 418.655 349.244 417.885 348.11 416.753C346.977 415.621 346.204 414.178 345.891 412.607C345.578 411.036 345.737 409.407 346.35 407.927C346.962 406.447 348 405.182 349.332 404.292C350.664 403.401 352.23 402.926 353.832 402.926C355.977 402.926 358.035 403.778 359.553 405.294C361.071 406.81 361.926 408.866 361.929 411.012Z" fill="#263238"/>
<path d="M356.616 290.547C356.616 290.71 336.67 290.919 312.077 291.013C287.483 291.106 267.537 291.013 267.537 290.873C267.537 290.733 287.471 290.5 312.077 290.407C336.682 290.314 356.616 290.372 356.616 290.547Z" fill="#263238"/>
<path d="M257.39 278.978C257.227 278.978 254.768 260.57 251.914 237.817C249.06 215.064 246.869 196.587 247.033 196.563C247.196 196.54 249.654 214.971 252.508 237.736C255.363 260.501 257.53 278.955 257.39 278.978Z" fill="#263238"/>
<path d="M246.287 190.412C246.49 190.334 246.701 190.279 246.916 190.249C247.525 190.143 248.14 190.081 248.757 190.062C251.043 189.982 253.324 190.334 255.479 191.099C256.986 191.643 258.332 192.557 259.394 193.756C260.562 195.138 261.567 196.651 262.388 198.264C264.135 201.631 266.081 205.254 268.213 209.087C272.489 216.672 276.508 223.476 279.234 228.509C280.621 231.013 281.681 233.064 282.403 234.497C282.729 235.161 282.986 235.662 283.207 236.151C283.315 236.34 283.394 236.544 283.44 236.757C283.309 236.584 283.192 236.401 283.091 236.209L282.194 234.602L278.862 228.718C276.042 223.744 271.964 216.986 267.677 209.379C265.533 205.581 263.6 201.888 261.852 198.532C261.069 196.943 260.099 195.453 258.963 194.093C257.969 192.931 256.699 192.038 255.27 191.495C253.169 190.723 250.948 190.328 248.71 190.33C247.172 190.284 246.299 190.47 246.287 190.412Z" fill="#263238"/>
<path d="M233.774 194.839C233.926 194.92 228.567 204.264 221.821 215.693C215.076 227.122 209.483 236.337 209.332 236.256C209.181 236.174 214.54 226.831 221.297 215.39C228.054 203.949 233.635 194.722 233.774 194.839Z" fill="#263238"/>
<path d="M294.966 236.244H202C200.895 236.244 200 237.14 200 238.244V262.834C200 263.939 200.895 264.834 202 264.834H294.966C296.071 264.834 296.966 263.939 296.966 262.834V238.244C296.966 237.14 296.071 236.244 294.966 236.244Z" fill="#FAFAFA"/>
<path d="M223.046 244.352L217.643 256.856H214.789L209.4 244.352H212.52L216.316 253.299L220.165 244.365L223.046 244.352Z" fill="#FD3E72"/>
<path d="M231.886 254.176H226.085L224.984 256.831H222.023L227.585 244.327H230.439L236.028 256.831H232.988L231.886 254.176ZM230.917 251.973L228.939 247.181L227.015 251.973H230.917Z" fill="#FD3E72"/>
<path d="M236.36 250.645C236.435 249.293 236.909 247.993 237.72 246.909C238.532 245.825 239.645 245.005 240.921 244.551C242.197 244.097 243.579 244.031 244.893 244.359C246.206 244.688 247.394 245.397 248.306 246.398L246.448 248.11C246.069 247.647 245.591 247.275 245.048 247.022C244.506 246.769 243.914 246.642 243.315 246.65C242.259 246.65 241.246 247.069 240.499 247.816C239.753 248.563 239.333 249.576 239.333 250.632C239.333 251.688 239.753 252.701 240.499 253.448C241.246 254.195 242.259 254.614 243.315 254.614C243.915 254.62 244.508 254.491 245.05 254.236C245.592 253.981 246.07 253.606 246.448 253.141L248.306 254.853C247.398 255.86 246.211 256.574 244.896 256.907C243.582 257.24 242.198 257.175 240.92 256.722C239.642 256.269 238.527 255.448 237.715 254.362C236.903 253.275 236.432 251.973 236.36 250.619V250.645Z" fill="#FD3E72"/>
<path d="M258.196 254.176H252.395L251.293 256.831H248.333L253.895 244.327H256.749L262.337 256.831H259.297L258.196 254.176ZM257.293 251.986L255.302 247.194L253.324 251.973L257.293 251.986Z" fill="#FD3E72"/>
<path d="M275.093 244.353V256.857H272.717L266.492 249.318V256.91H263.638V244.406H266.027L272.24 251.999V244.406L275.093 244.353Z" fill="#FD3E72"/>
<path d="M280.629 246.663H276.646V244.3H287.531V246.663H283.549V256.804H280.655L280.629 246.663Z" fill="#FD3E72"/>
<path d="M327.343 95H334.717L327.412 100.965H322.135L327.343 95Z" fill="#504D58"/>
<path d="M244.543 151.248V166.592H235.153V152.786C235.153 148.918 233.464 147.287 230.749 147.287C227.732 147.287 225.402 149.174 225.402 153.625V166.592H216V129.881H225.402V142.242C227.621 140.282 230.504 139.241 233.464 139.33C239.743 139.33 244.543 142.906 244.543 151.248Z" fill="#504D58"/>
<path d="M249.402 131.803C249.402 128.984 251.732 126.805 255.134 126.805C258.536 126.805 260.877 128.833 260.877 131.652C260.877 134.471 258.605 136.801 255.134 136.801C251.662 136.801 249.402 134.623 249.402 131.803ZM250.439 139.772H259.84V166.568H250.439V139.772Z" fill="#504D58"/>
<path d="M283.887 139.329V147.788C283.18 147.69 282.468 147.639 281.755 147.636C277.945 147.636 275.324 149.57 275.324 154.265V166.591H265.922V139.795H274.881V143.011C276.815 140.576 279.925 139.329 283.887 139.329Z" fill="#504D58"/>
<path d="M286.706 131.803C286.706 128.984 288.978 126.805 292.45 126.805C295.921 126.805 298.182 128.833 298.182 131.652C298.182 134.471 295.91 136.801 292.45 136.801C288.99 136.801 286.706 134.623 286.706 131.803ZM287.743 139.772H297.145V166.568H287.743V139.772Z" fill="#504D58"/>
<path d="M331.781 151.248V166.591H322.333V152.786C322.333 148.918 320.655 147.287 317.929 147.287C314.911 147.287 312.581 149.174 312.581 153.624V166.591H303.191V139.795H312.139V142.708C313.254 141.597 314.585 140.726 316.05 140.149C317.514 139.572 319.082 139.301 320.655 139.353C326.993 139.329 331.781 142.906 331.781 151.248Z" fill="#504D58"/>
<path d="M366.907 139.772V161.687C366.907 171.834 361.175 176.634 351.179 176.634C346.03 176.634 341.137 175.469 337.863 173.139L341.276 166.557C343.924 168.437 347.093 169.443 350.34 169.434C355.385 169.434 357.505 167.104 357.505 162.945V162.06C356.496 163.143 355.258 163.989 353.882 164.537C352.507 165.085 351.026 165.321 349.548 165.229C342.418 165.229 336.383 160.172 336.383 152.262C336.383 144.351 342.418 139.353 349.548 139.353C353.253 139.353 356.119 140.518 357.96 143.058V139.796L366.907 139.772ZM357.587 152.238C357.587 148.976 355.105 146.798 351.762 146.798C348.418 146.798 345.867 148.976 345.867 152.238C345.867 155.5 348.395 157.726 351.762 157.726C352.514 157.781 353.27 157.679 353.981 157.426C354.692 157.174 355.343 156.777 355.893 156.26C356.443 155.743 356.879 155.118 357.175 154.424C357.47 153.729 357.619 152.981 357.61 152.227L357.587 152.238Z" fill="#504D58"/>
<path d="M371.264 161.442C371.264 159.947 371.858 158.512 372.916 157.455C373.973 156.397 375.408 155.803 376.903 155.803C378.399 155.803 379.833 156.397 380.89 157.455C381.948 158.512 382.542 159.947 382.542 161.442C382.542 162.938 381.948 164.372 380.89 165.429C379.833 166.487 378.399 167.081 376.903 167.081C375.408 167.081 373.973 166.487 372.916 165.429C371.858 164.372 371.264 162.938 371.264 161.442Z" fill="#FD3E72"/>
<path d="M344.119 103.074V109.726C343.567 109.65 343.01 109.611 342.453 109.61C339.459 109.61 337.408 111.124 337.408 114.806V124.475H330.022V103.423H337.012V105.951C338.574 104.052 340.974 103.074 344.119 103.074Z" fill="#504D58"/>
<path d="M368.364 115.819H353.055C353.684 117.951 355.502 119.198 358.228 119.198C359.116 119.229 360.002 119.083 360.834 118.769C361.666 118.455 362.428 117.979 363.074 117.369L366.966 121.411C364.938 123.66 361.991 124.837 357.995 124.837C350.492 124.837 345.634 120.176 345.634 113.92C345.634 107.664 350.573 103.074 357.214 103.074C363.424 103.074 368.48 107.047 368.48 113.99C368.48 114.538 368.399 115.237 368.364 115.819ZM352.938 111.94H361.56C361.377 110.929 360.845 110.015 360.058 109.357C359.27 108.699 358.276 108.339 357.249 108.339C356.223 108.339 355.229 108.699 354.441 109.357C353.653 110.015 353.121 110.929 352.938 111.94Z" fill="#504D58"/>
<path d="M298.216 103.423L290.714 124.476H283.572L279.611 113.023L275.487 124.476H268.345L260.842 103.423H267.832L272.143 116.169L276.617 103.423H282.908L287.253 116.239L291.727 103.423H298.216Z" fill="#504D58"/>
<path d="M321.284 115.819H306.022C306.651 117.951 308.469 119.198 311.195 119.198C312.086 119.229 312.973 119.083 313.807 118.769C314.641 118.455 315.404 117.979 316.053 117.369L319.933 121.411C317.917 123.66 314.958 124.837 310.962 124.837C303.459 124.837 298.613 120.176 298.613 113.92C298.613 107.664 303.541 103.074 310.182 103.074C316.403 103.074 321.447 107.047 321.447 113.99C321.401 114.538 321.319 115.237 321.284 115.819ZM305.859 111.94H314.492C314.316 110.922 313.787 110 312.997 109.335C312.207 108.67 311.208 108.306 310.176 108.306C309.143 108.306 308.144 108.67 307.354 109.335C306.565 110 306.035 110.922 305.859 111.94Z" fill="#504D58"/>
<path d="M324.512 69.6245L325.677 44.8674C325.723 43.8895 326.125 42.9621 326.807 42.2603C327.49 41.5584 328.406 41.1307 329.382 41.0577C330.409 40.9778 331.427 41.2963 332.225 41.9471C333.024 42.5978 333.541 43.531 333.669 44.5529L336.803 69.3682C336.852 69.8077 336.808 70.2526 336.674 70.6739C336.539 71.0953 336.318 71.4835 336.023 71.8133C335.728 72.1431 335.368 72.4071 334.964 72.588C334.56 72.7689 334.123 72.8627 333.681 72.8633H327.646C327.226 72.8603 326.812 72.7737 326.426 72.6086C326.04 72.4435 325.691 72.2031 325.399 71.9016C325.108 71.6 324.879 71.2433 324.727 70.8524C324.574 70.4614 324.501 70.0439 324.512 69.6245Z" fill="#FD3E72"/>
<path d="M335.731 27.0424C335.337 25.9158 334.618 24.9313 333.665 24.2135C332.711 23.4956 331.566 23.0767 330.374 23.0096C329.183 22.9424 327.998 23.2302 326.97 23.8364C325.942 24.4426 325.116 25.3401 324.598 26.4154C324.08 27.4906 323.893 28.6954 324.059 29.8772C324.226 31.0591 324.739 32.165 325.534 33.0552C326.329 33.9453 327.37 34.5797 328.526 34.8781C329.682 35.1765 330.9 35.1256 332.027 34.7317C332.775 34.4701 333.464 34.0637 334.055 33.5357C334.646 33.0077 335.128 32.3684 335.472 31.6544C335.816 30.9404 336.016 30.1656 336.06 29.3743C336.105 28.5829 335.993 27.7906 335.731 27.0424Z" fill="#FD3E72"/>
<path d="M383.84 100.755L398.264 88.5108C398.836 88.0319 399.562 87.7774 400.308 87.7945C401.054 87.8117 401.768 88.0993 402.318 88.604C402.895 89.1361 403.244 89.87 403.294 90.6532C403.344 91.4364 403.09 92.2087 402.586 92.8097L390.376 107.466C390.158 107.726 389.886 107.938 389.58 108.086C389.274 108.234 388.94 108.316 388.6 108.325C388.26 108.335 387.922 108.273 387.607 108.143C387.293 108.013 387.01 107.818 386.776 107.571L383.642 104.204C383.422 103.968 383.252 103.69 383.142 103.386C383.032 103.082 382.985 102.76 383.004 102.437C383.022 102.115 383.106 101.8 383.25 101.511C383.394 101.221 383.595 100.965 383.84 100.755Z" fill="#FF8EAD"/>
<path d="M413.432 84.8755C413.873 84.0606 414.06 83.133 413.971 82.2111C413.882 81.2892 413.52 80.4148 412.931 79.6996C412.343 78.9843 411.555 78.4606 410.667 78.1953C409.78 77.93 408.833 77.9351 407.949 78.2101C407.065 78.485 406.282 79.0173 405.702 79.7389C405.121 80.4606 404.769 81.3388 404.689 82.2617C404.61 83.1845 404.808 84.11 405.257 84.92C405.706 85.73 406.386 86.3878 407.211 86.8094C408.295 87.3637 409.553 87.4717 410.716 87.1102C411.878 86.7488 412.854 85.9467 413.432 84.8755Z" fill="#FF8EAD"/>
<path d="M409.569 13.2972L387.433 50.858C386.558 52.3432 385.17 53.4569 383.53 53.9892C381.89 54.5214 380.113 54.4353 378.532 53.7473C376.87 53.0238 375.549 51.6895 374.842 50.0201C374.135 48.3507 374.097 46.4736 374.734 44.7765L390.241 3.58075C390.519 2.84717 390.949 2.18091 391.504 1.62597C392.058 1.07103 392.724 0.640042 393.457 0.361464C394.191 0.0828854 394.975 -0.0369471 395.758 0.00989575C396.541 0.0567386 397.305 0.269189 398 0.633204L407.402 5.57296C408.064 5.92502 408.648 6.40771 409.118 6.99185C409.588 7.57599 409.935 8.24944 410.138 8.97147C410.34 9.6935 410.394 10.4491 410.296 11.1926C410.199 11.9361 409.951 12.6521 409.569 13.2972Z" fill="#FD3E72"/>
<path d="M357.119 70.349C356.805 72.4273 357.116 74.5519 358.01 76.4539C358.904 78.356 360.343 79.95 362.143 81.0344C363.944 82.1188 366.025 82.6448 368.125 82.546C370.224 82.4471 372.247 81.7277 373.938 80.4789C375.629 79.2301 376.911 77.508 377.623 75.5303C378.334 73.5526 378.443 71.4083 377.936 69.3686C377.429 67.3289 376.328 65.4854 374.773 64.0714C373.218 62.6574 371.279 61.7363 369.2 61.4248C366.415 61.0073 363.578 61.7128 361.312 63.3862C359.047 65.0596 357.538 67.564 357.119 70.349Z" fill="#FD3E72"/>
<path d="M159.886 65.4032C163.662 64.4542 167.314 63.0661 170.768 61.2673C168.85 61.6317 166.981 62.2181 165.199 63.0149C163.34 63.6001 161.557 64.4017 159.886 65.4032Z" fill="#455A64"/>
<path d="M174.787 88.8668C175.952 88.7387 179.097 90.2998 181.719 93.4105L181.847 93.5503C183.699 95.6357 184.853 89.228 184.969 86.863C185.001 86.4957 185.115 86.1403 185.302 85.823C185.49 85.5057 185.747 85.2347 186.053 85.03C186.36 84.8252 186.708 84.6921 187.073 84.6403C187.438 84.5886 187.81 84.6195 188.161 84.731L196.317 87.8533L198.647 87.7717C199.214 87.9232 199.704 88.2834 200.017 88.7803C200.33 89.2771 200.444 89.874 200.336 90.4513L197.447 103.139L197.598 106.54L181.987 109.779L181.148 101.298C180.845 100.331 180.449 99.1891 179.983 97.8959C179.513 96.7274 178.847 95.6478 178.014 94.7037C177.1 93.6297 176.077 92.6536 174.962 91.7911L174.694 91.6396C174.512 91.5522 174.35 91.4295 174.216 91.2785C174.015 91.1156 173.863 90.8991 173.78 90.654C173.696 90.4089 173.683 90.1451 173.743 89.8931C173.803 89.6411 173.932 89.4111 174.117 89.2295C174.302 89.0479 174.534 88.9222 174.787 88.8668Z" fill="#FFBE9D"/>
<path d="M178.212 53.1003C178.212 53.1003 187.532 51.9352 201.513 40.7975C215.493 29.6597 223.101 13.8152 224.662 14.0016C226.223 14.188 233.4 11.6716 243.78 41.3334C254.161 70.9953 248.441 77.0768 245.808 76.7855C243.175 76.4943 226.002 69.9001 214.887 70.1215C203.773 70.3429 189.047 74.7816 189.047 74.7816L178.212 53.1003Z" fill="#FD3E72"/>
<path d="M157.358 66.7545L159.921 72.9642L161.086 75.7486C161.842 77.5876 163.275 79.0661 165.09 79.8791C166.904 80.692 168.962 80.7774 170.837 80.1175L191.051 75.1428L182.103 48.0557L161.575 56.6303C159.676 57.417 158.166 58.924 157.376 60.8214C156.585 62.7189 156.579 64.8523 157.358 66.7545Z" fill="#5B5863"/>
<path d="M165.327 75.8885L172.096 87.8884L175.183 86.8981L196.305 102.684L201.559 91.267C201.559 91.267 189.268 86.6069 186.845 82.3545C184.422 78.1021 186.973 77.0652 186.973 77.0652L181.031 70.8323L165.327 75.8885Z" fill="#5B5863"/>
<path d="M242.709 41.7876C248.208 57.8302 249.815 71.8106 246.285 73.0223C242.755 74.2339 235.45 62.1991 229.975 46.1565C224.499 30.114 222.868 16.1335 226.398 14.9219C229.928 13.7102 237.21 25.7917 242.709 41.7876Z" fill="#A62145"/>
<path d="M154.876 75.1546L160.34 73.9896L157.638 67.4304L153.432 69.5275L154.876 75.1546Z" fill="#807C8A"/>
<path d="M161.156 69.2129C161.226 69.3993 163.964 68.6187 167.284 67.477C169.333 66.8949 171.313 66.0942 173.191 65.0886C171.094 65.4552 169.04 66.0369 167.063 66.8245C165.016 67.4121 163.036 68.2126 161.156 69.2129Z" fill="#716E7A"/>
<path d="M162.869 73.3139C162.869 73.4071 163.521 73.3139 164.558 73.1042L166.375 72.6848C167.051 72.51 167.762 72.2304 168.519 71.9741C170.383 71.4312 172.169 70.6479 173.832 69.644C173.762 69.4576 171.292 70.2848 168.286 71.345C167.54 71.6129 166.841 71.9042 166.177 72.1139C165.513 72.3236 164.931 72.4867 164.441 72.6615C163.439 72.9644 162.869 73.2207 162.869 73.3139Z" fill="#716E7A"/>
<path d="M228.868 37.0228C228.868 37.0228 237.268 32.852 240.6 44.013C243.932 55.1741 235.415 56.0828 235.415 56.0828C232.34 50.0722 230.135 43.6545 228.868 37.0228Z" fill="#FAFAFA"/>
<path d="M221.633 23.4619C221.614 24.1591 221.653 24.8566 221.75 25.5473C221.878 26.8755 222.053 28.8094 222.344 31.1978C222.565 32.3628 222.821 33.6676 223.078 35.054C223.218 35.7414 223.357 36.4637 223.497 37.1977C223.579 37.5705 223.649 37.9433 223.719 38.3627C223.788 38.7822 223.928 39.12 224.033 39.5278L225.385 44.3161C225.501 44.7355 225.629 45.1549 225.746 45.5743C225.862 45.9937 226.049 46.4015 226.188 46.8326L227.144 49.3723C227.458 50.2228 227.785 51.0733 228.099 51.9121C228.262 52.3315 228.39 52.751 228.577 53.1471L229.136 54.3121L231.268 58.8208C231.431 59.1703 231.594 59.5315 231.781 59.8693C231.967 60.2072 232.153 60.5451 232.351 60.8713L233.447 62.7703C234.157 63.9353 234.81 65.1003 235.415 66.1605C236.767 68.1411 237.897 69.7139 238.678 70.8207C239.055 71.4019 239.48 71.9513 239.948 72.4634C239.652 71.8353 239.301 71.2349 238.899 70.6692L235.823 65.9042L233.936 62.4907L232.876 60.5917L232.328 59.6014C232.142 59.2635 231.99 58.9024 231.827 58.5412C231.163 57.1082 230.464 55.6053 229.753 54.0558L229.206 52.8908C229.019 52.4947 228.891 52.0636 228.728 51.6558C228.414 50.8286 228.099 49.9782 227.785 49.1277L226.829 46.6112C226.689 46.1918 226.503 45.784 226.386 45.3646C226.27 44.9452 226.142 44.5258 226.025 44.118L224.639 39.3647C224.534 38.9919 224.406 38.6191 224.324 38.1996C224.243 37.7802 224.161 37.454 224.091 37.0346C223.928 36.3123 223.788 35.6016 223.637 34.9142C223.346 33.5395 223.066 32.2696 222.821 31.0929C222.484 28.7628 222.204 26.8522 222.018 25.4891C221.941 24.8046 221.812 24.127 221.633 23.4619Z" fill="#CE305B"/>
<path d="M190.748 82.1564C191.172 82.3171 191.52 82.6317 191.723 83.0376C191.926 83.4434 191.969 83.9108 191.843 84.3467C191.365 86.1059 190.573 88.8554 189.956 90.5447C189.784 91.0949 189.511 91.6085 189.152 92.0592C188.975 92.2775 188.74 92.4421 188.475 92.5347C188.209 92.6273 187.923 92.6442 187.649 92.5835C187.371 92.4652 187.13 92.2739 186.951 92.0298C186.773 91.7858 186.664 91.4981 186.635 91.1971C186.589 90.5835 186.66 89.9666 186.845 89.3796C187.241 87.7486 188.01 85.2904 188.593 83.2865C188.651 83.0643 188.754 82.8565 188.896 82.6759C189.038 82.4953 189.215 82.3457 189.418 82.2365C189.62 82.1273 189.842 82.0607 190.071 82.0409C190.3 82.0211 190.53 82.0485 190.748 82.1215V82.1564Z" fill="#FFBE9D"/>
<path d="M193.358 85.2086C193.784 85.3671 194.135 85.6807 194.34 86.0868C194.545 86.4929 194.59 86.9615 194.464 87.3989C193.975 89.1581 193.183 91.9076 192.565 93.5852C192.401 94.1397 192.132 94.6577 191.773 95.1114C191.596 95.3297 191.362 95.4943 191.096 95.5869C190.831 95.6795 190.545 95.6964 190.27 95.6357C189.989 95.5217 189.745 95.3316 189.566 95.0867C189.387 94.8418 189.28 94.5518 189.257 94.2493C189.202 93.6363 189.269 93.0186 189.455 92.4318C189.862 90.8008 190.62 88.3309 191.202 86.327C191.261 86.1049 191.364 85.897 191.506 85.7164C191.648 85.5358 191.825 85.3862 192.027 85.277C192.229 85.1678 192.452 85.1012 192.68 85.0814C192.909 85.0616 193.14 85.0891 193.358 85.162V85.2086Z" fill="#FFBE9D"/>
<path d="M195.804 86.9914C196.184 87.1171 196.499 87.3857 196.684 87.7402C196.869 88.0947 196.909 88.5072 196.794 88.8904C196.352 90.4049 195.629 92.8049 195.07 94.2612C194.912 94.7369 194.667 95.1792 194.348 95.5661C194.184 95.7591 193.97 95.9043 193.73 95.9863C193.49 96.0683 193.233 96.0841 192.985 96.0321C192.74 95.9404 192.524 95.7834 192.362 95.5781C192.2 95.3727 192.097 95.1268 192.064 94.867C192.028 94.3357 192.092 93.8024 192.251 93.2942C192.624 91.8729 193.288 89.7991 193.859 88.005C193.989 87.6187 194.266 87.2994 194.63 87.1162C194.995 86.933 195.416 86.9007 195.804 87.0263V86.9914Z" fill="#FFBE9D"/>
<path d="M198.891 87.4572C199.271 87.5831 199.588 87.8511 199.775 88.205C199.961 88.559 200.004 88.9716 199.893 89.3562C199.439 90.8824 198.728 93.294 198.146 94.7503C197.997 95.2372 197.751 95.689 197.424 96.0785C197.267 96.302 197.042 96.4694 196.783 96.5564C196.524 96.6435 196.245 96.6455 195.984 96.5623C195.724 96.479 195.498 96.3149 195.337 96.0937C195.177 95.8725 195.092 95.606 195.093 95.3329C195.055 94.8007 195.122 94.2661 195.291 93.7601C195.664 92.3271 196.328 90.1834 196.899 88.4358C196.962 88.2423 197.063 88.0633 197.196 87.9091C197.329 87.7549 197.491 87.6286 197.673 87.5376C197.856 87.4466 198.054 87.3926 198.257 87.3788C198.46 87.365 198.664 87.3916 198.857 87.4572H198.891Z" fill="#FFBE9D"/>
<path d="M189.327 92.1172C189.97 91.1666 190.439 90.1095 190.713 88.9949C191.178 87.9466 191.443 86.8204 191.494 85.6746C190.843 86.621 190.373 87.6796 190.107 88.7969C189.635 89.843 189.37 90.9705 189.327 92.1172Z" fill="#EB996E"/>
<path d="M192.123 94.5291C192.804 93.421 193.3 92.2089 193.591 90.9407C194.084 89.7387 194.376 88.4632 194.453 87.166C193.771 88.2741 193.275 89.4862 192.985 90.7543C192.486 91.9547 192.194 93.2311 192.123 94.5291Z" fill="#EB996E"/>
<path d="M194.872 94.7155C195.596 93.8006 196.113 92.7393 196.387 91.6049C196.863 90.54 197.09 89.3805 197.051 88.2146C196.479 89.2135 196.052 90.2882 195.781 91.4068C195.312 92.4574 195.006 93.573 194.872 94.7155Z" fill="#EB996E"/>
<path d="M97.7312 52.343C102.17 44.8402 110.185 39.9703 118.597 37.6519C122.092 36.6849 124.539 36.9529 128.185 37.3607C131.819 37.6676 135.227 39.2479 137.809 41.8228C140.973 44.8471 143.321 48.6223 144.636 52.7974C145.925 57.0866 146.814 61.4859 147.292 65.939C147.764 70.4191 146.99 74.9425 145.055 79.0107L134.127 82.669C127.952 83.834 121.696 84.999 115.486 84.4981C109.277 83.9971 102.869 81.6554 98.8264 76.8438C93.1643 70.1798 93.2924 59.8459 97.7312 52.343Z" fill="#424047"/>
<path d="M91.8013 85.2086C91.7149 83.9191 91.9251 82.6269 92.4159 81.4313C92.9066 80.2357 93.6648 79.1685 94.6323 78.3116C95.6262 77.4816 96.8582 76.9891 98.1504 76.9054C99.4425 76.8216 100.728 77.1508 101.821 77.8455L103.906 79.6747C105.37 80.1012 106.665 80.9732 107.611 82.1696C108.557 83.3659 109.107 84.8272 109.184 86.3503C109.206 87.877 108.793 89.3784 107.992 90.6785C107.192 91.9785 106.037 93.0232 104.663 93.6901C103.274 94.32 101.746 94.5822 100.226 94.4517C98.7062 94.3211 97.2453 93.8021 95.9837 92.9444C94.7404 92.0617 93.7166 90.905 92.9914 89.5637C92.2662 88.2224 91.859 86.7323 91.8013 85.2086Z" fill="#424047"/>
<path d="M95.2032 92.4788C94.6679 91.8832 94.3372 91.132 94.2595 90.3351C94.3303 88.3882 94.9525 86.5015 96.0537 84.8944C97.0853 83.2269 98.4258 81.7717 100.003 80.607C101.168 79.6983 102.077 79.3022 102.03 79.209C101.218 79.4169 100.455 79.7809 99.7818 80.2808C98.0763 81.3913 96.6395 82.8678 95.576 84.6031C94.9897 85.5554 94.524 86.5768 94.1896 87.6438C93.8743 88.5198 93.7628 89.4561 93.8634 90.3817C93.9443 91.0149 94.2166 91.6084 94.644 92.0826C94.9469 92.4088 95.1799 92.5021 95.2032 92.4788Z" fill="#55535B"/>
<path d="M101.122 94.9716C100.54 92.5159 100.328 89.9871 100.492 87.4688C100.843 84.9746 101.578 82.5497 102.671 80.2805C102.14 80.8232 101.721 81.4643 101.436 82.1679C99.8152 85.4887 99.4032 89.2709 100.271 92.8629C100.422 93.6122 100.711 94.3271 101.122 94.9716Z" fill="#55535B"/>
<path d="M137.832 106.098C137.156 102.172 135.653 93.7485 135.653 93.7718C135.653 93.7951 144.659 91.3601 145.393 79.2438C145.766 73.2205 144.519 63.5157 143.249 55.6051C142.084 48.4868 134.558 39.7024 125.774 41.0189L121.801 41.1587L107.739 49.3955C106.695 49.605 105.77 50.2024 105.15 51.0672C104.529 51.932 104.26 52.9999 104.395 54.0556L112.096 104.956L133.894 147.608L138.822 117.317L137.832 106.098Z" fill="#FFBE9D"/>
<path d="M135.653 93.7718C130.037 94.3932 124.359 93.4455 119.25 91.0339C119.25 91.0339 124.306 98.8863 136.154 96.6145L135.653 93.7718Z" fill="#EB996E"/>
<path d="M106.947 70.739L109.277 72.5448C116.838 62.7235 130.9 38.8752 130.131 40.2849C125.88 39.3989 121.475 39.5871 117.316 40.8325C110.908 42.9645 98.9197 48.1605 100.294 55.8964C101.669 63.6322 106.947 70.739 106.947 70.739Z" fill="#424047"/>
<path d="M102.007 78.3468C101.971 77.7144 101.901 77.0843 101.797 76.4594C101.615 74.7529 101.584 73.0336 101.704 71.3216C102.18 65.6621 104.027 60.2037 107.087 55.4189C110.196 50.6711 114.011 46.4244 118.399 42.8248C120.077 41.4268 121.463 40.3433 122.442 39.5977C122.957 39.2384 123.451 38.8494 123.921 38.4326C123.921 38.4326 123.758 38.4326 123.49 38.6656C123.222 38.8986 122.815 39.0967 122.325 39.4462C121.312 40.1336 119.879 41.1705 118.166 42.5452C113.651 46.0836 109.75 50.3427 106.621 55.1509C103.51 60.0039 101.686 65.5689 101.32 71.3216C101.229 73.0583 101.318 74.7996 101.588 76.5177C101.669 77.1235 101.809 77.5779 101.867 77.9041C101.89 78.0581 101.937 78.2075 102.007 78.3468Z" fill="#55535B"/>
<path d="M118.76 38.7004C118.604 38.7608 118.456 38.8389 118.318 38.9334C118.026 39.0965 117.618 39.3412 117.094 39.6791C116.057 40.3548 114.566 41.3684 112.807 42.7431C110.756 44.3578 108.799 46.0888 106.947 47.9275C104.594 50.1096 102.517 52.5705 100.76 55.2556C99.8678 56.6767 99.174 58.2133 98.6983 59.8226C98.2661 61.3383 98.0465 62.9066 98.0459 64.4827C98.059 67.1079 98.4514 69.7173 99.2109 72.2302C99.8517 74.3739 100.504 76.0515 100.97 77.2049C101.203 77.7758 101.401 78.2185 101.529 78.5214C101.594 78.6754 101.672 78.8235 101.762 78.9641C101.599 78.3114 101.385 77.6726 101.122 77.0535C100.725 75.8884 100.131 74.1875 99.5488 72.0555C98.841 69.5735 98.4803 67.0054 98.4769 64.4245C98.502 62.9106 98.7252 61.4066 99.141 59.9507C99.611 58.3912 100.289 56.9021 101.157 55.5236C102.894 52.8823 104.927 50.4472 107.215 48.2654C109.067 46.4361 111.012 44.7018 113.04 43.0693C114.753 41.6713 116.209 40.6111 117.211 39.8888C117.755 39.5307 118.273 39.1336 118.76 38.7004Z" fill="#55535B"/>
<path d="M106.772 70.9603C107.108 70.6019 107.408 70.2117 107.669 69.7953L109.999 66.4633C111.898 63.6439 114.496 59.7177 117.327 55.3605C120.158 51.0032 122.71 47.0537 124.527 44.1644L126.659 40.7392C126.934 40.3282 127.176 39.8957 127.382 39.446C127.043 39.8021 126.742 40.1926 126.484 40.6111L124.154 43.9431C122.255 46.7625 119.657 50.6887 116.815 55.0459C113.972 59.4031 111.432 63.3643 109.615 66.2419L107.483 69.6788C107.203 70.0806 106.965 70.51 106.772 70.9603Z" fill="#55535B"/>
<path d="M109.172 73.8844C109.079 72.999 107.844 70.9951 106.958 70.9485C104.628 70.8087 100.364 71.4029 100.912 77.3679C101.646 85.5232 109.661 83.0882 109.661 82.8552C109.661 82.6222 109.475 76.9485 109.172 73.8844Z" fill="#FFBE9D"/>
<path d="M107.413 79.7913C107.413 79.7913 107.285 79.9078 107.052 80.036C106.891 80.1244 106.715 80.1803 106.533 80.2003C106.351 80.2202 106.167 80.204 105.991 80.1525C105.434 79.8697 104.963 79.4428 104.627 78.9162C104.291 78.3896 104.103 77.7826 104.081 77.1583C104.002 76.4592 104.078 75.7513 104.302 75.0846C104.356 74.8263 104.473 74.5851 104.641 74.3821C104.81 74.179 105.025 74.0202 105.269 73.9195C105.429 73.8654 105.602 73.867 105.761 73.9242C105.92 73.9813 106.054 74.0906 106.143 74.2341C106.271 74.4555 106.236 74.6186 106.271 74.6302C106.306 74.6419 106.434 74.4787 106.341 74.1525C106.281 73.9553 106.153 73.7858 105.98 73.6749C105.862 73.599 105.73 73.5476 105.592 73.5236C105.454 73.4995 105.312 73.5035 105.176 73.5351C104.845 73.6287 104.544 73.8069 104.303 74.052C104.062 74.2972 103.889 74.6008 103.801 74.9331C103.511 75.6732 103.414 76.4754 103.522 77.2632C103.72 78.9059 104.687 80.3622 105.852 80.5952C106.076 80.6404 106.308 80.6346 106.53 80.5781C106.751 80.5216 106.958 80.416 107.133 80.269C107.413 79.9894 107.436 79.803 107.413 79.7913Z" fill="#EB996E"/>
<path d="M90.0421 375.396C90.2052 376.678 93.3624 412.503 93.3624 412.503H109.778L112.655 375.548L90.0421 375.396Z" fill="#FFBE9D"/>
<path d="M109.824 407.167C109.824 407.167 98.2905 415.322 92.7216 408.274L91.2537 411.699L84.7062 436.165C84.4813 436.931 84.5443 437.753 84.8833 438.476C85.2223 439.199 85.814 439.774 86.5469 440.091C87.1092 440.314 87.7236 440.373 88.3179 440.259C88.9122 440.146 89.4618 439.865 89.9022 439.45C94.6439 434.93 112.038 418.258 111.828 415.998L111.77 409.998C111.76 409.388 111.57 408.795 111.224 408.294C110.878 407.792 110.391 407.404 109.824 407.179V407.167Z" fill="#FD3E72"/>
<path d="M87.1411 440.242L111.84 413.901V415.205C111.869 415.745 111.78 416.284 111.578 416.785C111.377 417.286 111.069 417.737 110.675 418.106C108.671 420.798 103.137 426.833 90.0071 439.438C89.6311 439.799 89.1715 440.062 88.6694 440.202C88.1672 440.342 87.6382 440.356 87.1294 440.242H87.1411Z" fill="#263238"/>
<path d="M108.217 409.986C107.835 410.265 107.57 410.675 107.471 411.137C107.372 411.599 107.447 412.081 107.681 412.491C107.945 412.884 108.349 413.16 108.81 413.264C109.272 413.368 109.755 413.292 110.162 413.05C110.566 412.753 110.845 412.318 110.946 411.827C111.047 411.337 110.963 410.826 110.71 410.394C110.394 410.015 109.943 409.772 109.452 409.718C108.961 409.664 108.468 409.802 108.077 410.103" fill="white"/>
<path d="M94.2362 426.751C93.4975 425.779 92.5802 424.956 91.5333 424.328C90.4201 423.885 89.2359 423.648 88.0382 423.629C88.0382 423.559 88.3994 423.314 89.1217 423.221C90.0751 423.112 91.0393 423.287 91.8944 423.722C92.7598 424.139 93.4816 424.804 93.9682 425.632C94.2711 426.262 94.3177 426.728 94.2362 426.751Z" fill="#263238"/>
<path d="M92.0227 430.887C91.1386 430.381 90.2242 429.93 89.2848 429.536C88.2875 429.345 87.28 429.213 86.2674 429.14C86.1742 428.976 87.6654 428.336 89.4829 428.895C91.3003 429.454 92.1858 430.806 92.0227 430.887Z" fill="#263238"/>
<path d="M98.3605 421.45C97.0599 420.575 95.697 419.796 94.2828 419.12C92.7836 418.639 91.2488 418.277 89.6926 418.037C89.6926 417.862 91.9528 417.442 94.5392 418.491C96.1243 418.992 97.4791 420.041 98.3605 421.45Z" fill="#263238"/>
<path d="M98.9196 414.006C98.8264 414.192 97.1255 413.47 94.9003 413.388C92.675 413.307 90.9158 413.819 90.8459 413.633C92.0991 412.957 93.5123 412.635 94.9344 412.701C96.3566 412.766 97.7341 413.217 98.9196 414.006Z" fill="#263238"/>
<path d="M93.6304 413.318C93.6077 412.922 93.6672 412.526 93.8051 412.153C94.1121 411.121 94.6188 410.159 95.2964 409.322C95.7371 408.662 96.3845 408.166 97.1371 407.913C97.3919 407.852 97.6591 407.871 97.9028 407.967C98.1465 408.062 98.355 408.231 98.5002 408.449C98.7495 408.895 98.8282 409.417 98.7216 409.916C98.4599 410.932 97.8503 411.825 96.9988 412.438C96.1474 413.051 95.108 413.346 94.0614 413.272C93.0353 413.184 92.0582 412.794 91.2536 412.152C90.449 411.509 89.853 410.642 89.5411 409.66C89.4642 409.412 89.4421 409.15 89.4763 408.893C89.5105 408.635 89.6002 408.388 89.7392 408.169C89.8912 407.952 90.1125 407.794 90.3666 407.72C90.6207 407.646 90.8925 407.66 91.1372 407.761C91.8547 408.066 92.4809 408.552 92.9546 409.171C93.6526 409.987 94.2045 410.917 94.5857 411.92C94.7553 412.286 94.8465 412.683 94.8537 413.085C94.2805 411.792 93.5189 410.591 92.5935 409.52C92.1592 409.008 91.6076 408.609 90.9857 408.355C90.8509 408.304 90.7029 408.297 90.5642 408.337C90.4254 408.377 90.3035 408.461 90.2168 408.577C90.133 408.726 90.0832 408.893 90.0711 409.064C90.059 409.235 90.0849 409.407 90.1469 409.567C90.4559 410.396 90.9948 411.121 91.7004 411.655C92.406 412.189 93.2492 412.512 94.1313 412.584C95.0121 412.636 95.8843 412.388 96.6058 411.88C97.3273 411.372 97.8554 410.635 98.1041 409.788C98.1885 409.444 98.1472 409.08 97.9876 408.763C97.9126 408.639 97.8 408.541 97.666 408.484C97.532 408.428 97.3836 408.415 97.242 408.449C96.6119 408.669 96.0635 409.075 95.6692 409.614C94.7771 410.719 94.0869 411.973 93.6304 413.318Z" fill="#263238"/>
<path d="M180.181 363.734L177.35 409.473L157.474 409.334L154.119 361.812L180.181 363.734Z" fill="#FFBE9D"/>
<path d="M177.711 403.951V405.279C177.711 405.279 200.15 414.192 200.429 418.409H155.925L156.554 403.602C159.849 405.176 163.444 406.022 167.094 406.082C170.745 406.143 174.366 405.416 177.711 403.951Z" fill="#FD3E72"/>
<path d="M161.051 408.32C160.623 408.45 160.258 408.734 160.025 409.117C159.793 409.499 159.71 409.954 159.793 410.394C159.906 410.826 160.18 411.199 160.559 411.435C160.939 411.671 161.394 411.753 161.832 411.664C162.286 411.526 162.673 411.224 162.918 410.818C163.163 410.411 163.249 409.928 163.16 409.462C162.994 409.023 162.665 408.665 162.242 408.463C161.818 408.261 161.333 408.231 160.888 408.379" fill="white"/>
<path d="M155.878 418.41L156.03 414.856L198.624 416.208C198.624 416.208 200.604 417.07 200.383 418.456L155.878 418.41Z" fill="#263238"/>
<path d="M177.886 405.408C177.886 405.618 176.791 405.711 175.719 406.41C174.647 407.109 174.076 408.029 173.878 407.936C173.68 407.843 174.006 406.596 175.311 405.781C176.616 404.965 177.933 405.198 177.886 405.408Z" fill="#263238"/>
<path d="M182.546 407.342C182.546 407.551 181.661 407.912 180.915 408.833C180.169 409.753 179.96 410.72 179.75 410.72C179.54 410.72 179.389 409.474 180.332 408.39C181.276 407.307 182.546 407.132 182.546 407.342Z" fill="#263238"/>
<path d="M185.191 412.922C184.993 412.922 184.69 411.885 185.191 410.697C185.692 409.509 186.775 409.031 186.868 409.217C186.962 409.404 186.321 410.033 185.878 411.012C185.435 411.99 185.412 412.911 185.191 412.922Z" fill="#263238"/>
<path d="M154.119 222.182C154.713 223.895 178.282 303.735 178.282 303.735L182.336 398.487L153.001 400.177L142.515 305.576L115.719 246.403L127.498 198.264H151.451L154.119 222.182Z" fill="#4D2A15"/>
<path d="M133.242 198.287C132.822 199.452 117.782 253.627 117.782 253.627L115.696 334.41V401.249H88.9585L76.5043 253.848C76.5043 253.848 74.3024 227.052 78.0654 218.046C81.8285 209.041 97.0672 193.219 97.0672 193.219L133.242 198.287Z" fill="#4D2A15"/>
<path d="M131.086 203.833C130.836 204.446 130.634 205.077 130.48 205.72C130.096 207.037 129.583 208.784 128.978 210.893C127.626 215.355 125.832 221.378 123.84 227.938C121.848 234.497 120.251 240.753 119.319 245.169C118.83 247.405 118.516 249.223 118.329 250.481C118.197 251.13 118.123 251.788 118.108 252.45C118.306 251.821 118.458 251.179 118.562 250.528C118.818 249.281 119.203 247.475 119.727 245.273C120.764 240.835 122.442 234.788 124.387 228.112C126.333 221.437 128.174 215.413 129.35 211.01C129.945 208.808 130.399 207.025 130.679 205.779C130.871 205.143 131.007 204.492 131.086 203.833Z" fill="#301A0D"/>
<path d="M121.859 203.833C122.522 204.046 123.106 204.451 123.537 204.998C123.744 205.293 123.874 205.635 123.915 205.993C123.955 206.352 123.906 206.714 123.77 207.048C123.608 207.452 123.337 207.802 122.987 208.059C122.637 208.316 122.222 208.471 121.789 208.505C121.354 208.511 120.926 208.395 120.554 208.171C120.181 207.947 119.878 207.622 119.681 207.235C119.51 206.918 119.421 206.564 119.421 206.204C119.421 205.844 119.51 205.49 119.681 205.173C120.053 204.575 120.597 204.104 121.242 203.821C121.242 203.821 121.009 203.763 120.624 203.891C120.081 204.092 119.622 204.469 119.319 204.963C119.073 205.33 118.926 205.756 118.896 206.198C118.865 206.639 118.951 207.081 119.145 207.479C119.37 207.984 119.742 208.41 120.212 208.7C120.682 208.991 121.229 209.133 121.781 209.107C122.334 209.082 122.865 208.891 123.307 208.559C123.749 208.227 124.081 207.77 124.259 207.246C124.412 206.831 124.455 206.383 124.384 205.946C124.312 205.509 124.129 205.098 123.851 204.753C123.5 204.29 123.004 203.958 122.442 203.81C122.092 203.751 121.859 203.798 121.859 203.833Z" fill="#301A0D"/>
<path d="M98.1274 242.745C98.1125 242.881 98.1125 243.017 98.1274 243.153C98.1274 243.456 98.1274 243.84 98.1274 244.318C98.1274 245.413 98.1274 246.951 98.1274 248.908C98.1274 252.904 98.1274 258.671 98.2556 265.801C98.4653 280.061 99.106 299.739 99.9449 321.478C100.784 343.218 101.483 362.907 101.809 377.155C101.972 384.286 102.077 390.052 102.135 394.037C102.135 395.994 102.135 397.532 102.205 398.627C102.205 399.116 102.205 399.505 102.205 399.792C102.153 399.801 102.107 399.829 102.074 399.87C102.042 399.912 102.027 399.964 102.031 400.016C102.035 400.069 102.059 400.118 102.098 400.153C102.137 400.189 102.187 400.209 102.24 400.209C102.293 400.209 102.343 400.189 102.382 400.153C102.421 400.118 102.445 400.069 102.449 400.016C102.453 399.964 102.438 399.912 102.406 399.87C102.373 399.829 102.327 399.801 102.275 399.792C102.275 399.489 102.275 399.093 102.275 398.627C102.275 397.532 102.275 395.994 102.275 394.037C102.275 390.041 102.275 384.274 102.147 377.144C101.925 362.884 101.296 343.195 100.457 321.455C99.6187 299.715 98.9196 280.038 98.5934 265.79C98.4303 258.66 98.3138 252.893 98.2672 248.908C98.2672 246.951 98.209 245.413 98.1973 244.318C98.1973 243.817 98.1973 243.432 98.1973 243.153C98.1921 243.014 98.1686 242.877 98.1274 242.745Z" fill="#301A0D"/>
<path d="M139.381 233.017C139.412 233.157 139.454 233.293 139.51 233.425L139.964 234.59C140.395 235.674 141.001 237.211 141.77 239.18C143.366 243.188 145.661 248.932 148.504 256.015C151.346 263.099 154.585 271.65 157.684 281.273C161.224 291.648 163.703 302.355 165.082 313.23C165.7 319.055 165.968 324.741 166.317 330.228C166.667 335.715 166.9 341.028 167.179 346.084C167.703 356.185 168.17 365.284 168.566 372.95C168.962 380.616 169.381 386.779 169.731 391.043C169.905 393.152 170.034 394.794 170.127 395.959C170.185 396.495 170.22 396.915 170.255 397.229C170.265 397.378 170.284 397.526 170.313 397.672C170.329 397.525 170.329 397.377 170.313 397.229C170.313 396.915 170.313 396.484 170.255 395.948C170.185 394.783 170.092 393.14 169.964 391.031C169.719 386.756 169.393 380.546 169.032 372.927C168.67 365.307 168.239 356.162 167.773 346.061C167.505 341.005 167.237 335.692 166.946 330.193C166.655 324.694 166.34 318.997 165.723 313.172C164.317 302.264 161.799 291.529 158.208 281.133C155.074 271.499 151.731 263.005 148.888 255.899C146.045 248.792 143.622 243.083 141.979 239.134C141.164 237.177 140.523 235.639 140.069 234.578L139.556 233.413C139.512 233.276 139.454 233.143 139.381 233.017Z" fill="#301A0D"/>
<path d="M99.0478 102.917C99.0478 102.917 83.145 105.888 79.6499 108.801C76.1548 111.714 44.3026 153.259 43.6386 161.647C42.9745 170.035 46.8541 173.111 49.056 175.103C51.2579 177.095 89.3314 202.878 89.3314 202.878L101.04 183.457L68.1393 163.802L84.0188 136.645L99.0478 102.917Z" fill="#FD3E72"/>
<path d="M137.587 104.933L133.37 143.193L111.852 100.086L97.9759 114.183C97.9759 114.183 89.4595 164.571 89.3313 164.932C89.2032 165.294 95.1565 193.755 95.1565 193.755L134.593 201.386L146.628 198.322L148.527 153.503L149.366 119.181L137.587 104.933Z" fill="white"/>
<path d="M142.702 106.564L152.942 108.894C154.311 109.21 155.582 109.854 156.647 110.77C165.385 118.249 184.282 134.07 184.282 134.07L180.787 105.993L198.985 104.304C198.985 104.304 204.437 139.698 203.878 149.006C203.214 159.818 193.521 162.474 179.412 156.66C170.692 153.161 162.252 149.002 154.166 144.218L142.702 106.564Z" fill="#FD3E72"/>
<path d="M85.5917 136.797L87.4674 170.35L85.58 176.874C85.58 176.874 67.9181 210.217 65.0055 232.295L86.8616 235.79C86.8616 235.79 92.8266 207.305 97.0207 193.185C101.215 179.064 113.622 173.123 117.817 158.606C120.342 150.313 121.24 141.61 120.461 132.975C120.461 132.09 111.852 100.075 111.852 100.075L110.314 93.3875L102.578 100.739L82.714 107.345L85.5917 136.797Z" fill="#FD3E72"/>
<g opacity="0.3">
<path opacity="0.3" d="M75.1762 199.196C78.7892 201.988 82.5668 204.559 86.4887 206.897C86.7217 207.014 87.0246 207.142 87.3625 207.27C88.1495 207.559 89.0144 207.556 89.7993 207.261C90.5842 206.966 91.2369 206.398 91.6381 205.662C92.1042 204.812 92.5818 203.915 92.8964 203.239C93.7003 201.503 94.574 199.417 95.3546 197.612L92.8964 197.018L89.3314 202.924L79.0557 195.934L77.0985 194.594L75.1762 199.196Z" fill="black"/>
</g>
<path d="M137.401 101.158L142.177 106.156L153.63 110.176C153.63 110.176 156.426 143.962 154.911 151.162C153.443 158.082 150.647 166.493 150.414 176.431C150.181 186.369 161.529 238.889 161.529 238.889L147.805 244.097C147.805 244.097 140.814 183.293 142.177 170.035C143.541 156.777 139.999 130.051 139.999 130.051L137.401 101.158Z" fill="#FD3E72"/>
<path d="M111.421 165.596C111.605 165.43 111.772 165.247 111.921 165.049C112.366 164.485 112.756 163.88 113.086 163.243C114.232 160.856 114.84 158.248 114.869 155.6C114.913 151.701 114.64 147.805 114.053 143.95C113.417 139.227 112.447 134.556 111.153 129.97C108.955 122.085 105.826 114.489 101.832 107.344L101.646 107.682L106.504 107.531H106.854L106.644 107.251L103.452 102.964L102.59 101.799C102.497 101.664 102.388 101.543 102.263 101.438C102.326 101.587 102.409 101.728 102.508 101.857L103.3 103.022L106.353 107.414L106.492 107.135L101.634 107.193H101.261L101.448 107.519C105.328 114.679 108.399 122.247 110.605 130.086C111.887 134.642 112.867 139.277 113.541 143.962C114.135 147.778 114.447 151.633 114.473 155.495C114.476 158.092 113.945 160.662 112.912 163.045C112.462 163.922 111.964 164.774 111.421 165.596Z" fill="#CE305B"/>
<path d="M97.976 134.618C99.7943 135.229 101.687 135.59 103.603 135.69C105.498 135.978 107.423 136.001 109.323 135.76C107.454 135.404 105.562 135.178 103.661 135.084C101.78 134.788 99.88 134.632 97.976 134.618Z" fill="#CE305B"/>
<path d="M84.0421 126.836C84.0735 127.409 84.1554 127.978 84.2868 128.537C84.4382 129.632 84.6363 131.216 84.8227 133.197C85.1955 137.135 85.5683 142.575 85.9877 148.587L86.9198 164C87.0596 165.969 87.1761 167.565 87.2809 168.661C87.3 169.234 87.3781 169.804 87.5139 170.361C87.5593 169.792 87.5593 169.219 87.5139 168.649C87.5139 167.426 87.4207 165.853 87.3508 163.989C87.1994 160.039 86.9547 154.587 86.5935 148.564C86.2324 142.54 85.778 137.1 85.2887 133.162C85.0557 131.205 84.7877 129.667 84.5664 128.502C84.4458 127.931 84.2702 127.373 84.0421 126.836Z" fill="#CE305B"/>
<path d="M58.6094 164.92C58.6676 165.095 60.8113 164.408 63.5608 164.21C66.3103 164.012 68.5238 164.361 68.5588 164.21C66.9487 163.612 65.2171 163.416 63.5142 163.639C61.8 163.665 60.1175 164.105 58.6094 164.92Z" fill="#CE305B"/>
<path d="M184.165 133.418C184.513 134.929 185.053 136.39 185.773 137.764C186.308 139.219 187.033 140.598 187.928 141.864C187.588 140.351 187.047 138.89 186.321 137.519C185.779 136.066 185.055 134.688 184.165 133.418Z" fill="#CE305B"/>
<path d="M155.599 122.222C155.436 122.222 155.168 128.816 155.016 136.96C154.865 145.103 154.865 151.709 155.016 151.709C155.168 151.709 155.447 145.115 155.61 136.971C155.773 128.828 155.762 122.234 155.599 122.222Z" fill="#CE305B"/>
<path d="M142.014 149.927C142.12 149.366 142.171 148.796 142.166 148.226C142.166 147.061 142.259 145.453 142.329 143.566C142.445 139.639 142.574 134.245 142.667 128.234C142.76 122.222 142.807 116.816 142.818 112.89C142.818 111.014 142.818 109.453 142.818 108.23C142.841 107.661 142.81 107.092 142.725 106.529C142.619 107.09 142.569 107.659 142.574 108.23C142.574 109.395 142.48 111.003 142.41 112.89C142.294 116.816 142.177 122.21 142.084 128.222C141.991 134.234 141.933 139.628 141.921 143.554C141.921 145.43 141.921 147.049 141.921 148.214C141.905 148.787 141.936 149.359 142.014 149.927Z" fill="#CE305B"/>
<path d="M55.7667 179.927C55.962 180.107 56.1725 180.271 56.3958 180.416L58.2598 181.756L65.2501 186.66L89.1567 203.169L89.413 203.355L89.5761 203.088L94.8187 194.396L101.273 183.655L101.424 183.398L101.18 183.247L77.5762 169.266L70.6559 165.235L68.7918 164.175C68.5806 164.044 68.3584 163.931 68.1277 163.837C68.3183 164.002 68.5252 164.146 68.7452 164.268L70.551 165.433L77.3781 169.604L100.889 183.76L100.784 183.352C98.7449 186.742 96.5546 190.342 94.3061 194.082L89.0751 202.773L89.5062 202.68C79.9295 196.179 71.5296 190.47 65.4831 186.369L58.3763 181.616L56.454 180.358C56.2362 180.197 56.0064 180.053 55.7667 179.927Z" fill="#CE305B"/>
<g opacity="0.3">
<path opacity="0.3" d="M113.017 163.103C113.374 158.093 112.897 153.057 111.607 148.202C108.596 134.583 103.645 121.467 96.9041 109.255C97.6876 108.823 98.5857 108.645 99.4746 108.745C100.364 108.846 101.2 109.219 101.867 109.814C103.175 111.039 104.187 112.545 104.826 114.218C109.969 125.202 113.219 136.975 114.438 149.041C114.739 151.359 114.798 153.702 114.613 156.031C114.38 158.478 114.38 161.041 112.865 162.963" fill="black"/>
</g>
<g opacity="0.3">
<path opacity="0.3" d="M155.634 124.668C159.257 130.96 158.779 138.532 155.319 144.917C155.319 137.927 155.319 131.81 155.739 124.762" fill="black"/>
</g>
<path d="M106.539 82.7271C106.705 82.2946 107.01 81.93 107.407 81.6914C107.804 81.4528 108.27 81.3539 108.729 81.4106C108.99 81.4402 109.24 81.5265 109.464 81.6634C109.687 81.8002 109.878 81.9843 110.022 82.2028C110.252 82.5828 110.354 83.0261 110.314 83.4682C110.275 83.9103 110.095 84.3282 109.801 84.661C109.493 84.9791 109.089 85.1868 108.651 85.2521C108.213 85.3174 107.765 85.2366 107.378 85.0222C107 84.79 106.712 84.4371 106.559 84.0205C106.407 83.604 106.4 83.1482 106.539 82.7271Z" fill="#FAFAFA"/>
<path d="M100.527 184.656L114.007 172.715L125.389 173.693C125.389 173.693 124.993 175.557 123.42 175.849C121.848 176.14 116.162 176.245 116.162 176.245L113.494 178.889L120.286 178.214L128.919 183.305C128.919 183.305 129.117 184.878 126.857 184.47C124.614 183.924 122.417 183.203 120.286 182.315L115.265 182.606L120.741 183.398L127.836 188.396C127.365 188.886 126.768 189.238 126.11 189.413C125.453 189.587 124.76 189.578 124.108 189.386C121.848 188.699 119.11 187.615 119.11 187.615L112.923 187.021L119.11 188.594L123.712 194.291C123.276 194.595 122.757 194.758 122.226 194.758C121.695 194.758 121.177 194.595 120.741 194.291C119.83 193.652 118.955 192.963 118.119 192.229L111.257 191.926C111.257 191.926 103.673 197.425 101.04 198.019C98.407 198.613 92.8847 197.006 92.8847 197.006L100.527 184.656Z" fill="#FFBE9D"/>
</svg>
