<svg width="492" height="492" viewBox="0 0 492 492" fill="none" xmlns="http://www.w3.org/2000/svg">
<circle cx="246" cy="246" r="246" fill="#FFEAF0"/>
<path d="M245.562 428.092C346.371 428.092 428.092 346.371 428.092 245.562C428.092 144.754 346.371 63.032 245.562 63.032C144.754 63.032 63.032 144.754 63.032 245.562C63.032 346.371 144.754 428.092 245.562 428.092Z" fill="#FFDDE5"/>
<g filter="url(#filter0_d)">
<path d="M58.5159 136.006H437.142C444.131 136.006 449.797 141.672 449.797 148.661V390.47C449.797 397.46 444.131 403.125 437.142 403.125H58.5159C51.5267 403.125 45.8609 397.46 45.8609 390.47V148.661C45.8609 141.672 51.5267 136.006 58.5159 136.006Z" fill="#C1C1C1"/>
<path d="M463.016 385.866H25.3884V393.779C25.3884 397.879 27.0173 401.812 29.9167 404.711C32.8161 407.611 36.7486 409.24 40.8489 409.24H447.556C451.656 409.24 455.588 407.611 458.488 404.711C461.387 401.812 463.016 397.879 463.016 393.779V385.866Z" fill="#FD3E72"/>
<path d="M287.645 383.366L282.216 392H205.799L200.762 383.366H287.645Z" fill="#263238"/>
<path d="M49.3352 383.365C49.3352 383.504 138.989 383.626 249.549 383.626C360.109 383.626 449.797 383.504 449.797 383.365C449.797 383.226 360.161 383.105 249.549 383.105C138.937 383.105 49.3352 383.218 49.3352 383.365Z" fill="#263238"/>
<path d="M61.8519 151.362H435.388C436.957 151.362 438.228 152.633 438.228 154.202V373.463C438.228 375.032 436.957 376.303 435.388 376.303H61.8519C60.2833 376.303 59.0117 375.032 59.0117 373.463V154.202C59.0117 152.633 60.2833 151.362 61.8519 151.362Z" fill="#EBEBEB"/>
<path d="M59.4066 376.625H438.632L438.224 168.169H59.4066V376.625Z" fill="white"/>
<path d="M192.891 215.017H303.199L303.08 183.749H192.891V215.017Z" fill="#FFEFF3"/>
<path d="M225.896 307.085H269.324L269.277 263.657H225.896V307.085Z" fill="#FFEFF3"/>
<path d="M112.985 307.085H156.414L156.367 263.657H112.985V307.085Z" fill="#FFEFF3"/>
<path d="M282.357 307.085H325.785L325.738 263.657H282.357V307.085Z" fill="#FFEFF3"/>
<path d="M169.438 307.085H212.866L212.819 263.657H169.438V307.085Z" fill="#FFEFF3"/>
<path d="M338.813 307.085H382.241L382.194 263.657H338.813V307.085Z" fill="#FFEFF3"/>
<path d="M146.858 235.863C146.858 240.181 150.358 243.68 154.675 243.68H341.307C345.667 243.68 349.184 240.114 349.124 235.754C349.064 231.48 345.582 228.046 341.307 228.046H154.675C150.358 228.046 146.858 231.546 146.858 235.863Z" fill="#FFEFF3"/>
<path d="M116.459 333.143H379.635L379.352 323.589H116.459V333.143Z" fill="#FFEFF3"/>
<path d="M161.623 349.646H334.468L334.281 340.092H161.623V349.646Z" fill="#FFEFF3"/>
<path d="M407.123 160.048C407.122 160.648 407.298 161.235 407.63 161.734C407.962 162.234 408.435 162.624 408.989 162.855C409.542 163.085 410.152 163.147 410.741 163.031C411.329 162.915 411.87 162.627 412.295 162.203C412.72 161.779 413.009 161.239 413.127 160.651C413.245 160.063 413.185 159.453 412.956 158.898C412.727 158.344 412.338 157.87 411.84 157.537C411.341 157.203 410.755 157.025 410.155 157.025C409.352 157.025 408.583 157.343 408.014 157.91C407.446 158.477 407.126 159.245 407.123 160.048Z" fill="#263238"/>
<path d="M425.477 160.048C425.475 160.648 425.652 161.235 425.984 161.734C426.316 162.234 426.788 162.624 427.342 162.855C427.896 163.085 428.506 163.147 429.094 163.031C429.683 162.915 430.224 162.627 430.649 162.203C431.073 161.779 431.363 161.239 431.481 160.651C431.598 160.063 431.539 159.453 431.31 158.898C431.08 158.344 430.692 157.87 430.193 157.537C429.695 157.203 429.108 157.025 428.508 157.025C427.706 157.025 426.936 157.343 426.368 157.91C425.8 158.477 425.479 159.245 425.477 160.048Z" fill="#263238"/>
<path d="M416.667 160.048C416.665 160.648 416.842 161.235 417.174 161.734C417.506 162.234 417.979 162.624 418.532 162.855C419.086 163.085 419.696 163.147 420.284 163.031C420.873 162.915 421.414 162.627 421.839 162.203C422.264 161.779 422.553 161.239 422.671 160.651C422.789 160.063 422.729 159.453 422.5 158.898C422.271 158.344 421.882 157.87 421.383 157.537C420.885 157.203 420.298 157.025 419.698 157.025C418.896 157.025 418.126 157.343 417.558 157.91C416.99 158.477 416.669 159.245 416.667 160.048Z" fill="#263238"/>
<path d="M59.007 356.5H438.632V376.634H59.007V356.5Z" fill="#5B5863"/>
</g>
<path d="M330.927 192.566C336.204 195.57 340.833 199.59 344.546 204.393C348.259 209.197 350.982 214.69 352.559 220.553C358.191 240.703 375.414 293.178 375.414 293.178C375.414 293.178 385.256 304.757 386.305 313.328C387.355 321.899 385.256 342.644 382.084 346.515C381.164 347.635 379.984 348.514 378.647 349.075C377.309 349.636 375.856 349.862 374.411 349.733L332.98 345.804L316.654 236.575L330.927 192.566Z" fill="#FD3E72"/>
<path d="M193.924 190.654C193.924 190.654 164.293 199.983 156.912 208.029L181.167 320.872L180.782 356.497H321.227C321.227 354.747 322.486 238.289 322.486 238.289L330.929 192.59L281.008 183.797L271.166 176.066L215.625 178.876L207.182 187.319L193.924 190.654Z" fill="#FD3E72"/>
<g opacity="0.3">
<path opacity="0.3" d="M205.181 288.549C204.75 287.593 204.12 286.567 203.094 286.345C201.403 285.996 200.272 288.001 199.7 289.634C195.223 302.426 189.016 314.545 181.253 325.655L180.891 342.983C189.054 336.091 197.147 328.71 202.371 319.369C207.595 310.029 209.589 298.31 205.181 288.549Z" fill="black"/>
</g>
<path d="M156.913 208.029C156.913 208.029 147.153 221.334 143.106 230.022C139.06 238.709 105.465 311.649 103.459 319.193C101.453 326.738 96.2292 350.468 111.622 355.961H143.176L174.848 291.918L176.352 217.579L156.913 208.029Z" fill="#FD3E72"/>
<path d="M145.124 309.701C145.124 309.701 144.425 309.083 142.967 308.255C140.89 307.133 138.658 306.323 136.344 305.853C134.755 305.499 133.141 305.273 131.516 305.177C129.662 305.023 127.795 305.145 125.977 305.538C121.829 306.604 118.116 308.935 115.354 312.208C112.543 315.444 110.488 319.263 109.337 323.391C108.389 326.765 107.757 330.22 107.448 333.711C107.145 336.696 107.04 339.122 106.935 340.801C106.935 341.582 106.841 342.224 106.818 342.737C106.81 342.964 106.783 343.191 106.736 343.413C106.709 343.189 106.709 342.962 106.736 342.737C106.736 342.224 106.736 341.571 106.736 340.79C106.736 339.11 106.806 336.673 107.051 333.676C107.297 330.127 107.894 326.612 108.835 323.181C109.986 318.963 112.07 315.057 114.934 311.754C117.782 308.389 121.617 306.006 125.895 304.944C127.766 304.554 129.684 304.448 131.586 304.629C133.232 304.75 134.866 305.003 136.472 305.387C138.812 305.901 141.055 306.783 143.119 307.999C143.675 308.343 144.202 308.733 144.693 309.165C144.859 309.325 145.004 309.505 145.124 309.701Z" fill="#E63766"/>
<path d="M130.161 296.946C130.506 296.845 130.863 296.79 131.222 296.783C132.196 296.701 133.175 296.701 134.149 296.783C135.6 296.868 137.04 297.082 138.452 297.424C140.18 297.852 141.863 298.446 143.478 299.197C145.077 299.983 146.599 300.916 148.026 301.984C149.179 302.871 150.252 303.858 151.232 304.934C151.895 305.663 152.499 306.443 153.04 307.266C153.26 307.551 153.44 307.865 153.576 308.199C153.483 308.269 152.62 307.033 150.917 305.26C149.915 304.249 148.835 303.317 147.687 302.473C144.893 300.397 141.726 298.877 138.359 297.996C136.98 297.64 135.577 297.391 134.161 297.249C131.688 296.934 130.161 297.028 130.161 296.946Z" fill="#E63766"/>
<path d="M158.684 293.435C158.196 293.455 157.707 293.42 157.227 293.33C156.294 293.202 154.953 293.074 153.274 292.946C144.553 292.295 135.789 293.345 127.468 296.036C125.87 296.549 124.588 297.004 123.713 297.33C123.269 297.534 122.804 297.687 122.325 297.785C122.733 297.519 123.166 297.296 123.62 297.12C124.471 296.712 125.742 296.199 127.328 295.628C135.656 292.683 144.533 291.619 153.32 292.514C154.988 292.701 156.341 292.899 157.262 293.097C157.747 293.157 158.224 293.27 158.684 293.435Z" fill="#E63766"/>
<path d="M248.583 231.107C248.463 230.989 248.354 230.86 248.257 230.722L247.394 229.556L244.222 225.16L233.237 209.65L233.727 209.581L228.176 225.906L228.048 226.279L227.733 226.069L227.069 225.649C224.531 224.019 222.221 222.059 220.2 219.819C218.339 217.728 216.695 215.454 215.291 213.032C212.958 208.919 211.144 204.532 209.892 199.972C209.047 196.9 208.366 193.786 207.851 190.643C207.665 189.582 207.525 188.742 207.408 188.101C207.408 187.809 207.303 187.6 207.268 187.448C207.233 187.296 207.175 187.238 207.187 187.238C207.198 187.238 207.665 188.404 208.084 190.596C208.504 192.789 209.169 195.984 210.312 199.82C211.605 204.325 213.442 208.656 215.781 212.717C217.174 215.094 218.803 217.325 220.643 219.376C222.629 221.566 224.9 223.48 227.395 225.066L228.036 225.486L227.593 225.638C229.587 219.807 231.476 214.35 233.202 209.312L233.377 208.788L233.692 209.242C238.077 215.598 241.855 220.997 244.502 224.88C245.773 226.757 246.834 228.273 247.545 229.358C247.86 229.859 248.128 230.255 248.327 230.524C248.439 230.705 248.526 230.901 248.583 231.107Z" fill="#E63766"/>
<g opacity="0.3">
<path opacity="0.3" d="M285.138 284.971C283.879 298.125 286.731 311.346 293.301 322.811C299.843 334.18 309.417 344.314 321.346 349.748C321.731 338.168 321.171 324.525 321.556 312.946L285.138 284.971Z" fill="black"/>
</g>
<path d="M283.822 269.728C283.822 269.728 278.715 271.139 282.539 281.587C286.364 292.035 287.647 291.406 290.201 301.189C292.754 310.973 295.728 319.847 300.183 325.409C304.637 330.971 321.231 342.201 321.231 342.201L336.11 328.208C336.11 328.208 333.661 317.713 334.244 310.658C334.827 303.603 336.32 286.17 336.11 283.15C335.9 280.129 332.705 272.946 332.705 272.946V268.002L325.055 244.47C325.055 244.47 320.811 242.546 319.318 249.356L316.764 242.138C316.764 242.138 312.73 241.485 311.669 249.776C310.607 258.067 312.52 269.599 312.52 269.599L310.386 284.059L307.202 293.831L304.439 294.263C304.439 294.263 300.276 293.096 298.002 285.295C295.728 277.494 289.559 268.025 283.822 269.728Z" fill="#FFBE9D"/>
<path d="M331.13 306.694C331.076 306.52 331.052 306.339 331.06 306.157C331.06 305.749 330.99 305.236 330.955 304.606C330.873 303.172 330.768 301.201 330.64 298.776C330.407 293.692 330.092 286.637 329.719 278.392L329.777 278.556C329.396 278.161 328.914 277.879 328.383 277.741C327.852 277.603 327.293 277.614 326.768 277.774C326.199 277.911 325.662 278.16 325.189 278.506C324.717 278.852 324.318 279.289 324.016 279.792C322.71 281.891 322.64 284.608 322.232 287.243C321.428 293.202 320.658 298.904 319.9 304.047C319.55 306.624 319.177 309.084 318.734 311.358C318.26 313.466 317.641 315.539 316.88 317.562C316.227 319.416 315.644 321.06 315.282 322.611C314.958 323.895 314.797 325.216 314.804 326.541C314.847 327.674 315.044 328.795 315.387 329.876C315.247 329.614 315.13 329.341 315.038 329.059C314.767 328.249 314.61 327.406 314.571 326.552C314.516 325.2 314.645 323.847 314.956 322.529C315.365 320.798 315.875 319.093 316.483 317.422C317.204 315.407 317.789 313.346 318.233 311.253C318.711 308.991 319.072 306.589 319.399 303.965C320.075 298.799 320.833 293.12 321.626 287.161C321.813 285.832 321.952 284.526 322.186 283.208C322.379 281.893 322.822 280.626 323.492 279.477C323.834 278.9 324.288 278.397 324.826 277.997C325.365 277.596 325.977 277.307 326.629 277.145C327.259 276.964 327.926 276.961 328.558 277.136C329.19 277.311 329.761 277.657 330.208 278.136L330.267 278.218V278.369C330.547 286.613 330.792 293.68 330.966 298.753C331.025 301.213 331.071 303.195 331.118 304.583C331.118 305.224 331.118 305.749 331.118 306.146C331.14 306.327 331.144 306.511 331.13 306.694Z" fill="#EB996E"/>
<path d="M322.989 279.908C322.73 279.49 322.519 279.044 322.359 278.579C321.871 277.333 321.454 276.06 321.112 274.766C320.61 272.852 320.255 270.903 320.051 268.935C319.907 267.775 319.883 266.602 319.981 265.437C320.09 264.131 320.532 262.874 321.263 261.787C321.918 260.82 322.879 260.101 323.992 259.746L324.214 259.676L324.33 259.886C326.487 263.688 328.365 267.046 329.683 269.46C330.277 270.626 330.79 271.536 331.199 272.305C331.405 272.641 331.57 273.002 331.688 273.378C331.42 273.087 331.193 272.762 331.012 272.41L329.333 269.646C327.933 267.314 325.986 263.968 323.817 260.178L324.155 260.318C323.193 260.619 322.354 261.225 321.765 262.043C321.098 263.046 320.697 264.202 320.599 265.402C320.482 266.546 320.482 267.698 320.599 268.842C320.774 270.804 321.081 272.752 321.52 274.672C321.893 276.317 322.301 277.611 322.569 278.509C322.758 278.959 322.898 279.428 322.989 279.908Z" fill="#EB996E"/>
<path d="M319.434 281.868C319.337 281.424 319.29 280.97 319.294 280.515C319.294 279.513 319.201 278.276 319.143 276.819C319.05 273.694 318.956 269.379 318.886 264.61C318.712 260.532 318.774 256.448 319.073 252.377C319.219 251.138 319.485 249.916 319.866 248.727C319.98 248.285 320.165 247.863 320.414 247.48C319.986 249.099 319.678 250.748 319.493 252.412C319.201 255.503 319.493 259.829 319.493 264.598C319.493 269.367 319.586 273.682 319.574 276.807C319.574 278.276 319.574 279.513 319.574 280.515C319.587 280.97 319.54 281.425 319.434 281.868Z" fill="#EB996E"/>
<path d="M306.852 321.013C306.771 320.943 307.704 319.847 308.846 317.865C309.514 316.7 310.095 315.488 310.584 314.238C311.156 312.699 311.601 311.116 311.913 309.504C312.185 307.885 312.322 306.247 312.321 304.606C312.309 303.262 312.192 301.921 311.972 300.595C311.587 298.332 311.097 296.98 311.202 296.945C311.386 297.23 311.527 297.54 311.622 297.866C311.95 298.726 312.207 299.611 312.391 300.513C312.677 301.856 312.841 303.222 312.881 304.594C312.918 306.274 312.793 307.953 312.508 309.609C312.196 311.26 311.723 312.877 311.097 314.436C310.584 315.708 309.956 316.929 309.22 318.086C308.733 318.869 308.184 319.61 307.575 320.302C307.144 320.792 306.887 321.048 306.852 321.013Z" fill="#EB996E"/>
<path d="M332.971 313.702L345.88 318.191C345.88 318.191 358.217 311.813 366.718 318.191C375.219 324.57 382.6 341.373 380.268 348.172C380.268 348.172 374.438 355.413 369.937 356.474C365.435 357.536 348.119 353.338 340.901 351.81C333.682 350.282 321.229 342.19 321.229 342.19L332.971 313.702Z" fill="#FFBE9D"/>
<path d="M334.559 332.733C334.468 332.351 334.421 331.96 334.419 331.567C334.419 330.693 334.314 329.655 334.244 328.442C334.104 325.807 333.929 322.168 333.87 318.134C333.798 314.691 333.899 311.246 334.174 307.814C334.279 306.496 334.43 305.423 334.559 304.7C334.582 304.299 334.673 303.905 334.827 303.534C334.92 303.534 334.722 305.167 334.594 307.79C334.465 310.414 334.419 314.064 334.477 318.075C334.535 322.087 334.617 325.585 334.663 328.384C334.663 329.701 334.663 330.774 334.663 331.509C334.695 331.92 334.659 332.334 334.559 332.733Z" fill="#EB996E"/>
<path d="M377.131 317.678C375.796 316.284 374.362 314.99 372.84 313.806C369.109 311.006 364.632 309.375 359.975 309.117C355.318 308.86 350.689 309.988 346.672 312.36C345.043 313.381 343.484 314.51 342.008 315.742C342.316 315.314 342.672 314.923 343.069 314.576C344.118 313.601 345.263 312.733 346.486 311.987C350.537 309.455 355.271 308.237 360.041 308.5C364.811 308.764 369.383 310.494 373.131 313.456C374.268 314.329 375.312 315.318 376.245 316.406C376.594 316.79 376.892 317.217 377.131 317.678Z" fill="#E63766"/>
<path d="M375.475 306.914C373.811 305.711 372.005 304.717 370.099 303.953C365.421 302.293 360.34 302.138 355.57 303.509C352.946 304.249 350.42 305.303 348.048 306.646C346.117 307.756 344.294 309.044 342.603 310.494C341.157 311.73 340.049 312.827 339.291 313.561C338.922 313.989 338.512 314.38 338.066 314.727C338.376 314.265 338.727 313.831 339.116 313.433C340.123 312.297 341.194 311.218 342.323 310.203C346.054 306.794 350.536 304.313 355.406 302.961C360.294 301.545 365.512 301.766 370.262 303.591C371.681 304.158 373.018 304.911 374.239 305.83C374.67 306.145 374.962 306.448 375.183 306.635C375.405 306.821 375.487 306.903 375.475 306.914Z" fill="#E63766"/>
<path d="M375.58 297.587C375.58 297.704 373.248 297.016 369.54 296.502C367.348 296.214 365.139 296.074 362.928 296.083C360.22 296.122 357.518 296.368 354.847 296.817C352.182 297.307 349.558 298.001 346.999 298.893C344.916 299.635 342.886 300.52 340.924 301.54C337.577 303.301 335.688 304.723 335.618 304.619C336.015 304.232 336.449 303.884 336.913 303.581C337.426 303.189 337.959 302.823 338.51 302.485C339.151 302.088 339.874 301.598 340.714 301.167C342.672 300.078 344.711 299.142 346.813 298.368C349.391 297.429 352.044 296.708 354.742 296.211C357.44 295.76 360.17 295.53 362.905 295.523C365.143 295.538 367.377 295.725 369.587 296.083C370.531 296.199 371.371 296.421 372.105 296.572C372.84 296.724 373.481 296.899 373.995 297.051C374.541 297.172 375.073 297.352 375.58 297.587Z" fill="#E63766"/>
<path d="M276.637 183.391C277.119 184.481 277.418 185.644 277.523 186.831C277.871 190.175 277.706 193.553 277.033 196.848C276.626 199.213 276.069 201.55 275.366 203.845C274.447 206.519 273.316 209.116 271.984 211.611C269.197 216.963 265.699 222.817 261.641 229.102L261.174 229.825V228.951C261.174 224.834 261.174 220.508 261.174 216.019L261.629 216.229L250.738 225.021L250.831 224.881C248.207 233.39 246.583 242.175 245.992 251.06C244.919 265.251 245.782 278.825 246.446 291.139C247.111 303.453 247.403 314.577 247.787 323.906C248.172 333.235 248.487 340.768 248.767 345.98C248.93 348.558 249.047 350.575 249.128 351.974C249.128 352.639 249.21 353.14 249.233 353.537C249.257 353.933 249.233 354.073 249.233 354.073C249.233 354.073 249.233 353.887 249.152 353.537C249.07 353.187 249.059 352.651 248.989 351.986C248.86 350.622 248.697 348.593 248.522 345.992C248.172 340.78 247.764 333.247 247.356 323.918C246.948 314.589 246.446 303.488 245.887 291.174C245.327 278.86 244.312 265.263 245.385 251.013C245.976 242.083 247.616 233.253 250.271 224.706V224.624H250.341L261.256 215.855L261.711 215.494V216.077C261.711 220.566 261.711 224.893 261.711 229.009L261.233 228.869C269.244 216.45 275.762 205.652 276.765 196.918C277.458 193.651 277.67 190.3 277.395 186.971C277.3 186.101 277.14 185.24 276.917 184.394C276.73 183.694 276.637 183.391 276.637 183.391Z" fill="#E63766"/>
<path d="M255.738 333.818H255.319C254.473 333.872 253.681 334.254 253.111 334.881C252.541 335.509 252.238 336.334 252.265 337.181C252.292 338.029 252.648 338.832 253.257 339.422C253.866 340.012 254.681 340.341 255.528 340.341C256.376 340.341 257.191 340.012 257.8 339.422C258.409 338.832 258.765 338.029 258.792 337.181C258.819 336.334 258.516 335.509 257.946 334.881C257.376 334.254 256.584 333.872 255.738 333.818Z" fill="white"/>
<path d="M255.739 288.865H255.32C254.449 288.919 253.633 289.31 253.046 289.956C252.459 290.601 252.146 291.449 252.173 292.321C252.2 293.193 252.566 294.021 253.192 294.628C253.819 295.235 254.657 295.575 255.53 295.575C256.402 295.575 257.24 295.235 257.867 294.628C258.493 294.021 258.859 293.193 258.886 292.321C258.914 291.449 258.6 290.601 258.013 289.956C257.426 289.31 256.61 288.919 255.739 288.865Z" fill="white"/>
<path d="M255.309 248.668C256.18 248.725 257.037 248.434 257.693 247.859C258.349 247.284 258.75 246.472 258.807 245.601C258.865 244.73 258.574 243.873 257.998 243.217C257.423 242.561 256.611 242.16 255.74 242.103H255.321C254.448 242.103 253.612 242.449 252.995 243.066C252.379 243.683 252.032 244.519 252.032 245.391C252.032 246.263 252.379 247.1 252.995 247.716C253.612 248.333 254.448 248.68 255.321 248.68L255.309 248.668Z" fill="white"/>
<path d="M204.956 130.729C200.875 126.205 196.793 121.633 193.773 116.304C190.753 110.975 189.015 104.772 189.995 98.8128C190.578 95.3145 192.071 91.9445 192.327 88.3879C192.654 83.4903 190.601 78.3711 192.327 73.7766C195.032 66.6051 204.699 65.4973 210.553 60.5414C215.113 56.6816 217.328 50.4196 222.342 47.1662C226.727 44.3326 232.359 44.3909 237.502 45.1256C242.644 45.8602 247.868 47.1662 253.046 46.4666C256.731 45.9651 260.206 44.4842 263.809 43.5863C267.412 42.6884 271.459 42.4202 274.677 44.3209C277.896 46.2217 279.691 50.7578 277.581 53.8247C283.633 50.9794 291.201 55.6438 292.845 62.069C294.489 68.4942 291.201 75.3742 286.128 79.5605C281.056 83.7468 274.467 85.7408 267.984 86.9652C249.629 90.4635 229.701 88.4695 213.877 78.5343" fill="#5B5863"/>
<path d="M269.522 192.474C268.625 185.477 267.89 179.716 267.843 179.005C267.843 179.005 291.072 173.781 289.789 150.284C289.171 138.938 285.999 115.663 282.874 94.6378C281.263 83.7409 275.607 73.8505 267.033 66.9356C258.458 60.0207 247.594 56.5886 236.603 57.3226L234.33 57.4742C210.016 60.541 199.02 82.9068 202.752 107.138L215.882 188.381C215.882 188.381 221.479 206.397 233.49 209.569L248.649 231.165L251.145 221.836L262.409 212.029C264.568 209.491 266.434 206.717 267.972 203.761C269.686 200.263 270.23 196.305 269.522 192.474Z" fill="#FFA68A"/>
<path d="M267.855 178.657C267.855 178.657 253.104 180.86 236.685 172.01C236.685 172.01 245.046 188.417 268.322 184.732L267.855 178.657Z" fill="#EB996E"/>
<path d="M205.831 124.444C205.423 124.292 189.389 120.747 190.975 136.758C192.561 152.769 209.913 147.556 209.889 147.09C209.866 146.623 205.831 124.444 205.831 124.444Z" fill="#FFA68A"/>
<path d="M202.8 141.829C202.718 141.829 202.543 142.05 202.089 142.307C201.455 142.654 200.712 142.746 200.013 142.563C198.252 142.109 196.515 139.555 196.2 136.733C196.026 135.365 196.157 133.975 196.585 132.663C196.682 132.137 196.909 131.642 197.245 131.225C197.581 130.808 198.015 130.48 198.509 130.273C198.822 130.157 199.166 130.154 199.481 130.265C199.796 130.376 200.062 130.593 200.235 130.879C200.491 131.299 200.421 131.637 200.503 131.649C200.584 131.66 200.829 131.346 200.631 130.704C200.5 130.316 200.241 129.983 199.896 129.76C199.426 129.47 198.86 129.378 198.322 129.503C197.676 129.698 197.091 130.055 196.624 130.541C196.156 131.027 195.821 131.626 195.652 132.278C195.105 133.732 194.925 135.298 195.127 136.838C195.547 140.045 197.459 142.902 199.873 143.345C200.317 143.429 200.774 143.412 201.21 143.295C201.646 143.178 202.05 142.964 202.392 142.668C202.812 142.214 202.858 141.852 202.8 141.829Z" fill="#EB996E"/>
<path d="M281.694 72.7623C280.598 79.1292 267.701 84.9713 256.95 84.6565C247.073 84.3766 242.187 79.4673 235.015 75.9924C230.468 73.7768 230.468 73.7768 224.299 74.8263C219.32 75.6425 216.731 81.5197 213.932 85.7293C219.261 97.3903 217.104 110.87 214.842 123.453C214.747 124.877 214.176 126.228 213.221 127.289C211.425 128.875 208.557 127.919 206.738 126.298C203.904 123.709 202.61 119.861 201.688 116.13C199.429 107.642 198.89 98.7891 200.102 90.0905C201.334 81.3627 205.101 73.1884 210.936 66.5819C218.558 58.5341 229.014 53.7703 240.088 53.3C251.104 52.9052 261.965 55.9897 271.13 62.1158C275.374 64.8911 279.351 68.3311 281.741 72.8089" fill="#5B5863"/>
<g opacity="0.3">
<path opacity="0.3" d="M207.581 188.741C205.961 204.565 211.978 221.275 224.676 230.861C225.668 231.618 226.915 232.365 228.093 231.933C228.882 231.552 229.51 230.903 229.866 230.103C233.423 223.963 234.757 216.785 233.644 209.777C231.638 215.072 229.912 220.272 227.883 225.8C216.817 219.083 209.925 204.81 207.581 188.741Z" fill="black"/>
</g>
<path opacity="0.3" d="M250.55 224.727L259.879 221.322L261.418 237.076C261.418 237.076 271.47 218.757 275.633 210.396C279.796 202.035 277.65 187.296 277.65 187.296C277.65 187.296 279.131 200.123 269.068 216.53L261.477 228.879V215.947L250.55 224.727Z" fill="black"/>
<g opacity="0.3">
<path opacity="0.3" d="M142.195 304.794C137.943 302.985 133.272 302.395 128.703 303.092C123.838 303.495 119.183 305.256 115.27 308.176C111.492 311.231 108.938 316.024 109.439 320.851L109.906 320.921C113.159 312.129 119.62 305.762 127.957 304.946C136.295 304.13 144.422 307.884 150.113 313.995C149.53 309.435 146.358 306.753 142.195 304.794Z" fill="black"/>
</g>
<g opacity="0.3">
<path opacity="0.3" d="M377.737 313.783C374.504 310.466 370.281 308.289 365.703 307.579C361.716 306.917 357.631 307.157 353.748 308.281C349.866 309.405 346.285 311.384 343.268 314.074L345.04 312.64C349.547 309.919 354.725 308.514 359.989 308.582C365.276 308.669 370.347 310.694 374.239 314.273C377.737 317.584 379.813 322.062 381.807 326.435C382.13 324.156 381.932 321.833 381.227 319.641C380.522 317.45 379.329 315.446 377.737 313.783Z" fill="black"/>
</g>
<path d="M317.696 240.622C317.788 240.185 317.929 239.758 318.115 239.351C318.477 238.43 318.92 237.299 319.433 235.958C320.599 233.101 322.115 229.148 323.748 224.763C325.38 220.379 326.791 216.368 327.806 213.464L328.972 210.036C329.097 209.606 329.269 209.191 329.485 208.8C329.449 209.246 329.351 209.686 329.193 210.106C328.972 210.934 328.622 212.135 328.167 213.604C327.258 216.542 325.905 220.601 324.272 224.973C322.64 229.346 321.019 233.299 319.783 236.121C319.177 237.532 318.617 238.663 318.29 239.445C318.135 239.858 317.936 240.253 317.696 240.622Z" fill="#E63766"/>
<path d="M170.685 241.765C170.522 241.765 169.251 236.249 167.851 229.369C166.452 222.489 165.461 216.892 165.624 216.857C165.787 216.822 167.047 222.373 168.446 229.253C169.845 236.133 170.848 241.73 170.685 241.765Z" fill="#E63766"/>
<path d="M168.483 311.137C168.856 311.312 164.215 274.79 164.215 274.79C164.215 274.79 167.142 247.071 168.786 245.789V236.017C168.786 236.017 173.322 233.265 174.535 237.708C174.535 237.708 178.558 234.209 179.258 242.524C179.957 250.838 180.109 259.315 180.109 259.315L189.053 281.693L190.522 282.439C190.522 282.439 192.446 264.948 193.566 262.336C194.685 259.724 195.455 253.485 199.688 254.418C203.921 255.351 204.282 258.872 203.524 264.586C202.766 270.3 201.81 276.247 202.171 279.897C202.533 283.547 204.2 291.721 203.687 298.182C203.174 304.642 199.629 311.452 195.921 316.233C192.213 321.014 185.111 330.902 181.263 333.887C179.957 334.925 168.483 311.137 168.483 311.137Z" fill="#FFBE9D"/>
<path d="M173.006 281.412C172.947 280.893 172.947 280.369 173.006 279.849C173.076 278.683 173.181 277.296 173.297 275.605C173.565 272.025 173.985 267.081 174.463 261.612C174.72 258.895 174.965 256.306 175.186 253.927C175.319 252.831 175.319 251.723 175.186 250.627C175.062 249.689 174.656 248.81 174.02 248.108C173.554 247.605 172.99 247.202 172.362 246.925C171.734 246.648 171.056 246.503 170.37 246.499C169.857 246.53 169.347 246.596 168.843 246.697C168.843 246.697 168.959 246.616 169.216 246.511C169.59 246.37 169.983 246.288 170.382 246.266C171.641 246.177 172.887 246.569 173.867 247.364C174.848 248.158 175.49 249.295 175.664 250.545C175.805 251.684 175.805 252.835 175.664 253.974C175.455 256.306 175.221 258.941 174.988 261.67C174.487 267.127 173.997 272.06 173.612 275.663L173.134 279.884C173.135 280.396 173.092 280.908 173.006 281.412Z" fill="#EB996E"/>
<path d="M177.81 266.474C177.158 267.362 176.625 268.33 176.224 269.355C175.511 271.937 175.016 274.573 174.743 277.238C174.253 280.363 173.787 283.185 173.413 285.214C173.277 286.33 173.034 287.431 172.69 288.502C172.695 287.38 172.796 286.26 172.994 285.155C173.25 283.103 173.658 280.269 174.16 277.144C174.441 274.445 175.008 271.783 175.851 269.203C176.159 268.424 176.597 267.703 177.145 267.069C177.518 266.626 177.786 266.451 177.81 266.474Z" fill="#EB996E"/>
<path d="M174.521 237.219C174.678 237.591 174.784 237.983 174.835 238.385C174.999 239.131 175.197 240.215 175.418 241.568C175.873 244.262 176.351 248.005 176.666 252.168C176.981 256.331 177.039 260.097 176.993 262.826C176.993 264.202 176.934 265.298 176.876 266.068C176.886 266.461 176.839 266.854 176.736 267.234C176.602 265.769 176.544 264.297 176.561 262.826C176.503 260.097 176.363 256.343 176.06 252.191C175.757 248.04 175.337 244.32 174.999 241.615C174.759 240.159 174.599 238.692 174.521 237.219Z" fill="#EB996E"/>
<path d="M200.325 271.465C199.882 271.748 199.377 271.919 198.853 271.964C198.329 272.009 197.802 271.926 197.317 271.722C195.603 271.209 194.81 269.891 194.985 269.821C195.789 270.332 196.635 270.773 197.515 271.139C198.441 271.326 199.381 271.435 200.325 271.465Z" fill="#EB996E"/>
<path d="M168.979 306.588L145.354 316.524H131.267C131.267 316.524 117.344 320.873 115.199 333.922C113.053 346.97 112.75 353.745 118.872 355.32C124.994 356.894 142.287 357.104 150.858 354.27C159.429 351.437 181.888 333.28 181.888 333.28L184.045 320.173L168.979 306.588Z" fill="#FFBE9D"/>
<path d="M174.518 321.014C174.518 321.014 174.25 320.828 173.853 320.408C173.283 319.802 172.768 319.146 172.314 318.449C170.837 316.141 169.724 313.62 169.014 310.974C168.282 308.347 167.794 305.657 167.557 302.94C167.399 301.824 167.368 300.693 167.463 299.57C167.716 300.663 167.887 301.774 167.976 302.893C168.336 305.566 168.878 308.212 169.597 310.811C170.301 313.401 171.336 315.89 172.676 318.216C173.737 319.988 174.6 320.944 174.518 321.014Z" fill="#EB996E"/>
<path d="M184.817 325.164C185.444 323.526 185.893 321.826 186.158 320.092C186.381 318.216 186.286 316.316 185.879 314.471C185.349 312.217 184.365 310.094 182.987 308.233C181.552 306.227 179.931 304.466 178.579 302.775C177.331 301.295 176.259 299.675 175.384 297.948C174.801 296.773 174.408 295.513 174.218 294.216C174.146 293.741 174.146 293.257 174.218 292.782C174.488 294.512 175.031 296.189 175.827 297.749C176.748 299.412 177.838 300.975 179.08 302.414C180.444 304.07 182.077 305.819 183.546 307.871C184.86 309.603 185.812 311.582 186.347 313.689C186.882 315.796 186.988 317.989 186.66 320.138C186.464 321.432 186.1 322.695 185.575 323.893C185.433 324.22 185.273 324.539 185.097 324.849C184.899 325.071 184.829 325.176 184.817 325.164Z" fill="#EB996E"/>
<g filter="url(#filter1_d)">
<circle cx="249.064" cy="275.327" r="77.4769" fill="white"/>
<circle cx="249.064" cy="275.327" r="66.7224" fill="white" stroke="#FD3E72" stroke-width="4"/>
<path d="M214.492 272.111C215.441 272.111 216.284 272.023 217.057 271.83C217.831 271.637 218.498 271.355 219.078 270.969C219.641 270.6 220.133 270.143 220.554 269.616C220.976 269.089 221.31 268.491 221.574 267.788C221.837 267.086 222.03 266.33 222.153 265.522C222.276 264.713 222.347 263.835 222.347 262.868V246.299H217.268V262.956C217.268 265.926 216.232 267.402 214.158 267.402C213.473 267.402 212.787 267.209 212.102 266.787C211.417 266.365 210.837 265.838 210.362 265.205L207.48 268.772C208.324 269.862 209.361 270.705 210.626 271.268C211.874 271.83 213.156 272.111 214.492 272.111Z" fill="#423F48"/>
<path d="M239.62 272.164C241.483 272.164 243.205 271.847 244.804 271.215C246.403 270.582 247.774 269.686 248.934 268.562C250.076 267.437 250.972 266.049 251.64 264.415C252.29 262.781 252.624 261.006 252.624 259.073C252.624 257.158 252.29 255.383 251.64 253.749C250.972 252.132 250.076 250.744 248.934 249.62C247.774 248.495 246.403 247.599 244.804 246.966C243.205 246.334 241.483 246 239.62 246C237.723 246 235.948 246.334 234.331 246.984C232.697 247.652 231.309 248.548 230.184 249.69C229.059 250.85 228.163 252.22 227.531 253.837C226.898 255.453 226.582 257.211 226.582 259.073C226.582 260.953 226.898 262.71 227.531 264.327C228.163 265.943 229.059 267.332 230.184 268.474C231.309 269.633 232.697 270.53 234.314 271.18C235.93 271.847 237.705 272.164 239.62 272.164ZM239.638 267.455C238.127 267.455 236.791 267.086 235.596 266.33C234.401 265.592 233.47 264.573 232.82 263.308C232.17 262.043 231.853 260.619 231.853 259.073C231.853 257.544 232.17 256.139 232.82 254.874C233.47 253.608 234.401 252.589 235.596 251.851C236.791 251.113 238.127 250.727 239.638 250.727C241.079 250.727 242.397 251.096 243.574 251.799C244.752 252.519 245.683 253.521 246.351 254.786C247.018 256.068 247.37 257.492 247.37 259.073C247.37 260.268 247.159 261.375 246.772 262.412C246.386 263.466 245.841 264.344 245.156 265.082C244.47 265.82 243.645 266.4 242.696 266.822C241.747 267.244 240.728 267.455 239.638 267.455Z" fill="#423F48"/>
<path d="M257.351 271.865H262.447V246.299H257.351V271.865Z" fill="#423F48"/>
<path d="M284.711 246.299V263.571H284.641L273.272 246.299H268.228V271.865H273.272V254.926H273.342L284.588 271.865H289.772V246.299H284.711Z" fill="#423F48"/>
<path d="M239.041 311.658C241.202 311.658 243.065 311.219 244.629 310.323C246.193 309.444 247.388 308.179 248.196 306.545C249.004 304.929 249.426 302.996 249.426 300.782V285.793H244.365V300.448C244.365 302.451 243.873 304.032 242.889 305.192C241.905 306.352 240.622 306.914 239.041 306.914C237.951 306.914 237.002 306.633 236.194 306.071C235.386 305.508 234.788 304.735 234.401 303.769C233.997 302.802 233.804 301.695 233.804 300.448V285.793H228.726V300.782C228.726 302.504 228.972 304.05 229.464 305.421C229.956 306.791 230.659 307.933 231.572 308.847C232.469 309.761 233.558 310.446 234.823 310.938C236.088 311.43 237.494 311.658 239.041 311.658Z" fill="#423F48"/>
<path d="M262.43 311.658C263.291 311.658 264.134 311.571 264.978 311.395C265.803 311.219 266.612 310.92 267.403 310.499C268.193 310.077 268.896 309.585 269.494 308.988C270.091 308.39 270.566 307.652 270.935 306.756C271.286 305.86 271.479 304.876 271.479 303.786C271.479 302.732 271.304 301.818 270.987 301.01C270.46 299.745 269.388 298.673 267.807 297.795C267.104 297.426 265.698 296.828 263.572 295.985C262.904 295.739 262.359 295.528 261.973 295.352C261.586 295.176 261.182 294.983 260.795 294.772C260.409 294.561 260.11 294.351 259.917 294.14C259.706 293.929 259.548 293.7 259.442 293.437C259.319 293.191 259.266 292.892 259.266 292.576C259.266 291.785 259.565 291.153 260.128 290.696C260.69 290.239 261.428 290.01 262.342 290.01C263.993 290.01 265.856 290.854 267.912 292.523L270.829 288.71C268.176 286.531 265.311 285.46 262.219 285.495C260.707 285.53 259.319 285.864 258.072 286.496C256.806 287.129 255.822 288.007 255.102 289.114C254.364 290.239 254.012 291.469 254.012 292.804C254.012 293.472 254.083 294.105 254.241 294.702C254.399 295.299 254.61 295.809 254.856 296.266C255.102 296.723 255.436 297.144 255.84 297.549C256.244 297.953 256.648 298.304 257.07 298.585C257.474 298.866 257.966 299.165 258.528 299.446C259.091 299.727 259.6 299.973 260.092 300.149C260.567 300.342 261.112 300.553 261.744 300.764C262.43 301.01 262.992 301.203 263.414 301.379C263.835 301.555 264.24 301.748 264.626 301.959C265.013 302.17 265.311 302.398 265.522 302.609C265.733 302.838 265.891 303.101 266.014 303.382C266.12 303.681 266.19 304.015 266.19 304.384C266.19 304.929 266.049 305.403 265.786 305.79C265.505 306.194 265.101 306.51 264.538 306.738C263.976 306.984 263.308 307.09 262.517 307.09C261.99 307.09 261.463 307.037 260.936 306.897C260.391 306.774 259.846 306.58 259.302 306.317C258.757 306.071 258.212 305.737 257.667 305.315C257.123 304.911 256.613 304.437 256.156 303.892L253.116 307.635C254.417 308.988 255.875 309.989 257.474 310.657C259.073 311.325 260.725 311.658 262.43 311.658Z" fill="#423F48"/>
</g>
<defs>
<filter id="filter0_d" x="11.3884" y="126.006" width="465.628" height="301.234" filterUnits="userSpaceOnUse" color-interpolation-filters="sRGB">
<feFlood flood-opacity="0" result="BackgroundImageFix"/>
<feColorMatrix in="SourceAlpha" type="matrix" values="0 0 0 0 0 0 0 0 0 0 0 0 0 0 0 0 0 0 127 0" result="hardAlpha"/>
<feOffset dy="4"/>
<feGaussianBlur stdDeviation="7"/>
<feColorMatrix type="matrix" values="0 0 0 0 0 0 0 0 0 0 0 0 0 0 0 0 0 0 0.15 0"/>
<feBlend mode="normal" in2="BackgroundImageFix" result="effect1_dropShadow"/>
<feBlend mode="normal" in="SourceGraphic" in2="effect1_dropShadow" result="shape"/>
</filter>
<filter id="filter1_d" x="163.587" y="193.851" width="170.954" height="170.954" filterUnits="userSpaceOnUse" color-interpolation-filters="sRGB">
<feFlood flood-opacity="0" result="BackgroundImageFix"/>
<feColorMatrix in="SourceAlpha" type="matrix" values="0 0 0 0 0 0 0 0 0 0 0 0 0 0 0 0 0 0 127 0" result="hardAlpha"/>
<feOffset dy="4"/>
<feGaussianBlur stdDeviation="4"/>
<feComposite in2="hardAlpha" operator="out"/>
<feColorMatrix type="matrix" values="0 0 0 0 0 0 0 0 0 0 0 0 0 0 0 0 0 0 0.25 0"/>
<feBlend mode="normal" in2="BackgroundImageFix" result="effect1_dropShadow"/>
<feBlend mode="normal" in="SourceGraphic" in2="effect1_dropShadow" result="shape"/>
</filter>
</defs>
</svg>
