<svg width="534" height="501" viewBox="0 0 534 501" fill="none" xmlns="http://www.w3.org/2000/svg">
<circle cx="266.927" cy="250.47" r="250.47" fill="#FFEAF0"/>
<path d="M266.831 435.981C369.436 435.981 452.614 352.803 452.614 250.198C452.614 147.593 369.436 64.4148 266.831 64.4148C164.225 64.4148 81.0474 147.593 81.0474 250.198C81.0474 352.803 164.225 435.981 266.831 435.981Z" fill="#FFDDE5"/>
<path d="M533.118 455.527C533.118 455.695 413.773 455.838 266.571 455.838C119.369 455.838 0 455.695 0 455.527C0 455.36 119.321 455.216 266.571 455.216C413.821 455.216 533.118 455.348 533.118 455.527Z" fill="#263238"/>
<g filter="url(#filter0_d)">
<path d="M483.025 85.124H325.418C322.657 85.124 320.418 87.3626 320.418 90.124V216.669C320.418 219.43 322.657 221.669 325.418 221.669H483.025C485.787 221.669 488.025 219.43 488.025 216.669V90.124C488.025 87.3626 485.787 85.124 483.025 85.124Z" fill="#E0E0E0"/>
</g>
<g filter="url(#filter1_d)">
<path d="M471.113 93.7961H313.506C310.744 93.7961 308.506 96.0347 308.506 98.7961V225.341C308.506 228.102 310.744 230.341 313.506 230.341H471.113C473.874 230.341 476.113 228.102 476.113 225.341V98.7961C476.113 96.0347 473.874 93.7961 471.113 93.7961Z" fill="#EBEBEB"/>
</g>
<g filter="url(#filter2_d)">
<path d="M464.189 109.318H291.991V238.127C291.991 240.889 294.23 243.127 296.991 243.127H459.189C461.95 243.127 464.189 240.889 464.189 238.127V109.318Z" fill="white"/>
<path d="M459.189 102.737H296.991C294.23 102.737 291.991 104.975 291.991 107.737V114.802H464.189V107.737C464.189 104.975 461.95 102.737 459.189 102.737Z" fill="#5B5863"/>
</g>
<rect x="312.831" y="124.673" width="35.0975" height="5.48399" rx="2.742" fill="#F2F2F2"/>
<rect x="312.831" y="169.642" width="35.0975" height="5.48399" rx="2.742" fill="#F2F2F2"/>
<rect x="312.831" y="181.706" width="35.0975" height="5.48399" rx="2.742" fill="#F2F2F2"/>
<rect x="321.605" y="137.834" width="23.0328" height="5.48399" rx="2.742" fill="#F2F2F2"/>
<rect x="347.928" y="137.834" width="77.8727" height="5.48399" rx="2.742" fill="#F2F2F2"/>
<rect x="321.605" y="147.706" width="58.1303" height="5.48399" rx="2.742" fill="#F2F2F2"/>
<rect x="321.605" y="191.577" width="31.8072" height="5.48399" rx="2.742" fill="#F2F2F2"/>
<rect x="357.799" y="191.577" width="18.6456" height="5.48399" rx="2.742" fill="#F2F2F2"/>
<rect x="380.832" y="191.577" width="42.7751" height="5.48399" rx="2.742" fill="#F2F2F2"/>
<rect x="321.605" y="201.449" width="50.4527" height="5.48399" rx="2.742" fill="#F2F2F2"/>
<rect x="376.445" y="201.449" width="17.5488" height="5.48399" rx="2.742" fill="#F2F2F2"/>
<rect x="321.605" y="157.576" width="31.8072" height="5.48399" rx="2.742" fill="#F2F2F2"/>
<rect x="356.703" y="157.576" width="31.8072" height="5.48399" rx="2.742" fill="#F2F2F2"/>
<rect x="384.122" y="147.706" width="27.42" height="5.48399" rx="2.742" fill="#F2F2F2"/>
<path d="M311.496 229.874L309.618 230.556L311.472 231.226V231.919L308.828 230.915V230.185L311.472 229.18L311.496 229.874Z" fill="#FF725E"/>
<path d="M313.469 227.817H314.247L312.417 233.044H311.639L313.469 227.817Z" fill="#FF725E"/>
<path d="M317.99 228.606V232.493H317.081V230.903H315.359V232.493H314.462V228.606H315.359V230.137H317.117V228.606H317.99Z" fill="#FF725E"/>
<path d="M319.736 229.36H318.54V228.63H321.913V229.36H320.717V232.517H319.808L319.736 229.36Z" fill="#FF725E"/>
<path d="M325.896 232.493V230.161L324.7 232.087H324.294L323.157 230.209V232.493H322.32V228.606H323.062L324.509 230.998L325.944 228.606H326.686V232.493H325.896Z" fill="#FF725E"/>
<path d="M327.655 228.606H328.552V231.752H330.501V232.481H327.655V228.606Z" fill="#FF725E"/>
<path d="M333.54 230.185V230.915L330.896 231.919V231.226L332.75 230.556L330.896 229.874V229.18L333.54 230.185Z" fill="#FF725E"/>
<path d="M433.436 188.166C433.262 188.311 433.041 188.388 432.814 188.382C432.7 188.393 432.585 188.379 432.477 188.34C432.368 188.301 432.27 188.239 432.189 188.158C432.108 188.076 432.046 187.978 432.007 187.87C431.968 187.762 431.954 187.647 431.965 187.532V185.762H431.439V185.427H431.965V184.793H432.36V185.427H433.245V185.762H432.36V187.497C432.351 187.566 432.357 187.636 432.379 187.703C432.4 187.769 432.437 187.83 432.485 187.88C432.533 187.931 432.592 187.97 432.657 187.994C432.723 188.019 432.793 188.029 432.862 188.023C433.018 188.029 433.171 187.978 433.293 187.879L433.436 188.166Z" fill="black"/>
<path d="M314.94 218.906L312.979 219.66L314.94 220.425V220.88L312.452 219.899V219.42L314.94 218.44V218.906Z" fill="black"/>
<path d="M316.986 216.933H317.476L315.598 222.183H315.12L316.986 216.933Z" fill="black"/>
<path d="M321.184 220.557C321.184 221.226 320.682 221.609 319.701 221.609H317.847V217.722H319.581C320.478 217.722 320.981 218.093 320.981 218.727C320.988 218.906 320.942 219.084 320.848 219.237C320.754 219.39 320.617 219.512 320.454 219.588C320.67 219.638 320.862 219.763 320.995 219.94C321.128 220.117 321.195 220.335 321.184 220.557ZM318.397 218.164V219.361H319.593C320.167 219.361 320.49 219.157 320.49 218.739C320.49 218.32 320.167 218.117 319.593 218.117L318.397 218.164ZM320.622 220.557C320.622 220.114 320.287 219.911 319.677 219.911H318.397V221.203H319.677C320.287 221.155 320.622 220.987 320.622 220.509V220.557Z" fill="black"/>
<path d="M321.722 219.66C321.705 219.247 321.812 218.839 322.029 218.488C322.246 218.137 322.563 217.859 322.94 217.689C323.316 217.52 323.735 217.467 324.141 217.537C324.548 217.607 324.925 217.797 325.222 218.083C325.52 218.369 325.726 218.737 325.813 219.14C325.899 219.544 325.864 219.964 325.71 220.347C325.556 220.73 325.291 221.058 324.949 221.29C324.607 221.521 324.204 221.645 323.791 221.645C323.523 221.658 323.255 221.616 323.004 221.522C322.753 221.428 322.523 221.284 322.329 221.098C322.136 220.912 321.982 220.689 321.877 220.441C321.773 220.194 321.72 219.928 321.722 219.66ZM325.31 219.66C325.313 219.361 325.226 219.068 325.062 218.819C324.898 218.57 324.664 218.375 324.388 218.259C324.113 218.143 323.81 218.111 323.517 218.168C323.224 218.225 322.954 218.367 322.742 218.578C322.53 218.788 322.385 219.056 322.326 219.349C322.267 219.642 322.296 219.945 322.41 220.222C322.524 220.498 322.717 220.734 322.965 220.9C323.213 221.066 323.505 221.155 323.803 221.155C324.001 221.16 324.198 221.124 324.381 221.051C324.565 220.977 324.732 220.868 324.872 220.728C325.011 220.588 325.121 220.421 325.195 220.237C325.268 220.054 325.303 219.857 325.298 219.66H325.31Z" fill="black"/>
<path d="M326.698 217.722H328.336C328.604 217.701 328.874 217.735 329.128 217.823C329.382 217.911 329.615 218.051 329.813 218.234C330.01 218.416 330.167 218.638 330.275 218.884C330.383 219.13 330.439 219.396 330.439 219.665C330.439 219.934 330.383 220.2 330.275 220.446C330.167 220.693 330.01 220.914 329.813 221.097C329.615 221.279 329.382 221.419 329.128 221.507C328.874 221.595 328.604 221.63 328.336 221.609H326.698V217.722ZM328.301 221.118C328.688 221.118 329.059 220.965 329.332 220.691C329.606 220.417 329.76 220.046 329.76 219.659C329.76 219.272 329.606 218.901 329.332 218.627C329.059 218.354 328.688 218.2 328.301 218.2H327.248V221.118H328.301Z" fill="black"/>
<path d="M332.595 220.258V221.609H332.044V220.246L330.502 217.722H331.1L332.296 219.767L333.492 217.722H334.042L332.595 220.258Z" fill="black"/>
<path d="M336.972 219.42V219.899L334.484 220.88V220.425L336.458 219.66L334.484 218.906V218.44L336.972 219.42Z" fill="black"/>
<path d="M302.959 108.769C302.959 109.311 302.799 109.841 302.497 110.292C302.196 110.743 301.768 111.095 301.267 111.302C300.766 111.51 300.214 111.564 299.682 111.458C299.15 111.352 298.662 111.091 298.278 110.708C297.895 110.324 297.634 109.836 297.528 109.304C297.422 108.772 297.477 108.221 297.684 107.72C297.892 107.218 298.243 106.79 298.694 106.489C299.145 106.188 299.675 106.027 300.217 106.027C300.942 106.035 301.635 106.326 302.148 106.839C302.66 107.351 302.952 108.044 302.959 108.769Z" fill="white"/>
<path d="M310.089 111.511C311.603 111.511 312.831 110.283 312.831 108.769C312.831 107.254 311.603 106.027 310.089 106.027C308.574 106.027 307.347 107.254 307.347 108.769C307.347 110.283 308.574 111.511 310.089 111.511Z" fill="white"/>
<path d="M322.702 108.74C322.707 109.284 322.551 109.818 322.252 110.274C321.953 110.729 321.525 111.085 321.023 111.296C320.52 111.508 319.967 111.564 319.432 111.46C318.897 111.355 318.406 111.093 318.021 110.708C317.636 110.323 317.374 109.831 317.269 109.297C317.164 108.762 317.221 108.208 317.432 107.706C317.643 107.204 317.999 106.776 318.455 106.477C318.91 106.178 319.444 106.021 319.989 106.027C320.706 106.035 321.392 106.323 321.899 106.83C322.406 107.337 322.694 108.023 322.702 108.74Z" fill="white"/>
<path d="M303.637 244.645C303.47 244.645 303.326 215.545 303.326 179.662C303.326 143.78 303.47 114.667 303.637 114.667C303.805 114.667 303.948 143.756 303.948 179.662C303.948 215.568 303.757 244.645 303.637 244.645Z" fill="#E0E0E0"/>
<g filter="url(#filter3_d)">
<path d="M173.148 51.187H102.28V101.71H173.148V51.187Z" fill="#FD3E72"/>
<path d="M173.711 58.6865C173.711 58.8539 157.708 58.9975 137.984 58.9975C118.261 58.9975 102.245 58.8539 102.245 58.6865C102.245 58.519 118.249 58.3755 137.984 58.3755C157.72 58.3755 173.711 58.5071 173.711 58.6865Z" fill="white"/>
<path d="M108.07 55.0386C108.097 55.2341 108.063 55.4332 107.974 55.6091C107.884 55.7851 107.743 55.9295 107.57 56.0231C107.396 56.1167 107.198 56.155 107.002 56.1329C106.805 56.1107 106.621 56.0292 106.472 55.8993C106.324 55.7693 106.218 55.5971 106.17 55.4056C106.123 55.2142 106.134 55.0127 106.204 54.828C106.274 54.6434 106.398 54.4844 106.561 54.3724C106.723 54.2604 106.916 54.2007 107.113 54.2013C107.231 54.1932 107.349 54.2085 107.461 54.2462C107.573 54.2839 107.677 54.3434 107.766 54.4212C107.855 54.499 107.927 54.5936 107.979 54.6995C108.032 54.8055 108.063 54.9207 108.07 55.0386Z" fill="white"/>
<path d="M111.599 55.0386C111.592 55.156 111.563 55.271 111.512 55.3769C111.461 55.4827 111.39 55.5774 111.302 55.6553C111.214 55.7333 111.111 55.7929 111 55.8308C110.889 55.8687 110.771 55.884 110.654 55.8759C110.491 55.8574 110.336 55.792 110.21 55.6877C110.083 55.5833 109.989 55.4445 109.94 55.288C109.89 55.1314 109.887 54.9639 109.931 54.8057C109.975 54.6475 110.063 54.5053 110.186 54.3965C110.309 54.2876 110.461 54.2167 110.623 54.1923C110.785 54.1679 110.951 54.1911 111.101 54.259C111.25 54.327 111.377 54.4368 111.465 54.5751C111.553 54.7135 111.6 54.8745 111.599 55.0386Z" fill="white"/>
<path d="M114.063 55.8281C114.591 55.8281 115.019 55.4532 115.019 54.9908C115.019 54.5284 114.591 54.1536 114.063 54.1536C113.534 54.1536 113.106 54.5284 113.106 54.9908C113.106 55.4532 113.534 55.8281 114.063 55.8281Z" fill="white"/>
<path d="M128.487 78.8285C128.487 81.8666 126.299 83.6966 122.674 83.6966H118.847V88.1938H117.34V73.9485H122.674C126.299 73.9485 128.487 75.7785 128.487 78.8285ZM126.992 78.8285C126.992 76.5559 125.485 75.2403 122.627 75.2403H118.847V82.3569H122.627C125.485 82.3689 126.992 81.0652 126.992 78.8285Z" fill="white"/>
<path d="M143.642 73.9485V88.1938H142.159V81.6154H133.248V88.1938H131.741V73.9485H133.248V80.2997H142.159V73.9485H143.642Z" fill="white"/>
<path d="M159.442 78.8285C159.442 81.8666 157.253 83.6966 153.629 83.6966H149.802V88.1938H148.295V73.9485H153.629C157.241 73.9485 159.442 75.7785 159.442 78.8285ZM157.935 78.8285C157.935 76.5559 156.428 75.2403 153.581 75.2403H149.802V82.3569H153.581C156.416 82.3689 157.923 81.0652 157.923 78.8285H157.935Z" fill="white"/>
</g>
<g filter="url(#filter4_d)">
<path d="M512.892 181.876H448.83V227.542H512.892V181.876Z" fill="#FD3E72"/>
</g>
<path d="M470.431 203.046V212.112H468.338V208.405H464.223V212.112H462.118V203.046H464.223V206.634H468.338V203.046H470.431Z" fill="white"/>
<path d="M474.462 204.792H471.555V203.046H479.462V204.757H476.555V212.112H474.462V204.792Z" fill="white"/>
<path d="M491.578 203.046H493.683V210.402H498.228V212.112H491.578V203.046Z" fill="white"/>
<path d="M488.504 212.148V206.718L485.836 211.191H484.892L482.236 206.826V212.148H480.263V203.046H481.997L485.394 208.68L488.731 203.046H490.453V212.112L488.504 212.148Z" fill="white"/>
<path d="M513.394 188.693C513.394 188.8 498.934 188.896 481.1 188.896C463.267 188.896 448.806 188.8 448.806 188.693C448.806 188.585 463.267 188.49 481.1 188.49C498.934 188.49 513.394 188.549 513.394 188.693Z" fill="white"/>
<path d="M454.057 185.32C454.023 185.523 453.918 185.709 453.76 185.842C453.602 185.976 453.402 186.049 453.196 186.049C452.989 186.049 452.789 185.976 452.632 185.842C452.474 185.709 452.369 185.523 452.335 185.32C452.369 185.116 452.474 184.931 452.632 184.797C452.789 184.664 452.989 184.591 453.196 184.591C453.402 184.591 453.602 184.664 453.76 184.797C453.918 184.931 454.023 185.116 454.057 185.32Z" fill="white"/>
<path d="M457.203 185.32C457.169 185.523 457.063 185.709 456.906 185.842C456.748 185.976 456.548 186.049 456.341 186.049C456.135 186.049 455.935 185.976 455.777 185.842C455.62 185.709 455.514 185.523 455.48 185.32C455.514 185.116 455.62 184.931 455.777 184.797C455.935 184.664 456.135 184.591 456.341 184.591C456.548 184.591 456.748 184.664 456.906 184.797C457.063 184.931 457.169 185.116 457.203 185.32Z" fill="white"/>
<path d="M460.324 185.32C460.349 185.496 460.318 185.676 460.238 185.834C460.157 185.993 460.03 186.123 459.874 186.208C459.717 186.292 459.538 186.327 459.362 186.307C459.185 186.287 459.018 186.214 458.884 186.096C458.75 185.979 458.655 185.824 458.612 185.651C458.569 185.479 458.58 185.297 458.643 185.131C458.706 184.964 458.818 184.821 458.964 184.72C459.111 184.619 459.285 184.565 459.463 184.566C459.677 184.553 459.887 184.625 460.049 184.766C460.21 184.907 460.309 185.106 460.324 185.32Z" fill="white"/>
<g filter="url(#filter5_d)">
<path d="M88.0818 181.229H40.8485V214.899H88.0818V181.229Z" fill="#FD3E72"/>
<path d="M88.4404 186.217C88.4404 186.301 77.7833 186.373 64.6384 186.373C51.4935 186.373 40.8244 186.301 40.8244 186.217C40.8244 186.133 51.4815 186.073 64.6384 186.073C77.7953 186.073 88.4404 186.133 88.4404 186.217Z" fill="white"/>
<path d="M44.6999 183.765C44.6876 183.922 44.6143 184.067 44.4956 184.17C44.377 184.273 44.2227 184.325 44.0659 184.315C43.988 184.322 43.9095 184.313 43.8351 184.288C43.7608 184.264 43.692 184.225 43.633 184.174C43.5739 184.123 43.5257 184.06 43.4911 183.99C43.4566 183.92 43.4365 183.843 43.432 183.765C43.4366 183.687 43.4566 183.61 43.491 183.539C43.5253 183.468 43.5733 183.405 43.6322 183.352C43.6911 183.3 43.7598 183.26 43.8342 183.235C43.9086 183.209 43.9874 183.198 44.0659 183.203C44.1445 183.198 44.2233 183.209 44.2977 183.235C44.3721 183.26 44.4407 183.3 44.4996 183.352C44.5585 183.405 44.6065 183.468 44.6409 183.539C44.6752 183.61 44.6953 183.687 44.6999 183.765Z" fill="white"/>
<path d="M47.0201 183.765C46.9989 183.92 46.9224 184.062 46.8048 184.164C46.6871 184.267 46.5363 184.323 46.3802 184.323C46.2241 184.323 46.0733 184.267 45.9556 184.164C45.838 184.062 45.7615 183.92 45.7403 183.765C45.7615 183.611 45.838 183.469 45.9556 183.366C46.0733 183.264 46.2241 183.207 46.3802 183.207C46.5363 183.207 46.6871 183.264 46.8048 183.366C46.9224 183.469 46.9989 183.611 47.0201 183.765Z" fill="white"/>
<path d="M49.3407 183.765C49.3577 183.895 49.3347 184.027 49.2749 184.144C49.215 184.261 49.1211 184.356 49.0055 184.418C48.89 184.48 48.7584 184.505 48.6281 184.491C48.4978 184.476 48.3751 184.422 48.2762 184.336C48.1773 184.25 48.107 184.136 48.0745 184.009C48.042 183.882 48.049 183.748 48.0944 183.625C48.1398 183.502 48.2216 183.396 48.3288 183.321C48.4361 183.245 48.5637 183.204 48.6948 183.203C48.8547 183.193 49.0121 183.247 49.133 183.352C49.2538 183.457 49.3284 183.605 49.3407 183.765Z" fill="white"/>
</g>
<g filter="url(#filter6_d)">
<path d="M325.228 41.015C325.209 39.814 325.435 38.6217 325.892 37.5108C326.349 36.3999 327.027 35.3936 327.886 34.5533C328.744 33.7129 329.764 33.056 330.885 32.6226C332.005 32.1893 333.202 31.9884 334.402 32.0324C335.561 31.9776 336.718 32.1616 337.802 32.5731C338.887 32.9847 339.875 33.6149 340.705 34.4246L339.892 35.2618C339.176 34.5637 338.325 34.0182 337.392 33.6584C336.458 33.2986 335.461 33.132 334.462 33.1687C333.405 33.11 332.346 33.2676 331.352 33.6318C330.358 33.996 329.448 34.5592 328.679 35.2869C327.91 36.0146 327.297 36.8915 326.879 37.8641C326.46 38.8366 326.244 39.8844 326.244 40.9432C326.244 42.0021 326.46 43.0498 326.879 44.0224C327.297 44.995 327.91 45.8719 328.679 46.5996C329.448 47.3273 330.358 47.8904 331.352 48.2546C332.346 48.6188 333.405 48.7764 334.462 48.7178C335.464 48.7484 336.462 48.5755 337.395 48.2095C338.328 47.8436 339.178 47.2922 339.892 46.5887L340.705 47.426C339.881 48.2496 338.896 48.8945 337.812 49.3205C336.727 49.7464 335.566 49.9444 334.402 49.9019C333.209 49.9471 332.02 49.7504 330.905 49.3234C329.791 48.8965 328.774 48.2483 327.917 47.4179C327.06 46.5874 326.379 45.592 325.917 44.4916C325.455 43.3911 325.221 42.2085 325.228 41.015Z" fill="#FD3E72"/>
<path d="M343.109 47.5811L343.683 46.6242C345.274 48.0825 347.362 48.8783 349.52 48.8489C353.108 48.8489 354.628 47.306 354.628 45.3803C354.628 40.0697 343.588 43.2632 343.588 36.7446C343.588 34.2328 345.501 32.032 349.855 32.032C351.754 32.0174 353.613 32.576 355.19 33.6348L354.711 34.6634C353.273 33.7034 351.584 33.1877 349.855 33.1803C346.41 33.1803 344.879 34.771 344.879 36.7685C344.879 42.0791 355.919 38.9454 355.919 45.3683C355.919 47.8681 353.922 50.045 349.544 50.045C347.159 50.1026 344.846 49.2173 343.109 47.5811Z" fill="#FD3E72"/>
<path d="M358.515 47.581L359.101 46.6241C360.691 48.0845 362.779 48.8806 364.938 48.8488C368.526 48.8488 370.045 47.3059 370.045 45.3802C370.045 40.0696 359.005 43.2631 359.005 36.7445C359.005 34.2327 360.919 32.0319 365.273 32.0319C367.171 32.021 369.029 32.5792 370.607 33.6347L370.129 34.6633C368.691 33.7033 367.002 33.1875 365.273 33.1801C361.828 33.1801 360.285 34.7709 360.285 36.7684C360.285 42.079 371.337 38.9453 371.337 45.3682C371.337 47.868 369.339 50.0449 364.962 50.0449C362.573 50.1004 360.258 49.2156 358.515 47.581Z" fill="#FD3E72"/>
<path d="M386.396 64.0156C386.396 64.0156 386.396 63.6926 386.396 63.0826C386.396 62.4726 386.396 61.5516 386.396 60.3795C386.396 57.9873 386.396 54.5546 386.324 50.141C386.324 41.302 386.252 28.6115 386.204 13.0625L386.444 13.3136H307.646L307.957 13.0027C307.957 31.0874 307.957 48.299 307.957 63.9079L307.67 63.6209L364.364 63.7644L380.619 63.8362H384.96H386.085H384.996H380.714L364.519 63.9079L307.634 64.0515H307.347V63.7644C307.347 48.2153 307.347 30.9439 307.347 12.8591V12.7993H307.67L386.468 12.8711H386.719V13.1581C386.719 28.7072 386.623 41.4694 386.587 50.3443C386.587 54.734 386.587 58.1667 386.527 60.535C386.527 61.731 386.527 62.5563 386.527 63.1783C386.527 63.8003 386.396 64.0156 386.396 64.0156Z" fill="#FD3E72"/>
<path d="M386.396 20.6694C386.396 20.8368 368.742 20.9804 346.925 20.9804C325.109 20.9804 307.454 20.8368 307.454 20.6694C307.454 20.5019 325.168 20.3345 346.973 20.3345C368.778 20.3345 386.396 20.49 386.396 20.6694Z" fill="#FD3E72"/>
<path d="M313.411 16.9492C313.438 17.1448 313.404 17.3438 313.315 17.5198C313.225 17.6957 313.084 17.8402 312.91 17.9338C312.737 18.0274 312.538 18.0656 312.342 18.0435C312.146 18.0214 311.961 17.9399 311.813 17.8099C311.664 17.68 311.559 17.5077 311.511 17.3163C311.463 17.1248 311.475 16.9233 311.545 16.7386C311.614 16.554 311.739 16.395 311.901 16.283C312.064 16.1711 312.257 16.1114 312.454 16.112C312.572 16.1039 312.69 16.1191 312.802 16.1568C312.914 16.1946 313.017 16.254 313.106 16.3318C313.195 16.4096 313.268 16.5042 313.32 16.6102C313.372 16.7161 313.403 16.8313 313.411 16.9492Z" fill="#FD3E72"/>
<path d="M316.915 16.9492C316.942 17.1448 316.908 17.3438 316.819 17.5198C316.73 17.6957 316.589 17.8402 316.415 17.9338C316.241 18.0274 316.043 18.0656 315.847 18.0435C315.651 18.0214 315.466 17.9399 315.317 17.8099C315.169 17.68 315.064 17.5077 315.016 17.3163C314.968 17.1248 314.979 16.9233 315.049 16.7386C315.119 16.554 315.243 16.395 315.406 16.283C315.568 16.1711 315.761 16.1114 315.958 16.112C316.076 16.1039 316.195 16.1191 316.306 16.1568C316.418 16.1946 316.522 16.254 316.611 16.3318C316.7 16.4096 316.772 16.5042 316.825 16.6102C316.877 16.7161 316.908 16.8313 316.915 16.9492Z" fill="#FD3E72"/>
<path d="M320.384 16.9492C320.411 17.1448 320.377 17.3438 320.288 17.5198C320.198 17.6957 320.057 17.8402 319.884 17.9338C319.71 18.0274 319.512 18.0656 319.315 18.0435C319.119 18.0214 318.935 17.9399 318.786 17.8099C318.638 17.68 318.532 17.5077 318.484 17.3163C318.436 17.1248 318.448 16.9233 318.518 16.7386C318.587 16.554 318.712 16.395 318.874 16.283C319.037 16.1711 319.23 16.1114 319.427 16.112C319.545 16.1039 319.663 16.1191 319.775 16.1568C319.887 16.1946 319.991 16.254 320.079 16.3318C320.168 16.4096 320.241 16.5042 320.293 16.6102C320.346 16.7161 320.376 16.8313 320.384 16.9492Z" fill="#FD3E72"/>
</g>
<path d="M144.415 248.497L175.657 353.908C176.332 356.189 177.726 358.191 179.631 359.616C181.537 361.04 183.851 361.811 186.23 361.814L313.015 362.161C314.609 362.165 316.188 361.843 317.654 361.217C319.121 360.59 320.444 359.671 321.543 358.516C322.642 357.361 323.494 355.993 324.048 354.498C324.601 353.002 324.843 351.41 324.76 349.817C324.598 346.821 323.294 344 321.116 341.935C318.938 339.871 316.052 338.719 313.051 338.718H264.574L225.749 230.556H157.787C155.613 230.554 153.469 231.061 151.526 232.035C149.583 233.01 147.894 234.425 146.595 236.168C145.296 237.911 144.422 239.933 144.044 242.074C143.665 244.215 143.792 246.414 144.415 248.497Z" fill="#AB6D29"/>
<path d="M251.68 347.377C251.68 347.628 238.75 347.82 222.806 347.82C206.863 347.82 193.945 347.628 193.945 347.377C193.945 347.126 206.863 346.935 222.806 346.935C238.75 346.935 251.68 347.126 251.68 347.377Z" fill="#9A6326"/>
<path d="M153.744 233.881C153.972 233.809 162.607 259.058 173.025 290.288C183.443 321.518 191.684 346.899 191.457 346.97C191.23 347.042 182.594 321.853 172.176 290.563C161.758 259.274 153.505 233.964 153.744 233.881Z" fill="#9A6326"/>
<path d="M246.405 455.527L238.679 455.347V361.813H246.405V455.527Z" fill="#4C4A52"/>
<path d="M206.587 455.096H278.508L245.927 443.769H238.2L206.587 455.096Z" fill="#4C4A52"/>
<path d="M188.395 206.347L200.296 265.804L198.167 310.358L278.161 297.058L275.027 258.066L274.932 225.772L294.547 263.783L309.809 234.276L281.857 183.622C276.767 178.303 270.505 174.248 263.569 171.78C259.884 170.453 256.013 169.71 252.098 169.58C243.089 172.432 233.418 172.432 224.409 169.58C223.285 169.723 221.73 169.879 219.756 170.106H219.397C211.17 171.149 203.57 175.051 197.928 181.129C192.285 187.207 188.957 195.075 188.527 203.357L188.395 206.347Z" fill="#FD3E72"/>
<path d="M219.78 170.118C219.78 170.118 186.912 170.369 182.845 205.079L182.295 230.556L210.594 230.316L219.78 170.118Z" fill="#FD3E72"/>
<path d="M274.537 263.771C274.286 263.771 274.393 249.693 274.776 232.35C275.159 215.007 275.673 200.941 275.912 200.941C276.152 200.941 276.056 215.019 275.673 232.362C275.29 249.705 274.776 263.771 274.537 263.771Z" fill="#EA3767"/>
<path d="M263.294 240.95C263.294 240.95 278.843 242.062 281.642 246.177C284.44 250.291 288.711 262.001 287.096 262.084C286.091 262.122 285.103 261.814 284.297 261.211L280.039 253.652C280.039 253.652 280.721 260.948 278.173 261.092C275.625 261.235 262.971 263.771 262.971 263.771L263.294 240.95Z" fill="#FFBE9D"/>
<path d="M182.307 223.762L182.247 263.843C182.366 266.045 182.962 268.194 183.994 270.143C185.026 272.092 186.469 273.794 188.223 275.13C189.976 276.467 192 277.406 194.153 277.884C196.305 278.361 198.536 278.366 200.691 277.897L263.377 264.979L263.246 239.275L209.147 249.693L208.429 222.482L182.307 223.762Z" fill="#FD3E72"/>
<path d="M218.07 274.679C218.339 274.582 218.615 274.506 218.895 274.452L221.287 273.902L230.497 271.952L263.162 265.242L262.839 265.625C262.839 257.563 262.839 248.641 262.839 239.227L263.366 239.67L252.338 241.787L209.279 249.98L208.812 250.076V249.693C209.219 237.732 209.566 227.829 209.805 220.796C209.949 217.375 210.056 214.66 210.14 212.722C210.14 211.849 210.224 211.143 210.26 210.605C210.26 210.36 210.288 210.115 210.343 209.875C210.359 210.118 210.359 210.362 210.343 210.605C210.343 211.155 210.343 211.801 210.343 212.734C210.343 214.672 210.271 217.387 210.224 220.808C210.056 227.853 209.829 237.78 209.554 249.705L209.099 249.334L252.158 240.962L263.186 238.857L263.712 238.749V239.287C263.712 248.7 263.712 257.623 263.712 265.685V266.02L263.389 266.079L230.677 272.419L221.419 274.153L218.967 274.584C218.672 274.648 218.372 274.68 218.07 274.679Z" fill="#EA3767"/>
<path d="M254.024 170.118C254.024 170.118 254.144 170.309 254.275 170.704C254.483 171.281 254.647 171.872 254.766 172.474C255.2 174.715 255.097 177.026 254.467 179.22C253.496 182.473 251.611 185.379 249.036 187.592C245.903 190.401 241.834 191.941 237.626 191.91C235.534 191.945 233.457 191.557 231.519 190.769C229.581 189.982 227.822 188.812 226.347 187.329C224.004 184.836 222.531 181.651 222.149 178.251C221.867 175.983 222.138 173.681 222.938 171.541C223.15 170.966 223.418 170.413 223.739 169.89C223.955 169.532 224.074 169.352 224.11 169.364C224.146 169.376 223.727 170.165 223.261 171.661C222.626 173.768 222.459 175.989 222.771 178.167C223.223 181.395 224.68 184.4 226.933 186.755C228.342 188.14 230.014 189.231 231.85 189.962C233.686 190.693 235.65 191.05 237.626 191.013C241.618 191.046 245.482 189.611 248.486 186.982C250.989 184.882 252.853 182.122 253.869 179.016C254.523 176.913 254.71 174.693 254.419 172.51C254.216 170.979 253.928 170.142 254.024 170.118Z" fill="#EA3767"/>
<path d="M316.591 427.012L328.432 459.641L345.249 482.738C345.532 483.134 345.73 483.584 345.834 484.059C345.937 484.535 345.942 485.027 345.849 485.504C345.756 485.982 345.567 486.436 345.293 486.838C345.02 487.241 344.667 487.583 344.256 487.845C343.776 488.143 343.232 488.323 342.669 488.371C342.105 488.419 341.539 488.333 341.015 488.12C334.233 485.309 309.355 474.832 308.613 472.404C307.764 469.581 291.701 434.488 291.701 434.488L316.591 427.012Z" fill="#FD3E72"/>
<g opacity="0.6">
<path opacity="0.6" d="M344.304 487.845L307.812 470.215L308.35 471.59C308.802 472.764 309.648 473.745 310.742 474.365C313.733 475.98 322.105 480.25 340.92 488.156C341.459 488.38 342.045 488.468 342.627 488.414C343.208 488.36 343.768 488.165 344.257 487.845H344.304Z" fill="white"/>
</g>
<g opacity="0.6">
<path opacity="0.6" d="M310.348 457.201C310.858 457.337 311.3 457.656 311.589 458.098C311.878 458.539 311.994 459.072 311.915 459.594C311.797 460.115 311.482 460.57 311.036 460.864C310.59 461.158 310.048 461.269 309.522 461.172C308.978 461.028 308.507 460.686 308.201 460.212C307.896 459.739 307.778 459.168 307.872 458.613C308.052 458.089 308.428 457.655 308.92 457.401C309.412 457.147 309.984 457.093 310.515 457.249" fill="white"/>
</g>
<path d="M331.363 476.59C331.75 475.286 332.383 474.068 333.229 473.002C334.748 471.303 336.709 471.052 336.673 470.837C336.638 470.622 336.159 470.657 335.358 470.837C334.322 471.12 333.387 471.69 332.661 472.481C331.935 473.273 331.447 474.253 331.255 475.31C331.148 476.1 331.279 476.59 331.363 476.59Z" fill="#263238"/>
<path d="M335.357 480.023C335.561 480.106 336.195 478.647 337.678 477.511C338.643 476.905 339.646 476.362 340.68 475.884C340.68 475.681 338.886 475.597 337.211 476.913C335.537 478.228 335.154 479.999 335.357 480.023Z" fill="#263238"/>
<path d="M324.916 472.703C325.131 472.798 326.112 470.562 328.241 468.6C330.37 466.638 332.678 465.825 332.607 465.61C332.535 465.394 330.011 465.897 327.727 468.002C325.442 470.107 324.724 472.679 324.916 472.703Z" fill="#263238"/>
<path d="M320.49 463.086C320.646 463.254 322.141 461.806 324.437 460.814C326.734 459.821 328.791 459.618 328.779 459.438C328.767 459.259 326.578 459.031 324.126 460.12C321.674 461.208 320.382 462.979 320.49 463.086Z" fill="#263238"/>
<path d="M316.795 453.601C316.962 453.745 318.338 451.975 320.837 451.125C323.337 450.276 325.502 450.755 325.55 450.539C325.598 450.324 325.06 450.181 324.15 450.037C322.951 449.882 321.732 450.008 320.59 450.407C319.448 450.806 318.414 451.465 317.572 452.334C316.926 453.027 316.687 453.542 316.795 453.601Z" fill="#263238"/>
<path d="M320.06 449.343C319.995 448.919 319.844 448.512 319.617 448.147C319.074 447.069 318.322 446.109 317.405 445.324C316.786 444.678 315.969 444.258 315.084 444.128C314.79 444.116 314.499 444.194 314.251 444.352C314.003 444.51 313.809 444.741 313.697 445.013C313.493 445.545 313.493 446.132 313.697 446.664C314.188 447.742 315.044 448.611 316.114 449.119C317.185 449.627 318.4 449.74 319.545 449.439C320.66 449.133 321.658 448.502 322.412 447.626C323.166 446.751 323.642 445.67 323.78 444.523C323.813 444.234 323.785 443.942 323.696 443.666C323.607 443.389 323.461 443.135 323.265 442.92C323.043 442.726 322.766 442.605 322.473 442.575C322.179 442.545 321.883 442.607 321.627 442.753C320.9 443.238 320.314 443.906 319.928 444.69C319.338 445.737 318.933 446.878 318.732 448.063C318.633 448.496 318.633 448.946 318.732 449.379C319.09 447.832 319.679 446.349 320.478 444.977C320.844 444.312 321.365 443.746 321.997 443.327C322.135 443.24 322.298 443.202 322.46 443.217C322.622 443.232 322.775 443.3 322.895 443.41C323.013 443.559 323.099 443.73 323.148 443.913C323.198 444.096 323.209 444.287 323.182 444.475C323.03 445.461 322.599 446.383 321.94 447.131C321.281 447.879 320.421 448.423 319.462 448.697C318.504 448.942 317.491 448.853 316.59 448.444C315.69 448.035 314.956 447.331 314.51 446.449C314.33 446.076 314.296 445.649 314.414 445.252C314.474 445.101 314.581 444.972 314.718 444.884C314.855 444.796 315.017 444.753 315.18 444.762C315.92 444.871 316.609 445.205 317.153 445.719C318.327 446.747 319.311 447.974 320.06 449.343Z" fill="#263238"/>
<path d="M366.599 418.472L365.583 444.99C365.583 444.99 392.183 454.941 392.47 459.857L341.039 459.713L340.895 418.341L366.599 418.472Z" fill="#FD3E72"/>
<g opacity="0.6">
<path opacity="0.6" d="M349.663 442.717C349.168 442.867 348.747 443.194 348.477 443.635C348.208 444.076 348.111 444.601 348.204 445.109C348.334 445.617 348.656 446.054 349.103 446.328C349.549 446.602 350.084 446.693 350.596 446.58C351.12 446.419 351.567 446.07 351.849 445.6C352.132 445.129 352.231 444.571 352.127 444.033C351.933 443.526 351.551 443.113 351.062 442.88C350.572 442.646 350.011 442.609 349.495 442.777" fill="white"/>
</g>
<g opacity="0.6">
<path opacity="0.6" d="M340.991 459.713V455.587L390.461 457.237C390.461 457.237 392.746 458.242 392.483 459.857L340.991 459.713Z" fill="white"/>
</g>
<path d="M366.408 444.726C366.408 444.977 365.152 445.097 363.908 445.922C362.664 446.747 362.006 447.788 361.779 447.68C361.552 447.573 361.923 446.125 363.442 445.181C364.961 444.236 366.468 444.499 366.408 444.726Z" fill="#263238"/>
<path d="M371.814 446.975C371.874 447.226 370.786 447.645 369.924 448.709C369.063 449.774 368.824 450.898 368.573 450.886C368.322 450.874 368.166 449.451 369.255 448.147C370.343 446.843 371.814 446.736 371.814 446.975Z" fill="#263238"/>
<path d="M374.852 453.446C374.625 453.446 374.278 452.25 374.936 450.874C375.594 449.499 376.754 448.949 376.862 449.164C376.969 449.379 376.24 450.109 375.666 451.245C375.092 452.381 375.104 453.422 374.852 453.446Z" fill="#263238"/>
<path d="M365.977 438.674C365.87 438.901 364.721 438.554 363.298 438.674C361.875 438.793 360.762 439.212 360.631 438.997C360.499 438.781 361.576 437.884 363.25 437.801C364.925 437.717 366.097 438.47 365.977 438.674Z" fill="#263238"/>
<g opacity="0.3">
<path opacity="0.3" d="M366.396 423.723L366.216 428.448L340.919 428.149L340.895 423.891L366.396 423.723Z" fill="black"/>
</g>
<path d="M366.085 433.315C365.239 433.541 364.348 433.541 363.501 433.315C362.575 433.142 361.672 432.861 360.81 432.478C360.298 432.25 359.802 431.986 359.327 431.689C359.041 431.522 358.779 431.317 358.55 431.079C358.386 430.899 358.287 430.67 358.268 430.427C358.248 430.185 358.309 429.943 358.442 429.739C358.568 429.565 358.733 429.422 358.924 429.322C359.115 429.223 359.327 429.169 359.542 429.165C359.871 429.164 360.197 429.212 360.511 429.309C361.06 429.447 361.596 429.631 362.114 429.859C362.989 430.251 363.797 430.78 364.506 431.426C365.702 432.538 366.109 433.471 366.025 433.531C365.941 433.591 365.331 432.825 364.111 431.904C363.407 431.37 362.635 430.932 361.815 430.6C361.339 430.406 360.847 430.254 360.344 430.146C359.794 429.99 359.327 429.99 359.148 430.23C358.968 430.469 359.088 430.361 359.148 430.517C359.317 430.694 359.511 430.847 359.722 430.971C360.16 431.257 360.616 431.517 361.085 431.749C361.883 432.143 362.716 432.464 363.573 432.706C364.425 432.843 365.265 433.047 366.085 433.315Z" fill="#263238"/>
<path d="M365.75 433.675C365.275 432.93 365.041 432.057 365.08 431.175C365.043 430.221 365.164 429.267 365.439 428.352C365.612 427.815 365.832 427.295 366.097 426.797C366.241 426.461 366.468 426.168 366.757 425.944C367.045 425.72 367.386 425.573 367.748 425.517C367.977 425.521 368.2 425.591 368.391 425.718C368.582 425.845 368.732 426.025 368.824 426.235C368.954 426.541 369.042 426.863 369.087 427.192C369.177 427.766 369.177 428.352 369.087 428.926C368.938 429.889 368.556 430.8 367.975 431.581C366.97 432.909 365.917 433.208 365.894 433.124C365.87 433.041 366.695 432.514 367.46 431.235C367.909 430.508 368.191 429.691 368.286 428.842C368.357 428.347 368.357 427.843 368.286 427.347C368.214 426.809 368.011 426.367 367.807 426.414C367.604 426.462 367.114 426.821 366.898 427.264C366.644 427.707 366.428 428.171 366.252 428.651C365.964 429.48 365.795 430.346 365.75 431.223C365.63 432.694 365.894 433.627 365.75 433.675Z" fill="#263238"/>
<path d="M340.943 291.365C310.527 294.51 270.207 298.649 270.207 298.649L275.709 348.155C275.709 348.155 334.939 332.498 334.521 333.802C334.102 335.105 337.271 439.129 337.271 439.129H372.939L373.608 321.279C373.671 317.094 372.847 312.945 371.19 309.102C369.532 305.26 367.08 301.812 363.994 298.986C360.908 296.16 357.258 294.019 353.285 292.706C349.312 291.392 345.106 290.935 340.943 291.365Z" fill="#452512"/>
<path d="M197.438 311.339V326.685C197.438 337.138 209.339 348.214 219.78 348.214H227.866C234.229 348.214 244.204 343.573 249.395 339.842L252.481 337.581L289.632 452.656C289.632 452.656 332.128 445.037 332.128 443.697C332.128 442.358 303.351 349.446 290.062 306.327C284.632 288.721 265.77 278.483 248.343 284.451C247.757 284.654 247.147 284.882 246.561 285.121C227.471 292.752 197.438 311.339 197.438 311.339Z" fill="#4D2A15"/>
<path d="M332.08 443.686C332.007 443.557 331.947 443.42 331.901 443.279C331.769 442.956 331.614 442.549 331.423 442.083C331.016 440.994 330.43 439.392 329.736 437.299C328.313 433.148 326.363 427.084 323.995 419.585C319.211 404.598 312.895 383.822 305.982 360.857C302.537 349.363 299.272 338.418 296.282 328.443C294.798 323.467 293.399 318.731 292.083 314.294C291.414 312.077 290.776 309.944 290.17 307.894C289.63 305.919 288.983 303.975 288.232 302.07C286.886 298.831 284.844 295.927 282.252 293.565C280.284 291.774 278.181 290.139 275.96 288.673C274.142 287.477 272.695 286.556 271.702 285.958L270.59 285.253C270.453 285.184 270.328 285.096 270.219 284.99C270.363 285.033 270.5 285.097 270.626 285.181L271.822 285.803C272.838 286.353 274.322 287.202 276.175 288.386C278.451 289.797 280.604 291.398 282.61 293.171C285.307 295.54 287.44 298.483 288.854 301.782C289.631 303.702 290.302 305.662 290.863 307.655C291.497 309.701 292.143 311.842 292.825 314.054L297.107 328.168C300.109 338.131 303.41 349.076 306.879 360.558C313.792 383.487 320.036 404.251 324.629 419.369L330.107 437.155L331.638 441.939C331.793 442.454 331.913 442.86 332.021 443.195C332.128 443.53 332.104 443.686 332.08 443.686Z" fill="#3D2111"/>
<path d="M341.051 318.922C341.266 319.066 339.245 322.104 337.558 326.23C335.872 330.357 335.107 333.921 334.843 333.873C334.58 333.825 334.963 330.117 336.733 325.883C338.503 321.649 340.872 318.779 341.051 318.922Z" fill="#361D0E"/>
<path d="M347.893 323.707C347.988 323.946 344.926 325.297 341.733 327.821C338.539 330.345 336.482 332.988 336.267 332.833C336.051 332.677 337.846 329.723 341.183 327.127C344.52 324.532 347.809 323.491 347.893 323.707Z" fill="#361D0E"/>
<path d="M289.978 452.644C289.751 452.716 279.716 421.929 267.564 383.87C255.412 345.81 245.771 314.891 246.034 314.82C246.297 314.748 256.297 345.535 268.449 383.606C280.601 421.678 290.218 452.572 289.978 452.644Z" fill="#3D2111"/>
<path d="M244.396 273.124L365.977 274.297L388.655 210.21L300.217 210.808L279.692 268.436L244.396 268.974V273.124Z" fill="#5B5863"/>
<path d="M336.578 247.779C335.612 247.644 334.708 247.226 333.98 246.576C333.253 245.927 332.734 245.077 332.49 244.133C332.246 243.189 332.287 242.194 332.609 241.273C332.93 240.353 333.518 239.548 334.297 238.962C335.076 238.375 336.012 238.033 336.985 237.979C337.959 237.924 338.927 238.16 339.766 238.656C340.606 239.152 341.28 239.885 341.702 240.764C342.125 241.643 342.277 242.628 342.139 243.593C341.956 244.885 341.267 246.051 340.224 246.836C339.181 247.621 337.87 247.96 336.578 247.779Z" fill="white"/>
<path d="M234.468 99.6686C235.664 95.3986 238.834 93.3054 243.008 91.8821C245.11 91.1827 247.35 91.0024 249.537 91.3564C251.724 91.7105 253.793 92.5885 255.567 93.9154C257.959 95.7095 259.753 98.305 262.552 99.2739C267.145 100.865 272.528 97.4319 276.905 99.4891C278.237 100.095 279.315 101.148 279.951 102.466C280.588 103.783 280.744 105.282 280.392 106.702C280.04 108.122 279.202 109.374 278.023 110.242C276.844 111.109 275.4 111.536 273.939 111.45C276.929 112.55 277.862 116.82 276.116 119.488C274.369 122.155 270.769 123.16 267.624 122.574C264.507 121.814 261.658 120.218 259.383 117.957C256.99 115.828 254.885 113.412 252.35 111.474C249.889 109.391 246.77 108.247 243.546 108.244C239.229 108.472 235.533 111.725 233.607 115.6C231.681 119.476 231.215 123.877 231 128.195C230.784 132.513 230.689 136.891 229.409 141.017C229.253 141.508 229.026 142.046 228.548 142.213C227.842 142.429 227.244 141.687 226.897 141.017C222.965 133.708 220.506 125.699 219.661 117.442C219.17 112.658 219.29 108.137 221.921 104.106C224.553 100.075 231.191 97.1209 234.444 99.6686" fill="#263238"/>
<path d="M226.131 119.678L223.919 168.072C223.548 176.301 224.684 188.477 237.721 188.477C249.036 187.616 252.373 177.043 252.72 169.34C252.876 165.752 253.019 162.666 253.067 162.295C253.067 162.295 265.435 161.697 266.882 149.545C267.576 143.672 268.078 131.448 268.317 120.396C268.459 114.679 266.447 109.116 262.681 104.812C258.915 100.508 253.67 97.7753 247.984 97.1562L246.788 97.0366C234.026 96.4506 226.383 106.928 226.131 119.678Z" fill="#FFBE9D"/>
<path d="M253.103 162.14C247.474 161.65 242.119 159.493 237.721 155.944C237.721 155.944 240.532 165.094 252.792 165.298L253.103 162.14Z" fill="#EB996E"/>
<path d="M226.167 128.793C225.964 128.685 218.07 125.432 217.448 133.781C216.826 142.129 225.342 141.029 225.366 140.79C225.39 140.551 226.167 128.793 226.167 128.793Z" fill="#FFBE9D"/>
<path d="M223.058 137.441C223.058 137.441 222.902 137.536 222.651 137.632C222.293 137.747 221.905 137.726 221.563 137.572C221.049 137.188 220.646 136.675 220.394 136.084C220.142 135.494 220.05 134.848 220.127 134.211C220.161 133.496 220.353 132.798 220.689 132.166C220.789 131.908 220.95 131.679 221.159 131.498C221.367 131.316 221.617 131.188 221.885 131.125C222.056 131.097 222.23 131.128 222.381 131.213C222.531 131.297 222.647 131.431 222.711 131.592C222.806 131.831 222.711 131.999 222.783 132.01C222.854 132.022 222.974 131.891 222.938 131.532C222.906 131.323 222.8 131.132 222.639 130.994C222.532 130.898 222.408 130.824 222.272 130.777C222.137 130.729 221.993 130.71 221.85 130.719C221.501 130.764 221.17 130.898 220.887 131.108C220.605 131.317 220.38 131.595 220.235 131.915C219.831 132.611 219.602 133.395 219.565 134.199C219.493 135.886 220.235 137.524 221.419 137.967C221.638 138.047 221.872 138.076 222.104 138.054C222.336 138.031 222.559 137.956 222.759 137.835C223.022 137.644 223.082 137.453 223.058 137.441Z" fill="#EB996E"/>
<path d="M271.164 118.124C268.395 118.525 265.571 118.265 262.923 117.365C260.274 116.465 257.876 114.95 255.926 112.945C253.235 110.122 251.333 106.271 247.745 104.728C246.515 104.258 245.204 104.036 243.888 104.075C242.573 104.114 241.277 104.413 240.078 104.955C237.681 106.06 235.539 107.648 233.786 109.62C235.473 116.055 233.164 122.777 230.88 129.032C230.695 129.755 230.274 130.395 229.684 130.85C228.619 131.508 227.208 130.755 226.442 129.762C225.346 128.079 224.764 126.113 224.768 124.104C224.367 119.552 224.879 114.965 226.275 110.613C227.694 106.254 230.354 102.405 233.93 99.5369C238.566 96.113 244.353 94.6287 250.065 95.3984C255.746 96.173 261.037 98.7224 265.183 102.683C267.191 104.421 268.733 106.632 269.669 109.118" fill="#263238"/>
<path d="M436.056 157.069L413.27 252.361H419.645L442.084 157.069H436.056Z" fill="#46444A"/>
<path d="M427.3 219.791C426.894 221.538 437.623 273.483 437.623 273.483H432.456L424.358 232.314L427.3 219.791Z" fill="#46444A"/>
<path d="M503.18 342.187H396.453V455.324H503.18V342.187Z" fill="#5B5863"/>
<path d="M508.407 358.716H503.168V363.955H508.407V358.716Z" fill="#263238"/>
<path d="M508.407 375.354H503.168V380.592H508.407V375.354Z" fill="#263238"/>
<path d="M508.407 391.991H503.168V397.23H508.407V391.991Z" fill="#263238"/>
<path d="M508.407 408.628H503.168V413.867H508.407V408.628Z" fill="#263238"/>
<path d="M508.61 393.522C509.132 393.354 509.669 393.238 510.213 393.175C511.696 392.899 513.201 392.755 514.71 392.745C516.989 392.691 519.237 393.284 521.193 394.455C522.41 395.187 523.394 396.251 524.029 397.522C524.665 398.793 524.926 400.218 524.781 401.631C524.666 403.089 524.198 404.497 523.418 405.734C522.692 406.871 521.758 407.861 520.667 408.652C518.815 409.966 516.673 410.811 514.423 411.116C512.93 411.336 511.418 411.388 509.914 411.272C509.361 411.26 508.811 411.183 508.275 411.045C508.821 411.001 509.368 411.001 509.914 411.045C511.401 411.068 512.886 410.951 514.351 410.698C516.512 410.347 518.56 409.495 520.332 408.21C521.409 407.447 522.309 406.462 522.971 405.321C523.634 404.179 524.043 402.909 524.171 401.596C524.309 400.289 524.072 398.971 523.49 397.794C522.908 396.617 522.003 395.629 520.882 394.945C519.02 393.806 516.881 393.202 514.698 393.199C513.211 393.168 511.725 393.244 510.249 393.426C509.707 393.514 509.158 393.546 508.61 393.522Z" fill="#263238"/>
<path d="M507.306 376.98C507.456 376.86 507.621 376.759 507.797 376.681C508.298 376.434 508.818 376.226 509.351 376.059C511.334 375.424 513.446 375.304 515.487 375.712C516.18 375.846 516.842 376.11 517.437 376.49C518.101 376.931 518.588 377.591 518.812 378.356C519.079 379.652 518.884 381.001 518.261 382.17C517.639 383.338 516.628 384.252 515.404 384.755C514.94 384.937 514.443 385.017 513.945 384.99C513.448 384.963 512.962 384.83 512.521 384.599C512.044 384.368 511.638 384.013 511.346 383.571C511.053 383.129 510.885 382.617 510.858 382.088C510.88 381.542 511.049 381.012 511.348 380.555C511.647 380.097 512.065 379.73 512.557 379.492C513.507 379.038 514.583 378.924 515.607 379.169C516.582 379.381 517.495 379.815 518.274 380.437C519.756 381.618 520.711 383.338 520.93 385.221C521.109 386.932 520.62 388.646 519.566 390.006C518.694 391.16 517.574 392.105 516.289 392.769C514.419 393.682 512.386 394.211 510.308 394.324C509.591 394.383 509.028 394.407 508.646 394.407C508.452 394.438 508.254 394.438 508.06 394.407C508.06 394.407 508.861 394.3 510.284 394.12C512.293 393.91 514.247 393.334 516.049 392.422C517.259 391.761 518.309 390.842 519.123 389.731C520.055 388.477 520.482 386.919 520.32 385.365C520.097 383.651 519.212 382.093 517.856 381.023C517.158 380.463 516.339 380.074 515.463 379.887C514.578 379.677 513.647 379.77 512.82 380.15C512.429 380.336 512.096 380.624 511.855 380.984C511.615 381.344 511.477 381.763 511.457 382.195C511.486 382.611 511.625 383.012 511.858 383.359C512.091 383.705 512.41 383.984 512.784 384.169C513.149 384.364 513.552 384.477 513.966 384.5C514.379 384.522 514.792 384.454 515.176 384.3C515.95 384.005 516.631 383.51 517.15 382.865C517.672 382.301 518.053 381.62 518.261 380.88C518.469 380.14 518.498 379.361 518.346 378.607C518.129 377.975 517.739 377.416 517.222 376.993C516.704 376.571 516.078 376.301 515.416 376.215C513.439 375.783 511.388 375.832 509.435 376.358C508.036 376.657 507.33 377.04 507.306 376.98Z" fill="#263238"/>
<path d="M507.354 360.749C507.732 360.592 508.141 360.519 508.55 360.534C509.634 360.456 510.723 360.59 511.756 360.929C513.302 361.45 514.678 362.38 515.739 363.62C517.039 365.162 517.77 367.105 517.808 369.122C517.886 371.137 517.279 373.119 516.085 374.744C515.093 376.053 513.761 377.066 512.234 377.674C511.23 378.093 510.153 378.313 509.064 378.32C508.66 378.361 508.252 378.312 507.868 378.176C509.299 378.132 510.709 377.828 512.031 377.279C513.434 376.642 514.65 375.653 515.559 374.409C516.633 372.871 517.183 371.029 517.127 369.154C517.071 367.28 516.412 365.473 515.248 364.003C514.259 362.824 512.987 361.915 511.552 361.359C510.201 360.904 508.779 360.697 507.354 360.749Z" fill="#263238"/>
<path d="M428.138 282.071C428.515 282.741 428.816 283.451 429.035 284.188C429.683 286.287 430.159 288.435 430.458 290.611C430.9 293.434 431.271 296.915 431.654 300.945C432.037 304.976 432.36 309.593 433.006 314.653C433.173 315.908 433.376 317.2 433.64 318.504C433.884 319.831 434.285 321.124 434.836 322.355C435.544 323.556 436.427 324.644 437.455 325.585C440.742 328.743 444.989 330.714 449.524 331.182C452.756 331.554 456.028 330.99 458.949 329.556C460.467 328.81 461.801 327.737 462.853 326.413C463.906 325.089 464.652 323.548 465.037 321.901C465.422 320.208 465.297 318.439 464.678 316.817C463.993 315.184 462.84 313.79 461.365 312.811C459.865 311.805 458.12 311.226 456.317 311.136C454.494 311.035 452.691 311.563 451.21 312.631C450.475 313.162 449.879 313.864 449.476 314.676C449.086 315.487 448.969 316.401 449.141 317.284C449.35 318.186 449.755 319.031 450.328 319.759C450.9 320.486 451.626 321.079 452.454 321.494C454.162 322.332 456.012 322.844 457.908 323.001C459.789 323.239 461.682 323.371 463.577 323.396C467.303 323.419 471.026 323.211 474.725 322.774C481.997 321.961 489.078 320.788 495.812 320.717C502.546 320.645 509.136 321.578 514.602 324.305C517.255 325.566 519.629 327.343 521.587 329.532C523.373 331.581 524.608 334.05 525.176 336.708C526.133 341.299 525.39 346.081 523.083 350.164C521.336 353.203 518.908 355.795 515.99 357.735C514.167 358.97 512.198 359.974 510.129 360.726C509.41 360.991 508.675 361.211 507.928 361.384L508.478 361.18C508.849 361.073 509.387 360.869 510.081 360.606C512.122 359.814 514.061 358.782 515.858 357.532C518.711 355.581 521.08 353.004 522.784 349.997C524.986 345.985 525.677 341.318 524.733 336.84C524.139 334.255 522.905 331.862 521.145 329.879C519.219 327.751 516.889 326.027 514.291 324.807C508.909 322.2 502.438 321.219 495.74 321.375C489.042 321.53 482.009 322.63 474.701 323.456C470.979 323.914 467.232 324.13 463.482 324.102C461.562 324.077 459.645 323.945 457.741 323.707C455.768 323.541 453.845 323.005 452.071 322.128C451.171 321.663 450.383 321.007 449.763 320.205C449.144 319.403 448.706 318.476 448.483 317.487C448.289 316.475 448.423 315.428 448.866 314.497C449.314 313.595 449.975 312.815 450.791 312.225C452.385 311.069 454.327 310.495 456.293 310.598C458.212 310.701 460.068 311.321 461.664 312.392C463.237 313.44 464.465 314.929 465.192 316.674C465.853 318.411 465.987 320.304 465.575 322.116C465.17 323.846 464.384 325.464 463.275 326.852C462.166 328.24 460.762 329.364 459.164 330.142C456.143 331.625 452.758 332.202 449.416 331.804C446.28 331.479 443.261 330.439 440.589 328.766C439.316 327.985 438.133 327.066 437.06 326.027C435.994 325.046 435.083 323.909 434.357 322.654C433.8 321.38 433.398 320.042 433.161 318.671C432.906 317.356 432.703 316.064 432.551 314.796C431.929 309.713 431.63 305.108 431.283 301.065C430.936 297.022 430.601 293.554 430.207 290.731C429.935 288.56 429.499 286.413 428.903 284.308C428.746 283.76 428.558 283.221 428.341 282.693C428.261 282.49 428.193 282.282 428.138 282.071Z" fill="#263238"/>
<path d="M497.104 450.635C497.104 450.635 497.104 450.468 497.104 450.133C497.104 449.798 497.104 449.319 497.104 448.697C497.104 447.406 497.104 445.528 497.104 443.088C497.104 438.172 497.104 430.995 497.032 421.893C497.032 403.677 496.948 377.722 496.889 346.672L497.164 346.947H400.7L401.011 346.636C401.011 384.91 401.011 420.577 401.011 450.599L400.748 450.336L470.647 450.468L490.25 450.539H495.429H497.224H495.489L490.226 450.635L470.694 450.707L400.616 450.838H400.341V450.635C400.341 420.613 400.341 384.851 400.341 346.672V346.361H400.664H497.128H497.403V346.576C497.343 377.674 497.295 403.713 497.259 421.929C497.259 431.019 497.259 438.172 497.188 443.064C497.188 445.456 497.188 447.346 497.188 448.626C497.188 449.236 497.188 449.702 497.188 450.037C497.188 450.372 497.104 450.635 497.104 450.635Z" fill="#263238"/>
<path d="M469.893 359.41C469.895 359.476 469.883 359.541 469.859 359.602C469.835 359.663 469.799 359.718 469.754 359.765C469.708 359.812 469.653 359.849 469.593 359.874C469.533 359.9 469.468 359.913 469.403 359.913C469.331 359.924 469.258 359.919 469.188 359.9C469.118 359.88 469.054 359.845 468.999 359.798C468.943 359.751 468.899 359.692 468.869 359.626C468.839 359.561 468.823 359.489 468.823 359.416C468.823 359.344 468.839 359.272 468.869 359.206C468.899 359.141 468.943 359.082 468.999 359.035C469.054 358.988 469.118 358.953 469.188 358.933C469.258 358.913 469.331 358.909 469.403 358.92C469.533 358.92 469.657 358.972 469.749 359.064C469.841 359.156 469.893 359.28 469.893 359.41Z" fill="#263238"/>
<path d="M472.656 359.41C472.658 359.476 472.646 359.541 472.622 359.602C472.598 359.663 472.562 359.718 472.517 359.765C472.471 359.812 472.416 359.849 472.356 359.874C472.296 359.9 472.231 359.913 472.166 359.913C472.094 359.924 472.021 359.919 471.951 359.9C471.881 359.88 471.817 359.845 471.762 359.798C471.706 359.751 471.662 359.692 471.632 359.626C471.602 359.561 471.586 359.489 471.586 359.416C471.586 359.344 471.602 359.272 471.632 359.206C471.662 359.141 471.706 359.082 471.762 359.035C471.817 358.988 471.881 358.953 471.951 358.933C472.021 358.913 472.094 358.909 472.166 358.92C472.296 358.92 472.42 358.972 472.512 359.064C472.604 359.156 472.656 359.28 472.656 359.41Z" fill="#263238"/>
<path d="M475.383 359.41C475.384 359.476 475.373 359.541 475.349 359.602C475.325 359.663 475.289 359.718 475.244 359.765C475.198 359.812 475.143 359.849 475.083 359.874C475.023 359.9 474.958 359.913 474.892 359.913C474.821 359.924 474.748 359.919 474.678 359.9C474.608 359.88 474.544 359.845 474.488 359.798C474.433 359.751 474.389 359.692 474.359 359.626C474.329 359.561 474.313 359.489 474.313 359.416C474.313 359.344 474.329 359.272 474.359 359.206C474.389 359.141 474.433 359.082 474.488 359.035C474.544 358.988 474.608 358.953 474.678 358.933C474.748 358.913 474.821 358.909 474.892 358.92C475.023 358.92 475.147 358.972 475.239 359.064C475.331 359.156 475.383 359.28 475.383 359.41Z" fill="#263238"/>
<path d="M478.11 359.41C478.112 359.51 478.085 359.608 478.031 359.692C477.977 359.777 477.9 359.843 477.808 359.883C477.717 359.922 477.615 359.934 477.517 359.916C477.419 359.898 477.328 359.851 477.257 359.781C477.185 359.712 477.136 359.622 477.116 359.525C477.096 359.427 477.105 359.325 477.142 359.233C477.18 359.14 477.244 359.061 477.327 359.005C477.41 358.949 477.508 358.92 477.608 358.92C477.739 358.92 477.865 358.971 477.959 359.063C478.053 359.154 478.107 359.279 478.11 359.41Z" fill="#263238"/>
<path d="M480.837 359.41C480.837 359.543 480.784 359.671 480.69 359.765C480.596 359.859 480.468 359.912 480.335 359.912C480.216 359.894 480.108 359.834 480.03 359.743C479.952 359.652 479.91 359.536 479.91 359.416C479.91 359.296 479.952 359.18 480.03 359.089C480.108 358.998 480.216 358.938 480.335 358.92C480.466 358.92 480.592 358.971 480.686 359.063C480.78 359.154 480.834 359.279 480.837 359.41Z" fill="#263238"/>
<path d="M483.564 359.41C483.564 359.543 483.511 359.671 483.417 359.765C483.323 359.859 483.195 359.912 483.062 359.912C482.943 359.894 482.835 359.834 482.758 359.743C482.68 359.652 482.637 359.536 482.637 359.416C482.637 359.296 482.68 359.18 482.758 359.089C482.835 358.998 482.943 358.938 483.062 358.92C483.193 358.92 483.319 358.971 483.413 359.063C483.507 359.154 483.561 359.279 483.564 359.41Z" fill="#263238"/>
<path d="M486.291 359.41C486.291 359.543 486.238 359.671 486.144 359.765C486.05 359.859 485.922 359.912 485.789 359.912C485.67 359.894 485.563 359.834 485.485 359.743C485.407 359.652 485.364 359.536 485.364 359.416C485.364 359.296 485.407 359.18 485.485 359.089C485.563 358.998 485.67 358.938 485.789 358.92C485.92 358.92 486.046 358.971 486.14 359.063C486.234 359.154 486.288 359.279 486.291 359.41Z" fill="#263238"/>
<path d="M484.533 361.743C484.804 361.743 485.023 361.523 485.023 361.252C485.023 360.981 484.804 360.762 484.533 360.762C484.262 360.762 484.043 360.981 484.043 361.252C484.043 361.523 484.262 361.743 484.533 361.743Z" fill="#263238"/>
<path d="M481.746 361.743C482.017 361.743 482.236 361.523 482.236 361.252C482.236 360.981 482.017 360.762 481.746 360.762C481.475 360.762 481.256 360.981 481.256 361.252C481.256 361.523 481.475 361.743 481.746 361.743Z" fill="#263238"/>
<path d="M479.461 361.252C479.461 361.316 479.449 361.38 479.424 361.44C479.399 361.499 479.363 361.553 479.318 361.599C479.272 361.644 479.218 361.68 479.159 361.705C479.099 361.73 479.035 361.742 478.971 361.742C478.906 361.744 478.841 361.732 478.78 361.708C478.719 361.684 478.663 361.649 478.617 361.603C478.57 361.557 478.533 361.503 478.507 361.442C478.482 361.382 478.469 361.317 478.469 361.252C478.469 361.186 478.482 361.121 478.507 361.06C478.532 360.999 478.569 360.943 478.616 360.897C478.663 360.85 478.718 360.813 478.779 360.788C478.84 360.762 478.905 360.75 478.971 360.75C479.036 360.749 479.101 360.763 479.162 360.788C479.222 360.813 479.276 360.851 479.322 360.897C479.368 360.944 479.404 361 479.428 361.061C479.452 361.121 479.463 361.186 479.461 361.252Z" fill="#263238"/>
<path d="M476.172 361.743C476.443 361.743 476.663 361.523 476.663 361.252C476.663 360.981 476.443 360.762 476.172 360.762C475.902 360.762 475.682 360.981 475.682 361.252C475.682 361.523 475.902 361.743 476.172 361.743Z" fill="#263238"/>
<path d="M473.373 361.743C473.644 361.743 473.864 361.523 473.864 361.252C473.864 360.981 473.644 360.762 473.373 360.762C473.103 360.762 472.883 360.981 472.883 361.252C472.883 361.523 473.103 361.743 473.373 361.743Z" fill="#263238"/>
<path d="M471.089 361.252C471.089 361.317 471.076 361.382 471.05 361.442C471.025 361.503 470.988 361.557 470.941 361.603C470.894 361.649 470.839 361.684 470.778 361.708C470.717 361.732 470.652 361.744 470.586 361.742C470.456 361.742 470.332 361.691 470.24 361.599C470.148 361.507 470.096 361.382 470.096 361.252C470.095 361.186 470.106 361.121 470.13 361.061C470.154 361 470.19 360.944 470.235 360.897C470.281 360.851 470.336 360.813 470.396 360.788C470.456 360.763 470.521 360.749 470.586 360.75C470.652 360.75 470.718 360.762 470.779 360.788C470.84 360.813 470.895 360.85 470.942 360.897C470.988 360.943 471.025 360.999 471.051 361.06C471.076 361.121 471.089 361.186 471.089 361.252Z" fill="#263238"/>
<path d="M469.893 363.321C469.893 363.451 469.841 363.576 469.749 363.668C469.657 363.76 469.533 363.812 469.402 363.812C469.337 363.813 469.272 363.802 469.211 363.778C469.15 363.754 469.095 363.718 469.048 363.672C469.001 363.627 468.964 363.572 468.939 363.512C468.913 363.451 468.9 363.387 468.9 363.321C468.9 363.188 468.953 363.06 469.047 362.966C469.141 362.872 469.269 362.819 469.402 362.819C469.468 362.819 469.533 362.832 469.593 362.857C469.653 362.883 469.708 362.92 469.754 362.967C469.799 363.014 469.835 363.069 469.859 363.13C469.883 363.191 469.894 363.256 469.893 363.321Z" fill="#263238"/>
<path d="M472.656 363.321C472.656 363.451 472.604 363.576 472.512 363.668C472.42 363.76 472.295 363.812 472.165 363.812C472.1 363.813 472.035 363.802 471.974 363.778C471.913 363.754 471.858 363.718 471.811 363.672C471.764 363.627 471.727 363.572 471.701 363.512C471.676 363.451 471.663 363.387 471.663 363.321C471.663 363.188 471.716 363.06 471.81 362.966C471.904 362.872 472.032 362.819 472.165 362.819C472.231 362.819 472.296 362.832 472.356 362.857C472.416 362.883 472.471 362.92 472.516 362.967C472.562 363.014 472.598 363.069 472.622 363.13C472.646 363.191 472.657 363.256 472.656 363.321Z" fill="#263238"/>
<path d="M475.383 363.321C475.383 363.451 475.331 363.576 475.239 363.668C475.147 363.76 475.023 363.812 474.893 363.812C474.827 363.813 474.762 363.802 474.701 363.778C474.64 363.754 474.585 363.718 474.538 363.672C474.491 363.627 474.454 363.572 474.429 363.512C474.403 363.451 474.39 363.387 474.39 363.321C474.39 363.255 474.403 363.19 474.428 363.129C474.454 363.068 474.491 363.013 474.537 362.966C474.584 362.919 474.639 362.882 474.7 362.857C474.761 362.832 474.827 362.819 474.893 362.819C474.958 362.819 475.023 362.832 475.083 362.857C475.143 362.883 475.198 362.92 475.244 362.967C475.289 363.014 475.325 363.069 475.349 363.13C475.373 363.191 475.385 363.256 475.383 363.321Z" fill="#263238"/>
<path d="M478.11 363.321C478.092 363.439 478.032 363.547 477.941 363.625C477.85 363.703 477.734 363.746 477.614 363.746C477.494 363.746 477.378 363.703 477.287 363.625C477.196 363.547 477.136 363.439 477.117 363.321C477.106 363.249 477.111 363.176 477.131 363.106C477.15 363.037 477.185 362.972 477.232 362.917C477.279 362.862 477.338 362.818 477.404 362.787C477.47 362.757 477.541 362.741 477.614 362.741C477.686 362.741 477.758 362.757 477.824 362.787C477.89 362.818 477.948 362.862 477.995 362.917C478.043 362.972 478.077 363.037 478.097 363.106C478.117 363.176 478.121 363.249 478.11 363.321Z" fill="#263238"/>
<path d="M480.837 363.321C480.837 363.387 480.824 363.451 480.799 363.512C480.773 363.572 480.736 363.627 480.689 363.672C480.642 363.718 480.587 363.754 480.526 363.778C480.465 363.802 480.4 363.813 480.335 363.812C480.205 363.812 480.08 363.76 479.988 363.668C479.896 363.576 479.844 363.451 479.844 363.321C479.843 363.256 479.854 363.191 479.878 363.13C479.902 363.069 479.938 363.014 479.984 362.967C480.029 362.92 480.084 362.883 480.144 362.857C480.205 362.832 480.269 362.819 480.335 362.819C480.468 362.819 480.596 362.872 480.69 362.966C480.784 363.06 480.837 363.188 480.837 363.321Z" fill="#263238"/>
<path d="M483.564 363.321C483.564 363.387 483.551 363.451 483.526 363.512C483.5 363.572 483.463 363.627 483.416 363.672C483.369 363.718 483.314 363.754 483.253 363.778C483.192 363.802 483.127 363.813 483.062 363.812C482.932 363.812 482.807 363.76 482.715 363.668C482.623 363.576 482.571 363.451 482.571 363.321C482.57 363.256 482.581 363.191 482.605 363.13C482.629 363.069 482.665 363.014 482.711 362.967C482.756 362.92 482.811 362.883 482.871 362.857C482.932 362.832 482.996 362.819 483.062 362.819C483.195 362.819 483.323 362.872 483.417 362.966C483.511 363.06 483.564 363.188 483.564 363.321Z" fill="#263238"/>
<path d="M486.291 363.321C486.291 363.387 486.278 363.451 486.253 363.512C486.227 363.572 486.19 363.627 486.143 363.672C486.097 363.718 486.041 363.754 485.98 363.778C485.919 363.802 485.854 363.813 485.789 363.812C485.725 363.812 485.661 363.799 485.601 363.774C485.542 363.75 485.488 363.714 485.442 363.668C485.397 363.622 485.361 363.568 485.336 363.509C485.311 363.449 485.299 363.386 485.299 363.321C485.297 363.256 485.308 363.191 485.332 363.13C485.356 363.069 485.392 363.014 485.438 362.967C485.484 362.92 485.538 362.883 485.599 362.857C485.659 362.832 485.724 362.819 485.789 362.819C485.922 362.819 486.05 362.872 486.144 362.966C486.238 363.06 486.291 363.188 486.291 363.321Z" fill="#263238"/>
<path d="M485.035 365.151C485.035 365.284 484.982 365.412 484.888 365.506C484.794 365.601 484.666 365.654 484.533 365.654C484.468 365.654 484.403 365.641 484.342 365.615C484.282 365.59 484.228 365.553 484.182 365.506C484.136 365.459 484.1 365.403 484.076 365.343C484.052 365.282 484.041 365.217 484.043 365.151C484.043 365.021 484.094 364.896 484.186 364.804C484.278 364.712 484.403 364.661 484.533 364.661C484.598 364.659 484.663 364.671 484.724 364.695C484.785 364.719 484.841 364.754 484.887 364.8C484.934 364.846 484.971 364.9 484.997 364.961C485.022 365.021 485.035 365.086 485.035 365.151Z" fill="#263238"/>
<path d="M482.237 365.151C482.238 365.217 482.227 365.282 482.203 365.343C482.179 365.403 482.143 365.459 482.097 365.506C482.051 365.553 481.997 365.59 481.937 365.615C481.876 365.641 481.812 365.654 481.746 365.654C481.613 365.654 481.485 365.601 481.391 365.506C481.297 365.412 481.244 365.284 481.244 365.151C481.244 365.086 481.257 365.021 481.282 364.961C481.308 364.9 481.345 364.846 481.392 364.8C481.438 364.754 481.494 364.719 481.555 364.695C481.616 364.671 481.681 364.659 481.746 364.661C481.876 364.661 482.001 364.712 482.093 364.804C482.185 364.896 482.237 365.021 482.237 365.151Z" fill="#263238"/>
<path d="M479.461 365.151C479.463 365.217 479.452 365.282 479.428 365.343C479.404 365.403 479.368 365.459 479.322 365.506C479.276 365.553 479.222 365.59 479.162 365.615C479.101 365.641 479.036 365.654 478.971 365.654C478.905 365.654 478.84 365.641 478.779 365.615C478.718 365.59 478.663 365.553 478.616 365.506C478.569 365.46 478.532 365.404 478.507 365.343C478.482 365.282 478.469 365.217 478.469 365.151C478.469 365.086 478.482 365.021 478.507 364.961C478.533 364.9 478.57 364.846 478.617 364.8C478.663 364.754 478.719 364.719 478.78 364.695C478.841 364.671 478.906 364.659 478.971 364.661C479.035 364.661 479.099 364.673 479.159 364.698C479.218 364.723 479.272 364.759 479.318 364.804C479.363 364.85 479.399 364.904 479.424 364.964C479.449 365.023 479.461 365.087 479.461 365.151Z" fill="#263238"/>
<path d="M476.663 365.151C476.664 365.217 476.653 365.282 476.629 365.343C476.605 365.403 476.569 365.459 476.523 365.506C476.478 365.553 476.423 365.59 476.363 365.615C476.302 365.641 476.238 365.654 476.172 365.654C476.039 365.654 475.911 365.601 475.817 365.506C475.723 365.412 475.67 365.284 475.67 365.151C475.67 365.086 475.683 365.021 475.708 364.961C475.734 364.9 475.771 364.846 475.818 364.8C475.865 364.754 475.92 364.719 475.981 364.695C476.042 364.671 476.107 364.659 476.172 364.661C476.302 364.661 476.427 364.712 476.519 364.804C476.611 364.896 476.663 365.021 476.663 365.151Z" fill="#263238"/>
<path d="M473.876 365.151C473.887 365.223 473.883 365.296 473.863 365.366C473.843 365.435 473.808 365.5 473.761 365.555C473.714 365.61 473.655 365.654 473.59 365.685C473.524 365.715 473.452 365.731 473.38 365.731C473.307 365.731 473.235 365.715 473.17 365.685C473.104 365.654 473.045 365.61 472.998 365.555C472.951 365.5 472.916 365.435 472.896 365.366C472.876 365.296 472.872 365.223 472.883 365.151C472.902 365.033 472.962 364.925 473.053 364.847C473.144 364.769 473.26 364.726 473.38 364.726C473.499 364.726 473.615 364.769 473.706 364.847C473.797 364.925 473.857 365.033 473.876 365.151Z" fill="#263238"/>
<path d="M471.089 365.151C471.089 365.284 471.036 365.412 470.942 365.506C470.848 365.601 470.72 365.654 470.586 365.654C470.521 365.654 470.456 365.641 470.396 365.615C470.336 365.59 470.281 365.553 470.235 365.506C470.19 365.459 470.154 365.403 470.13 365.343C470.106 365.282 470.095 365.217 470.096 365.151C470.096 365.021 470.148 364.896 470.24 364.804C470.332 364.712 470.456 364.661 470.586 364.661C470.652 364.659 470.717 364.671 470.778 364.695C470.839 364.719 470.894 364.754 470.941 364.8C470.988 364.846 471.025 364.9 471.05 364.961C471.076 365.021 471.089 365.086 471.089 365.151Z" fill="#263238"/>
<path d="M469.893 367.22C469.894 367.286 469.883 367.351 469.859 367.412C469.835 367.473 469.799 367.528 469.754 367.575C469.708 367.622 469.653 367.659 469.593 367.684C469.533 367.71 469.468 367.723 469.402 367.723C469.269 367.723 469.141 367.67 469.047 367.575C468.953 367.481 468.9 367.354 468.9 367.22C468.9 367.155 468.913 367.09 468.939 367.03C468.964 366.97 469.001 366.915 469.048 366.869C469.095 366.824 469.15 366.788 469.211 366.764C469.272 366.74 469.337 366.728 469.402 366.73C469.533 366.73 469.657 366.782 469.749 366.874C469.841 366.965 469.893 367.09 469.893 367.22Z" fill="#263238"/>
<path d="M472.656 367.22C472.657 367.286 472.646 367.351 472.622 367.412C472.598 367.473 472.562 367.528 472.516 367.575C472.471 367.622 472.416 367.659 472.356 367.684C472.296 367.71 472.231 367.723 472.165 367.723C472.032 367.723 471.904 367.67 471.81 367.575C471.716 367.481 471.663 367.354 471.663 367.22C471.663 367.155 471.676 367.09 471.701 367.03C471.727 366.97 471.764 366.915 471.811 366.869C471.858 366.824 471.913 366.788 471.974 366.764C472.035 366.74 472.1 366.728 472.165 366.73C472.295 366.73 472.42 366.782 472.512 366.874C472.604 366.965 472.656 367.09 472.656 367.22Z" fill="#263238"/>
<path d="M475.383 367.22C475.385 367.286 475.373 367.351 475.349 367.412C475.325 367.473 475.289 367.528 475.244 367.575C475.198 367.622 475.143 367.659 475.083 367.684C475.023 367.71 474.958 367.723 474.893 367.723C474.827 367.723 474.761 367.71 474.7 367.684C474.639 367.659 474.584 367.622 474.537 367.575C474.491 367.529 474.454 367.473 474.428 367.412C474.403 367.352 474.39 367.286 474.39 367.22C474.39 367.155 474.403 367.09 474.429 367.03C474.454 366.97 474.491 366.915 474.538 366.869C474.585 366.824 474.64 366.788 474.701 366.764C474.762 366.74 474.827 366.728 474.893 366.73C475.023 366.73 475.147 366.782 475.239 366.874C475.331 366.965 475.383 367.09 475.383 367.22Z" fill="#263238"/>
<path d="M478.11 367.221C478.121 367.292 478.117 367.365 478.097 367.435C478.077 367.505 478.043 367.569 477.995 367.625C477.948 367.68 477.89 367.724 477.824 367.754C477.758 367.784 477.686 367.8 477.614 367.8C477.541 367.8 477.47 367.784 477.404 367.754C477.338 367.724 477.279 367.68 477.232 367.625C477.185 367.569 477.15 367.505 477.131 367.435C477.111 367.365 477.106 367.292 477.117 367.221C477.136 367.102 477.196 366.994 477.287 366.916C477.378 366.838 477.494 366.795 477.614 366.795C477.734 366.795 477.85 366.838 477.941 366.916C478.032 366.994 478.092 367.102 478.11 367.221Z" fill="#263238"/>
<path d="M480.837 367.22C480.837 367.354 480.784 367.481 480.69 367.575C480.596 367.67 480.468 367.723 480.335 367.723C480.269 367.723 480.205 367.71 480.144 367.684C480.084 367.659 480.029 367.622 479.984 367.575C479.938 367.528 479.902 367.473 479.878 367.412C479.854 367.351 479.843 367.286 479.844 367.22C479.844 367.09 479.896 366.965 479.988 366.874C480.08 366.782 480.205 366.73 480.335 366.73C480.4 366.728 480.465 366.74 480.526 366.764C480.587 366.788 480.642 366.824 480.689 366.869C480.736 366.915 480.773 366.97 480.799 367.03C480.824 367.09 480.837 367.155 480.837 367.22Z" fill="#263238"/>
<path d="M483.564 367.22C483.564 367.354 483.511 367.481 483.417 367.575C483.323 367.67 483.195 367.723 483.062 367.723C482.996 367.723 482.932 367.71 482.871 367.684C482.811 367.659 482.756 367.622 482.711 367.575C482.665 367.528 482.629 367.473 482.605 367.412C482.581 367.351 482.57 367.286 482.571 367.22C482.571 367.09 482.623 366.965 482.715 366.874C482.807 366.782 482.932 366.73 483.062 366.73C483.127 366.728 483.192 366.74 483.253 366.764C483.314 366.788 483.369 366.824 483.416 366.869C483.463 366.915 483.5 366.97 483.526 367.03C483.551 367.09 483.564 367.155 483.564 367.22Z" fill="#263238"/>
<path d="M486.291 367.22C486.291 367.354 486.238 367.481 486.144 367.575C486.05 367.67 485.922 367.723 485.789 367.723C485.724 367.723 485.659 367.71 485.599 367.684C485.538 367.659 485.484 367.622 485.438 367.575C485.392 367.528 485.356 367.473 485.332 367.412C485.308 367.351 485.297 367.286 485.299 367.22C485.299 367.156 485.311 367.092 485.336 367.033C485.361 366.973 485.397 366.919 485.442 366.874C485.488 366.828 485.542 366.792 485.601 366.767C485.661 366.743 485.725 366.73 485.789 366.73C485.854 366.728 485.919 366.74 485.98 366.764C486.041 366.788 486.097 366.824 486.143 366.869C486.19 366.915 486.227 366.97 486.253 367.03C486.278 367.09 486.291 367.155 486.291 367.22Z" fill="#263238"/>
<path d="M484.533 369.552C484.804 369.552 485.023 369.333 485.023 369.062C485.023 368.791 484.804 368.572 484.533 368.572C484.262 368.572 484.043 368.791 484.043 369.062C484.043 369.333 484.262 369.552 484.533 369.552Z" fill="#263238"/>
<path d="M481.746 369.552C482.017 369.552 482.236 369.333 482.236 369.062C482.236 368.791 482.017 368.572 481.746 368.572C481.475 368.572 481.256 368.791 481.256 369.062C481.256 369.333 481.475 369.552 481.746 369.552Z" fill="#263238"/>
<path d="M479.461 369.063C479.461 369.127 479.449 369.191 479.424 369.25C479.4 369.31 479.363 369.364 479.318 369.409C479.272 369.455 479.218 369.491 479.159 369.516C479.099 369.54 479.035 369.553 478.971 369.553C478.899 369.564 478.826 369.56 478.757 369.54C478.687 369.52 478.622 369.485 478.567 369.438C478.512 369.391 478.468 369.332 478.437 369.267C478.407 369.201 478.391 369.129 478.391 369.057C478.391 368.984 478.407 368.912 478.437 368.847C478.468 368.781 478.512 368.722 478.567 368.675C478.622 368.628 478.687 368.593 478.757 368.573C478.826 368.554 478.899 368.549 478.971 368.56C479.037 368.56 479.101 368.573 479.162 368.599C479.222 368.624 479.276 368.661 479.322 368.708C479.368 368.755 479.404 368.81 479.428 368.871C479.452 368.932 479.463 368.997 479.461 369.063Z" fill="#263238"/>
<path d="M476.172 369.552C476.443 369.552 476.663 369.333 476.663 369.062C476.663 368.791 476.443 368.572 476.172 368.572C475.902 368.572 475.682 368.791 475.682 369.062C475.682 369.333 475.902 369.552 476.172 369.552Z" fill="#263238"/>
<path d="M473.373 369.552C473.644 369.552 473.864 369.333 473.864 369.062C473.864 368.791 473.644 368.572 473.373 368.572C473.103 368.572 472.883 368.791 472.883 369.062C472.883 369.333 473.103 369.552 473.373 369.552Z" fill="#263238"/>
<path d="M471.089 369.062C471.086 369.194 471.031 369.318 470.938 369.41C470.844 369.502 470.718 369.553 470.587 369.553C470.468 369.534 470.36 369.474 470.282 369.383C470.204 369.292 470.161 369.176 470.161 369.056C470.161 368.937 470.204 368.821 470.282 368.73C470.36 368.639 470.468 368.578 470.587 368.56C470.72 368.56 470.848 368.613 470.942 368.707C471.036 368.801 471.089 368.929 471.089 369.062Z" fill="#263238"/>
<path d="M432.216 247.648C432.876 247.661 433.53 247.778 434.154 247.995C435.967 248.588 437.592 249.648 438.866 251.069C440.821 253.362 442.246 256.057 443.041 258.963C444.205 262.746 445.081 266.613 445.66 270.529C447.001 280.74 447.258 291.064 446.426 301.328C446.263 304.354 445.341 307.291 443.746 309.868C442.87 311.187 441.72 312.301 440.373 313.133C438.981 314.001 437.343 314.391 435.709 314.246C434.034 314.092 432.466 313.36 431.271 312.177C430.672 311.568 430.225 310.826 429.968 310.012C429.723 309.172 429.723 308.28 429.968 307.44C430.185 306.592 430.601 305.808 431.181 305.153C431.761 304.498 432.489 303.991 433.305 303.672C434.159 303.368 435.093 303.368 435.948 303.672C436.787 303.991 437.517 304.543 438.053 305.263C438.574 305.966 438.948 306.767 439.154 307.618C439.359 308.468 439.392 309.352 439.249 310.215C438.972 311.881 438.383 313.479 437.515 314.928C435.174 319.089 431.293 322.165 426.708 323.493C422.122 324.822 417.198 324.298 412.995 322.032C410.482 320.644 408.282 318.75 406.536 316.471C404.872 314.356 403.529 312.006 402.553 309.497C400.948 304.959 400.064 300.196 399.934 295.384C399.707 290.994 399.934 287.011 399.515 283.566C399.331 281.973 398.958 280.407 398.403 278.902C397.918 277.643 397.244 276.465 396.405 275.409C395.259 273.918 393.718 272.779 391.956 272.12C391.333 271.925 390.698 271.773 390.054 271.665C390.718 271.678 391.376 271.795 392.004 272.012C393.815 272.622 395.407 273.749 396.585 275.254C397.467 276.332 398.173 277.543 398.678 278.842C399.271 280.382 399.672 281.988 399.874 283.626C400.341 287.107 400.125 291.09 400.388 295.455C400.549 300.218 401.449 304.927 403.056 309.414C403.999 311.88 405.301 314.193 406.919 316.279C408.627 318.491 410.773 320.328 413.222 321.673C417.293 323.852 422.055 324.348 426.487 323.056C430.919 321.763 434.668 318.785 436.929 314.76C437.755 313.381 438.315 311.86 438.579 310.275C438.718 309.494 438.697 308.693 438.518 307.92C438.34 307.147 438.006 306.418 437.539 305.778C437.067 305.156 436.434 304.676 435.709 304.39C434.99 304.133 434.203 304.133 433.484 304.39C432.765 304.675 432.124 305.126 431.613 305.706C431.101 306.286 430.734 306.978 430.542 307.727C430.357 308.463 430.37 309.235 430.58 309.964C430.79 310.693 431.19 311.353 431.738 311.878C432.829 312.959 434.262 313.627 435.792 313.767C437.296 313.905 438.804 313.548 440.086 312.751C441.362 311.965 442.451 310.912 443.28 309.665C444.823 307.171 445.716 304.329 445.875 301.4C446.731 291.179 446.523 280.898 445.253 270.72C444.696 266.824 443.853 262.974 442.73 259.202C441.975 256.33 440.603 253.656 438.711 251.368C437.482 249.952 435.908 248.877 434.142 248.246C433.515 248.002 432.871 247.803 432.216 247.648Z" fill="#E0E0E0"/>
<path d="M422.827 264.955H383.093V272.526H422.827V264.955Z" fill="#E0E0E0"/>
<path d="M136.006 343.227H84.1802V454.785H136.006V343.227Z" fill="#4C4A52"/>
<path d="M131.557 443.04C131.557 443.04 131.557 442.873 131.557 442.55C131.557 442.227 131.557 441.76 131.557 441.162C131.557 439.966 131.557 438.136 131.557 435.828C131.557 431.163 131.557 424.405 131.473 415.901C131.473 398.893 131.39 374.947 131.33 347.09L131.629 347.377H88.2708L88.5818 347.066C88.5818 384.336 88.5818 418.185 88.4981 443.016L88.2708 442.789L119.931 442.908L128.591 442.968H130.851C131.366 442.968 131.641 442.968 131.641 442.968H130.899H128.674H120.075L88.2708 443.088H88.0555V442.861C88.0555 418.03 88.0555 384.181 87.9598 346.911V346.6H131.94V346.899C131.94 374.839 131.832 398.857 131.796 415.913C131.796 424.381 131.796 431.127 131.713 435.768C131.713 438.052 131.713 439.823 131.713 441.043C131.713 441.629 131.713 442.071 131.713 442.394C131.713 442.717 131.557 443.04 131.557 443.04Z" fill="#3F3E44"/>
<path d="M109.923 376.936C114.163 376.936 117.601 373.499 117.601 369.259C117.601 365.018 114.163 361.581 109.923 361.581C105.683 361.581 102.245 365.018 102.245 369.259C102.245 373.499 105.683 376.936 109.923 376.936Z" fill="#FD3E72"/>
<path d="M85.9504 399.203C85.2951 399.142 84.6467 399.022 84.0127 398.845C82.1805 398.34 80.446 397.531 78.8815 396.452C76.4008 394.749 74.2961 392.555 72.6978 390.005C70.6202 386.617 69.0978 382.918 68.1886 379.049C66.966 374.398 66.5015 369.58 66.8131 364.78C67.1165 359.208 69.0045 353.839 72.2553 349.303C74.0211 346.863 76.223 344.77 78.75 343.131C80.0664 342.299 81.4653 341.606 82.9243 341.062C84.4216 340.538 85.9686 340.169 87.5412 339.961C90.6988 339.519 93.9283 339.579 97.1098 339.387C100.379 339.319 103.6 338.578 106.571 337.21C108.031 336.538 109.319 335.542 110.339 334.299C111.358 333.056 112.082 331.598 112.456 330.034C112.796 328.538 112.791 326.983 112.44 325.489C112.09 323.995 111.402 322.601 110.431 321.413C109.46 320.225 108.23 319.274 106.836 318.633C105.441 317.992 103.919 317.678 102.385 317.714C100.933 317.793 99.5404 318.31 98.3897 319.197C97.8453 319.619 97.4094 320.165 97.1182 320.789C96.8269 321.413 96.6888 322.097 96.7151 322.786C96.8622 324.133 97.4763 325.386 98.4507 326.327C99.4251 327.269 100.698 327.84 102.05 327.941C103.346 327.965 104.632 327.702 105.815 327.17C106.998 326.639 108.048 325.852 108.891 324.867C110.492 322.976 111.645 320.747 112.264 318.348C112.859 316.142 113.318 313.901 113.64 311.638C114.498 304.772 114.71 297.84 114.274 290.934C114.154 288.542 114.058 286.616 113.987 285.3C113.987 284.678 113.963 284.188 113.915 283.829C113.899 283.662 113.899 283.494 113.915 283.327C113.954 283.492 113.978 283.66 113.987 283.829C113.987 284.188 114.058 284.667 114.118 285.288C114.214 286.58 114.369 288.47 114.513 290.922C115.049 297.845 114.901 304.804 114.07 311.698C113.761 313.984 113.309 316.249 112.719 318.48C112.106 320.941 110.949 323.234 109.334 325.19C108.442 326.238 107.327 327.076 106.072 327.64C104.816 328.205 103.45 328.483 102.074 328.455C100.584 328.353 99.1776 327.729 98.1033 326.691C97.0289 325.654 96.3551 324.271 96.2008 322.786C96.1674 322.004 96.3203 321.225 96.6468 320.514C96.9733 319.803 97.464 319.179 98.0787 318.695C99.3171 317.725 100.825 317.161 102.397 317.08C104.439 317.059 106.444 317.619 108.18 318.696C109.916 319.772 111.309 321.319 112.199 323.158C113.088 324.996 113.436 327.05 113.201 329.078C112.967 331.107 112.161 333.027 110.877 334.615C109.772 335.923 108.408 336.986 106.87 337.737C103.822 339.146 100.515 339.912 97.1577 339.985C93.8924 340.177 90.6749 340.117 87.589 340.536C86.0583 340.74 84.5518 341.097 83.0918 341.6C81.6728 342.124 80.3136 342.798 79.037 343.609C76.569 345.198 74.4125 347.225 72.6739 349.59C69.4799 354.034 67.6133 359.293 67.2915 364.756C66.9813 369.514 67.4336 374.291 68.6311 378.906C69.5141 382.736 70.9912 386.405 73.0088 389.778C74.548 392.305 76.5822 394.493 78.9892 396.213C80.526 397.297 82.2258 398.129 84.0247 398.677C84.6347 398.856 85.1131 398.964 85.4361 399.036C85.6138 399.07 85.7866 399.126 85.9504 399.203Z" fill="#263238"/>
<path d="M191.026 170.166H68.3082V254.441H191.026V170.166Z" fill="#46444A"/>
<path d="M136.892 242.947H120.182V274.739H136.892V242.947Z" fill="#46444A"/>
<path d="M80.5203 273.519V284.954H143.841V455.348H149.666V284.954L414.108 286.258V455.348H419.825V285.947L460.635 286.27V272.527L80.5203 273.519Z" fill="#AA8C30"/>
<path d="M121.044 282.729L146.006 300.706L143.841 302.787L118.663 283.829L121.044 282.729Z" fill="#AA8C30"/>
<path d="M443.352 284.404L414.383 305.036L416.56 307.118L445.732 285.504L443.352 284.404Z" fill="#AA8C30"/>
<path d="M238.248 269.45H172.441V273.837H238.248V269.45Z" fill="#46444A"/>
<defs>
<filter id="filter0_d" x="314.418" y="83.124" width="179.607" height="148.545" filterUnits="userSpaceOnUse" color-interpolation-filters="sRGB">
<feFlood flood-opacity="0" result="BackgroundImageFix"/>
<feColorMatrix in="SourceAlpha" type="matrix" values="0 0 0 0 0 0 0 0 0 0 0 0 0 0 0 0 0 0 127 0" result="hardAlpha"/>
<feOffset dy="4"/>
<feGaussianBlur stdDeviation="3"/>
<feComposite in2="hardAlpha" operator="out"/>
<feColorMatrix type="matrix" values="0 0 0 0 0 0 0 0 0 0 0 0 0 0 0 0 0 0 0.1 0"/>
<feBlend mode="normal" in2="BackgroundImageFix" result="effect1_dropShadow"/>
<feBlend mode="normal" in="SourceGraphic" in2="effect1_dropShadow" result="shape"/>
</filter>
<filter id="filter1_d" x="302.506" y="91.7961" width="179.607" height="148.545" filterUnits="userSpaceOnUse" color-interpolation-filters="sRGB">
<feFlood flood-opacity="0" result="BackgroundImageFix"/>
<feColorMatrix in="SourceAlpha" type="matrix" values="0 0 0 0 0 0 0 0 0 0 0 0 0 0 0 0 0 0 127 0" result="hardAlpha"/>
<feOffset dy="4"/>
<feGaussianBlur stdDeviation="3"/>
<feComposite in2="hardAlpha" operator="out"/>
<feColorMatrix type="matrix" values="0 0 0 0 0 0 0 0 0 0 0 0 0 0 0 0 0 0 0.1 0"/>
<feBlend mode="normal" in2="BackgroundImageFix" result="effect1_dropShadow"/>
<feBlend mode="normal" in="SourceGraphic" in2="effect1_dropShadow" result="shape"/>
</filter>
<filter id="filter2_d" x="285.991" y="100.737" width="184.197" height="152.39" filterUnits="userSpaceOnUse" color-interpolation-filters="sRGB">
<feFlood flood-opacity="0" result="BackgroundImageFix"/>
<feColorMatrix in="SourceAlpha" type="matrix" values="0 0 0 0 0 0 0 0 0 0 0 0 0 0 0 0 0 0 127 0" result="hardAlpha"/>
<feOffset dy="4"/>
<feGaussianBlur stdDeviation="3"/>
<feComposite in2="hardAlpha" operator="out"/>
<feColorMatrix type="matrix" values="0 0 0 0 0 0 0 0 0 0 0 0 0 0 0 0 0 0 0.1 0"/>
<feBlend mode="normal" in2="BackgroundImageFix" result="effect1_dropShadow"/>
<feBlend mode="normal" in="SourceGraphic" in2="effect1_dropShadow" result="shape"/>
</filter>
<filter id="filter3_d" x="97.2454" y="50.187" width="81.4659" height="60.5225" filterUnits="userSpaceOnUse" color-interpolation-filters="sRGB">
<feFlood flood-opacity="0" result="BackgroundImageFix"/>
<feColorMatrix in="SourceAlpha" type="matrix" values="0 0 0 0 0 0 0 0 0 0 0 0 0 0 0 0 0 0 127 0" result="hardAlpha"/>
<feOffset dy="4"/>
<feGaussianBlur stdDeviation="2.5"/>
<feComposite in2="hardAlpha" operator="out"/>
<feColorMatrix type="matrix" values="0 0 0 0 0 0 0 0 0 0 0 0 0 0 0 0 0 0 0.15 0"/>
<feBlend mode="normal" in2="BackgroundImageFix" result="effect1_dropShadow"/>
<feBlend mode="normal" in="SourceGraphic" in2="effect1_dropShadow" result="shape"/>
</filter>
<filter id="filter4_d" x="443.83" y="180.876" width="74.0622" height="55.6664" filterUnits="userSpaceOnUse" color-interpolation-filters="sRGB">
<feFlood flood-opacity="0" result="BackgroundImageFix"/>
<feColorMatrix in="SourceAlpha" type="matrix" values="0 0 0 0 0 0 0 0 0 0 0 0 0 0 0 0 0 0 127 0" result="hardAlpha"/>
<feOffset dy="4"/>
<feGaussianBlur stdDeviation="2.5"/>
<feComposite in2="hardAlpha" operator="out"/>
<feColorMatrix type="matrix" values="0 0 0 0 0 0 0 0 0 0 0 0 0 0 0 0 0 0 0.15 0"/>
<feBlend mode="normal" in2="BackgroundImageFix" result="effect1_dropShadow"/>
<feBlend mode="normal" in="SourceGraphic" in2="effect1_dropShadow" result="shape"/>
</filter>
<filter id="filter5_d" x="35.8244" y="180.229" width="57.616" height="43.6697" filterUnits="userSpaceOnUse" color-interpolation-filters="sRGB">
<feFlood flood-opacity="0" result="BackgroundImageFix"/>
<feColorMatrix in="SourceAlpha" type="matrix" values="0 0 0 0 0 0 0 0 0 0 0 0 0 0 0 0 0 0 127 0" result="hardAlpha"/>
<feOffset dy="4"/>
<feGaussianBlur stdDeviation="2.5"/>
<feComposite in2="hardAlpha" operator="out"/>
<feColorMatrix type="matrix" values="0 0 0 0 0 0 0 0 0 0 0 0 0 0 0 0 0 0 0.15 0"/>
<feBlend mode="normal" in2="BackgroundImageFix" result="effect1_dropShadow"/>
<feBlend mode="normal" in="SourceGraphic" in2="effect1_dropShadow" result="shape"/>
</filter>
<filter id="filter6_d" x="302.347" y="11.7993" width="89.372" height="61.2521" filterUnits="userSpaceOnUse" color-interpolation-filters="sRGB">
<feFlood flood-opacity="0" result="BackgroundImageFix"/>
<feColorMatrix in="SourceAlpha" type="matrix" values="0 0 0 0 0 0 0 0 0 0 0 0 0 0 0 0 0 0 127 0" result="hardAlpha"/>
<feOffset dy="4"/>
<feGaussianBlur stdDeviation="2.5"/>
<feComposite in2="hardAlpha" operator="out"/>
<feColorMatrix type="matrix" values="0 0 0 0 0 0 0 0 0 0 0 0 0 0 0 0 0 0 0.15 0"/>
<feBlend mode="normal" in2="BackgroundImageFix" result="effect1_dropShadow"/>
<feBlend mode="normal" in="SourceGraphic" in2="effect1_dropShadow" result="shape"/>
</filter>
</defs>
</svg>
