<svg width="233" height="234" viewBox="0 0 233 234" fill="none" xmlns="http://www.w3.org/2000/svg">
<path d="M146.231 175.015L149.63 170.561L151.908 158.656L157.076 129.678C157.076 129.678 159.354 118.774 166.383 115.651L167.872 144.608L153.531 180.989L146.231 175.015Z" fill="#E3275A"/>
<path d="M177.053 107.778L172.827 112.783L166.382 115.646C166.382 115.646 152.198 142.752 151.814 143.006C151.43 143.261 149.152 150.988 150.423 157.574C151.695 164.16 152.588 172.775 152.447 178.982C152.306 185.189 144.216 205.579 143.708 210.265C143.199 214.952 141.543 233.064 141.543 233.064L213.234 232.523C212.583 227.97 211.694 223.454 210.572 218.994C210.572 218.994 210.317 201.006 207.66 197.586C207.66 197.586 209.684 192.9 209.435 190.238C209.186 187.575 220.074 173.392 222.228 168.451C224.382 163.51 232.867 152.217 232.991 144.132C233.116 136.047 231.849 129.186 227.796 123.612C223.743 118.038 216.4 114.239 213.358 112.215L207.406 104.639L177.053 107.778Z" fill="#E3275A"/>
<g opacity="0.3">
<path opacity="0.3" d="M175.749 207.717C169.482 206.77 160.775 204.156 153.632 202.662C151.083 202.121 148.875 201.515 146.326 200.979L145.867 202.397C153.111 203.962 160.122 206.461 166.722 209.832C170.689 211.862 174.612 214.232 179.023 214.881C183.952 215.606 188.904 214.086 193.633 212.587C196.339 211.743 199.121 210.817 201.031 208.756C202.378 207.305 203.147 205.417 203.856 203.566C205.728 198.67 207.362 193.692 208.758 188.63C200.241 198.182 188.368 209.632 175.749 207.717Z" fill="black"/>
</g>
<path d="M205.287 146.042L187.283 179.16C187.283 179.16 183.1 180.004 183.1 184.425C183.1 184.425 181.644 183.262 179.534 184.517C178.176 185.324 174.35 186.401 172.234 187.532C171.728 187.802 171.329 188.237 171.103 188.764C170.877 189.291 170.837 189.879 170.989 190.432L176.579 210.741C176.579 210.741 183.371 210.741 183.977 209.058L193.284 206.147C193.284 206.147 199.302 204.556 201.618 200.552C203.934 196.547 217.809 175.881 217.809 175.881" fill="#E3275A"/>
<path d="M217.812 175.881C217.812 175.881 217.774 175.951 217.687 176.087L217.303 176.682L215.793 178.982L210.116 187.581L206.144 193.641C204.716 195.844 203.168 198.203 201.626 200.763C200.778 202.077 199.649 203.186 198.32 204.01C196.946 204.892 195.466 205.596 193.915 206.104L184.039 209.183L184.125 209.102C183.979 209.418 183.729 209.674 183.416 209.827C183.129 209.982 182.826 210.107 182.513 210.2C181.886 210.385 181.245 210.521 180.597 210.606C179.273 210.784 177.939 210.878 176.603 210.888H176.463L176.436 210.785L173.281 199.329L171.592 193.198C171.322 192.18 171.051 191.206 170.781 190.178C170.697 189.642 170.78 189.093 171.017 188.605C171.254 188.116 171.634 187.712 172.106 187.445C173.918 186.595 175.775 185.845 177.669 185.2C178.124 185.026 178.573 184.842 179.006 184.658C179.43 184.419 179.869 184.207 180.321 184.025C180.788 183.85 181.29 183.788 181.785 183.843C182.281 183.899 182.756 184.07 183.173 184.345L182.956 184.447C182.933 183.17 183.363 181.926 184.169 180.935C184.974 180.005 186.051 179.35 187.248 179.063L187.161 179.128L200.23 155.193L203.937 148.45L204.927 146.675L205.187 146.221C205.246 146.118 205.279 146.069 205.279 146.069C205.279 146.069 205.279 146.123 205.203 146.232L204.965 146.697L204.012 148.494L200.365 155.269L187.378 179.252V179.301H187.318C186.178 179.579 185.153 180.205 184.385 181.092C183.619 182.038 183.214 183.225 183.243 184.442V184.691L183.032 184.545C182.651 184.3 182.217 184.147 181.766 184.099C181.315 184.051 180.859 184.109 180.435 184.269C179.994 184.448 179.566 184.656 179.152 184.891C178.708 185.102 178.254 185.286 177.794 185.459C175.913 186.101 174.069 186.846 172.269 187.689C171.845 187.928 171.505 188.291 171.293 188.729C171.082 189.167 171.008 189.66 171.084 190.14C171.316 191.109 171.625 192.126 171.89 193.133L173.573 199.253L176.722 210.715L176.587 210.612C177.91 210.603 179.231 210.511 180.543 210.336C181.176 210.253 181.802 210.121 182.415 209.941C182.711 209.855 182.998 209.739 183.27 209.594C183.526 209.472 183.733 209.269 183.86 209.015V208.95H183.92L193.817 205.866C195.342 205.364 196.796 204.672 198.146 203.804C199.45 203.004 200.559 201.925 201.393 200.644C202.952 198.084 204.505 195.725 205.944 193.533L209.943 187.489L215.685 178.933L217.233 176.66L217.638 176.076C217.763 175.919 217.812 175.881 217.812 175.881Z" fill="#263238"/>
<path d="M197.368 181.411C196.869 181.569 196.353 181.663 195.831 181.692C193.313 181.948 190.77 181.677 188.363 180.897C187.858 180.76 187.373 180.56 186.918 180.302C187.425 180.408 187.926 180.544 188.417 180.708C190.82 181.37 193.315 181.636 195.804 181.492C196.323 181.435 196.845 181.408 197.368 181.411Z" fill="#263238"/>
<path d="M158.674 129.965C158.668 130.01 158.655 130.053 158.636 130.095L158.496 130.463C158.377 130.787 158.166 131.253 157.895 131.853C157.354 133.049 156.418 134.716 155.216 136.724C153.752 139.046 152.506 141.499 151.493 144.051L151.298 144.592L151.141 145.133L150.822 146.291C150.709 146.683 150.626 147.083 150.573 147.487L150.368 148.721C150.27 149.554 150.216 150.409 150.167 151.275C150.167 151.708 150.167 152.146 150.167 152.59C150.159 153.034 150.174 153.479 150.211 153.921C150.461 157.297 150.915 160.655 151.569 163.976C152.098 166.681 152.47 169.415 152.684 172.163C152.792 173.338 152.738 174.409 152.754 175.34C152.684 176.276 152.635 177.077 152.554 177.732L152.289 179.225L152.213 179.61C152.207 179.654 152.194 179.698 152.175 179.739C152.169 179.695 152.169 179.649 152.175 179.604L152.224 179.214L152.435 177.721C152.5 177.072 152.527 176.265 152.586 175.34C152.554 174.409 152.586 173.348 152.473 172.18C152.232 169.442 151.842 166.72 151.304 164.025C150.643 160.71 150.189 157.357 149.946 153.986C149.908 153.54 149.894 153.092 149.902 152.644C149.902 152.201 149.902 151.759 149.902 151.318C149.956 150.442 150.01 149.576 150.108 148.737L150.319 147.493C150.375 147.083 150.462 146.677 150.579 146.28L150.903 145.112L151.066 144.538L151.266 143.997C152.292 141.434 153.56 138.975 155.054 136.653C156.277 134.646 157.219 133.001 157.803 131.821C158.09 131.231 158.312 130.771 158.452 130.457L158.62 130.1C158.631 130.053 158.65 130.007 158.674 129.965Z" fill="#263238"/>
<g opacity="0.3">
<path opacity="0.3" d="M181.748 174.934C180.998 175.384 180.11 175.544 179.25 175.383C178.391 175.223 177.62 174.753 177.083 174.063L170.616 168.164C172.467 170.87 173.95 173.646 175.801 176.368C176.298 177.098 176.85 177.878 177.678 178.181C178.506 178.484 179.518 178.219 180.384 177.888C183.493 176.692 186.305 174.835 188.626 172.445L181.748 174.934Z" fill="black"/>
</g>
<path d="M211.446 47.0843C211.523 44.4914 209.088 42.4803 206.639 41.5316C204.191 40.583 201.46 40.2162 199.281 38.7679C197.358 37.5031 196.076 35.4793 194.41 33.8476C192.391 31.8269 189.864 30.3729 187.087 29.635C184.31 28.897 181.384 28.9017 178.61 29.6487C175.836 30.3956 173.313 31.8578 171.302 33.885C169.29 35.9123 167.861 38.4315 167.162 41.1838C166.207 44.8708 166.848 49.2409 169.822 51.701C173.251 54.5533 178.334 53.9208 182.725 53.0291C187.115 52.1374 192.089 51.2646 195.756 53.8133C197.967 55.3501 199.236 57.8419 200.589 60.1376C201.941 62.4333 203.64 64.8049 206.191 65.6776C208.742 66.5504 212.216 65.0452 212.318 62.3827" fill="#5B5863"/>
<path d="M210.181 43.6274C210.384 48.9908 217.723 52.2419 217.631 57.6244C217.592 59.9275 216.122 61.9952 215.834 64.2793C215.449 67.3522 217.213 70.2534 217.86 73.2818C219.2 79.5232 215.475 86.1145 209.94 89.531C204.404 92.9475 197.464 93.6028 190.988 92.7121" fill="#5B5863"/>
<path d="M177.96 40.6322C177.13 43.0327 174.707 44.4509 172.399 45.5469C170.09 46.6429 167.601 47.7043 166.282 49.8702C163.925 53.727 166.306 59.2228 163.724 62.9099C162.351 64.8885 159.823 65.8719 158.565 67.9241C157.306 69.9762 157.596 72.4744 158.309 74.6976C159.022 76.9209 160.759 77.3811 161.255 79.657C161.861 82.2389 163 84.6659 164.597 86.7829C168.028 91.1655 174.94 89.9225 177.382 90.2166" fill="#5B5863"/>
<path d="M203.997 107.286C203.997 107.286 188.083 115.855 176.858 110.354L176.745 101.777C176.745 101.777 168.254 101.333 166.279 88.6919C165.294 82.4038 164.439 72.2411 164.986 63.7992C165.478 56.2232 173.357 42.8461 180.911 43.6632L201.654 53.7556C202.76 53.8758 203.781 54.4066 204.516 55.2432C205.25 56.0798 205.644 57.1612 205.62 58.2741C205.62 58.2741 204.631 88.1455 203.997 107.286Z" fill="#FFBE9D"/>
<path d="M205.691 89.0425C202.39 89.7305 202.095 87.9914 199.631 85.6152C198.403 84.4127 197.463 82.9293 196.887 81.2835C196.31 79.6376 196.113 77.8749 196.311 76.1361C196.686 73.0783 198.272 69.9696 197.252 67.0838C195.899 63.2616 190.73 62.0831 189.359 58.2672C188.56 56.0503 189.279 53.4576 188.376 51.2598C187.528 49.2149 185.45 48.0428 183.459 47.2847C181.467 46.5266 179.273 46.0106 177.582 44.641C175.892 43.2714 174.829 40.6978 175.923 38.7803C184.887 39.8953 193.692 42.113 202.151 45.3863C204.111 46.1444 206.164 47.0554 207.326 48.8582C208.556 50.7693 208.494 53.2346 208.39 55.528L206.884 89.0361" fill="#5B5863"/>
<path d="M214.28 59.7191C214.46 57.9078 215.224 56.2041 216.458 54.8654C217.691 53.5266 219.327 52.6254 221.117 52.2977C222.908 51.97 224.756 52.2337 226.384 53.0489C228.011 53.8641 229.329 55.1866 230.139 56.8168C231.655 59.9037 231.135 63.656 229.714 66.7876C228.037 70.5064 224.581 73.9064 220.504 73.7219C216.662 73.5485 213.575 70.1764 212.468 66.4968C211.361 62.8172 211.808 58.8691 212.267 55.0553" fill="#5B5863"/>
<path d="M177.051 102.323C183.002 102.428 188.866 100.879 193.989 97.8477C193.989 97.8477 189.698 106.76 177.051 105.548V102.323Z" fill="#D1967C"/>
<path d="M110.804 183.23C110.804 183.23 119.408 194.264 122.493 195.135C125.577 196.006 137.261 198.896 137.261 198.896L175.601 207.76L171.082 191.326L134.793 190.844L110.804 183.23Z" fill="#FFBE9D"/>
<path d="M61.5051 127.016C64.3786 134.142 78.8597 166.746 82.2202 174.295C82.4376 174.788 82.7576 175.229 83.1589 175.588C83.5602 175.947 84.0334 176.217 84.5471 176.379L130.122 190.849L175.34 194.231V192.743L138.786 181.666L127.216 180.302L109.976 137.552C109.587 136.587 108.962 135.737 108.156 135.079C107.351 134.422 106.393 133.978 105.37 133.791L62.398 125.912C62.2557 125.888 62.1098 125.903 61.975 125.955C61.8403 126.006 61.7215 126.092 61.6308 126.204C61.5401 126.316 61.4808 126.45 61.4587 126.593C61.4366 126.735 61.4526 126.881 61.5051 127.016Z" fill="#E0E0E0"/>
<path d="M175.333 192.732H175.187L174.765 192.7L173.142 192.554L167.189 191.958L158.444 191.033L147.681 189.951C143.86 189.572 140.218 189.285 136.901 189.096L132.188 188.798C131.824 188.777 131.463 188.732 131.106 188.663C130.919 188.627 130.737 188.569 130.564 188.49C130.389 188.402 130.245 188.262 130.153 188.089C129.869 187.489 129.62 186.873 129.406 186.244L127.301 180.676L126.76 179.155L126.619 178.754C126.601 178.709 126.588 178.662 126.582 178.614C126.601 178.659 126.613 178.706 126.619 178.754L126.782 179.144L127.393 180.643L129.558 186.184C129.772 186.798 130.02 187.4 130.299 187.986C130.371 188.123 130.485 188.234 130.624 188.3C130.776 188.369 130.936 188.42 131.1 188.452C131.458 188.518 131.819 188.56 132.182 188.576C133.654 188.647 135.235 188.749 136.896 188.847C140.218 189.02 143.871 189.301 147.692 189.68L158.455 190.762L167.238 191.737L173.158 192.418L174.781 192.619L175.198 192.678L175.333 192.732Z" fill="#263238"/>
<path d="M151.973 183.998C151.973 183.998 152.627 179.702 151.973 178.852C151.318 178.002 146.713 173.863 146.713 173.863L144.104 171.406L138.341 170.524C138.001 170.472 137.654 170.52 137.341 170.663C137.028 170.807 136.765 171.038 136.582 171.33L135.993 172.277L134.434 172.017L133.054 170.021H129.217L126.376 173.094V177.239C126.41 177.383 126.483 177.515 126.588 177.619C126.693 177.723 126.825 177.795 126.969 177.827C127.114 177.859 127.264 177.85 127.403 177.801C127.542 177.751 127.665 177.664 127.756 177.548C128.752 176.704 128.839 174.366 128.839 174.366L130.543 175.935L128.73 181.466C128.73 181.466 130.002 182.618 130.927 181.466C131.853 180.313 133.152 178.625 133.152 178.625C133.152 178.625 134.688 182.77 137.297 183.998C139.905 185.227 146.204 186.347 147.508 186.055C148.812 185.762 151.724 186.298 151.973 183.998Z" fill="#FFBE9D"/>
<path d="M142.857 174.571C142.857 174.571 142.857 174.636 142.754 174.728C142.628 174.857 142.475 174.955 142.305 175.015C142.035 175.107 141.751 175.147 141.466 175.134C141.136 175.134 140.768 175.053 140.384 175.015C139.968 174.942 139.54 175.009 139.166 175.204C138.785 175.519 138.446 175.883 138.16 176.287C137.782 176.754 137.315 177.143 136.787 177.43C136.258 177.717 135.679 177.896 135.081 177.959C134.586 177.996 134.089 177.906 133.639 177.696C133.189 177.487 132.8 177.166 132.51 176.763L132.451 176.671L132.521 176.595C133.533 175.533 134.465 174.397 135.308 173.197C135.93 172.309 136.266 171.757 136.298 171.779C136.252 171.926 136.186 172.066 136.103 172.196C135.963 172.455 135.741 172.834 135.448 173.278C134.653 174.52 133.747 175.688 132.743 176.768V176.601C133.008 176.964 133.361 177.253 133.769 177.443C134.177 177.632 134.627 177.715 135.075 177.683C136.21 177.558 137.251 176.995 137.976 176.113C138.282 175.695 138.647 175.321 139.058 175.004C139.477 174.79 139.955 174.724 140.416 174.815C140.827 174.869 141.179 174.955 141.499 174.977C141.765 175.001 142.035 174.979 142.294 174.912C142.502 174.836 142.693 174.721 142.857 174.571Z" fill="#D1967C"/>
<path d="M147.374 183.77C147.342 183.77 147.309 183.527 147.136 183.121C146.885 182.549 146.549 182.019 146.141 181.546C145.643 180.929 144.956 180.258 144.333 179.382C144.001 178.916 143.757 178.393 143.613 177.84C143.469 177.237 143.481 176.608 143.646 176.01C143.807 175.418 144.089 174.865 144.474 174.387C144.656 174.142 144.893 173.943 145.167 173.808C145.306 173.74 145.46 173.704 145.616 173.704C145.771 173.704 145.925 173.74 146.065 173.808C146.523 174.091 146.853 174.541 146.985 175.063C147.112 175.475 147.284 175.87 147.499 176.243C147.817 176.78 148.231 177.254 148.722 177.639C149.068 177.915 149.263 178.029 149.263 178.051C149.038 177.98 148.827 177.871 148.641 177.726C148.109 177.362 147.657 176.892 147.315 176.346C147.089 175.968 146.908 175.565 146.774 175.145C146.649 174.695 146.359 174.308 145.962 174.062C145.858 174.011 145.743 173.984 145.627 173.984C145.51 173.984 145.395 174.011 145.291 174.062C145.059 174.184 144.859 174.358 144.707 174.571C144.349 175.024 144.087 175.545 143.938 176.102C143.786 176.655 143.775 177.238 143.906 177.796C144.038 178.319 144.264 178.814 144.571 179.257C145.161 180.118 145.832 180.805 146.319 181.422C146.727 181.918 147.047 182.48 147.266 183.083C147.325 183.248 147.365 183.418 147.385 183.592C147.38 183.711 147.385 183.77 147.374 183.77Z" fill="#D1967C"/>
<path d="M132.73 173.148C132.419 173.151 132.121 173.273 131.897 173.489C131.417 174.091 131.065 174.786 130.863 175.529C130.555 176.395 130.284 177.185 130.057 177.748C129.964 178.065 129.816 178.364 129.619 178.63C129.667 178.306 129.75 177.988 129.868 177.683C130.041 177.104 130.284 176.308 130.598 175.437C130.808 174.656 131.208 173.938 131.762 173.348C131.955 173.175 132.205 173.077 132.465 173.072C132.627 173.072 132.736 173.132 132.73 173.148Z" fill="#D1967C"/>
<path d="M133.169 173.078C133.169 173.11 132.931 173.159 132.536 173.11C132.004 173.034 131.504 172.811 131.091 172.466H131.27L130.918 172.77C130.281 173.375 129.58 173.91 128.829 174.366C129.398 173.697 130.037 173.092 130.734 172.558L131.091 172.255L131.183 172.18L131.27 172.255C131.646 172.577 132.09 172.808 132.569 172.932C132.91 173.029 133.169 173.04 133.169 173.078Z" fill="#D1967C"/>
<path d="M139.246 182.975C139.326 182.628 139.465 182.297 139.657 181.996C140.475 180.485 141.624 179.179 143.017 178.175C143.291 177.944 143.602 177.761 143.937 177.634C142.045 179.091 140.453 180.901 139.251 182.965L139.246 182.975Z" fill="#D1967C"/>
<path d="M106.756 134.478C106.785 134.522 106.809 134.569 106.826 134.619L107.005 135.041L107.676 136.664L110.089 142.671L117.963 162.526L125.761 182.413L128.093 188.452L128.716 190.075L128.873 190.508C128.893 190.557 128.908 190.608 128.916 190.66C128.887 190.616 128.863 190.569 128.845 190.519L128.667 190.097L127.996 188.474L125.593 182.488L117.72 162.628L109.9 142.747L107.568 136.708L106.945 135.084L106.788 134.651C106.77 134.595 106.759 134.537 106.756 134.478Z" fill="#263238"/>
<path d="M96.9888 159.06C98.1537 158.218 98.1667 156.247 97.0179 154.658C95.8692 153.07 93.9935 152.465 92.8286 153.307C91.6637 154.149 91.6506 156.12 92.7994 157.709C93.9482 159.297 95.8238 159.903 96.9888 159.06Z" fill="white"/>
<path d="M110.68 44.4316H4.25882C1.90674 44.4316 0 46.3384 0 48.6905V111.409C0 113.761 1.90674 115.668 4.25882 115.668H110.68C113.033 115.668 114.939 113.761 114.939 111.409V48.6905C114.939 46.3384 113.033 44.4316 110.68 44.4316Z" fill="#FD3E72"/>
<path d="M136.001 15.4167C137.289 15.4167 138.334 14.372 138.334 13.0833C138.334 11.7947 137.289 10.75 136.001 10.75C134.712 10.75 133.667 11.7947 133.667 13.0833C133.667 14.372 134.712 15.4167 136.001 15.4167Z" fill="#FD3E72" stroke="#FD3E72" stroke-width="2" stroke-linecap="round" stroke-linejoin="round"/>
<path d="M131.154 21.9233V20.3079C131.154 19.4511 131.494 18.6293 132.1 18.0234C132.706 17.4175 133.528 17.0771 134.385 17.0771H137.615C138.472 17.0771 139.294 17.4175 139.9 18.0234C140.506 18.6293 140.846 19.4511 140.846 20.3079V21.9233" fill="#FD3E72"/>
<rect x="50" y="64" width="57" height="6" fill="#FF5F8A"/>
<rect x="50" y="73" width="57" height="7" fill="#FF5F8A"/>
<rect x="50" y="83" width="57" height="6" fill="#FF5F8A"/>
<rect x="63" y="99" width="31" height="9" rx="4.5" fill="#CE1548"/>
<rect x="9" y="55" width="35" height="40" fill="#FF5F8A"/>
<path d="M23.6251 74.5417C25.7422 74.5417 27.4584 72.8254 27.4584 70.7083C27.4584 68.5912 25.7422 66.875 23.6251 66.875C21.508 66.875 19.7917 68.5912 19.7917 70.7083C19.7917 72.8254 21.508 74.5417 23.6251 74.5417Z" fill="#FD3E72" stroke="#FD3E72" stroke-width="2" stroke-linecap="round" stroke-linejoin="round"/>
<path d="M16 85V82.6667C16 81.429 16.5268 80.242 17.4645 79.3668C18.4021 78.4917 19.6739 78 21 78H26C27.3261 78 28.5979 78.4917 29.5355 79.3668C30.4732 80.242 31 81.429 31 82.6667V85" fill="#FD3E72"/>
<path d="M33.208 71.6665V77.4165M30.333 74.5415H36.083H30.333Z" stroke="#FD3E72" stroke-width="2" stroke-linecap="round" stroke-linejoin="round"/>
<path d="M155.899 31.8608C156.394 31.8199 156.87 31.6501 157.279 31.3684C157.759 31.0127 158.103 30.5026 158.253 29.9235C158.332 29.5522 158.361 29.1717 158.339 28.7926C158.339 28.3777 158.339 27.9375 158.339 27.4722C158.339 23.6841 158.383 18.316 158.41 11.6545C158.41 9.98414 158.42 8.23805 158.442 6.41619C158.442 5.50346 158.442 4.57449 158.442 3.62929C158.466 3.16698 158.45 2.70343 158.393 2.24396C158.301 1.80312 158.085 1.39767 157.771 1.07509C157.451 0.750429 157.039 0.531392 156.591 0.447358C156.104 0.405771 155.614 0.394926 155.125 0.414889H152.035L145.584 0.458181L116.86 0.615112C116.282 0.632162 115.73 0.86274 115.312 1.26241C114.893 1.66208 114.637 2.20256 114.593 2.77969L114.571 6.50277L114.496 13.8299L114.35 27.6832C114.35 28.2352 114.35 28.7763 114.35 29.3066C114.32 29.8082 114.444 30.3068 114.707 30.7353C114.959 31.1492 115.339 31.4701 115.789 31.6498C116.27 31.7919 116.773 31.8397 117.272 31.7905H123.36H134.28H150.103H154.405H155.525C155.651 31.7797 155.778 31.7797 155.904 31.7905C155.778 31.8016 155.651 31.8016 155.525 31.7905L154.405 31.8176L150.103 31.8825L134.285 32.034L123.365 32.1152L117.283 32.1585C116.736 32.2075 116.184 32.1505 115.659 31.9907C115.112 31.7829 114.647 31.4031 114.333 30.9084C114.026 30.4086 113.877 29.8277 113.906 29.2417C113.906 28.6969 113.906 28.1558 113.906 27.6183C113.944 23.2025 113.982 18.5703 114.025 13.7649C114.047 11.3623 114.068 8.91989 114.09 6.43784L114.133 2.64982C114.188 1.9521 114.499 1.29937 115.007 0.817662C115.514 0.335953 116.183 0.0594356 116.882 0.0414991L145.606 0.00902963H152.057H155.147C155.663 -0.0114906 156.18 0.00297397 156.694 0.0523223C157.226 0.154091 157.713 0.416664 158.09 0.804514C158.455 1.1833 158.705 1.65818 158.81 2.17361C158.871 2.66174 158.887 3.15443 158.859 3.64553C158.859 4.59073 158.848 5.51969 158.826 6.43243L158.761 11.6707L158.534 27.4884V28.8088C158.549 29.2018 158.511 29.595 158.42 29.9777C158.243 30.5829 157.861 31.1074 157.338 31.4604C157.024 31.6734 156.665 31.8104 156.288 31.8608C156.159 31.8787 156.028 31.8787 155.899 31.8608Z" fill="#FD3E72"/>
</svg>
