<svg width="169" height="225" viewBox="0 0 169 225" fill="none" xmlns="http://www.w3.org/2000/svg">
<path d="M94.4028 65.2178L98.1406 86.8757L117.959 90.922L94.5775 111.8L59.6047 92.6918L75.1553 88.8319L73.1176 59.4424L94.4028 65.2178Z" fill="#FFBE9D"/>
<path opacity="0.3" d="M74.6279 81.1585L73.1025 59.4424L94.3878 65.2178L97.6656 84.2208L74.6279 81.1585Z" fill="#A98986"/>
<path d="M69.5079 89.519C69.5079 89.519 52.2457 91.0327 43.1575 98.3044C34.0694 105.576 28.9227 123.444 28.9227 123.444L150.684 120.114C150.684 120.114 146.748 97.6989 128.875 92.2495C113.697 87.5919 107.974 88.3139 107.974 88.3139C107.974 88.3139 101.308 100.732 90.1004 101.338C78.893 101.943 69.5079 89.519 69.5079 89.519Z" fill="#FD3E72"/>
<path opacity="0.2" d="M74.6558 153.695L78.4983 147L129.79 135.938L128.119 157.637C113.273 158.801 92.116 159.098 74.6558 153.695Z" fill="#272330"/>
<path d="M83.4244 18.3394C69.4516 22.3275 70.3598 32.0211 70.3598 32.0211C70.0119 36.8985 70.0742 41.7965 70.5461 46.6635C69.8742 45.7909 68.9149 45.1846 67.8384 44.9522C66.7619 44.7199 65.6379 44.8765 64.6659 45.3943C59.9617 47.7231 64.3398 62.6856 71.5824 60.9798C72.1493 64.5606 73.2134 68.0447 74.7438 71.3313C77.0318 75.5348 86.4227 81.6188 94.4862 82.2126C102.55 82.8065 112.651 76.6526 112.895 67.1918C113.233 54.0923 107.999 18.3161 107.999 18.3161C107.999 18.3161 106.549 11.7314 83.4244 18.3394Z" fill="#FFBE9D"/>
<path opacity="0.3" d="M99.1496 80.1457C72.5372 75.8665 75.7801 30.0764 75.7801 30.0764C75.7801 30.0764 75.1513 22.8164 83.8261 18.252L83.4244 18.3626C69.4516 22.3506 70.3598 32.0443 70.3598 32.0443C70.0119 36.9217 70.0742 41.8197 70.5461 46.6866C69.8742 45.814 68.9149 45.2077 67.8384 44.9754C66.7619 44.743 65.6379 44.8996 64.6659 45.4174C59.9617 47.7462 64.3398 62.7088 71.5824 61.0029C72.1493 64.5838 73.2134 68.0679 74.7438 71.3545C77.0318 75.5579 86.4227 81.6419 94.4862 82.2358C97.9816 82.411 101.454 81.5828 104.494 79.8488C102.751 80.309 100.933 80.41 99.1496 80.1457Z" fill="#C3A19B"/>
<path d="M77.5249 22.9443C73.7115 23.1365 68.7162 26.9091 64.897 27.0197C64.897 27.0197 64.9319 27.0721 64.9435 27.0954C65.6655 28.7139 65.7761 45.1029 65.7761 45.1029C69.6244 45.1029 70.4337 48.2642 70.4337 48.2642L71.3128 55.1051L75.1029 54.5229L74.5207 39.9679C76.0108 39.0817 77.1514 37.7109 77.752 36.0846C77.752 36.0846 77.0766 25.5642 77.5249 22.9443Z" fill="#5B5863"/>
<path d="M74.9583 24.6562C74.9583 24.6562 91.5684 29.2789 104.755 23.288L94.9918 21.064C94.9918 21.064 107.218 20.8078 111.602 16.4413C117.424 10.6193 114.169 0 114.169 0C114.169 0 107.492 7.36483 101.838 8.22067C101.838 8.22067 107.492 6.07235 109.029 0.855833C109.029 0.855833 81.9738 -3.598 77.6888 8.90184C77.6888 8.90184 80.7686 2.39284 81.968 1.88051C83.1673 1.36817 68.2688 4.79151 64.8454 11.644C61.4221 18.4965 65.7711 45.1147 65.7711 45.1147L74.9583 24.6562Z" fill="#5B5863"/>
<path opacity="0.8" d="M143.389 103.108L38.8201 102.834C32.4509 111.177 28.9227 123.415 28.9227 123.415L150.684 120.085C149.408 113.996 146.927 108.224 143.389 103.108Z" fill="#D92455"/>
<path d="M12.6173 104.967L9.99207 212.386L165.603 216.189L168.228 108.77L12.6173 104.967Z" fill="#F4F4F4"/>
<path d="M55.8689 152.321L58.6026 152.384L58.9205 138.657L56.7336 138.607L52.5058 141.478L53.7672 143.53L56.1113 141.855L55.8689 152.321ZM78.915 142.92C78.2121 142.904 77.5646 143.026 76.9725 143.286C76.3804 143.545 75.8834 143.915 75.4811 144.413L75.4518 144.413C74.9 143.355 73.9457 142.805 72.5886 142.774C72.0419 142.761 71.5117 142.876 70.9982 143.118C70.4846 143.36 70.0274 143.701 69.6358 144.161L69.6065 144.16L69.6363 142.871L67.0199 142.811L66.7937 152.574L69.4102 152.634L69.5233 147.753C69.5364 147.187 69.6356 146.701 69.8306 146.295C70.0158 145.889 70.2671 145.582 70.5843 145.384C70.8914 145.196 71.2454 145.097 71.6457 145.106C72.7977 145.133 73.3541 145.995 73.3149 147.684L73.198 152.732L75.8145 152.793L75.9278 147.901C75.9409 147.335 76.0401 146.849 76.2253 146.443C76.4106 146.037 76.6619 145.73 76.9693 145.532C77.2667 145.344 77.6109 145.244 77.9819 145.253C79.1144 145.279 79.6707 146.142 79.6316 147.831L79.5147 152.878L82.1312 152.939L82.2628 147.257C82.2963 145.812 82.0183 144.741 81.4292 144.024C80.84 143.317 80.0085 142.946 78.915 142.92ZM89.3034 153.261C90.2992 153.284 91.2022 153.1 92.0027 152.699C92.7934 152.297 93.4223 151.716 93.8893 150.955C94.3462 150.203 94.5911 149.33 94.614 148.344C94.6312 147.602 94.5103 146.915 94.2709 146.285C94.0316 145.654 93.6828 145.109 93.2439 144.659C92.7952 144.209 92.2564 143.854 91.6179 143.586C90.9792 143.327 90.2792 143.184 89.5372 143.166C88.7757 143.149 88.06 143.259 87.4098 143.498C86.7498 143.737 86.1949 144.076 85.7354 144.514C85.2759 144.953 84.9123 145.472 84.6439 146.091C84.3756 146.71 84.2429 147.381 84.2261 148.103C84.2126 148.689 84.278 149.238 84.4225 149.749C84.5667 150.27 84.7901 150.744 85.0931 151.161C85.3862 151.578 85.7391 151.948 86.1521 152.251C86.5649 152.563 87.0379 152.808 87.581 152.977C88.1141 153.156 88.6883 153.247 89.3034 153.261ZM89.3577 150.918C88.6157 150.901 88.0065 150.633 87.5401 150.104C87.0737 149.576 86.8543 148.926 86.8719 148.165C86.89 147.384 87.1392 146.745 87.6196 146.248C88.1 145.751 88.7212 145.502 89.4827 145.519C90.2052 145.536 90.8046 145.804 91.281 146.323C91.7476 146.842 91.9768 147.492 91.9584 148.282C91.9404 149.063 91.6814 149.702 91.1814 150.198C90.6815 150.695 90.0704 150.935 89.3577 150.918ZM102.629 143.47C102.024 143.456 101.445 143.569 100.893 143.801C100.34 144.032 99.8636 144.373 99.4624 144.822L99.4332 144.822L99.4623 143.562L96.8458 143.502L96.6197 153.265L99.2362 153.325L99.3499 148.414C99.3696 147.565 99.58 146.916 99.9912 146.456C100.402 146.007 100.944 145.785 101.628 145.801C102.262 145.815 102.727 146.012 103.031 146.38C103.325 146.758 103.467 147.386 103.446 148.285L103.327 153.43L105.943 153.49L106.077 147.691C106.094 146.959 106.021 146.322 105.868 145.772C105.705 145.231 105.471 144.795 105.156 144.466C104.841 144.146 104.475 143.903 104.059 143.737C103.643 143.571 103.166 143.482 102.629 143.47ZM111.485 153.775C112.08 153.789 112.57 153.751 112.953 153.653C113.326 153.564 113.711 153.416 114.086 153.22L113.461 151.115C113.007 151.339 112.594 151.437 112.223 151.428C111.911 151.421 111.698 151.318 111.566 151.11C111.434 150.912 111.383 150.588 111.393 150.159L111.489 146.009L114.145 146.071L114.195 143.904L111.539 143.842L111.62 140.366L108.997 140.589L108.923 143.781L107.771 143.755L107.72 145.922L108.872 145.949L108.768 150.459C108.743 151.533 108.968 152.349 109.454 152.907C109.939 153.466 110.616 153.755 111.485 153.775ZM121.97 143.918C121.335 143.903 120.747 144.006 120.195 144.218C119.643 144.44 119.166 144.761 118.766 145.191L118.727 145.19L118.869 139.05L116.252 138.989L115.911 153.712L118.528 153.772L118.643 148.822C118.662 147.963 118.873 147.323 119.293 146.884C119.704 146.444 120.265 146.232 120.988 146.249C121.632 146.264 122.106 146.46 122.411 146.819C122.715 147.188 122.857 147.806 122.837 148.665L122.716 153.879L125.342 153.94L125.478 148.062C125.495 147.34 125.422 146.703 125.258 146.172C125.095 145.641 124.851 145.205 124.536 144.885C124.211 144.565 123.846 144.332 123.419 144.176C122.993 144.019 122.517 143.93 121.97 143.918ZM65.8341 177.558L68.6068 177.623L68.7314 172.243L74.2768 172.372L74.3349 169.862L68.7895 169.734L68.8775 165.936L75.5261 166.09L75.5844 163.571L66.1631 163.353L65.8341 177.558ZM88.5038 178.083L85.1183 172.847L85.1192 172.808C85.729 172.627 86.2532 172.346 86.6916 171.975C87.1298 171.614 87.4728 171.144 87.7205 170.573C87.9681 170.002 88.1104 169.341 88.1276 168.6C88.1437 167.906 88.051 167.269 87.8688 166.698C87.6867 166.128 87.3955 165.623 87.015 165.184C86.6344 164.746 86.1247 164.402 85.4857 164.152C84.8468 163.903 84.1173 163.769 83.2874 163.75L77.9178 163.625L77.5888 177.831L80.3615 177.895L80.4741 173.033L82.1045 173.071L85.1746 178.006L88.5038 178.083ZM80.6326 166.189L82.7219 166.237C83.5224 166.256 84.1427 166.466 84.5828 166.867C85.0228 167.267 85.235 167.81 85.2196 168.474C85.204 169.147 84.9572 169.679 84.4893 170.059C84.0117 170.438 83.353 170.618 82.5036 170.599L80.5315 170.553L80.6326 166.189ZM90.6419 178.133L100.141 178.353L100.199 175.844L93.4727 175.688L93.5489 172.398L98.6061 172.515L98.6636 170.035L93.6063 169.918L93.6853 166.511L99.9922 166.657L100.051 164.138L90.9709 163.928L90.6419 178.133ZM102.631 178.411L112.13 178.631L112.188 176.122L105.462 175.966L105.538 172.676L110.595 172.793L110.653 170.313L105.595 170.196L105.674 166.789L111.981 166.935L112.039 164.416L102.96 164.205L102.631 178.411Z" fill="#FD3E72"/>
<path d="M7.55682 190.322C7.55682 190.322 29.9075 176.075 4.1917 186.147C4.1917 186.147 -3.07998 190.03 1.53104 193.285C1.53104 193.285 -0.751184 197.36 3.52217 198.152C3.52217 198.152 2.31701 202.856 7.2075 202.571C7.2075 202.571 4.2965 208.154 12.5812 205.686C20.8659 203.217 32.3411 194.17 13.047 199.782C13.047 199.782 38.5241 187.836 10.7473 194.898C10.7473 194.898 16.3073 192.057 20.0159 190.141C23.9283 188.121 23.8934 184.61 18.7642 186.304C16.1093 187.189 11.51 188.691 7.55682 190.322Z" fill="#FFBE9D"/>
<path d="M138.523 216.305C138.523 216.305 129.79 191.27 133.685 218.634C133.685 218.634 135.793 226.604 140.02 222.861C140.02 222.861 143.466 226.022 145.213 222.046C145.213 222.046 149.515 224.304 150.359 219.472C150.359 219.472 155.122 223.548 154.627 214.96C154.132 206.373 147.961 193.081 148.985 213.149C148.985 213.149 143.216 185.606 143.705 214.261C143.705 214.261 142.22 208.195 141.207 204.149C140.142 199.875 136.718 199.101 137.19 204.481C137.44 207.258 137.848 212.084 138.523 216.305Z" fill="#FFBE9D"/>
<path d="M64.3682 49.8595C64.5668 49.4603 64.8217 49.0917 65.125 48.765C65.4173 48.4091 65.8114 48.1511 66.2545 48.0256C66.4931 47.9762 66.7399 47.9842 66.9748 48.049C67.2096 48.1138 67.4257 48.2335 67.6052 48.3982L67.8614 48.6369C67.9429 48.7242 68.0011 48.8174 68.071 48.9047C68.2069 49.0886 68.3277 49.2833 68.4319 49.4869C68.878 50.266 69.1613 51.1276 69.2645 52.0195C69.3785 52.9209 69.2869 53.8365 68.9967 54.6976V54.7325V54.7674C68.7223 55.1019 68.4787 55.4604 68.2689 55.8387C68.0528 56.2075 67.9105 56.6149 67.8497 57.038C67.8201 57.2445 67.8344 57.455 67.8916 57.6556C67.9487 57.8562 68.0476 58.0426 68.1816 58.2024C68.4916 58.5175 68.8731 58.7532 69.2936 58.8894C68.8326 58.8137 68.4015 58.6122 68.0477 58.3072C67.8686 58.1429 67.729 57.9403 67.6393 57.7145C67.5496 57.4886 67.512 57.2455 67.5295 57.0031C67.5597 56.5279 67.6824 56.0632 67.8905 55.6349C68.086 55.2084 68.3302 54.8059 68.6182 54.4356L68.5775 54.5054C68.8067 53.7138 68.8721 52.8838 68.7696 52.066C68.6772 51.2403 68.4324 50.4388 68.0477 49.7023C67.9597 49.5156 67.8565 49.3364 67.7391 49.1667C67.6809 49.0852 67.6343 48.992 67.5703 48.9163L67.3723 48.7009C67.2461 48.5616 67.088 48.455 66.9116 48.3901C66.7352 48.3252 66.5457 48.304 66.3593 48.3283C65.5317 48.5801 64.824 49.1243 64.3682 49.8595Z" fill="#B28079"/>
</svg>
