<svg width="225" height="200" viewBox="0 0 225 200" fill="none" xmlns="http://www.w3.org/2000/svg">
<g filter="url(#filter0_d)">
<path d="M78.4412 118.382L117.559 96.0293L157.794 69.2058L196.912 40.147" stroke="#FD3E72" stroke-width="3"/>
<rect x="63.3529" y="135.706" width="30.1765" height="29.0588" fill="#FD3E72"/>
<circle cx="78.4412" cy="118.382" r="6.14706" fill="white" stroke="#E23262" stroke-width="3"/>
<circle cx="117.559" cy="96.0294" r="6.14706" fill="white" stroke="#E23262" stroke-width="3"/>
<circle cx="157.794" cy="69.2059" r="6.14706" fill="white" stroke="#E23262" stroke-width="3"/>
<circle cx="196.912" cy="40.1471" r="6.14706" fill="white" stroke="#E23262" stroke-width="3"/>
<rect x="103.588" y="113.353" width="30.1765" height="51.4118" fill="#5B5863"/>
<rect x="142.706" y="86.5293" width="30.1765" height="78.2353" fill="#5B5863"/>
<rect x="182.941" y="57.4707" width="30.1765" height="107.294" fill="#5B5863"/>
<rect x="60" y="160.294" width="156.471" height="6.70588" fill="#E23262"/>
</g>
<g filter="url(#filter1_d)">
<mask id="mask0" mask-type="alpha" maskUnits="userSpaceOnUse" x="8" y="0" width="184" height="187">
<rect x="8.92188" width="182.079" height="187" fill="#C4C4C4"/>
</mask>
<g mask="url(#mask0)">
<path d="M36.2433 214.329L36.4762 179.52L41.3799 166.824L41.3863 163.398L96.7499 162.474V166.462L103.103 182.241L103.446 214.329H71.4617L68.7964 199.837L68.1753 214.329H36.2433Z" fill="#E23262"/>
<path d="M145.714 110.056L148.605 108.291C148.605 108.291 152.39 104.923 153.425 104.193C154.46 103.462 158.432 101.665 158.989 101.71C159.545 101.756 165.018 101.413 166.312 100.812C167.606 100.211 169.016 99.4092 169.016 99.4092C169.284 99.7355 169.442 100.138 169.467 100.559C169.493 100.981 169.385 101.399 169.158 101.756C168.375 103.1 164.384 105.634 164.384 105.634L165.878 115.395C165.878 115.395 162.158 118.33 159.842 118.524C157.526 118.718 155.314 118.259 154.667 118.465C154.02 118.672 152.383 119.241 152.383 119.241L145.714 110.056Z" fill="#FFA68A"/>
<path d="M156.059 110.701L181.438 93.8816L182.881 95.9954L157.735 112.744L156.059 110.701Z" fill="#263238"/>
<path d="M170.405 105.699C170.405 105.699 172.34 106.531 171.315 108.427C170.289 110.324 168.974 109.71 168.974 109.71C168.974 109.71 169.444 111.757 167.258 112.814C167.313 113.406 167.224 114.003 166.998 114.548C166.772 115.093 166.417 115.567 165.968 115.925L164.742 116.607L163.956 114.97C163.956 114.97 159.325 114.526 158.628 112.575L158.596 111.559C158.349 111.429 158.144 111.224 158.01 110.969C157.875 110.715 157.816 110.423 157.841 110.133C157.989 109.178 157.931 109.157 159.673 108.53C161.414 107.902 165.11 108.318 165.11 108.318C165.11 108.318 163.13 107.52 163.175 106.435C163.22 105.351 164.001 104.662 166.129 104.819C167.579 104.955 169.013 105.25 170.405 105.699Z" fill="#FFA68A"/>
<path d="M170.349 105.731C170.349 105.731 170.078 105.673 169.579 105.556C169.081 105.44 168.35 105.278 167.406 105.143C166.88 105.065 166.351 105.016 165.821 104.994C165.215 104.947 164.607 105.029 164.035 105.233C163.739 105.349 163.493 105.567 163.343 105.847C163.268 105.992 163.225 106.151 163.216 106.314C163.207 106.476 163.233 106.639 163.291 106.791C163.476 107.101 163.734 107.36 164.042 107.547C164.371 107.759 164.72 107.939 165.083 108.084L165.97 108.439L165.019 108.362C163.503 108.194 161.973 108.194 160.458 108.362C160.058 108.425 159.666 108.529 159.287 108.672C158.897 108.785 158.525 108.95 158.181 109.163C158.049 109.286 157.97 109.455 157.961 109.635L157.909 109.952C157.896 110.044 157.896 110.138 157.909 110.23C157.941 110.418 158.016 110.597 158.129 110.751C158.241 110.906 158.387 111.033 158.556 111.122L158.64 111.174V111.271C158.64 111.568 158.64 111.917 158.672 112.227V112.176C158.711 112.24 158.75 112.311 158.789 112.389C159.056 112.769 159.417 113.074 159.837 113.275C160.25 113.49 160.684 113.665 161.131 113.798C162.018 114.062 162.927 114.244 163.848 114.341H163.938L163.977 114.419C164.249 114.936 164.508 115.44 164.76 115.938L164.553 115.867L165.782 115.22C166.212 114.899 166.552 114.471 166.767 113.98C166.983 113.488 167.067 112.949 167.011 112.415V112.311L167.095 112.273C167.67 112.027 168.154 111.609 168.48 111.077C168.756 110.593 168.854 110.028 168.758 109.48L168.719 109.28L168.92 109.351C169.116 109.412 169.324 109.434 169.529 109.415C169.734 109.396 169.934 109.337 170.116 109.241C170.451 109.056 170.738 108.797 170.957 108.485C171.155 108.216 171.308 107.917 171.41 107.599C171.479 107.332 171.467 107.051 171.378 106.791C171.231 106.43 170.978 106.121 170.653 105.905C170.433 105.75 170.304 105.692 170.31 105.679C170.447 105.711 170.577 105.768 170.692 105.847C171.048 106.054 171.329 106.369 171.494 106.746C171.605 107.028 171.628 107.336 171.559 107.631C171.465 107.974 171.311 108.298 171.106 108.588C170.878 108.932 170.572 109.217 170.213 109.422C170.005 109.541 169.775 109.615 169.536 109.639C169.298 109.664 169.057 109.638 168.829 109.564L168.984 109.428C169.106 110.036 169.005 110.667 168.7 111.206C168.352 111.78 167.834 112.232 167.218 112.499L167.296 112.357C167.35 112.923 167.27 113.494 167.063 114.024C166.841 114.594 166.459 115.088 165.963 115.447L164.734 116.093L164.592 116.164L164.521 116.022L163.731 114.509L163.861 114.593C162.916 114.499 161.983 114.317 161.072 114.05C160.595 113.91 160.132 113.726 159.688 113.501C159.216 113.27 158.813 112.92 158.517 112.486L158.375 112.221V112.189C158.375 111.859 158.375 111.542 158.375 111.225L158.465 111.374C158.242 111.261 158.049 111.098 157.901 110.897C157.752 110.696 157.653 110.463 157.611 110.217C157.595 110.095 157.595 109.971 157.611 109.849L157.663 109.519C157.693 109.27 157.813 109.04 158 108.873C158.374 108.633 158.782 108.45 159.209 108.33C159.606 108.177 160.018 108.069 160.438 108.006C161.979 107.828 163.536 107.828 165.077 108.006L165.012 108.284C164.628 108.131 164.261 107.936 163.919 107.703C163.569 107.489 163.282 107.188 163.084 106.83C163.018 106.648 162.989 106.455 162.998 106.261C163.007 106.068 163.054 105.878 163.136 105.703C163.218 105.527 163.334 105.37 163.478 105.24C163.621 105.109 163.788 105.008 163.971 104.942C164.577 104.735 165.221 104.658 165.86 104.716C166.391 104.752 166.92 104.816 167.445 104.91C168.178 105.035 168.904 105.201 169.618 105.408L170.175 105.582C170.24 105.623 170.299 105.673 170.349 105.731Z" fill="#EB9275"/>
<path d="M166.623 112.499C165.331 111.979 163.992 111.583 162.625 111.316C161.239 111.168 159.842 111.149 158.453 111.258C158.833 111.082 159.244 110.979 159.662 110.954C161.672 110.692 163.715 111.004 165.556 111.853C165.947 112.003 166.309 112.222 166.623 112.499Z" fill="#EB9275"/>
<path d="M168.809 109.636C168.751 109.707 167.897 109.144 166.674 108.821C165.452 108.498 164.436 108.401 164.443 108.297C165.223 108.157 166.027 108.226 166.771 108.498C167.554 108.651 168.268 109.05 168.809 109.636Z" fill="#EB9275"/>
<path d="M58.1098 11.4452C58.5261 10.6456 59.1799 9.99451 59.9815 9.58129C60.7831 9.16808 61.6931 9.01304 62.5865 9.13747C63.6336 8.31866 64.9249 7.87378 66.2545 7.87378C67.5841 7.87378 68.8755 8.31866 69.9226 9.13747C70.7013 8.65348 71.5925 8.37976 72.5088 8.34309C73.4252 8.30642 74.3354 8.50805 75.1504 8.92826C75.9654 9.34847 76.6573 9.97287 77.1584 10.7404C77.6595 11.5079 77.9526 12.3922 78.0091 13.3068C78.9238 13.1425 79.867 13.2701 80.7051 13.6716C81.5431 14.073 82.2334 14.7279 82.6779 15.5434C83.1225 16.3589 83.2988 17.2936 83.1819 18.2148C83.065 19.1361 82.6607 19.9972 82.0265 20.6759C83.0177 20.9932 83.8582 21.6624 84.3891 22.5569C84.92 23.4515 85.1045 24.5094 84.9077 25.5306C84.711 26.5519 84.1466 27.4657 83.3212 28.0993C82.4959 28.733 81.4668 29.0425 80.4286 28.9694L59.0025 16.4355C58.3521 15.8002 57.9165 14.9778 57.7565 14.0832C57.5964 13.1885 57.7199 12.2663 58.1098 11.4452Z" fill="#5B5863"/>
<path d="M81.035 29.5581C80.5775 25.0457 78.4364 20.8709 75.038 17.8644C71.6395 14.8579 67.2328 13.2402 62.6947 13.3331H61.7632C51.6906 14.1541 46.7417 23.1392 47.8155 33.178L49.9698 66.6881L51.4383 70.8833L68.7823 92.6028L73.149 73.0358L73.2331 63.9473C73.2331 63.9473 82.8981 62.2472 82.814 52.5575C82.7816 47.8839 81.9212 38.2588 81.035 29.5581Z" fill="#FFA68A"/>
<path d="M73.2284 63.9661C68.7562 64.0336 64.3575 62.8249 60.5487 60.4819C60.5487 60.4819 63.6604 67.405 73.2219 66.3643L73.2284 63.9661Z" fill="#F99778"/>
<path d="M80.0141 25.136C80.0141 25.136 77.3359 19.1244 74.3794 17.7669C70.8019 16.125 69.3528 20.0423 65.9694 19.1696C62.586 18.297 59.1574 16.7262 55.761 19.4023C52.0412 22.337 53.8203 24.3021 53.7103 28.6008C53.1216 46.0539 50.0422 51.0313 48.9683 42.8219C48.8454 41.9298 46.3354 41.264 45.889 37.476C45.3068 32.5568 44.9962 26.584 46.0248 23.0675C46.8853 20.1005 48.5284 18.0319 51.4913 15.7242C56.1815 12.0849 62.7154 11.8458 67.1598 12.2336C71.6041 12.6215 80.2599 17.5342 80.0141 25.136Z" fill="#5B5863"/>
<path d="M49.5692 42.5699C49.5509 42.2144 49.4604 41.8664 49.3033 41.547C49.1462 41.2275 48.9256 40.9434 48.6551 40.7118C48.3847 40.4802 48.0698 40.3061 47.7299 40.1999C47.3899 40.0937 47.0318 40.0577 46.6775 40.0941C44.8726 40.3009 42.8865 41.3869 43.0806 45.0973C43.43 51.7101 50.0027 49.9971 50.0027 49.8097C50.0027 49.6222 49.7374 45.3365 49.5692 42.5699Z" fill="#FFA68A"/>
<path d="M48.436 47.3985C48.436 47.3985 48.3196 47.4825 48.132 47.5795C47.8642 47.711 47.556 47.7342 47.2716 47.6441C46.56 47.4244 45.913 46.3513 45.816 45.1555C45.7672 44.5891 45.8468 44.0191 46.0489 43.4877C46.1019 43.2785 46.2041 43.0849 46.347 42.923C46.4899 42.7611 46.6693 42.6356 46.8705 42.5569C47.0018 42.515 47.1437 42.5206 47.2714 42.5726C47.3991 42.6245 47.5045 42.7196 47.5692 42.8413C47.6662 43.0223 47.6338 43.1516 47.6662 43.1645C47.6985 43.1774 47.802 43.0417 47.7374 42.7767C47.6916 42.6142 47.5911 42.4726 47.4527 42.3759C47.3592 42.3118 47.2538 42.2667 47.1428 42.2435C47.0318 42.2202 46.9172 42.219 46.8058 42.2401C46.5376 42.309 46.2912 42.4448 46.0899 42.6347C45.8885 42.8247 45.7386 43.0625 45.6543 43.3261C45.4023 43.9147 45.3001 44.5565 45.3567 45.1942C45.4667 46.5258 46.2171 47.7346 47.1875 47.9609C47.3685 48.0029 47.5566 48.0038 47.7379 47.9635C47.9193 47.9232 48.0893 47.8428 48.2355 47.7282C48.4296 47.5536 48.4554 47.405 48.436 47.3985Z" fill="#F99778"/>
<path d="M49.4339 29.739C50.2606 30.3802 51.2347 30.8046 52.2674 30.9736C53.309 31.0576 54.4799 30.4371 54.6351 29.4093C54.7063 28.9439 54.5769 28.4138 54.8745 28.0518C55.1721 27.6898 55.8966 27.7415 56.453 27.7868C57.4233 27.8412 58.3829 27.5607 59.1708 26.9923C59.9588 26.4238 60.5272 25.602 60.7809 24.6646C61.2855 25.3886 62.4306 25.311 63.168 24.8391C63.8339 24.277 64.4175 23.6242 64.9018 22.8999C65.1543 22.5365 65.4908 22.2393 65.8827 22.0334C66.2746 21.8275 66.7103 21.7189 67.1531 21.717C67.6241 21.8665 68.11 21.964 68.6022 22.0079C69.4691 21.9109 69.896 20.8831 69.9866 20.0169C70.0772 19.1507 70.1871 18.1423 70.9117 17.6575C71.6362 17.1727 72.4772 17.4442 73.2794 17.5476C74.0816 17.651 75.1102 17.4377 75.2978 16.6491C75.329 16.4397 75.3169 16.2262 75.2624 16.0216C75.2079 15.8171 75.1121 15.6258 74.9808 15.4597C74.4254 14.6711 73.6204 14.0924 72.6956 13.8168C71.7708 13.5412 70.7801 13.5848 69.8831 13.9406C69.532 12.8477 68.8653 11.8831 67.9668 11.168C67.0683 10.4529 65.9782 10.0193 64.8336 9.92188C63.6891 9.82445 62.5413 10.0675 61.5346 10.6204C60.528 11.1733 59.7076 12.0114 59.1765 13.0292C58.4588 12.4074 57.6018 11.9676 56.678 11.747C55.7541 11.5263 54.7907 11.5313 53.8692 11.7615C52.9477 11.9917 52.0952 12.4403 51.384 13.0694C50.6728 13.6985 50.1237 14.4896 49.7832 15.3757C48.9677 15.1808 48.1129 15.2295 47.3248 15.5156C46.5367 15.8018 45.8501 16.3128 45.3499 16.9853C44.8498 17.6578 44.5583 18.4622 44.5115 19.2987C44.4646 20.1352 44.6646 20.9671 45.0866 21.6911C44.4776 22.0115 43.9596 22.4806 43.5807 23.0547C43.2018 23.6288 42.9743 24.2894 42.9194 24.9749C42.9194 26.3453 44.2909 27.6834 45.6041 27.2955C45.3344 27.8421 45.2861 28.4716 45.4694 29.0529C45.6527 29.6341 46.0534 30.1223 46.588 30.4156C47.1226 30.709 47.7499 30.7849 48.3391 30.6275C48.9283 30.4701 49.4341 30.0916 49.7509 29.5709" fill="#5B5863"/>
<path d="M45.1455 27.2629C45.1168 27.4976 45.1414 27.7358 45.2176 27.9596C45.2937 28.1835 45.4195 28.3872 45.5855 28.5558C45.9199 28.9693 46.3981 29.2416 46.9246 29.3185C47.2619 29.3672 47.6059 29.3403 47.9315 29.2396C48.2571 29.139 48.5562 28.9672 48.8071 28.7368L48.5225 28.698C48.8847 29.3085 49.3435 29.8565 49.881 30.3205C50.2394 30.6364 50.6542 30.882 51.1037 31.0445C51.5309 31.1971 51.9916 31.2307 52.4364 31.1414C52.8151 31.1033 53.1808 30.9822 53.5073 30.7866C53.8338 30.5911 54.1132 30.326 54.3254 30.0102C54.5835 29.584 54.757 29.1122 54.8364 28.6204C54.8947 28.2778 54.9011 28.0903 54.8752 28.0839C54.791 28.2401 54.73 28.4078 54.6941 28.5816C54.5672 29.0408 54.3685 29.4772 54.1054 29.8744C53.8645 30.1607 53.5666 30.3939 53.2308 30.5592C52.895 30.7245 52.5285 30.8183 52.1545 30.8347C51.7805 30.8511 51.4072 30.7898 51.0581 30.6545C50.7091 30.5192 50.392 30.3131 50.1268 30.049C49.6222 29.6099 49.1861 29.0979 48.833 28.5299L48.7101 28.336L48.5548 28.4911C48.3442 28.6906 48.093 28.8424 47.8184 28.9361C47.5438 29.0298 47.2521 29.0632 46.9634 29.0341C46.5002 28.9832 46.0708 28.7676 45.7537 28.4265C45.4734 28.0843 45.2665 27.6883 45.1455 27.2629Z" fill="#455A64"/>
<path d="M49.828 63.9863L61.382 73.0361L68.7051 82.3251L71.3705 72.6741L73.3112 65.124L76.4553 68.2397L84.4318 85.2145L93.3658 167.27C93.3658 167.27 77.7167 171.847 69.6108 172.403C61.5049 172.959 48.5859 170.741 48.5859 170.741V127.574L43.9863 84.8331L49.5369 68.453L49.828 63.9863Z" fill="#5B5863"/>
<path d="M48.0298 68.2515L45.358 71.9296L23.4985 83.4422L35.6801 120.553L38.96 141.367L26.6684 190.818C26.6684 190.818 41.5994 195.944 42.9062 194.308C43.4625 193.617 45.0281 190.062 46.6583 186.17C49.8927 178.414 51.9909 170.232 52.8882 161.878C53.8003 153.475 54.6349 142.731 54.0268 135.459C52.8752 121.884 51.0703 99.4021 50.9086 93.5068C50.7469 87.6116 49.6989 65.3232 49.6989 65.3232L48.0298 68.2515Z" fill="#FD3E72"/>
<path d="M74.8428 66.0671L82.0819 70.2947L105.526 77.9935L103.65 94.561L102.576 137.438L109.958 188.898C109.958 188.898 102.085 191.685 98.96 190.54C95.8354 189.396 91.5851 182.344 91.4234 178.084C91.2617 173.824 85.1871 132.518 85.1871 132.518L79.2807 76.9269L74.8428 66.0671Z" fill="#FD3E72"/>
<path d="M77.8408 158.937L72.6654 155.802L68.137 151.691C69.1894 152.542 70.3856 153.199 71.6692 153.63C72.2828 153.818 72.9416 153.799 73.543 153.574C74.1443 153.35 74.6546 152.933 74.9943 152.389C74.9943 152.389 73.1312 151.212 72.4972 150.863C71.8632 150.514 65.3811 145.692 63.7832 145.349C62.1853 145.007 51.3817 142.802 51.3817 142.802L51.2135 143.358L45.8893 154.697L50.6183 155.989C51.5084 157.247 52.3062 158.567 53.0055 159.939C54.0664 162.066 59.2289 164.16 61.2214 165.201C63.2139 166.241 65.4522 164.419 65.4522 164.419C67.7359 164.942 68.2987 162.479 68.2987 162.479C70.9252 162.124 71.1452 159.247 71.1452 159.247C71.1452 159.247 75.913 161.096 77.3815 161.355C77.6002 161.415 77.8336 161.389 78.0342 161.284C78.2349 161.178 78.3878 161 78.4618 160.786C78.5945 160.454 78.6049 160.086 78.4912 159.747C78.3774 159.409 78.1469 159.121 77.8408 158.937Z" fill="#FFA68A"/>
<path d="M71.1454 159.254C70.0895 158.933 69.0787 158.479 68.1372 157.903C67.1351 157.419 66.2262 156.763 65.4525 155.964C65.5107 155.893 66.7463 156.733 68.2989 157.599C69.2896 158.075 70.2413 158.629 71.1454 159.254Z" fill="#EB9275"/>
<path d="M62.7747 158.833C63.8336 159.291 64.8311 159.88 65.7441 160.585C66.7161 161.199 67.6494 161.873 68.5388 162.602C67.4699 162.16 66.4648 161.577 65.55 160.869C64.579 160.256 63.6516 159.575 62.7747 158.833Z" fill="#EB9275"/>
<path d="M60.7236 161.025C60.7883 160.967 61.7781 161.794 63.1172 162.693C63.9563 163.199 64.7392 163.793 65.4526 164.464C64.5534 164.073 63.7042 163.576 62.9232 162.984C62.0703 162.479 61.3234 161.814 60.7236 161.025Z" fill="#EB9275"/>
<path d="M62.0481 147.172C62.4449 147.173 62.837 147.257 63.1996 147.418C64.0944 147.746 64.9309 148.215 65.6773 148.808C66.4237 149.394 67.0931 150.071 67.6698 150.825C67.9431 151.113 68.1622 151.448 68.3168 151.814C68.2262 151.885 67.1911 150.417 65.4897 149.073C64.4294 148.294 63.2726 147.655 62.0481 147.172Z" fill="#EB9275"/>
<path d="M12.2101 145.634C11.5341 145.216 10.9712 144.638 10.5708 143.952C10.1704 143.265 9.9447 142.491 9.9135 141.697C9.87235 139.452 10.0021 137.207 10.3017 134.981C11.2073 127.412 23.6282 83.4556 23.6282 83.4556L36.0944 117.715L31.8118 132.628L53.6324 143.068L47.5578 160.198C47.5578 160.198 18.5693 149.597 12.2101 145.634Z" fill="#FD3E72"/>
<path d="M105.528 77.9929L125.582 116.034L126.119 116.816L147.959 105.679L155.153 120.21L125.712 138.045C124.099 139.004 122.18 139.309 120.349 138.896C118.519 138.484 116.916 137.385 115.872 135.827L102.882 116.435L99.3885 100.514L105.528 77.9929Z" fill="#FD3E72"/>
<path d="M103.069 88.8337C103.1 88.9913 103.113 89.1517 103.108 89.3121C103.108 89.6547 103.108 90.1136 103.154 90.6825C103.154 91.9171 103.205 93.6366 103.244 95.7439C103.302 100.017 103.322 105.918 103.244 112.434C103.166 118.95 103.044 124.858 102.908 129.125C102.83 131.232 102.765 132.951 102.72 134.186C102.688 134.755 102.668 135.207 102.649 135.556C102.65 135.717 102.632 135.878 102.597 136.035C102.589 135.875 102.589 135.716 102.597 135.556C102.597 135.207 102.597 134.748 102.597 134.18C102.597 132.945 102.642 131.232 102.675 129.118C102.752 124.852 102.849 118.95 102.914 112.434C102.979 105.918 102.992 100.017 102.998 95.7439C102.998 93.6366 102.998 91.9171 102.998 90.6889C102.998 90.1136 102.998 89.6547 102.998 89.3121C103.003 89.1504 103.027 88.9899 103.069 88.8337Z" fill="#D7305E"/>
<path d="M28.4605 92.9709C28.5216 93.0948 28.5693 93.2248 28.6028 93.3588L28.9327 94.4771C29.2239 95.492 29.6185 96.8947 30.1037 98.6077C31.0805 102.098 32.4132 106.921 33.7717 112.279C35.1302 117.638 36.2041 122.538 36.8769 126.1C37.2198 127.884 37.4721 129.332 37.6274 130.327C37.6985 130.799 37.7567 131.187 37.7956 131.484C37.8259 131.618 37.839 131.755 37.8344 131.891C37.7901 131.763 37.7555 131.631 37.7309 131.497C37.6705 131.2 37.5929 130.818 37.498 130.353C37.2845 129.319 36.9998 127.89 36.644 126.151C35.9065 122.603 34.8003 117.748 33.4094 112.363C32.0186 106.979 30.7571 102.176 29.8449 98.6659C29.3985 96.9464 29.0362 95.5307 28.7775 94.5094C28.661 94.044 28.5705 93.6691 28.4993 93.3782C28.4701 93.2445 28.4571 93.1078 28.4605 92.9709Z" fill="#D7305E"/>
<path d="M19.4368 149.156L19.5791 149.195L19.9867 149.344L21.5587 149.932L27.4198 152.182L47.6167 160.042L47.4097 160.139L51.4788 148.646L53.4778 143.009L53.5619 143.209L31.9935 132.789C29.0927 131.827 25.9397 131.961 23.1307 133.164C22.3709 133.49 21.6376 133.875 20.9376 134.315L20.4007 134.664C20.3427 134.709 20.2798 134.749 20.2131 134.78C20.2131 134.78 20.2648 134.728 20.3813 134.638L20.9053 134.257C21.5911 133.786 22.3187 133.379 23.0789 133.041C24.2832 132.504 25.5647 132.159 26.8764 132.02C28.6205 131.846 30.3819 132.03 32.0517 132.563L53.6589 142.906L53.7948 142.97L53.7495 143.112C53.1026 144.942 52.4556 146.829 51.7505 148.749L47.6684 160.242L47.6102 160.397L47.4549 160.339L27.381 152.369L21.5587 150.029L20.0125 149.383L19.6114 149.208L19.4368 149.156Z" fill="#D7305E"/>
<path d="M126.244 116.429C126.34 116.921 126.36 117.424 126.303 117.922C126.223 119.125 126.052 120.32 125.792 121.497C125.507 122.873 125.209 124.082 125.015 125.007C124.941 125.5 124.818 125.985 124.647 126.455C124.626 125.953 124.671 125.451 124.782 124.961C124.918 124.05 125.177 122.802 125.462 121.432C125.746 120.062 125.96 118.814 126.063 117.903C126.087 117.407 126.147 116.915 126.244 116.429Z" fill="#D7305E"/>
</g>
</g>
<defs>
<filter id="filter0_d" x="52" y="28.5" width="172.471" height="150.5" filterUnits="userSpaceOnUse" color-interpolation-filters="sRGB">
<feFlood flood-opacity="0" result="BackgroundImageFix"/>
<feColorMatrix in="SourceAlpha" type="matrix" values="0 0 0 0 0 0 0 0 0 0 0 0 0 0 0 0 0 0 127 0"/>
<feOffset dy="4"/>
<feGaussianBlur stdDeviation="4"/>
<feColorMatrix type="matrix" values="0 0 0 0 0 0 0 0 0 0 0 0 0 0 0 0 0 0 0.15 0"/>
<feBlend mode="normal" in2="BackgroundImageFix" result="effect1_dropShadow"/>
<feBlend mode="normal" in="SourceGraphic" in2="effect1_dropShadow" result="shape"/>
</filter>
<filter id="filter1_d" x="0.906067" y="2.87378" width="190.975" height="197.126" filterUnits="userSpaceOnUse" color-interpolation-filters="sRGB">
<feFlood flood-opacity="0" result="BackgroundImageFix"/>
<feColorMatrix in="SourceAlpha" type="matrix" values="0 0 0 0 0 0 0 0 0 0 0 0 0 0 0 0 0 0 127 0"/>
<feOffset dy="4"/>
<feGaussianBlur stdDeviation="4.5"/>
<feColorMatrix type="matrix" values="0 0 0 0 0 0 0 0 0 0 0 0 0 0 0 0 0 0 0.15 0"/>
<feBlend mode="normal" in2="BackgroundImageFix" result="effect1_dropShadow"/>
<feBlend mode="normal" in="SourceGraphic" in2="effect1_dropShadow" result="shape"/>
</filter>
</defs>
</svg>
