<svg width="200" height="145" viewBox="0 0 200 145" fill="none" xmlns="http://www.w3.org/2000/svg">
<path d="M191.993 93.2065L51.4952 130.853C47.6315 131.888 43.6231 129.574 42.5879 125.71L21.8823 48.4361C20.8471 44.5724 23.1613 40.5641 27.025 39.5288L167.523 1.88235C171.387 0.847073 175.395 3.1613 176.431 7.025L197.136 84.2991C198.171 88.1629 195.857 92.1712 191.993 93.2065Z" fill="#B9244D"/>
<path d="M166.901 69.8127C158.822 71.9774 152.482 77.8175 149.961 85.2692C145.978 84.4544 141.738 84.0846 137.171 85.3081C124.878 88.6021 117.139 100.464 118.582 112.877L191.993 93.2065C195.505 92.2654 197.656 89.0539 197.418 85.353C192.719 73.4359 179.546 66.4245 166.901 69.8127Z" fill="#B9244D"/>
<path d="M176.062 89.9462L63.6632 120.063C61.5927 112.336 53.5763 107.708 45.8489 109.778L32.6727 60.6039C40.4001 58.5333 45.0283 50.517 42.9578 42.7896L155.357 12.6724C157.427 20.3999 165.443 25.0281 173.171 22.9575L186.347 72.1319C178.62 74.2025 173.991 82.2188 176.062 89.9462Z" fill="#DB2254"/>
<path d="M166.901 69.8124C158.822 71.9771 152.481 77.8172 149.96 85.269C145.977 84.4542 141.737 84.0844 137.171 85.3079C127.336 87.9431 120.412 95.8218 118.807 105.287L176.06 89.9459C173.99 82.2185 178.361 74.6473 185.994 72.2257C180.298 69.2342 173.574 68.0242 166.901 69.8124Z" fill="#DB2254"/>
<path d="M117.978 97.9797C133.497 93.8214 142.286 76.2972 137.608 58.8384C132.929 41.3795 116.556 30.5973 101.037 34.7556C85.5184 38.9139 76.7301 56.4381 81.4082 73.8969C86.0862 91.3558 102.459 102.138 117.978 97.9797Z" fill="#D0D0D0"/>
<path d="M69.241 84.6864C73.1208 83.6469 75.4232 79.6589 74.3836 75.7791C73.344 71.8993 69.3561 69.5969 65.4763 70.6365C61.5965 71.676 59.294 75.664 60.3336 79.5438C61.3732 83.4236 65.3612 85.726 69.241 84.6864Z" fill="#B9244D"/>
<path d="M153.54 62.0986C157.42 61.059 159.722 57.071 158.683 53.1912C157.643 49.3114 153.655 47.009 149.775 48.0486C145.896 49.0882 143.593 53.0761 144.633 56.9559C145.672 60.8357 149.66 63.1381 153.54 62.0986Z" fill="#B9244D"/>
<path d="M112.081 61.9144L105.056 63.7967C102.948 64.3614 101.167 63.3327 100.602 61.2255C100.038 59.1179 101.066 57.3366 103.174 56.772L113.711 53.9485C115.818 53.3838 116.847 51.6023 116.282 49.4951C115.717 47.3875 113.936 46.3592 111.829 46.9238L108.316 47.865C107.752 45.7574 105.97 44.7291 103.863 45.2937C101.755 45.8585 100.727 47.64 101.292 49.7472C95.3204 51.3472 91.9777 57.1368 93.5777 63.108C95.1777 69.0793 100.967 72.4219 106.939 70.8219L113.964 68.9396C116.071 68.3749 117.852 69.4036 118.417 71.5108C118.982 73.6183 117.953 75.3996 115.846 75.9643L105.308 78.7877C103.201 79.3525 102.173 81.134 102.737 83.2412C103.302 85.3488 105.083 86.3771 107.191 85.8124L110.703 84.8713C111.268 86.9788 113.049 88.0072 115.157 87.4425C117.264 86.8778 118.292 85.0963 117.728 82.989C123.699 81.3891 127.042 75.5995 125.442 69.6282C123.842 63.657 118.052 60.3144 112.081 61.9144Z" fill="#DB2254"/>
<g filter="url(#filter0_d)">
<path d="M162.727 132.546H17.2728C13.2728 132.546 10 129.273 10 125.273V45.2728C10 41.2728 13.2728 38 17.2728 38H162.727C166.727 38 170 41.2728 170 45.2728V125.273C170 129.273 166.727 132.546 162.727 132.546Z" fill="#E23262"/>
<path d="M144.545 103.455C136.181 103.455 128.545 107.455 124.181 114C120.545 112.182 116.545 110.727 111.817 110.727C99.0903 110.727 88.5447 120.182 86.7266 132.546H162.727C166.363 132.546 169.272 130 169.999 126.364C168.545 113.636 157.636 103.455 144.545 103.455Z" fill="#E23262"/>
<path d="M148.182 125.273H31.8187C31.8187 117.273 25.2734 110.728 17.2734 110.728V59.8187C25.2734 59.8187 31.8187 53.2734 31.8187 45.2734H148.182C148.182 53.2734 154.728 59.8187 162.728 59.8187V110.728C154.728 110.728 148.182 117.273 148.182 125.273Z" fill="#FD3E72"/>
<path d="M144.544 103.454C136.18 103.454 128.544 107.454 124.18 114C120.544 112.182 116.544 110.727 111.817 110.727C101.635 110.727 92.908 116.545 88.908 125.272H148.181C148.181 117.272 154.363 111.091 162.363 110.727C157.635 106.363 151.454 103.454 144.544 103.454Z" fill="#FD3E72"/>
<path d="M89.9987 118C106.065 118 119.09 103.347 119.09 85.2726C119.09 67.1979 106.065 52.5454 89.9987 52.5454C73.9322 52.5454 60.9077 67.1979 60.9077 85.2726C60.9077 103.347 73.9322 118 89.9987 118Z" fill="#FAFAFA"/>
<path d="M46.3627 92.5454C50.3793 92.5454 53.6355 89.2892 53.6355 85.2726C53.6355 81.2559 50.3793 77.9998 46.3627 77.9998C42.346 77.9998 39.0898 81.2559 39.0898 85.2726C39.0898 89.2892 42.346 92.5454 46.3627 92.5454Z" fill="#E23262"/>
<path d="M133.635 92.5454C137.652 92.5454 140.908 89.2892 140.908 85.2726C140.908 81.2559 137.652 77.9998 133.635 77.9998C129.619 77.9998 126.363 81.2559 126.363 85.2726C126.363 89.2892 129.619 92.5454 133.635 92.5454Z" fill="#E23262"/>
<path d="M93.6366 81.6368H86.3638C84.182 81.6368 82.7276 80.1821 82.7276 78.0006C82.7276 75.8187 84.1823 74.3643 86.3638 74.3643H97.2729C99.4548 74.3643 100.909 72.9096 100.909 70.7281C100.909 68.5462 99.4544 67.0918 97.2729 67.0918H93.6366C93.6366 64.9099 92.1819 63.4556 90.0004 63.4556C87.8185 63.4556 86.3641 64.9103 86.3641 67.0918C80.1823 67.0918 75.4551 71.819 75.4551 78.0009C75.4551 84.1828 80.1823 88.9099 86.3641 88.9099H93.6369C95.8188 88.9099 97.2732 90.3646 97.2732 92.5462C97.2732 94.7281 95.8185 96.1824 93.6369 96.1824H82.7279C80.546 96.1824 79.0916 97.6371 79.0916 99.8187C79.0916 102.001 80.5463 103.455 82.7279 103.455H86.3641C86.3641 105.637 87.8188 107.091 90.0004 107.091C92.1823 107.091 93.6366 105.637 93.6366 103.455C99.8185 103.455 104.546 98.7278 104.546 92.5459C104.546 86.364 99.8185 81.6368 93.6366 81.6368Z" fill="#5B5863"/>
</g>
<defs>
<filter id="filter0_d" x="0" y="30" width="180" height="114.546" filterUnits="userSpaceOnUse" color-interpolation-filters="sRGB">
<feFlood flood-opacity="0" result="BackgroundImageFix"/>
<feColorMatrix in="SourceAlpha" type="matrix" values="0 0 0 0 0 0 0 0 0 0 0 0 0 0 0 0 0 0 127 0"/>
<feOffset dy="2"/>
<feGaussianBlur stdDeviation="5"/>
<feColorMatrix type="matrix" values="0 0 0 0 0 0 0 0 0 0 0 0 0 0 0 0 0 0 0.15 0"/>
<feBlend mode="normal" in2="BackgroundImageFix" result="effect1_dropShadow"/>
<feBlend mode="normal" in="SourceGraphic" in2="effect1_dropShadow" result="shape"/>
</filter>
</defs>
</svg>
