<svg width="495" height="495" viewBox="0 0 495 495" fill="none" xmlns="http://www.w3.org/2000/svg">
<circle cx="247.5" cy="247.5" r="247.5" fill="#FFF2F6"/>
<circle cx="247.501" cy="247.5" r="181.808" fill="#FFE0E9"/>
<path d="M435.993 78.4136H84.0948V369.483H435.993V78.4136Z" fill="#FAFAFA"/>
<path d="M395.546 156.997C395.546 157.153 332.462 157.287 254.653 157.287C176.843 157.287 113.76 157.153 113.76 156.997C113.76 156.841 176.832 156.708 254.653 156.708C332.474 156.708 395.546 156.83 395.546 156.997Z" fill="#E0E0E0"/>
<path d="M395.546 188.085C395.546 188.241 332.462 188.375 254.653 188.375C176.843 188.375 113.76 188.241 113.76 188.085C113.76 187.929 176.832 187.796 254.653 187.796C332.474 187.796 395.546 187.929 395.546 188.085Z" fill="#E0E0E0"/>
<path d="M395.546 219.173C395.546 219.34 332.462 219.463 254.653 219.463C176.843 219.463 113.76 219.34 113.76 219.173C113.76 219.006 176.832 218.884 254.653 218.884C332.474 218.884 395.546 219.018 395.546 219.173Z" fill="#E0E0E0"/>
<path d="M395.546 250.262C395.546 250.429 332.462 250.551 254.653 250.551C176.843 250.551 113.76 250.429 113.76 250.262C113.76 250.095 176.832 249.972 254.653 249.972C332.474 249.972 395.546 250.072 395.546 250.262Z" fill="#E0E0E0"/>
<path d="M395.546 281.361C395.546 281.517 332.462 281.651 254.653 281.651C176.843 281.651 113.76 281.517 113.76 281.361C113.76 281.206 176.832 281.072 254.653 281.072C332.474 281.072 395.546 281.239 395.546 281.361Z" fill="#E0E0E0"/>
<path d="M395.546 312.405C395.546 312.561 332.462 312.695 254.653 312.695C176.843 312.695 113.76 312.605 113.76 312.405C113.76 312.205 176.832 312.116 254.653 312.116C332.474 312.116 395.546 312.294 395.546 312.405Z" fill="#E0E0E0"/>
<path d="M314.85 252.922H286.779V343.237H314.85V252.922Z" fill="#455A64"/>
<path d="M367.864 223.091H339.792V343.248H367.864V223.091Z" fill="#455A64"/>
<path d="M167.074 300.974H139.002V343.249H167.074V300.974Z" fill="#455A64"/>
<path d="M213.515 288.362H185.443V343.248H213.515V288.362Z" fill="#455A64"/>
<path d="M261.647 272.39H233.575V343.248H261.647V272.39Z" fill="#455A64"/>
<path d="M437.186 73.0933H83.0263C77.6677 73.0933 73.3237 77.4338 73.3237 82.7882V84.8474C73.3237 90.2017 77.6677 94.5423 83.0263 94.5423H437.186C442.544 94.5423 446.888 90.2017 446.888 84.8474V82.7882C446.888 77.4338 442.544 73.0933 437.186 73.0933Z" fill="#FD3E72"/>
<path d="M398.107 343.249H396.815H393.016L378.446 343.304L324.865 343.393L148.058 343.571H112.835V343.282C112.835 282.463 112.901 228.724 112.924 190.178C112.924 170.922 112.991 155.461 113.013 144.798C113.013 139.488 113.013 135.37 113.069 132.554C113.069 131.174 113.069 130.116 113.069 129.393C113.069 128.669 113.069 128.28 113.069 128.28C113.069 128.28 113.069 128.636 113.069 129.393C113.069 130.15 113.069 131.174 113.069 132.554C113.069 135.359 113.069 139.477 113.124 144.798C113.124 155.461 113.124 170.922 113.213 190.178C113.213 228.724 113.213 282.463 113.302 343.282L113.024 342.992H148.058L324.865 343.07L378.446 343.171H393.016H396.815L398.107 343.249Z" fill="#263238"/>
<path d="M299.923 245.821C299.923 245.821 299.767 245.988 299.466 246.266L298.107 247.524L292.85 252.299C288.249 256.439 281.61 262.417 273.411 269.819L208.802 327.699L208.59 327.877L208.401 327.676L205.961 325.194L174.191 292.681H174.559L130.402 330.281L117.703 341.022L114.361 343.86L113.481 344.584L113.18 344.818C113.268 344.724 113.361 344.635 113.458 344.551L114.305 343.794L117.647 340.889L130.235 330.036L174.213 292.369L174.403 292.214L174.581 292.392L206.384 324.871L208.813 327.365H208.412L273.133 269.585L292.705 252.199L298.041 247.501L299.433 246.288C299.745 245.954 299.923 245.821 299.923 245.821Z" fill="#FF725E"/>
<path d="M340.674 217.193L306.843 203.713C295.993 204.67 292.673 216.324 294.779 223.749C292.265 223.066 289.599 223.202 287.167 224.137C284.736 225.071 282.666 226.756 281.258 228.946C279.85 231.136 279.177 233.717 279.336 236.315C279.496 238.914 280.481 241.393 282.147 243.394C280.696 243.865 279.353 244.621 278.198 245.616C277.043 246.612 276.099 247.829 275.42 249.194C274.742 250.559 274.343 252.046 274.247 253.567C274.151 255.089 274.36 256.614 274.861 258.054C277.156 263.764 284.887 266.546 290.256 263.619C293.843 261.682 296.249 257.842 300.092 256.518C303.702 255.282 307.623 256.518 311.41 256.907C320.845 257.764 330.225 252.377 335.438 244.474C340.651 236.571 342.055 226.554 340.674 217.193Z" fill="#EBEBEB"/>
<path d="M319.017 208.889C315.798 210.598 312.951 212.928 310.641 215.745C310.312 216.149 310.119 216.647 310.089 217.167C310.06 217.687 310.196 218.202 310.478 218.641C310.759 219.079 311.172 219.417 311.658 219.606C312.143 219.796 312.676 219.828 313.18 219.697H313.236C310.215 222.979 307.413 226.455 304.848 230.104C304.485 230.614 304.288 231.223 304.285 231.848C304.281 232.474 304.471 233.085 304.828 233.599C305.185 234.113 305.692 234.504 306.279 234.719C306.867 234.934 307.507 234.963 308.112 234.801C319.036 231.913 328.537 225.157 334.847 215.79L319.017 208.889Z" fill="#FF725E"/>
<g opacity="0.3">
<path opacity="0.3" d="M318.25 213.263C317.68 213.531 317.169 213.909 316.747 214.376C316.543 214.609 316.411 214.895 316.365 215.201C316.32 215.507 316.363 215.82 316.49 216.102C316.936 216.914 318.206 217.003 318.618 217.827C319.03 218.65 318.239 219.675 317.504 220.331L315.154 222.39C314.574 222.891 313.939 223.581 314.162 224.316C314.385 225.051 315.499 225.273 316.39 225.173C318.346 224.935 320.215 224.224 321.836 223.104C323.456 221.983 324.78 220.485 325.692 218.74L318.25 213.263Z" fill="black"/>
</g>
<path d="M371.985 199.673C371.985 199.673 371.985 199.784 371.985 199.907C373.229 206.653 372.942 213.593 371.145 220.214C369.349 226.835 366.088 232.969 361.603 238.163L355.922 244.764L350.653 224.35L371.985 199.673Z" fill="#FF725E"/>
<path d="M371.985 199.673L371.885 199.795L371.584 200.163C371.306 200.474 370.916 200.942 370.403 201.532L366.026 206.652L350.776 224.461V224.361C352.257 230.082 353.872 236.371 355.577 242.96L356.045 244.764H355.822L359.164 240.879C360.278 239.588 361.392 238.352 362.394 237.083C364.362 234.664 366.082 232.054 367.529 229.292C368.831 226.801 369.894 224.192 370.704 221.5C371.116 220.243 371.373 218.985 371.662 217.794C371.952 216.603 372.141 215.434 372.253 214.31C372.735 210.794 372.798 207.233 372.442 203.702C372.353 202.444 372.163 201.476 372.085 200.83C372.008 200.185 371.963 199.985 371.941 199.84L372.007 200.085C372.007 200.263 372.074 200.508 372.13 200.83C372.23 201.476 372.442 202.433 372.542 203.691C372.932 207.23 372.895 210.802 372.431 214.332C372.319 215.445 372.074 216.558 371.863 217.838C371.651 219.118 371.317 220.298 370.905 221.556C370.107 224.282 369.048 226.925 367.741 229.448C366.292 232.238 364.564 234.875 362.583 237.317C361.57 238.608 360.456 239.833 359.364 241.124L356.022 245.02L355.866 245.198L355.799 244.964L355.343 243.161C353.638 236.571 352.001 230.282 350.553 224.55V224.494C356.835 217.271 362.182 211.138 365.97 206.685L370.426 201.632L371.54 200.296L371.84 199.962L371.985 199.673Z" fill="#263238"/>
<path d="M334.522 167.393H334.288C327.52 167.158 320.786 168.444 314.581 171.156C308.377 173.869 302.861 177.939 298.441 183.065L292.816 189.577L313.513 191.736L334.522 167.393Z" fill="#FF725E"/>
<path d="M334.523 167.393L334.423 167.504L334.145 167.849L333.031 169.174L328.731 174.205L313.592 191.814H313.536L294.655 189.899L292.828 189.699H292.583L292.75 189.51L296.092 185.67C297.206 184.423 298.231 183.154 299.333 181.974C301.434 179.695 303.759 177.632 306.273 175.819C308.546 174.177 310.97 172.757 313.514 171.578C314.695 170.999 315.887 170.565 317.012 170.109C318.137 169.652 319.24 169.307 320.354 168.996C323.735 168.028 327.221 167.475 330.736 167.348C331.972 167.259 332.964 167.348 333.588 167.348H334.334H334.59H333.588C332.941 167.348 331.983 167.348 330.747 167.415C327.246 167.58 323.776 168.155 320.409 169.129C319.295 169.408 318.248 169.831 317.068 170.242C315.887 170.654 314.762 171.144 313.592 171.734C311.065 172.907 308.659 174.324 306.407 175.964C303.888 177.793 301.563 179.874 299.467 182.175C298.353 183.343 297.328 184.612 296.226 185.859C295.123 187.106 293.998 188.408 292.884 189.699L292.806 189.488L294.633 189.677L313.492 191.669H313.392L328.53 174.227L332.897 169.207L334.011 167.872L334.323 167.527C334.479 167.437 334.512 167.393 334.523 167.393Z" fill="#263238"/>
<path d="M409.024 118.896C406.05 116.347 393.986 119.308 377.833 127.801C368.333 132.76 359.684 139.2 352.212 146.879L304.68 201.965L319.161 214.476L327.583 221.722L342.064 234.245L385.33 184.201C389.539 179.323 393.27 174.052 396.47 168.462C399.726 162.878 402.528 157.042 404.847 151.009C411.185 134.056 411.987 121.49 409.024 118.93" fill="#F5F5F5"/>
<path d="M349.55 224.917C349.55 224.917 341.117 217.905 330.825 209.145C320.532 200.385 312.221 193.228 312.266 193.172C312.311 193.116 320.699 200.184 330.992 208.944C341.285 217.704 349.595 224.861 349.55 224.917Z" fill="#263238"/>
<path d="M347.935 226.442C347.935 226.442 339.514 219.429 329.221 210.67C318.928 201.91 310.618 194.752 310.662 194.708C310.707 194.663 319.095 201.709 329.388 210.469C339.681 219.229 347.991 226.386 347.935 226.442Z" fill="#263238"/>
<path d="M346.453 228.223C346.398 228.223 338.021 221.221 327.728 212.462C317.435 203.702 309.136 196.545 309.136 196.489C309.136 196.433 317.568 203.49 327.861 212.261C338.154 221.032 346.498 228.167 346.453 228.223Z" fill="#263238"/>
<path d="M344.961 230.037C344.961 230.093 336.529 223.025 326.236 214.265C315.943 205.505 307.633 198.359 307.677 198.303C307.722 198.248 316.11 205.305 326.403 214.064C336.696 222.824 345.006 229.959 344.961 230.037Z" fill="#263238"/>
<path d="M343.467 231.796C343.467 231.796 335.035 224.795 324.742 216.035C314.449 207.275 306.139 200.118 306.194 200.062C306.25 200.006 314.616 207.074 324.909 215.834C335.202 224.594 343.512 231.751 343.467 231.796Z" fill="#263238"/>
<path d="M353.294 183.633C353.248 183.741 353.188 183.842 353.115 183.934C352.993 184.123 352.77 184.379 352.514 184.713C351.979 185.381 351.188 186.338 350.197 187.507C348.214 189.833 345.44 193.072 342.399 196.534C339.358 199.995 336.495 203.212 334.446 205.438L332.017 208.121C331.739 208.421 331.516 208.666 331.338 208.844C331.263 208.933 331.181 209.015 331.093 209.089C331.156 208.991 331.226 208.898 331.304 208.811L331.939 208.054L334.312 205.316L342.199 196.333L350.097 187.351L352.48 184.613C352.748 184.29 352.982 184.045 353.115 183.867C353.167 183.784 353.227 183.705 353.294 183.633Z" fill="#263238"/>
<path d="M371.986 199.672C371.986 199.672 363.576 192.615 353.316 183.777C343.057 174.94 334.758 167.705 334.813 167.705C334.869 167.705 343.224 174.761 353.483 183.599C363.743 192.437 372.03 199.617 371.986 199.672Z" fill="#263238"/>
<path d="M340.617 204.436C340.617 204.436 340.762 204.436 340.996 204.436C341.325 204.544 341.61 204.755 341.809 205.037C341.966 205.25 342.063 205.5 342.09 205.762C342.118 206.024 342.075 206.289 341.965 206.529C341.84 206.832 341.624 207.09 341.346 207.266C341.069 207.441 340.744 207.527 340.416 207.511C340.088 207.496 339.773 207.379 339.514 207.177C339.255 206.975 339.064 206.698 338.969 206.384C338.883 206.135 338.866 205.867 338.919 205.609C338.972 205.351 339.093 205.111 339.269 204.915C339.493 204.649 339.799 204.465 340.138 204.392C340.258 204.356 340.386 204.356 340.506 204.392C340.506 204.392 340.372 204.392 340.161 204.492C339.861 204.591 339.597 204.777 339.403 205.026C339.263 205.205 339.17 205.415 339.133 205.639C339.096 205.863 339.116 206.092 339.191 206.306C339.288 206.564 339.455 206.789 339.674 206.956C339.893 207.124 340.154 207.226 340.428 207.253C340.703 207.254 340.972 207.177 341.205 207.031C341.438 206.886 341.624 206.677 341.742 206.429C341.84 206.224 341.884 205.998 341.868 205.772C341.853 205.545 341.778 205.327 341.653 205.138C341.486 204.868 341.242 204.655 340.952 204.525C340.751 204.436 340.617 204.436 340.617 204.436Z" fill="#263238"/>
<path d="M350.008 193.918C350.008 193.918 350.142 193.918 350.376 193.918C350.583 193.983 350.774 194.091 350.937 194.234C351.101 194.377 351.232 194.553 351.323 194.75C351.414 194.947 351.464 195.161 351.467 195.378C351.471 195.595 351.429 195.811 351.345 196.011C351.219 196.314 351.003 196.571 350.726 196.747C350.448 196.923 350.123 197.009 349.795 196.993C349.467 196.977 349.152 196.86 348.893 196.659C348.634 196.457 348.444 196.18 348.348 195.866C348.262 195.617 348.244 195.349 348.297 195.09C348.35 194.832 348.471 194.592 348.649 194.397C348.873 194.131 349.178 193.947 349.518 193.874C349.641 193.837 349.773 193.837 349.897 193.874C349.897 193.874 349.763 193.874 349.551 193.974C349.251 194.073 348.988 194.259 348.794 194.508C348.649 194.684 348.552 194.894 348.513 195.119C348.474 195.343 348.494 195.574 348.571 195.788C348.656 196.053 348.821 196.286 349.042 196.455C349.263 196.624 349.531 196.722 349.81 196.736C350.088 196.749 350.364 196.677 350.6 196.53C350.837 196.382 351.023 196.166 351.133 195.91C351.229 195.705 351.271 195.478 351.253 195.252C351.236 195.025 351.16 194.808 351.033 194.619C350.867 194.352 350.627 194.14 350.342 194.007C350.13 193.951 349.997 193.94 350.008 193.918Z" fill="#263238"/>
<g opacity="0.3">
<path opacity="0.3" d="M314.061 191.08C314.061 191.08 328.22 175.408 334.525 167.371C329.746 169.775 324.332 172.569 320.511 176.276C316.59 180.235 314.29 185.514 314.061 191.08Z" fill="black"/>
</g>
<path d="M305.116 241.446C304.434 241.473 303.79 241.765 303.321 242.261C302.852 242.757 302.597 243.417 302.61 244.099C302.624 244.781 302.904 245.431 303.391 245.908C303.879 246.386 304.534 246.654 305.217 246.654C305.899 246.654 306.555 246.386 307.042 245.908C307.529 245.431 307.81 244.781 307.823 244.099C307.836 243.417 307.581 242.757 307.112 242.261C306.644 241.765 305.999 241.473 305.317 241.446" fill="#FF725E"/>
<path d="M385.169 166.767C390.921 162.152 391.84 153.752 387.222 148.005C382.603 142.257 374.197 141.339 368.445 145.953C362.693 150.568 361.774 158.968 366.392 164.715C371.01 170.463 379.417 171.381 385.169 166.767Z" fill="white"/>
<path d="M390.055 158.043C390.086 156.951 390.045 155.858 389.932 154.771C389.537 151.805 388.151 149.059 386 146.979C384.425 145.457 382.494 144.354 380.382 143.771C378.271 143.187 376.047 143.142 373.913 143.64C372.681 143.91 371.498 144.368 370.404 144.998C369.255 145.636 368.214 146.451 367.319 147.413C365.407 149.428 364.189 152 363.842 154.755C363.495 157.51 364.038 160.304 365.392 162.729C366.022 163.88 366.83 164.925 367.787 165.823C368.684 166.722 369.718 167.473 370.85 168.05C372.933 169.116 375.263 169.612 377.6 169.485C379.639 169.375 381.623 168.788 383.393 167.771C385.989 166.293 388.01 163.983 389.13 161.215C389.509 160.191 389.817 159.142 390.055 158.076C390.052 158.361 390.022 158.644 389.965 158.922C389.925 159.268 389.858 159.611 389.765 159.946C389.655 160.405 389.514 160.855 389.342 161.293C388.423 163.702 386.831 165.797 384.756 167.328C382.68 168.859 380.208 169.763 377.634 169.931C375.203 170.092 372.774 169.592 370.605 168.484C368.205 167.26 366.221 165.355 364.901 163.007C363.476 160.481 362.901 157.563 363.262 154.685C363.624 151.807 364.901 149.121 366.907 147.024C367.84 146.019 368.931 145.173 370.137 144.519C371.259 143.866 372.477 143.393 373.746 143.117C376.121 142.59 378.594 142.705 380.909 143.451C382.919 144.105 384.747 145.222 386.245 146.712C388.421 148.868 389.789 151.705 390.121 154.748C390.18 155.217 390.202 155.69 390.188 156.162C390.196 156.508 390.177 156.854 390.132 157.197C390.137 157.481 390.111 157.765 390.055 158.043Z" fill="#263238"/>
<path d="M409.024 118.896C406.05 116.347 393.986 119.308 377.834 127.801L404.847 151.009C411.185 134.056 411.988 121.49 409.024 118.93" fill="#FF725E"/>
<path d="M409.024 118.896L409.492 119.408C409.863 119.979 410.138 120.607 410.305 121.267C410.819 123.833 410.906 126.465 410.561 129.059C409.882 135.86 407.498 145.61 402.585 156.964C399.839 163.163 396.575 169.121 392.827 174.773C390.699 177.919 388.397 180.944 385.932 183.833L378.034 193.016L342.387 234.334L342.209 234.556L341.986 234.367L323.283 218.272L304.558 202.121L304.335 201.932L304.524 201.72L340.171 160.425L348.124 151.276L351.901 146.901C353.193 145.477 354.541 144.197 355.9 142.95C360.919 138.389 366.361 134.315 372.152 130.784C376.921 127.942 381.87 125.414 386.968 123.215C390.774 121.519 394.702 120.113 398.72 119.008C401.249 118.258 403.881 117.916 406.518 117.995C406.963 118.084 407.364 118.106 407.687 118.206C407.96 118.291 408.228 118.391 408.489 118.507L409.069 118.896L408.467 118.562C408.207 118.451 407.939 118.358 407.665 118.284C407.297 118.207 406.925 118.147 406.551 118.106C403.939 118.074 401.338 118.45 398.843 119.219C394.833 120.35 390.912 121.775 387.113 123.482C382.042 125.714 377.116 128.261 372.364 131.107C366.611 134.648 361.207 138.725 356.223 143.284C354.886 144.519 353.527 145.811 352.279 147.202L348.503 151.587L340.605 160.759L304.959 202.088V201.687L323.617 217.793L342.354 233.933H341.942L377.588 192.649L385.497 183.488C387.958 180.617 390.257 177.611 392.382 174.483C396.131 168.862 399.406 162.938 402.173 156.774C407.119 145.477 409.559 135.759 410.294 129.003C410.656 126.414 410.603 123.784 410.138 121.212C409.985 120.556 409.729 119.929 409.381 119.353C409.158 119.097 409.024 118.896 409.024 118.896Z" fill="#263238"/>
<path d="M377.879 166.303C377.663 165.428 377.543 164.532 377.522 163.631C377.389 161.973 377.289 159.691 377.233 157.153C377.177 154.615 377.155 152.556 377.121 150.686C377.048 149.789 377.067 148.886 377.177 147.992C377.399 148.866 377.518 149.763 377.534 150.664C377.667 152.322 377.768 154.615 377.823 157.142C377.879 159.669 377.901 161.739 377.935 163.62C378.008 164.514 377.989 165.413 377.879 166.303Z" fill="#263238"/>
<path d="M374.859 163.754C374.465 161.827 374.26 159.866 374.246 157.899C374.053 155.941 374.053 153.969 374.246 152.011C374.645 153.937 374.854 155.898 374.87 157.866C375.063 159.824 375.059 161.796 374.859 163.754Z" fill="#263238"/>
<path d="M314.049 269.607C312.819 269.204 311.5 269.155 310.243 269.466C308.986 269.777 307.842 270.436 306.942 271.366C306.207 272.222 305.768 273.291 305.69 274.416C305.612 275.541 305.899 276.661 306.508 277.61C305.444 278.093 304.546 278.879 303.926 279.868C303.306 280.858 302.991 282.008 303.021 283.176C303.079 284.33 303.412 285.454 303.993 286.453C304.575 287.453 305.387 288.298 306.363 288.919C308.367 290.129 310.758 290.528 313.047 290.032C315.346 289.57 317.425 288.353 318.954 286.576C320.483 284.798 321.374 282.561 321.485 280.22C321.596 277.878 320.922 275.567 319.569 273.653C318.216 271.738 316.261 270.33 314.016 269.652L314.049 269.607Z" fill="#EBEBEB"/>
<path d="M265.28 261.204C265.283 262.393 264.931 263.557 264.271 264.547C263.611 265.537 262.672 266.309 261.572 266.766C260.473 267.222 259.262 267.342 258.094 267.11C256.926 266.879 255.854 266.306 255.012 265.465C254.17 264.624 253.597 263.552 253.365 262.385C253.133 261.218 253.253 260.008 253.71 258.909C254.166 257.811 254.939 256.872 255.93 256.212C256.921 255.553 258.086 255.202 259.276 255.204C260.869 255.204 262.396 255.836 263.522 256.961C264.648 258.086 265.28 259.612 265.28 261.204Z" fill="#EBEBEB"/>
<path d="M127.062 144.631C124.75 144.924 122.417 145.02 120.088 144.92C117.749 145.023 115.405 144.926 113.082 144.631C115.405 144.338 117.748 144.238 120.088 144.33C122.417 144.24 124.749 144.34 127.062 144.631Z" fill="#263238"/>
<path d="M127.062 174.217C124.749 174.503 122.417 174.6 120.088 174.506C117.749 174.602 115.405 174.505 113.082 174.217C115.39 173.924 117.719 173.827 120.044 173.927C122.387 173.824 124.735 173.921 127.062 174.217Z" fill="#263238"/>
<path d="M127.06 203.791C124.748 204.077 122.415 204.174 120.087 204.08C117.762 204.174 115.434 204.077 113.125 203.791C115.433 203.498 117.762 203.401 120.087 203.501C122.415 203.401 124.748 203.498 127.06 203.791Z" fill="#263238"/>
<path d="M127.062 233.376C124.75 233.669 122.417 233.766 120.088 233.666C117.749 233.768 115.405 233.672 113.082 233.376C115.39 233.09 117.719 232.993 120.044 233.087C122.387 232.991 124.734 233.088 127.062 233.376Z" fill="#263238"/>
<path d="M127.06 262.94C124.748 263.233 122.415 263.329 120.087 263.229C117.762 263.329 115.433 263.232 113.125 262.94C115.434 262.654 117.762 262.557 120.087 262.65C122.415 262.557 124.748 262.653 127.06 262.94Z" fill="#263238"/>
<path d="M127.06 292.526C124.748 292.812 122.415 292.909 120.087 292.815C117.762 292.909 115.434 292.812 113.125 292.526C115.433 292.233 117.762 292.136 120.087 292.236C122.415 292.136 124.748 292.233 127.06 292.526Z" fill="#263238"/>
<path d="M285.655 312.216L290.634 309.177C290.634 309.177 297.151 303.378 298.933 302.12C300.715 300.862 307.555 297.768 308.513 297.846C309.471 297.924 318.895 297.334 321.123 296.299C323.351 295.264 325.779 293.883 325.779 293.883C326.241 294.445 326.513 295.138 326.557 295.864C326.601 296.589 326.415 297.31 326.024 297.924C324.677 300.239 317.803 304.602 317.803 304.602L320.377 321.41C320.377 321.41 313.971 326.463 309.984 326.797C305.996 327.131 302.186 326.341 301.072 326.697C299.958 327.053 297.14 328.033 297.14 328.033L285.655 312.216Z" fill="#FFBF9D"/>
<path d="M303.466 313.329L347.167 284.366L349.651 288.006L306.351 316.846L303.466 313.329Z" fill="#263238"/>
<path d="M328.074 304.769C328.074 304.769 331.416 306.127 329.645 309.222C327.874 312.316 325.601 311.314 325.601 311.314C325.601 311.314 326.415 314.653 322.638 316.379C322.734 317.345 322.58 318.319 322.189 319.208C321.799 320.097 321.186 320.87 320.41 321.454L318.294 322.567L316.935 319.896C316.935 319.896 308.937 319.172 307.734 315.989L307.678 314.331C307.251 314.119 306.898 313.784 306.666 313.369C306.433 312.954 306.332 312.478 306.375 312.004C306.631 310.446 306.53 310.413 309.538 309.388C312.546 308.364 318.929 309.043 318.929 309.043C318.929 309.043 315.509 307.741 315.587 305.971C315.665 304.202 317.013 303.077 320.689 303.333C323.194 303.556 325.669 304.037 328.074 304.769Z" fill="#FFBF9D"/>
<path d="M328.073 304.769C328.073 304.769 327.605 304.669 326.747 304.469C325.889 304.268 324.631 303.99 323.004 303.756C322.1 303.623 321.189 303.538 320.275 303.5C319.233 303.42 318.185 303.56 317.201 303.912C316.69 304.112 316.268 304.487 316.009 304.97C315.88 305.219 315.805 305.492 315.789 305.773C315.774 306.053 315.818 306.333 315.92 306.595C316.237 307.128 316.681 307.575 317.212 307.897C317.778 308.262 318.379 308.571 319.005 308.821L320.531 309.433L318.894 309.3C316.284 309.01 313.65 309.01 311.04 309.3C310.352 309.408 309.676 309.587 309.024 309.834C308.354 310.028 307.713 310.312 307.119 310.68C306.892 310.891 306.756 311.182 306.741 311.492L306.652 312.038C306.629 312.196 306.629 312.358 306.652 312.516C306.707 312.84 306.836 313.148 307.03 313.414C307.223 313.68 307.474 313.899 307.765 314.052L307.91 314.141V314.308C307.91 314.82 307.91 315.421 307.966 315.956V315.867C308.033 315.978 308.1 316.1 308.166 316.234C308.627 316.889 309.249 317.414 309.971 317.759C310.683 318.13 311.429 318.432 312.199 318.66C313.727 319.115 315.293 319.428 316.878 319.595H317.034L317.1 319.729C317.568 320.619 318.014 321.488 318.448 322.345L318.092 322.222L320.208 321.109C320.949 320.556 321.534 319.82 321.905 318.973C322.276 318.126 322.42 317.198 322.325 316.278V316.1L322.47 316.034C323.459 315.611 324.292 314.892 324.853 313.974C325.329 313.142 325.498 312.169 325.332 311.225L325.266 310.88L325.611 311.003C325.95 311.108 326.307 311.146 326.66 311.113C327.014 311.081 327.358 310.979 327.672 310.813C328.247 310.495 328.743 310.05 329.12 309.511C329.46 309.048 329.723 308.533 329.9 307.986C330.018 307.527 329.998 307.043 329.844 306.595C329.591 305.973 329.156 305.441 328.596 305.07C328.218 304.803 327.995 304.702 328.006 304.68C328.241 304.734 328.464 304.832 328.663 304.97C329.276 305.326 329.76 305.868 330.045 306.517C330.236 307.002 330.274 307.534 330.156 308.042C329.993 308.632 329.73 309.189 329.376 309.689C328.983 310.281 328.456 310.772 327.839 311.125C327.481 311.329 327.083 311.457 326.673 311.499C326.262 311.541 325.848 311.497 325.455 311.37L325.722 311.136C325.931 312.182 325.757 313.268 325.232 314.197C324.634 315.186 323.742 315.964 322.681 316.423L322.815 316.178C322.908 317.154 322.77 318.137 322.414 319.05C322.032 320.032 321.374 320.882 320.52 321.499L318.404 322.612L318.159 322.734L318.036 322.489L316.677 319.885L316.9 320.03C315.274 319.868 313.667 319.555 312.099 319.095C311.277 318.853 310.479 318.536 309.715 318.148C308.903 317.75 308.208 317.148 307.699 316.401L307.454 315.945V315.889C307.454 315.321 307.454 314.776 307.454 314.23L307.61 314.486C307.226 314.292 306.893 314.011 306.637 313.665C306.382 313.319 306.211 312.918 306.139 312.494C306.111 312.283 306.111 312.07 306.139 311.86L306.228 311.292C306.28 310.863 306.486 310.467 306.807 310.179C307.452 309.767 308.154 309.452 308.891 309.244C309.574 308.982 310.283 308.795 311.007 308.687C313.661 308.38 316.341 308.38 318.994 308.687L318.883 309.166C318.221 308.901 317.589 308.566 317 308.164C316.399 307.797 315.903 307.279 315.563 306.662C315.45 306.348 315.399 306.015 315.414 305.682C315.43 305.349 315.51 305.022 315.652 304.72C315.794 304.419 315.994 304.148 316.24 303.923C316.487 303.698 316.775 303.525 317.089 303.411C318.134 303.055 319.242 302.922 320.342 303.022C321.257 303.083 322.168 303.195 323.071 303.356C324.334 303.571 325.584 303.857 326.814 304.213L327.772 304.513C327.885 304.583 327.986 304.669 328.073 304.769Z" fill="#FF9A6C"/>
<path d="M321.657 316.424C319.432 315.528 317.126 314.846 314.772 314.387C312.385 314.132 309.98 314.099 307.587 314.287C308.243 313.984 308.949 313.807 309.67 313.763C313.131 313.312 316.65 313.849 319.818 315.311C320.493 315.569 321.115 315.946 321.657 316.424Z" fill="#FF9A6C"/>
<path d="M325.422 311.493C325.322 311.615 323.851 310.647 321.746 310.09C319.64 309.534 317.892 309.367 317.903 309.189C319.246 308.947 320.63 309.066 321.913 309.534C323.261 309.798 324.49 310.484 325.422 311.493Z" fill="#FF9A6C"/>
<path d="M134.804 142.416C135.521 141.039 136.647 139.918 138.027 139.206C139.407 138.495 140.974 138.228 142.513 138.442C144.316 137.032 146.539 136.266 148.829 136.266C151.118 136.266 153.342 137.032 155.145 138.442C156.486 137.609 158.02 137.137 159.598 137.074C161.176 137.011 162.743 137.358 164.147 138.082C165.55 138.805 166.741 139.881 167.604 141.202C168.467 142.524 168.972 144.047 169.069 145.621C170.644 145.338 172.268 145.558 173.711 146.25C175.155 146.941 176.343 148.069 177.109 149.473C177.874 150.877 178.178 152.486 177.976 154.073C177.775 155.659 177.079 157.142 175.987 158.311C177.694 158.857 179.141 160.009 180.055 161.55C180.969 163.09 181.287 164.911 180.948 166.67C180.609 168.428 179.637 170.002 178.216 171.093C176.795 172.184 175.023 172.717 173.235 172.591L136.341 151.009C135.221 149.915 134.471 148.499 134.196 146.958C133.92 145.418 134.133 143.83 134.804 142.416Z" fill="#263238"/>
<path d="M174.281 173.604C173.493 165.834 169.807 158.646 163.955 153.469C158.103 148.292 150.515 145.506 142.701 145.666H141.097C123.752 147.08 115.231 162.552 117.08 179.838L120.789 237.54L123.318 244.764L153.183 282.163L160.702 248.47L160.847 232.82C160.847 232.82 177.489 229.893 177.345 213.208C177.289 205.16 175.807 188.586 174.281 173.604Z" fill="#FFBF9D"/>
<path d="M160.836 232.853C153.135 232.969 145.561 230.888 139.002 226.854C139.002 226.854 144.36 238.775 160.824 236.983L160.836 232.853Z" fill="#FF9A6C"/>
<path d="M169.77 189.143C169.788 189.76 169.566 190.36 169.151 190.817C168.735 191.274 168.158 191.551 167.542 191.591C167.238 191.62 166.932 191.589 166.641 191.498C166.35 191.408 166.08 191.261 165.847 191.065C165.614 190.869 165.422 190.629 165.282 190.358C165.143 190.087 165.059 189.791 165.035 189.488C165.022 188.872 165.246 188.275 165.661 187.819C166.075 187.364 166.649 187.084 167.263 187.039C167.567 187.01 167.873 187.042 168.164 187.132C168.455 187.223 168.725 187.37 168.958 187.566C169.191 187.762 169.383 188.002 169.522 188.273C169.662 188.543 169.746 188.839 169.77 189.143Z" fill="#263238"/>
<path d="M171.072 182.676C170.783 182.987 168.945 181.696 166.382 181.752C163.82 181.807 161.927 183.132 161.682 182.865C161.537 182.731 161.826 182.164 162.64 181.551C163.733 180.76 165.044 180.325 166.394 180.305C167.727 180.276 169.036 180.665 170.136 181.418C170.927 181.974 171.206 182.531 171.072 182.676Z" fill="#263238"/>
<path d="M147.813 190.69C147.832 191.307 147.61 191.907 147.194 192.364C146.778 192.821 146.202 193.099 145.585 193.139C145.283 193.179 144.975 193.157 144.682 193.074C144.388 192.99 144.115 192.848 143.879 192.655C143.643 192.462 143.449 192.222 143.31 191.951C143.17 191.68 143.088 191.384 143.067 191.08C143.046 190.461 143.266 189.858 143.682 189.398C144.098 188.939 144.677 188.66 145.295 188.62C145.597 188.589 145.902 188.618 146.192 188.706C146.482 188.794 146.752 188.938 146.986 189.13C147.22 189.323 147.414 189.56 147.556 189.828C147.698 190.095 147.785 190.388 147.813 190.69Z" fill="#263238"/>
<path d="M146.499 182.821C146.209 183.143 144.371 181.841 141.809 181.897C139.247 181.952 137.353 183.277 137.108 183.01C136.863 182.743 137.253 182.297 138.066 181.685C139.161 180.898 140.472 180.467 141.82 180.45C143.154 180.414 144.465 180.804 145.563 181.563C146.399 182.175 146.677 182.676 146.499 182.821Z" fill="#263238"/>
<path d="M155.412 201.632C156.758 201.186 158.153 200.906 159.567 200.797C160.213 200.719 160.837 200.574 160.937 200.129C160.978 199.45 160.811 198.774 160.458 198.192L158.375 193.306C155.534 186.271 153.473 180.483 153.752 180.372C154.03 180.26 156.57 185.87 159.4 192.905C160.09 194.641 160.744 196.3 161.36 197.88C161.793 198.659 161.935 199.567 161.761 200.441C161.664 200.679 161.512 200.891 161.319 201.061C161.126 201.231 160.896 201.354 160.647 201.42C160.285 201.526 159.911 201.586 159.533 201.598C158.166 201.778 156.782 201.789 155.412 201.632Z" fill="#263238"/>
<path d="M147.859 203.569C148.271 203.569 148.338 206.307 150.767 208.232C153.195 210.158 156.136 209.791 156.169 210.18C156.169 210.358 155.523 210.737 154.264 210.792C152.655 210.834 151.081 210.319 149.809 209.334C148.59 208.358 147.793 206.952 147.581 205.405C147.369 204.248 147.67 203.546 147.859 203.569Z" fill="#263238"/>
<path d="M146.409 175.497C146.119 176.165 143.903 175.608 141.218 175.708C138.533 175.809 136.317 176.41 136.027 175.708C135.893 175.397 136.328 174.784 137.263 174.195C138.464 173.49 139.826 173.107 141.218 173.081C142.595 173.028 143.962 173.347 145.173 174.005C146.108 174.595 146.498 175.185 146.409 175.497Z" fill="#263238"/>
<path d="M170.338 175.663C169.959 176.286 168.11 175.864 166.016 176.053C163.921 176.242 162.15 176.843 161.682 176.286C161.471 176.008 161.682 175.396 162.417 174.773C163.387 173.986 164.58 173.527 165.826 173.459C167.074 173.352 168.323 173.636 169.402 174.272C170.204 174.784 170.516 175.352 170.338 175.663Z" fill="#263238"/>
<path d="M172.52 165.991C172.52 165.991 167.908 155.639 162.818 153.302C156.657 150.475 154.162 157.22 148.336 155.717C142.51 154.215 136.606 151.51 130.758 156.118C124.353 161.171 127.416 164.555 127.227 171.957C126.213 202.01 120.911 210.581 119.062 196.445C118.85 194.909 114.528 193.762 113.759 187.24C112.757 178.769 112.222 168.484 113.993 162.429C115.475 157.32 118.304 153.758 123.406 149.785C131.482 143.518 142.733 143.106 150.386 143.774C158.039 144.442 172.943 152.901 172.52 165.991Z" fill="#263238"/>
<path d="M120.099 196.01C120.068 195.398 119.912 194.799 119.641 194.249C119.371 193.699 118.991 193.21 118.525 192.811C118.059 192.412 117.517 192.112 116.932 191.929C116.346 191.747 115.73 191.685 115.12 191.747C112.012 192.104 108.592 193.973 108.926 200.363C109.528 211.749 120.846 208.8 120.846 208.477C120.846 208.154 120.389 200.774 120.099 196.01Z" fill="#FFBF9D"/>
<path d="M118.149 204.325C118.149 204.325 117.949 204.47 117.626 204.637C117.165 204.863 116.634 204.903 116.144 204.748C114.919 204.37 113.805 202.522 113.638 200.463C113.554 199.487 113.691 198.506 114.039 197.591C114.13 197.231 114.306 196.897 114.552 196.618C114.798 196.34 115.107 196.124 115.454 195.988C115.68 195.916 115.924 195.926 116.144 196.015C116.364 196.105 116.545 196.268 116.657 196.478C116.824 196.789 116.768 197.012 116.824 197.034C116.879 197.057 117.058 196.823 116.946 196.366C116.868 196.087 116.694 195.843 116.456 195.676C116.295 195.566 116.114 195.488 115.923 195.448C115.731 195.408 115.534 195.406 115.342 195.443C114.88 195.561 114.456 195.795 114.109 196.122C113.763 196.449 113.505 196.859 113.359 197.313C112.925 198.326 112.749 199.431 112.847 200.529C113.036 202.822 114.329 204.904 115.999 205.293C116.311 205.366 116.635 205.367 116.947 205.298C117.26 205.229 117.552 205.09 117.804 204.893C118.138 204.592 118.183 204.336 118.149 204.325Z" fill="#FF9A6C"/>
<path d="M119.864 173.916C121.287 175.02 122.965 175.751 124.743 176.042C126.536 176.187 128.553 175.118 128.82 173.348C128.943 172.547 128.72 171.634 129.232 171.011C129.745 170.387 130.992 170.476 131.95 170.554C133.621 170.648 135.273 170.165 136.63 169.186C137.987 168.207 138.966 166.792 139.403 165.178C140.271 166.425 142.243 166.291 143.513 165.479C144.66 164.511 145.665 163.387 146.499 162.14C146.933 161.514 147.513 161.002 148.188 160.647C148.862 160.293 149.613 160.106 150.375 160.103C151.186 160.36 152.023 160.528 152.87 160.603C154.363 160.437 155.098 158.667 155.254 157.175C155.41 155.684 155.6 153.947 156.847 153.112C158.095 152.278 159.543 152.745 160.924 152.923C162.305 153.101 164.077 152.734 164.4 151.376C164.453 151.016 164.433 150.648 164.339 150.296C164.245 149.943 164.08 149.614 163.854 149.328C162.898 147.97 161.511 146.974 159.919 146.499C158.326 146.024 156.62 146.1 155.076 146.712C154.471 144.83 153.323 143.169 151.776 141.938C150.229 140.707 148.352 139.96 146.381 139.792C144.41 139.624 142.434 140.043 140.7 140.995C138.967 141.947 137.554 143.39 136.64 145.143C135.404 144.072 133.928 143.315 132.338 142.935C130.747 142.555 129.088 142.564 127.501 142.96C125.914 143.356 124.446 144.129 123.222 145.212C121.997 146.295 121.052 147.658 120.465 149.183C119.061 148.848 117.589 148.932 116.232 149.424C114.875 149.917 113.693 150.797 112.832 151.955C111.97 153.113 111.468 154.498 111.388 155.938C111.307 157.379 111.652 158.811 112.378 160.058C111.329 160.61 110.437 161.418 109.785 162.406C109.133 163.395 108.741 164.532 108.646 165.712C108.646 168.072 111.008 170.376 113.269 169.708C112.805 170.65 112.722 171.734 113.037 172.735C113.353 173.735 114.043 174.576 114.963 175.081C115.884 175.586 116.964 175.717 117.979 175.446C118.993 175.175 119.864 174.523 120.41 173.626" fill="#263238"/>
<path d="M112.48 169.653C112.431 170.057 112.473 170.467 112.604 170.853C112.735 171.238 112.952 171.589 113.238 171.879C113.814 172.591 114.637 173.06 115.543 173.193C116.124 173.277 116.717 173.23 117.277 173.057C117.838 172.884 118.353 172.588 118.785 172.191L118.295 172.124C118.919 173.175 119.709 174.119 120.634 174.918C121.251 175.462 121.966 175.885 122.74 176.165C123.475 176.427 124.268 176.485 125.034 176.332C125.687 176.266 126.316 176.057 126.878 175.721C127.441 175.384 127.922 174.927 128.287 174.384C128.731 173.65 129.03 172.837 129.167 171.991C129.267 171.401 129.278 171.078 129.234 171.067C129.089 171.336 128.984 171.624 128.922 171.924C128.704 172.715 128.361 173.466 127.908 174.15C127.493 174.643 126.981 175.044 126.402 175.329C125.824 175.614 125.193 175.775 124.549 175.803C123.905 175.832 123.262 175.726 122.661 175.493C122.06 175.26 121.514 174.905 121.057 174.45C120.189 173.694 119.438 172.813 118.83 171.835L118.618 171.501L118.351 171.768C117.988 172.111 117.555 172.373 117.083 172.534C116.61 172.696 116.107 172.753 115.61 172.703C114.813 172.615 114.073 172.244 113.527 171.657C113.045 171.067 112.688 170.385 112.48 169.653Z" fill="#455A64"/>
<path d="M133.5 143.217C133.765 143.326 134.037 143.419 134.313 143.496C135.045 143.795 135.67 144.306 136.107 144.965L136.251 145.176L136.407 144.965C137.798 143.005 139.665 141.431 141.832 140.39C143.224 139.714 144.742 139.335 146.288 139.277C147.995 139.244 149.677 139.687 151.145 140.557C152.309 141.221 153.316 142.129 154.097 143.217C154.799 144.233 155.249 145.4 155.411 146.623V146.979L155.757 146.879C157.345 146.422 159.048 146.593 160.513 147.358C161.675 147.963 162.618 148.916 163.209 150.085C163.694 151.133 163.959 152.27 163.989 153.424C164.088 153.123 164.129 152.806 164.111 152.489C164.107 151.594 163.913 150.711 163.543 149.896C162.972 148.626 162.013 147.57 160.803 146.879C159.228 146.004 157.371 145.784 155.634 146.267L156.024 146.523C155.861 145.193 155.38 143.921 154.62 142.817C153.684 141.485 152.434 140.404 150.981 139.668C149.528 138.932 147.917 138.565 146.288 138.598C144.644 138.681 143.036 139.118 141.576 139.878C139.349 140.99 137.461 142.677 136.107 144.764H136.407C135.905 144.072 135.188 143.564 134.369 143.317C134.092 143.211 133.793 143.176 133.5 143.217Z" fill="#455A64"/>
<path d="M120.546 232.887L140.441 248.47L153.051 264.465L157.64 247.846L160.982 234.846L166.396 240.211L180.131 269.44L195.515 410.734C195.515 410.734 168.568 418.615 154.61 419.572C140.653 420.529 118.407 416.712 118.407 416.712V342.38L110.487 268.783L120.044 240.578L120.546 232.887Z" fill="#F5F5F5"/>
<path d="M160.758 418.626C160.747 418.497 160.747 418.366 160.758 418.237C160.758 417.947 160.758 417.558 160.702 417.068C160.702 416.011 160.613 414.508 160.535 412.616C160.402 408.698 160.212 403.077 159.978 396.153C159.499 382.262 158.742 363.062 157.639 341.869C156.536 320.676 155.277 301.475 154.297 287.606C153.818 280.694 153.417 275.095 153.183 271.177C153.05 269.263 152.949 267.771 152.882 266.725C152.882 266.235 152.86 265.864 152.816 265.612C152.801 265.478 152.801 265.344 152.816 265.211C152.852 265.342 152.875 265.476 152.882 265.612L152.994 266.725C153.094 267.771 153.228 269.274 153.406 271.177C153.751 275.051 154.208 280.66 154.743 287.595C155.857 301.464 157.082 320.642 158.185 341.846C159.288 363.05 159.978 382.24 160.413 396.142C160.602 403.099 160.736 408.72 160.792 412.616C160.792 414.53 160.792 416.033 160.792 417.068C160.792 417.558 160.792 417.947 160.792 418.237C160.793 418.367 160.781 418.498 160.758 418.626Z" fill="#263238"/>
<path d="M163.619 236.471L176.084 243.75L216.454 257.007L213.223 285.535L211.374 359.366L224.085 447.978C224.085 447.978 210.528 452.775 205.147 450.805C199.767 448.835 192.448 436.691 192.17 429.356C191.891 422.021 181.431 350.895 181.431 350.895L171.261 255.17L163.619 236.471Z" fill="#FF725E"/>
<path d="M176.856 243.706C177.041 243.882 177.212 244.072 177.368 244.273C177.702 244.696 178.17 245.264 178.76 245.988L183.94 252.466L184.052 252.61L183.907 252.722L179.518 256.061L179.451 255.694L184.609 257.33H184.776V257.508C184.687 266.68 184.564 278.233 184.43 290.767C184.208 306.049 183.996 319.896 183.851 329.969C183.751 334.945 183.673 338.985 183.617 341.846C183.617 343.204 183.539 344.284 183.517 345.074C183.517 345.408 183.517 345.686 183.517 345.909C183.531 346.005 183.531 346.102 183.517 346.198C183.503 346.102 183.503 346.005 183.517 345.909C183.517 345.686 183.517 345.408 183.517 345.074C183.517 344.284 183.517 343.204 183.517 341.835C183.517 338.985 183.517 334.945 183.573 329.958C183.684 319.885 183.818 306.049 183.974 290.756C184.152 278.233 184.319 266.68 184.453 257.497L184.609 257.719L179.473 256.05L179.095 255.916L179.418 255.683L183.874 252.399V252.655L178.827 246.066C178.27 245.32 177.825 244.741 177.502 244.296C177.267 244.121 177.051 243.923 176.856 243.706Z" fill="#263238"/>
<path d="M126.626 343.838C126.578 343.751 126.54 343.657 126.515 343.56L126.247 342.736C126.002 341.968 125.657 340.911 125.223 339.575C124.32 336.837 122.995 332.897 121.257 327.999C120.388 325.573 119.441 322.901 118.416 320.052C117.295 317.012 116.328 313.917 115.52 310.78C113.783 303.567 112.433 296.265 111.476 288.908C110.073 278.734 109.171 269.14 108.614 260.892V260.769L108.692 260.691L113.147 256.417V256.762L108.937 253.568L108.769 253.434L108.892 253.278C112.078 248.948 114.673 245.487 116.5 242.971L118.583 240.189L119.14 239.476C119.204 239.392 119.275 239.314 119.352 239.242C119.31 239.337 119.258 239.426 119.196 239.51L118.684 240.266L116.679 243.116L109.226 253.523V253.234L113.459 256.395L113.671 256.551L113.482 256.751L109.026 261.059L109.104 260.858C109.694 269.084 110.63 278.668 112.022 288.83C112.983 296.165 114.314 303.446 116.01 310.646C116.857 313.956 117.8 317.035 118.84 319.885C119.842 322.757 120.778 325.45 121.624 327.866C123.295 332.763 124.576 336.77 125.412 339.509C125.835 340.889 126.136 341.968 126.337 342.703L126.548 343.549C126.587 343.641 126.613 343.739 126.626 343.838Z" fill="#263238"/>
<path opacity="0.3" d="M94.2653 396.554L116.188 405.146L117.647 400.26L125.088 407.072L126.425 395.24L119.552 382.44L95.8694 390.109L94.2653 396.554Z" fill="black"/>
<path d="M168.778 396.387L159.867 390.988L152.069 383.909C153.881 385.375 155.941 386.506 158.151 387.248C159.208 387.573 160.342 387.539 161.378 387.153C162.413 386.766 163.292 386.048 163.877 385.111C163.877 385.111 160.669 383.085 159.577 382.484C158.485 381.883 147.323 373.58 144.572 372.99C141.82 372.4 123.217 368.604 123.217 368.604L122.928 369.562L113.76 389.085L121.903 391.311C123.436 393.476 124.809 395.749 126.013 398.112C127.84 401.774 136.73 405.38 140.161 407.172C143.592 408.964 147.446 405.826 147.446 405.826C151.378 406.727 152.347 402.486 152.347 402.486C156.87 401.874 157.249 396.921 157.249 396.921C157.249 396.921 165.459 400.104 167.987 400.55C168.364 400.653 168.766 400.609 169.111 400.427C169.457 400.245 169.72 399.939 169.848 399.57C170.076 398.999 170.094 398.365 169.898 397.782C169.702 397.199 169.305 396.704 168.778 396.387Z" fill="#FFBF9D"/>
<path d="M157.249 396.932C155.431 396.379 153.69 395.597 152.069 394.606C150.343 393.773 148.778 392.643 147.446 391.267C147.546 391.144 149.674 392.591 152.347 394.083C154.053 394.903 155.692 395.856 157.249 396.932Z" fill="#FF9A6C"/>
<path d="M142.835 396.208C144.658 396.998 146.376 398.011 147.948 399.225C149.622 400.283 151.229 401.443 152.76 402.698C150.919 401.936 149.189 400.933 147.614 399.715C145.941 398.658 144.345 397.486 142.835 396.208Z" fill="#FF9A6C"/>
<path d="M139.304 399.982C139.416 399.882 141.12 401.306 143.426 402.854C144.871 403.725 146.219 404.747 147.447 405.903C145.899 405.23 144.437 404.375 143.092 403.354C141.623 402.485 140.337 401.34 139.304 399.982Z" fill="#FF9A6C"/>
<path d="M141.587 376.128C142.27 376.13 142.945 376.274 143.569 376.551C145.11 377.117 146.551 377.924 147.836 378.945C149.121 379.953 150.274 381.12 151.267 382.417C151.737 382.914 152.115 383.49 152.381 384.12C152.225 384.243 150.442 381.716 147.513 379.401C145.687 378.059 143.695 376.959 141.587 376.128Z" fill="#FF9A6C"/>
<path d="M55.7677 373.48C54.6038 372.759 53.6346 371.765 52.9451 370.583C52.2556 369.401 51.8669 368.068 51.8132 366.701C51.7424 362.835 51.9658 358.969 52.4816 355.136C54.0411 342.102 75.429 266.413 75.429 266.413L96.8949 325.406L89.5205 351.084L127.094 369.061L116.634 398.557C116.634 398.557 66.7179 380.303 55.7677 373.48Z" fill="#FF725E"/>
<path d="M216.455 257.007L250.988 322.511L251.912 323.858L289.519 304.68L301.906 329.702L251.21 360.412C248.434 362.064 245.129 362.589 241.977 361.878C238.825 361.168 236.065 359.277 234.267 356.594L211.899 323.202L205.884 295.786L216.455 257.007Z" fill="#FF725E"/>
<path d="M212.222 275.673C212.274 275.945 212.296 276.221 212.288 276.497C212.288 277.087 212.288 277.877 212.366 278.857C212.366 280.983 212.456 283.944 212.522 287.572C212.623 294.93 212.656 305.092 212.522 316.312C212.389 327.532 212.177 337.705 211.943 345.051C211.809 348.68 211.698 351.641 211.62 353.767C211.564 354.746 211.531 355.526 211.498 356.127C211.499 356.404 211.469 356.68 211.408 356.95C211.394 356.676 211.394 356.401 211.408 356.127C211.408 355.526 211.408 354.735 211.408 353.756C211.408 351.63 211.486 348.68 211.542 345.04C211.676 337.694 211.843 327.532 211.954 316.312C212.066 305.092 212.088 294.93 212.099 287.572C212.099 283.944 212.099 280.983 212.099 278.868C212.099 277.877 212.099 277.087 212.099 276.497C212.108 276.219 212.149 275.942 212.222 275.673Z" fill="#263238"/>
<path d="M83.7505 282.797C83.8558 283.01 83.9379 283.234 83.9956 283.465L84.5637 285.391C85.065 287.138 85.7445 289.554 86.58 292.503C88.262 298.514 90.5568 306.817 92.8961 316.045C95.2354 325.272 97.0846 333.709 98.2431 339.842C98.8335 342.914 99.2679 345.408 99.5353 347.122C99.6578 347.934 99.758 348.602 99.8249 349.114C99.8772 349.344 99.8996 349.58 99.8917 349.816C99.8154 349.594 99.7559 349.367 99.7135 349.137C99.6095 348.625 99.4758 347.968 99.3125 347.166C98.9449 345.386 98.4547 342.926 97.842 339.931C96.5721 333.821 94.6673 325.461 92.2723 316.189C89.8773 306.918 87.7051 298.647 86.1344 292.603C85.3658 289.643 84.742 287.205 84.2964 285.446C84.0959 284.645 83.9399 283.999 83.8174 283.498C83.7671 283.268 83.7447 283.033 83.7505 282.797Z" fill="#263238"/>
<path d="M68.2101 379.546L68.4552 379.613L69.1569 379.869L71.8639 380.882L81.9563 384.755L116.734 398.29L116.377 398.457L123.384 378.667L126.826 368.961L126.971 369.306L89.8319 351.363C84.837 349.706 79.4077 349.936 74.5708 352.008C73.2624 352.57 71.9998 353.232 70.7945 353.99L69.8699 354.591C69.7701 354.67 69.6617 354.737 69.5468 354.791C69.5468 354.791 69.6359 354.702 69.8365 354.546L70.7388 353.89C71.9196 353.079 73.1725 352.379 74.4816 351.797C76.5554 350.871 78.762 350.278 81.0205 350.038C84.0238 349.738 87.0568 350.056 89.9322 350.973L127.138 368.783L127.372 368.894L127.294 369.139C126.18 372.289 125.066 375.539 123.852 378.845L116.823 398.635L116.723 398.902L116.455 398.802L81.8894 385.078L71.8639 381.049L69.2015 379.936L68.5108 379.635L68.2101 379.546Z" fill="#263238"/>
<path d="M252.125 323.191C252.29 324.038 252.324 324.905 252.226 325.762C252.088 327.833 251.794 329.891 251.346 331.917C250.855 334.288 250.343 336.37 250.009 337.961C249.881 338.811 249.669 339.647 249.374 340.455C249.338 339.591 249.416 338.726 249.608 337.883C249.842 336.314 250.287 334.166 250.777 331.806C251.268 329.446 251.635 327.298 251.813 325.728C251.854 324.876 251.958 324.028 252.125 323.191Z" fill="#263238"/>
<path d="M252.124 324.771C251.756 326.817 251.146 328.813 250.308 330.715C249.658 332.687 248.869 334.61 247.946 336.47C248.318 334.421 248.927 332.422 249.762 330.515C250.416 328.548 251.205 326.629 252.124 324.771Z" fill="#263238"/>
<path d="M152.57 263.853C152.19 263.57 151.839 263.249 151.523 262.895L148.727 260.09L139.269 250.44H139.682C138.438 251.938 137.595 253.726 137.231 255.638C137.017 256.632 136.938 257.651 136.997 258.666V259.322L136.496 258.911C131.706 255.037 127.829 251.23 124.933 248.637C123.496 247.334 122.326 246.288 121.513 245.587C121.078 245.246 120.669 244.874 120.288 244.474C120.768 244.757 121.223 245.081 121.647 245.442C122.504 246.099 123.719 247.101 125.189 248.37C128.163 250.896 132.095 254.659 136.852 258.488L136.384 258.732C136.318 257.661 136.4 256.586 136.629 255.538C137.021 253.523 137.922 251.641 139.247 250.073L139.448 249.839L139.659 250.062L148.972 259.868L151.657 262.762C151.994 263.097 152.299 263.462 152.57 263.853Z" fill="#263238"/>
<path d="M165.235 242.738C165.269 243.033 165.269 243.332 165.235 243.628C165.235 244.207 165.235 245.053 165.113 246.11C164.886 248.982 164.42 251.83 163.72 254.625L163.542 255.326L163.208 254.681C162.248 252.822 161.012 251.118 159.543 249.628C159.12 249.205 158.696 248.804 158.273 248.437L158.741 248.281C157.907 252.123 156.794 255.898 155.41 259.578C154.864 260.97 154.385 262.072 154.04 262.817C153.883 263.211 153.682 263.584 153.438 263.931C153.536 263.515 153.67 263.109 153.839 262.717L155.042 259.378C156.341 255.688 157.416 251.922 158.262 248.103L158.373 247.635L158.73 247.947C159.164 248.314 159.61 248.737 160.044 249.171C161.557 250.701 162.82 252.459 163.787 254.38L163.208 254.525C163.933 251.76 164.469 248.948 164.812 246.11C165.079 243.973 165.157 242.738 165.235 242.738Z" fill="#263238"/>
<path d="M199.544 391.244L202.908 401.707L221.968 399.949L216.02 389.953L199.544 391.244Z" fill="#FF725E"/>
<path d="M199.545 391.244C199.545 391.244 199.913 391.189 200.659 391.099L204.001 390.777C206.886 390.498 211.041 390.109 215.987 389.664H216.154L216.232 389.797L222.203 399.815L222.437 400.216H221.98L221 400.305L202.92 401.907H202.731L202.675 401.74C201.65 398.479 200.86 395.808 200.325 393.949C200.069 393.103 199.868 392.413 199.712 391.867C199.631 391.64 199.571 391.405 199.534 391.166C199.534 391.166 199.645 391.445 199.824 391.934C200.002 392.424 200.258 393.181 200.559 394.038C201.194 395.908 202.063 398.49 203.11 401.562L202.876 401.407L220.944 399.67L221.924 399.581L221.702 400.015L215.787 389.997L216.032 390.131C211.208 390.487 207.12 390.743 204.213 390.921L200.793 391.111C200.38 391.18 199.963 391.224 199.545 391.244Z" fill="#263238"/>
<path d="M208.156 308.343H187.682V314.943H208.156V308.343Z" fill="#FF725E"/>
<path d="M208.156 314.943C208.144 314.78 208.144 314.616 208.156 314.453C208.156 314.097 208.156 313.663 208.156 313.14C208.156 311.938 208.09 310.324 208.045 308.342L208.234 308.532C203.366 308.532 195.981 308.632 187.76 308.632L188.05 308.342V311.682C188.05 312.795 188.05 313.908 188.05 314.91L187.715 314.631C193.552 314.631 198.621 314.709 202.275 314.765L206.586 314.843C207.121 314.838 207.657 314.864 208.19 314.921C207.702 314.974 207.21 314.996 206.719 314.987L202.475 315.065C198.833 315.121 193.664 315.188 187.715 315.199H187.437V314.921C187.437 313.874 187.437 312.795 187.437 311.693V308.353C188.016 307.775 187.593 308.187 187.727 308.064C195.959 308.064 203.322 308.064 208.201 308.164H208.402V308.353C208.402 310.379 208.324 312.027 208.301 313.262C208.293 313.825 208.245 314.387 208.156 314.943Z" fill="#263238"/>
<path opacity="0.3" d="M184.541 257.53L187.683 261.871C187.683 261.871 186.803 327.543 183.461 343.872L184.541 257.53Z" fill="black"/>
<mask id="mask0" mask-type="alpha" maskUnits="userSpaceOnUse" x="0" y="0" width="495" height="495">
<circle cx="247.5" cy="247.5" r="247.5" fill="#FFF2F6"/>
</mask>
<g mask="url(#mask0)">
<path d="M167.074 300.974H139.002V343.249H167.074V300.974Z" fill="#455A64"/>
<path d="M213.515 288.362H185.443V343.248H213.515V288.362Z" fill="#455A64"/>
<path d="M371.985 199.673L371.885 199.795L371.584 200.163C371.306 200.474 370.916 200.942 370.403 201.532L366.026 206.652L350.776 224.461V224.361C352.257 230.082 353.872 236.371 355.577 242.96L356.045 244.764H355.822L359.164 240.879C360.278 239.588 361.392 238.352 362.394 237.083C364.362 234.664 366.082 232.054 367.529 229.292C368.831 226.801 369.894 224.192 370.704 221.5C371.116 220.243 371.373 218.985 371.662 217.794C371.952 216.603 372.141 215.434 372.253 214.31C372.735 210.794 372.798 207.233 372.442 203.702C372.353 202.444 372.163 201.476 372.085 200.83C372.008 200.185 371.963 199.985 371.941 199.84L372.007 200.085C372.007 200.263 372.074 200.508 372.13 200.83C372.23 201.476 372.442 202.433 372.542 203.691C372.932 207.23 372.895 210.802 372.431 214.332C372.319 215.445 372.074 216.558 371.863 217.838C371.651 219.118 371.317 220.298 370.905 221.556C370.107 224.282 369.048 226.925 367.741 229.448C366.292 232.238 364.564 234.875 362.583 237.317C361.57 238.608 360.456 239.833 359.364 241.124L356.022 245.02L355.866 245.198L355.799 244.964L355.343 243.161C353.638 236.571 352.001 230.282 350.553 224.55V224.494C356.835 217.271 362.182 211.138 365.97 206.685L370.426 201.632L371.54 200.296L371.84 199.962L371.985 199.673Z" fill="#263238"/>
<path d="M334.523 167.393L334.423 167.504L334.145 167.849L333.031 169.174L328.731 174.205L313.592 191.814H313.536L294.655 189.899L292.828 189.699H292.583L292.75 189.51L296.092 185.67C297.206 184.423 298.231 183.154 299.333 181.974C301.434 179.695 303.759 177.632 306.273 175.819C308.546 174.177 310.97 172.757 313.514 171.578C314.695 170.999 315.887 170.565 317.012 170.109C318.137 169.652 319.24 169.307 320.354 168.996C323.735 168.028 327.221 167.475 330.736 167.348C331.972 167.259 332.964 167.348 333.588 167.348H334.334H334.59H333.588C332.941 167.348 331.983 167.348 330.747 167.415C327.246 167.58 323.776 168.155 320.409 169.129C319.295 169.408 318.248 169.831 317.068 170.242C315.887 170.654 314.762 171.144 313.592 171.734C311.065 172.907 308.659 174.324 306.407 175.964C303.888 177.793 301.563 179.874 299.467 182.175C298.353 183.343 297.328 184.612 296.226 185.859C295.123 187.106 293.998 188.408 292.884 189.699L292.806 189.488L294.633 189.677L313.492 191.669H313.392L328.53 174.227L332.897 169.207L334.011 167.872L334.323 167.527C334.479 167.437 334.512 167.393 334.523 167.393Z" fill="#263238"/>
<path d="M305.116 241.446C304.434 241.473 303.79 241.765 303.321 242.261C302.852 242.757 302.597 243.417 302.61 244.099C302.624 244.781 302.904 245.431 303.391 245.908C303.879 246.386 304.534 246.654 305.217 246.654C305.899 246.654 306.555 246.386 307.042 245.908C307.529 245.431 307.81 244.781 307.823 244.099C307.836 243.417 307.581 242.757 307.112 242.261C306.644 241.765 305.999 241.473 305.317 241.446" fill="#FF725E"/>
<path d="M409.024 118.896L409.492 119.408C409.863 119.979 410.138 120.607 410.305 121.267C410.819 123.833 410.906 126.465 410.561 129.059C409.882 135.86 407.498 145.61 402.585 156.964C399.839 163.163 396.575 169.121 392.827 174.773C390.699 177.919 388.397 180.944 385.932 183.833L378.034 193.016L342.387 234.334L342.209 234.556L341.986 234.367L323.283 218.272L304.558 202.121L304.335 201.932L304.524 201.72L340.171 160.425L348.124 151.276L351.901 146.901C353.193 145.477 354.541 144.197 355.9 142.95C360.919 138.389 366.361 134.315 372.152 130.784C376.921 127.942 381.87 125.414 386.968 123.215C390.774 121.519 394.702 120.113 398.72 119.008C401.249 118.258 403.881 117.916 406.518 117.995C406.963 118.084 407.364 118.106 407.687 118.206C407.96 118.291 408.228 118.391 408.489 118.507L409.069 118.896L408.467 118.562C408.207 118.451 407.939 118.358 407.665 118.284C407.297 118.207 406.925 118.147 406.551 118.106C403.939 118.074 401.338 118.45 398.843 119.219C394.833 120.35 390.912 121.775 387.113 123.482C382.042 125.714 377.116 128.261 372.364 131.107C366.611 134.648 361.207 138.725 356.223 143.284C354.886 144.519 353.527 145.811 352.279 147.202L348.503 151.587L340.605 160.759L304.959 202.088V201.687L323.617 217.793L342.354 233.933H341.942L377.588 192.649L385.497 183.488C387.958 180.617 390.257 177.611 392.382 174.483C396.131 168.862 399.406 162.938 402.173 156.774C407.119 145.477 409.559 135.759 410.294 129.003C410.656 126.414 410.603 123.784 410.138 121.212C409.985 120.556 409.729 119.929 409.381 119.353C409.158 119.097 409.024 118.896 409.024 118.896Z" fill="#263238"/>
<g filter="url(#filter0_d)">
<path d="M435.994 78.4141H84.0962V369.484H435.994V78.4141Z" fill="#FAFAFA"/>
<path d="M395.547 156.997C395.547 157.153 332.464 157.287 254.654 157.287C176.844 157.287 113.761 157.153 113.761 156.997C113.761 156.841 176.833 156.708 254.654 156.708C332.475 156.708 395.547 156.83 395.547 156.997Z" fill="#E0E0E0"/>
<path d="M395.547 188.086C395.547 188.242 332.464 188.375 254.654 188.375C176.844 188.375 113.761 188.242 113.761 188.086C113.761 187.93 176.833 187.796 254.654 187.796C332.475 187.796 395.547 187.93 395.547 188.086Z" fill="#E0E0E0"/>
<path d="M395.547 219.173C395.547 219.34 332.464 219.463 254.654 219.463C176.844 219.463 113.761 219.34 113.761 219.173C113.761 219.006 176.833 218.884 254.654 218.884C332.475 218.884 395.547 219.018 395.547 219.173Z" fill="#E0E0E0"/>
<path d="M395.547 250.262C395.547 250.429 332.464 250.551 254.654 250.551C176.844 250.551 113.761 250.429 113.761 250.262C113.761 250.095 176.833 249.973 254.654 249.973C332.475 249.973 395.547 250.073 395.547 250.262Z" fill="#E0E0E0"/>
<path d="M395.547 281.362C395.547 281.518 332.464 281.651 254.654 281.651C176.844 281.651 113.761 281.518 113.761 281.362C113.761 281.206 176.833 281.073 254.654 281.073C332.475 281.073 395.547 281.239 395.547 281.362Z" fill="#E0E0E0"/>
<path d="M395.547 312.405C395.547 312.561 332.464 312.695 254.654 312.695C176.844 312.695 113.761 312.605 113.761 312.405C113.761 312.205 176.833 312.116 254.654 312.116C332.475 312.116 395.547 312.294 395.547 312.405Z" fill="#E0E0E0"/>
<path d="M314.852 252.922H286.78V343.237H314.852V252.922Z" fill="#455A64"/>
<path d="M367.865 223.091H339.793V343.248H367.865V223.091Z" fill="#455A64"/>
<path d="M261.648 272.39H233.577V343.248H261.648V272.39Z" fill="#455A64"/>
<path d="M436.956 73.0933H82.7967C77.4381 73.0933 73.0941 77.4338 73.0941 82.7882V84.8474C73.0941 90.2017 77.4381 94.5423 82.7967 94.5423H436.956C442.314 94.5423 446.658 90.2017 446.658 84.8474V82.7882C446.658 77.4338 442.314 73.0933 436.956 73.0933Z" fill="#FD3E72"/>
<path d="M398.108 343.249H396.816H393.018L378.447 343.304L324.866 343.393L148.059 343.572H112.836V343.282C112.836 282.464 112.903 228.724 112.925 190.178C112.925 170.922 112.992 155.461 113.014 144.798C113.014 139.489 113.014 135.37 113.07 132.554C113.07 131.174 113.07 130.117 113.07 129.393C113.07 128.67 113.07 128.28 113.07 128.28C113.07 128.28 113.07 128.636 113.07 129.393C113.07 130.15 113.07 131.174 113.07 132.554C113.07 135.359 113.07 139.478 113.126 144.798C113.126 155.461 113.126 170.922 113.215 190.178C113.215 228.724 113.215 282.464 113.304 343.282L113.025 342.993H148.059L324.866 343.071L378.447 343.171H393.018H396.816L398.108 343.249Z" fill="#263238"/>
<path d="M299.924 245.821C299.924 245.821 299.768 245.988 299.468 246.266L298.109 247.524L292.851 252.299C288.25 256.439 281.611 262.417 273.412 269.819L208.803 327.699L208.591 327.877L208.402 327.676L205.962 325.194L174.192 292.681H174.56L130.403 330.281L117.704 341.022L114.362 343.86L113.482 344.584L113.181 344.818C113.269 344.724 113.362 344.635 113.46 344.551L114.306 343.794L117.648 340.889L130.236 330.036L174.215 292.369L174.404 292.214L174.582 292.392L206.386 324.871L208.814 327.365H208.413L273.134 269.585L292.706 252.199L298.042 247.501L299.434 246.288C299.746 245.954 299.924 245.821 299.924 245.821Z" fill="#FF725E"/>
<path d="M340.673 217.193L306.842 203.713C295.993 204.67 292.673 216.324 294.778 223.749C292.264 223.066 289.598 223.202 287.167 224.137C284.735 225.071 282.665 226.756 281.257 228.946C279.849 231.136 279.176 233.717 279.336 236.315C279.496 238.914 280.48 241.393 282.146 243.394C280.695 243.865 279.353 244.621 278.198 245.616C277.043 246.612 276.098 247.829 275.42 249.194C274.741 250.559 274.342 252.046 274.246 253.567C274.15 255.089 274.359 256.614 274.861 258.054C277.156 263.764 284.886 266.546 290.256 263.619C293.843 261.682 296.249 257.842 300.092 256.518C303.701 255.282 307.622 256.518 311.41 256.907C320.845 257.764 330.224 252.377 335.438 244.474C340.651 236.571 342.055 226.554 340.673 217.193Z" fill="#FFC8D7"/>
<g filter="url(#filter1_d)">
<path d="M319.019 208.889C315.8 210.598 312.953 212.928 310.642 215.745C310.313 216.149 310.12 216.647 310.091 217.167C310.062 217.687 310.198 218.202 310.479 218.641C310.761 219.079 311.174 219.417 311.659 219.606C312.145 219.796 312.678 219.828 313.182 219.697H313.238C310.216 222.979 307.414 226.455 304.85 230.104C304.487 230.614 304.29 231.223 304.286 231.848C304.283 232.474 304.472 233.085 304.829 233.599C305.186 234.113 305.693 234.504 306.281 234.719C306.869 234.934 307.509 234.963 308.114 234.801C319.037 231.913 328.539 225.157 334.848 215.79L319.019 208.889Z" fill="#FD3E72"/>
<path opacity="0.3" d="M318.25 213.263C317.68 213.531 317.169 213.909 316.747 214.376C316.543 214.609 316.411 214.895 316.365 215.201C316.32 215.507 316.363 215.819 316.49 216.101C316.936 216.914 318.206 217.003 318.618 217.827C319.03 218.65 318.239 219.674 317.504 220.331L315.154 222.39C314.574 222.891 313.939 223.581 314.162 224.316C314.385 225.05 315.499 225.273 316.39 225.173C318.346 224.934 320.215 224.224 321.836 223.103C323.456 221.983 324.78 220.485 325.692 218.739L318.25 213.263Z" fill="black"/>
<path d="M371.987 199.672C371.987 199.672 371.987 199.784 371.987 199.906C373.231 206.653 372.944 213.592 371.147 220.213C369.35 226.834 366.09 232.968 361.605 238.163L355.924 244.763L350.655 224.349L371.987 199.672Z" fill="#FD3E72"/>
<path d="M334.524 167.393H334.29C327.522 167.158 320.788 168.444 314.583 171.156C308.379 173.869 302.863 177.939 298.443 183.065L292.818 189.577L313.515 191.736L334.524 167.393Z" fill="#FD3E72"/>
<path d="M409.026 118.896C406.052 116.347 393.987 119.308 377.835 127.801C368.334 132.76 359.686 139.2 352.214 146.879L304.682 201.965L319.163 214.476L327.585 221.722L342.066 234.245L385.332 184.201C389.541 179.323 393.271 174.052 396.472 168.462C399.728 162.878 402.53 157.042 404.848 151.009C411.187 134.056 411.989 121.49 409.026 118.93" fill="#F5F5F5"/>
<path d="M349.552 224.917C349.552 224.917 341.119 217.905 330.826 209.145C320.533 200.385 312.223 193.228 312.268 193.172C312.312 193.116 320.7 200.184 330.993 208.944C341.286 217.704 349.596 224.861 349.552 224.917Z" fill="#263238"/>
<path d="M347.935 226.442C347.935 226.442 339.514 219.429 329.221 210.67C318.928 201.91 310.618 194.752 310.662 194.708C310.707 194.663 319.095 201.709 329.388 210.469C339.681 219.229 347.991 226.386 347.935 226.442Z" fill="#263238"/>
<path d="M346.455 228.223C346.399 228.223 338.022 221.221 327.729 212.462C317.437 203.702 309.138 196.545 309.138 196.489C309.138 196.433 317.57 203.49 327.863 212.261C338.156 221.032 346.5 228.167 346.455 228.223Z" fill="#263238"/>
<path d="M344.961 230.037C344.961 230.093 336.529 223.025 326.236 214.265C315.943 205.505 307.633 198.359 307.677 198.303C307.722 198.248 316.11 205.305 326.403 214.064C336.696 222.824 345.006 229.959 344.961 230.037Z" fill="#263238"/>
<path d="M343.469 231.796C343.469 231.796 335.036 224.795 324.743 216.035C314.45 207.275 306.14 200.118 306.196 200.062C306.252 200.006 314.618 207.074 324.911 215.834C335.203 224.594 343.514 231.751 343.469 231.796Z" fill="#263238"/>
<path d="M353.295 183.633C353.25 183.74 353.19 183.841 353.117 183.933C352.995 184.122 352.772 184.378 352.516 184.712C351.981 185.38 351.19 186.337 350.199 187.506C348.216 189.832 345.442 193.071 342.401 196.533C339.36 199.995 336.497 203.212 334.447 205.438L332.019 208.12C331.74 208.421 331.518 208.666 331.339 208.844C331.265 208.932 331.183 209.014 331.094 209.089C331.157 208.99 331.228 208.897 331.306 208.81L331.941 208.053L334.314 205.315L342.2 196.333L350.098 187.35L352.482 184.612C352.75 184.289 352.983 184.044 353.117 183.866C353.169 183.783 353.229 183.705 353.295 183.633Z" fill="#263238"/>
<path d="M371.988 199.672C371.988 199.672 363.577 192.615 353.318 183.777C343.058 174.94 334.759 167.705 334.815 167.705C334.871 167.705 343.225 174.761 353.485 183.599C363.744 192.437 372.032 199.617 371.988 199.672Z" fill="#263238"/>
<path d="M340.617 204.436C340.617 204.436 340.762 204.436 340.996 204.436C341.325 204.544 341.61 204.755 341.809 205.037C341.966 205.25 342.063 205.5 342.09 205.762C342.118 206.024 342.075 206.289 341.965 206.529C341.84 206.832 341.624 207.09 341.346 207.266C341.069 207.441 340.744 207.527 340.416 207.511C340.088 207.496 339.773 207.379 339.514 207.177C339.255 206.975 339.064 206.698 338.969 206.384C338.883 206.135 338.866 205.867 338.919 205.609C338.972 205.351 339.093 205.111 339.269 204.915C339.493 204.649 339.799 204.465 340.138 204.392C340.258 204.356 340.386 204.356 340.506 204.392C340.506 204.392 340.372 204.392 340.161 204.492C339.861 204.591 339.597 204.777 339.403 205.026C339.263 205.205 339.17 205.415 339.133 205.639C339.096 205.863 339.116 206.092 339.191 206.306C339.288 206.564 339.455 206.789 339.674 206.956C339.893 207.124 340.154 207.226 340.428 207.253C340.703 207.254 340.972 207.177 341.205 207.031C341.438 206.886 341.624 206.677 341.742 206.429C341.84 206.224 341.884 205.998 341.868 205.772C341.853 205.545 341.778 205.327 341.653 205.138C341.486 204.868 341.242 204.655 340.952 204.525C340.751 204.436 340.617 204.436 340.617 204.436Z" fill="#263238"/>
<path d="M350.01 193.918C350.01 193.918 350.143 193.918 350.377 193.918C350.584 193.983 350.776 194.091 350.939 194.234C351.102 194.377 351.234 194.553 351.325 194.75C351.416 194.947 351.465 195.161 351.469 195.378C351.473 195.595 351.431 195.811 351.346 196.011C351.221 196.314 351.005 196.571 350.728 196.747C350.45 196.923 350.125 197.009 349.797 196.993C349.469 196.977 349.154 196.86 348.895 196.659C348.636 196.457 348.445 196.18 348.35 195.866C348.263 195.617 348.246 195.349 348.298 195.09C348.351 194.832 348.473 194.592 348.651 194.397C348.874 194.131 349.18 193.947 349.519 193.874C349.643 193.837 349.775 193.837 349.898 193.874C349.898 193.874 349.765 193.874 349.553 193.974C349.253 194.073 348.989 194.259 348.795 194.508C348.65 194.684 348.554 194.894 348.515 195.119C348.475 195.343 348.495 195.574 348.573 195.788C348.658 196.053 348.823 196.286 349.044 196.455C349.265 196.624 349.533 196.722 349.811 196.736C350.09 196.749 350.365 196.677 350.602 196.53C350.838 196.382 351.024 196.166 351.135 195.91C351.231 195.705 351.273 195.478 351.255 195.252C351.237 195.025 351.161 194.808 351.034 194.619C350.869 194.352 350.629 194.14 350.344 194.007C350.132 193.951 349.998 193.94 350.01 193.918Z" fill="#263238"/>
<path opacity="0.3" d="M314.061 191.079C314.061 191.079 328.22 175.407 334.525 167.371C329.746 169.775 324.332 172.569 320.511 176.275C316.59 180.234 314.29 185.514 314.061 191.079Z" fill="black"/>
<path d="M385.169 166.767C390.921 162.152 391.84 153.752 387.222 148.005C382.603 142.257 374.197 141.339 368.445 145.953C362.693 150.568 361.774 158.968 366.392 164.715C371.01 170.463 379.417 171.381 385.169 166.767Z" fill="white"/>
<path d="M390.056 158.043C390.088 156.951 390.047 155.858 389.934 154.771C389.539 151.805 388.153 149.059 386.002 146.979C384.427 145.457 382.496 144.354 380.384 143.771C378.273 143.187 376.049 143.142 373.915 143.64C372.683 143.91 371.499 144.368 370.406 144.998C369.257 145.636 368.216 146.451 367.321 147.413C365.409 149.428 364.19 152 363.844 154.755C363.497 157.51 364.04 160.304 365.393 162.729C366.023 163.88 366.832 164.925 367.788 165.823C368.686 166.722 369.72 167.473 370.852 168.05C372.935 169.116 375.265 169.612 377.602 169.485C379.641 169.375 381.625 168.788 383.395 167.771C385.991 166.293 388.012 163.983 389.132 161.215C389.51 160.191 389.819 159.142 390.056 158.076C390.054 158.361 390.024 158.644 389.967 158.922C389.927 159.268 389.86 159.611 389.767 159.946C389.657 160.405 389.516 160.855 389.343 161.293C388.425 163.702 386.833 165.797 384.758 167.328C382.682 168.859 380.21 169.763 377.636 169.931C375.205 170.092 372.776 169.592 370.607 168.484C368.207 167.26 366.223 165.355 364.903 163.007C363.478 160.481 362.903 157.563 363.264 154.685C363.625 151.807 364.903 149.121 366.908 147.024C367.842 146.019 368.933 145.173 370.139 144.519C371.261 143.866 372.479 143.393 373.748 143.117C376.123 142.59 378.595 142.705 380.911 143.451C382.921 144.105 384.749 145.222 386.247 146.712C388.422 148.868 389.791 151.705 390.123 154.748C390.182 155.217 390.204 155.69 390.19 156.162C390.198 156.508 390.179 156.854 390.134 157.197C390.138 157.481 390.112 157.765 390.056 158.043Z" fill="#263238"/>
<path d="M409.024 118.896C406.05 116.347 393.986 119.308 377.834 127.801L404.847 151.009C411.185 134.056 411.988 121.49 409.024 118.93" fill="#FD3E72"/>
<path d="M377.881 166.303C377.665 165.428 377.545 164.532 377.524 163.631C377.391 161.973 377.29 159.691 377.235 157.153C377.179 154.615 377.157 152.556 377.123 150.686C377.05 149.789 377.068 148.886 377.179 147.992C377.4 148.866 377.52 149.763 377.535 150.664C377.669 152.322 377.769 154.615 377.825 157.142C377.881 159.669 377.903 161.739 377.936 163.62C378.01 164.514 377.991 165.413 377.881 166.303Z" fill="#263238"/>
<path d="M374.861 163.754C374.467 161.827 374.261 159.866 374.248 157.899C374.055 155.941 374.055 153.969 374.248 152.011C374.647 153.937 374.856 155.898 374.872 157.866C375.065 159.824 375.061 161.796 374.861 163.754Z" fill="#263238"/>
</g>
<path d="M314.051 269.607C312.82 269.204 311.501 269.155 310.244 269.466C308.987 269.777 307.843 270.436 306.943 271.366C306.209 272.222 305.77 273.291 305.691 274.416C305.613 275.541 305.9 276.661 306.509 277.61C305.445 278.093 304.547 278.879 303.927 279.868C303.307 280.858 302.992 282.008 303.022 283.176C303.08 284.33 303.413 285.454 303.995 286.453C304.576 287.453 305.389 288.298 306.364 288.919C308.368 290.129 310.76 290.528 313.048 290.032C315.348 289.57 317.427 288.353 318.955 286.576C320.484 284.798 321.375 282.561 321.486 280.22C321.597 277.878 320.923 275.567 319.57 273.653C318.217 271.738 316.262 270.33 314.017 269.652L314.051 269.607Z" fill="#FFA2BB"/>
<path d="M265.282 261.204C265.284 262.393 264.933 263.557 264.273 264.547C263.613 265.537 262.673 266.309 261.574 266.766C260.474 267.222 259.264 267.342 258.096 267.11C256.928 266.879 255.855 266.306 255.013 265.465C254.171 264.624 253.598 263.552 253.366 262.385C253.134 261.218 253.254 260.008 253.711 258.909C254.168 257.811 254.941 256.872 255.931 256.212C256.922 255.553 258.087 255.202 259.278 255.204C260.87 255.204 262.397 255.836 263.523 256.961C264.649 258.086 265.282 259.612 265.282 261.204Z" fill="#FFA2BB"/>
</g>
<path d="M127.062 144.631C124.75 144.924 122.417 145.02 120.088 144.92C117.749 145.023 115.405 144.926 113.082 144.631C115.405 144.338 117.748 144.238 120.088 144.33C122.417 144.24 124.749 144.34 127.062 144.631Z" fill="#263238"/>
<path d="M127.062 174.217C124.749 174.503 122.417 174.6 120.088 174.506C117.749 174.602 115.405 174.505 113.082 174.217C115.39 173.924 117.719 173.827 120.044 173.927C122.387 173.824 124.735 173.921 127.062 174.217Z" fill="#263238"/>
<path d="M127.06 203.791C124.748 204.077 122.415 204.174 120.087 204.08C117.762 204.174 115.434 204.077 113.125 203.791C115.433 203.498 117.762 203.401 120.087 203.501C122.415 203.401 124.748 203.498 127.06 203.791Z" fill="#263238"/>
<path d="M127.062 233.376C124.75 233.669 122.417 233.766 120.088 233.666C117.749 233.768 115.405 233.672 113.082 233.376C115.39 233.09 117.719 232.993 120.044 233.087C122.387 232.991 124.734 233.088 127.062 233.376Z" fill="#263238"/>
<path d="M127.06 262.94C124.748 263.233 122.415 263.329 120.087 263.229C117.762 263.329 115.433 263.232 113.125 262.94C115.434 262.654 117.762 262.557 120.087 262.65C122.415 262.557 124.748 262.653 127.06 262.94Z" fill="#263238"/>
<path d="M127.06 292.526C124.748 292.812 122.415 292.909 120.087 292.815C117.762 292.909 115.434 292.812 113.125 292.526C115.433 292.233 117.762 292.136 120.087 292.236C122.415 292.136 124.748 292.233 127.06 292.526Z" fill="#263238"/>
<path d="M328.074 304.769C328.074 304.769 331.416 306.127 329.645 309.222C327.874 312.316 325.601 311.314 325.601 311.314C325.601 311.314 326.415 314.653 322.638 316.379C322.734 317.345 322.58 318.319 322.189 319.208C321.799 320.097 321.186 320.87 320.41 321.454L318.294 322.567L316.935 319.896C316.935 319.896 308.937 319.172 307.734 315.989L307.678 314.331C307.251 314.119 306.898 313.784 306.666 313.369C306.433 312.954 306.332 312.478 306.375 312.004C306.631 310.446 306.53 310.413 309.538 309.388C312.546 308.364 318.929 309.043 318.929 309.043C318.929 309.043 315.509 307.741 315.587 305.971C315.665 304.202 317.013 303.077 320.689 303.333C323.194 303.556 325.669 304.037 328.074 304.769Z" fill="#FFA68A"/>
<path d="M97.1501 491.768L97.5512 431.828L105.995 409.968L106.006 404.068L201.338 402.477V409.344L212.277 436.514L212.868 491.768H157.794L153.204 466.812L152.135 491.768H97.1501Z" fill="#263238"/>
<path d="M133.5 143.217C133.765 143.326 134.037 143.419 134.313 143.496C135.045 143.795 135.67 144.306 136.107 144.965L136.251 145.176L136.407 144.965C137.798 143.005 139.665 141.431 141.832 140.39C143.224 139.714 144.742 139.335 146.288 139.277C147.995 139.244 149.677 139.687 151.145 140.557C152.309 141.221 153.316 142.129 154.097 143.217C154.799 144.233 155.249 145.4 155.411 146.623V146.979L155.757 146.879C157.345 146.422 159.048 146.593 160.513 147.358C161.675 147.963 162.618 148.916 163.209 150.085C163.694 151.133 163.959 152.27 163.989 153.424C164.088 153.123 164.129 152.806 164.111 152.489C164.107 151.594 163.913 150.711 163.543 149.896C162.972 148.626 162.013 147.57 160.803 146.879C159.228 146.004 157.371 145.784 155.634 146.267L156.024 146.523C155.861 145.193 155.38 143.921 154.62 142.817C153.684 141.485 152.434 140.404 150.981 139.668C149.528 138.932 147.917 138.565 146.288 138.598C144.644 138.681 143.036 139.118 141.576 139.878C139.349 140.99 137.461 142.677 136.107 144.764H136.407C135.905 144.072 135.188 143.564 134.369 143.317C134.092 143.211 133.793 143.176 133.5 143.217Z" fill="#455A64"/>
<path opacity="0.3" d="M94.2653 396.554L116.188 405.146L117.647 400.26L125.088 407.072L126.425 395.24L119.552 382.44L95.8694 390.109L94.2653 396.554Z" fill="black"/>
<path d="M208.156 308.343H187.682V314.943H208.156V308.343Z" fill="#FD3E72"/>
<path d="M285.654 312.216L290.633 309.177C290.633 309.177 297.15 303.378 298.932 302.12C300.715 300.862 307.554 297.768 308.512 297.846C309.47 297.924 318.894 297.334 321.122 296.299C323.35 295.264 325.779 293.883 325.779 293.883C326.24 294.445 326.512 295.138 326.556 295.864C326.6 296.589 326.414 297.31 326.024 297.924C324.676 300.239 317.803 304.602 317.803 304.602L320.376 321.41C320.376 321.41 313.971 326.463 309.983 326.797C305.995 327.131 302.185 326.341 301.071 326.697C299.957 327.053 297.139 328.033 297.139 328.033L285.654 312.216Z" fill="#FFA68A"/>
<path d="M303.466 313.328L347.167 284.366L349.651 288.006L306.352 316.846L303.466 313.328Z" fill="#263238"/>
<path d="M328.074 304.769C328.074 304.769 327.606 304.669 326.748 304.469C325.89 304.268 324.631 303.99 323.005 303.756C322.1 303.623 321.189 303.538 320.276 303.5C319.233 303.42 318.186 303.56 317.201 303.912C316.691 304.112 316.268 304.487 316.009 304.97C315.88 305.219 315.806 305.492 315.79 305.773C315.775 306.053 315.819 306.333 315.92 306.595C316.238 307.128 316.682 307.575 317.213 307.897C317.779 308.262 318.38 308.571 319.006 308.821L320.532 309.433L318.895 309.3C316.285 309.01 313.651 309.01 311.041 309.3C310.353 309.408 309.677 309.587 309.025 309.834C308.354 310.028 307.713 310.312 307.12 310.68C306.893 310.891 306.757 311.182 306.741 311.492L306.652 312.038C306.63 312.196 306.63 312.358 306.652 312.516C306.708 312.84 306.837 313.148 307.03 313.414C307.223 313.68 307.475 313.899 307.766 314.052L307.911 314.141V314.308C307.911 314.82 307.911 315.421 307.967 315.956V315.867C308.034 315.978 308.1 316.1 308.167 316.234C308.628 316.889 309.249 317.414 309.972 317.759C310.684 318.13 311.43 318.432 312.2 318.66C313.727 319.115 315.293 319.428 316.878 319.595H317.034L317.101 319.729C317.569 320.619 318.015 321.488 318.449 322.345L318.093 322.222L320.209 321.109C320.95 320.556 321.534 319.82 321.905 318.973C322.276 318.126 322.421 317.198 322.326 316.278V316.1L322.47 316.034C323.46 315.611 324.293 314.892 324.854 313.974C325.329 313.142 325.499 312.169 325.333 311.225L325.266 310.88L325.612 311.003C325.951 311.108 326.307 311.146 326.661 311.113C327.015 311.081 327.358 310.979 327.673 310.813C328.248 310.495 328.743 310.05 329.121 309.511C329.461 309.048 329.724 308.533 329.9 307.986C330.018 307.527 329.999 307.043 329.845 306.595C329.592 305.973 329.157 305.441 328.597 305.07C328.218 304.803 327.996 304.702 328.007 304.68C328.242 304.734 328.465 304.832 328.664 304.97C329.277 305.326 329.761 305.868 330.045 306.517C330.236 307.002 330.275 307.534 330.157 308.042C329.994 308.632 329.73 309.189 329.377 309.689C328.983 310.281 328.457 310.772 327.84 311.125C327.481 311.329 327.084 311.457 326.674 311.499C326.263 311.541 325.848 311.497 325.456 311.37L325.723 311.136C325.932 312.182 325.758 313.268 325.233 314.197C324.635 315.186 323.743 315.964 322.682 316.423L322.816 316.178C322.909 317.154 322.771 318.137 322.415 319.05C322.033 320.032 321.375 320.882 320.521 321.499L318.404 322.612L318.159 322.734L318.037 322.489L316.678 319.885L316.901 320.03C315.275 319.868 313.667 319.555 312.099 319.095C311.277 318.853 310.48 318.536 309.716 318.148C308.903 317.75 308.209 317.148 307.699 316.401L307.454 315.945V315.889C307.454 315.321 307.454 314.776 307.454 314.23L307.61 314.486C307.226 314.292 306.893 314.011 306.638 313.665C306.383 313.319 306.212 312.918 306.14 312.494C306.112 312.283 306.112 312.07 306.14 311.86L306.229 311.292C306.281 310.863 306.486 310.467 306.808 310.179C307.453 309.767 308.155 309.452 308.891 309.244C309.574 308.982 310.284 308.795 311.008 308.687C313.661 308.38 316.341 308.38 318.995 308.687L318.883 309.166C318.221 308.901 317.59 308.566 317.001 308.164C316.399 307.797 315.904 307.279 315.564 306.662C315.45 306.348 315.4 306.015 315.415 305.682C315.43 305.349 315.511 305.022 315.653 304.72C315.795 304.419 315.995 304.148 316.241 303.923C316.488 303.698 316.776 303.525 317.09 303.411C318.135 303.055 319.243 302.922 320.343 303.022C321.258 303.083 322.169 303.195 323.072 303.356C324.335 303.571 325.584 303.857 326.815 304.213L327.773 304.513C327.886 304.583 327.987 304.669 328.074 304.769Z" fill="#EB9275"/>
<path d="M321.657 316.424C319.432 315.529 317.127 314.847 314.773 314.387C312.386 314.133 309.981 314.099 307.588 314.287C308.243 313.984 308.95 313.807 309.671 313.764C313.132 313.313 316.65 313.849 319.819 315.311C320.493 315.569 321.116 315.946 321.657 316.424Z" fill="#EB9275"/>
<path d="M325.421 311.493C325.321 311.615 323.851 310.647 321.745 310.09C319.64 309.534 317.891 309.367 317.902 309.189C319.246 308.947 320.63 309.066 321.912 309.534C323.26 309.798 324.489 310.484 325.421 311.493Z" fill="#EB9275"/>
<path d="M134.803 142.416C135.52 141.039 136.646 139.918 138.027 139.206C139.407 138.495 140.974 138.228 142.512 138.442C144.315 137.032 146.539 136.266 148.828 136.266C151.118 136.266 153.341 137.032 155.144 138.442C156.485 137.609 158.02 137.137 159.598 137.074C161.176 137.011 162.743 137.358 164.146 138.082C165.55 138.805 166.741 139.881 167.604 141.202C168.467 142.524 168.971 144.047 169.069 145.621C170.644 145.338 172.268 145.558 173.711 146.25C175.154 146.941 176.343 148.069 177.108 149.473C177.874 150.877 178.177 152.486 177.976 154.073C177.775 155.659 177.078 157.142 175.986 158.311C177.693 158.857 179.14 160.009 180.055 161.55C180.969 163.09 181.286 164.911 180.948 166.67C180.609 168.428 179.637 170.002 178.216 171.093C176.795 172.184 175.023 172.717 173.235 172.591L136.341 151.009C135.221 149.915 134.471 148.499 134.195 146.958C133.92 145.418 134.132 143.83 134.803 142.416Z" fill="#5B5863"/>
<path d="M174.282 173.604C173.494 165.834 169.807 158.646 163.955 153.469C158.103 148.292 150.515 145.506 142.701 145.666H141.097C123.753 147.08 115.231 162.552 117.08 179.838L120.79 237.54L123.318 244.764L153.183 282.163L160.702 248.47L160.847 232.82C160.847 232.82 177.49 229.893 177.345 213.208C177.289 205.16 175.808 188.586 174.282 173.604Z" fill="#FFA68A"/>
<path d="M160.835 232.853C153.134 232.969 145.56 230.888 139.002 226.854C139.002 226.854 144.36 238.775 160.824 236.983L160.835 232.853Z" fill="#F99778"/>
<path d="M172.521 165.991C172.521 165.991 167.909 155.64 162.818 153.302C156.658 150.475 154.163 157.22 148.337 155.718C142.511 154.215 136.607 151.51 130.759 156.118C124.354 161.172 127.417 164.555 127.228 171.957C126.214 202.01 120.911 210.581 119.062 196.445C118.851 194.909 114.528 193.763 113.76 187.24C112.757 178.769 112.223 168.485 113.994 162.429C115.475 157.32 118.305 153.759 123.407 149.785C131.483 143.518 142.734 143.106 150.387 143.774C158.039 144.442 172.944 152.901 172.521 165.991Z" fill="#5B5863"/>
<path d="M120.1 196.01C120.068 195.398 119.912 194.799 119.642 194.249C119.371 193.699 118.991 193.21 118.526 192.811C118.06 192.412 117.518 192.112 116.932 191.929C116.347 191.747 115.73 191.685 115.12 191.747C112.012 192.104 108.592 193.973 108.927 200.363C109.528 211.749 120.846 208.8 120.846 208.477C120.846 208.154 120.389 200.774 120.1 196.01Z" fill="#FFA68A"/>
<path d="M118.149 204.325C118.149 204.325 117.948 204.47 117.625 204.637C117.164 204.863 116.633 204.903 116.143 204.748C114.918 204.37 113.804 202.522 113.637 200.463C113.553 199.488 113.69 198.506 114.038 197.591C114.129 197.231 114.305 196.897 114.551 196.619C114.797 196.34 115.106 196.124 115.453 195.988C115.679 195.916 115.923 195.926 116.143 196.015C116.363 196.105 116.544 196.269 116.656 196.478C116.823 196.79 116.767 197.012 116.823 197.035C116.879 197.057 117.057 196.823 116.945 196.367C116.867 196.087 116.694 195.843 116.455 195.677C116.294 195.566 116.113 195.489 115.922 195.449C115.731 195.408 115.533 195.407 115.341 195.443C114.88 195.562 114.455 195.795 114.109 196.122C113.762 196.449 113.504 196.859 113.359 197.313C112.925 198.326 112.749 199.432 112.846 200.53C113.035 202.823 114.328 204.904 115.999 205.294C116.31 205.366 116.634 205.367 116.946 205.298C117.259 205.229 117.552 205.09 117.803 204.893C118.137 204.592 118.182 204.336 118.149 204.325Z" fill="#F99778"/>
<path d="M119.864 173.916C121.287 175.02 122.964 175.751 124.743 176.042C126.536 176.186 128.552 175.118 128.82 173.348C128.942 172.547 128.72 171.634 129.232 171.011C129.744 170.387 130.992 170.476 131.95 170.554C133.621 170.648 135.273 170.165 136.63 169.186C137.987 168.207 138.966 166.792 139.402 165.178C140.271 166.425 142.243 166.291 143.513 165.479C144.659 164.51 145.664 163.386 146.498 162.139C146.933 161.514 147.512 161.002 148.187 160.647C148.862 160.293 149.612 160.106 150.375 160.102C151.186 160.36 152.023 160.528 152.87 160.603C154.363 160.436 155.098 158.666 155.254 157.175C155.41 155.683 155.599 153.947 156.847 153.112C158.095 152.277 159.543 152.745 160.924 152.923C162.305 153.101 164.076 152.734 164.399 151.376C164.453 151.015 164.432 150.648 164.339 150.295C164.245 149.943 164.08 149.614 163.854 149.328C162.897 147.97 161.511 146.973 159.919 146.499C158.326 146.024 156.62 146.099 155.076 146.712C154.471 144.83 153.323 143.169 151.776 141.938C150.229 140.706 148.352 139.96 146.381 139.792C144.41 139.624 142.434 140.043 140.7 140.995C138.967 141.947 137.554 143.39 136.64 145.143C135.404 144.072 133.928 143.315 132.337 142.935C130.747 142.555 129.088 142.563 127.501 142.96C125.914 143.356 124.446 144.129 123.222 145.212C121.997 146.295 121.051 147.657 120.465 149.183C119.061 148.848 117.589 148.931 116.232 149.424C114.875 149.917 113.692 150.797 112.831 151.955C111.97 153.113 111.468 154.498 111.388 155.938C111.307 157.379 111.651 158.811 112.378 160.058C111.329 160.61 110.437 161.417 109.785 162.406C109.132 163.394 108.741 164.532 108.646 165.712C108.646 168.072 111.008 170.376 113.269 169.708C112.805 170.649 112.721 171.733 113.037 172.734C113.353 173.735 114.043 174.576 114.963 175.081C115.884 175.586 116.964 175.717 117.978 175.446C118.993 175.175 119.864 174.523 120.409 173.626" fill="#5B5863"/>
<path d="M112.481 169.653C112.431 170.057 112.473 170.467 112.605 170.852C112.736 171.238 112.952 171.589 113.238 171.879C113.814 172.591 114.637 173.06 115.544 173.192C116.125 173.276 116.717 173.23 117.278 173.057C117.839 172.883 118.354 172.588 118.786 172.191L118.296 172.124C118.919 173.175 119.709 174.119 120.635 174.918C121.252 175.462 121.966 175.885 122.74 176.164C123.476 176.427 124.269 176.485 125.035 176.331C125.687 176.266 126.317 176.057 126.879 175.72C127.441 175.384 127.922 174.927 128.288 174.383C128.732 173.65 129.031 172.837 129.168 171.99C129.268 171.4 129.279 171.078 129.235 171.066C129.09 171.335 128.984 171.624 128.923 171.924C128.704 172.714 128.362 173.466 127.909 174.15C127.494 174.643 126.981 175.044 126.403 175.329C125.825 175.613 125.194 175.775 124.55 175.803C123.906 175.831 123.263 175.726 122.662 175.493C122.061 175.26 121.515 174.905 121.058 174.45C120.189 173.694 119.438 172.812 118.83 171.834L118.619 171.501L118.351 171.768C117.989 172.111 117.556 172.373 117.083 172.534C116.61 172.695 116.108 172.753 115.611 172.703C114.813 172.615 114.074 172.244 113.528 171.656C113.045 171.067 112.689 170.385 112.481 169.653Z" fill="#455A64"/>
<path d="M120.545 232.887L140.44 248.47L153.05 264.465L157.64 247.846L160.981 234.846L166.395 240.211L180.13 269.44L195.514 410.734C195.514 410.734 168.568 418.615 154.61 419.572C140.652 420.529 118.406 416.712 118.406 416.712V342.38L110.486 268.783L120.044 240.578L120.545 232.887Z" fill="#5B5863"/>
<path d="M160.758 418.626C160.746 418.497 160.746 418.366 160.758 418.237C160.758 417.947 160.758 417.558 160.702 417.068C160.702 416.011 160.613 414.508 160.535 412.616C160.401 408.698 160.212 403.077 159.978 396.153C159.499 382.262 158.741 363.062 157.639 341.869C156.536 320.676 155.277 301.475 154.297 287.606C153.818 280.694 153.417 275.095 153.183 271.177C153.049 269.263 152.949 267.771 152.882 266.725C152.882 266.235 152.86 265.864 152.815 265.612C152.801 265.478 152.801 265.344 152.815 265.211C152.852 265.342 152.874 265.476 152.882 265.612L152.993 266.725C153.094 267.771 153.227 269.274 153.406 271.177C153.751 275.051 154.208 280.66 154.742 287.595C155.856 301.464 157.082 320.642 158.184 341.846C159.287 363.05 159.978 382.24 160.412 396.142C160.602 403.099 160.735 408.72 160.791 412.616C160.791 414.53 160.791 416.033 160.791 417.068C160.791 417.558 160.791 417.947 160.791 418.237C160.792 418.367 160.781 418.498 160.758 418.626Z" fill="#433F4E"/>
<path d="M117.446 240.233L112.845 246.566L75.2047 266.39L96.1805 330.292L101.828 366.133L80.6631 451.283C80.6631 451.283 106.373 460.11 108.623 457.294C109.581 456.103 112.277 449.981 115.084 443.28C120.654 429.925 124.267 415.837 125.812 401.451C127.382 386.981 128.819 368.482 127.772 355.959C125.789 332.585 122.681 293.872 122.403 283.721C122.124 273.569 120.32 235.19 120.32 235.19L117.446 240.233Z" fill="#FD3E72"/>
<path d="M163.619 236.471L176.084 243.75L216.454 257.007L213.223 285.535L211.374 359.366L224.084 447.978C224.084 447.978 210.527 452.775 205.147 450.805C199.767 448.835 192.448 436.691 192.169 429.356C191.891 422.021 181.431 350.895 181.431 350.895L171.26 255.17L163.619 236.471Z" fill="#FD3E72"/>
<path d="M176.855 243.706C177.04 243.882 177.211 244.071 177.368 244.273C177.702 244.696 178.17 245.264 178.76 245.987L183.94 252.465L184.051 252.61L183.906 252.722L179.517 256.061L179.451 255.693L184.608 257.33H184.775V257.508C184.686 266.679 184.564 278.233 184.43 290.766C184.207 306.049 183.996 319.896 183.851 329.969C183.75 334.945 183.672 338.985 183.617 341.846C183.617 343.204 183.539 344.283 183.517 345.074C183.517 345.407 183.517 345.686 183.517 345.908C183.531 346.004 183.531 346.102 183.517 346.198C183.503 346.102 183.503 346.004 183.517 345.908C183.517 345.686 183.517 345.407 183.517 345.074C183.517 344.283 183.517 343.204 183.517 341.835C183.517 338.985 183.517 334.945 183.572 329.958C183.684 319.885 183.817 306.049 183.973 290.755C184.151 278.233 184.319 266.679 184.452 257.497L184.608 257.719L179.473 256.05L179.094 255.916L179.417 255.682L183.873 252.399V252.655L178.827 246.065C178.27 245.32 177.824 244.741 177.501 244.295C177.267 244.121 177.051 243.923 176.855 243.706Z" fill="#D7305E"/>
<path d="M126.626 343.839C126.577 343.751 126.54 343.657 126.514 343.56L126.247 342.737C126.002 341.969 125.656 340.911 125.222 339.576C124.32 336.837 122.994 332.897 121.256 328C120.387 325.573 119.441 322.902 118.416 320.052C117.294 317.012 116.328 313.918 115.519 310.78C113.782 303.567 112.432 296.266 111.476 288.908C110.072 278.735 109.17 269.14 108.613 260.892V260.77L108.691 260.692L113.147 256.417V256.763L108.936 253.568L108.769 253.434L108.891 253.279C112.077 248.949 114.673 245.487 116.5 242.971L118.583 240.189L119.14 239.476C119.204 239.393 119.274 239.315 119.351 239.243C119.309 239.337 119.257 239.427 119.195 239.51L118.683 240.267L116.678 243.116L109.226 253.523V253.234L113.459 256.395L113.67 256.551L113.481 256.751L109.025 261.059L109.103 260.859C109.693 269.084 110.629 278.668 112.022 288.83C112.982 296.165 114.313 303.446 116.01 310.647C116.856 313.956 117.799 317.036 118.839 319.885C119.842 322.757 120.777 325.451 121.624 327.866C123.295 332.763 124.576 336.771 125.411 339.509C125.835 340.889 126.135 341.969 126.336 342.703L126.548 343.549C126.586 343.642 126.613 343.739 126.626 343.839Z" fill="#D7305E"/>
<path d="M168.778 396.386L159.866 390.988L152.068 383.909C153.88 385.375 155.94 386.506 158.15 387.248C159.207 387.573 160.341 387.539 161.377 387.152C162.413 386.766 163.291 386.048 163.876 385.111C163.876 385.111 160.668 383.085 159.576 382.484C158.485 381.883 147.323 373.579 144.571 372.99C141.82 372.4 123.217 368.604 123.217 368.604L122.927 369.561L113.759 389.085L121.902 391.311C123.435 393.476 124.809 395.749 126.013 398.112C127.84 401.774 136.729 405.38 140.16 407.172C143.591 408.964 147.445 405.825 147.445 405.825C151.378 406.727 152.347 402.486 152.347 402.486C156.869 401.874 157.248 396.921 157.248 396.921C157.248 396.921 165.458 400.104 167.987 400.549C168.363 400.653 168.765 400.609 169.111 400.427C169.456 400.245 169.719 399.939 169.847 399.57C170.075 398.999 170.093 398.365 169.897 397.782C169.702 397.199 169.305 396.704 168.778 396.386Z" fill="#FFA68A"/>
<path d="M157.25 396.932C155.432 396.379 153.691 395.597 152.07 394.606C150.344 393.773 148.779 392.643 147.447 391.267C147.547 391.144 149.675 392.591 152.348 394.083C154.054 394.903 155.693 395.856 157.25 396.932Z" fill="#EB9275"/>
<path d="M142.836 396.208C144.659 396.998 146.376 398.011 147.949 399.225C149.622 400.283 151.229 401.443 152.761 402.698C150.92 401.936 149.19 400.933 147.614 399.715C145.942 398.658 144.346 397.486 142.836 396.208Z" fill="#EB9275"/>
<path d="M139.304 399.982C139.416 399.881 141.12 401.306 143.426 402.853C144.871 403.725 146.219 404.747 147.447 405.903C145.899 405.23 144.437 404.374 143.092 403.354C141.623 402.485 140.337 401.339 139.304 399.982Z" fill="#EB9275"/>
<path d="M141.586 376.128C142.269 376.13 142.944 376.274 143.568 376.551C145.109 377.117 146.55 377.924 147.835 378.945C149.12 379.953 150.273 381.12 151.266 382.417C151.736 382.914 152.114 383.49 152.38 384.12C152.224 384.243 150.442 381.716 147.512 379.401C145.686 378.059 143.694 376.959 141.586 376.128Z" fill="#EB9275"/>
<path d="M55.7677 373.48C54.6038 372.759 53.6346 371.765 52.9451 370.583C52.2556 369.401 51.8669 368.068 51.8132 366.701C51.7424 362.835 51.9658 358.969 52.4816 355.136C54.0411 342.102 75.429 266.413 75.429 266.413L96.8949 325.406L89.5205 351.084L127.094 369.061L116.634 398.557C116.634 398.557 66.7179 380.303 55.7677 373.48Z" fill="#FD3E72"/>
<path d="M216.456 257.007L250.988 322.511L251.913 323.858L289.52 304.68L301.907 329.702L251.211 360.412C248.435 362.064 245.13 362.589 241.978 361.878C238.826 361.168 236.066 359.277 234.268 356.594L211.9 323.202L205.884 295.786L216.456 257.007Z" fill="#FD3E72"/>
<path d="M212.222 275.673C212.274 275.945 212.296 276.221 212.289 276.497C212.289 277.087 212.289 277.877 212.367 278.857C212.367 280.983 212.456 283.944 212.523 287.572C212.623 294.93 212.656 305.092 212.523 316.312C212.389 327.532 212.177 337.705 211.943 345.051C211.81 348.68 211.698 351.641 211.62 353.767C211.565 354.746 211.531 355.526 211.498 356.127C211.499 356.404 211.469 356.68 211.409 356.95C211.395 356.676 211.395 356.401 211.409 356.127C211.409 355.526 211.409 354.735 211.409 353.756C211.409 351.63 211.487 348.68 211.542 345.04C211.676 337.694 211.843 327.532 211.955 316.312C212.066 305.092 212.088 294.93 212.099 287.572C212.099 283.944 212.099 280.983 212.099 278.868C212.099 277.877 212.099 277.087 212.099 276.497C212.108 276.219 212.149 275.942 212.222 275.673Z" fill="#D7305E"/>
<path d="M83.7505 282.797C83.8558 283.01 83.9379 283.234 83.9956 283.465L84.5637 285.39C85.065 287.138 85.7445 289.553 86.58 292.503C88.262 298.514 90.5568 306.817 92.8961 316.045C95.2354 325.272 97.0846 333.709 98.2431 339.842C98.8335 342.914 99.2679 345.408 99.5353 347.122C99.6578 347.934 99.758 348.602 99.8249 349.114C99.8772 349.344 99.8996 349.58 99.8917 349.815C99.8154 349.594 99.7559 349.367 99.7135 349.136C99.6095 348.624 99.4758 347.968 99.3125 347.166C98.9449 345.385 98.4547 342.925 97.842 339.931C96.5721 333.82 94.6673 325.461 92.2723 316.189C89.8773 306.917 87.7051 298.647 86.1344 292.603C85.3658 289.642 84.742 287.205 84.2964 285.446C84.0959 284.645 83.9399 283.999 83.8174 283.498C83.7671 283.268 83.7447 283.032 83.7505 282.797Z" fill="#D7305E"/>
<path d="M68.2106 379.546L68.4556 379.613L69.1574 379.869L71.8643 380.882L81.9568 384.755L116.734 398.29L116.378 398.457L123.385 378.667L126.827 368.961L126.972 369.306L89.8324 351.363C84.8375 349.706 79.4082 349.936 74.5712 352.008C73.2629 352.57 72.0003 353.232 70.7949 353.99L69.8704 354.591C69.7705 354.67 69.6622 354.737 69.5473 354.791C69.5473 354.791 69.6364 354.702 69.8369 354.546L70.7392 353.89C71.9201 353.079 73.173 352.379 74.4821 351.797C76.5559 350.871 78.7625 350.278 81.021 350.038C84.0243 349.738 87.0573 350.056 89.9327 350.973L127.139 368.783L127.373 368.894L127.295 369.139C126.181 372.289 125.067 375.539 123.853 378.845L116.824 398.635L116.723 398.902L116.456 398.802L81.8899 385.078L71.8643 381.049L69.202 379.936L68.5113 379.635L68.2106 379.546Z" fill="#D7305E"/>
<path d="M252.125 323.19C252.289 324.037 252.323 324.904 252.225 325.762C252.087 327.833 251.793 329.89 251.345 331.917C250.855 334.288 250.343 336.369 250.008 337.961C249.881 338.811 249.668 339.647 249.373 340.454C249.337 339.591 249.416 338.726 249.607 337.883C249.841 336.314 250.287 334.165 250.777 331.806C251.267 329.446 251.635 327.298 251.813 325.728C251.853 324.876 251.957 324.027 252.125 323.19Z" fill="#D7305E"/>
<path d="M252.124 324.771C251.756 326.817 251.147 328.812 250.308 330.715C249.658 332.686 248.869 334.609 247.947 336.469C248.318 334.421 248.928 332.422 249.763 330.514C250.417 328.548 251.206 326.629 252.124 324.771Z" fill="#D7305E"/>
<path d="M152.569 263.853C152.189 263.57 151.838 263.249 151.522 262.896L148.726 260.091L139.269 250.44H139.681C138.437 251.938 137.594 253.726 137.23 255.638C137.016 256.632 136.937 257.651 136.996 258.666V259.323L136.495 258.911C131.705 255.037 127.828 251.231 124.932 248.637C123.495 247.335 122.325 246.288 121.512 245.587C121.078 245.246 120.668 244.874 120.287 244.474C120.767 244.757 121.222 245.081 121.646 245.442C122.504 246.099 123.718 247.101 125.188 248.37C128.162 250.897 132.095 254.659 136.851 258.488L136.383 258.733C136.317 257.662 136.399 256.587 136.628 255.538C137.02 253.523 137.921 251.641 139.246 250.073L139.447 249.839L139.658 250.062L148.971 259.868L151.656 262.762C151.993 263.097 152.299 263.462 152.569 263.853Z" fill="#433F4E"/>
<path d="M165.236 242.738C165.269 243.034 165.269 243.332 165.236 243.628C165.236 244.207 165.236 245.053 165.113 246.11C164.887 248.983 164.421 251.831 163.721 254.625L163.543 255.327L163.208 254.681C162.249 252.822 161.013 251.118 159.544 249.628C159.12 249.205 158.697 248.804 158.274 248.437L158.741 248.281C157.908 252.123 156.795 255.899 155.411 259.579C154.865 260.97 154.386 262.072 154.041 262.818C153.884 263.211 153.682 263.584 153.439 263.931C153.536 263.515 153.671 263.109 153.84 262.718L155.043 259.378C156.342 255.688 157.417 251.923 158.262 248.103L158.374 247.635L158.73 247.947C159.165 248.314 159.61 248.737 160.045 249.171C161.557 250.702 162.82 252.459 163.788 254.381L163.208 254.525C163.934 251.76 164.47 248.949 164.813 246.11C165.08 243.973 165.158 242.738 165.236 242.738Z" fill="#433F4E"/>
<path d="M199.545 391.244L202.909 401.707L221.968 399.949L216.02 389.953L199.545 391.244Z" fill="#FD3E72"/>
<path d="M199.546 391.244C199.546 391.244 199.914 391.189 200.66 391.099L204.002 390.777C206.887 390.498 211.042 390.109 215.988 389.664H216.155L216.233 389.797L222.204 399.815L222.438 400.216H221.981L221.001 400.305L202.921 401.907H202.732L202.676 401.74C201.651 398.479 200.86 395.808 200.326 393.949C200.069 393.103 199.869 392.413 199.713 391.867C199.632 391.64 199.572 391.405 199.535 391.166C199.535 391.166 199.646 391.445 199.824 391.934C200.003 392.424 200.259 393.181 200.56 394.038C201.195 395.908 202.063 398.49 203.111 401.562L202.877 401.407L220.945 399.67L221.925 399.581L221.702 400.015L215.787 389.997L216.032 390.131C211.209 390.487 207.121 390.743 204.213 390.921L200.794 391.111C200.381 391.18 199.964 391.224 199.546 391.244Z" fill="#D7305E"/>
<path d="M208.157 314.943C208.144 314.78 208.144 314.616 208.157 314.453C208.157 314.097 208.157 313.663 208.157 313.139C208.157 311.937 208.09 310.323 208.045 308.342L208.235 308.531C203.367 308.531 195.981 308.631 187.76 308.631L188.05 308.342V311.681C188.05 312.794 188.05 313.907 188.05 314.909L187.716 314.631C193.553 314.631 198.621 314.709 202.275 314.765L206.586 314.842C207.122 314.838 207.657 314.864 208.19 314.92C207.702 314.974 207.211 314.996 206.72 314.987L202.476 315.065C198.833 315.121 193.664 315.188 187.716 315.199H187.437V314.92C187.437 313.874 187.437 312.794 187.437 311.692V308.353C188.016 307.774 187.593 308.186 187.727 308.064C195.959 308.064 203.322 308.064 208.201 308.164H208.402V308.353C208.402 310.379 208.324 312.026 208.301 313.262C208.293 313.825 208.245 314.387 208.157 314.943Z" fill="#D7305E"/>
<path opacity="0.1" d="M184.541 257.53L187.682 261.871C187.682 261.871 186.802 327.543 183.461 343.872L184.541 257.53Z" fill="black"/>
</g>
<defs>
<filter id="filter0_d" x="46.0941" y="50.0933" width="427.564" height="350.391" filterUnits="userSpaceOnUse" color-interpolation-filters="sRGB">
<feFlood flood-opacity="0" result="BackgroundImageFix"/>
<feColorMatrix in="SourceAlpha" type="matrix" values="0 0 0 0 0 0 0 0 0 0 0 0 0 0 0 0 0 0 127 0"/>
<feOffset dy="4"/>
<feGaussianBlur stdDeviation="13.5"/>
<feColorMatrix type="matrix" values="0 0 0 0 0 0 0 0 0 0 0 0 0 0 0 0 0 0 0.15 0"/>
<feBlend mode="normal" in2="BackgroundImageFix" result="effect1_dropShadow"/>
<feBlend mode="normal" in="SourceGraphic" in2="effect1_dropShadow" result="shape"/>
</filter>
<filter id="filter1_d" x="283.818" y="113.012" width="135.862" height="144.751" filterUnits="userSpaceOnUse" color-interpolation-filters="sRGB">
<feFlood flood-opacity="0" result="BackgroundImageFix"/>
<feColorMatrix in="SourceAlpha" type="matrix" values="0 0 0 0 0 0 0 0 0 0 0 0 0 0 0 0 0 0 127 0"/>
<feOffset dy="4"/>
<feGaussianBlur stdDeviation="4.5"/>
<feColorMatrix type="matrix" values="0 0 0 0 0 0 0 0 0 0 0 0 0 0 0 0 0 0 0.15 0"/>
<feBlend mode="normal" in2="BackgroundImageFix" result="effect1_dropShadow"/>
<feBlend mode="normal" in="SourceGraphic" in2="effect1_dropShadow" result="shape"/>
</filter>
</defs>
</svg>
