<svg width="566" height="512" viewBox="0 0 566 512" fill="none" xmlns="http://www.w3.org/2000/svg">
<circle cx="259.5" cy="254.5" r="243.5" fill="#FFF2F6"/>
<circle cx="259.5" cy="254.5" r="178.5" fill="#FFE0E9"/>
<g filter="url(#filter0_d)">
<path d="M514.333 151H433.667C425.014 151 418 156.762 418 163.87V230.13C418 237.238 425.014 243 433.667 243H514.333C522.985 243 530 237.238 530 230.13V163.87C530 156.762 522.985 151 514.333 151Z" fill="white"/>
<path d="M514.333 151H433.667C425.014 151 418 156.762 418 163.87V230.13C418 237.238 425.014 243 433.667 243H514.333C522.985 243 530 237.238 530 230.13V163.87C530 156.762 522.985 151 514.333 151Z" stroke="white" stroke-miterlimit="10"/>
</g>
<g filter="url(#filter1_d)">
<path fill-rule="evenodd" clip-rule="evenodd" d="M448.682 175.286C454.769 169.991 462.548 166.589 471.1 166V177.595C465.711 178.113 460.776 180.182 456.746 183.35L448.682 175.286ZM435.623 201.474H446.431C447.137 195.995 449.452 191.019 452.888 187.037L444.91 179.059C439.614 185.145 436.213 192.923 435.623 201.474ZM446.26 206.81H435.623C435.973 211.89 437.315 216.697 439.457 221.039C439.604 221.337 439.91 221.928 439.91 221.928L449.003 217.151C447.456 213.996 446.495 210.502 446.26 206.81ZM501.277 206.81H511.911C511.561 211.89 510.219 216.697 508.077 221.039C507.93 221.337 507.624 221.928 507.624 221.928L498.533 217.153C500.08 213.997 501.042 210.502 501.277 206.81ZM511.911 201.474H501.106C500.4 195.995 498.084 191.019 494.649 187.037L502.625 179.06C507.92 185.147 511.321 192.924 511.911 201.474ZM498.853 175.288L490.791 183.35C486.76 180.181 481.824 178.112 476.435 177.595V166C484.987 166.59 492.766 169.991 498.853 175.288Z" fill="url(#paint0_linear)"/>
</g>
<g filter="url(#filter2_d)">
<path fill-rule="evenodd" clip-rule="evenodd" d="M472.865 208.937C475.968 209.914 479.277 208.19 480.254 205.087C481.232 201.983 479.508 198.674 476.405 197.697C473.301 196.719 469.992 198.443 469.015 201.547C468.037 204.651 469.761 207.959 472.865 208.937ZM471.963 211.798C476.647 213.273 481.641 210.672 483.116 205.988C484.591 201.304 481.99 196.311 477.306 194.835C472.622 193.36 467.629 195.961 466.153 200.646C464.678 205.33 467.279 210.323 471.963 211.798Z" fill="#FD3E72"/>
<path d="M467.537 199.215L497.903 209.416L506.065 213.265L497.171 211.742L466.469 202.608L467.537 199.215Z" fill="#FD3E72"/>
</g>
<path d="M524.955 358.378H308.427V372.77C308.427 383.64 365.828 392.475 436.528 392.475C507.228 392.475 564.741 383.64 564.741 372.77V358.472L524.955 358.378Z" fill="#5B5863"/>
<path d="M436.641 378.103C507.451 378.103 564.854 369.281 564.854 358.398C564.854 347.515 507.451 338.693 436.641 338.693C365.831 338.693 308.427 347.515 308.427 358.398C308.427 369.281 365.831 378.103 436.641 378.103Z" fill="#FD3E72"/>
<path d="M436.641 378.103C507.451 378.103 564.854 369.281 564.854 358.398C564.854 347.515 507.451 338.693 436.641 338.693C365.831 338.693 308.427 347.515 308.427 358.398C308.427 369.281 365.831 378.103 436.641 378.103Z" stroke="#FD3E72" stroke-linecap="round" stroke-linejoin="round"/>
<path d="M524.053 318.931H458.458C458.458 318.931 458.458 336.544 467.727 359.603C467.727 364.011 478.333 367.552 491.406 367.552C504.48 367.552 515.086 363.992 515.086 359.603C515.105 359.383 515.105 359.163 515.086 358.943C524.053 336.205 524.053 318.931 524.053 318.931Z" fill="#5B5863" stroke="#5B5863" stroke-linecap="round" stroke-linejoin="round"/>
<path d="M491.499 328.501C509.707 328.501 524.466 324.216 524.466 318.931C524.466 313.645 509.707 309.361 491.499 309.361C473.292 309.361 458.532 313.645 458.532 318.931C458.532 324.216 473.292 328.501 491.499 328.501Z" fill="#716E78" stroke="#716E78" stroke-linecap="round" stroke-linejoin="round"/>
<path d="M491.5 326.919C507.835 326.919 521.077 323.343 521.077 318.932C521.077 314.52 507.835 310.944 491.5 310.944C475.166 310.944 461.924 314.52 461.924 318.932C461.924 323.343 475.166 326.919 491.5 326.919Z" fill="#3D3A45" stroke="#3D3A45" stroke-linecap="round" stroke-linejoin="round"/>
<path d="M464.695 322.303C469.442 325.035 479.634 326.9 491.502 326.9C503.37 326.9 513.543 325.016 518.271 322.303C513.543 319.609 503.332 317.707 491.502 317.707C479.672 317.707 469.423 319.609 464.695 322.303Z" fill="#263238" stroke="#263238" stroke-linecap="round" stroke-linejoin="round"/>
<path d="M477.708 323.056C477.708 323.056 469.137 301.656 471.642 295.948C474.148 290.24 482.343 290.956 485.206 296.664C488.069 302.372 489.482 323.791 489.482 323.791C489.482 323.791 480.911 326.654 477.708 323.056Z" fill="#FD3E72" stroke="#E62C5E" stroke-miterlimit="10"/>
<path d="M485.206 325.223C485.206 325.223 478.424 287.415 480.195 280.256C481.966 273.098 490.914 270.611 497.319 275.961C503.724 281.311 501.294 308.438 501.294 312.356C501.294 316.275 500.936 324.488 500.936 324.488C495.854 326.142 490.42 326.396 485.206 325.223V325.223Z" fill="#FD3E72" stroke="#E62C5E" stroke-miterlimit="10"/>
<path d="M499.109 324.507C499.109 324.507 493.816 309.851 496.981 304.143C500.145 298.435 506.607 300.582 506.607 305.216C506.607 309.851 506.965 320.927 506.249 323.414C505.533 325.901 501.615 326.654 499.109 324.507Z" fill="#FD3E72" stroke="#E62C5E" stroke-miterlimit="10"/>
<path d="M491.272 324.13C482.343 290.335 489.841 273.474 489.841 273.474C489.841 273.474 500.541 292.03 494.833 324.13" stroke="#E52C5E" stroke-linecap="round" stroke-linejoin="round"/>
<path d="M476.638 295.232C476.638 295.232 468.424 295.59 481.988 323.772" stroke="#E52C5E" stroke-linecap="round" stroke-linejoin="round"/>
<path d="M321.527 434.485H105V448.783C105 459.653 162.4 468.488 233.213 468.488C304.026 468.488 361.427 459.653 361.427 448.783V434.485H321.527Z" fill="#5B5863"/>
<path d="M233.213 454.21C304.024 454.21 361.427 445.387 361.427 434.505C361.427 423.622 304.024 414.8 233.213 414.8C162.403 414.8 105 423.622 105 434.505C105 445.387 162.403 454.21 233.213 454.21Z" fill="#FD3E72" stroke="#FD3E72" stroke-miterlimit="10"/>
<path d="M294.102 429.907C296.245 432.598 298.233 435.41 300.054 438.328" stroke="#783816" stroke-linecap="round" stroke-linejoin="round"/>
<path d="M243.951 382.548C243.951 382.548 270.57 403.1 288.579 423.446" stroke="#783816" stroke-linecap="round" stroke-linejoin="round"/>
<path d="M265.521 400.633C265.521 400.633 274.941 391.59 276.674 382.548" stroke="#783816" stroke-linecap="round" stroke-linejoin="round"/>
<path d="M255.028 475.44C255.028 475.44 238.262 431.565 202.62 456.922" stroke="#783816" stroke-linecap="round" stroke-linejoin="round"/>
<path d="M182.349 154.925C180.481 159.261 179.766 164.007 180.275 168.701C180.783 173.395 182.497 177.877 185.25 181.713C194.669 195.258 224 207.955 240.917 200.758C257.834 193.562 288.314 193.92 302.273 202.849C316.232 211.779 368.735 205.619 368.735 173.763C368.735 173.763 375.931 180.074 374.235 189.361C374.235 189.361 397.519 168.79 369.997 138.215C369.997 138.215 377.815 124.105 361.425 122.014C345.036 119.923 343.491 111.032 341.928 101.707C340.364 92.3818 340.741 69.6817 320.377 69.9642C320.377 69.9642 287.485 37.374 250.863 53.4619C214.242 69.5498 223.077 93.2484 205.689 89.8575C204.987 91.9154 204.987 94.148 205.689 96.206C205.689 96.206 211.209 108.903 203.165 114.837C195.121 120.771 173.758 131.358 172.685 160.558C173.605 158.807 175 157.351 176.709 156.355C178.417 155.359 180.372 154.863 182.349 154.925Z" fill="#5B5863"/>
<path d="M236.042 186.743L242.24 183.427V168.15C242.24 168.15 251.772 185.669 262.641 187.515C273.511 189.361 286.095 170.41 286.095 170.41C286.095 170.41 283.947 182.598 286.095 185.65C288.243 188.702 306.214 198.102 306.214 198.102C306.214 198.102 278.616 224.062 272.305 243.898C272.305 243.898 270.422 225.211 257.423 215.339C247.609 208.148 240.164 198.191 236.042 186.743Z" fill="#FFA68A"/>
<path d="M236.039 186.742C228.765 188.891 221.12 189.481 213.602 188.475C202.751 186.592 185.044 180.074 172.158 189.361C159.273 198.648 161.665 235.948 160.233 246.384C158.802 256.821 157.54 267.106 148.61 276.017C139.681 284.927 133.728 310.792 135.989 320.325C135.989 320.325 129.414 329.254 134.199 345.832C138.984 362.409 142.846 359.301 142.846 359.301C142.846 359.301 162.513 360.073 172.667 353.932C172.667 353.932 182.858 345.643 186.249 338.861C189.64 332.08 183.97 320.362 183.97 320.362L189.621 326.277V342.874C189.621 342.874 210.89 358.416 232.723 361.486C258.664 363.125 257.722 363.087 257.722 363.087L276.145 350.164C276.145 350.164 284.095 325.392 291.687 316.444C299.279 307.496 317.062 292.105 318.192 283.025C319.323 273.945 315.423 252.563 315.423 252.563C315.423 252.563 328.422 266.146 331.436 281.537C334.45 296.927 375.235 265.825 375.235 265.825C375.235 265.825 363.197 243.012 360.051 230.749C356.905 218.485 352.045 204.055 340.271 202.303C328.497 200.551 305.288 198.761 305.288 198.761C305.288 198.761 279.725 222.667 272.623 244.877C272.623 244.877 269.929 227.603 257.552 215.339C245.175 203.075 236.397 195.333 236.039 186.742Z" fill="#FD3E72"/>
<path d="M306.231 197.575C306.231 197.575 278.671 224.74 273.114 241.694C273.114 241.694 266.162 223.703 255.594 213.437C245.026 203.17 239.808 195.013 236.04 186.762L230.991 188.476C230.991 188.476 226.093 200.306 225.34 205.845L239.638 213.493L238.47 239.735C238.47 239.735 263.676 265.732 266.238 281.556L273.151 285.587C273.151 285.587 276.542 265.92 275.035 255.201C275.035 255.201 278.935 249.87 288.787 245.951C298.64 242.033 305.233 238.51 305.233 238.51L302.445 221.669C309.606 219.919 316.555 217.392 323.167 214.134L310.734 198.762L306.231 197.575Z" fill="#FEB2C7"/>
<path opacity="0.2" d="M349.953 271.496C349.953 271.496 341.89 248.89 309.94 234.083L311.655 240.865L303.554 239.81C303.554 239.81 305.438 274.284 293.796 285.569C282.154 296.853 236.904 287.735 225.168 297.832L245.683 299.452C245.683 299.452 227.994 304.313 227.052 310.397C226.11 316.482 251.41 313.317 261.526 318.065C261.526 318.065 263.899 347.867 254.97 362.862L257.834 363.05L276.672 348.545C276.672 348.545 287.975 317.594 296.64 310.397C305.306 303.201 318.173 291.182 317.984 281.537C317.796 271.892 316.1 251.697 316.1 251.697C316.1 251.697 327.064 265.412 330.041 276.394C333.017 287.377 349.953 271.496 349.953 271.496Z" fill="black"/>
<path d="M348.862 311.282C348.862 311.282 355.587 339.539 381.377 338.824C381.377 338.824 384.41 340.199 387.782 332.456C391.154 324.714 394.639 316.689 391.399 301.486C388.159 286.284 377.609 269.461 377.609 269.461L346.733 286.83L348.862 311.282Z" fill="#FFA68A"/>
<path d="M303.95 122.071C303.95 122.071 302.066 87.1641 276.144 78.9506C250.223 70.7372 227.786 90.8376 222.775 118.341C222.775 118.341 228.634 147.371 232.477 154.285C236.32 161.199 251.221 184.728 261.978 187.534C272.735 190.341 287.711 169.167 293.664 160.012C299.617 150.856 303.893 135.522 304.76 122.071" fill="#FFA68A"/>
<path d="M303.95 122.071C303.95 122.071 302.066 87.1641 276.144 78.9506C250.223 70.7372 227.786 90.8376 222.775 118.341C222.775 118.341 228.634 147.371 232.477 154.285C236.32 161.199 251.221 184.728 261.978 187.534C272.735 190.341 287.711 169.167 293.664 160.012C299.617 150.856 303.893 135.522 304.76 122.071" stroke="#FFA68A" stroke-miterlimit="10"/>
<path d="M300.049 146.825C300.049 146.825 302.178 147.955 307.245 143.547C312.313 139.139 316.664 130.567 314.573 126.988C312.482 123.409 306.228 128.589 306.228 128.589L300.049 146.825Z" fill="#FFA68A" stroke="#FFA68A" stroke-miterlimit="10"/>
<path d="M223.305 123.728C223.305 123.728 217.917 120.507 214.79 123.069C211.324 125.932 216.354 135.483 218.087 138.139C220.272 141.568 224.586 144.488 228.203 141.361L223.305 123.728Z" fill="#FFA68A" stroke="#FFA68A" stroke-miterlimit="10"/>
<path d="M220.892 120.131C220.892 120.131 250.336 118.963 257.118 88.3127C257.118 88.3127 270.003 120.865 307.567 123.653C307.567 123.653 314.273 100.539 310.487 85.6942C306.7 70.8497 288.22 58.0396 263.391 60.0742C238.562 62.1087 218.066 71.2076 220.892 120.131Z" fill="#5B5863"/>
<path d="M189.736 326.24V342.837C189.736 342.837 219.274 365.349 258.778 363.088L276.147 350.165C276.147 350.165 281.949 328.369 293.779 313.675C305.61 298.981 320.153 292.369 317.968 274.115C315.783 255.861 315.104 249.625 315.104 249.625" stroke="#CA325B" stroke-linecap="round" stroke-linejoin="round"/>
<path d="M231.12 188.156C231.12 188.156 224.641 191.358 207.404 187.515C190.167 183.672 178.186 182.786 168.446 192.526C158.707 202.265 164.019 254.108 155.599 265.826C147.178 277.543 131.203 300.846 135.988 320.325" stroke="#FD3E72" stroke-linecap="round" stroke-linejoin="round"/>
<path d="M186.267 329.725C190.882 338.127 181.256 345.643 174.398 352.105C167.541 358.566 147.799 360.092 141.714 358.962C135.629 357.832 131.447 336.526 132.578 329.687C133.708 322.849 137.532 316.369 143.221 313.675C148.91 310.981 153.111 293.179 157.369 290.767C161.626 288.356 164.094 296.23 164.094 296.23" stroke="#DF2B5C" stroke-miterlimit="10"/>
<path d="M195.593 268.69C195.593 268.69 197.966 248.928 195.593 239.716" stroke="#DF2B5C" stroke-linecap="round" stroke-linejoin="round"/>
<path d="M196.648 261.474C200.855 257.26 204.286 252.337 206.783 246.931" stroke="#DF2B5C" stroke-linecap="round" stroke-linejoin="round"/>
<path d="M340.12 268.727C337.553 268.296 335.14 267.214 333.11 265.584C331.081 263.954 329.504 261.831 328.529 259.418C327.553 257.005 327.213 254.382 327.541 251.8C327.868 249.218 328.853 246.764 330.399 244.67C332.453 241.92 335.41 239.923 337.313 237.135C338.463 235.445 339.204 233.511 339.478 231.485C339.752 229.459 339.551 227.398 338.891 225.463C338.232 223.528 337.131 221.773 335.677 220.337C334.223 218.9 332.455 217.821 330.512 217.185C334.337 216.855 338.186 216.893 342.004 217.298C349.84 218.429 354.588 223.892 352.949 232.143C351.31 240.394 341.646 241.468 335.994 245.989C334.509 247.031 333.305 248.424 332.49 250.045C331.674 251.665 331.273 253.463 331.322 255.276C331.458 258.099 332.345 260.834 333.891 263.198C335.438 265.563 337.588 267.472 340.12 268.727V268.727Z" fill="white" stroke="white" stroke-miterlimit="10"/>
<path d="M309.301 197.576C309.301 197.576 310.243 198.291 311.583 198.517C327.106 201.135 344.343 200.401 350.126 207.201C355.91 214.002 364.519 250.529 375.709 266.73C386.899 282.931 402.987 317.123 383.414 338.109C383.414 338.109 362.258 345.022 350.183 316.105" stroke="#FD3E72" stroke-linecap="round" stroke-linejoin="round"/>
<path d="M311.656 245.368C311.656 245.368 323.938 259.647 329.119 274.021" stroke="#BC2A52" stroke-linecap="round" stroke-linejoin="round"/>
<path d="M337.744 313.675C343.176 310.188 349.638 308.666 356.055 309.361C366.642 310.605 365.662 313.581 363.816 314.335C361.97 315.088 333.675 321.55 332.752 319.986C331.829 318.423 337.744 313.675 337.744 313.675Z" fill="#4C4956" stroke="#4C4956" stroke-miterlimit="10"/>
<path d="M236.771 186.272C237.675 195.691 244.742 203.057 251.599 209.5C257.288 214.571 262.212 220.441 266.218 226.925C276.579 244.934 274.222 262.661 271.622 283.289" stroke="#FEB2C7" stroke-linecap="round" stroke-linejoin="round"/>
<path d="M267.854 281.405C265.311 265.261 251.955 252.356 241.161 240.036C240.073 238.952 239.197 237.674 238.58 236.268C238.241 235.144 238.07 233.976 238.071 232.802C237.83 226.324 238.329 219.839 239.559 213.474L226.26 206.636C225.858 206.463 225.512 206.183 225.261 205.826C225.12 205.384 225.12 204.91 225.261 204.469C226.536 198.173 227.795 193.652 231.12 188.156L236.771 186.272" stroke="#FEB2C7" stroke-linecap="round" stroke-linejoin="round"/>
<path d="M307.415 197.368C304.613 198.961 302.072 200.975 299.88 203.339C288.338 214.966 279.192 228.746 272.96 243.898" stroke="#FEB2C7" stroke-linecap="round" stroke-linejoin="round"/>
<path d="M274.96 255.145C281.874 246.649 293.761 244.558 303.613 239.773C303.918 239.705 304.204 239.571 304.452 239.382C304.7 239.193 304.905 238.953 305.052 238.677C305.198 238.402 305.284 238.098 305.302 237.786C305.32 237.475 305.271 237.163 305.158 236.872C304.241 231.723 303.312 226.636 302.37 221.613C309.792 220.844 316.909 218.255 323.092 214.078C318.608 208.426 313.968 202.925 309.17 197.575H307.416" stroke="#FEB2C7" stroke-linecap="round" stroke-linejoin="round"/>
<path d="M257.12 88.3132C257.12 88.3132 258.853 127.685 306.231 128.514" stroke="#5B5863" stroke-linecap="round" stroke-linejoin="round"/>
<path d="M361.428 268.69C364.461 276.523 366.229 284.79 366.665 293.179C366.966 305.575 355.55 312.225 347.431 313.713C339.312 315.201 329.422 314.73 322.809 306.404C316.197 298.077 313.786 280.463 313.786 280.463L361.428 268.69Z" fill="#5B5863" stroke="#5B5863" stroke-miterlimit="10"/>
<path d="M372.146 265.826C370.573 265.902 369.033 266.306 367.625 267.013C360.291 270.102 353.253 273.854 346.601 278.222C345.998 278.617 345.32 279.107 345.264 279.823C345.264 280.934 346.526 281.556 347.618 281.707C354.005 282.893 360.56 281.481 366.89 280.068C368.732 279.727 370.528 279.171 372.24 278.41C377.477 275.81 381.056 265.939 372.146 265.826Z" fill="#FFA68A" stroke="#F29071" stroke-miterlimit="10"/>
<path d="M375.762 280.463C370.411 281.084 365.124 282.162 359.957 283.685C358.316 284.005 356.754 284.645 355.36 285.568C355.106 285.722 354.891 285.933 354.734 286.185C354.577 286.437 354.482 286.723 354.456 287.019C354.456 287.735 355.191 288.187 355.831 288.488C358.116 289.391 360.522 289.95 362.971 290.146C368.867 290.9 376.158 291.86 381.282 288.036C386.952 283.741 380.415 279.992 375.762 280.463Z" fill="#FFA68A" stroke="#F29071" stroke-miterlimit="10"/>
<path d="M360.161 293.386C358.391 293.376 356.647 293.817 355.094 294.667C354.624 294.943 354.245 295.349 354.001 295.835C353.826 296.355 353.826 296.917 353.999 297.437C354.172 297.957 354.51 298.406 354.962 298.717C355.879 299.312 356.913 299.704 357.995 299.866L368.751 302.184C370.974 302.655 373.668 303.012 375.062 300.79C375.534 300.012 375.784 299.119 375.784 298.209C375.784 297.299 375.534 296.406 375.062 295.628C372.444 292.388 363.816 293.16 360.161 293.386Z" fill="#FFA68A" stroke="#F29071" stroke-miterlimit="10"/>
<path d="M144.92 312.111C141.567 318.516 141.153 326.014 140.927 333.229" stroke="#DF2B5C" stroke-linecap="round" stroke-linejoin="round"/>
<path d="M147.292 316.445C147.343 323.877 149.575 331.13 153.711 337.305C157.847 343.48 163.704 348.306 170.557 351.182" stroke="#DF2B5C" stroke-linecap="round" stroke-linejoin="round"/>
<path d="M257.441 215.358L218.502 216.828L226.207 287.905L262.527 285.569L257.441 215.358Z" fill="#5B5863" stroke="#5B5863" stroke-miterlimit="10"/>
<path d="M257.797 235.704L259.982 239.471L248.868 259.741C254.915 258.309 264.541 247.628 266.142 249.738C267.744 251.848 240.334 278.956 233.571 280.652C228.751 281.604 223.791 281.604 218.971 280.652C213.64 286.962 183.744 335.98 183.744 335.98C183.744 335.98 153.188 332.683 159.254 299.189C159.254 299.189 196.93 268.52 207.913 258.705C207.913 258.705 212.34 241.543 219.216 239.697L221.627 245.631C221.627 245.631 258.324 228.865 259.511 230.09C260.698 231.314 259.511 234.178 259.511 234.178C259.511 234.178 239.034 253.016 234.117 254.014" fill="#FFA68A"/>
<path d="M257.797 235.704L259.982 239.471L248.868 259.741C254.915 258.309 264.541 247.628 266.142 249.738C267.744 251.848 240.334 278.956 233.571 280.652C228.751 281.604 223.791 281.604 218.971 280.652C213.64 286.962 183.744 335.98 183.744 335.98C183.744 335.98 153.188 332.683 159.254 299.189C159.254 299.189 196.93 268.52 207.913 258.705C207.913 258.705 212.34 241.016 219.216 239.697L221.627 245.631C221.627 245.631 258.324 228.865 259.511 230.09C260.698 231.314 259.511 234.178 259.511 234.178C259.511 234.178 239.034 253.016 234.117 254.014" stroke="#EA9175" stroke-miterlimit="10"/>
<path d="M258.646 80.9089C263.426 86.2927 268.769 91.1492 274.583 95.3956C277.213 97.1189 279.943 98.6852 282.759 100.086C291.945 104.774 301.535 108.626 311.412 111.596" stroke="#4F4B5A" stroke-width="0.75" stroke-linecap="round" stroke-linejoin="round"/>
<path d="M260.68 72.9222C274.561 81.3507 289.603 87.6977 305.327 91.7605" stroke="#4F4B5A" stroke-width="0.75" stroke-linecap="round" stroke-linejoin="round"/>
<path d="M242.424 170.259C242.424 170.259 248.697 195.239 261.469 197.537C274.242 199.835 285.752 172.143 285.752 172.143C285.752 172.143 271.755 187.609 263.749 187.496C255.742 187.383 242.424 170.259 242.424 170.259Z" fill="#D98369"/>
<path d="M227.412 228.225C229.055 228.225 230.388 226.892 230.388 225.249C230.388 223.605 229.055 222.272 227.412 222.272C225.768 222.272 224.435 223.605 224.435 225.249C224.435 226.892 225.768 228.225 227.412 228.225Z" fill="white" stroke="#4C4956" stroke-miterlimit="10"/>
<mask id="mask0" mask-type="alpha" maskUnits="userSpaceOnUse" x="16" y="11" width="487" height="487">
<path d="M503 254.5C503 388.981 393.981 498 259.5 498C125.019 498 16 388.981 16 254.5C16 120.019 125.019 11 259.5 11C393.981 11 503 120.019 503 254.5Z" fill="#FFF2F6"/>
</mask>
<g mask="url(#mask0)">
<path d="M430.597 349.776L414.396 623.12L436.437 655.051L458.176 627.49L445.668 350.53L430.597 349.776Z" fill="#454051" stroke="#263238" stroke-miterlimit="10"/>
<path d="M524.955 358.378H308.427V372.77C308.427 383.64 365.828 392.475 436.528 392.475C507.228 392.475 564.741 383.64 564.741 372.77V358.472L524.955 358.378Z" fill="#5B5863"/>
<path d="M436.641 378.103C507.451 378.103 564.854 369.281 564.854 358.398C564.854 347.515 507.451 338.693 436.641 338.693C365.831 338.693 308.427 347.515 308.427 358.398C308.427 369.281 365.831 378.103 436.641 378.103Z" fill="#FD3E72"/>
<path d="M436.641 378.103C507.451 378.103 564.854 369.281 564.854 358.398C564.854 347.515 507.451 338.693 436.641 338.693C365.831 338.693 308.427 347.515 308.427 358.398C308.427 369.281 365.831 378.103 436.641 378.103Z" stroke="#FD3E72" stroke-linecap="round" stroke-linejoin="round"/>
<path d="M524.053 318.931H458.458C458.458 318.931 458.458 336.544 467.727 359.603C467.727 364.011 478.333 367.552 491.406 367.552C504.48 367.552 515.086 363.992 515.086 359.603C515.105 359.383 515.105 359.163 515.086 358.943C524.053 336.205 524.053 318.931 524.053 318.931Z" fill="#5B5863" stroke="#5B5863" stroke-linecap="round" stroke-linejoin="round"/>
<path d="M491.499 328.501C509.707 328.501 524.466 324.216 524.466 318.931C524.466 313.645 509.707 309.361 491.499 309.361C473.292 309.361 458.532 313.645 458.532 318.931C458.532 324.216 473.292 328.501 491.499 328.501Z" fill="#716E78" stroke="#716E78" stroke-linecap="round" stroke-linejoin="round"/>
<path d="M491.5 326.919C507.835 326.919 521.077 323.343 521.077 318.932C521.077 314.52 507.835 310.944 491.5 310.944C475.166 310.944 461.924 314.52 461.924 318.932C461.924 323.343 475.166 326.919 491.5 326.919Z" fill="#3D3A45" stroke="#3D3A45" stroke-linecap="round" stroke-linejoin="round"/>
<path d="M464.695 322.303C469.442 325.035 479.634 326.9 491.502 326.9C503.37 326.9 513.543 325.016 518.271 322.303C513.543 319.609 503.332 317.707 491.502 317.707C479.672 317.707 469.423 319.609 464.695 322.303Z" fill="#263238" stroke="#263238" stroke-linecap="round" stroke-linejoin="round"/>
<path d="M477.708 323.056C477.708 323.056 469.137 301.656 471.642 295.948C474.148 290.24 482.343 290.956 485.206 296.664C488.069 302.372 489.482 323.791 489.482 323.791C489.482 323.791 480.911 326.654 477.708 323.056Z" fill="#FD3E72" stroke="#E62C5E" stroke-miterlimit="10"/>
<path d="M485.206 325.223C485.206 325.223 478.424 287.415 480.195 280.256C481.966 273.098 490.914 270.611 497.319 275.961C503.724 281.311 501.294 308.438 501.294 312.356C501.294 316.275 500.936 324.488 500.936 324.488C495.854 326.142 490.42 326.396 485.206 325.223V325.223Z" fill="#FD3E72" stroke="#E62C5E" stroke-miterlimit="10"/>
<path d="M499.109 324.507C499.109 324.507 493.816 309.851 496.981 304.143C500.145 298.435 506.607 300.582 506.607 305.216C506.607 309.851 506.965 320.927 506.249 323.414C505.533 325.901 501.615 326.654 499.109 324.507Z" fill="#FD3E72" stroke="#E62C5E" stroke-miterlimit="10"/>
<path d="M491.272 324.13C482.343 290.335 489.841 273.474 489.841 273.474C489.841 273.474 500.541 292.03 494.833 324.13" stroke="#E52C5E" stroke-linecap="round" stroke-linejoin="round"/>
<path d="M476.638 295.232C476.638 295.232 468.424 295.59 481.988 323.772" stroke="#E52C5E" stroke-linecap="round" stroke-linejoin="round"/>
<path d="M227.824 423.445L211.623 664.274L233.664 692.399L255.403 668.117L242.876 424.105L227.824 423.445Z" fill="white"/>
<path fill-rule="evenodd" clip-rule="evenodd" d="M227.358 422.924L243.352 423.625L255.913 668.297L233.638 693.177L211.111 664.431L227.358 422.924ZM228.29 423.966L212.135 664.116L233.689 691.621L254.893 667.937L242.4 424.584L228.29 423.966Z" fill="#263238"/>
<path d="M321.527 434.485H105V448.783C105 459.653 162.4 468.488 233.213 468.488C304.026 468.488 361.427 459.653 361.427 448.783V434.485H321.527Z" fill="#5B5863"/>
<path d="M233.213 454.21C304.024 454.21 361.427 445.387 361.427 434.505C361.427 423.622 304.024 414.8 233.213 414.8C162.403 414.8 105 423.622 105 434.505C105 445.387 162.403 454.21 233.213 454.21Z" fill="#FD3E72"/>
<path fill-rule="evenodd" clip-rule="evenodd" d="M107.905 430.933C106.243 432.182 105.5 433.38 105.5 434.505C105.5 435.629 106.243 436.827 107.905 438.076C109.556 439.316 112.022 440.533 115.246 441.705C121.689 444.046 131.04 446.163 142.629 447.944C165.799 451.505 197.825 453.71 233.213 453.71C268.601 453.71 300.628 451.505 323.798 447.944C335.387 446.163 344.738 444.046 351.18 441.705C354.405 440.533 356.871 439.316 358.522 438.076C360.184 436.827 360.927 435.629 360.927 434.505C360.927 433.38 360.184 432.182 358.522 430.933C356.871 429.693 354.405 428.476 351.18 427.305C344.738 424.964 335.387 422.846 323.798 421.065C300.628 417.504 268.601 415.3 233.213 415.3C197.825 415.3 165.799 417.504 142.629 421.065C131.04 422.846 121.689 424.964 115.246 427.305C112.022 428.476 109.556 429.693 107.905 430.933ZM142.477 420.077C165.711 416.506 197.791 414.3 233.213 414.3C268.636 414.3 300.716 416.506 323.95 420.077C335.563 421.862 344.989 423.991 351.522 426.365C354.786 427.551 357.357 428.808 359.122 430.134C360.875 431.45 361.927 432.908 361.927 434.505C361.927 436.101 360.875 437.559 359.122 438.876C357.357 440.201 354.786 441.459 351.522 442.645C344.989 445.019 335.563 447.147 323.95 448.932C300.716 452.503 268.636 454.71 233.213 454.71C197.791 454.71 165.711 452.503 142.477 448.932C130.864 447.147 121.438 445.019 114.905 442.645C111.641 441.459 109.07 440.201 107.305 438.876C105.551 437.559 104.5 436.101 104.5 434.505C104.5 432.908 105.551 431.45 107.305 430.134C109.07 428.808 111.641 427.551 114.905 426.365C121.438 423.991 130.864 421.862 142.477 420.077Z" fill="#FD3E72"/>
<path d="M174.399 352.048C174.399 352.048 149.269 377.65 151.548 408.714C153.828 439.778 193.972 453.417 220.496 464.023C236.971 470.775 252.191 480.251 265.52 492.055C265.52 492.055 256.873 516.318 279.592 546.686C302.311 577.053 353.871 614.88 353.871 614.88C358.611 614.845 363.232 613.39 367.137 610.704C371.042 608.018 374.052 604.223 375.78 599.809C375.78 599.809 326.01 512.664 313.784 476.306C313.784 476.306 311.504 448.557 300.05 438.422C300.05 438.422 315.253 422.202 315.121 403.948C314.989 385.694 297.978 357.267 278.085 344.118L276.616 348.639L257.5 361.5C257.5 361.5 218.5 360.5 189.752 342.931V336.092L187.492 338.918L174.399 352.048Z" fill="#8F4620"/>
<path fill-rule="evenodd" clip-rule="evenodd" d="M293.79 429.516C294.006 429.344 294.321 429.38 294.493 429.596C296.648 432.301 298.647 435.129 300.479 438.063C300.625 438.298 300.553 438.606 300.319 438.752C300.085 438.898 299.777 438.827 299.63 438.593C297.819 435.69 295.842 432.895 293.711 430.219C293.538 430.003 293.574 429.688 293.79 429.516Z" fill="#783816"/>
<path fill-rule="evenodd" clip-rule="evenodd" d="M243.555 382.242C243.724 382.024 244.038 381.983 244.257 382.152L243.951 382.548L243.646 382.944C243.427 382.775 243.387 382.461 243.555 382.242ZM243.951 382.548C243.646 382.944 243.645 382.944 243.646 382.944L243.722 383.002C243.772 383.042 243.848 383.1 243.947 383.178C244.146 383.333 244.44 383.563 244.821 383.863C245.582 384.464 246.691 385.345 248.077 386.466C250.851 388.708 254.737 391.909 259.185 395.746C268.084 403.422 279.222 413.629 288.205 423.777C288.388 423.984 288.704 424.003 288.91 423.82C289.117 423.637 289.137 423.321 288.953 423.114C279.927 412.917 268.751 402.676 259.838 394.989C255.381 391.144 251.486 387.936 248.706 385.688C247.316 384.565 246.204 383.681 245.44 383.078C245.058 382.777 244.762 382.545 244.562 382.389C244.462 382.311 244.386 382.252 244.335 382.212L244.257 382.152C244.257 382.152 244.257 382.152 243.951 382.548Z" fill="#783816"/>
<path fill-rule="evenodd" clip-rule="evenodd" d="M276.768 382.057C277.039 382.109 277.217 382.371 277.165 382.642C276.276 387.279 273.431 391.875 270.846 395.283C269.549 396.994 268.306 398.419 267.388 399.417C266.929 399.916 266.55 400.309 266.286 400.577C266.154 400.712 266.05 400.815 265.979 400.885C265.943 400.92 265.916 400.947 265.897 400.965L265.876 400.986L265.87 400.991L265.868 400.993C265.868 400.993 265.868 400.993 265.521 400.633L265.868 400.993C265.669 401.184 265.352 401.178 265.161 400.979C264.97 400.78 264.976 400.463 265.175 400.272M265.175 400.272L265.176 400.271L265.181 400.267L265.2 400.248C265.217 400.231 265.243 400.206 265.277 400.173C265.344 400.106 265.445 400.006 265.573 399.876C265.831 399.614 266.202 399.23 266.652 398.74C267.554 397.76 268.775 396.359 270.049 394.679C272.607 391.306 275.338 386.86 276.183 382.454C276.235 382.183 276.497 382.005 276.768 382.057" fill="#783816"/>
<path d="M218.877 660.262C218.877 660.262 230.086 677.084 246.343 660.262C246.343 660.262 244.102 613.166 249.15 588.789C254.199 564.412 273.245 488.193 246.343 461.857C219.442 435.521 195.329 460.161 190.846 481.468C186.362 502.774 200.378 563.301 208.78 591.314C217.182 619.326 218.877 660.262 218.877 660.262Z" fill="#7C3C1B"/>
<path fill-rule="evenodd" clip-rule="evenodd" d="M255.495 475.26C255.495 475.261 255.496 475.261 255.064 475.426L255.495 475.26C255.594 475.518 255.465 475.808 255.207 475.907C254.949 476.005 254.66 475.876 254.561 475.618L254.597 475.605C254.561 475.618 254.561 475.618 254.561 475.618L254.561 475.617L254.559 475.612L254.55 475.59C254.545 475.577 254.539 475.56 254.53 475.538C254.526 475.527 254.521 475.514 254.515 475.5C254.483 475.42 254.435 475.301 254.37 475.146C254.241 474.836 254.045 474.382 253.784 473.813C253.261 472.674 252.474 471.072 251.418 469.229C249.304 465.538 246.126 460.895 241.855 457.043C237.587 453.194 232.249 450.152 225.804 449.616C219.364 449.081 211.749 451.041 202.91 457.329C202.685 457.489 202.373 457.437 202.213 457.212C202.053 456.987 202.106 456.674 202.331 456.514C211.313 450.124 219.159 448.06 225.887 448.62C232.611 449.179 238.147 452.351 242.525 456.301C246.902 460.248 250.142 464.989 252.286 468.732C253.359 470.606 254.16 472.234 254.693 473.395C254.96 473.976 255.159 474.44 255.293 474.761C255.36 474.921 255.41 475.045 255.444 475.129C255.453 475.152 255.46 475.171 255.467 475.188C255.473 475.203 255.478 475.216 255.482 475.226L255.492 475.252L255.495 475.26Z" fill="#783816"/>
<path d="M182.349 154.925C180.481 159.261 179.766 164.007 180.275 168.701C180.783 173.395 182.497 177.877 185.25 181.713C194.669 195.258 224 207.955 240.917 200.758C257.834 193.562 288.314 193.92 302.273 202.849C316.232 211.779 368.735 205.619 368.735 173.763C368.735 173.763 375.931 180.074 374.235 189.361C374.235 189.361 397.519 168.79 369.997 138.215C369.997 138.215 377.815 124.105 361.425 122.014C345.036 119.923 343.491 111.032 341.928 101.707C340.364 92.3818 340.741 69.6817 320.377 69.9642C320.377 69.9642 287.485 37.374 250.863 53.4619C214.242 69.5498 223.077 93.2484 205.689 89.8575C204.987 91.9154 204.987 94.148 205.689 96.206C205.689 96.206 211.209 108.903 203.165 114.837C195.121 120.771 173.758 131.358 172.685 160.558C173.605 158.807 175 157.351 176.709 156.355C178.417 155.359 180.372 154.863 182.349 154.925Z" fill="#5B5863"/>
<path d="M236.042 186.743L242.24 183.427V168.15C242.24 168.15 251.772 185.669 262.641 187.515C273.511 189.361 286.095 170.41 286.095 170.41C286.095 170.41 283.947 182.598 286.095 185.65C288.243 188.702 306.214 198.102 306.214 198.102C306.214 198.102 278.616 224.062 272.305 243.898C272.305 243.898 269.001 226 257.423 215.339C247.609 208.148 240.164 198.191 236.042 186.743Z" fill="#FFA68A"/>
<path fill-rule="evenodd" clip-rule="evenodd" d="M306.014 197.881C306.08 197.613 306.351 197.449 306.619 197.514L306.5 198L306.381 198.486C306.113 198.42 305.949 198.149 306.014 197.881ZM383.413 338.109L383.569 338.584C383.649 338.558 383.721 338.511 383.779 338.45C393.724 327.786 394.577 313.793 391.585 300.515C388.592 287.237 381.738 274.58 376.12 266.446C370.57 258.41 365.641 245.296 361.361 233.273C360.851 231.841 360.351 230.425 359.86 229.035C358.295 224.606 356.825 220.447 355.456 216.913C354.556 214.591 353.696 212.529 352.877 210.83C352.062 209.139 351.273 207.778 350.507 206.877C348.976 205.077 346.678 203.84 343.91 202.943C341.138 202.046 337.846 201.474 334.276 201.036C331.531 200.699 328.603 200.44 325.607 200.175C324.708 200.095 323.803 200.015 322.894 199.932C318.953 199.572 314.944 199.158 311.083 198.507C310.43 198.397 309.32 198.15 308.36 197.928C307.883 197.818 307.448 197.714 307.131 197.638C306.973 197.6 306.845 197.569 306.756 197.548L306.619 197.514L306.5 198L306.381 198.486L306.521 198.52C306.61 198.541 306.739 198.572 306.898 198.611C307.216 198.687 307.654 198.791 308.135 198.902C309.09 199.124 310.23 199.377 310.917 199.493C314.817 200.151 318.857 200.567 322.803 200.928C323.719 201.011 324.629 201.092 325.531 201.172C328.523 201.437 331.428 201.694 334.155 202.029C337.704 202.464 340.921 203.026 343.602 203.895C346.286 204.764 348.385 205.925 349.745 207.525C350.426 208.325 351.171 209.593 351.977 211.264C352.779 212.929 353.628 214.963 354.524 217.274C355.887 220.793 357.349 224.931 358.913 229.357C359.405 230.749 359.907 232.17 360.419 233.608C364.687 245.6 369.658 258.849 375.297 267.014C380.869 275.082 387.654 287.621 390.609 300.735C393.556 313.808 392.681 327.359 383.139 337.669C383.111 337.677 383.078 337.687 383.04 337.697C382.89 337.739 382.665 337.797 382.373 337.861C381.789 337.989 380.937 338.143 379.874 338.239C377.749 338.431 374.789 338.393 371.46 337.469C364.827 335.629 356.63 330.247 350.644 315.913C350.538 315.658 350.245 315.538 349.99 315.644C349.735 315.75 349.615 316.043 349.721 316.298C355.811 330.88 364.229 336.5 371.193 338.433C374.662 339.395 377.746 339.435 379.964 339.235C381.074 339.135 381.968 338.974 382.588 338.837C382.898 338.769 383.14 338.707 383.306 338.661C383.389 338.638 383.453 338.619 383.497 338.606C383.519 338.6 383.536 338.594 383.548 338.59L383.562 338.586L383.569 338.584C383.569 338.584 383.569 338.584 383.413 338.109Z" fill="#FD3E72"/>
<path d="M236.039 186.742C228.765 188.891 221.12 189.481 213.602 188.475C202.751 186.592 185.044 180.074 172.158 189.361C159.273 198.648 161.665 235.948 160.233 246.384C158.802 256.821 157.54 267.106 148.61 276.017C139.681 284.927 133.728 310.792 135.989 320.325C135.989 320.325 129.414 329.254 134.199 345.832C138.984 362.409 142.846 359.301 142.846 359.301C142.846 359.301 162.513 360.073 172.667 353.932C172.667 353.932 182.858 345.643 186.249 338.861C189.64 332.08 183.97 320.362 183.97 320.362L189.621 326.277V342.874C189.621 342.874 210.89 358.416 232.723 361.486C258.664 363.125 257.722 363.087 257.722 363.087L276.145 350.164C276.145 350.164 284.095 325.392 291.687 316.444C299.279 307.496 317.062 292.105 318.192 283.025C319.323 273.945 315.423 252.563 315.423 252.563C315.423 252.563 328.422 266.146 331.436 281.537C334.45 296.927 375.235 265.825 375.235 265.825C375.235 265.825 363.197 243.012 360.051 230.749C356.905 218.485 352.045 204.055 340.271 202.303C328.497 200.551 305.288 198.761 305.288 198.761C305.288 198.761 279.725 222.667 272.623 244.877C272.623 244.877 269.929 227.603 257.552 215.339C245.175 203.075 236.397 195.333 236.039 186.742Z" fill="#FD3E72"/>
<path d="M306.5 197.5C305.863 197.081 281.362 215.902 273.114 241.694C273.114 241.694 266.162 223.703 255.594 213.437C245.026 203.17 239.808 195.013 236.04 186.762L230.991 188.476C230.991 188.476 225.34 199.5 225.34 205.845L239.638 213.493L238.47 239.735C238.47 239.735 263.676 265.732 266.238 281.556L273.151 285.587C273.151 285.587 276.542 265.92 275.035 255.201C275.035 255.201 278.935 249.87 288.787 245.951C298.64 242.033 305.233 238.51 305.233 238.51L302.445 221.669C309.606 219.919 316.555 217.392 323.167 214.134L311 198.5L306.5 197.5Z" fill="#FEB2C7"/>
<path opacity="0.2" d="M349.953 271.496C349.953 271.496 341.89 248.89 309.94 234.083L311.655 240.865L303.554 239.81C303.554 239.81 305.438 274.284 293.796 285.569C282.154 296.853 236.904 287.735 225.168 297.832L245.683 299.452C245.683 299.452 227.994 304.313 227.052 310.397C226.11 316.482 251.41 313.317 261.526 318.065C261.526 318.065 263.899 347.867 254.97 362.862L257.834 363.05L276.672 348.545C276.672 348.545 287.975 317.594 296.64 310.397C305.306 303.201 318.173 291.182 317.984 281.537C317.796 271.892 316.1 251.697 316.1 251.697C316.1 251.697 327.064 265.412 330.041 276.394C333.017 287.377 349.953 271.496 349.953 271.496Z" fill="black"/>
<path d="M348.862 311.282C348.862 311.282 355.587 339.539 381.377 338.824C381.377 338.824 384.41 340.199 387.782 332.456C391.154 324.714 394.639 316.689 391.399 301.486C388.159 286.284 377.609 269.461 377.609 269.461L346.733 286.83L348.862 311.282Z" fill="#FFA68A"/>
<path d="M303.95 122.071C303.95 122.071 302.066 87.1641 276.144 78.9506C250.223 70.7372 227.786 90.8376 222.775 118.341C222.775 118.341 228.634 147.371 232.477 154.285C236.32 161.199 251.221 184.728 261.978 187.534C272.735 190.341 287.711 169.167 293.664 160.012C299.617 150.856 303.893 135.522 304.76 122.071" fill="#FFA68A"/>
<path fill-rule="evenodd" clip-rule="evenodd" d="M241.31 84.8587C250.905 77.3283 263.165 74.3135 276.295 78.474C289.465 82.6471 296.499 93.5947 300.235 103.413C302.105 108.328 303.157 112.981 303.743 116.405C304.036 118.117 304.212 119.523 304.315 120.503C304.367 120.993 304.4 121.377 304.42 121.638C304.431 121.769 304.438 121.87 304.442 121.938L304.447 122.016L304.448 122.037L304.449 122.042L304.449 122.044C304.449 122.044 304.449 122.044 304.388 122.048L305.258 122.104C304.388 135.611 300.096 151.036 294.083 160.284C291.102 164.869 285.849 172.483 279.983 178.605C277.051 181.665 273.947 184.372 270.879 186.139C267.817 187.903 264.723 188.768 261.851 188.018C259.043 187.285 256.021 185.222 253.034 182.497C250.036 179.762 247.025 176.318 244.241 172.758C238.672 165.636 233.972 158.003 232.04 154.528C231.049 152.745 229.949 149.584 228.86 145.894C227.767 142.188 226.672 137.902 225.699 133.837C224.725 129.771 223.872 125.923 223.262 123.091C222.957 121.675 222.713 120.512 222.545 119.704C222.461 119.3 222.396 118.984 222.352 118.769L222.302 118.525L222.285 118.441C222.285 118.441 222.285 118.44 222.775 118.341L222.285 118.441L222.266 118.346L222.283 118.252C224.808 104.397 231.725 92.3807 241.31 84.8587ZM223.284 118.337L223.332 118.569C223.376 118.783 223.44 119.098 223.524 119.501C223.692 120.307 223.935 121.467 224.239 122.88C224.848 125.707 225.7 129.548 226.671 133.604C227.643 137.661 228.733 141.929 229.819 145.611C230.91 149.308 231.984 152.368 232.914 154.042C234.825 157.48 239.497 165.068 245.029 172.142C247.794 175.678 250.766 179.075 253.708 181.758C256.659 184.45 259.534 186.38 262.104 187.051C264.611 187.705 267.423 186.976 270.38 185.272C273.331 183.573 276.36 180.94 279.261 177.913C285.061 171.86 290.273 164.31 293.244 159.739C299.135 150.68 303.394 135.445 304.259 122.055C304.187 122.059 304.087 122.064 303.949 122.071C303.45 122.098 303.45 122.098 303.45 122.098L303.45 122.093L303.449 122.076L303.444 122.004C303.44 121.94 303.433 121.843 303.423 121.716C303.404 121.463 303.371 121.088 303.321 120.608C303.219 119.647 303.046 118.262 302.757 116.573C302.179 113.195 301.141 108.608 299.3 103.769C295.614 94.0804 288.744 83.4676 275.993 79.4273C263.202 75.3743 251.283 78.3029 241.927 85.6454C232.582 92.9792 225.785 104.728 223.284 118.337Z" fill="#FFA68A"/>
<path d="M300.049 146.825C300.049 146.825 302.178 147.955 307.245 143.547C312.313 139.139 316.664 130.567 314.573 126.988C312.482 123.409 306.228 128.589 306.228 128.589L300.049 146.825Z" fill="#FFA68A"/>
<path fill-rule="evenodd" clip-rule="evenodd" d="M312.397 125.228C313.424 125.249 314.381 125.668 315.005 126.736C315.608 127.768 315.719 129.104 315.518 130.535C315.316 131.974 314.791 133.567 314.047 135.167C312.561 138.365 310.165 141.669 307.573 143.924C305.001 146.161 303.13 147.033 301.859 147.326C301.221 147.473 300.736 147.473 300.395 147.428C300.224 147.405 300.091 147.371 299.995 147.34C299.946 147.324 299.907 147.309 299.877 147.296C299.862 147.289 299.849 147.284 299.839 147.279L299.825 147.272L299.819 147.269L299.817 147.267L299.815 147.267C299.815 147.266 299.814 147.266 300.049 146.825L299.814 147.266L299.439 147.067L305.8 128.294L305.909 128.204L306.228 128.589C305.909 128.204 305.909 128.204 305.909 128.204L305.911 128.202L305.915 128.199L305.93 128.187C305.943 128.176 305.962 128.161 305.986 128.141C306.035 128.102 306.105 128.047 306.196 127.977C306.376 127.838 306.635 127.645 306.952 127.425C307.585 126.986 308.458 126.433 309.406 125.993C310.344 125.557 311.404 125.208 312.397 125.228ZM306.655 128.887L300.703 146.452C300.922 146.462 301.23 146.445 301.634 146.351C302.694 146.107 304.421 145.34 306.917 143.169C309.392 141.016 311.706 137.83 313.14 134.746C313.856 133.205 314.343 131.708 314.528 130.396C314.713 129.074 314.584 127.998 314.141 127.24C313.719 126.518 313.111 126.243 312.377 126.228C311.609 126.212 310.713 126.488 309.827 126.9C308.95 127.307 308.129 127.826 307.523 128.246C307.221 128.456 306.975 128.639 306.805 128.77C306.745 128.816 306.695 128.856 306.655 128.887Z" fill="#FFA68A"/>
<path d="M223.305 123.728C223.305 123.728 217.917 120.507 214.79 123.069C211.324 125.932 216.354 135.483 218.087 138.139C220.272 141.568 224.586 144.488 228.203 141.361L223.305 123.728Z" fill="#FFA68A"/>
<path fill-rule="evenodd" clip-rule="evenodd" d="M223.562 123.299C223.562 123.299 223.562 123.299 223.305 123.728L223.562 123.299L223.733 123.402L228.77 141.532L228.53 141.739C226.556 143.446 224.364 143.499 222.412 142.669C220.492 141.851 218.797 140.183 217.667 138.41C216.782 137.054 215.072 133.966 214.015 130.842C213.487 129.281 213.111 127.678 213.099 126.262C213.088 124.85 213.44 123.536 214.472 122.683L214.473 122.682C216.235 121.238 218.58 121.461 220.355 121.956C221.259 122.208 222.057 122.543 222.628 122.813C222.915 122.948 223.145 123.068 223.306 123.155C223.386 123.198 223.449 123.234 223.492 123.258C223.514 123.271 223.53 123.28 223.542 123.287L223.556 123.295L223.56 123.298L223.562 123.299ZM222.879 124.061C222.863 124.053 222.847 124.044 222.83 124.034C222.683 123.955 222.469 123.843 222.201 123.717C221.664 123.463 220.92 123.152 220.086 122.919C218.386 122.445 216.473 122.337 215.108 123.455C214.407 124.034 214.089 124.987 214.099 126.254C214.11 127.517 214.45 129.005 214.963 130.522C215.987 133.551 217.657 136.565 218.506 137.866L218.509 137.871C219.563 139.526 221.118 141.031 222.804 141.748C224.379 142.419 226.06 142.406 227.634 141.181L222.879 124.061Z" fill="#FFA68A"/>
<path d="M220.892 120.131C220.892 120.131 250.336 118.963 257.118 88.3127C257.118 88.3127 270.003 120.865 307.567 123.653C307.567 123.653 314.273 100.539 310.487 85.6942C306.7 70.8497 288.22 58.0396 263.391 60.0742C238.562 62.1087 218.066 71.2076 220.892 120.131Z" fill="#5B5863"/>
<path fill-rule="evenodd" clip-rule="evenodd" d="M315.05 249.128C315.325 249.098 315.572 249.296 315.601 249.571L315.602 249.572L315.635 249.874C315.658 250.079 315.693 250.394 315.741 250.829C315.839 251.698 315.992 253.047 316.213 254.967C316.656 258.807 317.372 264.929 318.464 274.055C319.578 283.359 316.413 289.709 311.513 295.551C309.33 298.153 306.796 300.664 304.148 303.286C303.837 303.595 303.524 303.905 303.209 304.217C300.218 307.187 297.108 310.339 294.169 313.989C288.298 321.28 283.912 330.351 280.991 337.617C279.531 341.246 278.44 344.419 277.714 346.682C277.351 347.814 277.08 348.719 276.899 349.339C276.809 349.65 276.741 349.889 276.697 350.051C276.674 350.131 276.657 350.192 276.646 350.233L276.634 350.279L276.631 350.29L276.63 350.293C276.601 350.402 276.536 350.499 276.445 350.566L259.076 363.489C258.998 363.548 258.904 363.582 258.806 363.587C238.954 364.723 221.614 359.635 209.244 354.269C203.058 351.585 198.11 348.831 194.707 346.745C193.005 345.703 191.69 344.827 190.798 344.211C190.352 343.903 190.012 343.66 189.783 343.493C189.668 343.41 189.581 343.346 189.523 343.302L189.456 343.252L189.439 343.239L189.434 343.236L189.433 343.235C189.433 343.235 189.433 343.235 189.736 342.837L189.433 343.235C189.309 343.14 189.236 342.993 189.236 342.837V326.24C189.236 325.964 189.459 325.74 189.736 325.74C190.012 325.74 190.236 325.964 190.236 326.24V342.586C190.275 342.615 190.32 342.648 190.371 342.685C190.594 342.847 190.927 343.085 191.366 343.388C192.244 343.995 193.545 344.86 195.229 345.893C198.599 347.958 203.505 350.69 209.642 353.351C221.886 358.663 239.011 363.688 258.6 362.597L275.71 349.867C275.717 349.842 275.725 349.813 275.733 349.783C275.779 349.618 275.848 349.374 275.939 349.06C276.122 348.431 276.396 347.518 276.762 346.377C277.494 344.095 278.593 340.9 280.063 337.244C283 329.938 287.43 320.764 293.39 313.362C296.366 309.665 299.511 306.48 302.505 303.507C302.819 303.195 303.132 302.885 303.442 302.578C306.096 299.949 308.596 297.473 310.746 294.909C315.528 289.208 318.543 283.125 317.471 274.174C316.379 265.046 315.663 258.923 315.22 255.082C314.998 253.161 314.845 251.811 314.748 250.94C314.699 250.505 314.664 250.19 314.641 249.984L314.607 249.68L314.607 249.679C314.607 249.679 314.607 249.679 315.019 249.634L314.607 249.679C314.577 249.405 314.776 249.158 315.05 249.128Z" fill="#CA325B"/>
<path fill-rule="evenodd" clip-rule="evenodd" d="M168.093 192.172C178.041 182.224 190.285 183.186 207.512 187.027C216.089 188.939 220.783 189.815 224.5 189.5C226.358 189.342 229.154 188.732 230 188.5C230.423 188.384 230.648 188.188 230.843 188.114C230.941 188.077 230.799 187.752 230.843 187.733C230.866 187.723 230.881 187.716 230.89 187.712L230.899 187.708M207.295 188.003C190.048 184.158 178.33 183.349 168.8 192.879C167.661 194.018 166.71 195.809 165.917 198.152C165.126 200.486 164.507 203.325 164.008 206.517C163.009 212.903 162.498 220.639 162.027 228.464C161.987 229.132 161.947 229.8 161.907 230.468C161.48 237.62 161.054 244.752 160.285 250.861C159.864 254.203 159.34 257.251 158.652 259.84C157.966 262.421 157.109 264.581 156.004 266.117C151.796 271.973 145.722 280.695 141.296 290.373C136.864 300.061 134.121 310.63 136.473 320.206C136.539 320.474 136.375 320.744 136.107 320.81C135.839 320.876 135.568 320.712 135.502 320.444C133.07 310.541 135.921 299.718 140.386 289.957C144.856 280.184 150.98 271.395 155.192 265.534C156.193 264.141 157.012 262.118 157.685 259.583C158.357 257.055 158.875 254.055 159.293 250.736C160.057 244.661 160.481 237.563 160.909 230.403C160.949 229.737 160.989 229.07 161.029 228.404C161.499 220.587 162.013 212.803 163.02 206.363C163.524 203.142 164.153 200.241 164.97 197.831C165.783 195.428 166.796 193.469 168.093 192.172M207.295 188.003C215.955 189.934 221.935 190.1 225.768 189.775ZM225.768 189.775C227.684 189.612 229.063 189.327 229.97 189.078ZM229.97 189.078C230.424 188.954 230.76 188.839 230.986 188.754ZM230.986 188.754C231.098 188.711 231.184 188.675 231.243 188.649ZM231.243 188.649C231.272 188.637 231.295 188.626 231.312 188.618ZM231.312 188.618L231.331 188.609ZM231.331 188.609L231.338 188.606ZM231.338 188.606L231.34 188.605ZM231.34 188.605L231.341 188.605ZM231.341 188.605C231.341 188.605 231.342 188.604 231.12 188.156Z" fill="#FD3E72"/>
<path fill-rule="evenodd" clip-rule="evenodd" d="M159.999 291.054C159.316 290.726 158.536 290.681 157.615 291.202C157.173 291.453 156.691 291.93 156.174 292.63C155.662 293.325 155.139 294.204 154.604 295.218C153.717 296.901 152.815 298.914 151.877 301.007C151.682 301.442 151.486 301.881 151.288 302.321C150.141 304.864 148.939 307.442 147.661 309.557C146.396 311.65 145.002 313.385 143.435 314.127C137.941 316.728 134.184 323.033 133.071 329.769C132.8 331.41 132.843 333.969 133.17 336.933C133.495 339.885 134.098 343.201 134.924 346.338C135.751 349.479 136.796 352.419 138 354.634C138.602 355.741 139.234 356.649 139.884 357.309C140.536 357.97 141.179 358.354 141.805 358.47C144.767 359.02 151.159 358.931 157.688 357.887C160.944 357.366 164.213 356.611 167.087 355.59C169.968 354.566 172.413 353.288 174.056 351.741C174.728 351.108 175.422 350.467 176.125 349.82C179.041 347.133 182.094 344.32 184.229 341.351C186.863 337.687 188.002 333.923 185.828 329.966L186.705 329.484C189.146 333.928 187.78 338.124 185.041 341.934C182.84 344.996 179.688 347.899 176.767 350.589C176.074 351.228 175.393 351.855 174.741 352.469C172.955 354.152 170.362 355.488 167.422 356.532C164.475 357.579 161.143 358.347 157.846 358.874C151.268 359.926 144.746 360.034 141.623 359.454C140.727 359.287 139.909 358.759 139.172 358.011C138.434 357.262 137.75 356.267 137.121 355.111C135.865 352.799 134.794 349.774 133.957 346.592C133.118 343.407 132.506 340.043 132.176 337.042C131.846 334.052 131.79 331.384 132.084 329.606C133.231 322.665 137.123 316.009 143.007 313.223C144.285 312.618 145.55 311.117 146.805 309.039C148.048 306.983 149.229 304.455 150.376 301.91C150.571 301.476 150.766 301.041 150.96 300.609C151.898 298.515 152.816 296.466 153.72 294.752C154.266 293.716 154.815 292.788 155.369 292.037C155.919 291.292 156.5 290.684 157.122 290.332C158.33 289.648 159.455 289.683 160.432 290.153C161.376 290.607 162.144 291.447 162.74 292.311C163.34 293.182 163.797 294.124 164.102 294.842C164.255 295.202 164.372 295.509 164.45 295.727C164.489 295.837 164.519 295.923 164.539 295.984C164.549 296.014 164.557 296.038 164.562 296.054L164.569 296.073L164.57 296.078L164.571 296.08L164.571 296.081C164.571 296.081 164.571 296.081 164.094 296.23C163.617 296.38 163.617 296.38 163.617 296.38L163.617 296.38L163.616 296.376L163.611 296.362C163.607 296.349 163.6 296.328 163.591 296.301C163.573 296.248 163.546 296.168 163.509 296.066C163.436 295.863 163.326 295.574 163.182 295.233C162.891 294.55 162.465 293.674 161.916 292.878C161.362 292.075 160.715 291.399 159.999 291.054Z" fill="#DF2B5C"/>
<path fill-rule="evenodd" clip-rule="evenodd" d="M195.468 239.232C195.735 239.163 196.008 239.324 196.077 239.592C197.285 244.28 197.278 251.594 196.982 257.682C196.833 260.737 196.61 263.503 196.424 265.504C196.331 266.505 196.247 267.316 196.187 267.876C196.157 268.157 196.132 268.374 196.115 268.522L196.096 268.691L196.091 268.734L196.089 268.748C196.089 268.748 196.089 268.749 195.592 268.69C195.096 268.63 195.096 268.63 195.096 268.63L195.098 268.616L195.103 268.574L195.122 268.409C195.138 268.263 195.163 268.047 195.193 267.769C195.253 267.213 195.336 266.407 195.428 265.412C195.613 263.42 195.835 260.67 195.983 257.633C196.28 251.537 196.274 244.365 195.108 239.841C195.039 239.574 195.2 239.301 195.468 239.232ZM195.533 269.186C195.259 269.153 195.063 268.904 195.096 268.63L195.592 268.69L196.089 268.749C196.056 269.024 195.807 269.219 195.533 269.186Z" fill="#DF2B5C"/>
<path fill-rule="evenodd" clip-rule="evenodd" d="M206.992 246.477C207.243 246.593 207.352 246.89 207.237 247.14C204.715 252.6 201.251 257.572 197.002 261.827C196.806 262.023 196.49 262.023 196.294 261.828C196.099 261.633 196.099 261.316 196.294 261.121C200.46 256.948 203.857 252.074 206.329 246.721C206.445 246.47 206.742 246.361 206.992 246.477Z" fill="#DF2B5C"/>
<path d="M340.12 268.727C337.553 268.296 335.14 267.214 333.11 265.584C331.081 263.954 329.504 261.831 328.529 259.418C327.553 257.005 327.213 254.382 327.541 251.8C327.868 249.218 328.853 246.764 330.399 244.67C332.453 241.92 335.41 239.923 337.313 237.135C338.463 235.445 339.204 233.511 339.478 231.485C339.752 229.459 339.551 227.398 338.891 225.463C338.232 223.528 337.131 221.773 335.677 220.337C334.223 218.9 332.455 217.821 330.512 217.185C334.337 216.855 338.186 216.893 342.004 217.298C349.84 218.429 354.588 223.892 352.949 232.143C351.31 240.394 341.646 241.468 335.994 245.989C334.509 247.031 333.305 248.424 332.49 250.045C331.674 251.665 331.273 253.463 331.322 255.276C331.458 258.099 332.345 260.834 333.891 263.198C335.438 265.563 337.588 267.472 340.12 268.727Z" fill="white"/>
<path fill-rule="evenodd" clip-rule="evenodd" d="M332.657 217.54C333.895 218.175 335.033 218.997 336.029 219.981C337.538 221.472 338.68 223.293 339.365 225.302C340.049 227.31 340.257 229.449 339.973 231.552C339.689 233.654 338.92 235.662 337.726 237.416L337.726 237.417C336.742 238.859 335.491 240.088 334.26 241.276C334.197 241.337 334.134 241.398 334.071 241.459C332.894 242.594 331.747 243.701 330.8 244.969C329.305 246.993 328.354 249.367 328.037 251.863C327.72 254.36 328.049 256.897 328.992 259.231C329.935 261.565 331.461 263.618 333.423 265.194C334.497 266.056 335.681 266.759 336.939 267.288C335.595 266.212 334.423 264.925 333.473 263.472C331.877 261.033 330.963 258.212 330.823 255.3L330.822 255.29L330.822 255.29C330.771 253.394 331.191 251.515 332.043 249.82C332.893 248.13 334.147 246.677 335.694 245.589C337.147 244.429 338.845 243.498 340.573 242.631C341.12 242.357 341.669 242.09 342.214 241.824C343.412 241.241 344.597 240.664 345.732 240.028C349.015 238.188 351.682 235.955 352.458 232.045C353.255 228.036 352.492 224.761 350.634 222.356C348.771 219.946 345.76 218.347 341.941 217.794C338.857 217.468 335.752 217.383 332.657 217.54ZM340.12 268.727L340.037 269.22C337.386 268.775 334.893 267.657 332.797 265.974C330.701 264.291 329.072 262.098 328.065 259.606C327.058 257.113 326.707 254.404 327.045 251.737C327.383 249.071 328.4 246.535 329.997 244.373L329.999 244.371C330.996 243.036 332.198 241.876 333.36 240.755C333.429 240.689 333.497 240.623 333.565 240.557C334.802 239.363 335.981 238.199 336.899 236.854M340.12 268.727L340.342 268.279C337.89 267.063 335.808 265.215 334.31 262.925C332.813 260.636 331.954 257.989 331.822 255.258C331.776 253.528 332.159 251.815 332.936 250.269C333.715 248.723 334.864 247.393 336.281 246.398L336.294 246.389L336.306 246.379C337.677 245.283 339.301 244.388 341.021 243.525C341.546 243.262 342.081 243.002 342.621 242.739C343.832 242.149 345.061 241.551 346.221 240.901C349.592 239.011 352.577 236.582 353.439 232.24C354.282 227.998 353.49 224.416 351.425 221.744C349.366 219.08 346.089 217.382 342.075 216.803L342.066 216.802L342.056 216.801C338.206 216.393 334.326 216.354 330.469 216.687L328.027 216.898L330.357 217.66C332.226 218.272 333.927 219.31 335.326 220.692C336.725 222.074 337.784 223.763 338.418 225.624C339.053 227.486 339.246 229.469 338.982 231.418C338.719 233.367 338.006 235.227 336.9 236.853" fill="white"/>
<path fill-rule="evenodd" clip-rule="evenodd" d="M311.33 244.989C311.539 244.809 311.855 244.832 312.035 245.042L311.656 245.368L311.277 245.694C311.097 245.485 311.12 245.169 311.33 244.989ZM311.656 245.368L311.277 245.694L311.285 245.703L311.311 245.734C311.333 245.76 311.368 245.801 311.413 245.854C311.503 245.961 311.636 246.12 311.808 246.328C312.152 246.744 312.65 247.355 313.263 248.133C314.491 249.69 316.181 251.916 318.034 254.589C321.742 259.941 326.08 267.063 328.648 274.19C328.742 274.45 329.029 274.585 329.288 274.491C329.548 274.398 329.683 274.111 329.589 273.851C326.977 266.605 322.584 259.4 318.856 254.019C316.99 251.326 315.286 249.084 314.049 247.514C313.43 246.729 312.927 246.112 312.579 245.691C312.405 245.48 312.269 245.319 312.177 245.209C312.131 245.155 312.096 245.113 312.072 245.085L312.044 245.053L312.036 245.043C312.035 245.042 312.035 245.042 311.656 245.368Z" fill="#BC2A52"/>
<path d="M337.744 313.675C343.176 310.188 349.638 308.666 356.055 309.361C366.642 310.605 365.662 313.581 363.816 314.335C361.97 315.088 333.675 321.55 332.752 319.986C331.829 318.423 337.744 313.675 337.744 313.675Z" fill="#4C4956"/>
<path fill-rule="evenodd" clip-rule="evenodd" d="M337.744 313.675C337.431 313.286 337.431 313.286 337.431 313.286L337.426 313.29L337.413 313.3L337.362 313.342C337.318 313.378 337.253 313.43 337.172 313.498C337.01 313.633 336.779 313.827 336.506 314.064C335.96 314.539 335.24 315.19 334.546 315.893C333.856 316.592 333.174 317.362 332.721 318.071C332.495 318.425 332.31 318.789 332.218 319.139C332.126 319.489 332.112 319.887 332.321 320.24C332.429 320.423 332.599 320.519 332.725 320.571C332.858 320.627 333.008 320.661 333.159 320.683C333.461 320.728 333.849 320.738 334.292 320.723C335.185 320.694 336.395 320.563 337.805 320.364C340.632 319.964 344.325 319.277 348.038 318.519C351.753 317.761 355.496 316.931 358.428 316.242C359.893 315.898 361.157 315.589 362.114 315.342C363.053 315.1 363.736 314.908 364.005 314.798C364.543 314.578 365.07 314.178 365.325 313.624C365.601 313.024 365.515 312.336 364.978 311.707C364.469 311.11 363.557 310.561 362.155 310.084C360.742 309.603 358.78 309.178 356.113 308.865L356.109 308.864C349.578 308.157 343.002 309.706 337.474 313.255L337.452 313.269L337.431 313.286L337.744 313.675ZM355.999 309.858C349.705 309.177 343.367 310.667 338.037 314.082L337.994 314.117C337.952 314.151 337.89 314.202 337.811 314.267C337.654 314.398 337.429 314.587 337.162 314.819C336.628 315.284 335.927 315.917 335.258 316.596C334.584 317.279 333.96 317.989 333.564 318.61C333.365 318.921 333.24 319.185 333.185 319.393C333.15 319.525 333.15 319.61 333.159 319.665C333.193 319.674 333.241 319.685 333.306 319.694C333.52 319.726 333.838 319.737 334.259 319.724C335.098 319.696 336.265 319.572 337.665 319.374C340.462 318.978 344.131 318.296 347.838 317.54C351.543 316.784 355.277 315.955 358.199 315.269C359.66 314.926 360.917 314.618 361.864 314.374C362.83 314.125 363.435 313.95 363.627 313.872C364.012 313.715 364.3 313.46 364.417 313.206C364.513 312.997 364.529 312.721 364.218 312.356C363.879 311.96 363.167 311.485 361.832 311.03C360.509 310.58 358.624 310.167 355.999 309.858Z" fill="#4C4956"/>
<path fill-rule="evenodd" clip-rule="evenodd" d="M236.723 185.774C236.998 185.748 237.243 185.949 237.269 186.224C238.153 195.429 245.066 202.675 251.937 209.131C257.66 214.234 262.614 220.139 266.643 226.662L266.651 226.676C276.997 244.659 274.764 262.369 272.201 282.694L272.118 283.352C272.084 283.626 271.834 283.82 271.56 283.785C271.286 283.751 271.091 283.501 271.126 283.227L271.192 282.702C273.767 262.277 275.962 244.869 265.789 227.181C261.809 220.741 256.918 214.911 251.267 209.873L251.257 209.864L251.257 209.864C244.415 203.436 237.198 195.951 236.274 186.32C236.247 186.045 236.449 185.801 236.723 185.774Z" fill="#FEB2C7"/>
<path fill-rule="evenodd" clip-rule="evenodd" d="M237.245 186.114C237.333 186.376 237.191 186.659 236.929 186.746L231.453 188.572C228.241 193.926 227.009 198.358 225.751 204.568C225.748 204.586 225.743 204.604 225.737 204.622C225.636 204.939 225.628 205.279 225.716 205.6C225.909 205.852 226.164 206.051 226.457 206.176C226.467 206.181 226.478 206.186 226.488 206.191L239.788 213.029C239.986 213.131 240.093 213.351 240.05 213.569C238.827 219.896 238.331 226.343 238.571 232.783C238.571 232.79 238.571 232.796 238.571 232.803C238.57 233.918 238.731 235.027 239.05 236.095C239.641 237.433 240.477 238.649 241.514 239.682C241.522 239.69 241.529 239.698 241.537 239.706C242.924 241.289 244.356 242.885 245.805 244.5C249.974 249.144 254.277 253.938 258.004 258.99C263.033 265.805 267.059 273.143 268.348 281.327C268.391 281.6 268.205 281.856 267.932 281.899C267.659 281.942 267.403 281.756 267.36 281.483C266.106 273.523 262.183 266.337 257.199 259.583C253.503 254.574 249.248 249.833 245.088 245.198C243.636 243.581 242.196 241.976 240.796 240.378C239.669 239.253 238.762 237.927 238.122 236.469C238.114 236.451 238.107 236.432 238.101 236.412C237.749 235.244 237.571 234.031 237.571 232.811C237.334 226.423 237.812 220.028 238.998 213.748L226.046 207.088C225.566 206.879 225.153 206.541 224.852 206.113C224.823 206.072 224.801 206.026 224.785 205.978C224.615 205.447 224.612 204.877 224.776 204.344C226.054 198.037 227.328 193.457 230.692 187.897C230.753 187.795 230.849 187.719 230.961 187.681L236.613 185.798C236.875 185.71 237.158 185.852 237.245 186.114Z" fill="#FEB2C7"/>
<path fill-rule="evenodd" clip-rule="evenodd" d="M257.619 88.2912L257.619 88.2911C257.619 88.2911 257.619 88.2911 257.619 88.2911C257.618 88.2912 257.597 88.2922 257.12 88.3132L256.62 88.3352C256.608 88.0593 256.822 87.8259 257.098 87.8137M257.619 88.2912L257.619 88.2919L257.62 88.2961L257.621 88.315C257.622 88.3324 257.623 88.359 257.625 88.3946C257.63 88.4658 257.637 88.5729 257.649 88.7137C257.673 88.9953 257.714 89.4111 257.783 89.9423C257.921 91.0048 258.17 92.5277 258.617 94.3597C259.51 98.0251 261.189 102.918 264.33 107.834C270.595 117.638 282.718 127.603 306.24 128.014C306.516 128.019 306.736 128.247 306.731 128.523C306.726 128.799 306.499 129.019 306.223 129.014C282.367 128.597 269.934 118.46 263.487 108.372C260.273 103.341 258.557 98.3392 257.645 94.5965C257.189 92.7243 256.933 91.1649 256.791 90.071C256.72 89.5239 256.678 89.0931 256.653 88.7975C256.64 88.6497 256.632 88.5357 256.627 88.4578C256.625 88.4189 256.623 88.3891 256.622 88.3685L256.621 88.3448L256.621 88.3382L256.62 88.3363C256.62 88.3357 256.62 88.3352 257.12 88.3132" fill="#5B5863"/>
<path d="M361.428 268.69C364.461 276.523 366.229 284.79 366.665 293.179C366.966 305.575 355.55 312.225 347.431 313.713C339.312 315.201 329.422 314.73 322.809 306.404C316.197 298.077 313.786 280.463 313.786 280.463L361.428 268.69Z" fill="#5B5863"/>
<path fill-rule="evenodd" clip-rule="evenodd" d="M361.735 268.099L361.894 268.509C364.946 276.392 366.725 284.711 367.164 293.153L367.165 293.167C367.32 299.54 364.456 304.435 360.537 307.911C356.629 311.377 351.658 313.447 347.521 314.205C339.337 315.705 329.204 315.26 322.418 306.715C319.042 302.464 316.766 295.891 315.334 290.438C314.616 287.701 314.105 285.227 313.774 283.437C313.609 282.541 313.488 281.817 313.409 281.315C313.369 281.064 313.339 280.869 313.32 280.736C313.31 280.67 313.303 280.619 313.298 280.585L313.292 280.545L313.291 280.532C313.291 280.532 313.29 280.531 313.786 280.464L313.29 280.531L313.229 280.086L361.735 268.099ZM314.347 280.84C314.361 280.933 314.377 281.039 314.396 281.158C314.474 281.653 314.594 282.369 314.758 283.255C315.085 285.027 315.591 287.477 316.302 290.184C317.729 295.62 319.964 302.017 323.201 306.093C329.64 314.201 339.286 314.698 347.341 313.221C351.323 312.491 356.12 310.492 359.874 307.162C363.616 303.843 366.309 299.218 366.165 293.198C365.739 285.011 364.036 276.941 361.119 269.281L314.347 280.84Z" fill="#5B5863"/>
<path d="M372.146 265.826C370.573 265.902 369.033 266.306 367.625 267.013C360.291 270.102 353.253 273.854 346.601 278.222C345.998 278.617 345.32 279.107 345.264 279.823C345.264 280.934 346.526 281.556 347.618 281.707C354.005 282.893 360.56 281.481 366.89 280.068C368.732 279.727 370.528 279.171 372.24 278.41C377.477 275.81 381.056 265.939 372.146 265.826Z" fill="#FFA68A"/>
<path fill-rule="evenodd" clip-rule="evenodd" d="M372.137 265.326L372.152 265.326C374.467 265.355 376.076 266.021 377.037 267.15C377.996 268.278 378.224 269.767 377.992 271.262C377.533 274.224 375.231 277.483 372.462 278.858L372.453 278.863L372.443 278.867C370.698 279.643 368.868 280.21 366.99 280.558C360.683 281.965 354.034 283.404 347.538 282.2C346.939 282.116 346.275 281.902 345.747 281.536C345.21 281.164 344.764 280.595 344.764 279.823V279.803L344.765 279.783C344.806 279.269 345.07 278.864 345.368 278.555C345.662 278.25 346.025 278.002 346.327 277.804C346.327 277.804 346.327 277.804 346.327 277.804L346.601 278.221L346.601 278.222L346.601 278.221M367.415 266.558C368.882 265.825 370.484 265.406 372.122 265.327L372.137 265.326M372.155 266.326C370.656 266.401 369.19 266.787 367.849 267.46L367.834 267.467L367.819 267.474C360.513 270.551 353.502 274.288 346.876 278.64L346.876 278.64C346.575 278.837 346.297 279.032 346.088 279.249C345.888 279.456 345.785 279.648 345.764 279.843C345.771 280.174 345.956 280.465 346.316 280.714C346.688 280.972 347.197 281.144 347.687 281.211L347.698 281.213L347.71 281.215C353.979 282.38 360.435 280.996 366.781 279.58L366.79 279.578L366.799 279.576C368.599 279.243 370.354 278.7 372.027 277.957C374.491 276.729 376.593 273.757 377.004 271.109C377.208 269.797 376.987 268.635 376.275 267.798C375.567 266.966 374.286 266.356 372.155 266.326Z" fill="#F29071"/>
<path d="M375.762 280.463C370.411 281.084 365.124 282.162 359.957 283.685C358.316 284.005 356.754 284.645 355.36 285.568C355.106 285.722 354.891 285.933 354.734 286.185C354.577 286.437 354.482 286.723 354.456 287.019C354.456 287.735 355.191 288.187 355.831 288.488C358.116 289.391 360.522 289.95 362.971 290.146C368.867 290.9 376.158 291.86 381.282 288.036C386.952 283.741 380.415 279.992 375.762 280.463Z" fill="#FFA68A"/>
<path fill-rule="evenodd" clip-rule="evenodd" d="M383.962 285.033C383.828 286.172 383.055 287.32 381.584 288.435L381.581 288.437C378.909 290.431 375.693 291.161 372.438 291.307C369.236 291.451 365.946 291.031 363.038 290.659C362.999 290.654 362.959 290.649 362.919 290.644C360.425 290.443 357.975 289.873 355.647 288.953L355.633 288.947L355.618 288.941C355.285 288.784 354.887 288.57 354.567 288.279C354.242 287.983 353.956 287.567 353.956 287.019V286.997L353.958 286.976C353.99 286.601 354.111 286.24 354.31 285.921C354.507 285.605 354.775 285.34 355.093 285.146C356.532 284.194 358.144 283.532 359.838 283.198C365.025 281.671 370.333 280.59 375.704 279.967L375.712 279.966C378.155 279.718 381.104 280.566 382.735 282.098C383.564 282.876 384.099 283.879 383.962 285.033ZM375.816 280.96C378.025 280.738 380.669 281.529 382.051 282.827C382.73 283.464 383.057 284.174 382.969 284.916C382.88 285.674 382.344 286.604 380.981 287.637C378.53 289.466 375.539 290.167 372.394 290.308C369.278 290.448 366.061 290.037 363.13 289.662L363.023 289.649L363.011 289.648C360.617 289.456 358.264 288.911 356.03 288.029C355.728 287.886 355.444 287.725 355.24 287.539C355.045 287.362 354.963 287.2 354.956 287.039C354.978 286.83 355.047 286.628 355.158 286.45C355.274 286.265 355.432 286.109 355.618 285.997L355.628 285.991L355.636 285.985C356.976 285.098 358.476 284.483 360.053 284.175L360.076 284.171L360.098 284.164C365.237 282.65 370.495 281.578 375.816 280.96Z" fill="#F29071"/>
<path d="M360.161 293.386C358.391 293.376 356.647 293.817 355.094 294.667C354.624 294.943 354.245 295.349 354.001 295.835C353.826 296.355 353.826 296.917 353.999 297.437C354.172 297.957 354.51 298.406 354.962 298.717C355.879 299.312 356.913 299.704 357.995 299.866L368.751 302.184C370.974 302.655 373.668 303.012 375.062 300.79C375.534 300.012 375.784 299.119 375.784 298.209C375.784 297.299 375.534 296.406 375.062 295.628C372.444 292.388 363.816 293.16 360.161 293.386Z" fill="#FFA68A"/>
<path fill-rule="evenodd" clip-rule="evenodd" d="M372.29 293.401C373.571 293.795 374.708 294.394 375.451 295.314L375.472 295.34L375.49 295.368C376.009 296.225 376.284 297.207 376.284 298.209C376.284 299.21 376.009 300.193 375.49 301.049L375.486 301.055C374.689 302.325 373.512 302.851 372.275 302.994C371.061 303.133 369.762 302.909 368.648 302.673L368.646 302.672L357.904 300.359C356.759 300.184 355.663 299.767 354.69 299.137L354.684 299.133L354.678 299.129C354.137 298.757 353.732 298.218 353.525 297.595C353.317 296.972 353.318 296.298 353.527 295.676L353.538 295.642L353.554 295.611C353.841 295.038 354.288 294.561 354.84 294.236L354.847 294.232L354.854 294.229C356.476 293.341 358.297 292.879 360.147 292.886C360.351 292.873 360.571 292.859 360.806 292.844C362.657 292.723 365.395 292.544 368.031 292.708C369.522 292.801 371.004 293.005 372.29 293.401ZM360.875 293.841C360.633 293.857 360.404 293.872 360.192 293.885L360.175 293.886L360.158 293.886C358.475 293.877 356.818 294.295 355.341 295.102C354.968 295.323 354.664 295.644 354.464 296.028C354.335 296.435 354.338 296.873 354.474 297.279C354.612 297.694 354.881 298.053 355.24 298.302C356.096 298.855 357.061 299.22 358.069 299.372L358.085 299.374L368.855 301.695C368.855 301.695 368.855 301.694 368.855 301.695C369.963 301.929 371.123 302.119 372.16 302C373.173 301.884 374.039 301.478 374.637 300.527C375.06 299.828 375.284 299.026 375.284 298.209C375.284 297.401 375.066 296.609 374.652 295.916C374.084 295.229 373.169 294.718 371.996 294.357C370.814 293.993 369.419 293.797 367.969 293.706C365.401 293.546 362.731 293.72 360.875 293.841Z" fill="#F29071"/>
<path fill-rule="evenodd" clip-rule="evenodd" d="M145.152 311.668C145.397 311.796 145.491 312.099 145.363 312.343C142.07 318.633 141.653 326.018 141.426 333.245C141.418 333.521 141.187 333.737 140.911 333.729C140.635 333.72 140.418 333.489 140.427 333.213C140.652 326.01 141.064 318.4 144.477 311.879C144.605 311.635 144.908 311.54 145.152 311.668Z" fill="#DF2B5C"/>
<path fill-rule="evenodd" clip-rule="evenodd" d="M147.288 315.945C147.564 315.943 147.79 316.165 147.792 316.441C147.842 323.775 150.045 330.933 154.126 337.027C158.208 343.121 163.988 347.882 170.751 350.721C171.005 350.828 171.125 351.121 171.018 351.376C170.911 351.63 170.618 351.75 170.363 351.643C163.42 348.729 157.486 343.84 153.295 337.583C149.105 331.327 146.844 323.978 146.792 316.448C146.79 316.172 147.012 315.947 147.288 315.945Z" fill="#DF2B5C"/>
<path d="M257.441 215.358L218.502 216.828L226.207 287.905L262.527 285.569L257.441 215.358Z" fill="#5B5863"/>
<path fill-rule="evenodd" clip-rule="evenodd" d="M257.905 214.84L263.062 286.035L225.762 288.434L217.947 216.348L257.905 214.84ZM219.057 217.307L226.653 287.375L261.992 285.102L256.977 215.876L219.057 217.307Z" fill="#5B5863"/>
<path d="M257.797 235.704L259.982 239.471L248.868 259.741C254.915 258.309 264.541 247.628 266.142 249.738C267.744 251.848 240.334 278.956 233.571 280.652C228.751 281.604 223.791 281.604 218.971 280.652C213.64 286.962 183.744 335.98 183.744 335.98C183.744 335.98 153.188 332.683 159.254 299.189C159.254 299.189 196.93 268.52 207.913 258.705C207.913 258.705 212.34 241.543 219.216 239.697L221.627 245.631C221.627 245.631 258.324 228.865 259.511 230.09C260.698 231.314 259.511 234.178 259.511 234.178C259.511 234.178 239.034 253.016 234.117 254.014" fill="#FFA68A"/>
<path fill-rule="evenodd" clip-rule="evenodd" d="M221.836 246.086C221.835 246.086 221.835 246.086 221.627 245.631L221.836 246.086L221.361 246.303L218.915 240.285C217.525 240.698 216.191 241.867 214.949 243.523C213.601 245.322 212.422 247.616 211.446 249.893C210.471 252.165 209.709 254.4 209.19 256.069C208.93 256.903 208.732 257.594 208.599 258.076C208.532 258.317 208.482 258.505 208.448 258.633C208.431 258.697 208.419 258.746 208.41 258.778L208.401 258.815L208.398 258.826L208.361 258.975L208.246 259.078C202.746 263.993 190.572 274.121 179.783 283.013C174.386 287.461 169.333 291.601 165.629 294.63C163.777 296.145 162.262 297.381 161.21 298.239C160.684 298.668 160.274 299.002 159.996 299.229L159.713 299.459C158.254 307.669 159.029 314 160.985 318.882C162.956 323.799 166.14 327.28 169.518 329.74C172.9 332.203 176.474 333.641 179.208 334.462C180.574 334.873 181.726 335.128 182.535 335.281C182.94 335.358 183.258 335.408 183.474 335.44C183.478 335.44 183.482 335.441 183.486 335.441L183.654 335.167C183.874 334.806 184.198 334.277 184.612 333.6C185.44 332.247 186.629 330.308 188.072 327.96C190.959 323.266 194.863 316.94 198.934 310.417C203.005 303.895 207.243 297.173 210.798 291.687C214.344 286.215 217.231 281.937 218.589 280.329L218.779 280.104L219.068 280.161C223.82 281.1 228.709 281.1 233.461 280.164C234.22 279.97 235.324 279.403 236.705 278.504C238.079 277.609 239.684 276.414 241.425 275.013C244.905 272.213 248.904 268.61 252.646 264.991C256.387 261.371 259.863 257.744 262.3 254.895C263.52 253.468 264.468 252.25 265.059 251.332C265.357 250.87 265.549 250.506 265.645 250.243C265.686 250.129 265.703 250.052 265.708 250.005C265.657 249.969 265.549 249.937 265.294 249.992C264.947 250.067 264.473 250.283 263.874 250.639C262.683 251.348 261.167 252.508 259.477 253.808L259.376 253.886C257.725 255.155 255.928 256.537 254.167 257.695C252.38 258.872 250.584 259.849 248.983 260.228L247.888 260.487L259.408 239.478L257.686 236.508C257.345 236.814 256.971 237.15 256.568 237.51C254.569 239.293 251.852 241.683 248.98 244.104C246.11 246.524 243.079 248.981 240.454 250.897C239.142 251.855 237.925 252.683 236.875 253.305C235.84 253.919 234.92 254.362 234.217 254.504L234.018 253.524C234.544 253.418 235.339 253.053 236.365 252.445C237.376 251.846 238.565 251.038 239.864 250.09C242.462 248.193 245.472 245.754 248.336 243.339C251.198 240.926 253.907 238.543 255.902 236.764C256.899 235.874 257.717 235.135 258.286 234.619C258.57 234.361 258.792 234.158 258.943 234.02L259.088 233.888C259.089 233.884 259.09 233.881 259.091 233.877C259.119 233.803 259.158 233.693 259.202 233.558C259.29 233.285 259.394 232.913 259.463 232.509C259.533 232.101 259.563 231.682 259.516 231.308C259.475 230.985 259.38 230.723 259.229 230.526C259.171 230.528 259.087 230.537 258.972 230.556C258.671 230.606 258.241 230.716 257.689 230.884C256.59 231.22 255.073 231.769 253.272 232.468C249.674 233.864 244.983 235.841 240.323 237.86C235.664 239.878 231.042 241.935 227.585 243.487C225.856 244.263 224.418 244.913 223.413 245.369C222.91 245.597 222.516 245.776 222.247 245.898L221.837 246.085L221.836 246.086ZM259.311 230.53C259.31 230.53 259.306 230.529 259.298 230.527C259.307 230.528 259.311 230.529 259.311 230.53ZM259.511 234.178C259.85 234.546 259.85 234.546 259.849 234.546L259.849 234.546L259.846 234.549L259.79 234.6L259.617 234.758C259.466 234.897 259.243 235.1 258.958 235.359C258.804 235.498 258.633 235.654 258.445 235.824L260.556 239.464L249.907 258.885C251.05 258.436 252.308 257.721 253.618 256.86C255.347 255.722 257.12 254.359 258.779 253.083L258.867 253.015C260.54 251.729 262.109 250.526 263.362 249.78C263.985 249.409 264.573 249.125 265.082 249.015C265.595 248.903 266.169 248.946 266.541 249.436C266.685 249.626 266.717 249.847 266.708 250.03C266.7 250.213 266.651 250.402 266.585 250.585C266.451 250.952 266.212 251.389 265.9 251.873C265.272 252.848 264.289 254.107 263.06 255.545C260.596 258.425 257.096 262.077 253.341 265.71C249.585 269.343 245.563 272.967 242.052 275.792C240.297 277.205 238.663 278.422 237.251 279.342C235.851 280.253 234.624 280.903 233.692 281.137L233.68 281.14L233.668 281.142C228.882 282.087 223.959 282.106 219.168 281.199C217.788 282.903 215.037 286.984 211.637 292.231C208.087 297.71 203.852 304.426 199.782 310.947C195.713 317.467 191.81 323.791 188.924 328.484C187.481 330.831 186.293 332.77 185.465 334.122C185.051 334.798 184.728 335.328 184.507 335.688L184.172 336.238L184.171 336.239C184.171 336.24 184.171 336.24 183.744 335.98C183.69 336.477 183.69 336.477 183.689 336.477L183.682 336.476L183.664 336.474C183.647 336.472 183.624 336.469 183.594 336.465C183.533 336.458 183.444 336.446 183.33 336.429C183.101 336.396 182.769 336.343 182.35 336.264C181.511 336.106 180.324 335.842 178.92 335.42C176.114 334.577 172.429 333.097 168.93 330.549C165.427 327.998 162.11 324.375 160.057 319.254C158.005 314.132 157.232 307.549 158.762 299.099L158.795 298.917L158.938 298.801L159.254 299.189C158.938 298.801 158.938 298.801 158.938 298.801L159.364 298.454C159.642 298.227 160.052 297.893 160.578 297.464C161.63 296.606 163.144 295.37 164.996 293.856C168.699 290.828 173.752 286.688 179.147 282.241C189.868 273.406 201.932 263.37 207.467 258.433C207.471 258.417 207.476 258.398 207.481 258.379C207.516 258.247 207.567 258.054 207.635 257.809C207.771 257.318 207.972 256.617 208.235 255.772C208.761 254.083 209.535 251.813 210.527 249.499C211.517 247.188 212.733 244.813 214.149 242.924C215.554 241.049 217.217 239.572 219.122 239.206L219.525 239.129L221.894 244.96C222.161 244.839 222.534 244.669 223 244.458C224.006 244.002 225.445 243.351 227.175 242.575C230.635 241.021 235.261 238.963 239.926 236.943C244.588 234.923 249.294 232.939 252.91 231.535C254.717 230.834 256.262 230.275 257.397 229.928C257.962 229.755 258.441 229.63 258.808 229.569C258.99 229.539 259.165 229.521 259.318 229.527C259.438 229.532 259.688 229.554 259.87 229.742C260.267 230.151 260.444 230.675 260.508 231.182C260.572 231.689 260.528 232.215 260.449 232.677C260.37 233.142 260.252 233.562 260.154 233.864C260.105 234.016 260.061 234.14 260.028 234.227C260.012 234.271 259.999 234.305 259.989 234.329L259.978 234.357L259.975 234.365L259.974 234.368L259.973 234.369C259.973 234.369 259.973 234.369 259.511 234.178ZM183.744 335.98L183.689 336.477L184.005 336.511L184.171 336.239L183.744 335.98ZM259.511 234.178L259.973 234.369L259.931 234.471L259.849 234.546L259.511 234.178Z" fill="#EA9175"/>
<path fill-rule="evenodd" clip-rule="evenodd" d="M258.397 80.6285C258.551 80.491 258.788 80.5051 258.926 80.66C263.686 86.0213 269.007 90.8579 274.796 95.0871C277.412 96.8003 280.126 98.3575 282.926 99.7506L282.929 99.7523C292.096 104.43 301.664 108.274 311.52 111.237C311.718 111.297 311.83 111.506 311.771 111.704C311.711 111.903 311.502 112.015 311.304 111.956C301.406 108.979 291.796 105.119 282.59 100.421C279.762 99.0138 277.02 97.4404 274.377 95.7093C274.372 95.7058 274.367 95.7022 274.362 95.6984C268.526 91.4363 263.163 86.5617 258.365 81.1579C258.228 81.0031 258.242 80.766 258.397 80.6285Z" fill="#4F4B5A"/>
<path fill-rule="evenodd" clip-rule="evenodd" d="M260.359 72.7277C260.467 72.5506 260.698 72.4943 260.875 72.6018C274.724 81.0112 289.733 87.3439 305.421 91.3975C305.621 91.4493 305.742 91.6539 305.69 91.8544C305.638 92.0549 305.433 92.1755 305.233 92.1236C289.474 88.0517 274.398 81.6904 260.485 73.2428C260.308 73.1353 260.252 72.9047 260.359 72.7277Z" fill="#4F4B5A"/>
<path d="M242.424 170.259C242.424 170.259 248.697 195.239 261.469 197.537C274.242 199.835 285.752 172.143 285.752 172.143C285.752 172.143 271.755 187.609 263.749 187.496C255.742 187.383 242.424 170.259 242.424 170.259Z" fill="#D98369"/>
<path d="M227.412 228.225C229.055 228.225 230.388 226.892 230.388 225.249C230.388 223.605 229.055 222.272 227.412 222.272C225.768 222.272 224.435 223.605 224.435 225.249C224.435 226.892 225.768 228.225 227.412 228.225Z" fill="white"/>
<path fill-rule="evenodd" clip-rule="evenodd" d="M227.412 222.772C226.044 222.772 224.935 223.881 224.935 225.249C224.935 226.616 226.044 227.725 227.412 227.725C228.779 227.725 229.888 226.616 229.888 225.249C229.888 223.881 228.779 222.772 227.412 222.772ZM223.935 225.249C223.935 223.329 225.492 221.772 227.412 221.772C229.331 221.772 230.888 223.329 230.888 225.249C230.888 227.169 229.331 228.725 227.412 228.725C225.492 228.725 223.935 227.169 223.935 225.249Z" fill="#4C4956"/>
</g>
<g filter="url(#filter3_d)">
<path d="M181.11 13H119.89C113.324 13 108 18.3235 108 24.8904V86.1096C108 92.6765 113.324 98 119.89 98H181.11C187.676 98 193 92.6765 193 86.1096V24.8904C193 18.3235 187.676 13 181.11 13Z" fill="white"/>
<path d="M181.11 13H119.89C113.324 13 108 18.3235 108 24.8904V86.1096C108 92.6765 113.324 98 119.89 98H181.11C187.676 98 193 92.6765 193 86.1096V24.8904C193 18.3235 187.676 13 181.11 13Z" stroke="white" stroke-miterlimit="10"/>
</g>
<path d="M165.218 45.7754H164.784V40.8456C164.784 37.0014 163.257 33.3146 160.539 30.5963C157.82 27.878 154.133 26.3508 150.289 26.3508C146.445 26.3508 142.758 27.878 140.04 30.5963C137.322 33.3146 135.794 37.0014 135.794 40.8456V45.7134H135.763C135.229 45.7114 134.699 45.8149 134.204 46.0181C133.71 46.2213 133.26 46.5202 132.881 46.8976C132.503 47.2749 132.202 47.7233 131.997 48.2171C131.792 48.7109 131.686 49.2404 131.686 49.775V68.13C131.686 68.6647 131.792 69.1941 131.997 69.6879C132.202 70.1817 132.503 70.6301 132.881 71.0075C133.26 71.3848 133.71 71.6837 134.204 71.8869C134.699 72.0901 135.229 72.1937 135.763 72.1916H165.218C165.753 72.1937 166.283 72.0901 166.777 71.8869C167.272 71.6837 167.721 71.3848 168.1 71.0075C168.479 70.6301 168.78 70.1817 168.985 69.6879C169.19 69.1941 169.295 68.6647 169.295 68.13V49.8371C169.295 49.3024 169.19 48.773 168.985 48.2792C168.78 47.7854 168.479 47.3369 168.1 46.9596C167.721 46.5822 167.272 46.2833 166.777 46.0801C166.283 45.8769 165.753 45.7734 165.218 45.7754ZM139.469 40.8456C139.469 37.9676 140.612 35.2074 142.647 33.1723C144.682 31.1372 147.442 29.9939 150.32 29.9939C153.198 29.9939 155.958 31.1372 157.994 33.1723C160.029 35.2074 161.172 37.9676 161.172 40.8456V45.7134H139.469V40.8456Z" fill="#FD3E72"/>
<path d="M155.237 55.2007C155.238 54.3717 155.021 53.5571 154.607 52.8385C154.194 52.12 153.599 51.5228 152.882 51.1068C152.165 50.6908 151.351 50.4706 150.522 50.4684C149.693 50.4662 148.878 50.682 148.158 51.0941C147.439 51.5063 146.841 52.1003 146.423 52.8166C146.006 53.533 145.785 54.3464 145.781 55.1754C145.777 56.0044 145.991 56.8199 146.402 57.5399C146.813 58.26 147.406 58.8593 148.122 59.2779C148.286 59.3675 148.418 59.508 148.496 59.6785C148.574 59.849 148.595 60.0402 148.556 60.2236L147.734 63.324C147.619 63.745 147.602 64.1869 147.686 64.6154C147.769 65.0438 147.95 65.4472 148.215 65.7942C148.48 66.1412 148.821 66.4225 149.212 66.6161C149.603 66.8097 150.034 66.9104 150.47 66.9104C150.907 66.9104 151.337 66.8097 151.729 66.6161C152.12 66.4225 152.461 66.1412 152.726 65.7942C152.99 65.4472 153.172 65.0438 153.255 64.6154C153.338 64.1869 153.322 63.745 153.206 63.324L152.4 60.3166C152.355 60.1331 152.374 59.9398 152.453 59.7681C152.531 59.5964 152.666 59.4564 152.834 59.3709C153.57 58.9533 154.181 58.3465 154.604 57.6132C155.026 56.8799 155.245 56.047 155.237 55.2007Z" fill="white"/>
<path d="M167.543 78.6842H133.438C132.976 78.6842 132.533 78.5018 132.205 78.1766C131.877 77.8515 131.69 77.4098 131.686 76.9479C131.69 76.4846 131.876 76.0414 132.204 75.7137C132.531 75.3861 132.975 75.2002 133.438 75.1962H167.543C168.007 75.2002 168.45 75.3861 168.778 75.7137C169.105 76.0414 169.291 76.4846 169.295 76.9479V76.9479C169.291 77.4098 169.105 77.8515 168.777 78.1766C168.449 78.5018 168.005 78.6842 167.543 78.6842V78.6842Z" fill="#FD3E72"/>
<path d="M167.543 84.6095H133.438C132.975 84.6055 132.531 84.4196 132.204 84.092C131.876 83.7643 131.69 83.3211 131.686 82.8578V82.8578C131.69 82.3958 131.877 81.9542 132.205 81.629C132.533 81.3039 132.976 81.1214 133.438 81.1215H167.543C168.005 81.1214 168.449 81.3039 168.777 81.629C169.105 81.9542 169.291 82.3958 169.295 82.8578V82.8578C169.291 83.3211 169.105 83.7643 168.778 84.092C168.45 84.4196 168.007 84.6055 167.543 84.6095Z" fill="#FD3E72"/>
<g filter="url(#filter4_d)">
<path d="M90.1096 291H28.8904C22.3235 291 17 296.324 17 302.89V364.11C17 370.676 22.3235 376 28.8904 376H90.1096C96.6765 376 102 370.676 102 364.11V302.89C102 296.324 96.6765 291 90.1096 291Z" fill="white"/>
<path d="M90.1096 291H28.8904C22.3235 291 17 296.324 17 302.89V364.11C17 370.676 22.3235 376 28.8904 376H90.1096C96.6765 376 102 370.676 102 364.11V302.89C102 296.324 96.6765 291 90.1096 291Z" stroke="white" stroke-miterlimit="10"/>
</g>
<path d="M57.044 334.83L49.0461 334.83C48.6826 334.83 48.4072 335.149 48.4733 335.501C48.4843 335.578 48.4953 335.655 48.5063 335.732C48.5614 336.04 48.6495 336.337 48.7707 336.634C48.958 337.085 49.2554 337.481 49.663 337.833C50.0596 338.186 50.6214 338.351 51.3375 338.351C52.0536 338.351 52.6044 338.175 53.012 337.833C53.3315 337.558 53.5738 337.25 53.7611 336.92C53.8602 336.744 54.0585 336.634 54.2568 336.634L56.4932 336.634C56.9008 336.634 57.1762 337.041 57.044 337.415C56.9448 337.701 56.8236 337.977 56.6804 338.219C56.4271 338.67 56.1517 339.066 55.8432 339.396C55.5347 339.726 55.2153 340.001 54.8627 340.221C54.5102 340.441 54.1797 340.617 53.8492 340.76C53.045 341.068 52.2078 341.233 51.3155 341.233C50.1477 341.211 49.1122 340.969 48.2089 340.507C47.8233 340.298 47.4487 340.034 47.0742 339.715C46.6996 339.396 46.3691 338.989 46.0827 338.505C45.7963 338.021 45.5649 337.437 45.3887 336.755C45.2124 336.073 45.1243 335.292 45.1243 334.379C45.1243 333.476 45.2124 332.684 45.3887 332.002C45.5649 331.32 45.7963 330.737 46.0827 330.242C46.3691 329.747 46.6996 329.339 47.0742 329.009C47.4487 328.679 47.8233 328.415 48.2088 328.206C49.1012 327.722 50.1257 327.469 51.2824 327.425C51.3044 327.425 51.3265 327.425 51.3485 327.425C52.2959 327.469 53.1772 327.667 54.0034 328.019C54.356 328.173 54.7085 328.382 55.061 328.635C55.4135 328.888 55.744 329.196 56.0525 329.571C56.3609 329.945 56.6253 330.385 56.8567 330.902C57.088 331.419 57.2643 332.013 57.3634 332.684C57.3965 332.948 57.4295 333.212 57.4516 333.487C57.4736 333.763 57.4956 334.06 57.4956 334.379C57.5067 334.357 57.5727 334.83 57.044 334.83ZM53.2323 332.662C53.6509 332.662 53.9484 332.222 53.7611 331.848C53.7611 331.848 53.7611 331.837 53.7501 331.837C53.6179 331.562 53.4416 331.309 53.2103 331.078C52.9789 330.858 52.7145 330.671 52.4061 330.539C52.0976 330.407 51.7231 330.341 51.3155 330.341C50.8968 330.341 50.5333 330.407 50.2248 330.539C49.9164 330.671 49.641 330.847 49.4206 331.078C49.1893 331.309 49.013 331.551 48.8698 331.837L48.8698 331.848C48.6826 332.233 48.98 332.673 49.3986 332.673L53.2323 332.673L53.2323 332.662Z" fill="#A12B52"/>
<path d="M43.5273 321.869C41.7647 321.869 40.3436 323.288 40.3436 325.049L40.3436 334.258C40.3436 334.643 40.3215 335.028 40.2775 335.435C40.2334 335.831 40.1232 336.194 39.947 336.524C39.7707 336.854 39.5063 337.129 39.1538 337.35C38.8013 337.57 38.2945 337.68 37.6556 337.68C37.0166 337.68 36.5099 337.57 36.1573 337.35C35.8048 337.129 35.5404 336.854 35.3642 336.524C35.1879 336.194 35.0777 335.831 35.0337 335.435C34.9896 335.039 34.9676 334.643 34.9676 334.258L34.9676 324.763C33.205 324.763 31.7838 326.182 31.7838 327.942L31.7838 334.247C31.7838 334.632 31.7618 335.017 31.7177 335.424C31.6737 335.82 31.5635 336.183 31.3873 336.513C31.211 336.843 30.9466 337.118 30.5941 337.339C30.2416 337.559 29.7348 337.669 29.0959 337.669C28.4569 337.669 27.9502 337.559 27.5976 337.339C27.2451 337.118 26.9807 336.843 26.8044 336.513C26.6282 336.183 26.518 335.82 26.474 335.424C26.4299 335.028 26.4079 334.632 26.4079 334.247L26.4079 327.656C24.6452 327.656 23.2241 329.087 23.2241 330.836L23.2241 334.247C23.2241 335.149 23.3123 335.941 23.4885 336.623C23.6648 337.306 23.8851 337.889 24.1495 338.384C24.4249 338.879 24.7334 339.286 25.0859 339.616C25.4384 339.946 25.802 340.21 26.1655 340.419C27.0138 340.903 27.9942 341.167 29.0848 341.2C30.1975 341.167 31.1779 340.903 32.0372 340.419C32.4008 340.21 32.7643 339.946 33.1058 339.616C33.1939 339.528 33.2821 339.44 33.3702 339.341C33.4583 339.44 33.5465 339.528 33.6346 339.616C33.9871 339.946 34.3507 340.21 34.7142 340.419C35.5625 340.903 36.5429 341.167 37.6335 341.2C38.7462 341.167 39.7267 340.903 40.5859 340.419C40.9495 340.21 41.313 339.946 41.6545 339.616C42.007 339.286 42.3155 338.879 42.5909 338.384C42.8663 337.889 43.0866 337.305 43.2519 336.623C43.4171 335.941 43.4942 335.16 43.4942 334.247L43.5273 321.869Z" fill="#A12B52"/>
<path d="M67.1443 340.397C67.0561 340.65 66.8248 340.826 66.5494 340.826L64.8749 340.826L63.2004 340.826C62.936 340.826 62.6937 340.65 62.6055 340.397L58.7167 328.481C58.5846 328.074 58.882 327.667 59.3116 327.667L61.1954 327.667C61.4598 327.667 61.7022 327.843 61.7903 328.096L64.28 335.699C64.4673 336.271 65.2715 336.271 65.4588 335.699L66.8909 331.32L69.2925 323.97C69.8212 322.374 71.5398 321.494 73.1372 322.022L67.1443 340.397Z" fill="#EF4273"/>
<path d="M82.5029 330.156C82.2165 329.661 81.886 329.254 81.5114 328.924C81.1369 328.594 80.7623 328.329 80.3767 328.12C79.4734 327.636 78.4489 327.372 77.3142 327.339C76.2236 327.339 75.2982 327.504 74.5381 327.823C73.7779 328.142 73.15 328.605 72.6543 329.199C72.1585 329.793 71.806 330.519 71.5747 331.377C71.3543 332.235 71.2332 333.204 71.2332 334.293L71.2332 344.415C71.2332 344.844 71.5747 345.185 72.0043 345.185L73.5466 345.185C73.9762 345.185 74.3177 344.844 74.3177 344.415L74.3177 339.321C74.483 339.552 74.6703 339.75 74.8686 339.926C75.3202 340.311 75.7609 340.586 76.1905 340.751C76.6752 340.938 77.171 341.048 77.6888 341.081C77.7328 341.081 77.7659 341.081 77.8099 341.081C78.8565 341.059 79.7929 340.817 80.6081 340.355C80.9716 340.146 81.3242 339.882 81.6657 339.563C82.0072 339.244 82.3046 338.837 82.58 338.353C82.8444 337.869 83.0647 337.286 83.23 336.614C83.3952 335.943 83.4723 335.151 83.4723 334.249C83.4723 333.347 83.3842 332.565 83.1969 331.883C83.0207 331.223 82.7893 330.64 82.5029 330.156ZM80.1784 335.514C80.1124 335.965 79.9691 336.383 79.7598 336.768C79.5505 337.154 79.2531 337.484 78.8675 337.737C78.4819 338.001 77.9642 338.122 77.3252 338.122C76.6863 338.122 76.1685 337.99 75.7829 337.737C75.3973 337.473 75.0889 337.154 74.8686 336.768C74.6482 336.383 74.505 335.965 74.4389 335.514C74.3728 335.063 74.3398 334.645 74.3398 334.271C74.3398 333.809 74.3728 333.347 74.4279 332.885C74.494 332.422 74.6152 332.015 74.8135 331.641C75.0118 331.267 75.3092 330.97 75.7058 330.75C76.1024 330.53 76.6422 330.409 77.3142 330.409C77.9531 330.409 78.4709 330.541 78.8565 330.794C79.2421 331.058 79.5505 331.377 79.7488 331.762C79.9581 332.147 80.0903 332.576 80.1674 333.017C80.2335 333.468 80.2666 333.886 80.2666 334.26C80.2776 334.645 80.2445 335.063 80.1784 335.514Z" fill="#EF4273"/>
<path d="M95.5694 331.345C95.305 330.552 94.9635 329.903 94.5449 329.386C94.1262 328.869 93.6746 328.473 93.1898 328.198C92.7051 327.923 92.2424 327.714 91.8128 327.593C91.3832 327.461 90.9976 327.395 90.6781 327.373C90.3586 327.351 90.1714 327.351 90.1163 327.351C90.0502 327.351 89.8519 327.362 89.5434 327.373C89.235 327.395 88.8604 327.461 88.4308 327.593C88.0011 327.725 87.5385 327.923 87.0537 328.198C86.569 328.473 86.1173 328.869 85.6987 329.386C85.2801 329.903 84.9386 330.563 84.6742 331.345C84.4098 332.137 84.2666 333.105 84.2666 334.26L84.2666 340.136C84.2666 340.521 84.5751 340.829 84.9606 340.829L86.7343 340.829C87.1198 340.829 87.4283 340.521 87.4283 340.136L87.4283 334.271C87.4283 333.886 87.4613 333.501 87.5274 333.105C87.5935 332.709 87.7257 332.346 87.913 332.016C88.1003 331.686 88.3757 331.411 88.7172 331.202C89.0587 330.982 89.5214 330.883 90.0943 330.883C90.6671 330.883 91.1298 330.993 91.4713 331.202C91.8128 331.422 92.0882 331.686 92.2755 332.016C92.4628 332.346 92.595 332.709 92.6611 333.105C92.7272 333.501 92.7602 333.897 92.7602 334.271L92.7602 340.136C92.7602 340.521 93.0687 340.829 93.4542 340.829L95.2719 340.829C95.6575 340.829 95.966 340.521 95.966 340.136L95.966 334.271C95.966 333.105 95.8338 332.137 95.5694 331.345Z" fill="#EF4273"/>
<circle cx="328" cy="462" r="50" fill="white"/>
<g filter="url(#filter5_d)">
<path d="M343.537 439V484.361" stroke="#FD3E72" stroke-width="6" stroke-linecap="round" stroke-linejoin="round"/>
<path d="M322.416 476.801L313.363 484.361L304.311 476.801" stroke="#FD3E72" stroke-width="6" stroke-linecap="round" stroke-linejoin="round"/>
<path d="M313.363 484.361V439" stroke="#FD3E72" stroke-width="6" stroke-linecap="round" stroke-linejoin="round"/>
<path d="M352.594 446.56L343.541 439L334.488 446.56" stroke="#FD3E72" stroke-width="6" stroke-linecap="round" stroke-linejoin="round"/>
</g>
<defs>
<filter id="filter0_d" x="401.5" y="138.5" width="145" height="125" filterUnits="userSpaceOnUse" color-interpolation-filters="sRGB">
<feFlood flood-opacity="0" result="BackgroundImageFix"/>
<feColorMatrix in="SourceAlpha" type="matrix" values="0 0 0 0 0 0 0 0 0 0 0 0 0 0 0 0 0 0 127 0"/>
<feOffset dy="4"/>
<feGaussianBlur stdDeviation="8"/>
<feColorMatrix type="matrix" values="0 0 0 0 0 0 0 0 0 0 0 0 0 0 0 0 0 0 0.15 0"/>
<feBlend mode="normal" in2="BackgroundImageFix" result="effect1_dropShadow"/>
<feBlend mode="normal" in="SourceGraphic" in2="effect1_dropShadow" result="shape"/>
</filter>
<filter id="filter1_d" x="431.623" y="166" width="84.2878" height="63.9277" filterUnits="userSpaceOnUse" color-interpolation-filters="sRGB">
<feFlood flood-opacity="0" result="BackgroundImageFix"/>
<feColorMatrix in="SourceAlpha" type="matrix" values="0 0 0 0 0 0 0 0 0 0 0 0 0 0 0 0 0 0 127 0"/>
<feOffset dy="4"/>
<feGaussianBlur stdDeviation="2"/>
<feColorMatrix type="matrix" values="0 0 0 0 0 0 0 0 0 0 0 0 0 0 0 0 0 0 0.15 0"/>
<feBlend mode="normal" in2="BackgroundImageFix" result="effect1_dropShadow"/>
<feBlend mode="normal" in="SourceGraphic" in2="effect1_dropShadow" result="shape"/>
</filter>
<filter id="filter2_d" x="463.74" y="194.422" width="44.3245" height="23.8424" filterUnits="userSpaceOnUse" color-interpolation-filters="sRGB">
<feFlood flood-opacity="0" result="BackgroundImageFix"/>
<feColorMatrix in="SourceAlpha" type="matrix" values="0 0 0 0 0 0 0 0 0 0 0 0 0 0 0 0 0 0 127 0"/>
<feOffset dy="3"/>
<feGaussianBlur stdDeviation="1"/>
<feColorMatrix type="matrix" values="0 0 0 0 0 0 0 0 0 0 0 0 0 0 0 0 0 0 0.15 0"/>
<feBlend mode="normal" in2="BackgroundImageFix" result="effect1_dropShadow"/>
<feBlend mode="normal" in="SourceGraphic" in2="effect1_dropShadow" result="shape"/>
</filter>
<filter id="filter3_d" x="91.5" y="0.5" width="118" height="118" filterUnits="userSpaceOnUse" color-interpolation-filters="sRGB">
<feFlood flood-opacity="0" result="BackgroundImageFix"/>
<feColorMatrix in="SourceAlpha" type="matrix" values="0 0 0 0 0 0 0 0 0 0 0 0 0 0 0 0 0 0 127 0"/>
<feOffset dy="4"/>
<feGaussianBlur stdDeviation="8"/>
<feColorMatrix type="matrix" values="0 0 0 0 0 0 0 0 0 0 0 0 0 0 0 0 0 0 0.15 0"/>
<feBlend mode="normal" in2="BackgroundImageFix" result="effect1_dropShadow"/>
<feBlend mode="normal" in="SourceGraphic" in2="effect1_dropShadow" result="shape"/>
</filter>
<filter id="filter4_d" x="0.5" y="278.5" width="118" height="118" filterUnits="userSpaceOnUse" color-interpolation-filters="sRGB">
<feFlood flood-opacity="0" result="BackgroundImageFix"/>
<feColorMatrix in="SourceAlpha" type="matrix" values="0 0 0 0 0 0 0 0 0 0 0 0 0 0 0 0 0 0 127 0"/>
<feOffset dy="4"/>
<feGaussianBlur stdDeviation="8"/>
<feColorMatrix type="matrix" values="0 0 0 0 0 0 0 0 0 0 0 0 0 0 0 0 0 0 0.15 0"/>
<feBlend mode="normal" in2="BackgroundImageFix" result="effect1_dropShadow"/>
<feBlend mode="normal" in="SourceGraphic" in2="effect1_dropShadow" result="shape"/>
</filter>
<filter id="filter5_d" x="289.311" y="428" width="78.2833" height="75.3611" filterUnits="userSpaceOnUse" color-interpolation-filters="sRGB">
<feFlood flood-opacity="0" result="BackgroundImageFix"/>
<feColorMatrix in="SourceAlpha" type="matrix" values="0 0 0 0 0 0 0 0 0 0 0 0 0 0 0 0 0 0 127 0"/>
<feOffset dy="4"/>
<feGaussianBlur stdDeviation="6"/>
<feColorMatrix type="matrix" values="0 0 0 0 0 0 0 0 0 0 0 0 0 0 0 0 0 0 0.1 0"/>
<feBlend mode="normal" in2="BackgroundImageFix" result="effect1_dropShadow"/>
<feBlend mode="normal" in="SourceGraphic" in2="effect1_dropShadow" result="shape"/>
</filter>
<linearGradient id="paint0_linear" x1="425.5" y1="194" x2="533" y2="243.5" gradientUnits="userSpaceOnUse">
<stop stop-color="#FE6556"/>
<stop offset="0.412187" stop-color="#FD3E72"/>
<stop offset="1" stop-color="#49A8FF"/>
</linearGradient>
</defs>
</svg>
