<svg width="23" height="25" viewBox="0 0 23 25" fill="none" xmlns="http://www.w3.org/2000/svg">
<g clip-path="url(#clip0)">
<path d="M19.8 4.34305e-05H2.7C1.99439 -0.00387573 1.31309 0.257581 0.79125 0.732543C0.544301 0.956422 0.346479 1.22909 0.210285 1.53332C0.0740913 1.83755 0.00248784 2.16673 0 2.50004L0 22.5C0 23.1625 0.285 23.8 0.79125 24.2675C1.31309 24.7425 1.99439 25.004 2.7 25H19.8C20.5056 25.004 21.1869 24.7425 21.7088 24.2675C22.215 23.8 22.5 23.1625 22.5 22.5V2.50004C22.5 1.83754 22.215 1.20004 21.7088 0.732543C21.1869 0.257581 20.5056 -0.00387573 19.8 4.34305e-05ZM21.6 21.25C21.5997 21.3056 21.5879 21.3605 21.5654 21.4113C21.5428 21.4621 21.5099 21.5076 21.4688 21.545C21.3815 21.624 21.2677 21.6673 21.15 21.6663H1.35C1.2323 21.6673 1.11851 21.624 1.03125 21.545C0.990134 21.5076 0.957237 21.4621 0.934643 21.4113C0.912049 21.3605 0.900253 21.3056 0.9 21.25V2.91629C0.9 2.80629 0.9475 2.70004 1.03125 2.62254C1.11832 2.54309 1.23213 2.49935 1.35 2.50004H21.15C21.2687 2.50004 21.3837 2.54379 21.4688 2.62254C21.5097 2.6598 21.5425 2.70513 21.5651 2.75569C21.5877 2.80624 21.5996 2.86092 21.6 2.91629V21.25Z" fill="#5B5863"/>
<path d="M15.9325 16.5689C10.4713 19.0164 7.09377 16.9939 4.95502 15.7189C4.84252 15.6651 4.61752 15.7189 4.78627 15.9314C5.51752 16.7814 7.88251 18.7501 10.9788 18.7501C14.0738 18.7501 15.8763 17.1539 16.1575 16.8876C16.3263 16.6226 16.2138 16.4626 15.9325 16.5689Z" fill="#5B5863"/>
<path d="M17.5065 15.7713C17.3378 15.6113 16.6065 15.5588 16.1565 15.6113C15.7065 15.665 14.974 15.9313 15.0303 16.09C15.0865 16.1438 15.1428 16.1438 15.424 16.09C15.7615 16.0375 16.6615 15.9313 16.8315 16.1963C17.0003 16.4088 16.5503 17.5263 16.4378 17.7388C16.3815 17.8988 16.494 17.9513 16.6065 17.8463C16.7753 17.74 17.0565 17.4213 17.2253 16.995C17.5078 16.5163 17.6203 15.8775 17.5078 15.7713H17.5065ZM14.5803 12.6325V8.5375C14.5803 7.84625 13.8478 6.25 11.259 6.25C8.66902 6.25 7.26152 7.7925 7.26152 9.175L9.45777 9.335C9.45777 9.335 9.96402 7.9525 11.0328 7.9525C12.159 7.9525 12.1028 8.8025 12.1028 9.015V9.92C10.6403 9.97375 7.09277 10.345 7.09277 13.2175C7.09277 16.25 11.1465 16.41 12.4965 14.4425C12.554 14.5475 12.609 14.6013 12.6665 14.655L13.7915 15.7175L15.4803 14.175C15.5365 14.1225 14.5803 13.4313 14.5803 12.6325ZM12.1028 12.3138C12.1028 14.5475 9.62652 14.2288 9.62652 12.7925C9.62652 11.4625 11.089 11.1962 12.1028 11.1962V12.3138Z" fill="#5B5863"/>
</g>
<defs>
<clipPath id="clip0">
<rect width="22.5" height="25" fill="white"/>
</clipPath>
</defs>
</svg>
