<svg width="28" height="25" viewBox="0 0 28 25" fill="none" xmlns="http://www.w3.org/2000/svg">
<g clip-path="url(#clip0)">
<path fill-rule="evenodd" clip-rule="evenodd" d="M26.1905 0.30957H1.19048C0.874742 0.30957 0.57194 0.434995 0.348682 0.658253C0.125425 0.88151 0 1.18431 0 1.50005L0 19.3572C0 19.6729 0.125425 19.9757 0.348682 20.199C0.57194 20.4222 0.874742 20.5477 1.19048 20.5477H26.1905C26.5062 20.5477 26.809 20.4222 27.0323 20.199C27.2555 19.9757 27.381 19.6729 27.381 19.3572V1.50005C27.381 1.18431 27.2555 0.88151 27.0323 0.658253C26.809 0.434995 26.5062 0.30957 26.1905 0.30957ZM16.1821 2.5429C16.2929 3.25719 15.9869 3.95838 15.5833 4.45481C15.15 4.98576 14.4048 5.39767 13.6857 5.37624C13.5548 4.69052 13.8917 3.98695 14.3012 3.51076C14.7512 2.98695 15.5226 2.58576 16.1821 2.5429ZM18.019 10.3239C18.0821 11.1858 18.6381 11.9096 19.4702 12.2108L20.0893 12.4346L19.8167 13.012C19.4952 13.6917 19.3357 14.006 18.9238 14.6048C18.225 15.6239 17.3464 16.6667 16.1274 16.6762C15.6155 16.681 15.3262 16.5572 15.0262 16.4298C14.7345 16.306 14.431 16.1762 13.8976 16.1524C13.4071 16.1548 13.1048 16.2834 12.8 16.4143C12.4905 16.5453 12.1774 16.6798 11.6607 16.6798H11.6369C10.3893 16.6679 9.50833 15.6179 8.88095 14.7036C7.29524 12.3941 6.97976 9.48695 8.12976 7.7929C8.9 6.656 10.1476 5.95005 11.3845 5.95005C12.0238 5.95005 12.5214 6.11909 12.9607 6.26909L12.9643 6.27029C13.3 6.38457 13.5881 6.48219 13.881 6.48219C14.1381 6.48219 14.3726 6.39886 14.6702 6.29052C15.0905 6.13814 15.6143 5.94886 16.3702 5.94886C17.4595 5.94886 18.575 6.50481 19.356 7.43457L19.8202 7.98814L19.169 8.32862C18.3881 8.73814 17.9571 9.48338 18.019 10.3239Z" fill="#5B5863"/>
<path d="M21.4283 21.738H5.95215V22.9285C5.95215 23.2442 6.07757 23.547 6.30083 23.7703C6.52409 23.9936 6.82689 24.119 7.14262 24.119H20.2379C20.5536 24.119 20.8564 23.9936 21.0797 23.7703C21.3029 23.547 21.4283 23.2442 21.4283 22.9285V21.738Z" fill="#5B5863"/>
</g>
<defs>
<clipPath id="clip0">
<rect width="27.381" height="25" fill="white"/>
</clipPath>
</defs>
</svg>
