<svg width="22" height="25" viewBox="0 0 22 25" fill="none" xmlns="http://www.w3.org/2000/svg">
<path d="M20.3629 17.0963C18.9553 16.5639 18.0137 15.2858 17.9075 13.7614C17.8033 12.276 18.5313 10.9567 19.8547 10.2319L20.9551 9.62911L20.1693 8.65074C18.849 7.00645 16.9596 6.02388 15.1154 6.02388C13.8372 6.02388 12.9504 6.35842 12.2382 6.62773C11.7353 6.81814 11.3387 6.96753 10.9032 6.96753C10.4066 6.96753 9.91641 6.79289 9.34833 6.59091C8.6035 6.3258 7.75979 6.02493 6.67623 6.02493C4.58273 6.02493 2.47135 7.27471 1.16686 9.28405C-0.780408 12.2812 -0.245988 17.4203 2.43769 21.5042C3.50127 23.1222 4.99196 24.9811 7.10334 25C7.11702 25 7.13069 25 7.14437 25C8.87282 25 9.25154 24.0784 10.9295 24.0679C12.7621 24.1542 12.9935 25.0074 14.7052 24.9958C16.7681 24.9769 18.2557 23.1327 19.4381 21.3306C20.1367 20.2712 20.407 19.7168 20.9509 18.5133L21.4117 17.4929L20.3629 17.0963Z" fill="#5B5863"/>
<path d="M13.7836 3.38115C14.4674 2.50378 14.986 1.26557 14.7977 0C13.6805 0.0767966 12.376 0.786902 11.6133 1.71267C10.921 2.55322 10.3498 3.7988 10.5718 5.01072C11.79 5.04859 13.0514 4.3206 13.7836 3.38115Z" fill="#5B5863"/>
</svg>
