<svg width="27" height="25" viewBox="0 0 27 25" fill="none" xmlns="http://www.w3.org/2000/svg">
<path fill-rule="evenodd" clip-rule="evenodd" d="M6.23021 1.86875H10.3583V23.1312H6.22917C5.07244 23.1312 3.96308 22.6717 3.14515 21.8538C2.32722 21.0359 1.86771 19.9265 1.86771 18.7698V6.22917C1.86771 5.07244 2.32722 3.96308 3.14515 3.14515C3.96308 2.32722 5.07244 1.86771 6.22917 1.86771L6.23021 1.86875ZM12.2271 0V25H6.23021C4.57785 25 2.99318 24.3436 1.82479 23.1752C0.656395 22.0068 0 20.4221 0 18.7698L0 6.22917C0.000276237 4.57699 0.656793 2.99258 1.82515 1.82442C2.99351 0.656252 4.57803 -2.30929e-08 6.23021 0L12.2271 0ZM8.60625 7.47708C8.60625 7.77885 8.54681 8.07766 8.43133 8.35646C8.31585 8.63525 8.14659 8.88857 7.93321 9.10196C7.71982 9.31534 7.4665 9.4846 7.18771 9.60008C6.90891 9.71556 6.6101 9.775 6.30833 9.775C6.00657 9.775 5.70775 9.71556 5.42896 9.60008C5.15016 9.4846 4.89684 9.31534 4.68346 9.10196C4.47008 8.88857 4.30082 8.63525 4.18534 8.35646C4.06985 8.07766 4.01042 7.77885 4.01042 7.47708C4.01042 6.86764 4.25252 6.28315 4.68346 5.85221C5.1144 5.42127 5.69889 5.17917 6.30833 5.17917C6.91778 5.17917 7.50226 5.42127 7.93321 5.85221C8.36415 6.28315 8.60625 6.86764 8.60625 7.47708ZM14.7188 0H18.8656C20.5232 0 22.1129 0.65848 23.285 1.83058C24.4571 3.00268 25.1156 4.5924 25.1156 6.25V18.75C25.1156 20.4076 24.4571 21.9973 23.285 23.1694C22.1129 24.3415 20.5232 25 18.8656 25H14.7188V0ZM22.1948 13.7458C22.1948 14.0782 22.1293 14.4074 22.0021 14.7145C21.8749 15.0216 21.6885 15.3006 21.4534 15.5357C21.2184 15.7707 20.9393 15.9572 20.6322 16.0844C20.3251 16.2116 19.996 16.2771 19.6635 16.2771C19.3311 16.2771 19.002 16.2116 18.6949 16.0844C18.3878 15.9572 18.1087 15.7707 17.8737 15.5357C17.6386 15.3006 17.4522 15.0216 17.325 14.7145C17.1978 14.4074 17.1323 14.0782 17.1323 13.7458C17.1323 13.0745 17.399 12.4307 17.8737 11.956C18.3484 11.4813 18.9922 11.2146 19.6635 11.2146C20.3349 11.2146 20.9787 11.4813 21.4534 11.956C21.9281 12.4307 22.1948 13.0745 22.1948 13.7458Z" fill="#5A5761"/>
</svg>
