<svg width="25" height="25" viewBox="0 0 25 25" fill="none" xmlns="http://www.w3.org/2000/svg">
<path d="M5.56819 2.12045L5.5341 2.15114C5.60732 2.07671 5.68806 2.01006 5.77501 1.95227C7.73183 0.679546 9.99319 0 12.5023 0C14.8477 0 17.0455 0.647727 18.9227 1.775C19.0591 1.85568 19.4296 2.11023 19.6205 2.34091V2.34205C17.8102 0.346591 12.4898 4.62841 12.4898 4.62841C10.6489 3.21023 8.95683 2.24318 7.6966 1.89886C6.64319 1.61136 5.91479 1.85227 5.56819 2.12045ZM21.6705 4.00682C21.6159 3.94659 21.5557 3.88864 21.5 3.825C21.0421 3.32386 20.4796 3.20227 19.9727 3.23523C19.5114 3.37955 17.3784 4.14886 14.75 6.62955C14.75 6.62955 17.7091 9.50682 19.5205 12.4477C21.3307 15.3886 22.4137 17.7 21.7477 20.908C23.8443 18.6096 25.0045 15.6098 25 12.4989C25 9.22046 23.7386 6.2375 21.6705 4.00796V4.00682ZM17.1546 13.7034C16.0011 12.415 14.8092 11.1614 13.5807 9.94432C13.2195 9.58499 12.8559 9.22816 12.4898 8.87386C12.4898 8.87386 11.9125 9.45 11.1625 10.208C10.2023 11.1773 8.95797 12.442 8.26706 13.1795C7.03638 14.492 3.51251 18.6148 3.31479 20.9261C3.31479 20.9261 2.53069 19.0932 4.25115 14.8648C5.37615 12.1011 8.77274 7.95 10.1909 6.59773C10.1909 6.59773 8.89547 5.17159 7.26819 4.18636L7.25797 4.18295L7.21024 4.15C6.42842 3.68409 5.57388 3.325 4.75229 3.27727C3.91251 3.33636 3.38183 3.95 3.38183 3.95C1.20531 6.26435 -0.0044816 9.32298 1.2476e-05 12.5C1.2476e-05 19.4034 5.5966 25 12.5012 25C14.2429 25.0014 15.9657 24.6382 17.5586 23.9336C19.1516 23.229 20.5793 22.1988 21.75 20.9091C21.7489 20.9045 21.4864 19.2568 19.8046 16.8932C19.4091 16.3398 17.9636 14.6114 17.1546 13.7034Z" fill="#5B5863"/>
</svg>
