<svg width="266" height="100" viewBox="0 0 266 100" fill="none" xmlns="http://www.w3.org/2000/svg">
<path d="M119.667 45.0002H133V39.0235C133 38.6939 133.098 38.3717 133.281 38.0977C133.464 37.8237 133.724 37.6101 134.029 37.484C134.333 37.3579 134.668 37.3249 134.992 37.3892C135.315 37.4535 135.612 37.6121 135.845 37.8452L146.822 48.8218C147.134 49.1344 147.31 49.5582 147.31 50.0002C147.31 50.4421 147.134 50.8659 146.822 51.1785L135.845 62.1552C135.612 62.3882 135.315 62.5469 134.992 62.6111C134.668 62.6754 134.333 62.6424 134.029 62.5163C133.724 62.3902 133.464 62.1766 133.281 61.9026C133.098 61.6286 133 61.3064 133 60.9768V55.0002H119.667C119.225 55.0002 118.801 54.8246 118.488 54.512C118.176 54.1994 118 53.7755 118 53.3335V46.6668C118 46.2248 118.176 45.8009 118.488 45.4883C118.801 45.1758 119.225 45.0002 119.667 45.0002Z" fill="white" stroke="white" stroke-width="1.5" stroke-linecap="round" stroke-linejoin="round"/>
<rect width="100" height="100" rx="20" fill="white"/>
<path d="M46.7266 50.9985H38.0399C37.6451 50.9985 37.3459 51.345 37.4177 51.7274C37.4297 51.8111 37.4417 51.8947 37.4536 51.9784C37.5134 52.313 37.6092 52.6357 37.7408 52.9583C37.9442 53.4483 38.2672 53.8785 38.71 54.2609C39.1407 54.6433 39.7509 54.8225 40.5287 54.8225C41.3064 54.8225 41.9046 54.6313 42.3473 54.2609C42.6943 53.9621 42.9576 53.6275 43.161 53.269C43.2687 53.0778 43.484 52.9583 43.6994 52.9583H46.1283C46.571 52.9583 46.8702 53.4005 46.7266 53.8068C46.6189 54.1175 46.4873 54.4162 46.3317 54.6791C46.0565 55.1691 45.7574 55.5993 45.4224 55.9578C45.0874 56.3163 44.7404 56.615 44.3575 56.854C43.9746 57.093 43.6156 57.2843 43.2567 57.4396C42.3832 57.7742 41.4739 57.9535 40.5047 57.9535C39.2364 57.9296 38.1117 57.6667 37.1306 57.1648C36.7118 56.9377 36.305 56.6509 35.8982 56.3043C35.4913 55.9578 35.1324 55.5156 34.8213 54.9898C34.5102 54.464 34.2589 53.8307 34.0675 53.0898C33.8761 52.3489 33.7803 51.5004 33.7803 50.5085C33.7803 49.5286 33.8761 48.6682 34.0675 47.9273C34.2589 47.1864 34.5102 46.553 34.8213 46.0153C35.1324 45.4775 35.4913 45.0354 35.8982 44.6769C36.305 44.3184 36.7118 44.0316 37.1306 43.8045C38.0997 43.2787 39.2125 43.0039 40.4688 42.9561C40.4928 42.9561 40.5167 42.9561 40.5406 42.9561C41.5696 43.0039 42.5268 43.219 43.4242 43.6014C43.8071 43.7687 44.19 43.9957 44.5729 44.2706C44.9557 44.5454 45.3147 44.88 45.6497 45.2863C45.9847 45.6926 46.2719 46.1706 46.5232 46.7323C46.7744 47.2939 46.9659 47.9393 47.0736 48.6682C47.1095 48.955 47.1454 49.2418 47.1693 49.5406C47.1932 49.8393 47.2171 50.162 47.2171 50.5085C47.2291 50.4846 47.3009 50.9985 46.7266 50.9985ZM42.5866 48.6443C43.0413 48.6443 43.3644 48.1663 43.161 47.76C43.161 47.76 43.161 47.7481 43.149 47.7481C43.0054 47.4493 42.814 47.1744 42.5627 46.9235C42.3115 46.6845 42.0243 46.4813 41.6893 46.3379C41.3542 46.1945 40.9474 46.1228 40.5047 46.1228C40.05 46.1228 39.6552 46.1945 39.3202 46.3379C38.9852 46.4813 38.686 46.6725 38.4467 46.9235C38.1955 47.1744 38.004 47.4374 37.8485 47.7481V47.76C37.6451 48.1783 37.9681 48.6563 38.4228 48.6563H42.5866V48.6443Z" fill="#A12B52"/>
<path d="M32.0455 36.9211C30.1311 36.9211 28.5876 38.4627 28.5876 40.3747V50.377C28.5876 50.7952 28.5636 51.2135 28.5158 51.6556C28.4679 52.0858 28.3483 52.4802 28.1568 52.8387C27.9654 53.1972 27.6782 53.496 27.2953 53.735C26.9124 53.974 26.362 54.0935 25.6681 54.0935C24.9741 54.0935 24.4237 53.974 24.0408 53.735C23.6579 53.496 23.3708 53.1972 23.1793 52.8387C22.9879 52.4802 22.8682 52.0858 22.8204 51.6556C22.7725 51.2254 22.7486 50.7952 22.7486 50.377V40.064C20.8342 40.064 19.2907 41.6056 19.2907 43.5176V50.365C19.2907 50.7833 19.2667 51.2015 19.2189 51.6437C19.171 52.0739 19.0514 52.4683 18.8599 52.8268C18.6685 53.1853 18.3813 53.484 17.9984 53.723C17.6156 53.962 17.0652 54.0815 16.3712 54.0815C15.6772 54.0815 15.1268 53.962 14.7439 53.723C14.361 53.484 14.0739 53.1853 13.8824 52.8268C13.691 52.4683 13.5713 52.0739 13.5235 51.6437C13.4756 51.2135 13.4517 50.7833 13.4517 50.365V43.2069C11.5373 43.2069 9.99377 44.7604 9.99377 46.6605V50.365C9.99377 51.3449 10.0895 52.2054 10.2809 52.9463C10.4724 53.6872 10.7117 54.3205 10.9988 54.8583C11.298 55.396 11.633 55.8382 12.0159 56.1967C12.3988 56.5552 12.7936 56.842 13.1885 57.0691C14.1098 57.5949 15.1747 57.8817 16.3592 57.9175C17.5677 57.8817 18.6326 57.5949 19.5659 57.0691C19.9607 56.842 20.3556 56.5552 20.7265 56.1967C20.8222 56.1011 20.9179 56.0055 21.0136 55.8979C21.1094 56.0055 21.2051 56.1011 21.3008 56.1967C21.6837 56.5552 22.0785 56.842 22.4734 57.0691C23.3947 57.5949 24.4596 57.8817 25.6441 57.9175C26.8526 57.8817 27.9175 57.5949 28.8508 57.0691C29.2456 56.842 29.6405 56.5552 30.0114 56.1967C30.3943 55.8382 30.7293 55.396 31.0284 54.8583C31.3276 54.3205 31.5669 53.6872 31.7463 52.9463C31.9258 52.2054 32.0096 51.3569 32.0096 50.365L32.0455 36.9211Z" fill="#A12B52"/>
<path d="M57.6987 57.0452C57.603 57.3201 57.3517 57.5113 57.0526 57.5113H55.2339H53.4152C53.128 57.5113 52.8648 57.3201 52.7691 57.0452L48.5454 44.1033C48.4018 43.6611 48.7249 43.219 49.1915 43.219H51.2376C51.5247 43.219 51.7879 43.4102 51.8837 43.685L54.5878 51.9425C54.7912 52.5639 55.6646 52.5639 55.868 51.9425L57.4235 47.1864L60.0319 39.2037C60.6062 37.4709 62.4728 36.5149 64.2077 37.0885L57.6987 57.0452Z" fill="#EF4273"/>
<path d="M74.3784 45.9198C74.0673 45.3821 73.7084 44.9399 73.3016 44.5814C72.8948 44.2229 72.4879 43.9361 72.0692 43.7091C71.088 43.1832 69.9753 42.8964 68.7429 42.8606C67.5583 42.8606 66.5532 43.0398 65.7277 43.3864C64.9021 43.733 64.2201 44.2349 63.6816 44.8802C63.1432 45.5255 62.7603 46.3142 62.509 47.2463C62.2697 48.1784 62.1381 49.23 62.1381 50.4131V61.4072C62.1381 61.8732 62.509 62.2437 62.9757 62.2437H64.6508C65.1174 62.2437 65.4884 61.8732 65.4884 61.4072V55.8743C65.6678 56.1252 65.8712 56.3403 66.0866 56.5315C66.5772 56.9498 67.0558 57.2485 67.5224 57.4278C68.0489 57.6309 68.5873 57.7505 69.1497 57.7863C69.1975 57.7863 69.2334 57.7863 69.2813 57.7863C70.418 57.7624 71.435 57.4995 72.3204 56.9976C72.7153 56.7705 73.0982 56.4837 73.4691 56.1372C73.84 55.7906 74.1631 55.3485 74.4622 54.8227C74.7493 54.2969 74.9887 53.6635 75.1681 52.9346C75.3476 52.2056 75.4314 51.3452 75.4314 50.3653C75.4314 49.3854 75.3356 48.5369 75.1322 47.796C74.9408 47.079 74.6895 46.4456 74.3784 45.9198ZM71.8538 51.7395C71.782 52.2295 71.6265 52.6836 71.3991 53.1019C71.1718 53.5201 70.8487 53.8786 70.4299 54.1535C70.0112 54.4403 69.4488 54.5717 68.7548 54.5717C68.0609 54.5717 67.4985 54.4283 67.0797 54.1535C66.6609 53.8667 66.3259 53.5201 66.0866 53.1019C65.8473 52.6836 65.6918 52.2295 65.62 51.7395C65.5482 51.2496 65.5123 50.7955 65.5123 50.3892C65.5123 49.8873 65.5482 49.3854 65.608 48.8835C65.6798 48.3816 65.8114 47.9394 66.0268 47.5331C66.2422 47.1268 66.5652 46.8041 66.996 46.5651C67.4267 46.3261 68.013 46.1947 68.7429 46.1947C69.4368 46.1947 69.9992 46.3381 70.418 46.6129C70.8368 46.8997 71.1718 47.2463 71.3872 47.6645C71.6145 48.0828 71.7581 48.5489 71.8418 49.0269C71.9136 49.5168 71.9495 49.9709 71.9495 50.3772C71.9615 50.7955 71.9256 51.2496 71.8538 51.7395Z" fill="#EF4273"/>
<path d="M88.5692 47.2107C88.282 46.3503 87.9111 45.6452 87.4564 45.0836C87.0017 44.5219 86.5112 44.0917 85.9847 43.793C85.4582 43.4942 84.9557 43.2672 84.4891 43.1357C84.0224 42.9923 83.6037 42.9206 83.2567 42.8967C82.9097 42.8728 82.7063 42.8728 82.6464 42.8728C82.5747 42.8728 82.3593 42.8848 82.0243 42.8967C81.6892 42.9206 81.2824 42.9923 80.8158 43.1357C80.3491 43.2791 79.8466 43.4942 79.3201 43.793C78.7937 44.0917 78.3031 44.5219 77.8484 45.0836C77.3938 45.6452 77.0228 46.3622 76.7357 47.2107C76.4485 48.0711 76.293 49.1227 76.293 50.3775V56.7588C76.293 57.1771 76.628 57.5117 77.0468 57.5117H78.9732C79.3919 57.5117 79.727 57.1771 79.727 56.7588V50.3894C79.727 49.9712 79.7629 49.5529 79.8346 49.1227C79.9064 48.6925 80.05 48.2982 80.2534 47.9397C80.4568 47.5811 80.756 47.2824 81.1269 47.0553C81.4978 46.8163 82.0003 46.7088 82.6225 46.7088C83.2447 46.7088 83.7472 46.8283 84.1182 47.0553C84.4891 47.2943 84.7882 47.5811 84.9916 47.9397C85.195 48.2982 85.3386 48.6925 85.4104 49.1227C85.4822 49.5529 85.5181 49.9831 85.5181 50.3894V56.7588C85.5181 57.1771 85.8531 57.5117 86.2719 57.5117H88.2461C88.6649 57.5117 88.9999 57.1771 88.9999 56.7588V50.3894C88.9999 49.1227 88.8563 48.0711 88.5692 47.2107Z" fill="#EF4273"/>
<rect x="166" width="100" height="100" rx="20" fill="white"/>
<path d="M216.872 21.3651C200.945 21.3651 188.034 34.2762 188.034 50.2027C188.034 65.6684 200.21 78.2906 215.498 79.0068C215.954 79.0283 216.411 79.0405 216.872 79.0405C224.255 79.0405 230.989 76.2643 236.091 71.7017C232.71 73.9435 228.758 75.2334 224.535 75.2334C217.667 75.2334 211.517 71.8265 207.38 66.454C204.191 62.69 202.126 57.1259 201.985 50.8815V49.5235C202.126 43.2793 204.191 37.7141 207.379 33.951C211.517 28.5785 217.667 25.1716 224.534 25.1716C228.759 25.1716 232.711 26.4615 236.092 28.7047C231.015 24.163 224.322 21.3925 216.98 21.3652C216.944 21.3652 216.908 21.3638 216.871 21.3638L216.872 21.3651Z" fill="url(#paint0_linear_9374:17772)"/>
<path d="M206.669 33.9379C209.316 30.8137 212.733 28.9298 216.467 28.9298C224.863 28.9298 231.668 38.4481 231.668 50.1892C231.668 61.9304 224.862 71.4487 216.467 71.4487C212.733 71.4487 209.316 69.5656 206.67 66.4413C210.807 71.8138 216.956 75.2207 223.825 75.2207C228.048 75.2207 232.001 73.9308 235.381 71.689C241.283 66.4084 245 58.7331 245 50.1894C245 41.6468 241.284 33.9719 235.383 28.6919C232.002 26.4487 228.049 25.1588 223.825 25.1588C216.957 25.1588 210.807 28.5657 206.67 33.9382" fill="url(#paint1_linear_9374:17772)"/>
<defs>
<linearGradient id="paint0_linear_9374:17772" x1="212.064" y1="22.3051" x2="212.064" y2="78.2021" gradientUnits="userSpaceOnUse">
<stop stop-color="#FF1B2D"/>
<stop offset="0.3" stop-color="#FF1B2D"/>
<stop offset="0.614" stop-color="#FF1B2D"/>
<stop offset="1" stop-color="#A70014"/>
</linearGradient>
<linearGradient id="paint1_linear_9374:17772" x1="225.834" y1="25.5855" x2="225.834" y2="75.0233" gradientUnits="userSpaceOnUse">
<stop stop-color="#9C0000"/>
<stop offset="0.7" stop-color="#FF4B4B"/>
<stop offset="1" stop-color="#FF4B4B"/>
</linearGradient>
</defs>
</svg>
