<svg width="48" height="48" viewBox="0 0 48 48" fill="none" xmlns="http://www.w3.org/2000/svg">
<circle cx="24" cy="24" r="24" fill="#FD3E72"/>
<path d="M11 19.0002L6 25.0002L11 31.0002" stroke="white" stroke-width="3" stroke-linecap="round" stroke-linejoin="round"/>
<path d="M37 19.0002L42 25.0002L37 31.0002" stroke="white" stroke-width="3" stroke-linecap="round" stroke-linejoin="round"/>
<path d="M18.2829 25.3002L18.2829 25.3002C18.2831 25.6424 18.4185 25.9523 18.6366 26.1765C18.8547 26.4006 19.1564 26.5398 19.4893 26.54C20.1553 26.5406 20.6947 25.9861 20.6942 25.3017L20.6911 18.986L20.6911 18.986C20.6896 17.153 22.1404 15.6626 23.925 15.6641H23.925C25.7098 15.6656 27.1633 17.1592 27.1648 18.9931L27.1648 18.9936L27.1679 19.8198C27.1679 19.8199 27.1679 19.82 27.1679 19.8201C27.1685 20.5042 27.7086 21.0591 28.3743 21.0597C29.0403 21.0603 29.5797 20.5058 29.5792 19.8214L29.5792 19.8209L29.5761 18.9947C29.5761 18.9946 29.5761 18.9945 29.5761 18.9944C29.5734 15.794 27.0378 13.1886 23.9235 13.186C20.809 13.1833 18.2772 15.7844 18.2797 18.9844C18.2797 18.9845 18.2797 18.9845 18.2797 18.9845L18.2829 25.3002Z" fill="white" stroke="white" stroke-width="0.3"/>
<path d="M19.9327 33.0002C18.4682 33.0002 17.2767 32.0897 17.2767 30.9706V24.6108C17.2767 23.4917 18.4682 22.5811 19.9327 22.5811H28.2549C29.7195 22.5811 30.911 23.4917 30.911 24.6108V30.9706C30.911 32.0897 29.7195 33.0002 28.2549 33.0002H19.9327Z" fill="white"/>
<path d="M29.512 25.1439C29.512 24.5245 28.7841 24.0178 27.8945 24.0178H20.292C19.4023 24.0178 18.6744 24.5245 18.6744 25.1439V30.4366C18.6744 31.0559 19.4023 31.5627 20.292 31.5627H27.8945C28.7841 31.5627 29.512 31.0559 29.512 30.4366V25.1439Z" fill="white"/>
<path d="M25.316 26.3627C25.316 25.6635 24.6898 25.0968 23.9175 25.0968C23.1452 25.0968 22.5191 25.6635 22.5191 26.3627C22.5191 26.8258 22.7948 27.2357 23.2049 27.4564L22.8159 30.4861H23.952H25.0879L24.6954 27.4205C25.0696 27.1934 25.316 26.8011 25.316 26.3627Z" fill="#FD3E72"/>
</svg>
