<svg width="114" height="114" viewBox="0 0 114 114" fill="none" xmlns="http://www.w3.org/2000/svg">
<path d="M105.157 86.7191L100.547 88.6789C99.1411 89.2388 98.1291 90.5267 97.848 92.0385L96.9484 96.966C96.6111 98.9817 94.8682 100.494 92.8442 100.662L87.8404 100.998C86.3224 101.11 84.9731 101.949 84.2422 103.293L81.8246 107.661C80.8126 109.453 78.7324 110.348 76.7084 109.789L71.8733 108.501C70.4115 108.109 68.8373 108.501 67.7128 109.509L64.0021 112.868C62.4841 114.212 60.179 114.38 58.4924 113.26L54.3319 110.46C53.095 109.621 51.4646 109.453 50.059 110.069L45.4488 112.028C43.5372 112.812 41.3446 112.252 40.1077 110.628L37.0717 106.653C36.1721 105.421 34.7103 104.805 33.1923 104.861L28.1886 105.197C26.1083 105.365 24.253 104.077 23.5783 102.117L22.0041 97.3579C21.5543 95.9021 20.3737 94.8382 18.9119 94.4462L14.0768 93.1584C12.109 92.6544 10.7034 90.8066 10.7597 88.7909L10.8159 83.8074C10.8159 82.2956 10.085 80.8957 8.8481 79.9998L4.68765 77.2001C3.00098 76.0803 2.27009 73.8965 2.94476 71.9927L4.63143 67.2892C5.13743 65.8894 4.91254 64.2656 3.95676 63.0897L0.920757 59.1141C-0.316133 57.4903 -0.316133 55.1946 0.976979 53.6267L4.12543 49.7072C5.0812 48.5313 5.36232 46.9635 4.91254 45.5076L3.33831 40.7482C2.66365 38.5644 3.39454 36.4366 5.13743 35.3168L9.3541 32.6291C10.6472 31.8451 11.4343 30.4453 11.4343 28.8775L11.4905 23.894C11.4905 21.8222 12.9523 20.0864 14.9201 19.5825L19.8114 18.4066C21.2732 18.0707 22.5101 17.0068 23.0161 15.5509L24.7028 10.8475C25.3774 8.88767 27.3452 7.7118 29.3692 7.87979L34.373 8.38373C35.891 8.55171 37.3528 7.87979 38.3086 6.70391L41.457 2.78435C42.7501 1.16053 44.9428 0.656581 46.8544 1.49649L51.4084 3.56826C52.8139 4.35217 54.4444 4.24019 55.7375 3.40028L59.9541 0.712575C61.697 -0.407301 63.9459 -0.183326 65.4639 1.21652L69.1184 4.63214C70.2428 5.69603 71.7608 6.08798 73.2788 5.75202L78.1702 4.57615C80.1942 4.07221 82.2744 5.0241 83.1739 6.8719L85.4791 11.2954C86.21 12.6393 87.5031 13.5352 89.0211 13.7031L94.0248 14.1511C96.0488 14.3191 97.7355 15.8869 98.0166 17.9587L98.7475 22.8861C98.9724 24.398 99.9282 25.6858 101.334 26.3018L105.888 28.3735C107.743 29.2134 108.811 31.2292 108.474 33.245L107.574 38.1724C107.293 39.6843 107.799 41.1961 108.924 42.204L112.578 45.6196C114.096 47.0195 114.434 49.2592 113.422 51.051L110.948 55.4185C110.217 56.7624 110.161 58.3302 110.892 59.6741L113.253 64.0976C114.209 65.8894 113.815 68.1291 112.241 69.529L108.474 72.8326C107.35 73.8405 106.787 75.3523 107.012 76.8642L107.799 81.7916C108.137 83.9194 107.068 85.8792 105.157 86.7191Z" fill="#FFE6EC"/>
<g filter="url(#filter0_d)">
<path d="M34.8916 57.8606C34.0906 57.0375 33.5949 55.9013 33.5939 54.6462L33.5808 38.3781C33.5706 25.3519 43.8769 14.7631 56.5553 14.7738C69.2337 14.7845 79.5571 25.3928 79.5675 38.4216L79.5805 54.6848C79.5825 57.1947 77.6046 59.2277 75.1625 59.2255C72.7204 59.2233 70.7388 57.1871 70.7369 54.6773L70.724 38.4142C70.7176 30.3969 64.3649 23.869 56.5626 23.8625C48.7604 23.8557 42.4181 30.3709 42.4245 38.3854L42.4375 54.6533C42.4395 57.1633 40.4614 59.1961 38.0193 59.1939C36.7983 59.1932 35.6922 58.6834 34.8916 57.8606Z" fill="#5B5863"/>
<path d="M39.869 96.6149C33.7466 96.6149 28.7656 92.8085 28.7656 88.1299V61.5436C28.7656 56.865 33.7466 53.0586 39.869 53.0586H74.6595C80.7818 53.0586 85.7628 56.865 85.7628 61.5436V88.1299C85.7628 92.8085 80.7818 96.6149 74.6595 96.6149H39.869Z" fill="#FD3E72"/>
<path d="M79.919 63.775C79.919 61.1858 76.876 59.0674 73.1569 59.0674H41.3753C37.6562 59.0674 34.6133 61.1858 34.6133 63.775V85.9006C34.6133 88.4898 37.6562 90.6082 41.3753 90.6082H73.1569C76.876 90.6082 79.919 88.4898 79.919 85.9006V63.775Z" fill="#FD3E72"/>
<rect x="22" y="66" width="69" height="18" rx="2" fill="white"/>
<rect x="24" y="68" width="65" height="14" rx="1" fill="#5B5863"/>
<path d="M59 75.5C59 76.8807 57.8807 78 56.5 78C55.1193 78 54 76.8807 54 75.5C54 74.1193 55.1193 73 56.5 73C57.8807 73 59 74.1193 59 75.5Z" fill="white"/>
<circle cx="65.5" cy="75.5" r="2.5" fill="white"/>
<circle cx="74.5" cy="75.5" r="2.5" fill="white"/>
<circle cx="83.5" cy="75.5" r="2.5" fill="white"/>
<circle cx="47.5" cy="75.5" r="2.5" fill="white"/>
<circle cx="38.5" cy="75.5" r="2.5" fill="white"/>
<circle cx="29.5" cy="75.5" r="2.5" fill="white"/>
</g>
<defs>
<filter id="filter0_d" x="10" y="6.77368" width="93" height="105.841" filterUnits="userSpaceOnUse" color-interpolation-filters="sRGB">
<feFlood flood-opacity="0" result="BackgroundImageFix"/>
<feColorMatrix in="SourceAlpha" type="matrix" values="0 0 0 0 0 0 0 0 0 0 0 0 0 0 0 0 0 0 127 0"/>
<feOffset dy="4"/>
<feGaussianBlur stdDeviation="6"/>
<feColorMatrix type="matrix" values="0 0 0 0 0 0 0 0 0 0 0 0 0 0 0 0 0 0 0.1 0"/>
<feBlend mode="normal" in2="BackgroundImageFix" result="effect1_dropShadow"/>
<feBlend mode="normal" in="SourceGraphic" in2="effect1_dropShadow" result="shape"/>
</filter>
</defs>
</svg>
