<svg width="121" height="114" viewBox="0 0 121 114" fill="none" xmlns="http://www.w3.org/2000/svg">
<path d="M110.504 94.5598C110.504 93.4552 109.608 92.5598 108.504 92.5598H35.6786C34.5741 92.5598 33.6786 93.4552 33.6786 94.5598V105.633C33.6786 109.817 29.469 114 25.2594 114H102.085C106.294 114 110.504 109.817 110.504 105.633V94.5598Z" fill="#D32353"/>
<path d="M16.8369 0H85.243C89.4526 0 93.6622 4.18348 93.6622 8.36696V105.633C93.6622 109.816 97.8718 114 102.081 114H25.2561C21.0465 114 16.8369 109.816 16.8369 105.633V0Z" fill="#FD3E72"/>
<rect x="23.6523" y="18.2795" width="28.4672" height="28.2844" rx="1.5" stroke="#FAFAFA"/>
<path d="M37.8816 33.051C40.9681 33.051 43.4702 30.5644 43.4702 27.497C43.4702 24.4297 40.9681 21.9431 37.8816 21.9431C34.7951 21.9431 32.293 24.4297 32.293 27.497C32.293 30.5644 34.7951 33.051 37.8816 33.051Z" fill="#FAFAFA" stroke="#FAFAFA" stroke-width="1.5" stroke-linecap="round" stroke-linejoin="round"/>
<path d="M29.125 45.9254C29.125 46.1325 29.2929 46.3004 29.5 46.3004H46.2658C46.4729 46.3004 46.6408 46.1325 46.6408 45.9254V43.1484C46.6408 41.5752 46.012 40.0669 44.8933 38.9552C43.7747 37.8436 42.2581 37.2195 40.6772 37.2195H35.0886C33.5077 37.2195 31.9911 37.8436 30.8725 38.9552C29.7539 40.0669 29.125 41.5752 29.125 43.1484V45.9254Z" fill="#FAFAFA" stroke="#FAFAFA" stroke-width="0.75" stroke-linecap="round" stroke-linejoin="round"/>
<rect x="57.8828" y="18.8262" width="28.4148" height="6.27522" rx="2" fill="#ED2B60"/>
<rect x="57.8828" y="27.1929" width="28.4148" height="6.27522" rx="2" fill="#ED2B60"/>
<rect x="57.8828" y="35.5596" width="28.4148" height="11.5046" rx="2" fill="#ED2B60"/>
<rect x="23.1523" y="55.4314" width="44.2008" height="5.22935" rx="1" fill="#ED2B60"/>
<rect x="57.8828" y="63.7981" width="28.4148" height="5.22935" rx="1" fill="#ED2B60"/>
<rect x="64.1953" y="72.1648" width="22.1004" height="5.22935" rx="1" fill="#ED2B60"/>
<rect x="42.0938" y="80.5315" width="44.2008" height="5.22935" rx="1" fill="#ED2B60"/>
<rect x="48.4102" y="88.8992" width="37.8864" height="5.22935" rx="1" fill="#ED2B60"/>
<rect x="48.4102" y="97.2659" width="37.8864" height="5.22935" rx="1" fill="#ED2B60"/>
<rect x="23.1523" y="63.7981" width="31.572" height="5.22935" rx="1" fill="#ED2B60"/>
<rect x="23.1523" y="72.1648" width="37.8864" height="5.22935" rx="1" fill="#ED2B60"/>
<rect x="23.1523" y="80.5315" width="15.786" height="5.22935" rx="1" fill="#ED2B60"/>
<rect x="23.1523" y="88.8992" width="22.1004" height="5.22935" rx="1" fill="#ED2B60"/>
<rect x="23.1523" y="97.2659" width="22.1004" height="5.22935" rx="1" fill="#ED2B60"/>
<rect x="70.5117" y="55.4314" width="15.786" height="5.22935" rx="1" fill="#ED2B60"/>
<path d="M0 11.0737C0 12.1783 0.895431 13.0737 2 13.0737H74.8253C75.9298 13.0737 76.8253 12.1783 76.8253 11.0737V8.36731C76.8253 4.18383 81.0349 0.000349045 85.2445 0.000349045H8.41921C4.2096 0.000349045 0 4.18383 0 8.36731V11.0737Z" fill="#D32353"/>
<g filter="url(#filter0_d)">
<ellipse cx="94.193" cy="44.4496" rx="22.6266" ry="22.4862" fill="#5B5863"/>
</g>
<ellipse cx="94.196" cy="44.4492" rx="19.4694" ry="19.3486" fill="white"/>
<ellipse cx="94.1966" cy="44.449" rx="17.3646" ry="17.2569" fill="#FD3E72"/>
<path d="M99.981 47.5626C99.981 47.2485 99.9496 46.9453 99.9077 46.6638C99.8554 46.3822 99.7926 46.1331 99.7088 45.9057C99.625 45.6891 99.5203 45.4726 99.3737 45.2668C99.2271 45.0719 99.0805 44.8878 98.9339 44.7362C98.7873 44.5846 98.5988 44.4438 98.3684 44.2922C98.138 44.1406 97.9286 44.0106 97.7192 43.9023C97.5097 43.794 97.2584 43.6857 96.9652 43.5666C96.6615 43.4583 96.3788 43.35 96.1275 43.2634C95.8762 43.1768 95.562 43.0793 95.206 42.9602C94.3892 42.7003 93.8132 42.4404 93.4677 42.1805C93.1116 41.9314 92.9441 41.6065 92.9441 41.2167C92.9441 40.8268 93.0907 40.5128 93.3944 40.2962C93.6876 40.0796 94.1169 39.9605 94.6614 39.9605C95.7296 39.9605 96.8395 40.372 97.9705 41.195L99.6564 39.0075C99.1747 38.6069 98.6093 38.2495 97.96 37.9354C97.3108 37.6322 96.6615 37.4048 96.0018 37.2532V34.5134H93.7609V37.1341C92.5148 37.2857 91.5409 37.7514 90.8393 38.5311C90.1377 39.3108 89.7921 40.2745 89.7921 41.4224C89.7921 41.704 89.8026 41.9639 89.8445 42.2021C89.8864 42.4512 89.9492 42.6786 90.033 42.8844C90.1167 43.101 90.211 43.2959 90.3157 43.4692C90.4204 43.6533 90.5461 43.8265 90.7032 43.9781C90.8498 44.1297 91.0068 44.2705 91.1639 44.4005C91.3105 44.5304 91.499 44.6604 91.7084 44.7687C91.9179 44.8878 92.1168 44.9961 92.3053 45.0827C92.4938 45.1802 92.7137 45.2776 92.965 45.3643C93.2164 45.4617 93.4363 45.5484 93.6457 45.6133C93.8551 45.6783 94.096 45.7541 94.3682 45.8407C94.6719 45.9382 94.9337 46.0248 95.1536 46.1115C95.3735 46.1981 95.5829 46.2956 95.7714 46.3822C95.9599 46.4797 96.1065 46.5771 96.2322 46.6638C96.3579 46.7612 96.4626 46.8695 96.5463 46.9778C96.6301 47.0969 96.6929 47.2269 96.7348 47.3568C96.7767 47.4868 96.7977 47.6384 96.7977 47.79C96.7977 48.2232 96.6301 48.5589 96.3055 48.8079C95.9809 49.0678 95.5515 49.187 95.0175 49.187C94.3997 49.187 93.7504 49.0462 93.0698 48.7538C92.3891 48.4722 91.7608 48.0391 91.1953 47.4651L89.457 49.6526C90.6613 50.9088 92.0959 51.656 93.7609 51.9051V54.385H96.0018V51.9159C97.2375 51.7318 98.2009 51.2553 98.9129 50.4865C99.625 49.7284 99.981 48.7538 99.981 47.5626Z" fill="white"/>
<defs>
<filter id="filter0_d" x="67.5664" y="19.9634" width="53.2532" height="52.9724" filterUnits="userSpaceOnUse" color-interpolation-filters="sRGB">
<feFlood flood-opacity="0" result="BackgroundImageFix"/>
<feColorMatrix in="SourceAlpha" type="matrix" values="0 0 0 0 0 0 0 0 0 0 0 0 0 0 0 0 0 0 127 0"/>
<feOffset dy="2"/>
<feGaussianBlur stdDeviation="2"/>
<feColorMatrix type="matrix" values="0 0 0 0 0 0 0 0 0 0 0 0 0 0 0 0 0 0 0.15 0"/>
<feBlend mode="normal" in2="BackgroundImageFix" result="effect1_dropShadow"/>
<feBlend mode="normal" in="SourceGraphic" in2="effect1_dropShadow" result="shape"/>
</filter>
</defs>
</svg>
