<svg width="25" height="25" viewBox="0 0 25 25" fill="none" xmlns="http://www.w3.org/2000/svg">
<path d="M4.69287 1.13293C3.90186 1.44055 3.23291 1.85071 2.56396 2.51965C1.89502 3.18372 1.48486 3.85754 1.17725 4.64368C0.879395 5.4054 0.679199 6.27942 0.620605 7.55872C0.562012 8.83801 0.547363 9.24817 0.547363 12.5099C0.547363 15.7716 0.562012 16.1818 0.620605 17.4611C0.679199 18.7404 0.884277 19.6144 1.17725 20.3761C1.48486 21.1671 1.89502 21.8361 2.56396 22.505C3.23291 23.1739 3.90186 23.5841 4.69287 23.8917C5.45459 24.1896 6.32861 24.3898 7.60791 24.4484C8.88721 24.507 9.29736 24.5216 12.5591 24.5216C15.8208 24.5216 16.231 24.507 17.5103 24.4484C18.7895 24.3898 19.6636 24.1847 20.4253 23.8917C21.2163 23.5841 21.8853 23.1739 22.5542 22.505C23.2231 21.8361 23.6333 21.1671 23.9409 20.3761C24.2388 19.6144 24.439 18.7404 24.4976 17.4611C24.5562 16.1818 24.5708 15.7716 24.5708 12.5099C24.5708 9.24817 24.5562 8.83801 24.4976 7.55872C24.439 6.27942 24.2339 5.4054 23.9409 4.64368C23.6333 3.85754 23.2231 3.18372 22.5591 2.51965C21.8901 1.85071 21.2212 1.44055 20.4302 1.13293C19.6685 0.835083 18.7944 0.634888 17.5151 0.576294C16.2358 0.5177 15.8257 0.503052 12.564 0.503052C9.30225 0.503052 8.89209 0.5177 7.61279 0.576294C6.32861 0.630005 5.45459 0.835083 4.69287 1.13293ZM17.4126 2.7345C18.5845 2.78821 19.2192 2.98352 19.644 3.14954C20.2056 3.36926 20.606 3.62805 21.0259 4.04797C21.4458 4.4679 21.7046 4.86829 21.9243 5.42981C22.0903 5.85461 22.2856 6.48938 22.3394 7.66125C22.3979 8.9259 22.4077 9.30676 22.4077 12.5148C22.4077 15.7228 22.3931 16.1036 22.3394 17.3683C22.2856 18.5402 22.0903 19.1749 21.9243 19.5997C21.7046 20.1613 21.4458 20.5616 21.0259 20.9816C20.606 21.4015 20.2056 21.6603 19.644 21.88C19.2192 22.046 18.5845 22.2413 17.4126 22.295C16.1479 22.3536 15.7671 22.3634 12.5591 22.3634C9.35107 22.3634 8.97021 22.3488 7.70557 22.295C6.53369 22.2413 5.89893 22.046 5.47412 21.88C4.9126 21.6603 4.51221 21.4015 4.09229 20.9816C3.67236 20.5616 3.41357 20.1613 3.19385 19.5997C3.02783 19.1749 2.83252 18.5402 2.77881 17.3683C2.72021 16.1036 2.71045 15.7228 2.71045 12.5148C2.71045 9.30676 2.7251 8.9259 2.77881 7.66125C2.83252 6.48938 3.02783 5.85461 3.19385 5.42981C3.41357 4.86829 3.67236 4.4679 4.09229 4.04797C4.51221 3.62805 4.9126 3.36926 5.47412 3.14954C5.89893 2.98352 6.53369 2.78821 7.70557 2.7345C8.97021 2.6759 9.35107 2.66614 12.5591 2.66614C15.7671 2.66614 16.1479 2.6759 17.4126 2.7345Z" fill="url(#paint0_radial)"/>
<path d="M6.39307 12.5146C6.39307 15.9229 9.15674 18.6816 12.5601 18.6816C15.9634 18.6816 18.7271 15.918 18.7271 12.5146C18.7271 9.11133 15.9683 6.34766 12.5601 6.34766C9.15186 6.34766 6.39307 9.10645 6.39307 12.5146ZM16.564 12.5146C16.564 14.7266 14.772 16.5186 12.5601 16.5186C10.3481 16.5186 8.55615 14.7266 8.55615 12.5146C8.55615 10.3027 10.3481 8.51074 12.5601 8.51074C14.772 8.51074 16.564 10.3027 16.564 12.5146Z" fill="url(#paint1_radial)"/>
<path d="M18.9761 7.54395C19.7716 7.54395 20.4165 6.89904 20.4165 6.10352C20.4165 5.30799 19.7716 4.66309 18.9761 4.66309C18.1805 4.66309 17.5356 5.30799 17.5356 6.10352C17.5356 6.89904 18.1805 7.54395 18.9761 7.54395Z" fill="#654C9F"/>
<defs>
<radialGradient id="paint0_radial" cx="0" cy="0" r="1" gradientUnits="userSpaceOnUse" gradientTransform="translate(0.984471 22.3226) rotate(-3.00009) scale(34.7321 29.522)">
<stop stop-color="#FED576"/>
<stop offset="0.2634" stop-color="#F47133"/>
<stop offset="0.6091" stop-color="#BC3081"/>
<stop offset="1" stop-color="#4C63D2"/>
</radialGradient>
<radialGradient id="paint1_radial" cx="0" cy="0" r="1" gradientUnits="userSpaceOnUse" gradientTransform="translate(6.61676 17.5506) rotate(-3.00009) scale(17.8354 15.1599)">
<stop stop-color="#FED576"/>
<stop offset="0.2634" stop-color="#F47133"/>
<stop offset="0.6091" stop-color="#BC3081"/>
<stop offset="1" stop-color="#4C63D2"/>
</radialGradient>
</defs>
</svg>
