<svg width="560" height="593" viewBox="0 0 560 593" fill="none" xmlns="http://www.w3.org/2000/svg">
<circle cx="280" cy="296" r="280" fill="#FFF2F6"/>
<ellipse cx="280" cy="295" rx="207" ry="206" fill="#FFE0E9"/>
<circle cx="280" cy="295" r="143" fill="#FFC4D4"/>
<path d="M209.997 0.360352H477.691C484.934 0.360352 490.805 6.2319 490.805 13.4748V409.048C490.805 416.291 484.934 422.162 477.691 422.162H209.997C202.754 422.162 196.883 416.291 196.883 409.048V13.4748C196.883 6.2319 202.754 0.360352 209.997 0.360352Z" fill="#5B5863"/>
<path d="M209.998 422.162H209.091C208.712 422.138 208.336 422.091 207.963 422.019C207.442 421.943 206.927 421.831 206.421 421.682C204.992 421.26 203.643 420.603 202.43 419.739C200.752 418.536 199.38 416.956 198.425 415.125C197.835 414.024 197.399 412.847 197.129 411.626C196.918 410.268 196.84 408.892 196.896 407.518C196.896 404.628 196.896 401.453 196.896 398.032C196.896 391.164 196.896 383.246 196.896 374.343C196.896 338.68 196.896 287.103 196.987 223.371C196.987 191.492 196.987 156.581 196.987 119.116C196.987 100.378 196.987 81.0169 196.987 61.0341C196.987 51.0384 196.987 40.9132 196.987 30.6583V15.1075C196.929 13.808 196.999 12.5059 197.194 11.2198C197.405 9.95503 197.812 8.73083 198.399 7.59131C199.592 5.29522 201.436 3.40198 203.7 2.14854C204.846 1.55667 206.066 1.12083 207.328 0.852638C208.613 0.647352 209.915 0.564909 211.216 0.606419H477.652C480.647 0.592549 483.551 1.63073 485.858 3.53973C488.165 5.44874 489.728 8.10731 490.274 11.0514C490.503 12.5256 490.581 14.0192 490.508 15.5092V64.8829C490.508 88.572 490.508 111.898 490.508 134.861C490.508 180.736 490.508 224.965 490.508 267.121C490.508 309.276 490.508 349.307 490.508 386.784V400.715C490.508 403.022 490.508 405.315 490.508 407.596C490.541 408.721 490.489 409.848 490.352 410.965C490.19 412.066 489.89 413.141 489.458 414.166C488.576 416.193 487.191 417.961 485.433 419.302C483.675 420.643 481.603 421.511 479.415 421.825C478.326 421.947 477.231 421.99 476.136 421.955H416.253L265.294 422.045H224.253H213.574H209.933H213.574H224.253H265.294L416.253 422.136H466.287H476.136C477.253 422.172 478.37 422.125 479.48 421.993C482.335 421.604 484.985 420.296 487.031 418.266C489.077 416.237 490.406 413.597 490.819 410.745C490.967 409.607 491.019 408.458 490.974 407.311C490.974 405.03 490.974 402.736 490.974 400.43V386.758C490.974 349.281 490.974 309.237 490.974 267.095C490.974 224.952 490.974 180.71 490.974 134.836C490.974 111.915 490.974 88.5892 490.974 64.857V15.5611C491.04 14.0319 490.957 12.4999 490.728 10.9866C490.185 7.91878 488.601 5.13176 486.244 3.09454C483.816 1.11616 480.784 0.0278404 477.652 0.0103024H211.397C210.057 -0.0317584 208.716 0.0550346 207.393 0.269483C206.078 0.524746 204.804 0.960852 203.609 1.56538C201.248 2.86957 199.327 4.84492 198.088 7.24141C197.463 8.42809 197.026 9.70463 196.792 11.0254C196.594 12.3112 196.52 13.6132 196.572 14.9131V30.4639C196.572 40.7274 196.572 50.8527 196.572 60.8397C196.572 80.7966 196.572 100.157 196.572 118.922C196.572 156.386 196.572 191.298 196.572 223.177C196.572 286.909 196.637 338.512 196.663 374.149C196.663 383.052 196.663 390.996 196.663 397.838C196.663 401.259 196.663 404.434 196.663 407.324C196.615 408.707 196.702 410.091 196.922 411.458C197.195 412.685 197.631 413.871 198.218 414.983C199.195 416.821 200.583 418.409 202.274 419.622C203.504 420.484 204.871 421.133 206.317 421.54C206.823 421.688 207.338 421.801 207.859 421.877C208.237 421.941 208.618 421.98 209 421.993L209.998 422.162Z" fill="#263238"/>
<path d="M207.239 30.4517H482.63V382.703H207.239V30.4517Z" fill="#FFF3F6"/>
<path d="M207.236 382.714C207.236 380.381 207.353 239.569 207.508 30.4499L207.236 30.722L482.588 30.748L482.29 30.4499C482.29 161.076 482.29 282.359 482.29 382.714L482.536 382.468L207.145 382.714L482.588 382.96H482.834V382.714C482.834 282.359 482.834 161.115 482.834 30.4499V30.1519H482.588H207.223H206.964V30.411C207.132 239.569 207.236 380.381 207.236 382.714Z" fill="#263238"/>
<path d="M332.567 400.935C332.567 403.168 333.229 405.35 334.47 407.207C335.711 409.063 337.475 410.51 339.538 411.364C341.601 412.218 343.871 412.441 346.061 412.004C348.251 411.567 350.262 410.491 351.84 408.911C353.418 407.331 354.492 405.319 354.926 403.129C355.36 400.938 355.135 398.668 354.279 396.606C353.422 394.544 351.974 392.782 350.116 391.543C348.258 390.305 346.074 389.645 343.841 389.647C340.85 389.651 337.982 390.841 335.868 392.958C333.754 395.074 332.567 397.943 332.567 400.935Z" fill="#455A64"/>
<path d="M314.916 18.4643H374.955C376.065 18.4643 377.13 18.0233 377.915 17.2383C378.7 16.4533 379.141 15.3887 379.141 14.2785C379.141 13.1684 378.7 12.1037 377.915 11.3188C377.13 10.5338 376.065 10.0928 374.955 10.0928H314.916C313.806 10.0928 312.741 10.5338 311.956 11.3188C311.171 12.1037 310.73 13.1684 310.73 14.2785C310.73 15.3887 311.171 16.4533 311.956 17.2383C312.741 18.0233 313.806 18.4643 314.916 18.4643Z" fill="#455A64"/>
<path d="M210.207 57.3148C210.207 57.4314 271.01 57.5351 345.991 57.5351C420.972 57.5351 481.788 57.4314 481.788 57.3148C481.788 57.1982 420.998 57.0945 345.991 57.0945C270.984 57.0945 210.207 57.1982 210.207 57.3148Z" fill="#DCB7C0"/>
<path d="M295.166 45.5225C295.166 45.6392 315.901 45.7429 341.482 45.7429C367.063 45.7429 387.81 45.6392 387.81 45.5225C387.81 45.4059 367.076 45.3022 341.482 45.3022C315.888 45.3022 295.166 45.4059 295.166 45.5225Z" fill="#DCB7C0"/>
<path d="M238.632 43.9808C238.632 44.5344 238.796 45.0756 239.104 45.5359C239.412 45.9962 239.849 46.355 240.36 46.5668C240.872 46.7787 241.434 46.8341 241.977 46.7261C242.52 46.6181 243.019 46.3515 243.411 45.9601C243.802 45.5686 244.069 45.0698 244.177 44.5269C244.285 43.9839 244.229 43.4211 244.017 42.9096C243.806 42.3981 243.447 41.961 242.986 41.6534C242.526 41.3458 241.985 41.1816 241.431 41.1816C240.689 41.1816 239.977 41.4766 239.452 42.0015C238.927 42.5264 238.632 43.2384 238.632 43.9808Z" fill="#00B67A"/>
<path d="M229.171 43.9808C229.171 44.5344 229.335 45.0756 229.643 45.5359C229.951 45.9962 230.388 46.355 230.899 46.5668C231.411 46.7787 231.973 46.8341 232.516 46.7261C233.059 46.6181 233.558 46.3515 233.95 45.9601C234.341 45.5686 234.608 45.0698 234.716 44.5269C234.824 43.9839 234.768 43.4211 234.556 42.9096C234.345 42.3981 233.986 41.961 233.526 41.6534C233.065 41.3458 232.524 41.1816 231.97 41.1816C231.228 41.1816 230.516 41.4766 229.991 42.0015C229.466 42.5264 229.171 43.2384 229.171 43.9808Z" fill="#F8C83C"/>
<path d="M219.714 43.9808C219.714 44.5344 219.878 45.0756 220.186 45.5359C220.494 45.9962 220.931 46.355 221.442 46.5668C221.954 46.7787 222.516 46.8341 223.059 46.7261C223.602 46.6181 224.101 46.3515 224.493 45.9601C224.884 45.5686 225.151 45.0698 225.259 44.5269C225.367 43.9839 225.311 43.4211 225.099 42.9096C224.888 42.3981 224.529 41.961 224.068 41.6534C223.608 41.3458 223.067 41.1816 222.513 41.1816C221.771 41.1816 221.059 41.4766 220.534 42.0015C220.009 42.5264 219.714 43.2384 219.714 43.9808Z" fill="#FD3E72"/>
<path d="M315.252 93.8718H309.031L307.852 96.7487H304.664L310.638 83.3362H313.709L319.696 96.7487H316.444L315.252 93.8718ZM314.28 91.5133L312.154 86.3297L310.029 91.5133H314.28Z" fill="#455A64"/>
<path d="M329.64 96.7487L327.049 93.0165H324.185V96.7487H321.087V83.3362H326.893C330.47 83.3362 332.712 85.2023 332.712 88.2088C332.749 89.1128 332.503 90.0059 332.008 90.7633C331.513 91.5208 330.794 92.1047 329.951 92.4334L332.958 96.7487H329.64ZM326.725 85.8761H324.198V90.5414H326.725C328.63 90.5414 329.588 89.6602 329.588 88.2088C329.588 86.7574 328.63 85.8761 326.725 85.8761Z" fill="#455A64"/>
<path d="M337.745 85.8757H333.456V83.2839H345.119V85.8757H340.856V96.7483H337.745V85.8757Z" fill="#455A64"/>
<path d="M346.806 83.3362H349.916V96.7487H346.806V83.3362Z" fill="#455A64"/>
<path d="M352.25 90.05C352.34 88.607 352.851 87.2221 353.721 86.0669C354.59 84.9118 355.779 84.0372 357.141 83.5515C358.503 83.0659 359.977 82.9905 361.381 83.3348C362.786 83.6791 364.058 84.4279 365.041 85.4884L363.045 87.3286C362.636 86.832 362.121 86.4334 361.538 86.162C360.955 85.8907 360.319 85.7535 359.675 85.7606C358.538 85.7606 357.447 86.2125 356.642 87.0169C355.838 87.8213 355.386 88.9123 355.386 90.05C355.386 91.1876 355.838 92.2786 356.642 93.0831C357.447 93.8875 358.538 94.3394 359.675 94.3394C360.321 94.3443 360.959 94.2035 361.542 93.9275C362.126 93.6515 362.639 93.2475 363.045 92.7454L365.041 94.5856C364.065 95.657 362.794 96.4165 361.389 96.7689C359.983 97.1213 358.504 97.051 357.139 96.5666C355.773 96.0823 354.58 95.2055 353.711 94.0462C352.841 92.887 352.333 91.4968 352.25 90.05Z" fill="#455A64"/>
<path d="M367.124 83.3362H370.221V94.2217H377.011V96.8135H367.188L367.124 83.3362Z" fill="#455A64"/>
<path d="M389.065 94.2606V96.7487H378.698V83.3362H388.832V85.8373H381.782V88.7401H388.002V91.2152H381.782V94.3254L389.065 94.2606Z" fill="#455A64"/>
<path d="M395.687 91.2154C395.687 91.332 410.059 91.4357 427.787 91.4357C445.514 91.4357 459.899 91.332 459.899 91.2154C459.899 91.0988 445.527 90.9951 427.787 90.9951C410.046 90.9951 395.687 91.1247 395.687 91.2154Z" fill="#DCB7C0"/>
<path d="M224.939 91.2154C224.939 91.332 240.037 91.4357 258.633 91.4357C277.229 91.4357 292.326 91.332 292.326 91.2154C292.326 91.0988 277.242 90.9951 258.633 90.9951C240.024 90.9951 224.939 91.1247 224.939 91.2154Z" fill="#DCB7C0"/>
<path d="M347.75 130.378C347.75 130.586 372.968 130.741 404.07 130.741C435.171 130.741 460.416 130.586 460.416 130.378C460.416 130.171 435.197 130.003 404.07 130.003C372.942 130.003 347.75 130.171 347.75 130.378Z" fill="#DCB7C0"/>
<path d="M309.224 129.264C309.224 129.471 316.066 129.627 324.49 129.627C332.913 129.627 339.755 129.471 339.755 129.264C339.755 129.056 332.926 128.888 324.49 128.888C316.053 128.888 309.224 129.056 309.224 129.264Z" fill="#DCB7C0"/>
<path d="M234.533 128.616C234.533 128.81 248.646 128.979 266.037 128.979C283.428 128.979 297.54 128.81 297.54 128.616C297.54 128.421 283.441 128.24 266.037 128.24C248.633 128.24 234.533 128.408 234.533 128.616Z" fill="#DCB7C0"/>
<path d="M235.175 141.601C235.175 141.808 285.78 141.977 348.19 141.977C410.601 141.977 461.206 141.808 461.206 141.601C461.206 141.394 410.666 141.238 348.19 141.238C285.715 141.238 235.175 141.394 235.175 141.601Z" fill="#DCB7C0"/>
<path d="M355.993 155.246C355.993 155.44 379.397 155.609 408.269 155.609C437.142 155.609 460.559 155.44 460.559 155.246C460.559 155.051 437.155 154.87 408.269 154.87C379.384 154.87 355.993 155.038 355.993 155.246Z" fill="#DCB7C0"/>
<path d="M317.675 155.246C317.675 155.441 324.077 155.609 331.93 155.609C339.783 155.609 346.185 155.441 346.185 155.246C341.443 154.872 336.685 154.747 331.93 154.87C327.175 154.747 322.417 154.872 317.675 155.246Z" fill="#DCB7C0"/>
<path d="M235.18 153.937C235.18 154.144 251.612 154.313 271.88 154.313C292.148 154.313 308.58 154.144 308.58 153.937C308.58 153.73 292.148 153.574 271.88 153.574C251.612 153.574 235.18 153.743 235.18 153.937Z" fill="#DCB7C0"/>
<path d="M349.113 272.11C349.113 272.318 374.344 272.486 405.446 272.486C436.547 272.486 461.792 272.318 461.792 272.11C461.792 271.903 436.573 271.747 405.446 271.747C374.318 271.747 349.113 271.916 349.113 272.11Z" fill="#DCB7C0"/>
<path d="M310.652 270.996C310.652 271.203 317.482 271.371 325.918 271.371C334.354 271.371 341.184 271.203 341.184 270.996C341.184 270.788 334.341 270.633 325.918 270.633C317.495 270.633 310.652 270.801 310.652 270.996Z" fill="#DCB7C0"/>
<path d="M235.953 270.347C235.953 270.554 250.065 270.723 267.456 270.723C284.847 270.723 298.959 270.554 298.959 270.347C298.959 270.14 284.86 270.049 267.469 270.049C250.078 270.049 235.953 270.14 235.953 270.347Z" fill="#DCB7C0"/>
<path d="M236.603 283.346C236.603 283.54 287.208 283.709 349.619 283.709C412.029 283.709 462.634 283.54 462.634 283.346C462.634 283.151 412.094 282.97 349.619 282.97C287.143 282.97 236.603 283.138 236.603 283.346Z" fill="#DCB7C0"/>
<path d="M357.421 296.978C357.421 297.185 380.825 297.354 409.697 297.354C438.57 297.354 461.987 297.185 461.987 296.978C461.987 296.77 438.583 296.615 409.697 296.615C380.812 296.615 357.421 296.77 357.421 296.978Z" fill="#DCB7C0"/>
<path d="M319.099 296.978C323.841 297.353 328.599 297.478 333.354 297.354C338.109 297.478 342.867 297.352 347.609 296.978C342.867 296.613 338.109 296.492 333.354 296.615C328.599 296.491 323.841 296.612 319.099 296.978Z" fill="#DCB7C0"/>
<path d="M236.6 295.682C236.6 295.889 253.032 296.045 273.3 296.045C293.568 296.045 310 295.889 310 295.682C310 295.474 293.568 295.306 273.3 295.306C253.032 295.306 236.6 295.474 236.6 295.682Z" fill="#DCB7C0"/>
<path d="M323.025 169.682H461.362V257.997H323.025V169.682Z" fill="#FD3E72"/>
<path opacity="0.5" d="M328.986 250.974C328.986 250.974 328.986 250.494 328.986 249.587V245.609C328.986 242.11 328.986 236.991 328.986 230.434C328.986 217.319 329.077 198.438 329.142 175.319L328.857 175.605L454.209 175.682L453.846 175.319C453.846 202.119 453.846 227.687 453.846 250.974L454.183 250.624L364.027 250.793L338.109 250.883H331.215H329.427H328.805H329.375H331.124H337.967L363.781 250.974L454.157 251.142H454.507V250.805C454.507 227.479 454.507 201.95 454.507 175.151V174.775H454.131L328.779 174.866H328.481V175.151C328.481 198.348 328.584 217.281 328.623 230.447C328.623 236.926 328.623 242.11 328.701 245.557V249.445C328.96 250.533 328.986 250.974 328.986 250.974Z" fill="#263238"/>
<g opacity="0.2">
<path opacity="0.3" d="M450.954 250.973L414.695 204.23L388.479 234.165L368.431 216.114L331.952 250.973H450.954Z" fill="black"/>
</g>
<g opacity="0.2">
<path opacity="0.3" d="M380.385 198.672C380.385 200.272 380.86 201.836 381.749 203.166C382.638 204.496 383.902 205.532 385.38 206.144C386.859 206.756 388.485 206.915 390.054 206.602C391.623 206.289 393.064 205.517 394.194 204.385C395.325 203.253 396.094 201.811 396.404 200.241C396.715 198.672 396.553 197.046 395.939 195.568C395.325 194.091 394.286 192.829 392.955 191.942C391.623 191.055 390.059 190.583 388.459 190.585C387.397 190.585 386.347 190.795 385.366 191.201C384.386 191.608 383.495 192.204 382.745 192.955C381.996 193.706 381.401 194.597 380.996 195.578C380.591 196.559 380.384 197.611 380.385 198.672Z" fill="black"/>
</g>
<path d="M235.175 168.97C235.175 169.177 252.54 169.346 273.962 169.346C295.383 169.346 312.735 169.177 312.735 168.97C312.735 168.763 295.383 168.607 273.962 168.607C252.54 168.607 235.175 168.698 235.175 168.97Z" fill="#DCB7C0"/>
<path d="M235.175 182.654C235.175 182.861 252.54 183.017 273.962 183.017C295.383 183.017 312.735 182.861 312.735 182.654C312.735 182.447 295.383 182.278 273.962 182.278C252.54 182.278 235.175 182.447 235.175 182.654Z" fill="#DCB7C0"/>
<path d="M237.963 242.473C237.963 242.68 255.328 242.849 276.736 242.849C298.144 242.849 315.522 242.68 315.522 242.473C315.522 242.265 298.157 242.11 276.736 242.11C255.315 242.11 237.963 242.278 237.963 242.473Z" fill="#DCB7C0"/>
<path d="M237.963 257.998C237.963 258.192 255.328 258.36 276.736 258.36C298.144 258.36 315.522 258.192 315.522 257.998C315.522 257.803 298.157 257.622 276.736 257.622C255.315 257.622 237.963 257.79 237.963 257.998Z" fill="#DCB7C0"/>
<path d="M260.51 196.403C260.51 196.598 272.173 196.766 286.623 196.766C301.072 196.766 312.735 196.598 312.735 196.403C312.735 196.209 301.072 196.027 286.623 196.027C272.173 196.027 260.51 196.183 260.51 196.403Z" fill="#DCB7C0"/>
<path d="M234.605 196.183C237.839 196.558 241.097 196.683 244.351 196.558C247.604 196.683 250.862 196.557 254.096 196.183C250.861 195.824 247.603 195.703 244.351 195.82C241.098 195.703 237.841 195.824 234.605 196.183Z" fill="#DCB7C0"/>
<path d="M234.609 211.474C234.609 211.682 246.272 211.837 260.617 211.837C274.963 211.837 286.626 211.682 286.626 211.474C286.626 211.267 274.963 211.098 260.617 211.098C246.272 211.098 234.609 211.267 234.609 211.474Z" fill="#DCB7C0"/>
<path d="M260.51 226.871C260.51 227.078 272.173 227.234 286.623 227.234C301.072 227.234 312.735 227.078 312.735 226.871C312.735 226.664 301.072 226.495 286.623 226.495C272.173 226.495 260.51 226.664 260.51 226.871Z" fill="#DCB7C0"/>
<path d="M234.605 226.715C237.841 227.073 241.098 227.195 244.351 227.077C247.603 227.194 250.861 227.073 254.096 226.715C250.862 226.34 247.604 226.214 244.351 226.339C241.097 226.214 237.839 226.34 234.605 226.715Z" fill="#DCB7C0"/>
<path d="M296.952 211.124C299.327 211.482 301.732 211.604 304.131 211.487C306.531 211.604 308.935 211.482 311.311 211.124C308.937 210.75 306.531 210.624 304.131 210.749C301.732 210.624 299.326 210.75 296.952 211.124Z" fill="#DCB7C0"/>
<path d="M363.848 354.996C363.625 354.962 363.4 354.941 363.174 354.931L362.332 354.866L361.191 354.685C358.667 354.198 356.303 353.094 354.31 351.471C352.757 350.177 351.477 348.587 350.545 346.794C349.613 345.001 349.047 343.04 348.88 341.026C348.803 339.859 348.88 338.628 348.88 337.358C348.88 336.723 348.88 336.063 348.88 335.428C348.88 335.104 348.88 334.78 348.88 334.443L349.023 333.471C349.129 332.805 349.281 332.147 349.476 331.501C349.7 330.843 349.959 330.199 350.254 329.57C350.862 328.26 351.666 327.049 352.638 325.98C354.709 323.666 357.45 322.053 360.479 321.367C362.099 321.044 363.752 320.918 365.403 320.991H370.587H393.096H444.673C447.993 320.988 451.218 322.097 453.834 324.14C456.451 326.184 458.308 329.044 459.109 332.266C459.538 334.375 459.695 336.531 459.576 338.68C459.662 340.781 459.346 342.88 458.643 344.862C457.93 346.794 456.828 348.558 455.403 350.045C454.027 351.491 452.373 352.642 450.54 353.431C448.707 354.219 446.733 354.628 444.738 354.633L402.608 354.71L374.215 354.814L366.44 354.879H364.431H363.744H364.431H366.44H374.215L402.608 354.983L444.738 355.06C446.818 355.057 448.876 354.634 450.789 353.817C452.701 353 454.43 351.805 455.87 350.304C457.325 348.846 458.478 347.116 459.265 345.212C460 343.16 460.334 340.987 460.25 338.81C460.372 336.608 460.211 334.4 459.77 332.24C458.932 328.873 456.992 325.883 454.258 323.746C451.525 321.61 448.156 320.448 444.686 320.447H393.109H370.6H365.416C363.725 320.383 362.033 320.522 360.375 320.862C357.244 321.582 354.417 323.263 352.289 325.669C351.299 326.779 350.478 328.027 349.852 329.376C349.55 330.023 349.29 330.69 349.075 331.371C348.884 332.037 348.728 332.711 348.608 333.393C348.608 333.73 348.518 334.067 348.466 334.404V335.415C348.466 336.075 348.466 336.71 348.466 337.358C348.466 338.654 348.466 339.846 348.543 341.065C348.722 343.121 349.314 345.121 350.285 346.942C351.256 348.764 352.586 350.371 354.194 351.665C356.218 353.305 358.634 354.39 361.204 354.814L362.358 354.97H363.213L363.848 354.996Z" fill="#263238"/>
<path d="M239.31 319.993H320.187C328.597 319.993 335.414 326.81 335.414 335.22V339.043C335.414 347.452 328.597 354.27 320.187 354.27H239.31C230.901 354.27 224.083 347.452 224.083 339.043V335.22C224.083 326.81 230.901 319.993 239.31 319.993Z" fill="#FD3E72"/>
<path d="M238.25 342.736L235.023 361.85L230.669 358.844L225.822 365.051L220.626 361.319L225.434 355.241L221.3 352.014L238.25 342.736Z" fill="#263238"/>
<path d="M169.563 463.19H185.58V567.497H169.563V463.19Z" fill="#3E2723"/>
<path d="M76.6224 463.19H92.6396V567.497H76.6224V463.19Z" fill="#3E2723"/>
<path d="M89.7978 500.24H174.731V514.443H89.7978V500.24Z" fill="#3E2723"/>
<path d="M76.6199 463.138C76.6032 463.315 76.6032 463.493 76.6199 463.669C76.6199 464.045 76.6199 464.564 76.6199 465.224C76.6199 466.624 76.6199 468.646 76.5551 471.224C76.5551 476.486 76.4903 484.041 76.4514 493.41C76.4514 512.227 76.3866 538.3 76.3477 567.445V567.782H92.9741V567.445C92.8575 538.494 92.7538 512.641 92.689 493.993C92.6113 484.702 92.5594 477.147 92.5205 471.963C92.5205 469.371 92.5206 467.402 92.4558 466.015C92.4558 465.354 92.4558 464.849 92.4558 464.473C92.4725 464.296 92.4725 464.118 92.4558 463.942C92.4446 464.118 92.4446 464.296 92.4558 464.473C92.4558 464.849 92.4558 465.354 92.4558 466.015C92.4558 467.402 92.4558 469.397 92.4558 471.963C92.4558 477.147 92.4558 484.65 92.4558 493.993C92.4558 512.641 92.4558 538.494 92.5335 567.445L92.8704 567.108H76.8532L77.1901 567.445C77.1901 538.3 77.1123 512.227 77.0864 493.41C77.0864 484.041 76.9957 476.486 76.9827 471.224C76.9827 468.633 76.9827 466.624 76.9179 465.224C76.9179 464.568 76.9179 464.05 76.9179 463.669C76.8416 463.48 76.7414 463.302 76.6199 463.138Z" fill="#3E2723"/>
<path d="M185.401 467.609C185.389 467.777 185.389 467.946 185.401 468.114V469.605C185.401 470.901 185.401 472.857 185.401 475.332C185.401 480.348 185.401 487.566 185.401 496.52C185.401 514.52 185.401 539.479 185.401 567.497L185.738 567.16H169.72L170.057 567.497C170.057 538.572 169.979 512.654 169.953 493.929C169.953 484.598 169.876 477.082 169.85 471.834C169.85 469.242 169.85 467.259 169.785 465.859V464.304C169.805 464.128 169.805 463.95 169.785 463.773C169.768 463.95 169.768 464.128 169.785 464.304C169.785 464.68 169.785 465.199 169.785 465.859C169.785 467.259 169.785 469.268 169.785 471.834C169.785 477.017 169.72 484.598 169.681 493.929C169.681 512.654 169.681 538.572 169.578 567.497V567.834H185.919V567.497C185.828 539.479 185.738 514.52 185.686 496.52C185.621 487.566 185.582 480.348 185.543 475.332C185.543 472.857 185.543 470.939 185.543 469.605C185.543 468.97 185.543 468.477 185.543 468.114C185.513 467.941 185.466 467.772 185.401 467.609Z" fill="#263238"/>
<path d="M63.9598 414.982H195.999C202.605 414.982 207.96 420.338 207.96 426.944V452.304C207.96 458.91 202.605 464.265 195.999 464.265H63.9598C57.3539 464.265 51.9987 458.91 51.9987 452.304V426.944C51.9987 420.338 57.3539 414.982 63.9598 414.982Z" fill="#3E2723"/>
<path d="M179.789 464.266C179.789 464.085 153.871 463.929 121.992 463.929C90.1124 463.929 64.1816 464.085 64.1816 464.266C64.1816 464.448 90.0995 464.603 121.992 464.603C153.884 464.603 179.789 464.435 179.789 464.266Z" fill="#263238"/>
<path d="M90.6569 179.039C91.1752 174.828 93.0154 154.301 93.469 151.19C94.0012 146.929 96.1037 143.02 99.3653 140.227C102.644 137.545 107.542 136.612 111.236 138.711C112.45 139.107 113.539 139.817 114.392 140.768C115.245 141.719 115.833 142.878 116.095 144.128C122.769 175.45 119.296 208.119 121.033 240.245C109.616 241.346 94.4668 239.622 83.0888 238.288C84.7476 212.823 87.3394 206.37 90.6569 179.039Z" fill="#5B5863"/>
<path d="M92.6371 222.723C92.7184 222.458 92.7663 222.184 92.7797 221.907C92.8445 221.284 92.9352 220.507 93.0388 219.548C93.2462 217.397 93.5183 214.468 93.8682 210.891C94.4903 203.479 95.3456 193.41 96.3045 182.291C96.7451 176.706 97.1728 171.392 97.6004 166.546C97.7948 164.122 97.9632 161.829 98.1317 159.665C98.2215 157.68 98.4861 155.707 98.9222 153.768C99.1896 152.368 99.7625 151.044 100.6 149.89C101.438 148.736 102.52 147.782 103.769 147.094C104.72 146.651 105.752 146.409 106.801 146.382C106.801 146.382 106.736 146.382 106.594 146.382C106.387 146.358 106.179 146.358 105.972 146.382C105.17 146.395 104.38 146.576 103.652 146.913C102.487 147.441 101.458 148.231 100.646 149.22C99.5792 150.535 98.8179 152.071 98.4168 153.716C97.9351 155.676 97.6358 157.676 97.5226 159.69C97.3283 161.855 97.1339 164.148 96.9265 166.559C96.5248 171.418 96.0712 176.731 95.6306 182.304C94.7624 193.436 93.9848 203.505 93.4017 210.93C93.1555 214.507 92.9611 217.41 92.8186 219.6C92.8186 220.559 92.7278 221.349 92.689 221.971C92.6474 222.22 92.63 222.471 92.6371 222.723Z" fill="#918F96"/>
<path d="M103.652 211.734C103.805 211.132 103.892 210.515 103.911 209.894C104.028 208.701 104.157 206.978 104.3 204.84C104.585 200.576 104.87 194.68 105.129 188.161C105.388 181.643 105.57 175.889 105.725 171.47C105.79 169.449 105.842 167.751 105.881 166.403C105.951 165.787 105.951 165.166 105.881 164.55C105.727 165.152 105.64 165.769 105.621 166.39C105.505 167.582 105.375 169.306 105.233 171.444C104.948 175.708 104.663 181.604 104.403 188.122C104.144 194.641 103.963 200.395 103.807 204.814C103.742 206.835 103.691 208.533 103.639 209.881C103.576 210.497 103.581 211.118 103.652 211.734Z" fill="#918F96"/>
<path d="M183.288 223.216L160.661 215.674L125.581 214.481L96.0997 223.553L80.9506 253.851L92.3286 317.855L71.5035 359.078L127.279 369.548L176.005 346.948L180.165 343.799L188.445 234.749L183.288 223.216Z" fill="#FD3E72"/>
<path d="M257.551 445.619L288.562 496.055L264.031 514.534L225.387 467.286L257.551 445.619Z" fill="#FFBE9D"/>
<path d="M211.042 482.603L234.342 555.432H207.154L176.778 492.996L211.042 482.603Z" fill="#FFBE9D"/>
<path d="M183.234 223.216C183.234 223.216 201.182 230.668 203.061 250.534C203.787 258.205 209.191 294.128 209.191 294.128L234.59 291.108L240.72 311.363C240.72 311.363 212.327 326.162 203.566 328.08C188.43 331.398 181.108 322.897 181.108 322.897L183.234 223.216Z" fill="#FD3E72"/>
<path d="M188.082 247.436C188.06 247.768 188.06 248.101 188.082 248.434C188.082 249.133 188.082 250.079 188.173 251.246C188.264 252.412 188.277 253.967 188.264 255.703C188.251 257.44 188.264 259.423 188.199 261.613C188.134 263.803 188.082 266.187 187.901 268.753C187.719 271.319 187.525 274.066 187.305 276.943C186.773 282.71 186.009 289.034 185.192 295.656C183.43 308.9 181.758 320.9 180.981 329.634C180.76 331.825 180.618 333.794 180.501 335.531C180.385 337.267 180.281 338.771 180.255 339.989C180.229 341.207 180.177 342.101 180.151 342.814C180.115 343.141 180.115 343.471 180.151 343.799C180.214 343.478 180.253 343.153 180.268 342.827C180.268 342.114 180.398 341.181 180.488 340.015C180.579 338.848 180.683 337.293 180.851 335.57C181.02 333.846 181.175 331.863 181.434 329.686C182.328 320.978 184.026 308.952 185.84 295.747C186.696 289.112 187.395 282.788 187.901 276.995C188.108 274.105 188.341 271.358 188.432 268.792C188.523 266.226 188.639 263.816 188.652 261.613C188.665 259.41 188.652 257.44 188.652 255.703C188.652 253.967 188.549 252.451 188.445 251.233C188.341 250.014 188.29 249.133 188.238 248.421C188.216 248.088 188.164 247.759 188.082 247.436Z" fill="#EF3769"/>
<path d="M235.797 251.233C235.797 251.233 228.021 243.73 225.106 244.637C223.093 245.355 221.243 246.465 219.663 247.902C219.663 247.902 216.708 246.153 215.114 247.902C213.876 249.42 212.811 251.072 211.939 252.827C211.939 252.827 209.114 252.412 206.937 256.041C204.76 259.669 199.382 271.902 197.361 273.95C195.291 275.911 192.786 277.355 190.052 278.162C187.162 279.172 163.045 287.336 163.045 287.336L171.922 309.47C171.922 309.47 207.391 288.736 208.751 287.362C210.112 285.989 220.79 278.952 222.384 274.637C223.978 270.321 235.797 257.09 235.797 257.09V251.233Z" fill="#FFBE9D"/>
<path d="M212.327 260.006C212.395 260.319 212.542 260.609 212.755 260.848C213.27 261.581 213.979 262.155 214.802 262.507L214.673 262.274C214.449 263.973 214.84 265.696 215.774 267.133C216.049 267.572 216.38 267.973 216.759 268.326C217.173 268.744 217.717 269.009 218.301 269.077C218.633 269.096 218.963 269.019 219.252 268.856C219.542 268.693 219.778 268.451 219.934 268.157C220.212 267.625 220.383 267.044 220.439 266.447C220.712 264.425 220.971 262.559 221.165 260.758C221.235 260.305 221.214 259.843 221.105 259.398C220.996 258.954 220.801 258.535 220.53 258.166C220.016 257.608 219.388 257.166 218.69 256.87C217.722 256.495 216.793 256.027 215.917 255.47C215.334 255.056 215.1 254.706 215.048 254.732C214.997 254.757 215.178 255.159 215.748 255.678C216.587 256.332 217.506 256.876 218.483 257.297C219.104 257.611 219.651 258.053 220.09 258.593C220.516 259.229 220.683 260.003 220.556 260.758C220.31 262.52 220.051 264.412 219.779 266.408C219.662 267.47 219.221 268.559 218.353 268.481C217.917 268.36 217.508 268.153 217.153 267.873C216.797 267.592 216.5 267.244 216.28 266.848C215.397 265.532 214.982 263.958 215.1 262.377V262.209H214.945C214.164 261.913 213.466 261.433 212.91 260.809C212.534 260.265 212.366 259.98 212.327 260.006Z" fill="#F8AD87"/>
<path d="M210.086 266.59C210.086 266.746 211.317 266.292 212.146 265.061C212.976 263.83 212.976 262.573 212.794 262.573C212.613 262.573 212.328 263.61 211.589 264.685C210.851 265.761 209.982 266.422 210.086 266.59Z" fill="#F8AD87"/>
<path d="M210.953 280.831C211.161 280.831 211.083 278.589 211.925 276.023C212.524 274.504 213.198 273.016 213.947 271.565C212.629 272.663 211.694 274.151 211.277 275.816C210.655 277.414 210.542 279.166 210.953 280.831Z" fill="#F8AD87"/>
<path d="M220.254 262.351C220.294 262.723 220.404 263.083 220.578 263.414C220.932 264.41 221.572 265.28 222.418 265.915C223.041 266.361 223.808 266.56 224.569 266.472C225.006 266.391 225.42 266.215 225.781 265.955C226.142 265.695 226.441 265.358 226.656 264.969C227.117 264.163 227.445 263.288 227.628 262.377C227.866 261.444 228.039 260.496 228.146 259.539C228.344 257.634 227.887 255.719 226.85 254.109C226.019 252.824 224.976 251.689 223.766 250.753C222.971 250.117 222.141 249.529 221.278 248.99C220.978 248.764 220.646 248.585 220.293 248.459C220.228 248.563 221.589 249.457 223.455 251.051C224.578 251.999 225.545 253.119 226.319 254.368C227.273 255.867 227.697 257.642 227.524 259.409C227.421 260.339 227.256 261.262 227.031 262.17C226.871 263.004 226.582 263.808 226.176 264.554C226.015 264.878 225.783 265.163 225.499 265.387C225.214 265.611 224.883 265.769 224.53 265.85C223.901 265.942 223.26 265.799 222.729 265.448C221.925 264.89 221.281 264.131 220.863 263.245C220.701 262.921 220.496 262.621 220.254 262.351Z" fill="#F8AD87"/>
<g opacity="0.3">
<path opacity="0.3" d="M79.9919 411.782L144.787 409.592C148.597 409.462 152.782 409.449 155.724 411.872C158.666 414.296 159.379 417.937 160.104 421.436C163.379 437.324 166.662 453.212 169.953 469.099L167.893 472.637C155.016 464.651 145.541 452.191 141.288 437.648C140.173 433.76 138.942 429.173 135.158 427.773C133.448 427.282 131.649 427.189 129.897 427.501L114.553 429.004C107.206 429.743 99.5859 430.443 92.614 428.032C85.642 425.622 79.5642 419.155 79.9919 411.782Z" fill="black"/>
</g>
<path d="M174.654 338.731C174.654 338.731 186.122 333.755 199.418 341.699C209.604 347.79 274.995 453.548 274.995 453.548L232.71 482.576L174.654 396.477L150.835 416.978C150.835 416.978 101.591 426.956 86.9344 420.658C72.2778 414.36 64.2303 397.669 65.4096 383.388C65.9952 374.995 68.0388 366.769 71.4485 359.077C88.4118 361.669 99.9582 367.837 123.155 356.719L174.654 338.731Z" fill="#AB6D29"/>
<path d="M176.314 392.046C176.314 392.046 145.886 404.007 145.498 412.301C145.109 420.594 186.733 527.338 186.733 527.338L228.72 512.033L206.185 439.035C206.185 439.035 196.802 412.508 189.753 405.342C182.703 398.175 176.314 392.046 176.314 392.046Z" fill="#AB6D29"/>
<path d="M216.824 363.833C216.824 363.833 216.902 363.989 217.084 364.274L217.926 365.57L221.192 370.52C224.056 374.862 228.215 381.147 233.425 389.052C243.792 404.9 258.462 427.307 274.725 453.756L274.816 453.328L237.325 479.026C235.706 480.153 234.086 481.255 232.518 482.33L232.984 482.421L174.85 396.386C172.404 394.431 170.439 391.939 169.109 389.103C167.911 386.581 167.09 383.895 166.673 381.134C166.081 377.536 166.308 373.85 167.338 370.352C168.368 366.854 170.174 363.634 172.621 360.931C173.113 360.386 173.632 359.867 174.176 359.376C174.539 359.039 174.708 358.857 174.708 358.857C173.912 359.428 173.166 360.065 172.479 360.762C170.522 362.827 168.954 365.228 167.852 367.851C166.088 372.037 165.535 376.635 166.258 381.121C166.656 383.921 167.469 386.646 168.669 389.207C170.013 392.118 172.013 394.677 174.513 396.684L232.479 482.784L232.673 483.069L232.945 482.875L237.662 479.57L275.127 453.846L275.373 453.665L275.218 453.406C258.915 426.957 244.22 404.615 233.749 388.818L221.347 370.391L218.004 365.492L217.122 364.196C217.03 364.07 216.93 363.949 216.824 363.833Z" fill="#8D571B"/>
<path d="M186.409 527.622C186.376 527.467 186.328 527.315 186.267 527.169C186.163 526.832 186.007 526.391 185.813 525.873C185.372 524.668 184.75 522.97 183.973 520.78C182.327 516.335 179.982 509.959 177.092 502.093C171.273 486.27 163.264 464.512 154.4 440.421C152.34 434.732 150.331 429.16 148.452 423.756C147.346 421.206 146.718 418.473 146.599 415.696C146.653 413.044 147.562 410.48 149.191 408.387C150.785 406.397 152.736 404.723 154.945 403.45C157.028 402.198 159.229 401.152 161.515 400.326C165.649 398.804 169.932 397.718 174.293 397.087L175.057 396.97L174.37 396.62C170.676 394.658 167.551 391.774 165.299 388.249C163.581 385.583 162.336 382.642 161.619 379.553C161.174 377.597 160.939 375.598 160.919 373.592C160.919 372.905 160.919 372.387 160.919 372.024C160.933 371.847 160.933 371.669 160.919 371.493C160.878 371.667 160.856 371.845 160.854 372.024C160.854 372.374 160.763 372.905 160.75 373.592C160.713 375.616 160.909 377.638 161.334 379.618C161.998 382.761 163.223 385.759 164.949 388.469C167.217 392.086 170.394 395.044 174.163 397.048L174.241 396.581C169.82 397.179 165.475 398.248 161.282 399.769C158.965 400.61 156.73 401.665 154.608 402.918C152.33 404.221 150.316 405.939 148.673 407.985C146.93 410.176 145.943 412.872 145.861 415.67C145.969 418.525 146.602 421.337 147.727 423.964C149.606 429.38 151.614 434.94 153.675 440.642C162.461 464.745 170.625 486.504 176.56 502.236C179.528 510.076 181.951 516.491 183.636 520.858C184.465 523.022 185.126 524.746 185.593 525.912L186.111 527.208C186.194 527.357 186.294 527.496 186.409 527.622Z" fill="#8D571B"/>
<path d="M92.521 392.046C92.3387 389.557 92.4912 387.055 92.9745 384.607C94.4421 378.743 97.6388 373.456 102.149 369.432C106.735 365.498 111.852 362.231 117.35 359.726L122.327 357.342C122.957 357.092 123.561 356.78 124.128 356.409C123.474 356.588 122.837 356.822 122.223 357.108C121.018 357.601 119.281 358.326 117.156 359.285C111.544 361.695 106.334 364.951 101.709 368.94C97.0926 373.033 93.8787 378.472 92.521 384.491C92.1601 386.312 92.0511 388.173 92.197 390.024C92.197 390.672 92.3655 391.178 92.4043 391.514C92.4169 391.696 92.4562 391.875 92.521 392.046Z" fill="#8D571B"/>
<g opacity="0.3">
<path opacity="0.3" d="M114.55 320.201C116.754 322.391 119.203 324.633 122.326 325.138C125.034 325.592 127.756 324.594 130.335 323.622L173.941 307.022L177.466 311.842C162.46 324.024 143.708 334.689 125.19 339.16C122.141 339.865 118.978 339.915 115.909 339.308C112.839 338.7 109.934 337.448 107.384 335.635C103.496 332.797 101.125 328.378 99.1682 323.972C94.6316 313.734 91.6945 302.86 90.4598 291.73C97.6619 301.891 105.722 311.416 114.55 320.201Z" fill="black"/>
</g>
<path d="M103.368 237.393C104.47 238.559 129.843 292.702 129.843 292.702L179.087 281.7L184.634 308.797C184.634 308.797 140.016 328.598 128.34 332.123C120.889 334.365 115.757 333.898 108.448 326.939C101.139 319.98 82.6467 275.103 80.5732 266.123C78.6035 257.531 71.5019 234.749 96.124 223.553L103.368 237.393Z" fill="#FD3E72"/>
<path d="M217.099 272.344L252.503 223.281C252.844 222.824 253.313 222.478 253.849 222.284C254.386 222.091 254.968 222.059 255.522 222.193L290.797 230.227C291.241 230.295 291.661 230.477 292.014 230.756C292.367 231.035 292.641 231.401 292.81 231.818C292.979 232.235 293.036 232.689 292.976 233.135C292.916 233.581 292.741 234.003 292.468 234.361L256.183 284.007C255.765 284.552 255.17 284.934 254.501 285.087C253.832 285.241 253.13 285.157 252.516 284.849L248.758 282.983C248.535 282.874 248.3 282.792 248.058 282.737L218.822 276.53C218.364 276.475 217.929 276.299 217.561 276.02C217.194 275.742 216.907 275.37 216.732 274.943C216.556 274.516 216.497 274.05 216.562 273.593C216.626 273.137 216.812 272.705 217.099 272.344Z" fill="#263238"/>
<path d="M217.095 272.343C216.976 272.48 216.875 272.632 216.797 272.797C216.559 273.292 216.491 273.852 216.603 274.391C216.69 274.832 216.884 275.245 217.169 275.593C217.454 275.941 217.82 276.214 218.236 276.386C219.246 276.736 220.4 276.905 221.696 277.229L243.804 282.075L247.38 282.853C247.984 282.953 248.567 283.155 249.104 283.449L250.84 284.317C251.423 284.602 251.981 284.9 252.629 285.198C253.318 285.476 254.081 285.506 254.79 285.284C255.499 285.062 256.109 284.601 256.516 283.98L257.812 282.295L268.374 267.846L292.659 234.697C292.982 234.301 293.196 233.827 293.28 233.322C293.364 232.818 293.315 232.3 293.138 231.82C292.955 231.347 292.658 230.926 292.274 230.594C291.89 230.262 291.43 230.029 290.935 229.915L285.752 228.723L275.54 226.39L256.205 222.01C255.806 221.904 255.399 221.835 254.987 221.803C254.545 221.787 254.104 221.862 253.691 222.023C253.288 222.179 252.921 222.417 252.616 222.723C252.341 223.015 252.093 223.332 251.877 223.669L249.22 227.362L244.141 234.438L235.069 247.125L221.916 265.54L218.365 270.568L217.458 271.864C217.351 272.014 217.251 272.17 217.16 272.33C217.295 272.204 217.413 272.06 217.51 271.902L218.482 270.606L222.11 265.695L235.445 247.41L244.62 234.762L249.726 227.712L252.395 224.032C252.734 223.393 253.277 222.887 253.937 222.593C254.269 222.471 254.621 222.414 254.974 222.425C255.343 222.45 255.708 222.515 256.063 222.619L275.385 227.038L285.609 229.371L290.793 230.563C291.181 230.653 291.542 230.835 291.845 231.094C292.147 231.354 292.382 231.683 292.529 232.054C292.663 232.432 292.697 232.839 292.626 233.234C292.556 233.629 292.384 233.999 292.128 234.308C283.523 246.075 275.281 257.272 267.881 267.483C264.162 272.576 260.624 277.423 257.32 281.972L256.024 283.656C255.692 284.192 255.176 284.588 254.572 284.771C253.982 284.951 253.347 284.928 252.771 284.706C252.201 284.447 251.592 284.136 251.009 283.851L249.324 283.008C248.742 282.704 248.117 282.49 247.471 282.373L243.881 281.622L221.747 276.982C220.451 276.684 219.233 276.529 218.3 276.218C217.907 276.063 217.557 275.815 217.281 275.494C217.006 275.173 216.813 274.79 216.719 274.378C216.601 273.867 216.647 273.332 216.849 272.848C217.004 272.499 217.121 272.356 217.095 272.343Z" fill="#455A64"/>
<path d="M217.677 275.687C217.919 275.438 218.14 275.169 218.338 274.884L220.126 272.538L226.605 263.791C232.074 256.326 239.564 246.115 247.806 234.815C249.88 232.015 251.875 229.138 253.832 226.611C254.376 226.08 255.067 225.723 255.815 225.588C256.564 225.452 257.334 225.506 258.057 225.743L262.618 226.767L278.364 230.292L289.003 232.611L291.893 233.208C292.229 233.293 292.571 233.349 292.917 233.376C292.597 233.25 292.268 233.15 291.932 233.078L289.055 232.365L278.467 229.773L262.748 226.106L258.199 225.056C257.385 224.809 256.525 224.752 255.685 224.888C254.809 225.05 254.002 225.469 253.366 226.093C251.266 228.776 249.361 231.536 247.262 234.374L226.23 263.57L219.919 272.434L218.234 274.858C218.019 275.113 217.832 275.391 217.677 275.687Z" fill="#455A64"/>
<path d="M269.022 239.039C267.991 239.039 267.156 238.331 267.156 237.458C267.156 236.585 267.991 235.877 269.022 235.877C270.053 235.877 270.888 236.585 270.888 237.458C270.888 238.331 270.053 239.039 269.022 239.039Z" fill="white"/>
<path d="M257.382 247.604C257.537 248.55 263.861 267.626 264.768 269.479C265.675 271.332 264.768 274.96 264.768 274.96C264.768 274.96 266.971 279.522 263.472 282.658C263.472 282.658 263.226 286.753 261.386 287.531C260.116 288.166 259.004 289.078 258.133 290.2C258.133 290.2 247.766 304.351 246.652 305.751C244.777 307.72 242.8 309.588 240.729 311.349C240.729 311.349 226.086 306.01 233.861 292.053L238.267 289.254L236.751 277.954C236.751 277.954 233.135 275.116 233.926 273.224C233.988 272.983 234.103 272.759 234.261 272.567C234.42 272.375 234.619 272.22 234.844 272.114C235.069 272.008 235.315 271.952 235.564 271.951C235.813 271.951 236.059 272.004 236.284 272.109C236.284 272.109 234.898 268.222 238.267 267.561L251.226 273.807C251.226 273.807 241.623 264.14 243.049 261.47C244.474 258.8 245.084 259.228 245.084 259.228L257.498 269.738C257.498 269.738 254.414 258.165 253.611 254.472C252.042 247.604 257.382 247.604 257.382 247.604Z" fill="#FFBE9D"/>
<path d="M236.508 272.732C237.163 273.699 237.948 274.571 238.841 275.324C242.921 279.113 247.684 282.094 252.875 284.11C253.928 284.585 255.039 284.921 256.18 285.108C255.173 284.557 254.129 284.077 253.057 283.669C250.555 282.533 248.131 281.234 245.8 279.781C243.477 278.317 241.256 276.698 239.152 274.935C238.313 274.151 237.43 273.416 236.508 272.732Z" fill="#F8AD87"/>
<path d="M245.127 259.242C245.727 260.154 246.456 260.975 247.291 261.678C248.729 263.078 250.816 264.892 253.213 266.784C258.008 270.581 262.284 273.264 262.375 272.992C261.548 272.283 260.683 271.622 259.783 271.009C258.189 269.817 255.986 268.145 253.602 266.266C251.217 264.387 249.079 262.624 247.576 261.328C246.808 260.578 245.99 259.881 245.127 259.242Z" fill="#F8AD87"/>
<path d="M238.442 275.777C238.442 275.777 238.208 275.492 237.651 275.609C237.279 275.728 236.954 275.961 236.722 276.275C236.489 276.589 236.361 276.968 236.355 277.358C236.473 278.469 236.988 279.501 237.807 280.261C238.571 281.168 239.439 282.14 240.398 283.125C242.023 284.812 243.754 286.392 245.582 287.855C246.299 288.507 247.096 289.064 247.953 289.514C248.083 289.358 244.662 286.572 240.917 282.659C239.984 281.687 239.102 280.728 238.325 279.859C237.579 279.21 237.073 278.329 236.886 277.358C236.884 277.044 236.972 276.735 237.139 276.468C237.307 276.202 237.548 275.989 237.833 275.855C238.144 275.687 238.429 275.842 238.442 275.777Z" fill="#F8AD87"/>
<path d="M239.631 288.788C239.787 288.892 240.448 288.153 241.381 287.402C242.314 286.65 243.156 286.106 243.091 285.963C243.026 285.821 241.964 286.041 240.953 286.883C239.942 287.726 239.476 288.698 239.631 288.788Z" fill="#F8AD87"/>
<path d="M239.268 296.744C239.19 296.744 239.19 297.418 239.618 298.377C240.187 299.635 241.171 300.659 242.404 301.28C243.646 301.888 245.056 302.062 246.408 301.772C247.432 301.539 247.95 301.137 247.912 301.072C247.873 301.008 247.29 301.202 246.331 301.306C245.089 301.444 243.834 301.22 242.716 300.661C241.599 300.103 240.667 299.233 240.032 298.157C239.54 297.327 239.372 296.731 239.268 296.744Z" fill="#F8AD87"/>
<path d="M238.102 267.677C239 268.349 239.969 268.918 240.992 269.375C242.833 270.321 245.385 271.578 248.262 272.874C251.139 274.17 253.783 275.245 255.714 275.971C256.734 276.427 257.798 276.779 258.889 277.021C257.941 276.428 256.939 275.929 255.895 275.531L248.547 272.252L241.213 268.947C240.218 268.426 239.177 268.001 238.102 267.677Z" fill="#F8AD87"/>
<path d="M108.251 247.436C108.251 247.436 108.355 247.721 108.601 248.265L109.689 250.649C110.687 252.762 112.113 255.833 113.953 259.721C117.685 267.613 123.024 278.939 129.594 292.792L129.685 292.986H129.892L179.137 282.049L178.748 281.79C180.523 290.472 182.376 299.557 184.281 308.9L184.476 308.524L180.588 310.235C163.832 317.544 147.854 324.49 133.054 330.179C129.526 331.683 125.791 332.644 121.974 333.03C118.367 333.102 114.849 331.905 112.035 329.647C110.628 328.649 109.326 327.512 108.147 326.252C107.58 325.648 107.064 324.998 106.605 324.308C106.152 323.621 105.646 323.012 105.244 322.261C104.415 320.861 103.586 319.488 102.873 318.101C102.16 316.714 101.422 315.354 100.761 314.019C95.4733 303.276 91.8189 294.269 89.2271 288.101C87.9312 285.017 86.9982 282.619 86.3243 280.961L85.5597 279.094C85.3913 278.68 85.2876 278.472 85.2876 278.472C85.2876 278.472 85.3524 278.693 85.4949 279.12L86.1947 281.012C86.8168 282.658 87.7498 285.082 88.9939 288.205C91.4949 294.425 95.0846 303.444 100.333 314.239C100.994 315.535 101.629 316.961 102.432 318.347C103.236 319.734 103.962 321.133 104.804 322.546C105.193 323.259 105.711 323.932 106.165 324.632C106.64 325.345 107.173 326.016 107.758 326.641C108.94 327.92 110.242 329.083 111.646 330.114C113.105 331.192 114.705 332.064 116.402 332.706C118.174 333.364 120.06 333.664 121.949 333.587C125.831 333.213 129.633 332.248 133.223 330.723C148.061 325.099 164.039 318.127 180.808 310.805L184.696 309.094L184.955 308.991L184.89 308.719C182.985 299.388 181.119 290.291 179.331 281.621V281.297L179.007 281.362L129.763 292.442L130.061 292.585L114.225 259.682L109.832 250.611L108.666 248.265C108.406 247.708 108.251 247.436 108.251 247.436Z" fill="#EF3769"/>
<path d="M89.0637 329.453C89.4234 329.868 89.8324 330.238 90.2819 330.555C91.0853 331.241 92.3035 332.161 93.8586 333.237C102.05 338.806 111.392 342.456 121.189 343.915C123.055 344.174 124.584 344.33 125.634 344.382C126.181 344.444 126.733 344.444 127.28 344.382C126.752 344.229 126.209 344.138 125.66 344.11C124.623 343.98 123.068 343.76 121.267 343.423C111.602 341.73 102.375 338.116 94.1307 332.796C92.5497 331.786 91.2927 330.93 90.4374 330.308C90.0111 329.975 89.5506 329.689 89.0637 329.453Z" fill="#EF3769"/>
<path d="M89.375 334.689C89.375 334.689 89.6212 335.026 90.1396 335.544C90.6579 336.062 91.4355 336.775 92.4333 337.63C97.6392 342.099 103.407 345.868 109.591 348.84C110.77 349.41 111.742 349.838 112.429 350.136C112.773 350.307 113.14 350.429 113.518 350.499C112.327 349.739 111.089 349.055 109.811 348.451C107.505 347.155 104.356 345.432 101.025 343.268C97.6946 341.103 94.7919 338.926 92.7443 337.306C91.6755 336.366 90.5503 335.492 89.375 334.689Z" fill="#EF3769"/>
<path d="M286.4 492.063L287.631 493.683C287.631 493.683 323.657 483.834 327.921 488.849L272.884 530.137L259.925 511.268C270.914 508.91 279.804 502.923 286.4 492.063Z" fill="#FD3E72"/>
<g opacity="0.6">
<path opacity="0.6" d="M269.867 512.941C269.458 513.498 269.269 514.187 269.336 514.876C269.403 515.565 269.721 516.204 270.23 516.673C270.775 517.098 271.462 517.299 272.15 517.237C272.838 517.174 273.477 516.852 273.937 516.336C274.363 515.74 274.556 515.009 274.48 514.281C274.403 513.552 274.063 512.877 273.522 512.383C272.91 511.994 272.171 511.858 271.46 512.003C270.749 512.148 270.123 512.563 269.712 513.161" fill="white"/>
</g>
<path d="M272.884 530.136L269.761 525.601L323.657 487.683C323.657 487.683 326.897 486.918 327.921 488.849L272.884 530.136Z" fill="#5B5863"/>
<path d="M287.938 493.695C288.133 493.967 286.876 495.095 286.202 496.948C285.528 498.801 285.67 500.46 285.347 500.537C285.023 500.615 284.258 498.775 285.113 496.533C285.969 494.291 287.809 493.397 287.938 493.695Z" fill="#263238"/>
<path d="M295.51 491.751C295.769 491.959 294.94 493.293 294.888 495.108C294.836 496.922 295.458 498.334 295.186 498.529C294.914 498.723 293.592 497.324 293.722 495.056C293.851 492.788 295.316 491.492 295.51 491.751Z" fill="#263238"/>
<path d="M303.972 496.197C303.765 496.443 302.391 495.381 301.977 493.385C301.562 491.389 302.378 489.873 302.663 490.003C302.948 490.132 302.754 491.519 303.117 493.139C303.48 494.759 304.218 495.964 303.972 496.197Z" fill="#263238"/>
<path d="M205.574 551.129C205.574 551.129 226.023 559.151 232.062 546.62L235.483 551.259L254.041 585.25C254.64 586.318 254.825 587.569 254.559 588.765C254.294 589.96 253.597 591.016 252.602 591.73C251.821 592.264 250.907 592.57 249.961 592.613C249.016 592.657 248.077 592.436 247.25 591.976C238.438 586.974 206.118 568.416 205.587 564.995L203.591 556.054C203.395 555.136 203.479 554.181 203.833 553.312C204.187 552.443 204.793 551.701 205.574 551.181V551.129Z" fill="#FD3E72"/>
<path d="M251.785 592.119L204.848 561.847L205.314 563.791C205.625 565.955 206.766 566.564 208.113 567.679C212.105 570.97 222.666 577.942 247.107 591.964C247.815 592.368 248.612 592.594 249.427 592.621C250.242 592.648 251.052 592.476 251.785 592.119Z" fill="#5B5863"/>
<g opacity="0.6">
<path opacity="0.6" d="M209.01 554.745C209.685 555.01 210.235 555.521 210.55 556.175C210.865 556.828 210.921 557.577 210.707 558.27C210.429 558.951 209.907 559.503 209.243 559.82C208.58 560.136 207.822 560.193 207.118 559.981C206.777 559.839 206.468 559.633 206.208 559.372C205.947 559.111 205.741 558.802 205.6 558.461C205.459 558.12 205.387 557.756 205.387 557.387C205.387 557.019 205.46 556.654 205.602 556.313C205.743 555.973 205.95 555.664 206.21 555.403C206.471 555.143 206.781 554.936 207.121 554.796C207.462 554.655 207.827 554.583 208.195 554.583C208.564 554.583 208.929 554.656 209.269 554.797" fill="white"/>
</g>
<path d="M236.196 574.586C236.494 574.65 236.986 571.994 239.474 570.024C241.962 568.054 244.658 568.015 244.658 567.717C244.658 567.419 243.984 567.38 242.843 567.484C241.355 567.679 239.951 568.285 238.787 569.234C237.625 570.159 236.757 571.401 236.286 572.81C235.975 573.925 236.066 574.586 236.196 574.586Z" fill="#263238"/>
<path d="M241.035 579.976C241.307 580.119 242.46 578.266 244.741 576.996C247.022 575.726 249.199 575.622 249.212 575.324C249.225 575.026 246.789 574.624 244.21 576.102C241.631 577.579 240.763 579.912 241.035 579.976Z" fill="#263238"/>
<path d="M228.046 568.235C228.319 568.404 230.094 565.54 233.463 563.272C236.833 561.004 240.137 560.318 240.072 560.007C240.008 559.696 236.431 559.942 232.854 562.43C229.278 564.918 227.787 568.171 228.046 568.235Z" fill="#263238"/>
<path d="M224.609 557.376C224.804 557.622 227.201 555.937 230.519 555.004C233.836 554.071 236.752 554.227 236.791 553.916C236.83 553.605 233.836 552.97 230.233 554.006C226.631 555.043 224.402 557.194 224.609 557.376Z" fill="#263238"/>
<path d="M232.476 554.448C232.384 553.85 232.153 553.282 231.803 552.789C230.98 551.354 229.878 550.099 228.563 549.096C227.645 548.276 226.485 547.776 225.258 547.671C224.851 547.67 224.452 547.794 224.117 548.026C223.781 548.257 223.524 548.585 223.379 548.966C223.147 549.712 223.207 550.518 223.548 551.221C224.325 552.64 225.569 553.746 227.069 554.351C228.569 554.956 230.233 555.022 231.777 554.539C233.298 554.057 234.645 553.138 235.647 551.895C236.65 550.653 237.264 549.143 237.414 547.554C237.441 547.158 237.383 546.76 237.242 546.389C237.101 546.017 236.881 545.681 236.597 545.403C236.271 545.155 235.876 545.012 235.467 544.994C235.057 544.975 234.651 545.082 234.304 545.299C233.319 546.004 232.537 546.956 232.036 548.059C231.249 549.514 230.731 551.099 230.507 552.738C230.368 553.326 230.368 553.938 230.507 554.526C230.928 552.388 231.671 550.325 232.71 548.409C233.165 547.482 233.841 546.68 234.679 546.077C234.863 545.929 235.092 545.849 235.327 545.849C235.563 545.849 235.792 545.929 235.975 546.077C236.148 546.271 236.278 546.499 236.356 546.747C236.434 546.995 236.459 547.257 236.429 547.515C236.259 548.884 235.703 550.176 234.827 551.24C233.95 552.305 232.789 553.098 231.479 553.528C230.17 553.926 228.766 553.875 227.491 553.381C226.215 552.888 225.142 551.982 224.442 550.807C224.196 550.318 224.131 549.757 224.26 549.226C224.337 549.015 224.476 548.832 224.659 548.703C224.842 548.573 225.06 548.502 225.284 548.5C226.322 548.596 227.306 549.002 228.109 549.666C229.837 550.988 231.316 552.607 232.476 554.448Z" fill="#263238"/>
<path d="M123.699 145.941C124.917 142.714 124.437 139.124 124.93 135.716C125.992 128.187 132.031 122.161 139.029 119.219C145.509 116.485 153.504 117.068 161.357 119.595C166.801 121.235 171.671 124.379 175.405 128.666C177.769 131.597 179.398 135.05 180.158 138.738C180.918 142.425 180.785 146.241 179.772 149.867L141.31 144.347C137.707 147.34 134.027 150.373 129.647 152.031C128.39 152.59 127.011 152.813 125.642 152.679C124.957 152.602 124.309 152.329 123.776 151.892C123.242 151.455 122.847 150.874 122.636 150.217C122.325 148.779 123.167 147.34 123.699 145.941Z" fill="#5B5863"/>
<path d="M147.596 117.289C139.185 115.864 131.786 119.116 124.697 123.872C117.601 128.757 112.174 135.699 109.146 143.764C105.907 152.149 105.09 164.278 107.604 172.922C108.722 176.988 110.806 180.723 113.678 183.809C116.551 186.896 120.126 189.243 124.101 190.65C135.673 194.732 149.047 194.24 158.844 186.762C168.641 179.285 174.213 167.09 174.667 154.818C175.093 146.298 172.826 137.861 168.187 130.702C165.853 127.16 162.814 124.137 159.26 121.82C155.706 119.504 151.714 117.944 147.531 117.237" fill="#5B5863"/>
<path d="M160.658 215.687C160.658 216.361 160.593 217.099 160.554 217.89C160.554 217.89 160.554 218.11 160.554 218.473C160.139 223.125 157.962 231.885 147.595 232.015C134.636 232.184 124.722 217.76 123.245 215.531L122.765 144.062C122.791 142.492 123.407 140.989 124.489 139.851C125.572 138.713 127.043 138.024 128.61 137.92L162.174 130.767C172.852 130.041 179.448 143.415 179.72 154.093C180.018 166.002 179.915 180.542 178.178 189.341C174.679 207.043 160.943 208.78 160.943 208.78C160.943 208.78 160.891 210.84 160.658 215.687Z" fill="#FFBE9D"/>
<path d="M160.973 208.288C152.581 208.1 144.406 205.583 137.362 201.018C137.362 201.018 142.895 213.575 160.779 212.577L160.973 208.288Z" fill="#F8AD87"/>
<path d="M117.532 140.771C121.005 130.533 136.18 116.589 146.936 117.548L163.951 128.175C163.335 131.098 161.943 133.801 159.92 136C157.897 138.198 155.319 139.811 152.457 140.667C149.398 141.535 145.731 141.73 143.865 144.309C141.999 146.888 142.984 150.853 141.208 153.574C138.759 157.345 132.241 157.047 130.387 161.142C129.571 162.931 129.934 165.03 129.092 166.87C127.964 169.229 121.873 172.145 119.385 171.302C116.897 170.46 116.975 166.209 116.197 163.967C115.21 161.437 115.136 158.641 115.99 156.062C117.143 151.047 115.847 145.643 117.532 140.771Z" fill="#5B5863"/>
<path d="M126.72 173.544C126.72 172.248 125.346 169.034 124.037 168.775C120.564 168.101 114.253 168.153 113.851 177.03C113.32 189.172 125.618 187.203 125.657 186.853C125.696 186.503 126.551 178.131 126.72 173.544Z" fill="#FFBE9D"/>
<path d="M122.157 182.097C122.157 182.097 121.936 182.227 121.573 182.383C121.061 182.583 120.492 182.583 119.979 182.383C118.684 181.851 117.738 179.791 117.776 177.575C117.785 176.534 118.033 175.51 118.502 174.581C118.628 174.205 118.846 173.866 119.135 173.595C119.425 173.323 119.777 173.128 120.161 173.026C120.406 172.973 120.662 173.008 120.885 173.124C121.107 173.24 121.282 173.43 121.379 173.661C121.535 174.011 121.444 174.244 121.509 174.27C121.573 174.296 121.781 174.076 121.703 173.57C121.65 173.265 121.489 172.99 121.249 172.793C121.091 172.658 120.908 172.557 120.709 172.495C120.511 172.432 120.303 172.41 120.096 172.43C119.593 172.509 119.119 172.714 118.717 173.027C118.316 173.34 118.001 173.75 117.802 174.218C117.244 175.246 116.942 176.393 116.921 177.562C116.921 180.011 118.049 182.357 119.772 182.94C120.095 183.05 120.438 183.086 120.777 183.045C121.116 183.005 121.441 182.889 121.729 182.707C122.118 182.383 122.195 182.123 122.157 182.097Z" fill="#EB996E"/>
<path d="M106.528 156.944C106.168 155.766 106.014 154.534 106.074 153.303C106.039 150.321 106.508 147.355 107.461 144.53C108.412 141.725 109.822 139.098 111.634 136.754C112.344 135.75 113.221 134.873 114.225 134.163C114.446 134.318 110.338 138.361 108.251 144.88C106.165 151.398 106.774 156.944 106.528 156.944Z" fill="#FD3E72"/>
<path d="M160.41 124.508C161.538 129.458 169.054 135.782 172.358 139.631C178.656 146.965 179.849 148.041 179.797 170.162C183.073 163.276 184.803 155.757 184.864 148.132C184.715 141.669 182.207 135.483 177.814 130.741C175.598 128.417 172.872 126.64 169.852 125.549C166.832 124.458 163.6 124.084 160.41 124.456" fill="#5B5863"/>
<path d="M111.35 140.615C112.021 140.843 112.711 141.012 113.411 141.121C114.223 141.308 115.045 141.45 115.873 141.548C116.832 141.678 117.933 141.859 119.152 141.924C122.018 142.169 124.899 142.195 127.769 142.002C134.813 141.551 141.722 139.862 148.18 137.013C150.807 135.853 153.345 134.502 155.774 132.97C156.836 132.348 157.718 131.674 158.521 131.116C159.207 130.645 159.869 130.139 160.504 129.6C161.075 129.181 161.608 128.713 162.098 128.201C161.478 128.544 160.889 128.938 160.335 129.38C159.791 129.782 159.104 130.274 158.288 130.78C157.471 131.285 156.577 131.946 155.514 132.529C153.068 133.992 150.527 135.291 147.908 136.417C141.491 139.151 134.671 140.818 127.717 141.354C124.88 141.565 122.031 141.591 119.19 141.432C117.972 141.432 116.884 141.25 115.925 141.16C114.966 141.069 114.136 140.965 113.463 140.862C112.767 140.716 112.06 140.634 111.35 140.615Z" fill="#918F96"/>
<path d="M110.091 149.324C110.544 149.501 111.02 149.614 111.504 149.661C112.788 149.904 114.087 150.069 115.391 150.153C124.124 150.808 132.87 149.084 140.7 145.164C141.88 144.579 143.026 143.93 144.134 143.22C144.557 142.989 144.949 142.706 145.301 142.378C145.236 142.261 143.474 143.337 140.48 144.71C132.632 148.31 124.044 150.001 115.417 149.648C112.139 149.531 110.104 149.194 110.091 149.324Z" fill="#918F96"/>
<path d="M107.021 149.622C106.814 150.213 106.679 150.826 106.619 151.449C106.357 153.132 106.188 154.828 106.114 156.529C106.01 158.681 105.971 161.246 106.114 164.097C106.251 167.199 106.685 170.28 107.41 173.298C108.813 178.864 112.136 183.756 116.792 187.113C118.202 188.082 119.715 188.895 121.302 189.536C121.867 189.805 122.463 190.006 123.077 190.132C122.549 189.802 121.994 189.516 121.418 189.277C119.907 188.54 118.463 187.673 117.103 186.685C115.093 185.213 113.341 183.417 111.919 181.372C110.126 178.907 108.808 176.129 108.032 173.182C107.336 170.201 106.903 167.166 106.736 164.11C106.554 161.285 106.529 158.745 106.58 156.607C106.632 154.469 106.723 152.719 106.84 151.54C106.956 150.907 107.016 150.266 107.021 149.622Z" fill="#918F96"/>
<path d="M198.563 319.411C198.693 319.411 198.356 317.752 198.369 315.07C198.375 313.509 198.518 311.953 198.796 310.417C199.156 308.54 199.69 306.701 200.39 304.923C201.119 303.158 202.013 301.466 203.06 299.869C203.934 298.572 204.913 297.35 205.989 296.214C207.842 294.284 209.228 293.338 209.151 293.234C208.78 293.377 208.434 293.578 208.127 293.83C207.744 294.085 207.377 294.362 207.025 294.659C206.544 295.038 206.085 295.445 205.652 295.877C204.498 296.983 203.461 298.203 202.555 299.519C201.439 301.142 200.501 302.88 199.755 304.703C199.039 306.527 198.514 308.42 198.187 310.353C197.933 311.929 197.833 313.526 197.889 315.122C197.905 315.733 197.953 316.343 198.032 316.949C198.073 317.411 198.146 317.87 198.252 318.322C198.297 318.7 198.402 319.067 198.563 319.411Z" fill="#EF3769"/>
<path d="M193.498 312.71C193.614 312.71 193.822 311.414 194.47 309.393C196.169 304.119 199.438 299.489 203.839 296.123C205.524 294.827 206.677 294.205 206.625 294.101C206.573 293.998 206.301 294.192 205.757 294.451C204.987 294.82 204.25 295.254 203.554 295.747C198.87 298.977 195.489 303.768 194.016 309.263C193.788 310.083 193.623 310.919 193.524 311.764C193.459 312.373 193.446 312.697 193.498 312.71Z" fill="#EF3769"/>
</svg>
