<svg width="28" height="23" viewBox="0 0 28 23" fill="none" xmlns="http://www.w3.org/2000/svg">
<path d="M28 2.65385C26.95 3.18462 25.9 3.36154 24.675 3.53846C25.9 2.83077 26.775 1.76923 27.125 0.353846C26.075 1.06154 24.85 1.41538 23.45 1.76923C22.4 0.707692 20.825 0 19.25 0C16.275 0 13.65 2.65385 13.65 5.83846C13.65 6.36923 13.65 6.72308 13.825 7.07692C11.532 6.98949 9.28401 6.40755 7.23164 5.37009C5.17928 4.33263 3.36997 2.86363 1.925 1.06154C1.4 1.94615 1.225 2.83077 1.225 4.06923C1.225 6.01538 2.275 7.78462 3.85 8.84615C2.975 8.84615 2.1 8.49231 1.225 8.13846C1.225 10.9692 3.15 13.2692 5.775 13.8C5.25 13.9769 4.725 13.9769 4.2 13.9769C3.85 13.9769 3.5 13.9769 3.15 13.8C3.85 16.1 5.95 17.8692 8.575 17.8692C6.65 19.4615 4.2 20.3462 1.4 20.3462H0C2.625 21.9385 5.6 23 8.75 23C19.25 23 25.025 14.1538 25.025 6.54615V5.83846C26.25 4.95385 27.3 3.89231 28 2.65385Z" fill="#009DED"/>
</svg>
