<svg width="327" height="220" viewBox="0 0 327 220" fill="none" xmlns="http://www.w3.org/2000/svg">
<path d="M0 5.77739C0 2.58663 2.58662 0 5.77739 0H321.223C324.413 0 327 2.58662 327 5.77739V213.763C327 216.954 324.413 219.541 321.223 219.541H5.77738C2.58662 219.541 0 216.954 0 213.763V5.77739Z" fill="white"/>
<path fill-rule="evenodd" clip-rule="evenodd" d="M308.682 14.0349C308.907 13.8093 309.273 13.8093 309.499 14.0349L312.268 16.804L315.037 14.0349C315.262 13.8093 315.628 13.8093 315.854 14.0349C316.079 14.2606 316.079 14.6264 315.854 14.852L313.085 17.621L315.854 20.3901C316.079 20.6157 316.079 20.9815 315.854 21.2071C315.628 21.4327 315.262 21.4327 315.037 21.2071L312.268 18.4381L309.499 21.2071C309.273 21.4327 308.907 21.4327 308.682 21.2071C308.456 20.9815 308.456 20.6157 308.682 20.3901L311.451 17.621L308.682 14.852C308.456 14.6264 308.456 14.2606 308.682 14.0349Z" fill="#FD3E72"/>
<path d="M96.4823 162.922C96.4823 161.327 97.7756 160.034 99.371 160.034H228.207C229.802 160.034 231.095 161.327 231.095 162.922V189.498C231.095 191.094 229.802 192.387 228.207 192.387H99.371C97.7756 192.387 96.4823 191.094 96.4823 189.498V162.922Z" fill="#FD3E72"/>
<path fill-rule="evenodd" clip-rule="evenodd" d="M228.207 160.611H99.371C98.0947 160.611 97.0601 161.646 97.0601 162.922V189.498C97.0601 190.775 98.0947 191.809 99.371 191.809H228.207C229.483 191.809 230.518 190.775 230.518 189.498V162.922C230.518 161.646 229.483 160.611 228.207 160.611ZM99.371 160.034C97.7756 160.034 96.4823 161.327 96.4823 162.922V189.498C96.4823 191.094 97.7756 192.387 99.371 192.387H228.207C229.802 192.387 231.095 191.094 231.095 189.498V162.922C231.095 161.327 229.802 160.034 228.207 160.034H99.371Z" fill="#FD3E72"/>
<path d="M134.404 179.758C134.642 179.758 134.881 179.733 135.12 179.677C135.353 179.626 135.582 179.54 135.805 179.418C136.029 179.301 136.222 179.159 136.389 178.986C136.557 178.819 136.694 178.61 136.795 178.362C136.897 178.118 136.948 177.844 136.948 177.549C136.948 177.265 136.902 177.011 136.821 176.787C136.674 176.402 136.369 176.077 135.902 175.818C135.688 175.701 135.272 175.523 134.663 175.279C134.145 175.081 133.805 174.929 133.647 174.827C133.398 174.665 133.276 174.462 133.282 174.208C133.282 173.944 133.383 173.731 133.576 173.578C133.769 173.426 134.018 173.345 134.312 173.345C134.84 173.345 135.404 173.599 136.013 174.101L136.76 173.116C135.983 172.507 135.165 172.207 134.312 172.207C133.891 172.207 133.5 172.299 133.144 172.481C132.789 172.664 132.505 172.913 132.296 173.228C132.083 173.548 131.982 173.898 131.982 174.274C131.982 174.462 132.002 174.64 132.048 174.802C132.093 174.965 132.154 175.112 132.225 175.239C132.296 175.366 132.388 175.488 132.51 175.599C132.627 175.711 132.743 175.813 132.86 175.894C132.977 175.975 133.119 176.056 133.282 176.137C133.444 176.219 133.596 176.29 133.733 176.341C133.866 176.396 134.028 176.457 134.211 176.518C134.363 176.574 134.49 176.62 134.587 176.655C134.678 176.696 134.785 176.737 134.896 176.787C135.008 176.838 135.099 176.879 135.165 176.919C135.231 176.96 135.297 177.011 135.369 177.067C135.435 177.128 135.485 177.184 135.521 177.244C135.551 177.305 135.582 177.371 135.602 177.448C135.622 177.524 135.638 177.605 135.638 177.696C135.638 177.981 135.531 178.199 135.323 178.362C135.11 178.524 134.805 178.6 134.409 178.6C134.079 178.6 133.744 178.519 133.409 178.351C133.073 178.184 132.774 177.94 132.515 177.625L131.723 178.6C132.098 178.986 132.52 179.276 132.982 179.469C133.439 179.661 133.916 179.758 134.404 179.758Z" fill="white"/>
<path d="M141.579 174.604V177.031C141.579 177.295 141.543 177.539 141.472 177.752C141.401 177.965 141.304 178.143 141.183 178.275C141.061 178.412 140.919 178.519 140.766 178.59C140.609 178.661 140.446 178.697 140.274 178.697C140.091 178.697 139.944 178.676 139.822 178.636C139.7 178.595 139.593 178.519 139.512 178.417C139.426 178.316 139.365 178.184 139.324 178.011C139.284 177.844 139.268 177.63 139.268 177.376V174.604H138.105V177.691C138.105 178.062 138.151 178.382 138.243 178.651C138.334 178.92 138.461 179.133 138.634 179.291C138.806 179.453 139.004 179.57 139.228 179.646C139.451 179.722 139.71 179.758 139.999 179.758C140.299 179.758 140.583 179.697 140.858 179.57C141.127 179.443 141.36 179.26 141.563 179.017H141.579V179.677H142.741V174.604H141.579Z" fill="white"/>
<path d="M147.007 174.528C146.321 174.528 145.788 174.756 145.402 175.213H145.377V172.019H144.214V179.677H145.326V178.996H145.346C145.732 179.504 146.281 179.758 146.997 179.758C147.342 179.758 147.667 179.697 147.972 179.575C148.276 179.453 148.535 179.276 148.754 179.052C148.967 178.829 149.139 178.555 149.266 178.23C149.388 177.905 149.454 177.549 149.454 177.163C149.454 176.864 149.414 176.579 149.332 176.305C149.251 176.031 149.139 175.787 148.992 175.574C148.845 175.361 148.672 175.173 148.474 175.015C148.271 174.863 148.048 174.741 147.794 174.655C147.54 174.574 147.281 174.528 147.007 174.528ZM146.814 178.702C146.392 178.702 146.042 178.56 145.758 178.275C145.473 177.991 145.331 177.625 145.331 177.168C145.331 176.991 145.351 176.823 145.397 176.661C145.443 176.498 145.509 176.356 145.6 176.224C145.687 176.092 145.788 175.98 145.91 175.884C146.027 175.792 146.164 175.716 146.316 175.665C146.469 175.614 146.636 175.584 146.809 175.584C147.225 175.584 147.57 175.731 147.85 176.021C148.129 176.31 148.271 176.691 148.271 177.168C148.271 177.62 148.134 177.991 147.865 178.275C147.591 178.56 147.24 178.702 146.814 178.702Z" fill="white"/>
<path d="M156.787 174.528C156.411 174.528 156.066 174.604 155.756 174.746C155.441 174.888 155.182 175.097 154.969 175.371H154.948C154.644 174.812 154.141 174.528 153.435 174.528C153.136 174.528 152.846 174.599 152.572 174.731C152.298 174.863 152.054 175.056 151.851 175.305H151.836V174.604H150.673V179.677H151.836V177.148C151.836 176.666 151.947 176.285 152.176 176.005C152.404 175.726 152.699 175.584 153.054 175.584C153.725 175.584 154.065 176.071 154.065 177.036V179.682H155.228V177.148C155.228 176.666 155.339 176.285 155.563 176.005C155.786 175.726 156.071 175.584 156.411 175.584C157.071 175.584 157.406 176.071 157.406 177.036V179.682H158.569V176.742C158.569 176 158.411 175.447 158.107 175.081C157.797 174.716 157.355 174.528 156.787 174.528Z" fill="white"/>
<path d="M160.671 173.847C160.808 173.847 160.935 173.817 161.057 173.746C161.179 173.675 161.275 173.583 161.346 173.461C161.418 173.345 161.453 173.218 161.453 173.076C161.453 172.867 161.372 172.685 161.22 172.532C161.067 172.38 160.884 172.304 160.671 172.304C160.448 172.304 160.265 172.38 160.113 172.532C159.96 172.685 159.884 172.862 159.884 173.076C159.884 173.289 159.96 173.472 160.113 173.624C160.265 173.776 160.448 173.847 160.671 173.847ZM160.082 179.677H161.245V174.604H160.082V179.677Z" fill="white"/>
<path d="M164.302 179.758C164.601 179.758 164.845 179.733 165.033 179.682C165.221 179.631 165.409 179.56 165.591 179.458L165.287 178.453C165.013 178.6 164.759 178.671 164.535 178.671C164.368 178.671 164.246 178.621 164.165 178.509C164.083 178.402 164.048 178.219 164.048 177.965V175.594H165.541V174.604H164.048V172.791L162.885 172.918V174.604H162.266V175.594H162.885V178.072C162.885 178.631 163.007 179.047 163.256 179.331C163.505 179.616 163.855 179.758 164.302 179.758Z" fill="white"/>
<path d="M169.517 179.677H174.381V178.549H170.771V176.579H173.513V175.452H170.771V173.416H174.163V172.289H169.517V179.677Z" fill="white"/>
<path d="M181.8 174.528C181.424 174.528 181.079 174.604 180.769 174.746C180.454 174.888 180.195 175.097 179.982 175.371H179.962C179.657 174.812 179.154 174.528 178.448 174.528C178.149 174.528 177.859 174.599 177.585 174.731C177.311 174.863 177.067 175.056 176.864 175.305H176.849V174.604H175.686V179.677H176.849V177.148C176.849 176.666 176.961 176.285 177.189 176.005C177.418 175.726 177.712 175.584 178.068 175.584C178.738 175.584 179.078 176.071 179.078 177.036V179.682H180.241V177.148C180.241 176.666 180.353 176.285 180.576 176.005C180.799 175.726 181.084 175.584 181.424 175.584C182.084 175.584 182.419 176.071 182.419 177.036V179.682H183.582V176.742C183.582 176 183.425 175.447 183.12 175.081C182.81 174.716 182.368 174.528 181.8 174.528Z" fill="white"/>
<path d="M188.746 174.604V175.213H188.726C188.34 174.756 187.817 174.528 187.157 174.528C186.812 174.528 186.487 174.594 186.187 174.726C185.882 174.858 185.623 175.041 185.41 175.269C185.192 175.503 185.019 175.782 184.897 176.107C184.77 176.437 184.709 176.787 184.709 177.163C184.709 177.473 184.745 177.762 184.826 178.037C184.907 178.311 185.019 178.549 185.166 178.758C185.314 178.966 185.486 179.144 185.689 179.296C185.892 179.448 186.116 179.565 186.37 179.641C186.624 179.722 186.888 179.758 187.167 179.758C187.858 179.758 188.396 179.504 188.782 178.996H188.797V179.677H189.909V174.604H188.746ZM187.35 178.702C186.918 178.702 186.568 178.56 186.299 178.275C186.024 177.991 185.892 177.62 185.892 177.168C185.892 176.935 185.928 176.716 186.004 176.513C186.08 176.31 186.187 176.143 186.319 176.011C186.451 175.879 186.603 175.772 186.781 175.696C186.959 175.625 187.152 175.584 187.355 175.584C187.766 175.584 188.106 175.736 188.381 176.041C188.655 176.346 188.792 176.721 188.792 177.168C188.792 177.62 188.65 177.991 188.37 178.275C188.091 178.56 187.751 178.702 187.35 178.702Z" fill="white"/>
<path d="M192.042 173.847C192.179 173.847 192.306 173.817 192.428 173.746C192.549 173.675 192.646 173.583 192.717 173.461C192.788 173.345 192.824 173.218 192.824 173.076C192.824 172.867 192.742 172.685 192.59 172.532C192.438 172.38 192.255 172.304 192.042 172.304C191.818 172.304 191.635 172.38 191.483 172.532C191.331 172.685 191.255 172.862 191.255 173.076C191.255 173.289 191.331 173.472 191.483 173.624C191.635 173.776 191.818 173.847 192.042 173.847ZM191.453 179.677H192.615V174.604H191.453V179.677Z" fill="white"/>
<path d="M194.286 179.677H195.449V172.019H194.286V179.677Z" fill="white"/>
<path d="M22.5318 103.993C22.5318 102.398 23.8251 101.104 25.4205 101.104H301.579C303.175 101.104 304.468 102.398 304.468 103.993V144.435C304.468 146.03 303.175 147.323 301.579 147.323H25.4205C23.8251 147.323 22.5318 146.03 22.5318 144.435V103.993Z" fill="white"/>
<path fill-rule="evenodd" clip-rule="evenodd" d="M301.579 101.682H25.4205C24.1442 101.682 23.1095 102.717 23.1095 103.993V144.435C23.1095 145.711 24.1442 146.746 25.4205 146.746H301.579C302.856 146.746 303.89 145.711 303.89 144.435V103.993C303.89 102.717 302.856 101.682 301.579 101.682ZM25.4205 101.104C23.8251 101.104 22.5318 102.398 22.5318 103.993V144.435C22.5318 146.03 23.8251 147.323 25.4205 147.323H301.579C303.175 147.323 304.468 146.03 304.468 144.435V103.993C304.468 102.398 303.175 101.104 301.579 101.104H25.4205Z" fill="#E0DED5"/>
<path d="M40.699 132.88H44.9101V132.14H41.5069V129.991H44.1428V129.251H41.5069V127.053H44.7161V126.313H40.699V132.88Z" fill="#8D8B92"/>
<path d="M48.4984 128.326C48.1599 128.326 47.8485 128.398 47.5686 128.542C47.2843 128.687 47.0496 128.89 46.8645 129.156H46.851V128.38H46.1017V132.88H46.851V130.632C46.851 130.136 46.9774 129.738 47.2346 129.45C47.4919 129.161 47.8349 129.012 48.2637 129.012C48.4353 129.012 48.5842 129.039 48.7151 129.084C48.8415 129.134 48.9588 129.21 49.0581 129.319C49.1574 129.427 49.2296 129.576 49.2838 129.756C49.338 129.942 49.3651 130.163 49.3651 130.42V132.884H50.1143V130.212C50.1143 129.589 49.9699 129.116 49.681 128.8C49.3921 128.484 48.9995 128.326 48.4984 128.326Z" fill="#8D8B92"/>
<path d="M52.7367 132.939C52.8992 132.939 53.0572 132.925 53.2016 132.898C53.346 132.871 53.4589 132.835 53.5491 132.799C53.6349 132.762 53.7252 132.713 53.8245 132.659L53.6259 132.004C53.3551 132.158 53.1023 132.234 52.8676 132.234C52.66 132.234 52.52 132.171 52.4388 132.045C52.3576 131.918 52.3169 131.711 52.3169 131.426V129.03H53.8064V128.38H52.3169V126.759L51.5677 126.841V128.38H50.9945V129.03H51.5677V131.539C51.5677 132.474 51.9558 132.939 52.7367 132.939Z" fill="#8D8B92"/>
<path d="M58.5908 130.56C58.5908 130.136 58.5005 129.752 58.329 129.413C58.1575 129.075 57.9093 128.809 57.5933 128.615C57.2728 128.425 56.9072 128.326 56.4965 128.326C56.1941 128.326 55.9097 128.384 55.648 128.497C55.3817 128.615 55.1515 128.772 54.9619 128.971C54.7723 129.17 54.6189 129.413 54.5105 129.702C54.3977 129.991 54.3435 130.298 54.3435 130.632C54.3435 130.971 54.3977 131.282 54.515 131.571C54.6279 131.86 54.7859 132.104 54.9845 132.302C55.1831 132.501 55.4178 132.659 55.6931 132.772C55.9684 132.884 56.2663 132.939 56.5823 132.939C56.975 132.939 57.327 132.866 57.6339 132.713C57.9409 132.559 58.1981 132.352 58.4012 132.09L57.8777 131.643C57.7242 131.828 57.5437 131.977 57.3315 132.085C57.1149 132.194 56.8757 132.248 56.6094 132.248C56.2031 132.248 55.8646 132.126 55.5938 131.873C55.3185 131.621 55.156 131.287 55.1108 130.867H58.5682C58.5818 130.777 58.5908 130.677 58.5908 130.56ZM56.5371 129.016C56.8892 129.016 57.1781 129.129 57.4083 129.35C57.6384 129.576 57.7829 129.874 57.8461 130.244H55.1289C55.1966 129.869 55.3591 129.571 55.6164 129.35C55.8736 129.129 56.1806 129.016 56.5371 129.016Z" fill="#8D8B92"/>
<path d="M61.9534 128.326C61.6465 128.326 61.3712 128.402 61.1184 128.547C60.8657 128.691 60.658 128.899 60.491 129.165H60.473V128.38H59.7237V132.88H60.473V130.709C60.473 130.411 60.5271 130.14 60.6355 129.905C60.7438 129.671 60.9018 129.486 61.1094 129.35C61.317 129.215 61.5608 129.147 61.8406 129.147C61.9309 129.147 62.0302 129.152 62.1385 129.161V128.335C62.1024 128.33 62.0392 128.326 61.9534 128.326Z" fill="#8D8B92"/>
<path d="M68.7193 128.38L67.3607 131.806H67.3381L65.8757 128.38H65.0768L66.9771 132.704L66.1736 134.708H66.968L69.5137 128.38H68.7193Z" fill="#8D8B92"/>
<path d="M72.2625 132.939C72.7003 132.939 73.0975 132.844 73.4495 132.65C73.8016 132.46 74.0769 132.185 74.2755 131.833C74.4741 131.481 74.5779 131.083 74.5779 130.637C74.5779 130.19 74.4741 129.788 74.2755 129.436C74.0769 129.084 73.8016 128.809 73.4495 128.615C73.0975 128.425 72.7003 128.326 72.2625 128.326C71.9194 128.326 71.599 128.389 71.3101 128.506C71.0167 128.624 70.7685 128.786 70.5699 128.994C70.3713 129.201 70.2133 129.445 70.1004 129.729C69.9876 130.014 69.9334 130.316 69.9334 130.637C69.9334 130.962 69.9876 131.264 70.1004 131.544C70.2133 131.824 70.3713 132.067 70.5699 132.275C70.7685 132.483 71.0167 132.645 71.3101 132.762C71.599 132.88 71.9194 132.939 72.2625 132.939ZM72.2625 132.248C71.9555 132.248 71.6847 132.176 71.4455 132.031C71.2018 131.887 71.0167 131.693 70.8858 131.449C70.7549 131.205 70.6917 130.934 70.6917 130.637C70.6917 130.339 70.7549 130.068 70.8858 129.82C71.0122 129.576 71.1973 129.377 71.441 129.233C71.6802 129.088 71.9555 129.016 72.2625 129.016C72.5513 129.016 72.8131 129.084 73.0478 129.219C73.2825 129.355 73.4721 129.549 73.612 129.797C73.7474 130.045 73.8196 130.325 73.8196 130.637C73.8196 130.948 73.7474 131.228 73.612 131.472C73.4721 131.72 73.2825 131.909 73.0478 132.045C72.8086 132.18 72.5468 132.248 72.2625 132.248Z" fill="#8D8B92"/>
<path d="M78.8162 128.38V130.56C78.8162 130.822 78.7801 131.056 78.7079 131.273C78.6356 131.49 78.5363 131.67 78.4145 131.81C78.2926 131.95 78.1527 132.058 77.9902 132.135C77.8277 132.212 77.6607 132.248 77.4802 132.248C77.11 132.248 76.8347 132.14 76.6542 131.923C76.4736 131.706 76.3834 131.345 76.3834 130.844V128.38H75.6341V131.061C75.6341 131.688 75.7785 132.158 76.0764 132.469C76.3743 132.785 76.7896 132.939 77.3222 132.939C77.611 132.939 77.8864 132.871 78.1482 132.731C78.4054 132.595 78.6221 132.397 78.8026 132.135H78.8162V132.88H79.5654V128.38H78.8162Z" fill="#8D8B92"/>
<path d="M83.1763 128.326C82.8694 128.326 82.594 128.402 82.3413 128.547C82.0885 128.691 81.8809 128.899 81.7139 129.165H81.6958V128.38H80.9466V132.88H81.6958V130.709C81.6958 130.411 81.75 130.14 81.8583 129.905C81.9667 129.671 82.1246 129.486 82.3323 129.35C82.5399 129.215 82.7836 129.147 83.0635 129.147C83.1537 129.147 83.253 129.152 83.3614 129.161V128.335C83.3252 128.33 83.2621 128.326 83.1763 128.326Z" fill="#8D8B92"/>
<path d="M90.7636 130.56C90.7636 130.136 90.6734 129.752 90.5018 129.413C90.3303 129.075 90.0821 128.809 89.7661 128.615C89.4457 128.425 89.0801 128.326 88.6693 128.326C88.3669 128.326 88.0826 128.384 87.8208 128.497C87.5545 128.615 87.3243 128.772 87.1347 128.971C86.9451 129.17 86.7917 129.413 86.6833 129.702C86.5705 129.991 86.5163 130.298 86.5163 130.632C86.5163 130.971 86.5705 131.282 86.6879 131.571C86.8007 131.86 86.9587 132.104 87.1573 132.302C87.3559 132.501 87.5906 132.659 87.8659 132.772C88.1412 132.884 88.4391 132.939 88.7551 132.939C89.1478 132.939 89.4998 132.866 89.8067 132.713C90.1137 132.559 90.3709 132.352 90.5741 132.09L90.0505 131.643C89.897 131.828 89.7165 131.977 89.5043 132.085C89.2877 132.194 89.0485 132.248 88.7822 132.248C88.3759 132.248 88.0374 132.126 87.7666 131.873C87.4913 131.621 87.3288 131.287 87.2837 130.867H90.7411C90.7546 130.777 90.7636 130.677 90.7636 130.56ZM88.7099 129.016C89.062 129.016 89.3509 129.129 89.5811 129.35C89.8113 129.576 89.9557 129.874 90.0189 130.244H87.3017C87.3694 129.869 87.5319 129.571 87.7892 129.35C88.0465 129.129 88.3534 129.016 88.7099 129.016Z" fill="#8D8B92"/>
<path d="M97.2496 128.326C96.9066 128.326 96.5952 128.402 96.3108 128.556C96.0265 128.709 95.7918 128.921 95.6112 129.201H95.5932C95.3585 128.619 94.8845 128.326 94.1714 128.326C93.8735 128.326 93.5936 128.398 93.3319 128.542C93.0656 128.687 92.8399 128.885 92.6593 129.147H92.6458V128.38H91.9011V132.88H92.6458V130.646C92.6458 130.149 92.7677 129.756 93.0159 129.459C93.2596 129.161 93.5711 129.012 93.9502 129.012C94.1849 129.012 94.3835 129.061 94.5415 129.161C94.695 129.26 94.8168 129.413 94.8981 129.626C94.9793 129.842 95.0199 130.113 95.0199 130.438V132.88H95.7647V130.646C95.7647 130.154 95.882 129.756 96.1258 129.459C96.365 129.161 96.6674 129.012 97.0285 129.012C97.3896 129.012 97.6514 129.129 97.8229 129.355C97.9944 129.585 98.0801 129.951 98.0801 130.447V132.88H98.8249V130.244C98.8249 129.594 98.6895 129.111 98.4277 128.795C98.1614 128.484 97.7687 128.326 97.2496 128.326Z" fill="#8D8B92"/>
<path d="M103.659 128.38V129.048H103.641C103.451 128.813 103.226 128.637 102.959 128.511C102.693 128.389 102.404 128.326 102.097 128.326C101.677 128.326 101.298 128.429 100.964 128.633C100.626 128.836 100.364 129.116 100.174 129.468C99.9849 129.824 99.8946 130.221 99.8946 130.659C99.8946 130.998 99.9488 131.309 100.066 131.593C100.179 131.882 100.332 132.122 100.531 132.316C100.73 132.514 100.964 132.668 101.235 132.776C101.506 132.884 101.795 132.939 102.102 132.939C102.427 132.939 102.725 132.871 102.995 132.735C103.266 132.6 103.492 132.41 103.677 132.167H103.691V132.88H104.408V128.38H103.659ZM102.174 132.252C101.723 132.252 101.357 132.104 101.077 131.806C100.797 131.508 100.657 131.124 100.657 130.664C100.657 130.172 100.802 129.775 101.091 129.468C101.38 129.165 101.745 129.012 102.183 129.012C102.391 129.012 102.589 129.057 102.779 129.143C102.964 129.228 103.122 129.346 103.257 129.49C103.388 129.639 103.492 129.815 103.569 130.018C103.645 130.221 103.686 130.438 103.686 130.664C103.686 130.898 103.645 131.115 103.564 131.314C103.483 131.512 103.37 131.684 103.235 131.819C103.095 131.955 102.932 132.063 102.752 132.14C102.567 132.216 102.373 132.252 102.174 132.252Z" fill="#8D8B92"/>
<path d="M106.236 127.545C106.381 127.545 106.507 127.495 106.611 127.391C106.715 127.292 106.769 127.166 106.769 127.021C106.769 126.926 106.742 126.836 106.697 126.755C106.647 126.674 106.584 126.61 106.502 126.565C106.421 126.52 106.331 126.493 106.236 126.493C106.083 126.493 105.956 126.547 105.857 126.647C105.753 126.75 105.704 126.877 105.704 127.021C105.704 127.166 105.753 127.292 105.857 127.391C105.956 127.495 106.083 127.545 106.236 127.545ZM105.857 132.88H106.602V128.38H105.857V132.88Z" fill="#8D8B92"/>
<path d="M108.168 132.88H108.913V126.073H108.168V132.88Z" fill="#8D8B92"/>
<path d="M40.4666 117.859H43.7096V117.107H41.3027V115.794H43.1307V115.042H41.3027V113.685H43.564V112.933H40.4666V117.859Z" fill="#5B5863"/>
<path d="M48.6553 114.426C48.4048 114.426 48.1746 114.477 47.9681 114.572C47.7582 114.666 47.5856 114.805 47.4434 114.988H47.4299C47.2268 114.616 46.8916 114.426 46.4211 114.426C46.2214 114.426 46.0284 114.473 45.8456 114.561C45.6628 114.649 45.5003 114.778 45.3649 114.944H45.3548V114.477H44.5796V117.859H45.3548V116.173C45.3548 115.851 45.4292 115.597 45.5816 115.411C45.7339 115.225 45.9302 115.13 46.1672 115.13C46.6141 115.13 46.8409 115.455 46.8409 116.098V117.862H47.6161V116.173C47.6161 115.851 47.6905 115.597 47.8395 115.411C47.9884 115.225 48.178 115.13 48.4048 115.13C48.8449 115.13 49.0683 115.455 49.0683 116.098V117.862H49.8435V115.902C49.8435 115.408 49.7386 115.039 49.5355 114.795C49.329 114.551 49.0345 114.426 48.6553 114.426Z" fill="#5B5863"/>
<path d="M53.2863 114.477V114.883H53.2727C53.0154 114.578 52.6668 114.426 52.2267 114.426C51.9965 114.426 51.7798 114.47 51.5801 114.558C51.377 114.646 51.2044 114.768 51.0622 114.92C50.9166 115.076 50.8015 115.262 50.7203 115.479C50.6357 115.699 50.595 115.932 50.595 116.183C50.595 116.389 50.6187 116.582 50.6729 116.765C50.7271 116.948 50.8015 117.107 50.8997 117.246C50.9979 117.385 51.113 117.503 51.2484 117.605C51.3838 117.706 51.5327 117.784 51.702 117.835C51.8712 117.889 52.0473 117.913 52.2335 117.913C52.6938 117.913 53.0527 117.744 53.31 117.405H53.3201V117.859H54.0615V114.477H53.2863ZM52.3553 117.209C52.0676 117.209 51.834 117.114 51.6546 116.924C51.4718 116.735 51.3838 116.488 51.3838 116.186C51.3838 116.031 51.4075 115.885 51.4583 115.75C51.509 115.614 51.5801 115.503 51.6681 115.415C51.7562 115.327 51.8577 115.255 51.9762 115.205C52.0947 115.157 52.2233 115.13 52.3587 115.13C52.6329 115.13 52.8597 115.232 53.0425 115.435C53.2253 115.638 53.3167 115.888 53.3167 116.186C53.3167 116.488 53.2219 116.735 53.0358 116.924C52.8496 117.114 52.6228 117.209 52.3553 117.209Z" fill="#5B5863"/>
<path d="M55.4832 113.972C55.5746 113.972 55.6593 113.952 55.7405 113.905C55.8218 113.857 55.8861 113.796 55.9335 113.715C55.9809 113.637 56.0046 113.553 56.0046 113.458C56.0046 113.319 55.9504 113.197 55.8488 113.096C55.7473 112.994 55.6254 112.943 55.4832 112.943C55.3343 112.943 55.2124 112.994 55.1109 113.096C55.0093 113.197 54.9585 113.316 54.9585 113.458C54.9585 113.6 55.0093 113.722 55.1109 113.824C55.2124 113.925 55.3343 113.972 55.4832 113.972ZM55.0906 117.859H55.8658V114.477H55.0906V117.859Z" fill="#5B5863"/>
<path d="M56.9795 117.859H57.7547V112.754H56.9795V117.859Z" fill="#5B5863"/>
<path d="M103.958 65.8621H108.822V64.7349H105.212V62.7647H107.954V61.6374H105.212V59.6012H108.604V58.474H103.958V65.8621Z" fill="#5A5761"/>
<path d="M113.007 60.7133C112.671 60.7133 112.362 60.7793 112.067 60.9113C111.773 61.0433 111.519 61.2363 111.305 61.4851H111.29V60.7894H110.127V65.8621H111.29V63.3131C111.29 63.0693 111.321 62.851 111.382 62.653C111.443 62.46 111.534 62.2975 111.651 62.1655C111.762 62.0386 111.905 61.9421 112.067 61.871C112.23 61.805 112.407 61.7694 112.605 61.7694C112.788 61.7694 112.941 61.7948 113.073 61.8405C113.205 61.8913 113.316 61.9675 113.418 62.0741C113.514 62.1807 113.585 62.3229 113.636 62.5057C113.682 62.6885 113.707 62.9119 113.707 63.176V65.8672H114.87V62.8764C114.87 62.1452 114.702 61.6019 114.372 61.2464C114.042 60.891 113.585 60.7133 113.007 60.7133Z" fill="#5A5761"/>
<path d="M117.815 65.9434C118.115 65.9434 118.359 65.918 118.546 65.8672C118.734 65.8164 118.922 65.7453 119.105 65.6438L118.8 64.6384C118.526 64.7856 118.272 64.8567 118.049 64.8567C117.881 64.8567 117.759 64.8059 117.678 64.6942C117.597 64.5876 117.561 64.4048 117.561 64.1509V61.7796H119.054V60.7894H117.561V58.9767L116.398 59.1036V60.7894H115.779V61.7796H116.398V64.2575C116.398 64.8161 116.52 65.2325 116.769 65.5168C117.018 65.8012 117.368 65.9434 117.815 65.9434Z" fill="#5A5761"/>
<path d="M124.492 63.2674C124.492 62.7799 124.391 62.3381 124.193 61.9522C123.99 61.5663 123.705 61.2667 123.33 61.0433C122.954 60.825 122.517 60.7133 122.03 60.7133C121.679 60.7133 121.354 60.7793 121.05 60.9062C120.745 61.0332 120.481 61.2109 120.263 61.4343C120.039 61.6628 119.867 61.937 119.745 62.262C119.618 62.587 119.557 62.9424 119.557 63.3232C119.557 63.8412 119.669 64.3032 119.897 64.7044C120.12 65.1055 120.43 65.4102 120.826 65.6235C121.217 65.8367 121.659 65.9434 122.152 65.9434C122.624 65.9434 123.04 65.857 123.401 65.6844C123.761 65.5118 124.056 65.2782 124.289 64.9837L123.477 64.288C123.157 64.6892 122.736 64.8872 122.213 64.8872C121.837 64.8872 121.522 64.7856 121.263 64.5774C121.004 64.3743 120.836 64.09 120.765 63.7295H124.462C124.482 63.6076 124.492 63.4553 124.492 63.2674ZM122.091 61.7694C122.304 61.7694 122.497 61.8151 122.67 61.9015C122.842 61.9878 122.979 62.1046 123.086 62.2569C123.193 62.4092 123.274 62.587 123.325 62.7901H120.786C120.867 62.4651 121.024 62.2163 121.258 62.0386C121.491 61.8608 121.766 61.7694 122.091 61.7694Z" fill="#5A5761"/>
<path d="M128.453 60.7133C128.143 60.7133 127.854 60.7894 127.58 60.9316C127.306 61.0738 127.072 61.282 126.874 61.5511H126.859V60.7894H125.696V65.8621H126.859V63.4553C126.859 63.1811 126.909 62.9322 127.016 62.7139C127.123 62.4956 127.28 62.3229 127.493 62.1909C127.707 62.0639 127.956 61.9979 128.245 61.9979C128.346 61.9979 128.463 62.003 128.595 62.0132V60.7183C128.565 60.7183 128.519 60.7133 128.453 60.7133Z" fill="#5A5761"/>
<path d="M135.73 60.7894L134.425 64.2118H134.414L133.013 60.7894H131.789L133.851 65.5778L132.937 67.9186H134.161L136.948 60.7894H135.73Z" fill="#5A5761"/>
<path d="M140.015 65.9434C140.523 65.9434 140.98 65.8367 141.386 65.6184C141.792 65.4 142.107 65.0903 142.336 64.6942C142.559 64.2982 142.676 63.8412 142.676 63.3334C142.676 62.8256 142.559 62.3686 142.336 61.9675C142.107 61.5714 141.792 61.2617 141.391 61.0433C140.985 60.825 140.528 60.7133 140.015 60.7133C139.487 60.7133 139.02 60.83 138.614 61.0585C138.208 61.287 137.893 61.5968 137.674 61.9929C137.456 62.3889 137.349 62.8358 137.349 63.3334C137.349 63.7041 137.41 64.0494 137.542 64.3693C137.669 64.6942 137.847 64.9684 138.076 65.202C138.304 65.4356 138.588 65.6133 138.924 65.7453C139.259 65.8774 139.619 65.9434 140.015 65.9434ZM140.015 64.8872C139.584 64.8872 139.228 64.7399 138.949 64.4403C138.67 64.1458 138.533 63.7752 138.533 63.3334C138.533 62.8865 138.67 62.5159 138.944 62.2163C139.218 61.9218 139.573 61.7694 140.015 61.7694C140.437 61.7694 140.787 61.9167 141.071 62.2061C141.351 62.5006 141.493 62.8764 141.493 63.3334C141.493 63.7853 141.351 64.156 141.066 64.4505C140.782 64.745 140.432 64.8872 140.015 64.8872Z" fill="#5A5761"/>
<path d="M147.271 60.7894V63.2166C147.271 63.4806 147.236 63.7244 147.165 63.9376C147.094 64.1509 146.997 64.3286 146.875 64.4607C146.753 64.5978 146.611 64.7044 146.459 64.7755C146.302 64.8466 146.139 64.8821 145.966 64.8821C145.784 64.8821 145.636 64.8618 145.514 64.8212C145.393 64.7806 145.286 64.7044 145.205 64.6028C145.118 64.5013 145.057 64.3693 145.017 64.1966C144.976 64.029 144.961 63.8158 144.961 63.5619V60.7894H143.798V63.8767C143.798 64.2474 143.844 64.5673 143.935 64.8364C144.027 65.1055 144.154 65.3188 144.326 65.4762C144.499 65.6387 144.697 65.7555 144.92 65.8317C145.144 65.9078 145.403 65.9434 145.692 65.9434C145.992 65.9434 146.276 65.8824 146.55 65.7555C146.819 65.6285 147.053 65.4457 147.256 65.202H147.271V65.8621H148.434V60.7894H147.271Z" fill="#5A5761"/>
<path d="M152.664 60.7133C152.354 60.7133 152.065 60.7894 151.791 60.9316C151.516 61.0738 151.283 61.282 151.085 61.5511H151.07V60.7894H149.907V65.8621H151.07V63.4553C151.07 63.1811 151.12 62.9322 151.227 62.7139C151.334 62.4956 151.491 62.3229 151.704 62.1909C151.918 62.0639 152.166 61.9979 152.456 61.9979C152.557 61.9979 152.674 62.003 152.806 62.0132V60.7183C152.776 60.7183 152.73 60.7133 152.664 60.7133Z" fill="#5A5761"/>
<path d="M161.195 63.2674C161.195 62.7799 161.093 62.3381 160.895 61.9522C160.692 61.5663 160.408 61.2667 160.032 61.0433C159.656 60.825 159.219 60.7133 158.732 60.7133C158.382 60.7133 158.057 60.7793 157.752 60.9062C157.447 61.0332 157.183 61.2109 156.965 61.4343C156.741 61.6628 156.569 61.937 156.447 62.262C156.32 62.587 156.259 62.9424 156.259 63.3232C156.259 63.8412 156.371 64.3032 156.599 64.7044C156.823 65.1055 157.132 65.4102 157.528 65.6235C157.919 65.8367 158.361 65.9434 158.854 65.9434C159.326 65.9434 159.742 65.857 160.103 65.6844C160.463 65.5118 160.758 65.2782 160.992 64.9837L160.179 64.288C159.859 64.6892 159.438 64.8872 158.915 64.8872C158.539 64.8872 158.224 64.7856 157.965 64.5774C157.706 64.3743 157.539 64.09 157.468 63.7295H161.164C161.184 63.6076 161.195 63.4553 161.195 63.2674ZM158.793 61.7694C159.006 61.7694 159.199 61.8151 159.372 61.9015C159.544 61.9878 159.681 62.1046 159.788 62.2569C159.895 62.4092 159.976 62.587 160.027 62.7901H157.488C157.569 62.4651 157.727 62.2163 157.96 62.0386C158.194 61.8608 158.468 61.7694 158.793 61.7694Z" fill="#5A5761"/>
<path d="M168.512 60.7133C168.136 60.7133 167.791 60.7894 167.481 60.9316C167.166 61.0738 166.907 61.282 166.694 61.5562H166.674C166.369 60.9976 165.866 60.7133 165.16 60.7133C164.861 60.7133 164.571 60.7843 164.297 60.9164C164.023 61.0484 163.779 61.2413 163.576 61.4902H163.561V60.7894H162.398V65.8621H163.561V63.3334C163.561 62.851 163.673 62.4702 163.901 62.1909C164.13 61.9116 164.424 61.7694 164.78 61.7694C165.45 61.7694 165.79 62.2569 165.79 63.2217V65.8672H166.953V63.3334C166.953 62.851 167.065 62.4702 167.288 62.1909C167.511 61.9116 167.796 61.7694 168.136 61.7694C168.796 61.7694 169.131 62.2569 169.131 63.2217V65.8672H170.294V62.9272C170.294 62.1858 170.137 61.6323 169.832 61.2667C169.522 60.9011 169.08 60.7133 168.512 60.7133Z" fill="#5A5761"/>
<path d="M175.458 60.7894V61.3988H175.438C175.052 60.9418 174.529 60.7133 173.869 60.7133C173.523 60.7133 173.199 60.7793 172.899 60.9113C172.594 61.0433 172.335 61.2261 172.122 61.4546C171.904 61.6882 171.731 61.9675 171.609 62.2924C171.482 62.6225 171.421 62.9729 171.421 63.3486C171.421 63.6584 171.457 63.9478 171.538 64.222C171.619 64.4962 171.731 64.7349 171.878 64.943C172.026 65.1512 172.198 65.329 172.401 65.4813C172.604 65.6336 172.828 65.7504 173.082 65.8266C173.336 65.9078 173.6 65.9434 173.879 65.9434C174.57 65.9434 175.108 65.6895 175.494 65.1817H175.509V65.8621H176.621V60.7894H175.458ZM174.062 64.8872C173.63 64.8872 173.28 64.745 173.011 64.4607C172.736 64.1763 172.604 63.8056 172.604 63.3537C172.604 63.1201 172.64 62.9018 172.716 62.6987C172.792 62.4956 172.899 62.328 173.031 62.196C173.163 62.0639 173.315 61.9573 173.493 61.8811C173.671 61.8101 173.864 61.7694 174.067 61.7694C174.478 61.7694 174.818 61.9218 175.093 62.2264C175.367 62.5311 175.504 62.9069 175.504 63.3537C175.504 63.8056 175.362 64.1763 175.082 64.4607C174.803 64.745 174.463 64.8872 174.062 64.8872Z" fill="#5A5761"/>
<path d="M178.754 60.0328C178.891 60.0328 179.018 60.0024 179.14 59.9313C179.261 59.8602 179.358 59.7688 179.429 59.6469C179.5 59.5301 179.536 59.4032 179.536 59.261C179.536 59.0528 179.454 58.87 179.302 58.7177C179.15 58.5654 178.967 58.4892 178.754 58.4892C178.53 58.4892 178.347 58.5654 178.195 58.7177C178.043 58.87 177.967 59.0477 177.967 59.261C177.967 59.4743 178.043 59.6571 178.195 59.8094C178.347 59.9617 178.53 60.0328 178.754 60.0328ZM178.165 65.8621H179.327V60.7894H178.165V65.8621Z" fill="#5A5761"/>
<path d="M180.998 65.8621H182.161V58.2048H180.998V65.8621Z" fill="#5A5761"/>
<path d="M190.265 60.7894V61.3988H190.245C189.859 60.9418 189.336 60.7133 188.676 60.7133C188.33 60.7133 188.005 60.7793 187.706 60.9113C187.401 61.0433 187.142 61.2261 186.929 61.4546C186.71 61.6882 186.538 61.9675 186.416 62.2924C186.289 62.6225 186.228 62.9729 186.228 63.3486C186.228 63.6584 186.264 63.9478 186.345 64.222C186.426 64.4962 186.538 64.7349 186.685 64.943C186.832 65.1512 187.005 65.329 187.208 65.4813C187.411 65.6336 187.635 65.7504 187.889 65.8266C188.142 65.9078 188.406 65.9434 188.686 65.9434C189.376 65.9434 189.915 65.6895 190.3 65.1817H190.316V65.8621H191.428V60.7894H190.265ZM188.869 64.8872C188.437 64.8872 188.087 64.745 187.817 64.4607C187.543 64.1763 187.411 63.8056 187.411 63.3537C187.411 63.1201 187.447 62.9018 187.523 62.6987C187.599 62.4956 187.706 62.328 187.838 62.196C187.97 62.0639 188.122 61.9573 188.3 61.8811C188.478 61.8101 188.671 61.7694 188.874 61.7694C189.285 61.7694 189.625 61.9218 189.899 62.2264C190.174 62.5311 190.311 62.9069 190.311 63.3537C190.311 63.8056 190.168 64.1763 189.889 64.4607C189.61 64.745 189.27 64.8872 188.869 64.8872Z" fill="#5A5761"/>
<path d="M196.668 58.2048V61.3988H196.643C196.257 60.9418 195.718 60.7133 195.038 60.7133C194.693 60.7133 194.368 60.7793 194.068 60.9113C193.764 61.0433 193.505 61.2261 193.291 61.4546C193.073 61.6882 192.9 61.9675 192.778 62.2924C192.651 62.6225 192.591 62.9729 192.591 63.3486C192.591 63.6584 192.626 63.9478 192.707 64.222C192.789 64.4962 192.9 64.7349 193.048 64.943C193.195 65.1512 193.367 65.329 193.571 65.4813C193.774 65.6336 193.997 65.7504 194.251 65.8266C194.505 65.9078 194.769 65.9434 195.048 65.9434C195.759 65.9434 196.313 65.6895 196.698 65.1817H196.719V65.8621H197.831V58.2048H196.668ZM195.231 64.8872C194.799 64.8872 194.449 64.745 194.18 64.4607C193.906 64.1763 193.774 63.8056 193.774 63.3537C193.774 63.1201 193.809 62.9018 193.885 62.6987C193.962 62.4956 194.068 62.328 194.2 62.196C194.332 62.0639 194.485 61.9573 194.662 61.8811C194.84 61.8101 195.033 61.7694 195.236 61.7694C195.668 61.7694 196.023 61.9218 196.297 62.2214C196.572 62.526 196.714 62.9018 196.714 63.3537C196.714 63.8107 196.572 64.1763 196.287 64.4607C196.003 64.745 195.647 64.8872 195.231 64.8872Z" fill="#5A5761"/>
<path d="M203.117 58.2048V61.3988H203.091C202.706 60.9418 202.167 60.7133 201.487 60.7133C201.142 60.7133 200.817 60.7793 200.517 60.9113C200.212 61.0433 199.953 61.2261 199.74 61.4546C199.522 61.6882 199.349 61.9675 199.227 62.2924C199.1 62.6225 199.039 62.9729 199.039 63.3486C199.039 63.6584 199.075 63.9478 199.156 64.222C199.237 64.4962 199.349 64.7349 199.496 64.943C199.644 65.1512 199.816 65.329 200.019 65.4813C200.222 65.6336 200.446 65.7504 200.7 65.8266C200.954 65.9078 201.218 65.9434 201.497 65.9434C202.208 65.9434 202.761 65.6895 203.147 65.1817H203.168V65.8621H204.28V58.2048H203.117ZM201.68 64.8872C201.248 64.8872 200.898 64.745 200.629 64.4607C200.354 64.1763 200.222 63.8056 200.222 63.3537C200.222 63.1201 200.258 62.9018 200.334 62.6987C200.41 62.4956 200.517 62.328 200.649 62.196C200.781 62.0639 200.933 61.9573 201.111 61.8811C201.289 61.8101 201.482 61.7694 201.685 61.7694C202.116 61.7694 202.472 61.9218 202.746 62.2214C203.02 62.526 203.163 62.9018 203.163 63.3537C203.163 63.8107 203.02 64.1763 202.736 64.4607C202.452 64.745 202.096 64.8872 201.68 64.8872Z" fill="#5A5761"/>
<path d="M208.55 60.7133C208.24 60.7133 207.951 60.7894 207.677 60.9316C207.402 61.0738 207.169 61.282 206.971 61.5511H206.956V60.7894H205.793V65.8621H206.956V63.4553C206.956 63.1811 207.006 62.9322 207.113 62.7139C207.22 62.4956 207.377 62.3229 207.59 62.1909C207.804 62.0639 208.052 61.9979 208.342 61.9979C208.443 61.9979 208.56 62.003 208.692 62.0132V60.7183C208.662 60.7183 208.616 60.7133 208.55 60.7133Z" fill="#5A5761"/>
<path d="M214.156 63.2674C214.156 62.7799 214.054 62.3381 213.856 61.9522C213.653 61.5663 213.369 61.2667 212.993 61.0433C212.617 60.825 212.181 60.7133 211.693 60.7133C211.343 60.7133 211.018 60.7793 210.713 60.9062C210.408 61.0332 210.144 61.2109 209.926 61.4343C209.703 61.6628 209.53 61.937 209.408 62.262C209.281 62.587 209.22 62.9424 209.22 63.3232C209.22 63.8412 209.332 64.3032 209.561 64.7044C209.784 65.1055 210.094 65.4102 210.49 65.6235C210.881 65.8367 211.322 65.9434 211.815 65.9434C212.287 65.9434 212.704 65.857 213.064 65.6844C213.425 65.5118 213.719 65.2782 213.953 64.9837L213.14 64.288C212.82 64.6892 212.399 64.8872 211.876 64.8872C211.5 64.8872 211.185 64.7856 210.926 64.5774C210.667 64.3743 210.5 64.09 210.429 63.7295H214.125C214.146 63.6076 214.156 63.4553 214.156 63.2674ZM211.754 61.7694C211.967 61.7694 212.16 61.8151 212.333 61.9015C212.506 61.9878 212.643 62.1046 212.749 62.2569C212.856 62.4092 212.937 62.587 212.988 62.7901H210.449C210.53 62.4651 210.688 62.2163 210.921 62.0386C211.155 61.8608 211.429 61.7694 211.754 61.7694Z" fill="#5A5761"/>
<path d="M216.984 65.9434C217.299 65.9434 217.578 65.9078 217.822 65.8266C218.066 65.7453 218.264 65.6387 218.416 65.4965C218.568 65.3543 218.68 65.1919 218.761 65.0091C218.838 64.8263 218.878 64.6231 218.878 64.4048C218.878 64.1966 218.848 64.0138 218.787 63.8513C218.68 63.5974 218.462 63.3791 218.127 63.1963C217.995 63.1303 217.66 62.9881 217.121 62.7748C216.939 62.7037 216.796 62.6428 216.69 62.5819C216.578 62.526 216.492 62.46 216.421 62.3889C216.349 62.3178 216.314 62.2366 216.314 62.1553C216.314 62.0132 216.37 61.9065 216.487 61.8304C216.603 61.7593 216.73 61.7187 216.867 61.7187C217.005 61.7187 217.142 61.739 217.284 61.7745C217.421 61.8151 217.563 61.8761 217.715 61.9573C217.868 62.0386 218.01 62.1401 218.142 62.262L218.726 61.348C218.198 60.9265 217.599 60.7133 216.928 60.7133C216.41 60.7133 215.979 60.8504 215.644 61.1246C215.309 61.3988 215.141 61.739 215.141 62.1503C215.141 62.3128 215.156 62.4651 215.197 62.5971C215.232 62.7342 215.288 62.8561 215.359 62.9627C215.43 63.0693 215.512 63.1658 215.603 63.2471C215.689 63.3334 215.796 63.4096 215.918 63.4806C216.04 63.5517 216.162 63.6076 216.283 63.6584C216.4 63.7091 216.537 63.7599 216.69 63.8107C217.071 63.9427 217.335 64.0494 217.477 64.1306C217.619 64.2118 217.695 64.3083 217.695 64.4302C217.695 64.5825 217.629 64.6993 217.502 64.7907C217.375 64.8821 217.203 64.9278 216.984 64.9278C216.68 64.9278 216.41 64.8821 216.177 64.7856C215.943 64.6892 215.725 64.5368 215.522 64.3286L214.933 65.202C215.491 65.6996 216.177 65.9434 216.984 65.9434Z" fill="#5A5761"/>
<path d="M221.656 65.9434C221.971 65.9434 222.25 65.9078 222.494 65.8266C222.737 65.7453 222.935 65.6387 223.088 65.4965C223.24 65.3543 223.352 65.1919 223.433 65.0091C223.509 64.8263 223.55 64.6231 223.55 64.4048C223.55 64.1966 223.519 64.0138 223.458 63.8513C223.352 63.5974 223.133 63.3791 222.798 63.1963C222.666 63.1303 222.331 62.9881 221.793 62.7748C221.61 62.7037 221.468 62.6428 221.361 62.5819C221.25 62.526 221.163 62.46 221.092 62.3889C221.021 62.3178 220.986 62.2366 220.986 62.1553C220.986 62.0132 221.041 61.9065 221.158 61.8304C221.275 61.7593 221.402 61.7187 221.539 61.7187C221.676 61.7187 221.813 61.739 221.955 61.7745C222.092 61.8151 222.235 61.8761 222.387 61.9573C222.539 62.0386 222.681 62.1401 222.814 62.262L223.397 61.348C222.869 60.9265 222.27 60.7133 221.6 60.7133C221.082 60.7133 220.65 60.8504 220.315 61.1246C219.98 61.3988 219.813 61.739 219.813 62.1503C219.813 62.3128 219.828 62.4651 219.868 62.5971C219.904 62.7342 219.96 62.8561 220.031 62.9627C220.102 63.0693 220.183 63.1658 220.275 63.2471C220.361 63.3334 220.468 63.4096 220.589 63.4806C220.711 63.5517 220.833 63.6076 220.955 63.6584C221.072 63.7091 221.209 63.7599 221.361 63.8107C221.742 63.9427 222.006 64.0494 222.148 64.1306C222.291 64.2118 222.367 64.3083 222.367 64.4302C222.367 64.5825 222.301 64.6993 222.174 64.7907C222.047 64.8821 221.874 64.9278 221.656 64.9278C221.351 64.9278 221.082 64.8821 220.848 64.7856C220.615 64.6892 220.396 64.5368 220.193 64.3286L219.604 65.202C220.163 65.6996 220.848 65.9434 221.656 65.9434Z" fill="#5A5761"/>
<g opacity="0.7">
<path d="M60.5238 77.448L59.1059 82.0491H59.0901L57.7987 77.448H57.0365L55.7371 82.0372H55.7213L54.3074 77.448H53.5531L55.3896 83.1944H56.0689L57.4156 78.4867H57.4314L58.7584 83.1944H59.4377L61.2741 77.448H60.5238Z" fill="#5A5761"/>
<path d="M65.1564 81.1644C65.1564 80.7932 65.0774 80.4575 64.9273 80.1613C64.7773 79.8651 64.56 79.632 64.2836 79.4622C64.0032 79.2963 63.6833 79.2095 63.3239 79.2095C63.0593 79.2095 62.8105 79.2608 62.5814 79.3595C62.3484 79.4622 62.147 79.6005 61.9811 79.7742C61.8152 79.948 61.6809 80.1613 61.5861 80.414C61.4874 80.6668 61.44 80.9353 61.44 81.2276C61.44 81.5238 61.4874 81.7963 61.5901 82.0491C61.6888 82.3018 61.8271 82.5151 62.0008 82.6889C62.1746 82.8626 62.38 83.0009 62.6209 83.0996C62.8618 83.1983 63.1225 83.2457 63.3989 83.2457C63.7425 83.2457 64.0506 83.1825 64.3191 83.0483C64.5877 82.914 64.8128 82.7323 64.9905 82.5033L64.5324 82.1123C64.3981 82.2742 64.2401 82.4045 64.0545 82.4993C63.8649 82.5941 63.6556 82.6415 63.4226 82.6415C63.0672 82.6415 62.771 82.5348 62.534 82.3137C62.2931 82.0925 62.1509 81.8003 62.1114 81.433H65.1366C65.1485 81.354 65.1564 81.2671 65.1564 81.1644ZM63.3594 79.8137C63.6675 79.8137 63.9202 79.9125 64.1217 80.106C64.3231 80.3034 64.4495 80.5641 64.5047 80.888H62.1272C62.1865 80.5602 62.3286 80.2995 62.5537 80.106C62.7789 79.9125 63.0474 79.8137 63.3594 79.8137Z" fill="#5A5761"/>
<path d="M65.8396 79.399H66.3807L66.8191 77.448H66.1042L65.8396 79.399Z" fill="#5A5761"/>
<path d="M67.8183 83.1944H68.4699V77.2387H67.8183V83.1944Z" fill="#5A5761"/>
<path d="M69.8404 83.1944H70.492V77.2387H69.8404V83.1944Z" fill="#5A5761"/>
<path d="M75.2313 83.2457C75.4603 83.2457 75.6657 83.2181 75.8474 83.1588C76.029 83.0996 76.1791 83.0167 76.2937 82.914C76.4082 82.8113 76.4951 82.6889 76.5543 82.5546C76.6136 82.4203 76.6452 82.2742 76.6452 82.1162C76.6452 81.9503 76.6175 81.8082 76.5662 81.6857C76.4793 81.4922 76.3016 81.3263 76.033 81.1921C75.9461 81.1526 75.6894 81.0499 75.2708 80.884C75.1444 80.8366 75.0457 80.7971 74.9706 80.7616C74.8916 80.726 74.8166 80.6826 74.7415 80.6312C74.6665 80.5838 74.6112 80.5286 74.5757 80.4654C74.5401 80.4061 74.5243 80.339 74.5243 80.2639C74.5243 80.1297 74.5836 80.0191 74.706 79.9322C74.8284 79.8453 74.9706 79.8019 75.1286 79.8019C75.5077 79.8019 75.8592 79.9401 76.1752 80.2126L76.5148 79.6952C76.1199 79.3714 75.6657 79.2095 75.1602 79.2095C74.785 79.2095 74.473 79.3121 74.2281 79.5136C73.9793 79.715 73.8569 79.9638 73.8569 80.2639C73.8569 80.4061 73.8766 80.5325 73.9201 80.647C73.9635 80.7655 74.0188 80.8603 74.086 80.9393C74.1491 81.0183 74.24 81.0933 74.3506 81.1644C74.4611 81.2355 74.5638 81.2908 74.6665 81.3342C74.7692 81.3816 74.8916 81.429 75.0417 81.4764C75.0614 81.4843 75.093 81.4962 75.1365 81.508C75.2194 81.5396 75.2826 81.5633 75.3221 81.5791C75.3616 81.5949 75.4169 81.6146 75.484 81.6383C75.5472 81.662 75.5986 81.6857 75.6302 81.7015C75.6618 81.7173 75.7012 81.741 75.7486 81.7647C75.796 81.7924 75.8276 81.8161 75.8513 81.8398C75.8711 81.8634 75.8948 81.8871 75.9185 81.9187C75.9422 81.9503 75.958 81.9819 75.9659 82.0135C75.9738 82.0491 75.9777 82.0846 75.9777 82.1241C75.9777 82.2742 75.9106 82.4006 75.7763 82.4993C75.642 82.602 75.4603 82.6494 75.2313 82.6494C74.9706 82.6494 74.7455 82.6099 74.5559 82.5309C74.3664 82.4519 74.1926 82.3374 74.0267 82.1794L73.6871 82.677C74.1136 83.0562 74.627 83.2457 75.2313 83.2457Z" fill="#5A5761"/>
<path d="M81.0408 81.1644C81.0408 80.7932 80.9618 80.4575 80.8118 80.1613C80.6617 79.8651 80.4445 79.632 80.168 79.4622C79.8876 79.2963 79.5677 79.2095 79.2083 79.2095C78.9437 79.2095 78.6949 79.2608 78.4658 79.3595C78.2328 79.4622 78.0314 79.6005 77.8655 79.7742C77.6996 79.948 77.5654 80.1613 77.4706 80.414C77.3718 80.6668 77.3244 80.9353 77.3244 81.2276C77.3244 81.5238 77.3718 81.7963 77.4745 82.0491C77.5733 82.3018 77.7115 82.5151 77.8853 82.6889C78.059 82.8626 78.2644 83.0009 78.5053 83.0996C78.7462 83.1983 79.0069 83.2457 79.2833 83.2457C79.6269 83.2457 79.935 83.1825 80.2035 83.0483C80.4721 82.914 80.6972 82.7323 80.8749 82.5033L80.4168 82.1123C80.2825 82.2742 80.1246 82.4045 79.9389 82.4993C79.7494 82.5941 79.5401 82.6415 79.307 82.6415C78.9516 82.6415 78.6554 82.5348 78.4184 82.3137C78.1775 82.0925 78.0353 81.8003 77.9958 81.433H81.0211C81.0329 81.354 81.0408 81.2671 81.0408 81.1644ZM79.2438 79.8137C79.5519 79.8137 79.8047 79.9125 80.0061 80.106C80.2075 80.3034 80.3339 80.5641 80.3892 80.888H78.0116C78.0709 80.5602 78.2131 80.2995 78.4382 80.106C78.6633 79.9125 78.9318 79.8137 79.2438 79.8137Z" fill="#5A5761"/>
<path d="M84.1292 79.2095C83.833 79.2095 83.5605 79.2727 83.3157 79.399C83.0669 79.5254 82.8615 79.7031 82.6996 79.9361H82.6877V79.2569H82.0321V83.1944H82.6877V81.2276C82.6877 80.7932 82.7983 80.4456 83.0234 80.1929C83.2485 79.9401 83.5487 79.8098 83.9239 79.8098C84.0739 79.8098 84.2043 79.8335 84.3188 79.873C84.4294 79.9164 84.5321 79.9835 84.619 80.0783C84.7058 80.1731 84.769 80.3034 84.8164 80.4614C84.8638 80.6233 84.8875 80.8169 84.8875 81.042V83.1983H85.5431V80.8603C85.5431 80.3153 85.4167 79.9006 85.164 79.6241C84.9112 79.3477 84.5676 79.2095 84.1292 79.2095Z" fill="#5A5761"/>
<path d="M89.7571 77.2387V79.8414H89.7453C89.6347 79.7071 89.5122 79.5886 89.3701 79.4938C89.2279 79.399 89.0778 79.3279 88.9159 79.2806C88.75 79.2332 88.5802 79.2095 88.4064 79.2095C88.13 79.2095 87.8733 79.2648 87.6363 79.3674C87.3954 79.4701 87.19 79.6123 87.0241 79.794C86.8543 79.9756 86.72 80.1889 86.6252 80.4417C86.5265 80.6944 86.4791 80.9669 86.4791 81.2513C86.4791 81.5475 86.5265 81.82 86.6292 82.0688C86.7279 82.3216 86.8622 82.5309 87.036 82.7007C87.2098 82.8745 87.4151 83.0088 87.6521 83.1036C87.889 83.1983 88.1418 83.2457 88.4104 83.2457C88.5999 83.2457 88.7777 83.222 88.9475 83.1667C89.1173 83.1115 89.2713 83.0364 89.4096 82.9337C89.5438 82.835 89.6663 82.7126 89.7729 82.5704H89.7848V83.1944H90.4127V77.2387H89.7571ZM88.4736 82.6454C88.0786 82.6454 87.7587 82.5151 87.5139 82.2544C87.269 81.9938 87.1466 81.6581 87.1466 81.2552C87.1466 80.8248 87.2729 80.4772 87.5257 80.2087C87.7785 79.944 88.0984 79.8098 88.4815 79.8098C88.6631 79.8098 88.833 79.8493 88.9949 79.9243C89.1529 79.9993 89.2911 80.102 89.4056 80.2284C89.5201 80.3587 89.611 80.5128 89.6781 80.6905C89.7453 80.8682 89.7808 81.0578 89.7808 81.2552C89.7808 81.4606 89.7453 81.6502 89.6742 81.824C89.6031 81.9977 89.5043 82.1478 89.3859 82.2663C89.2674 82.3848 89.1252 82.4796 88.9672 82.5467C88.8093 82.6138 88.6434 82.6454 88.4736 82.6454Z" fill="#5A5761"/>
<path d="M96.6488 79.2569L95.46 82.2544H95.4403L94.1607 79.2569H93.4616L95.1243 83.0404L94.4213 84.7939H95.1164L97.3439 79.2569H96.6488Z" fill="#5A5761"/>
<path d="M99.7491 83.2457C100.132 83.2457 100.48 83.1628 100.788 82.993C101.096 82.8271 101.337 82.5862 101.51 82.2781C101.684 81.9701 101.775 81.6225 101.775 81.2315C101.775 80.8406 101.684 80.4891 101.51 80.181C101.337 79.873 101.096 79.632 100.788 79.4622C100.48 79.2963 100.132 79.2095 99.7491 79.2095C99.4489 79.2095 99.1685 79.2648 98.9157 79.3674C98.659 79.4701 98.4418 79.6123 98.268 79.794C98.0943 79.9756 97.956 80.1889 97.8573 80.4377C97.7586 80.6865 97.7112 80.9511 97.7112 81.2315C97.7112 81.5159 97.7586 81.7805 97.8573 82.0254C97.956 82.2702 98.0943 82.4835 98.268 82.6652C98.4418 82.8468 98.659 82.989 98.9157 83.0917C99.1685 83.1944 99.4489 83.2457 99.7491 83.2457ZM99.7491 82.6415C99.4805 82.6415 99.2435 82.5783 99.0342 82.4519C98.8209 82.3255 98.659 82.1557 98.5445 81.9424C98.43 81.7292 98.3747 81.4922 98.3747 81.2315C98.3747 80.9709 98.43 80.7339 98.5445 80.5167C98.6551 80.3034 98.817 80.1297 99.0303 80.0033C99.2396 79.8769 99.4805 79.8137 99.7491 79.8137C100.002 79.8137 100.231 79.873 100.436 79.9914C100.642 80.1099 100.807 80.2797 100.93 80.497C101.048 80.7142 101.112 80.959 101.112 81.2315C101.112 81.5041 101.048 81.7489 100.93 81.9622C100.807 82.1794 100.642 82.3453 100.436 82.4638C100.227 82.5822 99.9979 82.6415 99.7491 82.6415Z" fill="#5A5761"/>
<path d="M105.484 79.2569V81.1644C105.484 81.3935 105.452 81.5988 105.389 81.7884C105.326 81.978 105.239 82.136 105.132 82.2584C105.025 82.3808 104.903 82.4756 104.761 82.5427C104.619 82.6099 104.473 82.6415 104.315 82.6415C103.991 82.6415 103.75 82.5467 103.592 82.3571C103.434 82.1676 103.355 81.8516 103.355 81.4132V79.2569H102.699V81.6028C102.699 82.1518 102.826 82.5625 103.086 82.835C103.347 83.1115 103.71 83.2457 104.176 83.2457C104.429 83.2457 104.67 83.1865 104.899 83.0641C105.124 82.9456 105.314 82.7718 105.472 82.5427H105.484V83.1944H106.139V79.2569H105.484Z" fill="#5A5761"/>
<path d="M112.632 79.2569V79.8414H112.616C112.45 79.636 112.253 79.482 112.02 79.3714C111.787 79.2648 111.534 79.2095 111.265 79.2095C110.898 79.2095 110.566 79.3003 110.274 79.478C109.978 79.6557 109.749 79.9006 109.583 80.2087C109.417 80.5207 109.338 80.8682 109.338 81.2513C109.338 81.5475 109.386 81.82 109.488 82.0688C109.587 82.3216 109.721 82.5309 109.895 82.7007C110.069 82.8745 110.274 83.0088 110.511 83.1036C110.748 83.1983 111.001 83.2457 111.269 83.2457C111.554 83.2457 111.814 83.1865 112.051 83.068C112.288 82.9495 112.486 82.7837 112.648 82.5704H112.66V83.1944H113.288V79.2569H112.632ZM111.333 82.6454C110.938 82.6454 110.618 82.5151 110.373 82.2544C110.128 81.9938 110.006 81.6581 110.006 81.2552C110.006 80.8248 110.132 80.4772 110.385 80.2087C110.638 79.944 110.957 79.8098 111.34 79.8098C111.522 79.8098 111.696 79.8493 111.862 79.9243C112.024 79.9993 112.162 80.102 112.28 80.2284C112.395 80.3587 112.486 80.5128 112.553 80.6905C112.62 80.8682 112.656 81.0578 112.656 81.2552C112.656 81.4606 112.62 81.6502 112.549 81.824C112.478 81.9977 112.379 82.1478 112.261 82.2663C112.138 82.3848 111.996 82.4796 111.838 82.5467C111.676 82.6138 111.506 82.6454 111.333 82.6454Z" fill="#5A5761"/>
<path d="M119.421 79.2569L118.232 82.3611H118.212L117 79.2569H116.297L117.904 83.1944H118.532L120.132 79.2569H119.421Z" fill="#5A5761"/>
<path d="M124.208 81.1644C124.208 80.7932 124.129 80.4575 123.979 80.1613C123.828 79.8651 123.611 79.632 123.335 79.4622C123.054 79.2963 122.734 79.2095 122.375 79.2095C122.11 79.2095 121.862 79.2608 121.633 79.3595C121.4 79.4622 121.198 79.6005 121.032 79.7742C120.866 79.948 120.732 80.1613 120.637 80.414C120.539 80.6668 120.491 80.9353 120.491 81.2276C120.491 81.5238 120.539 81.7963 120.641 82.0491C120.74 82.3018 120.878 82.5151 121.052 82.6889C121.226 82.8626 121.431 83.0009 121.672 83.0996C121.913 83.1983 122.174 83.2457 122.45 83.2457C122.794 83.2457 123.102 83.1825 123.37 83.0483C123.639 82.914 123.864 82.7323 124.042 82.5033L123.584 82.1123C123.449 82.2742 123.291 82.4045 123.106 82.4993C122.916 82.5941 122.707 82.6415 122.474 82.6415C122.118 82.6415 121.822 82.5348 121.585 82.3137C121.344 82.0925 121.202 81.8003 121.163 81.433H124.188C124.2 81.354 124.208 81.2671 124.208 81.1644ZM122.411 79.8137C122.719 79.8137 122.971 79.9125 123.173 80.106C123.374 80.3034 123.501 80.5641 123.556 80.888H121.178C121.238 80.5602 121.38 80.2995 121.605 80.106C121.83 79.9125 122.099 79.8137 122.411 79.8137Z" fill="#5A5761"/>
<path d="M127.15 79.2095C126.881 79.2095 126.64 79.2766 126.419 79.403C126.198 79.5294 126.016 79.711 125.87 79.944H125.854V79.2569H125.199V83.1944H125.854V81.2947C125.854 81.0341 125.902 80.7971 125.997 80.5917C126.091 80.3864 126.23 80.2245 126.411 80.106C126.593 79.9875 126.806 79.9283 127.051 79.9283C127.13 79.9283 127.217 79.9322 127.312 79.9401V79.2174C127.28 79.2134 127.225 79.2095 127.15 79.2095Z" fill="#5A5761"/>
<path d="M128.481 78.5262C128.607 78.5262 128.718 78.4828 128.809 78.3919C128.899 78.3051 128.947 78.1945 128.947 78.0681C128.947 77.9852 128.923 77.9062 128.884 77.8351C128.84 77.764 128.785 77.7087 128.714 77.6692C128.643 77.6297 128.564 77.606 128.481 77.606C128.347 77.606 128.236 77.6534 128.149 77.7403C128.058 77.8311 128.015 77.9417 128.015 78.0681C128.015 78.1945 128.058 78.3051 128.149 78.3919C128.236 78.4828 128.347 78.5262 128.481 78.5262ZM128.149 83.1944H128.801V79.2569H128.149V83.1944Z" fill="#5A5761"/>
<path d="M130.278 83.1944H130.929V79.8256H132.047V79.2569H130.929V78.5223C130.929 78.0404 131.107 77.7995 131.467 77.7995C131.66 77.7995 131.889 77.8667 132.154 78.001L132.3 77.4362C132.023 77.2703 131.715 77.1874 131.384 77.1874C131.028 77.1874 130.752 77.298 130.562 77.5112C130.373 77.7245 130.278 78.0404 130.278 78.4591V79.2569H129.796V79.8256H130.278V83.1944Z" fill="#5A5761"/>
<path d="M133.212 78.5262C133.339 78.5262 133.449 78.4828 133.54 78.3919C133.631 78.3051 133.678 78.1945 133.678 78.0681C133.678 77.9852 133.655 77.9062 133.615 77.8351C133.572 77.764 133.516 77.7087 133.445 77.6692C133.374 77.6297 133.295 77.606 133.212 77.606C133.078 77.606 132.967 77.6534 132.88 77.7403C132.79 77.8311 132.746 77.9417 132.746 78.0681C132.746 78.1945 132.79 78.3051 132.88 78.3919C132.967 78.4828 133.078 78.5262 133.212 78.5262ZM132.88 83.1944H133.532V79.2569H132.88V83.1944Z" fill="#5A5761"/>
<path d="M136.549 83.2457C136.885 83.2457 137.197 83.1865 137.481 83.0601C137.766 82.9377 137.999 82.7758 138.177 82.5783L137.722 82.1715C137.596 82.3137 137.434 82.4282 137.237 82.5151C137.039 82.602 136.826 82.6415 136.605 82.6415C136.21 82.6415 135.886 82.5111 135.637 82.2505C135.388 81.9898 135.266 81.6462 135.266 81.2276C135.266 80.809 135.388 80.4693 135.637 80.2047C135.886 79.944 136.21 79.8098 136.605 79.8098C136.83 79.8098 137.039 79.8572 137.229 79.944C137.418 80.0309 137.58 80.1534 137.707 80.3034L138.161 79.9085C137.971 79.6834 137.734 79.5096 137.45 79.3872C137.166 79.2687 136.873 79.2055 136.573 79.2055C136.19 79.2055 135.85 79.2924 135.55 79.4622C135.25 79.636 135.017 79.873 134.851 80.181C134.685 80.4891 134.602 80.8406 134.602 81.2315C134.602 81.6265 134.685 81.974 134.851 82.2821C135.017 82.5901 135.246 82.8271 135.542 82.993C135.839 83.1628 136.174 83.2457 136.549 83.2457Z" fill="#5A5761"/>
<path d="M142.126 79.2569V79.8414H142.11C141.944 79.636 141.747 79.482 141.514 79.3714C141.281 79.2648 141.028 79.2095 140.759 79.2095C140.392 79.2095 140.06 79.3003 139.768 79.478C139.472 79.6557 139.243 79.9006 139.077 80.2087C138.911 80.5207 138.832 80.8682 138.832 81.2513C138.832 81.5475 138.88 81.82 138.982 82.0688C139.081 82.3216 139.215 82.5309 139.389 82.7007C139.563 82.8745 139.768 83.0088 140.005 83.1036C140.242 83.1983 140.495 83.2457 140.763 83.2457C141.048 83.2457 141.308 83.1865 141.545 83.068C141.782 82.9495 141.98 82.7837 142.142 82.5704H142.154V83.1944H142.782V79.2569H142.126ZM140.827 82.6454C140.432 82.6454 140.112 82.5151 139.867 82.2544C139.622 81.9938 139.5 81.6581 139.5 81.2552C139.5 80.8248 139.626 80.4772 139.879 80.2087C140.132 79.944 140.451 79.8098 140.834 79.8098C141.016 79.8098 141.19 79.8493 141.356 79.9243C141.518 79.9993 141.656 80.102 141.774 80.2284C141.889 80.3587 141.98 80.5128 142.047 80.6905C142.114 80.8682 142.15 81.0578 142.15 81.2552C142.15 81.4606 142.114 81.6502 142.043 81.824C141.972 81.9977 141.873 82.1478 141.755 82.2663C141.632 82.3848 141.49 82.4796 141.332 82.5467C141.17 82.6138 141 82.6454 140.827 82.6454Z" fill="#5A5761"/>
<path d="M145.104 83.2457C145.246 83.2457 145.384 83.2339 145.511 83.2102C145.637 83.1865 145.736 83.1549 145.815 83.1233C145.89 83.0917 145.969 83.0483 146.056 83.0009L145.882 82.4282C145.645 82.5625 145.424 82.6296 145.218 82.6296C145.037 82.6296 144.914 82.5743 144.843 82.4638C144.772 82.3532 144.736 82.1715 144.736 81.9227V79.8256H146.04V79.2569H144.736V77.839L144.081 77.9101V79.2569H143.579V79.8256H144.081V82.0214C144.081 82.8389 144.421 83.2457 145.104 83.2457Z" fill="#5A5761"/>
<path d="M147.28 78.5262C147.406 78.5262 147.517 78.4828 147.608 78.3919C147.699 78.3051 147.746 78.1945 147.746 78.0681C147.746 77.9852 147.722 77.9062 147.683 77.8351C147.639 77.764 147.584 77.7087 147.513 77.6692C147.442 77.6297 147.363 77.606 147.28 77.606C147.146 77.606 147.035 77.6534 146.948 77.7403C146.857 77.8311 146.814 77.9417 146.814 78.0681C146.814 78.1945 146.857 78.3051 146.948 78.3919C147.035 78.4828 147.146 78.5262 147.28 78.5262ZM146.948 83.1944H147.6V79.2569H146.948V83.1944Z" fill="#5A5761"/>
<path d="M150.704 83.2457C151.087 83.2457 151.435 83.1628 151.743 82.993C152.051 82.8271 152.292 82.5862 152.465 82.2781C152.639 81.9701 152.73 81.6225 152.73 81.2315C152.73 80.8406 152.639 80.4891 152.465 80.181C152.292 79.873 152.051 79.632 151.743 79.4622C151.435 79.2963 151.087 79.2095 150.704 79.2095C150.404 79.2095 150.123 79.2648 149.871 79.3674C149.614 79.4701 149.397 79.6123 149.223 79.794C149.049 79.9756 148.911 80.1889 148.812 80.4377C148.714 80.6865 148.666 80.9511 148.666 81.2315C148.666 81.5159 148.714 81.7805 148.812 82.0254C148.911 82.2702 149.049 82.4835 149.223 82.6652C149.397 82.8468 149.614 82.989 149.871 83.0917C150.123 83.1944 150.404 83.2457 150.704 83.2457ZM150.704 82.6415C150.435 82.6415 150.198 82.5783 149.989 82.4519C149.776 82.3255 149.614 82.1557 149.499 81.9424C149.385 81.7292 149.33 81.4922 149.33 81.2315C149.33 80.9709 149.385 80.7339 149.499 80.5167C149.61 80.3034 149.772 80.1297 149.985 80.0033C150.195 79.8769 150.435 79.8137 150.704 79.8137C150.957 79.8137 151.186 79.873 151.391 79.9914C151.597 80.1099 151.762 80.2797 151.885 80.497C152.003 80.7142 152.067 80.959 152.067 81.2315C152.067 81.5041 152.003 81.7489 151.885 81.9622C151.762 82.1794 151.597 82.3453 151.391 82.4638C151.182 82.5822 150.953 82.6415 150.704 82.6415Z" fill="#5A5761"/>
<path d="M155.834 79.2095C155.538 79.2095 155.266 79.2727 155.021 79.399C154.772 79.5254 154.567 79.7031 154.405 79.9361H154.393V79.2569H153.737V83.1944H154.393V81.2276C154.393 80.7932 154.503 80.4456 154.728 80.1929C154.954 79.9401 155.254 79.8098 155.629 79.8098C155.779 79.8098 155.909 79.8335 156.024 79.873C156.134 79.9164 156.237 79.9835 156.324 80.0783C156.411 80.1731 156.474 80.3034 156.521 80.4614C156.569 80.6233 156.593 80.8169 156.593 81.042V83.1983H157.248V80.8603C157.248 80.3153 157.122 79.9006 156.869 79.6241C156.616 79.3477 156.273 79.2095 155.834 79.2095Z" fill="#5A5761"/>
<path d="M160.716 83.1944H161.367V77.2387H160.716V83.1944Z" fill="#5A5761"/>
<path d="M166.15 81.1644C166.15 80.7932 166.071 80.4575 165.921 80.1613C165.771 79.8651 165.554 79.632 165.277 79.4622C164.997 79.2963 164.677 79.2095 164.318 79.2095C164.053 79.2095 163.804 79.2608 163.575 79.3595C163.342 79.4622 163.141 79.6005 162.975 79.7742C162.809 79.948 162.675 80.1613 162.58 80.414C162.481 80.6668 162.434 80.9353 162.434 81.2276C162.434 81.5238 162.481 81.7963 162.584 82.0491C162.682 82.3018 162.821 82.5151 162.994 82.6889C163.168 82.8626 163.374 83.0009 163.615 83.0996C163.855 83.1983 164.116 83.2457 164.393 83.2457C164.736 83.2457 165.044 83.1825 165.313 83.0483C165.581 82.914 165.806 82.7323 165.984 82.5033L165.526 82.1123C165.392 82.2742 165.234 82.4045 165.048 82.4993C164.859 82.5941 164.649 82.6415 164.416 82.6415C164.061 82.6415 163.765 82.5348 163.528 82.3137C163.287 82.0925 163.145 81.8003 163.105 81.433H166.13C166.142 81.354 166.15 81.2671 166.15 81.1644ZM164.353 79.8137C164.661 79.8137 164.914 79.9125 165.115 80.106C165.317 80.3034 165.443 80.5641 165.498 80.888H163.121C163.18 80.5602 163.322 80.2995 163.547 80.106C163.773 79.9125 164.041 79.8137 164.353 79.8137Z" fill="#5A5761"/>
<path d="M168.255 83.2457C168.397 83.2457 168.535 83.2339 168.662 83.2102C168.788 83.1865 168.887 83.1549 168.966 83.1233C169.041 83.0917 169.12 83.0483 169.207 83.0009L169.033 82.4282C168.796 82.5625 168.575 82.6296 168.37 82.6296C168.188 82.6296 168.066 82.5743 167.994 82.4638C167.923 82.3532 167.888 82.1715 167.888 81.9227V79.8256H169.191V79.2569H167.888V77.839L167.232 77.9101V79.2569H166.731V79.8256H167.232V82.0214C167.232 82.8389 167.572 83.2457 168.255 83.2457Z" fill="#5A5761"/>
<path d="M171.201 83.2457C171.343 83.2457 171.482 83.2339 171.608 83.2102C171.734 83.1865 171.833 83.1549 171.912 83.1233C171.987 83.0917 172.066 83.0483 172.153 83.0009L171.979 82.4282C171.742 82.5625 171.521 82.6296 171.316 82.6296C171.134 82.6296 171.012 82.5743 170.941 82.4638C170.87 82.3532 170.834 82.1715 170.834 81.9227V79.8256H172.137V79.2569H170.834V77.839L170.178 77.9101V79.2569H169.677V79.8256H170.178V82.0214C170.178 82.8389 170.518 83.2457 171.201 83.2457Z" fill="#5A5761"/>
<path d="M176.324 81.1644C176.324 80.7932 176.245 80.4575 176.095 80.1613C175.945 79.8651 175.727 79.632 175.451 79.4622C175.17 79.2963 174.851 79.2095 174.491 79.2095C174.227 79.2095 173.978 79.2608 173.749 79.3595C173.516 79.4622 173.314 79.6005 173.148 79.7742C172.982 79.948 172.848 80.1613 172.753 80.414C172.655 80.6668 172.607 80.9353 172.607 81.2276C172.607 81.5238 172.655 81.7963 172.757 82.0491C172.856 82.3018 172.994 82.5151 173.168 82.6889C173.342 82.8626 173.547 83.0009 173.788 83.0996C174.029 83.1983 174.29 83.2457 174.566 83.2457C174.91 83.2457 175.218 83.1825 175.486 83.0483C175.755 82.914 175.98 82.7323 176.158 82.5033L175.7 82.1123C175.565 82.2742 175.407 82.4045 175.222 82.4993C175.032 82.5941 174.823 82.6415 174.59 82.6415C174.234 82.6415 173.938 82.5348 173.701 82.3137C173.46 82.0925 173.318 81.8003 173.279 81.433H176.304C176.316 81.354 176.324 81.2671 176.324 81.1644ZM174.527 79.8137C174.835 79.8137 175.088 79.9125 175.289 80.106C175.49 80.3034 175.617 80.5641 175.672 80.888H173.294C173.354 80.5602 173.496 80.2995 173.721 80.106C173.946 79.9125 174.215 79.8137 174.527 79.8137Z" fill="#5A5761"/>
<path d="M179.266 79.2095C178.997 79.2095 178.756 79.2766 178.535 79.403C178.314 79.5294 178.132 79.711 177.986 79.944H177.971V79.2569H177.315V83.1944H177.971V81.2947C177.971 81.0341 178.018 80.7971 178.113 80.5917C178.208 80.3864 178.346 80.2245 178.527 80.106C178.709 79.9875 178.922 79.9283 179.167 79.9283C179.246 79.9283 179.333 79.9322 179.428 79.9401V79.2174C179.396 79.2134 179.341 79.2095 179.266 79.2095Z" fill="#5A5761"/>
<path d="M183.547 83.2457C183.689 83.2457 183.827 83.2339 183.954 83.2102C184.08 83.1865 184.179 83.1549 184.258 83.1233C184.333 83.0917 184.412 83.0483 184.499 83.0009L184.325 82.4282C184.088 82.5625 183.867 82.6296 183.662 82.6296C183.48 82.6296 183.358 82.5743 183.286 82.4638C183.215 82.3532 183.18 82.1715 183.18 81.9227V79.8256H184.483V79.2569H183.18V77.839L182.524 77.9101V79.2569H182.023V79.8256H182.524V82.0214C182.524 82.8389 182.864 83.2457 183.547 83.2457Z" fill="#5A5761"/>
<path d="M186.991 83.2457C187.374 83.2457 187.722 83.1628 188.03 82.993C188.338 82.8271 188.579 82.5862 188.752 82.2781C188.926 81.9701 189.017 81.6225 189.017 81.2315C189.017 80.8406 188.926 80.4891 188.752 80.181C188.579 79.873 188.338 79.632 188.03 79.4622C187.722 79.2963 187.374 79.2095 186.991 79.2095C186.691 79.2095 186.41 79.2648 186.158 79.3674C185.901 79.4701 185.684 79.6123 185.51 79.794C185.336 79.9756 185.198 80.1889 185.099 80.4377C185 80.6865 184.953 80.9511 184.953 81.2315C184.953 81.5159 185 81.7805 185.099 82.0254C185.198 82.2702 185.336 82.4835 185.51 82.6652C185.684 82.8468 185.901 82.989 186.158 83.0917C186.41 83.1944 186.691 83.2457 186.991 83.2457ZM186.991 82.6415C186.722 82.6415 186.485 82.5783 186.276 82.4519C186.063 82.3255 185.901 82.1557 185.786 81.9424C185.672 81.7292 185.617 81.4922 185.617 81.2315C185.617 80.9709 185.672 80.7339 185.786 80.5167C185.897 80.3034 186.059 80.1297 186.272 80.0033C186.481 79.8769 186.722 79.8137 186.991 79.8137C187.244 79.8137 187.473 79.873 187.678 79.9914C187.884 80.1099 188.049 80.2797 188.172 80.497C188.29 80.7142 188.353 80.959 188.353 81.2315C188.353 81.5041 188.29 81.7489 188.172 81.9622C188.049 82.1794 187.884 82.3453 187.678 82.4638C187.469 82.5822 187.24 82.6415 186.991 82.6415Z" fill="#5A5761"/>
<path d="M193.365 83.2457C193.507 83.2457 193.646 83.2339 193.772 83.2102C193.898 83.1865 193.997 83.1549 194.076 83.1233C194.151 83.0917 194.23 83.0483 194.317 83.0009L194.143 82.4282C193.906 82.5625 193.685 82.6296 193.48 82.6296C193.298 82.6296 193.176 82.5743 193.105 82.4638C193.034 82.3532 192.998 82.1715 192.998 81.9227V79.8256H194.301V79.2569H192.998V77.839L192.342 77.9101V79.2569H191.841V79.8256H192.342V82.0214C192.342 82.8389 192.682 83.2457 193.365 83.2457Z" fill="#5A5761"/>
<path d="M197.319 79.2095C197.169 79.2095 197.022 79.2253 196.884 79.2529C196.746 79.2845 196.616 79.3279 196.493 79.3832C196.367 79.4425 196.252 79.5136 196.15 79.6005C196.043 79.6873 195.948 79.7861 195.869 79.8967H195.853V77.2387H195.198V83.1944H195.853V81.2118C195.853 80.7734 195.964 80.4298 196.193 80.181C196.422 79.9361 196.734 79.8098 197.129 79.8098C197.769 79.8098 198.093 80.2126 198.093 81.0183V83.1983H198.748V80.8327C198.748 80.2916 198.618 79.8848 198.365 79.6162C198.112 79.3477 197.761 79.2095 197.319 79.2095Z" fill="#5A5761"/>
<path d="M203.401 81.1644C203.401 80.7932 203.322 80.4575 203.172 80.1613C203.021 79.8651 202.804 79.632 202.528 79.4622C202.247 79.2963 201.928 79.2095 201.568 79.2095C201.304 79.2095 201.055 79.2608 200.826 79.3595C200.593 79.4622 200.391 79.6005 200.225 79.7742C200.059 79.948 199.925 80.1613 199.83 80.414C199.732 80.6668 199.684 80.9353 199.684 81.2276C199.684 81.5238 199.732 81.7963 199.834 82.0491C199.933 82.3018 200.071 82.5151 200.245 82.6889C200.419 82.8626 200.624 83.0009 200.865 83.0996C201.106 83.1983 201.367 83.2457 201.643 83.2457C201.987 83.2457 202.295 83.1825 202.563 83.0483C202.832 82.914 203.057 82.7323 203.235 82.5033L202.777 82.1123C202.642 82.2742 202.484 82.4045 202.299 82.4993C202.109 82.5941 201.9 82.6415 201.667 82.6415C201.311 82.6415 201.015 82.5348 200.778 82.3137C200.537 82.0925 200.395 81.8003 200.356 81.433H203.381C203.393 81.354 203.401 81.2671 203.401 81.1644ZM201.604 79.8137C201.912 79.8137 202.164 79.9125 202.366 80.106C202.567 80.3034 202.694 80.5641 202.749 80.888H200.371C200.431 80.5602 200.573 80.2995 200.798 80.106C201.023 79.9125 201.292 79.8137 201.604 79.8137Z" fill="#5A5761"/>
<path d="M209.676 79.2569V79.8414H209.66C209.495 79.636 209.297 79.482 209.064 79.3714C208.831 79.2648 208.578 79.2095 208.31 79.2095C207.942 79.2095 207.611 79.3003 207.318 79.478C207.022 79.6557 206.793 79.9006 206.627 80.2087C206.461 80.5207 206.382 80.8682 206.382 81.2513C206.382 81.5475 206.43 81.82 206.533 82.0688C206.631 82.3216 206.766 82.5309 206.939 82.7007C207.113 82.8745 207.318 83.0088 207.555 83.1036C207.792 83.1983 208.045 83.2457 208.314 83.2457C208.598 83.2457 208.859 83.1865 209.096 83.068C209.333 82.9495 209.53 82.7837 209.692 82.5704H209.704V83.1944H210.332V79.2569H209.676ZM208.377 82.6454C207.982 82.6454 207.662 82.5151 207.417 82.2544C207.172 81.9938 207.05 81.6581 207.05 81.2552C207.05 80.8248 207.176 80.4772 207.429 80.2087C207.682 79.944 208.002 79.8098 208.385 79.8098C208.566 79.8098 208.74 79.8493 208.906 79.9243C209.068 79.9993 209.206 80.102 209.325 80.2284C209.439 80.3587 209.53 80.5128 209.597 80.6905C209.664 80.8682 209.7 81.0578 209.7 81.2552C209.7 81.4606 209.664 81.6502 209.593 81.824C209.522 81.9977 209.423 82.1478 209.305 82.2663C209.183 82.3848 209.04 82.4796 208.882 82.5467C208.72 82.6138 208.551 82.6454 208.377 82.6454Z" fill="#5A5761"/>
<path d="M214.573 77.2387V79.8414H214.562C214.451 79.7071 214.329 79.5886 214.186 79.4938C214.044 79.399 213.894 79.3279 213.732 79.2806C213.566 79.2332 213.397 79.2095 213.223 79.2095C212.946 79.2095 212.69 79.2648 212.453 79.3674C212.212 79.4701 212.006 79.6123 211.84 79.794C211.671 79.9756 211.536 80.1889 211.442 80.4417C211.343 80.6944 211.295 80.9669 211.295 81.2513C211.295 81.5475 211.343 81.82 211.446 82.0688C211.544 82.3216 211.679 82.5309 211.852 82.7007C212.026 82.8745 212.231 83.0088 212.468 83.1036C212.705 83.1983 212.958 83.2457 213.227 83.2457C213.416 83.2457 213.594 83.222 213.764 83.1667C213.934 83.1115 214.088 83.0364 214.226 82.9337C214.36 82.835 214.483 82.7126 214.589 82.5704H214.601V83.1944H215.229V77.2387H214.573ZM213.29 82.6454C212.895 82.6454 212.575 82.5151 212.33 82.2544C212.085 81.9938 211.963 81.6581 211.963 81.2552C211.963 80.8248 212.089 80.4772 212.342 80.2087C212.595 79.944 212.915 79.8098 213.298 79.8098C213.479 79.8098 213.649 79.8493 213.811 79.9243C213.969 79.9993 214.107 80.102 214.222 80.2284C214.336 80.3587 214.427 80.5128 214.494 80.6905C214.562 80.8682 214.597 81.0578 214.597 81.2552C214.597 81.4606 214.562 81.6502 214.491 81.824C214.419 81.9977 214.321 82.1478 214.202 82.2663C214.084 82.3848 213.942 82.4796 213.784 82.5467C213.626 82.6138 213.46 82.6454 213.29 82.6454Z" fill="#5A5761"/>
<path d="M219.518 77.2387V79.8414H219.506C219.396 79.7071 219.273 79.5886 219.131 79.4938C218.989 79.399 218.839 79.3279 218.677 79.2806C218.511 79.2332 218.341 79.2095 218.167 79.2095C217.891 79.2095 217.634 79.2648 217.397 79.3674C217.156 79.4701 216.951 79.6123 216.785 79.794C216.615 79.9756 216.481 80.1889 216.386 80.4417C216.287 80.6944 216.24 80.9669 216.24 81.2513C216.24 81.5475 216.287 81.82 216.39 82.0688C216.489 82.3216 216.623 82.5309 216.797 82.7007C216.971 82.8745 217.176 83.0088 217.413 83.1036C217.65 83.1983 217.903 83.2457 218.171 83.2457C218.361 83.2457 218.539 83.222 218.708 83.1667C218.878 83.1115 219.032 83.0364 219.171 82.9337C219.305 82.835 219.427 82.7126 219.534 82.5704H219.546V83.1944H220.174V77.2387H219.518ZM218.235 82.6454C217.84 82.6454 217.52 82.5151 217.275 82.2544C217.03 81.9938 216.908 81.6581 216.908 81.2552C216.908 80.8248 217.034 80.4772 217.287 80.2087C217.539 79.944 217.859 79.8098 218.242 79.8098C218.424 79.8098 218.594 79.8493 218.756 79.9243C218.914 79.9993 219.052 80.102 219.167 80.2284C219.281 80.3587 219.372 80.5128 219.439 80.6905C219.506 80.8682 219.542 81.0578 219.542 81.2552C219.542 81.4606 219.506 81.6502 219.435 81.824C219.364 81.9977 219.265 82.1478 219.147 82.2663C219.028 82.3848 218.886 82.4796 218.728 82.5467C218.57 82.6138 218.404 82.6454 218.235 82.6454Z" fill="#5A5761"/>
<path d="M223.381 79.2095C223.112 79.2095 222.871 79.2766 222.65 79.403C222.429 79.5294 222.247 79.711 222.101 79.944H222.085V79.2569H221.43V83.1944H222.085V81.2947C222.085 81.0341 222.133 80.7971 222.227 80.5917C222.322 80.3864 222.46 80.2245 222.642 80.106C222.824 79.9875 223.037 79.9283 223.282 79.9283C223.361 79.9283 223.448 79.9322 223.543 79.9401V79.2174C223.511 79.2134 223.456 79.2095 223.381 79.2095Z" fill="#5A5761"/>
<path d="M227.658 81.1644C227.658 80.7932 227.579 80.4575 227.429 80.1613C227.279 79.8651 227.061 79.632 226.785 79.4622C226.505 79.2963 226.185 79.2095 225.825 79.2095C225.561 79.2095 225.312 79.2608 225.083 79.3595C224.85 79.4622 224.648 79.6005 224.482 79.7742C224.317 79.948 224.182 80.1613 224.088 80.414C223.989 80.6668 223.941 80.9353 223.941 81.2276C223.941 81.5238 223.989 81.7963 224.091 82.0491C224.19 82.3018 224.328 82.5151 224.502 82.6889C224.676 82.8626 224.881 83.0009 225.122 83.0996C225.363 83.1983 225.624 83.2457 225.9 83.2457C226.244 83.2457 226.552 83.1825 226.82 83.0483C227.089 82.914 227.314 82.7323 227.492 82.5033L227.034 82.1123C226.899 82.2742 226.742 82.4045 226.556 82.4993C226.366 82.5941 226.157 82.6415 225.924 82.6415C225.569 82.6415 225.272 82.5348 225.035 82.3137C224.794 82.0925 224.652 81.8003 224.613 81.433H227.638C227.65 81.354 227.658 81.2671 227.658 81.1644ZM225.861 79.8137C226.169 79.8137 226.422 79.9125 226.623 80.106C226.824 80.3034 226.951 80.5641 227.006 80.888H224.629C224.688 80.5602 224.83 80.2995 225.055 80.106C225.28 79.9125 225.549 79.8137 225.861 79.8137Z" fill="#5A5761"/>
<path d="M229.85 83.2457C230.079 83.2457 230.284 83.2181 230.466 83.1588C230.647 83.0996 230.798 83.0167 230.912 82.914C231.027 82.8113 231.113 82.6889 231.173 82.5546C231.232 82.4203 231.264 82.2742 231.264 82.1162C231.264 81.9503 231.236 81.8082 231.185 81.6857C231.098 81.4922 230.92 81.3263 230.651 81.1921C230.565 81.1526 230.308 81.0499 229.889 80.884C229.763 80.8366 229.664 80.7971 229.589 80.7616C229.51 80.726 229.435 80.6826 229.36 80.6312C229.285 80.5838 229.23 80.5286 229.194 80.4654C229.159 80.4061 229.143 80.339 229.143 80.2639C229.143 80.1297 229.202 80.0191 229.324 79.9322C229.447 79.8453 229.589 79.8019 229.747 79.8019C230.126 79.8019 230.478 79.9401 230.794 80.2126L231.133 79.6952C230.738 79.3714 230.284 79.2095 229.779 79.2095C229.403 79.2095 229.091 79.3121 228.847 79.5136C228.598 79.715 228.475 79.9638 228.475 80.2639C228.475 80.4061 228.495 80.5325 228.538 80.647C228.582 80.7655 228.637 80.8603 228.704 80.9393C228.768 81.0183 228.858 81.0933 228.969 81.1644C229.08 81.2355 229.182 81.2908 229.285 81.3342C229.388 81.3816 229.51 81.429 229.66 81.4764C229.68 81.4843 229.711 81.4962 229.755 81.508C229.838 81.5396 229.901 81.5633 229.941 81.5791C229.98 81.5949 230.035 81.6146 230.102 81.6383C230.166 81.662 230.217 81.6857 230.249 81.7015C230.28 81.7173 230.32 81.741 230.367 81.7647C230.414 81.7924 230.446 81.8161 230.47 81.8398C230.489 81.8634 230.513 81.8871 230.537 81.9187C230.561 81.9503 230.576 81.9819 230.584 82.0135C230.592 82.0491 230.596 82.0846 230.596 82.1241C230.596 82.2742 230.529 82.4006 230.395 82.4993C230.26 82.602 230.079 82.6494 229.85 82.6494C229.589 82.6494 229.364 82.6099 229.174 82.5309C228.985 82.4519 228.811 82.3374 228.645 82.1794L228.305 82.677C228.732 83.0562 229.245 83.2457 229.85 83.2457Z" fill="#5A5761"/>
<path d="M233.42 83.2457C233.649 83.2457 233.854 83.2181 234.036 83.1588C234.218 83.0996 234.368 83.0167 234.482 82.914C234.597 82.8113 234.684 82.6889 234.743 82.5546C234.802 82.4203 234.834 82.2742 234.834 82.1162C234.834 81.9503 234.806 81.8082 234.755 81.6857C234.668 81.4922 234.49 81.3263 234.222 81.1921C234.135 81.1526 233.878 81.0499 233.459 80.884C233.333 80.8366 233.234 80.7971 233.159 80.7616C233.08 80.726 233.005 80.6826 232.93 80.6312C232.855 80.5838 232.8 80.5286 232.764 80.4654C232.729 80.4061 232.713 80.339 232.713 80.2639C232.713 80.1297 232.772 80.0191 232.895 79.9322C233.017 79.8453 233.159 79.8019 233.317 79.8019C233.696 79.8019 234.048 79.9401 234.364 80.2126L234.703 79.6952C234.309 79.3714 233.854 79.2095 233.349 79.2095C232.974 79.2095 232.662 79.3121 232.417 79.5136C232.168 79.715 232.046 79.9638 232.046 80.2639C232.046 80.4061 232.065 80.5325 232.109 80.647C232.152 80.7655 232.207 80.8603 232.275 80.9393C232.338 81.0183 232.429 81.0933 232.539 81.1644C232.65 81.2355 232.752 81.2908 232.855 81.3342C232.958 81.3816 233.08 81.429 233.23 81.4764C233.25 81.4843 233.282 81.4962 233.325 81.508C233.408 81.5396 233.471 81.5633 233.511 81.5791C233.55 81.5949 233.606 81.6146 233.673 81.6383C233.736 81.662 233.787 81.6857 233.819 81.7015C233.85 81.7173 233.89 81.741 233.937 81.7647C233.985 81.7924 234.016 81.8161 234.04 81.8398C234.06 81.8634 234.083 81.8871 234.107 81.9187C234.131 81.9503 234.147 81.9819 234.154 82.0135C234.162 82.0491 234.166 82.0846 234.166 82.1241C234.166 82.2742 234.099 82.4006 233.965 82.4993C233.831 82.602 233.649 82.6494 233.42 82.6494C233.159 82.6494 232.934 82.6099 232.745 82.5309C232.555 82.4519 232.381 82.3374 232.215 82.1794L231.876 82.677C232.302 83.0562 232.816 83.2457 233.42 83.2457Z" fill="#5A5761"/>
<path d="M240.77 79.2569L239.581 82.2544H239.561L238.282 79.2569H237.583L239.245 83.0404L238.542 84.7939H239.237L241.465 79.2569H240.77Z" fill="#5A5761"/>
<path d="M243.87 83.2457C244.253 83.2457 244.601 83.1628 244.909 82.993C245.217 82.8271 245.458 82.5862 245.631 82.2781C245.805 81.9701 245.896 81.6225 245.896 81.2315C245.896 80.8406 245.805 80.4891 245.631 80.181C245.458 79.873 245.217 79.632 244.909 79.4622C244.601 79.2963 244.253 79.2095 243.87 79.2095C243.57 79.2095 243.289 79.2648 243.037 79.3674C242.78 79.4701 242.563 79.6123 242.389 79.794C242.215 79.9756 242.077 80.1889 241.978 80.4377C241.88 80.6865 241.832 80.9511 241.832 81.2315C241.832 81.5159 241.88 81.7805 241.978 82.0254C242.077 82.2702 242.215 82.4835 242.389 82.6652C242.563 82.8468 242.78 82.989 243.037 83.0917C243.289 83.1944 243.57 83.2457 243.87 83.2457ZM243.87 82.6415C243.601 82.6415 243.364 82.5783 243.155 82.4519C242.942 82.3255 242.78 82.1557 242.665 81.9424C242.551 81.7292 242.496 81.4922 242.496 81.2315C242.496 80.9709 242.551 80.7339 242.665 80.5167C242.776 80.3034 242.938 80.1297 243.151 80.0033C243.361 79.8769 243.601 79.8137 243.87 79.8137C244.123 79.8137 244.352 79.873 244.557 79.9914C244.763 80.1099 244.928 80.2797 245.051 80.497C245.169 80.7142 245.233 80.959 245.233 81.2315C245.233 81.5041 245.169 81.7489 245.051 81.9622C244.928 82.1794 244.763 82.3453 244.557 82.4638C244.348 82.5822 244.119 82.6415 243.87 82.6415Z" fill="#5A5761"/>
<path d="M249.604 79.2569V81.1644C249.604 81.3935 249.573 81.5988 249.51 81.7884C249.447 81.978 249.36 82.136 249.253 82.2584C249.146 82.3808 249.024 82.4756 248.882 82.5427C248.74 82.6099 248.593 82.6415 248.435 82.6415C248.112 82.6415 247.871 82.5467 247.713 82.3571C247.555 82.1676 247.476 81.8516 247.476 81.4132V79.2569H246.82V81.6028C246.82 82.1518 246.947 82.5625 247.207 82.835C247.468 83.1115 247.831 83.2457 248.297 83.2457C248.55 83.2457 248.791 83.1865 249.02 83.0641C249.245 82.9456 249.435 82.7718 249.593 82.5427H249.604V83.1944H250.26V79.2569H249.604Z" fill="#5A5761"/>
<path d="M257.168 81.1644C257.168 80.7932 257.089 80.4575 256.939 80.1613C256.788 79.8651 256.571 79.632 256.295 79.4622C256.014 79.2963 255.694 79.2095 255.335 79.2095C255.07 79.2095 254.822 79.2608 254.593 79.3595C254.36 79.4622 254.158 79.6005 253.992 79.7742C253.826 79.948 253.692 80.1613 253.597 80.414C253.499 80.6668 253.451 80.9353 253.451 81.2276C253.451 81.5238 253.499 81.7963 253.601 82.0491C253.7 82.3018 253.838 82.5151 254.012 82.6889C254.186 82.8626 254.391 83.0009 254.632 83.0996C254.873 83.1983 255.134 83.2457 255.41 83.2457C255.754 83.2457 256.062 83.1825 256.33 83.0483C256.599 82.914 256.824 82.7323 257.002 82.5033L256.544 82.1123C256.409 82.2742 256.251 82.4045 256.066 82.4993C255.876 82.5941 255.667 82.6415 255.434 82.6415C255.078 82.6415 254.782 82.5348 254.545 82.3137C254.304 82.0925 254.162 81.8003 254.123 81.433H257.148C257.16 81.354 257.168 81.2671 257.168 81.1644ZM255.371 79.8137C255.679 79.8137 255.931 79.9125 256.133 80.106C256.334 80.3034 256.461 80.5641 256.516 80.888H254.138C254.198 80.5602 254.34 80.2995 254.565 80.106C254.79 79.9125 255.059 79.8137 255.371 79.8137Z" fill="#5A5761"/>
<path d="M260.256 79.2095C259.96 79.2095 259.687 79.2727 259.442 79.399C259.194 79.5254 258.988 79.7031 258.826 79.9361H258.814V79.2569H258.159V83.1944H258.814V81.2276C258.814 80.7932 258.925 80.4456 259.15 80.1929C259.375 79.9401 259.675 79.8098 260.051 79.8098C260.201 79.8098 260.331 79.8335 260.446 79.873C260.556 79.9164 260.659 79.9835 260.746 80.0783C260.833 80.1731 260.896 80.3034 260.943 80.4614C260.991 80.6233 261.014 80.8169 261.014 81.042V83.1983H261.67V80.8603C261.67 80.3153 261.543 79.9006 261.291 79.6241C261.038 79.3477 260.694 79.2095 260.256 79.2095Z" fill="#5A5761"/>
<path d="M263.964 83.2457C264.107 83.2457 264.245 83.2339 264.371 83.2102C264.498 83.1865 264.596 83.1549 264.675 83.1233C264.75 83.0917 264.829 83.0483 264.916 83.0009L264.742 82.4282C264.506 82.5625 264.284 82.6296 264.079 82.6296C263.897 82.6296 263.775 82.5743 263.704 82.4638C263.633 82.3532 263.597 82.1715 263.597 81.9227V79.8256H264.9V79.2569H263.597V77.839L262.942 77.9101V79.2569H262.44V79.8256H262.942V82.0214C262.942 82.8389 263.281 83.2457 263.964 83.2457Z" fill="#5A5761"/>
<path d="M269.087 81.1644C269.087 80.7932 269.008 80.4575 268.858 80.1613C268.708 79.8651 268.49 79.632 268.214 79.4622C267.934 79.2963 267.614 79.2095 267.254 79.2095C266.99 79.2095 266.741 79.2608 266.512 79.3595C266.279 79.4622 266.077 79.6005 265.911 79.7742C265.746 79.948 265.611 80.1613 265.517 80.414C265.418 80.6668 265.37 80.9353 265.37 81.2276C265.37 81.5238 265.418 81.7963 265.521 82.0491C265.619 82.3018 265.757 82.5151 265.931 82.6889C266.105 82.8626 266.31 83.0009 266.551 83.0996C266.792 83.1983 267.053 83.2457 267.329 83.2457C267.673 83.2457 267.981 83.1825 268.25 83.0483C268.518 82.914 268.743 82.7323 268.921 82.5033L268.463 82.1123C268.329 82.2742 268.171 82.4045 267.985 82.4993C267.795 82.5941 267.586 82.6415 267.353 82.6415C266.998 82.6415 266.701 82.5348 266.464 82.3137C266.224 82.0925 266.081 81.8003 266.042 81.433H269.067C269.079 81.354 269.087 81.2671 269.087 81.1644ZM267.29 79.8137C267.598 79.8137 267.851 79.9125 268.052 80.106C268.253 80.3034 268.38 80.5641 268.435 80.888H266.058C266.117 80.5602 266.259 80.2995 266.484 80.106C266.709 79.9125 266.978 79.8137 267.29 79.8137Z" fill="#5A5761"/>
<path d="M272.029 79.2095C271.761 79.2095 271.52 79.2766 271.298 79.403C271.077 79.5294 270.896 79.711 270.749 79.944H270.734V79.2569H270.078V83.1944H270.734V81.2947C270.734 81.0341 270.781 80.7971 270.876 80.5917C270.971 80.3864 271.109 80.2245 271.291 80.106C271.472 79.9875 271.686 79.9283 271.93 79.9283C272.009 79.9283 272.096 79.9322 272.191 79.9401V79.2174C272.159 79.2134 272.104 79.2095 272.029 79.2095Z" fill="#5A5761"/>
<path d="M272.752 83.2457C272.835 83.2457 272.914 83.226 272.985 83.1865C273.056 83.147 273.111 83.0878 273.155 83.0167C273.194 82.9456 273.218 82.8705 273.218 82.7876C273.218 82.6612 273.17 82.5506 273.08 82.4598C272.989 82.3729 272.878 82.3255 272.752 82.3255C272.618 82.3255 272.507 82.3729 272.416 82.4598C272.325 82.5506 272.282 82.6612 272.282 82.7876C272.282 82.914 272.325 83.0246 272.416 83.1115C272.507 83.2023 272.618 83.2457 272.752 83.2457Z" fill="#5A5761"/>
</g>
<path d="M122.384 25.9982H124.421L120.759 16.1473H118.876L115.227 25.9982H117.265L117.935 24.028H121.713L122.384 25.9982ZM118.497 22.3625L119.811 18.4966H119.824L121.145 22.3625H118.497Z" fill="#5B5863"/>
<path d="M130.393 15.7885V19.9929H130.359C129.845 19.4106 129.167 19.1127 128.314 19.1127C127.868 19.1127 127.441 19.2007 127.048 19.3767C126.656 19.5528 126.317 19.7965 126.033 20.1012C125.748 20.4126 125.532 20.785 125.369 21.2183C125.207 21.6584 125.126 22.1323 125.126 22.6333C125.126 22.9312 125.153 23.2156 125.207 23.4864C125.261 23.7572 125.335 24.0077 125.437 24.2379C125.539 24.4681 125.66 24.6847 125.809 24.8811C125.952 25.0842 126.114 25.2534 126.304 25.4024C126.486 25.5513 126.683 25.68 126.899 25.7883C127.116 25.8966 127.346 25.9779 127.597 26.032C127.84 26.0862 128.098 26.1133 128.369 26.1133C129.255 26.1133 129.946 25.8018 130.44 25.179H130.481V25.9982H132.207V15.7885H130.393ZM128.7 24.4884C128.186 24.4884 127.773 24.3191 127.448 23.9738C127.123 23.6353 126.967 23.1885 126.967 22.6401C126.967 22.0714 127.13 21.6177 127.461 21.2657C127.793 20.9204 128.206 20.7444 128.707 20.7444C129.222 20.7444 129.641 20.9272 129.98 21.286C130.318 21.6516 130.488 22.0984 130.488 22.6401C130.488 23.0057 130.406 23.3239 130.244 23.6082C130.081 23.8926 129.872 24.116 129.601 24.265C129.33 24.4139 129.025 24.4884 128.7 24.4884Z" fill="#5B5863"/>
<path d="M138.937 15.7885V19.9929H138.903C138.389 19.4106 137.712 19.1127 136.859 19.1127C136.412 19.1127 135.985 19.2007 135.593 19.3767C135.2 19.5528 134.861 19.7965 134.577 20.1012C134.293 20.4126 134.076 20.785 133.913 21.2183C133.751 21.6584 133.67 22.1323 133.67 22.6333C133.67 22.9312 133.697 23.2156 133.751 23.4864C133.805 23.7572 133.88 24.0077 133.981 24.2379C134.083 24.4681 134.205 24.6847 134.354 24.8811C134.496 25.0842 134.658 25.2534 134.848 25.4024C135.031 25.5513 135.227 25.68 135.444 25.7883C135.66 25.8966 135.89 25.9779 136.141 26.032C136.385 26.0862 136.642 26.1133 136.913 26.1133C137.8 26.1133 138.49 25.8018 138.985 25.179H139.025V25.9982H140.752V15.7885H138.937ZM137.245 24.4884C136.73 24.4884 136.317 24.3191 135.992 23.9738C135.667 23.6353 135.511 23.1885 135.511 22.6401C135.511 22.0714 135.674 21.6177 136.006 21.2657C136.337 20.9204 136.75 20.7444 137.251 20.7444C137.766 20.7444 138.186 20.9272 138.524 21.286C138.863 21.6516 139.032 22.0984 139.032 22.6401C139.032 23.0057 138.951 23.3239 138.788 23.6082C138.626 23.8926 138.416 24.116 138.145 24.265C137.874 24.4139 137.569 24.4884 137.245 24.4884Z" fill="#5B5863"/>
<path d="M150.257 19.1127C149.837 19.1127 149.438 19.2007 149.059 19.37C148.68 19.5392 148.355 19.783 148.084 20.1012H148.064V19.2278H146.249V25.9982H148.064V22.5927C148.064 22.0037 148.199 21.55 148.477 21.2251C148.754 20.9069 149.127 20.7444 149.6 20.7444C150.041 20.7444 150.366 20.873 150.582 21.1235C150.792 21.3808 150.9 21.8141 150.9 22.437V26.0049H152.715V21.9833C152.715 21.4756 152.654 21.0355 152.539 20.6564C152.417 20.284 152.248 19.9861 152.024 19.7627C151.801 19.546 151.544 19.3835 151.252 19.2752C150.961 19.1669 150.63 19.1127 150.257 19.1127Z" fill="#5B5863"/>
<path d="M160.765 22.5521C160.765 21.8953 160.623 21.3063 160.352 20.785C160.074 20.2637 159.682 19.8574 159.181 19.5596C158.673 19.2617 158.091 19.1127 157.441 19.1127C156.967 19.1127 156.52 19.2007 156.107 19.37C155.687 19.546 155.335 19.783 155.037 20.0876C154.739 20.3923 154.509 20.7647 154.34 21.198C154.164 21.6313 154.082 22.1052 154.082 22.6062C154.082 23.2968 154.231 23.9129 154.536 24.4478C154.841 24.9894 155.26 25.4024 155.789 25.6867C156.317 25.9711 156.906 26.1133 157.569 26.1133C158.219 26.1133 158.788 25.9982 159.289 25.768C159.783 25.5378 160.183 25.2264 160.494 24.8337L159.316 23.7369C158.889 24.2514 158.348 24.5087 157.698 24.5019C157.265 24.5019 156.892 24.3801 156.587 24.1499C156.283 23.9197 156.08 23.6082 155.971 23.202H160.717C160.744 23.0937 160.765 22.877 160.765 22.5521ZM157.501 20.7105C157.881 20.7105 158.199 20.8188 158.449 21.0287C158.693 21.2386 158.869 21.5297 158.964 21.8953H155.978C156.08 21.5162 156.263 21.2183 156.533 21.0152C156.804 20.8121 157.122 20.7105 157.501 20.7105Z" fill="#5B5863"/>
<path d="M169.526 19.2278L168.212 23.3442H168.192L166.994 19.2278H165.531L164.346 23.3442H164.326L163.013 19.2278H161.191L163.5 25.9982H165.057L166.249 21.8209H166.269L167.474 25.9982H169.038L171.347 19.2278H169.526Z" fill="#5B5863"/>
<path d="M176.357 25.9982H182.945V24.2582H178.28V21.9766H181.787V20.2569H178.28V17.894H182.653V16.1473H176.357V25.9982Z" fill="#5B5863"/>
<path d="M192.755 19.1127C192.267 19.1127 191.821 19.2075 191.414 19.3971C191.008 19.5866 190.67 19.8507 190.399 20.2027H190.378C189.979 19.4783 189.309 19.1127 188.368 19.1127C187.988 19.1127 187.623 19.2007 187.271 19.3767C186.919 19.5528 186.607 19.7965 186.343 20.1215H186.323V19.2278H184.508V25.9982H186.323V22.613C186.323 22.2203 186.384 21.8818 186.513 21.5974C186.634 21.3131 186.804 21.0964 187.02 20.9542C187.23 20.8188 187.474 20.7444 187.752 20.7444C188.55 20.7444 188.95 21.3334 188.95 22.5047V26.0049H190.764V22.613C190.764 22.2203 190.825 21.8818 190.947 21.5974C191.069 21.3131 191.238 21.0964 191.448 20.9542C191.651 20.8188 191.888 20.7444 192.145 20.7444C192.931 20.7444 193.33 21.3334 193.33 22.5047V26.0049H195.145V22.0646C195.145 21.0626 194.935 20.3246 194.515 19.8371C194.095 19.3564 193.513 19.1127 192.755 19.1127Z" fill="#5B5863"/>
<path d="M201.719 19.2278V19.9929H201.692C201.184 19.4106 200.52 19.1127 199.694 19.1127C199.248 19.1127 198.821 19.2007 198.428 19.3767C198.036 19.5528 197.697 19.7965 197.413 20.1012C197.128 20.4126 196.912 20.785 196.749 21.2183C196.587 21.6584 196.506 22.1323 196.506 22.6333C196.506 23.1478 196.587 23.6285 196.749 24.0618C196.912 24.4952 197.135 24.8675 197.42 25.1654C197.704 25.4633 198.049 25.7003 198.449 25.8628C198.848 26.032 199.281 26.1133 199.749 26.1133C200.615 26.1133 201.285 25.8018 201.773 25.179H201.807V25.9982H203.533V19.2278H201.719ZM200.08 24.4884C199.566 24.4884 199.153 24.3191 198.828 23.9738C198.503 23.6353 198.347 23.1885 198.347 22.6401C198.347 22.0714 198.51 21.6177 198.841 21.2657C199.173 20.9204 199.586 20.7444 200.087 20.7444C200.575 20.7444 200.981 20.9272 201.306 21.286C201.631 21.6516 201.793 22.0984 201.793 22.6401C201.793 23.1885 201.624 23.6353 201.299 23.9738C200.967 24.3191 200.561 24.4884 200.08 24.4884Z" fill="#5B5863"/>
<path d="M206.302 18.2732C206.607 18.2732 206.871 18.1649 207.094 17.9482C207.311 17.7315 207.426 17.4743 207.426 17.1628C207.426 16.8649 207.311 16.6009 207.094 16.3842C206.871 16.1676 206.607 16.0593 206.302 16.0593C205.991 16.0593 205.72 16.1676 205.503 16.3842C205.287 16.6009 205.178 16.8649 205.178 17.1628C205.178 17.3659 205.226 17.5555 205.327 17.7248C205.422 17.894 205.558 18.0294 205.734 18.1242C205.91 18.2258 206.099 18.2732 206.302 18.2732ZM205.395 25.9982H207.21V19.2278H205.395V25.9982Z" fill="#5B5863"/>
<path d="M209.214 25.9982H211.028V15.7885H209.214V25.9982Z" fill="#5B5863"/>
<path opacity="0.4" fill-rule="evenodd" clip-rule="evenodd" d="M327 41.0195H0L0 40.4418H327V41.0195Z" fill="#E3E0D3"/>
</svg>
