<svg width="581" height="581" viewBox="0 0 581 581" fill="none" xmlns="http://www.w3.org/2000/svg">
<circle opacity="0.2" cx="290.5" cy="290.5" r="290.5" fill="white"/>
<circle opacity="0.2" cx="290.5" cy="290.5" r="252.798" fill="white"/>
<circle cx="290.5" cy="290.5" r="224.373" fill="white"/>
<mask id="mask0" mask-type="alpha" maskUnits="userSpaceOnUse" x="66" y="66" width="449" height="449">
<circle cx="290.5" cy="290.5" r="224.373" fill="white"/>
</mask>
<g mask="url(#mask0)">
<path d="M186.392 482.48C186.392 482.48 170.022 493.618 163.427 492.875C162.703 492.837 162.015 492.545 161.486 492.049C157.19 487.615 153.735 479.823 153.735 479.823C153.735 479.823 155.786 476.987 162.105 484.518L166.112 480.842L157.851 472.499C157.851 472.499 162.518 468.795 170.449 473.517C170.173 472.939 165.066 461.815 168.92 446.67L149.646 428.07L166.745 413.174L168.122 412.017C168.122 412.017 169.196 413.077 170.875 414.771C172.555 416.464 174.882 418.502 177.401 420.718C183.432 426.019 190.728 431.732 193.923 431.732C199.677 431.54 186.392 482.48 186.392 482.48Z" fill="#FFBE9D"/>
<path opacity="0.4" d="M173.739 475.183C173.739 475.183 164.405 484.821 163.427 492.875C162.703 492.838 162.015 492.545 161.486 492.049C157.19 487.616 153.735 479.823 153.735 479.823C153.735 479.823 155.786 476.987 162.105 484.518L166.112 480.842L157.851 472.499C157.851 472.499 162.518 468.795 170.449 473.518C170.173 472.939 165.066 461.815 168.92 446.671L149.646 428.07L166.745 413.174L170.875 414.73C172.569 416.327 174.882 418.461 177.401 420.677C173.78 425.978 166.029 436.951 166.029 436.951L172.734 446.037C172.734 446.037 168.604 468.947 173.739 475.183Z" fill="#DB9673"/>
<path d="M166.167 480.842C167.074 478.13 168.543 475.639 170.476 473.531" stroke="#E19C79" stroke-linecap="round" stroke-linejoin="round"/>
<path d="M471.52 352.816C468.938 356.584 465.816 359.951 462.255 362.812C432.159 387.731 362.769 399.984 362.769 399.984C362.769 399.984 360.443 403.468 356.863 408.424C350.447 417.332 339.943 431.017 331.379 437.873C327.758 440.778 324.495 442.458 322.003 442.003L335.028 490.094L340.851 510.966C340.851 510.966 281.017 537.124 178.682 507.221C178.682 507.221 177.511 493.866 178.379 491.016C178.379 490.879 178.461 490.741 178.517 490.59C179.558 488.692 180.918 486.988 182.537 485.551C182.537 485.551 181.958 476.96 181.669 468.217C181.339 462.643 181.408 457.053 181.876 451.489C182.606 447.084 185.827 436.428 187.452 431.196L188.402 428.153L183.308 380.462L181.848 366.694L181.766 365.978C181.766 365.882 181.766 365.772 181.766 365.634L180.967 358.268L154.643 366.309C154.643 366.309 156.02 369.393 157.92 373.716C161.376 381.632 166.456 393.679 167.557 398.498C167.64 398.89 167.751 399.277 167.888 399.654C170.325 406.607 179.604 412.926 179.604 412.926L154.671 442.059L147.305 436.909C146.362 437.607 145.368 438.233 144.331 438.782C139.485 441.411 129.325 445.28 118.173 439.374C113.34 436.657 109.144 432.94 105.864 428.47C86.3143 403.082 77.8059 382.307 80.5732 357.979C83.3405 333.652 192.821 258.577 214.547 259.361L246.859 266.493C247.561 265.915 249.448 264.428 250.907 264.497C256.786 264.8 256.937 271.628 256.937 271.628L329.355 283.386C329.355 283.386 336.859 279.627 338.167 279.682C339.112 279.746 340.027 280.045 340.828 280.553C341.629 281.06 342.29 281.759 342.751 282.587C342.751 282.587 361.503 271.353 367.533 273.969C387.386 282.532 486.183 330.54 471.52 352.816Z" fill="#FD3E72"/>
<path opacity="0.2" d="M219.93 471.797C211.701 480.843 200.651 486.836 188.581 488.8C184.767 489.406 181.422 490.011 178.489 490.617C179.531 488.72 180.891 487.015 182.509 485.578C182.509 485.578 181.931 476.987 181.642 468.245C190.136 473.848 204.951 480.319 219.93 471.797Z" fill="black"/>
<path opacity="0.2" d="M187.424 431.264L188.374 428.222L183.28 380.531C190.894 391.448 218.044 428.635 236.754 432.655C256.318 436.84 204.014 444.261 187.424 431.264Z" fill="black"/>
<path opacity="0.2" d="M335 490.163C314.555 487.836 285.657 482.687 282.765 471.989C278.263 455.275 300.168 445.253 331.379 437.942C327.758 440.847 324.495 442.527 322.003 442.072L335 490.163Z" fill="black"/>
<path opacity="0.2" d="M462.241 362.825C432.145 387.745 362.756 399.998 362.756 399.998C362.756 399.998 360.429 403.481 356.849 408.438C346.641 384.063 345.081 356.929 352.43 331.545C352.43 331.545 357.772 360.457 379.965 367.341C379.965 367.341 362.976 354.689 368.951 324.234C368.951 324.234 374.747 360.03 412.457 369.971C430.754 374.886 448.666 369.544 462.241 362.825Z" fill="black"/>
<path opacity="0.2" d="M181.738 366.075L180.912 358.365L154.588 366.405C154.588 366.405 155.965 369.489 157.865 373.812C147.801 372.779 128.705 382.073 125.373 371.94C121.353 359.659 146.025 363.885 146.025 363.885L169.347 350.324C164.942 331.463 176.162 317.282 176.162 317.282L178.296 330.444C179.315 305.428 189.104 291.743 189.104 291.743C181.008 311.527 181.229 360.278 181.738 366.075Z" fill="black"/>
<path opacity="0.2" d="M179.59 412.967L154.657 442.1L147.291 436.951C146.348 437.648 145.354 438.274 144.318 438.823C139.471 441.453 129.311 445.321 118.159 439.415C126.241 428.236 142.941 411.783 162.78 405.436C157.91 412.685 153.522 420.246 149.646 428.07L154.767 433.109C154.767 433.109 167.544 418.543 179.59 412.967Z" fill="black"/>
<path opacity="0.2" d="M240.127 284.652C240.127 287.227 238.502 316.318 259.705 324.069C280.907 331.82 299.713 318.713 299.713 318.713C299.713 318.713 267.208 350.076 247.396 333.307C227.585 316.538 240.127 284.652 240.127 284.652Z" fill="black"/>
<path d="M394.986 357.649C428.221 379.594 455.013 375.547 475.981 347.295C475.981 347.295 493.439 324.785 492.2 300.485C490.96 276.185 485.164 197.021 409.511 217.26C397.051 220.591 367.987 259.513 365.551 270.21C364.422 275.098 352.76 299.976 341.43 325.735" fill="#FD3E72"/>
<path d="M394.986 357.649C428.221 379.594 455.013 375.547 475.981 347.295C475.981 347.295 493.439 324.785 492.2 300.485C490.96 276.185 485.164 197.021 409.511 217.26C397.051 220.591 367.987 259.513 365.551 270.21C364.422 275.098 352.76 299.976 341.43 325.735" stroke="#DA2858" stroke-linecap="round" stroke-linejoin="round"/>
<path d="M305.069 125.071C305.069 125.071 326.244 121.863 340.948 135.025C359.548 151.67 380.433 196.553 350.695 270.926C350.695 270.926 306.763 241.766 231.784 261.289C231.784 261.289 238.241 243.845 226.91 188.926C221.788 164.075 234.675 106.829 305.069 125.071Z" fill="#5B5863"/>
<path d="M272.977 311.706C304.312 316.786 337.602 282.092 337.602 282.092C337.602 282.092 320.572 279.999 319.043 272C314.156 246.764 333.816 215.552 333.816 215.552C333.816 215.552 257.736 217.659 271.035 234.827C273.51 237.968 275.535 241.439 277.052 245.139C281.664 256.47 278.429 265.02 276.019 267.167C275.844 267.31 275.655 267.435 275.455 267.539C270.856 269.632 251.953 266.507 251.953 266.507C251.953 266.507 244.381 307.066 272.977 311.706Z" fill="#FFBE9D"/>
<path d="M276.019 267.209C299.314 273.294 310.26 243.418 310.26 243.418C310.26 243.418 303.553 241.437 295.042 241.432C289.363 241.428 282.881 242.304 277.052 245.235C281.664 256.566 278.47 265.116 276.019 267.209Z" fill="#F2AE8B"/>
<path d="M335.165 199.871C340.824 168.054 334.532 129.876 286.097 133.043C251.499 135.301 251.788 173.231 254.074 184.561C257.929 203.602 252.408 211.092 258.342 227.09C262.61 238.586 272.509 251.445 284.17 256.264C291.343 259.224 320.379 238.847 322.527 229.527" fill="#FFBE9D"/>
<path d="M304.326 145.158C304.326 145.158 301.269 182.868 334.546 196.567L350.144 160.316L326.547 134.158L291.012 123.887C237.91 127.205 215.056 160.192 244.533 248.099C244.533 248.14 236.286 143.451 304.326 145.158Z" fill="#5B5863"/>
<path d="M327.249 198.164C326.781 193.923 337.506 183.129 341.127 190.055C347.308 201.867 342.806 212.083 336.418 216.213C333.554 218.017 329.92 221.404 327.373 218.21" fill="#FFBE9D"/>
<path d="M327.249 198.164C326.781 193.923 337.506 183.129 341.127 190.055C347.308 201.867 342.806 212.083 336.418 216.213C333.554 218.017 329.92 221.404 327.373 218.21" stroke="#F2AE8B" stroke-linecap="round" stroke-linejoin="round"/>
<g opacity="0.2">
<path d="M239.824 187.439C239.425 189.986 239.149 192.574 238.998 195.148" stroke="#DBDBDB" stroke-linecap="round" stroke-linejoin="round"/>
<path d="M298.819 138.302C271.917 137.6 246.914 154.74 240.994 181.656" stroke="#DBDBDB" stroke-linecap="round" stroke-linejoin="round"/>
<path d="M294.014 130.619C294.014 130.619 255.216 121.491 240.678 147.223" stroke="#DBDBDB" stroke-linecap="round" stroke-linejoin="round"/>
<path d="M325.487 175.447C327.826 178.777 330.642 181.746 333.844 184.258" stroke="#DBDBDB" stroke-linecap="round" stroke-linejoin="round"/>
<path d="M310.094 135.645C312.077 147.968 316.245 159.839 322.403 170.697" stroke="#DBDBDB" stroke-linecap="round" stroke-linejoin="round"/>
<path d="M349.071 252.339C348.382 255.423 347.57 258.48 346.661 261.509" stroke="#DBDBDB" stroke-linecap="round" stroke-linejoin="round"/>
<path d="M346.827 201.069C353.118 215.043 352.692 232.431 350.103 247.135" stroke="#DBDBDB" stroke-linecap="round" stroke-linejoin="round"/>
<path d="M342.214 225.355C342.521 230.647 341.705 235.945 339.818 240.9C337.932 245.854 335.018 250.353 331.269 254.102" stroke="#DBDBDB" stroke-linecap="round" stroke-linejoin="round"/>
<path d="M324.33 140.146C330.925 149.068 335.826 158.636 343.467 166.787C351.521 175.364 359.575 185.194 361.09 197.282" stroke="#DBDBDB" stroke-linecap="round" stroke-linejoin="round"/>
<path d="M315.023 130.867C316.912 132.106 318.65 133.561 320.2 135.204" stroke="#DBDBDB" stroke-linecap="round" stroke-linejoin="round"/>
</g>
<path d="M447.73 337.906C446.959 338.071 446.188 338.209 445.389 338.319C424.573 341.293 401.223 324.028 393.348 303.308C387.125 286.938 392.563 268.365 395.537 260.421C396.473 257.929 397.148 256.484 397.148 256.484C409.704 238.586 482.7 273.624 483.554 292.954C484.407 312.284 469.056 333.225 447.73 337.906Z" fill="#951638"/>
<path d="M470.571 295.57C470.571 295.57 466.44 326.3 445.389 338.319C424.573 341.293 401.223 324.028 393.348 303.308C387.125 286.938 392.563 268.365 395.537 260.421C420.14 246.364 470.571 295.57 470.571 295.57Z" fill="#F2AE8B"/>
<path d="M384.481 311.747C384.481 311.747 408.189 345.781 435.876 348.617C463.563 351.453 481.309 328.131 482.397 310.549" stroke="#DA2858" stroke-linecap="round" stroke-linejoin="round"/>
<path d="M371.154 158.169C373.233 152.345 388.185 154.3 392.935 172.473C397.684 190.647 416.34 234.827 416.34 234.827C416.34 234.827 490.685 125.498 503.957 121.285C517.229 117.072 512.011 136.016 494.21 162.299C494.21 162.299 510.882 159.366 515.26 162.299C519.639 165.231 517.505 182.95 519.831 189.091C523.741 199.458 515.054 201.647 515.054 201.647C519.316 201.742 523.414 203.303 526.66 206.066C531.437 210.541 529.042 229.031 530.405 234.263C531.768 239.494 522.654 243.9 522.654 243.9C522.654 243.9 544.558 255.837 539.615 258.838C531.272 263.877 526.522 258.714 526.522 258.714C526.522 258.714 492.86 300.981 467.473 310.398C442.085 319.815 392.673 282.394 387.359 262.018C382.044 241.642 388.391 242.895 384.357 208.985C380.323 175.075 371.154 158.169 371.154 158.169Z" fill="#FFBE9D" stroke="#F1A781" stroke-linecap="round" stroke-linejoin="round"/>
<path d="M479.544 90.9935L381.651 116.511C378.178 117.416 376.096 120.966 377.001 124.438L423.276 301.961C424.181 305.434 427.73 307.515 431.203 306.61L529.097 281.092C532.57 280.187 534.651 276.638 533.746 273.165L487.472 95.6426C486.566 92.1697 483.017 90.0882 479.544 90.9935Z" fill="#5B5863" stroke="#5B5863" stroke-linecap="round" stroke-linejoin="round"/>
<path d="M423.457 111.4C423.51 111.601 423.522 111.811 423.493 112.018C423.465 112.224 423.396 112.423 423.29 112.602C423.185 112.782 423.045 112.939 422.879 113.065C422.712 113.19 422.523 113.282 422.322 113.334C422.12 113.387 421.91 113.399 421.704 113.37C421.497 113.341 421.299 113.272 421.119 113.167C420.94 113.061 420.782 112.922 420.657 112.755C420.531 112.589 420.44 112.4 420.387 112.198C420.331 111.997 420.316 111.786 420.343 111.578C420.37 111.371 420.438 111.171 420.543 110.99C420.648 110.809 420.788 110.651 420.956 110.525C421.123 110.399 421.313 110.308 421.516 110.257C421.925 110.152 422.359 110.214 422.723 110.428C423.086 110.642 423.351 110.991 423.457 111.4Z" fill="white"/>
<path d="M443.627 106.14C443.66 106.267 443.668 106.399 443.65 106.528C443.632 106.658 443.588 106.783 443.521 106.895C443.455 107.008 443.367 107.106 443.262 107.185C443.157 107.263 443.038 107.32 442.911 107.352C442.721 107.4 442.522 107.391 442.337 107.325C442.153 107.26 441.992 107.142 441.874 106.985C441.757 106.828 441.689 106.64 441.678 106.445C441.668 106.249 441.715 106.055 441.815 105.887C441.914 105.718 442.061 105.583 442.238 105.498C442.414 105.413 442.612 105.382 442.805 105.409C442.999 105.436 443.181 105.52 443.327 105.651C443.473 105.781 443.578 105.951 443.627 106.14Z" fill="white"/>
<path d="M438.808 108.624L426.989 111.67C426.753 111.731 426.611 111.971 426.672 112.207L426.733 112.448C426.794 112.684 427.035 112.826 427.271 112.765L439.09 109.719C439.326 109.658 439.468 109.417 439.407 109.181L439.345 108.941C439.284 108.705 439.044 108.563 438.808 108.624Z" fill="white"/>
<path d="M484.531 97.4806L530.419 273.542C530.674 274.529 530.528 275.578 530.012 276.458C529.496 277.338 528.652 277.978 527.665 278.237L431.03 303.418C430.042 303.673 428.993 303.527 428.113 303.011C427.233 302.495 426.594 301.651 426.335 300.664L380.447 124.603C380.192 123.615 380.338 122.567 380.854 121.687C381.37 120.807 382.214 120.167 383.201 119.908L403.04 114.732C403.676 114.564 404.349 114.596 404.967 114.823C405.584 115.049 406.118 115.459 406.496 115.998L407.941 118.05C408.319 118.588 408.853 118.998 409.47 119.225C410.088 119.451 410.761 119.483 411.397 119.316L454.944 107.972C455.574 107.807 456.14 107.456 456.567 106.965C456.995 106.474 457.264 105.865 457.34 105.218L457.601 102.726C457.673 102.078 457.941 101.467 458.369 100.975C458.797 100.484 459.365 100.134 459.997 99.9726L479.836 94.7959C480.814 94.5378 481.855 94.6746 482.733 95.1769C483.612 95.6791 484.257 96.5065 484.531 97.4806Z" fill="#FD3E72"/>
<path d="M475.857 193.778C481.399 181.015 475.545 166.177 462.782 160.635C450.019 155.094 435.181 160.948 429.639 173.711C424.098 186.473 429.952 201.312 442.715 206.853C455.477 212.395 470.316 206.541 475.857 193.778Z" fill="white"/>
<path opacity="0.8" d="M423.906 174.718C422.249 180.004 422.024 185.809 423.564 191.556C425.104 197.303 428.201 202.218 432.279 205.967M473.234 161.501C477.312 165.25 480.409 170.165 481.949 175.912C483.489 181.659 483.264 187.463 481.607 192.75" stroke="white" stroke-width="3" stroke-linecap="round" stroke-linejoin="round"/>
<path opacity="0.6" d="M418.175 167.685C414.544 175.501 413.532 184.587 415.937 193.562C418.342 202.538 423.761 209.901 430.813 214.854M474.611 152.563C481.664 157.516 487.083 164.879 489.488 173.855C491.893 182.83 490.881 191.916 487.25 199.732" stroke="white" stroke-width="4" stroke-linecap="round" stroke-linejoin="round"/>
<path opacity="0.4" d="M410.566 160.727C404.87 171.17 403.021 183.735 406.343 196.133C409.665 208.531 417.548 218.488 427.704 224.684M477.721 142.732C487.876 148.928 495.759 158.886 499.081 171.284C502.403 183.681 500.555 196.247 494.859 206.69" stroke="white" stroke-width="5" stroke-linecap="round" stroke-linejoin="round"/>
<path d="M442.342 198.213C442.557 198.72 442.952 199.129 443.451 199.361C443.95 199.593 444.518 199.632 445.044 199.471L453.328 197.083C453.347 197.262 453.381 197.438 453.43 197.61C453.556 198.043 453.765 198.447 454.047 198.799C454.329 199.151 454.677 199.444 455.072 199.661C455.467 199.879 455.9 200.016 456.348 200.066C456.797 200.115 457.25 200.076 457.683 199.951C458.116 199.825 458.52 199.616 458.872 199.334C459.224 199.053 459.517 198.704 459.734 198.309C459.951 197.915 460.089 197.481 460.139 197.033C460.188 196.585 460.149 196.131 460.024 195.698C459.971 195.526 459.906 195.359 459.828 195.197L468.104 192.809C468.645 192.665 469.111 192.323 469.412 191.851C469.712 191.379 469.825 190.811 469.727 190.26C469.675 189.961 469.56 189.675 469.39 189.423C469.22 189.171 468.998 188.958 468.74 188.798C468.482 188.637 468.192 188.533 467.891 188.492C467.59 188.452 467.283 188.475 466.991 188.561L466.294 188.136C464.784 187.233 463.673 185.79 463.185 184.1L461.613 178.653C460.966 176.41 459.528 174.478 457.566 173.212C455.604 171.947 453.251 171.435 450.941 171.771C451.337 171.353 451.585 170.815 451.646 170.242C451.707 169.669 451.577 169.091 451.277 168.599C450.977 168.106 450.524 167.726 449.986 167.518C449.449 167.309 448.858 167.283 448.304 167.443C447.75 167.604 447.265 167.942 446.922 168.406C446.58 168.87 446.4 169.434 446.41 170.01C446.42 170.587 446.619 171.144 446.978 171.596C447.336 172.048 447.833 172.369 448.392 172.51C446.237 173.451 444.499 175.146 443.504 177.276C442.509 179.407 442.326 181.827 442.988 184.083L444.576 189.589C444.859 190.551 444.929 191.563 444.783 192.554C444.636 193.546 444.276 194.494 443.727 195.333C443.439 195.42 443.172 195.566 442.944 195.761C442.716 195.956 442.53 196.197 442.4 196.468C442.27 196.739 442.197 197.034 442.187 197.335C442.177 197.635 442.23 197.934 442.342 198.213ZM450.507 169.613C450.591 169.903 450.587 170.212 450.495 170.5C450.404 170.789 450.228 171.043 449.992 171.232C449.756 171.421 449.469 171.535 449.167 171.561C448.866 171.586 448.564 171.522 448.299 171.376C448.034 171.23 447.819 171.009 447.68 170.74C447.541 170.472 447.484 170.168 447.518 169.867C447.551 169.567 447.673 169.283 447.868 169.051C448.063 168.82 448.322 168.652 448.612 168.568C448.805 168.511 449.008 168.492 449.208 168.514C449.408 168.536 449.602 168.597 449.778 168.694C449.954 168.792 450.11 168.923 450.235 169.081C450.36 169.238 450.453 169.419 450.507 169.613Z" fill="#FD3E72"/>
<path d="M500.989 251.123L445.918 265.469C444.344 265.884 442.702 265.984 441.089 265.765C439.475 265.545 437.92 265.01 436.514 264.189C435.107 263.368 433.876 262.278 432.891 260.981C431.906 259.684 431.187 258.205 430.774 256.63C430.359 255.054 430.259 253.412 430.479 251.798C430.7 250.183 431.237 248.628 432.059 247.221C432.881 245.815 433.973 244.584 435.271 243.6C436.57 242.615 438.05 241.897 439.626 241.485L494.697 227.139C497.868 226.322 501.234 226.792 504.059 228.449C506.883 230.105 508.938 232.812 509.773 235.978C510.613 239.151 510.16 242.528 508.513 245.367C506.867 248.207 504.16 250.277 500.989 251.123Z" fill="#5B5863"/>
<path d="M455.142 256.961L457.494 256.34L450.263 246.086L448.091 246.66L446.882 259.143L449.234 258.521L449.407 256.043L453.768 254.891L455.142 256.961ZM449.548 253.949L449.885 249.087L449.901 249.082L452.603 253.142L449.548 253.949Z" fill="white"/>
<path d="M459.01 255.939L466.317 254.009L465.786 252.001L460.73 253.336L458.258 243.974L456.007 244.569L459.01 255.939Z" fill="white"/>
<path d="M468.067 253.547L475.671 251.539L475.141 249.53L469.756 250.952L469.061 248.319L473.109 247.25L472.584 245.265L468.536 246.334L467.816 243.607L472.864 242.273L472.332 240.257L465.064 242.177L468.067 253.547Z" fill="white"/>
<path d="M486.408 248.703L482.513 245.317L482.505 245.286C482.948 245.002 483.3 244.658 483.564 244.262C483.829 243.875 483.994 243.422 484.059 242.911C484.125 242.4 484.086 241.842 483.93 241.248C483.783 240.693 483.563 240.208 483.287 239.796C483.011 239.384 482.663 239.05 482.26 238.788C481.857 238.527 481.372 238.371 480.807 238.319C480.242 238.268 479.631 238.329 478.966 238.505L474.668 239.64L477.672 251.01L479.891 250.424L478.863 246.532L480.168 246.188L483.744 249.406L486.408 248.703ZM477.416 241.054L479.089 240.613C479.729 240.443 480.271 240.467 480.713 240.685C481.155 240.903 481.448 241.285 481.588 241.816C481.731 242.356 481.657 242.835 481.372 243.245C481.08 243.656 480.597 243.951 479.917 244.13L478.339 244.547L477.416 241.054Z" fill="white"/>
<path d="M490.199 247.702L492.441 247.109L489.971 237.755L493.12 236.923L492.588 234.907L484.062 237.159L484.594 239.175L487.728 238.347L490.199 247.702Z" fill="white"/>
<path d="M362.756 400.053C362.756 400.053 346.042 361.16 354.495 313.991" stroke="#DA2858" stroke-linecap="round" stroke-linejoin="round"/>
<path d="M342.751 282.587C342.751 282.587 311.636 313.427 290.82 321.646" stroke="#DA2858" stroke-linecap="round" stroke-linejoin="round"/>
<path d="M240.802 274.299C240.802 274.299 235.129 315.933 256.29 323.794" stroke="#DA2858" stroke-linecap="round" stroke-linejoin="round"/>
<path d="M180.912 358.365C180.912 358.365 180.747 303.789 191.582 286.91" stroke="#DA2858" stroke-linecap="round" stroke-linejoin="round"/>
<path d="M206.782 365.593C206.782 365.593 251.265 432.82 275.813 426.652" stroke="#DA2858" stroke-linecap="round" stroke-linejoin="round"/>
<path opacity="0.2" d="M481.447 350.792C483.801 348.865 485.357 347.584 485.866 347.185C485.343 347.64 483.829 348.961 481.447 350.792Z" fill="black"/>
</g>
<path d="M394.986 357.649C428.221 379.594 455.013 375.547 475.981 347.295C475.981 347.295 493.439 324.785 492.2 300.485C490.96 276.185 485.164 197.021 409.511 217.259C397.051 220.591 367.987 259.512 365.551 270.21C364.422 275.097 352.76 299.976 341.43 325.735" fill="#FD3E72"/>
<path d="M394.986 357.649C428.221 379.594 455.013 375.547 475.981 347.295C475.981 347.295 493.439 324.785 492.2 300.485C490.96 276.185 485.164 197.021 409.511 217.259C397.051 220.591 367.987 259.512 365.551 270.21C364.422 275.097 352.76 299.976 341.43 325.735" stroke="#DA2858" stroke-linecap="round" stroke-linejoin="round"/>
<path d="M305.069 125.071C305.069 125.071 326.244 121.863 340.948 135.025C359.548 151.67 380.433 196.553 350.695 270.926C350.695 270.926 306.763 241.766 231.784 261.289C231.784 261.289 238.241 243.845 226.91 188.926C221.788 164.075 234.675 106.829 305.069 125.071Z" fill="#5B5863"/>
<path d="M272.977 311.706C304.312 316.786 337.602 282.091 337.602 282.091C337.602 282.091 320.572 279.999 319.043 272C314.156 246.764 333.816 215.552 333.816 215.552C333.816 215.552 257.736 217.659 271.035 234.827C273.51 237.968 275.535 241.439 277.052 245.139C281.664 256.47 278.429 265.02 276.019 267.167C275.844 267.31 275.655 267.435 275.455 267.539C270.856 269.632 251.953 266.506 251.953 266.506C251.953 266.506 244.381 307.066 272.977 311.706Z" fill="#FFBE9D"/>
<path d="M276.019 267.209C299.314 273.294 310.26 243.418 310.26 243.418C310.26 243.418 303.553 241.437 295.042 241.432C289.363 241.428 282.881 242.304 277.052 245.235C281.664 256.566 278.47 265.116 276.019 267.209Z" fill="#F2AE8B"/>
<path d="M335.165 199.871C340.824 168.054 334.532 129.876 286.097 133.043C251.499 135.3 251.788 173.23 254.074 184.561C257.929 203.602 252.408 211.092 258.342 227.09C262.61 238.586 272.509 251.445 284.17 256.263C291.343 259.223 320.379 238.847 322.527 229.527" fill="#FFBE9D"/>
<path d="M304.326 145.158C304.326 145.158 301.269 182.868 334.546 196.567L350.144 160.316L326.547 134.158L291.012 123.887C237.91 127.205 215.056 160.192 244.533 248.099C244.533 248.14 236.286 143.451 304.326 145.158Z" fill="#5B5863"/>
<path d="M327.249 198.164C326.781 193.923 337.506 183.129 341.127 190.054C347.308 201.867 342.806 212.083 336.418 216.213C333.554 218.017 329.92 221.403 327.373 218.209" fill="#FFBE9D"/>
<path d="M327.249 198.164C326.781 193.923 337.506 183.129 341.127 190.054C347.308 201.867 342.806 212.083 336.418 216.213C333.554 218.017 329.92 221.403 327.373 218.209" stroke="#F2AE8B" stroke-linecap="round" stroke-linejoin="round"/>
<g opacity="0.2">
<path d="M239.824 187.439C239.425 189.986 239.149 192.574 238.998 195.148" stroke="#DBDBDB" stroke-linecap="round" stroke-linejoin="round"/>
<path d="M298.819 138.302C271.917 137.6 246.914 154.74 240.994 181.656" stroke="#DBDBDB" stroke-linecap="round" stroke-linejoin="round"/>
<path d="M294.014 130.619C294.014 130.619 255.216 121.491 240.678 147.223" stroke="#DBDBDB" stroke-linecap="round" stroke-linejoin="round"/>
<path d="M325.487 175.447C327.826 178.777 330.642 181.746 333.844 184.258" stroke="#DBDBDB" stroke-linecap="round" stroke-linejoin="round"/>
<path d="M310.094 135.645C312.077 147.968 316.245 159.839 322.403 170.697" stroke="#DBDBDB" stroke-linecap="round" stroke-linejoin="round"/>
<path d="M349.071 252.339C348.382 255.423 347.57 258.48 346.661 261.509" stroke="#DBDBDB" stroke-linecap="round" stroke-linejoin="round"/>
<path d="M346.827 201.069C353.118 215.043 352.692 232.431 350.103 247.135" stroke="#DBDBDB" stroke-linecap="round" stroke-linejoin="round"/>
<path d="M342.214 225.355C342.521 230.647 341.705 235.945 339.818 240.9C337.932 245.854 335.018 250.353 331.269 254.102" stroke="#DBDBDB" stroke-linecap="round" stroke-linejoin="round"/>
<path d="M324.33 140.146C330.925 149.068 335.826 158.636 343.467 166.787C351.521 175.364 359.575 185.194 361.09 197.282" stroke="#DBDBDB" stroke-linecap="round" stroke-linejoin="round"/>
<path d="M315.023 130.867C316.912 132.106 318.65 133.561 320.2 135.204" stroke="#DBDBDB" stroke-linecap="round" stroke-linejoin="round"/>
</g>
<path d="M447.73 337.906C446.959 338.071 446.188 338.209 445.389 338.319C424.573 341.293 401.223 324.028 393.348 303.308C387.125 286.938 392.563 268.365 395.537 260.421C396.473 257.929 397.147 256.484 397.147 256.484C409.704 238.586 482.7 273.624 483.553 292.954C484.407 312.284 469.056 333.225 447.73 337.906Z" fill="#951638"/>
<path d="M470.57 295.57C470.57 295.57 466.44 326.3 445.389 338.319C424.573 341.293 401.223 324.028 393.348 303.308C387.125 286.938 392.563 268.365 395.537 260.421C420.139 246.364 470.57 295.57 470.57 295.57Z" fill="#F2AE8B"/>
<path d="M384.481 311.747C384.481 311.747 408.189 345.781 435.876 348.617C463.563 351.453 481.309 328.131 482.397 310.549" stroke="#DA2858" stroke-linecap="round" stroke-linejoin="round"/>
<path d="M371.154 158.169C373.233 152.345 388.185 154.3 392.935 172.473C397.684 190.647 416.34 234.827 416.34 234.827C416.34 234.827 490.685 125.498 503.957 121.285C517.229 117.072 512.011 136.016 494.21 162.299C494.21 162.299 510.882 159.366 515.26 162.299C519.639 165.231 517.505 182.95 519.831 189.091C523.741 199.458 515.054 201.647 515.054 201.647C519.316 201.742 523.414 203.303 526.66 206.066C531.437 210.541 529.042 229.031 530.405 234.263C531.768 239.494 522.654 243.9 522.654 243.9C522.654 243.9 544.558 255.837 539.615 258.838C531.272 263.877 526.522 258.714 526.522 258.714C526.522 258.714 492.86 300.981 467.473 310.398C442.085 319.815 392.673 282.394 387.359 262.018C382.044 241.642 388.391 242.895 384.357 208.985C380.323 175.075 371.154 158.169 371.154 158.169Z" fill="#FFBE9D" stroke="#F1A781" stroke-linecap="round" stroke-linejoin="round"/>
<path d="M479.544 90.9933L381.651 116.511C378.178 117.416 376.096 120.965 377.001 124.438L423.276 301.961C424.181 305.434 427.73 307.515 431.203 306.61L529.097 281.092C532.57 280.187 534.651 276.638 533.746 273.165L487.472 95.6424C486.566 92.1695 483.017 90.0881 479.544 90.9933Z" fill="#5B5863" stroke="#5B5863" stroke-linecap="round" stroke-linejoin="round"/>
<path d="M423.458 111.4C423.51 111.601 423.522 111.811 423.493 112.018C423.465 112.224 423.396 112.423 423.29 112.602C423.185 112.782 423.045 112.939 422.879 113.065C422.713 113.19 422.523 113.282 422.322 113.334C422.12 113.387 421.91 113.399 421.704 113.37C421.498 113.341 421.299 113.272 421.119 113.167C420.94 113.061 420.783 112.922 420.657 112.755C420.531 112.589 420.44 112.4 420.387 112.198C420.331 111.997 420.316 111.786 420.343 111.578C420.37 111.371 420.438 111.171 420.543 110.99C420.648 110.809 420.789 110.651 420.956 110.525C421.123 110.399 421.313 110.308 421.516 110.257C421.925 110.152 422.359 110.214 422.723 110.428C423.086 110.642 423.351 110.991 423.458 111.4Z" fill="white"/>
<path d="M443.627 106.14C443.66 106.267 443.668 106.399 443.65 106.528C443.632 106.658 443.588 106.783 443.521 106.895C443.455 107.008 443.367 107.106 443.262 107.185C443.157 107.263 443.038 107.32 442.911 107.352C442.721 107.4 442.522 107.391 442.337 107.325C442.153 107.26 441.992 107.142 441.874 106.985C441.757 106.828 441.689 106.64 441.678 106.445C441.668 106.249 441.715 106.055 441.815 105.887C441.914 105.718 442.061 105.583 442.238 105.498C442.414 105.413 442.612 105.382 442.805 105.409C442.999 105.436 443.181 105.52 443.327 105.651C443.473 105.781 443.578 105.951 443.627 106.14Z" fill="white"/>
<path d="M438.808 108.624L426.989 111.67C426.753 111.731 426.611 111.971 426.672 112.207L426.733 112.448C426.794 112.684 427.035 112.826 427.271 112.765L439.09 109.719C439.326 109.658 439.468 109.417 439.407 109.181L439.345 108.941C439.284 108.705 439.044 108.563 438.808 108.624Z" fill="white"/>
<path d="M484.531 97.4806L530.419 273.542C530.674 274.529 530.528 275.578 530.012 276.458C529.496 277.338 528.652 277.978 527.665 278.237L431.03 303.418C430.042 303.673 428.993 303.527 428.113 303.011C427.233 302.495 426.594 301.651 426.335 300.664L380.447 124.603C380.192 123.615 380.338 122.567 380.854 121.687C381.37 120.807 382.214 120.167 383.201 119.908L403.04 114.732C403.676 114.564 404.349 114.596 404.967 114.823C405.584 115.049 406.118 115.459 406.496 115.998L407.941 118.05C408.319 118.588 408.853 118.998 409.47 119.225C410.088 119.451 410.761 119.483 411.397 119.316L454.944 107.972C455.574 107.807 456.14 107.456 456.567 106.965C456.995 106.474 457.264 105.865 457.34 105.218L457.601 102.726C457.673 102.078 457.941 101.467 458.369 100.975C458.797 100.484 459.365 100.134 459.997 99.9726L479.836 94.7959C480.814 94.5378 481.855 94.6746 482.733 95.1769C483.612 95.6791 484.257 96.5065 484.531 97.4806Z" fill="#FD3E72"/>
<path d="M475.857 193.778C481.399 181.015 475.545 166.177 462.782 160.635C450.019 155.094 435.181 160.948 429.639 173.711C424.098 186.473 429.952 201.312 442.715 206.853C455.477 212.395 470.316 206.541 475.857 193.778Z" fill="white"/>
<path opacity="0.8" d="M423.906 174.718C422.249 180.004 422.024 185.809 423.564 191.556C425.104 197.303 428.201 202.218 432.279 205.967M473.234 161.501C477.312 165.25 480.409 170.165 481.949 175.912C483.489 181.659 483.264 187.463 481.607 192.75" stroke="white" stroke-width="3" stroke-linecap="round" stroke-linejoin="round"/>
<path opacity="0.6" d="M418.175 167.685C414.544 175.501 413.532 184.587 415.937 193.562C418.342 202.538 423.761 209.901 430.813 214.854M474.611 152.563C481.664 157.516 487.083 164.879 489.488 173.855C491.893 182.83 490.881 191.916 487.25 199.732" stroke="white" stroke-width="4" stroke-linecap="round" stroke-linejoin="round"/>
<path opacity="0.4" d="M410.566 160.727C404.87 171.17 403.021 183.735 406.343 196.133C409.665 208.531 417.548 218.488 427.704 224.684M477.721 142.732C487.876 148.928 495.759 158.886 499.081 171.284C502.403 183.681 500.555 196.247 494.859 206.69" stroke="white" stroke-width="5" stroke-linecap="round" stroke-linejoin="round"/>
<path d="M442.342 198.213C442.557 198.72 442.952 199.129 443.451 199.361C443.95 199.593 444.518 199.632 445.044 199.471L453.328 197.083C453.347 197.262 453.381 197.438 453.43 197.61C453.556 198.043 453.765 198.447 454.047 198.799C454.329 199.151 454.677 199.444 455.072 199.661C455.467 199.879 455.9 200.016 456.348 200.066C456.797 200.115 457.25 200.076 457.683 199.951C458.116 199.825 458.52 199.616 458.872 199.334C459.224 199.053 459.517 198.704 459.734 198.309C459.951 197.915 460.089 197.481 460.139 197.033C460.188 196.585 460.149 196.131 460.024 195.698C459.971 195.526 459.906 195.359 459.828 195.197L468.104 192.809C468.645 192.665 469.111 192.323 469.412 191.851C469.712 191.379 469.825 190.811 469.727 190.26C469.675 189.961 469.56 189.675 469.39 189.423C469.22 189.171 468.998 188.958 468.74 188.798C468.482 188.637 468.192 188.533 467.891 188.492C467.59 188.452 467.283 188.475 466.991 188.561L466.294 188.136C464.784 187.233 463.673 185.79 463.185 184.1L461.613 178.653C460.966 176.41 459.528 174.478 457.566 173.212C455.604 171.947 453.251 171.435 450.941 171.771C451.337 171.353 451.585 170.815 451.646 170.242C451.707 169.669 451.577 169.091 451.277 168.599C450.977 168.106 450.524 167.726 449.986 167.518C449.449 167.309 448.858 167.283 448.304 167.443C447.75 167.604 447.265 167.942 446.922 168.406C446.58 168.87 446.4 169.434 446.41 170.01C446.42 170.587 446.619 171.144 446.978 171.596C447.336 172.048 447.833 172.369 448.392 172.51C446.237 173.451 444.499 175.146 443.504 177.276C442.509 179.407 442.326 181.827 442.988 184.083L444.576 189.589C444.859 190.551 444.929 191.563 444.783 192.554C444.636 193.546 444.276 194.494 443.727 195.333C443.439 195.42 443.172 195.566 442.944 195.761C442.716 195.956 442.53 196.197 442.4 196.468C442.27 196.739 442.197 197.034 442.187 197.335C442.177 197.635 442.23 197.934 442.342 198.213ZM450.507 169.613C450.591 169.903 450.587 170.212 450.495 170.5C450.404 170.789 450.228 171.043 449.992 171.232C449.756 171.421 449.469 171.535 449.167 171.561C448.866 171.586 448.564 171.522 448.299 171.376C448.034 171.23 447.819 171.009 447.68 170.74C447.541 170.472 447.484 170.168 447.518 169.867C447.551 169.567 447.673 169.283 447.868 169.051C448.063 168.82 448.322 168.652 448.612 168.568C448.805 168.511 449.008 168.492 449.208 168.514C449.408 168.536 449.602 168.597 449.778 168.694C449.954 168.792 450.11 168.923 450.235 169.081C450.36 169.238 450.453 169.419 450.507 169.613Z" fill="#FD3E72"/>
<path d="M500.989 251.123L445.918 265.469C444.343 265.884 442.702 265.984 441.088 265.765C439.475 265.545 437.92 265.01 436.514 264.189C435.107 263.368 433.876 262.278 432.891 260.981C431.906 259.684 431.187 258.205 430.774 256.63C430.359 255.054 430.259 253.412 430.479 251.798C430.7 250.183 431.236 248.628 432.059 247.221C432.881 245.815 433.973 244.584 435.271 243.6C436.57 242.615 438.05 241.897 439.626 241.485L494.697 227.139C497.868 226.322 501.234 226.792 504.058 228.449C506.883 230.105 508.938 232.812 509.773 235.978C510.613 239.151 510.16 242.528 508.513 245.367C506.866 248.207 504.16 250.277 500.989 251.123Z" fill="#5B5863"/>
<path d="M455.142 256.961L457.494 256.34L450.263 246.086L448.091 246.66L446.882 259.143L449.234 258.521L449.407 256.043L453.768 254.891L455.142 256.961ZM449.548 253.949L449.885 249.087L449.901 249.082L452.603 253.142L449.548 253.949Z" fill="white"/>
<path d="M459.01 255.939L466.317 254.009L465.786 252.001L460.73 253.336L458.258 243.974L456.007 244.569L459.01 255.939Z" fill="white"/>
<path d="M468.067 253.547L475.671 251.539L475.141 249.53L469.756 250.952L469.061 248.319L473.109 247.25L472.584 245.265L468.536 246.334L467.816 243.607L472.864 242.273L472.332 240.257L465.064 242.177L468.067 253.547Z" fill="white"/>
<path d="M486.408 248.703L482.513 245.317L482.505 245.286C482.948 245.002 483.3 244.658 483.564 244.262C483.829 243.875 483.994 243.422 484.059 242.911C484.125 242.4 484.086 241.842 483.93 241.248C483.783 240.693 483.563 240.208 483.287 239.796C483.011 239.384 482.663 239.05 482.26 238.788C481.857 238.527 481.372 238.371 480.807 238.319C480.242 238.268 479.631 238.329 478.966 238.505L474.668 239.64L477.672 251.01L479.891 250.424L478.863 246.532L480.168 246.188L483.744 249.406L486.408 248.703ZM477.416 241.054L479.089 240.613C479.729 240.443 480.271 240.467 480.713 240.685C481.155 240.903 481.448 241.285 481.588 241.816C481.731 242.356 481.657 242.835 481.372 243.245C481.08 243.656 480.597 243.951 479.917 244.13L478.339 244.547L477.416 241.054Z" fill="white"/>
<path d="M490.199 247.702L492.441 247.109L489.971 237.755L493.12 236.923L492.588 234.907L484.062 237.159L484.594 239.175L487.728 238.347L490.199 247.702Z" fill="white"/>
<path d="M362.756 400.053C362.756 400.053 346.042 361.16 354.495 313.991" stroke="#DA2858" stroke-linecap="round" stroke-linejoin="round"/>
<path d="M342.751 282.587C342.751 282.587 311.636 313.427 290.82 321.646" stroke="#DA2858" stroke-linecap="round" stroke-linejoin="round"/>
<path d="M240.802 274.299C240.802 274.299 235.129 315.932 256.29 323.794" stroke="#DA2858" stroke-linecap="round" stroke-linejoin="round"/>
<path d="M180.912 358.364C180.912 358.364 180.747 303.789 191.582 286.91" stroke="#DA2858" stroke-linecap="round" stroke-linejoin="round"/>
<path opacity="0.2" d="M481.447 350.792C483.801 348.865 485.357 347.584 485.866 347.185C485.343 347.64 483.829 348.961 481.447 350.792Z" fill="black"/>
</svg>
