<svg width="325" height="222" viewBox="0 0 325 222" fill="none" xmlns="http://www.w3.org/2000/svg">
<path d="M0.379761 11.4177C0.379761 5.32163 5.32163 0.379761 11.4177 0.379761H313.582C319.678 0.379761 324.62 5.32163 324.62 11.4177V210.101C324.62 216.197 319.678 221.139 313.582 221.139H11.4177C5.32163 221.139 0.379761 216.197 0.379761 210.101V11.4177Z" fill="white"/>
<path d="M0.379761 11.4177C0.379761 5.32163 5.32163 0.379761 11.4177 0.379761H313.582C319.678 0.379761 324.62 5.32163 324.62 11.4177V142.494H0.379761V11.4177Z" fill="#F6F6F6"/>
<path d="M27.1565 75.1124L24.9966 80.9508H24.9683L22.6575 75.1124H20.0166L23.7893 83.9595L22.1105 88.3642H24.6948L29.7786 75.1124H27.1565Z" fill="#5B5863"/>
<path d="M35.3622 84.7046C36.3243 84.7046 37.192 84.5066 37.956 84.101C38.7105 83.6954 39.3047 83.1201 39.7386 82.375C40.163 81.6393 40.38 80.7904 40.38 79.8378C40.38 79.121 40.2479 78.4607 40.0027 77.8571C39.7575 77.2535 39.4085 76.7347 38.9746 76.3103C38.5313 75.8858 38.0032 75.5557 37.3806 75.3105C36.7581 75.0747 36.0791 74.9521 35.3622 74.9521C34.6265 74.9521 33.938 75.0747 33.3155 75.3199C32.6836 75.5652 32.1554 75.9047 31.7215 76.3386C31.2877 76.7724 30.9481 77.2818 30.7029 77.8854C30.4577 78.489 30.3445 79.1398 30.3445 79.8378C30.3445 80.4037 30.4199 80.9319 30.5708 81.4223C30.7218 81.9222 30.9481 82.375 31.2499 82.7711C31.5423 83.1672 31.8913 83.5162 32.2969 83.7992C32.7024 84.0916 33.1646 84.3179 33.6928 84.4688C34.2115 84.6292 34.768 84.7046 35.3622 84.7046ZM35.3622 82.441C34.6454 82.441 34.0512 82.1958 33.589 81.6959C33.1269 81.196 32.9005 80.5735 32.9005 79.8378C32.9005 79.0832 33.1269 78.4607 33.5796 77.9703C34.0323 77.4798 34.6265 77.2252 35.3622 77.2252C36.0602 77.2252 36.645 77.4704 37.1166 77.9609C37.5787 78.4513 37.8145 79.0738 37.8145 79.8378C37.8145 80.5923 37.5787 81.2148 37.1071 81.7053C36.6355 82.1958 36.0508 82.441 35.3622 82.441Z" fill="#5B5863"/>
<path d="M48.5668 75.1124V79.6869C48.5668 80.564 48.3593 81.2431 47.9632 81.7147C47.5576 82.1958 47.0577 82.4316 46.473 82.4316C45.8693 82.4316 45.4355 82.2618 45.1714 81.9222C44.9073 81.5827 44.7847 80.9791 44.7847 80.1302V75.1124H42.2569V80.7904C42.2569 81.4978 42.3324 82.1014 42.5022 82.6108C42.6719 83.1201 42.9077 83.5257 43.2284 83.8275C43.5491 84.1293 43.9075 84.3557 44.3225 84.4971C44.7281 84.6386 45.1997 84.7046 45.7278 84.7046C46.2655 84.7046 46.7748 84.6009 47.2558 84.3745C47.7368 84.1482 48.1613 83.8275 48.5291 83.3936H48.5668V84.5443H51.0946V75.1124H48.5668Z" fill="#5B5863"/>
<path d="M58.9796 74.9521C58.4137 74.9521 57.895 75.0936 57.4045 75.3577C56.914 75.6218 56.4896 76.0085 56.1312 76.4989H56.1029V75.1124H53.5752V84.5443H56.1029V80.1679C56.1029 79.4511 56.3104 78.8569 56.7348 78.3947C57.1593 77.942 57.7535 77.7062 58.508 77.7062C58.6967 77.7062 58.923 77.7156 59.1777 77.7345V74.9615C59.14 74.9615 59.0739 74.9521 58.9796 74.9521Z" fill="#5B5863"/>
<path d="M72.4106 75.5369H69.9394L69.8168 76.631H69.7791C69.2603 75.8104 68.5152 75.3954 67.5532 75.3954C67.1759 75.3954 66.8269 75.452 66.4968 75.5652C66.1667 75.6783 65.8837 75.8198 65.6385 76.0085C65.3933 76.1971 65.1764 76.414 64.9783 76.6593C64.7802 76.9139 64.6199 77.178 64.4878 77.4515C64.3558 77.7345 64.2426 78.0174 64.1483 78.3098C64.054 78.6022 63.9974 78.8852 63.9596 79.1493C63.9219 79.4134 63.9031 79.668 63.9031 79.9038C63.9031 81.0073 64.1954 81.8939 64.7802 82.5636C65.365 83.2427 66.129 83.5728 67.091 83.5728C67.374 83.5728 67.6758 83.5162 67.9965 83.403C68.3172 83.2899 68.6096 83.1389 68.8736 82.9409C69.1377 82.7522 69.3547 82.5353 69.515 82.2995H69.5527C69.6471 82.6674 69.798 82.9409 70.0149 83.1201C70.4299 83.5539 71.0052 83.7709 71.7598 83.7709C72.2314 83.7709 72.6747 83.7143 73.0897 83.5917C73.4953 83.4785 73.8442 83.3182 74.1366 83.1201C74.4196 82.922 74.6837 82.6862 74.91 82.4127C75.1364 82.1392 75.325 81.8562 75.4665 81.5638C75.608 81.2714 75.7212 80.9602 75.8155 80.6301C75.9098 80.3094 75.9758 79.9981 76.0136 79.7152C76.0513 79.4322 76.0702 79.1587 76.0702 78.8852C76.0702 77.8854 75.9004 76.9422 75.5608 76.0745C75.2213 75.2068 74.7497 74.4616 74.1461 73.8203C73.533 73.1883 72.769 72.6884 71.8635 72.33C70.9487 71.9716 69.9489 71.783 68.8548 71.783C67.987 71.783 67.1665 71.8773 66.4119 72.0659C65.6574 72.2546 64.9971 72.5092 64.4312 72.8299C63.8653 73.1506 63.3466 73.5373 62.8844 73.9712C62.4222 74.405 62.0355 74.8672 61.7337 75.3577C61.4319 75.8481 61.1678 76.3574 60.9603 76.8856C60.7528 77.4232 60.6019 77.942 60.5076 78.4513C60.4133 78.9606 60.3755 79.4511 60.3755 79.9227C60.3755 80.9885 60.5547 81.9883 60.9226 82.9126C61.2904 83.8463 61.7903 84.6386 62.4317 85.2894C63.073 85.9496 63.837 86.459 64.7236 86.8362C65.6102 87.2135 66.5534 87.4021 67.572 87.4021C69.2886 87.4021 70.8638 86.9211 72.2974 85.9591L71.5146 84.648C70.1752 85.3083 68.8642 85.6384 67.572 85.6384C66.8741 85.6384 66.195 85.4969 65.5442 85.1951C64.884 84.8933 64.3181 84.4971 63.837 83.9878C63.3466 83.4785 62.9599 82.8749 62.6675 82.1675C62.3751 81.4601 62.2336 80.715 62.2336 79.9415C62.2336 79.536 62.2713 79.121 62.3468 78.706C62.4222 78.291 62.5449 77.876 62.7146 77.4515C62.8844 77.0271 63.0919 76.6215 63.3371 76.2443C63.5824 75.867 63.8842 75.5086 64.252 75.169C64.6104 74.8295 65.016 74.5465 65.4593 74.3013C65.8932 74.0561 66.4025 73.8674 66.9873 73.7259C67.572 73.5845 68.1945 73.509 68.8548 73.509C69.6471 73.509 70.3827 73.6599 71.0618 73.9429C71.7409 74.2353 72.3068 74.622 72.7596 75.1124C73.2123 75.6029 73.5613 76.1782 73.8159 76.829C74.0612 77.4893 74.1932 78.1778 74.1932 78.8946C74.1932 79.187 74.1555 79.4982 74.08 79.8378C74.0046 80.1773 73.8914 80.498 73.7593 80.7998C73.6273 81.1111 73.4481 81.3658 73.2312 81.5733C73.0142 81.7808 72.7784 81.8751 72.5332 81.8751C72.2974 81.8751 72.1276 81.8091 72.0239 81.677C71.9107 81.545 71.8635 81.3186 71.8635 80.9885C71.8635 80.913 71.8635 80.7527 71.8824 80.5263L72.4106 75.5369ZM67.8456 81.3941C67.4306 81.3941 67.0816 81.2431 66.7986 80.9225C66.5157 80.6112 66.3836 80.2056 66.3836 79.6963C66.3836 79.1115 66.5628 78.6117 66.9401 78.1967C67.308 77.7816 67.7607 77.5741 68.2983 77.5741C68.7039 77.5741 69.0434 77.7345 69.3169 78.0457C69.5905 78.357 69.7319 78.7531 69.7319 79.2436C69.7319 79.6209 69.6471 79.9793 69.4867 80.3094C69.3169 80.6395 69.0906 80.9036 68.8076 81.1017C68.5152 81.2997 68.1945 81.3941 67.8456 81.3941Z" fill="#5B5863"/>
<path d="M86.964 79.7435C86.964 78.8286 86.7659 78.008 86.3886 77.2818C86.0019 76.5555 85.4549 75.9896 84.7569 75.5746C84.0495 75.1596 83.2384 74.9521 82.3329 74.9521C81.6727 74.9521 81.0502 75.0747 80.4748 75.3105C79.8901 75.5557 79.3996 75.8858 78.9846 76.3103C78.5696 76.7347 78.2489 77.2535 78.0131 77.8571C77.7679 78.4607 77.6547 79.121 77.6547 79.8189C77.6547 80.781 77.8622 81.6393 78.2866 82.3844C78.7111 83.1389 79.2959 83.7143 80.0315 84.1104C80.7672 84.5066 81.5878 84.7046 82.5121 84.7046C83.4176 84.7046 84.2099 84.5443 84.9078 84.2236C85.5963 83.9029 86.1528 83.4691 86.5867 82.922L84.9455 81.3941C84.3513 82.1109 83.5968 82.4693 82.6913 82.4599C82.0877 82.4599 81.5689 82.2901 81.1445 81.9694C80.7201 81.6487 80.4371 81.2148 80.2862 80.6489H86.8979C86.9357 80.498 86.964 80.1962 86.964 79.7435ZM82.4178 77.178C82.946 77.178 83.3893 77.3289 83.7383 77.6213C84.0778 77.9137 84.323 78.3193 84.4551 78.8286H80.2956C80.4371 78.3004 80.6918 77.8854 81.069 77.6024C81.4463 77.3195 81.8896 77.178 82.4178 77.178Z" fill="#5B5863"/>
<path d="M100.461 74.9521C99.7819 74.9521 99.1594 75.0841 98.5935 75.3482C98.0275 75.6123 97.5559 75.9802 97.1787 76.4706H97.1504C96.5939 75.4614 95.6601 74.9521 94.3491 74.9521C93.8209 74.9521 93.3116 75.0747 92.8212 75.3199C92.3307 75.5652 91.8968 75.9047 91.529 76.3574H91.5007V75.1124H88.9729V84.5443H91.5007V79.8284C91.5007 79.2813 91.5856 78.8097 91.7648 78.4136C91.9346 78.0174 92.1703 77.7156 92.4722 77.5176C92.7646 77.3289 93.1041 77.2252 93.4908 77.2252C94.6038 77.2252 95.1602 78.0457 95.1602 79.6775V84.5537H97.688V79.8284C97.688 79.2813 97.7729 78.8097 97.9426 78.4136C98.1124 78.0174 98.3482 77.7156 98.6406 77.5176C98.9236 77.3289 99.2537 77.2252 99.6121 77.2252C100.706 77.2252 101.263 78.0457 101.263 79.6775V84.5537H103.79V79.0644C103.79 77.6685 103.498 76.6404 102.913 75.9613C102.328 75.2916 101.517 74.9521 100.461 74.9521Z" fill="#5B5863"/>
<path d="M112.949 75.1124V76.1782H112.911C112.204 75.3671 111.279 74.9521 110.129 74.9521C109.506 74.9521 108.912 75.0747 108.365 75.3199C107.818 75.5652 107.346 75.9047 106.95 76.3291C106.554 76.763 106.252 77.2818 106.026 77.8854C105.799 78.4985 105.686 79.1587 105.686 79.8567C105.686 80.5735 105.799 81.2431 106.026 81.8468C106.252 82.4504 106.563 82.9692 106.96 83.3842C107.356 83.7992 107.837 84.1293 108.393 84.3557C108.95 84.5915 109.553 84.7046 110.204 84.7046C111.411 84.7046 112.345 84.2708 113.024 83.403H113.071V84.5443H115.476V75.1124H112.949ZM110.666 82.441C109.949 82.441 109.374 82.2052 108.921 81.7242C108.469 81.2526 108.252 80.6301 108.252 79.8661C108.252 79.0738 108.478 78.4419 108.94 77.9514C109.402 77.4704 109.978 77.2252 110.676 77.2252C111.355 77.2252 111.921 77.4798 112.373 77.9797C112.826 78.489 113.052 79.1115 113.052 79.8661C113.052 80.6301 112.817 81.2526 112.364 81.7242C111.902 82.2052 111.336 82.441 110.666 82.441Z" fill="#5B5863"/>
<path d="M119.334 73.7825C119.759 73.7825 120.126 73.6316 120.438 73.3298C120.739 73.028 120.9 72.6696 120.9 72.2357C120.9 71.8207 120.739 71.4529 120.438 71.151C120.126 70.8492 119.759 70.6983 119.334 70.6983C118.9 70.6983 118.523 70.8492 118.221 71.151C117.919 71.4529 117.768 71.8207 117.768 72.2357C117.768 72.5187 117.834 72.7828 117.976 73.0186C118.108 73.2544 118.297 73.443 118.542 73.575C118.787 73.7165 119.051 73.7825 119.334 73.7825ZM118.07 84.5443H120.598V75.1124H118.07V84.5443Z" fill="#5B5863"/>
<path d="M123.39 84.5443H125.918V70.321H123.39V84.5443Z" fill="#5B5863"/>
<path d="M129.7 84.7046C130.124 84.7046 130.492 84.5537 130.794 84.2519C131.096 83.9501 131.256 83.5917 131.256 83.1672C131.256 82.7522 131.096 82.3844 130.794 82.0826C130.492 81.7808 130.124 81.6204 129.7 81.6204C129.256 81.6204 128.879 81.7713 128.577 82.0731C128.276 82.375 128.125 82.7428 128.125 83.1672C128.125 83.6011 128.276 83.9595 128.577 84.2613C128.879 84.5632 129.256 84.7046 129.7 84.7046Z" fill="#5B5863"/>
<path d="M137.604 84.7046C138.509 84.7046 139.32 84.5537 140.037 84.233C140.754 83.9218 141.339 83.5162 141.773 83.0069L140.037 81.4789C139.792 81.7619 139.481 81.9883 139.103 82.1675C138.726 82.3467 138.311 82.4316 137.849 82.4316C137.094 82.4316 136.491 82.1958 136.019 81.7053C135.547 81.2243 135.321 80.5923 135.321 79.8189C135.321 79.4417 135.378 79.0927 135.5 78.772C135.614 78.4513 135.783 78.1778 136 77.9514C136.217 77.7251 136.481 77.5553 136.802 77.4232C137.113 77.2912 137.453 77.2252 137.83 77.2252C138.717 77.2252 139.443 77.5647 140.028 78.2344L141.735 76.763C141.263 76.1782 140.678 75.7349 139.962 75.4237C139.245 75.1124 138.5 74.9521 137.726 74.9521C136.764 74.9521 135.906 75.1596 135.151 75.5652C134.397 75.9802 133.803 76.5555 133.388 77.2912C132.963 78.0363 132.756 78.8852 132.756 79.8378C132.756 80.7904 132.963 81.6393 133.378 82.375C133.793 83.1201 134.378 83.6954 135.114 84.101C135.849 84.5066 136.679 84.7046 137.604 84.7046Z" fill="#5B5863"/>
<path d="M148.035 84.7046C148.997 84.7046 149.865 84.5066 150.629 84.101C151.384 83.6954 151.978 83.1201 152.412 82.375C152.836 81.6393 153.053 80.7904 153.053 79.8378C153.053 79.121 152.921 78.4607 152.676 77.8571C152.431 77.2535 152.082 76.7347 151.648 76.3103C151.204 75.8858 150.676 75.5557 150.054 75.3105C149.431 75.0747 148.752 74.9521 148.035 74.9521C147.3 74.9521 146.611 75.0747 145.989 75.3199C145.357 75.5652 144.828 75.9047 144.395 76.3386C143.961 76.7724 143.621 77.2818 143.376 77.8854C143.131 78.489 143.018 79.1398 143.018 79.8378C143.018 80.4037 143.093 80.9319 143.244 81.4223C143.395 81.9222 143.621 82.375 143.923 82.7711C144.215 83.1672 144.564 83.5162 144.97 83.7992C145.375 84.0916 145.838 84.3179 146.366 84.4688C146.885 84.6292 147.441 84.7046 148.035 84.7046ZM148.035 82.441C147.318 82.441 146.724 82.1958 146.262 81.6959C145.8 81.196 145.574 80.5735 145.574 79.8378C145.574 79.0832 145.8 78.4607 146.253 77.9703C146.705 77.4798 147.3 77.2252 148.035 77.2252C148.733 77.2252 149.318 77.4704 149.79 77.9609C150.252 78.4513 150.488 79.0738 150.488 79.8378C150.488 80.5923 150.252 81.2148 149.78 81.7053C149.309 82.1958 148.724 82.441 148.035 82.441Z" fill="#5B5863"/>
<path d="M166.578 74.9521C165.899 74.9521 165.277 75.0841 164.711 75.3482C164.145 75.6123 163.673 75.9802 163.296 76.4706H163.268C162.711 75.4614 161.778 74.9521 160.466 74.9521C159.938 74.9521 159.429 75.0747 158.939 75.3199C158.448 75.5652 158.014 75.9047 157.646 76.3574H157.618V75.1124H155.09V84.5443H157.618V79.8284C157.618 79.2813 157.703 78.8097 157.882 78.4136C158.052 78.0174 158.288 77.7156 158.59 77.5176C158.882 77.3289 159.221 77.2252 159.608 77.2252C160.721 77.2252 161.278 78.0457 161.278 79.6775V84.5537H163.805V79.8284C163.805 79.2813 163.89 78.8097 164.06 78.4136C164.23 78.0174 164.466 77.7156 164.758 77.5176C165.041 77.3289 165.371 77.2252 165.729 77.2252C166.824 77.2252 167.38 78.0457 167.38 79.6775V84.5537H169.908V79.0644C169.908 77.6685 169.615 76.6404 169.031 75.9613C168.446 75.2916 167.635 74.9521 166.578 74.9521Z" fill="#5B5863"/>
<path d="M15.5566 19.6962C15.5566 17.4102 17.4098 15.557 19.6959 15.557H305.304C307.59 15.557 309.443 17.4102 309.443 19.6962V45.9114C309.443 48.1975 307.59 50.0507 305.304 50.0507H19.6959C17.4098 50.0507 15.5566 48.1975 15.5566 45.9114V19.6962Z" fill="#49A8FF"/>
<path d="M132.153 39.1501C132.549 39.1501 132.938 39.1097 133.326 39.0288C133.706 38.948 134.077 38.8105 134.441 38.6165C134.805 38.4225 135.128 38.1961 135.403 37.9212C135.678 37.6464 135.896 37.3068 136.066 36.8945C136.228 36.4822 136.317 36.0295 136.317 35.5282C136.317 35.0432 136.236 34.6228 136.09 34.2509C135.848 33.6688 135.355 33.1757 134.627 32.7714C134.304 32.6017 133.657 32.3268 132.679 31.9387C132.372 31.8256 132.121 31.7285 131.943 31.6477C131.765 31.5669 131.579 31.4779 131.401 31.3809C131.224 31.2839 131.086 31.1869 130.997 31.0899C130.9 30.9929 130.827 30.8878 130.779 30.7665C130.722 30.6533 130.698 30.5159 130.698 30.3704C130.698 30.0066 130.836 29.7155 131.094 29.5053C131.353 29.2951 131.693 29.19 132.113 29.19C132.873 29.19 133.73 29.5781 134.676 30.3461L136.018 28.5918C134.797 27.5893 133.479 27.0962 132.056 27.1123C131.361 27.1285 130.722 27.2821 130.148 27.5731C129.566 27.8642 129.114 28.2684 128.782 28.7777C128.443 29.2951 128.281 29.861 128.281 30.4755C128.281 30.7827 128.313 31.0737 128.386 31.3486C128.459 31.6234 128.556 31.8579 128.669 32.0681C128.782 32.2783 128.936 32.4723 129.122 32.6583C129.308 32.8442 129.494 33.0059 129.688 33.1352C129.874 33.2646 130.1 33.402 130.359 33.5314C130.617 33.6607 130.852 33.7739 131.078 33.8548C131.296 33.9437 131.547 34.0407 131.838 34.1377C132.153 34.2509 132.412 34.3398 132.606 34.4207C132.8 34.5015 132.986 34.5904 133.164 34.6875C133.342 34.7845 133.479 34.8896 133.576 34.9866C133.673 35.0917 133.746 35.2129 133.803 35.3423C133.851 35.4797 133.883 35.6333 133.883 35.8031C133.883 36.0537 133.819 36.272 133.697 36.4499C133.568 36.6358 133.382 36.7813 133.123 36.8864C132.865 36.9996 132.558 37.0481 132.194 37.0481C131.951 37.0481 131.709 37.0239 131.466 36.9592C131.216 36.9026 130.965 36.8137 130.714 36.6924C130.464 36.5792 130.213 36.4256 129.962 36.2316C129.712 36.0456 129.477 35.8274 129.267 35.5767L127.869 37.2987C128.467 37.9212 129.138 38.3821 129.874 38.6893C130.609 38.9965 131.369 39.1501 132.153 39.1501Z" fill="white"/>
<path d="M143.803 39.1339C144.789 39.1339 145.679 38.9318 146.479 38.5276C147.271 38.1234 147.942 37.5817 148.484 36.9026L146.778 35.4393C146.414 35.892 145.978 36.2558 145.46 36.5226C144.943 36.7975 144.385 36.9269 143.803 36.9269C143.108 36.9269 142.493 36.7732 141.952 36.4499C141.41 36.1265 140.99 35.6818 140.691 35.1078C140.391 34.5419 140.246 33.8952 140.246 33.1676C140.246 32.8361 140.27 32.5208 140.335 32.2136C140.391 31.9145 140.48 31.6396 140.593 31.3809C140.707 31.1222 140.836 30.8878 140.998 30.6695C141.159 30.4593 141.337 30.2653 141.539 30.1036C141.741 29.9419 141.96 29.7964 142.202 29.6832C142.437 29.57 142.687 29.4811 142.962 29.4164C143.229 29.3598 143.512 29.3275 143.803 29.3275C144.385 29.3275 144.935 29.473 145.452 29.7479C145.97 30.0227 146.406 30.3865 146.778 30.8231L148.484 29.3679C148.064 28.8586 147.587 28.4301 147.053 28.0825C146.519 27.7429 145.978 27.4923 145.444 27.3387C144.903 27.1932 144.353 27.1123 143.803 27.1123C143.043 27.1123 142.348 27.2174 141.701 27.4195C141.054 27.6297 140.496 27.9127 140.028 28.2846C139.559 28.6565 139.154 29.0849 138.815 29.5862C138.475 30.0874 138.225 30.6452 138.063 31.2516C137.893 31.8579 137.812 32.4966 137.812 33.1676C137.812 33.9275 137.918 34.6309 138.128 35.2776C138.338 35.9244 138.621 36.4822 138.993 36.9511C139.365 37.42 139.801 37.8161 140.302 38.1476C140.804 38.4872 141.345 38.7297 141.944 38.8914C142.534 39.0531 143.156 39.1339 143.803 39.1339Z" fill="white"/>
<path d="M157.862 39.0126H160.295L155.922 27.2498H153.674L149.317 39.0126H151.75L152.55 36.6601H157.062L157.862 39.0126ZM153.221 34.6713L154.79 30.0551H154.806L156.382 34.6713H153.221Z" fill="white"/>
<path d="M169.447 27.2498V35.1968H169.415L164.184 27.2498H161.864V39.0126H164.184V31.2192H164.216L169.39 39.0126H171.775V27.2498H169.447Z" fill="white"/>
<path d="M181.945 27.2498V35.1968H181.913L176.682 27.2498H174.362V39.0126H176.682V31.2192H176.715L181.889 39.0126H184.274V27.2498H181.945Z" fill="white"/>
<path d="M186.934 39.0126H189.278V27.2498H186.934V39.0126Z" fill="white"/>
<path d="M199.521 27.2498V35.1968H199.489L194.258 27.2498H191.938V39.0126H194.258V31.2192H194.29L199.464 39.0126H201.849V27.2498H199.521Z" fill="white"/>
<path d="M209.958 39.1258C210.847 39.1258 211.704 38.9965 212.529 38.7297C213.354 38.471 214.041 38.1153 214.591 37.6706V32.6017H209.699V34.5985H212.343V36.3286C211.624 36.7813 210.831 36.9996 209.958 36.9996C209.239 36.9996 208.608 36.8298 208.058 36.4903C207.509 36.1507 207.096 35.6899 206.813 35.1078C206.522 34.5258 206.385 33.879 206.385 33.1514C206.385 32.5693 206.474 32.0277 206.652 31.5426C206.829 31.0575 207.08 30.6452 207.395 30.3219C207.711 29.9985 208.083 29.7479 208.503 29.57C208.923 29.3921 209.376 29.3032 209.861 29.3032C211.033 29.3032 212.044 29.7155 212.885 30.524L214.534 29.1254C213.944 28.4705 213.232 27.9693 212.408 27.6297C211.575 27.2902 210.726 27.1123 209.861 27.1123C208.956 27.1123 208.139 27.2659 207.395 27.5731C206.652 27.8803 206.029 28.3088 205.528 28.8424C205.027 29.3841 204.647 30.0227 204.372 30.7584C204.097 31.5022 203.959 32.2945 203.959 33.1514C203.959 34.073 204.113 34.9138 204.42 35.6738C204.727 36.4337 205.148 37.0562 205.69 37.5574C206.223 38.0587 206.862 38.4467 207.589 38.7216C208.317 38.9965 209.109 39.1258 209.958 39.1258Z" fill="white"/>
<path d="M117.658 33.4937C117.658 35.7798 115.805 37.633 113.519 37.633C111.233 37.633 109.379 35.7798 109.379 33.4937C109.379 31.2077 111.233 29.3545 113.519 29.3545C115.805 29.3545 117.658 31.2077 117.658 33.4937Z" fill="white"/>
<path d="M154.911 161.81C154.911 158 158 154.911 161.81 154.911H298.405C302.215 154.911 305.304 158 305.304 161.81V200.443C305.304 204.253 302.215 207.342 298.405 207.342H161.81C158 207.342 154.911 204.253 154.911 200.443V161.81Z" fill="white"/>
<path fill-rule="evenodd" clip-rule="evenodd" d="M298.405 156.291H161.81C158.762 156.291 156.291 158.762 156.291 161.81V200.443C156.291 203.491 158.762 205.962 161.81 205.962H298.405C301.453 205.962 303.924 203.491 303.924 200.443V161.81C303.924 158.762 301.453 156.291 298.405 156.291ZM161.81 154.911C158 154.911 154.911 158 154.911 161.81V200.443C154.911 204.253 158 207.342 161.81 207.342H298.405C302.215 207.342 305.304 204.253 305.304 200.443V161.81C305.304 158 302.215 154.911 298.405 154.911H161.81Z" fill="#FD3E72"/>
<path d="M219.457 188.025L215.949 182.923V182.885C216.901 182.621 217.637 182.149 218.165 181.451C218.693 180.754 218.957 179.857 218.957 178.754C218.957 178.245 218.891 177.764 218.778 177.311C218.665 176.868 218.486 176.462 218.241 176.085C217.995 175.717 217.684 175.396 217.326 175.132C216.958 174.868 216.515 174.67 215.996 174.519C215.477 174.378 214.902 174.302 214.27 174.302H209.205V188.025H211.535V183.13H213.383L216.656 188.025H219.457ZM211.535 176.396H213.921C214.751 176.396 215.402 176.603 215.854 177.009C216.307 177.424 216.543 177.99 216.543 178.707C216.543 179.424 216.307 179.99 215.836 180.405C215.364 180.829 214.666 181.036 213.761 181.036H211.535V176.396Z" fill="#FD3E72"/>
<path d="M230.087 183.206C230.087 182.3 229.898 181.48 229.531 180.763C229.153 180.046 228.625 179.49 227.927 179.075C227.229 178.669 226.418 178.462 225.513 178.462C224.862 178.462 224.258 178.584 223.692 178.82C223.126 179.056 222.636 179.386 222.23 179.801C221.815 180.225 221.495 180.735 221.268 181.338C221.032 181.942 220.919 182.602 220.919 183.31C220.919 184.272 221.127 185.13 221.551 185.875C221.966 186.62 222.542 187.186 223.277 187.582C224.004 187.978 224.824 188.176 225.739 188.176C226.616 188.176 227.39 188.016 228.059 187.695C228.729 187.375 229.276 186.941 229.71 186.394L228.201 185.102C227.606 185.847 226.824 186.215 225.852 186.215C225.154 186.215 224.569 186.026 224.088 185.639C223.607 185.262 223.296 184.734 223.164 184.064H230.03C230.068 183.838 230.087 183.555 230.087 183.206ZM225.626 180.423C226.022 180.423 226.38 180.508 226.701 180.669C227.022 180.829 227.276 181.046 227.474 181.329C227.673 181.612 227.823 181.942 227.918 182.319H223.202C223.353 181.716 223.645 181.253 224.079 180.923C224.513 180.593 225.022 180.423 225.626 180.423Z" fill="#FD3E72"/>
<path d="M243.678 178.462C242.98 178.462 242.339 178.603 241.764 178.867C241.179 179.131 240.698 179.518 240.302 180.027H240.264C239.698 178.99 238.764 178.462 237.453 178.462C236.897 178.462 236.359 178.594 235.85 178.839C235.341 179.084 234.888 179.442 234.511 179.905H234.482V178.603H232.322V188.025H234.482V183.328C234.482 182.432 234.69 181.725 235.114 181.206C235.539 180.687 236.086 180.423 236.746 180.423C237.991 180.423 238.623 181.329 238.623 183.121V188.035H240.783V183.328C240.783 182.432 240.99 181.725 241.405 181.206C241.82 180.687 242.349 180.423 242.98 180.423C244.207 180.423 244.829 181.329 244.829 183.121V188.035H246.989V182.574C246.989 181.197 246.697 180.169 246.131 179.49C245.555 178.811 244.735 178.462 243.678 178.462Z" fill="#FD3E72"/>
<path d="M254.053 188.176C254.997 188.176 255.845 187.978 256.6 187.573C257.355 187.167 257.939 186.592 258.364 185.856C258.779 185.12 258.996 184.272 258.996 183.328C258.996 182.385 258.779 181.536 258.364 180.791C257.939 180.056 257.355 179.48 256.609 179.075C255.855 178.669 255.006 178.462 254.053 178.462C253.073 178.462 252.205 178.679 251.45 179.103C250.696 179.527 250.111 180.103 249.705 180.838C249.3 181.574 249.102 182.404 249.102 183.328C249.102 184.017 249.215 184.658 249.46 185.253C249.696 185.856 250.026 186.365 250.45 186.799C250.875 187.233 251.403 187.563 252.026 187.809C252.648 188.054 253.318 188.176 254.053 188.176ZM254.053 186.215C253.252 186.215 252.592 185.941 252.073 185.385C251.554 184.838 251.299 184.149 251.299 183.328C251.299 182.498 251.554 181.81 252.063 181.253C252.573 180.706 253.233 180.423 254.053 180.423C254.836 180.423 255.487 180.697 256.015 181.235C256.534 181.782 256.798 182.48 256.798 183.328C256.798 184.168 256.534 184.856 256.006 185.403C255.478 185.95 254.827 186.215 254.053 186.215Z" fill="#FD3E72"/>
<path d="M267.305 178.603L264.891 185.319H264.853L262.391 178.603H260.08L263.834 188.025H265.9L269.635 178.603H267.305Z" fill="#FD3E72"/>
<path d="M279.453 183.206C279.453 182.3 279.265 181.48 278.897 180.763C278.52 180.046 277.992 179.49 277.294 179.075C276.596 178.669 275.784 178.462 274.879 178.462C274.228 178.462 273.625 178.584 273.059 178.82C272.493 179.056 272.002 179.386 271.597 179.801C271.182 180.225 270.861 180.735 270.635 181.338C270.399 181.942 270.286 182.602 270.286 183.31C270.286 184.272 270.493 185.13 270.918 185.875C271.333 186.62 271.908 187.186 272.644 187.582C273.37 187.978 274.19 188.176 275.105 188.176C275.983 188.176 276.756 188.016 277.426 187.695C278.095 187.375 278.642 186.941 279.076 186.394L277.567 185.102C276.973 185.847 276.19 186.215 275.219 186.215C274.521 186.215 273.936 186.026 273.455 185.639C272.974 185.262 272.663 184.734 272.53 184.064H279.397C279.435 183.838 279.453 183.555 279.453 183.206ZM274.992 180.423C275.388 180.423 275.747 180.508 276.067 180.669C276.388 180.829 276.643 181.046 276.841 181.329C277.039 181.612 277.19 181.942 277.284 182.319H272.568C272.719 181.716 273.011 181.253 273.445 180.923C273.879 180.593 274.389 180.423 274.992 180.423Z" fill="#FD3E72"/>
<path fill-rule="evenodd" clip-rule="evenodd" d="M176.297 175.953C176.297 175.572 176.606 175.263 176.987 175.263H193.544C193.925 175.263 194.234 175.572 194.234 175.953C194.234 176.334 193.925 176.643 193.544 176.643H176.987C176.606 176.643 176.297 176.334 176.297 175.953Z" fill="#FD3E72"/>
<path fill-rule="evenodd" clip-rule="evenodd" d="M183.196 179.402C183.577 179.402 183.886 179.711 183.886 180.092V186.301C183.886 186.682 183.577 186.991 183.196 186.991C182.815 186.991 182.506 186.682 182.506 186.301V180.092C182.506 179.711 182.815 179.402 183.196 179.402Z" fill="#FD3E72"/>
<path fill-rule="evenodd" clip-rule="evenodd" d="M187.335 179.402C187.716 179.402 188.025 179.711 188.025 180.092V186.301C188.025 186.682 187.716 186.991 187.335 186.991C186.954 186.991 186.645 186.682 186.645 186.301V180.092C186.645 179.711 186.954 179.402 187.335 179.402Z" fill="#FD3E72"/>
<path fill-rule="evenodd" clip-rule="evenodd" d="M177.965 175.265C178.344 175.234 178.678 175.516 178.709 175.895L179.744 188.313C179.746 188.332 179.747 188.351 179.747 188.37C179.747 188.736 179.892 189.087 180.151 189.346C180.409 189.605 180.76 189.75 181.126 189.75H189.405C189.771 189.75 190.122 189.605 190.38 189.346C190.639 189.087 190.785 188.736 190.785 188.37C190.785 188.351 190.785 188.332 190.787 188.313L191.822 175.895C191.853 175.516 192.187 175.234 192.566 175.265C192.946 175.297 193.228 175.63 193.197 176.01L192.164 188.401C192.156 189.122 191.866 189.811 191.356 190.322C190.839 190.839 190.137 191.13 189.405 191.13H181.126C180.394 191.13 179.693 190.839 179.175 190.322C178.665 189.811 178.375 189.122 178.367 188.401L177.334 176.01C177.303 175.63 177.585 175.297 177.965 175.265Z" fill="#FD3E72"/>
<path fill-rule="evenodd" clip-rule="evenodd" d="M183.196 172.503C183.104 172.503 183.017 172.54 182.952 172.604C182.887 172.669 182.851 172.757 182.851 172.848V175.953C182.851 176.334 182.542 176.643 182.161 176.643C181.78 176.643 181.471 176.334 181.471 175.953V172.848C181.471 172.391 181.653 171.952 181.976 171.629C182.3 171.305 182.738 171.124 183.196 171.124H187.335C187.793 171.124 188.231 171.305 188.555 171.629C188.878 171.952 189.06 172.391 189.06 172.848V175.953C189.06 176.334 188.751 176.643 188.37 176.643C187.989 176.643 187.68 176.334 187.68 175.953V172.848C187.68 172.757 187.644 172.669 187.579 172.604C187.514 172.54 187.427 172.503 187.335 172.503H183.196Z" fill="#FD3E72"/>
<g opacity="0.6">
<path d="M21.1915 175.608H28.4514V174.282H22.6306V163.845H21.1915V175.608Z" fill="#5B5863"/>
<path d="M33.8922 175.713C34.6764 175.713 35.3878 175.543 36.0184 175.195C36.649 174.856 37.1421 174.363 37.4979 173.732C37.8536 173.101 38.0395 172.39 38.0395 171.59C38.0395 170.789 37.8536 170.07 37.4979 169.439C37.1421 168.809 36.649 168.315 36.0184 167.968C35.3878 167.628 34.6764 167.45 33.8922 167.45C33.2778 167.45 32.7038 167.564 32.1864 167.774C31.6609 167.984 31.2162 168.275 30.8605 168.647C30.5048 169.019 30.2219 169.455 30.0197 169.965C29.8176 170.474 29.7206 171.016 29.7206 171.59C29.7206 172.172 29.8176 172.713 30.0197 173.215C30.2219 173.716 30.5048 174.152 30.8605 174.524C31.2162 174.896 31.6609 175.187 32.1864 175.397C32.7038 175.608 33.2778 175.713 33.8922 175.713ZM33.8922 174.476C33.3425 174.476 32.8574 174.346 32.4289 174.088C31.9924 173.829 31.6609 173.481 31.4264 173.045C31.192 172.608 31.0788 172.123 31.0788 171.59C31.0788 171.056 31.192 170.571 31.4264 170.126C31.6528 169.69 31.9843 169.334 32.4208 169.075C32.8493 168.817 33.3425 168.687 33.8922 168.687C34.4096 168.687 34.8785 168.809 35.2989 169.051C35.7193 169.294 36.0588 169.641 36.3095 170.086C36.552 170.531 36.6813 171.032 36.6813 171.59C36.6813 172.147 36.552 172.649 36.3095 173.085C36.0588 173.53 35.7193 173.869 35.2989 174.112C34.8704 174.355 34.4015 174.476 33.8922 174.476Z" fill="#5B5863"/>
<path d="M43.7714 175.713C44.5556 175.713 45.267 175.543 45.8976 175.195C46.5282 174.856 47.0214 174.363 47.3771 173.732C47.7328 173.101 47.9187 172.39 47.9187 171.59C47.9187 170.789 47.7328 170.07 47.3771 169.439C47.0214 168.809 46.5282 168.315 45.8976 167.968C45.267 167.628 44.5556 167.45 43.7714 167.45C43.157 167.45 42.583 167.564 42.0656 167.774C41.5401 167.984 41.0954 168.275 40.7397 168.647C40.384 169.019 40.1011 169.455 39.8989 169.965C39.6968 170.474 39.5998 171.016 39.5998 171.59C39.5998 172.172 39.6968 172.713 39.8989 173.215C40.1011 173.716 40.384 174.152 40.7397 174.524C41.0954 174.896 41.5401 175.187 42.0656 175.397C42.583 175.608 43.157 175.713 43.7714 175.713ZM43.7714 174.476C43.2217 174.476 42.7366 174.346 42.3081 174.088C41.8716 173.829 41.5401 173.481 41.3056 173.045C41.0712 172.608 40.958 172.123 40.958 171.59C40.958 171.056 41.0712 170.571 41.3056 170.126C41.532 169.69 41.8635 169.334 42.3 169.075C42.7285 168.817 43.2217 168.687 43.7714 168.687C44.2888 168.687 44.7577 168.809 45.1781 169.051C45.5985 169.294 45.938 169.641 46.1887 170.086C46.4312 170.531 46.5605 171.032 46.5605 171.59C46.5605 172.147 46.4312 172.649 46.1887 173.085C45.938 173.53 45.5985 173.869 45.1781 174.112C44.7496 174.355 44.2807 174.476 43.7714 174.476Z" fill="#5B5863"/>
<path d="M53.0362 171.913L55.4292 175.608H56.9571L53.9336 170.886L56.941 167.547H55.316L51.3465 171.945H51.3223V163.416H49.9883V175.608H51.3223V173.789L53.0119 171.913H53.0362Z" fill="#5B5863"/>
<path d="M59.3987 166.052C59.6574 166.052 59.8837 165.963 60.0697 165.777C60.2556 165.599 60.3526 165.373 60.3526 165.114C60.3526 164.944 60.3041 164.783 60.2233 164.637C60.1343 164.491 60.0212 164.378 59.8756 164.297C59.7301 164.217 59.5684 164.168 59.3987 164.168C59.1238 164.168 58.8974 164.265 58.7196 164.443C58.5336 164.629 58.4447 164.855 58.4447 165.114C58.4447 165.373 58.5336 165.599 58.7196 165.777C58.8974 165.963 59.1238 166.052 59.3987 166.052ZM58.7196 175.608H60.0535V167.547H58.7196V175.608Z" fill="#5B5863"/>
<path d="M67.0304 167.45C66.424 167.45 65.8662 167.58 65.365 167.838C64.8557 168.097 64.4353 168.461 64.1038 168.938H64.0796V167.547H62.7375V175.608H64.0796V171.582C64.0796 170.692 64.3059 169.981 64.7667 169.463C65.2275 168.946 65.842 168.679 66.61 168.679C66.9172 168.679 67.184 168.728 67.4184 168.809C67.6448 168.898 67.855 169.035 68.0329 169.229C68.2107 169.423 68.3401 169.69 68.4371 170.013C68.5341 170.345 68.5826 170.741 68.5826 171.202V175.616H69.9246V170.83C69.9246 169.714 69.6659 168.865 69.1485 168.299C68.6311 167.733 67.9278 167.45 67.0304 167.45Z" fill="#5B5863"/>
<path d="M78.4618 167.547V168.663H78.4295C78.0818 168.275 77.6695 167.976 77.1845 167.766C76.6994 167.555 76.1901 167.45 75.6484 167.45C74.9208 167.45 74.266 167.628 73.6839 167.976C73.1018 168.332 72.641 168.809 72.3095 169.423C71.9781 170.037 71.8164 170.717 71.8164 171.46C71.8164 172.05 71.9134 172.6 72.1236 173.101C72.3257 173.603 72.6006 174.031 72.9563 174.371C73.312 174.71 73.7243 174.977 74.2013 175.171C74.6702 175.365 75.1795 175.454 75.7131 175.454C76.8611 175.454 77.7665 175.05 78.4456 174.225H78.4861V175.349C78.4861 175.688 78.4295 175.996 78.3163 176.279C78.2031 176.562 78.0333 176.812 77.815 177.022C77.5887 177.241 77.3057 177.41 76.9581 177.532C76.6024 177.661 76.2062 177.718 75.7697 177.718C75.228 177.718 74.7349 177.653 74.2983 177.516C73.8537 177.378 73.3767 177.16 72.8754 176.869L72.5521 178.106C73.506 178.688 74.6055 178.979 75.8344 178.979C76.5134 178.979 77.1117 178.882 77.6291 178.688C78.1465 178.494 78.5588 178.219 78.866 177.863C79.1732 177.507 79.4077 177.087 79.5613 176.61C79.7149 176.133 79.7957 175.6 79.7957 175.001V167.547H78.4618ZM75.8182 174.201C75.5271 174.201 75.2523 174.16 74.9855 174.08C74.7187 173.999 74.4762 173.878 74.2579 173.716C74.0396 173.554 73.8537 173.368 73.692 173.142C73.5303 172.924 73.4009 172.665 73.312 172.366C73.2231 172.075 73.1827 171.759 73.1827 171.42C73.1827 170.644 73.4252 169.989 73.9264 169.472C74.4196 168.954 75.0502 168.695 75.8182 168.695C76.5862 168.695 77.2249 168.946 77.7423 169.447C78.2516 169.948 78.5103 170.603 78.5103 171.404C78.5103 172.22 78.2597 172.891 77.7665 173.417C77.2653 173.942 76.6185 174.201 75.8182 174.201Z" fill="#5B5863"/>
<path d="M87.1688 175.608H88.5027V168.712H90.7906V167.547H88.5027V166.044C88.5027 165.057 88.8665 164.564 89.6022 164.564C89.9983 164.564 90.4672 164.702 91.0089 164.977L91.308 163.82C90.7421 163.481 90.1115 163.311 89.4324 163.311C88.7048 163.311 88.1389 163.538 87.7508 163.974C87.3628 164.411 87.1688 165.057 87.1688 165.914V167.547H86.1825V168.712H87.1688V175.608Z" fill="#5B5863"/>
<path d="M95.8515 175.713C96.6357 175.713 97.3471 175.543 97.9777 175.195C98.6083 174.856 99.1014 174.363 99.4571 173.732C99.8128 173.101 99.9988 172.39 99.9988 171.59C99.9988 170.789 99.8128 170.07 99.4571 169.439C99.1014 168.809 98.6083 168.315 97.9777 167.968C97.3471 167.628 96.6357 167.45 95.8515 167.45C95.237 167.45 94.663 167.564 94.1456 167.774C93.6202 167.984 93.1755 168.275 92.8198 168.647C92.4641 169.019 92.1811 169.455 91.979 169.965C91.7769 170.474 91.6799 171.016 91.6799 171.59C91.6799 172.172 91.7769 172.713 91.979 173.215C92.1811 173.716 92.4641 174.152 92.8198 174.524C93.1755 174.896 93.6202 175.187 94.1456 175.397C94.663 175.608 95.237 175.713 95.8515 175.713ZM95.8515 174.476C95.3017 174.476 94.8167 174.346 94.3882 174.088C93.9516 173.829 93.6202 173.481 93.3857 173.045C93.1513 172.608 93.0381 172.123 93.0381 171.59C93.0381 171.056 93.1513 170.571 93.3857 170.126C93.6121 169.69 93.9435 169.334 94.3801 169.075C94.8086 168.817 95.3017 168.687 95.8515 168.687C96.3689 168.687 96.8378 168.809 97.2582 169.051C97.6786 169.294 98.0181 169.641 98.2687 170.086C98.5112 170.531 98.6406 171.032 98.6406 171.59C98.6406 172.147 98.5112 172.649 98.2687 173.085C98.0181 173.53 97.6786 173.869 97.2582 174.112C96.8297 174.355 96.3608 174.476 95.8515 174.476Z" fill="#5B5863"/>
<path d="M106.054 167.45C105.504 167.45 105.011 167.588 104.558 167.847C104.106 168.105 103.734 168.477 103.435 168.954H103.402V167.547H102.06V175.608H103.402V171.719C103.402 171.185 103.499 170.7 103.693 170.28C103.887 169.86 104.17 169.528 104.542 169.286C104.914 169.043 105.351 168.922 105.852 168.922C106.014 168.922 106.191 168.93 106.386 168.946V167.467C106.321 167.458 106.208 167.45 106.054 167.45Z" fill="#5B5863"/>
<path d="M25.1206 186.767C24.5627 186.767 24.0453 186.88 23.5683 187.098C23.0914 187.325 22.6871 187.64 22.3557 188.06H22.3233V182.733H20.9813V194.924H22.2668V193.647H22.291C22.6144 194.091 23.0186 194.431 23.5037 194.673C23.9887 194.916 24.5223 195.029 25.1125 195.029C25.6622 195.029 26.1796 194.932 26.6647 194.738C27.1498 194.544 27.5621 194.269 27.9178 193.914C28.2735 193.566 28.5484 193.137 28.7586 192.62C28.9607 192.111 29.0658 191.553 29.0658 190.947C29.0658 190.162 28.896 189.451 28.5565 188.812C28.2169 188.182 27.748 187.68 27.1498 187.317C26.5434 186.953 25.8643 186.767 25.1206 186.767ZM24.9831 193.8C24.6193 193.8 24.2717 193.736 23.9483 193.598C23.6169 193.461 23.3258 193.267 23.0833 193.024C22.8327 192.782 22.6386 192.474 22.4931 192.119C22.3476 191.763 22.2748 191.375 22.2748 190.955C22.2748 190.413 22.388 189.912 22.6225 189.459C22.8488 189.006 23.1722 188.651 23.5845 188.392C23.9968 188.133 24.4576 187.996 24.967 187.996C25.7431 187.996 26.3979 188.271 26.9153 188.812C27.4327 189.362 27.6995 190.073 27.6995 190.955C27.6995 191.779 27.4489 192.466 26.9477 193C26.4464 193.534 25.7916 193.8 24.9831 193.8Z" fill="#5B5863"/>
<path d="M35.121 186.767C34.5713 186.767 34.0781 186.904 33.6254 187.163C33.1727 187.422 32.8008 187.794 32.5017 188.271H32.4693V186.864H31.1273V194.924H32.4693V191.035C32.4693 190.502 32.5663 190.017 32.7604 189.596C32.9544 189.176 33.2374 188.845 33.6092 188.602C33.9811 188.359 34.4177 188.238 34.9189 188.238C35.0806 188.238 35.2585 188.246 35.4525 188.262V186.783C35.3878 186.775 35.2746 186.767 35.121 186.767Z" fill="#5B5863"/>
<path d="M43.8765 190.769C43.8765 190.009 43.7148 189.322 43.4076 188.715C43.1004 188.109 42.6557 187.632 42.0898 187.284C41.5158 186.945 40.861 186.767 40.1253 186.767C39.5837 186.767 39.0743 186.872 38.6054 187.074C38.1285 187.284 37.7161 187.567 37.3766 187.923C37.0371 188.279 36.7622 188.715 36.5682 189.233C36.366 189.75 36.269 190.3 36.269 190.898C36.269 191.504 36.366 192.062 36.5762 192.58C36.7783 193.097 37.0613 193.534 37.417 193.889C37.7727 194.245 38.1931 194.528 38.6863 194.73C39.1794 194.932 39.713 195.029 40.2789 195.029C40.9823 195.029 41.6129 194.9 42.1626 194.625C42.7123 194.35 43.1732 193.978 43.537 193.509L42.5992 192.709C42.3243 193.04 42.0009 193.307 41.6209 193.501C41.2329 193.695 40.8044 193.792 40.3274 193.792C39.5998 193.792 38.9935 193.574 38.5084 193.121C38.0153 192.669 37.7242 192.07 37.6434 191.318H43.8361C43.8603 191.157 43.8765 190.979 43.8765 190.769ZM40.1981 188.004C40.8287 188.004 41.3461 188.206 41.7584 188.602C42.1707 189.006 42.4294 189.54 42.5426 190.203H37.6757C37.797 189.532 38.088 188.998 38.5488 188.602C39.0097 188.206 39.5594 188.004 40.1981 188.004Z" fill="#5B5863"/>
<path d="M52.1631 186.864V188.06H52.1307C51.7912 187.64 51.387 187.325 50.91 187.098C50.433 186.88 49.9156 186.767 49.3658 186.767C48.614 186.767 47.9349 186.953 47.3366 187.317C46.7303 187.68 46.2614 188.182 45.9219 188.812C45.5823 189.451 45.4206 190.162 45.4206 190.947C45.4206 191.553 45.5176 192.111 45.7278 192.62C45.93 193.137 46.2048 193.566 46.5605 193.914C46.9163 194.269 47.3366 194.544 47.8217 194.738C48.3068 194.932 48.8242 195.029 49.3739 195.029C49.956 195.029 50.4896 194.908 50.9747 194.665C51.4597 194.423 51.8639 194.083 52.1954 193.647H52.2197V194.924H53.5051V186.864H52.1631ZM49.5033 193.8C48.6948 193.8 48.04 193.534 47.5388 193C47.0375 192.466 46.7869 191.779 46.7869 190.955C46.7869 190.073 47.0456 189.362 47.563 188.812C48.0804 188.271 48.7353 187.996 49.5195 187.996C49.8913 187.996 50.2471 188.077 50.5866 188.23C50.9181 188.384 51.201 188.594 51.4436 188.853C51.678 189.119 51.8639 189.435 52.0014 189.799C52.1388 190.162 52.2116 190.55 52.2116 190.955C52.2116 191.375 52.1388 191.763 51.9933 192.119C51.8478 192.474 51.6457 192.782 51.4031 193.024C51.1525 193.267 50.8615 193.461 50.5381 193.598C50.2066 193.736 49.859 193.8 49.5033 193.8Z" fill="#5B5863"/>
<path d="M59.4714 195.029C60.1586 195.029 60.7973 194.908 61.3793 194.649C61.9614 194.399 62.4384 194.067 62.8022 193.663L61.8725 192.83C61.6138 193.121 61.2823 193.356 60.8781 193.534C60.4739 193.711 60.0373 193.792 59.5846 193.792C58.7761 193.792 58.1132 193.525 57.6039 192.992C57.0946 192.458 56.844 191.755 56.844 190.898C56.844 190.041 57.0946 189.346 57.6039 188.804C58.1132 188.271 58.7761 187.996 59.5846 187.996C60.0454 187.996 60.4739 188.093 60.8619 188.271C61.25 188.448 61.5815 188.699 61.8402 189.006L62.7699 188.198C62.3818 187.737 61.8968 187.381 61.3147 187.131C60.7326 186.888 60.1343 186.759 59.5199 186.759C58.7357 186.759 58.0405 186.937 57.426 187.284C56.8116 187.64 56.3346 188.125 55.9951 188.756C55.6556 189.386 55.4858 190.106 55.4858 190.906C55.4858 191.715 55.6556 192.426 55.9951 193.057C56.3346 193.687 56.8035 194.172 57.4099 194.512C58.0162 194.859 58.7034 195.029 59.4714 195.029Z" fill="#5B5863"/>
<path d="M68.9706 186.767C68.6634 186.767 68.3643 186.799 68.0814 186.856C67.7984 186.92 67.5316 187.009 67.281 187.123C67.0223 187.244 66.7878 187.389 66.5777 187.567C66.3594 187.745 66.1653 187.947 66.0037 188.174H65.9713V182.733H64.6293V194.924H65.9713V190.866C65.9713 189.968 66.1977 189.265 66.6666 188.756C67.1355 188.254 67.7742 187.996 68.5826 187.996C69.8923 187.996 70.5552 188.82 70.5552 190.47V194.932H71.8972V190.09C71.8972 188.982 71.6304 188.149 71.113 187.6C70.5956 187.05 69.8761 186.767 68.9706 186.767Z" fill="#5B5863"/>
<path d="M81.4207 190.769C81.4207 190.009 81.259 189.322 80.9518 188.715C80.6446 188.109 80.2 187.632 79.634 187.284C79.0601 186.945 78.4052 186.767 77.6695 186.767C77.1279 186.767 76.6185 186.872 76.1496 187.074C75.6727 187.284 75.2604 187.567 74.9208 187.923C74.5813 188.279 74.3064 188.715 74.1124 189.233C73.9103 189.75 73.8132 190.3 73.8132 190.898C73.8132 191.504 73.9103 192.062 74.1204 192.58C74.3226 193.097 74.6055 193.534 74.9612 193.889C75.3169 194.245 75.7373 194.528 76.2305 194.73C76.7236 194.932 77.2572 195.029 77.8231 195.029C78.5265 195.029 79.1571 194.9 79.7068 194.625C80.2565 194.35 80.7174 193.978 81.0812 193.509L80.1434 192.709C79.8685 193.04 79.5451 193.307 79.1651 193.501C78.7771 193.695 78.3486 193.792 77.8716 193.792C77.144 193.792 76.5377 193.574 76.0526 193.121C75.5595 192.669 75.2684 192.07 75.1876 191.318H81.3803C81.4045 191.157 81.4207 190.979 81.4207 190.769ZM77.7423 188.004C78.3729 188.004 78.8903 188.206 79.3026 188.602C79.7149 189.006 79.9736 189.54 80.0868 190.203H75.2199C75.3412 189.532 75.6322 188.998 76.0931 188.602C76.5539 188.206 77.1036 188.004 77.7423 188.004Z" fill="#5B5863"/>
<path d="M85.9076 195.029C86.3765 195.029 86.7969 194.973 87.1688 194.851C87.5406 194.73 87.8479 194.56 88.0823 194.35C88.3167 194.14 88.4946 193.889 88.6159 193.614C88.7371 193.34 88.8018 193.04 88.8018 192.717C88.8018 192.377 88.7452 192.086 88.6401 191.836C88.4623 191.44 88.0985 191.1 87.5487 190.825C87.3709 190.744 86.8454 190.534 85.9884 190.195C85.7297 190.098 85.5276 190.017 85.374 189.944C85.2123 189.871 85.0587 189.782 84.9051 189.677C84.7515 189.58 84.6383 189.467 84.5656 189.338C84.4928 189.216 84.4605 189.079 84.4605 188.925C84.4605 188.651 84.5817 188.424 84.8324 188.246C85.083 188.068 85.374 187.98 85.6974 187.98C86.4735 187.98 87.193 188.262 87.8398 188.82L88.535 187.761C87.7266 187.098 86.7969 186.767 85.7621 186.767C84.994 186.767 84.3554 186.977 83.8541 187.389C83.3448 187.802 83.0942 188.311 83.0942 188.925C83.0942 189.216 83.1346 189.475 83.2235 189.71C83.3125 189.952 83.4257 190.146 83.5631 190.308C83.6924 190.47 83.8784 190.623 84.1048 190.769C84.3311 190.914 84.5413 191.027 84.7515 191.116C84.9617 191.213 85.2123 191.31 85.5195 191.407C85.56 191.424 85.6246 191.448 85.7136 191.472C85.8833 191.537 86.0127 191.585 86.0935 191.618C86.1744 191.65 86.2876 191.69 86.425 191.739C86.5543 191.787 86.6594 191.836 86.7241 191.868C86.7888 191.9 86.8696 191.949 86.9666 191.997C87.0637 192.054 87.1283 192.103 87.1768 192.151C87.2173 192.2 87.2658 192.248 87.3143 192.313C87.3628 192.377 87.3951 192.442 87.4113 192.507C87.4275 192.58 87.4355 192.652 87.4355 192.733C87.4355 193.04 87.2981 193.299 87.0232 193.501C86.7484 193.711 86.3765 193.808 85.9076 193.808C85.374 193.808 84.9132 193.728 84.5251 193.566C84.1371 193.404 83.7814 193.17 83.4418 192.846L82.7466 193.865C83.6197 194.641 84.6707 195.029 85.9076 195.029Z" fill="#5B5863"/>
<path d="M91.3484 195.029C91.5182 195.029 91.6799 194.989 91.8254 194.908C91.9709 194.827 92.0841 194.706 92.173 194.56C92.2539 194.415 92.3024 194.261 92.3024 194.091C92.3024 193.833 92.2054 193.606 92.0194 193.42C91.8335 193.243 91.6071 193.145 91.3484 193.145C91.0735 193.145 90.8472 193.243 90.6612 193.42C90.4753 193.606 90.3864 193.833 90.3864 194.091C90.3864 194.35 90.4753 194.576 90.6612 194.754C90.8472 194.94 91.0735 195.029 91.3484 195.029Z" fill="#5B5863"/>
<path d="M95.3421 195.029C95.5119 195.029 95.6736 194.989 95.8191 194.908C95.9646 194.827 96.0778 194.706 96.1668 194.56C96.2476 194.415 96.2961 194.261 96.2961 194.091C96.2961 193.833 96.1991 193.606 96.0132 193.42C95.8272 193.243 95.6008 193.145 95.3421 193.145C95.0673 193.145 94.8409 193.243 94.655 193.42C94.469 193.606 94.3801 193.833 94.3801 194.091C94.3801 194.35 94.469 194.576 94.655 194.754C94.8409 194.94 95.0673 195.029 95.3421 195.029Z" fill="#5B5863"/>
<path d="M99.3359 195.029C99.5056 195.029 99.6673 194.989 99.8128 194.908C99.9584 194.827 100.072 194.706 100.16 194.56C100.241 194.415 100.29 194.261 100.29 194.091C100.29 193.833 100.193 193.606 100.007 193.42C99.8209 193.243 99.5946 193.145 99.3359 193.145C99.061 193.145 98.8346 193.243 98.6487 193.42C98.4627 193.606 98.3738 193.833 98.3738 194.091C98.3738 194.35 98.4627 194.576 98.6487 194.754C98.8346 194.94 99.061 195.029 99.3359 195.029Z" fill="#5B5863"/>
</g>
</svg>
