<svg width="605" height="502" viewBox="0 0 605 502" fill="none" xmlns="http://www.w3.org/2000/svg">
<circle opacity="0.3" cx="303.001" cy="251" r="251" fill="white"/>
<circle opacity="0.3" cx="303.001" cy="251" r="184.408" fill="#FFE0E9"/>
<path d="M569.698 455.341C569.698 455.642 442.159 455.876 284.866 455.876C127.572 455.876 0 455.642 0 455.341C0 455.04 127.517 454.806 284.866 454.806C442.215 454.806 569.698 455.051 569.698 455.341Z" fill="#263238"/>
<path d="M43.2223 36.876L36.2376 77.7477V455.096H375.967V431.123L43.2223 36.876Z" fill="#504C5A"/>
<path d="M43.2222 36.876H370.129C373.734 36.876 377.191 38.3078 379.739 40.8565C382.288 43.4053 383.72 46.8621 383.72 50.4665V422.311C383.72 425.916 382.288 429.373 379.739 431.921C377.191 434.47 373.734 435.902 370.129 435.902H43.2222V36.876Z" fill="#5B5863"/>
<path d="M346.959 48.2832L365.818 79.7419V424.049L71.9071 421.131L55.8102 404.488L346.959 48.2832Z" fill="#E0E0E0"/>
<path d="M346.948 46.7793H55.8102V404.488H346.948V46.7793Z" fill="white"/>
<path d="M346.959 404.488C346.959 402.26 346.847 259.526 346.691 46.7794L346.959 47.0356H55.8436L56.1332 46.746C56.1332 179.075 56.1332 302.136 56.1332 404.455L55.8881 404.21L347.037 404.455L55.8881 404.689H55.6431V404.455C55.6431 302.136 55.6431 179.075 55.6431 46.746V46.4897H55.9661H347.081H347.337V46.7571C347.059 259.526 346.959 402.227 346.959 404.488Z" fill="#263238"/>
<path d="M91.5465 167.234C91.5465 171.255 88.5945 174.519 84.9406 174.519C81.2868 174.519 78.3347 171.255 78.3347 167.234C78.3347 163.212 81.3202 159.97 84.9406 159.97C88.561 159.97 91.5465 163.212 91.5465 167.234Z" fill="#2F2D35"/>
<g opacity="0.3">
<path opacity="0.3" d="M43.2222 218.588H55.8101L55.7767 207.738H43.2222V218.588Z" fill="black"/>
</g>
<path d="M49.2711 131.185C27.3815 131.185 9.55792 148.53 9.55792 169.84C9.55792 191.151 27.5932 208.495 49.4828 208.495H55.8102L55.6988 199.327L49.4605 199.583C32.0268 199.583 17.6231 186.216 17.6231 169.84C17.6231 153.465 31.8151 140.097 49.2489 140.097C66.6826 140.097 80.8746 153.465 80.8746 169.84C80.815 170.407 80.8753 170.98 81.0513 171.522C81.2274 172.064 81.5154 172.563 81.8967 172.986C82.278 173.409 82.744 173.748 83.2645 173.98C83.7851 174.212 84.3485 174.331 84.9184 174.331C85.4882 174.331 86.0516 174.212 86.5722 173.98C87.0927 173.748 87.5587 173.409 87.94 172.986C88.3213 172.563 88.6093 172.064 88.7854 171.522C88.9614 170.98 89.0216 170.407 88.9621 169.84C88.9844 148.53 71.1719 131.185 49.2711 131.185Z" fill="#5B5863"/>
<path d="M49.2711 131.185H50.218L52.9807 131.297C54.1838 131.397 55.6765 131.642 57.4366 131.909C59.4409 132.334 61.4135 132.896 63.3407 133.591C68.6364 135.549 73.4687 138.584 77.5327 142.503L79.2482 144.33C79.5379 144.642 79.8386 144.943 80.1171 145.277L80.9192 146.313C81.4428 147.015 82.0332 147.694 82.5345 148.452L83.9938 150.791C85.9735 154.204 87.4269 157.895 88.3048 161.742C88.749 163.817 89.021 165.926 89.118 168.047C89.2814 169.159 89.236 170.293 88.9844 171.389C88.6463 172.502 87.8977 173.446 86.8901 174.029C86.3596 174.32 85.7694 174.485 85.1649 174.512C84.5604 174.539 83.9577 174.427 83.4034 174.185C82.845 173.934 82.3442 173.572 81.9322 173.12C81.5201 172.667 81.2056 172.135 81.0083 171.556C80.804 170.976 80.7022 170.366 80.7075 169.751L80.6073 167.991C80.5374 166.801 80.3848 165.617 80.1505 164.449C79.1515 159.561 76.9067 155.013 73.6338 151.248C71.9192 149.292 69.9656 147.559 67.8188 146.09C66.7279 145.337 65.5934 144.649 64.4212 144.029C63.8308 143.718 63.207 143.472 62.6054 143.183C62.0002 142.887 61.3748 142.633 60.734 142.425L58.8068 141.757C58.1607 141.568 57.4923 141.434 56.8239 141.267C55.4847 140.947 54.1267 140.713 52.7579 140.565C48.5475 140.166 44.2996 140.543 40.2257 141.679C39.535 141.868 38.8666 142.136 38.1871 142.358L37.1622 142.715L36.1819 143.149C33.4842 144.305 30.9668 145.844 28.7072 147.717C26.4011 149.583 24.3949 151.792 22.7585 154.267C21.058 156.756 19.7853 159.512 18.9933 162.421C18.1281 165.357 17.7998 168.425 18.0241 171.478C18.1643 174.556 18.8508 177.585 20.0516 180.423C22.9807 187.261 28.2931 192.803 35.0011 196.019C38.2296 197.573 41.699 198.568 45.2608 198.96C46.1272 199.095 47.0019 199.169 47.8787 199.182C48.7504 199.238 49.6248 199.238 50.4965 199.182L55.7099 198.982H55.9996V199.271C55.9996 202.379 55.9996 205.432 56.0887 208.428V208.718H55.8102C53.4597 208.718 51.1426 208.718 48.8256 208.718L45.3722 208.54L42.0303 208.038C37.6402 207.198 33.4131 205.659 29.5092 203.482C28.5846 202.914 27.6155 202.368 26.7354 201.789L24.1287 199.895L21.678 197.846C21.2817 197.5 20.9095 197.128 20.564 196.732L19.45 195.618C16.7105 192.647 14.4551 189.263 12.7662 185.592C12.3462 184.707 11.9743 183.799 11.6522 182.874L11.1398 181.426L10.7944 180.022C10.5605 179.086 10.2597 178.184 10.0926 177.259L9.65819 174.497C9.05142 169.261 9.50606 163.957 10.995 158.901C11.2257 158.13 11.4971 157.371 11.8082 156.628C12.1201 155.871 12.3429 155.102 12.6993 154.401C13.361 152.992 14.1049 151.623 14.9273 150.301L16.1192 148.396C16.5314 147.784 17.0104 147.282 17.4337 146.647C20.6096 142.582 24.5488 139.176 29.0302 136.621C29.5204 136.343 29.9882 136.042 30.4784 135.786L31.9266 135.118C32.8245 134.661 33.7511 134.263 34.7004 133.926L37.2959 133.012C38.1314 132.767 38.9446 132.589 39.7132 132.4C41.0567 132.052 42.4228 131.799 43.8015 131.642C44.4031 131.575 44.9155 131.464 45.4502 131.43H46.8204L48.6807 131.364H49.3046C49.3046 131.364 49.0929 131.364 48.6807 131.364H46.787L45.4168 131.442C44.9155 131.442 44.3697 131.597 43.7793 131.675C42.4073 131.845 41.0488 132.11 39.7132 132.466C38.9557 132.667 38.1425 132.845 37.3182 133.101L34.7338 134.026C33.7972 134.372 32.8821 134.774 31.9934 135.229L30.5564 135.909C30.0774 136.165 29.6095 136.466 29.1305 136.744C24.6907 139.304 20.7963 142.711 17.6677 146.77C17.2444 147.349 16.7765 147.884 16.3643 148.508L15.2503 150.401C14.4522 151.712 13.7342 153.07 13.1004 154.467C12.7439 155.169 12.5211 155.938 12.2203 156.695C11.9102 157.443 11.6461 158.21 11.4294 158.99C10.9417 160.592 10.5694 162.226 10.3154 163.88C9.74029 167.376 9.66901 170.936 10.1038 174.452L10.5382 177.181C10.7053 178.095 11.0061 178.986 11.2289 179.899L11.6076 181.281L12.1201 182.618C12.4877 183.498 12.7439 184.433 13.234 185.291C14.9262 188.934 17.1818 192.287 19.9179 195.228L20.9762 196.342C21.3182 196.741 21.6907 197.114 22.0902 197.456L24.4629 199.517C25.3095 200.14 26.1673 200.753 27.0362 201.377C27.9051 202.001 28.8631 202.491 29.7766 203.048C33.6334 205.185 37.8082 206.689 42.1417 207.504L45.4836 208.005L48.9035 208.172C51.1983 208.239 53.5377 208.172 55.877 208.172L55.5985 208.451C55.5985 205.443 55.5428 202.391 55.5094 199.283L55.799 199.561L50.5745 199.773C49.6916 199.828 48.8061 199.828 47.9232 199.773C47.0317 199.76 46.1421 199.685 45.2608 199.55C41.6457 199.129 38.1299 198.089 34.8674 196.475C28.0338 193.219 22.6175 187.589 19.6283 180.635C18.385 177.724 17.6684 174.616 17.5117 171.456C17.4262 169.896 17.4523 168.333 17.5897 166.777C17.7867 165.235 18.0919 163.709 18.5032 162.21C19.295 159.25 20.571 156.442 22.2795 153.899C23.9502 151.374 25.9976 149.12 28.3507 147.215C30.6405 145.327 33.1873 143.774 35.9146 142.604L36.9172 142.158L37.9532 141.801C38.6438 141.568 39.3234 141.3 40.0252 141.111C41.4189 140.721 42.8367 140.423 44.2694 140.22C47.0868 139.799 49.9453 139.728 52.7802 140.008C54.1667 140.166 55.5429 140.404 56.9019 140.721C57.5814 140.899 58.2609 141.033 58.9182 141.233L60.8788 141.913C61.5261 142.128 62.1587 142.384 62.7725 142.682C63.3964 142.971 64.0202 143.239 64.6217 143.55C65.815 144.181 66.9683 144.884 68.0751 145.656C70.2545 147.151 72.2379 148.914 73.9791 150.903C77.3014 154.741 79.5768 159.373 80.585 164.348C80.8211 165.535 80.97 166.738 81.0306 167.946L81.1309 169.74C81.1234 170.301 81.2139 170.859 81.3982 171.389C81.5731 171.913 81.8543 172.395 82.2243 172.805C82.5942 173.215 83.0449 173.545 83.5482 173.773C84.0393 173.986 84.5729 174.084 85.1079 174.059C85.6429 174.034 86.165 173.887 86.6339 173.628C87.5648 173.102 88.2556 172.235 88.5611 171.21C88.788 170.167 88.8258 169.092 88.6725 168.036C88.5858 165.942 88.3249 163.859 87.8927 161.808C87.0305 157.999 85.6077 154.339 83.6707 150.947L82.2225 148.63C81.7324 147.884 81.1086 147.204 80.6407 146.502L79.8498 145.489C79.5713 145.155 79.2705 144.854 78.992 144.542L77.2988 142.726C73.278 138.822 68.4962 135.789 63.2515 133.814C61.3373 133.123 59.3799 132.557 57.392 132.121C55.6542 131.843 54.1726 131.575 52.9361 131.453L50.1735 131.286C49.5942 131.23 49.2711 131.185 49.2711 131.185Z" fill="#5B5863"/>
<path d="M91.5465 272.337C91.5465 276.358 88.5945 279.611 84.9406 279.611C81.2868 279.611 78.3347 276.358 78.3347 272.337C78.3347 268.315 81.2979 265.052 84.9406 265.052C88.5833 265.052 91.5465 268.315 91.5465 272.337Z" fill="#2F2D35"/>
<path d="M325.593 137H101.316V146.391H325.593V137Z" fill="#FFAFC5"/>
<path d="M232.03 125.493H101.316V134.884H232.03V125.493Z" fill="#FFAFC5"/>
<path d="M232.03 338.83H101.316V348.221H232.03V338.83Z" fill="#FFAFC5"/>
<path d="M100.068 105.285H324.624V118.976H100.068V105.285Z" fill="#E0E0E0"/>
<path d="M102.486 230.786H327.041V244.477H102.486V230.786Z" fill="#E0E0E0"/>
<path d="M235.071 163.346H324.624V177.036H235.071V163.346Z" fill="#E0E0E0"/>
<path d="M102.497 163.346H214.463V177.036H102.497V163.346Z" fill="#E0E0E0"/>
<path d="M101.327 152.05C101.327 152.217 151.144 152.34 212.58 152.34C274.016 152.34 323.844 152.173 323.844 152.05C323.844 151.928 274.038 151.76 212.58 151.76C151.122 151.76 101.327 151.894 101.327 152.05Z" fill="#263238"/>
<path d="M235.851 185.402C235.851 185.558 255.902 185.692 280.588 185.692C305.274 185.692 325.337 185.558 325.337 185.402C325.337 185.246 305.285 185.113 280.588 185.113C255.891 185.113 235.851 185.235 235.851 185.402Z" fill="#263238"/>
<path d="M235.851 195.918C235.851 196.074 255.546 196.208 279.842 196.208C304.138 196.208 323.844 196.074 323.844 195.918C323.844 195.762 304.149 195.629 279.842 195.629C255.535 195.629 235.851 195.751 235.851 195.918Z" fill="#263238"/>
<path d="M236.218 206.601C236.218 206.757 256.081 206.891 280.588 206.891C305.096 206.891 324.969 206.757 324.969 206.601C324.969 206.445 305.107 206.312 280.588 206.312C256.069 206.312 236.218 206.445 236.218 206.601Z" fill="#263238"/>
<path d="M236.218 216.984C236.218 217.14 256.081 217.273 280.588 217.273C305.096 217.273 324.969 217.14 324.969 216.984C324.969 216.828 305.107 216.694 280.588 216.694C256.069 216.694 236.218 216.783 236.218 216.984Z" fill="#263238"/>
<path d="M210.647 187.82C210.647 187.976 189.893 188.109 164.305 188.109C138.717 188.109 117.964 187.976 117.964 187.82C117.964 187.664 138.706 187.53 164.305 187.53C189.904 187.53 210.647 187.708 210.647 187.82Z" fill="#263238"/>
<path d="M110.846 191.217C110.774 190.577 110.737 189.934 110.734 189.29C110.734 188.109 110.634 186.472 110.612 184.511L110.846 184.756H104.463L104.741 184.467V186.249C104.741 186.839 104.741 187.363 104.741 187.987C104.741 189.101 104.741 190.159 104.741 191.15L104.507 190.894C106.367 190.894 107.938 190.983 109.063 191.028C109.674 191.031 110.284 191.072 110.89 191.15C110.334 191.24 109.771 191.281 109.208 191.273C108.094 191.273 106.479 191.373 104.507 191.395H104.273V191.139C104.273 190.148 104.273 189.09 104.273 187.976V184.455L104.552 184.166H110.935H111.18V184.478C111.18 186.539 111.102 188.254 111.057 189.424C111.032 190.026 110.961 190.626 110.846 191.217Z" fill="#263238"/>
<path d="M210.647 200.742C210.647 200.909 189.893 201.031 164.305 201.031C138.717 201.031 117.964 200.909 117.964 200.742C117.964 200.575 138.706 200.452 164.305 200.452C189.904 200.452 210.647 200.586 210.647 200.742Z" fill="#263238"/>
<path d="M110.846 204.095C110.774 203.459 110.737 202.819 110.734 202.179C110.734 200.987 110.634 199.349 110.612 197.389L110.846 197.645H104.463L104.741 197.355V199.138C104.741 199.728 104.741 200.307 104.741 200.864C104.741 201.978 104.741 203.037 104.741 204.028L104.507 203.783C106.367 203.783 107.938 203.861 109.063 203.905C109.674 203.915 110.284 203.956 110.89 204.028C110.335 204.125 109.771 204.166 109.208 204.15C108.094 204.206 106.479 204.262 104.507 204.284H104.273V204.028C104.273 203.037 104.273 201.978 104.273 200.864V197.355C104.028 197.623 104.607 197.01 104.552 197.066H110.935H111.18V197.311C111.18 199.383 111.102 201.087 111.057 202.257C111.036 202.874 110.965 203.489 110.846 204.095Z" fill="#263238"/>
<path d="M210.647 213.63C210.647 213.786 189.893 213.92 164.305 213.92C138.717 213.92 117.964 213.786 117.964 213.63C117.964 213.474 138.706 213.341 164.305 213.341C189.904 213.341 210.647 213.441 210.647 213.63Z" fill="#263238"/>
<path d="M110.846 216.983C110.775 216.343 110.738 215.7 110.734 215.056C110.734 213.875 110.634 212.227 110.612 210.277L110.846 210.522H104.463C104.463 210.578 104.986 209.965 104.741 210.233V212.015C104.741 212.606 104.741 213.185 104.741 213.753C104.741 214.867 104.741 215.925 104.741 216.917L104.507 216.66C106.367 216.66 107.938 216.738 109.063 216.794C109.674 216.79 110.285 216.831 110.89 216.917C110.333 216.999 109.771 217.04 109.208 217.039C108.094 217.039 106.479 217.139 104.507 217.162H104.273V216.917C104.273 215.925 104.273 214.867 104.273 213.753V210.233L104.552 209.943H110.935H111.18V210.199C111.18 212.26 111.102 213.976 111.057 215.134C111.034 215.755 110.963 216.373 110.846 216.983Z" fill="#263238"/>
<path d="M104.212 320.138C104.212 320.138 104.212 319.759 104.212 319.024C104.212 318.288 104.212 317.23 104.212 315.815C104.212 312.986 104.212 308.82 104.212 303.395C104.212 292.556 104.268 276.715 104.302 256.697L104.134 256.875L325.236 256.986L324.958 256.697C324.958 278.519 324.958 299.785 324.958 320.126L325.225 319.837L167.308 319.971L120.933 320.048H108.457H105.226H104.112H105.226H108.423H120.844L167.163 320.138L325.325 320.383H325.593V256.418H325.314L104.212 256.53H104.056V256.708C104.056 276.759 104.123 292.645 104.146 303.495C104.146 308.909 104.146 313.064 104.146 315.882C104.146 317.275 104.146 318.333 104.146 319.057C104.146 319.781 104.212 320.138 104.212 320.138Z" fill="#263238"/>
<path d="M104.212 272.671C104.212 272.827 153.573 272.961 214.496 272.961C275.419 272.961 324.78 272.827 324.78 272.671C324.78 272.515 275.43 272.382 214.496 272.382C153.562 272.382 104.212 272.482 104.212 272.671Z" fill="#263238"/>
<path d="M104.212 288.423C104.212 288.579 153.573 288.713 214.496 288.713C275.419 288.713 324.78 288.579 324.78 288.423C324.78 288.267 275.43 288.133 214.496 288.133C153.562 288.133 104.212 288.256 104.212 288.423Z" fill="#263238"/>
<path d="M104.212 304.342C104.212 304.498 153.573 304.631 214.496 304.631C275.419 304.631 324.78 304.498 324.78 304.342C324.78 304.186 275.43 304.052 214.496 304.052C153.562 304.052 104.212 304.186 104.212 304.342Z" fill="#263238"/>
<path d="M299.626 320.695C299.771 320.695 299.893 306.347 299.893 288.646C299.893 270.945 299.771 256.597 299.626 256.597C299.481 256.597 299.347 270.945 299.347 288.646C299.347 306.347 299.47 320.695 299.626 320.695Z" fill="#263238"/>
<path d="M224.856 318.756C225.001 318.756 225.123 305.066 225.123 288.167C225.123 271.268 225.001 257.566 224.856 257.566C224.711 257.566 224.577 271.268 224.577 288.167C224.577 305.066 224.7 318.756 224.856 318.756Z" fill="#263238"/>
<path d="M146.064 321.653C146.22 321.653 146.343 307.516 146.343 290.094C146.343 272.671 146.22 258.535 146.064 258.535C145.909 258.535 145.797 272.66 145.797 290.094C145.797 307.528 145.92 321.653 146.064 321.653Z" fill="#263238"/>
<path d="M108.412 334.352C108.412 334.508 156.692 334.642 216.234 334.642C275.776 334.642 324.067 334.508 324.067 334.352C324.067 334.196 275.798 334.062 216.234 334.062C156.67 334.062 108.412 334.196 108.412 334.352Z" fill="#263238"/>
<path d="M181.11 352.688C181.11 352.844 163.543 352.978 141.876 352.978C120.209 352.978 102.642 352.844 102.642 352.688C102.642 352.532 120.198 352.398 141.876 352.398C163.554 352.398 181.11 352.532 181.11 352.688Z" fill="#263238"/>
<g opacity="0.3">
<path opacity="0.3" d="M43.2222 320.416H55.8101L55.7767 309.566H43.2222V320.416Z" fill="black"/>
</g>
<path d="M49.2711 235.487C27.3815 235.487 9.55792 252.831 9.55792 274.142C9.55792 295.452 27.5932 312.785 49.4828 312.785H55.8102L55.6988 303.673L49.4605 303.918C32.0268 303.918 17.6231 290.55 17.6231 274.186C17.6231 257.822 31.8151 244.443 49.2489 244.443C66.6826 244.443 80.8746 257.811 80.8746 274.186C80.815 274.753 80.8753 275.326 81.0513 275.868C81.2274 276.41 81.5154 276.908 81.8967 277.332C82.278 277.755 82.744 278.094 83.2645 278.326C83.7851 278.557 84.3485 278.677 84.9184 278.677C85.4882 278.677 86.0516 278.557 86.5722 278.326C87.0927 278.094 87.5587 277.755 87.94 277.332C88.3213 276.908 88.6093 276.41 88.7854 275.868C88.9614 275.326 89.0216 274.753 88.9621 274.186C88.9844 252.831 71.1719 235.487 49.2711 235.487Z" fill="#5B5863"/>
<path d="M49.2712 235.487H50.218L52.9807 235.587C54.1838 235.698 55.6765 235.943 57.4366 236.2C59.441 236.628 61.4136 237.194 63.3407 237.893C68.6386 239.846 73.4718 242.881 77.5327 246.805C78.1008 247.395 78.6467 248.008 79.2482 248.631C79.5379 248.943 79.8386 249.244 80.1171 249.578L80.9192 250.614C81.4428 251.316 82.0332 251.996 82.5345 252.742L83.9938 255.081C85.9734 258.498 87.4268 262.193 88.3049 266.043C88.749 268.115 89.021 270.22 89.1181 272.337C89.2814 273.449 89.236 274.583 88.9844 275.679C88.6494 276.794 87.9 277.739 86.8901 278.319C86.3605 278.612 85.7707 278.779 85.1662 278.808C84.5617 278.837 83.9586 278.727 83.4034 278.486C82.8334 278.237 82.3219 277.872 81.9018 277.413C81.4816 276.954 81.1621 276.413 80.9638 275.824C80.7595 275.244 80.6577 274.633 80.663 274.019L80.5627 272.259C80.4936 271.069 80.3409 269.885 80.106 268.716C79.1059 263.825 76.8613 259.275 73.5892 255.505C71.8714 253.555 69.9181 251.826 67.7743 250.358C66.6836 249.601 65.5491 248.909 64.3767 248.286C63.7863 247.985 63.1624 247.729 62.5609 247.451C61.9559 247.151 61.3305 246.894 60.6894 246.682L58.7622 246.025C58.1161 245.835 57.4477 245.691 56.7794 245.524C55.4391 245.209 54.0814 244.975 52.7133 244.822C49.926 244.557 47.1167 244.631 44.3474 245.044C42.9415 245.25 41.55 245.544 40.1811 245.925C39.4905 246.114 38.8221 246.381 38.1425 246.604L37.1177 246.949L36.1374 247.395C33.4592 248.548 30.9577 250.075 28.7072 251.929C26.4035 253.802 24.3978 256.014 22.7585 258.49C21.056 260.978 19.7832 263.735 18.9933 266.644C18.1281 269.58 17.7998 272.648 18.0242 275.701C18.1538 278.81 18.8405 281.87 20.0516 284.735C22.9868 291.569 28.2973 297.11 35.0011 300.331C38.2109 301.908 41.665 302.929 45.2163 303.35C46.0833 303.479 46.9577 303.554 47.8341 303.573C48.7059 303.629 49.5803 303.629 50.452 303.573L55.6988 303.339H55.9884V303.673C55.9884 306.781 55.9884 309.833 56.0776 312.841V313.12H55.8102C53.4597 313.12 51.1426 313.12 48.8256 313.12L45.3722 312.941L42.0303 312.44C37.6403 311.599 33.4131 310.061 29.5092 307.884C28.5846 307.305 27.6155 306.77 26.7354 306.179C25.8554 305.589 24.9976 304.921 24.1287 304.297L21.7337 302.203C21.3377 301.857 20.9655 301.485 20.6197 301.089L19.5057 299.975C16.7662 297.004 14.5108 293.62 12.8219 289.949C12.4038 289.063 12.032 288.155 11.7079 287.231L11.1398 285.727L10.7722 284.334C10.5382 283.41 10.2375 282.507 10.0704 281.583C9.90327 280.658 9.78073 279.734 9.63592 278.82C9.19439 275.267 9.26943 271.669 9.85871 268.137C10.1157 266.469 10.4879 264.82 10.9727 263.202C11.2019 262.412 11.4733 261.635 11.7859 260.874C12.0978 260.128 12.3206 259.359 12.6771 258.646C13.3411 257.235 14.0849 255.862 14.905 254.536L16.097 252.642C16.5091 252.029 16.9882 251.461 17.4115 250.893C20.5627 246.806 24.4881 243.381 28.9634 240.811C29.4535 240.522 29.9214 240.221 30.4116 239.976L31.8597 239.296C32.76 238.848 33.6862 238.453 34.6335 238.116L37.2291 237.191C38.0646 236.946 38.8778 236.779 39.6464 236.578C40.99 236.234 42.3561 235.985 43.7347 235.832C44.3362 235.754 44.8487 235.654 45.3834 235.62H46.7536L48.6139 235.553H49.2377C49.2377 235.553 49.0261 235.553 48.6139 235.609L46.7647 235.721L45.3945 235.799C44.8932 235.799 44.3474 235.954 43.757 236.044C42.3852 236.209 41.0266 236.47 39.691 236.823C38.9335 237.035 38.1203 237.213 37.2959 237.458L34.7115 238.394C33.773 238.735 32.8576 239.137 31.9711 239.597L30.5341 240.277C30.0551 240.522 29.5872 240.823 29.1082 241.112C24.6685 243.672 20.774 247.079 17.6454 251.138C17.2221 251.706 16.7542 252.252 16.342 252.876C15.9299 253.5 15.5623 254.123 15.2281 254.758C14.4299 256.073 13.7119 257.434 13.0781 258.836C12.7216 259.537 12.4988 260.306 12.1981 261.063C11.888 261.812 11.6238 262.578 11.4071 263.358C10.917 264.959 10.5447 266.593 10.2932 268.249C9.72649 271.742 9.66272 275.298 10.1038 278.809C10.2486 279.711 10.3934 280.614 10.5382 281.538C10.6831 282.463 11.0061 283.343 11.2289 284.256L11.6077 285.627L12.1201 286.963C12.4877 287.855 12.7439 288.79 13.2341 289.648C14.9262 293.291 17.1818 296.644 19.9179 299.585L20.9762 300.699C21.3213 301.095 21.6935 301.468 22.0902 301.813L24.4629 303.874L27.0362 305.734C27.9051 306.358 28.8631 306.848 29.7766 307.405C33.6334 309.542 37.8082 311.046 42.1417 311.861L45.4837 312.362L48.9036 312.529C51.1983 312.585 53.5377 312.529 55.877 312.529L55.5985 312.819C55.5985 309.811 55.5428 306.759 55.5094 303.651L55.7991 303.929L50.5745 304.141C49.6916 304.196 48.8061 304.196 47.9233 304.141C47.032 304.122 46.1428 304.048 45.2609 303.918C41.648 303.486 38.134 302.446 34.8675 300.844C28.0399 297.579 22.6261 291.952 19.6283 285.003C18.3879 282.092 17.6714 278.984 17.5117 275.824C17.2795 272.707 17.6154 269.574 18.5032 266.578C19.288 263.595 20.5643 260.764 22.2795 258.201C23.9502 255.676 25.9977 253.422 28.3507 251.517C30.6405 249.628 33.1873 248.076 35.9146 246.905L36.9172 246.459L37.9532 246.092C38.6438 245.869 39.3234 245.601 40.0252 245.401C41.4204 245.02 42.8378 244.726 44.2694 244.521C47.0868 244.1 49.9454 244.029 52.7802 244.309C54.1675 244.462 55.544 244.7 56.9019 245.022C57.5814 245.189 58.2609 245.334 58.9182 245.535L60.8788 246.203C61.5281 246.417 62.161 246.677 62.7725 246.983C63.3964 247.272 64.0202 247.529 64.6217 247.841C65.8103 248.479 66.9632 249.182 68.0751 249.946C70.2493 251.448 72.232 253.21 73.9791 255.193C77.2972 259.034 79.572 263.664 80.585 268.638C80.8211 269.829 80.9701 271.035 81.0306 272.248L81.1309 274.03C81.1235 274.595 81.2139 275.156 81.3982 275.69C81.5775 276.209 81.8605 276.686 82.2302 277.092C82.5998 277.498 83.0483 277.825 83.5482 278.052C84.0399 278.263 84.5732 278.36 85.1077 278.334C85.6423 278.309 86.1641 278.163 86.6339 277.907C87.5625 277.378 88.2525 276.513 88.5611 275.489C88.7881 274.446 88.8258 273.371 88.6725 272.315C88.5859 270.217 88.3251 268.131 87.8927 266.076C87.0285 262.271 85.6058 258.615 83.6707 255.226L82.2225 252.909C81.7324 252.152 81.1086 251.483 80.6407 250.781L79.8498 249.757C79.5713 249.422 79.2705 249.122 78.992 248.81C78.4128 248.197 77.8781 247.584 77.2988 246.983C73.279 243.078 68.497 240.044 63.2516 238.071C61.3415 237.358 59.3834 236.781 57.392 236.344C55.6542 236.055 54.1727 235.799 52.9361 235.676L50.1735 235.509L49.2712 235.487Z" fill="#5B5863"/>
<path d="M43.2223 435.891L36.2376 455.096H375.967V435.891H43.2223Z" fill="#44414E"/>
<path d="M64.1649 413.121H70.0133L86.8343 413.177L149.039 413.489L357.352 414.748L357.062 415.037V386.486C357.062 297.636 357.129 217.218 357.152 158.99C357.152 129.893 357.218 106.344 357.241 90.0574C357.241 81.9253 357.241 75.5757 357.296 71.3091C357.296 69.1703 357.296 67.5439 357.296 66.4411C357.296 65.3382 357.296 64.7812 357.296 64.7812C357.296 64.7812 357.296 65.3382 357.296 66.4411C357.296 67.5439 357.296 69.1703 357.296 71.3091C357.296 75.6091 357.296 81.9253 357.296 90.0574C357.296 106.344 357.352 129.893 357.397 158.99C357.397 217.218 357.397 297.636 357.475 386.486V415.316H357.185L148.872 413.868L86.89 413.378L70.069 413.222H65.7022L64.1649 413.121Z" fill="#263238"/>
<path d="M59.3415 408.387C59.3415 408.387 59.8428 408.387 60.8231 408.387H81.9886L144.059 408.532L352.005 409.211L351.716 409.501C351.716 399.92 351.716 389.728 351.716 379.423C351.838 290.305 351.949 209.609 352.039 151.203C352.105 122.006 352.161 98.3785 352.194 82.0476C352.194 73.8822 352.195 67.5659 352.272 63.2437C352.272 61.0937 352.272 59.4673 352.272 58.3533C352.272 57.2394 352.272 56.6824 352.272 56.6824C352.272 56.6824 352.272 57.2505 352.272 58.3533C352.272 59.4562 352.272 61.0937 352.272 63.2437C352.272 67.5548 352.272 73.8822 352.272 82.0476C352.272 98.3785 352.272 122.006 352.272 151.203C352.272 209.609 352.183 290.294 352.128 379.423C352.128 389.728 352.128 399.92 352.128 409.501V409.79H352.016L144.07 408.921L81.9998 408.598L65.2233 408.487H60.8676L59.3415 408.387Z" fill="#263238"/>
<path d="M68.4984 417.666C68.4984 417.666 68.9996 417.666 69.9799 417.666H74.3356L91.1343 417.722L153.25 418.034L361.006 419.281L360.716 419.571C360.716 411.183 360.783 402.238 360.817 393.203C361.195 305.132 361.53 225.405 361.775 167.69C361.919 138.838 362.042 115.5 362.131 99.3477C362.131 91.2937 362.22 85.0332 362.254 80.7778C362.254 78.6612 362.254 77.0348 362.254 75.9431C362.254 74.8514 362.254 74.2944 362.254 74.2944C362.254 74.2944 362.254 74.8514 362.254 75.9431C362.254 77.0348 362.254 78.6612 362.254 80.7778C362.254 85.0332 362.254 91.2937 362.254 99.3589C362.254 115.5 362.153 138.849 362.075 167.69C361.886 225.405 361.608 305.132 361.296 393.203C361.296 402.238 361.229 411.183 361.195 419.571V419.861H360.906L153.25 418.413L91.1343 417.934L74.3356 417.766L69.9799 417.711L68.4984 417.666Z" fill="#263238"/>
<path d="M352.306 88.208H379.587L389.301 99.125L380.846 112.136H352.284L352.306 88.208Z" fill="#FD3E72"/>
<path d="M440.533 414.135L434.228 435.958C434.228 435.958 454.279 449.693 453.533 453.848L410.767 443.143L419.189 408.732L440.533 414.135Z" fill="#5B5863"/>
<path d="M421.473 430.8C421.03 430.824 420.612 431.01 420.298 431.322C419.983 431.634 419.795 432.051 419.768 432.493C419.776 432.935 419.952 433.357 420.261 433.674C420.569 433.991 420.986 434.178 421.428 434.198C421.898 434.173 422.341 433.975 422.673 433.641C423.004 433.308 423.2 432.863 423.222 432.393C423.171 431.932 422.942 431.509 422.585 431.213C422.227 430.918 421.768 430.774 421.305 430.811" fill="#E0E0E0"/>
<g opacity="0.6">
<path opacity="0.6" d="M410.767 443.143L411.759 439.712L452.385 451.253C452.385 451.253 454.079 452.556 453.499 453.848L410.767 443.143Z" fill="white"/>
</g>
<path d="M434.985 435.913C434.918 436.125 433.871 435.913 432.657 436.37C431.443 436.827 430.696 437.484 430.529 437.395C430.362 437.306 430.964 436.136 432.423 435.657C433.882 435.178 435.074 435.735 434.985 435.913Z" fill="#263238"/>
<path d="M439.007 438.899C439.007 439.11 438.004 439.233 437.079 439.946C436.155 440.659 435.709 441.528 435.498 441.472C435.286 441.416 435.498 440.191 436.612 439.344C437.726 438.498 439.051 438.698 439.007 438.899Z" fill="#263238"/>
<path d="M440.21 444.903C440.009 444.903 439.976 443.789 440.8 442.775C441.624 441.762 442.705 441.55 442.75 441.75C442.794 441.951 442.048 442.408 441.379 443.243C440.711 444.079 440.421 444.925 440.21 444.903Z" fill="#263238"/>
<path d="M435.865 430.778C435.731 430.956 434.84 430.421 433.637 430.21C432.434 429.998 431.409 430.132 431.409 429.931C431.409 429.731 432.412 429.196 433.827 429.474C435.241 429.753 436.01 430.666 435.865 430.778Z" fill="#263238"/>
<path d="M425.539 419.27L424.547 441.973C424.547 441.973 447.283 450.595 447.517 454.817L403.437 454.472L403.526 419.048L425.539 419.27Z" fill="#5B5863"/>
<path d="M410.934 439.957C410.512 440.084 410.15 440.362 409.918 440.737C409.686 441.113 409.6 441.561 409.676 441.996C409.784 442.426 410.054 442.798 410.43 443.034C410.805 443.27 411.257 443.353 411.692 443.265C412.143 443.133 412.529 442.837 412.774 442.435C413.019 442.034 413.106 441.555 413.018 441.093C412.863 440.655 412.544 440.294 412.128 440.086C411.713 439.879 411.233 439.84 410.79 439.979" fill="#E0E0E0"/>
<g opacity="0.6">
<path opacity="0.6" d="M403.437 454.472L403.582 450.896L445.791 452.567C445.791 452.567 447.751 453.436 447.517 454.795L403.437 454.472Z" fill="white"/>
</g>
<path d="M425.271 441.806C425.271 442.018 424.157 442.107 423.121 442.798C422.085 443.488 421.484 444.379 421.283 444.29C421.083 444.201 421.417 442.965 422.72 442.163C424.024 441.361 425.316 441.55 425.271 441.806Z" fill="#263238"/>
<path d="M429.872 443.7C429.928 443.911 428.992 444.268 428.246 445.17C427.499 446.073 427.299 447.042 427.076 447.031C426.853 447.019 426.742 445.794 427.677 444.691C428.613 443.588 429.872 443.488 429.872 443.7Z" fill="#263238"/>
<path d="M432.456 449.248C432.267 449.248 431.966 448.223 432.534 447.02C433.102 445.816 434.105 445.382 434.194 445.571C434.283 445.761 433.659 446.373 433.214 447.343C432.768 448.312 432.668 449.236 432.456 449.248Z" fill="#263238"/>
<path d="M424.915 436.548C424.826 436.749 423.801 436.448 422.631 436.548C421.461 436.648 420.459 437.005 420.347 436.815C420.236 436.626 421.149 435.869 422.575 435.802C424.001 435.735 425.026 436.381 424.915 436.548Z" fill="#263238"/>
<path d="M425.539 436.292C425.68 438.127 425.68 439.971 425.539 441.806L425.36 441.539C427.934 442.519 431.354 443.834 434.996 445.549C438.444 447.063 441.717 448.95 444.755 451.175C445.694 451.853 446.511 452.685 447.172 453.637C447.64 454.338 447.573 454.884 447.506 454.862C447.391 454.474 447.197 454.114 446.938 453.804C446.213 452.949 445.374 452.199 444.443 451.576C441.353 449.504 438.088 447.708 434.684 446.206C431.064 444.502 427.677 443.121 425.16 442.04L424.97 441.962V441.773C425.024 439.934 425.214 438.102 425.539 436.292Z" fill="#263238"/>
<path d="M401.031 267.458V283.766L405.409 347.263C405.409 347.263 402.68 378.064 401.009 395.454C399.561 410.559 401.933 436.86 401.933 436.86H427.432L436.556 349.146L442.215 294.449L452.051 269.552L401.031 267.458Z" fill="#4D2A15"/>
<path d="M469.485 270.365L463.269 358.893L437.492 425.219L436.311 429.218L421.083 425.542L432.412 268.572L469.485 270.365Z" fill="#4D2A15"/>
<path d="M445.278 282.652C445.29 282.786 445.29 282.92 445.278 283.053C445.278 283.343 445.278 283.733 445.278 284.234C445.278 285.292 445.189 286.807 445.122 288.69C445 292.611 444.688 298.293 444.242 305.299C443.318 319.302 441.569 338.641 438.862 359.884C436.155 381.128 433.292 400.388 431.064 414.291C429.95 421.209 429.081 426.834 428.468 430.744C428.145 432.66 427.9 434.164 427.733 435.2C427.644 435.69 427.577 436.08 427.522 436.314C427.508 436.451 427.478 436.586 427.432 436.715C427.424 436.582 427.424 436.448 427.432 436.314C427.432 436.024 427.522 435.635 427.588 435.144C427.733 434.086 427.945 432.582 428.212 430.689C428.78 426.778 429.605 421.153 430.63 414.213C432.679 400.299 435.564 381.083 438.238 359.806C440.911 338.529 442.75 319.213 443.808 305.221C444.298 298.215 444.677 292.544 444.866 288.623C444.978 286.685 445.067 285.17 445.133 284.112C445.133 283.621 445.2 283.232 445.211 282.998C445.221 282.88 445.244 282.765 445.278 282.652Z" fill="#351B0B"/>
<path d="M427.477 107.903V150.602C427.477 157.854 436.188 170.876 447.662 170.364H448.598C458.523 169.172 452.876 157.364 452.876 150.591C452.876 147.371 452.876 144.698 452.876 144.364C452.876 144.364 463.748 143.35 464.539 132.589C464.918 127.398 464.84 116.626 464.65 106.878C464.558 101.83 462.565 97.0024 459.069 93.3596C455.573 89.7168 450.831 87.5271 445.791 87.2278L444.755 87.1609C433.515 87.1386 427.198 96.6631 427.477 107.903Z" fill="#FFBF9D"/>
<path d="M452.876 144.375C447.903 144.055 443.125 142.32 439.107 139.373C439.107 139.373 442.048 147.449 452.853 147.171L452.876 144.375Z" fill="#F2B08D"/>
<path d="M427.867 115.924C427.689 115.834 420.604 113.283 420.392 120.658C420.18 128.033 427.622 126.729 427.644 126.518C427.666 126.306 427.867 115.924 427.867 115.924Z" fill="#FFBF9D"/>
<path d="M425.472 123.655C425.472 123.655 425.338 123.744 425.115 123.844C424.808 123.968 424.465 123.968 424.157 123.844C423.691 123.528 423.317 123.092 423.074 122.583C422.831 122.074 422.728 121.51 422.776 120.948C422.774 120.316 422.915 119.691 423.188 119.121C423.262 118.892 423.392 118.686 423.565 118.519C423.737 118.352 423.949 118.229 424.18 118.163C424.327 118.126 424.483 118.143 424.62 118.211C424.756 118.278 424.865 118.391 424.926 118.531C425.026 118.742 424.926 118.887 425.004 118.898C425.082 118.909 425.171 118.787 425.115 118.475C425.084 118.292 424.989 118.127 424.848 118.007C424.646 117.849 424.391 117.773 424.135 117.795C423.83 117.848 423.544 117.978 423.304 118.173C423.064 118.368 422.879 118.622 422.765 118.909C422.432 119.542 422.256 120.245 422.252 120.959C422.197 121.615 422.337 122.272 422.654 122.849C422.971 123.426 423.451 123.896 424.035 124.201C424.232 124.262 424.44 124.279 424.644 124.25C424.848 124.221 425.043 124.147 425.216 124.034C425.449 123.833 425.539 123.677 425.472 123.655Z" fill="#FF9A6C"/>
<path d="M417.93 104.104C419.434 101.487 419.757 98.3897 420.559 95.471C421.361 92.5524 422.954 89.5447 425.784 88.4976H425.851C428.39 87.3836 431.543 87.3836 433.648 89.1437C434.116 85.3004 437.447 82.2259 441.168 81.201C445.622 80.277 450.245 80.589 454.535 82.1033C457.32 83.2173 460.027 85.4453 463.325 88.7872C464.72 90.1878 465.998 91.7004 467.146 93.3099L470.488 103.336L467.758 108.627C467.604 109.009 467.425 109.381 467.224 109.741L464.84 120.881C464.65 117.862 464.751 107.335 464.55 104.305C462.274 104.264 460.031 103.763 457.953 102.833C455.876 101.903 454.009 100.562 452.463 98.8909C450.792 97.0863 449.467 94.8027 447.239 93.7332C444.376 92.3631 440.989 93.4213 437.993 94.5019L438.127 94.3905C436.564 95.1311 435.161 96.1677 433.994 97.4428C434.741 103.412 434.194 109.472 432.39 115.211C432.111 116.08 431.365 117.851 430.529 118.185C428.881 118.842 428.413 117.16 427.41 116.28C426.52 115.692 425.449 115.443 424.391 115.578C423.532 113.08 422.825 110.532 422.275 107.948C421.275 108.268 420.215 108.352 419.178 108.193L420.114 105.898C419.72 106.196 419.269 106.409 418.788 106.522C418.549 106.569 418.301 106.544 418.076 106.448C417.852 106.353 417.661 106.192 417.529 105.987C417.239 105.307 417.618 104.65 417.93 104.104Z" fill="#565360"/>
<path d="M437.057 90.3579C436.66 90.6579 436.287 90.9894 435.943 91.3494C435.105 92.3905 434.549 93.6295 434.328 94.9475C434.16 95.8473 434.081 96.7615 434.094 97.6767C434.094 98.6682 434.194 99.7264 434.272 100.84C434.393 102.013 434.434 103.193 434.395 104.372C434.373 104.996 434.302 105.618 434.183 106.232C434.09 106.89 433.833 107.514 433.437 108.048C433.253 108.258 433.018 108.418 432.754 108.509C432.491 108.601 432.207 108.623 431.933 108.571C431.4 108.482 430.913 108.215 430.551 107.814C429.941 107.026 429.556 106.086 429.437 105.096H429.66C429.339 105.895 428.908 106.645 428.379 107.324C427.851 107.946 427.107 108.344 426.296 108.438C425.915 108.481 425.53 108.419 425.182 108.259C424.866 108.09 424.604 107.835 424.425 107.524C424.258 107.237 424.177 106.909 424.191 106.577C424.2 106.265 424.318 105.965 424.525 105.731L424.636 105.831C424.025 106.567 423.266 107.166 422.408 107.591C422.096 107.736 421.851 107.825 421.695 107.881L421.439 107.948C421.439 107.948 421.517 107.948 421.673 107.836C421.829 107.725 422.074 107.669 422.364 107.524C423.218 107.08 423.975 106.47 424.592 105.731L424.703 105.831C424.539 106.066 424.451 106.346 424.451 106.633C424.451 106.92 424.539 107.2 424.703 107.435C424.864 107.715 425.104 107.94 425.394 108.081C425.708 108.223 426.054 108.277 426.396 108.237C427.158 108.127 427.848 107.728 428.324 107.123C428.84 106.444 429.257 105.693 429.56 104.895L429.716 104.55L429.783 104.929C429.892 105.868 430.246 106.763 430.808 107.524C431.132 107.877 431.562 108.115 432.033 108.204C432.267 108.246 432.508 108.227 432.732 108.149C432.956 108.071 433.157 107.936 433.314 107.758C433.681 107.255 433.918 106.67 434.005 106.054C434.125 105.455 434.195 104.848 434.216 104.238C434.257 103.071 434.223 101.903 434.116 100.74C434.027 99.6262 433.949 98.5122 433.949 97.5542C433.945 96.6224 434.038 95.6928 434.228 94.7804C434.462 93.4464 435.051 92.1999 435.932 91.1711C436.262 90.8429 436.642 90.5685 437.057 90.3579Z" fill="#918D9A"/>
<path d="M470.432 100.428C470.432 100.428 470.432 100.428 470.343 100.506L470.075 100.707C469.936 100.817 469.787 100.914 469.63 100.996C469.418 101.129 469.199 101.248 468.972 101.353C467.541 102.028 465.962 102.331 464.383 102.233C462.025 102.11 459.753 101.305 457.844 99.9158C455.58 98.1897 453.686 96.0267 452.274 93.555C451.483 92.2628 450.826 90.9372 450.113 89.7118C449.443 88.5094 448.602 87.41 447.618 86.4479C446.751 85.5777 445.678 84.9415 444.498 84.5987C443.965 84.4568 443.412 84.4004 442.861 84.4316C442.352 84.4649 441.85 84.5661 441.368 84.7324C440.535 85.0283 439.776 85.4993 439.14 86.1137C438.662 86.575 438.26 87.1089 437.948 87.6955C437.704 88.2099 437.525 88.7524 437.414 89.3108C437.414 89.3108 437.414 89.3108 437.414 89.1994V88.8763C437.493 88.4535 437.624 88.042 437.803 87.651C438.1 87.0415 438.5 86.4876 438.984 86.0134C439.617 85.3798 440.376 84.8864 441.212 84.5653C441.708 84.3866 442.225 84.2742 442.75 84.2311C443.319 84.1997 443.89 84.2561 444.443 84.3982C445.661 84.7387 446.772 85.3826 447.673 86.2696C448.66 87.2591 449.5 88.3845 450.169 89.6116C450.893 90.8369 451.55 92.1626 452.341 93.4436C453.757 95.8969 455.651 98.0409 457.911 99.7487C459.807 101.12 462.057 101.917 464.394 102.044C465.965 102.165 467.541 101.897 468.984 101.264C469.485 101.018 469.968 100.739 470.432 100.428Z" fill="#918D9A"/>
<path d="M466.21 92.0178C466.608 92.6803 467.167 93.2317 467.835 93.6211C468.503 94.0105 469.258 94.2253 470.031 94.2458C470.576 94.1233 471.112 93.9632 471.635 93.7668C472.158 94.0898 472.036 95.8945 471.635 96.3957C471.295 96.7977 470.923 97.1703 470.521 97.5097C472.281 98.4677 473.863 97.9999 475.779 97.3092C475.593 98.917 474.988 100.448 474.024 101.748C473.06 103.048 471.771 104.072 470.287 104.717C469.827 104.953 469.317 105.076 468.8 105.076C468.283 105.076 467.773 104.953 467.313 104.717C466.612 104.13 466.152 103.305 466.02 102.4C465.172 99.1703 464.731 95.8472 464.706 92.508L466.21 92.0178Z" fill="#565360"/>
<path d="M479.6 188.165L482.073 211.369L516.428 220.281C516.428 220.281 517.442 232.379 516.428 232.657C515.414 232.936 473.651 233.337 469.908 227.544C466.165 221.751 469.418 228.658 468.972 227.544C468.527 226.43 462.144 192.086 462.144 192.086L479.6 188.165Z" fill="#FFBF9D"/>
<path d="M506.046 231.443C506.046 231.443 515.548 232.557 517.765 232.624C519.981 232.691 526.253 231.109 526.253 231.109C526.253 231.109 536.502 233.069 537.025 232.524C537.549 231.978 538.251 231.41 537.627 230.919C537.003 230.429 529.138 227.923 529.138 227.923L534.497 227.845C534.497 227.845 542.183 229.984 542.762 229.772C543.342 229.56 544.155 228.658 543.709 227.856L543.264 227.087C543.428 226.713 543.448 226.291 543.321 225.903C543.193 225.514 542.927 225.186 542.573 224.982L541.849 224.692L542.06 224.046C542.14 223.557 542.077 223.056 541.88 222.602C541.682 222.147 541.358 221.759 540.946 221.484C539.454 220.37 536.301 218.086 536.301 218.086L526.442 216.56L507.505 219.379" fill="#FFBF9D"/>
<path d="M507.527 227.923C507.88 228.269 508.252 228.597 508.641 228.903C509.791 229.65 511.136 230.037 512.507 230.017C514.546 229.909 516.54 229.382 518.366 228.468C520.494 227.577 522.822 226.352 525.674 226.241C526.376 226.241 527.055 226.319 527.623 226.241C527.871 226.218 528.1 226.104 528.267 225.92C528.434 225.737 528.527 225.497 528.526 225.249C528.459 224.837 527.79 224.714 527.2 224.57L525.462 224.146L519.447 222.642L515.403 221.528C514.902 221.422 514.413 221.266 513.944 221.061C514.455 221.099 514.962 221.181 515.459 221.306L519.547 222.197L525.585 223.578L527.334 223.99C527.65 224.055 527.962 224.137 528.269 224.235C528.464 224.3 528.639 224.411 528.781 224.558C528.922 224.706 529.026 224.885 529.083 225.082C529.121 225.483 529.001 225.882 528.749 226.196C528.498 226.51 528.134 226.714 527.735 226.764C527.056 226.802 526.375 226.802 525.696 226.764C523.067 226.898 520.728 228.079 518.578 228.992C516.679 229.9 514.611 230.398 512.507 230.451C511.066 230.439 509.666 229.971 508.507 229.115C508.202 228.876 507.929 228.599 507.694 228.29C507.583 228.101 507.505 227.978 507.527 227.923Z" fill="#FF9A6C"/>
<path d="M525.328 221.684C528.094 221.735 530.86 221.642 533.616 221.406L535.254 221.183H535.388L535.488 221.261C537.234 222.592 539.182 223.634 541.258 224.347C540.609 224.358 539.965 224.237 539.365 223.99C537.826 223.512 536.388 222.757 535.12 221.762H535.354C534.82 221.851 534.24 221.941 533.683 222.007C531.716 222.24 529.731 222.277 527.757 222.119C526.93 222.1 526.111 221.954 525.328 221.684Z" fill="#FF9A6C"/>
<path d="M534.385 224.893C534.463 224.737 536.379 225.561 538.841 226.085C541.303 226.608 543.431 226.686 543.431 226.865C541.864 227.154 540.253 227.082 538.719 226.653C537.157 226.41 535.674 225.807 534.385 224.893Z" fill="#FF9A6C"/>
<path d="M472.381 271.546C472.381 271.546 469.763 200.463 468.438 188.132C467.112 175.8 463.915 153.598 463.915 153.598L452.775 149.488V149.588C452.898 150.958 452.775 156.495 448.553 157.319C437.135 159.547 426.976 146.814 426.976 146.814L404.551 157.954L407.058 222.475L400.374 268.026L472.381 271.546Z" fill="#FD3E72"/>
<path d="M458.289 219.613L413.73 214.8L418.431 185.224L402.346 178.54H396.575C396.575 178.54 393.356 211.002 392.598 217.05C391.807 223.456 392.598 234.061 406.345 234.673C413.029 234.974 457.298 231.71 457.298 231.71L458.289 219.613Z" fill="#FFBF9D"/>
<path d="M414.054 159.38C423.611 164.95 420.192 198.469 420.192 198.469L391.139 197.556L394.904 170.976C395.789 166.929 397.929 163.264 401.02 160.505C402.736 158.816 404.902 157.656 407.258 157.163C408.486 156.97 409.741 157.07 410.922 157.455C412.103 157.84 413.176 158.5 414.054 159.38Z" fill="#FD3E72"/>
<path d="M474.709 163.179C471.679 156.105 463.792 153.576 463.792 153.576L466.889 195.907L482.329 194.793C482.329 194.793 478.575 172.224 474.709 163.179Z" fill="#FD3E72"/>
<path d="M467.936 167.635C468.104 167.635 468.672 176.357 469.218 187.118C469.763 197.879 470.064 206.635 469.908 206.635C469.752 206.635 469.173 197.924 468.638 187.151C468.104 176.379 467.781 167.646 467.936 167.635Z" fill="#D92455"/>
<path d="M453.477 231.443C453.477 231.443 462.968 232.557 465.185 232.624C467.402 232.691 473.673 231.109 473.673 231.109C473.673 231.109 483.922 233.07 484.446 232.524C484.969 231.978 485.671 231.41 485.047 230.92C484.423 230.429 476.592 227.912 476.592 227.912L481.95 227.834C481.95 227.834 489.637 229.973 490.227 229.761C490.818 229.549 491.608 228.647 491.163 227.845L490.717 227.076C490.882 226.702 490.902 226.28 490.775 225.892C490.647 225.503 490.381 225.175 490.027 224.971L489.303 224.681L489.514 224.035C489.596 223.546 489.535 223.044 489.337 222.589C489.139 222.134 488.814 221.747 488.4 221.473C486.907 220.359 483.755 218.075 483.755 218.075L473.896 216.549L454.959 219.368" fill="#FFBF9D"/>
<path d="M454.903 219.367C455.01 219.322 455.122 219.292 455.237 219.278L456.229 219.1L460.016 218.476L473.818 216.326H473.885L483.755 217.808H483.822H483.877C484.991 218.621 486.105 219.456 487.309 220.303C487.935 220.728 488.531 221.197 489.091 221.707C489.378 222.017 489.59 222.39 489.71 222.796C489.829 223.201 489.854 223.629 489.782 224.046C489.715 224.247 489.648 224.469 489.581 224.692L489.414 224.347L490.138 224.636C490.351 224.742 490.541 224.888 490.696 225.068C490.851 225.248 490.968 225.457 491.04 225.684C491.165 226.151 491.138 226.647 490.962 227.098V226.842C491.165 227.161 491.348 227.492 491.508 227.834C491.573 228.047 491.589 228.272 491.554 228.492C491.519 228.712 491.435 228.921 491.308 229.103C491.08 229.47 490.746 229.758 490.35 229.928C490.221 229.955 490.088 229.955 489.96 229.928H489.659L489.102 229.828C487.643 229.538 486.183 229.159 484.724 228.78L481.872 228.023H481.95L476.592 228.101L476.681 227.544C478.62 228.175 480.51 228.814 482.351 229.46C483.276 229.805 484.156 230.084 485.081 230.518C485.219 230.592 485.341 230.695 485.437 230.819C485.542 230.976 485.586 231.166 485.56 231.354C485.485 231.629 485.343 231.882 485.147 232.089C484.98 232.278 484.813 232.434 484.646 232.601C484.511 232.719 484.335 232.778 484.156 232.768C484.034 232.779 483.911 232.779 483.788 232.768C482.006 232.645 480.232 232.422 478.475 232.1C476.781 231.81 475.133 231.521 473.629 231.22H473.729C470.996 231.952 468.204 232.448 465.385 232.702C462.868 232.579 460.729 232.278 458.969 232.089L454.892 231.565L453.778 231.409C453.655 231.406 453.534 231.379 453.421 231.331C453.543 231.314 453.667 231.314 453.789 231.331L454.903 231.421L458.98 231.81C460.74 231.966 462.912 232.234 465.374 232.312C468.157 232.022 470.911 231.501 473.607 230.752H473.707C475.244 231.042 476.859 231.32 478.542 231.588C480.274 231.897 482.022 232.113 483.777 232.234H484.1C484.189 232.234 484.312 232.178 484.256 232.234C484.423 232.067 484.579 231.911 484.724 231.744C484.854 231.613 484.95 231.452 485.003 231.276C485.003 231.187 485.003 231.097 484.791 231.008C484 230.641 483.053 230.318 482.151 229.995C480.324 229.36 478.43 228.725 476.492 228.101L474.865 227.566H476.581L481.928 227.488H482.017L484.858 228.257C486.317 228.636 487.765 229.003 489.202 229.293L489.737 229.382C489.87 229.394 490.005 229.394 490.138 229.382C490.414 229.256 490.647 229.05 490.806 228.792C490.89 228.68 490.948 228.551 490.975 228.414C491.002 228.277 490.998 228.136 490.962 228.001C490.862 227.778 490.628 227.41 490.461 227.121L490.394 226.998V226.864C490.512 226.532 490.531 226.172 490.45 225.828C490.405 225.674 490.326 225.532 490.22 225.41C490.115 225.289 489.984 225.192 489.837 225.127L489.113 224.826L488.868 224.737L489.035 224.581C489.113 224.358 489.18 224.135 489.247 223.935C489.297 223.606 489.273 223.271 489.177 222.953C489.08 222.634 488.914 222.342 488.69 222.097C488.155 221.618 487.589 221.176 486.997 220.771L483.566 218.253H483.688L473.829 216.694H473.896L460.072 218.732L456.273 219.234L455.271 219.345C455.149 219.367 455.026 219.374 454.903 219.367Z" fill="#FF9A6C"/>
<path d="M475.378 222.999C476.125 223.324 476.926 223.509 477.739 223.545C479.66 223.606 481.567 223.894 483.421 224.403C484.392 224.823 485.341 225.295 486.261 225.818C487.045 226.22 487.852 226.573 488.679 226.876C489.424 227.197 490.212 227.411 491.018 227.511C490.294 227.154 489.55 226.837 488.79 226.564C488.111 226.274 487.308 225.896 486.451 225.45C485.527 224.895 484.567 224.404 483.577 223.98C482.547 223.618 481.47 223.407 480.38 223.356C479.388 223.289 478.497 223.267 477.762 223.222C476.291 223.144 475.4 222.921 475.378 222.999Z" fill="#FF9A6C"/>
<path d="M476.414 220.259C477.087 220.54 477.812 220.681 478.542 220.671C480.245 220.622 481.939 220.953 483.499 221.64C485.292 222.531 486.93 223.389 488.122 223.946C488.749 224.302 489.414 224.586 490.105 224.793C489.536 224.359 488.924 223.985 488.278 223.679C487.108 223.033 485.515 222.141 483.688 221.239C482.817 220.792 481.867 220.516 480.892 220.426C480.001 220.348 479.21 220.37 478.553 220.359C477.238 220.348 476.436 220.192 476.414 220.259Z" fill="#FF9A6C"/>
<path d="M393.033 197.611C393.203 197.59 393.375 197.59 393.545 197.611H395.038L400.519 197.689C405.153 197.779 411.536 197.957 418.599 198.168L420.192 198.224L419.902 198.525C419.724 193.122 419.568 188.198 419.445 184.233C419.122 181.258 419.011 178.863 418.877 177.181C418.877 176.401 418.788 175.766 418.743 175.254C418.719 175.028 418.719 174.8 418.743 174.574C418.825 174.785 418.873 175.007 418.888 175.232C418.966 175.677 419.044 176.346 419.144 177.159C419.345 178.819 419.534 181.247 419.902 184.166C420.058 188.132 420.258 193.078 420.481 198.458V198.77H420.169H418.565C411.514 198.558 405.119 198.324 400.496 198.124L395.027 197.857L393.534 197.756C393.361 197.733 393.192 197.684 393.033 197.611Z" fill="#D92455"/>
<path d="M527.222 345.648H518.377V452.199H527.222V345.648Z" fill="#9995A3"/>
<path d="M511.148 327.022H507.304V334.241H511.148V327.022Z" fill="#5B5863"/>
<path d="M515.258 329.194H510.847V332.18H515.258V329.194Z" fill="#9995A3"/>
<path d="M531.233 241.703H514.367V345.648H531.233V241.703Z" fill="#5B5863"/>
<path d="M555.718 450.183H489.57V454.918H555.718V450.183Z" fill="#5B5863"/>
<path d="M605 231.621H379.342V241.714H605V231.621Z" fill="#8F4620"/>
<path d="M562.19 173.004H499.729C497.657 173.004 495.686 174.118 495.374 176.346L487.052 227.355H454.179C453.664 227.408 453.186 227.651 452.839 228.035C452.492 228.42 452.3 228.92 452.3 229.438C452.3 229.956 452.492 230.456 452.839 230.84C453.186 231.225 453.664 231.468 454.179 231.521H559.216L566.39 178.262C566.505 177.634 566.484 176.989 566.329 176.371C566.173 175.752 565.887 175.174 565.489 174.675C565.091 174.177 564.59 173.769 564.021 173.481C563.452 173.193 562.827 173.03 562.19 173.004Z" fill="#5B5863"/>
<path d="M562.19 173.004C562.566 173.028 562.939 173.088 563.304 173.182C564.328 173.496 565.193 174.189 565.721 175.12C566.118 175.798 566.341 176.564 566.367 177.348C566.371 177.796 566.338 178.243 566.267 178.685C566.2 179.164 566.133 179.643 566.067 180.156C565.792 182.183 565.472 184.519 565.109 187.163C563.672 197.69 561.611 212.873 559.093 231.465L559.193 231.376H457.699H454.223C454.01 231.378 453.799 231.34 453.6 231.265C453.201 231.094 452.875 230.791 452.675 230.407C452.473 230.023 452.397 229.585 452.456 229.156C452.516 228.726 452.71 228.326 453.009 228.012C453.302 227.705 453.7 227.522 454.123 227.5H487.186V227.388C489.971 210.278 492.578 194.303 494.906 179.977L495.34 177.304C495.418 176.869 495.474 176.424 495.563 176.001C495.67 175.601 495.847 175.224 496.087 174.887C496.588 174.193 497.311 173.69 498.136 173.461C498.541 173.332 498.96 173.254 499.384 173.227C499.796 173.227 500.231 173.227 500.654 173.227H528.136H553.178H559.862H553.178H528.136H510.546H500.643C500.22 173.227 499.796 173.227 499.351 173.227C498.912 173.255 498.479 173.333 498.058 173.461C497.188 173.708 496.427 174.242 495.897 174.976C495.636 175.349 495.447 175.769 495.34 176.212C495.24 176.669 495.184 177.103 495.106 177.538L494.672 180.211C492.333 194.537 489.715 210.5 486.874 227.622L487.008 227.511H454.09C453.593 227.535 453.123 227.746 452.775 228.101C452.44 228.46 452.223 228.914 452.156 229.4C452.088 229.887 452.172 230.382 452.397 230.819C452.639 231.266 453.034 231.61 453.511 231.788C453.739 231.885 453.986 231.935 454.235 231.933H457.71H559.204H559.216V231.844C561.711 213.241 563.738 198.057 565.142 187.519C565.498 184.89 565.81 182.554 566.078 180.512L566.267 179.042C566.349 178.594 566.383 178.138 566.367 177.683C566.333 176.896 566.104 176.13 565.699 175.455C565.156 174.518 564.275 173.825 563.237 173.516C562.972 173.441 562.699 173.396 562.424 173.383L562.19 173.004Z" fill="#263238"/>
<path d="M524.292 203.616C524.292 204.473 524.547 205.311 525.023 206.023C525.499 206.736 526.176 207.291 526.968 207.619C527.759 207.947 528.631 208.033 529.471 207.866C530.312 207.699 531.084 207.286 531.69 206.68C532.296 206.074 532.709 205.302 532.876 204.461C533.043 203.621 532.957 202.749 532.629 201.958C532.301 201.166 531.746 200.489 531.033 200.013C530.321 199.537 529.483 199.282 528.626 199.282C527.477 199.282 526.374 199.739 525.562 200.552C524.749 201.364 524.292 202.467 524.292 203.616Z" fill="white"/>
<path d="M490.238 230.964C490.339 230.964 492.533 218.142 495.162 202.279C497.791 186.416 499.818 173.539 499.729 173.528C499.64 173.516 497.423 186.349 494.806 202.224C492.188 218.098 490.149 230.953 490.238 230.964Z" fill="#263238"/>
</svg>
