<svg width="261" height="214" viewBox="0 0 261 214" fill="none" xmlns="http://www.w3.org/2000/svg">
<g clip-path="url(#clip0)">
<path d="M104.502 164.227H167.112L172.513 193.653H98.8261L104.502 164.227Z" fill="#F7F7F7"/>
<path d="M168.192 170.113L167.112 164.227H104.502L103.356 170.169L168.192 170.113Z" fill="#A9A8A8"/>
<path d="M168.201 170.166L167.119 164.271L104.496 164.274L103.347 170.226L168.201 170.166Z" fill="#AAA9A9"/>
<path d="M168.211 170.22L167.125 164.312L104.486 164.318L103.337 170.286L168.211 170.22Z" fill="#ABAAAA"/>
<path d="M168.22 170.27L167.134 164.356L104.477 164.365L103.325 170.342L168.22 170.27Z" fill="#ACABAB"/>
<path d="M168.23 170.323L167.144 164.4L104.468 164.409L103.315 170.402L168.23 170.323Z" fill="#ADACAC"/>
<path d="M168.239 170.377L167.15 164.44L104.461 164.453L103.306 170.458L168.239 170.377Z" fill="#AEADAD"/>
<path d="M168.249 170.427L167.157 164.484L104.452 164.5L103.293 170.518L168.249 170.427Z" fill="#AFAEAE"/>
<path d="M168.258 170.48L167.166 164.525L104.442 164.544L103.283 170.575L168.258 170.48Z" fill="#B0AFAF"/>
<path d="M168.268 170.531L167.172 164.569L104.436 164.588L103.271 170.631L168.268 170.531Z" fill="#B1B0B0"/>
<path d="M168.277 170.584L167.182 164.611L104.426 164.636L103.262 170.691L168.277 170.584Z" fill="#B2B1B1"/>
<path d="M168.287 170.638L167.188 164.654L104.417 164.679L103.252 170.748L168.287 170.638Z" fill="#B3B2B2"/>
<path d="M168.296 170.688L167.198 164.695L104.407 164.724L103.239 170.808L168.296 170.688Z" fill="#B4B3B3"/>
<path d="M168.306 170.741L167.204 164.739L104.398 164.771L103.23 170.864L168.306 170.741Z" fill="#B5B4B4"/>
<path d="M168.315 170.795L167.214 164.78L104.392 164.815L103.22 170.924L168.315 170.795Z" fill="#B6B5B5"/>
<path d="M168.325 170.845L167.22 164.824L104.382 164.862L103.208 170.98L168.325 170.845Z" fill="#B7B6B6"/>
<path d="M168.337 170.899L167.229 164.865L104.373 164.906L103.198 171.041L168.337 170.899Z" fill="#B8B7B7"/>
<path d="M168.347 170.95L167.236 164.91L104.363 164.951L103.189 171.097L168.347 170.95Z" fill="#B9B8B8"/>
<path d="M168.356 171.003L167.245 164.95L104.357 164.997L103.176 171.157L168.356 171.003Z" fill="#BAB9B9"/>
<path d="M168.366 171.056L167.252 164.994L104.347 165.041L103.166 171.213L168.366 171.056Z" fill="#BBBABA"/>
<path d="M168.375 171.106L167.261 165.035L104.338 165.089L103.154 171.273L168.375 171.106Z" fill="#BCBBBB"/>
<path d="M168.385 171.16L167.268 165.079L104.328 165.133L103.144 171.33L168.385 171.16Z" fill="#BDBCBC"/>
<path d="M168.394 171.213L167.274 165.12L104.322 165.177L103.135 171.386L168.394 171.213Z" fill="#BDBDBD"/>
<path d="M168.404 171.263L167.283 165.164L104.312 165.223L103.122 171.446L168.404 171.263Z" fill="#BEBEBE"/>
<path d="M168.413 171.317L167.289 165.205L104.303 165.268L103.112 171.503L168.413 171.317Z" fill="#BFBFBF"/>
<path d="M168.423 171.368L167.299 165.249L104.293 165.312L103.1 171.563L168.423 171.368Z" fill="#C0C0C0"/>
<path d="M168.433 171.421L167.306 165.293L104.287 165.359L103.091 171.619L168.433 171.421Z" fill="#C1C1C1"/>
<path d="M168.442 171.475L167.315 165.334L104.277 165.403L103.081 171.679L168.442 171.475Z" fill="#C2C2C2"/>
<path d="M168.451 171.525L167.321 165.378L104.268 165.451L103.068 171.736L168.451 171.525Z" fill="#C3C3C3"/>
<path d="M168.461 171.579L167.331 165.419L104.259 165.495L103.059 171.796L168.461 171.579Z" fill="#C4C4C4"/>
<path d="M168.47 171.632L167.337 165.463L104.252 165.538L103.049 171.852L168.47 171.632Z" fill="#C5C5C5"/>
<path d="M168.48 171.683L167.347 165.504L104.243 165.586L103.037 171.912L168.48 171.683Z" fill="#C6C6C6"/>
<path d="M168.489 171.736L167.353 165.548L104.233 165.63L103.027 171.968L168.489 171.736Z" fill="#C7C7C7"/>
<path d="M168.499 171.789L167.363 165.589L104.224 165.674L103.018 172.025L168.499 171.789Z" fill="#C8C8C8"/>
<path d="M168.508 171.84L167.369 165.633L104.217 165.721L103.005 172.085L168.508 171.84Z" fill="#C9C9C9"/>
<path d="M168.518 171.893L167.375 165.674L104.208 165.765L102.995 172.141L168.518 171.893Z" fill="#CACACA"/>
<path d="M168.527 171.946L167.384 165.718L104.198 165.812L102.983 172.201L168.527 171.946Z" fill="#CBCBCB"/>
<path d="M168.537 171.997L167.394 165.759L104.189 165.856L102.973 172.258L168.537 171.997Z" fill="#CCCCCC"/>
<path d="M168.546 172.05L167.4 165.802L104.183 165.9L102.964 172.317L168.546 172.05Z" fill="#CDCDCD"/>
<path d="M168.556 172.101L167.407 165.844L104.173 165.947L102.951 172.374L168.556 172.101Z" fill="#CECECE"/>
<path d="M168.565 172.154L167.416 165.888L104.164 165.992L102.942 172.434L168.565 172.154Z" fill="#CFCFCF"/>
<path d="M168.575 172.208L167.423 165.932L104.154 166.036L102.932 172.491L168.575 172.208Z" fill="#D0CFCF"/>
<path d="M168.584 172.258L167.432 165.973L104.145 166.083L102.92 172.547L168.584 172.258Z" fill="#D1D0D0"/>
<path d="M168.594 172.311L167.438 166.016L104.138 166.126L102.91 172.607L168.594 172.311Z" fill="#D2D1D1"/>
<path d="M168.607 172.362L167.448 166.057L104.129 166.174L102.897 172.664L168.607 172.362Z" fill="#D3D2D2"/>
<path d="M168.616 172.415L167.454 166.102L104.119 166.218L102.888 172.724L168.616 172.415Z" fill="#D4D3D3"/>
<path d="M168.625 172.469L167.464 166.142L104.11 166.262L102.878 172.78L168.625 172.469Z" fill="#D5D4D4"/>
<path d="M168.635 172.519L167.47 166.186L104.104 166.309L102.866 172.84L168.635 172.519Z" fill="#D6D5D5"/>
<path d="M168.644 172.572L167.479 166.227L104.094 166.353L102.856 172.896L168.644 172.572Z" fill="#D7D6D6"/>
<path d="M168.654 172.626L167.486 166.272L104.085 166.401L102.847 172.956L168.654 172.626Z" fill="#D8D7D7"/>
<path d="M168.664 172.676L167.496 166.312L104.075 166.444L102.834 173.013L168.664 172.676Z" fill="#D9D8D8"/>
<path d="M168.673 172.73L167.502 166.357L104.069 166.489L102.825 173.073L168.673 172.73Z" fill="#DAD9D9"/>
<path d="M168.682 172.783L167.511 166.397L104.059 166.536L102.815 173.129L168.682 172.783Z" fill="#DBDADA"/>
<path d="M168.692 172.834L167.517 166.442L104.05 166.58L102.802 173.186L168.692 172.834Z" fill="#DCDBDB"/>
<path d="M168.702 172.887L167.524 166.482L104.04 166.624L102.793 173.246L168.702 172.887Z" fill="#DDDCDC"/>
<path d="M168.711 172.941L167.534 166.526L104.034 166.671L102.78 173.302L168.711 172.941Z" fill="#DEDDDD"/>
<path d="M168.72 172.991L167.539 166.567L104.024 166.715L102.771 173.362L168.72 172.991Z" fill="#DFDEDE"/>
<path d="M168.73 173.044L167.549 166.611L104.015 166.762L102.762 173.419L168.73 173.044Z" fill="#E0DFDF"/>
<path d="M168.74 173.095L167.556 166.653L104.006 166.807L102.749 173.479L168.74 173.095Z" fill="#E1E0E0"/>
<path d="M168.749 173.148L167.565 166.696L103.999 166.85L102.739 173.535L168.749 173.148Z" fill="#E2E1E1"/>
<path d="M168.758 173.201L167.571 166.737L103.989 166.897L102.729 173.595L168.758 173.201Z" fill="#E3E2E2"/>
<path d="M168.768 173.252L167.581 166.781L103.98 166.942L102.717 173.652L168.768 173.252Z" fill="#E3E3E3"/>
<path d="M168.778 173.305L167.587 166.825L103.971 166.989L102.707 173.711L168.778 173.305Z" fill="#E4E4E4"/>
<path d="M168.787 173.359L167.596 166.866L103.964 167.033L102.698 173.768L168.787 173.359Z" fill="#E5E5E5"/>
<path d="M168.796 173.409L167.603 166.91L103.954 167.077L102.685 173.827L168.796 173.409Z" fill="#E6E6E6"/>
<path d="M168.806 173.463L167.613 166.951L103.945 167.124L102.676 173.884L168.806 173.463Z" fill="#E7E7E7"/>
<path d="M168.816 173.516L167.619 166.995L103.936 167.168L102.663 173.941L168.816 173.516Z" fill="#E8E8E8"/>
<path d="M168.825 173.567L167.628 167.036L103.926 167.212L102.654 174.001L168.825 173.567Z" fill="#E9E9E9"/>
<path d="M168.834 173.62L167.634 167.08L103.92 167.259L102.644 174.057L168.834 173.62Z" fill="#EAEAEA"/>
<path d="M168.844 173.671L167.641 167.121L103.91 167.303L102.631 174.117L168.844 173.671Z" fill="#EBEBEB"/>
<path d="M168.857 173.724L167.65 167.165L103.901 167.35L102.622 174.174L168.857 173.724Z" fill="#ECECEC"/>
<path d="M168.863 173.777L167.657 167.206L103.891 167.395L102.612 174.234L168.863 173.777Z" fill="#EDEDED"/>
<path d="M168.872 173.827L167.666 167.25L103.885 167.438L102.6 174.29L168.872 173.827Z" fill="#EEEEEE"/>
<path d="M168.885 173.881L167.673 167.291L103.876 167.486L102.591 174.35L168.885 173.881Z" fill="#EFEFEF"/>
<path d="M168.895 173.931L167.682 167.335L103.866 167.53L102.581 174.406L168.895 173.931Z" fill="#F0F0F0"/>
<path d="M168.904 173.985L167.689 167.379L103.86 167.574L102.568 174.467L168.904 173.985Z" fill="#F1F1F1"/>
<path d="M168.914 174.038L167.698 167.42L103.85 167.621L102.559 174.523L168.914 174.038Z" fill="#F2F2F2"/>
<path d="M168.923 174.089L167.704 167.464L103.841 167.665L102.546 174.583L168.923 174.089Z" fill="#F3F3F3"/>
<path d="M168.933 174.142L167.714 167.505L103.831 167.712L102.537 174.639L168.933 174.142Z" fill="#F4F4F4"/>
<path d="M168.942 174.196L167.72 167.549L103.825 167.756L102.527 174.696L168.942 174.196Z" fill="#F5F5F5"/>
<path d="M168.952 174.246L167.73 167.589L103.815 167.8L102.514 174.756L168.952 174.246Z" fill="#F6F6F6"/>
<path d="M168.961 174.3L167.736 167.634L103.806 167.848L102.505 174.812L168.961 174.3Z" fill="#F7F7F7"/>
<path d="M99.6492 189.393L98.8261 193.652H172.513L171.126 189.125L99.6492 189.393Z" fill="#C4C4C4"/>
<path d="M99.6588 189.343L98.8326 193.621L172.506 193.618L171.129 189.085L99.6588 189.343Z" fill="#C5C5C5"/>
<path d="M99.6684 189.289L98.8391 193.592L172.503 193.583L171.133 189.04L99.6684 189.289Z" fill="#C6C6C6"/>
<path d="M99.6779 189.239L98.8422 193.561L172.494 193.546L171.136 188.997L99.6779 189.239Z" fill="#C7C7C7"/>
<path d="M99.6875 189.186L98.8486 193.533L172.488 193.511L171.139 188.953L99.6875 189.186Z" fill="#C8C8C8"/>
<path d="M99.697 189.135L98.8549 193.502L172.481 193.476L171.142 188.912L99.697 189.135Z" fill="#C9C9C9"/>
<path d="M99.7097 189.082L98.8613 193.473L172.475 193.442L171.146 188.868L99.7097 189.082Z" fill="#CACACA"/>
<path d="M99.719 189.028L98.8675 193.441L172.469 193.407L171.149 188.823L99.719 189.028Z" fill="#CBCBCB"/>
<path d="M99.7286 188.978L98.8739 193.414L172.462 193.373L171.152 188.783L99.7286 188.978Z" fill="#CCCCCC"/>
<path d="M99.7384 188.909L98.8773 193.366L172.456 193.319L171.152 188.723L99.7384 188.909Z" fill="#CDCDCD"/>
<path d="M99.7476 188.855L98.8834 193.335L172.45 193.284L171.155 188.676L99.7476 188.855Z" fill="#CECECE"/>
<path d="M99.7573 188.802L98.8899 193.304L172.443 193.247L171.158 188.632L99.7573 188.802Z" fill="#CFCFCF"/>
<path d="M99.7699 188.748L98.8961 193.272L172.437 193.209L171.161 188.587L99.7699 188.748Z" fill="#D0D0D0"/>
<path d="M99.7795 188.692L98.9026 193.237L172.431 193.171L171.165 188.544L99.7795 188.692Z" fill="#D1D1D1"/>
<path d="M99.7886 188.638L98.9054 193.205L172.424 193.136L171.167 188.496L99.7886 188.638Z" fill="#D2D2D2"/>
<path d="M99.798 188.585L98.9116 193.174L172.418 193.099L171.171 188.453L99.798 188.585Z" fill="#D3D3D3"/>
<path d="M99.8075 188.531L98.918 193.143L172.411 193.061L171.174 188.408L99.8075 188.531Z" fill="#D4D4D4"/>
<path d="M99.8169 188.478L98.9242 193.111L172.405 193.026L171.174 188.361L99.8169 188.478Z" fill="#D5D5D5"/>
<path d="M99.8296 188.424L98.9306 193.08L172.399 192.989L171.177 188.317L99.8296 188.424Z" fill="#D6D6D6"/>
<path d="M99.8391 188.367L98.9369 193.048L172.392 192.951L171.18 188.273L99.8391 188.367Z" fill="#D7D7D7"/>
<path d="M99.8488 188.314L98.9403 193.017L172.386 192.913L171.183 188.229L99.8488 188.314Z" fill="#D8D8D8"/>
<path d="M99.8584 188.26L98.9467 192.985L172.38 192.878L171.187 188.182L99.8584 188.26Z" fill="#D9D9D9"/>
<path d="M99.8679 188.207L98.9531 192.951L172.374 192.841L171.19 188.138L99.8679 188.207Z" fill="#DADADA"/>
<path d="M99.8775 188.154L98.9595 192.92L172.367 192.803L171.193 188.094L99.8775 188.154Z" fill="#DBDBDB"/>
<path d="M99.89 188.1L98.9656 192.888L172.361 192.765L171.196 188.047L99.89 188.1Z" fill="#DCDCDC"/>
<path d="M99.8992 188.047L98.9716 192.857L172.354 192.731L171.196 188.003L99.8992 188.047Z" fill="#DDDDDD"/>
<path d="M99.9093 187.993L98.9754 192.825L172.349 192.693L171.199 187.958L99.9093 187.993Z" fill="#DDDDDD"/>
<path d="M99.9185 187.936L98.9815 192.794L172.342 192.655L171.202 187.914L99.9185 187.936Z" fill="#DEDEDE"/>
<path d="M99.928 187.883L98.9878 192.762L172.336 192.62L171.206 187.867L99.928 187.883Z" fill="#DFDFDF"/>
<path d="M99.9376 187.83L98.9942 192.731L172.329 192.583L171.209 187.823L99.9376 187.83Z" fill="#E0E0E0"/>
<path d="M99.9502 187.776L99.0005 192.699L172.323 192.548L171.212 187.779L99.9502 187.776Z" fill="#E1E1E1"/>
<path d="M99.9595 187.726L99.0034 192.671L172.316 192.514L171.215 187.739L99.9595 187.726Z" fill="#E2E2E2"/>
<path d="M99.9689 187.678L99.0097 192.643L172.31 192.482L171.218 187.697L99.9689 187.678Z" fill="#E3E3E3"/>
<path d="M99.9785 187.628L99.0162 192.617L172.304 192.451L171.221 187.656L99.9785 187.628Z" fill="#E4E4E4"/>
<path d="M99.9885 187.578L99.023 192.589L172.298 192.416L171.222 187.619L99.9885 187.578Z" fill="#E5E5E5"/>
<path d="M100.001 187.531L99.0291 192.564L172.291 192.385L171.225 187.578L100.001 187.531Z" fill="#E6E6E6"/>
<path d="M100.011 187.481L99.0355 192.536L172.282 192.353L171.228 187.537L100.011 187.481Z" fill="#E7E7E7"/>
<path d="M100.02 187.43L99.0385 192.507L172.276 192.322L171.231 187.496L100.02 187.43Z" fill="#E8E8E8"/>
<path d="M100.029 187.38L99.0445 192.482L172.269 192.287L171.234 187.456L100.029 187.38Z" fill="#E9E9E9"/>
<path d="M100.039 187.333L99.0509 192.454L172.266 192.256L171.237 187.414L100.039 187.333Z" fill="#EAEAEA"/>
<path d="M100.048 187.282L99.0573 192.426L172.256 192.225L171.24 187.374L100.048 187.282Z" fill="#EBEBEB"/>
<path d="M100.061 187.232L99.0637 192.397L172.25 192.19L171.243 187.336L100.061 187.232Z" fill="#ECECEC"/>
<path d="M100.071 187.184L99.0671 192.372L172.244 192.158L171.244 187.295L100.071 187.184Z" fill="#EDEDED"/>
<path d="M100.08 187.134L99.0736 192.344L172.238 192.126L171.247 187.254L100.08 187.134Z" fill="#EEEEEE"/>
<path d="M100.09 187.084L99.0799 192.316L172.232 192.092L171.25 187.213L100.09 187.084Z" fill="#EFEFEF"/>
<path d="M100.099 187.034L99.086 192.29L172.225 192.061L171.253 187.172L100.099 187.034Z" fill="#F0F0F0"/>
<path d="M100.108 187.002L99.0921 192.278L172.218 192.045L171.256 187.147L100.108 187.002Z" fill="#F1F1F1"/>
<path d="M100.121 186.948L99.0985 192.246L172.212 192.01L171.259 187.106L100.121 186.948Z" fill="#F2F2F2"/>
<path d="M100.131 186.898L99.1019 192.218L172.206 191.976L171.263 187.062L100.131 186.898Z" fill="#F3F3F3"/>
<path d="M100.14 186.845L99.1083 192.186L172.2 191.938L171.266 187.018L100.14 186.845Z" fill="#F4F4F4"/>
<path d="M100.15 186.795L99.1146 192.158L172.193 191.903L171.269 186.977L100.15 186.795Z" fill="#F5F5F5"/>
<path d="M100.159 186.741L99.121 192.13L172.187 191.869L171.269 186.933L100.159 186.741Z" fill="#F6F6F6"/>
<path d="M100.169 186.691L99.1272 192.099L172.181 191.834L171.272 186.889L100.169 186.691Z" fill="#F7F7F7"/>
<path d="M181.459 195.238L172.516 193.665H98.8264L89.8803 195.238C89.747 195.262 89.6265 195.332 89.5397 195.436C89.453 195.539 89.4055 195.67 89.4055 195.804V197.579C89.4055 197.69 89.4497 197.797 89.5286 197.876C89.6074 197.955 89.7145 197.999 89.8265 198H181.513C181.625 198 181.733 197.956 181.813 197.877C181.892 197.798 181.937 197.69 181.937 197.579V195.804C181.936 195.669 181.888 195.539 181.801 195.436C181.714 195.332 181.593 195.262 181.459 195.238Z" fill="#F6F4F4"/>
<path d="M179.17 194.832L172.513 193.653H98.8265L92.1691 194.832H179.17Z" fill="#BDBCBC"/>
<path d="M98.6714 193.678C98.6714 193.678 96.6359 194.043 96.6359 194.049L92.1217 194.88C92.1217 194.88 92.7232 194.88 92.7263 194.88C92.7295 194.88 179.212 194.88 179.218 194.88L174.704 194.049C174.704 194.049 172.675 193.681 172.668 193.678H98.6714Z" fill="#BEBDBD"/>
<path d="M98.5195 193.706C98.5195 193.706 96.5093 194.071 96.5093 194.081L92.0774 194.927C92.0774 194.927 92.6694 194.943 92.6789 194.943C92.6884 194.943 179.256 194.943 179.269 194.927L174.837 194.081C174.837 194.081 172.839 193.709 172.83 193.706H98.5195Z" fill="#BFBEBE"/>
<path d="M98.364 193.734C98.3481 193.734 96.3823 194.096 96.3823 194.112L92.0264 194.974C92.0264 194.974 92.612 194.996 92.6247 194.996C92.6373 194.996 179.293 194.996 179.312 194.974L174.96 194.112C174.96 194.112 172.991 193.737 172.978 193.734H172.31C172.31 193.734 98.4051 193.725 98.364 193.734Z" fill="#C0BFBF"/>
<path d="M98.2093 193.763C98.1903 193.763 96.2561 194.121 96.2561 194.14L91.9793 195.021C91.9793 195.04 92.5586 195.052 92.5745 195.052C92.5903 195.052 179.332 195.052 179.364 195.021L175.087 194.14C175.087 194.121 173.149 193.766 173.13 193.763H172.462C172.462 193.763 98.2663 193.75 98.2093 193.763Z" fill="#C1C0C0"/>
<path d="M98.0697 193.781C98.0475 193.781 96.145 194.14 96.145 194.165L91.9473 195.065C92.1439 195.087 92.3415 195.098 92.5393 195.1C92.5393 195.1 179.389 195.1 179.427 195.065L175.229 194.165C175.229 194.14 173.33 193.788 173.301 193.781H172.63C172.63 193.781 98.1266 193.781 98.0697 193.781Z" fill="#C2C1C1"/>
<path d="M97.9017 193.816C97.8732 193.816 96.0023 194.175 96.0023 194.203L91.887 195.119C92.0822 195.144 92.2788 195.158 92.4758 195.16C92.4758 195.16 179.417 195.16 179.461 195.119L175.346 194.203C175.346 194.175 173.475 193.823 173.446 193.816L172.772 193.801C172.772 193.801 97.9871 193.801 97.9017 193.816Z" fill="#C3C2C2"/>
<path d="M97.7531 193.844C97.7183 193.844 95.8823 194.2 95.8823 194.235L91.8429 195.178C92.0367 195.209 92.2324 195.226 92.4285 195.229C92.4285 195.229 179.461 195.229 179.512 195.178L175.473 194.235C175.473 194.2 173.633 193.851 173.602 193.844L172.924 193.826C172.924 193.826 97.8449 193.826 97.7531 193.844Z" fill="#C4C3C3"/>
<path d="M97.5916 193.87C97.5536 193.87 95.7492 194.225 95.7492 194.263L91.7889 195.207C91.981 195.243 92.1759 195.262 92.3714 195.263C92.3714 195.263 179.493 195.263 179.553 195.207L175.593 194.263C175.593 194.225 173.785 193.879 173.747 193.87L173.067 193.851C173.067 193.851 97.7055 193.851 97.5916 193.87Z" fill="#C5C4C4"/>
<path d="M97.4365 193.898C97.3922 193.898 95.6194 194.253 95.6194 194.294L91.7383 195.26C91.9278 195.3 92.1208 195.321 92.3145 195.323C92.3145 195.323 179.531 195.323 179.597 195.26L175.716 194.294C175.716 194.253 173.94 193.904 173.899 193.898L173.216 193.876C173.216 193.876 97.5663 193.876 97.4365 193.898Z" fill="#C6C5C5"/>
<path d="M97.2848 193.926C97.2373 193.926 95.493 194.279 95.493 194.326L91.6943 195.307C91.882 195.352 92.0742 195.377 92.2673 195.38C92.2673 195.38 179.576 195.38 179.639 195.307L175.84 194.326C175.84 194.279 174.099 193.933 174.052 193.926L173.365 193.901C173.365 193.901 97.4367 193.901 97.2848 193.926Z" fill="#C7C6C6"/>
<path d="M97.12 193.951C97.0693 193.951 95.3567 194.304 95.3567 194.357L91.6466 195.354C91.8323 195.405 92.0239 195.432 92.2164 195.433C92.2164 195.433 179.616 195.433 179.696 195.354L175.973 194.357C175.973 194.304 174.263 193.961 174.21 193.951L173.523 193.926C173.523 193.926 97.2846 193.926 97.12 193.951Z" fill="#C8C7C7"/>
<path d="M96.9744 193.98C96.3893 194.086 95.8103 194.222 95.2396 194.389L91.5991 195.402C91.783 195.456 91.9738 195.485 92.1658 195.487C92.1658 195.487 179.654 195.487 179.743 195.402L176.099 194.389C175.529 194.222 174.95 194.086 174.365 193.98L173.675 193.951C173.675 193.951 97.1453 193.951 96.9744 193.98Z" fill="#C9C8C8"/>
<path d="M96.8223 194.008C96.2454 194.113 95.6747 194.25 95.1129 194.417L91.5515 195.449C91.5515 195.499 92.0643 195.543 92.115 195.543C92.115 195.543 179.696 195.543 179.803 195.449L176.226 194.411C175.665 194.244 175.096 194.107 174.52 194.002L173.826 193.967C173.826 193.967 97.0059 193.974 96.8223 194.008Z" fill="#CAC9C9"/>
<path d="M96.6676 194.037C96.0992 194.139 95.5378 194.277 94.9866 194.449L91.5044 195.496C91.5044 195.553 92.0109 195.597 92.0679 195.597C92.0679 195.597 179.756 195.597 179.842 195.496L176.359 194.449C175.809 194.277 175.249 194.139 174.682 194.037L173.982 193.999C173.982 193.999 96.867 193.999 96.6676 194.037Z" fill="#CBCACA"/>
<path d="M96.5124 194.061C96.4427 194.061 94.8599 194.407 94.8599 194.48L91.4537 195.543C91.4537 195.603 91.9538 195.65 92.014 195.65C92.014 195.65 179.778 195.65 179.886 195.543L176.48 194.48C176.48 194.407 174.897 194.074 174.827 194.061L174.128 194.024C174.128 194.024 96.7245 194.024 96.5124 194.061Z" fill="#CCCACA"/>
<path d="M96.3604 194.096C96.2844 194.096 94.7333 194.439 94.7333 194.517L91.422 195.59C91.422 195.653 91.9158 195.707 91.9792 195.707C91.9792 195.707 179.832 195.707 179.949 195.59L176.625 194.511C176.625 194.433 175.074 194.102 174.998 194.09L174.295 194.049C174.295 194.049 96.5852 194.049 96.3604 194.096Z" fill="#CDCBCB"/>
<path d="M96.2054 194.118C96.123 194.118 94.6067 194.461 94.6067 194.543L91.3588 195.638C91.3588 195.707 91.8431 195.76 91.9128 195.76C91.9128 195.76 179.857 195.76 179.981 195.638L176.736 194.543C176.736 194.461 175.217 194.131 175.153 194.118L174.447 194.074C174.447 194.074 96.4459 194.074 96.2054 194.118Z" fill="#CECCCC"/>
<path d="M96.05 194.143C95.9646 194.159 94.4672 194.486 94.4672 194.571L91.3016 195.685C91.3016 195.757 91.7796 195.817 91.8524 195.817C91.8524 195.817 179.889 195.817 180.019 195.685L176.853 194.571C176.853 194.486 175.365 194.159 175.27 194.143L174.583 194.096C174.583 194.096 96.3064 194.096 96.05 194.143Z" fill="#CFCDCD"/>
<path d="M95.8949 194.172C95.8063 194.172 94.3533 194.512 94.3533 194.603L91.2636 195.732C91.2636 195.808 91.7353 195.871 91.8113 195.871C91.8113 195.871 179.939 195.871 180.076 195.732L176.989 194.603C176.989 194.512 175.536 194.188 175.444 194.172L174.735 194.125C174.735 194.125 96.1704 194.125 95.8949 194.172Z" fill="#D0CECE"/>
<path d="M95.7429 194.2C95.648 194.2 94.2266 194.536 94.2266 194.634L91.2161 195.779C91.2161 195.861 91.6782 195.924 91.7606 195.924C91.7606 195.924 179.977 195.924 180.123 195.779L177.116 194.634C177.116 194.536 175.694 194.216 175.599 194.2L174.884 194.15C174.884 194.15 96.0247 194.15 95.7429 194.2Z" fill="#D1CFCF"/>
<path d="M95.5876 194.225C95.4863 194.244 94.0997 194.565 94.0997 194.666L91.1683 195.826C91.1683 195.911 91.6242 195.98 91.7097 195.98C91.7097 195.98 180.031 195.98 180.17 195.826L177.242 194.666C177.242 194.565 175.852 194.244 175.754 194.225L175.036 194.175C175.036 194.175 95.8851 194.175 95.5876 194.225Z" fill="#D2D0D0"/>
<path d="M95.4327 194.253C95.3282 194.272 93.9733 194.59 93.9733 194.697L91.1243 195.873C91.1243 195.962 91.5738 196.034 91.6624 196.034C91.6624 196.034 180.063 196.034 180.224 195.873L177.375 194.697C177.375 194.59 176.017 194.272 175.913 194.253L175.194 194.2C175.194 194.2 95.7461 194.2 95.4327 194.253Z" fill="#D3D1D1"/>
<path d="M95.2778 194.282C95.1702 194.301 93.847 194.615 93.847 194.725L91.0739 195.921C91.0739 196.015 91.5139 196.088 91.6088 196.088C91.6088 196.088 180.101 196.088 180.269 195.921L177.496 194.725C177.496 194.615 176.172 194.301 176.062 194.282L175.34 194.222C175.34 194.222 95.6039 194.222 95.2778 194.282Z" fill="#D4D2D2"/>
<path d="M95.1256 194.31C95.0116 194.329 93.7169 194.643 93.7169 194.757L91.0261 195.968C91.0261 196.065 91.4598 196.144 91.5547 196.144C91.5547 196.144 180.139 196.144 180.316 195.968L177.622 194.757C177.622 194.643 176.33 194.329 176.217 194.31L175.492 194.247C175.492 194.247 95.4643 194.247 95.1256 194.31Z" fill="#D5D3D3"/>
<path d="M94.9705 194.335C94.8534 194.357 93.5903 194.669 93.5903 194.788L90.9786 196.018C90.9786 196.116 91.406 196.197 91.5041 196.197C91.5041 196.197 180.18 196.197 180.364 196.018L177.749 194.788C177.749 194.669 176.483 194.357 176.372 194.335L175.644 194.272C175.644 194.272 95.3251 194.272 94.9705 194.335Z" fill="#D6D4D4"/>
<path d="M94.8153 194.363C94.6918 194.385 93.4635 194.678 93.4635 194.819L90.931 196.078C90.931 196.181 91.3489 196.263 91.4534 196.263C91.4534 196.263 180.221 196.263 180.408 196.078L177.875 194.819C177.875 194.693 176.647 194.385 176.524 194.363L175.792 194.297C175.792 194.297 95.1856 194.297 94.8153 194.363Z" fill="#D7D5D5"/>
<path d="M94.6637 194.392C94.534 194.414 93.3373 194.707 93.3373 194.848L90.884 196.106C90.884 196.213 91.2955 196.301 91.4031 196.301C91.4031 196.301 180.263 196.301 180.459 196.106L178.002 194.848C178.002 194.719 176.806 194.414 176.679 194.392L175.945 194.323C175.945 194.323 95.0436 194.323 94.6637 194.392Z" fill="#D8D6D6"/>
<path d="M94.5084 194.411C94.3754 194.436 93.2105 194.741 93.2105 194.873L90.8362 196.153C90.8362 196.263 91.2414 196.355 91.3522 196.355C91.3522 196.355 180.307 196.355 180.506 196.153L178.129 194.873C178.129 194.741 176.967 194.436 176.834 194.411L176.096 194.341C176.096 194.341 94.9041 194.348 94.5084 194.411Z" fill="#D9D7D7"/>
<path d="M94.3532 194.445C94.2171 194.471 93.087 194.76 93.087 194.911L90.7887 196.207C90.7887 196.323 91.1844 196.415 91.3015 196.415C91.3015 196.415 180.341 196.415 180.554 196.207L178.255 194.911C178.255 194.773 177.125 194.471 176.989 194.445L176.251 194.373C176.251 194.373 94.7647 194.373 94.3532 194.445Z" fill="#DAD8D8"/>
<path d="M94.198 194.474C94.0556 194.499 92.9571 194.788 92.9571 194.942L90.7411 196.254C90.7411 196.374 91.1305 196.471 91.2508 196.471C91.2508 196.471 180.383 196.471 180.601 196.254L178.385 194.942C178.385 194.798 177.283 194.499 177.141 194.474L176.4 194.398C176.4 194.398 94.6254 194.411 94.198 194.474Z" fill="#DAD9D9"/>
<path d="M94.0462 194.498C93.8974 194.527 92.8306 194.813 92.8306 194.973L90.6906 196.298C90.6906 196.421 91.0768 196.521 91.2003 196.521C91.2003 196.521 180.424 196.521 180.649 196.298L178.512 194.97C178.512 194.819 177.442 194.524 177.296 194.495L176.552 194.42C176.552 194.42 94.483 194.41 94.0462 194.498Z" fill="#DBDADA"/>
<path d="M93.8909 194.527C93.739 194.555 92.7038 194.841 92.7038 195.002L90.643 196.348C90.643 196.477 91.0197 196.578 91.1495 196.578C91.1495 196.578 180.465 196.578 180.696 196.348L178.638 195.002C178.638 194.851 177.603 194.555 177.451 194.527L176.701 194.448C176.701 194.448 94.3436 194.448 93.8909 194.527Z" fill="#DCDBDB"/>
<path d="M93.7358 194.555C93.5807 194.584 92.5772 194.87 92.5772 195.034L90.5955 196.396C90.5955 196.528 90.9659 196.635 91.0989 196.635C91.0989 196.635 180.503 196.635 180.743 196.396L178.765 195.04C178.765 194.883 177.761 194.59 177.603 194.562L176.853 194.48C176.853 194.48 94.2043 194.474 93.7358 194.555Z" fill="#DDDCDC"/>
<path d="M93.584 194.584C93.4226 194.612 92.4507 194.898 92.4507 195.065L90.5513 196.443C90.5513 196.578 90.9154 196.688 91.0515 196.688C91.0515 196.688 180.547 196.688 180.794 196.443L178.895 195.065C178.895 194.902 177.923 194.612 177.761 194.584L177.008 194.496C177.008 194.496 94.0652 194.496 93.584 194.584Z" fill="#DEDDDD"/>
<path d="M93.429 194.609C93.2612 194.64 92.3242 194.923 92.3242 195.096L90.5008 196.49C90.5008 196.628 90.8553 196.742 90.9978 196.742C90.9978 196.742 180.585 196.742 180.839 196.49L179.018 195.096C179.018 194.927 178.069 194.64 177.914 194.609L177.157 194.521C177.157 194.521 93.9228 194.521 93.429 194.609Z" fill="#DFDEDE"/>
<path d="M93.2739 194.637C93.1029 194.668 92.1976 194.951 92.1976 195.128L90.4533 196.537C90.4533 196.682 90.8015 196.798 90.9471 196.798C90.9471 196.798 180.626 196.798 180.886 196.537L179.145 195.128C179.145 194.955 178.236 194.668 178.065 194.637L177.309 194.546C177.309 194.546 93.7836 194.546 93.2739 194.637Z" fill="#E0DFDF"/>
<path d="M93.1186 194.666C92.9445 194.697 92.0676 194.98 92.0676 195.156L90.4056 196.585C90.4056 196.732 90.7475 196.852 90.8963 196.852C90.8963 196.852 180.664 196.852 180.933 196.585L179.271 195.156C179.271 194.98 178.398 194.697 178.22 194.666L177.461 194.571C177.461 194.571 93.6378 194.571 93.1186 194.666Z" fill="#E1E0E0"/>
<path d="M92.9666 194.691C92.7861 194.725 91.9409 195.005 91.9409 195.188L90.3581 196.632C90.3581 196.783 90.6905 196.908 90.8456 196.908C90.8456 196.908 180.705 196.908 180.981 196.632L179.398 195.188C179.398 195.005 178.556 194.725 178.376 194.691L177.609 194.596C177.609 194.596 93.5047 194.596 92.9666 194.691Z" fill="#E2E1E1"/>
<path d="M92.8113 194.725C92.6245 194.76 91.8141 195.04 91.8141 195.225L90.3104 196.685C90.3104 196.842 90.627 196.968 90.7916 196.968C90.7916 196.968 180.746 196.968 181.031 196.685L179.524 195.225C179.524 195.04 178.714 194.76 178.53 194.725L177.761 194.628C177.761 194.628 93.3621 194.621 92.8113 194.725Z" fill="#E3E2E2"/>
<path d="M92.6567 194.747C92.4667 194.779 91.688 195.062 91.688 195.25L90.2634 196.726C90.2634 196.886 90.58 197.015 90.7414 197.015C90.7414 197.015 180.788 197.015 181.079 196.726L179.652 195.25C179.652 195.059 178.873 194.779 178.683 194.747L177.914 194.646C177.914 194.646 93.2233 194.646 92.6567 194.747Z" fill="#E4E3E3"/>
<path d="M92.5049 194.772C92.3086 194.807 91.5552 195.087 91.5552 195.282L90.2098 196.773C90.2098 196.937 90.5263 197.088 90.6846 197.088C90.6846 197.088 180.82 197.088 181.121 196.773L179.772 195.282C179.772 195.084 179.028 194.807 178.822 194.772L178.05 194.672C178.05 194.672 93.0842 194.672 92.5049 194.772Z" fill="#E5E4E4"/>
<path d="M92.3496 194.801C92.1501 194.835 91.4347 195.115 91.4347 195.31L90.1685 196.82C90.1685 196.99 90.485 197.135 90.6401 197.135C90.6401 197.135 180.861 197.135 181.177 196.82L179.911 195.31C179.911 195.109 179.199 194.835 178.999 194.801L178.224 194.697C178.224 194.697 92.9447 194.697 92.3496 194.801Z" fill="#E6E5E5"/>
<path d="M92.1943 194.829C91.9917 194.864 91.308 195.144 91.308 195.342L90.1208 196.867C90.1208 197.04 90.4184 197.182 90.5894 197.182C90.5894 197.182 180.908 197.182 181.222 196.867L180.031 195.354C180.031 195.15 179.351 194.876 179.145 194.842L178.366 194.735C178.366 194.735 92.8021 194.725 92.1943 194.829Z" fill="#E7E6E6"/>
<path d="M92.0551 194.857C91.8462 194.892 91.1972 195.172 91.1972 195.373L90.0892 196.918C90.0892 197.091 90.3773 197.232 90.5546 197.232C90.5546 197.232 180.965 197.232 181.285 196.918L180.177 195.373C180.177 195.162 179.525 194.892 179.316 194.857L178.534 194.744C178.534 194.744 92.6629 194.744 92.0551 194.857Z" fill="#E8E6E6"/>
<path d="M91.8874 194.882C91.6721 194.92 91.0548 195.197 91.0548 195.405L90.026 196.978C90.026 197.157 90.3077 197.292 90.4882 197.292C90.4882 197.292 180.987 197.292 181.317 196.978L180.288 195.405C180.288 195.188 179.655 194.92 179.455 194.882L178.67 194.769C178.67 194.769 92.5237 194.769 91.8874 194.882Z" fill="#E9E7E7"/>
<path d="M91.7386 194.911C91.5201 194.949 90.9345 195.226 90.9345 195.433L89.9848 197.006C89.9848 197.189 90.2602 197.336 90.4438 197.336C90.4438 197.336 181.035 197.336 181.37 197.006L180.421 195.433C180.421 195.213 179.835 194.949 179.617 194.911L178.828 194.795C178.828 194.795 92.3717 194.795 91.7386 194.911Z" fill="#EAE8E8"/>
<path d="M91.5769 194.939C91.3553 194.977 90.8013 195.254 90.8013 195.465L89.9308 197.06C89.9308 197.245 90.1967 197.399 90.3866 197.399C90.3866 197.399 181.069 197.399 181.411 197.06L180.541 195.465C180.541 195.241 179.987 194.977 179.762 194.939L178.974 194.82C178.974 194.82 92.2417 194.82 91.5769 194.939Z" fill="#EBE9E9"/>
<path d="M91.4218 194.964C91.1939 195.005 90.6747 195.279 90.6747 195.496L89.8833 197.107C89.8833 197.298 90.1429 197.453 90.336 197.453C90.336 197.453 181.111 197.453 181.459 197.107L180.667 195.496C180.667 195.266 180.145 195.005 179.917 194.964L179.126 194.845C179.126 194.845 92.1024 194.845 91.4218 194.964Z" fill="#ECEAEA"/>
<path d="M91.2699 194.993C91.0357 195.034 90.5481 195.292 90.5481 195.527L89.8391 197.154C89.8391 197.349 90.0955 197.506 90.2917 197.506C90.2917 197.506 181.146 197.506 181.513 197.154L180.8 195.527C180.8 195.292 180.31 195.034 180.079 194.993L179.281 194.87C179.281 194.87 91.9632 194.87 91.2699 194.993Z" fill="#EDEBEB"/>
<path d="M91.1052 195.021C90.8678 195.062 90.4119 195.317 90.4119 195.559L89.7788 197.201C89.7788 197.399 90.0257 197.563 90.2283 197.563C90.2283 197.563 181.183 197.563 181.548 197.201L180.914 195.559C180.914 195.317 180.459 195.062 180.221 195.021L179.42 194.895C179.42 194.895 91.8238 194.895 91.1052 195.021Z" fill="#EEECEC"/>
<path d="M90.9594 195.04C90.7188 195.084 90.2915 195.354 90.2915 195.581L89.7375 197.242C89.7543 197.346 89.8089 197.442 89.891 197.509C89.9731 197.577 90.0772 197.613 90.1838 197.61C90.1838 197.61 181.231 197.61 181.601 197.242L181.047 195.581C181.047 195.339 180.623 195.084 180.379 195.04L179.578 194.914C179.578 194.914 91.6812 194.92 90.9594 195.04Z" fill="#EFEDED"/>
<path d="M90.8079 195.074C90.5609 195.118 90.1747 195.37 90.1747 195.618L89.6999 197.295C89.7146 197.401 89.7679 197.497 89.8497 197.566C89.9314 197.635 90.0358 197.672 90.1431 197.669C90.1431 197.669 181.282 197.669 181.658 197.295L181.184 195.618C181.184 195.37 180.791 195.118 180.55 195.074L179.743 194.945C179.743 194.945 91.5423 194.945 90.8079 195.074Z" fill="#F0EEEE"/>
<path d="M90.6527 195.102C90.3995 195.146 90.0386 195.395 90.0386 195.65L89.6429 197.342C89.6554 197.449 89.7073 197.547 89.7886 197.618C89.8699 197.689 89.9748 197.727 90.0829 197.726C90.0829 197.726 181.313 197.726 181.696 197.342L181.301 195.65C181.301 195.395 180.94 195.146 180.69 195.102L179.883 194.97C179.883 194.97 91.403 194.97 90.6527 195.102Z" fill="#F1EFEF"/>
<path d="M90.4977 195.131C90.2412 195.175 89.912 195.42 89.912 195.681L89.5955 197.39C89.605 197.497 89.655 197.597 89.7354 197.669C89.8158 197.741 89.9207 197.781 90.0291 197.78C90.0291 197.78 181.351 197.78 181.744 197.39L181.427 195.681C181.427 195.42 181.111 195.175 180.842 195.131L180.035 194.992C180.035 194.992 91.2637 194.992 90.4977 195.131Z" fill="#F2F0F0"/>
<path d="M90.3425 195.156C90.2027 195.179 90.0737 195.246 89.9738 195.345C89.8738 195.445 89.8079 195.574 89.7853 195.713L89.5479 197.437C89.5552 197.545 89.6038 197.646 89.6839 197.72C89.7639 197.794 89.8693 197.834 89.9784 197.833C89.9784 197.833 181.393 197.833 181.782 197.437L181.545 195.713C181.522 195.574 181.457 195.445 181.357 195.345C181.257 195.245 181.127 195.179 180.987 195.156L180.174 195.018C180.174 195.018 91.1212 195.018 90.3425 195.156Z" fill="#F3F1F1"/>
<path d="M90.1903 195.185C90.0522 195.206 89.9252 195.273 89.829 195.373C89.7328 195.474 89.6729 195.604 89.6585 195.742L89.5002 197.485C89.5051 197.594 89.5523 197.697 89.6319 197.773C89.7115 197.848 89.8174 197.89 89.9275 197.89C89.9275 197.89 181.433 197.89 181.839 197.485L181.68 195.742C181.666 195.604 181.607 195.475 181.511 195.374C181.416 195.274 181.289 195.207 181.152 195.185L180.335 195.043C180.335 195.043 90.9817 195.04 90.1903 195.185Z" fill="#F4F2F2"/>
<path d="M90.0355 195.213C89.9001 195.236 89.7765 195.303 89.685 195.405C89.5935 195.507 89.5396 195.637 89.5322 195.773L89.4531 197.531C89.4547 197.642 89.5003 197.747 89.5797 197.824C89.6592 197.902 89.7661 197.944 89.8773 197.944C89.8773 197.944 181.475 197.944 181.89 197.531L181.811 195.773C181.803 195.637 181.749 195.507 181.658 195.405C181.566 195.303 181.443 195.236 181.307 195.213L180.487 195.068C180.487 195.068 90.8428 195.068 90.0355 195.213Z" fill="#F5F3F3"/>
<path d="M181.459 195.238L180.639 195.093H90.7034L89.8803 195.238C89.747 195.262 89.6265 195.332 89.5397 195.436C89.453 195.539 89.4055 195.67 89.4055 195.804V197.578C89.4055 197.69 89.4497 197.796 89.5286 197.875C89.6074 197.954 89.7145 197.999 89.8265 198H181.513C181.625 198 181.733 197.956 181.813 197.876C181.892 197.797 181.937 197.69 181.937 197.578V195.804C181.936 195.669 181.888 195.539 181.801 195.435C181.714 195.332 181.593 195.262 181.459 195.238Z" fill="#F6F4F4"/>
<path d="M249.72 0H12.0879C8.16564 0 5 3.41634 5 7.63487V156.68C5 160.895 8.16564 164.315 12.0879 164.315H249.72C253.632 164.315 256.804 160.895 256.804 156.68V7.63487C256.804 3.41634 253.632 0 249.72 0Z" fill="url(#paint0_linear)"/>
<path d="M248.631 1.3147H12.9964C9.11534 1.3147 5.97186 4.68071 5.97186 8.82687V155.487C5.97186 159.634 9.11851 163 12.9964 163H248.631C252.512 163 255.655 159.634 255.655 155.487V8.82687C255.655 4.68071 252.509 1.3147 248.631 1.3147Z" fill="#FD3E72"/>
<path d="M133.563 7.37084C134.823 7.37084 135.845 6.35537 135.845 5.10272C135.845 3.85007 134.823 2.83459 133.563 2.83459C132.302 2.83459 131.28 3.85007 131.28 5.10272C131.28 6.35537 132.302 7.37084 133.563 7.37084Z" stroke="#262626" stroke-width="0.07" stroke-miterlimit="10"/>
<path d="M250.018 7.36743H11.414V158.042H250.018V7.36743Z" fill="#FAFAFA"/>
<path d="M45.5607 25.5627H39.0426C38.7463 25.5627 38.5219 25.8228 38.5758 26.1097C38.5847 26.1725 38.5937 26.2352 38.6027 26.298C38.6476 26.5491 38.7194 26.7912 38.8182 27.0333C38.9708 27.4009 39.2132 27.7237 39.5454 28.0107C39.8686 28.2976 40.3265 28.4321 40.9101 28.4321C41.4936 28.4321 41.9425 28.2886 42.2747 28.0107C42.5351 27.7865 42.7326 27.5354 42.8852 27.2664C42.966 27.123 43.1276 27.0333 43.2892 27.0333H45.1118C45.444 27.0333 45.6684 27.3651 45.5607 27.6699C45.4799 27.9031 45.3811 28.1272 45.2644 28.3245C45.0579 28.6921 44.8335 29.015 44.5821 29.284C44.3307 29.553 44.0703 29.7771 43.783 29.9565C43.4957 30.1358 43.2264 30.2793 42.957 30.3958C42.3016 30.6469 41.6193 30.7814 40.8921 30.7814C39.9404 30.7635 39.0965 30.5662 38.3603 30.1896C38.0461 30.0192 37.7408 29.804 37.4355 29.544C37.1303 29.284 36.861 28.9522 36.6275 28.5576C36.3941 28.1631 36.2056 27.6879 36.0619 27.1319C35.9183 26.576 35.8464 25.9393 35.8464 25.1951C35.8464 24.4598 35.9183 23.8142 36.0619 23.2583C36.2056 22.7023 36.3941 22.2271 36.6275 21.8236C36.861 21.4201 37.1303 21.0883 37.4355 20.8193C37.7408 20.5503 38.0461 20.3351 38.3603 20.1647C39.0875 19.7702 39.9225 19.5639 40.8652 19.5281C40.8831 19.5281 40.9011 19.5281 40.919 19.5281C41.6911 19.5639 42.4094 19.7253 43.0827 20.0123C43.37 20.1378 43.6573 20.3082 43.9446 20.5144C44.2319 20.7207 44.5013 20.9717 44.7527 21.2766C45.004 21.5815 45.2195 21.9401 45.4081 22.3616C45.5966 22.783 45.7402 23.2672 45.821 23.8142C45.848 24.0294 45.8749 24.2446 45.8929 24.4688C45.9108 24.693 45.9288 24.9351 45.9288 25.1951C45.9378 25.1772 45.9916 25.5627 45.5607 25.5627ZM42.4543 23.7963C42.7954 23.7963 43.0378 23.4376 42.8852 23.1327C42.8852 23.1327 42.8852 23.1238 42.8762 23.1238C42.7685 22.8996 42.6249 22.6934 42.4363 22.5051C42.2478 22.3257 42.0323 22.1733 41.7809 22.0657C41.5295 21.9581 41.2243 21.9043 40.8921 21.9043C40.5509 21.9043 40.2547 21.9581 40.0033 22.0657C39.7519 22.1733 39.5274 22.3168 39.3479 22.5051C39.1593 22.6934 39.0157 22.8906 38.899 23.1238V23.1327C38.7463 23.4466 38.9888 23.8052 39.3299 23.8052H42.4543V23.7963Z" fill="#A12B52"/>
<path d="M34.5465 15C33.1101 15 31.9519 16.1567 31.9519 17.5914V25.0966C31.9519 25.4105 31.9339 25.7243 31.898 26.0561C31.8621 26.3789 31.7723 26.6748 31.6287 26.9438C31.485 27.2128 31.2696 27.437 30.9823 27.6163C30.695 27.7956 30.282 27.8853 29.7612 27.8853C29.2405 27.8853 28.8275 27.7956 28.5402 27.6163C28.2529 27.437 28.0375 27.2128 27.8938 26.9438C27.7502 26.6748 27.6604 26.3789 27.6245 26.0561C27.5886 25.7333 27.5706 25.4105 27.5706 25.0966V17.3583C26.1341 17.3583 24.9759 18.515 24.9759 19.9497V25.0877C24.9759 25.4015 24.958 25.7153 24.9221 26.0471C24.8862 26.3699 24.7964 26.6658 24.6527 26.9348C24.5091 27.2038 24.2936 27.428 24.0063 27.6073C23.719 27.7867 23.306 27.8763 22.7853 27.8763C22.2646 27.8763 21.8516 27.7867 21.5643 27.6073C21.277 27.428 21.0615 27.2038 20.9179 26.9348C20.7742 26.6658 20.6844 26.3699 20.6485 26.0471C20.6126 25.7243 20.5947 25.4015 20.5947 25.0877V19.7165C19.1582 19.7165 18 20.8822 18 22.3079V25.0877C18 25.8229 18.0718 26.4685 18.2155 27.0245C18.3591 27.5804 18.5387 28.0557 18.7542 28.4592C18.9786 28.8627 19.23 29.1945 19.5173 29.4635C19.8046 29.7325 20.1009 29.9477 20.3971 30.118C21.0884 30.5126 21.8875 30.7278 22.7763 30.7547C23.6831 30.7278 24.4822 30.5126 25.1824 30.118C25.4787 29.9477 25.775 29.7325 26.0533 29.4635C26.1251 29.3917 26.197 29.32 26.2688 29.2393C26.3406 29.32 26.4124 29.3917 26.4843 29.4635C26.7716 29.7325 27.0678 29.9477 27.3641 30.118C28.0554 30.5126 28.8545 30.7278 29.7433 30.7547C30.6501 30.7278 31.4491 30.5126 32.1494 30.118C32.4457 29.9477 32.742 29.7325 33.0203 29.4635C33.3076 29.1945 33.559 28.8627 33.7834 28.4592C34.0079 28.0557 34.1874 27.5804 34.3221 27.0245C34.4568 26.4685 34.5196 25.8319 34.5196 25.0877L34.5465 15Z" fill="#A12B52"/>
<path d="M53.7945 30.0996C53.7227 30.3059 53.5341 30.4493 53.3097 30.4493H51.945H50.5803C50.3649 30.4493 50.1673 30.3059 50.0955 30.0996L46.9263 20.3886C46.8185 20.0568 47.0609 19.725 47.4111 19.725H48.9463C49.1618 19.725 49.3593 19.8685 49.4311 20.0747L51.4602 26.2708C51.6128 26.7371 52.2682 26.7371 52.4208 26.2708L53.588 22.702L55.5452 16.7122C55.9761 15.412 57.3767 14.6947 58.6785 15.1251L53.7945 30.0996Z" fill="#EF4273"/>
<path d="M66.3111 21.7512C66.0777 21.3477 65.8084 21.0159 65.5031 20.7469C65.1979 20.4779 64.8926 20.2627 64.5784 20.0923C63.8422 19.6978 63.0072 19.4826 62.0825 19.4557C61.1936 19.4557 60.4395 19.5902 59.82 19.8502C59.2005 20.1103 58.6888 20.4869 58.2848 20.9711C57.8807 21.4553 57.5934 22.0471 57.4049 22.7465C57.2253 23.4459 57.1266 24.235 57.1266 25.1227V33.3722C57.1266 33.7219 57.4049 33.9998 57.7551 33.9998H59.012C59.3621 33.9998 59.6404 33.7219 59.6404 33.3722V29.2205C59.7751 29.4088 59.9277 29.5702 60.0893 29.7137C60.4574 30.0276 60.8166 30.2517 61.1667 30.3862C61.5617 30.5387 61.9658 30.6283 62.3877 30.6552C62.4236 30.6552 62.4506 30.6552 62.4865 30.6552C63.3394 30.6373 64.1025 30.44 64.7669 30.0634C65.0632 29.8931 65.3505 29.6778 65.6288 29.4178C65.9071 29.1578 66.1495 28.826 66.374 28.4315C66.5895 28.0369 66.769 27.5617 66.9037 27.0147C67.0384 26.4677 67.1012 25.8221 67.1012 25.0868C67.1012 24.3516 67.0294 23.7149 66.8768 23.159C66.7331 22.621 66.5446 22.1457 66.3111 21.7512ZM64.4168 26.118C64.3629 26.4857 64.2462 26.8264 64.0756 27.1402C63.905 27.4541 63.6626 27.7231 63.3484 27.9293C63.0341 28.1445 62.6122 28.2432 62.0915 28.2432C61.5707 28.2432 61.1488 28.1356 60.8345 27.9293C60.5203 27.7141 60.2689 27.4541 60.0893 27.1402C59.9098 26.8264 59.7931 26.4857 59.7392 26.118C59.6853 25.7504 59.6584 25.4096 59.6584 25.1048C59.6584 24.7282 59.6853 24.3516 59.7302 23.975C59.7841 23.5984 59.8828 23.2666 60.0445 22.9617C60.2061 22.6568 60.4485 22.4147 60.7717 22.2354C61.0949 22.0561 61.5348 21.9574 62.0825 21.9574C62.6032 21.9574 63.0252 22.065 63.3394 22.2713C63.6536 22.4865 63.905 22.7465 64.0666 23.0603C64.2372 23.3742 64.3449 23.7239 64.4078 24.0826C64.4617 24.4502 64.4886 24.7909 64.4886 25.0958C64.4976 25.4096 64.4706 25.7504 64.4168 26.118Z" fill="#EF4273"/>
<path d="M76.9571 22.7192C76.7416 22.0736 76.4633 21.5445 76.1221 21.1231C75.781 20.7017 75.4129 20.3788 75.0178 20.1547C74.6228 19.9305 74.2457 19.7601 73.8956 19.6615C73.5454 19.5539 73.2312 19.5001 72.9708 19.4822C72.7105 19.4642 72.5578 19.4642 72.513 19.4642C72.4591 19.4642 72.2975 19.4732 72.0461 19.4822C71.7947 19.5001 71.4895 19.5539 71.1393 19.6615C70.7892 19.7691 70.4121 19.9305 70.0171 20.1547C69.622 20.3788 69.2539 20.7017 68.9128 21.1231C68.5716 21.5445 68.2933 22.0825 68.0778 22.7192C67.8623 23.3648 67.7456 24.1539 67.7456 25.0954V29.8837C67.7456 30.1975 67.997 30.4486 68.3112 30.4486H69.7567C70.0709 30.4486 70.3223 30.1975 70.3223 29.8837V25.1044C70.3223 24.7905 70.3492 24.4767 70.4031 24.1539C70.457 23.8311 70.5647 23.5352 70.7173 23.2662C70.87 22.9972 71.0944 22.773 71.3727 22.6026C71.6511 22.4233 72.0281 22.3426 72.495 22.3426C72.9619 22.3426 73.3389 22.4322 73.6172 22.6026C73.8956 22.7819 74.12 22.9972 74.2726 23.2662C74.4253 23.5352 74.533 23.8311 74.5869 24.1539C74.6407 24.4767 74.6677 24.7995 74.6677 25.1044V29.8837C74.6677 30.1975 74.9191 30.4486 75.2333 30.4486H76.7147C77.0289 30.4486 77.2803 30.1975 77.2803 29.8837V25.1044C77.2803 24.1539 77.1726 23.3648 76.9571 22.7192Z" fill="#EF4273"/>
</g>
<g filter="url(#filter0_d)">
<path d="M215.106 73H46.3002C42.8684 73 40.0864 75.782 40.0864 79.2138V185.261C40.0864 188.693 42.8684 191.475 46.3002 191.475H215.106C218.538 191.475 221.32 188.693 221.32 185.261V79.2138C221.32 75.782 218.538 73 215.106 73Z" fill="#5B5863"/>
<path d="M214.08 80.1445H47.3256V162.604H214.08V80.1445Z" fill="#FAFAFA"/>
<path d="M128.31 128.224H119.674C119.281 128.224 118.984 128.568 119.055 128.949C119.067 129.032 119.079 129.115 119.091 129.198C119.15 129.531 119.245 129.852 119.376 130.172C119.579 130.66 119.9 131.087 120.34 131.467C120.768 131.848 121.375 132.026 122.148 132.026C122.921 132.026 123.516 131.836 123.956 131.467C124.301 131.17 124.563 130.838 124.765 130.481C124.872 130.291 125.086 130.172 125.3 130.172H127.715C128.155 130.172 128.453 130.612 128.31 131.016C128.203 131.325 128.072 131.622 127.918 131.883C127.644 132.37 127.347 132.798 127.013 133.155C126.68 133.511 126.335 133.808 125.955 134.046C125.574 134.283 125.217 134.473 124.86 134.628C123.992 134.96 123.088 135.139 122.124 135.139C120.863 135.115 119.745 134.853 118.77 134.354C118.353 134.129 117.949 133.844 117.544 133.499C117.14 133.155 116.783 132.715 116.474 132.192C116.164 131.669 115.915 131.04 115.724 130.303C115.534 129.566 115.439 128.723 115.439 127.737C115.439 126.763 115.534 125.907 115.724 125.171C115.915 124.434 116.164 123.804 116.474 123.27C116.783 122.735 117.14 122.295 117.544 121.939C117.949 121.582 118.353 121.297 118.77 121.072C119.733 120.549 120.84 120.276 122.089 120.228C122.112 120.228 122.136 120.228 122.16 120.228C123.183 120.276 124.135 120.489 125.027 120.87C125.408 121.036 125.788 121.262 126.169 121.535C126.55 121.808 126.906 122.141 127.239 122.545C127.573 122.949 127.858 123.424 128.108 123.982C128.358 124.541 128.548 125.182 128.655 125.907C128.691 126.192 128.726 126.477 128.75 126.774C128.774 127.071 128.798 127.392 128.798 127.737C128.81 127.713 128.881 128.224 128.31 128.224ZM124.194 125.883C124.646 125.883 124.967 125.408 124.765 125.004C124.765 125.004 124.765 124.992 124.753 124.992C124.611 124.695 124.42 124.422 124.17 124.173C123.921 123.935 123.635 123.733 123.302 123.59C122.969 123.448 122.564 123.376 122.124 123.376C121.672 123.376 121.28 123.448 120.947 123.59C120.614 123.733 120.316 123.923 120.078 124.173C119.828 124.422 119.638 124.683 119.483 124.992V125.004C119.281 125.42 119.602 125.895 120.054 125.895H124.194V125.883Z" fill="#A12B52"/>
<path d="M113.716 114.229C111.813 114.229 110.278 115.762 110.278 117.662V127.607C110.278 128.023 110.255 128.438 110.207 128.878C110.159 129.306 110.04 129.698 109.85 130.054C109.66 130.411 109.374 130.708 108.994 130.945C108.613 131.183 108.066 131.302 107.376 131.302C106.686 131.302 106.139 131.183 105.758 130.945C105.377 130.708 105.092 130.411 104.901 130.054C104.711 129.698 104.592 129.306 104.545 128.878C104.497 128.45 104.473 128.023 104.473 127.607V117.354C102.57 117.354 101.035 118.886 101.035 120.787V127.595C101.035 128.011 101.012 128.427 100.964 128.866C100.916 129.294 100.797 129.686 100.607 130.042C100.417 130.399 100.131 130.696 99.7506 130.933C99.3699 131.171 98.8227 131.29 98.1327 131.29C97.4428 131.29 96.8956 131.171 96.5149 130.933C96.1342 130.696 95.8487 130.399 95.6584 130.042C95.4681 129.686 95.3491 129.294 95.3015 128.866C95.2539 128.438 95.2301 128.011 95.2301 127.595V120.478C93.3268 120.478 91.7922 122.023 91.7922 123.912V127.595C91.7922 128.569 91.8874 129.425 92.0777 130.161C92.2681 130.898 92.506 131.528 92.7915 132.062C93.0889 132.597 93.422 133.036 93.8026 133.393C94.1833 133.749 94.5759 134.034 94.9684 134.26C95.8844 134.783 96.9431 135.068 98.1208 135.104C99.3223 135.068 100.381 134.783 101.309 134.26C101.701 134.034 102.094 133.749 102.463 133.393C102.558 133.298 102.653 133.203 102.748 133.096C102.843 133.203 102.939 133.298 103.034 133.393C103.414 133.749 103.807 134.034 104.2 134.26C105.116 134.783 106.174 135.068 107.352 135.104C108.553 135.068 109.612 134.783 110.54 134.26C110.933 134.034 111.325 133.749 111.694 133.393C112.075 133.036 112.408 132.597 112.705 132.062C113.003 131.528 113.24 130.898 113.419 130.161C113.597 129.425 113.681 128.581 113.681 127.595L113.716 114.229Z" fill="#A12B52"/>
<path d="M139.22 134.235C139.125 134.509 138.875 134.699 138.577 134.699H136.769H134.961C134.676 134.699 134.414 134.509 134.319 134.235L130.12 121.368C129.977 120.929 130.298 120.489 130.762 120.489H132.796C133.082 120.489 133.343 120.679 133.438 120.953L136.127 129.162C136.329 129.78 137.198 129.78 137.4 129.162L138.946 124.434L141.54 116.497C142.111 114.774 143.966 113.824 145.691 114.394L139.22 134.235Z" fill="#EF4273"/>
<path d="M155.804 123.174C155.495 122.639 155.138 122.2 154.734 121.843C154.329 121.487 153.925 121.202 153.508 120.976C152.533 120.453 151.427 120.168 150.201 120.132C149.024 120.132 148.024 120.311 147.204 120.655C146.383 121 145.705 121.499 145.169 122.14C144.634 122.782 144.253 123.566 144.004 124.493C143.766 125.419 143.635 126.465 143.635 127.641V138.572C143.635 139.035 144.004 139.403 144.468 139.403H146.133C146.597 139.403 146.966 139.035 146.966 138.572V133.071C147.144 133.32 147.346 133.534 147.561 133.724C148.048 134.14 148.524 134.437 148.988 134.615C149.511 134.817 150.047 134.936 150.606 134.972C150.653 134.972 150.689 134.972 150.737 134.972C151.867 134.948 152.878 134.686 153.758 134.187C154.151 133.962 154.531 133.677 154.9 133.332C155.269 132.988 155.59 132.548 155.888 132.025C156.173 131.502 156.411 130.873 156.589 130.148C156.768 129.423 156.851 128.568 156.851 127.594C156.851 126.619 156.756 125.776 156.554 125.039C156.363 124.326 156.114 123.697 155.804 123.174ZM153.294 128.96C153.223 129.447 153.068 129.898 152.842 130.314C152.616 130.73 152.295 131.087 151.879 131.36C151.462 131.645 150.903 131.776 150.213 131.776C149.523 131.776 148.964 131.633 148.548 131.36C148.132 131.075 147.798 130.73 147.561 130.314C147.323 129.898 147.168 129.447 147.097 128.96C147.025 128.473 146.99 128.021 146.99 127.617C146.99 127.118 147.025 126.619 147.085 126.12C147.156 125.621 147.287 125.182 147.501 124.778C147.715 124.374 148.036 124.053 148.465 123.815C148.893 123.578 149.476 123.447 150.201 123.447C150.891 123.447 151.45 123.59 151.867 123.863C152.283 124.148 152.616 124.493 152.83 124.908C153.056 125.324 153.199 125.788 153.282 126.263C153.354 126.75 153.389 127.201 153.389 127.605C153.401 128.021 153.366 128.473 153.294 128.96Z" fill="#EF4273"/>
<path d="M169.91 124.457C169.625 123.601 169.256 122.9 168.804 122.342C168.352 121.783 167.864 121.356 167.341 121.059C166.818 120.762 166.318 120.536 165.854 120.405C165.39 120.263 164.974 120.191 164.629 120.168C164.284 120.144 164.082 120.144 164.022 120.144C163.951 120.144 163.737 120.156 163.403 120.168C163.07 120.191 162.666 120.263 162.202 120.405C161.738 120.548 161.238 120.762 160.715 121.059C160.192 121.356 159.704 121.783 159.252 122.342C158.8 122.9 158.431 123.613 158.145 124.457C157.86 125.312 157.705 126.358 157.705 127.605V133.949C157.705 134.365 158.038 134.698 158.455 134.698H160.37C160.786 134.698 161.119 134.365 161.119 133.949V127.617C161.119 127.201 161.155 126.785 161.226 126.358C161.298 125.93 161.441 125.538 161.643 125.181C161.845 124.825 162.142 124.528 162.511 124.302C162.88 124.065 163.38 123.958 163.998 123.958C164.617 123.958 165.116 124.076 165.485 124.302C165.854 124.54 166.151 124.825 166.354 125.181C166.556 125.538 166.699 125.93 166.77 126.358C166.841 126.785 166.877 127.213 166.877 127.617V133.949C166.877 134.365 167.21 134.698 167.626 134.698H169.589C170.006 134.698 170.339 134.365 170.339 133.949V127.617C170.339 126.358 170.196 125.312 169.91 124.457Z" fill="#EF4273"/>
<path d="M214.08 80.1445H47.3256V91.7619H214.08V80.1445Z" fill="#FD3E72"/>
<path d="M113.652 82.9458H51.1951V88.9786H113.652V82.9458Z" fill="white"/>
<path d="M58.9687 82.9458H51.1951V88.9786H58.9687V82.9458Z" fill="#5B5863"/>
<path d="M250.777 197.895H10.6292V192.664L25.5215 186.709L229.481 183.874L250.777 192.664V197.895Z" fill="#5B5863"/>
<path d="M221.32 170.128H40.0864L10.6292 192.665H250.777L221.32 170.128Z" fill="#D1D1D1"/>
<path d="M215.054 180.065L205.583 173.774H56.1679L46.6964 180.065H215.054Z" fill="white"/>
<path d="M150.857 186.519L147.651 183.874H114.264L110.886 186.519H150.857Z" fill="white"/>
<path d="M204.196 84.4966H200.654V87.4182H204.196V84.4966Z" fill="white"/>
<path d="M209.573 84.4966H205.971V87.4182H209.573V84.4966Z" fill="white"/>
<path d="M198.869 84.4966H195.241V87.4182H198.869V84.4966Z" fill="#F24367"/>
<path opacity="0.3" d="M149.056 80.1445L66.596 162.63H47.3256V127.364L94.5364 80.1445H149.056ZM208.03 80.1445H169.576L87.1161 162.63H125.571L208.03 80.1445Z" fill="white"/>
<path d="M241.073 178.556C241.073 179.685 240.624 180.768 239.826 181.567C239.027 182.365 237.945 182.814 236.815 182.814H202.549C201.42 182.814 200.337 182.365 199.539 181.567C198.74 180.768 198.292 179.685 198.292 178.556V102.595C198.292 101.466 198.74 100.383 199.539 99.5844C200.337 98.786 201.42 98.3374 202.549 98.3374H236.815C237.374 98.3374 237.928 98.4475 238.445 98.6615C238.961 98.8754 239.431 99.189 239.826 99.5844C240.221 99.9797 240.535 100.449 240.749 100.966C240.963 101.482 241.073 102.036 241.073 102.595V178.556Z" fill="#5B5863"/>
<path d="M238.901 107.318H200.464V173.041H238.901V107.318Z" fill="#F1F2F2"/>
<path d="M219.073 138.631H216.114C215.979 138.631 215.878 138.749 215.902 138.879C215.906 138.908 215.91 138.936 215.914 138.965C215.935 139.079 215.967 139.189 216.012 139.299C216.081 139.465 216.191 139.612 216.342 139.742C216.489 139.872 216.697 139.933 216.962 139.933C217.226 139.933 217.43 139.868 217.581 139.742C217.699 139.64 217.789 139.526 217.858 139.404C217.895 139.339 217.968 139.299 218.042 139.299H218.869C219.02 139.299 219.122 139.449 219.073 139.587C219.036 139.693 218.991 139.795 218.938 139.885C218.844 140.052 218.743 140.198 218.628 140.32C218.514 140.442 218.396 140.544 218.266 140.625C218.135 140.707 218.013 140.772 217.891 140.825C217.593 140.939 217.284 141 216.953 141C216.521 140.992 216.138 140.902 215.804 140.731C215.662 140.654 215.523 140.556 215.384 140.438C215.246 140.32 215.124 140.17 215.018 139.99C214.912 139.811 214.826 139.596 214.761 139.343C214.696 139.091 214.663 138.802 214.663 138.464C214.663 138.13 214.696 137.837 214.761 137.585C214.826 137.333 214.912 137.117 215.018 136.934C215.124 136.751 215.246 136.6 215.384 136.478C215.523 136.356 215.662 136.258 215.804 136.181C216.134 136.002 216.513 135.908 216.941 135.892C216.949 135.892 216.958 135.892 216.966 135.892C217.316 135.908 217.642 135.981 217.948 136.112C218.078 136.168 218.209 136.246 218.339 136.339C218.469 136.433 218.592 136.547 218.706 136.685C218.82 136.824 218.918 136.987 219.003 137.178C219.089 137.369 219.154 137.589 219.191 137.837C219.203 137.935 219.215 138.033 219.223 138.134C219.232 138.236 219.24 138.346 219.24 138.464C219.244 138.456 219.268 138.631 219.073 138.631ZM217.663 137.829C217.817 137.829 217.927 137.666 217.858 137.528C217.858 137.528 217.858 137.524 217.854 137.524C217.805 137.422 217.74 137.329 217.654 137.243C217.569 137.162 217.471 137.092 217.357 137.044C217.243 136.995 217.104 136.97 216.953 136.97C216.799 136.97 216.664 136.995 216.55 137.044C216.436 137.092 216.334 137.158 216.252 137.243C216.167 137.329 216.102 137.418 216.049 137.524V137.528C215.979 137.67 216.089 137.833 216.244 137.833H217.663V137.829Z" fill="#A12B52"/>
<path d="M214.073 133.836C213.421 133.836 212.895 134.361 212.895 135.013V138.42C212.895 138.562 212.887 138.704 212.871 138.855C212.855 139.002 212.814 139.136 212.749 139.258C212.683 139.38 212.586 139.482 212.455 139.563C212.325 139.645 212.137 139.685 211.901 139.685C211.665 139.685 211.477 139.645 211.347 139.563C211.216 139.482 211.118 139.38 211.053 139.258C210.988 139.136 210.947 139.002 210.931 138.855C210.915 138.709 210.907 138.562 210.907 138.42V134.907C210.255 134.907 209.729 135.432 209.729 136.083V138.415C209.729 138.558 209.721 138.7 209.704 138.851C209.688 138.997 209.647 139.132 209.582 139.254C209.517 139.376 209.419 139.478 209.289 139.559C209.158 139.641 208.971 139.681 208.734 139.681C208.498 139.681 208.311 139.641 208.18 139.559C208.05 139.478 207.952 139.376 207.887 139.254C207.822 139.132 207.781 138.997 207.764 138.851C207.748 138.704 207.74 138.558 207.74 138.415V135.977C207.088 135.977 206.562 136.507 206.562 137.154V138.415C206.562 138.749 206.595 139.042 206.66 139.295C206.725 139.547 206.807 139.763 206.905 139.946C207.006 140.129 207.121 140.28 207.251 140.402C207.381 140.524 207.516 140.622 207.65 140.699C207.964 140.878 208.327 140.976 208.73 140.988C209.142 140.976 209.505 140.878 209.823 140.699C209.957 140.622 210.092 140.524 210.218 140.402C210.25 140.369 210.283 140.337 210.316 140.3C210.348 140.337 210.381 140.369 210.413 140.402C210.544 140.524 210.678 140.622 210.813 140.699C211.127 140.878 211.489 140.976 211.893 140.988C212.304 140.976 212.667 140.878 212.985 140.699C213.119 140.622 213.254 140.524 213.38 140.402C213.511 140.28 213.625 140.129 213.727 139.946C213.829 139.763 213.91 139.547 213.971 139.295C214.032 139.042 214.061 138.753 214.061 138.415L214.073 133.836Z" fill="#A12B52"/>
<path d="M222.81 140.69C222.777 140.784 222.692 140.849 222.59 140.849H221.971H221.351C221.253 140.849 221.164 140.784 221.131 140.69L219.692 136.282C219.643 136.132 219.754 135.981 219.912 135.981H220.609C220.707 135.981 220.797 136.046 220.829 136.14L221.75 138.952C221.82 139.164 222.117 139.164 222.186 138.952L222.716 137.333L223.605 134.614C223.8 134.023 224.436 133.698 225.027 133.893L222.81 140.69Z" fill="#EF4273"/>
<path d="M228.492 136.9C228.386 136.717 228.263 136.567 228.125 136.445C227.986 136.322 227.848 136.225 227.705 136.147C227.371 135.968 226.992 135.871 226.572 135.858C226.169 135.858 225.826 135.919 225.545 136.037C225.264 136.156 225.032 136.326 224.848 136.546C224.665 136.766 224.535 137.035 224.449 137.352C224.367 137.67 224.323 138.028 224.323 138.431V142.175C224.323 142.334 224.449 142.46 224.608 142.46H225.178C225.337 142.46 225.464 142.334 225.464 142.175V140.291C225.525 140.376 225.594 140.45 225.667 140.515C225.835 140.657 225.998 140.759 226.157 140.82C226.336 140.889 226.519 140.93 226.711 140.942C226.727 140.942 226.739 140.942 226.756 140.942C227.143 140.934 227.489 140.844 227.791 140.673C227.925 140.596 228.056 140.498 228.182 140.38C228.308 140.262 228.418 140.112 228.52 139.933C228.618 139.754 228.7 139.538 228.761 139.29C228.822 139.041 228.85 138.748 228.85 138.415C228.85 138.081 228.818 137.792 228.748 137.539C228.683 137.295 228.598 137.079 228.492 136.9ZM227.632 138.883C227.607 139.049 227.554 139.204 227.477 139.347C227.4 139.489 227.289 139.611 227.147 139.705C227.004 139.802 226.813 139.847 226.576 139.847C226.34 139.847 226.148 139.798 226.006 139.705C225.863 139.607 225.749 139.489 225.667 139.347C225.586 139.204 225.533 139.049 225.509 138.883C225.484 138.716 225.472 138.561 225.472 138.423C225.472 138.252 225.484 138.081 225.504 137.91C225.529 137.739 225.574 137.588 225.647 137.45C225.72 137.311 225.831 137.202 225.977 137.12C226.124 137.039 226.324 136.994 226.572 136.994C226.809 136.994 227 137.043 227.143 137.136C227.285 137.234 227.4 137.352 227.473 137.495C227.55 137.637 227.599 137.796 227.628 137.959C227.652 138.126 227.664 138.28 227.664 138.419C227.668 138.561 227.656 138.716 227.632 138.883Z" fill="#EF4273"/>
<path d="M233.324 137.34C233.226 137.047 233.1 136.807 232.945 136.615C232.79 136.424 232.623 136.277 232.444 136.176C232.264 136.074 232.093 135.997 231.934 135.952C231.775 135.903 231.633 135.879 231.514 135.87C231.396 135.862 231.327 135.862 231.307 135.862C231.282 135.862 231.209 135.866 231.095 135.87C230.981 135.879 230.842 135.903 230.683 135.952C230.524 136.001 230.353 136.074 230.174 136.176C229.994 136.277 229.827 136.424 229.672 136.615C229.518 136.807 229.391 137.051 229.293 137.34C229.196 137.633 229.143 137.991 229.143 138.418V140.592C229.143 140.734 229.257 140.848 229.399 140.848H230.055C230.198 140.848 230.312 140.734 230.312 140.592V138.422C230.312 138.28 230.324 138.138 230.349 137.991C230.373 137.845 230.422 137.71 230.492 137.588C230.561 137.466 230.663 137.364 230.789 137.287C230.915 137.205 231.087 137.169 231.298 137.169C231.51 137.169 231.682 137.21 231.808 137.287C231.934 137.368 232.036 137.466 232.105 137.588C232.175 137.71 232.224 137.845 232.248 137.991C232.272 138.138 232.285 138.284 232.285 138.422V140.592C232.285 140.734 232.399 140.848 232.541 140.848H233.214C233.356 140.848 233.471 140.734 233.471 140.592V138.422C233.471 137.991 233.422 137.633 233.324 137.34Z" fill="#EF4273"/>
<path d="M238.901 107.318H200.464V114.109H238.901V107.318Z" fill="#FD3E72"/>
<path d="M209.488 109.627H203.455V108.766H209.488V109.627ZM209.488 110.3H203.455V111.162H209.488V110.3ZM209.488 111.791H203.455V112.652H209.488V111.791Z" fill="white"/>
<path opacity="0.3" d="M238.901 135.147L200.981 173.067H200.429V159.502L238.866 121.056L238.901 135.147ZM200.463 125.124V150.884L238.901 112.446V107.275H218.269L200.463 125.124Z" fill="white"/>
<path d="M224.509 177.695C224.51 178.025 224.446 178.352 224.32 178.658C224.195 178.963 224.01 179.24 223.777 179.474C223.544 179.708 223.267 179.893 222.962 180.02C222.658 180.147 222.331 180.212 222.001 180.212H217.373C216.705 180.212 216.065 179.947 215.593 179.475C215.121 179.003 214.856 178.363 214.856 177.695C214.856 177.028 215.121 176.388 215.593 175.916C216.065 175.444 216.705 175.179 217.373 175.179H222.001C222.331 175.179 222.658 175.244 222.962 175.37C223.267 175.497 223.544 175.683 223.777 175.916C224.01 176.15 224.195 176.428 224.32 176.733C224.446 177.038 224.51 177.365 224.509 177.695Z" fill="white"/>
<path d="M217.882 103.112C217.879 103.264 217.817 103.408 217.709 103.515C217.601 103.621 217.456 103.681 217.304 103.681H216.253C216.102 103.681 215.957 103.621 215.851 103.514C215.744 103.408 215.684 103.263 215.684 103.112C215.683 103.037 215.697 102.962 215.725 102.892C215.753 102.822 215.794 102.758 215.847 102.704C215.9 102.651 215.963 102.608 216.033 102.579C216.103 102.55 216.177 102.535 216.253 102.535H217.304C217.457 102.535 217.604 102.596 217.712 102.704C217.821 102.812 217.882 102.959 217.882 103.112Z" fill="white"/>
<path d="M220.777 103.112C220.777 103.263 220.717 103.408 220.61 103.514C220.504 103.621 220.359 103.681 220.208 103.681H219.191C219.04 103.681 218.896 103.621 218.789 103.514C218.682 103.408 218.622 103.263 218.622 103.112C218.621 103.037 218.635 102.962 218.663 102.892C218.691 102.822 218.733 102.758 218.786 102.704C218.839 102.651 218.902 102.608 218.972 102.579C219.041 102.55 219.116 102.535 219.191 102.535H220.243C220.318 102.535 220.393 102.55 220.462 102.579C220.532 102.608 220.595 102.651 220.648 102.704C220.701 102.758 220.743 102.822 220.771 102.892C220.799 102.962 220.813 103.037 220.811 103.112H220.777Z" fill="white"/>
<path d="M223.681 103.112C223.681 103.263 223.621 103.408 223.514 103.514C223.408 103.621 223.263 103.681 223.112 103.681H222.061C221.91 103.681 221.765 103.621 221.659 103.514C221.552 103.408 221.492 103.263 221.492 103.112C221.491 103.037 221.505 102.962 221.533 102.892C221.561 102.822 221.603 102.758 221.656 102.704C221.708 102.651 221.772 102.608 221.841 102.579C221.911 102.55 221.985 102.535 222.061 102.535H223.112C223.188 102.535 223.262 102.55 223.332 102.579C223.402 102.608 223.465 102.651 223.518 102.704C223.57 102.758 223.612 102.822 223.64 102.892C223.668 102.962 223.682 103.037 223.681 103.112Z" fill="white"/>
</g>
<defs>
<filter id="filter0_d" x="0.62915" y="69" width="260.148" height="144.895" filterUnits="userSpaceOnUse" color-interpolation-filters="sRGB">
<feFlood flood-opacity="0" result="BackgroundImageFix"/>
<feColorMatrix in="SourceAlpha" type="matrix" values="0 0 0 0 0 0 0 0 0 0 0 0 0 0 0 0 0 0 127 0"/>
<feOffset dy="6"/>
<feGaussianBlur stdDeviation="5"/>
<feColorMatrix type="matrix" values="0 0 0 0 0 0 0 0 0 0 0 0 0 0 0 0 0 0 0.1 0"/>
<feBlend mode="normal" in2="BackgroundImageFix" result="effect1_dropShadow"/>
<feBlend mode="normal" in="SourceGraphic" in2="effect1_dropShadow" result="shape"/>
</filter>
<linearGradient id="paint0_linear" x1="130.904" y1="164.315" x2="130.904" y2="0" gradientUnits="userSpaceOnUse">
<stop stop-color="#EAEAEB"/>
<stop offset="0.51" stop-color="#AAAAAE"/>
<stop offset="0.66" stop-color="#C6C6C9"/>
<stop offset="1" stop-color="white"/>
</linearGradient>
<clipPath id="clip0">
<rect width="251.804" height="198" fill="white" transform="translate(5)"/>
</clipPath>
</defs>
</svg>
