<svg width="265" height="265" viewBox="0 0 265 265" fill="none" xmlns="http://www.w3.org/2000/svg">
<g filter="url(#filter0_d)">
<path d="M132.515 252.97C200.162 252.97 255 198.131 255 130.485C255 62.8383 200.162 8 132.515 8C64.8686 8 10.0303 62.8383 10.0303 130.485C10.0303 198.131 64.8686 252.97 132.515 252.97Z" fill="#FAFAFA"/>
</g>
<g filter="url(#filter1_d)">
<path d="M83.4387 173.241C74.5725 163.836 68.6746 152.027 66.482 139.289C64.2894 126.551 65.8993 113.449 71.1106 101.621C76.3219 89.7933 84.9034 79.7634 95.7828 72.7849C106.662 65.8065 119.357 62.189 132.281 62.3846C145.204 62.5801 157.784 66.5801 168.447 73.8845C179.11 81.1889 187.384 91.4739 192.235 103.454C197.087 115.434 198.299 128.579 195.722 141.244C193.145 153.91 186.893 165.535 177.746 174.668L210.839 206.977C226.423 191.509 237.076 171.771 241.454 150.255C245.833 128.738 243.74 106.407 235.441 86.0787C227.143 65.7501 213.009 48.3349 194.823 36.0303C176.637 23.7256 155.215 17.0828 133.258 16.9399C111.301 16.7969 89.7935 23.1603 71.4492 35.2272C53.1049 47.2941 38.7454 64.5239 30.1825 84.7427C21.6196 104.961 19.2369 127.264 23.335 148.835C27.433 170.407 37.8283 190.281 53.2092 205.951L83.4387 173.241Z" fill="#FD5180"/>
<path d="M21.3591 131.619H65.6944C67.1431 149.17 73.4612 163.01 83.4932 173.042L53.0734 206.051C36.2454 188.252 22.8454 164.699 21.3591 131.619Z" fill="#FF7A9E"/>
<path d="M197.101 127.533L243.657 127.555C244.765 161.064 228.308 189.547 210.927 206.928L177.781 174.591C185.866 166.102 196.27 153.028 197.101 127.533Z" fill="#DA194E"/>
<path d="M178.948 82.9168L212.063 50.3555C234.233 73.4948 243.655 101.207 243.655 127.555H197.099C196.545 110.767 191.002 95.9413 178.948 82.9168Z" fill="#E72258"/>
<path d="M134.769 62.5603L135.225 16.9424C169.668 18.6264 192.53 31.2352 212.091 50.4715L178.952 82.9176C167.174 71.0016 153.318 63.658 134.769 62.5603Z" fill="#EF376A"/>
<path d="M51.2324 52.1226C52.1651 52.4211 81.5458 84.7678 81.5458 84.7678C96.2211 69.6306 113.328 61.6475 134.804 62.4886L135.224 16.9419C101.695 16.4857 74.0964 28.8026 51.2324 52.1226Z" fill="#FB4678"/>
</g>
<path d="M133.757 156.004C147.85 156.004 159.276 144.578 159.276 130.485C159.276 116.391 147.85 104.965 133.757 104.965C119.663 104.965 108.237 116.391 108.237 130.485C108.237 144.578 119.663 156.004 133.757 156.004Z" fill="#5B5863"/>
<g filter="url(#filter2_d)">
<path d="M126.248 132.192C126.784 134.026 128.022 135.574 129.695 136.498C131.367 137.422 133.337 137.648 135.174 137.126L223.932 111.942L132.33 122.967C131.286 123.094 130.283 123.447 129.389 124C128.496 124.554 127.733 125.295 127.155 126.172C126.576 127.05 126.195 128.043 126.039 129.082C125.882 130.122 125.954 131.183 126.248 132.192Z" fill="#FF005A"/>
</g>
<path d="M120.127 194.222L115.248 218.986H108.775L111.322 205.928L103.076 216.542H99.9984L95.4654 205.937L92.8538 218.995H86.4087L91.3614 194.231H97.0603L102.927 208.549L114.12 194.222H120.127Z" fill="#3C3945"/>
<path d="M143.968 199.842L140.144 219.018H133.773L134.165 217.218C132.664 218.624 130.671 219.384 128.615 219.335C124.474 219.335 120.51 216.192 120.51 210.596C120.51 204.235 125.173 199.524 130.91 199.524C133.493 199.524 135.573 200.308 136.786 202.145L137.243 199.842H143.968ZM135.508 208.581C135.551 208.091 135.488 207.597 135.321 207.134C135.154 206.671 134.888 206.25 134.542 205.9C134.195 205.55 133.777 205.28 133.316 205.108C132.854 204.937 132.361 204.868 131.87 204.906C129.212 204.906 127.3 207.061 127.3 210.279C127.257 210.768 127.322 211.261 127.49 211.723C127.659 212.185 127.926 212.605 128.273 212.952C128.621 213.3 129.04 213.567 129.502 213.735C129.964 213.903 130.457 213.968 130.947 213.926C133.642 213.898 135.517 211.771 135.517 208.581H135.508Z" fill="#3C3945"/>
<path d="M158.89 209.8L164.085 219.314H156.94L154.319 214.296L149.656 219.314H142.101L151.689 209.53L146.624 200.203H153.666L156.213 205.09L160.783 200.203H168.217L158.89 209.8Z" fill="#3C3945"/>
<path d="M165.876 215.956C165.86 215.387 165.961 214.82 166.173 214.291C166.385 213.762 166.703 213.282 167.108 212.881C167.513 212.479 167.995 212.166 168.526 211.958C169.057 211.751 169.625 211.654 170.194 211.675C170.687 211.647 171.179 211.723 171.641 211.897C172.102 212.071 172.522 212.34 172.874 212.686C173.225 213.032 173.5 213.448 173.681 213.907C173.862 214.366 173.945 214.857 173.925 215.35C173.939 215.916 173.838 216.479 173.628 217.005C173.418 217.531 173.103 218.008 172.702 218.409C172.302 218.809 171.824 219.124 171.299 219.334C170.773 219.544 170.21 219.645 169.644 219.631C169.151 219.652 168.66 219.571 168.2 219.395C167.74 219.219 167.32 218.95 166.967 218.606C166.615 218.262 166.336 217.85 166.148 217.394C165.96 216.938 165.868 216.449 165.876 215.956Z" fill="#3C3945"/>
<defs>
<filter id="filter0_d" x="0.0302734" y="0" width="264.97" height="264.97" filterUnits="userSpaceOnUse" color-interpolation-filters="sRGB">
<feFlood flood-opacity="0" result="BackgroundImageFix"/>
<feColorMatrix in="SourceAlpha" type="matrix" values="0 0 0 0 0 0 0 0 0 0 0 0 0 0 0 0 0 0 127 0"/>
<feOffset dy="2"/>
<feGaussianBlur stdDeviation="5"/>
<feColorMatrix type="matrix" values="0 0 0 0 0 0 0 0 0 0 0 0 0 0 0 0 0 0 0.1 0"/>
<feBlend mode="normal" in2="BackgroundImageFix" result="effect1_dropShadow"/>
<feBlend mode="normal" in="SourceGraphic" in2="effect1_dropShadow" result="shape"/>
</filter>
<filter id="filter1_d" x="12.3591" y="11.9297" width="240.351" height="208.047" filterUnits="userSpaceOnUse" color-interpolation-filters="sRGB">
<feFlood flood-opacity="0" result="BackgroundImageFix"/>
<feColorMatrix in="SourceAlpha" type="matrix" values="0 0 0 0 0 0 0 0 0 0 0 0 0 0 0 0 0 0 127 0"/>
<feOffset dy="4"/>
<feGaussianBlur stdDeviation="4.5"/>
<feColorMatrix type="matrix" values="0 0 0 0 0 0 0 0 0 0 0 0 0 0 0 0 0 0 0.25 0"/>
<feBlend mode="normal" in2="BackgroundImageFix" result="effect1_dropShadow"/>
<feBlend mode="normal" in="SourceGraphic" in2="effect1_dropShadow" result="shape"/>
</filter>
<filter id="filter2_d" x="123.958" y="111.942" width="101.974" height="33.4591" filterUnits="userSpaceOnUse" color-interpolation-filters="sRGB">
<feFlood flood-opacity="0" result="BackgroundImageFix"/>
<feColorMatrix in="SourceAlpha" type="matrix" values="0 0 0 0 0 0 0 0 0 0 0 0 0 0 0 0 0 0 127 0"/>
<feOffset dy="6"/>
<feGaussianBlur stdDeviation="1"/>
<feColorMatrix type="matrix" values="0 0 0 0 0 0 0 0 0 0 0 0 0 0 0 0 0 0 0.15 0"/>
<feBlend mode="normal" in2="BackgroundImageFix" result="effect1_dropShadow"/>
<feBlend mode="normal" in="SourceGraphic" in2="effect1_dropShadow" result="shape"/>
</filter>
</defs>
</svg>
