<svg width="24" height="24" viewBox="0 0 24 24" fill="none" xmlns="http://www.w3.org/2000/svg">
<path d="M15.0006 7.00045L8.50062 13.5005C8.10279 13.8983 7.8793 14.4378 7.8793 15.0005C7.8793 15.5631 8.10279 16.1026 8.50062 16.5005C8.89844 16.8983 9.43801 17.1218 10.0006 17.1218C10.5632 17.1218 11.1028 16.8983 11.5006 16.5005L18.0006 10.0005C18.7963 9.2048 19.2433 8.12567 19.2433 7.00045C19.2433 5.87523 18.7963 4.7961 18.0006 4.00045C17.205 3.2048 16.1258 2.75781 15.0006 2.75781C13.8754 2.75781 12.7963 3.2048 12.0006 4.00045L5.50062 10.5005C4.30714 11.6939 3.63666 13.3126 3.63666 15.0005C3.63666 16.6883 4.30714 18.307 5.50062 19.5005C6.69409 20.6939 8.31279 21.3644 10.0006 21.3644C11.6884 21.3644 13.3071 20.6939 14.5006 19.5005L21.0006 13.0005" stroke="#2C3E50" stroke-width="1.5" stroke-linecap="round" stroke-linejoin="round"/>
</svg>
