<svg width="513" height="495" viewBox="0 0 513 495" fill="none" xmlns="http://www.w3.org/2000/svg">
<circle cx="257.5" cy="247.5" r="247.5" fill="#FFF2F6"/>
<circle cx="257.908" cy="247.5" r="187.908" fill="#FFE0E9"/>
<g filter="url(#filter0_d)">
<path d="M492.711 28H19.3721C16.9838 28 15.0478 30.1277 15.0478 32.7523V337.455C15.0478 340.079 16.9838 342.207 19.3721 342.207H492.711C495.099 342.207 497.036 340.079 497.036 337.455V32.7523C497.036 30.1277 495.099 28 492.711 28Z" fill="#455A64"/>
<path d="M497.036 51.7477H15.0478V342.567H497.036V51.7477Z" fill="#FAFAFA"/>
<g opacity="0.2">
<g filter="url(#filter1_d)">
<g filter="url(#filter2_d)">
<path d="M345.072 146.924C345.072 146.924 332.07 251.003 310.707 274.421C285.022 302.515 266.422 297.51 256.094 312C245.741 297.492 227.123 302.515 201.455 274.403C180.092 250.985 167.117 146.906 167.117 146.906C207.579 104.659 256.094 88.9457 256.094 88.9457C257.069 89.9288 304.217 106.231 345.072 146.924Z" fill="#FD3E72"/>
</g>
<g filter="url(#filter3_d)">
<path d="M345.072 146.924C345.072 146.924 332.07 251.003 310.707 274.421C285.022 302.515 266.422 297.51 256.094 312L256.094 269.878L256.094 155.069L256.094 88.9456C257.069 89.9287 304.217 106.23 345.072 146.924Z" fill="#E32D5F"/>
</g>
<path d="M331.337 155.324C331.337 155.324 320.355 243.238 302.313 263.034C280.631 286.797 264.892 283.308 256.141 295.548C247.39 283.308 231.66 286.797 209.969 263.034C191.928 243.238 180.972 155.324 180.972 155.324C220.225 114.293 256.141 106.362 256.141 106.362C256.141 106.362 296.436 118.222 331.337 155.324Z" fill="white"/>
<mask id="mask0" mask-type="alpha" maskUnits="userSpaceOnUse" x="255" y="103" width="77" height="203">
<path d="M255.958 103.089H331.383V305.4H255.958V103.089Z" fill="#C4C4C4"/>
</mask>
<g mask="url(#mask0)">
<path d="M331.325 155.325C331.325 155.325 320.342 243.24 302.3 263.035C280.618 286.799 264.879 283.309 256.129 295.55C247.378 283.309 231.648 286.799 209.957 263.035C191.915 243.24 180.959 155.325 180.959 155.325C220.213 114.295 256.129 106.363 256.129 106.363C256.129 106.363 296.423 118.223 331.325 155.325Z" fill="#F8F3F3"/>
</g>
</g>
<circle cx="257.144" cy="199.093" r="38.2397" fill="#FD3E72"/>
<circle cx="257.144" cy="199.093" r="32.8546" fill="#FD3E72" stroke="white" stroke-width="1.5"/>
<path d="M276.843 178.235C273.322 178.235 270.483 181.042 270.483 184.524V202.741C270.483 203.503 270.439 204.265 270.351 205.07C270.263 205.853 270.043 206.572 269.691 207.224C269.339 207.877 268.811 208.421 268.107 208.857C267.402 209.292 266.39 209.51 265.114 209.51C263.837 209.51 262.825 209.292 262.121 208.857C261.417 208.421 260.889 207.877 260.536 207.224C260.184 206.572 259.964 205.853 259.876 205.07C259.788 204.286 259.744 203.503 259.744 202.741V183.959C256.223 183.959 253.384 186.766 253.384 190.248V202.719C253.384 203.481 253.34 204.243 253.252 205.048C253.164 205.832 252.944 206.55 252.592 207.203C252.24 207.856 251.712 208.4 251.008 208.835C250.304 209.27 249.291 209.488 248.015 209.488C246.739 209.488 245.726 209.27 245.022 208.835C244.318 208.4 243.79 207.856 243.438 207.203C243.086 206.55 242.866 205.832 242.778 205.048C242.689 204.265 242.645 203.481 242.645 202.719V189.683C239.124 189.683 236.286 192.512 236.286 195.972V202.719C236.286 204.504 236.462 206.071 236.814 207.42C237.166 208.77 237.606 209.923 238.134 210.903C238.684 211.882 239.301 212.687 240.005 213.34C240.709 213.993 241.435 214.515 242.161 214.929C243.856 215.887 245.814 216.409 247.993 216.474C250.216 216.409 252.174 215.887 253.891 214.929C254.617 214.515 255.343 213.993 256.025 213.34C256.201 213.166 256.377 212.992 256.553 212.796C256.729 212.992 256.905 213.166 257.081 213.34C257.786 213.993 258.512 214.515 259.238 214.929C260.933 215.887 262.891 216.409 265.07 216.474C267.292 216.409 269.251 215.887 270.967 214.929C271.694 214.515 272.42 213.993 273.102 213.34C273.806 212.687 274.422 211.882 274.972 210.903C275.523 209.923 275.963 208.77 276.293 207.42C276.623 206.071 276.777 204.526 276.777 202.719L276.843 178.235Z" fill="white"/>
</g>
<circle cx="466.022" cy="67.1478" r="8.64324" fill="#FADAE3"/>
<path d="M470.597 62.5752C469.803 62.5752 469.162 63.1725 469.162 63.9132V67.7885C469.162 67.9506 469.152 68.1126 469.133 68.2839C469.113 68.4506 469.063 68.6034 468.984 68.7423C468.904 68.8812 468.785 68.9969 468.626 69.0895C468.467 69.1821 468.239 69.2284 467.951 69.2284C467.663 69.2284 467.434 69.1821 467.275 69.0895C467.116 68.9969 466.997 68.8812 466.918 68.7423C466.838 68.6034 466.789 68.4506 466.769 68.2839C466.749 68.1172 466.739 67.9506 466.739 67.7885V63.7929C465.945 63.7929 465.304 64.3901 465.304 65.1309V67.7839C465.304 67.9459 465.294 68.108 465.274 68.2793C465.254 68.446 465.205 68.5988 465.125 68.7377C465.046 68.8766 464.927 68.9923 464.768 69.0849C464.609 69.1775 464.38 69.2238 464.092 69.2238C463.804 69.2238 463.576 69.1775 463.417 69.0849C463.258 68.9923 463.139 68.8766 463.06 68.7377C462.98 68.5988 462.93 68.446 462.911 68.2793C462.891 68.1126 462.881 67.9459 462.881 67.7839V65.0105C462.086 65.0105 461.446 65.6124 461.446 66.3486V67.7839C461.446 68.1635 461.485 68.4969 461.565 68.784C461.644 69.071 461.744 69.3164 461.863 69.5247C461.987 69.7331 462.126 69.9044 462.285 70.0433C462.444 70.1822 462.608 70.2933 462.772 70.3813C463.154 70.585 463.596 70.6961 464.087 70.71C464.589 70.6961 465.031 70.585 465.418 70.3813C465.582 70.2933 465.746 70.1822 465.9 70.0433C465.94 70.0063 465.979 69.9692 466.019 69.9275C466.059 69.9692 466.099 70.0063 466.138 70.0433C466.297 70.1822 466.461 70.2933 466.625 70.3813C467.007 70.585 467.449 70.6961 467.941 70.71C468.442 70.6961 468.884 70.585 469.272 70.3813C469.435 70.2933 469.599 70.1822 469.753 70.0433C469.912 69.9044 470.051 69.7331 470.175 69.5247C470.299 69.3164 470.399 69.071 470.473 68.784C470.548 68.4969 470.582 68.1682 470.582 67.7839L470.597 62.5752Z" fill="#FD3E72"/>
<path d="M23.1827 83.9253H481.783" stroke="#F2D9E0"/>
<path d="M58.4897 40.0901C58.4897 40.9266 58.2417 41.7443 57.7769 42.4398C57.3122 43.1353 56.6517 43.6774 55.8789 43.9975C55.106 44.3177 54.2556 44.4014 53.4352 44.2382C52.6148 44.075 51.8612 43.6722 51.2697 43.0807C50.6782 42.4892 50.2754 41.7356 50.1122 40.9152C49.949 40.0948 50.0328 39.2444 50.3529 38.4716C50.673 37.6988 51.2151 37.0382 51.9106 36.5735C52.6061 36.1088 53.4238 35.8607 54.2603 35.8607C54.8157 35.8607 55.3657 35.9701 55.8789 36.1827C56.392 36.3952 56.8582 36.7067 57.251 37.0995C57.6437 37.4922 57.9552 37.9585 58.1678 38.4716C58.3803 38.9847 58.4897 39.5347 58.4897 40.0901Z" fill="#00B67A"/>
<path d="M32.852 40.0901C32.852 40.9266 32.6039 41.7443 32.1392 42.4398C31.6745 43.1353 31.0139 43.6774 30.2411 43.9975C29.4683 44.3177 28.6179 44.4014 27.7975 44.2382C26.9771 44.075 26.2235 43.6722 25.632 43.0807C25.0405 42.4892 24.6377 41.7356 24.4745 40.9152C24.3113 40.0948 24.3951 39.2444 24.7152 38.4716C25.0353 37.6988 25.5774 37.0382 26.2729 36.5735C26.9684 36.1088 27.7861 35.8607 28.6226 35.8607C29.178 35.8607 29.728 35.9701 30.2411 36.1827C30.7543 36.3952 31.2205 36.7067 31.6132 37.0995C32.006 37.4922 32.3175 37.9585 32.5301 38.4716C32.7426 38.9847 32.852 39.5347 32.852 40.0901Z" fill="#FD3E72"/>
<path d="M45.1621 40.0903C45.1621 40.9287 44.9129 41.7481 44.4462 42.4445C43.9795 43.1409 43.3164 43.683 42.541 44.0018C41.7656 44.3206 40.913 44.4017 40.0914 44.235C39.2699 44.0682 38.5164 43.6611 37.9266 43.0652C37.3369 42.4693 36.9376 41.7117 36.7794 40.8884C36.6211 40.0651 36.7111 39.2134 37.0379 38.4414C37.3647 37.6694 37.9136 37.0119 38.6148 36.5524C39.3161 36.093 40.138 35.8523 40.9763 35.8609C42.0905 35.8724 43.1551 36.3231 43.9388 37.115C44.7226 37.9069 45.1622 38.9761 45.1621 40.0903Z" fill="#F8C83C"/>
</g>
<g filter="url(#filter4_d)">
<rect x="41" y="117" width="123" height="32" rx="16" fill="white"/>
</g>
<path d="M79.1094 138H81.2969V127.016H79.5469L76.2188 129.391L77.2656 131.008L79.1094 129.625V138ZM87.625 138.133C88.5 138.133 89.2578 137.898 89.9141 137.43C90.5625 136.961 91.0547 136.297 91.3984 135.453C91.7422 134.609 91.9141 133.633 91.9141 132.508C91.9141 131.633 91.8047 130.844 91.6016 130.133C91.3906 129.43 91.1016 128.836 90.7266 128.359C90.3516 127.891 89.8984 127.523 89.3672 127.266C88.8359 127.016 88.2578 126.883 87.625 126.883C86.9688 126.883 86.3672 127.023 85.8359 127.289C85.2969 127.562 84.8438 127.945 84.4844 128.438C84.1172 128.93 83.8359 129.523 83.6406 130.219C83.4375 130.914 83.3438 131.68 83.3438 132.508C83.3438 133.383 83.4453 134.18 83.6562 134.883C83.8594 135.594 84.1562 136.188 84.5312 136.656C84.9062 137.133 85.3516 137.5 85.8828 137.75C86.4062 138.008 86.9844 138.133 87.625 138.133ZM87.6328 136.109C87.2031 136.109 86.8359 135.969 86.5234 135.672C86.2109 135.383 85.9688 134.969 85.8125 134.422C85.6484 133.883 85.5703 133.242 85.5703 132.508C85.5703 131.359 85.75 130.469 86.1172 129.844C86.4844 129.219 86.9922 128.906 87.6328 128.906C88.2734 128.906 88.7812 129.227 89.1406 129.867C89.5 130.508 89.6875 131.391 89.6875 132.508C89.6875 133.664 89.5 134.547 89.1406 135.172C88.7812 135.797 88.2734 136.109 87.6328 136.109ZM94.6484 138.133C95 138.133 95.3047 138.008 95.5547 137.758C95.8047 137.508 95.9375 137.211 95.9375 136.859C95.9375 136.516 95.8047 136.211 95.5547 135.961C95.3047 135.711 95 135.578 94.6484 135.578C94.2812 135.578 93.9688 135.703 93.7188 135.953C93.4688 136.203 93.3438 136.508 93.3438 136.859C93.3438 137.219 93.4688 137.516 93.7188 137.766C93.9688 138.016 94.2812 138.133 94.6484 138.133ZM100.602 136.023V135.984L102.672 133.844C103.359 133.133 103.828 132.5 104.094 131.945C104.359 131.398 104.492 130.797 104.492 130.148C104.492 129.656 104.391 129.203 104.203 128.781C104.016 128.367 103.758 128.023 103.438 127.75C103.109 127.477 102.742 127.266 102.32 127.109C101.898 126.961 101.461 126.883 101 126.883C100.125 126.883 99.3906 127.078 98.7891 127.453C98.1797 127.828 97.7031 128.336 97.3594 128.961L98.9219 130.078C99.3984 129.289 100.039 128.891 100.836 128.891C101.117 128.891 101.367 128.961 101.586 129.086C101.805 129.219 101.984 129.398 102.109 129.625C102.234 129.852 102.297 130.102 102.297 130.383C102.297 130.797 102.172 131.195 101.938 131.586C101.695 131.977 101.328 132.43 100.828 132.961L97.4062 136.57L97.4297 138H104.609V136.023H100.602ZM110.039 130.914C109.648 130.914 109.188 130.992 108.664 131.148L108.789 128.984H112.891V127.016H106.891L106.555 132.82L107.719 133.25C108.188 132.875 108.734 132.688 109.367 132.688C109.586 132.688 109.812 132.727 110.031 132.797C110.25 132.875 110.453 132.977 110.641 133.117C110.82 133.258 110.969 133.445 111.078 133.664C111.188 133.891 111.25 134.141 111.25 134.414C111.25 134.906 111.07 135.32 110.727 135.648C110.375 135.984 109.938 136.148 109.414 136.148C108.508 136.148 107.797 135.812 107.289 135.133L105.727 136.398C106.18 136.969 106.734 137.398 107.391 137.695C108.047 137.992 108.758 138.133 109.523 138.133C110.258 138.133 110.922 137.984 111.516 137.672C112.109 137.359 112.586 136.922 112.93 136.359C113.273 135.797 113.453 135.156 113.453 134.445C113.453 134.023 113.391 133.617 113.273 133.242C113.156 132.867 112.992 132.539 112.789 132.258C112.578 131.977 112.328 131.734 112.047 131.531C111.766 131.328 111.453 131.18 111.109 131.07C110.766 130.969 110.406 130.914 110.039 130.914ZM118.898 130.914C118.508 130.914 118.047 130.992 117.523 131.148L117.648 128.984H121.75V127.016H115.75L115.414 132.82L116.578 133.25C117.047 132.875 117.594 132.688 118.227 132.688C118.445 132.688 118.672 132.727 118.891 132.797C119.109 132.875 119.312 132.977 119.5 133.117C119.68 133.258 119.828 133.445 119.938 133.664C120.047 133.891 120.109 134.141 120.109 134.414C120.109 134.906 119.93 135.32 119.586 135.648C119.234 135.984 118.797 136.148 118.273 136.148C117.367 136.148 116.656 135.812 116.148 135.133L114.586 136.398C115.039 136.969 115.594 137.398 116.25 137.695C116.906 137.992 117.617 138.133 118.383 138.133C119.117 138.133 119.781 137.984 120.375 137.672C120.969 137.359 121.445 136.922 121.789 136.359C122.133 135.797 122.312 135.156 122.312 134.445C122.312 134.023 122.25 133.617 122.133 133.242C122.016 132.867 121.852 132.539 121.648 132.258C121.438 131.977 121.188 131.734 120.906 131.531C120.625 131.328 120.312 131.18 119.969 131.07C119.625 130.969 119.266 130.914 118.898 130.914ZM125.07 138.133C125.422 138.133 125.727 138.008 125.977 137.758C126.227 137.508 126.359 137.211 126.359 136.859C126.359 136.516 126.227 136.211 125.977 135.961C125.727 135.711 125.422 135.578 125.07 135.578C124.703 135.578 124.391 135.703 124.141 135.953C123.891 136.203 123.766 136.508 123.766 136.859C123.766 137.219 123.891 137.516 124.141 137.766C124.391 138.016 124.703 138.133 125.07 138.133ZM132.078 138.133C132.953 138.133 133.711 137.898 134.367 137.43C135.016 136.961 135.508 136.297 135.852 135.453C136.195 134.609 136.367 133.633 136.367 132.508C136.367 131.633 136.258 130.844 136.055 130.133C135.844 129.43 135.555 128.836 135.18 128.359C134.805 127.891 134.352 127.523 133.82 127.266C133.289 127.016 132.711 126.883 132.078 126.883C131.422 126.883 130.82 127.023 130.289 127.289C129.75 127.562 129.297 127.945 128.938 128.438C128.57 128.93 128.289 129.523 128.094 130.219C127.891 130.914 127.797 131.68 127.797 132.508C127.797 133.383 127.898 134.18 128.109 134.883C128.312 135.594 128.609 136.188 128.984 136.656C129.359 137.133 129.805 137.5 130.336 137.75C130.859 138.008 131.438 138.133 132.078 138.133ZM132.086 136.109C131.656 136.109 131.289 135.969 130.977 135.672C130.664 135.383 130.422 134.969 130.266 134.422C130.102 133.883 130.023 133.242 130.023 132.508C130.023 131.359 130.203 130.469 130.57 129.844C130.938 129.219 131.445 128.906 132.086 128.906C132.727 128.906 133.234 129.227 133.594 129.867C133.953 130.508 134.141 131.391 134.141 132.508C134.141 133.664 133.953 134.547 133.594 135.172C133.234 135.797 132.727 136.109 132.086 136.109ZM139.102 138.133C139.453 138.133 139.758 138.008 140.008 137.758C140.258 137.508 140.391 137.211 140.391 136.859C140.391 136.516 140.258 136.211 140.008 135.961C139.758 135.711 139.453 135.578 139.102 135.578C138.734 135.578 138.422 135.703 138.172 135.953C137.922 136.203 137.797 136.508 137.797 136.859C137.797 137.219 137.922 137.516 138.172 137.766C138.422 138.016 138.734 138.133 139.102 138.133ZM143.734 138H145.922V127.016H144.172L140.844 129.391L141.891 131.008L143.734 129.625V138Z" fill="#5B5863"/>
<path d="M68 133C68 139.627 62.6274 145 56 145C49.3726 145 44 139.627 44 133C44 126.373 49.3726 121 56 121C62.6274 121 68 126.373 68 133Z" fill="white"/>
<path d="M52 133L55 136L61 130" stroke="#00B67A" stroke-width="2.5" stroke-linecap="round" stroke-linejoin="round"/>
<path fill-rule="evenodd" clip-rule="evenodd" d="M56 142.677C61.3447 142.677 65.6774 138.345 65.6774 133C65.6774 127.655 61.3447 123.323 56 123.323C50.6553 123.323 46.3226 127.655 46.3226 133C46.3226 138.345 50.6553 142.677 56 142.677ZM56 145C62.6274 145 68 139.627 68 133C68 126.373 62.6274 121 56 121C49.3726 121 44 126.373 44 133C44 139.627 49.3726 145 56 145Z" fill="#00B67A"/>
<g filter="url(#filter5_d)">
<path d="M93 163V254H199" stroke="#00B67A" stroke-width="2" stroke-linecap="round" stroke-linejoin="round" stroke-dasharray="5 5"/>
</g>
<g filter="url(#filter6_d)">
<path d="M406 191V254H339" stroke="#00B67A" stroke-width="2" stroke-linecap="round" stroke-linejoin="round" stroke-dasharray="5 5"/>
</g>
<g filter="url(#filter7_d)">
<path d="M176 133H348" stroke="#00B67A" stroke-width="2" stroke-linecap="round" stroke-linejoin="round" stroke-dasharray="5 5"/>
</g>
<path d="M344 133C344 135.761 346.239 138 349 138C351.761 138 354 135.761 354 133C354 130.239 351.761 128 349 128C346.239 128 344 130.239 344 133Z" fill="#00B67A"/>
<g filter="url(#filter8_d)">
<circle cx="408" cy="131" r="44" fill="white"/>
</g>
<rect x="390.161" y="113.74" width="35.2262" height="38.9493" fill="#E42C60"/>
<rect x="384" y="103" width="47.5945" height="17.1869" rx="5" fill="#EF4273"/>
<circle cx="392.552" cy="111.52" r="2.93552" fill="white"/>
<rect x="419.082" y="110.876" width="7.303" height="1.43196" fill="white"/>
<rect x="384" y="142.662" width="47.5945" height="17.1869" rx="5" fill="#FD3E72"/>
<circle cx="391.804" cy="151.328" r="2.93552" fill="white"/>
<rect x="402.183" y="150.684" width="24.2002" height="1.43196" fill="white"/>
<rect x="384" y="122.831" width="47.5945" height="17.1869" rx="5" fill="#FFCEDB"/>
<rect x="423.519" y="125.912" width="2.86392" height="1.43196" fill="white"/>
<rect x="417.939" y="125.912" width="2.86392" height="1.43196" fill="white"/>
<rect x="412.356" y="125.912" width="2.86392" height="1.43196" fill="white"/>
<rect x="406.77" y="125.913" width="2.86392" height="1.43196" fill="white"/>
<path d="M384 106.305C384 104.48 385.48 103 387.305 103V120.187C385.48 120.187 384 118.707 384 116.882V106.305Z" fill="#FF628E"/>
<path d="M431.597 106.305C431.597 104.48 430.117 103 428.291 103V120.187C430.117 120.187 431.597 118.707 431.597 116.882V106.305Z" fill="#D12657"/>
<path d="M431.597 126.136C431.597 124.311 430.117 122.831 428.291 122.831V140.018C430.117 140.018 431.597 138.538 431.597 136.713V126.136Z" fill="#FFB9CC"/>
<path d="M431.597 145.967C431.597 144.142 430.117 142.662 428.291 142.662V159.849C430.117 159.849 431.597 158.369 431.597 156.544V145.967Z" fill="#F12F64"/>
<path d="M384 126.136C384 124.311 385.48 122.831 387.305 122.831V140.018C385.48 140.018 384 138.538 384 136.713V126.136Z" fill="#FFE2EA"/>
<path d="M384 145.967C384 144.142 385.48 142.662 387.305 142.662V159.849C385.48 159.849 384 158.369 384 156.544V145.967Z" fill="#FF6690"/>
<path d="M171 133C171 135.761 173.239 138 176 138C178.761 138 181 135.761 181 133C181 130.239 178.761 128 176 128C173.239 128 171 130.239 171 133Z" fill="#00B67A"/>
<g filter="url(#filter9_d)">
<circle cx="257.5" cy="132.5" r="13.5" fill="white"/>
</g>
<circle cx="257.5" cy="132.5" r="11.0244" fill="#44C19D" stroke="#44C19D"/>
<path d="M253.148 134.622C252.991 134.461 252.894 134.239 252.894 133.993L252.891 128.826C252.889 126.276 254.906 124.203 257.388 124.206C259.869 124.208 261.89 126.284 261.892 128.834L261.894 134.001C261.895 134.492 261.508 134.89 261.03 134.889C260.552 134.889 260.164 134.49 260.163 133.999L260.161 128.833C260.16 127.263 258.916 125.986 257.389 125.984C255.862 125.983 254.621 127.258 254.622 128.827L254.624 133.994C254.625 134.486 254.238 134.884 253.76 134.883C253.521 134.883 253.304 134.783 253.148 134.622Z" fill="white"/>
<path d="M254.122 139.759C252.924 139.759 251.949 139.014 251.949 138.098V132.894C251.949 131.979 252.924 131.234 254.122 131.234H260.932C262.13 131.234 263.105 131.979 263.105 132.894V138.098C263.105 139.014 262.13 139.759 260.932 139.759H254.122Z" fill="white"/>
<path d="M261.96 133.331C261.96 132.824 261.364 132.409 260.636 132.409H254.416C253.688 132.409 253.092 132.824 253.092 133.331V137.661C253.092 138.168 253.688 138.583 254.416 138.583H260.636C261.364 138.583 261.96 138.168 261.96 137.661V133.331Z" fill="white"/>
<path d="M258.526 134.328C258.526 133.756 258.014 133.292 257.382 133.292C256.75 133.292 256.238 133.756 256.238 134.328C256.238 134.707 256.463 135.042 256.799 135.223L256.481 137.702H257.41H258.34L258.019 135.193C258.325 135.007 258.526 134.687 258.526 134.328Z" fill="#44C19D"/>
<g filter="url(#filter10_d)">
<circle cx="377.5" cy="254.5" r="13.5" fill="white"/>
</g>
<circle cx="377.5" cy="254.5" r="11.0244" fill="#44C19D" stroke="#44C19D"/>
<path d="M373.148 256.622C372.991 256.461 372.894 256.239 372.894 255.993L372.891 250.826C372.889 248.276 374.906 246.203 377.388 246.206C379.869 246.208 381.89 248.284 381.892 250.834L381.894 256.001C381.895 256.492 381.508 256.89 381.03 256.889C380.552 256.889 380.164 256.49 380.163 255.999L380.161 250.833C380.16 249.263 378.916 247.986 377.389 247.984C375.862 247.983 374.621 249.258 374.622 250.827L374.624 255.994C374.625 256.486 374.238 256.884 373.76 256.883C373.521 256.883 373.304 256.783 373.148 256.622Z" fill="white"/>
<path d="M374.122 261.759C372.924 261.759 371.949 261.014 371.949 260.098V254.894C371.949 253.979 372.924 253.234 374.122 253.234H380.932C382.13 253.234 383.105 253.979 383.105 254.894V260.098C383.105 261.014 382.13 261.759 380.932 261.759H374.122Z" fill="white"/>
<path d="M381.96 255.331C381.96 254.824 381.364 254.409 380.636 254.409H374.416C373.688 254.409 373.092 254.824 373.092 255.331V259.661C373.092 260.168 373.688 260.583 374.416 260.583H380.636C381.364 260.583 381.96 260.168 381.96 259.661V255.331Z" fill="white"/>
<path d="M378.526 256.328C378.526 255.756 378.014 255.292 377.382 255.292C376.75 255.292 376.238 255.756 376.238 256.328C376.238 256.707 376.463 257.042 376.799 257.223L376.481 259.702H377.41H378.34L378.019 257.193C378.325 257.007 378.526 256.687 378.526 256.328Z" fill="#44C19D"/>
<g filter="url(#filter11_d)">
<circle cx="129.5" cy="254.5" r="13.5" fill="white"/>
</g>
<circle cx="129.5" cy="254.5" r="11.0244" fill="#44C19D" stroke="#44C19D"/>
<path d="M125.148 256.622C124.991 256.461 124.894 256.239 124.894 255.993L124.891 250.826C124.889 248.276 126.906 246.203 129.388 246.206C131.869 246.208 133.89 248.284 133.892 250.834L133.894 256.001C133.895 256.492 133.507 256.89 133.03 256.889C132.552 256.889 132.164 256.49 132.163 255.999L132.161 250.833C132.16 249.263 130.916 247.986 129.389 247.984C127.862 247.983 126.621 249.258 126.622 250.827L126.624 255.994C126.625 256.486 126.238 256.884 125.76 256.883C125.521 256.883 125.304 256.783 125.148 256.622Z" fill="white"/>
<path d="M126.122 261.759C124.924 261.759 123.949 261.014 123.949 260.098V254.894C123.949 253.979 124.924 253.234 126.122 253.234H132.932C134.13 253.234 135.105 253.979 135.105 254.894V260.098C135.105 261.014 134.13 261.759 132.932 261.759H126.122Z" fill="white"/>
<path d="M133.96 255.331C133.96 254.824 133.364 254.409 132.636 254.409H126.416C125.688 254.409 125.092 254.824 125.092 255.331V259.661C125.092 260.168 125.688 260.583 126.416 260.583H132.636C133.364 260.583 133.96 260.168 133.96 259.661V255.331Z" fill="white"/>
<path d="M130.526 256.328C130.526 255.756 130.014 255.292 129.382 255.292C128.75 255.292 128.238 255.756 128.238 256.328C128.238 256.707 128.463 257.042 128.799 257.223L128.481 259.702H129.41H130.34L130.019 257.193C130.325 257.007 130.526 256.687 130.526 256.328Z" fill="#44C19D"/>
<circle cx="92.5" cy="162.5" r="4.5" fill="#00B67A"/>
<path d="M401.5 190.5C401.5 192.985 403.515 195 406 195C408.485 195 410.5 192.985 410.5 190.5C410.5 188.015 408.485 186 406 186C403.515 186 401.5 188.015 401.5 190.5Z" fill="#00B67A"/>
<path d="M76 476C76 476.538 159.502 477 262.491 477C365.481 477 449 476.538 449 476C449 475.462 365.541 475 262.491 475C159.441 475 76 475.423 76 476Z" fill="#263238"/>
<g filter="url(#filter12_d)">
<path d="M285.058 444.314L247.284 440.609V394.128H232.332V440.583L194.453 444.314C192.638 444.49 190.954 445.336 189.729 446.687C188.504 448.038 187.826 449.797 187.828 451.62V457.29H291.683V451.594C291.679 449.775 290.998 448.023 289.774 446.677C288.55 445.332 286.869 444.49 285.058 444.314Z" fill="#323036"/>
<path d="M190.273 473.952C184.941 473.087 181.321 468.063 182.186 462.731C183.052 457.399 188.076 453.778 193.407 454.644C198.739 455.509 202.36 460.533 201.495 465.865C200.629 471.197 195.605 474.818 190.273 473.952Z" fill="#263238"/>
<path d="M278.038 465.903C277.173 460.571 280.793 455.547 286.125 454.681C291.457 453.816 296.481 457.437 297.347 462.769C298.212 468.1 294.591 473.124 289.26 473.99C283.928 474.855 278.904 471.235 278.038 465.903Z" fill="#263238"/>
<path d="M235.212 405.533H244.495C245.93 405.533 247.305 404.963 248.319 403.949C249.333 402.935 249.903 401.559 249.903 400.125V358.319H229.805V400.125C229.805 401.559 230.375 402.935 231.389 403.949C232.403 404.963 233.778 405.533 235.212 405.533Z" fill="#423F47"/>
<path d="M292.063 276.329C292.063 276.329 280.868 346.26 258.767 358.305H281.235C281.235 358.305 303.428 334.476 310.132 276.329H292.063Z" fill="#423F47"/>
<path d="M282.335 348.42H194.715C192.979 348.42 191.314 349.11 190.086 350.337C188.858 351.565 188.169 353.23 188.169 354.967V363.726H288.881V354.967C288.881 353.23 288.192 351.565 286.964 350.337C285.736 349.11 284.071 348.42 282.335 348.42Z" fill="#AA8C30"/>
<path d="M186.611 356.066H290.453C291.906 356.066 293.084 357.245 293.084 358.698V361.081C293.084 362.534 291.906 363.713 290.453 363.713H186.611C185.157 363.713 183.979 362.534 183.979 361.081V358.698C183.979 357.245 185.157 356.066 186.611 356.066Z" fill="#263238"/>
<path opacity="0.6" d="M186.611 356.066H290.453C291.906 356.066 293.084 357.245 293.084 358.698V361.081C293.084 362.534 291.906 363.713 290.453 363.713H186.611C185.157 363.713 183.979 362.534 183.979 361.081V358.698C183.979 357.245 185.157 356.066 186.611 356.066Z" fill="#A48835"/>
<path d="M312.855 290.548H276.849C266.374 290.548 259.448 282.09 261.556 271.655L264.306 257.723C266.4 247.249 276.652 238.843 287.192 238.843H323.225C333.699 238.843 340.626 247.301 338.518 257.723L335.729 271.655C333.699 282.09 323.395 290.548 312.855 290.548Z" fill="#AA8C30"/>
<path d="M278.957 221.599H256.018L253.91 235.282L274.309 238.843L278.957 221.599Z" fill="#CB2955"/>
<path d="M126.631 411.673L134.866 414.894L140.784 403.726L146.166 393.578L137.04 388.105L131.528 400.57L126.631 411.673Z" fill="#FFBE9D"/>
<path opacity="0.2" d="M131.528 400.57L140.784 403.726L146.166 393.578L137.04 388.105L131.528 400.57Z" fill="black"/>
<path d="M133.23 394.482L144.437 400.531C144.437 400.531 186.768 326.109 193.275 326.725C199.782 327.34 261.53 366.659 280.358 352.086C299.186 337.513 280.868 293.808 280.868 293.808C280.868 293.808 244.077 279.825 239.847 288.375C237.992 291.837 236.34 295.405 234.898 299.059C234.073 301.677 233.445 303.995 233.445 303.995C232.253 303.51 193.786 287.733 176.607 296.139C159.141 304.82 133.23 394.482 133.23 394.482Z" fill="#4D2A15"/>
<path d="M194.087 455.169L202.872 454.161L202.912 441.774L202.925 430.396L192.306 429.899L193.249 443.28L194.087 455.169Z" fill="#FFBE9D"/>
<path opacity="0.2" d="M193.275 443.555L202.938 442.01V430.527L192.319 429.964L193.275 443.555Z" fill="black"/>
<path d="M149.91 396.799L133.518 388.59L131.816 395.529L144.228 401.932L149.91 396.799Z" fill="#422412"/>
<path d="M251.212 352.243C251.212 352.243 248.515 351.942 207.115 344.269C207.115 344.269 206.172 397.231 204.208 436.694L191.455 437.113C191.455 437.113 173.125 349.494 175.311 336.296C177.498 323.098 193.21 321.278 193.21 321.278C193.21 321.278 220.587 342.489 251.212 352.243Z" fill="#422412"/>
<path d="M206.604 433.172L189.216 432.766L191.586 439.928L205.7 440.059L206.604 433.172Z" fill="#381F0F"/>
<path opacity="0.3" d="M233.445 304.034L256.018 312.073C256.018 312.073 244.142 303.209 234.898 299.098C234.073 301.769 233.445 304.034 233.445 304.034Z" fill="black"/>
<path d="M282.322 290.705L282.649 297.409L240.345 288.44L241.327 281.042L282.322 290.705Z" fill="#AB6D29"/>
<path d="M269.466 286.605L271.577 286.997L269.588 297.72L267.476 297.329L269.466 286.605Z" fill="#4D2A15"/>
<path d="M251.006 283.881L260.241 285.962L258.663 292.962L249.429 290.88L251.006 283.881Z" fill="white"/>
<path d="M243.773 280.276L245.884 280.668L243.897 291.392L241.785 291L243.773 280.276Z" fill="#4D2A15"/>
<path d="M110.264 426.272C111.641 425.85 113.083 425.685 114.52 425.788C114.52 425.788 119.822 423.575 126.303 412.995L131.789 413.716C132.713 413.855 133.572 414.276 134.249 414.92C134.925 415.564 135.388 416.401 135.573 417.316C135.619 417.572 135.619 417.833 135.573 418.089C135.343 419.418 135.024 420.73 134.618 422.017C133.211 426.268 131.549 430.43 129.642 434.481L128.739 434.115L131.554 426.167C132.496 423.47 129.21 425.748 127.469 428.367C125.727 430.986 123.266 433.513 117.4 431.3C110.578 428.642 107.881 427.228 110.264 426.272Z" fill="#FD3E72"/>
<path d="M127.639 410.194C127.639 410.194 118.827 423.562 114.546 425.788C114.546 425.788 119.39 429.716 125.858 423.405C134.212 415.326 135.6 418.089 135.6 418.089C135.674 416.506 135.6 414.919 135.377 413.349C134.683 410.285 127.639 410.194 127.639 410.194Z" fill="#FFBE9D"/>
<path d="M180.941 470.75C182.182 470.02 183.543 469.518 184.961 469.27C184.961 469.27 189.596 465.853 193.327 454.069L198.827 453.467C199.762 453.38 200.701 453.585 201.514 454.054C202.328 454.523 202.976 455.233 203.37 456.085C203.487 456.32 203.567 456.572 203.606 456.832C203.691 458.166 203.691 459.504 203.606 460.838C203.243 465.297 202.613 469.731 201.72 474.115L200.764 473.971L201.615 465.591C201.89 462.737 199.232 465.735 198.159 468.694C197.085 471.653 195.304 474.691 189.085 473.931C181.818 472.976 178.859 472.242 180.941 470.75Z" fill="#FD3E72"/>
<path d="M194.021 451.005C194.021 451.005 188.627 466.089 184.961 469.27C184.961 469.27 190.591 471.889 195.435 464.282C201.641 454.436 203.658 456.805 203.658 456.805C203.363 455.25 202.924 453.724 202.349 452.249C200.882 449.421 194.021 451.005 194.021 451.005Z" fill="#FFBE9D"/>
<path d="M258.715 175.328C258.715 175.328 279.389 165.286 286.21 186.916C293.032 208.546 284.286 223.472 284.286 223.472C284.286 223.472 260.364 217.344 240.227 221.626C240.227 221.626 244.574 203.19 243.527 192.611C242.479 182.032 258.715 175.328 258.715 175.328Z" fill="#263238"/>
<path d="M242.584 224.284C238.041 224.48 219.016 250.051 219.016 250.051L211.946 240.886C211.946 240.886 201.052 262.057 206.447 272.139C211.841 282.221 240.253 254.673 240.253 254.673L242.584 224.284Z" fill="#FD3E72"/>
<path opacity="0.2" d="M240.738 244.722L240.266 254.686C240.266 254.686 235.592 259.216 229.687 263.93C229.124 251.963 240.266 234.536 240.266 234.536L240.738 244.722Z" fill="black"/>
<path opacity="0.2" d="M219.003 250.051L220.024 252.002L217.065 263.524C217.065 263.524 225.235 256.087 220.024 248.807L219.003 250.051Z" fill="black"/>
<path d="M240.201 247.092C240.201 247.406 240.201 247.733 240.201 248.061C240.201 249.475 240.201 250.967 240.293 252.552C240.293 252.683 240.293 252.814 240.293 252.958C240.293 253.809 240.293 254.686 240.293 255.576C240.293 255.733 240.293 255.877 240.293 256.035C240.293 257.344 240.384 258.653 240.437 259.962C240.437 260.146 240.437 260.329 240.437 260.512C240.437 262.293 240.581 264.165 240.672 266.142C240.882 270.581 241.131 275.504 241.445 280.964L242.034 281.108L282.034 290.587H282.191C282.191 290.587 280.58 269.193 283.343 257.082C283.363 256.976 283.389 256.871 283.422 256.768C283.422 256.584 283.5 256.401 283.553 256.218C283.605 256.035 283.736 255.537 283.814 255.183C283.893 254.83 283.998 254.476 284.102 254.11C284.456 252.8 284.836 251.491 285.242 250.051C285.503 249.108 285.791 248.139 286.093 247.144L286.25 246.647C286.603 245.468 286.983 244.251 287.376 242.994C287.494 242.627 287.598 242.274 287.716 241.894C288.292 240.1 288.908 238.202 289.575 236.211C290.309 233.968 291.112 231.59 291.985 229.076C287.397 227.613 282.723 226.441 277.988 225.567L275.958 225.2L273.811 224.847C270.224 224.27 266.597 223.865 262.97 223.603C261.512 223.498 260.059 223.419 258.61 223.367C257.733 223.367 256.829 223.367 255.991 223.367H255.625L253.006 223.446H251.788H251.016H250.178L248.869 223.524H247.874L246.08 223.642L245.373 223.707H244.744H244.168H243.697L242.558 223.812C242.558 223.812 242.558 223.812 242.453 223.812L242.361 223.904C242.274 224.008 242.199 224.122 242.139 224.244C241.736 225.097 241.45 226 241.288 226.928C241.288 227.19 241.183 227.478 241.118 227.793C241.052 228.107 240.96 228.774 240.869 229.351C240.777 229.927 240.751 230.189 240.699 230.66C240.646 231.131 240.607 231.511 240.568 231.969C240.18 237 240.058 242.048 240.201 247.092Z" fill="white"/>
<path d="M261.923 232.035C271.454 230.817 274.309 226.732 274.309 226.732C270.381 223.066 271.127 217.658 272.122 214.28C272.422 213.209 272.816 212.166 273.301 211.164L261.831 213.311C262.098 214.904 262.246 216.515 262.276 218.13C262.319 219.322 262.209 220.514 261.949 221.678C261.176 225.108 259.225 225.161 259.225 225.161C257.209 228.919 261.923 232.035 261.923 232.035Z" fill="#FFBE9D"/>
<path opacity="0.2" d="M262.276 218.13C262.319 219.322 262.209 220.514 261.949 221.678C266.505 221.089 269.949 217.436 272.122 214.28C272.422 213.209 272.816 212.166 273.301 211.164L261.831 213.311C262.098 214.904 262.246 216.515 262.276 218.13Z" fill="black"/>
<path d="M259.225 181.141C248.672 183.289 246.433 189.639 247.874 200.663C249.68 214.45 254.656 223.485 267.265 217.894C284.364 210.3 276.744 177.567 259.225 181.141Z" fill="#FFBE9D"/>
<path d="M274.374 196.565C274.374 196.565 267.67 188.906 267.055 182.058C267.055 182.058 244.417 177.79 247.703 199.223C247.703 199.223 241.825 180.788 259.867 176.677C277.909 172.565 283.251 199.105 275.5 208.912C275.5 208.912 278.538 201.37 274.374 196.565Z" fill="#263238"/>
<path d="M273.104 199.145C273.031 198.53 273.08 197.907 273.247 197.311C273.415 196.715 273.699 196.158 274.082 195.672C274.465 195.185 274.94 194.779 275.48 194.477C276.019 194.174 276.614 193.98 277.228 193.907C280.567 193.593 283.5 199.983 275.697 203.256C274.571 203.727 273.68 202.719 273.104 199.145Z" fill="#FFBE9D"/>
<path d="M259.605 181.875C259.605 181.875 267.461 198.372 278.276 195.924C289.091 193.475 267.801 174.975 267.801 174.975C267.801 174.975 248.594 171.845 241.733 183.184C234.872 194.523 247.703 199.289 247.703 199.289C247.703 199.289 244.299 185.907 259.605 181.875Z" fill="#263238"/>
<path d="M270.08 195.478C270.152 195.476 270.221 195.45 270.277 195.405C270.334 195.361 270.375 195.299 270.394 195.23C270.406 195.188 270.409 195.145 270.403 195.103C270.397 195.06 270.383 195.019 270.361 194.982C270.339 194.946 270.309 194.914 270.275 194.889C270.24 194.864 270.2 194.846 270.158 194.837C260.993 192.519 259.788 180.722 259.775 180.605C259.765 180.52 259.723 180.443 259.657 180.389C259.591 180.335 259.507 180.309 259.422 180.317C259.378 180.318 259.336 180.328 259.297 180.347C259.258 180.367 259.224 180.394 259.197 180.427C259.169 180.461 259.15 180.5 259.139 180.542C259.128 180.584 259.126 180.627 259.134 180.67C259.134 180.788 260.443 193.043 270.001 195.465L270.08 195.478Z" fill="#263238"/>
<path d="M235.658 241.161C235.677 241.301 235.665 241.443 235.623 241.578C235.582 241.713 235.511 241.837 235.416 241.942C235.321 242.047 235.205 242.13 235.075 242.185C234.944 242.24 234.804 242.266 234.663 242.26H223.717C223.414 242.249 223.125 242.133 222.898 241.933C222.671 241.732 222.521 241.459 222.473 241.161L220.037 219.557C220.005 219.405 220.006 219.248 220.039 219.097C220.073 218.946 220.138 218.803 220.231 218.679C220.324 218.555 220.443 218.453 220.579 218.378C220.715 218.304 220.865 218.259 221.019 218.248H231.965C232.293 218.287 232.596 218.439 232.824 218.678C233.051 218.917 233.187 219.228 233.209 219.557L235.658 241.161Z" fill="#263238"/>
<path opacity="0.5" d="M231.992 219.413L234.479 241.226C234.51 241.353 234.511 241.486 234.481 241.614C234.451 241.742 234.392 241.861 234.308 241.961C234.224 242.062 234.118 242.141 233.997 242.193C233.877 242.245 233.746 242.268 233.615 242.26H224.332C223.704 242.26 222.564 241.92 222.499 241.305L220.011 219.413C220.011 218.797 221.006 218.3 221.635 218.3H230.918C231.205 218.313 231.476 218.436 231.676 218.643C231.876 218.85 231.989 219.125 231.992 219.413Z" fill="#5B5863"/>
<path d="M212.718 242.968L218.427 233.279C218.382 231.173 218.544 229.068 218.911 226.994C219.409 225.789 225 223.066 226.1 223.485C227.199 223.904 227.592 233.881 226.597 235.269C225.602 236.657 222.106 238.11 222.106 238.11L222.342 240.009L219.003 250.09L212.718 242.968Z" fill="#FFBE9D"/>
<path d="M210.427 241.868L212.312 239.969L221.308 250.051L220.024 254.044L210.427 241.868Z" fill="#CB2955"/>
<path d="M256.018 221.599L257.157 225.789L254.839 229.193L249.707 277.062L235.658 274.993C236.626 237.691 236.967 237.495 242.387 224.074L254.97 223.197L256.018 221.599Z" fill="#FD3E72"/>
<path d="M278.957 221.599L266.479 226.837L269.543 232.074L266.518 281.082L285.425 286.62C285.425 286.62 299.146 250.614 292.115 229.246L279.729 225.671L278.957 221.599Z" fill="#FD3E72"/>
<path opacity="0.2" d="M255.939 257.972C255.939 257.972 260.639 264.82 267.003 273.278C269.464 276.552 272.24 280.06 274.95 283.504L285.425 286.568C289.295 275.919 291.999 264.883 293.49 253.652C288.358 248.506 282.073 242.274 282.073 242.274C282.073 242.274 279.192 251.177 280.462 258.915L268.338 251.491L264.567 249.187L255.939 257.972Z" fill="black"/>
<path d="M266.178 252.447L253.203 242.26C252.451 240.057 251.527 237.916 250.44 235.858C249.654 234.902 238.276 230.712 237.347 230.621C236.417 230.529 237.347 239.943 238.774 241.54C240.201 243.138 249.353 246.306 249.353 246.306L262.918 259.124L266.178 252.447Z" fill="#FFBE9D"/>
<path d="M292.115 229.193C299.736 233.017 303.127 276.041 289.89 283.465C276.652 290.889 256.895 257.278 256.895 257.278L264.581 249.121C264.581 249.121 280.685 262.607 282.623 261.363C284.561 260.12 282.361 246.961 282.361 246.961C282.361 246.961 280.096 243.033 284.862 236.709C289.628 230.385 292.115 229.193 292.115 229.193Z" fill="#FD3E72"/>
<path d="M256.751 260.316L254.446 258.928L263.075 246.28L266.243 248.048L256.751 260.316Z" fill="#CB2955"/>
</g>
<defs>
<filter id="filter0_d" x="0.047821" y="17" width="511.988" height="344.567" filterUnits="userSpaceOnUse" color-interpolation-filters="sRGB">
<feFlood flood-opacity="0" result="BackgroundImageFix"/>
<feColorMatrix in="SourceAlpha" type="matrix" values="0 0 0 0 0 0 0 0 0 0 0 0 0 0 0 0 0 0 127 0" result="hardAlpha"/>
<feOffset dy="4"/>
<feGaussianBlur stdDeviation="7.5"/>
<feColorMatrix type="matrix" values="0 0 0 0 0 0 0 0 0 0 0 0 0 0 0 0 0 0 0.25 0"/>
<feBlend mode="normal" in2="BackgroundImageFix" result="effect1_dropShadow"/>
<feBlend mode="normal" in="SourceGraphic" in2="effect1_dropShadow" result="shape"/>
</filter>
<filter id="filter1_d" x="142.117" y="75.9456" width="227.956" height="273.054" filterUnits="userSpaceOnUse" color-interpolation-filters="sRGB">
<feFlood flood-opacity="0" result="BackgroundImageFix"/>
<feColorMatrix in="SourceAlpha" type="matrix" values="0 0 0 0 0 0 0 0 0 0 0 0 0 0 0 0 0 0 127 0" result="hardAlpha"/>
<feOffset dy="12"/>
<feGaussianBlur stdDeviation="12.5"/>
<feColorMatrix type="matrix" values="0 0 0 0 0 0 0 0 0 0 0 0 0 0 0 0 0 0 0.1 0"/>
<feBlend mode="normal" in2="BackgroundImageFix" result="effect1_dropShadow"/>
<feBlend mode="normal" in="SourceGraphic" in2="effect1_dropShadow" result="shape"/>
</filter>
<filter id="filter2_d" x="161.117" y="86.9457" width="189.956" height="235.054" filterUnits="userSpaceOnUse" color-interpolation-filters="sRGB">
<feFlood flood-opacity="0" result="BackgroundImageFix"/>
<feColorMatrix in="SourceAlpha" type="matrix" values="0 0 0 0 0 0 0 0 0 0 0 0 0 0 0 0 0 0 127 0" result="hardAlpha"/>
<feOffset dy="4"/>
<feGaussianBlur stdDeviation="3"/>
<feColorMatrix type="matrix" values="0 0 0 0 0 0 0 0 0 0 0 0 0 0 0 0 0 0 0.1 0"/>
<feBlend mode="normal" in2="BackgroundImageFix" result="effect1_dropShadow"/>
<feBlend mode="normal" in="SourceGraphic" in2="effect1_dropShadow" result="shape"/>
</filter>
<filter id="filter3_d" x="250.094" y="86.9456" width="100.978" height="235.054" filterUnits="userSpaceOnUse" color-interpolation-filters="sRGB">
<feFlood flood-opacity="0" result="BackgroundImageFix"/>
<feColorMatrix in="SourceAlpha" type="matrix" values="0 0 0 0 0 0 0 0 0 0 0 0 0 0 0 0 0 0 127 0" result="hardAlpha"/>
<feOffset dy="4"/>
<feGaussianBlur stdDeviation="3"/>
<feColorMatrix type="matrix" values="0 0 0 0 0 0 0 0 0 0 0 0 0 0 0 0 0 0 0.1 0"/>
<feBlend mode="normal" in2="BackgroundImageFix" result="effect1_dropShadow"/>
<feBlend mode="normal" in="SourceGraphic" in2="effect1_dropShadow" result="shape"/>
</filter>
<filter id="filter4_d" x="32" y="112" width="141" height="50" filterUnits="userSpaceOnUse" color-interpolation-filters="sRGB">
<feFlood flood-opacity="0" result="BackgroundImageFix"/>
<feColorMatrix in="SourceAlpha" type="matrix" values="0 0 0 0 0 0 0 0 0 0 0 0 0 0 0 0 0 0 127 0" result="hardAlpha"/>
<feOffset dy="4"/>
<feGaussianBlur stdDeviation="4.5"/>
<feComposite in2="hardAlpha" operator="out"/>
<feColorMatrix type="matrix" values="0 0 0 0 0 0 0 0 0 0 0 0 0 0 0 0 0 0 0.15 0"/>
<feBlend mode="normal" in2="BackgroundImageFix" result="effect1_dropShadow"/>
<feBlend mode="normal" in="SourceGraphic" in2="effect1_dropShadow" result="shape"/>
</filter>
<filter id="filter5_d" x="88" y="162" width="116" height="101" filterUnits="userSpaceOnUse" color-interpolation-filters="sRGB">
<feFlood flood-opacity="0" result="BackgroundImageFix"/>
<feColorMatrix in="SourceAlpha" type="matrix" values="0 0 0 0 0 0 0 0 0 0 0 0 0 0 0 0 0 0 127 0" result="hardAlpha"/>
<feOffset dy="4"/>
<feGaussianBlur stdDeviation="2"/>
<feComposite in2="hardAlpha" operator="out"/>
<feColorMatrix type="matrix" values="0 0 0 0 0 0 0 0 0 0 0 0 0 0 0 0 0 0 0.25 0"/>
<feBlend mode="normal" in2="BackgroundImageFix" result="effect1_dropShadow"/>
<feBlend mode="normal" in="SourceGraphic" in2="effect1_dropShadow" result="shape"/>
</filter>
<filter id="filter6_d" x="334" y="190" width="77" height="73" filterUnits="userSpaceOnUse" color-interpolation-filters="sRGB">
<feFlood flood-opacity="0" result="BackgroundImageFix"/>
<feColorMatrix in="SourceAlpha" type="matrix" values="0 0 0 0 0 0 0 0 0 0 0 0 0 0 0 0 0 0 127 0" result="hardAlpha"/>
<feOffset dy="4"/>
<feGaussianBlur stdDeviation="2"/>
<feComposite in2="hardAlpha" operator="out"/>
<feColorMatrix type="matrix" values="0 0 0 0 0 0 0 0 0 0 0 0 0 0 0 0 0 0 0.25 0"/>
<feBlend mode="normal" in2="BackgroundImageFix" result="effect1_dropShadow"/>
<feBlend mode="normal" in="SourceGraphic" in2="effect1_dropShadow" result="shape"/>
</filter>
<filter id="filter7_d" x="171" y="132" width="182" height="10" filterUnits="userSpaceOnUse" color-interpolation-filters="sRGB">
<feFlood flood-opacity="0" result="BackgroundImageFix"/>
<feColorMatrix in="SourceAlpha" type="matrix" values="0 0 0 0 0 0 0 0 0 0 0 0 0 0 0 0 0 0 127 0" result="hardAlpha"/>
<feOffset dy="4"/>
<feGaussianBlur stdDeviation="2"/>
<feComposite in2="hardAlpha" operator="out"/>
<feColorMatrix type="matrix" values="0 0 0 0 0 0 0 0 0 0 0 0 0 0 0 0 0 0 0.25 0"/>
<feBlend mode="normal" in2="BackgroundImageFix" result="effect1_dropShadow"/>
<feBlend mode="normal" in="SourceGraphic" in2="effect1_dropShadow" result="shape"/>
</filter>
<filter id="filter8_d" x="350" y="77" width="116" height="116" filterUnits="userSpaceOnUse" color-interpolation-filters="sRGB">
<feFlood flood-opacity="0" result="BackgroundImageFix"/>
<feColorMatrix in="SourceAlpha" type="matrix" values="0 0 0 0 0 0 0 0 0 0 0 0 0 0 0 0 0 0 127 0" result="hardAlpha"/>
<feOffset dy="4"/>
<feGaussianBlur stdDeviation="7"/>
<feComposite in2="hardAlpha" operator="out"/>
<feColorMatrix type="matrix" values="0 0 0 0 0 0 0 0 0 0 0 0 0 0 0 0 0 0 0.15 0"/>
<feBlend mode="normal" in2="BackgroundImageFix" result="effect1_dropShadow"/>
<feBlend mode="normal" in="SourceGraphic" in2="effect1_dropShadow" result="shape"/>
</filter>
<filter id="filter9_d" x="235" y="112" width="45" height="45" filterUnits="userSpaceOnUse" color-interpolation-filters="sRGB">
<feFlood flood-opacity="0" result="BackgroundImageFix"/>
<feColorMatrix in="SourceAlpha" type="matrix" values="0 0 0 0 0 0 0 0 0 0 0 0 0 0 0 0 0 0 127 0" result="hardAlpha"/>
<feOffset dy="2"/>
<feGaussianBlur stdDeviation="4.5"/>
<feColorMatrix type="matrix" values="0 0 0 0 0 0 0 0 0 0 0 0 0 0 0 0 0 0 0.2 0"/>
<feBlend mode="normal" in2="BackgroundImageFix" result="effect1_dropShadow"/>
<feBlend mode="normal" in="SourceGraphic" in2="effect1_dropShadow" result="shape"/>
</filter>
<filter id="filter10_d" x="355" y="234" width="45" height="45" filterUnits="userSpaceOnUse" color-interpolation-filters="sRGB">
<feFlood flood-opacity="0" result="BackgroundImageFix"/>
<feColorMatrix in="SourceAlpha" type="matrix" values="0 0 0 0 0 0 0 0 0 0 0 0 0 0 0 0 0 0 127 0" result="hardAlpha"/>
<feOffset dy="2"/>
<feGaussianBlur stdDeviation="4.5"/>
<feColorMatrix type="matrix" values="0 0 0 0 0 0 0 0 0 0 0 0 0 0 0 0 0 0 0.2 0"/>
<feBlend mode="normal" in2="BackgroundImageFix" result="effect1_dropShadow"/>
<feBlend mode="normal" in="SourceGraphic" in2="effect1_dropShadow" result="shape"/>
</filter>
<filter id="filter11_d" x="107" y="234" width="45" height="45" filterUnits="userSpaceOnUse" color-interpolation-filters="sRGB">
<feFlood flood-opacity="0" result="BackgroundImageFix"/>
<feColorMatrix in="SourceAlpha" type="matrix" values="0 0 0 0 0 0 0 0 0 0 0 0 0 0 0 0 0 0 127 0" result="hardAlpha"/>
<feOffset dy="2"/>
<feGaussianBlur stdDeviation="4.5"/>
<feColorMatrix type="matrix" values="0 0 0 0 0 0 0 0 0 0 0 0 0 0 0 0 0 0 0.2 0"/>
<feBlend mode="normal" in2="BackgroundImageFix" result="effect1_dropShadow"/>
<feBlend mode="normal" in="SourceGraphic" in2="effect1_dropShadow" result="shape"/>
</filter>
<filter id="filter12_d" x="99.4131" y="167" width="249.483" height="321.118" filterUnits="userSpaceOnUse" color-interpolation-filters="sRGB">
<feFlood flood-opacity="0" result="BackgroundImageFix"/>
<feColorMatrix in="SourceAlpha" type="matrix" values="0 0 0 0 0 0 0 0 0 0 0 0 0 0 0 0 0 0 127 0" result="hardAlpha"/>
<feOffset dy="4"/>
<feGaussianBlur stdDeviation="5"/>
<feComposite in2="hardAlpha" operator="out"/>
<feColorMatrix type="matrix" values="0 0 0 0 0 0 0 0 0 0 0 0 0 0 0 0 0 0 0.25 0"/>
<feBlend mode="normal" in2="BackgroundImageFix" result="effect1_dropShadow"/>
<feBlend mode="normal" in="SourceGraphic" in2="effect1_dropShadow" result="shape"/>
</filter>
</defs>
</svg>
