<svg width="96" height="89" viewBox="0 0 96 89" fill="none" xmlns="http://www.w3.org/2000/svg">
<path d="M46.5 70.5C46.5 69.6716 47.1716 69 48 69C48.8284 69 49.5 69.6716 49.5 70.5V84C49.5 84.8284 48.8284 85.5 48 85.5C47.1716 85.5 46.5 84.8284 46.5 84V70.5Z" fill="#5B5863"/>
<path d="M0 14.75H96V63.25C96 67.3921 92.6421 70.75 88.5 70.75H7.5C3.35786 70.75 0 67.3921 0 63.25V14.75Z" fill="#FD3E72"/>
<path d="M2 14.75H94V62.75C94 66.0637 91.3137 68.75 88 68.75H8C4.68629 68.75 2 66.0637 2 62.75V14.75Z" fill="#FFFEFE"/>
<path d="M21 51H24.2341V44.7515H30.7022V41.8371H24.2341V37.4258H31.989V34.5H21V51Z" fill="url(#paint0_linear)"/>
<path d="M47.442 51L43.3539 45.0124V44.967C44.0599 44.7402 44.6634 44.4 45.1645 43.9577C45.6655 43.5268 46.0527 42.9711 46.326 42.3021C46.5993 41.633 46.7474 40.8619 46.7474 40C46.7474 39.1948 46.6221 38.4577 46.3943 37.8C46.1666 37.1423 45.8136 36.5639 45.3581 36.0649C44.9026 35.566 44.299 35.1804 43.5474 34.9082C42.7959 34.6361 41.9418 34.5 40.9739 34.5H34.7107V51H37.9447V45.3526H39.8465L43.5588 51H47.442ZM37.9447 37.4031H40.3817C41.3155 37.4031 42.0443 37.6299 42.5681 38.0835C43.0919 38.5371 43.3539 39.1608 43.3539 39.932C43.3539 40.7144 43.0806 41.3381 42.5453 41.7918C41.9987 42.2454 41.2358 42.4722 40.245 42.4722H37.9447V37.4031Z" fill="url(#paint1_linear)"/>
<path d="M49.9359 51H61.016V48.0856H53.17V44.2639H59.0687V41.3835H53.17V37.4258H60.5264V34.5H49.9359V51Z" fill="url(#paint2_linear)"/>
<path d="M63.9199 51H75V48.0856H67.1539V44.2639H73.0527V41.3835H67.1539V37.4258H74.5103V34.5H63.9199V51Z" fill="url(#paint3_linear)"/>
<path d="M4.5 85.5C4.5 84.6716 5.10861 84 5.85937 84H90.1406C90.8914 84 91.5 84.6716 91.5 85.5C91.5 86.3284 90.8914 87 90.1406 87H5.85937C5.10861 87 4.5 86.3284 4.5 85.5Z" fill="#5B5863"/>
<path d="M0 7.5C0 3.35786 3.35786 0 7.5 0H88.5C92.6421 0 96 3.35786 96 7.5V16.5H0V7.5Z" fill="#FD3E72"/>
<path d="M12.5769 8.44228C12.5769 10.1416 11.1993 11.5192 9.49996 11.5192C7.80062 11.5192 6.42303 10.1416 6.42303 8.44228C6.42303 6.74294 7.80062 5.36536 9.49996 5.36536C11.1993 5.36536 12.5769 6.74294 12.5769 8.44228Z" fill="white"/>
<path d="M22.423 8.44228C22.423 10.1416 21.0454 11.5192 19.3461 11.5192C17.6468 11.5192 16.2692 10.1416 16.2692 8.44228C16.2692 6.74294 17.6468 5.36536 19.3461 5.36536C21.0454 5.36536 22.423 6.74294 22.423 8.44228Z" fill="white"/>
<path d="M32.2692 8.44228C32.2692 10.1416 30.8916 11.5192 29.1923 11.5192C27.4929 11.5192 26.1154 10.1416 26.1154 8.44228C26.1154 6.74294 27.4929 5.36536 29.1923 5.36536C30.8916 5.36536 32.2692 6.74294 32.2692 8.44228Z" fill="white"/>
<path d="M34.5 84C34.5 83.1716 35.1716 82.5 36 82.5H60C60.8284 82.5 61.5 83.1716 61.5 84V87C61.5 87.8284 60.8284 88.5 60 88.5H36C35.1716 88.5 34.5 87.8284 34.5 87V84Z" fill="#FD3E72"/>
<defs>
<linearGradient id="paint0_linear" x1="18.2831" y1="30.4144" x2="71.1195" y2="82.0807" gradientUnits="userSpaceOnUse">
<stop stop-color="#FE6556"/>
<stop offset="0.479167" stop-color="#FD3E72"/>
<stop offset="1" stop-color="#49A8FF"/>
</linearGradient>
<linearGradient id="paint1_linear" x1="18.2831" y1="30.4144" x2="71.1195" y2="82.0807" gradientUnits="userSpaceOnUse">
<stop stop-color="#FE6556"/>
<stop offset="0.479167" stop-color="#FD3E72"/>
<stop offset="1" stop-color="#49A8FF"/>
</linearGradient>
<linearGradient id="paint2_linear" x1="18.2831" y1="30.4144" x2="71.1195" y2="82.0807" gradientUnits="userSpaceOnUse">
<stop stop-color="#FE6556"/>
<stop offset="0.479167" stop-color="#FD3E72"/>
<stop offset="1" stop-color="#49A8FF"/>
</linearGradient>
<linearGradient id="paint3_linear" x1="18.2831" y1="30.4144" x2="71.1195" y2="82.0807" gradientUnits="userSpaceOnUse">
<stop stop-color="#FE6556"/>
<stop offset="0.479167" stop-color="#FD3E72"/>
<stop offset="1" stop-color="#49A8FF"/>
</linearGradient>
</defs>
</svg>
