<svg width="529" height="529" viewBox="0 0 529 529" fill="none" xmlns="http://www.w3.org/2000/svg">
<circle opacity="0.2" cx="264.5" cy="264.5" r="264.5" fill="white"/>
<circle opacity="0.2" cx="264.5" cy="264.5" r="205.5" fill="white"/>
<path d="M485.047 153.76H59.037C50.6385 153.76 43.8302 160.568 43.8302 168.967V440.383C43.8302 448.781 50.6385 455.59 59.037 455.59H485.047C493.446 455.59 500.254 448.781 500.254 440.383V168.967C500.254 160.568 493.446 153.76 485.047 153.76Z" fill="#455A64"/>
<path d="M25.9932 436.093H520.492V443.931C520.492 448.859 518.534 453.584 515.05 457.068C511.566 460.552 506.841 462.51 501.914 462.51H44.5712C39.644 462.51 34.9186 460.552 31.4346 457.068C27.9505 453.584 25.9932 448.859 25.9932 443.931V436.093Z" fill="#455A64"/>
<path d="M486.728 165.752H56.0833V420.646H486.728V165.752Z" fill="#263238"/>
<path d="M227.053 433.265L233.19 443.023H319.536L325.235 433.265H227.053Z" fill="#263238"/>
<path d="M475.33 174.383H68.3677C66.4828 174.383 64.9548 175.911 64.9548 177.796V416.419C64.9548 418.304 66.4828 419.832 68.3677 419.832H475.33C477.215 419.832 478.743 418.304 478.743 416.419V177.796C478.743 175.911 477.215 174.383 475.33 174.383Z" fill="#EBEBEB"/>
<path d="M478.305 420.187H64.5165L64.9549 192.721H478.305V420.187Z" fill="#FAFAFA"/>
<path d="M98.8858 183.86C98.8858 184.515 98.6915 185.155 98.3275 185.7C97.9635 186.244 97.4461 186.668 96.8409 186.918C96.2358 187.168 95.57 187.233 94.9279 187.105C94.2858 186.976 93.6963 186.66 93.234 186.196C92.7717 185.732 92.4575 185.142 92.331 184.499C92.2045 183.857 92.2715 183.191 92.5235 182.587C92.7755 181.983 93.2012 181.467 93.7467 181.104C94.2922 180.742 94.9329 180.55 95.5877 180.552C96.0217 180.552 96.4514 180.637 96.8522 180.804C97.253 180.97 97.6171 181.214 97.9235 181.521C98.2299 181.829 98.4726 182.194 98.6377 182.595C98.8029 182.996 98.8872 183.426 98.8858 183.86Z" fill="#263238"/>
<path d="M78.857 183.86C78.857 184.515 78.6627 185.155 78.2987 185.7C77.9347 186.244 77.4174 186.668 76.8122 186.918C76.207 187.168 75.5413 187.233 74.8992 187.105C74.2571 186.976 73.6676 186.66 73.2053 186.196C72.743 185.732 72.4287 185.142 72.3022 184.499C72.1758 183.857 72.2428 183.191 72.4948 182.587C72.7468 181.983 73.1725 181.467 73.718 181.104C74.2634 180.742 74.9041 180.55 75.5589 180.552C75.9929 180.552 76.4226 180.637 76.8235 180.804C77.2243 180.97 77.5883 181.214 77.8947 181.521C78.2011 181.829 78.4439 182.194 78.609 182.595C78.7741 182.996 78.8584 183.426 78.857 183.86Z" fill="#263238"/>
<path d="M88.4801 183.86C88.4801 184.515 88.286 185.154 87.9225 185.698C87.5589 186.243 87.0422 186.667 86.4377 186.917C85.8331 187.167 85.1679 187.233 84.5261 187.105C83.8843 186.978 83.2947 186.663 82.832 186.2C82.3693 185.737 82.0542 185.148 81.9266 184.506C81.7989 183.864 81.8644 183.199 82.1148 182.594C82.3652 181.99 82.7893 181.473 83.3334 181.109C83.8775 180.746 84.5172 180.552 85.1715 180.552C86.049 180.552 86.8906 180.9 87.511 181.521C88.1315 182.141 88.4801 182.983 88.4801 183.86Z" fill="#263238"/>
<path d="M496.33 433.244C496.33 433.411 395.027 433.536 270.096 433.536C145.164 433.536 43.8301 433.411 43.8301 433.244C43.8301 433.077 145.07 432.952 270.096 432.952C395.121 432.952 496.33 433.098 496.33 433.244Z" fill="#263238"/>
<g filter="url(#filter0_d)">
<path d="M116.052 309.11C116.052 309.11 122.782 313.469 125.892 313.319C129.001 313.168 141.229 297.99 141.229 297.99L134.859 293.169L119.171 295.771L116.072 308.969" fill="#AF254A"/>
<path d="M249.489 86.5132C250.82 91.5602 250.868 96.8604 249.629 101.931C248.391 107.001 245.905 111.681 242.398 115.542C239.178 119.018 235.075 121.86 233.039 126.14C230.782 130.881 231.514 136.455 230.511 141.618C229.508 146.781 225.135 152.266 220.12 151.02C224.874 158.052 232.096 163.184 239.84 166.71C247.583 170.236 255.889 172.305 264.144 174.364C268.738 175.499 273.693 176.624 278.086 174.856C283.774 172.576 286.602 166.318 288.879 160.623L308.72 110.992" fill="#263238"/>
<path d="M317.416 66.7234C317.413 64.8622 316.712 63.0701 315.453 61.7012C314.194 60.3324 312.467 59.4864 310.615 59.3305L275.639 43.2589C263.01 42.1942 250.402 64.8249 249.88 77.5013C249.298 91.5639 251.124 108.519 253.01 118.976C256.801 140.009 270.974 140.411 270.974 140.411L272.178 174.443L316.072 174.362L317.416 66.7234Z" fill="#FFB27D"/>
<path d="M270.974 140.654C280.908 140.598 290.631 137.781 299.06 132.518C299.06 132.518 292.871 148.047 271.747 146.52L270.974 140.654Z" fill="#EDA26E"/>
<path d="M338.972 118.847C337.156 109.485 331.479 79.4915 323.114 63.8519C314.748 48.2123 305.189 42.0348 295.901 39.7447C292.375 38.785 288.661 38.7524 285.119 39.6497C281.576 40.5471 278.325 42.3442 275.679 44.8675C271.597 48.7045 270.423 59.6131 270.423 59.6131C270.423 59.6131 292.821 64.0428 300.615 76.5886C309.582 90.9927 311.839 98.2952 311.839 98.2952L314.848 106.22C314.848 106.22 317.216 144.802 316.433 152.426L350.076 164.59C342.854 149.714 340.798 128.238 338.972 118.847Z" fill="#263238"/>
<path d="M271.796 59.4408C271.796 59.4408 257.031 58.6774 252.658 73.192C250.652 79.7612 250.451 98.8562 250.451 98.8562C250.451 98.8562 247.292 83.7188 247.773 75.1708C248.255 66.6228 252.257 55.7444 258.646 49.6171C264.855 43.6606 270.151 40.8079 281.516 41.2298C281.516 41.2298 279.891 44.4642 277.093 48.8437C275.688 51.0434 273.482 51.2845 271.796 59.4408Z" fill="#263238"/>
<path d="M311.709 99.4122C311.839 94.7314 316.845 91.497 320.937 93.747C323.184 94.9724 324.949 97.5137 324.859 102.486C324.628 115.715 311.408 112.752 311.388 112.37C311.398 112.169 311.568 104.887 311.709 99.4122Z" fill="#FFB27D"/>
<path d="M315.511 107.429C315.571 107.429 315.741 107.6 316.132 107.781C316.674 108.024 317.288 108.05 317.848 107.851C319.252 107.359 320.466 105.159 320.576 102.829C320.627 101.694 320.425 100.561 319.984 99.5141C319.87 99.0982 319.656 98.7168 319.361 98.4033C319.065 98.0898 318.697 97.8538 318.289 97.7161C318.026 97.638 317.743 97.6557 317.492 97.766C317.24 97.8763 317.036 98.0721 316.915 98.3188C316.734 98.6904 316.814 98.9516 316.744 98.9717C316.674 98.9917 316.463 98.7507 316.584 98.2083C316.657 97.8787 316.845 97.5864 317.115 97.3846C317.484 97.1189 317.94 97.0072 318.389 97.0732C318.931 97.1881 319.434 97.4406 319.851 97.8065C320.267 98.1724 320.582 98.6394 320.767 99.1625C321.306 100.321 321.557 101.592 321.499 102.869C321.368 105.531 319.954 108.002 318.038 108.524C317.682 108.62 317.308 108.635 316.946 108.567C316.583 108.499 316.24 108.351 315.942 108.132C315.531 107.751 315.47 107.449 315.511 107.429Z" fill="#EDA26E"/>
<path d="M286.763 39.3325C286.763 39.433 285.258 39.7544 282.971 40.7689C279.99 42.0926 277.424 44.2037 275.549 46.8761C273.706 49.568 272.266 52.5156 271.276 55.625C270.473 58.0056 270.072 59.5224 269.982 59.4922C270 59.1249 270.061 58.7609 270.162 58.4074C270.303 57.7143 270.573 56.7299 270.925 55.5145C271.825 52.3203 273.245 49.2966 275.127 46.5647C276.191 45.0658 277.476 43.738 278.939 42.6272C280.135 41.7332 281.44 40.994 282.821 40.4274C283.347 40.2033 283.886 40.0121 284.436 39.8548C284.842 39.7121 285.258 39.598 285.68 39.5133C286.031 39.4053 286.395 39.3445 286.763 39.3325Z" fill="#455A64"/>
<path d="M333.114 141.781C333.062 141.693 333.022 141.599 332.994 141.5C332.913 141.289 332.823 141.008 332.693 140.666C332.32 139.586 332.032 138.477 331.83 137.352C331.241 133.194 331.241 128.974 331.83 124.816C332.101 122.174 332.482 119.291 332.733 116.198C333.058 112.914 332.994 109.603 332.542 106.334C331.939 102.743 330.681 99.2934 328.831 96.1584C326.842 92.7884 324.395 89.712 321.559 87.0178C315.751 81.4229 308.97 77.6159 302.852 74.2811C296.733 70.9462 291.076 68.0735 286.602 65.2408C283.061 63.0125 279.642 60.5949 276.361 57.9986C275.197 57.0745 274.355 56.3312 273.733 55.829L273.061 55.2464C272.92 55.1057 272.84 55.0354 272.85 55.0254L273.101 55.2062C273.282 55.3468 273.512 55.5176 273.793 55.7486L276.491 57.8379C278.838 59.6259 282.299 62.1471 286.803 64.9295C291.306 67.7118 296.894 70.5947 303.082 73.8793C309.271 77.1639 316.042 81.001 321.92 86.6662C324.788 89.3952 327.266 92.5084 329.282 95.9174C331.154 99.1136 332.422 102.628 333.024 106.283C333.464 109.591 333.511 112.939 333.164 116.258C332.893 119.372 332.492 122.285 332.161 124.866C331.552 128.999 331.502 133.195 332.011 137.342C332.196 138.461 332.45 139.568 332.773 140.656C332.883 141.008 332.964 141.279 333.024 141.5C333.061 141.591 333.092 141.685 333.114 141.781Z" fill="#455A64"/>
<path d="M120.927 292.338C121.158 292.128 121.422 291.959 121.709 291.836C122.462 291.43 123.251 291.093 124.066 290.831C126.773 289.961 129.657 289.806 132.442 290.379C135.22 290.965 137.805 292.247 139.955 294.106C140.597 294.664 141.188 295.279 141.72 295.944C142.101 296.426 142.272 296.707 142.242 296.727C142.211 296.747 141.369 295.723 139.714 294.397C137.571 292.654 135.04 291.452 132.336 290.893C129.633 290.333 126.834 290.433 124.176 291.183C122.13 291.765 120.967 292.428 120.927 292.338Z" fill="#263238"/>
<path d="M135.421 284.857C136.103 285.205 136.724 285.663 137.257 286.213C139.986 288.717 141.913 291.975 142.794 295.575C143.017 296.307 143.122 297.07 143.105 297.835C142.439 295.387 141.486 293.027 140.266 290.804C138.892 288.637 137.266 286.64 135.421 284.857Z" fill="#263238"/>
<path d="M200.499 420.315C200.499 420.315 215.746 317.854 245.246 309.044L347.353 304.595C347.353 304.595 375.521 375.244 380.255 420.315H200.499Z" fill="#AB6D29"/>
<path d="M271.416 149.782C271.416 149.782 274.054 166.406 291.768 164.397C309.482 162.388 316.413 152.474 316.413 152.474L341.028 160.379L344.9 208.062C330.864 235.435 322.989 265.555 321.83 296.304C321.629 301.457 321.449 307.112 318.018 310.959C315.912 313.33 312.862 314.626 309.853 315.65C300.271 318.861 290.138 320.088 280.068 319.257C269.999 318.427 260.203 315.556 251.275 310.819C251.275 310.819 243.752 229.236 244.674 226.926C245.597 224.615 257.915 155.98 257.915 155.98L271.416 149.782Z" fill="#FAFAFA"/>
<path d="M245.246 153.552C245.246 153.552 229.598 154.657 225.406 156.756C221.213 158.855 166.355 227.772 164.219 228.827C162.474 229.701 129.824 260.086 116.353 289.497C113.695 295.293 111.639 303.559 116.012 309.044C116.012 309.044 131.74 289.266 141.189 297.944L183.438 255.063L227.572 229.289L245.246 153.552Z" fill="#FD3E72"/>
<g opacity="0.3">
<path opacity="0.3" d="M261.245 288.239C279.821 252.319 279.821 200.267 270.964 152.475L263.02 220.387L261.245 288.239Z" fill="black"/>
</g>
<path d="M221.182 166.148L222.577 224.407C222.577 224.407 228.144 288.954 229.217 288.954C230.29 288.954 233.41 311.696 229.217 321.841C225.024 331.986 211.403 345.637 211.403 345.637L228.525 364.179C228.525 364.179 244.574 338.635 249.489 322.192C254.404 305.749 268.005 280.919 270.102 234.713C272.198 188.507 271.335 143.427 271.335 143.427L257.874 153.19L244.935 153.461L221.182 166.148Z" fill="#FD3E72"/>
<path d="M252.217 319.087C252.217 319.087 252.217 318.896 252.358 318.535C252.498 318.173 252.608 317.621 252.809 316.927L254.504 310.73C255.929 305.336 257.945 297.511 259.81 287.717C260.743 282.826 261.636 277.432 262.248 271.646C262.539 268.733 262.759 265.71 262.83 262.606C262.927 259.406 262.753 256.203 262.308 253.033C262.06 251.396 261.675 249.783 261.155 248.212C260.623 246.615 260.151 244.987 259.439 243.4L258.436 240.99L257.353 238.599C256.651 236.992 255.848 235.405 255.056 233.798C251.846 227.399 248.095 220.98 244.022 214.552C240.512 208.997 236.911 203.643 233.259 198.581L233.119 198.38L233.31 198.229L259.499 176.703L259.67 177.105L236.6 179.767L236.138 179.817L236.429 179.456C243.019 171.42 248.366 164.831 252.067 160.28L256.33 155.087L257.453 153.741C257.714 153.44 257.854 153.299 257.854 153.299L257.493 153.781L256.42 155.158L252.217 160.31L236.72 179.596L236.549 179.295L259.62 176.553L260.392 176.462L259.79 176.955L233.631 198.551L233.681 198.199C237.342 203.272 240.943 208.626 244.464 214.19C248.476 220.629 252.287 227.058 255.497 233.496C256.3 235.103 257.102 236.69 257.804 238.318L258.888 240.718L259.891 243.139C260.573 244.736 261.074 246.373 261.616 247.981C262.135 249.58 262.521 251.219 262.769 252.882C263.212 256.08 263.38 259.309 263.271 262.535C263.201 265.669 262.97 268.703 262.669 271.626C262.037 277.472 261.124 282.866 260.171 287.768C258.246 297.571 256.159 305.386 254.695 310.77C253.943 313.452 253.331 315.531 252.899 316.938C252.679 317.621 252.518 318.153 252.398 318.535C252.277 318.916 252.217 319.087 252.217 319.087Z" fill="#C72C56"/>
<path d="M316.413 138.17C316.413 138.17 325.079 151.549 325.982 152.474C325.982 152.474 362.593 162.85 364.76 167.219C373.667 185.239 366.475 191.718 364.76 216.488C362.623 247.275 352.332 290.126 352.332 290.126C352.332 290.126 366.816 346.025 368.381 349.109C369.946 352.192 319.081 370.926 313.684 363.874C308.288 356.823 304.065 332.535 304.065 332.535C304.065 332.535 299.05 283.185 300.985 263.528C302.921 243.87 312.019 223.66 315.229 199.915C318.499 174.823 316.413 138.17 316.413 138.17Z" fill="#FD3E72"/>
<path d="M302.821 275.897C302.832 275.653 302.869 275.41 302.931 275.174C303.042 274.661 303.182 273.978 303.353 273.165C303.523 272.351 303.794 271.156 304.065 269.94C304.336 268.725 304.897 267.309 305.389 265.772C308.201 257.808 312.017 250.237 316.743 243.241C321.465 236.25 326.788 229.686 332.652 223.624C334.909 221.304 336.815 219.506 338.169 218.301C338.841 217.698 339.393 217.296 339.764 216.955C339.949 216.799 340.151 216.665 340.366 216.553C340.366 216.553 337.356 219.184 332.923 223.875C327.157 229.993 321.894 236.567 317.185 243.533C312.49 250.487 308.644 257.981 305.73 265.852C305.228 267.379 304.727 268.755 304.346 269.98C303.965 271.206 303.774 272.281 303.553 273.175C303.333 274.069 303.162 274.681 303.032 275.184C302.979 275.426 302.908 275.665 302.821 275.897Z" fill="#C72C56"/>
<path d="M325.942 153.099C326.091 153.312 326.215 153.541 326.313 153.782C326.554 154.284 326.875 154.957 327.316 155.791C328.149 157.599 329.322 160.13 330.777 163.234C331.506 164.814 332.295 166.528 333.144 168.377L334.468 171.239C334.909 172.244 335.411 173.248 335.782 174.313C337.387 178.612 339.152 183.353 341.008 188.265L345.161 199.435L345.261 199.706L344.98 199.766L335.2 201.886L335.341 201.584L340.256 212.392C340.807 213.658 341.259 214.673 341.59 215.406L341.921 216.209C341.965 216.298 341.996 216.393 342.011 216.491C341.95 216.414 341.9 216.329 341.86 216.24L341.469 215.466L340.035 212.503L334.959 201.765L334.839 201.524L335.11 201.464L344.87 199.284L344.699 199.616L340.486 188.506C338.651 183.554 336.905 178.843 335.31 174.554C334.939 173.459 334.448 172.465 334.006 171.47L332.723 168.598L330.456 163.394C329.081 160.271 327.948 157.719 327.146 155.901L326.273 153.892C326.14 153.638 326.029 153.372 325.942 153.099Z" fill="#C72C56"/>
<path d="M350.045 283.869C350.045 283.869 368.772 302.623 378.402 301.548C388.031 300.473 400.609 279.58 400.609 272.348C400.609 265.116 391.582 218.488 391.582 218.488L395.323 200.94L360.216 200.267L353.195 254.318L350.045 283.869Z" fill="#FD3E72"/>
<path d="M232.567 296.417C232.535 296.33 232.515 296.239 232.507 296.146L232.387 295.332C232.297 294.579 232.166 293.524 231.996 292.198C231.655 289.426 231.173 285.499 230.581 280.657C229.398 270.914 227.723 257.444 226.148 242.547C225.355 235.094 224.693 227.993 224.142 221.514C223.59 215.035 223.239 209.209 223.028 204.297C222.888 201.846 222.818 199.626 222.758 197.678C222.697 195.729 222.647 194.052 222.647 192.655C222.647 191.259 222.647 190.255 222.647 189.491V188.678C222.638 188.584 222.638 188.49 222.647 188.396C222.66 188.486 222.66 188.578 222.647 188.668C222.647 188.889 222.647 189.16 222.697 189.491C222.697 190.255 222.737 191.309 222.818 192.655C222.818 194.022 222.918 195.669 223.018 197.678C223.119 199.687 223.209 201.846 223.359 204.287C223.62 209.189 224.072 215.015 224.593 221.484C225.115 227.952 225.827 235.054 226.599 242.507C228.184 257.394 229.799 270.863 230.882 280.617C231.404 285.468 231.885 289.416 232.136 292.178C232.267 293.514 232.367 294.569 232.437 295.332C232.437 295.667 232.457 295.938 232.497 296.146C232.536 296.232 232.559 296.323 232.567 296.417Z" fill="#C72C56"/>
<path d="M395.364 200.941H392.796L385.594 200.871L360.216 200.489L360.457 200.298C359.033 207.842 357.879 216.44 356.986 225.53C355.402 242.215 354.74 257.382 353.927 268.341C353.536 273.825 353.165 278.255 352.924 281.309C352.774 282.815 352.643 283.991 352.563 284.834C352.513 285.206 352.483 285.507 352.453 285.748C352.446 285.85 352.429 285.951 352.403 286.05C352.389 285.946 352.389 285.842 352.403 285.738C352.403 285.507 352.402 285.196 352.453 284.824C352.523 283.981 352.613 282.815 352.723 281.299C352.954 278.285 353.265 273.795 353.606 268.321C354.328 257.362 354.93 242.205 356.525 225.48C357.408 216.37 358.581 207.761 360.046 200.208V200.007H360.246L385.614 200.579L392.826 200.78L394.732 200.851H395.223C395.313 200.921 395.364 200.931 395.364 200.941Z" fill="#C72C56"/>
<path d="M386.787 213.68C388.305 213.68 389.536 212.448 389.536 210.928C389.536 209.408 388.305 208.175 386.787 208.175C385.269 208.175 384.039 209.408 384.039 210.928C384.039 212.448 385.269 213.68 386.787 213.68Z" fill="white"/>
<path d="M308.669 298.393C310.187 298.393 311.418 297.16 311.418 295.64C311.418 294.12 310.187 292.888 308.669 292.888C307.151 292.888 305.921 294.12 305.921 295.64C305.921 297.16 307.151 298.393 308.669 298.393Z" fill="white"/>
<path d="M317.105 337.58C317.105 338.126 316.943 338.66 316.64 339.114C316.337 339.569 315.906 339.923 315.402 340.132C314.898 340.341 314.344 340.395 313.808 340.289C313.273 340.182 312.782 339.919 312.396 339.533C312.01 339.147 311.748 338.654 311.641 338.119C311.535 337.583 311.589 337.027 311.798 336.523C312.007 336.018 312.36 335.586 312.814 335.283C313.268 334.979 313.801 334.817 314.347 334.817C315.078 334.817 315.78 335.108 316.297 335.626C316.814 336.144 317.105 336.847 317.105 337.58Z" fill="white"/>
<path d="M391.643 218.489C391.643 218.64 384.441 218.419 375.594 218.017C366.747 217.615 359.545 217.163 359.545 217.013C359.545 216.862 366.747 217.083 375.594 217.495C384.441 217.907 391.643 218.349 391.643 218.489Z" fill="#C72C56"/>
<path d="M222.365 235.592L148.148 265.303C143.29 267.248 141.021 273.004 143.08 278.161L167.33 338.907C169.389 344.064 174.995 346.667 179.853 344.722L254.07 315.011C258.927 313.067 261.197 307.31 259.138 302.154L234.888 241.407C232.829 236.25 227.223 233.647 222.365 235.592Z" fill="#49474F"/>
<path d="M160.96 282.708C159.38 281.954 158.07 280.589 157.404 278.792L143.418 240.989C136.512 222.34 145.649 201.715 163.785 195.014C181.922 188.312 202.297 198.035 209.205 216.688L219.614 244.809C220.945 248.402 219.192 252.361 215.698 253.652C212.205 254.943 208.294 253.076 206.963 249.483L196.554 221.363C192.304 209.885 179.765 203.902 168.604 208.026C157.443 212.15 151.82 224.84 156.069 236.314L170.055 274.117C171.386 277.711 169.632 281.67 166.139 282.96C164.392 283.606 162.541 283.462 160.96 282.708Z" fill="#49474F"/>
<path d="M155.79 282.708C154.209 281.954 152.899 280.589 152.233 278.792L138.247 240.989C131.341 222.34 140.478 201.715 158.615 195.014C176.751 188.312 197.127 198.035 204.034 216.688L214.444 244.809C215.774 248.402 214.021 252.361 210.528 253.652C207.034 254.943 203.123 253.076 201.793 249.483L191.384 221.363C187.133 209.885 174.595 203.902 163.433 208.026C152.272 212.15 146.649 224.84 150.898 236.314L164.884 274.117C166.215 277.711 164.462 281.67 160.968 282.96C159.222 283.606 157.37 283.462 155.79 282.708Z" fill="#55515F"/>
<path d="M212.192 239.66L143.791 267.043C138.893 269.004 136.586 274.761 138.638 279.902L162.911 340.705C164.964 345.846 170.598 348.424 175.496 346.463L243.897 319.08C248.795 317.119 251.102 311.362 249.049 306.221L224.777 245.418C222.724 240.277 217.09 237.7 212.192 239.66Z" fill="#5B5863"/>
<circle cx="191.883" cy="292.494" r="30.0755" fill="white"/>
<path d="M202.188 320.205C217.644 314.362 225.437 297.096 219.595 281.64C213.752 266.184 196.486 258.39 181.03 264.233C165.573 270.076 157.78 287.342 163.623 302.798C169.465 318.254 186.731 326.048 202.188 320.205Z" stroke="#5B5863" stroke-width="5" stroke-linecap="round" stroke-linejoin="round"/>
<path d="M161.962 292.764L214.202 273.017" stroke="#5B5863" stroke-width="6" stroke-linecap="round" stroke-linejoin="round"/>
<path d="M169.015 311.421L221.255 291.674" stroke="#5B5863" stroke-width="6" stroke-linecap="round" stroke-linejoin="round"/>
<path d="M179.475 264.821C177.41 275.196 178.298 285.942 182.038 295.837C185.779 305.732 192.221 314.379 200.633 320.793" stroke="#5B5863" stroke-width="6" stroke-linecap="round" stroke-linejoin="round"/>
<path d="M182.584 263.645C190.996 270.059 197.439 278.706 201.179 288.601C204.92 298.496 205.808 309.242 203.742 319.617" stroke="#5B5863" stroke-width="6" stroke-linecap="round" stroke-linejoin="round"/>
<g opacity="0.3">
<path opacity="0.3" d="M222.758 192.967C218.254 205.875 220.481 220.389 225.496 233.146C225.496 233.106 222.878 206.477 222.758 192.967Z" fill="black"/>
</g>
<g opacity="0.3">
<path opacity="0.3" d="M301.618 287.197C306.583 275.967 311.558 264.697 317.958 254.22C324.357 243.744 332 233.789 341.78 226.426C344.428 224.418 349.373 220.681 349.373 220.681C349.373 220.681 348.049 218.17 346.745 216.09C345.241 213.68 342.733 209.501 341.409 207.442L347.277 208.617C347.277 208.617 343.265 199.356 343.375 199.979C340.754 200.663 338.099 201.209 335.421 201.616C337.477 206.538 339.664 210.988 341.72 215.91C330.686 224.699 321.659 235.758 314.096 247.45C306.533 259.142 301.297 272.712 301.568 286.624" fill="black"/>
</g>
<path d="M322.592 110.924C322.723 110.813 323.034 110.924 323.385 111.316C323.856 111.922 324.098 112.677 324.067 113.445C324.067 113.999 323.951 114.547 323.726 115.052C323.448 115.665 323.024 116.199 322.492 116.609C321.886 117.088 321.167 117.402 320.405 117.52C319.642 117.638 318.862 117.555 318.14 117.281C317.419 117.007 316.781 116.55 316.288 115.955C315.796 115.36 315.466 114.648 315.33 113.887C315.212 113.286 315.233 112.665 315.391 112.074C315.549 111.482 315.841 110.934 316.243 110.472C316.73 109.881 317.407 109.48 318.159 109.337C318.69 109.266 318.981 109.397 319.021 109.568C319.102 109.929 318.239 110.392 317.767 111.517C317.503 112.087 317.467 112.738 317.667 113.335C317.767 113.678 317.945 113.992 318.188 114.254C318.43 114.516 318.73 114.718 319.064 114.844C319.398 114.97 319.756 115.016 320.111 114.979C320.466 114.942 320.807 114.822 321.108 114.63C321.654 114.323 322.06 113.815 322.241 113.214C322.622 112.059 322.281 111.165 322.592 110.924Z" fill="#FD3E72"/>
<path d="M141.449 325.595C141.449 325.595 144.87 336.644 146.635 338.864C148.401 341.084 160.207 342.279 160.207 342.279L141.449 325.595Z" fill="#FFB27D"/>
<path d="M155.593 308.038L162.143 313.301L181.582 328.308C181.582 328.308 181.462 331.924 177.088 331.101C173.538 330.428 165.664 326.078 165.664 326.078C165.664 326.078 174.912 334.777 175.233 338.845V339.588C175.225 340.489 174.865 341.351 174.23 341.989L163.427 334.767C163.427 334.767 165.744 338.845 168.021 343.074C168.363 343.923 168.474 344.849 168.344 345.755C168.214 346.662 167.846 347.518 167.279 348.237L143.205 328.017L143.055 312.95L155.543 308.028" fill="#FFB27D"/>
<path d="M153.035 317.479C153.344 317.499 153.649 317.567 153.938 317.68C154.219 317.781 154.55 317.931 154.941 318.102C155.332 318.273 155.733 318.524 156.195 318.785C158.02 319.87 160.337 321.628 162.905 323.557C165.055 325.231 167.317 326.754 169.676 328.117C171.511 329.121 172.755 329.503 172.685 329.593C172.379 329.572 172.078 329.505 171.792 329.393C171.451 329.293 171.116 329.172 170.789 329.031C170.344 328.862 169.909 328.667 169.485 328.448C167.045 327.17 164.726 325.674 162.554 323.978C159.986 322.04 157.719 320.242 155.964 319.097L154.77 318.363L153.827 317.871C153.548 317.774 153.282 317.642 153.035 317.479Z" fill="#EDA26E"/>
<path d="M150.828 324.822C151.569 325.176 152.269 325.61 152.915 326.118C154.148 326.971 155.813 328.217 157.589 329.663C159.364 331.11 160.919 332.486 162.012 333.52C162.637 334.039 163.199 334.629 163.687 335.278C162.996 334.855 162.35 334.36 161.762 333.802L157.258 330.065L152.694 326.409C152.02 325.944 151.395 325.412 150.828 324.822Z" fill="#EDA26E"/>
<path d="M118.359 306.409C118.189 306.6 118.44 306.961 118.6 307.303C121.218 312.777 143.677 328.326 143.677 328.326L155.924 307.423C155.924 307.423 164.821 311.732 168.472 310.738C171.481 309.914 177.139 309.302 174.491 304.018C174.491 304.018 161.942 301.708 157.679 299.87C153.416 298.032 150.748 297.077 150.748 297.077C145.88 297.193 141.015 296.711 136.264 295.641C136.264 295.641 128.761 294.586 118.359 306.409Z" fill="#FFB27D"/>
<path d="M166.706 347.747C165.711 347.076 164.763 346.337 163.868 345.537C162.022 344.041 159.695 342.142 157.107 340.053C154.519 337.964 152.092 335.924 150.447 334.438C149.614 333.705 148.952 333.092 148.501 332.66C148.25 332.452 148.027 332.212 147.839 331.947C148.839 332.616 149.79 333.355 150.687 334.157L157.438 339.641C160.076 341.791 162.453 343.769 164.098 345.256C164.931 345.989 165.603 346.602 166.044 347.034C166.486 347.466 166.736 347.727 166.706 347.747Z" fill="#EDA26E"/>
<path d="M377.219 124.906L384.952 126.121L385.885 120.205L382.876 119.733L383.297 117.041L380.509 116.599L380.88 114.239L384.1 114.741L384.421 112.732L379.265 111.918L379.385 111.145L379.265 111.918L379.385 111.145C379.427 110.656 379.274 110.171 378.961 109.795C378.647 109.419 378.197 109.182 377.71 109.136C377.225 109.104 376.746 109.261 376.372 109.573C375.999 109.885 375.76 110.329 375.704 110.813C374.206 120.389 372.705 129.955 371.2 139.511L369.997 147.165C367.497 147.233 365.112 148.234 363.311 149.971C361.509 151.709 360.421 154.057 360.259 156.556C360.098 159.056 360.874 161.525 362.436 163.481C363.999 165.437 366.234 166.737 368.705 167.128C371.175 167.518 373.702 166.971 375.79 165.592C377.878 164.214 379.376 162.104 379.992 159.676C380.607 157.249 380.294 154.679 379.115 152.47C377.936 150.262 375.975 148.574 373.618 147.738C374.781 140.371 375.941 133.005 377.098 125.639L377.219 124.906ZM377.65 158.345C377.42 159.802 376.764 161.159 375.764 162.243C374.764 163.327 373.466 164.09 372.034 164.436C370.601 164.782 369.098 164.694 367.715 164.185C366.332 163.675 365.131 162.767 364.264 161.574C363.396 160.381 362.902 158.957 362.842 157.483C362.782 156.008 363.16 154.549 363.928 153.29C364.696 152.031 365.82 151.028 367.157 150.408C368.494 149.788 369.985 149.579 371.441 149.807C372.411 149.96 373.342 150.303 374.179 150.816C375.017 151.33 375.745 152.004 376.322 152.8C376.898 153.596 377.313 154.498 377.541 155.455C377.769 156.412 377.806 157.404 377.65 158.375V158.345Z" fill="#53505B"/>
<path d="M360.186 154.012L372.584 150.748L379.024 151.571C379.609 151.649 380.166 151.874 380.641 152.226C381.116 152.577 381.495 153.043 381.742 153.58L385.915 162.681C385.915 162.681 391.933 167.703 391.241 170.716C390.549 173.73 384.962 200.77 384.962 200.77L368.341 200.268C365.434 196.66 363.685 192.254 363.326 187.632C363.145 183.835 364.59 181.514 364.229 179.506C363.988 178.129 364.84 175.679 365.232 173.79L365.733 171.962L364.63 172.494C364.156 172.726 363.634 172.842 363.107 172.834C362.58 172.826 362.062 172.694 361.595 172.449C361.129 172.203 360.726 171.851 360.42 171.421C360.114 170.991 359.914 170.495 359.835 169.973C359.83 169.876 359.83 169.779 359.835 169.682C359.78 168.612 359.953 167.543 360.342 166.546C360.731 165.548 361.328 164.645 362.092 163.896L368.361 157.729C368.361 157.729 361.43 161.686 360.186 154.012Z" fill="#FFB27D"/>
<path d="M381.281 169.113C380.892 169.12 380.504 169.076 380.127 168.983L377.048 168.43L372.484 167.546C371.631 167.386 370.728 167.155 369.816 167.074C369.369 167.001 368.912 167.035 368.481 167.173C368.051 167.311 367.659 167.549 367.338 167.868C366.797 168.629 366.453 169.513 366.335 170.439C366.134 171.373 365.944 172.267 365.763 173.131C365.374 174.614 365.103 176.126 364.951 177.651C364.925 178.152 365.02 178.652 365.228 179.108C365.435 179.565 365.75 179.964 366.144 180.273C366.452 180.472 366.791 180.618 367.147 180.705C367.049 180.733 366.945 180.733 366.847 180.705C366.55 180.68 366.265 180.584 366.014 180.424C365.559 180.123 365.187 179.712 364.933 179.229C364.679 178.747 364.55 178.207 364.56 177.661C364.65 176.1 364.886 174.549 365.262 173.031C365.432 172.167 365.613 171.263 365.803 170.339C365.943 169.314 366.343 168.342 366.967 167.516C367.342 167.138 367.801 166.856 368.307 166.691C368.813 166.527 369.351 166.486 369.876 166.572C370.794 166.688 371.705 166.856 372.604 167.074L377.138 168.079L380.147 168.792C380.536 168.853 380.917 168.961 381.281 169.113Z" fill="#EDA26E"/>
<path d="M374.821 182.853C374.821 182.853 374.821 183.365 374.189 183.858C373.786 184.134 373.303 184.271 372.815 184.249C372.196 184.217 371.585 184.099 370.999 183.898C369.405 183.493 368.002 182.54 367.037 181.206C366.556 180.315 366.298 179.32 366.284 178.308C366.27 177.295 366.501 176.294 366.957 175.39C367.346 174.435 367.866 173.539 368.502 172.728C368.835 172.326 369.267 172.018 369.756 171.834C370.229 171.687 370.731 171.653 371.22 171.734C372.786 172.055 374.312 172.543 375.774 173.19C376.758 173.607 377.713 174.091 378.633 174.637C378.999 174.809 379.337 175.036 379.636 175.31C379.636 175.39 378.171 174.506 375.674 173.532C374.227 172.95 372.729 172.506 371.2 172.206C370.783 172.143 370.358 172.177 369.956 172.306C369.562 172.471 369.217 172.734 368.953 173.07C368.36 173.841 367.875 174.689 367.509 175.591C367.085 176.419 366.863 177.337 366.863 178.268C366.863 179.199 367.085 180.116 367.509 180.945C368.399 182.202 369.69 183.12 371.17 183.546C371.722 183.755 372.298 183.894 372.885 183.958C373.321 183.997 373.758 183.903 374.139 183.687C374.438 183.476 374.674 183.188 374.821 182.853Z" fill="#EDA26E"/>
<path d="M374.661 181.043C374.661 181.103 374.37 181.274 373.808 181.334C373.076 181.408 372.338 181.267 371.684 180.928C371.03 180.589 370.489 180.067 370.127 179.425C369.856 178.943 369.816 178.592 369.876 178.572C369.936 178.551 370.548 179.757 371.932 180.46C372.801 180.812 373.724 181.009 374.661 181.043Z" fill="#EDA26E"/>
<path d="M375.864 184.407C375.784 184.517 375.002 184.055 374.44 183.121C373.878 182.187 373.808 181.273 373.948 181.263C374.089 181.253 374.37 182.006 374.881 182.85C375.393 183.694 375.965 184.286 375.864 184.407Z" fill="#EDA26E"/>
<path d="M375.533 193.617C374.842 192.201 374.507 190.637 374.557 189.061C374.608 187.485 375.043 185.946 375.824 184.577C375.469 186.054 375.221 187.554 375.082 189.067C375.122 190.593 375.273 192.114 375.533 193.617Z" fill="#EDA26E"/>
<path d="M375.222 185.392C373.766 185.967 372.44 186.828 371.32 187.923C370.201 189.018 369.311 190.326 368.702 191.77C368.692 191.288 368.802 190.812 369.023 190.384C369.47 189.317 370.125 188.351 370.949 187.541C371.774 186.734 372.753 186.101 373.828 185.683C374.259 185.466 374.74 185.365 375.222 185.392Z" fill="#EDA26E"/>
<path d="M370.127 164.71C370.277 164.71 370.358 165.222 370.187 165.805C370.016 166.388 369.686 166.809 369.555 166.709C369.425 166.609 369.555 166.187 369.685 165.705C369.816 165.222 369.986 164.7 370.127 164.71Z" fill="#EDA26E"/>
<path d="M384.872 164.892C384.007 164.528 383.177 164.084 382.394 163.566C380.89 162.703 378.843 161.467 376.607 160.071C375.579 159.404 374.491 158.836 373.357 158.373C372.437 158.014 371.455 157.843 370.468 157.871C369.556 157.935 368.666 158.181 367.85 158.594C367.85 158.594 368.01 158.363 368.442 158.112C369.058 157.763 369.742 157.554 370.448 157.499C371.489 157.421 372.535 157.565 373.517 157.921C374.696 158.367 375.822 158.94 376.877 159.629C379.124 161.015 381.14 162.301 382.585 163.255C383.394 163.732 384.159 164.28 384.872 164.892Z" fill="#EDA26E"/>
<g opacity="0.3">
<path opacity="0.3" d="M379.215 112.065C379.743 114.172 379.843 116.363 379.511 118.509C379.178 120.655 378.419 122.713 377.279 124.561C378.001 120.894 378.723 115.932 379.215 112.065Z" fill="black"/>
</g>
</g>
<defs>
<filter id="filter0_d" x="104.472" y="34" width="305.137" height="399.315" filterUnits="userSpaceOnUse" color-interpolation-filters="sRGB">
<feFlood flood-opacity="0" result="BackgroundImageFix"/>
<feColorMatrix in="SourceAlpha" type="matrix" values="0 0 0 0 0 0 0 0 0 0 0 0 0 0 0 0 0 0 127 0" result="hardAlpha"/>
<feOffset dy="4"/>
<feGaussianBlur stdDeviation="4.5"/>
<feComposite in2="hardAlpha" operator="out"/>
<feColorMatrix type="matrix" values="0 0 0 0 0 0 0 0 0 0 0 0 0 0 0 0 0 0 0.15 0"/>
<feBlend mode="normal" in2="BackgroundImageFix" result="effect1_dropShadow"/>
<feBlend mode="normal" in="SourceGraphic" in2="effect1_dropShadow" result="shape"/>
</filter>
</defs>
</svg>
