<svg width="547" height="505" viewBox="0 0 547 505" fill="none" xmlns="http://www.w3.org/2000/svg">
<circle cx="273" cy="250" r="250" fill="#FFEEF3"/>
<path d="M273 435C375.173 435 458 352.173 458 250C458 147.827 375.173 65 273 65C170.827 65 88 147.827 88 250C88 352.173 170.827 435 273 435Z" fill="#FFDFE6"/>
<g filter="url(#filter0_d)">
<path d="M526.637 37H19.7485C14.8743 37 10 41.8743 10 46.7485V332.648C10 337.522 14.8743 342.397 19.7485 342.397H526.637C531.512 342.397 536.386 337.522 536.386 332.648V46.7485C536.386 41.8743 531.512 37 526.637 37Z" fill="#5B5863"/>
<path d="M530.615 66.8635H14.9818C14.4295 66.8635 13.9818 67.3112 13.9818 67.8635V333.625C13.9818 335.835 15.7726 337.625 17.9818 337.625H527.615C529.824 337.625 531.615 335.835 531.615 333.625V67.8635C531.615 67.3112 531.167 66.8635 530.615 66.8635Z" fill="white"/>
<path d="M487.692 152.769C481.39 158.51 470.797 168.129 465.714 172.642C464.956 173.315 465.57 174.667 466.575 174.536L499.891 170.214C501.034 170.065 501.82 168.98 501.557 167.858C499.502 159.083 495.879 154.634 489.622 152.364C488.956 152.123 488.216 152.291 487.692 152.769Z" fill="#FF9FB9"/>
<path d="M493.597 206.724C485.666 200.484 472.049 189.807 465.965 185.158C465.16 184.542 465.665 183.151 466.676 183.207L506.36 185.409C507.51 185.472 508.372 186.495 508.201 187.635C506.604 198.261 502.758 203.806 495.56 206.99C494.91 207.278 494.156 207.163 493.597 206.724Z" fill="#FF9FB9"/>
<g filter="url(#filter1_d)">
<path d="M327.16 228.137C324.971 225.888 323.617 222.783 323.614 219.353L323.578 147.207C323.55 111.613 351.712 82.6783 386.357 82.7074C421.001 82.7366 449.21 111.724 449.238 147.326L449.274 158C449.279 164.859 443.875 170.414 437.202 170.408C430.528 170.402 425.114 164.838 425.109 157.98L425.073 147.306C425.056 125.398 407.697 107.561 386.377 107.543C365.057 107.524 347.726 125.327 347.744 147.227L347.779 219.373C347.785 226.231 342.379 231.786 335.706 231.78C332.37 231.778 329.347 230.385 327.16 228.137Z" fill="#5B5863"/>
<path d="M340.769 308.591C324.04 308.591 310.429 298.19 310.429 285.406V212.757C310.429 199.973 324.04 189.572 340.769 189.572H435.836C452.566 189.572 466.176 199.973 466.176 212.757V285.406C466.176 298.19 452.566 308.591 435.836 308.591H340.769Z" fill="#FD3E72"/>
<path d="M450.196 218.851C450.196 211.775 441.881 205.987 431.719 205.987H344.874C334.711 205.987 326.396 211.775 326.396 218.851V279.31C326.396 286.385 334.711 292.174 344.874 292.174H431.719C441.881 292.174 450.196 286.385 450.196 279.31V218.851Z" fill="#FD3E72"/>
<path d="M403.949 244.46C403.949 236.474 396.797 230 387.975 230C379.152 230 372 236.474 372 244.46C372 249.751 375.149 254.433 379.834 256.954L375.391 291.563H388.368H401.344L396.86 256.544C401.134 253.95 403.949 249.469 403.949 244.46Z" fill="white"/>
<path d="M380 288L383 261H393.5L397 288H380Z" fill="#5B5863" stroke="#5B5863"/>
<circle cx="388" cy="239" r="29" fill="white"/>
<circle cx="388" cy="239" r="23.5" fill="#FD3E72" stroke="#FD3E72" stroke-width="3"/>
<path d="M401 226C398.656 226 396.766 227.836 396.766 230.112V242.022C396.766 242.52 396.737 243.018 396.678 243.544C396.62 244.056 396.473 244.526 396.239 244.953C396.004 245.38 395.653 245.735 395.184 246.02C394.715 246.304 394.041 246.447 393.192 246.447C392.342 246.447 391.668 246.304 391.199 246.02C390.73 245.735 390.379 245.38 390.144 244.953C389.91 244.526 389.763 244.056 389.705 243.544C389.646 243.032 389.617 242.52 389.617 242.022V229.742C387.273 229.742 385.383 231.578 385.383 233.854V242.007C385.383 242.505 385.354 243.003 385.295 243.53C385.237 244.042 385.09 244.512 384.856 244.939C384.621 245.365 384.27 245.721 383.801 246.006C383.332 246.29 382.658 246.433 381.808 246.433C380.959 246.433 380.285 246.29 379.816 246.006C379.347 245.721 378.996 245.365 378.761 244.939C378.527 244.512 378.38 244.042 378.322 243.53C378.263 243.018 378.234 242.505 378.234 242.007V233.484C375.89 233.484 374 235.334 374 237.596V242.007C374 243.174 374.117 244.199 374.352 245.081C374.586 245.963 374.879 246.717 375.231 247.357C375.597 247.998 376.007 248.524 376.476 248.951C376.945 249.378 377.428 249.719 377.912 249.99C379.04 250.616 380.343 250.957 381.794 251C383.273 250.957 384.577 250.616 385.72 249.99C386.203 249.719 386.687 249.378 387.141 248.951C387.258 248.837 387.375 248.723 387.493 248.595C387.61 248.723 387.727 248.837 387.844 248.951C388.313 249.378 388.797 249.719 389.28 249.99C390.408 250.616 391.712 250.957 393.162 251C394.642 250.957 395.946 250.616 397.088 249.99C397.572 249.719 398.055 249.378 398.509 248.951C398.978 248.524 399.388 247.998 399.755 247.357C400.121 246.717 400.414 245.963 400.634 245.081C400.854 244.199 400.956 243.188 400.956 242.007L401 226Z" fill="white"/>
</g>
<rect x="49.8181" y="289.119" width="94.9037" height="28.9983" rx="14.4992" fill="#FDB9CC"/>
<rect x="49.8179" y="88.7632" width="192.025" height="25.044" rx="5" fill="#EDEDED"/>
<rect x="49.8184" y="121.718" width="129.986" height="25.044" rx="5" fill="#EDEDED"/>
<rect x="49.8181" y="167.85" width="129.986" height="10.5449" rx="5" fill="#EDEDED"/>
<rect x="49.8183" y="187.622" width="88.6268" height="10.5449" rx="5" fill="#EDEDED"/>
<rect x="145.831" y="187.622" width="88.6268" height="10.5449" rx="5" fill="#EDEDED"/>
<rect x="49.8183" y="207.393" width="22.1567" height="10.5449" rx="5" fill="#EDEDED"/>
<rect x="79.3605" y="207.393" width="143.28" height="10.5449" rx="5" fill="#EDEDED"/>
<rect x="51.2956" y="227.164" width="150.666" height="10.5449" rx="5" fill="#EDEDED"/>
<rect x="51.2956" y="246.937" width="54.6532" height="10.5449" rx="5" fill="#EDEDED"/>
<rect x="117.766" y="246.937" width="28.0652" height="10.5449" rx="5" fill="#EDEDED"/>
<rect x="230.026" y="207.393" width="33.9736" height="10.5449" rx="5" fill="#EDEDED"/>
<rect x="187.19" y="167.851" width="76.8099" height="10.5449" rx="5" fill="#EDEDED"/>
<path d="M64.3105 50.6132C64.3105 51.5549 64.0312 52.4754 63.5081 53.2584C62.9849 54.0414 62.2413 54.6516 61.3713 55.012C60.5013 55.3724 59.544 55.4666 58.6204 55.2829C57.6968 55.0992 56.8485 54.6458 56.1826 53.9799C55.5168 53.314 55.0633 52.4657 54.8796 51.5421C54.6959 50.6185 54.7901 49.6612 55.1505 48.7912C55.5109 47.9212 56.1211 47.1776 56.9041 46.6545C57.6871 46.1313 58.6076 45.8521 59.5493 45.8521C60.1745 45.8521 60.7937 45.9752 61.3713 46.2145C61.949 46.4537 62.4738 46.8045 62.9159 47.2466C63.3581 47.6887 63.7088 48.2136 63.948 48.7912C64.1873 49.3689 64.3105 49.988 64.3105 50.6132Z" fill="#00B67A"/>
<path d="M35.449 50.6132C35.449 51.5549 35.1698 52.4754 34.6466 53.2584C34.1235 54.0414 33.3799 54.6516 32.5099 55.012C31.6399 55.3724 30.6826 55.4666 29.759 55.2829C28.8354 55.0992 27.987 54.6458 27.3212 53.9799C26.6553 53.314 26.2018 52.4657 26.0181 51.5421C25.8344 50.6185 25.9287 49.6612 26.2891 48.7912C26.6494 47.9212 27.2597 47.1776 28.0427 46.6545C28.8256 46.1313 29.7462 45.8521 30.6878 45.8521C31.3131 45.8521 31.9322 45.9752 32.5099 46.2145C33.0875 46.4537 33.6124 46.8045 34.0545 47.2466C34.4966 47.6887 34.8473 48.2136 35.0866 48.7912C35.3259 49.3689 35.449 49.988 35.449 50.6132Z" fill="#FD3E72"/>
<path d="M49.3069 50.6135C49.3069 51.5572 49.0264 52.4797 48.501 53.2637C47.9756 54.0477 47.2291 54.6579 46.3563 55.0168C45.4834 55.3756 44.5236 55.467 43.5987 55.2793C42.6738 55.0916 41.8256 54.6332 41.1617 53.9624C40.4978 53.2916 40.0483 52.4387 39.8702 51.5119C39.692 50.5851 39.7933 49.6263 40.1612 48.7572C40.5291 47.8881 41.147 47.148 41.9364 46.6307C42.7258 46.1135 43.6511 45.8426 44.5948 45.8523C45.8491 45.8652 47.0475 46.3726 47.9298 47.2641C48.8121 48.1556 49.307 49.3592 49.3069 50.6135Z" fill="#F8C83C"/>
</g>
<g filter="url(#filter2_d)">
<path d="M188.105 365.181H68.0197C54.2126 365.181 43.0197 376.374 43.0197 390.181V456.772C43.0197 470.579 54.2126 481.772 68.0197 481.772H188.105C201.912 481.772 213.105 470.579 213.105 456.772V390.181C213.105 376.374 201.912 365.181 188.105 365.181Z" fill="#AA8C30"/>
<path d="M107.258 144.968C107.667 142.382 108.917 140.004 110.814 138.201C112.711 136.397 115.149 135.269 117.752 134.99C119.12 135.016 120.486 134.862 121.815 134.532C122.826 134.044 123.802 133.488 124.738 132.866C126.35 132.045 128.194 131.798 129.966 132.167C131.737 132.535 133.33 133.497 134.481 134.893C136.566 137.563 137.404 133.85 142.334 136.773C146.417 139.2 144.283 142.62 144.283 142.62C146.397 142.589 148.456 143.293 150.108 144.612C151.761 145.93 152.905 147.781 153.344 149.849C153.832 152.48 153.296 155.695 155.342 157.391C156.316 158.229 157.719 158.453 158.752 159.252C160.652 160.723 160.701 163.568 160.292 165.936C159.882 168.303 159.122 170.807 159.999 173.048C161.441 176.731 166.683 178.183 167.326 182.081C167.628 183.922 166.859 186.134 168.135 187.488C168.712 187.978 169.372 188.361 170.084 188.618C171.454 189.292 172.613 190.329 173.433 191.617C174.254 192.904 174.705 194.392 174.737 195.919C174.769 197.445 174.381 198.951 173.616 200.272C172.85 201.593 171.736 202.678 170.396 203.409C169.655 203.818 168.768 204.189 168.447 204.987C168.125 205.786 168.72 206.8 169.139 207.647C169.924 209.207 170.177 210.981 169.859 212.698C169.542 214.415 168.671 215.981 167.381 217.157C166.09 218.333 164.45 219.055 162.71 219.211C160.971 219.368 159.229 218.951 157.748 218.024C156.148 220.854 153.51 222.951 150.392 223.87C148.977 224.337 147.456 224.377 146.017 223.987C144.902 223.58 143.881 222.95 143.016 222.136C138.758 218.424 132.786 212.743 132.386 207.112" fill="#44414D"/>
<path d="M205.55 211.399L180.022 234.783C176.855 234.052 137.989 210.814 137.989 210.814L131.87 240.717C131.87 240.717 171.652 259.005 182.594 256.793C184.387 256.423 187.32 256.199 189.161 253.87C197.931 242.617 216.502 214.77 216.502 214.77L205.55 211.399Z" fill="#FFBE9D"/>
<path d="M217.914 185.666C216.229 186.358 210.207 196.51 210.207 196.51L208.697 196.588C208.041 196.624 207.399 196.793 206.812 197.087C206.224 197.38 205.703 197.792 205.281 198.295C204.858 198.799 204.544 199.383 204.358 200.013C204.171 200.643 204.116 201.305 204.196 201.957C204.693 206.186 205.579 211.398 205.579 211.398L213.998 215.237L216.502 214.711C218.821 214.594 221.081 209.839 222.513 206.546C223.946 203.253 221.597 202.561 221.597 202.561C221.597 199.258 218.801 199.911 218.801 199.911C218.794 199.524 218.709 199.143 218.554 198.79C218.398 198.436 218.173 198.117 217.893 197.85C217.613 197.584 217.283 197.376 216.922 197.238C216.561 197.1 216.177 197.035 215.79 197.046C215.79 197.046 219.522 190.226 220.253 187.8C220.984 185.374 219.6 184.984 217.914 185.666Z" fill="#FFBE9D"/>
<path d="M218.635 199.911C218.394 200.642 218.101 201.355 217.759 202.045C217.607 202.407 217.431 202.758 217.232 203.097C216.979 203.481 216.67 203.826 216.316 204.12C215.921 204.46 215.45 204.7 214.943 204.822C214.659 204.873 214.368 204.865 214.088 204.798C213.808 204.731 213.545 204.606 213.316 204.432C213.081 204.238 212.914 203.976 212.838 203.682C212.78 203.402 212.78 203.113 212.838 202.834C212.939 202.345 213.082 201.865 213.267 201.402C213.565 200.615 213.917 199.85 214.319 199.112C214.585 198.617 214.881 198.138 215.206 197.68C215.309 197.497 215.44 197.333 215.595 197.192C215.644 197.192 215.147 197.952 214.524 199.219C214.154 199.962 213.828 200.727 213.549 201.509C213.38 201.959 213.246 202.421 213.15 202.892C213.096 203.121 213.105 203.361 213.175 203.585C213.246 203.81 213.375 204.011 213.549 204.169C213.742 204.313 213.963 204.416 214.198 204.472C214.433 204.527 214.676 204.533 214.913 204.49C215.365 204.384 215.785 204.174 216.141 203.876C216.481 203.598 216.776 203.269 217.018 202.902C217.225 202.592 217.407 202.266 217.564 201.928C217.87 201.23 218.228 200.555 218.635 199.911Z" fill="#EB996E"/>
<path d="M221.5 202.093C221.481 202.293 221.435 202.49 221.364 202.678C221.21 203.198 221.025 203.709 220.808 204.207C220.499 204.967 220.068 205.671 219.532 206.292C219.217 206.677 218.816 206.984 218.363 207.189C218.108 207.323 217.821 207.38 217.534 207.352C217.248 207.325 216.976 207.214 216.753 207.034C216.529 206.853 216.363 206.611 216.275 206.338C216.187 206.064 216.181 205.77 216.258 205.493C216.34 205.014 216.471 204.544 216.648 204.09C216.907 203.33 217.21 202.585 217.554 201.859C217.846 201.236 218.109 200.739 218.304 200.407C218.386 200.225 218.498 200.057 218.635 199.91C218.684 199.91 218.294 200.69 217.768 201.947C217.505 202.58 217.213 203.34 216.94 204.188C216.773 204.621 216.655 205.072 216.589 205.532C216.521 205.751 216.519 205.985 216.584 206.205C216.65 206.424 216.779 206.619 216.956 206.765C217.133 206.91 217.349 207 217.577 207.022C217.805 207.043 218.035 206.996 218.236 206.887C218.647 206.697 219.013 206.422 219.308 206.078C219.835 205.499 220.269 204.842 220.594 204.129C221.14 202.882 221.451 202.073 221.5 202.093Z" fill="#EB996E"/>
<path d="M222.991 204.539C222.992 205.079 222.879 205.614 222.659 206.108C222.463 206.661 222.205 207.191 221.89 207.686C221.708 207.989 221.493 208.27 221.247 208.524C221.099 208.675 220.918 208.788 220.718 208.854C220.518 208.92 220.305 208.937 220.097 208.904C219.889 208.847 219.702 208.729 219.56 208.566C219.418 208.403 219.327 208.202 219.298 207.988C219.247 207.627 219.267 207.26 219.356 206.907C219.496 206.337 219.706 205.788 219.98 205.27C220.202 204.784 220.452 204.312 220.73 203.857C220.626 204.384 220.446 204.893 220.194 205.367C219.959 205.882 219.779 206.421 219.659 206.975C219.602 207.297 219.602 207.627 219.659 207.949C219.678 208.1 219.74 208.242 219.836 208.359C219.933 208.476 220.06 208.564 220.204 208.612C220.361 208.635 220.521 208.619 220.67 208.567C220.82 208.514 220.954 208.426 221.062 208.31C221.292 208.081 221.495 207.826 221.666 207.55C221.984 207.075 222.257 206.573 222.484 206.049C222.825 205.133 222.942 204.529 222.991 204.539Z" fill="#EB996E"/>
<path d="M208.697 196.588C211.178 196.484 213.663 196.507 216.141 196.656C216.319 197.281 216.267 197.948 215.996 198.538C215.724 199.128 215.25 199.601 214.66 199.872C213.46 200.371 212.153 200.559 210.86 200.417C211.356 200.881 211.749 201.444 212.014 202.069C212.28 202.694 212.412 203.367 212.402 204.046C212.392 204.725 212.24 205.394 211.956 206.011C211.672 206.628 211.262 207.178 210.753 207.627" fill="#FFBE9D"/>
<path d="M210.753 207.589C211.27 207.038 211.682 206.397 211.971 205.699C212.311 204.809 212.377 203.838 212.16 202.91C211.943 201.983 211.453 201.142 210.753 200.496L210.441 200.203H210.87C212.018 200.314 213.177 200.181 214.27 199.814C215.586 199.307 216.472 197.806 215.995 196.666L216.131 196.764C213.959 196.598 212.098 196.598 210.782 196.579H209.252C209.068 196.604 208.881 196.604 208.697 196.579C208.876 196.534 209.059 196.511 209.243 196.511C209.603 196.511 210.12 196.452 210.782 196.433C212.098 196.433 213.959 196.355 216.151 196.491H216.248V196.588C216.376 196.93 216.425 197.295 216.391 197.658C216.357 198.021 216.242 198.371 216.053 198.683C215.673 199.352 215.079 199.873 214.368 200.164C213.224 200.55 212.012 200.686 210.811 200.564L210.928 200.291C211.752 201.065 212.288 202.095 212.448 203.214C212.574 204.089 212.46 204.981 212.117 205.796C211.883 206.329 211.552 206.815 211.143 207.228C211.032 207.368 210.901 207.49 210.753 207.589Z" fill="#EB996E"/>
<path d="M159.96 463.551C160.148 463.3 160.278 463.01 160.34 462.703C160.587 461.889 160.656 461.032 160.545 460.189C160.52 459.895 160.451 459.605 160.34 459.332C160.276 459.155 160.166 458.999 160.02 458.88C159.874 458.762 159.698 458.685 159.512 458.659C159.399 458.647 159.284 458.659 159.176 458.696C159.068 458.733 158.97 458.794 158.888 458.874C158.743 459.032 158.654 459.234 158.635 459.449C158.605 459.799 158.605 460.151 158.635 460.501C158.694 461.212 158.694 461.884 158.801 462.713C158.838 462.948 158.938 463.17 159.091 463.353C159.244 463.537 159.443 463.676 159.668 463.755C160.095 463.881 160.547 463.901 160.983 463.814C161.77 463.672 162.537 463.443 163.273 463.132C163.623 462.982 163.965 462.813 164.296 462.625C164.649 462.455 164.963 462.217 165.222 461.923C165.368 461.748 165.447 461.528 165.447 461.3C165.447 461.072 165.368 460.851 165.222 460.676C165.072 460.542 164.891 460.447 164.695 460.401C164.499 460.355 164.295 460.359 164.101 460.413C163.528 460.564 162.978 460.79 162.464 461.085C161.721 461.487 161.039 461.992 160.438 462.586C160.019 463.005 159.834 463.287 159.863 463.307C160.726 462.595 161.656 461.968 162.64 461.436C163.129 461.185 163.645 460.993 164.179 460.861C164.452 460.861 164.744 460.861 164.852 460.998C164.915 461.093 164.944 461.206 164.933 461.32C164.922 461.433 164.873 461.54 164.793 461.621C164.566 461.846 164.303 462.031 164.014 462.167C163.702 462.333 163.371 462.489 163.039 462.635C162.337 462.924 161.605 463.137 160.857 463.268C160.518 463.352 160.163 463.352 159.824 463.268C159.684 463.223 159.561 463.138 159.469 463.024C159.378 462.91 159.321 462.771 159.307 462.625C159.2 461.953 159.181 461.173 159.113 460.501C159.074 460.178 159.057 459.852 159.064 459.527C159.064 459.254 159.22 459.117 159.415 459.137C159.873 459.137 160.028 459.77 160.106 460.267C160.27 461.361 160.221 462.476 159.96 463.551Z" fill="#263238"/>
<path d="M201.438 424.381C201.508 424.077 201.508 423.76 201.438 423.456C201.28 422.614 200.948 421.814 200.464 421.107C200.314 420.856 200.127 420.63 199.908 420.435C199.773 420.303 199.605 420.211 199.421 420.168C199.237 420.125 199.045 420.133 198.866 420.192C198.758 420.23 198.66 420.292 198.579 420.373C198.498 420.453 198.436 420.551 198.398 420.659C198.334 420.862 198.334 421.08 198.398 421.283C198.529 421.622 198.692 421.949 198.885 422.257C199.246 422.871 199.538 423.475 200.006 424.206C200.144 424.4 200.332 424.553 200.549 424.651C200.767 424.749 201.006 424.787 201.243 424.761C201.682 424.688 202.095 424.503 202.442 424.225C203.403 423.536 204.234 422.681 204.897 421.702C205.133 421.392 205.312 421.042 205.423 420.669C205.481 420.448 205.459 420.213 205.361 420.006C205.263 419.8 205.095 419.634 204.887 419.539C204.697 419.48 204.495 419.472 204.3 419.515C204.105 419.558 203.925 419.65 203.777 419.782C203.327 420.174 202.931 420.623 202.598 421.117C202.112 421.807 201.725 422.561 201.448 423.358C201.32 423.64 201.251 423.945 201.243 424.255C201.71 423.232 202.268 422.254 202.909 421.331C203.237 420.891 203.616 420.492 204.04 420.143C204.126 420.06 204.233 420.001 204.348 419.97C204.464 419.939 204.586 419.938 204.702 419.967C204.798 420.024 204.872 420.112 204.911 420.217C204.95 420.321 204.952 420.436 204.917 420.542C204.819 420.847 204.668 421.131 204.468 421.38C204.261 421.676 204.037 421.959 203.796 422.228C203.299 422.801 202.736 423.315 202.12 423.758C201.838 423.984 201.502 424.134 201.146 424.196C201 424.215 200.852 424.192 200.719 424.13C200.587 424.068 200.474 423.969 200.396 423.845C200.006 423.29 199.636 422.598 199.285 422.023C199.106 421.754 198.949 421.471 198.817 421.176C198.72 420.913 198.817 420.747 198.954 420.669C199.382 420.494 199.791 420.971 200.074 421.38C200.71 422.288 201.173 423.305 201.438 424.381Z" fill="#263238"/>
<path d="M172.549 433.891L160.662 459.663L141.477 450.796L153.773 418.906L172.549 433.891Z" fill="#FFBE9D"/>
<path d="M162.912 457.938L155.965 471.19C155.965 471.19 173.747 489.575 172.071 493.677L130.272 473.635L141.759 447.074L162.912 457.938Z" fill="#FD3E72"/>
<path d="M143.903 463.18C143.442 463.109 142.971 463.211 142.581 463.466C142.19 463.722 141.908 464.112 141.789 464.563C141.702 465.028 141.8 465.508 142.062 465.901C142.324 466.294 142.73 466.569 143.192 466.668C143.681 466.741 144.18 466.63 144.592 466.357C145.005 466.083 145.301 465.666 145.423 465.187C145.451 464.703 145.297 464.227 144.993 463.851C144.688 463.474 144.255 463.225 143.776 463.15" fill="#E0E0E0"/>
<g opacity="0.6">
<path opacity="0.6" d="M130.272 473.635L132.016 470.302L171.438 490.764C171.438 490.764 172.909 492.469 172.071 493.687L130.272 473.635Z" fill="white"/>
</g>
<path d="M156.745 471.295C156.638 471.5 155.576 471.101 154.251 471.295C152.925 471.49 151.99 472.075 151.834 471.9C151.678 471.724 152.555 470.691 154.163 470.516C155.771 470.341 156.833 471.13 156.745 471.295Z" fill="#263238"/>
<path d="M160.253 475.213C160.204 475.437 159.161 475.359 158.051 475.886C156.94 476.412 156.306 477.24 156.102 477.133C155.897 477.026 156.326 475.808 157.719 475.184C159.113 474.561 160.34 475.018 160.253 475.213Z" fill="#263238"/>
<path d="M160.233 481.653C160.028 481.653 160.233 480.455 161.285 479.587C162.338 478.72 163.517 478.73 163.517 478.944C163.517 479.159 162.649 479.47 161.792 480.191C160.935 480.912 160.438 481.731 160.233 481.653Z" fill="#263238"/>
<path d="M158.781 466.191C158.606 466.337 157.807 465.606 156.618 465.139C155.429 464.671 154.348 464.593 154.328 464.369C154.309 464.145 155.517 463.823 156.91 464.369C158.304 464.915 158.908 466.084 158.781 466.191Z" fill="#263238"/>
<path d="M172.822 442.738L203.104 367.382C203.104 367.382 202.403 353.994 199.938 349.775C197.473 345.556 122.818 320.896 122.818 320.896C122.818 320.896 103.799 316.316 91.1226 320.896C78.4463 325.475 68.9367 341.357 70.6613 350.126C72.3859 358.895 79.8591 365.433 79.8591 365.433L134.754 367.07L164.686 377.983L144.556 435.693C144.556 435.693 154.884 446.966 172.822 442.738Z" fill="#8F4620"/>
<path d="M199.636 392.218L200.347 420.581L179.223 421.098L176.173 387.054L199.636 392.218Z" fill="#FFBE9D"/>
<path d="M201.653 418.048L201.263 433.005C201.263 433.005 225.339 441.647 225.621 446.071L179.272 446.548L177.849 417.629L201.653 418.048Z" fill="#FD3E72"/>
<path d="M186.862 431.133C186.423 431.284 186.052 431.587 185.816 431.987C185.58 432.387 185.495 432.859 185.576 433.316C185.702 433.763 185.994 434.145 186.392 434.385C186.791 434.624 187.265 434.701 187.719 434.602C188.19 434.451 188.588 434.132 188.838 433.706C189.088 433.28 189.172 432.777 189.074 432.293C188.895 431.839 188.547 431.473 188.104 431.27C187.661 431.066 187.157 431.042 186.696 431.202" fill="#E0E0E0"/>
<g opacity="0.6">
<path opacity="0.6" d="M179.243 446.548L179.33 442.787L223.741 443.761C223.741 443.761 225.816 444.638 225.592 446.09L179.243 446.548Z" fill="white"/>
</g>
<path d="M201.964 432.76C201.964 432.985 200.834 433.101 199.723 433.842C198.613 434.582 198.038 435.537 197.823 435.45C197.609 435.362 197.94 434.047 199.295 433.179C200.649 432.312 202.013 432.546 201.964 432.76Z" fill="#263238"/>
<path d="M206.846 434.719C206.904 434.933 205.93 435.333 205.17 436.298C204.41 437.262 204.196 438.246 203.972 438.246C203.747 438.246 203.592 436.95 204.556 435.771C205.521 434.592 206.846 434.505 206.846 434.719Z" fill="#263238"/>
<path d="M209.671 440.507C209.467 440.566 209.136 439.435 209.671 438.188C210.207 436.941 211.289 436.434 211.386 436.629C211.484 436.824 210.841 437.487 210.412 438.51C209.983 439.533 209.896 440.459 209.671 440.507Z" fill="#263238"/>
<path d="M201.507 427.294C201.409 427.509 200.367 427.207 199.09 427.294C197.814 427.382 196.82 427.811 196.703 427.616C196.586 427.421 197.531 426.641 199.041 426.505C200.552 426.369 201.653 427.119 201.507 427.294Z" fill="#263238"/>
<path d="M187.3 313.451C187.3 313.451 199.967 312.477 201.37 326.176C202.773 339.876 204.157 403.997 204.157 403.997L174.585 406.463L170.006 340.967L122.818 320.895C122.818 320.895 178.853 311.698 187.3 313.451Z" fill="#8F4620"/>
<path d="M135.124 294.92C135.124 294.92 142.812 316.463 141.35 318.859C139.889 321.256 120.129 331.136 120.129 331.136L70.7003 350.126C70.7003 350.126 65.6239 342.049 65.6239 329.665C65.6239 317.281 82.7822 294.92 82.7822 294.92H135.124Z" fill="#8F4620"/>
<path d="M120.48 319.795C120.48 319.795 120.548 319.795 120.704 319.921L121.405 320.243L124.143 321.461L134.423 325.943L169.899 341.211L169.743 340.987C170.191 347.456 170.668 354.442 171.175 361.672C172.373 378.577 173.484 394.157 174.361 406.492V406.716H174.575L196.128 404.826L202.062 404.271L203.611 404.105C203.789 404.101 203.966 404.075 204.137 404.027H203.611L202.052 404.124L196.109 404.553L174.546 406.258L174.78 406.463C173.932 394.128 172.831 378.548 171.701 361.643C171.195 354.413 170.727 347.427 170.249 340.958V340.792L170.093 340.733L134.549 325.641L124.211 321.305L121.435 320.175L120.714 319.892C120.641 319.848 120.562 319.815 120.48 319.795Z" fill="#723313"/>
<path d="M81.1648 321.948C81.6385 321.872 82.1024 321.744 82.5484 321.568L86.2704 320.369C90.3346 318.992 94.5016 317.94 98.7323 317.222C102.957 316.532 107.271 316.588 111.477 317.388C113.207 317.791 114.914 318.286 116.592 318.869C116.189 318.603 115.758 318.384 115.306 318.216C114.095 317.708 112.844 317.304 111.564 317.008C107.317 316.083 102.934 315.971 98.6446 316.676C94.3831 317.391 90.1979 318.504 86.1437 319.999C84.5848 320.554 83.3376 321.032 82.4802 321.373C82.0234 321.519 81.5827 321.712 81.1648 321.948Z" fill="#723313"/>
<path d="M88.1508 310.597C89.5883 310.509 91.0297 310.509 92.4672 310.597C93.802 310.684 95.3902 310.889 97.1538 311.093C98.9174 311.298 100.847 311.542 102.844 311.922C106.276 312.471 109.567 313.689 112.529 315.507C113.711 316.331 114.834 317.236 115.89 318.216C115.7 317.872 115.456 317.56 115.169 317.29C114.443 316.503 113.632 315.798 112.753 315.186C109.794 313.232 106.452 311.933 102.951 311.376C100.925 310.996 98.9758 310.772 97.2025 310.587C95.4292 310.402 93.841 310.246 92.4964 310.207C91.426 310.155 90.353 310.2 89.2908 310.343C88.9002 310.37 88.5159 310.455 88.1508 310.597Z" fill="#723313"/>
<path d="M136.371 210.064C139.856 211.409 142.759 213.933 144.575 217.197C147.664 222.653 146.836 225.352 146.037 228.577C145.238 231.802 143.806 238.204 143.728 237.794C143.65 237.385 136.371 210.064 136.371 210.064Z" fill="#FFBE9D"/>
<path d="M136.001 210.055L129.522 206.216L92.9836 205.251L105.29 245.609L127.544 259.63L140.736 253.023L142.052 238.36L136.001 210.055Z" fill="#FFBE9D"/>
<path d="M136.371 210.063C136.371 210.063 144.77 237.014 144.575 244.731C144.38 252.448 141.185 274.37 141.555 278.687C141.925 283.003 140.415 294.919 135.144 294.919H82.7822C82.7822 294.919 70.9731 291.655 70.4567 284.552C69.9403 277.449 79.5473 216.728 79.5473 216.728C79.5473 216.728 86.2508 206.614 90.5769 205.728C94.903 204.841 102.932 203.019 105.825 211.973C108.719 220.927 109.664 225.517 115.832 231.694C122 237.871 130.798 244.799 130.798 244.799C130.798 244.799 137.891 238.865 138.203 230.837C138.515 222.808 135.524 209.8 135.524 209.8L136.371 210.063Z" fill="#FD3E72"/>
<path d="M128.577 295.505C129.343 295.312 130.051 294.938 130.642 294.414C132.132 293.223 133.328 291.706 134.14 289.98C134.944 288.274 135.542 286.478 135.923 284.631C136.149 283.889 136.27 283.118 136.284 282.342C135.96 283.044 135.712 283.779 135.543 284.534C135.057 286.317 134.425 288.057 133.653 289.737C132.862 291.392 131.756 292.878 130.399 294.112C129.366 295.037 128.577 295.417 128.577 295.505Z" fill="#E83163"/>
<path d="M100.915 262.094C101.171 262.381 101.466 262.631 101.792 262.835C102.639 263.451 103.546 263.98 104.5 264.413C105.915 265.074 107.418 265.527 108.963 265.758C110.865 266.033 112.801 265.95 114.673 265.514C118.054 264.65 121.13 262.866 123.559 260.36C124.292 259.616 124.972 258.821 125.595 257.983C125.842 257.687 126.048 257.359 126.209 257.008C126.131 256.94 125.186 258.275 123.286 260.068C120.835 262.425 117.813 264.104 114.517 264.94C111.207 265.694 107.744 265.377 104.627 264.033C102.269 263.04 100.973 262.007 100.915 262.094Z" fill="#E83163"/>
<path d="M129.249 294.53C129.356 294.627 130.077 293.799 130.321 292.513C130.564 291.227 130.223 290.194 130.087 290.243C129.94 290.956 129.839 291.679 129.785 292.406C129.551 293.575 129.112 294.452 129.249 294.53Z" fill="#E83163"/>
<g opacity="0.3">
<path opacity="0.3" d="M125.332 258.255C124.973 262.257 123.043 265.954 119.963 268.535C118.416 269.784 116.596 270.65 114.651 271.065C112.706 271.48 110.691 271.431 108.768 270.922C106.852 270.374 105.124 269.308 103.775 267.842C102.426 266.375 101.507 264.565 101.119 262.611C103.755 263.964 106.565 264.948 109.47 265.534C112.603 265.953 115.792 265.458 118.651 264.108C121.51 262.758 123.918 260.61 125.585 257.924L125.157 258.372" fill="black"/>
</g>
<g opacity="0.3">
<path opacity="0.3" d="M136.371 283.159C136.747 285.147 136.601 287.199 135.947 289.113C135.293 291.028 134.153 292.74 132.64 294.082C132.349 294.404 131.98 294.646 131.569 294.784C131.158 294.923 130.718 294.952 130.291 294.871C133.238 291.433 135.304 287.33 136.313 282.916" fill="black"/>
</g>
<path d="M65.6239 246.27L91.98 258.635C91.98 258.635 102.698 234.861 103.672 231.606C104.647 228.352 107.492 223.217 104.52 216.436C101.548 209.654 94.0651 205.884 89.0959 207.667C77.4525 211.71 65.6239 246.27 65.6239 246.27Z" fill="#FD3E72"/>
<path d="M142.052 246.193C143.279 246.193 157.417 253.589 157.417 253.589L165.465 226.93C153.442 218.921 141.165 210.591 134.13 208.7L140.269 229.912L142.052 246.193Z" fill="#FD3E72"/>
<path d="M89.398 256.959C84.3996 265.163 80.9212 269.879 80.9212 269.879L125.741 297.161L120.528 309.282L62.4573 285.381C62.4573 285.381 56.7281 279.535 58.7548 272.929L68.0111 247.372L89.398 256.959Z" fill="#FFBE9D"/>
<path d="M70.028 274.049C71.7381 272.981 73.53 272.049 75.3869 271.263C77.296 270.648 79.2508 270.185 81.233 269.879C79.1712 269.731 77.1015 270.026 75.1636 270.746C73.2256 271.465 71.4644 272.592 69.9988 274.049H70.028Z" fill="#EB996E"/>
<path d="M65.6239 246.27C65.8015 246.316 65.9744 246.378 66.1403 246.455L67.6018 247.079L72.9315 249.447L90.4698 257.417L92.6036 258.391L92.2626 258.518C95.3123 252.243 97.9722 246.631 99.8625 242.587C100.778 240.639 101.519 238.992 102.064 237.793C102.308 237.277 102.503 236.819 102.659 236.498C102.727 236.346 102.805 236.2 102.893 236.059C102.872 236.226 102.823 236.387 102.747 236.537C102.639 236.848 102.474 237.297 102.24 237.871C101.782 239.021 101.08 240.677 100.174 242.743C98.3717 246.835 95.7605 252.487 92.7205 258.752L92.6133 258.976L92.3892 258.869L90.2554 257.894L72.8146 249.778L67.5629 247.264L66.1403 246.563C65.9535 246.494 65.7791 246.395 65.6239 246.27Z" fill="#E83163"/>
<path d="M140.425 222.078C140.67 222.476 140.875 222.897 141.038 223.335C141.522 224.51 141.922 225.718 142.237 226.95C143.23 231.018 143.833 235.171 144.039 239.353C144.299 243.527 144.26 247.715 143.922 251.883C143.786 253.481 143.601 254.806 143.445 255.654C143.388 256.118 143.284 256.575 143.133 257.018C143.132 256.551 143.171 256.085 143.25 255.625C143.338 254.738 143.474 253.452 143.562 251.854C143.806 247.701 143.806 243.536 143.562 239.383C143.342 235.242 142.781 231.126 141.886 227.077C141.605 225.848 141.26 224.635 140.853 223.442C140.67 223.001 140.526 222.545 140.425 222.078Z" fill="#E83163"/>
<path d="M160.428 305.453L149.262 300.153L127.476 298.428L125.653 297.142L120.441 309.263C120.441 309.263 126.15 312.001 129.142 312.244L147.469 311.689L157.047 312.663L160.428 305.453Z" fill="#FFBE9D"/>
<path d="M146.436 165.565C147.079 165.7 147.742 165.7 148.385 165.565C149.972 165.309 151.488 164.725 152.838 163.851C154.187 162.982 155.338 161.84 156.219 160.499C156.617 159.968 156.902 159.361 157.057 158.716C156.643 159.214 156.263 159.738 155.917 160.285C154.025 162.741 151.339 164.463 148.317 165.156C147.682 165.252 147.054 165.389 146.436 165.565Z" fill="#595761"/>
<path d="M143.581 152.616C143.581 152.616 143.971 153.21 144.858 153.892C147.24 155.667 150.228 156.428 153.169 156.007C153.778 155.97 154.371 155.797 154.903 155.5C154.903 155.325 152.165 156.104 148.94 155.256C147.019 154.681 145.208 153.789 143.581 152.616Z" fill="#595761"/>
<path d="M164.51 216.728H164.686C164.803 216.728 164.968 216.66 165.193 216.582C165.829 216.353 166.424 216.024 166.956 215.608C167.812 214.95 168.5 214.098 168.963 213.123C169.576 211.813 169.747 210.339 169.45 208.924C169.286 208.104 168.972 207.321 168.525 206.614C168.025 205.861 167.418 205.184 166.722 204.607C166.004 204.032 165.376 203.352 164.861 202.59C164.627 202.189 164.496 201.736 164.481 201.271C164.465 200.807 164.566 200.346 164.774 199.93C165.288 199.035 165.902 198.201 166.605 197.446C166.973 197.02 167.3 196.56 167.58 196.072C167.853 195.553 168.04 194.994 168.135 194.415C168.299 193.207 168.08 191.978 167.511 190.9C166.941 189.822 166.049 188.949 164.959 188.404C163.83 188.031 162.668 187.763 161.49 187.605C160.966 187.496 160.469 187.284 160.028 186.981C159.617 186.672 159.316 186.238 159.171 185.744C158.955 184.72 159.075 183.654 159.512 182.704C159.912 181.729 160.486 180.814 160.827 179.829C161.249 178.851 161.321 177.757 161.032 176.731C160.701 175.79 160.088 174.974 159.278 174.393C157.845 173.448 156.244 172.786 154.562 172.444C153.217 172.13 151.948 171.551 150.831 170.739C150.038 170.076 149.489 169.167 149.272 168.157C149.108 167.505 149.173 166.817 149.457 166.208C149.652 165.799 149.837 165.633 149.808 165.614C149.62 165.76 149.467 165.947 149.359 166.159C149.039 166.756 148.936 167.444 149.067 168.108C149.253 169.19 149.807 170.174 150.636 170.895C151.77 171.755 153.065 172.378 154.445 172.727C156.074 173.086 157.62 173.747 159.005 174.675C159.737 175.209 160.288 175.953 160.584 176.809C160.837 177.731 160.761 178.713 160.37 179.586C160.009 180.56 159.473 181.418 159.044 182.441C158.554 183.497 158.424 184.685 158.674 185.822C158.843 186.425 159.206 186.956 159.707 187.332C160.208 187.683 160.775 187.928 161.373 188.053C162.514 188.211 163.639 188.468 164.735 188.823C165.728 189.313 166.544 190.101 167.068 191.078C167.592 192.054 167.798 193.17 167.658 194.269C167.572 194.788 167.408 195.291 167.17 195.76C166.907 196.218 166.603 196.651 166.264 197.056C165.536 197.843 164.908 198.717 164.394 199.657C164.155 200.143 164.04 200.681 164.061 201.221C164.081 201.762 164.236 202.29 164.51 202.756C165.053 203.553 165.709 204.265 166.459 204.87C167.13 205.411 167.718 206.048 168.203 206.76C168.625 207.431 168.928 208.169 169.1 208.943C169.4 210.283 169.26 211.684 168.7 212.938C168.274 213.884 167.637 214.72 166.839 215.383C166.136 215.948 165.351 216.401 164.51 216.728Z" fill="#595761"/>
<path d="M106.537 153.649L106.615 149.644L130.857 146.039C138.31 145.552 146.027 153.318 146.193 160.781C146.378 169.073 146.28 179.206 145.053 185.335C142.578 197.66 133 198.82 133 198.82L132.474 211.174L105.017 210.405L106.537 153.649Z" fill="#FFBE9D"/>
<path d="M133 198.887C127.014 198.737 121.182 196.955 116.134 193.733C116.134 193.733 119.973 202.6 132.864 201.976L133 198.887Z" fill="#EB996E"/>
<path d="M149.389 145.747C147.391 150.083 142.909 156.543 138.154 157.011C135.764 157.219 133.36 156.812 131.172 155.828C128.984 154.844 127.084 153.316 125.653 151.389C124.855 154.906 120.889 156.699 117.313 157.235C114.787 157.687 112.185 157.451 109.781 156.553C108.589 156.085 107.536 155.321 106.723 154.331C105.91 153.342 105.363 152.162 105.134 150.902C104.802 148.368 108.534 142.259 111.058 141.85" fill="#44414D"/>
<path d="M110.668 209.167C110.512 211.175 109.741 213.086 108.459 214.64C107.177 216.193 105.448 217.314 103.507 217.849C103.573 219.496 103.049 221.114 102.03 222.41C101.011 223.706 99.5628 224.596 97.946 224.92C96.3292 225.244 94.6499 224.981 93.2098 224.178C91.7698 223.375 90.6635 222.084 90.0898 220.538C89.8842 219.711 89.5557 218.92 89.1154 218.19C87.8975 216.65 85.5298 216.962 83.6688 216.358C80.3073 215.267 78.8458 211.145 79.2258 207.638C79.3505 206.95 79.3832 206.249 79.3232 205.553C79.1186 204.15 78.0176 203.068 77.1992 201.909C73.8182 197.115 75.2504 190.158 78.9725 185.647C80.2196 184.146 81.7981 182.578 81.6811 180.629C81.4924 179.55 81.1339 178.507 80.6191 177.54C80.0036 175.874 79.9031 174.062 80.3305 172.339C80.7579 170.615 81.6936 169.06 83.016 167.875C83.4137 167.667 83.7278 167.329 83.9053 166.918C84.0828 166.506 84.1128 166.046 83.9904 165.614C83.7807 163.002 84.5689 160.408 86.1962 158.354C87.8234 156.3 90.1687 154.939 92.7595 154.546C93.0751 154.537 93.3861 154.467 93.6754 154.341C94.4743 153.932 94.4938 152.831 94.601 151.934C94.8738 149.576 96.7056 145.172 98.4984 143.623C103.507 139.346 108.359 142.824 110.093 144.461C110.093 144.461 113.523 161.454 112.86 164.62C112.198 167.787 109.869 175.679 110.795 179.236C111.72 182.792 113.221 190.168 111.769 193.393C110.317 196.618 110.668 209.167 110.668 209.167Z" fill="#44414D"/>
<path d="M91.9313 154.487C91.9313 154.487 92.1457 154.701 92.5841 155.023C93.2078 155.46 93.8587 155.857 94.5328 156.211C99.1144 158.584 104.331 159.44 109.431 158.657C110.195 158.543 110.95 158.377 111.691 158.16C112.217 158.004 112.5 157.897 112.49 157.858C112.48 157.819 111.292 158.063 109.372 158.287C106.874 158.553 104.351 158.488 101.87 158.092C99.3895 157.681 96.9769 156.933 94.6985 155.87C92.9934 155.062 91.9801 154.409 91.9313 154.487Z" fill="#595761"/>
<path d="M90.2944 155.685C90.3711 156.024 90.4924 156.352 90.6549 156.659C90.808 157.049 90.9904 157.427 91.2006 157.79C91.4469 158.29 91.7235 158.775 92.0288 159.241C92.8108 160.47 93.7115 161.619 94.718 162.671C95.9567 163.953 97.3285 165.1 98.8102 166.091C100.308 167.057 101.902 167.867 103.565 168.507C104.929 169.012 106.339 169.384 107.774 169.618C108.322 169.715 108.875 169.78 109.431 169.813C109.849 169.845 110.269 169.845 110.688 169.813C111.046 169.837 111.406 169.817 111.759 169.755C111.759 169.647 110.23 169.667 107.862 169.199C106.466 168.917 105.097 168.516 103.77 168.001C102.151 167.348 100.598 166.542 99.1318 165.594C97.6838 164.622 96.333 163.513 95.098 162.281C94.0957 161.267 93.186 160.164 92.3795 158.988C90.9765 157.059 90.3919 155.636 90.2944 155.685Z" fill="#595761"/>
<path d="M99.1805 218.833C99.1805 218.833 98.9661 218.833 98.5861 218.765C98.0295 218.645 97.5269 218.347 97.1538 217.917C96.5548 217.248 96.225 216.38 96.2282 215.481C96.264 214.28 96.4808 213.091 96.8713 211.954C97.4051 210.524 97.4968 208.965 97.1343 207.482C96.6179 205.874 95.3123 204.627 94.2113 203.302C93.6012 202.657 93.1009 201.917 92.7303 201.11C92.5571 200.702 92.4744 200.262 92.4879 199.82C92.5013 199.378 92.6106 198.943 92.8082 198.547C93.2778 197.714 93.9475 197.011 94.7569 196.501C95.5559 195.916 96.4328 195.41 97.2805 194.777C98.1842 194.187 98.8929 193.343 99.3169 192.35C99.4821 191.845 99.5389 191.31 99.4835 190.781C99.4281 190.253 99.2618 189.741 98.9953 189.281C98.021 187.518 96.54 186.231 96.1795 184.536C96.0557 183.731 96.1046 182.909 96.323 182.125C96.5414 181.34 96.9242 180.611 97.4461 179.986C98.3211 178.816 99.3208 177.744 100.428 176.79C101.343 175.97 102.184 175.07 102.941 174.101C103.501 173.356 103.932 172.523 104.218 171.636C104.381 171.066 104.447 170.473 104.413 169.882C104.397 169.677 104.361 169.475 104.306 169.278C104.341 170.052 104.242 170.827 104.013 171.568C103.159 173.521 101.817 175.222 100.116 176.508C98.9694 177.461 97.9334 178.539 97.0271 179.723C96.5178 180.399 96.1137 181.148 95.8287 181.944C95.5181 182.809 95.454 183.744 95.6436 184.643C96.0528 186.592 97.5923 187.878 98.4789 189.515C98.7104 189.912 98.8552 190.353 98.904 190.81C98.9527 191.267 98.9041 191.729 98.7615 192.165C98.3654 193.052 97.7228 193.806 96.9102 194.338C96.0918 194.942 95.2149 195.459 94.3867 196.063C93.5181 196.627 92.8019 197.397 92.3016 198.304C92.0763 198.766 91.9519 199.271 91.9368 199.785C91.9217 200.299 92.0161 200.81 92.2139 201.285C92.6133 202.145 93.1497 202.935 93.8021 203.624C94.9908 204.958 96.2379 206.157 96.7251 207.609C97.0707 209.011 96.9996 210.484 96.5205 211.847C96.1367 213.02 95.9394 214.247 95.9359 215.481C95.9666 216.443 96.3518 217.359 97.0174 218.054C97.431 218.491 97.9804 218.776 98.5764 218.862C98.7772 218.9 98.9842 218.89 99.1805 218.833Z" fill="#595761"/>
<path d="M223.254 262.435L160.428 262.942C158.392 262.942 156.443 263.916 156.141 265.943L149.272 311.737H116.884C116.625 311.718 116.365 311.753 116.12 311.84C115.875 311.926 115.651 312.062 115.461 312.239C115.271 312.416 115.119 312.63 115.016 312.868C114.912 313.106 114.858 313.363 114.858 313.622C114.858 313.882 114.912 314.139 115.016 314.377C115.119 314.615 115.271 314.829 115.461 315.006C115.651 315.183 115.875 315.319 116.12 315.405C116.365 315.491 116.625 315.526 116.884 315.508H220.263L227.327 267.18C227.418 266.593 227.381 265.993 227.219 265.421C227.056 264.849 226.771 264.32 226.384 263.869C225.997 263.418 225.517 263.056 224.976 262.809C224.436 262.561 223.848 262.434 223.254 262.435Z" fill="#4E4C56"/>
<path d="M223.254 262.436C223.581 262.414 223.91 262.443 224.228 262.523C225.067 262.719 225.823 263.172 226.393 263.818C226.962 264.464 227.316 265.272 227.405 266.128C227.427 266.995 227.352 267.861 227.18 268.71L226.274 275.083C224.891 284.69 222.893 298.516 220.428 315.528V315.693H220.263L119.993 315.742H117.294C116.803 315.793 116.308 315.698 115.871 315.469C115.42 315.224 115.073 314.822 114.897 314.339C114.721 313.859 114.723 313.332 114.902 312.854C115.08 312.375 115.424 311.976 115.871 311.728C116.309 311.512 116.798 311.421 117.284 311.465H149.262L149.018 311.669C151.493 295.271 153.793 279.974 155.839 266.255C155.898 265.336 156.314 264.476 156.998 263.858C157.683 263.283 158.518 262.915 159.405 262.796C160.247 262.719 161.093 262.69 161.938 262.708H164.403L173.854 262.64L190.672 262.533L214.602 262.416H221.003H222.65H223.215H222.65H221.003L214.602 262.514L190.672 262.777L173.864 262.942L164.403 263.03H161.938C161.112 263.01 160.286 263.039 159.463 263.118C158.655 263.228 157.895 263.566 157.271 264.092C156.662 264.645 156.295 265.415 156.248 266.236L149.476 311.669V311.874H117.323C116.922 311.831 116.516 311.902 116.154 312.079C115.822 312.265 115.566 312.563 115.43 312.919C115.295 313.275 115.289 313.667 115.413 314.027C115.542 314.396 115.802 314.705 116.144 314.895C116.507 315.079 116.918 315.151 117.323 315.099H120.022L220.292 315.158L220.107 315.323C222.621 298.331 224.676 284.505 226.099 274.907C226.459 272.51 226.771 270.386 227.073 268.535C227.251 267.699 227.336 266.846 227.327 265.992C227.264 265.288 227.012 264.615 226.596 264.043C226.037 263.251 225.215 262.681 224.277 262.436C223.937 262.407 223.594 262.407 223.254 262.436Z" fill="#263238"/>
<path d="M189.171 292.319C191.345 292.319 193.108 290.556 193.108 288.382C193.108 286.208 191.345 284.446 189.171 284.446C186.997 284.446 185.235 286.208 185.235 288.382C185.235 290.556 186.997 292.319 189.171 292.319Z" fill="white"/>
<path d="M151.815 315.079C151.902 315.079 153.91 303.436 156.287 289.035C158.664 274.634 160.516 262.962 160.428 262.942C160.34 262.923 158.343 274.586 155.965 288.986C153.588 303.387 151.727 315.06 151.815 315.079Z" fill="#263238"/>
</g>
<defs>
<filter id="filter0_d" x="0" y="31" width="546.386" height="325.397" filterUnits="userSpaceOnUse" color-interpolation-filters="sRGB">
<feFlood flood-opacity="0" result="BackgroundImageFix"/>
<feColorMatrix in="SourceAlpha" type="matrix" values="0 0 0 0 0 0 0 0 0 0 0 0 0 0 0 0 0 0 127 0" result="hardAlpha"/>
<feOffset dy="4"/>
<feGaussianBlur stdDeviation="5"/>
<feComposite in2="hardAlpha" operator="out"/>
<feColorMatrix type="matrix" values="0 0 0 0 0 0 0 0 0 0 0 0 0 0 0 0 0 0 0.25 0"/>
<feBlend mode="normal" in2="BackgroundImageFix" result="effect1_dropShadow"/>
<feBlend mode="normal" in="SourceGraphic" in2="effect1_dropShadow" result="shape"/>
</filter>
<filter id="filter1_d" x="298.429" y="74.7075" width="179.747" height="249.884" filterUnits="userSpaceOnUse" color-interpolation-filters="sRGB">
<feFlood flood-opacity="0" result="BackgroundImageFix"/>
<feColorMatrix in="SourceAlpha" type="matrix" values="0 0 0 0 0 0 0 0 0 0 0 0 0 0 0 0 0 0 127 0" result="hardAlpha"/>
<feOffset dy="4"/>
<feGaussianBlur stdDeviation="6"/>
<feColorMatrix type="matrix" values="0 0 0 0 0 0 0 0 0 0 0 0 0 0 0 0 0 0 0.1 0"/>
<feBlend mode="normal" in2="BackgroundImageFix" result="effect1_dropShadow"/>
<feBlend mode="normal" in="SourceGraphic" in2="effect1_dropShadow" result="shape"/>
</filter>
<filter id="filter2_d" x="36.0197" y="129" width="198.389" height="375.687" filterUnits="userSpaceOnUse" color-interpolation-filters="sRGB">
<feFlood flood-opacity="0" result="BackgroundImageFix"/>
<feColorMatrix in="SourceAlpha" type="matrix" values="0 0 0 0 0 0 0 0 0 0 0 0 0 0 0 0 0 0 127 0" result="hardAlpha"/>
<feOffset dy="4"/>
<feGaussianBlur stdDeviation="3.5"/>
<feComposite in2="hardAlpha" operator="out"/>
<feColorMatrix type="matrix" values="0 0 0 0 0 0 0 0 0 0 0 0 0 0 0 0 0 0 0.15 0"/>
<feBlend mode="normal" in2="BackgroundImageFix" result="effect1_dropShadow"/>
<feBlend mode="normal" in="SourceGraphic" in2="effect1_dropShadow" result="shape"/>
</filter>
</defs>
</svg>
