<svg width="103" height="93" viewBox="0 0 103 93" fill="none" xmlns="http://www.w3.org/2000/svg">
<circle cx="50.4445" cy="54.5011" r="30.1639" stroke="url(#paint0_linear)" stroke-width="3" stroke-dasharray="12 4"/>
<circle cx="50.4426" cy="54.5007" r="21.1821" fill="#FFE6EC"/>
<circle cx="22.5" cy="70.5" r="22.5" fill="#FD3E72"/>
<circle cx="22.5" cy="70.5" r="20.5" fill="white"/>
<ellipse cx="22.5" cy="71" rx="14.5" ry="14" fill="#FFEDF2"/>
<path d="M15.812 79.6954L14.8071 79.3763L15.7476 76.4143L18.4675 75.3462L18.8529 76.3276L16.6005 77.2121L15.812 79.6954Z" fill="#333333"/>
<path d="M17.9145 70.6784L15.7476 69.8275L14.8071 66.8655L15.812 66.5464L16.6005 69.0297L18.2999 69.697L17.9145 70.6784Z" fill="#333333"/>
<path d="M14.4662 75.0109L13.7121 74.274L15.7864 72.1514H18.1071V73.2057H16.2303L14.4662 75.0109Z" fill="#333333"/>
<path d="M29.5839 79.6954L28.7954 77.2121L26.543 76.3276L26.9284 75.3462L29.6484 76.4143L30.5889 79.3763L29.5839 79.6954Z" fill="#1A1A1A"/>
<path d="M27.4837 70.6784L27.0983 69.697L28.7977 69.0297L29.5862 66.5464L30.5912 66.8655L29.6506 69.8275L27.4837 70.6784Z" fill="#1A1A1A"/>
<path d="M30.9295 75.0109L29.1654 73.2057H27.2886V72.1514H29.6093L31.6836 74.274L30.9295 75.0109Z" fill="#1A1A1A"/>
<path d="M21.8717 65.0632H20.8174V64.2931C20.8174 63.9547 20.5421 63.6794 20.2037 63.6794V62.625C21.1235 62.625 21.8717 63.3733 21.8717 64.2931V65.0632Z" fill="#333333"/>
<path d="M24.582 65.0632H23.5276V64.2931C23.5276 63.3733 24.2759 62.625 25.1957 62.625V63.6794C24.8573 63.6794 24.582 63.9547 24.582 64.2931V65.0632Z" fill="#1A1A1A"/>
<path d="M22.7 78.6725C20.0025 78.6725 17.8157 76.4857 17.8157 73.7882V68.9039H27.5843V73.7882C27.5844 76.4857 25.3976 78.6725 22.7 78.6725Z" fill="#E83163"/>
<path d="M22.7012 78.6725C22.7012 76.5611 22.7012 68.9039 22.7012 68.9039H27.5855V73.7882C27.5855 76.4858 25.3987 78.6725 22.7012 78.6725Z" fill="#D32454"/>
<path d="M22.701 64.2974C20.7963 64.2974 19.2521 65.8415 19.2521 67.7462V69.6632H26.1499V67.7462C26.1499 65.8415 24.6058 64.2974 22.701 64.2974Z" fill="#4D4D4D"/>
<path d="M22.7012 64.2974C22.7012 65.5926 22.7012 69.6632 22.7012 69.6632H26.1501V67.7462C26.1501 65.8415 24.606 64.2974 22.7012 64.2974Z" fill="#333333"/>
<path d="M27.5843 68.9039H17.8157L22.7 72.8648L27.5843 68.9039Z" fill="#EF4E7A"/>
<path d="M27.5855 68.9039H22.7012V72.8648L27.5855 68.9039Z" fill="#BC1442"/>
<ellipse cx="51" cy="22.5" rx="23" ry="22.5" fill="#FD3E72"/>
<ellipse cx="51" cy="22.5" rx="21" ry="20.5" fill="white"/>
<ellipse cx="51.098" cy="34.0142" rx="8.88046" ry="1.80009" fill="#FFBFD2"/>
<path fill-rule="evenodd" clip-rule="evenodd" d="M58.1802 16.1927C58.1802 16.2418 58.1797 16.2907 58.1786 16.3395C58.1394 19.6563 56.773 22.0971 55.1585 24.981L55.1585 24.981C53.7829 27.4383 52.2273 30.2171 51.1592 34.1336C50.091 30.2171 48.5354 27.4383 47.1598 24.981C45.5216 22.0548 44.1388 19.5847 44.1388 16.1927H44.1394C44.1395 12.3155 47.2826 9.17236 51.1598 9.17236C55.037 9.17236 58.1802 12.3155 58.1802 16.1927ZM51.1595 20.0931C53.3136 20.0931 55.0597 18.3469 55.0597 16.1929C55.0597 14.0388 53.3136 12.2927 51.1595 12.2927C49.0055 12.2927 47.2593 14.0388 47.2593 16.1929C47.2593 18.3469 49.0055 20.0931 51.1595 20.0931Z" fill="#FD3E72"/>
<circle cx="69" cy="8" r="6.25" fill="white" stroke="#FD3E72" stroke-width="1.5"/>
<path d="M67.1345 6.13306L70.8679 9.86639" stroke="#FD3E72" stroke-width="1.5" stroke-linecap="round"/>
<path d="M70.8655 6.13306L67.1321 9.86639" stroke="#FD3E72" stroke-width="1.5" stroke-linecap="round"/>
<circle cx="40" cy="58" r="6.25" fill="white" stroke="#FD3E72" stroke-width="1.5"/>
<path d="M38.1345 56.1331L41.8679 59.8664" stroke="#FD3E72" stroke-width="1.5" stroke-linecap="round"/>
<path d="M41.8655 56.1331L38.1321 59.8664" stroke="#FD3E72" stroke-width="1.5" stroke-linecap="round"/>
<circle cx="77.5" cy="70.5" r="22.5" fill="#FD3E72"/>
<circle cx="77.5" cy="70.5" r="20.5" fill="white"/>
<g filter="url(#filter0_d)">
<path d="M87.4215 58.6474L91.4163 73.5562C91.6122 74.287 90.4428 74.6003 90.247 73.8695L86.2522 58.9607C86.0564 58.2299 87.2257 57.9165 87.4215 58.6474Z" fill="#E73465"/>
<path d="M71.1717 66.9961C77.4372 65.239 85.3874 62.1687 86.2511 58.9608L90.2459 73.8696C86.5785 71.8758 79.8927 72.649 73.1691 74.4505L72.1704 70.7233L71.1717 66.9961Z" fill="#FD3E72"/>
<path d="M63.4659 69.8043L70.7742 67.846C71.0665 67.7677 71.4156 67.9011 71.4723 68.1128L72.8903 73.4049C72.9471 73.6166 72.7114 73.9066 72.4191 73.985L65.1109 75.9432C64.8185 76.0215 64.4695 75.8882 64.4128 75.6765L62.9947 70.3843C62.938 70.1726 63.1736 69.8826 63.4659 69.8043Z" fill="#FD3E72"/>
<path d="M69.3589 75.4322L73.1592 74.4139L73.2068 81.6075C73.1781 82.0851 73.0711 82.2705 72.6326 82.388L70.0017 83.0929C69.7093 83.1713 69.3778 83.1034 69.4065 82.6258L69.3589 75.4322Z" fill="#FD3E72"/>
<path d="M65.7731 67.8947L73.0814 65.9365C73.3737 65.8582 73.7444 66.0722 73.8227 66.3645L75.7809 73.6727C75.8593 73.9651 75.6453 74.3357 75.3529 74.4141L68.0447 76.3723C67.7524 76.4506 67.3817 76.2366 67.3034 75.9443L65.3451 68.6361C65.2668 68.3437 65.4808 67.9731 65.7731 67.8947Z" fill="#5B5863"/>
</g>
<circle cx="96" cy="58" r="6.25" fill="white" stroke="#FD3E72" stroke-width="1.5"/>
<path d="M94.1345 56.1331L97.8679 59.8664" stroke="#FD3E72" stroke-width="1.5" stroke-linecap="round"/>
<path d="M97.8655 56.1331L94.1321 59.8664" stroke="#FD3E72" stroke-width="1.5" stroke-linecap="round"/>
<defs>
<filter id="filter0_d" x="58.8813" y="57.0992" width="36.6819" height="33.1216" filterUnits="userSpaceOnUse" color-interpolation-filters="sRGB">
<feFlood flood-opacity="0" result="BackgroundImageFix"/>
<feColorMatrix in="SourceAlpha" type="matrix" values="0 0 0 0 0 0 0 0 0 0 0 0 0 0 0 0 0 0 127 0"/>
<feOffset dy="3"/>
<feGaussianBlur stdDeviation="2"/>
<feColorMatrix type="matrix" values="0 0 0 0 0.811765 0 0 0 0 0.835294 0 0 0 0 0.890196 0 0 0 0.8 0"/>
<feBlend mode="normal" in2="BackgroundImageFix" result="effect1_dropShadow"/>
<feBlend mode="normal" in="SourceGraphic" in2="effect1_dropShadow" result="shape"/>
</filter>
<linearGradient id="paint0_linear" x1="2.99933" y1="13.5002" x2="98.4993" y2="103" gradientUnits="userSpaceOnUse">
<stop stop-color="#FE6556"/>
<stop offset="0.380208" stop-color="#FD3E72"/>
<stop offset="1" stop-color="#49A8FF"/>
</linearGradient>
</defs>
</svg>
