<svg width="102" height="65" viewBox="0 0 102 65" fill="none" xmlns="http://www.w3.org/2000/svg">
<path d="M17.9299 59.4956H25.6903M30.8639 59.4956H71.6058C76.1327 59.4956 76.1327 53.0286 71.6058 53.0286H38.6243C34.0974 53.0286 34.0974 46.5616 38.6243 46.5616H76.1327M81.3063 46.5616H87.7733" stroke="#5B5863" stroke-width="2" stroke-linecap="round"/>
<path fill-rule="evenodd" clip-rule="evenodd" d="M18.1602 28.7039C18.1602 28.745 18.1599 28.7861 18.1594 28.8272C18.126 33.1508 16.3513 36.321 14.2525 40.0701C12.4733 43.2483 10.4612 46.8424 9.07973 51.908C7.69823 46.8424 5.68614 43.2483 3.90694 40.0701C1.78815 36.2853 -0.000366211 33.0905 -0.000366211 28.7033H-2.3607e-05C0.000301597 23.6888 4.06548 19.6238 9.08008 19.6238C14.0949 19.6238 18.1602 23.6891 18.1602 28.7039ZM9.08239 33.7472C11.8684 33.7472 14.1269 31.4887 14.1269 28.7027C14.1269 25.9167 11.8684 23.6582 9.08239 23.6582C6.29639 23.6582 4.03789 25.9167 4.03789 28.7027C4.03789 31.4887 6.29639 33.7472 9.08239 33.7472Z" fill="#FD3E72"/>
<circle cx="8.87402" cy="59.496" r="5.17358" fill="#5B5863"/>
<circle cx="8.87439" cy="59.496" r="2.58679" fill="white"/>
<circle cx="96.826" cy="46.562" r="5.17358" fill="#5B5863"/>
<circle cx="96.8273" cy="46.5625" r="2.58679" fill="white"/>
<rect x="25.6888" width="60.7896" height="38.8019" rx="5" fill="url(#paint0_linear)"/>
<path d="M64.4907 18.7545L51.8801 26.0352L51.8801 11.4737L64.4907 18.7545Z" fill="white"/>
<defs>
<linearGradient id="paint0_linear" x1="13.5013" y1="-7.50001" x2="135.501" y2="65.5" gradientUnits="userSpaceOnUse">
<stop stop-color="#FE6556"/>
<stop offset="0.395833" stop-color="#FD3E72"/>
<stop offset="1" stop-color="#49A8FF"/>
</linearGradient>
</defs>
</svg>
