<svg width="143" height="36" viewBox="0 0 143 36" fill="none" xmlns="http://www.w3.org/2000/svg">
<path d="M46.8046 26.9753H40.0696L38.4523 31.7446H35.5996L41.9788 14.0996H44.9426L51.3218 31.7446H48.4205L46.8046 26.9753ZM40.7672 24.7746H46.1057L43.474 17.0345H43.4003L40.7672 24.7746ZM65.0988 25.313C65.0988 29.3107 62.9561 31.8792 59.7228 31.8792C58.0515 31.9665 56.4772 31.0923 55.6696 29.6284H55.6084V36.0004H52.9642V18.88H55.5237V21.0197H55.5723C56.4158 19.565 57.9918 18.6912 59.6741 18.7454C62.9436 18.7454 65.0988 21.3264 65.0988 25.313ZM62.3809 25.313C62.3809 22.7084 61.0331 20.9961 58.9766 20.9961C56.9563 20.9961 55.5973 22.7445 55.5973 25.313C55.5973 27.9051 56.9563 29.641 58.9766 29.641C61.0331 29.641 62.3809 27.9411 62.3809 25.313ZM79.2772 25.313C79.2772 29.3107 77.1346 31.8792 73.9013 31.8792C72.2299 31.9665 70.6557 31.0923 69.8481 29.6284H69.7869V36.0004H67.1427V18.88H69.7021V21.0197H69.7508C70.5942 19.565 72.1702 18.6912 73.8526 18.7454C77.1221 18.7454 79.2772 21.3264 79.2772 25.313ZM76.5594 25.313C76.5594 22.7084 75.2115 20.9961 73.1551 20.9961C71.1347 20.9961 69.7758 22.7445 69.7758 25.313C69.7758 27.9051 71.1347 29.641 73.1551 29.641C75.2116 29.641 76.5594 27.9411 76.5594 25.313H76.5594ZM88.6481 26.8283C88.844 28.578 90.5461 29.7269 92.8721 29.7269C95.1009 29.7269 96.7044 28.578 96.7044 27.0003C96.7044 25.6307 95.7373 24.8106 93.4474 24.2486L91.1575 23.6977C87.913 22.9151 86.4068 21.3998 86.4068 18.941C86.4068 15.8965 89.0635 13.8054 92.836 13.8054C96.5696 13.8054 99.1291 15.8965 99.2152 18.941H96.546C96.3862 17.1801 94.9286 16.1172 92.7985 16.1172C90.6684 16.1172 89.2108 17.1926 89.2108 18.7578C89.2108 20.0053 90.1417 20.7393 92.4191 21.3013L94.3658 21.7786C97.991 22.6348 99.4973 24.089 99.4973 26.67C99.4973 29.9711 96.8642 32.0386 92.6762 32.0386C88.7578 32.0386 86.1122 30.0197 85.9413 26.8281L88.6481 26.8283ZM105.204 15.8356V18.88H107.654V20.9711H105.204V28.0632C105.204 29.165 105.694 29.6784 106.771 29.6784C107.062 29.6734 107.353 29.653 107.641 29.6173V31.696C107.157 31.7863 106.665 31.8272 106.172 31.8181C103.564 31.8181 102.547 30.8398 102.547 28.3449V20.9711H100.674V18.88H102.547V15.8356H105.204ZM109.072 25.313C109.072 21.2653 111.46 18.7218 115.182 18.7218C118.917 18.7218 121.293 21.2653 121.293 25.313C121.293 29.3718 118.93 31.9042 115.182 31.9042C111.436 31.9042 109.072 29.3718 109.072 25.313ZM118.599 25.313C118.599 22.5364 117.325 20.8976 115.182 20.8976C113.039 20.8976 111.767 22.5489 111.767 25.313C111.767 28.1007 113.039 29.727 115.182 29.727C117.325 29.727 118.599 28.1007 118.599 25.313H118.599ZM123.473 18.88H125.995V21.0696H126.056C126.408 19.6601 127.701 18.6899 129.155 18.7454C129.46 18.7443 129.764 18.7774 130.061 18.8439V21.3139C129.676 21.1965 129.275 21.1426 128.873 21.1543C128.095 21.1228 127.343 21.4322 126.813 22.0012C126.284 22.5703 126.029 23.3421 126.117 24.1141V31.7446H123.473L123.473 18.88ZM142.252 27.9661C141.897 30.3015 139.619 31.9041 136.705 31.9041C132.958 31.9041 130.632 29.3967 130.632 25.374C130.632 21.3388 132.97 18.7218 136.594 18.7218C140.158 18.7218 142.4 21.1668 142.4 25.0674V25.9721H133.301V26.1317C133.216 27.0894 133.547 28.0374 134.21 28.7346C134.873 29.4318 135.804 29.8109 136.767 29.7755C138.05 29.8956 139.26 29.1598 139.741 27.9661L142.252 27.9661ZM133.314 24.1266L139.754 24.1266C139.802 23.266 139.488 22.4244 138.888 21.8046C138.289 21.1848 137.457 20.843 136.594 20.8615C135.725 20.8563 134.889 21.1983 134.273 21.8114C133.657 22.4245 133.311 23.258 133.314 24.1266ZM40.4358 0.818141C41.5583 0.737694 42.6578 1.1642 43.4317 1.98027C44.2055 2.79634 44.5721 3.91595 44.4306 5.03094C44.4306 7.73957 42.9647 9.29654 40.4358 9.29654H37.3691V0.818141H40.4358ZM38.6878 8.09751H40.2885C41.0907 8.1454 41.8718 7.82975 42.415 7.23821C42.9581 6.64667 43.2055 5.84222 43.0883 5.04822C43.1969 4.25751 42.9461 3.4597 42.4043 2.87298C41.8625 2.28627 41.0864 1.97205 40.2885 2.01627H38.6878V8.09751ZM45.9201 6.0945C45.8103 4.94765 46.3609 3.83775 47.3412 3.23029C48.3214 2.62283 49.5618 2.62283 50.542 3.23029C51.5223 3.83775 52.0729 4.94765 51.9631 6.0945C52.075 7.24258 51.5249 8.35463 50.5438 8.9634C49.5626 9.57217 48.3206 9.57217 47.3395 8.9634C46.3583 8.35463 45.8082 7.24258 45.9201 6.0945ZM50.6625 6.0945C50.6625 4.70758 50.0386 3.89652 48.9437 3.89652C47.8446 3.89652 47.2263 4.70758 47.2263 6.09451C47.2263 7.49254 47.8446 8.29735 48.9437 8.29735C50.0386 8.29734 50.6625 7.48697 50.6625 6.0945H50.6625ZM59.9958 9.29641H58.6841L57.3599 4.58406H57.2599L55.9412 9.29641H54.6421L52.876 2.89811H54.1585L55.3062 7.78039H55.4007L56.718 2.89811H57.931L59.2483 7.78039H59.3483L60.4905 2.89811H61.7549L59.9958 9.29641ZM63.2403 2.89811H64.4575V3.91454H64.552C64.8806 3.16618 65.6484 2.7084 66.4639 2.77461C67.0954 2.72719 67.7142 2.96911 68.1457 3.43207C68.5771 3.89502 68.7743 4.52876 68.6816 5.15436V9.29634H67.4171V5.47145C67.4171 4.44323 66.9697 3.93189 66.0346 3.93189C65.6063 3.91196 65.1906 4.07984 64.8965 4.39149C64.6025 4.70315 64.4594 5.12751 64.5047 5.55331V9.29641H63.2403L63.2403 2.89811ZM70.6964 0.400391H71.9608V9.2964H70.6964V0.400391ZM73.7185 6.0945C73.6088 4.94758 74.1595 3.83765 75.1398 3.23018C76.1202 2.6227 77.3606 2.6227 78.3409 3.23018C79.3212 3.83765 79.872 4.94758 79.7622 6.0945C79.874 7.24262 79.3237 8.35464 78.3426 8.96338C77.3614 9.57213 76.1193 9.57213 75.1382 8.96338C74.157 8.35464 73.6067 7.24262 73.7185 6.0945ZM78.4609 6.0945C78.4609 4.70758 77.837 3.89652 76.7421 3.89652C75.643 3.89652 75.0247 4.70758 75.0247 6.09451C75.0247 7.49254 75.643 8.29735 76.7421 8.29735C77.837 8.29734 78.4609 7.48697 78.4609 6.0945H78.4609ZM81.0933 7.48697C81.0933 6.33524 81.952 5.67128 83.4763 5.57691L85.2118 5.47701V4.92474C85.2118 4.24897 84.7644 3.86738 83.9001 3.86738C83.1943 3.86738 82.7052 4.12617 82.5648 4.57853H81.3407C81.4699 3.47954 82.5051 2.77463 83.9585 2.77463C85.5648 2.77463 86.4707 3.57319 86.4707 4.92474V9.29643H85.2535V8.39725H85.1535C84.7401 9.0539 84.0049 9.43767 83.229 9.40184C82.6851 9.45834 82.1426 9.28243 81.7357 8.9176C81.3288 8.55277 81.0955 8.03306 81.0933 7.48697ZM85.2118 6.94024V6.40532L83.6472 6.50523C82.7649 6.5642 82.3647 6.86393 82.3647 7.42799C82.3647 8.00384 82.8649 8.33895 83.5528 8.33895C83.96 8.38012 84.3665 8.25449 84.6792 7.99082C84.992 7.72716 85.1842 7.34803 85.2118 6.94024ZM88.1325 6.0945C88.1325 4.07274 89.1733 2.79197 90.792 2.79197C91.6094 2.75436 92.375 3.19175 92.7568 3.91449H92.8513V0.400391H94.1157V9.2964H92.9041V8.28551H92.8041C92.3934 9.00226 91.6184 9.43226 90.7921 9.40184C89.1622 9.40192 88.1325 8.12111 88.1325 6.0945ZM89.4387 6.0945C89.4387 7.45159 90.0793 8.26821 91.1506 8.26821C92.2163 8.26821 92.875 7.43981 92.875 6.10005C92.875 4.76655 92.2094 3.92635 91.1506 3.92635C90.0862 3.92635 89.4387 4.7485 89.4387 6.0945H89.4387ZM99.3472 6.0945C99.2374 4.94765 99.788 3.83775 100.768 3.23029C101.749 2.62283 102.989 2.62283 103.969 3.23029C104.949 3.83775 105.5 4.94765 105.39 6.0945C105.502 7.24258 104.952 8.35463 103.971 8.9634C102.99 9.57217 101.748 9.57217 100.767 8.9634C99.7854 8.35463 99.2353 7.24258 99.3472 6.0945ZM104.09 6.0945C104.09 4.70758 103.466 3.89652 102.371 3.89652C101.272 3.89652 100.653 4.70758 100.653 6.09451C100.653 7.49254 101.272 8.29735 102.371 8.29735C103.466 8.29734 104.09 7.48697 104.09 6.0945ZM107.087 2.89811H108.304V3.91454H108.398C108.727 3.16618 109.495 2.7084 110.31 2.77461C110.942 2.72719 111.561 2.96911 111.992 3.43207C112.424 3.89502 112.621 4.52876 112.528 5.15436V9.29634H111.264V5.47145C111.264 4.44323 110.816 3.93189 109.881 3.93189C109.453 3.91196 109.037 4.07984 108.743 4.39149C108.449 4.70315 108.306 5.12751 108.351 5.55331V9.29641H107.087V2.89811ZM119.673 1.30513V2.92725H121.061V3.99087H119.673V7.28091C119.673 7.95113 119.949 8.24461 120.579 8.24461C120.74 8.24409 120.901 8.23436 121.061 8.21546V9.26727C120.834 9.30784 120.604 9.32942 120.373 9.33179C118.967 9.33179 118.407 8.8378 118.407 7.60421V3.99081H117.39V2.9272H118.407V1.30513H119.673ZM122.788 0.400391H124.041V3.92633H124.142C124.486 3.17142 125.267 2.71306 126.095 2.78016C126.723 2.74604 127.333 2.99329 127.76 3.45456C128.187 3.91584 128.385 4.54309 128.302 5.16547V9.29641H127.036V5.47698C127.036 4.455 126.559 3.93741 125.666 3.93741C125.226 3.90139 124.793 4.06109 124.482 4.37384C124.171 4.68659 124.014 5.12049 124.053 5.55954V9.29638H122.788L122.788 0.400391ZM135.674 7.56883C135.32 8.77573 134.15 9.55552 132.898 9.4199C132.044 9.44243 131.223 9.08879 130.653 8.45282C130.083 7.81685 129.822 6.96284 129.939 6.11739C129.825 5.26958 130.085 4.41421 130.652 3.77287C131.219 3.13153 132.036 2.76733 132.893 2.77462C134.675 2.77462 135.751 3.99093 135.751 6.00011V6.44072H131.227V6.51148C131.187 6.98627 131.349 7.45589 131.674 7.80486C131.999 8.15383 132.456 8.34976 132.933 8.34447C133.552 8.41863 134.154 8.11219 134.457 7.56879L135.674 7.56883ZM131.227 5.50683H134.463C134.495 5.0726 134.342 4.64497 134.042 4.32932C133.741 4.01367 133.322 3.83935 132.886 3.84933C132.444 3.84379 132.019 4.01666 131.706 4.32873C131.394 4.64081 131.221 5.06563 131.227 5.50683H131.227Z" fill="white"/>
<path fill-rule="evenodd" clip-rule="evenodd" d="M21.4089 17.0606C21.4118 19.8218 23.0748 22.3138 25.6324 23.3894C25.1405 24.9783 24.3991 26.4799 23.4355 27.8385C22.1416 29.7632 20.7848 31.6437 18.6315 31.6784C16.5391 31.7264 15.836 30.454 13.4361 30.454C11.0137 30.454 10.2643 31.6437 8.25748 31.7264C6.20673 31.802 4.63946 29.6721 3.29844 27.7654C0.618117 23.8715 -1.469 16.7919 1.32908 11.9747C2.64302 9.62682 5.09975 8.13697 7.80042 8.05021C9.85302 8.00822 11.7592 9.42864 13.0211 9.42864C14.2592 9.42864 16.6145 7.72947 19.044 7.98304C21.3532 8.05489 23.4931 9.20528 24.8183 11.0872C22.7272 12.3655 21.4405 14.6199 21.4089 17.0606ZM17.4568 5.42217C16.3177 6.83099 14.5917 7.64247 12.7739 7.62385C12.6583 5.85743 13.2535 4.11775 14.4286 2.78799C15.6185 1.44022 17.2755 0.587732 19.0693 0.400391C19.2093 2.21918 18.6309 4.02063 17.4568 5.42217Z" fill="white"/>
</svg>
