<svg width="98" height="118" viewBox="0 0 98 118" fill="none" xmlns="http://www.w3.org/2000/svg">
<g filter="url(#filter0_d)">
<g filter="url(#filter1_d)">
<path d="M88 32.4125C88 32.4125 82.301 78.0315 72.9373 88.2959C61.6791 100.61 53.5266 98.4161 49 104.767C44.4618 98.4083 36.3015 100.61 25.0511 88.2882C15.6873 78.0238 10 32.4047 10 32.4047C27.7351 13.8874 49 7 49 7C49.427 7.43092 70.0927 14.5762 88 32.4125Z" fill="url(#paint0_linear)"/>
</g>
<mask id="mask0" mask-type="alpha" maskUnits="userSpaceOnUse" x="49" y="7" width="39" height="98">
<rect x="49" y="7" width="39" height="98" fill="#C4C4C4"/>
</mask>
<g mask="url(#mask0)">
<path opacity="0.1" d="M88 32.4125C88 32.4125 82.301 78.0315 72.9373 88.2959C61.6791 100.61 53.5266 98.4161 49 104.767C44.4618 98.4083 36.3015 100.61 25.0511 88.2882C15.6873 78.0238 10 32.4047 10 32.4047C27.7351 13.8874 49 7 49 7C49.427 7.43092 70.0927 14.5762 88 32.4125Z" fill="#070707"/>
</g>
<path d="M81.9801 36.0894C81.9801 36.0894 77.1662 74.6235 69.2583 83.3001C59.7548 93.7159 52.8562 92.1863 49.0207 97.5515C45.1851 92.1863 38.2905 93.7159 28.7831 83.3001C20.8752 74.6235 16.073 36.0894 16.073 36.0894C33.2784 18.1054 49.0207 14.6289 49.0207 14.6289C49.0207 14.6289 66.6824 19.8273 81.9801 36.0894Z" fill="#FFF4F7"/>
<mask id="mask1" mask-type="alpha" maskUnits="userSpaceOnUse" x="49" y="14" width="33" height="84">
<rect x="49" y="14" width="33" height="84" fill="#C4C4C4"/>
</mask>
<g mask="url(#mask1)">
<path d="M81.9801 36.0894C81.9801 36.0894 77.1662 74.6235 69.2583 83.3001C59.7548 93.7159 52.8562 92.1863 49.0207 97.5515C45.1851 92.1863 38.2905 93.7159 28.7831 83.3001C20.8752 74.6235 16.073 36.0894 16.073 36.0894C33.2784 18.1054 49.0207 14.6289 49.0207 14.6289C49.0207 14.6289 66.6824 19.8273 81.9801 36.0894Z" fill="#FFE2EA"/>
</g>
</g>
<g clip-path="url(#clip0)">
<path d="M52.7042 61.298C50.6617 59.2555 47.3383 59.2555 45.2958 61.298C43.2533 63.3405 43.2533 66.6639 45.2958 68.7064C46.3171 69.7276 47.6585 70.2383 49 70.2383C50.3414 70.2383 51.6829 69.7276 52.7041 68.7064C54.7467 66.6639 54.7467 63.3405 52.7042 61.298Z" fill="#5B5863"/>
<path d="M61.1054 53.4402C54.4305 46.7654 43.5696 46.7654 36.8947 53.4402C36.668 53.6669 36.5406 53.9744 36.5406 54.295C36.5406 54.6157 36.668 54.9232 36.8947 55.1499L40.5838 58.8389C40.8105 59.0657 41.118 59.1931 41.4386 59.1931C41.7593 59.1931 42.0668 59.0657 42.2935 58.8389C44.0817 57.0508 46.4634 56.0661 48.9999 56.0661C51.5365 56.0661 53.9183 57.0508 55.7064 58.8389C55.9331 59.0657 56.2406 59.1931 56.5613 59.1931C56.882 59.1931 57.1895 59.0657 57.4162 58.8389L61.1052 55.1499C61.3319 54.9232 61.4594 54.6157 61.4594 54.295C61.4595 53.9743 61.3321 53.6669 61.1054 53.4402Z" fill="#FD3E72"/>
<path d="M68.6459 45.8998C63.3984 40.6522 56.4213 37.7622 49 37.7622C41.5787 37.7622 34.6017 40.6522 29.3541 45.8998C28.882 46.372 28.882 47.1375 29.3541 47.6097L33.0432 51.2987C33.5153 51.7709 34.2808 51.7709 34.753 51.2987C42.6089 43.443 55.3912 43.443 63.247 51.2987C63.4831 51.5348 63.7925 51.6529 64.1018 51.6529C64.4112 51.6529 64.7206 51.5349 64.9566 51.2987L68.6457 47.6097C69.118 47.1375 69.118 46.372 68.6459 45.8998Z" fill="#FD3E72"/>
</g>
<defs>
<filter id="filter0_d" x="0" y="0" width="98" height="117.767" filterUnits="userSpaceOnUse" color-interpolation-filters="sRGB">
<feFlood flood-opacity="0" result="BackgroundImageFix"/>
<feColorMatrix in="SourceAlpha" type="matrix" values="0 0 0 0 0 0 0 0 0 0 0 0 0 0 0 0 0 0 127 0"/>
<feOffset dy="3"/>
<feGaussianBlur stdDeviation="5"/>
<feColorMatrix type="matrix" values="0 0 0 0 0 0 0 0 0 0 0 0 0 0 0 0 0 0 0.1 0"/>
<feBlend mode="normal" in2="BackgroundImageFix" result="effect1_dropShadow"/>
<feBlend mode="normal" in="SourceGraphic" in2="effect1_dropShadow" result="shape"/>
</filter>
<filter id="filter1_d" x="4" y="5" width="90" height="109.767" filterUnits="userSpaceOnUse" color-interpolation-filters="sRGB">
<feFlood flood-opacity="0" result="BackgroundImageFix"/>
<feColorMatrix in="SourceAlpha" type="matrix" values="0 0 0 0 0 0 0 0 0 0 0 0 0 0 0 0 0 0 127 0"/>
<feOffset dy="4"/>
<feGaussianBlur stdDeviation="3"/>
<feColorMatrix type="matrix" values="0 0 0 0 0 0 0 0 0 0 0 0 0 0 0 0 0 0 0.1 0"/>
<feBlend mode="normal" in2="BackgroundImageFix" result="effect1_dropShadow"/>
<feBlend mode="normal" in="SourceGraphic" in2="effect1_dropShadow" result="shape"/>
</filter>
<linearGradient id="paint0_linear" x1="-20.5" y1="-11.5" x2="136" y2="128.5" gradientUnits="userSpaceOnUse">
<stop stop-color="#FE6556"/>
<stop offset="0.479167" stop-color="#FD3E72"/>
<stop offset="1" stop-color="#49A8FF"/>
</linearGradient>
<clipPath id="clip0">
<rect width="40" height="40" fill="white" transform="translate(29 34)"/>
</clipPath>
</defs>
</svg>
