<svg width="36" height="35" viewBox="0 0 36 35" fill="none" xmlns="http://www.w3.org/2000/svg">
<path d="M17.9688 35C27.6337 35 35.4688 27.165 35.4688 17.5C35.4688 7.83502 27.6337 0 17.9688 0C8.30377 0 0.46875 7.83502 0.46875 17.5C0.46875 27.165 8.30377 35 17.9688 35Z" fill="#8DC351"/>
<path d="M23.6563 11.4844C22.7813 9.29688 20.7031 9.1875 18.1875 9.625L17.3125 6.5625L15.4531 7.10938L16.3281 10.0625C15.8906 10.1719 15.3438 10.3906 14.7969 10.5L13.9219 7.4375L12.0625 7.98438L12.9375 11.0469C12.5 11.1563 12.1719 11.2656 11.7344 11.375L9.21875 12.25L9.76563 14.2188C9.76563 14.2188 11.1875 13.7813 11.0781 13.7813C11.8438 13.5625 12.1719 13.8906 12.3906 14.3281L13.375 17.8281C13.375 17.8281 13.4844 17.8281 13.5938 17.8281L13.375 17.9375L14.7969 22.8594C14.7969 23.0781 14.7969 23.5156 14.25 23.7344L12.9375 24.1719L13.1563 26.4688L15.5625 25.8125C16 25.7031 16.4375 25.5938 16.875 25.4844L17.75 28.5469L19.6094 28L18.7344 24.9375C19.2813 24.8281 19.7188 24.7188 20.2656 24.5L21.1406 27.5625L23 27.0156L22.125 23.9531C25.1875 22.8594 27.1563 21.4375 26.6094 18.375C26.1719 15.9687 24.75 15.2031 22.7813 15.3125C23.875 14.2188 24.3125 13.125 23.6563 11.4844ZM23 18.9219C23.6563 21.2187 19.6094 22.0938 18.2969 22.5312L17.0938 18.375C18.4063 18.0469 22.2344 16.5156 23 18.9219ZM20.375 13.3438C21.0313 15.4219 17.6406 16.1875 16.5469 16.5156L15.4531 12.7969C16.5469 12.4688 19.8281 11.1562 20.375 13.3438Z" fill="white"/>
</svg>
