<svg width="36" height="35" viewBox="0 0 36 35" fill="none" xmlns="http://www.w3.org/2000/svg">
<path d="M17.9688 35C27.6337 35 35.4688 27.165 35.4688 17.5C35.4688 7.83502 27.6337 0 17.9688 0C8.30377 0 0.46875 7.83502 0.46875 17.5C0.46875 27.165 8.30377 35 17.9688 35Z" fill="black"/>
<path d="M17.9691 33.4672C26.7865 33.4672 33.9343 26.3193 33.9343 17.502C33.9343 8.68461 26.7865 1.53674 17.9691 1.53674C9.15178 1.53674 2.00391 8.68461 2.00391 17.502C2.00391 26.3193 9.15178 33.4672 17.9691 33.4672Z" fill="black" stroke="white"/>
<path fill-rule="evenodd" clip-rule="evenodd" d="M17.8867 21.0623H23.7474L17.8882 10.9101V10.9113V4.75781L29.3712 24.3292H17.8867V21.0623Z" fill="#0B76FF"/>
<path fill-rule="evenodd" clip-rule="evenodd" d="M17.8852 21.0623L17.8859 24.3292H6.40039L17.8837 4.75781L17.8844 10.9113L17.8837 10.9101L12.0245 21.0623H17.8852Z" fill="#24C1FF"/>
<path fill-rule="evenodd" clip-rule="evenodd" d="M17.8853 13.4313V19.8705L14.252 19.8772L17.8853 13.4313Z" fill="#39FFF2"/>
<path fill-rule="evenodd" clip-rule="evenodd" d="M17.8867 13.4313L21.5192 19.8772L17.8867 19.8705V13.4313Z" fill="#00E2C2"/>
<path fill-rule="evenodd" clip-rule="evenodd" d="M3.70508 11.4352L17.8861 17.2952V18.1151L3.70508 14.5994V11.4352Z" fill="url(#paint0_linear)"/>
<path fill-rule="evenodd" clip-rule="evenodd" d="M32.0669 8.98242L17.8867 17.2998V17.5247L32.0669 11.6741V8.98242Z" fill="url(#paint1_linear)"/>
<path fill-rule="evenodd" clip-rule="evenodd" d="M32.0558 17.0649L17.8867 18.1186V17.8855L32.0558 14.3691V17.0649Z" fill="url(#paint2_linear)"/>
<path fill-rule="evenodd" clip-rule="evenodd" d="M32.0669 11.7852L17.8867 17.5362V17.8839L32.0669 14.2506V11.7852Z" fill="url(#paint3_linear)"/>
<defs>
<linearGradient id="paint0_linear" x1="3.70508" y1="14.7751" x2="13.621" y2="14.7751" gradientUnits="userSpaceOnUse">
<stop stop-color="white" stop-opacity="0"/>
<stop offset="1" stop-color="white"/>
</linearGradient>
<linearGradient id="paint1_linear" x1="31.618" y1="11.6799" x2="22.4722" y2="12.4358" gradientUnits="userSpaceOnUse">
<stop stop-color="#FD76FD" stop-opacity="0"/>
<stop offset="1" stop-color="#FF51FF"/>
</linearGradient>
<linearGradient id="paint2_linear" x1="31.4816" y1="16.0351" x2="24.2669" y2="16.0351" gradientUnits="userSpaceOnUse">
<stop stop-color="#5300FF" stop-opacity="0"/>
<stop offset="1" stop-color="#9D6EFF"/>
</linearGradient>
<linearGradient id="paint3_linear" x1="31.6367" y1="13.9447" x2="24.6632" y2="16.0638" gradientUnits="userSpaceOnUse">
<stop stop-color="#AE60D6" stop-opacity="0"/>
<stop offset="1" stop-color="#AB38E6"/>
</linearGradient>
</defs>
</svg>
