<svg width="35" height="35" viewBox="0 0 35 35" fill="none" xmlns="http://www.w3.org/2000/svg">
<path d="M34.4722 21.7335C32.1348 31.1084 22.6396 36.8139 13.2635 34.4761C3.89123 32.1387 -1.81426 22.6429 0.524153 13.2685C2.86038 3.8924 12.3557 -1.81364 21.729 0.52368C31.1045 2.861 36.8095 12.3579 34.4722 21.7335Z" fill="#F7931A"/>
<path d="M25.2137 15.0067C25.5621 12.6781 23.7891 11.4263 21.3649 10.5913L22.1513 7.43694L20.2312 6.95843L19.4656 10.0296C18.9608 9.90386 18.4424 9.78519 17.9272 9.66762L18.6983 6.57617L16.7794 6.09766L15.9924 9.2509C15.5746 9.15575 15.1645 9.06169 14.7663 8.9627L14.7685 8.95286L12.1206 8.29169L11.6098 10.3425C11.6098 10.3425 13.0344 10.6689 13.0043 10.6892C13.782 10.8833 13.9225 11.3979 13.899 11.8059L13.0032 15.3993C13.0568 15.413 13.1263 15.4327 13.2028 15.4633C13.1389 15.4475 13.0705 15.43 13 15.413L11.7443 20.4469C11.6492 20.6832 11.408 21.0376 10.8644 20.903C10.8836 20.9309 9.46882 20.5547 9.46882 20.5547L8.51562 22.7525L11.0143 23.3754C11.4791 23.4919 11.9347 23.6139 12.3831 23.7287L11.5885 26.9191L13.5064 27.3976L14.2933 24.2411C14.8172 24.3833 15.3258 24.5146 15.8234 24.6381L15.0392 27.7799L16.9593 28.2584L17.7539 25.074C21.028 25.6936 23.49 25.4437 24.5263 22.4824C25.3614 20.098 24.4848 18.7227 22.7621 17.8258C24.0166 17.5365 24.9616 16.7113 25.2137 15.0067ZM20.8268 21.1584C20.2334 23.5428 16.2188 22.2538 14.9173 21.9306L15.9716 17.7039C17.2732 18.0287 21.4469 18.6718 20.8268 21.1584ZM21.4207 14.9722C20.8792 17.1411 17.5379 16.0392 16.454 15.769L17.4099 11.9355C18.4938 12.2056 21.9845 12.7098 21.4207 14.9722Z" fill="white"/>
</svg>
