<svg width="274" height="20" viewBox="0 0 274 20" fill="none" xmlns="http://www.w3.org/2000/svg">
<path d="M21.027 7.24994H29.1204V8.75661H25.9337V17.25H24.187V8.75661H21.0137L21.027 7.24994ZM28.7737 10.01H30.2671V11.41H30.2937C30.3471 11.21 30.4404 11.0233 30.5737 10.8366C30.7071 10.65 30.8671 10.4766 31.0671 10.33C31.2537 10.17 31.4671 10.05 31.7071 9.95662C31.9337 9.86328 32.1737 9.80995 32.4137 9.80995C32.6004 9.80995 32.7337 9.82328 32.8004 9.82328C32.8671 9.83662 32.9471 9.84995 33.0137 9.84995V11.3833C32.9071 11.3566 32.7871 11.3433 32.6671 11.33C32.5471 11.3166 32.4404 11.3033 32.3204 11.3033C32.0537 11.3033 31.8004 11.3566 31.5604 11.4633C31.3204 11.57 31.1204 11.73 30.9337 11.93C30.7604 12.1433 30.6137 12.3966 30.5071 12.7033C30.4004 13.01 30.3471 13.37 30.3471 13.77V17.21H28.747L28.7737 10.01ZM40.3471 17.25H38.7738V16.2366H38.7471C38.5471 16.61 38.2538 16.89 37.8671 17.1167C37.4804 17.3433 37.0804 17.45 36.6804 17.45C35.7337 17.45 35.0404 17.2233 34.6137 16.7433C34.1871 16.2766 33.9737 15.5566 33.9737 14.61V10.01H35.5737V14.45C35.5737 15.09 35.6937 15.5433 35.9471 15.7966C36.1871 16.0633 36.5337 16.1966 36.9738 16.1966C37.3071 16.1966 37.5871 16.1433 37.8138 16.0366C38.0404 15.93 38.2271 15.7966 38.3604 15.6233C38.5071 15.45 38.6004 15.2366 38.6671 14.9966C38.7338 14.7566 38.7604 14.49 38.7604 14.21V10.01H40.3604V17.25H40.3471ZM43.0671 14.93C43.1205 15.3966 43.2938 15.7166 43.6005 15.9166C43.9071 16.1033 44.2805 16.1966 44.7071 16.1966C44.8538 16.1966 45.0271 16.1833 45.2138 16.1566C45.4005 16.13 45.5871 16.09 45.7471 16.0233C45.9205 15.9566 46.0538 15.8633 46.1605 15.73C46.2671 15.5966 46.3205 15.4366 46.3071 15.2366C46.2938 15.0366 46.2271 14.8633 46.0805 14.73C45.9338 14.5966 45.7605 14.5033 45.5471 14.41C45.3338 14.33 45.0805 14.2633 44.8005 14.21C44.5205 14.1566 44.2405 14.09 43.9471 14.0233C43.6538 13.9566 43.3605 13.8766 43.0805 13.7833C42.8004 13.69 42.5604 13.57 42.3338 13.3966C42.1204 13.2366 41.9338 13.0366 41.8138 12.7833C41.6804 12.53 41.6138 12.2366 41.6138 11.8633C41.6138 11.4633 41.7071 11.1433 41.9071 10.8766C42.0938 10.61 42.3471 10.3966 42.6404 10.2366C42.9338 10.0766 43.2671 9.95662 43.6271 9.88995C43.9871 9.82328 44.3338 9.79662 44.6538 9.79662C45.0271 9.79662 45.3871 9.83662 45.7205 9.91662C46.0538 9.99662 46.3738 10.1166 46.6405 10.3033C46.9205 10.4766 47.1471 10.7166 47.3205 10.9966C47.5071 11.2766 47.6138 11.6233 47.6671 12.0233H46.0005C45.9205 11.6366 45.7471 11.3833 45.4805 11.25C45.2005 11.1166 44.8938 11.05 44.5338 11.05C44.4271 11.05 44.2805 11.0633 44.1338 11.0766C43.9738 11.1033 43.8405 11.13 43.6938 11.1833C43.5605 11.2366 43.4405 11.3166 43.3471 11.41C43.2538 11.5033 43.2005 11.6366 43.2005 11.7966C43.2005 11.9966 43.2671 12.1433 43.4005 12.2633C43.5338 12.3833 43.7071 12.4766 43.9338 12.57C44.1471 12.65 44.4005 12.7166 44.6805 12.77C44.9605 12.8233 45.2538 12.89 45.5471 12.9566C45.8405 13.0233 46.1205 13.1033 46.4005 13.1966C46.6805 13.29 46.9338 13.41 47.1471 13.5833C47.3605 13.7433 47.5471 13.9433 47.6805 14.1833C47.8138 14.4233 47.8805 14.73 47.8805 15.0766C47.8805 15.5033 47.7871 15.8633 47.5871 16.17C47.3871 16.4633 47.1338 16.7167 46.8271 16.9033C46.5205 17.09 46.1605 17.2233 45.7871 17.3167C45.4005 17.3967 45.0271 17.45 44.6538 17.45C44.2005 17.45 43.7738 17.3967 43.3871 17.29C43.0004 17.1833 42.6538 17.0233 42.3738 16.8233C42.0938 16.61 41.8671 16.3567 41.7071 16.0366C41.5471 15.73 41.4538 15.3566 41.4404 14.9166H43.0538V14.93H43.0671ZM48.3338 10.01H49.5471V7.82327H51.1472V9.99662H52.5872V11.1833H51.1472V15.05C51.1472 15.2233 51.1605 15.3566 51.1738 15.49C51.1872 15.61 51.2272 15.7166 51.2672 15.7966C51.3205 15.8766 51.4005 15.9433 51.4938 15.9833C51.6005 16.0233 51.7338 16.05 51.9205 16.05C52.0272 16.05 52.1472 16.05 52.2538 16.0366C52.3605 16.0233 52.4805 16.01 52.5872 15.9833V17.2233C52.4138 17.25 52.2405 17.2633 52.0672 17.2767C51.8938 17.3033 51.7338 17.3033 51.5472 17.3033C51.1205 17.3033 50.7872 17.2633 50.5338 17.1833C50.2805 17.1033 50.0805 16.9833 49.9338 16.8367C49.7872 16.6767 49.6938 16.49 49.6405 16.2633C49.5871 16.0366 49.5605 15.7566 49.5471 15.4633V11.1966H48.3338V9.98329V10.01ZM53.7072 10.01H55.2138V10.9966H55.2405C55.4672 10.57 55.7738 10.2766 56.1738 10.09C56.5738 9.90328 57.0005 9.80995 57.4805 9.80995C58.0539 9.80995 58.5472 9.90329 58.9739 10.1166C59.4005 10.3166 59.7472 10.5833 60.0272 10.9433C60.3072 11.29 60.5205 11.7033 60.6539 12.17C60.7872 12.6366 60.8672 13.1433 60.8672 13.6633C60.8672 14.1566 60.8005 14.6233 60.6805 15.0766C60.5472 15.53 60.3605 15.9433 60.1072 16.29C59.8539 16.6367 59.5339 16.9167 59.1339 17.13C58.7339 17.3433 58.2805 17.45 57.7472 17.45C57.5205 17.45 57.2805 17.4233 57.0539 17.3833C56.8272 17.3433 56.6005 17.2767 56.3872 17.1833C56.1738 17.09 55.9739 16.97 55.8005 16.8233C55.6138 16.6767 55.4672 16.5033 55.3472 16.3167H55.3205V19.93H53.7205V10.01H53.7072ZM59.2939 13.6366C59.2939 13.3166 59.2539 12.9966 59.1605 12.69C59.0805 12.3833 58.9472 12.1166 58.7739 11.8766C58.6005 11.6366 58.3872 11.45 58.1472 11.3033C57.8939 11.1566 57.6005 11.09 57.2805 11.09C56.6139 11.09 56.1072 11.3166 55.7605 11.7833C55.4272 12.25 55.2538 12.8766 55.2538 13.65C55.2538 14.0233 55.2938 14.3566 55.3872 14.6633C55.4805 14.97 55.6005 15.2366 55.7872 15.4633C55.9605 15.69 56.1739 15.8633 56.4272 15.9966C56.6805 16.13 56.9605 16.1966 57.2939 16.1966C57.6672 16.1966 57.9605 16.1166 58.2139 15.97C58.4672 15.8233 58.6672 15.6233 58.8405 15.3966C59.0005 15.1566 59.1205 14.89 59.1872 14.5833C59.2539 14.2633 59.2939 13.9566 59.2939 13.6366ZM62.1072 7.24994H63.7072V8.75661H62.1072V7.24994ZM62.1072 10.01H63.7072V17.25H62.1072V10.01ZM65.1339 7.24994H66.7339V17.25H65.1339V7.24994ZM71.6139 17.45C71.0406 17.45 70.5206 17.3567 70.0673 17.1567C69.6139 16.9567 69.2406 16.7033 68.9206 16.37C68.6139 16.0366 68.3739 15.6233 68.2139 15.1566C68.0539 14.69 67.9606 14.17 67.9606 13.6233C67.9606 13.0766 68.0406 12.57 68.2139 12.1033C68.3739 11.6366 68.6139 11.2366 68.9206 10.89C69.2273 10.5566 69.6139 10.29 70.0673 10.1033C70.5206 9.91662 71.0406 9.80995 71.6139 9.80995C72.1873 9.80995 72.7073 9.90328 73.1606 10.1033C73.6139 10.29 73.9873 10.5566 74.3073 10.89C74.6139 11.2233 74.8539 11.6366 75.0139 12.1033C75.1739 12.57 75.2673 13.0766 75.2673 13.6233C75.2673 14.1833 75.1873 14.69 75.0139 15.1566C74.8406 15.6233 74.6139 16.0233 74.3073 16.37C74.0006 16.7033 73.6139 16.97 73.1606 17.1567C72.7073 17.3433 72.2006 17.45 71.6139 17.45ZM71.6139 16.1833C71.9606 16.1833 72.2806 16.1033 72.5339 15.9566C72.8006 15.81 73.0006 15.61 73.1739 15.37C73.3473 15.13 73.4673 14.85 73.5473 14.5566C73.6273 14.25 73.6673 13.9433 73.6673 13.6233C73.6673 13.3166 73.6273 13.01 73.5473 12.7033C73.4673 12.3966 73.3473 12.13 73.1739 11.89C73.0006 11.65 72.7873 11.4633 72.5339 11.3166C72.2673 11.17 71.9606 11.09 71.6139 11.09C71.2673 11.09 70.9473 11.17 70.6939 11.3166C70.4273 11.4633 70.2273 11.6633 70.0539 11.89C69.8806 12.13 69.7606 12.3966 69.6806 12.7033C69.6006 13.01 69.5606 13.3166 69.5606 13.6233C69.5606 13.9433 69.6006 14.25 69.6806 14.5566C69.7606 14.8633 69.8806 15.13 70.0539 15.37C70.2273 15.61 70.4406 15.81 70.6939 15.9566C70.9606 16.1166 71.2673 16.1833 71.6139 16.1833ZM75.7473 10.01H76.9606V7.82327H78.5606V9.99662H80.0006V11.1833H78.5606V15.05C78.5606 15.2233 78.574 15.3566 78.5873 15.49C78.6006 15.61 78.6406 15.7166 78.6806 15.7966C78.734 15.8766 78.814 15.9433 78.9073 15.9833C79.014 16.0233 79.1473 16.05 79.334 16.05C79.4406 16.05 79.5606 16.05 79.6673 16.0366C79.774 16.0233 79.894 16.01 80.0006 15.9833V17.2233C79.8273 17.25 79.654 17.2633 79.4806 17.2767C79.3073 17.3033 79.1473 17.3033 78.9606 17.3033C78.534 17.3033 78.2006 17.2633 77.9473 17.1833C77.694 17.1033 77.494 16.9833 77.3473 16.8367C77.2006 16.6767 77.1073 16.49 77.054 16.2633C77.0006 16.0366 76.974 15.7566 76.9606 15.4633V11.1966H75.7473V9.98329V10.01Z" fill="black"/>
<path d="M19.1601 7.24989H11.8401L9.58672 0.289856L7.32004 7.24989L0 7.23656L5.92003 11.5432L3.65335 18.5033L9.57338 14.1966L15.4934 18.5033L13.2401 11.5432L19.1601 7.24989Z" fill="#00B67A"/>
<path d="M13.7469 13.1167L13.2403 11.5433L9.58691 14.1967L13.7469 13.1167Z" fill="#005128"/>
<rect x="176.522" width="20.0001" height="20.0001" fill="#DCDCE6"/>
<rect x="176.522" width="10.0001" height="20.0001" fill="#00B67A"/>
<path fill-rule="evenodd" clip-rule="evenodd" d="M188.133 8.30945H193.519L189.163 11.4684L189.163 11.4687L186.475 13.4209L189.536 12.6262L189.204 11.5941L190.821 16.5894L186.465 13.4207L182.109 16.5894L183.777 11.4684L179.421 8.29964L184.807 8.30945L186.475 3.18842L188.133 8.30945Z" fill="white"/>
<rect x="154.494" width="20.0001" height="20.0001" fill="#00B67A"/>
<path fill-rule="evenodd" clip-rule="evenodd" d="M166.104 8.30945H171.49L167.134 11.4684L168.792 16.5894L164.436 13.4207L160.081 16.5894L161.748 11.4684L157.393 8.29964L162.778 8.30945L164.446 3.18842L166.104 8.30945ZM167.134 11.4686L167.507 12.6262L164.446 13.4209L167.134 11.4686Z" fill="white"/>
<rect x="132.464" width="20.0001" height="20.0001" fill="#00B67A"/>
<path fill-rule="evenodd" clip-rule="evenodd" d="M144.074 8.30945H149.46L145.104 11.4684L146.762 16.5894L142.406 13.4207L138.05 16.5894L139.718 11.4684L135.362 8.29964L140.748 8.30945L142.416 3.18842L144.074 8.30945ZM145.104 11.4686L145.477 12.6262L142.416 13.4209L145.104 11.4686Z" fill="white"/>
<rect x="110.436" width="20.0001" height="20.0001" fill="#00B67A"/>
<path fill-rule="evenodd" clip-rule="evenodd" d="M122.046 8.30945H127.432L123.076 11.4684L124.734 16.5894L120.378 13.4207L116.022 16.5894L117.69 11.4684L113.334 8.29964L118.72 8.30945L120.388 3.18842L122.046 8.30945ZM123.076 11.4686L123.448 12.6262L120.388 13.4209L123.076 11.4686Z" fill="white"/>
<rect x="88.4062" width="20.0001" height="20.0001" fill="#00B67A"/>
<path fill-rule="evenodd" clip-rule="evenodd" d="M100.016 8.30945H105.402L101.046 11.4684L101.046 11.4686L98.3585 13.4209L101.419 12.6262L101.053 11.4877L102.704 16.5894L98.3486 13.4207L93.9927 16.5894L95.6605 11.4684L91.3047 8.29964L96.6906 8.30945L98.3584 3.18842L100.016 8.30945Z" fill="white"/>
<path d="M208.61 17.1016H210.071V15.1654H211.416V13.8882H210.071V7.29852H207.87C205.662 10.4915 204.548 12.251 203.706 13.8339V15.1654H208.61V17.1016ZM205.125 13.8746C205.907 12.4548 206.899 10.9263 208.597 8.4738H208.624V13.9086H205.125V13.8746Z" fill="black"/>
<path d="M213.936 17.1763C214.439 17.1763 214.826 16.7823 214.826 16.2863C214.826 15.7836 214.439 15.3964 213.936 15.3964C213.44 15.3964 213.046 15.7836 213.046 16.2863C213.046 16.7823 213.44 17.1763 213.936 17.1763Z" fill="black"/>
<path d="M221.518 17.1016H222.978V15.1654H224.323V13.8882H222.978V7.29852H220.777C218.569 10.4915 217.455 12.251 216.613 13.8339V15.1654H221.518V17.1016ZM218.033 13.8746C218.814 12.4548 219.806 10.9263 221.504 8.4738H221.531V13.9086H218.033V13.8746Z" fill="black"/>
<path d="M232.682 17.1966C234.632 17.1966 235.943 15.7428 235.943 13.4466C235.943 11.1436 234.632 9.6898 232.682 9.6898C230.739 9.6898 229.428 11.1436 229.428 13.4466C229.428 15.7428 230.733 17.1966 232.682 17.1966ZM232.682 16.7211C231.038 16.7211 229.958 15.4643 229.958 13.4466C229.958 11.4221 231.038 10.1721 232.682 10.1721C234.326 10.1721 235.407 11.4221 235.407 13.4466C235.407 15.4575 234.326 16.7211 232.682 16.7211Z" fill="black"/>
<path d="M243.158 9.7849H242.628V14.1599C242.628 15.7156 241.575 16.7211 240.182 16.7211C238.844 16.7211 237.967 15.8923 237.967 14.452V9.7849H237.438V14.5336C237.438 16.1708 238.497 17.1966 240.073 17.1966C241.289 17.1966 242.315 16.4901 242.641 15.505H242.662V17.1015H243.158V9.7849Z" fill="black"/>
<path d="M245.46 7.9031V9.7849H244.387V10.2469H245.46V15.4371C245.46 16.6464 245.916 17.1151 246.975 17.1151C247.057 17.1151 247.512 17.1083 247.553 17.1015V16.6328C247.526 16.6396 247.084 16.6464 247.043 16.6464C246.31 16.6464 245.983 16.2999 245.983 15.4235V10.2469H247.458V9.7849H245.983V7.9031H245.46Z" fill="black"/>
<path d="M255.005 17.1966C256.954 17.1966 258.266 15.7428 258.266 13.4466C258.266 11.1436 256.954 9.6898 255.005 9.6898C253.062 9.6898 251.751 11.1436 251.751 13.4466C251.751 15.7428 253.055 17.1966 255.005 17.1966ZM255.005 16.7211C253.361 16.7211 252.281 15.4643 252.281 13.4466C252.281 11.4221 253.361 10.1721 255.005 10.1721C256.649 10.1721 257.729 11.4221 257.729 13.4466C257.729 15.4575 256.649 16.7211 255.005 16.7211Z" fill="black"/>
<path d="M260.154 17.1015H260.684V10.2469H262.253V9.7849H260.684V8.77946C260.684 7.85555 261.098 7.50908 261.798 7.50908C261.981 7.50908 262.158 7.52946 262.307 7.57022V7.10826C262.172 7.0675 261.981 7.04712 261.771 7.04712C260.745 7.04712 260.154 7.54984 260.154 8.7455V9.7849H259.135V10.2469H260.154V17.1015Z" fill="black"/>
<path d="M269.99 17.2442C271.933 17.2442 273.36 15.8651 273.36 13.9765C273.36 12.1083 271.974 10.7156 270.126 10.7156C269.066 10.7156 268.081 11.2047 267.552 11.9792H267.531L267.993 7.78761H272.728V7.29848H267.531L266.947 12.645H267.49C268.02 11.7414 268.978 11.198 270.065 11.198C271.634 11.198 272.823 12.4004 272.823 13.9833C272.823 15.5798 271.621 16.7618 269.997 16.7618C268.611 16.7618 267.477 15.8855 267.327 14.7034H266.791C266.94 16.1708 268.299 17.2442 269.99 17.2442Z" fill="black"/>
</svg>
