<svg width="274" height="20" viewBox="0 0 274 20" fill="none" xmlns="http://www.w3.org/2000/svg">
<path d="M21.0265 7.25H29.1198V8.75666H25.9332V17.25H24.1865V8.75666H21.0132L21.0265 7.25ZM28.7732 10.01H30.2665V11.41H30.2932C30.3465 11.21 30.4398 11.0233 30.5732 10.8367C30.7065 10.65 30.8665 10.4767 31.0665 10.33C31.2532 10.17 31.4665 10.05 31.7065 9.95666C31.9332 9.86333 32.1732 9.81 32.4132 9.81C32.5998 9.81 32.7332 9.82333 32.7998 9.82333C32.8665 9.83666 32.9465 9.85 33.0132 9.85V11.3833C32.9065 11.3567 32.7865 11.3433 32.6665 11.33C32.5465 11.3167 32.4398 11.3033 32.3198 11.3033C32.0532 11.3033 31.7999 11.3567 31.5599 11.4633C31.3199 11.57 31.1198 11.73 30.9332 11.93C30.7598 12.1433 30.6132 12.3967 30.5065 12.7033C30.3998 13.01 30.3465 13.37 30.3465 13.77V17.21H28.7465L28.7732 10.01ZM40.3465 17.25H38.7732V16.2367H38.7465C38.5465 16.61 38.2532 16.89 37.8665 17.1167C37.4798 17.3433 37.0798 17.45 36.6798 17.45C35.7332 17.45 35.0398 17.2233 34.6132 16.7433C34.1865 16.2767 33.9732 15.5567 33.9732 14.61V10.01H35.5732V14.45C35.5732 15.09 35.6932 15.5433 35.9465 15.7967C36.1865 16.0633 36.5332 16.1967 36.9732 16.1967C37.3065 16.1967 37.5865 16.1433 37.8132 16.0367C38.0398 15.93 38.2265 15.7967 38.3598 15.6233C38.5065 15.45 38.5998 15.2367 38.6665 14.9967C38.7332 14.7567 38.7598 14.49 38.7598 14.21V10.01H40.3598V17.25H40.3465ZM43.0665 14.93C43.1198 15.3967 43.2932 15.7167 43.5998 15.9167C43.9065 16.1033 44.2798 16.1967 44.7065 16.1967C44.8532 16.1967 45.0265 16.1833 45.2132 16.1567C45.3998 16.13 45.5865 16.09 45.7465 16.0233C45.9198 15.9567 46.0532 15.8633 46.1598 15.73C46.2665 15.5967 46.3198 15.4367 46.3065 15.2367C46.2932 15.0367 46.2265 14.8633 46.0798 14.73C45.9332 14.5967 45.7598 14.5033 45.5465 14.41C45.3332 14.33 45.0798 14.2633 44.7998 14.21C44.5198 14.1567 44.2398 14.09 43.9465 14.0233C43.6532 13.9567 43.3598 13.8767 43.0798 13.7833C42.7998 13.69 42.5598 13.57 42.3332 13.3967C42.1198 13.2367 41.9332 13.0367 41.8132 12.7833C41.6798 12.53 41.6132 12.2367 41.6132 11.8633C41.6132 11.4633 41.7065 11.1433 41.9065 10.8767C42.0932 10.61 42.3465 10.3967 42.6398 10.2367C42.9332 10.0767 43.2665 9.95666 43.6265 9.89C43.9865 9.82333 44.3332 9.79666 44.6532 9.79666C45.0265 9.79666 45.3865 9.83667 45.7198 9.91667C46.0532 9.99667 46.3732 10.1167 46.6398 10.3033C46.9198 10.4767 47.1465 10.7167 47.3198 10.9967C47.5065 11.2767 47.6132 11.6233 47.6665 12.0233H45.9998C45.9198 11.6367 45.7465 11.3833 45.4798 11.25C45.1998 11.1167 44.8932 11.05 44.5332 11.05C44.4265 11.05 44.2798 11.0633 44.1332 11.0767C43.9732 11.1033 43.8398 11.13 43.6932 11.1833C43.5598 11.2367 43.4398 11.3167 43.3465 11.41C43.2532 11.5033 43.1998 11.6367 43.1998 11.7967C43.1998 11.9967 43.2665 12.1433 43.3998 12.2633C43.5332 12.3833 43.7065 12.4767 43.9332 12.57C44.1465 12.65 44.3998 12.7167 44.6798 12.77C44.9598 12.8233 45.2532 12.89 45.5465 12.9567C45.8398 13.0233 46.1198 13.1033 46.3998 13.1967C46.6798 13.29 46.9332 13.41 47.1465 13.5833C47.3598 13.7433 47.5465 13.9433 47.6798 14.1833C47.8132 14.4233 47.8798 14.73 47.8798 15.0767C47.8798 15.5033 47.7865 15.8633 47.5865 16.17C47.3865 16.4633 47.1332 16.7167 46.8265 16.9033C46.5198 17.09 46.1598 17.2233 45.7865 17.3167C45.3998 17.3967 45.0265 17.45 44.6532 17.45C44.1998 17.45 43.7732 17.3967 43.3865 17.29C42.9998 17.1833 42.6532 17.0233 42.3732 16.8233C42.0932 16.61 41.8665 16.3567 41.7065 16.0367C41.5465 15.73 41.4532 15.3567 41.4398 14.9167H43.0532V14.93H43.0665ZM48.3332 10.01H49.5465V7.82333H51.1465V9.99666H52.5865V11.1833H51.1465V15.05C51.1465 15.2233 51.1598 15.3567 51.1732 15.49C51.1865 15.61 51.2265 15.7167 51.2665 15.7967C51.3198 15.8767 51.3998 15.9433 51.4932 15.9833C51.5998 16.0233 51.7332 16.05 51.9198 16.05C52.0265 16.05 52.1465 16.05 52.2532 16.0367C52.3598 16.0233 52.4798 16.01 52.5865 15.9833V17.2233C52.4132 17.25 52.2398 17.2633 52.0665 17.2767C51.8932 17.3033 51.7332 17.3033 51.5465 17.3033C51.1198 17.3033 50.7865 17.2633 50.5332 17.1833C50.2798 17.1033 50.0798 16.9833 49.9332 16.8367C49.7865 16.6767 49.6932 16.49 49.6398 16.2633C49.5865 16.0367 49.5598 15.7567 49.5465 15.4633V11.1967H48.3332V9.98333V10.01ZM53.7065 10.01H55.2132V10.9967H55.2398C55.4665 10.57 55.7732 10.2767 56.1732 10.09C56.5732 9.90333 56.9998 9.81 57.4798 9.81C58.0532 9.81 58.5465 9.90333 58.9732 10.1167C59.3998 10.3167 59.7465 10.5833 60.0265 10.9433C60.3065 11.29 60.5198 11.7033 60.6532 12.17C60.7865 12.6367 60.8665 13.1433 60.8665 13.6633C60.8665 14.1567 60.7998 14.6233 60.6798 15.0767C60.5465 15.53 60.3598 15.9433 60.1065 16.29C59.8532 16.6367 59.5332 16.9167 59.1332 17.13C58.7332 17.3433 58.2798 17.45 57.7465 17.45C57.5198 17.45 57.2798 17.4233 57.0532 17.3833C56.8265 17.3433 56.5998 17.2767 56.3865 17.1833C56.1732 17.09 55.9732 16.97 55.7998 16.8233C55.6132 16.6767 55.4665 16.5033 55.3465 16.3167H55.3198V19.93H53.7198V10.01H53.7065ZM59.2932 13.6367C59.2932 13.3167 59.2532 12.9967 59.1598 12.69C59.0798 12.3833 58.9465 12.1167 58.7732 11.8767C58.5998 11.6367 58.3865 11.45 58.1465 11.3033C57.8932 11.1567 57.5998 11.09 57.2798 11.09C56.6132 11.09 56.1065 11.3167 55.7598 11.7833C55.4265 12.25 55.2532 12.8767 55.2532 13.65C55.2532 14.0233 55.2932 14.3567 55.3865 14.6633C55.4798 14.97 55.5998 15.2367 55.7865 15.4633C55.9598 15.69 56.1732 15.8633 56.4265 15.9967C56.6798 16.13 56.9599 16.1967 57.2932 16.1967C57.6665 16.1967 57.9598 16.1167 58.2132 15.97C58.4665 15.8233 58.6665 15.6233 58.8398 15.3967C58.9998 15.1567 59.1198 14.89 59.1865 14.5833C59.2532 14.2633 59.2932 13.9567 59.2932 13.6367ZM62.1065 7.25H63.7065V8.75666H62.1065V7.25ZM62.1065 10.01H63.7065V17.25H62.1065V10.01ZM65.1332 7.25H66.7332V17.25H65.1332V7.25ZM71.6132 17.45C71.0398 17.45 70.5198 17.3567 70.0665 17.1567C69.6132 16.9567 69.2398 16.7033 68.9198 16.37C68.6132 16.0367 68.3732 15.6233 68.2132 15.1567C68.0532 14.69 67.9598 14.17 67.9598 13.6233C67.9598 13.0767 68.0398 12.57 68.2132 12.1033C68.3732 11.6367 68.6132 11.2367 68.9198 10.89C69.2265 10.5567 69.6132 10.29 70.0665 10.1033C70.5198 9.91667 71.0398 9.81 71.6132 9.81C72.1865 9.81 72.7065 9.90333 73.1598 10.1033C73.6132 10.29 73.9865 10.5567 74.3065 10.89C74.6132 11.2233 74.8532 11.6367 75.0132 12.1033C75.1732 12.57 75.2665 13.0767 75.2665 13.6233C75.2665 14.1833 75.1865 14.69 75.0132 15.1567C74.8398 15.6233 74.6132 16.0233 74.3065 16.37C73.9998 16.7033 73.6132 16.97 73.1598 17.1567C72.7065 17.3433 72.1998 17.45 71.6132 17.45ZM71.6132 16.1833C71.9598 16.1833 72.2798 16.1033 72.5332 15.9567C72.7998 15.81 72.9998 15.61 73.1732 15.37C73.3465 15.13 73.4665 14.85 73.5465 14.5567C73.6265 14.25 73.6665 13.9433 73.6665 13.6233C73.6665 13.3167 73.6265 13.01 73.5465 12.7033C73.4665 12.3967 73.3465 12.13 73.1732 11.89C72.9998 11.65 72.7865 11.4633 72.5332 11.3167C72.2665 11.17 71.9598 11.09 71.6132 11.09C71.2665 11.09 70.9465 11.17 70.6932 11.3167C70.4265 11.4633 70.2265 11.6633 70.0532 11.89C69.8798 12.13 69.7598 12.3967 69.6798 12.7033C69.5998 13.01 69.5598 13.3167 69.5598 13.6233C69.5598 13.9433 69.5998 14.25 69.6798 14.5567C69.7598 14.8633 69.8798 15.13 70.0532 15.37C70.2265 15.61 70.4398 15.81 70.6932 15.9567C70.9598 16.1167 71.2665 16.1833 71.6132 16.1833ZM75.7465 10.01H76.9598V7.82333H78.5598V9.99666H79.9998V11.1833H78.5598V15.05C78.5598 15.2233 78.5732 15.3567 78.5865 15.49C78.5998 15.61 78.6398 15.7167 78.6798 15.7967C78.7332 15.8767 78.8132 15.9433 78.9065 15.9833C79.0132 16.0233 79.1465 16.05 79.3332 16.05C79.4398 16.05 79.5598 16.05 79.6665 16.0367C79.7732 16.0233 79.8932 16.01 79.9998 15.9833V17.2233C79.8265 17.25 79.6532 17.2633 79.4798 17.2767C79.3065 17.3033 79.1465 17.3033 78.9598 17.3033C78.5332 17.3033 78.1998 17.2633 77.9465 17.1833C77.6932 17.1033 77.4932 16.9833 77.3465 16.8367C77.1998 16.6767 77.1065 16.49 77.0532 16.2633C76.9999 16.0367 76.9732 15.7567 76.9598 15.4633V11.1967H75.7465V9.98333V10.01Z" fill="black"/>
<path d="M19.16 7.24986H11.84L9.58667 0.289856L7.32 7.24986L0 7.23652L5.92 11.5432L3.65333 18.5032L9.57333 14.1965L15.4933 18.5032L13.24 11.5432L19.16 7.24986Z" fill="#00B67A"/>
<path d="M13.7469 13.1167L13.2402 11.5433L9.58691 14.1967L13.7469 13.1167Z" fill="#005128"/>
<rect x="176.521" width="20" height="20" fill="#DCDCE6"/>
<rect x="176.521" width="10" height="20" fill="#00B67A"/>
<path fill-rule="evenodd" clip-rule="evenodd" d="M188.132 8.30942H193.518L189.162 11.4684L189.162 11.4687L186.474 13.4208L189.535 12.6262L189.21 11.6174L190.82 16.5894L186.464 13.4206L182.108 16.5894L183.776 11.4684L179.42 8.29961L184.806 8.30942L186.474 3.18842L188.132 8.30942Z" fill="white"/>
<rect x="154.492" width="20" height="20" fill="#00B67A"/>
<path fill-rule="evenodd" clip-rule="evenodd" d="M166.102 8.30942H171.488L167.132 11.4684L168.79 16.5894L164.434 13.4206L160.078 16.5894L161.746 11.4684L157.39 8.29961L162.776 8.30942L164.444 3.18842L166.102 8.30942ZM167.131 11.4686L167.504 12.6262L164.443 13.4208L167.131 11.4686Z" fill="white"/>
<rect x="132.463" width="20" height="20" fill="#00B67A"/>
<path fill-rule="evenodd" clip-rule="evenodd" d="M144.073 8.30942H149.459L145.104 11.4684L146.761 16.5894L142.406 13.4206L138.05 16.5894L139.718 11.4684L135.362 8.29961L140.748 8.30942L142.415 3.18842L144.073 8.30942ZM145.103 11.4686L145.476 12.6262L142.415 13.4208L145.103 11.4686Z" fill="white"/>
<rect x="110.434" width="20" height="20" fill="#00B67A"/>
<path fill-rule="evenodd" clip-rule="evenodd" d="M122.045 8.30942H127.43L123.075 11.4684L123.075 11.4687L120.387 13.4208L123.448 12.6262L123.115 11.593L124.733 16.5894L120.377 13.4206L116.021 16.5894L117.689 11.4684L113.333 8.29961L118.719 8.30942L120.387 3.18842L122.045 8.30942Z" fill="white"/>
<rect x="88.4058" width="20" height="20" fill="#00B67A"/>
<path fill-rule="evenodd" clip-rule="evenodd" d="M100.015 8.30942H105.401L101.045 11.4684L102.703 16.5894L98.3475 13.4206L93.9917 16.5894L95.6595 11.4684L91.3037 8.29961L96.6896 8.30942L98.3574 3.18842L100.015 8.30942ZM101.045 11.4686L101.418 12.6262L98.357 13.4208L101.045 11.4686Z" fill="white"/>
<path d="M208.609 17.1014H210.07V15.1653H211.415V13.8881H210.07V7.29843H207.869C205.661 10.4914 204.547 12.2509 203.705 13.8338V15.1653H208.609V17.1014ZM205.124 13.8745C205.906 12.4547 206.898 10.9262 208.596 8.4737H208.623V13.9085H205.124V13.8745Z" fill="black"/>
<path d="M213.935 17.1761C214.438 17.1761 214.825 16.7821 214.825 16.2862C214.825 15.7835 214.438 15.3963 213.935 15.3963C213.439 15.3963 213.045 15.7835 213.045 16.2862C213.045 16.7821 213.439 17.1761 213.935 17.1761Z" fill="black"/>
<path d="M220.409 17.2916C222.488 17.2916 223.989 15.865 223.989 13.9017C223.989 12.0403 222.604 10.6612 220.735 10.6612C219.512 10.6612 218.473 11.2998 218.045 12.2509H218.018C218.025 9.78485 218.921 8.38539 220.464 8.38539C221.36 8.38539 222.094 8.90849 222.332 9.71012H223.854C223.555 8.14762 222.209 7.10822 220.477 7.10822C218.025 7.10822 216.557 9.05115 216.557 12.3324C216.557 13.4805 216.761 14.4452 217.162 15.2264C217.801 16.5511 218.962 17.2916 220.409 17.2916ZM220.396 16.0077C219.227 16.0077 218.324 15.0838 218.324 13.9221C218.324 12.7604 219.214 11.9044 220.409 11.9044C221.612 11.9044 222.474 12.7604 222.474 13.9492C222.474 15.0973 221.551 16.0077 220.396 16.0077Z" fill="black"/>
<path d="M232.681 17.1966C234.631 17.1966 235.942 15.7428 235.942 13.4466C235.942 11.1436 234.631 9.68978 232.681 9.68978C230.738 9.68978 229.427 11.1436 229.427 13.4466C229.427 15.7428 230.732 17.1966 232.681 17.1966ZM232.681 16.721C231.037 16.721 229.957 15.4642 229.957 13.4466C229.957 11.4221 231.037 10.1721 232.681 10.1721C234.325 10.1721 235.406 11.4221 235.406 13.4466C235.406 15.4574 234.325 16.721 232.681 16.721Z" fill="black"/>
<path d="M243.157 9.78489H242.627V14.1599C242.627 15.7156 241.574 16.721 240.181 16.721C238.843 16.721 237.966 15.8922 237.966 14.452V9.78489H237.436V14.5335C237.436 16.1708 238.496 17.1966 240.072 17.1966C241.288 17.1966 242.314 16.4901 242.64 15.505H242.661V17.1015H243.157V9.78489Z" fill="black"/>
<path d="M245.459 7.9031V9.78489H244.386V10.2468H245.459V15.4371C245.459 16.6463 245.914 17.1151 246.974 17.1151C247.056 17.1151 247.511 17.1083 247.552 17.1015V16.6327C247.525 16.6395 247.083 16.6463 247.042 16.6463C246.308 16.6463 245.982 16.2998 245.982 15.4235V10.2468H247.457V9.78489H245.982V7.9031H245.459Z" fill="black"/>
<path d="M255.004 17.1966C256.953 17.1966 258.264 15.7428 258.264 13.4466C258.264 11.1436 256.953 9.68978 255.004 9.68978C253.061 9.68978 251.75 11.1436 251.75 13.4466C251.75 15.7428 253.054 17.1966 255.004 17.1966ZM255.004 16.721C253.36 16.721 252.279 15.4642 252.279 13.4466C252.279 11.4221 253.36 10.1721 255.004 10.1721C256.648 10.1721 257.728 11.4221 257.728 13.4466C257.728 15.4574 256.648 16.721 255.004 16.721Z" fill="black"/>
<path d="M260.153 17.1015H260.683V10.2468H262.252V9.78489H260.683V8.77946C260.683 7.85554 261.097 7.50908 261.797 7.50908C261.98 7.50908 262.157 7.52946 262.306 7.57022V7.10826C262.17 7.0675 261.98 7.04712 261.77 7.04712C260.744 7.04712 260.153 7.54984 260.153 8.74549V9.78489H259.134V10.2468H260.153V17.1015Z" fill="black"/>
<path d="M269.989 17.2441C271.932 17.2441 273.359 15.8651 273.359 13.9765C273.359 12.1083 271.973 10.7156 270.125 10.7156C269.065 10.7156 268.08 11.2047 267.55 11.9792H267.53L267.992 7.78761H272.727V7.29848H267.53L266.946 12.6449H267.489C268.019 11.7414 268.977 11.1979 270.064 11.1979C271.633 11.1979 272.822 12.4004 272.822 13.9833C272.822 15.5797 271.62 16.7618 269.996 16.7618C268.61 16.7618 267.476 15.8854 267.326 14.7034H266.789C266.939 16.1708 268.298 17.2441 269.989 17.2441Z" fill="black"/>
</svg>
