<svg width="255" height="20" viewBox="0 0 255 20" fill="none" xmlns="http://www.w3.org/2000/svg">
<g clip-path="url(#clip0)">
<path d="M202.391 6.33221H209.548V7.64816H206.73V15.0664H205.185V7.64816H202.379L202.391 6.33221ZM209.242 8.74285H210.562V9.96563H210.586C210.633 9.79095 210.716 9.62791 210.834 9.46487C210.951 9.30184 211.093 9.15042 211.27 9.02232C211.435 8.88257 211.624 8.77778 211.836 8.69627C212.036 8.61475 212.249 8.56816 212.461 8.56816C212.626 8.56816 212.744 8.57981 212.803 8.57981C212.862 8.59146 212.932 8.6031 212.991 8.6031V9.94234C212.897 9.91905 212.791 9.90738 212.685 9.89573C212.579 9.88409 212.484 9.87247 212.378 9.87247C212.142 9.87247 211.918 9.91902 211.706 10.0122C211.494 10.1054 211.317 10.2451 211.152 10.4198C210.999 10.6061 210.869 10.8274 210.775 11.0953C210.68 11.3631 210.633 11.6775 210.633 12.0269V15.0314H209.218L209.242 8.74285ZM219.477 15.0664H218.085V14.1813H218.062C217.885 14.5074 217.626 14.752 217.284 14.9499C216.942 15.1479 216.588 15.2411 216.234 15.2411C215.397 15.2411 214.784 15.0431 214.406 14.6238C214.029 14.2162 213.84 13.5874 213.84 12.7606V8.74285H215.255V12.6208C215.255 13.1798 215.362 13.5757 215.586 13.797C215.798 14.0299 216.104 14.1464 216.494 14.1464C216.788 14.1464 217.036 14.0998 217.236 14.0066C217.437 13.9135 217.602 13.797 217.72 13.6456C217.85 13.4942 217.932 13.3079 217.991 13.0983C218.05 12.8886 218.074 12.6558 218.074 12.4112V8.74285H219.489V15.0664H219.477ZM221.882 13.04C221.929 13.4476 222.083 13.7272 222.354 13.9018C222.625 14.0649 222.955 14.1464 223.333 14.1464C223.462 14.1464 223.616 14.1347 223.781 14.1115C223.946 14.0882 224.111 14.0532 224.252 13.995C224.406 13.9368 224.524 13.8552 224.618 13.7388C224.712 13.6223 224.759 13.4826 224.748 13.3079C224.736 13.1332 224.677 12.9818 224.547 12.8654C224.417 12.7489 224.264 12.6674 224.076 12.5859C223.887 12.516 223.663 12.4578 223.415 12.4112C223.168 12.3646 222.92 12.3064 222.661 12.2482C222.401 12.1899 222.142 12.1201 221.894 12.0385C221.646 11.957 221.434 11.8522 221.234 11.7008C221.045 11.5611 220.88 11.3864 220.774 11.1651C220.656 10.9439 220.597 10.6876 220.597 10.3616C220.597 10.0122 220.68 9.73272 220.856 9.49981C221.021 9.2669 221.246 9.08057 221.505 8.94082C221.764 8.80108 222.059 8.69627 222.378 8.63804C222.696 8.57981 223.002 8.55649 223.285 8.55649C223.616 8.55649 223.934 8.59146 224.229 8.66133C224.524 8.7312 224.807 8.83601 225.042 8.99905C225.29 9.15044 225.491 9.36004 225.644 9.60459C225.809 9.84915 225.903 10.152 225.95 10.5013H224.476C224.406 10.1636 224.252 9.94234 224.017 9.82589C223.769 9.70943 223.498 9.6512 223.179 9.6512C223.085 9.6512 222.955 9.66285 222.826 9.67449C222.684 9.69778 222.566 9.72108 222.436 9.76766C222.319 9.81424 222.212 9.88411 222.13 9.96563C222.047 10.0472 222 10.1636 222 10.3033C222 10.478 222.059 10.6061 222.177 10.7109C222.295 10.8157 222.448 10.8973 222.649 10.9788C222.837 11.0487 223.061 11.1069 223.309 11.1535C223.557 11.2001 223.816 11.2583 224.076 11.3165C224.335 11.3747 224.583 11.4446 224.83 11.5261C225.078 11.6076 225.302 11.7125 225.491 11.8639C225.679 12.0036 225.844 12.1783 225.962 12.3879C226.08 12.5975 226.139 12.8654 226.139 13.1681C226.139 13.5408 226.057 13.8553 225.88 14.1231C225.703 14.3793 225.479 14.6006 225.208 14.7636C224.936 14.9266 224.618 15.0431 224.288 15.1246C223.946 15.1945 223.616 15.2411 223.285 15.2411C222.885 15.2411 222.507 15.1945 222.165 15.1013C221.823 15.0082 221.517 14.8684 221.269 14.6937C221.021 14.5074 220.821 14.2861 220.68 14.0066C220.538 13.7388 220.455 13.4127 220.444 13.0284H221.87V13.04H221.882ZM226.54 8.74285H227.613V6.83297H229.028V8.73118H230.302V9.76766H229.028V13.1449C229.028 13.2963 229.04 13.4127 229.052 13.5292C229.063 13.634 229.099 13.7271 229.134 13.797C229.181 13.8669 229.252 13.9251 229.335 13.9601C229.429 13.995 229.547 14.0183 229.712 14.0183C229.806 14.0183 229.912 14.0183 230.007 14.0066C230.101 13.995 230.207 13.9834 230.302 13.9601V15.0431C230.148 15.0664 229.995 15.078 229.842 15.0897C229.688 15.1129 229.547 15.113 229.382 15.113C229.004 15.113 228.71 15.078 228.486 15.0082C228.262 14.9383 228.085 14.8335 227.955 14.7054C227.825 14.5656 227.743 14.4026 227.696 14.2046C227.648 14.0066 227.625 13.7621 227.613 13.5059V9.77928H226.54V8.71956V8.74285ZM231.292 8.74285H232.624V9.60459H232.648C232.849 9.23194 233.12 8.97576 233.473 8.81272C233.827 8.64968 234.205 8.56816 234.629 8.56816C235.136 8.56816 235.572 8.64968 235.95 8.83601C236.327 9.0107 236.634 9.24361 236.881 9.55804C237.129 9.86082 237.318 10.2218 237.435 10.6294C237.553 11.037 237.624 11.4795 237.624 11.9337C237.624 12.3646 237.565 12.7722 237.459 13.1681C237.341 13.5641 237.176 13.9251 236.952 14.2279C236.728 14.5307 236.445 14.7752 236.091 14.9616C235.737 15.1479 235.337 15.2411 234.865 15.2411C234.664 15.2411 234.452 15.2178 234.252 15.1828C234.051 15.1479 233.851 15.0897 233.662 15.0082C233.473 14.9266 233.297 14.8218 233.143 14.6937C232.978 14.5656 232.849 14.4142 232.742 14.2512H232.719V17.4071H231.304V8.74285H231.292ZM236.233 11.9104C236.233 11.6309 236.197 11.3515 236.115 11.0836C236.044 10.8158 235.926 10.5828 235.773 10.3732C235.62 10.1636 235.431 10.0006 235.219 9.87247C234.995 9.74437 234.735 9.68614 234.452 9.68614C233.863 9.68614 233.415 9.88411 233.108 10.2917C232.813 10.6993 232.66 11.2466 232.66 11.9221C232.66 12.2482 232.695 12.5393 232.778 12.8071C232.86 13.075 232.966 13.3079 233.132 13.5059C233.285 13.7038 233.473 13.8552 233.698 13.9717C233.922 14.0881 234.169 14.1464 234.464 14.1464C234.794 14.1464 235.054 14.0765 235.278 13.9484C235.502 13.8203 235.678 13.6456 235.832 13.4476C235.973 13.238 236.079 13.0051 236.138 12.7373C236.197 12.4578 236.233 12.1899 236.233 11.9104ZM238.721 6.33221H240.136V7.64816H238.721V6.33221ZM238.721 8.74285H240.136V15.0664H238.721V8.74285ZM241.397 6.33221H242.812V15.0664H241.397V6.33221ZM247.128 15.2411C246.621 15.2411 246.161 15.1596 245.76 14.9849C245.359 14.8102 245.029 14.5889 244.746 14.2978C244.475 14.0066 244.263 13.6456 244.121 13.238C243.98 12.8304 243.897 12.3763 243.897 11.8988C243.897 11.4213 243.968 10.9788 244.121 10.5712C244.263 10.1636 244.475 9.81424 244.746 9.51146C245.017 9.22032 245.359 8.98741 245.76 8.82437C246.161 8.66133 246.621 8.56816 247.128 8.56816C247.635 8.56816 248.095 8.64968 248.496 8.82437C248.897 8.98741 249.227 9.22032 249.51 9.51146C249.781 9.8026 249.994 10.1636 250.135 10.5712C250.277 10.9788 250.359 11.4213 250.359 11.8988C250.359 12.3879 250.288 12.8304 250.135 13.238C249.982 13.6456 249.781 13.995 249.51 14.2978C249.239 14.5889 248.897 14.8218 248.496 14.9849C248.095 15.1479 247.647 15.2411 247.128 15.2411ZM247.128 14.1347C247.435 14.1347 247.718 14.0649 247.942 13.9368C248.178 13.8087 248.355 13.634 248.508 13.4244C248.661 13.2147 248.767 12.9702 248.838 12.714C248.909 12.4461 248.944 12.1783 248.944 11.8988C248.944 11.6309 248.909 11.3631 248.838 11.0953C248.767 10.8274 248.661 10.5945 248.508 10.3849C248.355 10.1753 248.166 10.0122 247.942 9.88411C247.706 9.75601 247.435 9.68614 247.128 9.68614C246.822 9.68614 246.539 9.75601 246.315 9.88411C246.079 10.0122 245.902 10.1869 245.749 10.3849C245.595 10.5945 245.489 10.8274 245.418 11.0953C245.348 11.3631 245.312 11.6309 245.312 11.8988C245.312 12.1783 245.348 12.4461 245.418 12.714C245.489 12.9818 245.595 13.2147 245.749 13.4244C245.902 13.634 246.091 13.8087 246.315 13.9368C246.55 14.0765 246.822 14.1347 247.128 14.1347ZM250.784 8.74285H251.857V6.83297H253.272V8.73118H254.545V9.76766H253.272V13.1449C253.272 13.2963 253.283 13.4127 253.295 13.5292C253.307 13.634 253.342 13.7271 253.378 13.797C253.425 13.8669 253.496 13.9251 253.578 13.9601C253.673 13.995 253.79 14.0183 253.956 14.0183C254.05 14.0183 254.156 14.0183 254.25 14.0066C254.345 13.995 254.451 13.9834 254.545 13.9601V15.0431C254.392 15.0664 254.239 15.078 254.085 15.0897C253.932 15.1129 253.79 15.113 253.625 15.113C253.248 15.113 252.953 15.078 252.729 15.0082C252.505 14.9383 252.328 14.8335 252.199 14.7054C252.069 14.5656 251.986 14.4026 251.939 14.2046C251.892 14.0066 251.868 13.7621 251.857 13.5059V9.77928H250.784V8.71956V8.74285Z" fill="black"/>
<path d="M200.74 6.33216H194.267L192.274 0.253174L190.27 6.33216L183.796 6.32052L189.031 10.082L187.027 16.161L192.262 12.3995L197.498 16.161L195.505 10.082L200.74 6.33216Z" fill="#00B67A"/>
<path d="M195.952 11.4563L195.504 10.0821L192.273 12.3996L195.952 11.4563Z" fill="#005128"/>
<path d="M176.362 0H158.675V17.4684H176.362V0Z" fill="#DCDCE6"/>
<path d="M167.519 0H158.675V17.4684H167.519V0Z" fill="#00B67A"/>
<path fill-rule="evenodd" clip-rule="evenodd" d="M168.943 7.25758H173.706L169.854 10.0166L171.32 14.4894L167.468 11.7218L163.616 14.4894L165.091 10.0166L161.238 7.24899L166.001 7.25758L167.476 2.78479L168.943 7.25758ZM169.854 10.0168L170.183 11.0279L167.476 11.7219L169.854 10.0168Z" fill="white"/>
<path d="M156.88 0H139.192V17.4684H156.88V0Z" fill="#00B67A"/>
<path fill-rule="evenodd" clip-rule="evenodd" d="M149.46 7.25758H154.223L150.371 10.0166L151.837 14.4894L147.985 11.7218L144.133 14.4894L145.608 10.0166L141.756 7.24899L146.519 7.25758L147.994 2.78479L149.46 7.25758ZM150.371 10.0168L150.701 11.0279L147.994 11.7219L150.371 10.0168Z" fill="white"/>
<path d="M137.398 0H119.711V17.4684H137.398V0Z" fill="#00B67A"/>
<path fill-rule="evenodd" clip-rule="evenodd" d="M129.979 7.25758H134.742L130.89 10.0166L132.356 14.4894L128.504 11.7218L124.652 14.4894L126.127 10.0166L122.274 7.24899L127.037 7.25758L128.512 2.78479L129.979 7.25758ZM130.89 10.0168L131.219 11.0279L128.512 11.7219L130.89 10.0168Z" fill="white"/>
<path d="M117.916 0H100.229V17.4684H117.916V0Z" fill="#00B67A"/>
<path fill-rule="evenodd" clip-rule="evenodd" d="M110.496 7.25758H115.259L111.407 10.0166L112.874 14.4894L109.021 11.7218L105.169 14.4894L106.644 10.0166L102.792 7.24899L107.555 7.25758L109.03 2.78479L110.496 7.25758ZM111.407 10.0168L111.737 11.0279L109.03 11.7219L111.407 10.0168Z" fill="white"/>
<path d="M98.4345 0H80.7471V17.4684H98.4345V0Z" fill="#00B67A"/>
<path fill-rule="evenodd" clip-rule="evenodd" d="M91.0148 7.25758H95.7779L91.9259 10.0166L93.3921 14.4894L89.5399 11.7218L85.6878 14.4894L87.1628 10.0166L83.3105 7.24899L88.0736 7.25758L89.5486 2.78479L91.0148 7.25758ZM91.9259 10.0168L92.2555 11.0279L89.5486 11.7219L91.9259 10.0168Z" fill="white"/>
<path d="M8.53442 14.3906H2.90446V10.7909H8.23338V9.29638H2.90446V5.90559H8.53442V4.35486H1.08203V15.9494H8.53442V14.3906ZM13.8468 12.7113L15.8238 15.9494H17.7682L14.8881 11.5301L17.8007 7.22334H15.8644L13.92 10.3972H13.8793L11.9186 7.22334H9.94157L12.8461 11.5944L9.90904 15.9494H11.821L13.8061 12.7113H13.8468ZM26.6439 10.2043C26.4894 8.52501 25.0901 7.11086 22.8365 7.11086C20.3388 7.11086 18.6953 8.87053 18.6953 11.5864C18.6953 14.3504 20.3469 16.0538 22.8527 16.0538C24.9762 16.0538 26.4568 14.8405 26.6603 13.0166H24.9762C24.7647 14.037 24.008 14.5914 22.8609 14.5914C21.4453 14.5914 20.4852 13.4666 20.4852 11.5864C20.4852 9.75438 21.429 8.58126 22.8527 8.58126C24.065 8.58126 24.7972 9.2803 24.9599 10.2043H26.6439ZM31.9727 8.53306C33.258 8.53306 34.1285 9.43298 34.1693 10.7909H29.6864C29.7841 9.44904 30.7033 8.53306 31.9727 8.53306ZM34.1611 13.3942C33.9171 14.1576 33.1116 14.6397 32.0865 14.6397C30.6385 14.6397 29.6782 13.6433 29.6782 12.1327V12.0283H35.9347V11.4176C35.9347 8.7741 34.4051 7.11086 31.9807 7.11086C29.5075 7.11086 27.8967 8.88661 27.8967 11.6185C27.8967 14.3504 29.4911 16.0538 32.054 16.0538C34.0391 16.0538 35.593 14.9611 35.8453 13.3942H34.1611ZM37.765 15.9494H39.5304V3.83258H37.765V15.9494ZM41.8244 15.9494H43.5898V3.83258H41.8244V15.9494ZM49.4879 8.53306C50.7735 8.53306 51.644 9.43298 51.6847 10.7909H47.2019C47.2995 9.44904 48.2188 8.53306 49.4879 8.53306ZM51.6765 13.3942C51.4325 14.1576 50.6271 14.6397 49.602 14.6397C48.1537 14.6397 47.1937 13.6433 47.1937 12.1327V12.0283H53.4502V11.4176C53.4502 8.7741 51.9206 7.11086 49.4961 7.11086C47.0229 7.11086 45.4119 8.88661 45.4119 11.6185C45.4119 14.3504 47.0065 16.0538 49.5694 16.0538C51.5545 16.0538 53.1085 14.9611 53.3607 13.3942H51.6765ZM55.2071 15.9494H56.9725V10.9114C56.9725 9.53744 57.77 8.62144 59.1042 8.62144C60.3977 8.62144 61.016 9.36066 61.016 10.6864V15.9494H62.7814V10.357C62.7814 8.34825 61.6669 7.12693 59.7143 7.12693C58.3475 7.12693 57.4608 7.66526 56.9238 8.69374H56.8913V7.22334H55.2071V15.9494ZM65.4092 5.26281V7.22334H64.1887V8.59734H65.4092V13.6514C65.4092 15.3387 66.0926 16.0056 67.858 16.0056C68.2404 16.0056 68.6552 15.9654 68.8505 15.9172V14.5432C68.7367 14.5593 68.4355 14.5834 68.2484 14.5834C67.5081 14.5834 67.1664 14.2299 67.1664 13.4746V8.59734H68.8587V7.22334H67.1664V5.26281H65.4092Z" fill="black"/>
</g>
<defs>
<clipPath id="clip0">
<rect width="254.545" height="20" fill="white"/>
</clipPath>
</defs>
</svg>
