<svg width="36" height="35" viewBox="0 0 36 35" fill="none" xmlns="http://www.w3.org/2000/svg">
<path d="M35.4679 17.4983C35.4679 27.162 27.6337 34.9965 17.9683 34.9965C8.30293 34.9965 0.46875 27.162 0.46875 17.4983C0.46875 7.83456 8.30312 0 17.9683 0C27.6335 0 35.4679 7.83382 35.4679 17.4983Z" fill="white"/>
<path d="M17.9684 0C8.30648 0 0.458418 7.84565 0.470718 17.4977C0.47314 19.4288 0.781107 21.2864 1.35911 23.0239H6.59482V8.30396L17.9684 19.6763L29.3415 8.30396V23.0242H34.5783C35.1572 21.2867 35.4635 19.4292 35.467 17.498C35.4835 7.83587 27.6314 0.0023293 17.9684 0.0023293V0Z" fill="#F26822"/>
<path d="M15.3519 22.2907L10.3884 17.3274V26.59H6.59359L3.0127 26.5906C6.08425 31.6294 11.6353 35 17.9676 35C24.2998 35 29.8512 31.6286 32.9233 26.5899H25.5456V17.3274L20.5818 22.2907L17.967 24.9052L15.3521 22.2907H15.3519Z" fill="#4D4D4D"/>
</svg>
