<svg width="31" height="25" viewBox="0 0 31 25" fill="none" xmlns="http://www.w3.org/2000/svg">
<path d="M26.0738 0H30.4098L21.3863 8.94875C18.1186 12.1877 12.8205 12.1877 9.55039 8.94875L0.523438 0H4.86289L11.7184 6.79783C12.7172 7.78385 14.0633 8.3366 15.4657 8.3366C16.8681 8.3366 18.2142 7.78385 19.2131 6.79783L26.0738 0Z" fill="#23292F"/>
<path d="M4.80762 24.8865H0.46875L9.55078 15.8826C12.8186 12.6436 18.1166 12.6436 21.3867 15.8826L30.4688 24.8865H26.1328L19.2188 18.0335C18.2199 17.0475 16.8738 16.4948 15.4714 16.4948C14.069 16.4948 12.7229 17.0475 11.724 18.0335L4.80762 24.8865Z" fill="#23292F"/>
</svg>
