<svg width="524" height="529" viewBox="0 0 524 529" fill="none" xmlns="http://www.w3.org/2000/svg">
<circle r="262" transform="matrix(-1 0 0 1 262 262.5)" fill="#FFF0F5"/>
<path d="M66.3173 262.033C66.3173 369.848 153.927 457.249 262 457.249C370.073 457.249 457.683 369.848 457.683 262.033C457.683 154.218 370.073 66.8173 262 66.8173C153.927 66.8173 66.3173 154.218 66.3173 262.033Z" fill="#FFDEE9"/>
<g filter="url(#filter0_d)">
<g filter="url(#filter1_d)">
<path d="M446.179 151.756C446.179 151.756 419.38 366.274 375.348 414.541C322.408 472.446 284.072 462.129 262.786 491.995C241.446 462.093 203.073 472.446 150.17 414.504C106.138 366.237 79.394 151.72 79.394 151.72C162.791 64.6447 262.786 32.2576 262.786 32.2576C264.794 34.2839 361.972 67.8834 446.179 151.756Z" fill="#FD3E72"/>
</g>
<g filter="url(#filter2_d)">
<path d="M446.178 151.757C446.178 151.757 419.38 366.274 375.348 414.541C322.408 472.447 284.072 462.13 262.786 491.995L262.786 405.177L262.786 168.546L262.786 32.2581C264.794 34.2844 361.972 67.8839 446.178 151.757Z" fill="#DC3462"/>
</g>
<path d="M417.869 169.07C417.869 169.07 395.233 350.271 358.047 391.072C313.358 440.05 280.919 432.858 262.882 458.087C244.846 432.858 212.425 440.05 167.718 391.072C130.532 350.271 107.95 169.07 107.95 169.07C188.856 84.5023 262.882 68.1545 262.882 68.1545C262.882 68.1545 345.934 92.5991 417.869 169.07Z" fill="white"/>
<path d="M144.746 213.842L159.434 210.106L141.278 210.714L126.028 222.746L113.666 226.692L114.939 238.53L130.605 228.131L144.746 213.842Z" fill="#FD3E72"/>
<mask id="mask0" mask-type="alpha" maskUnits="userSpaceOnUse" x="262" y="61" width="156" height="418">
<path d="M262.505 61.4084H417.964V478.393H262.505V61.4084Z" fill="#C4C4C4"/>
</mask>
<g mask="url(#mask0)">
<path d="M417.844 169.073C417.844 169.073 395.207 350.275 358.021 391.075C313.332 440.054 280.893 432.861 262.857 458.09C244.82 432.861 212.399 440.054 167.692 391.075C130.506 350.275 107.924 169.073 107.924 169.073C188.83 84.5057 262.857 68.158 262.857 68.158C262.857 68.158 345.908 92.6025 417.844 169.073Z" fill="#F8F3F3"/>
<path d="M312.547 129.443L312.025 147.676L307.961 126.193L318.079 105.115L319.46 89.5581L333.699 87.9382L325.607 109.074L312.547 129.443Z" fill="#DC3462"/>
<path d="M341.861 366.179L333.455 353.57L346.531 366.179L349.8 385.327L356.339 396.536L347.465 404.475L342.795 386.261L341.861 366.179Z" fill="#DC3462"/>
</g>
</g>
<g filter="url(#filter3_d)">
<rect x="159.722" y="80.828" width="204.556" height="68.1854" rx="10" fill="#FAFAFA"/>
</g>
<path d="M234.822 96.7068L225.265 124.882H225.184L215.734 96.7068H207.358L221.855 135.937H228.674L243.117 96.7068H234.822Z" fill="#84818D"/>
<path d="M248.486 135.937H256.11V122.51H262.204C264.352 122.51 266.312 122.267 268.057 121.728C269.802 121.215 271.305 120.433 272.567 119.382C273.828 118.357 274.795 117.009 275.493 115.392C276.164 113.774 276.513 111.913 276.513 109.783C276.513 107.869 276.245 106.117 275.708 104.553C275.171 102.989 274.365 101.614 273.292 100.428C272.218 99.2412 270.795 98.3245 269.023 97.6774C267.251 97.0303 265.238 96.7068 262.929 96.7068H248.486V135.937ZM256.11 115.634V103.609H261.56C263.761 103.609 265.479 104.148 266.687 105.227C267.896 106.305 268.513 107.788 268.513 109.622C268.513 111.482 267.869 112.938 266.634 114.016C265.399 115.095 263.6 115.634 261.238 115.634H256.11Z" fill="#84818D"/>
<path d="M307.976 96.7068V123.211H307.869L290.5 96.7068H282.795V135.937H290.5V109.945H290.607L307.788 135.937H315.708V96.7068H307.976Z" fill="#84818D"/>
<g filter="url(#filter4_d)">
<ellipse rx="99.4636" ry="99.0053" transform="matrix(-1 0 0 1 262.361 267.634)" fill="#FAFAFA"/>
</g>
<ellipse rx="68.4543" ry="67.3677" transform="matrix(-1 0 0 1 262.202 267.164)" fill="#FD3E72"/>
<path d="M202.94 267.164C202.94 299.285 229.464 325.339 262.202 325.339C294.94 325.339 321.464 299.285 321.464 267.164C321.464 235.043 294.94 208.989 262.202 208.989C229.464 208.989 202.94 235.043 202.94 267.164Z" fill="#FD3E72" stroke="white"/>
<path fill-rule="evenodd" clip-rule="evenodd" d="M262.581 229.736C241.879 229.736 225.097 246.518 225.097 267.219C225.097 287.921 241.879 304.703 262.581 304.703C283.283 304.703 300.065 287.921 300.065 267.219C300.065 246.518 283.283 229.736 262.581 229.736ZM217.915 267.219C217.915 242.551 237.912 222.553 262.581 222.553C287.249 222.553 307.247 242.551 307.247 267.219C307.247 291.888 287.249 311.886 262.581 311.886C237.912 311.886 217.915 291.888 217.915 267.219Z" fill="white"/>
<path fill-rule="evenodd" clip-rule="evenodd" d="M220.653 253.528C220.653 251.544 222.261 249.936 224.244 249.936H300.918C302.901 249.936 304.509 251.544 304.509 253.528C304.509 255.511 302.901 257.119 300.918 257.119H224.244C222.261 257.119 220.653 255.511 220.653 253.528Z" fill="white"/>
<path fill-rule="evenodd" clip-rule="evenodd" d="M220.653 280.911C220.653 278.928 222.261 277.32 224.244 277.32H300.918C302.901 277.32 304.509 278.928 304.509 280.911C304.509 282.894 302.901 284.502 300.918 284.502H224.244C222.261 284.502 220.653 282.894 220.653 280.911Z" fill="white"/>
<path fill-rule="evenodd" clip-rule="evenodd" d="M262.2 223.098C263.883 224.148 264.396 226.363 263.346 228.046C256.013 239.796 252.125 253.369 252.125 267.22C252.125 281.07 256.013 294.643 263.346 306.393C264.396 308.076 263.883 310.291 262.2 311.341C260.518 312.391 258.302 311.879 257.252 310.196C249.208 297.305 244.943 282.415 244.943 267.22C244.943 252.024 249.208 237.134 257.252 224.243C258.302 222.561 260.518 222.048 262.2 223.098Z" fill="white"/>
<path fill-rule="evenodd" clip-rule="evenodd" d="M262.962 223.098C264.644 222.048 266.86 222.561 267.91 224.243C275.954 237.134 280.219 252.024 280.219 267.22C280.219 282.415 275.954 297.305 267.91 310.196C266.86 311.879 264.644 312.391 262.962 311.341C261.279 310.291 260.766 308.076 261.816 306.393C269.149 294.643 273.037 281.07 273.037 267.22C273.037 253.369 269.149 239.796 261.816 228.046C260.766 226.363 261.279 224.148 262.962 223.098Z" fill="white"/>
<g filter="url(#filter5_d)">
<rect x="218.861" y="297.34" width="88.0047" height="38.5021" rx="10" fill="white"/>
<rect x="220.361" y="298.84" width="85.0047" height="35.5021" rx="8.5" stroke="#5B5863" stroke-width="3"/>
</g>
<path d="M234.445 327.351H241.263C242.873 327.351 244.343 327.11 245.66 326.601C246.976 326.105 248.068 325.411 248.964 324.505C249.86 323.599 250.546 322.523 251.022 321.248C251.498 319.988 251.75 318.6 251.75 317.085C251.75 315.584 251.498 314.183 250.994 312.908C250.49 311.634 249.79 310.544 248.88 309.637C247.97 308.731 246.85 308.023 245.534 307.513C244.217 307.004 242.761 306.749 241.179 306.749H234.445V327.351ZM238.421 323.712V310.402H241.263C242.467 310.402 243.545 310.699 244.511 311.266C245.464 311.832 246.22 312.625 246.752 313.644C247.284 314.664 247.564 315.811 247.564 317.085C247.564 318.02 247.396 318.898 247.088 319.705C246.78 320.526 246.332 321.22 245.772 321.815C245.212 322.409 244.511 322.862 243.699 323.202C242.873 323.542 241.977 323.712 241.011 323.712H238.421Z" fill="#FD3E72"/>
<path d="M268.523 306.749V320.668H268.467L259.408 306.749H255.39V327.351H259.408V313.701H259.464L268.425 327.351H272.555V306.749H268.523Z" fill="#FD3E72"/>
<path d="M283.154 327.592C283.84 327.592 284.512 327.521 285.184 327.379C285.842 327.238 286.486 326.997 287.116 326.657C287.746 326.317 288.306 325.921 288.782 325.44C289.258 324.958 289.636 324.363 289.93 323.641C290.21 322.919 290.364 322.126 290.364 321.248C290.364 320.399 290.224 319.662 289.972 319.011C289.552 317.992 288.698 317.128 287.438 316.42C286.878 316.122 285.758 315.641 284.064 314.961C283.532 314.763 283.098 314.593 282.79 314.452C282.482 314.31 282.16 314.154 281.852 313.984C281.544 313.814 281.306 313.644 281.152 313.475C280.984 313.305 280.858 313.121 280.774 312.908C280.676 312.71 280.634 312.469 280.634 312.214C280.634 311.577 280.872 311.067 281.32 310.699C281.768 310.331 282.356 310.147 283.084 310.147C284.4 310.147 285.884 310.827 287.522 312.172L289.846 309.099C287.732 307.343 285.45 306.48 282.986 306.508C281.782 306.536 280.676 306.805 279.682 307.315C278.674 307.825 277.89 308.533 277.316 309.425C276.728 310.331 276.448 311.322 276.448 312.398C276.448 312.936 276.504 313.446 276.63 313.928C276.756 314.409 276.924 314.82 277.12 315.188C277.316 315.556 277.582 315.896 277.904 316.222C278.226 316.547 278.548 316.83 278.884 317.057C279.206 317.284 279.598 317.524 280.046 317.751C280.494 317.977 280.9 318.176 281.292 318.317C281.67 318.473 282.104 318.643 282.608 318.813C283.154 319.011 283.602 319.167 283.938 319.308C284.274 319.45 284.596 319.606 284.904 319.776C285.212 319.946 285.45 320.13 285.618 320.3C285.786 320.484 285.912 320.696 286.01 320.923C286.094 321.163 286.15 321.432 286.15 321.73C286.15 322.169 286.038 322.551 285.828 322.862C285.604 323.188 285.282 323.443 284.834 323.627C284.386 323.825 283.854 323.91 283.224 323.91C282.804 323.91 282.384 323.868 281.964 323.755C281.53 323.655 281.096 323.5 280.662 323.287C280.228 323.089 279.794 322.82 279.36 322.48C278.926 322.154 278.52 321.772 278.156 321.333L275.734 324.349C276.77 325.44 277.932 326.247 279.206 326.785C280.48 327.323 281.796 327.592 283.154 327.592Z" fill="#FD3E72"/>
<g filter="url(#filter6_d)">
<path d="M262.616 341.035C262.616 341.035 288.368 382.922 281.63 395.931C277.584 403.744 271.327 407.744 262.616 407.744C253.904 407.744 247.648 403.744 243.601 395.931C236.863 382.922 262.616 341.035 262.616 341.035Z" fill="#5B5863"/>
<path d="M246.255 389.494C246.884 383.83 247.513 382.571 249.401 377.536C249.873 376.278 251.734 376.608 251.289 378.166C250.031 382.571 248.772 384.459 248.772 389.494C248.772 392.64 249.401 394.528 251.919 397.046C252.548 398.304 251.919 400.192 250.031 398.934C247.513 396.416 246.256 394.528 246.255 389.494Z" fill="white" stroke="white"/>
</g>
<defs>
<filter id="filter0_d" x="54.394" y="19.2576" width="416.785" height="509.738" filterUnits="userSpaceOnUse" color-interpolation-filters="sRGB">
<feFlood flood-opacity="0" result="BackgroundImageFix"/>
<feColorMatrix in="SourceAlpha" type="matrix" values="0 0 0 0 0 0 0 0 0 0 0 0 0 0 0 0 0 0 127 0" result="hardAlpha"/>
<feOffset dy="12"/>
<feGaussianBlur stdDeviation="12.5"/>
<feColorMatrix type="matrix" values="0 0 0 0 0 0 0 0 0 0 0 0 0 0 0 0 0 0 0.1 0"/>
<feBlend mode="normal" in2="BackgroundImageFix" result="effect1_dropShadow"/>
<feBlend mode="normal" in="SourceGraphic" in2="effect1_dropShadow" result="shape"/>
</filter>
<filter id="filter1_d" x="73.394" y="30.2576" width="378.785" height="471.737" filterUnits="userSpaceOnUse" color-interpolation-filters="sRGB">
<feFlood flood-opacity="0" result="BackgroundImageFix"/>
<feColorMatrix in="SourceAlpha" type="matrix" values="0 0 0 0 0 0 0 0 0 0 0 0 0 0 0 0 0 0 127 0" result="hardAlpha"/>
<feOffset dy="4"/>
<feGaussianBlur stdDeviation="3"/>
<feColorMatrix type="matrix" values="0 0 0 0 0 0 0 0 0 0 0 0 0 0 0 0 0 0 0.1 0"/>
<feBlend mode="normal" in2="BackgroundImageFix" result="effect1_dropShadow"/>
<feBlend mode="normal" in="SourceGraphic" in2="effect1_dropShadow" result="shape"/>
</filter>
<filter id="filter2_d" x="256.786" y="30.2581" width="195.392" height="471.737" filterUnits="userSpaceOnUse" color-interpolation-filters="sRGB">
<feFlood flood-opacity="0" result="BackgroundImageFix"/>
<feColorMatrix in="SourceAlpha" type="matrix" values="0 0 0 0 0 0 0 0 0 0 0 0 0 0 0 0 0 0 127 0" result="hardAlpha"/>
<feOffset dy="4"/>
<feGaussianBlur stdDeviation="3"/>
<feColorMatrix type="matrix" values="0 0 0 0 0 0 0 0 0 0 0 0 0 0 0 0 0 0 0.1 0"/>
<feBlend mode="normal" in2="BackgroundImageFix" result="effect1_dropShadow"/>
<feBlend mode="normal" in="SourceGraphic" in2="effect1_dropShadow" result="shape"/>
</filter>
<filter id="filter3_d" x="146.722" y="70.828" width="230.556" height="94.1854" filterUnits="userSpaceOnUse" color-interpolation-filters="sRGB">
<feFlood flood-opacity="0" result="BackgroundImageFix"/>
<feColorMatrix in="SourceAlpha" type="matrix" values="0 0 0 0 0 0 0 0 0 0 0 0 0 0 0 0 0 0 127 0" result="hardAlpha"/>
<feOffset dy="3"/>
<feGaussianBlur stdDeviation="6.5"/>
<feComposite in2="hardAlpha" operator="out"/>
<feColorMatrix type="matrix" values="0 0 0 0 0 0 0 0 0 0 0 0 0 0 0 0 0 0 0.25 0"/>
<feBlend mode="normal" in2="BackgroundImageFix" result="effect1_dropShadow"/>
<feBlend mode="normal" in="SourceGraphic" in2="effect1_dropShadow" result="shape"/>
</filter>
<filter id="filter4_d" x="147.897" y="157.628" width="228.927" height="228.011" filterUnits="userSpaceOnUse" color-interpolation-filters="sRGB">
<feFlood flood-opacity="0" result="BackgroundImageFix"/>
<feColorMatrix in="SourceAlpha" type="matrix" values="0 0 0 0 0 0 0 0 0 0 0 0 0 0 0 0 0 0 127 0" result="hardAlpha"/>
<feOffset dy="4"/>
<feGaussianBlur stdDeviation="7.5"/>
<feColorMatrix type="matrix" values="0 0 0 0 0 0 0 0 0 0 0 0 0 0 0 0 0 0 0.25 0"/>
<feBlend mode="normal" in2="BackgroundImageFix" result="effect1_dropShadow"/>
<feBlend mode="normal" in="SourceGraphic" in2="effect1_dropShadow" result="shape"/>
</filter>
<filter id="filter5_d" x="205.861" y="287.34" width="114.005" height="64.5021" filterUnits="userSpaceOnUse" color-interpolation-filters="sRGB">
<feFlood flood-opacity="0" result="BackgroundImageFix"/>
<feColorMatrix in="SourceAlpha" type="matrix" values="0 0 0 0 0 0 0 0 0 0 0 0 0 0 0 0 0 0 127 0" result="hardAlpha"/>
<feOffset dy="3"/>
<feGaussianBlur stdDeviation="6.5"/>
<feComposite in2="hardAlpha" operator="out"/>
<feColorMatrix type="matrix" values="0 0 0 0 0 0 0 0 0 0 0 0 0 0 0 0 0 0 0.15 0"/>
<feBlend mode="normal" in2="BackgroundImageFix" result="effect1_dropShadow"/>
<feBlend mode="normal" in="SourceGraphic" in2="effect1_dropShadow" result="shape"/>
</filter>
<filter id="filter6_d" x="231.477" y="334.035" width="62.2775" height="88.7096" filterUnits="userSpaceOnUse" color-interpolation-filters="sRGB">
<feFlood flood-opacity="0" result="BackgroundImageFix"/>
<feColorMatrix in="SourceAlpha" type="matrix" values="0 0 0 0 0 0 0 0 0 0 0 0 0 0 0 0 0 0 127 0" result="hardAlpha"/>
<feOffset dy="4"/>
<feGaussianBlur stdDeviation="5.5"/>
<feComposite in2="hardAlpha" operator="out"/>
<feColorMatrix type="matrix" values="0 0 0 0 0 0 0 0 0 0 0 0 0 0 0 0 0 0 0.25 0"/>
<feBlend mode="normal" in2="BackgroundImageFix" result="effect1_dropShadow"/>
<feBlend mode="normal" in="SourceGraphic" in2="effect1_dropShadow" result="shape"/>
</filter>
</defs>
</svg>
