<svg width="526" height="522" viewBox="0 0 526 522" fill="none" xmlns="http://www.w3.org/2000/svg">
<circle opacity="0.3" r="245.5" transform="matrix(-1 0 0 1 257.5 276.5)" fill="#FFF6F9"/>
<path opacity="0.3" d="M257.5 458C157.26 458 76 376.74 76 276.5C76 176.26 157.26 95 257.5 95C357.74 95 439 176.26 439 276.5C439 376.74 357.74 458 257.5 458Z" fill="#FFE8ED"/>
<path opacity="0.5" d="M382.876 269.417C59.9542 464.022 -30.4877 8.43529 253.512 102.958" stroke="#E93264" stroke-width="4" stroke-linecap="round" stroke-dasharray="18 18"/>
<g filter="url(#filter0_d)">
<rect x="14.4219" y="125.255" width="153.976" height="212.888" rx="18" fill="white"/>
</g>
<g opacity="0.7">
<path d="M28.6851 297.289C28.6851 295.08 30.4759 293.289 32.6851 293.289H38.2801C39.2152 293.289 39.9733 294.047 39.9733 294.982C39.9733 295.918 40.7314 296.676 41.6666 296.676H61.9364C64.1455 296.676 65.9364 298.467 65.9364 300.676V319.768C65.9364 321.977 64.1455 323.768 61.9364 323.768H32.6851C30.4759 323.768 28.6851 321.977 28.6851 319.768V297.289Z" fill="#D02C59"/>
<path d="M32.6137 301.669C32.9531 299.76 34.6129 298.369 36.552 298.369H65.6778C68.1671 298.369 70.0518 300.618 69.6161 303.069L66.523 320.468C66.1836 322.377 64.5238 323.768 62.5848 323.768H33.4589C30.9696 323.768 29.0849 321.518 29.5206 319.068L32.6137 301.669Z" fill="#FD3E72"/>
</g>
<g opacity="0.7">
<rect x="82.0381" y="291.281" width="45.5048" height="7.20247" rx="3.60123" fill="#E8E8E8"/>
<rect x="82.0376" y="304.785" width="31.026" height="7.20247" rx="3.60123" fill="#E8E8E8"/>
<rect x="115.649" y="304.785" width="31.026" height="7.20247" rx="3.60123" fill="#E8E8E8"/>
<rect x="82.0376" y="318.289" width="50.1587" height="7.20247" rx="3.60123" fill="#E8E8E8"/>
<rect x="130.128" y="291.281" width="26.8892" height="7.20247" rx="3.60123" fill="#E8E8E8"/>
</g>
<g opacity="0.7">
<mask id="mask0" mask-type="alpha" maskUnits="userSpaceOnUse" x="21" y="132" width="141" height="150">
<rect x="21.7859" y="132.619" width="139.917" height="149.042" rx="10" fill="#C4C4C4"/>
</mask>
<g mask="url(#mask0)">
<path d="M161.703 94.3512V301.189C161.703 306.691 159.518 311.968 155.627 315.858C151.737 319.749 146.46 321.934 140.958 321.934H42.5758C37.0739 321.934 31.7973 319.749 27.9069 315.858C24.0164 311.968 21.8308 306.691 21.8308 301.189V94.3512C21.8308 88.8493 24.0164 83.5727 27.9069 79.6823C31.7973 75.7918 37.0739 73.6062 42.5758 73.6062H83.7123L83.7531 73.7557C84.9698 78.1331 87.7702 80.9811 90.8766 80.9811H92.6574C95.7637 80.9811 98.5642 78.1331 99.7809 73.7557L99.8284 73.6062H140.958C146.46 73.6062 151.737 75.7918 155.627 79.6823C159.518 83.5727 161.703 88.8493 161.703 94.3512Z" fill="#FFA3BC"/>
<path d="M107.598 225.1V159.65H137.641C137.902 159.65 138.157 159.575 138.377 159.434C138.596 159.293 138.77 159.092 138.878 158.855L161.696 108.963V102.431L136.771 156.931H107.598V73.6045H104.879V107.108C77.7444 104.43 61.873 117.222 53.2678 128.56C47.8676 135.789 43.8551 143.957 41.4339 152.649L21.8308 140.203V143.425L56.9382 165.72V205.483L21.8512 199.087V201.847L104.899 216.998V224.475L21.8308 290.788V294.268L59.392 264.279L88.0149 303.023C88.1415 303.194 88.3065 303.333 88.4966 303.428C88.6867 303.524 88.8965 303.574 89.1093 303.573C89.2238 303.573 89.3378 303.559 89.4491 303.533L134.569 291.977V321.96H137.288V265.638C137.289 265.387 137.22 265.14 137.089 264.925C136.959 264.71 136.771 264.536 136.547 264.422L126.446 259.297L143.765 240.4L161.696 247.286V244.37L143.84 237.505C143.586 237.407 143.308 237.387 143.043 237.449C142.777 237.511 142.536 237.651 142.352 237.852L123.89 258.026L89.1773 240.489L107.088 226.215C107.254 226.082 107.387 225.912 107.475 225.718C107.564 225.525 107.606 225.313 107.598 225.1ZM134.603 266.474V289.136L89.6938 300.637L61.5467 262.573L86.8798 242.344L134.603 266.474ZM104.913 214.225L59.6367 205.973V167.426L104.879 196.151L104.913 214.225ZM104.913 192.929L43.8469 154.165C46.16 145.517 50.0926 137.387 55.4361 130.205C67.3039 114.53 83.9366 107.686 104.879 109.813L104.913 192.929Z" fill="white"/>
<path d="M161.703 197.116H157.631L147.354 222.816H126.799L137.648 197.687H121.661V173.135H145.641L161.703 141.957V197.116Z" fill="#FF7299"/>
<path d="M49.9844 151.739L100.447 184.332V115.993C100.447 115.993 64.3536 112.485 49.9844 151.739Z" fill="#FF7299"/>
<path d="M97.1026 257.353L78.7502 270.267L88.946 289.299L125.651 287.26L127.69 269.587L113.416 263.47L107.298 272.986L101.181 269.587L106.619 259.392L97.1026 257.353Z" fill="#FF7299"/>
<path d="M38.2933 219.014V255.733L21.8306 264.107V218.239L38.2933 219.014Z" fill="#FF7299"/>
<path d="M65.6991 241.804V220.297L42.8606 219.23V253.413L65.6991 241.804Z" fill="#FF7299"/>
<path d="M69.125 220.461V240.057L82.8281 233.097V221.1L69.125 220.461Z" fill="#FF7299"/>
</g>
</g>
<circle opacity="0.7" cx="68.3134" cy="178.477" r="10.3766" fill="#EBEBEB"/>
<g opacity="0.7">
<mask id="mask1" mask-type="alpha" maskUnits="userSpaceOnUse" x="59" y="170" width="19" height="19">
<circle cx="68.3134" cy="179.146" r="9.03772" fill="#C4C4C4"/>
</mask>
<g mask="url(#mask1)">
<circle cx="68.6481" cy="179.481" r="10.0419" fill="#EBEBEB"/>
<path d="M73.3905 187.962L71.5259 189.17L71.3567 191.054C71.3567 191.054 71.9027 191.309 72.7094 190.577C73.5161 189.846 74.5617 188.363 74.5617 188.363L73.3905 187.962Z" fill="#FFAB80"/>
<path d="M73.3073 188.735L72.6972 185.64L71.0674 186.284L71.4837 190.363L73.3073 188.735Z" fill="#FFAB80"/>
<path d="M77.7218 184.817C77.7098 184.785 77.6897 184.756 77.6634 184.733C77.6371 184.711 77.6055 184.696 77.5716 184.689L76.4004 184.465C76.3494 184.456 76.297 184.458 76.2467 184.47C76.1963 184.483 76.1492 184.505 76.1083 184.537L72.573 187.319L72.7177 187.48L73.968 187.861L77.7422 184.875L77.7218 184.817Z" fill="#263238"/>
<path d="M76.7715 185.01C76.7757 185.027 76.7852 185.043 76.7987 185.054C76.8122 185.066 76.8289 185.073 76.8465 185.074C76.8642 185.076 76.8818 185.072 76.897 185.063C76.9122 185.053 76.9242 185.04 76.9312 185.024C76.9383 185.007 76.9401 184.989 76.9364 184.972C76.9326 184.955 76.9236 184.939 76.9105 184.927C76.8973 184.915 76.8808 184.908 76.8632 184.906C76.8456 184.904 76.8279 184.907 76.8124 184.916C76.7949 184.924 76.7809 184.937 76.7733 184.955C76.7657 184.972 76.765 184.992 76.7715 185.01Z" fill="white"/>
<path d="M77.7423 184.874C77.6647 184.869 77.5876 184.859 77.5116 184.843L76.8878 184.733L76.4565 184.654C76.4209 184.645 76.3838 184.645 76.3479 184.652C76.312 184.659 76.2782 184.675 76.249 184.697L76.0456 184.856L75.142 185.569C74.4991 186.074 73.9135 186.524 73.4903 186.852L72.9853 187.235C72.9253 187.286 72.8614 187.332 72.7942 187.372C72.8473 187.316 72.9053 187.264 72.9675 187.218L73.4589 186.816C73.8766 186.482 74.4554 186.022 75.0969 185.517L76.0047 184.809L76.2094 184.65C76.2455 184.623 76.2871 184.605 76.3312 184.596C76.3754 184.587 76.4209 184.588 76.4647 184.598L76.8933 184.687L77.5143 184.824C77.5917 184.834 77.6679 184.851 77.7423 184.874Z" fill="#455A64"/>
<path d="M76.0672 185.727C76.0672 185.727 75.9744 185.675 75.827 185.929C75.6796 186.183 75.2373 186.906 75.2373 186.906L74.8169 186.452L74.1344 186.315C74.1344 186.315 73.946 186.398 74.0266 186.506C74.1698 186.631 74.3269 186.738 74.4947 186.827L74.6517 187.373L73.9133 186.648C73.9133 186.648 73.5952 186.625 73.6198 186.832C73.6444 187.04 74.0457 187.797 74.0457 187.797L73.6184 187.615L73.2089 187.122C73.2089 187.122 73.0465 187.075 73.0588 187.231C73.0711 187.387 73.4478 188.064 73.4478 188.064L73.9938 188.61C73.9938 188.61 74.361 188.702 74.432 188.61C74.4833 188.534 74.5267 188.453 74.5616 188.368C74.5616 188.368 74.7691 188.382 74.8346 188.301C74.8821 188.231 74.9142 188.151 74.9288 188.068C74.9288 188.068 75.21 188.222 75.3028 188.068C75.4002 187.869 75.4638 187.655 75.4912 187.436C75.5035 187.299 76.0659 186.161 76.0659 186.12C76.0659 186.079 76.2815 185.712 76.0672 185.727Z" fill="#FFAB80"/>
<path d="M74.4539 188.615C74.3916 188.63 74.3265 188.63 74.2642 188.615C74.1129 188.587 73.9684 188.531 73.8383 188.449C73.7076 188.367 73.594 188.261 73.5039 188.136C73.4615 188.088 73.4315 188.031 73.4165 187.968C73.5516 188.127 73.7061 188.268 73.8765 188.389C74.0593 188.487 74.2531 188.563 74.4539 188.615Z" fill="#EB996E"/>
<path d="M74.3787 188.327C74.3637 188.339 74.2681 188.238 74.1781 188.094C74.088 187.949 74.0416 187.821 74.0579 187.811C74.0743 187.802 74.1508 187.916 74.2381 188.057C74.3255 188.197 74.3951 188.315 74.3787 188.327Z" fill="#EB996E"/>
<path d="M74.9167 187.877C74.9017 187.889 74.8062 187.79 74.727 187.642C74.6683 187.558 74.6356 187.458 74.6328 187.356C74.6519 187.349 74.712 187.466 74.7884 187.608C74.8649 187.75 74.9331 187.865 74.9167 187.877Z" fill="#EB996E"/>
<path d="M75.4352 187.544C75.391 187.442 75.3562 187.337 75.3314 187.23C75.2873 187.13 75.2521 187.027 75.2263 186.921C75.3064 187.003 75.3671 187.101 75.4039 187.209C75.4408 187.318 75.4529 187.433 75.4393 187.546L75.4352 187.544Z" fill="#EB996E"/>
<path d="M67.1867 173.322C67.2718 172.984 67.4575 172.679 67.7193 172.449C67.9812 172.218 68.3068 172.072 68.6532 172.031C68.9995 171.989 69.3504 172.054 69.6593 172.216C69.9682 172.378 70.2207 172.63 70.3835 172.938C70.6879 173.514 70.6824 174.282 71.1888 174.694C71.5355 174.976 72.0392 175.008 72.3777 175.3C73.0944 175.92 72.6794 177.294 73.4397 177.859C72.9631 178.247 72.402 178.517 71.8017 178.648C71.7597 178.441 71.657 178.251 71.5069 178.102C71.6352 178.45 71.4427 178.852 71.1465 179.075C70.8503 179.299 70.4736 179.381 70.1091 179.445C69.23 179.604 68.3196 179.691 67.4474 179.5C66.5751 179.309 65.7384 178.797 65.3275 177.998C65.2224 177.798 65.1419 177.575 64.974 177.424C64.8061 177.272 64.5386 177.205 64.3133 177.106C64.0063 176.963 63.7486 176.732 63.5725 176.443C63.3963 176.153 63.3098 175.818 63.3237 175.48C63.9011 175.443 64.2983 174.886 64.5304 174.357C64.7624 173.827 64.9522 173.228 65.4272 172.897C65.5855 172.787 65.7668 172.715 65.9573 172.685C66.1478 172.656 66.3426 172.67 66.5268 172.727C66.7109 172.784 66.8797 172.882 67.0203 173.014C67.1609 173.146 67.2696 173.308 67.3382 173.488" fill="#5B5863"/>
<path d="M65.8229 174.589L65.7983 174.103L68.7003 173.457C69.5971 173.335 70.599 174.207 70.6837 175.108C70.7778 176.11 70.8543 177.337 70.7587 178.089C70.5663 179.603 69.4183 179.829 69.4183 179.829L69.4579 181.671L66.1328 181.552L65.8229 174.589Z" fill="#FFAB81"/>
<path d="M69.4169 179.834C68.6917 179.868 67.971 179.703 67.3325 179.357C67.3325 179.357 67.8785 180.396 69.4278 180.209L69.4169 179.834Z" fill="#EB996E"/>
<path d="M68.6551 173.522C68.6336 173.839 68.5183 174.143 68.3239 174.394C68.1295 174.646 67.8646 174.834 67.5631 174.935C67.3229 175.011 67.0171 175.071 66.942 175.307C66.867 175.544 67.0922 175.785 67.2027 176.023C67.2675 176.17 67.2873 176.334 67.2597 176.493C67.232 176.651 67.158 176.798 67.0471 176.915C66.9202 177.052 66.7496 177.131 66.6294 177.268C66.5517 177.361 66.4962 177.471 66.4671 177.59C66.438 177.708 66.4361 177.831 66.4615 177.95C66.5131 178.188 66.6387 178.404 66.8205 178.567C66.2513 178.6 65.6262 178.31 65.4405 177.771C65.33 177.449 65.3873 177.098 65.4323 176.761C65.5348 175.992 65.5664 175.215 65.5265 174.441C65.5054 174.31 65.5269 174.177 65.588 174.06C65.6736 173.961 65.7892 173.894 65.9169 173.867C66.7221 173.617 67.5428 173.421 68.3739 173.279" fill="#5B5863"/>
<path d="M68.3184 173.304C68.4619 173.601 68.6507 173.873 68.878 174.111C68.9929 174.229 69.1336 174.32 69.2892 174.375C69.4447 174.43 69.6109 174.449 69.7748 174.429C69.7161 174.331 69.6574 174.232 69.6001 174.134C70.0591 174.607 70.6119 174.979 71.2231 175.226C70.9228 174.661 70.6116 174.082 70.1311 173.659C69.6506 173.236 68.9544 172.996 68.3566 173.221" fill="#5B5863"/>
<path d="M69.6439 181.076L65.9338 180.79L66.5563 182.756L69.7313 183.814L70.153 183.101L69.6439 181.076Z" fill="#FFAB81"/>
<path d="M62.6002 184.268C62.1555 184.125 61.6844 184.082 61.2212 184.144C60.7579 184.205 60.3142 184.369 59.9221 184.623C59.53 184.877 59.1994 185.215 58.9543 185.613C58.7093 186.011 58.5559 186.459 58.5053 186.923C58.407 187.824 58.6991 188.741 58.5448 189.634C58.4315 190.292 58.0835 190.886 57.9292 191.536C57.5962 192.935 58.2623 194.478 59.4307 195.311C60.5992 196.144 62.1976 196.282 63.5516 195.798L64.9439 193.614L64.0212 185.222L62.5975 184.267" fill="#455A64"/>
<path d="M64.8236 190.21C64.8236 190.21 64.5056 191.915 64.6967 192.173C64.8219 192.331 65.0033 192.435 65.2031 192.462L71.3565 191.986L71.5612 188.599C71.5612 188.599 72.1809 186.279 71.8957 185.295C71.6104 184.311 70.386 181.298 70.386 181.298L69.4428 181.016C69.4428 181.016 69.4428 182 69.0961 182.062C68.7493 182.125 67.0718 182.136 66.25 181.076L65.9334 180.79L64.178 182.069L64.9888 189.005L64.8236 190.21Z" fill="#FD3E72"/>
<path d="M62.0488 184.147C62.0488 184.147 63.1954 182.425 63.6541 181.939C64.3761 181.175 65.3958 180.864 65.6401 181.006C65.9759 181.2 67.6508 182.943 67.7845 184.119C67.9183 185.296 67.7845 188.214 67.7845 188.214L66.369 188.642L66.354 187.232L66.1192 183.763C66.1192 183.763 65.5391 182.125 64.1796 182.07C64.1796 182.07 62.7586 183.265 62.7081 184.414L62.0488 184.147Z" fill="#455A64"/>
<path d="M61.7579 196.075C61.6123 195.995 61.4751 195.9 61.3484 195.793C60.9983 195.501 60.7113 195.141 60.5049 194.735C60.3612 194.455 60.2525 194.159 60.1814 193.853C60.1069 193.5 60.0685 193.141 60.0667 192.78C60.0531 192.02 60.1773 191.191 60.3233 190.331C60.482 189.528 60.5778 188.714 60.61 187.896C60.6152 187.54 60.5901 187.184 60.5349 186.832C60.4803 186.501 60.4107 186.194 60.3766 185.909C60.3383 185.652 60.3383 185.39 60.3766 185.133C60.4055 184.939 60.4684 184.752 60.5622 184.579C60.6215 184.47 60.6985 184.371 60.7901 184.287C60.8211 184.258 60.855 184.231 60.8912 184.208C60.7679 184.317 60.6648 184.447 60.5868 184.592C60.4994 184.763 60.4412 184.947 60.4148 185.138C60.383 185.391 60.3872 185.647 60.4271 185.899C60.4653 186.182 60.5363 186.486 60.5936 186.819C60.653 187.174 60.6808 187.534 60.6769 187.893C60.6492 188.716 60.5552 189.534 60.3957 190.341C60.2364 191.144 60.1487 191.959 60.1336 192.777C60.1339 193.133 60.1696 193.488 60.2401 193.837C60.3077 194.14 60.4122 194.433 60.5513 194.71C60.7524 195.113 61.0307 195.473 61.3703 195.77C61.429 195.823 61.4863 195.866 61.5341 195.906C61.5818 195.946 61.6242 195.976 61.6583 195.999L61.7361 196.055C61.7439 196.061 61.7512 196.068 61.7579 196.075Z" fill="#263238"/>
<path d="M70.3862 181.298C70.3862 181.298 71.4919 181.794 71.8713 182.419C72.2508 183.044 73.28 186.627 73.28 186.627L71.8331 186.913L70.3862 181.298Z" fill="#FD3E72"/>
<path d="M71.1874 186.469C71.1874 186.469 70.8543 183.193 70.7151 182.983C70.5758 182.772 70.3506 181.175 69.6436 181.072C69.6436 181.072 70.3888 181.244 70.8188 181.519C71.2488 181.795 71.7156 183.283 71.7156 183.283L71.9886 185.876L71.1874 186.469Z" fill="#455A64"/>
<path d="M62.368 183.6C62.3124 183.52 62.2436 183.451 62.1646 183.394C62.0761 183.339 61.9751 183.308 61.8712 183.304C61.7434 183.3 61.6173 183.333 61.5067 183.397C61.3055 183.52 61.1487 183.704 61.059 183.922C60.9839 184.09 60.9553 184.202 60.9443 184.195C60.9476 184.093 60.9708 183.992 61.0126 183.899C61.0942 183.661 61.257 183.459 61.4726 183.33C61.5943 183.26 61.7337 183.227 61.8739 183.234C61.9883 183.242 62.0982 183.281 62.1919 183.348C62.2373 183.375 62.2763 183.412 62.3066 183.455C62.337 183.499 62.3579 183.548 62.368 183.6Z" fill="#263238"/>
<path d="M66.118 183.763C66.0852 183.703 66.056 183.642 66.0307 183.578L65.9856 183.477C65.9665 183.441 65.946 183.402 65.9228 183.361C65.8996 183.32 65.8751 183.275 65.8505 183.225L65.7549 183.088C65.5935 182.854 65.3921 182.65 65.1598 182.485C64.8693 182.278 64.5313 182.148 64.177 182.106C63.9123 182.097 63.6523 182.176 63.4372 182.331H63.4454C63.4358 182.34 63.4276 182.351 63.4181 182.362C62.8739 183.003 62.3844 183.688 61.9548 184.41C61.791 184.683 61.664 184.916 61.5781 185.074L61.4798 185.257C61.4695 185.28 61.4562 185.301 61.4402 185.32C61.4463 185.297 61.455 185.274 61.4661 185.252C61.4852 185.208 61.5139 185.143 61.5535 185.062C61.6327 184.898 61.7514 184.665 61.9125 184.38C62.3306 183.645 62.8168 182.952 63.3648 182.309L63.3908 182.278C63.5107 182.201 63.6389 182.139 63.773 182.092C63.9039 182.044 64.044 182.028 64.1825 182.043C64.5494 182.086 64.8989 182.224 65.1967 182.443C65.4329 182.613 65.6356 182.825 65.7945 183.069L65.8873 183.215C65.9119 183.263 65.9338 183.31 65.9556 183.352L66.0157 183.471L66.0552 183.574C66.0811 183.635 66.1021 183.698 66.118 183.763Z" fill="#263238"/>
<path d="M64.9656 182.164C64.8215 182.048 64.6398 181.99 64.4552 181.999C64.2707 182.009 64.0962 182.087 63.9651 182.217C63.4628 182.719 62.7366 183.563 62.712 184.247C62.6779 185.294 62.51 188.069 62.51 188.069L66.3593 187.932C66.3593 187.932 66.3593 184.247 66.0221 183.407C65.831 182.925 65.3492 182.469 64.9656 182.164Z" fill="#FD3E72"/>
<path d="M62.9538 188.064C62.9538 188.064 62.7341 190.181 62.9784 191.153C63.2309 192.159 63.7291 192.144 64.1482 192.174C64.5672 192.204 71.1834 188.736 71.1834 188.736L70.449 187.432L65.4681 188.934L65.5132 187.96L62.9538 188.064Z" fill="#FFAB80"/>
<path d="M70.408 187.467L71.6023 185.972L72.6807 185.722L73.9938 185.867C74.0056 185.928 73.9965 185.991 73.968 186.045C73.9395 186.1 73.8933 186.144 73.8368 186.169L74.2968 186.195C74.3092 186.228 74.3145 186.264 74.3125 186.3C74.3105 186.336 74.3012 186.371 74.2853 186.403C74.2693 186.435 74.247 186.463 74.2196 186.486C74.1923 186.51 74.1605 186.527 74.1262 186.537L74.4538 186.595C74.4112 186.691 74.3377 186.77 74.2449 186.819C74.1521 186.869 74.0455 186.886 73.9419 186.868C73.6194 186.824 73.2942 186.802 72.9687 186.802L72.3258 187.157L73.2813 187.117L73.9788 187.254C73.9788 187.254 74.0702 187.431 73.9133 187.474C73.6594 187.495 73.4041 187.495 73.1502 187.474L72.2302 187.714C72.2302 187.714 72.0337 188.305 71.9149 188.436C71.7962 188.567 71.1396 188.738 71.1396 188.738L70.408 187.467Z" fill="#FFAB80"/>
<path d="M74.2967 186.2C74.1774 186.208 74.0576 186.204 73.9391 186.188C73.7194 186.17 73.4163 186.141 73.0819 186.106L72.7611 186.069H72.7748C72.525 186.138 72.3093 186.197 72.1551 186.235C72.0741 186.262 71.9902 186.278 71.9053 186.285C71.9808 186.245 72.0605 186.215 72.1428 186.193C72.2943 186.144 72.5072 186.077 72.7557 186.002H72.7693L73.0915 186.036C73.4245 186.072 73.7275 186.108 73.9459 186.138C74.0646 186.147 74.1821 186.168 74.2967 186.2Z" fill="#EB996E"/>
<path d="M74.3759 186.586C74.2676 186.59 74.1591 186.583 74.0524 186.564C73.8531 186.541 73.5787 186.505 73.277 186.46L72.9767 186.415H72.9945C72.7493 186.524 72.4966 186.615 72.2383 186.688C72.4731 186.56 72.7172 186.45 72.9686 186.358H72.9767H72.9863L73.288 186.4C73.5896 186.444 73.8626 186.488 74.0592 186.523C74.1667 186.532 74.2729 186.553 74.3759 186.586Z" fill="#EB996E"/>
<path d="M71.1423 188.735C71.1767 188.721 71.2118 188.71 71.2474 188.699C71.317 188.678 71.4208 188.646 71.5518 188.598C71.616 188.574 71.6883 188.547 71.7661 188.51C71.8057 188.493 71.8433 188.471 71.878 188.446C71.9132 188.416 71.9412 188.378 71.9599 188.336C72.0587 188.132 72.1427 187.92 72.2111 187.703V187.692H72.2234L73.142 187.448H73.1516C73.3072 187.457 73.4737 187.464 73.6457 187.464C73.7312 187.466 73.8166 187.46 73.901 187.446C73.9177 187.444 73.9333 187.437 73.9458 187.425C73.9582 187.414 73.9669 187.399 73.9706 187.382C73.9752 187.343 73.9676 187.304 73.9487 187.269L73.9706 187.285L73.2744 187.156H73.2813L72.3258 187.197H72.1783L72.308 187.126L72.9509 186.771H72.9591H72.9673C73.2116 186.771 73.4669 186.782 73.7276 186.808C73.8 186.816 73.8709 186.824 73.9419 186.836C74.0063 186.85 74.0728 186.85 74.1371 186.836C74.1989 186.818 74.256 186.786 74.3049 186.744C74.3538 186.702 74.3934 186.65 74.421 186.592L74.447 186.64L74.118 186.582L73.9979 186.561L74.1112 186.515C74.1695 186.494 74.218 186.451 74.2477 186.397C74.261 186.369 74.2687 186.339 74.2703 186.309C74.272 186.278 74.2675 186.248 74.2572 186.219L74.2873 186.241L73.8273 186.214L73.7017 186.207L73.815 186.15C73.8649 186.126 73.9063 186.087 73.9337 186.039C73.9584 185.992 73.9661 185.938 73.9556 185.886L73.9842 185.911L72.6697 185.762H72.6807L71.601 186.006L71.6146 185.998L70.7315 187.09L70.4898 187.382L70.4257 187.457C70.4107 187.474 70.4025 187.482 70.4011 187.481L70.4202 187.452L70.4789 187.373L70.7219 187.057C70.9307 186.794 71.2242 186.419 71.5887 185.954H71.5969L72.6738 185.692H72.6834L73.9979 185.829H74.0211V185.852C74.0366 185.92 74.0274 185.991 73.9952 186.053C73.9609 186.113 73.9089 186.16 73.8464 186.189L73.8327 186.125L74.2927 186.151H74.3159V186.171C74.3298 186.209 74.3359 186.25 74.334 186.29C74.3322 186.33 74.3223 186.37 74.305 186.406C74.2661 186.477 74.2025 186.532 74.1262 186.559L74.1344 186.511L74.4634 186.57L74.5084 186.577L74.4893 186.618C74.4579 186.686 74.4121 186.747 74.3551 186.796C74.2981 186.846 74.2312 186.882 74.159 186.903C74.0847 186.919 74.008 186.919 73.9337 186.903C73.8655 186.892 73.7972 186.883 73.7249 186.876C73.4683 186.85 73.213 186.842 72.9714 186.839H72.9892L72.3421 187.194L72.3244 187.13L73.2799 187.092H73.2881L73.9842 187.228H74.0006V187.242C74.0246 187.289 74.0341 187.343 74.0279 187.396C74.0215 187.424 74.007 187.449 73.9864 187.469C73.9658 187.488 73.9399 187.501 73.9119 187.506C73.8218 187.522 73.7303 187.529 73.6389 187.526C73.4642 187.526 73.299 187.515 73.1407 187.504H73.1489L72.2398 187.74L72.2548 187.725C72.1841 187.944 72.096 188.156 71.9913 188.361C71.9696 188.407 71.9379 188.448 71.8985 188.48C71.8606 188.505 71.8204 188.527 71.7784 188.545C71.7071 188.577 71.6342 188.604 71.56 188.628C71.4235 188.672 71.3225 188.701 71.2515 188.719L71.171 188.738C71.1519 188.735 71.1437 188.736 71.1423 188.735Z" fill="#EB996E"/>
<path d="M62.4434 188.065C62.4642 188.059 62.4858 188.056 62.5075 188.057L62.6945 188.044L63.3907 188.011L65.778 187.92L65.7453 187.953C65.7535 187.618 65.7453 187.262 65.7289 186.895C65.6989 186.289 65.6456 185.713 65.6129 185.187C65.5938 184.924 65.5869 184.674 65.5651 184.442C65.5482 184.227 65.5153 184.013 65.4668 183.803C65.3986 183.498 65.2716 183.208 65.0928 182.951C64.9631 182.773 64.8676 182.692 64.8731 182.688C64.8988 182.703 64.9223 182.722 64.9427 182.744C65.0056 182.803 65.0636 182.867 65.116 182.935C65.3054 183.19 65.441 183.482 65.5146 183.791C65.5676 184.003 65.6041 184.219 65.6238 184.437C65.6484 184.67 65.6579 184.92 65.677 185.182C65.7153 185.707 65.7699 186.283 65.7999 186.891C65.819 187.259 65.8245 187.618 65.8135 187.956V187.988H65.7821L63.3934 188.055L62.6959 188.067H62.5089L62.4434 188.065Z" fill="#E33766"/>
</g>
</g>
<path opacity="0.7" d="M80.7414 169.695C77.6278 165.411 73.1016 163.414 68.3715 163.414C68.3715 163.414 56.8043 163.414 53.3787 173.775C52.1137 177.594 52.3948 181.74 53.9284 185.459C54.5028 186.873 55.2271 188.221 56.0889 189.48C59.0815 193.797 68.3772 205.59 68.3772 205.59C68.3772 205.59 79.1178 190.806 81.4822 186.165C83.9393 181.337 84.3174 174.616 80.7414 169.695ZM68.2858 188.863C66.3314 188.863 64.4208 188.283 62.7958 187.196C61.1707 186.11 59.9041 184.566 59.1562 182.759C58.4083 180.952 58.2126 178.964 58.5939 177.046C58.9752 175.128 59.9163 173.366 61.2983 171.984C62.6803 170.601 64.4411 169.659 66.358 169.278C68.2748 168.896 70.2617 169.092 72.0674 169.84C73.8731 170.589 75.4164 171.856 76.5022 173.482C77.5881 175.108 78.1676 177.02 78.1676 178.975C78.1773 180.276 77.9284 181.566 77.4352 182.77C76.9421 183.974 76.2145 185.068 75.295 185.988C74.3754 186.908 73.2822 187.636 72.0789 188.13C70.8756 188.623 69.5862 188.872 68.2858 188.863Z" fill="#484550"/>
<g filter="url(#filter1_d)">
<ellipse rx="74.5192" ry="74.1758" transform="matrix(-1 0 0 1 256.409 85.1758)" fill="#FAFAFA"/>
</g>
<ellipse rx="51.2867" ry="50.4726" transform="matrix(-1 0 0 1 256.29 84.8243)" fill="#FD3E72"/>
<path d="M212.015 84.824C212.015 108.818 231.829 128.284 256.29 128.284C280.75 128.284 300.564 108.818 300.564 84.824C300.564 60.8303 280.75 41.3639 256.29 41.3639C231.829 41.3639 212.015 60.8303 212.015 84.824Z" fill="#FD3E72" stroke="white"/>
<path fill-rule="evenodd" clip-rule="evenodd" d="M256.573 56.7822C241.063 56.7822 228.49 69.3555 228.49 84.8655C228.49 100.375 241.063 112.949 256.573 112.949C272.083 112.949 284.657 100.375 284.657 84.8655C284.657 69.3555 272.083 56.7822 256.573 56.7822ZM223.109 84.8655C223.109 66.3836 238.091 51.401 256.573 51.401C275.055 51.401 290.038 66.3836 290.038 84.8655C290.038 103.347 275.055 118.33 256.573 118.33C238.091 118.33 223.109 103.347 223.109 84.8655Z" fill="white"/>
<path fill-rule="evenodd" clip-rule="evenodd" d="M225.161 74.6075C225.161 73.1215 226.365 71.9169 227.851 71.9169H285.296C286.782 71.9169 287.986 73.1215 287.986 74.6075C287.986 76.0935 286.782 77.2981 285.296 77.2981H227.851C226.365 77.2981 225.161 76.0935 225.161 74.6075Z" fill="white"/>
<path fill-rule="evenodd" clip-rule="evenodd" d="M225.161 95.1233C225.161 93.6373 226.365 92.4327 227.851 92.4327H285.296C286.782 92.4327 287.986 93.6373 287.986 95.1233C287.986 96.6093 286.782 97.8139 285.296 97.8139H227.851C226.365 97.8139 225.161 96.6093 225.161 95.1233Z" fill="white"/>
<path fill-rule="evenodd" clip-rule="evenodd" d="M256.288 51.8092C257.549 52.5959 257.933 54.2556 257.146 55.5162C251.653 64.3198 248.74 74.4886 248.74 84.8657C248.74 95.2428 251.653 105.412 257.146 114.215C257.933 115.476 257.549 117.135 256.288 117.922C255.028 118.709 253.368 118.325 252.581 117.064C246.554 107.406 243.359 96.25 243.359 84.8657C243.359 73.4813 246.554 62.3255 252.581 52.6673C253.368 51.4067 255.028 51.0225 256.288 51.8092Z" fill="white"/>
<path fill-rule="evenodd" clip-rule="evenodd" d="M256.859 51.8092C258.119 51.0225 259.779 51.4067 260.566 52.6673C266.593 62.3255 269.788 73.4813 269.788 84.8657C269.788 96.25 266.593 107.406 260.566 117.064C259.779 118.325 258.119 118.709 256.859 117.922C255.598 117.135 255.214 115.476 256 114.215C261.494 105.412 264.407 95.2428 264.407 84.8657C264.407 74.4886 261.494 64.3198 256 55.5162C255.214 54.2556 255.598 52.5959 256.859 51.8092Z" fill="white"/>
<g filter="url(#filter2_d)">
<rect x="223.818" y="107.432" width="65.9341" height="28.8462" rx="10" fill="white"/>
<rect x="225.318" y="108.932" width="62.9341" height="25.8462" rx="8.5" stroke="#5B5863" stroke-width="3"/>
</g>
<path d="M235.494 129.917H240.602C241.809 129.917 242.91 129.736 243.896 129.355C244.882 128.983 245.7 128.463 246.372 127.784C247.043 127.105 247.557 126.299 247.914 125.344C248.27 124.4 248.459 123.361 248.459 122.226C248.459 121.101 248.27 120.051 247.893 119.096C247.515 118.141 246.991 117.324 246.309 116.645C245.627 115.966 244.788 115.436 243.802 115.054C242.816 114.672 241.725 114.481 240.539 114.481H235.494V129.917ZM238.473 127.19V117.218H240.602C241.504 117.218 242.312 117.441 243.036 117.865C243.749 118.29 244.316 118.884 244.714 119.648C245.113 120.411 245.323 121.271 245.323 122.226C245.323 122.926 245.197 123.583 244.966 124.188C244.735 124.803 244.4 125.323 243.98 125.769C243.56 126.214 243.036 126.554 242.428 126.808C241.809 127.063 241.137 127.19 240.414 127.19H238.473Z" fill="#FD3E72"/>
<path d="M261.026 114.481V124.91H260.984L254.197 114.481H251.186V129.917H254.197V119.69H254.239L260.952 129.917H264.047V114.481H261.026Z" fill="#FD3E72"/>
<path d="M271.987 130.097C272.501 130.097 273.005 130.044 273.508 129.938C274.001 129.832 274.484 129.652 274.956 129.397C275.428 129.142 275.848 128.845 276.204 128.485C276.561 128.124 276.844 127.678 277.064 127.137C277.274 126.596 277.39 126.002 277.39 125.344C277.39 124.708 277.285 124.156 277.096 123.668C276.781 122.904 276.141 122.257 275.197 121.727C274.778 121.504 273.938 121.143 272.669 120.634C272.271 120.486 271.945 120.358 271.715 120.252C271.484 120.146 271.243 120.03 271.012 119.902C270.781 119.775 270.603 119.648 270.487 119.52C270.361 119.393 270.267 119.255 270.204 119.096C270.131 118.947 270.099 118.767 270.099 118.576C270.099 118.099 270.278 117.717 270.613 117.441C270.949 117.165 271.389 117.027 271.935 117.027C272.921 117.027 274.033 117.537 275.26 118.544L277.001 116.242C275.417 114.927 273.708 114.28 271.861 114.301C270.959 114.322 270.131 114.524 269.386 114.906C268.631 115.288 268.043 115.818 267.613 116.486C267.173 117.165 266.963 117.908 266.963 118.714C266.963 119.117 267.005 119.499 267.099 119.86C267.194 120.221 267.319 120.528 267.466 120.804C267.613 121.08 267.812 121.334 268.054 121.578C268.295 121.822 268.536 122.035 268.788 122.204C269.029 122.374 269.323 122.554 269.659 122.724C269.994 122.894 270.299 123.042 270.592 123.148C270.875 123.265 271.201 123.392 271.578 123.52C271.987 123.668 272.323 123.785 272.575 123.891C272.827 123.997 273.068 124.114 273.299 124.241C273.529 124.368 273.708 124.506 273.834 124.634C273.959 124.772 274.054 124.931 274.127 125.1C274.19 125.281 274.232 125.482 274.232 125.705C274.232 126.034 274.148 126.32 273.991 126.554C273.823 126.798 273.582 126.989 273.246 127.127C272.91 127.275 272.512 127.339 272.04 127.339C271.725 127.339 271.41 127.307 271.096 127.222C270.771 127.148 270.445 127.031 270.12 126.872C269.795 126.724 269.47 126.522 269.145 126.267C268.819 126.023 268.515 125.737 268.243 125.408L266.428 127.668C267.204 128.485 268.075 129.089 269.029 129.492C269.984 129.896 270.97 130.097 271.987 130.097Z" fill="#FD3E72"/>
<g filter="url(#filter3_d)">
<path d="M256.6 140.169C256.6 140.169 273.733 168.036 269.25 176.691C266.558 181.889 262.396 184.55 256.6 184.55C250.804 184.55 246.642 181.889 243.95 176.691C239.467 168.036 256.6 140.169 256.6 140.169Z" fill="#5B5863"/>
<path d="M245.715 172.408C246.134 168.64 246.552 167.802 247.809 164.453C248.123 163.615 249.361 163.835 249.065 164.872C248.227 167.802 247.39 169.059 247.39 172.408C247.39 174.502 247.809 175.758 249.483 177.432C249.902 178.27 249.483 179.526 248.227 178.688C246.552 177.014 245.716 175.758 245.715 172.408Z" fill="white" stroke="white"/>
</g>
<path d="M229.357 303.258L223.71 306.286L211.209 315.907C211.209 315.907 172.931 320.989 171.463 322.091C169.995 323.192 150.993 332.234 148.381 344.367C145.77 356.501 140.518 435.634 140.518 435.634L147.464 459.012L286.877 459.231L319.572 458.765C319.572 458.765 332.129 429.423 332.129 421.355C332.129 413.287 328.459 352.626 328.459 352.626L289.249 324.977L229.357 303.258Z" fill="#FD3E72"/>
<path d="M210.857 315.335C210.806 315.45 210.742 315.559 210.666 315.66C210.497 315.9 210.299 316.197 210.052 316.557C209.502 317.319 208.753 318.462 207.885 319.895C207.462 320.601 206.982 321.406 206.537 322.288C206.092 323.17 205.612 324.109 205.125 325.112C204.139 327.31 203.293 329.569 202.591 331.874C201.382 336.081 200.476 340.369 199.881 344.706C199.641 346.33 199.45 347.664 199.309 348.652C199.246 349.082 199.196 349.435 199.154 349.725C199.144 349.851 199.115 349.974 199.069 350.092C199.053 349.968 199.053 349.842 199.069 349.718C199.069 349.428 199.126 349.068 199.161 348.631C199.246 347.692 199.401 346.337 199.613 344.671C200.15 340.303 201.037 335.986 202.267 331.761C202.975 329.445 203.835 327.179 204.843 324.977C205.323 323.961 205.789 323.008 206.255 322.154C206.721 321.3 207.208 320.488 207.666 319.768C208.577 318.357 209.353 317.22 209.939 316.479L210.61 315.625C210.681 315.519 210.764 315.422 210.857 315.335Z" fill="#CE194B"/>
<g opacity="0.3">
<path opacity="0.3" d="M211.725 338.601C211.492 337.852 211.195 337.012 210.468 336.723C209.904 336.49 210.13 336.857 209.565 337.097C204.271 339.278 201.716 344.156 199.471 349.69L199.598 349.556C199.439 350.018 199.437 350.521 199.594 350.985C199.751 351.449 200.058 351.847 200.466 352.118C201.659 352.824 203.191 352.435 204.419 351.8C205.647 351.165 206.77 350.283 208.111 349.944C211.005 349.196 213.892 351.179 215.939 353.367C217.986 355.555 219.821 358.153 222.616 359.233C217.76 353.076 214.068 346.084 211.725 338.601Z" fill="black"/>
</g>
<path d="M199.055 350.092C199.691 348.542 200.442 347.042 201.299 345.603C202.276 343.898 203.4 342.283 204.659 340.775C205.456 339.834 206.34 338.972 207.299 338.198C208.382 337.315 209.659 336.703 211.026 336.412H211.132L211.174 336.518C212.057 338.826 212.988 341.346 214.068 344C215.17 346.823 216.49 349.556 218.014 352.174C219.7 355.035 221.739 357.672 224.084 360.023C226.611 362.51 229.396 364.721 232.392 366.616C233.416 367.216 234.404 367.858 235.427 368.423L238.484 370.053H238.3L243.396 366.524L245.867 364.823C246.686 364.265 247.483 363.708 248.239 363.115C251.085 360.872 253.73 358.385 256.144 355.682C259.027 353.501 261.489 350.812 263.407 347.748C264.879 345.396 265.981 342.832 266.676 340.146C267.12 338.422 267.399 336.658 267.508 334.881C267.551 334.26 267.508 333.787 267.558 333.469C267.607 333.151 267.558 332.989 267.558 332.989C267.558 332.989 267.558 333.151 267.558 333.469C267.558 333.787 267.558 334.267 267.558 334.881C267.492 336.671 267.241 338.45 266.81 340.189C266.138 342.904 265.05 345.5 263.584 347.883C261.679 350.975 259.228 353.694 256.349 355.908C253.928 358.636 251.273 361.146 248.415 363.411C247.653 364.011 246.855 364.576 246.036 365.134L243.566 366.842L238.47 370.371L238.385 370.435L238.286 370.385L235.216 368.748C234.185 368.183 233.19 367.541 232.166 366.934C229.14 365.028 226.331 362.798 223.788 360.284C221.426 357.91 219.375 355.247 217.682 352.358C216.169 349.71 214.863 346.949 213.779 344.099C212.706 341.431 211.788 338.904 210.92 336.596L211.068 336.681C209.743 336.958 208.502 337.546 207.447 338.396C206.495 339.152 205.616 339.996 204.822 340.916C203.559 342.406 202.423 344 201.426 345.68C200.601 347.092 200.015 348.179 199.641 348.934L199.21 349.802C199.171 349.905 199.119 350.003 199.055 350.092Z" fill="#CE194B"/>
<path d="M277.948 332.714C278.055 336.309 277.885 339.908 277.44 343.478C276.998 347.376 276.279 351.237 275.287 355.033C274.068 359.701 272.507 364.274 270.614 368.712L270.346 369.347L270.261 368.642C270.212 368.232 270.177 367.788 270.106 367.336C269.774 364.803 269.185 362.31 268.348 359.896C267.946 358.724 267.487 357.595 266.993 356.508C266.746 355.964 266.485 355.435 266.217 354.913C265.973 354.399 265.685 353.908 265.356 353.445C265.046 352.995 264.615 352.642 264.113 352.428C263.875 352.342 263.619 352.322 263.371 352.369C263.122 352.416 262.891 352.529 262.702 352.696C262.316 353.05 261.957 353.432 261.629 353.84L260.605 355.005L256.871 359.24L251.443 365.388L249.996 367.082L249.601 367.505L249.46 367.639C249.492 367.582 249.53 367.527 249.573 367.477L249.94 367.032L251.351 365.324L256.688 359.098L260.386 354.807C260.725 354.419 261.092 354.03 261.403 353.628C261.744 353.206 262.117 352.809 262.518 352.442C262.748 352.243 263.026 352.108 263.325 352.051C263.624 351.994 263.932 352.017 264.219 352.118C264.772 352.355 265.247 352.744 265.588 353.24C265.934 353.718 266.236 354.226 266.492 354.757C266.76 355.28 267.028 355.816 267.275 356.36C267.777 357.454 268.243 358.597 268.687 359.776C269.532 362.218 270.128 364.739 270.466 367.301C270.537 367.752 270.572 368.204 270.621 368.62L270.268 368.571C272.154 364.148 273.72 359.595 274.955 354.948C275.956 351.17 276.699 347.328 277.179 343.45C277.588 340.146 277.757 337.457 277.828 335.601C277.877 334.669 277.877 333.949 277.899 333.483C277.899 333.257 277.899 333.074 277.899 332.925C277.899 332.777 277.948 332.714 277.948 332.714Z" fill="#CE194B"/>
<path d="M165.251 381.037C165.251 381.037 165.308 381.093 165.392 381.234L165.766 381.891H165.66C165.159 379.519 163.79 372.249 162.23 363.644C161.298 358.35 160.451 353.558 159.823 350.021C159.541 348.313 159.308 346.916 159.117 345.885C159.054 345.426 158.997 345.059 158.955 344.756C158.926 344.626 158.914 344.493 158.92 344.36C158.968 344.486 159.004 344.616 159.025 344.749C159.089 345.038 159.167 345.412 159.258 345.864C159.463 346.88 159.731 348.278 160.063 349.979C160.72 353.508 161.602 358.287 162.583 363.581C164.136 372.178 165.406 379.477 165.759 381.869L165.816 382.229L165.653 381.905L165.322 381.199C165.294 381.147 165.27 381.093 165.251 381.037Z" fill="#CE194B"/>
<path d="M163.55 379.582C163.458 379.625 161.68 376.053 159.576 371.599C157.473 367.145 155.849 363.496 155.941 363.453C156.033 363.411 157.811 366.983 159.915 371.437C162.018 375.891 163.642 379.54 163.55 379.582Z" fill="#CE194B"/>
<g opacity="0.3">
<path opacity="0.3" d="M162.823 457.191C167.249 459.415 177.512 455.49 181.239 450.599C184.966 445.707 186.046 439.34 186.886 433.242C188.105 424.051 188.975 414.826 189.497 405.565C197.176 411.147 206.517 413.968 216.002 413.569C221.988 413.294 228.814 410.915 230.67 405.219C232.526 399.523 228.552 393.777 224.458 389.493C220.558 385.411 216.306 381.679 211.753 378.34C208.767 376.152 205.492 374.105 201.808 373.674C197.834 373.244 193.817 374.867 190.796 377.486C187.775 380.105 185.665 383.634 184.119 387.319C179.397 398.577 179.651 411.177 178.684 423.317C177.717 435.458 176.432 448.086 165.654 456.005" fill="black"/>
</g>
<path d="M163.113 457.233C163.209 457.177 163.311 457.13 163.416 457.092L164.306 456.704C165.388 456.129 166.402 455.433 167.327 454.629C170.555 451.684 173.306 448.255 175.479 444.465V444.521C176.122 439.686 176.891 434.039 177.675 428.039C178.973 418.524 180.117 409.913 181.042 403.687C181.613 400.617 182.072 398.125 182.404 396.36C182.566 395.521 182.693 394.857 182.792 394.37L182.898 393.855C182.907 393.796 182.924 393.739 182.947 393.685C182.958 393.744 182.958 393.803 182.947 393.862C182.947 394.003 182.898 394.172 182.87 394.384L182.552 396.389C182.249 398.153 181.846 400.624 181.303 403.73C180.47 409.991 179.319 418.553 178.049 428.089C177.23 434.088 176.461 439.728 175.804 444.563V444.599C173.593 448.407 170.786 451.836 167.489 454.756C166.543 455.554 165.502 456.232 164.39 456.775C163.995 456.937 163.685 457.043 163.473 457.113C163.361 457.175 163.239 457.216 163.113 457.233Z" fill="#CE194B"/>
<path d="M231.058 458.765C231.026 458.696 231.002 458.622 230.988 458.546C230.945 458.377 230.896 458.158 230.832 457.883C230.705 457.297 230.472 456.471 230.289 455.328C229.724 452.161 229.398 448.957 229.315 445.742C229.203 440.982 229.458 436.219 230.077 431.498C230.726 426.162 231.806 420.353 233.063 414.282C234.319 408.212 235.78 402.487 237.009 397.271C238.174 392.669 238.932 387.974 239.274 383.239C239.457 380.044 239.339 376.84 238.921 373.667C238.801 372.538 238.611 371.677 238.526 371.084L238.427 370.413C238.418 370.336 238.418 370.258 238.427 370.18C238.456 370.253 238.475 370.329 238.484 370.406C238.519 370.576 238.568 370.794 238.625 371.07C238.724 371.656 238.943 372.481 239.084 373.646C239.556 376.825 239.714 380.043 239.557 383.253C239.251 388.015 238.516 392.74 237.361 397.37C236.147 402.6 234.644 408.304 233.444 414.381C232.244 420.458 231.101 426.239 230.43 431.562C229.791 436.26 229.506 441.001 229.576 445.742C229.635 448.942 229.921 452.133 230.43 455.292C230.592 456.415 230.804 457.269 230.903 457.862C230.952 458.137 230.995 458.363 231.023 458.532C231.051 458.702 231.058 458.765 231.058 458.765Z" fill="#CE194B"/>
<path d="M242.938 379.173C242.853 379.117 244.067 377.176 245.423 374.698C246.778 372.221 247.759 370.152 247.858 370.195C247.755 370.687 247.584 371.162 247.35 371.606C246.983 372.461 246.425 373.618 245.747 374.867C245.07 376.117 244.385 377.204 243.863 377.973C243.611 378.414 243.3 378.818 242.938 379.173Z" fill="#CE194B"/>
<g opacity="0.3">
<path opacity="0.3" d="M245.21 376.244C248.89 371.937 252.874 367.901 257.132 364.166C258.297 363.143 259.56 362.105 261.092 361.851C262.956 361.541 264.854 362.501 266.146 363.884C267.364 365.336 268.336 366.976 269.026 368.74C270.875 364.195 268.955 359.07 267.05 354.546C266.428 353.07 265.356 351.32 263.774 351.56C262.947 351.791 262.227 352.305 261.742 353.014C255.624 360.116 249.966 367.602 244.801 375.425" fill="black"/>
</g>
<g opacity="0.3">
<path opacity="0.3" d="M307.27 342.624L307.531 340.386C304.842 340.64 301.538 340.958 299.392 342.596C296.887 344.508 295.863 347.762 295.058 350.798C293.139 357.701 298.588 393.241 298.305 400.405C300.684 399.396 302.364 384.17 302.788 381.587C303.832 375.368 301.722 371.486 302.364 369.75C303.006 368.013 302.985 366.129 303.035 364.286C303.268 356.035 304.086 350.233 307.27 342.624Z" fill="black"/>
</g>
<path d="M272.181 228.558C268.765 224.322 269.887 217.553 273.798 213.735C277.708 209.916 283.68 208.857 289.023 209.761C292.917 210.453 296.592 212.059 299.746 214.445C302.9 216.831 305.445 219.931 307.17 223.49C309.006 227.336 309.994 231.882 313.361 234.494C316.311 236.795 320.377 236.993 323.737 238.644C328.24 240.847 331.148 245.569 332.207 250.474C333.266 255.38 332.616 260.49 331.579 265.403C330.626 269.907 329.355 274.777 331.289 278.949C333.223 283.12 337.579 285.245 340.466 288.675C345.929 295.12 344.701 306.089 337.932 311.157C335.779 312.773 333.054 313.98 332.024 316.493C331.085 318.766 331.882 321.342 331.833 323.799C331.713 330.151 324.732 335.339 318.626 333.681C315.549 332.834 312.711 330.561 309.542 330.991C306.373 331.422 304.298 334.33 301.778 336.215C299.199 338.006 296.082 338.856 292.951 338.621C289.82 338.386 286.865 337.08 284.583 334.923C282.734 333.081 281.244 330.575 278.717 329.904C276.19 329.234 273.543 330.681 270.953 330.328C267.572 329.869 265.348 326.509 264.346 323.269C263.344 320.029 263.083 316.465 261.396 313.5C259.172 309.576 254.937 307.395 251.408 304.642C247.488 301.612 244.264 297.777 241.956 293.394C239.647 289.01 238.307 284.183 238.025 279.237C237.744 274.291 238.529 269.342 240.326 264.726C242.124 260.109 244.892 255.933 248.443 252.479" fill="#434149"/>
<path d="M224.84 313.232C221.488 317.146 219.114 321.801 217.913 326.813C216.713 331.825 216.721 337.051 217.937 342.059C220.456 352.019 228.786 366.58 238.406 370.194C244.646 365.62 252.665 359.233 258.481 354.136C262.243 350.84 264.241 346.019 266.104 341.374C267.177 338.692 268.271 335.798 267.6 332.989C267.099 330.921 265.702 329.198 264.226 327.667C259.434 322.772 253.546 319.088 247.048 316.921C240.55 314.753 233.629 314.164 226.859 315.201" fill="#F5B49B"/>
<path d="M253.406 241.524C255.142 238.003 258.035 235.185 261.601 233.543C265.167 231.901 269.189 231.534 272.993 232.503L297.07 238.644C309.105 242.519 318.528 261.147 311.434 277.466C305.83 290.348 300.091 306.533 294.338 315.427C282.762 333.299 266.937 329.212 266.937 329.212L258.396 348.271L223.478 315.526L253.406 241.524Z" fill="#F5B49B"/>
<path d="M266.937 329.276C266.937 329.276 252.996 324.053 243.587 310.663C243.587 310.663 244.117 327.01 264.805 334.069L266.937 329.276Z" fill="#E3A38A"/>
<path d="M232.815 231.494C230.95 232.95 229.453 234.825 228.448 236.968C227.442 239.11 226.956 241.46 227.027 243.825C227.133 246.465 227.776 249.578 225.834 251.371C223.893 253.164 220.738 252.211 218.07 252.225C215.72 252.302 213.471 253.205 211.72 254.774C209.968 256.344 208.825 258.48 208.492 260.808C208.301 262.474 208.492 264.274 207.673 265.749C206.854 267.224 205.012 267.93 203.515 268.841C201.649 269.971 200.112 271.572 199.059 273.484C198.006 275.395 197.474 277.55 197.516 279.732C197.558 281.914 198.173 284.047 199.299 285.916C200.425 287.785 202.023 289.326 203.932 290.383C205.661 291.336 207.68 291.936 208.943 293.454C210.355 295.197 210.44 297.689 211.153 299.807C211.838 301.885 213.158 303.695 214.927 304.984C216.696 306.272 218.824 306.974 221.012 306.989C223.2 307.005 225.339 306.334 227.125 305.071C228.912 303.808 230.258 302.016 230.973 299.948" fill="#434149"/>
<path d="M271.878 224.739C271.167 226.81 270.921 229.012 271.158 231.188C271.395 233.365 272.109 235.462 273.248 237.332C274.388 239.201 275.925 240.796 277.751 242.004C279.578 243.212 281.647 244.002 283.814 244.319C287.159 244.806 291.154 244.383 293.314 246.987C295.587 249.726 294.239 254.088 296.039 257.166C298.601 261.549 302.985 265.05 307.135 267.987C310.347 270.252 306.676 276.556 308.074 280.226C309.471 283.897 315.224 292.275 319.149 292.423C320.01 289.141 324.894 274.721 324.979 271.332C325.064 267.944 324.273 264.415 322.198 261.747C321.047 260.286 319.537 259.121 318.542 257.554C316.389 254.159 317.13 249.79 316.424 245.816C315.951 243.254 314.871 240.844 313.274 238.785C311.678 236.727 309.611 235.081 307.248 233.986C303.33 232.193 298.735 231.995 295.114 229.659C292.439 227.929 290.526 225.17 287.752 223.603C282.352 220.553 275.59 222.897 270.007 225.579" fill="#434149"/>
<path d="M245.853 265.749C245.295 265.375 241.618 268.177 245.246 270.415C251.648 274.325 257.147 261.098 256.914 256.7C260.175 255.288 263.471 253.926 266.344 251.759C269.217 249.592 273.508 242.456 274.278 238.828C276.727 239.823 288.564 239.915 287.534 239.202C285.197 237.586 280.475 234.12 279.847 231.438C278.485 225.544 274.299 220.412 268.765 218.873C265.879 218.144 262.835 218.369 260.088 219.514C257.341 220.66 255.039 222.663 253.525 225.226C246.94 223.052 239.133 225.007 233.882 230.167C231.26 232.809 229.32 236.049 228.23 239.608C227.139 243.167 226.93 246.937 227.621 250.595C228.002 252.472 228.637 254.434 228.037 256.298C227.289 258.599 224.974 259.827 223.131 261.338C218.113 265.41 215.953 272.631 216.567 279.104C217.181 285.577 218.296 288.181 221.508 290.532C227.797 295.12 214.725 306.851 226.449 310.818" fill="#434149"/>
<path d="M333.287 310.606C333.287 310.564 333.704 310.317 334.388 309.674C335.398 308.745 336.204 307.615 336.753 306.357C337.642 304.383 337.872 302.176 337.409 300.061C336.859 297.597 335.002 295.254 332.518 293.256C330.033 291.259 326.934 289.332 324.69 286.064C322.445 282.796 322.043 278.299 322.763 274.064C323.483 269.829 325.262 265.594 326.405 261.14C327.021 258.896 327.313 256.577 327.273 254.251C327.252 251.886 326.614 249.567 325.424 247.524C324.14 245.539 322.319 243.961 320.172 242.971C318.068 241.986 315.834 241.306 313.537 240.952C311.25 240.683 308.986 240.249 306.761 239.654C305.645 239.357 304.602 238.835 303.695 238.12C302.788 237.405 302.038 236.512 301.488 235.496C300.465 233.477 300.239 231.339 299.794 229.398C299.448 227.515 298.665 225.741 297.507 224.217C295.344 221.489 292.25 219.654 288.818 219.064C285.99 218.583 283.082 218.931 280.447 220.066C278.452 220.925 276.619 222.119 275.026 223.595C273.696 224.9 272.495 226.331 271.44 227.866C271.44 227.866 271.475 227.739 271.595 227.527C271.76 227.205 271.942 226.892 272.139 226.588C272.887 225.405 273.771 224.313 274.772 223.334C276.363 221.777 278.214 220.511 280.242 219.593C282.963 218.366 285.982 217.956 288.931 218.415C292.535 219.006 295.792 220.912 298.072 223.765C299.312 225.373 300.158 227.249 300.543 229.242C301.008 231.226 301.248 233.315 302.201 235.129C302.705 236.039 303.39 236.836 304.213 237.472C305.036 238.108 305.98 238.569 306.987 238.828C309.173 239.405 311.397 239.823 313.643 240.077C316.031 240.451 318.353 241.165 320.539 242.195C322.847 243.258 324.805 244.954 326.186 247.086C327.459 249.269 328.141 251.746 328.163 254.272C328.205 256.684 327.901 259.09 327.259 261.415C326.066 265.954 324.273 270.097 323.575 274.255C322.876 278.412 323.208 282.598 325.297 285.668C327.386 288.739 330.478 290.652 332.913 292.783C335.348 294.915 337.353 297.343 337.854 299.976C338.298 302.195 338.003 304.498 337.014 306.533C336.417 307.814 335.542 308.945 334.452 309.844C334.102 310.153 333.71 310.409 333.287 310.606Z" fill="#55525B"/>
<path d="M311.61 267.987C311.688 268.022 311.264 268.996 310.834 270.846C310.243 273.457 310.16 276.157 310.587 278.801C310.872 280.614 311.409 282.379 312.182 284.045C313.117 285.943 314.278 287.72 315.641 289.339C316.383 290.273 317.015 291.289 317.525 292.367C318.066 293.536 318.295 294.825 318.189 296.108C317.984 298.734 316.692 301.049 315.732 303.442C314.773 305.835 314.158 308.305 315.083 310.5C316.008 312.696 317.688 314.34 319.276 315.921C320.906 317.382 322.305 319.081 323.426 320.961C324.369 322.699 324.621 324.728 324.132 326.643C323.808 328 323.186 329.269 322.312 330.356C321.438 331.444 320.334 332.324 319.078 332.933C318.395 333.241 317.669 333.443 316.925 333.533C316.668 333.57 316.406 333.57 316.149 333.533C317.102 333.322 318.032 333.014 318.923 332.615C320.075 331.978 321.079 331.103 321.867 330.048C322.654 328.992 323.207 327.781 323.49 326.495C323.901 324.742 323.649 322.9 322.784 321.321C321.676 319.531 320.306 317.918 318.718 316.536C317.123 314.961 315.267 313.267 314.278 310.825C313.789 309.584 313.626 308.237 313.806 306.915C314.009 305.599 314.384 304.315 314.921 303.096C315.916 300.661 317.144 298.395 317.328 296.037C317.511 293.68 316.332 291.612 314.998 289.84C313.617 288.161 312.45 286.316 311.526 284.349C309.632 280.066 309.28 275.259 310.53 270.747C310.725 270.022 310.977 269.313 311.286 268.629C311.36 268.4 311.47 268.183 311.61 267.987Z" fill="#455A64"/>
<path d="M205.704 290.144C205.704 290.144 205.548 290.059 205.301 289.847C204.926 289.534 204.581 289.187 204.271 288.81C203.078 287.361 202.272 285.635 201.927 283.791C201.629 282.35 201.628 280.864 201.926 279.423C202.223 277.982 202.812 276.617 203.657 275.412C204.779 273.842 206.275 272.576 208.008 271.727C209.742 270.878 211.659 270.473 213.588 270.549L213.2 271.071C212.291 268.733 211.885 266.229 212.007 263.723C212.08 262.342 212.456 260.993 213.108 259.773C213.761 258.553 214.674 257.492 215.783 256.665C216.976 255.77 218.422 255.276 219.913 255.253C221.406 255.343 222.863 255.755 224.183 256.46C225.423 257.134 226.744 257.646 228.115 257.985C228.78 258.112 229.467 258.078 230.117 257.885C230.766 257.693 231.36 257.347 231.849 256.877C233.292 255.382 234.118 253.399 234.164 251.322C234.326 249.246 234.128 247.136 234.347 245.025C234.788 240.965 236.624 237.183 239.542 234.325C242.144 231.787 245.497 230.16 249.1 229.687C252.137 229.26 255.233 229.648 258.071 230.809L257.676 230.972C258.692 228.939 260.421 227.352 262.532 226.511C264.079 225.875 265.76 225.633 267.424 225.805C268.458 225.909 269.465 226.201 270.395 226.666C270.718 226.824 271.02 227.024 271.292 227.259C270.076 226.643 268.753 226.264 267.395 226.144C265.793 226.046 264.191 226.334 262.723 226.984C260.758 227.814 259.164 229.332 258.24 231.254L258.113 231.515L257.838 231.409C255.094 230.342 252.118 230.009 249.206 230.442C245.779 230.938 242.601 232.516 240.135 234.946C237.38 237.676 235.652 241.274 235.244 245.131C235.039 247.129 235.244 249.232 235.081 251.42C235.022 253.727 234.091 255.926 232.477 257.575C231.883 258.138 231.166 258.552 230.382 258.785C229.598 259.018 228.771 259.063 227.966 258.917C226.508 258.566 225.1 258.028 223.781 257.314C222.583 256.661 221.259 256.274 219.898 256.178C218.597 256.199 217.335 256.628 216.292 257.406C215.275 258.156 214.437 259.123 213.839 260.236C213.241 261.349 212.897 262.581 212.833 263.843C212.704 266.232 213.072 268.621 213.913 270.86L214.11 271.41H213.525C211.717 271.325 209.917 271.687 208.283 272.464C206.649 273.241 205.232 274.409 204.158 275.864C203.338 276.997 202.755 278.283 202.446 279.647C202.137 281.01 202.107 282.422 202.358 283.798C202.656 285.591 203.382 287.286 204.475 288.739C205.217 289.664 205.739 290.101 205.704 290.144Z" fill="#55525B"/>
<path d="M271.56 230.054C271.603 230.216 270.149 229.983 268.377 231.289C266.605 232.595 265.01 235.651 264.551 239.576L264.516 239.908H264.177C262.228 239.781 260.275 240.107 258.473 240.86C256.67 241.613 255.067 242.773 253.787 244.249C253.074 245.089 252.509 246.044 252.114 247.072C251.776 248.187 251.539 249.331 251.408 250.489C251.259 251.734 251.024 252.968 250.702 254.18C250.352 255.509 249.57 256.684 248.479 257.519C246.135 259.347 243.256 259.636 240.714 260.06C238.276 260.273 235.891 260.891 233.656 261.888C229.916 263.681 226.997 266.827 225.489 270.69C224.496 273.313 224.164 276.139 224.522 278.92C224.776 280.897 225.228 281.941 225.108 281.97C224.955 281.742 224.838 281.492 224.762 281.229C224.505 280.495 224.307 279.742 224.169 278.977C223.659 276.126 223.902 273.192 224.875 270.464C226.357 266.365 229.37 263 233.282 261.076C235.586 260.021 238.05 259.36 240.573 259.121C243.086 258.719 245.818 258.366 247.865 256.75C249.883 255.338 250.102 252.656 250.491 250.305C250.643 249.091 250.905 247.893 251.274 246.726C251.717 245.608 252.341 244.57 253.123 243.656C254.499 242.095 256.221 240.877 258.151 240.101C260.082 239.325 262.167 239.013 264.241 239.188L263.866 239.498C264.431 235.412 266.153 232.249 268.158 230.965C268.895 230.457 269.746 230.139 270.636 230.04C270.943 229.998 271.255 230.003 271.56 230.054Z" fill="#55525B"/>
<path d="M247.215 267.775C249.227 263.836 246.509 258.874 242.098 258.881C239.663 258.881 237.051 260.208 234.877 264.373C229.082 275.483 241.434 279.012 241.618 278.702C241.731 278.511 244.858 272.398 247.215 267.775Z" fill="#F5B49B"/>
<path d="M240.418 272.723C240.418 272.659 240.157 272.758 239.712 272.723C239.152 272.685 238.629 272.432 238.251 272.017C237.305 270.972 237.284 268.594 238.251 266.568C238.714 265.597 239.392 264.745 240.234 264.076C240.521 263.787 240.874 263.572 241.263 263.449C241.651 263.326 242.064 263.299 242.465 263.37C242.719 263.428 242.944 263.572 243.103 263.778C243.261 263.985 243.343 264.24 243.333 264.5C243.333 264.888 243.135 265.071 243.178 265.121C243.22 265.17 243.517 265.057 243.665 264.556C243.762 264.254 243.754 263.929 243.644 263.631C243.552 263.438 243.424 263.264 243.265 263.119C243.106 262.975 242.921 262.864 242.719 262.792C242.216 262.643 241.683 262.625 241.171 262.742C240.659 262.858 240.186 263.103 239.797 263.455C238.824 264.173 238.04 265.115 237.51 266.201C236.416 268.481 236.472 271.142 237.834 272.476C238.088 272.716 238.392 272.897 238.724 273.006C239.056 273.115 239.408 273.148 239.754 273.104C240.263 272.977 240.446 272.765 240.418 272.723Z" fill="#E2A38B"/>
<path d="M236.147 422.089C235.159 420.268 232.618 419.145 232.618 419.145L230.501 413.957C231.007 412.647 231.007 411.195 230.501 409.885C229.661 407.64 223.484 394.603 223.626 394.179L222.03 394.088C222.03 394.088 227.72 407.887 228.277 408.593C228.835 409.299 229.689 413.4 228.277 413.957C226.865 414.515 223.894 413.005 222.63 411.741C221.367 410.478 217.351 400.984 216.652 399.036C215.953 397.088 217.195 394.342 217.195 394.342L218.318 391.681H216.821C216.206 393.472 215.69 395.296 215.275 397.144C214.718 399.812 221.028 411.452 222.009 412.715C222.99 413.979 226.357 414.96 228.178 416.244C229.999 417.529 229.724 421.44 229.724 421.44C228.775 422.811 228.194 424.403 228.037 426.063C227.896 428.59 233.508 440.512 237.291 443.003C241.074 445.495 245.571 443.709 245.987 443.85C246.404 443.992 247.399 441.881 247.399 441.881C247.399 441.881 237.129 423.91 236.147 422.089ZM241.314 442.919C239.248 442.64 237.376 441.557 236.105 439.905C235.646 439.298 230.734 430.729 230.098 429.162C228.997 426.388 229.759 424.849 230.162 423.225C230.748 420.861 234.397 422.244 234.397 422.244C234.397 422.244 245.14 440.808 244.893 441.373C244.646 441.938 243.333 443.095 241.314 442.919Z" fill="#263238"/>
<path d="M247.363 441.86C247.363 441.86 278.64 429.959 280.101 428.611C281.562 427.263 286.842 419.512 286.842 419.512C286.842 419.512 289.425 419.957 289.086 420.635C288.748 421.312 283.807 429.063 278.499 431.307C273.191 433.552 245.93 443.829 245.93 443.829L247.363 441.86Z" fill="#263238"/>
<path d="M148.389 343.781L135.507 418.08C135.507 418.08 130.763 432.536 131.441 435.726C132.119 438.917 134.511 452.526 141.739 456.817C148.967 461.109 163.282 458.306 166.218 455.405C169.155 452.504 174.943 447.09 175.62 444.606C176.298 442.121 181.048 404.372 181.048 404.372L182.933 393.784C182.933 393.784 175.931 396.043 171.639 393.078C167.348 390.114 161.701 377.493 161.701 377.493L155.412 387.156L148.389 343.781Z" fill="#FD3E72"/>
<path d="M161.701 377.423C161.638 377.57 161.557 377.71 161.461 377.839L160.692 379.004C160.028 380.006 159.068 381.467 157.918 383.288C155.603 386.93 152.511 392.02 149.13 397.674C145.749 403.327 142.707 408.445 140.427 412.122C139.297 413.958 138.366 415.433 137.709 416.449C137.392 416.922 137.13 417.31 136.94 417.607C136.853 417.744 136.757 417.873 136.65 417.995C136.707 417.843 136.783 417.698 136.876 417.565L137.582 416.372L140.208 411.988L148.812 397.483C152.193 391.836 155.327 386.754 157.699 383.147C158.885 381.34 159.873 379.9 160.579 378.912L161.398 377.79C161.488 377.658 161.589 377.536 161.701 377.423Z" fill="#CE194B"/>
<path d="M161.701 377.423L171.343 371.225C171.343 371.225 197.036 360.786 199.647 360.186C202.259 359.586 205.294 358.379 206.706 360.186C208.118 361.993 222.764 372.63 222.764 372.63C222.764 372.63 231.397 388.865 231.397 391.102C231.397 393.34 233.804 396.135 231.397 396.932L228.962 397.744C228.962 397.744 228.157 401.683 225.143 402.12C222.129 402.558 221.127 402.12 221.127 402.12C221.127 402.12 220.929 406.059 218.522 405.819C216.115 405.579 212.099 402.12 212.099 402.12C212.099 402.12 210.292 404.167 208.887 404.167C207.482 404.167 203.064 401.161 203.064 401.161L194.523 393.728L186.999 391.123L182.94 393.686C182.94 393.686 174.258 394.427 172.952 393.686C171.646 392.944 161.701 377.423 161.701 377.423Z" fill="#F5B49B"/>
<path d="M211.047 402.798C210.866 402.43 210.718 402.048 210.602 401.654C210.475 401.287 210.313 400.836 210.094 400.32C209.875 399.805 209.664 399.212 209.353 398.584C209.042 397.956 208.739 397.25 208.344 396.537C207.948 395.824 207.504 395.055 207.031 394.257C205.96 392.563 204.764 390.951 203.452 389.436C202.117 387.941 200.676 386.544 199.139 385.257C198.433 384.686 197.728 384.121 197.022 383.662C196.316 383.203 195.716 382.759 195.123 382.392C194.53 382.025 193.972 381.686 193.492 381.432C193.012 381.178 192.589 380.923 192.236 380.726C191.864 380.558 191.506 380.362 191.163 380.14C191.555 380.259 191.935 380.412 192.3 380.599C192.741 380.783 193.172 380.99 193.591 381.22C194.085 381.481 194.657 381.763 195.257 382.137C195.857 382.512 196.521 382.9 197.198 383.387C197.876 383.874 198.61 384.396 199.316 384.968C202.474 387.516 205.17 390.589 207.285 394.052C207.758 394.857 208.217 395.612 208.577 396.367C208.937 397.123 209.282 397.779 209.558 398.485C209.833 399.191 210.059 399.734 210.264 400.257C210.468 400.779 210.602 401.238 210.708 401.619C210.852 402.002 210.965 402.397 211.047 402.798Z" fill="#E2A38B"/>
<path d="M221.113 402.551C221.113 402.551 221.028 402.452 220.894 402.24C220.76 402.029 220.562 401.725 220.343 401.309C219.729 400.131 219.206 398.909 218.776 397.652C218.219 396.071 217.675 394.123 217.04 392.006C216.405 389.705 215.495 387.489 214.329 385.406C213.093 383.365 211.45 381.602 209.501 380.225C207.722 378.933 206.007 377.888 204.701 376.816C203.641 376.007 202.72 375.029 201.977 373.922C201.783 373.615 201.613 373.294 201.469 372.962C201.407 372.851 201.362 372.732 201.334 372.609C201.37 372.609 201.567 373.075 202.097 373.844C202.873 374.901 203.806 375.834 204.864 376.611C206.177 377.641 207.892 378.658 209.699 379.957C211.699 381.341 213.383 383.133 214.64 385.215C215.823 387.324 216.738 389.571 217.364 391.907C217.986 394.024 218.501 395.958 219.023 397.554C219.417 398.805 219.889 400.031 220.435 401.224C220.685 401.653 220.911 402.096 221.113 402.551Z" fill="#E2A38B"/>
<path d="M228.355 397.892C228.301 397.782 228.263 397.666 228.242 397.546C228.178 397.271 228.1 396.939 228.002 396.53C227.903 396.12 227.783 395.549 227.606 394.934C227.43 394.32 227.26 393.6 226.985 392.817C226.71 392.033 226.463 391.215 226.103 390.332C225.743 389.45 225.348 388.518 224.917 387.544C222.95 383.348 220.33 379.491 217.153 376.116C216.404 375.354 215.706 374.613 214.993 373.999C214.28 373.385 213.63 372.778 213.002 372.262C212.374 371.747 211.795 371.317 211.287 370.921C210.779 370.526 210.327 370.215 209.953 369.961L209.092 369.368C208.901 369.227 208.802 369.15 208.809 369.135C208.924 369.18 209.033 369.236 209.134 369.305L210.031 369.848C210.419 370.081 210.885 370.378 211.407 370.759C211.929 371.14 212.543 371.542 213.172 372.065C213.8 372.587 214.499 373.124 215.197 373.78C215.896 374.436 216.609 375.135 217.393 375.898C218.995 377.596 220.468 379.413 221.797 381.333C223.094 383.27 224.241 385.304 225.228 387.417C225.658 388.405 226.082 389.337 226.392 390.241C226.703 391.144 227.006 391.977 227.239 392.76C227.472 393.544 227.649 394.25 227.811 394.878C227.951 395.411 228.064 395.95 228.15 396.494C228.22 396.904 228.277 397.25 228.326 397.525C228.354 397.645 228.363 397.769 228.355 397.892Z" fill="#E2A38B"/>
<path d="M190.535 370.491C190.535 370.548 190.034 370.625 189.293 370.95C188.326 371.355 187.483 372.008 186.849 372.843C186.216 373.679 185.815 374.667 185.686 375.707C185.58 376.512 185.643 377.02 185.587 377.027C185.417 376.602 185.363 376.139 185.432 375.686C185.493 374.575 185.885 373.507 186.556 372.62C187.228 371.732 188.148 371.065 189.201 370.703C189.62 370.519 190.08 370.446 190.535 370.491Z" fill="#E2A38B"/>
<path d="M197.692 363.687C197.749 363.785 196.507 364.569 195.278 365.882C194.05 367.195 193.316 368.465 193.217 368.416C194.061 366.333 195.659 364.644 197.692 363.687Z" fill="#E2A38B"/>
<path d="M298.425 279.866C297.204 280.375 296.957 281.836 296.978 283.156C296.978 284.807 297.416 285.076 298.764 287.842C300.973 292.367 303.613 300.95 303.613 300.95C303.613 300.95 301.446 322.62 302.907 327.709C303.306 329.059 304.029 330.29 305.013 331.295C305.998 332.3 307.213 333.049 308.554 333.476L306.578 350.212H330.217C330.217 350.212 329.377 333.977 328.869 329.036C328.332 323.813 328.685 292.226 328.685 292.226L326.363 275.363L320.892 265.89C320.063 266.433 319.447 267.248 319.153 268.194C318.858 269.141 318.901 270.16 319.276 271.078C320.511 274.544 321.323 281.2 321.323 281.2L307.636 260.604C307.636 260.604 304.947 261.246 304.813 266.25C304.813 266.25 300.832 268.841 303.401 273.048C306.168 277.749 309.147 291.866 308.102 291.866L299.632 279.393L298.425 279.866Z" fill="#F5B49B"/>
<path d="M306.521 350.212C306.521 350.212 306.521 349.838 306.627 349.104C306.733 348.369 306.831 347.275 306.987 345.864C307.311 343.005 307.791 338.805 308.398 333.462L308.462 333.561C307.361 333.205 306.34 332.639 305.455 331.895C304.481 331.088 303.707 330.066 303.196 328.909C302.688 327.653 302.406 326.317 302.363 324.963C302.283 323.552 302.25 322.116 302.264 320.658C302.328 314.743 302.787 308.122 303.457 300.936V300.992C302.349 297.506 301.121 293.828 299.582 290.101C299.194 289.169 298.785 288.245 298.319 287.327C297.802 286.419 297.349 285.475 296.964 284.504C296.834 283.975 296.777 283.431 296.794 282.887C296.795 282.337 296.875 281.79 297.034 281.264C297.189 280.706 297.54 280.222 298.022 279.902C298.263 279.762 298.516 279.644 298.778 279.549L299.526 279.238L299.653 279.189L299.73 279.302L308.582 292.282L308.257 292.353C308.373 291.266 308.359 290.168 308.215 289.085C308.093 287.973 307.904 286.87 307.65 285.781C307.138 283.554 306.478 281.363 305.674 279.224C304.897 277.043 303.916 274.925 302.963 272.744C302.457 271.618 302.324 270.359 302.582 269.151C302.872 267.928 303.588 266.847 304.601 266.102L304.523 266.236C304.639 265.148 304.89 264.078 305.271 263.053C305.482 262.517 305.762 262.012 306.104 261.549C306.452 261.049 306.945 260.667 307.516 260.455L307.629 260.42L307.707 260.533L307.869 260.773L321.393 281.137L321.061 281.257C320.731 278.542 320.248 275.849 319.614 273.189C319.452 272.532 319.269 271.89 319.057 271.262C318.817 270.612 318.702 269.922 318.718 269.229C318.757 268.537 318.958 267.865 319.305 267.265C319.652 266.665 320.135 266.156 320.716 265.777L320.864 265.679L320.956 265.841L326.426 275.313C327.231 281.214 328 286.838 328.734 292.183C328.635 300.922 328.586 308.919 328.6 315.992C328.6 319.521 328.6 322.839 328.706 325.874C328.748 327.398 328.833 328.853 328.974 330.25C329.115 331.648 329.179 332.982 329.263 334.245C329.595 339.299 329.793 343.266 329.934 345.97C329.998 347.318 330.047 348.348 330.075 349.054C330.103 349.76 330.11 350.113 330.11 350.113C330.11 350.113 330.075 349.753 330.033 349.054C329.99 348.355 329.92 347.318 329.842 345.977C329.673 343.273 329.44 339.306 329.087 334.252C328.995 332.989 328.903 331.662 328.783 330.264C328.663 328.867 328.536 327.406 328.494 325.881C328.395 322.817 328.367 319.528 328.346 315.999C328.311 308.94 328.346 300.929 328.431 292.19C327.692 286.854 326.913 281.233 326.094 275.328V275.384L320.61 265.926L320.85 265.989C320.322 266.34 319.882 266.807 319.565 267.356C319.248 267.904 319.062 268.519 319.021 269.151C319.014 269.801 319.124 270.447 319.346 271.057C319.567 271.697 319.758 272.347 319.918 273.005C320.555 275.682 321.043 278.392 321.379 281.123L321.478 281.892L321.047 281.243L307.516 260.886L307.361 260.646L307.551 260.723C307.066 260.92 306.649 261.254 306.351 261.683C306.03 262.117 305.769 262.592 305.575 263.095C305.212 264.092 304.975 265.131 304.869 266.187V266.264L304.799 266.321C303.862 267.012 303.199 268.012 302.928 269.144C302.692 270.28 302.82 271.46 303.295 272.518C304.234 274.671 305.229 276.817 306.006 279.005C306.816 281.161 307.48 283.368 307.996 285.612C308.261 286.742 308.457 287.888 308.582 289.042C308.73 290.159 308.744 291.289 308.624 292.409L308.561 292.861L308.3 292.48C305.243 287.976 302.264 283.6 299.455 279.471L299.66 279.527C299.173 279.746 298.615 279.93 298.199 280.163C297.781 280.442 297.48 280.863 297.352 281.349C297.202 281.843 297.126 282.357 297.126 282.873C297.109 283.384 297.161 283.894 297.281 284.391C297.658 285.361 298.102 286.304 298.608 287.214C299.074 288.139 299.49 289.078 299.879 290.038C301.417 293.786 302.639 297.463 303.74 300.964V301.021C303.034 308.199 302.582 314.813 302.497 320.721C302.497 322.194 302.526 323.622 302.582 325.006C302.615 326.335 302.885 327.647 303.38 328.881C303.868 329.955 304.575 330.916 305.457 331.701C306.338 332.487 307.374 333.079 308.497 333.441H308.575V333.511C307.918 338.869 307.41 343.047 307.064 345.899L306.662 349.139C306.584 349.838 306.521 350.212 306.521 350.212Z" fill="#E2A38B"/>
<path d="M316.968 293.666C316.85 293.285 316.765 292.896 316.714 292.501C316.58 291.746 316.354 290.659 316.05 289.318C315.226 285.845 314.055 282.463 312.556 279.224C311.025 275.993 309.243 272.887 307.227 269.935C306.465 268.798 305.815 267.888 305.385 267.26C305.144 266.941 304.924 266.606 304.728 266.257C305.011 266.541 305.268 266.848 305.498 267.175C305.978 267.775 306.648 268.664 307.446 269.787C309.536 272.71 311.357 275.817 312.888 279.069C314.404 282.328 315.55 285.747 316.304 289.261C316.573 290.609 316.77 291.71 316.855 292.48C316.928 292.871 316.966 293.268 316.968 293.666Z" fill="#E2A38B"/>
<path d="M324.309 288.407C323.622 287.238 323.043 286.01 322.579 284.737C321.99 283.516 321.518 282.242 321.167 280.932C321.849 282.1 322.425 283.326 322.89 284.596C323.476 285.821 323.95 287.097 324.309 288.407Z" fill="#E2A38B"/>
<path d="M304.637 343.28C300.486 379.9 295.087 418.877 288.875 459.365H336.993C346.042 439.333 340.522 421.856 338.094 396.946L330.16 340.386L304.637 343.28Z" fill="#FD3E72"/>
<path d="M288.875 459.365C288.867 459.288 288.867 459.21 288.875 459.132L288.959 458.426C289.051 457.798 289.171 456.902 289.326 455.765C289.665 453.429 290.152 450.119 290.738 445.968C291.952 437.681 293.632 426.275 295.481 413.668C297.331 401.062 298.834 389.613 299.844 381.319C300.359 377.168 300.747 373.816 301.008 371.493C301.142 370.35 301.248 369.453 301.326 368.818L301.411 368.112C301.42 368.033 301.436 367.955 301.46 367.879C301.46 367.879 301.46 367.957 301.46 368.112L301.403 368.818C301.347 369.453 301.262 370.357 301.156 371.5C300.938 373.823 300.592 377.19 300.105 381.34C299.166 389.641 297.669 401.104 295.87 413.718C294.07 426.331 292.298 437.717 291.013 446.003C290.371 450.111 289.842 453.443 289.475 455.78C289.291 456.909 289.143 457.798 289.044 458.434C288.995 458.716 288.952 458.949 288.924 459.139C288.914 459.216 288.898 459.292 288.875 459.365Z" fill="#263238"/>
<path d="M393.129 459.048H255.918L273.621 362.748C273.926 361.097 274.798 359.604 276.087 358.527C277.376 357.451 279 356.859 280.68 356.854H403.992C405.051 356.856 406.096 357.091 407.053 357.544C408.01 357.996 408.856 358.653 409.53 359.469C410.204 360.286 410.69 361.24 410.953 362.266C411.216 363.291 411.249 364.362 411.051 365.402L393.129 459.048Z" fill="#5B5863"/>
<path d="M255.919 459.048H203.869L204.081 458.892C208.723 455.404 214.328 453.432 220.132 453.245L257.344 452.151L255.919 459.048Z" fill="#5B5863"/>
<path d="M288.875 356.981C288.875 357.016 288.494 356.91 287.767 356.903C286.705 356.919 285.662 357.18 284.718 357.665C283.222 358.425 281.959 359.573 281.061 360.99C279.927 362.905 279.166 365.017 278.817 367.216C278.372 369.651 277.977 372.354 277.49 375.241C277.003 378.128 276.466 381.206 275.859 384.417C274.666 390.89 273.247 397.991 271.709 405.424C268.61 420.296 265.737 433.742 263.867 443.54C262.921 448.424 262.194 452.384 261.7 455.123C261.453 456.464 261.262 457.516 261.128 458.271C261.057 458.61 261.008 458.878 260.966 459.09C260.951 459.184 260.927 459.276 260.895 459.365C260.895 459.365 260.895 459.273 260.895 459.083C260.895 458.892 260.966 458.596 261.008 458.257C261.128 457.495 261.283 456.436 261.488 455.088C261.919 452.342 262.596 448.368 263.493 443.469C265.278 433.679 268.095 420.211 271.193 405.353C272.732 397.92 274.158 390.834 275.379 384.368C276 381.142 276.544 378.065 277.059 375.192C277.574 372.319 277.977 369.623 278.471 367.166C278.845 364.931 279.646 362.789 280.828 360.856C281.77 359.412 283.088 358.252 284.64 357.503C285.611 357.014 286.687 356.772 287.774 356.797C288.148 356.806 288.519 356.867 288.875 356.981Z" fill="#263238"/>
<path d="M346.825 405.784C346.825 407.096 346.436 408.379 345.707 409.47C344.978 410.561 343.942 411.412 342.729 411.914C341.517 412.416 340.183 412.547 338.896 412.291C337.609 412.035 336.426 411.403 335.499 410.475C334.571 409.547 333.939 408.365 333.683 407.078C333.427 405.791 333.558 404.457 334.06 403.245C334.562 402.032 335.413 400.996 336.504 400.267C337.595 399.538 338.878 399.149 340.19 399.149C341.95 399.149 343.638 399.848 344.882 401.092C346.126 402.336 346.825 404.024 346.825 405.784Z" fill="#F5F5F5"/>
<path d="M419.036 459.669C419.036 459.899 346.259 460.096 256.513 460.096C166.767 460.096 93.9758 459.915 93.9758 459.669C93.9758 459.422 166.731 459.241 256.513 459.241C346.295 459.241 419.036 459.438 419.036 459.669Z" fill="#263238"/>
<g filter="url(#filter4_d)">
<path d="M395.94 259.928L460.952 281.598L432.058 296.046L417.61 324.94L395.94 259.928Z" fill="#FD3E72"/>
<path d="M395.94 259.928L432.058 296.046L417.61 324.94L395.94 259.928Z" fill="#E6285B"/>
</g>
<g filter="url(#filter5_d)">
<rect x="345.47" y="117.928" width="162.53" height="94.9518" rx="18" fill="white"/>
</g>
<g opacity="0.7">
<rect x="359.157" y="170.108" width="136.012" height="5.13253" rx="2.56627" fill="#E6E6E6"/>
<rect x="359.157" y="181.229" width="136.012" height="5.13253" rx="2.56627" fill="#E6E6E6"/>
<rect x="359.157" y="192.349" width="136.012" height="5.13253" rx="2.56627" fill="#E6E6E6"/>
<rect x="359.157" y="170.108" width="98.3735" height="5.13253" rx="2.56627" fill="#FD3E72"/>
<rect x="359.157" y="181.229" width="50.4699" height="5.13253" rx="2.56627" fill="#FD3E72"/>
<rect x="359.157" y="192.349" width="86.3976" height="5.13253" rx="2.56627" fill="#FD3E72"/>
</g>
<g opacity="0.7">
<path d="M388.087 146.3C388.087 149.24 387.018 152.08 385.079 154.29C383.14 156.5 380.463 157.929 377.548 158.311C374.633 158.693 371.678 158.002 369.235 156.366C366.792 154.731 365.027 152.262 364.27 149.421C363.513 146.58 363.815 143.561 365.119 140.926C366.424 138.291 368.642 136.221 371.361 135.101C374.079 133.982 377.112 133.889 379.894 134.84C382.676 135.792 385.017 137.723 386.48 140.273C387.532 142.107 388.086 144.185 388.087 146.3Z" fill="#45424C"/>
<path d="M386.51 140.27L375.996 146.297V134.184C378.129 134.182 380.225 134.744 382.072 135.813C383.918 136.882 385.449 138.419 386.51 140.27Z" fill="#FD3E72"/>
<path d="M384.219 147.723C385.011 143.162 381.955 138.824 377.394 138.033C372.833 137.242 368.495 140.298 367.704 144.858C366.913 149.419 369.969 153.758 374.529 154.549C379.09 155.34 383.428 152.284 384.219 147.723Z" fill="white"/>
<path d="M379.454 144.441H372.479V145.426H379.454V144.441Z" fill="#263238"/>
<path d="M381.179 147.172H370.747V148.157H381.179V147.172Z" fill="#A6A6A6"/>
</g>
<g opacity="0.7">
<path d="M421.989 146.3C421.99 146.895 421.945 147.489 421.856 148.077C421.392 151.176 419.745 153.974 417.26 155.884C414.776 157.793 411.648 158.665 408.534 158.316C405.421 157.967 402.563 156.424 400.564 154.011C398.564 151.599 397.578 148.505 397.812 145.381C398.047 142.256 399.483 139.344 401.82 137.257C404.157 135.17 407.213 134.07 410.344 134.189C413.475 134.309 416.438 135.637 418.61 137.896C420.781 140.154 421.993 143.167 421.989 146.3Z" fill="#45424C"/>
<path d="M421.989 146.297C421.99 146.892 421.945 147.486 421.856 148.074L409.869 146.297V134.184C411.461 134.182 413.037 134.493 414.509 135.1C415.98 135.708 417.317 136.6 418.443 137.725C419.569 138.85 420.462 140.187 421.07 141.658C421.679 143.129 421.991 144.705 421.989 146.297Z" fill="#FD3E72"/>
<path d="M413.085 154.064C417.357 152.281 419.374 147.372 417.591 143.101C415.807 138.829 410.899 136.812 406.627 138.596C402.356 140.379 400.339 145.287 402.122 149.559C403.906 153.83 408.814 155.847 413.085 154.064Z" fill="white"/>
<path d="M413.356 144.442H406.381V145.426H413.356V144.442Z" fill="#263238"/>
<path d="M415.088 147.172H404.656V148.157H415.088V147.172Z" fill="#A6A6A6"/>
</g>
<g opacity="0.7">
<path d="M456.106 146.297C456.102 149.233 455.03 152.068 453.091 154.273C451.152 156.477 448.477 157.901 445.565 158.279C442.653 158.657 439.703 157.963 437.265 156.327C434.827 154.69 433.068 152.223 432.315 149.385C431.562 146.547 431.866 143.532 433.172 140.902C434.478 138.272 436.696 136.207 439.412 135.091C442.128 133.976 445.157 133.886 447.934 134.839C450.711 135.792 453.047 137.722 454.506 140.27C455.556 142.105 456.108 144.183 456.106 146.297Z" fill="#45424C"/>
<path d="M456.106 146.297C456.106 148.748 455.364 151.141 453.976 153.161C452.588 155.181 450.62 156.732 448.332 157.61L443.986 146.297V134.184C445.577 134.181 447.154 134.492 448.625 135.1C450.097 135.708 451.434 136.6 452.56 137.725C453.686 138.85 454.578 140.186 455.187 141.657C455.795 143.128 456.108 144.705 456.106 146.297Z" fill="#FD3E72"/>
<path d="M444.008 154.678C448.637 154.678 452.389 150.925 452.389 146.296C452.389 141.668 448.637 137.915 444.008 137.915C439.379 137.915 435.627 141.668 435.627 146.296C435.627 150.925 439.379 154.678 444.008 154.678Z" fill="white"/>
<path d="M447.495 144.441H440.521V145.426H447.495V144.441Z" fill="#263238"/>
<path d="M449.228 147.172H438.796V148.157H449.228V147.172Z" fill="#A6A6A6"/>
</g>
<g opacity="0.7">
<path d="M490.082 146.3C490.082 149.24 489.013 152.08 487.074 154.29C485.135 156.5 482.459 157.929 479.544 158.311C476.628 158.693 473.674 158.002 471.231 156.366C468.788 154.731 467.023 152.262 466.265 149.421C465.508 146.58 465.81 143.561 467.115 140.926C468.419 138.291 470.638 136.221 473.356 135.101C476.075 133.982 479.108 133.889 481.889 134.84C484.671 135.792 487.012 137.723 488.475 140.273C489.531 142.106 490.086 144.184 490.082 146.3Z" fill="#45424C"/>
<path d="M490.082 146.297C490.085 148.614 489.423 150.884 488.176 152.836C486.928 154.789 485.146 156.343 483.041 157.313C480.937 158.283 478.598 158.63 476.303 158.311C474.008 157.992 471.852 157.022 470.092 155.514L477.954 146.297V134.184C479.546 134.183 481.122 134.496 482.592 135.104C484.062 135.712 485.399 136.604 486.524 137.729C487.65 138.854 488.543 140.19 489.152 141.66C489.761 143.13 490.074 144.705 490.074 146.297H490.082Z" fill="#FD3E72"/>
<path d="M477.962 154.678C482.591 154.678 486.343 150.925 486.343 146.296C486.343 141.668 482.591 137.915 477.962 137.915C473.333 137.915 469.581 141.668 469.581 146.296C469.581 150.925 473.333 154.678 477.962 154.678Z" fill="white"/>
<path d="M481.449 144.441H474.474V145.426H481.449V144.441Z" fill="#263238"/>
<path d="M483.174 147.172H472.742V148.157H483.174V147.172Z" fill="#A6A6A6"/>
</g>
<defs>
<filter id="filter0_d" x="0.421875" y="115.255" width="181.976" height="240.888" filterUnits="userSpaceOnUse" color-interpolation-filters="sRGB">
<feFlood flood-opacity="0" result="BackgroundImageFix"/>
<feColorMatrix in="SourceAlpha" type="matrix" values="0 0 0 0 0 0 0 0 0 0 0 0 0 0 0 0 0 0 127 0" result="hardAlpha"/>
<feOffset dy="4"/>
<feGaussianBlur stdDeviation="7"/>
<feColorMatrix type="matrix" values="0 0 0 0 0 0 0 0 0 0 0 0 0 0 0 0 0 0 0.15 0"/>
<feBlend mode="normal" in2="BackgroundImageFix" result="effect1_dropShadow"/>
<feBlend mode="normal" in="SourceGraphic" in2="effect1_dropShadow" result="shape"/>
</filter>
<filter id="filter1_d" x="166.889" y="0" width="179.038" height="178.352" filterUnits="userSpaceOnUse" color-interpolation-filters="sRGB">
<feFlood flood-opacity="0" result="BackgroundImageFix"/>
<feColorMatrix in="SourceAlpha" type="matrix" values="0 0 0 0 0 0 0 0 0 0 0 0 0 0 0 0 0 0 127 0" result="hardAlpha"/>
<feOffset dy="4"/>
<feGaussianBlur stdDeviation="7.5"/>
<feColorMatrix type="matrix" values="0 0 0 0 0 0 0 0 0 0 0 0 0 0 0 0 0 0 0.25 0"/>
<feBlend mode="normal" in2="BackgroundImageFix" result="effect1_dropShadow"/>
<feBlend mode="normal" in="SourceGraphic" in2="effect1_dropShadow" result="shape"/>
</filter>
<filter id="filter2_d" x="210.818" y="97.4323" width="91.9341" height="54.8462" filterUnits="userSpaceOnUse" color-interpolation-filters="sRGB">
<feFlood flood-opacity="0" result="BackgroundImageFix"/>
<feColorMatrix in="SourceAlpha" type="matrix" values="0 0 0 0 0 0 0 0 0 0 0 0 0 0 0 0 0 0 127 0" result="hardAlpha"/>
<feOffset dy="3"/>
<feGaussianBlur stdDeviation="6.5"/>
<feComposite in2="hardAlpha" operator="out"/>
<feColorMatrix type="matrix" values="0 0 0 0 0 0 0 0 0 0 0 0 0 0 0 0 0 0 0.15 0"/>
<feBlend mode="normal" in2="BackgroundImageFix" result="effect1_dropShadow"/>
<feBlend mode="normal" in="SourceGraphic" in2="effect1_dropShadow" result="shape"/>
</filter>
<filter id="filter3_d" x="232.202" y="133.169" width="48.7962" height="66.3812" filterUnits="userSpaceOnUse" color-interpolation-filters="sRGB">
<feFlood flood-opacity="0" result="BackgroundImageFix"/>
<feColorMatrix in="SourceAlpha" type="matrix" values="0 0 0 0 0 0 0 0 0 0 0 0 0 0 0 0 0 0 127 0" result="hardAlpha"/>
<feOffset dy="4"/>
<feGaussianBlur stdDeviation="5.5"/>
<feComposite in2="hardAlpha" operator="out"/>
<feColorMatrix type="matrix" values="0 0 0 0 0 0 0 0 0 0 0 0 0 0 0 0 0 0 0.25 0"/>
<feBlend mode="normal" in2="BackgroundImageFix" result="effect1_dropShadow"/>
<feBlend mode="normal" in="SourceGraphic" in2="effect1_dropShadow" result="shape"/>
</filter>
<filter id="filter4_d" x="384.94" y="252.928" width="87.012" height="87.012" filterUnits="userSpaceOnUse" color-interpolation-filters="sRGB">
<feFlood flood-opacity="0" result="BackgroundImageFix"/>
<feColorMatrix in="SourceAlpha" type="matrix" values="0 0 0 0 0 0 0 0 0 0 0 0 0 0 0 0 0 0 127 0" result="hardAlpha"/>
<feOffset dy="4"/>
<feGaussianBlur stdDeviation="5.5"/>
<feColorMatrix type="matrix" values="0 0 0 0 0 0 0 0 0 0 0 0 0 0 0 0 0 0 0.35 0"/>
<feBlend mode="normal" in2="BackgroundImageFix" result="effect1_dropShadow"/>
<feBlend mode="normal" in="SourceGraphic" in2="effect1_dropShadow" result="shape"/>
</filter>
<filter id="filter5_d" x="327.47" y="103.928" width="198.53" height="130.952" filterUnits="userSpaceOnUse" color-interpolation-filters="sRGB">
<feFlood flood-opacity="0" result="BackgroundImageFix"/>
<feColorMatrix in="SourceAlpha" type="matrix" values="0 0 0 0 0 0 0 0 0 0 0 0 0 0 0 0 0 0 127 0" result="hardAlpha"/>
<feOffset dy="4"/>
<feGaussianBlur stdDeviation="9"/>
<feColorMatrix type="matrix" values="0 0 0 0 0 0 0 0 0 0 0 0 0 0 0 0 0 0 0.2 0"/>
<feBlend mode="normal" in2="BackgroundImageFix" result="effect1_dropShadow"/>
<feBlend mode="normal" in="SourceGraphic" in2="effect1_dropShadow" result="shape"/>
</filter>
</defs>
</svg>
