<svg width="416" height="416" viewBox="0 0 416 416" fill="none" xmlns="http://www.w3.org/2000/svg">
<circle cx="208" cy="208" r="208" fill="#FFF2F6"/>
<ellipse cx="207.624" cy="208" rx="152.058" ry="152.433" fill="#FFE7EE"/>
<path d="M32.9004 214.039C32.9004 214.039 32.5284 209.491 38.378 202.59C44.2277 195.69 48.0314 191.719 48.0314 191.719C48.0314 191.719 52.0769 201.949 46.6829 208.784C42.6961 213.635 38.3098 218.142 33.57 222.26L32.9004 214.039Z" fill="#FD3E72"/>
<path d="M44.4838 241.706C44.4838 241.706 44.1118 237.159 49.9615 230.258C55.8112 223.357 59.6056 219.386 59.6056 219.386C59.6056 219.386 63.6511 229.616 58.2571 236.452C54.2722 241.292 49.8889 245.79 45.1534 249.9L44.4838 241.706Z" fill="#FD3E72"/>
<path d="M33.9412 221.767C33.9412 221.767 33.0856 217.285 25.5712 212.197C18.0569 207.11 13.3697 204.292 13.3697 204.292C13.3697 204.292 12.1886 215.211 19.2193 220.381C24.3491 223.984 29.7713 227.151 35.4292 229.849L33.9412 221.767Z" fill="#FD3E72"/>
<path d="M47.8702 254.419C47.8702 254.419 46.5496 250.048 38.5702 245.77C30.5908 241.492 25.606 239.186 25.606 239.186C25.606 239.186 25.606 250.169 33.1111 254.568C38.5969 257.602 44.3272 260.172 50.2417 262.25L47.8702 254.419Z" fill="#FD3E72"/>
<path d="M48.7933 291.192C48.7933 291.192 48.4212 286.644 41.5206 280.794C34.62 274.945 30.2304 271.643 30.2304 271.643C30.2304 271.643 27.9054 282.375 34.3503 288.262C39.0703 292.398 44.1286 296.131 49.4722 299.422L48.7933 291.192Z" fill="#FD3E72"/>
<path d="M49.6268 300.119C49.6268 300.119 48.6131 295.665 53.4212 288.029C58.2294 280.394 61.4193 275.939 61.4193 275.939C61.4193 275.939 66.8784 285.472 62.5167 293.024C59.2607 298.382 55.5619 303.459 51.4589 308.201L49.6268 300.119Z" fill="#FD3E72"/>
<path d="M58.0823 326.085C58.0823 326.085 57.7103 321.538 50.8097 315.688C43.9091 309.838 39.5196 306.537 39.5196 306.537C39.5196 306.537 37.1946 317.269 43.6395 323.156C48.3595 327.292 53.4178 331.025 58.7612 334.316L58.0823 326.085Z" fill="#FD3E72"/>
<path d="M55.8041 350.442C55.8041 350.442 56.5946 345.941 51.4051 338.538C46.2157 331.135 42.8026 326.82 42.8026 326.82C42.8026 326.82 37.8364 336.613 42.5794 343.941C46.1021 349.129 50.0529 354.013 54.3905 358.542L55.8041 350.442Z" fill="#FD3E72"/>
<path d="M32.2249 212.96C32.9399 217.66 33.9116 222.317 35.1359 226.91C38.7257 239.716 45.71 247.593 49.1975 259.144C52.685 270.694 46.6958 286.43 49.8764 301.375C53.057 316.32 59.6228 324.225 58.7765 334.446C57.9302 344.667 51.3364 372.678 51.3364 372.678" stroke="#263238" stroke-width="0.53" stroke-linecap="round" stroke-linejoin="round"/>
<path d="M34.2534 224.78L26.9529 220.074" stroke="#263238" stroke-width="0.53" stroke-linecap="round" stroke-linejoin="round"/>
<path d="M33.4272 218.744L35.8823 213.397" stroke="#263238" stroke-width="0.53" stroke-linecap="round" stroke-linejoin="round"/>
<path d="M48.769 258.642C48.769 258.642 42.6683 254.801 36.4001 250.979" stroke="#263238" stroke-width="0.53" stroke-linecap="round" stroke-linejoin="round"/>
<path d="M45.1559 249.899C45.1559 249.899 49.1735 240.116 54.0933 233.438" stroke="#263238" stroke-width="0.53" stroke-linecap="round" stroke-linejoin="round"/>
<path d="M49.0972 297.692C45.317 291.913 40.7183 286.713 35.4448 282.254" stroke="#263238" stroke-width="0.53" stroke-linecap="round" stroke-linejoin="round"/>
<path d="M50.7363 303.988C52.1428 299.739 53.9004 295.614 55.9908 291.656C58.9389 286.43 59.3667 285.751 59.3667 285.751" stroke="#263238" stroke-width="0.53" stroke-linecap="round" stroke-linejoin="round"/>
<path d="M58.7729 334.446C57.0203 330.949 55.0025 327.591 52.7372 324.402C50.4881 321.458 47.9996 318.705 45.2972 316.171" stroke="#263238" stroke-width="0.53" stroke-linecap="round" stroke-linejoin="round"/>
<path d="M54.388 358.533C54.44 355.051 53.5603 351.619 51.8398 348.591C49.0498 344.155 45.8506 338.315 44.53 336.008" stroke="#263238" stroke-width="0.53" stroke-linecap="round" stroke-linejoin="round"/>
<path d="M79.6596 271.42C79.6596 271.42 79.92 268.528 76.2279 264.11C72.5358 259.693 70.1364 257.145 70.1364 257.145C70.1364 257.145 67.5138 263.655 70.9176 268.016C73.4311 271.116 76.1998 274 79.1946 276.637L79.6596 271.42Z" fill="#C6FF00"/>
<path d="M78.939 276.33C78.939 276.33 79.5063 273.475 84.2866 270.276C89.0668 267.077 92.0892 265.3 92.0892 265.3C92.0892 265.3 92.7868 272.257 88.2949 275.53C85.0136 277.8 81.5481 279.791 77.9346 281.482L78.939 276.33Z" fill="#C6FF00"/>
<path d="M62.4809 349.81C62.4809 349.81 61.9136 346.954 57.124 343.765C52.3345 340.575 49.3213 338.798 49.3213 338.798C49.3213 338.798 48.6331 345.755 53.1343 349.028C56.4189 351.295 59.8876 353.283 63.5039 354.971L62.4809 349.81Z" fill="#FD3E72"/>
<path d="M78.7218 278.255L83.3904 275.289" stroke="#263238" stroke-width="0.53" stroke-linecap="round" stroke-linejoin="round"/>
<path d="M79.2729 274.405L77.7384 270.992" stroke="#263238" stroke-width="0.53" stroke-linecap="round" stroke-linejoin="round"/>
<path d="M63.2378 352.841C61.4925 351.006 59.5879 349.328 57.5462 347.829C56.2578 347.036 55.0355 346.14 53.8912 345.15" stroke="#263238" stroke-width="0.53" stroke-linecap="round" stroke-linejoin="round"/>
<path d="M72.1283 288.978C72.1283 288.978 72.3887 286.086 68.6966 281.668C65.0045 277.251 62.6051 274.703 62.6051 274.703C62.6051 274.703 59.9825 281.213 63.3863 285.574C65.8999 288.674 68.6686 291.558 71.6633 294.195L72.1283 288.978Z" fill="#FD3E72"/>
<path d="M69.915 297.05C69.915 297.05 70.7799 294.26 75.867 291.591C80.9541 288.922 84.144 287.462 84.144 287.462C84.144 287.462 84.1441 294.446 79.2987 297.218C75.7973 299.129 72.142 300.743 68.3712 302.044L69.915 297.05Z" fill="#FD3E72"/>
<path d="M69.1761 320.45C69.1761 320.45 69.4365 317.557 73.8261 313.865C78.2157 310.173 81.0522 308.09 81.0522 308.09C81.0522 308.09 82.4844 314.925 78.3552 318.645C75.3325 321.248 72.0972 323.594 68.6832 325.658L69.1761 320.45Z" fill="#FD3E72"/>
<path d="M68.5926 326.122C68.5926 326.122 69.2622 323.332 66.2398 318.394C63.2173 313.456 61.1992 310.638 61.1992 310.638C61.1992 310.638 57.6838 316.673 60.4273 321.509C62.4741 324.935 64.8042 328.182 67.393 331.219L68.5926 326.122Z" fill="#FD3E72"/>
<path d="M63.0864 342.611C63.0864 342.611 63.3468 339.719 67.7364 336.027C72.1259 332.335 74.9624 330.251 74.9624 330.251C74.9624 330.251 76.3946 337.087 72.2654 340.807C69.2427 343.41 66.0075 345.756 62.5935 347.819L63.0864 342.611Z" fill="#FD3E72"/>
<path d="M64.4216 358.114C64.4216 358.114 63.938 355.25 67.2767 350.563C70.6154 345.875 72.8102 343.123 72.8102 343.123C72.8102 343.123 75.9257 349.381 72.8753 354.022C70.6109 357.307 68.0756 360.396 65.2958 363.257L64.4216 358.114Z" fill="#FD3E72"/>
<path d="M80.0698 270.713C79.5944 273.709 78.9548 276.677 78.154 279.604C75.8105 287.741 71.3279 292.717 69.0587 300.064C66.7895 307.411 70.5188 317.445 68.4356 326.931C66.3524 336.417 62.1302 341.43 62.6231 347.931C63.116 354.431 67.1708 372.297 67.1708 372.297" stroke="#263238" stroke-width="0.53" stroke-linecap="round" stroke-linejoin="round"/>
<path d="M69.3329 299.729C69.3329 299.729 73.2388 297.311 77.2378 294.911" stroke="#263238" stroke-width="0.53" stroke-linecap="round" stroke-linejoin="round"/>
<path d="M71.6636 294.186C70.1661 290.5 68.2964 286.975 66.0835 283.668" stroke="#263238" stroke-width="0.53" stroke-linecap="round" stroke-linejoin="round"/>
<path d="M68.9459 324.56C71.3782 320.898 74.3292 317.609 77.7065 314.795" stroke="#263238" stroke-width="0.53" stroke-linecap="round" stroke-linejoin="round"/>
<path d="M67.8745 328.577C66.9972 325.868 65.8961 323.236 64.5823 320.709C62.7223 317.371 62.4619 316.934 62.4619 316.934" stroke="#263238" stroke-width="0.53" stroke-linecap="round" stroke-linejoin="round"/>
<path d="M62.599 347.931C63.7306 345.714 65.0302 343.587 66.4864 341.569C67.9304 339.705 69.5262 337.963 71.2573 336.361" stroke="#263238" stroke-width="0.53" stroke-linecap="round" stroke-linejoin="round"/>
<path d="M65.2838 363.276C65.2703 361.06 65.8482 358.88 66.9578 356.961C68.7434 354.171 70.8173 350.451 71.6636 348.991" stroke="#263238" stroke-width="0.53" stroke-linecap="round" stroke-linejoin="round"/>
<path d="M380.71 349.81C380.71 349.81 380.143 346.954 375.354 343.765C370.564 340.575 367.551 338.798 367.551 338.798C367.551 338.798 366.863 345.755 371.364 349.028C374.648 351.295 378.117 353.283 381.733 354.971L380.71 349.81Z" fill="#FD3E72"/>
<path d="M382.636 358.114C382.636 358.114 382.153 355.25 385.492 350.563C388.83 345.875 391.025 343.123 391.025 343.123C391.025 343.123 394.141 349.381 391.09 354.022C388.826 357.307 386.29 360.396 383.511 363.257L382.636 358.114Z" fill="#FD3E72"/>
<path d="M397.859 271.42C397.859 271.42 398.119 268.528 394.427 264.11C390.735 259.693 388.336 257.145 388.336 257.145C388.336 257.145 385.713 263.655 389.117 268.016C391.63 271.116 394.399 274 397.394 276.637L397.859 271.42Z" fill="#FD3E72"/>
<path d="M390.343 288.979C390.343 288.979 390.604 286.086 386.911 281.669C383.219 277.251 380.82 274.703 380.82 274.703C380.82 274.703 378.197 281.213 381.601 285.575C384.115 288.674 386.883 291.558 389.878 294.196L390.343 288.979Z" fill="#FD3E72"/>
<path d="M397.154 276.331C397.154 276.331 397.721 273.475 402.501 270.276C407.282 267.077 410.304 265.301 410.304 265.301C410.304 265.301 411.002 272.257 406.51 275.531C403.228 277.8 399.763 279.791 396.149 281.483L397.154 276.331Z" fill="#FD3E72"/>
<path d="M388.13 297.051C388.13 297.051 388.985 294.261 394.082 291.592C399.178 288.923 402.359 287.453 402.359 287.453C402.359 287.453 402.359 294.437 397.514 297.209C394 299.125 390.333 300.743 386.549 302.045L388.13 297.051Z" fill="#FD3E72"/>
<path d="M387.375 320.45C387.375 320.45 387.636 317.557 392.025 313.865C396.415 310.173 399.251 308.09 399.251 308.09C399.251 308.09 400.684 314.925 396.554 318.645C393.532 321.248 390.296 323.594 386.882 325.658L387.375 320.45Z" fill="#FD3E72"/>
<path d="M386.807 326.123C386.807 326.123 387.477 323.333 384.455 318.394C381.432 313.456 379.414 310.61 379.414 310.61C379.414 310.61 375.899 316.646 378.642 321.482C380.694 324.917 383.03 328.175 385.626 331.219L386.807 326.123Z" fill="#FD3E72"/>
<path d="M381.297 342.612C381.297 342.612 381.558 339.719 385.947 336.027C390.337 332.335 393.173 330.252 393.173 330.252C393.173 330.252 394.606 337.087 390.476 340.807C387.462 343.406 384.236 345.749 380.832 347.81L381.297 342.612Z" fill="#FD3E72"/>
<path d="M398.285 270.713C397.809 273.71 397.17 276.678 396.369 279.604C394.025 287.742 389.543 292.717 387.273 300.064C385.004 307.411 388.734 317.446 386.65 326.932C384.567 336.418 380.345 341.431 380.838 347.931C381.331 354.432 385.386 372.297 385.386 372.297" stroke="#263238" stroke-width="0.53" stroke-linecap="round" stroke-linejoin="round"/>
<path d="M396.936 278.256L401.605 275.289" stroke="#263238" stroke-width="0.53" stroke-linecap="round" stroke-linejoin="round"/>
<path d="M397.488 274.405L395.953 270.992" stroke="#263238" stroke-width="0.53" stroke-linecap="round" stroke-linejoin="round"/>
<path d="M387.544 299.729C387.544 299.729 391.45 297.311 395.449 294.912" stroke="#263238" stroke-width="0.53" stroke-linecap="round" stroke-linejoin="round"/>
<path d="M389.89 294.186C388.393 290.5 386.523 286.975 384.31 283.668" stroke="#263238" stroke-width="0.53" stroke-linecap="round" stroke-linejoin="round"/>
<path d="M387.161 324.56C389.593 320.898 392.544 317.609 395.921 314.795" stroke="#263238" stroke-width="0.53" stroke-linecap="round" stroke-linejoin="round"/>
<path d="M386.085 328.578C385.223 325.87 384.138 323.238 382.84 320.71C380.98 317.371 380.719 316.934 380.719 316.934" stroke="#263238" stroke-width="0.53" stroke-linecap="round" stroke-linejoin="round"/>
<path d="M381.437 352.842C379.693 350.999 377.788 349.315 375.745 347.81C374.457 347.017 373.235 346.122 372.09 345.132" stroke="#263238" stroke-width="0.53" stroke-linecap="round" stroke-linejoin="round"/>
<path d="M380.829 347.931C381.954 345.712 383.247 343.582 384.697 341.561C386.141 339.696 387.737 337.954 389.468 336.353" stroke="#263238" stroke-width="0.53" stroke-linecap="round" stroke-linejoin="round"/>
<path d="M383.514 363.276C383.501 361.06 384.079 358.88 385.188 356.961C386.974 354.171 389.048 350.451 389.894 348.991" stroke="#263238" stroke-width="0.53" stroke-linecap="round" stroke-linejoin="round"/>
<path d="M30.9317 373.506H404.894" stroke="#263238" stroke-width="1.06" stroke-linejoin="round"/>
<path d="M94.0402 373.571L211.908 373.048C218.716 373.017 225.233 370.283 230.026 365.446C234.819 360.609 237.495 354.065 237.467 347.254L236.216 51.5806C236.203 48.2063 235.526 44.8676 234.223 41.7553C232.919 38.6431 231.016 35.8184 228.621 33.4427C226.225 31.0669 223.386 29.1868 220.264 27.9098C217.142 26.6328 213.799 25.9839 210.426 26.0003L92.5587 26.5417C85.7538 26.5863 79.2437 29.3264 74.4535 34.1622C69.6632 38.998 66.9831 45.5356 66.9996 52.3439L68.2505 347.991C68.2633 351.365 68.9407 354.704 70.244 357.816C71.5474 360.928 73.451 363.753 75.8462 366.129C78.2413 368.505 81.081 370.385 84.2028 371.662C87.3247 372.939 90.6676 373.588 94.0402 373.571Z" fill="#403D49"/>
<path d="M183.798 46.1206L90.6082 46.5248C88.1536 46.535 85.7251 46.9957 83.4615 47.8807C81.1979 48.7657 79.1435 50.0577 77.4155 51.6829C75.6876 53.308 74.3199 55.2346 73.3907 57.3524C72.4614 59.4703 71.9888 61.7381 71.9997 64.0262L73.2636 343.636C73.2745 345.926 73.7692 348.192 74.7196 350.305C75.6699 352.417 77.0572 354.334 78.8023 355.946C80.5474 357.559 82.6161 358.835 84.8903 359.702C87.1645 360.569 89.5996 361.01 92.0566 361L214.382 360.475C219.341 360.452 224.087 358.595 227.578 355.312C231.069 352.029 233.019 347.588 232.999 342.965L231.68 63.3554C231.67 61.0658 231.177 58.8004 230.227 56.6888C229.278 54.5771 227.891 52.6606 226.147 51.0488C224.402 49.437 222.334 48.1615 220.061 47.2952C217.787 46.4289 215.352 45.9889 212.896 46.0002L192.157 46.1206H183.798Z" fill="#FAFAFA"/>
<path d="M125.015 280H126.714V271.475H125.015V280Z" fill="#5B5863"/>
<path d="M131.97 274.042C131.607 274.042 131.261 274.118 130.933 274.264C130.605 274.411 130.324 274.622 130.089 274.897H130.072V274.141H128.501V280H130.072V277.053C130.072 276.543 130.189 276.151 130.429 275.87C130.669 275.594 130.992 275.454 131.402 275.454C131.783 275.454 132.064 275.565 132.251 275.782C132.433 276.004 132.527 276.379 132.527 276.918V280.006H134.097V276.526C134.097 276.086 134.044 275.706 133.945 275.377C133.839 275.055 133.693 274.797 133.5 274.604C133.306 274.417 133.083 274.276 132.832 274.182C132.58 274.088 132.292 274.042 131.97 274.042Z" fill="#5B5863"/>
<path d="M137.496 280.1C138.234 280.1 138.796 279.936 139.183 279.596C139.57 279.262 139.769 278.823 139.769 278.278C139.769 278.137 139.757 278.002 139.734 277.885C139.658 277.499 139.429 277.182 139.054 276.948C138.832 276.807 138.398 276.62 137.753 276.379C137.443 276.262 137.22 276.157 137.08 276.063C136.939 275.969 136.875 275.864 136.875 275.747C136.875 275.606 136.933 275.5 137.05 275.424C137.167 275.348 137.296 275.307 137.449 275.307C137.671 275.307 137.906 275.36 138.152 275.465C138.398 275.571 138.626 275.723 138.849 275.928L139.611 274.78C139.277 274.522 138.937 274.334 138.597 274.217C138.251 274.1 137.876 274.042 137.466 274.042C137.068 274.042 136.705 274.118 136.388 274.258C136.072 274.405 135.82 274.61 135.632 274.879C135.445 275.149 135.357 275.454 135.357 275.799C135.357 275.987 135.375 276.157 135.421 276.309C135.462 276.467 135.527 276.608 135.609 276.725C135.691 276.848 135.785 276.959 135.89 277.053C135.996 277.153 136.119 277.241 136.265 277.323C136.406 277.405 136.546 277.469 136.687 277.528C136.828 277.586 136.986 277.645 137.162 277.704C137.437 277.797 137.642 277.868 137.783 277.926C137.923 277.985 138.029 278.049 138.111 278.12C138.187 278.19 138.228 278.266 138.228 278.354C138.228 278.5 138.164 278.618 138.035 278.706C137.906 278.799 137.73 278.84 137.507 278.84C136.91 278.84 136.371 278.612 135.884 278.155L135.123 279.239C135.773 279.813 136.564 280.1 137.496 280.1Z" fill="#5B5863"/>
<path d="M142.804 280.1C143.162 280.1 143.455 280.071 143.683 280.006C143.906 279.948 144.134 279.854 144.357 279.731L143.953 278.477C143.683 278.618 143.437 278.682 143.214 278.682C143.027 278.682 142.898 278.624 142.816 278.5C142.734 278.383 142.699 278.19 142.699 277.932V275.442H144.292V274.141H142.699V272.055L141.128 272.225V274.141H140.437V275.442H141.128V278.149C141.128 278.793 141.275 279.28 141.574 279.608C141.873 279.936 142.283 280.1 142.804 280.1Z" fill="#5B5863"/>
<path d="M149.378 274.141V274.803H149.355C148.916 274.299 148.341 274.042 147.626 274.042C147.24 274.042 146.871 274.118 146.531 274.27C146.191 274.422 145.898 274.633 145.652 274.897C145.406 275.167 145.218 275.489 145.078 275.864C144.937 276.245 144.867 276.655 144.867 277.088C144.867 277.534 144.937 277.95 145.078 278.325C145.218 278.7 145.412 279.022 145.658 279.28C145.904 279.538 146.203 279.743 146.548 279.883C146.894 280.03 147.269 280.1 147.673 280.1C148.423 280.1 149.003 279.831 149.425 279.292H149.455V280H150.949V274.141H149.378ZM147.96 278.694C147.515 278.694 147.158 278.547 146.876 278.249C146.595 277.956 146.46 277.569 146.46 277.094C146.46 276.602 146.601 276.209 146.888 275.905C147.175 275.606 147.533 275.454 147.966 275.454C148.388 275.454 148.74 275.612 149.021 275.922C149.302 276.239 149.443 276.625 149.443 277.094C149.443 277.569 149.296 277.956 149.015 278.249C148.728 278.547 148.376 278.694 147.96 278.694Z" fill="#5B5863"/>
<path d="M152.56 280H154.13V271.165H152.56V280Z" fill="#5B5863"/>
<path d="M155.865 280H157.435V271.165H155.865V280Z" fill="#5B5863"/>
<path d="M159.955 273.315C160.218 273.315 160.447 273.221 160.64 273.034C160.828 272.846 160.927 272.624 160.927 272.354C160.927 272.096 160.828 271.868 160.64 271.68C160.447 271.493 160.218 271.399 159.955 271.399C159.685 271.399 159.451 271.493 159.263 271.68C159.076 271.868 158.982 272.096 158.982 272.354C158.982 272.53 159.023 272.694 159.111 272.84C159.193 272.987 159.31 273.104 159.462 273.186C159.615 273.274 159.779 273.315 159.955 273.315ZM159.169 280H160.74V274.141H159.169V280Z" fill="#5B5863"/>
<path d="M165.873 274.042C165.509 274.042 165.164 274.118 164.835 274.264C164.507 274.411 164.226 274.622 163.992 274.897H163.974V274.141H162.404V280H163.974V277.053C163.974 276.543 164.091 276.151 164.332 275.87C164.572 275.594 164.894 275.454 165.304 275.454C165.685 275.454 165.966 275.565 166.154 275.782C166.335 276.004 166.429 276.379 166.429 276.918V280.006H168V276.526C168 276.086 167.947 275.706 167.847 275.377C167.742 275.055 167.595 274.797 167.402 274.604C167.208 274.417 166.986 274.276 166.734 274.182C166.482 274.088 166.195 274.042 165.873 274.042Z" fill="#5B5863"/>
<path d="M173.66 274.141V274.745H173.63C173.402 274.516 173.138 274.34 172.833 274.223C172.529 274.106 172.212 274.042 171.878 274.042C171.363 274.042 170.894 274.17 170.484 274.422C170.068 274.68 169.746 275.032 169.511 275.483C169.277 275.94 169.166 276.45 169.166 277.012C169.166 277.575 169.283 278.073 169.523 278.512C169.763 278.952 170.097 279.292 170.519 279.532C170.941 279.778 171.421 279.895 171.96 279.895C172.664 279.895 173.232 279.667 173.666 279.209H173.695V279.801C173.695 280.176 173.548 280.487 173.261 280.733C172.968 280.979 172.564 281.102 172.037 281.102C171.685 281.102 171.363 281.055 171.064 280.961C170.759 280.868 170.449 280.733 170.132 280.557L169.769 281.881C170.455 282.28 171.257 282.473 172.171 282.473C172.611 282.473 173.003 282.426 173.349 282.321C173.695 282.221 173.988 282.081 174.222 281.893C174.457 281.711 174.65 281.489 174.802 281.225C174.955 280.961 175.06 280.674 175.13 280.358C175.195 280.047 175.23 279.702 175.23 279.327V274.141H173.66ZM172.248 278.471C172.078 278.471 171.919 278.454 171.767 278.407C171.615 278.36 171.48 278.295 171.357 278.208C171.234 278.125 171.128 278.02 171.041 277.897C170.947 277.78 170.876 277.639 170.83 277.481C170.783 277.323 170.759 277.153 170.759 276.965C170.759 276.526 170.894 276.168 171.175 275.887C171.451 275.612 171.808 275.471 172.248 275.471C172.669 275.471 173.021 275.612 173.302 275.881C173.583 276.157 173.73 276.514 173.73 276.954C173.73 277.399 173.589 277.762 173.314 278.043C173.033 278.331 172.681 278.471 172.248 278.471Z" fill="#5B5863"/>
<g filter="url(#filter0_d)">
<path d="M126.164 113H172.341C177.123 113 181 116.878 181 121.663V167.862C181 172.646 177.123 176.525 172.341 176.525H126.164C121.382 176.525 117.506 172.646 117.506 167.862V121.663C117.506 116.878 121.382 113 126.164 113Z" fill="white"/>
</g>
<path d="M147.969 145.002H142.415C142.162 145.002 141.971 145.223 142.017 145.468C142.024 145.521 142.032 145.575 142.04 145.628C142.078 145.842 142.139 146.048 142.223 146.255C142.353 146.568 142.56 146.843 142.843 147.088C143.119 147.332 143.509 147.447 144.006 147.447C144.503 147.447 144.886 147.325 145.169 147.088C145.391 146.897 145.559 146.683 145.689 146.453C145.758 146.331 145.896 146.255 146.034 146.255H147.587C147.87 146.255 148.061 146.537 147.969 146.797C147.9 146.996 147.816 147.187 147.717 147.355C147.541 147.668 147.35 147.944 147.135 148.173C146.921 148.402 146.699 148.593 146.454 148.746C146.21 148.899 145.98 149.021 145.751 149.12C145.192 149.334 144.611 149.449 143.991 149.449C143.18 149.434 142.461 149.265 141.833 148.945C141.565 148.799 141.305 148.616 141.045 148.394C140.785 148.173 140.555 147.89 140.357 147.554C140.158 147.218 139.997 146.813 139.875 146.339C139.752 145.865 139.691 145.323 139.691 144.688C139.691 144.062 139.752 143.511 139.875 143.038C139.997 142.564 140.158 142.159 140.357 141.815C140.555 141.471 140.785 141.188 141.045 140.959C141.305 140.73 141.565 140.547 141.833 140.401C142.453 140.065 143.164 139.889 143.968 139.859C143.983 139.859 143.998 139.859 144.014 139.859C144.672 139.889 145.284 140.027 145.858 140.272C146.102 140.379 146.347 140.524 146.592 140.699C146.837 140.875 147.066 141.089 147.281 141.349C147.495 141.609 147.679 141.914 147.839 142.274C148 142.633 148.122 143.045 148.191 143.511C148.214 143.695 148.237 143.878 148.252 144.069C148.268 144.26 148.283 144.467 148.283 144.688C148.291 144.673 148.337 145.002 147.969 145.002ZM145.322 143.496C145.613 143.496 145.819 143.191 145.689 142.931C145.689 142.931 145.689 142.923 145.682 142.923C145.59 142.732 145.467 142.556 145.307 142.396C145.146 142.243 144.962 142.113 144.748 142.021C144.534 141.93 144.274 141.884 143.991 141.884C143.7 141.884 143.448 141.93 143.233 142.021C143.019 142.113 142.828 142.235 142.675 142.396C142.514 142.556 142.392 142.724 142.292 142.923V142.931C142.162 143.198 142.369 143.504 142.66 143.504H145.322V143.496Z" fill="#A12B52"/>
<path d="M138.581 136C137.357 136 136.37 136.986 136.37 138.208V144.604C136.37 144.872 136.354 145.139 136.324 145.422C136.293 145.697 136.217 145.949 136.094 146.178C135.972 146.408 135.788 146.599 135.543 146.751C135.299 146.904 134.947 146.981 134.503 146.981C134.059 146.981 133.707 146.904 133.462 146.751C133.217 146.599 133.034 146.408 132.911 146.178C132.789 145.949 132.712 145.697 132.682 145.422C132.651 145.147 132.636 144.872 132.636 144.604V138.01C131.412 138.01 130.425 138.995 130.425 140.218V144.597C130.425 144.864 130.41 145.132 130.379 145.414C130.348 145.689 130.272 145.942 130.149 146.171C130.027 146.4 129.843 146.591 129.599 146.744C129.354 146.897 129.002 146.973 128.558 146.973C128.114 146.973 127.762 146.897 127.517 146.744C127.273 146.591 127.089 146.4 126.967 146.171C126.844 145.942 126.768 145.689 126.737 145.414C126.706 145.139 126.691 144.864 126.691 144.597V140.019C125.467 140.019 124.48 141.013 124.48 142.228V144.597C124.48 145.223 124.541 145.773 124.664 146.247C124.786 146.721 124.939 147.126 125.123 147.47C125.314 147.814 125.528 148.096 125.773 148.326C126.018 148.555 126.27 148.738 126.523 148.883C127.112 149.22 127.793 149.403 128.55 149.426C129.323 149.403 130.004 149.22 130.601 148.883C130.853 148.738 131.106 148.555 131.343 148.326C131.404 148.264 131.465 148.203 131.527 148.135C131.588 148.203 131.649 148.264 131.71 148.326C131.955 148.555 132.208 148.738 132.46 148.883C133.049 149.22 133.73 149.403 134.488 149.426C135.26 149.403 135.941 149.22 136.538 148.883C136.79 148.738 137.043 148.555 137.28 148.326C137.525 148.096 137.739 147.814 137.93 147.47C138.122 147.126 138.275 146.721 138.39 146.247C138.504 145.773 138.558 145.231 138.558 144.597L138.581 136Z" fill="#A12B52"/>
<path d="M154.984 148.868C154.922 149.044 154.762 149.166 154.571 149.166H153.408H152.245C152.061 149.166 151.893 149.044 151.831 148.868L149.131 140.593C149.039 140.31 149.245 140.027 149.544 140.027H150.852C151.036 140.027 151.204 140.149 151.265 140.325L152.994 145.605C153.124 146.003 153.683 146.003 153.813 145.605L154.808 142.564L156.476 137.46C156.843 136.352 158.036 135.74 159.146 136.107L154.984 148.868Z" fill="#EF4273"/>
<path d="M165.65 141.754C165.451 141.41 165.222 141.127 164.962 140.898C164.702 140.669 164.441 140.486 164.174 140.34C163.546 140.004 162.835 139.821 162.047 139.798C161.289 139.798 160.646 139.912 160.119 140.134C159.591 140.356 159.155 140.677 158.81 141.089C158.466 141.502 158.221 142.006 158.06 142.602C157.907 143.198 157.823 143.871 157.823 144.627V151.657C157.823 151.955 158.06 152.192 158.359 152.192H159.43C159.728 152.192 159.966 151.955 159.966 151.657V148.119C160.08 148.28 160.21 148.417 160.348 148.54C160.662 148.807 160.968 148.998 161.266 149.113C161.603 149.243 161.947 149.319 162.307 149.342C162.337 149.342 162.36 149.342 162.391 149.342C163.118 149.327 163.768 149.159 164.334 148.838C164.587 148.692 164.832 148.509 165.069 148.287C165.306 148.066 165.513 147.783 165.704 147.447C165.887 147.111 166.04 146.706 166.155 146.24C166.27 145.773 166.324 145.223 166.324 144.597C166.324 143.97 166.262 143.428 166.132 142.954C166.01 142.495 165.849 142.09 165.65 141.754ZM164.036 145.475C163.99 145.789 163.891 146.079 163.745 146.347C163.6 146.614 163.393 146.843 163.125 147.019C162.858 147.202 162.498 147.286 162.054 147.286C161.61 147.286 161.251 147.195 160.983 147.019C160.715 146.836 160.501 146.614 160.348 146.347C160.195 146.079 160.096 145.789 160.05 145.475C160.004 145.162 159.981 144.872 159.981 144.612C159.981 144.291 160.004 143.97 160.042 143.649C160.088 143.328 160.172 143.045 160.31 142.786C160.448 142.526 160.654 142.32 160.93 142.167C161.205 142.014 161.58 141.93 162.047 141.93C162.49 141.93 162.85 142.022 163.118 142.197C163.386 142.381 163.6 142.602 163.737 142.87C163.883 143.137 163.975 143.435 164.028 143.741C164.074 144.054 164.097 144.345 164.097 144.604C164.105 144.872 164.082 145.162 164.036 145.475Z" fill="#EF4273"/>
<path d="M174.724 142.579C174.54 142.029 174.303 141.578 174.012 141.219C173.721 140.86 173.408 140.585 173.071 140.394C172.734 140.203 172.413 140.057 172.115 139.973C171.816 139.882 171.549 139.836 171.327 139.82C171.105 139.805 170.975 139.805 170.936 139.805C170.891 139.805 170.753 139.813 170.539 139.82C170.324 139.836 170.064 139.882 169.766 139.973C169.467 140.065 169.146 140.203 168.809 140.394C168.473 140.585 168.159 140.86 167.868 141.219C167.578 141.578 167.34 142.036 167.157 142.579C166.973 143.129 166.874 143.802 166.874 144.604V148.685C166.874 148.952 167.088 149.166 167.356 149.166H168.588C168.855 149.166 169.07 148.952 169.07 148.685V144.612C169.07 144.344 169.093 144.077 169.138 143.802C169.184 143.527 169.276 143.274 169.406 143.045C169.536 142.816 169.728 142.625 169.965 142.48C170.202 142.327 170.523 142.258 170.921 142.258C171.319 142.258 171.64 142.334 171.878 142.48C172.115 142.633 172.306 142.816 172.436 143.045C172.566 143.274 172.658 143.527 172.704 143.802C172.75 144.077 172.773 144.352 172.773 144.612V148.685C172.773 148.952 172.987 149.166 173.255 149.166H174.517C174.785 149.166 174.999 148.952 174.999 148.685V144.612C174.999 143.802 174.907 143.129 174.724 142.579Z" fill="#EF4273"/>
<path d="M198.698 136.86L197.172 139.958L193.748 140.455L196.223 142.869L195.637 146.287L198.698 144.671L201.768 146.287L201.182 142.869L203.657 140.455L200.233 139.958L198.698 136.86Z" fill="#FD3E72"/>
<path d="M99.7887 106.097L98.5999 108.502L95.9561 108.884L97.8724 110.748L97.4199 113.393L99.7887 112.141L102.148 113.393L101.696 110.748L103.612 108.884L100.969 108.502L99.7887 106.097Z" fill="#FD3E72"/>
<path d="M102.113 163.666L101.084 165.059L99.354 164.997L100.365 166.408L99.7799 168.032L101.421 167.509L102.787 168.574L102.805 166.843L104.233 165.876L102.592 165.325L102.113 163.666Z" fill="#FD3E72"/>
<path d="M199.878 116.259C200.199 116.259 200.513 116.164 200.78 115.986C201.047 115.807 201.255 115.553 201.378 115.257C201.501 114.96 201.533 114.633 201.47 114.318C201.408 114.003 201.253 113.714 201.026 113.486C200.799 113.259 200.51 113.105 200.195 113.042C199.88 112.979 199.553 113.011 199.257 113.134C198.96 113.257 198.706 113.466 198.528 113.733C198.35 114 198.254 114.314 198.254 114.635C198.253 114.849 198.294 115.06 198.376 115.258C198.457 115.456 198.576 115.635 198.727 115.786C198.878 115.937 199.058 116.057 199.255 116.138C199.453 116.219 199.664 116.261 199.878 116.259ZM199.878 113.907C200.024 113.907 200.167 113.951 200.288 114.032C200.409 114.113 200.504 114.229 200.559 114.364C200.615 114.499 200.629 114.648 200.599 114.791C200.57 114.934 200.499 115.065 200.395 115.168C200.292 115.271 200.16 115.34 200.016 115.368C199.873 115.395 199.724 115.379 199.59 115.322C199.456 115.265 199.341 115.169 199.261 115.047C199.182 114.924 199.14 114.781 199.142 114.635C199.137 114.536 199.152 114.437 199.187 114.343C199.222 114.25 199.276 114.166 199.345 114.094C199.414 114.023 199.497 113.966 199.588 113.928C199.68 113.889 199.779 113.87 199.878 113.872V113.907Z" fill="#FD3E72"/>
<path d="M108.341 138.653C108.662 138.653 108.976 138.558 109.243 138.379C109.51 138.201 109.718 137.947 109.841 137.65C109.964 137.353 109.996 137.027 109.933 136.712C109.871 136.397 109.716 136.107 109.489 135.88C109.262 135.653 108.973 135.498 108.658 135.436C108.343 135.373 108.016 135.405 107.72 135.528C107.423 135.651 107.169 135.859 106.991 136.126C106.813 136.393 106.717 136.707 106.717 137.029C106.716 137.242 106.757 137.454 106.839 137.652C106.92 137.849 107.039 138.029 107.19 138.18C107.341 138.331 107.521 138.45 107.718 138.532C107.916 138.613 108.127 138.654 108.341 138.653ZM108.341 136.301C108.487 136.301 108.63 136.344 108.751 136.426C108.872 136.507 108.966 136.622 109.022 136.758C109.077 136.893 109.091 137.041 109.062 137.184C109.033 137.328 108.962 137.459 108.858 137.562C108.754 137.664 108.622 137.734 108.479 137.761C108.336 137.788 108.187 137.773 108.053 137.716C107.918 137.658 107.804 137.563 107.724 137.44C107.644 137.318 107.603 137.175 107.605 137.029C107.605 136.932 107.624 136.837 107.661 136.748C107.698 136.659 107.752 136.578 107.821 136.511C107.889 136.443 107.97 136.39 108.06 136.354C108.149 136.318 108.245 136.3 108.341 136.301Z" fill="#FD3E72"/>
<path d="M129.473 104.463C129.792 104.455 130.102 104.352 130.363 104.168C130.624 103.985 130.825 103.728 130.941 103.43C131.057 103.133 131.083 102.808 131.015 102.496C130.948 102.184 130.79 101.898 130.561 101.676C130.332 101.453 130.043 101.303 129.73 101.243C129.416 101.184 129.092 101.219 128.798 101.343C128.504 101.467 128.253 101.675 128.076 101.941C127.9 102.207 127.805 102.52 127.805 102.839C127.805 103.056 127.849 103.271 127.933 103.471C128.017 103.671 128.141 103.852 128.296 104.004C128.452 104.155 128.636 104.274 128.838 104.353C129.04 104.432 129.256 104.469 129.473 104.463ZM129.473 102.111C129.619 102.111 129.762 102.155 129.883 102.236C130.004 102.317 130.099 102.433 130.154 102.568C130.21 102.703 130.224 102.852 130.195 102.995C130.165 103.138 130.094 103.269 129.991 103.372C129.887 103.475 129.755 103.544 129.611 103.571C129.468 103.599 129.32 103.583 129.185 103.526C129.051 103.469 128.936 103.373 128.857 103.251C128.777 103.128 128.735 102.985 128.737 102.839C128.737 102.743 128.756 102.647 128.793 102.558C128.83 102.47 128.884 102.389 128.953 102.321C129.021 102.254 129.103 102.2 129.192 102.164C129.281 102.128 129.377 102.11 129.473 102.111Z" fill="#FD3E72"/>
<path d="M208.688 168.476C208.036 168.476 207.508 167.948 207.508 167.296C207.508 166.644 208.036 166.115 208.688 166.115C209.339 166.115 209.867 166.644 209.867 167.296C209.867 167.948 209.339 168.476 208.688 168.476Z" fill="#FD3E72"/>
<path d="M153.293 184.08C153.292 184.314 153.359 184.544 153.488 184.739C153.617 184.935 153.802 185.087 154.018 185.178C154.234 185.268 154.471 185.292 154.701 185.247C154.931 185.202 155.142 185.089 155.307 184.923C155.473 184.758 155.586 184.547 155.631 184.317C155.676 184.087 155.652 183.849 155.562 183.633C155.471 183.417 155.319 183.233 155.123 183.103C154.928 182.974 154.698 182.906 154.464 182.908C154.154 182.911 153.858 183.035 153.639 183.254C153.42 183.473 153.296 183.77 153.293 184.08Z" fill="#FD3E72"/>
<path d="M165.873 92.0812C165.222 92.0812 164.693 91.5527 164.693 90.9007C164.693 90.2487 165.222 89.7202 165.873 89.7202C166.525 89.7202 167.053 90.2487 167.053 90.9007C167.053 91.5527 166.525 92.0812 165.873 92.0812Z" fill="#E8505B"/>
<path d="M108.199 197.731H173.032V244.649H108.199V197.731Z" fill="#4F4B5A"/>
<path d="M138.479 197.731H195V244.649H138.479V197.731Z" fill="#5B5863"/>
<path d="M159.6 228C159.6 228.642 160.117 229.167 160.75 229.167H161.9V233.25C161.9 234.218 162.67 235 163.625 235C164.579 235 165.35 234.218 165.35 233.25V229.167H167.65V233.25C167.65 234.218 168.42 235 169.375 235C170.329 235 171.1 234.218 171.1 233.25V229.167H172.25C172.882 229.167 173.4 228.642 173.4 228V216.333H159.6V228ZM156.725 216.333C155.77 216.333 155 217.115 155 218.083V226.25C155 227.218 155.77 228 156.725 228C157.679 228 158.45 227.218 158.45 226.25V218.083C158.45 217.115 157.679 216.333 156.725 216.333ZM176.275 216.333C175.32 216.333 174.55 217.115 174.55 218.083V226.25C174.55 227.218 175.32 228 176.275 228C177.229 228 178 227.218 178 226.25V218.083C178 217.115 177.229 216.333 176.275 216.333ZM170.559 209.52L172.054 208.003C172.284 207.77 172.284 207.408 172.054 207.175C171.824 206.942 171.468 206.942 171.238 207.175L169.536 208.902C168.627 208.435 167.592 208.167 166.5 208.167C165.396 208.167 164.361 208.435 163.441 208.902L161.727 207.175C161.497 206.942 161.141 206.942 160.911 207.175C160.681 207.408 160.681 207.77 160.911 208.003L162.417 209.532C160.715 210.803 159.6 212.845 159.6 215.167H173.4C173.4 212.845 172.284 210.792 170.559 209.52ZM164.2 212.833H163.05V211.667H164.2V212.833ZM169.95 212.833H168.8V211.667H169.95V212.833Z" fill="#4A4852"/>
<path d="M118.2 228C118.2 228.642 118.56 229.167 119 229.167H119.8V233.25C119.8 234.218 120.336 235 121 235C121.664 235 122.2 234.218 122.2 233.25V229.167H123.8V233.25C123.8 234.218 124.336 235 125 235C125.664 235 126.2 234.218 126.2 233.25V229.167H127C127.44 229.167 127.8 228.642 127.8 228V216.333H118.2V228ZM116.2 216.333C115.536 216.333 115 217.115 115 218.083V226.25C115 227.218 115.536 228 116.2 228C116.864 228 117.4 227.218 117.4 226.25V218.083C117.4 217.115 116.864 216.333 116.2 216.333ZM129.8 216.333C129.136 216.333 128.6 217.115 128.6 218.083V226.25C128.6 227.218 129.136 228 129.8 228C130.464 228 131 227.218 131 226.25V218.083C131 217.115 130.464 216.333 129.8 216.333ZM125.824 209.52L126.864 208.003C127.024 207.77 127.024 207.408 126.864 207.175C126.704 206.942 126.456 206.942 126.296 207.175L125.112 208.902C124.48 208.435 123.76 208.167 123 208.167C122.232 208.167 121.512 208.435 120.872 208.902L119.68 207.175C119.52 206.942 119.272 206.942 119.112 207.175C118.952 207.408 118.952 207.77 119.112 208.003L120.16 209.532C118.976 210.803 118.2 212.845 118.2 215.167H127.8C127.8 212.845 127.024 210.792 125.824 209.52ZM121.4 212.833H120.6V211.667H121.4V212.833ZM125.4 212.833H124.6V211.667H125.4V212.833Z" fill="#38353E"/>
<path d="M194.324 197.731L204.358 187.692H178.932L169.493 197.731H194.324Z" fill="#54505F"/>
<path d="M137.812 197.731L126.271 187.692H94.599L108.199 197.731H137.812Z" fill="#5C5865"/>
<path d="M137.812 197.731C137.812 197.855 150.463 197.962 166.068 197.962C181.673 197.962 194.324 197.855 194.324 197.731C194.324 197.607 181.673 197.5 166.068 197.5C150.463 197.5 137.812 197.607 137.812 197.731Z" fill="#263238"/>
<path d="M202.862 294.585H98.5053C96.0163 294.585 93.9985 296.604 93.9985 299.094V299.307C93.9985 301.797 96.0163 303.816 98.5053 303.816H202.862C205.351 303.816 207.368 301.797 207.368 299.307V299.094C207.368 296.604 205.351 294.585 202.862 294.585Z" fill="#E0E0E0"/>
<path d="M149.161 294.585H98.0248C95.5358 294.585 93.5181 296.604 93.5181 299.094V299.307C93.5181 301.797 95.5358 303.816 98.0248 303.816H149.161C151.65 303.816 153.667 301.797 153.667 299.307V299.094C153.667 296.604 151.65 294.585 149.161 294.585Z" fill="#FD3E72"/>
<path d="M214.063 363.178L211.517 372.941L182.96 372.675C182.96 372.675 186.863 369.728 201.217 369.941L202.61 363.178H214.063Z" fill="#FFBE9D"/>
<path d="M245.203 252.877L266.619 254.901L275.322 257.368C279.044 258.417 282.451 260.368 285.24 263.049L313.283 289.978L318.402 248.146L332.41 249.362L330.077 303.212C329.044 306.454 327.007 309.283 324.261 311.29C321.514 313.297 318.201 314.379 314.8 314.378C310.584 314.321 306.548 312.658 303.516 309.727L283.555 290.954L285.533 315.727L292.4 331.136L243.384 358.846C243.384 358.846 237.626 330.337 234.513 310.606C232.02 294.629 230.742 259.898 230.742 259.898L245.203 252.877Z" fill="#FD3E72"/>
<path d="M232.037 259.437C232.037 259.437 221.196 263.448 218.579 271.943C216.255 279.478 208.501 321.825 208.501 321.825L200.81 366.648L216.92 367.261L235.462 290.866L232.037 259.437Z" fill="#FD3E72"/>
<path d="M285.941 314.635C286.065 314.635 285.347 306.043 284.335 295.472C283.324 284.901 282.401 276.336 282.277 276.345C282.153 276.354 282.863 284.937 283.874 295.517C284.885 306.097 285.817 314.644 285.941 314.635Z" fill="#E82358"/>
<path d="M250.233 293.564C250.259 293.709 250.307 293.85 250.375 293.981L250.863 295.153C251.076 295.659 251.351 296.271 251.75 296.928C252.149 297.585 252.504 298.419 253.045 299.245C253.303 299.662 253.569 300.132 253.853 300.558C254.137 300.984 254.483 301.446 254.811 301.934C255.458 302.901 256.257 303.842 257.082 304.854C258.928 306.997 260.965 308.966 263.168 310.739C265.392 312.483 267.767 314.025 270.265 315.345C271.436 315.913 272.545 316.482 273.627 316.89C274.16 317.103 274.674 317.342 275.18 317.511L276.644 318.008C277.531 318.345 278.418 318.532 279.199 318.736C279.841 318.918 280.492 319.063 281.151 319.171L282.401 319.384C282.412 319.438 282.443 319.486 282.487 319.518C282.532 319.551 282.586 319.566 282.641 319.56C282.696 319.555 282.746 319.529 282.783 319.488C282.82 319.448 282.841 319.395 282.841 319.34C282.841 319.285 282.82 319.232 282.783 319.191C282.746 319.15 282.696 319.124 282.641 319.119C282.586 319.113 282.532 319.128 282.487 319.161C282.443 319.193 282.412 319.241 282.401 319.295L281.177 318.993C280.524 318.858 279.879 318.689 279.243 318.487C278.507 318.266 277.646 318.053 276.733 317.698L275.286 317.183C274.79 316.996 274.284 316.757 273.761 316.544C272.687 316.118 271.605 315.541 270.451 314.964C267.985 313.637 265.635 312.105 263.425 310.384C261.252 308.619 259.228 306.678 257.375 304.579C256.55 303.585 255.751 302.662 255.095 301.712C254.758 301.242 254.412 300.824 254.128 300.363L253.294 299.076C252.744 298.268 252.345 297.478 251.954 296.804C251.564 296.129 251.262 295.534 251.067 295.028C250.872 294.523 250.659 294.203 250.499 293.901C250.424 293.779 250.335 293.666 250.233 293.564Z" fill="#E82358"/>
<g opacity="0.2">
<path opacity="0.2" d="M280.255 318.975C281.013 318.68 281.634 318.113 281.998 317.384C282.362 316.656 282.442 315.819 282.224 315.035C281.974 314.26 281.561 313.548 281.011 312.947C280.461 312.347 279.789 311.872 279.039 311.555C277.534 310.937 275.971 310.474 274.373 310.171C267.481 308.481 261.179 304.946 256.142 299.946C255.68 299.484 255.024 298.969 254.447 299.289C253.675 299.706 254.163 300.886 254.731 301.552C261.669 309.618 270.661 315.655 280.751 319.02" fill="black"/>
</g>
<path d="M231.319 308.893C231.459 308.609 231.569 308.312 231.647 308.005C231.824 307.41 232.073 306.549 232.357 305.475C232.933 303.327 233.679 300.354 234.424 297.043C235.169 293.733 235.772 290.724 236.198 288.54C236.402 287.448 236.544 286.561 236.633 285.948C236.711 285.632 236.744 285.306 236.73 284.981C236.606 285.28 236.517 285.593 236.464 285.913L235.879 288.478C235.373 290.75 234.725 293.688 234.007 296.946C233.288 300.203 232.596 303.159 232.073 305.396C231.851 306.398 231.665 307.259 231.505 307.961C231.399 308.261 231.336 308.575 231.319 308.893Z" fill="#E82358"/>
<path d="M329.927 253.383C330.214 252.716 330.356 251.996 330.343 251.271C330.476 250.559 330.458 249.827 330.29 249.123C330.007 249.79 329.868 250.51 329.882 251.235C329.751 251.947 329.766 252.677 329.927 253.383Z" fill="#E82358"/>
<path d="M325.828 253.516C326.096 252.796 326.214 252.029 326.174 251.261C326.294 250.504 326.255 249.73 326.058 248.989C325.801 249.712 325.684 250.477 325.712 251.244C325.602 252.001 325.642 252.773 325.828 253.516Z" fill="#E82358"/>
<path d="M321.756 253.223C322.157 251.577 322.253 249.871 322.04 248.19C321.763 248.995 321.636 249.843 321.667 250.693C321.545 251.535 321.575 252.392 321.756 253.223Z" fill="#E82358"/>
<path d="M313.878 296.404C313.98 295.166 313.93 293.92 313.727 292.694C313.682 291.454 313.476 290.224 313.115 289.037C313.017 290.275 313.068 291.521 313.266 292.747C313.321 293.986 313.526 295.214 313.878 296.404Z" fill="#E82358"/>
<path d="M214.268 362.547C213.921 363.25 213.71 364.012 213.647 364.793C213.439 365.55 213.382 366.34 213.478 367.118C213.832 366.418 214.043 365.655 214.099 364.873C214.307 364.116 214.364 363.326 214.268 362.547Z" fill="#E82358"/>
<path d="M208.971 362.547C208.637 363.176 208.44 363.869 208.395 364.58C208.208 365.268 208.169 365.988 208.279 366.692C208.614 366.064 208.811 365.371 208.856 364.66C209.042 363.972 209.082 363.252 208.971 362.547Z" fill="#E82358"/>
<path d="M203.95 362.033C203.651 362.769 203.471 363.548 203.418 364.34C203.214 365.104 203.127 365.894 203.161 366.684C203.572 365.993 203.815 365.214 203.87 364.411C204.078 363.635 204.105 362.821 203.95 362.033Z" fill="#E82358"/>
<path d="M223.343 264.611C223.343 264.691 224.47 264.611 226.209 264.992C228.486 265.454 230.605 266.5 232.356 268.028C234.108 269.556 235.432 271.514 236.198 273.709C236.793 275.395 236.881 276.513 236.961 276.504C237.004 276.243 237.004 275.976 236.961 275.714C236.88 274.998 236.731 274.291 236.518 273.602C235.809 271.309 234.476 269.259 232.667 267.681C230.859 266.104 228.647 265.062 226.28 264.673C225.571 264.549 224.852 264.495 224.133 264.513C223.866 264.499 223.599 264.532 223.343 264.611Z" fill="#E82358"/>
<path d="M309.628 216.69C309.371 217.196 302.717 251.457 302.717 251.457L318.42 252.194L324.506 222.726L309.628 216.69Z" fill="#5B5863"/>
<path d="M302.717 251.457L300.916 250.694L307.712 216.921L309.841 216.779L302.717 251.457Z" fill="#403D49"/>
<path d="M315.945 224.181C315.924 224.343 315.953 224.506 316.026 224.652C316.099 224.797 316.214 224.917 316.355 224.996C316.497 225.076 316.659 225.111 316.821 225.098C316.983 225.085 317.138 225.023 317.264 224.922C317.391 224.82 317.485 224.683 317.534 224.528C317.582 224.373 317.583 224.207 317.537 224.051C317.49 223.895 317.398 223.757 317.273 223.653C317.147 223.55 316.994 223.487 316.832 223.471C316.621 223.449 316.409 223.511 316.243 223.644C316.076 223.777 315.969 223.97 315.945 224.181Z" fill="#403D49"/>
<path d="M319.183 248.235L319.431 243.744L312.724 240.983L315.342 234.77C315.643 234.084 316.084 233.469 316.636 232.962C317.187 232.456 317.838 232.069 318.547 231.827C319.256 231.585 320.007 231.493 320.753 231.557C321.5 231.62 322.225 231.838 322.882 232.196L325.544 233.652C326.492 234.167 327.321 234.876 327.979 235.732C328.636 236.588 329.106 237.573 329.359 238.622C330.098 242.237 330.634 245.891 330.964 249.566" fill="#FFBE9D"/>
<path d="M337.175 362.45C337.175 362.45 364.774 370.101 365.883 370.491C367.551 371.077 367.267 377.166 364.685 377.077C363.461 377.033 343.474 377.823 340.954 377.663C338.434 377.503 330.814 374.503 330.814 374.503L337.175 362.45Z" fill="#E8505B"/>
<path d="M348.646 372.994C348.992 371.983 349.397 370.993 349.861 370.03C350.462 369.144 351.114 368.294 351.813 367.482C350.788 367.963 349.958 368.781 349.462 369.799C348.831 370.739 348.543 371.867 348.646 372.994Z" fill="#263238"/>
<path d="M345.771 371.69C345.904 371.69 346.179 370.403 346.916 368.965C347.652 367.527 348.521 366.506 348.424 366.417C347.565 366.985 346.897 367.799 346.508 368.752C345.975 369.636 345.718 370.659 345.771 371.69Z" fill="#263238"/>
<path d="M343.065 370.962C343.206 369.973 343.423 368.997 343.713 368.042C344.144 367.141 344.649 366.277 345.221 365.459C344.295 365.99 343.604 366.853 343.287 367.873C342.824 368.837 342.745 369.942 343.065 370.962Z" fill="#263238"/>
<path d="M343.562 367.394C343.804 366.739 343.904 366.04 343.855 365.343C343.85 364.583 343.755 363.826 343.571 363.089C343.47 362.652 343.334 362.225 343.163 361.811C343.082 361.546 342.928 361.309 342.719 361.127C342.58 361.023 342.409 360.97 342.235 360.98C342.061 360.99 341.897 361.061 341.77 361.181C341.557 361.387 341.427 361.665 341.406 361.962C341.389 362.204 341.389 362.447 341.406 362.689C341.415 363.144 341.472 363.596 341.575 364.039C341.769 364.781 342.068 365.493 342.462 366.151C342.763 366.78 343.185 367.344 343.704 367.811C343.766 367.767 343.305 367.127 342.746 366.036C342.429 365.382 342.188 364.694 342.027 363.985C341.937 363.568 341.892 363.143 341.894 362.716C341.894 362.299 341.894 361.766 342.152 361.562C342.202 361.518 342.266 361.494 342.333 361.494C342.4 361.494 342.465 361.518 342.515 361.562C342.652 361.7 342.755 361.867 342.817 362.05C342.982 362.446 343.122 362.852 343.234 363.266C343.423 363.972 343.545 364.694 343.598 365.423C343.607 366.604 343.482 367.385 343.562 367.394Z" fill="#263238"/>
<path d="M343.527 367.119C342.967 366.881 342.359 366.781 341.752 366.826C341.092 366.828 340.433 366.908 339.792 367.066C339.4 367.155 339.021 367.295 338.665 367.483C338.438 367.596 338.255 367.781 338.143 368.008C338.031 368.236 337.996 368.494 338.044 368.743C338.105 368.982 338.23 369.199 338.405 369.373C338.58 369.546 338.799 369.669 339.038 369.728C339.442 369.83 339.866 369.83 340.271 369.728C341.506 369.372 342.588 368.617 343.349 367.58C342.835 367.894 342.341 368.237 341.868 368.61C341.358 368.961 340.786 369.211 340.182 369.347C339.844 369.427 339.491 369.427 339.153 369.347C338.993 369.305 338.847 369.223 338.729 369.108C338.61 368.992 338.524 368.848 338.479 368.69C338.455 368.534 338.483 368.376 338.559 368.238C338.634 368.1 338.752 367.991 338.896 367.926C339.21 367.749 339.547 367.618 339.898 367.536C340.503 367.362 341.124 367.252 341.752 367.208C342.835 367.074 343.509 367.19 343.527 367.119Z" fill="#263238"/>
<path d="M352.886 373.287C352.998 372.442 353.182 371.607 353.436 370.793C353.821 370.027 354.273 369.297 354.785 368.61C354.74 368.494 353.587 369.151 353.01 370.598C352.796 371.01 352.675 371.465 352.653 371.929C352.632 372.393 352.711 372.857 352.886 373.287Z" fill="#263238"/>
<path d="M333.626 374.565C333.964 374.766 334.32 374.932 334.691 375.063C335.693 375.455 336.721 375.775 337.769 376.021C341.229 376.778 344.768 377.112 348.308 377.015C352.443 376.971 356.169 376.784 358.874 376.678L362.068 376.509C362.462 376.509 362.855 376.465 363.239 376.376C362.851 376.325 362.459 376.307 362.068 376.323H358.866L348.3 376.527C344.791 376.605 341.285 376.307 337.84 375.639C335.196 375.16 333.626 374.477 333.626 374.565Z" fill="#263238"/>
<path d="M332.81 375.196C332.81 375.258 333.599 374.814 334.877 374.255C336.501 373.475 338.312 373.168 340.102 373.367C341.855 373.744 343.439 374.678 344.618 376.03C345.111 376.606 345.641 377.148 346.206 377.654C345.845 376.979 345.391 376.357 344.857 375.808C344.314 375.17 343.701 374.596 343.03 374.095C342.186 373.473 341.207 373.06 340.173 372.888C338.298 372.661 336.4 373.027 334.744 373.935C334.037 374.251 333.384 374.677 332.81 375.196Z" fill="#263238"/>
<path d="M307.845 354.825C307.845 354.825 281.718 371.938 280.787 372.648C279.376 373.713 280.991 378.772 283.448 377.902C284.601 377.485 306.514 371.388 308.874 370.464C311.234 369.541 317.577 364.376 317.577 364.376L307.845 354.825Z" fill="#E8505B"/>
<path d="M300.091 368.361C299.83 367.256 299.205 366.272 298.317 365.565C297.537 364.744 296.496 364.22 295.372 364.083C296.298 364.633 297.188 365.243 298.033 365.911C298.764 366.689 299.451 367.507 300.091 368.361Z" fill="#263238"/>
<path d="M302.434 366.248C302.097 365.285 301.553 364.408 300.84 363.678C300.127 362.948 299.263 362.383 298.308 362.023C298.237 362.148 299.382 362.831 300.508 363.994C301.635 365.157 302.309 366.311 302.434 366.248Z" fill="#263238"/>
<path d="M304.784 364.731C304.701 363.681 304.301 362.68 303.638 361.863C302.974 361.045 302.078 360.448 301.067 360.151C301.859 360.756 302.6 361.424 303.285 362.148C303.851 362.968 304.353 363.832 304.784 364.731Z" fill="#263238"/>
<path d="M303.232 361.509C303.303 361.509 302.948 360.773 302.646 359.557C302.471 358.847 302.367 358.121 302.336 357.391C302.31 356.962 302.31 356.532 302.336 356.104C302.343 355.912 302.391 355.724 302.478 355.554C302.517 355.497 302.576 355.457 302.643 355.441C302.71 355.424 302.781 355.433 302.842 355.465C303.134 355.589 303.294 356.095 303.436 356.494C303.563 356.899 303.649 357.315 303.693 357.737C303.758 358.462 303.734 359.192 303.622 359.912C303.436 361.154 303.196 361.909 303.267 361.935C303.614 361.33 303.843 360.664 303.942 359.974C304.104 359.228 304.16 358.463 304.11 357.701C304.082 357.246 303.999 356.796 303.862 356.361C303.795 356.128 303.712 355.9 303.613 355.678C303.498 355.403 303.287 355.179 303.019 355.048C302.866 354.979 302.694 354.966 302.533 355.01C302.371 355.053 302.23 355.151 302.132 355.287C301.992 355.524 301.918 355.794 301.919 356.068C301.828 357.267 301.967 358.472 302.327 359.619C302.494 360.305 302.802 360.949 303.232 361.509Z" fill="#263238"/>
<path d="M303.188 361.207C303.188 361.278 303.826 360.959 304.882 360.71C305.495 360.555 306.122 360.469 306.754 360.453C307.113 360.429 307.474 360.449 307.827 360.515C307.984 360.535 308.129 360.605 308.241 360.716C308.354 360.827 308.426 360.971 308.448 361.127C308.455 361.293 308.417 361.458 308.339 361.604C308.261 361.751 308.146 361.874 308.005 361.962C307.713 362.144 307.381 362.253 307.038 362.281C306.419 362.338 305.796 362.275 305.201 362.095C304.634 361.888 304.053 361.722 303.463 361.598C303.944 361.964 304.488 362.241 305.068 362.414C305.701 362.646 306.374 362.746 307.047 362.707C307.465 362.682 307.87 362.554 308.227 362.334C308.435 362.204 308.605 362.02 308.719 361.801C308.833 361.583 308.887 361.338 308.874 361.092C308.843 360.84 308.731 360.606 308.555 360.423C308.379 360.241 308.149 360.12 307.898 360.08C307.501 360.006 307.095 359.988 306.692 360.027C306.035 360.068 305.385 360.19 304.758 360.391C304.177 360.535 303.639 360.815 303.188 361.207Z" fill="#263238"/>
<path d="M286.757 376.944C286.757 376.988 287.201 376.678 287.396 375.932C287.605 374.958 287.43 373.94 286.908 373.092C286.646 372.635 286.349 372.199 286.021 371.787C285.769 371.432 285.471 371.113 285.134 370.837C284.896 370.643 284.606 370.522 284.3 370.491C284.087 370.491 283.972 370.536 283.972 370.562C284.327 370.662 284.654 370.841 284.93 371.086C285.211 371.379 285.461 371.7 285.675 372.044C285.974 372.449 286.247 372.873 286.491 373.314C286.962 374.075 287.165 374.971 287.068 375.861C286.979 376.545 286.695 376.9 286.757 376.944Z" fill="#263238"/>
<path d="M296.135 369.932C296.126 369.017 295.8 368.132 295.213 367.43C294.626 366.727 293.813 366.25 292.914 366.08C293.61 366.567 294.261 367.117 294.857 367.722C295.346 368.42 295.774 369.16 296.135 369.932Z" fill="#263238"/>
<path d="M314.872 365.299C314.473 365.534 314.091 365.794 313.727 366.08C312.693 366.802 311.618 367.463 310.507 368.059C308.853 368.945 307.143 369.722 305.388 370.385C303.409 371.121 301.192 371.814 298.85 372.497C294.148 373.846 289.889 375.089 286.82 376.048L283.191 377.157C282.742 377.279 282.303 377.436 281.878 377.627C282.342 377.575 282.8 377.477 283.244 377.335L286.917 376.358C290.005 375.515 294.272 374.326 298.974 372.977C301.325 372.293 303.56 371.583 305.539 370.811C307.305 370.143 309.019 369.345 310.666 368.423C311.771 367.795 312.829 367.089 313.834 366.311C314.213 366.01 314.561 365.671 314.872 365.299Z" fill="#263238"/>
<path d="M315.883 365.645C315.179 365.336 314.43 365.138 313.665 365.059C311.809 364.708 309.889 364.944 308.173 365.734C307.229 366.194 306.41 366.876 305.787 367.722C305.298 368.402 304.888 369.134 304.563 369.906C304.229 370.597 303.985 371.327 303.835 372.08C304.227 371.428 304.571 370.749 304.864 370.048C305.567 368.392 306.791 367.011 308.351 366.116C309.992 365.384 311.803 365.12 313.585 365.352C314.345 365.489 315.112 365.587 315.883 365.645Z" fill="#263238"/>
<path d="M246.631 219.255L244.91 253.773C244.84 255.164 245.054 256.555 245.538 257.861C246.022 259.167 246.766 260.36 247.725 261.37C248.684 262.379 249.838 263.183 251.117 263.733C252.396 264.282 253.774 264.566 255.166 264.566C257.802 264.567 260.338 263.554 262.248 261.737C264.159 259.92 265.298 257.437 265.43 254.803C265.563 252.202 265.67 250.037 265.696 249.77C265.696 249.77 274.568 249.38 275.588 240.717C276.103 236.527 276.475 227.811 276.688 219.93C276.808 215.845 275.386 211.865 272.704 208.782C270.023 205.699 266.279 203.741 262.218 203.296L261.385 203.198C252.318 202.71 246.844 210.166 246.631 219.255Z" fill="#FFBE9D"/>
<path d="M265.75 249.62C261.738 249.26 257.924 247.716 254.793 245.182C254.793 245.182 256.78 251.723 265.519 251.901L265.75 249.62Z" fill="#EB996E"/>
<path d="M246.631 225.761C246.489 225.681 240.865 223.338 240.421 229.311C239.978 235.285 246.019 234.504 246.046 234.335C246.072 234.167 246.631 225.761 246.631 225.761Z" fill="#FFBE9D"/>
<path d="M244.387 231.921C244.387 231.921 244.28 231.983 244.094 232.054C243.84 232.135 243.565 232.119 243.322 232.01C242.957 231.736 242.67 231.369 242.493 230.948C242.315 230.527 242.252 230.067 242.311 229.613C242.337 229.101 242.476 228.601 242.719 228.149C242.789 227.967 242.902 227.804 243.049 227.676C243.196 227.548 243.372 227.457 243.562 227.412C243.683 227.39 243.809 227.412 243.916 227.474C244.023 227.535 244.105 227.633 244.147 227.749C244.218 227.918 244.147 228.033 244.2 228.042C244.254 228.051 244.333 227.954 244.307 227.705C244.284 227.556 244.213 227.418 244.103 227.315C243.949 227.179 243.749 227.108 243.544 227.119C243.295 227.151 243.058 227.244 242.855 227.392C242.651 227.539 242.489 227.735 242.382 227.962C242.095 228.458 241.928 229.015 241.894 229.587C241.824 230.111 241.911 230.644 242.145 231.118C242.379 231.592 242.748 231.986 243.207 232.25C243.362 232.308 243.529 232.332 243.695 232.318C243.861 232.304 244.021 232.253 244.165 232.17C244.369 232.063 244.404 231.921 244.387 231.921Z" fill="#EB996E"/>
<path d="M243.349 225.193C243.91 225.225 244.453 225.406 244.921 225.718C245.389 226.031 245.765 226.462 246.01 226.968C246.303 227.856 246.285 228.823 246.569 229.72C246.853 230.616 247.651 231.495 248.574 231.353C248.894 231.296 249.192 231.153 249.436 230.939C249.68 230.724 249.861 230.447 249.958 230.137C250.159 229.522 250.237 228.874 250.189 228.228C250.144 225.415 249.869 222.601 250.064 219.805C250.157 216.973 251.083 214.231 252.726 211.923C254.5 209.713 257.339 208.258 260.098 208.79C261.926 209.145 263.505 210.29 265.315 210.752C266.385 211.01 267.499 211.023 268.574 210.79C269.65 210.556 270.659 210.082 271.525 209.403C271.918 209.155 272.324 208.926 272.74 208.719C272.788 208.058 272.64 207.397 272.314 206.82C269.059 203.056 262.609 201.397 257.685 202.071C255.179 202.405 252.775 203.279 250.639 204.634C248.504 205.988 246.688 207.791 245.318 209.918C242.754 214.187 242.657 220.506 243.313 225.184" fill="#5B5863"/>
<path d="M340.289 362.131C340.289 362.131 276.227 320.094 273.601 319.216C270.975 318.337 264.641 314.192 258.297 315.94C251.954 317.689 246.276 323.378 243.438 331.686C240.599 339.994 240.377 358.589 240.377 358.589C240.377 358.589 245.398 373.234 255.237 376.341C256.079 376.602 256.935 376.818 257.801 376.989C269.804 379.368 282.02 373.847 288.736 363.613L290.155 361.394C290.155 361.394 332.073 376.794 332.739 376.598L340.289 362.131Z" fill="#3E2723"/>
<path d="M362.13 313.1C362.13 313.1 369.999 315.896 369.999 324.683C370.062 341.547 335.995 360.089 335.995 360.089L290.652 330.035V326.893C290.652 326.893 349.018 305.875 362.13 313.1Z" fill="#3E2723"/>
<path d="M261.03 350.565L261.385 350.716L262.432 351.133L266.495 352.695L281.576 358.385C287.991 360.781 295.665 363.63 304.279 366.764C312.893 369.897 322.448 373.341 332.668 376.793L332.854 376.855L332.943 376.678L337.947 367.119C338.834 365.45 339.721 363.79 340.502 362.246L340.599 362.05L340.422 361.944L291.548 330.878L276.848 321.639L272.865 319.153L271.818 318.514C271.7 318.44 271.579 318.372 271.454 318.31L271.8 318.559L272.811 319.233L276.759 321.789L291.371 331.171L340.164 362.326L340.085 362.024L337.538 366.906L332.535 376.465L332.81 376.358C322.616 372.915 313.062 369.488 304.421 366.382L281.683 358.101L266.539 352.544L262.449 351.053L261.385 350.68C261.269 350.635 261.15 350.596 261.03 350.565Z" fill="#321D19"/>
<path d="M313.621 345.213C314.036 344.981 314.431 344.714 314.8 344.414C315.546 343.873 316.575 343.074 317.897 342.071C320.496 340.065 324.027 337.216 327.824 333.958C331.621 330.701 334.974 327.63 337.352 325.358C338.541 324.23 339.49 323.298 340.129 322.695C340.481 322.372 340.807 322.021 341.105 321.647C340.71 321.907 340.342 322.204 340.005 322.535L337.13 325.118C334.699 327.319 331.319 330.346 327.522 333.603C323.725 336.861 320.239 339.745 317.693 341.813L314.685 344.272C314.301 344.551 313.945 344.866 313.621 345.213Z" fill="#321D19"/>
<path d="M349.329 319.393C347.864 319.159 346.364 319.294 344.964 319.783C343.52 320.134 342.186 320.835 341.078 321.825C341.149 321.949 342.852 320.893 345.088 320.227C347.324 319.562 349.329 319.535 349.329 319.393Z" fill="#321D19"/>
<path d="M345.425 316.739C344.344 317.11 343.411 317.82 342.764 318.763C341.984 319.607 341.49 320.675 341.353 321.816C341.486 321.861 341.983 320.449 343.128 319.047C344.272 317.645 345.496 316.855 345.425 316.739Z" fill="#321D19"/>
<path d="M364.623 370.057C364.623 370.003 364.082 369.897 363.452 370.412C362.714 371.115 362.252 372.06 362.148 373.074C361.998 374.061 362.14 375.07 362.556 375.977C362.876 376.66 363.23 376.989 363.275 376.953C363.319 376.918 363.089 376.527 362.858 375.853C362.559 374.98 362.471 374.049 362.601 373.137C362.706 372.228 363.079 371.372 363.674 370.678C363.953 370.419 364.274 370.209 364.623 370.057Z" fill="#263238"/>
<defs>
<filter id="filter0_d" x="109.506" y="107" width="79.4939" height="79.5247" filterUnits="userSpaceOnUse" color-interpolation-filters="sRGB">
<feFlood flood-opacity="0" result="BackgroundImageFix"/>
<feColorMatrix in="SourceAlpha" type="matrix" values="0 0 0 0 0 0 0 0 0 0 0 0 0 0 0 0 0 0 127 0"/>
<feOffset dy="2"/>
<feGaussianBlur stdDeviation="4"/>
<feColorMatrix type="matrix" values="0 0 0 0 0 0 0 0 0 0 0 0 0 0 0 0 0 0 0.1 0"/>
<feBlend mode="normal" in2="BackgroundImageFix" result="effect1_dropShadow"/>
<feBlend mode="normal" in="SourceGraphic" in2="effect1_dropShadow" result="shape"/>
</filter>
</defs>
</svg>
