<svg width="526" height="502" viewBox="0 0 526 502" fill="none" xmlns="http://www.w3.org/2000/svg">
<path d="M307.368 436.521C427.973 436.521 525.769 338.802 525.8 218.26C525.832 97.7184 428.088 0 307.483 0C186.877 0 89.0817 97.7184 89.0501 218.26C89.0184 338.802 186.763 436.521 307.368 436.521Z" fill="#F7F7F7"/>
<path d="M476.112 258.132C498.085 164.981 440.428 71.6446 347.331 49.659C254.235 27.6733 160.953 85.3643 138.98 178.515C117.007 271.667 174.665 365.003 267.761 386.989C360.857 408.975 454.139 351.284 476.112 258.132Z" fill="white"/>
<g filter="url(#filter0_d)">
<path d="M30.5688 480H188.607V356.427C166.67 367.679 150.295 381.617 146.454 396.343C134.114 443.859 113.373 455.425 83.4028 443.137C53.4327 430.85 30.5688 480 30.5688 480Z" fill="url(#paint0_linear)"/>
<path d="M301.672 480H180.621V399.299H290.931L301.672 480Z" fill="#FFA68A"/>
<path d="M446.617 176.759L442.852 168.355C439.991 161.966 432.493 159.107 426.107 161.971L356.467 193.199C350.08 196.063 347.224 203.564 350.086 209.954L353.85 218.358C356.712 224.748 364.209 227.606 370.595 224.743L440.236 193.514C446.622 190.651 449.479 183.149 446.617 176.759Z" fill="#FFA68A"/>
<path d="M374.571 185.071V221.651C374.571 221.651 390.7 215.062 390.313 214.591C389.926 214.12 389.954 178.172 389.954 178.172L374.571 185.071Z" fill="#F59C80"/>
<path d="M223.434 289.416L288.815 239.13L336.245 373.257C336.245 373.257 313.983 425.071 240.895 425.071L223.434 289.416Z" fill="url(#paint1_linear)"/>
<path opacity="0.13" d="M243.695 371.235C243.695 371.235 243.512 378.886 283.408 378.487C323.304 378.087 333.439 378.487 333.439 378.487L336.247 373.252L243.695 371.235Z" fill="#1B1E4C"/>
<path d="M374.572 101.19V349.226C374.572 355.47 372.094 361.458 367.681 365.873C363.269 370.288 357.284 372.768 351.044 372.768H252.118C245.878 372.768 239.893 370.288 235.481 365.873C231.069 361.458 228.59 355.47 228.59 349.226V101.19C228.59 94.9464 231.069 88.9584 235.481 84.5435C239.893 80.1285 245.878 77.6482 252.118 77.6482H351.032C354.123 77.6466 357.184 78.2543 360.04 79.4367C362.896 80.619 365.491 82.3529 367.677 84.5391C369.863 86.7253 371.597 89.3211 372.78 92.1782C373.963 95.0352 374.572 98.0975 374.572 101.19Z" fill="#5B5863"/>
<path d="M369.92 100.927V349.313C369.921 351.749 369.442 354.161 368.51 356.412C367.579 358.662 366.214 360.707 364.493 362.43C362.772 364.152 360.728 365.519 358.479 366.452C356.231 367.384 353.82 367.864 351.386 367.865H252.116C249.681 367.864 247.271 367.384 245.022 366.452C242.773 365.519 240.73 364.152 239.008 362.43C237.287 360.707 235.922 358.662 234.991 356.412C234.06 354.161 233.581 351.749 233.581 349.313V100.927C233.582 96.0087 235.535 91.2921 239.011 87.8143C242.486 84.3366 247.2 82.3824 252.116 82.3816H351.386C356.301 82.3824 361.015 84.3366 364.491 87.8143C367.966 91.2921 369.919 96.0087 369.92 100.927Z" fill="#FAFAFA"/>
<path d="M274.697 258.884C273.894 258.333 273.324 257.493 272.988 256.338C272.651 255.183 272.496 253.66 272.496 251.744V249.145C272.496 247.228 272.677 245.653 273.065 244.498C273.454 243.317 274.049 242.477 274.878 241.952C275.707 241.427 276.768 241.138 278.089 241.138C279.384 241.138 280.445 241.4 281.222 241.952C281.999 242.503 282.594 243.343 282.957 244.498C283.32 245.653 283.501 247.202 283.501 249.119V251.717C283.501 253.634 283.32 255.156 282.957 256.312C282.594 257.467 282.025 258.307 281.222 258.858C280.419 259.383 279.332 259.672 277.985 259.672C276.587 259.698 275.5 259.409 274.697 258.884ZM279.176 256.075C279.41 255.498 279.513 254.526 279.513 253.214V247.622C279.513 246.336 279.41 245.391 279.176 244.813C278.943 244.209 278.555 243.921 278.011 243.921C277.467 243.921 277.105 244.209 276.872 244.813C276.639 245.417 276.535 246.336 276.535 247.622V253.214C276.535 254.526 276.639 255.498 276.846 256.075C277.053 256.653 277.442 256.942 278.011 256.942C278.555 256.942 278.943 256.653 279.176 256.075ZM335.936 251.796V252.715L336.04 255.314C336.118 255.892 336.247 256.312 336.454 256.574C336.661 256.837 336.998 256.968 337.438 256.968C338.034 256.968 338.448 256.732 338.655 256.259C338.888 255.787 338.992 254.999 339.018 253.923L342.462 254.133C342.487 254.29 342.487 254.5 342.487 254.763C342.487 256.417 342.047 257.65 341.141 258.464C340.235 259.278 338.992 259.698 337.36 259.698C335.393 259.698 334.02 259.068 333.243 257.834C332.466 256.6 332.052 254.658 332.052 252.059V248.882C332.14 244.419 332.914 241.151 337.464 241.138C338.836 241.138 339.872 241.4 340.597 241.899C341.322 242.398 341.84 243.186 342.151 244.262C342.462 245.338 342.591 246.808 342.591 248.699V251.77H335.936V251.796ZM336.454 244.236C336.247 244.498 336.118 244.892 336.04 245.47C335.962 246.047 335.936 248.095 335.936 248.095V249.381H338.836V248.095C338.836 249.381 338.811 246.073 338.733 245.47C338.655 244.866 338.526 244.446 338.319 244.209C338.111 243.973 337.801 243.842 337.386 243.842C336.946 243.868 336.635 243.999 336.454 244.236ZM265.012 251.455L260.481 234.864H264.443C264.443 234.864 266.294 243.186 266.929 247.097H267.032C267.752 242.944 269.57 234.864 269.57 234.864H273.532L268.948 251.429V259.383H265.038V251.455H265.012Z" fill="#5B5863"/>
<path d="M296.345 241.479V259.409H293.238L292.901 257.204H292.824C291.969 258.858 290.7 259.698 289.017 259.698C285.969 259.69 285.63 257.073 285.599 254.868V241.479H289.587V254.631C289.587 255.419 289.664 255.997 289.846 256.338C290.213 257.068 291.166 256.881 291.684 256.522C291.983 256.317 292.224 256.036 292.383 255.708V241.479H296.345Z" fill="#5B5863"/>
<path d="M316.543 241.479V259.409H313.436L313.099 257.204H313.021C312.167 258.858 310.898 259.698 309.215 259.698C306.167 259.69 305.828 257.073 305.797 254.868V241.479H309.785V254.631C309.785 255.419 309.862 255.997 310.044 256.338C310.411 257.068 311.364 256.881 311.882 256.522C312.181 256.317 312.422 256.036 312.581 255.708V241.479H316.543Z" fill="#5B5863"/>
<path d="M307.167 238.119H303.206V259.409H299.322V238.119H295.36V234.864H307.142V238.119H307.167ZM329.928 244.341C329.695 243.212 329.307 242.398 328.763 241.873C328.219 241.374 327.494 241.112 326.536 241.112C325.808 241.11 325.095 241.329 324.491 241.742C323.843 242.162 323.377 242.713 323.015 243.396H322.989V233.945H319.156V259.383H322.445L322.859 257.677H322.937C323.254 258.277 323.729 258.777 324.309 259.12C324.931 259.462 325.604 259.645 326.355 259.645C327.701 259.645 328.685 259.015 329.333 257.755C329.954 256.495 330.291 254.526 330.291 251.875V249.04C330.291 247.045 330.161 245.469 329.928 244.341ZM326.277 251.665C326.277 252.977 326.225 254.001 326.122 254.736C326.018 255.471 325.837 255.996 325.578 256.311C325.319 256.626 324.983 256.784 324.568 256.784C323.766 256.758 323.31 256.39 322.989 255.839V245.653C323.118 245.154 323.351 244.761 323.688 244.446C324.258 243.797 325.231 243.789 325.682 244.446C325.915 244.761 326.044 245.312 326.148 246.073C326.225 246.835 326.277 247.911 326.277 249.328V251.665Z" fill="#5B5863"/>
<path d="M340.943 172.946C340.471 171.202 339.55 169.612 338.272 168.334C336.995 167.057 335.405 166.136 333.661 165.664C327.276 163.923 301.578 163.923 301.578 163.923C301.578 163.923 275.881 163.976 269.496 165.717C267.752 166.189 266.162 167.11 264.884 168.387C263.606 169.665 262.686 171.255 262.214 172.999C260.283 184.344 259.533 201.63 262.267 212.522C262.739 214.266 263.659 215.856 264.937 217.133C266.214 218.411 267.804 219.332 269.548 219.803C275.933 221.545 301.631 221.545 301.631 221.545C301.631 221.545 327.329 221.545 333.714 219.803C335.458 219.332 337.048 218.411 338.325 217.133C339.603 215.856 340.523 214.266 340.995 212.522C343.032 201.161 343.66 183.885 340.943 172.946Z" fill="#FF0000"/>
<path d="M293.398 205.08L314.716 192.733L293.398 180.385V205.08Z" fill="white"/>
<g opacity="0.13" filter="url(#filter1_f)">
<path d="M374.571 235.775V346.952L365.018 351.236C361.476 352.823 357.449 352.937 353.823 351.554C350.197 350.171 347.269 347.404 345.681 343.861L343.514 339.035C341.928 335.492 341.813 331.463 343.194 327.836C344.576 324.208 347.342 321.278 350.882 319.69L355.959 317.416C353.03 317.546 350.129 316.792 347.633 315.251C345.137 313.711 343.162 311.455 341.963 308.777L339.796 303.951C338.353 300.729 338.122 297.094 339.146 293.716C340.17 290.337 342.38 287.443 345.369 285.567C342.457 285.673 339.581 284.907 337.107 283.367C334.633 281.828 332.675 279.584 331.484 276.924L329.317 272.095C328.531 270.341 328.098 268.449 328.043 266.528C327.988 264.606 328.312 262.693 328.996 260.897C329.68 259.101 330.712 257.457 332.031 256.06C333.35 254.663 334.932 253.539 336.685 252.753L374.571 235.775Z" fill="#1B1E4C"/>
</g>
<g opacity="0.13" filter="url(#filter2_f)">
<path d="M242.171 204.03C242.171 204.03 256.678 203.693 253.882 225.227C251.087 246.762 227.553 279.495 227.553 279.495L225.559 257.192L242.171 204.03Z" fill="#1B1E4C"/>
</g>
<path d="M429.423 294.352L425.659 285.948C422.797 279.559 415.3 276.7 408.914 279.564L353.672 304.335C347.286 307.199 344.429 314.7 347.291 321.09L351.055 329.494C353.917 335.884 361.414 338.743 367.801 335.879L423.042 311.107C429.428 308.244 432.285 300.742 429.423 294.352Z" fill="#F69374"/>
<path d="M372.263 328.912L369.594 330.111C368.065 330.797 366.416 331.174 364.742 331.222C363.067 331.27 361.399 330.988 359.833 330.391C358.267 329.794 356.835 328.894 355.616 327.743C354.398 326.592 353.418 325.212 352.733 323.682C352.048 322.152 351.671 320.502 351.623 318.826C351.575 317.15 351.857 315.481 352.454 313.915C353.05 312.348 353.95 310.914 355.1 309.696C356.25 308.477 357.63 307.496 359.159 306.811L361.827 305.615L372.263 328.912Z" fill="url(#paint2_linear)"/>
<path d="M425.709 259.269L421.945 250.865C419.083 244.476 411.586 241.617 405.2 244.481L349.958 269.252C343.572 272.116 340.716 279.617 343.578 286.007L347.342 294.411C350.204 300.801 357.701 303.659 364.087 300.796L419.328 276.024C425.714 273.161 428.571 265.659 425.709 259.269Z" fill="#FA9879"/>
<path d="M368.549 293.827L365.881 295.023C364.352 295.709 362.703 296.086 361.028 296.134C359.353 296.182 357.685 295.899 356.119 295.302C354.554 294.705 353.121 293.806 351.902 292.655C350.684 291.504 349.705 290.124 349.019 288.594C347.635 285.504 347.535 281.991 348.74 278.827C349.945 275.663 352.357 273.107 355.445 271.723L358.113 270.527L368.549 293.827Z" fill="url(#paint3_linear)"/>
<path d="M415.237 227.409L411.473 219.005C408.611 212.615 401.114 209.757 394.728 212.62L339.487 237.392C333.101 240.256 330.244 247.757 333.106 254.147L336.87 262.551C339.732 268.941 347.229 271.799 353.615 268.935L408.856 244.164C415.243 241.3 418.099 233.799 415.237 227.409Z" fill="#FEA183"/>
<path d="M358.081 261.972L355.412 263.171C353.883 263.857 352.234 264.234 350.559 264.282C348.884 264.33 347.216 264.048 345.651 263.451C344.085 262.854 342.652 261.954 341.434 260.803C340.216 259.652 339.236 258.272 338.551 256.742C337.866 255.212 337.488 253.562 337.44 251.886C337.392 250.21 337.675 248.541 338.271 246.975C338.868 245.408 339.767 243.974 340.918 242.755C342.068 241.536 343.447 240.556 344.976 239.871L347.645 238.675L358.081 261.972Z" fill="url(#paint4_linear)"/>
<path d="M227.388 262.211C227.388 262.211 268.924 186.939 215.602 182.459L180.273 285.235C156.779 353.578 180.273 425.081 180.273 425.081H231.059C242.329 390.252 243.697 350.963 243.697 328.481C243.697 328.481 240.712 284.786 227.388 262.211Z" fill="url(#paint5_linear)"/>
<path d="M217.151 181.64C217.412 181.802 217.649 182.044 217.902 182.466L207.915 210.758C207.387 211.451 206.973 211.854 206.549 212.112C206.307 212.259 206.05 212.367 205.746 212.449L216.26 181.31C216.642 181.396 216.919 181.496 217.151 181.64Z" fill="#FFF5DF" stroke="#FFF5DF"/>
<path d="M301.672 440.49H169.693V480H301.672V440.49Z" fill="white"/>
<path d="M301.252 480H170.114V439.65H301.252V480ZM170.421 479.698H300.944V439.951H170.421V479.698Z" fill="#5B71A8"/>
<path d="M307.977 451.418H165.91V480H307.977V451.418Z" fill="#FEAB2B"/>
<g filter="url(#filter3_d)">
<path d="M366.821 142.907C390.266 142.907 409.273 124.089 409.273 100.876C409.273 77.6621 390.266 58.844 366.821 58.844C343.375 58.844 324.369 77.6621 324.369 100.876C324.369 124.089 343.375 142.907 366.821 142.907Z" fill="#A672B7"/>
<path d="M366.821 142.907C390.266 142.907 409.273 124.089 409.273 100.876C409.273 77.6621 390.266 58.844 366.821 58.844C343.375 58.844 324.369 77.6621 324.369 100.876C324.369 124.089 343.375 142.907 366.821 142.907Z" stroke="white" stroke-width="3" stroke-linejoin="round"/>
</g>
<path d="M353.626 102.933C353.155 102.449 352.863 101.781 352.863 101.043L352.855 91.4761C352.849 83.8158 358.91 77.5888 366.366 77.5951C373.821 77.6014 379.892 83.8398 379.898 91.5017L379.906 101.066C379.907 102.542 378.744 103.737 377.308 103.736C375.872 103.735 374.706 102.537 374.705 101.061L374.698 91.4973C374.694 86.7826 370.958 82.9437 366.37 82.9399C361.782 82.9359 358.052 86.7673 358.056 91.4804L358.063 101.047C358.064 102.523 356.901 103.719 355.465 103.717C354.747 103.717 354.097 103.417 353.626 102.933Z" fill="white"/>
<path d="M356.556 125.724C352.956 125.724 350.026 123.485 350.026 120.734V105.099C350.026 102.348 352.956 100.11 356.556 100.11H377.015C380.616 100.11 383.545 102.348 383.545 105.099V120.734C383.545 123.485 380.616 125.724 377.015 125.724H356.556Z" fill="white"/>
<path d="M380.106 106.413C380.106 104.89 378.317 103.644 376.13 103.644H357.44C355.253 103.644 353.463 104.89 353.463 106.413V119.424C353.463 120.947 355.253 122.192 357.44 122.192H376.13C378.317 122.192 380.106 120.947 380.106 119.424V106.413Z" fill="white"/>
<path d="M369.792 109.408C369.792 107.689 368.253 106.296 366.354 106.296C364.456 106.296 362.917 107.689 362.917 109.408C362.917 110.547 363.594 111.554 364.603 112.097L363.646 119.545H366.439H369.232L368.267 112.009C369.187 111.45 369.792 110.486 369.792 109.408Z" fill="#5B5863"/>
<g filter="url(#filter4_d)">
<path d="M408.361 375.981C418.765 375.981 427.201 367.551 427.204 357.153C427.206 346.754 418.774 338.324 408.371 338.324C397.967 338.324 389.53 346.754 389.528 357.153C389.525 367.551 397.957 375.981 408.361 375.981Z" fill="url(#paint6_linear)"/>
</g>
<g filter="url(#filter5_d)">
<path fill-rule="evenodd" clip-rule="evenodd" d="M372.04 42.8674C372.043 43.3317 371.67 43.711 371.206 43.7147C367.569 43.7435 364.046 44.0904 360.746 44.6223C360.288 44.6962 359.856 44.3845 359.782 43.9262C359.708 43.4678 360.02 43.0364 360.478 42.9625C363.85 42.4191 367.459 42.0631 371.192 42.0335C371.657 42.0298 372.036 42.4032 372.04 42.8674ZM387.853 45.2528C388.002 44.8131 388.479 44.5775 388.919 44.7265C392.231 45.8493 395.506 47.3719 398.671 49.3822C399.063 49.6311 399.179 50.1506 398.93 50.5425C398.681 50.9344 398.161 51.0503 397.769 50.8014C394.724 48.8672 391.572 47.4011 388.379 46.3188C387.939 46.1697 387.704 45.6924 387.853 45.2528ZM344.325 48.1328C344.492 48.5661 344.276 49.0526 343.843 49.2196C342.316 49.8078 341.11 50.3254 340.288 50.6948C339.877 50.8795 339.562 51.027 339.351 51.1278C339.246 51.1782 339.166 51.2169 339.114 51.2427L339.055 51.2715L339.042 51.2784L339.039 51.2799C339.039 51.2799 339.039 51.2799 339.039 51.2799C339.039 51.2799 339.038 51.2801 338.66 50.5294L338.281 49.7788C337.867 49.9878 337.7 50.4933 337.909 50.9078C338.118 51.3224 338.624 51.4888 339.039 51.2799M338.66 50.5294C338.281 49.7788 338.281 49.7788 338.281 49.7788L338.284 49.7776L338.289 49.7752L338.306 49.7664L338.373 49.7336C338.43 49.7052 338.515 49.6639 338.626 49.6108C338.849 49.5046 339.176 49.3515 339.599 49.1612C340.446 48.7806 341.68 48.251 343.238 47.6508C343.671 47.4838 344.158 47.6996 344.325 48.1328M410.516 61.526C410.889 61.2505 411.416 61.33 411.691 61.7037C412.728 63.1102 413.732 64.6081 414.698 66.2023C415.668 67.8027 416.557 69.3944 417.367 70.9758C417.579 71.3889 417.416 71.8956 417.003 72.1073C416.59 72.3191 416.083 72.1559 415.871 71.7427C415.079 70.1976 414.21 68.6407 413.26 67.0737C412.32 65.5218 411.344 64.0661 410.338 62.7015C410.062 62.3278 410.142 61.8015 410.516 61.526ZM422.397 87.4352C422.853 87.3473 423.294 87.6455 423.382 88.1014C424.103 91.8397 424.422 95.4737 424.403 98.9786C424.401 99.4429 424.023 99.8173 423.558 99.8148C423.094 99.8123 422.72 99.434 422.722 98.9697C422.74 95.5735 422.431 92.0493 421.731 88.4199C421.643 87.9641 421.941 87.5232 422.397 87.4352ZM420.753 115.813C421.191 115.968 421.42 116.448 421.265 116.886C419.999 120.458 418.412 123.772 416.622 126.785C416.385 127.184 415.869 127.315 415.47 127.078C415.071 126.841 414.939 126.325 415.176 125.926C416.913 123.004 418.452 119.789 419.68 116.324C419.835 115.887 420.315 115.658 420.753 115.813ZM404.918 139.404C405.205 139.769 405.142 140.297 404.778 140.585C403.224 141.807 401.676 142.835 400.174 143.647C399.766 143.867 399.256 143.715 399.035 143.307C398.814 142.899 398.966 142.389 399.374 142.168C400.781 141.407 402.25 140.435 403.738 139.264C404.102 138.976 404.631 139.039 404.918 139.404Z" fill="#A672B7"/>
</g>
<g filter="url(#filter6_d)">
<path fill-rule="evenodd" clip-rule="evenodd" d="M79.3931 428.097C76.2422 427.818 73.2105 427.841 70.2988 428.119L70.2189 427.282C73.1816 426.999 76.2648 426.976 79.4671 427.259L79.3931 428.097ZM98.4102 433.168C96.9747 432.539 95.5582 431.972 94.1606 431.464L94.4477 430.674C95.8626 431.188 97.296 431.762 98.7476 432.398L98.4102 433.168ZM55.6618 431.861C52.8172 433.067 50.1311 434.5 47.6053 436.09L47.1574 435.379C49.7179 433.767 52.4439 432.313 55.3337 431.087L55.6618 431.861ZM35.7521 445.587C33.4789 447.831 31.4286 450.121 29.6041 452.346L28.9541 451.813C30.7949 449.568 32.8649 447.256 35.1616 444.989L35.7521 445.587ZM18.7595 468.831C18.7595 468.831 18.7595 468.831 18.3797 468.651C18 468.471 18 468.471 18 468.471L18.0007 468.47L18.0025 468.466L18.0093 468.452L18.0358 468.397C18.0591 468.349 18.0938 468.278 18.1399 468.185C18.2321 468 18.3697 467.727 18.5525 467.377C18.9181 466.677 19.4646 465.667 20.1903 464.42L20.9168 464.843C20.1981 466.078 19.6578 467.077 19.2976 467.767C19.1175 468.111 18.9824 468.379 18.8927 468.559C18.8478 468.65 18.8142 468.718 18.792 468.764L18.7673 468.815L18.7613 468.828L18.7595 468.831Z" fill="#FE5066"/>
</g>
</g>
<defs>
<filter id="filter0_d" x="0" y="28.0334" width="465.728" height="473.966" filterUnits="userSpaceOnUse" color-interpolation-filters="sRGB">
<feFlood flood-opacity="0" result="BackgroundImageFix"/>
<feColorMatrix in="SourceAlpha" type="matrix" values="0 0 0 0 0 0 0 0 0 0 0 0 0 0 0 0 0 0 127 0"/>
<feOffset dy="4"/>
<feGaussianBlur stdDeviation="9"/>
<feColorMatrix type="matrix" values="0 0 0 0 0 0 0 0 0 0 0 0 0 0 0 0 0 0 0.25 0"/>
<feBlend mode="normal" in2="BackgroundImageFix" result="effect1_dropShadow"/>
<feBlend mode="normal" in="SourceGraphic" in2="effect1_dropShadow" result="shape"/>
</filter>
<filter id="filter1_f" x="321.037" y="228.775" width="60.5341" height="130.739" filterUnits="userSpaceOnUse" color-interpolation-filters="sRGB">
<feFlood flood-opacity="0" result="BackgroundImageFix"/>
<feBlend mode="normal" in="SourceGraphic" in2="BackgroundImageFix" result="shape"/>
<feGaussianBlur stdDeviation="3.5" result="effect1_foregroundBlur"/>
</filter>
<filter id="filter2_f" x="218.559" y="197.03" width="42.6812" height="89.4646" filterUnits="userSpaceOnUse" color-interpolation-filters="sRGB">
<feFlood flood-opacity="0" result="BackgroundImageFix"/>
<feBlend mode="normal" in="SourceGraphic" in2="BackgroundImageFix" result="shape"/>
<feGaussianBlur stdDeviation="3.5" result="effect1_foregroundBlur"/>
</filter>
<filter id="filter3_d" x="315.869" y="54.344" width="101.904" height="101.063" filterUnits="userSpaceOnUse" color-interpolation-filters="sRGB">
<feFlood flood-opacity="0" result="BackgroundImageFix"/>
<feColorMatrix in="SourceAlpha" type="matrix" values="0 0 0 0 0 0 0 0 0 0 0 0 0 0 0 0 0 0 127 0"/>
<feOffset dy="4"/>
<feGaussianBlur stdDeviation="3.5"/>
<feColorMatrix type="matrix" values="0 0 0 0 0 0 0 0 0 0 0 0 0 0 0 0 0 0 0.15 0"/>
<feBlend mode="normal" in2="BackgroundImageFix" result="effect1_dropShadow"/>
<feBlend mode="normal" in="SourceGraphic" in2="effect1_dropShadow" result="shape"/>
</filter>
<filter id="filter4_d" x="385.528" y="338.324" width="45.6759" height="45.6561" filterUnits="userSpaceOnUse" color-interpolation-filters="sRGB">
<feFlood flood-opacity="0" result="BackgroundImageFix"/>
<feColorMatrix in="SourceAlpha" type="matrix" values="0 0 0 0 0 0 0 0 0 0 0 0 0 0 0 0 0 0 127 0"/>
<feOffset dy="4"/>
<feGaussianBlur stdDeviation="2"/>
<feColorMatrix type="matrix" values="0 0 0 0 0 0 0 0 0 0 0 0 0 0 0 0 0 0 0.15 0"/>
<feBlend mode="normal" in2="BackgroundImageFix" result="effect1_dropShadow"/>
<feBlend mode="normal" in="SourceGraphic" in2="effect1_dropShadow" result="shape"/>
</filter>
<filter id="filter5_d" x="333.819" y="42.0334" width="94.5851" height="109.714" filterUnits="userSpaceOnUse" color-interpolation-filters="sRGB">
<feFlood flood-opacity="0" result="BackgroundImageFix"/>
<feColorMatrix in="SourceAlpha" type="matrix" values="0 0 0 0 0 0 0 0 0 0 0 0 0 0 0 0 0 0 127 0"/>
<feOffset dy="4"/>
<feGaussianBlur stdDeviation="2"/>
<feColorMatrix type="matrix" values="0 0 0 0 0 0 0 0 0 0 0 0 0 0 0 0 0 0 0.2 0"/>
<feBlend mode="normal" in2="BackgroundImageFix" result="effect1_dropShadow"/>
<feBlend mode="normal" in="SourceGraphic" in2="effect1_dropShadow" result="shape"/>
</filter>
<filter id="filter6_d" x="14" y="427.058" width="88.7476" height="49.7733" filterUnits="userSpaceOnUse" color-interpolation-filters="sRGB">
<feFlood flood-opacity="0" result="BackgroundImageFix"/>
<feColorMatrix in="SourceAlpha" type="matrix" values="0 0 0 0 0 0 0 0 0 0 0 0 0 0 0 0 0 0 127 0"/>
<feOffset dy="4"/>
<feGaussianBlur stdDeviation="2"/>
<feColorMatrix type="matrix" values="0 0 0 0 0 0 0 0 0 0 0 0 0 0 0 0 0 0 0.25 0"/>
<feBlend mode="normal" in2="BackgroundImageFix" result="effect1_dropShadow"/>
<feBlend mode="normal" in="SourceGraphic" in2="effect1_dropShadow" result="shape"/>
</filter>
<linearGradient id="paint0_linear" x1="19.6407" y1="404.763" x2="384.474" y2="560.28" gradientUnits="userSpaceOnUse">
<stop stop-color="#FE6556"/>
<stop offset="0.276341" stop-color="#FD3E72"/>
<stop offset="1" stop-color="#49A8FF"/>
</linearGradient>
<linearGradient id="paint1_linear" x1="329.833" y1="230.333" x2="229.798" y2="390.893" gradientUnits="userSpaceOnUse">
<stop stop-color="#FF9573"/>
<stop offset="1" stop-color="#FFA68A"/>
</linearGradient>
<linearGradient id="paint2_linear" x1="21814.8" y1="25729.8" x2="36133.5" y2="27240" gradientUnits="userSpaceOnUse">
<stop stop-color="#FFF4DE"/>
<stop offset="1" stop-color="#D26766"/>
</linearGradient>
<linearGradient id="paint3_linear" x1="22107.7" y1="22882.2" x2="36426.2" y2="24392.4" gradientUnits="userSpaceOnUse">
<stop stop-color="#FFF4DE"/>
<stop offset="1" stop-color="#D26766"/>
</linearGradient>
<linearGradient id="paint4_linear" x1="22358.4" y1="20372.1" x2="36677.1" y2="21882.3" gradientUnits="userSpaceOnUse">
<stop stop-color="#FFF4DE"/>
<stop offset="1" stop-color="#D26766"/>
</linearGradient>
<linearGradient id="paint5_linear" x1="210.043" y1="414.851" x2="224.334" y2="213.52" gradientUnits="userSpaceOnUse">
<stop stop-color="#FFA68A"/>
<stop offset="0.455529" stop-color="#FF9473"/>
</linearGradient>
<linearGradient id="paint6_linear" x1="386.923" y1="353.054" x2="468.929" y2="378.76" gradientUnits="userSpaceOnUse">
<stop stop-color="#FE6556"/>
<stop offset="0.276341" stop-color="#FD3E72"/>
<stop offset="1" stop-color="#49A8FF"/>
</linearGradient>
</defs>
</svg>
