<svg width="6" height="1095" viewBox="0 0 6 1095" fill="none" xmlns="http://www.w3.org/2000/svg">
<path d="M5.5 3C5.5 1.61929 4.38071 0.5 3 0.5C1.61929 0.5 0.5 1.61929 0.5 3L5.5 3ZM0.5 3L0.500034 791L5.50003 791L5.5 3L0.5 3Z" fill="url(#paint0_linear)"/>
<path d="M5.5 791C5.5 789.619 4.38071 788.5 3 788.5C1.61929 788.5 0.5 789.619 0.5 791L5.5 791ZM0.5 797C0.5 798.381 1.61929 799.5 3 799.5C4.38071 799.5 5.5 798.381 5.5 797L0.5 797ZM5.5 823C5.5 821.619 4.38071 820.5 3 820.5C1.61929 820.5 0.499999 821.619 0.499999 823L5.5 823ZM0.499998 835C0.499998 836.381 1.61929 837.5 3 837.5C4.38071 837.5 5.5 836.381 5.5 835L0.499998 835ZM5.5 861C5.5 859.619 4.38071 858.5 3 858.5C1.61929 858.5 0.499997 859.619 0.499997 861L5.5 861ZM0.499996 873C0.499996 874.381 1.61928 875.5 3 875.5C4.38071 875.5 5.5 874.381 5.5 873L0.499996 873ZM5.5 899C5.5 897.619 4.38071 896.5 3 896.5C1.61928 896.5 0.499995 897.619 0.499995 899L5.5 899ZM0.499995 911C0.499995 912.381 1.61928 913.5 2.99999 913.5C4.38071 913.5 5.49999 912.381 5.49999 911L0.499995 911ZM5.49999 937C5.49999 935.619 4.38071 934.5 2.99999 934.5C1.61928 934.5 0.499994 935.619 0.499994 937L5.49999 937ZM0.499993 949C0.499993 950.381 1.61928 951.5 2.99999 951.5C4.3807 951.5 5.49999 950.381 5.49999 949L0.499993 949ZM5.49999 975C5.49999 973.619 4.3807 972.5 2.99999 972.5C1.61928 972.5 0.499992 973.619 0.499992 975L5.49999 975ZM0.499991 987C0.499991 988.381 1.61928 989.5 2.99999 989.5C4.3807 989.5 5.49999 988.381 5.49999 987L0.499991 987ZM5.49999 1013C5.49999 1011.62 4.3807 1010.5 2.99999 1010.5C1.61928 1010.5 0.49999 1011.62 0.49999 1013L5.49999 1013ZM0.49999 1025C0.49999 1026.38 1.61928 1027.5 2.99999 1027.5C4.3807 1027.5 5.49999 1026.38 5.49999 1025L0.49999 1025ZM5.49999 1051C5.49999 1049.62 4.3807 1048.5 2.99999 1048.5C1.61928 1048.5 0.499989 1049.62 0.499989 1051L5.49999 1051ZM0.499988 1063C0.499988 1064.38 1.61928 1065.5 2.99999 1065.5C4.3807 1065.5 5.49999 1064.38 5.49999 1063L0.499988 1063ZM5.49999 1089C5.49999 1087.62 4.3807 1086.5 2.99999 1086.5C1.61928 1086.5 0.499987 1087.62 0.499987 1089L5.49999 1089ZM0.5 791L0.5 797L5.5 797L5.5 791L0.5 791ZM0.499999 823L0.499998 835L5.5 835L5.5 823L0.499999 823ZM0.499997 861L0.499996 873L5.5 873L5.5 861L0.499997 861ZM0.499995 899L0.499995 911L5.49999 911L5.5 899L0.499995 899ZM0.499994 937L0.499993 949L5.49999 949L5.49999 937L0.499994 937ZM0.499992 975L0.499991 987L5.49999 987L5.49999 975L0.499992 975ZM0.49999 1013L0.49999 1025L5.49999 1025L5.49999 1013L0.49999 1013ZM0.499989 1051L0.499988 1063L5.49999 1063L5.49999 1051L0.499989 1051ZM0.499987 1089L0.499987 1095L5.49999 1095L5.49999 1089L0.499987 1089Z" fill="url(#paint1_linear)"/>
<defs>
<linearGradient id="paint0_linear" x1="15.188" y1="-127.187" x2="15.188" y2="1247.19" gradientUnits="userSpaceOnUse">
<stop stop-color="#FE6556"/>
<stop offset="0.401042" stop-color="#FD3E72"/>
<stop offset="1" stop-color="#49A8FF"/>
</linearGradient>
<linearGradient id="paint1_linear" x1="2.20146" y1="740.776" x2="50.188" y2="743.701" gradientUnits="userSpaceOnUse">
<stop stop-color="#BC65A6"/>
<stop offset="1" stop-color="#49A8FF"/>
</linearGradient>
</defs>
</svg>
