<svg width="535" height="518" viewBox="0 0 535 518" fill="none" xmlns="http://www.w3.org/2000/svg">
<g opacity="0.2" filter="url(#filter0_d)">
<path d="M184.499 309.306H182.155C180.499 309.306 179.155 310.649 179.155 312.306V319.142C179.155 320.799 180.499 322.142 182.155 322.142H184.499C186.156 322.142 187.499 320.799 187.499 319.142V312.306C187.499 310.649 186.156 309.306 184.499 309.306Z" fill="#5B5863"/>
<path d="M169.155 221.376H72.3436C66.8207 221.376 62.3436 225.853 62.3436 231.376V231.914C62.3436 237.437 66.8207 241.914 72.3436 241.914H169.155C174.678 241.914 179.155 237.437 179.155 231.914V231.376C179.155 225.853 174.678 221.376 169.155 221.376Z" fill="#5B5863"/>
<path d="M184.499 384.399H182.155C180.499 384.399 179.155 385.742 179.155 387.399V394.235C179.155 395.892 180.499 397.235 182.155 397.235H184.499C186.156 397.235 187.499 395.892 187.499 394.235V387.399C187.499 385.742 186.156 384.399 184.499 384.399Z" fill="#5B5863"/>
<path d="M60.6273 384.399H57C55.3431 384.399 54 385.742 54 387.399V394.235C54 395.892 55.3431 397.235 57 397.235H60.6273C62.2842 397.235 63.6273 395.892 63.6273 394.235V387.399C63.6273 385.742 62.2842 384.399 60.6273 384.399Z" fill="#5B5863"/>
<path d="M60.6273 235.496H57C55.3431 235.496 54 236.839 54 238.496V245.333C54 246.99 55.3431 248.333 57 248.333H60.6273C62.2842 248.333 63.6273 246.99 63.6273 245.333V238.496C63.6273 236.839 62.2842 235.496 60.6273 235.496Z" fill="#5B5863"/>
<path d="M60.6273 347.173H57C55.3431 347.173 54 348.516 54 350.173V357.01C54 358.667 55.3431 360.01 57 360.01H60.6273C62.2842 360.01 63.6273 358.667 63.6273 357.01V350.173C63.6273 348.516 62.2842 347.173 60.6273 347.173Z" fill="#5B5863"/>
<path d="M60.6273 309.306H57C55.3431 309.306 54 310.649 54 312.306V319.142C54 320.799 55.3431 322.142 57 322.142H60.6273C62.2842 322.142 63.6273 320.799 63.6273 319.142V312.306C63.6273 310.649 62.2842 309.306 60.6273 309.306Z" fill="#5B5863"/>
<path d="M184.499 235.496H182.155C180.499 235.496 179.155 236.839 179.155 238.496V245.333C179.155 246.99 180.499 248.333 182.155 248.333H184.499C186.156 248.333 187.499 246.99 187.499 245.333V238.496C187.499 236.839 186.156 235.496 184.499 235.496Z" fill="#5B5863"/>
<path d="M184.499 347.173H182.155C180.499 347.173 179.155 348.516 179.155 350.173V357.01C179.155 358.667 180.499 360.01 182.155 360.01H184.499C186.156 360.01 187.499 358.667 187.499 357.01V350.173C187.499 348.516 186.156 347.173 184.499 347.173Z" fill="#5B5863"/>
<path d="M60.6273 272.08H57C55.3431 272.08 54 273.423 54 275.08V281.916C54 283.573 55.3431 284.916 57 284.916H60.6273C62.2842 284.916 63.6273 283.573 63.6273 281.916V275.08C63.6273 273.423 62.2842 272.08 60.6273 272.08Z" fill="#5B5863"/>
<path d="M184.499 272.08H182.155C180.499 272.08 179.155 273.423 179.155 275.08V281.916C179.155 283.573 180.499 284.916 182.155 284.916H184.499C186.156 284.916 187.499 283.573 187.499 281.916V275.08C187.499 273.423 186.156 272.08 184.499 272.08Z" fill="#5B5863"/>
<path d="M179.117 228.611H62.3882C59.6268 228.611 57.3882 230.85 57.3882 233.611V251.059C57.3882 253.821 59.6268 256.059 62.3883 256.059H179.117C181.878 256.059 184.117 253.821 184.117 251.059V233.611C184.117 230.85 181.878 228.611 179.117 228.611Z" fill="white"/>
<path d="M88.436 235.615H87.199C85.5422 235.615 84.199 236.958 84.199 238.615V246.055C84.199 247.711 85.5422 249.055 87.199 249.055H88.436C90.0929 249.055 91.436 247.711 91.436 246.055V238.615C91.436 236.958 90.0929 235.615 88.436 235.615Z" fill="#FD3E72"/>
<path d="M77.3365 235.615H76.0995C74.4426 235.615 73.0995 236.958 73.0995 238.615V246.055C73.0995 247.711 74.4426 249.055 76.0995 249.055H77.3365C78.9933 249.055 80.3365 247.711 80.3365 246.055V238.615C80.3365 236.958 78.9933 235.615 77.3365 235.615Z" fill="#FD3E72"/>
<path d="M69.2484 246.171V238.498C69.2484 236.906 67.9574 235.615 66.3648 235.615C64.7722 235.615 63.4811 236.906 63.4811 238.498V246.171C63.4811 247.764 64.7722 249.055 66.3648 249.055C67.9574 249.055 69.2484 247.764 69.2484 246.171Z" fill="#FD3E72"/>
<path d="M99.5343 235.615H98.2974C96.6405 235.615 95.2974 236.958 95.2974 238.615V246.055C95.2974 247.711 96.6405 249.055 98.2974 249.055H99.5343C101.191 249.055 102.534 247.711 102.534 246.055V238.615C102.534 236.958 101.191 235.615 99.5343 235.615Z" fill="#FD3E72"/>
<path d="M148.055 235.496H109.63C107.973 235.496 106.63 236.839 106.63 238.496V245.936C106.63 247.593 107.973 248.936 109.63 248.936H148.055C149.712 248.936 151.055 247.593 151.055 245.936V238.496C151.055 236.839 149.712 235.496 148.055 235.496Z" fill="url(#paint0_linear)"/>
<path d="M162.65 245.133C164.52 245.133 166.036 243.617 166.036 241.747C166.036 239.878 164.52 238.362 162.65 238.362C160.781 238.362 159.265 239.878 159.265 241.747C159.265 243.617 160.781 245.133 162.65 245.133Z" fill="white" stroke="#FD3E72" stroke-miterlimit="10"/>
<path d="M179.303 241.767C179.303 241.095 179.104 240.438 178.73 239.88C178.356 239.321 177.826 238.886 177.205 238.629C176.583 238.372 175.9 238.306 175.241 238.438C174.582 238.569 173.977 238.894 173.503 239.37C173.028 239.846 172.706 240.452 172.576 241.111C172.446 241.77 172.515 242.453 172.773 243.074C173.032 243.694 173.469 244.223 174.028 244.595C174.588 244.967 175.246 245.165 175.918 245.163C176.816 245.16 177.677 244.801 178.312 244.164C178.947 243.528 179.303 242.666 179.303 241.767Z" fill="#FD3E72"/>
<path d="M142.885 245.133C144.755 245.133 146.27 243.617 146.27 241.747C146.27 239.878 144.755 238.362 142.885 238.362C141.015 238.362 139.5 239.878 139.5 241.747C139.5 243.617 141.015 245.133 142.885 245.133Z" fill="white"/>
<path d="M179.303 256.059H62.1938V265.455H179.303V256.059Z" fill="#5B5863"/>
<path d="M179.117 265.465H62.3882C59.6268 265.465 57.3882 267.704 57.3882 270.465V287.913C57.3882 290.674 59.6268 292.913 62.3883 292.913H179.117C181.878 292.913 184.117 290.674 184.117 287.913V270.465C184.117 267.704 181.878 265.465 179.117 265.465Z" fill="white"/>
<rect x="159.259" y="275.931" width="19.8965" height="7.06005" rx="3.53002" fill="#FD3E72"/>
<path d="M77.3365 272.469H76.0995C74.4426 272.469 73.0995 273.813 73.0995 275.469V282.91C73.0995 284.566 74.4426 285.91 76.0995 285.91H77.3365C78.9933 285.91 80.3365 284.566 80.3365 282.91V275.469C80.3365 273.813 78.9933 272.469 77.3365 272.469Z" fill="#FD3E72"/>
<path d="M99.5343 272.469H98.2974C96.6405 272.469 95.2974 273.813 95.2974 275.469V282.91C95.2974 284.566 96.6405 285.91 98.2974 285.91H99.5343C101.191 285.91 102.534 284.566 102.534 282.91V275.469C102.534 273.813 101.191 272.469 99.5343 272.469Z" fill="#FD3E72"/>
<path d="M88.436 272.469H87.199C85.5422 272.469 84.199 273.813 84.199 275.469V282.91C84.199 284.566 85.5422 285.91 87.199 285.91H88.436C90.0929 285.91 91.436 284.566 91.436 282.91V275.469C91.436 273.813 90.0929 272.469 88.436 272.469Z" fill="#FD3E72"/>
<path d="M69.2484 283.026V275.353C69.2484 273.761 67.9574 272.469 66.3648 272.469C64.7722 272.469 63.4811 273.761 63.4811 275.353V283.026C63.4811 284.619 64.7722 285.91 66.3648 285.91C67.9574 285.91 69.2484 284.619 69.2484 283.026Z" fill="#FD3E72"/>
<path d="M148.055 272.722H109.63C107.973 272.722 106.63 274.065 106.63 275.722V283.162C106.63 284.819 107.973 286.162 109.63 286.162H148.055C149.712 286.162 151.055 284.819 151.055 283.162V275.722C151.055 274.065 149.712 272.722 148.055 272.722Z" fill="url(#paint1_linear)"/>
<path d="M142.885 281.987C144.755 281.987 146.27 280.471 146.27 278.602C146.27 276.732 144.755 275.216 142.885 275.216C141.015 275.216 139.5 276.732 139.5 278.602C139.5 280.471 141.015 281.987 142.885 281.987Z" fill="white"/>
<path d="M179.303 292.913H62.1938V302.309H179.303V292.913Z" fill="#5B5863"/>
<path d="M179.155 363.219H62.3436V386.966H179.155V363.219Z" fill="#5B5863"/>
<path d="M179.117 302.309H62.3882C59.6268 302.309 57.3882 304.547 57.3882 307.309V324.757C57.3882 327.518 59.6268 329.757 62.3883 329.757H179.117C181.878 329.757 184.117 327.518 184.117 324.757V307.309C184.117 304.547 181.878 302.309 179.117 302.309Z" fill="white"/>
<path d="M88.436 309.312H87.199C85.5422 309.312 84.199 310.655 84.199 312.312V319.752C84.199 321.409 85.5422 322.752 87.199 322.752H88.436C90.0929 322.752 91.436 321.409 91.436 319.752V312.312C91.436 310.655 90.0929 309.312 88.436 309.312Z" fill="#FD3E72"/>
<path d="M99.5343 309.312H98.2974C96.6405 309.312 95.2974 310.655 95.2974 312.312V319.752C95.2974 321.409 96.6405 322.752 98.2974 322.752H99.5343C101.191 322.752 102.534 321.409 102.534 319.752V312.312C102.534 310.655 101.191 309.312 99.5343 309.312Z" fill="#FD3E72"/>
<path d="M77.3365 309.312H76.0995C74.4426 309.312 73.0995 310.655 73.0995 312.312V319.752C73.0995 321.409 74.4426 322.752 76.0995 322.752H77.3365C78.9933 322.752 80.3365 321.409 80.3365 319.752V312.312C80.3365 310.655 78.9933 309.312 77.3365 309.312Z" fill="#FD3E72"/>
<path d="M148.055 309.306H109.63C107.973 309.306 106.63 310.649 106.63 312.306V319.746C106.63 321.403 107.973 322.746 109.63 322.746H148.055C149.712 322.746 151.055 321.403 151.055 319.746V312.306C151.055 310.649 149.712 309.306 148.055 309.306Z" fill="url(#paint2_linear)"/>
<path d="M69.2484 319.868V312.196C69.2484 310.603 67.9574 309.312 66.3648 309.312C64.7722 309.312 63.4811 310.603 63.4811 312.196V319.868C63.4811 321.461 64.7722 322.752 66.3648 322.752C67.9574 322.752 69.2484 321.461 69.2484 319.868Z" fill="#FD3E72"/>
<path d="M162.65 318.83C164.52 318.83 166.036 317.314 166.036 315.444C166.036 313.575 164.52 312.059 162.65 312.059C160.781 312.059 159.265 313.575 159.265 315.444C159.265 317.314 160.781 318.83 162.65 318.83Z" fill="white" stroke="#FD3E72" stroke-miterlimit="10"/>
<path d="M179.303 315.445C179.303 314.773 179.104 314.116 178.73 313.557C178.356 312.999 177.826 312.564 177.205 312.307C176.583 312.05 175.9 311.983 175.241 312.115C174.582 312.247 173.977 312.572 173.503 313.047C173.028 313.523 172.706 314.129 172.576 314.789C172.446 315.448 172.515 316.131 172.773 316.751C173.032 317.372 173.469 317.901 174.028 318.273C174.588 318.645 175.246 318.842 175.918 318.84C176.816 318.838 177.677 318.479 178.312 317.842C178.947 317.206 179.303 316.344 179.303 315.445Z" fill="#FD3E72"/>
<path d="M142.885 318.83C144.755 318.83 146.27 317.314 146.27 315.444C146.27 313.575 144.755 312.059 142.885 312.059C141.015 312.059 139.5 313.575 139.5 315.444C139.5 317.314 141.015 318.83 142.885 318.83Z" fill="white"/>
<path d="M179.303 329.756H62.1938V339.152H179.303V329.756Z" fill="#5B5863"/>
<path d="M179.117 339.163H62.3882C59.6268 339.163 57.3882 341.401 57.3882 344.163V361.61C57.3882 364.372 59.6268 366.61 62.3883 366.61H179.117C181.878 366.61 184.117 364.372 184.117 361.61V344.163C184.117 341.401 181.878 339.163 179.117 339.163Z" fill="white"/>
<path d="M99.5343 346.166H98.2974C96.6405 346.166 95.2974 347.509 95.2974 349.166V356.606C95.2974 358.263 96.6405 359.606 98.2974 359.606H99.5343C101.191 359.606 102.534 358.263 102.534 356.606V349.166C102.534 347.509 101.191 346.166 99.5343 346.166Z" fill="#FD3E72"/>
<path d="M77.3365 346.166H76.0995C74.4426 346.166 73.0995 347.509 73.0995 349.166V356.606C73.0995 358.263 74.4426 359.606 76.0995 359.606H77.3365C78.9933 359.606 80.3365 358.263 80.3365 356.606V349.166C80.3365 347.509 78.9933 346.166 77.3365 346.166Z" fill="#FD3E72"/>
<path d="M88.436 346.166H87.199C85.5422 346.166 84.199 347.509 84.199 349.166V356.606C84.199 358.263 85.5422 359.606 87.199 359.606H88.436C90.0929 359.606 91.436 358.263 91.436 356.606V349.166C91.436 347.509 90.0929 346.166 88.436 346.166Z" fill="#FD3E72"/>
<path d="M69.2484 356.723V349.05C69.2484 347.457 67.9574 346.166 66.3648 346.166C64.7722 346.166 63.4811 347.457 63.4811 349.05V356.723C63.4811 358.315 64.7722 359.606 66.3648 359.606C67.9574 359.606 69.2484 358.315 69.2484 356.723Z" fill="#FD3E72"/>
<path d="M148.055 345.89H109.63C107.973 345.89 106.63 347.233 106.63 348.89V356.33C106.63 357.987 107.973 359.33 109.63 359.33H148.055C149.712 359.33 151.055 357.987 151.055 356.33V348.89C151.055 347.233 149.712 345.89 148.055 345.89Z" fill="url(#paint3_linear)"/>
<rect x="159.259" y="349.099" width="19.8965" height="7.06005" rx="3.53002" fill="#FD3E72"/>
<path d="M142.885 355.685C144.755 355.685 146.27 354.169 146.27 352.299C146.27 350.43 144.755 348.914 142.885 348.914C141.015 348.914 139.5 350.43 139.5 352.299C139.5 354.169 141.015 355.685 142.885 355.685Z" fill="white"/>
<path d="M179.117 376.006H62.3882C59.6268 376.006 57.3882 378.245 57.3882 381.006V398.454C57.3882 401.216 59.6268 403.454 62.3883 403.454H179.117C181.878 403.454 184.117 401.216 184.117 398.454V381.006C184.117 378.245 181.878 376.006 179.117 376.006Z" fill="white"/>
<path d="M77.3365 383.01H76.0995C74.4426 383.01 73.0995 384.353 73.0995 386.01V393.45C73.0995 395.107 74.4426 396.45 76.0995 396.45H77.3365C78.9933 396.45 80.3365 395.107 80.3365 393.45V386.01C80.3365 384.353 78.9933 383.01 77.3365 383.01Z" fill="#FD3E72"/>
<path d="M88.436 383.01H87.199C85.5422 383.01 84.199 384.353 84.199 386.01V393.45C84.199 395.107 85.5422 396.45 87.199 396.45H88.436C90.0929 396.45 91.436 395.107 91.436 393.45V386.01C91.436 384.353 90.0929 383.01 88.436 383.01Z" fill="#FD3E72"/>
<path d="M99.5343 383.01H98.2974C96.6405 383.01 95.2974 384.353 95.2974 386.01V393.45C95.2974 395.107 96.6405 396.45 98.2974 396.45H99.5343C101.191 396.45 102.534 395.107 102.534 393.45V386.01C102.534 384.353 101.191 383.01 99.5343 383.01Z" fill="#FD3E72"/>
<path d="M69.2484 393.566V385.894C69.2484 384.301 67.9574 383.01 66.3648 383.01C64.7722 383.01 63.4811 384.301 63.4811 385.894V393.566C63.4811 395.159 64.7722 396.45 66.3648 396.45C67.9574 396.45 69.2484 395.159 69.2484 393.566Z" fill="#FD3E72"/>
<path d="M147.811 383.01H109.386C107.729 383.01 106.386 384.353 106.386 386.01V393.45C106.386 395.107 107.729 396.45 109.386 396.45H147.811C149.468 396.45 150.811 395.107 150.811 393.45V386.01C150.811 384.353 149.468 383.01 147.811 383.01Z" fill="url(#paint4_linear)"/>
<path d="M162.65 392.527C164.52 392.527 166.036 391.011 166.036 389.142C166.036 387.272 164.52 385.756 162.65 385.756C160.781 385.756 159.265 387.272 159.265 389.142C159.265 391.011 160.781 392.527 162.65 392.527Z" fill="#FD3E72"/>
<path d="M179.303 389.142C179.303 388.47 179.104 387.813 178.73 387.254C178.356 386.696 177.826 386.261 177.205 386.004C176.583 385.747 175.9 385.68 175.241 385.812C174.582 385.944 173.977 386.269 173.503 386.744C173.028 387.22 172.706 387.826 172.576 388.486C172.446 389.145 172.515 389.828 172.773 390.448C173.032 391.069 173.469 391.598 174.028 391.97C174.588 392.342 175.246 392.539 175.918 392.537C176.816 392.535 177.677 392.176 178.312 391.539C178.947 390.903 179.303 390.041 179.303 389.142V389.142Z" stroke="#FD3E72" stroke-miterlimit="10"/>
<path d="M142.885 392.527C144.755 392.527 146.27 391.011 146.27 389.142C146.27 387.272 144.755 385.756 142.885 385.756C141.015 385.756 139.5 387.272 139.5 389.142C139.5 391.011 141.015 392.527 142.885 392.527Z" fill="white"/>
</g>
<g opacity="0.1" filter="url(#filter1_d)">
<path d="M451.972 250.54H451.598C449.941 250.54 448.598 251.883 448.598 253.54V257.345C448.598 259.002 449.941 260.345 451.598 260.345H451.972C453.628 260.345 454.972 259.002 454.972 257.345V253.54C454.972 251.883 453.628 250.54 451.972 250.54Z" fill="#5B5863"/>
<path d="M440.754 183.376H367.217C362.885 183.376 359.373 186.888 359.373 191.22C359.373 195.552 362.885 199.064 367.217 199.064H440.754C445.087 199.064 448.598 195.552 448.598 191.22C448.598 186.888 445.087 183.376 440.754 183.376Z" fill="#5B5863"/>
<path d="M451.972 307.899H451.598C449.941 307.899 448.598 309.242 448.598 310.899V314.704C448.598 316.361 449.941 317.704 451.598 317.704H451.972C453.628 317.704 454.972 316.361 454.972 314.704V310.899C454.972 309.242 453.628 307.899 451.972 307.899Z" fill="#5B5863"/>
<path d="M357.354 307.899H356C354.343 307.899 353 309.242 353 310.899V314.704C353 316.361 354.343 317.704 356 317.704H357.354C359.011 317.704 360.354 316.361 360.354 314.704V310.899C360.354 309.242 359.011 307.899 357.354 307.899Z" fill="#5B5863"/>
<path d="M357.354 194.161H356C354.343 194.161 353 195.505 353 197.161V200.966C353 202.623 354.343 203.966 356 203.966H357.354C359.011 203.966 360.354 202.623 360.354 200.966V197.161C360.354 195.505 359.011 194.161 357.354 194.161Z" fill="#5B5863"/>
<path d="M357.354 279.464H356C354.343 279.464 353 280.808 353 282.464V286.269C353 287.926 354.343 289.269 356 289.269H357.354C359.011 289.269 360.354 287.926 360.354 286.269V282.464C360.354 280.808 359.011 279.464 357.354 279.464Z" fill="#5B5863"/>
<path d="M357.354 250.54H356C354.343 250.54 353 251.883 353 253.54V257.345C353 259.002 354.343 260.345 356 260.345H357.354C359.011 260.345 360.354 259.002 360.354 257.345V253.54C360.354 251.883 359.011 250.54 357.354 250.54Z" fill="#5B5863"/>
<path d="M451.972 194.161H451.598C449.941 194.161 448.598 195.505 448.598 197.161V200.966C448.598 202.623 449.941 203.966 451.598 203.966H451.972C453.628 203.966 454.972 202.623 454.972 200.966V197.161C454.972 195.505 453.628 194.161 451.972 194.161Z" fill="#5B5863"/>
<path d="M451.972 279.464H451.598C449.941 279.464 448.598 280.808 448.598 282.464V286.269C448.598 287.926 449.941 289.269 451.598 289.269H451.972C453.628 289.269 454.972 287.926 454.972 286.269V282.464C454.972 280.808 453.628 279.464 451.972 279.464Z" fill="#5B5863"/>
<path d="M357.354 222.106H356C354.343 222.106 353 223.449 353 225.106V228.911C353 230.568 354.343 231.911 356 231.911H357.354C359.011 231.911 360.354 230.568 360.354 228.911V225.106C360.354 223.449 359.011 222.106 357.354 222.106Z" fill="#5B5863"/>
<path d="M451.972 222.106H451.598C449.941 222.106 448.598 223.449 448.598 225.106V228.911C448.598 230.568 449.941 231.911 451.598 231.911H451.972C453.628 231.911 454.972 230.568 454.972 228.911V225.106C454.972 223.449 453.628 222.106 451.972 222.106Z" fill="#5B5863"/>
<path d="M447.388 188.903H360.588C357.827 188.903 355.588 191.141 355.588 193.903V204.868C355.588 207.63 357.827 209.868 360.588 209.868H447.388C450.15 209.868 452.388 207.63 452.388 204.868V193.903C452.388 191.141 450.15 188.903 447.388 188.903Z" fill="white"/>
<path d="M381.595 201.754V197.016C381.595 195.489 380.358 194.252 378.831 194.252C377.305 194.252 376.067 195.489 376.067 197.016V201.754C376.067 203.28 377.305 204.518 378.831 204.518C380.358 204.518 381.595 203.28 381.595 201.754Z" fill="#FD3E72"/>
<path d="M373.117 201.754V197.016C373.117 195.489 371.879 194.252 370.353 194.252C368.826 194.252 367.589 195.489 367.589 197.016V201.754C367.589 203.28 368.826 204.518 370.353 204.518C371.879 204.518 373.117 203.28 373.117 201.754Z" fill="#FD3E72"/>
<path d="M364.648 202.315V196.454C364.648 195.238 363.661 194.252 362.445 194.252C361.228 194.252 360.242 195.238 360.242 196.454V202.315C360.242 203.532 361.228 204.518 362.445 204.518C363.661 204.518 364.648 203.532 364.648 202.315Z" fill="#FD3E72"/>
<path d="M390.072 201.754V197.016C390.072 195.489 388.835 194.252 387.308 194.252C385.782 194.252 384.544 195.489 384.544 197.016V201.754C384.544 203.28 385.782 204.518 387.308 204.518C388.835 204.518 390.072 203.28 390.072 201.754Z" fill="#FD3E72"/>
<path d="M424.134 194.161H396.201C394.544 194.161 393.201 195.505 393.201 197.161V201.427C393.201 203.084 394.544 204.427 396.201 204.427H424.134C425.791 204.427 427.134 203.084 427.134 201.427V197.161C427.134 195.505 425.791 194.161 424.134 194.161Z" fill="url(#paint5_linear)"/>
<path d="M435.991 201.523C437.419 201.523 438.577 200.365 438.577 198.937C438.577 197.509 437.419 196.351 435.991 196.351C434.563 196.351 433.405 197.509 433.405 198.937C433.405 200.365 434.563 201.523 435.991 201.523Z" fill="white" stroke="#FD3E72" stroke-miterlimit="10"/>
<path d="M448.711 198.951C448.711 198.438 448.559 197.936 448.273 197.509C447.988 197.083 447.582 196.75 447.108 196.554C446.634 196.358 446.112 196.307 445.608 196.408C445.105 196.509 444.643 196.756 444.281 197.12C443.918 197.483 443.672 197.946 443.573 198.45C443.473 198.953 443.526 199.475 443.723 199.949C443.921 200.423 444.254 200.827 444.682 201.111C445.11 201.395 445.612 201.546 446.125 201.545C446.812 201.543 447.469 201.268 447.954 200.782C448.439 200.296 448.711 199.638 448.711 198.951Z" fill="#FD3E72"/>
<path d="M420.894 201.523C422.322 201.523 423.48 200.365 423.48 198.937C423.48 197.509 422.322 196.351 420.894 196.351C419.466 196.351 418.308 197.509 418.308 198.937C418.308 200.365 419.466 201.523 420.894 201.523Z" fill="white"/>
<path d="M448.712 209.868H359.259V217.045H448.712V209.868Z" fill="#5B5863"/>
<path d="M447.388 217.053H360.588C357.827 217.053 355.588 219.291 355.588 222.053V233.018C355.588 235.78 357.827 238.018 360.588 238.018H447.388C450.15 238.018 452.388 235.78 452.388 233.018V222.053C452.388 219.291 450.15 217.053 447.388 217.053Z" fill="white"/>
<rect x="433.401" y="225.047" width="15.1977" height="5.39273" rx="2.69637" fill="#FD3E72"/>
<path d="M373.117 229.905V225.167C373.117 223.641 371.879 222.403 370.353 222.403C368.826 222.403 367.589 223.641 367.589 225.167V229.905C367.589 231.432 368.826 232.669 370.353 232.669C371.879 232.669 373.117 231.432 373.117 229.905Z" fill="#FD3E72"/>
<path d="M390.072 229.905V225.167C390.072 223.641 388.835 222.403 387.308 222.403C385.782 222.403 384.544 223.641 384.544 225.167V229.905C384.544 231.432 385.782 232.669 387.308 232.669C388.835 232.669 390.072 231.432 390.072 229.905Z" fill="#FD3E72"/>
<path d="M381.595 229.905V225.167C381.595 223.641 380.358 222.403 378.831 222.403C377.305 222.403 376.067 223.641 376.067 225.167V229.905C376.067 231.432 377.305 232.669 378.831 232.669C380.358 232.669 381.595 231.432 381.595 229.905Z" fill="#FD3E72"/>
<path d="M364.648 230.467V224.606C364.648 223.389 363.661 222.403 362.445 222.403C361.228 222.403 360.242 223.389 360.242 224.606V230.467C360.242 231.683 361.228 232.669 362.445 232.669C363.661 232.669 364.648 231.683 364.648 230.467Z" fill="#FD3E72"/>
<path d="M424.134 222.596H396.201C394.544 222.596 393.201 223.939 393.201 225.596V229.862C393.201 231.519 394.544 232.862 396.201 232.862H424.134C425.791 232.862 427.134 231.519 427.134 229.862V225.596C427.134 223.939 425.791 222.596 424.134 222.596Z" fill="url(#paint6_linear)"/>
<path d="M420.894 229.673C422.322 229.673 423.48 228.516 423.48 227.088C423.48 225.659 422.322 224.502 420.894 224.502C419.466 224.502 418.308 225.659 418.308 227.088C418.308 228.516 419.466 229.673 420.894 229.673Z" fill="white"/>
<path d="M448.712 238.019H359.259V245.196H448.712V238.019Z" fill="#5B5863"/>
<path d="M448.598 291.721H359.373V309.86H448.598V291.721Z" fill="#5B5863"/>
<path d="M447.388 245.195H360.588C357.827 245.195 355.588 247.434 355.588 250.195V261.161C355.588 263.922 357.827 266.161 360.588 266.161H447.388C450.15 266.161 452.388 263.922 452.388 261.161V250.195C452.388 247.434 450.15 245.195 447.388 245.195Z" fill="white"/>
<path d="M381.595 258.047V253.308C381.595 251.782 380.358 250.544 378.831 250.544C377.305 250.544 376.067 251.782 376.067 253.308V258.047C376.067 259.573 377.305 260.81 378.831 260.81C380.358 260.81 381.595 259.573 381.595 258.047Z" fill="#FD3E72"/>
<path d="M390.072 258.047V253.308C390.072 251.782 388.835 250.544 387.308 250.544C385.782 250.544 384.544 251.782 384.544 253.308V258.047C384.544 259.573 385.782 260.81 387.308 260.81C388.835 260.81 390.072 259.573 390.072 258.047Z" fill="#FD3E72"/>
<path d="M373.117 258.047V253.308C373.117 251.782 371.879 250.544 370.353 250.544C368.826 250.544 367.589 251.782 367.589 253.308V258.047C367.589 259.573 368.826 260.81 370.353 260.81C371.879 260.81 373.117 259.573 373.117 258.047Z" fill="#FD3E72"/>
<path d="M424.134 250.54H396.201C394.544 250.54 393.201 251.883 393.201 253.54V257.806C393.201 259.463 394.544 260.806 396.201 260.806H424.134C425.791 260.806 427.134 259.463 427.134 257.806V253.54C427.134 251.883 425.791 250.54 424.134 250.54Z" fill="url(#paint7_linear)"/>
<path d="M364.648 258.608V252.747C364.648 251.531 363.661 250.544 362.445 250.544C361.228 250.544 360.242 251.531 360.242 252.747V258.608C360.242 259.824 361.228 260.81 362.445 260.81C363.661 260.81 364.648 259.824 364.648 258.608Z" fill="#FD3E72"/>
<path d="M435.991 257.815C437.419 257.815 438.577 256.657 438.577 255.229C438.577 253.801 437.419 252.643 435.991 252.643C434.563 252.643 433.405 253.801 433.405 255.229C433.405 256.657 434.563 257.815 435.991 257.815Z" fill="white" stroke="#FD3E72" stroke-miterlimit="10"/>
<path d="M448.711 255.23C448.711 254.716 448.559 254.215 448.273 253.788C447.988 253.361 447.582 253.029 447.108 252.833C446.634 252.637 446.112 252.586 445.608 252.686C445.105 252.787 444.643 253.035 444.281 253.398C443.918 253.762 443.672 254.225 443.573 254.728C443.473 255.232 443.526 255.754 443.723 256.228C443.921 256.701 444.254 257.106 444.682 257.39C445.11 257.674 445.612 257.825 446.125 257.823C446.812 257.821 447.469 257.547 447.954 257.061C448.439 256.575 448.711 255.916 448.711 255.23Z" fill="#FD3E72"/>
<path d="M420.894 257.815C422.322 257.815 423.48 256.657 423.48 255.229C423.48 253.801 422.322 252.643 420.894 252.643C419.466 252.643 418.308 253.801 418.308 255.229C418.308 256.657 419.466 257.815 420.894 257.815Z" fill="white"/>
<path d="M448.712 266.161H359.259V273.338H448.712V266.161Z" fill="#5B5863"/>
<path d="M447.388 273.345H360.588C357.827 273.345 355.588 275.584 355.588 278.345V289.311C355.588 292.073 357.827 294.311 360.588 294.311H447.388C450.15 294.311 452.388 292.073 452.388 289.311V278.345C452.388 275.584 450.15 273.345 447.388 273.345Z" fill="white"/>
<path d="M390.072 286.197V281.459C390.072 279.933 388.835 278.695 387.308 278.695C385.782 278.695 384.544 279.933 384.544 281.459V286.197C384.544 287.724 385.782 288.961 387.308 288.961C388.835 288.961 390.072 287.724 390.072 286.197Z" fill="#FD3E72"/>
<path d="M373.117 286.197V281.459C373.117 279.933 371.879 278.695 370.353 278.695C368.826 278.695 367.589 279.933 367.589 281.459V286.197C367.589 287.724 368.826 288.961 370.353 288.961C371.879 288.961 373.117 287.724 373.117 286.197Z" fill="#FD3E72"/>
<path d="M381.595 286.197V281.459C381.595 279.933 380.358 278.695 378.831 278.695C377.305 278.695 376.067 279.933 376.067 281.459V286.197C376.067 287.724 377.305 288.961 378.831 288.961C380.358 288.961 381.595 287.724 381.595 286.197Z" fill="#FD3E72"/>
<path d="M364.648 286.759V280.898C364.648 279.681 363.661 278.695 362.445 278.695C361.228 278.695 360.242 279.681 360.242 280.898V286.759C360.242 287.975 361.228 288.961 362.445 288.961C363.661 288.961 364.648 287.975 364.648 286.759Z" fill="#FD3E72"/>
<path d="M424.134 278.484H396.201C394.544 278.484 393.201 279.827 393.201 281.484V285.75C393.201 287.407 394.544 288.75 396.201 288.75H424.134C425.791 288.75 427.134 287.407 427.134 285.75V281.484C427.134 279.827 425.791 278.484 424.134 278.484Z" fill="url(#paint8_linear)"/>
<rect x="433.401" y="280.935" width="15.1977" height="5.39273" rx="2.69637" fill="#FD3E72"/>
<path d="M420.894 285.966C422.322 285.966 423.48 284.808 423.48 283.38C423.48 281.952 422.322 280.794 420.894 280.794C419.466 280.794 418.308 281.952 418.308 283.38C418.308 284.808 419.466 285.966 420.894 285.966Z" fill="white"/>
<path d="M447.388 301.488H360.588C357.827 301.488 355.588 303.727 355.588 306.488V317.454C355.588 320.215 357.827 322.454 360.588 322.454H447.388C450.15 322.454 452.388 320.215 452.388 317.454V306.488C452.388 303.727 450.15 301.488 447.388 301.488Z" fill="white"/>
<path d="M373.117 314.34V309.602C373.117 308.075 371.879 306.838 370.353 306.838C368.826 306.838 367.589 308.075 367.589 309.602V314.34C367.589 315.866 368.826 317.104 370.353 317.104C371.879 317.104 373.117 315.866 373.117 314.34Z" fill="#FD3E72"/>
<path d="M381.595 314.34V309.602C381.595 308.075 380.358 306.838 378.831 306.838C377.305 306.838 376.067 308.075 376.067 309.602V314.34C376.067 315.866 377.305 317.104 378.831 317.104C380.358 317.104 381.595 315.866 381.595 314.34Z" fill="#FD3E72"/>
<path d="M390.072 314.34V309.602C390.072 308.075 388.835 306.838 387.308 306.838C385.782 306.838 384.544 308.075 384.544 309.602V314.34C384.544 315.866 385.782 317.104 387.308 317.104C388.835 317.104 390.072 315.866 390.072 314.34Z" fill="#FD3E72"/>
<path d="M364.648 314.901V309.041C364.648 307.824 363.661 306.838 362.445 306.838C361.228 306.838 360.242 307.824 360.242 309.041V314.901C360.242 316.118 361.228 317.104 362.445 317.104C363.661 317.104 364.648 316.118 364.648 314.901Z" fill="#FD3E72"/>
<path d="M423.948 306.838H396.014C394.357 306.838 393.014 308.181 393.014 309.838V314.104C393.014 315.761 394.357 317.104 396.014 317.104H423.948C425.605 317.104 426.948 315.761 426.948 314.104V309.838C426.948 308.181 425.605 306.838 423.948 306.838Z" fill="url(#paint9_linear)"/>
<path d="M435.991 314.108C437.419 314.108 438.577 312.95 438.577 311.522C438.577 310.094 437.419 308.936 435.991 308.936C434.563 308.936 433.405 310.094 433.405 311.522C433.405 312.95 434.563 314.108 435.991 314.108Z" fill="#FD3E72"/>
<path d="M448.711 311.522C448.711 311.008 448.559 310.507 448.273 310.08C447.988 309.653 447.582 309.321 447.108 309.125C446.634 308.929 446.112 308.878 445.608 308.978C445.105 309.079 444.643 309.327 444.281 309.69C443.918 310.054 443.672 310.517 443.573 311.02C443.473 311.524 443.526 312.046 443.723 312.519C443.921 312.993 444.254 313.398 444.682 313.682C445.11 313.966 445.612 314.117 446.125 314.115C446.812 314.113 447.469 313.839 447.954 313.353C448.439 312.867 448.711 312.208 448.711 311.522V311.522Z" stroke="#FD3E72" stroke-miterlimit="10"/>
<path d="M420.894 314.108C422.322 314.108 423.48 312.95 423.48 311.522C423.48 310.094 422.322 308.936 420.894 308.936C419.466 308.936 418.308 310.094 418.308 311.522C418.308 312.95 419.466 314.108 420.894 314.108Z" fill="white"/>
</g>
<path d="M129.31 95.3621V165.724C129.31 176.77 138.265 185.724 149.31 185.724H175.542" stroke="white" stroke-width="2" stroke-linecap="round" stroke-dasharray="8 12"/>
<path d="M72.5715 298.151V265.615C72.5715 254.569 81.5258 245.615 92.5715 245.615H153.477" stroke="white" stroke-width="2" stroke-linecap="round" stroke-dasharray="8 12"/>
<path d="M459.237 223.55V144.782C459.237 133.736 450.282 124.782 439.237 124.782H384.636" stroke="white" stroke-width="2" stroke-linecap="round" stroke-dasharray="8 12"/>
<path d="M267.5 517.751C415.236 517.751 535 480.309 535 434.121C535 387.934 415.236 350.491 267.5 350.491C119.764 350.491 0 387.934 0 434.121C0 480.309 119.764 517.751 267.5 517.751Z" fill="#FF95B2"/>
<path d="M270.188 499.266C404.792 499.266 513.91 466.125 513.91 425.243C513.91 384.362 404.792 351.221 270.188 351.221C135.584 351.221 26.4661 384.362 26.4661 425.243C26.4661 466.125 135.584 499.266 270.188 499.266Z" fill="#F33166"/>
<path d="M270.188 469.932C390.203 469.932 487.494 441.827 487.494 407.159C487.494 372.491 390.203 344.387 270.188 344.387C150.174 344.387 52.8829 372.491 52.8829 407.159C52.8829 441.827 150.174 469.932 270.188 469.932Z" fill="white"/>
<path d="M270.187 460.272C379.644 460.272 468.377 435.563 468.377 405.083C468.377 374.603 379.644 349.894 270.187 349.894C160.73 349.894 71.9969 374.603 71.9969 405.083C71.9969 435.563 160.73 460.272 270.187 460.272Z" fill="#FD3E72"/>
<path d="M270.188 460.257C407.226 460.257 458.186 428.966 465.756 414.045C465.756 388.522 378.197 367.832 270.188 367.832C162.178 367.832 74.6196 388.522 74.6196 414.045C84.1295 429.491 134.039 458.911 270.188 460.257Z" fill="url(#paint10_linear)"/>
<path d="M83.5813 452.21C83.7639 453.578 83.5239 454.97 82.8935 456.198C82.263 457.426 81.2723 458.432 80.054 459.081C78.8357 459.73 77.4481 459.991 76.0773 459.829C74.7064 459.667 73.4177 459.09 72.384 458.176C71.3503 457.261 70.6209 456.052 70.2937 454.711C69.9665 453.37 70.057 451.961 70.5531 450.672C71.0492 449.384 71.9273 448.279 73.0696 447.504C74.2118 446.728 75.5637 446.321 76.944 446.336C78.5996 446.249 80.2229 446.816 81.4644 447.915C82.7059 449.014 83.4661 450.556 83.5813 452.21Z" fill="#FAFAFA"/>
<path d="M173.434 483.721C177.136 483.721 180.137 481.091 180.137 477.847C180.137 474.603 177.136 471.973 173.434 471.973C169.731 471.973 166.73 474.603 166.73 477.847C166.73 481.091 169.731 483.721 173.434 483.721Z" fill="#FAFAFA"/>
<path d="M295.079 482.044C295.261 483.412 295.022 484.803 294.391 486.031C293.761 487.259 292.77 488.265 291.552 488.914C290.333 489.564 288.946 489.825 287.575 489.663C286.204 489.501 284.915 488.924 283.882 488.009C282.848 487.094 282.118 485.885 281.791 484.544C281.464 483.203 281.555 481.794 282.051 480.506C282.547 479.218 283.425 478.112 284.567 477.337C285.709 476.562 287.061 476.155 288.442 476.17C290.097 476.083 291.721 476.65 292.962 477.749C294.203 478.848 294.964 480.39 295.079 482.044Z" fill="#FAFAFA"/>
<path d="M402.354 477.846C406.057 477.846 409.058 475.216 409.058 471.972C409.058 468.728 406.057 466.098 402.354 466.098C398.652 466.098 395.651 468.728 395.651 471.972C395.651 475.216 398.652 477.846 402.354 477.846Z" fill="#FAFAFA"/>
<path d="M476.144 451.015C479.846 451.015 482.848 448.385 482.848 445.141C482.848 441.897 479.846 439.267 476.144 439.267C472.442 439.267 469.44 441.897 469.44 445.141C469.44 448.385 472.442 451.015 476.144 451.015Z" fill="#FAFAFA"/>
<path d="M506.178 412.816C505.067 414.94 501.2 415.106 497.517 413.198C493.833 411.29 491.759 408.004 492.87 405.88C493.982 403.756 497.848 403.59 501.532 405.499C505.216 407.407 507.29 410.692 506.178 412.816Z" fill="#FAFAFA"/>
<path d="M34.2 412.816C35.3118 414.94 39.178 415.106 42.8617 413.198C46.5454 411.29 48.6196 408.004 47.5078 405.88C46.3961 403.756 42.5298 403.59 38.8461 405.499C35.1624 407.407 33.0883 410.692 34.2 412.816Z" fill="#FAFAFA"/>
<g filter="url(#filter2_d)">
<path d="M376.382 235.108H368.723C367.066 235.108 365.723 236.451 365.723 238.108V253.122C365.723 254.779 367.066 256.122 368.723 256.122H376.382C378.039 256.122 379.382 254.779 379.382 253.122V238.108C379.382 236.451 378.039 235.108 376.382 235.108Z" fill="#5B5863"/>
<path d="M355.723 91.1592H184.491C178.969 91.1592 174.491 95.6363 174.491 101.159V114.782C174.491 120.305 178.969 124.782 184.491 124.782H355.723C361.245 124.782 365.723 120.305 365.723 114.782V101.159C365.723 95.6363 361.245 91.1592 355.723 91.1592Z" fill="#5B5863"/>
<path d="M376.382 358.042H368.723C367.066 358.042 365.723 359.385 365.723 361.042V376.057C365.723 377.714 367.066 379.057 368.723 379.057H376.382C378.039 379.057 379.382 377.714 379.382 376.057V361.042C379.382 359.385 378.039 358.042 376.382 358.042Z" fill="#5B5863"/>
<path d="M173.593 358.042H163.832C162.175 358.042 160.832 359.385 160.832 361.042V376.057C160.832 377.714 162.175 379.057 163.832 379.057H173.593C175.25 379.057 176.593 377.714 176.593 376.057V361.042C176.593 359.385 175.25 358.042 173.593 358.042Z" fill="#5B5863"/>
<path d="M173.593 114.275H163.832C162.175 114.275 160.832 115.618 160.832 117.275V132.29C160.832 133.946 162.175 135.29 163.832 135.29H173.593C175.25 135.29 176.593 133.946 176.593 132.29V117.275C176.593 115.618 175.25 114.275 173.593 114.275Z" fill="#5B5863"/>
<path d="M173.593 297.101H163.832C162.175 297.101 160.832 298.444 160.832 300.101V315.115C160.832 316.772 162.175 318.115 163.832 318.115H173.593C175.25 318.115 176.593 316.772 176.593 315.115V300.101C176.593 298.444 175.25 297.101 173.593 297.101Z" fill="#5B5863"/>
<path d="M173.593 235.108H163.832C162.175 235.108 160.832 236.451 160.832 238.108V253.122C160.832 254.779 162.175 256.122 163.832 256.122H173.593C175.25 256.122 176.593 254.779 176.593 253.122V238.108C176.593 236.451 175.25 235.108 173.593 235.108Z" fill="#5B5863"/>
<path d="M376.382 114.275H368.723C367.066 114.275 365.723 115.618 365.723 117.275V132.29C365.723 133.946 367.066 135.29 368.723 135.29H376.382C378.039 135.29 379.382 133.946 379.382 132.29V117.275C379.382 115.618 378.039 114.275 376.382 114.275Z" fill="#5B5863"/>
<path d="M376.382 297.101H368.723C367.066 297.101 365.723 298.444 365.723 300.101V315.115C365.723 316.772 367.066 318.115 368.723 318.115H376.382C378.039 318.115 379.382 316.772 379.382 315.115V300.101C379.382 298.444 378.039 297.101 376.382 297.101Z" fill="#5B5863"/>
<path d="M173.593 174.166H163.832C162.175 174.166 160.832 175.509 160.832 177.166V192.181C160.832 193.838 162.175 195.181 163.832 195.181H173.593C175.25 195.181 176.593 193.838 176.593 192.181V177.166C176.593 175.509 175.25 174.166 173.593 174.166Z" fill="#5B5863"/>
<path d="M376.382 174.166H368.723C367.066 174.166 365.723 175.509 365.723 177.166V192.181C365.723 193.838 367.066 195.181 368.723 195.181H376.382C378.039 195.181 379.382 193.838 379.382 192.181V177.166C379.382 175.509 378.039 174.166 376.382 174.166Z" fill="#5B5863"/>
<path d="M368.845 103.003H171.379C168.618 103.003 166.379 105.242 166.379 108.003V142.938C166.379 145.699 168.618 147.938 171.379 147.938H368.845C371.606 147.938 373.845 145.699 373.845 142.938V108.003C373.845 105.242 371.606 103.003 368.845 103.003Z" fill="white"/>
<path d="M219.118 114.469H213.27C211.613 114.469 210.27 115.812 210.27 117.469V133.472C210.27 135.129 211.613 136.472 213.27 136.472H219.118C220.775 136.472 222.118 135.129 222.118 133.472V117.469C222.118 115.812 220.775 114.469 219.118 114.469Z" fill="#FD3E72"/>
<path d="M200.947 114.469H195.099C193.442 114.469 192.099 115.812 192.099 117.469V133.472C192.099 135.129 193.442 136.472 195.099 136.472H200.947C202.604 136.472 203.947 135.129 203.947 133.472V117.469C203.947 115.812 202.604 114.469 200.947 114.469Z" fill="#FD3E72"/>
<path d="M182.795 114.469H179.354C177.697 114.469 176.354 115.812 176.354 117.469V133.472C176.354 135.129 177.697 136.472 179.354 136.472H182.795C184.452 136.472 185.795 135.129 185.795 133.472V117.469C185.795 115.812 184.452 114.469 182.795 114.469Z" fill="#FD3E72"/>
<path d="M237.287 114.469H231.439C229.783 114.469 228.439 115.812 228.439 117.469V133.472C228.439 135.129 229.783 136.472 231.439 136.472H237.287C238.944 136.472 240.287 135.129 240.287 133.472V117.469C240.287 115.812 238.944 114.469 237.287 114.469Z" fill="#FD3E72"/>
<path d="M316.719 114.275H249.991C248.334 114.275 246.991 115.618 246.991 117.275V133.278C246.991 134.935 248.334 136.278 249.991 136.278H316.719C318.376 136.278 319.719 134.935 319.719 133.278V117.275C319.719 115.618 318.376 114.275 316.719 114.275Z" fill="url(#paint11_linear)"/>
<path d="M338.703 130.051C341.764 130.051 344.245 127.569 344.245 124.508C344.245 121.448 341.764 118.966 338.703 118.966C335.642 118.966 333.161 121.448 333.161 124.508C333.161 127.569 335.642 130.051 338.703 130.051Z" fill="white" stroke="#FD3E72" stroke-miterlimit="10"/>
<path d="M365.965 124.542C365.965 123.442 365.638 122.366 365.027 121.452C364.415 120.537 363.546 119.825 362.529 119.404C361.512 118.984 360.394 118.875 359.315 119.091C358.236 119.307 357.246 119.838 356.469 120.617C355.693 121.396 355.164 122.388 354.952 123.467C354.739 124.547 354.852 125.665 355.275 126.68C355.698 127.696 356.413 128.563 357.33 129.172C358.246 129.78 359.322 130.104 360.422 130.1C361.894 130.096 363.303 129.508 364.342 128.466C365.381 127.424 365.965 126.013 365.965 124.542Z" fill="#FD3E72"/>
<path d="M306.345 130.051C309.406 130.051 311.887 127.569 311.887 124.508C311.887 121.448 309.406 118.966 306.345 118.966C303.284 118.966 300.803 121.448 300.803 124.508C300.803 127.569 303.284 130.051 306.345 130.051Z" fill="white"/>
<path d="M365.965 147.938H174.246V163.32H365.965V147.938Z" fill="#5B5863"/>
<path d="M368.845 163.337H171.379C168.618 163.337 166.379 165.575 166.379 168.337V203.271C166.379 206.033 168.618 208.271 171.379 208.271H368.845C371.606 208.271 373.845 206.033 373.845 203.271V168.337C373.845 165.575 371.606 163.337 368.845 163.337Z" fill="white"/>
<rect x="333.15" y="180.47" width="32.5723" height="11.5579" rx="5.77896" fill="#FD3E72"/>
<path d="M200.947 174.803H195.099C193.442 174.803 192.099 176.147 192.099 177.803V193.806C192.099 195.463 193.442 196.806 195.099 196.806H200.947C202.604 196.806 203.947 195.463 203.947 193.806V177.803C203.947 176.147 202.604 174.803 200.947 174.803Z" fill="#FD3E72"/>
<path d="M237.287 174.803H231.439C229.783 174.803 228.439 176.147 228.439 177.803V193.806C228.439 195.463 229.783 196.806 231.439 196.806H237.287C238.944 196.806 240.287 195.463 240.287 193.806V177.803C240.287 176.147 238.944 174.803 237.287 174.803Z" fill="#FD3E72"/>
<path d="M219.118 174.803H213.27C211.613 174.803 210.27 176.147 210.27 177.803V193.806C210.27 195.463 211.613 196.806 213.27 196.806H219.118C220.775 196.806 222.118 195.463 222.118 193.806V177.803C222.118 176.147 220.775 174.803 219.118 174.803Z" fill="#FD3E72"/>
<path d="M182.795 174.803H179.354C177.697 174.803 176.354 176.147 176.354 177.803V193.806C176.354 195.463 177.697 196.806 179.354 196.806H182.795C184.452 196.806 185.795 195.463 185.795 193.806V177.803C185.795 176.147 184.452 174.803 182.795 174.803Z" fill="#FD3E72"/>
<path d="M316.719 175.217H249.991C248.334 175.217 246.991 176.56 246.991 178.217V194.219C246.991 195.876 248.334 197.219 249.991 197.219H316.719C318.376 197.219 319.719 195.876 319.719 194.219V178.217C319.719 176.56 318.376 175.217 316.719 175.217Z" fill="url(#paint12_linear)"/>
<path d="M306.345 190.385C309.406 190.385 311.887 187.904 311.887 184.843C311.887 181.782 309.406 179.301 306.345 179.301C303.284 179.301 300.803 181.782 300.803 184.843C300.803 187.904 303.284 190.385 306.345 190.385Z" fill="white"/>
<path d="M365.965 208.271H174.246V223.653H365.965V208.271Z" fill="#5B5863"/>
<path d="M365.723 323.368H174.491V362.245H365.723V323.368Z" fill="#5B5863"/>
<path d="M368.845 223.654H171.379C168.618 223.654 166.379 225.892 166.379 228.654V263.588C166.379 266.35 168.618 268.588 171.379 268.588H368.845C371.606 268.588 373.845 266.35 373.845 263.588V228.654C373.845 225.892 371.606 223.654 368.845 223.654Z" fill="white"/>
<path d="M219.118 235.118H213.27C211.613 235.118 210.27 236.461 210.27 238.118V254.121C210.27 255.778 211.613 257.121 213.27 257.121H219.118C220.775 257.121 222.118 255.778 222.118 254.121V238.118C222.118 236.461 220.775 235.118 219.118 235.118Z" fill="#FD3E72"/>
<path d="M237.287 235.118H231.439C229.783 235.118 228.439 236.461 228.439 238.118V254.121C228.439 255.778 229.783 257.121 231.439 257.121H237.287C238.944 257.121 240.287 255.778 240.287 254.121V238.118C240.287 236.461 238.944 235.118 237.287 235.118Z" fill="#FD3E72"/>
<path d="M200.947 235.118H195.099C193.442 235.118 192.099 236.461 192.099 238.118V254.121C192.099 255.778 193.442 257.121 195.099 257.121H200.947C202.604 257.121 203.947 255.778 203.947 254.121V238.118C203.947 236.461 202.604 235.118 200.947 235.118Z" fill="#FD3E72"/>
<path d="M316.719 235.108H249.991C248.334 235.108 246.991 236.451 246.991 238.108V254.111C246.991 255.767 248.334 257.111 249.991 257.111H316.719C318.376 257.111 319.719 255.767 319.719 254.111V238.108C319.719 236.451 318.376 235.108 316.719 235.108Z" fill="url(#paint13_linear)"/>
<path d="M182.795 235.118H179.354C177.697 235.118 176.354 236.461 176.354 238.118V254.121C176.354 255.778 177.697 257.121 179.354 257.121H182.795C184.452 257.121 185.795 255.778 185.795 254.121V238.118C185.795 236.461 184.452 235.118 182.795 235.118Z" fill="#FD3E72"/>
<path d="M338.703 250.7C341.764 250.7 344.245 248.218 344.245 245.158C344.245 242.097 341.764 239.615 338.703 239.615C335.642 239.615 333.161 242.097 333.161 245.158C333.161 248.218 335.642 250.7 338.703 250.7Z" fill="white" stroke="#FD3E72" stroke-miterlimit="10"/>
<path d="M365.965 245.158C365.965 244.058 365.638 242.982 365.027 242.068C364.415 241.153 363.546 240.441 362.529 240.021C361.512 239.6 360.394 239.491 359.315 239.707C358.236 239.923 357.246 240.454 356.469 241.233C355.693 242.012 355.164 243.004 354.952 244.084C354.739 245.163 354.852 246.281 355.275 247.297C355.698 248.312 356.413 249.179 357.33 249.788C358.246 250.397 359.322 250.72 360.422 250.717C361.894 250.712 363.303 250.125 364.342 249.083C365.381 248.041 365.965 246.629 365.965 245.158Z" fill="#FD3E72"/>
<path d="M306.345 250.7C309.406 250.7 311.887 248.218 311.887 245.158C311.887 242.097 309.406 239.615 306.345 239.615C303.284 239.615 300.803 242.097 300.803 245.158C300.803 248.218 303.284 250.7 306.345 250.7Z" fill="white"/>
<path d="M365.965 268.587H174.246V283.969H365.965V268.587Z" fill="#5B5863"/>
<path d="M368.845 283.986H171.379C168.618 283.986 166.379 286.224 166.379 288.986V323.92C166.379 326.682 168.618 328.92 171.379 328.92H368.845C371.606 328.92 373.845 326.682 373.845 323.92V288.986C373.845 286.224 371.606 283.986 368.845 283.986Z" fill="white"/>
<path d="M237.287 295.453H231.439C229.783 295.453 228.439 296.796 228.439 298.453V314.455C228.439 316.112 229.783 317.455 231.439 317.455H237.287C238.944 317.455 240.287 316.112 240.287 314.455V298.453C240.287 296.796 238.944 295.453 237.287 295.453Z" fill="#FD3E72"/>
<path d="M200.947 295.453H195.099C193.442 295.453 192.099 296.796 192.099 298.453V314.455C192.099 316.112 193.442 317.455 195.099 317.455H200.947C202.604 317.455 203.947 316.112 203.947 314.455V298.453C203.947 296.796 202.604 295.453 200.947 295.453Z" fill="#FD3E72"/>
<path d="M219.118 295.453H213.27C211.613 295.453 210.27 296.796 210.27 298.453V314.455C210.27 316.112 211.613 317.455 213.27 317.455H219.118C220.775 317.455 222.118 316.112 222.118 314.455V298.453C222.118 296.796 220.775 295.453 219.118 295.453Z" fill="#FD3E72"/>
<path d="M182.795 295.453H179.354C177.697 295.453 176.354 296.796 176.354 298.453V314.455C176.354 316.112 177.697 317.455 179.354 317.455H182.795C184.452 317.455 185.795 316.112 185.795 314.455V298.453C185.795 296.796 184.452 295.453 182.795 295.453Z" fill="#FD3E72"/>
<path d="M316.719 294.999H249.991C248.334 294.999 246.991 296.342 246.991 297.999V314.002C246.991 315.659 248.334 317.002 249.991 317.002H316.719C318.376 317.002 319.719 315.659 319.719 314.002V297.999C319.719 296.342 318.376 294.999 316.719 294.999Z" fill="url(#paint14_linear)"/>
<rect x="333.15" y="300.253" width="32.5723" height="11.5579" rx="5.77896" fill="#FD3E72"/>
<path d="M306.345 311.034C309.406 311.034 311.887 308.553 311.887 305.492C311.887 302.431 309.406 299.95 306.345 299.95C303.284 299.95 300.803 302.431 300.803 305.492C300.803 308.553 303.284 311.034 306.345 311.034Z" fill="white"/>
<path d="M368.845 344.303H171.379C168.618 344.303 166.379 346.542 166.379 349.303V384.238C166.379 386.999 168.618 389.238 171.379 389.238H368.845C371.606 389.238 373.845 386.999 373.845 384.238V349.303C373.845 346.542 371.606 344.303 368.845 344.303Z" fill="white"/>
<path d="M200.947 355.769H195.099C193.442 355.769 192.099 357.112 192.099 358.769V374.771C192.099 376.428 193.442 377.771 195.099 377.771H200.947C202.604 377.771 203.947 376.428 203.947 374.771V358.769C203.947 357.112 202.604 355.769 200.947 355.769Z" fill="#FD3E72"/>
<path d="M219.118 355.769H213.27C211.613 355.769 210.27 357.112 210.27 358.769V374.771C210.27 376.428 211.613 377.771 213.27 377.771H219.118C220.775 377.771 222.118 376.428 222.118 374.771V358.769C222.118 357.112 220.775 355.769 219.118 355.769Z" fill="#FD3E72"/>
<path d="M237.287 355.769H231.439C229.783 355.769 228.439 357.112 228.439 358.769V374.771C228.439 376.428 229.783 377.771 231.439 377.771H237.287C238.944 377.771 240.287 376.428 240.287 374.771V358.769C240.287 357.112 238.944 355.769 237.287 355.769Z" fill="#FD3E72"/>
<path d="M182.795 355.769H179.354C177.697 355.769 176.354 357.112 176.354 358.769V374.771C176.354 376.428 177.697 377.771 179.354 377.771H182.795C184.452 377.771 185.795 376.428 185.795 374.771V358.769C185.795 357.112 184.452 355.769 182.795 355.769Z" fill="#FD3E72"/>
<path d="M316.321 355.769H249.593C247.936 355.769 246.593 357.112 246.593 358.769V374.771C246.593 376.428 247.936 377.771 249.593 377.771H316.321C317.978 377.771 319.321 376.428 319.321 374.771V358.769C319.321 357.112 317.978 355.769 316.321 355.769Z" fill="url(#paint15_linear)"/>
<path d="M338.703 371.349C341.764 371.349 344.245 368.868 344.245 365.807C344.245 362.746 341.764 360.265 338.703 360.265C335.642 360.265 333.161 362.746 333.161 365.807C333.161 368.868 335.642 371.349 338.703 371.349Z" fill="#FD3E72"/>
<path d="M365.965 365.807C365.965 364.707 365.638 363.632 365.027 362.717C364.415 361.803 363.546 361.09 362.529 360.67C361.512 360.25 360.394 360.14 359.315 360.356C358.236 360.572 357.246 361.103 356.469 361.882C355.693 362.661 355.164 363.653 354.952 364.733C354.739 365.812 354.852 366.93 355.275 367.946C355.698 368.961 356.413 369.828 357.33 370.437C358.246 371.046 359.322 371.369 360.422 371.366C361.894 371.361 363.303 370.774 364.342 369.732C365.381 368.69 365.965 367.278 365.965 365.807V365.807Z" stroke="#FD3E72" stroke-miterlimit="10"/>
<path d="M306.345 371.349C309.406 371.349 311.887 368.868 311.887 365.807C311.887 362.746 309.406 360.265 306.345 360.265C303.284 360.265 300.803 362.746 300.803 365.807C300.803 368.868 303.284 371.349 306.345 371.349Z" fill="white"/>
</g>
<g filter="url(#filter3_d)">
<rect x="405.65" y="228.803" width="109.275" height="109.275" rx="15" fill="white"/>
</g>
<g filter="url(#filter4_d)">
<path d="M492.235 263.993C492.235 263.993 487.499 301.903 479.717 310.433C470.361 320.667 463.586 319.17 459.825 324.448C456.053 319.163 449.272 320.667 439.923 310.427C432.141 301.897 427.415 263.986 427.415 263.986C442.153 248.598 459.825 242.874 459.825 242.874C460.18 243.232 477.353 249.17 492.235 263.993Z" fill="#F4285F"/>
</g>
<mask id="mask0" mask-type="alpha" maskUnits="userSpaceOnUse" x="459" y="242" width="34" height="83">
<rect x="459.749" y="242.159" width="32.4816" height="82.5633" fill="#C4C4C4"/>
</mask>
<g mask="url(#mask0)">
<path d="M492.23 263.993C492.23 263.993 487.494 301.904 479.713 310.434C470.357 320.667 463.582 319.17 459.82 324.448C456.049 319.164 449.268 320.667 439.918 310.427C432.137 301.897 427.41 263.987 427.41 263.987C442.149 248.598 459.82 242.875 459.82 242.875C460.175 243.233 477.349 249.17 492.23 263.993Z" fill="#E61850"/>
</g>
<path d="M487.204 267.049C487.204 267.049 483.203 299.072 476.632 306.282C468.734 314.938 463.001 313.667 459.814 318.125C456.626 313.667 450.897 314.938 442.996 306.282C436.424 299.072 432.433 267.049 432.433 267.049C446.732 252.104 459.814 249.215 459.814 249.215C459.814 249.215 474.491 253.535 487.204 267.049Z" fill="#FD3E72"/>
<mask id="mask1" mask-type="alpha" maskUnits="userSpaceOnUse" x="459" y="248" width="29" height="74">
<rect x="459.749" y="248.025" width="27.4734" height="73.6917" fill="#C4C4C4"/>
</mask>
<g mask="url(#mask1)">
<path d="M487.201 267.049C487.201 267.049 483.2 299.072 476.628 306.282C468.731 314.938 462.998 313.667 459.81 318.126C456.623 313.667 450.893 314.938 442.993 306.282C436.421 299.072 432.43 267.049 432.43 267.049C446.728 252.104 459.81 249.215 459.81 249.215C459.81 249.215 474.488 253.535 487.201 267.049Z" fill="#F5356A"/>
</g>
<rect x="444.747" y="268.361" width="30.3244" height="30.3244" rx="15.1622" fill="white"/>
<path d="M459.199 283.848H456.7C456.587 283.848 456.501 283.948 456.521 284.058C456.525 284.082 456.528 284.106 456.531 284.13C456.549 284.226 456.576 284.319 456.614 284.412C456.673 284.553 456.766 284.677 456.893 284.787C457.017 284.897 457.192 284.948 457.416 284.948C457.64 284.948 457.812 284.893 457.939 284.787C458.039 284.701 458.115 284.604 458.173 284.501C458.204 284.446 458.266 284.412 458.328 284.412H459.027C459.154 284.412 459.24 284.539 459.199 284.656C459.168 284.745 459.13 284.831 459.086 284.907C459.006 285.048 458.92 285.172 458.824 285.275C458.728 285.378 458.628 285.464 458.518 285.533C458.407 285.601 458.304 285.656 458.201 285.701C457.95 285.797 457.688 285.849 457.409 285.849C457.044 285.842 456.721 285.766 456.439 285.622C456.318 285.557 456.201 285.474 456.084 285.374C455.967 285.275 455.864 285.148 455.774 284.996C455.685 284.845 455.612 284.663 455.557 284.45C455.502 284.237 455.475 283.992 455.475 283.707C455.475 283.425 455.502 283.178 455.557 282.965C455.612 282.751 455.685 282.569 455.774 282.415C455.864 282.26 455.967 282.133 456.084 282.029C456.201 281.926 456.318 281.844 456.439 281.779C456.717 281.627 457.037 281.548 457.399 281.534C457.406 281.534 457.413 281.534 457.42 281.534C457.716 281.548 457.991 281.61 458.249 281.72C458.359 281.768 458.469 281.834 458.58 281.913C458.69 281.992 458.793 282.088 458.889 282.205C458.986 282.322 459.068 282.459 459.141 282.621C459.213 282.782 459.268 282.968 459.299 283.178C459.309 283.26 459.32 283.343 459.327 283.429C459.333 283.515 459.34 283.607 459.34 283.707C459.344 283.7 459.364 283.848 459.199 283.848ZM458.008 283.171C458.139 283.171 458.232 283.033 458.173 282.916C458.173 282.916 458.173 282.913 458.17 282.913C458.129 282.827 458.074 282.748 458.001 282.676C457.929 282.607 457.846 282.549 457.75 282.507C457.654 282.466 457.537 282.445 457.409 282.445C457.278 282.445 457.165 282.466 457.068 282.507C456.972 282.549 456.886 282.604 456.817 282.676C456.745 282.748 456.69 282.824 456.645 282.913V282.916C456.587 283.037 456.68 283.174 456.81 283.174H458.008V283.171Z" fill="#A12B52"/>
<path d="M454.975 279.799C454.425 279.799 453.981 280.243 453.981 280.793V283.67C453.981 283.791 453.974 283.911 453.96 284.038C453.946 284.162 453.912 284.275 453.857 284.378C453.802 284.482 453.719 284.568 453.609 284.636C453.499 284.705 453.34 284.739 453.141 284.739C452.941 284.739 452.783 284.705 452.673 284.636C452.562 284.568 452.48 284.482 452.425 284.378C452.37 284.275 452.335 284.162 452.321 284.038C452.308 283.914 452.301 283.791 452.301 283.67V280.703C451.75 280.703 451.306 281.147 451.306 281.697V283.667C451.306 283.787 451.299 283.908 451.285 284.035C451.272 284.158 451.237 284.272 451.182 284.375C451.127 284.478 451.044 284.564 450.934 284.633C450.824 284.702 450.666 284.736 450.466 284.736C450.266 284.736 450.108 284.702 449.998 284.633C449.888 284.564 449.805 284.478 449.75 284.375C449.695 284.272 449.661 284.158 449.647 284.035C449.633 283.911 449.626 283.787 449.626 283.667V281.608C449.076 281.608 448.631 282.055 448.631 282.601V283.667C448.631 283.949 448.659 284.196 448.714 284.409C448.769 284.623 448.838 284.805 448.921 284.959C449.007 285.114 449.103 285.241 449.213 285.345C449.323 285.448 449.437 285.53 449.551 285.595C449.816 285.747 450.122 285.829 450.463 285.84C450.81 285.829 451.117 285.747 451.385 285.595C451.499 285.53 451.612 285.448 451.719 285.345C451.747 285.317 451.774 285.29 451.802 285.259C451.829 285.29 451.857 285.317 451.884 285.345C451.994 285.448 452.108 285.53 452.222 285.595C452.487 285.747 452.793 285.829 453.134 285.84C453.481 285.829 453.788 285.747 454.056 285.595C454.17 285.53 454.283 285.448 454.39 285.345C454.5 285.241 454.597 285.114 454.683 284.959C454.769 284.805 454.838 284.623 454.889 284.409C454.941 284.196 454.965 283.952 454.965 283.667L454.975 279.799Z" fill="#A12B52"/>
<path d="M462.356 285.587C462.328 285.667 462.256 285.722 462.17 285.722H461.647H461.123C461.041 285.722 460.965 285.667 460.937 285.587L459.722 281.864C459.681 281.737 459.774 281.61 459.908 281.61H460.497C460.58 281.61 460.655 281.665 460.683 281.744L461.461 284.119C461.519 284.298 461.77 284.298 461.829 284.119L462.276 282.751L463.027 280.455C463.192 279.956 463.729 279.681 464.228 279.846L462.356 285.587Z" fill="#EF4273"/>
<path d="M467.153 282.388C467.064 282.233 466.961 282.106 466.844 282.003C466.727 281.899 466.61 281.817 466.489 281.752C466.207 281.6 465.887 281.518 465.532 281.508C465.191 281.508 464.902 281.559 464.665 281.659C464.427 281.759 464.231 281.903 464.076 282.089C463.921 282.274 463.811 282.501 463.739 282.769C463.67 283.037 463.632 283.34 463.632 283.68V286.843C463.632 286.977 463.739 287.084 463.873 287.084H464.355C464.489 287.084 464.596 286.977 464.596 286.843V285.251C464.648 285.324 464.706 285.385 464.768 285.44C464.909 285.561 465.047 285.647 465.181 285.698C465.333 285.757 465.488 285.791 465.649 285.801C465.663 285.801 465.673 285.801 465.687 285.801C466.014 285.795 466.307 285.719 466.561 285.575C466.675 285.509 466.785 285.427 466.892 285.327C466.999 285.227 467.092 285.1 467.178 284.949C467.26 284.798 467.329 284.615 467.381 284.406C467.432 284.196 467.456 283.948 467.456 283.667C467.456 283.385 467.429 283.141 467.37 282.927C467.315 282.721 467.243 282.539 467.153 282.388ZM466.427 284.062C466.407 284.203 466.362 284.333 466.296 284.454C466.231 284.574 466.138 284.677 466.018 284.756C465.897 284.839 465.735 284.877 465.536 284.877C465.336 284.877 465.174 284.835 465.054 284.756C464.933 284.674 464.837 284.574 464.768 284.454C464.699 284.333 464.655 284.203 464.634 284.062C464.613 283.921 464.603 283.79 464.603 283.673C464.603 283.529 464.613 283.385 464.63 283.24C464.651 283.096 464.689 282.969 464.751 282.852C464.813 282.735 464.906 282.642 465.03 282.573C465.154 282.505 465.322 282.467 465.532 282.467C465.732 282.467 465.894 282.508 466.014 282.587C466.135 282.67 466.231 282.769 466.293 282.89C466.358 283.01 466.4 283.144 466.424 283.281C466.444 283.422 466.455 283.553 466.455 283.67C466.458 283.79 466.448 283.921 466.427 284.062Z" fill="#EF4273"/>
<path d="M471.235 282.758C471.153 282.511 471.046 282.308 470.915 282.146C470.784 281.985 470.643 281.861 470.492 281.775C470.34 281.689 470.196 281.624 470.062 281.586C469.927 281.545 469.807 281.524 469.707 281.517C469.607 281.51 469.549 281.51 469.532 281.51C469.511 281.51 469.449 281.514 469.353 281.517C469.256 281.524 469.139 281.545 469.005 281.586C468.871 281.627 468.726 281.689 468.575 281.775C468.423 281.861 468.282 281.985 468.151 282.146C468.02 282.308 467.914 282.514 467.831 282.758C467.748 283.006 467.704 283.308 467.704 283.669V285.505C467.704 285.626 467.8 285.722 467.921 285.722H468.475C468.595 285.722 468.692 285.626 468.692 285.505V283.673C468.692 283.553 468.702 283.432 468.723 283.308C468.743 283.185 468.785 283.071 468.843 282.968C468.902 282.865 468.988 282.779 469.094 282.714C469.201 282.645 469.346 282.614 469.525 282.614C469.704 282.614 469.848 282.648 469.955 282.714C470.062 282.782 470.148 282.865 470.206 282.968C470.265 283.071 470.306 283.185 470.327 283.308C470.347 283.432 470.358 283.556 470.358 283.673V285.505C470.358 285.626 470.454 285.722 470.574 285.722H471.142C471.263 285.722 471.359 285.626 471.359 285.505V283.673C471.359 283.308 471.318 283.006 471.235 282.758Z" fill="#EF4273"/>
<g filter="url(#filter5_d)">
<rect x="26.3398" y="303.405" width="94.5649" height="94.5649" rx="15" fill="#FAFAFA"/>
</g>
<g filter="url(#filter6_d)">
<path d="M73.5151 384.346C93.6652 384.346 110 368.011 110 347.861C110 327.711 93.6652 311.376 73.5151 311.376C53.3651 311.376 37.0303 327.711 37.0303 347.861C37.0303 368.011 53.3651 384.346 73.5151 384.346Z" fill="#FAFAFA"/>
</g>
<path d="M58.8952 360.597C56.2542 357.796 54.4974 354.278 53.8443 350.484C53.1912 346.69 53.6707 342.787 55.223 339.264C56.7753 335.741 59.3315 332.753 62.5722 330.674C65.8129 328.596 69.5943 327.518 73.4439 327.576C77.2935 327.635 81.0406 328.826 84.2169 331.002C87.3932 333.178 89.8578 336.241 91.3028 339.81C92.7478 343.379 93.1091 347.294 92.3414 351.067C91.5738 354.839 89.7114 358.302 86.9868 361.023L96.8443 370.647C101.486 366.039 104.659 360.16 105.964 353.751C107.268 347.341 106.645 340.69 104.173 334.634C101.701 328.579 97.4905 323.391 92.0735 319.726C86.6565 316.061 80.2753 314.082 73.7349 314.04C67.1946 313.997 60.7882 315.893 55.3239 319.487C49.8596 323.081 45.5824 328.214 43.0317 334.236C40.481 340.259 39.7713 346.902 40.992 353.328C42.2127 359.753 45.3092 365.673 49.8907 370.341L58.8952 360.597Z" fill="#FD5180"/>
<path d="M40.4048 348.2H53.6111C54.0426 353.428 55.9246 357.55 58.9129 360.538L49.8517 370.371C44.8391 365.069 40.8476 358.053 40.4048 348.2Z" fill="#FF7A9E"/>
<path d="M92.7528 346.982L106.621 346.988C106.951 356.97 102.049 365.454 96.8712 370.631L86.998 360.999C89.4061 358.47 92.5052 354.576 92.7528 346.982Z" fill="#DA194E"/>
<path d="M87.3458 333.692L97.21 323.993C103.814 330.885 106.62 339.14 106.62 346.988H92.7526C92.5875 341.988 90.9366 337.572 87.3458 333.692Z" fill="#E72258"/>
<path d="M74.1867 327.629L74.3226 314.041C84.5823 314.543 91.3924 318.298 97.2189 324.028L87.3476 333.693C83.8394 330.144 79.7121 327.956 74.1867 327.629Z" fill="#EF376A"/>
<path d="M49.3032 324.52C49.5811 324.609 58.3328 334.244 58.3328 334.244C62.7041 329.735 67.7997 327.357 74.197 327.607L74.3221 314.04C64.3347 313.904 56.1138 317.573 49.3032 324.52Z" fill="#FB4678"/>
<path d="M73.8851 355.463C78.0833 355.463 81.4866 352.06 81.4866 347.862C81.4866 343.664 78.0833 340.26 73.8851 340.26C69.6869 340.26 66.2836 343.664 66.2836 347.862C66.2836 352.06 69.6869 355.463 73.8851 355.463Z" fill="#5B5863"/>
<g filter="url(#filter7_d)">
<path d="M71.648 348.37C71.8075 348.916 72.1765 349.377 72.6746 349.653C73.1727 349.928 73.7594 349.995 74.3069 349.84L100.745 342.338L73.4595 345.622C73.1487 345.66 72.8498 345.765 72.5837 345.93C72.3175 346.095 72.0903 346.315 71.918 346.577C71.7457 346.838 71.6323 347.134 71.5856 347.444C71.539 347.753 71.5603 348.069 71.648 348.37Z" fill="#FF005A"/>
</g>
<path d="M69.8241 366.848L68.371 374.224H66.4429L67.2013 370.334L64.7453 373.496H63.8285L62.4782 370.337L61.7003 374.227H59.7805L61.2557 366.85H62.9533L64.7009 371.115L68.0348 366.848H69.8241Z" fill="#3C3945"/>
<path d="M76.9267 368.52L75.7876 374.233H73.89L74.0067 373.696C73.5596 374.115 72.966 374.342 72.3536 374.327C71.12 374.327 69.9392 373.391 69.9392 371.724C69.9392 369.829 71.3284 368.426 73.037 368.426C73.8066 368.426 74.4262 368.659 74.7874 369.207L74.9235 368.52H76.9267ZM74.4067 371.124C74.4197 370.978 74.4007 370.831 74.351 370.693C74.3013 370.555 74.2221 370.429 74.1189 370.325C74.0158 370.221 73.8912 370.14 73.7537 370.089C73.6163 370.038 73.4694 370.018 73.3232 370.029C72.5314 370.029 71.9618 370.671 71.9618 371.629C71.9491 371.775 71.9685 371.922 72.0186 372.06C72.0687 372.197 72.1483 372.322 72.2518 372.426C72.3553 372.529 72.4803 372.609 72.6178 372.659C72.7554 372.709 72.9023 372.728 73.0481 372.716C73.8511 372.707 74.4095 372.074 74.4095 371.124H74.4067Z" fill="#3C3945"/>
<path d="M81.3706 371.487L82.9181 374.321H80.7899L80.0092 372.826L78.6201 374.321H76.3696L79.2257 371.407L77.7171 368.628H79.8147L80.5732 370.084L81.9346 368.628H84.1489L81.3706 371.487Z" fill="#3C3945"/>
<path d="M83.4524 373.321C83.4478 373.151 83.4779 372.982 83.5411 372.825C83.6042 372.667 83.699 372.524 83.8195 372.405C83.9401 372.285 84.0838 372.191 84.242 372.13C84.4001 372.068 84.5692 372.039 84.7388 372.045C84.8855 372.037 85.0323 372.06 85.1697 372.111C85.3072 372.163 85.4323 372.243 85.537 372.347C85.6416 372.45 85.7236 372.573 85.7775 372.71C85.8314 372.847 85.8562 372.993 85.8501 373.14C85.8543 373.309 85.8242 373.476 85.7616 373.633C85.699 373.79 85.6052 373.932 85.4859 374.051C85.3667 374.17 85.2244 374.264 85.0678 374.327C84.9112 374.389 84.7435 374.419 84.5749 374.415C84.4282 374.421 84.2818 374.397 84.1448 374.345C84.0077 374.292 83.8827 374.212 83.7776 374.11C83.6725 374.007 83.5895 373.885 83.5336 373.749C83.4776 373.613 83.45 373.467 83.4524 373.321Z" fill="#3C3945"/>
<g filter="url(#filter8_d)">
<rect x="89.3831" y="5" width="81.9562" height="81.9562" rx="15" fill="white"/>
</g>
<g filter="url(#filter9_d)">
<path d="M115.445 47.5526C114.911 47.0034 114.58 46.2454 114.579 45.4079L114.57 34.5541C114.564 25.8632 121.44 18.7985 129.899 18.8056C138.358 18.8127 145.245 25.8904 145.252 34.5831L145.261 45.4337C145.262 47.1083 143.943 48.4647 142.313 48.4632C140.684 48.4617 139.362 47.1032 139.36 45.4287L139.352 34.5782C139.348 29.2291 135.109 24.8738 129.904 24.8695C124.698 24.865 120.467 29.2118 120.471 34.5589L120.479 45.4127C120.481 47.0873 119.161 48.4436 117.532 48.4421C116.717 48.4417 115.979 48.1015 115.445 47.5526Z" fill="#5B5863"/>
<path d="M118.77 73.4083C114.685 73.4083 111.362 70.8688 111.362 67.7473V50.0092C111.362 46.8877 114.685 44.3481 118.77 44.3481H141.982C146.066 44.3481 149.39 46.8877 149.39 50.0092V67.7473C149.39 70.8688 146.066 73.4083 141.982 73.4083H118.77Z" fill="#FD3E72"/>
<path d="M145.488 51.5C145.488 49.7725 143.458 48.3591 140.977 48.3591H119.772C117.291 48.3591 115.261 49.7725 115.261 51.5V66.2619C115.261 67.9894 117.291 69.4027 119.772 69.4027H140.977C143.458 69.4027 145.488 67.9894 145.488 66.2619V51.5Z" fill="#FD3E72"/>
<path d="M133.786 54.8971C133.786 52.9472 132.04 51.3665 129.886 51.3665C127.732 51.3665 125.986 52.9472 125.986 54.8971C125.986 56.189 126.755 57.3321 127.898 57.9476L126.814 66.3978H129.982H133.15L132.056 57.8475C133.099 57.2141 133.786 56.12 133.786 54.8971Z" fill="white"/>
</g>
<defs>
<filter id="filter0_d" x="38" y="217.376" width="165.499" height="214.078" filterUnits="userSpaceOnUse" color-interpolation-filters="sRGB">
<feFlood flood-opacity="0" result="BackgroundImageFix"/>
<feColorMatrix in="SourceAlpha" type="matrix" values="0 0 0 0 0 0 0 0 0 0 0 0 0 0 0 0 0 0 127 0"/>
<feOffset dy="12"/>
<feGaussianBlur stdDeviation="8"/>
<feColorMatrix type="matrix" values="0 0 0 0 0 0 0 0 0 0 0 0 0 0 0 0 0 0 0.25 0"/>
<feBlend mode="normal" in2="BackgroundImageFix" result="effect1_dropShadow"/>
<feBlend mode="normal" in="SourceGraphic" in2="effect1_dropShadow" result="shape"/>
</filter>
<filter id="filter1_d" x="337" y="179.376" width="133.972" height="171.078" filterUnits="userSpaceOnUse" color-interpolation-filters="sRGB">
<feFlood flood-opacity="0" result="BackgroundImageFix"/>
<feColorMatrix in="SourceAlpha" type="matrix" values="0 0 0 0 0 0 0 0 0 0 0 0 0 0 0 0 0 0 127 0"/>
<feOffset dy="12"/>
<feGaussianBlur stdDeviation="8"/>
<feColorMatrix type="matrix" values="0 0 0 0 0 0 0 0 0 0 0 0 0 0 0 0 0 0 0.25 0"/>
<feBlend mode="normal" in2="BackgroundImageFix" result="effect1_dropShadow"/>
<feBlend mode="normal" in="SourceGraphic" in2="effect1_dropShadow" result="shape"/>
</filter>
<filter id="filter2_d" x="144.832" y="87.1592" width="250.55" height="330.078" filterUnits="userSpaceOnUse" color-interpolation-filters="sRGB">
<feFlood flood-opacity="0" result="BackgroundImageFix"/>
<feColorMatrix in="SourceAlpha" type="matrix" values="0 0 0 0 0 0 0 0 0 0 0 0 0 0 0 0 0 0 127 0"/>
<feOffset dy="12"/>
<feGaussianBlur stdDeviation="8"/>
<feColorMatrix type="matrix" values="0 0 0 0 0 0 0 0 0 0 0 0 0 0 0 0 0 0 0.25 0"/>
<feBlend mode="normal" in2="BackgroundImageFix" result="effect1_dropShadow"/>
<feBlend mode="normal" in="SourceGraphic" in2="effect1_dropShadow" result="shape"/>
</filter>
<filter id="filter3_d" x="396.65" y="223.803" width="127.275" height="127.275" filterUnits="userSpaceOnUse" color-interpolation-filters="sRGB">
<feFlood flood-opacity="0" result="BackgroundImageFix"/>
<feColorMatrix in="SourceAlpha" type="matrix" values="0 0 0 0 0 0 0 0 0 0 0 0 0 0 0 0 0 0 127 0"/>
<feOffset dy="4"/>
<feGaussianBlur stdDeviation="4.5"/>
<feColorMatrix type="matrix" values="0 0 0 0 0 0 0 0 0 0 0 0 0 0 0 0 0 0 0.25 0"/>
<feBlend mode="normal" in2="BackgroundImageFix" result="effect1_dropShadow"/>
<feBlend mode="normal" in="SourceGraphic" in2="effect1_dropShadow" result="shape"/>
</filter>
<filter id="filter4_d" x="415.415" y="234.874" width="88.8201" height="105.574" filterUnits="userSpaceOnUse" color-interpolation-filters="sRGB">
<feFlood flood-opacity="0" result="BackgroundImageFix"/>
<feColorMatrix in="SourceAlpha" type="matrix" values="0 0 0 0 0 0 0 0 0 0 0 0 0 0 0 0 0 0 127 0"/>
<feOffset dy="4"/>
<feGaussianBlur stdDeviation="6"/>
<feColorMatrix type="matrix" values="0 0 0 0 0 0 0 0 0 0 0 0 0 0 0 0 0 0 0.25 0"/>
<feBlend mode="normal" in2="BackgroundImageFix" result="effect1_dropShadow"/>
<feBlend mode="normal" in="SourceGraphic" in2="effect1_dropShadow" result="shape"/>
</filter>
<filter id="filter5_d" x="17.3398" y="298.405" width="112.565" height="112.565" filterUnits="userSpaceOnUse" color-interpolation-filters="sRGB">
<feFlood flood-opacity="0" result="BackgroundImageFix"/>
<feColorMatrix in="SourceAlpha" type="matrix" values="0 0 0 0 0 0 0 0 0 0 0 0 0 0 0 0 0 0 127 0"/>
<feOffset dy="4"/>
<feGaussianBlur stdDeviation="4.5"/>
<feColorMatrix type="matrix" values="0 0 0 0 0 0 0 0 0 0 0 0 0 0 0 0 0 0 0.25 0"/>
<feBlend mode="normal" in2="BackgroundImageFix" result="effect1_dropShadow"/>
<feBlend mode="normal" in="SourceGraphic" in2="effect1_dropShadow" result="shape"/>
</filter>
<filter id="filter6_d" x="28.0303" y="306.376" width="90.9697" height="90.9697" filterUnits="userSpaceOnUse" color-interpolation-filters="sRGB">
<feFlood flood-opacity="0" result="BackgroundImageFix"/>
<feColorMatrix in="SourceAlpha" type="matrix" values="0 0 0 0 0 0 0 0 0 0 0 0 0 0 0 0 0 0 127 0"/>
<feOffset dy="4"/>
<feGaussianBlur stdDeviation="4.5"/>
<feColorMatrix type="matrix" values="0 0 0 0 0 0 0 0 0 0 0 0 0 0 0 0 0 0 0.05 0"/>
<feBlend mode="normal" in2="BackgroundImageFix" result="effect1_dropShadow"/>
<feBlend mode="normal" in="SourceGraphic" in2="effect1_dropShadow" result="shape"/>
</filter>
<filter id="filter7_d" x="69.5616" y="342.338" width="33.1838" height="15.5835" filterUnits="userSpaceOnUse" color-interpolation-filters="sRGB">
<feFlood flood-opacity="0" result="BackgroundImageFix"/>
<feColorMatrix in="SourceAlpha" type="matrix" values="0 0 0 0 0 0 0 0 0 0 0 0 0 0 0 0 0 0 127 0"/>
<feOffset dy="6"/>
<feGaussianBlur stdDeviation="1"/>
<feColorMatrix type="matrix" values="0 0 0 0 0 0 0 0 0 0 0 0 0 0 0 0 0 0 0.15 0"/>
<feBlend mode="normal" in2="BackgroundImageFix" result="effect1_dropShadow"/>
<feBlend mode="normal" in="SourceGraphic" in2="effect1_dropShadow" result="shape"/>
</filter>
<filter id="filter8_d" x="80.3831" y="0" width="99.9562" height="99.9562" filterUnits="userSpaceOnUse" color-interpolation-filters="sRGB">
<feFlood flood-opacity="0" result="BackgroundImageFix"/>
<feColorMatrix in="SourceAlpha" type="matrix" values="0 0 0 0 0 0 0 0 0 0 0 0 0 0 0 0 0 0 127 0"/>
<feOffset dy="4"/>
<feGaussianBlur stdDeviation="4.5"/>
<feColorMatrix type="matrix" values="0 0 0 0 0 0 0 0 0 0 0 0 0 0 0 0 0 0 0.25 0"/>
<feBlend mode="normal" in2="BackgroundImageFix" result="effect1_dropShadow"/>
<feBlend mode="normal" in="SourceGraphic" in2="effect1_dropShadow" result="shape"/>
</filter>
<filter id="filter9_d" x="99.3618" y="10.8057" width="62.0278" height="78.6027" filterUnits="userSpaceOnUse" color-interpolation-filters="sRGB">
<feFlood flood-opacity="0" result="BackgroundImageFix"/>
<feColorMatrix in="SourceAlpha" type="matrix" values="0 0 0 0 0 0 0 0 0 0 0 0 0 0 0 0 0 0 127 0"/>
<feOffset dy="4"/>
<feGaussianBlur stdDeviation="6"/>
<feColorMatrix type="matrix" values="0 0 0 0 0 0 0 0 0 0 0 0 0 0 0 0 0 0 0.1 0"/>
<feBlend mode="normal" in2="BackgroundImageFix" result="effect1_dropShadow"/>
<feBlend mode="normal" in="SourceGraphic" in2="effect1_dropShadow" result="shape"/>
</filter>
<linearGradient id="paint0_linear" x1="103.664" y1="235.602" x2="165.92" y2="256.782" gradientUnits="userSpaceOnUse">
<stop stop-color="#FE6556"/>
<stop offset="0.421875" stop-color="#FD3E72"/>
<stop offset="1" stop-color="#49A8FF"/>
</linearGradient>
<linearGradient id="paint1_linear" x1="103.664" y1="272.827" x2="165.92" y2="294.007" gradientUnits="userSpaceOnUse">
<stop stop-color="#FE6556"/>
<stop offset="0.421875" stop-color="#FD3E72"/>
<stop offset="1" stop-color="#49A8FF"/>
</linearGradient>
<linearGradient id="paint2_linear" x1="103.664" y1="309.411" x2="165.92" y2="330.591" gradientUnits="userSpaceOnUse">
<stop stop-color="#FE6556"/>
<stop offset="0.421875" stop-color="#FD3E72"/>
<stop offset="1" stop-color="#49A8FF"/>
</linearGradient>
<linearGradient id="paint3_linear" x1="103.664" y1="345.995" x2="165.92" y2="367.175" gradientUnits="userSpaceOnUse">
<stop stop-color="#FE6556"/>
<stop offset="0.421875" stop-color="#FD3E72"/>
<stop offset="1" stop-color="#49A8FF"/>
</linearGradient>
<linearGradient id="paint4_linear" x1="103.42" y1="383.115" x2="165.677" y2="404.295" gradientUnits="userSpaceOnUse">
<stop stop-color="#FE6556"/>
<stop offset="0.421875" stop-color="#FD3E72"/>
<stop offset="1" stop-color="#49A8FF"/>
</linearGradient>
<linearGradient id="paint5_linear" x1="390.935" y1="194.242" x2="438.489" y2="210.42" gradientUnits="userSpaceOnUse">
<stop stop-color="#FE6556"/>
<stop offset="0.421875" stop-color="#FD3E72"/>
<stop offset="1" stop-color="#49A8FF"/>
</linearGradient>
<linearGradient id="paint6_linear" x1="390.935" y1="222.676" x2="438.489" y2="238.854" gradientUnits="userSpaceOnUse">
<stop stop-color="#FE6556"/>
<stop offset="0.421875" stop-color="#FD3E72"/>
<stop offset="1" stop-color="#49A8FF"/>
</linearGradient>
<linearGradient id="paint7_linear" x1="390.935" y1="250.62" x2="438.489" y2="266.799" gradientUnits="userSpaceOnUse">
<stop stop-color="#FE6556"/>
<stop offset="0.421875" stop-color="#FD3E72"/>
<stop offset="1" stop-color="#49A8FF"/>
</linearGradient>
<linearGradient id="paint8_linear" x1="390.935" y1="278.565" x2="438.489" y2="294.743" gradientUnits="userSpaceOnUse">
<stop stop-color="#FE6556"/>
<stop offset="0.421875" stop-color="#FD3E72"/>
<stop offset="1" stop-color="#49A8FF"/>
</linearGradient>
<linearGradient id="paint9_linear" x1="390.749" y1="306.918" x2="438.303" y2="323.097" gradientUnits="userSpaceOnUse">
<stop stop-color="#FE6556"/>
<stop offset="0.421875" stop-color="#FD3E72"/>
<stop offset="1" stop-color="#49A8FF"/>
</linearGradient>
<linearGradient id="paint10_linear" x1="275.361" y1="518.277" x2="277.462" y2="340.18" gradientUnits="userSpaceOnUse">
<stop stop-color="#5B1326"/>
<stop offset="1" stop-color="#5B1326" stop-opacity="0"/>
</linearGradient>
<linearGradient id="paint11_linear" x1="242.136" y1="114.448" x2="344.056" y2="149.121" gradientUnits="userSpaceOnUse">
<stop stop-color="#FE6556"/>
<stop offset="0.421875" stop-color="#FD3E72"/>
<stop offset="1" stop-color="#49A8FF"/>
</linearGradient>
<linearGradient id="paint12_linear" x1="242.136" y1="175.389" x2="344.056" y2="210.063" gradientUnits="userSpaceOnUse">
<stop stop-color="#FE6556"/>
<stop offset="0.421875" stop-color="#FD3E72"/>
<stop offset="1" stop-color="#49A8FF"/>
</linearGradient>
<linearGradient id="paint13_linear" x1="242.136" y1="235.28" x2="344.056" y2="269.954" gradientUnits="userSpaceOnUse">
<stop stop-color="#FE6556"/>
<stop offset="0.421875" stop-color="#FD3E72"/>
<stop offset="1" stop-color="#49A8FF"/>
</linearGradient>
<linearGradient id="paint14_linear" x1="242.136" y1="295.171" x2="344.056" y2="329.845" gradientUnits="userSpaceOnUse">
<stop stop-color="#FE6556"/>
<stop offset="0.421875" stop-color="#FD3E72"/>
<stop offset="1" stop-color="#49A8FF"/>
</linearGradient>
<linearGradient id="paint15_linear" x1="241.738" y1="355.941" x2="343.658" y2="390.615" gradientUnits="userSpaceOnUse">
<stop stop-color="#FE6556"/>
<stop offset="0.421875" stop-color="#FD3E72"/>
<stop offset="1" stop-color="#49A8FF"/>
</linearGradient>
</defs>
</svg>
