<svg width="503" height="392" viewBox="0 0 503 392" fill="none" xmlns="http://www.w3.org/2000/svg">
<circle opacity="0.2" cx="251.5" cy="192.297" r="192.297" fill="white"/>
<g style="mix-blend-mode:lighten">
<g style="mix-blend-mode:lighten">
<path d="M77.5491 232.278C75.5905 232.273 73.6677 231.751 71.9744 230.764L7.79588 193.662C7.31185 193.376 6.9106 192.969 6.63183 192.48C6.35306 191.991 6.20642 191.438 6.20642 190.874C6.20642 190.311 6.35306 189.758 6.63183 189.269C6.9106 188.78 7.31185 188.372 7.79588 188.087L123.877 120.905C123.976 120.851 124.087 120.822 124.2 120.822C124.313 120.822 124.424 120.851 124.523 120.905L125.058 121.222L193.905 161.063C194.396 161.347 194.803 161.755 195.086 162.247C195.369 162.738 195.518 163.296 195.518 163.864C195.518 164.432 195.369 164.99 195.086 165.481C194.803 165.973 194.396 166.382 193.905 166.666L83.1239 230.764C81.4301 231.749 79.5076 232.272 77.5491 232.278ZM124.234 122.213L8.49616 189.188C8.20255 189.359 7.95881 189.604 7.78936 189.898C7.61992 190.193 7.53073 190.527 7.53073 190.868C7.53073 191.208 7.61992 191.542 7.78936 191.837C7.95881 192.132 8.20255 192.377 8.49616 192.547L72.6197 229.717C74.1255 230.564 75.8228 231.008 77.5491 231.008C79.2755 231.008 80.9728 230.564 82.4786 229.717L193.26 165.592C193.554 165.421 193.797 165.176 193.967 164.882C194.136 164.587 194.225 164.252 194.225 163.912C194.225 163.572 194.136 163.238 193.967 162.943C193.797 162.648 193.554 162.403 193.26 162.233L124.234 122.213Z" fill="#FD3E72"/>
</g>
</g>
<path d="M202.213 143.028L195.485 146.552L127.983 107.482C127.284 107.168 126.522 107.022 125.757 107.055C124.991 107.088 124.245 107.301 123.576 107.675L7.16458 175.132C6.05237 174.43 0.930725 171.979 0.930725 171.979L3.44349 178.45C3.57609 178.779 3.81883 179.052 4.13004 179.221L75.2289 220.37C75.9259 220.689 76.6883 220.84 77.4541 220.809C78.2199 220.778 78.9677 220.566 79.6366 220.191L198.753 151.192C199.202 150.962 199.556 150.582 199.755 150.118L202.213 143.028Z" fill="#383442"/>
<path d="M201.169 144.143L79.0873 214.822C78.4009 215.204 77.6345 215.42 76.8498 215.451C76.0651 215.482 75.2841 215.328 74.5698 215.001L1.71333 172.833C0.559934 172.159 0.697244 170.988 2.04288 170.217L124.125 99.5389C124.809 99.1585 125.573 98.9442 126.355 98.9131C127.138 98.882 127.916 99.0351 128.629 99.3599L201.485 141.527C202.652 142.202 202.515 143.372 201.169 144.143Z" fill="#FAFAFA"/>
<path d="M201.169 143.441L79.0869 214.106C78.4028 214.494 77.6366 214.714 76.8513 214.747C76.066 214.781 75.284 214.627 74.5695 214.299L1.713 172.131C1.38582 171.961 1.13188 171.677 0.998988 171.333C0.911267 171.627 0.935751 171.944 1.06769 172.221C1.19963 172.498 1.42961 172.716 1.713 172.833L74.5695 215.001C75.2838 215.328 76.0648 215.482 76.8495 215.451C77.6342 215.42 78.4006 215.205 79.0869 214.822L201.169 144.143C202.075 143.62 202.418 142.932 202.212 142.326C202.004 142.808 201.635 143.202 201.169 143.441Z" fill="white"/>
<path d="M42.2612 199.527V198.15C42.2612 198.013 42.2612 197.958 42.4259 198.013L47.1494 200.766C47.2039 200.802 47.2487 200.851 47.2798 200.909C47.311 200.967 47.3275 201.031 47.3279 201.097V202.473C47.3279 202.597 47.2455 202.666 47.1494 202.611L42.4259 199.858C42.3748 199.819 42.3333 199.769 42.3047 199.712C42.2761 199.654 42.2612 199.591 42.2612 199.527Z" fill="white"/>
<path d="M49.3186 203.616V202.239C49.3186 202.101 49.401 202.046 49.4971 202.101L54.2206 204.855C54.271 204.894 54.3119 204.944 54.3404 205.001C54.369 205.058 54.3843 205.121 54.3853 205.185V206.562C54.3853 206.685 54.3029 206.754 54.2206 206.699L49.4971 203.946C49.4442 203.908 49.4006 203.859 49.3696 203.801C49.3387 203.744 49.3212 203.681 49.3186 203.616Z" fill="white"/>
<path d="M42.7822 182.415L144.24 123.686C144.576 123.496 144.954 123.397 145.339 123.397C145.724 123.397 146.102 123.496 146.437 123.686L182.563 144.653C182.686 144.72 182.789 144.82 182.861 144.941C182.932 145.062 182.97 145.2 182.97 145.341C182.97 145.482 182.932 145.62 182.861 145.741C182.789 145.862 182.686 145.962 182.563 146.029L81.1465 204.703C80.8137 204.893 80.4376 204.992 80.0549 204.992C79.6722 204.992 79.2961 204.893 78.9633 204.703L42.7822 183.778C42.6657 183.706 42.5695 183.606 42.5027 183.487C42.4359 183.368 42.4009 183.233 42.4009 183.096C42.4009 182.959 42.4359 182.825 42.5027 182.706C42.5695 182.586 42.6657 182.486 42.7822 182.415Z" fill="#EAEAEA"/>
<path d="M42.7822 183.778L43.1529 183.984L144.24 125.462C144.576 125.272 144.954 125.173 145.339 125.173C145.724 125.173 146.102 125.272 146.437 125.462L182.138 146.208L182.508 146.002C182.632 145.934 182.734 145.835 182.806 145.713C182.878 145.592 182.915 145.454 182.915 145.313C182.915 145.173 182.878 145.034 182.806 144.913C182.734 144.792 182.632 144.693 182.508 144.625L146.478 123.686C146.143 123.496 145.765 123.397 145.38 123.397C144.995 123.397 144.617 123.496 144.281 123.686L42.7822 182.415C42.6657 182.486 42.5695 182.586 42.5027 182.706C42.4359 182.825 42.4009 182.959 42.4009 183.096C42.4009 183.233 42.4359 183.368 42.5027 183.487C42.5695 183.606 42.6657 183.706 42.7822 183.778Z" fill="#DADADA"/>
<path d="M149.157 129L55.7038 183.089L51.0765 181.244L145.243 126.728L149.157 129Z" fill="#FD3E72"/>
<path d="M158.768 134.561L76.1074 182.415L72.1804 180.143L154.841 132.29L158.768 134.561Z" fill="#24126A"/>
<path d="M165.015 138.182L67.6902 194.516L63.7769 192.258L161.102 135.911L165.015 138.182Z" fill="#FD3E72"/>
<path d="M171.277 141.803L73.952 198.136L70.0386 195.879L167.364 139.531L171.277 141.803Z" fill="#FD3E72"/>
<path d="M177.538 145.424L80.2129 201.757L76.2859 199.5L173.611 143.152L177.538 145.424Z" fill="#24126A"/>
<path d="M55.7032 183.09L51.7761 185.361L47.8628 183.09L51.7761 180.832L55.7032 183.09Z" fill="#FD3E72"/>
<path d="M80.8586 179.661L61.3881 190.922L57.4748 188.651L77.0826 177.307L80.8586 179.661Z" fill="#FD3E72"/>
<path d="M78.9093 156.106L106.261 140.261C106.496 140.182 106.699 140.031 106.843 139.83C106.988 139.628 107.065 139.387 107.065 139.139C107.065 138.891 106.988 138.649 106.843 138.448C106.699 138.247 106.496 138.096 106.261 138.017L87.5598 127.196C86.96 126.89 86.2966 126.731 85.6237 126.731C84.9508 126.731 84.2874 126.89 83.6876 127.196L56.3356 143.028C56.1013 143.107 55.8977 143.258 55.7535 143.459C55.6093 143.661 55.5317 143.902 55.5317 144.15C55.5317 144.398 55.6093 144.639 55.7535 144.841C55.8977 145.042 56.1013 145.193 56.3356 145.272L75.0783 156.106C75.6749 156.398 76.33 156.55 76.9938 156.55C77.6576 156.55 78.3127 156.398 78.9093 156.106Z" fill="#FFC9D8"/>
<path d="M56.3352 143.95L83.6873 128.105C84.2871 127.799 84.9505 127.64 85.6234 127.64C86.2963 127.64 86.9597 127.799 87.5594 128.105L106.261 138.939C106.542 139.092 106.775 139.321 106.934 139.6C107.222 139.063 106.934 138.457 106.261 138.017L87.5594 127.196C86.9597 126.89 86.2963 126.731 85.6234 126.731C84.9505 126.731 84.2871 126.89 83.6873 127.196L56.3352 143.028C55.5938 143.455 55.3741 144.061 55.6624 144.611C55.8171 144.33 56.0511 144.1 56.3352 143.95Z" fill="#FFAAC1"/>
<path d="M202.021 141.28L186.587 49.4141L187.823 48.8909L185.969 47.8171C185.752 47.7106 185.511 47.6634 185.27 47.6804C185.029 47.6973 184.796 47.7777 184.596 47.9135L61.1823 119.335C60.6605 119.667 60.2373 120.134 59.9571 120.686C59.6769 121.238 59.5499 121.856 59.5895 122.474L75.078 215.001C75.0976 215.202 75.1685 215.396 75.2839 215.562C75.3993 215.728 75.5553 215.862 75.7371 215.951L77.5633 217.011L77.8654 215.29H77.7693L200.359 144.322C200.876 144.004 201.301 143.556 201.593 143.022C201.884 142.488 202.032 141.888 202.021 141.28Z" fill="#797681"/>
<path d="M61.8687 121.841L59.8503 120.946C59.6191 121.42 59.5286 121.95 59.5894 122.474L75.0779 215.001C75.0975 215.202 75.1684 215.396 75.2838 215.562C75.3992 215.728 75.5553 215.862 75.737 215.951L77.5632 217.011L77.8653 215.29H77.7692L83.9756 211.697L61.8687 121.841Z" fill="#3F3C49"/>
<path d="M202.35 145.479L79.005 216.873C78.0576 217.424 77.2474 217.107 77.0689 216.116L61.5118 123.59C61.4755 122.968 61.6053 122.349 61.8877 121.794C62.1701 121.24 62.5949 120.772 63.1183 120.437L186.463 49.0427C187.411 48.492 188.235 48.8086 188.4 49.7998L203.957 142.326C203.993 142.948 203.863 143.567 203.581 144.121C203.298 144.676 202.874 145.144 202.35 145.479Z" fill="#5B5863"/>
<path d="M300.787 143.028L307.515 146.552L375.017 107.482C375.713 107.168 376.473 107.022 377.236 107.055C377.999 107.088 378.744 107.301 379.411 107.675L495.835 175.132C496.947 174.499 502.028 172.048 502.028 172.048L499.556 178.45C499.423 178.783 499.175 179.057 498.856 179.221L427.771 220.369C427.074 220.689 426.312 220.84 425.546 220.809C424.78 220.777 424.032 220.566 423.363 220.191L304.234 151.192C303.785 150.965 303.434 150.584 303.245 150.118L300.787 143.028Z" fill="#383442"/>
<path d="M301.817 144.143L423.912 214.822C424.599 215.204 425.365 215.42 426.15 215.451C426.935 215.482 427.716 215.328 428.43 215L501.286 172.833C502.44 172.158 502.302 170.988 500.957 170.217L378.875 99.5386C378.189 99.1561 377.422 98.9405 376.637 98.9094C375.853 98.8783 375.072 99.0326 374.357 99.3597L301.501 141.527C300.334 142.202 300.485 143.372 301.817 144.143Z" fill="#FAFAFA"/>
<path d="M301.817 143.441L423.912 214.106C424.597 214.494 425.363 214.714 426.148 214.747C426.933 214.781 427.715 214.627 428.43 214.299L501.286 172.131C501.61 171.961 501.859 171.676 501.987 171.333C502.079 171.625 502.058 171.942 501.928 172.22C501.798 172.498 501.569 172.716 501.286 172.833L428.43 215.001C427.716 215.328 426.935 215.482 426.15 215.451C425.365 215.42 424.599 215.205 423.912 214.822L301.817 144.143C300.924 143.62 300.581 142.932 300.787 142.326C300.994 142.804 301.357 143.197 301.817 143.441Z" fill="white"/>
<path d="M460.739 199.527V198.15C460.739 198.013 460.657 197.958 460.561 198.013L455.851 200.766C455.796 200.802 455.751 200.851 455.72 200.909C455.689 200.967 455.673 201.031 455.672 201.097V202.473C455.672 202.597 455.755 202.666 455.851 202.611L460.561 199.858C460.613 199.82 460.657 199.77 460.688 199.713C460.719 199.656 460.736 199.592 460.739 199.527Z" fill="white"/>
<path d="M453.682 203.616V202.239C453.682 202.101 453.599 202.046 453.503 202.101L448.78 204.855C448.727 204.891 448.684 204.941 448.655 204.999C448.627 205.056 448.613 205.12 448.615 205.185V206.562C448.615 206.685 448.615 206.754 448.78 206.699L453.503 203.946C453.556 203.908 453.6 203.859 453.631 203.801C453.662 203.744 453.679 203.681 453.682 203.616Z" fill="white"/>
<path d="M460.204 182.415L358.746 123.686C358.413 123.497 358.037 123.397 357.655 123.397C357.272 123.397 356.896 123.497 356.563 123.686L320.437 144.653C320.31 144.717 320.203 144.815 320.128 144.937C320.054 145.059 320.014 145.198 320.014 145.341C320.014 145.484 320.054 145.624 320.128 145.745C320.203 145.867 320.31 145.965 320.437 146.029L421.854 204.731C422.186 204.92 422.563 205.02 422.945 205.02C423.328 205.02 423.704 204.92 424.037 204.731L460.204 183.805C460.331 183.739 460.437 183.639 460.511 183.517C460.585 183.394 460.624 183.254 460.624 183.11C460.624 182.967 460.585 182.826 460.511 182.704C460.437 182.581 460.331 182.481 460.204 182.415Z" fill="#EAEAEA"/>
<path d="M460.204 183.778L459.847 183.984L358.746 125.462C358.413 125.272 358.037 125.173 357.654 125.173C357.272 125.173 356.896 125.272 356.563 125.462L320.862 146.208L320.492 146.002C320.365 145.938 320.258 145.839 320.183 145.718C320.108 145.596 320.069 145.456 320.069 145.314C320.069 145.171 320.108 145.031 320.183 144.909C320.258 144.788 320.365 144.69 320.492 144.625L356.563 123.686C356.896 123.497 357.272 123.397 357.654 123.397C358.037 123.397 358.413 123.497 358.746 123.686L460.204 182.415C460.324 182.484 460.424 182.583 460.493 182.703C460.562 182.822 460.599 182.958 460.599 183.096C460.599 183.235 460.562 183.371 460.493 183.49C460.424 183.61 460.324 183.709 460.204 183.778Z" fill="#DADADA"/>
<path d="M353.843 129L447.296 183.089L451.924 181.244L357.757 126.728L353.843 129Z" fill="#FD3E72"/>
<path d="M344.232 134.561L426.893 182.415L430.82 180.143L348.146 132.29L344.232 134.561Z" fill="#24126A"/>
<path d="M337.971 138.182L435.296 194.516L439.223 192.258L341.898 135.911L337.971 138.182Z" fill="#FD3E72"/>
<path d="M331.723 141.803L429.048 198.136L432.962 195.879L335.637 139.531L331.723 141.803Z" fill="#FD3E72"/>
<path d="M325.462 145.424L422.787 201.757L426.7 199.5L329.375 143.152L325.462 145.424Z" fill="#24126A"/>
<path d="M447.297 183.09L451.21 185.361L455.137 183.09L451.21 180.832L447.297 183.09Z" fill="#FD3E72"/>
<path d="M422.141 179.661L441.612 190.922L445.525 188.651L425.917 177.307L422.141 179.661Z" fill="#FD3E72"/>
<path d="M424.092 156.106L396.726 140.261C396.491 140.182 396.288 140.031 396.144 139.83C395.999 139.628 395.922 139.387 395.922 139.139C395.922 138.891 395.999 138.649 396.144 138.448C396.288 138.247 396.491 138.096 396.726 138.017L415.441 127.196C416.041 126.89 416.704 126.731 417.377 126.731C418.05 126.731 418.713 126.89 419.313 127.196L446.665 143.028C446.9 143.107 447.103 143.258 447.247 143.459C447.392 143.661 447.469 143.902 447.469 144.15C447.469 144.398 447.392 144.639 447.247 144.841C447.103 145.042 446.9 145.193 446.665 145.272L427.964 156.106C427.362 156.405 426.699 156.56 426.028 156.56C425.356 156.56 424.694 156.405 424.092 156.106Z" fill="#FFC9D8"/>
<path d="M446.665 143.95L419.313 128.105C418.713 127.799 418.05 127.64 417.377 127.64C416.704 127.64 416.041 127.799 415.441 128.105L396.726 138.939C396.448 139.093 396.219 139.322 396.067 139.6C395.778 139.063 396.067 138.457 396.726 138.017L415.441 127.196C416.041 126.89 416.704 126.731 417.377 126.731C418.05 126.731 418.713 126.89 419.313 127.196L446.665 143.028C447.407 143.455 447.626 144.061 447.338 144.611C447.183 144.33 446.949 144.1 446.665 143.95Z" fill="#FFAAC1"/>
<path d="M300.979 141.28L316.413 49.4141L315.163 48.8909L317.031 47.8171C317.248 47.7106 317.489 47.6634 317.73 47.6804C317.971 47.6973 318.204 47.7777 318.404 47.9135L441.749 119.322C442.269 119.656 442.69 120.123 442.97 120.674C443.25 121.226 443.378 121.843 443.342 122.461L427.785 214.987C427.768 215.188 427.699 215.38 427.586 215.547C427.473 215.713 427.319 215.848 427.139 215.937L425.313 216.997L424.997 215.276H425.107L302.572 144.363C302.063 144.032 301.648 143.574 301.369 143.033C301.089 142.492 300.955 141.888 300.979 141.28Z" fill="#797681"/>
<path d="M441.132 121.841L443.15 120.946C443.381 121.42 443.472 121.95 443.411 122.474L427.854 215.001C427.837 215.201 427.768 215.394 427.655 215.561C427.542 215.727 427.388 215.861 427.208 215.951L425.382 217.011L425.066 215.29H425.176L418.97 211.697L441.132 121.841Z" fill="#3F3C49"/>
<path d="M300.636 145.479L423.981 216.873C424.942 217.424 425.752 217.107 425.917 216.116L441.474 123.59C441.509 122.97 441.38 122.352 441.1 121.799C440.821 121.245 440.4 120.775 439.881 120.437L316.536 49.0427C315.575 48.492 314.765 48.8086 314.6 49.7998L299.043 142.326C299.008 142.946 299.137 143.564 299.417 144.117C299.697 144.671 300.117 145.14 300.636 145.479Z" fill="#5B5863"/>
<path d="M251.507 254.415L136.648 187.935L251.494 121.456L366.353 187.935L251.507 254.415Z" fill="#FAFAFA"/>
<path d="M251.507 236.271L168.009 187.936L251.494 139.614L334.992 187.936L251.507 236.271Z" fill="#5B5863"/>
<path d="M251.494 142.891L332.163 189.574L334.992 187.936L251.494 139.614L168.009 187.936L170.838 189.574L251.494 142.891Z" fill="white"/>
<path d="M366.353 187.935V225.629L251.507 292.108V254.415L366.353 187.935Z" fill="#F5F5F5"/>
<path d="M136.648 187.935V225.629L251.507 292.108V254.415L136.648 187.935Z" fill="#F0F0F0"/>
<path d="M144.433 204.869V216.736L243.721 274.212V262.345L144.433 204.869Z" fill="#FD3E72"/>
<path d="M242.774 247.201L140.383 188.004C139.814 187.679 139.17 187.509 138.515 187.509C137.86 187.509 137.217 187.679 136.648 188.004L249.64 253.41C250.204 253.741 250.846 253.916 251.5 253.916C252.154 253.916 252.797 253.741 253.361 253.41L366.353 188.004C365.784 187.679 365.14 187.509 364.486 187.509C363.831 187.509 363.187 187.679 362.618 188.004L260.226 247.27C257.57 248.802 254.556 249.602 251.491 249.59C248.426 249.578 245.419 248.754 242.774 247.201Z" fill="#FD3E72"/>
<path d="M349.121 214.354V221.099L268.726 267.631V260.885L349.121 214.354Z" fill="#5B5863"/>
<path d="M217.976 252.419L197.173 240.387V242.865L217.976 254.911V252.419Z" fill="#FD3E72"/>
<path d="M194.18 238.666L188.537 235.403V237.895L194.18 241.158V238.666Z" fill="#FD3E72"/>
<path d="M167.775 223.399L156.255 216.722L156.241 219.2L167.775 225.877V223.399Z" fill="#FD3E72"/>
<path d="M178.307 229.483L169.959 224.651V227.143L178.293 231.975L178.307 229.483Z" fill="#FD3E72"/>
<path d="M186.12 234.013L180.477 230.75V233.228L186.12 236.491V234.013Z" fill="#FD3E72"/>
<path d="M251.617 156.203L247.965 154.097L251.617 151.99L255.269 154.097L251.617 156.203Z" fill="#42E8E0"/>
<path opacity="0.1" d="M258.908 160.429L255.269 158.323L258.908 156.203L262.56 158.323L258.908 160.429Z" fill="#42E8E0"/>
<path opacity="0.4" d="M266.199 164.656L262.561 162.536L266.199 160.429L269.852 162.536L266.199 164.656Z" fill="#42E8E0"/>
<path d="M273.504 168.868L269.852 166.762L273.504 164.656L277.143 166.762L273.504 168.868Z" fill="#42E8E0"/>
<path opacity="0.4" d="M280.796 173.095L277.143 170.988L280.796 168.868L284.434 170.988L280.796 173.095Z" fill="#42E8E0"/>
<path d="M288.086 177.321L284.433 175.201L288.086 173.095L291.738 175.201L288.086 177.321Z" fill="#42E8E0"/>
<path d="M295.378 181.534L291.739 179.428L295.378 177.321L299.03 179.428L295.378 181.534Z" fill="#42E8E0"/>
<path d="M302.669 185.76L299.03 183.654L302.669 181.534L306.321 183.654L302.669 185.76Z" fill="#FD3E72"/>
<path opacity="0.1" d="M309.974 189.986L306.321 187.866L309.974 185.76L313.613 187.866L309.974 189.986Z" fill="#FD3E72"/>
<path d="M244.298 160.443L240.646 158.337L244.298 156.23L247.937 158.337L244.298 160.443Z" fill="#42E8E0"/>
<path d="M251.589 164.669L247.937 162.549L251.589 160.443L255.228 162.549L251.589 164.669Z" fill="#42E8E0"/>
<path d="M258.88 168.896L255.228 166.776L258.88 164.669L262.533 166.776L258.88 168.896Z" fill="#42E8E0"/>
<path d="M266.171 173.109L262.533 171.002L266.171 168.896L269.824 171.002L266.171 173.109Z" fill="#42E8E0"/>
<path d="M273.463 177.335L269.824 175.229L273.463 173.109L277.115 175.229L273.463 177.335Z" fill="#42E8E0"/>
<path d="M280.768 181.561L277.115 179.441L280.768 177.335L284.406 179.441L280.768 181.561Z" fill="#42E8E0"/>
<path d="M288.059 185.774L284.406 183.668L288.059 181.561L291.698 183.668L288.059 185.774Z" fill="#42E8E0"/>
<path d="M295.35 190L291.698 187.894L295.35 185.774L299.003 187.894L295.35 190Z" fill="#42E8E0"/>
<path d="M302.641 194.227L299.002 192.107L302.641 190L306.293 192.107L302.641 194.227Z" fill="#FD3E72"/>
<path d="M236.966 164.683L233.327 162.577L236.966 160.457L240.619 162.577L236.966 164.683Z" fill="#42E8E0"/>
<path d="M244.271 168.91L240.619 166.79L244.271 164.684L247.91 166.79L244.271 168.91Z" fill="#42E8E0"/>
<path d="M251.562 173.136L247.91 171.016L251.562 168.909L255.201 171.016L251.562 173.136Z" fill="#42E8E0"/>
<path opacity="0.1" d="M258.852 177.349L255.2 175.243L258.852 173.136L262.505 175.243L258.852 177.349Z" fill="#42E8E0"/>
<path opacity="0.4" d="M266.144 181.575L262.506 179.455L266.144 177.349L269.797 179.455L266.144 181.575Z" fill="#42E8E0"/>
<path opacity="0.4" d="M273.436 185.788L269.797 183.682L273.436 181.575L277.088 183.682L273.436 185.788Z" fill="#42E8E0"/>
<path d="M280.741 190.014L277.088 187.908L280.741 185.788L284.379 187.908L280.741 190.014Z" fill="#42E8E0"/>
<path d="M288.031 194.24L284.378 192.134L288.031 190.014L291.67 192.134L288.031 194.24Z" fill="#42E8E0"/>
<path d="M295.322 198.467L291.67 196.347L295.322 194.24L298.975 196.347L295.322 198.467Z" fill="#42E8E0"/>
<path opacity="0.4" d="M229.647 168.923L225.995 166.817L229.647 164.697L233.286 166.817L229.647 168.923Z" fill="#42E8E0"/>
<path opacity="0.4" d="M236.938 173.15L233.286 171.03L236.938 168.923L240.591 171.03L236.938 173.15Z" fill="#42E8E0"/>
<path opacity="0.1" d="M244.229 177.362L240.591 175.256L244.229 173.149L247.882 175.256L244.229 177.362Z" fill="#42E8E0"/>
<path d="M251.521 181.588L247.882 179.482L251.521 177.362L255.173 179.482L251.521 181.588Z" fill="#42E8E0"/>
<path d="M258.826 185.815L255.173 183.695L258.826 181.589L262.464 183.695L258.826 185.815Z" fill="#42E8E0"/>
<path d="M266.117 190.042L262.464 187.922L266.117 185.815L269.755 187.922L266.117 190.042Z" fill="#42E8E0"/>
<path opacity="0.4" d="M273.408 194.254L269.756 192.148L273.408 190.042L277.06 192.148L273.408 194.254Z" fill="#42E8E0"/>
<path d="M280.699 198.48L277.06 196.374L280.699 194.254L284.351 196.374L280.699 198.48Z" fill="#42E8E0"/>
<path d="M287.99 202.693L284.352 200.587L287.99 198.48L291.643 200.587L287.99 202.693Z" fill="#42E8E0"/>
<path d="M222.329 173.164L218.677 171.058L222.329 168.938L225.968 171.058L222.329 173.164Z" fill="#42E8E0"/>
<path d="M229.619 177.39L225.967 175.27L229.619 173.164L233.258 175.27L229.619 177.39Z" fill="#42E8E0"/>
<path d="M236.911 181.603L233.259 179.496L236.911 177.39L240.564 179.496L236.911 181.603Z" fill="#42E8E0"/>
<path d="M244.202 185.829L240.564 183.723L244.202 181.603L247.855 183.723L244.202 185.829Z" fill="#42E8E0"/>
<path d="M251.494 190.055L247.855 187.935L251.494 185.829L255.146 187.935L251.494 190.055Z" fill="#42E8E0"/>
<path d="M258.798 194.268L255.145 192.161L258.798 190.055L262.436 192.161L258.798 194.268Z" fill="#42E8E0"/>
<path d="M266.089 198.494L262.436 196.388L266.089 194.268L269.728 196.388L266.089 198.494Z" fill="#42E8E0"/>
<path d="M273.38 202.721L269.728 200.601L273.38 198.495L277.033 200.601L273.38 202.721Z" fill="#42E8E0"/>
<path d="M280.671 206.933L277.032 204.827L280.671 202.721L284.323 204.827L280.671 206.933Z" fill="#42E8E0"/>
<path d="M214.996 177.404L211.357 175.284L214.996 173.177L218.649 175.298L214.996 177.404Z" fill="#42E8E0"/>
<path d="M222.287 181.63L218.649 179.51L222.287 177.403L225.94 179.51L222.287 181.63Z" fill="#42E8E0"/>
<path opacity="0.4" d="M229.592 185.843L225.94 183.736L229.592 181.63L233.231 183.736L229.592 185.843Z" fill="#42E8E0"/>
<path d="M236.884 190.069L233.231 187.963L236.884 185.843L240.522 187.963L236.884 190.069Z" fill="#42E8E0"/>
<path opacity="0.1" d="M244.175 194.296L240.522 192.176L244.175 190.069L247.827 192.176L244.175 194.296Z" fill="#42E8E0"/>
<path d="M251.466 198.508L247.827 196.402L251.466 194.295L255.118 196.402L251.466 198.508Z" fill="#42E8E0"/>
<path d="M258.757 202.734L255.118 200.628L258.757 198.508L262.409 200.628L258.757 202.734Z" fill="#42E8E0"/>
<path d="M266.062 206.961L262.41 204.841L266.062 202.734L269.701 204.841L266.062 206.961Z" fill="#42E8E0"/>
<path d="M273.353 211.174L269.701 209.067L273.353 206.961L276.992 209.067L273.353 211.174Z" fill="#42E8E0"/>
<path d="M207.678 181.644L204.026 179.524L207.678 177.417L211.317 179.524L207.678 181.644Z" fill="#42E8E0"/>
<path d="M214.968 185.87L211.316 183.75L214.968 181.644L218.621 183.75L214.968 185.87Z" fill="#42E8E0"/>
<path opacity="0.4" d="M222.26 190.083L218.622 187.976L222.26 185.87L225.913 187.976L222.26 190.083Z" fill="#42E8E0"/>
<path d="M229.551 194.309L225.912 192.189L229.551 190.083L233.203 192.189L229.551 194.309Z" fill="#42E8E0"/>
<path d="M236.856 198.536L233.203 196.416L236.856 194.309L240.494 196.416L236.856 198.536Z" fill="#42E8E0"/>
<path opacity="0.1" d="M244.147 202.749L240.494 200.642L244.147 198.536L247.786 200.642L244.147 202.749Z" fill="#42E8E0"/>
<path opacity="0.4" d="M251.438 206.975L247.786 204.869L251.438 202.749L255.091 204.869L251.438 206.975Z" fill="#42E8E0"/>
<path d="M258.729 211.201L255.09 209.081L258.729 206.975L262.381 209.081L258.729 211.201Z" fill="#42E8E0"/>
<path opacity="0.1" d="M266.02 215.414L262.382 213.307L266.02 211.201L269.673 213.307L266.02 215.414Z" fill="#42E8E0"/>
<path d="M200.359 185.884L196.707 183.764L200.359 181.657L203.998 183.764L200.359 185.884Z" fill="#42E8E0"/>
<path opacity="0.4" d="M207.65 190.097L203.998 187.99L207.65 185.884L211.289 187.99L207.65 190.097Z" fill="#42E8E0"/>
<path d="M214.942 194.323L211.289 192.217L214.942 190.097L218.58 192.217L214.942 194.323Z" fill="#42E8E0"/>
<path d="M222.233 198.55L218.58 196.43L222.233 194.323L225.885 196.43L222.233 198.55Z" fill="#42E8E0"/>
<path d="M229.524 202.776L225.885 200.656L229.524 198.549L233.176 200.656L229.524 202.776Z" fill="#42E8E0"/>
<path d="M236.815 206.988L233.176 204.882L236.815 202.776L240.467 204.882L236.815 206.988Z" fill="#42E8E0"/>
<path d="M244.12 211.215L240.468 209.109L244.12 206.989L247.759 209.109L244.12 211.215Z" fill="#42E8E0"/>
<path opacity="0.4" d="M251.411 215.441L247.759 213.321L251.411 211.215L255.05 213.321L251.411 215.441Z" fill="#42E8E0"/>
<path d="M258.702 219.654L255.05 217.547L258.702 215.441L262.355 217.547L258.702 219.654Z" fill="#42E8E0"/>
<path d="M193.027 190.124L189.389 188.004L193.027 185.898L196.68 188.004L193.027 190.124Z" fill="#FD3E72"/>
<path opacity="0.1" d="M200.317 194.337L196.679 192.23L200.317 190.124L203.97 192.23L200.317 194.337Z" fill="#FD3E72"/>
<path d="M207.622 198.563L203.97 196.457L207.622 194.337L211.261 196.457L207.622 198.563Z" fill="#42E8E0"/>
<path d="M214.914 202.79L211.261 200.67L214.914 198.563L218.552 200.67L214.914 202.79Z" fill="#42E8E0"/>
<path d="M222.205 207.003L218.552 204.896L222.205 202.79L225.857 204.896L222.205 207.003Z" fill="#42E8E0"/>
<path d="M229.496 211.229L225.857 209.123L229.496 207.002L233.148 209.123L229.496 211.229Z" fill="#42E8E0"/>
<path opacity="0.4" d="M236.787 215.455L233.148 213.335L236.787 211.229L240.439 213.335L236.787 215.455Z" fill="#42E8E0"/>
<path d="M244.092 219.668L240.44 217.561L244.092 215.455L247.731 217.561L244.092 219.668Z" fill="#42E8E0"/>
<path d="M251.383 223.894L247.731 221.788L251.383 219.668L255.022 221.788L251.383 223.894Z" fill="#42E8E0"/>
<path d="M251.507 189.174L136.648 122.695L251.494 56.2151L366.353 122.695L251.507 189.174Z" fill="white"/>
<path d="M251.507 171.016L168.009 122.694L251.494 74.3594L334.992 122.694L251.507 171.016Z" fill="#FD3E72"/>
<path d="M251.494 77.6359L332.163 124.333L334.992 122.694L251.494 74.3594L168.009 122.694L170.838 124.333L251.494 77.6359Z" fill="white"/>
<g filter="url(#filter0_d)">
<path d="M366.353 122.695V160.374L251.507 226.854V189.174L366.353 122.695Z" fill="#F5F5F5"/>
<path d="M136.648 122.695V160.374L251.507 226.854V189.174L136.648 122.695Z" fill="#F0F0F0"/>
</g>
<path d="M144.433 139.627V151.494L243.721 208.971V197.104L144.433 139.627Z" fill="#FD3E72"/>
<path d="M249.64 185.939L140.383 122.694C139.816 122.363 139.171 122.188 138.515 122.188C137.859 122.188 137.215 122.363 136.648 122.694L249.64 188.087C250.206 188.411 250.848 188.582 251.5 188.582C252.153 188.582 252.794 188.411 253.361 188.087L366.353 122.694C365.786 122.363 365.142 122.188 364.486 122.188C363.829 122.188 363.185 122.363 362.618 122.694L253.361 185.939C252.794 186.264 252.153 186.435 251.5 186.435C250.848 186.435 250.206 186.264 249.64 185.939Z" fill="#FD3E72"/>
<path d="M349.121 149.099V155.845L268.726 202.377V195.631L349.121 149.099Z" fill="#FD3E72"/>
<path d="M217.976 187.178L197.173 175.132V177.624L217.976 189.656V187.178Z" fill="white"/>
<path d="M194.18 173.425L188.537 170.163V172.641L194.18 175.903V173.425Z" fill="white"/>
<path d="M167.775 158.144L156.255 151.467L156.241 153.959L167.775 160.636V158.144Z" fill="white"/>
<path d="M178.307 164.229L169.959 159.41V161.902L178.293 166.72L178.307 164.229Z" fill="white"/>
<path d="M186.12 168.758L180.477 165.496V167.987L186.12 171.25V168.758Z" fill="white"/>
<path d="M251.617 90.9622L247.965 88.8422L251.617 86.7358L255.269 88.8422L251.617 90.9622Z" fill="white"/>
<path opacity="0.1" d="M258.908 95.1888L255.269 93.0687L258.908 90.9624L262.56 93.0687L258.908 95.1888Z" fill="white"/>
<path opacity="0.4" d="M266.199 99.4011L262.561 97.2948L266.199 95.1885L269.852 97.2948L266.199 99.4011Z" fill="white"/>
<path d="M273.504 103.628L269.852 101.521L273.504 99.4011L277.143 101.521L273.504 103.628Z" fill="white"/>
<path opacity="0.4" d="M280.796 107.854L277.143 105.734L280.796 103.628L284.434 105.734L280.796 107.854Z" fill="white"/>
<path d="M288.086 112.066L284.433 109.96L288.086 107.854L291.738 109.96L288.086 112.066Z" fill="white"/>
<path d="M295.378 116.293L291.739 114.187L295.378 112.067L299.03 114.187L295.378 116.293Z" fill="white"/>
<path d="M302.669 120.519L299.03 118.399L302.669 116.293L306.321 118.399L302.669 120.519Z" fill="white"/>
<path opacity="0.1" d="M309.974 124.732L306.321 122.626L309.974 120.52L313.613 122.626L309.974 124.732Z" fill="white"/>
<path d="M244.298 95.2025L240.646 93.0824L244.298 90.9761L247.937 93.0824L244.298 95.2025Z" fill="white"/>
<path d="M251.589 99.4153L247.937 97.309L251.589 95.2026L255.228 97.309L251.589 99.4153Z" fill="white"/>
<path d="M258.88 103.641L255.228 101.535L258.88 99.415L262.533 101.535L258.88 103.641Z" fill="white"/>
<path d="M266.171 107.868L262.533 105.747L266.171 103.641L269.824 105.747L266.171 107.868Z" fill="white"/>
<path d="M273.463 112.094L269.824 109.974L273.463 107.868L277.115 109.974L273.463 112.094Z" fill="white"/>
<path d="M280.768 116.307L277.115 114.201L280.768 112.094L284.406 114.201L280.768 116.307Z" fill="white"/>
<path d="M288.059 120.533L284.406 118.427L288.059 116.307L291.698 118.427L288.059 120.533Z" fill="white"/>
<path d="M295.35 124.746L291.698 122.639L295.35 120.533L299.003 122.639L295.35 124.746Z" fill="white"/>
<path d="M302.641 128.972L299.002 126.866L302.641 124.746L306.293 126.866L302.641 128.972Z" fill="white"/>
<path d="M236.966 99.4422L233.327 97.3221L236.966 95.2158L240.619 97.3221L236.966 99.4422Z" fill="white"/>
<path d="M244.271 103.655L240.619 101.549L244.271 99.4424L247.91 101.549L244.271 103.655Z" fill="white"/>
<path d="M251.562 107.882L247.91 105.775L251.562 103.655L255.201 105.775L251.562 107.882Z" fill="white"/>
<path opacity="0.1" d="M258.852 112.108L255.2 109.988L258.852 107.882L262.505 109.988L258.852 112.108Z" fill="white"/>
<path opacity="0.4" d="M266.144 116.321L262.506 114.214L266.144 112.108L269.797 114.214L266.144 116.321Z" fill="white"/>
<path opacity="0.4" d="M273.436 120.547L269.797 118.44L273.436 116.32L277.088 118.44L273.436 120.547Z" fill="white"/>
<path d="M280.741 124.773L277.088 122.653L280.741 120.547L284.379 122.653L280.741 124.773Z" fill="white"/>
<path d="M288.031 129L284.378 126.88L288.031 124.773L291.67 126.88L288.031 129Z" fill="white"/>
<path d="M295.322 133.212L291.67 131.106L295.322 129L298.975 131.106L295.322 133.212Z" fill="white"/>
<path opacity="0.4" d="M229.647 103.683L225.995 101.563L229.647 99.4565L233.286 101.563L229.647 103.683Z" fill="white"/>
<path opacity="0.4" d="M236.938 107.895L233.286 105.789L236.938 103.683L240.591 105.789L236.938 107.895Z" fill="white"/>
<path opacity="0.1" d="M244.229 112.121L240.591 110.015L244.229 107.895L247.882 110.015L244.229 112.121Z" fill="white"/>
<path d="M251.521 116.348L247.882 114.228L251.521 112.122L255.173 114.228L251.521 116.348Z" fill="white"/>
<path d="M258.826 120.561L255.173 118.455L258.826 116.348L262.464 118.455L258.826 120.561Z" fill="white"/>
<path d="M266.117 124.787L262.464 122.681L266.117 120.561L269.755 122.681L266.117 124.787Z" fill="white"/>
<path opacity="0.4" d="M273.408 129.014L269.756 126.893L273.408 124.787L277.06 126.893L273.408 129.014Z" fill="white"/>
<path d="M280.699 133.226L277.06 131.12L280.699 129.014L284.351 131.12L280.699 133.226Z" fill="white"/>
<path d="M287.99 137.452L284.352 135.346L287.99 133.226L291.643 135.346L287.99 137.452Z" fill="white"/>
<path d="M222.329 107.923L218.677 105.803L222.329 103.697L225.968 105.803L222.329 107.923Z" fill="white"/>
<path d="M229.619 112.135L225.967 110.029L229.619 107.923L233.258 110.029L229.619 112.135Z" fill="white"/>
<path d="M236.911 116.362L233.259 114.256L236.911 112.136L240.564 114.256L236.911 116.362Z" fill="white"/>
<path d="M244.202 120.588L240.564 118.468L244.202 116.362L247.855 118.468L244.202 120.588Z" fill="white"/>
<path d="M251.494 124.801L247.855 122.695L251.494 120.588L255.146 122.695L251.494 124.801Z" fill="white"/>
<path d="M258.798 129.027L255.145 126.921L258.798 124.801L262.436 126.921L258.798 129.027Z" fill="white"/>
<path d="M266.089 133.254L262.436 131.134L266.089 129.028L269.728 131.134L266.089 133.254Z" fill="white"/>
<path d="M273.38 137.466L269.728 135.36L273.38 133.254L277.033 135.36L273.38 137.466Z" fill="white"/>
<path d="M280.671 141.693L277.032 139.586L280.671 137.466L284.323 139.586L280.671 141.693Z" fill="white"/>
<path d="M214.996 112.149L211.357 110.043L214.996 107.937L218.649 110.043L214.996 112.149Z" fill="white"/>
<path d="M222.287 116.376L218.649 114.269L222.287 112.149L225.94 114.269L222.287 116.376Z" fill="white"/>
<path opacity="0.4" d="M229.592 120.602L225.94 118.496L229.592 116.376L233.231 118.496L229.592 120.602Z" fill="white"/>
<path d="M236.884 124.828L233.231 122.708L236.884 120.602L240.522 122.708L236.884 124.828Z" fill="white"/>
<path opacity="0.1" d="M244.175 129.041L240.522 126.935L244.175 124.828L247.827 126.935L244.175 129.041Z" fill="white"/>
<path d="M251.466 133.267L247.827 131.161L251.466 129.041L255.118 131.161L251.466 133.267Z" fill="white"/>
<path d="M258.757 137.494L255.118 135.374L258.757 133.268L262.409 135.374L258.757 137.494Z" fill="white"/>
<path d="M266.062 141.706L262.41 139.6L266.062 137.494L269.701 139.6L266.062 141.706Z" fill="white"/>
<path d="M273.353 145.933L269.701 143.826L273.353 141.706L276.992 143.826L273.353 145.933Z" fill="white"/>
<path d="M207.678 116.389L204.026 114.283L207.678 112.177L211.317 114.283L207.678 116.389Z" fill="white"/>
<path d="M214.968 120.616L211.316 118.509L214.968 116.389L218.621 118.509L214.968 120.616Z" fill="white"/>
<path opacity="0.4" d="M222.26 124.842L218.622 122.722L222.26 120.616L225.913 122.722L222.26 124.842Z" fill="white"/>
<path d="M229.551 129.055L225.912 126.949L229.551 124.842L233.203 126.949L229.551 129.055Z" fill="white"/>
<path d="M236.856 133.281L233.203 131.175L236.856 129.055L240.494 131.175L236.856 133.281Z" fill="white"/>
<path opacity="0.1" d="M244.147 137.507L240.494 135.401L244.147 133.281L247.786 135.401L244.147 137.507Z" fill="white"/>
<path opacity="0.4" d="M251.438 141.734L247.786 139.614L251.438 137.508L255.091 139.614L251.438 141.734Z" fill="white"/>
<path d="M258.729 145.947L255.09 143.84L258.729 141.734L262.381 143.84L258.729 145.947Z" fill="white"/>
<path opacity="0.1" d="M266.02 150.173L262.382 148.053L266.02 145.947L269.673 148.053L266.02 150.173Z" fill="white"/>
<path d="M200.359 120.63L196.707 118.523L200.359 116.417L203.998 118.523L200.359 120.63Z" fill="white"/>
<path opacity="0.4" d="M207.65 124.856L203.998 122.75L207.65 120.63L211.289 122.75L207.65 124.856Z" fill="white"/>
<path d="M214.942 129.082L211.289 126.962L214.942 124.856L218.58 126.962L214.942 129.082Z" fill="white"/>
<path d="M222.233 133.295L218.58 131.189L222.233 129.083L225.885 131.189L222.233 133.295Z" fill="white"/>
<path d="M229.524 137.521L225.885 135.415L229.524 133.295L233.176 135.415L229.524 137.521Z" fill="white"/>
<path d="M236.815 141.748L233.176 139.628L236.815 137.521L240.467 139.628L236.815 141.748Z" fill="white"/>
<path d="M244.12 145.96L240.468 143.854L244.12 141.748L247.759 143.854L244.12 145.96Z" fill="white"/>
<path opacity="0.4" d="M251.411 150.187L247.759 148.08L251.411 145.96L255.05 148.08L251.411 150.187Z" fill="white"/>
<path d="M258.702 154.413L255.05 152.293L258.702 150.187L262.355 152.293L258.702 154.413Z" fill="white"/>
<path d="M193.027 124.87L189.389 122.764L193.027 120.657L196.68 122.764L193.027 124.87Z" fill="white"/>
<path opacity="0.1" d="M200.317 129.096L196.679 126.99L200.317 124.87L203.97 126.99L200.317 129.096Z" fill="white"/>
<path d="M207.622 133.323L203.97 131.203L207.622 129.096L211.261 131.203L207.622 133.323Z" fill="white"/>
<path d="M214.914 137.535L211.261 135.429L214.914 133.322L218.552 135.429L214.914 137.535Z" fill="white"/>
<path d="M222.205 141.762L218.552 139.655L222.205 137.535L225.857 139.655L222.205 141.762Z" fill="white"/>
<path d="M229.496 145.988L225.857 143.868L229.496 141.762L233.148 143.868L229.496 145.988Z" fill="white"/>
<path opacity="0.4" d="M236.787 150.2L233.148 148.094L236.787 145.988L240.439 148.094L236.787 150.2Z" fill="white"/>
<path d="M244.092 154.427L240.44 152.321L244.092 150.201L247.731 152.321L244.092 154.427Z" fill="white"/>
<path d="M251.383 158.653L247.731 156.533L251.383 154.427L255.022 156.533L251.383 158.653Z" fill="white"/>
<path d="M422.759 252.281L407.051 158.846L408.315 158.323L406.42 157.222C406.191 157.096 405.931 157.039 405.671 157.056C405.411 157.073 405.161 157.164 404.95 157.318L279.422 229.979C278.894 230.323 278.466 230.801 278.181 231.364C277.896 231.927 277.766 232.556 277.802 233.187L293.634 327.351C293.651 327.555 293.721 327.751 293.836 327.92C293.952 328.089 294.109 328.225 294.293 328.315L296.146 329.389L296.462 327.654H296.366L421.098 255.544C421.643 255.202 422.086 254.717 422.379 254.143C422.671 253.568 422.803 252.925 422.759 252.281Z" fill="#4B4756"/>
<path d="M280.122 232.554L278.062 231.645C277.826 232.127 277.735 232.668 277.801 233.201L293.633 327.365C293.651 327.569 293.72 327.765 293.836 327.934C293.951 328.103 294.109 328.239 294.292 328.329L296.146 329.403L296.462 327.668H296.366L302.668 324.006L280.122 232.554Z" fill="#797681"/>
<path d="M423.089 256.604L297.519 329.265C296.545 329.83 295.721 329.499 295.542 328.494L279.71 234.329C279.675 233.7 279.808 233.072 280.095 232.51C280.382 231.949 280.814 231.475 281.344 231.136L406.873 158.475C407.834 157.91 408.671 158.227 408.836 159.246L424.668 253.41C424.709 254.035 424.584 254.659 424.307 255.22C424.03 255.781 423.61 256.259 423.089 256.604Z" fill="#747378"/>
<path d="M405.28 164.477L284.283 234.522L299.291 323.207L420.206 253.217L405.28 164.477Z" fill="#FFE9E9"/>
<path d="M502.001 301.194L495.135 304.774L426.48 265.015C425.772 264.695 424.998 264.544 424.221 264.575C423.444 264.606 422.685 264.818 422.004 265.194L303.533 333.78C302.394 333.147 297.231 330.655 297.231 330.655L299.73 337.194C299.866 337.529 300.114 337.806 300.43 337.979L372.779 379.844C373.486 380.17 374.26 380.325 375.038 380.294C375.816 380.262 376.576 380.047 377.255 379.665L498.499 309.454C498.951 309.225 499.31 308.845 499.515 308.38L502.001 301.194Z" fill="#383442"/>
<path d="M500.943 302.35L376.692 374.268C375.993 374.656 375.213 374.875 374.415 374.909C373.616 374.942 372.821 374.789 372.092 374.461L297.945 331.536C296.764 330.861 296.901 329.664 298.275 328.879L422.471 256.92C423.169 256.529 423.949 256.308 424.748 256.275C425.547 256.241 426.343 256.396 427.071 256.727L501.218 299.638C502.454 300.341 502.303 301.524 500.943 302.35Z" fill="#FAFAFA"/>
<path d="M500.944 301.594L376.692 373.525C375.993 373.913 375.214 374.132 374.415 374.165C373.617 374.199 372.822 374.045 372.093 373.718L297.945 330.793C297.611 330.628 297.352 330.343 297.218 329.994C297.127 330.292 297.151 330.614 297.286 330.894C297.421 331.175 297.656 331.394 297.945 331.509L372.093 374.433C372.822 374.761 373.617 374.915 374.415 374.881C375.214 374.848 375.993 374.628 376.692 374.241L500.944 302.351C501.85 301.814 502.207 301.112 501.987 300.492C501.779 300.97 501.41 301.36 500.944 301.594Z" fill="white"/>
<path d="M339.22 358.684V357.308C339.22 357.17 339.22 357.115 339.385 357.17L344.191 359.923C344.244 359.961 344.288 360.011 344.319 360.068C344.35 360.125 344.367 360.189 344.37 360.254V361.63C344.37 361.754 344.287 361.809 344.191 361.754L339.385 359.001C339.336 358.964 339.295 358.916 339.267 358.861C339.238 358.807 339.223 358.746 339.22 358.684Z" fill="white"/>
<path d="M346.401 362.842V361.465C346.401 361.327 346.483 361.272 346.579 361.327L351.385 364.081C351.44 364.12 351.485 364.171 351.516 364.231C351.547 364.291 351.563 364.357 351.564 364.425V365.802C351.564 365.925 351.481 365.994 351.385 365.939L346.579 363.186C346.525 363.147 346.48 363.095 346.449 363.035C346.418 362.975 346.402 362.909 346.401 362.842Z" fill="white"/>
<path d="M317.279 327.489L420.535 267.728C420.873 267.532 421.257 267.429 421.648 267.429C422.038 267.429 422.422 267.532 422.76 267.728L459.545 289.052C459.665 289.123 459.764 289.223 459.833 289.344C459.902 289.465 459.938 289.601 459.938 289.741C459.938 289.88 459.902 290.016 459.833 290.137C459.764 290.258 459.665 290.358 459.545 290.429L356.329 350.177C355.992 350.366 355.611 350.465 355.224 350.465C354.837 350.465 354.457 350.366 354.119 350.177L317.292 328.866C317.172 328.796 317.072 328.697 317.002 328.577C316.932 328.457 316.894 328.32 316.893 328.181C316.891 328.042 316.926 327.905 316.994 327.784C317.061 327.662 317.16 327.561 317.279 327.489Z" fill="#EAEAEA"/>
<path d="M317.278 328.866L317.649 329.086L420.535 269.531C420.873 269.335 421.257 269.232 421.647 269.232C422.038 269.232 422.421 269.335 422.759 269.531L459.16 290.649L459.531 290.429C459.65 290.358 459.75 290.258 459.818 290.137C459.887 290.016 459.924 289.88 459.924 289.741C459.924 289.601 459.887 289.465 459.818 289.344C459.75 289.223 459.65 289.123 459.531 289.052L422.759 267.728C422.421 267.532 422.038 267.429 421.647 267.429C421.257 267.429 420.873 267.532 420.535 267.728L317.278 327.489C317.158 327.559 317.059 327.66 316.99 327.781C316.921 327.902 316.885 328.038 316.885 328.177C316.885 328.316 316.921 328.453 316.99 328.574C317.059 328.695 317.158 328.795 317.278 328.866Z" fill="#DADADA"/>
<path d="M425.534 273.124L335.843 325.052L331.861 322.739L421.552 270.825L425.534 273.124Z" fill="#FD3E72"/>
<path d="M435.309 278.782L351.18 327.489L347.198 325.176L431.327 276.483L435.309 278.782Z" fill="#FD3E72"/>
<path d="M441.681 282.472L342.626 339.811L338.644 337.498L437.686 280.159L441.681 282.472Z" fill="#FD3E72"/>
<path d="M448.052 286.161L348.997 343.5L345.015 341.187L444.056 283.848L448.052 286.161Z" fill="#FD3E72"/>
<path d="M454.41 289.85L355.368 347.175L351.373 344.876L450.428 287.538L454.41 289.85Z" fill="#FD3E72"/>
<path d="M330.433 328.177L326.437 330.49L322.455 328.177L326.437 325.878L330.433 328.177Z" fill="#FD3E72"/>
<path d="M344.493 331.357L336.213 336.148L332.231 333.835L340.511 329.044L344.493 331.357Z" fill="#FD3E72"/>
<path d="M424.504 341.958L452.35 325.837C452.588 325.757 452.794 325.605 452.94 325.401C453.087 325.197 453.165 324.952 453.165 324.701C453.165 324.45 453.087 324.205 452.94 324.002C452.794 323.798 452.588 323.645 452.35 323.565L433.319 312.552C432.709 312.24 432.033 312.078 431.349 312.078C430.664 312.078 429.988 312.24 429.378 312.552L401.532 328.673C401.294 328.753 401.088 328.905 400.941 329.109C400.795 329.313 400.716 329.558 400.716 329.809C400.716 330.06 400.795 330.305 400.941 330.508C401.088 330.712 401.294 330.865 401.532 330.944L420.563 341.958C421.173 342.27 421.848 342.432 422.533 342.432C423.218 342.432 423.893 342.27 424.504 341.958Z" fill="#FFC9D8"/>
<path d="M401.531 329.595L429.336 313.474C429.947 313.163 430.622 313 431.307 313C431.992 313 432.667 313.163 433.277 313.474L452.308 324.488C452.588 324.654 452.824 324.885 452.995 325.162C453.283 324.612 453.063 323.992 452.308 323.565L433.277 312.552C432.667 312.24 431.992 312.078 431.307 312.078C430.622 312.078 429.947 312.24 429.336 312.552L401.49 328.673C400.735 329.1 400.515 329.719 400.803 330.27C400.981 329.983 401.232 329.75 401.531 329.595Z" fill="#FFAAC1"/>
<g opacity="0.11">
<g opacity="0.11">
<path opacity="0.11" d="M298.041 269.682L325.874 253.561C326.11 253.478 326.314 253.323 326.459 253.119C326.603 252.914 326.681 252.669 326.681 252.419C326.681 252.168 326.603 251.923 326.459 251.719C326.314 251.514 326.11 251.359 325.874 251.276L306.843 240.262C306.232 239.951 305.557 239.788 304.872 239.788C304.187 239.788 303.512 239.951 302.902 240.262L275.056 256.37C274.82 256.453 274.615 256.608 274.471 256.812C274.326 257.017 274.249 257.262 274.249 257.512C274.249 257.763 274.326 258.008 274.471 258.212C274.615 258.417 274.82 258.572 275.056 258.655L294.1 269.668C294.711 269.976 295.385 270.137 296.069 270.14C296.753 270.142 297.428 269.985 298.041 269.682Z" fill="url(#paint0_linear)"/>
<path opacity="0.11" d="M275.055 257.306L302.902 241.199C303.512 240.887 304.187 240.724 304.872 240.724C305.557 240.724 306.232 240.887 306.843 241.199L325.874 252.212C326.165 252.362 326.405 252.597 326.56 252.887C326.849 252.336 326.56 251.716 325.874 251.276L306.843 240.262C306.232 239.951 305.557 239.788 304.872 239.788C304.187 239.788 303.512 239.951 302.902 240.262L275.055 256.37C274.3 256.81 274.08 257.43 274.369 257.98C274.532 257.697 274.77 257.464 275.055 257.306Z" fill="#9198DB"/>
<path opacity="0.11" d="M262.821 294.862L366.064 235.101C366.402 234.905 366.785 234.802 367.176 234.802C367.566 234.802 367.95 234.905 368.288 235.101L405.06 256.425C405.183 256.493 405.286 256.593 405.357 256.714C405.429 256.835 405.466 256.973 405.466 257.114C405.466 257.255 405.429 257.393 405.357 257.514C405.286 257.635 405.183 257.735 405.06 257.802L301.858 317.495C301.52 317.691 301.136 317.794 300.745 317.794C300.355 317.794 299.971 317.691 299.633 317.495L262.821 296.198C262.707 296.127 262.613 296.029 262.548 295.912C262.483 295.795 262.449 295.664 262.449 295.53C262.449 295.396 262.483 295.265 262.548 295.148C262.613 295.031 262.707 294.933 262.821 294.862Z" fill="#ADB1F2"/>
<path opacity="0.11" d="M262.822 296.239L263.192 296.459L366.065 236.904C366.403 236.708 366.786 236.605 367.177 236.605C367.567 236.605 367.951 236.708 368.289 236.904L404.69 258.008L405.061 257.802C405.184 257.734 405.286 257.635 405.358 257.514C405.43 257.393 405.467 257.254 405.467 257.114C405.467 256.973 405.43 256.835 405.358 256.714C405.286 256.592 405.184 256.493 405.061 256.425L368.289 235.101C367.951 234.905 367.567 234.802 367.177 234.802C366.786 234.802 366.403 234.905 366.065 235.101L262.822 294.862C262.698 294.93 262.596 295.029 262.524 295.15C262.452 295.271 262.415 295.41 262.415 295.55C262.415 295.691 262.452 295.829 262.524 295.95C262.596 296.072 262.698 296.171 262.822 296.239Z" fill="#9198DB"/>
<path opacity="0.11" d="M395.435 254.966L305.483 307.032L309.053 309.097L399.005 257.031L395.435 254.966Z" fill="#24126A"/>
<path opacity="0.11" d="M385.96 249.487L300.471 298.978L304.027 301.029L389.53 251.538L385.96 249.487Z" fill="#24126A"/>
<path opacity="0.11" d="M294.087 302.667L286.096 307.293L289.666 309.358L297.643 304.733L294.087 302.667Z" fill="#24126A"/>
<path opacity="0.11" d="M301.131 309.565L295.57 312.773L299.14 314.838L304.701 311.616L301.131 309.565Z" fill="#24126A"/>
<path opacity="0.11" d="M380.028 246.045L280.163 303.852L283.719 305.917L383.584 248.11L380.028 246.045Z" fill="#24126A"/>
<path opacity="0.11" d="M374.083 242.604L274.218 300.41L277.788 302.475L377.653 244.669L374.083 242.604Z" fill="#24126A"/>
<path opacity="0.11" d="M368.151 239.175L268.286 296.982L271.842 299.033L371.708 241.227L368.151 239.175Z" fill="#24126A"/>
</g>
</g>
<path d="M329.842 289.397L339.632 283.725L339.921 285.432L330.131 291.104L329.842 289.397Z" fill="#FD3E72"/>
<path d="M341.211 282.816L346.539 279.732L346.827 281.425L341.5 284.523L341.211 282.816Z" fill="#FD3E72"/>
<path d="M354.846 274.928L358.704 272.684L358.993 274.391L355.134 276.621L354.846 274.928Z" fill="#FD3E72"/>
<path d="M352.032 276.552L353.35 275.795L353.638 277.488L352.32 278.259L352.032 276.552Z" fill="#FD3E72"/>
<path d="M348.146 278.81L350.535 277.419L350.823 279.126L348.42 280.517L348.146 278.81Z" fill="#FD3E72"/>
<path d="M337.586 276.359L341.458 274.129L341.732 275.822L337.874 278.066L337.586 276.359Z" fill="#FD3E72"/>
<path d="M328.538 281.604L336.09 277.226L336.378 278.933L328.826 283.311L328.538 281.604Z" fill="#FD3E72"/>
<path d="M339.372 253.988L346.937 249.61L347.226 251.304L339.66 255.695L339.372 253.988Z" fill="#FD3E72"/>
<path d="M335.485 256.246L337.875 254.855L338.163 256.563L335.774 257.953L335.485 256.246Z" fill="#FD3E72"/>
<path d="M340.635 261.78L348.201 257.402L348.489 259.109L340.923 263.487L340.635 261.78Z" fill="#FD3E72"/>
<path d="M336.749 264.038L339.138 262.647L339.426 264.355L337.037 265.745L336.749 264.038Z" fill="#FD3E72"/>
<path d="M333.797 220.342L319.544 228.589L319.269 226.895L333.508 218.635L333.797 220.342Z" fill="#FD3E72"/>
<path d="M338.809 217.424L335.294 219.475L335.005 217.768L338.534 215.73L338.809 217.424Z" fill="#FD3E72"/>
<path d="M363.854 215.772L349.601 224.032L349.312 222.324L363.565 214.064L363.854 215.772Z" fill="#FD3E72"/>
<path d="M368.866 212.867L365.337 214.904L365.062 213.211L368.577 211.16L368.866 212.867Z" fill="#FD3E72"/>
<path d="M324.062 230.254L320.203 232.484L319.915 230.777L323.773 228.547L324.062 230.254Z" fill="#FD3E72"/>
<path d="M347.541 225.202L343.683 227.432L343.394 225.739L347.253 223.495L347.541 225.202Z" fill="#FD3E72"/>
<path d="M333.123 224.995L325.558 229.387L325.269 227.68L332.835 223.302L333.123 224.995Z" fill="#FD3E72"/>
<path d="M337.009 222.752L334.62 224.142L334.332 222.435L336.721 221.044L337.009 222.752Z" fill="#FD3E72"/>
<path d="M346.141 217.465L338.576 221.856L338.287 220.149L345.853 215.758L346.141 217.465Z" fill="#FD3E72"/>
<path d="M350.026 215.207L347.637 216.598L347.349 214.891L349.738 213.514L350.026 215.207Z" fill="#FD3E72"/>
<path d="M346.897 221.306L343.024 223.536L342.75 221.843L346.608 219.599L346.897 221.306Z" fill="#FD3E72"/>
<path d="M355.944 216.061L348.379 220.439L348.104 218.732L355.656 214.354L355.944 216.061Z" fill="#FD3E72"/>
<path d="M359.831 213.803L357.442 215.194L357.153 213.487L359.556 212.096L359.831 213.803Z" fill="#FD3E72"/>
<path d="M328.757 231.81L320.862 236.38L320.574 234.673L328.469 230.103L328.757 231.81Z" fill="#FD3E72"/>
<path d="M335.966 227.625L330.254 230.943L329.965 229.236L335.677 225.932L335.966 227.625Z" fill="#FD3E72"/>
<path d="M341.321 224.527L337.462 226.758L337.174 225.051L341.032 222.82L341.321 224.527Z" fill="#FD3E72"/>
<path d="M378.752 207.153L370.857 211.738L370.569 210.031L378.464 205.446L378.752 207.153Z" fill="#FD3E72"/>
<path d="M385.947 202.982L380.249 206.286L379.96 204.579L385.659 201.275L385.947 202.982Z" fill="#FD3E72"/>
<path d="M391.302 199.885L387.443 202.115L387.155 200.408L391.027 198.178L391.302 199.885Z" fill="#FD3E72"/>
<path d="M375.662 258.6L383.557 254.029L383.846 255.723L375.95 260.307L375.662 258.6Z" fill="#FD3E72"/>
<path d="M368.454 262.771L374.166 259.467L374.454 261.174L368.742 264.478L368.454 262.771Z" fill="#FD3E72"/>
<path d="M363.098 265.883L366.957 263.639L367.245 265.346L363.387 267.576L363.098 265.883Z" fill="#FD3E72"/>
<path d="M373.039 264.41L380.935 259.825L381.223 261.533L373.328 266.117L373.039 264.41Z" fill="#FD3E72"/>
<path d="M365.831 268.581L371.543 265.277L371.831 266.984L366.119 270.288L365.831 268.581Z" fill="#FD3E72"/>
<path d="M360.475 271.678L364.348 269.448L364.622 271.155L360.764 273.386L360.475 271.678Z" fill="#FD3E72"/>
<path d="M341.156 257.209L343.82 255.667L344.108 257.361L341.445 258.916L341.156 257.209Z" fill="#FD3E72"/>
<path d="M336.144 260.114L339.659 258.077L339.948 259.77L336.419 261.821L336.144 260.114Z" fill="#FD3E72"/>
<path d="M329.458 235.678L321.562 240.249L321.288 238.542L329.183 233.971L329.458 235.678Z" fill="#FD3E72"/>
<path d="M336.666 231.494L330.954 234.811L330.679 233.104L336.378 229.8L336.666 231.494Z" fill="#FD3E72"/>
<path d="M342.021 228.396L338.163 230.64L337.874 228.933L341.733 226.689L342.021 228.396Z" fill="#FD3E72"/>
<path d="M324.886 242.603L322.222 244.145L321.933 242.438L324.597 240.896L324.886 242.603Z" fill="#FD3E72"/>
<path d="M329.911 239.684L326.382 241.736L326.094 240.028L329.623 237.991L329.911 239.684Z" fill="#FD3E72"/>
<path d="M337.092 235.527L331.407 238.817L331.119 237.124L336.804 233.82L337.092 235.527Z" fill="#FD3E72"/>
<path d="M344.782 267.934L347.459 266.392L347.734 268.099L345.07 269.641L344.782 267.934Z" fill="#FD3E72"/>
<path d="M339.77 270.852L343.299 268.801L343.573 270.508L340.058 272.559L339.77 270.852Z" fill="#FD3E72"/>
<path d="M332.588 275.01L338.273 271.72L338.561 273.427L332.877 276.717L332.588 275.01Z" fill="#FD3E72"/>
<path d="M348.846 261.615L354.531 258.325L354.819 260.032L349.134 263.322L348.846 261.615Z" fill="#FD3E72"/>
<path d="M339.564 266.695L347.212 262.262L347.501 263.969L339.852 268.402L339.564 266.695Z" fill="#FD3E72"/>
<path d="M335.664 268.952L338.067 267.562L338.356 269.269L335.953 270.66L335.664 268.952Z" fill="#FD3E72"/>
<path d="M331.929 271.114L334.332 269.724L334.62 271.431L332.218 272.821L331.929 271.114Z" fill="#FD3E72"/>
<path d="M332.451 249.115L340.016 244.737L340.305 246.444L332.739 250.822L332.451 249.115Z" fill="#FD3E72"/>
<path d="M328.551 251.373L330.954 249.982L331.242 251.689L328.839 253.08L328.551 251.373Z" fill="#FD3E72"/>
<path d="M332.973 244.544L335.637 242.988L335.925 244.695L333.261 246.237L332.973 244.544Z" fill="#FD3E72"/>
<path d="M342.392 247.656L345.056 246.114L345.344 247.821L342.666 249.363L342.392 247.656Z" fill="#FD3E72"/>
<path d="M346.182 245.453L352.594 241.75L352.869 243.457L346.47 247.16L346.182 245.453Z" fill="#FD3E72"/>
<path d="M353.72 241.102L357.524 238.886L357.812 240.593L354.009 242.796L353.72 241.102Z" fill="#FD3E72"/>
<path d="M327.947 247.449L331.476 245.412L331.764 247.105L328.235 249.156L327.947 247.449Z" fill="#FD3E72"/>
<path d="M327.618 243.443L330.282 241.901L330.57 243.608L327.906 245.15L327.618 243.443Z" fill="#FD3E72"/>
<path d="M322.593 246.361L326.121 244.31L326.41 246.017L322.881 248.055L322.593 246.361Z" fill="#FD3E72"/>
<path d="M338.52 249.899L340.909 248.509L341.198 250.216L338.808 251.606L338.52 249.899Z" fill="#FD3E72"/>
<path d="M334.785 252.061L337.174 250.67L337.462 252.377L335.073 253.768L334.785 252.061Z" fill="#FD3E72"/>
<path d="M353.184 271.623L361.354 266.887L361.629 268.595L353.459 273.33L353.184 271.623Z" fill="#FD3E72"/>
<path d="M344.026 276.924L351.688 272.491L351.977 274.198L344.315 278.631L344.026 276.924Z" fill="#FD3E72"/>
<path d="M340.14 279.181L342.529 277.791L342.818 279.498L340.429 280.888L340.14 279.181Z" fill="#FD3E72"/>
<path d="M336.405 281.343L338.794 279.966L339.083 281.659L336.693 283.05L336.405 281.343Z" fill="#FD3E72"/>
<path d="M334.36 282.527L329.197 285.528L329.485 287.235L334.648 284.234L334.36 282.527Z" fill="#FD3E72"/>
<g style="mix-blend-mode:lighten">
<g style="mix-blend-mode:lighten">
<path d="M127.874 392C125.884 392.001 123.929 391.479 122.203 390.485L9.47171 325.231C8.97591 324.941 8.56453 324.526 8.27861 324.028C7.99269 323.529 7.84222 322.963 7.84222 322.388C7.84222 321.813 7.99269 321.248 8.27861 320.749C8.56453 320.25 8.97591 319.835 9.47171 319.545L80.0626 278.686C80.1602 278.627 80.2717 278.597 80.3852 278.597C80.4988 278.597 80.6103 278.627 80.7079 278.686L198.794 347.038C199.287 347.328 199.695 347.743 199.979 348.24C200.263 348.737 200.412 349.3 200.412 349.873C200.412 350.447 200.263 351.01 199.979 351.507C199.695 352.004 199.287 352.419 198.794 352.709L133.531 390.458C131.812 391.459 129.861 391.99 127.874 392ZM122.848 389.37C124.382 390.23 126.11 390.681 127.867 390.681C129.624 390.681 131.352 390.23 132.886 389.37L198.149 351.594C198.448 351.418 198.696 351.167 198.868 350.865C199.04 350.563 199.131 350.221 199.131 349.873C199.131 349.526 199.04 349.184 198.868 348.882C198.696 348.58 198.448 348.329 198.149 348.153L80.3921 279.993L80.1587 280.117L10.1308 320.674C9.83155 320.849 9.5832 321.099 9.41057 321.399C9.23794 321.7 9.14709 322.041 9.14709 322.388C9.14709 322.735 9.23794 323.076 9.41057 323.377C9.5832 323.678 9.83155 323.928 10.1308 324.102L122.848 389.37Z" fill="#FD3E72"/>
</g>
</g>
<path d="M80.2407 252.281L95.9489 158.846L94.6856 158.323L96.5805 157.222C96.8076 157.099 97.0646 157.043 97.3221 157.06C97.5795 157.077 97.8269 157.167 98.036 157.318L223.564 229.979C224.094 230.322 224.524 230.8 224.811 231.363C225.098 231.926 225.232 232.555 225.198 233.187L209.367 327.351C209.347 327.555 209.276 327.75 209.161 327.918C209.045 328.087 208.889 328.223 208.707 328.315L206.854 329.389L206.538 327.654H206.634L81.9433 255.544C81.3902 255.207 80.9394 254.725 80.6394 254.15C80.3393 253.575 80.2015 252.929 80.2407 252.281Z" fill="#797681"/>
<path d="M222.864 232.554L224.937 231.645C225.174 232.127 225.264 232.668 225.198 233.201L209.366 327.365C209.346 327.569 209.276 327.764 209.16 327.932C209.045 328.101 208.889 328.237 208.707 328.329L206.854 329.403L206.538 327.668H206.634L200.318 324.006L222.864 232.554Z" fill="#4B4756"/>
<path d="M79.897 256.604L205.425 329.265C206.4 329.83 207.224 329.499 207.403 328.494L223.234 234.329C223.27 233.7 223.137 233.072 222.85 232.51C222.562 231.949 222.131 231.475 221.6 231.136L96.0721 158.475C95.0972 157.91 94.2733 158.227 94.1086 159.246L78.2768 253.41C78.2359 254.039 78.3647 254.668 78.6498 255.23C78.9349 255.792 79.3658 256.267 79.897 256.604Z" fill="#747378"/>
<path d="M97.7067 164.477L218.704 234.522L203.71 323.207L82.7949 253.217L97.7067 164.477Z" fill="#FFE9E9"/>
<path d="M0.999023 301.194L7.8645 304.774L76.5193 265.015C77.2305 264.695 78.0062 264.544 78.7853 264.575C79.5644 264.606 80.3257 264.818 81.0093 265.194L199.48 333.78C200.62 333.147 205.783 330.655 205.783 330.655L203.27 337.194C203.133 337.529 202.886 337.806 202.569 337.979L130.235 379.844C129.525 380.171 128.749 380.325 127.968 380.294C127.188 380.263 126.426 380.047 125.745 379.665L4.51415 309.454C4.05924 309.229 3.69914 308.848 3.49806 308.381L0.999023 301.194Z" fill="#383442"/>
<path d="M2.05659 302.351L126.308 374.269C127.005 374.656 127.782 374.875 128.578 374.909C129.374 374.942 130.167 374.789 130.894 374.461L205.041 331.537C206.222 330.862 206.071 329.664 204.712 328.88L80.4604 256.921C79.7646 256.53 78.987 256.309 78.1902 256.275C77.3935 256.242 76.6001 256.397 75.8742 256.728L1.72705 299.598C0.546187 300.341 0.697228 301.525 2.05659 302.351Z" fill="#FAFAFA"/>
<path d="M2.05711 301.594L126.309 373.525C127.005 373.912 127.783 374.132 128.579 374.165C129.375 374.199 130.168 374.045 130.895 373.718L205.042 330.793C205.373 330.624 205.631 330.34 205.77 329.994C205.857 330.292 205.831 330.612 205.697 330.892C205.562 331.172 205.329 331.392 205.042 331.509L130.895 374.433C130.168 374.761 129.375 374.914 128.579 374.881C127.783 374.848 127.005 374.628 126.309 374.241L2.05711 302.351C1.13713 301.814 0.793861 301.112 0.999825 300.492C1.20983 300.974 1.58485 301.365 2.05711 301.594Z" fill="white"/>
<path d="M163.779 358.684V357.308C163.779 357.17 163.697 357.115 163.601 357.17L158.795 359.923C158.744 359.962 158.702 360.012 158.674 360.069C158.645 360.126 158.63 360.19 158.63 360.254V361.63C158.63 361.754 158.699 361.809 158.795 361.754L163.601 359.001C163.652 358.965 163.695 358.917 163.725 358.863C163.756 358.808 163.775 358.747 163.779 358.684Z" fill="white"/>
<path d="M156.599 362.842V361.465C156.599 361.327 156.517 361.272 156.421 361.327L151.615 364.081C151.56 364.12 151.515 364.171 151.484 364.231C151.453 364.291 151.437 364.357 151.436 364.425V365.802C151.436 365.925 151.519 365.994 151.615 365.939L156.421 363.186C156.475 363.147 156.52 363.095 156.551 363.035C156.582 362.975 156.599 362.909 156.599 362.842Z" fill="white"/>
<path d="M185.708 327.489L82.4646 267.728C82.1265 267.532 81.7429 267.429 81.3524 267.429C80.962 267.429 80.5784 267.532 80.2402 267.728L43.4962 289.052C43.3766 289.123 43.2774 289.223 43.2085 289.344C43.1396 289.465 43.1034 289.601 43.1034 289.741C43.1034 289.88 43.1396 290.016 43.2085 290.137C43.2774 290.258 43.3766 290.358 43.4962 290.429L146.698 350.177C147.038 350.366 147.421 350.465 147.81 350.465C148.199 350.465 148.582 350.366 148.922 350.177L185.735 328.866C185.857 328.796 185.958 328.694 186.027 328.571C186.096 328.449 186.131 328.31 186.128 328.169C186.126 328.028 186.085 327.891 186.011 327.771C185.937 327.652 185.832 327.554 185.708 327.489Z" fill="#EAEAEA"/>
<path d="M185.708 328.866L185.351 329.086L82.4652 269.531C82.127 269.335 81.7434 269.232 81.353 269.232C80.9625 269.232 80.5789 269.335 80.2408 269.531L43.84 290.649L43.4693 290.429C43.3497 290.358 43.2505 290.258 43.1816 290.137C43.1127 290.016 43.0765 289.88 43.0765 289.741C43.0765 289.601 43.1127 289.465 43.1816 289.344C43.2505 289.223 43.3497 289.123 43.4693 289.052L80.2408 267.728C80.5789 267.532 80.9625 267.429 81.353 267.429C81.7434 267.429 82.127 267.532 82.4652 267.728L185.708 327.489C185.831 327.557 185.934 327.656 186.006 327.777C186.077 327.898 186.115 328.037 186.115 328.177C186.115 328.318 186.077 328.456 186.006 328.577C185.934 328.698 185.831 328.798 185.708 328.866Z" fill="#DADADA"/>
<path d="M86.1038 278.135L173.501 328.714L177.277 326.291L90.0995 275.836L86.1038 278.135Z" fill="#FD3E72"/>
<path d="M80.4194 286.161L159.771 332.087L162.489 329.044L84.4151 283.848L80.4194 286.161Z" fill="#FD3E72"/>
<path d="M61.3196 282.472L160.361 339.811L164.357 337.498L65.3016 280.159L61.3196 282.472Z" fill="#FD3E72"/>
<path d="M54.9482 286.161L154.003 343.5L157.985 341.187L58.9439 283.848L54.9482 286.161Z" fill="#FD3E72"/>
<path d="M48.5767 289.85L147.632 347.175L151.614 344.876L52.5724 287.538L48.5767 289.85Z" fill="#FD3E72"/>
<path d="M172.568 328.177L176.564 330.49L180.546 328.177L176.564 325.878L172.568 328.177Z" fill="#FD3E72"/>
<path d="M158.507 331.357L166.787 336.148L170.769 333.835L162.489 329.044L158.507 331.357Z" fill="#FD3E72"/>
<path d="M78.4829 341.958L50.6503 325.837C50.4128 325.757 50.2063 325.605 50.0599 325.401C49.9136 325.197 49.8349 324.952 49.8349 324.701C49.8349 324.45 49.9136 324.205 50.0599 324.002C50.2063 323.798 50.4128 323.645 50.6503 323.565L69.6814 312.552C70.2916 312.24 70.9668 312.078 71.6518 312.078C72.3367 312.078 73.0119 312.24 73.6222 312.552L101.469 328.673C101.706 328.753 101.913 328.905 102.059 329.109C102.205 329.313 102.284 329.558 102.284 329.809C102.284 330.06 102.205 330.305 102.059 330.508C101.913 330.712 101.706 330.865 101.469 330.944L82.4237 341.958C81.8135 342.27 81.1383 342.432 80.4533 342.432C79.7684 342.432 79.0932 342.27 78.4829 341.958Z" fill="#FFC9D8"/>
<path d="M101.469 329.595L73.6227 313.474C73.0124 313.163 72.3372 313 71.6523 313C70.9673 313 70.2921 313.163 69.6819 313.474L50.6508 324.488C50.3647 324.646 50.1272 324.879 49.9642 325.162C49.6759 324.612 49.8956 323.992 50.6508 323.565L69.6819 312.552C70.2921 312.24 70.9673 312.078 71.6523 312.078C72.3372 312.078 73.0124 312.24 73.6227 312.552L101.469 328.673C102.224 329.1 102.444 329.719 102.156 330.27C101.989 329.989 101.753 329.756 101.469 329.595Z" fill="#FFAAC1"/>
<g opacity="0.11">
<g opacity="0.11">
<path opacity="0.11" d="M204.959 269.682L177.127 253.561C176.884 253.485 176.672 253.333 176.522 253.127C176.371 252.922 176.29 252.673 176.29 252.419C176.29 252.164 176.371 251.915 176.522 251.71C176.672 251.504 176.884 251.352 177.127 251.276L196.158 240.262C196.768 239.951 197.443 239.788 198.128 239.788C198.813 239.788 199.488 239.951 200.098 240.262L227.945 256.37C228.181 256.453 228.385 256.608 228.529 256.812C228.674 257.017 228.752 257.262 228.752 257.512C228.752 257.763 228.674 258.008 228.529 258.212C228.385 258.417 228.181 258.572 227.945 258.655L208.9 269.668C208.289 269.976 207.615 270.137 206.931 270.14C206.247 270.142 205.572 269.985 204.959 269.682Z" fill="url(#paint1_linear)"/>
<path opacity="0.11" d="M227.944 257.306L200.098 241.199C199.488 240.887 198.812 240.724 198.127 240.724C197.442 240.724 196.767 240.887 196.157 241.199L177.126 252.212C176.834 252.362 176.595 252.597 176.439 252.887C176.151 252.336 176.439 251.716 177.126 251.276L196.157 240.262C196.767 239.951 197.442 239.788 198.127 239.788C198.812 239.788 199.488 239.951 200.098 240.262L227.944 256.37C228.686 256.81 228.905 257.43 228.631 257.98C228.467 257.697 228.23 257.464 227.944 257.306Z" fill="#9198DB"/>
<path opacity="0.11" d="M240.179 294.862L136.867 235.101C136.529 234.905 136.145 234.802 135.755 234.802C135.364 234.802 134.981 234.905 134.643 235.101L97.9397 256.425C97.8166 256.493 97.7138 256.592 97.6422 256.714C97.5706 256.835 97.5328 256.973 97.5328 257.114C97.5328 257.254 97.5706 257.393 97.6422 257.514C97.7138 257.635 97.8166 257.734 97.9397 257.802L201.142 317.495C201.48 317.69 201.863 317.793 202.254 317.793C202.644 317.793 203.028 317.69 203.366 317.495L240.179 296.197C240.292 296.127 240.386 296.029 240.451 295.912C240.516 295.795 240.55 295.664 240.55 295.53C240.55 295.396 240.516 295.264 240.451 295.147C240.386 295.031 240.292 294.932 240.179 294.862Z" fill="#ADB1F2"/>
<path opacity="0.11" d="M240.179 296.239L239.808 296.459L136.867 236.904C136.529 236.708 136.145 236.605 135.755 236.605C135.364 236.605 134.981 236.708 134.642 236.904L98.2554 258.008L97.8847 257.802C97.7615 257.734 97.6587 257.635 97.5872 257.514C97.5156 257.393 97.4778 257.254 97.4778 257.114C97.4778 256.973 97.5156 256.835 97.5872 256.714C97.6587 256.592 97.7615 256.493 97.8847 256.425L134.642 235.101C134.981 234.905 135.364 234.802 135.755 234.802C136.145 234.802 136.529 234.905 136.867 235.101L240.124 294.862C240.25 294.925 240.357 295.02 240.433 295.138C240.51 295.256 240.553 295.393 240.559 295.534C240.564 295.675 240.532 295.815 240.465 295.939C240.398 296.063 240.299 296.166 240.179 296.239Z" fill="#9198DB"/>
<path opacity="0.11" d="M107.552 254.966L197.503 307.032L193.947 309.097L103.995 257.031L107.552 254.966Z" fill="#24126A"/>
<path opacity="0.11" d="M117.04 249.487L202.529 298.978L198.972 301.029L113.47 251.538L117.04 249.487Z" fill="#24126A"/>
<path opacity="0.11" d="M208.913 302.667L216.904 307.293L213.334 309.358L205.357 304.733L208.913 302.667Z" fill="#24126A"/>
<path opacity="0.11" d="M201.869 309.565L207.417 312.773L203.86 314.838L198.299 311.616L201.869 309.565Z" fill="#24126A"/>
<path opacity="0.11" d="M122.971 246.045L222.836 303.852L219.28 305.917L119.415 248.11L122.971 246.045Z" fill="#24126A"/>
<path opacity="0.11" d="M128.917 242.604L228.782 300.41L225.212 302.475L125.346 244.669L128.917 242.604Z" fill="#24126A"/>
<path opacity="0.11" d="M134.849 239.175L234.714 296.982L231.158 299.033L131.293 241.227L134.849 239.175Z" fill="#24126A"/>
</g>
</g>
<path d="M124.811 197.352L134.588 203.024L134.876 201.316L125.086 195.645L124.811 197.352Z" fill="#FD3E72"/>
<path d="M136.167 203.932L141.508 207.016L141.783 205.323L136.455 202.225L136.167 203.932Z" fill="#FD3E72"/>
<path d="M149.801 211.821L153.66 214.065L153.948 212.357L150.09 210.127L149.801 211.821Z" fill="#FD3E72"/>
<path d="M146.987 210.196L148.305 210.954L148.594 209.26L147.276 208.489L146.987 210.196Z" fill="#FD3E72"/>
<path d="M143.101 207.938L145.49 209.329L145.779 207.622L143.389 206.231L143.101 207.938Z" fill="#FD3E72"/>
<path d="M132.556 210.389L136.414 212.633L136.703 210.926L132.83 208.682L132.556 210.389Z" fill="#FD3E72"/>
<path d="M123.493 205.144L131.059 209.521L131.334 207.814L123.782 203.437L123.493 205.144Z" fill="#FD3E72"/>
<path d="M134.341 232.76L141.893 237.138L142.181 235.444L134.615 231.053L134.341 232.76Z" fill="#FD3E72"/>
<path d="M130.441 230.502L132.844 231.893L133.132 230.186L130.729 228.809L130.441 230.502Z" fill="#FD3E72"/>
<path d="M135.59 224.968L143.156 229.346L143.445 227.639L135.879 223.261L135.59 224.968Z" fill="#FD3E72"/>
<path d="M131.704 222.71L134.093 224.1L134.382 222.393L131.993 221.003L131.704 222.71Z" fill="#FD3E72"/>
<path d="M128.752 266.406L114.513 258.16L114.225 259.853L128.464 268.113L128.752 266.406Z" fill="#FD3E72"/>
<path d="M133.778 269.324L130.249 267.273L129.961 268.98L133.49 271.017L133.778 269.324Z" fill="#FD3E72"/>
<path d="M158.809 270.976L144.556 262.716L144.268 264.423L158.521 272.683L158.809 270.976Z" fill="#FD3E72"/>
<path d="M163.821 273.881L160.292 271.844L160.018 273.551L163.533 275.588L163.821 273.881Z" fill="#FD3E72"/>
<path d="M119.017 256.494L115.159 254.264L114.87 255.971L118.742 258.201L119.017 256.494Z" fill="#FD3E72"/>
<path d="M142.497 261.546L138.638 259.316L138.35 261.009L142.208 263.253L142.497 261.546Z" fill="#FD3E72"/>
<path d="M128.079 261.752L120.513 257.361L120.225 259.068L127.79 263.446L128.079 261.752Z" fill="#FD3E72"/>
<path d="M131.965 263.996L129.576 262.606L129.287 264.313L131.676 265.703L131.965 263.996Z" fill="#FD3E72"/>
<path d="M141.097 269.283L133.531 264.892L133.243 266.599L140.809 270.99L141.097 269.283Z" fill="#FD3E72"/>
<path d="M144.982 271.541L142.593 270.15L142.304 271.857L144.693 273.234L144.982 271.541Z" fill="#FD3E72"/>
<path d="M141.852 265.442L137.994 263.212L137.705 264.905L141.564 267.149L141.852 265.442Z" fill="#FD3E72"/>
<path d="M150.9 270.687L143.348 266.31L143.06 268.017L150.612 272.394L150.9 270.687Z" fill="#FD3E72"/>
<path d="M154.8 272.945L152.397 271.555L152.109 273.262L154.512 274.652L154.8 272.945Z" fill="#FD3E72"/>
<path d="M123.713 254.938L115.818 250.368L115.529 252.075L123.425 256.645L123.713 254.938Z" fill="#FD3E72"/>
<path d="M130.921 259.123L125.209 255.805L124.921 257.512L130.633 260.83L130.921 259.123Z" fill="#FD3E72"/>
<path d="M136.276 262.221L132.418 259.99L132.13 261.698L135.988 263.928L136.276 262.221Z" fill="#FD3E72"/>
<path d="M173.708 279.594L165.812 275.01L165.524 276.717L173.419 281.301L173.708 279.594Z" fill="#FD3E72"/>
<path d="M180.916 283.766L175.204 280.462L174.916 282.169L180.628 285.473L180.916 283.766Z" fill="#FD3E72"/>
<path d="M186.257 286.863L182.399 284.633L182.124 286.34L185.983 288.57L186.257 286.863Z" fill="#FD3E72"/>
<path d="M170.618 228.148L178.513 232.732L178.801 231.025L170.906 226.44L170.618 228.148Z" fill="#FD3E72"/>
<path d="M163.409 223.977L169.121 227.281L169.41 225.574L163.698 222.27L163.409 223.977Z" fill="#FD3E72"/>
<path d="M158.054 220.865L161.926 223.109L162.201 221.402L158.342 219.172L158.054 220.865Z" fill="#FD3E72"/>
<path d="M167.995 222.338L175.89 226.923L176.179 225.216L168.283 220.631L167.995 222.338Z" fill="#FD3E72"/>
<path d="M160.786 218.167L166.498 221.471L166.787 219.777L161.075 216.46L160.786 218.167Z" fill="#FD3E72"/>
<path d="M155.446 215.07L159.304 217.3L159.592 215.593L155.72 213.363L155.446 215.07Z" fill="#FD3E72"/>
<path d="M136.112 229.539L138.776 231.094L139.064 229.387L136.4 227.845L136.112 229.539Z" fill="#FD3E72"/>
<path d="M131.1 226.633L134.615 228.671L134.903 226.978L131.388 224.926L131.1 226.633Z" fill="#FD3E72"/>
<path d="M124.427 251.07L116.532 246.499L116.243 248.206L124.139 252.777L124.427 251.07Z" fill="#FD3E72"/>
<path d="M131.622 255.254L125.923 251.937L125.635 253.644L131.333 256.961L131.622 255.254Z" fill="#FD3E72"/>
<path d="M136.977 258.352L133.118 256.122L132.83 257.815L136.702 260.059L136.977 258.352Z" fill="#FD3E72"/>
<path d="M119.855 244.145L117.177 242.603L116.889 244.31L119.567 245.852L119.855 244.145Z" fill="#FD3E72"/>
<path d="M124.866 247.063L121.337 245.012L121.063 246.719L124.578 248.771L124.866 247.063Z" fill="#FD3E72"/>
<path d="M132.048 251.221L126.363 247.931L126.075 249.638L131.759 252.928L132.048 251.221Z" fill="#FD3E72"/>
<path d="M139.737 218.814L142.415 220.356L142.703 218.649L140.026 217.107L139.737 218.814Z" fill="#FD3E72"/>
<path d="M134.725 215.896L138.254 217.947L138.543 216.24L135.014 214.189L134.725 215.896Z" fill="#FD3E72"/>
<path d="M127.544 211.738L133.228 215.028L133.517 213.321L127.832 210.031L127.544 211.738Z" fill="#FD3E72"/>
<path d="M143.802 225.133L149.486 228.424L149.775 226.717L144.09 223.426L143.802 225.133Z" fill="#FD3E72"/>
<path d="M134.52 220.053L142.168 224.486L142.456 222.779L134.808 218.346L134.52 220.053Z" fill="#FD3E72"/>
<path d="M130.633 217.795L133.023 219.186L133.311 217.479L130.922 216.088L130.633 217.795Z" fill="#FD3E72"/>
<path d="M126.898 215.634L129.287 217.024L129.576 215.317L127.187 213.927L126.898 215.634Z" fill="#FD3E72"/>
<path d="M127.406 237.633L134.972 242.011L135.26 240.304L127.695 235.926L127.406 237.633Z" fill="#FD3E72"/>
<path d="M123.521 235.375L125.91 236.766L126.199 235.059L123.809 233.668L123.521 235.375Z" fill="#FD3E72"/>
<path d="M127.929 242.204L130.593 243.759L130.881 242.052L128.217 240.51L127.929 242.204Z" fill="#FD3E72"/>
<path d="M137.347 239.092L140.011 240.634L140.299 238.927L137.636 237.385L137.347 239.092Z" fill="#FD3E72"/>
<path d="M141.137 241.295L147.55 244.998L147.824 243.291L141.426 239.588L141.137 241.295Z" fill="#FD3E72"/>
<path d="M148.676 245.645L152.493 247.862L152.768 246.155L148.964 243.952L148.676 245.645Z" fill="#FD3E72"/>
<path d="M122.902 239.299L126.431 241.351L126.72 239.644L123.191 237.592L122.902 239.299Z" fill="#FD3E72"/>
<path d="M122.573 243.305L125.237 244.847L125.526 243.14L122.862 241.598L122.573 243.305Z" fill="#FD3E72"/>
<path d="M117.562 240.387L121.077 242.438L121.365 240.731L117.836 238.693L117.562 240.387Z" fill="#FD3E72"/>
<path d="M133.476 236.849L135.865 238.239L136.153 236.532L133.764 235.142L133.476 236.849Z" fill="#FD3E72"/>
<path d="M129.74 234.687L132.13 236.078L132.418 234.37L130.029 232.98L129.74 234.687Z" fill="#FD3E72"/>
<path d="M148.14 215.125L156.31 219.86L156.584 218.153L148.428 213.417L148.14 215.125Z" fill="#FD3E72"/>
<path d="M138.982 209.824L146.644 214.257L146.932 212.55L139.27 208.117L138.982 209.824Z" fill="#FD3E72"/>
<path d="M135.096 207.567L137.485 208.957L137.773 207.25L135.384 205.86L135.096 207.567Z" fill="#FD3E72"/>
<path d="M131.361 205.405L133.75 206.782L134.038 205.089L131.649 203.698L131.361 205.405Z" fill="#FD3E72"/>
<path d="M129.315 204.222L124.152 201.22L124.441 199.527L129.603 202.515L129.315 204.222Z" fill="#FD3E72"/>
<path d="M77.4675 273.124L81.4494 275.437L85.4451 273.124L81.4494 270.825L77.4675 273.124Z" fill="#FD3E72"/>
<path d="M67.691 278.782L75.9708 283.573L79.9527 281.274L71.673 276.483L67.691 278.782Z" fill="#FD3E72"/>
<defs>
<filter id="filter0_d" x="124.648" y="114.695" width="253.705" height="128.159" filterUnits="userSpaceOnUse" color-interpolation-filters="sRGB">
<feFlood flood-opacity="0" result="BackgroundImageFix"/>
<feColorMatrix in="SourceAlpha" type="matrix" values="0 0 0 0 0 0 0 0 0 0 0 0 0 0 0 0 0 0 127 0"/>
<feOffset dy="4"/>
<feGaussianBlur stdDeviation="6"/>
<feColorMatrix type="matrix" values="0 0 0 0 0 0 0 0 0 0 0 0 0 0 0 0 0 0 0.15 0"/>
<feBlend mode="normal" in2="BackgroundImageFix" result="effect1_dropShadow"/>
<feBlend mode="normal" in="SourceGraphic" in2="effect1_dropShadow" result="shape"/>
</filter>
<linearGradient id="paint0_linear" x1="127058" y1="4810.15" x2="129061" y2="4810.15" gradientUnits="userSpaceOnUse">
<stop stop-color="#C0BFF6"/>
<stop offset="0.29" stop-color="#C5C4F7"/>
<stop offset="0.64" stop-color="#D3D2F9"/>
<stop offset="1" stop-color="#E9E9FD"/>
</linearGradient>
<linearGradient id="paint1_linear" x1="5907.63" y1="4810.15" x2="3903.59" y2="4810.15" gradientUnits="userSpaceOnUse">
<stop stop-color="#C0BFF6"/>
<stop offset="0.29" stop-color="#C5C4F7"/>
<stop offset="0.64" stop-color="#D3D2F9"/>
<stop offset="1" stop-color="#E9E9FD"/>
</linearGradient>
</defs>
</svg>
