<svg xmlns="http://www.w3.org/2000/svg" width="67" height="73" fill="none"  xmlns:v="https://vecta.io/nano"><path d="M22.332 22.999a3 3 0 0 1 1.352-2.507L39.864 9.858a3 3 0 0 1 3.301.003l16.1 10.63a3 3 0 0 1 1.347 2.504v44.982a3 3 0 0 1-3 3h-32.28a3 3 0 0 1-3-3V22.999z" fill="#cb1a4a"/><circle cx="41.871" cy="25.918" r="3.386" fill="#fafafa" stroke="#dc2d5d" stroke-width="2"/><path d="M27.472 11.664a3 3 0 0 1 2.544-1.281l19.353.545a3 3 0 0 1 2.704 1.893l7.114 17.933a3 3 0 0 1-.329 2.824L33.103 70.457a3 3 0 0 1-4.177.742L2.461 52.717a3 3 0 0 1-.742-4.177l25.753-36.876z" fill="#fd3e72"/><circle cx="41.819" cy="25.245" r="3.386" transform="rotate(34.929 41.819 25.245)" fill="#fafafa" stroke="#dc2d5d" stroke-width="2"/><path d="M6.9 34.571c-2.392-1.316-3.708-2.991-3.708-4.665 0-4.665 9.69-8.374 21.532-8.374 6.819 0 12.919 1.196 16.867 3.23" stroke="#5b5863" stroke-width="3" stroke-miterlimit="10" stroke-linecap="round" stroke-linejoin="round"/><circle cx="25.761" cy="47.76" r="12.76" transform="rotate(34.93 25.761 47.76)" fill="#ffdae4"/><path d="M23.846 43.894l-3.424 4.902c-.113.163-.291.27-.494.3s-.414-.022-.588-.143l-1.308-.913c-.173-.121-.295-.302-.337-.502s-.002-.404.111-.567l2.996-4.289c.113-.163.291-.27.494-.3s.414.022.588.143l1.962 1.37c.694.484 1.539.691 2.351.574s1.522-.548 1.976-1.198l.428-.613c.227-.325.582-.541.988-.599a1.65 1.65 0 0 1 1.849 1.291 1.45 1.45 0 0 1-.222 1.134l-2.14 3.064 1.962 1.37a1.65 1.65 0 0 1 .674 1.005 1.45 1.45 0 0 1-.222 1.134l-2.794 2.607c-.357.31-.76.508-1.151.565s-.746-.032-1.013-.253l-4.577-3.196c-.52-.363-.884-.906-1.011-1.507s-.007-1.214.333-1.701" fill="#fd3e72"/><path d="M23.846 43.894l-3.424 4.902c-.113.163-.291.27-.494.3s-.414-.022-.588-.143l-1.308-.913c-.173-.121-.295-.302-.337-.502s-.002-.404.111-.567l2.996-4.289c.113-.163.291-.27.494-.3s.414.022.588.143l1.962 1.37zm0 0c.694.484 1.539.691 2.351.574s1.522-.548 1.976-1.198l.428-.613c.227-.325.582-.541.988-.599a1.65 1.65 0 0 1 1.849 1.291 1.45 1.45 0 0 1-.222 1.134l-2.14 3.064 1.962 1.37a1.65 1.65 0 0 1 .674 1.005 1.45 1.45 0 0 1-.222 1.134l-2.794 2.607c-.357.31-.76.508-1.151.565s-.746-.032-1.013-.253l-4.577-3.196c-.52-.363-.884-.906-1.011-1.507s-.007-1.214.333-1.701" stroke="#2c3e50" stroke-linecap="round" stroke-linejoin="round"/></svg>