<svg xmlns="http://www.w3.org/2000/svg" xmlns:xlink="http://www.w3.org/1999/xlink" width="398" height="366" fill="none" xmlns:v="https://vecta.io/nano"><style><![CDATA[.B{stroke:#263238}.C{stroke-linejoin:round}.D{fill:#fd3e72}.E{stroke-width:.53}.F{stroke-linecap:round}.G{fill:#fff}.H{fill:#263238}.I{stroke-width:1.06}.J{stroke-miterlimit:10}.K{fill:#ffbe9d}]]></style><g clip-path="url(#A)"><path d="M77.107 22.68s45.347-34.698 102.282-16.907 79.487 68.057 111.395 103.118c16.74 18.367 41.99 25.733 62.068 40.092 64.17 45.914 51.411 144.234-.316 179.862-44.779 30.848-99.575 32.55-170.013 6.51s-120.9-41.85-162.936-111.265S21.14 69.961 77.107 22.68z" fill="#ffd6e1"/><g class="D"><path d="M19.901 206.039s-.372-4.548 5.478-11.449 9.653-10.871 9.653-10.871 4.045 10.23-1.349 17.065c-3.987 4.851-8.373 9.358-13.113 13.476l-.67-8.221zm11.583 27.667s-.372-4.547 5.478-11.448 9.644-10.872 9.644-10.872 4.046 10.23-1.349 17.066c-3.985 4.84-8.368 9.338-13.104 13.448l-.67-8.194z"/><path d="M20.942 213.767s-.856-4.483-8.37-9.57S.37 196.292.37 196.292s-1.181 10.919 5.85 16.089a112.3 112.3 0 0 0 16.21 9.468l-1.488-8.082zm13.929 32.652s-1.321-4.371-9.3-8.649-12.964-6.584-12.964-6.584 0 10.983 7.505 15.382c5.486 3.034 11.216 5.604 17.131 7.682l-2.371-7.831zm.923 36.773s-.372-4.548-7.273-10.398-11.29-9.151-11.29-9.151-2.325 10.732 4.12 16.619a112.31 112.31 0 0 0 15.122 11.16l-.679-8.23zm.833 8.928s-1.014-4.455 3.794-12.09 7.998-12.09 7.998-12.09 5.459 9.532 1.097 17.084c-3.256 5.359-6.955 10.435-11.058 15.177l-1.832-8.081zm8.456 25.965s-.372-4.548-7.273-10.397-11.29-9.152-11.29-9.152-2.325 10.733 4.12 16.62a112.5 112.5 0 0 0 15.122 11.16l-.679-8.231zm-2.278 24.357s.791-4.501-4.399-11.904-8.602-11.718-8.602-11.718-4.966 9.793-.223 17.121a112.38 112.38 0 0 0 11.811 14.601l1.414-8.1z"/></g><g class="B C E F"><path d="M19.225 204.96a130.17 130.17 0 0 0 2.911 13.95c3.59 12.806 10.574 20.683 14.062 32.234s-2.502 27.286.679 42.231 9.746 22.85 8.9 33.071-7.44 38.232-7.44 38.232"/><path d="M21.254 216.78l-7.301-4.706m6.475-1.329l2.455-5.348m12.887 45.245l-12.369-7.664m8.755-1.078s4.018-9.784 8.937-16.461m-4.995 64.253c-3.78-5.779-8.379-10.979-13.652-15.438m15.291 21.734c1.407-4.249 3.164-8.374 5.255-12.331l3.376-5.906m-.595 48.695a76.64 76.64 0 0 0-6.036-10.044 67.25 67.25 0 0 0-7.44-8.231m9.091 42.362a19.53 19.53 0 0 0-2.548-9.942c-2.79-4.436-5.989-10.276-7.31-12.583"/></g><g fill="#c6ff00"><path d="M66.66 263.42s.26-2.893-3.432-7.31l-6.092-6.966s-2.623 6.51.781 10.872a71.49 71.49 0 0 0 8.277 8.621l.465-5.217z"/><path d="M65.94 268.33s.567-2.855 5.348-6.054l7.803-4.976s.698 6.957-3.794 10.23c-3.281 2.27-6.747 4.261-10.36 5.952l1.004-5.152z"/></g><path d="M49.481 341.809s-.567-2.855-5.357-6.045l-7.803-4.966s-.688 6.957 3.813 10.23c3.285 2.267 6.753 4.255 10.37 5.943l-1.023-5.162z" class="D"/><g class="B C E F"><path d="M65.722 270.255l4.669-2.966m-4.118-.884l-1.534-3.413m-14.501 81.849a42.81 42.81 0 0 0-5.692-5.012 28.09 28.09 0 0 1-3.655-2.679"/></g><g class="D"><path d="M59.129 280.978s.26-2.892-3.432-7.31l-6.091-6.965s-2.623 6.51.781 10.871a71.42 71.42 0 0 0 8.277 8.621l.465-5.217z"/><path d="M56.916 289.051s.865-2.79 5.952-5.46l8.277-4.129s0 6.985-4.845 9.756c-3.501 1.911-7.157 3.525-10.928 4.827l1.544-4.994z"/><use xlink:href="#B"/><path d="M55.593 318.122s.67-2.79-2.353-7.728l-5.041-7.756s-3.515 6.036-.772 10.872a71.53 71.53 0 0 0 6.966 9.709l1.2-5.097zm-5.506 16.489s.26-2.892 4.65-6.584l7.226-5.775s1.432 6.835-2.697 10.555a71.46 71.46 0 0 1-9.672 7.012l.493-5.208zm1.335 15.503s-.484-2.864 2.855-7.551l5.533-7.44s3.116 6.259.065 10.899c-2.264 3.285-4.8 6.374-7.579 9.235l-.874-5.143z"/></g><g class="B C E F"><path d="M67.07 262.713a82.98 82.98 0 0 1-1.916 8.891c-2.344 8.137-6.826 13.113-9.095 20.46s1.46 17.381-.623 26.867-6.305 14.499-5.812 21 4.548 24.366 4.548 24.366"/><path d="M56.333 291.729l7.905-4.818m-5.574-.725a58.45 58.45 0 0 0-5.58-10.518m2.862 40.892a45.42 45.42 0 0 1 8.761-9.765m-9.832 13.783a51.29 51.29 0 0 0-3.292-7.868l-2.12-3.776m.137 30.997a48.79 48.79 0 0 1 3.887-6.361c1.444-1.865 3.04-3.607 4.771-5.208m-5.974 26.914c-.014-2.216.564-4.396 1.674-6.315l4.706-7.97"/></g><g fill="#c6ff00"><path d="M338.113 206.039s-.372-4.548 5.478-11.449 9.644-10.871 9.644-10.871 4.046 10.23-1.348 17.065a112.27 112.27 0 0 1-13.095 13.476l-.679-8.221z"/><path d="M339.141 213.767s-.856-4.483-8.37-9.57-12.202-7.905-12.202-7.905-1.181 10.919 5.85 16.089a112.31 112.31 0 0 0 16.21 9.468l-1.488-8.082zm13.945 32.652s-1.321-4.371-9.3-8.649-12.965-6.584-12.965-6.584 0 10.983 7.505 15.382a112.37 112.37 0 0 0 17.131 7.682l-2.371-7.831z"/></g><g class="B C E F"><path d="M339.469 216.78l-7.301-4.706m6.49-1.329l2.455-5.348m12.903 45.245l-12.369-7.664"/></g><g class="D"><path d="M349.699 233.706s-.325-4.566 5.478-11.448 9.644-10.872 9.644-10.872 4.045 10.23-1.349 17.066a112.4 112.4 0 0 1-13.103 13.448l-.67-8.194zm4.319 49.486s-.372-4.548-7.272-10.398-11.328-9.151-11.328-9.151-2.325 10.732 4.12 16.619a112.35 112.35 0 0 0 15.122 11.16l-.642-8.23zm.826 8.928s-1.013-4.455 3.795-12.09 8.007-12.09 8.007-12.09 5.45 9.467 1.088 17c-3.256 5.359-6.955 10.436-11.058 15.178l-1.832-7.998zm8.475 25.965s-.372-4.548-7.272-10.397-11.328-9.161-11.328-9.161-2.325 10.732 4.12 16.619c4.72 4.136 9.778 7.869 15.122 11.16l-.642-8.221zm-2.301 24.357s.8-4.492-4.399-11.932-8.602-11.718-8.602-11.718-4.966 9.793-.223 17.121c3.521 5.195 7.472 10.085 11.811 14.62l1.413-8.091z"/></g><g class="B C E F"><path d="M337.44 204.96c.715 4.7 1.687 9.357 2.911 13.95 3.59 12.806 10.574 20.683 14.062 32.234s-2.502 27.286.679 42.231 9.746 22.85 8.9 33.071-7.44 38.232-7.44 38.232"/><path d="M350.371 241.9s4.018-9.784 8.938-16.48m-5.012 64.272a71.39 71.39 0 0 0-13.653-15.438m15.296 21.734a80.66 80.66 0 0 1 5.254-12.331l3.376-5.906m-.578 48.695a76.5 76.5 0 0 0-6.036-10.044c-2.249-2.944-4.737-5.697-7.44-8.231m9.087 42.362a19.53 19.53 0 0 0-2.548-9.942c-2.79-4.436-5.989-10.276-7.31-12.583"/></g><g class="D"><path d="M367.711 341.809s-.567-2.855-5.356-6.045l-7.803-4.966s-.688 6.957 3.813 10.23a71.46 71.46 0 0 0 10.369 5.943l-1.023-5.162zm1.926 8.305s-.484-2.864 2.855-7.551l5.534-7.44s3.115 6.259.065 10.899a71.45 71.45 0 0 1-7.58 9.235l-.874-5.143zm15.222-86.694s.261-2.893-3.431-7.31l-6.092-6.966s-2.623 6.51.781 10.872a71.59 71.59 0 0 0 8.277 8.621l.465-5.217zm-7.515 17.558s.26-2.892-3.432-7.31l-6.092-6.965s-2.622 6.51.782 10.871a71.36 71.36 0 0 0 8.277 8.621l.465-5.217z"/><path d="M384.154 268.33s.568-2.855 5.348-6.054l7.803-4.976s.697 6.957-3.795 10.23a71.42 71.42 0 0 1-10.36 5.952l1.004-5.152zm-9.024 20.721s.856-2.79 5.952-5.46l8.277-4.138s0 6.984-4.845 9.756c-3.513 1.916-7.181 3.533-10.965 4.836l1.581-4.994zm-.754 23.398s.26-2.892 4.65-6.584l7.226-5.775s1.432 6.835-2.697 10.555a71.48 71.48 0 0 1-9.672 7.012l.493-5.208z"/><path d="M373.808 318.122s.67-2.79-2.353-7.728l-5.041-7.784s-3.515 6.036-.771 10.872c2.051 3.435 4.387 6.692 6.984 9.737l1.181-5.097zm-5.51 16.489s.26-2.892 4.65-6.584l7.226-5.775s1.432 6.835-2.697 10.555a71.47 71.47 0 0 1-9.644 7.003l.465-5.199z"/></g><g class="B C E F"><path d="M385.285 262.713a82.81 82.81 0 0 1-1.916 8.891c-2.343 8.137-6.826 13.113-9.095 20.46s1.46 17.381-.623 26.867-6.306 14.499-5.813 21 4.548 24.366 4.548 24.366"/><path d="M383.937 270.255l4.668-2.966m-4.117-.884l-1.534-3.413m-8.41 28.737l7.905-4.818m-5.558-.725c-1.498-3.687-3.368-7.211-5.58-10.518m2.85 40.892a45.45 45.45 0 0 1 8.761-9.765m-9.836 13.783a51.28 51.28 0 0 0-3.246-7.868l-2.12-3.776m.718 35.907a42.91 42.91 0 0 0-5.692-5.031c-1.289-.793-2.511-1.689-3.655-2.678m8.738 2.799a48.8 48.8 0 0 1 3.869-6.371c1.444-1.864 3.04-3.606 4.771-5.208m-5.954 26.924c-.014-2.216.564-4.396 1.674-6.315l4.706-7.97"/></g><path d="M349.605 49.566H55.315c-2.383 0-4.315 1.932-4.315 4.315v225.273c0 2.384 1.932 4.316 4.315 4.316h294.29c2.383 0 4.315-1.932 4.315-4.316V53.882c0-2.383-1.932-4.315-4.315-4.315z" fill="#ccc"/><path d="M346.57 67.273H58.316v185.656H346.57V67.273z" class="G"/><path d="M132.828 67.273H58.316v185.656h74.512V67.273z" class="H"/><g opacity=".2" class="G"><path opacity=".2" d="M78.571 198.664v-82.528l54.265 17.14V99.182H86.42c-1.677 0-3.338.331-4.887.973a12.75 12.75 0 0 0-6.907 6.916c-.64 1.551-.968 3.212-.966 4.889v94.209l59.176 22.971v-8.807l-54.265-21.669zm54.25 17.475v-78.753l-50.34-15.894v74.512l50.34 20.135zm.023 23.547l-54.367-22.05c-.603-.247-1.279-.244-1.88.008a2.46 2.46 0 0 0-1.324 1.336c-.247.603-.244 1.279.008 1.88a2.46 2.46 0 0 0 1.335 1.324l56.227 22.766v-5.264z"/></g><g fill="#a3a3a3"><use xlink:href="#C" stroke="#fd3e72" class="I J"/><path d="M334.483 259.653h-39.339c-1.279 0-2.316 1.037-2.316 2.316v10.025c0 1.279 1.037 2.316 2.316 2.316h39.339c1.279 0 2.316-1.037 2.316-2.316v-10.025c0-1.279-1.037-2.316-2.316-2.316zM279.387 49.566v10.993a3.05 3.05 0 0 0 3.05 3.05h61.687a3.05 3.05 0 0 0 3.05-3.05V49.566h-67.787z"/><path d="M292.525 49.566h-17.103v10.993a3.05 3.05 0 0 0 3.05 3.05h14.043l.01-14.043z"/></g><path d="M312.977 49.566V63.6h31.145a3.05 3.05 0 0 0 3.051-3.05V49.566h-34.196z" class="H"/><path d="M312.993 49.566h-20.47v14.043h20.47V49.566z" fill="#787878"/><g class="G"><path d="M332.838 59.378h-2.715l-4.529-6.91h2.706l4.538 6.91z"/><path d="M325.594 59.378h2.706l4.538-6.91h-2.715l-4.529 6.91zm-36.654-2.734h-9.811v2.613h9.811v-2.613zm9.212-3.665v6.287h8.984v-6.287h-8.984zm7.292 4.501h-5.58v-2.725h5.58v2.725z"/></g><path d="M122.076 79.549H98.52v22.906h23.557V79.549z" stroke="#fff" stroke-width="2.11" class="D J"/><g class="H"><path d="M249.032 80.2h-104.7v4.585h104.7V80.2zm-38.605 9.821h-66.095v4.585h66.095v-4.585z"/></g><g class="B I"><g class="J"><path d="M146.277 114.229h159.012m-159.012 29.444h159.012m-159.012 7.198h159.012m-159.012 7.198h159.012m-159.012 7.199h26.831m-26.831-45.152h60.209m-60.209 61.51h60.209"/></g><g class="C H"><path d="M152.328 263.578c-6.246 0-11.309-5.8-11.309-12.955s5.063-12.955 11.309-12.955 11.309 5.8 11.309 12.955-5.063 12.955-11.309 12.955z"/><path d="M207.52 253.134a35.9 35.9 0 0 0 9.858-4.055c5.218-3.097 5.413-7.923 3.869-11.597s-16.238-19.139-31.118-22.422-26.095 7.152-30.931 19.139-1.163 25.705 2.129 29.76 11.597 6.957 15.271 4.25 9.663-10.825 16.814-14.108a20.97 20.97 0 0 1 14.108-.967z"/></g></g><use xlink:href="#D" fill="#ffb7ca"/><path opacity=".2" d="M190.131 365.627l-5.98-26.04c-4.715-20.46-5.106-52.657-5.106-52.657.335 8.463 13.792 63.566 17.521 78.688l-6.435.009z" fill="#000"/><use xlink:href="#D" class="B C I"/><path d="M183.664 278.43s-3.627 3.962-4.287 6.929 1.664 14.545-3.916 17.511-11.876-2.641-15.177-9.244-1.702-10.546-1.702-10.546 7.924-7.924 11.551-13.857a51.63 51.63 0 0 0 5.328-12.183s1.981 10.89 4.65 14.88a36.45 36.45 0 0 1 3.553 6.51z" class="K"/><path opacity=".05" d="M181.405 279.872l.568.66c-.855 1.112-1.582 2.316-2.167 3.59a13.34 13.34 0 0 1-6.259-5.032c-1.935-2.855-2.121-8.435-1.953-12.462.456-.874.865-1.729 1.237-2.557 1.562 3.794 5.068 11.709 8.574 15.801z" fill="#000"/><path d="M205.954 238.821s-14.88 11.551-22.106 14.192-15.81 1.321-15.81 1.321c-.178.69-.181 1.414-.009 2.105a4.28 4.28 0 0 0 .995 1.856 27.36 27.36 0 0 1 2.967 3.627s-.326 9.896 2.966 14.88 7.589 7.589 13.532 5.283 10.89-5.283 13.857-10.23 2.641-9.895 3.962-13.197l3.962-9.895s-1.674-7.301-4.316-9.942z" class="K"/><path d="M137.987 365.627c-3.469-19.753-13.02-75.079-10.76-76.195 2.669-1.349 31.36-6.352 31.36-6.352s3.236 23.371 7.486 44.826l7.505 37.73-35.591-.009z" fill="#f33166"/><path d="M199.712 293.496s5.329 4.483 5.655 7.793 5.961 43.022 5.961 43.022 1.32-1.655 2.976-.995a6.22 6.22 0 0 1 2.65 2.316 1.3 1.3 0 0 1 .937-1.106 1.3 1.3 0 0 1 .757.013c.246.08.462.23.622.433 1.73 1.497 2.976 7.281 2.976 7.281s-2.65 8.603-4.65 9.933-4.966-.66-4.966-.66.335 1.32-3.311 1.32-4.306-5.58-5.58-7.942-5.292-27.137-7.282-40.706 3.255-20.702 3.255-20.702z" fill="#ef275d"/><path d="M209.941 365.627h-16.74l-6.993-28.449c-4.446-18.6-6.808-51.801-6.808-51.801l20.339 8.11c-.672 11.207-.542 22.449.391 33.638 1.041 12.685 6.51 29.341 9.811 38.502z" fill="#f33166"/><path d="M141.491 294.333l11.578 47.988 4.966-1.321 2.316 1.981s1.655-2.315 3.311.335c.893 1.486 2.01 2.825 3.311 3.971l-2.316 13.569s-9.821 4.027-11.253 3.636c-.994-.252-1.855-.873-2.407-1.736a4.04 4.04 0 0 1-.569-2.914 10.41 10.41 0 0 1-3.971 1.321c-.865 0-3.181-1.637-5.199-3.19a13.41 13.41 0 0 1-4.65-6.65l-15.019-47.746c-3.971-10.918 6.286-14.88 7.607-14.88" class="D"/><g class="B C G I"><path d="M275.102 350.97s7.328 3.45 6.686 4.092-5.58-1.72-6.686-1.944-2.372-2.557 0-2.148z"/><path d="M272.306 348.626s2.371-.427 2.79.651 2.371 6.901 2.157 8.194-2.157-1.293-3.022-2.586-1.925-6.259-1.925-6.259z"/><path d="M267.78 348.626s3.878-1.078 4.529 0 4.092 8.622 4.092 8.622.428.864-1.506 0-7.115-8.622-7.115-8.622z"/></g><g class="K"><path d="M221.428 348.626l24.58 2.344 18.972-3.664c1.944-.214 3.878 1.293 4.743 2.585s6.25 8.194 6.25 8.194l-1.293.427-7.542-6.035-5.394-.214c-1.302 0 3.664 2.79 5.17 3.022s3.237.428 3.023 1.293-4.092 1.079-4.957 1.079-6.901-2.158-6.901-2.158-1.506 0-3.45.214-5.394-1.293-5.394-1.293-30.615 7.329-32.764 7.115-2.315-11.495 4.957-12.909z"/><path d="M228.968 349.482s4.316 2.372 6.25 2.585 1.721 1.944 0 2.586-7.756-2.372-9.058-2.372-11.43.865-13.578 1.079-3.45-1.944 1.944-3.664 14.442-.214 14.442-.214z"/></g><path d="M224.175 346.46s3.999-.93 4.511.734 5.189 8.277 5.301 8.91-1.544 1.153-3.45-.93-6.362-8.714-6.362-8.714z" fill="#efab8a"/><path d="M221.206 345.604s3.45-.865 4.315 0 6.901 10.992 6.901 11.857-2.372.428-2.372.428l-6.9-9.486-2.158-1.944.214-.855z" fill="#f6b291"/><path d="M157.626 361.126a5.9 5.9 0 0 1-3.606-1.845c-.946-1.021-1.501-2.344-1.565-3.735-.428-5.171 5.171-10.128 9.058-10.351s21.985 3.878 29.323 4.092 13.801.214 15.308-.428 14.229-3.237 15.094-3.237 9.7 12.286 9.7 12.286-.652 1.506-2.372 0-7.328-6.687-7.328-6.687h-6.25l6.687 4.092c.865.642 4.315 4.315 3.45 4.529s-5.385-3.664-5.385-3.664l-6.51-1.721s-4.743 3.023-9.058 3.237a19.65 19.65 0 0 1-7.542-1.079s-24.999 4.725-39.004 4.511z" fill="#fab796"/><g class="B C I"><path d="M17.932 365.506h373.963"/><path d="M194.1 361.256h115.822v4.25H194.1v-4.25z" fill="#5b5863"/><g class="H"><path d="M194.109 361.256h54.414v4.25h-54.414v-4.25z"/><path d="M245.818 361.256l21.409-53.745h66.746l-26.747 53.745h-61.408z"/></g></g><path d="M248.513 361.256l21.409-53.745h66.746l-26.747 53.745h-61.408z" fill="#5b5863"/><g class="G"><path d="M297.376 327h-6.612l-2.634 6.364h6.612l2.634-6.364zm-1.715 6.364h6.612L305 327h-6.612l-2.727 6.364zm-1.453 1.272h-6.612L285 341h6.612l2.596-6.364zM292.727 341h6.612l2.479-6.364h-6.611l-2.48 6.364z"/></g></g><defs><clipPath id="A"><path transform="matrix(-1 0 0 1 398 0)" d="M0 0h398v366H0z" class="G"/></clipPath><path id="B" d="M56.177 312.449s.26-2.892 4.65-6.584l7.226-5.775s1.432 6.835-2.697 10.555a71.46 71.46 0 0 1-9.672 7.012l.493-5.208z"/><path id="C" d="M276.264 259.653h-39.339c-1.279 0-2.316 1.037-2.316 2.316v10.025c0 1.279 1.037 2.316 2.316 2.316h39.339c1.279 0 2.316-1.037 2.316-2.316v-10.025c0-1.279-1.037-2.316-2.316-2.316z"/><path id="D" d="M189.077 313.212c.149 10.304 9.151 39.209 13.439 52.415h-45.198l-11.542-75.804 10.826-5.218s8.314-3.869 13.95-2.511 12.759 5.58 12.759 5.58l5.989 2.13s-.409 9.877-.223 23.408z"/></defs></svg>