<svg xmlns="http://www.w3.org/2000/svg" width="76" height="54" fill="none"  xmlns:v="https://vecta.io/nano"><rect width="66.001" height="44.001" rx="10" fill="#5b5863"/><rect x="2.75" y="2.75" width="60.501" height="38.501" rx="8" fill="#ffeaef"/><circle cx="60.5" cy="38.501" r="13.5" fill="#fff" stroke="#fd3e72" stroke-width="4"/><path d="M66.75 31.313c-1.123 0-2.029.95-2.029 2.128v6.163a7.61 7.61 0 0 1-.042.788 2.06 2.06 0 0 1-.211.729 1.44 1.44 0 0 1-.505.552c-.224.147-.547.221-.955.221s-.73-.074-.955-.221-.393-.331-.505-.552-.183-.464-.211-.729a7.53 7.53 0 0 1-.042-.788V33.25c-1.123 0-2.029.95-2.029 2.128v4.219a7.64 7.64 0 0 1-.042.788 2.06 2.06 0 0 1-.211.729 1.44 1.44 0 0 1-.505.552c-.224.147-.547.221-.955.221s-.73-.074-.955-.221-.393-.331-.505-.552-.183-.464-.211-.729a7.53 7.53 0 0 1-.042-.788v-4.411c-1.123 0-2.029.957-2.029 2.128v2.283c0 .604.056 1.134.169 1.59s.253.847.421 1.178c.175.331.372.604.597.825a3.74 3.74 0 0 0 .688.538c.541.324 1.165.501 1.86.523.709-.022 1.334-.199 1.881-.523a3.48 3.48 0 0 0 .681-.538l.168-.184.169.184a3.74 3.74 0 0 0 .688.538 3.8 3.8 0 0 0 1.86.523c.709-.022 1.334-.199 1.881-.523a3.48 3.48 0 0 0 .681-.538c.225-.221.421-.493.597-.825a4.81 4.81 0 0 0 .421-1.178c.105-.456.154-.979.154-1.59l.021-8.284zM28.722 12.959a.72.72 0 0 0-.432-.125c-.27.009-.552.148-.688.382-.065.112-.102.252-.102.411v16.705a.88.88 0 0 0 .407.752c.163.084.245.084.407.084a.53.53 0 0 0 .106-.011c.224-.046.398-.218.59-.341l12.748-8.167c.244-.167.407-.418.407-.668a.84.84 0 0 0-.137-.437c-.131-.202-.373-.297-.576-.427L28.72 12.96z" fill="#fd3e72"/></svg>