<svg xmlns="http://www.w3.org/2000/svg" xmlns:xlink="http://www.w3.org/1999/xlink" width="299" height="485" fill="none" xmlns:v="https://vecta.io/nano"><style><![CDATA[.B{fill:#fff}.C{fill:#62d5b4}.D{fill:#afadb2}.E{fill:#5b5863}.F{fill-rule:evenodd}.G{fill:#f9f8f4}]]></style><mask id="A" mask-type="alpha" maskUnits="userSpaceOnUse" x="0" y="0" width="299" height="485"><rect width="299" height="484.865" rx="8.081" class="G"/></mask><g mask="url(#A)"><path d="M0 29.092h299v455.773H0z" class="G"/><rect x="32.324" y="261.827" width="234.351" height="72.73" rx="4.041" class="B"/><path d="M235.579 305.32l5.375-6.271a.81.81 0 0 0 0-1.051l-5.375-6.271-1.227 1.052 4.924 5.745-4.924 5.744 1.227 1.052zM52.387 288.477v-1.094c.125.111.274.21.447.298a3.97 3.97 0 0 0 .552.227c.191.063.39.105.586.138s.376.05.541.05c.571 0 .996-.105 1.276-.315s.425-.519.425-.917c0-.214-.048-.4-.144-.558a1.52 1.52 0 0 0-.387-.431 3.56 3.56 0 0 0-.591-.376l-.729-.381-.773-.425a3.39 3.39 0 0 1-.624-.475c-.177-.173-.317-.368-.42-.586s-.149-.479-.149-.773a1.79 1.79 0 0 1 .238-.939 2.07 2.07 0 0 1 .624-.663 2.85 2.85 0 0 1 .878-.387 4.03 4.03 0 0 1 1.011-.127c.781 0 1.35.094 1.707.282v1.044c-.468-.324-1.068-.486-1.801-.486a2.86 2.86 0 0 0-.608.066 1.7 1.7 0 0 0-.541.204c-.158.096-.287.22-.387.371s-.149.335-.149.552c0 .203.037.377.111.525a1.32 1.32 0 0 0 .337.403c.147.122.326.239.536.354l.735.375.806.442a3.7 3.7 0 0 1 .668.514 2.24 2.24 0 0 1 .453.624c.114.229.171.49.171.785 0 .39-.077.721-.232.994a1.85 1.85 0 0 1-.619.657c-.258.17-.556.291-.895.365a5.01 5.01 0 0 1-1.072.116c-.125 0-.28-.011-.464-.033l-.563-.089a4.44 4.44 0 0 1-.547-.138 1.78 1.78 0 0 1-.409-.193zm10.805-2.282h-3.994c.015.63.184 1.116.508 1.459s.77.514 1.337.514c.637 0 1.223-.21 1.757-.63v.851c-.497.36-1.154.541-1.972.541-.799 0-1.427-.256-1.884-.768s-.685-1.239-.685-2.171c0-.88.249-1.596.746-2.149s1.121-.834 1.862-.834 1.313.239 1.718.718.608 1.144.608 1.994v.475zm-.928-.767c-.004-.523-.131-.93-.381-1.221s-.591-.437-1.033-.437a1.46 1.46 0 0 0-1.088.459c-.298.306-.483.705-.553 1.199h3.055zm3.209 3.369h-.906v-8.374h.906v8.374zm6.38-2.602H67.86c.015.63.184 1.116.508 1.459s.77.514 1.337.514c.637 0 1.223-.21 1.757-.63v.851c-.497.36-1.155.541-1.972.541-.799 0-1.427-.256-1.884-.768s-.685-1.239-.685-2.171c0-.88.249-1.596.746-2.149s1.121-.834 1.862-.834 1.313.239 1.718.718.608 1.144.608 1.994v.475zm-.928-.767c-.004-.523-.131-.93-.381-1.221s-.591-.437-1.033-.437a1.46 1.46 0 0 0-1.088.459c-.298.306-.483.705-.553 1.199h3.055zm6.16 3.11c-.435.261-.95.392-1.547.392-.806 0-1.458-.262-1.956-.784s-.74-1.208-.74-2.044c0-.932.267-1.68.801-2.243s1.247-.851 2.138-.851c.497 0 .935.092 1.315.276v.928c-.42-.294-.869-.442-1.348-.442-.578 0-1.053.208-1.425.625s-.552.955-.552 1.629c0 .663.173 1.186.519 1.569s.818.575 1.403.575c.493 0 .957-.164 1.392-.492v.862zm3.994.204c-.214.118-.495.177-.845.177-.991 0-1.486-.553-1.486-1.657v-3.348h-.972v-.773h.972v-1.381l.906-.293v1.674h1.425v.773h-1.425v3.187c0 .38.064.65.193.812s.343.244.641.244c.228 0 .425-.063.591-.188v.773zm5.756-2.547h-3.994c.015.63.184 1.116.508 1.459s.77.514 1.337.514c.637 0 1.223-.21 1.757-.63v.851c-.497.36-1.155.541-1.972.541-.799 0-1.427-.256-1.884-.768s-.685-1.239-.685-2.171c0-.88.248-1.596.746-2.149a2.41 2.41 0 0 1 1.862-.834c.741 0 1.313.239 1.718.718s.608 1.144.608 1.994v.475zm-.928-.767c-.004-.523-.131-.93-.381-1.221s-.591-.437-1.033-.437a1.46 1.46 0 0 0-1.088.459c-.298.306-.482.705-.552 1.199h3.055zm7.132 3.369h-.906v-.961h-.022c-.42.729-1.068 1.094-1.945 1.094-.711 0-1.28-.252-1.707-.757s-.635-1.199-.635-2.071c0-.936.236-1.685.707-2.249s1.099-.845 1.884-.845c.777 0 1.342.306 1.696.917h.022v-3.502h.906v8.374zm-.906-2.557v-.834a1.62 1.62 0 0 0-.453-1.161 1.52 1.52 0 0 0-1.149-.475c-.552 0-.987.203-1.304.608s-.475.965-.475 1.679c0 .652.151 1.168.453 1.547s.715.564 1.226.564a1.54 1.54 0 0 0 1.226-.547c.317-.365.475-.825.475-1.381zm10.076 2.557H98.1v-7.921h.928v7.082h3.182v.839zm3.458.133c-.836 0-1.505-.263-2.005-.79s-.746-1.232-.746-2.105c0-.95.259-1.692.779-2.226s1.221-.801 2.104-.801c.844 0 1.501.26 1.973.779s.712 1.239.712 2.16c0 .902-.256 1.626-.768 2.171s-1.191.812-2.049.812zm.066-5.16c-.582 0-1.042.199-1.381.597s-.508.939-.508 1.635c0 .67.171 1.199.514 1.586s.801.58 1.375.58c.586 0 1.035-.19 1.348-.569s.475-.919.475-1.619c0-.707-.158-1.252-.475-1.635s-.762-.575-1.348-.575zm8.054 4.768c-.434.261-.95.392-1.546.392-.807 0-1.459-.262-1.956-.784s-.74-1.208-.74-2.044c0-.932.267-1.68.801-2.243s1.246-.851 2.138-.851c.497 0 .935.092 1.314.276v.928c-.419-.294-.869-.442-1.347-.442-.579 0-1.054.208-1.426.625s-.552.955-.552 1.629c0 .663.173 1.186.519 1.569s.818.575 1.403.575c.494 0 .958-.164 1.392-.492v.862zm5.42.259h-.906v-.884h-.022c-.395.678-.975 1.017-1.741 1.017-.563 0-1.005-.149-1.325-.448s-.475-.694-.475-1.187c0-1.057.622-1.672 1.867-1.845l1.696-.238c0-.961-.389-1.442-1.166-1.442-.681 0-1.296.232-1.845.696v-.928c.556-.353 1.197-.53 1.922-.53 1.33 0 1.995.703 1.995 2.11v3.679zm-.906-2.861l-1.365.188c-.42.059-.736.164-.95.315s-.32.41-.32.789c0 .277.097.503.292.68s.463.26.79.26a1.45 1.45 0 0 0 1.111-.47c.294-.317.442-.716.442-1.199v-.563zm5.237 2.806c-.214.118-.496.177-.846.177-.99 0-1.486-.553-1.486-1.657v-3.348h-.972v-.773h.972v-1.381l.906-.293v1.674h1.426v.773h-1.426v3.187c0 .38.065.65.194.812s.342.244.64.244c.229 0 .426-.063.592-.188v.773zm1.673-7.038c-.162 0-.3-.055-.414-.165a.56.56 0 0 1-.171-.42c0-.17.057-.31.171-.42a.58.58 0 0 1 .414-.171.57.57 0 0 1 .42.171.55.55 0 0 1 .177.42c0 .162-.059.3-.177.414a.57.57 0 0 1-.42.171zm.442 7.093h-.906v-5.656h.906v5.656zm4.199.133c-.836 0-1.505-.263-2.006-.79s-.745-1.232-.745-2.105c0-.95.259-1.692.779-2.226s1.22-.801 2.104-.801c.844 0 1.501.26 1.972.779s.713 1.239.713 2.16c0 .902-.256 1.626-.768 2.171s-1.191.812-2.049.812zm.066-5.16c-.582 0-1.042.199-1.381.597s-.508.939-.508 1.635c0 .67.171 1.199.513 1.586s.801.58 1.376.58c.586 0 1.035-.19 1.348-.569s.475-.919.475-1.619c0-.707-.158-1.252-.475-1.635s-.762-.575-1.348-.575zm8.894 5.027h-.906v-3.226c0-1.2-.438-1.801-1.315-1.801-.453 0-.828.172-1.127.514s-.442.768-.442 1.287v3.226h-.906v-5.656h.906v.939h.022c.428-.715 1.046-1.072 1.857-1.072.618 0 1.091.201 1.419.602s.492.974.492 1.729v3.458zm2.027-4.552a.59.59 0 0 1-.436-.182c-.118-.121-.177-.267-.177-.436s.059-.313.177-.431a.6.6 0 0 1 .436-.177.61.61 0 0 1 .442.177c.122.118.183.261.183.431a.59.59 0 0 1-.183.436.6.6 0 0 1-.442.182zm0 4.674c-.169 0-.315-.061-.436-.182a.59.59 0 0 1-.177-.437.6.6 0 0 1 .177-.436c.118-.121.267-.188.436-.188a.6.6 0 0 1 .442.188c.121.125.183.267.183.436s-.061.315-.183.437a.6.6 0 0 1-.442.182z" class="D"/><path d="M91.517 308.497c0 2.86-1.354 4.29-4.063 4.29-2.595 0-3.892-1.376-3.892-4.127v-6.229h1.69v5.881c0 1.998.776 2.997 2.33 2.997 1.496 0 2.244-.963 2.244-2.89v-5.988h1.69v6.066zm1.925 3.714v-1.74a2.74 2.74 0 0 0 .554.384c.218.113.447.21.689.291.241.076.483.135.724.178s.464.063.668.063c.71 0 1.238-.118 1.584-.355s.526-.58.526-1.03c0-.241-.059-.449-.178-.625s-.275-.343-.483-.49a4.93 4.93 0 0 0-.739-.419l-.902-.426-.966-.561c-.298-.189-.559-.398-.781-.625a2.77 2.77 0 0 1-.519-.781c-.123-.289-.185-.628-.185-1.016 0-.478.106-.892.32-1.243s.502-.646.852-.873.758-.403 1.207-.512.909-.17 1.378-.17c1.065 0 1.842.12 2.33.362v1.669c-.578-.417-1.321-.625-2.23-.625a4.08 4.08 0 0 0-.753.071 2.29 2.29 0 0 0-.668.234c-.194.109-.353.249-.476.42s-.185.376-.185.617a1.17 1.17 0 0 0 .142.59 1.53 1.53 0 0 0 .412.454 4.57 4.57 0 0 0 .668.405l.916.419 1.001.583a4.51 4.51 0 0 1 .831.675c.242.246.431.52.568.823s.213.64.213 1.023c0 .516-.104.952-.312 1.307s-.49.644-.845.867-.755.383-1.215.483-.945.149-1.456.149c-.17 0-.381-.015-.632-.043s-.499-.061-.76-.114a6.42 6.42 0 0 1-.739-.177c-.232-.071-.419-.152-.561-.242zm16.762.405h-1.854l-.916-2.592h-4.006l-.881 2.592h-1.846l3.814-10.185h1.903l3.786 10.185zm-3.218-3.97l-1.413-4.063c-.043-.132-.088-.345-.135-.639h-.028c-.043.27-.09.483-.143.639l-1.399 4.063h3.118zm12.273.604h-3.878v-1.215h3.878v1.215zm14.852 3.366h-1.847l-4.865-7.486c-.123-.189-.225-.386-.306-.589h-.042c.038.217.057.684.057 1.399v6.676h-1.634v-10.185h1.968l4.701 7.309.384.625h.028c-.047-.27-.071-.727-.071-1.371v-6.563h1.627v10.185zm8.501-3.189h-4.957c.019.673.225 1.191.618 1.556s.942.547 1.633.547c.777 0 1.49-.232 2.138-.697v1.329c-.663.416-1.539.625-2.628.625-1.07 0-1.91-.329-2.521-.988s-.909-1.593-.909-2.791c0-1.132.334-2.052 1.001-2.763.673-.715 1.506-1.072 2.5-1.072s1.764.319 2.309.959.816 1.527.816 2.663v.632zm-1.59-1.165c-.005-.592-.145-1.051-.42-1.378s-.653-.497-1.136-.497c-.473 0-.876.173-1.207.519s-.528.798-.604 1.356h3.367zm12.94-2.919l-2.145 7.273h-1.726l-1.321-4.929c-.052-.189-.085-.402-.099-.639h-.028c-.01.161-.053.369-.128.625l-1.435 4.943h-1.69l-2.138-7.273h1.704l1.321 5.242c.043.156.071.364.086.625h.049a3.4 3.4 0 0 1 .114-.639l1.47-5.228h1.549l1.306 5.263c.043.166.074.374.093.625h.049c.01-.175.045-.383.107-.625l1.293-5.263h1.569zm12.515-2.912l-3.338 6.485v3.7h-1.691v-3.665l-3.253-6.52h1.925l2.003 4.368c.024.052.095.249.213.59h.021c.043-.152.121-.348.235-.59l2.095-4.368h1.79zm3.047 10.356c-1.122 0-2.02-.339-2.692-1.016-.668-.682-1.001-1.584-1.001-2.706 0-1.222.348-2.176 1.044-2.862s1.643-1.03 2.826-1.03c1.137 0 2.022.334 2.657 1.001s.952 1.594.952 2.777c0 1.16-.344 2.091-1.03 2.792s-1.601 1.044-2.756 1.044zm.078-6.3c-.644 0-1.153.225-1.527.674s-.561 1.071-.561 1.861c0 .763.189 1.364.568 1.804s.886.654 1.52.654c.649 0 1.146-.216 1.492-.647s.525-1.044.525-1.839c0-.8-.175-1.418-.525-1.854s-.843-.653-1.492-.653zm9.61.426c-.199-.156-.486-.234-.86-.234-.487 0-.895.22-1.221.66s-.49 1.039-.49 1.797v3.48h-1.648v-7.273h1.648v1.499h.028c.161-.512.407-.909.739-1.193s.71-.434 1.122-.434c.298 0 .525.045.682.135v1.563zm7.763 5.703h-2.088l-2.827-3.494h-.029v3.494h-1.654v-10.767h1.654v6.825h.029l2.67-3.331h1.982l-3.004 3.509 3.267 3.764z" class="E"/><path d="M51.719 299H72.73v1.244H51.719V299zm0 2.487H72.73v1.244H51.719v-1.244zm0 2.485H72.73v1.247H51.719v-1.247zm0 2.487H72.73v1.244H51.719v-1.244zm0 2.488H72.73v1.243H51.719v-1.243zm0 2.484H72.73v1.244H51.719v-1.244zm0 2.487H72.73v1.244H51.719v-1.244z" fill="#bd3d44" class="F"/><path d="M51.719 300.616H72.73v1.176H51.719v-1.176zm0 2.352H72.73v1.173H51.719v-1.173zm0 2.349H72.73v1.176H51.719v-1.176zm0 2.352H72.73v1.176H51.719v-1.176zm0 2.352H72.73v1.176H51.719v-1.176zm0 2.349H72.73v1.176H51.719v-1.176z" class="B F"/><path d="M51.719 299h11.636v8.503H51.719V299z" fill="#192f5d" class="F"/><path d="M52.687 299.364l.108.336h.341l-.275.207.105.339-.278-.21-.275.207.105-.336-.278-.207h.347l.102-.336zm1.941 0l.105.336h.344l-.278.207.105.339-.275-.21-.278.207.105-.336-.275-.207h.341l.108-.336zm1.938 0l.108.336h.338l-.275.207.105.339-.278-.21-.275.207.105-.336-.278-.207h.344l.108-.336zm1.941 0l.105.336h.344l-.278.207.108.339-.278-.21-.278.207.108-.336-.278-.207h.341l.108-.336zm1.938 0l.108.336h.341l-.275.207.105.339-.278-.21-.275.207.105-.336-.275-.207h.341l.105-.336zm1.941 0l.105.336h.344l-.278.207.108.339-.278-.21-.278.207.108-.336-.278-.207h.344l.105-.336zm-8.726.851l.105.336h.344l-.278.207.102.336-.269-.206-.278.206.099-.336-.269-.207h.341l.105-.336zm1.938 0l.108.336h.341l-.278.207.108.336-.278-.206-.278.206.108-.336-.278-.207h.344l.105-.336zm1.941 0l.105.336h.344l-.278.207.105.336-.275-.206-.278.206.105-.336-.275-.207h.341l.108-.336zm1.938 0l.108.336h.341l-.278.207.108.336-.278-.206-.275.206.105-.336-.278-.207h.347l.102-.336zm1.941 0l.105.336h.344l-.278.207.105.336-.275-.206-.278.206.105-.336-.275-.207h.341l.108-.336zm-8.729.848l.108.343h.341l-.275.206.105.336-.278-.209-.275.209.105-.339-.278-.206h.347l.102-.34zm1.941 0l.105.34h.344l-.278.206.105.336-.275-.209-.278.209.105-.339-.275-.207h.341l.108-.336zm1.938 0l.108.34h.338l-.275.206.105.336-.278-.209-.275.209.105-.339-.278-.207h.344l.108-.336zm1.941 0l.105.34h.344l-.278.206.108.336-.278-.209-.278.209.108-.339-.278-.207h.341l.108-.336zm1.938 0l.108.34h.341l-.275.206.105.336-.278-.209-.275.209.105-.339-.275-.207h.341l.105-.336zm1.941 0l.105.34h.344l-.278.206.108.336-.278-.209-.278.209.108-.339-.278-.207h.344l.105-.336zm-8.726.851l.105.337h.344l-.278.206.105.339-.275-.209-.278.206.105-.336-.275-.206h.341l.108-.337zm1.938 0l.108.337h.341l-.278.206.108.339-.278-.209-.278.206.108-.336-.278-.206h.344l.105-.337zm1.941 0l.105.337h.344l-.278.206.105.339-.275-.209-.278.206.105-.336-.275-.206h.341l.108-.337zm1.938 0l.108.337h.341l-.275.206.105.339-.278-.209-.275.206.105-.336-.278-.206h.347l.102-.337zm1.941 0l.105.337h.344l-.278.206.105.339-.275-.209-.278.206.105-.336-.275-.206h.341l.108-.337zm-8.729.852l.108.336h.341l-.275.206.105.34-.278-.21-.275.207.105-.337-.278-.206h.347l.102-.336zm1.941 0l.105.336h.344l-.278.206.105.337-.275-.207-.278.207.105-.337-.275-.206h.341l.108-.336zm1.938 0l.108.336h.338l-.275.206.105.34-.278-.21-.275.207.105-.337-.278-.206h.344l.108-.336zm1.941 0l.105.336h.344l-.278.206.108.34-.278-.21-.278.207.108-.337-.278-.206h.341l.108-.336zm1.938 0l.108.336h.341l-.275.206.105.34-.278-.21-.275.207.105-.337-.275-.206h.341l.105-.336zm1.941 0l.105.336h.344l-.278.206.108.34-.278-.21-.278.207.108-.337-.278-.206h.344l.105-.336zm-8.726.851l.105.336h.344l-.278.207.105.336-.275-.21-.278.21.105-.339-.275-.207h.341l.108-.333zm1.938 0l.108.336h.341l-.278.207.108.336-.278-.21-.278.21.108-.339-.278-.207h.344l.105-.333zm1.941 0l.105.336h.344l-.278.207.105.336-.275-.21-.278.21.105-.339-.275-.207h.341l.108-.333zm1.938 0l.108.336h.341l-.275.207.105.336-.278-.21-.275.21.105-.339-.278-.207h.347l.102-.333zm1.941 0l.105.336h.344l-.278.207.105.336-.275-.21-.278.21.105-.339-.275-.207h.341l.108-.333zm-8.729.848l.108.339h.341l-.275.207.105.333-.278-.207-.275.207.105-.336-.278-.207h.347l.102-.336zm1.941 0l.105.339h.344l-.278.207.108.333-.278-.207-.278.207.108-.336-.278-.207h.341l.108-.336zm1.938 0l.108.339h.338l-.275.207.105.333-.278-.207-.275.207.105-.336-.278-.207h.344l.108-.336zm1.941 0l.105.339h.344l-.278.207.108.333-.278-.207-.278.207.108-.336-.278-.207h.341l.108-.336zm1.938 0l.108.339h.341l-.275.207.105.333-.278-.207-.275.207.105-.336-.275-.207h.341l.105-.336zm1.941 0l.105.339h.344l-.278.207.108.333-.278-.207-.278.207.108-.336-.278-.207h.344l.105-.336zm-8.726.851l.105.336h.344l-.278.207.105.339-.275-.21-.278.207.105-.336-.275-.207h.341l.108-.336zm1.938 0l.108.336h.341l-.278.207.108.339-.278-.21-.278.207.108-.336-.278-.207h.344l.105-.336zm1.941 0l.105.336h.344l-.278.207.105.339-.275-.21-.278.207.105-.336-.275-.207h.341l.108-.336zm1.938 0l.108.336h.341l-.275.207.105.339-.278-.21-.275.207.105-.336-.278-.207h.347l.102-.336zm1.941 0l.105.336h.344l-.278.207.105.339-.275-.21-.278.207.105-.336-.275-.207h.341l.108-.336zm-8.729.851l.108.336h.341l-.275.207.105.336-.278-.206-.275.206.105-.339-.278-.207h.347l.102-.333zm1.941 0l.105.336h.344l-.278.207.108.336-.278-.206-.278.206.108-.339-.278-.207h.341l.108-.333zm1.938 0l.108.336h.338l-.269.207.105.336-.278-.206-.275.206.105-.339-.278-.207h.344l.102-.333zm1.941 0l.105.336h.344l-.278.207.108.336-.278-.206-.278.206.108-.339-.278-.207h.341l.108-.333zm1.938 0l.108.336h.341l-.275.207.105.336-.278-.206-.275.206.105-.339-.275-.207h.341l.105-.333zm1.941 0l.105.336h.344l-.278.207.108.336-.278-.206-.278.206.108-.339-.278-.207h.344l.105-.333z" class="B F"/><path d="M182.287 381.081l-2.934 7.922h-1.022l-2.872-7.922h1.033l2.193 6.281a3.74 3.74 0 0 1 .16.702h.022a3.42 3.42 0 0 1 .183-.713l2.237-6.27h1zm2.066 4.928v2.994h-.928v-7.922h2.176c.847 0 1.503.206 1.967.619s.701.994.701 1.745-.259 1.367-.779 1.845-1.213.719-2.093.719h-1.044zm0-4.088v3.248h.972c.641 0 1.129-.146 1.464-.437s.508-.708.508-1.242c0-1.046-.619-1.569-1.856-1.569h-1.088zm11.799 7.082h-1.138l-4.076-6.314a2.66 2.66 0 0 1-.255-.498h-.033c.03.17.044.533.044 1.089v5.723h-.928v-7.922h1.205l3.966 6.215.32.53h.023c-.037-.228-.056-.617-.056-1.166v-5.579h.928v7.922zm6.11 0h-.928v-7.922h.928v7.922zm3.016-2.994v2.994h-.928v-7.922h2.177c.847 0 1.502.206 1.966.619s.702.994.702 1.745-.26 1.367-.779 1.845-1.213.719-2.094.719h-1.044zm0-4.088v3.248h.973c.64 0 1.128-.146 1.463-.437s.509-.708.509-1.242c0-1.046-.619-1.569-1.856-1.569h-1.089zm5.607 2.53c-.169 0-.315-.061-.436-.183s-.177-.267-.177-.436.059-.313.177-.431.267-.177.436-.177a.61.61 0 0 1 .442.177c.122.118.183.262.183.431s-.061.315-.183.436a.6.6 0 0 1-.442.183zm0 4.673c-.169 0-.315-.061-.436-.182s-.177-.267-.177-.436.059-.315.177-.437.267-.188.436-.188.321.063.442.188.183.267.183.437-.061.314-.183.436-.269.182-.442.182z" class="D"/><path d="M178.757 397.874v8.099h-1.282v-6.53a4.15 4.15 0 0 1-.751.426 6.36 6.36 0 0 1-.912.304v-1.094l.619-.221.586-.26.585-.32.613-.404h.542zm1.657 5.889c0-.228.028-.449.083-.663s.145-.41.259-.591.258-.342.431-.486.376-.26.608-.348c-.342-.191-.615-.436-.818-.735a1.76 1.76 0 0 1-.303-1 1.86 1.86 0 0 1 .176-.806c.122-.247.288-.46.498-.641a2.35 2.35 0 0 1 .751-.42 2.76 2.76 0 0 1 .939-.154c.342 0 .657.051.945.154s.541.245.751.426.379.394.497.64.177.514.177.801c0 .365-.101.698-.304 1s-.471.544-.807.735c.229.088.43.204.603.348a2.03 2.03 0 0 1 .442.481c.117.18.206.377.265.591s.088.436.088.668c0 .346-.064.663-.193.95a2.17 2.17 0 0 1-.542.741c-.232.202-.51.361-.834.475s-.681.171-1.071.171-.743-.057-1.067-.171-.598-.273-.834-.475-.414-.453-.547-.741-.193-.604-.193-.95zm1.248-.11c0 .224.034.427.1.607a1.27 1.27 0 0 0 .282.459c.121.125.267.221.436.287s.365.1.575.1a1.52 1.52 0 0 0 .557-.1c.17-.07.315-.167.437-.293a1.38 1.38 0 0 0 .293-.458c.07-.181.105-.381.105-.602a1.59 1.59 0 0 0-.1-.569 1.39 1.39 0 0 0-.282-.47c-.121-.132-.268-.237-.441-.315s-.36-.116-.569-.116c-.199 0-.385.037-.558.111s-.317.171-.442.304a1.4 1.4 0 0 0-.288.464c-.07.18-.105.377-.105.591zm.271-3.58a1.21 1.21 0 0 0 .089.464 1.24 1.24 0 0 0 .237.37c.1.103.216.184.348.243s.282.089.437.089.298-.03.43-.089c.137-.062.255-.145.354-.248a1.2 1.2 0 0 0 .331-.829 1.21 1.21 0 0 0-.088-.464c-.055-.144-.133-.267-.232-.37s-.217-.184-.354-.243-.283-.089-.441-.089a1.08 1.08 0 0 0-.453.094c-.137.059-.255.142-.354.249s-.171.232-.227.376c-.051.14-.077.289-.077.447zm5.121 5.718v-1.232c.519.35 1.046.525 1.58.525s.97-.137 1.298-.409.492-.643.492-1.1c0-.449-.168-.799-.503-1.049s-.808-.376-1.431-.376a24.33 24.33 0 0 0-1.298.066l.282-4.165h3.9v1.094h-2.834l-.133 1.983.691-.022c.84 0 1.488.216 1.945.646s.69 1.021.69 1.768c0 .785-.263 1.414-.79 1.889s-1.243.708-2.16.708c-.773 0-1.35-.109-1.729-.326zm6.795.303c-.221 0-.409-.071-.564-.215a.7.7 0 0 1-.232-.525c0-.206.078-.383.232-.53a.79.79 0 0 1 .564-.221c.224 0 .414.074.569.221a.7.7 0 0 1 .237.53c0 .203-.079.378-.237.525s-.345.215-.569.215zm6.877-.121h-4.971v-.613c0-.251.035-.485.105-.702s.163-.427.281-.619a3.25 3.25 0 0 1 .415-.546c.158-.174.327-.339.508-.498l.552-.464.553-.453.464-.419c.14-.14.259-.284.359-.431s.177-.302.232-.464.083-.345.083-.536a1.37 1.37 0 0 0-.1-.547 1 1 0 0 0-.27-.392 1.09 1.09 0 0 0-.409-.238 1.58 1.58 0 0 0-.52-.083c-.324 0-.653.076-.988.227a3.38 3.38 0 0 0-.967.679v-1.232c.162-.121.326-.226.492-.315a3.03 3.03 0 0 1 .513-.226c.177-.063.363-.109.558-.138s.404-.044.625-.044a3.12 3.12 0 0 1 .972.143 2.01 2.01 0 0 1 .746.415c.206.18.364.407.475.679a2.42 2.42 0 0 1 .171.939c0 .321-.041.61-.122.867a2.65 2.65 0 0 1-.337.713 3.59 3.59 0 0 1-.524.63l-.691.613-.641.508-.569.481c-.169.155-.307.311-.414.469s-.155.312-.155.47v.028h3.574v1.099zm4.171-8.099v8.099h-1.281v-6.53a4.16 4.16 0 0 1-.752.426c-.265.114-.569.215-.911.304v-1.094l.618-.221.586-.26.586-.32.613-.404h.541zm6.27.177v5.116h1.177v1.066h-1.177v1.74h-1.243v-1.74h-3.585v-1.077l.994-1.183.984-1.303.878-1.337a12.13 12.13 0 0 0 .679-1.282h1.293zm-1.243 5.116v-3.326c-.401.722-.799 1.352-1.193 1.889l-1.099 1.437h2.292zm4.011 2.927c-.221 0-.409-.071-.564-.215a.7.7 0 0 1-.232-.525c0-.206.078-.383.232-.53a.79.79 0 0 1 .564-.221c.224 0 .414.074.569.221a.7.7 0 0 1 .237.53c0 .203-.079.378-.237.525s-.345.215-.569.215zm2.044-.414v-1.204a2.73 2.73 0 0 0 1.745.613c.527 0 .947-.12 1.26-.359s.475-.564.475-.972c0-.899-.687-1.348-2.061-1.348h-.613v-1.028h.586c1.219 0 1.828-.423 1.828-1.27 0-.781-.475-1.171-1.425-1.171-.53 0-1.029.189-1.497.569v-1.138c.538-.302 1.173-.453 1.906-.453.703 0 1.267.176 1.69.53a1.69 1.69 0 0 1 .635 1.359c0 1.042-.53 1.712-1.59 2.011v.022c.57.055 1.021.256 1.353.602s.497.771.497 1.287c0 .711-.267 1.285-.801 1.724-.534.434-1.237.651-2.11.651-.785 0-1.411-.141-1.878-.425zm11.286-6.988l-.94 1.806-.801 1.79-.624 1.818a14.25 14.25 0 0 0-.409 1.867h-1.342a13.77 13.77 0 0 1 .376-1.696l.58-1.696.74-1.707.878-1.729h-3.751v-1.094h5.293v.641zm6.17 2.889c0 .792-.087 1.473-.26 2.044s-.405 1.041-.707 1.409a2.77 2.77 0 0 1-1.055.817c-.401.173-.834.26-1.298.26a3.74 3.74 0 0 1-.458-.028l-.437-.071-.376-.094-.276-.105v-1.155a2.43 2.43 0 0 0 .288.149 3.96 3.96 0 0 0 .37.133l.419.094a2.9 2.9 0 0 0 .426.033c.313 0 .596-.061.851-.182a1.76 1.76 0 0 0 .657-.542c.18-.239.318-.536.414-.889a4.61 4.61 0 0 0 .149-1.238h-.022a1.44 1.44 0 0 1-.265.337 1.87 1.87 0 0 1-.37.277c-.14.077-.296.14-.47.187a1.99 1.99 0 0 1-.546.072 2.5 2.5 0 0 1-.929-.171c-.283-.118-.53-.284-.74-.497s-.375-.473-.497-.779-.177-.646-.177-1.022a2.9 2.9 0 0 1 .205-1.116c.136-.335.324-.619.563-.851a2.46 2.46 0 0 1 .845-.541c.324-.129.676-.193 1.055-.193a2.53 2.53 0 0 1 1.011.204c.321.133.601.346.84.641s.435.668.575 1.132.215 1.026.215 1.685zm-1.337-.845c0-.265-.035-.506-.105-.724s-.16-.403-.282-.558-.267-.274-.436-.359-.348-.127-.547-.127a1.21 1.21 0 0 0-.508.111c-.158.07-.298.171-.42.304s-.212.292-.282.48-.105.396-.105.624c0 .251.034.472.1.663a1.44 1.44 0 0 0 .287.486c.122.129.267.229.437.299a1.58 1.58 0 0 0 .569.099c.184 0 .353-.033.508-.099a1.35 1.35 0 0 0 .409-.276 1.3 1.3 0 0 0 .276-.415c.066-.158.099-.328.099-.508zm3.237 5.358c-.221 0-.408-.071-.563-.215a.7.7 0 0 1-.232-.525c0-.206.077-.383.232-.53s.342-.221.563-.221.415.074.569.221.238.324.238.53a.69.69 0 0 1-.238.525.8.8 0 0 1-.569.215zm7.248-2.668c0 .398-.066.761-.199 1.089s-.309.611-.541.85-.508.42-.829.553-.661.193-1.033.193c-.398 0-.764-.077-1.099-.232s-.619-.385-.862-.691-.425-.685-.558-1.138-.199-.985-.199-1.585c0-.733.087-1.383.26-1.95s.418-1.042.724-1.425.664-.674 1.077-.873.858-.298 1.337-.298c.298 0 .569.02.812.06s.443.096.591.166v1.155c-.188-.096-.389-.177-.602-.243a2.46 2.46 0 0 0-.735-.1c-.309 0-.595.063-.856.188a1.91 1.91 0 0 0-.68.552c-.188.24-.337.538-.447.895s-.162.763-.166 1.227h.033c.17-.262.398-.468.685-.619a2.19 2.19 0 0 1 1.022-.226 2.43 2.43 0 0 1 .934.171c.28.11.517.272.712.486s.352.468.459.773.16.643.16 1.022zm-1.293.105c0-.228-.027-.436-.082-.624s-.133-.348-.244-.481-.243-.241-.408-.314-.354-.111-.575-.111-.416.041-.585.122a1.26 1.26 0 0 0-.42.309c-.114.129-.201.276-.26.442s-.083.335-.083.508a2.29 2.29 0 0 0 .078.58c.055.195.138.374.248.536a1.43 1.43 0 0 0 .42.403c.173.103.378.155.613.155.21 0 .396-.039.558-.116s.297-.184.403-.321a1.37 1.37 0 0 0 .249-.48 2.02 2.02 0 0 0 .088-.608zm6.845-5.48v5.116h1.177v1.066h-1.177v1.74h-1.243v-1.74h-3.585v-1.077l.994-1.183.983-1.303.879-1.337a12.13 12.13 0 0 0 .679-1.282h1.293zm-1.243 5.116v-3.326c-.401.722-.799 1.352-1.193 1.889l-1.1 1.437h2.293z" class="E"/><path d="M34.291 389.003h-.928v-7.922h.928v7.922zm3.016-2.994v2.994h-.928v-7.922h2.177c.847 0 1.503.206 1.967.619s.702.994.702 1.746-.26 1.366-.779 1.845-1.214.718-2.094.718h-1.044zm0-4.088v3.248h.972c.641 0 1.129-.145 1.464-.436s.508-.709.508-1.243c0-1.046-.619-1.569-1.856-1.569h-1.088zm5.607 2.53c-.169 0-.315-.061-.436-.182s-.177-.267-.177-.437.059-.313.177-.431.267-.176.436-.176.32.059.442.176a.58.58 0 0 1 .182.431c0 .17-.061.315-.182.437s-.269.182-.442.182zm0 4.673c-.169 0-.315-.06-.436-.182s-.177-.267-.177-.436.059-.315.177-.437.267-.187.436-.187.32.062.442.187.182.267.182.437-.061.315-.182.436a.6.6 0 0 1-.442.182z" class="D"/><path d="M35.722 397.874v8.099H34.44v-6.53a4.16 4.16 0 0 1-.751.426 6.38 6.38 0 0 1-.911.304v-1.094l.619-.221.586-.26.586-.32.613-.404h.541zm6.938 3.707c0 .792-.087 1.473-.26 2.044s-.405 1.041-.707 1.409-.65.641-1.055.817-.834.26-1.298.26a3.77 3.77 0 0 1-.459-.028l-.436-.071-.376-.094-.276-.105v-1.155a2.41 2.41 0 0 0 .287.149c.114.051.238.092.37.133l.42.094a2.88 2.88 0 0 0 .425.033c.313 0 .597-.061.851-.182a1.75 1.75 0 0 0 .657-.542c.18-.239.319-.536.414-.889a4.63 4.63 0 0 0 .149-1.238h-.022a1.46 1.46 0 0 1-.265.337 1.87 1.87 0 0 1-.37.277c-.14.081-.296.14-.469.187a2 2 0 0 1-.547.072c-.331 0-.641-.057-.928-.171a2.23 2.23 0 0 1-.74-.497c-.21-.214-.376-.473-.497-.779a2.82 2.82 0 0 1-.177-1.022 2.92 2.92 0 0 1 .204-1.116c.136-.332.324-.619.564-.851s.521-.416.845-.541a2.91 2.91 0 0 1 1.055-.193c.357 0 .694.068 1.011.204a2.18 2.18 0 0 1 .84.641c.24.295.435.668.575 1.132s.215 1.026.215 1.685zm-1.337-.845c0-.265-.035-.506-.105-.724s-.16-.403-.282-.558-.267-.274-.436-.359a1.19 1.19 0 0 0-.547-.127 1.21 1.21 0 0 0-.508.111c-.158.07-.298.171-.42.304s-.212.292-.282.48-.105.396-.105.624a2.02 2.02 0 0 0 .099.663 1.43 1.43 0 0 0 .287.486c.122.129.267.229.437.299s.363.099.569.099a1.28 1.28 0 0 0 .508-.099 1.34 1.34 0 0 0 .409-.276 1.29 1.29 0 0 0 .276-.415 1.3 1.3 0 0 0 .099-.508zm7.386 5.237h-4.972v-.613c0-.251.035-.485.105-.702s.164-.427.282-.619a3.43 3.43 0 0 1 .414-.546l.508-.498.552-.464.552-.453.464-.419a2.95 2.95 0 0 0 .359-.431c.099-.148.177-.302.232-.464a1.69 1.69 0 0 0 .083-.536c0-.21-.033-.392-.099-.547a1 1 0 0 0-.271-.392 1.08 1.08 0 0 0-.409-.238 1.57 1.57 0 0 0-.519-.083c-.324 0-.654.076-.989.227s-.657.377-.967.679v-1.232a3.93 3.93 0 0 1 .492-.315 3.04 3.04 0 0 1 .514-.226c.177-.063.363-.109.558-.138s.403-.044.624-.044a3.12 3.12 0 0 1 .972.143 2.01 2.01 0 0 1 .746.415c.207.185.365.407.475.679s.171.586.171.939c0 .321-.041.61-.122.867a2.68 2.68 0 0 1-.337.713c-.144.221-.319.431-.525.63l-.691.613-.641.508-.569.481c-.169.155-.308.311-.414.469s-.155.312-.155.47v.028h3.574v1.099zm2.138.121c-.221 0-.409-.071-.564-.215a.7.7 0 0 1-.232-.525c0-.206.077-.383.232-.53a.79.79 0 0 1 .564-.221c.225 0 .414.074.569.221a.71.71 0 0 1 .238.53c0 .206-.079.378-.238.525s-.344.215-.569.215zm4.762-8.22v8.099h-1.282v-6.53a4.16 4.16 0 0 1-.751.426c-.265.114-.569.215-.911.304v-1.094l.619-.221.586-.26.586-.32.613-.404h.541zm2.011 7.917v-1.232c.519.35 1.046.525 1.58.525s.971-.137 1.298-.409.492-.643.492-1.1c0-.449-.168-.799-.503-1.049s-.808-.376-1.431-.376a24.3 24.3 0 0 0-1.298.066l.282-4.165h3.9v1.094h-2.834l-.133 1.983.691-.022c.84 0 1.488.216 1.944.646s.691 1.021.691 1.768c0 .785-.263 1.414-.79 1.889s-1.243.708-2.16.708c-.773 0-1.35-.109-1.729-.326zm11.314-2.365c0 .398-.066.761-.199 1.089a2.6 2.6 0 0 1-.541.85 2.48 2.48 0 0 1-.829.553c-.317.129-.661.193-1.033.193-.398 0-.764-.077-1.099-.232a2.38 2.38 0 0 1-.862-.691c-.239-.305-.425-.685-.558-1.138s-.199-.985-.199-1.585c0-.733.087-1.383.26-1.95s.418-1.042.724-1.425.665-.674 1.077-.873.858-.298 1.337-.298c.298 0 .569.02.812.06s.444.096.591.166v1.155a3.76 3.76 0 0 0-.602-.243 2.46 2.46 0 0 0-.735-.1 1.96 1.96 0 0 0-.856.188c-.261.125-.488.309-.68.552s-.337.538-.448.895-.162.763-.166 1.227h.033a1.79 1.79 0 0 1 .685-.619 2.19 2.19 0 0 1 1.022-.226c.346 0 .657.057.934.171a1.88 1.88 0 0 1 .713.486 2.13 2.13 0 0 1 .459.773c.107.302.16.643.16 1.022zm-1.293.105c0-.228-.028-.436-.083-.624s-.133-.348-.243-.481a1.1 1.1 0 0 0-.409-.314c-.166-.073-.354-.111-.575-.111s-.416.041-.585.122-.306.18-.42.309-.201.276-.26.442a1.6 1.6 0 0 0-.083.508 2.33 2.33 0 0 0 .077.58 1.83 1.83 0 0 0 .249.536 1.42 1.42 0 0 0 .42.403c.173.103.377.155.613.155.21 0 .396-.039.558-.116s.296-.184.403-.321a1.38 1.38 0 0 0 .249-.48 2.02 2.02 0 0 0 .088-.608zm3.094 2.563c-.221 0-.409-.071-.563-.215a.7.7 0 0 1-.232-.525c0-.206.077-.383.232-.53a.79.79 0 0 1 .563-.221c.22 0 .414.074.569.221a.71.71 0 0 1 .237.53c0 .206-.079.378-.237.525s-.344.215-.569.215zm6.48-8.043v5.116h1.177v1.066h-1.177v1.74h-1.243v-1.74h-3.585v-1.077l.994-1.183.983-1.303.878-1.337c.269-.446.495-.873.68-1.282h1.293zm-1.243 5.116v-3.326a17.93 17.93 0 0 1-1.193 1.889l-1.099 1.437h2.292zm3.502 2.624v-1.232c.519.35 1.046.525 1.58.525s.97-.137 1.298-.409.492-.643.492-1.1c0-.449-.168-.799-.503-1.049s-.808-.376-1.431-.376a24.29 24.29 0 0 0-1.298.066l.282-4.165h3.9v1.094H80.96l-.133 1.983.691-.022c.84 0 1.488.216 1.945.646s.691 1.021.691 1.768c0 .785-.263 1.414-.79 1.889s-1.243.708-2.16.708c-.773 0-1.35-.109-1.729-.326zm11.109-7.099l-.939 1.806-.801 1.79-.624 1.818a14.25 14.25 0 0 0-.409 1.867h-1.342a13.77 13.77 0 0 1 .376-1.696l.58-1.696.74-1.707.878-1.729H85.29v-1.094h5.292v.641zm1.751 7.402c-.221 0-.409-.071-.563-.215a.7.7 0 0 1-.232-.525c0-.206.077-.383.232-.53a.79.79 0 0 1 .563-.221c.225 0 .414.074.569.221a.71.71 0 0 1 .238.53c0 .206-.079.378-.238.525s-.344.215-.569.215zm6.878-.121H94.24v-.613c0-.251.035-.485.105-.702a2.78 2.78 0 0 1 .282-.619 3.3 3.3 0 0 1 .414-.546 6.47 6.47 0 0 1 .508-.498l.552-.464.552-.453.464-.419a2.96 2.96 0 0 0 .359-.431 1.97 1.97 0 0 0 .232-.464 1.69 1.69 0 0 0 .083-.536c0-.21-.033-.392-.099-.547a1 1 0 0 0-.271-.392 1.08 1.08 0 0 0-.409-.238 1.57 1.57 0 0 0-.519-.083c-.324 0-.654.076-.989.227s-.657.377-.967.679v-1.232a3.93 3.93 0 0 1 .492-.315 3.04 3.04 0 0 1 .514-.226 2.95 2.95 0 0 1 .558-.138 4.11 4.11 0 0 1 .624-.044 3.12 3.12 0 0 1 .972.143c.291.092.54.23.746.415a1.77 1.77 0 0 1 .475.679 2.42 2.42 0 0 1 .171.939 2.88 2.88 0 0 1-.121.867 2.68 2.68 0 0 1-.337.713 3.61 3.61 0 0 1-.525.63l-.691.613-.641.508-.569.481c-.169.155-.307.311-.414.469a.82.82 0 0 0-.155.47v.028h3.574v1.099zm4.171-8.099v8.099H102.1v-6.53a4.15 4.15 0 0 1-.751.426 6.36 6.36 0 0 1-.912.304v-1.094l.619-.221.586-.26.585-.32.613-.404h.542zm-50.376 51.737h-.841v-6.356c-.065.065-.161.14-.287.226a4.04 4.04 0 0 1-.421.246l-.492.231a3.45 3.45 0 0 1-.503.169v-.851a5.25 5.25 0 0 0 .585-.205l.61-.293.569-.338c.178-.12.332-.236.462-.349h.318v7.52zm5.909-5.427c0-.226-.036-.423-.108-.59s-.164-.306-.287-.416-.262-.196-.426-.251a1.67 1.67 0 0 0-.533-.082 1.74 1.74 0 0 0-.482.067 2.42 2.42 0 0 0-.462.184 3.06 3.06 0 0 0-.431.282c-.14.109-.265.231-.385.365v-.903c.236-.229.499-.404.79-.523s.651-.185 1.072-.185a2.53 2.53 0 0 1 .836.133c.256.089.479.212.667.38a1.73 1.73 0 0 1 .441.621 2.07 2.07 0 0 1 .164.846 2.81 2.81 0 0 1-.103.79 2.35 2.35 0 0 1-.303.667c-.133.208-.303.408-.508.6a7.4 7.4 0 0 1-.723.585l-.857.631c-.222.174-.4.338-.533.492s-.222.303-.277.457-.077.324-.077.523h3.663v.754h-4.54v-.364a3.03 3.03 0 0 1 .103-.831 2.16 2.16 0 0 1 .338-.683c.157-.215.363-.43.616-.646l.939-.728a5.81 5.81 0 0 0 .667-.549 2.92 2.92 0 0 0 .436-.523c.109-.174.186-.351.231-.529s.072-.373.072-.574zm6.674 3.18a2.48 2.48 0 0 1-.185.975c-.123.29-.299.54-.528.749a2.35 2.35 0 0 1-.821.482 3.22 3.22 0 0 1-1.072.169c-.684 0-1.192-.103-1.523-.308v-.892c.499.321 1.011.482 1.534.482.267 0 .506-.039.718-.118s.398-.188.549-.328a1.38 1.38 0 0 0 .344-.508 1.69 1.69 0 0 0 .123-.652c0-.478-.161-.853-.482-1.123s-.788-.41-1.4-.41l-.313.005-.328.015-.323.016-.282.025.251-3.688h3.401v.759h-2.672l-.149 2.16.349-.016.328-.01a3.29 3.29 0 0 1 1.046.154c.308.103.568.25.78.441a1.83 1.83 0 0 1 .487.698c.109.277.169.581.169.923zm12.039 2.247h-.857v-4.935a17.35 17.35 0 0 1 .072-1.431h-.02c-.082.332-.156.569-.221.713l-2.514 5.653h-.421l-2.508-5.612c-.072-.164-.145-.415-.221-.754h-.021a17.56 17.56 0 0 1 .041 1.441v4.925h-.831v-7.356h1.139l2.257 5.13c.174.393.287.687.338.882h.031l.354-.903 2.303-5.109h1.077v7.356zm1.939 0v-7.356h2.093c.636 0 1.14.156 1.513.467s.559.716.559 1.216c0 .417-.113.779-.339 1.087s-.537.527-.934.657v.02c.496.058.893.246 1.19.564s.446.725.446 1.231c0 .63-.226 1.139-.677 1.529s-1.021.585-1.708.585h-2.144zm.862-6.576v2.375h.882c.472 0 .843-.113 1.113-.339s.405-.55.405-.964c0-.715-.47-1.072-1.411-1.072h-.99zm0 3.149v2.647h1.17c.506 0 .898-.12 1.175-.359s.421-.568.421-.985c0-.868-.592-1.303-1.775-1.303h-.99z" class="E"/><path d="M43.395 447.126l-1.131-1.131-3.475 3.475v-9.859h-1.616v9.859l-3.475-3.475-1.131 1.131 5.414 5.415 5.414-5.415z" class="D"/><path d="M148.929 449.611h-.842v-6.356c-.065.065-.16.14-.287.226a4.59 4.59 0 0 1-.42.246c-.154.082-.319.159-.493.231a3.42 3.42 0 0 1-.503.169v-.851a5.22 5.22 0 0 0 .585-.205l.611-.293.569-.338c.178-.12.332-.236.462-.349h.318v7.52zm6.919-2.247a2.48 2.48 0 0 1-.184.975c-.123.29-.299.54-.529.749-.225.208-.499.369-.82.482a3.22 3.22 0 0 1-1.072.169c-.684 0-1.192-.103-1.524-.308v-.892c.499.321 1.011.482 1.534.482.267 0 .506-.039.718-.118s.398-.188.549-.328a1.4 1.4 0 0 0 .344-.508c.082-.199.123-.416.123-.652 0-.478-.161-.853-.482-1.123s-.789-.41-1.401-.41l-.313.005-.328.015-.323.016-.282.025.251-3.688h3.401v.759h-2.673l-.148 2.16.348-.016.329-.01c.39 0 .738.051 1.046.154s.568.25.78.441.378.421.487.698.169.581.169.923zm12.04 2.247h-.857v-4.935c0-.39.024-.867.072-1.431h-.021c-.082.332-.155.569-.22.713l-2.514 5.653h-.42l-2.509-5.612a4.35 4.35 0 0 1-.22-.754h-.021c.027.294.041.775.041 1.441v4.925h-.831v-7.356h1.139l2.257 5.13c.174.393.287.687.339.882h.03l.354-.903 2.303-5.109h1.078v7.356zm1.939 0v-7.356h2.093c.636 0 1.14.156 1.513.467a1.51 1.51 0 0 1 .559 1.216c0 .417-.113.779-.339 1.087s-.537.527-.933.657v.02c.496.058.892.246 1.19.564s.446.725.446 1.231c0 .63-.226 1.139-.677 1.529s-1.021.585-1.708.585h-2.144zm.861-6.576v2.375h.883c.472 0 .843-.113 1.113-.339s.405-.55.405-.964c0-.715-.47-1.072-1.411-1.072h-.99zm0 3.149v2.647h1.17c.506 0 .898-.12 1.175-.359s.42-.568.42-.985c0-.868-.591-1.303-1.775-1.303h-.99z" class="E"/><path d="M139.317 445.025l-1.131 1.131-3.475-3.474v9.859h-1.617v-9.859l-3.474 3.474-1.132-1.131 5.415-5.414 5.414 5.414z" class="D"/><path d="M246.857 445.902c0 .616-.056 1.161-.169 1.636s-.27.878-.482 1.206-.467.573-.775.744-.651.251-1.041.251a2.01 2.01 0 0 1-.99-.241 2.11 2.11 0 0 1-.729-.713c-.198-.311-.348-.693-.451-1.144s-.154-.975-.154-1.559c0-.643.053-1.211.159-1.703s.269-.905.477-1.237.467-.586.775-.754.667-.256 1.067-.256c1.542 0 2.313 1.257 2.313 3.77zm-.862.082c0-2.093-.497-3.139-1.492-3.139-1.05 0-1.575 1.065-1.575 3.196 0 1.987.515 2.98 1.544 2.98 1.016 0 1.523-1.012 1.523-3.037zm6.264 1.38a2.48 2.48 0 0 1-.185.975c-.123.29-.299.54-.528.749s-.5.369-.821.482a3.22 3.22 0 0 1-1.072.169c-.684 0-1.192-.103-1.524-.308v-.892c.5.321 1.011.482 1.534.482.267 0 .506-.039.718-.118s.399-.188.549-.328.265-.31.344-.508.123-.416.123-.652c0-.478-.161-.853-.482-1.123s-.789-.41-1.401-.41l-.313.005-.328.015-.323.016-.282.025.251-3.688h3.401v.759h-2.672l-.149 2.16.349-.016.328-.01c.39 0 .739.051 1.046.154s.568.25.78.441.378.421.487.698.17.581.17.923zm1.836-1.98a.55.55 0 0 1-.405-.169.56.56 0 0 1-.164-.405c0-.158.054-.291.164-.401s.248-.164.405-.164.298.055.41.164a.54.54 0 0 1 .17.401c0 .157-.057.292-.17.405s-.249.169-.41.169zm0 4.34c-.157 0-.292-.057-.405-.17s-.164-.248-.164-.405a.56.56 0 0 1 .164-.405c.113-.116.248-.174.405-.174a.55.55 0 0 1 .41.174c.113.113.17.248.17.405a.55.55 0 0 1-.17.405c-.112.113-.249.17-.41.17zm6.104-2.36a2.48 2.48 0 0 1-.184.975 2.14 2.14 0 0 1-.529.749c-.225.208-.499.369-.82.482a3.22 3.22 0 0 1-1.073.169c-.684 0-1.191-.103-1.523-.308v-.892c.499.321 1.01.482 1.534.482.266 0 .506-.039.718-.118s.398-.188.549-.328.265-.31.343-.508.123-.416.123-.652c0-.478-.16-.853-.482-1.123s-.788-.41-1.4-.41l-.313.005-.328.015-.323.016-.283.025.252-3.688h3.401v.759h-2.673l-.149 2.16.349-.016.329-.01c.389 0 .738.051 1.046.154s.568.25.78.441.378.421.487.698.169.581.169.923zm5.053-5.109v4.858h.944v.769h-.944v1.729h-.831v-1.729h-3.457v-.728l.974-1.16.939-1.256.831-1.267a11.57 11.57 0 0 0 .646-1.216h.898zm-3.339 4.858h2.508v-3.601l-.728 1.2-.657.959-.59.78-.533.662z" class="E"/><path d="M230.313 439.611c-3.556 0-6.465 2.909-6.465 6.465s2.909 6.465 6.465 6.465 6.464-2.909 6.464-6.465-2.909-6.465-6.464-6.465zm0 11.314c-2.667 0-4.849-2.182-4.849-4.849s2.182-4.849 4.849-4.849 4.848 2.182 4.848 4.849-2.182 4.849-4.848 4.849zm.807-8.082h-1.616v4.041h4.04v-1.616h-2.424v-2.425z" class="D"/><path fill="#e8e6e0" d="M32.324 422.641h234.351v.808H32.324z"/><path d="M0 0h299v29.092H0z" class="C"/><path d="M42.881 9.826l-1.918 6.79h-.933l-1.397-4.962c-.06-.212-.096-.442-.109-.691h-.019a3.51 3.51 0 0 1-.123.682l-1.406 4.972h-.923l-1.989-6.79h.876l1.444 5.208c.06.218.098.445.114.682h.024c.016-.167.065-.395.147-.682l1.501-5.208h.762l1.439 5.246a3.83 3.83 0 0 1 .114.635h.019a3.81 3.81 0 0 1 .128-.653l1.387-5.227h.862zm4.427 4.56h-3.423c.013.54.158.957.436 1.25s.66.44 1.146.44c.546 0 1.048-.18 1.506-.54v.729c-.426.309-.99.464-1.69.464-.685 0-1.223-.219-1.615-.658s-.587-1.062-.587-1.861c0-.754.213-1.368.639-1.842a2.06 2.06 0 0 1 1.596-.715c.634 0 1.125.205 1.473.616s.521.98.521 1.709v.407zm-.795-.658c-.003-.448-.112-.797-.327-1.046s-.507-.374-.885-.374c-.366 0-.677.131-.933.393s-.413.604-.474 1.027h2.619zm7.126-3.902l-2.514 6.79h-.876l-2.462-6.79h.885l1.88 5.384a3.19 3.19 0 0 1 .137.601h.019a2.95 2.95 0 0 1 .156-.611l1.918-5.374h.857zm1.771 4.224v2.566h-.795v-6.79h1.865c.726 0 1.288.177 1.686.53s.601.852.601 1.496-.223 1.171-.668 1.582-1.04.615-1.794.615h-.895zm0-3.504v2.784h.833c.549 0 .968-.125 1.255-.374s.436-.608.436-1.065c0-.897-.53-1.345-1.591-1.345h-.933zm10.114 6.07h-.975l-3.494-5.412a2.26 2.26 0 0 1-.218-.426h-.029c.025.145.038.456.038.933v4.906h-.796v-6.79h1.032l3.4 5.327.275.455h.019c-.032-.196-.047-.529-.047-.999V9.826h.796v6.79z" class="B"/><path d="M253.746 0H299v29.092h-45.254z" class="C"/><path d="M273.279 17.64a.42.42 0 0 0 .323.139.42.42 0 0 0 .324-.139l2.447-2.447 2.447 2.447a.5.5 0 0 0 .324.139.5.5 0 0 0 .323-.139c.185-.185.185-.462 0-.646l-2.447-2.447 2.447-2.447c.185-.185.185-.462 0-.646s-.462-.185-.647 0l-2.447 2.447-2.447-2.447c-.185-.185-.462-.185-.647 0s-.185.462 0 .646l2.448 2.447-2.448 2.447c-.185.185-.185.462 0 .646z" class="B"/><path d="M208.492 0h45.254v29.092h-45.254z" class="C"/><g opacity=".3"><mask id="B" class="B"><path d="M233.544 15.354h2.425V8.889h-6.465v2.424"/></mask><path d="M233.544 16.162h-.808v-1.616h.808v1.616zm2.425-.808h.808v.808h-.808v-.808zm0-6.465v-.808h.808v.808h-.808zm-6.465 0h-.808v-.808h.808v.808zm.808 2.424v.808h-1.616v-.808h1.616zm3.232 3.232h2.425v1.616h-2.425v-1.616zm1.617.808V8.889h1.616v6.465h-1.616zm.808-5.657h-6.465V8.081h6.465v1.616zm-5.657-.808v2.424h-1.616V8.889h1.616z" mask="url(#B)" class="B"/><path d="M227.482 11.718v5.657h5.657v-5.657h-5.657z" stroke="#fff" stroke-width=".808" stroke-miterlimit="10"/></g><path d="M163.238 0h45.254v29.092h-45.254z" class="C"/><path d="M183.037 14.546h5.657a.38.38 0 0 0 .404-.404.38.38 0 0 0-.404-.404h-5.657a.38.38 0 0 0-.404.404.38.38 0 0 0 .404.404z" class="B"/><rect x="12.93" y="6.465" width="16.162" height="16.162" rx="8.081" fill="#fd3e72"/><mask id="C" mask-type="alpha" maskUnits="userSpaceOnUse" x="12" y="6" width="18" height="17"><rect x="12.93" y="6.465" width="16.162" height="16.162" rx="8.081" fill="#fd3e72"/></mask><g mask="url(#C)"><g style="mix-blend-mode:multiply"><path d="M30.101 19.496L25.05 9.697l-1.077 7.526-7.004.556 5.69 9.899 7.441-8.182z" fill="url(#D)" fill-opacity=".24"/></g></g><path d="M25.052 9.495c-.789 0-1.426.667-1.426 1.495v4.331c0 .181-.01.362-.03.554a1.46 1.46 0 0 1-.148.512c-.079.155-.197.285-.355.388s-.385.155-.671.155-.513-.052-.671-.155-.276-.233-.355-.388a1.46 1.46 0 0 1-.148-.512 5.29 5.29 0 0 1-.03-.554v-4.465c-.789 0-1.425.668-1.425 1.495v2.965c0 .181-.01.362-.03.554a1.46 1.46 0 0 1-.148.512c-.079.155-.197.285-.355.388s-.385.155-.671.155-.513-.052-.671-.155-.276-.233-.355-.388a1.46 1.46 0 0 1-.148-.512 5.29 5.29 0 0 1-.03-.554v-3.099c-.789 0-1.426.673-1.426 1.495v1.604a4.71 4.71 0 0 0 .118 1.118c.079.321.178.595.296.828a2.33 2.33 0 0 0 .419.579c.158.155.321.279.483.378.38.228.819.352 1.307.367.498-.015.937-.14 1.322-.367.163-.098.326-.223.479-.378l.118-.129.118.129c.158.155.321.279.483.378.38.228.819.352 1.307.367.498-.015.937-.14 1.322-.367.163-.098.326-.223.479-.378s.296-.347.419-.579.222-.507.296-.828.109-.688.109-1.118l.015-5.821z" class="B"/><path d="M0 29.092h299v97.781c0 17.852-14.472 32.324-32.324 32.324H32.324C14.472 159.197 0 144.725 0 126.873V29.092z" class="C"/><use xlink:href="#E" class="B"/><use xlink:href="#E" y="7.273" class="B"/><use xlink:href="#E" y="-7.273" class="B"/><circle cx="149.905" cy="159.601" r="63.437" class="C"/><circle cx="149.905" cy="159.601" r="57.78" class="G"/><path d="M150.457 134.779c-5.019 0-9.925 1.488-14.098 4.276s-7.425 6.751-9.345 11.388a25.37 25.37 0 0 0 5.5 27.653 25.38 25.38 0 0 0 12.992 6.944c4.922.979 10.024.477 14.661-1.444s8.6-5.173 11.388-9.345 4.276-9.079 4.276-14.098a25.4 25.4 0 0 0-25.374-25.374zm-1.104 9.929c0-.293.117-.573.324-.78a1.1 1.1 0 0 1 .78-.323c.292 0 .573.116.78.323a1.1 1.1 0 0 1 .323.78v13.239c0 .292-.116.573-.323.78s-.488.323-.78.323a1.1 1.1 0 0 1-.78-.323c-.207-.207-.324-.488-.324-.78v-13.239zm1.104 29.787a14.34 14.34 0 0 1-8.133-2.529c-2.393-1.647-4.228-3.982-5.265-6.695s-1.225-5.677-.54-8.5a14.34 14.34 0 0 1 4.376-7.307c.108-.098.234-.174.371-.224s.283-.07.428-.063.288.044.42.106a1.1 1.1 0 0 1 .346.26 1.11 1.11 0 0 1 .22.373c.048.138.068.283.06.429s-.047.288-.111.419-.153.247-.262.344a12.13 12.13 0 0 0-3.706 6.194 12.14 12.14 0 0 0 4.942 12.866c2.031 1.39 4.437 2.13 6.899 2.121s4.862-.767 6.883-2.172a12.14 12.14 0 0 0 4.847-12.902 12.14 12.14 0 0 0-3.751-6.167 1.09 1.09 0 0 1-.273-.342c-.067-.13-.107-.273-.118-.42a1.1 1.1 0 0 1 .054-.434 1.11 1.11 0 0 1 .218-.378 1.08 1.08 0 0 1 .348-.264 1.12 1.12 0 0 1 .424-.109c.147-.007.294.015.432.065a1.1 1.1 0 0 1 .373.227c2.186 1.927 3.733 4.473 4.436 7.301s.528 5.802-.502 8.527a14.34 14.34 0 0 1-5.262 6.73c-2.396 1.657-5.241 2.544-8.154 2.544z" class="C"/><path d="M117.712 69.997c-.682.354-1.53.53-2.544.53-1.314 0-2.366-.415-3.157-1.244s-1.187-1.917-1.187-3.264c0-1.448.444-2.618 1.332-3.51s2.018-1.338 3.378-1.338c.875 0 1.601.124 2.178.372v1.49c-.61-.362-1.284-.543-2.02-.543-.981 0-1.776.313-2.387.941s-.909 1.465-.909 2.513c0 .998.284 1.793.852 2.386s1.316.884 2.242.884c.854 0 1.595-.202 2.222-.606v1.389zm5.284.53c-1.305 0-2.35-.423-3.138-1.269-.782-.846-1.174-1.947-1.174-3.302 0-1.456.4-2.618 1.2-3.485s1.885-1.3 3.257-1.3c1.272 0 2.294.421 3.069 1.263s1.168 1.943 1.168 3.302c0 1.477-.398 2.645-1.194 3.504s-1.858 1.288-3.188 1.288zm.07-8.037c-.829 0-1.505.309-2.027.928s-.776 1.433-.776 2.443.252 1.816.757 2.431a2.44 2.44 0 0 0 1.983.922c.867 0 1.551-.293 2.051-.878s.752-1.404.752-2.456c0-1.082-.244-1.917-.733-2.506-.484-.589-1.153-.884-2.007-.884zm13.649 7.885h-1.641l-4.325-6.654c-.109-.168-.2-.343-.271-.524h-.038c.033.194.05.608.05 1.244v5.935h-1.452v-9.053h1.749l4.179 6.496.341.556h.025c-.042-.24-.063-.646-.063-1.218v-5.834h1.446v9.053zm9.925 0h-1.642l-4.324-6.654a2.95 2.95 0 0 1-.272-.524h-.038c.034.194.051.608.051 1.244v5.935h-1.452v-9.053h1.748l4.18 6.496.341.556h.025c-.042-.24-.063-.646-.063-1.218v-5.834h1.446v9.053zm7.329 0h-5.082v-9.053h4.88v1.275h-3.377v2.563h3.112v1.269h-3.112v2.677h3.579v1.269zm7.924-.379c-.682.354-1.53.53-2.545.53-1.313 0-2.365-.415-3.156-1.244s-1.187-1.917-1.187-3.264c0-1.448.444-2.618 1.332-3.51s2.018-1.338 3.378-1.338c.875 0 1.601.124 2.178.372v1.49a3.89 3.89 0 0 0-2.021-.543c-.98 0-1.776.313-2.386.941s-.909 1.465-.909 2.513c0 .998.284 1.793.852 2.386s1.315.884 2.241.884c.855 0 1.596-.202 2.223-.606v1.389zm7.525-7.399h-2.601v7.778h-1.502v-7.778h-2.595v-1.275h6.698v1.275zm6.408 7.778h-5.082v-9.053h4.88v1.275h-3.377v2.563h3.112v1.269h-3.112v2.677h3.579v1.269zm1.61 0v-9.053h2.614c3.338 0 5.006 1.471 5.006 4.413 0 1.397-.463 2.521-1.389 3.371s-2.167 1.269-3.724 1.269h-2.507zm1.496-7.778v6.509h1.2c1.056 0 1.877-.291 2.462-.871s.884-1.402.884-2.462c0-2.117-1.096-3.176-3.289-3.176h-1.257zm9.332-1.275l-.12 6.389h-1.2l-.164-6.389h1.484zm-.701 9.18c-.253 0-.467-.08-.644-.24a.78.78 0 0 1-.265-.594c0-.24.088-.444.265-.612a.9.9 0 0 1 .644-.252c.244 0 .454.084.631.252s.272.373.272.612c0 .231-.091.429-.272.594a.91.91 0 0 1-.631.24z" class="B"/></g><defs><linearGradient id="D" x1="21.346" y1="14.041" x2="25.064" y2="21.202" gradientUnits="userSpaceOnUse"><stop stop-color="#666"/><stop offset="1" stop-color="#666" stop-opacity="0"/></linearGradient><path id="E" d="M279.604 56.568c0-.893-.724-1.616-1.617-1.616s-1.616.724-1.616 1.616.724 1.616 1.616 1.616 1.617-.724 1.617-1.616z"/></defs></svg>