<svg xmlns="http://www.w3.org/2000/svg" xmlns:xlink="http://www.w3.org/1999/xlink" width="300" height="485" fill="none" xmlns:v="https://vecta.io/nano"><style><![CDATA[.B{fill:#5b5863}.C{fill:#fff}.D{fill:#afadb2}.E{fill-rule:evenodd}.F{fill:#f5f3ed}.G{fill:#f9f8f4}.H{stroke-width:.808}]]></style><mask id="A" mask-type="alpha" maskUnits="userSpaceOnUse" x="0" y="0" width="300" height="485"><rect width="299.083" height="485" rx="8.083" class="G"/></mask><g mask="url(#A)"><path d="M0 29.1h299.083V485H0z" class="G"/><path d="M0 381.533h299.083V485H0z" class="G"/><path d="M182.339 381.185l-2.934 7.923h-1.022l-2.873-7.923h1.033l2.194 6.282c.07.203.123.437.16.702h.022c.029-.221.09-.459.182-.713l2.238-6.271h1zm2.067 4.928v2.995h-.928v-7.923h2.177c.847 0 1.503.206 1.967.618s.702.995.702 1.747-.26 1.366-.779 1.845-1.214.718-2.095.718h-1.044zm0-4.089v3.25h.973c.641 0 1.129-.146 1.464-.437s.508-.709.508-1.243c0-1.046-.619-1.57-1.856-1.57h-1.089zm11.803 7.084h-1.138l-4.078-6.315c-.103-.159-.188-.325-.255-.498h-.033c.03.17.045.533.045 1.089v5.724h-.929v-7.923h1.205l3.967 6.216.321.53h.022c-.037-.228-.055-.617-.055-1.166v-5.58h.928v7.923zm6.111 0h-.928v-7.923h.928v7.923zm3.017-2.995v2.995h-.928v-7.923h2.177c.848 0 1.503.206 1.967.618s.702.995.702 1.747-.26 1.366-.779 1.845-1.214.718-2.094.718h-1.045zm0-4.089v3.25h.973c.641 0 1.129-.146 1.464-.437s.509-.709.509-1.243c0-1.046-.619-1.57-1.857-1.57h-1.089zm5.609 2.531c-.169 0-.315-.061-.436-.182s-.177-.267-.177-.437.059-.313.177-.431.267-.177.436-.177a.61.61 0 0 1 .442.177c.122.118.182.262.182.431s-.06.315-.182.437-.269.182-.442.182zm0 4.675c-.169 0-.315-.061-.436-.182s-.177-.267-.177-.437.059-.315.177-.436c.121-.126.267-.188.436-.188a.59.59 0 0 1 .624.624c0 .17-.06.315-.182.437s-.269.182-.442.182z" class="D"/><path d="M179.223 403.464h-3.017v-.945h3.017v.945zm4.553 0h-3.017v-.945h3.017v.945z" class="B"/><path d="M34.299 389.108h-.928v-7.923h.928v7.923zm3.017-2.995v2.995h-.928v-7.923h2.177c.847 0 1.503.206 1.967.618s.702.995.702 1.747-.26 1.366-.779 1.845-1.214.718-2.094.718h-1.044zm0-4.089v3.25h.973c.641 0 1.129-.146 1.464-.437s.508-.709.508-1.243c0-1.046-.619-1.57-1.857-1.57h-1.089zm5.609 2.531c-.169 0-.315-.061-.436-.182s-.177-.267-.177-.437.059-.313.177-.431.267-.177.436-.177a.61.61 0 0 1 .442.177.58.58 0 0 1 .182.431c0 .17-.061.315-.182.437s-.269.182-.442.182zm0 4.675c-.169 0-.315-.061-.436-.182s-.177-.267-.177-.437.059-.315.177-.436c.122-.126.267-.188.436-.188a.59.59 0 0 1 .442.188c.122.121.182.267.182.436s-.061.315-.182.437-.269.182-.442.182z" class="D"/><path d="M36.145 403.464h-3.017v-.945h3.017v.945zm4.553 0h-3.017v-.945h3.017v.945zm13.844 42.56c0 .615-.056 1.161-.169 1.636s-.27.878-.482 1.206-.467.573-.775.744a2.12 2.12 0 0 1-1.042.252 2.02 2.02 0 0 1-.99-.241c-.287-.165-.53-.402-.729-.714s-.349-.692-.452-1.144-.154-.975-.154-1.56c0-.643.053-1.211.159-1.703s.268-.905.477-1.237.467-.586.775-.754a2.18 2.18 0 0 1 1.067-.257c1.543 0 2.314 1.257 2.314 3.772zm-.862.082c0-2.094-.498-3.14-1.493-3.14-1.05 0-1.575 1.065-1.575 3.196 0 1.988.515 2.981 1.544 2.981 1.016 0 1.524-1.012 1.524-3.037zm10.262 3.627h-1.201l-2.843-3.366-.195-.256h-.02v3.622h-.862v-7.357h.862v3.458h.02a2.1 2.1 0 0 1 .195-.252l2.75-3.206h1.072l-3.156 3.53 3.376 3.827zm.975 0v-7.357h2.093c.636 0 1.141.155 1.514.466a1.51 1.51 0 0 1 .559 1.216c0 .418-.113.78-.339 1.088s-.537.527-.934.657v.021c.496.058.893.246 1.19.564s.446.725.446 1.231c0 .63-.226 1.14-.677 1.529s-1.021.585-1.709.585h-2.145zm.862-6.578v2.376h.882c.472 0 .843-.113 1.113-.339s.405-.55.405-.964c0-.715-.47-1.073-1.411-1.073h-.99zm0 3.151v2.647h1.17c.506 0 .898-.119 1.175-.359s.421-.568.421-.985c0-.869-.592-1.303-1.775-1.303h-.99z" class="B"/><path d="M43.406 447.251l-1.132-1.132-3.476 3.476v-9.862h-1.617v9.862l-3.476-3.476-1.132 1.132 5.416 5.416 5.416-5.416z" class="D"/><path d="M150.491 446.024c0 .615-.056 1.161-.169 1.636s-.27.878-.482 1.206-.467.573-.775.744a2.12 2.12 0 0 1-1.042.252 2.02 2.02 0 0 1-.99-.241c-.287-.165-.53-.402-.728-.714s-.349-.692-.452-1.144-.154-.975-.154-1.56c0-.643.053-1.211.159-1.703s.269-.905.477-1.237.467-.586.775-.754.667-.257 1.067-.257c1.543 0 2.314 1.257 2.314 3.772zm-.862.082c0-2.094-.497-3.14-1.493-3.14-1.05 0-1.575 1.065-1.575 3.196 0 1.988.515 2.981 1.545 2.981 1.015 0 1.523-1.012 1.523-3.037zm10.262 3.627h-1.2l-2.843-3.366-.195-.256h-.02v3.622h-.862v-7.357h.862v3.458h.02a2.12 2.12 0 0 1 .195-.252l2.75-3.206h1.073l-3.156 3.53 3.376 3.827zm.975 0v-7.357h2.094c.636 0 1.141.155 1.513.466a1.51 1.51 0 0 1 .56 1.216c0 .418-.113.78-.339 1.088s-.537.527-.934.657v.021c.496.058.893.246 1.191.564s.446.725.446 1.231c0 .63-.226 1.14-.677 1.529s-1.021.585-1.709.585h-2.145zm.862-6.578v2.376h.883c.472 0 .843-.113 1.113-.339s.406-.55.406-.964c0-.715-.471-1.073-1.411-1.073h-.991zm0 3.151v2.647h1.17c.507 0 .898-.119 1.175-.359s.421-.568.421-.985c0-.869-.592-1.303-1.775-1.303h-.991z" class="B"/><path d="M139.355 445.149l-1.132 1.132-3.475-3.476v9.862h-1.617v-9.862l-3.476 3.476-1.132-1.132 5.416-5.416 5.416 5.416z" class="D"/><path d="M246.925 446.024c0 .615-.056 1.161-.169 1.636s-.271.878-.483 1.206a2.17 2.17 0 0 1-.774.744c-.305.168-.652.252-1.042.252-.369 0-.7-.081-.99-.241s-.53-.402-.729-.714-.349-.692-.451-1.144-.154-.975-.154-1.56c0-.643.053-1.211.159-1.703s.268-.905.477-1.237.467-.586.775-.754.667-.257 1.067-.257c1.543 0 2.314 1.257 2.314 3.772zm-.862.082c0-2.094-.498-3.14-1.493-3.14-1.05 0-1.575 1.065-1.575 3.196 0 1.988.514 2.981 1.544 2.981 1.016 0 1.524-1.012 1.524-3.037zm6.527-.082c0 .615-.057 1.161-.17 1.636s-.27.878-.482 1.206-.467.573-.775.744-.651.252-1.041.252c-.37 0-.7-.081-.991-.241s-.53-.402-.728-.714-.349-.692-.452-1.144-.154-.975-.154-1.56c0-.643.053-1.211.159-1.703s.269-.905.478-1.237.466-.586.774-.754.667-.257 1.068-.257c1.542 0 2.314 1.257 2.314 3.772zm-.862.082c0-2.094-.498-3.14-1.493-3.14-1.051 0-1.576 1.065-1.576 3.196 0 1.988.515 2.981 1.545 2.981 1.016 0 1.524-1.012 1.524-3.037zm2.437-.601a.55.55 0 0 1-.405-.169.56.56 0 0 1-.165-.405.54.54 0 0 1 .165-.4.56.56 0 0 1 .405-.165c.161 0 .298.055.41.165s.17.242.17.4-.057.292-.17.405-.249.169-.41.169zm0 4.341a.55.55 0 0 1-.405-.169.56.56 0 0 1-.165-.405.56.56 0 0 1 .165-.406c.112-.116.248-.174.405-.174a.55.55 0 0 1 .41.174c.113.113.17.248.17.406s-.057.292-.17.405-.249.169-.41.169zm6.368-3.822c0 .615-.057 1.161-.17 1.636s-.27.878-.482 1.206-.467.573-.775.744a2.12 2.12 0 0 1-1.042.252 2.02 2.02 0 0 1-.99-.241c-.287-.165-.53-.402-.728-.714s-.349-.692-.452-1.144-.154-.975-.154-1.56c0-.643.053-1.211.159-1.703s.269-.905.477-1.237.467-.586.775-.754.667-.257 1.067-.257c1.543 0 2.315 1.257 2.315 3.772zm-.862.082c0-2.094-.498-3.14-1.494-3.14-1.05 0-1.575 1.065-1.575 3.196 0 1.988.515 2.981 1.545 2.981 1.016 0 1.524-1.012 1.524-3.037zm6.526-.082c0 .615-.056 1.161-.169 1.636s-.27.878-.482 1.206-.467.573-.775.744-.652.252-1.042.252a2.02 2.02 0 0 1-.99-.241c-.287-.165-.53-.402-.729-.714s-.349-.692-.451-1.144-.154-.975-.154-1.56c0-.643.053-1.211.159-1.703s.268-.905.477-1.237.467-.586.775-.754.667-.257 1.067-.257c1.543 0 2.314 1.257 2.314 3.772zm-.862.082c0-2.094-.498-3.14-1.493-3.14-1.05 0-1.575 1.065-1.575 3.196 0 1.988.515 2.981 1.544 2.981 1.016 0 1.524-1.012 1.524-3.037z" class="B"/><path d="M230.377 439.733a6.49 6.49 0 0 0-6.467 6.467 6.49 6.49 0 0 0 6.467 6.467 6.49 6.49 0 0 0 6.466-6.467 6.49 6.49 0 0 0-6.466-6.467zm0 11.317c-2.668 0-4.85-2.182-4.85-4.85s2.182-4.85 4.85-4.85 4.85 2.183 4.85 4.85-2.183 4.85-4.85 4.85zm.81-8.083h-1.617v4.041h4.042v-1.616h-2.425v-2.425z" class="D"/><path fill="#e8e6e0" d="M32.332 422.758h234.417v.808H32.332z"/><rect x="32.332" y="286.15" width="234.417" height="72.75" rx="4.042" class="C"/><path d="M235.644 328.847l5.376-6.273c.26-.302.26-.749 0-1.051l-5.376-6.273-1.228 1.052 4.926 5.747-4.925 5.746 1.227 1.052zM52.399 311.996v-1.094a2.09 2.09 0 0 0 .448.298 4.02 4.02 0 0 0 .553.227 4.78 4.78 0 0 0 .586.138c.195.033.376.05.541.05.571 0 .997-.105 1.276-.315s.425-.519.425-.917c0-.214-.048-.4-.144-.558s-.221-.303-.387-.431a3.92 3.92 0 0 0-.591-.376l-.729-.381-.774-.426a3.37 3.37 0 0 1-.624-.475c-.177-.173-.317-.369-.42-.586a1.87 1.87 0 0 1-.149-.773c0-.362.079-.675.238-.94a2.08 2.08 0 0 1 .624-.663c.257-.173.551-.302.879-.387s.669-.127 1.011-.127c.781 0 1.35.094 1.707.282v1.044c-.468-.324-1.068-.486-1.801-.486a2.86 2.86 0 0 0-.608.066c-.203.044-.383.109-.541.205a1.2 1.2 0 0 0-.387.37c-.099.151-.149.335-.149.553a1.16 1.16 0 0 0 .111.525 1.33 1.33 0 0 0 .337.403 3.41 3.41 0 0 0 .536.354l.735.375.807.442a3.72 3.72 0 0 1 .669.514 2.23 2.23 0 0 1 .453.625 1.73 1.73 0 0 1 .171.784c0 .391-.077.722-.232.995a1.86 1.86 0 0 1-.619.658c-.258.169-.556.291-.895.364s-.696.116-1.072.116c-.125 0-.28-.011-.464-.033a5.27 5.27 0 0 1-.564-.088c-.191-.037-.374-.083-.547-.138a1.77 1.77 0 0 1-.409-.194zm10.808-2.282h-3.995c.015.63.184 1.116.508 1.459s.77.514 1.337.514c.637 0 1.223-.21 1.757-.63v.851c-.497.361-1.155.541-1.973.541-.799 0-1.427-.256-1.884-.768s-.685-1.239-.685-2.171c0-.881.249-1.597.746-2.15a2.41 2.41 0 0 1 1.862-.834c.74 0 1.313.239 1.718.718s.608 1.144.608 1.995v.475zm-.928-.768c-.004-.523-.131-.93-.381-1.221s-.591-.437-1.033-.437a1.46 1.46 0 0 0-1.089.459c-.298.306-.483.705-.553 1.199h3.056zm3.21 3.371h-.906v-8.377h.906v8.377zm6.382-2.603h-3.995c.015.63.184 1.116.508 1.459s.77.514 1.337.514c.637 0 1.223-.21 1.757-.63v.851c-.497.361-1.155.541-1.973.541-.799 0-1.427-.256-1.884-.768s-.685-1.239-.685-2.171c0-.881.249-1.597.746-2.15a2.41 2.41 0 0 1 1.862-.834c.74 0 1.313.239 1.719.718s.608 1.144.608 1.995v.475zm-.928-.768c-.004-.523-.131-.93-.381-1.221s-.591-.437-1.033-.437a1.46 1.46 0 0 0-1.089.459c-.298.306-.483.705-.553 1.199h3.056zm6.161 3.111c-.435.261-.951.392-1.547.392-.807 0-1.459-.261-1.956-.784s-.74-1.209-.74-2.045c0-.932.267-1.68.801-2.243s1.247-.851 2.138-.851c.497 0 .936.092 1.315.276v.928c-.42-.294-.869-.442-1.348-.442-.578 0-1.053.208-1.426.625-.368.412-.553.956-.553 1.63 0 .663.173 1.186.519 1.569s.818.575 1.404.575c.494 0 .958-.164 1.392-.492v.862zm3.995.204c-.214.118-.495.177-.846.177-.991 0-1.486-.552-1.486-1.657v-3.349h-.972v-.774h.972v-1.381l.906-.293v1.674H81.1v.774h-1.426v3.188c0 .38.064.65.193.813s.343.243.641.243c.228 0 .425-.063.591-.188v.773zm5.758-2.547h-3.995c.015.63.184 1.116.508 1.459s.77.514 1.337.514c.637 0 1.223-.21 1.757-.63v.851c-.497.361-1.155.541-1.973.541-.799 0-1.427-.256-1.884-.768s-.685-1.239-.685-2.171c0-.881.249-1.597.746-2.15a2.41 2.41 0 0 1 1.862-.834c.74 0 1.313.239 1.719.718s.608 1.144.608 1.995v.475zm-.928-.768c-.004-.523-.131-.93-.381-1.221s-.591-.437-1.033-.437a1.46 1.46 0 0 0-1.088.459c-.298.306-.483.705-.553 1.199h3.056zm7.134 3.371h-.906v-.962h-.022c-.42.73-1.068 1.094-1.945 1.094-.711 0-1.28-.252-1.707-.757s-.635-1.199-.635-2.072c0-.936.236-1.685.707-2.249s1.1-.845 1.884-.845c.777 0 1.343.305 1.696.917h.022v-3.503h.906v8.377zm-.906-2.559v-.834a1.62 1.62 0 0 0-.453-1.161 1.52 1.52 0 0 0-1.149-.475c-.553 0-.987.203-1.304.608s-.475.965-.475 1.68c0 .652.151 1.168.453 1.547s.715.564 1.227.564a1.54 1.54 0 0 0 1.227-.547c.317-.365.475-.826.475-1.382zm10.079 2.559h-4.112v-7.924h.928v7.084h3.183v.84zm3.459.132c-.837 0-1.505-.263-2.006-.79s-.746-1.232-.746-2.105c0-.951.26-1.693.779-2.227s1.221-.801 2.105-.801c.844 0 1.501.259 1.973.779s.713 1.239.713 2.16c0 .903-.256 1.627-.768 2.172s-1.192.812-2.05.812zm.066-5.161c-.582 0-1.043.199-1.382.597s-.508.939-.508 1.636c0 .67.171 1.199.514 1.586s.801.58 1.376.58c.586 0 1.035-.19 1.348-.569s.475-.92.475-1.619c0-.708-.158-1.253-.475-1.636s-.762-.575-1.348-.575zm8.056 4.769c-.434.261-.95.392-1.547.392-.807 0-1.459-.261-1.956-.784s-.74-1.209-.74-2.045c0-.932.267-1.68.801-2.243s1.247-.851 2.138-.851c.498 0 .936.092 1.315.276v.928c-.419-.294-.869-.442-1.348-.442-.578 0-1.053.208-1.425.625s-.553.956-.553 1.63c0 .663.173 1.186.519 1.569s.818.575 1.404.575c.494 0 .958-.164 1.392-.492v.862zm5.421.26h-.906v-.884h-.022c-.394.677-.975 1.016-1.741 1.016-.563 0-1.005-.149-1.326-.447s-.475-.695-.475-1.188c0-1.058.622-1.673 1.868-1.846l1.696-.238c0-.961-.389-1.442-1.166-1.442-.682 0-1.297.232-1.846.696v-.928c.557-.353 1.198-.53 1.923-.53 1.33 0 1.995.703 1.995 2.111v3.68zm-.906-2.863l-1.365.188c-.42.059-.737.164-.95.315s-.321.411-.321.79c0 .277.098.503.293.68s.462.26.79.26a1.45 1.45 0 0 0 1.111-.47c.295-.317.442-.716.442-1.199v-.564zm5.238 2.807c-.213.118-.495.177-.845.177-.991 0-1.487-.552-1.487-1.657v-3.349h-.972v-.774h.972v-1.381l.907-.293v1.674h1.425v.774h-1.425v3.188c0 .38.064.65.193.813s.343.243.641.243c.228 0 .426-.063.591-.188v.773zm1.675-7.039c-.162 0-.301-.056-.415-.166a.56.56 0 0 1-.171-.42c0-.17.057-.31.171-.42a.58.58 0 0 1 .415-.171.58.58 0 0 1 .42.171.55.55 0 0 1 .176.42c0 .162-.059.3-.176.414a.57.57 0 0 1-.42.172zm.442 7.095h-.907v-5.659h.907v5.659zm4.199.132c-.836 0-1.505-.263-2.006-.79s-.746-1.232-.746-2.105c0-.951.26-1.693.78-2.227s1.221-.801 2.105-.801c.843 0 1.501.259 1.972.779s.713 1.239.713 2.16c0 .903-.256 1.627-.768 2.172s-1.191.812-2.05.812zm.067-5.161c-.583 0-1.043.199-1.382.597s-.508.939-.508 1.636c0 .67.171 1.199.514 1.586s.801.58 1.376.58c.585 0 1.035-.19 1.348-.569s.475-.92.475-1.619c0-.708-.158-1.253-.475-1.636s-.763-.575-1.348-.575zm8.896 5.029h-.906v-3.227c0-1.201-.439-1.802-1.315-1.802-.454 0-.829.172-1.128.514s-.442.768-.442 1.288v3.227h-.906v-5.659h.906v.94h.022c.428-.715 1.047-1.072 1.857-1.072.619 0 1.092.2 1.42.602s.492.974.492 1.73v3.459zm2.028-4.554c-.17 0-.315-.06-.437-.182a.59.59 0 0 1-.177-.436c0-.169.059-.314.177-.431s.267-.177.437-.177a.61.61 0 0 1 .442.177c.121.117.182.261.182.431s-.061.315-.182.436a.6.6 0 0 1-.442.182zm0 4.675a.6.6 0 0 1-.437-.182c-.118-.122-.177-.267-.177-.437a.6.6 0 0 1 .177-.436.59.59 0 0 1 .437-.188c.173 0 .32.063.442.188a.6.6 0 0 1 .182.436.6.6 0 0 1-.182.437c-.122.121-.269.182-.442.182z" class="D"/><path d="M91.539 332.021c0 2.861-1.355 4.291-4.064 4.291-2.596 0-3.893-1.376-3.893-4.128v-6.23h1.691v5.882c0 1.999.777 2.998 2.33 2.998 1.497 0 2.245-.963 2.245-2.891v-5.989h1.691v6.067zm1.925 3.716v-1.741c.156.142.341.27.554.384a4.83 4.83 0 0 0 .689.291c.242.076.483.135.725.178s.464.064.668.064c.71 0 1.239-.119 1.584-.356s.526-.58.526-1.03a1.09 1.09 0 0 0-.178-.625c-.114-.18-.275-.343-.483-.49s-.455-.287-.739-.419l-.902-.427-.966-.561c-.298-.189-.559-.398-.781-.625s-.391-.493-.519-.782-.185-.627-.185-1.016c0-.478.106-.892.32-1.243a2.74 2.74 0 0 1 .852-.874c.355-.232.758-.402 1.208-.511a5.59 5.59 0 0 1 1.378-.171c1.066 0 1.842.121 2.33.363v1.669c-.578-.417-1.321-.625-2.231-.625-.251 0-.502.024-.753.071s-.469.125-.668.234-.353.249-.476.42-.185.376-.185.618c0 .227.047.424.142.589s.232.318.412.455.407.272.668.405l.916.419 1.002.583c.317.203.594.428.831.675a2.85 2.85 0 0 1 .568.824c.142.298.213.639.213 1.023 0 .516-.104.952-.313 1.307s-.49.644-.845.867-.755.383-1.215.483a6.9 6.9 0 0 1-1.456.149c-.17 0-.381-.014-.632-.043-.246-.023-.5-.061-.76-.113a6.64 6.64 0 0 1-.739-.178 2.34 2.34 0 0 1-.561-.241zm16.767.405h-1.854l-.917-2.594h-4.007l-.881 2.594h-1.847l3.815-10.188h1.904l3.787 10.188zm-3.218-3.972l-1.414-4.064c-.043-.132-.088-.345-.135-.639h-.029c-.042.27-.09.483-.142.639l-1.399 4.064h3.119zm12.276.604h-3.879v-1.215h3.879v1.215zm14.856 3.368h-1.847l-4.867-7.489c-.123-.189-.225-.386-.306-.589h-.042c.038.218.057.684.057 1.399v6.679h-1.634v-10.188h1.968l4.703 7.31.383.625h.029c-.048-.269-.071-.727-.071-1.371v-6.564h1.627v10.188zm8.504-3.19h-4.959c.019.672.225 1.191.618 1.556s.942.547 1.634.547c.777 0 1.49-.232 2.138-.697v1.329c-.663.417-1.539.625-2.628.625-1.071 0-1.911-.329-2.522-.987-.607-.664-.91-1.594-.91-2.792 0-1.132.334-2.054 1.002-2.764.673-.715 1.506-1.073 2.501-1.073s1.764.32 2.309.959.817 1.528.817 2.664v.633zm-1.592-1.165c-.004-.592-.144-1.052-.419-1.379s-.653-.497-1.137-.497c-.473 0-.876.173-1.207.519s-.528.798-.604 1.357h3.367zm12.945-2.92l-2.146 7.275h-1.726l-1.322-4.931c-.052-.189-.085-.403-.099-.639h-.029c-.009.161-.052.369-.127.625l-1.435 4.945h-1.691l-2.139-7.275h1.705l1.322 5.243c.042.156.071.364.085.625h.05a3.39 3.39 0 0 1 .113-.639l1.471-5.229h1.549l1.307 5.264c.043.166.073.374.092.625h.05c.01-.175.045-.383.107-.625l1.293-5.264h1.57zm12.518-2.913l-3.339 6.486v3.702h-1.691v-3.666l-3.254-6.522h1.925l2.004 4.369c.024.052.095.249.213.59h.021c.043-.152.121-.348.235-.59l2.096-4.369h1.79zm3.048 10.358c-1.123 0-2.02-.339-2.693-1.016s-1.002-1.584-1.002-2.707c0-1.222.348-2.176 1.045-2.863s1.643-1.03 2.827-1.03c1.137 0 2.023.334 2.657 1.002s.952 1.594.952 2.778c0 1.16-.343 2.091-1.03 2.792s-1.601 1.044-2.756 1.044zm.078-6.302c-.644 0-1.153.225-1.528.675s-.561 1.071-.561 1.862c0 .762.19 1.364.568 1.804s.886.654 1.521.654c.649 0 1.146-.216 1.492-.647s.526-1.044.526-1.84-.176-1.418-.526-1.854-.843-.654-1.492-.654zm9.612.427c-.199-.157-.485-.235-.859-.235-.488 0-.896.22-1.222.661s-.491 1.04-.491 1.797v3.482h-1.648v-7.275h1.648v1.499h.029c.161-.512.407-.91.739-1.194.336-.289.71-.433 1.122-.433.299 0 .526.045.682.135v1.563zm7.765 5.705h-2.088l-2.828-3.496h-.028v3.496h-1.656v-10.771h1.656v6.828h.028l2.671-3.332h1.983l-3.006 3.509 3.268 3.766z" class="B"/><path d="M51.731 322.525h21.017v1.244H51.731v-1.244zm0 2.488h21.017v1.244H51.731v-1.244zm0 2.485h21.017v1.247H51.731v-1.247zm0 2.488h21.017v1.244H51.731v-1.244zm0 2.488h21.017v1.244H51.731v-1.244zm0 2.485h21.017v1.244H51.731v-1.244zm0 2.488h21.017v1.245H51.731v-1.245z" fill="#bd3d44" class="E"/><path d="M51.731 324.142h21.017v1.176H51.731v-1.176zm0 2.352h21.017v1.174H51.731v-1.174zm0 2.35h21.017v1.176H51.731v-1.176zm0 2.352h21.017v1.177H51.731v-1.177zm0 2.353h21.017v1.176H51.731v-1.176zm0 2.35h21.017v1.176H51.731v-1.176z" class="C E"/><path d="M51.731 322.525H63.37v8.505H51.731v-8.505z" fill="#192f5d" class="E"/><path d="M52.699 322.889l.108.336h.341l-.275.207.105.339-.278-.209-.275.206.105-.336-.278-.207h.347l.102-.336zm1.941 0l.105.336h.344l-.278.207.105.339-.275-.209-.278.206.105-.336-.275-.207h.341l.108-.336zm1.938 0l.108.336h.338l-.275.207.105.339-.278-.209-.275.206.105-.336-.278-.207h.344l.108-.336zm1.941 0l.105.336h.344l-.278.207.108.339-.278-.209-.278.206.108-.336-.278-.207h.341l.108-.336zm1.938 0l.108.336h.341l-.275.207.105.339-.278-.209-.275.206.105-.336-.275-.207h.341l.105-.336zm1.941 0l.105.336h.344l-.278.207.108.339-.278-.209-.278.206.108-.336-.278-.207h.344l.105-.336zm-8.729.852l.105.336h.344l-.278.207.102.336-.269-.207-.278.207.099-.336-.269-.207h.341l.105-.336zm1.938 0l.108.336h.341l-.278.207.108.336-.278-.207-.278.207.108-.336-.278-.207h.344l.105-.336zm1.941 0l.105.336h.344l-.278.207.105.336-.275-.207-.278.207.105-.336-.275-.207h.341l.108-.336zm1.938 0l.108.336h.341l-.278.207.108.336-.278-.207-.275.207.105-.336-.278-.207h.347l.102-.336zm1.941 0l.105.336h.344l-.278.207.105.336-.275-.207-.278.207.105-.336-.275-.207h.341l.108-.336zm-8.732.848l.108.342h.341l-.275.207.105.336-.278-.21-.275.21.105-.339-.278-.207h.347l.102-.339zm1.941 0l.105.339h.344l-.278.207.105.336-.275-.21-.278.21.105-.339-.275-.207h.341l.108-.336zm1.938 0l.108.339h.338l-.275.207.105.336-.278-.21-.275.21.105-.339-.278-.207h.344l.108-.336zm1.941 0l.105.339h.344l-.278.207.108.336-.278-.21-.278.21.108-.339-.278-.207h.341l.108-.336zm1.938 0l.108.339h.341l-.275.207.105.336-.278-.21-.275.21.105-.339-.275-.207h.341l.105-.336zm1.941 0l.105.339h.344l-.278.207.108.336-.278-.21-.278.21.108-.339-.278-.207h.344l.105-.336zm-8.729.851l.105.337h.344l-.278.206.105.34-.275-.21-.278.207.105-.337-.275-.206h.341l.108-.337zm1.938 0l.108.337h.341l-.278.206.108.34-.278-.21-.278.207.108-.337-.278-.206h.344l.105-.337zm1.941 0l.105.337h.344l-.278.206.105.34-.275-.21-.278.207.105-.337-.275-.206h.341l.108-.337zm1.938 0l.108.337h.341l-.275.206.105.34-.278-.21-.275.207.105-.337-.278-.206h.347l.102-.337zm1.941 0l.105.337h.344l-.278.206.105.34-.275-.21-.278.207.105-.337-.275-.206h.341l.108-.337zm-8.732.852l.108.336h.341l-.275.207.105.339-.278-.21-.275.207.105-.336-.278-.207h.347l.102-.336zm1.941 0l.105.336h.344l-.278.207.105.336-.275-.207-.278.207.105-.336-.275-.207h.341l.108-.336zm1.938 0l.108.336h.338l-.275.207.105.339-.278-.21-.275.207.105-.336-.278-.207h.344l.108-.336zm1.941 0l.105.336h.344l-.278.207.108.339-.278-.21-.278.207.108-.336-.278-.207h.341l.108-.336zm1.938 0l.108.336h.341l-.275.207.105.339-.278-.21-.275.207.105-.336-.275-.207h.341l.105-.336zm1.941 0l.105.336h.344l-.278.207.108.339-.278-.21-.278.207.108-.336-.278-.207h.344l.105-.336zm-8.729.851l.105.336h.344l-.278.207.105.336-.275-.209-.278.209.105-.339-.275-.207h.341l.108-.333zm1.938 0l.108.336h.341l-.278.207.108.336-.278-.209-.278.209.108-.339-.278-.207h.344l.105-.333zm1.941 0l.105.336h.344l-.278.207.105.336-.275-.209-.278.209.105-.339-.275-.207h.341l.108-.333zm1.938 0l.108.336h.341l-.275.207.105.336-.278-.209-.275.209.105-.339-.278-.207h.347l.102-.333zm1.941 0l.105.336h.344l-.278.207.105.336-.275-.209-.278.209.105-.339-.275-.207h.341l.108-.333zm-8.732.848l.108.34h.341l-.275.207.105.333-.278-.207-.275.207.105-.337-.278-.206h.347l.102-.337zm1.941 0l.105.34h.344l-.278.207.108.333-.278-.207-.278.207.108-.337-.278-.206h.341l.108-.337zm1.938 0l.108.34h.338l-.275.207.105.333-.278-.207-.275.207.105-.337-.278-.206h.344l.108-.337zm1.941 0l.105.34h.344l-.278.207.108.333-.278-.207-.278.207.108-.337-.278-.206h.341l.108-.337zm1.938 0l.108.34h.341l-.275.207.105.333-.278-.207-.275.207.105-.337-.275-.206h.341l.105-.337zm1.941 0l.105.34h.344l-.278.207.108.333-.278-.207-.278.207.108-.337-.278-.206h.344l.105-.337zm-8.729.852l.105.336h.344l-.278.207.105.339-.275-.21-.278.207.105-.336-.275-.207h.341l.108-.336zm1.938 0l.108.336h.341l-.278.207.108.339-.278-.21-.278.207.108-.336-.278-.207h.344l.105-.336zm1.941 0l.105.336h.344l-.278.207.105.339-.275-.21-.278.207.105-.336-.275-.207h.341l.108-.336zm1.938 0l.108.336h.341l-.275.207.105.339-.278-.21-.275.207.105-.336-.278-.207h.347l.102-.336zm1.941 0l.105.336h.344l-.278.207.105.339-.275-.21-.278.207.105-.336-.275-.207h.341l.108-.336zm-8.732.851l.108.337h.341l-.275.206.105.337-.278-.207-.275.207.105-.34-.278-.207h.347l.102-.333zm1.941 0l.105.337h.344l-.278.206.108.337-.278-.207-.278.207.108-.34-.278-.207h.341l.108-.333zm1.938 0l.108.337h.338l-.269.206.105.337-.278-.207-.275.207.105-.34-.278-.207h.344l.102-.333zm1.941 0l.105.337h.344l-.278.206.108.337-.278-.207-.278.207.108-.34-.278-.207h.341l.108-.333zm1.938 0l.108.337h.341l-.275.206.105.337-.278-.207-.275.207.105-.34-.275-.207h.341l.105-.333zm1.941 0l.105.337h.344l-.278.206.108.337-.278-.207-.278.207.108-.34-.278-.207h.344l.105-.333z" class="C E"/><path d="M0 0h299.083v29.1H0z" class="F"/><path d="M42.891 9.825l-1.918 6.792h-.933l-1.397-4.964c-.06-.212-.096-.442-.109-.692h-.019a3.51 3.51 0 0 1-.123.682l-1.407 4.973h-.924l-1.989-6.792h.876l1.445 5.21a3.42 3.42 0 0 1 .114.682h.024c.016-.167.065-.395.147-.682l1.502-5.21h.762l1.44 5.248c.05.18.088.392.114.635h.019c.013-.164.055-.382.128-.654l1.388-5.229h.862zm4.429 4.561h-3.424c.013.54.158.957.436 1.25s.66.44 1.146.44c.546 0 1.048-.18 1.506-.54v.729c-.426.309-.99.464-1.691.464-.685 0-1.224-.22-1.615-.658s-.587-1.062-.587-1.861c0-.755.213-1.369.639-1.842a2.06 2.06 0 0 1 1.596-.715c.635 0 1.126.205 1.473.616s.521.98.521 1.71v.407zm-.796-.658c-.003-.448-.112-.797-.327-1.047s-.507-.374-.886-.374c-.366 0-.677.131-.933.393s-.414.605-.474 1.028h2.619zm7.128-3.903l-2.515 6.792h-.876l-2.463-6.792h.886l1.88 5.385a3.2 3.2 0 0 1 .137.601h.019c.025-.189.077-.393.156-.611l1.918-5.376h.857zm1.771 4.225v2.567h-.796V9.825h1.866c.726 0 1.288.177 1.686.531s.601.853.601 1.497-.223 1.171-.668 1.582-1.04.616-1.795.616h-.895zm0-3.505v2.785h.834c.549 0 .968-.125 1.255-.374s.436-.608.436-1.066c0-.897-.53-1.345-1.591-1.345h-.933zm10.117 6.072h-.976l-3.495-5.414a2.26 2.26 0 0 1-.218-.426h-.029c.025.145.038.456.038.933v4.907h-.796V9.825h1.032l3.401 5.328.275.455h.019c-.032-.196-.047-.529-.047-.999V9.825h.796v6.792z" class="B"/><path d="M253.816 0h45.267v29.1h-45.267z" class="F"/><path d="M273.353 17.645a.42.42 0 0 0 .324.139c.138 0 .231-.046.323-.139l2.448-2.448 2.448 2.448a.5.5 0 0 0 .324.139.5.5 0 0 0 .323-.139c.185-.185.185-.462 0-.647l-2.448-2.448 2.448-2.448c.185-.185.185-.462 0-.647s-.462-.185-.647 0l-2.448 2.448L274 11.455c-.185-.185-.462-.185-.647 0s-.184.462 0 .647l2.449 2.448-2.449 2.448c-.184.185-.184.462 0 .647z" class="B"/><path d="M208.551 0h45.267v29.1h-45.267z" class="F"/><g opacity=".3"><mask id="B" class="C"><path d="M233.608 15.358h2.425V8.892h-6.467v2.425"/></mask><path d="M233.608 16.167h-.808V14.55h.808v1.617zm2.425-.808h.808v.808h-.808v-.808zm0-6.467v-.808h.808v.808h-.808zm-6.467 0h-.808v-.808h.808v.808zm.809 2.425v.808h-1.617v-.808h1.617zm3.233 3.233h2.425v1.617h-2.425V14.55zm1.617.808V8.892h1.616v6.467h-1.616zm.808-5.658h-6.467V8.083h6.467V9.7zm-5.658-.808v2.425h-1.617V8.892h1.617z" mask="url(#B)" class="B"/><path d="M227.545 11.721v5.658h5.658v-5.658h-5.658z" stroke="#5b5863" stroke-miterlimit="10" class="H"/></g><path d="M163.285 0h45.267v29.1h-45.267z" class="F"/><path d="M183.088 14.55h5.658a.38.38 0 0 0 .404-.404.38.38 0 0 0-.404-.404h-5.658a.38.38 0 0 0-.404.404.38.38 0 0 0 .404.404z" class="B"/><rect x="12.934" y="6.467" width="16.167" height="16.167" rx="8.083" fill="#fd3e72"/><mask id="C" mask-type="alpha" maskUnits="userSpaceOnUse" x="12" y="6" width="18" height="17"><rect x="12.934" y="6.467" width="16.167" height="16.167" rx="8.083" fill="#fd3e72"/></mask><g mask="url(#C)"><g style="mix-blend-mode:multiply"><path d="M30.112 19.501L25.06 9.7l-1.078 7.528-7.005.556 5.692 9.902 7.443-8.184z" fill="url(#E)" fill-opacity=".24"/></g></g><path d="M25.059 9.498c-.789 0-1.426.668-1.426 1.496v4.332c0 .181-.01.362-.03.554a1.46 1.46 0 0 1-.148.512 1.01 1.01 0 0 1-.355.388c-.158.104-.385.155-.671.155s-.513-.052-.671-.155a1.01 1.01 0 0 1-.355-.388 1.46 1.46 0 0 1-.148-.512 5.29 5.29 0 0 1-.03-.554v-4.467c-.79 0-1.426.668-1.426 1.496v2.966c0 .181-.01.362-.03.554a1.46 1.46 0 0 1-.148.512c-.079.155-.197.285-.355.388s-.385.155-.671.155-.513-.052-.671-.155-.276-.233-.355-.388a1.46 1.46 0 0 1-.148-.512 5.29 5.29 0 0 1-.03-.554v-3.1c-.789 0-1.426.673-1.426 1.496v1.604c0 .424.04.797.119 1.118a3.86 3.86 0 0 0 .296.828 2.33 2.33 0 0 0 .419.58c.158.155.321.279.484.378.38.228.819.352 1.308.367.498-.016.938-.14 1.322-.367.163-.098.326-.223.479-.378l.119-.129.118.129a2.63 2.63 0 0 0 .483.378c.38.228.819.352 1.308.367.498-.016.938-.14 1.322-.367a2.45 2.45 0 0 0 .479-.378 2.33 2.33 0 0 0 .419-.58c.123-.233.222-.507.296-.828s.109-.688.109-1.118l.015-5.823z" class="C"/><path d="M0 29.1h299.083v97.808c0 17.858-14.476 32.334-32.333 32.334H32.333C14.476 159.242 0 144.766 0 126.908V29.1z" class="F"/><use xlink:href="#F" class="B"/><use xlink:href="#F" y="7.275" class="B"/><use xlink:href="#F" y="-7.275" class="B"/><circle cx="149.946" cy="159.646" r="63.454" fill="#f1efe8"/><circle cx="149.946" cy="159.646" r="63.454" class="C"/><g filter="url(#D)"><path d="M163.718 201.846l-1.035-1.611c-.706-1.099-2.211-1.501-3.362-.898l.268-.14c-.285.149-.422.522-.305.832l1.433 3.775a5.66 5.66 0 0 0 1.287 1.87s2.881 2.429 2.881 3.34v1.153h4.668l1.167-2.378 1.167 2.378h1.167v-1.153c0-.911 1.761-3.78 1.761-3.78a5.16 5.16 0 0 0 .594-2.192v-4.796c-.021-1.062-.907-1.923-2.001-1.923-.547 0-.99.431-.99.962v.384c0-1.062-.886-1.922-1.979-1.922-.547 0-.99.43-.99.961v.384c0-1.062-.886-1.922-1.98-1.922-.547 0-.99.43-.99.961v.384a1.38 1.38 0 0 0-.052-.413l-.302-4.954c-.041-.669-.595-1.19-1.24-1.19s-1.167.532-1.167 1.189v10.699zm8.19-1.189h1.167v4.755h-1.167v-4.755zm-2.334 0h1.167v4.755h-1.167v-4.755zm-2.334 0h1.167v4.755h-1.167v-4.755z" class="C E"/><path d="M163.024 200.017a3.04 3.04 0 0 0-3.615-1.164l-.007-.014-.268.14.021.041c-.294.295-.399.756-.249 1.153l1.433 3.774a6.03 6.03 0 0 0 1.397 2.029h0l.007.007h.001l.001.001.006.005.023.019.089.077.321.283.975.92c.354.355.7.729.954 1.064.127.167.225.316.289.441.068.133.079.202.079.221v1.557h5.324l.111-.226.804-1.639.915 1.865h1.823v-1.557c0-.138.078-.419.244-.82a15.12 15.12 0 0 1 .589-1.222l.598-1.072.196-.333.069-.114.004-.006.001-.001.005-.009c.185-.318.345-.739.459-1.157s.19-.864.19-1.238v-4.804c-.026-1.288-1.098-2.319-2.405-2.319a1.41 1.41 0 0 0-1.01.424 2.4 2.4 0 0 0-1.959-1.001 1.41 1.41 0 0 0-1.01.424c-.433-.607-1.153-1-1.96-1-.256 0-.499.068-.707.189l-.234-3.831c-.054-.878-.78-1.57-1.643-1.57-.88 0-1.571.721-1.571 1.593v9.322l-.29-.452zm9.288 1.044h.359v3.947h-.359v-3.947zm-2.334 0h.359v3.947h-.359v-3.947zm-2.334 0h.359v3.947h-.359v-3.947z" stroke="#000" stroke-opacity=".8" class="H"/></g><path d="M150.499 134.816a25.38 25.38 0 0 0-23.45 15.668c-1.921 4.638-2.423 9.742-1.444 14.665s3.397 9.446 6.946 12.996a25.39 25.39 0 0 0 12.996 6.947c4.924.979 10.027.476 14.665-1.445a25.38 25.38 0 0 0 15.669-23.449c-.008-6.73-2.685-13.181-7.443-17.94s-11.21-7.434-17.939-7.442zm-1.104 9.932c0-.293.117-.573.324-.78a1.1 1.1 0 0 1 .78-.324c.293 0 .573.117.78.324a1.1 1.1 0 0 1 .323.78v13.242c0 .293-.116.574-.323.781a1.1 1.1 0 0 1-1.56 0c-.207-.207-.324-.488-.324-.781v-13.242zm1.104 29.796a14.35 14.35 0 0 1-8.135-2.53c-2.393-1.648-4.23-3.983-5.266-6.697s-1.225-5.679-.54-8.502 2.211-5.373 4.376-7.31a1.11 1.11 0 0 1 .371-.223 1.12 1.12 0 0 1 .429-.064 1.12 1.12 0 0 1 .42.107 1.1 1.1 0 0 1 .346.26c.098.108.172.235.22.373s.068.283.06.429a1.11 1.11 0 0 1-.111.418 1.12 1.12 0 0 1-.262.345c-1.836 1.641-3.128 3.802-3.707 6.195a12.15 12.15 0 0 0 .467 7.205c.883 2.298 2.444 4.274 4.476 5.665a12.14 12.14 0 0 0 6.901 2.121c2.462-.009 4.864-.766 6.885-2.172a12.14 12.14 0 0 0 4.848-12.906 12.14 12.14 0 0 0-3.752-6.168 1.12 1.12 0 0 1-.273-.342c-.067-.131-.107-.274-.118-.421s.007-.294.054-.433a1.1 1.1 0 0 1 .567-.643 1.09 1.09 0 0 1 .423-.108 1.1 1.1 0 0 1 .433.064c.138.05.265.128.373.228a14.35 14.35 0 0 1 4.437 7.302c.703 2.828.528 5.804-.502 8.53s-2.866 5.075-5.263 6.732-5.243 2.545-8.157 2.545z" class="B"/><path d="M204.508 54.158c0-1.339-1.086-2.425-2.425-2.425H98.616c-1.339 0-2.425 1.086-2.425 2.425v24.25c0 1.339 1.086 2.425 2.425 2.425h46.018c.021 0 .032.026.017.041-.01.009-.01.024 0 .034l3.984 3.984c.947.947 2.482.947 3.429 0l3.985-3.984c.009-.009.009-.024 0-.034-.015-.015-.005-.041.017-.041h46.017c1.339 0 2.425-1.086 2.425-2.425v-24.25z" class="C E"/><path d="M116.538 70.06c-.586.309-1.316.464-2.189.464-1.127 0-2.029-.363-2.707-1.088s-1.017-1.678-1.017-2.857c0-1.267.381-2.291 1.144-3.072s1.729-1.172 2.901-1.172c.751 0 1.374.109 1.868.326v.989a3.79 3.79 0 0 0-1.879-.475c-.91 0-1.649.304-2.216.912s-.845 1.42-.845 2.437c0 .965.263 1.735.79 2.31s1.225.857 2.083.857c.796 0 1.485-.177 2.067-.53v.901zm2.398.331h-.906v-8.377h.906v8.377zm2.298-7.095c-.162 0-.3-.055-.414-.166a.56.56 0 0 1-.171-.42.56.56 0 0 1 .171-.42c.114-.114.252-.171.414-.171a.57.57 0 0 1 .42.171.55.55 0 0 1 .177.42c0 .162-.059.3-.177.414a.57.57 0 0 1-.42.171zm.443 7.095h-.907v-5.658h.907v5.658zm5.691-.26c-.435.261-.95.392-1.547.392-.807 0-1.459-.261-1.956-.785s-.741-1.208-.741-2.044c0-.932.267-1.68.801-2.243s1.247-.851 2.139-.851c.497 0 .936.092 1.315.276v.928c-.42-.295-.869-.442-1.348-.442-.579 0-1.054.208-1.426.624s-.552.956-.552 1.63c0 .663.173 1.186.519 1.569s.818.575 1.404.575c.493 0 .957-.164 1.392-.492v.862zm6.067.26h-1.271l-2.497-2.719h-.022v2.719h-.907v-8.377h.907v5.31h.022l2.376-2.591h1.188l-2.625 2.73 2.829 2.929zm6.659-.055c-.214.118-.496.177-.846.177-.991 0-1.486-.553-1.486-1.658v-3.349h-.973v-.774h.973v-1.382l.906-.293v1.674h1.426v.774h-1.426v3.188c0 .379.065.65.194.812s.342.243.64.243c.229 0 .426-.063.592-.188v.774zm3.575.188c-.836 0-1.505-.263-2.006-.79s-.746-1.232-.746-2.105c0-.95.26-1.693.779-2.227s1.221-.801 2.105-.801c.844 0 1.502.26 1.973.779s.713 1.24.713 2.16c0 .903-.256 1.626-.768 2.172s-1.192.812-2.05.812zm.066-5.161c-.582 0-1.042.199-1.381.597s-.509.939-.509 1.636c0 .67.172 1.199.514 1.586s.802.58 1.376.58c.586 0 1.035-.19 1.348-.569s.476-.919.476-1.619c0-.707-.159-1.252-.476-1.636s-.762-.575-1.348-.575zm11.162 4.769c-.435.261-.95.392-1.547.392-.807 0-1.459-.261-1.956-.785s-.741-1.208-.741-2.044c0-.932.267-1.68.802-2.243s1.247-.851 2.138-.851c.497 0 .936.092 1.315.276v.928c-.42-.295-.869-.442-1.348-.442-.578 0-1.054.208-1.426.624s-.552.956-.552 1.63c0 .663.173 1.186.519 1.569s.818.575 1.404.575c.493 0 .957-.164 1.392-.492v.862zm3.736.392c-.837 0-1.505-.263-2.006-.79s-.746-1.232-.746-2.105c0-.95.259-1.693.779-2.227s1.221-.801 2.105-.801c.844 0 1.501.26 1.973.779s.713 1.24.713 2.16c0 .903-.256 1.626-.768 2.172s-1.192.812-2.05.812zm.066-5.161c-.582 0-1.043.199-1.382.597s-.508.939-.508 1.636c0 .67.171 1.199.514 1.586s.801.58 1.376.58c.586 0 1.035-.19 1.348-.569s.475-.919.475-1.619c0-.707-.158-1.252-.475-1.636s-.762-.575-1.348-.575zm8.896 5.028h-.906v-3.227c0-1.201-.438-1.801-1.315-1.801a1.43 1.43 0 0 0-1.127.514c-.295.339-.442.768-.442 1.287v3.227h-.907v-5.658h.907v.939h.022c.427-.715 1.046-1.072 1.856-1.072.619 0 1.093.201 1.42.602s.492.974.492 1.73v3.459zm6.41 0h-.906v-3.227c0-1.201-.439-1.801-1.315-1.801-.453 0-.829.171-1.128.514s-.442.768-.442 1.287v3.227h-.906v-5.658h.906v.939h.023c.427-.715 1.046-1.072 1.856-1.072.619 0 1.092.201 1.42.602s.492.974.492 1.73v3.459zm6.261-2.603h-3.995c.014.63.184 1.116.508 1.459s.77.514 1.337.514c.637 0 1.223-.21 1.757-.63v.851c-.497.361-1.155.541-1.972.541-.8 0-1.428-.256-1.885-.768s-.685-1.24-.685-2.172c0-.88.249-1.597.746-2.15s1.122-.834 1.862-.834 1.314.239 1.719.718.608 1.144.608 1.995v.475zm-.929-.768c-.003-.523-.13-.93-.381-1.221s-.591-.436-1.033-.436c-.428 0-.79.153-1.089.459s-.482.706-.552 1.199h3.055zm6.162 3.111c-.435.261-.951.392-1.548.392-.806 0-1.458-.261-1.956-.785s-.74-1.208-.74-2.044c0-.932.267-1.68.801-2.243s1.247-.851 2.138-.851c.498 0 .936.092 1.316.276v.928c-.42-.295-.87-.442-1.349-.442-.578 0-1.053.208-1.425.624s-.553.956-.553 1.63c0 .663.173 1.186.52 1.569s.817.575 1.403.575c.494 0 .958-.164 1.393-.492v.862zm3.995.204c-.214.118-.496.177-.846.177-.991 0-1.486-.553-1.486-1.658v-3.349h-.973v-.774h.973v-1.382l.906-.293v1.674h1.426v.774h-1.426v3.188c0 .379.064.65.193.812s.343.243.641.243c.229 0 .426-.063.592-.188v.774z" class="B"/></g><defs><filter id="D" x="156.009" y="187.533" width="22.633" height="26.675" filterUnits="userSpaceOnUse" color-interpolation-filters="sRGB"><feFlood flood-opacity="0" result="A"/><feColorMatrix in="SourceAlpha" values="0 0 0 0 0 0 0 0 0 0 0 0 0 0 0 0 0 0 127 0"/><feOffset dy="0.808333"/><feGaussianBlur stdDeviation="1.213"/><feColorMatrix values="0 0 0 0 0 0 0 0 0 0 0 0 0 0 0 0 0 0 0.2 0"/><feBlend in2="A"/><feBlend in="SourceGraphic"/></filter><linearGradient id="E" x1="21.355" y1="14.045" x2="25.074" y2="21.207" gradientUnits="userSpaceOnUse"><stop stop-color="#666"/><stop offset="1" stop-color="#666" stop-opacity="0"/></linearGradient><path id="F" d="M279.683 56.583c0-.893-.724-1.617-1.617-1.617s-1.617.724-1.617 1.617.724 1.617 1.617 1.617 1.617-.724 1.617-1.617z"/></defs></svg>