<svg width="24" height="18" viewBox="0 0 24 18" fill="none" xmlns="http://www.w3.org/2000/svg">
<path d="M0 0H24V18H0V0Z" fill="#74ACDF"/>
<path d="M0 6H24V12H0V6Z" fill="white"/>
<path d="M11.8848 9.04679L12.9108 11.2788C12.9108 11.2788 12.9288 11.322 12.9576 11.3112C12.9864 11.2968 12.9684 11.2572 12.9684 11.2572L12.1152 8.95319L11.8848 9.04679ZM12.09 9.82079C12.0756 10.1592 12.2844 10.3464 12.2592 10.6488C12.2304 10.9548 12.396 11.124 12.4392 11.2428C12.4752 11.3616 12.3924 11.43 12.4284 11.448C12.4644 11.466 12.5364 11.3724 12.5148 11.2032C12.4896 11.0376 12.3636 10.9872 12.3924 10.6164C12.4212 10.2456 12.2412 10.1592 12.2844 9.82439" fill="#F6B40E"/>
<path d="M12.09 9.82079C12.0756 10.1592 12.2844 10.3464 12.2592 10.6488C12.2304 10.9548 12.396 11.124 12.4392 11.2428C12.4752 11.3616 12.3924 11.43 12.4284 11.448C12.4644 11.466 12.5364 11.3724 12.5148 11.2032C12.4896 11.0376 12.3636 10.9872 12.3924 10.6164C12.4212 10.2456 12.2412 10.1592 12.2844 9.82439M11.8848 9.04679L12.9108 11.2788C12.9108 11.2788 12.9288 11.322 12.9576 11.3112C12.9864 11.2968 12.9684 11.2572 12.9684 11.2572L12.1152 8.95319L11.8848 9.04679Z" stroke="#85340A" stroke-width="0.15"/>
<path d="M12.1558 9.8784C12.1738 10.2024 12.3574 10.3464 12.3214 10.6452C12.4006 10.4112 12.2098 10.2276 12.2206 9.882L12.1558 9.8784ZM11.9434 9.02519L12.6454 10.5588L12.0586 8.97839" fill="#85340A"/>
<path d="M11.9993 10.0013C12.5523 10.0013 13.0005 9.55301 13.0005 9.00003C13.0005 8.44705 12.5523 7.99878 11.9993 7.99878C11.4463 7.99878 10.998 8.44705 10.998 9.00003C10.998 9.55301 11.4463 10.0013 11.9993 10.0013Z" fill="#F6B40E" stroke="#85340A" stroke-width="0.15"/>
<path d="M12.3405 8.78625C12.273 8.78625 12.2055 8.81626 12.168 8.87626C12.243 8.94751 12.4155 8.95126 12.5317 8.86876C12.5072 8.84268 12.4775 8.82191 12.4446 8.80772C12.4117 8.79354 12.3763 8.78623 12.3405 8.78625ZM12.3405 8.80125C12.4042 8.80125 12.468 8.83126 12.4755 8.86126C12.4005 8.94751 12.2767 8.93626 12.198 8.87626C12.2131 8.85236 12.2342 8.83286 12.2592 8.81969C12.2842 8.80653 12.3122 8.80017 12.3405 8.80125Z" fill="#843511"/>
<path d="M11.8491 9.13876C11.8371 9.13997 11.8256 9.14423 11.8156 9.15112C11.8057 9.15802 11.7977 9.16733 11.7924 9.17818C11.787 9.18903 11.7845 9.20106 11.7851 9.21314C11.7857 9.22522 11.7894 9.23695 11.7957 9.24722C11.8021 9.2575 11.811 9.26598 11.8216 9.27187C11.8321 9.27776 11.844 9.28087 11.8561 9.2809C11.8682 9.28093 11.8801 9.27788 11.8907 9.27204C11.9013 9.26619 11.9102 9.25775 11.9166 9.24751C11.9414 9.26285 11.97 9.27067 11.9991 9.27001H12.0066C12.037 9.27167 12.0672 9.2638 12.0929 9.24751C12.0998 9.25702 12.109 9.26467 12.1196 9.26977C12.1302 9.27487 12.1419 9.27727 12.1537 9.27675C12.1654 9.27622 12.1769 9.2728 12.187 9.26677C12.1971 9.26075 12.2055 9.25232 12.2116 9.24222C12.2176 9.23213 12.2211 9.2207 12.2217 9.20895C12.2222 9.1972 12.2199 9.18549 12.2148 9.17487C12.2097 9.16425 12.2021 9.15505 12.1926 9.1481C12.1831 9.14114 12.172 9.13665 12.1604 9.13501C12.1791 9.14626 12.1904 9.16126 12.1904 9.18376C12.1904 9.20626 12.1716 9.22876 12.1454 9.22876C12.1335 9.22876 12.122 9.22402 12.1136 9.21558C12.1051 9.20714 12.1004 9.19569 12.1004 9.18376C12.0915 9.20227 12.0777 9.218 12.0605 9.22924C12.0433 9.24047 12.0234 9.24679 12.0029 9.24751C11.983 9.24613 11.9639 9.23951 11.9474 9.22831C11.9309 9.21711 11.9177 9.20173 11.9091 9.18376C11.9092 9.19 11.9079 9.19617 11.9054 9.20189C11.9029 9.20761 11.8992 9.21275 11.8947 9.21698C11.8901 9.22121 11.8847 9.22444 11.8788 9.22647C11.8729 9.2285 11.8666 9.22928 11.8604 9.22876C11.8379 9.22876 11.8154 9.20626 11.8154 9.18376C11.8154 9.16126 11.8266 9.14626 11.8454 9.13876H11.8491ZM11.9241 9.34501C11.8454 9.34501 11.8116 9.41251 11.7441 9.45751C11.7816 9.44251 11.8154 9.41251 11.8679 9.38251C11.9204 9.35251 11.9691 9.39001 11.9991 9.39001C12.0291 9.39001 12.0741 9.35251 12.1304 9.38251C12.1829 9.41251 12.2166 9.44251 12.2541 9.45751C12.1829 9.41251 12.1529 9.34501 12.0741 9.34501C12.0479 9.34765 12.0225 9.35529 11.9991 9.36751C11.9761 9.35398 11.9506 9.34506 11.9241 9.34126V9.34501Z" fill="#85340A"/>
<path d="M11.8951 9.43497C11.8651 9.43497 11.8276 9.44247 11.7676 9.45747C11.9063 9.42747 11.9363 9.47622 12.0001 9.47622C12.0601 9.47622 12.0901 9.42747 12.2288 9.45747C12.0788 9.41248 12.0451 9.44247 12.0001 9.44247C11.9701 9.44247 11.9476 9.43122 11.8951 9.43497Z" fill="#85340A"/>
<path d="M11.7741 9.45751H11.7441C11.9054 9.47626 11.8304 9.57001 11.9991 9.57001C12.1679 9.57001 12.0929 9.47626 12.2541 9.45751C12.0854 9.44251 12.1379 9.54376 11.9991 9.54376C11.8679 9.54376 11.9091 9.45751 11.7741 9.45751ZM12.1379 9.70876C12.1379 9.67196 12.1233 9.63667 12.0973 9.61065C12.0712 9.58463 12.0359 9.57001 11.9991 9.57001C11.9623 9.57001 11.927 9.58463 11.901 9.61065C11.875 9.63667 11.8604 9.67196 11.8604 9.70876C11.8677 9.67746 11.8854 9.64956 11.9106 9.62958C11.9358 9.60961 11.967 9.59874 11.9991 9.59874C12.0313 9.59874 12.0625 9.60961 12.0877 9.62958C12.1129 9.64956 12.1306 9.67746 12.1379 9.70876Z" fill="#85340A"/>
<path d="M11.377 8.78626C11.5532 8.63251 11.7782 8.60626 11.902 8.72251C11.931 8.76109 11.9503 8.80612 11.9582 8.85375C11.9732 8.94 11.947 9.03375 11.8795 9.13125L11.9095 9.14625C11.9683 9.03878 11.9895 8.91466 11.9695 8.79376C11.9645 8.76439 11.957 8.73553 11.947 8.70751C11.7782 8.56876 11.5457 8.55751 11.377 8.78251V8.78626Z" fill="#85340A"/>
<path d="M11.6553 8.73749C11.7566 8.73749 11.7791 8.76374 11.8241 8.80124C11.8691 8.83874 11.8953 8.83124 11.8991 8.83874C11.9103 8.84624 11.8991 8.86874 11.8878 8.86124C11.8691 8.85374 11.8391 8.83874 11.7941 8.80124C11.7491 8.76374 11.7003 8.76374 11.6553 8.76374C11.5166 8.76374 11.4416 8.87623 11.4228 8.86873C11.4116 8.86124 11.5016 8.73749 11.6553 8.73749Z" fill="#85340A"/>
<path d="M11.6591 8.93248C11.6985 8.93248 11.7304 8.90058 11.7304 8.86123C11.7304 8.82188 11.6985 8.78998 11.6591 8.78998C11.6198 8.78998 11.5879 8.82188 11.5879 8.86123C11.5879 8.90058 11.6198 8.93248 11.6591 8.93248Z" fill="#85340A"/>
<path d="M11.4707 8.90624C11.602 9.00749 11.7332 8.99999 11.8082 8.95499C11.8832 8.90624 11.8832 8.89124 11.8682 8.89124C11.8532 8.89124 11.8382 8.90624 11.7782 8.93999C11.7145 8.96999 11.6245 8.96999 11.4707 8.90624Z" fill="#85340A"/>
</svg>
