<svg width="24" height="18" viewBox="0 0 24 18" fill="none" xmlns="http://www.w3.org/2000/svg">
<path fill-rule="evenodd" clip-rule="evenodd" d="M0 0H24V18H0V0Z" fill="#229E45"/>
<path fill-rule="evenodd" clip-rule="evenodd" d="M12.0531 16.3499L23.3594 9.01115L11.9856 1.6499L0.641846 9.02615L12.0531 16.3499Z" fill="#F8E509"/>
<path fill-rule="evenodd" clip-rule="evenodd" d="M16.9801 9C16.9801 11.6362 14.8388 13.7737 12.1951 13.7737C11.2503 13.7723 10.3272 13.4907 9.54247 12.9647C8.75772 12.4387 8.14655 11.6918 7.78621 10.8185C7.42587 9.94514 7.33255 8.98458 7.51804 8.05823C7.70353 7.13188 8.15951 6.28132 8.82833 5.61408C9.49715 4.94683 10.3488 4.49286 11.2756 4.30955C12.2023 4.12624 13.1627 4.22182 14.0352 4.58421C14.9076 4.9466 15.6531 5.55953 16.1772 6.34552C16.7014 7.13151 16.9808 8.05526 16.9801 9V9Z" fill="#2B49A3"/>
<path fill-rule="evenodd" clip-rule="evenodd" d="M10.6231 11.8613L10.4731 11.7751L10.3231 11.8501L10.3569 11.6813L10.2369 11.5538L10.4056 11.5351L10.4881 11.3851L10.5594 11.5426L10.7244 11.5726L10.6006 11.6851L10.6231 11.8613ZM13.8256 12.6713L13.6794 12.5851L13.5294 12.6601L13.5594 12.4913L13.4431 12.3676L13.6119 12.3488L13.6906 12.1951L13.7656 12.3526L13.9306 12.3826L13.8031 12.4988L13.8256 12.6713ZM12.4456 11.3738L12.3181 11.2988L12.1869 11.3663L12.2169 11.2201L12.1119 11.1113L12.2619 11.0963L12.3294 10.9613L12.3894 11.1001L12.5356 11.1263L12.4231 11.2276L12.4456 11.3738ZM15.6856 10.9088L15.5581 10.8338L15.4269 10.9013L15.4569 10.7551L15.3556 10.6501L15.5019 10.6351L15.5694 10.5038L15.6294 10.6388L15.7719 10.6651L15.6631 10.7626L15.6856 10.9088ZM12.3894 9.93759L12.2394 9.85509L12.0894 9.93009L12.1194 9.75759L12.0031 9.63384L12.1719 9.61509L12.2506 9.46134L12.3256 9.61884L12.4906 9.64884L12.3631 9.76884L12.3894 9.93759ZM8.44061 8.45634L8.29061 8.37384L8.14061 8.44884L8.17811 8.27634L8.05436 8.15259L8.22686 8.13384L8.30186 7.98009L8.37686 8.13759L8.54186 8.16759L8.41811 8.28384L8.44061 8.45634ZM8.91686 10.4288L8.76686 10.3426L8.61686 10.4176L8.65061 10.2488L8.53061 10.1251L8.69936 10.1026L8.77811 9.95259L8.85311 10.1101L9.01811 10.1401L8.89436 10.2563L8.91686 10.4288ZM13.8444 7.73259L13.7094 7.65759L13.5744 7.72509L13.6044 7.57509L13.4994 7.46259L13.6494 7.44384L13.7206 7.30884L13.7844 7.45134L13.9344 7.47759L13.8219 7.57884L13.8444 7.73259ZM13.5706 9.01509L13.4694 8.95509L13.3606 9.00759L13.3831 8.88759L13.3006 8.80134L13.4206 8.78634L13.4769 8.68134L13.5256 8.79384L13.6381 8.81259L13.5556 8.89509L13.5706 9.01509ZM8.22311 10.7851L8.12186 10.7288L8.02061 10.7776L8.04311 10.6651L7.96436 10.5826L8.07686 10.5676L8.12936 10.4663L8.17811 10.5713L8.29061 10.5938L8.20436 10.6688L8.22311 10.7851ZM15.7119 11.2426L15.6294 11.2013L15.5469 11.2388L15.5656 11.1526L15.5019 11.0926L15.5919 11.0813L15.6369 11.0063L15.6744 11.0813L15.7681 11.1001L15.6969 11.1563" fill="#FFFFEF"/>
<path fill-rule="evenodd" clip-rule="evenodd" d="M8.22311 10.7851L8.12186 10.7288L8.02061 10.7776L8.04311 10.6651L7.96436 10.5826L8.07686 10.5676L8.12936 10.4663L8.17811 10.5713L8.29061 10.5938L8.20436 10.6688" fill="#FFFFEF"/>
<path fill-rule="evenodd" clip-rule="evenodd" d="M8.22311 10.7851L8.12186 10.7288L8.02061 10.7776L8.04311 10.6651L7.96436 10.5826L8.07686 10.5676L8.12936 10.4663L8.17811 10.5713L8.29061 10.5938L8.20436 10.6688L8.22311 10.7851ZM9.79061 10.7813L9.69311 10.7288L9.59186 10.7776L9.61436 10.6651L9.53561 10.5826L9.64811 10.5676L9.70061 10.4663L9.74936 10.5713L9.86186 10.5901L9.77561 10.6688L9.79061 10.7813ZM9.59561 11.3063L9.49811 11.2501L9.39686 11.3026L9.41936 11.1901L9.34061 11.1038L9.45311 11.0888L9.50561 10.9876L9.55436 11.0926L9.66686 11.1151L9.58061 11.1901L9.59561 11.3063ZM12.8581 10.3576L12.7606 10.2976L12.6556 10.3501L12.6781 10.2376L12.6031 10.1513L12.7156 10.1401L12.7681 10.0388L12.8131 10.1438L12.9256 10.1626L12.8431 10.2413L12.8581 10.3576ZM11.9019 10.3538L11.8006 10.2976L11.6994 10.3501L11.7219 10.2376L11.6469 10.1513L11.7594 10.1401L11.8119 10.0351L11.8569 10.1438L11.9694 10.1626L11.8869 10.2413L11.9019 10.3538ZM9.30686 10.0238L9.24311 9.98634L9.17936 10.0163L9.19436 9.94509L9.14561 9.89259L9.21686 9.88509L9.24686 9.82134L9.27686 9.88884L9.34811 9.90009L9.29561 9.94884L9.30686 10.0238ZM15.5881 11.6513L15.4906 11.5951L15.3894 11.6476L15.4119 11.5351L15.3331 11.4488L15.4456 11.4338L15.4981 11.3326L15.5469 11.4376L15.6594 11.4601L15.5731 11.5351L15.5881 11.6513ZM14.7931 11.7601L14.7106 11.7076L14.6244 11.7526L14.6431 11.6551L14.5794 11.5876L14.6731 11.5763L14.7181 11.4901L14.7556 11.5801L14.8494 11.5951L14.7781 11.6626L14.7931 11.7601ZM15.1681 11.7488L15.0931 11.7038L15.0144 11.7413L15.0294 11.6551L14.9694 11.5913L15.0556 11.5801L15.0969 11.5051L15.1344 11.5801L15.2206 11.5988L15.1569 11.6588L15.1681 11.7488ZM16.2481 10.8038L16.1731 10.7663L16.0981 10.8038L16.1169 10.7176L16.0569 10.6538L16.1431 10.6426L16.1806 10.5676L16.2181 10.6463L16.2969 10.6613L16.2369 10.7213L16.2481 10.8038ZM14.7819 12.2888L14.6881 12.2363L14.5869 12.2813L14.6094 12.1763L14.5344 12.1013L14.6469 12.0901L14.6956 11.9963L14.7406 12.0938L14.8531 12.1126L14.7669 12.1838L14.7819 12.2888ZM14.7894 12.7163L14.6994 12.6638L14.6094 12.7126L14.6319 12.6076L14.5606 12.5326L14.6619 12.5176L14.7069 12.4238L14.7481 12.5213L14.8494 12.5401L14.7744 12.6151L14.7894 12.7163ZM14.0619 11.7488L13.9906 11.7038L13.9156 11.7413L13.9306 11.6588L13.8744 11.5951L13.9569 11.5876L13.9944 11.5126L14.0319 11.5876L14.1144 11.6026L14.0544 11.6626L14.0619 11.7488ZM13.3869 11.7488L13.3119 11.7038L13.2369 11.7413L13.2556 11.6588L13.1956 11.5951L13.2819 11.5876L13.3194 11.5126L13.3569 11.5876L13.4356 11.6026L13.3756 11.6626L13.3869 11.7488ZM12.2356 10.7401L12.1606 10.6988L12.0856 10.7363L12.1044 10.6501L12.0444 10.5901L12.1269 10.5788L12.1644 10.5038L12.2019 10.5788L12.2844 10.5976L12.2244 10.6538L12.2356 10.7401ZM12.3631 12.7913L12.3031 12.7576L12.2356 12.7913L12.2506 12.7163L12.2019 12.6638L12.2731 12.6563L12.3069 12.5926L12.3369 12.6601L12.4081 12.6713L12.3556 12.7201L12.3631 12.7913ZM10.6231 9.47259L10.4731 9.38634L10.3231 9.46134L10.3569 9.29259L10.2369 9.16884L10.4056 9.14634L10.4881 8.99634L10.5594 9.15384L10.7244 9.18384L10.6006 9.30009" fill="#FFFFEF"/>
<path fill-rule="evenodd" clip-rule="evenodd" d="M16.665 10.7174C16.758 10.4764 16.8307 10.228 16.8825 9.97493C14.34 7.74368 11.5088 6.59993 7.9313 6.83618C7.80155 7.08725 7.69486 7.34957 7.61255 7.61993C11.85 7.21493 14.9625 9.08993 16.665 10.7174Z" fill="white"/>
<path d="M15.5246 9.4651L15.6109 9.51385C15.598 9.53931 15.594 9.56836 15.5996 9.59635C15.6084 9.62348 15.6272 9.64627 15.6521 9.6601C15.6784 9.67885 15.7046 9.69009 15.7271 9.68634C15.7496 9.68634 15.7646 9.6751 15.7759 9.6601C15.7824 9.65014 15.7851 9.63813 15.7834 9.62635C15.7803 9.61249 15.7739 9.59961 15.7646 9.58885C15.7571 9.5776 15.7384 9.55135 15.7084 9.52135C15.6775 9.48952 15.6544 9.45103 15.6409 9.40885C15.6315 9.37692 15.6339 9.34269 15.6477 9.31241C15.6615 9.28212 15.6857 9.25779 15.7159 9.24385C15.7432 9.23246 15.7733 9.22984 15.8021 9.23635C15.8374 9.24447 15.8706 9.25979 15.8996 9.28135C15.9521 9.31885 15.9859 9.35635 15.9971 9.40135C16.0023 9.42239 16.003 9.4443 15.9991 9.46563C15.9952 9.48695 15.9869 9.50722 15.9746 9.5251L15.8846 9.46885C15.8959 9.44635 15.8996 9.42385 15.8921 9.4051C15.8884 9.38635 15.8734 9.3676 15.8471 9.3526C15.8279 9.3371 15.8043 9.32793 15.7796 9.32635C15.7728 9.32612 15.7661 9.32774 15.7602 9.33104C15.7542 9.33435 15.7493 9.3392 15.7459 9.3451C15.7384 9.35635 15.7384 9.3676 15.7421 9.3826C15.7459 9.3976 15.7646 9.4276 15.8021 9.4651C15.8396 9.5026 15.8621 9.53635 15.8771 9.55885C15.8905 9.58342 15.8966 9.61133 15.8946 9.63924C15.8926 9.66716 15.8826 9.69392 15.8659 9.71635C15.8483 9.74184 15.8235 9.76144 15.7946 9.7726C15.7665 9.78554 15.7351 9.78947 15.7046 9.78385C15.6709 9.77635 15.6371 9.76135 15.5996 9.7351C15.5434 9.6976 15.5096 9.65634 15.4984 9.61134C15.4862 9.56032 15.4942 9.50654 15.5209 9.46135L15.5246 9.4651ZM15.0896 9.1801L15.1834 9.22885C15.1718 9.25474 15.1691 9.28378 15.1759 9.31135C15.1855 9.33708 15.2041 9.35842 15.2284 9.37135C15.2584 9.3901 15.2809 9.3976 15.3034 9.39385C15.3259 9.39385 15.3409 9.3826 15.3521 9.36385C15.3578 9.35492 15.3605 9.34439 15.3596 9.33385C15.3596 9.3226 15.3521 9.3076 15.3409 9.29635C15.3217 9.27316 15.3017 9.25064 15.2809 9.22885C15.2396 9.1876 15.2134 9.15385 15.2059 9.12385C15.1997 9.10455 15.1979 9.08414 15.2005 9.06406C15.2031 9.04398 15.21 9.0247 15.2209 9.0076C15.2351 8.98445 15.256 8.96616 15.2809 8.9551C15.3066 8.94322 15.3354 8.9393 15.3634 8.94385C15.3981 8.94969 15.4312 8.96244 15.4609 8.98135C15.5171 9.01885 15.5509 9.05635 15.5621 9.0976C15.569 9.11867 15.5712 9.14098 15.5686 9.16299C15.566 9.18499 15.5587 9.20618 15.5471 9.2251L15.4534 9.1726C15.4646 9.14635 15.4684 9.1276 15.4609 9.10885C15.4534 9.0901 15.4384 9.07135 15.4121 9.05635C15.3914 9.04145 15.3664 9.03357 15.3409 9.03385C15.3347 9.03426 15.3288 9.03619 15.3235 9.03946C15.3183 9.04273 15.314 9.04724 15.3109 9.0526C15.3034 9.06385 15.3034 9.0751 15.3071 9.0901C15.3109 9.1051 15.3334 9.1351 15.3709 9.1726C15.4084 9.2101 15.4346 9.2401 15.4459 9.2626C15.4609 9.28611 15.4689 9.31344 15.4689 9.34135C15.4689 9.36925 15.4609 9.39658 15.4459 9.4201C15.4297 9.44626 15.4063 9.46711 15.3784 9.4801C15.3503 9.49304 15.3188 9.49697 15.2884 9.49135C15.2498 9.48482 15.2128 9.47081 15.1796 9.4501C15.1312 9.42425 15.0938 9.38157 15.0746 9.3301C15.0601 9.28003 15.0655 9.2263 15.0896 9.1801V9.1801ZM14.5571 9.0376L14.8309 8.5876L15.1609 8.79385L15.1159 8.86885L14.8759 8.71885L14.8159 8.8201L15.0409 8.95885L14.9921 9.03385L14.7671 8.8951L14.6921 9.01885L14.9434 9.16885L14.8984 9.24385L14.5609 9.0376H14.5571ZM13.7809 8.4001L13.8221 8.3251L14.0246 8.42635L13.9309 8.61385C13.9009 8.62135 13.8634 8.6251 13.8184 8.62135C13.7752 8.61658 13.7332 8.60387 13.6946 8.58385C13.6493 8.56174 13.6105 8.52812 13.5821 8.48635C13.5563 8.44754 13.5432 8.40167 13.5446 8.3551C13.5465 8.30661 13.5594 8.25919 13.5821 8.21635C13.6047 8.17125 13.6382 8.13256 13.6796 8.10385C13.7193 8.07644 13.7664 8.06202 13.8146 8.0626C13.8521 8.0626 13.8896 8.07385 13.9346 8.1001C13.9946 8.12635 14.0321 8.16385 14.0509 8.2051C14.0704 8.24605 14.0744 8.29268 14.0621 8.33635L13.9609 8.30635C13.9671 8.28123 13.9644 8.25474 13.9534 8.23135C13.9421 8.20885 13.9234 8.19385 13.8934 8.17885C13.8759 8.16887 13.8565 8.1627 13.8365 8.16076C13.8164 8.15883 13.7962 8.16115 13.7771 8.1676C13.7396 8.17885 13.7059 8.2126 13.6796 8.2651C13.6534 8.3176 13.6421 8.36635 13.6534 8.4076C13.6586 8.42716 13.668 8.44535 13.6809 8.4609C13.6939 8.47645 13.7101 8.48897 13.7284 8.4976C13.7471 8.50885 13.7696 8.51635 13.7921 8.51635C13.8145 8.51974 13.8373 8.51974 13.8596 8.51635L13.8896 8.45635L13.7809 8.4001V8.4001ZM10.3984 7.56385L10.4734 7.03885L10.6309 7.0651L10.6721 7.4326L10.8184 7.0951L10.9759 7.1176L10.9009 7.6351L10.7996 7.6201L10.8634 7.21135L10.6984 7.6051L10.5971 7.5901L10.5559 7.16635L10.4959 7.57885L10.3984 7.56385V7.56385ZM9.86963 7.5001L9.91838 6.9751L10.3046 7.0126L10.2971 7.1026L10.0159 7.07635L10.0046 7.18885L10.2671 7.2151L10.2559 7.3051L9.99338 7.27885L9.98213 7.42135L10.2746 7.4476L10.2671 7.5376L9.86963 7.5001V7.5001Z" fill="#309E3A"/>
<path d="M8.1193 7.17381C8.1193 7.11756 8.13055 7.07631 8.14555 7.03881C8.1587 7.01214 8.17647 6.98801 8.19805 6.96756C8.21728 6.94816 8.24024 6.93285 8.26555 6.92256C8.30305 6.91131 8.34055 6.90381 8.37805 6.90381C8.4568 6.90381 8.5168 6.93381 8.56555 6.97881C8.58875 7.00747 8.60601 7.04048 8.61631 7.07589C8.62662 7.11131 8.62976 7.14842 8.62555 7.18506C8.62555 7.26756 8.5993 7.33506 8.55055 7.38381C8.5255 7.40696 8.49586 7.4246 8.46357 7.43558C8.43127 7.44657 8.39702 7.45065 8.36305 7.44756C8.32953 7.4479 8.29629 7.44143 8.26535 7.42853C8.23441 7.41564 8.20641 7.3966 8.18305 7.37256C8.13639 7.31733 8.11347 7.24588 8.1193 7.17381V7.17381Z" fill="#309E3A"/>
<path d="M8.22827 7.17372C8.22827 7.22997 8.23952 7.27497 8.26577 7.30872C8.29202 7.33872 8.32577 7.35747 8.37077 7.35747C8.39024 7.35883 8.40977 7.35584 8.42793 7.3487C8.44609 7.34157 8.46244 7.33047 8.47577 7.31622C8.50202 7.28622 8.51327 7.24122 8.51702 7.17747C8.51702 7.11747 8.50952 7.07247 8.47952 7.04247C8.46731 7.02736 8.45189 7.01514 8.43438 7.00671C8.41687 6.99828 8.39771 6.99384 8.37827 6.99372C8.35854 6.99309 8.33892 6.99679 8.32078 7.00457C8.30264 7.01234 8.28642 7.024 8.27327 7.03872C8.24327 7.06872 8.23202 7.11372 8.22827 7.17372V7.17372Z" fill="#F7FFFF"/>
<path d="M8.73755 7.4437L8.74505 6.9187H8.97005C9.0263 6.9187 9.0638 6.9262 9.09005 6.93745C9.1163 6.94495 9.13505 6.9637 9.15005 6.9862C9.16505 7.0087 9.17255 7.0387 9.17255 7.07245C9.17284 7.10853 9.15944 7.14337 9.13505 7.16995C9.10733 7.19592 9.07165 7.21177 9.0338 7.21495L9.09005 7.25995C9.10505 7.27495 9.1238 7.30495 9.1463 7.3462L9.21005 7.4512H9.08255L9.00755 7.3312L8.95505 7.2562C8.94596 7.24588 8.93432 7.23813 8.9213 7.2337C8.90424 7.22873 8.88657 7.2262 8.8688 7.2262H8.8463V7.4437H8.73755V7.4437Z" fill="#309E3A"/>
<path d="M8.8501 7.14379H8.9251C8.9776 7.14379 9.01135 7.14379 9.0226 7.13629C9.03385 7.13629 9.0451 7.12504 9.0526 7.11754C9.0601 7.11004 9.06385 7.09129 9.06385 7.08004C9.06385 7.05754 9.0601 7.04254 9.04885 7.03504C9.04135 7.02379 9.02635 7.01629 9.01135 7.01254H8.93635L8.8501 7.00879V7.14004V7.14379Z" fill="white"/>
<path d="M9.33777 6.94507L9.53277 6.95632C9.57402 6.95632 9.60777 6.96007 9.63027 6.96757C9.65946 6.97816 9.68533 6.99627 9.70527 7.02007C9.72687 7.04629 9.74226 7.07706 9.75027 7.11007C9.76152 7.14382 9.76527 7.18507 9.76152 7.23382C9.76149 7.27209 9.75515 7.3101 9.74277 7.34632C9.72777 7.38382 9.70527 7.41382 9.67902 7.43632C9.65717 7.45432 9.63153 7.46714 9.60402 7.47382C9.58152 7.48132 9.54777 7.48132 9.51027 7.48132L9.31152 7.47007L9.33777 6.94507V6.94507Z" fill="#309E3A"/>
<path d="M9.43843 7.03882L9.41968 7.38757H9.56218C9.58093 7.38757 9.59593 7.38007 9.60718 7.36882C9.61843 7.35757 9.62967 7.34257 9.63717 7.32007C9.64467 7.29757 9.65217 7.26382 9.65217 7.22257L9.64842 7.12882C9.64307 7.10904 9.63274 7.09097 9.61842 7.07632C9.60597 7.06379 9.59046 7.05474 9.57343 7.05007C9.54507 7.04376 9.5162 7.03999 9.48718 7.03882H9.43843V7.03882Z" fill="white"/>
<path d="M11.9106 7.88256L12.0344 7.37256L12.1994 7.41006L12.3194 7.44756C12.3456 7.46256 12.3681 7.48506 12.3794 7.51881C12.3944 7.54881 12.3944 7.58256 12.3869 7.62381C12.3794 7.65381 12.3681 7.68006 12.3494 7.69881C12.3356 7.71528 12.3184 7.72851 12.299 7.73759C12.2796 7.74666 12.2583 7.75134 12.2369 7.75131C12.2106 7.75131 12.1731 7.74381 12.1244 7.73256L12.0606 7.71381L12.0156 7.90881L11.9106 7.88256V7.88256Z" fill="#309E3A"/>
<path d="M12.1137 7.48511L12.0837 7.62761L12.14 7.64261C12.1775 7.65011 12.2075 7.65761 12.2225 7.65386C12.2371 7.65183 12.2507 7.64534 12.2614 7.63526C12.2722 7.62519 12.2795 7.61204 12.2825 7.59761C12.2825 7.57886 12.2825 7.56386 12.275 7.54886C12.2668 7.53361 12.2535 7.52169 12.2375 7.51511L12.1662 7.49636L12.1175 7.48511H12.1137Z" fill="white"/>
<path d="M12.3979 8.02869L12.5742 7.53369L12.7804 7.60869C12.8367 7.62744 12.8704 7.64619 12.8929 7.66119C12.9117 7.67994 12.9267 7.69869 12.9304 7.72869C12.9342 7.75869 12.9379 7.78494 12.9304 7.81494C12.9154 7.85244 12.8929 7.87869 12.8629 7.89744C12.8329 7.91244 12.7954 7.91619 12.7504 7.90869C12.7654 7.92744 12.7804 7.94619 12.7879 7.96869L12.8179 8.06994L12.8404 8.18619L12.7242 8.14494L12.6867 8.00994C12.6799 7.97941 12.6711 7.94935 12.6604 7.91994C12.6555 7.90828 12.6478 7.89798 12.6379 7.88994C12.6304 7.87869 12.6154 7.87119 12.5892 7.86369L12.5704 7.85619L12.4954 8.06619L12.3979 8.02869V8.02869Z" fill="#309E3A"/>
<path d="M12.6007 7.77756L12.6719 7.80381C12.7207 7.82256 12.7507 7.83006 12.7657 7.83006C12.7769 7.83006 12.7882 7.83006 12.7994 7.81881C12.8107 7.81131 12.8182 7.80006 12.8219 7.78506C12.8294 7.77006 12.8294 7.75506 12.8219 7.74006C12.8164 7.72552 12.8057 7.71352 12.7919 7.70631L12.7169 7.68006L12.6419 7.65381L12.5969 7.77756H12.6007Z" fill="white"/>
<path d="M13.013 8.01012C13.0259 7.96621 13.0476 7.92538 13.0767 7.89012C13.0957 7.86749 13.1186 7.84844 13.1442 7.83387C13.1675 7.82074 13.1929 7.81185 13.2192 7.80762C13.2567 7.80762 13.2942 7.80762 13.3355 7.82262C13.369 7.83091 13.4004 7.84623 13.4275 7.86757C13.4547 7.8889 13.477 7.91576 13.493 7.94637C13.523 8.00637 13.523 8.07762 13.5005 8.16012C13.4819 8.231 13.4361 8.29166 13.373 8.32887C13.3167 8.36262 13.2492 8.36637 13.178 8.34387C13.1446 8.33536 13.1133 8.31995 13.0862 8.29864C13.059 8.27733 13.0367 8.25058 13.0205 8.22012C13.0055 8.18733 12.9971 8.15191 12.9958 8.11587C12.9945 8.07983 13.0003 8.04389 13.013 8.01012V8.01012Z" fill="#309E3A"/>
<path d="M13.1182 8.04001C13.1032 8.09626 13.0994 8.14501 13.1182 8.18251C13.1369 8.22001 13.1632 8.24251 13.2044 8.25751C13.2419 8.26876 13.2794 8.26501 13.3169 8.24251C13.3544 8.22376 13.3769 8.18251 13.3957 8.12251C13.4144 8.06626 13.4144 8.02126 13.3957 7.98376C13.3883 7.96597 13.377 7.95002 13.3628 7.93706C13.3485 7.9241 13.3316 7.91444 13.3132 7.90876C13.2947 7.90239 13.2751 7.90009 13.2557 7.90204C13.2363 7.90398 13.2175 7.91011 13.2007 7.92001C13.1632 7.94251 13.1369 7.98001 13.1182 8.04001V8.04001Z" fill="white"/>
<path d="M14.0366 8.74137L14.2766 8.27637L14.4754 8.37762C14.5128 8.39559 14.5471 8.41967 14.5766 8.44887C14.5954 8.46762 14.6066 8.49012 14.6066 8.52012C14.6066 8.55012 14.6066 8.57637 14.5916 8.60262C14.5772 8.63634 14.5503 8.6632 14.5166 8.67762C14.4791 8.68512 14.4416 8.68512 14.4004 8.67012C14.4154 8.69262 14.4229 8.71512 14.4304 8.73387C14.4379 8.75637 14.4416 8.79012 14.4454 8.83887L14.4529 8.95887L14.3404 8.90262L14.3254 8.76387C14.3236 8.73241 14.3198 8.7011 14.3141 8.67012C14.3116 8.65609 14.3051 8.64308 14.2954 8.63262L14.2504 8.60637L14.2316 8.59512L14.1304 8.79012L14.0366 8.74137V8.74137Z" fill="#309E3A"/>
<path d="M14.2688 8.52015L14.34 8.55765C14.385 8.58015 14.415 8.59515 14.4263 8.59515C14.4375 8.59515 14.4525 8.59515 14.4638 8.58765C14.475 8.5839 14.4825 8.57265 14.49 8.55765C14.4975 8.54265 14.5013 8.52765 14.4975 8.51265C14.4929 8.49772 14.4837 8.48461 14.4713 8.47515C14.4493 8.46167 14.4268 8.44916 14.4038 8.43765L14.3288 8.40015L14.2688 8.52015V8.52015Z" fill="white"/>
<path d="M15.9793 9.70134C16.0035 9.66278 16.0354 9.6296 16.073 9.60384C16.0983 9.58769 16.1262 9.57625 16.1555 9.57009C16.1827 9.56453 16.2108 9.56453 16.238 9.57009C16.2755 9.57759 16.3093 9.59258 16.343 9.61508C16.3722 9.63326 16.3973 9.65733 16.4166 9.68573C16.436 9.71414 16.4493 9.74628 16.4555 9.78008C16.4668 9.84383 16.448 9.91508 16.403 9.98633C16.3654 10.0483 16.3047 10.0928 16.2343 10.1101C16.2007 10.1173 16.166 10.1174 16.1324 10.1103C16.0988 10.1032 16.067 10.0891 16.0393 10.0688C16.0101 10.0507 15.985 10.0266 15.9656 9.99818C15.9463 9.96978 15.933 9.93764 15.9268 9.90384C15.9155 9.83634 15.9343 9.76884 15.9793 9.70134Z" fill="#309E3A"/>
<path d="M16.073 9.76126C16.0355 9.81001 16.0242 9.85501 16.0317 9.89626C16.0345 9.91525 16.0413 9.93344 16.0516 9.94961C16.062 9.96577 16.0756 9.97955 16.0917 9.99001C16.1292 10.0163 16.1667 10.0238 16.2042 10.0125C16.2417 10.0013 16.2792 9.97501 16.313 9.92251C16.3467 9.87001 16.3617 9.82501 16.3542 9.78751C16.3505 9.75001 16.328 9.71626 16.2942 9.69001C16.2605 9.66376 16.2192 9.66001 16.1817 9.67126C16.1442 9.67876 16.1067 9.70876 16.0692 9.76126H16.073Z" fill="white"/>
<path d="M11.3179 7.66877L11.4041 7.30127L11.6741 7.36502L11.6629 7.42502L11.4641 7.38002L11.4454 7.46252L11.6291 7.50377L11.6141 7.56752L11.4304 7.52252L11.4079 7.62377L11.6141 7.67252L11.5991 7.73252L11.3179 7.66877V7.66877Z" fill="#309E3A"/>
<rect x="0.5" y="0.5" width="23" height="17" stroke="#F5F2E9"/>
</svg>
