<svg width="24" height="18" viewBox="0 0 24 18" fill="none" xmlns="http://www.w3.org/2000/svg">
<path d="M0 12H24V18H0V12Z" fill="black"/>
<path d="M0 6H24V12H0V6Z" fill="white"/>
<path d="M0 0H24V6H0V0Z" fill="#CE1126"/>
<path d="M12.0249 9.07216L14.0799 10.9802L13.9329 7.51517C13.9119 6.99017 13.4559 7.11017 13.1229 7.29917C12.7899 7.51517 12.4029 7.51517 12.0009 7.37417C11.5959 7.51517 11.2119 7.51517 10.8789 7.29917C10.5489 7.11017 10.0899 6.99017 10.0689 7.51517L9.92188 10.9802L12.0249 9.07216Z" fill="white" stroke="#C09300" stroke-width="0.15" stroke-linejoin="round"/>
<path d="M10.3059 7.39502L10.1619 10.764L9.92188 10.98L10.0689 7.51502C10.1397 7.46067 10.2201 7.41997 10.3059 7.39502ZM10.5939 7.63502L10.4739 10.455L10.2339 10.701L10.3779 7.44602C10.4259 7.49402 10.5669 7.61102 10.5939 7.63502ZM10.8549 7.85102L10.7619 10.203L10.5669 10.392L10.6869 7.71002C10.7349 7.75502 10.8309 7.82402 10.8549 7.85102ZM11.1399 7.97102L11.0469 9.97502L10.8579 10.128L10.9509 7.89902C10.9989 7.92002 11.0919 7.97102 11.1399 7.97102ZM11.4039 7.97102L11.3349 9.64202L11.1399 9.83102L11.2149 7.99202C11.2599 7.99202 11.3829 7.99202 11.4039 7.97102Z" fill="#C09300"/>
<path d="M12.0972 9.4502L12.3852 10.7642L12.2892 10.8602L12.1902 10.7852L12.0282 9.61519L12.0972 10.7852L12.0012 10.9052L11.9082 10.7852L11.9772 9.61519L11.8122 10.7852L11.7132 10.8602L11.6172 10.7642L11.9052 9.4532H12.0972V9.4502Z" fill="#C09300" stroke="#C09300" stroke-width="0.15"/>
<path d="M11.3582 8.87402L10.7852 10.905L11.5742 11.025L11.9072 9.49802L11.3582 8.87402Z" fill="white" stroke="#C09300" stroke-width="0.15" stroke-linejoin="round"/>
<path d="M11.168 9.5701L11.237 9.7351L11.609 9.3811" stroke="#C09300" stroke-width="0.15" stroke-linejoin="round"/>
<path d="M11.6462 10.7639L11.5622 10.3679L11.4902 9.9659L11.3132 10.2029L11.2382 9.9299L10.9922 10.1819L11.1152 10.6379L11.2892 10.3559L11.3822 10.6439L11.5622 10.3679M11.4272 9.1499L11.5052 9.8789L11.7422 9.5669L11.4272 9.1499ZM11.6462 9.6869L11.7752 10.1369L11.6462 9.6869ZM11.8262 9.9719L11.5652 10.3679L11.8262 9.9719Z" stroke="#C09300" stroke-width="0.15" stroke-linejoin="round"/>
<path d="M10.9531 10.86L11.1121 10.635L11.2141 10.98L11.3581 10.74L11.4511 11.028" stroke="#C09300" stroke-width="0.15" stroke-linejoin="round"/>
<path d="M11.9986 11.8141C12.5986 11.8141 13.1686 11.7661 13.5046 11.6731C13.6456 11.6461 13.6456 11.5741 13.6456 11.4781C13.7896 11.4301 13.7176 11.2621 13.8166 11.2621C13.7146 11.2921 13.6966 11.0971 13.5766 11.1211C13.5766 10.9531 13.4056 10.9321 13.2646 10.9801C12.9796 11.0731 12.4756 11.0971 11.9986 11.0971C11.5186 11.0731 11.0206 11.0731 10.7326 10.9771C10.5916 10.9321 10.4236 10.9531 10.4236 11.1211C10.3036 11.0971 10.2826 11.2891 10.1836 11.2621C10.2826 11.2621 10.2076 11.4331 10.3516 11.4781C10.3516 11.5741 10.3516 11.6461 10.4956 11.6731C10.8256 11.7661 11.4016 11.8141 11.9986 11.8141Z" fill="white" stroke="#C09300" stroke-width="0.15" stroke-linecap="round" stroke-linejoin="round"/>
<path d="M11.1844 10.9051C11.3764 10.9321 11.5924 10.9531 11.7604 10.9321C11.8564 10.9321 11.9254 11.0971 11.7334 11.1211C11.5684 11.1421 11.3044 11.1211 11.1634 11.0971C10.9778 11.0646 10.7937 11.0245 10.6114 10.9771C10.4434 10.9051 10.5634 10.7671 10.6594 10.7851C10.8306 10.8399 11.0063 10.8801 11.1844 10.9051ZM12.8104 10.9051C12.6184 10.9321 12.4024 10.9531 12.2404 10.9321C12.1384 10.9321 12.0694 11.0971 12.2614 11.1211C12.4294 11.1421 12.6904 11.1211 12.8314 11.0971C12.9514 11.0731 13.2154 11.0281 13.3834 10.9771C13.5514 10.9051 13.4314 10.7671 13.3354 10.7851C13.1641 10.8399 12.9885 10.8801 12.8104 10.9051Z" fill="white" stroke="#C09300" stroke-width="0.15" stroke-linecap="round" stroke-linejoin="round"/>
<path d="M10.5891 10.812C10.4451 10.785 10.3791 10.953 10.4241 11.049C10.4451 11.001 10.5441 11.001 10.5651 10.953C10.5921 10.881 10.5441 10.881 10.5921 10.812H10.5891ZM11.1651 11.253C11.1651 11.157 11.2581 11.169 11.2581 11.073C11.2581 11.028 11.2341 10.953 11.1861 10.953C11.1611 10.9544 11.1375 10.965 11.1198 10.9827C11.1021 11.0004 11.0916 11.024 11.0901 11.049C11.0691 11.142 11.1651 11.157 11.1651 11.253ZM11.8461 10.98C11.9871 10.98 11.9721 11.169 11.9061 11.265C11.9061 11.196 11.7861 11.169 11.7861 11.121C11.7861 11.049 11.8941 11.049 11.8461 10.98ZM13.4061 10.812C13.5531 10.785 13.6221 10.953 13.5741 11.049C13.5531 11.001 13.4541 11.001 13.4331 10.953C13.4061 10.881 13.4541 10.881 13.4061 10.812ZM12.8391 11.25C12.8391 11.154 12.7431 11.166 12.7431 11.07C12.7431 11.025 12.7671 10.95 12.8151 10.95C12.8401 10.9514 12.8637 10.962 12.8814 10.9797C12.8991 10.9974 12.9097 11.021 12.9111 11.046C12.9321 11.139 12.8361 11.154 12.8361 11.25H12.8391ZM12.1491 10.98C12.0081 10.98 12.0231 11.169 12.0891 11.265C12.0891 11.196 12.2091 11.169 12.2091 11.121C12.2091 11.049 12.1011 11.049 12.1491 10.98Z" fill="white" stroke="#C09300" stroke-width="0.15" stroke-linecap="round" stroke-linejoin="round"/>
<path d="M10.6406 10.8601C10.6886 10.8601 10.7606 10.8811 10.7816 10.9081L10.6406 10.8601ZM10.8776 10.9321C10.9016 10.9321 10.9976 10.9531 11.0426 10.9801L10.8776 10.9321ZM11.7356 11.0281C11.6906 11.0281 11.5946 11.0281 11.5706 11.0491L11.7356 11.0251V11.0281ZM11.4746 11.0281C11.4476 11.0011 11.3546 11.0011 11.3066 11.0281H11.4746ZM13.3586 10.8601C13.3077 10.8607 13.2583 10.8776 13.2176 10.9081L13.3586 10.8601ZM13.1246 10.9321C13.0946 10.9321 13.0046 10.9531 12.9566 10.9801L13.1246 10.9321ZM12.2636 11.0281C12.3086 11.0281 12.4046 11.0281 12.4316 11.0491L12.2636 11.0251V11.0281ZM12.5246 11.0281C12.5516 11.0011 12.6446 11.0011 12.6926 11.0281H12.5246Z" fill="white" stroke="#C09300" stroke-width="0.15" stroke-linecap="round" stroke-linejoin="round"/>
<path d="M10.598 11.2382C10.583 11.2352 10.574 11.2202 10.58 11.2082C10.583 11.1872 10.598 11.1782 10.61 11.1842C10.622 11.1842 10.637 11.2022 10.637 11.2082L10.625 11.2292L10.619 11.2322C10.619 11.2382 10.607 11.2382 10.598 11.2382ZM12.248 11.3552C12.242 11.3552 12.23 11.3402 12.23 11.3342C12.23 11.3222 12.248 11.3042 12.26 11.3042L12.284 11.3162C12.293 11.3252 12.293 11.3432 12.281 11.3522C12.275 11.3582 12.257 11.3582 12.248 11.3522V11.3552ZM12.257 11.4302C12.245 11.4242 12.242 11.4182 12.239 11.4062C12.239 11.3912 12.239 11.3882 12.254 11.3792L12.266 11.3732L12.278 11.3792C12.29 11.3852 12.299 11.3912 12.299 11.4032C12.299 11.4122 12.29 11.4212 12.278 11.4272C12.269 11.4332 12.266 11.4332 12.257 11.4272V11.4302Z" fill="#C09300"/>
<path d="M10.7332 11.1001C10.7212 11.1001 10.7062 11.1121 10.6972 11.1181C10.6792 11.1211 10.6552 11.1331 10.6372 11.1181C10.6192 11.1151 10.5952 11.1181 10.5922 11.1421C10.5952 11.1631 10.6222 11.1721 10.6402 11.1601C10.6522 11.1451 10.6852 11.1331 10.6912 11.1601C10.6762 11.1841 10.6792 11.2111 10.6672 11.2321C10.6672 11.2471 10.6582 11.2591 10.6522 11.2711C10.6372 11.2711 10.6222 11.2711 10.6102 11.2801C10.6008 11.2801 10.5917 11.2823 10.5833 11.2864C10.575 11.2906 10.5677 11.2966 10.5622 11.3041C10.5502 11.3221 10.5382 11.3401 10.5352 11.3641C10.5382 11.3821 10.5652 11.3881 10.5832 11.3911L10.6432 11.4091L10.7392 11.4361C10.7872 11.4511 10.8352 11.4571 10.8832 11.4691L10.8982 11.4721C10.9192 11.4781 10.9282 11.4571 10.9282 11.4421L10.9582 11.3341C10.9642 11.3191 10.9732 11.2891 10.9462 11.2951C10.9312 11.3041 10.9162 11.3191 10.8982 11.3191C10.8712 11.3191 10.8862 11.3491 10.8982 11.3581C10.8982 11.3761 10.8922 11.3971 10.8832 11.4121C10.8652 11.4211 10.8472 11.4121 10.8292 11.4061C10.8142 11.4061 10.7782 11.3971 10.7932 11.3761L10.8082 11.3221C10.8172 11.3041 10.8172 11.2831 10.8232 11.2621C10.8112 11.2411 10.7932 11.2711 10.7782 11.2741C10.7662 11.2801 10.7302 11.2831 10.7482 11.3041C10.7662 11.3161 10.7542 11.3371 10.7482 11.3551C10.7482 11.3761 10.7242 11.3851 10.7062 11.3761C10.6882 11.3761 10.6612 11.3611 10.6762 11.3431L10.6912 11.2891L10.7122 11.2291C10.7122 11.2081 10.7212 11.1931 10.7302 11.1751C10.7302 11.1541 10.7452 11.1361 10.7452 11.1151C10.7452 11.1061 10.7392 11.1031 10.7332 11.1031V11.1001ZM10.6222 11.3191C10.6235 11.3183 10.6251 11.3179 10.6267 11.3179C10.6282 11.3179 10.6298 11.3183 10.6312 11.3191C10.6372 11.3251 10.6372 11.3311 10.6312 11.3371L10.6222 11.3431C10.6072 11.3431 10.6042 11.3401 10.6042 11.3341C10.6042 11.3311 10.6042 11.3281 10.6132 11.3251C10.6168 11.3225 10.6209 11.3204 10.6252 11.3191H10.6222ZM10.5922 11.4691C10.5772 11.4571 10.5802 11.4481 10.6012 11.4301C10.6132 11.4241 10.6162 11.4241 10.6282 11.4331C10.6462 11.4481 10.6462 11.4571 10.6282 11.4721C10.6222 11.4781 10.6192 11.4781 10.6132 11.4781C10.6042 11.4781 10.6012 11.4781 10.5922 11.4721V11.4691ZM10.6822 11.4991C10.6755 11.497 10.6698 11.4924 10.6665 11.4862C10.6631 11.4801 10.6623 11.4729 10.6642 11.4661C10.6702 11.4541 10.6732 11.4511 10.6912 11.4511C10.7122 11.4511 10.7152 11.4541 10.7182 11.4721C10.7182 11.4841 10.7182 11.4871 10.7092 11.4931C10.7058 11.4958 10.7019 11.4977 10.6978 11.4987C10.6937 11.4997 10.6894 11.4999 10.6852 11.4991H10.6822ZM13.3582 11.4991C13.3522 11.4961 13.3492 11.4931 13.3492 11.4841C13.3492 11.4721 13.3552 11.4631 13.3732 11.4571C13.3912 11.4481 13.4032 11.4481 13.4092 11.4631C13.4182 11.4811 13.4182 11.4871 13.4062 11.4991C13.4002 11.5081 13.3972 11.5081 13.3822 11.5081C13.3672 11.5081 13.3642 11.5081 13.3582 11.5021V11.4991ZM10.8082 11.5351C10.7962 11.5351 10.7902 11.5231 10.7902 11.5111C10.7902 11.5021 10.7902 11.4991 10.7962 11.4931L10.8142 11.4871L10.8322 11.4901C10.8472 11.5021 10.8502 11.5141 10.8412 11.5261C10.8322 11.5381 10.8232 11.5381 10.8052 11.5351H10.8082ZM11.4622 11.5651L11.4562 11.5561C11.4562 11.5381 11.4562 11.5231 11.4622 11.5051C11.4652 11.4901 11.4622 11.4751 11.4682 11.4601L11.4802 11.3761C11.4802 11.3611 11.4802 11.3461 11.4862 11.3341C11.4892 11.3101 11.4862 11.2891 11.4922 11.2681C11.4922 11.2591 11.5012 11.2381 11.5102 11.2501C11.5222 11.2681 11.5372 11.2801 11.5522 11.2951C11.5642 11.3041 11.5522 11.3161 11.5432 11.3191C11.5312 11.3221 11.5282 11.3371 11.5282 11.3491L11.5222 11.3851C11.5222 11.4061 11.5222 11.4241 11.5162 11.4451L11.5132 11.4991L11.5072 11.5351C11.5072 11.5471 11.5072 11.5621 11.4952 11.5681C11.4862 11.5741 11.4712 11.5741 11.4652 11.5651H11.4622ZM12.3532 11.2711L12.3142 11.3071C12.2962 11.3221 12.3292 11.3281 12.3322 11.3401C12.3382 11.3581 12.3382 11.3761 12.3382 11.3941C12.3442 11.4121 12.3472 11.4271 12.3442 11.4451C12.3442 11.4661 12.3202 11.4601 12.3082 11.4721C12.2932 11.4781 12.2872 11.4931 12.2782 11.5021C12.271 11.5172 12.2669 11.5335 12.2662 11.5501C12.2662 11.5651 12.2572 11.5801 12.2662 11.5921L12.2692 11.5981H12.2842L12.3292 11.5951C12.3652 11.5891 12.4042 11.5891 12.4402 11.5861L12.5062 11.5801C12.5242 11.5831 12.5332 11.5651 12.5332 11.5501C12.5212 11.5291 12.5302 11.5081 12.5212 11.4901C12.5152 11.4661 12.5182 11.4451 12.5152 11.4241C12.5152 11.4061 12.4942 11.4001 12.4852 11.4121C12.4732 11.4241 12.4552 11.4271 12.4492 11.4391C12.4402 11.4571 12.4672 11.4571 12.4732 11.4691L12.4762 11.5141C12.4792 11.5321 12.4612 11.5321 12.4462 11.5351C12.4312 11.5411 12.4102 11.5441 12.4012 11.5261C12.3952 11.5111 12.3952 11.4961 12.3952 11.4811C12.3952 11.4511 12.3862 11.4271 12.3862 11.4001C12.3862 11.3701 12.3772 11.3371 12.3772 11.3041C12.3772 11.2891 12.3742 11.2681 12.3532 11.2711ZM12.3352 11.5171H12.3442V11.5411L12.3352 11.5441C12.3312 11.5454 12.3272 11.5464 12.3232 11.5471C12.3212 11.5472 12.3192 11.5472 12.3172 11.5471C12.3112 11.5411 12.3112 11.5321 12.3202 11.5231L12.3352 11.5171ZM11.4352 11.2411C11.4262 11.2411 11.4112 11.2621 11.3992 11.2591C11.3722 11.2621 11.3752 11.2891 11.3962 11.2981V11.3221C11.3992 11.3461 11.3842 11.3671 11.3872 11.3911C11.3872 11.4151 11.3782 11.4421 11.3782 11.4691C11.3692 11.4961 11.3692 11.5231 11.3662 11.5501C11.3632 11.5741 11.3452 11.5651 11.3302 11.5591V11.5291C11.3332 11.5021 11.3152 11.4961 11.2942 11.4931C11.2732 11.4931 11.2642 11.4781 11.2702 11.4601C11.2792 11.4481 11.3002 11.4511 11.3152 11.4511C11.3452 11.4571 11.3422 11.4181 11.3272 11.4031C11.3152 11.3851 11.2912 11.3731 11.2852 11.3551C11.2852 11.3311 11.2702 11.3041 11.2492 11.2921C11.2162 11.2891 11.1892 11.3161 11.1802 11.3461C11.1652 11.3461 11.1502 11.3521 11.1382 11.3581C11.1172 11.3641 11.0872 11.4001 11.1172 11.4151C11.1322 11.4181 11.1832 11.4301 11.1592 11.4511C11.1472 11.4751 11.1232 11.4751 11.1022 11.4691C11.0812 11.4691 11.0572 11.4571 11.0572 11.4331C11.0542 11.4091 11.0542 11.3851 11.0452 11.3641C11.0392 11.3401 11.0122 11.3461 11.0092 11.3701C10.9882 11.3851 10.9912 11.4121 11.0062 11.4301C11.0152 11.4511 11.0062 11.4781 10.9972 11.4961C10.9912 11.5261 10.9612 11.5261 10.9402 11.5321C10.9312 11.5381 10.8922 11.5321 10.9072 11.5531C10.9297 11.5635 10.9548 11.5666 10.9792 11.5621C11.0032 11.5621 11.0242 11.5411 11.0392 11.5201C11.0542 11.5051 11.0812 11.5141 11.1052 11.5141C11.1262 11.5141 11.1502 11.5291 11.1742 11.5171C11.1802 11.5021 11.2102 11.4721 11.2192 11.5021C11.2192 11.5291 11.2402 11.5411 11.2642 11.5381C11.2912 11.5381 11.2792 11.5561 11.2792 11.5741C11.2792 11.6011 11.3002 11.6161 11.3242 11.6281H11.3482C11.3692 11.6191 11.3932 11.6101 11.4022 11.5861C11.4112 11.5651 11.4112 11.5411 11.4172 11.5201C11.4232 11.4871 11.4292 11.4511 11.4292 11.4181C11.4382 11.3881 11.4352 11.3551 11.4412 11.3221L11.4502 11.2531C11.4502 11.2381 11.4442 11.2381 11.4352 11.2411ZM11.2342 11.3641C11.2372 11.3641 11.2402 11.3701 11.2402 11.3791C11.2402 11.3911 11.2462 11.4001 11.2552 11.4031V11.4121L11.2312 11.4181C11.2162 11.4181 11.2042 11.4121 11.1952 11.4031L11.1892 11.3971L11.1982 11.3911L11.2132 11.3761C11.2222 11.3671 11.2282 11.3641 11.2342 11.3641ZM13.2142 11.1271C13.1969 11.1283 13.1798 11.1314 13.1632 11.1361C13.1332 11.1361 13.1182 11.1661 13.1482 11.1841C13.1662 11.2291 13.1932 11.1721 13.2232 11.1781C13.2652 11.1841 13.2682 11.2321 13.2772 11.2681C13.2772 11.3011 13.2892 11.3341 13.2982 11.3671C13.3282 11.4001 13.2772 11.4211 13.2562 11.3971C13.2382 11.3761 13.1962 11.3521 13.1752 11.3791C13.1482 11.3911 13.1452 11.4271 13.1242 11.4391C13.0882 11.4481 13.0852 11.4031 13.0642 11.3851C13.0462 11.3581 13.0132 11.3551 12.9862 11.3491C12.9742 11.3221 12.9802 11.2771 12.9562 11.2591C12.9322 11.2681 12.8902 11.3101 12.9262 11.3311C12.9562 11.3611 12.9112 11.3731 12.8962 11.3911C12.8722 11.4181 12.8662 11.4511 12.8662 11.4811C12.8272 11.5021 12.8212 11.4571 12.8152 11.4301C12.8152 11.3971 12.7852 11.4061 12.7642 11.4181C12.7342 11.4301 12.7222 11.4571 12.7042 11.4781V11.5381C12.7102 11.5651 12.7402 11.5531 12.7582 11.5501C12.7882 11.5381 12.8002 11.5711 12.7762 11.5891C12.7582 11.6071 12.7102 11.5981 12.7162 11.6311H12.7642C12.7942 11.6221 12.8302 11.5981 12.8332 11.5621C12.8392 11.5321 12.8842 11.5351 12.9082 11.5291C12.9382 11.5201 12.9772 11.5171 12.9862 11.5591C13.0072 11.5801 13.0522 11.6041 13.0762 11.5741C13.0876 11.5669 13.0967 11.5565 13.1026 11.5443C13.1084 11.5321 13.1107 11.5185 13.1092 11.5051C13.1062 11.4811 13.1482 11.4811 13.1602 11.4961C13.1752 11.5201 13.2232 11.5141 13.2472 11.4961C13.2712 11.4811 13.2772 11.4481 13.3132 11.4481L13.4752 11.4031C13.5172 11.3941 13.4692 11.3671 13.4572 11.3491C13.4272 11.3341 13.3972 11.4001 13.3612 11.3671C13.3312 11.3461 13.3342 11.3071 13.3252 11.2741C13.3162 11.2321 13.3192 11.1841 13.2892 11.1541C13.2712 11.1331 13.2412 11.1271 13.2142 11.1271ZM13.0102 11.4121C13.0132 11.4121 13.0192 11.4121 13.0252 11.4181C13.0372 11.4241 13.0462 11.4361 13.0462 11.4481C13.0462 11.4541 13.0462 11.4541 13.0372 11.4571L13.0222 11.4631C13.0162 11.4631 13.0012 11.4541 13.0012 11.4481V11.4361C12.9952 11.4241 12.9952 11.4241 13.0012 11.4181L13.0102 11.4121ZM13.2052 11.4241C13.2172 11.4241 13.2232 11.4241 13.2292 11.4331C13.2322 11.4451 13.2292 11.4511 13.2172 11.4571L13.2022 11.4631L13.1902 11.4541C13.1842 11.4511 13.1812 11.4481 13.1812 11.4421C13.1812 11.4331 13.1932 11.4241 13.2052 11.4211V11.4241ZM12.9352 11.4241C12.9412 11.4241 12.9442 11.4241 12.9472 11.4301C12.9532 11.4361 12.9562 11.4391 12.9562 11.4481V11.4661C12.9562 11.4751 12.9562 11.4721 12.9382 11.4721C12.9202 11.4721 12.9172 11.4721 12.9172 11.4541C12.9172 11.4421 12.9172 11.4391 12.9262 11.4331C12.9292 11.4271 12.9352 11.4271 12.9382 11.4271L12.9352 11.4241ZM12.7732 11.4691C12.776 11.47 12.7786 11.4715 12.7807 11.4736C12.7828 11.4757 12.7843 11.4783 12.7852 11.4811C12.7852 11.4901 12.7852 11.4961 12.7792 11.4991C12.7702 11.5021 12.7552 11.5051 12.7492 11.4991C12.7491 11.4981 12.7491 11.4971 12.7492 11.4961C12.7432 11.4931 12.7432 11.4901 12.7492 11.4871V11.4841L12.7552 11.4751C12.757 11.4722 12.7598 11.47 12.7631 11.4689C12.7664 11.4678 12.7699 11.4679 12.7732 11.4691ZM13.0492 11.5051L13.0642 11.5081V11.5261H13.0282L13.0252 11.5201C13.0252 11.5141 13.0252 11.5111 13.0312 11.5081L13.0492 11.5051ZM12.5362 11.6491C12.5332 11.6491 12.5272 11.6461 12.5332 11.6431C12.5362 11.6341 12.5482 11.6311 12.5572 11.6251C12.5735 11.6189 12.588 11.6085 12.5992 11.5951C12.5992 11.5831 12.6112 11.5771 12.6112 11.5651L12.6082 11.5231C12.6041 11.5105 12.5956 11.4998 12.5842 11.4931C12.5752 11.4901 12.5632 11.4871 12.5602 11.4751C12.5602 11.4661 12.5692 11.4571 12.5722 11.4481L12.5902 11.4121C12.5992 11.4031 12.6112 11.4121 12.6142 11.4181L12.6292 11.4481C12.6382 11.4571 12.6442 11.4661 12.6472 11.4781C12.6532 11.4901 12.6592 11.4991 12.6592 11.5081L12.6652 11.5471C12.6652 11.5621 12.6652 11.5801 12.6592 11.5951L12.6412 11.6191C12.6322 11.6281 12.6232 11.6371 12.6112 11.6401C12.6022 11.6431 12.5962 11.6521 12.5842 11.6521H12.5392L12.5362 11.6491ZM12.3292 11.6611C12.3232 11.6551 12.3202 11.6521 12.3202 11.6431C12.3202 11.6341 12.3202 11.6341 12.3292 11.6251C12.3412 11.6131 12.3472 11.6131 12.3712 11.6251C12.3922 11.6371 12.4012 11.6371 12.4012 11.6281C12.4042 11.6221 12.4162 11.6131 12.4312 11.6131C12.4367 11.6133 12.442 11.6154 12.4462 11.6191C12.4522 11.6251 12.4552 11.6281 12.4552 11.6401C12.4552 11.6551 12.4552 11.6551 12.4462 11.6641C12.4372 11.6701 12.4372 11.6701 12.4252 11.6701C12.4198 11.6698 12.4147 11.6679 12.4104 11.6647C12.4062 11.6615 12.4029 11.6571 12.4012 11.6521C12.4012 11.6461 12.4012 11.6431 12.3952 11.6491L12.3892 11.6521C12.3832 11.6521 12.3712 11.6611 12.3652 11.6671L12.3502 11.6701C12.3382 11.6701 12.3382 11.6701 12.3292 11.6611ZM11.7352 11.3941C11.7142 11.3941 11.6932 11.4121 11.6902 11.4331C11.6962 11.4541 11.7142 11.4781 11.7022 11.4991C11.7112 11.5291 11.6782 11.5411 11.6572 11.5261C11.6452 11.4961 11.6392 11.4661 11.6182 11.4361C11.5942 11.4301 11.5852 11.4691 11.5672 11.4841C11.5762 11.5051 11.6002 11.5261 11.6032 11.5531C11.6092 11.5831 11.5912 11.6131 11.5702 11.6251C11.5492 11.6461 11.5192 11.6401 11.4952 11.6431C11.4652 11.6611 11.5162 11.6671 11.5312 11.6671C11.5612 11.6701 11.5942 11.6671 11.6212 11.6431C11.6422 11.6341 11.6392 11.5921 11.6662 11.5891L11.8102 11.5981C11.8342 11.6041 11.8732 11.5951 11.8912 11.6131C11.8912 11.6431 11.9212 11.6671 11.9482 11.6791C11.9632 11.6851 11.9782 11.6641 11.9932 11.6611C12.0232 11.6521 12.0142 11.6161 12.0322 11.6011H12.1822C12.1882 11.6011 12.1912 11.5861 12.2002 11.5801L12.1942 11.5231C12.1852 11.4991 12.1942 11.4691 12.1792 11.4481C12.1522 11.4421 12.1312 11.4631 12.1072 11.4661C12.0772 11.4781 12.0562 11.5051 12.0532 11.5351C12.0382 11.5621 12.0112 11.5291 12.0232 11.5051L12.0202 11.4751C12.0052 11.4601 11.9782 11.4661 11.9572 11.4631L11.8672 11.4571C11.8372 11.4571 11.8102 11.4601 11.7862 11.4541C11.7562 11.4541 11.7562 11.4241 11.7562 11.4001C11.7502 11.3955 11.7427 11.3934 11.7352 11.3941ZM11.7952 11.5051L11.8252 11.5081H11.8642C11.8942 11.5141 11.9242 11.5141 11.9542 11.5141C11.9602 11.5141 11.9662 11.5201 11.9722 11.5261V11.5861C11.9722 11.5951 11.9722 11.6071 11.9662 11.6101C11.9646 11.6125 11.9625 11.6145 11.9602 11.6161C11.9558 11.6153 11.9516 11.6136 11.948 11.611C11.9443 11.6084 11.9413 11.605 11.9392 11.6011V11.5591C11.9332 11.5541 11.9259 11.5509 11.9182 11.5501L11.8402 11.5471L11.7802 11.5441C11.7712 11.5411 11.7592 11.5441 11.7532 11.5321C11.7472 11.5261 11.7562 11.5141 11.7652 11.5111C11.7746 11.5069 11.7848 11.5048 11.7952 11.5051ZM12.1342 11.5141C12.1372 11.5141 12.1402 11.5141 12.1402 11.5231L12.1462 11.5381C12.1462 11.5411 12.1462 11.5441 12.1402 11.5441C12.1252 11.5501 12.1102 11.5501 12.1042 11.5441C12.1042 11.5411 12.1042 11.5291 12.1102 11.5261L12.1342 11.5141Z" fill="#C09300"/>
<path d="M12.0014 9.81617C12.9794 9.06617 12.8954 7.96217 12.8954 7.96217L12.8204 7.96817C12.6134 7.96817 12.1244 7.84817 12.0104 7.70117C11.8904 7.83617 11.3864 7.97117 11.1824 7.97117L11.1074 7.96217C11.1074 7.96217 11.0204 9.06317 12.0014 9.81617Z" fill="white" stroke="#C09300" stroke-width="0.15"/>
<path d="M12.8156 8.03998H12.7916C12.6056 8.03998 12.1736 7.94698 12.0056 7.80298C11.8316 7.93498 11.3906 8.04298 11.2076 8.04298C11.1995 8.04267 11.1915 8.04166 11.1836 8.03998C11.1852 8.22956 11.2115 8.41814 11.2616 8.60098C11.3819 9.0415 11.6406 9.43169 11.9996 9.71398C12.3588 9.43061 12.6175 9.03942 12.7376 8.59798C12.7875 8.41611 12.8137 8.22856 12.8156 8.03998Z" fill="white" stroke="#C09300" stroke-width="0.15"/>
<path d="M11.6816 7.95002C11.5205 8.0025 11.3529 8.03278 11.1836 8.04002L11.1866 8.16302C11.1968 8.31018 11.222 8.45593 11.2616 8.59802C11.3422 8.89307 11.4855 9.16729 11.6816 9.40203V7.95002ZM12.2996 7.95002V9.42603C12.5051 9.18589 12.6548 8.90307 12.7376 8.59802C12.7772 8.45592 12.8023 8.31018 12.8126 8.16302L12.8156 8.04302H12.7916C12.6776 8.04302 12.4796 8.00702 12.2996 7.94702V7.95002Z" fill="#C09300"/>
<path d="M12.3683 7.59008C12.3893 7.59308 12.3413 7.48508 12.3413 7.48508C12.3953 7.53908 12.5933 7.55408 12.5933 7.55408C12.4733 7.50008 12.3533 7.10108 12.3683 6.78008C12.3803 6.46208 12.3233 6.33608 12.2783 6.28808C12.2183 6.22808 12.0233 6.17408 11.8973 6.16808C11.8223 6.16508 11.8373 6.22208 11.8373 6.22208C11.7023 6.18908 11.5673 6.17408 11.5073 6.21608C11.4533 6.25208 11.4413 6.44108 11.4833 6.40808C11.5823 6.32708 11.6693 6.40208 11.7293 6.48908C11.7833 6.56408 11.7803 6.78008 11.7023 7.03508C11.6333 7.22786 11.5318 7.40743 11.4023 7.56608C11.5223 7.56608 11.6903 7.46108 11.6903 7.46108L11.6513 7.62608C11.7773 7.56608 11.8763 7.47308 11.8763 7.47308L11.9963 7.59908C12.0353 7.54508 12.1163 7.47308 12.1163 7.47308C12.1163 7.47308 12.2153 7.57808 12.3683 7.59308V7.59008Z" fill="white" stroke="#C09300" stroke-width="0.15"/>
<path d="M12.2044 6.86099C12.2044 6.86099 12.2284 7.31999 12.3424 7.48499M11.8834 6.82799C11.8834 6.82799 11.8174 7.31999 11.6914 7.45799L11.8834 6.82799ZM11.9914 6.81299C11.9914 6.81299 11.9614 7.31399 11.8774 7.47299L11.9914 6.81299ZM12.0844 6.83399C12.0844 6.83399 12.0844 7.37999 12.1144 7.47299L12.0844 6.83399Z" stroke="#C09300" stroke-width="0.15"/>
<path d="M11.7604 6.58819C11.7577 6.5534 11.7475 6.51962 11.7304 6.48919C11.6704 6.39919 11.5834 6.32719 11.4844 6.40819C11.4844 6.40819 11.5174 6.30319 11.5924 6.30019C11.6464 6.29719 11.7754 6.34219 11.8894 6.53419C11.8894 6.53419 11.8054 6.51619 11.7844 6.53419C11.7484 6.56419 11.7634 6.58819 11.7634 6.58819H11.7604Z" fill="#C09300" stroke="#C09300" stroke-width="0.15"/>
<path d="M11.4727 6.27908C11.4817 6.24908 11.4937 6.22508 11.5117 6.21608C11.5717 6.17408 11.7037 6.18608 11.8387 6.22208C11.8387 6.22208 11.8267 6.16508 11.8987 6.16808C12.0247 6.17408 12.2167 6.22808 12.2767 6.28808C12.2959 6.30918 12.3111 6.33357 12.3217 6.36008C12.2917 6.31808 12.2077 6.32108 12.1867 6.32408C12.1567 6.32708 12.1357 6.32408 12.0937 6.33608C12.0727 6.34208 12.0427 6.34808 12.0247 6.36008C12.0127 6.37208 12.0007 6.40808 11.9827 6.40808C11.9527 6.40808 11.9527 6.40208 11.9437 6.39308C11.9347 6.37808 11.9287 6.36008 11.9167 6.36308C11.8867 6.36608 11.8327 6.34208 11.7667 6.28808C11.6977 6.23408 11.6707 6.22208 11.5867 6.22808C11.4967 6.23408 11.4727 6.28508 11.4727 6.28508V6.27908Z" fill="#C09300" stroke="#C09300" stroke-width="0.15"/>
<path d="M11.9618 6.35715C11.9817 6.35715 11.9978 6.34104 11.9978 6.32116C11.9978 6.30127 11.9817 6.28516 11.9618 6.28516C11.9419 6.28516 11.9258 6.30127 11.9258 6.32116C11.9258 6.34104 11.9419 6.35715 11.9618 6.35715Z" fill="white"/>
</svg>
