<svg width="24" height="18" viewBox="0 0 24 18" fill="none" xmlns="http://www.w3.org/2000/svg">
<g clip-path="url(#clip0)">
<path fill-rule="evenodd" clip-rule="evenodd" d="M24.9132 18.048H-0.868652V0H24.9132V18.048Z" fill="white"/>
<path fill-rule="evenodd" clip-rule="evenodd" d="M24.9132 4.06082H-0.868652V1.69202H24.9132V4.06082ZM24.9132 16.4159H-0.868652V14.0471H24.9132V16.4159ZM7.88745 6.72219L11.7685 13.4761L15.7341 6.75392L7.88745 6.72572V6.72219Z" fill="#0000CC"/>
<path fill-rule="evenodd" clip-rule="evenodd" d="M11.0389 11.2025L11.7757 12.4538L12.53 11.2095L11.0354 11.2025H11.0389Z" fill="white"/>
<path fill-rule="evenodd" clip-rule="evenodd" d="M7.87305 11.3011L11.7576 4.54724L15.7197 11.2729L7.87305 11.3011Z" fill="#0000CC"/>
<path fill-rule="evenodd" clip-rule="evenodd" d="M11.0384 6.75391L11.7751 5.50253L12.5294 6.75038L11.0348 6.75391H11.0384ZM9.49442 9.55628L8.72949 10.8253L10.1747 10.8218L9.49442 9.55275V9.55628ZM8.74359 7.21216L10.1959 7.22273L9.49794 8.50231L8.74359 7.21216ZM14.0734 9.57391L14.8101 10.8253L13.3402 10.8077L14.0734 9.57391ZM14.796 7.21216L13.3437 7.22273L14.0417 8.50231L14.796 7.21216ZM10.7669 7.21216L9.76584 9.02401L10.781 10.7971L12.6422 10.8394L13.7702 9.02401L12.7268 7.19101L10.7669 7.20863V7.21216Z" fill="white"/>
</g>
<defs>
<clipPath id="clip0">
<rect width="24" height="18" fill="white"/>
</clipPath>
</defs>
</svg>
