<svg width="80" height="62" viewBox="0 0 80 62" fill="none" xmlns="http://www.w3.org/2000/svg">
<path d="M80 0H0V4.37305H80V0Z" fill="#CC0000"/>
<path d="M80 4.37891H0V8.75195H80V4.37891Z" fill="white"/>
<path d="M80 8.74805H0V13.123H80V8.74805Z" fill="#CC0000"/>
<path d="M80 13.123H0V17.498H80V13.123Z" fill="white"/>
<path d="M80 17.4668H0V21.8418H80V17.4668Z" fill="#CC0000"/>
<path d="M80 21.8438H0V26.2188H80V21.8438Z" fill="white"/>
<path d="M80 26.2148H0V30.5918H80V26.2148Z" fill="#CC0000"/>
<path d="M80 30.5879H0V34.9648H80V30.5879Z" fill="white"/>
<path d="M80 34.9668H0V39.3418H80V34.9668Z" fill="#CC0000"/>
<path d="M80 39.3457H0V43.7207H80V39.3457Z" fill="white"/>
<path d="M80 43.6836H0V48.0566H80V43.6836Z" fill="#CC0000"/>
<path d="M80 48.0605H0V52.4375H80V48.0605Z" fill="white"/>
<path d="M80 52.4336H0V56.8086H80V52.4336Z" fill="#CC0000"/>
<path d="M80 56.8066H0V61.1816H80V56.8066Z" fill="white"/>
<path d="M46.6747 0H0V34.9668H46.6747V0Z" fill="#000066"/>
<path d="M29.6211 8.92302L30.3874 14.3653L33.3522 9.80775L31.7624 15.0567L36.3385 12.2835L32.7149 16.2983L38 15.8596L33.0586 17.8447L38 19.8298L32.7149 19.3912L36.3385 23.4059L31.7624 20.6328L33.3522 25.8817L30.3874 21.3242L29.6211 26.7664L28.8548 21.3242L25.89 25.8817L27.4798 20.6328L22.9037 23.4059L26.5274 19.3912L21.2422 19.8298L26.1836 17.8447L21.2422 15.8596L26.5274 16.2983L22.9037 12.2835L27.4798 15.0567L25.89 9.80775L28.8548 14.3653L29.6211 8.92302ZM25.3242 9.14606C23.9287 8.50321 22.4005 8.23242 20.8786 8.35829C19.3566 8.48416 17.889 9.0027 16.6091 9.86683C15.3292 10.731 14.2774 11.9133 13.5493 13.3065C12.8212 14.6997 12.4399 16.2597 12.4399 17.8447C12.4399 19.4298 12.8212 20.9897 13.5493 22.3829C14.2774 23.7762 15.3292 24.9585 16.6091 25.8226C17.889 26.6868 19.3566 27.2053 20.8786 27.3312C22.4005 27.457 23.9287 27.1862 25.3242 26.5434C23.7832 27.6913 21.9671 28.3757 20.0757 28.5214C18.1843 28.6671 16.2907 28.2685 14.6034 27.3694C12.916 26.4703 11.5002 25.1054 10.5116 23.425C9.52305 21.7446 9 19.8138 9 17.8447C9 15.8757 9.52305 13.9448 10.5116 12.2644C11.5002 10.584 12.916 9.2192 14.6034 8.32007C16.2907 7.42093 18.1843 7.02231 20.0757 7.16804C21.9671 7.31376 23.7832 7.9982 25.3242 9.14606Z" fill="#FFCC00"/>
</svg>
