<svg width="80" height="60" viewBox="0 0 80 60" fill="none" xmlns="http://www.w3.org/2000/svg">
<path d="M80 0H0V4.29008H80V0Z" fill="#D80031"/>
<path d="M80 4.29102H0V8.58109H80V4.29102Z" fill="white"/>
<path d="M80 8.58008H0V12.8702H80V8.58008Z" fill="#D80031"/>
<path d="M80 12.8711H0V17.1612H80V12.8711Z" fill="white"/>
<path d="M80 17.1289H0V21.419H80V17.1289Z" fill="#D80031"/>
<path d="M80 21.4199H0V25.71H80V21.4199Z" fill="white"/>
<path d="M80 25.709H0V29.9991H80V25.709Z" fill="#D80031"/>
<path d="M80 30H0V34.2901H80V30Z" fill="white"/>
<path d="M80 34.291H0V38.5811H80V34.291Z" fill="#D80031"/>
<path d="M80 38.5801H0V42.8702H80V38.5801Z" fill="white"/>
<path d="M80 42.8398H0V47.1299H80V42.8398Z" fill="#D80031"/>
<path d="M80 47.1289H0V51.419H80V47.1289Z" fill="white"/>
<path d="M80 51.4199H0V55.71H80V51.4199Z" fill="#D80031"/>
<path d="M80 55.709H0V59.9991H80V55.709Z" fill="white"/>
<path d="M46.6746 0H0V34.29H46.6746V0Z" fill="#2530A9"/>
<path d="M12.4904 17.1281C12.4894 15.1276 12.9035 13.1631 13.69 11.437C14.4765 9.71088 15.607 8.2857 16.9648 7.30838C18.3226 6.33107 19.8586 5.837 21.4144 5.87713C22.9702 5.91726 24.4896 6.49013 25.8158 7.53666C24.3753 5.87987 22.5926 4.7945 20.6828 4.41158C18.773 4.02865 16.8178 4.36455 15.0533 5.37873C13.2888 6.3929 11.7903 8.04198 10.7389 10.1269C9.68743 12.2118 9.12793 14.6434 9.12793 17.1281C9.12793 19.6127 9.68743 22.0443 10.7389 24.1292C11.7903 26.2141 13.2888 27.8632 15.0533 28.8774C16.8178 29.8916 18.773 30.2274 20.6828 29.8445C22.5926 29.4616 24.3753 28.3762 25.8158 26.7194C24.4896 27.766 22.9702 28.3388 21.4144 28.379C19.8586 28.4191 18.3226 27.925 16.9648 26.9477C15.607 25.9704 14.4765 24.5452 13.69 22.8191C12.9035 21.093 12.4894 19.1285 12.4904 17.1281Z" fill="#F5D028"/>
<path d="M32.491 17.1291L37.2824 14.7696L32.1811 15.2905L35.6853 10.4489L31.2514 13.789L32.7771 7.47645L29.9165 12.9616L29.1776 6.43457L28.6293 11.123L28.4863 12.4713L28.4386 12.9616L25.5542 7.47645L27.0798 13.789L22.646 10.4489L26.174 15.2905L21.0488 14.7696L25.8402 17.1291L21.0488 19.5193L26.174 18.9984L22.646 23.84L27.0798 20.4999L25.5542 26.7818L28.4386 21.3273L28.4863 21.8482L28.6293 23.1659L29.1776 27.8543L29.9165 21.3273L32.7771 26.7818L31.2514 20.4999L35.6853 23.84L32.1811 18.9984L37.2824 19.5193L32.491 17.1291Z" fill="#F5D028"/>
</svg>
