<svg xmlns="http://www.w3.org/2000/svg" xmlns:xlink="http://www.w3.org/1999/xlink" width="24" height="18" viewBox="0 0 33.56 19.58" xmlns:v="https://vecta.io/nano"><style><![CDATA[.AS{fill:#eec747}.AT{fill:#f2c949}.AU{fill:#a28b38}.AV{fill:#907c35}.AW{fill:#844629}.AX{fill:#a06c32}.AY{fill:#4a2d1d}.AZ{fill:#26554f}.Aa{fill:#fff}.Ab{fill:#252525}.Ac{fill:#93bcbc}.Ad{fill:#c8a369}.Ae{fill:#272425}.Af{fill:#d1ab6e}.Ag{fill:#a5ab72}.Ah{fill:#767334}.Ai{fill:#eca757}.Aj{fill:#883129}.Ak{fill:#854729}.Al{fill:#252725}.Am{fill:#3c8386}.An{fill:#4b433c}.Ao{fill:#242626}.Ap{clip-path:url(#A)}.Aq{fill:#3771a3}.Ar{fill:#efc745}.As{fill:#a46f32}.At{fill:#7c6c31}.Au{fill:#f2c948}.Av{fill:#d6153e}.Aw{fill:#f0e32a}.Ax{fill:#804428}.Ay{fill:#a67032}]]></style><defs><clipPath id="A"><path d="M0 0h33.56v19.58H0z" fill="none"/></clipPath><clipPath id="B"><path d="M15.25,10.48c0,.12,0,.23.11.25s.16-.08.19-.2,0-.23-.12-.25h0c-.08,0-.15.09-.17.2" fill="none"/></clipPath><radialGradient id="C" cx="-438.11" cy="557.7" r=".03" gradientTransform="matrix(5.54, 2.34, -2.29, 5.57, 3721.44, -2070.27)" gradientUnits="userSpaceOnUse"><stop offset="0" stop-color="#fff"/><stop offset="1" stop-color="#df5072"/></radialGradient><clipPath id="D"><path d="M13.93,9.64c-.08,0-.09.17,0,.29s.18.18.25.14.09-.17,0-.29a.25.25,0,0,0-.2-.15h-.05" fill="none"/></clipPath><radialGradient id="E" cx="-362.02" cy="608.27" gradientTransform="matrix(0, -5.97, 5.54, -0.02, -3356.97, -2141.92)" xlink:href="#C"/><clipPath id="F"><path d="M19,10.84c-.1.08-.14.19-.1.25s.15,0,.25-.06.14-.2.1-.25a.08.08,0,0,0-.06,0,.3.3,0,0,0-.19.09" fill="none"/></clipPath><radialGradient id="G" cx="-523.27" cy="587.45" gradientTransform="matrix(2, 2.38, -4.62, 3.99, 3779.1, -1087.31)" xlink:href="#C"/></defs><g class="Ap"><path d="M0 0h33.56v19.58H0z" class="Aa"/><path d="M.05 0h11.17v19.58H.05z" fill="#2c6949"/><path d="M22.39 0h11.17v19.58H22.39z" fill="#bc0030"/><g class="Ap"><path d="M15 7.6a1.58 1.58 0 0 1-.34 0c-.14 0-.11-.38-.11-.39s-.09-.1-.07-.18.27-.29.31-.3a.16.16 0 0 1 .07 0s.06-.06.08-.06 0 0 0 .05-.09.06-.1.1a.27.27 0 0 1 0 .12s-.07.09-.08.13 0 .06 0 .07a.3.3 0 0 0 .18 0c.07 0 .1-.08.11-.07s0 .09-.12.13-.13.07-.17.07 0 .11.09.11a.47.47 0 0 0 .21 0zm-.8.84a.17.17 0 0 1 .11.16c0 .12-.12.22-.11.42s0 .21.31.43a.31.31 0 0 1 .08.13c0 .07.06.46.33.46s.3-.17.3-.17l-.11-.17a.37.37 0 0 1-.14 0 .18.18 0 0 1-.12-.11 1.92 1.92 0 0 0-.08-.28c-.11-.17-.31-.19-.31-.37s.12-.19.09-.4-.28-.31-.28-.31h-.1v.21z" class="Ag"/><path d="M14.93,7c.09,0,0-.25,0-.25l-.06.05a.19.19,0,0,1,0,.1.41.41,0,0,1,0,.1" fill="#e4a532"/><path d="M15.09 9.29h0s-.17-.13-.15-.47.57-.57.61-.72.16-.24-.27-.58l-.1.12.18.13s0 .09-.06.13a2.81 2.81 0 0 1-.3.24l-.16.12a.82.82 0 0 0-.14.21.66.66 0 0 0 0 .33.49.49 0 0 0 .43.47" class="Ag"/><g class="Ah"><path d="M14.83 9.5v.14h-.09-.04l-.07.06h0v-.08h.08 0v-.08zm-.26.02v-.05h0 .06.06v.08z"/><path d="M14.72 9.3a.12.12 0 0 1 .05 0v.07h-.1-.08V9.3zm-.04.62a.08.08 0 0 1 0 0 .78.78 0 0 1 0-.09h.07.08 0 0l-.08.07z"/><path d="M14.94 9.71h-.07v.08.07h.07m-.25.14h.07.07 0v-.06h-.16zm.24-.1l.13-.08v-.08h0H15v.09z"/><path d="M14.83 10a.38.38 0 0 0 .26 0c.08 0 .09-.06.09-.06h-.06l-.06.06zm-.13-1v-.07a.19.19 0 0 1 0-.06h0l.07.05h0zm.11.16v-.05-.06h.05.06v.08z"/></g><path d="M14.5 7v.11c0 .02.13 0 .24-.13a.2.2 0 0 0 .05-.12v-.07h-.12a2.12 2.12 0 0 0-.17.21" fill="#c3c6a4"/><path d="M14.81,6.76a0,0,0,0,1,0,0,0,0,0,0,1,0,0,0,0,0,0,1,0,0,0,0,0,0,1,0,0" fill="#232832"/><path d="M14.67 6.8l-.09.09a.4.4 0 0 0 .14-.08.19.19 0 0 1 .14 0 .11.11 0 0 0-.09 0l-.1.07" class="Ag"/><g class="Ah"><path d="M14.9 8.92a.53.53 0 0 1 0-.06.18.18 0 0 1 0-.06h0v.06h.07zm-.23-.13v-.12a1.34 1.34 0 0 1 0-.17v.07l.08.13h0l-.07.05h-.07z"/><path d="M14.9 8.75a.37.37 0 0 1 0-.06v-.07h0l-.07.06h0m-.12-.23a.3.3 0 0 1 0-.09l.07-.09v.13.11h0 0-.1v-.07"/><path d="M15 8.6h0l.05-.06h-.17v.06zm-.14-.35l.06-.05h.07v.18h-.09z"/><path d="M15.07 8.48l.1-.1-.17-.04.03.11.04.03zm.07-.27V8l-.08.05H15h0 .06zm.15-.21v-.09h0l-.06.09h0 0zm.06.23l.08-.07a.36.36 0 0 0 .08-.08h-.22v.09z"/><path d="M14.84 7.6h.18l-.05-.06-.05-.03-.05-.06-.03.06v.09zm.35.76l.08-.06h.06-.17v.12zm.33-.36a.61.61 0 0 0 0-.13.46.46 0 0 0 0-.1l-.13.09v.06.05z"/><path d="M15.3 7.89a.18.18 0 0 0 0-.07h0 .17v.05h-.06-.08zm.21-.11l-.06-.11v-.06.15h.16z"/></g><path d="M14.24 8.8h0a.29.29 0 0 1 .12 0c.05 0 .11.07.11.07h0a.28.28 0 0 0-.12-.07.21.21 0 0 0-.11 0m0-.3h0a.13.13 0 0 1 .08-.08.11.11 0 0 1 .1 0 .09.09 0 0 0 0-.05.11.11 0 0 0-.1 0 .18.18 0 0 0-.06.09m.23.23a.17.17 0 0 0-.09-.08.21.21 0 0 0-.13 0h0a.19.19 0 0 1 .13 0 .16.16 0 0 1 .08.09zm-.26-.27h0a.18.18 0 0 1 0-.11l.06-.05h0a.22.22 0 0 0-.06.06.21.21 0 0 0 0 .09m0-.12a.12.12 0 0 1 .06-.05h0a.14.14 0 0 0-.05.06.26.26 0 0 0 0 .1h0a.29.29 0 0 1 0-.11m.41-1a.14.14 0 0 1 .08 0 .16.16 0 0 0 0 .15.51.51 0 0 0 0 .12h0v-.1a.33.33 0 0 0 .1.11h.05a.36.36 0 0 1 0-.13h0a.26.26 0 0 0 .11.07h0a.4.4 0 0 1-.09-.08h0a.21.21 0 0 1 .1-.08h0 0 0 0l-.09.09a.43.43 0 0 1 0-.08h0a.18.18 0 0 0-.11.09c0-.06.06-.13.06-.13h0-.12a.18.18 0 0 0-.09.07h0a.49.49 0 0 1 .09-.08m.08.11a.27.27 0 0 1 .1-.08.17.17 0 0 0 0 .09.43.43 0 0 0 0 .12.45.45 0 0 1-.1-.11h0m-.4 1.11h0a.16.16 0 0 1 .1 0 .2.2 0 0 1 .12 0v-.06a.25.25 0 0 0-.11 0 .21.21 0 0 0-.11.05M15.43 8v-.05h0l.09-.08h0-.16v-.09-.07h0a.34.34 0 0 1-.14 0h0 .13.06v.07h0 0 .16a.34.34 0 0 1-.09.07h0l-.05-.08h0v.06h-.13 0v.13h-.09 0 0a.59.59 0 0 0 0 .17h0a.25.25 0 0 1-.21.01h0a.52.52 0 0 0 0 .17.32.32 0 0 1-.13-.08h0v.23h0 0a.16.16 0 0 1-.12-.07v.05a.4.4 0 0 0 .11.21h0a.3.3 0 0 1-.15.06h0l.1.07h0a.24.24 0 0 1-.08 0V9l.09-.07h.1 0-.08 0l.07-.09v-.09h-.06c.1-.06.1-.1.1-.1h0a.15.15 0 0 1-.06-.06h.15 0a.52.52 0 0 1-.04-.24h.15 0a.68.68 0 0 1 0-.13h.17 0a.43.43 0 0 1 0-.15h.21V8a.4.4 0 0 1-.1 0m-.55.81a.69.69 0 0 1-.07.11h0a.16.16 0 0 1-.07-.07l.13-.08h.05m0-.17l-.1.1h0c0-.06-.1-.11-.1-.2a.12.12 0 0 0 .11.06h.05a.21.21 0 0 0 .05.08m.07-.16h-.14 0a.89.89 0 0 1 0-.21.52.52 0 0 0 .14.06v.13m0-.15a.58.58 0 0 1 0-.15.24.24 0 0 0 .12.05.75.75 0 0 0 0 .11H15m.31-.12a.32.32 0 0 1-.15 0 1.24 1.24 0 0 1 0-.16h0 .11 0a.55.55 0 0 0 0 .14m0-.16h0v-.14h.08a.27.27 0 0 0 0 .07l.06.06h-.17m-.4 1V9a.19.19 0 0 0-.06.07h0-.1V9h.1 0v.07h0a.34.34 0 0 1 0-.09h.06a.16.16 0 0 1 0 0v.08h0H15h0-.1V9h0 0-.06a.14.14 0 0 1 0 0m-.52 0a.23.23 0 0 1 .12 0h0a.17.17 0 0 0-.11-.07.26.26 0 0 0-.13.07h0a.2.2 0 0 1 .12 0m.7 1a.42.42 0 0 1-.14 0 .32.32 0 0 0 0-.08.22.22 0 0 0 .16-.12h0a.25.25 0 0 1-.14.13v-.17h0a.3.3 0 0 1-.1.08.41.41 0 0 0 0-.14h0a.19.19 0 0 1-.09 0h0a1.45 1.45 0 0 0 .09-.17h0a.85.85 0 0 1-.09.16h0l-.11-.05h0a.32.32 0 0 0 .09 0l-.07.07v.05h.16a.42.42 0 0 1-.1.11h0a.9.9 0 0 0 .2 0 .52.52 0 0 1-.06.1.44.44 0 0 0 .18.03.25.25 0 0 0 .1-.08h0a.15.15 0 0 1-.1.08m-.36-.21l.06-.08h0 .1v.12a.39.39 0 0 1-.13 0m.07.16l.07-.08h0a.17.17 0 0 0 .12-.07.32.32 0 0 1 0 .15.39.39 0 0 1-.18 0m-.1-.51a.78.78 0 0 1 .17 0h0-.15a.2.2 0 0 1 .08-.08h0l-.07.08h0 0a.23.23 0 0 0-.13 0h0a.36.36 0 0 1 .12 0v.13h0v-.16zm-.16-.32V9a.21.21 0 0 0-.14 0 .3.3 0 0 0-.11.1h0a.24.24 0 0 1 .1-.1.42.42 0 0 1 .14 0m.16.12h-.05a.36.36 0 0 0-.12.05.21.21 0 0 0 0 .13.1.1 0 0 0 0 0 .25.25 0 0 1 .06-.12.52.52 0 0 1 .12-.08m-.2 0a.24.24 0 0 1 .1 0h0a.29.29 0 0 0-.12 0l-.09.11h0l.1-.12m.27-2.35h0c0-.05.08-.05.1 0h0a.53.53 0 0 0 0 .13c0 .06 0 .07-.06.1a.46.46 0 0 0-.06.15v.09a.38.38 0 0 1 .06-.21.28.28 0 0 0 .06-.11v-.13h-.07a.13.13 0 0 0-.1.06.23.23 0 0 1-.09.06.16.16 0 0 0 .11 0" class="Aa"/><g class="Ah"><path d="M14.96 7.35h-.13l.03.1.1-.1zm-.16-.01h0 0 0v.1h0zm-.01.27l-.1-.14-.05.12h.15m.38 2.41h0a.48.48 0 0 1-.25.08.37.37 0 0 1-.18 0 .21.21 0 0 1-.08-.09.82.82 0 0 1-.05-.21.54.54 0 0 0-.06-.19.86.86 0 0 0-.2-.17.39.39 0 0 1-.14-.42.29.29 0 0 1 0 0 .64.64 0 0 1 .06-.24.51.51 0 0 0 .06-.18.11.11 0 0 0 0 0 .2.2 0 0 0-.08-.1h-.06-.05 0 0 .07a.18.18 0 0 1 .06.08h0a.53.53 0 0 1-.06.17.64.64 0 0 0-.06.24.32.32 0 0 0 0 0 .41.41 0 0 0 .16.29.86.86 0 0 1 .19.17.91.91 0 0 1 .07.26.66.66 0 0 0 0 .14.23.23 0 0 0 .09.1.38.38 0 0 0 .19 0 .47.47 0 0 0 .26-.08z"/><path d="M15.06 9.69h0-.07a.13.13 0 0 1-.09 0 .22.22 0 0 1-.06-.12.81.81 0 0 0 0-.17.56.56 0 0 0-.18-.19c-.07-.06-.14-.12-.15-.18a.21.21 0 0 1 0 0 .49.49 0 0 1 0-.16.55.55 0 0 0 0-.21.31.31 0 0 0 0 0 .34.34 0 0 0-.16-.23.69.69 0 0 0-.15-.08h0a.81.81 0 0 1 .16.09.3.3 0 0 1 .13.2.54.54 0 0 1 0 .2.46.46 0 0 0 0 .17.19.19 0 0 0 0 0 .38.38 0 0 0 .16.19.57.57 0 0 1 .18.19.87.87 0 0 1 0 .17.22.22 0 0 0 .06.13.14.14 0 0 0 .1 0 .15.15 0 0 0 .07 0z"/></g><path d="M15.54 9.29s.09 0 .09.1a.71.71 0 0 1 0 .18l-.13-.11.07-.06h0z" class="Ag"/><path d="M14 8.4h-.11a.2.2 0 0 1 0-.08s-.05 0 0-.06.07 0 .08 0 0-.08.06-.08.07.06.07.06z" class="AS"/><path d="M14 8.4h-.1a.11.11 0 0 1 0-.05h0 0a0 0 0 0 1 0 0h0a0 0 0 0 1 0 0h.06 0 0 0 0 0 0 0v.22h0v-.22h0 0a.08.08 0 0 0-.06 0h0 0 0-.05a.05.05 0 0 0 0 0h0a.06.06 0 0 0 0 0h0 0a.14.14 0 0 0 0 .06h0H14z" class="AV"/><path d="M14.07 8.42h-.1c-.02 0 0-.09 0-.09s-.05 0 0-.07.05 0 .07 0 0-.08.08-.07a.07.07 0 0 1 .05.05v.22" class="AS"/><path d="M14.07 8.42H14a.06.06 0 0 1 0 0h0 0a0 0 0 0 1 0 0h0 0 0 0 0 0 0 0 0v.1.12h0v-.12-.09h0 0a.08.08 0 0 0-.05 0h0 0-.06a0 0 0 0 0 0 0h0a.06.06 0 0 0 0 0h0a.37.37 0 0 0 0 0 .11.11 0 0 0 0 0 0 0 0 0 0 0 0h.07 0z" class="AV"/><path d="M14.2,8.44a.07.07,0,0,1-.08,0c-.05,0,0-.09,0-.1s0,0,0-.07.06,0,.08,0,0-.09.07-.07.07.06.06.08-.08,0-.09.08a.16.16,0,0,0,0,.11" class="AS"/><path d="M14.2 8.44h0 0-.1a.08.08 0 0 1 0 0 .1.1 0 0 1 0 0h0 0a0 0 0 0 1 0 0h0 0 0 0 0 0 0 0a.06.06 0 0 1 0 0h0 0a.1.1 0 0 0-.05.06h0a.19.19 0 0 0 0 .1h0a.17.17 0 0 1 0-.09h0a.08.08 0 0 1 0-.05h0a.08.08 0 0 0 0 0h0 0 0 0-.06a.05.05 0 0 0 0 0h0a.06.06 0 0 0 0 0h0 0a.32.32 0 0 0 0 .05h0 0 .05 0 0z" class="AV"/><path d="M15.4 9.28l-.12-.14a1.38 1.38 0 0 0-.11-.14l-.12-.06-.05-.13v-.14-.09-.06s-.24.09-.12.55a.29.29 0 0 0 .19.23h.29z" class="As"/><path d="M15.29 7.73h0a.07.07 0 0 1 0 0h0c-.08.18-.25.26-.4.37a.69.69 0 0 0-.2.2.62.62 0 0 0-.09.34.1.1 0 0 0 0 0 .55.55 0 0 0 .22.48.51.51 0 0 0 .27.08h.34 0a0 0 0 0 1 0 0 .11.11 0 0 1 0 .06h0 0 0a.11.11 0 0 0 0-.07.07.07 0 0 0 0 0h-.06.03-.23 0a.5.5 0 0 1-.27-.08.53.53 0 0 1-.21-.47h0a.61.61 0 0 1 .08-.33 1 1 0 0 1 .31-.28.74.74 0 0 0 .29-.3h0 0a.08.08 0 0 0 0 0 .06.06 0 0 0-.05 0z" class="At"/><path d="M15.62 9.35s-.06.11-.07.11 0 0 .06 0h0a.29.29 0 0 0-.1 0h0 .06a.21.21 0 0 0 0-.09z" class="Aa"/><path d="M15.84 9.42h-.14-.07v-.09h-.08-.13L15.13 9h.1.15.22.08 0 0v.07.08.19z" class="Au"/><path d="M15.85 9.41h-.22v.07.22h.13.07v-.18z" class="As"/><path d="M15.81 9.34v.07h.03v-.05l-.03-.02zm-.13-1.57v-.12-.07l-.06-.08-.06-.07h0 0-.26l-.08.09a1 1 0 0 1 .28.3.41.41 0 0 1 .15.09h0z" class="Au"/><path d="M15.54,7.9a.39.39,0,0,1,0,.2l.09-.1.07-.12a.41.41,0,0,0-.15-.09.25.25,0,0,1,0,.11" class="As"/><path d="M15.75 9.62l-.07-.08h-.07 0 0 .06v.05h0z" class="At"/><path d="M15.83,9.5a.22.22,0,0,1-.06.1.52.52,0,0,1-.11.08l.15.05.1-.09Z" fill="#6b5c2b"/><path d="M15.83 9.54l.03.04v.03.01l-.01.02-.03.03-.02.02.03-.15z" fill="#42441f"/><path d="M18.66 12.33l.01.23.09-.05-.07-.2-.03.02z" class="AT"/><path d="M18.66 12.33h-.01l.01.24.11-.06-.08-.21-.04.02v.01h.01 0l.03-.01.06.18-.07.05-.02-.22h0 0 0z" class="AU"/><path d="M18.73,12.26a.08.08,0,0,1-.08.08.07.07,0,1,1,0-.15.08.08,0,0,1,.08.07" class="AT"/><g class="AU"><path d="M18.73,12.26h0a.07.07,0,0,1-.14,0,.07.07,0,0,1,.14,0h0a.08.08,0,0,0-.17,0,.08.08,0,0,0,.17,0Z"/><path d="M18.7 12.35h0 0v-.08h0z"/><path d="M18.71 12.3a.07.07 0 0 1-.06 0 .07.07 0 0 1-.07 0 .08.08 0 0 1 0-.06h0 0 0 .08 0z"/></g><path d="M18.94 12.69l-.17-.16-.08.06.23.14.02-.04z" class="AT"/><path d="M18.94 12.69h0l-.17-.17-.09.07.25.15.02-.05h-.01 0-.01l-.01.03-.22-.13.07-.05.16.16.01-.01h-.01.01z" class="AU"/><path d="M18.92,12.79a.08.08,0,0,1,0-.11.08.08,0,0,1,.11,0,.07.07,0,0,1,0,.1.07.07,0,0,1-.11,0" class="AT"/><g class="AU"><path d="M18.92 12.79h0a.06.06 0 0 1 0 0 .07.07 0 0 1 0-.06h0 .05a.09.09 0 0 1 0 0 .08.08 0 0 1 0 .06h0a.06.06 0 0 1-.05 0h0a.08.08 0 0 0 .06 0h.05a.09.09 0 0 0 0-.07.08.08 0 0 0 0 0 .08.08 0 0 0-.06 0h-.05a.09.09 0 0 0 0 .07.09.09 0 0 0 0 0z"/><path d="M18.93,12.68h0a.78.78,0,0,1-.18-.09l.2.12Z"/><path d="M19.06 12.74a.07.07 0 0 1 0 .05.07.07 0 0 1-.08 0 .07.07 0 0 1 0-.06h0 0H19h0 0z"/></g><path d="M20.26 10.24l.17.17.02-.09-.16-.1-.03.02z" class="AT"/><path d="M20.26 10.24h0l.18.19.02-.11-.17-.11-.04.03h.01 0 0l.03-.02.16.11-.02.07-.16-.17-.01.01h0 0z" class="AU"/><path d="M20.31,10.19a.07.07,0,0,1-.07.07.07.07,0,0,1,0-.15.07.07,0,0,1,.07.07" class="AT"/><g class="AU"><path d="M20.31 10.19h0a.07.07 0 1 1-.07-.07.07.07 0 0 1 .07.07h0a.08.08 0 1 0-.16 0 .08.08 0 1 0 .16 0zm.02.05a0 0 0 0 0 0 0h0 0 0z"/><path d="M20.31 10.18s0 .08-.09.07a.07.07 0 0 1 0-.09h0v.06h0 0 0 0z"/></g><path d="M20.72 10.34l-.27.08.03-.09.23-.02.01.03z" class="AT"/><path d="M20.72 10.34h0l-.26.07.02-.07.22-.02.02.02h0 0 0 .01l-.02-.04-.24.02-.03.11.29-.08v-.01h-.01z" class="AU"/><path d="M20.84,10.3a.07.07,0,0,1-.07.07.07.07,0,1,1,.07-.07" class="AT"/><g class="AU"><path d="M20.84 10.3h0a.07.07 0 1 1-.14 0 .07.07 0 1 1 .14 0h0a.08.08 0 1 0-.16 0 .08.08 0 1 0 .16 0z"/><path d="M20.83 10.28s0 .08-.07.08a.07.07 0 0 1-.05-.07h0 0 0 0 0v-.07z"/><path d="M20.65 10.32a0 0 0 0 1 0 0h-.07.15 0z"/></g><path d="M19.82 11.67l-.17-.26.03-.01.19.22-.05.05z" class="AT"/><path d="M19.82 11.67v-.01l-.16-.24.02-.01.18.21-.05.04.01.01v-.01.01h0l.06-.05-.2-.23-.04.02.18.27v-.01h0z" class="AU"/><path d="M19.64,11.28a.08.08,0,1,1-.08.08.08.08,0,0,1,.08-.08" class="AT"/><g class="AU"><path d="M19.71 11.35h0a.07.07 0 1 1-.14 0 .07.07 0 1 1 .14 0h0a.08.08 0 0 0-.16 0 .08.08 0 1 0 .16 0z"/><path d="M19.76 11.49a0 0 0 0 0 0 0 .28.28 0 0 0 0 0l-.08-.13h0z"/><path d="M19.71 11.37a.09.09 0 0 1-.1 0s-.06-.08 0-.11h0v.07h0 .07 0s0-.06 0 0"/></g><path d="M19.83 11.67l.21.04.01-.02-.18-.07-.04.05z" class="AT"/><path d="M19.83 11.67v.01l.21.04.01-.04-.18-.07-.05.07h.01v-.01.01l.04-.06.17.07-.01.01-.2-.03h0v.01-.01z" class="AU"/><path d="M20.17,11.71a.07.07,0,0,1-.07.08.08.08,0,1,1,.07-.08" class="AT"/><g class="AU"><path d="M20.17 11.71h0a.07.07 0 1 1-.14 0 .07.07 0 1 1 .14 0h0a.08.08 0 0 0-.16 0 .08.08 0 0 0 .16 0z"/><path d="M20 11.67h-.09.14 0zm.17.03a.06.06 0 0 1-.08.08.07.07 0 0 1 0-.1v.07h0 .07 0 0z"/></g><path d="M21 9.74c0 .2-.21.3-.32.38a.59.59 0 0 0-.15.17v.12.08h0a.34.34 0 0 1 0 .11v.22l.14-.1h.1 0a.76.76 0 0 0-.16.23c0 .12-.13.38-.28.46s-.25 0-.3.09l-.05.06-.06.09-.05.07h0 0a.48.48 0 0 1 0 .09v.13h.07.07a.22.22 0 0 0 0 .07.45.45 0 0 1-.19.37 1.71 1.71 0 0 1-.7.11h-.09l-.09.07-.08.09h0a.69.69 0 0 1-.11.1l-.15.1h.12l.18.08a.57.57 0 0 0-.19 0 2.13 2.13 0 0 1-.6.22c-.17 0-.41-.25-.41-.25l-.11-.08h-.18H17v-.07a1 1 0 0 1 .2 0c.11 0 .14 0 .23.06a.35.35 0 0 0 .19 0l.31-.25.31-.11h.12.1l-.05.06-.07.05h0 .19.06 0a.17.17 0 0 1 0-.07 1 1 0 0 1 .18-.15l.08-.05.08-.18v-.08l.21-.21.15-.16.06-.18h0a.22.22 0 0 1 0 .16.35.35 0 0 1 0 .14 2.22 2.22 0 0 1 .22-.13.25.25 0 0 1 .12 0 .32.32 0 0 0 .11-.1c0-.06.05-.08.05-.11v-.14-.37l.13-.28.18-.16h0a.25.25 0 0 0 0 .07v.07a.72.72 0 0 1 .14-.15h0a.36.36 0 0 0 0-.1.91.91 0 0 0 0-.16v-.16-.12l-.09-.23v-.3l-.06-.09s.06 0 .13.1a.72.72 0 0 1 .1.26l.17-.53a.63.63 0 0 1 .08.17 1.32 1.32 0 0 1 0 .18l.07-.15a.17.17 0 0 0 0 .05.45.45 0 0 1 .1.31m-3.53 3.41s0-.08-.2-.16a1 1 0 0 0-.29-.1V13l.26.12.13.11z" fill="#99a069"/><path d="M18.64 12.65a1.23 1.23 0 0 1 .23-.19.51.51 0 0 1 .17 0 .72.72 0 0 0 .35-.13 1 1 0 0 0 .31-.33.3.3 0 0 1 .13 0l-.18.2a1.53 1.53 0 0 1-.3.24.93.93 0 0 1-.4.09.39.39 0 0 0-.21.11.74.74 0 0 0-.11.12.06.06 0 0 1 0 0m.63-.67a1.12 1.12 0 0 0-.28.37l.29-.26c.1-.09.23-.14.29-.19s.06-.1.1-.14l.07-.05s-.09-.07-.47.27m-.45.45a.25.25 0 0 0 .13-.12.88.88 0 0 1 .05-.15l.3-.31a.29.29 0 0 0 .08-.3.19.19 0 0 1 0 .14c-.06.07-.35.27-.38.38a1.14 1.14 0 0 0 0 .18c0 .14-.1.17-.1.17m-.15.55a.43.43 0 0 0-.23-.07c-.25 0-.47.17-.64.18s-.23-.08-.36-.17a1.08 1.08 0 0 0-.48-.08h0a1.87 1.87 0 0 1 .33 0c.19.05.3.25.51.24s.51-.19.63-.19h.24m-1.26-.13a.51.51 0 0 0 .35-.08 1.44 1.44 0 0 1 .44-.27.87.87 0 0 1 .21 0 .63.63 0 0 0-.23-.05.59.59 0 0 0-.3.07c-.1.06-.14.16-.25.23a.66.66 0 0 1-.22.09m0 .26h-.07a1.17 1.17 0 0 0-.15-.11 1 1 0 0 0-.21-.07l.2.08a.47.47 0 0 1 .14.11.08.08 0 0 0 .08 0h.06-.06m.14-.19a.42.42 0 0 0 .21 0c.28 0 .45-.19.63-.26a.31.31 0 0 1 .27 0 .38.38 0 0 0-.2-.06 1.85 1.85 0 0 0-.71.25.91.91 0 0 1-.2.06m2.93-2.09a5.34 5.34 0 0 0-.29.49c-.06.08-.14.11-.17.14l-.17.22h-.05c-.05 0 0 0 0 0l.08-.08a1 1 0 0 1 .12-.14 2.29 2.29 0 0 0 .27-.22c.07-.08.2-.39.27-.47a.66.66 0 0 1 .21-.13s-.1 0-.27.14m-.47.58a.22.22 0 0 1 .06-.13c.07-.08.09-.07.15-.19s.08-.23.12-.36a1.47 1.47 0 0 1 .12-.25.24.24 0 0 0-.14.11A1.8 1.8 0 0 0 20 11a1.32 1.32 0 0 0-.06.38m-.09.12v-.17a1.76 1.76 0 0 1 0-.48 2.34 2.34 0 0 1 .28-.36.68.68 0 0 0-.23.13.44.44 0 0 0-.19.35c0 .1.06.22.07.32s0 .2 0 .2m.55-1.06l.08-.26a.57.57 0 0 1 .14-.21.55.55 0 0 0 .16-.23 2.46 2.46 0 0 0 0-.4.25.25 0 0 0-.06.08 2.48 2.48 0 0 1 0 .33 2.25 2.25 0 0 1-.19.34 1.72 1.72 0 0 1 0-.3 1.57 1.57 0 0 1 .09-.3 2.1 2.1 0 0 0 0-.35.65.65 0 0 0-.12.18 1.24 1.24 0 0 0-.06.4 2.28 2.28 0 0 0 0 .31.35.35 0 0 1 0 .19.45.45 0 0 0 0 .1v.14zm-.18-1.13a.29.29 0 0 1 .06.19.74.74 0 0 0 0 .34c0 .11.1.12.11.18a1.05 1.05 0 0 1 0 .18 1 1 0 0 0 0-.29c0-.06 0 0-.07-.1s0-.24 0-.35a.24.24 0 0 0-.1-.15" fill="#707837"/><path d="M14.93 12.25a.06.06 0 0 1-.06.06v-.07a.06.06 0 0 1 0-.06.07.07 0 0 1 .06.07" class="AT"/><path d="M14.93 12.25h0a.06.06 0 0 1 0 0h0 0a.09.09 0 0 1 0-.09h0 0a.07.07 0 0 1 0 0h0a.07.07 0 0 0 0 0h0 0a.07.07 0 0 0 0 0 .08.08 0 0 0 0 .05h0a.07.07 0 0 0 .06-.07h0z" class="AU"/><path d="M14.93 12.37l.04.27-.06-.03-.02-.23.04-.01z" class="AT"/><path d="M14.93 12.37h-.01l.04.26-.04-.02-.03-.22.04-.01v-.01h-.01.01-.01l-.04.01.02.24.08.03-.05-.29-.01.01h.01z" class="AU"/><path d="M15,12.28s0,.1-.08.11-.12,0-.12-.06.08,0,.1,0,.07-.06.1,0" class="AT"/><g class="AU"><path d="M15 12.28h0a0 0 0 0 1 0 0 .07.07 0 0 1 0 0h-.06 0-.06a.05.05 0 0 1 0 0h0a0 0 0 0 1 0 0h.09 0H15h0 0 0-.09a0 0 0 0 0 0 0h0a.06.06 0 0 0 0 .05h.06 0 .06a.08.08 0 0 0 0-.06 0 0 0 0 0 0 0z"/><path d="M15 12.29s0 .07-.07.1-.09 0-.11 0a.07.07 0 0 1 0 0h0 0 0 .09 0 0 0 0 0z"/><path d="M14.93 12.42h0a.14.14 0 0 0 0 0v-.07h0z"/></g><path d="M14.61,12.68s0,.06-.08.06-.08,0-.08-.06,0-.06.08-.06.08,0,.08.06" class="AT"/><path d="M14.61 12.68h0a0 0 0 0 1 0 0h-.06-.05a0 0 0 0 1 0 0 0 0 0 0 1 0 0h.11a0 0 0 0 1 0 0h0a.06.06 0 0 0 0 0h-.06-.06a.06.06 0 0 0 0 .1h.06.06a.06.06 0 0 0 0 0z" class="AU"/><path d="M14.66 12.67l.26-.01-.05-.05-.2.02-.01.04z" class="AT"/><path d="M14.66 12.67v.01l.27-.01-.05-.07-.22.03v.05h0v-.01h.01v-.03l.2-.02.03.03-.24.02h0 .01-.01z" class="AU"/><path d="M14.69 12.64v.14c0-.01-.06-.07-.06-.1s-.05-.09 0-.13.1 0 .12.08" class="AT"/><g class="AU"><path d="M14.69 12.64h0a.27.27 0 0 1 0 .07.1.1 0 0 1 0 0h0 0a.07.07 0 0 1 0 0 .22.22 0 0 0 0 0v-.08a0 0 0 0 1 0 0h0 0a.2.2 0 0 1 0 .07h0a.18.18 0 0 0 0-.07.08.08 0 0 0-.06 0h0a.06.06 0 0 0 0 0v.09.06h0 0 0a0 0 0 0 0 0 0 .1.1 0 0 0 0-.05.24.24 0 0 0 0-.07z"/><path d="M14.73 12.63a0 0 0 0 0 0 0h.05-.1 0zm-.03.06h0 0s0 .05-.05 0a.06.06 0 0 1-.05-.05.06.06 0 0 0 0 0h0v.05h0 .06v-.08z"/><path d="M14.45 12.68a.06.06 0 0 0 .06 0h.06 0-.12 0z"/></g><path d="M13.86 11.19v.08.08-.16" class="AT"/><path d="M13.91 11.27h0a.08.08 0 0 1 0 0h0 0a.09.09 0 0 1 0-.1h0 0a.08.08 0 0 1 0 0h0a.1.1 0 0 0 0-.06 0 0 0 0 0 0 0 0 0 0 0 0 0 0 .1.1 0 0 0 0 .11 0 0 0 0 0 0 0 0 0 0 0 0 0 0 .1.1 0 0 0 0-.06z" class="AU"/><path d="M13.87 11.43v.25l-.06-.06v-.19h.06z" class="AT"/><path d="M13.87 11.43h-.01v.23l-.05-.04.01-.19.04.01.01-.01h-.01.01 0l-.07-.01v.2l.08.07-.01-.26h0 0z" class="AU"/><path d="M14 11.36c0 .06-.07.09-.13.08s-.1 0-.09-.09.08 0 .1 0h.11" class="AT"/><g class="AU"><path d="M14 11.36h0a.06.06 0 0 1 0 0h-.07 0-.06a.06.06 0 0 1 0 0h0a0 0 0 0 1 0 0h.17 0 0a.06.06 0 0 0 0 0h-.19a0 0 0 0 0 0 0h0a.07.07 0 0 0 0 .06h.07 0H14a.06.06 0 0 0 0-.06h0z"/><path d="M14 11.35a0 0 0 0 1 0 0 .1.1 0 0 1-.09.05.1.1 0 0 1-.1 0 .11.11 0 0 1 0 0h0 0 .06.05.05 0 0z"/><path d="M13.86 11.47h0 0v-.07h.05z"/></g><path d="M13.52 11.65h-.08-.08.16" class="AT"/><path d="M13.52 11.65h0a.11.11 0 0 1-.07 0h-.07.07.09 0a.12.12 0 0 0-.08 0h-.08 0a.11.11 0 0 0 .08 0h.08 0z" class="AU"/><path d="M13.59 11.65l.19-.02.08.07-.28-.01.01-.04z" class="AT"/><path d="M13.59 11.65h0l.19-.01.06.05-.25-.01v-.03h0 0 0-.01v.04l.3.02-.1-.08-.2.01v.01h.01z" class="AU"/><path d="M13.52 11.54a.1.1 0 0 1 .08.12c0 .06-.06.11-.1.1a0 0 0 0 1 0-.06v-.13" class="AT"/><g class="AU"><path d="M13.52 11.54h0 .05a.11.11 0 0 1 0 .07h0a.11.11 0 0 1-.09.1h0 0a0 0 0 0 1 0 0h0 0 0v-.06h0 0 0 0 0v.06h0 0 0a.06.06 0 0 0 0 0h0 0a.12.12 0 0 0 .1-.11h0a.13.13 0 0 0 0-.08.08.08 0 0 0-.06 0z"/><path d="M13.62 11.65h0 .16-.21 0z"/><path d="M13.59 11.65h0s0 .08-.08.07 0 0 0 0h0 .08 0v-.08z"/><path d="M13.48 11.66h-.08 0 .1z"/></g><path d="M13.36,10.06s-.06.06-.08,0,0-.06,0-.09.05-.05.08,0,0,.05,0,.09" class="AT"/><path d="M13.36 10.06h0 0 0a0 0 0 0 1 0 0 .12.12 0 0 1 0-.06.08.08 0 0 1 .06 0h0a0 0 0 0 1 0 0 .09.09 0 0 1 0 0h0a.09.09 0 0 0 0-.05 0 0 0 0 0 0 0h0a.09.09 0 0 0-.07 0 .17.17 0 0 0 0 .07 0 0 0 0 0 0 0h0 0 0z" class="AU"/><path d="M13.15 10.44l.1-.25-.01-.01-.12.18.03.08z" class="AT"/><path d="M13.15 10.44v.01l.11-.26-.02-.02-.13.18.04.11v-.01-.01h0l-.02-.08.11-.17h.01l-.11.25h.01 0 0z" class="AU"/><path d="M13.24 10.19c-.05 0-.07-.08 0-.12s.06 0 .06 0h0 .07c.02 0 0 .07 0 .07a.12.12 0 0 1-.12 0" class="AT"/><g class="AU"><path d="M13.24 10.19h0a.1.1 0 0 1-.05-.08.07.07 0 0 1 0 0h0 0 0 0a.07.07 0 0 1 0 0 0 0 0 0 1 0 0h.11-.06 0 .07.06a0 0 0 0 0 0 0 .07.07 0 0 0 0 0h0 0 0 0 0a0 0 0 0 0 0 0 .08.08 0 0 0 0 0 .11.11 0 0 0 .06.09z"/><path d="M13.37 10.14a0 0 0 0 1 0 0 .1.1 0 0 1-.09 0l-.08-.07h0 0 .05 0 0 0zm-.16.07a.09.09 0 0 1 0 0 .31.31 0 0 1 0 .06v-.1h0z"/></g><path d="M12.79,10.16s.06.06,0,.08-.05,0-.09,0-.06-.06,0-.08.05,0,.09,0" class="AT"/><path d="M12.79 10.16h0a.08.08 0 0 1 0 .06h0 0-.05a.08.08 0 0 1 0-.06h0 0 .06-.06a0 0 0 0 0 0 0h0a.09.09 0 0 0 .05.07h.06a.05.05 0 0 0 0 0h0a.1.1 0 0 0-.05-.07z" class="AU"/><path d="M12.9 10.27l.2.12-.01.09-.21-.19.02-.02z" class="AT"/><path d="M12.9 10.27v.01l.19.11v.08l-.2-.18.02-.02h-.01v.01-.01-.01l-.03.04.23.19.01-.11-.21-.12h0v.01z" class="AU"/><path d="M12.9 10.29s-.09.06-.12 0 0-.06 0-.06a.15.15 0 0 0 0 0v-.07a0 0 0 0 1 .07 0 .14.14 0 0 1 0 .12" class="AT"/><g class="AU"><path d="M12.9 10.29h0a.1.1 0 0 1-.08 0h0a0 0 0 0 1 0 0h0 0 0a.07.07 0 0 0 0 0 0 0 0 0 1 0 0h0a0 0 0 0 1 0 0 .19.19 0 0 1 0 0 .11.11 0 0 1 0 .07h0a.13.13 0 0 0 0-.08.1.1 0 0 0 0 0 0 0 0 0 0 0 0h0a.07.07 0 0 0 0 0 .09.09 0 0 1 0 0h0 0a.06.06 0 0 0 0 0 0 0 0 0 0 0 0h0a.11.11 0 0 0 .09 0z"/><path d="M12.93 10.29a1.26 1.26 0 0 0 .13.14l-.18-.15h0z"/><path d="M12.87 10.31h0-.06a0 0 0 0 1 0 0h0 0 .06 0zm-.07-.08h0a.2.2 0 0 1-.07 0h0 .06z"/></g><g fill="#99a069"><path d="M16.08 13.14s0-.06.16-.13a1.65 1.65 0 0 1 .38-.15v.09h-.14l-.11.07-.13.08z"/><path d="M16.45 12.76a1.09 1.09 0 0 0-.32.06h-.06a.26.26 0 0 1-.08-.08h0v.13l-.27-.23v.15.07l-.26-.25v.19h-.07l-.19-.13h-.06l.06.11h-.24 0l-.05.06H15v.06s.14-.09.22-.05-.11.1-.09.16.17 0 .2 0 .15-.16.19-.11-.13.13-.1.2.14.05.19 0 .18-.22.2-.18-.1.14-.07.19.12 0 .18 0S16 13 16 13h.09c.02 0 .08-.06.08-.06l.18-.08h.09 0 .09v-.08a.52.52 0 0 0-.18 0m-1.44 0v-.07h0a.68.68 0 0 1-.12-.09.33.33 0 0 0-.11-.09l-.12-.07v-.15h0-.07l-.09-.32v-.06h0l-.07.19-.08-.12v-.26l-.05.06-.07.07-.13-.31a.45.45 0 0 0 0 .14l-.16-.12a.7.7 0 0 1-.15-.16l-.06-.13.05-.11v-.13h-.12v-.3-.1l-.14.2-.05-.08v-.19h0l-.06.11a.82.82 0 0 0-.08-.13.69.69 0 0 0 0-.24.55.55 0 0 1-.06-.25v-.13c0-.04-.06 0 0 0s.2-.17.16-.23-.21.1-.17 0 .21-.11.22-.25-.16.06-.17 0 .1-.14.1-.2v-.1c0-.03-.13.12-.13.12h-.11v.16.13l-.14-.08v.16.16h-.14l.07.13.1.1.06.08h0l.06.06v.09.1.3h-.09c-.02 0 .08.11.06.12s-.16 0-.17 0a.12.12 0 0 0 .1.13c.08 0 .28.06.25.1S13 10.9 13 11a.2.2 0 0 0 .14.18h.25c-.02 0-.17 0-.19.06s.11.08.14.08a.3.3 0 0 1 .15 0l.23.22.24.18h0-.14c-.02 0 .32.16.22.2s-.2-.1-.23 0 .06.16.12.19.35 0 .29.07-.27 0-.28 0 .14.21.22.2.16-.12.19-.06-.06.09 0 .11.12-.07.21-.06a.7.7 0 0 1 .29.14l.15.15"/></g><path d="M16.17 13.1h.06a1.61 1.61 0 0 1 .17-.12.87.87 0 0 1 .2-.07h0a.84.84 0 0 0-.22.09l-.16.11h-.09-.07.09m.45-.22a.11.11 0 0 1-.07 0 .22.22 0 0 0-.13 0 .33.33 0 0 0-.21.09.24.24 0 0 1-.08.07s.06 0 .1-.06a.38.38 0 0 1 .19-.07.15.15 0 0 1 .11 0 .16.16 0 0 0 .08 0zm-2.6-1.1l-.12-.06c-.09-.05-.27-.2-.27-.2l.15.14a2 2 0 0 0 .21.15h0m1.87 1.32l.08-.11a.42.42 0 0 1 .1-.11v-.08a.14.14 0 0 1 0-.06.26.26 0 0 0 .05.07h.06.07a0 0 0 0 0 0 0h-.06c-.06 0-.09-.13-.13-.13s0 .11 0 .11-.11-.23-.26-.24-.12 0-.13 0 .13.16.08.18-.18-.22-.29-.22-.11 0-.1.06.11 0 .09.12-.13-.11-.22-.1-.1 0-.11 0 0 .07 0 .08a.43.43 0 0 0-.12 0 .81.81 0 0 0-.11.12.25.25 0 0 1 .15-.1 2.61 2.61 0 0 1 .29 0h-.06a.35.35 0 0 1-.06-.08l.09.08.1.06h.09v.07l-.09.09.1-.08.08-.06h.07v-.09l-.08-.13a.93.93 0 0 1 .11.12c.05.07 0 .1.07.11h.07v.09a.64.64 0 0 0-.06.13.76.76 0 0 1 .08-.1s.06-.09.08-.1h.08v-.09a.46.46 0 0 1 0-.14.49.49 0 0 0 .07.13c0 .06.06.1.07.1h.08v.1.11m-1.13-.65h.09a.28.28 0 0 1-.11-.12v-.23s-.06.12-.09.09 0-.23 0-.32-.14-.15-.16-.12 0 .22-.08.18 0-.21 0-.28-.06-.13-.1-.11 0 .16 0 .16 0-.1-.07-.11 0 0 0 0v-.08.09.09s.06 0 .05.06 0 0-.05 0h-.09.09.09l.08.11a.63.63 0 0 0 0-.12 1 1 0 0 0 0-.14.74.74 0 0 1 0 .14v.15s.06 0 0 .06a.38.38 0 0 1-.15 0h-.17l.15.05h.2l.09.11a.43.43 0 0 0 0-.16 1 1 0 0 0 0-.16.84.84 0 0 1 0 .15.62.62 0 0 1 0 .2.3.3 0 0 1-.1 0h-.19a.63.63 0 0 0 .2 0h.11 0 .07-.06-.08.12.06 0a.44.44 0 0 0 0-.06v-.1a.27.27 0 0 1 0 .08.47.47 0 0 1 0 .08h.07m-1.63-1.87a1.07 1.07 0 0 0 0-.19.74.74 0 0 0-.08-.28h0L13 10h-.06-.06a.13.13 0 0 1 0 0h.06 0v-.1l-.1-.05a.84.84 0 0 1-.13-.1l.15.08h.08.08l.09-.06h-.09-.08v-.12l-.06-.06a.76.76 0 0 1-.08-.15.59.59 0 0 0 .09.09l.07.07.04.04.15-.11-.15.07h-.09a.15.15 0 0 1 0-.08v-.09c0-.03 0 0 0 0a.72.72 0 0 1 0-.14.44.44 0 0 1 0 .06v.05a.78.78 0 0 0 .19-.17v-.07c0 .03-.06.09-.12.09s0-.08-.06-.06a.23.23 0 0 0-.08.12v.17c0 .03-.06-.09-.12-.08s-.07.1-.07.13.14.19.1.21-.15-.13-.2 0 .18.21.21.23 0 0 0 .08.09.06.12.1a.67.67 0 0 1 .11.3 1 1 0 0 1 0 .14m.61.9a.21.21 0 0 1 0-.17c0-.11.09-.3.07-.33s-.11.12-.13.08 0-.22 0-.3 0-.13-.11-.12-.1.23-.13.19 0-.14 0-.19 0-.07-.07-.06 0 .11-.07.11-.06-.12-.11-.11.12.24.12.24a.22.22 0 0 0 0-.06v-.08a.25.25 0 0 1 0 .1.63.63 0 0 0 0 .09.23.23 0 0 1-.11 0 .43.43 0 0 1-.12 0 .34.34 0 0 0 .11 0h.14v.06l.06.07a.79.79 0 0 0 0-.11 1.85 1.85 0 0 1 .07-.18 2 2 0 0 1 0 .2v.16h-.14-.19l.19.06h.15l.07.1v-.08a.41.41 0 0 0 .05-.1.68.68 0 0 1 0 .12v.07h-.22.13.1a.25.25 0 0 0 0 .07.23.23 0 0 0 .07.07" fill="#707837"/><path d="M16.49 13.45a.32.32 0 0 0-.08-.06h-.06 0v-.1l.29-.28v-.28h.18v.38h.05l.33.2v.08h0 0-.12l-.21-.15-.09-.09-.16.2z" class="Aa"/><g fill="#2c694a"><path d="M16.72 12.71v.06a2.47 2.47 0 0 1 0 .3s-.17.09-.26.17a.25.25 0 0 0-.09.14h-.08a.18.18 0 0 0-.08 0 .58.58 0 0 1 .18-.27 2.2 2.2 0 0 1 .21-.11 2.17 2.17 0 0 0 0-.29h.08"/><path d="M17.09 13.53a.28.28 0 0 1 0-.06h.05-.08c-.08 0-.12 0-.18-.06a.79.79 0 0 1-.11-.11l-.07.07a.87.87 0 0 0 .09.11l.18.08.08.06"/></g><g fill="#bb1033"><path d="M16.86 12.71h.1a0 0 0 0 1 0 0A1.73 1.73 0 0 1 17 13a.43.43 0 0 1-.07.16l-.21.19a1.61 1.61 0 0 0-.12.15h0a.52.52 0 0 1 .17-.18.41.41 0 0 0 .21-.25 1.35 1.35 0 0 0 0-.28"/><path d="M17.44,13.4a.16.16,0,0,0-.09,0h-.08a.43.43,0,0,0-.1-.09c-.06,0-.11,0-.18-.08a.37.37,0,0,1-.11-.11l.05-.11a.71.71,0,0,0,.12.13c.06,0,.2.09.24.13l.15.15"/></g><path d="M18.09 12.17s-.19-.07-.17-.14.43-.18.43-.18v-.11a.51.51 0 0 0-.17 0 1.45 1.45 0 0 1-.45.08.73.73 0 0 1-.2 0L16 11.74h-.08c-.19 0-.32-.31-.32-.31h-.09v.16a3.33 3.33 0 0 1-.73-.31v.13s.39.21.38.29-.13.07-.13.07v.09s.64 0 .65.22-.15.12-.15.12l.05.06h0a1.54 1.54 0 0 1 .44.06c.1.05.14.13.26.2a3.49 3.49 0 0 0 1 0c.14 0 .22-.2.45-.27a1.42 1.42 0 0 1 .3-.07z" fill="#60c0d9"/><path d="M18.09 12.17h0H18h0 0 0 0l.23-.09h.11.05v-.13h0a.51.51 0 0 0-.16 0 1.5 1.5 0 0 1-.45.08.71.71 0 0 1-.2 0h-.09l-.82-.05h-.42-.28a.24.24 0 0 1-.12-.05.56.56 0 0 1-.13-.16v-.07h0 0-.12 0 0a.52.52 0 0 1 0 .08.15.15 0 0 1 0 0h-.08a3.41 3.41 0 0 1-.4-.17l-.18-.09h-.07 0v.17h0l.2.13.11.08h0 0 0a.05.05 0 0 1 0 0h0H15l.06.12h0a2.16 2.16 0 0 1 .35 0 .66.66 0 0 1 .18.06h.06a.08.08 0 0 1 0 0h0a.05.05 0 0 1 0 0h-.08-.07l.06.08h0 .27.1.07l.12.09a.85.85 0 0 0 .14.11h.08a2.81 2.81 0 0 0 .44 0h.52a.61.61 0 0 0 .2-.12.75.75 0 0 1 .25-.14l.24-.06h.07v-.09h0v.07h0a1.47 1.47 0 0 0-.3.07.77.77 0 0 0-.26.14.57.57 0 0 1-.19.12h-.07-.45-.44-.07a.89.89 0 0 1-.14-.1.68.68 0 0 0-.12-.09h-.11a2.45 2.45 0 0 0-.33 0h0 0 0l-.05-.07h0 .08.05a.07.07 0 0 0 0-.06h0a.11.11 0 0 0 0-.07.37.37 0 0 0-.15-.08 1.87 1.87 0 0 0-.3-.06H15v-.09h.06 0a.08.08 0 0 0 0 0h0a.1.1 0 0 0 0 0l-.06-.15a2.61 2.61 0 0 0-.27-.17h0v-.14h0l.31.16.24.11h.1.09 0 0a.14.14 0 0 0 0 0 .43.43 0 0 0 0-.08h0 0 .09 0a.77.77 0 0 0 .09.15.57.57 0 0 0 .1.11.29.29 0 0 0 .14.06h.16.83.42.19a.7.7 0 0 0 .2 0 1.49 1.49 0 0 0 .46-.08h.16 0v.11h0l-.21.06-.1.13h-.05 0 0 0a.06.06 0 0 0 0 0h0l.13.07z" class="Aq"/><path d="M15,11.87a.11.11,0,1,1-.11-.11.11.11,0,0,1,.11.11" class="Aa"/><path d="M15,11.87h0a.08.08,0,1,1-.16,0,.08.08,0,0,1,.16,0h.05a.13.13,0,1,0-.13.14.14.14,0,0,0,.13-.14Z" class="Aq"/><path d="M15.66,11.36a.11.11,0,1,1-.22,0,.11.11,0,0,1,.22,0" class="Aa"/><path d="M15.66 11.36h0a.08.08 0 0 1-.08.09.08.08 0 0 1-.08-.09.08.08 0 1 1 .16 0h.05a.14.14 0 1 0-.27 0 .14.14 0 1 0 .27 0z" class="Aq"/><path d="M18.29,12.18a.11.11,0,0,1-.11.11.11.11,0,0,1,0-.23.11.11,0,0,1,.11.11" class="Aa"/><path d="M18.29,12.18h0a.09.09,0,0,1-.08.09.09.09,0,1,1,.08-.09h.06a.14.14,0,1,0-.14.14.14.14,0,0,0,.14-.14Z" class="Aq"/><path d="M14.43,11.19c0,.08.11.24.21.26s.15,0,.17-.06a.15.15,0,0,0,0-.13c-.06-.09-.32-.15-.36-.07" class="AS"/><path d="M14.74 11.32s-.08-.1-.14-.1h-.1s.14.06.15.08 0 0 0 .05.05 0 .07 0 0 0 0-.05" class="Aa"/><path d="M15.61,12.27c0,.07,0,.11-.11.14a.25.25,0,0,1-.26,0c0-.06.06-.15.14-.17s.2,0,.22.08" class="AS"/><path d="M15.46,12.31s0,0,.06,0,0,0,0-.07a.11.11,0,0,0-.1-.06s-.16.11-.15.13,0,0,.06,0,.05,0,.08-.05" class="Aa"/><path d="M18.31,11.89c.07.09.19,0,.22,0s.13-.09.09-.15a.16.16,0,0,0-.15,0,.29.29,0,0,0-.15.1.13.13,0,0,0,0,.13" class="AS"/><path d="M18.33 11.83a.11.11 0 0 1 .1-.1h.09.05s0 .07-.06.07h-.1c-.1 0-.08.06-.08.06" class="Aa"/><path d="M16.88 11.64h0-.38l.18.52.21.31h.08.16v-.08l-.06-.5z" class="Ai"/><path d="M16.88 11.64h0 0-.35l.18.52h0l.21.31h0H17h.18v-.08h0l-.06-.5h0l-.23-.24h0l.23.24.06.49v.07H17h-.07l-.21-.3-.18-.51h.31 0z" class="Aj"/><path d="M16.29 11.67v-.06h.21a1.17 1.17 0 0 1 .17.24c0 .09.09.25.14.35s.17.25.17.25h-.21-.09l-.3-.47z" class="Ai"/><path d="M16.29 11.67h0v-.06h.19a1.19 1.19 0 0 1 .15.23l.07.17a1.22 1.22 0 0 0 .08.18 2.32 2.32 0 0 0 .17.26h-.2-.09l-.3-.46-.08-.29h0l.08.3h0l.3.47h0 .09.25a0 0 0 0 0 0 0h0l-.15-.23a1.11 1.11 0 0 1-.07-.17l-.07-.17a1.08 1.08 0 0 0-.1-.16v-.06h0-.24v.06h0z" class="Aj"/><path d="M16.16 11.61h.13a.75.75 0 0 1 .2.28 3.16 3.16 0 0 0 .1.32 1 1 0 0 0 .17.26 1.69 1.69 0 0 1-.32 0h-.18a.39.39 0 0 0-.09-.07h-.12v-.16-.36-.19z" class="Ai"/><path d="M16.16 11.61h.14a.73.73 0 0 1 .19.26 1 1 0 0 1 0 .16.67.67 0 0 0 .06.17 1 1 0 0 0 .17.26h-.31-.12-.05l-.06-.05h0-.11v-.14h0v-.36-.17h.1 0-.11 0v.19h0v.36.16h.13l.08.06h0 .16.34a0 0 0 0 0 0 0h0a1.12 1.12 0 0 1-.16-.25.64.64 0 0 1-.05-.16 1 1 0 0 0 0-.16.77.77 0 0 0-.12-.2l-.06-.06h0-.15z" class="Aj"/><path d="M17.39 11.71l-.19-.08h-.36v.19a1.61 1.61 0 0 0 .14.4l.15.26c.03.03.24-.06.24-.06h.14v-.15h0v-.42-.07z" class="Ai"/><path d="M17.39 11.71h0l-.2-.08h0-.36 0v.19a1.6 1.6 0 0 0 .14.41l.09.16v.06h0 .1l.16-.05h0 .14a0 0 0 0 0 0 0v-.15h0 0v-.42h0v-.06h0v.05.42h0 0v.13h-.12 0-.1-.09 0 0l-.15-.18a1.61 1.61 0 0 1-.13-.4v-.13-.06h0 .36l.19.08h0z" class="Aj"/><path d="M16.11 11.71a0 0 0 0 0 .06 0 .08.08 0 0 0 .06-.08.11.11 0 0 0-.12-.12c-.07 0-.13.09-.13.16s.07.1.07.12A.22.22 0 0 0 16 12a.31.31 0 0 0 .09.19s-.09.07-.09.14a.13.13 0 0 0 .13.12c.06 0 .15 0 .15-.1a.09.09 0 0 0-.09-.09h-.06" class="Ai"/><path d="M16.09 11.71a.05.05 0 0 0 0 0h0 0 0a.09.09 0 0 0 0-.07.12.12 0 0 0 0-.09.13.13 0 0 0-.09 0h0a.13.13 0 0 0-.1.06.2.2 0 0 0 0 .11.13.13 0 0 0 0 .09h0 0 0a.24.24 0 0 0 .1.19h0a.27.27 0 0 0 0 .14v.06h0 0a.18.18 0 0 0 0 .11.12.12 0 0 0 0 .1.15.15 0 0 0 .1 0 .21.21 0 0 0 .11 0h0a.08.08 0 0 0 0 0 .1.1 0 0 0 0-.07.1.1 0 0 0-.07 0h-.05a.05.05 0 0 0 0 0h0a0 0 0 0 1 0 0h0 .05a.07.07 0 0 1 0 .05h0-.05-.07a.14.14 0 0 1-.08 0 .1.1 0 0 1 0-.08.16.16 0 0 1 0-.09h0 0A.29.29 0 0 1 16 12h0a.22.22 0 0 1 0-.11h0 0 0 0a.09.09 0 0 1 0-.06.16.16 0 0 1 0-.09.1.1 0 0 1 .08 0h0a.11.11 0 0 1 .08 0 .1.1 0 0 1 0 .07.07.07 0 0 1 0 .05h-.07" class="Aj"/><path d="M17.45 11.74h-.06c-.06 0-.06 0-.06-.07s.08-.09.12-.09a.15.15 0 0 1 .13.14.2.2 0 0 1-.06.13v.12a.28.28 0 0 1-.06.17.15.15 0 0 1 .08.14.12.12 0 0 1-.12.14s-.13 0-.13-.1a.08.08 0 0 1 .08-.09.08.08 0 0 1 .07.08" class="Ai"/><g class="Aj"><path d="M17.44 11.74a.06.06 0 0 1 0 0h-.07a.06.06 0 0 1 0 0 .09.09 0 0 1 0 0h0 .09.05a.13.13 0 0 1 0 .07.18.18 0 0 1 0 .09h0 0v.1a.25.25 0 0 1 0 .12h0 0 0a.12.12 0 0 1 0 .09.12.12 0 0 1 0 .1.11.11 0 0 1-.07 0h-.08 0a.07.07 0 0 1 0 0 .08.08 0 0 1 0-.06h0 0a.08.08 0 0 1 0 0h0a.1.1 0 0 0 0-.06.07.07 0 0 0-.06 0 .08.08 0 0 0-.06 0 .12.12 0 0 0 0 .08.09.09 0 0 0 0 .05.14.14 0 0 0 .06 0h.07a.14.14 0 0 0 .09 0 .15.15 0 0 0 0-.12.17.17 0 0 0 0-.12h0 0a.28.28 0 0 0 .07-.18.25.25 0 0 0 0-.1h0 0 0a.18.18 0 0 0 0-.1.17.17 0 0 0 0-.11h0 0-.09 0a.08.08 0 0 0 0 0 .09.09 0 0 0 0 .07h0 0 0a.06.06 0 0 0 0 0h0"/><path d="M16.23 12.29h0a.23.23 0 0 0 0 .07 1.71 1.71 0 0 0 .48.05 2 2 0 0 0 .47 0c.06 0 .06-.09.1-.12h0 0v.07h0a.21.21 0 0 1-.12 0h-.8-.13 0 0z"/><path d="M17.28,11.67l.06,0s0,0-.09.12,0,.13,0,.15a2.86,2.86,0,0,1-.3,0l0-.12Z"/></g><g class="Ae"><path d="M18.17 11.63a.15.15 0 0 1-.07-.06v-.1c0-.01.05 0 0 .05s0 .1 0 .1m.61-.14a.31.31 0 0 0 0 .07h.07-.1a.38.38 0 0 1-.06-.08z"/><path d="M18.88 11.53a.11.11 0 0 1-.09 0s-.07 0-.06-.05 0 0 0 0a.22.22 0 0 0 .1 0m.32-.19a.13.13 0 0 1-.06 0h-.08.14m-.41-.55a.17.17 0 0 0-.08.05v.06a.39.39 0 0 1 0-.07m-.2.11a.21.21 0 0 0-.06.05v.08-.06a.6.6 0 0 1 0-.07"/></g><path d="M18 11.22l-.15.16a1.47 1.47 0 0 0 .61.18 1 1 0 0 0 .59-.26.54.54 0 0 0-.05-.3.57.57 0 0 0-.29-.2.77.77 0 0 0-.31.21c-.11.11-.1.2-.26.19H18" class="Ac"/><path d="M18 11.22h0l-.16.17h0l.2.09a1.15 1.15 0 0 0 .4.1h0a1 1 0 0 0 .39-.12l.14-.09h0 0 0a.29.29 0 0 0 0 0 .9.9 0 0 0 0-.12.34.34 0 0 0 0-.1L19 11l-.12-.1h-.07-.11a.33.33 0 0 0-.14.07l-.17.15a1.17 1.17 0 0 0-.11.14h0-.07.08a.22.22 0 0 0 .08-.08.57.57 0 0 1 .09-.11l.17-.14a.3.3 0 0 1 .13-.06h0 .06l.12.08.06.05h0a.31.31 0 0 1 0 .09.9.9 0 0 1 0 .12.22.22 0 0 1 0 0 0 0 0 0 1 0 0h0a.94.94 0 0 1-.22.14.92.92 0 0 1-.34.09h0a1.15 1.15 0 0 1-.39-.09l-.14-.06h0 0l.15-.16z" class="AZ"/><path d="M17.94 11.29s.37.05.48 0 .22-.28.3-.32a.26.26 0 0 1 .11 0l.08.06L19 11v.18.09l-.12.09-.21.1-.2.06h-.17l-.35-.1-.09-.06h0z" class="Am"/><g class="AZ"><path d="M18.5 11.07h.06s0 .08-.06.08 0 0 0-.08m.15.1h.06a.07.07 0 0 1 .07.07.06.06 0 0 1-.06.05s-.06 0-.06-.07m-.06.17h.06c.06 0 .05 0 .05.05a.07.07 0 0 1-.06.07v-.07"/><path d="M18.4 11.32h.06a.06.06 0 0 1 .06.07.06.06 0 0 1-.06.07s-.06-.05-.06-.09"/><path d="M18.09,11.36a.08.08,0,1,1,.08.08.08.08,0,0,1-.08-.08"/></g><g class="Ac"><path d="M18.65 11.17h.06a0 0 0 0 1 0 0 0 0 0 0 1 0 0h-.06m-.05.21h.06.06a.05.05 0 0 1-.06.05.05.05 0 0 1-.06-.05"/><path d="M18.4 11.31h.07c.02 0 0 0 0 .05v.06a.07.07 0 0 1-.05-.06m.08-.29v.05-.06"/><path d="M18.09,11.34a.07.07,0,0,1,.08-.07s.09,0,.09.05a.12.12,0,0,1-.1.09.07.07,0,0,1-.07-.08"/></g><g class="Ae"><path d="M18.23 11.28a.17.17 0 0 0-.08 0v.06l.05-.07m.28-.05l-.05.07c-.05.07 0 .05 0 .05v-.12m.09.05a.11.11 0 0 0-.05 0m.1-.27h0v.06c0 .06 0 0 0 0a.17.17 0 0 0 0-.06"/><path d="M18.76 11.11a.12.12 0 0 0-.06 0h0m.03.22a.09.09 0 0 1 0 0h.07"/></g><path d="M19 11.18a.15.15 0 0 1-.07.15 1.07 1.07 0 0 1-.57.21 1.64 1.64 0 0 1-.5-.16h0 .06l.18.08.21.06h.24l.21-.07.17-.09.09-.07h0v-.1z" class="AZ"/><path d="M14.42 9.85s.05 0 0 .09 0 .06 0 0v-.06a.29.29 0 0 0 0-.07m.4.41v.08a0 0 0 0 1 0 0h0m-.88-.02a.09.09 0 0 0 .05 0h0-.1m.21.31a.14.14 0 0 0 .08 0 .07.07 0 0 0 .07 0h-.15m.28.23h.08c.01 0 0-.05 0-.07a.25.25 0 0 1-.06.05" class="Ae"/><path d="M14.82,10.64a.65.65,0,0,0-.21-.55c-.26-.23-.43-.17-.52-.09a.41.41,0,0,0,.11.59.76.76,0,0,0,.61.16Z" class="Ac"/><path d="M14.82 10.64h0a.59.59 0 0 0 0-.06.65.65 0 0 0-.22-.49.53.53 0 0 0-.34-.16.27.27 0 0 0-.19.08.33.33 0 0 0-.08.23.49.49 0 0 0 .19.38.75.75 0 0 0 .5.18h.14v-.13h0v.12h-.11a.73.73 0 0 1-.48-.17.47.47 0 0 1-.19-.36.3.3 0 0 1 .06-.26.25.25 0 0 1 .17-.07.51.51 0 0 1 .32.16.63.63 0 0 1 .21.47h0z" class="AZ"/><path d="M14,10.3s0-.17.08-.23a.36.36,0,0,1,.49.16.67.67,0,0,1,.11.52h-.15l-.22-.09-.19-.14Z" class="Am"/><g class="AZ"><path d="M14.79 10.68a.18.18 0 0 1-.14 0 .78.78 0 0 1-.64-.51v.11.08l.09.13.11.1.14.08h.1.13.08z"/><path d="M14.56 10.57v.09m.02-.3a0 0 0 0 1 0 0 0 0 0 1 1 0 .09 0 0 0 0 1 0 0m-.2.14h.05.06-.09c-.03 0 0 0 0 0m-.03-.24h.06s0 .07-.06.07 0-.06 0-.09"/><path d="M14.18 10.39s0-.06.05-.06a.07.07 0 0 1 .07.06.05.05 0 0 1-.06 0 .06.06 0 0 1-.06 0m.04-.22h.05.06s0 .06-.07.06 0 0 0-.08"/><path d="M14.41 10.15h.06a.05.05 0 0 1 .06 0s0 .05-.07.05 0-.06 0-.08"/></g><g class="Ac"><path d="M14.22 10.17a0 0 0 0 1 0 0 0 0 0 0 1 0 0m-.04.21a0 0 0 0 1 0 0 .06.06 0 0 1 0 .06m.23-.28a0 0 0 0 1 0 0 0 0 0 0 1 0 0m-.04.2a0 0 0 0 0 0 .05.05.05 0 0 0 .06-.05.06.06 0 0 0-.06-.05.05.05 0 0 0 0 .05"/><path d="M14.59 10.33a0 0 0 0 0 .05 0 0 0 0 0 0 0 0 0 0 0 0 0 0 0 .05.05 0 0 0-.05 0m-.22.26a0 0 0 0 1 0 0 0 0 0 0 1 0 0s0 .05-.06.05 0 0 0 0m.25-.09h.05 0a.05.05 0 0 1-.05.05v-.05"/></g><g class="Ae"><path d="M14.61 10.23a.22.22 0 0 1 0 .06v.06a.33.33 0 0 1 0-.08m-.16-.22a.12.12 0 0 1 0 .05v.05a.4.4 0 0 1 0-.06m-.2-.01a.13.13 0 0 1 0 .06v.05a.38.38 0 0 1 0-.07m-.06 0h0v-.05"/><path d="M14.33 10.32a.12.12 0 0 1 .06 0h-.05m-.19-.01h.05m.39.14a.33.33 0 0 1 0 .07v.06-.06a.25.25 0 0 1 0-.07m-.05.07h0"/><path d="M14.35 10.53h0v.06-.06"/></g><path d="M14.27 9.94s-.17 0-.2.15a.92.92 0 0 0 0 .23v-.14-.09-.08h.08.07zm.54.65v-.18a2.75 2.75 0 0 0-.15-.31l.08.09.06.1v.09.09.11z" class="AZ"/><path d="M15 10.37s.06 0 .07.06 0 0 0 0a.4.4 0 0 1 0-.06m-.34.63a.19.19 0 0 1 .07-.07h.08c.01 0 0 0-.05 0h-.09m.41.28l.07-.05v-.06c0-.06 0 0-.06 0a.39.39 0 0 0 0 .08m-.06-.01a.24.24 0 0 1 0-.07h-.07" class="Ae"/><path d="M15.81,10.85a1,1,0,0,0-.67-.4.38.38,0,0,0-.42.37c0,.09.13.28.57.31s.51-.2.52-.22,0-.05,0-.05" class="Ac"/><path d="M15.81 10.85h0a1 1 0 0 0-.19-.19.83.83 0 0 0-.5-.21h0a.4.4 0 0 0-.32.14.47.47 0 0 0-.07.12.33.33 0 0 0 0 .1.06.06 0 0 0 0 0c0 .09.14.29.58.32h.08a.55.55 0 0 0 .36-.11.32.32 0 0 0 .05-.02h0 0a.11.11 0 0 0 0 0h0 0 0 0 0a.38.38 0 0 1-.11.12.58.58 0 0 1-.31.07h-.08c-.43 0-.55-.22-.56-.3h0a.3.3 0 0 1 0-.09.41.41 0 0 1 .12-.16.37.37 0 0 1 .24-.08h0a.82.82 0 0 1 .48.2l.13.13h0 0z" class="AZ"/><path d="M15.5 10.59a1 1 0 0 1 .16.15c0 .07.06.11 0 .12a2.59 2.59 0 0 0-.46-.26c-.19 0-.36 0-.4.09a.25.25 0 0 0 .06.29 2.55 2.55 0 0 0 .5.13h.2l.12-.07v-.07-.08h0l-.1-.11z" class="Am"/><path d="M15.17 10.64h-.05c-.05 0 0 0 0 0a0 0 0 0 1 0 0 .05.05 0 0 1 .05 0m-.24.09h.05a0 0 0 0 1 0 0s0 .06-.07 0a.07.07 0 0 1 0-.07m.28.21a.06.06 0 1 1 .12 0s0 .07-.08.07 0 0 0-.07" class="AZ"/><path d="M15 10.93h.05a.06.06 0 0 1 .06.05h-.06c-.06 0-.05.02-.05-.05" class="Ac"/><path d="M15.34 11a0 0 0 0 1 0 0 0 0 0 0 1 0 0 0 0 0 0 1 0 0m.15-.1a.05.05 0 0 1 .05 0h-.06c-.06 0 0 0 0-.06" class="AZ"/><path d="M15.15 10.62a0 0 0 0 1 0 0m-.15.1h-.06a0 0 0 0 1 0 0H15m.08.2h-.06m.27-.07h-.06c-.06 0 0 0 0-.06a0 0 0 0 1 0 0 .07.07 0 0 1 .06.05m.3.08h-.06a0 0 0 0 1 0 0h.06c.06 0 0 0 0 .07m-.18.01a0 0 0 0 1 0 0 0 0 0 0 1 0 0" class="Ac"/><g class="Ae"><path d="M15.44 10.88h.07 0-.07m-.18.12h.06-.07m-.1-.23s.07 0 .09.06 0 0 0 0l-.05-.08m-.06.12h.08-.09"/><path d="M15 10.87h.08a0 0 0 0 1 0 0h0v-.06m-.14.19a.1.1 0 0 1 0 0h.05 0-.06m-.03-.31a.12.12 0 0 1 .06 0 .11.11 0 0 1 0-.05m.04-.1a.18.18 0 0 1 .08 0v.05h0a.31.31 0 0 1 0-.07"/></g><g class="AZ"><path d="M15.74 11a.62.62 0 0 1-.41.1.75.75 0 0 1-.61-.26v.07l.06.08.2.1h.22.18.17l.13-.06h0z"/><path d="M15.77,10.84l-.11-.12c-.07-.06-.33-.23-.33-.23l.21.09.14.12.1.11Z"/></g><g class="Ae"><path d="M15.79 10.59a.3.3 0 0 1 .09 0h0 0v-.06m.12-.05a.26.26 0 0 1 .09.06v.06s-.05 0-.06-.05v-.07"/><path d="M16.06 10.46a.39.39 0 0 1 .07.07v.05c0 .05 0 0-.06 0v-.08m.36.05l.05.06a.17.17 0 0 1 0 .07h0a.08.08 0 0 0 0 0v-.06m.04-.04a.21.21 0 0 1 0 .07v-.07m-.64.79a.09.09 0 0 0 .06 0s.05 0 0-.05 0 0 0 0h0m.29.14a.14.14 0 0 0 .08 0v-.07a0 0 0 0 0-.06 0 .28.28 0 0 1 0 .08"/><path d="M16.52 11.47h.06v-.06c0-.06 0 0 0 0v.07m.03-.01a.33.33 0 0 0 0-.07v-.05a.05.05 0 0 0 0 0v.08"/></g><path d="M15.72 11c0-.13.19-.42.39-.42a1.19 1.19 0 0 1 .4.11c.12.05.15.11.23.13a.64.64 0 0 0 .19 0h.26l-.21.3-.07.06a.49.49 0 0 1-.25.2 1.29 1.29 0 0 1-.64 0 .39.39 0 0 1-.31-.34" class="Ac"/><path d="M15.72 11h0a.26.26 0 0 1 0-.11.58.58 0 0 1 .14-.2.3.3 0 0 1 .2-.09h0 .17l.22.08.13.08a.26.26 0 0 0 .11.05h.2.23l-.19.27-.07.07h0a.49.49 0 0 1-.24.19.66.66 0 0 1-.23 0 1.75 1.75 0 0 1-.4-.05.41.41 0 0 1-.2-.11.3.3 0 0 1-.1-.21h0a.32.32 0 0 0 .1.23.47.47 0 0 0 .21.12 1.89 1.89 0 0 0 .4.05.72.72 0 0 0 .24 0 .48.48 0 0 0 .26-.21h0l.1-.06.22-.32h-.29-.19a.28.28 0 0 1-.1 0l-.13-.08-.22-.08h-.18 0a.3.3 0 0 0-.16.05.58.58 0 0 0-.17.19.42.42 0 0 0-.07.2z" class="AZ"/><path d="M17 11a.11.11 0 0 1-.07 0 3.18 3.18 0 0 0-.79-.34c-.18 0-.35.09-.36.28s0 .19.08.24a1.51 1.51 0 0 0 .39.13h.22.17l.15-.08.08-.07.05-.07z" class="Am"/><g class="AZ"><path d="M16.07 10.95v.06L16 11h.12m.01-.22h.06.06a.05.05 0 0 1-.06.05.06.06 0 0 1-.06-.05"/><path d="M16.48 10.88a.05.05 0 0 1 .1 0 .05.05 0 0 1-.1 0m.07.21a.06.06 0 0 1 .05-.09h.06v.07s-.07 0-.07-.05m-.21.21a.06.06 0 0 1 .11 0 0 0 0 0 1-.06 0 .05.05 0 0 1-.06 0m-.31-.06a.05.05 0 0 1 .1 0 .05.05 0 0 1-.1 0"/></g><path d="M16.07 10.94a.055.055 0 0 1-.11 0h.11m.17-.17h-.07a.05.05 0 0 1 .05 0 .05.05 0 0 1 .05 0m.31.1a0 0 0 0 1 0 0 0 0 0 0 1-.05 0 0 0 0 0 1 .05 0 0 0 0 0 1 0 0" class="Ac"/><path d="M16.4 11v.06s-.06 0-.06-.05 0 0 .05 0h.06" class="AZ"/><path d="M16.15 11.16a.05.05 0 0 1-.05.05.05.05 0 0 1-.06-.05h.07a0 0 0 0 1 0 0m.28-.16a.05.05 0 0 1-.05 0 .05.05 0 0 1-.05 0 .05.05 0 0 1 .1 0m.27.07a.05.05 0 0 1-.05.06.06.06 0 0 1-.06-.06h.07m-.13.15a0 0 0 0 1 0 0 .05.05 0 0 1-.06 0h.11" class="Ac"/><g class="Ae"><path d="M16.5 11h.1a0 0 0 0 1 0 0 0 0 0 0 1 0 0h-.1m-.08-.24a.22.22 0 0 1 .09 0v.06a0 0 0 0 1 0 0l-.06-.09"/><path d="M16.22,10.9a.42.42,0,0,1,.09.07s0,0,0,.05,0,0-.05,0l-.05-.11"/><path d="M16.19 11a.34.34 0 0 1 .11 0h-.11m-.1-.3h.11a0 0 0 0 1 0 .07h-.05l-.06-.07m-.19.14a.34.34 0 0 1 .11.07l-.06-.07m-.07.1H16h.06-.09m.36.3h.08 0-.08m-.33-.05h0"/></g><g class="AZ"><path d="M16.92 11.13a.64.64 0 0 1-.21.16.74.74 0 0 1-.38.06.77.77 0 0 1-.36-.09.57.57 0 0 1-.22-.18v.06l.11.14.12.05h.18.17.13.16.1.07.05zm-.17-.31h-.15a.79.79 0 0 0-.46-.15.36.36 0 0 0-.32.17l.1-.14.08-.1h.16.1.09.11l.09.05.12.06z"/><path d="M17.07 10.89h-.18 0v-.09h.19.1z"/></g><path d="M16.82 11.86a.07.07 0 0 0 .06 0h.27l.07-.07v-.17l.05-.06.17-.1h.15.1.13l.1-.05v-.06-.1-.13l-.11-.14-.18-.07h-.15l-.16.06-.29.07a.54.54 0 0 0-.22.19.59.59 0 0 0-.08.32v.38" class="Am"/><path d="M16.82 11.86h0 0 0 .28l.07-.08v-.17h0 0 0 0l.1-.05h.07 0 .15.1.14l.1-.05v-.07-.1L18 11l-.11-.14-.18-.07h-.15l-.16.06-.29.07h0L17 11a.51.51 0 0 0-.14.15.64.64 0 0 0-.06.15 1 1 0 0 0 0 .18v.2.18h0v-.06-.12-.2a1.17 1.17 0 0 1 0-.17.46.46 0 0 1 .06-.14A.38.38 0 0 1 17 11h.06 0l.29-.07.16-.06h.14l.17.07.1.13v.12.09.06h-.09-.13-.09-.15 0-.09-.06 0 0 0v.17l-.06.07H17h0-.11 0z" class="AZ"/><g class="Ac"><path d="M16.89 11.79c.06 0 0-.09.08-.2a1 1 0 0 1 .16-.24l.06-.05a.18.18 0 0 1 0-.11.62.62 0 0 1 .15-.1h.05 0 .08a.09.09 0 0 0 0 0 .11.11 0 0 1 .09 0h.08s0 .05.06.05a.09.09 0 0 0 .06 0h0s.08.1.1.06 0-.09 0-.1l-.1-.15-.16-.05h-.21l-.09.1-.19.1v.13c0-.02-.08-.1-.1-.08a1.89 1.89 0 0 0-.07.19 1.08 1.08 0 0 0-.07.29c0 .06 0 .15.06.15"/><path d="M17.08 11.54h0a.06.06 0 0 0 0 0h.07a.08.08 0 0 0 0 0 0 0 0 0 0 0 0h-.06m.32-.27a0 0 0 0 0 0 0 .08.08 0 0 0 0 0h.07zm.26.07h0a0 0 0 0 0 0 .06h.06m-.81-.01a.06.06 0 0 0 .06 0 .06.06 0 0 0 .06-.05h-.05"/></g><g class="AZ"><path d="M17.16 11.6a.06.06 0 0 1 0 .05.07.07 0 0 1-.05 0h0 0 .07a.11.11 0 0 0 .06 0m.62-.49a.07.07 0 0 1 0 0h-.05 0v-.08s0 .08.06.08a.1.1 0 0 0 .07 0m-.7.15s0 .06-.06.06 0 0 0 0h.06"/><path d="M17.36 11.3v.06h.05a.05.05 0 0 0 0 0 0 0 0 0 0 0 0h0m.17-.29a.07.07 0 0 1 0 .07h-.08.06a.16.16 0 0 0 0-.07"/><path d="M16.87 11.89h.3c.02 0 0-.19.14-.3a.66.66 0 0 1 .38-.12.34.34 0 0 0 .31-.24c0-.1-.12-.11-.17-.21s-.19-.06-.2-.06a.37.37 0 0 0-.23.07s0 .09-.06.12-.2 0-.22 0 0 .09 0 .11-.06 0-.06 0v-.15l.23-.14.26-.15h.18l.18.09.09.09a.46.46 0 0 1 0 .12.23.23 0 0 1 0 .1.38.38 0 0 1-.35.26.74.74 0 0 0-.37.13c-.07.05-.11.28-.11.31a1.51 1.51 0 0 1-.34 0z"/></g><g class="Ae"><path d="M17 11.35a0 0 0 0 1 0 0 .24.24 0 0 1 0-.11.54.54 0 0 0 0 .08h0m.16 0v-.07l.09-.08v.08s0 .07-.05.06m-.11.29v-.05c0-.05.05-.08.05-.08v.06"/><path d="M17.22 11.52h-.05-.07.11m.25-.34a.24.24 0 0 0 0 .06v.07-.14"/><path d="M17.54 11.3h-.06-.06.1m-.02-.23h.05a.21.21 0 0 0 0-.06h-.05v.06"/><path d="M17.86 11.06h-.06v.05c0 .05 0 0 0 0v-.07m-.05.26a.15.15 0 0 1 0 .05h-.07a0 0 0 0 1 0 0h.05"/></g><path d="M15.49 10.1l-.09.22.07-.01.05-.2-.03-.01z" class="AT"/></g><g clip-path="url(#B)"><path d="M15.08 10.67l.44.19.21-.51-.44-.19-.21.51z" fill="url(#C)"/></g><g class="Ap"><path d="M15.49 10.1h-.01l-.09.23.09-.01.04-.21-.04-.02v.01h.01l-.01.01.03.01-.04.19h-.06l.08-.21h0l-.01.01.01-.01z" class="AU"/><path d="M15.53,10a.06.06,0,0,0-.07.05.06.06,0,0,0,0,.07.06.06,0,0,0,0-.12" class="AT"/><g class="AU"><path d="M15.53,10h0a.07.07,0,0,0-.07.06h0a.07.07,0,0,0,.06.07h0a.07.07,0,0,0,.07-.06h0a.07.07,0,0,0-.06-.07h0a.05.05,0,0,1,0,.05h0a.05.05,0,0,1-.05,0h0a.05.05,0,0,1,0-.06h0a.06.06,0,0,1,.05,0h0Z"/><path d="M15.55 10s-.07 0-.07.05a.05.05 0 0 0 .05.06h0V10h0 .06z"/><path d="M15.5 10.16v.05-.12h0z"/></g><path d="M19.39 10.56l-.22.21.09.02.15-.19-.02-.04z" class="AT"/><path d="M19.39 10.56h-.01l-.23.22.11.02.16-.2-.03-.05-.01.01h.01l-.01.01.02.03-.15.19-.07-.02.21-.2v-.01l-.01.01.01-.01z" class="AU"/><path d="M19.49,10.48a.08.08,0,0,0-.11,0,.07.07,0,0,0,0,.1.08.08,0,0,0,.11,0,.07.07,0,0,0,0-.1" class="AT"/><g class="AU"><path d="M19.49,10.48h0a.08.08,0,0,0-.07,0,.08.08,0,0,0,0,0,.07.07,0,0,0,0,.06h0a.08.08,0,0,0,.09-.09.07.07,0,0,0,0-.06h0a.06.06,0,0,1,0,.05.08.08,0,0,1,0,0,.08.08,0,0,1-.06,0h0a.06.06,0,0,1,0-.05.07.07,0,0,1,0,0,.08.08,0,0,1,.06,0h0Z"/><path d="M19.51 10.5a.09.09 0 0 0-.11 0 .06.06 0 0 0 0 .08h0v-.07h0 0 .05z"/><path d="M19.37 10.64a0 0 0 0 0 0 0h-.07l.12-.11h0z"/></g><path d="M13.78 9.37l.11.26.06-.08-.14-.19-.03.01z" class="AT"/><path d="M13.78 9.37h-.01l.12.27.06-.09-.13-.2-.05.01v.01h.01v.01l.03-.01.13.18-.04.06-.11-.24h-.01v.01-.01z" class="AU"/><path d="M13.73 9.26a.071.071 0 0 0 .09.11.07.07 0 1 0-.1-.1" class="AT"/><path d="M14.19,9.78c.06.12,0,.25,0,.29s-.19,0-.25-.14,0-.25,0-.29.19,0,.26.14" fill="#df5072"/></g><g clip-path="url(#D)"><path transform="matrix(.995805 -.091502 .091502 .995805 -.84 1.33)" d="M13.82 9.61h.45v.52h-.45z" fill="url(#E)"/></g><g class="Ap"><g class="AU"><path d="M13.73 9.26h0a.08.08 0 0 0 0 .06.08.08 0 0 0 0 .05.08.08 0 0 0 .06 0h0a.08.08 0 0 0 0-.06.08.08 0 0 0 0-.05.08.08 0 0 0-.06 0h0 0a.07.07 0 0 1 .05 0 .07.07 0 0 1 0 0 .06.06 0 0 1 0 0h0-.05a.07.07 0 0 1 0 0 .06.06 0 0 1 0 0z"/><path d="M13.76 9.24a.08.08 0 0 0 0 .1.06.06 0 0 0 .09 0h0-.06 0v-.07h0z"/><path d="M13.84 9.41v.08l-.06-.14h0z"/></g><g class="Av"><path d="M13.77 9.8a.16.16 0 0 0 .08 0 .08.08 0 0 0 0 0 .22.22 0 0 0-.05-.08h-.06s-.09.08-.08.1 0 0 0 0a.29.29 0 0 1 0 .06"/><path d="M13.84 9.64v.05h.06v-.05a.09.09 0 0 0 0 0v-.06h0s-.13.06-.12.07v.07m.34-.11a.14.14 0 0 0 0-.09h0-.13 0a.18.18 0 0 0 0 .06h.1"/></g><path d="M13.85 9.69v.07c0 .01-.07 0-.07 0a.05.05 0 0 1 0 0h0m.09-.15a0 0 0 0 0 0 0h.06a.13.13 0 0 0 0-.09h0-.06m.13.03h0v-.06" class="Aw"/><g class="Av"><path d="M15.27 10.28h0 0a.15.15 0 0 0 0-.08h0-.1m.24.03a.13.13 0 0 0 0 .06h0 .06 0 0-.11"/><path d="M15.59 10.39a.13.13 0 0 0 .05-.06h0s-.08-.08-.09-.07h0 0 0"/></g><path d="M15.38 10.27v-.05h0 0a.09.09 0 0 1 0 0m.06.02a.07.07 0 0 0 0 0 .11.11 0 0 0 .07 0h-.06m.12.05h0a.06.06 0 0 0 0 0h0" class="Aw"/><path d="M19.06 10.68a.15.15 0 0 0 0 .06h0 0v-.06s-.08-.06-.09 0 0 0 0 0h0m.22.03h0a.09.09 0 0 0 0 0h0 0 0s-.06-.09-.07-.08h-.05m.15.27h.07 0 0v-.09h0 0 0a.11.11 0 0 0 0 .06h0" class="Av"/><path d="M19.16 10.72h-.05c-.05 0 0-.06 0-.06h0a.07.07 0 0 1 0 0m.1.06h0 .07a0 0 0 0 0 0 0h0m-.01.11h0a.06.06 0 0 0 0 0h0a.17.17 0 0 0 0 0" class="Aw"/><path d="M16.2 7.16l.05.12-.19.12-.03.01-.01-.05-.03-.08-.12-.04-.03-.01.02-.06.1-.03.09-.01h.11l.04.03z" class="Ak"/><path d="M16.71,6.1s-.37-.07-.36.24c0,.1,0,.13.1.15a.73.73,0,0,1,.37.15.32.32,0,0,1,.11.41l.08.4.08.3.25-.14.14-.45-.19-.8Z" class="AX"/><g class="AY"><path d="M16.71 6.1h-.08a.36.36 0 0 0-.18 0 .22.22 0 0 0-.1.2h0a.22.22 0 0 0 0 .11.13.13 0 0 0 .08.05h.16a.49.49 0 0 1 .2.11.47.47 0 0 1 .12.15.29.29 0 0 1 0 .12.25.25 0 0 1 0 .09V7h0l.08.41.09.31.26-.15.15-.45-.19-.81-.59-.27h0l.59.26.18.79-.14.44-.24.13-.1-.21-.07-.45h0a.31.31 0 0 0 0-.14.31.31 0 0 0 0-.12.47.47 0 0 0-.12-.16.55.55 0 0 0-.21-.11h-.16a.13.13 0 0 1-.07 0 .2.2 0 0 1 0-.1h0a.19.19 0 0 1 .09-.19.35.35 0 0 1 .18 0h.08z"/><path d="M17.08 7.64a.29.29 0 0 0 .16-.15l-.13-.15.11.07h.07c.01 0 .07-.14 0-.17a.47.47 0 0 0-.11-.14.21.21 0 0 0-.12 0 .24.24 0 0 1 .15 0s.05.06.06 0a.55.55 0 0 0 0-.2.12.12 0 0 0-.1-.08H17a.26.26 0 0 1 .15 0h.07a.75.75 0 0 0 0-.16.34.34 0 0 0-.11-.1H17a.19.19 0 0 1 .11 0 .16.16 0 0 1 .07 0l-.22-.1h-.17a0 0 0 0 1 0 0h.06a.67.67 0 0 0-.14 0h-.11-.16a.16.16 0 0 1 0-.05h.07c.06 0 0-.06 0-.06v-.07h.2l.43.25.2.18.13.33v.56l-.29.24H17v-.12"/></g><path d="M16.7 6.24a.34.34 0 0 1 0-.09.34.34 0 0 0-.24.06.2.2 0 0 0 0 .22.29.29 0 0 1 .1-.06.46.46 0 0 1 .16 0l-.06-.06h-.16a.18.18 0 0 1 .11 0h.08" class="Ad"/><path d="M17.13 7.68h-.09l.06.39.37.64h.2l.07-.12a.08.08 0 0 1 .05 0s.1.15.16.17.09 0 .15.06a3.07 3.07 0 0 1 .26.35v-.13l-.06-.18-.08-.12h0 .1.06l.1.08.05.06v.06V9v.09l.06.12.06.11h0v-.13l-.1-.32-.06-.11.1.07a.64.64 0 0 1 .09.12v.11.11.09.1h.06v-.12-.22-.24a.09.09 0 0 1 .06 0 .48.48 0 0 1 .06.12v.21.2l.06.2.07.13v.07-.1l-.08-.84h0a.67.67 0 0 1 .06.1V9v.09.17.18l.09.2v.11-.13-.9h0l.06.07a.22.22 0 0 0 0 .05v.2.56.15l.17-1.48h.1 0l-.07-.06-.17-.26-.11-.25-.2-.37.16-.45-.27-.22-.1-.07v-.05l.06-.09h-.05-.12-.11l-.23-.16-.25-.12-.14-.05-.35-.12h-.35-.16-.13a.17.17 0 0 0-.11.21c0 .07 0 .1.14.14a3 3 0 0 1 .32.19l.11.11v.05h0l.07.58-.15.32z" class="AW"/><path d="M17.5 8.59a.09.09 0 0 0 .15 0c.09-.08 0-.31 0-.33l.06.12a.28.28 0 0 1 0 .17.39.39 0 0 1-.11.19h-.11z" class="AX"/><path d="M19.68 10l-.08-.24v-.18-.49-.17l-.09-.12h0 0a.62.62 0 0 0 0-.23 2.92 2.92 0 0 0-.2-.44h0 0l.1.08.21.08h.12l.07.15a2.5 2.5 0 0 1 .05.39 1 1 0 0 1-.06.36 3.51 3.51 0 0 0-.07.61.65.65 0 0 1 0 .13z" class="AY"/><path d="M19.68 9.27a.37.37 0 0 0 .07-.13 2 2 0 0 0 0-.72.53.53 0 0 0-.21-.12 1.66 1.66 0 0 0 .06.19.37.37 0 0 1 0 .07.31.31 0 0 1 0 .09 1.51 1.51 0 0 1 .06.32v.3" class="AW"/><g class="AY"><path d="M19.37 9.63a3.22 3.22 0 0 0 0-.47.59.59 0 0 0 0-.26 1.6 1.6 0 0 1-.14-.33 1.45 1.45 0 0 0-.1-.33s-.13-.1-.13-.08a.14.14 0 0 0 0 .06h-.08v-.05-.08V8H19l.22.15.11.45.1.28v.47.42z"/><path d="M19.49 8.34l.09.07s.09.06.08.06h-.11a.2.2 0 0 1-.06 0zm-.42 1.19a.55.55 0 0 0 0-.21 2.66 2.66 0 0 0-.07-.46 1.1 1.1 0 0 1-.18-.25 1.33 1.33 0 0 0-.12-.26l-.1-.13V8l.19.1h.08l.09.46.09.13v.18.43.34h0z"/><path d="M18.85 9.33a.94.94 0 0 0 0-.26.72.72 0 0 0-.09-.25 1.77 1.77 0 0 1-.22-.26 3.06 3.06 0 0 0-.2-.26v-.17a.55.55 0 0 0 .1.07l.12.06v.2l.07.14.09.13.06.06V9v.12.17.09z"/><path d="M18.7 9.33h-.05a.12.12 0 0 0 0-.1.89.89 0 0 0-.05-.23.66.66 0 0 0-.06-.12l-.23-.22c-.05 0-.14-.13-.19-.17h-.09v-.21a.49.49 0 0 0 .11.11h.11l.15.26v.07l.14.11.06.11v.13l.05.18v.11z"/><path d="M18.41 9.28a.55.55 0 0 1-.1-.16v-.14a.7.7 0 0 0-.2-.24c-.07-.06-.18-.15-.17-.19s0-.05 0-.05h0l.23.25.07.13.05.17v.07.1zm.84-1.22s.16.2.2 0a.52.52 0 0 0-.05-.24l-.2-.33-.3-.38-.19-.11.06.11a2.25 2.25 0 0 1 .31.44.74.74 0 0 1 .14.46z"/><path d="M18.31,6.85a3.67,3.67,0,0,1,.53.57c.21.3.29.49.24.53s-.17,0-.23-.11a2.08,2.08,0,0,0-.29-.45.88.88,0,0,0-.29-.25l-.14-.23Z"/><path d="M18.15 7.51a4 4 0 0 1 .31.29 2.08 2.08 0 0 1 .18.22l.08.07v-.11a.05.05 0 0 1 .06 0l-.6-.63z"/><path d="M18.11 7.52a.93.93 0 0 0 .16.22l.21.21v.15s-.27-.21-.28-.16a.43.43 0 0 0 .07.16h-.08l-.11-.17-.08-.19v-.2z"/><path d="M17.28 8.17s.14.13.22 0a.32.32 0 0 0 0-.27s.2.3.26 0c0-.05-.12-.24-.12-.24h0l.1.17a.18.18 0 0 0 .1-.16.65.65 0 0 0-.1-.27l.1.11s.18 0 .19-.11-.16-.23-.16-.23.13 0 .13-.06-.17-.13-.18-.17a.09.09 0 0 1 .18-.12c.08 0 .19.08.23 0s0-.1 0-.1h-.11l-.18-.09-.14-.05h-.14l.05.11v.3.14.3l-.07.25h0 0l-.06.13-.09.09-.11.14z"/></g><g class="AX"><path d="M18.29,8.73a.4.4,0,0,0-.11-.15.38.38,0,0,0-.2-.06l.21.22Z"/><path d="M18.59 8.78a1.11 1.11 0 0 0-.15-.22c-.08-.08-.13-.19-.15-.19h0v.17l.14.14s.14.1.17.09"/><path d="M18.83 8.77a1.38 1.38 0 0 0-.11-.31.66.66 0 0 0-.17-.21v.16l.07.16.11.15zm.17-.09a1.06 1.06 0 0 0 0-.41.23.23 0 0 0-.15-.11h0v.23l.08.18z"/><path d="M19.22 8.14a.32.32 0 0 1 .1.13 2.43 2.43 0 0 1 .14.45l-.2-.31v-.29z"/></g><g class="Ad"><path d="M17.85,8.52s.1,0,.1-.06-.12-.11-.11-.17.11,0,.11,0-.1-.2-.07-.23.13.19.13.19a.28.28,0,0,1,0,.17c-.06.19-.19.12-.19.12"/><path d="M18.09 8.29h.16l-.14-.15v-.07c0-.01.11 0 .11 0s-.11-.16-.11-.19 0 0 0 0a1.23 1.23 0 0 1 .14.17.34.34 0 0 1 .08.26c0 .13-.26 0-.25 0m.73-.31v-.12h.06a.4.4 0 0 0-.12-.05h-.06c-.06 0 .07.12.07.12z"/><path d="M18.32 8.13a1.17 1.17 0 0 0 .25 0L18.38 8a.18.18 0 0 1 0 0h.12c.03 0 0 .06 0 .08s.08.13.1.12 0-.16 0-.17.09.08.12.1.16.12.17.07 0-.06 0-.09 0 .14 0 .16a.2.2 0 0 1-.14 0h-.06 0v.14a.23.23 0 0 1-.09 0h-.1z"/></g><path d="M15 7.59h0a1.6 1.6 0 0 1-.34 0c-.08 0-.11-.14-.11-.36h0a.22.22 0 0 1-.08-.23c0-.08.27-.29.3-.3a.13.13 0 0 1 .07 0h0l.08-.06h0 0s-.07.06-.08.08h0a.17.17 0 0 1 0 .08h0a.32.32 0 0 0-.05.09h0v.06a.29.29 0 0 0 .18 0l.03.12h0a.23.23 0 0 1-.12.12h-.07a.21.21 0 0 1-.1 0h0a.09.09 0 0 0 0 .08.11.11 0 0 0 .09 0 .49.49 0 0 0 .22 0h0L15 7.6zm.08-.28h0a.51.51 0 0 1-.21 0 .11.11 0 0 1-.08 0 .09.09 0 0 1 0-.07h0a.22.22 0 0 0 .11 0h.07a.23.23 0 0 0 .13-.13h0 0l-.09.06a.31.31 0 0 1-.17 0h0a.26.26 0 0 1 0-.08h0a.18.18 0 0 0 0-.08h0s0-.05.07-.08h0a0 0 0 0 0 0 0s-.08.05-.09.07h0a.14.14 0 0 0-.08 0s-.3.22-.31.3a.25.25 0 0 0 .06.17h0 0c0 .09 0 .35.12.38a1.72 1.72 0 0 0 .34 0h0l.08-.28h0z" class="Ah"/><g class="Ad"><path d="M18.88 8s.26.15.29.13-.07-.39-.05-.43.21.42.11.48-.11 0-.11 0l-.12-.1zm.73.62h.05"/><path d="M19.35 7.76h0 0-.05zm-.07-.12a.07.07 0 0 0 .06 0v-.05c0-.05-.06 0-.08 0a0 0 0 0 1 0 0h-.06zm.23.75l.1.05h.05a.14.14 0 0 1-.09 0zm-.43-1.18h.07a.08.08 0 0 1 0 .08h-.05L19 7.2zm-.37-.34h.08a.15.15 0 0 1 .08 0 .36.36 0 0 1 0 .2L18.71 7l-.08-.13z"/><path d="M18.54,6.8s.13,0,.12-.07a.17.17,0,0,0-.07-.12l-.15.11Z"/><path d="M18.2 6.65a.09.09 0 0 0 .07 0s.14-.15.21-.16.09 0 .1 0a.15.15 0 0 1 0 .11 1.84 1.84 0 0 1-.23.11h-.08-.07zm-.04-.23c0-.08-.09-.11-.11-.1s.07.08.09.18a.81.81 0 0 1 0 .18h0v-.22m-.28-.15a.8.8 0 0 0-.29-.2 1.39 1.39 0 0 1 .25.22.39.39 0 0 0 .07.21c.02.01 0 0 0 0h0v-.09-.06h0z"/><path d="M17.57 6.19A.88.88 0 0 0 17 6c-.18 0-.27 0-.25.11s.11.14.26.14a.88.88 0 0 1 .27 0 .55.55 0 0 1 .19.1.82.82 0 0 0-.14-.13l-.13-.09h.09a.4.4 0 0 1 .29.17.3.3 0 0 1 0 .16h0a.11.11 0 0 0 0-.07.36.36 0 0 0-.07-.11l-.05-.06m-.39 1.47a.42.42 0 0 0 .28-.36 1.75 1.75 0 0 0-.13-.66h.09a1.31 1.31 0 0 1 .13.56.43.43 0 0 1-.16.39.27.27 0 0 1-.21.1z"/><path d="M17.34 8.29h.08c.08 0 .2-.09.2-.2s-.09-.09-.1-.09a.27.27 0 0 1 0-.05h.08v.12h.07c.07 0 .13-.09.12-.16s-.11-.15-.12-.19a.13.13 0 0 1 0-.07h.08v.1a.07.07 0 0 0 .07 0s.18-.05.18-.08l-.08-.14a.12.12 0 0 1 0 0h0a.13.13 0 0 0 .09 0c.06 0 .12-.06.12-.1s0-.08-.05-.11a.07.07 0 0 1 0 0h0l.05.06v.07.06l-.08.08h-.08 0v.08.1l.03.04-.09.05V8v.11l-.11.07h0v.06l-.07.1-.12.08h-.09l-.05-.08z"/><path d="M18 7.19s.21.06.2-.07-.2-.24-.2-.27a.13.13 0 0 1 0-.06l.1.09h.17c.04 0 0-.12 0-.12h.09v.12l-.07.29s0 .11-.07.12a.35.35 0 0 1-.22-.1m.2 1.54a.14.14 0 0 0 0-.1.73.73 0 0 0-.2-.08l.14.18zm.3.01a1.65 1.65 0 0 1-.12-.17s-.08-.14-.12-.14 0 .16 0 .16l.17.15zm.28 0l-.11-.21a.63.63 0 0 0-.12-.22v.06l.06.17.1.15zm.22-.12a1.9 1.9 0 0 0 0-.24.33.33 0 0 0-.1-.18 1.46 1.46 0 0 0 0 .17z"/><path d="M19.41 8.73l-.1-.25a1 1 0 0 0-.11-.22 1.21 1.21 0 0 0 0 .15l.09.25zm.37-.45a.63.63 0 0 0-.21-.12 1 1 0 0 0-.28-.06h0l.06.05.15.08h.19z"/></g><g class="Ab"><path d="M18.26,8.36a.35.35,0,0,0,.06.2c.06.07.21.21.24.24a2,2,0,0,1,.1.31c0,.13.05.23.07.26s.06.09,0,.09a.13.13,0,0,1-.08-.09s0,0,0-.11a1.2,1.2,0,0,0-.14-.42,2.1,2.1,0,0,1-.33-.33c-.08-.12-.06-.15-.06-.15Z"/><path d="M18.6 9.18a1 1 0 0 1-.07-.18.81.81 0 0 0-.23-.22h-.12L18 8.5l.24.25a1 1 0 0 1 .14.3.22.22 0 0 1 0 .13c0 .05 0 .08.07.08h0a.54.54 0 0 1-.11-.18 1.38 1.38 0 0 0-.13-.32h.05a.58.58 0 0 1 .23.2.71.71 0 0 0 .07.22.81.81 0 0 0 .1.19h0s-.07-.11-.11-.2"/><path d="M18.32 8.13l.17.09h.06a.83.83 0 0 0 .11.36.66.66 0 0 0 .17.18 1.45 1.45 0 0 0 .07.42.92.92 0 0 1 .07.41s-.07-.1-.11-.22l-.1-.33a.67.67 0 0 0-.13-.23.59.59 0 0 1 .13.23c0 .13.06.27.08.27a0 0 0 0 0 0 0s0-.09-.05-.22a1.08 1.08 0 0 0-.06-.24.91.91 0 0 1-.13-.18 1 1 0 0 1-.13-.28v-.07h-.08a.32.32 0 0 1-.11-.12"/><path d="M18.65 8.08l.12.08a.35.35 0 0 0 .11 0 .72.72 0 0 0 .07.36 1.18 1.18 0 0 0 .17.23v.35.43a3.7 3.7 0 0 1 0 .54c-.07-.05 0-.29 0-.38a1.36 1.36 0 0 1-.12-.36c-.06-.28 0-.34-.07-.44s-.11-.11-.11-.11a.18.18 0 0 1 .12.1c0 .08 0 .31.07.43a1.32 1.32 0 0 0 .15.38v-.5a2.35 2.35 0 0 0-.06-.4c0-.07-.11-.13-.15-.22a2.89 2.89 0 0 1-.08-.32h-.06a.17.17 0 0 1-.11-.11"/><path d="M18.88 8a.81.81 0 0 0 .16.13.44.44 0 0 0 .16.05 1 1 0 0 0 .08.38c.1.18.14.18.14.21v.73.78-.55a1 1 0 0 0-.07-.15c0-.08 0-.41-.09-.6l-.08-.17a.25.25 0 0 1 .1.16c0 .12 0 .52.08.59a1 1 0 0 1 .11.2c0 .06 0-.76 0-.81a2.21 2.21 0 0 1-.19-.51v-.19a.31.31 0 0 1-.28-.13 1.07 1.07 0 0 1-.12-.12"/><path d="M19.26 8.06a.67.67 0 0 0 .2.15 1.87 1.87 0 0 0 .31.06 1.17 1.17 0 0 1 .12.54 1.67 1.67 0 0 1-.1.52c0 .25 0 .78-.08.85a.37.37 0 0 0 0 .09v.15s-.05-.07-.05-.11a2.3 2.3 0 0 0 0-.32 2.13 2.13 0 0 0-.05-.33V8.9a1 1 0 0 0-.11-.16.33.33 0 0 1 .12.14c0 .07 0 .67.05.79s0 0 0-.1a3.78 3.78 0 0 0 0-.52 1.52 1.52 0 0 0-.13-.56.4.4 0 0 1 .06.11h0 .05-.05 0a1.31 1.31 0 0 1 .07.42 5.81 5.81 0 0 0 0 .86s0-.32.08-.59a1.76 1.76 0 0 0 .09-.52 1 1 0 0 0-.12-.48s-.18 0-.29-.09-.18-.15-.18-.17m-1.87.33a.12.12 0 0 0 .09 0c.05 0 .18-.13.18-.17V8.1a.22.22 0 0 0 .2-.1.51.51 0 0 0 0-.16h.05c.05 0 .12-.09.12-.16a.24.24 0 0 0-.02-.14h0s.13-.07.13-.13 0-.16-.12-.17a.22.22 0 0 0 .12 0 .11.11 0 0 0 .08-.12.48.48 0 0 0-.14-.22h.16a.16.16 0 0 0 0-.13.06.06 0 0 0 0 0 .23.23 0 0 0 .15 0c.09 0 .16-.1.2-.1s-.13.09-.13.14 0 .05.12.11h0a1.1 1.1 0 0 0 .17 0h-.11a1.62 1.62 0 0 1 .3.28h0 0l.17.25h0 .06-.07a3.26 3.26 0 0 1 .17.31 3.46 3.46 0 0 0-.36-.5c-.19-.22-.24-.25-.25-.23a3.76 3.76 0 0 0 .23.35 2.75 2.75 0 0 1 .16.31 2.51 2.51 0 0 0-.47-.66c-.28-.25-.3-.29-.34-.28a.37.37 0 0 0 0 .23 4.18 4.18 0 0 0 .39.39 5.53 5.53 0 0 1 .39.55 3.62 3.62 0 0 0-.41-.53c-.26-.28-.36-.34-.38-.34s0 .05-.05.09-.09 0-.09.06a1.71 1.71 0 0 0 .27.25h.1l.07.05h-.08-.07a1.67 1.67 0 0 0 .21.24h.09l.1.06h-.11-.06l.13.19c-.01 0-.21-.24-.38-.39s-.25-.19-.26-.18 0 .05 0 .07-.08 0-.08 0l.27.28.21.24-.24-.23c-.12-.12-.19-.16-.2-.16a.11.11 0 0 0 0 .08l.23.29c-.01.01-.28-.21-.28-.21v.06c0 .06-.09 0-.09 0l.36.4a2.94 2.94 0 0 0-.33-.24l.12.27c-.01 0-.18-.27-.2-.27s0 0-.06.07-.1 0-.1 0l.25.3c-.01 0-.26-.27-.26-.25a0 0 0 0 0 0 0c0 .07.07.19.07.2s-.08-.17-.11-.16 0 0-.06.06-.07 0-.07 0l.06.09a.61.61 0 0 1 0 .13.49.49 0 0 0-.06-.12s-.07-.08-.1-.08a.06.06 0 0 0 0 0z"/><path d="M19.77 8.27h.09c.01 0 0 0-.1-.09s-.27-.64-.48-.91a3 3 0 0 0-.66-.67 2.37 2.37 0 0 1 .67.65c.3.44.37.78.46.87s.16.11.16.13a.06.06 0 0 1 0 0h-.11zm-2.52-.12h0s.12-.1.11-.13A.27.27 0 0 1 17.3 8a.19.19 0 0 1 0-.1.27.27 0 0 0 .06.09h.09c.01 0 .17-.13.16-.17a.16.16 0 0 1-.09 0 .18.18 0 0 1-.05-.1.2.2 0 0 0 .08.08.1.1 0 0 0 .1 0s.11-.15.1-.2a.15.15 0 0 1-.1 0 .25.25 0 0 1-.07-.11.16.16 0 0 0 .09.08.09.09 0 0 0 .11-.06v-.23a.21.21 0 0 1-.13 0 .17.17 0 0 1-.07-.09.18.18 0 0 0 .1.07.08.08 0 0 0 .1 0 .3.3 0 0 0 0-.16s-.05 0-.07-.12 0 0-.1 0-.12-.09-.12-.09a.2.2 0 0 0 .12.05.09.09 0 0 0 .08-.1.32.32 0 0 0 0-.11v-.08a.1.1 0 0 1-.11 0 .11.11 0 0 1-.1-.07.22.22 0 0 0 .1 0s.07 0 .07-.05 0-.09-.12-.17l-.18-.15a1.53 1.53 0 0 1 .21.14.8.8 0 0 1 .13.14h.1a.15.15 0 0 0 0-.12.78.78 0 0 0-.11-.13.58.58 0 0 1 .12.14.23.23 0 0 1 0 .14s.17.08.21.06 0-.07 0-.12l-.06-.09a.57.57 0 0 1 .07.09c0 .05.05.09 0 .11s0 0 0 0l.12.07c.06 0 .13.06.13 0a.22.22 0 0 0 0-.11.78.78 0 0 0 0-.14.54.54 0 0 1 0 .14v.12c0 .02.06 0 .06 0a.12.12 0 0 1-.11 0c-.08 0-.4-.18-.41-.17s.15.12.23.19a.61.61 0 0 1 .11.15L18 6.8a1 1 0 0 0-.24-.11h.07s-.05.07-.05.09S18 7 18 7a.18.18 0 0 1-.07.06L17.78 7s.07.07.07.09v.07c0 .07.14.14.14.17s-.07.07-.06.09l.08.11-.09-.07s-.07-.08-.08-.07a.35.35 0 0 0 0 .13s.06.06.07.12a.2.2 0 0 1 0 .13s-.08-.11-.1-.11a0 0 0 0 0 0 0s-.06.11-.05.13.09 0 .09.1a.18.18 0 0 1-.06.12l-.11-.12a.75.75 0 0 0-.28.11s.07.07.06.09-.07 0-.09 0h-.09"/><path d="M18.62 6.59a.13.13 0 0 1 0-.05s.08-.09.06-.1-.11 0-.16 0-.09 0-.24-.12a2.58 2.58 0 0 0-1.24-.38c-.24 0-.35.07-.36.12A.39.39 0 0 1 17 6a2.62 2.62 0 0 1 1.25.37s.15.14.27.13.15 0 .14 0 0 .06 0 .08v.06z"/><path d="M17.3,6.69h0a.65.65,0,0,0-.14-.17,2.09,2.09,0,0,0-.42-.22,2.64,2.64,0,0,1,.41.24l.15.16"/></g><g class="Ad"><path d="M17.3 7.23a.28.28 0 0 0-.09-.07.49.49 0 0 0-.13-.06.28.28 0 0 1 .15 0 .23.23 0 0 1 .07.09m-.04-.24l-.11-.06h-.11a.2.2 0 0 1 .15 0 .14.14 0 0 1 .08.09m-.06-.26a.17.17 0 0 0-.1-.07h-.14a.29.29 0 0 1 .17 0c.08 0 .07.1.07.1m-.1-.18l-.18-.07h-.21a1.1 1.1 0 0 1 .28 0 .35.35 0 0 1 .11.1"/><path d="M16.83 6.41h-.18-.23a1.57 1.57 0 0 1 .33 0c.07 0 .08.05.08.05"/></g><path d="M16,9.65a.18.18,0,0,0,.14.08c.09,0,.16.13.16.13l-.1.1h-.24l-.08-.13Z" class="AS"/><path d="M16 9.65h0 0a.18.18 0 0 0 .11 0 .18.18 0 0 1 .11.06h0 0l-.1.1h-.23l-.08-.12.12-.2h0l-.12.21.08.13h.25l.11-.1h0v-.07a.18.18 0 0 0-.12-.07.15.15 0 0 1-.1 0h0 0z" class="AV"/><path d="M16 9.57a.39.39 0 0 0-.13-.2c-.06 0 0 .05 0 .08a.17.17 0 0 0 0 .08v.1c0 .03.11-.06.11-.06" class="AS"/><path d="M16 9.57h0a.11.11 0 0 0 0 0l-.05-.09a.2.2 0 0 0-.07-.07h0 0 0 0 0a.21.21 0 0 0 0 .07h0 0a.13.13 0 0 1 0 0 0 0 0 0 1 0 0h0 .06 0 0-.05 0 0a0 0 0 0 0 0 0 .13.13 0 0 0 0-.05h0 0a.22.22 0 0 1 0-.07h0a.11.11 0 0 0 0 0h0 0a.27.27 0 0 1 .08.09v.06h0 0z" class="AV"/><path d="M15.93,9.81a.12.12,0,0,0,.08,0,.16.16,0,0,0,.06,0" class="AS"/><path d="M15.93,9.81H16a.14.14,0,0,0,.07,0h0a.14.14,0,0,1-.06,0h-.08Z" class="AV"/><path d="M15.88,9.75s.14-.1.13-.15,0,0-.06,0a.4.4,0,0,0-.11.09.44.44,0,0,0,0,.11" class="AS"/><path d="M15.88 9.75h0L16 9.7h0a.08.08 0 0 0 0 0h0a.08.08 0 0 0 0 0h-.07-.05 0 0 0 0v.08h0 0v-.14h0 .05 0H16h0 0a.09.09 0 0 1 0 0l-.07.07h0 0z" class="AV"/><path d="M15.79,9.81s0,.07.07.07.11,0,.11-.06,0-.08-.07-.09-.1,0-.1,0Z" class="AS"/><path d="M15.79 9.81h0 0a.07.07 0 0 0 .06 0h.07 0 0 0a.09.09 0 0 0 0-.06h0-.11v.07h0v-.07h0 .07 0 0a.08.08 0 0 1 0 0h0a.15.15 0 0 1-.09 0 .07.07 0 0 1 0 0h0 0z" class="AV"/><path d="M15.91 9.72a.24.24 0 0 1-.12.06s-.08-.07-.06-.08h.07a.07.07 0 0 1 .06 0" class="AS"/><path d="M15.91 9.72h0-.05-.07 0 0 0 .08 0 0 0 0 0 0 0 0 0-.08 0 0 0 0 .07 0 0z" class="AV"/><path d="M15.82 9.78s-.13.18-.19.17 0-.26 0-.26h.06s.09 0 .1.06" class="AS"/><path d="M15.82 9.78h0 0l-.08.09h0 0a.07.07 0 0 1 0 0 .55.55 0 0 1 0-.13V9.7h0 .07.06 0 0a.07.07 0 0 0 0 0h-.06 0 0a.93.93 0 0 0 0 .21.09.09 0 0 0 0 0h0 0 .06a1 1 0 0 0 .13-.15h0z" class="AV"/><path d="M15.59,9.65s.17,0,.18.06-.08.06-.13.06,0-.12,0-.12" class="AS"/><path d="M15.59 9.65h0 .09 0a.23.23 0 0 1-.11 0h0a.17.17 0 0 1 0-.06h0 0a.45.45 0 0 0 0 .06h0 0 .09 0a0 0 0 0 0 0 0h0-.1-.07z" class="AV"/><path d="M15.16,9.91a.12.12,0,0,0,.1.09c.07,0,.14-.08.14-.08l-.18-.07Z" class="Al"/><path d="M15.16 9.91h0a.14.14 0 0 0 0 0 .11.11 0 0 0 .08 0h0a.23.23 0 0 0 .14-.08h0l-.18-.07-.07.06h0l.06-.06.17.07h0a.19.19 0 0 1-.12.06h0a.1.1 0 0 1-.08 0h0 0z" class="An"/><path d="M15.21,9.89a.14.14,0,0,0,.13.06.26.26,0,0,0,.17-.08l-.15-.12Z" class="Al"/><g class="An"><path d="M15.21 9.89h0a.14.14 0 0 0 .13.07h0a.26.26 0 0 0 .17-.08h0l-.16-.13-.15.14h0l.14-.13.15.12h0a.26.26 0 0 1-.17.07h0a.18.18 0 0 1-.1 0h0 0z"/><path d="M15.22 9.91a.19.19 0 0 0 .09 0h.11-.06-.12 0z"/></g><path d="M15.33,9.82s0,.11.13.09.09-.06.09-.06l-.1-.15Z" class="Al"/><g class="An"><path d="M15.33 9.82h0 0a.12.12 0 0 0 .09.05h0a.14.14 0 0 0 .08 0 .07.07 0 0 0 0 0h0l-.11-.15-.13.12h0l.12-.11.1.14h0l-.09.06h0a.11.11 0 0 1-.09 0h0 0z"/><path d="M15.35 9.84s.05.07.1.07a.17.17 0 0 0 .08 0h-.11 0zm-.18.11a.16.16 0 0 0 .08 0 .22.22 0 0 0 .1 0h0 0-.08 0 0z"/></g><path d="M15.57 9.64s.13.11.13.17 0 .14-.07.14a.33.33 0 0 1-.16-.13v-.1a.81.81 0 0 1 .13-.08" class="AS"/><path d="M15.57 9.64h0 0a.23.23 0 0 1 .06.07.18.18 0 0 1 0 .08.26.26 0 0 1 0 .09h0-.03a.38.38 0 0 1-.12-.11.3.3 0 0 1 0-.08h0 0 .06 0 0-.06 0 0 0a.21.21 0 0 0 0 .08.29.29 0 0 0 .08.08h0 0 0 0a.22.22 0 0 0 0-.13.22.22 0 0 0 0-.11h0 0 0z" class="AV"/><path d="M15.15 9.65s-.07-.05-.1 0a.16.16 0 0 0 0 .14h.1z" class="AS"/><path d="M15.15 9.65h0 0-.05 0a.12.12 0 0 0 0 .07.38.38 0 0 0 0 0 .06.06 0 0 0 0 0h0 .06 0v-.07h0v.07h0 0 0 0a.15.15 0 0 1 0 0 .11.11 0 0 1 0-.06h.09z" class="AV"/><path d="M15.14 9.72s-.09 0-.09.05a.16.16 0 0 0 .05.09h.09z" class="AS"/><path d="M15.14 9.72h0 0a0 0 0 0 0 0 0 .13.13 0 0 0 0 .06h0 0 .07 0l-.05-.12h0l.05.11h0 0 0 0a.1.1 0 0 1 0-.06h0 0 0z" class="AV"/><path d="M15.18,9.8s-.09,0-.09.06,0,.09.07.09.05-.06.06-.07,0-.08,0-.08" class="AS"/><path d="M15.18 9.8h0 0 0a0 0 0 0 0 0 0 .12.12 0 0 0 0 .06h0 .05 0 0 0 0V9.8h0 0 0 0 0 0 0 0 0v.04h0 0z" class="AV"/><path d="M15.23 9.52a.05.05 0 0 0-.06 0 .12.12 0 0 0-.07.12.31.31 0 0 0 0 .1h.14z" class="AS"/><path d="M15.23 9.52h0a0 0 0 0 0 0 0h0-.05a.11.11 0 0 0 0 .07h0a.32.32 0 0 0 0 .11h0l.15-.05v-.17h0v.16h-.13 0a.28.28 0 0 1 0-.1h0a.09.09 0 0 1 0-.06h0 .05z" class="AV"/><path d="M15.24 9.63s-.12 0-.12.08a.1.1 0 0 0 .06.1l.13-.09z" class="AS"/><path d="M15.24 9.63h0-.06 0a.06.06 0 0 0 0 0h0a.11.11 0 0 0 0 .06h0 0 0l.09-.08h0l-.07-.11h0l.07.1h0-.06 0 0 0a.1.1 0 0 1 0-.05h0 0 .06 0z" class="AV"/><path d="M15.34,9.83l-.13.08a.11.11,0,0,1,0-.1s.09-.07.12-.08.06.11.06.11" class="AS"/><path d="M15.34 9.83h0-.06 0 0a.13.13 0 0 1 0-.07h0 .07 0v.06h0 0a.28.28 0 0 0 0-.05h0 0-.07a.11.11 0 0 0-.05.06h0a.15.15 0 0 0 0 .06h0 0 .08 0 0z" class="AV"/><path d="M15.44,9.39a.18.18,0,0,0-.11,0c-.07,0-.12.1-.13.15s0,.13,0,.15.17-.1.17-.1Z" class="AS"/><path d="M15.44 9.39h0a.15.15 0 0 0-.1 0h0a.15.15 0 0 0-.09.06.31.31 0 0 0 0 .09.32.32 0 0 0 0 0 .33.33 0 0 0 0 .07.06.06 0 0 0 0 0h0 0l.13-.09h0v-.17h0v.16h0l-.08.06h0 0 0a.22.22 0 0 1 0-.06.28.28 0 0 1 0 0 .23.23 0 0 1 0-.08.13.13 0 0 1 .09-.05h.11z" class="AV"/><path d="M15.3,9.75a.11.11,0,0,1-.08-.12.19.19,0,0,1,.16-.11c.05,0,0,.14,0,.14s-.06.1-.11.09" class="AS"/><path d="M15.3 9.75h0a.08.08 0 0 1-.06 0 .11.11 0 0 1 0-.06h0 0 .06.07 0a.15.15 0 0 1 0 .09h0 0 0 0 0a.12.12 0 0 0 .08 0h0 0 0a.32.32 0 0 0 0-.07h0 0 0a.18.18 0 0 0-.09 0h0 0 0a.13.13 0 0 0 0 .07.1.1 0 0 0 .06 0z" class="AV"/><path d="M15.46 9.74a.19.19 0 0 1-.07.09h-.11c-.03 0 0-.06 0-.08a.29.29 0 0 1 .09 0z" class="AS"/><path d="M15.46 9.74h0a.16.16 0 0 1-.07.08h-.07 0 0a0 0 0 0 1 0 0h0 .05 0l.06.07h0l-.06-.07h0-.06 0a.06.06 0 0 0 0 0 .05.05 0 0 0 0 0h0 0 0a.19.19 0 0 0 .08-.09h0z" class="AV"/><path d="M15.38 9.59s-.06 0 0 .1a.12.12 0 0 0 .1.08h.1c.03 0 .08-.06.07-.1a.11.11 0 0 0-.05-.1.22.22 0 0 0-.19.07" class="AS"/><path d="M15.38 9.59h0a.1.1 0 0 0 0 .07.09.09 0 0 0 0 0v.06h.05 0a.11.11 0 0 0 .08-.05h0a.08.08 0 0 0 0-.06h0a.13.13 0 0 0-.06-.11h0a.27.27 0 0 0-.17.08h0a.26.26 0 0 1 .16-.08h0a.11.11 0 0 1 0 .09h0a.06.06 0 0 1 0 0h0-.07 0 0v-.05a.05.05 0 0 1 0 0 .07.07 0 0 1 0 0h0z" class="AV"/><path d="M15.54 9.37a.14.14 0 0 0-.1 0 .17.17 0 0 0-.08.13.81.81 0 0 0 0 .12.34.34 0 0 0 .1 0s.05 0 0-.06a.12.12 0 0 1 0-.06v-.08" class="Al"/><path d="M15.54 9.37a.17.17 0 0 0-.1 0 .17.17 0 0 0-.08.1v.05a.16.16 0 0 1 0-.07.15.15 0 0 1 .08-.09.17.17 0 0 1 .09 0" class="An"/><path d="M17.67 10.02l-.01-.29-.78.24.31.29.48-.24z" class="Ab"/><g class="Ad"><path d="M16.23 9.52l-.06-.05h-.07-.1 0l.07.08.12.06h0 0zm.06.33l-.25-.08.02-.06.04-.04.04-.02h.05l.02-.01.04.01.05.05.02.05.04.07.01.05-.08-.02z"/><path d="M16.37 9.85h.05l.02-.03-.01-.09.01-.3-.2-.24-.04.13.06.25.04.14.07.14z"/></g><g class="AX"><path d="M16.23 9.3v.1a1.34 1.34 0 0 0 .12.38c.07.12-.07-.1-.07-.1a1.06 1.06 0 0 1-.09-.43c0-.19 0 0 0 0"/><path d="M16.37 9.45a.34.34 0 0 0-.05.1.63.63 0 0 0 0 .12V9.6c0-.01 0 .12 0 .14s0-.24 0-.24z"/><path d="M16.4 10a.63.63 0 0 1-.23-.05c-.17-.1-.17-.14-.17-.17s.21 0 .24 0l.12.05h.06.1v.1zm-.4-.09s.06 0 0 .06a.24.24 0 0 1-.12 0l.22.05h0l-.1-.11"/></g><path d="M16 9.85h.1a.16.16 0 0 0 .11 0h0 0v.06h-.15-.08z" class="Ad"/><path d="M16.45 9.49l.02.26.04.06.03-.13v-.13l-.09-.06z" class="AX"/><path d="M16.24,9.53l-.07-.11-.09-.16.05-.09.07.1a.29.29,0,0,0,0,.13,1,1,0,0,0,0,.15" class="AY"/><path d="M15.77 9.95a.13.13 0 0 1 .1-.05.36.36 0 0 1 .13 0l.14.07h0-.27z" class="Ad"/><path d="M16.47 9.48v.21.12a.25.25 0 0 1-.1 0h.07v-.13-.11a.8.8 0 0 1 0-.22l.08.08" class="AW"/><path d="M16 9.9a.2.2 0 0 0 .18.08h.21v.07l-.12.08h0 0V10h-.13z" class="AX"/><path d="M16.24,9.53A1.57,1.57,0,0,1,16,9.24.48.48,0,0,1,16,9l.16.21a.22.22,0,0,0,0,.1,1.31,1.31,0,0,0,.1.25" class="AW"/><path d="M16.13,10.17a.1.1,0,0,1,0-.09,1,1,0,0,1,.35-.21V10l-.32.16Z" class="AX"/><g class="AW"><path d="M16.15 10.05s.07 0 .07-.07 0 0-.11 0L16 9.9l.13.08"/><path d="M16.59 10.09a.59.59 0 0 1-.06-.11v-.11h-.05-.1.1a.76.76 0 0 0-.16.06c0 .01.13 0 .12 0s-.06 0-.13.06l-.12.06h0a.15.15 0 0 0 .08 0h.15l.2-.08z"/></g><path d="M16.59,10.09s-.06,0-.1-.25a1.1,1.1,0,0,1,0-.3l.09.07.09.15Z" class="AX"/><path d="M16.62 9.7a.91.91 0 0 0 0 .21.45.45 0 0 0 0 .18.43.43 0 0 0 .1.12h0v-.32z" class="AW"/><g class="Ab"><path d="M16.75,9.88s0,.33-.06.34-.1-.12-.1-.13.07.12.1.11,0-.35,0-.35Z"/><path d="M16.59 10.09l-.18.09c-.18.09-.24 0-.24 0h.24a.69.69 0 0 0 .18-.07h0"/></g><path d="M16.26,9.67a.27.27,0,0,1,.06.09l.05.11h0a.68.68,0,0,0,0-.11l-.11-.17Z" class="AX"/><path d="M16.15 10.08v-.07H16h-.22a.67.67 0 0 0 .16.07h.18 0z" class="AW"/><path d="M16.15 10.08a0 0 0 0 0 0 0h-.18a.63.63 0 0 1-.18-.07A.43.43 0 0 0 16 10l.2.05" class="Ab"/><path d="M16.22,9.64a.37.37,0,0,0-.14,0,.57.57,0,0,0-.08.11h.07a.13.13,0,0,1,0-.1.27.27,0,0,1,.13,0" class="AX"/><g class="AW"><path d="M16 9.43a.27.27 0 0 0 .09.08l.11.06a.34.34 0 0 1 0 .1 1 1 0 0 1-.19-.11.49.49 0 0 1-.01-.13"/><path d="M16.16 9.47a.13.13 0 0 0-.06 0 .1.1 0 0 0-.09 0l.06.09h0s-.07-.1-.07-.12.13 0 .13 0"/></g><path d="M17.48 8.81l.41.58-.76.21-.4.04-.2-.15.06-.22.89-.46z" class="Ab"/><path d="M17.24 10.62h.08l.11-.07v.12l-.09.07h-.08 0z" class="AS"/><path d="M17.24 10.62h0 .08l.1-.06h0v.12l-.09.07h-.07 0 0 0v.05h0 0 .09l.09-.07h0v-.12h0 0-.07-.05 0z" class="AV"/><path d="M17.12 10.64h.06.07a.23.23 0 0 1 0 .07h0-.08-.07v-.09z" class="AS"/><path d="M17.12 10.64h.13 0 0 0-.08-.06v-.08h0v.09h0 .07 0 .08 0 0 0v-.05h-.14z" class="AV"/><path d="M17.75,10.6l0-.06-.11-.1v.26h.12l.06-.08Z" class="AS"/><path d="M17.75 10.6h0v-.06l-.07-.06h0 0v.26h.13l.06-.08h0 0 0 0l-.05.07h-.22v-.25h0l.11.1h0 0z" class="AV"/><path d="M17.12 10.64a.07.07 0 0 0-.07 0s-.1 0-.11.08 0 .13 0 .16a.13.13 0 0 0 .12 0 3.43 3.43 0 0 0 .33-.19h-.07a.14.14 0 0 1-.08 0 .15.15 0 0 1-.08 0 .05.05 0 0 1-.06 0 .2.2 0 0 1 0-.06" class="AS"/><path d="M17.12 10.64h0a.07.07 0 0 0-.06 0h0-.07a.1.1 0 0 0 0 .06.28.28 0 0 0 0 0 .32.32 0 0 0 0 .07.09.09 0 0 0 0 .05h.07 0 .08l.26-.15h0-.07-.08a.18.18 0 0 1-.08 0h0 0a.11.11 0 0 1 0 0h0 0a.15.15 0 0 0 0 0 .15.15 0 0 0 0 0h0 0 0a.15.15 0 0 0 .08-.05h.14 0l-.16.09h-.08 0 0-.07a.08.08 0 0 1 0 0 .42.42 0 0 1 0-.07.11.11 0 0 1 0 0h.07.07z" class="AV"/><path d="M16.84 10.95v-.1c0-.03.08 0 .11 0s0-.08 0-.09a.27.27 0 0 0 0-.06s-.18 0-.18.12a.12.12 0 0 0 .08.13" class="Al"/><path d="M17.3 10.72h-.06-.07v.09h.12l.07-.06v-.08z" class="AS"/><path d="M17.3 10.72h0 0 0 0v.08h0 .12 0l.08-.06h0v-.08h0-.09 0 .08v.08l-.07.06h-.11v-.08h0 0 0 0z" class="AV"/><path d="M17.85 10.67h0-.06l-.06.08v.05h.06 0 .06z" class="AS"/><path d="M17.85 10.67h0 0-.05 0l-.06.07h0v.05h0 .06.05.06 0v-.07h0v.07h-.05 0-.06v-.05h0 0 0 0a.05.05 0 0 1 0 0h0z" class="AV"/><path d="M17.45 10.62h-.08s-.07 0-.07.06l.06.07h.06l.13-.09v-.08z" class="AS"/><path d="M17.45 10.62h0-.08 0 0 0v.05h.07l.13-.09h0v-.08h0v.07l-.13.09h-.05 0 0 0 .06 0 0z" class="AV"/><path d="M17.94 10.73h0-.06l-.07.08h0v.06h.08l.06-.06z" class="AS"/><path d="M17.94 10.73h0 0-.06 0 0 0 0 0 0v.06h0 .08 0l.06-.06h0 0 0 0l-.05.05h-.08 0 0 0 0 0 0 .05 0 0z" class="AV"/><path d="M17.73 10.83h.06a0 0 0 0 0 0 0 .19.19 0 0 0 .07.11.21.21 0 0 0 .14.06l.11-.13v-.1a.22.22 0 0 0-.12 0s-.05.1-.08.08h0 0a.05.05 0 0 1 0 0 .21.21 0 0 1 0-.06h-.05 0l-.1.07-.06.07a.18.18 0 0 1-.09 0s0 .08-.08.07a.19.19 0 0 1-.11-.09.09.09 0 0 0-.08 0V11a.2.2 0 0 0 0 .11.14.14 0 0 0 .16 0 .08.08 0 0 0 0-.1h0a1 1 0 0 1 .13-.09" class="AS"/><path d="M17.72 10.83h.05a0 0 0 0 0 0 0h0a.2.2 0 0 0 .07.11H18l.11-.13h0 0 0 0a.13.13 0 0 0 0 0 .08.08 0 0 0 0 0 .07.07 0 0 0 0 0h-.14 0 0 0 0 0-.06 0 0-.06 0 0 0l-.1.07h0l-.06.07h-.06 0 0a.05.05 0 0 1 0 0h0a.15.15 0 0 1-.07 0h0 0a.09.09 0 0 0-.07 0h0a.08.08 0 0 0 0 0 .19.19 0 0 0 0 .07v.05a.17.17 0 0 0 .11 0h.06a.09.09 0 0 0 .06-.08.12.12 0 0 0 0 0h0 0l.13-.09h0a.84.84 0 0 0-.13.09h0 0a.07.07 0 0 1 0 0 .08.08 0 0 1-.05.07h-.47a.15.15 0 0 1-.1 0h0a.14.14 0 0 1 0-.06.11.11 0 0 1 0 0h0a.08.08 0 0 1 .06 0h0 0a.2.2 0 0 0 .08 0h0a.07.07 0 0 0 .06 0h0 0a.18.18 0 0 0 .1 0c.06 0 .06-.07.06-.08h0l.1-.07h0 0 0 0a.2.2 0 0 0 0 .06h0 0 0 0 0a.41.41 0 0 0 .05-.07h.12 0a.08.08 0 0 1 0 0h0L18 11h-.1a.19.19 0 0 1-.06-.07h0 0a0 0 0 0 1 0 0h-.07" class="AV"/><path d="M17.61 10.3v.17.19c0 .04-.15 0-.17 0a.61.61 0 0 1 0-.17z" class="AS"/><path d="M17.61 10.3h0v.17h0 0a.56.56 0 0 1 0 .06.2.2 0 0 1 0 .1.1.1 0 0 1-.07 0h-.05 0a.17.17 0 0 1 0 0 .51.51 0 0 1 0-.06v-.07h0l.19-.19h0l-.19.19h0v.07.06a.14.14 0 0 0 0 0h0 .06a.1.1 0 0 0 .08 0 .17.17 0 0 0 0-.1v-.1h0v-.18h0z" class="AV"/><path d="M17.11 11.22s-.05-.08 0-.12.05 0 .07 0 0 0 0-.08-.06-.08-.07-.08a.16.16 0 0 0-.1.17.18.18 0 0 0 .13.14m.92-.12s.18.08.2-.11a.17.17 0 0 0-.11-.17h-.07c-.07 0-.08.15-.08.15h.09c.02 0-.07.1-.07.1" class="Al"/><path d="M17.48 10.81h.05a0 0 0 0 0 0 0 .05.05 0 0 0 0 0 .06.06 0 0 0 .06.06.06.06 0 0 0 .07-.07" class="AS"/><path d="M17.47 10.81h0a0 0 0 0 0 0 0h.06 0a.06.06 0 0 0 0 0h0a.06.06 0 0 0 .07.07h0a.07.07 0 0 0 .06 0 .08.08 0 0 0 0 0h0a.07.07 0 0 1 0 0 .05.05 0 0 1 0 0h0a.05.05 0 0 1 0 0 0 0 0 0 1 0 0h0a.06.06 0 0 1 0 0h0 0" class="AV"/><path d="M17.11 11.22A.18.18 0 0 1 17 11c0-.09.1-.13.1-.13L17 11a.17.17 0 0 0 .13.17m-.28-.22s-.08 0-.09-.14.19-.12.19-.12-.19 0-.18.12.08.13.08.13m1.21.19a.17.17 0 0 0 .08 0 .1.1 0 0 0 .11-.08.16.16 0 0 0 0-.16h-.06a.11.11 0 0 1 .06 0 .16.16 0 0 1 0 .16.12.12 0 0 1-.13.08h-.05" class="An"/><g class="AY"><path d="M18.88 10.48l-.12.08-.26-.07-.54-.53-.2-.2.02-.24 1.1.96z"/><path d="M19.19 10.29l-.63-.48-.8-.6v.29l.91.84.3.15h.15l.08-.08z"/></g><path d="M17.77,9.61a4.84,4.84,0,0,0,.56.54c.24.18.47.38.52.36s0-.06,0-.06l-1.12-.91Z" fill="#774026"/><path d="M18.44 10.62l-.13-.06-.67-.69.03-.13.09.02.8.77-.12.09z" class="AY"/><path d="M19.19,10.29s-.08.2-.26.15a9.52,9.52,0,0,1-1.15-1v.1A8.31,8.31,0,0,0,19,10.5c.19,0,.35-.13.33-.15l-.09-.07" class="Ab"/><path d="M17.66 9.76a5.8 5.8 0 0 0 .48.55c.17.15.31.27.38.25s0-.09 0-.09L18 10l-.24-.25h-.1" fill="#774026"/><path d="M17.75,9.76s.8.82.86.83.33-.1.33-.1l-.07,0v0s0,.08-.21,0a5.18,5.18,0,0,1-.87-.79Z" class="Ab"/><path d="M18.25 10.53l-.08.06-.07-.03-.06-.02-.29-.34-.06-.11-.02-.14.58.58z" class="AY"/><g class="Ab"><path d="M18.57,10.55s-.07.1-.16.08a.29.29,0,0,1-.15-.09L17.7,10V9.91a6.13,6.13,0,0,0,.72.68c.08,0,.14-.08.14-.08Z"/><path d="M18.26,10.53a.1.1,0,0,1-.11.07.17.17,0,0,1-.11,0l-.34-.4V10a3.48,3.48,0,0,0,.44.52.07.07,0,0,0,.1-.06Z"/></g><path d="M17.9 9.47l.36.3h.15c.01 0-.08 0-.08 0a.65.65 0 0 0 .19.16h.16-.1a.56.56 0 0 0 .18.15 1 1 0 0 1 .2 0h-.14s.24.18.23.2-.29-.19-.29-.18v.09c0 .01 0-.09 0-.13a.39.39 0 0 0-.19-.15c-.02.01 0 .09 0 .09v-.12a.82.82 0 0 0-.19-.16v.08c0 .02 0-.08 0-.11a4.15 4.15 0 0 1-.35-.36" fill="#a57132"/><g class="AY"><path d="M17.33 10.38s0 .13-.06.14-.16-.23-.16-.23v-.23l.16.16zm.44-.06a.33.33 0 0 0 0-.07V10v-.09-.05h0l-.09.06V10v.16.14h.06z"/><path d="M17.66 10.54v-.18l-.1-.25v-.09h-.08l-.06.06v.1a2.53 2.53 0 0 0 .12.22c0 .06.12.17.15.16"/></g><g class="Ab"><path d="M17.57 10a.24.24 0 0 1 .07.13 1.06 1.06 0 0 1 .06.2s.09.09.12.08 0-.1 0-.12 0 0-.05 0a.84.84 0 0 1 0-.22.46.46 0 0 1 0-.14.5.5 0 0 1 .08.24h0a1.68 1.68 0 0 0 0-.17v-.12a.59.59 0 0 0 0-.08.29.29 0 0 0 0-.05h0v-.1a2.38 2.38 0 0 0 0-.32l-.35.47z"/><path d="M17.57,10a.63.63,0,0,0,0,.25.71.71,0,0,0,.07.15.36.36,0,0,1,0,.17s-.09-.23-.12-.35,0-.16-.05-.17h0Z"/></g><path d="M17.53 10.63v-.05-.12l-.12-.26-.14-.12-.08-.08v.21a1.33 1.33 0 0 0 .16.27c.06.06.17.19.19.18" class="AY"/><g class="Ab"><path d="M17 10.05a.35.35 0 0 1 0 .09v.07l.09.18c0 .08.09.16.13.14s.05-.08.05-.08 0 .07-.07.06a2.2 2.2 0 0 1-.12-.35h0l-.08-.11"/><path d="M17.4 10.34l-.09-.17s-.06-.09-.07-.09 0-.1 0-.1a.28.28 0 0 0 .09.09h.1a.47.47 0 0 1 0 .11v.13"/></g><path d="M17.17,10.17a.67.67,0,0,0,.07.14,1.51,1.51,0,0,0,.12.15,1.39,1.39,0,0,1-.13-.15.8.8,0,0,1-.08-.15Z" fill="#583c24"/><g class="Ab"><path d="M17.41 10.09v-.07h.06a.13.13 0 0 1-.06 0l-.07-.07v.1a.79.79 0 0 1 0 .09"/><path d="M17.39 10.11l.13.29a.58.58 0 0 1 0 .18.74.74 0 0 0 0-.14c0-.06-.12-.24-.12-.26a.15.15 0 0 1 0-.07"/></g><path d="M17.53 10v-.32-.11l-.14-.32a.3.3 0 0 1-.16-.09.51.51 0 0 1 0 .14.75.75 0 0 1 0 .11l.28.52z" class="AY"/><g class="Ax"><path d="M17,10.17s0,.05.07,0,0-.11,0-.16a5.1,5.1,0,0,0-.42-.53,6,6,0,0,0,.37.65"/><path d="M17.21 10v.18c0 .02-.45-.49-.51-.56s-.23-.14-.24-.18.25.05.25.05l.49.47"/></g><path d="M17.21 10h0a.35.35 0 0 1 0 .09v.09h0s-.06 0-.11-.08a5.79 5.79 0 0 1-.39-.48h0 0l-.12-.08s-.08-.06-.08-.07h0 .13.1 0l.49.47h0 0 0 0l-.5-.47h0a1.28 1.28 0 0 0-.23-.06h0 0l.2.14h0l.24.3.15.18s.09.08.11.08h0v-.09a.32.32 0 0 0 0-.09z" fill="#583c24"/><path d="M17 10.17a.38.38 0 0 1 0-.12.57.57 0 0 0 0-.1l-.3-.43-.12-.08a.74.74 0 0 1 0 .09.18.18 0 0 0 0 0 2 2 0 0 0 .21.3l.27.3" class="Ab"/><path d="M17.39 10.11v-.18l-.23-.5h-.07L17 9.35l-.07-.08a.76.76 0 0 1 0 .16v.08l.17.31zm.25-.28l.05-.07v-.23L17.52 9a.11.11 0 0 1-.08 0h-.07v.3l.15.42v.12z" class="AY"/><path d="M17.18,9.95A2.43,2.43,0,0,1,17,9.71l-.09-.16a.13.13,0,0,1-.09,0,.41.41,0,0,1-.12-.09s0,.08.17.29.32.2.32.2" class="Ab"/><path d="M17.54 10c.06 0 .06-.28 0-.46a1.71 1.71 0 0 0-.15-.33 3.44 3.44 0 0 1 .14.39v.19c0-.01 0-.07-.07-.18a.42.42 0 0 0-.08-.14s.17.46.12.45a3.34 3.34 0 0 1-.29-.54s.21.64.36.58" class="Ax"/><path d="M17.67 8.75l.1.22v.23.2.4a.07.07 0 0 1-.07 0l-.09-.44-.09-.44h0v-.15h.07z" class="AY"/><path d="M17.39 10.11V10h-.06a.84.84 0 0 1-.07-.16v-.08s0 .09-.07.09-.24-.34-.24-.34h0s.28.58.49.55" class="Ax"/><g class="Ab"><path d="M17.26,9.85a.32.32,0,0,0,0-.16,1.59,1.59,0,0,0-.12-.27h-.07L17,9.35a2,2,0,0,0,.12.25c.06.1.17.25.17.25"/><path d="M17.42 9.73a1.34 1.34 0 0 0-.11-.34.92.92 0 0 0-.13-.22.68.68 0 0 1 0 .1v.08a.29.29 0 0 1 .13.13 1.76 1.76 0 0 1 .11.25m.22-.31a1.87 1.87 0 0 0 0-.3c0-.11-.06-.26-.06-.26a0 0 0 0 1 0 0h0l.06.12v-.16h0-.07v.07c0 .07 0 0 0 0h0a.71.71 0 0 1 0 .1.36.36 0 0 1 0 .09 1.44 1.44 0 0 0 .06.19 1.55 1.55 0 0 1 .07.21"/><path d="M17.82 9.4a1.21 1.21 0 0 0 0-.45.59.59 0 0 0-.12-.22h0a1 1 0 0 1 .12.29c0 .15.05.35.05.35m-.33.17s0-.22-.07-.36L17.42 9l-.06-.06a1.15 1.15 0 0 1 0 .19v.07a.94.94 0 0 0 .07.14 1.27 1.27 0 0 1 .09.2"/></g><path d="M17.68 9.89c.05 0 0-.31 0-.39l-.17-.5.14.56c-.02.02-.08-.16-.09-.16s.12.36.07.37-.07-.08-.07-.08v.08a.13.13 0 0 0 .11.08m.08-.12V9.3c0-.13-.1-.39-.1-.39a2.49 2.49 0 0 1 .12.39c0 .21.07.48 0 .48a.07.07 0 0 1-.06 0h0a.07.07 0 0 0 .05 0" class="Ak"/><path d="M17.24 10.08v.12A.3.3 0 0 1 17 10s.12.13.16.13 0-.13 0-.17 0 .08 0 .08" fill="#32281e"/><path d="M17.52,8.66a.13.13,0,0,0,.13,0,.21.21,0,0,0,.09-.16.17.17,0,0,0,0-.12s.06,0,.05.12,0,.23-.13.26-.08,0-.08,0Z" class="Ad"/><path d="M17.42 8.41a1.21 1.21 0 0 1 .12.26v.17l-.09-.39" class="AW"/><path d="M15.95 8.58l.55.8.7-.78-.44-.45-.81.43z" class="Ao"/><path d="M16.65 8.08l-.04.13.08.22.11.11.13.09.04-.1.03-.11.03-.02.09.04.05-.08.09-.17-.01-.06-.03-.05-.14-.24-.05.09-.04.03-.08-.05-.1.13-.12-.05-.04.09z" class="AY"/><path d="M16.93 8.63a.13.13 0 0 0 0-.08 1.43 1.43 0 0 0 0-.34.74.74 0 0 0-.05-.21 1.11 1.11 0 0 1 .07.36v.26m.05-.31s.09.13.14.09 0-.21 0-.28S17 8 17 8h0v.18c0 .07.07.27 0 .31s0-.15 0-.15z" fill="#583a20"/><path d="M16.67 8.4a.12.12 0 0 1 .07 0v.11l.06.11.05.05h0 0l-.13-.07h0z" class="AW"/><path d="M16.89 9.55s-.14 0-.2-.08l-.35-.35v-.17h.12l.2-.09v-.07l.24-.13.1-.04h.29l.07-.14a1.52 1.52 0 0 1 .12.24.67.67 0 0 1 0 .3l-.13-.07c-.01-.01.07.3 0 .31s-.19-.11-.19-.11v.27a.5.5 0 0 1-.26-.13s.07.22 0 .26" class="Ad"/><g class="AW"><path d="M16.83 9.19l.06.09a.41.41 0 0 1 0 .17c0 .05-.08-.06-.12-.15s-.11-.18-.11-.2.18.09.18.09m.56-.68s.1.42.05.44-.19-.14-.21-.16L17 8.46h0 0 .08zm-.73.82l-.09-.07-.16-.17a.63.63 0 0 1-.11-.09v-.06h0 0a3.81 3.81 0 0 1 .3.26.6.6 0 0 1 0 .23"/><path d="M17.09 9.34a.84.84 0 0 1-.28-.24 2 2 0 0 1-.18-.26v-.1h.06a6.26 6.26 0 0 1 .44.58m.03-.18s-.09 0-.14-.12a.18.18 0 0 1 0-.15 2 2 0 0 1 .16.26"/><path d="M17.26 9.11S17.13 9 17 8.85s-.08-.12-.1-.13h-.07 0 0l.17-.16.22.45s.06.1 0 .11"/></g><path d="M16.69 9.47h-.06a1.1 1.1 0 0 1-.52-.41l-.16-.26.05-.05.5.57z" class="AX"/><path d="M16.69 9.47h-.06a.83.83 0 0 1-.36-.28 1.71 1.71 0 0 1-.27-.36v-.1h.06l.34.53z" class="AW"/><g class="AY"><path d="M17 9.24a1.14 1.14 0 0 1-.17-.15 1.22 1.22 0 0 1-.2-.3h.06v-.13h0 .1l.12.15v.06a.83.83 0 0 1 .06.21S16.93 9 16.92 9s.13.23.11.25"/><path d="M16.83 9.19v.09c0 .04 0 .06-.08 0a.8.8 0 0 0-.12-.16v.12l-.16-.17-.13-.2a.66.66 0 0 0 0-.11 1.1 1.1 0 0 0 0-.13h0 0l.19.22h.05l.11.22z"/><path d="M16.12 8.87a2.46 2.46 0 0 0 .28.4 1 1 0 0 0 .29.2L16.25 9zm1.11.13a.68.68 0 0 1-.15-.18.61.61 0 0 1-.1-.26v-.18a1.28 1.28 0 0 1 .18.23c0 .07.09.17.08.18s-.11-.07-.12 0 .12.25.1.26"/><path d="M17.4 8.86s-.09-.08-.11-.13a.86.86 0 0 1 0-.17l-.07-.16v-.17h.07l.1.14a.47.47 0 0 1 0 .2 1.36 1.36 0 0 1 0 .3m-1.17.41A2.25 2.25 0 0 1 16 9v-.15h0a.85.85 0 0 0 .25.38 1.43 1.43 0 0 0 .25.22v.15a2.82 2.82 0 0 1-.28-.3"/></g><g class="Ab"><path d="M16.44,9.52a3.26,3.26,0,0,1-.32-.33,2.44,2.44,0,0,1-.23-.35L16,8.78a2.59,2.59,0,0,0,.2.38l.28.36"/><path d="M16.69 9.47l-.31-.32a1.1 1.1 0 0 1-.16-.23h.09a.85.85 0 0 0 .11.18l.28.33"/><path d="M16.65 9.1l-.17-.22c-.06-.08-.11-.2-.11-.2a1.13 1.13 0 0 0 .2.18.25.25 0 0 0 0 .11v.12m.13-.54a.5.5 0 0 1 0 .15v.06a1 1 0 0 0 .09.12l.12.09-.09-.14s-.07-.1 0-.15.11 0 .13.05l.13.15a.51.51 0 0 0-.09-.18l-.21-.15"/><path d="M17.15 8.84l-.09-.22c0-.09-.09-.27-.09-.27v.15c0 .07 0 .16-.05.17s0 0-.08 0 0 0 0 0a.11.11 0 0 0 .07 0s0-.08.05-.07 0 .09.07.13l.08.13"/><path d="M17 8.34s.11.12.15.07 0-.21 0-.21h.09c.02 0 0-.08 0-.08a2.31 2.31 0 0 0 .17.28 1.24 1.24 0 0 1 .09.3 1.85 1.85 0 0 1-.15-.3c0-.14-.11-.2-.12-.18a.25.25 0 0 0 0 .16l.08.18a1.73 1.73 0 0 1 .06.18l-.09-.13a.51.51 0 0 0-.09-.09.39.39 0 0 0-.09-.07H17V8.4z"/></g><path d="M16.61 8.86a1.76 1.76 0 0 0 .11.18l.11.15a1.3 1.3 0 0 1-.14-.19.88.88 0 0 1-.08-.18" fill="#1d1d1d"/><path d="M17.31 8.89h-.07a.24.24 0 0 0 .06.12h.06c.01 0 0 0 0-.08v-.09" class="AW"/><path d="M16,8.13l-.06,0-.08.15,0,.28.11.16c0,.06.18.22.22.21s.07-.12.08-.18V8.62a.7.7,0,0,0,.09.12c.06.07.11.12.14.12s.11-.17.11-.19-.21-.53-.21-.53l-.09,0Z" class="Ad"/><g class="AX"><path d="M16.5 8.55s0 .13.06.19 0 .12 0 .12a.44.44 0 0 0 .12-.21 1.68 1.68 0 0 0 0-.33v-.26L16.62 8l-.11.21z"/><path d="M16.14 8.44v.26c0 .06.05.17.07.17a.53.53 0 0 0 .09-.23.67.67 0 0 1 0-.29v-.23z"/></g><path d="M15.86 8a.9.9 0 0 0-.16.37c0 .13 0 .1.06.22a2.24 2.24 0 0 1 .06.3v-.87" fill="#453c31"/><path d="M15.86 8.06a.84.84 0 0 0-.13.34.56.56 0 0 0 .07.23 1.15 1.15 0 0 1 0 .29.31.31 0 0 0 .1-.05.42.42 0 0 0 .1-.11v-.11a.4.4 0 0 1 0-.1v-.06-.21-.15-.06z" class="AX"/><path d="M16.64 8.44h-.1a.12.12 0 0 1 0-.06h0z" class="Af"/><path d="M15.89 8.08a1 1 0 0 0-.09.38 1.06 1.06 0 0 0 .11.35v-.46-.15-.12z" class="Ad"/><path d="M16.14 8.13a.29.29 0 0 1 0 .09s-.06.06-.09.11a1.46 1.46 0 0 0-.05.14.4.4 0 0 1 .06-.09s0-.06.06 0a.46.46 0 0 1 0 .13.39.39 0 0 0-.05.1.22.22 0 0 0 0 .12v-.11a.09.09 0 0 1 0-.05l.06.12a.62.62 0 0 1 0-.1.18.18 0 0 1 .07-.11.55.55 0 0 1 0-.23h.09a.63.63 0 0 0-.02-.25 1 1 0 0 0-.13.11" class="AW"/><path d="M16.62 8.59h-.08a0 0 0 0 1 0 0h0 .06z" class="Af"/><g class="AW"><path d="M16 8.61a.29.29 0 0 1 0 .08v.08-.17a.37.37 0 0 0 0-.12.41.41 0 0 1 0-.12v-.1c0-.01 0 0-.05 0v.07a.41.41 0 0 1 0-.1 1.55 1.55 0 0 0 .11-.15.23.23 0 0 0 0-.07H16s.05 0 .06.08-.05 0-.05 0l-.06.17c-.06.17 0 .16 0 .24"/><path d="M16.46 8.16a.55.55 0 0 1 0 .13.77.77 0 0 1-.06.09.37.37 0 0 0 0 .13.23.23 0 0 1 0-.07v-.05.08.13-.06a0 0 0 0 1 0 0h0a.13.13 0 0 0 0-.06l-.06-.08a.31.31 0 0 1 0-.11l.08.07v-.05a1.35 1.35 0 0 1 0-.16v-.11a.1.1 0 0 0 0-.09 1.23 1.23 0 0 0-.18.13"/></g><g class="Ao"><path d="M17 8a1.39 1.39 0 0 0 0 .17l.06.2a1.06 1.06 0 0 1-.06-.23c0-.09 0-.18-.07-.19s0 0 0 .08a.67.67 0 0 0 .05.22.44.44 0 0 1-.07-.12v-.11a.25.25 0 0 0 0 .11.51.51 0 0 0 .06.14h0 0a.32.32 0 0 0 0 .11l.06.09-.06-.06a.08.08 0 0 1 0 0 .68.68 0 0 0 0 .17c0 .06.08.16.08.16a.43.43 0 0 1-.11-.15 1.36 1.36 0 0 1-.19-.59l.06-.1a1.17 1.17 0 0 0 .07-.25 1 1 0 0 0 .08.22A.19.19 0 0 0 17 8"/><path d="M16.58 7.9v.07.05l-.12.11c-.06 0-.15.1-.17.07a.1.1 0 0 1 0-.05.68.68 0 0 0 .12-.1.32.32 0 0 0 .08-.12h0m-.49.16s0 .12.06.12.2-.15.21-.16a.1.1 0 0 0 0-.05.18.18 0 0 0 0 0s-.16.16-.21.17a.07.07 0 0 1-.06 0"/><path d="M16 7.93A1 1 0 0 0 16 8a.17.17 0 0 0 0 0h-.13a.12.12 0 0 1 0-.08h.08l.06-.06m1.06-.09s0 .12.08.17a.19.19 0 0 1 .08.15L17.12 8l-.06-.05a.22.22 0 0 0 0-.06v-.1"/></g><path d="M15.84 8H16v-.06a.3.3 0 0 0 0 .13c0 .05 0 .06.06.06a.21.21 0 0 0 .12-.06l.11-.1a.27.27 0 0 0 0 .14c0 .07.06.07.12 0a1.17 1.17 0 0 0 .13-.11v-.05h.06l.05-.29h0-.07-.09 0v.08h-.05-.09v-.05h0 0l-.13.13H16l-.07.11-.05.07h-.05z" class="Af"/><g class="AW"><path d="M16.46,7.71a.5.5,0,0,1,0,.19,1.09,1.09,0,0,1-.09.2.54.54,0,0,0,.19-.22.71.71,0,0,0,0-.3Z"/><path d="M16.62 7.59v.13a1.89 1.89 0 0 1 0 .21v.06s.06.1.09.09a.22.22 0 0 0 .1-.08 1 1 0 0 1 .07-.15v.09c0 .02.12.06.12.06a.09.09 0 0 0 0-.07v-.25l-.08-.21-.05-.08h-.15z"/></g><path d="M16.87 7.39a.55.55 0 0 1 0 .19 1.16 1.16 0 0 1 0 .2 1 1 0 0 0 0-.19v-.14a.31.31 0 0 1 0 0" class="AX"/><g class="AY"><path d="M17.07 7.77a.55.55 0 0 1 0 .12s-.07 0-.1-.16a2.22 2.22 0 0 0-.06-.22 1.16 1.16 0 0 1 0-.12h.07zm-.36.23a.4.4 0 0 0 .16-.32.87.87 0 0 0-.07-.3 1.07 1.07 0 0 1-.05.32l-.1.21a.14.14 0 0 0 .05 0v-.05a.17.17 0 0 1 0 .08v.09"/><path d="M16.59 7.59a.16.16 0 0 1-.06.1 1.17 1.17 0 0 1-.17.1.51.51 0 0 0 .11-.14.12.12 0 0 0 0-.1.12.12 0 0 1 0 .06.2.2 0 0 1-.09 0 .13.13 0 0 1 0-.07.78.78 0 0 1 .06-.12.44.44 0 0 0 .07.11l.07.07"/></g><g class="Ao"><path d="M17 7.3a.88.88 0 0 1 0 .21 1.34 1.34 0 0 1 0 .26 1.62 1.62 0 0 1 0-.16v-.15a.14.14 0 0 0-.06-.05h-.05a.08.08 0 0 0 0-.06.2.2 0 0 0 0-.05H17"/><path d="M16.71 7.82a.64.64 0 0 0 .1-.24.31.31 0 0 0 0-.18.13.13 0 0 1-.06 0l-.07-.09a.47.47 0 0 1 0 .15.39.39 0 0 1-.09.17.11.11 0 0 0 .08 0 .15.15 0 0 0 .07-.13v.12a1.39 1.39 0 0 1 0 .25"/></g><path d="M15.79 8s.05-.11.1-.18l.11-.17h0a.19.19 0 0 0 .13-.09.51.51 0 0 0 .05-.13.28.28 0 0 0 0 .15c.05.06.05.05.07.05a.68.68 0 0 1 0 .15v.17a.51.51 0 0 0 0-.17l-.05.05a.23.23 0 0 1-.06.08.83.83 0 0 0 .05-.12v-.07a.1.1 0 0 1 0 0 .12.12 0 0 0 0-.05.37.37 0 0 1 .05-.09.09.09 0 0 0 0 0l-.07.06-.07.07a.91.91 0 0 0 0 .14.62.62 0 0 1-.1.15h0v-.12a.72.72 0 0 0 0-.19 0 0 0 0 0 0 0l-.11.15c0 .07 0 .16-.06.17h0" class="AW"/><path d="M17.08,7.23a.07.07,0,0,1,0,.08.19.19,0,0,1-.12,0,.31.31,0,0,1,0-.08Z" fill="#7f4f28"/><path d="M16 7.39a.45.45 0 0 1 0 .11c0 .06-.08.11-.07.12a.1.1 0 0 0 .08 0l.06-.25h0z" class="Ay"/><path d="M16.7 7.25s0 .34-.11.34-.14-.17-.14-.17 0 .23-.13.23-.11-.18-.1-.21a.34.34 0 0 1-.08.17c-.11.09-.18 0-.19 0a.61.61 0 0 0 .11-.24s0-.08.07-.08a.62.62 0 0 0 .16-.06l.07-.09h.06a.2.2 0 0 0 .12-.14l.14.12z" class="Af"/><path d="M16.33 6.93l.14.2h0v.06a.22.22 0 0 0 0 .2.16.16 0 0 1 0-.09v-.07s0 .31.05.31 0-.14 0-.24 0 0 0 0 .09.15.16.13.06-.14.06-.17.11-.26.11-.26l-.32-.2v.08c0 .06-.18 0-.18 0" class="Ay"/><path d="M16.79 6.9a.37.37 0 0 1 0 .1v.34a.21.21 0 0 1-.14-.08v-.2a.41.41 0 0 1-.06-.15 1 1 0 0 1 0-.1h.07z" class="AW"/><path d="M16.76 6.82l.14.2.1.18h.06a.13.13 0 0 1-.16 0s0-.11-.08-.24a.42.42 0 0 0-.17-.19h0z" class="AY"/><path d="M16.69 6.71a.56.56 0 0 1 .16.17 2 2 0 0 0 .12.22.5.5 0 0 0 .11.12.06.06 0 0 1-.06 0 .24.24 0 0 1-.07-.08l-.13-.22a.44.44 0 0 0-.12-.1l.08.11a.43.43 0 0 1 .06.16 1 1 0 0 1-.07-.09.24.24 0 0 0-.15-.16c-.01.01 0 .1.07.15a.91.91 0 0 1 .07.17L16.68 7a.51.51 0 0 0-.09-.1l-.07-.09a.12.12 0 0 0 .1 0 .23.23 0 0 0 .07-.08" class="Ao"/><path d="M16.38 6.94a.43.43 0 0 0 .12 0h.06a.14.14 0 0 1 0 .07v.12-.09l-.13-.11" class="AW"/><path d="M16.42 7.14a.52.52 0 0 1 0 .2.47.47 0 0 1-.11.24v-.21h0v.08-.13l.09-.1z" class="Ay"/><path d="M16.27 7.23h-.09c-.03 0 0 .06 0 .06h0v.06a1.07 1.07 0 0 1-.11.16.72.72 0 0 0 .14-.13.27.27 0 0 0 0-.09.11.11 0 0 1 .05 0 1.25 1.25 0 0 0 0 .14.54.54 0 0 0 0-.14.89.89 0 0 0 0-.15h0-.08a.22.22 0 0 1 0 .13" class="AW"/><path d="M16.69 6.63a.13.13 0 0 1 0 .14.1.1 0 0 1-.07 0 .28.28 0 0 1-.09 0l-.2-.09h-.11-.05v-.1h.16l.16.06h.23" class="Af"/><path d="M16.69 6.63a.08.08 0 0 1 0 .07.15.15 0 0 1-.1 0l-.19-.07a.63.63 0 0 0-.17 0c-.05 0 0 0 0 0a.56.56 0 0 1 .23 0 .62.62 0 0 0 .2.06h.09" class="AX"/><path d="M16.13 6.57h.08" class="AY"/><path d="M16.53 6.82s.07.07.05.13l-.14-.06-.22-.09h-.12 0 0a.07.07 0 0 0 0 0h.15.16zm-.15.1s.13.17.1.22l-.3-.19-.11.17-.24-.12.17-.18h0 .11l.17.06z" class="Af"/><path d="M16.31,6.67a1,1,0,0,1,.17.06.51.51,0,0,0,.16,0,.17.17,0,0,1-.11,0,.37.37,0,0,1-.11-.07.67.67,0,0,0-.13-.05Z" class="AX"/><path d="M16.13 6.62h.12.06 0a.23.23 0 0 1-.1 0 .08.08 0 0 0-.08 0z" class="AY"/><path d="M16.54 6.91h0L16.5 7a.19.19 0 0 1-.1 0s-.05-.07-.13-.11h-.15-.07.05.17.15.09zm-.29.09v.13.08h0 0 0a.06.06 0 0 0 0-.06.31.31 0 0 0-.11-.06s0-.07.08-.08 0-.07 0-.07z" class="AX"/><path d="M16.09 6.73a.16.16 0 0 0 .08 0h.11.05 0 .13a.29.29 0 0 1 .1.07h-.1-.16a2.2 2.2 0 0 0-.23 0 .06.06 0 0 0 0 0" class="AY"/><path d="M16.47 7.1a.2.2 0 0 1-.17 0 .21.21 0 0 0 0-.07L16.14 7l.19.08.12.09" class="AX"/><path d="M16.47 7.11a.61.61 0 0 0-.26-.17h0 0-.12v.05a.34.34 0 0 1 .13 0c.06 0 .05 0 .05.06s-.08.11-.07.11 0-.08.1-.07a.1.1 0 0 1 .07 0 .08.08 0 0 0 0 0L16.16 7a.54.54 0 0 1 .17.06.45.45 0 0 1 .13.09" class="AY"/><path d="M16.16,7a.2.2,0,0,1,.14.2c0,.16-.12.13-.13.07s0,0,.06,0,.05-.05,0-.11a.15.15,0,0,0,0-.12L16.16,7" class="Af"/><path d="M15.53 6.58v.12a.57.57 0 0 1-.13.22c-.12.13-.17.13-.16.19a.05.05 0 0 0 .07 0l.22-.31v-.19-.03z" fill="#664121"/><path d="M16.05 6.36a.42.42 0 0 1 0 .27c0 .17-.25.33-.25.33l-.33.23h-.18 0v-.06-.05l.12-.12.07-.11a.38.38 0 0 0 0-.12.19.19 0 0 0 0-.09h0v.19l.09-.06.12-.05.06-.07a.79.79 0 0 0 0-.2.73.73 0 0 0 0-.09h0a.2.2 0 0 1 0 .09v.14l.25-.06a.35.35 0 0 0 0-.08.23.23 0 0 0 0-.09" class="Af"/><path d="M16.09 7.23v.08a.12.12 0 0 1-.08.1v-.09l-.07-.06h-.08 0 .09z" class="Ak"/><path d="M16 7.23a.07.07 0 0 0 .06 0 .06.06 0 0 0 0-.09v.07c0 .01 0-.06-.08-.07a.12.12 0 0 0-.1 0h.05.07z" class="AX"/><path d="M15.55 7h.09a1 1 0 0 0 .16-.06l.09-.07a.41.41 0 0 0 .18-.27.63.63 0 0 0 0-.25.35.35 0 0 1 0 .43.56.56 0 0 1-.19.19s.18-.05.19 0a.2.2 0 0 1 0 .12s.1 0 .12.07-.12 0-.21 0a.25.25 0 0 0-.13.08h-.1-.17a.43.43 0 0 1-.22-.07l.1-.12c0-.08.1-.06.1-.06" class="Ak"/><path d="M15.93,6.57a.61.61,0,0,0,.1-.12.3.3,0,0,0,0-.09.19.19,0,0,1,0,.12.76.76,0,0,1-.09.11Z" class="AX"/><path d="M15.91,6.42s.06.23,0,.32a1.14,1.14,0,0,1-.33.22.79.79,0,0,0,.27-.24.53.53,0,0,0,.06-.24Z" class="Ak"/><g class="Ao"><path d="M15.64,7a.34.34,0,0,0,.14,0l.12-.09s-.06.06-.08.06,0,0,0-.05a.15.15,0,0,1-.05.07.34.34,0,0,1-.09,0"/><path d="M15.84 6.71a.34.34 0 0 0 .07-.23c0-.16-.06-.13-.06-.13v.16a.68.68 0 0 1 0 .21m.08.01a.19.19 0 0 0 .07-.07.31.31 0 0 0 0-.14.34.34 0 0 1 0 .12l-.11.09m-.01.5s0-.08.09-.06a.08.08 0 0 1 .06.06.08.08 0 0 0-.06 0 .18.18 0 0 0-.09 0m-.15-.15l.19-.08h.15a.64.64 0 0 1-.15.12.39.39 0 0 1-.16.05s.17-.07.18-.1a.79.79 0 0 1-.21 0"/></g><path d="M15.54,6.9a.14.14,0,0,1,0,.2.15.15,0,0,1-.17,0" class="Aa"/><path d="M15.53,6.91a.12.12,0,0,1,0,.17.13.13,0,0,1-.15,0" fill="#e06a2a"/><path d="M15.47,7a.05.05,0,0,1,0,.05,0,0,0,0,1-.06,0,0,0,0,0,1,0,0"/><path d="M15.48,7h0a0,0,0,0,1,0,0h0a0,0,0,0,1,0,0" fill="#d2d1c8"/><path d="M15.57 6.81a.39.39 0 0 0 .1-.18.51.51 0 0 0 0-.17h0v.08.13a.11.11 0 0 0 .09 0 .66.66 0 0 0 .06-.33.34.34 0 0 1 0 .2.26.26 0 0 1-.17.23.5.5 0 0 0-.2.22 1 1 0 0 1-.12.16s.06-.08.09-.14a.64.64 0 0 1 .09-.15z" class="AX"/><path d="M15.53,6.87a.74.74,0,0,0,0-.16.31.31,0,0,0,0-.12s0,0,.05.12,0,.13-.05.17" class="Ak"/><path d="M15.69,6.74a.51.51,0,0,0,0-.16.23.23,0,0,0-.05-.12s.06,0,.07.13,0,.11,0,.15" class="AY"/><path d="M15.32 7.16a.13.13 0 0 1 0-.07l.08-.11a.69.69 0 0 0 .13-.16s.08-.15 0-.24a.29.29 0 0 1 0 .22.82.82 0 0 1-.17.2c-.06 0-.07.06-.06.09s0 0 0 .06h.05" class="AX"/><g fill="#664322"><path d="M16 7.41a0 0 0 0 0 0 0 .08.08 0 0 0 0-.08.16.16 0 0 0-.09-.06h-.1a.19.19 0 0 0 .07.07h.09c.03 0 0 .09 0 .09"/><path d="M16,7.41a.13.13,0,0,0,.08-.1.14.14,0,0,0,0-.06.07.07,0,0,0,0,0h0s0,.15-.15.15"/></g><path d="M15.46 7.39h0 0l.2-.05.06-.06-.05-.08h-.14z" fill="#b37f36"/><path d="M15.93 7.33v-.05a.08.08 0 0 0 0 0 .51.51 0 0 0-.15 0h-.08a.09.09 0 0 1-.07 0h-.14-.1-.09a.44.44 0 0 0-.07.07h0a.36.36 0 0 0-.17.23c0 .14.25.36.34.25s-.14-.11-.12-.2a.21.21 0 0 1 .21-.15.24.24 0 0 0 .17-.05.16.16 0 0 1 .21 0c.07.07-.26.14-.26.14v.05s.4-.14.37-.21" class="Ar"/><path d="M15.93 7.33h0v-.05h0a.09.09 0 0 0 0 0h-.15-.09-.06-.08-.05 0-.09-.12l-.06.06h0a.05.05 0 0 0 0 0h0 0l-.08.06a.32.32 0 0 0-.1.17h0a.29.29 0 0 0 .1.18.3.3 0 0 0 .18.09.12.12 0 0 0 .08 0h0l-.06-.06a.17.17 0 0 1 0-.1h0a.24.24 0 0 1 .07-.1.24.24 0 0 1 .13 0h.11.06a.18.18 0 0 1 .1 0 .14.14 0 0 1 .1 0h0 0-.06-.12-.09v.07h0l.19-.07.13-.07h0a.06.06 0 0 0 0 0h0 0l-.08.06-.17.08h-.07 0V7.6h0 .13.09 0a0 0 0 0 0 0 0 0 0 0 0 0 0 0 .16.16 0 0 0-.11 0 .19.19 0 0 0-.11 0h-.06-.19a.27.27 0 0 0-.14 0 .22.22 0 0 0-.08.11.07.07 0 0 0 0 0 .21.21 0 0 0 .06.12l.06.06h0a.08.08 0 0 1-.06 0 .28.28 0 0 1-.17-.08.25.25 0 0 1-.07-.3h0a.32.32 0 0 1 .09-.16h.05 0 0 0 .1.09 0 .14 0a.08.08 0 0 0 0 0h0 .09.14 0 0v.05z" class="AW"/><path d="M15.18 7.67s-.16 0-.15-.19a.25.25 0 0 1 .17-.21v-.09a.13.13 0 0 1 .1 0h.07s-.29.13-.29.3v.13" fill="#f9f2d7"/><path d="M15.93 7.31a.17.17 0 0 0-.16-.07h-.18-.1c-.06 0-.18-.1-.21-.09a.06.06 0 0 0 0 .06h-.06c-.01 0 0-.09.09-.09s.24.09.3.09h.18c.09 0 .18 0 .19.11" fill="#f8e9ae"/><path d="M15.48 7.42h.12.11l-.1.06h-.11z" fill="#4e392a"/><path d="M15.25 7.76a.27.27 0 0 1-.16-.06.3.3 0 0 1-.09-.16.23.23 0 0 1 .08-.2c.09-.1.11-.07.11-.07l-.08.07v.07.06.07.07l.13.08z" class="Ar"/><path d="M15.2 7.19h0 0a.05.05 0 0 0 0 0h0a0 0 0 0 0 0 0h.07a0 0 0 0 0 0 0h-.07 0 0a0 0 0 0 0 0 0h0" fill="#81512a"/><path d="M15.48 7.33l-.2.06h.24c.08 0 .23-.09.25 0s-.22.11-.22.11h0 .18.09 0l-.09-.07h-.14-.06z" class="Ar"/><path d="M15.19 7.61a.22.22 0 0 0 .08.12h0-.09a.28.28 0 0 1-.18-.21h0v.07l.06.06.1.06h.07.06 0l-.06-.05-.07-.12a.1.1 0 0 0 0 0" class="AW"/><path d="M15.84 9.35v.06h-.04l.01-.08.03.02zm-.24-1.81l-.07-.07-.04.01.06.09.05-.03z" class="Au"/><g class="At"><path d="M15.84 9.5h-.09-.12 0 0 .11.06 0zm-.01-.16h-.15a.18.18 0 0 0-.07 0h0 .06.14z"/><path d="M15.82 9.2l-.13.07-.08.06h0 0 .06.08 0zm-.09-.15h0a.17.17 0 0 1 0 .06h0l-.08.09v.05h0l.08-.08.06-.06h0a.14.14 0 0 0 0-.07h0z"/><path d="M15.62 9h0a.16.16 0 0 1 0 0 .2.2 0 0 1 0 .07v.11h0 0 0a1.55 1.55 0 0 0 .09-.18.3.3 0 0 0 0-.08.25.25 0 0 0 0 0z"/><path d="M15.5 9h0a.27.27 0 0 1 0 .09v.09.05h0l.05-.15a.28.28 0 0 0 0-.1.48.48 0 0 0 0-.06z"/><path d="M15.42 9v.06a.58.58 0 0 1 0 .1v.13h0 0v-.08a.92.92 0 0 0 0-.17zm-.09 0a.17.17 0 0 1 0 0 .48.48 0 0 1 0 .06.27.27 0 0 1 0 .07.9.9 0 0 0 0 .13h0 0a.54.54 0 0 1 0-.08.27.27 0 0 0 0-.07v-.08zm-.07 0h0a.44.44 0 0 1 0 .12v.1.05h0v-.15a.44.44 0 0 0 0-.12h0zm-.08 0h0a.09.09 0 0 1 0 0 .23.23 0 0 1 0 .11.33.33 0 0 1-.07.08h0 0 0a.41.41 0 0 0 .13-.12.25.25 0 0 0 0-.12.36.36 0 0 0 0 0z"/><path d="M15.13 9h0a.42.42 0 0 1 0 .1l-.13.05h0 0a.42.42 0 0 0 .11-.09.35.35 0 0 0 .03-.06zm-.08-.05h0 0 0H15h0 0 0V9h0 0z"/><path d="M15 8.9h0V9h0 0 0 0v-.09zm0-.04h0 0 0 0 0 0v.02zm0-.03h0 0 0 0 0 .07zm0-.07h0 0 0 0 .06 0zm0-.12h0a.13.13 0 0 0 0 .05h0 0 0 0 0 0zm.53-.64h.08 0-.08zm0-.08h0 .05 0 0 0 0-.05 0 0zm-.01-.08h0 .06 0 0 0-.06-.05zm-.02-.07l.08-.06.08-.06h0l-.09.06-.08.06zm-.06-.08l.17-.12h0l-.17.12zm-.07-.08l.1-.07.08-.05h0l-.08.05-.1.07zm-.06-.05l.08-.06h.06 0 0 0l-.14.1z"/></g><path d="M15.44 7.4h0a.81.81 0 0 1 .13.13.38.38 0 0 1 .09.22h0a.52.52 0 0 1-.13.27 3.79 3.79 0 0 1-.37.33 1 1 0 0 0-.15.16.3.3 0 0 0-.06.18h0a.34.34 0 0 0 .06.18.24.24 0 0 0 .17.1h0 .3a.29.29 0 0 1 .23.1.46.46 0 0 1 .09.3 1.23 1.23 0 0 1 0 .22.5.5 0 0 1 0 .07h0 0a1.44 1.44 0 0 0 0-.32.47.47 0 0 0-.09-.31.3.3 0 0 0-.24-.1h-.3 0A.22.22 0 0 1 15 8.9a.32.32 0 0 1 0-.17h0a.36.36 0 0 1 .1-.23c.09-.11.24-.21.36-.32a.67.67 0 0 0 .25-.39h0a.42.42 0 0 0-.12-.25 1 1 0 0 0-.12-.12z" class="Ah"/><path d="M15.45 7.37h0" class="Ar"/><path d="M15.47,7.39h0Z" class="AW"/><path d="M15.78 9.69h0 0z" class="AV"/><path d="M15.32 7.56l-.02-.02h-.02l.03.03.01-.01zm.05.05l-.01-.02h-.01l.01.02h.01z" class="Ag"/><path d="M15.44 7.69l-.01-.02-.01.01.02.02v-.01zm.06.08l-.01-.02-.02.01.02.02.01-.01zm.03.08l-.01-.03v.01.02h.01zm0 .08l.01-.02-.02-.01.01.03h0zm0 .05v-.03h0v.03h0zm-.64.77a.15.15 0 0 1 0 0h0z" class="Ah"/><path d="M14.89 8.8h0 0" class="Aa"/><path d="M14.89 8.89v-.02h-.01v.03l.01-.01z" class="Ah"/><path d="M14.89 8.917l.01-.002.004.02-.01.002zm.02.103L14.9 9h0v.02h.01zm.02.07l-.01-.02h0v.03l.01-.01z" class="Aa"/><path d="M14.98 9.2l-.01-.02h-.01l.01.02h.01zm.07.07h0 0zm.52.04h0" class="Ag"/><path d="M15.61 9.34h0 0z" class="Aa"/><path d="M15.62 9.37h0m0 .07a.14.14 0 0 0 0 0h0 0z" class="Ag"/><path d="M15.6 9.51v-.02h0l-.01.02h.01zm-.78-2.73h0z" class="Aa"/></g><g clip-path="url(#F)"><path d="M18.64 10.91l.37.44.44-.38-.37-.43-.44.37z" fill="url(#G)"/></g></g></svg>