<svg width="27" height="21" viewBox="0 0 27 21" fill="none" xmlns="http://www.w3.org/2000/svg">
<path d="M27 0H0V1.44791H27V0Z" fill="#D80031"/>
<path d="M27 1.44824H0V2.89615H27V1.44824Z" fill="white"/>
<path d="M27 2.89551H0V4.34341H27V2.89551Z" fill="#D80031"/>
<path d="M27 4.34375H0V5.79166H27V4.34375Z" fill="white"/>
<path d="M27 5.78125H0V7.22916H27V5.78125Z" fill="#D80031"/>
<path d="M27 7.22949H0V8.6774H27V7.22949Z" fill="white"/>
<path d="M27 8.67676H0V10.1247H27V8.67676Z" fill="#D80031"/>
<path d="M27 10.125H0V11.5729H27V10.125Z" fill="white"/>
<path d="M27 11.5732H0V13.0211H27V11.5732Z" fill="#D80031"/>
<path d="M27 13.0215H0V14.4694H27V13.0215Z" fill="white"/>
<path d="M27 14.458H0V15.9059H27V14.458Z" fill="#D80031"/>
<path d="M27 15.9062H0V17.3542H27V15.9062Z" fill="white"/>
<path d="M27 17.3545H0V18.8024H27V17.3545Z" fill="#D80031"/>
<path d="M27 18.8018H0V20.2497H27V18.8018Z" fill="white"/>
<path d="M15.7527 0H0V11.5729H15.7527V0Z" fill="#2530A9"/>
<path d="M4.21589 5.78122C4.21556 5.10608 4.35532 4.44304 4.62077 3.86048C4.88621 3.27792 5.26773 2.79692 5.72599 2.46707C6.18424 2.13723 6.70264 1.97048 7.22774 1.98402C7.75283 1.99756 8.26561 2.19091 8.7132 2.54412C8.22705 1.98495 7.62538 1.61863 6.98083 1.4894C6.33627 1.36016 5.6764 1.47353 5.08087 1.81581C4.48534 2.15809 3.97961 2.71466 3.62475 3.41832C3.26989 4.12197 3.08105 4.94263 3.08105 5.78122C3.08105 6.61981 3.26989 7.44047 3.62475 8.14412C3.97961 8.84778 4.48534 9.40435 5.08087 9.74663C5.6764 10.0889 6.33627 10.2023 6.98083 10.073C7.62538 9.94381 8.22705 9.57749 8.7132 9.01833C8.26561 9.37153 7.75283 9.56488 7.22774 9.57842C6.70264 9.59196 6.18424 9.42522 5.72599 9.09537C5.26773 8.76553 4.88621 8.28452 4.62077 7.70196C4.35532 7.1194 4.21556 6.45636 4.21589 5.78122Z" fill="#F5D028"/>
<path d="M10.9657 5.7813L12.5828 4.98495L10.8612 5.16077L12.0438 3.5267L10.5474 4.654L11.0623 2.52351L10.0969 4.37476L9.84745 2.17188L9.66241 3.75423L9.61413 4.20929L9.59804 4.37476L8.62456 2.52351L9.13946 4.654L7.64304 3.5267L8.83374 5.16077L7.104 4.98495L8.72111 5.7813L7.104 6.58799L8.83374 6.41217L7.64304 8.04624L9.13946 6.91894L8.62456 9.03909L9.59804 7.19818L9.61413 7.37399L9.66241 7.81871L9.84745 9.40106L10.0969 7.19818L11.0623 9.03909L10.5474 6.91894L12.0438 8.04624L10.8612 6.41217L12.5828 6.58799L10.9657 5.7813Z" fill="#F5D028"/>
</svg>
