<svg xmlns="http://www.w3.org/2000/svg" xmlns:xlink="http://www.w3.org/1999/xlink"  width="24" height="18" viewBox="0 0 33.75 19.91"><defs><style>.cls-1{fill:none;}.cls-2{clip-path:url(#clip-path);}.cls-3{fill:#1a237b;}.cls-4{fill:#fff;}.cls-5{fill:#bd0034;}</style><clipPath id="clip-path"><rect class="cls-1" x="7.09" y="-6.83" width="19.58" height="33.56" transform="translate(6.76 26.73) rotate(-89.44)"/></clipPath></defs><title>Asset 37</title><g id="Layer_2" data-name="Layer 2"><g id="_4" data-name="4"><g id="NEW_ZEALAND" data-name="NEW ZEALAND"><g class="cls-2"><polygon class="cls-3" points="16.98 0.17 16.97 0.79 16.97 1 16.97 1.1 13.23 2.92 16.95 2.96 16.95 3.52 16.94 4.36 16.93 5.2 16.92 5.76 13.2 5.72 16.91 7.62 16.9 7.93 16.9 8.56 16.9 8.61 15.75 8.6 15.32 8.6 15.12 8.6 9.92 5.93 9.9 8.54 9.34 8.54 8.5 8.53 7.66 8.52 7.1 8.52 7.13 5.9 1.88 8.46 1.25 8.46 0.11 8.45 0 19.58 33.56 19.91 33.75 0.33 16.98 0.17"/><polygon class="cls-3" points="0.14 5.59 0.12 7.45 3.85 5.63 0.14 5.59"/><polygon class="cls-3" points="9.98 0.1 9.96 2.66 15.1 0.15 9.98 0.1"/><polygon class="cls-3" points="7.18 0.07 2.07 0.02 7.16 2.63 7.18 0.07"/><polygon class="cls-3" points="0.16 2.8 3.88 2.83 0.18 0.94 0.16 2.8"/><polygon class="cls-4" points="16.97 0.16 11.35 2.91 10.1 2.89 15.72 0.15 15.1 0.15 9.96 2.66 9.98 0.1 9.42 0.09 9.39 2.93 9.39 3.24 9.39 3.45 10.23 3.46 11.48 3.47 11.9 3.47 12.1 3.47 16.95 3.52 16.95 2.96 13.23 2.92 16.97 1.1 16.97 1 16.97 0.79 16.98 0.17 16.97 0.16"/><polygon class="cls-4" points="7.18 0.07 7.16 2.63 2.07 0.02 0.19 0 5.76 2.85 4.51 2.84 0.19 0.63 0.18 0.94 3.88 2.83 0.16 2.8 0.16 3.36 4.99 3.4 5.62 3.41 6.87 3.42 7.71 3.43 7.71 3.23 7.71 3.01 7.71 2.91 7.74 0.07 7.18 0.07"/><polygon class="cls-4" points="11.46 5.15 10.21 5.13 9.37 5.13 9.37 5.33 9.37 5.54 9.37 5.64 9.34 8.54 9.9 8.54 9.92 5.93 15.12 8.6 15.32 8.6 15.75 8.6 16.9 8.61 16.9 8.56 11.32 5.7 12.57 5.72 16.9 7.93 16.91 7.62 13.2 5.72 16.92 5.76 16.93 5.2 12.09 5.15 11.46 5.15"/><polygon class="cls-4" points="6.85 5.1 5.6 5.09 5.17 5.08 4.98 5.08 0.14 5.04 0.14 5.59 3.85 5.63 0.12 7.45 0.11 8.39 5.73 5.65 6.98 5.66 1.25 8.46 1.88 8.46 7.13 5.9 7.1 8.52 7.66 8.52 7.69 5.63 7.69 5.32 7.69 5.11 6.85 5.1"/><polygon class="cls-5" points="5.73 5.65 0.11 8.39 0.11 8.45 1.25 8.46 6.98 5.66 5.73 5.65"/><polygon class="cls-5" points="0.19 0.63 4.51 2.84 5.76 2.85 0.19 0 0.19 0.63"/><polygon class="cls-5" points="16.97 0.16 15.72 0.15 10.1 2.89 11.35 2.91 16.97 0.16"/><polygon class="cls-5" points="11.32 5.7 16.9 8.56 16.9 7.93 12.57 5.72 11.32 5.7"/><polygon class="cls-5" points="7.74 0.07 7.71 2.91 7.71 3.01 7.71 3.23 7.71 3.43 6.87 3.42 5.62 3.41 4.99 3.4 0.16 3.36 0.14 5.04 4.98 5.08 5.17 5.08 5.6 5.09 6.85 5.1 7.69 5.11 7.69 5.32 7.69 5.63 7.66 8.52 8.5 8.53 9.34 8.54 9.37 5.64 9.37 5.54 9.37 5.33 9.37 5.13 10.21 5.13 11.46 5.15 12.09 5.15 16.93 5.2 16.94 4.36 16.95 3.52 12.1 3.47 11.9 3.47 11.48 3.47 10.23 3.46 9.39 3.45 9.39 3.24 9.39 2.93 9.42 0.09 7.74 0.07"/><polygon class="cls-4" points="23.43 5.94 24.34 5.95 24.64 5.09 24.91 5.96 25.82 5.96 25.08 6.5 25.35 7.37 24.62 6.82 23.87 7.35 24.16 6.49 23.43 5.94"/><polygon class="cls-5" points="23.84 6.08 24.44 6.08 24.63 5.51 24.81 6.09 25.41 6.09 24.92 6.44 25.1 7.02 24.62 6.66 24.13 7.01 24.32 6.44 23.84 6.08"/><polygon class="cls-4" points="19.75 9.58 20.66 9.59 20.95 8.72 21.22 9.59 22.14 9.6 21.39 10.13 21.66 11 20.93 10.46 20.19 10.98 20.48 10.12 19.75 9.58"/><polygon class="cls-5" points="20.15 9.71 20.75 9.72 20.95 9.15 21.13 9.72 21.73 9.73 21.24 10.08 21.42 10.65 20.93 10.29 20.44 10.64 20.64 10.07 20.15 9.71"/><polygon class="cls-4" points="26.66 8.73 27.48 8.74 27.73 7.97 27.98 8.75 28.79 8.76 28.13 9.22 28.37 10 27.72 9.52 27.06 9.99 27.32 9.21 26.66 8.73"/><polygon class="cls-5" points="27.02 8.86 27.56 8.86 27.73 8.35 27.89 8.86 28.43 8.87 27.99 9.18 28.15 9.69 27.72 9.37 27.28 9.68 27.45 9.18 27.02 8.86"/><polygon class="cls-4" points="23.21 15.37 24.22 15.38 24.54 14.42 24.85 15.39 25.86 15.4 25.03 15.98 25.34 16.95 24.52 16.35 23.7 16.94 24.02 15.97 23.21 15.37"/><polygon class="cls-5" points="23.66 15.52 24.32 15.53 24.54 14.89 24.74 15.53 25.41 15.54 24.86 15.93 25.07 16.57 24.53 16.17 23.98 16.56 24.2 15.92 23.66 15.52"/></g></g></g></g></svg>