<svg width="80" height="60" viewBox="0 0 80 60" fill="none" xmlns="http://www.w3.org/2000/svg">
<path d="M0 0H80V30H0V0Z" fill="#0038A8"/>
<path d="M0 30H80V60H0V30Z" fill="#CE1126"/>
<path d="M51.9625 30L0 60V0" fill="white"/>
<path d="M3.33848 5.29883L5.12598 6.87383L7.20098 5.72383L6.27598 7.91133L8.02598 9.53633L5.65098 9.33633L4.63848 11.4863L4.10098 9.17383L1.75098 8.87383L3.78848 7.62383L3.33848 5.29883ZM43.8135 26.8363L43.8635 29.2113L46.1135 29.9988L43.8635 30.7738L43.8135 33.1488L42.376 31.2613L40.101 31.9488L41.451 29.9988L40.101 28.0488L42.376 28.7363L43.8135 26.8363ZM4.65098 48.5113L5.65098 50.6613L8.02598 50.4613L6.28848 52.0863L7.21348 54.2738L5.13848 53.1363L3.33848 54.6863L3.78848 52.3488L1.75098 51.1238L4.11348 50.8238L4.65098 48.5113Z" fill="#FCD116"/>
<path d="M18.9281 17.3887L18.1531 18.1637L18.5406 24.0387L18.1656 24.0762L17.4531 18.7137L16.8156 19.3387L17.7656 24.1387C16.9975 24.2899 16.2668 24.5915 15.6156 25.0262L12.9031 20.9762H12.0031L15.3031 25.2637C15.2004 25.3437 15.1004 25.4271 15.0031 25.5137L11.1156 21.0762H10.0156V22.1762L14.4406 26.0512L14.1906 26.3637L9.90312 23.0762V23.9637L13.9656 26.6762C13.5406 27.3262 13.2281 28.0512 13.0781 28.8262L8.29063 27.8762L7.65312 28.5012L13.0156 29.2137C12.9906 29.3387 12.9781 29.4762 12.9781 29.6012L7.10312 29.2262L6.32812 30.0012L7.10312 30.7762L12.9781 30.3887L13.0156 30.7762L7.65312 31.4887L8.27812 32.1137L13.0781 31.1637C13.2293 31.9318 13.5309 32.6625 13.9656 33.3137L9.90312 36.0262V36.9262L14.1906 33.6387C14.2707 33.7414 14.3541 33.8414 14.4406 33.9387L10.0156 37.8137V38.9137H11.1281L15.0031 34.4887L15.3156 34.7387L12.0031 39.0262H12.9031L15.6156 34.9637C16.2531 35.3887 16.9906 35.7012 17.7656 35.8512L16.8156 40.6512L17.4406 41.2762L18.1531 35.9137C18.2781 35.9387 18.4031 35.9512 18.5406 35.9512L18.1656 41.8262L18.9281 42.6012L19.7156 41.8262L19.3281 35.9512L19.7031 35.9137L20.4156 41.2887L21.0531 40.6512L20.1031 35.8512C20.8713 35.7 21.602 35.3984 22.2531 34.9637L24.9656 39.0262H25.8656L22.5656 34.7387C22.6683 34.6586 22.7684 34.5752 22.8656 34.4887L26.7531 38.9137H27.8531V37.8137L23.4281 33.9387L23.6781 33.6387L27.9656 36.9262V36.0262L23.9031 33.3137C24.3281 32.6762 24.6406 31.9387 24.7906 31.1637L29.5781 32.1137L30.2156 31.4887L24.8531 30.7762C24.8781 30.6512 24.8906 30.5262 24.8906 30.3887L30.7656 30.7637L31.5406 30.0012L30.7656 29.2262L24.8906 29.6012L24.8531 29.2262L30.2156 28.5137L29.5906 27.8887L24.7906 28.8262C24.6394 28.058 24.3378 27.3273 23.9031 26.6762L27.9656 23.9637V23.0762L23.6781 26.3637C23.5981 26.261 23.5147 26.1609 23.4281 26.0637L27.8531 22.1887V21.0762H26.7531L22.8781 25.5137C22.7768 25.4269 22.6725 25.3435 22.5656 25.2637L25.8656 20.9762H24.9656L22.2531 25.0262C21.6156 24.6012 20.8781 24.2887 20.1031 24.1387L21.0531 19.3512L20.4281 18.7262L19.7156 24.0762L19.3281 24.0387L19.7031 18.1637L18.9281 17.3887Z" fill="#FCD116"/>
</svg>
