<svg width="24" height="18" viewBox="0 0 24 18" fill="none" xmlns="http://www.w3.org/2000/svg">
<path d="M0 0H24V9H0V0Z" fill="#0038A8"/>
<path d="M0 9H24V18H0V9Z" fill="#CE1126"/>
<path d="M15.5887 9L0 18V0" fill="white"/>
<path d="M0.999688 1.59009L1.53594 2.06259L2.15844 1.71759L1.88094 2.37384L2.40594 2.86134L1.69344 2.80134L1.38969 3.44634L1.22844 2.75259L0.523438 2.66259L1.13469 2.28759L0.999688 1.59009ZM13.1422 8.05134L13.1572 8.76384L13.8322 9.00009L13.1572 9.23259L13.1422 9.94509L12.7109 9.37884L12.0284 9.58509L12.4334 9.00009L12.0284 8.41509L12.7109 8.62134L13.1422 8.05134ZM1.39344 14.5538L1.69344 15.1988L2.40594 15.1388L1.88469 15.6263L2.16219 16.2826L1.53969 15.9413L0.999688 16.4063L1.13469 15.7051L0.523438 15.3376L1.23219 15.2476L1.39344 14.5538Z" fill="#FCD116"/>
<path d="M5.67453 5.21631L5.44203 5.44881L5.55828 7.21131L5.44578 7.22256L5.23203 5.61381L5.04078 5.80131L5.32578 7.24131C5.09533 7.28667 4.87612 7.37715 4.68078 7.50756L3.86703 6.29256H3.59703L4.58703 7.57881C4.55622 7.60283 4.52621 7.62784 4.49703 7.65381L3.33078 6.32256H3.00078V6.65256L4.32828 7.81506L4.25328 7.90881L2.96703 6.92256V7.18881L4.18578 8.00256C4.05828 8.19756 3.96453 8.41506 3.91953 8.64756L2.48328 8.36256L2.29203 8.55006L3.90078 8.76381C3.89328 8.80131 3.88953 8.84256 3.88953 8.88006L2.12703 8.76756L1.89453 9.00006L2.12703 9.23256L3.88953 9.11631L3.90078 9.23256L2.29203 9.44631L2.47953 9.63381L3.91953 9.34881C3.96489 9.57926 4.05537 9.79846 4.18578 9.99381L2.96703 10.8076V11.0776L4.25328 10.0913C4.2773 10.1221 4.30231 10.1521 4.32828 10.1813L3.00078 11.3438V11.6738H3.33453L4.49703 10.3463L4.59078 10.4213L3.59703 11.7076H3.86703L4.68078 10.4888C4.87203 10.6163 5.09328 10.7101 5.32578 10.7551L5.04078 12.1951L5.22828 12.3826L5.44203 10.7738C5.47953 10.7813 5.51703 10.7851 5.55828 10.7851L5.44578 12.5476L5.67453 12.7801L5.91078 12.5476L5.79453 10.7851L5.90703 10.7738L6.12078 12.3863L6.31203 12.1951L6.02703 10.7551C6.25748 10.7097 6.47669 10.6192 6.67203 10.4888L7.48578 11.7076H7.75578L6.76578 10.4213C6.79659 10.3973 6.8266 10.3723 6.85578 10.3463L8.02203 11.6738H8.35203V11.3438L7.02453 10.1813L7.09953 10.0913L8.38578 11.0776V10.8076L7.16703 9.99381C7.29453 9.80256 7.38828 9.58131 7.43328 9.34881L8.86953 9.63381L9.06078 9.44631L7.45203 9.23256C7.45953 9.19506 7.46328 9.15756 7.46328 9.11631L9.22578 9.22881L9.45828 9.00006L9.22578 8.76756L7.46328 8.88006L7.45203 8.76756L9.06078 8.55381L8.87328 8.36631L7.43328 8.64756C7.38792 8.41711 7.29744 8.1979 7.16703 8.00256L8.38578 7.18881V6.92256L7.09953 7.90881C7.07551 7.878 7.0505 7.84799 7.02453 7.81881L8.35203 6.65631V6.32256H8.02203L6.85953 7.65381C6.82912 7.62777 6.79785 7.60276 6.76578 7.57881L7.75578 6.29256H7.48578L6.67203 7.50756C6.48078 7.38006 6.25953 7.28631 6.02703 7.24131L6.31203 5.80506L6.12453 5.61756L5.91078 7.22256L5.79453 7.21131L5.90703 5.44881L5.67453 5.21631Z" fill="#FCD116"/>
</svg>
