<svg width="24" height="18" viewBox="0 0 24 18" fill="none" xmlns="http://www.w3.org/2000/svg">
<path d="M9.59961 0H23.9996V18H9.59961V0Z" fill="#FF0000"/>
<path d="M0 0H9.6V18H0V0Z" fill="#006600"/>
<path fill-rule="evenodd" clip-rule="evenodd" d="M12.7309 11.4825C11.5196 11.445 5.98086 7.98752 5.94336 7.43252L6.24711 6.92627C6.79836 7.72502 12.4609 11.0888 13.0196 10.9688L12.7309 11.4825Z" fill="#FFFF00" stroke="black" stroke-width="0.6" stroke-linecap="round" stroke-linejoin="round"/>
<path fill-rule="evenodd" clip-rule="evenodd" d="M6.18494 6.85504C6.07618 7.14754 7.63244 8.10754 9.49994 9.24754C11.3712 10.3838 12.9837 11.085 13.0999 10.9875L13.1562 10.8825C13.1337 10.92 13.0812 10.9313 12.9949 10.905C12.4887 10.7588 11.1724 10.155 9.54119 9.16504C7.90619 8.17504 6.48869 7.26379 6.26744 6.87754C6.25019 6.84133 6.24245 6.80132 6.24494 6.76129H6.23744L6.19244 6.84379L6.18494 6.85504ZM12.7587 11.4975C12.7399 11.535 12.6987 11.535 12.6274 11.5275C12.1774 11.4788 10.8049 10.8113 9.18119 9.84004C7.29119 8.70754 5.73118 7.68004 5.90368 7.41004L5.94869 7.32754L5.95619 7.33129C5.80619 7.78879 9.03494 9.63379 9.22619 9.75379C11.0937 10.9088 12.6687 11.5875 12.8074 11.4113L12.7587 11.4975Z" fill="#FFFF00" stroke="black" stroke-width="0.6" stroke-linecap="round" stroke-linejoin="round"/>
<path fill-rule="evenodd" clip-rule="evenodd" d="M9.60836 7.77002C10.8159 7.75877 12.3084 7.60502 13.1709 7.26002L12.9834 6.96002C12.4771 7.24127 10.9771 7.42877 9.59711 7.45502C7.96961 7.44002 6.81836 7.28627 6.24086 6.90002L6.06836 7.22252C7.12586 7.67253 8.21336 7.76627 9.60836 7.77002Z" fill="#FFFF00"/>
<path d="M9.60836 7.77002C10.8159 7.75877 12.3084 7.60503 13.1709 7.26002L12.9834 6.96002C12.4771 7.24127 10.9771 7.42877 9.59711 7.45502C7.96961 7.44002 6.81836 7.28627 6.24086 6.90002L6.06836 7.22252C7.12586 7.67253 8.21336 7.76627 9.60836 7.77002" stroke="black" stroke-width="0.6" stroke-linecap="round" stroke-linejoin="round"/>
<path fill-rule="evenodd" clip-rule="evenodd" d="M13.2191 7.26758C13.1891 7.31633 12.6266 7.50758 11.8016 7.65008C11.0743 7.76029 10.3396 7.8142 9.60406 7.81133C8.89932 7.81398 8.19521 7.76887 7.49656 7.67633C6.63031 7.54133 6.18406 7.35383 6.01531 7.28633L6.05656 7.20383C6.53281 7.39133 6.98281 7.50383 7.50781 7.58633C8.20136 7.67998 8.90047 7.72634 9.60031 7.72508C10.3321 7.72585 11.0628 7.67195 11.7866 7.56383C12.6303 7.42508 13.0916 7.24883 13.1591 7.17008L13.2191 7.27133V7.26758ZM13.0541 6.96383C12.9641 7.03883 12.5066 7.20008 11.7041 7.32758C11.0111 7.42784 10.3118 7.47797 9.61156 7.47758C8.78656 7.47758 8.10781 7.41758 7.59406 7.34258C6.77656 7.23758 6.34156 7.04258 6.18406 6.99008L6.23281 6.90758C6.35656 6.97133 6.77281 7.14008 7.60156 7.25633C8.26778 7.34557 8.93941 7.38817 9.61156 7.38383C10.3068 7.38405 11.0011 7.33392 11.6891 7.23383C12.4953 7.12133 12.9303 6.91883 12.9978 6.86633L13.0541 6.96383ZM5.63656 9.22508C6.37906 9.62633 8.03281 9.82508 9.59656 9.84008C11.0216 9.84383 12.8741 9.62258 13.5678 9.25508L13.5491 8.85383C13.3316 9.19133 11.3441 9.51758 9.58156 9.50633C7.81906 9.49133 6.18031 9.22133 5.63281 8.86883V9.22508" fill="#FFFF00"/>
<path d="M5.63656 9.22508C6.37906 9.62633 8.03281 9.82508 9.59656 9.84008C11.0216 9.84383 12.8741 9.62258 13.5678 9.25508L13.5491 8.85383C13.3316 9.19133 11.3441 9.51758 9.58156 9.50633C7.81906 9.49133 6.18031 9.22133 5.63281 8.86883V9.22508M13.2191 7.26758C13.1891 7.31633 12.6266 7.50758 11.8016 7.65008C11.0743 7.76029 10.3396 7.8142 9.60406 7.81133C8.89932 7.81398 8.19521 7.76887 7.49656 7.67633C6.63031 7.54133 6.18406 7.35383 6.01531 7.28633L6.05656 7.20383C6.53281 7.39133 6.98281 7.50383 7.50781 7.58633C8.20136 7.67998 8.90047 7.72634 9.60031 7.72508C10.3321 7.72585 11.0628 7.67195 11.7866 7.56383C12.6303 7.42508 13.0916 7.24883 13.1591 7.17008L13.2191 7.27133V7.26758ZM13.0541 6.96383C12.9641 7.03883 12.5066 7.20008 11.7041 7.32758C11.0111 7.42784 10.3118 7.47797 9.61156 7.47758C8.78656 7.47758 8.10781 7.41758 7.59406 7.34258C6.77656 7.23758 6.34156 7.04258 6.18406 6.99008L6.23281 6.90758C6.35656 6.97133 6.77281 7.14008 7.60156 7.25633C8.26778 7.34557 8.93941 7.38817 9.61156 7.38383C10.3068 7.38405 11.0011 7.33392 11.6891 7.23383C12.4953 7.12133 12.9303 6.91883 12.9978 6.86633L13.0541 6.96383V6.96383Z" stroke="black" stroke-width="0.6" stroke-linecap="round" stroke-linejoin="round"/>
<path fill-rule="evenodd" clip-rule="evenodd" d="M13.6054 9.16878V9.26253C13.5004 9.39003 12.8479 9.57753 12.0304 9.71253C11.2182 9.82928 10.3984 9.88444 9.57789 9.87753C8.79988 9.88416 8.02254 9.83025 7.25289 9.71629C6.6786 9.64992 6.11742 9.49825 5.58789 9.26628V9.15753C5.95164 9.39753 6.93414 9.57753 7.26414 9.63003C7.85664 9.72003 8.61789 9.78754 9.57789 9.78754C10.5866 9.78754 11.3929 9.71629 12.0154 9.62254C12.6041 9.53628 13.4404 9.31503 13.6054 9.16878ZM13.6054 8.83128V8.92503C13.5004 9.04878 12.8479 9.23628 12.0304 9.37128C11.2183 9.48928 10.3985 9.54569 9.57789 9.54003C8.79995 9.54461 8.02276 9.49071 7.25289 9.37878C6.6786 9.31242 6.11742 9.16075 5.58789 8.92878V8.81628C5.95164 9.06003 6.93789 9.23628 7.26414 9.28878C8.0302 9.401 8.80367 9.4549 9.57789 9.45003C10.5866 9.45003 11.3966 9.37503 12.0154 9.28128C12.6041 9.19878 13.4404 8.97753 13.6054 8.83128ZM9.59289 11.4113C7.88289 11.4038 6.41664 10.9463 6.10539 10.8713L6.33039 11.2238C7.38223 11.5963 8.49217 11.7779 9.60789 11.76C10.9091 11.7225 12.0454 11.6213 12.8441 11.2313L13.0766 10.8638C12.5329 11.1225 10.6766 11.4113 9.58914 11.4113" fill="#FFFF00"/>
<path d="M9.59289 11.4113C7.88289 11.4038 6.41664 10.9463 6.10539 10.8713L6.33039 11.2238C7.38223 11.5963 8.49217 11.7779 9.60789 11.76C10.9091 11.7225 12.0454 11.6213 12.8441 11.2313L13.0766 10.8638C12.5329 11.1225 10.6766 11.4113 9.58914 11.4113M13.6054 9.16878V9.26253C13.5004 9.39003 12.8479 9.57753 12.0304 9.71253C11.2182 9.82928 10.3984 9.88444 9.57789 9.87753C8.79988 9.88416 8.02254 9.83025 7.25289 9.71629C6.6786 9.64992 6.11742 9.49825 5.58789 9.26628V9.15753C5.95164 9.39753 6.93414 9.57753 7.26414 9.63003C7.85664 9.72003 8.61789 9.78754 9.57789 9.78754C10.5866 9.78754 11.3929 9.71629 12.0154 9.62254C12.6041 9.53628 13.4404 9.31503 13.6054 9.16878V9.16878ZM13.6054 8.83128V8.92503C13.5004 9.04878 12.8479 9.23628 12.0304 9.37128C11.2183 9.48928 10.3985 9.54569 9.57789 9.54003C8.79995 9.54461 8.02276 9.49071 7.25289 9.37878C6.6786 9.31242 6.11742 9.16075 5.58789 8.92878V8.81628C5.95164 9.06003 6.93789 9.23628 7.26414 9.28878C8.0302 9.401 8.80367 9.4549 9.57789 9.45003C10.5866 9.45003 11.3966 9.37503 12.0154 9.28128C12.6041 9.19878 13.4404 8.97753 13.6054 8.83128V8.83128Z" stroke="black" stroke-width="0.6" stroke-linecap="round" stroke-linejoin="round"/>
<path fill-rule="evenodd" clip-rule="evenodd" d="M12.9334 11.1488C12.8992 11.1993 12.8642 11.2494 12.8284 11.2988C12.4534 11.4338 11.8534 11.5763 11.6059 11.6138C10.9417 11.7375 10.2677 11.8003 9.59211 11.8013C8.07711 11.7788 6.83586 11.4825 6.25461 11.2275L6.20586 11.1488L6.21336 11.1338L6.29211 11.1675C7.35937 11.5207 8.47545 11.7042 9.59961 11.7113C10.3046 11.7113 11.0059 11.6325 11.5721 11.5313C12.4421 11.355 12.7946 11.2238 12.9034 11.1638L12.9296 11.1488H12.9334ZM13.1321 10.8188C13.1074 10.8627 13.0824 10.9064 13.0571 10.95C12.8546 11.025 12.3071 11.1825 11.5084 11.295C10.9834 11.3663 10.6571 11.4375 9.61086 11.4563C8.41484 11.4442 7.22618 11.2676 6.07836 10.9313L6.03711 10.8375C7.2033 11.1598 8.40498 11.3362 9.61461 11.3625C10.5709 11.3438 10.9796 11.2725 11.5009 11.2013C12.4309 11.0588 12.8996 10.9013 13.0384 10.86C13.0384 10.8575 13.0384 10.855 13.0384 10.8525L13.1359 10.815L13.1321 10.8188Z" fill="#FFFF00" stroke="black" stroke-width="0.6" stroke-linecap="round" stroke-linejoin="round"/>
<path fill-rule="evenodd" clip-rule="evenodd" d="M13.1553 8.91C13.1591 10.035 12.5816 11.0475 12.1203 11.49C11.4391 12.1544 10.5293 12.5328 9.57782 12.5475C8.44157 12.5662 7.37282 11.8275 7.08407 11.5013C6.4381 10.8162 6.07045 9.91514 6.05282 8.97375C6.12032 7.74375 6.60407 6.88875 7.30157 6.3C7.97914 5.74221 8.83148 5.44084 9.70907 5.44875C10.2214 5.47359 10.7228 5.60517 11.1813 5.83506C11.6398 6.06495 12.0452 6.38808 12.3716 6.78375C12.8403 7.35375 13.0466 7.9725 13.1553 8.91ZM9.58532 5.0625C10.6344 5.06247 11.6409 5.47714 12.3855 6.21612C13.1301 6.9551 13.5524 7.95847 13.5603 9.0075C13.5603 9.52803 13.4578 10.0435 13.2586 10.5244C13.0594 11.0053 12.7674 11.4422 12.3994 11.8103C12.0313 12.1784 11.5943 12.4703 11.1134 12.6695C10.6325 12.8687 10.1171 12.9712 9.59657 12.9712C9.07604 12.9712 8.56061 12.8687 8.07971 12.6695C7.5988 12.4703 7.16184 12.1784 6.79377 11.8103C6.42571 11.4422 6.13374 11.0053 5.93454 10.5244C5.73534 10.0435 5.63282 9.52803 5.63282 9.0075C5.62907 6.8325 7.40657 5.0625 9.58532 5.0625Z" fill="#FFFF00"/>
<path d="M9.58532 5.0625C10.6344 5.06247 11.6409 5.47714 12.3855 6.21612C13.1301 6.9551 13.5524 7.95847 13.5603 9.0075C13.5603 9.52803 13.4578 10.0435 13.2586 10.5244C13.0594 11.0053 12.7674 11.4422 12.3994 11.8103C12.0313 12.1784 11.5943 12.4703 11.1134 12.6695C10.6325 12.8687 10.1171 12.9712 9.59657 12.9712C9.07604 12.9712 8.56061 12.8687 8.07971 12.6695C7.5988 12.4703 7.16184 12.1784 6.79377 11.8103C6.42571 11.4422 6.13374 11.0053 5.93454 10.5244C5.73534 10.0435 5.63282 9.52803 5.63282 9.0075C5.62907 6.8325 7.40657 5.0625 9.58532 5.0625M13.1553 8.91C13.1591 10.035 12.5816 11.0475 12.1203 11.49C11.4391 12.1544 10.5293 12.5328 9.57782 12.5475C8.44157 12.5662 7.37282 11.8275 7.08407 11.5013C6.4381 10.8162 6.07045 9.91514 6.05282 8.97375C6.12032 7.74375 6.60407 6.88875 7.30157 6.3C7.97914 5.74221 8.83148 5.44084 9.70907 5.44875C10.2214 5.47359 10.7228 5.60517 11.1813 5.83506C11.6398 6.06495 12.0452 6.38808 12.3716 6.78375C12.8403 7.35375 13.0466 7.9725 13.1553 8.91V8.91Z" stroke="black" stroke-width="0.6" stroke-linecap="round" stroke-linejoin="round"/>
<path fill-rule="evenodd" clip-rule="evenodd" d="M9.59687 5.04376C11.7794 5.04376 13.5569 6.82126 13.5569 9.00376C13.5569 11.1863 11.7794 12.9638 9.60062 12.9638C7.42187 12.9638 5.64062 11.1863 5.64062 9.00376C5.64062 6.82126 7.41812 5.04376 9.60062 5.04376H9.59687ZM5.72313 9.00001C5.72313 11.13 7.47437 12.8738 9.59687 12.8738C11.7194 12.8738 13.4706 11.13 13.4706 9.00001C13.4706 6.87001 11.7194 5.12626 9.59687 5.12626C7.47437 5.12626 5.72313 6.87001 5.72313 9.00001Z" fill="#FFFF00" stroke="black" stroke-width="0.6" stroke-linecap="round" stroke-linejoin="round"/>
<path fill-rule="evenodd" clip-rule="evenodd" d="M9.60086 5.37378C10.5617 5.37675 11.4823 5.75975 12.1617 6.43916C12.8411 7.11857 13.2241 8.0392 13.2271 9.00003C13.2242 9.9612 12.8413 10.8822 12.162 11.5622C11.4827 12.2422 10.562 12.6261 9.60086 12.63C7.61336 12.63 5.97461 10.995 5.97461 9.00003C5.97856 8.0395 6.36188 7.11945 7.04108 6.44025C7.72028 5.76105 8.64033 5.37773 9.60086 5.37378ZM6.06086 9.00003C6.06086 10.95 7.65836 12.54 9.60086 12.54C11.5434 12.54 13.1409 10.9463 13.1409 9.00003C13.1409 7.05003 11.5434 5.46003 9.60086 5.46003C8.66321 5.46398 7.76509 5.83821 7.10206 6.50123C6.43904 7.16426 6.06481 8.06238 6.06086 9.00003Z" fill="#FFFF00" stroke="black" stroke-width="0.6" stroke-linecap="round" stroke-linejoin="round"/>
<path fill-rule="evenodd" clip-rule="evenodd" d="M9.76117 5.02502H9.41992V12.9863H9.75742L9.76117 5.02502Z" fill="#FFFF00" stroke="black" stroke-width="0.6" stroke-linecap="round" stroke-linejoin="round"/>
<path fill-rule="evenodd" clip-rule="evenodd" d="M9.72422 4.98004H9.81047V13.0313H9.72797V4.98004H9.72422ZM9.38672 4.98004H9.47672V13.0313H9.39047V4.98004H9.38672Z" fill="#FFFF00" stroke="black" stroke-width="0.6" stroke-linecap="round" stroke-linejoin="round"/>
<path fill-rule="evenodd" clip-rule="evenodd" d="M13.5598 9.15755V8.86505L13.3198 8.64005L11.9586 8.28005L10.0011 8.0813L7.63859 8.2013L5.95859 8.5988L5.62109 8.85005V9.1463L6.47984 8.76005L8.51984 8.4413H10.4811L11.9211 8.5988L12.9186 8.8388L13.5598 9.15755Z" fill="#FFFF00" stroke="black" stroke-width="0.6" stroke-linecap="round" stroke-linejoin="round"/>
<path fill-rule="evenodd" clip-rule="evenodd" d="M9.60039 8.39255C10.5341 8.39255 11.4379 8.4788 12.1616 8.61755C12.9041 8.76755 13.4254 8.95505 13.6054 9.1613V9.2663C13.3879 9.0038 12.6866 8.8163 12.1429 8.7038C11.4304 8.5688 10.5304 8.4788 9.59664 8.4788C8.61789 8.4788 7.70289 8.5763 6.99789 8.7113C6.43539 8.8238 5.68164 9.0488 5.58789 9.2663V9.15755C5.63664 9.00755 6.19914 8.78255 6.98664 8.6213C7.69539 8.48255 8.61039 8.39255 9.59664 8.39255H9.60039ZM9.60039 8.0513C10.4592 8.04957 11.3163 8.12488 12.1616 8.2763C12.9041 8.4263 13.4254 8.6138 13.6054 8.8238V8.92505C13.3879 8.6663 12.6866 8.47505 12.1429 8.3663C11.4304 8.22755 10.5304 8.1413 9.59664 8.1413C8.72632 8.13854 7.85761 8.21637 7.00164 8.3738C6.45789 8.47505 5.67414 8.70755 5.58789 8.92505V8.82005C5.64039 8.67005 6.21039 8.4338 6.98664 8.2838C7.69914 8.14505 8.61039 8.0513 9.60039 8.0513ZM9.57789 6.31879C11.0516 6.31129 12.3379 6.52505 12.9266 6.82505L13.1404 7.20005C12.6304 6.92255 11.2429 6.63755 9.58164 6.67505C8.22789 6.6863 6.78039 6.82505 6.05664 7.21505L6.31164 6.78755C6.90789 6.4763 8.31039 6.31879 9.57789 6.31879Z" fill="#FFFF00"/>
<path d="M9.57789 6.31879C11.0516 6.31129 12.3379 6.52505 12.9266 6.82505L13.1404 7.20005C12.6304 6.92255 11.2429 6.63755 9.58164 6.67505C8.22789 6.6863 6.78039 6.82505 6.05664 7.21505L6.31164 6.78755C6.90789 6.4763 8.31039 6.31879 9.57789 6.31879M9.60039 8.39255C10.5341 8.39255 11.4379 8.4788 12.1616 8.61755C12.9041 8.76755 13.4254 8.95505 13.6054 9.1613V9.2663C13.3879 9.0038 12.6866 8.8163 12.1429 8.7038C11.4304 8.5688 10.5304 8.4788 9.59664 8.4788C8.61789 8.4788 7.70289 8.5763 6.99789 8.7113C6.43539 8.8238 5.68164 9.0488 5.58789 9.2663V9.15755C5.63664 9.00755 6.19914 8.78255 6.98664 8.6213C7.69539 8.48255 8.61039 8.39255 9.59664 8.39255H9.60039ZM9.60039 8.0513C10.4592 8.04957 11.3163 8.12488 12.1616 8.2763C12.9041 8.4263 13.4254 8.6138 13.6054 8.8238V8.92505C13.3879 8.6663 12.6866 8.47505 12.1429 8.3663C11.4304 8.22755 10.5304 8.1413 9.59664 8.1413C8.72632 8.13854 7.85761 8.21637 7.00164 8.3738C6.45789 8.47505 5.67414 8.70755 5.58789 8.92505V8.82005C5.64039 8.67005 6.21039 8.4338 6.98664 8.2838C7.69914 8.14505 8.61039 8.0513 9.60039 8.0513V8.0513Z" stroke="black" stroke-width="0.6" stroke-linecap="round" stroke-linejoin="round"/>
<path fill-rule="evenodd" clip-rule="evenodd" d="M9.60125 6.62628C10.3707 6.6133 11.1399 6.66725 11.9 6.78753C12.5 6.90003 13.0737 7.06503 13.1562 7.15503L13.22 7.26753C13.0212 7.14003 12.5225 6.99378 11.885 6.87379C11.2475 6.75379 10.4337 6.71254 9.5975 6.71629C8.64875 6.71254 7.91 6.76129 7.28 6.87379C6.84571 6.93465 6.42406 7.06507 6.03125 7.26004L6.095 7.14378C6.32 7.03128 6.66875 6.89253 7.26125 6.78378C7.9175 6.66378 8.66375 6.63003 9.60125 6.62628ZM9.60125 6.28878C10.4037 6.28128 11.1987 6.32628 11.8175 6.43878C12.2184 6.4983 12.6063 6.62509 12.965 6.81378L13.0587 6.96378C12.9012 6.78753 12.3087 6.61879 11.78 6.52879C11.165 6.42004 10.4037 6.37878 9.60125 6.37128C8.85422 6.36463 8.10792 6.41981 7.37 6.53629C6.98415 6.59005 6.60941 6.70526 6.26 6.87753L6.3425 6.75379C6.56 6.64129 6.9125 6.53628 7.355 6.45004C8.09779 6.33204 8.84919 6.27684 9.60125 6.28504V6.28878ZM11.5662 10.65C10.9163 10.5375 10.257 10.4873 9.5975 10.5C7.14125 10.53 6.35 11.0063 6.2525 11.1488L6.065 10.8488C6.695 10.3988 8.03 10.1438 9.6125 10.1663C10.4337 10.1813 11.1425 10.2375 11.735 10.3538L11.5662 10.6538" fill="#FFFF00"/>
<path d="M11.5662 10.65C10.9163 10.5375 10.257 10.4873 9.5975 10.5C7.14125 10.53 6.35 11.0063 6.2525 11.1488L6.065 10.8488C6.695 10.3988 8.03 10.1438 9.6125 10.1663C10.4337 10.1813 11.1425 10.2375 11.735 10.3538L11.5662 10.6538M9.60125 6.62628C10.3707 6.6133 11.1399 6.66725 11.9 6.78753C12.5 6.90003 13.0737 7.06503 13.1562 7.15503L13.22 7.26753C13.0212 7.14003 12.5225 6.99378 11.885 6.87378C11.2475 6.75379 10.4337 6.71254 9.5975 6.71629C8.64875 6.71254 7.91 6.76129 7.28 6.87378C6.84571 6.93465 6.42406 7.06507 6.03125 7.26004L6.095 7.14378C6.32 7.03128 6.66875 6.89253 7.26125 6.78378C7.9175 6.66378 8.66375 6.63003 9.60125 6.62628V6.62628ZM9.60125 6.28878C10.4037 6.28128 11.1987 6.32628 11.8175 6.43878C12.2184 6.4983 12.6063 6.62509 12.965 6.81378L13.0587 6.96378C12.9012 6.78753 12.3087 6.61879 11.78 6.52879C11.165 6.42004 10.4037 6.37878 9.60125 6.37128C8.85422 6.36463 8.10792 6.41981 7.37 6.53629C6.98415 6.59005 6.60941 6.70526 6.26 6.87753L6.3425 6.75379C6.56 6.64129 6.9125 6.53628 7.355 6.45004C8.09779 6.33204 8.84919 6.27684 9.60125 6.28504V6.28878Z" stroke="black" stroke-width="0.6" stroke-linecap="round" stroke-linejoin="round"/>
<path fill-rule="evenodd" clip-rule="evenodd" d="M9.58445 10.4588C10.267 10.47 10.9345 10.4963 11.5832 10.6163L11.5382 10.6988C10.9382 10.5863 10.2932 10.5488 9.5882 10.5488C8.67695 10.5413 7.76195 10.6275 6.9632 10.8563C6.71195 10.9275 6.2957 11.0888 6.2507 11.2238L6.2057 11.1488C6.2207 11.0663 6.4682 10.9013 6.9407 10.7738C7.8557 10.5113 8.7107 10.4625 9.58445 10.4588ZM9.61445 10.1138C10.3348 10.113 11.0539 10.1758 11.7632 10.3013L11.7145 10.3875C11.0218 10.2605 10.3187 10.1989 9.61445 10.2038C8.70695 10.2038 7.7432 10.2713 6.8657 10.5263C6.58445 10.6088 6.0932 10.7888 6.0782 10.9275L6.0332 10.845C6.0407 10.7175 6.46445 10.5488 6.84695 10.44C7.7282 10.1813 8.6957 10.1175 9.61445 10.1138Z" fill="#FFFF00" stroke="black" stroke-width="0.6" stroke-linecap="round" stroke-linejoin="round"/>
<path fill-rule="evenodd" clip-rule="evenodd" d="M13.1041 10.8938L12.8116 11.355L11.9604 10.6013L9.76289 9.12004L7.28039 7.75879L5.99414 7.32004L6.26789 6.81004L6.36164 6.76129L7.16039 6.96004L9.80039 8.32129L11.3229 9.28129L12.6016 10.2L13.1229 10.8L13.1041 10.8938Z" fill="#FFFF00" stroke="black" stroke-width="0.6" stroke-linecap="round" stroke-linejoin="round"/>
<path fill-rule="evenodd" clip-rule="evenodd" d="M5.94914 7.33132C6.17414 7.18132 7.83164 7.91632 9.57164 8.96632C11.3004 10.0163 12.9579 11.2013 12.8079 11.4226L12.7591 11.5013L12.7366 11.5201C12.7404 11.5163 12.7666 11.4826 12.7366 11.4038C12.6616 11.1601 11.4841 10.2226 9.53789 9.04507C7.63664 7.91632 6.05414 7.23382 5.90039 7.42882L5.94914 7.33132ZM13.1641 10.8901C13.3066 10.6051 11.7691 9.44632 9.86039 8.31757C7.91039 7.21132 6.50039 6.55882 6.24164 6.75382L6.18914 6.86257C6.18914 6.86632 6.18914 6.85507 6.20414 6.84382C6.24914 6.80632 6.32789 6.80632 6.36164 6.80632C6.80414 6.81382 8.06789 7.39507 9.84164 8.41132C10.6216 8.86132 13.1266 10.4738 13.1154 10.9238C13.1154 10.9613 13.1191 10.9688 13.1041 10.9913L13.1679 10.8938L13.1641 10.8901Z" fill="#FFFF00" stroke="black" stroke-width="0.6" stroke-linecap="round" stroke-linejoin="round"/>
<path d="M7.22461 9.44124C7.2252 9.75174 7.28738 10.059 7.40753 10.3454C7.52769 10.6317 7.70344 10.8913 7.92461 11.1092C8.14309 11.3311 8.4033 11.5075 8.69026 11.6283C8.97722 11.7491 9.28526 11.812 9.59661 11.8132C10.2268 11.8132 10.8311 11.5628 11.2766 11.1172C11.497 10.8981 11.672 10.6376 11.7914 10.3507C11.9108 10.0637 11.9724 9.75603 11.9726 9.44524V6.27723L7.22461 6.26923V9.44124Z" fill="white" stroke="black" stroke-width="0.7"/>
<path d="M7.3125 9.44524C7.31334 9.74309 7.37316 10.0378 7.4885 10.3124C7.60384 10.5871 7.77241 10.8361 7.9845 11.0452C8.41037 11.4733 8.98866 11.715 9.5925 11.7172C10.1953 11.7176 10.7736 11.4788 11.2005 11.0532C11.4119 10.8438 11.5797 10.5946 11.6944 10.32C11.809 10.0454 11.8682 9.75081 11.8685 9.45324V6.37323H7.3205V9.44524H7.3125ZM10.9605 7.29723V9.25324L10.9565 9.45724C10.9579 9.63593 10.9231 9.81307 10.8544 9.97802C10.7857 10.143 10.6843 10.2924 10.5565 10.4172C10.3021 10.6725 9.95686 10.8164 9.5965 10.8172C9.2205 10.8172 8.8885 10.6572 8.6405 10.4092C8.38525 10.1549 8.24138 9.80959 8.2405 9.44924V7.28923L10.9605 7.29723Z" fill="#FF0000" stroke="black" stroke-width="0.5"/>
<path d="M7.60938 7.17727C7.61338 6.95727 7.76938 6.90527 7.76938 6.90527C7.77338 6.90527 7.94138 6.96127 7.94138 7.18127H7.60938" fill="#FFFF00"/>
<path d="M7.4722 6.90927L7.4442 7.16127H7.6122C7.6122 6.95327 7.7722 6.92127 7.7722 6.92127C7.7762 6.92127 7.9322 6.96527 7.9362 7.16127H8.1042L8.0722 6.90527H7.4722V6.90927ZM7.4322 7.16528H8.1122C8.1242 7.16528 8.1362 7.17728 8.1362 7.19328C8.1362 7.21328 8.1242 7.22528 8.1122 7.22528H7.4322C7.4202 7.22528 7.4082 7.21328 7.4082 7.19328C7.4082 7.17728 7.4202 7.16528 7.4362 7.16528H7.4322Z" fill="#FFFF00" stroke="black" stroke-width="0.5"/>
<path d="M7.67983 7.16123C7.67983 7.02923 7.77183 6.99323 7.77183 6.99323C7.77183 6.99323 7.86383 7.03323 7.86383 7.16123H7.67983ZM7.44783 6.80123H8.09983C8.11183 6.80123 8.12383 6.81723 8.12383 6.83323C8.12383 6.84523 8.11183 6.85723 8.09983 6.85723H7.44783C7.43583 6.85723 7.42383 6.84523 7.42383 6.82923C7.42383 6.81723 7.43583 6.80523 7.44783 6.80523V6.80123ZM7.46383 6.86123H8.07983C8.09183 6.86123 8.10383 6.87323 8.10383 6.88923C8.10383 6.90523 8.09183 6.91723 8.07983 6.91723H7.45983C7.44383 6.91723 7.43583 6.90523 7.43583 6.88923C7.43583 6.87323 7.44383 6.86123 7.45983 6.86123H7.46383ZM7.66383 6.43723H7.71183V6.46923H7.74783V6.43723H7.79983V6.47323H7.83583V6.43323H7.88383V6.51323C7.88383 6.52923 7.87583 6.53723 7.86383 6.53723H7.68783C7.67583 6.53723 7.66383 6.52923 7.66383 6.51723V6.43723ZM7.84783 6.54523L7.85983 6.80123H7.68783L7.69983 6.54123H7.84783" fill="#FFFF00"/>
<path d="M7.84783 6.54523L7.85983 6.80123H7.68783L7.69983 6.54123H7.84783M7.67983 7.16123C7.67983 7.02923 7.77183 6.99323 7.77183 6.99323C7.77183 6.99323 7.86383 7.03323 7.86383 7.16123H7.67983ZM7.44783 6.80123H8.09983C8.11183 6.80123 8.12383 6.81723 8.12383 6.83323C8.12383 6.84523 8.11183 6.85723 8.09983 6.85723H7.44783C7.43583 6.85723 7.42383 6.84523 7.42383 6.82923C7.42383 6.81723 7.43583 6.80523 7.44783 6.80523V6.80123ZM7.46383 6.86123H8.07983C8.09183 6.86123 8.10383 6.87323 8.10383 6.88923C8.10383 6.90523 8.09183 6.91723 8.07983 6.91723H7.45983C7.44383 6.91723 7.43583 6.90523 7.43583 6.88923C7.43583 6.87323 7.44383 6.86123 7.45983 6.86123H7.46383ZM7.66383 6.43723H7.71183V6.46923H7.74783V6.43723H7.79983V6.47323H7.83583V6.43323H7.88383V6.51323C7.88383 6.52923 7.87583 6.53723 7.86383 6.53723H7.68783C7.67583 6.53723 7.66383 6.52923 7.66383 6.51723V6.43723Z" stroke="black" stroke-width="0.5"/>
<path d="M7.64047 6.66522V6.80122H7.48047V6.66522H7.64047Z" fill="#FFFF00" stroke="black" stroke-width="0.5"/>
<path d="M7.45312 6.56122H7.50113V6.60122H7.53713V6.56122H7.58513V6.60122H7.62113V6.56122H7.66913V6.64122C7.66913 6.65722 7.66113 6.66522 7.64913 6.66522H7.47712C7.47076 6.66522 7.46466 6.66269 7.46015 6.65819C7.45565 6.65369 7.45312 6.64758 7.45312 6.64122V6.56122Z" fill="#FFFF00" stroke="black" stroke-width="0.5"/>
<path d="M7.75586 6.62524C7.75586 6.60124 7.79186 6.60124 7.79186 6.62524V6.68924H7.75586V6.62524Z" fill="black"/>
<path d="M7.54492 6.71319C7.54492 6.68919 7.57693 6.68919 7.57693 6.71319V6.76119H7.54492V6.71319Z" fill="black"/>
<path d="M9.3047 9.09722C9.30398 9.18165 9.33544 9.26318 9.3927 9.32522C9.41942 9.35509 9.45207 9.37906 9.48857 9.39559C9.52508 9.41212 9.56463 9.42085 9.6047 9.42122C9.68871 9.42122 9.76471 9.38122 9.81671 9.32522C9.87397 9.26318 9.90543 9.18165 9.90471 9.09722V8.66522H9.3047V9.09722Z" fill="#003399"/>
<path d="M9.44477 8.88923C9.4779 8.88923 9.50477 8.86237 9.50477 8.82923C9.50477 8.79609 9.4779 8.76923 9.44477 8.76923C9.41163 8.76923 9.38477 8.79609 9.38477 8.82923C9.38477 8.86237 9.41163 8.88923 9.44477 8.88923Z" fill="white"/>
<path d="M9.7768 8.88923C9.80993 8.88923 9.8368 8.86237 9.8368 8.82923C9.8368 8.79609 9.80993 8.76923 9.7768 8.76923C9.74366 8.76923 9.7168 8.79609 9.7168 8.82923C9.7168 8.86237 9.74366 8.88923 9.7768 8.88923Z" fill="white"/>
<path d="M9.60883 9.0492C9.64196 9.0492 9.66883 9.02234 9.66883 8.9892C9.66883 8.95606 9.64196 8.9292 9.60883 8.9292C9.57569 8.9292 9.54883 8.95606 9.54883 8.9892C9.54883 9.02234 9.57569 9.0492 9.60883 9.0492Z" fill="white"/>
<path d="M9.44477 9.21723C9.4779 9.21723 9.50477 9.19037 9.50477 9.15723C9.50477 9.12409 9.4779 9.09723 9.44477 9.09723C9.41163 9.09723 9.38477 9.12409 9.38477 9.15723C9.38477 9.19037 9.41163 9.21723 9.44477 9.21723Z" fill="white"/>
<path d="M9.7768 9.21723C9.80993 9.21723 9.8368 9.19037 9.8368 9.15723C9.8368 9.12409 9.80993 9.09723 9.7768 9.09723C9.74366 9.09723 9.7168 9.12409 9.7168 9.15723C9.7168 9.19037 9.74366 9.21723 9.7768 9.21723Z" fill="white"/>
</svg>
