<svg width="80" height="60" viewBox="0 0 80 60" fill="none" xmlns="http://www.w3.org/2000/svg">
<path d="M31.999 0H79.999V60H31.999V0Z" fill="#FF0000"/>
<path d="M0 0H32V60H0V0Z" fill="#006600"/>
<path fill-rule="evenodd" clip-rule="evenodd" d="M42.4385 38.2764C38.401 38.1514 19.9385 26.6264 19.8135 24.7764L20.826 23.0889C22.6635 25.7514 41.5385 36.9639 43.401 36.5639L42.4385 38.2764Z" fill="#FFFF00" stroke="black" stroke-width="0.2" stroke-linecap="round" stroke-linejoin="round"/>
<path fill-rule="evenodd" clip-rule="evenodd" d="M20.6158 22.8516C20.2533 23.8266 25.4408 27.0266 31.6658 30.8266C37.9033 34.6141 43.2783 36.9516 43.6658 36.6266L43.8533 36.2766C43.7783 36.4016 43.6033 36.439 43.3158 36.3516C41.6283 35.864 37.2408 33.8516 31.8033 30.5516C26.3533 27.2516 21.6283 24.2141 20.8908 22.9266C20.8333 22.8059 20.8075 22.6725 20.8158 22.5391H20.7908L20.6408 22.8141L20.6158 22.8516ZM42.5283 38.3266C42.4658 38.4516 42.3283 38.4515 42.0908 38.4265C40.5908 38.264 36.0158 36.0391 30.6033 32.8016C24.3033 29.0266 19.1033 25.6016 19.6783 24.7016L19.8283 24.4266L19.8533 24.4391C19.3533 25.9641 30.1158 32.1141 30.7533 32.5141C36.9783 36.3641 42.2283 38.6265 42.6908 38.039L42.5283 38.3266Z" fill="#FFFF00" stroke="black" stroke-width="0.2" stroke-linecap="round" stroke-linejoin="round"/>
<path fill-rule="evenodd" clip-rule="evenodd" d="M32.0275 25.901C36.0525 25.8635 41.0275 25.351 43.9025 24.201L43.2775 23.201C41.59 24.1385 36.59 24.7635 31.99 24.851C26.565 24.801 22.7275 24.2885 20.8025 23.001L20.2275 24.076C23.7525 25.576 27.3775 25.8885 32.0275 25.901Z" fill="#FFFF00"/>
<path d="M32.0275 25.901C36.0525 25.8635 41.0275 25.351 43.9025 24.201L43.2775 23.201C41.59 24.1385 36.59 24.7635 31.99 24.851C26.565 24.801 22.7275 24.2885 20.8025 23.001L20.2275 24.076C23.7525 25.576 27.3775 25.8885 32.0275 25.901" stroke="black" stroke-width="0.2" stroke-linecap="round" stroke-linejoin="round"/>
<path fill-rule="evenodd" clip-rule="evenodd" d="M44.0629 24.2281C43.9629 24.3906 42.0879 25.0281 39.3379 25.5031C36.9137 25.8705 34.4647 26.0502 32.0129 26.0406C29.6637 26.0494 27.3167 25.8991 24.9879 25.5906C22.1004 25.1406 20.6129 24.5156 20.0504 24.2906L20.1879 24.0156C21.7754 24.6406 23.2754 25.0156 25.0254 25.2906C27.3372 25.6028 29.6676 25.7573 32.0004 25.7531C34.4395 25.7557 36.8755 25.576 39.2879 25.2156C42.1004 24.7531 43.6379 24.1656 43.8629 23.9031L44.0629 24.2406V24.2281ZM43.5129 23.2156C43.2129 23.4656 41.6879 24.0031 39.0129 24.4281C36.7029 24.7623 34.3719 24.9294 32.0379 24.9281C29.2879 24.9281 27.0254 24.7281 25.3129 24.4781C22.5879 24.1281 21.1379 23.4781 20.6129 23.3031L20.7754 23.0281C21.1879 23.2406 22.5754 23.8031 25.3379 24.1906C27.5586 24.4881 29.7974 24.6301 32.0379 24.6156C34.3553 24.6163 36.6697 24.4492 38.9629 24.1156C41.6504 23.7406 43.1004 23.0656 43.3254 22.8906L43.5129 23.2156ZM18.7879 30.7531C21.2629 32.0906 26.7754 32.7531 31.9879 32.8031C36.7379 32.8156 42.9129 32.0781 45.2254 30.8531L45.1629 29.5156C44.4379 30.6406 37.8129 31.7281 31.9379 31.6906C26.0629 31.6406 20.6004 30.7406 18.7754 29.5656V30.7531" fill="#FFFF00"/>
<path d="M18.7879 30.7531C21.2629 32.0906 26.7754 32.7531 31.9879 32.8031C36.7379 32.8156 42.9129 32.0781 45.2254 30.8531L45.1629 29.5156C44.4379 30.6406 37.8129 31.7281 31.9379 31.6906C26.0629 31.6406 20.6004 30.7406 18.7754 29.5656V30.7531M44.0629 24.2281C43.9629 24.3906 42.0879 25.0281 39.3379 25.5031C36.9137 25.8705 34.4647 26.0502 32.0129 26.0406C29.6637 26.0494 27.3167 25.8991 24.9879 25.5906C22.1004 25.1406 20.6129 24.5156 20.0504 24.2906L20.1879 24.0156C21.7754 24.6406 23.2754 25.0156 25.0254 25.2906C27.3372 25.6028 29.6676 25.7573 32.0004 25.7531C34.4395 25.7557 36.8755 25.576 39.2879 25.2156C42.1004 24.7531 43.6379 24.1656 43.8629 23.9031L44.0629 24.2406V24.2281ZM43.5129 23.2156C43.2129 23.4656 41.6879 24.0031 39.0129 24.4281C36.7029 24.7623 34.3719 24.9294 32.0379 24.9281C29.2879 24.9281 27.0254 24.7281 25.3129 24.4781C22.5879 24.1281 21.1379 23.4781 20.6129 23.3031L20.7754 23.0281C21.1879 23.2406 22.5754 23.8031 25.3379 24.1906C27.5586 24.4881 29.7974 24.6301 32.0379 24.6156C34.3553 24.6163 36.6697 24.4492 38.9629 24.1156C41.6504 23.7406 43.1004 23.0656 43.3254 22.8906L43.5129 23.2156V23.2156Z" stroke="black" stroke-width="0.2" stroke-linecap="round" stroke-linejoin="round"/>
<path fill-rule="evenodd" clip-rule="evenodd" d="M45.351 30.5637V30.8762C45.001 31.3012 42.826 31.9262 40.101 32.3762C37.3937 32.7653 34.6609 32.9492 31.926 32.9262C29.3326 32.9483 26.7415 32.7686 24.176 32.3887C22.2617 32.1675 20.3911 31.6619 18.626 30.8887V30.5262C19.8385 31.3262 23.1135 31.9262 24.2135 32.1012C26.1885 32.4012 28.726 32.6262 31.926 32.6262C35.2885 32.6262 37.976 32.3887 40.051 32.0762C42.0135 31.7887 44.801 31.0512 45.351 30.5637ZM45.351 29.4387V29.7512C45.001 30.1637 42.826 30.7887 40.101 31.2387C37.3941 31.632 34.6613 31.82 31.926 31.8012C29.3328 31.8164 26.7422 31.6368 24.176 31.2637C22.2617 31.0425 20.3911 30.5369 18.626 29.7637V29.3887C19.8385 30.2012 23.126 30.7887 24.2135 30.9637C26.767 31.3377 29.3452 31.5174 31.926 31.5012C35.2885 31.5012 37.9885 31.2512 40.051 30.9387C42.0135 30.6637 44.801 29.9262 45.351 29.4387ZM31.976 38.0387C26.276 38.0137 21.3885 36.4887 20.351 36.2387L21.101 37.4137C24.6071 38.6555 28.3069 39.2608 32.026 39.2012C36.3635 39.0762 40.151 38.7387 42.8135 37.4387L43.5885 36.2137C41.776 37.0762 35.5885 38.0387 31.9635 38.0387" fill="#FFFF00"/>
<path d="M31.976 38.0387C26.276 38.0137 21.3885 36.4887 20.351 36.2387L21.101 37.4137C24.6071 38.6555 28.3069 39.2608 32.026 39.2012C36.3635 39.0762 40.151 38.7387 42.8135 37.4387L43.5885 36.2137C41.776 37.0762 35.5885 38.0387 31.9635 38.0387M45.351 30.5637V30.8762C45.001 31.3012 42.826 31.9262 40.101 32.3762C37.3937 32.7653 34.6609 32.9492 31.926 32.9262C29.3326 32.9483 26.7415 32.7686 24.176 32.3887C22.2617 32.1675 20.3911 31.6619 18.626 30.8887V30.5262C19.8385 31.3262 23.1135 31.9262 24.2135 32.1012C26.1885 32.4012 28.726 32.6262 31.926 32.6262C35.2885 32.6262 37.976 32.3887 40.051 32.0762C42.0135 31.7887 44.801 31.0512 45.351 30.5637V30.5637ZM45.351 29.4387V29.7512C45.001 30.1637 42.826 30.7887 40.101 31.2387C37.3941 31.632 34.6613 31.82 31.926 31.8012C29.3328 31.8164 26.7422 31.6368 24.176 31.2637C22.2617 31.0425 20.3911 30.5369 18.626 29.7637V29.3887C19.8385 30.2012 23.126 30.7887 24.2135 30.9637C26.767 31.3377 29.3452 31.5174 31.926 31.5012C35.2885 31.5012 37.9885 31.2512 40.051 30.9387C42.0135 30.6637 44.801 29.9262 45.351 29.4387V29.4387Z" stroke="black" stroke-width="0.2" stroke-linecap="round" stroke-linejoin="round"/>
<path fill-rule="evenodd" clip-rule="evenodd" d="M43.1135 37.1643C42.9997 37.3329 42.883 37.4996 42.7635 37.6643C41.5135 38.1143 39.5135 38.5893 38.6885 38.7143C36.4747 39.1268 34.2278 39.336 31.976 39.3393C26.926 39.2643 22.7885 38.2768 20.851 37.4268L20.6885 37.1643L20.7135 37.1143L20.976 37.2268C24.5335 38.404 28.2538 39.0156 32.001 39.0393C34.351 39.0393 36.6885 38.7768 38.576 38.4393C41.476 37.8518 42.651 37.4143 43.0135 37.2143L43.101 37.1643H43.1135ZM43.776 36.0643C43.6937 36.2107 43.6103 36.3565 43.526 36.5018C42.851 36.7518 41.026 37.2768 38.3635 37.6518C36.6135 37.8893 35.526 38.1268 32.0385 38.1893C28.0517 38.1492 24.0895 37.5604 20.2635 36.4393L20.126 36.1268C24.0133 37.2011 28.0189 37.7889 32.051 37.8768C35.2385 37.8143 36.601 37.5768 38.3385 37.3393C41.4385 36.8643 43.001 36.3393 43.4635 36.2018C43.4638 36.1934 43.4638 36.1851 43.4635 36.1768L43.7885 36.0518L43.776 36.0643Z" fill="#FFFF00" stroke="black" stroke-width="0.2" stroke-linecap="round" stroke-linejoin="round"/>
<path fill-rule="evenodd" clip-rule="evenodd" d="M43.8504 29.7C43.8629 33.45 41.9379 36.825 40.4004 38.3C38.1296 40.5147 35.097 41.7761 31.9254 41.825C28.1379 41.8875 24.5754 39.425 23.6129 38.3375C21.4597 36.0541 20.2342 33.0505 20.1754 29.9125C20.4004 25.8125 22.0129 22.9625 24.3379 21C26.5965 19.1407 29.4376 18.1361 32.3629 18.1625C34.0706 18.2453 35.7421 18.6839 37.2704 19.4502C38.7987 20.2165 40.1501 21.2936 41.2379 22.6125C42.8004 24.5125 43.4879 26.575 43.8504 29.7ZM31.9504 16.875C35.4473 16.8749 38.8024 18.2571 41.2844 20.7204C43.7664 23.1837 45.174 26.5282 45.2004 30.025C45.2004 31.7601 44.8587 33.4782 44.1947 35.0812C43.5307 36.6842 42.5575 38.1408 41.3306 39.3676C40.1037 40.5945 38.6471 41.5678 37.0441 42.2318C35.4411 42.8957 33.723 43.2375 31.9879 43.2375C30.2528 43.2375 28.5347 42.8957 26.9317 42.2318C25.3287 41.5678 23.8722 40.5945 22.6453 39.3676C21.4184 38.1408 20.4451 36.6842 19.7812 35.0812C19.1172 33.4782 18.7754 31.7601 18.7754 30.025C18.7629 22.775 24.6879 16.875 31.9504 16.875Z" fill="#FFFF00"/>
<path d="M31.9504 16.875C35.4473 16.8749 38.8024 18.2571 41.2844 20.7204C43.7664 23.1837 45.174 26.5282 45.2004 30.025C45.2004 31.7601 44.8587 33.4782 44.1947 35.0812C43.5307 36.6842 42.5575 38.1408 41.3306 39.3676C40.1037 40.5945 38.6471 41.5678 37.0441 42.2318C35.4411 42.8957 33.723 43.2375 31.9879 43.2375C30.2528 43.2375 28.5347 42.8957 26.9317 42.2318C25.3287 41.5678 23.8722 40.5945 22.6453 39.3676C21.4184 38.1408 20.4451 36.6842 19.7812 35.0812C19.1172 33.4782 18.7754 31.7601 18.7754 30.025C18.7629 22.775 24.6879 16.875 31.9504 16.875M43.8504 29.7C43.8629 33.45 41.9379 36.825 40.4004 38.3C38.1296 40.5147 35.097 41.7761 31.9254 41.825C28.1379 41.8875 24.5754 39.425 23.6129 38.3375C21.4597 36.0541 20.2342 33.0505 20.1754 29.9125C20.4004 25.8125 22.0129 22.9625 24.3379 21C26.5965 19.1407 29.4376 18.1361 32.3629 18.1625C34.0706 18.2453 35.7421 18.6839 37.2704 19.4502C38.7987 20.2165 40.1501 21.2936 41.2379 22.6125C42.8004 24.5125 43.4879 26.575 43.8504 29.7V29.7Z" stroke="black" stroke-width="0.2" stroke-linecap="round" stroke-linejoin="round"/>
<path fill-rule="evenodd" clip-rule="evenodd" d="M31.9863 16.8135C39.2613 16.8135 45.1863 22.7385 45.1863 30.0135C45.1863 37.2885 39.2613 43.2135 31.9988 43.2135C24.7363 43.2135 18.7988 37.2885 18.7988 30.0135C18.7988 22.7385 24.7238 16.8135 31.9988 16.8135H31.9863ZM19.0738 30.001C19.0738 37.101 24.9113 42.9135 31.9863 42.9135C39.0613 42.9135 44.8988 37.101 44.8988 30.001C44.8988 22.901 39.0613 17.0885 31.9863 17.0885C24.9113 17.0885 19.0738 22.901 19.0738 30.001Z" fill="#FFFF00" stroke="black" stroke-width="0.2" stroke-linecap="round" stroke-linejoin="round"/>
<path fill-rule="evenodd" clip-rule="evenodd" d="M32.0025 17.9141C35.2053 17.924 38.2741 19.2006 40.5388 21.4653C42.8035 23.73 44.0802 26.7988 44.09 30.0016C44.0802 33.2055 42.8039 36.2755 40.5395 38.5422C38.2752 40.8089 35.2064 42.0884 32.0025 42.1016C25.3775 42.1016 19.915 36.6516 19.915 30.0016C19.9282 26.7998 21.2059 23.7329 23.4699 21.4689C25.7339 19.205 28.8008 17.9272 32.0025 17.9141ZM20.2025 30.0016C20.2025 36.5016 25.5275 41.8016 32.0025 41.8016C38.4775 41.8016 43.8025 36.4891 43.8025 30.0016C43.8025 23.5016 38.4775 18.2016 32.0025 18.2016C28.877 18.2147 25.8833 19.4622 23.6732 21.6722C21.4631 23.8823 20.2157 26.8761 20.2025 30.0016Z" fill="#FFFF00" stroke="black" stroke-width="0.2" stroke-linecap="round" stroke-linejoin="round"/>
<path fill-rule="evenodd" clip-rule="evenodd" d="M32.5369 16.751H31.3994V43.2885H32.5244L32.5369 16.751Z" fill="#FFFF00" stroke="black" stroke-width="0.2" stroke-linecap="round" stroke-linejoin="round"/>
<path fill-rule="evenodd" clip-rule="evenodd" d="M32.4141 16.6016H32.7016V43.4391H32.4266V16.6016H32.4141ZM31.2891 16.6016H31.5891V43.4391H31.3016V16.6016H31.2891Z" fill="#FFFF00" stroke="black" stroke-width="0.2" stroke-linecap="round" stroke-linejoin="round"/>
<path fill-rule="evenodd" clip-rule="evenodd" d="M45.1988 30.5269V29.5519L44.3988 28.8019L39.8613 27.602L33.3363 26.9395L25.4613 27.3395L19.8613 28.6644L18.7363 29.5019V30.4894L21.5988 29.2019L28.3988 28.1394H34.9363L39.7363 28.6644L43.0613 29.4644L45.1988 30.5269Z" fill="#FFFF00" stroke="black" stroke-width="0.2" stroke-linecap="round" stroke-linejoin="round"/>
<path fill-rule="evenodd" clip-rule="evenodd" d="M32.001 27.9776C35.1135 27.9776 38.126 28.2651 40.5385 28.7276C43.0135 29.2276 44.751 29.8526 45.351 30.5401V30.8901C44.626 30.0151 42.2885 29.3901 40.476 29.0151C38.101 28.5651 35.101 28.2651 31.9885 28.2651C28.726 28.2651 25.676 28.5901 23.326 29.0401C21.451 29.4151 18.9385 30.1651 18.626 30.8901V30.5276C18.7885 30.0276 20.6635 29.2776 23.2885 28.7401C25.651 28.2776 28.701 27.9776 31.9885 27.9776H32.001ZM32.001 26.8401C34.8635 26.8344 37.7208 27.0854 40.5385 27.5901C43.0135 28.0901 44.751 28.7151 45.351 29.4151V29.7526C44.626 28.8901 42.2885 28.2526 40.476 27.8901C38.101 27.4276 35.101 27.1401 31.9885 27.1401C29.0874 27.1309 26.1917 27.3904 23.3385 27.9151C21.526 28.2526 18.9135 29.0276 18.626 29.7526V29.4026C18.801 28.9026 20.701 28.1151 23.2885 27.6151C25.6635 27.1526 28.701 26.8401 32.001 26.8401ZM31.926 21.0651C36.8385 21.0401 41.126 21.7526 43.0885 22.7526L43.801 24.0026C42.101 23.0776 37.476 22.1276 31.9385 22.2526C27.426 22.2901 22.601 22.7526 20.1885 24.0526L21.0385 22.6276C23.026 21.5901 27.701 21.0651 31.926 21.0651Z" fill="#FFFF00"/>
<path d="M31.926 21.0651C36.8385 21.0401 41.126 21.7526 43.0885 22.7526L43.801 24.0026C42.101 23.0776 37.476 22.1276 31.9385 22.2526C27.426 22.2901 22.601 22.7526 20.1885 24.0526L21.0385 22.6276C23.026 21.5901 27.701 21.0651 31.926 21.0651M32.001 27.9776C35.1135 27.9776 38.126 28.2651 40.5385 28.7276C43.0135 29.2276 44.751 29.8526 45.351 30.5401V30.8901C44.626 30.0151 42.2885 29.3901 40.476 29.0151C38.101 28.5651 35.101 28.2651 31.9885 28.2651C28.726 28.2651 25.676 28.5901 23.326 29.0401C21.451 29.4151 18.9385 30.1651 18.626 30.8901V30.5276C18.7885 30.0276 20.6635 29.2776 23.2885 28.7401C25.651 28.2776 28.701 27.9776 31.9885 27.9776H32.001ZM32.001 26.8401C34.8635 26.8344 37.7208 27.0854 40.5385 27.5901C43.0135 28.0901 44.751 28.7151 45.351 29.4151V29.7526C44.626 28.8901 42.2885 28.2526 40.476 27.8901C38.101 27.4276 35.101 27.1401 31.9885 27.1401C29.0874 27.1309 26.1917 27.3904 23.3385 27.9151C21.526 28.2526 18.9135 29.0276 18.626 29.7526V29.4026C18.801 28.9026 20.701 28.1151 23.2885 27.6151C25.6635 27.1526 28.701 26.8401 32.001 26.8401V26.8401Z" stroke="black" stroke-width="0.2" stroke-linecap="round" stroke-linejoin="round"/>
<path fill-rule="evenodd" clip-rule="evenodd" d="M32.0006 22.0903C34.5655 22.0471 37.1293 22.2269 39.6631 22.6278C41.6631 23.0028 43.5756 23.5528 43.8506 23.8528L44.0631 24.2278C43.4006 23.8028 41.7381 23.3153 39.6131 22.9153C37.4881 22.5153 34.7756 22.3778 31.9881 22.3903C28.8256 22.3778 26.3631 22.5403 24.2631 22.9153C22.8155 23.1182 21.41 23.553 20.1006 24.2028L20.3131 23.8153C21.0631 23.4403 22.2256 22.9778 24.2006 22.6153C26.3881 22.2153 28.8756 22.1028 32.0006 22.0903ZM32.0006 20.9653C34.6756 20.9403 37.3256 21.0903 39.3881 21.4653C40.7244 21.6637 42.0175 22.0863 43.2131 22.7153L43.5256 23.2153C43.0006 22.6278 41.0256 22.0653 39.2631 21.7653C37.2131 21.4028 34.6756 21.2653 32.0006 21.2403C29.5105 21.2181 27.0228 21.4021 24.5631 21.7903C23.2769 21.9696 22.0278 22.3536 20.8631 22.9278L21.1381 22.5153C21.8631 22.1403 23.0381 21.7903 24.5131 21.5028C26.989 21.1095 29.4937 20.9255 32.0006 20.9528V20.9653ZM38.5506 35.5028C36.384 35.1277 34.1865 34.9603 31.9881 35.0028C23.8006 35.1028 21.1631 36.6903 20.8381 37.1653L20.2131 36.1653C22.3131 34.6653 26.7631 33.8153 32.0381 33.8903C34.7756 33.9403 37.1381 34.1278 39.1131 34.5153L38.5506 35.5153" fill="#FFFF00"/>
<path d="M38.5506 35.5028C36.384 35.1277 34.1865 34.9603 31.9881 35.0028C23.8006 35.1028 21.1631 36.6903 20.8381 37.1653L20.2131 36.1653C22.3131 34.6653 26.7631 33.8153 32.0381 33.8903C34.7756 33.9403 37.1381 34.1278 39.1131 34.5153L38.5506 35.5153M32.0006 22.0903C34.5655 22.0471 37.1293 22.2269 39.6631 22.6278C41.6631 23.0028 43.5756 23.5528 43.8506 23.8528L44.0631 24.2278C43.4006 23.8028 41.7381 23.3153 39.6131 22.9153C37.4881 22.5153 34.7756 22.3778 31.9881 22.3903C28.8256 22.3778 26.3631 22.5403 24.2631 22.9153C22.8155 23.1182 21.41 23.553 20.1006 24.2028L20.3131 23.8153C21.0631 23.4403 22.2256 22.9778 24.2006 22.6153C26.3881 22.2153 28.8756 22.1028 32.0006 22.0903V22.0903ZM32.0006 20.9653C34.6756 20.9403 37.3256 21.0903 39.3881 21.4653C40.7244 21.6637 42.0175 22.0863 43.2131 22.7153L43.5256 23.2153C43.0006 22.6278 41.0256 22.0653 39.2631 21.7653C37.2131 21.4028 34.6756 21.2653 32.0006 21.2403C29.5105 21.2181 27.0228 21.4021 24.5631 21.7903C23.2769 21.9696 22.0278 22.3536 20.8631 22.9278L21.1381 22.5153C21.8631 22.1403 23.0381 21.7903 24.5131 21.5028C26.989 21.1095 29.4937 20.9255 32.0006 20.9528V20.9653Z" stroke="black" stroke-width="0.2" stroke-linecap="round" stroke-linejoin="round"/>
<path fill-rule="evenodd" clip-rule="evenodd" d="M31.9479 34.8639C34.2229 34.9014 36.4479 34.9889 38.6104 35.3889L38.4604 35.6639C36.4604 35.2889 34.3104 35.1639 31.9604 35.1639C28.9229 35.1389 25.8729 35.4264 23.2104 36.1889C22.3729 36.4264 20.9854 36.9639 20.8354 37.4139L20.6854 37.1639C20.7354 36.8889 21.5604 36.3389 23.1354 35.9139C26.1854 35.0389 29.0354 34.8764 31.9479 34.8639ZM32.0479 33.7139C34.4491 33.7114 36.8458 33.9206 39.2104 34.3389L39.0479 34.6264C36.7389 34.2028 34.3952 33.9978 32.0479 34.0139C29.0229 34.0139 25.8104 34.2389 22.8854 35.0889C21.9479 35.3639 20.3104 35.9639 20.2604 36.4264L20.1104 36.1514C20.1354 35.7264 21.5479 35.1639 22.8229 34.8014C25.7604 33.9389 28.9854 33.7264 32.0479 33.7139Z" fill="#FFFF00" stroke="black" stroke-width="0.2" stroke-linecap="round" stroke-linejoin="round"/>
<path fill-rule="evenodd" clip-rule="evenodd" d="M43.6766 36.3141L42.7016 37.8516L39.8641 35.3391L32.5391 30.4016L24.2641 25.8641L19.9766 24.4016L20.8891 22.7016L21.2016 22.5391L23.8641 23.2016L32.6641 27.7391L37.7391 30.9391L42.0016 34.0016L43.7391 36.0016L43.6766 36.3141Z" fill="#FFFF00" stroke="black" stroke-width="0.2" stroke-linecap="round" stroke-linejoin="round"/>
<path fill-rule="evenodd" clip-rule="evenodd" d="M19.8266 24.4387C20.5766 23.9387 26.1016 26.3887 31.9016 29.8887C37.6641 33.3887 43.1891 37.3387 42.6891 38.0762L42.5266 38.3387L42.4516 38.4012C42.4641 38.3887 42.5516 38.2762 42.4516 38.0137C42.2016 37.2012 38.2766 34.0762 31.7891 30.1512C25.4516 26.3887 20.1766 24.1137 19.6641 24.7637L19.8266 24.4387ZM43.8766 36.3012C44.3516 35.3512 39.2266 31.4887 32.8641 27.7262C26.3641 24.0387 21.6641 21.8637 20.8016 22.5137L20.6266 22.8762C20.6266 22.8887 20.6266 22.8512 20.6766 22.8137C20.8266 22.6887 21.0891 22.6887 21.2016 22.6887C22.6766 22.7137 26.8891 24.6512 32.8016 28.0387C35.4016 29.5387 43.7516 34.9137 43.7141 36.4137C43.7141 36.5387 43.7266 36.5637 43.6766 36.6387L43.8891 36.3137L43.8766 36.3012Z" fill="#FFFF00" stroke="black" stroke-width="0.2" stroke-linecap="round" stroke-linejoin="round"/>
<path d="M24.0791 31.4718C24.0811 32.5068 24.2883 33.5312 24.6888 34.4855C25.0894 35.4399 25.6752 36.3054 26.4124 37.0318C27.1407 37.7713 28.0081 38.3593 28.9646 38.7621C29.9211 39.1648 30.9479 39.3743 31.9858 39.3785C34.0862 39.3783 36.1006 38.5438 37.5858 37.0585C38.3204 36.328 38.9036 35.4597 39.3017 34.5032C39.6998 33.5468 39.9051 32.5211 39.9058 31.4851V20.9251L24.0791 20.8984V31.4718Z" fill="white" stroke="black" stroke-width="0.2"/>
<path d="M24.3721 31.4842C24.3749 32.477 24.5743 33.4595 24.9587 34.3748C25.3432 35.2902 25.9051 36.1204 26.6121 36.8175C28.0316 38.2445 29.9593 39.0501 31.9721 39.0575C33.9814 39.0586 35.909 38.2626 37.3321 36.8442C38.0366 36.146 38.5961 35.3153 38.9783 34.4C39.3604 33.4846 39.5577 32.5027 39.5588 31.5108V21.2441H24.3987V31.4842H24.3721ZM36.5321 24.3241V30.8442L36.5188 31.5242C36.5233 32.1198 36.4075 32.7103 36.1784 33.2601C35.9493 33.81 35.6115 34.3079 35.1854 34.7242C34.3375 35.575 33.1866 36.0546 31.9854 36.0575C30.7321 36.0575 29.6254 35.5242 28.7987 34.6975C27.9479 33.8496 27.4684 32.6987 27.4654 31.4975V24.2975L36.5321 24.3241Z" fill="#FF0000" stroke="black" stroke-width="0.2"/>
<path d="M25.3594 23.9242C25.3727 23.1909 25.8927 23.0176 25.8927 23.0176C25.906 23.0176 26.466 23.2042 26.466 23.9376H25.3594" fill="#FFFF00"/>
<path d="M24.9047 23.0309L24.8114 23.8709H25.3714C25.3714 23.1776 25.9047 23.0709 25.9047 23.0709C25.9181 23.0709 26.4381 23.2176 26.4514 23.8709H27.0114L26.9047 23.0176H24.9047V23.0309ZM24.7714 23.8843H27.0381C27.0781 23.8843 27.1181 23.9242 27.1181 23.9776C27.1181 24.0443 27.0781 24.0843 27.0381 24.0843H24.7714C24.7314 24.0843 24.6914 24.0443 24.6914 23.9776C24.6914 23.9242 24.7314 23.8843 24.7847 23.8843H24.7714Z" fill="#FFFF00" stroke="black" stroke-width="0.1"/>
<path d="M25.5994 23.872C25.5994 23.432 25.9061 23.312 25.9061 23.312C25.9061 23.312 26.2128 23.4453 26.2128 23.872H25.5994ZM24.8261 22.672H26.9994C27.0394 22.672 27.0794 22.7253 27.0794 22.7786C27.0794 22.8186 27.0394 22.8586 26.9994 22.8586H24.8261C24.7861 22.8586 24.7461 22.8186 24.7461 22.7653C24.7461 22.7253 24.7861 22.6853 24.8261 22.6853V22.672ZM24.8794 22.872H26.9328C26.9728 22.872 27.0128 22.912 27.0128 22.9653C27.0128 23.0186 26.9728 23.0586 26.9328 23.0586H24.8661C24.8128 23.0586 24.7861 23.0186 24.7861 22.9653C24.7861 22.912 24.8128 22.872 24.8661 22.872H24.8794ZM25.5461 21.4586H25.7061V21.5653H25.8261V21.4586H25.9994V21.5786H26.1194V21.4453H26.2794V21.712C26.2794 21.7653 26.2528 21.792 26.2128 21.792H25.6261C25.5861 21.792 25.5461 21.7653 25.5461 21.7253V21.4586ZM26.1594 21.8186L26.1994 22.672H25.6261L25.6661 21.8053H26.1594" fill="#FFFF00"/>
<path d="M26.1594 21.8186L26.1994 22.672H25.6261L25.6661 21.8053H26.1594M25.5994 23.872C25.5994 23.432 25.9061 23.312 25.9061 23.312C25.9061 23.312 26.2128 23.4453 26.2128 23.872H25.5994ZM24.8261 22.672H26.9994C27.0394 22.672 27.0794 22.7253 27.0794 22.7786C27.0794 22.8186 27.0394 22.8586 26.9994 22.8586H24.8261C24.7861 22.8586 24.7461 22.8186 24.7461 22.7653C24.7461 22.7253 24.7861 22.6853 24.8261 22.6853V22.672ZM24.8794 22.872H26.9328C26.9728 22.872 27.0128 22.912 27.0128 22.9653C27.0128 23.0186 26.9728 23.0586 26.9328 23.0586H24.8661C24.8128 23.0586 24.7861 23.0186 24.7861 22.9653C24.7861 22.912 24.8128 22.872 24.8661 22.872H24.8794ZM25.5461 21.4586H25.7061V21.5653H25.8261V21.4586H25.9994V21.5786H26.1194V21.4453H26.2794V21.712C26.2794 21.7653 26.2528 21.792 26.2128 21.792H25.6261C25.5861 21.792 25.5461 21.7653 25.5461 21.7253V21.4586Z" stroke="black" stroke-width="0.1"/>
<path d="M25.465 22.2197V22.6731H24.9316V22.2197H25.465Z" fill="#FFFF00" stroke="black" stroke-width="0.1"/>
<path d="M24.8379 21.8721H24.9979V22.0054H25.1179V21.8721H25.2779V22.0054H25.3979V21.8721H25.5579V22.1387C25.5579 22.1921 25.5312 22.2187 25.4912 22.2187H24.9179C24.8967 22.2187 24.8763 22.2103 24.8613 22.1953C24.8463 22.1803 24.8379 22.16 24.8379 22.1387V21.8721Z" fill="#FFFF00" stroke="black" stroke-width="0.1"/>
<path d="M25.8506 22.0854C25.8506 22.0054 25.9706 22.0054 25.9706 22.0854V22.2987H25.8506V22.0854Z" fill="black"/>
<path d="M25.1445 22.3784C25.1445 22.2984 25.2512 22.2984 25.2512 22.3784V22.5384H25.1445V22.3784Z" fill="black"/>
<path d="M26.8771 22.2197V22.6731H26.3438V22.2197H26.8771Z" fill="#FFFF00" stroke="black" stroke-width="0.1"/>
<path d="M26.25 21.8721H26.41V22.0054H26.53V21.8721H26.69V22.0054H26.81V21.8721H26.97V22.1387C26.97 22.1921 26.9433 22.2187 26.9033 22.2187H26.33C26.3088 22.2187 26.2884 22.2103 26.2734 22.1953C26.2584 22.1803 26.25 22.16 26.25 22.1387V21.8721Z" fill="#FFFF00" stroke="black" stroke-width="0.1"/>
<path d="M26.5566 22.3784C26.5566 22.2984 26.6633 22.2984 26.6633 22.3784V22.5384H26.5566V22.3784Z" fill="black"/>
<path d="M25.3594 29.9789C25.3727 29.2456 25.8927 29.0723 25.8927 29.0723C25.906 29.0723 26.466 29.2589 26.466 29.9923H25.3594" fill="#FFFF00"/>
<path d="M24.9047 29.0856L24.8114 29.9256H25.3714C25.3714 29.2323 25.9047 29.1256 25.9047 29.1256C25.9181 29.1256 26.4381 29.2723 26.4514 29.9256H27.0114L26.9047 29.0723H24.9047V29.0856ZM24.7714 29.9389H27.0381C27.0781 29.9389 27.1181 29.9789 27.1181 30.0323C27.1181 30.0989 27.0781 30.1389 27.0381 30.1389H24.7714C24.7314 30.1389 24.6914 30.0989 24.6914 30.0323C24.6914 29.9789 24.7314 29.9389 24.7847 29.9389H24.7714Z" fill="#FFFF00" stroke="black" stroke-width="0.1"/>
<path d="M25.5994 29.9267C25.5994 29.4867 25.9061 29.3667 25.9061 29.3667C25.9061 29.3667 26.2128 29.5 26.2128 29.9267H25.5994ZM24.8261 28.7267H26.9994C27.0394 28.7267 27.0794 28.78 27.0794 28.8333C27.0794 28.8733 27.0394 28.9133 26.9994 28.9133H24.8261C24.7861 28.9133 24.7461 28.8733 24.7461 28.82C24.7461 28.78 24.7861 28.74 24.8261 28.74V28.7267ZM24.8794 28.9267H26.9328C26.9728 28.9267 27.0128 28.9667 27.0128 29.02C27.0128 29.0733 26.9728 29.1133 26.9328 29.1133H24.8661C24.8128 29.1133 24.7861 29.0733 24.7861 29.02C24.7861 28.9667 24.8128 28.9267 24.8661 28.9267H24.8794ZM25.5461 27.5133H25.7061V27.62H25.8261V27.5133H25.9994V27.6333H26.1194V27.5H26.2794V27.7667C26.2794 27.82 26.2528 27.8467 26.2128 27.8467H25.6261C25.5861 27.8467 25.5461 27.82 25.5461 27.78V27.5133ZM26.1594 27.8733L26.1994 28.7267H25.6261L25.6661 27.86H26.1594" fill="#FFFF00"/>
<path d="M26.1594 27.8733L26.1994 28.7267H25.6261L25.6661 27.86H26.1594M25.5994 29.9267C25.5994 29.4867 25.9061 29.3667 25.9061 29.3667C25.9061 29.3667 26.2128 29.5 26.2128 29.9267H25.5994ZM24.8261 28.7267H26.9994C27.0394 28.7267 27.0794 28.78 27.0794 28.8333C27.0794 28.8733 27.0394 28.9133 26.9994 28.9133H24.8261C24.7861 28.9133 24.7461 28.8733 24.7461 28.82C24.7461 28.78 24.7861 28.74 24.8261 28.74V28.7267ZM24.8794 28.9267H26.9328C26.9728 28.9267 27.0128 28.9667 27.0128 29.02C27.0128 29.0733 26.9728 29.1133 26.9328 29.1133H24.8661C24.8128 29.1133 24.7861 29.0733 24.7861 29.02C24.7861 28.9667 24.8128 28.9267 24.8661 28.9267H24.8794ZM25.5461 27.5133H25.7061V27.62H25.8261V27.5133H25.9994V27.6333H26.1194V27.5H26.2794V27.7667C26.2794 27.82 26.2528 27.8467 26.2128 27.8467H25.6261C25.5861 27.8467 25.5461 27.82 25.5461 27.78V27.5133Z" stroke="black" stroke-width="0.1"/>
<path d="M25.465 28.2744V28.7277H24.9316V28.2744H25.465Z" fill="#FFFF00" stroke="black" stroke-width="0.1"/>
<path d="M24.8379 27.9268H24.9979V28.0601H25.1179V27.9268H25.2779V28.0601H25.3979V27.9268H25.5579V28.1934C25.5579 28.2468 25.5312 28.2734 25.4912 28.2734H24.9179C24.8967 28.2734 24.8763 28.265 24.8613 28.25C24.8463 28.235 24.8379 28.2146 24.8379 28.1934V27.9268Z" fill="#FFFF00" stroke="black" stroke-width="0.1"/>
<path d="M25.8506 28.1401C25.8506 28.0601 25.9706 28.0601 25.9706 28.1401V28.3534H25.8506V28.1401Z" fill="black"/>
<path d="M25.1445 28.433C25.1445 28.353 25.2512 28.353 25.2512 28.433V28.5931H25.1445V28.433Z" fill="black"/>
<path d="M26.8771 28.2744V28.7277H26.3438V28.2744H26.8771Z" fill="#FFFF00" stroke="black" stroke-width="0.1"/>
<path d="M26.25 27.9268H26.41V28.0601H26.53V27.9268H26.69V28.0601H26.81V27.9268H26.97V28.1934C26.97 28.2468 26.9433 28.2734 26.9033 28.2734H26.33C26.3088 28.2734 26.2884 28.265 26.2734 28.25C26.2584 28.235 26.25 28.2146 26.25 28.1934V27.9268Z" fill="#FFFF00" stroke="black" stroke-width="0.1"/>
<path d="M26.5566 28.433C26.5566 28.353 26.6633 28.353 26.6633 28.433V28.5931H26.5566V28.433Z" fill="black"/>
<path d="M31.4678 23.9242C31.4811 23.1909 32.0011 23.0176 32.0011 23.0176C32.0144 23.0176 32.5744 23.2042 32.5744 23.9376H31.4678" fill="#FFFF00"/>
<path d="M31.0131 23.0309L30.9198 23.8709H31.4798C31.4798 23.1776 32.0131 23.0709 32.0131 23.0709C32.0265 23.0709 32.5465 23.2176 32.5598 23.8709H33.1198L33.0131 23.0176H31.0131V23.0309ZM30.8798 23.8843H33.1465C33.1865 23.8843 33.2265 23.9242 33.2265 23.9776C33.2265 24.0443 33.1865 24.0843 33.1465 24.0843H30.8798C30.8398 24.0843 30.7998 24.0443 30.7998 23.9776C30.7998 23.9242 30.8398 23.8843 30.8931 23.8843H30.8798Z" fill="#FFFF00" stroke="black" stroke-width="0.1"/>
<path d="M31.7078 23.872C31.7078 23.432 32.0145 23.312 32.0145 23.312C32.0145 23.312 32.3212 23.4453 32.3212 23.872H31.7078ZM30.9345 22.672H33.1078C33.1478 22.672 33.1878 22.7253 33.1878 22.7786C33.1878 22.8186 33.1478 22.8586 33.1078 22.8586H30.9345C30.8945 22.8586 30.8545 22.8186 30.8545 22.7653C30.8545 22.7253 30.8945 22.6853 30.9345 22.6853V22.672ZM30.9878 22.872H33.0412C33.0812 22.872 33.1212 22.912 33.1212 22.9653C33.1212 23.0186 33.0812 23.0586 33.0412 23.0586H30.9745C30.9212 23.0586 30.8945 23.0186 30.8945 22.9653C30.8945 22.912 30.9212 22.872 30.9745 22.872H30.9878ZM31.6545 21.4586H31.8145V21.5653H31.9345V21.4586H32.1078V21.5786H32.2278V21.4453H32.3878V21.712C32.3878 21.7653 32.3612 21.792 32.3212 21.792H31.7345C31.6945 21.792 31.6545 21.7653 31.6545 21.7253V21.4586ZM32.2678 21.8186L32.3078 22.672H31.7345L31.7745 21.8053H32.2678" fill="#FFFF00"/>
<path d="M32.2678 21.8186L32.3078 22.672H31.7345L31.7745 21.8053H32.2678M31.7078 23.872C31.7078 23.432 32.0145 23.312 32.0145 23.312C32.0145 23.312 32.3212 23.4453 32.3212 23.872H31.7078ZM30.9345 22.672H33.1078C33.1478 22.672 33.1878 22.7253 33.1878 22.7786C33.1878 22.8186 33.1478 22.8586 33.1078 22.8586H30.9345C30.8945 22.8586 30.8545 22.8186 30.8545 22.7653C30.8545 22.7253 30.8945 22.6853 30.9345 22.6853V22.672ZM30.9878 22.872H33.0412C33.0812 22.872 33.1212 22.912 33.1212 22.9653C33.1212 23.0186 33.0812 23.0586 33.0412 23.0586H30.9745C30.9212 23.0586 30.8945 23.0186 30.8945 22.9653C30.8945 22.912 30.9212 22.872 30.9745 22.872H30.9878ZM31.6545 21.4586H31.8145V21.5653H31.9345V21.4586H32.1078V21.5786H32.2278V21.4453H32.3878V21.712C32.3878 21.7653 32.3612 21.792 32.3212 21.792H31.7345C31.6945 21.792 31.6545 21.7653 31.6545 21.7253V21.4586Z" stroke="black" stroke-width="0.1"/>
<path d="M31.5734 22.2197V22.6731H31.04V22.2197H31.5734Z" fill="#FFFF00" stroke="black" stroke-width="0.1"/>
<path d="M30.9463 21.8721H31.1063V22.0054H31.2263V21.8721H31.3863V22.0054H31.5063V21.8721H31.6663V22.1387C31.6663 22.1921 31.6396 22.2187 31.5996 22.2187H31.0263C31.0051 22.2187 30.9847 22.2103 30.9697 22.1953C30.9547 22.1803 30.9463 22.16 30.9463 22.1387V21.8721Z" fill="#FFFF00" stroke="black" stroke-width="0.1"/>
<path d="M31.959 22.0854C31.959 22.0054 32.079 22.0054 32.079 22.0854V22.2987H31.959V22.0854Z" fill="black"/>
<path d="M31.2529 22.3784C31.2529 22.2984 31.3596 22.2984 31.3596 22.3784V22.5384H31.2529V22.3784Z" fill="black"/>
<path d="M32.9855 22.2197V22.6731H32.4521V22.2197H32.9855Z" fill="#FFFF00" stroke="black" stroke-width="0.1"/>
<path d="M32.3584 21.8721H32.5184V22.0054H32.6384V21.8721H32.7984V22.0054H32.9184V21.8721H33.0784V22.1387C33.0784 22.1921 33.0517 22.2187 33.0117 22.2187H32.4384C32.4172 22.2187 32.3968 22.2103 32.3818 22.1953C32.3668 22.1803 32.3584 22.16 32.3584 22.1387V21.8721Z" fill="#FFFF00" stroke="black" stroke-width="0.1"/>
<path d="M32.665 22.3784C32.665 22.2984 32.7717 22.2984 32.7717 22.3784V22.5384H32.665V22.3784Z" fill="black"/>
<path d="M37.4678 23.9242C37.4811 23.1909 38.0011 23.0176 38.0011 23.0176C38.0144 23.0176 38.5744 23.2042 38.5744 23.9376H37.4678" fill="#FFFF00"/>
<path d="M37.0131 23.0309L36.9198 23.8709H37.4798C37.4798 23.1776 38.0131 23.0709 38.0131 23.0709C38.0265 23.0709 38.5465 23.2176 38.5598 23.8709H39.1198L39.0131 23.0176H37.0131V23.0309ZM36.8798 23.8843H39.1465C39.1865 23.8843 39.2265 23.9242 39.2265 23.9776C39.2265 24.0443 39.1865 24.0843 39.1465 24.0843H36.8798C36.8398 24.0843 36.7998 24.0443 36.7998 23.9776C36.7998 23.9242 36.8398 23.8843 36.8931 23.8843H36.8798Z" fill="#FFFF00" stroke="black" stroke-width="0.1"/>
<path d="M37.7078 23.872C37.7078 23.432 38.0145 23.312 38.0145 23.312C38.0145 23.312 38.3212 23.4453 38.3212 23.872H37.7078ZM36.9345 22.672H39.1078C39.1478 22.672 39.1878 22.7253 39.1878 22.7786C39.1878 22.8186 39.1478 22.8586 39.1078 22.8586H36.9345C36.8945 22.8586 36.8545 22.8186 36.8545 22.7653C36.8545 22.7253 36.8945 22.6853 36.9345 22.6853V22.672ZM36.9878 22.872H39.0412C39.0812 22.872 39.1212 22.912 39.1212 22.9653C39.1212 23.0186 39.0812 23.0586 39.0412 23.0586H36.9745C36.9212 23.0586 36.8945 23.0186 36.8945 22.9653C36.8945 22.912 36.9212 22.872 36.9745 22.872H36.9878ZM37.6545 21.4586H37.8145V21.5653H37.9345V21.4586H38.1078V21.5786H38.2278V21.4453H38.3878V21.712C38.3878 21.7653 38.3612 21.792 38.3212 21.792H37.7345C37.6945 21.792 37.6545 21.7653 37.6545 21.7253V21.4586ZM38.2678 21.8186L38.3078 22.672H37.7345L37.7745 21.8053H38.2678" fill="#FFFF00"/>
<path d="M38.2678 21.8186L38.3078 22.672H37.7345L37.7745 21.8053H38.2678M37.7078 23.872C37.7078 23.432 38.0145 23.312 38.0145 23.312C38.0145 23.312 38.3212 23.4453 38.3212 23.872H37.7078ZM36.9345 22.672H39.1078C39.1478 22.672 39.1878 22.7253 39.1878 22.7786C39.1878 22.8186 39.1478 22.8586 39.1078 22.8586H36.9345C36.8945 22.8586 36.8545 22.8186 36.8545 22.7653C36.8545 22.7253 36.8945 22.6853 36.9345 22.6853V22.672ZM36.9878 22.872H39.0412C39.0812 22.872 39.1212 22.912 39.1212 22.9653C39.1212 23.0186 39.0812 23.0586 39.0412 23.0586H36.9745C36.9212 23.0586 36.8945 23.0186 36.8945 22.9653C36.8945 22.912 36.9212 22.872 36.9745 22.872H36.9878ZM37.6545 21.4586H37.8145V21.5653H37.9345V21.4586H38.1078V21.5786H38.2278V21.4453H38.3878V21.712C38.3878 21.7653 38.3612 21.792 38.3212 21.792H37.7345C37.6945 21.792 37.6545 21.7653 37.6545 21.7253V21.4586Z" stroke="black" stroke-width="0.1"/>
<path d="M37.5734 22.2197V22.6731H37.04V22.2197H37.5734Z" fill="#FFFF00" stroke="black" stroke-width="0.1"/>
<path d="M36.9463 21.8721H37.1063V22.0054H37.2263V21.8721H37.3863V22.0054H37.5063V21.8721H37.6663V22.1387C37.6663 22.1921 37.6396 22.2187 37.5996 22.2187H37.0263C37.0051 22.2187 36.9847 22.2103 36.9697 22.1953C36.9547 22.1803 36.9463 22.16 36.9463 22.1387V21.8721Z" fill="#FFFF00" stroke="black" stroke-width="0.1"/>
<path d="M37.959 22.0854C37.959 22.0054 38.079 22.0054 38.079 22.0854V22.2987H37.959V22.0854Z" fill="black"/>
<path d="M37.2529 22.3784C37.2529 22.2984 37.3596 22.2984 37.3596 22.3784V22.5384H37.2529V22.3784Z" fill="black"/>
<path d="M38.9855 22.2197V22.6731H38.4521V22.2197H38.9855Z" fill="#FFFF00" stroke="black" stroke-width="0.1"/>
<path d="M38.3584 21.8721H38.5184V22.0054H38.6384V21.8721H38.7984V22.0054H38.9184V21.8721H39.0784V22.1387C39.0784 22.1921 39.0517 22.2187 39.0117 22.2187H38.4384C38.4172 22.2187 38.3968 22.2103 38.3818 22.1953C38.3668 22.1803 38.3584 22.16 38.3584 22.1387V21.8721Z" fill="#FFFF00" stroke="black" stroke-width="0.1"/>
<path d="M38.665 22.3784C38.665 22.2984 38.7717 22.2984 38.7717 22.3784V22.5384H38.665V22.3784Z" fill="black"/>
<path d="M37.4678 29.9789C37.4811 29.2456 38.0011 29.0723 38.0011 29.0723C38.0144 29.0723 38.5744 29.2589 38.5744 29.9923H37.4678" fill="#FFFF00"/>
<path d="M37.0131 29.0856L36.9198 29.9256H37.4798C37.4798 29.2323 38.0131 29.1256 38.0131 29.1256C38.0265 29.1256 38.5465 29.2723 38.5598 29.9256H39.1198L39.0131 29.0723H37.0131V29.0856ZM36.8798 29.9389H39.1465C39.1865 29.9389 39.2265 29.9789 39.2265 30.0323C39.2265 30.0989 39.1865 30.1389 39.1465 30.1389H36.8798C36.8398 30.1389 36.7998 30.0989 36.7998 30.0323C36.7998 29.9789 36.8398 29.9389 36.8931 29.9389H36.8798Z" fill="#FFFF00" stroke="black" stroke-width="0.1"/>
<path d="M37.7078 29.9267C37.7078 29.4867 38.0145 29.3667 38.0145 29.3667C38.0145 29.3667 38.3212 29.5 38.3212 29.9267H37.7078ZM36.9345 28.7267H39.1078C39.1478 28.7267 39.1878 28.78 39.1878 28.8333C39.1878 28.8733 39.1478 28.9133 39.1078 28.9133H36.9345C36.8945 28.9133 36.8545 28.8733 36.8545 28.82C36.8545 28.78 36.8945 28.74 36.9345 28.74V28.7267ZM36.9878 28.9267H39.0412C39.0812 28.9267 39.1212 28.9667 39.1212 29.02C39.1212 29.0733 39.0812 29.1133 39.0412 29.1133H36.9745C36.9212 29.1133 36.8945 29.0733 36.8945 29.02C36.8945 28.9667 36.9212 28.9267 36.9745 28.9267H36.9878ZM37.6545 27.5133H37.8145V27.62H37.9345V27.5133H38.1078V27.6333H38.2278V27.5H38.3878V27.7667C38.3878 27.82 38.3612 27.8467 38.3212 27.8467H37.7345C37.6945 27.8467 37.6545 27.82 37.6545 27.78V27.5133ZM38.2678 27.8733L38.3078 28.7267H37.7345L37.7745 27.86H38.2678" fill="#FFFF00"/>
<path d="M38.2678 27.8733L38.3078 28.7267H37.7345L37.7745 27.86H38.2678M37.7078 29.9267C37.7078 29.4867 38.0145 29.3667 38.0145 29.3667C38.0145 29.3667 38.3212 29.5 38.3212 29.9267H37.7078ZM36.9345 28.7267H39.1078C39.1478 28.7267 39.1878 28.78 39.1878 28.8333C39.1878 28.8733 39.1478 28.9133 39.1078 28.9133H36.9345C36.8945 28.9133 36.8545 28.8733 36.8545 28.82C36.8545 28.78 36.8945 28.74 36.9345 28.74V28.7267ZM36.9878 28.9267H39.0412C39.0812 28.9267 39.1212 28.9667 39.1212 29.02C39.1212 29.0733 39.0812 29.1133 39.0412 29.1133H36.9745C36.9212 29.1133 36.8945 29.0733 36.8945 29.02C36.8945 28.9667 36.9212 28.9267 36.9745 28.9267H36.9878ZM37.6545 27.5133H37.8145V27.62H37.9345V27.5133H38.1078V27.6333H38.2278V27.5H38.3878V27.7667C38.3878 27.82 38.3612 27.8467 38.3212 27.8467H37.7345C37.6945 27.8467 37.6545 27.82 37.6545 27.78V27.5133Z" stroke="black" stroke-width="0.1"/>
<path d="M37.5734 28.2744V28.7277H37.04V28.2744H37.5734Z" fill="#FFFF00" stroke="black" stroke-width="0.1"/>
<path d="M36.9463 27.9268H37.1063V28.0601H37.2263V27.9268H37.3863V28.0601H37.5063V27.9268H37.6663V28.1934C37.6663 28.2468 37.6396 28.2734 37.5996 28.2734H37.0263C37.0051 28.2734 36.9847 28.265 36.9697 28.25C36.9547 28.235 36.9463 28.2146 36.9463 28.1934V27.9268Z" fill="#FFFF00" stroke="black" stroke-width="0.1"/>
<path d="M37.959 28.1401C37.959 28.0601 38.079 28.0601 38.079 28.1401V28.3534H37.959V28.1401Z" fill="black"/>
<path d="M37.2529 28.433C37.2529 28.353 37.3596 28.353 37.3596 28.433V28.5931H37.2529V28.433Z" fill="black"/>
<path d="M38.9855 28.2744V28.7277H38.4521V28.2744H38.9855Z" fill="#FFFF00" stroke="black" stroke-width="0.1"/>
<path d="M38.3584 27.9268H38.5184V28.0601H38.6384V27.9268H38.7984V28.0601H38.9184V27.9268H39.0784V28.1934C39.0784 28.2468 39.0517 28.2734 39.0117 28.2734H38.4384C38.4172 28.2734 38.3968 28.265 38.3818 28.25C38.3668 28.235 38.3584 28.2146 38.3584 28.1934V27.9268Z" fill="#FFFF00" stroke="black" stroke-width="0.1"/>
<path d="M38.665 28.433C38.665 28.353 38.7717 28.353 38.7717 28.433V28.5931H38.665V28.433Z" fill="black"/>
<path d="M35.4185 35.8579C35.8998 35.3045 36.4097 35.5057 36.4097 35.5057C36.4199 35.5143 36.7291 36.0172 36.2579 36.5791L35.4099 35.8681" fill="#FFFF00"/>
<path d="M35.6442 34.8817L35.033 35.4654L35.4621 35.8252C35.9075 35.2939 36.3848 35.5548 36.3848 35.5548C36.395 35.5634 36.6992 36.0099 36.2897 36.5191L36.7188 36.8789L37.1853 36.1564L35.6527 34.8714L35.6442 34.8817ZM34.9937 35.4499L36.7307 36.9062C36.7613 36.9319 36.7663 36.9883 36.732 37.0291C36.6892 37.0802 36.6328 37.0852 36.6022 37.0595L34.8652 35.6032C34.8346 35.5775 34.8296 35.5211 34.8725 35.47C34.9067 35.4292 34.9631 35.4242 35.0039 35.4585L34.9937 35.4499Z" fill="#FFFF00" stroke="black" stroke-width="0.1"/>
<path d="M35.6368 35.9723C35.9195 35.6351 36.2316 35.7402 36.2316 35.7402C36.2316 35.7402 36.3809 36.0394 36.1068 36.3663L35.6368 35.9723ZM35.8152 34.5558L37.4806 35.9522C37.5112 35.9779 37.5076 36.0445 37.4734 36.0853C37.4477 36.116 37.3913 36.1209 37.3607 36.0952L35.6952 34.6989C35.6646 34.6732 35.6596 34.6168 35.6939 34.576C35.7196 34.5453 35.776 34.5404 35.8066 34.5661L35.8152 34.5558ZM35.7275 34.7434L37.301 36.0626C37.3317 36.0883 37.3366 36.1447 37.3023 36.1855C37.2681 36.2264 37.2117 36.2314 37.1811 36.2057L35.5974 34.8778C35.5565 34.8436 35.5618 34.7958 35.5961 34.7549C35.6303 34.714 35.6765 34.7005 35.7173 34.7348L35.7275 34.7434ZM37.1465 34.0887L37.2691 34.1915L37.2005 34.2732L37.2925 34.3503L37.361 34.2686L37.4938 34.3799L37.4167 34.4719L37.5087 34.549L37.5944 34.4468L37.717 34.5496L37.5456 34.754C37.5114 34.7948 37.4738 34.7981 37.4432 34.7724L36.9936 34.3955C36.9629 34.3698 36.9494 34.3237 36.9751 34.293L37.1465 34.0887ZM37.3852 34.7586L36.8675 35.4382L36.4282 35.0698L37.0157 34.4314L37.3937 34.7484" fill="#FFFF00"/>
<path d="M37.3852 34.7586L36.8675 35.4382L36.4282 35.0698L37.0157 34.4314L37.3937 34.7484M35.6368 35.9723C35.9195 35.6351 36.2316 35.7402 36.2316 35.7402C36.2316 35.7402 36.3809 36.0394 36.1068 36.3663L35.6368 35.9723ZM35.8152 34.5558L37.4806 35.9522C37.5112 35.9779 37.5076 36.0445 37.4734 36.0853C37.4477 36.116 37.3913 36.1209 37.3607 36.0952L35.6952 34.6989C35.6646 34.6732 35.6596 34.6168 35.6939 34.576C35.7196 34.5453 35.776 34.5404 35.8066 34.5661L35.8152 34.5558ZM35.7275 34.7434L37.301 36.0626C37.3317 36.0883 37.3366 36.1447 37.3023 36.1855C37.2681 36.2264 37.2117 36.2314 37.1811 36.2057L35.5974 34.8778C35.5565 34.8436 35.5618 34.7958 35.5961 34.7549C35.6303 34.714 35.6765 34.7005 35.7173 34.7348L35.7275 34.7434ZM37.1465 34.0887L37.2691 34.1915L37.2005 34.2732L37.2925 34.3503L37.361 34.2686L37.4938 34.3799L37.4167 34.4719L37.5087 34.549L37.5944 34.4468L37.717 34.5496L37.5456 34.754C37.5114 34.7948 37.4738 34.7981 37.4432 34.7724L36.9936 34.3955C36.9629 34.3698 36.9494 34.3237 36.9751 34.293L37.1465 34.0887Z" stroke="black" stroke-width="0.1"/>
<path d="M36.5952 34.62L36.304 34.9674L35.8953 34.6247L36.1865 34.2773L36.5952 34.62Z" fill="#FFFF00" stroke="black" stroke-width="0.1"/>
<path d="M36.3379 33.9502L36.4605 34.053L36.3748 34.1552L36.4668 34.2323L36.5525 34.1301L36.6751 34.2329L36.5894 34.3351L36.6814 34.4122L36.767 34.31L36.8896 34.4128L36.7183 34.6171C36.684 34.658 36.6465 34.6613 36.6158 34.6356L36.1765 34.2672C36.1602 34.2536 36.15 34.2341 36.1482 34.2129C36.1463 34.1918 36.1529 34.1708 36.1666 34.1545L36.3379 33.9502Z" fill="#FFFF00" stroke="black" stroke-width="0.1"/>
<path d="M36.9771 34.7638C37.0285 34.7024 37.1204 34.7795 37.069 34.8408L36.932 35.0043L36.84 34.9272L36.9771 34.7638Z" fill="black"/>
<path d="M36.2476 34.5352C36.299 34.4739 36.3807 34.5425 36.3293 34.6038L36.2265 34.7264L36.1448 34.6578L36.2476 34.5352Z" fill="black"/>
<path d="M37.6772 35.5263L37.386 35.8736L36.9773 35.531L37.2686 35.1836L37.6772 35.5263Z" fill="#FFFF00" stroke="black" stroke-width="0.1"/>
<path d="M37.4199 34.8574L37.5425 34.9602L37.4569 35.0624L37.5488 35.1395L37.6345 35.0373L37.7571 35.1401L37.6714 35.2423L37.7634 35.3194L37.849 35.2172L37.9717 35.32L37.8003 35.5244C37.7661 35.5652 37.7285 35.5685 37.6978 35.5428L37.2585 35.1745C37.2422 35.1608 37.2321 35.1413 37.2302 35.1202C37.2283 35.099 37.235 35.078 37.2486 35.0618L37.4199 34.8574Z" fill="#FFFF00" stroke="black" stroke-width="0.1"/>
<path d="M37.3296 35.4425C37.381 35.3812 37.4628 35.4497 37.4114 35.511L37.3086 35.6336L37.2268 35.5651L37.3296 35.4425Z" fill="black"/>
<path d="M28.5815 35.8588C28.1002 35.3055 27.5903 35.5067 27.5903 35.5067C27.5801 35.5153 27.2709 36.0181 27.7421 36.5801L28.5901 35.8691" fill="#FFFF00"/>
<path d="M28.3558 34.8826L28.967 35.4664L28.5379 35.8262C28.0925 35.2949 27.6152 35.5558 27.6152 35.5558C27.605 35.5643 27.3008 36.0108 27.7103 36.52L27.2812 36.8798L26.8147 36.1574L28.3473 34.8724L28.3558 34.8826ZM29.0063 35.4509L27.2693 36.9072C27.2387 36.9329 27.2337 36.9892 27.268 37.0301C27.3108 37.0812 27.3672 37.0861 27.3978 37.0604L29.1348 35.6041C29.1654 35.5784 29.1704 35.5221 29.1275 35.471C29.0933 35.4301 29.0369 35.4252 28.9961 35.4594L29.0063 35.4509Z" fill="#FFFF00" stroke="black" stroke-width="0.1"/>
<path d="M28.3632 35.9732C28.0805 35.6361 27.7684 35.7411 27.7684 35.7411C27.7684 35.7411 27.6191 36.0403 27.8932 36.3673L28.3632 35.9732ZM28.1848 34.5568L26.5194 35.9532C26.4888 35.9789 26.4924 36.0454 26.5266 36.0863C26.5523 36.117 26.6087 36.1219 26.6393 36.0962L28.3048 34.6999C28.3354 34.6742 28.3404 34.6178 28.3061 34.5769C28.2804 34.5463 28.224 34.5413 28.1934 34.567L28.1848 34.5568ZM28.2725 34.7443L26.699 36.0636C26.6683 36.0893 26.6634 36.1456 26.6977 36.1865C26.7319 36.2274 26.7883 36.2323 26.8189 36.2066L28.4026 34.8788C28.4435 34.8445 28.4382 34.7968 28.4039 34.7559C28.3697 34.715 28.3235 34.7015 28.2827 34.7358L28.2725 34.7443ZM26.8535 34.0896L26.7309 34.1924L26.7995 34.2742L26.7075 34.3513L26.639 34.2695L26.5062 34.3809L26.5833 34.4729L26.4913 34.55L26.4056 34.4478L26.283 34.5506L26.4544 34.7549C26.4886 34.7958 26.5262 34.7991 26.5568 34.7734L27.0064 34.3965C27.0371 34.3708 27.0506 34.3246 27.0249 34.294L26.8535 34.0896ZM26.6148 34.7596L27.1325 35.4392L27.5718 35.0708L26.9843 34.4324L26.6063 34.7493" fill="#FFFF00"/>
<path d="M26.6148 34.7596L27.1325 35.4392L27.5718 35.0708L26.9843 34.4324L26.6063 34.7493M28.3632 35.9732C28.0805 35.6361 27.7684 35.7411 27.7684 35.7411C27.7684 35.7411 27.6191 36.0403 27.8932 36.3673L28.3632 35.9732ZM28.1848 34.5568L26.5194 35.9532C26.4888 35.9789 26.4924 36.0454 26.5266 36.0863C26.5523 36.117 26.6087 36.1219 26.6393 36.0962L28.3048 34.6999C28.3354 34.6742 28.3404 34.6178 28.3061 34.5769C28.2804 34.5463 28.224 34.5413 28.1934 34.567L28.1848 34.5568ZM28.2725 34.7443L26.699 36.0636C26.6683 36.0893 26.6634 36.1456 26.6977 36.1865C26.7319 36.2274 26.7883 36.2323 26.8189 36.2066L28.4026 34.8788C28.4435 34.8445 28.4382 34.7968 28.4039 34.7559C28.3697 34.715 28.3235 34.7015 28.2827 34.7358L28.2725 34.7443ZM26.8535 34.0896L26.7309 34.1924L26.7995 34.2742L26.7075 34.3513L26.639 34.2695L26.5062 34.3809L26.5833 34.4729L26.4913 34.55L26.4056 34.4478L26.283 34.5506L26.4544 34.7549C26.4886 34.7958 26.5262 34.7991 26.5568 34.7734L27.0064 34.3965C27.0371 34.3708 27.0506 34.3246 27.0249 34.294L26.8535 34.0896Z" stroke="black" stroke-width="0.1"/>
<path d="M27.4048 34.621L27.696 34.9684L28.1047 34.6257L27.8135 34.2783L27.4048 34.621Z" fill="#FFFF00" stroke="black" stroke-width="0.1"/>
<path d="M27.6621 33.9512L27.5395 34.054L27.6252 34.1561L27.5332 34.2332L27.4475 34.1311L27.3249 34.2339L27.4106 34.336L27.3186 34.4131L27.233 34.311L27.1104 34.4138L27.2817 34.6181C27.316 34.659 27.3535 34.6623 27.3842 34.6366L27.8235 34.2682C27.8398 34.2546 27.85 34.2351 27.8518 34.2139C27.8537 34.1928 27.8471 34.1718 27.8334 34.1555L27.6621 33.9512Z" fill="#FFFF00" stroke="black" stroke-width="0.1"/>
<path d="M27.0229 34.7647C26.9715 34.7034 26.8796 34.7805 26.931 34.8418L27.068 35.0053L27.16 34.9282L27.0229 34.7647Z" fill="black"/>
<path d="M27.7524 34.5362C27.701 34.4749 27.6193 34.5435 27.6707 34.6048L27.7735 34.7274L27.8552 34.6588L27.7524 34.5362Z" fill="black"/>
<path d="M26.3228 35.5272L26.614 35.8746L27.0227 35.532L26.7314 35.1846L26.3228 35.5272Z" fill="#FFFF00" stroke="black" stroke-width="0.1"/>
<path d="M26.5801 34.8584L26.4575 34.9612L26.5431 35.0634L26.4512 35.1405L26.3655 35.0383L26.2429 35.1411L26.3286 35.2433L26.2366 35.3204L26.151 35.2182L26.0283 35.321L26.1997 35.5253C26.2339 35.5662 26.2715 35.5695 26.3022 35.5438L26.7415 35.1754C26.7578 35.1618 26.7679 35.1423 26.7698 35.1211C26.7717 35.1 26.765 35.079 26.7514 35.0627L26.5801 34.8584Z" fill="#FFFF00" stroke="black" stroke-width="0.1"/>
<path d="M26.6704 35.4434C26.619 35.3821 26.5372 35.4507 26.5886 35.512L26.6914 35.6346L26.7732 35.5661L26.6704 35.4434Z" fill="black"/>
<path d="M31.0127 30.3267C31.0103 30.6081 31.1152 30.8799 31.3061 31.0867C31.3951 31.1863 31.504 31.2662 31.6257 31.3213C31.7473 31.3764 31.8792 31.4055 32.0128 31.4067C32.2928 31.4067 32.5461 31.2734 32.7194 31.0867C32.9103 30.8799 33.0152 30.6081 33.0128 30.3267V28.8867H31.0127V30.3267Z" fill="#003399"/>
<path d="M31.4764 29.6324C31.5868 29.6324 31.6764 29.5429 31.6764 29.4324C31.6764 29.322 31.5868 29.2324 31.4764 29.2324C31.3659 29.2324 31.2764 29.322 31.2764 29.4324C31.2764 29.5429 31.3659 29.6324 31.4764 29.6324Z" fill="white"/>
<path d="M32.5867 29.6324C32.6972 29.6324 32.7867 29.5429 32.7867 29.4324C32.7867 29.322 32.6972 29.2324 32.5867 29.2324C32.4763 29.2324 32.3867 29.322 32.3867 29.4324C32.3867 29.5429 32.4763 29.6324 32.5867 29.6324Z" fill="white"/>
<path d="M32.0291 30.1656C32.1396 30.1656 32.2291 30.0761 32.2291 29.9656C32.2291 29.8552 32.1396 29.7656 32.0291 29.7656C31.9186 29.7656 31.8291 29.8552 31.8291 29.9656C31.8291 30.0761 31.9186 30.1656 32.0291 30.1656Z" fill="white"/>
<path d="M31.4764 30.7262C31.5868 30.7262 31.6764 30.6366 31.6764 30.5262C31.6764 30.4157 31.5868 30.3262 31.4764 30.3262C31.3659 30.3262 31.2764 30.4157 31.2764 30.5262C31.2764 30.6366 31.3659 30.7262 31.4764 30.7262Z" fill="white"/>
<path d="M32.5867 30.7262C32.6972 30.7262 32.7867 30.6366 32.7867 30.5262C32.7867 30.4157 32.6972 30.3262 32.5867 30.3262C32.4763 30.3262 32.3867 30.4157 32.3867 30.5262C32.3867 30.6366 32.4763 30.7262 32.5867 30.7262Z" fill="white"/>
<path d="M28 30.3267C27.9976 30.6081 28.1025 30.8799 28.2934 31.0867C28.3824 31.1863 28.4913 31.2662 28.613 31.3213C28.7346 31.3764 28.8665 31.4055 29.0001 31.4067C29.2801 31.4067 29.5334 31.2734 29.7067 31.0867C29.8976 30.8799 30.0025 30.6081 30.0001 30.3267V28.8867H28V30.3267Z" fill="#003399"/>
<path d="M28.4637 29.6324C28.5741 29.6324 28.6637 29.5429 28.6637 29.4324C28.6637 29.322 28.5741 29.2324 28.4637 29.2324C28.3532 29.2324 28.2637 29.322 28.2637 29.4324C28.2637 29.5429 28.3532 29.6324 28.4637 29.6324Z" fill="white"/>
<path d="M29.574 29.6324C29.6845 29.6324 29.774 29.5429 29.774 29.4324C29.774 29.322 29.6845 29.2324 29.574 29.2324C29.4636 29.2324 29.374 29.322 29.374 29.4324C29.374 29.5429 29.4636 29.6324 29.574 29.6324Z" fill="white"/>
<path d="M29.0164 30.1656C29.1269 30.1656 29.2164 30.0761 29.2164 29.9656C29.2164 29.8552 29.1269 29.7656 29.0164 29.7656C28.9059 29.7656 28.8164 29.8552 28.8164 29.9656C28.8164 30.0761 28.9059 30.1656 29.0164 30.1656Z" fill="white"/>
<path d="M28.4637 30.7262C28.5741 30.7262 28.6637 30.6366 28.6637 30.5262C28.6637 30.4157 28.5741 30.3262 28.4637 30.3262C28.3532 30.3262 28.2637 30.4157 28.2637 30.5262C28.2637 30.6366 28.3532 30.7262 28.4637 30.7262Z" fill="white"/>
<path d="M29.574 30.7262C29.6845 30.7262 29.774 30.6366 29.774 30.5262C29.774 30.4157 29.6845 30.3262 29.574 30.3262C29.4636 30.3262 29.374 30.4157 29.374 30.5262C29.374 30.6366 29.4636 30.7262 29.574 30.7262Z" fill="white"/>
<path d="M34 30.3267C33.9976 30.6081 34.1025 30.8799 34.2934 31.0867C34.3824 31.1863 34.4913 31.2662 34.613 31.3213C34.7346 31.3764 34.8665 31.4055 35.0001 31.4067C35.2801 31.4067 35.5334 31.2734 35.7067 31.0867C35.8976 30.8799 36.0025 30.6081 36.0001 30.3267V28.8867H34V30.3267Z" fill="#003399"/>
<path d="M34.4637 29.6324C34.5741 29.6324 34.6637 29.5429 34.6637 29.4324C34.6637 29.322 34.5741 29.2324 34.4637 29.2324C34.3532 29.2324 34.2637 29.322 34.2637 29.4324C34.2637 29.5429 34.3532 29.6324 34.4637 29.6324Z" fill="white"/>
<path d="M35.574 29.6324C35.6845 29.6324 35.774 29.5429 35.774 29.4324C35.774 29.322 35.6845 29.2324 35.574 29.2324C35.4636 29.2324 35.374 29.322 35.374 29.4324C35.374 29.5429 35.4636 29.6324 35.574 29.6324Z" fill="white"/>
<path d="M35.0164 30.1656C35.1269 30.1656 35.2164 30.0761 35.2164 29.9656C35.2164 29.8552 35.1269 29.7656 35.0164 29.7656C34.9059 29.7656 34.8164 29.8552 34.8164 29.9656C34.8164 30.0761 34.9059 30.1656 35.0164 30.1656Z" fill="white"/>
<path d="M34.4637 30.7262C34.5741 30.7262 34.6637 30.6366 34.6637 30.5262C34.6637 30.4157 34.5741 30.3262 34.4637 30.3262C34.3532 30.3262 34.2637 30.4157 34.2637 30.5262C34.2637 30.6366 34.3532 30.7262 34.4637 30.7262Z" fill="white"/>
<path d="M35.574 30.7262C35.6845 30.7262 35.774 30.6366 35.774 30.5262C35.774 30.4157 35.6845 30.3262 35.574 30.3262C35.4636 30.3262 35.374 30.4157 35.374 30.5262C35.374 30.6366 35.4636 30.7262 35.574 30.7262Z" fill="white"/>
<path d="M31.0127 33.6402C31.0103 33.9216 31.1152 34.1934 31.3061 34.4002C31.3951 34.4998 31.504 34.5797 31.6257 34.6348C31.7473 34.6899 31.8792 34.719 32.0128 34.7202C32.2928 34.7202 32.5461 34.5869 32.7194 34.4002C32.9103 34.1934 33.0152 33.9216 33.0128 33.6402V32.2002H31.0127V33.6402Z" fill="#003399"/>
<path d="M31.4764 32.9459C31.5868 32.9459 31.6764 32.8564 31.6764 32.7459C31.6764 32.6354 31.5868 32.5459 31.4764 32.5459C31.3659 32.5459 31.2764 32.6354 31.2764 32.7459C31.2764 32.8564 31.3659 32.9459 31.4764 32.9459Z" fill="white"/>
<path d="M32.5867 32.9459C32.6972 32.9459 32.7867 32.8564 32.7867 32.7459C32.7867 32.6354 32.6972 32.5459 32.5867 32.5459C32.4763 32.5459 32.3867 32.6354 32.3867 32.7459C32.3867 32.8564 32.4763 32.9459 32.5867 32.9459Z" fill="white"/>
<path d="M32.0291 33.4791C32.1396 33.4791 32.2291 33.3896 32.2291 33.2791C32.2291 33.1686 32.1396 33.0791 32.0291 33.0791C31.9186 33.0791 31.8291 33.1686 31.8291 33.2791C31.8291 33.3896 31.9186 33.4791 32.0291 33.4791Z" fill="white"/>
<path d="M31.4764 34.0397C31.5868 34.0397 31.6764 33.9501 31.6764 33.8397C31.6764 33.7292 31.5868 33.6396 31.4764 33.6396C31.3659 33.6396 31.2764 33.7292 31.2764 33.8397C31.2764 33.9501 31.3659 34.0397 31.4764 34.0397Z" fill="white"/>
<path d="M32.5867 34.0397C32.6972 34.0397 32.7867 33.9501 32.7867 33.8397C32.7867 33.7292 32.6972 33.6396 32.5867 33.6396C32.4763 33.6396 32.3867 33.7292 32.3867 33.8397C32.3867 33.9501 32.4763 34.0397 32.5867 34.0397Z" fill="white"/>
<path d="M31.0127 26.94C31.0103 27.2214 31.1152 27.4932 31.3061 27.7C31.3951 27.7996 31.504 27.8795 31.6257 27.9346C31.7473 27.9897 31.8792 28.0188 32.0128 28.02C32.2928 28.02 32.5461 27.8867 32.7194 27.7C32.9103 27.4932 33.0152 27.2214 33.0128 26.94V25.5H31.0127V26.94Z" fill="#003399"/>
<path d="M31.4764 26.2457C31.5868 26.2457 31.6764 26.1562 31.6764 26.0457C31.6764 25.9352 31.5868 25.8457 31.4764 25.8457C31.3659 25.8457 31.2764 25.9352 31.2764 26.0457C31.2764 26.1562 31.3659 26.2457 31.4764 26.2457Z" fill="white"/>
<path d="M32.5867 26.2457C32.6972 26.2457 32.7867 26.1562 32.7867 26.0457C32.7867 25.9352 32.6972 25.8457 32.5867 25.8457C32.4763 25.8457 32.3867 25.9352 32.3867 26.0457C32.3867 26.1562 32.4763 26.2457 32.5867 26.2457Z" fill="white"/>
<path d="M32.0291 26.7789C32.1396 26.7789 32.2291 26.6894 32.2291 26.5789C32.2291 26.4685 32.1396 26.3789 32.0291 26.3789C31.9186 26.3789 31.8291 26.4685 31.8291 26.5789C31.8291 26.6894 31.9186 26.7789 32.0291 26.7789Z" fill="white"/>
<path d="M31.4764 27.3395C31.5868 27.3395 31.6764 27.2499 31.6764 27.1395C31.6764 27.029 31.5868 26.9395 31.4764 26.9395C31.3659 26.9395 31.2764 27.029 31.2764 27.1395C31.2764 27.2499 31.3659 27.3395 31.4764 27.3395Z" fill="white"/>
<path d="M32.5867 27.3395C32.6972 27.3395 32.7867 27.2499 32.7867 27.1395C32.7867 27.029 32.6972 26.9395 32.5867 26.9395C32.4763 26.9395 32.3867 27.029 32.3867 27.1395C32.3867 27.2499 32.4763 27.3395 32.5867 27.3395Z" fill="white"/>
</svg>
