<svg width="80" height="60" viewBox="0 0 80 60" fill="none" xmlns="http://www.w3.org/2000/svg">
<g clip-path="url(#clip0)">
<path fill-rule="evenodd" clip-rule="evenodd" d="M82.7802 60.003H-2.79004V0.00292969H82.7802V60.003Z" fill="white"/>
<path fill-rule="evenodd" clip-rule="evenodd" d="M40.7451 30.0488C40.7451 33.5453 39.3561 36.8986 36.8837 39.371C34.4113 41.8434 31.058 43.2324 27.5615 43.2324C24.065 43.2324 20.7117 41.8434 18.2393 39.371C15.7669 36.8986 14.3779 33.5453 14.3779 30.0488C14.3779 26.5523 15.7669 23.199 18.2393 20.7266C20.7117 18.2542 24.065 16.8652 27.5615 16.8652C31.058 16.8652 34.4113 18.2542 36.8837 20.7266C39.3561 23.199 40.7451 26.5523 40.7451 30.0488Z" fill="white"/>
<path fill-rule="evenodd" clip-rule="evenodd" d="M57.2812 30.8242C57.2812 40.3164 49.664 48.0273 40.2539 48.0273C30.8437 48.0273 23.2383 40.3164 23.2383 30.8242C23.2383 21.332 30.8555 13.6094 40.2656 13.6094C49.6758 13.6094 57.2812 21.332 57.2812 30.8242Z" fill="#C70000"/>
<path fill-rule="evenodd" clip-rule="evenodd" d="M5.43652 14.8633L15.2334 3.53125L17.5654 5.53515L7.75684 16.8789L5.43652 14.8633ZM8.64746 17.6406L18.4443 6.30859L20.7764 8.30078L10.9678 19.6562L8.64746 17.6406Z" fill="black"/>
<path fill-rule="evenodd" clip-rule="evenodd" d="M5.43652 14.8633L15.2334 3.53125L17.5654 5.53516L7.75684 16.8789L5.43652 14.8633Z" fill="black"/>
<path fill-rule="evenodd" clip-rule="evenodd" d="M5.43652 14.8633L15.2334 3.53125L17.5654 5.53516L7.75684 16.8789L5.43652 14.8633ZM11.9287 20.4883L21.7256 9.13281L24.0576 11.1484L14.249 22.4922L11.9287 20.4883Z" fill="black"/>
<path fill-rule="evenodd" clip-rule="evenodd" d="M5.43652 14.8633L15.2334 3.53125L17.5654 5.53516L7.75684 16.8789L5.43652 14.8633Z" fill="black"/>
<path fill-rule="evenodd" clip-rule="evenodd" d="M5.43652 14.8623L15.2334 3.53027L17.5654 5.53418L7.75684 16.8779L5.43652 14.8623ZM65.0615 3.51855L74.7881 14.9326L72.4443 16.9248L62.7178 5.51074L65.0615 3.51855ZM58.5342 9.08496L68.2607 20.499L65.917 22.4912L56.1904 11.0772L58.5342 9.08496Z" fill="black"/>
<path fill-rule="evenodd" clip-rule="evenodd" d="M60.1631 15.6592L69.3506 7.71387L71.0732 9.70605L61.2295 18.542L60.1396 15.6592H60.1631Z" fill="white"/>
<path fill-rule="evenodd" clip-rule="evenodd" d="M71.4824 43.6436L62.0605 54.8701L59.752 52.9482L69.1738 41.7217L71.4824 43.6436ZM61.8262 6.27246L71.5527 17.6865L69.2207 19.6787L59.5059 8.25293L61.8262 6.27246ZM74.6816 46.3037L65.248 57.5303L62.9277 55.6084L72.3613 44.3818L74.6816 46.3037ZM68.2246 40.9365L58.8027 52.1631L56.4941 50.2412L65.916 39.0147L68.2246 40.9365Z" fill="black"/>
<path fill-rule="evenodd" clip-rule="evenodd" d="M23.4854 27.7885C24.0244 32.1245 24.8096 36.9526 31.4776 37.4448C33.9737 37.5971 38.8369 36.8589 40.501 30.0385C42.7041 23.4995 49.2901 21.6245 53.7783 25.1635C56.3447 26.8276 57.0479 29.4643 57.2119 31.4565C57.0127 37.7846 53.3565 43.2925 48.6807 45.7534C43.2901 48.9526 35.8369 49.0229 29.3096 44.1714C26.3682 41.4175 22.2549 36.3198 23.4854 27.7885Z" fill="#3D5897"/>
<path fill-rule="evenodd" clip-rule="evenodd" d="M62.3193 43.4795L71.5303 51.4014L69.8193 53.3935L59.6123 44.9795L62.3076 43.4795H62.3193Z" fill="white"/>
<path fill-rule="evenodd" clip-rule="evenodd" d="M11.0029 41.9102L20.7295 53.3125L18.3857 55.3047L8.65918 43.9023L11.0029 41.9102Z" fill="black"/>
<path fill-rule="evenodd" clip-rule="evenodd" d="M9.32617 51.2959L18.5371 43.3389L20.2598 45.3311L10.416 54.1787L9.32617 51.2842V51.2959Z" fill="white"/>
<path fill-rule="evenodd" clip-rule="evenodd" d="M14.2383 39.1562L23.9648 50.5586L21.6211 52.5508L11.8945 41.1484L14.2383 39.1562ZM7.71094 44.7227L17.4375 56.125L15.0937 58.1172L5.36719 46.7148L7.71094 44.7227Z" fill="black"/>
</g>
<defs>
<clipPath id="clip0">
<rect width="80" height="60" fill="white"/>
</clipPath>
</defs>
</svg>
