<svg width="24" height="18" viewBox="0 0 24 18" fill="none" xmlns="http://www.w3.org/2000/svg">
<g clip-path="url(#clip0)">
<path fill-rule="evenodd" clip-rule="evenodd" d="M0 0H27V18H0V0Z" fill="#FE0000"/>
<path fill-rule="evenodd" clip-rule="evenodd" d="M0 0H13.5598V9H0V0Z" fill="#000095"/>
<path fill-rule="evenodd" clip-rule="evenodd" d="M9.91836 6.27881L8.25547 5.93428L8.60703 7.59717L7.34141 6.46865L6.81406 8.08584L6.27969 6.47217L5.01406 7.61123L5.35859 5.94482L3.69922 6.2999L4.82422 5.03076L3.20703 4.50342L4.82422 3.96904L3.68516 2.71045L5.34805 3.05146L4.99649 1.38857L6.26211 2.51709L6.78945 0.899902L7.32383 2.51357L8.58594 1.37451L8.24492 3.04092L9.9043 2.68584L8.7793 3.95498L10.393 4.48232L8.7793 5.0167L9.91836 6.27881Z" fill="white"/>
<path fill-rule="evenodd" clip-rule="evenodd" d="M8.38633 6.15239L7.85899 6.43013L7.34922 6.73247L6.75156 6.71138L6.15742 6.71841L5.65469 6.402L5.13438 6.11724L4.85313 5.58989L4.55078 5.08013L4.57188 4.4895L4.56484 3.89185L4.88125 3.39263L5.17305 2.87231L5.69688 2.59458L6.21016 2.29224L6.8043 2.31333L7.40195 2.3063L7.90469 2.62271L8.42149 2.91099L8.70274 3.43481L9.00508 3.94458L8.98399 4.53872L8.99102 5.13286L8.67461 5.6356L8.38633 6.15239Z" fill="#000095"/>
<path fill-rule="evenodd" clip-rule="evenodd" d="M8.60059 4.51041C8.6114 4.75652 8.57226 5.00228 8.48553 5.23286C8.39879 5.46344 8.26627 5.67406 8.09593 5.85204C7.9256 6.03002 7.72099 6.17167 7.49444 6.26843C7.26789 6.3652 7.02409 6.41509 6.77773 6.41509C6.53138 6.41509 6.28758 6.3652 6.06103 6.26843C5.83448 6.17167 5.62987 6.03002 5.45954 5.85204C5.2892 5.67406 5.15668 5.46344 5.06994 5.23286C4.98321 5.00228 4.94407 4.75652 4.95488 4.51041C4.97551 4.04081 5.17658 3.59728 5.51617 3.27228C5.85576 2.94728 6.30768 2.76587 6.77773 2.76587C7.24779 2.76587 7.69971 2.94728 8.0393 3.27228C8.37889 3.59728 8.57996 4.04081 8.60059 4.51041Z" fill="white"/>
</g>
<defs>
<clipPath id="clip0">
<rect width="24" height="18" fill="white"/>
</clipPath>
</defs>
</svg>
