<svg width="80" height="60" viewBox="0 0 80 60" fill="none" xmlns="http://www.w3.org/2000/svg">
<path fill-rule="evenodd" clip-rule="evenodd" d="M0 0H80V60H0V0Z" fill="#E30A17"/>
<path fill-rule="evenodd" clip-rule="evenodd" d="M50.875 30.9387C50.875 39.2137 44.05 45.9262 35.625 45.9262C27.2 45.9262 20.375 39.2137 20.375 30.9262C20.375 22.6387 27.2 15.9512 35.625 15.9512C44.05 15.9512 50.875 22.6637 50.875 30.9387Z" fill="white"/>
<path fill-rule="evenodd" clip-rule="evenodd" d="M51.6238 30.9387C51.6238 37.5637 46.1738 42.9262 39.4363 42.9262C32.6988 42.9262 27.2363 37.5512 27.2363 30.9262C27.2363 24.3012 32.6988 18.9512 39.4363 18.9512C46.1738 18.9512 51.6363 24.3137 51.6363 30.9387H51.6238Z" fill="#E30A17"/>
<path fill-rule="evenodd" clip-rule="evenodd" d="M53.8354 23.9383L53.7104 29.4758L48.5479 30.8758L53.6479 32.6883L53.5229 37.7758L56.8353 33.8008L61.8603 35.5508L58.9603 31.2883L62.4978 27.0508L57.0603 28.5508L53.8354 23.9258V23.9383Z" fill="white"/>
</svg>
