<svg width="24" height="18" viewBox="0 0 24 18" fill="none" xmlns="http://www.w3.org/2000/svg">
<g clip-path="url(#clip0)">
<path d="M-6.02393 0H30.0721V18.048H-6.02393V0Z" fill="#012169"/>
<path d="M-6.02393 0V2.0163L26.0359 18.048H30.0721V16.0317L-1.9878 0H-6.02393ZM30.0721 0V2.0163L-1.9878 18.048H-6.02393V16.0317L26.0359 0H30.0721Z" fill="white"/>
<path d="M9.01725 0V18.048H15.0309V0H9.01725ZM-6.02393 6.01717V12.0308H30.0721V6.01717H-6.02393Z" fill="white"/>
<path d="M-6.02393 7.2192V10.8288H30.0721V7.2192H-6.02393ZM10.2193 0V18.048H13.8289V0H10.2193ZM-6.02393 18.048L6.0069 12.0308H8.7L-3.33435 18.048H-6.02393ZM-6.02393 0L6.0069 6.01717H3.31732L-6.02393 1.34655V0ZM15.3517 6.01717L27.3825 0H30.0721L18.0412 6.01717H15.3517ZM30.0721 18.048L18.0412 12.0308H20.7308L30.0721 16.7014V18.048Z" fill="#C8102E"/>
</g>
<defs>
<clipPath id="clip0">
<rect width="24" height="18" fill="white"/>
</clipPath>
</defs>
</svg>
