<svg width="476" height="468" viewBox="0 0 476 468" fill="none" xmlns="http://www.w3.org/2000/svg">
<circle r="234" transform="matrix(-1 0 0 1 242 234)" fill="#FFEBF2"/>
<ellipse rx="175.5" ry="176" transform="matrix(-1 0 0 1 241.5 234)" fill="#FFDDE9"/>
<g filter="url(#filter0_d)">
<rect x="78" y="25" width="326" height="347" rx="10" fill="white"/>
</g>
<path d="M78 35C78 29.4772 82.4772 25 88 25H394C399.523 25 404 29.4772 404 35V66H78V35Z" fill="#5B5863"/>
<circle cx="100" cy="45" r="8" fill="white"/>
<circle cx="131" cy="45" r="8" fill="white"/>
<circle cx="162" cy="45" r="8" fill="white"/>
<g opacity="0.5" filter="url(#filter1_d)">
<mask id="mask0" mask-type="alpha" maskUnits="userSpaceOnUse" x="112" y="88" width="259" height="259">
<rect x="112" y="88" width="258.47" height="258.47" fill="#C4C4C4"/>
</mask>
<g mask="url(#mask0)">
<path d="M240.941 346.254C312.153 346.254 369.882 288.525 369.882 217.313C369.882 146.1 312.153 88.3715 240.941 88.3715C169.729 88.3715 112 146.1 112 217.313C112 288.525 169.729 346.254 240.941 346.254Z" fill="#FFD3DF"/>
<path d="M349.627 278.575C349.627 278.575 346.355 279.118 345.812 279.302C345.269 279.486 343.815 279.665 343.268 280.222C342.72 280.779 342.541 280.043 340.723 280.586C338.905 281.129 338.362 280.765 339.453 278.768C340.544 276.771 339.816 276.223 339.632 274.769C339.448 273.315 341.629 272.409 337.999 272.224C334.368 272.04 334.184 271.304 331.639 272.767C329.095 274.231 327.098 275.676 327.098 275.676L324.553 274.222C324.553 274.222 321.645 271.134 321.102 270.95C320.2 270.816 319.289 270.756 318.378 270.77C318.064 269.647 318.002 268.469 318.198 267.319C318.562 265.686 318.019 265.138 316.928 265.686C315.838 266.233 313.84 267.319 313.84 267.319C313.84 267.319 310.569 267.683 308.572 268.773C306.575 269.864 306.39 270.591 303.123 270.227C299.856 269.864 299.672 272.772 297.141 271.148C294.61 269.523 293.327 268.967 292.236 267.697C291.145 266.426 290.418 267.154 290.782 269.077C291.145 271 293.506 270.623 291.053 271.438C288.601 272.252 287.331 271.074 287.782 273.89C288.233 276.706 288.325 278.611 287.51 278.611C286.696 278.611 284.781 276.522 286.24 274.705C287.699 272.887 286.332 271.889 286.332 271.889C286.332 271.889 286.967 270.508 287.878 270.342C288.789 270.177 289.512 268.161 287.786 268.433C286.061 268.704 286.153 267.89 285.697 269.431C285.242 270.973 284.878 271.341 283.152 271.792C281.427 272.243 281.243 271.792 279.973 272.712C278.703 273.633 279.973 273.982 278.063 273.982C276.153 273.982 275.61 274.525 275.61 275.979C275.61 277.434 274.975 277.526 274.156 278.432C273.337 279.339 273.158 279.523 272.523 280.25C272.145 280.644 271.92 281.159 271.888 281.704C271.796 282.067 271.069 282.247 270.618 282.067C270.167 281.888 269.527 281.069 267.894 279.978C266.26 278.888 265.169 278.432 263.26 278.432C261.35 278.432 259.716 282.339 257.084 281.064C254.452 279.79 254.724 279.518 253.178 278.519C251.631 277.521 252.087 277.337 251.797 275.975C251.507 274.613 250.978 274.429 251.705 273.343C252.432 272.257 252.524 271.525 252.432 269.256C252.34 266.988 254.066 263.896 252.432 262.989C250.799 262.083 254.342 261.898 249.16 261.719C243.979 261.54 244.982 260.449 241.531 260.992C238.08 261.535 236.17 261.991 235.172 261.912C234.173 261.834 232.627 261.452 234.445 259.823C236.262 258.194 236.897 259.28 236.805 257.191C236.713 255.102 235.986 253.468 237.077 254.103C238.167 254.738 238.894 253.74 239.621 252.833C240.348 251.927 238.439 250.017 240.348 248.476C242.258 246.934 243.892 246.023 240.983 246.023C238.075 246.023 240.44 244.643 236.626 245.024C232.811 245.406 232.903 245.204 232.719 246.405C232.535 247.606 229.811 245.314 231.085 248.223C232.36 251.131 232.466 252.58 231.265 252.764C230.226 252.846 229.194 253 228.177 253.225C225.361 253.767 223.635 255.769 222.908 254.407C222.181 253.045 223.368 252.682 221.275 252.682C219.181 252.682 218.914 253.501 218.187 250.684C217.46 247.868 214.372 245.324 215.734 245.324C217.097 245.324 216.917 243.869 216.277 242.328C215.638 240.786 215.817 238.693 215.817 237.059C215.817 235.426 215.725 232.609 216.908 233.608C218.09 234.606 218.178 233.971 218.178 232.227C218.178 230.483 216.724 229.319 217.814 227.778C218.905 226.236 217.722 226.324 220.083 225.417C222.444 224.511 221.717 224.419 224.082 224.326C226.447 224.234 226.355 224.69 227.261 223.691C228.168 222.693 227.353 220.783 228.531 221.782C229.709 222.78 229.074 222.509 231.527 222.325C233.98 222.141 235.342 223.144 235.613 221.28C235.885 219.417 234.886 219.237 237.794 219.053C240.703 218.869 242.065 218.69 243.316 218.782C244.568 218.874 244.697 217.962 244.95 219.509C245.203 221.055 246.676 220.429 247.766 220.236C248.857 220.042 248.949 218.602 249.947 219.509C250.946 220.415 253.127 221.418 253.583 222.504C254.038 223.59 254.503 224.05 254.043 225.776C253.583 227.502 252.662 228.137 253.771 229.048C254.88 229.959 255.405 229.508 255.497 230.865C255.589 232.223 256.679 233.41 256.767 234.045C256.854 234.68 258.313 235.136 258.764 234.965C259.215 234.795 261.125 233.24 259.762 228.426C258.4 223.613 259.22 223.429 258.58 220.797C257.94 218.165 257.489 217.889 259.123 215.528C260.756 213.168 261.12 212.349 263.03 211.442C264.939 210.536 265.574 209.988 267.028 207.807C268.483 205.626 269.845 204.899 271.662 204.084C273.48 203.27 271.934 203.04 271.98 202.133C272.026 201.226 273.204 201.673 273.977 201.18C274.75 200.688 275.357 200.545 274.929 199.8C274.501 199.055 273.475 199.979 273.613 199.39C273.751 198.801 275.656 197.757 275.159 197.209C274.662 196.662 273.977 196.436 273.024 196.938C272.072 197.439 271.073 197.117 271.478 196.528C271.883 195.939 272.523 196.846 272.343 195.028C272.164 193.21 270.935 190.942 271.524 189.966C272.113 188.991 272.297 188.126 272.389 190.887C272.481 193.648 272.118 196.473 273.388 195.654C274.658 194.835 275.748 194.154 275.067 192.52C274.386 190.887 273.342 190.022 274.607 190.569C275.873 191.117 275.606 192.93 276.558 191.839C277.511 190.749 278.831 189.566 278.012 188.66C277.193 187.753 277.833 186.708 277.874 186.115C277.916 185.521 276.922 184.707 278.417 184.661C279.913 184.615 281.28 185.48 281.961 184.201C282.642 182.921 283.231 182.567 282.232 182.7C281.234 182.834 280.097 183.699 279.471 183.52C278.845 183.34 280.608 182.383 282.103 182.111C283.599 181.84 282.195 181.43 283.649 181.384C285.103 181.338 286.829 181.748 286.87 180.795C286.912 179.843 285.554 178.798 285.03 179.116C284.505 179.433 284.11 179.116 284.165 178.251C284.22 177.386 285.255 176.87 285.665 175.844C286.074 174.818 287.846 173.143 288.343 172.835C288.84 172.526 290.644 173.589 290.994 172.273C291.343 170.957 291.417 170.433 291.661 170.331C291.905 170.23 292.581 170.667 292.995 169.839C293.409 169.011 294.003 167.184 294.123 168.459C294.242 169.733 293.819 169.963 294.951 168.997C296.083 168.031 296.506 166.82 296.571 167.616C296.635 168.412 297.031 168.951 297.491 168.403C297.951 167.856 297.901 169.209 297.233 169.324C296.566 169.439 295.31 167.943 295.425 169.416C295.54 170.888 294.914 169.876 294.771 171.132C294.629 172.388 294.629 175.131 296.203 173.796C297.776 172.462 297.514 171.496 298.614 170.667C299.524 170.045 300.48 169.489 301.471 169.006L303.151 166.954C303.151 166.954 304.398 166.162 302.967 166.162C301.536 166.162 301.982 165.918 300.864 166.291C299.746 166.664 299.212 166.563 298.614 166.029C298.016 165.495 298.154 165.311 296.865 165.375C295.577 165.44 295.379 165.665 294.767 163.71C294.155 161.754 296.147 161.892 294.155 161.759C292.162 161.625 292.337 161.713 291.159 162.099C289.981 162.486 289.526 162.168 290.294 161.529C291.063 160.889 292.02 161.211 293.055 160.709C294.09 160.208 295.775 160.392 294.758 159.163C294.023 158.379 293.054 157.853 291.997 157.663L287.998 159.343L285.545 161.538C285.545 161.538 284.229 163.273 283.456 164.299C282.683 165.325 281.413 166.199 282.14 164.929C282.867 163.659 283.866 161.616 284.901 160.525C285.764 159.692 286.673 158.908 287.625 158.179C288.578 157.346 288.486 155.257 289.852 155.031C291.219 154.806 292.507 154.939 294.914 154.668C297.321 154.396 300.105 154.207 300.965 153.747C301.826 153.287 301.941 152.537 302.277 151.69C302.613 150.844 302.64 150.995 303.988 150.678C305.337 150.36 305.337 148.787 305.337 148C305.337 147.213 303.878 146.909 303.639 145.878C303.399 144.848 303.726 144.001 302.958 144.544C302.189 145.087 302.433 146.421 302.01 145.878C301.586 145.336 302.677 143.822 301.163 144.185C299.649 144.549 300.376 144.006 298.922 145.699C297.468 147.392 296.589 147.08 297.482 145.699C298.374 144.319 300.243 143.499 300.859 143.21C301.476 142.92 299.709 142.556 297.831 142.252C296.52 142.061 295.285 141.515 294.261 140.674C293.836 140.376 293.325 140.227 292.807 140.251C292.627 140.251 292.323 139.584 290.446 137.83C288.568 136.077 286.148 133.772 284.924 132.442C283.7 131.112 283.47 129.11 283.166 130.988C282.863 132.865 283.893 133.772 282.683 134.439C281.473 135.106 281.942 135.47 280.769 135.819C279.595 136.169 280.005 135.939 279.011 135.576C278.017 135.212 276.991 135.999 276.931 135.212C276.871 134.425 278.928 135.516 277.111 133.758C275.293 132 276.356 133.008 276.402 131.664C276.448 130.32 273.857 130.15 272.343 129.787C270.829 129.423 271.616 128.636 269.559 128.517C268.247 128.451 266.942 128.269 265.662 127.974C265.137 127.854 261.626 127.187 261.626 127.187C261.626 127.187 260.292 125.493 260.246 127.55C260.2 129.607 260.186 129.791 260.186 130.638C260.186 131.485 261.189 132.741 261.189 132.741C261.189 132.741 262.473 131.821 262.744 132.561C263.016 133.302 260.563 133.698 259.928 134.149C259.293 134.6 258.976 134.287 260.338 135.373C261.7 136.459 262.882 136.754 263.2 137.416C263.517 138.079 264.065 139.326 264.065 139.326C264.065 139.326 265.473 140.324 264.746 140.416C264.019 140.508 264.157 140.734 263.158 142.096C262.306 143.259 261.141 144.158 259.799 144.687C258.801 145.05 258.663 145.147 259.026 146.412C259.39 147.678 260.48 147.503 260.706 148.685C260.931 149.868 260.287 149.146 261.166 150.701L262.04 152.256C262.04 152.256 261.12 151.368 261.668 152.638C262.215 153.908 262.128 154.907 261.396 153.729C260.664 152.551 261.033 152.183 260.398 152.808C259.762 153.434 259.67 153.536 260.218 154.396C260.766 155.257 261.401 156.757 260.761 155.896C260.121 155.036 260.08 154.056 259.081 154.488C258.083 154.921 257.402 155.772 256.946 155.675C256.491 155.579 256.992 154.396 256.992 154.396L257.857 152.624L256.449 151.488C256.449 151.488 254.351 152.077 255.106 151.17C255.86 150.264 254.586 149.988 254.185 149.988C253.785 149.988 252.46 148.989 253.504 148.989C254.549 148.989 254.678 149.081 255.115 148.354C255.552 147.627 254.779 146.675 254.461 146.081C254.144 145.487 254.779 144.084 253.417 144.084C252.055 144.084 249.736 144.447 249.275 144.13C248.815 143.812 248.093 143.039 247.048 142.749C246.004 142.46 244.642 142.887 244.14 142.929C243.639 142.97 243.961 142.17 243.597 141.709C243.234 141.249 241.918 140.84 241.554 140.789C241.19 140.739 240.601 140.651 240.601 140.651C240.318 140.519 240.079 140.307 239.915 140.04C239.751 139.773 239.67 139.464 239.681 139.151C239.681 138.014 238.908 136.97 238.227 137.605C237.776 138.039 237.352 138.5 236.957 138.985C236.957 138.985 235.549 137.076 235.733 136.261C235.917 135.447 236.686 135.852 236.686 134.881C236.686 133.91 236.778 134.789 237.551 133.565C238.324 132.341 238.411 131.204 239.732 131.383C241.052 131.563 241.913 131.793 242.005 130.003C242.097 128.213 242.276 126.234 243.385 125.507C244.494 124.78 243.565 125.599 244.973 124.587C246.381 123.575 247.334 123.087 246.427 122.815C245.521 122.544 244.927 123.133 244.246 122.498C243.565 121.863 242.405 121.361 243.928 121.499C245.452 121.637 246.202 122.59 246.924 122.364C247.699 122.006 248.36 121.441 248.834 120.731C249.013 120.367 249.243 120.91 249.653 120.413C250.062 119.916 249.745 119.461 250.789 119.953C251.834 120.445 252.243 120.588 252.29 119.728C252.336 118.867 253.38 118.591 253.38 117.887C253.38 117.183 252.515 117.662 252.197 116.433C251.88 115.204 251.47 114.206 250.973 113.888C250.476 113.571 249.791 112.844 249.064 113.387C248.337 113.93 247.927 113.976 248.065 114.703C248.128 115.214 248.05 115.733 247.84 116.203C247.399 116.528 246.989 116.893 246.616 117.293C245.751 118.154 245.889 119.925 245.162 117.928C244.435 115.931 244.619 115.204 243.892 115.02C243.473 114.848 243.006 114.831 242.576 114.974C241.941 115.112 241.895 115.066 240.942 114.974C239.989 114.882 239.626 114.339 239.534 115.02C239.442 115.701 239.488 116.401 239.851 116.474C240.215 116.548 239.759 116.75 238.669 117.293C238.126 117.551 237.608 117.859 237.123 118.214C237.123 118.214 238.393 118.941 237.624 119.35C236.856 119.76 236.989 119.985 236.58 119.76C236.17 119.534 235.356 119.125 235.715 118.379C235.858 117.99 236.057 117.623 236.304 117.289C236.847 116.47 237.528 116.106 237.574 115.881C237.62 115.655 237.072 115.016 236.193 114.5C235.314 113.985 234.739 113.12 234.058 113.727C233.515 114.132 232.999 114.572 232.512 115.043C232.332 115.315 233.464 115.223 233.892 115.361C234.32 115.499 234.619 116.405 234.619 116.405C234.599 116.557 234.538 116.701 234.442 116.821C234.347 116.941 234.22 117.033 234.076 117.086C233.575 117.27 232.806 117.629 232.806 117.629C232.806 117.629 233.851 118.494 231.536 117.537C229.222 116.58 228.449 115.858 226.475 114.859C224.5 113.861 224.431 112.908 223.884 113.861C223.336 114.813 224.385 114.997 222.839 115.241C221.293 115.485 221.114 115.333 220.75 115.922C220.498 116.406 220.328 116.928 220.249 117.468L220.157 118.287C220.157 118.287 219.614 119.106 219.43 119.152C219.103 119.149 218.785 119.055 218.509 118.881C218.33 118.743 218.827 117.698 218.827 117.473C218.647 116.991 218.419 116.528 218.146 116.092C218.146 116.092 217.511 114.956 216.692 115.14C215.97 115.273 215.242 115.364 214.51 115.411C214.51 115.411 212.283 114.684 212.421 114.367C212.559 114.049 213.802 114.049 213.691 113.824C213.581 113.598 214.055 113.341 212.601 113.175C211.147 113.009 208.919 112.416 208.919 111.334C208.919 110.253 208.059 110.11 206.784 110.152C205.51 110.193 206.738 109.015 205.238 109.517C203.738 110.018 203.011 109.392 203.011 109.392C203.011 109.392 203.554 108.79 201.331 108.836C199.109 108.882 199.831 108.974 198.833 109.337C197.834 109.701 197.788 109.425 197.696 108.836C197.604 108.247 196.606 108.067 195.925 108.155C195.471 108.238 195.048 108.441 194.701 108.744C194.634 108.096 194.433 107.469 194.112 106.903C193.523 105.72 194.291 106.038 192.975 105.633C191.659 105.228 190.251 104.588 191.157 104.087C192.064 103.585 193.656 102.587 192.565 101.818C191.475 101.05 191.7 100.898 189.887 101.317C188.074 101.735 187.481 100.953 186.846 101.818C186.211 102.683 186.938 102.591 185.005 103.318C183.072 104.045 183.505 103.636 182.598 104.906C181.692 106.176 181.646 106.585 181.374 106.088C181.103 105.592 181.554 104.179 182.419 103.18C182.965 102.488 183.445 101.747 183.855 100.967C182.155 101.814 180.477 102.699 178.82 103.622C178.402 103.941 178.119 104.406 178.029 104.924C177.785 106.682 178.949 107.487 177.606 107.75C176.262 108.012 175.848 108.983 175.121 109.043C174.394 109.103 174.877 108.5 173.124 108.375C172.254 108.316 171.812 108.136 171.311 108.132C168.611 109.883 165.982 111.724 163.424 113.654C164.804 115.338 164.675 116.603 164.675 116.603L161.33 118.853L156.885 120.114C156.885 120.114 158.431 121.435 161.16 120.772C163.888 120.11 165.522 116.925 165.43 118.2C165.338 119.475 163.796 120.077 162.977 120.961C162.158 121.844 165.793 120.657 166.52 119.746C167.247 118.835 168.067 115.476 169.065 116.203C169.678 116.675 170.099 117.353 170.248 118.112L168.702 119.659L170.975 120.777L174.334 122.567C174.334 122.567 174.513 122.567 174.334 123.565C174.154 124.564 173.547 124.776 173.851 125.171C174.154 125.567 174.118 125.535 173.561 126.441C173.042 127.198 172.572 127.986 172.153 128.802C172.033 129.198 172.788 129.437 173.032 128.802C173.276 128.167 173.699 127.256 173.699 127.256C173.699 127.256 174.849 125.167 175.121 125.415C175.337 125.674 175.501 125.973 175.604 126.294L174.684 128.503C174.684 128.503 174.592 129.078 174.472 129.621C174.352 130.164 174.532 130.288 174.228 130.541C173.924 130.794 173.257 129.695 173.924 130.785C174.592 131.876 174.348 131.876 173.924 132.359C173.501 132.842 173.041 132.966 173.575 133.45C174.108 133.933 174.831 132.723 175.135 133.086C175.438 133.45 175.802 133.146 175.618 133.873C175.434 134.6 176.382 135.023 175.668 135.447C174.955 135.87 173.952 134.839 173.575 134.964C173.197 135.088 173.018 135.046 172.894 135.553C172.769 136.059 172.351 136.298 172.894 136.661C173.437 137.025 172.774 137.508 172.714 137.872C172.654 138.235 175.935 136.841 174.711 137.872C173.487 138.902 173.257 138.962 172.894 139.929C172.53 140.895 171.863 141.746 172.65 141.746C173.437 141.746 174.03 140.656 174.527 140.656C175.024 140.656 174.688 141.199 174.095 141.746C173.501 142.294 172.47 141.686 172.107 142.473C171.88 143.014 171.501 143.478 171.016 143.808C170.473 144.291 170.533 144.415 171.26 145.018C171.987 145.621 173.828 144.774 173.561 145.018C173.294 145.262 172.986 145.262 172.641 145.653C172.295 146.044 171.913 146.606 172.567 146.5C173.072 146.46 173.558 146.287 173.975 145.998C174.279 145.74 175.231 145.179 174.716 145.786C174.2 146.394 173.823 146.21 173.897 146.707C173.97 147.204 174.168 146.859 174.108 147.342C174.049 147.825 174.049 148.129 174.288 148.262C174.463 148.286 174.641 148.261 174.803 148.191C174.965 148.122 175.105 148.009 175.208 147.866C175.328 147.622 175.935 147.503 175.632 147.986C175.328 148.469 174.711 148.833 174.997 149.32C175.282 149.808 175.54 150.199 175.54 150.199L175.144 151.17L175.024 152.836C174.831 153.643 174.568 154.431 174.237 155.192C173.814 156.039 173.147 157.912 173.147 157.912H172.3L172.479 154.801C172.479 154.801 172.176 152.96 171.996 152.762C171.817 152.565 171.389 152.408 171.076 153.016C170.87 153.459 170.708 153.921 170.593 154.396C170.626 154.805 170.542 155.216 170.349 155.579C170.108 156.062 169.945 156.581 169.866 157.116C169.866 157.116 168.656 157.64 167.928 159.518C167.201 161.395 166.727 161.386 166.359 162.96C165.991 164.533 166.599 165.44 165.145 166.346C163.69 167.253 163.451 166.705 163.023 168.403C162.595 170.101 163.267 170.221 162.48 171.735C161.693 173.249 161.21 173.249 161.1 174.519C160.989 175.789 160.483 177.036 160.488 178.076C160.492 179.116 159.696 179.967 160.488 180.694C161.279 181.421 160.856 181.361 161.279 181.421C161.703 181.481 161.583 180.938 162.43 181.421C163.276 181.904 163.943 181.242 163.276 181.904C162.609 182.567 162.356 182.875 162.356 182.875C162.356 182.875 161.933 182.392 161.749 183.239C161.564 184.086 160.778 184.017 160.902 184.444C161.116 184.875 161.402 185.266 161.749 185.599C161.749 185.599 160.294 185.719 161.021 187.173C161.749 188.627 161.629 188.324 161.629 189.474C161.621 190.132 161.724 190.787 161.933 191.411L162.963 193.146L163.884 194.315C163.884 194.315 163.097 194.375 164.491 195.346C165.885 196.317 165.761 194.425 166.125 196.616C166.338 197.63 166.422 198.668 166.373 199.703L167.353 200.973C167.61 201.711 167.707 202.496 167.639 203.274C167.579 204.797 167.639 203.831 167.639 205.708C167.639 207.586 167.639 208.009 168.366 209.279C169.093 210.549 170.726 211.157 171.03 211.884C171.238 212.612 171.34 213.367 171.334 214.125C171.334 214.125 171.393 214.668 171.578 215.579C171.762 216.49 171.458 216.246 170.657 215.335C169.857 214.424 169.203 215.455 169.203 215.455C169.172 215.746 169.21 216.041 169.316 216.315C169.422 216.589 169.591 216.833 169.811 217.028C170.597 217.875 171.932 219.269 171.932 219.269C171.932 219.269 172.415 218.906 172.779 220.48C173.142 222.053 173.533 221.63 173.519 222.9C173.506 224.17 173.022 225.808 175.079 227.502C177.136 229.195 176.05 228.473 176.897 230.41C177.457 231.852 178.374 233.128 179.561 234.119C180.408 234.772 182.953 237.464 181.379 234.119C179.805 230.773 178.981 230.967 178.3 229.839C177.619 228.712 178.351 227.502 177.38 224.474C176.409 221.446 174.835 218.432 174.472 216.306C174.108 214.18 174.228 212.022 172.654 208.437C171.081 204.853 170.11 202.796 171.564 203.762C173.018 204.728 174.835 203.035 174.955 205.096C175.075 207.158 175.199 210.246 175.199 210.246C175.199 210.246 175.199 210.789 176.533 213.927C177.868 217.065 178.715 217.199 179.317 217.801C179.92 218.404 180.408 220.346 180.408 220.346C180.408 220.346 183.072 221.437 183.072 222.403C183.072 223.369 181.982 222.886 183.072 224.948C184.163 227.009 182.709 225.311 184.163 227.005C185.081 228.094 185.892 229.27 186.583 230.516L190.352 235.274C190.406 236.126 190.655 236.954 191.079 237.694C191.806 239.029 193.062 238.918 192.243 239.921C191.424 240.924 190.334 241.191 190.863 241.509C191.392 241.826 191.544 242.01 191.134 242.374C190.725 242.737 192.147 244.215 192.754 246.055C193.361 247.896 194.208 248.052 195.359 249.143C196.134 249.783 196.755 250.59 197.176 251.504C197.903 252.774 196.997 251.807 199.357 252.654C201.718 253.501 202.689 254.711 203.232 255.074C203.775 255.438 204.898 255.682 208.804 257.679C212.711 259.676 213.802 260.674 215.707 261.314C217.612 261.954 217.888 262.768 219.342 262.405C220.796 262.041 221.523 261.222 222.43 261.678C223.336 262.133 222.793 263.219 224.063 262.492C225.333 261.765 225.517 261.885 225.881 262.736C226.244 263.587 228.605 265.129 228.605 265.129C228.605 265.129 226.787 265.948 229.788 267.761C232.549 269.422 235.181 270.77 236.175 270.522C236.212 270.688 236.488 270.936 237.141 271.318C239.957 272.952 240.776 274.042 241.503 274.861C242.23 275.68 242.773 277.406 242.686 277.949C242.599 278.492 242.865 279.219 243.869 279.674C244.872 280.13 246.229 279.854 247.32 280.595C248.41 281.336 247.048 281.593 249.045 282.504C250.017 282.994 251.059 283.331 252.133 283.503L253.224 283.043L256.132 283.503C256.132 283.503 257.402 284.23 257.512 284.773C257.623 285.316 256.877 285.772 257.972 286.227C258.255 286.366 258.566 286.439 258.881 286.439C259.196 286.439 259.507 286.366 259.79 286.227C259.79 286.227 262.606 285.767 262.059 284.773C261.511 283.779 259.514 283.954 260.968 283.047C262.422 282.141 263.057 281.777 263.692 281.414C264.327 281.05 264.613 280.779 265.689 281.874C266.766 282.969 267.415 281.695 266.78 282.965C266.145 284.235 266.104 284.598 267.033 284.69C267.603 284.752 268.145 284.972 268.598 285.325C268.598 285.325 269.78 285.818 269.78 286.434C269.78 287.051 268.86 286.867 268.961 287.686C269.062 288.505 267.691 288.229 268.326 289.066C268.961 289.904 267.783 290.249 268.234 291.155C268.685 292.062 267.314 292.154 268.326 293.429C269.338 294.703 268.69 295.789 266.872 296.337C265.054 296.884 265.781 295.417 264.783 297.335C263.784 299.254 264.056 299.332 263.209 299.576C262.08 299.994 260.986 300.5 259.937 301.09C258.483 301.817 258.667 300.363 257.94 302.471C257.213 304.578 257.94 304.592 256.486 305.802C255.032 307.013 255.276 308.407 255.276 308.407C255.276 308.407 260.798 307.74 258.607 309.134C256.417 310.528 256.367 310.767 255.824 311.375C255.469 311.774 255.145 312.198 254.853 312.645L253.882 314.403L253.638 316.46C253.638 316.46 254.121 316.036 255.759 317.127C257.397 318.217 257.756 318.277 258 318.641C258.793 320.09 259.793 321.415 260.968 322.575C262.011 323.685 263.133 324.717 264.327 325.663C265.146 326.298 265.961 326.026 265.873 327.117C265.786 328.208 265.694 327.752 267.783 328.387C269.872 329.022 271.234 329.657 272.688 329.657C274.142 329.657 277.502 330.2 278.5 330.2C279.499 330.2 280.134 330.108 279.499 330.835C278.864 331.562 277.681 334.286 276.14 335.832C274.598 337.378 274.142 338.285 271.961 339.012C269.78 339.739 268.51 340.393 267.148 340.83C265.786 341.267 264.884 343.264 264.879 343.282C284.258 339.673 302.554 331.674 318.363 319.9C334.172 308.125 347.075 292.887 356.083 275.354L353.442 275.708L349.627 278.575ZM285.347 141.958C285.808 141.714 286.406 142.262 286.861 142.625C287.115 142.884 287.452 143.044 287.813 143.077C288.174 143.109 288.535 143.013 288.831 142.805C289.751 142.262 290.312 142.593 291.224 142.984C292.135 143.375 291.104 143.803 289.921 144.254C288.739 144.705 289.71 144.677 288.651 144.677C287.593 144.677 288.32 145.253 287.984 145.708C287.648 146.164 286.801 144.788 285.564 143.771C284.326 142.754 284.376 142.478 285.347 141.958ZM239.792 162.486C243.335 161.303 242.516 160.443 244.605 162.053C246.694 163.664 247.693 162.679 247.964 164.308C248.236 165.937 250.596 167.322 250.596 167.322L253.868 167.939L258.773 168.965C258.773 168.965 260.259 169.48 260.591 170.626C260.922 171.772 261.971 172.246 259.956 172.227C258.443 172.144 256.947 171.864 255.506 171.394C255.506 171.394 255 171.854 255.069 173.847C255.138 175.839 256.049 175.481 254.687 176.663C253.325 177.846 250.145 178.844 252.598 178.752C255.05 178.66 256.956 177.372 258.046 178.117C259.137 178.863 259.855 177.197 260.95 177.119C262.045 177.04 260.77 176.29 262.132 175.278C263.494 174.266 263.632 173.557 265.653 173.741C267.673 173.925 267.309 173.281 269.219 173.281C271.128 173.281 272.67 174.905 270.139 175.273C267.608 175.642 267.231 175.186 265.234 176.005C263.237 176.824 263.237 175.545 262.781 177.386C262.326 179.226 264.051 178.932 261.599 179.838C259.146 180.745 260.508 180.068 257.692 180.496C254.876 180.924 255.511 181.108 253.242 180.929C250.973 180.749 249.064 180.749 250.154 179.019C251.245 177.289 254.061 177.929 253.426 175.932C252.791 173.934 251.88 174.206 250.61 174.661C249.34 175.117 251.199 172.968 251.222 172.227C251.245 171.486 250.518 170.543 249.156 170.285C247.794 170.028 247.775 168.767 246.611 170.626C245.447 172.485 245.429 171.155 244.978 172.227C244.527 173.299 244.251 172.108 244.251 175.292C244.251 178.476 244.886 180.432 242.161 180.998C239.437 181.564 239.166 177.1 240.344 175.292C241.522 173.483 242.612 172.154 241.163 172.227C239.713 172.301 241.255 169.637 242.888 169.333C244.522 169.029 245.249 169.172 246.611 168.965C247.973 168.758 249.064 168.937 249.243 168.578C249.423 168.219 247.789 166.31 246.156 166.627C244.522 166.945 245.792 167.087 243.703 167.327C241.614 167.566 239.617 167.216 240.16 166.627C240.703 166.038 241.195 166.038 239.7 165.49C238.204 164.943 239.81 162.486 239.81 162.486H239.792ZM227.045 148.52C228.076 148.363 227.165 147.71 227.349 146.679C227.533 145.648 228.499 146.136 230.621 146.196C230.621 146.196 230.984 146.923 230.013 147.167C229.042 147.411 229.53 147.59 229.286 148.198C229.042 148.805 229.042 148.805 228.982 150.075C228.923 151.345 228.863 151.589 229.65 152.62C230.437 153.651 230.073 153.651 230.377 155.684C230.68 157.718 229.456 156.738 228.196 157.042C226.935 157.346 228.196 157.042 228.127 156.011C228.058 154.98 228.495 154.318 227.772 152.896C227.05 151.474 226.622 152.381 226.502 151.35C226.383 150.319 226.866 150.319 225.991 149.472C225.117 148.626 226.033 148.681 227.064 148.524L227.045 148.52ZM223.824 148.557C223.824 148.557 224.855 150.071 224.128 150.692C223.401 151.313 223.585 151.948 224.551 152.431C225.517 152.914 225.701 152.735 225.338 153.641C224.974 154.548 225.642 154.852 225.945 156.425C226.249 157.999 224.565 157.093 224.565 155.675C224.565 154.258 224.022 154.612 223.111 153.885C222.2 153.158 222.264 152.795 222.462 152.068C222.66 151.341 222.807 150.977 221.597 149.767C220.387 148.557 221.431 148.437 223.852 148.561L223.824 148.557ZM219.614 138.231C219.752 136.551 219.379 136.882 221.072 137.14C221.666 137.232 222.204 137.683 221.657 139.367C221.109 141.051 220.838 140.002 219.356 140.867C217.874 141.732 219.508 139.91 219.646 138.235L219.614 138.231ZM187.959 179.107C187.186 180.878 187.094 179.926 185.323 180.059C183.551 180.193 185.323 179.139 185.323 176.746C185.323 174.353 185.097 175.131 187.591 175.02C188.672 174.979 188.76 177.34 187.991 179.111L187.959 179.107ZM200.296 118.283C200.296 118.283 201.023 118.057 202.887 117.648C204.75 117.238 203.204 117.376 202.1 116.875C200.996 116.373 201.253 116.737 198.879 116.414C196.504 116.092 200.604 116.005 202.965 115.913C205.326 115.821 203.609 115.816 206.007 116.184C206.927 116.332 205.915 117.137 207.231 117.592C208.547 118.048 207.231 117.91 207.231 118.637C207.231 119.364 206.729 119.502 205.597 118.775C204.465 118.048 204.677 118.775 204.327 119.093C203.977 119.41 202.486 120.547 202.486 120.547C201.472 120.205 200.49 119.771 199.555 119.249C198.391 118.527 200.296 118.283 200.296 118.283ZM212.72 125.549C212.039 125.595 211.676 126.092 210.811 127.003C209.946 127.914 209.43 127.923 208.45 127.923C207.47 127.923 207.268 128.103 204.953 128.742C202.638 129.382 203.365 129.014 202.137 128.199C200.908 127.385 200.683 127.334 200.549 126.929C200.416 126.524 202.39 127.021 203.048 126.612C203.587 126.202 204.075 125.729 204.502 125.204C204.502 125.204 204.042 123.823 205.321 123.478C205.896 123.312 205.731 124.067 206.14 125.024C206.55 125.981 206.959 126.432 208.441 126.276C209.923 126.119 210.167 125.355 212.256 125.116C214.345 124.877 213.424 125.516 212.743 125.562L212.72 125.549ZM236.649 270.186C237.371 269.583 238.333 268.921 238.416 269.657C238.494 270.103 237.357 270.08 236.681 270.2L236.649 270.186Z" fill="#FD3E72"/>
<path d="M306.896 150.035C306.201 150.32 305.975 150.762 305.902 151.535C305.835 152.032 305.711 152.52 305.534 152.989L305.17 154.079C305.294 154.247 305.379 154.44 305.418 154.645C305.458 154.85 305.45 155.061 305.395 155.262C305.252 155.686 305.176 156.13 305.17 156.578C305.17 156.578 304.48 156.693 304.346 157.038C304.213 157.383 302.966 156.504 304.015 157.687C305.064 158.87 304.894 158.497 304.668 159.067C304.443 159.638 304.848 160.384 305.534 160.158C306.219 159.933 304.986 159.426 307.508 159.698C310.029 159.969 310.347 158.589 310.577 159.178C310.807 159.767 310.904 159.813 311.24 159.357C311.575 158.902 313.025 158.221 312.325 159.132C311.626 160.043 310.315 160.973 311.24 161.157C312.164 161.341 313.619 160.807 313.347 159.698C313.076 158.589 313.347 157.397 313.757 158.589C314.166 159.781 313.711 160.77 314.677 160.678C315.643 160.586 315.777 160.913 316.31 161.198C316.844 161.483 317.857 161.539 317.176 160.222C316.495 158.906 316.95 157.227 316.223 157.954C315.496 158.681 314.677 158.906 314.313 157.774C313.95 156.642 314.042 156.592 313.315 155.957C312.588 155.322 313.812 154.185 312.335 154.139C310.858 154.093 310.724 155.322 309.818 154.774C308.911 154.227 308.897 153.187 308.253 153.955C307.609 154.724 307.093 155.589 306.776 154.908C306.458 154.227 305.823 154.424 306.274 153.486C306.725 152.547 307.664 149.726 306.896 150.035Z" fill="#FD3E72"/>
<path d="M269.893 225.706C269.492 226.014 269.506 226.962 269.893 227.524C270.279 228.085 270.652 227.906 270.864 228.37C271.108 228.913 270.629 229.291 270.864 229.944C270.993 230.312 271.324 230.74 271.651 230.731C272.157 230.731 272.483 229.7 272.621 229.277C272.892 228.668 272.955 227.988 272.801 227.34C272.359 226.024 270.5 225.241 269.893 225.706Z" fill="#FD3E72"/>
<path d="M266.432 227.584C266.562 227.522 266.704 227.487 266.849 227.481C266.993 227.475 267.138 227.498 267.273 227.548C267.409 227.599 267.533 227.676 267.638 227.776C267.743 227.875 267.828 227.995 267.886 228.127C267.984 228.37 267.989 228.641 267.899 228.887C267.81 229.133 267.633 229.338 267.402 229.462C267.215 229.552 267.005 229.583 266.799 229.551C266.594 229.519 266.403 229.425 266.252 229.282C266.141 229.164 266.057 229.023 266.005 228.87C265.954 228.716 265.936 228.553 265.953 228.392C265.97 228.231 266.022 228.075 266.104 227.936C266.187 227.797 266.298 227.677 266.432 227.584Z" fill="#FD3E72"/>
<path d="M269.209 231.883C269.48 231.883 269.669 232.256 269.936 232.854C270.364 233.747 270.663 234.368 270.359 234.911C270.196 235.198 269.935 235.417 269.625 235.529C269.314 235.64 268.974 235.637 268.666 235.519C268.035 235.197 268.054 234.267 268.058 233.945C268.077 232.933 268.702 231.842 269.209 231.883Z" fill="#FD3E72"/>
<path d="M273.403 230.858C272.81 230.899 272.202 231.433 272.253 231.829C272.303 232.225 273.15 232.238 273.463 232.979C273.619 233.343 273.491 233.527 273.707 233.766C273.852 233.919 274.043 234.02 274.252 234.052C274.46 234.085 274.673 234.047 274.857 233.946C275.262 233.669 275.189 233.025 275.161 232.795C275.037 231.907 274.314 230.793 273.403 230.858Z" fill="#FD3E72"/>
<path d="M274.487 236.085C274.322 236.207 274.202 236.38 274.147 236.578C274.092 236.776 274.105 236.986 274.183 237.175C274.33 237.594 274.799 237.972 275.214 237.843C275.42 237.729 275.576 237.543 275.654 237.321C275.732 237.099 275.725 236.856 275.636 236.639C275.546 236.421 275.379 236.245 275.167 236.143C274.955 236.04 274.713 236.02 274.487 236.085Z" fill="#FD3E72"/>
<path d="M277.577 236.426C277.145 236.61 277.117 237.47 277.154 237.806C277.165 238.093 277.241 238.373 277.378 238.625C277.514 238.877 277.707 239.095 277.941 239.26C278.033 239.316 278.645 239.665 279.091 239.38C279.538 239.095 279.469 238.262 279.455 238.17C279.312 237.121 278.139 236.186 277.577 236.426Z" fill="#FD3E72"/>
<path d="M282.889 242.781C282.135 242.919 281.366 243.637 281.509 244.295C281.61 244.801 282.194 245.04 282.296 245.082C282.619 245.214 282.976 245.238 283.314 245.151C283.653 245.064 283.954 244.87 284.173 244.599C284.323 244.414 284.419 244.192 284.451 243.957C284.483 243.721 284.449 243.482 284.353 243.264C284.035 242.73 283.299 242.707 282.889 242.781Z" fill="#FD3E72"/>
<path d="M245.842 245.329C245.64 244.46 248.815 242.789 251.534 241.938C254.124 241.166 256.834 240.879 259.527 241.091C261.613 241.221 263.682 241.548 265.707 242.067C268.629 242.739 270.088 243.074 271.28 243.64C271.732 243.887 272.224 244.051 272.734 244.124C273.815 244.257 274.243 243.82 274.915 244.124C275.49 244.381 275.32 244.768 276.006 245.334C276.713 245.846 277.554 246.14 278.426 246.181C279.664 246.332 280.129 246.042 280.483 246.424C280.65 246.675 280.74 246.97 280.74 247.271C280.74 247.573 280.65 247.867 280.483 248.118C279.926 249.011 278.569 249.038 277.335 249.089C271.855 249.383 269.577 250.713 268.859 249.572C268.33 248.73 269.209 247.432 268.615 247.027C268.1 246.678 267.336 247.602 266.434 247.271C265.652 246.981 265.813 246.135 264.98 245.578C264.52 245.256 264.179 245.361 261.952 245.458C259.454 245.569 258.897 245.458 258.317 245.214C257.737 244.97 257.857 244.841 256.983 244.368C256.108 243.894 254.512 243.236 254.199 243.64C253.978 243.926 254.525 244.524 254.318 244.731C254.111 244.938 253.131 243.944 251.898 244.004C251.346 244.032 251.355 244.252 249.717 245.095C248.078 245.937 247.494 246.015 247.052 245.941C246.933 245.918 245.948 245.78 245.842 245.329Z" fill="#FD3E72"/>
<path d="M282.515 247.59C283.039 246.84 284.392 247.65 286.872 247.41C288.635 247.24 288.759 246.757 290.959 246.591C291.839 246.472 292.735 246.533 293.591 246.771C294.599 247.107 294.585 247.466 295.864 248.041C297.323 248.699 298.165 248.598 298.317 249.131C298.441 249.545 298.082 250.093 297.682 250.401C296.499 251.322 295.188 249.941 292.96 250.673C292.321 250.875 292.224 251.055 291.327 251.308C290.227 251.621 289.794 251.52 289.417 251.943C289.109 252.288 289.27 252.495 288.874 253.323C288.575 253.935 288.414 254.244 288.147 254.414C287.291 254.948 286.343 253.599 284.332 253.595C283.348 253.595 283.141 253.912 282.423 253.687C281.337 253.342 280.582 252.21 280.789 251.869C280.996 251.529 282.344 252.421 283.513 251.869C284.434 251.409 285.124 250.369 284.894 249.872C284.604 249.292 283.228 249.872 282.625 249.053C282.466 248.846 282.371 248.598 282.352 248.338C282.332 248.078 282.389 247.818 282.515 247.59Z" fill="#FD3E72"/>
<path d="M270.893 98.5395C269.398 98.7926 268.427 98.5763 266.351 98.9997C265.655 99.0796 265.01 99.4061 264.534 99.92C264.212 100.316 264.299 100.523 263.991 100.84C263.255 101.558 262.15 101.038 261.902 101.475C261.653 101.912 262.771 103.017 263.448 103.656C264.249 104.416 264.644 104.793 265.081 104.927C266.411 105.341 267.111 104.222 268.896 104.384C269.564 104.487 270.209 104.702 270.806 105.019C272.113 105.626 273.359 106.356 274.528 107.2C278.173 109.606 278.564 109.892 279.342 109.832C279.953 109.734 280.579 109.796 281.159 110.011C281.274 110.057 282.273 110.471 282.25 111.01C282.227 111.548 281.008 111.7 280.98 112.28C280.98 112.74 281.693 113.127 282.163 113.37C282.632 113.614 283.179 113.904 283.709 113.734C284.238 113.564 284.353 112.979 284.707 113.007C284.951 113.007 285.089 113.306 285.628 114.387L286.263 115.657C286.557 116.351 286.956 116.995 287.445 117.567C288.034 118.147 288.306 118.027 289.079 118.658C289.528 119.068 289.925 119.531 290.261 120.038C291.642 121.745 293.69 122.555 293.805 122.399C293.92 122.242 293.009 121.575 293.078 121.478C293.147 121.382 294.499 122.344 296.529 123.752C299.423 125.763 299.952 126.052 300.799 126.296C302.074 126.651 302.12 126.296 303.431 126.756C304.563 127.134 305.295 127.635 306.703 127.847C307.124 127.91 307.552 127.91 307.973 127.847C308.479 127.773 309.119 127.677 309.353 127.304C309.652 126.789 309.05 125.924 308.534 125.215C307.122 123.25 306.169 123.227 305.263 121.58C304.743 120.659 304.959 120.471 304.443 119.854C303.523 118.764 302.433 118.773 302.262 117.944C302.189 117.586 302.364 117.25 302.722 116.564C303.459 115.183 304.103 115.11 304.103 114.567C304.103 113.867 302.856 113.186 300.38 111.843C299.428 111.327 299.106 111.198 298.834 110.752C298.3 109.873 298.862 109.234 298.471 107.936C298.231 107.144 297.578 105.902 296.745 105.847C296.52 105.847 296.372 105.911 294.472 107.117C293.846 107.513 293.607 107.669 293.381 107.577C292.995 107.407 292.861 106.569 293.11 105.943C293.413 105.175 294.159 105.065 294.108 104.761C294.058 104.457 292.962 104.37 290.837 103.942C289.3 103.633 288.821 103.44 288.655 103.021C288.448 102.52 288.927 102.184 288.747 101.567C288.586 101.024 288.071 100.771 287.114 100.297C286.042 99.7681 285.232 99.377 284.298 99.5703C283.584 99.7267 283.529 100.072 283.028 100.03C282.305 99.9614 282.107 99.2159 281.21 98.4843C280.591 98.009 279.879 97.6688 279.121 97.4857C277.553 97.0263 275.892 96.9946 274.308 97.3937C272.274 97.7802 272.642 98.2404 270.893 98.5395Z" fill="#FD3E72"/>
<g style="mix-blend-mode:multiply" opacity="0.31">
<path d="M324.165 117.643C343.694 140.836 354.384 170.193 354.342 200.513C354.342 271.727 296.611 329.454 225.401 329.454C195.08 329.495 165.723 318.803 142.531 299.272C154.618 313.727 169.732 325.35 186.805 333.319C203.879 341.289 222.494 345.411 241.336 345.394C312.55 345.394 370.277 287.663 370.277 216.448C370.296 197.607 366.175 178.992 358.207 161.919C350.239 144.845 338.617 129.731 324.165 117.643Z" fill="#E5DCBA"/>
</g>
<g style="mix-blend-mode:overlay" opacity="0.21">
<path d="M122.863 227.538C122.863 156.324 180.594 98.5972 251.804 98.5972C283.358 98.5519 313.825 110.123 337.394 131.103C325.31 117.454 310.463 106.53 293.838 99.0545C277.212 91.579 259.187 87.723 240.958 87.742C169.744 87.742 112.017 145.474 112.017 216.683C111.998 234.912 115.854 252.937 123.329 269.563C130.805 286.189 141.729 301.035 155.377 313.119C134.396 289.554 122.822 259.091 122.863 227.538Z" fill="white"/>
</g>
<path d="M283.393 104.183C283.393 104.183 282.997 103.262 282.215 101.688" stroke="white" stroke-width="2" stroke-miterlimit="10"/>
</g>
</g>
<mask id="mask1" mask-type="alpha" maskUnits="userSpaceOnUse" x="8" y="0" width="468" height="468">
<circle r="234" transform="matrix(-1 0 0 1 242 234)" fill="#FFEBF2"/>
</mask>
<g mask="url(#mask1)">
<g filter="url(#filter2_d)">
<path d="M259.999 144.813C260.026 140.551 259.073 136.341 257.212 132.512C255.352 128.683 252.636 125.338 249.276 122.738C245.916 120.138 242.003 118.355 237.844 117.527C233.685 116.699 229.391 116.849 225.299 117.964C221.206 119.08 217.426 121.132 214.254 123.96C211.081 126.787 208.602 130.313 207.011 134.263C205.419 138.213 204.758 142.479 205.079 146.728C205.4 150.977 206.694 155.094 208.861 158.757L208.941 158.861C209.995 160.634 211.313 161.912 212.642 163.789L228.592 185.012C229.053 185.629 229.651 186.13 230.338 186.475C231.025 186.82 231.783 187 232.551 187C233.319 187 234.077 186.82 234.764 186.475C235.451 186.13 236.049 185.629 236.51 185.012L252.185 164.135C253.612 162.442 254.943 160.669 256.172 158.826L256.23 158.757C258.703 154.531 260.005 149.716 259.999 144.813ZM232.499 156.823C230.109 156.823 227.771 156.11 225.783 154.775C223.795 153.44 222.246 151.543 221.331 149.323C220.416 147.103 220.177 144.661 220.643 142.304C221.11 139.948 222.261 137.783 223.952 136.084C225.642 134.385 227.796 133.228 230.141 132.759C232.486 132.291 234.917 132.531 237.126 133.451C239.334 134.37 241.222 135.927 242.551 137.925C243.879 139.923 244.588 142.272 244.588 144.674C244.591 147.891 243.323 150.978 241.063 153.256C238.803 155.534 235.735 156.817 232.534 156.823H232.499Z" fill="#5B5863"/>
</g>
<circle cx="232.5" cy="144.5" r="17.5" fill="white"/>
<path d="M232.5 159C240.508 159 247 152.508 247 144.5C247 136.492 240.508 130 232.5 130C224.492 130 218 136.492 218 144.5C218 152.508 224.492 159 232.5 159Z" fill="#6DA544"/>
<path d="M232.5 135.674L244.478 144.5L232.5 153.326L220.522 144.5L232.5 135.674Z" fill="#FFDA44"/>
<path d="M232.5 149.543C235.285 149.543 237.543 147.285 237.543 144.5C237.543 141.715 235.285 139.457 232.5 139.457C229.715 139.457 227.457 141.715 227.457 144.5C227.457 147.285 229.715 149.543 232.5 149.543Z" fill="#F0F0F0"/>
<path d="M229.978 144.185C229.101 144.185 228.255 144.318 227.458 144.566C227.493 147.321 229.737 149.544 232.5 149.544C234.209 149.544 235.718 148.693 236.63 147.393C235.069 145.439 232.668 144.185 229.978 144.185Z" fill="#0052B4"/>
<path d="M237.45 145.466C237.511 145.153 237.543 144.831 237.543 144.5C237.543 141.715 235.285 139.457 232.5 139.457C230.422 139.457 228.637 140.714 227.865 142.509C228.548 142.368 229.255 142.294 229.978 142.294C232.908 142.293 235.558 143.511 237.45 145.466Z" fill="#0052B4"/>
<g filter="url(#filter3_d)">
<path d="M286.494 330.192L372.977 332.964C372.977 332.964 392.227 461.512 391.703 470.434L403.601 563.684L369.098 564.873C369.098 564.873 363.661 534.643 359.877 513.942C357.355 500.177 352.739 479.976 351.549 468.483C350.359 456.991 332.977 377.78 332.977 377.78C332.977 377.78 331.478 469.828 331.442 473.658C331.407 477.489 335.44 564.742 335.44 564.742H301.139C299.367 548.991 295.191 485.972 294.251 473.242C292.609 450.245 284.566 384.097 283.817 367.501C283.067 350.904 286.494 330.192 286.494 330.192Z" fill="#263238"/>
<path d="M359.854 343.957C360.193 342.653 360.333 341.305 360.27 339.959C360.405 338.618 360.349 337.264 360.103 335.938C359.764 337.242 359.62 338.589 359.675 339.935C359.54 341.277 359.6 342.632 359.854 343.957Z" fill="#455A64"/>
<path d="M356.701 343.029C356.882 340.749 356.668 338.455 356.07 336.247C355.875 338.527 356.088 340.824 356.701 343.029Z" fill="#455A64"/>
<path d="M303.912 343.029C304.324 341.099 304.324 339.105 303.912 337.175C303.515 339.106 303.515 341.098 303.912 343.029Z" fill="#455A64"/>
<path d="M300.521 344.575C300.948 343.37 301.062 342.077 300.854 340.816C300.847 339.543 300.524 338.292 299.914 337.175C299.948 338.411 300.063 339.643 300.259 340.863C300.27 342.105 300.357 343.345 300.521 344.575Z" fill="#455A64"/>
<path d="M328.075 375.757C328.064 375.252 327.996 374.749 327.873 374.258C327.695 373.176 327.457 371.82 327.183 370.19C326.612 366.751 325.993 361.993 325.517 356.71C325.041 351.428 324.982 346.61 324.994 343.124C324.994 341.47 324.994 340.09 324.994 338.996C325.04 338.493 325.04 337.987 324.994 337.485C324.875 337.98 324.811 338.486 324.804 338.996C324.72 339.959 324.637 341.375 324.577 343.112C324.45 347.664 324.569 352.219 324.934 356.758C325.297 361.29 325.913 365.798 326.778 370.261C327.112 371.974 327.421 373.354 327.659 374.306C327.75 374.802 327.89 375.288 328.075 375.757Z" fill="#455A64"/>
<path d="M331.038 338.448C331.7 338.581 332.303 338.918 332.763 339.412C332.991 339.676 333.16 339.985 333.259 340.32C333.357 340.654 333.383 341.006 333.334 341.351C333.232 341.754 333.012 342.117 332.703 342.395C332.394 342.672 332.009 342.852 331.597 342.91C331.194 343.008 330.77 342.983 330.381 342.836C329.993 342.69 329.658 342.429 329.42 342.089C329.244 341.79 329.136 341.456 329.103 341.11C329.071 340.765 329.114 340.417 329.229 340.09C329.634 338.9 330.55 338.651 330.479 338.555C330.407 338.46 330.253 338.555 329.908 338.71C329.424 338.971 329.046 339.391 328.837 339.9C328.667 340.289 328.589 340.713 328.607 341.137C328.626 341.562 328.741 341.977 328.944 342.35C329.251 342.78 329.674 343.112 330.164 343.309C330.654 343.505 331.189 343.557 331.708 343.458C332.226 343.359 332.705 343.114 333.088 342.751C333.471 342.388 333.743 341.923 333.87 341.411C333.924 340.989 333.88 340.56 333.742 340.158C333.603 339.755 333.374 339.39 333.072 339.091C332.687 338.684 332.176 338.42 331.621 338.341C331.24 338.341 331.026 338.424 331.038 338.448Z" fill="#455A64"/>
<path d="M281.925 335.938C282.222 334.831 289.063 277.773 289.063 277.773L285.494 203.714L316.309 192.899L321.187 189.176L352.12 189.533L355.63 194.767L384.957 208.116L376.784 268.791L374.488 319.568L372.322 338.365L285.387 343.552L281.925 335.938Z" fill="#FD3E72"/>
<g opacity="0.3">
<path opacity="0.3" d="M286.648 297.879L319.212 301.782C319.533 304.161 317.701 306.481 315.452 307.421C313.156 308.207 310.691 308.364 308.314 307.873C305.935 307.383 303.508 307.164 301.08 307.218C298.7 307.433 296.321 308.408 293.858 308.242C292.648 308.167 291.471 307.818 290.416 307.221C289.361 306.625 288.455 305.796 287.767 304.797C287.08 303.799 286.628 302.658 286.446 301.459C286.265 300.261 286.358 299.036 286.72 297.879H286.648Z" fill="black"/>
</g>
<path d="M285.542 203.714C285.542 203.714 278.32 204.713 274.108 217.36C269.897 230.007 259.998 275.917 259.367 279.034C258.737 282.151 261.473 292.276 272.455 296.797C283.019 301.127 291.36 299.759 291.36 299.759V276.548L286.732 271.492L288.54 263.295L285.542 203.714Z" fill="#FD3E72"/>
<path d="M265.947 272.729C266.322 272.605 266.688 272.454 267.041 272.277C267.743 271.955 268.766 271.515 270.051 271.087C271.55 270.521 273.094 270.083 274.667 269.778C275.589 269.589 276.524 269.47 277.463 269.421C278.47 269.345 279.483 269.405 280.473 269.6C283.982 270.279 287.155 272.134 289.468 274.858C290.132 275.707 290.658 276.654 291.027 277.666C291.12 278.05 291.239 278.428 291.383 278.796C291.399 278.698 291.399 278.597 291.383 278.499C291.383 278.297 291.288 277.999 291.193 277.618C290.857 276.575 290.351 275.594 289.694 274.716C287.384 271.889 284.154 269.965 280.569 269.279C279.554 269.079 278.518 269.018 277.487 269.1C276.531 269.155 275.581 269.283 274.644 269.481C273.058 269.802 271.504 270.268 270.004 270.873C268.719 271.373 267.719 271.86 267.029 272.205L266.244 272.61L265.947 272.729Z" fill="#D8305D"/>
<path d="M272.478 268.398C272.478 268.458 273.347 268.065 274.798 267.768C276.692 267.368 278.653 267.404 280.53 267.874C282.408 268.344 284.155 269.235 285.637 270.48C286.827 271.432 287.35 272.17 287.386 272.134C287.422 272.098 287.279 271.92 287.017 271.599C286.662 271.13 286.263 270.696 285.827 270.302C284.351 268.978 282.573 268.034 280.649 267.553C278.725 267.072 276.712 267.068 274.786 267.542C274.203 267.676 273.634 267.863 273.085 268.101C272.87 268.171 272.665 268.271 272.478 268.398Z" fill="#D8305D"/>
<path d="M287.909 222.642C287.814 222.642 287.909 233.956 288.052 247.912C288.195 261.867 288.433 273.169 288.528 273.169C288.623 273.169 288.528 261.855 288.385 247.9C288.242 233.944 288.004 222.642 287.909 222.642Z" fill="#D8305D"/>
<path d="M366.909 126.978C368.43 126.605 370.027 126.683 371.505 127.2C372.984 127.717 374.28 128.653 375.237 129.893C376.146 131.162 376.644 132.679 376.665 134.24C376.686 135.801 376.23 137.331 375.356 138.625C374.554 139.651 373.533 140.487 372.369 141.071C371.204 141.655 369.925 141.974 368.622 142.004C366.01 142.04 363.437 141.37 361.174 140.065L360.794 133.367C361.142 131.849 361.895 130.455 362.971 129.33C364.048 128.206 365.408 127.393 366.909 126.978Z" fill="#44414B"/>
<path d="M348.813 152.057C345.525 157.425 343.636 163.532 343.316 169.819C343.185 176.089 345.41 182.561 350.086 186.737C350.922 187.617 352.062 188.145 353.274 188.212C354.464 188.212 355.654 186.891 355.154 185.833C356.064 187.73 357.351 189.423 358.937 190.806C359.418 191.322 360.077 191.637 360.782 191.686C361.277 191.613 361.73 191.365 362.059 190.988C362.388 190.611 362.572 190.128 362.578 189.628C362.565 188.625 362.307 187.641 361.829 186.761C363.018 186.761 364.03 187.7 365.077 188.343C366.124 188.985 367.682 189.271 368.396 188.272C369.11 187.272 368.527 186.166 368.003 185.202C365.624 180.824 363.244 176.208 363.137 171.223C363.066 167.654 364.184 164.085 363.696 160.599C363.364 158.46 362.464 156.45 361.092 154.776C359.719 153.102 357.924 151.827 355.892 151.081C353.512 150.26 350.621 150.32 348.896 152.116" fill="#44414B"/>
<path d="M320.532 177.909C318.367 174.483 313.87 173.079 312.204 169.379C309.289 162.859 310.134 157.077 310.872 149.975C311.383 145.109 311.395 138.149 314.655 134.509C316.951 131.939 318.569 130.392 320.604 127.656C322.9 124.646 325.363 121.053 323.531 117.722" fill="#263238"/>
<path d="M321.496 178.064C320.848 177.295 320.044 176.671 319.138 176.235C318.231 175.798 317.243 175.558 316.237 175.53C315.218 175.512 314.208 175.715 313.275 176.125L323.638 116.96C320.973 116.401 314.369 119.59 312.43 121.517C310.596 123.552 309.108 125.876 308.028 128.394C303.055 138.435 305.137 151.153 309.218 160.884C305.518 168.606 304.887 176.041 309.313 181.109L309.384 181.193L310.015 181.93C310.713 182.735 311.211 183.693 311.469 184.727C311.728 185.76 311.739 186.84 311.502 187.879V187.962C311.319 188.564 311.222 189.189 311.217 189.818C311.216 190.133 311.3 190.442 311.459 190.714C311.618 190.986 311.846 191.21 312.121 191.365C313.049 191.793 314.096 191.008 314.584 190.116C314.942 189.162 315.422 188.258 316.011 187.427C316.509 188.567 316.942 189.735 317.308 190.925C317.855 192.043 319.247 192.983 320.306 192.34C320.725 192.037 321.054 191.626 321.258 191.151C322.36 189.12 323.071 186.9 323.352 184.607C323.614 182.267 322.947 179.918 321.496 178.064Z" fill="#44414B"/>
<path d="M356.213 145.133L352.215 189.533C351.264 198.313 331.823 203.714 331.823 203.714L326.481 210.174L324.209 203.036C322.805 200.787 319.914 198.11 320.413 193.518C320.842 189.628 321.08 185.012 321.091 184.607C321.091 184.607 308.337 180.788 308.789 167.678C309.004 161.337 309.908 150.736 311.407 138.982C312.192 132.893 315.239 127.322 319.943 123.377C324.647 119.431 330.663 117.4 336.796 117.686H338.057C351.656 119.233 358.021 131.582 356.213 145.133Z" fill="#FFD6BE"/>
<path d="M321.032 184.714C327.076 185.118 333.104 183.71 338.343 180.669C338.343 180.669 333.869 189.901 320.842 188.117L321.032 184.714Z" fill="#FFB294"/>
<path d="M373.774 164.822C375.415 164.216 375.082 159.112 373.381 157.22C368.955 152.295 362.673 136.995 362.673 136.995C360.163 130.571 361.412 125.265 354.845 118.578C350.086 113.701 343.744 109.941 336.998 110.001C330.253 110.06 323.293 114.391 321.294 121.017L322.543 119.387C322.127 121.767 324.542 123.742 326.862 124.146C329.182 124.551 331.561 123.825 333.917 123.92C338.509 124.099 342.638 127.263 344.994 131.273C347.188 135.426 348.363 140.043 348.42 144.74C348.67 149.416 348.42 154.115 348.753 158.779C349.134 163.787 351.811 165.691 355.297 169.224C358.639 172.618 361.64 176.332 364.256 180.312C364.838 181.087 365.587 181.719 366.449 182.162C367.31 182.605 368.261 182.847 369.229 182.87C370.728 182.644 371.299 180.491 371.608 178.968C371.918 177.445 370.978 175.565 371.073 173.257C371.792 172.937 372.421 172.444 372.903 171.821C373.385 171.198 373.704 170.465 373.833 169.688C374.107 168.023 372.275 165.358 373.774 164.822Z" fill="#44414B"/>
<path d="M353.334 157.601C353.56 157.506 362.459 155.352 361.757 164.299C361.055 173.246 352.239 170.688 352.239 170.426C352.239 170.164 353.334 157.601 353.334 157.601Z" fill="#FFD6BE"/>
<path d="M355.214 167.261C355.214 167.261 355.368 167.38 355.618 167.523C355.986 167.711 356.41 167.753 356.808 167.642C357.783 167.368 358.688 165.929 358.866 164.323C358.947 163.555 358.858 162.779 358.604 162.05C358.541 161.765 358.41 161.498 358.221 161.275C358.033 161.051 357.793 160.876 357.522 160.766C357.346 160.705 357.155 160.707 356.982 160.773C356.808 160.838 356.662 160.961 356.57 161.122C356.439 161.36 356.475 161.539 356.427 161.551C356.38 161.563 356.249 161.396 356.344 161.027C356.415 160.809 356.558 160.62 356.748 160.492C357.011 160.328 357.326 160.272 357.629 160.337C357.989 160.439 358.317 160.631 358.581 160.896C358.846 161.16 359.038 161.488 359.14 161.848C359.457 162.653 359.576 163.522 359.485 164.382C359.283 166.179 358.236 167.797 356.903 168.07C356.657 168.12 356.404 168.113 356.161 168.051C355.918 167.989 355.692 167.874 355.499 167.713C355.214 167.475 355.19 167.273 355.214 167.261Z" fill="#FFB294"/>
<path d="M287.35 274.109L304.661 273.883C305.245 273.875 305.82 274.025 306.327 274.316C306.833 274.607 307.252 275.028 307.54 275.537L319.438 301.187L318.998 302.924H298.855L287.088 276.465L287.35 274.109Z" fill="#263238"/>
<path d="M287.505 277.511L288.135 278.951L291.645 286.089C291.645 286.089 300.735 285.268 302.151 285.078C303.566 284.888 304.352 286.41 304.447 287.315C304.411 288.02 304.144 288.693 303.685 289.23C303.685 289.23 309.301 287.457 311.205 286.125C313.108 284.792 314.06 285.637 314.06 285.637C314.34 285.373 314.674 285.174 315.039 285.054C315.405 284.934 315.792 284.896 316.173 284.943C316.555 284.989 316.922 285.119 317.247 285.324C317.573 285.528 317.85 285.802 318.058 286.125C317.389 288.449 316.463 290.692 315.297 292.811C314.536 294.001 310.348 298.034 310.062 298.51C309.777 298.986 306.493 299.842 302.829 301.877C301.822 302.455 300.658 302.702 299.503 302.583C298.348 302.463 297.259 301.983 296.392 301.21H295.869C295.012 301.115 292.728 298.926 292.157 298.986C291.586 299.045 291.11 298.926 289.968 297.653C287.847 294.737 286.156 291.532 284.947 288.136C284.281 285.875 284.673 285.292 284.864 285.149C283.8 285.653 282.664 285.986 281.497 286.137C279.117 286.518 277.927 284.804 277.689 281.568C277.451 278.332 284.84 278.368 287.505 277.511Z" fill="#FFD6BE"/>
<path d="M288.73 292.299C288.926 292.375 289.129 292.427 289.337 292.454C289.718 292.526 290.301 292.597 291.003 292.656C294.725 292.883 298.435 292.058 301.711 290.277C302.207 290.011 302.688 289.718 303.15 289.397C303.327 289.289 303.49 289.161 303.638 289.016C303.638 289.016 302.876 289.456 301.615 290.099C299.968 290.916 298.225 291.528 296.428 291.919C294.63 292.3 292.792 292.464 290.955 292.407C289.611 292.395 288.742 292.252 288.73 292.299Z" fill="#FFB294"/>
<path d="M288.564 285.816C289.916 286.401 291.436 286.468 292.835 286.006C292.835 285.923 291.871 286.006 290.693 286.006C289.516 286.006 288.588 285.732 288.564 285.816Z" fill="#FFB294"/>
<path d="M284.257 285.506C284.257 285.59 285.577 285.042 287.231 284.59C288.885 284.138 290.265 283.924 290.253 283.841C289.2 283.826 288.151 283.982 287.148 284.305C286.125 284.544 285.148 284.95 284.257 285.506Z" fill="#FFB294"/>
<path d="M285.09 279.391C285.006 279.391 285.34 280.414 285.351 281.675C285.382 282.205 285.326 282.735 285.185 283.246C285.11 283.446 284.983 283.623 284.816 283.757C284.816 283.757 284.899 283.757 285.018 283.757C285.177 283.669 285.302 283.531 285.375 283.365C285.586 282.836 285.676 282.267 285.637 281.699C285.686 280.893 285.495 280.09 285.09 279.391Z" fill="#FFB294"/>
<path d="M293.834 297.82C293.925 297.833 294.017 297.833 294.108 297.82H294.917C295.619 297.82 296.63 297.725 297.879 297.582C299.345 297.423 300.792 297.12 302.198 296.678C303.021 296.401 303.818 296.051 304.578 295.631C305.375 295.202 306.16 294.691 306.957 294.179C310.526 291.871 313.798 289.789 315.88 288.421V288.362C315.828 287.853 315.645 287.366 315.349 286.949C315.053 286.533 314.654 286.199 314.191 285.982C314.06 285.982 313.989 285.899 313.989 285.911C314.225 286.059 314.451 286.222 314.667 286.399C315.251 286.916 315.621 287.633 315.702 288.409V288.314C313.596 289.623 310.348 291.669 306.731 293.989C305.922 294.501 305.149 295 304.352 295.428C303.594 295.849 302.797 296.196 301.972 296.464C300.59 296.92 299.168 297.242 297.725 297.427C296.535 297.594 295.476 297.677 294.774 297.748L293.977 297.832L293.834 297.82Z" fill="#FFB294"/>
<path d="M296.892 300.913C297.18 300.904 297.466 300.872 297.749 300.818C298.296 300.735 299.081 300.604 300.045 300.39C302.558 299.85 305.018 299.09 307.397 298.117C308.714 297.567 309.944 296.83 311.05 295.928C311.945 295.207 312.777 294.411 313.537 293.549C314.191 292.811 314.726 292.181 315.024 291.752C315.215 291.541 315.383 291.31 315.523 291.062C315.309 291.249 315.114 291.456 314.94 291.681C314.572 292.085 314.048 292.692 313.382 293.406C312.609 294.26 311.774 295.055 310.883 295.785C309.795 296.653 308.594 297.369 307.314 297.915C304.952 298.894 302.518 299.689 300.033 300.294C299.081 300.532 298.296 300.699 297.76 300.818C297.469 300.827 297.179 300.859 296.892 300.913Z" fill="#FFB294"/>
<path d="M381.638 222.963C382.347 221.246 382.958 219.491 383.47 217.705C384.074 215.95 384.579 214.163 384.981 212.351C384.266 214.066 383.654 215.822 383.149 217.61C382.543 219.364 382.039 221.151 381.638 222.963Z" fill="#D8305D"/>
<path d="M285.804 207.247C285.811 207.771 285.867 208.293 285.97 208.806C286.113 209.888 286.279 211.185 286.47 212.553C286.66 213.922 286.779 215.218 286.898 216.301C286.923 216.827 287.003 217.35 287.136 217.86C287.189 217.337 287.189 216.811 287.136 216.289C287.136 215.314 286.981 213.981 286.803 212.506C286.624 211.031 286.387 209.722 286.196 208.77C286.129 208.248 285.997 207.737 285.804 207.247Z" fill="#D8305D"/>
<path d="M316.047 294.274C316.44 294.666 316.875 295.013 317.344 295.309C318.2 295.952 319.462 296.832 321.056 297.867C325.216 300.564 329.53 303.015 333.977 305.208C338.422 307.413 342.995 309.352 347.671 311.014C349.467 311.656 350.93 312.132 351.954 312.417C352.472 312.614 353.011 312.75 353.56 312.822C353.067 312.565 352.554 312.35 352.025 312.18L347.825 310.585C344.256 309.217 339.497 307.195 334.262 304.637C329.027 302.079 324.53 299.438 321.306 297.499L317.487 295.119C317.036 294.791 316.554 294.508 316.047 294.274Z" fill="#D8305D"/>
<g opacity="0.3">
<path opacity="0.3" d="M381.781 299.985C384.906 298.185 388.217 296.729 391.656 295.643C395.122 294.567 398.847 294.659 402.256 295.904C402.625 296.059 403.042 296.297 403.065 296.701C403.089 297.106 402.399 297.522 401.876 297.606C395.261 298.653 388.277 299.14 381.65 300.116" fill="black"/>
</g>
<g opacity="0.3">
<path opacity="0.3" d="M379.199 235.8C381.465 247.436 380.728 259.458 377.057 270.73L379.199 235.8Z" fill="black"/>
</g>
<path d="M345.267 357.079C345.267 357.079 352.049 351.571 354.012 349.072C355.975 346.574 357.26 345.123 357.26 345.123C357.26 345.123 365.386 342.743 368.372 339.257C371.359 335.771 376.26 330.87 376.26 330.87L385.838 340.959C385.838 340.959 380.282 349.953 379.83 352.915C379.377 355.878 375.987 364.063 375.987 364.063L357.51 353.01C357.51 353.01 353.584 358.519 351.061 359.125C349.039 359.613 345.386 361.124 345.267 357.079Z" fill="#FFD6BE"/>
<path d="M385.053 208.116C385.053 208.116 391.715 209.805 398.306 234.623C404.255 257.037 412.369 300.294 412.096 304.637C411.822 308.979 386.076 348.037 386.076 348.037L380.52 350.012L368.622 340.066C368.622 340.066 364.72 333.606 365.838 332.024C366.956 330.442 371.906 327.134 371.906 327.134L381.686 300.128L376.26 264.33L385.053 208.116Z" fill="#FD3E72"/>
<path d="M391.715 298.427C391.474 298.392 391.23 298.392 390.989 298.427L388.955 298.688L381.59 299.818H381.448L381.388 299.961L375.784 315.225L371.584 326.944L371.668 326.825C370.859 327.503 370.074 328.086 369.36 328.788C368.698 329.449 368.158 330.223 367.765 331.072C367.13 332.459 366.899 333.997 367.099 335.51C367.259 336.459 367.543 337.383 367.944 338.258C368.045 338.585 368.189 338.897 368.372 339.186C368.316 338.849 368.228 338.519 368.11 338.198C367.79 337.317 367.562 336.403 367.432 335.474C367.296 334.031 367.559 332.578 368.194 331.274C368.577 330.484 369.097 329.767 369.728 329.157C370.383 328.526 371.228 327.967 372.025 327.265H372.084V327.194L376.355 315.487C378.426 309.717 380.329 304.399 381.828 300.175L381.638 300.342L388.967 298.998L390.977 298.593C391.229 298.566 391.476 298.51 391.715 298.427Z" fill="#D8305D"/>
<path d="M379.021 235.015C378.842 235.015 377.724 253.265 376.51 275.786C375.297 298.308 374.464 316.581 374.642 316.593C374.821 316.605 375.951 298.355 377.153 275.822C378.354 253.289 379.199 235.015 379.021 235.015Z" fill="#D8305D"/>
<path d="M359.461 131.511C359.35 131.387 359.226 131.276 359.092 131.178L358.021 130.261C356.738 129.114 355.544 127.869 354.452 126.538C353.024 124.872 351.632 122.647 349.788 120.363C347.804 117.844 345.172 115.911 342.174 114.771C339.451 113.736 336.51 113.41 333.627 113.827C330.744 114.243 328.014 115.387 325.696 117.151C324.885 117.779 324.239 118.596 323.816 119.53C323.518 120.24 323.428 121.02 323.554 121.779C323.636 122.255 323.832 122.704 324.125 123.088C324.225 123.221 324.346 123.337 324.482 123.433C324.063 122.961 323.79 122.379 323.697 121.755C323.601 121.026 323.708 120.285 324.006 119.614C324.443 118.741 325.079 117.983 325.862 117.401C328.162 115.714 330.847 114.629 333.672 114.242C336.498 113.856 339.375 114.181 342.043 115.188C344.983 116.308 347.568 118.198 349.527 120.661C351.359 122.897 352.786 125.11 354.286 126.776C355.395 128.06 356.613 129.246 357.926 130.321C358.402 130.714 358.783 130.999 359.056 131.189C359.181 131.309 359.317 131.416 359.461 131.511Z" fill="#455A64"/>
<path d="M362.542 138.577C361.509 138.904 360.456 139.166 359.39 139.363C356.796 139.77 354.139 139.399 351.756 138.295C349.374 137.192 347.372 135.406 346.005 133.164C345.47 132.217 344.989 131.24 344.565 130.238C344.61 130.534 344.685 130.825 344.791 131.106C345.044 131.87 345.379 132.604 345.791 133.295C347.129 135.635 349.156 137.505 351.597 138.649C354.044 139.77 356.775 140.118 359.425 139.648C360.22 139.51 360.998 139.286 361.745 138.982C362.026 138.88 362.294 138.744 362.542 138.577Z" fill="#455A64"/>
<path d="M376.641 135.686C376.561 135.471 376.453 135.267 376.32 135.08C376.023 134.503 375.642 133.974 375.189 133.509C374.461 132.708 373.568 132.073 372.573 131.646C371.577 131.22 370.502 131.012 369.419 131.037C368.336 131.061 367.271 131.318 366.297 131.79C365.322 132.262 364.459 132.937 363.768 133.771C363.336 134.257 362.983 134.807 362.721 135.401C362.602 135.606 362.525 135.832 362.495 136.067C362.923 135.286 363.438 134.556 364.03 133.89C364.717 133.114 365.558 132.489 366.498 132.053C367.439 131.617 368.459 131.379 369.496 131.356C370.532 131.332 371.562 131.523 372.521 131.916C373.481 132.309 374.349 132.896 375.071 133.64C375.66 134.269 376.186 134.955 376.641 135.686Z" fill="#455A64"/>
<path d="M359.33 185.88C359.49 185.774 359.638 185.65 359.77 185.511C360.191 185.14 360.588 184.742 360.96 184.322C362.323 182.804 363.44 181.082 364.268 179.218C365.515 176.449 366.133 173.438 366.076 170.402C365.93 166.677 364.85 163.048 362.935 159.849C361.045 156.681 358.888 153.68 356.487 150.879C354.333 148.25 352.418 145.882 350.978 143.741C349.822 142.086 348.795 140.344 347.909 138.53C347.659 137.923 347.445 137.423 347.266 137.007C347.194 136.827 347.111 136.652 347.016 136.484C347.056 136.672 347.116 136.855 347.195 137.031C347.361 137.459 347.552 137.971 347.778 138.589C348.621 140.439 349.62 142.214 350.764 143.895C352.192 146.037 354.083 148.44 356.213 151.034C358.591 153.83 360.728 156.823 362.602 159.98C364.493 163.124 365.568 166.69 365.731 170.354C365.804 173.343 365.223 176.311 364.03 179.051C363.234 180.907 362.163 182.631 360.853 184.167C359.913 185.345 359.294 185.844 359.33 185.88Z" fill="#455A64"/>
<path d="M330.288 210.031C330.632 210.156 330.994 210.22 331.359 210.222C332.333 210.291 333.311 210.291 334.286 210.222C337.533 210.017 340.703 209.147 343.599 207.665C346.495 206.183 349.055 204.121 351.121 201.608C351.747 200.861 352.311 200.066 352.81 199.229C353.025 198.939 353.186 198.612 353.286 198.265C353.203 198.206 352.418 199.526 350.788 201.346C346.539 206.15 340.632 209.171 334.25 209.805C331.823 210.031 330.3 209.9 330.288 210.031Z" fill="#D8305D"/>
<path d="M316.559 194.184C316.173 194.963 315.958 195.815 315.928 196.683C315.711 198.776 316.035 200.89 316.868 202.823C317.702 204.756 319.016 206.443 320.687 207.723C321.345 208.279 322.117 208.685 322.948 208.913C322.948 208.818 322.127 208.354 320.961 207.343C319.438 206.036 318.22 204.411 317.391 202.584C316.597 200.734 316.227 198.73 316.309 196.718C316.416 195.16 316.666 194.22 316.559 194.184Z" fill="#D8305D"/>
</g>
</g>
<g filter="url(#filter4_d)">
<path d="M18 186.884C18 182.53 21.5298 179 25.884 179H189.87C194.225 179 197.754 182.53 197.754 186.884V402.116C197.754 406.47 194.225 410 189.87 410H25.884C21.5298 410 18 406.47 18 402.116V186.884Z" fill="white"/>
</g>
<path d="M160.7 263.358C171.585 263.358 180.41 254.534 180.41 243.648C180.41 232.763 171.585 223.939 160.7 223.939C149.814 223.939 140.99 232.763 140.99 243.648C140.99 254.534 149.814 263.358 160.7 263.358Z" fill="#F0F0F0"/>
<path d="M180.41 243.648C180.41 235.834 175.862 229.082 169.269 225.894V261.402C175.862 258.214 180.41 251.462 180.41 243.648Z" fill="#D80027"/>
<path d="M140.99 243.648C140.99 251.462 145.537 258.214 152.13 261.402V225.894C145.537 229.082 140.99 235.834 140.99 243.648Z" fill="#D80027"/>
<path d="M164.127 246.219L167.555 244.505L165.841 243.648V241.934L162.414 243.648L164.127 240.22H162.414L160.7 237.649L158.986 240.22H157.272L158.986 243.648L155.558 241.934V243.648L153.844 244.505L157.272 246.219L156.415 247.933H159.843V250.503H161.557V247.933H164.984L164.127 246.219Z" fill="#D80027"/>
<path d="M160.7 325.642C171.585 325.642 180.41 316.817 180.41 305.932C180.41 295.046 171.585 286.222 160.7 286.222C149.814 286.222 140.99 295.046 140.99 305.932C140.99 316.817 149.814 325.642 160.7 325.642Z" fill="#F0F0F0"/>
<path d="M160.7 286.222C152.885 286.222 146.134 290.769 142.945 297.362H178.454C175.266 290.769 168.514 286.222 160.7 286.222Z" fill="#FF9811"/>
<path d="M160.7 325.641C168.514 325.641 175.266 321.094 178.454 314.501H142.945C146.134 321.094 152.885 325.641 160.7 325.641Z" fill="#6DA544"/>
<path d="M160.7 312.787C164.486 312.787 167.555 309.718 167.555 305.932C167.555 302.145 164.486 299.076 160.7 299.076C156.913 299.076 153.844 302.145 153.844 305.932C153.844 309.718 156.913 312.787 160.7 312.787Z" fill="#0052B4"/>
<path d="M160.7 310.217C163.066 310.217 164.984 308.298 164.984 305.932C164.984 303.566 163.066 301.647 160.7 301.647C158.333 301.647 156.415 303.566 156.415 305.932C156.415 308.298 158.333 310.217 160.7 310.217Z" fill="#F0F0F0"/>
<path d="M160.7 300.644L162.021 303.642L165.279 303.288L163.343 305.932L165.279 308.575L162.021 308.221L160.7 311.219L159.378 308.221L156.121 308.575L158.056 305.932L156.121 303.288L159.378 303.642L160.7 300.644Z" fill="#0052B4"/>
<path d="M160.71 387.42C171.595 387.42 180.42 378.595 180.42 367.71C180.42 356.824 171.595 348 160.71 348C149.824 348 141 356.824 141 367.71C141 378.595 149.824 387.42 160.71 387.42Z" fill="#338AF3"/>
<path d="M155.181 358.001L157.308 364.547H164.191L158.623 368.593L160.75 375.14L155.181 371.094L149.612 375.14L151.739 368.593L146.17 364.547H153.054L155.181 358.001Z" fill="#F0F0F0"/>
<g clip-path="url(#clip0)">
<path d="M105.512 263.358C116.397 263.358 125.222 254.534 125.222 243.648C125.222 232.763 116.397 223.939 105.512 223.939C94.6265 223.939 85.8021 232.763 85.8021 243.648C85.8021 254.534 94.6265 263.358 105.512 263.358Z" fill="#F0F0F0"/>
<path d="M89.8765 231.65C88.3283 233.664 87.1608 235.986 86.4811 238.508H96.7347L89.8765 231.65Z" fill="#0052B4"/>
<path d="M124.543 238.508C123.863 235.986 122.696 233.664 121.148 231.65L114.29 238.508H124.543Z" fill="#0052B4"/>
<path d="M86.4811 248.79C87.1609 251.312 88.3283 253.634 89.8765 255.648L96.7345 248.79H86.4811Z" fill="#0052B4"/>
<path d="M117.512 228.014C115.498 226.466 113.176 225.298 110.654 224.618V234.872L117.512 228.014Z" fill="#0052B4"/>
<path d="M93.5122 259.284C95.5265 260.832 97.8482 261.999 100.37 262.679V252.426L93.5122 259.284Z" fill="#0052B4"/>
<path d="M100.37 224.618C97.8481 225.298 95.5265 226.466 93.5122 228.014L100.37 234.872V224.618Z" fill="#0052B4"/>
<path d="M110.654 262.679C113.176 261.999 115.498 260.832 117.512 259.284L110.654 252.426V262.679Z" fill="#0052B4"/>
<path d="M114.29 248.79L121.148 255.648C122.696 253.634 123.863 251.312 124.543 248.79H114.29Z" fill="#0052B4"/>
<path d="M125.055 241.078H108.083H108.083V224.105C107.241 223.996 106.383 223.939 105.512 223.939C104.64 223.939 103.783 223.996 102.941 224.105V241.077V241.078H85.9689C85.8593 241.919 85.8021 242.777 85.8021 243.648C85.8021 244.52 85.8593 245.378 85.9689 246.219H102.941H102.941V263.192C103.783 263.301 104.64 263.358 105.512 263.358C106.383 263.358 107.241 263.301 108.083 263.192V246.219V246.219H125.055C125.165 245.378 125.222 244.52 125.222 243.648C125.222 242.777 125.165 241.919 125.055 241.078Z" fill="#D80027"/>
<path d="M110.654 248.79L119.449 257.585C119.854 257.181 120.239 256.758 120.608 256.32L113.078 248.79H110.654V248.79Z" fill="#D80027"/>
<path d="M100.37 248.79H100.37L91.5749 257.585C91.9792 257.99 92.402 258.376 92.8402 258.744L100.37 251.214V248.79Z" fill="#D80027"/>
<path d="M100.37 238.508V238.508L91.575 229.712C91.1705 230.117 90.7846 230.54 90.4165 230.978L97.9465 238.508H100.37V238.508Z" fill="#D80027"/>
<path d="M110.654 238.507L119.449 229.712C119.045 229.307 118.622 228.922 118.184 228.554L110.654 236.084V238.507Z" fill="#D80027"/>
</g>
<path fill-rule="evenodd" clip-rule="evenodd" d="M105.512 265.724C117.704 265.724 127.587 255.84 127.587 243.648C127.587 231.457 117.704 221.573 105.512 221.573C93.3202 221.573 83.4369 231.457 83.4369 243.648C83.4369 255.84 93.3202 265.724 105.512 265.724ZM105.512 267.3C118.575 267.3 129.164 256.711 129.164 243.648C129.164 230.586 118.575 219.997 105.512 219.997C92.4494 219.997 81.8601 230.586 81.8601 243.648C81.8601 256.711 92.4494 267.3 105.512 267.3Z" fill="#00B67A"/>
<g clip-path="url(#clip1)">
<path d="M105.512 325.642C116.397 325.642 125.222 316.817 125.222 305.932C125.222 295.046 116.397 286.222 105.512 286.222C94.6265 286.222 85.8021 295.046 85.8021 305.932C85.8021 316.817 94.6265 325.642 105.512 325.642Z" fill="#F0F0F0"/>
<path d="M125.222 305.933C125.222 297.458 119.873 290.234 112.367 287.449V324.417C119.873 321.632 125.222 314.407 125.222 305.933Z" fill="#D80027"/>
<path d="M85.8021 305.933C85.8021 314.407 91.1509 321.632 98.6564 324.417V287.449C91.1509 290.234 85.8021 297.458 85.8021 305.933Z" fill="#0052B4"/>
</g>
<g clip-path="url(#clip2)">
<path d="M31.8403 250.504C34.6252 258.009 41.8497 263.358 50.3243 263.358C58.7989 263.358 66.0234 258.009 68.8083 250.504L50.3243 248.79L31.8403 250.504Z" fill="#FFDA44"/>
<path d="M50.3243 223.939C41.8497 223.939 34.6252 229.287 31.8403 236.793L50.3243 238.507L68.8083 236.793C66.0234 229.287 58.7989 223.939 50.3243 223.939Z" fill="black"/>
<path d="M31.8403 236.792C31.048 238.927 30.6143 241.237 30.6143 243.648C30.6143 246.059 31.048 248.368 31.8403 250.503H68.8083C69.6005 248.368 70.0341 246.059 70.0341 243.648C70.0341 241.237 69.6005 238.927 68.8082 236.792H31.8403Z" fill="#D80027"/>
</g>
<g clip-path="url(#clip3)">
<path d="M30.6143 305.933C30.6143 308.344 31.048 310.653 31.8403 312.789L50.3242 314.503L68.8082 312.789C69.6004 310.653 70.0341 308.344 70.0341 305.933C70.0341 303.522 69.6004 301.213 68.8082 299.077L50.3242 297.364L31.8403 299.077C31.048 301.213 30.6143 303.522 30.6143 305.933Z" fill="#FFDA44"/>
<path d="M68.8083 299.076C66.0234 291.571 58.7989 286.222 50.3243 286.222C41.8497 286.222 34.6252 291.571 31.8403 299.076H68.8083Z" fill="#D80027"/>
<path d="M31.8403 312.788C34.6252 320.293 41.8497 325.642 50.3243 325.642C58.7989 325.642 66.0234 320.293 68.8083 312.788H31.8403Z" fill="#D80027"/>
</g>
<g clip-path="url(#clip4)">
<path d="M50.3242 387.137C61.2097 387.137 70.0341 378.312 70.0341 367.427C70.0341 356.541 61.2097 347.717 50.3242 347.717C39.4388 347.717 30.6143 356.541 30.6143 367.427C30.6143 378.312 39.4388 387.137 50.3242 387.137Z" fill="#F0F0F0"/>
<path d="M70.0341 367.428C70.0341 358.953 64.6853 351.729 57.1797 348.944V385.912C64.6853 383.127 70.0341 375.902 70.0341 367.428Z" fill="#D80027"/>
<path d="M30.6143 367.428C30.6143 375.902 35.9631 383.127 43.4687 385.912V348.944C35.9631 351.729 30.6143 358.953 30.6143 367.428Z" fill="#6DA544"/>
</g>
<mask id="mask2" mask-type="alpha" maskUnits="userSpaceOnUse" x="85" y="347" width="41" height="41">
<path d="M125.222 367.427C125.222 378.312 116.397 387.137 105.512 387.137C94.6265 387.137 85.8021 378.312 85.8021 367.427C85.8021 356.541 94.6265 347.717 105.512 347.717C116.397 347.717 125.222 356.541 125.222 367.427Z" fill="#C4C4C4"/>
</mask>
<g mask="url(#mask2)">
<path d="M85.8021 347.717H125.222V360.857H85.8021V347.717Z" fill="#AE1C28"/>
<path d="M85.8021 360.857H125.222V373.997H85.8021V360.857Z" fill="#F0F0F0"/>
<path d="M85.8021 373.997H125.222V387.137H85.8021V373.997Z" fill="#21468B"/>
</g>
<path d="M18 186.884C18 182.53 21.5298 179 25.884 179H189.87C194.225 179 197.754 182.53 197.754 186.884V213.689H18V186.884Z" fill="#5B5863"/>
<path d="M32.6716 201.155C33.4168 201.155 34.0882 201.001 34.6857 200.693C35.2831 200.385 35.7882 199.973 36.2009 199.455L35.0799 198.5C34.778 198.876 34.4208 199.172 34.0143 199.394C33.6016 199.615 33.152 199.72 32.6716 199.72C32.1049 199.72 31.5998 199.591 31.1564 199.332C30.7129 199.073 30.3618 198.71 30.1154 198.242C29.8629 197.774 29.7397 197.232 29.7397 196.628C29.7397 196 29.8629 195.445 30.1093 194.965C30.3556 194.485 30.7006 194.115 31.144 193.85C31.5875 193.591 32.0926 193.456 32.6716 193.456C33.1335 193.456 33.577 193.567 33.9958 193.789C34.4146 194.01 34.778 194.312 35.0799 194.682L36.2009 193.733C35.7327 193.154 35.1846 192.723 34.5686 192.44C33.9527 192.156 33.3183 192.015 32.6716 192.015C32.1049 192.015 31.5752 192.095 31.0886 192.249C30.602 192.409 30.1832 192.624 29.8259 192.908C29.4687 193.191 29.1607 193.518 28.9082 193.899C28.6495 194.281 28.4586 194.706 28.3354 195.168C28.2122 195.63 28.1506 196.117 28.1506 196.628C28.1506 197.207 28.2245 197.737 28.3847 198.229C28.5386 198.722 28.7542 199.141 29.0375 199.498C29.3147 199.856 29.6412 200.157 30.023 200.41C30.4049 200.662 30.8176 200.847 31.2672 200.97C31.7107 201.094 32.1788 201.155 32.6716 201.155Z" fill="white"/>
<path d="M41.0975 194.83C40.6787 194.83 40.2907 194.903 39.9334 195.051C39.5762 195.199 39.2682 195.408 39.0157 195.692H38.991V191.787H37.5806V201.075H38.991V197.946C38.991 197.355 39.1327 196.899 39.4284 196.585C39.724 196.271 40.1305 196.111 40.6479 196.111C41.0914 196.111 41.424 196.24 41.6457 196.493C41.8675 196.745 41.9845 197.164 41.9845 197.755V201.081H43.395V197.392C43.395 196.948 43.3395 196.554 43.2287 196.222C43.1178 195.889 42.9577 195.624 42.7482 195.421C42.5388 195.224 42.2986 195.076 42.0276 194.977C41.7566 194.879 41.4425 194.83 41.0975 194.83Z" fill="white"/>
<path d="M49.6529 194.922V195.661H49.6282C49.1601 195.107 48.5257 194.83 47.725 194.83C47.3062 194.83 46.912 194.91 46.5486 195.07C46.179 195.23 45.8649 195.452 45.6062 195.729C45.3413 196.012 45.1319 196.351 44.9841 196.745C44.8301 197.145 44.7562 197.57 44.7562 198.026C44.7562 198.402 44.7993 198.753 44.8979 199.086C44.9964 199.418 45.1319 199.708 45.3105 199.96C45.4891 200.213 45.6986 200.428 45.9449 200.613C46.1913 200.798 46.4623 200.94 46.7703 201.032C47.0783 201.131 47.3985 201.174 47.7373 201.174C48.575 201.174 49.2279 200.866 49.696 200.25H49.7145V201.075H51.0634V194.922H49.6529ZM47.959 199.892C47.4355 199.892 47.0105 199.72 46.6841 199.375C46.3515 199.03 46.1913 198.581 46.1913 198.032C46.1913 197.749 46.2344 197.484 46.3268 197.238C46.4192 196.991 46.5486 196.788 46.7087 196.628C46.8688 196.468 47.0536 196.339 47.2692 196.246C47.4848 196.16 47.7188 196.111 47.9652 196.111C48.4641 196.111 48.8768 196.295 49.2094 196.665C49.542 197.035 49.7083 197.49 49.7083 198.032C49.7083 198.581 49.5358 199.03 49.1971 199.375C48.8583 199.72 48.4456 199.892 47.959 199.892Z" fill="white"/>
<path d="M56.3357 194.83C55.9292 194.83 55.5535 194.91 55.1963 195.07C54.839 195.23 54.5311 195.464 54.2724 195.766H54.2539V194.922H52.8434V201.075H54.2539V197.983C54.2539 197.687 54.2908 197.423 54.3648 197.182C54.4387 196.948 54.5495 196.751 54.6912 196.591C54.8267 196.437 54.9992 196.32 55.1963 196.234C55.3934 196.154 55.6089 196.111 55.8492 196.111C56.0709 196.111 56.2557 196.141 56.4158 196.197C56.576 196.258 56.7115 196.351 56.8347 196.48C56.9517 196.61 57.0379 196.782 57.0995 197.004C57.1549 197.225 57.1857 197.497 57.1857 197.817V201.081H58.5962V197.453C58.5962 196.566 58.393 195.907 57.9926 195.476C57.5923 195.045 57.0379 194.83 56.3357 194.83Z" fill="white"/>
<path d="M64.811 194.922V195.569H64.7864C64.5277 195.328 64.2382 195.144 63.9056 195.014C63.573 194.891 63.2342 194.823 62.877 194.823C62.3103 194.823 61.8052 194.959 61.3618 195.224C60.9121 195.495 60.5611 195.864 60.3147 196.339C60.0683 196.813 59.9451 197.343 59.9451 197.934C59.9451 198.537 60.0745 199.067 60.3332 199.529C60.5919 199.997 60.9553 200.354 61.411 200.601C61.8668 200.847 62.3781 200.97 62.9509 200.97C63.7146 200.97 64.3367 200.724 64.8172 200.219H64.8418V200.872C64.8418 201.309 64.6817 201.673 64.3614 201.956C64.0411 202.245 63.5853 202.387 63.0063 202.387C62.606 202.387 62.2549 202.338 61.9531 202.239C61.6513 202.141 61.3063 201.987 60.9121 201.777L60.5795 203.021C60.9245 203.231 61.3125 203.385 61.7437 203.496C62.1748 203.607 62.6183 203.662 63.0864 203.662C63.5299 203.662 63.9302 203.613 64.2875 203.508C64.6385 203.403 64.9342 203.255 65.1744 203.071C65.4146 202.886 65.6117 202.652 65.7719 202.381C65.932 202.11 66.0429 201.814 66.1168 201.494C66.1845 201.174 66.2215 200.823 66.2215 200.441V194.922H64.811ZM63.1357 199.671C62.6244 199.671 62.2056 199.511 61.873 199.19C61.5404 198.87 61.3803 198.433 61.3803 197.891C61.3803 197.373 61.5404 196.948 61.8668 196.616C62.1871 196.289 62.6121 196.123 63.1357 196.123C63.3759 196.123 63.6038 196.166 63.8194 196.252C64.0288 196.339 64.2136 196.456 64.3675 196.603C64.5215 196.751 64.6447 196.936 64.7371 197.158C64.8233 197.379 64.8726 197.614 64.8726 197.872C64.8726 198.396 64.7063 198.827 64.386 199.166C64.0657 199.504 63.6469 199.671 63.1357 199.671Z" fill="white"/>
<path d="M73.6189 197.928C73.6189 197.336 73.4957 196.801 73.2555 196.332C73.0091 195.864 72.6642 195.501 72.2084 195.23C71.7526 194.965 71.2229 194.83 70.6316 194.83C70.2066 194.83 69.8124 194.91 69.4428 195.064C69.0733 195.218 68.753 195.433 68.4881 195.704C68.2171 195.981 68.0077 196.314 67.8599 196.708C67.7059 197.102 67.632 197.533 67.632 197.995C67.632 198.624 67.7675 199.184 68.0447 199.671C68.3157 200.157 68.6914 200.527 69.1718 200.786C69.6461 201.044 70.182 201.174 70.7794 201.174C71.3522 201.174 71.8573 201.069 72.2946 200.86C72.7319 200.65 73.0892 200.367 73.3725 200.01L72.387 199.166C71.999 199.652 71.4877 199.892 70.8533 199.892C70.3975 199.892 70.0157 199.769 69.7015 199.517C69.3874 199.27 69.1841 198.925 69.0979 198.488H73.5819C73.6065 198.34 73.6189 198.156 73.6189 197.928ZM70.7055 196.111C70.9642 196.111 71.1982 196.166 71.4077 196.271C71.6171 196.376 71.7834 196.517 71.9127 196.702C72.0421 196.887 72.1406 197.102 72.2022 197.349H69.1225C69.2211 196.954 69.412 196.653 69.6954 196.437C69.9787 196.222 70.3113 196.111 70.7055 196.111Z" fill="white"/>
<path d="M83.48 192.113L81.4905 195.587H81.4535L79.4518 192.113H77.7087L80.7021 197.115V201.075H82.2296V197.115L85.2415 192.113H83.48Z" fill="white"/>
<path d="M87.9886 201.174C88.6045 201.174 89.1589 201.044 89.6516 200.779C90.1444 200.515 90.5263 200.139 90.8034 199.658C91.0744 199.178 91.2161 198.624 91.2161 198.008C91.2161 197.392 91.0744 196.837 90.8034 196.351C90.5263 195.87 90.1444 195.495 89.6578 195.23C89.165 194.965 88.6107 194.83 87.9886 194.83C87.348 194.83 86.7814 194.971 86.2886 195.248C85.7959 195.526 85.414 195.901 85.1492 196.382C84.8843 196.862 84.755 197.404 84.755 198.008C84.755 198.457 84.8289 198.876 84.989 199.264C85.143 199.658 85.3586 199.991 85.6357 200.274C85.9129 200.558 86.2578 200.773 86.6644 200.933C87.0709 201.094 87.5082 201.174 87.9886 201.174ZM87.9886 199.892C87.4651 199.892 87.0339 199.714 86.6951 199.35C86.3564 198.993 86.1901 198.544 86.1901 198.008C86.1901 197.466 86.3564 197.016 86.689 196.653C87.0216 196.295 87.4528 196.111 87.9886 196.111C88.4998 196.111 88.9248 196.289 89.2698 196.64C89.6085 196.998 89.781 197.453 89.781 198.008C89.781 198.556 89.6085 199.006 89.2636 199.363C88.9187 199.72 88.4937 199.892 87.9886 199.892Z" fill="white"/>
<path d="M96.7903 194.922V197.866C96.7903 198.186 96.7472 198.482 96.661 198.741C96.5747 198.999 96.4577 199.215 96.3099 199.375C96.1621 199.541 95.9896 199.671 95.8048 199.757C95.6139 199.843 95.4168 199.886 95.2074 199.886C94.9856 199.886 94.807 199.862 94.6592 199.812C94.5114 199.763 94.382 199.671 94.2835 199.548C94.1787 199.424 94.1048 199.264 94.0556 199.055C94.0063 198.852 93.9878 198.593 93.9878 198.285V194.922H92.5773V198.667C92.5773 199.116 92.6328 199.504 92.7436 199.831C92.8545 200.157 93.0085 200.416 93.2179 200.607C93.4273 200.804 93.6675 200.946 93.9385 201.038C94.2095 201.131 94.5237 201.174 94.8748 201.174C95.2382 201.174 95.5831 201.1 95.9157 200.946C96.2421 200.792 96.5255 200.57 96.7718 200.274H96.7903V201.075H98.2008V194.922H96.7903Z" fill="white"/>
<path d="M103.332 194.83C102.956 194.83 102.605 194.922 102.272 195.094C101.94 195.267 101.656 195.519 101.416 195.846H101.397V194.922H99.987V201.075H101.397V198.156C101.397 197.823 101.459 197.521 101.588 197.256C101.718 196.991 101.909 196.782 102.167 196.622C102.426 196.468 102.728 196.388 103.079 196.388C103.202 196.388 103.344 196.394 103.504 196.406V194.836C103.467 194.836 103.412 194.83 103.332 194.83Z" fill="white"/>
<path d="M108.234 201.075H113.907V199.708H109.756V192.113H108.234V201.075Z" fill="white"/>
<path d="M118.108 201.174C118.724 201.174 119.278 201.044 119.771 200.779C120.264 200.515 120.645 200.139 120.923 199.658C121.194 199.178 121.335 198.624 121.335 198.008C121.335 197.392 121.194 196.837 120.923 196.351C120.645 195.87 120.264 195.495 119.777 195.23C119.284 194.965 118.73 194.83 118.108 194.83C117.467 194.83 116.901 194.971 116.408 195.248C115.915 195.526 115.533 195.901 115.268 196.382C115.003 196.862 114.874 197.404 114.874 198.008C114.874 198.457 114.948 198.876 115.108 199.264C115.262 199.658 115.478 199.991 115.755 200.274C116.032 200.558 116.377 200.773 116.784 200.933C117.19 201.094 117.627 201.174 118.108 201.174ZM118.108 199.892C117.584 199.892 117.153 199.714 116.814 199.35C116.476 198.993 116.309 198.544 116.309 198.008C116.309 197.466 116.476 197.016 116.808 196.653C117.141 196.295 117.572 196.111 118.108 196.111C118.619 196.111 119.044 196.289 119.389 196.64C119.728 196.998 119.9 197.453 119.9 198.008C119.9 198.556 119.728 199.006 119.383 199.363C119.038 199.72 118.613 199.892 118.108 199.892Z" fill="white"/>
<path d="M125.591 201.174C126.158 201.174 126.669 201.075 127.131 200.872C127.593 200.675 127.969 200.41 128.252 200.09L127.279 199.227C127.211 199.301 127.137 199.375 127.057 199.437C126.971 199.504 126.885 199.566 126.786 199.621C126.688 199.677 126.583 199.726 126.472 199.763C126.361 199.806 126.238 199.837 126.109 199.862C125.979 199.886 125.85 199.892 125.721 199.892C125.364 199.892 125.043 199.819 124.766 199.658C124.489 199.498 124.273 199.277 124.119 198.987C123.965 198.704 123.891 198.371 123.891 197.995C123.891 197.626 123.965 197.299 124.119 197.016C124.267 196.733 124.483 196.511 124.76 196.351C125.031 196.191 125.351 196.111 125.715 196.111C126.035 196.111 126.331 196.172 126.595 196.295C126.854 196.419 127.082 196.591 127.267 196.807L128.228 195.975C127.926 195.606 127.544 195.322 127.082 195.125C126.614 194.928 126.133 194.83 125.641 194.83C125.025 194.83 124.47 194.965 123.99 195.23C123.51 195.501 123.134 195.877 122.863 196.357C122.592 196.837 122.456 197.392 122.456 198.008C122.456 198.63 122.586 199.184 122.857 199.665C123.128 200.145 123.497 200.521 123.978 200.779C124.452 201.044 124.988 201.174 125.591 201.174Z" fill="white"/>
<path d="M134.048 194.922V195.661H134.024C133.555 195.107 132.921 194.83 132.12 194.83C131.701 194.83 131.307 194.91 130.944 195.07C130.574 195.23 130.26 195.452 130.001 195.729C129.737 196.012 129.527 196.351 129.379 196.745C129.225 197.145 129.151 197.57 129.151 198.026C129.151 198.402 129.195 198.753 129.293 199.086C129.392 199.418 129.527 199.708 129.706 199.96C129.884 200.213 130.094 200.428 130.34 200.613C130.587 200.798 130.858 200.94 131.166 201.032C131.474 201.131 131.794 201.174 132.133 201.174C132.97 201.174 133.623 200.866 134.091 200.25H134.11V201.075H135.459V194.922H134.048ZM132.354 199.892C131.831 199.892 131.406 199.72 131.079 199.375C130.747 199.03 130.587 198.581 130.587 198.032C130.587 197.749 130.63 197.484 130.722 197.238C130.815 196.991 130.944 196.788 131.104 196.628C131.264 196.468 131.449 196.339 131.665 196.246C131.88 196.16 132.114 196.111 132.361 196.111C132.859 196.111 133.272 196.295 133.605 196.665C133.937 197.035 134.104 197.49 134.104 198.032C134.104 198.581 133.931 199.03 133.592 199.375C133.254 199.72 132.841 199.892 132.354 199.892Z" fill="white"/>
<path d="M139.074 201.174C139.438 201.174 139.733 201.143 139.961 201.081C140.189 201.02 140.417 200.933 140.639 200.81L140.269 199.591C139.937 199.769 139.629 199.856 139.358 199.856C139.154 199.856 139.006 199.794 138.908 199.658C138.809 199.529 138.766 199.307 138.766 198.999V196.123H140.577V194.922H138.766V192.723L137.356 192.877V194.922H136.604V196.123H137.356V199.129C137.356 199.806 137.504 200.311 137.805 200.656C138.107 201.001 138.532 201.174 139.074 201.174Z" fill="white"/>
<path d="M142.591 194.004C142.757 194.004 142.911 193.967 143.059 193.881C143.207 193.795 143.324 193.684 143.41 193.536C143.497 193.394 143.54 193.24 143.54 193.068C143.54 192.815 143.441 192.594 143.256 192.409C143.072 192.224 142.85 192.132 142.591 192.132C142.32 192.132 142.098 192.224 141.914 192.409C141.729 192.594 141.636 192.809 141.636 193.068C141.636 193.327 141.729 193.548 141.914 193.733C142.098 193.918 142.32 194.004 142.591 194.004ZM141.877 201.075H143.287V194.922H141.877V201.075Z" fill="white"/>
<path d="M148.091 201.174C148.707 201.174 149.262 201.044 149.755 200.779C150.247 200.515 150.629 200.139 150.906 199.658C151.177 199.178 151.319 198.624 151.319 198.008C151.319 197.392 151.177 196.837 150.906 196.351C150.629 195.87 150.247 195.495 149.761 195.23C149.268 194.965 148.714 194.83 148.091 194.83C147.451 194.83 146.884 194.971 146.392 195.248C145.899 195.526 145.517 195.901 145.252 196.382C144.987 196.862 144.858 197.404 144.858 198.008C144.858 198.457 144.932 198.876 145.092 199.264C145.246 199.658 145.461 199.991 145.739 200.274C146.016 200.558 146.361 200.773 146.767 200.933C147.174 201.094 147.611 201.174 148.091 201.174ZM148.091 199.892C147.568 199.892 147.137 199.714 146.798 199.35C146.459 198.993 146.293 198.544 146.293 198.008C146.293 197.466 146.459 197.016 146.792 196.653C147.124 196.295 147.556 196.111 148.091 196.111C148.603 196.111 149.028 196.289 149.373 196.64C149.711 196.998 149.884 197.453 149.884 198.008C149.884 198.556 149.711 199.006 149.366 199.363C149.022 199.72 148.597 199.892 148.091 199.892Z" fill="white"/>
<path d="M156.29 194.83C155.883 194.83 155.507 194.91 155.15 195.07C154.793 195.23 154.485 195.464 154.226 195.766H154.208V194.922H152.797V201.075H154.208V197.983C154.208 197.687 154.245 197.423 154.319 197.182C154.392 196.948 154.503 196.751 154.645 196.591C154.781 196.437 154.953 196.32 155.15 196.234C155.347 196.154 155.563 196.111 155.803 196.111C156.025 196.111 156.209 196.141 156.37 196.197C156.53 196.258 156.665 196.351 156.788 196.48C156.905 196.61 156.992 196.782 157.053 197.004C157.109 197.225 157.14 197.497 157.14 197.817V201.081H158.55V197.453C158.55 196.566 158.347 195.907 157.946 195.476C157.546 195.045 156.992 194.83 156.29 194.83Z" fill="white"/>
<defs>
<filter id="filter0_d" x="64" y="15" width="354" height="375" filterUnits="userSpaceOnUse" color-interpolation-filters="sRGB">
<feFlood flood-opacity="0" result="BackgroundImageFix"/>
<feColorMatrix in="SourceAlpha" type="matrix" values="0 0 0 0 0 0 0 0 0 0 0 0 0 0 0 0 0 0 127 0" result="hardAlpha"/>
<feOffset dy="4"/>
<feGaussianBlur stdDeviation="7"/>
<feComposite in2="hardAlpha" operator="out"/>
<feColorMatrix type="matrix" values="0 0 0 0 0 0 0 0 0 0 0 0 0 0 0 0 0 0 0.15 0"/>
<feBlend mode="normal" in2="BackgroundImageFix" result="effect1_dropShadow"/>
<feBlend mode="normal" in="SourceGraphic" in2="effect1_dropShadow" result="shape"/>
</filter>
<filter id="filter1_d" x="101" y="81" width="280.278" height="280.254" filterUnits="userSpaceOnUse" color-interpolation-filters="sRGB">
<feFlood flood-opacity="0" result="BackgroundImageFix"/>
<feColorMatrix in="SourceAlpha" type="matrix" values="0 0 0 0 0 0 0 0 0 0 0 0 0 0 0 0 0 0 127 0" result="hardAlpha"/>
<feOffset dy="4"/>
<feGaussianBlur stdDeviation="5.5"/>
<feComposite in2="hardAlpha" operator="out"/>
<feColorMatrix type="matrix" values="0 0 0 0 0 0 0 0 0 0 0 0 0 0 0 0 0 0 0.25 0"/>
<feBlend mode="normal" in2="BackgroundImageFix" result="effect1_dropShadow"/>
<feBlend mode="normal" in="SourceGraphic" in2="effect1_dropShadow" result="shape"/>
</filter>
<filter id="filter2_d" x="201" y="117" width="63" height="78" filterUnits="userSpaceOnUse" color-interpolation-filters="sRGB">
<feFlood flood-opacity="0" result="BackgroundImageFix"/>
<feColorMatrix in="SourceAlpha" type="matrix" values="0 0 0 0 0 0 0 0 0 0 0 0 0 0 0 0 0 0 127 0" result="hardAlpha"/>
<feOffset dy="4"/>
<feGaussianBlur stdDeviation="2"/>
<feComposite in2="hardAlpha" operator="out"/>
<feColorMatrix type="matrix" values="0 0 0 0 0 0 0 0 0 0 0 0 0 0 0 0 0 0 0.15 0"/>
<feBlend mode="normal" in2="BackgroundImageFix" result="effect1_dropShadow"/>
<feBlend mode="normal" in="SourceGraphic" in2="effect1_dropShadow" result="shape"/>
</filter>
<filter id="filter3_d" x="253.282" y="108" width="181.577" height="486.67" filterUnits="userSpaceOnUse" color-interpolation-filters="sRGB">
<feFlood flood-opacity="0" result="BackgroundImageFix"/>
<feColorMatrix in="SourceAlpha" type="matrix" values="0 0 0 0 0 0 0 0 0 0 0 0 0 0 0 0 0 0 127 0" result="hardAlpha"/>
<feOffset dy="4"/>
<feGaussianBlur stdDeviation="3"/>
<feComposite in2="hardAlpha" operator="out"/>
<feColorMatrix type="matrix" values="0 0 0 0 0 0 0 0 0 0 0 0 0 0 0 0 0 0 0.25 0"/>
<feBlend mode="normal" in2="BackgroundImageFix" result="effect1_dropShadow"/>
<feBlend mode="normal" in="SourceGraphic" in2="effect1_dropShadow" result="shape"/>
</filter>
<filter id="filter4_d" x="0" y="165" width="215.754" height="267" filterUnits="userSpaceOnUse" color-interpolation-filters="sRGB">
<feFlood flood-opacity="0" result="BackgroundImageFix"/>
<feColorMatrix in="SourceAlpha" type="matrix" values="0 0 0 0 0 0 0 0 0 0 0 0 0 0 0 0 0 0 127 0" result="hardAlpha"/>
<feOffset dy="4"/>
<feGaussianBlur stdDeviation="9"/>
<feComposite in2="hardAlpha" operator="out"/>
<feColorMatrix type="matrix" values="0 0 0 0 0 0 0 0 0 0 0 0 0 0 0 0 0 0 0.15 0"/>
<feBlend mode="normal" in2="BackgroundImageFix" result="effect1_dropShadow"/>
<feBlend mode="normal" in="SourceGraphic" in2="effect1_dropShadow" result="shape"/>
</filter>
<clipPath id="clip0">
<rect width="39.4198" height="39.4198" fill="white" transform="translate(85.8021 223.939)"/>
</clipPath>
<clipPath id="clip1">
<rect width="39.4198" height="39.4198" fill="white" transform="translate(85.8021 286.222)"/>
</clipPath>
<clipPath id="clip2">
<rect width="39.4198" height="39.4198" fill="white" transform="translate(30.6143 223.939)"/>
</clipPath>
<clipPath id="clip3">
<rect width="39.4198" height="39.4198" fill="white" transform="translate(30.6143 286.222)"/>
</clipPath>
<clipPath id="clip4">
<rect width="39.4198" height="39.4198" fill="white" transform="translate(30.6143 347.717)"/>
</clipPath>
</defs>
</svg>
