<svg width="468" height="468" viewBox="0 0 468 468" fill="none" xmlns="http://www.w3.org/2000/svg">
<circle r="234" transform="matrix(-1 0 0 1 234 234)" fill="#FFEBF2"/>
<ellipse rx="175.5" ry="176" transform="matrix(-1 0 0 1 233.5 234)" fill="#FFDDE9"/>
<path d="M206.664 359.425C201.276 364.813 197.606 371.678 196.119 379.151C194.633 386.625 195.396 394.371 198.312 401.411C201.228 408.451 206.166 414.468 212.501 418.701C218.837 422.934 226.285 425.194 233.905 425.194C241.525 425.194 248.974 422.934 255.309 418.701C261.645 414.468 266.583 408.451 269.499 401.411C272.415 394.371 273.178 386.625 271.691 379.151C270.204 371.678 266.535 364.813 261.147 359.425C253.92 352.203 244.122 348.146 233.905 348.146C223.689 348.146 213.89 352.203 206.664 359.425Z" fill="#FD3E72"/>
<path d="M233.899 267.822C218.288 267.779 202.822 270.834 188.4 276.81C173.977 282.786 160.883 291.565 149.877 302.637C145.777 306.89 143.51 312.583 143.564 318.49C143.618 324.398 145.989 330.048 150.167 334.225C154.344 338.403 159.994 340.774 165.902 340.828C171.809 340.882 177.502 338.615 181.755 334.515C188.601 327.667 196.73 322.234 205.675 318.528C214.621 314.822 224.21 312.914 233.893 312.914C243.577 312.914 253.165 314.822 262.111 318.528C271.057 322.234 279.185 327.667 286.031 334.515C290.259 338.744 295.993 341.12 301.972 341.122C307.952 341.123 313.687 338.748 317.916 334.521C322.145 330.294 324.521 324.56 324.522 318.58C324.523 312.601 322.149 306.866 317.922 302.637C306.915 291.565 293.821 282.787 279.399 276.811C264.976 270.835 249.511 267.78 233.899 267.822Z" fill="#FD3E72"/>
<path d="M233.899 193.574C208.534 193.507 183.406 198.471 159.972 208.18C136.537 217.888 115.261 232.148 97.3748 250.134C93.1475 254.363 90.7732 260.098 90.7744 266.078C90.7755 272.057 93.1519 277.791 97.3808 282.019C101.61 286.246 107.345 288.62 113.324 288.619C119.304 288.618 125.038 286.242 129.265 282.013C157.019 254.263 194.658 238.674 233.905 238.674C273.152 238.674 310.792 254.263 338.545 282.013C342.799 286.113 348.491 288.38 354.399 288.325C360.306 288.271 365.957 285.9 370.134 281.723C374.311 277.546 376.682 271.895 376.736 265.988C376.791 260.08 374.524 254.388 370.424 250.134C352.539 232.147 331.263 217.885 307.828 208.177C284.393 198.468 259.265 193.505 233.899 193.574Z" fill="#FD3E72"/>
<path d="M423.045 197.527C398.207 172.677 368.717 152.964 336.258 139.515C303.8 126.066 269.01 119.144 233.875 119.144C198.741 119.144 163.951 126.066 131.492 139.515C99.0341 152.964 69.5436 172.677 44.7056 197.527C40.4783 201.756 38.104 207.491 38.1052 213.47C38.1063 219.449 40.4827 225.184 44.7116 229.411C48.9405 233.638 54.6755 236.013 60.655 236.011C66.6345 236.01 72.3686 233.634 76.596 229.405C97.2455 208.753 121.761 192.371 148.742 181.195C175.723 170.018 204.641 164.265 233.846 164.265C263.05 164.265 291.968 170.018 318.949 181.195C345.93 192.371 370.446 208.753 391.095 229.405C393.188 231.499 395.673 233.16 398.409 234.294C401.144 235.427 404.075 236.011 407.036 236.011C409.997 236.012 412.929 235.429 415.664 234.297C418.4 233.164 420.885 231.504 422.979 229.411C425.073 227.318 426.735 224.833 427.868 222.098C429.002 219.362 429.585 216.431 429.586 213.47C429.586 210.509 429.004 207.577 427.871 204.842C426.739 202.106 425.079 199.621 422.985 197.527H423.045Z" fill="#FD3E72"/>
<path d="M134.946 243.857C135.686 248.631 130.936 251.483 130.936 251.483L118.81 253.632L114.036 249.049C114.036 249.049 107.508 248.691 108.069 241.983C108.842 242.373 109.708 242.539 110.57 242.463C111.433 242.387 112.257 242.072 112.95 241.554C114.752 240.36 117.342 235.944 123.059 234.691C124.47 234.336 125.961 234.479 127.279 235.097C128.597 235.714 129.661 236.768 130.292 238.08C131.552 238.474 132.667 239.234 133.496 240.262C134.324 241.29 134.829 242.542 134.946 243.857Z" fill="#4E4B55"/>
<path d="M109.775 276.977L106.195 283.66L98.4967 283.469C98.4967 283.469 103.509 305.74 110.969 296.419C115.6 290.654 118.798 278.349 118.798 278.349L113.189 276.702L109.775 276.977Z" fill="#F1A076"/>
<path d="M130.208 262.74C130.208 262.74 117.545 259.923 109.238 276.716L123.799 284.115C128.107 277.241 138.419 264.148 130.208 262.74Z" fill="white"/>
<path d="M105.873 271.215L97.0526 269.795L100.812 287.566L108.26 289.022L105.873 271.215Z" fill="#38363E"/>
<path d="M107.603 270.245L109.238 288.028L108.26 289.019L105.873 271.212L107.603 270.245Z" fill="#4D4B54"/>
<path d="M97.0526 269.793L98.4967 268.791L107.603 270.247L105.873 271.214L97.0526 269.793Z" fill="#4D4B54"/>
<path d="M102.304 273.9C102.36 274.096 102.336 274.306 102.237 274.485C102.139 274.664 101.974 274.796 101.779 274.854C101.409 274.914 101.051 274.58 100.979 274.103C100.927 273.906 100.952 273.698 101.05 273.52C101.148 273.342 101.311 273.209 101.504 273.148C101.874 273.052 102.232 273.422 102.304 273.9Z" fill="white"/>
<path d="M120.421 417.641C120.421 417.641 117.461 420.947 115.218 421.914C112.974 422.881 108.63 422.081 108.63 426.879H127.523V417.641H120.421Z" fill="#773B1C"/>
<path d="M114.991 318.175C114.991 318.175 114.585 349.91 114.991 363.457C115.397 377.003 118.321 410.874 118.321 410.874H129.492V364.948L133.944 318.139L114.991 318.175Z" fill="#773B1C"/>
<path d="M127.272 320.194C127.272 320.194 130.065 356.787 131.139 362.456C132.213 368.125 141.021 410.876 141.021 410.876H151.094L146.428 363.136L147.43 320.54C147.43 320.54 141.499 315.325 127.272 320.194Z" fill="#8F4620"/>
<path d="M128.776 260.959C128.776 260.959 122.08 262.952 118.75 265.351C112.222 270.053 108.713 317.865 109.716 323.486C110.718 329.108 147.299 327.126 151.094 325.444C157.861 322.46 150.175 270.197 148.528 266.449C147.001 262.976 134.481 259.479 134.481 259.479L128.776 260.959Z" fill="white"/>
<path d="M127.952 259.48C115.17 265.448 113.941 251.317 114.024 249.049C117.333 248.667 120.537 247.654 123.465 246.065L127.678 249.383C127.678 249.383 126.771 246.244 128.943 245.445C131.115 244.645 133.502 248.524 130.936 251.484L135.018 260.686C135.17 261.028 135.252 261.398 135.258 261.772C135.265 262.147 135.196 262.519 135.056 262.867C134.915 263.214 134.707 263.53 134.442 263.795C134.177 264.06 133.861 264.269 133.514 264.41C132.886 264.673 132.183 264.698 131.539 264.478C130.894 264.258 130.353 263.809 130.017 263.216L127.952 259.48Z" fill="#FFAB80"/>
<path d="M121.376 410.876H126.019V418.037C126.024 418.291 125.977 418.543 125.882 418.778C125.788 419.013 125.646 419.227 125.467 419.407C125.287 419.586 125.074 419.727 124.838 419.822C124.603 419.917 124.351 419.963 124.097 419.958H123.262C122.762 419.958 122.282 419.76 121.928 419.406C121.575 419.053 121.376 418.573 121.376 418.073V410.912V410.876Z" fill="#E4BEAC"/>
<path d="M142.322 417.641C142.322 417.641 139.362 420.947 137.118 421.914C134.875 422.881 130.53 422.081 130.53 426.879H149.423V417.641H142.322Z" fill="#773B1C"/>
<path d="M143.277 410.876H147.967V418.037C147.967 418.537 147.769 419.017 147.415 419.37C147.061 419.724 146.582 419.923 146.082 419.923H145.222C144.722 419.923 144.242 419.724 143.889 419.37C143.535 419.017 143.337 418.537 143.337 418.037V410.876H143.277Z" fill="#E4BEAC"/>
<path d="M141.63 282.251C141.63 282.251 143.348 290.868 142.608 295.38C142.048 298.817 110.73 284.841 110.73 284.841C110.807 283.833 110.574 282.825 110.062 281.953C108.26 279.053 107.842 282.573 107.842 282.573C107.842 282.573 106.947 279.733 105.3 279.208C104.273 278.886 102.411 279.876 102.519 282.657C102.626 285.438 106.195 286.977 109.549 287.515C109.549 287.515 125.732 300.643 135.257 304.164C151.345 310.203 157.229 305.536 155.021 282.752L141.63 282.251Z" fill="#FFAB80"/>
<path d="M144.387 263.204C144.387 263.204 155.63 265.174 156.728 283.935L140.436 285.069C139.183 277.061 136.283 261.295 144.387 263.204Z" fill="white"/>
<path d="M98.4848 276.059C98.4848 276.059 100.752 277.157 100.872 280.833C100.991 284.509 99.4634 284.533 98.4848 283.435C96.6468 281.74 96.062 275.439 98.4848 276.059Z" fill="#F1A076"/>
<path d="M225.02 43.9019C225.02 43.9019 216.14 35.0222 221.964 28.5773C228.159 21.655 238.172 30.8688 238.172 30.8688C238.778 30.6021 239.434 30.4644 240.096 30.4646C240.759 30.4649 241.414 30.603 242.02 30.8701C242.626 31.1373 243.17 31.5277 243.617 32.0165C244.064 32.5053 244.405 33.0818 244.617 33.7094C246.24 37.2899 244.247 43.5438 240.607 44.3435C236.967 45.1431 225.02 43.9019 225.02 43.9019Z" fill="#5B5863"/>
<path d="M203.823 188.921C203.823 188.921 200.863 192.227 198.619 193.194C196.376 194.161 192.031 193.361 192.031 198.171H210.924V188.921H203.823Z" fill="#5B2A11"/>
<path d="M204.778 182.156H209.421V189.317C209.421 189.564 209.372 189.81 209.277 190.038C209.182 190.267 209.043 190.475 208.868 190.65C208.693 190.825 208.485 190.964 208.257 191.059C208.028 191.154 207.783 191.202 207.535 191.202H206.676C206.428 191.202 206.183 191.154 205.954 191.059C205.725 190.964 205.517 190.825 205.342 190.65C205.167 190.475 205.028 190.267 204.933 190.038C204.839 189.81 204.79 189.564 204.79 189.317V182.156H204.778Z" fill="#E4BEAC"/>
<path d="M263.976 188.921C263.976 188.921 266.935 192.227 269.179 193.194C271.423 194.161 275.767 193.361 275.767 198.171H256.874V188.921H263.976Z" fill="#5B2A11"/>
<path d="M261.123 191.239H260.264C259.764 191.239 259.284 191.041 258.93 190.687C258.577 190.333 258.378 189.854 258.378 189.354V182.193H263.009V189.354C263.009 189.854 262.81 190.333 262.456 190.687C262.103 191.041 261.623 191.239 261.123 191.239Z" fill="#E4BEAC"/>
<path d="M222.454 112.017C222.454 112.017 198.333 120.897 198.345 132.975C198.345 146.545 201.675 185.931 201.675 185.931H212.846C212.846 185.931 213.574 139.169 213.848 137.427C222.816 131.364 231.469 124.847 239.771 117.901L222.454 112.017Z" fill="#8F4620"/>
<path d="M245.345 112.017C245.345 112.017 269.466 120.897 269.454 132.975C269.454 146.545 266.124 185.931 266.124 185.931H254.953C254.953 185.931 254.225 139.169 253.95 137.427C244.982 131.364 236.33 124.847 228.027 117.901L245.345 112.017Z" fill="#8F4620"/>
<path d="M252.315 51.8846C248.436 49.0918 233.983 48.6741 233.983 48.6741C233.983 48.6741 219.53 49.0799 215.651 51.8727C208.048 57.3508 203.942 106.499 205.124 113.004C205.816 116.835 220.819 117.623 233.983 117.229C247.111 117.623 262.161 116.835 262.854 113.004C264.023 106.511 259.93 57.3628 252.315 51.8846Z" fill="#FD3E72"/>
<path d="M240.189 49.0809C236.752 48.7586 233.983 48.687 233.983 48.687C233.983 48.687 231.238 48.7586 227.824 49.0809L227.586 49.1525V117.325C229.722 117.325 231.87 117.325 233.983 117.242C236.095 117.158 238.112 117.325 240.189 117.325V49.0809Z" fill="white"/>
<path d="M263.045 82.546H204.754V116.31H263.045V82.546Z" fill="#5B5863"/>
<path d="M204.754 116.301H263.045V116.933C263.045 117.671 262.752 118.378 262.23 118.899C261.709 119.421 261.001 119.714 260.264 119.714H207.535C206.797 119.714 206.09 119.421 205.569 118.899C205.047 118.378 204.754 117.671 204.754 116.933V116.301Z" fill="#403E45"/>
<path d="M240.547 44.3453C243.877 42.2566 243.304 37.602 241.001 37.7333C238.697 37.8646 238.614 41.1348 238.614 41.1348L235.57 36.7427C232.313 37.407 228.958 37.4394 225.688 36.8382C224.936 38.9865 222 52.8191 235.952 50.8737C235.952 50.8737 241.227 49.7757 240.547 44.3453Z" fill="#FFAB80"/>
<path d="M231.274 44.6075V51.3628C231.274 52.0591 231.55 52.727 232.043 53.2194C232.535 53.7118 233.203 53.9885 233.899 53.9885C234.596 53.9885 235.264 53.7118 235.756 53.2194C236.248 52.727 236.525 52.0591 236.525 51.3628V44.6075H231.274Z" fill="#FFAB80"/>
<path d="M237.074 99.4224C237.074 100.05 236.888 100.664 236.539 101.186C236.19 101.708 235.694 102.115 235.114 102.355C234.534 102.596 233.896 102.659 233.28 102.536C232.664 102.414 232.098 102.111 231.654 101.667C231.21 101.223 230.908 100.658 230.786 100.042C230.663 99.4259 230.726 98.7876 230.966 98.2075C231.207 97.6274 231.613 97.1316 232.136 96.7827C232.658 96.4339 233.271 96.2477 233.899 96.2477C234.741 96.2477 235.549 96.5822 236.144 97.1775C236.74 97.7729 237.074 98.5804 237.074 99.4224Z" fill="white"/>
<g filter="url(#filter0_d)">
<circle cx="234.261" cy="231.538" r="76.919" fill="white"/>
</g>
<path d="M143.886 207.176C143.886 207.176 142.62 211.437 141.009 213.263C139.398 215.089 135.125 216.223 137.226 220.543L154.305 212.463L150.354 204.109L143.886 207.176Z" fill="#5B2A11"/>
<path d="M141.853 200.635L146.04 198.655L149.101 205.129C149.315 205.581 149.34 206.099 149.172 206.57C149.003 207.041 148.655 207.426 148.203 207.64L147.426 208.007C146.974 208.221 146.455 208.246 145.984 208.078C145.513 207.909 145.129 207.56 144.915 207.108L141.853 200.635Z" fill="#E4BEAC"/>
<path d="M156.835 67.7749C156.835 67.7749 142.071 71.6657 143.838 84.2452C144.793 91.0362 147.705 94.3422 150.999 95.4999C153.792 96.4905 154.436 93.2561 156.787 91.991C161.907 89.2459 169.653 69.7203 166.848 68.4432C164.044 67.1662 156.835 67.7749 156.835 67.7749Z" fill="#5B5863"/>
<path d="M157.599 67.7769C155.692 67.4425 153.919 66.5777 152.481 65.2816C151.044 63.9855 150 62.3105 149.471 60.4488C147.323 53.7652 153.732 49.8386 156.93 50.1131C156.93 50.1131 165.894 40.768 175.239 46.998C184.584 53.2281 173.174 64.9005 173.174 64.9005L157.599 67.7769Z" fill="#5B5863"/>
<path d="M165.07 77.3289C172.124 78.9282 161.621 100.304 155.797 105.519C151.202 109.649 136.701 88.4762 135.257 87.8795C133.812 87.2827 149.65 95.2314 149.65 95.2314C149.65 95.2314 151.273 74.2258 165.07 77.3289Z" fill="#F1A076"/>
<path d="M173.46 117.146C173.46 117.146 175.024 123.257 174.403 135.383C169.629 144.787 140.4 140.765 138.897 146.255C137.99 164.743 148.23 198.185 148.23 198.185L140.186 202.386C140.186 202.386 122.176 167.774 122.963 144.835C123.56 127.697 152.133 124.259 152.741 120.834C153.541 116.251 154.173 113.745 154.173 113.745L173.46 117.146Z" fill="#773817"/>
<path d="M123.154 202.828C123.154 202.828 121.018 206.719 119.049 208.151C117.079 209.583 112.664 209.798 113.738 214.477L132.165 210.24L130.065 201.229L123.154 202.828Z" fill="#5B2A11"/>
<path d="M122.56 196.016L127.084 194.975L128.69 201.954C128.746 202.195 128.753 202.445 128.712 202.689C128.671 202.934 128.583 203.167 128.451 203.377C128.32 203.587 128.148 203.769 127.947 203.913C127.745 204.056 127.517 204.159 127.276 204.214L126.438 204.407C126.197 204.463 125.947 204.47 125.703 204.429C125.459 204.388 125.225 204.299 125.015 204.168C124.805 204.037 124.623 203.865 124.479 203.663C124.336 203.462 124.233 203.234 124.178 202.992L122.572 196.014L122.56 196.016Z" fill="#E4BEAC"/>
<path d="M174.964 117.349C174.964 117.349 179.905 130.024 172.494 138.748C165.667 146.781 133.956 137.197 131.318 142.245C126.472 160.148 129.337 194.962 129.337 194.962L120.576 197.349C120.576 197.349 110.384 159.682 116.065 137.447C120.314 120.834 148.946 123.591 150.259 120.356C152.013 116.06 153.171 113.745 153.171 113.745L174.964 117.349Z" fill="#8F4620"/>
<path d="M161.382 73.1185L157.324 73.9062C157.324 73.9062 146.416 85.8412 153.553 91.1404C153.553 91.1404 150.891 102.789 149.519 114.497C149.519 114.497 148.039 120.178 163.256 119.737C175.752 119.379 176.11 118.245 176.659 115.774C177.208 113.304 179.249 73.5124 161.382 73.1185Z" fill="#C72450"/>
<path d="M141.618 95.3166L137.823 78.5957L135.388 79.2402L139.446 95.6866L141.618 95.3166Z" fill="#4D4B54"/>
<path d="M163.483 70.1689C177.542 71.0521 173.305 56.0379 172.41 53.9612C168.941 57.233 164.68 59.5447 160.046 60.6687C160.201 61.2296 159.759 57.4104 157.444 57.4581C155.128 57.5059 154.317 61.9934 157.79 63.8195L157.336 73.8688C157.319 74.2424 157.376 74.6158 157.506 74.9668C157.635 75.3178 157.834 75.6392 158.09 75.9119C158.346 76.1846 158.654 76.4031 158.996 76.5545C159.338 76.7058 159.707 76.7869 160.081 76.7928C160.762 76.8062 161.425 76.5714 161.945 76.1321C162.466 75.6929 162.809 75.0793 162.91 74.4058L163.483 70.1689Z" fill="#FFAB80"/>
<path d="M165.201 78.8554C164.278 79.1943 163.513 79.8647 163.057 80.736C162.6 81.6074 162.484 82.6175 162.731 83.5698C163.924 88.3438 165.929 96.4596 165.536 98.8466C165.106 101.46 141.319 90.8382 141.319 90.8382C141.374 90.0711 141.195 89.3055 140.806 88.6421C139.446 86.4461 139.123 89.1195 139.123 89.1195C139.123 89.1195 138.419 86.9593 137.226 86.5654C136.45 86.3148 135.03 87.0667 135.113 89.1792C135.197 91.2917 137.906 92.4613 140.46 92.8671C140.46 92.8671 153.744 103.453 161.084 105.852C175.74 110.626 174.749 99.7894 170.345 81.1947C170.187 80.6885 169.925 80.2208 169.576 79.8215C169.226 79.4221 168.798 79.0999 168.317 78.8754C167.837 78.6508 167.315 78.5288 166.784 78.5172C166.254 78.5055 165.727 78.6045 165.237 78.8077L165.201 78.8554Z" fill="#FFAB80"/>
<path d="M163.698 94.9999L174.547 94.0809C174.547 94.0809 173.067 79.7589 168.376 77.8493C163.686 75.9397 159.091 81.1434 163.698 94.9999Z" fill="#C72450"/>
<path d="M342.878 241.332C342.878 241.332 329.009 232.071 318.65 242.776C310.701 250.988 313.876 261.454 306.022 264.617C298.169 267.78 292.082 274.667 294.648 283.128C297.214 291.59 308.565 298.358 320.416 290.397C332.268 282.436 331.229 271.062 331.229 271.062C331.229 271.062 341.088 268.675 342.388 259.485C342.388 259.485 348.272 254.783 348.189 248.099C348.105 241.416 342.878 241.332 342.878 241.332Z" fill="#4E4B55"/>
<path d="M319.509 267.659C312.455 269.258 322.958 290.634 328.783 295.85C333.377 299.979 347.819 278.806 349.323 278.21C350.826 277.613 334.929 285.597 334.929 285.597C334.929 285.597 333.306 264.556 319.509 267.659Z" fill="#F1A076"/>
<path d="M350.958 416.479C350.958 416.479 354.479 419.176 356.866 419.689C359.253 420.203 363.37 418.615 364.277 423.342L345.706 426.922L343.976 417.851L350.958 416.479Z" fill="#5B2A11"/>
<path d="M348.601 419.335L347.756 419.496C347.265 419.589 346.757 419.484 346.343 419.203C345.93 418.922 345.644 418.488 345.551 417.997L344.209 410.963L348.769 410.093L350.111 417.127C350.158 417.371 350.156 417.622 350.105 417.865C350.054 418.109 349.956 418.34 349.815 418.545C349.675 418.75 349.495 418.926 349.287 419.061C349.078 419.197 348.845 419.29 348.601 419.335Z" fill="#E4BEAC"/>
<path d="M317.587 307.469C317.587 307.469 313.768 316.909 317.587 329.477C321.407 342.044 342.949 411.626 342.949 411.626L350.17 410.313C350.17 410.313 337.543 338.046 335.096 325.204C332.172 309.832 328.568 304.771 328.568 304.771L317.587 307.469Z" fill="#773B1C"/>
<path d="M311.119 307.471C311.119 307.471 307.3 316.912 311.119 329.48C314.938 342.047 329.522 410.876 329.522 410.876H337.018C337.018 410.876 335.096 337.751 333.724 324.753C333.061 317.8 331.961 310.896 330.43 304.082L311.119 307.471Z" fill="#8F4620"/>
<path d="M336.469 417.648C336.469 417.648 339.429 420.954 341.672 421.921C343.916 422.887 348.26 422.088 348.26 426.886H329.379V417.648H336.469Z" fill="#5B2A11"/>
<path d="M333.616 419.963H332.757C332.257 419.963 331.777 419.764 331.423 419.41C331.07 419.057 330.871 418.577 330.871 418.077V410.916H335.502V418.077C335.502 418.577 335.303 419.057 334.95 419.41C334.596 419.764 334.116 419.963 333.616 419.963Z" fill="#E4BEAC"/>
<path d="M323.185 263.505L328.186 265.892C328.186 265.892 338.151 276.157 331.014 281.408C330.768 288.319 331.06 295.238 331.886 302.103C331.886 302.103 333.198 307.605 321.144 308.799C308.696 309.992 308.386 308.524 307.837 306.054C307.288 303.583 305.33 263.84 323.185 263.505Z" fill="white"/>
<path d="M342.961 285.647L346.745 268.926L349.191 269.571L345.133 286.005L342.961 285.647Z" fill="#4D4B54"/>
<path d="M330.251 262.24C343.033 268.207 344.262 254.076 344.179 251.821C344.179 251.821 342.627 251.248 341.35 248.097C337.877 251.916 330.525 252.143 330.525 252.143C330.525 252.143 331.432 249.004 329.26 248.204C327.088 247.405 324.701 251.284 327.267 254.255L323.185 263.445C323.034 263.788 322.954 264.157 322.948 264.531C322.943 264.906 323.012 265.277 323.152 265.624C323.292 265.971 323.5 266.287 323.764 266.552C324.028 266.817 324.343 267.027 324.689 267.169C325.319 267.431 326.023 267.454 326.668 267.234C327.314 267.015 327.858 266.567 328.198 265.976L330.251 262.24Z" fill="#FFAB80"/>
<path d="M319.378 269.189C320.314 269.529 321.088 270.209 321.546 271.093C322.004 271.978 322.112 273.003 321.848 273.963C320.655 278.737 318.65 286.853 319.032 289.24C319.461 291.854 343.26 281.232 343.26 281.232C343.197 280.464 343.377 279.696 343.773 279.036C345.133 276.84 345.456 279.513 345.456 279.513C345.456 279.513 346.136 277.353 347.389 276.959C348.165 276.708 349.573 277.46 349.49 279.573C349.406 281.685 346.709 282.855 344.155 283.261C344.155 283.261 330.871 293.847 323.531 296.246C308.863 301.02 309.866 290.183 314.27 271.588C314.428 271.082 314.69 270.614 315.039 270.215C315.388 269.816 315.817 269.494 316.298 269.269C316.778 269.044 317.3 268.922 317.831 268.911C318.361 268.899 318.888 268.998 319.378 269.201V269.189Z" fill="#FFAB80"/>
<g filter="url(#filter1_d)">
<g filter="url(#filter2_d)">
<path d="M278.262 204.18C278.262 204.18 271.672 256.932 260.844 268.801C247.825 283.041 238.398 280.504 233.164 287.848C227.916 280.495 218.48 283.041 205.47 268.792C194.643 256.923 188.066 204.171 188.066 204.171C208.574 182.758 233.164 174.794 233.164 174.794C233.658 175.292 257.555 183.555 278.262 204.18Z" fill="#FD3E72"/>
</g>
<g filter="url(#filter3_d)">
<path d="M278.262 204.18C278.262 204.18 271.672 256.932 260.844 268.801C247.825 283.041 238.398 280.504 233.164 287.848L233.164 266.498L233.164 208.309L233.164 174.794C233.658 175.292 257.555 183.555 278.262 204.18Z" fill="#E32D5F"/>
</g>
<path d="M271.3 208.437C271.3 208.437 265.734 252.996 256.589 263.03C245.6 275.074 237.623 273.305 233.188 279.509C228.752 273.305 220.78 275.074 209.786 263.03C200.641 252.996 195.088 208.437 195.088 208.437C214.984 187.641 233.188 183.621 233.188 183.621C233.188 183.621 253.611 189.632 271.3 208.437Z" fill="white"/>
<mask id="mask0" mask-type="alpha" maskUnits="userSpaceOnUse" x="233" y="181" width="39" height="104">
<path d="M233.095 181.963H271.323V284.503H233.095V181.963Z" fill="#C4C4C4"/>
</mask>
<g mask="url(#mask0)">
<path d="M271.294 208.439C271.294 208.439 265.728 252.998 256.583 263.031C245.594 275.076 237.617 273.307 233.181 279.511C228.746 273.307 220.773 275.076 209.78 263.031C200.635 252.998 195.082 208.439 195.082 208.439C214.978 187.643 233.181 183.623 233.181 183.623C233.181 183.623 253.604 189.634 271.294 208.439Z" fill="#F8F3F3"/>
</g>
<path d="M251.604 207.849C248.189 207.849 245.435 210.516 245.435 213.823V231.124C245.435 231.848 245.392 232.571 245.307 233.336C245.221 234.08 245.008 234.762 244.666 235.382C244.324 236.003 243.812 236.519 243.129 236.933C242.446 237.346 241.464 237.553 240.226 237.553C238.987 237.553 238.005 237.346 237.322 236.933C236.639 236.519 236.127 236.003 235.785 235.382C235.444 234.762 235.23 234.08 235.145 233.336C235.059 232.592 235.017 231.848 235.017 231.124V213.286C231.601 213.286 228.847 215.952 228.847 219.259V231.104C228.847 231.827 228.804 232.551 228.719 233.315C228.634 234.06 228.42 234.742 228.079 235.362C227.737 235.982 227.225 236.499 226.541 236.912C225.858 237.325 224.876 237.532 223.638 237.532C222.4 237.532 221.418 237.325 220.735 236.912C220.052 236.499 219.539 235.982 219.198 235.362C218.856 234.742 218.643 234.06 218.557 233.315C218.472 232.571 218.429 231.827 218.429 231.104V218.722C215.013 218.722 212.259 221.409 212.259 224.696V231.104C212.259 232.799 212.43 234.287 212.772 235.568C213.113 236.85 213.54 237.946 214.053 238.876C214.586 239.806 215.184 240.571 215.867 241.191C216.55 241.811 217.255 242.307 217.959 242.7C219.603 243.609 221.503 244.105 223.617 244.167C225.773 244.105 227.673 243.609 229.338 242.7C230.043 242.307 230.747 241.811 231.409 241.191C231.58 241.026 231.75 240.86 231.921 240.674C232.092 240.86 232.263 241.026 232.434 241.191C233.117 241.811 233.821 242.307 234.526 242.7C236.169 243.609 238.069 244.105 240.183 244.167C242.339 244.105 244.239 243.609 245.904 242.7C246.609 242.307 247.313 241.811 247.975 241.191C248.658 240.571 249.256 239.806 249.79 238.876C250.323 237.946 250.75 236.85 251.071 235.568C251.391 234.287 251.54 232.819 251.54 231.104L251.604 207.849Z" fill="#FD3E72"/>
</g>
<defs>
<filter id="filter0_d" x="122.342" y="123.619" width="223.838" height="223.838" filterUnits="userSpaceOnUse" color-interpolation-filters="sRGB">
<feFlood flood-opacity="0" result="BackgroundImageFix"/>
<feColorMatrix in="SourceAlpha" type="matrix" values="0 0 0 0 0 0 0 0 0 0 0 0 0 0 0 0 0 0 127 0" result="hardAlpha"/>
<feOffset dy="4"/>
<feGaussianBlur stdDeviation="17.5"/>
<feColorMatrix type="matrix" values="0 0 0 0 0 0 0 0 0 0 0 0 0 0 0 0 0 0 0.25 0"/>
<feBlend mode="normal" in2="BackgroundImageFix" result="effect1_dropShadow"/>
<feBlend mode="normal" in="SourceGraphic" in2="effect1_dropShadow" result="shape"/>
</filter>
<filter id="filter1_d" x="163.066" y="161.794" width="140.196" height="163.054" filterUnits="userSpaceOnUse" color-interpolation-filters="sRGB">
<feFlood flood-opacity="0" result="BackgroundImageFix"/>
<feColorMatrix in="SourceAlpha" type="matrix" values="0 0 0 0 0 0 0 0 0 0 0 0 0 0 0 0 0 0 127 0" result="hardAlpha"/>
<feOffset dy="12"/>
<feGaussianBlur stdDeviation="12.5"/>
<feColorMatrix type="matrix" values="0 0 0 0 0 0 0 0 0 0 0 0 0 0 0 0 0 0 0.1 0"/>
<feBlend mode="normal" in2="BackgroundImageFix" result="effect1_dropShadow"/>
<feBlend mode="normal" in="SourceGraphic" in2="effect1_dropShadow" result="shape"/>
</filter>
<filter id="filter2_d" x="182.066" y="172.794" width="102.196" height="125.054" filterUnits="userSpaceOnUse" color-interpolation-filters="sRGB">
<feFlood flood-opacity="0" result="BackgroundImageFix"/>
<feColorMatrix in="SourceAlpha" type="matrix" values="0 0 0 0 0 0 0 0 0 0 0 0 0 0 0 0 0 0 127 0" result="hardAlpha"/>
<feOffset dy="4"/>
<feGaussianBlur stdDeviation="3"/>
<feColorMatrix type="matrix" values="0 0 0 0 0 0 0 0 0 0 0 0 0 0 0 0 0 0 0.1 0"/>
<feBlend mode="normal" in2="BackgroundImageFix" result="effect1_dropShadow"/>
<feBlend mode="normal" in="SourceGraphic" in2="effect1_dropShadow" result="shape"/>
</filter>
<filter id="filter3_d" x="227.164" y="172.794" width="57.0978" height="125.054" filterUnits="userSpaceOnUse" color-interpolation-filters="sRGB">
<feFlood flood-opacity="0" result="BackgroundImageFix"/>
<feColorMatrix in="SourceAlpha" type="matrix" values="0 0 0 0 0 0 0 0 0 0 0 0 0 0 0 0 0 0 127 0" result="hardAlpha"/>
<feOffset dy="4"/>
<feGaussianBlur stdDeviation="3"/>
<feColorMatrix type="matrix" values="0 0 0 0 0 0 0 0 0 0 0 0 0 0 0 0 0 0 0.1 0"/>
<feBlend mode="normal" in2="BackgroundImageFix" result="effect1_dropShadow"/>
<feBlend mode="normal" in="SourceGraphic" in2="effect1_dropShadow" result="shape"/>
</filter>
</defs>
</svg>
