<svg width="153" height="36" viewBox="0 0 153 36" fill="none" xmlns="http://www.w3.org/2000/svg">
<path d="M20.2116 22.4755L26.4587 19.0559C27.1644 18.6693 27.905 17.6838 26.4587 16.8949L20.2083 13.4854L15.7334 17.9939L20.2116 22.4755Z" fill="#F49C71"/>
<path d="M15.4352 17.9805L1.12402 32.4018C1.44767 32.4423 1.83649 32.3569 2.28263 32.1119L19.9146 22.4609L15.4352 17.9805Z" fill="#D54A6D"/>
<path d="M15.4465 17.7293L19.9202 13.2208L2.29387 3.60355C1.91066 3.39453 1.49374 3.32261 1.12402 3.40352L15.4465 17.7293Z" fill="#ADD69E"/>
<path d="M15.398 17.6969L1.0756 3.37109C0.483369 3.50257 -0.000976562 4.01501 -0.000976562 5.04439V30.3978C-0.000976562 31.3665 0.381104 32.0486 1.08571 32.1171L15.398 17.6958V17.6969Z" fill="#24B9C2"/>
<path fill-rule="evenodd" clip-rule="evenodd" d="M55.3914 23.7356V24.823C55.3914 29.1726 52.1469 31.4543 48.704 31.4543C44.3419 31.4543 41.3857 28.2456 41.3857 24.2704C41.3857 20.206 44.7204 17.0686 48.7401 17.0686C52.255 17.0686 54.4902 19.1008 55.085 21.329L52.237 22.1847C51.9306 20.9903 50.6147 19.8138 48.704 19.8138C46.3247 19.8138 44.3599 21.7212 44.3599 24.2525C44.3599 26.6769 46.1444 28.7091 48.704 28.7091C50.6147 28.7091 52.0027 27.7286 52.3451 26.356H48.0551V23.7356H55.3914ZM56.7614 26.4986C56.7614 23.6643 59.1227 21.5073 62.0428 21.5073C64.9449 21.5073 67.2701 23.6108 67.2701 26.4452C67.2701 29.3152 64.9088 31.4543 62.0067 31.4543C59.0866 31.4543 56.7614 29.3687 56.7614 26.4986ZM59.6454 26.463C59.6454 27.9069 60.7089 28.9052 62.0247 28.9052C63.3406 28.9052 64.3861 27.9069 64.3861 26.463C64.3861 25.0369 63.3226 24.0386 62.0067 24.0386C60.6909 24.0386 59.6454 25.0369 59.6454 26.463ZM68.6761 26.4986C68.6761 23.6643 71.0374 21.5073 73.9575 21.5073C76.8596 21.5073 79.1849 23.6108 79.1849 26.4452C79.1849 29.3152 76.8235 31.4543 73.9215 31.4543C71.0014 31.4543 68.6761 29.3687 68.6761 26.4986ZM71.5601 26.463C71.5601 27.9069 72.6236 28.9052 73.9395 28.9052C75.2553 28.9052 76.3008 27.9069 76.3008 26.463C76.3008 25.0369 75.2373 24.0386 73.9215 24.0386C72.6056 24.0386 71.5601 25.0369 71.5601 26.463ZM90.8653 21.7212V31.0978C90.8653 34.3778 88.6301 36 85.674 36C82.5917 36 80.9694 34.3243 80.6089 32.5774L83.1865 31.793C83.4388 32.6843 84.0157 33.5756 85.656 33.5756C86.9538 33.5756 88.0714 32.8804 88.0714 31.1691V29.9747H88.0353C87.1701 31.08 85.9444 31.2404 85.2594 31.2404C82.4835 31.2404 80.6089 29.1013 80.6089 26.4273C80.6089 24.0208 82.3754 21.5786 85.1513 21.5786C85.7461 21.5786 87.08 21.7034 88.0714 22.8799H88.1074V21.7212H90.8653ZM88.1435 26.4273C88.1435 25.0191 87.116 24.0564 85.8002 24.0564C84.5023 24.0564 83.4569 25.0369 83.4569 26.4273C83.4569 27.8534 84.4843 28.816 85.8002 28.816C87.098 28.816 88.1435 27.8534 88.1435 26.4273ZM93.479 16.7121H96.3089V31.2404H93.479V16.7121ZM101.248 25.4112H105.394C105.34 24.716 104.745 23.7534 103.339 23.7534C102.077 23.7534 101.356 24.7873 101.248 25.4112ZM108.17 27.2473H101.176C101.356 28.4417 102.383 29.1191 103.555 29.1191C104.366 29.1191 105.268 28.6378 105.592 27.8534L107.899 28.6378C107.268 30.4739 105.484 31.4543 103.591 31.4543C100.671 31.4543 98.3097 29.4221 98.3097 26.463C98.3097 23.7178 100.635 21.4895 103.411 21.4895C106.277 21.4895 108.206 23.4325 108.206 26.2491C108.206 26.5878 108.206 26.9265 108.17 27.2473ZM125.366 21.7569C125.366 24.8408 123.167 26.3204 120.211 26.3204H117.993V31.2404H115.073V17.2825H120.319C123.149 17.2825 125.366 18.7977 125.366 21.7569ZM122.428 21.8282C122.428 20.4734 121.274 20.0099 120.066 20.0099H117.993V23.6286H120.084C121.238 23.6286 122.428 23.1295 122.428 21.8282ZM127.204 16.7121H130.034V31.2404H127.204V16.7121ZM135.28 31.4187C133.603 31.4187 132.089 30.3491 132.089 28.5843V28.513C132.089 26.2312 134.451 25.5895 136.325 25.5895H137.262C137.785 25.5895 138.02 25.3221 138.02 24.9299C138.02 24.3238 137.515 23.7534 136.505 23.7534C135.64 23.7534 134.991 24.2525 134.775 25.0547L132.306 24.5021C132.63 22.4699 134.613 21.5073 136.632 21.5073C139.029 21.5073 140.777 22.773 140.777 25.3399V31.2404H138.182V30.0639L138.146 30.046C137.425 31.0621 136.325 31.4187 135.28 31.4187ZM136.091 29.3865C137.335 29.3865 138.002 28.513 138.002 27.5504V27.3365H136.325C135.748 27.3365 134.919 27.6752 134.919 28.4239C134.919 29.1013 135.496 29.3865 136.091 29.3865ZM143.535 35.9287L145.897 30.2243L141.841 21.7212H144.941L147.339 27.1582L149.484 21.7212H152.386L146.546 35.9287H143.535ZM48.4382 3.06388C48.2466 2.31741 47.4242 1.27012 45.8695 1.27012C44.1459 1.27012 42.8278 2.64051 42.8278 4.46769C42.8278 6.27259 44.0783 7.68755 45.8583 7.68755C47.413 7.68755 48.2917 6.79624 48.4832 5.72666H45.3175V4.47883H49.9816V4.95791C49.9816 7.1639 48.4269 8.94652 45.8695 8.94652C43.2108 8.94652 41.3857 7.04135 41.3857 4.50112C41.3857 1.89403 43.3235 0 45.8808 0C48.0101 0 49.3958 1.25897 49.8013 2.64051L48.4382 3.06388ZM57.2255 0.122555V1.35925H52.967V3.78807H56.8425V5.02476H52.967V7.59842H57.2706V8.84625H51.5813V0.122555H57.2255ZM60.9432 1.39267H58.1493V0.122555H65.1341V1.39267H62.3289V8.84625H60.9432V1.39267ZM70.4403 8.84625H69.0546V0.122555H70.4403V8.84625ZM74.5749 1.39267H71.781V0.122555H78.7658V1.39267H75.9606V8.84625H74.5749V1.39267ZM82.1005 4.50112C82.1005 1.96088 84.1396 0 86.6406 0C89.1416 0 91.1582 1.91632 91.1582 4.46769C91.1582 7.04135 89.0965 8.94652 86.6068 8.94652C84.1058 8.94652 82.1005 7.07477 82.1005 4.50112ZM83.5538 4.46769C83.5538 6.23917 84.8944 7.6764 86.6293 7.6764C88.353 7.6764 89.7049 6.23917 89.7049 4.46769C89.7049 2.69621 88.353 1.27012 86.6293 1.27012C84.8944 1.27012 83.5538 2.69621 83.5538 4.46769ZM100.182 8.84625H98.7401L94.1887 2.128V8.84625H92.8255V0.122555H94.4591L98.8077 6.55113V0.122555H100.182V8.84625Z" fill="white"/>
</svg>
