<svg xmlns="http://www.w3.org/2000/svg" xmlns:xlink="http://www.w3.org/1999/xlink" width="300" height="485" fill="none" xmlns:v="https://vecta.io/nano"><style><![CDATA[.B{fill:#afadb2}.C{fill:#5b5863}.D{fill-rule:evenodd}.E{fill:#f9f8f4}.F{fill:#62d5b4}.G{stroke-width:.404}]]></style><mask id="A" maskUnits="userSpaceOnUse" x="0" y="0" width="300" height="485"><rect x=".167" width="299.083" height="485" rx="8.083" class="E"/></mask><g mask="url(#A)"><path d="M.167 29.1H299.25V485H.167z" class="E"/><rect x="32.5" y="286.15" width="234.417" height="72.75" rx="4.042" fill="#fff"/><path d="M235.811 329.655l5.376-6.272a.807.807 0 0 0 0-1.052l-5.376-6.273-1.228 1.053 4.926 5.746-4.925 5.746 1.227 1.052zM52.536 311.042h1.005a1.41 1.41 0 0 0 .647.994c.368.247.836.371 1.404.371.537 0 .981-.129 1.331-.387s.53-.59.53-.984c0-.339-.128-.619-.386-.84s-.661-.407-1.21-.547l-1.023-.265c-.722-.18-1.246-.442-1.574-.785s-.492-.797-.492-1.364c0-.678.258-1.225.773-1.642.52-.42 1.202-.629 2.045-.629.77 0 1.415.206 1.934.618s.8.942.84 1.586h-1a1.42 1.42 0 0 0-.586-.956c-.317-.232-.724-.348-1.221-.348-.53 0-.958.124-1.282.37s-.48.566-.48.967a.94.94 0 0 0 .353.763c.24.195.633.363 1.182.503l.835.221c.825.206 1.416.482 1.773.829s.542.812.542 1.398c0 .733-.269 1.317-.807 1.751s-1.261.647-2.171.647c-.844 0-1.536-.206-2.078-.619s-.833-.963-.884-1.652zm9.852-3.139c-.475 0-.865.16-1.171.481s-.477.744-.514 1.271h3.282c-.01-.527-.162-.951-.453-1.271s-.672-.481-1.144-.481zm1.57 3.68h.95a2.064 2.064 0 0 1-.879 1.21c-.438.291-.981.437-1.63.437-.825 0-1.479-.276-1.961-.829s-.724-1.306-.724-2.249.243-1.689.73-2.249 1.137-.84 1.955-.84c.803 0 1.435.267 1.896.802s.69 1.265.69 2.193v.365h-4.282v.044c.026.59.191 1.057.497 1.404s.717.519 1.221.519c.77 0 1.282-.269 1.537-.807zm2.575 1.542v-8.322h.95v8.322h-.95zm5.172-5.222c-.476 0-.866.16-1.172.481s-.477.744-.514 1.271h3.282c-.01-.527-.162-.951-.453-1.271s-.672-.481-1.143-.481zm1.569 3.68h.95a2.065 2.065 0 0 1-.878 1.21c-.439.291-.982.437-1.63.437-.826 0-1.48-.276-1.962-.829s-.724-1.306-.724-2.249.243-1.689.73-2.249 1.138-.84 1.956-.84c.803 0 1.434.267 1.895.802s.69 1.265.69 2.193v.365H70.02v.044c.026.59.192 1.057.497 1.404s.717.519 1.222.519c.77 0 1.282-.269 1.536-.807zm7.448-2.591h-.96a1.356 1.356 0 0 0-.526-.768c-.265-.203-.602-.304-1.011-.304-.534 0-.96.199-1.276.597s-.47.933-.47 1.608c0 .685.158 1.232.475 1.641a1.53 1.53 0 0 0 1.27.608c.402 0 .736-.091 1.001-.271s.448-.439.536-.774h.962a2.133 2.133 0 0 1-.79 1.376c-.439.35-1.006.525-1.703.525-.836 0-1.5-.28-1.994-.84s-.74-1.319-.74-2.265c0-.929.246-1.671.74-2.227s1.156-.835 1.989-.835c.696 0 1.263.183 1.702.547a2.18 2.18 0 0 1 .795 1.382zm1.912-3.365h.95v1.541h1.327v.796h-1.326v3.371c0 .35.07.604.21.762s.364.238.674.238a5.06 5.06 0 0 0 .442-.022v.801c-.21.037-.396.055-.558.055-.615 0-1.055-.123-1.32-.37s-.399-.654-.399-1.221v-3.614h-.961v-.796h.961v-1.541zm6.001 2.276c-.475 0-.865.16-1.171.481s-.477.744-.514 1.271h3.282c-.01-.527-.162-.951-.453-1.271s-.672-.481-1.144-.481zm1.57 3.68h.95a2.065 2.065 0 0 1-.879 1.21c-.438.291-.981.437-1.63.437-.825 0-1.479-.276-1.961-.829s-.724-1.306-.724-2.249.243-1.689.73-2.249 1.138-.84 1.955-.84c.803 0 1.435.267 1.896.802s.69 1.265.69 2.193v.365H86.95v.044c.026.59.192 1.057.497 1.404s.717.519 1.221.519c.77 0 1.282-.269 1.537-.807zm4.724 1.647c-.762 0-1.37-.28-1.823-.84s-.68-1.308-.68-2.243.227-1.678.68-2.238 1.064-.846 1.823-.846c.416 0 .788.094 1.116.282s.582.438.752.763h.083v-3.305h.95v8.322h-.906v-.95h-.089a2.017 2.017 0 0 1-.784.779c-.335.184-.71.276-1.122.276zm.221-5.31c-.541 0-.967.199-1.276.597s-.464.937-.464 1.63.152 1.241.458 1.635.737.592 1.282.592.969-.199 1.282-.597.47-.941.47-1.63c0-.682-.159-1.223-.475-1.625s-.739-.602-1.277-.602zm12.682 4.31v.895h-4.841v-7.974h.995v7.079h3.846zm2.337-.437c.306.387.741.581 1.304.581s.998-.194 1.304-.581.459-.939.459-1.646-.153-1.255-.459-1.641-.74-.586-1.304-.586-.998.195-1.304.586-.459.933-.459 1.641.153 1.256.459 1.646zm3.31.614c-.49.549-1.159.823-2.006.823s-1.518-.274-2.011-.823-.735-1.306-.735-2.26.245-1.711.735-2.26 1.16-.824 2.011-.824 1.522.275 2.011.824.735 1.302.735 2.26-.246 1.707-.74 2.26zm7.161-3.415h-.961a1.355 1.355 0 0 0-.525-.768c-.265-.203-.602-.304-1.011-.304-.534 0-.96.199-1.277.597s-.469.933-.469 1.608c0 .685.158 1.232.475 1.641a1.53 1.53 0 0 0 1.271.608c.401 0 .735-.091 1-.271s.447-.439.536-.774h.961a2.133 2.133 0 0 1-.79 1.376c-.438.35-1.006.525-1.702.525-.836 0-1.501-.28-1.995-.84s-.74-1.319-.74-2.265c0-.929.247-1.671.74-2.227s1.157-.835 1.99-.835c.696 0 1.263.183 1.702.547a2.18 2.18 0 0 1 .795 1.382zm3.238 3.404c.49 0 .896-.142 1.216-.426s.486-.639.486-1.066v-.547l-1.602.105c-.45.029-.779.123-.989.281s-.315.389-.315.691.112.534.337.707.514.255.867.255zm-.176.834c-.586 0-1.069-.16-1.448-.481s-.564-.755-.564-1.293c0-.53.188-.947.564-1.249s.912-.473 1.608-.513l1.718-.105v-.542c0-.368-.114-.65-.342-.845s-.564-.293-1.006-.293c-.357 0-.654.064-.89.193a.887.887 0 0 0-.453.547h-.961c.062-.475.307-.858.735-1.149s.965-.437 1.602-.437c.722 0 1.28.175 1.674.525s.592.836.592 1.459v4.078h-.907v-.879h-.088c-.191.317-.446.56-.762.73a2.245 2.245 0 0 1-1.072.254zm4.984-7.603h.95v1.541h1.326v.796h-1.326v3.371c0 .35.07.604.21.762s.365.238.674.238a5.04 5.04 0 0 0 .442-.022v.801c-.21.037-.396.055-.558.055-.615 0-1.055-.123-1.32-.37s-.398-.654-.398-1.221v-3.614h-.962v-.796h.962v-1.541zm3.735 7.498v-5.957h.951v5.957h-.951zm.945-7.36a.638.638 0 0 1-.47.193.638.638 0 0 1-.469-.193.652.652 0 0 1-.194-.47c0-.18.065-.335.194-.464a.628.628 0 0 1 .469-.199.63.63 0 0 1 .47.199.633.633 0 0 1 .193.464.651.651 0 0 1-.193.47zm2.962 6.028c.306.387.74.581 1.304.581s.998-.194 1.304-.581.459-.939.459-1.646-.153-1.255-.459-1.641-.741-.586-1.304-.586-.998.195-1.304.586-.459.933-.459 1.641.153 1.256.459 1.646zm3.31.614c-.49.549-1.159.823-2.006.823s-1.518-.274-2.011-.823-.735-1.306-.735-2.26.245-1.711.735-2.26 1.16-.824 2.011-.824 1.521.275 2.011.824.735 1.302.735 2.26-.247 1.707-.74 2.26zm2.232.718v-5.957h.906v.94h.089c.317-.697.913-1.045 1.79-1.045.667 0 1.181.192 1.542.575s.541.923.541 1.63v3.857h-.95V309.5c0-.534-.116-.93-.348-1.188s-.58-.392-1.056-.392-.86.151-1.144.453-.419.707-.419 1.227v3.525h-.951zm7.394.055a.705.705 0 0 1-.509-.21.703.703 0 0 1-.21-.508.69.69 0 0 1 .21-.508.705.705 0 0 1 .509-.21c.198 0 .368.07.508.21a.69.69 0 0 1 .21.508c0 .195-.07.365-.21.508s-.31.21-.508.21zm0-4.249a.705.705 0 0 1-.509-.21.704.704 0 0 1-.21-.508c0-.199.07-.369.21-.509a.705.705 0 0 1 .509-.21c.198 0 .368.07.508.21s.21.31.21.509-.07.364-.21.508-.31.21-.508.21z" class="B"/><path d="M85.736 325.698v6.551c0 .705.21 1.269.632 1.69s1.007.626 1.755.626 1.331-.209 1.748-.626.632-.985.632-1.69v-6.551h1.833v6.721c0 1.132-.381 2.046-1.144 2.742s-1.785 1.045-3.069 1.045-2.306-.348-3.069-1.045-1.144-1.61-1.144-2.742v-6.721h1.826zm8.689 7.467h1.79c.057.459.296.826.718 1.101s.956.405 1.605.405c.607 0 1.104-.137 1.492-.412s.59-.635.59-1.066a1.09 1.09 0 0 0-.448-.902c-.293-.232-.77-.424-1.428-.575l-1.328-.306c-.928-.208-1.618-.547-2.068-1.016-.445-.473-.667-1.091-.667-1.854 0-.933.348-1.681 1.044-2.245s1.625-.853 2.77-.853c1.076 0 1.966.28 2.672.839s1.08 1.279 1.123 2.16h-1.755a1.524 1.524 0 0 0-.647-1.073c-.37-.266-.836-.398-1.4-.398-.591 0-1.067.132-1.427.398a1.23 1.23 0 0 0-.533 1.044c0 .346.14.628.419.846s.736.393 1.371.539l1.18.27c1.037.233 1.787.578 2.252 1.038s.703 1.08.703 1.861c0 .999-.362 1.79-1.087 2.373-.72.578-1.7.867-2.941.867-1.175 0-2.125-.275-2.85-.824s-1.103-1.289-1.15-2.217zm16.703 2.785l-.867-2.622h-3.773l-.881 2.622h-1.854l3.638-10.252h2.06l3.644 10.252h-1.967zm-2.807-8.298l-1.406 4.227h2.919l-1.392-4.227h-.121zm14.977 4.994h-4.668v-1.655h4.668v1.655zm8.077 3.304h-1.769v-10.252h1.592l5.03 6.97h.12v-6.97h1.762v10.252h-1.584l-5.03-6.977h-.121v6.977zm12.348-6.529c-.526 0-.959.173-1.3.519s-.531.802-.569 1.371h3.659c-.019-.578-.189-1.038-.511-1.379s-.749-.511-1.279-.511zm1.804 4.39h1.67a2.699 2.699 0 0 1-1.172 1.684c-.611.408-1.371.611-2.281.611-1.141 0-2.039-.355-2.692-1.065-.649-.716-.974-1.698-.974-2.949s.327-2.24.981-2.969c.653-.735 1.544-1.102 2.671-1.102 1.108 0 1.975.348 2.6 1.045.63.691.945 1.65.945 2.877v.568h-5.428v.093c.024.649.209 1.163.554 1.541.351.375.815.562 1.393.562.89 0 1.468-.299 1.733-.896zm13.826-5.633l-2.103 7.772h-1.854l-1.514-5.598h-.12l-1.507 5.598h-1.833l-2.102-7.772h1.776l1.293 5.804h.12l1.492-5.804h1.684l1.506 5.804h.121l1.286-5.804h1.755zm10.273 7.772h-1.833v-4.007l-3.595-6.245h2.011l2.444 4.384h.12l2.437-4.384h2.011l-3.595 6.245v4.007zm5.783-1.989c.336.445.812.668 1.428.668s1.089-.223 1.421-.668.504-1.083.504-1.897-.168-1.44-.504-1.89-.81-.675-1.421-.675c-.616 0-1.092.225-1.428.675s-.504 1.08-.504 1.89.168 1.447.504 1.897zm1.428 2.145c-1.165 0-2.079-.357-2.742-1.073s-.995-1.709-.995-2.969c0-1.251.334-2.236 1.002-2.956s1.579-1.087 2.735-1.087 2.072.36 2.735 1.08 1.002 1.708 1.002 2.963-.334 2.25-1.002 2.969-1.575 1.073-2.735 1.073zm5.513-.156v-7.772h1.698v1.207h.121c.109-.388.353-.708.732-.959a2.357 2.357 0 0 1 1.321-.376c.317 0 .561.026.732.078v1.634c-.18-.066-.481-.1-.903-.1-.573 0-1.039.166-1.399.498s-.54.76-.54 1.3v4.49h-1.762zm8.007-4.604l2.87-3.168h2.046l-3.097 3.332 3.31 4.44h-2.131l-2.494-3.332-.625.625v2.707h-1.762v-10.778h1.762v6.174h.121z" class="C"/><path d="M51.9 323.333h21.017v1.244H51.9v-1.244zm0 2.488h21.017v1.244H51.9v-1.244zm0 2.485h21.017v1.248H51.9v-1.248zm0 2.489h21.017v1.244H51.9v-1.244zm0 2.488h21.017v1.244H51.9v-1.244zm0 2.485h21.017v1.244H51.9v-1.244zm0 2.488h21.017v1.244H51.9v-1.244z" fill="#bd3d44" class="D"/><path d="M51.9 324.95h21.017v1.176H51.9v-1.176zm0 2.353h21.017v1.173H51.9v-1.173zm0 2.349h21.017v1.176H51.9v-1.176zm0 2.353h21.017v1.176H51.9v-1.176zm0 2.352h21.017v1.177H51.9v-1.177zm0 2.35h21.017v1.176H51.9v-1.176z" fill="#fff" class="D"/><path d="M51.9 323.333h11.64v8.505H51.9v-8.505z" fill="#192f5d" class="D"/><path d="M52.87 323.698l.107.336h.341l-.275.206.105.34-.278-.21-.276.207.105-.337-.278-.206h.347l.102-.336zm1.941 0l.105.336h.344l-.279.206.105.34-.275-.21-.278.207.105-.337-.276-.206h.341l.108-.336zm1.938 0l.108.336h.338l-.275.206.105.34-.279-.21-.275.207.105-.337-.278-.206h.344l.107-.336zm1.942 0l.104.336h.344l-.278.206.108.34-.278-.21-.278.207.107-.337-.278-.206h.341l.108-.336zm1.938 0l.108.336h.34l-.274.206.104.34-.278-.21-.275.207.105-.337-.276-.206h.342l.104-.336zm1.942 0l.104.336h.344l-.278.206.108.34-.278-.21-.279.207.108-.337-.278-.206h.344l.105-.336zm-8.73.851l.105.336h.345l-.279.207.102.336-.27-.207-.277.207.098-.336-.269-.207h.341l.105-.336zm1.94 0l.107.336h.34l-.277.207.107.336-.278-.207-.278.207.108-.336-.279-.207h.344l.105-.336zm1.94 0l.105.336h.344l-.278.207.105.336-.275-.207-.279.207.105-.336-.275-.207h.34l.109-.336zm1.939 0l.108.336h.34l-.277.207.107.336-.278-.207-.275.207.105-.336-.279-.207h.347l.102-.336zm1.941 0l.105.336h.344l-.278.207.105.336-.276-.207-.278.207.105-.336-.275-.207h.34l.108-.336zm-8.731.848l.107.343h.341l-.275.206.105.337-.278-.21-.276.21.105-.34-.278-.206h.347l.102-.34zm1.941 0l.105.34h.344l-.279.206.105.337-.275-.21-.278.21.105-.34-.276-.206h.341l.108-.337zm1.938 0l.108.34h.338l-.275.206.105.337-.279-.21-.275.21.105-.34-.278-.206h.344l.107-.337zm1.942 0l.104.34h.344l-.278.206.108.337-.278-.21-.278.21.107-.34-.278-.206h.341l.108-.337zm1.938 0l.108.34h.34l-.274.206.104.337-.278-.21-.275.21.105-.34-.276-.206h.342l.104-.337zm1.942 0l.104.34h.344l-.278.206.108.337-.278-.21-.279.21.108-.34-.278-.206h.344l.105-.337zm-8.73.852l.105.336h.345l-.279.207.105.339-.275-.21-.278.207.104-.336-.275-.207h.341l.108-.336zm1.94 0l.107.336h.34l-.277.207.107.339-.278-.21-.278.207.108-.336-.279-.207h.344l.105-.336zm1.94 0l.105.336h.344l-.278.207.105.339-.275-.21-.279.207.105-.336-.275-.207h.34l.109-.336zm1.939 0l.108.336h.34l-.274.207.104.339-.278-.21-.275.207.105-.336-.279-.207h.347l.102-.336zm1.941 0l.105.336h.344l-.278.207.105.339-.276-.21-.278.207.105-.336-.275-.207h.34l.108-.336zm-8.731.851l.107.336h.341l-.275.207.105.339-.278-.209-.276.206.105-.336-.278-.207h.347l.102-.336zm1.941 0l.105.336h.344l-.279.207.105.336-.275-.206-.278.206.105-.336-.276-.207h.341l.108-.336zm1.938 0l.108.336h.338l-.275.207.105.339-.279-.209-.275.206.105-.336-.278-.207h.344l.107-.336zm1.942 0l.104.336h.344l-.278.207.108.339-.278-.209-.278.206.107-.336-.278-.207h.341l.108-.336zm1.938 0l.108.336h.34l-.274.207.104.339-.278-.209-.275.206.105-.336-.276-.207h.342l.104-.336zm1.942 0l.104.336h.344l-.278.207.108.339-.278-.209-.279.206.108-.336-.278-.207h.344l.105-.336zm-8.73.852l.105.336h.345l-.279.206.105.337-.275-.21-.278.21.104-.34-.275-.206h.341l.108-.333zm1.94 0l.107.336h.34l-.277.206.107.337-.278-.21-.278.21.108-.34-.279-.206h.344l.105-.333zm1.94 0l.105.336h.344l-.278.206.105.337-.275-.21-.279.21.105-.34-.275-.206h.34l.109-.333zm1.939 0l.108.336h.34l-.274.206.104.337-.278-.21-.275.21.105-.34-.279-.206h.347l.102-.333zm1.941 0l.105.336h.344l-.278.206.105.337-.276-.21-.278.21.105-.34-.275-.206h.34l.108-.333zm-8.731.848l.107.339h.341l-.275.207.105.333-.278-.207-.276.207.105-.336-.278-.207h.347l.102-.336zm1.941 0l.105.339h.344l-.279.207.108.333-.278-.207-.278.207.108-.336-.279-.207h.341l.108-.336zm1.938 0l.108.339h.338l-.275.207.105.333-.279-.207-.275.207.105-.336-.278-.207h.344l.107-.336zm1.942 0l.104.339h.344l-.278.207.108.333-.278-.207-.278.207.107-.336-.278-.207h.341l.108-.336zm1.938 0l.108.339h.34l-.274.207.104.333-.278-.207-.275.207.105-.336-.276-.207h.342l.104-.336zm1.942 0l.104.339h.344l-.278.207.108.333-.278-.207-.279.207.108-.336-.278-.207h.344l.105-.336zm-8.73.851l.105.337h.345l-.279.206.105.34-.275-.21-.278.206.104-.336-.275-.206h.341l.108-.337zm1.94 0l.107.337h.34l-.277.206.107.34-.278-.21-.278.206.108-.336-.279-.206h.344l.105-.337zm1.94 0l.105.337h.344l-.278.206.105.34-.275-.21-.279.206.105-.336-.275-.206h.34l.109-.337zm1.939 0l.108.337h.34l-.274.206.104.34-.278-.21-.275.206.105-.336-.279-.206h.347l.102-.337zm1.941 0l.105.337h.344l-.278.206.105.34-.276-.21-.278.206.105-.336-.275-.206h.34l.108-.337zm-8.731.852l.107.336h.341l-.275.207.105.336-.278-.207-.276.207.105-.339-.278-.207h.347l.102-.333zm1.941 0l.105.336h.344l-.279.207.108.336-.278-.207-.278.207.108-.339-.279-.207h.341l.108-.333zm1.938 0l.108.336h.338l-.27.207.106.336-.279-.207-.275.207.105-.339-.278-.207h.344l.101-.333zm1.942 0l.104.336h.344l-.278.207.108.336-.278-.207-.278.207.107-.339-.278-.207h.341l.108-.333zm1.938 0l.108.336h.34l-.274.207.104.336-.278-.207-.275.207.105-.339-.276-.207h.342l.104-.333zm1.942 0l.104.336h.344l-.278.207.108.336-.278-.207-.279.207.108-.339-.278-.207h.344l.105-.333z" fill="#fff" class="D"/><path d="M179.88 389.108h-.984l-2.94-7.973h1.045l2.343 6.686h.088l2.343-6.686h1.044l-2.939 7.973zm4.337-7.973h3.012c.755 0 1.368.241 1.84.724s.713 1.097.713 1.856c0 .744-.241 1.356-.724 1.835s-1.092.713-1.84.713h-2.006v2.845h-.995v-7.973zm.995.884v3.36h1.757c.568 0 1.008-.146 1.321-.437s.47-.7.47-1.227c0-.549-.155-.969-.465-1.26s-.747-.436-1.326-.436h-1.757zm7.183 7.089h-.983v-7.973h.967l4.327 6.205h.088v-6.205h.984v7.973h-.967l-4.327-6.183h-.089v6.183zm11.604 0h-.994v-7.973h.994v7.973zm2.034-7.973h3.011c.756 0 1.369.241 1.841.724s.712 1.097.712 1.856c0 .744-.241 1.356-.724 1.835s-1.092.713-1.84.713h-2.005v2.845h-.995v-7.973zm.995.884v3.36h1.757c.567 0 1.007-.146 1.32-.437s.47-.7.47-1.227c0-.549-.155-.969-.464-1.26s-.748-.436-1.326-.436h-1.757zm6.863 7.145a.705.705 0 0 1-.719-.719.69.69 0 0 1 .21-.508.705.705 0 0 1 .509-.21c.198 0 .368.07.508.21a.69.69 0 0 1 .21.508c0 .196-.07.365-.21.509s-.31.21-.508.21zm0-4.25a.705.705 0 0 1-.509-.21.703.703 0 0 1-.21-.508.69.69 0 0 1 .21-.508.705.705 0 0 1 .509-.21c.198 0 .368.07.508.21a.69.69 0 0 1 .21.508c0 .195-.07.365-.21.508s-.31.21-.508.21z" class="B"/><path d="M178.333 406.083v-6.537h-.094l-1.984 1.393v-1.371l2.083-1.458h1.42v7.973h-1.425zm6.664.199c-.914 0-1.658-.215-2.233-.646s-.856-.997-.856-1.686c0-.504.156-.941.469-1.309s.732-.614 1.255-.724v-.094a1.837 1.837 0 0 1-1.023-.63 1.752 1.752 0 0 1-.381-1.122c0-.63.26-1.147.779-1.552s1.185-.608 1.995-.608 1.474.202 1.989.608a1.88 1.88 0 0 1 .779 1.552c0 .428-.127.8-.381 1.116a1.81 1.81 0 0 1-1.017.636v.094c.52.096.936.33 1.249.702s.475.81.475 1.326c0 .692-.287 1.256-.862 1.691s-1.317.646-2.237.646zm.005-1.11c.479 0 .868-.124 1.166-.371a1.2 1.2 0 0 0 .453-.972 1.19 1.19 0 0 0-.453-.967c-.298-.251-.687-.376-1.166-.376s-.875.125-1.177.376a1.196 1.196 0 0 0-.447.967 1.21 1.21 0 0 0 .447.972c.302.247.694.371 1.177.371zm-.989-4.106c.254.217.584.326.989.326s.733-.109.984-.326.381-.507.381-.857c0-.357-.127-.646-.381-.867s-.579-.337-.984-.337-.74.112-.995.337-.375.51-.375.867c0 .35.127.636.381.857zm8.51 5.216c-.822 0-1.496-.225-2.023-.674s-.807-1.028-.84-1.735h1.337c.045.365.209.659.492.884s.632.337 1.045.337c.467 0 .845-.144 1.132-.431s.437-.674.437-1.149-.146-.86-.437-1.155-.661-.448-1.121-.448c-.325 0-.614.068-.868.205s-.449.329-.597.58h-1.293l.415-4.586h4.802v1.204h-3.697l-.193 2.238h.093c.369-.497.931-.746 1.686-.746s1.374.251 1.856.752.73 1.142.73 1.923c0 .832-.273 1.508-.818 2.028-.542.515-1.254.773-2.138.773zm5.061-.083a.847.847 0 0 1-.884-.873c0-.254.083-.462.249-.624a.857.857 0 0 1 .635-.249.85.85 0 0 1 .884.873.85.85 0 0 1-.248.625.853.853 0 0 1-.636.248zm2.465-5.758c0-.744.257-1.351.773-1.823s1.188-.707 2.006-.707c.788 0 1.437.215 1.945.646s.768.98.768 1.647c0 .427-.129.851-.387 1.271s-.725.959-1.403 1.63l-1.669 1.674v.094h3.581v1.21h-5.537v-.989l2.658-2.719c.545-.552.908-.967 1.088-1.243s.271-.56.271-.84c0-.35-.129-.639-.387-.867s-.578-.343-.972-.343c-.416 0-.754.125-1.011.376s-.387.578-.387.983v.023h-1.337v-.023zm9.128 5.642v-6.537h-.094l-1.984 1.393v-1.371l2.084-1.458h1.42v7.973h-1.426zm7.388 0v-1.486h-3.896v-1.271c.649-1.194 1.732-2.932 3.249-5.216h2.012v5.282h1.077v1.205h-1.077v1.486h-1.365zm-2.575-2.741v.083h2.597v-4.155h-.077a61.525 61.525 0 0 0-2.52 4.072zm7.255 2.857a.847.847 0 0 1-.884-.873c0-.254.083-.462.249-.624a.859.859 0 0 1 .635-.249.849.849 0 0 1 .884.873.85.85 0 0 1-.248.625.852.852 0 0 1-.636.248zm4.194-3.652v-1.105h.973c.405 0 .735-.111.989-.332a1.11 1.11 0 0 0 .381-.873c0-.354-.125-.635-.376-.845s-.578-.321-.994-.321-.748.109-1.006.326-.394.514-.42.89h-1.332c.037-.733.306-1.312.807-1.735s1.166-.641 1.995-.641c.774 0 1.416.202 1.928.608s.774.908.774 1.519c0 .468-.131.868-.392 1.199a1.727 1.727 0 0 1-1.05.636v.094c.545.062.974.267 1.287.613s.476.785.476 1.315c0 .685-.288 1.254-.862 1.708s-1.29.679-2.155.679c-.859 0-1.559-.219-2.1-.657s-.825-1.023-.862-1.752h1.365a1.18 1.18 0 0 0 .48.884c.291.217.667.326 1.128.326s.828-.118 1.116-.354a1.14 1.14 0 0 0 .436-.922c0-.391-.142-.698-.425-.923s-.671-.337-1.161-.337h-1zm5.924 3.536l3.464-6.686v-.088h-4.111v-1.199h5.548v1.215l-3.409 6.758h-1.492zm9.034.194c-.729 0-1.35-.197-1.862-.592a2.487 2.487 0 0 1-.945-1.58h1.42c.093.302.262.542.509.718s.547.26.889.26c.582 0 1.037-.256 1.365-.768s.492-1.23.492-2.144h-.094a2.057 2.057 0 0 1-.823.884c-.361.206-.776.31-1.243.31-.759 0-1.387-.251-1.885-.752s-.74-1.135-.74-1.901c0-.818.276-1.488.829-2.011s1.267-.79 2.133-.79c.582 0 1.097.134 1.547.403s.808.659 1.077 1.172c.376.666.564 1.506.564 2.519 0 1.341-.286 2.389-.857 3.144s-1.363 1.128-2.376 1.128zm-1.077-4.482c.295.291.67.437 1.127.437s.834-.146 1.133-.437.447-.659.447-1.105a1.55 1.55 0 0 0-.453-1.133 1.516 1.516 0 0 0-1.121-.458c-.446 0-.82.151-1.122.453s-.453.67-.453 1.116c0 .457.147.833.442 1.127zm6.338 4.404a.864.864 0 0 1-.636-.248.85.85 0 0 1-.248-.625c0-.254.083-.462.248-.624a.861.861 0 0 1 .636-.249.848.848 0 0 1 .884.873.847.847 0 0 1-.884.873zm5.249.078c-.585 0-1.103-.135-1.552-.404s-.807-.659-1.072-1.171c-.376-.663-.564-1.503-.564-2.52 0-1.341.284-2.387.851-3.139s1.365-1.132 2.381-1.132c.726 0 1.345.199 1.857.596s.833.92.951 1.575h-1.426a1.272 1.272 0 0 0-.508-.712 1.48 1.48 0 0 0-.885-.266c-.582 0-1.037.258-1.364.774s-.492 1.225-.492 2.138h.094a2.02 2.02 0 0 1 .823-.878c.361-.21.776-.315 1.243-.315.759 0 1.385.25 1.879.751s.746 1.135.746 1.901c0 .822-.278 1.494-.834 2.017s-1.262.785-2.128.785zm-.016-1.188a1.542 1.542 0 0 0 1.58-1.57c0-.456-.147-.83-.442-1.121s-.67-.442-1.127-.442-.835.145-1.133.436-.448.659-.448 1.105c0 .453.15.833.448 1.139s.676.453 1.122.453zm8.211.994v-1.486h-3.896v-1.271c.649-1.194 1.732-2.932 3.249-5.216h2.012v5.282h1.077v1.205h-1.077v1.486h-1.365zm-2.575-2.741v.083h2.597v-4.155h-.077a61.525 61.525 0 0 0-2.52 4.072z" class="C"/><path d="M34.511 389.109h-.994v-7.974h.994v7.974zm2.034-7.974h3.011c.756 0 1.369.241 1.84.724s.713 1.098.713 1.857c0 .744-.241 1.355-.724 1.834s-1.092.713-1.84.713H37.54v2.846h-.994v-7.974zm.994.884v3.36h1.758c.567 0 1.007-.146 1.32-.437s.47-.7.47-1.226c0-.549-.155-.969-.464-1.26s-.748-.437-1.326-.437h-1.758zm6.863 7.145a.704.704 0 0 1-.718-.718c0-.199.07-.369.21-.509a.704.704 0 0 1 .508-.21.69.69 0 0 1 .509.21c.14.14.21.31.21.509s-.07.364-.21.508-.31.21-.509.21zm0-4.249a.704.704 0 0 1-.508-.21.705.705 0 0 1-.21-.509.69.69 0 0 1 .21-.508.704.704 0 0 1 .508-.21.69.69 0 0 1 .719.718c0 .196-.07.365-.21.509s-.31.21-.509.21z" class="B"/><path d="M35.257 406.083v-6.537h-.094l-1.983 1.393v-1.371l2.083-1.458h1.42v7.973h-1.426zm6.477.194c-.73 0-1.35-.197-1.863-.592a2.486 2.486 0 0 1-.945-1.58h1.42c.093.302.262.542.509.718s.547.26.89.26c.582 0 1.037-.256 1.364-.768s.492-1.23.492-2.144h-.094a2.056 2.056 0 0 1-.823.884c-.361.206-.776.31-1.243.31-.76 0-1.387-.251-1.885-.752s-.74-1.135-.74-1.901c0-.818.276-1.488.829-2.011s1.267-.79 2.133-.79c.582 0 1.098.134 1.547.403s.808.659 1.077 1.172c.376.666.564 1.506.564 2.519 0 1.341-.285 2.389-.857 3.144s-1.363 1.128-2.376 1.128zm-1.078-4.482c.295.291.67.437 1.127.437s.835-.146 1.133-.437.448-.659.448-1.105a1.55 1.55 0 0 0-.454-1.133 1.516 1.516 0 0 0-1.121-.458c-.446 0-.82.151-1.122.453s-.453.67-.453 1.116c0 .457.147.833.442 1.127zm5.763-1.354c0-.744.258-1.351.774-1.823s1.188-.707 2.006-.707c.788 0 1.436.215 1.945.646s.768.98.768 1.647c0 .427-.13.851-.387 1.271s-.726.959-1.404 1.63l-1.668 1.674v.094h3.58v1.21h-5.536v-.989l2.657-2.719c.546-.552.909-.967 1.09-1.243s.27-.56.27-.84a1.11 1.11 0 0 0-.387-.867c-.254-.229-.578-.343-.973-.343-.416 0-.753.125-1.01.376s-.387.578-.387.983v.023h-1.338v-.023zm8.123 5.758a.848.848 0 0 1-.884-.873c0-.254.083-.462.249-.624a.86.86 0 0 1 .635-.249.848.848 0 0 1 .884.873.848.848 0 0 1-.884.873zm4.111-.116v-6.537h-.094l-1.983 1.393v-1.371l2.083-1.458h1.42v7.973h-1.426zm6.565.199c-.822 0-1.496-.225-2.023-.674s-.806-1.028-.84-1.735h1.338a1.28 1.28 0 0 0 .492.884c.283.225.631.337 1.044.337.468 0 .845-.144 1.133-.431s.436-.674.436-1.149-.145-.86-.436-1.155-.662-.448-1.122-.448a1.8 1.8 0 0 0-.868.205c-.25.136-.45.329-.596.58h-1.294l.415-4.586h4.802v1.204h-3.697l-.193 2.238h.094c.368-.497.93-.746 1.685-.746s1.374.251 1.857.752.729 1.142.729 1.923c0 .832-.273 1.508-.818 2.028-.541.515-1.254.773-2.138.773zm7.504-.005c-.586 0-1.104-.135-1.553-.404s-.807-.659-1.072-1.171c-.376-.663-.564-1.503-.564-2.52 0-1.341.284-2.387.851-3.139s1.365-1.132 2.382-1.132c.726 0 1.344.199 1.856.596s.833.92.951 1.575h-1.426a1.272 1.272 0 0 0-.508-.712 1.478 1.478 0 0 0-.884-.266c-.582 0-1.037.258-1.365.774s-.492 1.225-.492 2.138h.094a2.02 2.02 0 0 1 .823-.878c.362-.21.776-.315 1.244-.315.759 0 1.385.25 1.879.751s.745 1.135.745 1.901c0 .822-.278 1.494-.834 2.017s-1.262.785-2.127.785zm-.017-1.188a1.542 1.542 0 0 0 1.58-1.57c0-.456-.147-.83-.442-1.121s-.67-.442-1.127-.442-.834.145-1.133.436-.447.659-.447 1.105c0 .453.149.833.447 1.139s.676.453 1.122.453zm5.122 1.11a.848.848 0 0 1-.884-.873c0-.254.083-.462.249-.624a.86.86 0 0 1 .635-.249.848.848 0 0 1 .885.873.848.848 0 0 1-.885.873zm6.162-.116v-1.486h-3.896v-1.271c.648-1.194 1.731-2.932 3.25-5.216h2.01v5.282h1.078v1.205h-1.078v1.486H83.99zm-2.575-2.741v.083h2.597v-4.155h-.078a61.44 61.44 0 0 0-2.52 4.072zm9.366 2.94c-.822 0-1.496-.225-2.023-.674s-.806-1.028-.84-1.735h1.338a1.28 1.28 0 0 0 .491.884c.284.225.632.337 1.045.337.468 0 .845-.144 1.133-.431s.436-.674.436-1.149-.145-.86-.436-1.155-.662-.448-1.122-.448a1.8 1.8 0 0 0-.868.205c-.25.136-.45.329-.596.58h-1.293l.414-4.586h4.802v1.204h-3.697l-.193 2.238h.094c.368-.497.93-.746 1.685-.746s1.374.251 1.857.752.729 1.142.729 1.923c0 .832-.273 1.508-.818 2.028-.541.515-1.254.773-2.138.773zm4.802-.199l3.464-6.686v-.088h-4.11v-1.199h5.547v1.215l-3.41 6.758h-1.491zm6.006.116a.847.847 0 0 1-.884-.873c0-.254.083-.462.249-.624a.857.857 0 0 1 .635-.249c.262 0 .473.083.635.249s.249.37.249.624a.847.847 0 0 1-.884.873zm2.465-5.758c0-.744.257-1.351.773-1.823s1.188-.707 2.006-.707c.788 0 1.437.215 1.945.646s.768.98.768 1.647c0 .427-.129.851-.387 1.271s-.725.959-1.403 1.63l-1.669 1.674v.094h3.581v1.21h-5.537v-.989l2.658-2.719c.545-.552.908-.967 1.088-1.243s.271-.56.271-.84c0-.35-.129-.639-.387-.867s-.578-.343-.972-.343c-.417 0-.754.125-1.011.376s-.387.578-.387.983v.023h-1.337v-.023zm9.128 5.642v-6.537h-.094l-1.984 1.393v-1.371l2.084-1.458h1.42v7.973h-1.426zM52.07 450.35v-6.378h-.081l-1.883 1.365v-.975l1.97-1.416h.919v7.404h-.924zm5.624.175c-.834 0-1.48-.339-1.939-1.016s-.688-1.632-.688-2.864c0-1.221.231-2.172.693-2.852s1.107-1.021 1.934-1.021 1.466.342 1.925 1.026.692 1.638.692 2.863-.229 2.179-.687 2.853a2.19 2.19 0 0 1-1.93 1.011zm-1.262-1.601c.294.53.715.795 1.262.795s.965-.263 1.252-.79.437-1.292.437-2.284c0-.981-.148-1.737-.442-2.267s-.706-.796-1.247-.796-.959.267-1.257.801-.44 1.284-.44 2.262c0 .989.145 1.748.435 2.279zm14.69-1.437c0 .913-.287 1.649-.862 2.206s-1.335.832-2.283.832c-1.023 0-1.839-.351-2.447-1.052s-.909-1.644-.909-2.828c0-1.169.306-2.107.919-2.811s1.425-1.062 2.437-1.062c.821 0 1.509.213 2.063.641s.903 1.007 1.036 1.739h-.939c-.16-.499-.424-.879-.79-1.139s-.823-.39-1.37-.39c-.732 0-1.317.274-1.755.821s-.651 1.281-.651 2.201c0 .934.215 1.673.646 2.217s1.023.811 1.765.811c.664 0 1.2-.193 1.606-.58s.616-.893.616-1.519v-.179H68.12v-.811h3.001v.903zm4.526 2.863h-2.889v-7.404h2.832c.678 0 1.211.166 1.601.498s.59.781.59 1.349c0 .383-.124.729-.374 1.037a1.472 1.472 0 0 1-.903.559v.082c.506.065.908.26 1.206.585s.446.727.446 1.216c0 .653-.222 1.163-.667 1.529s-1.055.549-1.842.549zm-1.965-6.588v2.376h1.477c1.126 0 1.689-.396 1.689-1.186 0-.376-.129-.668-.385-.877s-.61-.313-1.067-.313h-1.714zm0 5.772h1.826c.558 0 .98-.111 1.268-.333s.43-.548.43-.975c0-.862-.594-1.293-1.785-1.293h-1.74v2.601z" class="C"/><path d="M43.574 447.251l-1.132-1.132-3.476 3.476v-9.862H37.35v9.862l-3.476-3.476-1.132 1.132 5.416 5.416 5.416-5.416z" class="B"/><path d="M146.204 445.029c0-.657.222-1.197.667-1.621s1.016-.636 1.703-.636c.664 0 1.22.2 1.668.6s.677.889.677 1.478c0 .386-.109.766-.328 1.139s-.631.884-1.237 1.534l-1.78 1.914v.082h3.468v.831h-4.792v-.636l2.56-2.797c.476-.516.792-.909.95-1.18a1.67 1.67 0 0 0 .236-.851c0-.37-.141-.679-.421-.929a1.465 1.465 0 0 0-1.026-.38c-.435 0-.785.134-1.052.4s-.4.618-.4 1.052v.005h-.893v-.005zm6.706 5.321l3.325-6.506v-.072h-3.961v-.826h4.9v.857l-3.294 6.547h-.97zm9.631 0h-.862v-7.404h1.072l2.535 6.126h.082l2.535-6.126h1.072v7.404h-.862v-5.654h-.061l-2.335 5.603h-.78l-2.335-5.603h-.061v5.654zm11.211 0h-2.889v-7.404h2.833c.677 0 1.211.166 1.601.498s.59.781.59 1.349c0 .383-.125.729-.375 1.037a1.47 1.47 0 0 1-.903.559v.082c.506.065.908.26 1.206.585s.446.727.446 1.216c0 .653-.222 1.163-.667 1.529s-1.055.549-1.842.549zm-1.965-6.588v2.376h1.478c1.125 0 1.688-.396 1.688-1.186 0-.376-.128-.668-.385-.877s-.609-.313-1.067-.313h-1.714zm0 5.772h1.827c.557 0 .98-.111 1.267-.333s.431-.548.431-.975c0-.862-.595-1.293-1.786-1.293h-1.739v2.601z" class="C"/><path d="M139.523 445.149l-1.132 1.132-3.475-3.476v9.862h-1.617v-9.862l-3.476 3.476-1.132-1.132 5.416-5.416 5.416 5.416z" class="B"/><path d="M245.173 450.525c-.835 0-1.481-.339-1.939-1.016s-.688-1.632-.688-2.864c0-1.221.231-2.172.693-2.852s1.106-1.021 1.934-1.021 1.466.342 1.924 1.026.693 1.638.693 2.863-.229 2.179-.688 2.853a2.19 2.19 0 0 1-1.929 1.011zm-1.262-1.601c.294.53.715.795 1.262.795s.965-.263 1.252-.79.436-1.292.436-2.284c0-.981-.147-1.737-.441-2.267s-.706-.796-1.247-.796-.959.267-1.257.801-.441 1.284-.441 2.262c0 .989.145 1.748.436 2.279zm7.835 1.601c-.701 0-1.281-.197-1.74-.591a2.15 2.15 0 0 1-.749-1.554h.909c.041.4.206.723.497.97s.659.364 1.093.364c.496 0 .895-.156 1.196-.467s.456-.72.456-1.226-.152-.917-.456-1.232-.695-.477-1.18-.477c-.336 0-.637.074-.904.221a1.563 1.563 0 0 0-.626.61h-.867l.406-4.197h4.13v.826h-3.407l-.21 2.376h.082c.359-.421.881-.631 1.565-.631.705 0 1.279.231 1.724.692s.667 1.057.667 1.786c0 .753-.24 1.363-.718 1.832s-1.102.698-1.868.698zm4.797-1.022a.658.658 0 0 1-.472-.194.656.656 0 0 1-.195-.473c0-.184.065-.342.195-.472a.655.655 0 0 1 .472-.195.64.64 0 0 1 .472.195c.13.13.195.288.195.472a.656.656 0 0 1-.195.473.645.645 0 0 1-.472.194zm0-3.945a.655.655 0 0 1-.667-.667.64.64 0 0 1 .195-.472.655.655 0 0 1 .472-.195.64.64 0 0 1 .667.667.655.655 0 0 1-.195.472.642.642 0 0 1-.472.195zm5.003 4.967c-.701 0-1.281-.197-1.739-.591s-.708-.915-.749-1.554h.908c.041.4.207.723.497.97s.659.364 1.093.364c.496 0 .895-.156 1.196-.467s.457-.72.457-1.226-.153-.917-.457-1.232-.694-.477-1.18-.477a1.84 1.84 0 0 0-.903.221 1.55 1.55 0 0 0-.626.61h-.867l.405-4.197h4.13v.826h-3.407l-.21 2.376h.082c.359-.421.881-.631 1.565-.631.705 0 1.279.231 1.724.692s.667 1.057.667 1.786c0 .753-.239 1.363-.718 1.832s-1.102.698-1.868.698zm7.445-.175v-1.534h-3.607v-.842c.677-1.204 1.734-2.88 3.171-5.028h1.339v5.044h1.052v.826h-1.052v1.534h-.903zm-2.663-2.417v.062h2.668v-4.192h-.061a70.65 70.65 0 0 0-2.607 4.13z" class="C"/><path d="M230.542 439.733a6.49 6.49 0 0 0-6.467 6.467 6.49 6.49 0 0 0 6.467 6.467 6.49 6.49 0 0 0 6.467-6.467 6.49 6.49 0 0 0-6.467-6.467zm0 11.317a4.864 4.864 0 0 1-4.85-4.85 4.864 4.864 0 0 1 4.85-4.85 4.865 4.865 0 0 1 4.85 4.85 4.864 4.864 0 0 1-4.85 4.85zm.808-8.083h-1.617v4.041h4.042v-1.616h-2.425v-2.425z" class="B"/><path fill="#e8e6e0" d="M32.5 422.758h234.417v.808H32.5z"/><path d="M.167 17.783H299.25v109.125c0 17.858-14.476 32.334-32.333 32.334H32.5c-17.857 0-32.333-14.476-32.333-32.334V17.783z" class="F"/><path d="M279.851 46.075a1.617 1.617 0 10-3.234 0 1.617 1.617 0 003.234 0zm0 7.275a1.617 1.617 0 10-3.234 0 1.617 1.617 0 003.234 0zm0-14.55a1.617 1.617 0 10-3.234 0 1.617 1.617 0 003.234 0z" fill="#fff"/><circle cx="150.112" cy="159.646" r="63.454" class="F"/><circle cx="150.112" cy="159.646" r="57.796" class="E"/><path d="M150.664 134.816a25.381 25.381 0 1025.382 25.382 25.413 25.413 0 00-25.382-25.382zm-1.104 9.932a1.103 1.103 0 012.207 0v13.242a1.104 1.104 0 11-2.207 0v-13.242zm1.104 29.796a14.35 14.35 0 01-13.401-9.227 14.344 14.344 0 013.836-15.812 1.108 1.108 0 011.22-.18 1.102 1.102 0 01.515 1.48 1.12 1.12 0 01-.262.345 12.135 12.135 0 001.236 19.065 12.138 12.138 0 0018.22-5.749 12.14 12.14 0 00-3.338-13.376 1.1 1.1 0 01-.391-.763 1.116 1.116 0 01.273-.812 1.1 1.1 0 011.204-.308c.138.05.265.128.373.228a14.35 14.35 0 013.935 15.832 14.346 14.346 0 01-13.42 9.277z" class="F"/><path d="M111.313 70.619c-1.293 0-2.314-.427-3.063-1.282s-1.124-2.025-1.124-3.499c0-1.481.372-2.65 1.118-3.504s1.77-1.282 3.062-1.282c1.036 0 1.914.305 2.634.915a3.39 3.39 0 0 1 1.225 2.337h-1.604c-.114-.547-.375-.983-.783-1.307s-.899-.493-1.472-.493c-.774 0-1.387.299-1.837.897s-.676 1.404-.676 2.431.225 1.84.676 2.438 1.065.897 1.844.897c.577 0 1.069-.15 1.477-.449s.668-.71.777-1.219h1.604c-.109.935-.518 1.689-1.225 2.261s-1.585.859-2.633.859zm9.605-9.567c1.322 0 2.368.429 3.139 1.288s1.162 2.023 1.162 3.492-.386 2.636-1.156 3.499-1.819 1.288-3.145 1.288c-1.335 0-2.389-.43-3.164-1.288-.77-.86-1.155-2.025-1.155-3.499s.387-2.633 1.161-3.492 1.832-1.288 3.158-1.288zm0 1.446c-.813 0-1.459.3-1.939.903s-.713 1.412-.713 2.431.235 1.836.707 2.438 1.124.903 1.945.903c.808 0 1.448-.301 1.92-.903s.713-1.42.713-2.438-.237-1.83-.713-2.431-1.112-.903-1.92-.903zm7.742 7.894h-1.572v-9.113h1.414l4.472 6.195h.107v-6.195h1.566v9.113h-1.408l-4.471-6.202h-.108v6.202zm9.814 0h-1.572v-9.113h1.414l4.471 6.195h.108v-6.195h1.566v9.113h-1.409l-4.471-6.202h-.107v6.202zm14.14-1.409v1.409h-5.899v-9.113h5.899v1.408h-4.269v2.419h4.035v1.326h-4.035v2.551h4.269zm5.822 1.636c-1.292 0-2.313-.427-3.063-1.282s-1.124-2.025-1.124-3.499c0-1.481.373-2.65 1.118-3.504s1.77-1.282 3.063-1.282c1.035 0 1.913.305 2.633.915a3.39 3.39 0 0 1 1.225 2.337h-1.604c-.113-.547-.374-.983-.783-1.307s-.899-.493-1.471-.493c-.775 0-1.387.299-1.838.897s-.676 1.404-.676 2.431.226 1.84.676 2.438 1.065.897 1.844.897c.577 0 1.069-.15 1.478-.449a1.99 1.99 0 0 0 .777-1.219h1.604c-.11.935-.518 1.689-1.226 2.261s-1.585.859-2.633.859zm9.327-.227h-1.629v-7.705h-2.804V61.28h7.244v1.408h-2.811v7.705zm10.414-1.409v1.409h-5.898v-9.113h5.898v1.408h-4.269v2.419h4.035v1.326h-4.035v2.551h4.269zm2.021-7.704h3.416c1.356 0 2.409.396 3.158 1.187s1.13 1.897 1.13 3.328c0 1.461-.374 2.594-1.124 3.398s-1.8 1.2-3.164 1.2h-3.416v-9.113zm1.629 1.408v6.296h1.573c.909 0 1.61-.273 2.103-.82s.738-1.329.738-2.343c0-.994-.25-1.765-.751-2.312s-1.194-.82-2.09-.82h-1.573zm8.128-1.414h1.749l-.145 6.106H190.1l-.145-6.106zm-.171 8.279c0-.308.095-.552.284-.733s.445-.278.765-.278.574.093.764.278.284.425.284.733c0 .303-.095.547-.284.732s-.444.272-.764.272-.575-.09-.765-.272-.284-.43-.284-.732z" fill="#fff"/><g filter="url(#C)"><path d="M.167 4.042A4.042 4.042 0 014.209 0h291a4.041 4.041 0 014.041 4.042v13.741H.167V4.042z" fill="url(#B)"/></g><path d="M136.653 6.183l-1.585 5.434h-1.088l-1.996-7.404h1.196l1.359 5.67h.072l1.545-5.67h1.067l1.554 5.67h.072l1.355-5.67h1.195l-2.001 7.404h-1.082l-1.591-5.434h-.072zm8.486 1.072c-.247-.263-.573-.395-.98-.395s-.743.132-1.006.395-.411.614-.441 1.052h2.822c-.014-.441-.146-.792-.395-1.052zm.39 2.853h1.062a1.958 1.958 0 0 1-.832 1.185c-.424.288-.954.432-1.59.432-.801 0-1.432-.257-1.894-.77s-.687-1.221-.687-2.114.233-1.603.698-2.13 1.091-.79 1.878-.79c.776 0 1.385.25 1.826.75s.667 1.188.667 2.067v.385h-3.945v.062c.017.492.159.882.425 1.17s.621.43 1.063.43c.673 0 1.116-.225 1.329-.677zm5.124 1.509h-1.262l-2.648-7.404h1.252l1.996 5.967h.087l1.986-5.967h1.221l-2.632 7.404zm3.683-7.404h2.899c.725 0 1.313.229 1.765.687s.677 1.049.677 1.78c0 .722-.231 1.31-.692 1.766s-1.057.677-1.786.677h-1.714v2.494h-1.149V4.213zm1.149 1.016v2.883h1.447c.496 0 .881-.123 1.155-.37s.415-.603.415-1.061c0-.469-.135-.828-.405-1.078s-.659-.374-1.165-.374h-1.447zm6.551 6.388h-1.118V4.213h1.036l3.802 5.259h.082v-5.26h1.119v7.405h-1.037l-3.802-5.26h-.082v5.26z" fill="#423f42"/><use xlink:href="#D" fill="#ff5f58" stroke="#e1483f" class="G"/><use xlink:href="#D" x="16.167" fill="#ffbe2f" stroke="#e0a028" class="G"/><use xlink:href="#D" x="32.333" fill="#d9d9d9" stroke="#969696" class="G"/></g><defs><linearGradient id="B" x1=".167" y1="0" x2=".167" y2="17.783" gradientUnits="userSpaceOnUse"><stop stop-color="#e7e6e7"/><stop offset="1" stop-color="#d1d0d1"/></linearGradient><filter id="C" x=".167" y="-.404" width="299.083" height="18.592" filterUnits="userSpaceOnUse" color-interpolation-filters="sRGB"><feFlood flood-opacity="0"/><feBlend in="SourceGraphic" result="B"/><feColorMatrix in="SourceAlpha" values="0 0 0 0 0 0 0 0 0 0 0 0 0 0 0 0 0 0 127 0" result="C"/><feOffset dy="-.404"/><feGaussianBlur stdDeviation=".202"/><feComposite in2="C" operator="arithmetic" k2="-1" k3="1"/><feColorMatrix values="0 0 0 0 0 0 0 0 0 0 0 0 0 0 0 0 0 0 0.2 0"/><feBlend in2="B" result="D"/><feColorMatrix in="SourceAlpha" values="0 0 0 0 0 0 0 0 0 0 0 0 0 0 0 0 0 0 127 0" result="C"/><feOffset dy=".404"/><feGaussianBlur stdDeviation=".202"/><feComposite in2="C" operator="arithmetic" k2="-1" k3="1"/><feColorMatrix values="0 0 0 0 1 0 0 0 0 1 0 0 0 0 1 0 0 0 0.6 0"/><feBlend in2="D"/></filter><path id="D" d="M16.132 8.892a4.648 4.648 0 11-9.296 0 4.648 4.648 0 019.296 0z"/></defs></svg>