<svg xmlns="http://www.w3.org/2000/svg" width="300" height="485" fill="none" xmlns:v="https://vecta.io/nano"><style><![CDATA[.B{fill:#5b5863}.C{fill:#afadb2}.D{fill:#fff}.E{fill-rule:evenodd}.F{fill:#f9f8f4}.G{stroke-width:.404}.H{color-interpolation-filters:sRGB}]]></style><mask id="A" maskUnits="userSpaceOnUse" x="0" y="0" width="300" height="485"><rect x=".083" width="299.083" height="485" rx="8.083" class="F"/></mask><g mask="url(#A)"><path d="M.083 29.1h299.083V485H.083z" class="F"/><path d="M.083 381.533h299.083V485H.083z" class="F"/><path d="M179.796 389.108h-.984l-2.94-7.973h1.045l2.343 6.686h.088l2.343-6.686h1.044l-2.939 7.973zm4.337-7.973h3.012c.755 0 1.368.241 1.84.724s.713 1.097.713 1.856c0 .744-.241 1.356-.724 1.835s-1.092.713-1.84.713h-2.006v2.845h-.995v-7.973zm.995.884v3.36h1.757c.568 0 1.008-.146 1.321-.437s.47-.7.47-1.227c0-.549-.155-.969-.465-1.26s-.747-.436-1.326-.436h-1.757zm7.183 7.089h-.983v-7.973h.967l4.327 6.205h.088v-6.205h.984v7.973h-.967l-4.327-6.183h-.089v6.183zm11.604 0h-.994v-7.973h.994v7.973zm2.034-7.973h3.011c.756 0 1.369.241 1.841.724s.712 1.097.712 1.856c0 .744-.241 1.356-.724 1.835s-1.092.713-1.84.713h-2.005v2.845h-.995v-7.973zm.995.884v3.36h1.757c.567 0 1.007-.146 1.32-.437s.47-.7.47-1.227c0-.549-.155-.969-.464-1.26s-.748-.436-1.326-.436h-1.757zm6.863 7.145a.705.705 0 0 1-.719-.719.69.69 0 0 1 .21-.508.705.705 0 0 1 .509-.21c.198 0 .368.07.508.21a.69.69 0 0 1 .21.508c0 .196-.07.365-.21.509s-.31.21-.508.21zm0-4.25a.705.705 0 0 1-.509-.21.703.703 0 0 1-.21-.508.69.69 0 0 1 .21-.508.705.705 0 0 1 .509-.21c.198 0 .368.07.508.21a.69.69 0 0 1 .21.508c0 .195-.07.365-.21.508s-.31.21-.508.21z" class="C"/><path d="M180.022 403.514h-3.63v-1.288h3.63v1.288zm5.438 0h-3.631v-1.288h3.631v1.288z" class="B"/><path d="M34.427 389.108h-.994v-7.973h.994v7.973zm2.034-7.973h3.011c.755 0 1.369.241 1.84.724s.713 1.097.713 1.856c0 .744-.241 1.356-.724 1.835s-1.092.713-1.84.713h-2.005v2.845h-.995v-7.973zm.995.884v3.36h1.757c.567 0 1.007-.146 1.32-.437s.47-.7.47-1.227c0-.549-.155-.969-.464-1.26s-.748-.436-1.326-.436h-1.758zm6.862 7.145a.705.705 0 0 1-.718-.719.69.69 0 0 1 .21-.508.705.705 0 0 1 .508-.21.69.69 0 0 1 .719.718c0 .196-.07.365-.21.509s-.31.21-.509.21zm0-4.25a.705.705 0 0 1-.508-.21.703.703 0 0 1-.21-.508.69.69 0 0 1 .21-.508.705.705 0 0 1 .508-.21.69.69 0 0 1 .719.718c0 .195-.07.365-.21.508s-.31.21-.509.21z" class="C"/><path d="M36.947 403.514h-3.63v-1.288h3.63v1.288zm5.437 0h-3.63v-1.288h3.63v1.288zm10.321 47.011a2.21 2.21 0 0 1-1.94-1.016c-.458-.678-.687-1.632-.687-2.864 0-1.221.231-2.172.693-2.852s1.106-1.021 1.934-1.021 1.466.342 1.924 1.026.693 1.638.693 2.863-.23 2.179-.688 2.853a2.19 2.19 0 0 1-1.929 1.011zm-1.262-1.601c.294.53.715.795 1.262.795s.965-.263 1.252-.79.436-1.292.436-2.284c0-.981-.147-1.737-.44-2.267s-.707-.796-1.248-.796-.96.267-1.257.801-.441 1.284-.441 2.262c0 .989.145 1.748.436 2.279zm9.4 1.426h-.924v-7.404h.924v3.597h.082l3.243-3.597h1.16l-2.961 3.197 3.233 4.207h-1.196l-2.673-3.566-.888.98v2.586zm8.892 0h-2.889v-7.404h2.833c.677 0 1.21.166 1.6.498s.59.781.59 1.349c0 .383-.124.729-.374 1.037a1.472 1.472 0 0 1-.903.559v.082c.506.065.908.26 1.206.585s.446.727.446 1.216c0 .653-.222 1.163-.667 1.529s-1.055.549-1.842.549zm-1.965-6.588v2.376h1.478c1.125 0 1.688-.396 1.688-1.186 0-.376-.129-.668-.385-.877s-.609-.313-1.067-.313H67.77zm0 5.772h1.827c.557 0 .98-.111 1.267-.333s.431-.548.431-.975c0-.862-.595-1.293-1.786-1.293h-1.74v2.601z" class="B"/><path d="M43.49 447.251l-1.132-1.132-3.476 3.476v-9.862h-1.616v9.862l-3.476-3.476-1.132 1.132 5.416 5.416 5.416-5.416z" class="C"/><path d="M148.655 450.525c-.834 0-1.481-.339-1.939-1.016s-.688-1.632-.688-2.864c0-1.221.231-2.172.693-2.852s1.107-1.021 1.934-1.021 1.466.342 1.925 1.026.692 1.638.692 2.863-.229 2.179-.687 2.853a2.19 2.19 0 0 1-1.93 1.011zm-1.262-1.601c.294.53.715.795 1.262.795s.965-.263 1.252-.79.437-1.292.437-2.284c0-.981-.148-1.737-.442-2.267s-.706-.796-1.247-.796-.959.267-1.257.801-.441 1.284-.441 2.262c0 .989.145 1.748.436 2.279zm9.4 1.426h-.923v-7.404h.923v3.597h.082l3.243-3.597h1.16l-2.961 3.197 3.233 4.207h-1.196l-2.673-3.566-.888.98v2.586zm8.892 0h-2.888v-7.404h2.832c.677 0 1.211.166 1.601.498s.59.781.59 1.349c0 .383-.125.729-.375 1.037a1.47 1.47 0 0 1-.903.559v.082c.506.065.908.26 1.206.585s.446.727.446 1.216c0 .653-.222 1.163-.667 1.529s-1.055.549-1.842.549zm-1.965-6.588v2.376h1.478c1.125 0 1.688-.396 1.688-1.186 0-.376-.128-.668-.385-.877s-.609-.313-1.067-.313h-1.714zm0 5.772h1.827c.557 0 .98-.111 1.267-.333s.431-.548.431-.975c0-.862-.595-1.293-1.785-1.293h-1.74v2.601z" class="B"/><path d="M139.44 445.149l-1.132 1.132-3.475-3.476v9.862h-1.617v-9.862l-3.476 3.476-1.132-1.132 5.416-5.416 5.416 5.416z" class="C"/><path d="M245.089 450.525c-.835 0-1.481-.339-1.939-1.016s-.688-1.632-.688-2.864c0-1.221.231-2.172.693-2.852s1.106-1.021 1.934-1.021 1.466.342 1.924 1.026.693 1.638.693 2.863-.229 2.179-.688 2.853a2.19 2.19 0 0 1-1.929 1.011zm-1.262-1.601c.294.53.715.795 1.262.795s.965-.263 1.252-.79.436-1.292.436-2.284c0-.981-.147-1.737-.441-2.267s-.706-.796-1.247-.796-.959.267-1.257.801-.441 1.284-.441 2.262c0 .989.145 1.748.436 2.279zm7.881 1.601c-.835 0-1.481-.339-1.939-1.016s-.688-1.632-.688-2.864c0-1.221.231-2.172.693-2.852s1.106-1.021 1.934-1.021 1.466.342 1.924 1.026.693 1.638.693 2.863-.229 2.179-.688 2.853a2.19 2.19 0 0 1-1.929 1.011zm-1.262-1.601c.294.53.715.795 1.262.795s.965-.263 1.252-.79.436-1.292.436-2.284c0-.981-.147-1.737-.441-2.267s-.706-.796-1.247-.796-.959.267-1.257.801-.441 1.284-.441 2.262c0 .989.145 1.748.436 2.279zm6.126.579a.658.658 0 0 1-.472-.194.656.656 0 0 1-.195-.473c0-.184.065-.342.195-.472a.655.655 0 0 1 .472-.195.64.64 0 0 1 .472.195c.13.13.195.288.195.472a.656.656 0 0 1-.195.473.645.645 0 0 1-.472.194zm0-3.945a.655.655 0 0 1-.667-.667.64.64 0 0 1 .195-.472.655.655 0 0 1 .472-.195.64.64 0 0 1 .667.667.655.655 0 0 1-.195.472.642.642 0 0 1-.472.195zm4.875 4.967c-.835 0-1.481-.339-1.94-1.016s-.687-1.632-.687-2.864c0-1.221.231-2.172.692-2.852s1.107-1.021 1.935-1.021 1.466.342 1.924 1.026.693 1.638.693 2.863-.23 2.179-.688 2.853a2.19 2.19 0 0 1-1.929 1.011zm-1.262-1.601c.294.53.714.795 1.262.795s.964-.263 1.252-.79.436-1.292.436-2.284c0-.981-.147-1.737-.441-2.267s-.707-.796-1.247-.796-.96.267-1.257.801-.442 1.284-.442 2.262c0 .989.146 1.748.437 2.279zm7.881 1.601c-.835 0-1.481-.339-1.94-1.016s-.687-1.632-.687-2.864c0-1.221.231-2.172.692-2.852s1.107-1.021 1.935-1.021 1.466.342 1.924 1.026.693 1.638.693 2.863-.23 2.179-.688 2.853a2.19 2.19 0 0 1-1.929 1.011zm-1.262-1.601c.294.53.714.795 1.262.795s.964-.263 1.252-.79.436-1.292.436-2.284c0-.981-.147-1.737-.441-2.267s-.707-.796-1.247-.796-.96.267-1.257.801-.442 1.284-.442 2.262c0 .989.146 1.748.437 2.279z" class="B"/><path d="M230.458 439.733a6.49 6.49 0 0 0-6.467 6.467 6.49 6.49 0 0 0 6.467 6.467 6.49 6.49 0 0 0 6.467-6.467 6.49 6.49 0 0 0-6.467-6.467zm0 11.317a4.864 4.864 0 0 1-4.85-4.85 4.864 4.864 0 0 1 4.85-4.85 4.865 4.865 0 0 1 4.85 4.85 4.864 4.864 0 0 1-4.85 4.85zm.808-8.083h-1.617v4.041h4.042v-1.616h-2.425v-2.425z" class="C"/><path fill="#e8e6e0" d="M32.416 422.758h234.417v.808H32.416z"/><rect x="32.416" y="286.15" width="234.417" height="72.75" rx="4.042" class="D"/><path d="M235.727 328.847l5.376-6.273a.806.806 0 0 0 0-1.051l-5.376-6.273-1.228 1.052 4.926 5.747-4.925 5.746 1.227 1.052zM52.452 310.233h1.006c.062.417.278.748.646.995s.836.37 1.404.37c.537 0 .981-.129 1.331-.386s.53-.59.53-.984c0-.339-.128-.619-.386-.84s-.661-.407-1.21-.547l-1.022-.265c-.722-.181-1.247-.442-1.575-.785s-.492-.797-.492-1.365c0-.678.258-1.225.774-1.641s1.2-.63 2.044-.63c.77 0 1.415.206 1.934.619s.8.941.84 1.586h-1a1.417 1.417 0 0 0-.586-.956c-.317-.232-.724-.348-1.221-.348-.53 0-.958.123-1.282.37s-.48.566-.48.967c0 .313.117.567.353.763s.633.362 1.182.502l.835.222c.825.206 1.416.482 1.773.828s.542.813.542 1.398c0 .733-.269 1.317-.807 1.752s-1.261.647-2.171.647c-.844 0-1.537-.207-2.078-.619s-.833-.964-.884-1.653zm9.852-3.138c-.475 0-.866.16-1.171.481s-.477.744-.514 1.271H63.9c-.01-.527-.162-.951-.453-1.271s-.672-.481-1.144-.481zm1.57 3.68h.95a2.065 2.065 0 0 1-.879 1.21c-.438.291-.981.437-1.63.437-.825 0-1.479-.277-1.961-.829s-.724-1.306-.724-2.249.243-1.689.73-2.249 1.138-.84 1.955-.84c.803 0 1.435.267 1.896.801s.69 1.266.69 2.194v.365H60.62v.044c.026.589.191 1.057.497 1.403s.717.52 1.221.52c.77 0 1.282-.269 1.536-.807zm2.574 1.542v-8.322h.95v8.322h-.95zm5.173-5.222c-.476 0-.866.16-1.172.481s-.477.744-.514 1.271h3.282c-.01-.527-.162-.951-.453-1.271s-.672-.481-1.143-.481zm1.569 3.68h.95a2.065 2.065 0 0 1-.878 1.21c-.439.291-.982.437-1.63.437-.826 0-1.48-.277-1.962-.829s-.724-1.306-.724-2.249.243-1.689.73-2.249 1.138-.84 1.956-.84c.803 0 1.434.267 1.895.801s.69 1.266.69 2.194v.365h-4.282v.044c.026.589.192 1.057.498 1.403s.716.52 1.22.52c.77 0 1.283-.269 1.537-.807zm7.448-2.592h-.96a1.356 1.356 0 0 0-.526-.768c-.265-.202-.602-.304-1.011-.304-.534 0-.96.199-1.276.597s-.47.934-.47 1.608c0 .685.158 1.232.475 1.641s.74.608 1.27.608c.403 0 .736-.09 1.001-.271a1.29 1.29 0 0 0 .536-.773h.961a2.136 2.136 0 0 1-.79 1.376c-.438.35-1.005.525-1.702.525-.836 0-1.5-.28-1.994-.84s-.74-1.319-.74-2.266c0-.928.246-1.67.74-2.227s1.156-.834 1.989-.834c.696 0 1.263.182 1.702.547a2.18 2.18 0 0 1 .795 1.381zm1.912-3.365h.95v1.542h1.327v.796h-1.326v3.37c0 .35.07.604.21.763s.365.237.674.237c.136 0 .284-.007.442-.022v.802c-.21.036-.396.055-.558.055-.615 0-1.056-.124-1.32-.37s-.399-.654-.399-1.222v-3.613h-.961v-.796h.961v-1.542zm6.001 2.277c-.475 0-.865.16-1.171.481s-.477.744-.514 1.271h3.282c-.01-.527-.162-.951-.453-1.271s-.672-.481-1.144-.481zm1.57 3.68h.95a2.065 2.065 0 0 1-.879 1.21c-.438.291-.981.437-1.63.437-.825 0-1.479-.277-1.961-.829s-.724-1.306-.724-2.249.243-1.689.73-2.249 1.138-.84 1.955-.84c.803 0 1.435.267 1.896.801s.69 1.266.69 2.194v.365h-4.282v.044c.026.589.192 1.057.497 1.403s.717.52 1.222.52c.77 0 1.282-.269 1.536-.807zm4.724 1.647c-.762 0-1.37-.28-1.823-.84s-.68-1.308-.68-2.244.227-1.678.68-2.238 1.064-.845 1.823-.845c.416 0 .788.094 1.116.282s.582.438.752.762h.083v-3.304h.95v8.322h-.906v-.951h-.089a2.01 2.01 0 0 1-.784.779c-.335.185-.71.277-1.122.277zm.221-5.311c-.541 0-.967.199-1.276.597s-.464.938-.464 1.63.153 1.242.458 1.636c.31.394.737.591 1.282.591s.969-.199 1.282-.597.47-.941.47-1.63c0-.681-.159-1.223-.475-1.624s-.739-.603-1.277-.603zm12.682 4.31v.896h-4.841v-7.974h.995v7.078h3.846zm2.337-.436c.306.387.741.58 1.304.58s.998-.193 1.304-.58.459-.939.459-1.647-.153-1.254-.459-1.641-.74-.586-1.304-.586-.998.196-1.304.586-.459.934-.459 1.641.153 1.256.459 1.647zm3.31.613c-.49.549-1.159.824-2.006.824s-1.518-.275-2.011-.824-.735-1.306-.735-2.26.245-1.711.735-2.26 1.16-.823 2.011-.823 1.522.274 2.012.823.734 1.302.734 2.26-.246 1.708-.74 2.26zm7.161-3.415h-.961a1.355 1.355 0 0 0-.525-.768c-.265-.202-.602-.304-1.011-.304-.534 0-.96.199-1.277.597s-.469.934-.469 1.608c0 .685.158 1.232.475 1.641s.74.608 1.271.608c.401 0 .735-.09 1-.271s.447-.438.536-.773h.961a2.131 2.131 0 0 1-.79 1.376c-.438.35-1.006.525-1.702.525-.836 0-1.501-.28-1.995-.84s-.74-1.319-.74-2.266c0-.928.247-1.67.74-2.227s1.157-.834 1.99-.834c.696 0 1.263.182 1.702.547a2.18 2.18 0 0 1 .795 1.381zm3.238 3.404c.49 0 .896-.142 1.216-.425s.486-.639.486-1.067v-.547l-1.602.105c-.45.03-.779.124-.989.282s-.315.389-.315.691.112.534.337.707.514.254.867.254zm-.176.835c-.586 0-1.069-.161-1.448-.481s-.564-.755-.564-1.293c0-.531.188-.947.564-1.249s.912-.473 1.608-.514l1.718-.105v-.541c0-.369-.114-.651-.342-.846s-.564-.293-1.006-.293c-.357 0-.654.065-.89.194a.887.887 0 0 0-.453.547h-.961c.062-.475.307-.859.735-1.15s.965-.436 1.602-.436c.722 0 1.28.175 1.674.525s.592.836.592 1.459v4.078h-.906v-.879h-.089c-.191.317-.446.56-.762.729s-.675.255-1.072.255zm4.984-7.604h.95v1.542h1.326v.796h-1.326v3.37c0 .35.07.604.21.763s.365.237.674.237a4.68 4.68 0 0 0 .442-.022v.802c-.21.036-.396.055-.558.055-.615 0-1.055-.124-1.32-.37s-.398-.654-.398-1.222v-3.613h-.962v-.796h.962v-1.542zm3.735 7.499v-5.957h.951v5.957h-.951zm.945-7.361a.64.64 0 0 1-.47.194.639.639 0 0 1-.469-.194.65.65 0 0 1-.194-.469.63.63 0 0 1 .194-.464.628.628 0 0 1 .469-.199.63.63 0 0 1 .663.663.65.65 0 0 1-.193.469zm2.962 6.029c.306.387.74.58 1.304.58s.998-.193 1.304-.58.459-.939.459-1.647-.153-1.254-.459-1.641-.74-.586-1.304-.586-.998.196-1.304.586-.459.934-.459 1.641.153 1.256.459 1.647zm3.31.613c-.49.549-1.159.824-2.006.824s-1.518-.275-2.011-.824-.735-1.306-.735-2.26.245-1.711.735-2.26 1.16-.823 2.011-.823 1.521.274 2.011.823.735 1.302.735 2.26-.247 1.708-.74 2.26zm2.232.719v-5.957h.906v.939h.089c.317-.696.913-1.044 1.79-1.044.667 0 1.181.191 1.542.575s.541.922.541 1.63v3.857h-.95v-3.625c0-.534-.116-.93-.348-1.188s-.58-.393-1.056-.393-.86.151-1.144.454-.419.707-.419 1.226v3.526h-.951zm7.394.055a.705.705 0 0 1-.509-.21.704.704 0 0 1-.21-.508c0-.199.07-.369.21-.509a.705.705 0 0 1 .509-.21c.198 0 .368.07.508.21s.21.31.21.509-.07.364-.21.508-.31.21-.508.21zm0-4.249a.705.705 0 0 1-.719-.719.69.69 0 0 1 .21-.508.705.705 0 0 1 .509-.21c.198 0 .368.07.508.21a.69.69 0 0 1 .21.508c0 .196-.07.365-.21.509s-.31.21-.508.21z" class="C"/><path d="M85.652 324.89v6.55c0 .706.21 1.269.632 1.691s1.007.625 1.755.625 1.331-.208 1.748-.625c.421-.422.632-.985.632-1.691v-6.55h1.833v6.721c0 1.132-.381 2.046-1.144 2.742s-1.785 1.044-3.069 1.044-2.306-.348-3.069-1.044-1.144-1.61-1.144-2.742v-6.721h1.826zm8.689 7.467h1.79c.057.459.296.826.718 1.101s.956.405 1.605.405c.607 0 1.104-.138 1.492-.412.393-.28.59-.635.59-1.066a1.09 1.09 0 0 0-.448-.902c-.293-.232-.77-.424-1.428-.576l-1.328-.305c-.928-.209-1.618-.547-2.067-1.016s-.668-1.092-.668-1.854c0-.933.348-1.682 1.044-2.245.701-.569 1.625-.853 2.77-.853 1.076 0 1.966.28 2.672.838s1.08 1.279 1.123 2.16h-1.755a1.526 1.526 0 0 0-.647-1.073c-.37-.265-.836-.397-1.4-.397-.591 0-1.067.132-1.427.397a1.233 1.233 0 0 0-.533 1.045c0 .345.14.627.419.845s.737.393 1.371.54l1.18.27c1.037.232 1.787.578 2.252 1.037s.703 1.08.703 1.862c0 .999-.362 1.79-1.087 2.373-.72.577-1.7.866-2.941.866-1.175 0-2.124-.274-2.85-.824-.72-.549-1.103-1.288-1.15-2.216zm16.703 2.785l-.867-2.622h-3.773l-.881 2.622h-1.854l3.638-10.252h2.06l3.644 10.252h-1.967zm-2.807-8.298l-1.406 4.227h2.92l-1.393-4.227h-.121zm14.977 4.994h-4.668v-1.655h4.668v1.655zm8.077 3.304h-1.769V324.89h1.592l5.03 6.969h.12v-6.969h1.762v10.252h-1.584l-5.03-6.977h-.121v6.977zm12.348-6.529c-.526 0-.959.172-1.3.518s-.531.803-.569 1.371h3.659c-.019-.577-.189-1.037-.511-1.378s-.749-.511-1.279-.511zm1.804 4.39h1.67a2.699 2.699 0 0 1-1.172 1.684c-.611.407-1.371.611-2.281.611-1.141 0-2.039-.355-2.692-1.066s-.974-1.698-.974-2.948.327-2.24.981-2.97 1.544-1.101 2.671-1.101c1.108 0 1.975.348 2.6 1.044s.945 1.651.945 2.878v.568h-5.428v.092c.024.649.209 1.163.555 1.542s.814.561 1.392.561c.89 0 1.468-.298 1.733-.895zm13.826-5.634l-2.103 7.773h-1.854l-1.514-5.599h-.12l-1.507 5.599h-1.833l-2.102-7.773h1.776l1.293 5.805h.12l1.492-5.805h1.684l1.506 5.805h.121l1.286-5.805h1.755zm10.273 7.773h-1.833v-4.007l-3.595-6.245h2.011l2.444 4.383h.12l2.437-4.383h2.011l-3.595 6.245v4.007zm5.783-1.99c.336.446.812.668 1.428.668s1.089-.222 1.421-.668.504-1.082.504-1.897c0-.809-.168-1.439-.504-1.889s-.81-.675-1.421-.675c-.616 0-1.092.225-1.428.675s-.504 1.08-.504 1.889c0 .815.168 1.447.504 1.897zm1.428 2.146c-1.165 0-2.079-.358-2.742-1.073-.663-.72-.995-1.71-.995-2.97 0-1.25.334-2.235 1.002-2.955.668-.725 1.579-1.087 2.735-1.087s2.072.36 2.735 1.08 1.002 1.707 1.002 2.962-.334 2.25-1.002 2.97c-.663.715-1.575 1.073-2.735 1.073zm5.513-.156v-7.773h1.698v1.208h.121c.109-.388.353-.708.732-.959a2.357 2.357 0 0 1 1.321-.377c.317 0 .561.026.732.079v1.634c-.18-.067-.481-.1-.902-.1-.574 0-1.04.166-1.4.497s-.54.761-.54 1.301v4.49h-1.762zm8.007-4.604l2.87-3.169h2.046l-3.097 3.332 3.31 4.441h-2.131l-2.494-3.332-.625.625v2.707h-1.762v-10.778h1.762v6.174h.121z" class="B"/><path d="M51.816 322.525h21.017v1.244H51.816v-1.244zm0 2.488h21.017v1.244H51.816v-1.244zm0 2.485h21.017v1.247H51.816v-1.247zm0 2.488h21.017v1.244H51.816v-1.244zm0 2.488h21.017v1.244H51.816v-1.244zm0 2.485h21.017v1.244H51.816v-1.244zm0 2.488h21.017v1.245H51.816v-1.245z" fill="#bd3d44" class="E"/><path d="M51.816 324.142h21.017v1.176H51.816v-1.176zm0 2.352h21.017v1.174H51.816v-1.174zm0 2.35h21.017v1.176H51.816v-1.176zm0 2.352h21.017v1.177H51.816v-1.177zm0 2.353h21.017v1.176H51.816v-1.176zm0 2.35h21.017v1.176H51.816v-1.176z" class="D E"/><path d="M51.816 322.525h11.64v8.505h-11.64v-8.505z" fill="#192f5d" class="E"/><path d="M52.786 322.889l.107.336h.341l-.275.207.105.339-.278-.209-.276.206.105-.336-.278-.207h.347l.102-.336zm1.941 0l.105.336h.344l-.279.207.105.339-.275-.209-.278.206.105-.336-.276-.207h.341l.108-.336zm1.938 0l.108.336h.338l-.275.207.105.339-.279-.209-.275.206.105-.336-.278-.207h.344l.107-.336zm1.942 0l.105.336h.343l-.278.207.108.339-.278-.209-.278.206.107-.336-.278-.207h.341l.108-.336zm1.938 0l.108.336h.34l-.274.207.104.339-.278-.209-.275.206.105-.336-.276-.207h.342l.104-.336zm1.942 0l.104.336h.344l-.278.207.108.339-.278-.209-.279.206.108-.336-.278-.207h.344l.105-.336zm-8.73.852l.105.336h.344l-.278.207.102.336-.27-.207-.277.207.098-.336-.269-.207h.341l.105-.336zm1.94 0l.107.336h.34l-.277.207.107.336-.278-.207-.278.207.108-.336-.279-.207h.345l.104-.336zm1.94 0l.105.336h.344l-.278.207.105.336-.275-.207-.279.207.105-.336-.275-.207h.34l.109-.336zm1.939 0l.108.336h.34l-.278.207.108.336-.278-.207-.275.207.105-.336-.279-.207h.347l.102-.336zm1.941 0l.105.336h.344l-.278.207.105.336-.276-.207-.278.207.105-.336-.275-.207h.34l.108-.336zm-8.731.848l.107.342h.341l-.275.207.105.336-.278-.21-.276.21.105-.339-.278-.207h.347l.102-.339zm1.941 0l.105.339h.344l-.279.207.105.336-.275-.21-.278.21.105-.339-.276-.207h.341l.108-.336zm1.938 0l.108.339h.338l-.275.207.105.336-.279-.21-.275.21.105-.339-.278-.207h.344l.107-.336zm1.942 0l.105.339h.343l-.278.207.108.336-.278-.21-.278.21.107-.339-.278-.207h.341l.108-.336zm1.938 0l.108.339h.34l-.274.207.104.336-.278-.21-.275.21.105-.339-.276-.207h.342l.104-.336zm1.942 0l.104.339h.344l-.278.207.108.336-.278-.21-.279.21.108-.339-.278-.207h.344l.105-.336zm-8.73.851l.105.337h.344l-.278.206.105.34-.275-.21-.278.207.104-.337-.275-.206h.341l.108-.337zm1.94 0l.107.337h.34l-.277.206.107.34-.278-.21-.278.207.108-.337-.279-.206h.345l.104-.337zm1.94 0l.105.337h.344l-.278.206.105.34-.275-.21-.279.207.105-.337-.275-.206h.34l.109-.337zm1.939 0l.108.337h.34l-.275.206.105.34-.278-.21-.275.207.105-.337-.279-.206h.347l.102-.337zm1.941 0l.105.337h.344l-.278.206.105.34-.276-.21-.278.207.105-.337-.275-.206h.34l.108-.337zm-8.731.852l.107.336h.341l-.275.207.105.339-.278-.21-.276.207.105-.336-.278-.207h.347l.102-.336zm1.941 0l.105.336h.344l-.279.207.105.336-.275-.207-.278.207.105-.336-.276-.207h.341l.108-.336zm1.938 0l.108.336h.338l-.275.207.105.339-.279-.21-.275.207.105-.336-.278-.207h.344l.107-.336zm1.942 0l.105.336h.343l-.278.207.108.339-.278-.21-.278.207.107-.336-.278-.207h.341l.108-.336zm1.938 0l.108.336h.34l-.274.207.104.339-.278-.21-.275.207.105-.336-.276-.207h.342l.104-.336zm1.942 0l.104.336h.344l-.278.207.108.339-.278-.21-.279.207.108-.336-.278-.207h.344l.105-.336zm-8.73.851l.105.336h.344l-.278.207.105.336-.275-.209-.278.209.104-.339-.275-.207h.341l.108-.333zm1.94 0l.107.336h.34l-.277.207.107.336-.278-.209-.278.209.108-.339-.279-.207h.345l.104-.333zm1.94 0l.105.336h.344l-.278.207.105.336-.275-.209-.279.209.105-.339-.275-.207h.34l.109-.333zm1.939 0l.108.336h.34l-.275.207.105.336-.278-.209-.275.209.105-.339-.279-.207h.347l.102-.333zm1.941 0l.105.336h.344l-.278.207.105.336-.276-.209-.278.209.105-.339-.275-.207h.34l.108-.333zm-8.731.848l.107.34h.341l-.275.207.105.333-.278-.207-.276.207.105-.337-.278-.206h.347l.102-.337zm1.941 0l.105.34h.344l-.279.207.108.333-.278-.207-.278.207.108-.337-.279-.206h.341l.108-.337zm1.938 0l.108.34h.338l-.275.207.105.333-.279-.207-.275.207.105-.337-.278-.206h.344l.107-.337zm1.942 0l.105.34h.343l-.278.207.108.333-.278-.207-.278.207.107-.337-.278-.206h.341l.108-.337zm1.938 0l.108.34h.34l-.274.207.104.333-.278-.207-.275.207.105-.337-.276-.206h.342l.104-.337zm1.942 0l.104.34h.344l-.278.207.108.333-.278-.207-.279.207.108-.337-.278-.206h.344l.105-.337zm-8.73.852l.105.336h.344l-.278.207.105.339-.275-.21-.278.207.104-.336-.275-.207h.341l.108-.336zm1.94 0l.107.336h.34l-.277.207.107.339-.278-.21-.278.207.108-.336-.279-.207h.345l.104-.336zm1.94 0l.105.336h.344l-.278.207.105.339-.275-.21-.279.207.105-.336-.275-.207h.34l.109-.336zm1.939 0l.108.336h.34l-.275.207.105.339-.278-.21-.275.207.105-.336-.279-.207h.347l.102-.336zm1.941 0l.105.336h.344l-.278.207.105.339-.276-.21-.278.207.105-.336-.275-.207h.34l.108-.336zm-8.731.851l.107.337h.341l-.275.206.105.337-.278-.207-.276.207.105-.34-.278-.207h.347l.102-.333zm1.941 0l.105.337h.344l-.279.206.108.337-.278-.207-.278.207.108-.34-.279-.207h.341l.108-.333zm1.938 0l.108.337h.338l-.27.206.106.337-.279-.207-.275.207.105-.34-.278-.207h.344l.101-.333zm1.942 0l.105.337h.343l-.278.206.108.337-.278-.207-.278.207.107-.34-.278-.207h.341l.108-.333zm1.938 0l.108.337h.34l-.274.206.104.337-.278-.207-.275.207.105-.34-.276-.207h.342l.104-.333zm1.942 0l.104.337h.344l-.278.206.108.337-.278-.207-.279.207.108-.34-.278-.207h.344l.105-.333z" class="D E"/><path d="M.083 17.783h299.083v109.125c0 17.858-14.476 32.334-32.333 32.334H32.416c-17.857 0-32.333-14.476-32.333-32.334V17.783z" fill="#f5f3ed"/><path d="M279.767 46.075a1.617 1.617 0 10-3.234 0 1.617 1.617 0 003.234 0zm0 7.275a1.617 1.617 0 10-3.234 0 1.617 1.617 0 003.234 0zm0-14.55a1.617 1.617 0 10-3.234 0 1.617 1.617 0 003.234 0z" class="B"/><circle cx="150.028" cy="159.646" r="63.454" fill="#f1efe8"/><circle cx="150.028" cy="159.646" r="63.454" class="D"/><g filter="url(#B)"><path d="M169.475 203.887l-1.035-1.61c-.706-1.1-2.211-1.501-3.362-.898l.268-.141a.688.688 0 00-.305.833l1.432 3.774c.227.599.807 1.445 1.288 1.87 0 0 2.881 2.429 2.881 3.34v1.153h4.668l1.167-2.377 1.167 2.377h1.167v-1.153c0-.911 1.76-3.779 1.76-3.779.325-.558.595-1.54.595-2.192v-4.797c-.021-1.061-.908-1.922-2.001-1.922-.547 0-.99.43-.99.961v.385c0-1.062-.886-1.923-1.979-1.923-.547 0-.991.43-.991.962v.384c0-1.062-.886-1.923-1.979-1.923-.547 0-.99.431-.99.962v.384c0-.171-.018-.306-.053-.414l-.302-4.953a1.26 1.26 0 00-1.239-1.19c-.649 0-1.167.532-1.167 1.188v10.699zm8.19-1.189h1.167v4.755h-1.167v-4.755zm-2.334 0h1.167v4.755h-1.167v-4.755zm-2.334 0h1.167v4.755h-1.167v-4.755z" class="D E"/><path d="M168.78 202.058a3.04 3.04 0 0 0-3.614-1.163l-.007-.015-.001.001-.268.14.022.041a1.101 1.101 0 0 0-.249 1.152l1.432 3.775c.25.658.867 1.56 1.398 2.029h0l.007.006h.001l.001.002.006.004.023.02.089.077a24.862 24.862 0 0 1 1.295 1.202c.355.356.701.73.955 1.064a3.25 3.25 0 0 1 .289.442.597.597 0 0 1 .079.22v1.557h5.324l.111-.226.804-1.638.804 1.638.111.226h1.823v-1.557c0-.137.077-.419.244-.819.158-.381.372-.812.589-1.223l.597-1.071.197-.333.055-.091.014-.023.004-.006.001-.001v-.001h0l.005-.008c.185-.319.345-.74.459-1.158s.19-.864.19-1.237v-4.797h0v-.008c-.026-1.288-1.098-2.318-2.405-2.318-.394 0-.754.161-1.01.424a2.401 2.401 0 0 0-1.959-1.001c-.394 0-.755.162-1.011.424a2.401 2.401 0 0 0-1.959-1.001 1.42 1.42 0 0 0-.708.189l-.233-3.831c-.054-.878-.78-1.569-1.643-1.569-.88 0-1.571.721-1.571 1.592v9.322l-.291-.452zm9.289 1.045h.359v3.946h-.359v-3.946zm-2.334 0h.359v3.946h-.359v-3.946zm-2.334 0h.359v3.946h-.359v-3.946z" stroke="#000" stroke-opacity=".8" stroke-width=".808"/></g><path d="M150.58 134.816a25.381 25.381 0 1025.382 25.382 25.413 25.413 0 00-25.382-25.382zm-1.104 9.932a1.103 1.103 0 012.207 0v13.242a1.104 1.104 0 11-2.207 0v-13.242zm1.104 29.796a14.35 14.35 0 01-13.401-9.227 14.344 14.344 0 013.836-15.812 1.108 1.108 0 011.22-.18 1.102 1.102 0 01.515 1.48 1.12 1.12 0 01-.262.345 12.135 12.135 0 001.236 19.065 12.138 12.138 0 0018.22-5.749 12.14 12.14 0 00-3.338-13.376 1.1 1.1 0 01-.391-.763 1.116 1.116 0 01.273-.812 1.1 1.1 0 011.204-.308c.138.05.265.128.373.228A14.35 14.35 0 01164 165.267a14.346 14.346 0 01-13.42 9.277z" class="B"/><path d="M204.591 54.158a2.425 2.425 0 00-2.425-2.425H98.699a2.425 2.425 0 00-2.425 2.425v24.25a2.425 2.425 0 002.425 2.425h46.018c.021 0 .032.026.017.04a.024.024 0 000 .034l3.984 3.985a2.424 2.424 0 003.429 0l3.985-3.985a.024.024 0 000-.033.024.024 0 01.017-.04h46.017a2.425 2.425 0 002.425-2.426v-24.25z" class="D E"/><path d="M110.569 69.58c-1.083 0-1.942-.375-2.575-1.122s-.945-1.765-.945-3.05.315-2.303.945-3.05c.63-.752 1.486-1.128 2.569-1.128.84 0 1.559.24 2.155.718a2.876 2.876 0 0 1 1.072 1.874h-1.011a2.137 2.137 0 0 0-.796-1.222c-.397-.302-.871-.453-1.42-.453-.766 0-1.374.293-1.823.879s-.669 1.38-.669 2.381.225 1.796.674 2.382 1.058.873 1.824.873c.556 0 1.031-.133 1.425-.398s.66-.633.785-1.094h1.011a2.718 2.718 0 0 1-1.077 1.757c-.582.435-1.297.652-2.144.652zm4.824-.189V61.07h.95v8.321h-.95zm2.818 0v-5.956h.95v5.956h-.95zm.945-7.36a.64.64 0 0 1-.47.194.64.64 0 0 1-.47-.194.655.655 0 0 1-.193-.47c0-.18.065-.335.193-.464a.632.632 0 0 1 .47-.199.63.63 0 0 1 .47.2.632.632 0 0 1 .193.464.65.65 0 0 1-.193.47zm6.747 3.227h-.962a1.354 1.354 0 0 0-.525-.768c-.265-.202-.602-.304-1.011-.304-.534 0-.96.2-1.276.597s-.47.934-.47 1.608c0 .685.158 1.232.475 1.641a1.53 1.53 0 0 0 1.271.608c.402 0 .735-.09 1-.27a1.29 1.29 0 0 0 .536-.774h.962a2.137 2.137 0 0 1-.79 1.376c-.439.35-1.006.525-1.702.525-.837 0-1.502-.28-1.995-.84s-.741-1.32-.741-2.266c0-.928.247-1.67.741-2.227s1.157-.834 1.989-.834c.696 0 1.264.182 1.702.547s.707.825.796 1.381zm2.497.78l2.586-2.603h1.166l-2.564 2.553 2.736 3.403h-1.211l-2.232-2.79-.569.53v2.26h-.951V61.07h.951v4.967h.088zm8.643-4.145h.95v1.542h1.326v.796h-1.326v3.37c0 .35.07.604.21.763s.365.237.674.237c.136 0 .284-.007.442-.022v.801c-.21.037-.396.056-.558.056-.615 0-1.055-.124-1.321-.37s-.397-.654-.397-1.222v-3.613h-.962v-.796h.962v-1.542zm4.768 6.167c.306.387.741.58 1.304.58s.999-.193 1.304-.58.459-.94.459-1.647-.153-1.254-.459-1.641-.74-.586-1.304-.586-.998.195-1.304.586-.458.934-.458 1.641.152 1.256.458 1.647zm3.31.613c-.49.549-1.158.823-2.006.823s-1.517-.274-2.011-.823-.735-1.306-.735-2.26.245-1.711.735-2.26 1.16-.823 2.011-.823 1.522.274 2.012.823.735 1.302.735 2.26-.247 1.708-.741 2.26zm10.355-3.415h-.961a1.354 1.354 0 0 0-.525-.768c-.265-.202-.602-.304-1.011-.304a1.55 1.55 0 0 0-1.277.597c-.313.398-.469.934-.469 1.608 0 .685.158 1.232.475 1.641a1.53 1.53 0 0 0 1.271.608c.401 0 .735-.09 1-.27a1.3 1.3 0 0 0 .536-.774h.961a2.128 2.128 0 0 1-.79 1.376c-.438.35-1.006.525-1.702.525-.836 0-1.501-.28-1.995-.84s-.74-1.32-.74-2.266c0-.928.247-1.67.74-2.227s1.157-.834 1.99-.834c.696 0 1.263.182 1.702.547s.707.825.795 1.381zm2.548 2.802c.305.387.74.58 1.304.58s.998-.193 1.304-.58.458-.94.458-1.647-.152-1.254-.458-1.641-.741-.586-1.304-.586-.999.195-1.304.586-.459.934-.459 1.641.153 1.256.459 1.647zm3.31.613c-.49.549-1.159.823-2.006.823s-1.518-.274-2.012-.823-.735-1.306-.735-2.26.245-1.711.735-2.26 1.161-.823 2.012-.823 1.521.274 2.011.823.735 1.302.735 2.26-.247 1.708-.74 2.26zm2.232.718v-5.956h.906v.94h.089c.316-.697.913-1.045 1.79-1.045.667 0 1.181.191 1.542.574s.541.923.541 1.63v3.857h-.95v-3.624c0-.534-.116-.93-.348-1.188s-.581-.393-1.056-.393-.86.151-1.144.453-.42.708-.42 1.227v3.525h-.95zm6.609 0v-5.956h.906v.94h.088c.317-.697.914-1.045 1.791-1.045.666 0 1.18.191 1.541.574s.542.923.542 1.63v3.857h-.951v-3.624c0-.534-.116-.93-.348-1.188s-.58-.393-1.055-.393-.86.151-1.144.453-.42.708-.42 1.227v3.525h-.95zm8.985-5.221c-.476 0-.866.16-1.172.48s-.477.744-.514 1.271h3.282c-.011-.527-.162-.95-.453-1.27s-.672-.481-1.143-.481zm1.569 3.68h.95a2.061 2.061 0 0 1-.878 1.21c-.439.291-.982.436-1.63.436-.826 0-1.479-.276-1.962-.828s-.724-1.306-.724-2.25c0-.939.243-1.688.73-2.248s1.138-.84 1.956-.84c.803 0 1.434.267 1.895.801s.691 1.265.691 2.194v.364h-4.283v.045c.026.589.192 1.057.498 1.403s.716.52 1.221.52c.77 0 1.282-.27 1.536-.807zm7.449-2.592h-.962a1.354 1.354 0 0 0-.525-.768c-.265-.202-.602-.304-1.011-.304a1.55 1.55 0 0 0-1.277.597c-.313.398-.469.934-.469 1.608 0 .685.158 1.232.475 1.641a1.53 1.53 0 0 0 1.271.608c.401 0 .735-.09 1-.27a1.29 1.29 0 0 0 .536-.774h.962a2.134 2.134 0 0 1-.791 1.376c-.438.35-1.005.525-1.702.525-.836 0-1.501-.28-1.994-.84s-.741-1.32-.741-2.266c0-.928.247-1.67.741-2.227s1.156-.834 1.989-.834c.696 0 1.263.182 1.702.547s.707.825.796 1.381zm1.911-3.365h.951v1.542h1.326v.796h-1.326v3.37c0 .35.07.604.21.763s.365.237.674.237c.136 0 .284-.007.442-.022v.801c-.21.037-.396.056-.558.056-.615 0-1.055-.124-1.321-.37s-.398-.654-.398-1.222v-3.613h-.961v-.796h.961v-1.542z" class="B"/><g filter="url(#C)"><path d="M.083 4.042A4.042 4.042 0 014.125 0h291a4.041 4.041 0 014.041 4.042v13.741H.083V4.042z" fill="url(#D)"/></g><path d="M136.569 6.183l-1.585 5.434h-1.088L131.9 4.213h1.196l1.359 5.67h.072l1.545-5.67h1.067l1.554 5.67h.072l1.355-5.67h1.195l-2.001 7.404h-1.082l-1.591-5.434h-.072zm8.486 1.072c-.247-.263-.573-.395-.98-.395s-.743.132-1.006.395-.411.614-.441 1.052h2.822c-.014-.441-.146-.792-.395-1.052zm.39 2.853h1.062a1.958 1.958 0 0 1-.832 1.185c-.424.288-.954.432-1.59.432-.801 0-1.432-.257-1.894-.77s-.687-1.221-.687-2.114.233-1.603.698-2.13 1.091-.79 1.878-.79c.776 0 1.385.25 1.826.75s.667 1.188.667 2.067v.385h-3.945v.062c.017.492.159.882.426 1.17s.62.43 1.062.43c.673 0 1.116-.225 1.329-.677zm5.124 1.509h-1.262l-2.648-7.404h1.252l1.996 5.967h.087l1.986-5.967h1.221l-2.632 7.404zm3.683-7.404h2.899c.725 0 1.313.229 1.765.687s.677 1.049.677 1.78c0 .722-.231 1.31-.692 1.766s-1.057.677-1.786.677h-1.714v2.494h-1.149V4.213zm1.149 1.016v2.883h1.447c.496 0 .881-.123 1.155-.37s.415-.603.415-1.061c0-.469-.135-.828-.405-1.078s-.659-.374-1.165-.374h-1.447zm6.551 6.388h-1.118V4.213h1.036l3.802 5.259h.082v-5.26h1.119v7.405h-1.037l-3.802-5.26h-.082v5.26z" fill="#423f42"/><path d="M16.048 8.892a4.648 4.648 0 11-9.296 0 4.648 4.648 0 019.296 0z" fill="#ff5f58" stroke="#e1483f" class="G"/><path d="M32.215 8.892a4.648 4.648 0 11-9.296 0 4.648 4.648 0 019.296 0z" fill="#ffbe2f" stroke="#e0a028" class="G"/><path d="M48.38 8.892a4.648 4.648 0 11-9.295 0 4.648 4.648 0 019.296 0z" fill="#d9d9d9" stroke="#969696" class="G"/></g><defs><filter id="B" x="161.766" y="189.575" width="22.633" height="26.675" filterUnits="userSpaceOnUse" class="H"><feFlood flood-opacity="0" result="A"/><feColorMatrix in="SourceAlpha" values="0 0 0 0 0 0 0 0 0 0 0 0 0 0 0 0 0 0 127 0"/><feOffset dy=".808"/><feGaussianBlur stdDeviation="1.212"/><feColorMatrix values="0 0 0 0 0 0 0 0 0 0 0 0 0 0 0 0 0 0 0.2 0"/><feBlend in2="A"/><feBlend in="SourceGraphic"/></filter><filter id="C" x=".083" y="-.404" width="299.083" height="18.592" filterUnits="userSpaceOnUse" class="H"><feFlood flood-opacity="0"/><feBlend in="SourceGraphic" result="B"/><feColorMatrix in="SourceAlpha" values="0 0 0 0 0 0 0 0 0 0 0 0 0 0 0 0 0 0 127 0" result="C"/><feOffset dy="-.404"/><feGaussianBlur stdDeviation=".202"/><feComposite in2="C" operator="arithmetic" k2="-1" k3="1"/><feColorMatrix values="0 0 0 0 0 0 0 0 0 0 0 0 0 0 0 0 0 0 0.2 0"/><feBlend in2="B" result="D"/><feColorMatrix in="SourceAlpha" values="0 0 0 0 0 0 0 0 0 0 0 0 0 0 0 0 0 0 127 0" result="C"/><feOffset dy=".404"/><feGaussianBlur stdDeviation=".202"/><feComposite in2="C" operator="arithmetic" k2="-1" k3="1"/><feColorMatrix values="0 0 0 0 1 0 0 0 0 1 0 0 0 0 1 0 0 0 0.6 0"/><feBlend in2="D"/></filter><linearGradient id="D" x1=".083" y1="0" x2=".083" y2="17.783" gradientUnits="userSpaceOnUse"><stop stop-color="#e7e6e7"/><stop offset="1" stop-color="#d1d0d1"/></linearGradient></defs></svg>