<svg width="416" height="416" viewBox="0 0 416 416" fill="none" xmlns="http://www.w3.org/2000/svg">
<circle cx="208" cy="208" r="208" fill="#FFF2F6"/>
<ellipse cx="207.624" cy="208" rx="152.058" ry="152.433" fill="#FFE7EE"/>
<path d="M32.8999 214.039C32.8999 214.039 32.5279 209.491 38.3776 202.59C44.2272 195.69 48.0309 191.719 48.0309 191.719C48.0309 191.719 52.0764 201.949 46.6824 208.784C42.6956 213.635 38.3093 218.142 33.5695 222.26L32.8999 214.039Z" fill="#FD3E72"/>
<path d="M44.4833 241.706C44.4833 241.706 44.1113 237.159 49.961 230.258C55.8107 223.357 59.6051 219.386 59.6051 219.386C59.6051 219.386 63.6506 229.616 58.2566 236.452C54.2717 241.292 49.8885 245.79 45.1529 249.9L44.4833 241.706Z" fill="#FD3E72"/>
<path d="M33.9407 221.767C33.9407 221.767 33.0851 217.285 25.5707 212.197C18.0564 207.11 13.3692 204.292 13.3692 204.292C13.3692 204.292 12.1881 215.211 19.2189 220.381C24.3486 223.984 29.7708 227.151 35.4287 229.849L33.9407 221.767Z" fill="#FD3E72"/>
<path d="M47.8697 254.419C47.8697 254.419 46.5491 250.048 38.5697 245.77C30.5903 241.492 25.6055 239.186 25.6055 239.186C25.6055 239.186 25.6055 250.169 33.1106 254.568C38.5965 257.602 44.3267 260.172 50.2412 262.25L47.8697 254.419Z" fill="#FD3E72"/>
<path d="M48.7928 291.192C48.7928 291.192 48.4208 286.644 41.5201 280.794C34.6195 274.945 30.2299 271.643 30.2299 271.643C30.2299 271.643 27.9049 282.375 34.3498 288.262C39.0698 292.398 44.1282 296.131 49.4717 299.422L48.7928 291.192Z" fill="#FD3E72"/>
<path d="M49.6263 300.119C49.6263 300.119 48.6127 295.665 53.4208 288.029C58.2289 280.394 61.4188 275.939 61.4188 275.939C61.4188 275.939 66.8779 285.472 62.5162 293.024C59.2602 298.382 55.5614 303.459 51.4584 308.201L49.6263 300.119Z" fill="#FD3E72"/>
<path d="M58.0818 326.085C58.0818 326.085 57.7098 321.538 50.8092 315.688C43.9087 309.838 39.5191 306.537 39.5191 306.537C39.5191 306.537 37.1941 317.269 43.639 323.156C48.359 327.292 53.4173 331.025 58.7607 334.316L58.0818 326.085Z" fill="#FD3E72"/>
<path d="M55.8036 350.442C55.8036 350.442 56.5941 345.941 51.4047 338.538C46.2152 331.135 42.8021 326.82 42.8021 326.82C42.8021 326.82 37.8359 336.613 42.5789 343.941C46.1016 349.129 50.0524 354.013 54.39 358.542L55.8036 350.442Z" fill="#FD3E72"/>
<path d="M32.2245 212.96C32.9394 217.66 33.9111 222.317 35.1354 226.91C38.7252 239.716 45.7095 247.593 49.197 259.144C52.6845 270.694 46.6953 286.43 49.8759 301.375C53.0565 316.32 59.6223 324.225 58.776 334.446C57.9297 344.667 51.336 372.678 51.336 372.678" stroke="#263238" stroke-width="0.53" stroke-linecap="round" stroke-linejoin="round"/>
<path d="M34.2529 224.78L26.9524 220.074" stroke="#263238" stroke-width="0.53" stroke-linecap="round" stroke-linejoin="round"/>
<path d="M33.4267 218.744L35.8818 213.397" stroke="#263238" stroke-width="0.53" stroke-linecap="round" stroke-linejoin="round"/>
<path d="M48.7686 258.642C48.7686 258.642 42.6678 254.801 36.3996 250.979" stroke="#263238" stroke-width="0.53" stroke-linecap="round" stroke-linejoin="round"/>
<path d="M45.1555 249.899C45.1555 249.899 49.1731 240.116 54.0928 233.438" stroke="#263238" stroke-width="0.53" stroke-linecap="round" stroke-linejoin="round"/>
<path d="M49.0967 297.692C45.3166 291.913 40.7178 286.713 35.4443 282.254" stroke="#263238" stroke-width="0.53" stroke-linecap="round" stroke-linejoin="round"/>
<path d="M50.7358 303.988C52.1423 299.739 53.8999 295.614 55.9903 291.656C58.9384 286.43 59.3662 285.751 59.3662 285.751" stroke="#263238" stroke-width="0.53" stroke-linecap="round" stroke-linejoin="round"/>
<path d="M58.7725 334.446C57.0199 330.949 55.0021 327.591 52.7367 324.402C50.4876 321.458 47.9991 318.705 45.2967 316.171" stroke="#263238" stroke-width="0.53" stroke-linecap="round" stroke-linejoin="round"/>
<path d="M54.3875 358.533C54.4396 355.051 53.5598 351.619 51.8393 348.591C49.0493 344.155 45.8501 338.315 44.5295 336.008" stroke="#263238" stroke-width="0.53" stroke-linecap="round" stroke-linejoin="round"/>
<path d="M79.6591 271.42C79.6591 271.42 79.9195 268.528 76.2274 264.11C72.5353 259.693 70.1359 257.145 70.1359 257.145C70.1359 257.145 67.5133 263.655 70.9171 268.016C73.4306 271.116 76.1993 274 79.1941 276.637L79.6591 271.42Z" fill="#C6FF00"/>
<path d="M78.9386 276.33C78.9386 276.33 79.5059 273.475 84.2861 270.276C89.0663 267.077 92.0888 265.3 92.0888 265.3C92.0888 265.3 92.7863 272.257 88.2944 275.53C85.0131 277.8 81.5476 279.791 77.9341 281.482L78.9386 276.33Z" fill="#C6FF00"/>
<path d="M62.4809 349.81C62.4809 349.81 61.9136 346.954 57.124 343.765C52.3345 340.575 49.3213 338.798 49.3213 338.798C49.3213 338.798 48.6331 345.755 53.1343 349.028C56.4189 351.295 59.8876 353.283 63.5039 354.971L62.4809 349.81Z" fill="#FD3E72"/>
<path d="M78.7211 278.255L83.3896 275.289" stroke="#263238" stroke-width="0.53" stroke-linecap="round" stroke-linejoin="round"/>
<path d="M79.2725 274.405L77.7379 270.992" stroke="#263238" stroke-width="0.53" stroke-linecap="round" stroke-linejoin="round"/>
<path d="M63.2373 352.841C61.492 351.006 59.5874 349.328 57.5457 347.829C56.2573 347.036 55.035 346.14 53.8907 345.15" stroke="#263238" stroke-width="0.53" stroke-linecap="round" stroke-linejoin="round"/>
<path d="M72.1279 288.978C72.1279 288.978 72.3883 286.086 68.6961 281.668C65.004 277.251 62.6046 274.703 62.6046 274.703C62.6046 274.703 59.982 281.213 63.3858 285.574C65.8994 288.674 68.6681 291.558 71.6629 294.195L72.1279 288.978Z" fill="#FD3E72"/>
<path d="M69.9145 297.05C69.9145 297.05 70.7794 294.26 75.8665 291.591C80.9537 288.922 84.1436 287.462 84.1436 287.462C84.1436 287.462 84.1436 294.446 79.2983 297.218C75.7968 299.129 72.1415 300.743 68.3707 302.044L69.9145 297.05Z" fill="#FD3E72"/>
<path d="M69.1756 320.45C69.1756 320.45 69.436 317.557 73.8256 313.865C78.2152 310.173 81.0517 308.09 81.0517 308.09C81.0517 308.09 82.4839 314.925 78.3547 318.645C75.332 321.248 72.0967 323.594 68.6827 325.658L69.1756 320.45Z" fill="#FD3E72"/>
<path d="M68.5921 326.122C68.5921 326.122 69.2617 323.332 66.2393 318.394C63.2168 313.456 61.1987 310.638 61.1987 310.638C61.1987 310.638 57.6833 316.673 60.4268 321.509C62.4737 324.935 64.8037 328.182 67.3925 331.219L68.5921 326.122Z" fill="#FD3E72"/>
<path d="M63.0859 342.611C63.0859 342.611 63.3463 339.719 67.7359 336.027C72.1254 332.335 74.9619 330.251 74.9619 330.251C74.9619 330.251 76.3941 337.087 72.2649 340.807C69.2422 343.41 66.007 345.756 62.593 347.819L63.0859 342.611Z" fill="#FD3E72"/>
<path d="M64.4211 358.114C64.4211 358.114 63.9375 355.25 67.2762 350.563C70.6149 345.875 72.8097 343.123 72.8097 343.123C72.8097 343.123 75.9252 349.381 72.8748 354.022C70.6104 357.307 68.0751 360.396 65.2953 363.257L64.4211 358.114Z" fill="#FD3E72"/>
<path d="M80.0693 270.713C79.5939 273.709 78.9543 276.677 78.1535 279.604C75.81 287.741 71.3274 292.717 69.0582 300.064C66.789 307.411 70.5183 317.445 68.4351 326.931C66.3519 336.417 62.1297 341.43 62.6226 347.931C63.1155 354.431 67.1703 372.297 67.1703 372.297" stroke="#263238" stroke-width="0.53" stroke-linecap="round" stroke-linejoin="round"/>
<path d="M69.3324 299.729C69.3324 299.729 73.2384 297.311 77.2373 294.911" stroke="#263238" stroke-width="0.53" stroke-linecap="round" stroke-linejoin="round"/>
<path d="M71.6631 294.186C70.1656 290.5 68.2959 286.975 66.083 283.668" stroke="#263238" stroke-width="0.53" stroke-linecap="round" stroke-linejoin="round"/>
<path d="M68.9454 324.56C71.3777 320.898 74.3287 317.609 77.7061 314.795" stroke="#263238" stroke-width="0.53" stroke-linecap="round" stroke-linejoin="round"/>
<path d="M67.874 328.577C66.9968 325.868 65.8956 323.236 64.5818 320.709C62.7218 317.371 62.4614 316.934 62.4614 316.934" stroke="#263238" stroke-width="0.53" stroke-linecap="round" stroke-linejoin="round"/>
<path d="M62.5985 347.931C63.7301 345.714 65.0297 343.587 66.4859 341.569C67.93 339.705 69.5257 337.963 71.2568 336.361" stroke="#263238" stroke-width="0.53" stroke-linecap="round" stroke-linejoin="round"/>
<path d="M65.2833 363.276C65.2698 361.06 65.8477 358.88 66.9573 356.961C68.7429 354.171 70.8168 350.451 71.6631 348.991" stroke="#263238" stroke-width="0.53" stroke-linecap="round" stroke-linejoin="round"/>
<path d="M380.71 349.81C380.71 349.81 380.143 346.954 375.354 343.765C370.564 340.575 367.551 338.798 367.551 338.798C367.551 338.798 366.863 345.755 371.364 349.028C374.648 351.295 378.117 353.283 381.733 354.971L380.71 349.81Z" fill="#FD3E72"/>
<path d="M382.636 358.114C382.636 358.114 382.152 355.25 385.491 350.563C388.83 345.875 391.025 343.123 391.025 343.123C391.025 343.123 394.14 349.381 391.09 354.022C388.825 357.307 386.29 360.396 383.51 363.257L382.636 358.114Z" fill="#FD3E72"/>
<path d="M397.858 271.42C397.858 271.42 398.119 268.528 394.427 264.11C390.735 259.693 388.335 257.145 388.335 257.145C388.335 257.145 385.712 263.655 389.116 268.016C391.63 271.116 394.399 274 397.393 276.637L397.858 271.42Z" fill="#FD3E72"/>
<path d="M390.343 288.979C390.343 288.979 390.603 286.086 386.911 281.669C383.219 277.251 380.82 274.703 380.82 274.703C380.82 274.703 378.197 281.213 381.601 285.575C384.114 288.674 386.883 291.558 389.878 294.196L390.343 288.979Z" fill="#FD3E72"/>
<path d="M397.153 276.331C397.153 276.331 397.721 273.475 402.501 270.276C407.281 267.077 410.304 265.301 410.304 265.301C410.304 265.301 411.001 272.257 406.509 275.531C403.228 277.8 399.762 279.791 396.149 281.483L397.153 276.331Z" fill="#FD3E72"/>
<path d="M388.129 297.051C388.129 297.051 388.985 294.261 394.081 291.592C399.178 288.923 402.358 287.453 402.358 287.453C402.358 287.453 402.358 294.437 397.513 297.209C394 299.125 390.332 300.743 386.548 302.045L388.129 297.051Z" fill="#FD3E72"/>
<path d="M387.375 320.45C387.375 320.45 387.635 317.557 392.025 313.865C396.414 310.173 399.251 308.09 399.251 308.09C399.251 308.09 400.683 314.925 396.554 318.645C393.531 321.248 390.296 323.594 386.882 325.658L387.375 320.45Z" fill="#FD3E72"/>
<path d="M386.807 326.123C386.807 326.123 387.477 323.333 384.454 318.394C381.432 313.456 379.414 310.61 379.414 310.61C379.414 310.61 375.898 316.646 378.642 321.482C380.693 324.917 383.029 328.175 385.626 331.219L386.807 326.123Z" fill="#FD3E72"/>
<path d="M381.297 342.612C381.297 342.612 381.557 339.719 385.947 336.027C390.336 332.335 393.173 330.252 393.173 330.252C393.173 330.252 394.605 337.087 390.476 340.807C387.462 343.406 384.236 345.749 380.832 347.81L381.297 342.612Z" fill="#FD3E72"/>
<path d="M398.284 270.713C397.809 273.71 397.169 276.678 396.368 279.604C394.025 287.742 389.542 292.717 387.273 300.064C385.004 307.411 388.733 317.446 386.65 326.932C384.567 336.418 380.344 341.431 380.837 347.931C381.33 354.432 385.385 372.297 385.385 372.297" stroke="#263238" stroke-width="0.53" stroke-linecap="round" stroke-linejoin="round"/>
<path d="M396.936 278.256L401.604 275.289" stroke="#263238" stroke-width="0.53" stroke-linecap="round" stroke-linejoin="round"/>
<path d="M397.487 274.405L395.953 270.992" stroke="#263238" stroke-width="0.53" stroke-linecap="round" stroke-linejoin="round"/>
<path d="M387.543 299.729C387.543 299.729 391.449 297.311 395.448 294.912" stroke="#263238" stroke-width="0.53" stroke-linecap="round" stroke-linejoin="round"/>
<path d="M389.89 294.186C388.392 290.5 386.523 286.975 384.31 283.668" stroke="#263238" stroke-width="0.53" stroke-linecap="round" stroke-linejoin="round"/>
<path d="M387.16 324.56C389.593 320.898 392.544 317.609 395.921 314.795" stroke="#263238" stroke-width="0.53" stroke-linecap="round" stroke-linejoin="round"/>
<path d="M386.085 328.578C385.223 325.87 384.137 323.238 382.839 320.71C380.979 317.371 380.719 316.934 380.719 316.934" stroke="#263238" stroke-width="0.53" stroke-linecap="round" stroke-linejoin="round"/>
<path d="M381.437 352.842C379.692 350.999 377.787 349.315 375.745 347.81C374.457 347.017 373.234 346.122 372.09 345.132" stroke="#263238" stroke-width="0.53" stroke-linecap="round" stroke-linejoin="round"/>
<path d="M380.828 347.931C381.953 345.712 383.247 343.582 384.697 341.561C386.141 339.696 387.737 337.954 389.468 336.353" stroke="#263238" stroke-width="0.53" stroke-linecap="round" stroke-linejoin="round"/>
<path d="M383.514 363.276C383.5 361.06 384.078 358.88 385.188 356.961C386.973 354.171 389.047 350.451 389.894 348.991" stroke="#263238" stroke-width="0.53" stroke-linecap="round" stroke-linejoin="round"/>
<path d="M30.9312 373.506H404.894" stroke="#263238" stroke-width="1.06" stroke-linejoin="round"/>
<path d="M94.0397 373.571L211.908 373.048C218.715 373.017 225.232 370.283 230.025 365.446C234.818 360.609 237.495 354.065 237.467 347.254L236.216 51.5806C236.203 48.2063 235.525 44.8676 234.222 41.7553C232.919 38.6431 231.015 35.8184 228.62 33.4427C226.225 31.0669 223.385 29.1868 220.263 27.9098C217.142 26.6328 213.799 25.9839 210.426 26.0003L92.5582 26.5417C85.7533 26.5863 79.2432 29.3264 74.453 34.1622C69.6628 38.998 66.9826 45.5356 66.9992 52.3439L68.25 347.991C68.2628 351.365 68.9402 354.704 70.2436 357.816C71.5469 360.928 73.4505 363.753 75.8457 366.129C78.2408 368.505 81.0805 370.385 84.2023 371.662C87.3242 372.939 90.6671 373.588 94.0397 373.571Z" fill="#403D49"/>
<path d="M93.0749 36.7492L115.928 36.6515C117.433 36.6795 118.866 37.3035 119.912 38.3867C120.958 39.4698 121.532 40.9238 121.508 42.4297V46.5748C121.494 47.3204 121.627 48.0614 121.9 48.7555C122.172 49.4496 122.579 50.0832 123.096 50.6198C123.614 51.1565 124.232 51.5859 124.915 51.8833C125.599 52.1807 126.334 52.3403 127.08 52.353L171.633 52.14C172.378 52.1204 173.113 51.954 173.794 51.6503C174.476 51.3466 175.091 50.9116 175.604 50.37C176.117 49.8285 176.519 49.191 176.786 48.4941C177.053 47.7972 177.18 47.0546 177.16 46.3085V42.1635C177.122 40.6574 177.682 39.1977 178.718 38.1045C179.754 37.0112 181.181 36.3738 182.687 36.332H190.724L210.668 36.2077C213.03 36.1961 215.371 36.6502 217.557 37.5443C219.743 38.4383 221.732 39.7547 223.409 41.4182C225.087 43.0816 226.42 45.0596 227.333 47.2389C228.246 49.4183 228.721 51.7563 228.73 54.1193L229.999 342.692C230.018 347.463 228.143 352.046 224.786 355.435C221.429 358.823 216.865 360.74 212.096 360.763L94.4677 361.305C92.105 361.315 89.7634 360.86 87.5765 359.965C85.3897 359.07 83.4004 357.753 81.7223 356.089C80.0442 354.425 78.7102 352.447 77.7964 350.267C76.8825 348.087 76.4068 345.748 76.3963 343.384L75.1809 54.8116C75.1704 52.4501 75.6249 50.1096 76.5185 47.9239C77.4121 45.7381 78.7272 43.7498 80.3888 42.0726C82.0504 40.3953 84.026 39.0619 86.2026 38.1485C88.3793 37.2351 90.7145 36.7596 93.0749 36.7492Z" fill="#FAFAFA"/>
<rect x="114.999" y="354" width="75" height="2" rx="1" fill="#111111"/>
<path d="M125.015 280H126.714V271.475H125.015V280Z" fill="#5B5863"/>
<path d="M131.97 274.042C131.606 274.042 131.261 274.118 130.933 274.264C130.604 274.411 130.323 274.622 130.089 274.897H130.071V274.141H128.501V280H130.071V277.053C130.071 276.543 130.188 276.151 130.429 275.87C130.669 275.594 130.991 275.454 131.401 275.454C131.782 275.454 132.063 275.565 132.251 275.782C132.433 276.004 132.526 276.379 132.526 276.918V280.006H134.097V276.526C134.097 276.086 134.044 275.706 133.944 275.377C133.839 275.055 133.692 274.797 133.499 274.604C133.306 274.417 133.083 274.276 132.831 274.182C132.579 274.088 132.292 274.042 131.97 274.042Z" fill="#5B5863"/>
<path d="M137.495 280.1C138.233 280.1 138.796 279.936 139.183 279.596C139.569 279.262 139.769 278.823 139.769 278.278C139.769 278.137 139.757 278.002 139.733 277.885C139.657 277.499 139.429 277.182 139.054 276.948C138.831 276.807 138.397 276.62 137.753 276.379C137.442 276.262 137.22 276.157 137.079 276.063C136.938 275.969 136.874 275.864 136.874 275.747C136.874 275.606 136.933 275.5 137.05 275.424C137.167 275.348 137.296 275.307 137.448 275.307C137.671 275.307 137.905 275.36 138.151 275.465C138.397 275.571 138.626 275.723 138.849 275.928L139.61 274.78C139.276 274.522 138.937 274.334 138.597 274.217C138.251 274.1 137.876 274.042 137.466 274.042C137.067 274.042 136.704 274.118 136.388 274.258C136.071 274.405 135.819 274.61 135.632 274.879C135.444 275.149 135.356 275.454 135.356 275.799C135.356 275.987 135.374 276.157 135.421 276.309C135.462 276.467 135.526 276.608 135.608 276.725C135.69 276.848 135.784 276.959 135.89 277.053C135.995 277.153 136.118 277.241 136.265 277.323C136.405 277.405 136.546 277.469 136.687 277.528C136.827 277.586 136.985 277.645 137.161 277.704C137.437 277.797 137.642 277.868 137.782 277.926C137.923 277.985 138.028 278.049 138.11 278.12C138.187 278.19 138.228 278.266 138.228 278.354C138.228 278.5 138.163 278.618 138.034 278.706C137.905 278.799 137.729 278.84 137.507 278.84C136.909 278.84 136.37 278.612 135.884 278.155L135.122 279.239C135.772 279.813 136.563 280.1 137.495 280.1Z" fill="#5B5863"/>
<path d="M142.804 280.1C143.161 280.1 143.454 280.071 143.683 280.006C143.905 279.948 144.134 279.854 144.356 279.731L143.952 278.477C143.683 278.618 143.437 278.682 143.214 278.682C143.026 278.682 142.897 278.624 142.815 278.5C142.733 278.383 142.698 278.19 142.698 277.932V275.442H144.292V274.141H142.698V272.055L141.128 272.225V274.141H140.437V275.442H141.128V278.149C141.128 278.793 141.274 279.28 141.573 279.608C141.872 279.936 142.282 280.1 142.804 280.1Z" fill="#5B5863"/>
<path d="M149.378 274.141V274.803H149.354C148.915 274.299 148.341 274.042 147.626 274.042C147.239 274.042 146.87 274.118 146.53 274.27C146.19 274.422 145.897 274.633 145.651 274.897C145.405 275.167 145.218 275.489 145.077 275.864C144.937 276.245 144.866 276.655 144.866 277.088C144.866 277.534 144.937 277.95 145.077 278.325C145.218 278.7 145.411 279.022 145.657 279.28C145.903 279.538 146.202 279.743 146.548 279.883C146.894 280.03 147.269 280.1 147.673 280.1C148.423 280.1 149.003 279.831 149.425 279.292H149.454V280H150.948V274.141H149.378ZM147.96 278.694C147.515 278.694 147.157 278.547 146.876 278.249C146.595 277.956 146.46 277.569 146.46 277.094C146.46 276.602 146.601 276.209 146.888 275.905C147.175 275.606 147.532 275.454 147.966 275.454C148.388 275.454 148.739 275.612 149.021 275.922C149.302 276.239 149.442 276.625 149.442 277.094C149.442 277.569 149.296 277.956 149.015 278.249C148.728 278.547 148.376 278.694 147.96 278.694Z" fill="#5B5863"/>
<path d="M152.56 280H154.13V271.165H152.56V280Z" fill="#5B5863"/>
<path d="M155.864 280H157.435V271.165H155.864V280Z" fill="#5B5863"/>
<path d="M159.954 273.315C160.218 273.315 160.446 273.221 160.64 273.034C160.827 272.846 160.927 272.624 160.927 272.354C160.927 272.096 160.827 271.868 160.64 271.68C160.446 271.493 160.218 271.399 159.954 271.399C159.685 271.399 159.45 271.493 159.263 271.68C159.075 271.868 158.981 272.096 158.981 272.354C158.981 272.53 159.022 272.694 159.11 272.84C159.192 272.987 159.31 273.104 159.462 273.186C159.614 273.274 159.778 273.315 159.954 273.315ZM159.169 280H160.739V274.141H159.169V280Z" fill="#5B5863"/>
<path d="M165.872 274.042C165.509 274.042 165.163 274.118 164.835 274.264C164.507 274.411 164.226 274.622 163.991 274.897H163.974V274.141H162.403V280H163.974V277.053C163.974 276.543 164.091 276.151 164.331 275.87C164.571 275.594 164.894 275.454 165.304 275.454C165.685 275.454 165.966 275.565 166.153 275.782C166.335 276.004 166.429 276.379 166.429 276.918V280.006H167.999V276.526C167.999 276.086 167.946 275.706 167.847 275.377C167.741 275.055 167.595 274.797 167.401 274.604C167.208 274.417 166.985 274.276 166.733 274.182C166.481 274.088 166.194 274.042 165.872 274.042Z" fill="#5B5863"/>
<path d="M173.659 274.141V274.745H173.63C173.401 274.516 173.138 274.34 172.833 274.223C172.528 274.106 172.212 274.042 171.878 274.042C171.362 274.042 170.894 274.17 170.483 274.422C170.067 274.68 169.745 275.032 169.511 275.483C169.276 275.94 169.165 276.45 169.165 277.012C169.165 277.575 169.282 278.073 169.522 278.512C169.763 278.952 170.097 279.292 170.519 279.532C170.94 279.778 171.421 279.895 171.96 279.895C172.663 279.895 173.231 279.667 173.665 279.209H173.694V279.801C173.694 280.176 173.548 280.487 173.261 280.733C172.968 280.979 172.563 281.102 172.036 281.102C171.685 281.102 171.362 281.055 171.063 280.961C170.759 280.868 170.448 280.733 170.132 280.557L169.769 281.881C170.454 282.28 171.257 282.473 172.171 282.473C172.61 282.473 173.003 282.426 173.349 282.321C173.694 282.221 173.987 282.081 174.222 281.893C174.456 281.711 174.649 281.489 174.802 281.225C174.954 280.961 175.06 280.674 175.13 280.358C175.194 280.047 175.229 279.702 175.229 279.327V274.141H173.659ZM172.247 278.471C172.077 278.471 171.919 278.454 171.767 278.407C171.614 278.36 171.479 278.295 171.356 278.208C171.233 278.125 171.128 278.02 171.04 277.897C170.946 277.78 170.876 277.639 170.829 277.481C170.782 277.323 170.759 277.153 170.759 276.965C170.759 276.526 170.894 276.168 171.175 275.887C171.45 275.612 171.808 275.471 172.247 275.471C172.669 275.471 173.021 275.612 173.302 275.881C173.583 276.157 173.729 276.514 173.729 276.954C173.729 277.399 173.589 277.762 173.313 278.043C173.032 278.331 172.681 278.471 172.247 278.471Z" fill="#5B5863"/>
<g filter="url(#filter0_d_9231:2568)">
<path d="M126.164 114H172.34C177.122 114 180.999 117.879 180.999 122.663V168.862C180.999 173.647 177.122 177.525 172.34 177.525H126.164C121.382 177.525 117.505 173.647 117.505 168.862V122.663C117.505 117.879 121.382 114 126.164 114Z" fill="white"/>
</g>
<path d="M147.968 146.002H142.413C142.161 146.002 141.969 146.224 142.015 146.468C142.023 146.522 142.031 146.575 142.038 146.629C142.077 146.843 142.138 147.049 142.222 147.255C142.352 147.569 142.559 147.844 142.842 148.088C143.117 148.333 143.507 148.447 144.005 148.447C144.502 148.447 144.884 148.325 145.168 148.088C145.389 147.897 145.558 147.683 145.688 147.454C145.757 147.332 145.894 147.255 146.032 147.255H147.585C147.868 147.255 148.06 147.538 147.968 147.798C147.899 147.996 147.815 148.188 147.715 148.356C147.539 148.669 147.348 148.944 147.134 149.173C146.92 149.402 146.698 149.594 146.453 149.746C146.208 149.899 145.979 150.021 145.749 150.121C145.191 150.335 144.609 150.449 143.989 150.449C143.178 150.434 142.459 150.266 141.832 149.945C141.564 149.8 141.304 149.616 141.044 149.395C140.784 149.173 140.554 148.891 140.355 148.554C140.156 148.218 139.995 147.813 139.873 147.339C139.751 146.866 139.689 146.323 139.689 145.689C139.689 145.062 139.751 144.512 139.873 144.038C139.995 143.564 140.156 143.159 140.355 142.816C140.554 142.472 140.784 142.189 141.044 141.96C141.304 141.73 141.564 141.547 141.832 141.402C142.451 141.066 143.163 140.89 143.966 140.859C143.982 140.859 143.997 140.859 144.012 140.859C144.67 140.89 145.282 141.027 145.856 141.272C146.101 141.379 146.346 141.524 146.591 141.7C146.835 141.876 147.065 142.09 147.279 142.349C147.493 142.609 147.677 142.915 147.838 143.274C147.998 143.633 148.121 144.046 148.19 144.512C148.213 144.695 148.236 144.879 148.251 145.07C148.266 145.261 148.282 145.467 148.282 145.689C148.289 145.673 148.335 146.002 147.968 146.002ZM145.321 144.497C145.611 144.497 145.818 144.191 145.688 143.931C145.688 143.931 145.688 143.924 145.68 143.924C145.588 143.733 145.466 143.557 145.305 143.396C145.145 143.244 144.961 143.114 144.747 143.022C144.533 142.93 144.272 142.884 143.989 142.884C143.699 142.884 143.446 142.93 143.232 143.022C143.018 143.114 142.826 143.236 142.673 143.396C142.513 143.557 142.39 143.725 142.291 143.924V143.931C142.161 144.199 142.367 144.504 142.658 144.504H145.321V144.497Z" fill="#A12B52"/>
<path d="M138.579 137C137.355 137 136.368 137.986 136.368 139.209V145.605C136.368 145.872 136.353 146.14 136.322 146.422C136.292 146.697 136.215 146.95 136.093 147.179C135.97 147.408 135.787 147.599 135.542 147.752C135.297 147.905 134.945 147.981 134.501 147.981C134.058 147.981 133.706 147.905 133.461 147.752C133.216 147.599 133.032 147.408 132.91 147.179C132.788 146.95 132.711 146.697 132.68 146.422C132.65 146.147 132.634 145.872 132.634 145.605V139.01C131.41 139.01 130.423 139.996 130.423 141.219V145.597C130.423 145.865 130.408 146.132 130.377 146.415C130.347 146.69 130.27 146.942 130.148 147.171C130.026 147.4 129.842 147.592 129.597 147.744C129.352 147.897 129 147.974 128.557 147.974C128.113 147.974 127.761 147.897 127.516 147.744C127.271 147.592 127.088 147.4 126.965 147.171C126.843 146.942 126.766 146.69 126.736 146.415C126.705 146.14 126.69 145.865 126.69 145.597V141.02C125.465 141.02 124.479 142.013 124.479 143.228V145.597C124.479 146.224 124.54 146.774 124.662 147.248C124.785 147.721 124.938 148.126 125.121 148.47C125.312 148.814 125.527 149.097 125.772 149.326C126.016 149.555 126.269 149.739 126.521 149.884C127.11 150.22 127.791 150.404 128.549 150.426C129.322 150.404 130.003 150.22 130.599 149.884C130.852 149.739 131.104 149.555 131.341 149.326C131.403 149.265 131.464 149.204 131.525 149.135C131.586 149.204 131.648 149.265 131.709 149.326C131.954 149.555 132.206 149.739 132.459 149.884C133.048 150.22 133.729 150.404 134.486 150.426C135.259 150.404 135.94 150.22 136.537 149.884C136.789 149.739 137.041 149.555 137.279 149.326C137.523 149.097 137.738 148.814 137.929 148.47C138.12 148.126 138.273 147.721 138.388 147.248C138.503 146.774 138.556 146.231 138.556 145.597L138.579 137Z" fill="#A12B52"/>
<path d="M154.982 149.869C154.921 150.044 154.761 150.167 154.569 150.167H153.406H152.243C152.06 150.167 151.891 150.044 151.83 149.869L149.129 141.593C149.038 141.31 149.244 141.028 149.543 141.028H150.851C151.035 141.028 151.203 141.15 151.264 141.326L152.993 146.606C153.123 147.003 153.682 147.003 153.812 146.606L154.806 143.565L156.474 138.46C156.842 137.352 158.035 136.741 159.145 137.108L154.982 149.869Z" fill="#EF4273"/>
<path d="M165.649 142.755C165.45 142.411 165.221 142.128 164.961 141.899C164.701 141.669 164.44 141.486 164.173 141.341C163.545 141.005 162.834 140.821 162.046 140.798C161.288 140.798 160.645 140.913 160.118 141.135C159.59 141.356 159.154 141.677 158.809 142.09C158.465 142.502 158.22 143.007 158.059 143.603C157.906 144.199 157.822 144.871 157.822 145.628V152.658C157.822 152.956 158.059 153.193 158.358 153.193H159.429C159.727 153.193 159.965 152.956 159.965 152.658V149.12C160.079 149.28 160.209 149.418 160.347 149.54C160.661 149.808 160.967 149.999 161.265 150.113C161.602 150.243 161.946 150.32 162.306 150.342C162.336 150.342 162.359 150.342 162.39 150.342C163.117 150.327 163.767 150.159 164.333 149.838C164.586 149.693 164.831 149.51 165.068 149.288C165.305 149.066 165.512 148.784 165.703 148.447C165.886 148.111 166.039 147.706 166.154 147.24C166.269 146.774 166.323 146.224 166.323 145.597C166.323 144.971 166.261 144.428 166.131 143.954C166.009 143.496 165.848 143.091 165.649 142.755ZM164.035 146.476C163.989 146.789 163.89 147.08 163.744 147.347C163.599 147.614 163.392 147.844 163.124 148.019C162.857 148.203 162.497 148.287 162.053 148.287C161.61 148.287 161.25 148.195 160.982 148.019C160.714 147.836 160.5 147.614 160.347 147.347C160.194 147.08 160.095 146.789 160.049 146.476C160.003 146.163 159.98 145.872 159.98 145.612C159.98 145.292 160.003 144.971 160.041 144.65C160.087 144.329 160.171 144.046 160.309 143.786C160.447 143.526 160.653 143.32 160.929 143.167C161.204 143.014 161.579 142.93 162.046 142.93C162.489 142.93 162.849 143.022 163.117 143.198C163.385 143.381 163.599 143.603 163.737 143.87C163.882 144.138 163.974 144.436 164.027 144.741C164.073 145.055 164.096 145.345 164.096 145.605C164.104 145.872 164.081 146.163 164.035 146.476Z" fill="#EF4273"/>
<path d="M174.722 143.58C174.538 143.029 174.301 142.578 174.01 142.219C173.72 141.86 173.406 141.585 173.069 141.394C172.733 141.203 172.411 141.058 172.113 140.974C171.815 140.882 171.547 140.836 171.325 140.821C171.103 140.806 170.973 140.806 170.935 140.806C170.889 140.806 170.751 140.813 170.537 140.821C170.323 140.836 170.063 140.882 169.764 140.974C169.466 141.065 169.144 141.203 168.808 141.394C168.471 141.585 168.157 141.86 167.867 142.219C167.576 142.578 167.339 143.037 167.155 143.58C166.972 144.13 166.872 144.802 166.872 145.604V149.685C166.872 149.952 167.086 150.166 167.354 150.166H168.586C168.854 150.166 169.068 149.952 169.068 149.685V145.612C169.068 145.345 169.091 145.077 169.137 144.802C169.183 144.527 169.274 144.275 169.405 144.046C169.535 143.816 169.726 143.625 169.963 143.48C170.2 143.327 170.522 143.259 170.919 143.259C171.317 143.259 171.639 143.335 171.876 143.48C172.113 143.633 172.304 143.816 172.434 144.046C172.564 144.275 172.656 144.527 172.702 144.802C172.748 145.077 172.771 145.352 172.771 145.612V149.685C172.771 149.952 172.985 150.166 173.253 150.166H174.515C174.783 150.166 174.997 149.952 174.997 149.685V145.612C174.997 144.802 174.906 144.13 174.722 143.58Z" fill="#EF4273"/>
<path d="M198.698 136.86L197.172 139.958L193.748 140.455L196.223 142.869L195.637 146.287L198.698 144.671L201.768 146.287L201.182 142.869L203.657 140.455L200.233 139.958L198.698 136.86Z" fill="#FD3E72"/>
<path d="M99.7887 106.097L98.5999 108.502L95.9561 108.884L97.8724 110.748L97.4199 113.393L99.7887 112.141L102.148 113.393L101.696 110.748L103.612 108.884L100.969 108.502L99.7887 106.097Z" fill="#FD3E72"/>
<path d="M102.113 163.666L101.084 165.059L99.354 164.997L100.365 166.408L99.7799 168.032L101.421 167.509L102.787 168.574L102.805 166.843L104.233 165.876L102.592 165.325L102.113 163.666Z" fill="#FD3E72"/>
<path d="M199.877 116.259C200.199 116.259 200.512 116.164 200.779 115.986C201.046 115.807 201.255 115.553 201.377 115.257C201.5 114.96 201.532 114.633 201.47 114.318C201.407 114.003 201.253 113.714 201.025 113.486C200.798 113.259 200.509 113.105 200.194 113.042C199.879 112.979 199.553 113.011 199.256 113.134C198.96 113.257 198.706 113.466 198.528 113.733C198.349 114 198.254 114.314 198.254 114.635C198.253 114.849 198.294 115.06 198.375 115.258C198.456 115.456 198.576 115.635 198.727 115.786C198.878 115.937 199.057 116.057 199.255 116.138C199.452 116.219 199.664 116.261 199.877 116.259ZM199.877 113.907C200.023 113.907 200.166 113.951 200.287 114.032C200.409 114.113 200.503 114.229 200.559 114.364C200.614 114.499 200.628 114.648 200.599 114.791C200.57 114.934 200.499 115.065 200.395 115.168C200.291 115.271 200.159 115.34 200.016 115.368C199.872 115.395 199.724 115.379 199.59 115.322C199.455 115.265 199.341 115.169 199.261 115.047C199.181 114.924 199.139 114.781 199.141 114.635C199.136 114.536 199.152 114.437 199.187 114.343C199.222 114.25 199.275 114.166 199.344 114.094C199.413 114.023 199.496 113.966 199.588 113.928C199.68 113.889 199.778 113.87 199.877 113.872V113.907Z" fill="#FD3E72"/>
<path d="M108.34 138.653C108.661 138.653 108.975 138.558 109.242 138.379C109.509 138.201 109.717 137.947 109.84 137.65C109.963 137.353 109.995 137.027 109.933 136.712C109.87 136.397 109.715 136.107 109.488 135.88C109.261 135.653 108.972 135.498 108.657 135.436C108.342 135.373 108.016 135.405 107.719 135.528C107.422 135.651 107.169 135.859 106.99 136.126C106.812 136.393 106.717 136.707 106.717 137.029C106.716 137.242 106.757 137.454 106.838 137.652C106.919 137.849 107.039 138.029 107.19 138.18C107.341 138.331 107.52 138.45 107.718 138.532C107.915 138.613 108.127 138.654 108.34 138.653ZM108.34 136.301C108.486 136.301 108.629 136.344 108.75 136.426C108.872 136.507 108.966 136.622 109.021 136.758C109.077 136.893 109.091 137.041 109.062 137.184C109.033 137.328 108.962 137.459 108.858 137.562C108.754 137.664 108.622 137.734 108.479 137.761C108.335 137.788 108.187 137.773 108.052 137.716C107.918 137.658 107.804 137.563 107.724 137.44C107.644 137.318 107.602 137.175 107.604 137.029C107.604 136.932 107.623 136.837 107.66 136.748C107.697 136.659 107.752 136.578 107.82 136.511C107.889 136.443 107.97 136.39 108.059 136.354C108.149 136.318 108.244 136.3 108.34 136.301Z" fill="#FD3E72"/>
<path d="M129.473 104.463C129.792 104.455 130.101 104.352 130.362 104.168C130.623 103.985 130.824 103.728 130.941 103.43C131.057 103.133 131.083 102.808 131.015 102.496C130.947 102.184 130.789 101.898 130.561 101.676C130.332 101.453 130.043 101.303 129.729 101.243C129.415 101.184 129.091 101.219 128.797 101.343C128.503 101.467 128.252 101.675 128.076 101.941C127.899 102.207 127.805 102.52 127.805 102.839C127.805 103.056 127.848 103.271 127.932 103.471C128.017 103.671 128.14 103.852 128.296 104.004C128.451 104.155 128.636 104.274 128.838 104.353C129.04 104.432 129.256 104.469 129.473 104.463ZM129.473 102.111C129.619 102.111 129.761 102.155 129.883 102.236C130.004 102.317 130.098 102.433 130.154 102.568C130.209 102.703 130.223 102.852 130.194 102.995C130.165 103.138 130.094 103.269 129.99 103.372C129.886 103.475 129.754 103.544 129.611 103.571C129.467 103.599 129.319 103.583 129.185 103.526C129.05 103.469 128.936 103.373 128.856 103.251C128.776 103.128 128.735 102.985 128.736 102.839C128.736 102.743 128.755 102.647 128.793 102.558C128.83 102.47 128.884 102.389 128.952 102.321C129.021 102.254 129.102 102.2 129.192 102.164C129.281 102.128 129.376 102.11 129.473 102.111Z" fill="#FD3E72"/>
<path d="M208.687 168.476C208.036 168.476 207.507 167.948 207.507 167.296C207.507 166.644 208.036 166.115 208.687 166.115C209.339 166.115 209.867 166.644 209.867 167.296C209.867 167.948 209.339 168.476 208.687 168.476Z" fill="#FD3E72"/>
<path d="M153.293 184.08C153.291 184.314 153.359 184.544 153.488 184.739C153.617 184.935 153.801 185.087 154.017 185.178C154.233 185.268 154.471 185.292 154.7 185.247C154.93 185.202 155.141 185.089 155.307 184.923C155.472 184.758 155.585 184.547 155.63 184.317C155.675 184.087 155.651 183.849 155.561 183.633C155.47 183.417 155.318 183.233 155.122 183.103C154.927 182.974 154.698 182.906 154.464 182.908C154.154 182.911 153.857 183.035 153.638 183.254C153.419 183.473 153.295 183.77 153.293 184.08Z" fill="#FD3E72"/>
<path d="M165.873 92.0812C165.221 92.0812 164.693 91.5527 164.693 90.9007C164.693 90.2487 165.221 89.7202 165.873 89.7202C166.524 89.7202 167.053 90.2487 167.053 90.9007C167.053 91.5527 166.524 92.0812 165.873 92.0812Z" fill="#E8505B"/>
<path d="M108.199 197.731H173.032V244.649H108.199V197.731Z" fill="#4F4B5A"/>
<path d="M137.803 197.731H194.324V244.649H137.803V197.731Z" fill="#5B5863"/>
<path d="M176.921 224.096C175.475 223.564 174.508 222.286 174.399 220.761C174.291 219.276 175.039 217.957 176.399 217.232L177.53 216.629L176.722 215.651C175.366 214.006 173.425 213.024 171.53 213.024C170.216 213.024 169.305 213.358 168.573 213.628C168.057 213.818 167.649 213.968 167.202 213.968C166.692 213.968 166.188 213.793 165.604 213.591C164.839 213.326 163.972 213.025 162.859 213.025C160.708 213.025 158.538 214.275 157.198 216.284C155.197 219.281 155.746 224.42 158.504 228.504C159.596 230.122 161.128 231.981 163.298 232C163.312 232 163.326 232 163.34 232C165.116 232 165.505 231.078 167.229 231.068C169.112 231.154 169.35 232.007 171.108 231.996C173.228 231.977 174.756 230.133 175.971 228.331C176.689 227.271 176.967 226.717 177.526 225.513L177.999 224.493L176.921 224.096Z" fill="#4A4852"/>
<path d="M170.161 210.381C170.864 209.504 171.397 208.266 171.203 207C170.055 207.077 168.715 207.787 167.931 208.713C167.22 209.553 166.633 210.799 166.861 212.011C168.113 212.049 169.409 211.321 170.161 210.381Z" fill="#4A4852"/>
<path d="M129.264 224.096C128.278 223.564 127.619 222.286 127.544 220.761C127.471 219.276 127.981 217.957 128.908 217.232L129.679 216.629L129.129 215.651C128.204 214.006 126.88 213.024 125.588 213.024C124.693 213.024 124.071 213.358 123.573 213.628C123.22 213.818 122.942 213.968 122.637 213.968C122.289 213.968 121.946 213.793 121.548 213.591C121.026 213.326 120.435 213.025 119.676 213.025C118.209 213.025 116.73 214.275 115.816 216.284C114.452 219.281 114.827 224.42 116.707 228.504C117.452 230.122 118.496 231.981 119.975 232C119.985 232 119.994 232 120.004 232C121.215 232 121.48 231.078 122.656 231.068C123.94 231.154 124.102 232.007 125.301 231.996C126.746 231.977 127.788 230.133 128.616 228.331C129.106 227.271 129.295 226.717 129.676 225.513L129.999 224.493L129.264 224.096Z" fill="#38353E"/>
<path d="M124.655 210.381C125.134 209.504 125.497 208.266 125.366 207C124.583 207.077 123.669 207.787 123.135 208.713C122.65 209.553 122.25 210.799 122.405 212.011C123.259 212.049 124.142 211.321 124.655 210.381Z" fill="#38353E"/>
<path d="M194.324 197.731L204.357 187.692H178.931L169.492 197.731H194.324Z" fill="#54505F"/>
<path d="M137.812 197.731L126.27 187.692H94.5981L108.198 197.731H137.812Z" fill="#5C5865"/>
<path d="M137.812 197.731C137.812 197.855 150.463 197.962 166.068 197.962C181.673 197.962 194.324 197.855 194.324 197.731C194.324 197.607 181.673 197.5 166.068 197.5C150.463 197.5 137.812 197.607 137.812 197.731Z" fill="#263238"/>
<path d="M202.861 294.585H98.5048C96.0158 294.585 93.998 296.604 93.998 299.094V299.307C93.998 301.797 96.0158 303.816 98.5048 303.816H202.861C205.35 303.816 207.368 301.797 207.368 299.307V299.094C207.368 296.604 205.35 294.585 202.861 294.585Z" fill="#E0E0E0"/>
<path d="M149.16 294.585H98.0243C95.5353 294.585 93.5176 296.604 93.5176 299.094V299.307C93.5176 301.797 95.5353 303.816 98.0243 303.816H149.16C151.649 303.816 153.667 301.797 153.667 299.307V299.094C153.667 296.604 151.649 294.585 149.16 294.585Z" fill="#FD3E72"/>
<path d="M214.063 363.178L211.517 372.941L182.96 372.675C182.96 372.675 186.863 369.728 201.217 369.941L202.61 363.178H214.063Z" fill="#FFBE9D"/>
<path d="M245.203 252.877L266.619 254.901L275.322 257.368C279.044 258.417 282.451 260.368 285.24 263.049L313.283 289.978L318.402 248.146L332.41 249.362L330.077 303.212C329.044 306.454 327.007 309.283 324.26 311.29C321.514 313.297 318.201 314.379 314.8 314.378C310.584 314.321 306.548 312.658 303.515 309.727L283.554 290.954L285.533 315.727L292.399 331.136L243.384 358.846C243.384 358.846 237.626 330.337 234.512 310.606C232.019 294.629 230.742 259.898 230.742 259.898L245.203 252.877Z" fill="#FD3E72"/>
<path d="M232.037 259.437C232.037 259.437 221.195 263.448 218.578 271.943C216.254 279.478 208.5 321.825 208.5 321.825L200.809 366.648L216.919 367.261L235.461 290.866L232.037 259.437Z" fill="#FD3E72"/>
<path d="M285.941 314.635C286.065 314.635 285.347 306.043 284.335 295.472C283.324 284.901 282.401 276.336 282.277 276.345C282.153 276.354 282.863 284.937 283.874 295.517C284.885 306.097 285.817 314.644 285.941 314.635Z" fill="#E82358"/>
<path d="M250.232 293.564C250.258 293.709 250.306 293.85 250.374 293.981L250.862 295.153C251.075 295.659 251.35 296.271 251.749 296.928C252.149 297.585 252.504 298.419 253.045 299.245C253.302 299.662 253.568 300.132 253.852 300.558C254.136 300.984 254.482 301.446 254.81 301.934C255.458 302.901 256.256 303.842 257.081 304.854C258.927 306.997 260.964 308.966 263.167 310.739C265.391 312.483 267.766 314.025 270.264 315.345C271.435 315.913 272.544 316.482 273.627 316.89C274.159 317.103 274.674 317.342 275.179 317.511L276.643 318.008C277.53 318.345 278.417 318.532 279.198 318.736C279.84 318.918 280.492 319.063 281.15 319.171L282.401 319.384C282.412 319.438 282.442 319.486 282.487 319.518C282.531 319.551 282.586 319.566 282.64 319.56C282.695 319.555 282.746 319.529 282.783 319.488C282.819 319.448 282.84 319.395 282.84 319.34C282.84 319.285 282.819 319.232 282.783 319.191C282.746 319.15 282.695 319.124 282.64 319.119C282.586 319.113 282.531 319.128 282.487 319.161C282.442 319.193 282.412 319.241 282.401 319.295L281.176 318.993C280.523 318.858 279.878 318.689 279.242 318.487C278.506 318.266 277.646 318.053 276.732 317.698L275.286 317.183C274.789 316.996 274.283 316.757 273.76 316.544C272.686 316.118 271.604 315.541 270.451 314.964C267.985 313.637 265.634 312.105 263.424 310.384C261.251 308.619 259.227 306.678 257.374 304.579C256.549 303.585 255.751 302.662 255.094 301.712C254.757 301.242 254.411 300.824 254.127 300.363L253.293 299.076C252.743 298.268 252.344 297.478 251.953 296.804C251.563 296.129 251.261 295.534 251.066 295.028C250.871 294.523 250.658 294.203 250.499 293.901C250.423 293.779 250.334 293.666 250.232 293.564Z" fill="#E82358"/>
<g opacity="0.2">
<path opacity="0.2" d="M280.254 318.975C281.012 318.68 281.633 318.113 281.997 317.384C282.361 316.656 282.442 315.819 282.223 315.035C281.974 314.26 281.56 313.548 281.01 312.947C280.461 312.347 279.788 311.872 279.038 311.555C277.534 310.937 275.97 310.474 274.372 310.171C267.48 308.481 261.178 304.946 256.141 299.946C255.68 299.484 255.023 298.969 254.446 299.289C253.675 299.706 254.163 300.886 254.73 301.552C261.668 309.618 270.66 315.655 280.751 319.02" fill="black"/>
</g>
<path d="M231.319 308.893C231.459 308.609 231.569 308.312 231.647 308.005C231.824 307.41 232.073 306.549 232.357 305.475C232.933 303.327 233.679 300.354 234.424 297.043C235.169 293.733 235.772 290.724 236.198 288.54C236.402 287.448 236.544 286.561 236.633 285.948C236.711 285.632 236.744 285.306 236.73 284.981C236.606 285.28 236.517 285.593 236.464 285.913L235.879 288.478C235.373 290.75 234.725 293.688 234.007 296.946C233.288 300.203 232.596 303.159 232.073 305.396C231.851 306.398 231.665 307.259 231.505 307.961C231.399 308.261 231.336 308.575 231.319 308.893Z" fill="#E82358"/>
<path d="M329.926 253.383C330.214 252.716 330.356 251.996 330.343 251.271C330.476 250.559 330.457 249.827 330.29 249.123C330.007 249.79 329.867 250.51 329.882 251.235C329.751 251.947 329.766 252.677 329.926 253.383Z" fill="#E82358"/>
<path d="M325.827 253.516C326.095 252.796 326.213 252.029 326.173 251.261C326.293 250.504 326.254 249.73 326.058 248.989C325.8 249.712 325.683 250.477 325.712 251.244C325.602 252.001 325.641 252.773 325.827 253.516Z" fill="#E82358"/>
<path d="M321.756 253.223C322.157 251.577 322.253 249.871 322.04 248.19C321.763 248.995 321.636 249.843 321.667 250.693C321.545 251.535 321.575 252.392 321.756 253.223Z" fill="#E82358"/>
<path d="M313.877 296.404C313.98 295.166 313.929 293.92 313.726 292.694C313.681 291.454 313.476 290.224 313.114 289.037C313.017 290.275 313.067 291.521 313.265 292.747C313.32 293.986 313.526 295.214 313.877 296.404Z" fill="#E82358"/>
<path d="M214.267 362.547C213.92 363.25 213.71 364.012 213.646 364.793C213.438 365.55 213.381 366.34 213.477 367.118C213.831 366.418 214.042 365.655 214.098 364.873C214.306 364.116 214.364 363.326 214.267 362.547Z" fill="#E82358"/>
<path d="M208.971 362.547C208.636 363.176 208.44 363.869 208.394 364.58C208.208 365.268 208.169 365.988 208.279 366.692C208.614 366.064 208.811 365.371 208.856 364.66C209.042 363.972 209.081 363.252 208.971 362.547Z" fill="#E82358"/>
<path d="M203.95 362.033C203.651 362.769 203.471 363.548 203.418 364.34C203.214 365.104 203.127 365.894 203.16 366.684C203.572 365.993 203.815 365.214 203.87 364.411C204.078 363.635 204.105 362.821 203.95 362.033Z" fill="#E82358"/>
<path d="M223.343 264.611C223.343 264.691 224.469 264.611 226.208 264.992C228.486 265.454 230.604 266.5 232.356 268.028C234.107 269.556 235.431 271.514 236.197 273.709C236.792 275.395 236.881 276.513 236.96 276.504C237.003 276.243 237.003 275.976 236.96 275.714C236.879 274.998 236.73 274.291 236.517 273.602C235.808 271.309 234.475 269.259 232.667 267.681C230.858 266.104 228.646 265.062 226.279 264.673C225.57 264.549 224.851 264.495 224.132 264.513C223.865 264.499 223.598 264.532 223.343 264.611Z" fill="#E82358"/>
<path d="M309.628 216.69C309.371 217.196 302.717 251.457 302.717 251.457L318.42 252.194L324.506 222.726L309.628 216.69Z" fill="#5B5863"/>
<path d="M302.717 251.457L300.916 250.694L307.712 216.921L309.841 216.779L302.717 251.457Z" fill="#403D49"/>
<path d="M315.944 224.181C315.924 224.343 315.952 224.506 316.025 224.652C316.098 224.797 316.213 224.917 316.355 224.996C316.497 225.076 316.659 225.111 316.821 225.098C316.983 225.085 317.137 225.023 317.264 224.922C317.391 224.82 317.485 224.683 317.533 224.528C317.582 224.373 317.583 224.207 317.536 224.051C317.49 223.895 317.398 223.757 317.272 223.653C317.147 223.55 316.993 223.487 316.832 223.471C316.62 223.449 316.408 223.511 316.242 223.644C316.076 223.777 315.969 223.97 315.944 224.181Z" fill="#403D49"/>
<path d="M319.182 248.235L319.431 243.744L312.724 240.983L315.341 234.77C315.643 234.084 316.083 233.469 316.635 232.962C317.187 232.456 317.838 232.069 318.547 231.827C319.255 231.585 320.007 231.493 320.753 231.557C321.499 231.62 322.224 231.838 322.882 232.196L325.543 233.652C326.491 234.167 327.321 234.876 327.978 235.732C328.635 236.588 329.105 237.573 329.358 238.622C330.098 242.237 330.634 245.891 330.964 249.566" fill="#FFBE9D"/>
<path d="M337.174 362.45C337.174 362.45 364.773 370.101 365.882 370.491C367.55 371.077 367.266 377.166 364.685 377.077C363.46 377.033 343.473 377.823 340.953 377.663C338.434 377.503 330.813 374.503 330.813 374.503L337.174 362.45Z" fill="#E8505B"/>
<path d="M348.645 372.994C348.991 371.983 349.397 370.993 349.861 370.03C350.462 369.144 351.114 368.294 351.812 367.482C350.788 367.963 349.958 368.781 349.462 369.799C348.831 370.739 348.542 371.867 348.645 372.994Z" fill="#263238"/>
<path d="M345.771 371.69C345.904 371.69 346.179 370.403 346.915 368.965C347.651 367.527 348.521 366.506 348.423 366.417C347.564 366.985 346.897 367.799 346.507 368.752C345.974 369.636 345.718 370.659 345.771 371.69Z" fill="#263238"/>
<path d="M343.065 370.962C343.206 369.973 343.422 368.997 343.713 368.042C344.144 367.141 344.648 366.277 345.221 365.459C344.294 365.99 343.603 366.853 343.287 367.873C342.824 368.837 342.745 369.942 343.065 370.962Z" fill="#263238"/>
<path d="M343.561 367.394C343.803 366.739 343.903 366.04 343.854 365.343C343.849 364.583 343.754 363.826 343.57 363.089C343.469 362.652 343.333 362.225 343.162 361.811C343.081 361.546 342.927 361.309 342.719 361.127C342.58 361.023 342.408 360.97 342.234 360.98C342.06 360.99 341.896 361.061 341.769 361.181C341.556 361.387 341.427 361.665 341.406 361.962C341.388 362.204 341.388 362.447 341.406 362.689C341.415 363.144 341.471 363.596 341.574 364.039C341.768 364.781 342.067 365.493 342.461 366.151C342.763 366.78 343.185 367.344 343.703 367.811C343.765 367.767 343.304 367.127 342.745 366.036C342.428 365.382 342.187 364.694 342.027 363.985C341.936 363.568 341.892 363.143 341.894 362.716C341.894 362.299 341.894 361.766 342.151 361.562C342.201 361.518 342.266 361.494 342.333 361.494C342.4 361.494 342.464 361.518 342.515 361.562C342.651 361.7 342.754 361.867 342.816 362.05C342.981 362.446 343.121 362.852 343.233 363.266C343.422 363.972 343.544 364.694 343.597 365.423C343.606 366.604 343.482 367.385 343.561 367.394Z" fill="#263238"/>
<path d="M343.526 367.119C342.967 366.881 342.358 366.781 341.752 366.826C341.091 366.828 340.433 366.908 339.791 367.066C339.399 367.155 339.021 367.295 338.665 367.483C338.438 367.596 338.255 367.781 338.142 368.008C338.03 368.236 337.996 368.494 338.044 368.743C338.105 368.982 338.23 369.199 338.405 369.373C338.58 369.546 338.798 369.669 339.037 369.728C339.442 369.83 339.866 369.83 340.27 369.728C341.506 369.372 342.588 368.617 343.349 367.58C342.835 367.894 342.34 368.237 341.867 368.61C341.358 368.961 340.786 369.211 340.182 369.347C339.843 369.427 339.491 369.427 339.153 369.347C338.993 369.305 338.847 369.223 338.728 369.108C338.61 368.992 338.524 368.848 338.478 368.69C338.455 368.534 338.483 368.376 338.558 368.238C338.634 368.1 338.752 367.991 338.895 367.926C339.209 367.749 339.547 367.618 339.898 367.536C340.503 367.362 341.124 367.252 341.752 367.208C342.834 367.074 343.509 367.19 343.526 367.119Z" fill="#263238"/>
<path d="M352.886 373.287C352.998 372.442 353.182 371.607 353.436 370.793C353.821 370.027 354.272 369.297 354.784 368.61C354.74 368.494 353.587 369.151 353.01 370.598C352.796 371.01 352.674 371.465 352.653 371.929C352.631 372.393 352.711 372.857 352.886 373.287Z" fill="#263238"/>
<path d="M333.625 374.565C333.963 374.766 334.319 374.932 334.69 375.063C335.692 375.455 336.72 375.775 337.768 376.021C341.228 376.778 344.767 377.112 348.307 377.015C352.442 376.971 356.168 376.784 358.873 376.678L362.067 376.509C362.461 376.509 362.854 376.465 363.238 376.376C362.85 376.325 362.458 376.307 362.067 376.323H358.865L348.299 376.527C344.79 376.605 341.284 376.307 337.839 375.639C335.195 375.16 333.625 374.477 333.625 374.565Z" fill="#263238"/>
<path d="M332.809 375.196C332.809 375.258 333.599 374.814 334.876 374.255C336.5 373.475 338.311 373.168 340.101 373.367C341.855 373.744 343.439 374.678 344.617 376.03C345.11 376.606 345.641 377.148 346.205 377.654C345.844 376.979 345.39 376.357 344.857 375.808C344.314 375.17 343.7 374.596 343.029 374.095C342.185 373.473 341.206 373.06 340.172 372.888C338.298 372.661 336.399 373.027 334.743 373.935C334.036 374.251 333.384 374.677 332.809 375.196Z" fill="#263238"/>
<path d="M307.845 354.825C307.845 354.825 281.718 371.938 280.787 372.648C279.376 373.713 280.991 378.772 283.448 377.902C284.601 377.485 306.514 371.388 308.874 370.464C311.234 369.541 317.577 364.376 317.577 364.376L307.845 354.825Z" fill="#E8505B"/>
<path d="M300.091 368.361C299.83 367.256 299.205 366.272 298.317 365.565C297.536 364.744 296.495 364.22 295.371 364.083C296.298 364.633 297.187 365.243 298.033 365.911C298.764 366.689 299.451 367.507 300.091 368.361Z" fill="#263238"/>
<path d="M302.433 366.248C302.096 365.285 301.552 364.408 300.839 363.678C300.126 362.948 299.262 362.383 298.307 362.023C298.236 362.148 299.381 362.831 300.507 363.994C301.634 365.157 302.308 366.311 302.433 366.248Z" fill="#263238"/>
<path d="M304.784 364.731C304.701 363.681 304.301 362.68 303.637 361.863C302.974 361.045 302.077 360.448 301.067 360.151C301.858 360.756 302.6 361.424 303.285 362.148C303.851 362.968 304.353 363.832 304.784 364.731Z" fill="#263238"/>
<path d="M303.231 361.509C303.302 361.509 302.947 360.773 302.645 359.557C302.47 358.847 302.366 358.121 302.335 357.391C302.309 356.962 302.309 356.532 302.335 356.104C302.342 355.912 302.39 355.724 302.477 355.554C302.516 355.497 302.575 355.457 302.642 355.441C302.709 355.424 302.78 355.433 302.841 355.465C303.133 355.589 303.293 356.095 303.435 356.494C303.562 356.899 303.648 357.315 303.692 357.737C303.757 358.462 303.733 359.192 303.621 359.912C303.435 361.154 303.195 361.909 303.266 361.935C303.613 361.33 303.842 360.664 303.941 359.974C304.103 359.228 304.159 358.463 304.109 357.701C304.081 357.246 303.998 356.796 303.861 356.361C303.794 356.128 303.711 355.9 303.612 355.678C303.497 355.403 303.286 355.179 303.018 355.048C302.865 354.979 302.693 354.966 302.532 355.01C302.37 355.053 302.229 355.151 302.131 355.287C301.991 355.524 301.917 355.794 301.918 356.068C301.827 357.267 301.966 358.472 302.326 359.619C302.493 360.305 302.801 360.949 303.231 361.509Z" fill="#263238"/>
<path d="M303.187 361.207C303.187 361.278 303.825 360.959 304.881 360.71C305.494 360.555 306.121 360.469 306.753 360.453C307.112 360.429 307.473 360.449 307.826 360.515C307.983 360.535 308.128 360.605 308.24 360.716C308.353 360.827 308.425 360.971 308.447 361.127C308.454 361.293 308.416 361.458 308.338 361.604C308.26 361.751 308.145 361.874 308.004 361.962C307.712 362.144 307.38 362.253 307.037 362.281C306.418 362.338 305.795 362.275 305.2 362.095C304.633 361.888 304.052 361.722 303.462 361.598C303.943 361.964 304.487 362.241 305.067 362.414C305.7 362.646 306.373 362.746 307.046 362.707C307.464 362.682 307.869 362.554 308.226 362.334C308.434 362.204 308.604 362.02 308.718 361.801C308.832 361.583 308.886 361.338 308.873 361.092C308.842 360.84 308.73 360.606 308.554 360.423C308.378 360.241 308.148 360.12 307.897 360.08C307.5 360.006 307.094 359.988 306.691 360.027C306.034 360.068 305.384 360.19 304.757 360.391C304.176 360.535 303.638 360.815 303.187 361.207Z" fill="#263238"/>
<path d="M286.757 376.944C286.757 376.988 287.2 376.678 287.395 375.932C287.604 374.958 287.43 373.94 286.907 373.092C286.645 372.635 286.349 372.199 286.02 371.787C285.769 371.432 285.47 371.113 285.133 370.837C284.895 370.643 284.605 370.522 284.299 370.491C284.086 370.491 283.971 370.536 283.971 370.562C284.326 370.662 284.654 370.841 284.929 371.086C285.21 371.379 285.46 371.7 285.674 372.044C285.974 372.449 286.246 372.873 286.49 373.314C286.961 374.075 287.164 374.971 287.067 375.861C286.978 376.545 286.695 376.9 286.757 376.944Z" fill="#263238"/>
<path d="M296.134 369.932C296.125 369.017 295.799 368.132 295.212 367.43C294.625 366.727 293.813 366.25 292.913 366.08C293.61 366.567 294.26 367.117 294.856 367.722C295.345 368.42 295.773 369.16 296.134 369.932Z" fill="#263238"/>
<path d="M314.871 365.299C314.473 365.534 314.09 365.794 313.727 366.08C312.693 366.802 311.617 367.463 310.506 368.059C308.853 368.945 307.143 369.722 305.387 370.385C303.409 371.121 301.191 371.814 298.849 372.497C294.147 373.846 289.889 375.089 286.819 376.048L283.191 377.157C282.741 377.279 282.302 377.436 281.878 377.627C282.342 377.575 282.799 377.477 283.244 377.335L286.917 376.358C290.004 375.515 294.271 374.326 298.973 372.977C301.324 372.293 303.56 371.583 305.538 370.811C307.304 370.143 309.018 369.345 310.666 368.423C311.77 367.795 312.829 367.089 313.833 366.311C314.213 366.01 314.561 365.671 314.871 365.299Z" fill="#263238"/>
<path d="M315.882 365.645C315.178 365.336 314.429 365.138 313.664 365.059C311.808 364.708 309.888 364.944 308.172 365.734C307.228 366.194 306.409 366.876 305.786 367.722C305.297 368.402 304.887 369.134 304.562 369.906C304.228 370.597 303.984 371.327 303.834 372.08C304.226 371.428 304.57 370.749 304.863 370.048C305.566 368.392 306.79 367.011 308.35 366.116C309.991 365.384 311.802 365.12 313.584 365.352C314.345 365.489 315.111 365.587 315.882 365.645Z" fill="#263238"/>
<path d="M246.63 219.255L244.909 253.773C244.84 255.164 245.053 256.555 245.537 257.861C246.021 259.167 246.765 260.36 247.724 261.37C248.683 262.379 249.837 263.183 251.116 263.733C252.395 264.282 253.773 264.566 255.165 264.566C257.801 264.567 260.337 263.554 262.247 261.737C264.158 259.92 265.297 257.437 265.429 254.803C265.562 252.202 265.669 250.037 265.695 249.77C265.695 249.77 274.567 249.38 275.587 240.717C276.102 236.527 276.474 227.811 276.687 219.93C276.807 215.845 275.385 211.865 272.704 208.782C270.022 205.699 266.278 203.741 262.218 203.296L261.384 203.198C252.317 202.71 246.843 210.166 246.63 219.255Z" fill="#FFBE9D"/>
<path d="M265.749 249.62C261.738 249.26 257.924 247.716 254.793 245.182C254.793 245.182 256.78 251.723 265.518 251.901L265.749 249.62Z" fill="#EB996E"/>
<path d="M246.631 225.761C246.489 225.681 240.864 223.338 240.421 229.311C239.977 235.285 246.019 234.504 246.045 234.335C246.072 234.167 246.631 225.761 246.631 225.761Z" fill="#FFBE9D"/>
<path d="M244.387 231.921C244.387 231.921 244.28 231.983 244.094 232.054C243.84 232.135 243.565 232.119 243.322 232.01C242.957 231.736 242.67 231.369 242.493 230.948C242.315 230.527 242.252 230.067 242.311 229.613C242.337 229.101 242.476 228.601 242.719 228.149C242.789 227.967 242.902 227.804 243.049 227.676C243.196 227.548 243.372 227.457 243.562 227.412C243.683 227.39 243.809 227.412 243.916 227.474C244.023 227.535 244.105 227.633 244.147 227.749C244.218 227.918 244.147 228.033 244.2 228.042C244.254 228.051 244.333 227.954 244.307 227.705C244.284 227.556 244.213 227.418 244.103 227.315C243.949 227.179 243.749 227.108 243.544 227.119C243.295 227.151 243.058 227.244 242.855 227.392C242.651 227.539 242.489 227.735 242.382 227.962C242.095 228.458 241.928 229.015 241.894 229.587C241.824 230.111 241.911 230.644 242.145 231.118C242.379 231.592 242.748 231.986 243.207 232.25C243.362 232.308 243.529 232.332 243.695 232.318C243.861 232.304 244.021 232.253 244.165 232.17C244.369 232.063 244.404 231.921 244.387 231.921Z" fill="#EB996E"/>
<path d="M243.349 225.193C243.91 225.225 244.453 225.406 244.921 225.718C245.389 226.031 245.765 226.462 246.01 226.968C246.303 227.856 246.285 228.823 246.569 229.72C246.853 230.616 247.651 231.495 248.574 231.353C248.894 231.296 249.192 231.153 249.436 230.939C249.68 230.724 249.861 230.447 249.958 230.137C250.159 229.522 250.237 228.874 250.189 228.228C250.144 225.415 249.869 222.601 250.064 219.805C250.157 216.973 251.083 214.231 252.726 211.923C254.5 209.713 257.339 208.258 260.098 208.79C261.926 209.145 263.505 210.29 265.315 210.752C266.385 211.01 267.499 211.023 268.574 210.79C269.65 210.556 270.659 210.082 271.525 209.403C271.918 209.155 272.324 208.926 272.74 208.719C272.788 208.058 272.64 207.397 272.314 206.82C269.059 203.056 262.609 201.397 257.685 202.071C255.179 202.405 252.775 203.279 250.639 204.634C248.504 205.988 246.688 207.791 245.318 209.918C242.754 214.187 242.657 220.506 243.313 225.184" fill="#5B5863"/>
<path d="M340.288 362.131C340.288 362.131 276.226 320.094 273.6 319.216C270.974 318.337 264.64 314.192 258.297 315.94C251.954 317.689 246.276 323.378 243.437 331.686C240.598 339.994 240.376 358.589 240.376 358.589C240.376 358.589 245.398 373.234 255.236 376.341C256.079 376.602 256.935 376.818 257.8 376.989C269.803 379.368 282.02 373.847 288.735 363.613L290.155 361.394C290.155 361.394 332.073 376.794 332.738 376.598L340.288 362.131Z" fill="#3E2723"/>
<path d="M362.13 313.1C362.13 313.1 369.999 315.896 369.999 324.683C370.061 341.547 335.994 360.089 335.994 360.089L290.652 330.035V326.893C290.652 326.893 349.018 305.875 362.13 313.1Z" fill="#3E2723"/>
<path d="M261.029 350.565L261.384 350.716L262.431 351.133L266.494 352.695L281.576 358.385C287.99 360.781 295.664 363.63 304.278 366.764C312.893 369.897 322.447 373.341 332.667 376.793L332.854 376.855L332.942 376.678L337.946 367.119C338.833 365.45 339.72 363.79 340.501 362.246L340.599 362.05L340.421 361.944L291.548 330.878L276.847 321.639L272.864 319.153L271.817 318.514C271.7 318.44 271.578 318.372 271.454 318.31L271.8 318.559L272.811 319.233L276.759 321.789L291.37 331.171L340.164 362.326L340.084 362.024L337.538 366.906L332.534 376.465L332.809 376.358C322.616 372.915 313.061 369.488 304.42 366.382L281.682 358.101L266.539 352.544L262.449 351.053L261.384 350.68C261.269 350.635 261.15 350.596 261.029 350.565Z" fill="#321D19"/>
<path d="M313.62 345.213C314.036 344.981 314.431 344.714 314.8 344.414C315.545 343.873 316.575 343.074 317.896 342.071C320.496 340.065 324.027 337.216 327.824 333.958C331.621 330.701 334.974 327.63 337.352 325.358C338.541 324.23 339.49 323.298 340.129 322.695C340.481 322.372 340.807 322.021 341.104 321.647C340.71 321.907 340.342 322.204 340.004 322.535L337.13 325.118C334.699 327.319 331.319 330.346 327.522 333.603C323.725 336.861 320.239 339.745 317.692 341.813L314.685 344.272C314.301 344.551 313.945 344.866 313.62 345.213Z" fill="#321D19"/>
<path d="M349.328 319.393C347.863 319.159 346.363 319.294 344.963 319.783C343.52 320.134 342.185 320.835 341.078 321.825C341.149 321.949 342.852 320.893 345.088 320.227C347.323 319.562 349.328 319.535 349.328 319.393Z" fill="#321D19"/>
<path d="M345.425 316.739C344.343 317.11 343.41 317.82 342.763 318.763C341.984 319.607 341.49 320.675 341.353 321.816C341.486 321.861 341.983 320.449 343.127 319.047C344.271 317.645 345.496 316.855 345.425 316.739Z" fill="#321D19"/>
<path d="M364.623 370.057C364.623 370.003 364.082 369.897 363.452 370.412C362.714 371.115 362.251 372.06 362.148 373.074C361.998 374.061 362.14 375.07 362.556 375.977C362.875 376.66 363.23 376.989 363.275 376.953C363.319 376.918 363.088 376.527 362.858 375.853C362.559 374.98 362.471 374.049 362.6 373.137C362.705 372.228 363.079 371.372 363.674 370.678C363.953 370.419 364.274 370.209 364.623 370.057Z" fill="#263238"/>
<defs>
<filter id="filter0_d_9231:2568" x="109.505" y="108" width="79.4941" height="79.5249" filterUnits="userSpaceOnUse" color-interpolation-filters="sRGB">
<feFlood flood-opacity="0" result="BackgroundImageFix"/>
<feColorMatrix in="SourceAlpha" type="matrix" values="0 0 0 0 0 0 0 0 0 0 0 0 0 0 0 0 0 0 127 0" result="hardAlpha"/>
<feOffset dy="2"/>
<feGaussianBlur stdDeviation="4"/>
<feColorMatrix type="matrix" values="0 0 0 0 0 0 0 0 0 0 0 0 0 0 0 0 0 0 0.1 0"/>
<feBlend mode="normal" in2="BackgroundImageFix" result="effect1_dropShadow_9231:2568"/>
<feBlend mode="normal" in="SourceGraphic" in2="effect1_dropShadow_9231:2568" result="shape"/>
</filter>
</defs>
</svg>
