<svg width="454" height="454" viewBox="0 0 454 454" fill="none" xmlns="http://www.w3.org/2000/svg">
<circle cx="227" cy="227" r="227" fill="#FFF2F6" fill-opacity="0.6"/>
<ellipse cx="226.588" cy="227" rx="165.948" ry="166.357" fill="#FFE7EE"/>
<g filter="url(#filter0_d)">
<path d="M404.411 95H48.2919C44.817 95 42 97.817 42 101.292V351.708C42 355.183 44.817 358 48.2919 358H404.411C407.886 358 410.703 355.183 410.703 351.708V101.292C410.703 97.817 407.886 95 404.411 95Z" fill="white"/>
</g>
<path d="M129.457 140.302H411.333V351.708C411.333 355.183 408.516 358 405.041 358H131.345C130.302 358 129.457 357.155 129.457 356.113V140.302Z" fill="#F4F4F4"/>
<g filter="url(#filter1_d)">
<path d="M142.039 188.119C142.039 187.077 142.884 186.232 143.927 186.232H282.977C284.019 186.232 284.864 187.077 284.864 188.119V237.196C284.864 238.239 284.019 239.084 282.977 239.084H143.927C142.884 239.084 142.039 238.239 142.039 237.196V188.119Z" fill="white"/>
</g>
<path d="M216.914 222.096C216.914 221.054 217.759 220.208 218.802 220.208H276.687C277.729 220.208 278.574 221.054 278.574 222.096V233.421C278.574 234.464 277.729 235.309 276.687 235.309H218.802C217.759 235.309 216.914 234.464 216.914 233.421V222.096Z" fill="#E3E3E3"/>
<path d="M232.645 227.758C232.645 227.063 233.208 226.5 233.903 226.5H261.587C262.282 226.5 262.845 227.063 262.845 227.758C262.845 228.453 262.282 229.017 261.587 229.017H233.903C233.208 229.017 232.645 228.453 232.645 227.758Z" fill="white"/>
<path d="M146.445 222.096C146.445 221.054 147.29 220.208 148.333 220.208H206.218C207.261 220.208 208.106 221.054 208.106 222.096V233.421C208.106 234.464 207.261 235.309 206.218 235.309H148.333C147.29 235.309 146.445 234.464 146.445 233.421V222.096Z" fill="#E3E3E3"/>
<path d="M162.174 227.758C162.174 227.063 162.737 226.5 163.432 226.5H191.116C191.811 226.5 192.375 227.063 192.375 227.758C192.375 228.453 191.811 229.017 191.116 229.017H163.432C162.737 229.017 162.174 228.453 162.174 227.758Z" fill="white"/>
<path d="M146.445 210.771C146.445 208.686 148.135 206.996 150.22 206.996H213.139C215.224 206.996 216.914 208.686 216.914 210.771C216.914 212.856 215.224 214.546 213.139 214.546H150.22C148.135 214.546 146.445 212.856 146.445 210.771Z" fill="#EEEEEE"/>
<path d="M146.445 192.524C146.445 191.482 147.29 190.637 148.333 190.637H170.354C171.397 190.637 172.242 191.482 172.242 192.524V196.299C172.242 197.342 171.397 198.187 170.354 198.187H148.333C147.29 198.187 146.445 197.342 146.445 196.299V192.524Z" fill="#EEEEEE"/>
<path d="M153.365 194.411C153.365 193.89 153.788 193.467 154.309 193.467H164.376C164.897 193.467 165.32 193.89 165.32 194.411C165.32 194.932 164.897 195.355 164.376 195.355H154.309C153.788 195.355 153.365 194.932 153.365 194.411Z" fill="white"/>
<path d="M142.039 188.119C142.039 187.077 142.884 186.232 143.927 186.232H282.977C284.019 186.232 284.864 187.077 284.864 188.119H142.039Z" fill="#FD3E72"/>
<path opacity="0.4" fill-rule="evenodd" clip-rule="evenodd" d="M284.864 201.715H142.039V201.086H284.864V201.715Z" fill="#E3E0D3"/>
<g filter="url(#filter2_d)">
<path d="M142.039 251.667C142.039 250.625 142.884 249.78 143.927 249.78H282.977C284.019 249.78 284.864 250.625 284.864 251.667V358H142.039V251.667Z" fill="white"/>
</g>
<path d="M146.445 256.701C146.445 256.006 147.009 255.443 147.704 255.443H176.017C176.712 255.443 177.275 256.006 177.275 256.701V259.847C177.275 260.542 176.712 261.106 176.017 261.106H147.704C147.009 261.106 146.445 260.542 146.445 259.847V256.701Z" fill="#EEEEEE"/>
<path d="M142.039 251.667C142.039 250.625 142.884 249.78 143.927 249.78H282.977C284.019 249.78 284.864 250.625 284.864 251.667H142.039Z" fill="#FD3E72"/>
<path opacity="0.4" fill-rule="evenodd" clip-rule="evenodd" d="M284.864 265.263H142.039V264.634H284.864V265.263Z" fill="#E3E0D3"/>
<path d="M269.764 271.554C269.764 270.859 270.327 270.296 271.022 270.296H276.685C277.38 270.296 277.943 270.859 277.943 271.554V277.217C277.943 277.912 277.38 278.475 276.685 278.475H271.022C270.327 278.475 269.764 277.912 269.764 277.217V271.554Z" fill="#E3E3E3"/>
<path d="M271.652 274.009C271.652 273.87 271.765 273.757 271.904 273.757H275.805C275.944 273.757 276.057 273.87 276.057 274.009V274.764C276.057 274.903 275.944 275.015 275.805 275.015H271.904C271.765 275.015 271.652 274.903 271.652 274.764V274.009Z" fill="white"/>
<path d="M146.445 272.184C146.445 270.794 147.572 269.667 148.962 269.667H153.366C154.756 269.667 155.883 270.794 155.883 272.184V276.589C155.883 277.978 154.756 279.105 153.366 279.105H148.962C147.572 279.105 146.445 277.978 146.445 276.589V272.184Z" fill="#E3E3E3"/>
<path d="M159.66 274.387C159.66 273.865 160.083 273.443 160.604 273.443H181.996C182.518 273.443 182.94 273.865 182.94 274.387C182.94 274.908 182.518 275.33 181.996 275.33H160.604C160.083 275.33 159.66 274.908 159.66 274.387Z" fill="#E3E3E3"/>
<path d="M216.113 274.415C216.113 274.036 216.421 273.729 216.8 273.729H227.095C227.475 273.729 227.782 274.036 227.782 274.415C227.782 274.794 227.475 275.101 227.095 275.101H216.8C216.421 275.101 216.113 274.794 216.113 274.415Z" fill="#E3E3E3"/>
<path fill-rule="evenodd" clip-rule="evenodd" d="M265.362 270.61H212.511C211.642 270.61 210.938 271.315 210.938 272.183V276.645C210.938 277.514 211.642 278.218 212.511 278.218H265.362C266.231 278.218 266.935 277.514 266.935 276.645V272.183C266.935 271.315 266.231 270.61 265.362 270.61ZM212.511 270.296C211.468 270.296 210.623 271.141 210.623 272.183V276.645C210.623 277.687 211.468 278.533 212.511 278.533H265.362C266.405 278.533 267.25 277.687 267.25 276.645V272.183C267.25 271.141 266.405 270.296 265.362 270.296H212.511Z" fill="#E3E3E3"/>
<path opacity="0.4" fill-rule="evenodd" clip-rule="evenodd" d="M277.945 283.51L146.445 283.51L146.445 282.88L277.945 282.88L277.945 283.51Z" fill="#E3E0D3"/>
<path d="M269.764 289.801C269.764 289.106 270.327 288.542 271.022 288.542H276.685C277.38 288.542 277.943 289.106 277.943 289.801V295.464C277.943 296.159 277.38 296.722 276.685 296.722H271.022C270.327 296.722 269.764 296.159 269.764 295.464V289.801Z" fill="#E3E3E3"/>
<path d="M271.652 292.255C271.652 292.116 271.765 292.003 271.904 292.003H275.805C275.944 292.003 276.057 292.116 276.057 292.255V293.01C276.057 293.149 275.944 293.262 275.805 293.262H271.904C271.765 293.262 271.652 293.149 271.652 293.01V292.255Z" fill="white"/>
<path d="M146.445 290.43C146.445 289.04 147.572 287.914 148.962 287.914H153.366C154.756 287.914 155.883 289.04 155.883 290.43V294.835C155.883 296.225 154.756 297.351 153.366 297.351H148.962C147.572 297.351 146.445 296.225 146.445 294.835V290.43Z" fill="#E3E3E3"/>
<path d="M159.66 292.633C159.66 292.112 160.083 291.689 160.604 291.689H181.996C182.518 291.689 182.94 292.112 182.94 292.633C182.94 293.154 182.518 293.577 181.996 293.577H160.604C160.083 293.577 159.66 293.154 159.66 292.633Z" fill="#E3E3E3"/>
<path d="M216.113 292.661C216.113 292.282 216.421 291.975 216.8 291.975H227.095C227.475 291.975 227.782 292.282 227.782 292.661C227.782 293.041 227.475 293.348 227.095 293.348H216.8C216.421 293.348 216.113 293.041 216.113 292.661Z" fill="#E3E3E3"/>
<path fill-rule="evenodd" clip-rule="evenodd" d="M265.362 288.857H212.511C211.642 288.857 210.938 289.561 210.938 290.43V294.892C210.938 295.76 211.642 296.465 212.511 296.465H265.362C266.231 296.465 266.935 295.76 266.935 294.892V290.43C266.935 289.561 266.231 288.857 265.362 288.857ZM212.511 288.542C211.468 288.542 210.623 289.388 210.623 290.43V294.892C210.623 295.934 211.468 296.779 212.511 296.779H265.362C266.405 296.779 267.25 295.934 267.25 294.892V290.43C267.25 289.388 266.405 288.542 265.362 288.542H212.511Z" fill="#E3E3E3"/>
<path opacity="0.4" fill-rule="evenodd" clip-rule="evenodd" d="M277.945 301.756L146.445 301.756L146.445 301.126L277.945 301.126L277.945 301.756Z" fill="#E3E0D3"/>
<path d="M269.764 308.295C269.764 307.6 270.327 307.036 271.022 307.036H276.685C277.38 307.036 277.943 307.6 277.943 308.295V313.957C277.943 314.652 277.38 315.216 276.685 315.216H271.022C270.327 315.216 269.764 314.652 269.764 313.957V308.295Z" fill="#E3E3E3"/>
<path d="M271.652 310.748C271.652 310.609 271.765 310.497 271.904 310.497H275.805C275.944 310.497 276.057 310.609 276.057 310.748V311.503C276.057 311.642 275.944 311.755 275.805 311.755H271.904C271.765 311.755 271.652 311.642 271.652 311.503V310.748Z" fill="white"/>
<path d="M146.445 308.923C146.445 307.534 147.572 306.407 148.962 306.407H153.366C154.756 306.407 155.883 307.534 155.883 308.923V313.328C155.883 314.718 154.756 315.845 153.366 315.845H148.962C147.572 315.845 146.445 314.718 146.445 313.328V308.923Z" fill="#E3E3E3"/>
<path d="M159.66 311.126C159.66 310.605 160.083 310.182 160.604 310.182H181.996C182.518 310.182 182.94 310.605 182.94 311.126C182.94 311.647 182.518 312.07 181.996 312.07H160.604C160.083 312.07 159.66 311.647 159.66 311.126Z" fill="#E3E3E3"/>
<path d="M216.113 311.155C216.113 310.776 216.421 310.468 216.8 310.468H227.095C227.475 310.468 227.782 310.776 227.782 311.155C227.782 311.534 227.475 311.841 227.095 311.841H216.8C216.421 311.841 216.113 311.534 216.113 311.155Z" fill="#E3E3E3"/>
<path fill-rule="evenodd" clip-rule="evenodd" d="M265.362 307.351H212.511C211.642 307.351 210.938 308.055 210.938 308.924V313.385C210.938 314.254 211.642 314.958 212.511 314.958H265.362C266.231 314.958 266.935 314.254 266.935 313.385V308.924C266.935 308.055 266.231 307.351 265.362 307.351ZM212.511 307.036C211.468 307.036 210.623 307.881 210.623 308.924V313.385C210.623 314.428 211.468 315.273 212.511 315.273H265.362C266.405 315.273 267.25 314.428 267.25 313.385V308.924C267.25 307.881 266.405 307.036 265.362 307.036H212.511Z" fill="#E3E3E3"/>
<path opacity="0.4" fill-rule="evenodd" clip-rule="evenodd" d="M277.945 320.249L146.445 320.249L146.445 319.62L277.945 319.62L277.945 320.249Z" fill="#E3E0D3"/>
<path d="M269.764 326.541C269.764 325.846 270.327 325.283 271.022 325.283H276.685C277.38 325.283 277.943 325.846 277.943 326.541V332.204C277.943 332.899 277.38 333.462 276.685 333.462H271.022C270.327 333.462 269.764 332.899 269.764 332.204V326.541Z" fill="#E3E3E3"/>
<path d="M271.652 328.994C271.652 328.855 271.765 328.743 271.904 328.743H275.805C275.944 328.743 276.057 328.855 276.057 328.994V329.749C276.057 329.888 275.944 330.001 275.805 330.001H271.904C271.765 330.001 271.652 329.888 271.652 329.749V328.994Z" fill="white"/>
<path d="M146.445 327.17C146.445 325.78 147.572 324.653 148.962 324.653H153.366C154.756 324.653 155.883 325.78 155.883 327.17V331.574C155.883 332.964 154.756 334.091 153.366 334.091H148.962C147.572 334.091 146.445 332.964 146.445 331.574V327.17Z" fill="#E3E3E3"/>
<path d="M159.66 329.372C159.66 328.851 160.083 328.428 160.604 328.428H181.996C182.518 328.428 182.94 328.851 182.94 329.372C182.94 329.893 182.518 330.316 181.996 330.316H160.604C160.083 330.316 159.66 329.893 159.66 329.372Z" fill="#E3E3E3"/>
<path d="M216.113 329.401C216.113 329.022 216.421 328.714 216.8 328.714H227.095C227.475 328.714 227.782 329.022 227.782 329.401C227.782 329.78 227.475 330.087 227.095 330.087H216.8C216.421 330.087 216.113 329.78 216.113 329.401Z" fill="#E3E3E3"/>
<path fill-rule="evenodd" clip-rule="evenodd" d="M265.362 325.597H212.511C211.642 325.597 210.938 326.302 210.938 327.17V331.632C210.938 332.501 211.642 333.205 212.511 333.205H265.362C266.231 333.205 266.935 332.501 266.935 331.632V327.17C266.935 326.302 266.231 325.597 265.362 325.597ZM212.511 325.283C211.468 325.283 210.623 326.128 210.623 327.17V331.632C210.623 332.674 211.468 333.519 212.511 333.519H265.362C266.405 333.519 267.25 332.674 267.25 331.632V327.17C267.25 326.128 266.405 325.283 265.362 325.283H212.511Z" fill="#E3E3E3"/>
<path opacity="0.4" fill-rule="evenodd" clip-rule="evenodd" d="M277.945 338.495L146.445 338.495L146.445 337.866L277.945 337.866L277.945 338.495Z" fill="#E3E0D3"/>
<path d="M269.764 344.787C269.764 344.092 270.327 343.529 271.022 343.529H276.685C277.38 343.529 277.943 344.092 277.943 344.787V350.45C277.943 351.145 277.38 351.708 276.685 351.708H271.022C270.327 351.708 269.764 351.145 269.764 350.45V344.787Z" fill="#E3E3E3"/>
<path d="M271.652 347.241C271.652 347.102 271.765 346.989 271.904 346.989H275.805C275.944 346.989 276.057 347.102 276.057 347.241V347.996C276.057 348.135 275.944 348.248 275.805 348.248H271.904C271.765 348.248 271.652 348.135 271.652 347.996V347.241Z" fill="white"/>
<path d="M146.445 345.416C146.445 344.026 147.572 342.899 148.962 342.899H153.366C154.756 342.899 155.883 344.026 155.883 345.416V349.82C155.883 351.21 154.756 352.337 153.366 352.337H148.962C147.572 352.337 146.445 351.21 146.445 349.82V345.416Z" fill="#E3E3E3"/>
<path d="M159.66 347.619C159.66 347.097 160.083 346.675 160.604 346.675H181.996C182.518 346.675 182.94 347.097 182.94 347.619C182.94 348.14 182.518 348.562 181.996 348.562H160.604C160.083 348.562 159.66 348.14 159.66 347.619Z" fill="#E3E3E3"/>
<path d="M216.113 347.647C216.113 347.268 216.421 346.961 216.8 346.961H227.095C227.475 346.961 227.782 347.268 227.782 347.647C227.782 348.026 227.475 348.334 227.095 348.334H216.8C216.421 348.334 216.113 348.026 216.113 347.647Z" fill="#E3E3E3"/>
<path fill-rule="evenodd" clip-rule="evenodd" d="M265.362 343.843H212.511C211.642 343.843 210.938 344.548 210.938 345.416V349.878C210.938 350.747 211.642 351.451 212.511 351.451H265.362C266.231 351.451 266.935 350.747 266.935 349.878V345.416C266.935 344.548 266.231 343.843 265.362 343.843ZM212.511 343.529C211.468 343.529 210.623 344.374 210.623 345.416V349.878C210.623 350.92 211.468 351.765 212.511 351.765H265.362C266.405 351.765 267.25 350.92 267.25 349.878V345.416C267.25 344.374 266.405 343.529 265.362 343.529H212.511Z" fill="#E3E3E3"/>
<path opacity="0.4" fill-rule="evenodd" clip-rule="evenodd" d="M277.945 356.742L146.445 356.741L146.445 356.112L277.945 356.112L277.945 356.742Z" fill="#E3E0D3"/>
<path d="M142.039 150.997C142.039 149.26 143.448 147.852 145.185 147.852H394.972C396.71 147.852 398.118 149.26 398.118 150.997V172.39C398.118 174.127 396.71 175.536 394.972 175.536H145.185C143.448 175.536 142.039 174.127 142.039 172.39V150.997Z" fill="url(#paint0_linear)"/>
<path opacity="0.4" d="M146.445 160.436C146.445 158.699 147.854 157.29 149.591 157.29H379.244C380.982 157.29 382.39 158.699 382.39 160.436V162.953C382.39 164.69 380.982 166.099 379.244 166.099H149.591C147.854 166.099 146.445 164.69 146.445 162.953V160.436Z" fill="white"/>
<path d="M42 117.65H129.457V358H48.2919C44.817 358 42 355.183 42 351.708V117.65Z" fill="#FD3E72"/>
<g filter="url(#filter3_d)">
<path d="M45.7754 171.131C45.7754 169.394 47.1839 167.985 48.9213 167.985H122.536C124.274 167.985 125.682 169.394 125.682 171.131V185.603C125.682 187.34 124.274 188.749 122.536 188.749H48.9213C47.1839 188.749 45.7754 187.34 45.7754 185.603V171.131Z" fill="#FAFAFA"/>
</g>
<path d="M67.089 180.569C67.2501 180.569 67.4112 180.552 67.5722 180.515C67.7299 180.481 67.8841 180.424 68.0349 180.342C68.1858 180.264 68.316 180.17 68.4291 180.055C68.5422 179.943 68.6347 179.804 68.7033 179.638C68.7718 179.476 68.8061 179.293 68.8061 179.097C68.8061 178.907 68.7753 178.738 68.7204 178.589C68.621 178.332 68.4154 178.115 68.1001 177.942C67.9561 177.865 67.6751 177.746 67.2638 177.584C66.9142 177.452 66.6845 177.35 66.5783 177.282C66.4103 177.174 66.3281 177.039 66.3315 176.869C66.3315 176.693 66.4001 176.551 66.5303 176.45C66.6605 176.348 66.8285 176.294 67.0273 176.294C67.3837 176.294 67.7642 176.463 68.1755 176.798L68.6793 176.142C68.1549 175.735 67.6031 175.536 67.0273 175.536C66.7428 175.536 66.4789 175.597 66.239 175.718C65.9991 175.84 65.8071 176.006 65.6666 176.216C65.5226 176.429 65.4541 176.663 65.4541 176.913C65.4541 177.039 65.4678 177.157 65.4987 177.265C65.5295 177.374 65.5706 177.472 65.6186 177.556C65.6666 177.641 65.7283 177.722 65.8105 177.797C65.8894 177.871 65.9682 177.939 66.047 177.993C66.1259 178.047 66.2218 178.101 66.3315 178.156C66.4412 178.21 66.544 178.257 66.6366 178.291C66.7257 178.328 66.8353 178.369 66.9587 178.41C67.0616 178.447 67.1472 178.477 67.2124 178.501C67.2741 178.528 67.346 178.555 67.4214 178.589C67.4968 178.623 67.5585 178.65 67.6031 178.677C67.6476 178.704 67.6922 178.738 67.7402 178.775C67.7847 178.816 67.819 178.853 67.843 178.894C67.8636 178.934 67.8841 178.978 67.8979 179.029C67.9116 179.08 67.9218 179.134 67.9218 179.195C67.9218 179.384 67.8499 179.53 67.7093 179.638C67.5654 179.747 67.3597 179.797 67.0924 179.797C66.8696 179.797 66.6434 179.743 66.4172 179.631C66.191 179.52 65.9888 179.357 65.814 179.147L65.2793 179.797C65.5329 180.055 65.8174 180.248 66.1293 180.376C66.4378 180.505 66.7599 180.569 67.089 180.569Z" fill="#FD3E72"/>
<path d="M73.7793 177.083C73.5257 177.083 73.2926 177.133 73.0835 177.228C72.871 177.323 72.6962 177.462 72.5523 177.644H72.5386C72.3329 177.272 71.9936 177.083 71.5172 177.083C71.315 177.083 71.1196 177.13 70.9346 177.218C70.7495 177.306 70.585 177.435 70.4479 177.6H70.4376V177.133H69.6527V180.515H70.4376V178.829C70.4376 178.508 70.513 178.254 70.6672 178.068C70.8214 177.881 71.0202 177.787 71.2602 177.787C71.7126 177.787 71.9422 178.112 71.9422 178.755V180.518H72.7271V178.829C72.7271 178.508 72.8025 178.254 72.9533 178.068C73.1041 177.881 73.296 177.787 73.5257 177.787C73.9712 177.787 74.1975 178.112 74.1975 178.755V180.518H74.9823V178.558C74.9823 178.064 74.8761 177.695 74.6704 177.452C74.4614 177.208 74.1632 177.083 73.7793 177.083Z" fill="#FD3E72"/>
<path d="M78.468 177.133V177.54H78.4543C78.1938 177.235 77.8408 177.083 77.3952 177.083C77.1622 177.083 76.9428 177.127 76.7406 177.215C76.535 177.303 76.3602 177.424 76.2162 177.577C76.0688 177.733 75.9523 177.919 75.87 178.135C75.7844 178.355 75.7432 178.589 75.7432 178.839C75.7432 179.046 75.7672 179.239 75.8221 179.422C75.8769 179.604 75.9523 179.764 76.0517 179.902C76.1511 180.041 76.2676 180.16 76.4047 180.261C76.5418 180.363 76.6926 180.441 76.864 180.491C77.0354 180.545 77.2136 180.569 77.4021 180.569C77.8682 180.569 78.2315 180.4 78.492 180.061H78.5023V180.515H79.2529V177.133H78.468ZM77.5255 179.865C77.2342 179.865 76.9977 179.77 76.816 179.581C76.6309 179.391 76.5418 179.144 76.5418 178.843C76.5418 178.687 76.5658 178.542 76.6172 178.406C76.6686 178.271 76.7406 178.159 76.8297 178.071C76.9188 177.983 77.0217 177.912 77.1416 177.861C77.2616 177.814 77.3918 177.787 77.5289 177.787C77.8065 177.787 78.0362 177.888 78.2213 178.091C78.4063 178.294 78.4989 178.545 78.4989 178.843C78.4989 179.144 78.4029 179.391 78.2144 179.581C78.0259 179.77 77.7963 179.865 77.5255 179.865Z" fill="#FD3E72"/>
<path d="M82.1045 177.083C81.8955 177.083 81.7001 177.133 81.515 177.228C81.3299 177.323 81.1723 177.462 81.0386 177.641H81.0283V177.133H80.2434V180.515H81.0283V178.91C81.0283 178.728 81.0626 178.562 81.1346 178.416C81.2065 178.271 81.3128 178.156 81.4567 178.068C81.6007 177.983 81.7686 177.939 81.964 177.939C82.0326 177.939 82.1114 177.942 82.2005 177.949V177.086C82.1799 177.086 82.1491 177.083 82.1045 177.083Z" fill="#FD3E72"/>
<path d="M83.8765 180.569C84.0787 180.569 84.2432 180.552 84.3701 180.518C84.4969 180.485 84.6237 180.437 84.7471 180.369L84.5414 179.699C84.3564 179.797 84.185 179.845 84.0342 179.845C83.9211 179.845 83.8388 179.811 83.784 179.736C83.7291 179.665 83.7051 179.543 83.7051 179.374V177.793H84.7128V177.133H83.7051V175.925L82.9203 176.01V177.133H82.5021V177.793H82.9203V179.445C82.9203 179.818 83.0025 180.095 83.1705 180.285C83.3384 180.474 83.5749 180.569 83.8765 180.569Z" fill="#FD3E72"/>
<path d="M85.5182 180.515H87.1257C87.5164 180.515 87.8763 180.457 88.1985 180.336C88.5207 180.217 88.7914 180.051 89.0108 179.835C89.2267 179.618 89.3947 179.361 89.5146 179.056C89.6312 178.755 89.6929 178.423 89.6929 178.061C89.6929 177.702 89.6312 177.367 89.5078 177.062C89.3844 176.758 89.213 176.497 88.9937 176.28C88.7709 176.064 88.4967 175.894 88.1745 175.773C87.8489 175.651 87.4924 175.59 87.1051 175.59H85.5182V180.515ZM86.3648 179.764V176.341H87.1223C87.4479 176.341 87.7392 176.416 87.9997 176.561C88.2602 176.71 88.459 176.913 88.6029 177.174C88.7469 177.438 88.8189 177.733 88.8189 178.061C88.8189 178.305 88.7743 178.528 88.692 178.738C88.6098 178.948 88.4933 179.131 88.3424 179.279C88.1916 179.432 88.01 179.55 87.7906 179.635C87.5713 179.723 87.3314 179.764 87.0743 179.764H86.3648Z" fill="#FD3E72"/>
<path d="M93.9771 175.59V179.124H93.96L91.5265 175.59H90.6868V180.515H91.5334V177.032H91.5471L93.96 180.515H94.8237V175.59H93.9771Z" fill="#FD3E72"/>
<path d="M97.5382 180.569C97.6993 180.569 97.8604 180.552 98.0215 180.515C98.1792 180.481 98.3334 180.424 98.4842 180.342C98.635 180.264 98.7653 180.17 98.8784 180.055C98.9915 179.943 99.084 179.804 99.1526 179.638C99.2211 179.476 99.2554 179.293 99.2554 179.097C99.2554 178.907 99.2245 178.738 99.1697 178.589C99.0703 178.332 98.8646 178.115 98.5493 177.942C98.4054 177.865 98.1243 177.746 97.713 177.584C97.3634 177.452 97.1338 177.35 97.0275 177.282C96.8596 177.174 96.7773 177.039 96.7808 176.869C96.7808 176.693 96.8493 176.551 96.9796 176.45C97.1098 176.348 97.2777 176.294 97.4765 176.294C97.833 176.294 98.2134 176.463 98.6247 176.798L99.1286 176.142C98.6042 175.735 98.0523 175.536 97.4765 175.536C97.1921 175.536 96.9282 175.597 96.6882 175.718C96.4483 175.84 96.2564 176.006 96.1159 176.216C95.9719 176.429 95.9034 176.663 95.9034 176.913C95.9034 177.039 95.9171 177.157 95.9479 177.265C95.9788 177.374 96.0199 177.472 96.0679 177.556C96.1159 177.641 96.1775 177.722 96.2598 177.797C96.3386 177.871 96.4175 177.939 96.4963 177.993C96.5751 178.047 96.6711 178.101 96.7808 178.156C96.8904 178.21 96.9933 178.257 97.0858 178.291C97.1749 178.328 97.2846 178.369 97.408 178.41C97.5108 178.447 97.5965 178.477 97.6616 178.501C97.7233 178.528 97.7953 178.555 97.8707 178.589C97.9461 178.623 98.0078 178.65 98.0523 178.677C98.0969 178.704 98.1415 178.738 98.1894 178.775C98.234 178.816 98.2683 178.853 98.2923 178.894C98.3128 178.934 98.3334 178.978 98.3471 179.029C98.3608 179.08 98.3711 179.134 98.3711 179.195C98.3711 179.384 98.2991 179.53 98.1586 179.638C98.0146 179.747 97.809 179.797 97.5417 179.797C97.3189 179.797 97.0927 179.743 96.8665 179.631C96.6402 179.52 96.438 179.357 96.2632 179.147L95.7286 179.797C95.9822 180.055 96.2667 180.248 96.5786 180.376C96.887 180.505 97.2092 180.569 97.5382 180.569Z" fill="#FD3E72"/>
<path d="M56.4727 182.457C58.9051 182.457 60.877 180.485 60.877 178.052C60.877 175.62 58.9051 173.648 56.4727 173.648C54.0402 173.648 52.0684 175.62 52.0684 178.052C52.0684 180.485 54.0402 182.457 56.4727 182.457Z" fill="#FD3E72"/>
<path fill-rule="evenodd" clip-rule="evenodd" d="M51.8887 176.585C51.8887 176.324 52.0999 176.113 52.3606 176.113H60.5819C60.8425 176.113 61.0538 176.324 61.0538 176.585C61.0538 176.845 60.8425 177.057 60.5819 177.057H52.3606C52.0999 177.057 51.8887 176.845 51.8887 176.585Z" fill="white"/>
<path fill-rule="evenodd" clip-rule="evenodd" d="M51.8887 179.521C51.8887 179.26 52.0999 179.049 52.3606 179.049H60.5819C60.8425 179.049 61.0538 179.26 61.0538 179.521C61.0538 179.781 60.8425 179.993 60.5819 179.993H52.3606C52.0999 179.993 51.8887 179.781 51.8887 179.521Z" fill="white"/>
<path fill-rule="evenodd" clip-rule="evenodd" d="M56.4754 173.248C56.6965 173.386 56.7639 173.677 56.6259 173.898C55.8482 175.144 55.436 176.584 55.436 178.053C55.436 179.521 55.8482 180.961 56.6259 182.207C56.7639 182.428 56.6965 182.719 56.4754 182.857C56.2543 182.995 55.9632 182.928 55.8252 182.707C54.9541 181.311 54.4922 179.698 54.4922 178.053C54.4922 176.407 54.9541 174.794 55.8252 173.398C55.9632 173.177 56.2543 173.11 56.4754 173.248Z" fill="white"/>
<path fill-rule="evenodd" clip-rule="evenodd" d="M56.4663 173.248C56.6874 173.11 56.9785 173.177 57.1164 173.398C57.9876 174.794 58.4495 176.407 58.4495 178.053C58.4495 179.698 57.9876 181.311 57.1164 182.707C56.9785 182.928 56.6874 182.995 56.4663 182.857C56.2452 182.719 56.1778 182.428 56.3158 182.207C57.0934 180.961 57.5057 179.521 57.5057 178.053C57.5057 176.584 57.0934 175.144 56.3158 173.898C56.1778 173.677 56.2452 173.386 56.4663 173.248Z" fill="white"/>
<path d="M66.8312 133.901H61.8505C61.6241 133.901 61.4526 134.1 61.4938 134.319C61.5006 134.367 61.5075 134.415 61.5144 134.463C61.5487 134.655 61.6035 134.84 61.679 135.025C61.7956 135.306 61.9809 135.553 62.2347 135.772C62.4817 135.991 62.8316 136.094 63.2775 136.094C63.7234 136.094 64.0664 135.984 64.3203 135.772C64.5192 135.601 64.6701 135.409 64.7868 135.203C64.8485 135.094 64.972 135.025 65.0955 135.025H66.4882C66.742 135.025 66.9135 135.279 66.8312 135.512C66.7694 135.69 66.694 135.861 66.6048 136.012C66.447 136.293 66.2755 136.539 66.0834 136.745C65.8913 136.95 65.6924 137.122 65.4728 137.259C65.2533 137.396 65.0475 137.505 64.8417 137.594C64.3408 137.786 63.8195 137.889 63.2638 137.889C62.5366 137.875 61.8917 137.725 61.3291 137.437C61.089 137.307 60.8558 137.142 60.6225 136.944C60.3892 136.745 60.1834 136.491 60.0051 136.19C59.8267 135.888 59.6826 135.525 59.5729 135.1C59.4631 134.676 59.4082 134.189 59.4082 133.62C59.4082 133.059 59.4631 132.565 59.5729 132.14C59.6826 131.716 59.8267 131.352 60.0051 131.044C60.1834 130.736 60.3892 130.482 60.6225 130.277C60.8558 130.071 61.089 129.907 61.3291 129.777C61.8848 129.475 62.5228 129.317 63.2432 129.29C63.2569 129.29 63.2706 129.29 63.2843 129.29C63.8743 129.317 64.4232 129.441 64.9377 129.66C65.1572 129.756 65.3768 129.886 65.5963 130.044C65.8158 130.201 66.0217 130.393 66.2137 130.626C66.4058 130.859 66.5705 131.133 66.7146 131.455C66.8586 131.777 66.9684 132.147 67.0301 132.565C67.0507 132.73 67.0713 132.894 67.085 133.065C67.0987 133.237 67.1125 133.422 67.1125 133.62C67.1193 133.607 67.1605 133.901 66.8312 133.901ZM64.4575 132.552C64.7182 132.552 64.9034 132.277 64.7868 132.044C64.7868 132.044 64.7868 132.038 64.7799 132.038C64.6976 131.866 64.5878 131.709 64.4438 131.565C64.2997 131.428 64.135 131.311 63.9429 131.229C63.7509 131.147 63.5176 131.106 63.2638 131.106C63.0031 131.106 62.7767 131.147 62.5846 131.229C62.3925 131.311 62.221 131.421 62.0838 131.565C61.9397 131.709 61.8299 131.859 61.7407 132.038V132.044C61.6241 132.284 61.8094 132.558 62.07 132.558H64.4575V132.552Z" fill="white"/>
<path d="M58.4192 125.83C57.3215 125.83 56.4365 126.713 56.4365 127.81V133.545C56.4365 133.785 56.4228 134.024 56.3953 134.278C56.3679 134.525 56.2993 134.751 56.1895 134.956C56.0798 135.162 55.9151 135.333 55.6956 135.47C55.476 135.607 55.1605 135.676 54.7626 135.676C54.3646 135.676 54.0491 135.607 53.8295 135.47C53.61 135.333 53.4453 135.162 53.3356 134.956C53.2258 134.751 53.1572 134.525 53.1298 134.278C53.1023 134.031 53.0886 133.785 53.0886 133.545V127.632C51.9909 127.632 51.1059 128.516 51.1059 129.612V133.538C51.1059 133.778 51.0922 134.018 51.0648 134.271C51.0373 134.518 50.9687 134.744 50.859 134.949C50.7492 135.155 50.5846 135.326 50.365 135.463C50.1455 135.6 49.8299 135.669 49.432 135.669C49.0341 135.669 48.7185 135.6 48.499 135.463C48.2794 135.326 48.1148 135.155 48.005 134.949C47.8953 134.744 47.8267 134.518 47.7992 134.271C47.7718 134.024 47.7581 133.778 47.7581 133.538V129.434C46.6604 129.434 45.7754 130.324 45.7754 131.414V133.538C45.7754 134.1 45.8303 134.593 45.94 135.018C46.0498 135.443 46.187 135.806 46.3517 136.114C46.5232 136.423 46.7153 136.676 46.9348 136.882C47.1543 137.087 47.3807 137.252 47.6071 137.382C48.1354 137.683 48.746 137.848 49.4251 137.868C50.118 137.848 50.7286 137.683 51.2637 137.382C51.4901 137.252 51.7165 137.087 51.9292 136.882C51.9841 136.827 52.039 136.772 52.0938 136.71C52.1487 136.772 52.2036 136.827 52.2585 136.882C52.478 137.087 52.7044 137.252 52.9308 137.382C53.4591 137.683 54.0696 137.848 54.7488 137.868C55.4417 137.848 56.0523 137.683 56.5874 137.382C56.8138 137.252 57.0402 137.087 57.2529 136.882C57.4724 136.676 57.6645 136.423 57.836 136.114C58.0075 135.806 58.1447 135.443 58.2476 135.018C58.3506 134.593 58.3986 134.107 58.3986 133.538L58.4192 125.83Z" fill="white"/>
<path d="M73.1273 137.368C73.0724 137.525 72.9284 137.635 72.7569 137.635H71.7141H70.6713C70.5066 137.635 70.3557 137.525 70.3008 137.368L67.8791 129.947C67.7968 129.694 67.982 129.44 68.2496 129.44H69.4227C69.5874 129.44 69.7383 129.55 69.7932 129.707L71.3436 134.442C71.4602 134.798 71.9611 134.798 72.0777 134.442L72.9695 131.715L74.4651 127.138C74.7944 126.144 75.8646 125.596 76.8594 125.925L73.1273 137.368Z" fill="white"/>
<path d="M82.694 130.989C82.5156 130.681 82.3098 130.427 82.0766 130.222C81.8433 130.016 81.6101 129.852 81.3699 129.721C80.8074 129.42 80.1694 129.255 79.4627 129.235C78.7836 129.235 78.2073 129.338 77.7339 129.536C77.2605 129.735 76.8695 130.023 76.5608 130.393C76.2521 130.763 76.0325 131.215 75.8885 131.749C75.7512 132.284 75.6758 132.887 75.6758 133.565V139.869C75.6758 140.136 75.8885 140.349 76.156 140.349H77.1165C77.384 140.349 77.5967 140.136 77.5967 139.869V136.697C77.6996 136.84 77.8162 136.964 77.9397 137.073C78.221 137.313 78.4954 137.484 78.763 137.587C79.0648 137.704 79.3736 137.772 79.696 137.793C79.7234 137.793 79.744 137.793 79.7715 137.793C80.4232 137.779 81.0063 137.628 81.514 137.341C81.7404 137.21 81.9599 137.046 82.1726 136.847C82.3853 136.649 82.5705 136.395 82.742 136.094C82.9067 135.792 83.0439 135.429 83.1468 135.011C83.2497 134.593 83.2977 134.1 83.2977 133.538C83.2977 132.976 83.2428 132.489 83.1262 132.065C83.0164 131.654 82.8724 131.29 82.694 130.989ZM81.2464 134.326C81.2053 134.607 81.1161 134.867 80.9858 135.107C80.8554 135.347 80.6702 135.552 80.4301 135.71C80.1899 135.874 79.8675 135.95 79.4696 135.95C79.0717 135.95 78.7493 135.867 78.5091 135.71C78.269 135.545 78.0769 135.347 77.9397 135.107C77.8025 134.867 77.7133 134.607 77.6722 134.326C77.631 134.045 77.6104 133.784 77.6104 133.552C77.6104 133.264 77.631 132.976 77.6653 132.688C77.7065 132.4 77.7819 132.147 77.9054 131.914C78.0289 131.681 78.2141 131.496 78.4611 131.359C78.7081 131.222 79.0443 131.147 79.4627 131.147C79.8606 131.147 80.1831 131.229 80.4232 131.386C80.6633 131.551 80.8554 131.749 80.9789 131.989C81.1092 132.229 81.1916 132.496 81.2396 132.77C81.2808 133.051 81.3013 133.312 81.3013 133.545C81.3082 133.784 81.2876 134.045 81.2464 134.326Z" fill="white"/>
<path d="M90.8298 131.729C90.6652 131.236 90.4525 130.832 90.1918 130.51C89.9311 130.188 89.6498 129.941 89.348 129.77C89.0461 129.598 88.758 129.468 88.4904 129.393C88.2228 129.311 87.9827 129.27 87.7838 129.256C87.5848 129.242 87.4682 129.242 87.4339 129.242C87.3927 129.242 87.2693 129.249 87.0772 129.256C86.8851 129.27 86.6518 129.311 86.3843 129.393C86.1167 129.475 85.8286 129.598 85.5267 129.77C85.2248 129.941 84.9436 130.188 84.6829 130.51C84.4222 130.832 84.2095 131.243 84.0449 131.729C83.8802 132.223 83.791 132.826 83.791 133.545V137.204C83.791 137.444 83.9831 137.636 84.2232 137.636H85.3278C85.5679 137.636 85.76 137.444 85.76 137.204V133.552C85.76 133.312 85.7805 133.072 85.8217 132.826C85.8629 132.579 85.9452 132.353 86.0618 132.147C86.1784 131.942 86.35 131.771 86.5626 131.64C86.7753 131.503 87.0634 131.442 87.4202 131.442C87.7769 131.442 88.0651 131.51 88.2777 131.64C88.4904 131.777 88.6619 131.942 88.7785 132.147C88.8952 132.353 88.9775 132.579 89.0187 132.826C89.0598 133.072 89.0804 133.319 89.0804 133.552V137.204C89.0804 137.444 89.2725 137.636 89.5126 137.636H90.6446C90.8847 137.636 91.0768 137.444 91.0768 137.204V133.552C91.0768 132.826 90.9945 132.223 90.8298 131.729Z" fill="white"/>
<path d="M369.178 125.829C369.178 124.787 370.023 123.942 371.065 123.942H396.233C397.275 123.942 398.12 124.787 398.12 125.829V132.121C398.12 133.164 397.275 134.009 396.233 134.009H371.065C370.023 134.009 369.178 133.164 369.178 132.121V125.829Z" fill="#DDDDDD"/>
<path d="M376.098 128.975C376.098 128.28 376.661 127.717 377.356 127.717H389.94C390.635 127.717 391.198 128.28 391.198 128.975C391.198 129.67 390.635 130.234 389.94 130.234H377.356C376.661 130.234 376.098 129.67 376.098 128.975Z" fill="white"/>
<path d="M345.898 126.773C345.898 125.21 347.166 123.942 348.73 123.942H361.314C362.877 123.942 364.145 125.21 364.145 126.773V131.178C364.145 132.741 362.877 134.009 361.314 134.009H348.73C347.166 134.009 345.898 132.741 345.898 131.178V126.773Z" fill="white"/>
<path d="M348.414 128.975C348.414 128.28 348.977 127.717 349.672 127.717H360.34C361.035 127.717 361.598 128.28 361.598 128.975C361.598 129.67 361.035 130.234 360.34 130.234H349.672C348.977 130.234 348.414 129.67 348.414 128.975Z" fill="#DDDDDD"/>
<path d="M57.7288 106.325C57.7288 107.715 56.602 108.842 55.2121 108.842C53.8221 108.842 52.6953 107.715 52.6953 106.325C52.6953 104.935 53.8221 103.808 55.2121 103.808C56.602 103.808 57.7288 104.935 57.7288 106.325Z" fill="#FD3E72"/>
<path d="M64.6487 106.325C64.6487 107.715 63.5219 108.842 62.132 108.842C60.742 108.842 59.6152 107.715 59.6152 106.325C59.6152 104.935 60.742 103.808 62.132 103.808C63.5219 103.808 64.6487 104.935 64.6487 106.325Z" fill="#F6BC4F"/>
<path d="M71.5726 106.325C71.5726 107.715 70.4458 108.842 69.0558 108.842C67.6658 108.842 66.5391 107.715 66.5391 106.325C66.5391 104.935 67.6658 103.808 69.0558 103.808C70.4458 103.808 71.5726 104.935 71.5726 106.325Z" fill="#00B67A"/>
<path d="M42 117.65H408.187V118.28H42V117.65Z" fill="#F3F3F3"/>
<path d="M50.8086 155.716C50.8086 153.11 52.9213 150.998 55.5275 150.998H115.929C118.536 150.998 120.648 153.11 120.648 155.716C120.648 158.323 118.536 160.435 115.929 160.435H55.5275C52.9213 160.435 50.8086 158.323 50.8086 155.716Z" fill="#EE3C6C"/>
<path d="M50.8086 207.31C50.8086 204.704 52.9213 202.591 55.5275 202.591H115.929C118.536 202.591 120.648 204.704 120.648 207.31C120.648 209.916 118.536 212.029 115.929 212.029H55.5275C52.9213 212.029 50.8086 209.916 50.8086 207.31Z" fill="#EE3C6C"/>
<path d="M50.8086 229.331C50.8086 226.725 52.9213 224.612 55.5275 224.612H115.929C118.536 224.612 120.648 226.725 120.648 229.331C120.648 231.937 118.536 234.05 115.929 234.05H55.5275C52.9213 234.05 50.8086 231.937 50.8086 229.331Z" fill="#EE3C6C"/>
<path d="M50.8086 251.353C50.8086 248.747 52.9213 246.634 55.5275 246.634H115.929C118.536 246.634 120.648 248.747 120.648 251.353C120.648 253.959 118.536 256.072 115.929 256.072H55.5275C52.9213 256.072 50.8086 253.959 50.8086 251.353Z" fill="#EE3C6C"/>
<path d="M50.8086 273.375C50.8086 270.768 52.9213 268.656 55.5275 268.656H115.929C118.536 268.656 120.648 270.768 120.648 273.375C120.648 275.981 118.536 278.094 115.929 278.094H55.5275C52.9213 278.094 50.8086 275.981 50.8086 273.375Z" fill="#EE3C6C"/>
<path d="M297.449 189.378C297.449 187.64 298.858 186.232 300.595 186.232H394.973C396.711 186.232 398.119 187.64 398.119 189.378V295.71C398.119 297.448 396.711 298.856 394.973 298.856H300.595C298.858 298.856 297.449 297.448 297.449 295.71V189.378Z" fill="white"/>
<path fill-rule="evenodd" clip-rule="evenodd" d="M386.129 285.084C385.945 285.269 385.646 285.269 385.462 285.084L383.908 283.531L382.354 285.084C382.17 285.269 381.871 285.269 381.687 285.084C381.503 284.9 381.503 284.601 381.687 284.417L383.574 282.53C383.759 282.345 384.058 282.345 384.242 282.53L386.129 284.417C386.314 284.601 386.314 284.9 386.129 285.084Z" fill="#2C3E50"/>
<path d="M324.174 281.174V284.599H324.157L321.81 281.174H321V285.948H321.817V282.572H321.83L324.157 285.948H324.99V281.174H324.174Z" fill="#5B5863"/>
<path d="M326.415 282.181C326.504 282.181 326.587 282.161 326.666 282.115C326.746 282.07 326.808 282.01 326.855 281.932C326.901 281.856 326.924 281.774 326.924 281.682C326.924 281.548 326.871 281.43 326.772 281.331C326.673 281.233 326.554 281.184 326.415 281.184C326.27 281.184 326.151 281.233 326.051 281.331C325.952 281.43 325.903 281.545 325.903 281.682C325.903 281.82 325.952 281.938 326.051 282.037C326.151 282.135 326.27 282.181 326.415 282.181ZM326.032 285.948H326.789V282.67H326.032V285.948Z" fill="#5B5863"/>
<path d="M329.701 282.621C329.483 282.621 329.281 282.663 329.09 282.749C328.898 282.834 328.732 282.959 328.594 283.119H328.584V282.67H327.827V285.948H328.584V284.301C328.584 284.143 328.604 284.002 328.643 283.874C328.683 283.749 328.742 283.644 328.818 283.559C328.891 283.477 328.984 283.415 329.09 283.369C329.195 283.326 329.311 283.303 329.44 283.303C329.559 283.303 329.658 283.32 329.744 283.349C329.83 283.382 329.903 283.431 329.969 283.5C330.032 283.569 330.078 283.661 330.111 283.779C330.141 283.897 330.157 284.041 330.157 284.212V285.951H330.914V284.018C330.914 283.546 330.805 283.195 330.59 282.965C330.376 282.736 330.078 282.621 329.701 282.621Z" fill="#5B5863"/>
<path d="M332.832 286C333.027 286 333.186 285.984 333.308 285.951C333.43 285.918 333.552 285.872 333.671 285.806L333.473 285.157C333.295 285.252 333.129 285.298 332.984 285.298C332.875 285.298 332.795 285.265 332.743 285.193C332.69 285.124 332.666 285.006 332.666 284.842V283.31H333.638V282.67H332.666V281.499L331.909 281.581V282.67H331.506V283.31H331.909V284.911C331.909 285.272 331.989 285.541 332.151 285.724C332.313 285.908 332.541 286 332.832 286Z" fill="#5B5863"/>
<path d="M337.179 284.271C337.179 283.956 337.113 283.671 336.984 283.421C336.852 283.172 336.667 282.978 336.422 282.834C336.177 282.693 335.893 282.621 335.576 282.621C335.348 282.621 335.136 282.663 334.938 282.745C334.739 282.827 334.567 282.942 334.425 283.087C334.28 283.234 334.167 283.411 334.088 283.621C334.005 283.831 333.966 284.061 333.966 284.307C333.966 284.642 334.038 284.94 334.187 285.199C334.333 285.459 334.534 285.656 334.792 285.793C335.047 285.931 335.334 286 335.655 286C335.962 286 336.234 285.944 336.468 285.833C336.703 285.721 336.895 285.57 337.047 285.38L336.518 284.93C336.31 285.19 336.035 285.318 335.695 285.318C335.45 285.318 335.245 285.252 335.076 285.117C334.908 284.986 334.799 284.802 334.753 284.57H337.159C337.172 284.491 337.179 284.392 337.179 284.271ZM335.615 283.303C335.754 283.303 335.88 283.333 335.992 283.388C336.105 283.444 336.194 283.52 336.263 283.618C336.333 283.717 336.386 283.831 336.419 283.963H334.766C334.819 283.753 334.921 283.592 335.073 283.477C335.225 283.362 335.404 283.303 335.615 283.303Z" fill="#5B5863"/>
<path d="M339.837 282.621C339.619 282.621 339.417 282.663 339.225 282.749C339.034 282.834 338.868 282.959 338.729 283.119H338.72V282.67H337.963V285.948H338.72V284.301C338.72 284.143 338.739 284.002 338.779 283.874C338.819 283.749 338.878 283.644 338.954 283.559C339.027 283.477 339.12 283.415 339.225 283.369C339.331 283.326 339.447 283.303 339.576 283.303C339.695 283.303 339.794 283.32 339.88 283.349C339.966 283.382 340.039 283.431 340.105 283.5C340.168 283.569 340.214 283.661 340.247 283.779C340.277 283.897 340.293 284.041 340.293 284.212V285.951H341.05V284.018C341.05 283.546 340.941 283.195 340.726 282.965C340.511 282.736 340.214 282.621 339.837 282.621Z" fill="#5B5863"/>
<path d="M344.439 281V283.064H344.422C344.171 282.768 343.821 282.621 343.378 282.621C343.153 282.621 342.941 282.663 342.746 282.749C342.548 282.834 342.379 282.952 342.24 283.1C342.098 283.251 341.986 283.431 341.906 283.641C341.824 283.854 341.784 284.081 341.784 284.323C341.784 284.524 341.807 284.711 341.86 284.888C341.913 285.065 341.986 285.219 342.082 285.354C342.178 285.488 342.29 285.603 342.422 285.701C342.554 285.8 342.7 285.875 342.865 285.925C343.03 285.977 343.202 286 343.384 286C343.847 286 344.207 285.836 344.459 285.508H344.472V285.948H345.196V281H344.439ZM343.503 285.318C343.222 285.318 342.994 285.226 342.819 285.042C342.64 284.858 342.554 284.619 342.554 284.327C342.554 284.176 342.578 284.035 342.627 283.904C342.677 283.772 342.746 283.664 342.832 283.579C342.918 283.493 343.017 283.425 343.133 283.375C343.249 283.329 343.374 283.303 343.507 283.303C343.788 283.303 344.019 283.402 344.197 283.595C344.376 283.792 344.469 284.035 344.469 284.327C344.469 284.622 344.376 284.858 344.191 285.042C344.006 285.226 343.774 285.318 343.503 285.318Z" fill="#5B5863"/>
<path d="M347.722 286C348.052 286 348.35 285.931 348.614 285.79C348.879 285.649 349.084 285.449 349.232 285.193C349.378 284.937 349.454 284.642 349.454 284.314C349.454 283.986 349.378 283.69 349.232 283.431C349.084 283.175 348.879 282.975 348.617 282.834C348.353 282.693 348.055 282.621 347.722 282.621C347.378 282.621 347.074 282.696 346.809 282.844C346.545 282.991 346.34 283.192 346.198 283.448C346.055 283.703 345.986 283.992 345.986 284.314C345.986 284.553 346.026 284.776 346.112 284.983C346.194 285.193 346.31 285.37 346.459 285.521C346.607 285.672 346.793 285.787 347.011 285.872C347.229 285.957 347.464 286 347.722 286ZM347.722 285.318C347.441 285.318 347.209 285.222 347.027 285.029C346.845 284.839 346.756 284.599 346.756 284.314C346.756 284.025 346.845 283.785 347.024 283.592C347.203 283.402 347.434 283.303 347.722 283.303C347.996 283.303 348.224 283.398 348.409 283.585C348.591 283.776 348.684 284.018 348.684 284.314C348.684 284.606 348.591 284.845 348.406 285.035C348.221 285.226 347.993 285.318 347.722 285.318Z" fill="#5B5863"/>
<path d="M353.593 286C353.748 286 353.904 285.984 354.059 285.948C354.211 285.915 354.36 285.859 354.505 285.78C354.651 285.705 354.776 285.613 354.885 285.501C354.994 285.393 355.084 285.259 355.15 285.098C355.216 284.94 355.249 284.763 355.249 284.573C355.249 284.389 355.219 284.225 355.166 284.081C355.071 283.831 354.872 283.621 354.568 283.454C354.429 283.379 354.158 283.264 353.761 283.106C353.424 282.978 353.203 282.88 353.1 282.814C352.938 282.709 352.859 282.578 352.862 282.414C352.862 282.243 352.928 282.106 353.054 282.007C353.18 281.909 353.342 281.856 353.533 281.856C353.877 281.856 354.244 282.02 354.641 282.345L355.127 281.709C354.621 281.315 354.089 281.121 353.533 281.121C353.259 281.121 353.004 281.18 352.773 281.299C352.542 281.417 352.356 281.577 352.221 281.781C352.082 281.988 352.016 282.214 352.016 282.457C352.016 282.578 352.029 282.693 352.059 282.798C352.089 282.903 352.128 282.998 352.175 283.08C352.221 283.162 352.28 283.241 352.36 283.313C352.436 283.385 352.512 283.451 352.588 283.503C352.664 283.556 352.756 283.608 352.862 283.661C352.968 283.713 353.067 283.759 353.156 283.792C353.242 283.828 353.348 283.867 353.467 283.907C353.566 283.943 353.649 283.972 353.712 283.995C353.771 284.022 353.841 284.048 353.913 284.081C353.986 284.114 354.046 284.14 354.089 284.166C354.132 284.192 354.175 284.225 354.221 284.261C354.264 284.301 354.297 284.337 354.32 284.376C354.34 284.415 354.36 284.458 354.373 284.507C354.386 284.556 354.396 284.609 354.396 284.668C354.396 284.852 354.327 284.993 354.191 285.098C354.052 285.203 353.854 285.252 353.596 285.252C353.381 285.252 353.163 285.199 352.945 285.091C352.727 284.983 352.532 284.825 352.363 284.622L351.847 285.252C352.092 285.501 352.366 285.688 352.667 285.813C352.965 285.938 353.275 286 353.593 286Z" fill="#5B5863"/>
<path d="M359.729 282.67L359.014 284.829H359.005L358.357 282.67H357.725L357.087 284.825H357.074L356.36 282.67H355.593L356.727 285.948H357.411L358.029 283.884H358.043L358.661 285.948H359.362L360.495 282.67H359.729Z" fill="#5B5863"/>
<path d="M361.583 282.181C361.672 282.181 361.755 282.161 361.834 282.115C361.914 282.07 361.977 282.01 362.023 281.932C362.069 281.856 362.092 281.774 362.092 281.682C362.092 281.548 362.039 281.43 361.94 281.331C361.841 281.233 361.722 281.184 361.583 281.184C361.438 281.184 361.319 281.233 361.219 281.331C361.12 281.43 361.071 281.545 361.071 281.682C361.071 281.82 361.12 281.938 361.219 282.037C361.319 282.135 361.438 282.181 361.583 282.181ZM361.2 285.948H361.957V282.67H361.2V285.948Z" fill="#5B5863"/>
<path d="M363.947 286C364.142 286 364.301 285.984 364.423 285.951C364.545 285.918 364.668 285.872 364.787 285.806L364.588 285.157C364.41 285.252 364.244 285.298 364.099 285.298C363.99 285.298 363.91 285.265 363.858 285.193C363.805 285.124 363.782 285.006 363.782 284.842V283.31H364.753V282.67H363.782V281.499L363.025 281.581V282.67H362.621V283.31H363.025V284.911C363.025 285.272 363.104 285.541 363.266 285.724C363.428 285.908 363.656 286 363.947 286Z" fill="#5B5863"/>
<path d="M366.767 286C367.071 286 367.345 285.948 367.593 285.839C367.841 285.734 368.043 285.593 368.195 285.423L367.673 284.963C367.636 285.003 367.597 285.042 367.554 285.075C367.507 285.111 367.461 285.144 367.408 285.173C367.355 285.203 367.299 285.229 367.24 285.249C367.18 285.272 367.114 285.288 367.044 285.301C366.975 285.314 366.906 285.318 366.836 285.318C366.644 285.318 366.473 285.278 366.324 285.193C366.175 285.108 366.059 284.99 365.977 284.835C365.894 284.684 365.854 284.507 365.854 284.307C365.854 284.11 365.894 283.936 365.977 283.785C366.056 283.635 366.172 283.516 366.32 283.431C366.466 283.346 366.638 283.303 366.833 283.303C367.005 283.303 367.163 283.336 367.306 283.402C367.444 283.467 367.567 283.559 367.666 283.674L368.182 283.231C368.02 283.034 367.815 282.883 367.567 282.778C367.316 282.673 367.058 282.621 366.793 282.621C366.463 282.621 366.165 282.693 365.907 282.834C365.649 282.978 365.448 283.178 365.302 283.434C365.157 283.69 365.084 283.986 365.084 284.314C365.084 284.645 365.153 284.94 365.299 285.196C365.444 285.452 365.643 285.652 365.901 285.79C366.155 285.931 366.443 286 366.767 286Z" fill="#5B5863"/>
<path d="M370.767 282.621C370.542 282.621 370.334 282.66 370.142 282.739C369.95 282.818 369.785 282.929 369.65 283.08H369.636V281H368.879V285.948H369.636V284.281C369.636 283.966 369.712 283.723 369.871 283.556C370.03 283.388 370.248 283.303 370.526 283.303C370.764 283.303 370.942 283.372 371.061 283.507C371.18 283.641 371.243 283.864 371.243 284.179V285.951H372V283.986C372 283.749 371.97 283.539 371.911 283.362C371.851 283.185 371.765 283.044 371.653 282.936C371.54 282.831 371.412 282.752 371.266 282.699C371.121 282.647 370.952 282.621 370.767 282.621Z" fill="#5B5863"/>
<path fill-rule="evenodd" clip-rule="evenodd" d="M305.977 278.822H307.949V288.178H305.976C305.424 288.178 304.894 287.976 304.503 287.616C304.112 287.256 303.892 286.768 303.892 286.259V280.741C303.892 280.232 304.112 279.744 304.503 279.384C304.894 279.024 305.424 278.822 305.976 278.822L305.977 278.822ZM308.842 278V289H305.977C305.187 289 304.43 288.711 303.872 288.197C303.314 287.683 303 286.986 303 286.259V280.741C303 280.014 303.314 279.317 303.872 278.803C304.43 278.289 305.187 278 305.977 278H308.842ZM307.112 281.29C307.112 281.423 307.084 281.554 307.028 281.677C306.973 281.8 306.892 281.911 306.79 282.005C306.688 282.099 306.567 282.173 306.434 282.224C306.301 282.275 306.158 282.301 306.014 282.301C305.87 282.301 305.727 282.275 305.594 282.224C305.461 282.173 305.34 282.099 305.238 282.005C305.136 281.911 305.055 281.8 305 281.677C304.945 281.554 304.916 281.423 304.916 281.29C304.916 281.022 305.032 280.765 305.238 280.575C305.444 280.385 305.723 280.279 306.014 280.279C306.305 280.279 306.585 280.385 306.79 280.575C306.996 280.765 307.112 281.022 307.112 281.29ZM310.032 278H312.014C312.806 278 313.565 278.29 314.125 278.805C314.685 279.321 315 280.021 315 280.75V286.25C315 286.979 314.685 287.679 314.125 288.195C313.565 288.71 312.806 289 312.014 289H310.032V278ZM313.604 284.048C313.604 284.194 313.573 284.339 313.512 284.474C313.452 284.609 313.363 284.732 313.25 284.836C313.138 284.939 313.005 285.021 312.858 285.077C312.711 285.133 312.554 285.162 312.395 285.162C312.236 285.162 312.079 285.133 311.932 285.077C311.785 285.021 311.652 284.939 311.54 284.836C311.428 284.732 311.338 284.609 311.278 284.474C311.217 284.339 311.186 284.194 311.186 284.048C311.186 283.753 311.313 283.47 311.54 283.261C311.767 283.052 312.074 282.934 312.395 282.934C312.716 282.934 313.023 283.052 313.25 283.261C313.477 283.47 313.604 283.753 313.604 284.048Z" fill="#FD3E72"/>
<path d="M297.449 213.917H398.119V214.546H297.449V213.917Z" fill="#F3F3F3"/>
<path d="M297.449 241.601H398.119V242.23H297.449V241.601Z" fill="#F3F3F3"/>
<path d="M297.449 269.285H398.119V269.914H297.449V269.285Z" fill="#F3F3F3"/>
<path d="M303.113 223.983C303.113 222.593 304.24 221.466 305.63 221.466H313.7C315.09 221.466 316.216 222.593 316.216 223.983V232.053C316.216 233.443 315.09 234.569 313.7 234.569H305.63C304.24 234.569 303.113 233.443 303.113 232.053V223.983Z" fill="#E3E3E3"/>
<path d="M321.947 228.018C321.947 227.114 322.681 226.38 323.585 226.38H353.067C353.972 226.38 354.705 227.114 354.705 228.018C354.705 228.923 353.972 229.656 353.067 229.656H323.585C322.681 229.656 321.947 228.923 321.947 228.018Z" fill="#E3E3E3"/>
<path d="M303.113 251.667C303.113 250.277 304.24 249.15 305.63 249.15H313.7C315.09 249.15 316.216 250.277 316.216 251.667V259.737C316.216 261.127 315.09 262.253 313.7 262.253H305.63C304.24 262.253 303.113 261.127 303.113 259.737V251.667Z" fill="#E3E3E3"/>
<path d="M321.947 255.702C321.947 254.797 322.681 254.064 323.585 254.064H353.067C353.972 254.064 354.705 254.797 354.705 255.702C354.705 256.606 353.972 257.34 353.067 257.34H323.585C322.681 257.34 321.947 256.606 321.947 255.702Z" fill="#E3E3E3"/>
<path d="M303.113 196.928C303.113 195.538 304.24 194.411 305.63 194.411H313.7C315.09 194.411 316.216 195.538 316.216 196.928V204.997C316.216 206.387 315.09 207.514 313.7 207.514H305.63C304.24 207.514 303.113 206.387 303.113 204.997V196.928Z" fill="#E3E3E3"/>
<path d="M321.947 200.963C321.947 200.059 322.681 199.325 323.585 199.325H353.067C353.972 199.325 354.705 200.059 354.705 200.963C354.705 201.868 353.972 202.601 353.067 202.601H323.585C322.681 202.601 321.947 201.868 321.947 200.963Z" fill="#E3E3E3"/>
<defs>
<filter id="filter0_d" x="30" y="87" width="392.703" height="287" filterUnits="userSpaceOnUse" color-interpolation-filters="sRGB">
<feFlood flood-opacity="0" result="BackgroundImageFix"/>
<feColorMatrix in="SourceAlpha" type="matrix" values="0 0 0 0 0 0 0 0 0 0 0 0 0 0 0 0 0 0 127 0"/>
<feOffset dy="4"/>
<feGaussianBlur stdDeviation="6"/>
<feColorMatrix type="matrix" values="0 0 0 0 0 0 0 0 0 0 0 0 0 0 0 0 0 0 0.15 0"/>
<feBlend mode="normal" in2="BackgroundImageFix" result="effect1_dropShadow"/>
<feBlend mode="normal" in="SourceGraphic" in2="effect1_dropShadow" result="shape"/>
</filter>
<filter id="filter1_d" x="124.039" y="174.232" width="178.825" height="88.8517" filterUnits="userSpaceOnUse" color-interpolation-filters="sRGB">
<feFlood flood-opacity="0" result="BackgroundImageFix"/>
<feColorMatrix in="SourceAlpha" type="matrix" values="0 0 0 0 0 0 0 0 0 0 0 0 0 0 0 0 0 0 127 0"/>
<feOffset dy="6"/>
<feGaussianBlur stdDeviation="9"/>
<feColorMatrix type="matrix" values="0 0 0 0 0 0 0 0 0 0 0 0 0 0 0 0 0 0 0.05 0"/>
<feBlend mode="normal" in2="BackgroundImageFix" result="effect1_dropShadow"/>
<feBlend mode="normal" in="SourceGraphic" in2="effect1_dropShadow" result="shape"/>
</filter>
<filter id="filter2_d" x="124.039" y="237.78" width="178.825" height="144.22" filterUnits="userSpaceOnUse" color-interpolation-filters="sRGB">
<feFlood flood-opacity="0" result="BackgroundImageFix"/>
<feColorMatrix in="SourceAlpha" type="matrix" values="0 0 0 0 0 0 0 0 0 0 0 0 0 0 0 0 0 0 127 0"/>
<feOffset dy="6"/>
<feGaussianBlur stdDeviation="9"/>
<feColorMatrix type="matrix" values="0 0 0 0 0 0 0 0 0 0 0 0 0 0 0 0 0 0 0.05 0"/>
<feBlend mode="normal" in2="BackgroundImageFix" result="effect1_dropShadow"/>
<feBlend mode="normal" in="SourceGraphic" in2="effect1_dropShadow" result="shape"/>
</filter>
<filter id="filter3_d" x="37.7754" y="165.985" width="95.9067" height="36.7632" filterUnits="userSpaceOnUse" color-interpolation-filters="sRGB">
<feFlood flood-opacity="0" result="BackgroundImageFix"/>
<feColorMatrix in="SourceAlpha" type="matrix" values="0 0 0 0 0 0 0 0 0 0 0 0 0 0 0 0 0 0 127 0"/>
<feOffset dy="6"/>
<feGaussianBlur stdDeviation="4"/>
<feColorMatrix type="matrix" values="0 0 0 0 0 0 0 0 0 0 0 0 0 0 0 0 0 0 0.1 0"/>
<feBlend mode="normal" in2="BackgroundImageFix" result="effect1_dropShadow"/>
<feBlend mode="normal" in="SourceGraphic" in2="effect1_dropShadow" result="shape"/>
</filter>
<linearGradient id="paint0_linear" x1="116.149" y1="143.029" x2="147.789" y2="279.504" gradientUnits="userSpaceOnUse">
<stop stop-color="#FE6556"/>
<stop offset="0.413875" stop-color="#FD3E72"/>
<stop offset="1" stop-color="#49A8FF"/>
</linearGradient>
</defs>
</svg>
