<svg width="454" height="454" viewBox="0 0 454 454" fill="none" xmlns="http://www.w3.org/2000/svg">
<circle cx="227" cy="227" r="227" fill="#FFF2F6" fill-opacity="0.6"/>
<ellipse cx="226.588" cy="227" rx="165.948" ry="166.357" fill="#FFE7EE"/>
<g filter="url(#filter0_d)">
<path d="M404.411 95H48.2919C44.817 95 42 97.817 42 101.292V351.708C42 355.183 44.817 358 48.2919 358H404.411C407.886 358 410.703 355.183 410.703 351.708V101.292C410.703 97.817 407.886 95 404.411 95Z" fill="white"/>
</g>
<path d="M129.457 140.302H411.333V351.708C411.333 355.183 408.516 358 405.041 358H131.345C130.302 358 129.457 357.155 129.457 356.113V140.302Z" fill="#F4F4F4"/>
<g filter="url(#filter1_d)">
<path d="M142.039 188.119C142.039 187.077 142.884 186.232 143.927 186.232H282.977C284.019 186.232 284.864 187.077 284.864 188.119V237.196C284.864 238.239 284.019 239.084 282.977 239.084H143.927C142.884 239.084 142.039 238.239 142.039 237.196V188.119Z" fill="white"/>
</g>
<path d="M216.914 222.096C216.914 221.054 217.759 220.208 218.802 220.208H276.687C277.729 220.208 278.574 221.054 278.574 222.096V233.421C278.574 234.464 277.729 235.309 276.687 235.309H218.802C217.759 235.309 216.914 234.464 216.914 233.421V222.096Z" fill="#E3E3E3"/>
<path d="M232.645 227.758C232.645 227.063 233.208 226.5 233.903 226.5H261.587C262.282 226.5 262.845 227.063 262.845 227.758C262.845 228.453 262.282 229.017 261.587 229.017H233.903C233.208 229.017 232.645 228.453 232.645 227.758Z" fill="white"/>
<path d="M146.445 222.096C146.445 221.054 147.29 220.208 148.333 220.208H206.218C207.261 220.208 208.106 221.054 208.106 222.096V233.421C208.106 234.464 207.261 235.309 206.218 235.309H148.333C147.29 235.309 146.445 234.464 146.445 233.421V222.096Z" fill="#E3E3E3"/>
<path d="M162.174 227.758C162.174 227.063 162.737 226.5 163.432 226.5H191.116C191.811 226.5 192.375 227.063 192.375 227.758C192.375 228.453 191.811 229.017 191.116 229.017H163.432C162.737 229.017 162.174 228.453 162.174 227.758Z" fill="white"/>
<path d="M146.445 210.771C146.445 208.686 148.135 206.996 150.22 206.996H213.139C215.224 206.996 216.914 208.686 216.914 210.771C216.914 212.856 215.224 214.546 213.139 214.546H150.22C148.135 214.546 146.445 212.856 146.445 210.771Z" fill="#EEEEEE"/>
<path d="M146.445 192.524C146.445 191.482 147.29 190.637 148.333 190.637H170.354C171.397 190.637 172.242 191.482 172.242 192.524V196.299C172.242 197.342 171.397 198.187 170.354 198.187H148.333C147.29 198.187 146.445 197.342 146.445 196.299V192.524Z" fill="#EEEEEE"/>
<path d="M153.365 194.411C153.365 193.89 153.788 193.467 154.309 193.467H164.376C164.897 193.467 165.32 193.89 165.32 194.411C165.32 194.932 164.897 195.355 164.376 195.355H154.309C153.788 195.355 153.365 194.932 153.365 194.411Z" fill="white"/>
<path d="M142.039 188.119C142.039 187.077 142.884 186.232 143.927 186.232H282.977C284.019 186.232 284.864 187.077 284.864 188.119H142.039Z" fill="#FD3E72"/>
<path opacity="0.4" fill-rule="evenodd" clip-rule="evenodd" d="M284.864 201.715H142.039V201.086H284.864V201.715Z" fill="#E3E0D3"/>
<g filter="url(#filter2_d)">
<path d="M142.039 251.667C142.039 250.625 142.884 249.78 143.927 249.78H282.977C284.019 249.78 284.864 250.625 284.864 251.667V358H142.039V251.667Z" fill="white"/>
</g>
<path d="M160 276.946H163.27V276.191H160.877V272H160V276.946Z" fill="#FD3E72"/>
<path d="M165.691 277C166.046 277 166.365 276.929 166.649 276.782C166.933 276.636 167.153 276.429 167.313 276.164C167.469 275.899 167.551 275.593 167.551 275.253C167.551 274.913 167.469 274.607 167.313 274.339C167.153 274.073 166.933 273.866 166.653 273.72C166.369 273.574 166.049 273.499 165.691 273.499C165.321 273.499 164.995 273.577 164.711 273.73C164.427 273.883 164.207 274.09 164.054 274.356C163.901 274.621 163.827 274.92 163.827 275.253C163.827 275.501 163.87 275.732 163.962 275.946C164.051 276.164 164.175 276.347 164.335 276.504C164.494 276.66 164.693 276.779 164.927 276.867C165.162 276.956 165.414 277 165.691 277ZM165.691 276.293C165.389 276.293 165.14 276.194 164.945 275.994C164.75 275.797 164.654 275.549 164.654 275.253C164.654 274.954 164.75 274.706 164.942 274.505C165.133 274.308 165.382 274.206 165.691 274.206C165.985 274.206 166.23 274.305 166.429 274.498C166.624 274.695 166.724 274.947 166.724 275.253C166.724 275.555 166.624 275.804 166.426 276.001C166.227 276.198 165.982 276.293 165.691 276.293Z" fill="#FD3E72"/>
<path d="M170.004 277C170.331 277 170.625 276.946 170.891 276.833C171.158 276.725 171.374 276.579 171.538 276.402L170.977 275.926C170.938 275.967 170.895 276.007 170.849 276.041C170.799 276.079 170.749 276.113 170.693 276.143C170.636 276.174 170.575 276.201 170.512 276.222C170.448 276.245 170.377 276.262 170.302 276.276C170.228 276.29 170.153 276.293 170.078 276.293C169.873 276.293 169.688 276.252 169.528 276.164C169.368 276.075 169.244 275.953 169.155 275.793C169.067 275.637 169.024 275.453 169.024 275.246C169.024 275.042 169.067 274.862 169.155 274.706C169.241 274.549 169.365 274.427 169.525 274.339C169.681 274.25 169.865 274.206 170.075 274.206C170.26 274.206 170.43 274.24 170.583 274.308C170.732 274.376 170.863 274.471 170.97 274.59L171.523 274.131C171.349 273.927 171.129 273.771 170.863 273.662C170.593 273.553 170.316 273.499 170.032 273.499C169.677 273.499 169.358 273.574 169.081 273.72C168.804 273.869 168.587 274.077 168.431 274.342C168.275 274.607 168.197 274.913 168.197 275.253C168.197 275.596 168.272 275.902 168.428 276.167C168.584 276.432 168.797 276.64 169.074 276.782C169.347 276.929 169.656 277 170.004 277Z" fill="#FD3E72"/>
<path d="M174.878 273.55V273.958H174.864C174.594 273.652 174.228 273.499 173.767 273.499C173.526 273.499 173.298 273.543 173.089 273.632C172.876 273.72 172.695 273.842 172.546 273.995C172.393 274.152 172.272 274.339 172.187 274.556C172.098 274.777 172.056 275.012 172.056 275.263C172.056 275.47 172.081 275.664 172.137 275.848C172.194 276.031 172.272 276.191 172.375 276.33C172.478 276.47 172.599 276.589 172.741 276.691C172.883 276.793 173.039 276.871 173.217 276.922C173.394 276.976 173.579 277 173.774 277C174.257 277 174.633 276.83 174.903 276.49H174.914V276.946H175.691V273.55H174.878ZM173.902 276.293C173.6 276.293 173.355 276.198 173.167 276.007C172.975 275.817 172.883 275.569 172.883 275.266C172.883 275.11 172.908 274.964 172.961 274.828C173.014 274.692 173.089 274.58 173.181 274.492C173.273 274.403 173.38 274.332 173.504 274.281C173.628 274.233 173.763 274.206 173.905 274.206C174.193 274.206 174.431 274.308 174.622 274.512C174.814 274.716 174.91 274.967 174.91 275.266C174.91 275.569 174.811 275.817 174.615 276.007C174.42 276.198 174.182 276.293 173.902 276.293Z" fill="#FD3E72"/>
<path d="M177.775 277C177.984 277 178.155 276.983 178.286 276.949C178.417 276.915 178.549 276.867 178.677 276.799L178.464 276.126C178.272 276.225 178.094 276.273 177.938 276.273C177.821 276.273 177.736 276.239 177.679 276.164C177.622 276.092 177.597 275.97 177.597 275.8V274.213H178.641V273.55H177.597V272.337L176.784 272.421V273.55H176.351V274.213H176.784V275.872C176.784 276.245 176.87 276.524 177.044 276.714C177.218 276.905 177.462 277 177.775 277Z" fill="#FD3E72"/>
<path d="M179.802 273.044C179.898 273.044 179.987 273.023 180.072 272.976C180.157 272.928 180.224 272.867 180.274 272.785C180.324 272.707 180.349 272.622 180.349 272.527C180.349 272.387 180.292 272.265 180.185 272.163C180.079 272.061 179.951 272.01 179.802 272.01C179.646 272.01 179.518 272.061 179.411 272.163C179.305 272.265 179.252 272.384 179.252 272.527C179.252 272.67 179.305 272.792 179.411 272.894C179.518 272.996 179.646 273.044 179.802 273.044ZM179.39 276.946H180.203V273.55H179.39V276.946Z" fill="#FD3E72"/>
<path d="M182.972 277C183.327 277 183.647 276.929 183.931 276.782C184.215 276.636 184.435 276.429 184.594 276.164C184.751 275.899 184.832 275.593 184.832 275.253C184.832 274.913 184.751 274.607 184.594 274.339C184.435 274.073 184.215 273.866 183.934 273.72C183.65 273.574 183.331 273.499 182.972 273.499C182.603 273.499 182.276 273.577 181.992 273.73C181.708 273.883 181.488 274.09 181.336 274.356C181.183 274.621 181.108 274.92 181.108 275.253C181.108 275.501 181.151 275.732 181.243 275.946C181.332 276.164 181.456 276.347 181.616 276.504C181.776 276.66 181.975 276.779 182.209 276.867C182.443 276.956 182.695 277 182.972 277ZM182.972 276.293C182.67 276.293 182.422 276.194 182.227 275.994C182.031 275.797 181.935 275.549 181.935 275.253C181.935 274.954 182.031 274.706 182.223 274.505C182.415 274.308 182.663 274.206 182.972 274.206C183.267 274.206 183.512 274.305 183.71 274.498C183.906 274.695 184.005 274.947 184.005 275.253C184.005 275.555 183.906 275.804 183.707 276.001C183.508 276.198 183.263 276.293 182.972 276.293Z" fill="#FD3E72"/>
<path d="M187.697 273.499C187.463 273.499 187.246 273.543 187.04 273.632C186.834 273.72 186.657 273.849 186.508 274.016H186.497V273.55H185.684V276.946H186.497V275.239C186.497 275.076 186.519 274.93 186.561 274.797C186.604 274.668 186.668 274.559 186.749 274.471C186.827 274.386 186.927 274.322 187.04 274.274C187.154 274.23 187.278 274.206 187.417 274.206C187.544 274.206 187.651 274.223 187.743 274.254C187.836 274.288 187.914 274.339 187.985 274.41C188.052 274.481 188.102 274.576 188.137 274.699C188.169 274.821 188.187 274.971 188.187 275.148V276.949H189V274.947C189 274.458 188.883 274.094 188.652 273.856C188.421 273.618 188.102 273.499 187.697 273.499Z" fill="#FD3E72"/>
<path d="M216.207 276C216.455 276 216.672 275.937 216.856 275.81C217.039 275.685 217.18 275.508 217.274 275.282C217.367 275.057 217.417 274.796 217.417 274.5C217.417 274.266 217.385 274.054 217.327 273.864C217.267 273.676 217.184 273.517 217.077 273.392C216.97 273.267 216.842 273.169 216.695 273.102C216.547 273.035 216.384 273 216.207 273C215.959 273 215.744 273.065 215.561 273.19C215.378 273.317 215.237 273.494 215.143 273.72C215.047 273.945 215 274.206 215 274.5C215 274.734 215.029 274.946 215.089 275.136C215.148 275.326 215.23 275.485 215.338 275.61C215.445 275.735 215.572 275.833 215.72 275.9C215.867 275.967 216.028 276 216.207 276ZM216.209 275.541C216.004 275.541 215.841 275.449 215.72 275.264C215.599 275.078 215.539 274.823 215.539 274.5C215.539 274.175 215.597 273.918 215.718 273.734C215.836 273.551 215.999 273.459 216.209 273.459C216.415 273.459 216.576 273.551 216.697 273.734C216.817 273.918 216.878 274.175 216.878 274.5C216.878 274.828 216.817 275.082 216.701 275.266C216.583 275.449 216.42 275.541 216.209 275.541Z" fill="#FD3E72"/>
<path d="M219.104 276C219.353 276 219.569 275.937 219.753 275.81C219.936 275.685 220.077 275.508 220.171 275.282C220.265 275.057 220.314 274.796 220.314 274.5C220.314 274.266 220.283 274.054 220.224 273.864C220.164 273.676 220.081 273.517 219.974 273.392C219.867 273.267 219.739 273.169 219.592 273.102C219.444 273.035 219.281 273 219.104 273C218.856 273 218.642 273.065 218.458 273.19C218.275 273.317 218.134 273.494 218.04 273.72C217.944 273.945 217.897 274.206 217.897 274.5C217.897 274.734 217.926 274.946 217.987 275.136C218.045 275.326 218.128 275.485 218.235 275.61C218.342 275.735 218.47 275.833 218.617 275.9C218.765 275.967 218.926 276 219.104 276ZM219.107 275.541C218.901 275.541 218.738 275.449 218.617 275.264C218.496 275.078 218.436 274.823 218.436 274.5C218.436 274.175 218.494 273.918 218.615 273.734C218.733 273.551 218.897 273.459 219.107 273.459C219.312 273.459 219.473 273.551 219.594 273.734C219.715 273.918 219.775 274.175 219.775 274.5C219.775 274.828 219.715 275.082 219.599 275.266C219.48 275.449 219.317 275.541 219.107 275.541Z" fill="#FD3E72"/>
<path d="M221.108 276C221.201 276 221.282 275.971 221.349 275.908C221.416 275.846 221.452 275.771 221.452 275.683C221.452 275.595 221.416 275.52 221.349 275.458C221.282 275.395 221.201 275.364 221.108 275.364C221.043 275.364 220.985 275.378 220.931 275.408C220.877 275.437 220.835 275.474 220.803 275.524C220.772 275.574 220.759 275.627 220.759 275.683C220.759 275.771 220.792 275.846 220.859 275.908C220.926 275.971 221.009 276 221.108 276Z" fill="#FD3E72"/>
<path d="M223.102 276C223.35 276 223.567 275.937 223.75 275.81C223.933 275.685 224.074 275.508 224.168 275.282C224.262 275.057 224.311 274.796 224.311 274.5C224.311 274.266 224.28 274.054 224.222 273.864C224.161 273.676 224.079 273.517 223.971 273.392C223.864 273.267 223.737 273.169 223.589 273.102C223.441 273.035 223.278 273 223.102 273C222.853 273 222.639 273.065 222.456 273.19C222.272 273.317 222.131 273.494 222.037 273.72C221.941 273.945 221.894 274.206 221.894 274.5C221.894 274.734 221.923 274.946 221.984 275.136C222.042 275.326 222.125 275.485 222.232 275.61C222.339 275.735 222.467 275.833 222.614 275.9C222.762 275.967 222.923 276 223.102 276ZM223.104 275.541C222.898 275.541 222.735 275.449 222.614 275.264C222.494 275.078 222.433 274.823 222.433 274.5C222.433 274.175 222.491 273.918 222.612 273.734C222.731 273.551 222.894 273.459 223.104 273.459C223.31 273.459 223.47 273.551 223.591 273.734C223.712 273.918 223.772 274.175 223.772 274.5C223.772 274.828 223.712 275.082 223.596 275.266C223.477 275.449 223.314 275.541 223.104 275.541Z" fill="#FD3E72"/>
<path d="M225.999 276C226.247 276 226.464 275.937 226.647 275.81C226.831 275.685 226.971 275.508 227.065 275.282C227.159 275.057 227.208 274.796 227.208 274.5C227.208 274.266 227.177 274.054 227.119 273.864C227.059 273.676 226.976 273.517 226.869 273.392C226.761 273.267 226.634 273.169 226.486 273.102C226.339 273.035 226.175 273 225.999 273C225.751 273 225.536 273.065 225.353 273.19C225.169 273.317 225.029 273.494 224.935 273.72C224.839 273.945 224.792 274.206 224.792 274.5C224.792 274.734 224.821 274.946 224.881 275.136C224.939 275.326 225.022 275.485 225.129 275.61C225.237 275.735 225.364 275.833 225.512 275.9C225.659 275.967 225.82 276 225.999 276ZM226.001 275.541C225.795 275.541 225.632 275.449 225.512 275.264C225.391 275.078 225.33 274.823 225.33 274.5C225.33 274.175 225.389 273.918 225.509 273.734C225.628 273.551 225.791 273.459 226.001 273.459C226.207 273.459 226.368 273.551 226.488 273.734C226.609 273.918 226.67 274.175 226.67 274.5C226.67 274.828 226.609 275.082 226.493 275.266C226.374 275.449 226.211 275.541 226.001 275.541Z" fill="#FD3E72"/>
<path d="M228.896 276C229.144 276 229.361 275.937 229.544 275.81C229.728 275.685 229.869 275.508 229.963 275.282C230.056 275.057 230.106 274.796 230.106 274.5C230.106 274.266 230.074 274.054 230.016 273.864C229.956 273.676 229.873 273.517 229.766 273.392C229.658 273.267 229.531 273.169 229.383 273.102C229.236 273.035 229.073 273 228.896 273C228.648 273 228.433 273.065 228.25 273.19C228.067 273.317 227.926 273.494 227.832 273.72C227.736 273.945 227.689 274.206 227.689 274.5C227.689 274.734 227.718 274.946 227.778 275.136C227.837 275.326 227.919 275.485 228.027 275.61C228.134 275.735 228.261 275.833 228.409 275.9C228.556 275.967 228.717 276 228.896 276ZM228.898 275.541C228.693 275.541 228.53 275.449 228.409 275.264C228.288 275.078 228.228 274.823 228.228 274.5C228.228 274.175 228.286 273.918 228.407 273.734C228.525 273.551 228.688 273.459 228.898 273.459C229.104 273.459 229.265 273.551 229.386 273.734C229.506 273.918 229.567 274.175 229.567 274.5C229.567 274.828 229.506 275.082 229.39 275.266C229.272 275.449 229.109 275.541 228.898 275.541Z" fill="#FD3E72"/>
<path d="M230.899 276C230.993 276 231.074 275.971 231.141 275.908C231.208 275.846 231.243 275.771 231.243 275.683C231.243 275.595 231.208 275.52 231.141 275.458C231.074 275.395 230.993 275.364 230.899 275.364C230.834 275.364 230.776 275.378 230.723 275.408C230.669 275.437 230.626 275.474 230.595 275.524C230.564 275.574 230.55 275.627 230.55 275.683C230.55 275.771 230.584 275.846 230.651 275.908C230.718 275.971 230.801 276 230.899 276Z" fill="#FD3E72"/>
<path d="M232.893 276C233.141 276 233.358 275.937 233.542 275.81C233.725 275.685 233.866 275.508 233.96 275.282C234.054 275.057 234.103 274.796 234.103 274.5C234.103 274.266 234.071 274.054 234.013 273.864C233.953 273.676 233.87 273.517 233.763 273.392C233.656 273.267 233.528 273.169 233.381 273.102C233.233 273.035 233.07 273 232.893 273C232.645 273 232.431 273.065 232.247 273.19C232.064 273.317 231.923 273.494 231.829 273.72C231.733 273.945 231.686 274.206 231.686 274.5C231.686 274.734 231.715 274.946 231.776 275.136C231.834 275.326 231.916 275.485 232.024 275.61C232.131 275.735 232.258 275.833 232.406 275.9C232.554 275.967 232.714 276 232.893 276ZM232.896 275.541C232.69 275.541 232.527 275.449 232.406 275.264C232.285 275.078 232.225 274.823 232.225 274.5C232.225 274.175 232.283 273.918 232.404 273.734C232.522 273.551 232.685 273.459 232.896 273.459C233.101 273.459 233.262 273.551 233.383 273.734C233.504 273.918 233.564 274.175 233.564 274.5C233.564 274.828 233.504 275.082 233.387 275.266C233.269 275.449 233.106 275.541 232.896 275.541Z" fill="#FD3E72"/>
<path d="M235.791 276C236.039 276 236.256 275.937 236.439 275.81C236.622 275.685 236.763 275.508 236.857 275.282C236.951 275.057 237 274.796 237 274.5C237 274.266 236.969 274.054 236.911 273.864C236.85 273.676 236.768 273.517 236.66 273.392C236.553 273.267 236.425 273.169 236.278 273.102C236.13 273.035 235.967 273 235.791 273C235.542 273 235.328 273.065 235.144 273.19C234.961 273.317 234.82 273.494 234.726 273.72C234.63 273.945 234.583 274.206 234.583 274.5C234.583 274.734 234.612 274.946 234.673 275.136C234.731 275.326 234.814 275.485 234.921 275.61C235.028 275.735 235.156 275.833 235.303 275.9C235.451 275.967 235.612 276 235.791 276ZM235.793 275.541C235.587 275.541 235.424 275.449 235.303 275.264C235.183 275.078 235.122 274.823 235.122 274.5C235.122 274.175 235.18 273.918 235.301 273.734C235.419 273.551 235.583 273.459 235.793 273.459C235.998 273.459 236.159 273.551 236.28 273.734C236.401 273.918 236.461 274.175 236.461 274.5C236.461 274.828 236.401 275.082 236.285 275.266C236.166 275.449 236.003 275.541 235.793 275.541Z" fill="#FD3E72"/>
<path d="M146.445 256.701C146.445 256.006 147.009 255.443 147.704 255.443H176.017C176.712 255.443 177.275 256.006 177.275 256.701V259.847C177.275 260.542 176.712 261.106 176.017 261.106H147.704C147.009 261.106 146.445 260.542 146.445 259.847V256.701Z" fill="#EEEEEE"/>
<path d="M142.039 251.667C142.039 250.625 142.884 249.78 143.927 249.78H282.977C284.019 249.78 284.864 250.625 284.864 251.667H142.039Z" fill="#FD3E72"/>
<path opacity="0.4" fill-rule="evenodd" clip-rule="evenodd" d="M284.864 265.263H142.039V264.634H284.864V265.263Z" fill="#E3E0D3"/>
<path d="M269.764 271.554C269.764 270.859 270.327 270.296 271.022 270.296H276.685C277.38 270.296 277.943 270.859 277.943 271.554V277.217C277.943 277.912 277.38 278.475 276.685 278.475H271.022C270.327 278.475 269.764 277.912 269.764 277.217V271.554Z" fill="#FD3E72"/>
<path d="M271.748 272.493C271.748 272.354 271.861 272.242 272 272.242H275.901C276.04 272.242 276.152 272.354 276.152 272.493V276.248C276.152 276.387 276.04 276.5 275.901 276.5H272C271.861 276.5 271.748 276.387 271.748 276.248V272.493Z" fill="white"/>
<path d="M146.445 272.184C146.445 270.794 147.572 269.667 148.962 269.667H153.366C154.756 269.667 155.883 270.794 155.883 272.184V276.589C155.883 277.978 154.756 279.105 153.366 279.105H148.962C147.572 279.105 146.445 277.978 146.445 276.589V272.184Z" fill="#E3E3E3"/>
<path fill-rule="evenodd" clip-rule="evenodd" d="M265.362 269.61H212.511C211.642 269.61 210.938 270.315 210.938 271.183V277.645C210.938 278.514 211.642 279.218 212.511 279.218H265.362C266.231 279.218 266.935 278.514 266.935 277.645V271.183C266.935 270.315 266.231 269.61 265.362 269.61ZM212.511 269.296C211.468 269.296 210.623 270.141 210.623 271.183V277.645C210.623 278.687 211.468 279.533 212.511 279.533H265.362C266.405 279.533 267.25 278.687 267.25 277.645V271.183C267.25 270.141 266.405 269.296 265.362 269.296H212.511Z" fill="#E3E3E3"/>
<path opacity="0.4" fill-rule="evenodd" clip-rule="evenodd" d="M277.945 283.509L146.445 283.509L146.445 282.88L277.945 282.88L277.945 283.509Z" fill="#E3E0D3"/>
<path d="M269.764 289.801C269.764 289.106 270.327 288.542 271.022 288.542H276.685C277.38 288.542 277.943 289.106 277.943 289.801V295.464C277.943 296.159 277.38 296.722 276.685 296.722H271.022C270.327 296.722 269.764 296.159 269.764 295.464V289.801Z" fill="#E3E3E3"/>
<path d="M271.652 292.255C271.652 292.116 271.765 292.003 271.904 292.003H275.805C275.944 292.003 276.057 292.116 276.057 292.255V293.01C276.057 293.149 275.944 293.262 275.805 293.262H271.904C271.765 293.262 271.652 293.149 271.652 293.01V292.255Z" fill="white"/>
<path d="M146.445 290.43C146.445 289.04 147.572 287.914 148.962 287.914H153.366C154.756 287.914 155.883 289.04 155.883 290.43V294.835C155.883 296.225 154.756 297.351 153.366 297.351H148.962C147.572 297.351 146.445 296.225 146.445 294.835V290.43Z" fill="#E3E3E3"/>
<path d="M159.66 292.633C159.66 292.112 160.083 291.689 160.604 291.689H181.996C182.518 291.689 182.94 292.112 182.94 292.633C182.94 293.154 182.518 293.577 181.996 293.577H160.604C160.083 293.577 159.66 293.154 159.66 292.633Z" fill="#E3E3E3"/>
<path d="M216.113 292.661C216.113 292.282 216.421 291.975 216.8 291.975H227.095C227.475 291.975 227.782 292.282 227.782 292.661C227.782 293.041 227.475 293.348 227.095 293.348H216.8C216.421 293.348 216.113 293.041 216.113 292.661Z" fill="#E3E3E3"/>
<path fill-rule="evenodd" clip-rule="evenodd" d="M265.362 288.857H212.511C211.642 288.857 210.938 289.561 210.938 290.43V294.892C210.938 295.76 211.642 296.465 212.511 296.465H265.362C266.231 296.465 266.935 295.76 266.935 294.892V290.43C266.935 289.561 266.231 288.857 265.362 288.857ZM212.511 288.542C211.468 288.542 210.623 289.388 210.623 290.43V294.892C210.623 295.934 211.468 296.779 212.511 296.779H265.362C266.405 296.779 267.25 295.934 267.25 294.892V290.43C267.25 289.388 266.405 288.542 265.362 288.542H212.511Z" fill="#E3E3E3"/>
<path opacity="0.4" fill-rule="evenodd" clip-rule="evenodd" d="M277.945 301.756L146.445 301.756L146.445 301.126L277.945 301.126L277.945 301.756Z" fill="#E3E0D3"/>
<path d="M269.764 308.295C269.764 307.6 270.327 307.036 271.022 307.036H276.685C277.38 307.036 277.943 307.6 277.943 308.295V313.957C277.943 314.652 277.38 315.216 276.685 315.216H271.022C270.327 315.216 269.764 314.652 269.764 313.957V308.295Z" fill="#E3E3E3"/>
<path d="M271.652 310.748C271.652 310.609 271.765 310.497 271.904 310.497H275.805C275.944 310.497 276.057 310.609 276.057 310.748V311.503C276.057 311.642 275.944 311.755 275.805 311.755H271.904C271.765 311.755 271.652 311.642 271.652 311.503V310.748Z" fill="white"/>
<path d="M146.445 308.923C146.445 307.534 147.572 306.407 148.962 306.407H153.366C154.756 306.407 155.883 307.534 155.883 308.923V313.328C155.883 314.718 154.756 315.845 153.366 315.845H148.962C147.572 315.845 146.445 314.718 146.445 313.328V308.923Z" fill="#E3E3E3"/>
<path d="M159.66 311.126C159.66 310.605 160.083 310.182 160.604 310.182H181.996C182.518 310.182 182.94 310.605 182.94 311.126C182.94 311.647 182.518 312.07 181.996 312.07H160.604C160.083 312.07 159.66 311.647 159.66 311.126Z" fill="#E3E3E3"/>
<path d="M216.113 311.155C216.113 310.776 216.421 310.468 216.8 310.468H227.095C227.475 310.468 227.782 310.776 227.782 311.155C227.782 311.534 227.475 311.841 227.095 311.841H216.8C216.421 311.841 216.113 311.534 216.113 311.155Z" fill="#E3E3E3"/>
<path fill-rule="evenodd" clip-rule="evenodd" d="M265.362 307.351H212.511C211.642 307.351 210.938 308.055 210.938 308.924V313.385C210.938 314.254 211.642 314.958 212.511 314.958H265.362C266.231 314.958 266.935 314.254 266.935 313.385V308.924C266.935 308.055 266.231 307.351 265.362 307.351ZM212.511 307.036C211.468 307.036 210.623 307.881 210.623 308.924V313.385C210.623 314.428 211.468 315.273 212.511 315.273H265.362C266.405 315.273 267.25 314.428 267.25 313.385V308.924C267.25 307.881 266.405 307.036 265.362 307.036H212.511Z" fill="#E3E3E3"/>
<path opacity="0.4" fill-rule="evenodd" clip-rule="evenodd" d="M277.945 320.249L146.445 320.249L146.445 319.62L277.945 319.62L277.945 320.249Z" fill="#E3E0D3"/>
<path d="M269.764 326.541C269.764 325.846 270.327 325.283 271.022 325.283H276.685C277.38 325.283 277.943 325.846 277.943 326.541V332.204C277.943 332.899 277.38 333.462 276.685 333.462H271.022C270.327 333.462 269.764 332.899 269.764 332.204V326.541Z" fill="#E3E3E3"/>
<path d="M271.652 328.994C271.652 328.855 271.765 328.743 271.904 328.743H275.805C275.944 328.743 276.057 328.855 276.057 328.994V329.749C276.057 329.888 275.944 330.001 275.805 330.001H271.904C271.765 330.001 271.652 329.888 271.652 329.749V328.994Z" fill="white"/>
<path d="M146.445 327.17C146.445 325.78 147.572 324.653 148.962 324.653H153.366C154.756 324.653 155.883 325.78 155.883 327.17V331.574C155.883 332.964 154.756 334.091 153.366 334.091H148.962C147.572 334.091 146.445 332.964 146.445 331.574V327.17Z" fill="#E3E3E3"/>
<path d="M159.66 329.372C159.66 328.851 160.083 328.428 160.604 328.428H181.996C182.518 328.428 182.94 328.851 182.94 329.372C182.94 329.893 182.518 330.316 181.996 330.316H160.604C160.083 330.316 159.66 329.893 159.66 329.372Z" fill="#E3E3E3"/>
<path d="M216.113 329.401C216.113 329.022 216.421 328.714 216.8 328.714H227.095C227.475 328.714 227.782 329.022 227.782 329.401C227.782 329.78 227.475 330.087 227.095 330.087H216.8C216.421 330.087 216.113 329.78 216.113 329.401Z" fill="#E3E3E3"/>
<path fill-rule="evenodd" clip-rule="evenodd" d="M265.362 325.597H212.511C211.642 325.597 210.938 326.302 210.938 327.17V331.632C210.938 332.501 211.642 333.205 212.511 333.205H265.362C266.231 333.205 266.935 332.501 266.935 331.632V327.17C266.935 326.302 266.231 325.597 265.362 325.597ZM212.511 325.283C211.468 325.283 210.623 326.128 210.623 327.17V331.632C210.623 332.674 211.468 333.519 212.511 333.519H265.362C266.405 333.519 267.25 332.674 267.25 331.632V327.17C267.25 326.128 266.405 325.283 265.362 325.283H212.511Z" fill="#E3E3E3"/>
<path opacity="0.4" fill-rule="evenodd" clip-rule="evenodd" d="M277.945 338.495L146.445 338.495L146.445 337.866L277.945 337.866L277.945 338.495Z" fill="#E3E0D3"/>
<path d="M269.764 344.787C269.764 344.092 270.327 343.529 271.022 343.529H276.685C277.38 343.529 277.943 344.092 277.943 344.787V350.45C277.943 351.145 277.38 351.708 276.685 351.708H271.022C270.327 351.708 269.764 351.145 269.764 350.45V344.787Z" fill="#E3E3E3"/>
<path d="M271.652 347.241C271.652 347.102 271.765 346.989 271.904 346.989H275.805C275.944 346.989 276.057 347.102 276.057 347.241V347.996C276.057 348.135 275.944 348.248 275.805 348.248H271.904C271.765 348.248 271.652 348.135 271.652 347.996V347.241Z" fill="white"/>
<path d="M146.445 345.416C146.445 344.026 147.572 342.899 148.962 342.899H153.366C154.756 342.899 155.883 344.026 155.883 345.416V349.82C155.883 351.21 154.756 352.337 153.366 352.337H148.962C147.572 352.337 146.445 351.21 146.445 349.82V345.416Z" fill="#E3E3E3"/>
<path d="M159.66 347.619C159.66 347.097 160.083 346.675 160.604 346.675H181.996C182.518 346.675 182.94 347.097 182.94 347.619C182.94 348.14 182.518 348.562 181.996 348.562H160.604C160.083 348.562 159.66 348.14 159.66 347.619Z" fill="#E3E3E3"/>
<path d="M216.113 347.647C216.113 347.268 216.421 346.961 216.8 346.961H227.095C227.475 346.961 227.782 347.268 227.782 347.647C227.782 348.026 227.475 348.334 227.095 348.334H216.8C216.421 348.334 216.113 348.026 216.113 347.647Z" fill="#E3E3E3"/>
<path fill-rule="evenodd" clip-rule="evenodd" d="M265.362 343.843H212.511C211.642 343.843 210.938 344.548 210.938 345.416V349.878C210.938 350.747 211.642 351.451 212.511 351.451H265.362C266.231 351.451 266.935 350.747 266.935 349.878V345.416C266.935 344.548 266.231 343.843 265.362 343.843ZM212.511 343.529C211.468 343.529 210.623 344.374 210.623 345.416V349.878C210.623 350.92 211.468 351.765 212.511 351.765H265.362C266.405 351.765 267.25 350.92 267.25 349.878V345.416C267.25 344.374 266.405 343.529 265.362 343.529H212.511Z" fill="#E3E3E3"/>
<path opacity="0.4" fill-rule="evenodd" clip-rule="evenodd" d="M277.945 356.742L146.445 356.741L146.445 356.112L277.945 356.112L277.945 356.742Z" fill="#E3E0D3"/>
<path d="M142.039 150.997C142.039 149.26 143.448 147.852 145.185 147.852H394.972C396.71 147.852 398.118 149.26 398.118 150.997V172.39C398.118 174.127 396.71 175.536 394.972 175.536H145.185C143.448 175.536 142.039 174.127 142.039 172.39V150.997Z" fill="url(#paint0_linear)"/>
<path opacity="0.4" d="M146.445 160.436C146.445 158.699 147.854 157.29 149.591 157.29H379.244C380.982 157.29 382.39 158.699 382.39 160.436V162.953C382.39 164.69 380.982 166.099 379.244 166.099H149.591C147.854 166.099 146.445 164.69 146.445 162.953V160.436Z" fill="white"/>
<path d="M42 117.65H129.457V358H48.2919C44.817 358 42 355.183 42 351.708V117.65Z" fill="#FD3E72"/>
<g filter="url(#filter3_d)">
<path d="M45.7754 171.131C45.7754 169.394 47.1839 167.985 48.9213 167.985H122.536C124.274 167.985 125.682 169.394 125.682 171.131V185.603C125.682 187.34 124.274 188.749 122.536 188.749H48.9213C47.1839 188.749 45.7754 187.34 45.7754 185.603V171.131Z" fill="#FAFAFA"/>
</g>
<path d="M67.089 180.569C67.2501 180.569 67.4112 180.552 67.5722 180.515C67.7299 180.481 67.8841 180.424 68.0349 180.342C68.1858 180.264 68.316 180.17 68.4291 180.055C68.5422 179.943 68.6347 179.804 68.7033 179.638C68.7718 179.476 68.8061 179.293 68.8061 179.097C68.8061 178.907 68.7753 178.738 68.7204 178.589C68.621 178.332 68.4154 178.115 68.1001 177.942C67.9561 177.865 67.6751 177.746 67.2638 177.584C66.9142 177.452 66.6845 177.35 66.5783 177.282C66.4103 177.174 66.3281 177.039 66.3315 176.869C66.3315 176.693 66.4001 176.551 66.5303 176.45C66.6605 176.348 66.8285 176.294 67.0273 176.294C67.3837 176.294 67.7642 176.463 68.1755 176.798L68.6793 176.142C68.1549 175.735 67.6031 175.536 67.0273 175.536C66.7428 175.536 66.4789 175.597 66.239 175.718C65.9991 175.84 65.8071 176.006 65.6666 176.216C65.5226 176.429 65.4541 176.663 65.4541 176.913C65.4541 177.039 65.4678 177.157 65.4987 177.265C65.5295 177.374 65.5706 177.472 65.6186 177.556C65.6666 177.641 65.7283 177.722 65.8105 177.797C65.8894 177.871 65.9682 177.939 66.047 177.993C66.1259 178.047 66.2218 178.101 66.3315 178.156C66.4412 178.21 66.544 178.257 66.6366 178.291C66.7257 178.328 66.8353 178.369 66.9587 178.41C67.0616 178.447 67.1472 178.477 67.2124 178.501C67.2741 178.528 67.346 178.555 67.4214 178.589C67.4968 178.623 67.5585 178.65 67.6031 178.677C67.6476 178.704 67.6922 178.738 67.7402 178.775C67.7847 178.816 67.819 178.853 67.843 178.894C67.8636 178.934 67.8841 178.978 67.8979 179.029C67.9116 179.08 67.9218 179.134 67.9218 179.195C67.9218 179.384 67.8499 179.53 67.7093 179.638C67.5654 179.747 67.3597 179.797 67.0924 179.797C66.8696 179.797 66.6434 179.743 66.4172 179.631C66.191 179.52 65.9888 179.357 65.814 179.147L65.2793 179.797C65.5329 180.055 65.8174 180.248 66.1293 180.376C66.4378 180.505 66.7599 180.569 67.089 180.569Z" fill="#FD3E72"/>
<path d="M73.7793 177.083C73.5257 177.083 73.2926 177.133 73.0835 177.228C72.871 177.323 72.6962 177.462 72.5523 177.644H72.5386C72.3329 177.272 71.9936 177.083 71.5172 177.083C71.315 177.083 71.1196 177.13 70.9346 177.218C70.7495 177.306 70.585 177.435 70.4479 177.6H70.4376V177.133H69.6527V180.515H70.4376V178.829C70.4376 178.508 70.513 178.254 70.6672 178.068C70.8214 177.881 71.0202 177.787 71.2602 177.787C71.7126 177.787 71.9422 178.112 71.9422 178.755V180.518H72.7271V178.829C72.7271 178.508 72.8025 178.254 72.9533 178.068C73.1041 177.881 73.296 177.787 73.5257 177.787C73.9712 177.787 74.1975 178.112 74.1975 178.755V180.518H74.9823V178.558C74.9823 178.064 74.8761 177.695 74.6704 177.452C74.4614 177.208 74.1632 177.083 73.7793 177.083Z" fill="#FD3E72"/>
<path d="M78.468 177.133V177.54H78.4543C78.1938 177.235 77.8408 177.083 77.3952 177.083C77.1622 177.083 76.9428 177.127 76.7406 177.215C76.535 177.303 76.3602 177.424 76.2162 177.577C76.0688 177.733 75.9523 177.919 75.87 178.135C75.7844 178.355 75.7432 178.589 75.7432 178.839C75.7432 179.046 75.7672 179.239 75.8221 179.422C75.8769 179.604 75.9523 179.764 76.0517 179.902C76.1511 180.041 76.2676 180.16 76.4047 180.261C76.5418 180.363 76.6926 180.441 76.864 180.491C77.0354 180.545 77.2136 180.569 77.4021 180.569C77.8682 180.569 78.2315 180.4 78.492 180.061H78.5023V180.515H79.2529V177.133H78.468ZM77.5255 179.865C77.2342 179.865 76.9977 179.77 76.816 179.581C76.6309 179.391 76.5418 179.144 76.5418 178.843C76.5418 178.687 76.5658 178.542 76.6172 178.406C76.6686 178.271 76.7406 178.159 76.8297 178.071C76.9188 177.983 77.0217 177.912 77.1416 177.861C77.2616 177.814 77.3918 177.787 77.5289 177.787C77.8065 177.787 78.0362 177.888 78.2213 178.091C78.4063 178.294 78.4989 178.545 78.4989 178.843C78.4989 179.144 78.4029 179.391 78.2144 179.581C78.0259 179.77 77.7963 179.865 77.5255 179.865Z" fill="#FD3E72"/>
<path d="M82.1045 177.083C81.8955 177.083 81.7001 177.133 81.515 177.228C81.3299 177.323 81.1723 177.462 81.0386 177.641H81.0283V177.133H80.2434V180.515H81.0283V178.91C81.0283 178.728 81.0626 178.562 81.1346 178.416C81.2065 178.271 81.3128 178.156 81.4567 178.068C81.6007 177.983 81.7686 177.939 81.964 177.939C82.0326 177.939 82.1114 177.942 82.2005 177.949V177.086C82.1799 177.086 82.1491 177.083 82.1045 177.083Z" fill="#FD3E72"/>
<path d="M83.8765 180.569C84.0787 180.569 84.2432 180.552 84.3701 180.518C84.4969 180.485 84.6237 180.437 84.7471 180.369L84.5414 179.699C84.3564 179.797 84.185 179.845 84.0342 179.845C83.9211 179.845 83.8388 179.811 83.784 179.736C83.7291 179.665 83.7051 179.543 83.7051 179.374V177.793H84.7128V177.133H83.7051V175.925L82.9203 176.01V177.133H82.5021V177.793H82.9203V179.445C82.9203 179.818 83.0025 180.095 83.1705 180.285C83.3384 180.474 83.5749 180.569 83.8765 180.569Z" fill="#FD3E72"/>
<path d="M85.5182 180.515H87.1257C87.5164 180.515 87.8763 180.457 88.1985 180.336C88.5207 180.217 88.7914 180.051 89.0108 179.835C89.2267 179.618 89.3947 179.361 89.5146 179.056C89.6312 178.755 89.6929 178.423 89.6929 178.061C89.6929 177.702 89.6312 177.367 89.5078 177.062C89.3844 176.758 89.213 176.497 88.9937 176.28C88.7709 176.064 88.4967 175.894 88.1745 175.773C87.8489 175.651 87.4924 175.59 87.1051 175.59H85.5182V180.515ZM86.3648 179.764V176.341H87.1223C87.4479 176.341 87.7392 176.416 87.9997 176.561C88.2602 176.71 88.459 176.913 88.6029 177.174C88.7469 177.438 88.8189 177.733 88.8189 178.061C88.8189 178.305 88.7743 178.528 88.692 178.738C88.6098 178.948 88.4933 179.131 88.3424 179.279C88.1916 179.432 88.01 179.55 87.7906 179.635C87.5713 179.723 87.3314 179.764 87.0743 179.764H86.3648Z" fill="#FD3E72"/>
<path d="M93.9771 175.59V179.124H93.96L91.5265 175.59H90.6868V180.515H91.5334V177.032H91.5471L93.96 180.515H94.8237V175.59H93.9771Z" fill="#FD3E72"/>
<path d="M97.5382 180.569C97.6993 180.569 97.8604 180.552 98.0215 180.515C98.1792 180.481 98.3334 180.424 98.4842 180.342C98.635 180.264 98.7653 180.17 98.8784 180.055C98.9915 179.943 99.084 179.804 99.1526 179.638C99.2211 179.476 99.2554 179.293 99.2554 179.097C99.2554 178.907 99.2245 178.738 99.1697 178.589C99.0703 178.332 98.8646 178.115 98.5493 177.942C98.4054 177.865 98.1243 177.746 97.713 177.584C97.3634 177.452 97.1338 177.35 97.0275 177.282C96.8596 177.174 96.7773 177.039 96.7808 176.869C96.7808 176.693 96.8493 176.551 96.9796 176.45C97.1098 176.348 97.2777 176.294 97.4765 176.294C97.833 176.294 98.2134 176.463 98.6247 176.798L99.1286 176.142C98.6042 175.735 98.0523 175.536 97.4765 175.536C97.1921 175.536 96.9282 175.597 96.6882 175.718C96.4483 175.84 96.2564 176.006 96.1159 176.216C95.9719 176.429 95.9034 176.663 95.9034 176.913C95.9034 177.039 95.9171 177.157 95.9479 177.265C95.9788 177.374 96.0199 177.472 96.0679 177.556C96.1159 177.641 96.1775 177.722 96.2598 177.797C96.3386 177.871 96.4175 177.939 96.4963 177.993C96.5751 178.047 96.6711 178.101 96.7808 178.156C96.8904 178.21 96.9933 178.257 97.0858 178.291C97.1749 178.328 97.2846 178.369 97.408 178.41C97.5108 178.447 97.5965 178.477 97.6616 178.501C97.7233 178.528 97.7953 178.555 97.8707 178.589C97.9461 178.623 98.0078 178.65 98.0523 178.677C98.0969 178.704 98.1415 178.738 98.1894 178.775C98.234 178.816 98.2683 178.853 98.2923 178.894C98.3128 178.934 98.3334 178.978 98.3471 179.029C98.3608 179.08 98.3711 179.134 98.3711 179.195C98.3711 179.384 98.2991 179.53 98.1586 179.638C98.0146 179.747 97.809 179.797 97.5417 179.797C97.3189 179.797 97.0927 179.743 96.8665 179.631C96.6402 179.52 96.438 179.357 96.2632 179.147L95.7286 179.797C95.9822 180.055 96.2667 180.248 96.5786 180.376C96.887 180.505 97.2092 180.569 97.5382 180.569Z" fill="#FD3E72"/>
<path d="M56.4727 182.457C58.9051 182.457 60.877 180.485 60.877 178.052C60.877 175.62 58.9051 173.648 56.4727 173.648C54.0402 173.648 52.0684 175.62 52.0684 178.052C52.0684 180.485 54.0402 182.457 56.4727 182.457Z" fill="#FD3E72"/>
<path fill-rule="evenodd" clip-rule="evenodd" d="M51.8887 176.585C51.8887 176.324 52.0999 176.113 52.3606 176.113H60.5819C60.8425 176.113 61.0538 176.324 61.0538 176.585C61.0538 176.845 60.8425 177.057 60.5819 177.057H52.3606C52.0999 177.057 51.8887 176.845 51.8887 176.585Z" fill="white"/>
<path fill-rule="evenodd" clip-rule="evenodd" d="M51.8887 179.521C51.8887 179.26 52.0999 179.049 52.3606 179.049H60.5819C60.8425 179.049 61.0538 179.26 61.0538 179.521C61.0538 179.781 60.8425 179.993 60.5819 179.993H52.3606C52.0999 179.993 51.8887 179.781 51.8887 179.521Z" fill="white"/>
<path fill-rule="evenodd" clip-rule="evenodd" d="M56.4754 173.248C56.6965 173.386 56.7639 173.677 56.6259 173.898C55.8482 175.144 55.436 176.584 55.436 178.053C55.436 179.521 55.8482 180.961 56.6259 182.207C56.7639 182.428 56.6965 182.719 56.4754 182.857C56.2543 182.995 55.9632 182.928 55.8252 182.707C54.9541 181.311 54.4922 179.698 54.4922 178.053C54.4922 176.407 54.9541 174.794 55.8252 173.398C55.9632 173.177 56.2543 173.11 56.4754 173.248Z" fill="white"/>
<path fill-rule="evenodd" clip-rule="evenodd" d="M56.4663 173.248C56.6874 173.11 56.9785 173.177 57.1164 173.398C57.9876 174.794 58.4495 176.407 58.4495 178.053C58.4495 179.698 57.9876 181.311 57.1164 182.707C56.9785 182.928 56.6874 182.995 56.4663 182.857C56.2452 182.719 56.1778 182.428 56.3158 182.207C57.0934 180.961 57.5057 179.521 57.5057 178.053C57.5057 176.584 57.0934 175.144 56.3158 173.898C56.1778 173.677 56.2452 173.386 56.4663 173.248Z" fill="white"/>
<path d="M66.8312 133.901H61.8505C61.6241 133.901 61.4526 134.1 61.4938 134.319C61.5006 134.367 61.5075 134.415 61.5144 134.463C61.5487 134.655 61.6035 134.84 61.679 135.025C61.7956 135.306 61.9809 135.553 62.2347 135.772C62.4817 135.991 62.8316 136.094 63.2775 136.094C63.7234 136.094 64.0664 135.984 64.3203 135.772C64.5192 135.601 64.6701 135.409 64.7868 135.203C64.8485 135.094 64.972 135.025 65.0955 135.025H66.4882C66.742 135.025 66.9135 135.279 66.8312 135.512C66.7694 135.69 66.694 135.861 66.6048 136.012C66.447 136.293 66.2755 136.539 66.0834 136.745C65.8913 136.95 65.6924 137.122 65.4728 137.259C65.2533 137.396 65.0475 137.505 64.8417 137.594C64.3408 137.786 63.8195 137.889 63.2638 137.889C62.5366 137.875 61.8917 137.725 61.3291 137.437C61.089 137.307 60.8558 137.142 60.6225 136.944C60.3892 136.745 60.1834 136.491 60.0051 136.19C59.8267 135.888 59.6826 135.525 59.5729 135.1C59.4631 134.676 59.4082 134.189 59.4082 133.62C59.4082 133.059 59.4631 132.565 59.5729 132.14C59.6826 131.716 59.8267 131.352 60.0051 131.044C60.1834 130.736 60.3892 130.482 60.6225 130.277C60.8558 130.071 61.089 129.907 61.3291 129.777C61.8848 129.475 62.5228 129.317 63.2432 129.29C63.2569 129.29 63.2706 129.29 63.2843 129.29C63.8743 129.317 64.4232 129.441 64.9377 129.66C65.1572 129.756 65.3768 129.886 65.5963 130.044C65.8158 130.201 66.0217 130.393 66.2137 130.626C66.4058 130.859 66.5705 131.133 66.7146 131.455C66.8586 131.777 66.9684 132.147 67.0301 132.565C67.0507 132.73 67.0713 132.894 67.085 133.065C67.0987 133.237 67.1125 133.422 67.1125 133.62C67.1193 133.607 67.1605 133.901 66.8312 133.901ZM64.4575 132.552C64.7182 132.552 64.9034 132.277 64.7868 132.044C64.7868 132.044 64.7868 132.038 64.7799 132.038C64.6976 131.866 64.5878 131.709 64.4438 131.565C64.2997 131.428 64.135 131.311 63.9429 131.229C63.7509 131.147 63.5176 131.106 63.2638 131.106C63.0031 131.106 62.7767 131.147 62.5846 131.229C62.3925 131.311 62.221 131.421 62.0838 131.565C61.9397 131.709 61.8299 131.859 61.7407 132.038V132.044C61.6241 132.284 61.8094 132.558 62.07 132.558H64.4575V132.552Z" fill="white"/>
<path d="M58.4192 125.83C57.3215 125.83 56.4365 126.713 56.4365 127.81V133.545C56.4365 133.785 56.4228 134.024 56.3953 134.278C56.3679 134.525 56.2993 134.751 56.1895 134.956C56.0798 135.162 55.9151 135.333 55.6956 135.47C55.476 135.607 55.1605 135.676 54.7626 135.676C54.3646 135.676 54.0491 135.607 53.8295 135.47C53.61 135.333 53.4453 135.162 53.3356 134.956C53.2258 134.751 53.1572 134.525 53.1298 134.278C53.1023 134.031 53.0886 133.785 53.0886 133.545V127.632C51.9909 127.632 51.1059 128.516 51.1059 129.612V133.538C51.1059 133.778 51.0922 134.018 51.0648 134.271C51.0373 134.518 50.9687 134.744 50.859 134.949C50.7492 135.155 50.5846 135.326 50.365 135.463C50.1455 135.6 49.8299 135.669 49.432 135.669C49.0341 135.669 48.7185 135.6 48.499 135.463C48.2794 135.326 48.1148 135.155 48.005 134.949C47.8953 134.744 47.8267 134.518 47.7992 134.271C47.7718 134.024 47.7581 133.778 47.7581 133.538V129.434C46.6604 129.434 45.7754 130.324 45.7754 131.414V133.538C45.7754 134.1 45.8303 134.593 45.94 135.018C46.0498 135.443 46.187 135.806 46.3517 136.114C46.5232 136.423 46.7153 136.676 46.9348 136.882C47.1543 137.087 47.3807 137.252 47.6071 137.382C48.1354 137.683 48.746 137.848 49.4251 137.868C50.118 137.848 50.7286 137.683 51.2637 137.382C51.4901 137.252 51.7165 137.087 51.9292 136.882C51.9841 136.827 52.039 136.772 52.0938 136.71C52.1487 136.772 52.2036 136.827 52.2585 136.882C52.478 137.087 52.7044 137.252 52.9308 137.382C53.4591 137.683 54.0696 137.848 54.7488 137.868C55.4417 137.848 56.0523 137.683 56.5874 137.382C56.8138 137.252 57.0402 137.087 57.2529 136.882C57.4724 136.676 57.6645 136.423 57.836 136.114C58.0075 135.806 58.1447 135.443 58.2476 135.018C58.3506 134.593 58.3986 134.107 58.3986 133.538L58.4192 125.83Z" fill="white"/>
<path d="M73.1273 137.368C73.0724 137.525 72.9284 137.635 72.7569 137.635H71.7141H70.6713C70.5066 137.635 70.3557 137.525 70.3008 137.368L67.8791 129.947C67.7968 129.694 67.982 129.44 68.2496 129.44H69.4227C69.5874 129.44 69.7383 129.55 69.7932 129.707L71.3436 134.442C71.4602 134.798 71.9611 134.798 72.0777 134.442L72.9695 131.715L74.4651 127.138C74.7944 126.144 75.8646 125.596 76.8594 125.925L73.1273 137.368Z" fill="white"/>
<path d="M82.694 130.989C82.5156 130.681 82.3098 130.427 82.0766 130.222C81.8433 130.016 81.6101 129.852 81.3699 129.721C80.8074 129.42 80.1694 129.255 79.4627 129.235C78.7836 129.235 78.2073 129.338 77.7339 129.536C77.2605 129.735 76.8695 130.023 76.5608 130.393C76.2521 130.763 76.0325 131.215 75.8885 131.749C75.7512 132.284 75.6758 132.887 75.6758 133.565V139.869C75.6758 140.136 75.8885 140.349 76.156 140.349H77.1165C77.384 140.349 77.5967 140.136 77.5967 139.869V136.697C77.6996 136.84 77.8162 136.964 77.9397 137.073C78.221 137.313 78.4954 137.484 78.763 137.587C79.0648 137.704 79.3736 137.772 79.696 137.793C79.7234 137.793 79.744 137.793 79.7715 137.793C80.4232 137.779 81.0063 137.628 81.514 137.341C81.7404 137.21 81.9599 137.046 82.1726 136.847C82.3853 136.649 82.5705 136.395 82.742 136.094C82.9067 135.792 83.0439 135.429 83.1468 135.011C83.2497 134.593 83.2977 134.1 83.2977 133.538C83.2977 132.976 83.2428 132.489 83.1262 132.065C83.0164 131.654 82.8724 131.29 82.694 130.989ZM81.2464 134.326C81.2053 134.607 81.1161 134.867 80.9858 135.107C80.8554 135.347 80.6702 135.552 80.4301 135.71C80.1899 135.874 79.8675 135.95 79.4696 135.95C79.0717 135.95 78.7493 135.867 78.5091 135.71C78.269 135.545 78.0769 135.347 77.9397 135.107C77.8025 134.867 77.7133 134.607 77.6722 134.326C77.631 134.045 77.6104 133.784 77.6104 133.552C77.6104 133.264 77.631 132.976 77.6653 132.688C77.7065 132.4 77.7819 132.147 77.9054 131.914C78.0289 131.681 78.2141 131.496 78.4611 131.359C78.7081 131.222 79.0443 131.147 79.4627 131.147C79.8606 131.147 80.1831 131.229 80.4232 131.386C80.6633 131.551 80.8554 131.749 80.9789 131.989C81.1092 132.229 81.1916 132.496 81.2396 132.77C81.2808 133.051 81.3013 133.312 81.3013 133.545C81.3082 133.784 81.2876 134.045 81.2464 134.326Z" fill="white"/>
<path d="M90.8298 131.729C90.6652 131.236 90.4525 130.832 90.1918 130.51C89.9311 130.188 89.6498 129.941 89.348 129.77C89.0461 129.598 88.758 129.468 88.4904 129.393C88.2228 129.311 87.9827 129.27 87.7838 129.256C87.5848 129.242 87.4682 129.242 87.4339 129.242C87.3927 129.242 87.2693 129.249 87.0772 129.256C86.8851 129.27 86.6518 129.311 86.3843 129.393C86.1167 129.475 85.8286 129.598 85.5267 129.77C85.2248 129.941 84.9436 130.188 84.6829 130.51C84.4222 130.832 84.2095 131.243 84.0449 131.729C83.8802 132.223 83.791 132.826 83.791 133.545V137.204C83.791 137.444 83.9831 137.636 84.2232 137.636H85.3278C85.5679 137.636 85.76 137.444 85.76 137.204V133.552C85.76 133.312 85.7805 133.072 85.8217 132.826C85.8629 132.579 85.9452 132.353 86.0618 132.147C86.1784 131.942 86.35 131.771 86.5626 131.64C86.7753 131.503 87.0634 131.442 87.4202 131.442C87.7769 131.442 88.0651 131.51 88.2777 131.64C88.4904 131.777 88.6619 131.942 88.7785 132.147C88.8952 132.353 88.9775 132.579 89.0187 132.826C89.0598 133.072 89.0804 133.319 89.0804 133.552V137.204C89.0804 137.444 89.2725 137.636 89.5126 137.636H90.6446C90.8847 137.636 91.0768 137.444 91.0768 137.204V133.552C91.0768 132.826 90.9945 132.223 90.8298 131.729Z" fill="white"/>
<path d="M369.178 125.829C369.178 124.787 370.023 123.942 371.065 123.942H396.233C397.275 123.942 398.12 124.787 398.12 125.829V132.121C398.12 133.164 397.275 134.009 396.233 134.009H371.065C370.023 134.009 369.178 133.164 369.178 132.121V125.829Z" fill="#DDDDDD"/>
<path d="M376.098 128.975C376.098 128.28 376.661 127.717 377.356 127.717H389.94C390.635 127.717 391.198 128.28 391.198 128.975C391.198 129.67 390.635 130.234 389.94 130.234H377.356C376.661 130.234 376.098 129.67 376.098 128.975Z" fill="white"/>
<path d="M345.898 126.773C345.898 125.21 347.166 123.942 348.73 123.942H361.314C362.877 123.942 364.145 125.21 364.145 126.773V131.178C364.145 132.741 362.877 134.009 361.314 134.009H348.73C347.166 134.009 345.898 132.741 345.898 131.178V126.773Z" fill="white"/>
<path d="M348.414 128.975C348.414 128.28 348.977 127.717 349.672 127.717H360.34C361.035 127.717 361.598 128.28 361.598 128.975C361.598 129.67 361.035 130.234 360.34 130.234H349.672C348.977 130.234 348.414 129.67 348.414 128.975Z" fill="#DDDDDD"/>
<path d="M57.7288 106.325C57.7288 107.715 56.602 108.842 55.2121 108.842C53.8221 108.842 52.6953 107.715 52.6953 106.325C52.6953 104.935 53.8221 103.808 55.2121 103.808C56.602 103.808 57.7288 104.935 57.7288 106.325Z" fill="#FD3E72"/>
<path d="M64.6487 106.325C64.6487 107.715 63.5219 108.842 62.132 108.842C60.742 108.842 59.6152 107.715 59.6152 106.325C59.6152 104.935 60.742 103.808 62.132 103.808C63.5219 103.808 64.6487 104.935 64.6487 106.325Z" fill="#F6BC4F"/>
<path d="M71.5726 106.325C71.5726 107.715 70.4458 108.842 69.0558 108.842C67.6658 108.842 66.5391 107.715 66.5391 106.325C66.5391 104.935 67.6658 103.808 69.0558 103.808C70.4458 103.808 71.5726 104.935 71.5726 106.325Z" fill="#00B67A"/>
<path d="M42 117.65H408.187V118.28H42V117.65Z" fill="#F3F3F3"/>
<path d="M50.8086 155.716C50.8086 153.11 52.9213 150.998 55.5275 150.998H115.929C118.536 150.998 120.648 153.11 120.648 155.716C120.648 158.323 118.536 160.435 115.929 160.435H55.5275C52.9213 160.435 50.8086 158.323 50.8086 155.716Z" fill="#EE3C6C"/>
<path d="M50.8086 207.31C50.8086 204.704 52.9213 202.591 55.5275 202.591H115.929C118.536 202.591 120.648 204.704 120.648 207.31C120.648 209.916 118.536 212.029 115.929 212.029H55.5275C52.9213 212.029 50.8086 209.916 50.8086 207.31Z" fill="#EE3C6C"/>
<path d="M50.8086 229.331C50.8086 226.725 52.9213 224.612 55.5275 224.612H115.929C118.536 224.612 120.648 226.725 120.648 229.331C120.648 231.937 118.536 234.05 115.929 234.05H55.5275C52.9213 234.05 50.8086 231.937 50.8086 229.331Z" fill="#EE3C6C"/>
<path d="M50.8086 251.353C50.8086 248.747 52.9213 246.634 55.5275 246.634H115.929C118.536 246.634 120.648 248.747 120.648 251.353C120.648 253.959 118.536 256.072 115.929 256.072H55.5275C52.9213 256.072 50.8086 253.959 50.8086 251.353Z" fill="#EE3C6C"/>
<path d="M50.8086 273.375C50.8086 270.768 52.9213 268.656 55.5275 268.656H115.929C118.536 268.656 120.648 270.768 120.648 273.375C120.648 275.981 118.536 278.094 115.929 278.094H55.5275C52.9213 278.094 50.8086 275.981 50.8086 273.375Z" fill="#EE3C6C"/>
<path d="M297 190.525C297 188.026 298.413 186 300.156 186H394.844C396.587 186 398 188.026 398 190.525V343.475C398 345.974 396.587 348 394.844 348H300.156C298.413 348 297 345.974 297 343.475V190.525Z" fill="white"/>
<path d="M297.449 213.917H398.119V214.546H297.449V213.917Z" fill="#F3F3F3"/>
<path d="M297.449 243H398.119V243.629H297.449V243Z" fill="#F3F3F3"/>
<path fill-rule="evenodd" clip-rule="evenodd" d="M387.129 286.084C386.945 286.269 386.646 286.269 386.462 286.084L384.908 284.531L383.354 286.084C383.17 286.269 382.871 286.269 382.687 286.084C382.503 285.9 382.503 285.601 382.687 285.417L384.574 283.53C384.759 283.345 385.058 283.345 385.242 283.53L387.129 285.417C387.314 285.601 387.314 285.9 387.129 286.084Z" fill="#2C3E50"/>
<path d="M325.174 282.174V285.599H325.157L322.81 282.174H322V286.948H322.817V283.572H322.83L325.157 286.948H325.99V282.174H325.174Z" fill="#5B5863"/>
<path d="M327.415 283.181C327.504 283.181 327.587 283.161 327.666 283.115C327.746 283.07 327.808 283.01 327.855 282.932C327.901 282.856 327.924 282.774 327.924 282.682C327.924 282.548 327.871 282.43 327.772 282.331C327.673 282.233 327.554 282.184 327.415 282.184C327.27 282.184 327.151 282.233 327.051 282.331C326.952 282.43 326.903 282.545 326.903 282.682C326.903 282.82 326.952 282.938 327.051 283.037C327.151 283.135 327.27 283.181 327.415 283.181ZM327.032 286.948H327.789V283.67H327.032V286.948Z" fill="#5B5863"/>
<path d="M330.701 283.621C330.483 283.621 330.281 283.663 330.09 283.749C329.898 283.834 329.732 283.959 329.594 284.119H329.584V283.67H328.827V286.948H329.584V285.301C329.584 285.143 329.604 285.002 329.643 284.874C329.683 284.749 329.742 284.644 329.818 284.559C329.891 284.477 329.984 284.415 330.09 284.369C330.195 284.326 330.311 284.303 330.44 284.303C330.559 284.303 330.658 284.32 330.744 284.349C330.83 284.382 330.903 284.431 330.969 284.5C331.032 284.569 331.078 284.661 331.111 284.779C331.141 284.897 331.157 285.041 331.157 285.212V286.951H331.914V285.018C331.914 284.546 331.805 284.195 331.59 283.965C331.376 283.736 331.078 283.621 330.701 283.621Z" fill="#5B5863"/>
<path d="M333.832 287C334.027 287 334.186 286.984 334.308 286.951C334.43 286.918 334.552 286.872 334.671 286.806L334.473 286.157C334.295 286.252 334.129 286.298 333.984 286.298C333.875 286.298 333.795 286.265 333.743 286.193C333.69 286.124 333.666 286.006 333.666 285.842V284.31H334.638V283.67H333.666V282.499L332.909 282.581V283.67H332.506V284.31H332.909V285.911C332.909 286.272 332.989 286.541 333.151 286.724C333.313 286.908 333.541 287 333.832 287Z" fill="#5B5863"/>
<path d="M338.179 285.271C338.179 284.956 338.113 284.671 337.984 284.421C337.852 284.172 337.667 283.978 337.422 283.834C337.177 283.693 336.893 283.621 336.576 283.621C336.348 283.621 336.136 283.663 335.938 283.745C335.739 283.827 335.567 283.942 335.425 284.087C335.28 284.234 335.167 284.411 335.088 284.621C335.005 284.831 334.966 285.061 334.966 285.307C334.966 285.642 335.038 285.94 335.187 286.199C335.333 286.459 335.534 286.656 335.792 286.793C336.047 286.931 336.334 287 336.655 287C336.962 287 337.234 286.944 337.468 286.833C337.703 286.721 337.895 286.57 338.047 286.38L337.518 285.93C337.31 286.19 337.035 286.318 336.695 286.318C336.45 286.318 336.245 286.252 336.076 286.117C335.908 285.986 335.799 285.802 335.753 285.57H338.159C338.172 285.491 338.179 285.392 338.179 285.271ZM336.615 284.303C336.754 284.303 336.88 284.333 336.992 284.388C337.105 284.444 337.194 284.52 337.263 284.618C337.333 284.717 337.386 284.831 337.419 284.963H335.766C335.819 284.753 335.921 284.592 336.073 284.477C336.225 284.362 336.404 284.303 336.615 284.303Z" fill="#5B5863"/>
<path d="M340.837 283.621C340.619 283.621 340.417 283.663 340.225 283.749C340.034 283.834 339.868 283.959 339.729 284.119H339.72V283.67H338.963V286.948H339.72V285.301C339.72 285.143 339.739 285.002 339.779 284.874C339.819 284.749 339.878 284.644 339.954 284.559C340.027 284.477 340.12 284.415 340.225 284.369C340.331 284.326 340.447 284.303 340.576 284.303C340.695 284.303 340.794 284.32 340.88 284.349C340.966 284.382 341.039 284.431 341.105 284.5C341.168 284.569 341.214 284.661 341.247 284.779C341.277 284.897 341.293 285.041 341.293 285.212V286.951H342.05V285.018C342.05 284.546 341.941 284.195 341.726 283.965C341.511 283.736 341.214 283.621 340.837 283.621Z" fill="#5B5863"/>
<path d="M345.439 282V284.064H345.422C345.171 283.768 344.821 283.621 344.378 283.621C344.153 283.621 343.941 283.663 343.746 283.749C343.548 283.834 343.379 283.952 343.24 284.1C343.098 284.251 342.986 284.431 342.906 284.641C342.824 284.854 342.784 285.081 342.784 285.323C342.784 285.524 342.807 285.711 342.86 285.888C342.913 286.065 342.986 286.219 343.082 286.354C343.178 286.488 343.29 286.603 343.422 286.701C343.554 286.8 343.7 286.875 343.865 286.925C344.03 286.977 344.202 287 344.384 287C344.847 287 345.207 286.836 345.459 286.508H345.472V286.948H346.196V282H345.439ZM344.503 286.318C344.222 286.318 343.994 286.226 343.819 286.042C343.64 285.858 343.554 285.619 343.554 285.327C343.554 285.176 343.578 285.035 343.627 284.904C343.677 284.772 343.746 284.664 343.832 284.579C343.918 284.493 344.017 284.425 344.133 284.375C344.249 284.329 344.374 284.303 344.507 284.303C344.788 284.303 345.019 284.402 345.197 284.595C345.376 284.792 345.469 285.035 345.469 285.327C345.469 285.622 345.376 285.858 345.191 286.042C345.006 286.226 344.774 286.318 344.503 286.318Z" fill="#5B5863"/>
<path d="M348.722 287C349.052 287 349.35 286.931 349.614 286.79C349.879 286.649 350.084 286.449 350.232 286.193C350.378 285.937 350.454 285.642 350.454 285.314C350.454 284.986 350.378 284.69 350.232 284.431C350.084 284.175 349.879 283.975 349.617 283.834C349.353 283.693 349.055 283.621 348.722 283.621C348.378 283.621 348.074 283.696 347.809 283.844C347.545 283.991 347.34 284.192 347.198 284.448C347.055 284.703 346.986 284.992 346.986 285.314C346.986 285.553 347.026 285.776 347.112 285.983C347.194 286.193 347.31 286.37 347.459 286.521C347.607 286.672 347.793 286.787 348.011 286.872C348.229 286.957 348.464 287 348.722 287ZM348.722 286.318C348.441 286.318 348.209 286.222 348.027 286.029C347.845 285.839 347.756 285.599 347.756 285.314C347.756 285.025 347.845 284.785 348.024 284.592C348.203 284.402 348.434 284.303 348.722 284.303C348.996 284.303 349.224 284.398 349.409 284.585C349.591 284.776 349.684 285.018 349.684 285.314C349.684 285.606 349.591 285.845 349.406 286.035C349.221 286.226 348.993 286.318 348.722 286.318Z" fill="#5B5863"/>
<path d="M354.593 287C354.748 287 354.904 286.984 355.059 286.948C355.211 286.915 355.36 286.859 355.505 286.78C355.651 286.705 355.776 286.613 355.885 286.501C355.994 286.393 356.084 286.259 356.15 286.098C356.216 285.94 356.249 285.763 356.249 285.573C356.249 285.389 356.219 285.225 356.166 285.081C356.071 284.831 355.872 284.621 355.568 284.454C355.429 284.379 355.158 284.264 354.761 284.106C354.424 283.978 354.203 283.88 354.1 283.814C353.938 283.709 353.859 283.578 353.862 283.414C353.862 283.243 353.928 283.106 354.054 283.007C354.18 282.909 354.342 282.856 354.533 282.856C354.877 282.856 355.244 283.02 355.641 283.345L356.127 282.709C355.621 282.315 355.089 282.121 354.533 282.121C354.259 282.121 354.004 282.18 353.773 282.299C353.542 282.417 353.356 282.577 353.221 282.781C353.082 282.988 353.016 283.214 353.016 283.457C353.016 283.578 353.029 283.693 353.059 283.798C353.089 283.903 353.128 283.998 353.175 284.08C353.221 284.162 353.28 284.241 353.36 284.313C353.436 284.385 353.512 284.451 353.588 284.503C353.664 284.556 353.756 284.608 353.862 284.661C353.968 284.713 354.067 284.759 354.156 284.792C354.242 284.828 354.348 284.867 354.467 284.907C354.566 284.943 354.649 284.972 354.712 284.995C354.771 285.022 354.841 285.048 354.913 285.081C354.986 285.114 355.046 285.14 355.089 285.166C355.132 285.192 355.175 285.225 355.221 285.261C355.264 285.301 355.297 285.337 355.32 285.376C355.34 285.415 355.36 285.458 355.373 285.507C355.386 285.556 355.396 285.609 355.396 285.668C355.396 285.852 355.327 285.993 355.191 286.098C355.052 286.203 354.854 286.252 354.596 286.252C354.381 286.252 354.163 286.199 353.945 286.091C353.727 285.983 353.532 285.825 353.363 285.622L352.847 286.252C353.092 286.501 353.366 286.688 353.667 286.813C353.965 286.938 354.275 287 354.593 287Z" fill="#5B5863"/>
<path d="M360.729 283.67L360.014 285.829H360.005L359.357 283.67H358.725L358.087 285.825H358.074L357.36 283.67H356.593L357.727 286.948H358.411L359.029 284.884H359.043L359.661 286.948H360.362L361.495 283.67H360.729Z" fill="#5B5863"/>
<path d="M362.583 283.181C362.672 283.181 362.755 283.161 362.834 283.115C362.914 283.07 362.977 283.01 363.023 282.932C363.069 282.856 363.092 282.774 363.092 282.682C363.092 282.548 363.039 282.43 362.94 282.331C362.841 282.233 362.722 282.184 362.583 282.184C362.438 282.184 362.319 282.233 362.219 282.331C362.12 282.43 362.071 282.545 362.071 282.682C362.071 282.82 362.12 282.938 362.219 283.037C362.319 283.135 362.438 283.181 362.583 283.181ZM362.2 286.948H362.957V283.67H362.2V286.948Z" fill="#5B5863"/>
<path d="M364.947 287C365.142 287 365.301 286.984 365.423 286.951C365.545 286.918 365.668 286.872 365.787 286.806L365.588 286.157C365.41 286.252 365.244 286.298 365.099 286.298C364.99 286.298 364.91 286.265 364.858 286.193C364.805 286.124 364.782 286.006 364.782 285.842V284.31H365.753V283.67H364.782V282.499L364.025 282.581V283.67H363.621V284.31H364.025V285.911C364.025 286.272 364.104 286.541 364.266 286.724C364.428 286.908 364.656 287 364.947 287Z" fill="#5B5863"/>
<path d="M367.767 287C368.071 287 368.345 286.948 368.593 286.839C368.841 286.734 369.043 286.593 369.195 286.423L368.673 285.963C368.636 286.003 368.597 286.042 368.554 286.075C368.507 286.111 368.461 286.144 368.408 286.173C368.355 286.203 368.299 286.229 368.24 286.249C368.18 286.272 368.114 286.288 368.044 286.301C367.975 286.314 367.906 286.318 367.836 286.318C367.644 286.318 367.473 286.278 367.324 286.193C367.175 286.108 367.059 285.99 366.977 285.835C366.894 285.684 366.854 285.507 366.854 285.307C366.854 285.11 366.894 284.936 366.977 284.785C367.056 284.635 367.172 284.516 367.32 284.431C367.466 284.346 367.638 284.303 367.833 284.303C368.005 284.303 368.163 284.336 368.306 284.402C368.444 284.467 368.567 284.559 368.666 284.674L369.182 284.231C369.02 284.034 368.815 283.883 368.567 283.778C368.316 283.673 368.058 283.621 367.793 283.621C367.463 283.621 367.165 283.693 366.907 283.834C366.649 283.978 366.448 284.178 366.302 284.434C366.157 284.69 366.084 284.986 366.084 285.314C366.084 285.645 366.153 285.94 366.299 286.196C366.444 286.452 366.643 286.652 366.901 286.79C367.155 286.931 367.443 287 367.767 287Z" fill="#5B5863"/>
<path d="M371.767 283.621C371.542 283.621 371.334 283.66 371.142 283.739C370.95 283.818 370.785 283.929 370.65 284.08H370.636V282H369.879V286.948H370.636V285.281C370.636 284.966 370.712 284.723 370.871 284.556C371.03 284.388 371.248 284.303 371.526 284.303C371.764 284.303 371.942 284.372 372.061 284.507C372.18 284.641 372.243 284.864 372.243 285.179V286.951H373V284.986C373 284.749 372.97 284.539 372.911 284.362C372.851 284.185 372.765 284.044 372.653 283.936C372.54 283.831 372.412 283.752 372.266 283.699C372.121 283.647 371.952 283.621 371.767 283.621Z" fill="#5B5863"/>
<path fill-rule="evenodd" clip-rule="evenodd" d="M306.729 279.748H308.537V288.252H306.728C306.222 288.252 305.736 288.069 305.377 287.742C305.019 287.414 304.818 286.971 304.818 286.508V281.492C304.818 281.029 305.019 280.585 305.377 280.258C305.736 279.931 306.222 279.747 306.728 279.747L306.729 279.748ZM309.355 279V289H306.729C306.005 289 305.311 288.737 304.799 288.27C304.287 287.803 304 287.169 304 286.508V281.492C304 280.831 304.288 280.197 304.799 279.73C305.311 279.263 306.005 279 306.729 279H309.355ZM307.769 281.991C307.769 282.112 307.743 282.231 307.693 282.343C307.642 282.454 307.568 282.555 307.475 282.641C307.381 282.726 307.27 282.794 307.148 282.84C307.026 282.886 306.895 282.91 306.763 282.91C306.631 282.91 306.5 282.886 306.378 282.84C306.256 282.794 306.145 282.726 306.051 282.641C305.958 282.555 305.884 282.454 305.833 282.343C305.782 282.231 305.756 282.112 305.756 281.991C305.756 281.747 305.862 281.513 306.051 281.341C306.24 281.169 306.496 281.072 306.763 281.072C307.03 281.072 307.286 281.169 307.475 281.341C307.663 281.513 307.769 281.747 307.769 281.991ZM310.446 279H312.263C312.989 279 313.685 279.263 314.198 279.732C314.712 280.201 315 280.837 315 281.5V286.5C315 287.163 314.712 287.799 314.198 288.268C313.685 288.737 312.989 289 312.263 289H310.446V279ZM313.721 284.498C313.721 284.631 313.692 284.763 313.636 284.886C313.581 285.009 313.499 285.12 313.396 285.214C313.293 285.308 313.171 285.383 313.036 285.434C312.902 285.485 312.758 285.511 312.612 285.511C312.467 285.511 312.322 285.485 312.188 285.434C312.053 285.383 311.931 285.308 311.828 285.214C311.725 285.12 311.644 285.009 311.588 284.886C311.532 284.763 311.503 284.631 311.503 284.498C311.503 284.23 311.62 283.972 311.828 283.782C312.036 283.593 312.318 283.486 312.612 283.486C312.906 283.486 313.188 283.593 313.396 283.782C313.604 283.972 313.721 284.23 313.721 284.498Z" fill="#FD3E72"/>
<g filter="url(#filter4_i)">
<path d="M297 298H398V348H297V298Z" fill="#F3F3F3"/>
</g>
<path d="M318 309C318 307.895 318.732 307 319.635 307L388.365 307C389.268 307 390 307.895 390 309C390 310.105 389.268 311 388.365 311H319.635C318.732 311 318 310.105 318 309Z" fill="#FD3E72"/>
<circle cx="309" cy="309" r="3" fill="#FD3E72"/>
<path d="M318 323C318 321.895 318.732 321 319.635 321L388.365 321C389.268 321 390 321.895 390 323C390 324.105 389.268 325 388.365 325H319.635C318.732 325 318 324.105 318 323Z" fill="#FD3E72"/>
<circle cx="309" cy="323" r="3" fill="#FD3E72"/>
<path d="M318 337C318 335.895 318.732 335 319.635 335L388.365 335C389.268 335 390 335.895 390 337C390 338.105 389.268 339 388.365 339H319.635C318.732 339 318 338.105 318 337Z" fill="#FD3E72"/>
<circle cx="309" cy="337" r="3" fill="#FD3E72"/>
<path d="M297.449 270.601H398.119V271.23H297.449V270.601Z" fill="#F3F3F3"/>
<path d="M303.113 196.928C303.113 195.538 304.24 194.411 305.63 194.411H313.7C315.09 194.411 316.216 195.538 316.216 196.928V204.997C316.216 206.387 315.09 207.514 313.7 207.514H305.63C304.24 207.514 303.113 206.387 303.113 204.997V196.928Z" fill="#E3E3E3"/>
<path d="M321.947 200.963C321.947 200.059 322.681 199.325 323.585 199.325H353.067C353.972 199.325 354.705 200.059 354.705 200.963C354.705 201.868 353.972 202.601 353.067 202.601H323.585C322.681 202.601 321.947 201.868 321.947 200.963Z" fill="#E3E3E3"/>
<path d="M303.113 225.517C303.113 224.127 304.24 223 305.63 223H313.7C315.09 223 316.216 224.127 316.216 225.517V233.586C316.216 234.976 315.09 236.103 313.7 236.103H305.63C304.24 236.103 303.113 234.976 303.113 233.586V225.517Z" fill="#E3E3E3"/>
<path d="M321.947 229.551C321.947 228.647 322.681 227.914 323.585 227.914H353.067C353.972 227.914 354.705 228.647 354.705 229.551C354.705 230.456 353.972 231.189 353.067 231.189H323.585C322.681 231.189 321.947 230.456 321.947 229.551Z" fill="#E3E3E3"/>
<path d="M303 253.517C303 252.127 304.127 251 305.517 251H313.586C314.976 251 316.103 252.127 316.103 253.517V261.586C316.103 262.976 314.976 264.103 313.586 264.103H305.517C304.127 264.103 303 262.976 303 261.586V253.517Z" fill="#E3E3E3"/>
<path d="M321.947 257.552C321.947 256.647 322.681 255.914 323.585 255.914H353.067C353.972 255.914 354.705 256.647 354.705 257.552C354.705 258.457 353.972 259.19 353.067 259.19H323.585C322.681 259.19 321.947 258.457 321.947 257.552Z" fill="#E3E3E3"/>
<defs>
<filter id="filter0_d" x="30" y="87" width="392.703" height="287" filterUnits="userSpaceOnUse" color-interpolation-filters="sRGB">
<feFlood flood-opacity="0" result="BackgroundImageFix"/>
<feColorMatrix in="SourceAlpha" type="matrix" values="0 0 0 0 0 0 0 0 0 0 0 0 0 0 0 0 0 0 127 0"/>
<feOffset dy="4"/>
<feGaussianBlur stdDeviation="6"/>
<feColorMatrix type="matrix" values="0 0 0 0 0 0 0 0 0 0 0 0 0 0 0 0 0 0 0.15 0"/>
<feBlend mode="normal" in2="BackgroundImageFix" result="effect1_dropShadow"/>
<feBlend mode="normal" in="SourceGraphic" in2="effect1_dropShadow" result="shape"/>
</filter>
<filter id="filter1_d" x="124.039" y="174.232" width="178.825" height="88.8517" filterUnits="userSpaceOnUse" color-interpolation-filters="sRGB">
<feFlood flood-opacity="0" result="BackgroundImageFix"/>
<feColorMatrix in="SourceAlpha" type="matrix" values="0 0 0 0 0 0 0 0 0 0 0 0 0 0 0 0 0 0 127 0"/>
<feOffset dy="6"/>
<feGaussianBlur stdDeviation="9"/>
<feColorMatrix type="matrix" values="0 0 0 0 0 0 0 0 0 0 0 0 0 0 0 0 0 0 0.05 0"/>
<feBlend mode="normal" in2="BackgroundImageFix" result="effect1_dropShadow"/>
<feBlend mode="normal" in="SourceGraphic" in2="effect1_dropShadow" result="shape"/>
</filter>
<filter id="filter2_d" x="124.039" y="237.78" width="178.825" height="144.22" filterUnits="userSpaceOnUse" color-interpolation-filters="sRGB">
<feFlood flood-opacity="0" result="BackgroundImageFix"/>
<feColorMatrix in="SourceAlpha" type="matrix" values="0 0 0 0 0 0 0 0 0 0 0 0 0 0 0 0 0 0 127 0"/>
<feOffset dy="6"/>
<feGaussianBlur stdDeviation="9"/>
<feColorMatrix type="matrix" values="0 0 0 0 0 0 0 0 0 0 0 0 0 0 0 0 0 0 0.05 0"/>
<feBlend mode="normal" in2="BackgroundImageFix" result="effect1_dropShadow"/>
<feBlend mode="normal" in="SourceGraphic" in2="effect1_dropShadow" result="shape"/>
</filter>
<filter id="filter3_d" x="37.7754" y="165.985" width="95.9067" height="36.7632" filterUnits="userSpaceOnUse" color-interpolation-filters="sRGB">
<feFlood flood-opacity="0" result="BackgroundImageFix"/>
<feColorMatrix in="SourceAlpha" type="matrix" values="0 0 0 0 0 0 0 0 0 0 0 0 0 0 0 0 0 0 127 0"/>
<feOffset dy="6"/>
<feGaussianBlur stdDeviation="4"/>
<feColorMatrix type="matrix" values="0 0 0 0 0 0 0 0 0 0 0 0 0 0 0 0 0 0 0.1 0"/>
<feBlend mode="normal" in2="BackgroundImageFix" result="effect1_dropShadow"/>
<feBlend mode="normal" in="SourceGraphic" in2="effect1_dropShadow" result="shape"/>
</filter>
<filter id="filter4_i" x="297" y="298" width="101" height="50" filterUnits="userSpaceOnUse" color-interpolation-filters="sRGB">
<feFlood flood-opacity="0" result="BackgroundImageFix"/>
<feBlend mode="normal" in="SourceGraphic" in2="BackgroundImageFix" result="shape"/>
<feColorMatrix in="SourceAlpha" type="matrix" values="0 0 0 0 0 0 0 0 0 0 0 0 0 0 0 0 0 0 127 0" result="hardAlpha"/>
<feOffset/>
<feGaussianBlur stdDeviation="1"/>
<feComposite in2="hardAlpha" operator="arithmetic" k2="-1" k3="1"/>
<feColorMatrix type="matrix" values="0 0 0 0 0 0 0 0 0 0 0 0 0 0 0 0 0 0 0.1 0"/>
<feBlend mode="normal" in2="shape" result="effect1_innerShadow"/>
</filter>
<linearGradient id="paint0_linear" x1="116.149" y1="143.029" x2="147.789" y2="279.504" gradientUnits="userSpaceOnUse">
<stop stop-color="#FE6556"/>
<stop offset="0.413875" stop-color="#FD3E72"/>
<stop offset="1" stop-color="#49A8FF"/>
</linearGradient>
</defs>
</svg>
