<svg xmlns="http://www.w3.org/2000/svg" width="255" height="78" fill="none" xmlns:v="https://vecta.io/nano"><path d="M111.333 16.5H126V9.926c0-.363.108-.717.309-1.018s.488-.536.823-.675.703-.175 1.059-.104a1.83 1.83 0 0 1 .938.502l12.075 12.074a1.83 1.83 0 0 1 0 2.592l-12.075 12.074a1.83 1.83 0 0 1-1.997.397c-.335-.139-.621-.374-.823-.675s-.309-.656-.309-1.018V27.5h-14.667c-.486 0-.952-.193-1.296-.537a1.83 1.83 0 0 1-.537-1.296v-7.333a1.83 1.83 0 0 1 .537-1.296c.344-.344.81-.537 1.296-.537z" fill="#fd3e72"/><path d="M140.667 61.5H126v6.574c0 .363-.108.717-.309 1.018s-.488.536-.823.675a1.83 1.83 0 0 1-1.997-.397l-12.075-12.074a1.83 1.83 0 0 1 0-2.592l12.075-12.074a1.83 1.83 0 0 1 .938-.502c.356-.071.724-.034 1.059.104s.621.374.823.675.309.656.309 1.018V50.5h14.667c.486 0 .952.193 1.296.537a1.83 1.83 0 0 1 .537 1.296v7.333a1.83 1.83 0 0 1-.537 1.296c-.344.344-.81.537-1.296.537z" fill="#bb1d48"/><path d="M75.484 76.197a10 10 0 0 0 9.733-7.703l7.882-33.404c1.482-6.279-3.282-12.297-9.733-12.297h-62.3a10 10 0 0 0-9.994 9.663L9.946 65.86c-.191 5.652 4.339 10.337 9.994 10.337h55.544z" fill="#9f0c34"/><path d="M31.225 3.388c-5.648-.212-10.35 4.296-10.375 9.948l-.188 41.936a10 10 0 0 0 8.989 9.994l44.04 4.474c5.605.569 10.574-3.602 10.984-9.221l3.26-44.64c.412-5.646-3.941-10.509-9.598-10.721l-47.112-1.77z" fill="#ffe1e9"/><path d="M11.242 12.808c-5.984.202-10.45 5.581-9.548 11.5l6.61 43.394a10 10 0 0 0 9.886 8.494h54.333c5.854 0 10.456-5.006 9.965-10.839l-3.115-37.007a10 10 0 0 0-9.965-9.161H42.942c-2.419 0-4.631-1.367-5.712-3.532-1.116-2.234-3.432-3.612-5.927-3.528l-20.061.678z" fill="#fd3e72"/><path d="M179.512 76.197a10 10 0 0 1-9.732-7.703l-7.883-33.404c-1.482-6.279 3.281-12.297 9.732-12.297h62.304c5.392 0 9.813 4.274 9.995 9.663l1.126 33.405c.191 5.652-4.339 10.337-9.994 10.337h-55.548z" fill="#9f0c34"/><path d="M223.771 3.388c5.649-.212 10.351 4.296 10.376 9.948l.187 41.936a10 10 0 0 1-8.989 9.994l-44.042 4.474c-5.605.569-10.574-3.602-10.985-9.22l-3.259-44.64a10 10 0 0 1 9.598-10.721l47.114-1.77z" fill="#ffe1e9"/><path d="M243.758 12.808c5.983.202 10.45 5.581 9.548 11.5l-6.61 43.394a10 10 0 0 1-9.886 8.494h-54.336c-5.854 0-10.456-5.006-9.965-10.839l3.115-37.007a10 10 0 0 1 9.965-9.161h26.467c2.419 0 4.631-1.367 5.712-3.532 1.116-2.234 3.432-3.612 5.927-3.528l20.063.678z" fill="#fd3e72"/></svg>