<svg xmlns="http://www.w3.org/2000/svg" xmlns:xlink="http://www.w3.org/1999/xlink" width="626" height="669" fill="none" xmlns:v="https://vecta.io/nano"><circle opacity=".2" cx="313" cy="333" r="313" fill="#fff2f6"/><ellipse opacity=".2" cx="313.5" cy="332.5" rx="229.5" ry="230.5" fill="#ffe0e9"/><path d="M176.104 304.458c.691.706 1.516 1.266 2.427 1.649s1.889.58 2.877.58 1.966-.197 2.877-.58 1.736-.943 2.427-1.649c-.629-2.978-1.932-4.971-3.713-5.698.56-.348.991-.868 1.229-1.483s.268-1.29.087-1.924a3.03 3.03 0 0 0-2.915-2.2c-.659 0-1.3.215-1.825.612a3.03 3.03 0 0 0-1.089 1.588c-.181.634-.15 1.309.087 1.924a3.03 3.03 0 0 0 1.229 1.483c-1.766.727-3.077 2.72-3.698 5.698z" fill="#fff"/><path d="M182.257 364.545l-20.251-13.071c-50.498-32.575-50.498-55.884-50.498-64.653a37.24 37.24 0 0 1 8.098-23.089 37.34 37.34 0 0 1 20.691-13.102c8.177-1.919 16.763-1.029 24.37 2.527a37.31 37.31 0 0 1 17.552 17.07c3.76-7.5 9.944-13.513 17.551-17.07s16.193-4.446 24.37-2.527a37.34 37.34 0 0 1 20.691 13.102 37.24 37.24 0 0 1 8.098 23.089c0 8.769 0 32.078-50.46 64.64l-20.212 13.084zm-36.934-145.483a15.16 15.16 0 0 0 15.156-15.155 15.16 15.16 0 0 0-15.156-15.156 15.16 15.16 0 0 0-15.155 15.156c0 8.37 6.785 15.155 15.155 15.155z" fill="#ffacc3"/><path d="M477.101 51.771a7.13 7.13 0 1 0 0-14.261 7.13 7.13 0 1 0 0 14.261z" fill="#fd3e72"/><path style="mix-blend-mode:multiply" opacity=".1" d="M110.371 143.75a71.17 71.17 0 0 0-7.471.394c4.786 12.366 14.269 22.339 26.379 27.742a50.24 50.24 0 0 0 38.266 1.099 70.46 70.46 0 0 0-25.063-21.508c-9.941-5.083-20.946-7.732-32.111-7.727z" fill="url(#A)"/><path d="M155.224 172.45c27.738 0 50.225-22.486 50.225-50.225S182.962 72 155.224 72s-50.225 22.487-50.225 50.225 22.486 50.225 50.225 50.225z" fill="#fff"/><g stroke="#fd3e72" stroke-width="3" stroke-linejoin="round"><path d="M161.375 104.875v7.833a1.96 1.96 0 0 0 .573 1.385c.368.367.866.574 1.385.574h7.833" stroke-linecap="round"/><path d="M167.25 132.292h-13.709a3.92 3.92 0 0 1-2.769-1.147c-.735-.735-1.147-1.731-1.147-2.77v-19.583c0-1.039.412-2.035 1.147-2.77a3.92 3.92 0 0 1 2.769-1.147h7.834l9.791 9.792v13.708c0 1.039-.412 2.035-1.147 2.77a3.92 3.92 0 0 1-2.769 1.147z"/><path d="M163.333 132.292v3.916a3.92 3.92 0 0 1-3.917 3.917h-13.708a3.92 3.92 0 0 1-3.917-3.917v-19.583c0-1.039.413-2.035 1.147-2.769s1.731-1.148 2.77-1.148h3.916" stroke-linecap="round"/></g><path d="M497.465 111.347c-12.539 0-24.844 3.394-35.61 9.823a69.46 69.46 0 0 0-25.536 26.692c-5.946 11.04-8.793 23.483-8.237 36.01s4.491 24.669 11.39 35.14c-9.807 4.97-20.066 8.997-30.636 12.025 12.978 2.855 26.469 2.367 39.207-1.417a69.45 69.45 0 0 0 62.651 19.386c11.232-2.178 21.752-7.098 30.625-14.321s15.824-16.526 20.235-27.082a69.45 69.45 0 0 0 5.053-33.428 69.47 69.47 0 0 0-11.327-31.854 69.45 69.45 0 0 0-25.024-22.732 69.46 69.46 0 0 0-32.791-8.227v-.015z" fill="#fff"/><path d="M542.358 196.475l-.235-2.432-2.092-21.612a18.45 18.45 0 0 0-5.964-11.882c-3.396-3.082-7.818-4.789-12.404-4.789h-47.482c-4.586 0-9.008 1.707-12.404 4.789s-5.522 7.318-5.965 11.882l-2.318 24.044a12.35 12.35 0 0 0 .569 5.075c.542 1.634 1.418 3.136 2.574 4.411a12.36 12.36 0 0 0 4.138 2.993c1.573.698 3.274 1.06 4.995 1.063a12.35 12.35 0 0 0 9.782-4.804l8.647-11.208h27.461l8.624 11.17c1.154 1.495 2.637 2.706 4.333 3.539s3.56 1.266 5.45 1.265a12.35 12.35 0 0 0 9.127-4.037 12.36 12.36 0 0 0 2.581-4.4 12.35 12.35 0 0 0 .583-5.067zm-68.412-33.955a.96.96 0 0 1 .282-.681c.18-.18.425-.282.68-.282h6.199c.255 0 .5.102.68.282a.96.96 0 0 1 .282.681v6.138l-4.061 4.061-4.062-4.061v-6.138zm-8.26 16.383c-.255 0-.5-.102-.68-.282a.96.96 0 0 1-.282-.681v-6.198a.96.96 0 0 1 .282-.681c.18-.18.425-.282.68-.282h6.146l4.061 4.062-4.061 4.054-6.146.008zm16.383 8.282c0 .255-.101.5-.282.681a.96.96 0 0 1-.68.281h-6.199a.96.96 0 0 1-.68-.281c-.181-.181-.282-.426-.282-.681v-6.138l4.062-4.062 4.061 4.062v6.138zm9.222-9.222c0 .255-.101.5-.281.681s-.426.281-.681.281h-6.138l-4.062-4.061 4.062-4.062h6.138c.255 0 .5.101.681.282a.96.96 0 0 1 .281.68v6.199zm18.005 1.644c-.947 0-1.873-.281-2.661-.807s-1.401-1.274-1.763-2.149-.458-1.838-.273-2.767a4.79 4.79 0 0 1 1.311-2.452c.669-.67 1.523-1.126 2.452-1.311s1.892-.09 2.767.273a4.78 4.78 0 0 1 2.149 1.764 4.79 4.79 0 0 1 .807 2.66c-.002 1.27-.507 2.487-1.405 3.384s-2.114 1.403-3.384 1.405zm9.631 9.632a4.79 4.79 0 0 1-4.424-2.957 4.79 4.79 0 0 1 1.038-5.219 4.79 4.79 0 0 1 2.452-1.311 4.8 4.8 0 0 1 2.767.273 4.78 4.78 0 0 1 2.957 4.425c.001.629-.122 1.253-.363 1.836s-.592 1.111-1.037 1.558-.973.8-1.554 1.042a4.8 4.8 0 0 1-1.836.368v-.015zm0-19.263a4.79 4.79 0 0 1-2.66-.807 4.78 4.78 0 0 1-1.764-2.149 4.79 4.79 0 0 1-.273-2.767c.185-.929.641-1.783 1.311-2.452a4.79 4.79 0 0 1 5.219-1.039c.875.363 1.623.977 2.149 1.764s.808 1.714.808 2.661c.002.631-.121 1.255-.36 1.838s-.592 1.114-1.037 1.561-.974.802-1.556 1.044-1.206.368-1.837.369v-.023zm9.632 9.631c-.947 0-1.873-.281-2.661-.807s-1.401-1.274-1.764-2.149a4.79 4.79 0 0 1 1.038-5.219 4.79 4.79 0 0 1 2.452-1.311c.929-.185 1.892-.09 2.767.273a4.78 4.78 0 0 1 2.15 1.764 4.79 4.79 0 0 1 .807 2.66c-.002 1.27-.507 2.487-1.405 3.384s-2.115 1.403-3.384 1.405z" fill="#fd3e72"/><path d="M473 307c8.836 0 16-7.163 16-16s-7.164-16-16-16-16 7.163-16 16 7.163 16 16 16zM81.812 239.353c9.634 0 17.444-7.81 17.444-17.444s-7.81-17.444-17.444-17.444-17.444 7.81-17.444 17.444 7.81 17.444 17.444 17.444z" fill="#fff"/><path d="M76.855 221.985c.013 1.336.523 2.619 1.432 3.599.451.515 1.003.93 1.623 1.22s1.293.447 1.977.462c.666.05 1.335-.034 1.968-.247s1.216-.552 1.715-.995c.474-.45 1.079-.734 1.728-.811a2.04 2.04 0 0 1 1.334.56 1.82 1.82 0 0 1 .465.629c.107.241.161.502.157.766-.036.577-.291 1.119-.712 1.515-.83.813-1.814 1.45-2.894 1.876a8.7 8.7 0 0 1-3.395.602c-2.46.022-4.827-.932-6.585-2.652a8.99 8.99 0 0 1-2.751-6.487 9.32 9.32 0 0 1 9.336-9.275c1.161-.028 2.315.177 3.396.602a8.7 8.7 0 0 1 2.894 1.876c.422.396.676.938.712 1.516.004.267-.049.532-.156.776a1.86 1.86 0 0 1-.465.641c-.349.339-.81.538-1.296.561-.664-.076-1.285-.369-1.766-.834a5.4 5.4 0 0 0-3.562-1.243 5.09 5.09 0 0 0-2.024.457c-.636.289-1.206.706-1.674 1.226-.918.99-1.434 2.287-1.447 3.637V222l-.008-.015z" fill="#fd3e72"/><path d="M477.548 91.509a14.31 14.31 0 0 0-9.934-10.025.47.47 0 0 1 0-.917 14.31 14.31 0 0 0 9.934-10.025.47.47 0 0 1 .742-.254.47.47 0 0 1 .168.253 14.31 14.31 0 0 0 3.645 6.322 14.32 14.32 0 0 0 6.289 3.703.47.47 0 0 1 0 .917 14.32 14.32 0 0 0-6.289 3.703 14.31 14.31 0 0 0-3.645 6.322.46.46 0 0 1-.168.253.47.47 0 0 1-.742-.253zm-51.787 36.38a7.4 7.4 0 0 0-1.884-3.263 7.39 7.39 0 0 0-3.247-1.912c-.052-.014-.098-.044-.131-.086s-.051-.095-.051-.149.018-.106.051-.149.079-.073.131-.086a7.39 7.39 0 0 0 5.131-5.176c.013-.052.043-.098.086-.131s.095-.051.148-.051.107.018.149.051.073.079.086.131a7.4 7.4 0 0 0 1.884 3.264 7.39 7.39 0 0 0 3.247 1.912c.052.013.098.044.131.086s.051.095.051.149-.018.106-.051.149-.079.072-.131.086a7.39 7.39 0 0 0-3.247 1.912 7.4 7.4 0 0 0-1.884 3.263.24.24 0 0 1-.086.132c-.042.033-.095.051-.149.051a.24.24 0 0 1-.234-.183z" fill="#fff"/><path d="M200.41 14.967a7.39 7.39 0 0 0 7.388-7.388A7.39 7.39 0 0 0 200.41.19a7.39 7.39 0 0 0-7.388 7.388 7.39 7.39 0 0 0 7.388 7.388z" fill="#ffacc3"/><path d="M59.782 489.196s-4.941 8.252-4.213 14.276 6.13 10.746 7.669 14.58-3.827 11.609 1.159 19.982 42.019 44.118 52.499 46.808 35.827-.242 40.055-11.063 3.069-50.377 3.069-50.377l-30.311-66.116-69.927 31.91z" fill="#ffbe9d"/><path d="M156.947 573.801a37.35 37.35 0 0 0 1.75-7.949l-5.433-27.984-33.691-21.415-9.01-4.683-18.846 19.755c-3.031 3.031-16.428 11.64-26.711 7.472 6.82 9.851 41.753 43.269 51.885 45.868 10.487 2.69 35.835-.235 40.056-11.064z" fill="#da9673"/><path d="M142.875 557.1c-2.903-6.464-10.064-9.934-16.997-11.412s-14.17-1.516-20.93-3.615c-5.606-1.724-10.592-5.038-14.352-9.54-4.395 3.569-16.284 10.245-25.59 6.471 6.82 9.851 41.753 43.269 51.885 45.868 10.48 2.69 35.827-.242 40.056-11.063.871-2.578 1.458-5.244 1.75-7.949l-1.819-9.374-14.003.614zm428.873-67.904s4.941 8.252 4.213 14.276-6.13 10.745-7.668 14.58 3.834 11.609-1.16 20.012-42.018 44.118-52.498 46.808-35.828-.242-40.056-11.063-3.069-50.377-3.069-50.377l30.311-66.116 69.927 31.88z" fill="#ffbe9d"/><path d="M474.58 573.801a37.35 37.35 0 0 1-1.75-7.949l5.433-27.984 33.691-21.415 9.01-4.683 18.838 19.763c3.031 3.031 16.428 11.639 26.711 7.471-6.819 9.851-41.753 43.269-51.884 45.868-10.48 2.683-35.828-.242-40.049-11.071z" fill="#da9673"/><path d="M488.652 557.1c2.903-6.464 10.063-9.934 16.997-11.412s14.17-1.516 20.93-3.615c5.606-1.724 10.592-5.038 14.352-9.54 4.395 3.569 16.285 10.245 25.59 6.471-6.82 9.851-41.753 43.269-51.885 45.868-10.48 2.69-35.827-.242-40.056-11.063-.871-2.578-1.458-5.244-1.75-7.949l1.819-9.374 14.003.614z" fill="url(#B)"/><path d="M370.894 226.506c-37.442-15.33-95.48-10.48-117.933 0s43.019 73.133 59.614 71.807 78.68-63.471 58.319-71.807z" fill="#5b5863"/><path d="M239.108 270.631c2.273 5.63 4.797 11.177 7.297 16.77 5.835 13.064 11.481 26.302 21.006 36.229 20.642 21.513 51.301 32.372 78.232 25.416 31.175-8.033 51.688-33.168 67.079-63.35-33.827-17.55-80.461-42.33-80.453-45.467 0-4.978 3.069-41.276 3.069-41.276h-47.649l3.069 41.276c.023 2.327-24.984 16.232-51.65 30.402z" fill="#ffbe9d"/><path d="M333.085 227.597c-14.677 3.533-30.139 1.619-43.511-5.388l-1.879-23.256h47.679l-2.289 28.644zm21.481 27.03l-2.865-1.622c-10.313 11.147-31.902 33.479-39.631 33.827-6.297.281-30.205-22.892-40.973-33.667l-2.918 1.644c5.426 14.496 20.051 46.36 43.732 46.292 22.081-.038 36.858-31.447 42.655-46.474z" fill="#da9673"/><path style="mix-blend-mode:multiply" opacity=".3" d="M485.605 484.338l-.606-.651.606.651z" fill="url(#C)"/><g fill="#fafafa"><path d="M446.95 668.606l-27.818-350.743 14.049-24.059-61.38-46.982s-48.952 55.863-59.864 55.598c-13.056-.303-59.106-52.794-59.106-52.794l-44.482 31.25c-6.6 4.236-17.656 12.928-17.656 12.928l14.057 24.059-35.888 350.743H446.95z"/><path d="M433.18 293.804c6.206 6.903 5.524 23.983 5.524 23.983l53.681 85.841h-70.064l-6.767-86.757 17.626-23.067z"/></g><path style="mix-blend-mode:multiply" opacity=".2" d="M422.326 403.628h23.173a249.19 249.19 0 0 1-29.553-81.968l6.38 81.968z" fill="url(#D)"/><path d="M190.693 293.804c-6.206 6.903-5.524 23.983-5.524 23.983l-53.703 85.841h70.071l6.767-86.757-17.611-23.067z" fill="#fafafa"/><path style="mix-blend-mode:multiply" opacity=".2" d="M201.541 403.628h-23.173c14.588-25.375 24.592-53.122 29.553-81.968l-6.38 81.968z" fill="url(#E)"/><path d="M251.963 128.2s-9.768-17.429-23.969-7.502 1.516 46.164 17.012 45.527c7.684-.318 10.48-11.813 10.48-11.813l-3.523-26.212z" fill="#ffbe9d"/><path d="M229.13 131.171c9.396 3.19 16.989 12.056 18.239 21.975a7.35 7.35 0 0 1-.939 4.941c-.452.726-1.105 1.306-1.88 1.669s-1.637.494-2.485.377c-2.357-.47-3.607-3.031-4.175-5.418a26.83 26.83 0 0 1-.038-12.345c-1.963-3.47-5.555-8.782-8.722-11.199z" fill="url(#F)"/><path d="M251.961 128.2s-9.768-17.429-23.969-7.502a11.77 11.77 0 0 0-3.842 4.547c3.044-1.155 6.287-1.693 9.541-1.584 6.411.235 12.488 2.523 18.368 5.236l-.098-.697z" fill="url(#G)"/><path d="M371.903 128.2s9.768-17.429 23.968-7.502-1.515 46.164-17.012 45.527c-7.683-.318-10.48-11.813-10.48-11.813l3.524-26.212z" fill="#ffbe9d"/><path d="M394.736 131.171c-9.396 3.19-16.982 12.056-18.24 21.975a7.36 7.36 0 0 0 .94 4.941 4.43 4.43 0 0 0 4.365 2.046c2.357-.47 3.607-3.031 4.175-5.418a26.83 26.83 0 0 0 .038-12.345c1.955-3.47 5.555-8.782 8.722-11.199z" fill="url(#H)"/><path d="M371.9 128.2s9.768-17.429 23.968-7.502a11.75 11.75 0 0 1 3.842 4.547c-3.044-1.155-6.287-1.693-9.54-1.584-6.411.235-12.488 2.523-18.369 5.236l.099-.697z" fill="url(#I)"/><path d="M311.938 32.599c-55.916 0-70.367 61.069-70.367 61.069s7.835 78.756 15.519 93.062c2.273 4.274 22.12 36.73 54.848 36.73s52.551-32.456 54.847-36.73c7.684-14.306 15.52-93.062 15.52-93.062s-14.444-61.069-70.367-61.069z" fill="#ffbe9d"/><path d="M247.341 119.236a32.99 32.99 0 0 1 7.941-19.847c4.752-5.486 11.367-8.154 20.536-6.668 1.895-11.018 8.805-18.247 17.126-21.218s18.186-2.319 26.711.121c-3.683-6.759-10.957-10.927-18.406-12.837-7.868-1.916-16.1-1.739-23.879.513a46.39 46.39 0 0 0-20.458 12.324c-11.071 11.745-14.481 32.205-9.571 47.611z" fill="#5b5863"/><g fill="#fd3e72"><path d="M226.175 270.427c-7.229-7.139-1.213-14.625 7.926-17.164s-2.425-21.468 18.861-26.749c0 0-7.032 13.018 58.97 67.442v12.654s-57.583-8.343-85.757-36.183z"/><path d="M397.682 270.427c7.229-7.139 1.212-14.625-7.926-17.164s2.425-21.468-18.861-26.749c0 0 7.002 14.034-58.955 67.442v12.654s57.545-8.343 85.742-36.183z"/></g><use xlink:href="#O" fill="url(#J)"/><g fill="#5b5863"><use xlink:href="#O"/><path d="M275.826 92.721c-3.789-6.38-4.153-20.172 1.386-25.09s13.542-6.335 20.854-5.206 14.08 4.547 20.46 8.29 12.519 7.972 19.286 10.98c17.034 7.578 37.699 6.699 53.802-2.683s27.128-27.159 27.931-45.785a54.82 54.82 0 0 0-8.389-31.455c-9.214 10.048-21.854 21.415-34.19 28.386 4.925-7.888 8.411-20.877 7.85-30.159-3.629 11.579-16.565 19.558-28.575 21.278s-24.151-1.076-35.964-3.834-23.991-5.494-35.979-3.652a48.05 48.05 0 0 0-29.579 16.679c-7.502 8.974-11.472 20.377-11.167 32.069-5.191.341-9.714.818-14.663 2.402s-9.654 4.547-12.276 9.048c-4.046 6.941-2.273 15.981 1.743 22.945s9.973 12.579 14.845 18.945c9.677 12.7 12.018 19.929 16.898 44.663 3.607-12.503 2.978-26.121.538-38.897-1.659-8.676-4.614-18.073-.636-25.961 3.91-7.767 18.186-7.131 25.825-2.963z"/><path d="M243.541 62.539c-5.191.341-9.715.818-14.663 2.402s-9.654 4.547-12.276 9.048c-4.047 6.941-2.274 15.981 1.743 22.945a57.73 57.73 0 0 0 5.183 7.389c24.582-3.054 20.013-41.784 20.013-41.784zM343.803 32.41c13.374-1.576 25.726-9.556 33.16-20.717a40.41 40.41 0 0 1-20.718 9.586c-12.018 1.72-24.157-1.076-35.971-3.834s-23.991-5.494-35.979-3.652a48.54 48.54 0 0 0-29.553 16.671c-.622.758-1.213 1.516-1.789 2.273a16.81 16.81 0 0 0 8.866 4.501c5.229.925 10.609-.242 15.663-1.887s9.958-3.789 15.156-4.895c16.739-3.546 34.13 3.971 51.165 1.955zm-42.229 8.684a18.08 18.08 0 0 1 7.427-.455 24.95 24.95 0 0 1 13.314 6.161 17.98 17.98 0 0 1 4.448 5.971c-2.38-.917-4.464-1.932-6.532-2.902l-6.062-2.872-6.131-2.796c-2.106-.993-4.228-1.894-6.464-3.107zm-25.753 51.627c-5.698-4.319-9.449-16.914-6.236-23.65.843-1.742 1.955-3.34 3.296-4.736a23.01 23.01 0 0 1 4.956-3.789c3.874-2.183 8.136-3.591 12.548-4.145a47.21 47.21 0 0 1 13.36.076c4.236.636 8.389 1.739 12.382 3.289a87.01 87.01 0 0 1 10.73 5.077c3.319 1.872 6.441 3.834 9.45 5.744l8.805 5.57c2.836 1.749 5.771 3.333 8.79 4.744 5.865 2.713 11.564 4.38 17.937 4.365a28.89 28.89 0 0 0 9.282-1.516 36.11 36.11 0 0 0 8.662-4.448c5.478-3.713 13.253-9.737 18.065-14.64-2.091 5.926-9.01 15.322-12.488 18.27-2.666 2.836-5.789 5.205-9.237 7.009a35.87 35.87 0 0 1-12.625 3.736 48.25 48.25 0 0 1-13.291-.462c-4.189-.705-8.29-1.861-12.231-3.448-7.623-3.031-13.996-7.1-19.99-10.897-2.978-1.925-5.865-3.789-8.79-5.494a79.82 79.82 0 0 0-8.828-4.622 49.49 49.49 0 0 0-9.169-3.092c-1.562-.363-3.147-.616-4.744-.758-1.595-.17-3.201-.226-4.804-.167-6.35.205-12.496 2.326-16.08 6.691a13.69 13.69 0 0 0-3.145 7.638c-.22 2.789 1.804 10.798 3.395 13.655z"/></g><path d="M453.391 480.368a9.66 9.66 0 0 1 3.607-3.365c4.092-2.273 39.844-3.273 51.218-3.743a3.75 3.75 0 0 1 .205.386c1.455 3.562-1.728 8.222-4.607 9.973-4.024 2.447-9.018 2.485-13.731 2.455l-25.492-.182c-2.387 0-4.842-.046-7.054-.955a6.69 6.69 0 0 1-2.631-1.778 6.71 6.71 0 0 1-1.515-2.791z" fill="url(#K)"/><path d="M502.38 511.838a16.56 16.56 0 0 0 .569 10.26c-2.88-2.053-2.88-7.555-.569-10.26z" fill="url(#L)"/><path d="M492.432 456.824l.72-5.486c-1.781 1.455-1.948 3.554-.72 5.486z" fill="url(#M)"/><path d="M530.44 396.27c-6.623-2.379-22.331-5.85-46.277-9.192l.129.182c-.235-.078-.476-.139-.72-.182-37.282-5.206-94.54-10.116-168.597-10.116-73.436 0-130.337 4.819-167.65 9.98a5.35 5.35 0 0 0-.758.189c-23.703 3.327-39.275 6.767-45.86 9.131-16.944 6.063-25.848 19.612-16.012 33.108s39.935 118.515 50.21 121.751c3.516 1.099 22.817 1.91 47.702 2.493h.144l132.224 1.417 132.224-1.417c.205 0 .409-.045.614-.076v.076c25.234-.591 44.883-1.402 48.437-2.516 10.275-3.22 40.389-108.24 50.225-121.736s.902-27.015-16.035-33.092z" fill="#8d8b92"/><path d="M530.44 404.204c-16.943-6.062-93.244-19.308-214.874-19.308s-197.93 13.223-214.874 19.308c-10.351 3.713-17.686 10.207-19.604 17.777-2.698-10.821 5.774-20.748 19.604-25.703 16.944-6.063 93.244-19.309 214.874-19.309 74.057 0 131.315 4.903 168.597 10.117 23.946 3.342 39.647 6.82 46.277 9.192 13.83 4.955 22.294 14.882 19.604 25.703-1.917-7.57-9.26-14.072-19.604-17.777z" fill="#fff" style="mix-blend-mode:overlay" opacity=".7"/><path d="M68.405 471.737s-4.774-8.995-3.622-13.216S78.544 420.89 83.189 418.2s24.718-6.82 28.674-6.456 31.826 3.031 35.774 6.456-7.017 11.798-18.072 14.489-27.174.651-27.174.651l-5.979 18.778-28.007 19.619z" fill="url(#N)"/><g fill="#ffbe9d"><path d="M59.784 489.196s-5.305-9.177-2.834-14.163 39.025-31.485 45.307-31.872 57 20.953 64.683 26.992 8.268 10.404 2.789 13.405-20.46 1.69-31.592-8.025l-21.217-3.789 28.916 17.429c2.691 1.932 6.82 21.597 6.305 26.56s-14.564-1.887-14.564-1.887 1.409 5.585-7.381 5.684c-6.494.068-19.596-7.783-19.596-7.783l-16.178 12.534-34.638-35.085zm503.34-17.459s4.774-8.995 3.622-13.216-13.768-37.631-18.383-40.321-24.719-6.82-28.674-6.456-31.827 3.031-35.775 6.456 7.017 11.798 18.073 14.489 27.174.651 27.174.651l5.979 18.778 27.984 19.619z"/><path d="M571.751 489.196s5.305-9.177 2.834-14.163-38.995-31.485-45.307-31.872-57 20.953-64.684 26.992-8.267 10.404-2.788 13.405 20.46 1.69 31.591-8.025l21.218-3.789-28.917 17.429c-2.69 1.932-6.82 21.597-6.304 26.56s14.564-1.887 14.564-1.887-1.409 5.585 7.381 5.684c6.494.068 19.596-7.783 19.596-7.783l16.178 12.534 34.638-35.085z"/><path d="M558.551 461.143c-.69 9.465-14.504-1.614-18.528-5.767a48.1 48.1 0 0 1-8.206-11.449c5.622 2.417 17.072 9.995 26.734 17.216z"/></g><defs><linearGradient id="A" x1="142.652" y1="141.12" x2="121.624" y2="190.497" xlink:href="#P"><stop stop-color="#cdecfc"/><stop offset="1" stop-color="#9769ad"/></linearGradient><linearGradient id="B" x1="-147619" y1="42028.5" x2="-159203" y2="42028.5" xlink:href="#P"><stop offset=".02" stop-color="#ffbe9d"/><stop offset="1" stop-color="#f59395"/></linearGradient><linearGradient id="C" x1="485.362" y1="484.323" x2="485.256" y2="483.793" xlink:href="#P"><stop stop-color="#9769ad"/><stop offset="1" stop-color="#cdecfc"/></linearGradient><linearGradient id="D" x1="505.06" y1="327.313" x2="405.443" y2="374.651" xlink:href="#P"><stop stop-color="#5f1b57"/><stop offset="1" stop-color="#11102a"/></linearGradient><linearGradient id="E" x1="-63664.4" y1="39086.1" x2="-59037.8" y2="39878.8" xlink:href="#P"><stop stop-color="#5f1b57"/><stop offset="1" stop-color="#11102a"/></linearGradient><linearGradient id="F" x1="11338.7" y1="6896.34" x2="11781.8" y2="6896.34" xlink:href="#P"><stop stop-color="#f48080"/><stop offset="1" stop-color="#cf6074"/></linearGradient><linearGradient id="G" x1="246.118" y1="133.262" x2="235.335" y2="123.479" xlink:href="#P"><stop stop-color="#f8a696"/><stop offset=".98" stop-color="#fbc2aa"/></linearGradient><linearGradient id="H" x1="-32784.8" y1="6896.34" x2="-33228" y2="6896.34" xlink:href="#P"><stop stop-color="#f48080"/><stop offset="1" stop-color="#cf6074"/></linearGradient><linearGradient id="I" x1="-51277.9" y1="2558.35" x2="-51158.4" y2="2289.6" xlink:href="#P"><stop stop-color="#f8a696"/><stop offset=".98" stop-color="#fbc2aa"/></linearGradient><linearGradient id="J" x1="13532.2" y1="10021.7" x2="11165.7" y2="12109.5" xlink:href="#P"><stop stop-color="#8e4d9e"/><stop offset="1" stop-color="#625ea9"/></linearGradient><linearGradient id="K" x1="-92997.6" y1="8955.17" x2="-92989.9" y2="9587.87" xlink:href="#P"><stop offset=".02" stop-color="#fbc2aa"/><stop offset="1" stop-color="#f59395"/></linearGradient><linearGradient id="L" x1="-2425.76" y1="7562.57" x2="-2654.52" y2="7665.7" xlink:href="#P"><stop stop-color="#cf6074"/><stop offset="1" stop-color="#f48080"/></linearGradient><linearGradient id="M" x1="-1248.41" y1="3847.78" x2="-1330.52" y2="3894.6" xlink:href="#P"><stop stop-color="#cf6074"/><stop offset="1" stop-color="#f48080"/></linearGradient><linearGradient id="N" x1="6236.44" y1="37855.9" x2="15516" y2="37855.9" xlink:href="#P"><stop offset=".02" stop-color="#ffbe9d"/><stop offset="1" stop-color="#f59395"/></linearGradient><path id="O" d="M384.109 77.437c2.364-.515 5.66 8.654 6.062 10.222 1.338 5.931.501 12.145-2.357 17.512-5.569 10.45-10.093 25.181-12.829 46.634-2.387-11.299-.909-23.378-.591-34.918s-1.515-24.12-9.851-32.16c6.062-4.622 12.117-5.668 19.566-7.29z"/><linearGradient id="P" gradientUnits="userSpaceOnUse"/></defs></svg>