<svg xmlns="http://www.w3.org/2000/svg" xmlns:xlink="http://www.w3.org/1999/xlink" width="572" height="323" fill="none" xmlns:v="https://vecta.io/nano"><path d="M176.117 177.298a7.23 7.23 0 0 0 10.338 0c-.613-2.902-1.883-4.844-3.619-5.553.546-.339.966-.846 1.198-1.445a2.95 2.95 0 0 0 .085-1.874 2.96 2.96 0 0 0-4.62-1.548c-.512.387-.885.93-1.061 1.548s-.146 1.275.085 1.874a2.96 2.96 0 0 0 1.197 1.445c-1.72.709-2.997 2.651-3.603 5.553zm198.926-98.03a9.67 9.67 0 0 0-3.701.736 9.68 9.68 0 0 0-3.138 2.097 9.66 9.66 0 0 0-2.097 3.138c-.486 1.174-.737 2.431-.737 3.702 0 3.692 2.09 5.294 5.169 5.907v3.574a1.22 1.22 0 0 0 .388.8c.226.209.52.324.827.324a1.22 1.22 0 0 0 1.215-1.124v-1.218h.967v1.218a1.22 1.22 0 0 0 1.215 1.124 1.22 1.22 0 0 0 1.214-1.124v-1.218h.967v1.218a1.22 1.22 0 0 0 1.215 1.124 1.22 1.22 0 0 0 1.215-1.124v-3.648c2.953-.65 4.962-2.215 4.962-5.907-.02-2.554-1.048-4.996-2.862-6.795a9.67 9.67 0 0 0-6.819-2.804zm-3.832 12.856a3.05 3.05 0 0 1-1.694-.514c-.502-.335-.892-.811-1.123-1.369s-.291-1.17-.174-1.762a3.05 3.05 0 0 1 5.527-1.099 3.05 3.05 0 0 1-.379 3.85 3.05 3.05 0 0 1-2.157.893zm7.68 0a3.05 3.05 0 0 1-2.818-1.883c-.231-.558-.291-1.17-.173-1.762a3.05 3.05 0 0 1 4.158-2.222 3.05 3.05 0 0 1 1.649 3.986 3.04 3.04 0 0 1-.663.99 3.05 3.05 0 0 1-.992.661 3.04 3.04 0 0 1-1.169.23h.008zm74.022 114.998a11.08 11.08 0 0 0-2.819-4.888c-1.346-1.359-3.02-2.346-4.861-2.865a.37.37 0 0 1-.261-.63c.069-.07.163-.109.261-.109 1.841-.519 3.515-1.506 4.861-2.865a11.07 11.07 0 0 0 2.819-4.888.35.35 0 0 1 .128-.196.36.36 0 0 1 .222-.077c.081 0 .159.027.222.077s.109.118.129.196a11.07 11.07 0 0 0 2.819 4.888c1.345 1.359 3.02 2.346 4.86 2.865.098 0 .192.039.261.109s.109.163.109.261-.039.191-.109.261a.37.37 0 0 1-.261.108c-1.84.519-3.515 1.506-4.86 2.865a11.08 11.08 0 0 0-2.819 4.888c-.02.078-.065.147-.129.197a.36.36 0 0 1-.222.076c-.08 0-.158-.027-.222-.076s-.109-.119-.128-.197zm12.683 9.489c-.259-.953-.76-1.823-1.455-2.524s-1.56-1.211-2.51-1.479c-.037-.013-.07-.037-.092-.07s-.036-.071-.036-.111a.19.19 0 0 1 .036-.11c.022-.033.055-.057.092-.07.95-.268 1.815-.778 2.51-1.479s1.196-1.571 1.455-2.524a.19.19 0 0 1 .064-.106c.033-.027.075-.041.117-.041s.084.014.117.041.056.065.064.106c.259.953.76 1.823 1.455 2.524s1.56 1.211 2.51 1.479c.038.013.07.037.093.07a.19.19 0 0 1 .035.11.19.19 0 0 1-.035.111c-.023.033-.055.057-.093.07-.95.268-1.815.778-2.51 1.479s-1.196 1.571-1.455 2.524c-.008.041-.031.079-.064.106s-.074.041-.117.041-.084-.014-.117-.041a.19.19 0 0 1-.064-.106z" fill="#fff"/><path d="M283.546 302.118a6.76 6.76 0 0 0-2.585.514 6.75 6.75 0 0 0-3.657 3.657 6.76 6.76 0 0 0-.514 2.585c0 .888.175 1.766.514 2.586a6.76 6.76 0 0 0 1.465 2.192c.627.627 1.372 1.125 2.192 1.464s1.698.515 2.585.515h90.284v-13.513h-90.284zm280.699 0h-90.291v13.513h90.291a6.75 6.75 0 0 0 2.586-.515c.82-.339 1.565-.837 2.192-1.464s1.125-1.372 1.465-2.192a6.75 6.75 0 0 0 .514-2.586 6.76 6.76 0 0 0-.514-2.585c-.34-.82-.838-1.565-1.465-2.192a6.75 6.75 0 0 0-2.192-1.465c-.82-.339-1.698-.514-2.586-.514z" fill="#afadb2"/><g fill="#fd3e72"><path d="M429.735 294.749v-31.021h-11.674v31.021h-39.312v7.369 13.513V323h90.291v-7.369-13.513-7.369h-39.305zm82.03-218.811c4.204 0 7.613-3.408 7.613-7.613s-3.409-7.613-7.613-7.613-7.613 3.408-7.613 7.613 3.408 7.613 7.613 7.613zm-.13 178.944c4.204 0 7.613-3.409 7.613-7.613s-3.409-7.613-7.613-7.613-7.613 3.408-7.613 7.613 3.409 7.613 7.613 7.613zm-.298-89.702c4.205 0 7.613-3.408 7.613-7.613s-3.408-7.613-7.613-7.613-7.613 3.409-7.613 7.613 3.409 7.613 7.613 7.613z"/><path d="M525.712 76.38c4.205 0 7.613-3.408 7.613-7.613s-3.408-7.613-7.613-7.613-7.612 3.409-7.612 7.613 3.408 7.613 7.612 7.613zm-.148 178.945c4.204 0 7.612-3.408 7.612-7.613s-3.408-7.613-7.612-7.613-7.613 3.409-7.613 7.613 3.408 7.613 7.613 7.613z"/><path d="M525.266 165.624c4.204 0 7.613-3.408 7.613-7.613s-3.409-7.613-7.613-7.613-7.613 3.409-7.613 7.613 3.408 7.613 7.613 7.613zm14.848-90.322a7.74 7.74 0 0 0 7.738-7.739 7.74 7.74 0 0 0-7.738-7.738 7.74 7.74 0 0 0-7.738 7.738 7.74 7.74 0 0 0 7.738 7.739z"/><use xlink:href="#B"/><use xlink:href="#B" x="-0.298" y="-89.849"/></g><path d="M426.755 0v83.912h117.25a18.1 18.1 0 0 0 6.937-1.388c2.199-.915 4.196-2.254 5.877-3.941a18.12 18.12 0 0 0 3.917-5.892 18.11 18.11 0 0 0 1.359-6.943V18.113c.007-2.379-.456-4.735-1.362-6.934a18.07 18.07 0 0 0-3.92-5.881c-1.681-1.683-3.678-3.017-5.876-3.927A18.06 18.06 0 0 0 544.005 0h-117.25zm108.618 67.704a4.12 4.12 0 0 1 .697-2.286c.454-.677 1.097-1.203 1.85-1.514a4.12 4.12 0 0 1 2.379-.233c.798.159 1.532.551 2.107 1.127a4.12 4.12 0 0 1 .895 4.487c-.311.752-.838 1.396-1.514 1.849a4.12 4.12 0 0 1-2.287.698c-.542.001-1.079-.105-1.58-.312s-.957-.511-1.34-.895a4.11 4.11 0 0 1-.895-1.34 4.12 4.12 0 0 1-.312-1.581zm-13.38 0c0-.816.242-1.614.696-2.293s1.098-1.208 1.852-1.52 1.584-.394 2.385-.235 1.536.552 2.113 1.13a4.12 4.12 0 0 1 1.13 2.114c.159.801.077 1.631-.235 2.385s-.841 1.399-1.52 1.853a4.13 4.13 0 0 1-5.212-.513 4.13 4.13 0 0 1-1.209-2.919zm-2.06-36.182a12.67 12.67 0 0 1 2.137-7.044 12.68 12.68 0 0 1 13.015-5.391 12.68 12.68 0 0 1 9.961 9.961c.489 2.459.238 5.009-.722 7.325s-2.584 4.297-4.669 5.69a12.68 12.68 0 0 1-7.044 2.137c-3.361 0-6.585-1.335-8.962-3.711s-3.714-5.599-3.716-8.96v-.007zm-11.682 36.182c.002-.814.245-1.61.698-2.286a4.12 4.12 0 0 1 4.228-1.747 4.12 4.12 0 0 1 2.108 1.127c.576.576.968 1.309 1.127 2.108s.079 1.626-.232 2.379a4.12 4.12 0 0 1-3.801 2.547c-.542.001-1.079-.105-1.581-.312a4.13 4.13 0 0 1-1.34-.895c-.383-.383-.687-.839-.894-1.34s-.314-1.038-.313-1.581z" fill="#afadb2"/><path d="M291.402 65.755V18.113a18.15 18.15 0 0 1 1.393-6.944c.917-2.201 2.258-4.199 3.947-5.881s3.693-3.015 5.897-3.922A18.14 18.14 0 0 1 309.588 0h117.169v83.912H309.581a18.19 18.19 0 0 1-18.179-18.157z" fill="#7f7b85"/><path d="M544.005 90.144h-117.25v83.912h117.25a18.09 18.09 0 0 0 6.937-1.388c2.199-.914 4.196-2.253 5.877-3.941a18.11 18.11 0 0 0 3.917-5.892c.905-2.202 1.367-4.562 1.359-6.943V108.25c.006-2.378-.458-4.734-1.365-6.932s-2.239-4.196-3.919-5.879a18.07 18.07 0 0 0-5.875-3.925 18.06 18.06 0 0 0-6.931-1.37zm-8.654 67.704c0-.813.241-1.609.692-2.286a4.12 4.12 0 0 1 1.844-1.517c.752-.313 1.578-.396 2.377-.24a4.12 4.12 0 0 1 2.11 1.12c.577.573.972 1.304 1.134 2.102s.085 1.624-.222 2.378-.831 1.399-1.505 1.855a4.12 4.12 0 0 1-2.281.709c-.541.001-1.078-.105-1.579-.312s-.955-.51-1.339-.892-.687-.838-.895-1.338a4.13 4.13 0 0 1-.314-1.579h-.022zm-13.38 0c0-.816.242-1.614.696-2.293a4.12 4.12 0 0 1 1.852-1.52c.754-.312 1.584-.394 2.385-.235a4.12 4.12 0 0 1 2.113 1.13c.577.577.971 1.312 1.13 2.113s.077 1.631-.235 2.385a4.12 4.12 0 0 1-1.52 1.852c-.679.454-1.477.696-2.293.696-1.091-.006-2.136-.443-2.905-1.217a4.13 4.13 0 0 1-1.201-2.911h-.022zm-5.501 0c0 .815-.242 1.612-.695 2.29a4.12 4.12 0 0 1-1.849 1.517c-.753.312-1.581.394-2.38.235a4.12 4.12 0 0 1-3.238-3.238c-.159-.799-.077-1.627.235-2.38a4.12 4.12 0 0 1 1.517-1.849c.678-.453 1.475-.695 2.29-.695.543-.003 1.081.102 1.584.307s.96.509 1.346.892.692.838.901 1.339a4.13 4.13 0 0 1 .318 1.582h-.029zm28.797-36.181a12.68 12.68 0 0 1-2.136 7.043c-1.393 2.085-3.374 3.71-5.69 4.67a12.67 12.67 0 0 1-7.325.721c-2.46-.489-4.719-1.696-6.492-3.469a12.69 12.69 0 0 1-3.47-6.492c-.489-2.459-.238-5.008.722-7.325a12.67 12.67 0 0 1 4.669-5.69 12.68 12.68 0 0 1 7.044-2.137c1.667-.003 3.319.323 4.86.96s2.942 1.57 4.122 2.748 2.115 2.578 2.753 4.119a12.68 12.68 0 0 1 .965 4.859l-.022-.007z" fill="#afadb2"/><path d="M309.588 174.056c-4.819 0-9.442-1.913-12.852-5.319s-5.328-8.026-5.334-12.845V108.25a18.14 18.14 0 0 1 1.396-6.942 18.13 18.13 0 0 1 3.946-5.879c1.689-1.681 3.693-3.014 5.897-3.92a18.15 18.15 0 0 1 6.947-1.365h117.177v83.912H309.588zm0 90.145c-4.819 0-9.442-1.913-12.852-5.319s-5.328-8.026-5.334-12.846v-47.642c.005-2.383.479-4.742 1.396-6.941a18.15 18.15 0 0 1 3.946-5.879 18.14 18.14 0 0 1 5.897-3.921c2.203-.906 4.564-1.37 6.947-1.364h117.177v83.912H309.588z" fill="#7f7b85"/><path d="M544.005 180.289h-117.25v83.912h117.25a18.11 18.11 0 0 0 6.937-1.388c2.199-.915 4.196-2.254 5.877-3.941s3.011-3.69 3.917-5.892 1.367-4.563 1.359-6.944v-47.642c.006-2.378-.458-4.734-1.365-6.932a18.06 18.06 0 0 0-3.919-5.878 18.08 18.08 0 0 0-5.875-3.925c-2.198-.908-4.553-1.374-6.931-1.37zm-8.632 67.704c.001-.814.244-1.61.697-2.286a4.12 4.12 0 0 1 4.229-1.748 4.12 4.12 0 0 1 3.235 3.236c.159.798.078 1.626-.233 2.379s-.838 1.396-1.514 1.849a4.13 4.13 0 0 1-2.287.698 4.12 4.12 0 0 1-1.58-.313 4.11 4.11 0 0 1-1.34-.894 4.12 4.12 0 0 1-.895-1.34c-.207-.502-.313-1.039-.312-1.581zm-13.38 0a4.12 4.12 0 0 1 .696-2.293 4.13 4.13 0 0 1 1.852-1.521c.754-.312 1.584-.394 2.385-.235a4.13 4.13 0 0 1 2.113 1.13 4.12 4.12 0 0 1 1.13 2.114 4.13 4.13 0 0 1-.235 2.384c-.312.755-.841 1.399-1.52 1.853s-1.477.696-2.293.696a4.13 4.13 0 0 1-4.128-4.128zm-5.501 0c0 .815-.242 1.611-.694 2.289s-1.097 1.206-1.85 1.518-1.581.393-2.38.234-1.534-.551-2.11-1.128a4.12 4.12 0 0 1-.893-4.49 4.12 4.12 0 0 1 1.518-1.849c.677-.453 1.474-.694 2.289-.694 1.093 0 2.142.433 2.916 1.206s1.209 1.82 1.211 2.914h-.007zm28.797-36.182a12.68 12.68 0 0 1-2.136 7.044 12.67 12.67 0 0 1-5.69 4.669c-2.317.96-4.866 1.211-7.325.722s-4.719-1.697-6.492-3.47-2.98-4.032-3.469-6.491a12.67 12.67 0 0 1 .721-7.326 12.69 12.69 0 0 1 4.67-5.69c2.084-1.393 4.536-2.136 7.043-2.136 1.666 0 3.315.328 4.854.966s2.936 1.572 4.114 2.75 2.111 2.576 2.748 4.115a12.69 12.69 0 0 1 .962 4.854v-.007z" fill="#afadb2"/><path d="M69.734 267.996c-.006 2.628-1.054 5.147-2.915 7.003s-4.381 2.899-7.009 2.899H38.965c-2.632 0-5.156-1.046-7.017-2.907s-2.907-4.385-2.907-7.017 1.048-5.155 2.909-7.016a9.93 9.93 0 0 1 7.015-2.908H59.81c2.632 0 5.156 1.045 7.017 2.906s2.907 4.386 2.907 7.018v.022zm278.978-.001c-.007 2.631-1.058 5.15-2.922 7.007a9.93 9.93 0 0 1-7.016 2.895h-20.853a9.93 9.93 0 0 1-7.02-2.906c-1.862-1.861-2.909-4.385-2.911-7.018a9.93 9.93 0 0 1 2.919-7.003c1.862-1.856 4.383-2.899 7.012-2.899h20.845c1.304-.001 2.596.255 3.801.753a9.93 9.93 0 0 1 5.379 5.371c.5 1.205.758 2.496.759 3.8h.007z" fill="#2c3d4c"/><path d="M294.826 176.781c-1.049 1.496-2.647 2.517-4.446 2.838s-3.652-.084-5.153-1.125c-1.498-1.048-2.52-2.646-2.841-4.446a6.9 6.9 0 0 1 1.128-5.153l97.8-140.186c1.052-1.504 2.657-2.529 4.464-2.85s3.667.088 5.172 1.137a6.92 6.92 0 0 1 2.832 4.447c.321 1.798-.081 3.649-1.119 5.152l-97.837 140.186zm-195.617 0a6.91 6.91 0 0 0 9.6 1.713 6.92 6.92 0 0 0 2.842-4.445 6.91 6.91 0 0 0-1.122-5.154L12.714 28.709a6.92 6.92 0 0 0-9.599-1.713 6.92 6.92 0 0 0-1.713 9.599L99.21 176.781z" fill="#afadb2"/><path d="M373.882 245.77c0 2.757-.543 5.487-1.598 8.035s-2.603 4.862-4.553 6.811a20.97 20.97 0 0 1-6.813 4.55c-2.548 1.055-5.278 1.597-8.036 1.596H24.857a20.99 20.99 0 0 1-14.844-6.148c-3.937-3.937-6.149-9.277-6.149-14.844v-61.288c.008-5.562 2.223-10.894 6.159-14.825a20.99 20.99 0 0 1 14.834-6.138h328.025c2.758-.001 5.488.541 8.036 1.596a20.97 20.97 0 0 1 6.813 4.55c1.95 1.949 3.497 4.264 4.553 6.811s1.598 5.278 1.598 8.036v61.258z" fill="#fd3e72"/><path d="M310.975 209.027H66.788c-1.481-.001-2.947.29-4.315.856a11.26 11.26 0 0 0-3.657 2.445 11.25 11.25 0 0 0-2.442 3.659 11.26 11.26 0 0 0-.854 4.315v46.461h266.724v-46.461c.001-1.48-.289-2.946-.855-4.314s-1.396-2.611-2.442-3.658a11.28 11.28 0 0 0-7.971-3.303z" fill="#e6e4df"/><g fill="#fff"><path d="M95.919 242.853a4.43 4.43 0 0 1-4.43 4.43H69.95a4.43 4.43 0 0 1-4.43-4.43 4.43 4.43 0 0 1 4.43-4.431h21.539a4.43 4.43 0 0 1 4.43 4.431z"/><use xlink:href="#C"/><path d="M151.133 242.853c0 2.451-1.293 4.43-2.888 4.43h-14.029c-1.595 0-2.88-1.986-2.88-4.43 0-2.452 1.285-4.431 2.88-4.431h14.029c1.595 0 2.888 1.987 2.888 4.431zm28.845 0c0 2.451-1.292 4.43-2.887 4.43h-14.029c-1.595 0-2.887-1.986-2.887-4.43 0-2.452 1.292-4.431 2.887-4.431h14.029c1.595 0 2.887 1.987 2.887 4.431z"/></g><g fill="#fd3e72"><use xlink:href="#C" x="126.766"/><path d="M277.867 242.853c0 2.451-1.292 4.43-2.887 4.43h-14.029c-1.595 0-2.895-1.986-2.895-4.43 0-2.452 1.3-4.431 2.895-4.431h14.029c1.595 0 2.887 1.987 2.887 4.431zm28.862 0c0 2.451-1.292 4.43-2.887 4.43h-14.03c-1.602 0-2.887-1.986-2.887-4.43 0-2.452 1.285-4.431 2.887-4.431h14.03c1.595 0 2.887 1.987 2.887 4.431z"/></g><path d="M348.035 204.456c6.032 0 10.921-4.89 10.921-10.921s-4.889-10.921-10.921-10.921-10.921 4.89-10.921 10.921 4.89 10.921 10.921 10.921z" fill="#fff"/><defs ><path id="B" d="M539.965 255.886a7.74 7.74 0 0 0 7.739-7.738 7.74 7.74 0 0 0-7.739-7.739 7.74 7.74 0 0 0-7.738 7.739 7.74 7.74 0 0 0 7.738 7.738z"/><path id="C" d="M122.252 242.853c0 2.451-1.292 4.43-2.887 4.43h-14.03c-1.595 0-2.887-1.986-2.887-4.43 0-2.452 1.292-4.431 2.887-4.431h14.03c1.595 0 2.887 1.987 2.887 4.431z"/></defs></svg>