<svg xmlns="http://www.w3.org/2000/svg" width="251" height="109" fill="none" xmlns:v="https://vecta.io/nano"><path fill="#e42c60" d="M9.257 27.852h52.931v58.525H9.257z"/><rect y="11.714" width="71.515" height="25.825" rx="5" fill="#ef4273"/><g fill="#fff"><circle cx="12.851" cy="24.516" r="4.411"/><path d="M52.715 23.548h10.973v2.152H52.715z"/></g><rect y="71.31" width="71.515" height="25.825" rx="5" fill="#fd3e72"/><g fill="#fff"><circle cx="11.726" cy="84.332" r="4.411"/><path d="M27.322 83.364h36.363v2.152H27.322z"/></g><rect y="41.512" width="71.515" height="25.825" rx="5" fill="#ffcedb"/><path d="M59.381 46.141h4.303v2.152h-4.303zm-8.385 0H55.3v2.152h-4.303zm-8.389 0h4.303v2.152h-4.303zm-8.393.001h4.303v2.152h-4.303z" fill="#fff"/><path d="M0 16.68a4.97 4.97 0 0 1 4.966-4.966v25.825A4.97 4.97 0 0 1 0 32.573V16.68z" fill="#ff628e"/><path d="M71.518 16.68a4.97 4.97 0 0 0-4.966-4.966v25.825a4.97 4.97 0 0 0 4.966-4.966V16.68z" fill="#d12657"/><path d="M71.518 46.479a4.97 4.97 0 0 0-4.966-4.966v25.825a4.97 4.97 0 0 0 4.966-4.966V46.479z" fill="#ffb9cc"/><path d="M71.518 76.276a4.97 4.97 0 0 0-4.966-4.966v25.825a4.97 4.97 0 0 0 4.966-4.966V76.276z" fill="#f12f64"/><path d="M0 46.479a4.97 4.97 0 0 1 4.966-4.966v25.825A4.97 4.97 0 0 1 0 62.371V46.479z" fill="#ffe2ea"/><path d="M0 76.276a4.97 4.97 0 0 1 4.966-4.966v25.825A4.97 4.97 0 0 1 0 92.169V76.276z" fill="#ff6690"/><path d="M82 55h53m-17 0h53" stroke="#ffcfdc"/><circle cx="79" cy="55" r="4" fill="#5b5863"/><path d="M190 26h-19v31 26h19" stroke="#ffcfdc"/><g fill="#5b5863"><circle cx="191" cy="26" r="4"/><circle cx="191" cy="83" r="4"/></g><mask id="A" mask-type="alpha" maskUnits="userSpaceOnUse" x="100" y="16" width="54" height="65"><path fill="#c4c4c4" d="M100 16.309h53.636V80.26H100z"/></mask><g mask="url(#A)"><path d="M126.698 79.847c14.747 0 26.703-11.86 26.703-26.491s-11.956-26.491-26.703-26.491-26.703 11.861-26.703 26.491 11.955 26.491 26.703 26.491z" fill="#fd3e72"/><g opacity=".8"><path d="M126.768 80.139c14.789 0 26.778-11.989 26.778-26.778s-11.989-26.777-26.778-26.777-26.777 11.989-26.777 26.777 11.988 26.778 26.777 26.778z" fill="#fff"/><path d="M149.344 66.084l-.792.151c-.113.038-.415.076-.529.191s-.151-.037-.528.075-.49.037-.264-.377.076-.529.037-.831.415-.49-.339-.528-.792-.191-1.321.113l-.943.604-.528-.302s-.604-.641-.717-.679c-.187-.028-.376-.04-.566-.037-.065-.233-.078-.478-.037-.717.076-.339-.037-.453-.264-.339l-.641.339s-.679.075-1.094.302-.453.377-1.132.302-.716.529-1.242.191-.792-.453-1.019-.717-.377-.113-.302.287.566.321.057.49-.773-.076-.68.509.113.981-.056.981-.567-.434-.264-.811.019-.585.019-.585.132-.287.321-.321.34-.453-.019-.397-.339-.113-.433.207-.171.397-.529.49-.397 0-.66.191 0 .264-.397.264-.509.113-.509.415-.132.321-.302.509l-.339.377a.47.47 0 0 0-.132.302c-.019.075-.17.113-.264.075s-.227-.207-.566-.434-.566-.321-.962-.321-.736.811-1.283.547-.49-.321-.811-.528-.226-.246-.287-.528-.17-.321-.019-.547.17-.377.151-.849.34-1.113 0-1.302.397-.227-.679-.264-.868-.264-1.585-.151l-1.32.191c-.208-.016-.529-.096-.151-.434s.509-.113.49-.547-.17-.773.056-.641.378-.076.529-.264-.246-.585.151-.905.736-.509.132-.509-.113-.287-.905-.207-.773.037-.812.287-.604-.227-.339.377.287.905.037.943a4.7 4.7 0 0 0-.641.096c-.585.113-.943.529-1.094.246s.096-.358-.339-.358-.49.17-.641-.415-.793-1.113-.51-1.113.246-.302.113-.622-.096-.755-.096-1.094-.019-.924.227-.717.264.075.264-.287-.302-.604-.076-.924-.019-.302.471-.49.34-.207.831-.227.472.076.66-.132.019-.604.264-.397.113.151.622.113.792.17.849-.217-.151-.424.452-.463l1.147-.056c.26.019.287-.17.339.151s.359.191.585.151.246-.339.453-.151.661.396.755.622.191.321.096.679-.287.49-.057.679.34.096.359.377.245.529.264.66.321.227.414.191.49-.358.208-1.358-.113-1.038-.246-1.584-.226-.604.113-1.094.415-.66.811-.849.529-.302.831-.755.584-.604.962-.773.056-.217.066-.405.254-.095.415-.198.286-.132.197-.287-.302.037-.273-.085.424-.339.321-.453-.245-.161-.443-.056-.405.037-.321-.085.217.066.179-.312-.292-.849-.17-1.051.161-.382.18.191-.057 1.16.207.99.49-.312.349-.651-.358-.519-.096-.405.208.49.406.264.472-.472.302-.66-.038-.405-.029-.529-.198-.292.113-.302.594.17.736-.096.263-.339.056-.312-.443.207-.573.17.236-.236.546-.292.019-.141.321-.151.661.075.669-.122-.273-.415-.382-.349-.191 0-.18-.18.227-.287.312-.5.453-.561.556-.625.478.157.55-.117.088-.382.139-.403.191.07.277-.102.209-.551.234-.287-.063.313.172.112.323-.452.337-.287.095.277.191.163.085.167-.054.191-.399-.287-.375.019-.106.096-.136.357-.03.83.297.553.273-.478.501-.65a4.66 4.66 0 0 1 .593-.345l.349-.426s.259-.164-.038-.164-.205-.051-.437.027-.343.056-.467-.055-.096-.149-.363-.136-.309.06-.436-.346.287-.377-.127-.405-.378-.01-.622.071-.339.014-.18-.118.359-.066.574-.17.564-.066.353-.321c-.152-.163-.354-.272-.573-.312l-.831.349-.509.456-.434.573c-.16.213-.424.395-.273.131s.358-.688.573-.914c.179-.173.368-.336.566-.487.198-.173.179-.607.462-.654s.552-.019 1.052-.076 1.078-.096 1.256-.191.203-.251.273-.427.075-.144.355-.21.28-.393.28-.556-.303-.227-.353-.441.019-.39-.141-.277-.109.39-.197.277.139-.427-.176-.352-.163-.037-.465.314-.485.287-.299 0 .573-.457.701-.517-.239-.136-.629-.199c-.272-.04-.528-.153-.741-.328-.088-.062-.194-.093-.302-.088-.037 0-.1-.139-.49-.503l-1.147-1.119c-.254-.276-.302-.692-.365-.302s.151.578-.1.717-.154.214-.398.287-.159.025-.365-.051-.42.088-.432-.075.415.063.037-.302-.156-.156-.147-.435-.528-.314-.843-.39-.151-.239-.578-.264c-.272-.014-.543-.051-.809-.113l-.838-.163s-.277-.352-.287.076l-.012.641c0 .176.208.437.208.437s.266-.191.323-.037-.453.236-.585.33-.198.029.085.254.529.287.594.424l.18.397s.293.207.142.227-.123.066-.33.349c-.177.242-.419.428-.698.538-.207.076-.236.096-.16.358s.302.227.349.472-.087.096.095.419l.182.323s-.191-.184-.078.079.096.471-.056.226-.076-.321-.207-.191-.151.151-.038.33.246.49.113.311-.141-.382-.349-.292-.349.267-.443.247.009-.266.009-.266l.18-.368-.292-.236s-.436.122-.279-.066-.108-.246-.192-.246-.358-.207-.141-.207.244.019.334-.132-.069-.349-.135-.472.066-.415-.217-.415-.765.076-.86.01-.246-.227-.463-.287-.5.029-.604.037-.037-.158-.112-.253-.349-.181-.425-.191l-.198-.029a.33.33 0 0 1-.142-.127c-.034-.055-.051-.12-.049-.185 0-.236-.16-.453-.302-.321-.093.09-.181.186-.263.287 0 0-.293-.397-.255-.566s.198-.085.198-.287.019-.019.18-.273.179-.49.453-.453.453.085.472-.287.056-.783.287-.934.037.019.329-.191.49-.312.302-.368-.311.066-.453-.066-.382-.236-.066-.207.472.226.622.18a.96.96 0 0 0 .397-.339c.037-.075.085.037.17-.066s.019-.198.236-.096.302.132.312-.047.226-.236.226-.382-.179-.047-.245-.302-.151-.462-.255-.528-.245-.217-.396-.104-.236.122-.208.273c.014.106-.003.214-.046.312a1.86 1.86 0 0 0-.255.227c-.179.179-.151.547-.302.132s-.112-.566-.263-.604c-.087-.036-.184-.039-.274-.009-.132.029-.141.019-.339 0s-.273-.132-.292.009-.01.287.066.302-.019.057-.246.17c-.113.053-.22.117-.321.191 0 0 .264.151.104.236s-.132.132-.217.085-.254-.132-.179-.287a.89.89 0 0 1 .122-.226c.113-.17.254-.246.264-.293s-.105-.18-.287-.287-.302-.287-.443-.161c-.113.084-.22.176-.322.273-.037.056.198.037.287.066s.151.217.151.217c-.004.032-.017.061-.037.086s-.046.044-.076.055c-.104.038-.263.113-.263.113s.217.18-.264-.019-.641-.349-1.051-.556-.425-.405-.538-.207.104.236-.217.287-.359.019-.434.141c-.053.101-.088.209-.104.321l-.019.17s-.113.17-.151.18a.37.37 0 0 1-.192-.056c-.037-.029.066-.246.066-.292a1.54 1.54 0 0 0-.141-.287s-.132-.236-.302-.198c-.15.028-.301.046-.453.056 0 0-.462-.151-.434-.217s.287-.066.264-.113.075-.1-.227-.135-.764-.158-.764-.382-.179-.254-.443-.246-.01-.236-.322-.132-.462-.026-.462-.026.113-.125-.349-.116-.311.029-.519.104-.217.018-.236-.104-.226-.16-.368-.142c-.094.017-.182.059-.254.122-.014-.135-.055-.265-.122-.382-.123-.246.037-.18-.236-.264s-.566-.217-.378-.321.519-.312.293-.471-.18-.191-.557-.104-.499-.075-.631.104.019.16-.382.311-.312.066-.5.33-.198.349-.254.246.037-.397.217-.604c.113-.144.213-.298.298-.46l-1.046.551c-.087.066-.145.163-.164.27-.051.365.191.532-.088.587s-.365.256-.516.268-.051-.113-.415-.139c-.18-.012-.272-.05-.376-.051l-1.638 1.147c.286.35.26.613.26.613l-.695.467-.923.262s.321.274.888.137.905-.799.886-.534-.339.39-.509.573.585-.063.736-.252.321-.887.528-.736a.66.66 0 0 1 .246.397l-.321.321.472.232.697.372s.038 0 0 .207-.163.251-.1.334.056.075-.06.264c-.108.157-.205.321-.292.49-.025.082.131.132.182 0l.139-.321s.239-.434.295-.382c.045.054.079.116.1.183l-.191.459-.044.232c-.025.113.013.139-.05.191s-.202-.176-.064.051.088.227 0 .327-.183.126-.072.227.261-.151.324-.075.138.012.1.163.159.239.011.327-.357-.126-.435-.1-.116.017-.142.122-.112.155 0 .23-.024.176-.037.251.669-.214.415 0-.302.226-.378.427-.214.377-.05.377.286-.227.39-.227.033.113-.09.227-.338-.012-.413.151a.63.63 0 0 1-.227.277c-.112.1-.1.126.051.251s.533-.051.478 0-.12.051-.191.132-.151.198-.015.176c.105-.008.205-.044.292-.104.063-.053.261-.17.154-.044s-.186.088-.17.191.056.032.044.132-.013.163.037.191c.036.005.073 0 .107-.015s.063-.038.084-.068c.025-.051.151-.075.088.025s-.191.176-.132.277l.113.183-.082.202-.025.346a2.91 2.91 0 0 1-.164.489c-.087.176-.226.565-.226.565h-.176l.037-.646s-.063-.382-.1-.423-.126-.074-.191.052c-.043.092-.077.188-.1.287.007.085-.011.17-.051.246-.05.1-.084.208-.1.319 0 0-.252.109-.403.499s-.249.388-.326.715.05.515-.252.703-.352.075-.44.427.05.378-.113.692-.264.314-.287.578-.128.523-.127.739-.164.393 0 .544.076.139.164.151.063-.1.239 0 .315-.037.176.1l-.191.202s-.088-.1-.126.075-.202.162-.176.25c.045.089.104.17.176.24 0 0-.302.025-.151.327s.126.239.126.478a1.22 1.22 0 0 0 .063.402l.214.36.191.243s-.163.012.126.214.264-.191.34.264c.044.211.061.426.051.641l.204.264c.053.153.073.316.059.478v.506c0 .39 0 .478.151.742s.49.39.553.541c.044.151.065.308.063.465 0 0 .013.113.051.302s-.025.139-.191-.051-.302.025-.302.025c-.007.06.001.122.023.179a.39.39 0 0 0 .103.148l.441.465s.1-.075.175.251.157.239.154.503-.103.604.324.956.202.202.378.604a1.89 1.89 0 0 0 .553.77c.176.136.704.695.378 0s-.498-.655-.64-.889.011-.485-.191-1.114-.528-1.255-.604-1.696-.05-.89-.377-1.634-.529-1.172-.227-.971.68-.151.705.277l.05 1.069s0 .113.277.764.453.679.578.805.227.529.227.529.553.227.553.427-.226.1 0 .529-.075.075.227.427a4.58 4.58 0 0 1 .502.729l.783.988c.011.177.063.349.151.503.151.277.412.254.242.462s-.397.264-.287.33.142.104.056.18.211.382.337.764.302.415.541.641c.161.133.29.3.377.49.151.264-.037.063.453.239s.692.427.805.503.346.126 1.157.541 1.038.622 1.433.755.453.302.755.227.453-.246.642-.151.075.32.339.169.302-.126.377.051.566.497.566.497-.377.17.246.547c.573.345 1.12.625 1.326.573.008.034.065.086.201.165.585.339.755.566.906.736s.263.529.245.641.038.264.246.358.49.037.717.191-.057.207.358.397c.202.102.418.172.641.207l.227-.096.604.096s.263.151.286.264-.132.207.096.302c.059.029.123.044.189.044s.13-.015.188-.044c0 0 .585-.096.471-.302s-.528-.17-.226-.358l.566-.339c.132-.075.191-.132.414.096s.359-.037.227.227-.141.339.053.358c.118.013.231.059.324.132 0 0 .246.102.246.23s-.191.09-.17.26-.264.113-.132.287-.113.246-.019.434-.191.207.019.472.076.49-.302.604-.226-.191-.434.207-.151.415-.327.465c-.234.087-.461.192-.679.314-.302.151-.264-.151-.415.287s0 .441-.302.692-.251.541-.251.541 1.147-.138.692.151-.466.339-.578.465c-.074.083-.141.171-.202.264l-.202.365-.05.427s.1-.088.44.138.415.239.466.314a3.51 3.51 0 0 0 .616.817c.217.231.45.445.698.641.17.132.339.076.321.302s-.038.132.396.264.717.264 1.019.264 1 .113 1.207.113.339-.019.207.132-.377.717-.697 1.038-.415.509-.868.66l-1 .377c-.282.091-.47.506-.471.509a26.81 26.81 0 0 0 11.107-4.856 26.82 26.82 0 0 0 7.834-9.251l-.549.074-.792.595zm-13.349-28.372c.095-.051.22.063.314.139a.32.32 0 0 0 .198.094c.075.007.15-.013.211-.056.191-.113.308-.044.497.037s-.025.17-.27.264-.044.088-.264.088-.069.12-.139.214-.245-.191-.502-.402-.247-.269-.045-.377zm-9.461 4.263c.736-.246.566-.424 1-.09s.641.13.697.468.547.626.547.626l.679.128 1.019.213s.309.107.378.345.286.336-.132.332a3.63 3.63 0 0 1-.924-.173s-.105.096-.091.509.203.339-.079.585-.944.453-.434.434.905-.287 1.131-.132.376-.191.603-.207-.037-.172.246-.382.311-.357.731-.319.344-.096.74-.096.717.337.192.414-.604-.018-1.019.152-.415-.096-.509.287.263.321-.246.509-.227.048-.811.137-.453.127-.924.09-.868-.037-.642-.397.812-.226.68-.641-.321-.358-.585-.264.122-.352.127-.506-.146-.35-.429-.403-.287-.315-.529.071-.245.11-.339.332-.151-.025-.151.637.132 1.067-.434 1.185-.622-.809-.377-1.185.471-.652.17-.637.019-.538.358-.601.491-.033.773-.076.51-.006.547-.08-.302-.471-.641-.405-.076.096-.509.145-.849-.023-.736-.145.215-.122-.096-.236.023-.624.023-.624h-.004zm-2.647-2.9c.214-.032.025-.168.063-.382s.239-.113.68-.1c0 0 .075.151-.126.202s-.101.088-.151.214-.051.126-.064.39-.024.314.139.528.088.214.151.637-.191.219-.453.282 0 0-.014-.214.076-.352-.074-.647-.239-.107-.264-.321.076-.214-.106-.39.009-.164.223-.197l-.004-.001zm-.669.008s.214.314.063.443-.112.261.088.361.239.063.164.251.063.251.126.578-.287.139-.287-.156-.113-.221-.302-.372-.176-.227-.135-.377.072-.227-.179-.478-.035-.276.468-.25l-.006-.001zm-.874-2.144c.028-.349-.049-.28.303-.227.123.019.235.113.121.463s-.17.132-.478.312.032-.199.061-.547l-.007-.001zm-6.574 8.489c-.16.368-.18.17-.547.198s0-.191 0-.688-.047-.336.471-.358c.224-.009.242.482.083.849l-.007-.001zm2.562-12.631s.151-.047.538-.132.066-.056-.163-.16-.176-.029-.669-.096.358-.085.848-.104.134-.02.632.056c.191.031-.019.198.254.292s0 .066 0 .217-.104.18-.339.029-.191 0-.264.066-.382.302-.382.302c-.211-.071-.415-.161-.609-.269-.242-.15.154-.201.154-.201zm2.58 1.509c-.141.01-.217.113-.396.302s-.287.191-.491.191-.245.037-.726.17-.329.056-.585-.113-.302-.18-.329-.264.382.019.519-.066c.112-.085.213-.183.302-.292 0 0-.096-.287.17-.358.119-.034.085.122.17.321s.17.292.478.26.358-.191.792-.241.243.083.101.093l-.005-.003zm4.97 30.037c.15-.125.349-.263.366-.11.017.093-.219.088-.36.113l-.006-.003z" fill="#fea4bc"/><path d="M140.464 39.39c-.144.059-.191.151-.207.312a1.31 1.31 0 0 1-.076.302l-.075.226a.3.3 0 0 1 .051.117c.008.042.007.086-.005.128-.029.088-.045.18-.046.273 0 0-.144.024-.172.096s-.286-.111-.068.135.182.168.135.287.038.273.18.226-.114-.152.41-.096.59-.23.637-.108.068.132.138.037.371-.236.226-.047-.418.382-.226.42.494-.073.438-.303 0-.478.085-.23-.01.453.191.434.228.049.339.108.321.071.18-.203-.047-.622-.198-.471-.321.198-.397-.037-.056-.246-.207-.377.103-.368-.204-.378-.334.246-.522.132-.191-.33-.325-.17-.241.339-.307.198-.198-.1-.104-.295.289-.781.129-.717zm-7.677 15.715c-.083.064-.08.261 0 .377s.158.079.202.176c.051.113-.049.191 0 .327.027.076.096.165.163.163.106 0 .173-.214.202-.302a.63.63 0 0 0 .037-.402c-.091-.273-.477-.436-.604-.339zm-.732.39c.027-.013.057-.02.087-.022a.22.22 0 0 1 .088.014.23.23 0 0 1 .076.047.22.22 0 0 1 .051.073c.021.05.022.107.003.158a.22.22 0 0 1-.103.119c-.039.019-.083.025-.125.019s-.083-.026-.114-.056c-.023-.025-.04-.054-.051-.086s-.015-.066-.011-.099.014-.066.031-.095a.24.24 0 0 1 .068-.073zm.58.892c.056 0 .095.077.151.202.088.185.151.314.087.427-.033.06-.088.105-.152.128a.29.29 0 0 1-.199-.002c-.131-.067-.127-.26-.126-.327.003-.21.133-.437.239-.428z" fill="#fd3e72"/><path d="M133.512 56.175c-.123.009-.249.12-.239.202s.186.085.251.239c.033.075.006.114.051.163.03.032.07.053.113.059s.088-.001.126-.022c.084-.057.069-.191.063-.239-.026-.184-.176-.416-.365-.402zm.219 1.085a.19.19 0 0 0-.07.102c-.012.041-.009.085.007.124.031.087.128.165.214.139.043-.024.075-.062.092-.108s.014-.097-.004-.142-.054-.082-.098-.103-.094-.026-.141-.012zm.651.071c-.09.038-.095.217-.088.287a.39.39 0 0 0 .047.17.38.38 0 0 0 .117.132c.019.011.146.084.239.025s.078-.232.075-.251c-.03-.218-.273-.412-.39-.362zm1.096 1.32c-.157.029-.317.178-.287.314.021.105.142.155.163.163.067.027.142.032.212.014s.133-.058.178-.115a.27.27 0 0 0 .058-.133c.007-.049-.001-.099-.021-.144-.066-.111-.218-.116-.303-.1zm-7.691.529c-.042-.181.617-.528 1.182-.704a4.56 4.56 0 0 1 1.66-.176 6.87 6.87 0 0 1 1.283.203l1.158.327a.89.89 0 0 0 .302.1c.224.028.313-.063.453 0 .119.054.084.134.226.251a.94.94 0 0 0 .503.176c.257.031.353-.029.427.051.035.052.053.113.053.176s-.018.124-.053.176c-.116.185-.398.191-.654.202-1.138.061-1.611.337-1.76.1-.11-.175.073-.444-.051-.529-.107-.073-.265.12-.453.051-.162-.06-.129-.236-.301-.352-.096-.067-.167-.045-.629-.025-.519.023-.635 0-.755-.051s-.096-.077-.277-.176-.514-.235-.579-.151c-.045.059.068.184.025.227s-.246-.163-.502-.151c-.115.006-.113.052-.453.227s-.462.191-.554.176c-.024-.005-.229-.033-.251-.127zm7.614.469c.109-.156.39.012.905-.037.366-.035.392-.136.849-.17a1.36 1.36 0 0 1 .546.037c.21.07.207.144.473.264.302.137.477.116.509.226.026.086-.049.2-.132.264-.246.191-.518-.096-.98.056-.133.042-.153.079-.34.132-.228.065-.318.044-.396.132-.064.072-.031.115-.113.287-.062.127-.096.191-.151.227-.178.111-.375-.169-.792-.17-.205 0-.248.066-.397.019-.225-.072-.382-.307-.339-.377s.323.115.566 0c.191-.096.334-.312.286-.415-.06-.12-.346 0-.471-.17a.28.28 0 0 1-.057-.148.28.28 0 0 1 .034-.155z" fill="#fd3e72"/><path d="M132.984 28.696c-.31.053-.512.008-.943.096a.61.61 0 0 0-.377.191c-.067.082-.049.125-.113.191-.153.149-.382.041-.434.132s.181.32.321.453c.166.158.249.236.339.264.277.086.422-.146.793-.113a1.26 1.26 0 0 1 .396.132 4.67 4.67 0 0 1 .773.453c.757.5.838.559 1 .547.127-.02.257-.007.377.037.024.01.232.096.227.207s-.258.143-.264.264c0 .096.148.176.246.227s.211.111.321.075.134-.157.207-.151c.051 0 .079.062.191.287l.132.264a1.52 1.52 0 0 0 .246.396c.122.12.178.096.339.227.093.085.176.181.246.287.286.355.712.523.735.49s-.165-.171-.151-.191.296.18.717.472c.601.418.711.478.887.528.265.074.274 0 .547.096.235.078.387.183.679.227a.89.89 0 0 0 .264 0c.105-.015.238-.035.286-.113.063-.107-.063-.287-.17-.434-.293-.408-.491-.413-.679-.755-.108-.191-.063-.23-.17-.358-.191-.227-.418-.225-.453-.397-.015-.075.021-.144.095-.287.153-.287.287-.302.287-.415 0-.145-.259-.287-.773-.566-.198-.107-.265-.134-.321-.227-.111-.183.006-.315-.076-.585-.049-.164-.185-.422-.358-.434-.047 0-.077.013-.472.264-.13.082-.18.115-.226.096-.081-.035-.108-.209-.057-.339.063-.16.218-.183.207-.245s-.237-.081-.679-.17c-.319-.064-.419-.104-.453-.191-.043-.104.056-.174.019-.302-.033-.113-.14-.165-.339-.264-.223-.11-.391-.191-.585-.151-.148.032-.159.104-.264.096-.15-.014-.191-.169-.377-.321a1.16 1.16 0 0 0-.434-.207c-.325-.095-.671-.102-1-.019-.422.08-.345.176-.709.238z" fill="#fff"/><g style="mix-blend-mode:multiply" opacity=".31"><path d="M144.048 32.662a26.67 26.67 0 0 1 6.267 17.21c0 14.789-11.99 26.777-26.778 26.777-6.297.008-12.393-2.212-17.21-6.268 2.51 3.002 5.649 5.416 9.195 7.071a26.72 26.72 0 0 0 11.325 2.508c14.789 0 26.777-11.989 26.777-26.778a26.71 26.71 0 0 0-9.576-20.519z" fill="#e5dcba"/></g><g style="mix-blend-mode:overlay" opacity=".21"><path d="M102.248 55.485c0-14.789 11.989-26.777 26.777-26.777 6.553-.009 12.88 2.393 17.775 6.751-2.51-2.834-5.593-5.103-9.046-6.656s-7.196-2.353-10.981-2.349c-14.789 0-26.778 11.989-26.778 26.778a26.7 26.7 0 0 0 2.35 10.982A26.71 26.71 0 0 0 109 73.257c-4.357-4.894-6.761-11.22-6.752-17.773z" fill="#fff"/></g><path d="M135.583 29.868l-.244-.518m-17.38 22.909l.036.573m0-.002l.45-.355m22.9 19.703l-.037.573" stroke="#fff" stroke-width="2" stroke-miterlimit="10"/></g></g><path d="M244.981 7.376h-40.212a2.42 2.42 0 0 0-2.417 2.418v31.318h45.047V9.794a2.42 2.42 0 0 0-2.418-2.418z" fill="#5b5863"/><path d="M247.187 44.624h-44.374c-2.106 0-3.813-1.707-3.813-3.813v-1.758h52v1.758c0 2.106-1.707 3.813-3.813 3.813z" fill="#fd3e72"/><path d="M244.427 10.348h-39.104v25.734h39.104V10.348z" fill="#ffb1c7"/><path d="M244.427 10.348v25.734h-17.145l-6.698-25.734h23.843z" fill="#ffdce5"/><path d="M228.607 41.838h-7.217c-1.127 0-2.042-.914-2.042-2.042v-.744h11.302v.744c0 1.128-.915 2.042-2.043 2.042z" fill="#f2f2f2"/><path d="M244.981 64.376h-40.212a2.42 2.42 0 0 0-2.417 2.417v31.318h45.047V66.794a2.42 2.42 0 0 0-2.418-2.417z" fill="#5b5863"/><path d="M247.187 101.624h-44.374c-2.106 0-3.813-1.708-3.813-3.814v-1.758h52v1.758c0 2.106-1.707 3.814-3.813 3.814z" fill="#fd3e72"/><path d="M244.427 67.348h-39.104v25.734h39.104V67.348z" fill="#ffb1c7"/><path d="M244.427 67.348v25.734h-17.145l-6.698-25.734h23.843z" fill="#ffdce5"/><path d="M228.607 98.838h-7.217c-1.127 0-2.042-.914-2.042-2.042v-.743h11.302v.743c0 1.128-.915 2.042-2.043 2.042z" fill="#f2f2f2"/></svg>