<svg width="500" height="500" viewBox="0 0 500 500" fill="none" xmlns="http://www.w3.org/2000/svg">
<circle cx="250" cy="250" r="250" fill="#FFEEF3"/>
<path d="M250 435C352.173 435 435 352.173 435 250C435 147.827 352.173 65 250 65C147.827 65 65 147.827 65 250C65 352.173 147.827 435 250 435Z" fill="#FFDFE6"/>
<path d="M211.84 197.062C211.84 196.717 212.119 196.437 212.465 196.437H218.09C218.435 196.437 218.715 196.717 218.715 197.062C218.715 197.407 218.435 197.687 218.09 197.687H213.09V202.687C213.09 203.032 212.81 203.312 212.465 203.312C212.119 203.312 211.84 203.032 211.84 202.687V197.062ZM236.831 220.545C237.075 220.789 237.075 221.184 236.831 221.429C236.587 221.673 236.192 221.673 235.947 221.429L236.831 220.545ZM233.954 219.435C233.71 219.191 233.71 218.795 233.954 218.551C234.198 218.307 234.594 218.307 234.838 218.551L233.954 219.435ZM230.85 214.563C231.094 214.808 231.094 215.203 230.85 215.447C230.606 215.691 230.21 215.691 229.966 215.447L230.85 214.563ZM225.979 211.46C225.735 211.216 225.735 210.82 225.979 210.576C226.223 210.332 226.619 210.332 226.863 210.576L225.979 211.46ZM222.875 206.588C223.119 206.833 223.119 207.228 222.875 207.472C222.631 207.716 222.235 207.716 221.991 207.472L222.875 206.588ZM218.004 203.485C217.76 203.241 217.76 202.845 218.004 202.601C218.248 202.357 218.644 202.357 218.888 202.601L218.004 203.485ZM214.9 198.614C215.144 198.858 215.144 199.253 214.9 199.497C214.656 199.742 214.26 199.742 214.016 199.497L214.9 198.614ZM235.947 221.429L233.954 219.435L234.838 218.551L236.831 220.545L235.947 221.429ZM229.966 215.447L225.979 211.46L226.863 210.576L230.85 214.563L229.966 215.447ZM221.991 207.472L218.004 203.485L218.888 202.601L222.875 206.588L221.991 207.472ZM214.016 199.497L212.023 197.504L212.907 196.62L214.9 198.614L214.016 199.497Z" fill="#FD3E72"/>
<path d="M285.383 267.999C285.676 268.292 285.676 268.767 285.383 269.06C285.09 269.353 284.615 269.353 284.322 269.06L285.383 267.999ZM264.078 248.816C263.785 248.523 263.785 248.048 264.078 247.755C264.371 247.462 264.846 247.462 265.139 247.755L264.078 248.816ZM281.792 266.529C281.499 266.236 281.499 265.762 281.792 265.469C282.084 265.176 282.559 265.176 282.852 265.469L281.792 266.529ZM277.791 260.408C278.084 260.701 278.084 261.175 277.791 261.468C277.498 261.761 277.023 261.761 276.731 261.468L277.791 260.408ZM271.67 256.407C271.377 256.114 271.377 255.639 271.67 255.347C271.962 255.054 272.437 255.054 272.73 255.347L271.67 256.407ZM267.669 250.286C267.962 250.578 267.962 251.053 267.669 251.346C267.376 251.639 266.901 251.639 266.609 251.346L267.669 250.286ZM284.322 269.06L281.792 266.529L282.852 265.469L285.383 267.999L284.322 269.06ZM276.731 261.468L271.67 256.407L272.73 255.347L277.791 260.408L276.731 261.468ZM266.609 251.346L264.078 248.816L265.139 247.755L267.669 250.286L266.609 251.346Z" fill="#5B5863"/>
<path d="M445.024 448.467L459.799 483.504L470.208 483.411L465.574 448.439L445.024 448.467Z" fill="#5E4C18"/>
<path d="M388.418 448.578L402.998 483.458L413.407 483.365L408.856 448.541L388.418 448.578Z" fill="#5E4C18"/>
<path d="M469.319 238.337C463.6 229.763 350.823 228.512 345.993 237.41L304.792 315.724L242.819 312.879C242.819 312.879 234.477 312.48 226.33 320.294C222.307 324.141 222.511 348.398 223.642 357.778C224.402 364.016 233.902 448.884 233.902 448.884L467.4 448.411C467.4 448.411 475.028 246.892 469.319 238.337Z" fill="#AA8C30"/>
<path d="M401.182 450.636C401.182 450.636 401.182 450.386 401.182 449.894C401.182 449.403 401.182 448.652 401.117 447.707C401.061 445.77 400.996 442.943 400.913 439.365C400.755 432.088 400.542 421.605 400.273 408.777L400.468 408.962L329.55 409.472L256.083 409.87L256.269 409.722C254.691 419.183 254.252 428.798 254.962 438.364C255.212 441.765 255.536 444.388 255.768 446.168C255.898 447.049 255.991 447.725 256.056 448.198C256.12 448.671 256.139 448.893 256.139 448.893C255.475 445.419 255.014 441.91 254.758 438.382C253.963 428.793 254.346 419.143 255.898 409.648V409.49H256.056L329.532 408.962L400.44 408.573H400.635V408.758C400.839 421.605 400.996 432.079 401.107 439.346C401.154 442.97 401.182 445.788 401.209 447.688C401.209 448.615 401.209 449.366 401.209 449.876C401.209 450.386 401.182 450.636 401.182 450.636Z" fill="#937721"/>
<path d="M394.026 319.191H394.536C395.003 319.181 395.471 319.206 395.935 319.265C397.748 319.468 399.504 320.019 401.107 320.887C403.677 322.287 405.896 324.252 407.596 326.634C409.868 329.857 411.383 333.552 412.026 337.442C412.8 342.215 413.11 347.051 412.953 351.883C412.953 357.12 412.768 362.774 412.416 368.781C411.721 380.831 410.237 394.197 408.634 408.638V408.842H408.439L349.395 409.25L242.31 409.871H242.143V409.694C241.69 402.571 242.041 395.42 243.19 388.376C244.284 382.202 246.147 376.975 248.752 373.341C249.86 371.709 251.27 370.303 252.904 369.198L253.423 368.836L253.961 368.558L254.971 368.039C255.648 367.807 256.25 367.548 256.825 367.409L258.327 367.084C258.771 367.029 259.142 367.02 259.439 366.992H260.366C260.366 366.992 260.069 366.992 259.439 367.094C259.142 367.094 258.771 367.149 258.336 367.214L256.844 367.548C256.278 367.696 255.685 367.965 254.99 368.206L254.007 368.734L253.479 369.012L252.969 369.374C251.358 370.479 249.974 371.883 248.891 373.508C246.351 377.114 244.525 382.314 243.468 388.477C242.355 395.485 242.028 402.596 242.495 409.676L242.31 409.509L349.395 408.749L408.439 408.387L408.208 408.591C409.83 394.141 411.35 380.784 412.073 368.734C412.434 362.737 412.629 357.092 412.647 351.846C412.794 347.035 412.483 342.222 411.721 337.47C411.099 333.612 409.616 329.943 407.383 326.736C405.712 324.391 403.54 322.447 401.024 321.045C399.437 320.173 397.702 319.605 395.907 319.367C394.665 319.191 394.017 319.256 394.026 319.191Z" fill="#937721"/>
<path d="M237.332 448.893L233.949 483.411L244.358 483.319L257.39 448.847L237.332 448.893Z" fill="#5E4C18"/>
<path d="M256.779 367.483C257.125 367.484 257.47 367.447 257.808 367.372L260.588 366.908C262.943 366.51 266.15 365.935 269.792 365.546C272.872 365.227 275.966 365.079 279.062 365.101H281.842C282.187 365.146 282.536 365.146 282.88 365.101C282.544 365.013 282.199 364.963 281.852 364.953C281.184 364.878 280.22 364.823 279.024 364.767C275.91 364.638 272.79 364.737 269.69 365.064C266.057 365.453 262.804 366.083 260.468 366.565C259.3 366.816 258.354 367.029 257.687 367.186C257.373 367.246 257.068 367.346 256.779 367.483Z" fill="#937721"/>
<path d="M240.326 313.046C240.326 313.092 241.077 313.426 242.393 314.158C244.252 315.203 245.979 316.466 247.537 317.921C249.848 320.093 251.828 322.591 253.414 325.337C255.358 328.685 256.824 332.288 257.77 336.042C259.735 344.07 259.624 351.642 259.485 357.028C259.411 359.744 259.3 361.931 259.244 363.442C259.244 364.165 259.198 364.74 259.179 365.194C259.157 365.397 259.157 365.602 259.179 365.806C259.23 365.605 259.258 365.4 259.263 365.194C259.309 364.749 259.355 364.174 259.42 363.46C259.541 361.95 259.698 359.753 259.819 357.046C259.939 354.34 260.013 351.095 259.819 347.499C259.673 343.582 259.142 339.689 258.234 335.876C257.28 332.076 255.784 328.433 253.794 325.059C252.168 322.299 250.137 319.799 247.769 317.643C246.175 316.186 244.399 314.939 242.486 313.936C241.828 313.565 241.253 313.38 240.891 313.203C240.706 313.139 240.518 313.086 240.326 313.046Z" fill="#937721"/>
<g opacity="0.3">
<path opacity="0.3" d="M362.391 377.957C355.355 379.603 348.136 380.325 340.914 380.108C340.378 402.661 338.428 425.158 335.075 447.466C333.323 448.383 331.408 448.947 329.439 449.125C327.465 449.181 325.333 448.282 324.517 446.484C324.12 445.374 323.983 444.188 324.119 443.017C325.094 420.558 327.406 398.177 331.043 375.992C331.311 374.342 331.691 372.526 333.072 371.589C334.454 370.653 336.131 370.941 337.707 371.237C346.414 372.862 355.031 374.874 363.558 377.271" fill="black"/>
</g>
<g opacity="0.3">
<path opacity="0.3" d="M372.679 376.076L370.501 406.923C370.501 406.923 363.206 390.239 365.079 383.852C365.591 382.023 366.556 380.351 367.885 378.992C369.213 377.633 370.862 376.63 372.679 376.076Z" fill="black"/>
</g>
<path d="M374.542 253.381L376.711 180.424L379.066 176.225C381.142 174.371 384.507 174.714 386.75 176.327C388.993 177.94 390.309 180.554 391.208 183.168C395.546 195.718 392.135 209.51 393.062 222.756C393.257 225.629 393.711 228.614 395.379 230.959C397.65 234.148 401.868 235.714 403.592 239.218C404.33 240.827 404.477 242.645 404.008 244.352C403.538 246.059 402.482 247.546 401.024 248.552C403.147 249.794 405.343 251.091 406.762 253.103C408.18 255.114 408.56 258.071 407.003 259.971C405.306 262.029 402.22 262.057 399.587 261.825C392.074 261.175 384.652 259.715 377.453 257.469C376.523 257.273 375.683 256.778 375.061 256.06C374.61 255.244 374.428 254.306 374.542 253.381Z" fill="#4B4951"/>
<path d="M390.022 240.821C389.253 240.522 388.562 240.053 388.001 239.449C386.907 238.281 386.082 236.02 385.841 233.174C385.325 225.702 385.359 218.201 385.943 210.734C386.286 206.359 386.805 202.206 387.398 198.452C387.992 194.698 388.325 191.167 387.519 188.33C386.957 186.07 385.618 184.078 383.737 182.704C383.22 182.357 382.659 182.08 382.069 181.879C381.86 181.814 381.646 181.764 381.429 181.731C382.896 182.236 384.203 183.122 385.216 184.298C386.229 185.474 386.912 186.897 387.195 188.423C387.936 191.204 387.602 194.643 386.963 198.378C386.323 202.113 385.804 206.303 385.47 210.697C384.865 218.189 384.865 225.719 385.47 233.211C385.767 236.094 386.657 238.402 387.834 239.579C388.274 240.03 388.796 240.392 389.373 240.645C389.58 240.732 389.799 240.791 390.022 240.821Z" fill="#455A64"/>
<path d="M373.43 180.099C373.643 181.119 372.929 179.237 373.43 180.099V180.099Z" fill="#FF725E"/>
<path d="M374.246 176.012C375.08 175.131 376.387 175.502 377.351 176.197C379.067 177.57 380.354 179.407 381.058 181.49C381.841 183.717 382.339 186.034 382.541 188.386C382.69 189.748 382.69 191.389 381.809 192.177C381.495 192.429 381.104 192.566 380.702 192.566C380.299 192.566 379.908 192.429 379.594 192.177C378.904 191.614 378.337 190.917 377.925 190.128C376.047 186.978 374.53 183.626 373.402 180.136C373.217 179.07 373.597 176.688 374.246 176.012Z" fill="#FD3E72"/>
<path d="M381.114 194.253C379.26 186.347 375.923 178.264 369.37 173.453C363.531 169.18 355.012 167.549 347.792 168.087C344.232 168.346 340.265 170.126 337.225 171.98C333.045 174.529 331.404 179.469 329.495 183.965C325.676 192.983 326.593 204.996 329.495 208.25L367.257 226.649C373.745 223.015 380.715 218.121 382.217 210.891C383.237 205.923 382.273 199.166 381.114 194.253Z" fill="#4B4951"/>
<path d="M366.812 180.22L343.222 174.084C335.668 173.24 330.57 182.519 330.041 190.11C329.448 198.545 329.059 208.861 330.041 215.137C331.96 227.807 341.665 230.82 341.665 230.82C341.665 230.82 341.665 241.822 341.73 245.586L352.732 279.103L368.378 245.586L370.77 184.79C370.805 183.67 370.417 182.578 369.684 181.732C368.95 180.885 367.925 180.345 366.812 180.22Z" fill="#FFBE9D"/>
<path d="M341.609 230.94L341.683 234.092C354.345 235.362 358.599 226.538 358.599 226.538C353.453 229.551 347.571 231.075 341.609 230.94Z" fill="#EB996E"/>
<path d="M367.359 200.167C367.535 200.093 374.412 197.905 374.348 204.978C374.283 212.05 367.201 210.539 367.192 210.317C367.183 210.094 367.359 200.167 367.359 200.167Z" fill="#FFBE9D"/>
<path d="M369.37 207.656C369.37 207.656 369.5 207.749 369.704 207.842C370.001 207.964 370.334 207.964 370.631 207.842C371.09 207.557 371.465 207.156 371.717 206.679C371.97 206.201 372.091 205.665 372.067 205.126C372.087 204.518 371.973 203.914 371.734 203.355C371.666 203.137 371.546 202.939 371.385 202.778C371.223 202.616 371.025 202.496 370.807 202.429C370.666 202.392 370.518 202.406 370.386 202.467C370.254 202.528 370.148 202.632 370.084 202.762C369.982 202.957 370.028 203.105 369.991 203.114C369.954 203.124 369.843 202.994 369.898 202.697C369.936 202.523 370.035 202.369 370.177 202.262C370.373 202.115 370.62 202.051 370.862 202.086C371.153 202.147 371.423 202.281 371.646 202.476C371.87 202.67 372.041 202.919 372.142 203.198C372.434 203.814 372.574 204.491 372.549 205.172C372.494 206.59 371.752 207.953 370.696 208.203C370.506 208.257 370.307 208.268 370.113 208.234C369.918 208.201 369.734 208.123 369.574 208.009C369.389 207.832 369.352 207.675 369.37 207.656Z" fill="#EB996E"/>
<path d="M371.706 210.011C371.706 210.011 372.012 210.316 371.975 210.938C371.967 211.128 371.918 211.314 371.831 211.483C371.745 211.653 371.623 211.802 371.474 211.92C371.269 212.036 371.042 212.106 370.807 212.123C370.572 212.141 370.337 212.106 370.117 212.022C369.897 211.938 369.699 211.806 369.536 211.636C369.373 211.466 369.25 211.263 369.175 211.039C369.102 210.666 369.172 210.279 369.37 209.955C369.722 209.408 370.167 209.362 370.167 209.399C370.167 209.436 369.834 209.584 369.593 210.075C369.448 210.362 369.415 210.693 369.5 211.002C369.558 211.173 369.656 211.327 369.785 211.452C369.913 211.578 370.07 211.671 370.241 211.725C370.405 211.804 370.584 211.845 370.765 211.845C370.946 211.845 371.125 211.804 371.289 211.725C371.407 211.635 371.507 211.522 371.581 211.393C371.656 211.265 371.705 211.122 371.724 210.975C371.758 210.654 371.752 210.33 371.706 210.011Z" fill="#E0E0E0"/>
<path d="M329.476 192.112C330.546 190.111 332.211 188.492 334.24 187.478C336.205 186.356 338.328 185.54 340.284 184.409C344.805 181.759 348.186 177.53 349.775 172.536C348.007 171.686 346.066 171.257 344.105 171.281C342.143 171.305 340.214 171.782 338.467 172.675C334.969 174.515 332.208 177.499 330.644 181.128C329.104 184.739 328.367 188.642 328.484 192.566" fill="#4B4951"/>
<path d="M368.981 178.301C363.762 173.342 353.881 170.598 347.078 172.925C348.088 178.876 352.575 185.549 356.523 190.119C360.472 194.689 362.9 202.753 371.539 200.018C372.132 199.824 372.818 200.371 373.393 200.018C373.817 199.695 374.112 199.232 374.227 198.712C375.309 195.156 375.392 191.37 374.466 187.771C373.541 184.171 371.643 180.895 368.981 178.301Z" fill="#4B4951"/>
<path d="M371.956 177.18C371.956 177.18 371.956 177.263 371.808 177.421C371.66 177.578 371.548 177.791 371.317 178.051C370.683 178.807 369.964 179.488 369.175 180.081C368.001 180.962 366.697 181.656 365.31 182.138C363.61 182.739 361.809 183.004 360.008 182.917C358.208 182.8 356.446 182.341 354.818 181.564C353.494 180.928 352.274 180.093 351.203 179.089C350.485 178.415 349.844 177.662 349.293 176.846C349.089 176.558 348.978 176.317 348.876 176.16C348.826 176.079 348.785 175.991 348.756 175.9C349.52 176.992 350.396 178.002 351.37 178.913C352.436 179.88 353.642 180.68 354.947 181.286C358.159 182.82 361.847 183.023 365.208 181.851C366.576 181.393 367.867 180.73 369.036 179.886C370.1 179.087 371.078 178.18 371.956 177.18Z" fill="white"/>
<path d="M375.349 186.801C375.275 186.887 375.194 186.968 375.108 187.042C374.874 187.265 374.627 187.472 374.366 187.663C373.413 188.382 372.348 188.939 371.215 189.313C369.534 189.882 367.759 190.121 365.987 190.017C363.815 189.909 361.687 189.364 359.73 188.414C357.798 187.431 356.031 186.152 354.493 184.623C353.244 183.379 352.121 182.016 351.138 180.554C350.463 179.576 349.844 178.561 349.284 177.513C349.08 177.143 348.941 176.846 348.848 176.651C348.788 176.554 348.744 176.448 348.719 176.336C348.79 176.422 348.852 176.515 348.904 176.614L349.395 177.448C349.812 178.171 350.443 179.2 351.305 180.424C352.31 181.849 353.442 183.18 354.688 184.4C356.213 185.892 357.957 187.143 359.86 188.108C361.777 189.041 363.859 189.586 365.987 189.711C367.723 189.817 369.463 189.603 371.122 189.081C372.243 188.732 373.306 188.217 374.273 187.552C374.978 187.079 375.321 186.773 375.349 186.801Z" fill="#455A64"/>
<path d="M369.148 225.462C369.148 225.462 369.287 225.462 369.518 225.295C369.75 225.129 370.112 224.98 370.547 224.702C371.783 223.949 372.958 223.1 374.06 222.162C375.713 220.773 377.177 219.175 378.417 217.407C379.924 215.227 381.066 212.817 381.8 210.27C383.13 205.635 383.248 200.736 382.143 196.042C381.807 194.629 381.354 193.246 380.79 191.908C380.595 191.435 380.41 191.083 380.289 190.842C380.238 190.716 380.17 190.597 380.085 190.49C380.228 190.999 380.404 191.497 380.614 191.982C381.106 193.331 381.506 194.713 381.809 196.116C382.802 200.756 382.639 205.569 381.336 210.131C380.619 212.631 379.512 215.003 378.055 217.157C376.846 218.904 375.43 220.497 373.838 221.903C372.762 222.852 371.629 223.734 370.445 224.545C369.994 224.823 369.561 225.129 369.148 225.462Z" fill="#455A64"/>
<path d="M266.224 403.586L254.424 425.035C254.424 425.035 229.592 418.732 227.025 422.477L266.882 448.374L286.653 415.71L266.224 403.586Z" fill="#FD3E72"/>
<g opacity="0.6">
<path opacity="0.6" d="M268.087 430.809C268.407 431.164 268.585 431.625 268.585 432.102C268.585 432.58 268.407 433.041 268.087 433.395C267.742 433.724 267.284 433.907 266.808 433.907C266.331 433.907 265.873 433.724 265.529 433.395C265.186 433.023 264.996 432.535 264.996 432.028C264.996 431.522 265.186 431.034 265.529 430.661C265.919 430.348 266.416 430.2 266.914 430.246C267.412 430.293 267.873 430.531 268.198 430.911" fill="white"/>
</g>
<g opacity="0.6">
<path opacity="0.6" d="M266.854 448.374L268.847 445.084L229.546 421.42C229.002 421.367 228.453 421.452 227.949 421.666C227.446 421.879 227.004 422.215 226.663 422.643L266.854 448.374Z" fill="white"/>
</g>
<path d="M253.887 424.432C253.775 424.636 254.712 425.359 255.314 426.546C255.917 427.732 255.926 428.928 256.158 428.956C256.389 428.983 256.779 427.658 256.037 426.175C255.296 424.692 253.952 424.228 253.887 424.432Z" fill="#263238"/>
<path d="M248.548 423.645C248.39 423.811 249.048 424.664 249.224 425.916C249.4 427.167 249.057 428.168 249.224 428.279C249.391 428.39 250.225 427.352 249.984 425.786C249.743 424.219 248.668 423.459 248.548 423.645Z" fill="#263238"/>
<path d="M243.06 427.315C243.218 427.463 244.089 426.629 244.228 425.239C244.367 423.848 243.7 422.847 243.515 422.968C243.329 423.088 243.561 424.006 243.431 425.155C243.301 426.305 242.875 427.176 243.06 427.315Z" fill="#263238"/>
<path d="M257.122 419.844C257.122 420.076 258.169 420.345 259.253 421.095C260.338 421.846 260.996 422.727 261.2 422.616C261.404 422.504 260.987 421.29 259.708 420.428C258.429 419.566 257.112 419.631 257.122 419.844Z" fill="#263238"/>
<g opacity="0.3">
<path opacity="0.3" d="M263.897 407.841L261.784 411.659L281.935 423.459L283.974 420.104L263.897 407.841Z" fill="black"/>
</g>
<path d="M259.578 415.59C259.578 415.673 260.245 416.266 261.626 416.804C262.443 417.109 263.292 417.318 264.157 417.425C264.669 417.464 265.183 417.47 265.695 417.443C266.008 417.455 266.321 417.417 266.622 417.332C266.837 417.27 267.025 417.138 267.157 416.956C267.288 416.775 267.354 416.555 267.345 416.331C267.331 416.132 267.269 415.94 267.166 415.769C267.063 415.598 266.921 415.454 266.752 415.349C266.491 415.195 266.21 415.076 265.918 414.996C265.418 414.847 264.906 414.738 264.388 414.672C263.514 414.573 262.629 414.611 261.765 414.783C260.301 415.098 259.531 415.645 259.578 415.71C259.624 415.775 260.458 415.478 261.858 415.33C262.667 415.247 263.483 415.269 264.287 415.395C264.758 415.472 265.223 415.587 265.677 415.738C266.177 415.877 266.548 416.099 266.539 416.35C266.539 416.452 266.539 416.479 266.363 416.554C266.146 416.615 265.921 416.643 265.695 416.637C265.214 416.665 264.731 416.665 264.249 416.637C263.429 416.569 262.616 416.426 261.821 416.211C261.089 415.95 260.339 415.743 259.578 415.59Z" fill="#263238"/>
<path d="M259.671 415.998C259.717 416.072 260.542 415.599 261.385 414.348C262.164 413.173 262.606 411.807 262.665 410.399C262.717 410.064 262.681 409.722 262.561 409.405C262.44 409.088 262.24 408.808 261.979 408.592C261.795 408.485 261.585 408.433 261.373 408.443C261.16 408.453 260.956 408.524 260.783 408.647C260.539 408.823 260.32 409.032 260.134 409.268C259.216 410.39 258.78 411.83 258.92 413.272C259.077 414.811 259.773 415.543 259.847 415.488C259.684 414.748 259.569 413.999 259.504 413.245C259.505 412.451 259.675 411.668 260.004 410.946C260.197 410.527 260.447 410.138 260.746 409.787C261.07 409.389 261.441 409.138 261.58 409.277C261.708 409.427 261.802 409.601 261.856 409.79C261.911 409.979 261.924 410.177 261.895 410.371C261.887 410.845 261.834 411.316 261.738 411.78C261.575 412.576 261.297 413.345 260.913 414.06C260.236 415.293 259.578 415.905 259.671 415.998Z" fill="#263238"/>
<path d="M302.308 445.251L303.523 469.702C303.523 469.702 278.199 477.257 278.607 483.254L326.26 483.189L326.028 444.861L302.308 445.251Z" fill="#FD3E72"/>
<g opacity="0.6">
<path opacity="0.6" d="M318.177 467.413C318.636 467.545 319.031 467.843 319.284 468.248C319.537 468.654 319.632 469.139 319.549 469.61C319.436 470.074 319.148 470.476 318.746 470.734C318.344 470.991 317.858 471.083 317.389 470.991C316.903 470.848 316.486 470.531 316.219 470.1C315.952 469.668 315.854 469.154 315.943 468.655C316.113 468.184 316.46 467.798 316.91 467.579C317.36 467.359 317.877 467.323 318.353 467.478" fill="white"/>
</g>
<g opacity="0.6">
<path opacity="0.6" d="M326.26 483.161L326.325 479.166L280.85 479.667C280.85 479.667 278.607 481.261 278.607 483.226L326.26 483.161Z" fill="white"/>
</g>
<path d="M302.772 469.443C302.772 469.675 303.949 469.767 305.098 470.499C306.248 471.232 306.869 472.196 307.082 472.103C307.295 472.01 306.934 470.666 305.525 469.814C304.116 468.961 302.688 469.23 302.772 469.443Z" fill="#263238"/>
<path d="M297.794 471.575C297.739 471.797 298.721 472.177 299.555 473.15C300.39 474.124 300.594 475.153 300.825 475.143C301.057 475.134 301.187 473.818 300.167 472.631C299.148 471.445 297.794 471.352 297.794 471.575Z" fill="#263238"/>
<path d="M295.041 477.572C295.255 477.627 295.56 476.46 294.949 475.199C294.337 473.938 293.243 473.447 293.15 473.642C293.058 473.836 293.734 474.504 294.226 475.551C294.717 476.599 294.81 477.553 295.041 477.572Z" fill="#263238"/>
<path d="M303.087 463.844C303.189 464.048 304.246 463.715 305.562 463.789C306.878 463.863 307.898 464.261 308.018 464.057C308.139 463.854 307.137 463.047 305.599 462.982C304.06 462.917 302.966 463.659 303.087 463.844Z" fill="#263238"/>
<g opacity="0.3">
<path opacity="0.3" d="M303.133 462.537L303.411 467.404L326.213 466.81L326.185 462.88L303.133 462.537Z" fill="black"/>
</g>
<path d="M302.929 458.904C303.713 459.1 304.536 459.084 305.311 458.858C306.676 458.589 307.977 458.067 309.149 457.319C309.413 457.166 309.651 456.972 309.853 456.744C310.006 456.58 310.098 456.368 310.115 456.144C310.132 455.92 310.072 455.697 309.946 455.511C309.828 455.352 309.674 455.223 309.497 455.133C309.32 455.043 309.125 454.995 308.926 454.992C308.612 454.996 308.301 455.042 308 455.131C307.493 455.261 306.999 455.438 306.526 455.66C305.728 456.032 304.993 456.526 304.347 457.124C303.263 458.162 302.902 459.034 302.976 459.08C303.05 459.126 303.606 458.422 304.718 457.56C305.366 457.067 306.073 456.656 306.822 456.336C307.264 456.154 307.719 456.008 308.185 455.901C308.685 455.762 309.112 455.752 309.251 455.975C309.39 456.197 309.297 456.095 309.195 456.244C309.042 456.403 308.867 456.541 308.676 456.652C308.276 456.926 307.858 457.174 307.425 457.393C306.696 457.774 305.932 458.084 305.145 458.32C304.393 458.461 303.653 458.656 302.929 458.904Z" fill="#263238"/>
<path d="M303.245 459.228C303.68 458.544 303.888 457.739 303.838 456.93C303.864 456.047 303.742 455.167 303.476 454.325C303.318 453.825 303.106 453.344 302.846 452.888C302.715 452.577 302.505 452.304 302.237 452.098C301.969 451.892 301.652 451.758 301.317 451.711C301.105 451.719 300.901 451.787 300.727 451.907C300.553 452.026 300.417 452.193 300.334 452.388C300.212 452.664 300.134 452.958 300.102 453.259C300.018 453.79 300.018 454.331 300.102 454.863C300.246 455.752 300.606 456.592 301.15 457.31C302.077 458.524 303.068 458.793 303.087 458.709C303.105 458.626 302.345 458.153 301.622 456.985C301.2 456.31 300.932 455.551 300.835 454.761C300.775 454.302 300.775 453.838 300.835 453.38C300.899 452.879 301.085 452.453 301.279 452.518C301.474 452.582 301.919 452.888 302.123 453.287C302.77 454.398 303.144 455.646 303.217 456.93C303.346 458.329 303.115 459.201 303.245 459.228Z" fill="#263238"/>
<path d="M371.437 236.437L368.768 235.306C369.583 234.008 363.206 246.429 354.549 246.512C342.703 246.624 341.517 234.815 341.517 234.815L340.896 234.898L321.43 255.077L318.863 311.618L320.976 318.876L362.798 334.022L377.388 304.982L378.676 287.083L371.437 236.437Z" fill="#F5F5F5"/>
<path d="M370.167 235.77C370.167 235.77 393.924 241.173 397.798 251.314C399.504 255.791 400.051 328.006 400.051 328.006C400.051 328.006 403.008 334.615 402.831 348.25C402.646 361.319 394.007 369.763 383.218 372.21C383.218 372.21 380.382 351.679 369.009 341.381C358.238 331.63 357.246 332.817 357.246 332.817L359.841 309.264L362.539 288.761C365.236 274.116 362.196 258.229 367.173 244.186L370.167 235.77Z" fill="#FD3E72"/>
<path d="M320.012 250.164L303.81 321.434L321.227 317.476L326.788 274.709L341.081 234.852C341.081 234.852 338.68 235.167 335.584 235.649C331.834 236.231 328.345 237.926 325.568 240.514C322.792 243.102 320.856 246.464 320.012 250.164Z" fill="#FD3E72"/>
<g opacity="0.3">
<path opacity="0.3" d="M399.884 340.278C399.891 340.711 399.788 341.138 399.586 341.521C399.383 341.903 399.087 342.228 398.725 342.466C397.996 342.93 397.173 343.228 396.315 343.337C392.302 344.041 388.177 343.281 384.266 342.039C379.851 340.499 375.555 338.64 371.409 336.478C365.264 333.438 363.327 332.057 357.506 328.395C363.531 330.861 365.523 331.176 371.882 332.622C381.364 334.8 391.347 335.875 399.884 340.454" fill="black"/>
</g>
<path d="M365.023 313.352L354.428 311.072C354.428 311.072 342.249 304.277 339.514 304.287C337.058 304.287 327.335 308.699 325.425 309.57C325.212 309.665 325.036 309.828 324.925 310.033C324.798 310.244 324.714 310.477 324.678 310.72C324.642 310.963 324.654 311.21 324.714 311.448C324.775 311.686 324.882 311.91 325.029 312.106C325.177 312.302 325.362 312.468 325.574 312.592L325.75 312.694L325.629 312.944C325.465 313.265 325.362 313.614 325.323 313.973C325.299 314.245 325.363 314.518 325.505 314.751C325.647 314.985 325.86 315.167 326.112 315.27C326.365 315.374 326.645 315.394 326.91 315.327C327.175 315.261 327.411 315.111 327.585 314.9L327.159 315.437C326.982 315.651 326.872 315.912 326.844 316.188L326.788 316.726C326.755 317.019 326.812 317.315 326.951 317.574C327.09 317.834 327.305 318.046 327.567 318.181C327.816 318.309 328.097 318.363 328.376 318.336C328.655 318.31 328.921 318.205 329.142 318.033C330.449 316.985 333.258 314.928 334.926 314.928C336.721 314.999 338.508 315.198 340.275 315.521C340.635 315.586 340.968 315.756 341.232 316.01C341.496 316.264 341.679 316.59 341.758 316.948C340.784 316.855 333.49 319.265 330.903 320.127C330.505 320.252 330.142 320.472 329.847 320.767C329.551 321.062 329.332 321.425 329.207 321.824C329.003 322.547 329.207 323.39 330.774 323.288C333.949 322.881 337.09 322.243 340.173 321.379C340.173 321.379 343.25 321.027 344.928 322.676C347.291 324.994 348.403 325.893 350.823 325.504C352.294 325.265 353.734 324.86 355.114 324.299L358.952 325.031L365.023 313.352Z" fill="#FFBE9D"/>
<path d="M342.712 311.396C341.934 311.112 341.142 310.868 340.339 310.664C338.387 310.213 336.357 310.23 334.412 310.714C332.468 311.197 330.666 312.132 329.152 313.444C327.993 314.445 327.428 315.233 327.39 315.196C327.5 315 327.63 314.817 327.78 314.649C328.162 314.17 328.583 313.723 329.04 313.315C330.553 311.948 332.382 310.978 334.362 310.493C336.342 310.007 338.412 310.022 340.386 310.534C340.98 310.681 341.56 310.879 342.119 311.127C342.326 311.194 342.525 311.284 342.712 311.396Z" fill="#EB996E"/>
<path d="M341.859 308.068C341.079 307.684 340.254 307.397 339.403 307.215C337.326 306.866 335.193 307.11 333.248 307.92C331.313 308.756 329.496 309.843 327.845 311.155L326.324 312.323C326.148 312.479 325.955 312.615 325.75 312.731C325.904 312.554 326.075 312.393 326.26 312.249C326.603 311.952 327.103 311.526 327.743 311.016C329.376 309.65 331.2 308.53 333.156 307.688C335.141 306.856 337.327 306.63 339.44 307.039C340.084 307.175 340.707 307.393 341.294 307.688C341.507 307.79 341.646 307.901 341.748 307.957C341.85 308.013 341.869 308.068 341.859 308.068Z" fill="#EB996E"/>
<path d="M383.413 253.529L388.705 310.45H390.207L366.209 310.932L357.533 328.368C357.533 328.368 388.993 343.671 402.433 339.49C418.376 334.485 413.825 316.707 413.704 310.423C413.704 309.32 404.741 256.44 396.093 248.514C396.111 248.477 384.683 249.237 383.413 253.529Z" fill="#FD3E72"/>
<path d="M382.708 269.416C382.703 269.932 382.746 270.447 382.838 270.955C382.986 272.021 383.181 273.42 383.403 275.116C383.941 278.704 384.664 283.505 385.461 288.807C386.258 294.109 386.991 299.003 387.482 302.507C387.723 304.194 387.927 305.593 388.084 306.659C388.128 307.174 388.221 307.683 388.362 308.179C388.371 307.665 388.34 307.15 388.27 306.641C388.186 305.649 388.038 304.221 387.834 302.46C387.426 298.938 386.768 294.118 385.98 288.733C385.192 283.347 384.367 278.537 383.783 275.061C383.487 273.383 383.246 271.984 383.06 270.927C382.981 270.415 382.863 269.91 382.708 269.416Z" fill="#E02D5E"/>
<path d="M384.525 244.899C384.525 244.899 384.33 245.094 384.062 245.493C383.679 246.068 383.341 246.673 383.051 247.3C382.603 248.221 382.237 249.179 381.958 250.164C381.615 251.378 381.373 252.618 381.235 253.872C381.003 256.131 381.003 258.407 381.235 260.666C381.274 261.605 381.414 262.538 381.652 263.447C381.698 262.52 381.676 261.59 381.587 260.666C381.475 258.428 381.534 256.184 381.763 253.955C381.9 252.736 382.123 251.528 382.43 250.34C382.681 249.374 382.991 248.424 383.357 247.495C384.034 245.854 384.599 244.946 384.525 244.899Z" fill="#E02D5E"/>
<path d="M402.47 339.453C402.393 339.439 402.315 339.439 402.238 339.453L401.562 339.629C400.689 339.823 399.803 339.953 398.911 340.019C395.624 340.139 392.337 339.828 389.132 339.092C387.093 338.656 384.84 338.165 382.467 337.636C380.094 337.108 377.638 336.107 375.052 335.152C369.889 333.206 364.263 330.916 358.368 328.442L357.635 328.126L357.765 328.46L366.423 311.016L366.219 311.145C370.084 311.145 373.634 310.895 376.758 310.802C379.881 310.71 382.662 310.617 384.933 310.636C387.204 310.654 388.993 310.747 390.216 310.877C391.44 311.006 392.07 311.118 392.07 311.081C391.919 311.031 391.764 310.994 391.607 310.969C391.291 310.904 390.828 310.802 390.216 310.728C388.46 310.514 386.693 310.396 384.924 310.376C382.643 310.32 379.89 310.376 376.739 310.432C373.588 310.487 370.047 310.682 366.219 310.691H366.08L366.015 310.812C363.41 316.03 360.453 321.935 357.311 328.238L357.191 328.469L357.432 328.571L358.164 328.886C364.04 331.371 369.676 333.651 374.848 335.569C377.443 336.496 379.918 337.423 382.319 338.026C384.72 338.628 386.954 339.008 389.011 339.425C392.248 340.153 395.571 340.421 398.883 340.223C400.111 340.152 401.321 339.893 402.47 339.453Z" fill="#E02D5E"/>
<path d="M385.934 310.599C385.999 310.654 386.536 310.043 387.612 309.366C389.028 308.51 390.606 307.954 392.246 307.735C393.906 307.529 395.582 307.476 397.252 307.577C397.951 307.644 398.656 307.644 399.356 307.577C398.683 307.362 397.985 307.241 397.279 307.215C395.584 307.001 393.868 307.001 392.172 307.215C390.451 307.437 388.81 308.073 387.389 309.069C386.785 309.451 386.285 309.977 385.934 310.599Z" fill="#E02D5E"/>
<g opacity="0.3">
<path opacity="0.3" d="M386.342 310.525C389.753 310.01 393.235 310.26 396.538 311.257C398.558 311.878 400.598 312.851 401.729 314.64C402.099 315.215 402.322 316.04 401.83 316.494C401.584 316.661 401.296 316.754 400.998 316.762C400.701 316.771 400.408 316.693 400.153 316.54C399.005 315.962 397.934 315.242 396.964 314.399C395.363 313.123 393.587 312.083 391.69 311.312C389.783 310.548 387.711 310.29 385.674 310.562" fill="black"/>
</g>
<g opacity="0.3">
<path opacity="0.3" d="M387.398 309.301C388.112 307.299 390.745 305.426 392.441 304.852C396.306 303.536 400.783 303.044 404.176 305.26C404.375 305.356 404.55 305.497 404.685 305.672C404.82 305.848 404.912 306.052 404.954 306.27C404.954 306.882 404.296 307.252 403.703 307.419C401.265 308.087 398.679 307.679 396.158 307.419C393.637 307.16 390.939 307.141 388.742 308.43" fill="black"/>
</g>
<g opacity="0.3">
<path opacity="0.3" d="M388.196 306.798C382.967 295.766 381.16 283.422 383.005 271.354L388.196 306.798Z" fill="black"/>
</g>
<path d="M383.2 372.247C383.2 372.247 374.616 377.939 357.571 377.939C340.525 377.939 336.613 376.761 336.613 376.761L320.643 362.255L285.605 423.617C285.605 423.617 257.798 406.376 257.622 406.932C257.288 407.266 283.575 348.806 289.304 338.693C291.226 335.386 293.395 332.229 295.792 329.248C298.66 325.543 302.519 322.727 306.923 321.127C311.326 319.528 316.093 319.21 320.67 320.211C325.612 321.243 330.48 322.602 335.241 324.28C347.958 328.914 358.738 332.066 367.933 340.223C378.602 349.649 385.044 367.947 383.2 372.247Z" fill="#8F4620"/>
<path d="M324.628 355.192C324.628 355.192 337.234 363.915 336.891 370.95C336.613 376.808 328.818 463.02 328.818 463.02L297.794 462.501L295.662 406.043L324.628 355.192Z" fill="#8F4620"/>
<path d="M293.169 410.371C293.225 410.307 293.272 410.235 293.308 410.158L293.679 409.527C294.022 408.934 294.485 408.109 295.069 407.071L300.093 397.978L316.509 367.891L322.997 355.841L322.756 355.961C325.035 356.258 327.221 357.05 329.162 358.282C331.103 359.513 332.751 361.154 333.99 363.089C335.033 364.744 335.744 366.586 336.085 368.512C336.366 370.174 336.481 371.86 336.428 373.545C336.344 376.613 336.057 379.106 335.983 380.747C335.937 381.59 335.918 382.249 335.918 382.684C335.901 382.906 335.901 383.129 335.918 383.352C335.963 383.132 335.988 382.908 335.992 382.684C335.992 382.212 336.076 381.572 336.131 380.766C336.261 379.079 336.585 376.65 336.715 373.545C336.796 371.84 336.7 370.132 336.428 368.447C336.094 366.474 335.379 364.585 334.324 362.885C333.064 360.88 331.38 359.177 329.388 357.895C327.397 356.614 325.149 355.786 322.802 355.47H322.645L322.57 355.618C320.522 359.372 318.316 363.442 316.027 367.668L299.741 397.821C297.692 401.658 296.033 404.782 294.856 406.988L293.549 409.49L293.225 410.149C293.197 410.288 293.16 410.362 293.169 410.371Z" fill="#7E3D1A"/>
<path d="M319.095 343.467C320.604 345.21 321.732 347.248 322.408 349.453C323.083 351.657 323.29 353.978 323.015 356.267C323.288 355.628 323.432 354.942 323.442 354.247C323.69 350.875 322.669 347.532 320.578 344.876C320.179 344.315 319.675 343.836 319.095 343.467Z" fill="#7E3D1A"/>
<path d="M325.62 341.085C325.537 341.085 325.787 342.012 325.972 343.393C326.213 345.243 326.163 347.119 325.824 348.954C325.476 350.784 324.851 352.55 323.97 354.191C323.275 355.452 322.728 356.166 322.793 356.212C323.39 355.686 323.889 355.058 324.267 354.358C326.295 351.063 327.034 347.135 326.343 343.328C326.227 342.545 325.983 341.788 325.62 341.085Z" fill="#7E3D1A"/>
<path d="M321.31 246.429C321.31 246.429 287.672 304.212 286.922 308.652C286.366 311.952 287.431 321.36 290.444 322.556C298.879 325.967 308.63 322.009 317.537 315.845L318.872 314.918L321.31 246.429Z" fill="#FD3E72"/>
<path d="M469.319 238.337C469.319 238.337 464.045 235.269 462.83 243.806C461.616 252.342 452.922 314.937 452.922 314.937L399.115 314.427C399.115 314.427 387.741 314 380.03 337.164C374.635 353.375 369.129 408.536 369.129 408.536L370.149 448.448H467.474C467.474 448.448 470.403 364.758 470.904 327.533C471.404 290.309 472.47 249.775 469.319 238.337Z" fill="#AA8C30"/>
<path d="M464.462 237.781C464.462 237.781 464.369 237.873 464.165 238.04C463.88 238.29 463.617 238.563 463.377 238.856C462.422 239.995 461.848 241.405 461.737 242.888C461.264 246.781 460.587 252.407 459.744 259.387C458.01 273.411 455.6 292.913 452.885 314.937V315.159H452.662L441.437 314.927C429.304 314.733 417.736 314.649 407.234 314.927C404.611 315.011 402.053 315.122 399.569 315.317L397.715 315.474C397.113 315.53 396.519 315.632 395.917 315.715C394.753 315.814 393.641 316.242 392.71 316.948C390.929 318.352 389.389 320.036 388.149 321.935C386.946 323.669 385.847 325.473 384.859 327.339C381.848 333 379.39 338.938 377.518 345.07C376.987 346.733 376.572 348.43 376.276 350.15C376.202 350.598 376.156 351.05 376.137 351.503C376.137 351.809 376.137 351.967 376.137 351.967C376.113 351.813 376.098 351.658 376.09 351.503C376.093 351.044 376.127 350.586 376.192 350.131C376.448 348.4 376.833 346.69 377.342 345.015C377.972 342.818 378.852 340.176 380.02 337.155C381.343 333.743 382.859 330.41 384.562 327.172C385.554 325.291 386.653 323.468 387.853 321.712C389.112 319.771 390.677 318.046 392.487 316.605L393.247 316.114C393.516 315.965 393.803 315.854 394.072 315.715C394.341 315.576 394.665 315.53 394.999 315.437C395.333 315.344 395.602 315.344 395.926 315.298C396.529 315.215 397.14 315.103 397.78 315.048L399.634 314.881C402.118 314.677 404.685 314.566 407.309 314.473C417.829 314.149 429.397 314.214 441.539 314.408L452.773 314.649L452.523 314.872C455.304 292.848 457.779 273.355 459.549 259.341C460.476 252.361 461.18 246.744 461.69 242.86C461.823 241.352 462.429 239.924 463.424 238.782C463.718 238.399 464.068 238.061 464.462 237.781Z" fill="#937721"/>
<path d="M394.026 319.191C394.142 319.219 394.26 319.24 394.378 319.256C394.61 319.256 394.953 319.348 395.407 319.45C396.719 319.721 397.999 320.128 399.226 320.665C401.186 321.483 402.999 322.616 404.593 324.02C405.602 324.881 406.533 325.83 407.373 326.856L408.597 328.636L408.912 329.1L409.172 329.609L409.691 330.629C409.867 330.981 410.052 331.324 410.228 331.686C410.404 332.047 410.506 332.436 410.655 332.816C410.923 333.586 411.229 334.355 411.48 335.171C411.934 336.878 412.262 338.616 412.462 340.371C412.555 341.298 412.694 342.225 412.749 343.151C412.805 344.078 412.749 345.061 412.749 346.043C412.814 347.99 412.638 350.02 412.583 352.087C412.212 360.364 411.656 369.448 410.886 378.967C410.043 389.719 409.125 399.878 408.217 408.804L408.43 408.61L380.03 408.851L371.975 408.953L369.843 408.999H369.296H369.111C369.111 408.999 369.175 408.999 369.296 408.999H369.843H371.975H380.03L408.439 409.101H408.634V408.906C409.561 399.98 410.488 389.812 411.359 379.06C412.082 369.522 412.675 360.429 413.018 352.18C413.074 350.103 413.241 348.092 413.167 346.118C413.167 345.135 413.167 344.162 413.167 343.207C413.167 342.252 412.963 341.353 412.87 340.426C412.66 338.651 412.316 336.894 411.841 335.171C411.591 334.346 411.266 333.567 410.998 332.789C410.849 332.399 410.729 332.01 410.562 331.639L410.006 330.583L409.468 329.544L409.199 329.035C409.097 328.877 408.986 328.72 408.875 328.571L407.624 326.773C406.782 325.739 405.851 324.781 404.843 323.909C403.22 322.51 401.375 321.391 399.383 320.6C398.127 320.046 396.811 319.635 395.463 319.376C395.008 319.293 394.656 319.256 394.415 319.228C394.287 319.206 394.156 319.193 394.026 319.191Z" fill="#937721"/>
<path d="M394.619 448.958C394.749 448.958 394.86 440.282 394.86 429.577C394.86 418.871 394.749 410.186 394.619 410.186C394.489 410.186 394.378 418.862 394.378 429.577C394.378 440.292 394.48 448.958 394.619 448.958Z" fill="#937721"/>
<path d="M273.685 280.178L328.438 285.127C328.686 285.15 328.921 285.245 329.114 285.402C329.308 285.559 329.45 285.77 329.522 286.008L341.702 325.086C341.758 325.274 341.858 325.446 341.993 325.588C342.129 325.729 342.296 325.837 342.48 325.902L363.512 331.63C363.823 331.73 364.083 331.947 364.236 332.236C364.389 332.524 364.423 332.861 364.331 333.174C364.239 333.488 364.029 333.753 363.744 333.913C363.459 334.073 363.123 334.115 362.808 334.031L340.182 329.239L289.294 322.89C289.068 322.863 288.853 322.775 288.672 322.637C288.491 322.498 288.351 322.313 288.266 322.102L272.406 281.892C272.328 281.693 272.303 281.477 272.331 281.265C272.36 281.053 272.442 280.852 272.57 280.68C272.698 280.509 272.868 280.373 273.063 280.285C273.258 280.197 273.472 280.16 273.685 280.178Z" fill="#45424B"/>
<path d="M273.685 280.178C273.524 280.141 273.356 280.141 273.194 280.178C272.955 280.246 272.74 280.382 272.575 280.57C272.411 280.757 272.304 280.988 272.267 281.234C272.252 281.598 272.332 281.959 272.499 282.282C272.638 282.652 272.796 283.051 272.962 283.477L274.121 286.481C275.892 291.004 278.45 297.557 281.638 305.732L286.922 319.191L287.645 321.045L288.006 321.972C288.11 322.351 288.347 322.68 288.674 322.899C288.839 323.004 289.026 323.071 289.22 323.093L289.73 323.168L290.75 323.288L292.808 323.548L301.381 324.632L340.145 329.498L351.898 331.964L357.914 333.243L360.963 333.883L362.483 334.207C362.765 334.295 363.062 334.32 363.355 334.281C363.665 334.224 363.95 334.071 364.17 333.846C364.342 333.664 364.466 333.443 364.531 333.202C364.596 332.96 364.599 332.707 364.541 332.464C364.483 332.221 364.365 331.996 364.199 331.81C364.032 331.624 363.821 331.483 363.586 331.399L342.536 325.68C342.364 325.616 342.212 325.509 342.093 325.37C341.975 325.23 341.894 325.062 341.86 324.882L341.47 323.631L340.692 321.147C340.173 319.497 339.663 317.86 339.162 316.234C338.143 312.99 337.148 309.808 336.178 306.687C334.231 300.44 332.377 294.474 330.616 288.789C330.394 288.084 330.171 287.38 329.958 286.684C329.86 286.316 329.729 285.956 329.569 285.609C329.457 285.43 329.308 285.277 329.132 285.16C328.957 285.043 328.758 284.966 328.549 284.933L324.295 284.553L316.203 283.839L301.789 282.56L281.156 280.771L275.595 280.307L274.158 280.205H273.676L274.158 280.27L275.586 280.428L281.147 280.965L301.762 282.893L316.166 284.228L324.258 284.97L328.484 285.359C328.636 285.383 328.781 285.439 328.909 285.524C329.037 285.608 329.145 285.72 329.226 285.85C329.363 286.169 329.477 286.498 329.569 286.833L330.218 288.946C331.979 294.619 333.833 300.585 335.779 306.845C336.743 309.972 337.732 313.157 338.745 316.401C339.246 318.026 339.755 319.664 340.275 321.314C340.525 322.139 340.784 322.964 341.044 323.798L341.433 325.049C341.49 325.3 341.608 325.533 341.778 325.725C341.949 325.918 342.165 326.065 342.406 326.152L363.429 331.881C363.588 331.938 363.731 332.033 363.844 332.159C363.957 332.285 364.037 332.438 364.077 332.602C364.116 332.767 364.114 332.939 364.07 333.103C364.027 333.266 363.943 333.416 363.827 333.54C363.679 333.691 363.488 333.794 363.28 333.836C363.053 333.863 362.822 333.841 362.604 333.771L361.074 333.447L358.034 332.798L352.009 331.528L340.228 329.035L301.456 324.234L292.882 323.177L290.824 322.917L289.804 322.797C289.483 322.796 289.167 322.723 288.877 322.584C288.626 322.425 288.444 322.176 288.368 321.888L287.997 320.962L287.274 319.108C285.346 314.26 283.566 309.765 281.944 305.677C278.691 297.52 276.095 290.985 274.297 286.471C273.843 285.35 273.444 284.358 273.102 283.487L272.62 282.3C272.45 281.998 272.367 281.655 272.379 281.308C272.406 281.076 272.499 280.856 272.647 280.674C272.795 280.491 272.991 280.355 273.213 280.28C273.366 280.229 273.525 280.195 273.685 280.178Z" fill="#263238"/>
<path d="M326.389 284.942C326.405 285.099 326.436 285.254 326.482 285.405C326.575 285.758 326.686 286.193 326.825 286.712C327.131 287.852 327.594 289.493 328.188 291.495C329.374 295.518 331.107 301.061 333.054 307.16C335 313.259 336.761 318.718 338.05 322.778L339.561 327.533L339.987 328.812C340.032 328.967 340.094 329.117 340.172 329.257C340.164 329.097 340.136 328.938 340.089 328.785C339.996 328.432 339.876 328.006 339.746 327.478C339.44 326.347 338.968 324.697 338.374 322.704C337.188 318.672 335.464 313.138 333.508 307.03C331.552 300.922 329.8 295.472 328.512 291.412L327.001 286.675L326.575 285.396C326.539 285.235 326.476 285.082 326.389 284.942Z" fill="#263238"/>
<path d="M305.376 300.894C305.787 300.876 306.197 300.958 306.569 301.132C306.942 301.307 307.267 301.568 307.518 301.895C307.817 302.153 308.033 302.495 308.138 302.876C308.244 303.257 308.234 303.661 308.111 304.036C307.979 304.298 307.781 304.52 307.538 304.683C307.294 304.845 307.012 304.942 306.72 304.963C306.139 304.991 305.563 304.839 305.07 304.527C304.714 304.352 304.406 304.091 304.175 303.767C303.943 303.444 303.796 303.068 303.745 302.674C303.737 302.224 303.902 301.789 304.205 301.458C304.509 301.127 304.928 300.925 305.376 300.894Z" fill="white"/>
<path d="M312.041 283.348C312.223 282.98 312.369 282.595 312.476 282.198L313.533 279.01C314.46 276.322 315.693 272.633 317.241 268.591C318.789 264.55 320.29 260.944 321.421 258.395L322.784 255.235C322.97 254.864 323.12 254.476 323.229 254.076C322.985 254.41 322.78 254.771 322.617 255.151C322.246 255.856 321.746 256.884 321.143 258.173C319.938 260.74 318.362 264.337 316.833 268.369C315.304 272.401 314.052 276.136 313.255 278.852C312.847 280.215 312.541 281.318 312.328 282.087C312.18 282.494 312.083 282.917 312.041 283.348Z" fill="#E02D5E"/>
<path d="M210.011 484.773C210.011 485.481 272.08 486 348.652 486C425.224 486 487.293 485.481 487.293 484.773C487.293 484.066 425.237 483.546 348.652 483.546C272.067 483.546 210.011 483.971 210.011 484.773Z" fill="#263238"/>
<circle r="69.3206" transform="matrix(-1 0 0 1 165.228 139.397)" stroke="#FD3E72" stroke-width="1.25" stroke-linecap="round" stroke-dasharray="6 6"/>
<path d="M157.867 254.113L160.934 214.852" stroke="#FD3E72" stroke-width="1.25" stroke-linecap="round" stroke-dasharray="6 6"/>
<path d="M62.7812 191.121L100.054 178.408" stroke="#FD3E72" stroke-width="1.25" stroke-linecap="round" stroke-dasharray="6 6"/>
<path d="M74.8131 70.9096L105.549 95.5293" stroke="#FD3E72" stroke-width="1.25" stroke-linecap="round" stroke-dasharray="6 6"/>
<path d="M200.375 73.7216L219.826 39.4795" stroke="#FD3E72" stroke-width="1.25" stroke-linecap="round" stroke-dasharray="6 6"/>
<path d="M240.571 140.108L279.945 139.383" stroke="#FD3E72" stroke-width="1.25" stroke-linecap="round" stroke-dasharray="6 6"/>
<path d="M109.627 142.229C110.104 140.833 110.484 139.405 110.763 137.957C110.83 137.569 110.977 137.2 111.196 136.874C111.415 136.547 111.7 136.27 112.032 136.06C112.536 135.906 113.05 135.791 113.571 135.716C115.378 135.171 115.871 132.647 117.581 131.863C118.133 131.658 118.712 131.537 119.299 131.504C121.592 131.235 123.967 130.444 125.401 128.644C125.814 128.017 126.289 127.434 126.82 126.904C127.094 126.645 127.446 126.486 127.821 126.45C128.196 126.415 128.572 126.506 128.889 126.709C128.391 127.68 127.913 128.644 127.455 129.6C127.079 130.499 126.534 131.318 125.849 132.012C125.5 132.353 125.061 132.587 124.584 132.689C124.107 132.791 123.611 132.755 123.153 132.587C122.885 132.399 122.569 132.29 122.242 132.273C122.007 132.324 121.798 132.456 121.652 132.647C120.404 134.028 120.808 136.321 122.033 137.733C123.257 139.144 125.02 139.869 126.768 140.556C127.366 140.857 128.035 140.988 128.702 140.937C129.904 140.713 130.539 139.443 130.89 138.241C131.674 135.649 132.048 132.833 133.654 130.645C134.234 130.011 134.724 129.3 135.11 128.532C135.446 127.658 135.364 126.642 135.857 125.88C136.35 125.119 137.552 124.611 137.627 123.64C137.61 123.297 137.495 122.967 137.295 122.689C137.094 122.411 136.818 122.196 136.499 122.071C135.879 121.773 135.177 121.683 134.542 121.422C134.288 121.317 134.012 121.13 133.997 120.861C133.997 120.458 134.565 120.294 134.707 119.913C134.849 119.532 134.423 119.091 134.244 118.673C133.848 117.725 134.834 116.769 135.79 116.388C136.746 116.007 137.888 115.716 138.336 114.79C138.495 114.344 138.598 113.879 138.643 113.408C138.724 112.816 138.98 112.261 139.38 111.817C139.779 111.372 140.303 111.057 140.883 110.913C142.071 110.719 143.385 111.772 143.191 112.952C142.976 113.567 142.688 114.154 142.332 114.7C142.063 115.297 142.138 116.194 142.758 116.388C143.773 116.694 144.752 114.834 145.603 115.477C145.252 116.664 144.916 117.852 144.565 119.054C145.902 119.734 147.5 118.501 148.068 117.112C148.635 115.723 148.658 114.125 149.337 112.803C150.017 111.481 151.839 110.465 152.997 111.414C153.057 113.132 150.756 113.834 149.778 115.223C149.031 116.231 149.158 117.867 150.234 118.501C151.309 119.136 152.989 118.031 152.586 116.858C152.437 116.455 152.101 116.112 152.063 115.678C152.089 115.409 152.177 115.149 152.321 114.919C152.465 114.69 152.661 114.497 152.892 114.356L154.834 112.721C155.234 112.339 155.706 112.042 156.223 111.847C157.553 111.459 158.89 112.542 159.592 113.737C160.294 114.932 160.697 116.336 161.675 117.329C163.079 118.823 165.738 118.867 167.053 117.329C168.367 115.79 167.702 112.967 165.753 112.415C165.006 112.213 164.095 112.235 163.707 111.586C163.027 110.435 164.961 108.964 164.297 107.807C163.781 106.91 162.43 107.321 161.444 107.022C160.458 106.724 159.913 105.738 159.338 104.886C158.763 104.035 157.844 103.191 156.858 103.393C156.993 102.807 156.957 102.195 156.754 101.63C156.696 101.492 156.611 101.368 156.502 101.265C156.394 101.162 156.266 101.083 156.125 101.032C155.985 100.982 155.835 100.961 155.686 100.971C155.537 100.982 155.392 101.023 155.26 101.092C155.753 101.899 155.163 103.034 154.296 103.438C153.398 103.767 152.425 103.837 151.488 103.639C150.54 103.527 149.352 103.176 149.248 102.228C149.248 101.921 149.337 101.593 149.248 101.302C148.837 100.174 146.746 101.727 145.939 100.816C145.476 100.346 145.992 99.5016 146.641 99.3224C147.297 99.2596 147.958 99.2897 148.605 99.412C149.263 99.412 150.062 99.0983 150.099 98.4411C150.137 97.7839 149.405 97.3283 149.352 96.686C149.233 95.6031 151.07 95.3267 151.712 96.208C152.355 97.0893 152.131 98.2917 151.936 99.3672C151.742 100.443 151.638 101.705 152.429 102.459C152.765 102.974 153.647 102.706 153.923 102.16C154.143 101.584 154.239 100.969 154.207 100.353C154.191 100.04 154.27 99.7301 154.434 99.4633C154.598 99.1966 154.839 98.986 155.125 98.8593C155.559 98.8221 155.995 98.8703 156.41 99.0012C158.09 99.2104 159.263 97.0296 158.733 95.4238C158.202 93.8181 156.679 92.7725 155.2 91.951C154.117 91.3535 152.773 90.7934 151.697 91.4058C151.197 91.6821 150.846 92.1526 150.353 92.4588C149.502 92.9592 148.449 92.7725 147.47 92.7949C145.922 92.8394 144.437 93.4172 143.266 94.4305C142.832 94.8264 142.429 95.4836 142.765 95.9242C143.101 96.3649 144.184 96.5292 144.005 97.1192C143.72 97.1986 143.421 97.2169 143.128 97.1726C142.836 97.1284 142.556 97.0228 142.307 96.8627C142.058 96.7026 141.845 96.4916 141.684 96.2436C141.522 95.9956 141.415 95.7163 141.369 95.4238C141.082 95.5741 140.842 95.7994 140.673 96.0756C140.505 96.3519 140.415 96.6687 140.413 96.9922C140.094 96.6985 139.718 96.4741 139.308 96.3332C138.899 96.1924 138.464 96.1381 138.032 96.1739C137.601 96.2097 137.181 96.3348 136.8 96.5412C136.419 96.7476 136.085 97.0309 135.819 97.3731C135.602 97.7839 135.314 98.1531 134.968 98.4635C134.587 98.7174 133.908 98.5905 133.863 98.1349C133.85 97.9889 133.875 97.842 133.937 97.7092C134.169 97.052 134.408 96.4022 134.639 95.7524C133.743 95.2745 132.683 96.0288 132.07 96.8354C129.83 99.8676 128.194 98.0453 125.005 98.5382C122.847 98.8668 121.898 100.248 120.681 101.921C116.947 107.067 112.017 111.287 108.619 116.664C108.261 117.224 107.932 117.792 107.626 118.374C107.678 118.233 107.73 118.083 107.79 117.941C109.113 114.45 110.764 111.092 112.719 107.911C113.138 107.232 113.563 106.567 113.997 105.91C114.265 105.506 114.549 105.088 114.826 104.692C115.184 104.169 115.572 103.669 115.938 103.161C116.304 102.653 116.543 102.362 116.849 101.974C117.059 101.705 117.283 101.428 117.507 101.16C117.731 100.891 117.992 100.555 118.254 100.248L119.068 99.3149C119.148 99.2124 119.236 99.1151 119.329 99.0236C119.605 98.695 119.904 98.3739 120.21 98.0602C120.225 98.0189 120.254 97.9844 120.292 97.9631C120.375 97.8735 120.457 97.7839 120.546 97.7017C120.785 97.4254 121.047 97.164 121.293 96.9026C121.711 96.4744 122.137 96.0562 122.57 95.6479C122.929 95.2894 123.317 94.9533 123.668 94.6172C124.019 94.2812 124.325 94.0123 124.669 93.721L125.662 92.8696L126.91 91.8464C128.08 90.9154 129.287 90.0291 130.532 89.1876C130.838 88.9785 131.137 88.7694 131.45 88.5678C131.764 88.3661 132.078 88.1645 132.384 87.9703L133.332 87.3877C133.654 87.1861 133.975 87.0069 134.288 86.8201C134.602 86.6334 134.804 86.5214 135.035 86.387C135.162 86.3039 135.294 86.229 135.431 86.1629C135.984 85.8492 136.544 85.5505 137.104 85.2742C137.388 85.1248 137.664 84.9829 137.955 84.8485C138.247 84.714 138.702 84.49 139.046 84.3257C139.098 84.2946 139.153 84.2696 139.21 84.251C139.539 84.0941 139.867 83.9373 140.211 83.7954C140.681 83.5863 141.159 83.3846 141.63 83.1905C142.1 82.9963 142.713 82.7498 143.266 82.5482C143.818 82.3465 144.483 82.0926 145.103 81.8909C145.723 81.6893 146.35 81.4727 146.977 81.2785C147.605 81.0843 148.232 80.9126 148.874 80.7333C150.129 80.3972 151.406 80.0985 152.691 79.8371C152.691 79.8371 152.743 79.8371 152.758 79.8371C153.251 79.7475 153.744 79.6504 154.252 79.5682H154.341C154.558 79.5234 154.782 79.4861 155.006 79.4562C155.927 79.3068 156.853 79.1799 157.784 79.0753C157.896 79.0753 158.008 79.0753 158.128 79.0305C158.397 79.0305 158.666 78.9782 158.949 78.9484C159.569 78.8886 160.189 78.8438 160.816 78.799C161.444 78.7542 162.123 78.7243 162.781 78.7019C163.438 78.6795 164.147 78.6646 164.835 78.6646C166.657 78.6646 168.457 78.7467 170.234 78.911C170.66 78.911 171.078 78.9782 171.489 79.023C171.9 79.0679 172.363 79.1201 172.796 79.1799C173.229 79.2396 173.67 79.2919 174.095 79.3591L175.387 79.5757C175.753 79.6355 176.134 79.7027 176.5 79.7774C177.411 79.9491 178.308 80.1433 179.196 80.3599C179.615 80.457 180.033 80.5615 180.444 80.681C180.854 80.8005 181.28 80.8976 181.683 81.0171C182.37 81.2113 183.035 81.4204 183.707 81.637L185.328 82.1897H185.373C185.918 82.3839 186.456 82.5855 186.993 82.8021H187.083C187.576 82.9888 188.069 83.1979 188.577 83.3996C189.182 83.6535 189.779 83.9224 190.369 84.1912C190.959 84.4601 191.37 84.6543 191.863 84.9007C192.356 85.1472 192.901 85.4161 193.416 85.6924H193.476C193.969 85.9538 194.462 86.2227 194.97 86.499C195.478 86.7753 195.963 87.0741 196.464 87.3803C196.927 87.6641 197.382 87.9404 197.838 88.2317C198.01 88.3362 198.174 88.4557 198.353 88.5678C198.831 88.8814 199.302 89.2026 199.772 89.5312C200.355 89.927 200.915 90.3378 201.475 90.756C202.035 91.1743 202.453 91.5029 202.924 91.8763C205.66 94.0558 208.204 96.4671 210.527 99.0834C211.363 100.032 212.11 100.958 212.857 101.899C213.492 102.713 214.112 103.535 214.702 104.386C215.232 105.133 215.747 105.88 216.24 106.627C215.747 105.88 215.232 105.133 214.702 104.386C214.545 104.386 214.388 104.341 214.239 104.334C213.361 104.355 212.487 104.214 211.662 103.916C210.992 103.47 210.36 102.971 209.772 102.422C208.084 101.219 205.329 100.995 204.873 98.9863C204.851 98.2949 204.778 97.606 204.656 96.925C204.178 95.7151 202.565 95.5433 201.266 95.5657C200.721 95.5657 200.071 95.6404 199.817 96.1259C199.749 96.3067 199.72 96.4995 199.73 96.6922C199.74 96.885 199.79 97.0736 199.877 97.2461C200.686 99.5188 202.252 101.444 204.313 102.698C206.001 103.721 208.189 104.52 208.66 106.432C208.428 107.082 207.248 107.03 207.166 107.709C207.099 108.247 207.793 108.531 208.04 109.016C208.413 109.719 207.569 110.585 206.77 110.51C205.97 110.372 205.242 109.964 204.709 109.353C202.946 107.717 201.101 105.954 200.459 103.639C200.19 102.683 200.093 101.555 199.324 100.921C199.08 100.75 198.8 100.638 198.505 100.596C198.21 100.553 197.909 100.581 197.627 100.676C197.345 100.771 197.089 100.932 196.881 101.144C196.672 101.357 196.516 101.615 196.426 101.899C195.679 101.473 194.469 101.152 194.074 101.944C193.985 102.24 193.93 102.546 193.909 102.855C193.663 104.095 191.968 104.655 191.796 105.902C191.594 107.344 193.439 108.09 194.88 108.307L198.794 108.927C199.37 108.971 199.928 109.15 200.422 109.45C200.658 109.608 200.834 109.842 200.921 110.113C201.008 110.384 201 110.677 200.9 110.943C200.709 111.207 200.483 111.444 200.228 111.645C199.997 111.932 199.846 112.275 199.791 112.638C199.736 113.002 199.779 113.374 199.915 113.716C200.051 114.058 200.275 114.358 200.565 114.585C200.855 114.811 201.2 114.957 201.565 115.006C202.08 115.006 202.595 114.834 203.118 114.812C204.664 114.745 205.896 116.112 206.628 117.471C207.36 118.83 207.913 120.391 209.152 121.325C211.147 122.818 214.575 122.475 215.546 124.775C215.817 125.752 215.817 126.785 215.546 127.762C215.286 128.741 215.415 129.782 215.904 130.668C216.472 131.482 217.958 131.653 218.384 130.75C218.53 130.334 218.551 129.885 218.443 129.458C218.212 128.031 217.988 126.597 217.771 125.171C217.607 124.103 217.457 122.93 218.085 122.042C218.966 120.824 220.938 120.944 222.08 121.915C223.223 122.885 223.686 124.424 224.007 125.88C224.223 127.203 224.592 128.496 225.105 129.734C225.307 130.929 225.479 132.146 225.598 133.379C225.718 134.611 225.815 135.881 225.859 137.158C225.687 137.012 225.523 136.857 225.367 136.695C224.762 136.067 223.529 133.409 222.431 134.708C222.297 134.881 222.224 135.094 222.224 135.313C222.224 135.532 222.297 135.745 222.431 135.918C222.768 136.359 223.447 136.456 223.709 136.926C223.97 137.397 223.582 138.181 223.059 138.554C222.5 138.845 221.995 139.229 221.565 139.69C220.856 140.705 221.565 142.244 220.818 143.282C220.228 144.171 218.974 144.23 217.898 144.342L217.532 144.402C217.226 142.274 216.233 140.541 213.335 139.884C209.332 138.98 204.066 142.296 201.818 145.313C199.302 148.689 198.084 153.461 194.26 155.157C191.504 156.367 187.591 155.904 186.247 158.63C185.044 161.042 187.135 163.76 187.457 166.442C187.658 168.212 187.076 169.967 186.941 171.737C186.807 173.507 187.337 175.591 188.95 176.33C189.854 176.741 190.982 176.688 191.706 177.368C192.998 178.585 191.938 181.102 193.2 182.32C193.701 182.683 194.252 182.972 194.835 183.179C197.726 184.672 197.644 188.892 196.329 191.842C196.284 191.954 196.232 192.051 196.187 192.156C187.158 197.548 176.889 200.519 166.375 200.781C155.861 201.043 145.457 198.586 136.17 193.649C131.454 191.129 127.086 188.006 123.175 184.359C121.536 182.832 119.986 181.214 118.53 179.512C117.504 178.332 116.531 177.109 115.61 175.844C115.139 175.202 114.676 174.552 114.236 173.88C110.958 169.066 108.399 163.8 106.64 158.249C105.555 154.872 104.773 151.405 104.302 147.89C104.123 146.516 103.974 145.127 103.877 143.723C104.194 144.057 104.575 144.326 104.997 144.513C105.418 144.7 105.873 144.802 106.334 144.813C107.828 144.835 109.045 143.603 109.627 142.229Z" fill="#FFBBCE"/>
<path d="M217.995 155.792C218.189 154.037 217.607 152.289 217.577 150.519C217.577 149.302 217.644 148.017 217.666 146.785C218.711 146.738 219.749 146.593 220.766 146.351C220.985 146.323 221.188 146.22 221.341 146.06C221.444 145.86 221.488 145.635 221.468 145.41C221.543 144.036 222.865 143.133 224.059 142.423C224.653 142.048 225.284 141.736 225.942 141.49C225.942 141.639 225.942 141.773 225.942 141.915C225.714 148.557 224.4 155.117 222.05 161.333C221.012 164.093 219.764 166.77 218.316 169.339C217.711 170.452 217.054 171.543 216.367 172.618C215.516 173.94 214.627 175.24 213.671 176.487C212.715 177.734 211.834 178.854 210.84 179.975C209.471 181.528 208.03 183.022 206.516 184.456C205.172 185.71 203.768 186.898 202.311 188.033C205.642 179.071 208.786 169.937 214.492 162.319C215.994 160.295 217.711 158.264 217.995 155.792Z" fill="#FFBBCE"/>
<path d="M147.134 186.644C147.518 186.645 147.901 186.605 148.277 186.524C148.856 186.42 149.402 186.18 149.87 185.824C150.339 185.469 150.716 185.007 150.973 184.478C151.298 183.63 151.455 182.727 151.436 181.819C151.448 181.21 151.513 180.603 151.63 180.004C151.941 178.955 152.426 177.966 153.064 177.077C153.549 176.371 153.966 175.62 154.311 174.836C154.804 173.341 155.029 171.771 154.976 170.198V169.825C155.297 159.078 158.292 150.355 163.639 144.596C164.324 143.742 165.235 143.098 166.268 142.737C166.881 142.585 167.525 142.614 168.121 142.821C168.718 143.028 169.242 143.403 169.629 143.902C169.819 144.165 169.988 144.442 170.137 144.731C170.366 145.188 170.669 145.604 171.033 145.963C171.323 146.218 171.668 146.404 172.041 146.505C172.414 146.606 172.805 146.62 173.184 146.546C173.74 146.45 174.268 146.234 174.732 145.915C175.196 145.595 175.585 145.178 175.873 144.693C176.821 143.021 176.62 140.959 176.508 139.309L175.955 132.639C175.873 131.609 175.753 130.197 174.924 129.234C174.232 128.558 173.378 128.069 172.445 127.815C171.767 127.602 171.123 127.292 170.533 126.896C169.465 126.097 168.987 124.827 168.487 123.49C168.223 122.719 167.898 121.97 167.516 121.25C167.11 120.616 166.539 120.104 165.863 119.771C165.188 119.438 164.434 119.296 163.684 119.36C163.391 119.388 163.108 119.489 162.863 119.653C162.618 119.818 162.418 120.04 162.28 120.301C162.04 119.777 161.695 119.307 161.266 118.922C160.837 118.536 160.333 118.243 159.786 118.061C157.545 117.426 154.886 119.174 152.28 120.862C149.905 122.407 147.657 123.849 145.894 123.543C145.454 123.461 144.998 123.334 144.565 123.214C143.647 122.886 142.67 122.751 141.697 122.818C139.128 123.177 137.821 125.962 136.962 128.352L132.787 140.026C132.264 141.475 131.6 143.073 130.218 143.603C129.654 143.784 129.063 143.87 128.47 143.857C127.856 143.851 127.244 143.939 126.656 144.118C126.15 144.297 125.703 144.612 125.364 145.029C125.026 145.445 124.808 145.947 124.736 146.478C124.612 147.564 124.751 148.663 125.141 149.683C125.531 150.704 126.16 151.615 126.977 152.341C127.758 153.002 128.579 153.616 129.434 154.178C131.323 155.463 133.101 156.68 133.87 158.66C134.226 159.762 134.4 160.915 134.385 162.073C134.363 163.323 134.566 164.568 134.983 165.747C135.449 166.718 136.061 167.612 136.798 168.398C137.232 168.891 137.638 169.407 138.015 169.944C139.352 171.961 139.718 174.425 140.076 176.875C140.121 177.181 140.174 177.495 140.218 177.801C140.637 180.49 141.361 183.492 143.542 185.367C144.553 186.199 145.824 186.651 147.134 186.644Z" fill="#FF98B4"/>
<path d="M217.562 144.417L217.928 144.357C219.003 144.245 220.258 144.186 220.848 143.297C221.535 142.259 220.848 140.72 221.595 139.705C222.024 139.244 222.53 138.86 223.089 138.569C223.611 138.196 224.059 137.501 223.738 136.941C223.417 136.381 222.797 136.374 222.461 135.933C222.327 135.76 222.254 135.547 222.254 135.328C222.254 135.109 222.327 134.896 222.461 134.723C223.559 133.424 224.791 136.082 225.396 136.71C225.553 136.872 225.717 137.027 225.889 137.173C225.897 137.287 225.897 137.402 225.889 137.516C225.889 137.875 225.889 138.263 225.889 138.614C225.889 138.965 225.889 139.361 225.889 139.719C225.889 140.078 225.889 140.317 225.889 140.616C225.889 140.914 225.889 141.213 225.889 141.504C225.232 141.75 224.601 142.063 224.007 142.438C222.812 143.125 221.49 144.029 221.416 145.425C221.435 145.65 221.391 145.875 221.289 146.075C221.136 146.235 220.933 146.338 220.714 146.366C219.696 146.608 218.659 146.753 217.614 146.8" fill="#FF98B4"/>
<path d="M217.667 146.785C217.667 148.017 217.562 149.302 217.577 150.519C217.577 152.289 218.189 154.037 217.995 155.792C217.711 158.264 215.994 160.273 214.492 162.289C208.787 169.907 205.642 179.049 202.311 188.003C201.691 188.496 201.064 188.959 200.429 189.415C199.929 189.773 199.421 190.162 198.936 190.475C198.45 190.789 197.897 191.162 197.375 191.491C197.009 191.723 196.628 191.947 196.262 192.171C196.307 192.066 196.359 191.969 196.404 191.857C197.748 188.907 197.83 184.657 194.91 183.194C194.326 182.987 193.776 182.698 193.274 182.335C191.982 181.117 193.043 178.6 191.781 177.383C191.034 176.703 189.929 176.756 189.025 176.345C187.412 175.598 186.889 173.537 187.016 171.752C187.143 169.967 187.763 168.227 187.531 166.457C187.21 163.776 185.119 161.057 186.321 158.645C187.666 155.941 191.549 156.404 194.335 155.172C198.189 153.476 199.376 148.704 201.893 145.328C204.134 142.341 209.406 138.995 213.41 139.899C216.307 140.556 217.301 142.289 217.607 144.417" fill="#FF98B4"/>
<path d="M222.133 121.929C220.99 120.959 219.018 120.839 218.137 122.056C217.51 122.93 217.659 124.118 217.823 125.186C218.04 126.612 218.264 128.046 218.495 129.473C218.603 129.9 218.582 130.349 218.436 130.765C218.01 131.668 216.524 131.512 215.956 130.683C215.467 129.796 215.338 128.756 215.598 127.777C215.87 126.8 215.87 125.767 215.598 124.79C214.627 122.49 211.199 122.833 209.205 121.339C207.965 120.406 207.412 118.852 206.68 117.486C205.948 116.119 204.716 114.76 203.17 114.827C202.647 114.827 202.132 115.044 201.617 115.021C201.252 114.972 200.907 114.826 200.617 114.599C200.327 114.373 200.103 114.073 199.967 113.731C199.831 113.389 199.788 113.017 199.843 112.653C199.898 112.289 200.049 111.947 200.28 111.66C200.535 111.459 200.762 111.222 200.952 110.958C201.052 110.692 201.06 110.399 200.973 110.128C200.886 109.857 200.71 109.623 200.474 109.465C199.98 109.165 199.422 108.986 198.846 108.942L194.932 108.322C193.491 108.105 191.646 107.358 191.848 105.917C192.02 104.67 193.715 104.11 193.961 102.87C193.982 102.561 194.037 102.255 194.126 101.959C194.492 101.152 195.679 101.481 196.426 101.899C196.524 101.624 196.684 101.375 196.894 101.172C197.104 100.968 197.358 100.816 197.636 100.727C197.914 100.638 198.21 100.615 198.498 100.659C198.787 100.703 199.062 100.813 199.301 100.98C200.048 101.615 200.168 102.743 200.437 103.699C201.079 106.014 202.924 107.777 204.686 109.412C205.22 110.023 205.948 110.432 206.748 110.57C207.547 110.615 208.391 109.748 208.017 109.076C207.771 108.591 207.076 108.329 207.143 107.769C207.24 107.09 208.42 107.142 208.637 106.492C208.167 104.58 205.978 103.781 204.29 102.758C202.23 101.504 200.663 99.5786 199.854 97.3059C199.768 97.1333 199.718 96.9447 199.707 96.752C199.697 96.5592 199.727 96.3664 199.794 96.1856C200.048 95.7002 200.698 95.6255 201.243 95.6255C202.543 95.6255 204.156 95.7749 204.634 96.9848C204.756 97.6658 204.828 98.3546 204.851 99.0461C205.306 101.055 208.062 101.287 209.75 102.482C210.338 103.03 210.97 103.53 211.639 103.975C212.465 104.273 213.339 104.415 214.216 104.393C214.365 104.393 214.522 104.393 214.679 104.446C215.209 105.193 215.725 105.939 216.218 106.686C216.71 107.433 217.188 108.232 217.644 109.024C219.83 112.761 221.608 116.722 222.947 120.839C223.417 122.288 223.835 123.752 224.201 125.246C224.567 126.739 224.874 128.233 225.12 129.786C224.616 128.535 224.26 127.229 224.059 125.895C223.738 124.439 223.268 122.908 222.133 121.929Z" fill="#FF98B4"/>
<path d="M170.876 93.5866C170.294 92.8397 170.466 91.7419 170.13 90.868C169.502 89.4117 167.575 88.8889 166.903 87.455C166.642 86.9023 166.582 86.2301 166.156 85.8194C165.731 85.4086 165.23 85.4086 164.827 85.0725C163.923 84.3854 164.297 82.832 165.253 82.2046C167.65 80.6736 172.064 82.4436 174.133 83.9373C176.799 85.8642 179.398 88.1869 182.946 87.9553C183.916 87.8956 184.932 87.6267 185.851 87.9553C186.769 88.284 187.344 89.6731 186.538 90.2482C186.105 90.5768 185.485 90.4797 184.984 90.7112C184.073 91.1369 183.984 92.4588 184.432 93.3625C184.88 94.2662 185.679 94.9384 186.202 95.7973C186.718 96.6326 186.948 97.6128 186.859 98.5905C186.848 98.9441 186.763 99.2915 186.61 99.6104C186.457 99.9294 186.239 100.213 185.97 100.443C184.872 101.324 183.192 100.57 182.236 99.5166C181.28 98.4635 180.66 97.0893 179.45 96.3649C178.828 96.0345 178.157 95.8027 177.464 95.6778L172.848 94.5799C172.097 94.4826 171.402 94.1322 170.876 93.5866Z" fill="#FF98B4"/>
<path d="M103.817 138.883C103.817 138.002 103.817 137.135 103.899 136.261C103.981 135.388 104.011 134.536 104.101 133.67C104.168 132.975 104.243 132.288 104.34 131.601C104.437 130.914 104.541 130.16 104.661 129.435C105.011 127.298 105.478 125.181 106.057 123.095C106.281 122.295 106.52 121.504 106.804 120.72C107.088 119.935 107.334 119.159 107.626 118.382C107.932 117.799 108.261 117.232 108.619 116.672C112.032 111.287 116.939 107.067 120.673 101.899C121.891 100.226 122.839 98.8444 124.997 98.5158C128.186 98.0228 129.8 99.8451 132.063 96.8129C132.675 96.0063 133.736 95.252 134.632 95.73C134.4 96.3798 134.161 97.0295 133.93 97.6868C133.868 97.8196 133.842 97.9665 133.855 98.1125C133.9 98.568 134.602 98.695 134.96 98.4411C135.306 98.1306 135.594 97.7615 135.812 97.3507C136.078 97.0085 136.411 96.7252 136.792 96.5188C137.173 96.3124 137.593 96.1873 138.025 96.1515C138.456 96.1157 138.891 96.1699 139.301 96.3108C139.71 96.4516 140.086 96.676 140.405 96.9698C140.436 96.6635 140.546 96.3704 140.724 96.1192C140.902 95.8679 141.142 95.6669 141.421 95.5358C141.467 95.8283 141.574 96.1076 141.736 96.3556C141.897 96.6036 142.11 96.8146 142.359 96.9747C142.608 97.1348 142.888 97.2404 143.18 97.2847C143.473 97.3289 143.772 97.3106 144.057 97.2312C144.236 96.6412 143.183 96.5366 142.817 96.0362C142.451 95.5358 142.884 94.901 143.318 94.5425C144.489 93.5292 145.974 92.9514 147.522 92.9069C148.501 92.9069 149.554 93.0712 150.405 92.5708C150.898 92.2796 151.249 91.824 151.75 91.5178C152.825 90.9054 154.169 91.4655 155.252 92.063C156.746 92.8845 158.24 93.9226 158.785 95.5358C159.33 97.149 158.143 99.3224 156.462 99.1132C156.047 98.9823 155.611 98.9341 155.178 98.9713C154.891 99.098 154.65 99.3086 154.486 99.5753C154.322 99.8421 154.243 100.152 154.259 100.465C154.291 101.081 154.195 101.696 153.975 102.272C153.684 102.818 152.803 103.086 152.481 102.571C151.69 101.824 151.787 100.555 151.989 99.4792C152.19 98.4037 152.407 97.1938 151.765 96.32C151.122 95.4462 149.285 95.7151 149.404 96.798C149.487 97.4403 150.211 97.9033 150.151 98.5531C150.092 99.2029 149.322 99.5539 148.658 99.524C148.01 99.4017 147.349 99.3716 146.693 99.4344C146.044 99.5838 145.528 100.428 145.991 100.928C146.798 101.839 148.889 100.286 149.3 101.414C149.419 101.705 149.3 102.033 149.3 102.34C149.382 103.288 150.57 103.639 151.54 103.751C152.477 103.949 153.45 103.879 154.349 103.55C155.215 103.146 155.805 102.011 155.312 101.204C155.444 101.135 155.589 101.094 155.738 101.083C155.887 101.073 156.037 101.094 156.177 101.144C156.318 101.195 156.446 101.274 156.555 101.377C156.663 101.48 156.748 101.604 156.806 101.742C157.009 102.307 157.045 102.919 156.91 103.505C157.919 103.281 158.815 104.132 159.39 104.998C159.965 105.865 160.518 106.836 161.496 107.134C162.474 107.433 163.834 107.022 164.349 107.919C165.014 109.076 163.079 110.547 163.759 111.698C164.147 112.347 165.073 112.325 165.805 112.527C167.755 113.079 168.427 115.925 167.105 117.441C165.783 118.957 163.132 118.875 161.727 117.441C160.749 116.448 160.353 115.044 159.644 113.849C158.934 112.654 157.605 111.608 156.275 111.959C155.759 112.154 155.286 112.451 154.886 112.833L152.945 114.468C152.713 114.609 152.517 114.802 152.374 115.031C152.23 115.261 152.141 115.521 152.116 115.79C152.153 116.224 152.489 116.537 152.638 116.97C153.042 118.143 151.346 119.256 150.286 118.613C149.225 117.971 149.106 116.373 149.83 115.335C150.838 113.946 153.109 113.244 153.049 111.526C151.891 110.577 150.062 111.571 149.39 112.915C148.717 114.259 148.687 115.835 148.12 117.224C147.552 118.613 145.954 119.846 144.617 119.166C144.968 117.964 145.304 116.776 145.655 115.589C144.804 114.946 143.825 116.806 142.81 116.5C142.19 116.306 142.115 115.409 142.384 114.812C142.74 114.266 143.028 113.679 143.243 113.064C143.437 111.884 142.123 110.824 140.935 111.025C140.355 111.169 139.831 111.484 139.432 111.929C139.033 112.373 138.776 112.928 138.695 113.52C138.65 113.991 138.547 114.456 138.388 114.902C137.94 115.828 136.79 116.112 135.842 116.5C134.893 116.888 133.9 117.837 134.296 118.785C134.475 119.203 134.916 119.599 134.759 120.025C134.602 120.451 134.049 120.57 134.049 120.973C134.049 121.242 134.341 121.429 134.594 121.534C135.229 121.795 135.931 121.885 136.551 122.183C136.87 122.308 137.147 122.523 137.347 122.801C137.547 123.079 137.662 123.409 137.679 123.752C137.604 124.715 136.454 125.178 135.909 125.992C135.364 126.806 135.468 127.77 135.162 128.644C134.763 129.373 134.268 130.046 133.691 130.645C132.085 132.833 131.712 135.649 130.927 138.241C130.576 139.406 129.942 140.713 128.739 140.937C128.072 140.988 127.403 140.857 126.805 140.556C125.072 139.869 123.272 139.137 122.07 137.733C120.867 136.329 120.442 133.999 121.689 132.647C121.835 132.456 122.044 132.324 122.279 132.273C122.606 132.29 122.922 132.399 123.19 132.587C123.648 132.755 124.144 132.791 124.621 132.689C125.098 132.587 125.537 132.353 125.886 132.012C126.571 131.318 127.116 130.499 127.492 129.6C127.96 128.644 128.438 127.68 128.926 126.709C128.609 126.506 128.233 126.415 127.858 126.45C127.483 126.486 127.131 126.645 126.857 126.903C126.326 127.434 125.851 128.017 125.438 128.644C124.004 130.444 121.629 131.235 119.336 131.504C118.749 131.537 118.17 131.658 117.619 131.863C115.908 132.609 115.415 135.171 113.608 135.716C113.087 135.791 112.573 135.906 112.069 136.06C111.732 136.27 111.442 136.55 111.221 136.881C110.999 137.212 110.851 137.587 110.785 137.979C110.506 139.428 110.127 140.855 109.65 142.251C109.06 143.603 107.85 144.835 106.379 144.85C105.917 144.839 105.463 144.737 105.041 144.55C104.62 144.363 104.239 144.094 103.921 143.76C103.847 142.423 103.802 141.086 103.802 139.734C103.779 139.443 103.779 139.167 103.817 138.883Z" fill="#FF98B4"/>
<path d="M128.53 164.253C129.441 164.433 129.62 164.963 130.113 165.643C130.763 166.516 131.682 167.398 132.272 168.264C133.265 169.758 132.369 171.998 133.676 173.253C133.945 173.507 134.288 173.671 134.527 173.947C134.764 174.274 134.864 174.68 134.805 175.079C134.746 175.478 134.534 175.839 134.214 176.083C133.879 176.309 133.485 176.434 133.081 176.442C132.677 176.45 132.279 176.341 131.936 176.128C131.252 175.684 130.755 175.003 130.539 174.216C130.451 173.641 130.205 173.1 129.83 172.655C129.083 172.006 127.918 172.491 126.939 172.349C122.749 171.767 124.549 163.469 128.53 164.253Z" fill="#FF98B4"/>
<g filter="url(#filter0_d)">
<path d="M282.726 157.164C286.614 157.482 290.507 156.598 293.877 154.633C297.248 152.668 299.934 149.716 301.573 146.175C303.211 142.634 303.724 138.676 303.041 134.834C302.358 130.993 300.513 127.454 297.754 124.695C294.995 121.936 291.456 120.091 287.614 119.408C283.773 118.725 279.815 119.237 276.274 120.876C272.733 122.515 269.781 125.201 267.816 128.572C265.851 131.942 264.967 135.835 265.285 139.723C265.658 144.224 267.615 148.447 270.808 151.641C274.002 154.834 278.225 156.791 282.726 157.164Z" fill="#FAFAFA"/>
</g>
<path fill-rule="evenodd" clip-rule="evenodd" d="M282.434 133.867C282.434 133.188 281.888 132.638 281.213 132.638H281.197C280.522 132.638 279.975 133.188 279.975 133.867C279.975 134.546 280.522 135.097 281.197 135.097H281.213C281.888 135.097 282.434 134.546 282.434 133.867Z" fill="#FD3E72"/>
<path d="M285.993 137.556L291.041 141.859V143.815C291.041 145.111 289.998 146.162 288.711 146.162H278.617C277.33 146.162 276.287 145.111 276.287 143.815V142.25L279.781 139.512L281.723 141.076L285.993 137.556Z" fill="#FD3E72"/>
<path fill-rule="evenodd" clip-rule="evenodd" d="M286.68 137.556L282.278 140.748L280.286 139.336L276.287 142.093V143.683C276.287 145.052 277.539 146.162 279.084 146.162H289.473C291.018 146.162 292.27 145.052 292.27 143.683V141.748L286.68 137.556ZM286.672 138.477L291.471 142.076V143.683C291.471 144.661 290.577 145.454 289.473 145.454H279.084C277.981 145.454 277.086 144.661 277.086 143.683V142.439L280.279 140.238L282.284 141.659L286.672 138.477Z" fill="#FD3E72"/>
<path fill-rule="evenodd" clip-rule="evenodd" d="M288.845 131.654C289.98 131.654 290.9 132.645 290.9 133.867V143.703C290.9 144.925 289.98 145.916 288.845 145.916H279.712C278.577 145.916 277.657 144.925 277.657 143.703V133.867C277.657 132.645 278.577 131.654 279.712 131.654H288.845ZM292.27 133.867C292.27 131.83 290.737 130.179 288.845 130.179H279.712C277.82 130.179 276.287 131.83 276.287 133.867V143.703C276.287 145.74 277.82 147.391 279.712 147.391H288.845C290.737 147.391 292.27 145.74 292.27 143.703V133.867Z" fill="#FD3E72"/>
<path fill-rule="evenodd" clip-rule="evenodd" d="M286.986 139.232L290.988 142.657C291.281 142.908 291.757 142.908 292.05 142.657C292.343 142.406 292.343 141.999 292.05 141.748L288.043 138.318L288.033 138.31C287.466 137.843 286.769 137.556 286.009 137.556C285.249 137.556 284.552 137.843 283.985 138.31L283.975 138.318L278.966 142.605C278.673 142.856 278.673 143.264 278.966 143.515C279.259 143.766 279.735 143.766 280.029 143.515L285.032 139.232C285.377 138.95 285.715 138.842 286.009 138.842C286.303 138.842 286.641 138.95 286.986 139.232Z" fill="#FD3E72"/>
<path fill-rule="evenodd" clip-rule="evenodd" d="M281.426 141.091L282.405 142.264C282.693 142.61 283.16 142.61 283.448 142.264C283.736 141.919 283.736 141.359 283.448 141.013L282.464 139.834L282.454 139.822C281.898 139.18 281.213 138.785 280.467 138.785C279.721 138.785 279.037 139.18 278.48 139.822L278.47 139.834L276.503 142.193C276.215 142.538 276.215 143.098 276.503 143.444C276.791 143.789 277.258 143.789 277.546 143.444L279.508 141.091C279.847 140.702 280.179 140.554 280.467 140.554C280.756 140.554 281.087 140.702 281.426 141.091Z" fill="#FD3E72"/>
<g filter="url(#filter1_d)">
<path d="M147.456 268.319C150.993 269.948 154.944 270.452 158.777 269.763C162.609 269.074 166.138 267.226 168.886 264.467C171.634 261.708 173.469 258.173 174.143 254.338C174.817 250.503 174.298 246.554 172.655 243.024C171.012 239.493 168.326 236.552 164.958 234.598C161.59 232.644 157.703 231.77 153.823 232.096C149.943 232.421 146.256 233.929 143.26 236.417C140.265 238.905 138.105 242.252 137.073 246.007C135.882 250.353 136.271 254.981 138.173 259.067C140.074 263.153 143.364 266.432 147.456 268.319Z" fill="#FAFAFA"/>
</g>
<path d="M163.081 257.794L161.885 254.206C162.919 252.677 163.293 250.866 162.938 249.11C162.582 247.354 161.522 245.773 159.953 244.66C158.384 243.547 156.414 242.978 154.409 243.06C152.405 243.141 150.501 243.867 149.053 245.102C147.605 246.337 146.71 247.998 146.536 249.775C146.362 251.552 146.92 253.325 148.106 254.764C149.293 256.203 151.026 257.211 152.985 257.599C154.944 257.987 156.995 257.729 158.756 256.874L163.081 257.794Z" fill="#FD3E72"/>
<path d="M163.081 257.794L163.911 257.518L164.395 258.968L162.899 258.65L163.081 257.794ZM161.885 254.206L161.055 254.482C160.969 254.224 161.008 253.941 161.16 253.716L161.885 254.206ZM158.756 256.874L158.374 256.087C158.55 256.002 158.748 255.978 158.939 256.018L158.756 256.874ZM162.251 258.071L161.055 254.482L162.715 253.929L163.911 257.518L162.251 258.071ZM161.16 253.716C162.067 252.374 162.387 250.802 162.08 249.284L163.795 248.936C164.199 250.93 163.771 252.979 162.61 254.696L161.16 253.716ZM162.08 249.284C161.772 247.763 160.848 246.368 159.447 245.374L160.459 243.946C162.195 245.178 163.392 246.945 163.795 248.936L162.08 249.284ZM159.447 245.374C158.043 244.378 156.265 243.86 154.445 243.934L154.374 242.185C156.563 242.097 158.726 242.716 160.459 243.946L159.447 245.374ZM154.445 243.934C152.624 244.008 150.911 244.667 149.621 245.768L148.485 244.436C150.091 243.067 152.185 242.274 154.374 242.185L154.445 243.934ZM149.621 245.768C148.332 246.866 147.558 248.324 147.407 249.86L145.666 249.69C145.863 247.671 146.877 245.808 148.485 244.436L149.621 245.768ZM147.407 249.86C147.257 251.395 147.736 252.939 148.782 254.208L147.431 255.321C146.104 253.711 145.468 251.71 145.666 249.69L147.407 249.86ZM148.782 254.208C149.83 255.479 151.379 256.389 153.155 256.74L152.815 258.457C150.673 258.033 148.755 256.927 147.431 255.321L148.782 254.208ZM153.155 256.74C154.931 257.092 156.788 256.857 158.374 256.087L159.139 257.661C157.202 258.601 154.957 258.881 152.815 258.457L153.155 256.74ZM158.939 256.018L163.263 256.939L162.899 258.65L158.574 257.73L158.939 256.018Z" fill="#FD3E72"/>
<path d="M154.8 250.433V250.442" stroke="white" stroke-width="1.75" stroke-linecap="round" stroke-linejoin="round"/>
<path d="M158.48 250.433V250.442" stroke="white" stroke-width="1.75" stroke-linecap="round" stroke-linejoin="round"/>
<path d="M151.119 250.433V250.442" stroke="white" stroke-width="1.75" stroke-linecap="round" stroke-linejoin="round"/>
<g filter="url(#filter2_d)">
<path d="M70.6788 92.2928C74.9735 92.6439 79.2725 91.6691 82.9957 89.4999C86.719 87.3308 89.6872 84.0718 91.4999 80.1626C93.3126 76.2534 93.8825 71.8822 93.1327 67.6389C92.3829 63.3956 90.3494 59.4845 87.3068 56.4332C84.2641 53.382 80.3587 51.3376 76.1175 50.5758C71.8764 49.8141 67.5036 50.3717 63.5894 52.1734C59.6751 53.975 56.4077 56.9341 54.2281 60.6512C52.0485 64.3684 51.0616 68.6647 51.4006 72.9603C51.7985 77.9458 53.9559 82.6274 57.4874 86.1689C61.0189 89.7103 65.6944 91.8809 70.6788 92.2928Z" fill="#FAFAFA"/>
</g>
<path d="M72.619 59.8195C75.0751 59.8844 77.4125 60.8795 79.1507 62.5999C80.8888 64.3203 81.8953 66.6353 81.9632 69.0686C82.0225 71.1357 81.3924 73.1645 80.1706 74.841L80.0765 74.9698L73.3002 84.1034C73.1627 84.2933 72.9807 84.4473 72.7698 84.5521C72.5589 84.6569 72.3255 84.7093 72.0896 84.7049C71.8538 84.7006 71.6225 84.6395 71.4157 84.527C71.209 84.4145 71.0329 84.2539 70.9026 84.059L64.7762 75.0319C63.6155 73.2824 62.8222 71.4486 62.8222 69.2906C62.8237 68.0273 63.0798 66.777 63.5756 65.6132C64.0715 64.4493 64.797 63.3953 65.7096 62.513C66.6222 61.6308 67.7035 60.938 68.89 60.4755C70.0765 60.013 71.3443 59.7899 72.619 59.8195ZM72.395 74.9165C73.4726 74.9156 74.5258 74.5982 75.4214 74.0044C76.317 73.4105 77.0148 72.567 77.4266 71.5803C77.8384 70.5936 77.9457 69.5081 77.7349 68.461C77.5241 67.4139 77.0047 66.4522 76.2424 65.6976C75.4801 64.9429 74.509 64.4291 73.452 64.2211C72.395 64.0131 71.2995 64.1203 70.304 64.5291C69.3084 64.9379 68.4576 65.63 67.8589 66.5178C67.2603 67.4056 66.9408 68.4494 66.9408 69.5171C66.9414 70.2261 67.083 70.9281 67.3574 71.583C67.6318 72.2379 68.0337 72.8328 68.5402 73.3337C69.0466 73.8347 69.6477 74.2319 70.3091 74.5027C70.9705 74.7735 71.6793 74.9126 72.395 74.912V74.9165Z" fill="#FD3E72"/>
<g filter="url(#filter3_d)">
<path d="M60.3628 213.021C64.8861 213.391 69.4138 212.363 73.3343 210.077C77.2548 207.791 80.3791 204.357 82.2853 200.238C84.1914 196.119 84.7875 191.515 83.993 187.047C83.1985 182.578 81.0517 178.462 77.8426 175.253C74.6335 172.043 70.5167 169.897 66.0485 169.102C61.5802 168.308 56.9758 168.904 52.8571 170.81C48.7385 172.716 45.3041 175.84 43.018 179.761C40.7319 183.681 39.7041 188.209 40.0737 192.732C40.5068 197.968 42.7835 202.881 46.4987 206.596C50.2139 210.312 55.1266 212.588 60.3628 213.021Z" fill="#FAFAFA"/>
</g>
<path fill-rule="evenodd" clip-rule="evenodd" d="M63.8057 183.223C67.0173 183.223 69.6209 185.988 69.6209 189.399C69.6209 192.81 67.0173 195.575 63.8057 195.575C60.5941 195.575 57.9906 192.81 57.9906 189.399C57.9906 185.988 60.5941 183.223 63.8057 183.223ZM71.7227 189.399C71.7227 184.755 68.1782 180.99 63.8057 180.99C59.4333 180.99 55.8887 184.755 55.8887 189.399C55.8887 194.042 59.4333 197.807 63.8057 197.807C68.1782 197.807 71.7227 194.042 71.7227 189.399Z" fill="#FD3E72"/>
<path fill-rule="evenodd" clip-rule="evenodd" d="M59.737 193.985C59.3302 193.592 58.6706 193.592 58.2638 193.985L51.4436 200.677C51.0368 201.069 51.0368 201.706 51.4436 202.099C51.8505 202.492 52.51 202.492 52.9168 202.099L59.737 195.408C60.1438 195.015 60.1438 194.378 59.737 193.985Z" fill="#FD3E72"/>
<g filter="url(#filter4_d)">
<path d="M216.313 58.966C220.499 59.3084 224.69 58.3578 228.319 56.2424C231.947 54.1271 234.839 50.949 236.604 47.1374C238.369 43.3258 238.921 39.0645 238.187 34.9289C237.452 30.7934 235.466 26.9829 232.496 24.0123C229.527 21.0416 225.717 19.0539 221.582 18.3177C217.447 17.5814 213.185 18.1321 209.373 19.8953C205.561 21.6585 202.381 24.5492 200.265 28.1771C198.148 31.8049 197.195 35.9951 197.536 40.1815C197.938 45.0277 200.045 49.5744 203.483 53.0136C206.921 56.4529 211.467 58.5619 216.313 58.966Z" fill="#FAFAFA"/>
</g>
<path d="M216.204 39.4719C215.301 39.0793 214.536 38.4335 214.002 37.6146C213.468 36.7958 213.189 35.84 213.2 34.8659C213.162 34.2314 213.255 33.5959 213.474 32.9982C213.693 32.4006 214.033 31.8532 214.473 31.3897C214.913 30.9262 215.445 30.5562 216.034 30.3023C216.624 30.0484 217.26 29.916 217.903 29.9131C218.547 29.9103 219.184 30.037 219.776 30.2856C220.368 30.5342 220.902 30.8994 221.347 31.359C221.791 31.8186 222.136 32.3629 222.36 32.9586C222.585 33.5543 222.684 34.1889 222.652 34.8237C222.67 35.8055 222.394 36.7706 221.858 37.5976C221.322 38.4247 220.551 39.0768 219.641 39.4719C226.915 40.59 226.587 48.3674 226.587 48.3674L209.385 48.4447C209.385 48.4447 208.994 40.5478 216.204 39.4719Z" fill="#FD3E72"/>
<g filter="url(#filter5_d)">
<circle r="22.0844" transform="matrix(-1 0 0 1 246.818 230.802)" fill="#FD3E72"/>
</g>
<circle r="19.1306" transform="matrix(-1 0 0 1 246.818 230.802)" fill="#FD3E72" stroke="white"/>
<g filter="url(#filter6_d)">
<path d="M254.211 234.251C254.457 233.998 254.61 233.648 254.61 233.261L254.614 225.131C254.617 221.12 251.444 217.859 247.539 217.862C243.635 217.865 240.456 221.132 240.453 225.144L240.449 230.285C240.448 231.057 241.058 231.683 241.81 231.683C242.562 231.682 243.172 231.055 243.172 230.282L243.176 225.142C243.178 222.673 245.135 220.663 247.537 220.661C249.94 220.659 251.893 222.665 251.891 225.133L251.887 233.263C251.886 234.036 252.495 234.662 253.247 234.662C253.623 234.661 253.964 234.504 254.211 234.251Z" fill="white"/>
<path d="M252.677 243.318C254.562 243.318 256.096 242.146 256.096 240.705V232.518C256.096 231.077 254.562 229.905 252.677 229.905H241.964C240.078 229.905 238.544 231.077 238.544 232.518V240.705C238.544 242.146 240.078 243.318 241.964 243.318H252.677Z" fill="white"/>
<path d="M240.345 233.205C240.345 232.407 241.282 231.755 242.428 231.755H252.214C253.36 231.755 254.297 232.407 254.297 233.205V240.018C254.297 240.815 253.36 241.468 252.214 241.468H242.428C241.282 241.468 240.345 240.815 240.345 240.018V233.205Z" fill="white"/>
<path d="M245.557 235.045C245.557 234.145 246.363 233.416 247.357 233.416C248.351 233.416 249.157 234.145 249.157 235.045C249.157 235.642 248.803 236.169 248.275 236.453L248.775 240.354H247.313H245.851L246.356 236.407C245.874 236.115 245.557 235.61 245.557 235.045Z" fill="#FD3E72"/>
</g>
<defs>
<filter id="filter0_d" x="254.222" y="112.114" width="60.1135" height="60.1135" filterUnits="userSpaceOnUse" color-interpolation-filters="sRGB">
<feFlood flood-opacity="0" result="BackgroundImageFix"/>
<feColorMatrix in="SourceAlpha" type="matrix" values="0 0 0 0 0 0 0 0 0 0 0 0 0 0 0 0 0 0 127 0" result="hardAlpha"/>
<feOffset dy="4"/>
<feGaussianBlur stdDeviation="5.5"/>
<feColorMatrix type="matrix" values="0 0 0 0 0 0 0 0 0 0 0 0 0 0 0 0 0 0 0.15 0"/>
<feBlend mode="normal" in2="BackgroundImageFix" result="effect1_dropShadow"/>
<feBlend mode="normal" in="SourceGraphic" in2="effect1_dropShadow" result="shape"/>
</filter>
<filter id="filter1_d" x="125.396" y="225.029" width="60.0343" height="60.0343" filterUnits="userSpaceOnUse" color-interpolation-filters="sRGB">
<feFlood flood-opacity="0" result="BackgroundImageFix"/>
<feColorMatrix in="SourceAlpha" type="matrix" values="0 0 0 0 0 0 0 0 0 0 0 0 0 0 0 0 0 0 127 0" result="hardAlpha"/>
<feOffset dy="4"/>
<feGaussianBlur stdDeviation="5.5"/>
<feColorMatrix type="matrix" values="0 0 0 0 0 0 0 0 0 0 0 0 0 0 0 0 0 0 0.15 0"/>
<feBlend mode="normal" in2="BackgroundImageFix" result="effect1_dropShadow"/>
<feBlend mode="normal" in="SourceGraphic" in2="effect1_dropShadow" result="shape"/>
</filter>
<filter id="filter2_d" x="40.3353" y="43.2441" width="64.1187" height="64.1187" filterUnits="userSpaceOnUse" color-interpolation-filters="sRGB">
<feFlood flood-opacity="0" result="BackgroundImageFix"/>
<feColorMatrix in="SourceAlpha" type="matrix" values="0 0 0 0 0 0 0 0 0 0 0 0 0 0 0 0 0 0 127 0" result="hardAlpha"/>
<feOffset dy="4"/>
<feGaussianBlur stdDeviation="5.5"/>
<feColorMatrix type="matrix" values="0 0 0 0 0 0 0 0 0 0 0 0 0 0 0 0 0 0 0.15 0"/>
<feBlend mode="normal" in2="BackgroundImageFix" result="effect1_dropShadow"/>
<feBlend mode="normal" in="SourceGraphic" in2="effect1_dropShadow" result="shape"/>
</filter>
<filter id="filter3_d" x="29" y="161.76" width="66.3353" height="66.3353" filterUnits="userSpaceOnUse" color-interpolation-filters="sRGB">
<feFlood flood-opacity="0" result="BackgroundImageFix"/>
<feColorMatrix in="SourceAlpha" type="matrix" values="0 0 0 0 0 0 0 0 0 0 0 0 0 0 0 0 0 0 127 0" result="hardAlpha"/>
<feOffset dy="4"/>
<feGaussianBlur stdDeviation="5.5"/>
<feColorMatrix type="matrix" values="0 0 0 0 0 0 0 0 0 0 0 0 0 0 0 0 0 0 0.15 0"/>
<feBlend mode="normal" in2="BackgroundImageFix" result="effect1_dropShadow"/>
<feBlend mode="normal" in="SourceGraphic" in2="effect1_dropShadow" result="shape"/>
</filter>
<filter id="filter4_d" x="186.469" y="11" width="63.0343" height="63.0343" filterUnits="userSpaceOnUse" color-interpolation-filters="sRGB">
<feFlood flood-opacity="0" result="BackgroundImageFix"/>
<feColorMatrix in="SourceAlpha" type="matrix" values="0 0 0 0 0 0 0 0 0 0 0 0 0 0 0 0 0 0 127 0" result="hardAlpha"/>
<feOffset dy="4"/>
<feGaussianBlur stdDeviation="5.5"/>
<feColorMatrix type="matrix" values="0 0 0 0 0 0 0 0 0 0 0 0 0 0 0 0 0 0 0.15 0"/>
<feBlend mode="normal" in2="BackgroundImageFix" result="effect1_dropShadow"/>
<feBlend mode="normal" in="SourceGraphic" in2="effect1_dropShadow" result="shape"/>
</filter>
<filter id="filter5_d" x="215.734" y="203.718" width="62.1689" height="62.1689" filterUnits="userSpaceOnUse" color-interpolation-filters="sRGB">
<feFlood flood-opacity="0" result="BackgroundImageFix"/>
<feColorMatrix in="SourceAlpha" type="matrix" values="0 0 0 0 0 0 0 0 0 0 0 0 0 0 0 0 0 0 127 0" result="hardAlpha"/>
<feOffset dy="4"/>
<feGaussianBlur stdDeviation="4.5"/>
<feComposite in2="hardAlpha" operator="out"/>
<feColorMatrix type="matrix" values="0 0 0 0 0 0 0 0 0 0 0 0 0 0 0 0 0 0 0.15 0"/>
<feBlend mode="normal" in2="BackgroundImageFix" result="effect1_dropShadow"/>
<feBlend mode="normal" in="SourceGraphic" in2="effect1_dropShadow" result="shape"/>
</filter>
<filter id="filter6_d" x="226.544" y="209.862" width="41.5519" height="49.4558" filterUnits="userSpaceOnUse" color-interpolation-filters="sRGB">
<feFlood flood-opacity="0" result="BackgroundImageFix"/>
<feColorMatrix in="SourceAlpha" type="matrix" values="0 0 0 0 0 0 0 0 0 0 0 0 0 0 0 0 0 0 127 0" result="hardAlpha"/>
<feOffset dy="4"/>
<feGaussianBlur stdDeviation="6"/>
<feColorMatrix type="matrix" values="0 0 0 0 0 0 0 0 0 0 0 0 0 0 0 0 0 0 0.1 0"/>
<feBlend mode="normal" in2="BackgroundImageFix" result="effect1_dropShadow"/>
<feBlend mode="normal" in="SourceGraphic" in2="effect1_dropShadow" result="shape"/>
</filter>
</defs>
</svg>
