<svg width="434" height="434" viewBox="0 0 434 434" fill="none" xmlns="http://www.w3.org/2000/svg">
<circle cx="217" cy="217" r="217" fill="#FFF2F6"/>
<ellipse cx="216.608" cy="217" rx="158.637" ry="159.029" fill="#FFE7EE"/>
<path d="M403.164 223.3C403.164 223.3 403.552 218.556 397.449 211.357C391.346 204.158 387.378 200.015 387.378 200.015C387.378 200.015 383.157 210.687 388.785 217.819C392.944 222.879 397.52 227.582 402.465 231.877L403.164 223.3Z" fill="#FD3E72"/>
<path d="M391.079 252.165C391.079 252.165 391.467 247.421 385.364 240.221C379.261 233.022 375.303 228.879 375.303 228.879C375.303 228.879 371.082 239.552 376.709 246.683C380.867 251.733 385.44 256.426 390.38 260.713L391.079 252.165Z" fill="#FD3E72"/>
<path d="M402.078 231.363C402.078 231.363 402.97 226.687 410.81 221.379C418.649 216.072 423.539 213.132 423.539 213.132C423.539 213.132 424.772 224.523 417.437 229.917C412.085 233.676 406.428 236.98 400.525 239.795L402.078 231.363Z" fill="#FD3E72"/>
<path d="M387.546 265.428C387.546 265.428 388.924 260.868 397.249 256.405C405.573 251.942 410.774 249.536 410.774 249.536C410.774 249.536 410.774 260.994 402.944 265.583C397.221 268.749 391.243 271.429 385.072 273.598L387.546 265.428Z" fill="#FD3E72"/>
<path d="M386.583 303.792C386.583 303.792 386.971 299.047 394.171 292.945C401.37 286.842 405.949 283.397 405.949 283.397C405.949 283.397 408.375 294.594 401.651 300.736C396.727 305.051 391.45 308.945 385.875 312.379L386.583 303.792Z" fill="#FD3E72"/>
<path d="M385.713 313.106C385.713 313.106 386.771 308.458 381.755 300.493C376.739 292.527 373.411 287.879 373.411 287.879C373.411 287.879 367.716 297.824 372.266 305.703C375.663 311.293 379.522 316.59 383.802 321.537L385.713 313.106Z" fill="#FD3E72"/>
<path d="M376.892 340.195C376.892 340.195 377.28 335.451 384.479 329.348C391.678 323.245 396.258 319.801 396.258 319.801C396.258 319.801 398.683 330.997 391.96 337.139C387.035 341.454 381.758 345.348 376.184 348.782L376.892 340.195Z" fill="#FD3E72"/>
<path d="M379.269 365.606C379.269 365.606 378.444 360.91 383.858 353.186C389.272 345.463 392.833 340.961 392.833 340.961C392.833 340.961 398.014 351.178 393.065 358.824C389.39 364.236 385.269 369.331 380.743 374.056L379.269 365.606Z" fill="#FD3E72"/>
<path d="M403.868 222.175C403.122 227.078 402.108 231.936 400.831 236.728C397.086 250.089 389.8 258.307 386.161 270.357C382.523 282.407 388.771 298.824 385.453 314.416C382.135 330.007 375.285 338.254 376.168 348.917C377.051 359.58 383.93 388.804 383.93 388.804" stroke="#263238" stroke-width="0.53" stroke-linecap="round" stroke-linejoin="round"/>
<path d="M401.752 234.507L409.368 229.597" stroke="#263238" stroke-width="0.53" stroke-linecap="round" stroke-linejoin="round"/>
<path d="M402.614 228.21L400.053 222.631" stroke="#263238" stroke-width="0.53" stroke-linecap="round" stroke-linejoin="round"/>
<path d="M386.608 269.833C386.608 269.833 392.973 265.826 399.513 261.838" stroke="#263238" stroke-width="0.53" stroke-linecap="round" stroke-linejoin="round"/>
<path d="M390.378 260.713C390.378 260.713 386.186 250.506 381.054 243.54" stroke="#263238" stroke-width="0.53" stroke-linecap="round" stroke-linejoin="round"/>
<path d="M386.266 310.574C390.209 304.544 395.007 299.119 400.509 294.468" stroke="#263238" stroke-width="0.53" stroke-linecap="round" stroke-linejoin="round"/>
<path d="M384.556 317.142C383.088 312.709 381.255 308.406 379.074 304.277C375.998 298.824 375.552 298.116 375.552 298.116" stroke="#263238" stroke-width="0.53" stroke-linecap="round" stroke-linejoin="round"/>
<path d="M376.172 348.917C378 345.269 380.105 341.766 382.469 338.439C384.815 335.368 387.411 332.496 390.231 329.852" stroke="#263238" stroke-width="0.53" stroke-linecap="round" stroke-linejoin="round"/>
<path d="M380.746 374.047C380.692 370.414 381.61 366.833 383.405 363.675C386.316 359.047 389.653 352.954 391.031 350.547" stroke="#263238" stroke-width="0.53" stroke-linecap="round" stroke-linejoin="round"/>
<path d="M354.382 283.165C354.382 283.165 354.11 280.147 357.962 275.539C361.814 270.93 364.317 268.271 364.317 268.271C364.317 268.271 367.053 275.063 363.502 279.614C360.88 282.847 357.992 285.856 354.867 288.608L354.382 283.165Z" fill="#FD3E72"/>
<path d="M355.134 288.287C355.134 288.287 354.542 285.308 349.555 281.971C344.568 278.633 341.415 276.78 341.415 276.78C341.415 276.78 340.687 284.037 345.373 287.452C348.797 289.82 352.412 291.897 356.182 293.662L355.134 288.287Z" fill="#FD3E72"/>
<path d="M372.305 364.946C372.305 364.946 372.896 361.967 377.893 358.639C382.89 355.311 386.034 353.458 386.034 353.458C386.034 353.458 386.752 360.715 382.056 364.131C378.629 366.496 375.01 368.569 371.237 370.33L372.305 364.946Z" fill="#FD3E72"/>
<path d="M355.361 290.295L350.49 287.2" stroke="#263238" stroke-width="0.53" stroke-linecap="round" stroke-linejoin="round"/>
<path d="M354.785 286.279L356.386 282.718" stroke="#263238" stroke-width="0.53" stroke-linecap="round" stroke-linejoin="round"/>
<path d="M371.515 368.109C373.335 366.194 375.323 364.443 377.453 362.879C378.797 362.052 380.072 361.118 381.266 360.085" stroke="#263238" stroke-width="0.53" stroke-linecap="round" stroke-linejoin="round"/>
<path d="M362.239 301.483C362.239 301.483 361.967 298.465 365.819 293.856C369.671 289.248 372.174 286.589 372.174 286.589C372.174 286.589 374.91 293.381 371.359 297.931C368.736 301.165 365.848 304.174 362.724 306.926L362.239 301.483Z" fill="#FD3E72"/>
<path d="M364.548 309.904C364.548 309.904 363.646 306.993 358.338 304.208C353.031 301.424 349.703 299.9 349.703 299.9C349.703 299.9 349.703 307.187 354.758 310.078C358.411 312.072 362.224 313.756 366.158 315.114L364.548 309.904Z" fill="#FD3E72"/>
<path d="M365.318 334.315C365.318 334.315 365.047 331.298 360.467 327.446C355.888 323.594 352.928 321.421 352.928 321.421C352.928 321.421 351.434 328.552 355.742 332.433C358.896 335.149 362.271 337.596 365.833 339.749L365.318 334.315Z" fill="#FD3E72"/>
<path d="M365.927 340.234C365.927 340.234 365.229 337.323 368.382 332.171C371.535 327.019 373.641 324.079 373.641 324.079C373.641 324.079 377.308 330.376 374.446 335.421C372.31 338.995 369.88 342.383 367.179 345.551L365.927 340.234Z" fill="#FD3E72"/>
<path d="M371.672 357.436C371.672 357.436 371.4 354.419 366.821 350.567C362.241 346.715 359.282 344.542 359.282 344.542C359.282 344.542 357.788 351.673 362.096 355.554C365.249 358.27 368.624 360.717 372.186 362.869L371.672 357.436Z" fill="#FD3E72"/>
<path d="M370.279 373.61C370.279 373.61 370.783 370.622 367.3 365.732C363.817 360.842 361.527 357.97 361.527 357.97C361.527 357.97 358.277 364.499 361.459 369.341C363.822 372.767 366.467 375.99 369.367 378.975L370.279 373.61Z" fill="#FD3E72"/>
<path d="M353.954 282.427C354.45 285.553 355.117 288.649 355.953 291.702C358.398 300.192 363.074 305.383 365.442 313.048C367.809 320.712 363.918 331.181 366.092 341.078C368.265 350.974 372.67 356.204 372.156 362.986C371.641 369.768 367.411 388.406 367.411 388.406" stroke="#263238" stroke-width="0.53" stroke-linecap="round" stroke-linejoin="round"/>
<path d="M365.155 312.698C365.155 312.698 361.08 310.175 356.908 307.672" stroke="#263238" stroke-width="0.53" stroke-linecap="round" stroke-linejoin="round"/>
<path d="M362.724 306.916C364.286 303.07 366.237 299.393 368.545 295.942" stroke="#263238" stroke-width="0.53" stroke-linecap="round" stroke-linejoin="round"/>
<path d="M365.559 338.604C363.021 334.783 359.942 331.352 356.419 328.416" stroke="#263238" stroke-width="0.53" stroke-linecap="round" stroke-linejoin="round"/>
<path d="M366.677 342.795C367.592 339.968 368.741 337.223 370.111 334.587C372.052 331.103 372.324 330.647 372.324 330.647" stroke="#263238" stroke-width="0.53" stroke-linecap="round" stroke-linejoin="round"/>
<path d="M372.18 362.985C371 360.673 369.644 358.454 368.125 356.349C366.618 354.404 364.954 352.586 363.147 350.916" stroke="#263238" stroke-width="0.53" stroke-linecap="round" stroke-linejoin="round"/>
<path d="M369.379 378.995C369.394 376.683 368.791 374.409 367.633 372.407C365.77 369.497 363.607 365.616 362.724 364.092" stroke="#263238" stroke-width="0.53" stroke-linecap="round" stroke-linejoin="round"/>
<path d="M40.3046 364.946C40.3046 364.946 40.8964 361.967 45.8932 358.639C50.8899 355.311 54.0335 353.458 54.0335 353.458C54.0335 353.458 54.7514 360.715 50.0555 364.131C46.6288 366.496 43.0101 368.569 39.2373 370.33L40.3046 364.946Z" fill="#FD3E72"/>
<path d="M38.2956 373.61C38.2956 373.61 38.8001 370.621 35.317 365.731C31.8338 360.841 29.544 357.969 29.544 357.969C29.544 357.969 26.2937 364.499 29.4761 369.34C31.8386 372.767 34.4836 375.99 37.3836 378.975L38.2956 373.61Z" fill="#FD3E72"/>
<path d="M22.4153 283.164C22.4153 283.164 22.1436 280.147 25.9955 275.538C29.8473 270.929 32.3506 268.271 32.3506 268.271C32.3506 268.271 35.0867 275.063 31.5356 279.613C28.9133 282.847 26.0248 285.855 22.9004 288.607L22.4153 283.164Z" fill="#FD3E72"/>
<path d="M30.2561 301.483C30.2561 301.483 29.9844 298.465 33.8363 293.856C37.6881 289.248 40.1914 286.589 40.1914 286.589C40.1914 286.589 42.9274 293.381 39.3764 297.931C36.754 301.165 33.8656 304.174 30.7412 306.926L30.2561 301.483Z" fill="#FD3E72"/>
<path d="M23.1507 288.287C23.1507 288.287 22.5588 285.309 17.5718 281.971C12.5848 278.633 9.43149 276.78 9.43149 276.78C9.43149 276.78 8.70381 284.038 13.3901 287.453C16.8133 289.821 20.4288 291.898 24.1985 293.662L23.1507 288.287Z" fill="#FD3E72"/>
<path d="M32.5654 309.904C32.5654 309.904 31.6728 306.993 26.3558 304.209C21.0389 301.424 17.7207 299.891 17.7207 299.891C17.7207 299.891 17.7207 307.178 22.7757 310.069C26.4408 312.068 30.2673 313.756 34.2148 315.114L32.5654 309.904Z" fill="#FD3E72"/>
<path d="M33.3525 334.315C33.3525 334.315 33.0809 331.298 28.5013 327.446C23.9218 323.594 20.9626 321.421 20.9626 321.421C20.9626 321.421 19.4684 328.552 23.7763 332.433C26.9298 335.149 30.305 337.596 33.8668 339.749L33.3525 334.315Z" fill="#FD3E72"/>
<path d="M33.9448 340.234C33.9448 340.234 33.2462 337.323 36.3995 332.171C39.5527 327.019 41.6582 324.05 41.6582 324.05C41.6582 324.05 45.3257 330.347 42.4635 335.392C40.3232 338.976 37.8858 342.375 35.177 345.551L33.9448 340.234Z" fill="#FD3E72"/>
<path d="M39.6934 357.436C39.6934 357.436 39.4217 354.419 34.8422 350.567C30.2626 346.715 27.3034 344.542 27.3034 344.542C27.3034 344.542 25.8092 351.673 30.1171 355.554C33.2617 358.265 36.6272 360.709 40.1785 362.86L39.6934 357.436Z" fill="#FD3E72"/>
<path d="M21.9707 282.427C22.4667 285.553 23.134 288.649 23.9694 291.702C26.4144 300.192 31.091 305.383 33.4583 313.048C35.8257 320.712 31.9351 331.181 34.1084 341.078C36.2817 350.974 40.6866 356.204 40.1724 362.986C39.6582 369.768 35.4279 388.406 35.4279 388.406" stroke="#263238" stroke-width="0.53" stroke-linecap="round" stroke-linejoin="round"/>
<path d="M23.3774 290.296L18.5068 287.201" stroke="#263238" stroke-width="0.53" stroke-linecap="round" stroke-linejoin="round"/>
<path d="M22.8027 286.279L24.4036 282.718" stroke="#263238" stroke-width="0.53" stroke-linecap="round" stroke-linejoin="round"/>
<path d="M33.1768 312.698C33.1768 312.698 29.1017 310.176 24.9297 307.672" stroke="#263238" stroke-width="0.53" stroke-linecap="round" stroke-linejoin="round"/>
<path d="M30.7285 306.915C32.2908 303.069 34.2414 299.392 36.55 295.942" stroke="#263238" stroke-width="0.53" stroke-linecap="round" stroke-linejoin="round"/>
<path d="M33.5762 338.604C31.0387 334.783 27.96 331.352 24.4365 328.416" stroke="#263238" stroke-width="0.53" stroke-linecap="round" stroke-linejoin="round"/>
<path d="M34.6982 342.795C35.5978 339.97 36.7304 337.224 38.0844 334.587C40.0249 331.103 40.2965 330.647 40.2965 330.647" stroke="#263238" stroke-width="0.53" stroke-linecap="round" stroke-linejoin="round"/>
<path d="M39.5479 368.109C41.3678 366.187 43.3549 364.43 45.4857 362.86C46.8299 362.032 48.105 361.098 49.2988 360.065" stroke="#263238" stroke-width="0.53" stroke-linecap="round" stroke-linejoin="round"/>
<path d="M40.1825 362.986C39.0086 360.671 37.6592 358.449 36.1463 356.34C34.6398 354.394 32.975 352.577 31.1689 350.906" stroke="#263238" stroke-width="0.53" stroke-linecap="round" stroke-linejoin="round"/>
<path d="M37.3804 378.995C37.3945 376.683 36.7916 374.408 35.634 372.407C33.7712 369.496 31.6075 365.615 30.7246 364.092" stroke="#263238" stroke-width="0.53" stroke-linecap="round" stroke-linejoin="round"/>
<path d="M405.218 389.667H15.0742" stroke="#263238" stroke-width="1.06" stroke-linejoin="round"/>
<path d="M397.919 52.1636H48.8867C43.3639 52.1636 38.8867 56.6407 38.8867 62.1636V307.359C38.8867 312.882 43.3639 317.359 48.8867 317.359H397.919C403.442 317.359 407.919 312.882 407.919 307.359V62.1636C407.919 56.6407 403.442 52.1636 397.919 52.1636Z" fill="#5B5863"/>
<circle cx="54.3544" cy="66.4501" r="5.14155" fill="#FD3E72"/>
<circle cx="73.4902" cy="66.4501" r="5.14155" fill="#FCCA3E"/>
<circle cx="92.621" cy="66.4497" r="5.14155" fill="#00B67A"/>
<path d="M394.969 79.0078H51.8369C46.3141 79.0078 41.8369 83.485 41.8369 89.0078V295.265C41.8369 300.788 46.3141 305.265 51.8369 305.265H394.969C400.492 305.265 404.969 300.788 404.969 295.265V89.0078C404.969 83.485 400.492 79.0078 394.969 79.0078Z" fill="white"/>
<rect x="54.2256" y="88.4473" width="35.9888" height="35.9888" rx="14" fill="#FD3E72"/>
<rect x="97.8838" y="92.8721" width="108.851" height="15.9294" rx="5" fill="#ECECEC"/>
<rect x="97.8838" y="116.471" width="292.925" height="4.71984" rx="2.35992" fill="#F5F5F5"/>
<rect x="97.8838" y="116.177" width="127.141" height="5.30982" rx="2.65491" fill="#FD3E72"/>
<path d="M404.969 135H41.8369V306.354C41.8369 310.772 45.4186 314.354 49.8369 314.354H396.969C401.388 314.354 404.969 310.772 404.969 306.354V135Z" fill="#F2F2F2"/>
<path d="M272.775 184.343C272.775 192.916 272.775 201.495 272.775 210.081C272.775 212.701 272.733 212.753 270.412 211.639C263.336 208.242 252.475 212.636 252.442 223.338C252.414 233.765 262.269 238.14 269.406 235.594C272.766 234.401 272.775 234.429 272.775 237.934C272.775 245.11 272.775 252.285 272.775 259.461C272.775 260.631 272.808 261.576 271.132 261.566C262.644 261.51 254.15 261.538 245.357 261.538C246.63 258.651 247.327 255.881 247.074 252.881C246.606 247.462 242.282 242.852 236.246 241.594C231.627 240.606 225.543 243.662 223.203 247.911C221.074 251.819 220.835 255.745 222.651 259.765C223.222 261.024 223.227 261.557 221.612 261.543C212.81 261.463 204.003 261.449 195.196 261.412V234.214C191.162 236.348 187.24 237.022 183.244 235.417C180.67 234.396 178.485 232.833 176.996 230.372C174.067 225.542 174.381 219.22 177.811 215.303C182.416 210.057 187.638 209.164 194.934 212.393C195.439 211.7 195.172 210.909 195.177 210.179C195.177 202.224 195.228 194.268 195.177 186.313C195.177 184.689 195.645 184.188 197.292 184.202C205.921 184.277 214.555 184.235 223.274 184.235C223.274 182.667 222.141 181.643 221.87 180.286C220.592 174.497 222.735 168.905 227.415 166.055C232.535 162.929 238.557 163.495 243.204 167.533C243.377 167.683 243.569 167.814 243.756 167.955C246.068 168.994 246.892 171.099 247.439 173.313C248.099 175.99 248.193 178.718 247.182 181.334C246.527 183.032 247.027 183.547 248.745 183.543C254.955 183.51 261.165 183.543 267.375 183.514C269.221 183.451 271.064 183.732 272.808 184.343H272.775Z" fill="#E8E8E8"/>
<path d="M231.465 228.781H236.153V205.455H231.465V228.781Z" fill="#A3A2A8"/>
<path d="M250.653 212.477C249.651 212.477 248.697 212.685 247.792 213.086C246.886 213.487 246.11 214.064 245.464 214.817H245.415V212.749H241.083V228.781H245.415V220.717C245.415 219.322 245.739 218.248 246.401 217.479C247.064 216.725 247.953 216.34 249.085 216.34C250.136 216.34 250.911 216.645 251.429 217.238C251.93 217.847 252.189 218.874 252.189 220.348V228.797H256.521V219.274C256.521 218.072 256.375 217.03 256.101 216.132C255.81 215.25 255.405 214.545 254.872 214.016C254.339 213.503 253.724 213.118 253.029 212.861C252.334 212.605 251.542 212.477 250.653 212.477Z" fill="#A3A2A8"/>
<path d="M265.897 229.054C267.933 229.054 269.485 228.605 270.552 227.675C271.619 226.761 272.169 225.559 272.169 224.068C272.169 223.683 272.136 223.314 272.072 222.994C271.862 221.936 271.231 221.07 270.197 220.429C269.582 220.044 268.386 219.531 266.608 218.874C265.751 218.553 265.137 218.264 264.749 218.008C264.361 217.751 264.183 217.463 264.183 217.142C264.183 216.757 264.345 216.469 264.668 216.26C264.991 216.052 265.347 215.94 265.767 215.94C266.382 215.94 267.028 216.084 267.707 216.373C268.386 216.661 269.016 217.078 269.631 217.639L271.732 214.497C270.811 213.791 269.873 213.278 268.936 212.958C267.982 212.637 266.947 212.477 265.816 212.477C264.717 212.477 263.714 212.685 262.841 213.07C261.968 213.471 261.273 214.032 260.756 214.769C260.239 215.507 259.996 216.34 259.996 217.286C259.996 217.799 260.045 218.264 260.174 218.681C260.287 219.114 260.465 219.499 260.691 219.819C260.918 220.156 261.176 220.461 261.467 220.717C261.758 220.99 262.098 221.23 262.502 221.455C262.89 221.679 263.278 221.855 263.666 222.016C264.054 222.176 264.49 222.336 264.975 222.497C265.735 222.753 266.301 222.946 266.689 223.106C267.077 223.266 267.368 223.443 267.594 223.635C267.804 223.827 267.917 224.036 267.917 224.276C267.917 224.677 267.739 224.998 267.384 225.238C267.028 225.495 266.543 225.607 265.929 225.607C264.28 225.607 262.793 224.982 261.451 223.731L259.35 226.697C261.144 228.268 263.326 229.054 265.897 229.054Z" fill="#A3A2A8"/>
<path d="M280.542 229.054C281.528 229.054 282.337 228.974 282.967 228.797C283.581 228.637 284.212 228.381 284.826 228.044L283.711 224.613C282.967 224.998 282.288 225.174 281.674 225.174C281.156 225.174 280.801 225.014 280.575 224.677C280.348 224.356 280.251 223.827 280.251 223.122V216.308H284.648V212.749H280.251V207.042L275.919 207.507V212.749H274.011V216.308H275.919V223.715C275.919 225.479 276.323 226.809 277.148 227.707C277.972 228.605 279.103 229.054 280.542 229.054Z" fill="#A3A2A8"/>
<path d="M298.679 212.749V214.561H298.615C297.402 213.182 295.818 212.477 293.846 212.477C292.779 212.477 291.761 212.685 290.823 213.102C289.886 213.519 289.077 214.096 288.398 214.817C287.72 215.555 287.202 216.437 286.814 217.463C286.426 218.505 286.232 219.627 286.232 220.813C286.232 222.032 286.426 223.17 286.814 224.196C287.202 225.222 287.736 226.104 288.415 226.809C289.094 227.515 289.918 228.076 290.872 228.461C291.825 228.861 292.86 229.054 293.975 229.054C296.045 229.054 297.645 228.316 298.809 226.841H298.89V228.781H303.012V212.749H298.679ZM294.768 225.206C293.539 225.206 292.553 224.805 291.777 223.988C291.001 223.186 290.629 222.128 290.629 220.829C290.629 219.483 291.017 218.409 291.809 217.575C292.601 216.757 293.587 216.34 294.784 216.34C295.948 216.34 296.917 216.773 297.693 217.623C298.469 218.489 298.857 219.547 298.857 220.829C298.857 222.128 298.453 223.186 297.677 223.988C296.885 224.805 295.915 225.206 294.768 225.206Z" fill="#A3A2A8"/>
<path d="M307.457 228.781H311.789V204.605H307.457V228.781Z" fill="#A3A2A8"/>
<path d="M316.574 228.781H320.907V204.605H316.574V228.781Z" fill="#A3A2A8"/>
<path d="M327.858 210.489C328.585 210.489 329.215 210.232 329.749 209.719C330.266 209.206 330.541 208.597 330.541 207.859C330.541 207.154 330.266 206.529 329.749 206.016C329.215 205.503 328.585 205.246 327.858 205.246C327.114 205.246 326.467 205.503 325.95 206.016C325.433 206.529 325.174 207.154 325.174 207.859C325.174 208.34 325.287 208.789 325.53 209.19C325.756 209.591 326.079 209.912 326.5 210.136C326.92 210.377 327.373 210.489 327.858 210.489ZM325.691 228.781H330.024V212.749H325.691V228.781Z" fill="#A3A2A8"/>
<path d="M344.184 212.477C343.182 212.477 342.228 212.685 341.323 213.086C340.418 213.487 339.642 214.064 338.995 214.817H338.947V212.749H334.615V228.781H338.947V220.717C338.947 219.322 339.27 218.248 339.933 217.479C340.596 216.725 341.485 216.34 342.616 216.34C343.667 216.34 344.443 216.645 344.96 217.238C345.461 217.847 345.72 218.874 345.72 220.348V228.797H350.052V219.274C350.052 218.072 349.907 217.03 349.632 216.132C349.341 215.25 348.937 214.545 348.403 214.016C347.87 213.503 347.256 213.118 346.561 212.861C345.865 212.605 345.073 212.477 344.184 212.477Z" fill="#A3A2A8"/>
<path d="M365.668 212.749V214.401H365.587C364.957 213.775 364.229 213.294 363.388 212.974C362.548 212.653 361.675 212.477 360.754 212.477C359.331 212.477 358.038 212.829 356.906 213.519C355.759 214.224 354.869 215.186 354.223 216.421C353.576 217.671 353.269 219.066 353.269 220.605C353.269 222.144 353.592 223.507 354.255 224.709C354.918 225.912 355.839 226.841 357.003 227.499C358.167 228.172 359.493 228.493 360.98 228.493C362.92 228.493 364.488 227.867 365.684 226.617H365.765V228.236C365.765 229.262 365.361 230.112 364.569 230.785C363.76 231.459 362.645 231.795 361.19 231.795C360.22 231.795 359.331 231.667 358.507 231.411C357.666 231.154 356.809 230.785 355.936 230.304L354.934 233.928C356.825 235.018 359.04 235.547 361.562 235.547C362.774 235.547 363.857 235.419 364.811 235.13C365.765 234.857 366.573 234.473 367.22 233.96C367.866 233.463 368.4 232.853 368.82 232.132C369.24 231.411 369.531 230.625 369.725 229.759C369.903 228.91 370 227.964 370 226.938V212.749H365.668ZM361.772 224.597C361.303 224.597 360.867 224.549 360.446 224.421C360.026 224.292 359.654 224.116 359.315 223.876C358.975 223.651 358.684 223.362 358.442 223.026C358.183 222.705 357.989 222.32 357.86 221.888C357.731 221.455 357.666 220.99 357.666 220.477C357.666 219.274 358.038 218.296 358.814 217.527C359.574 216.773 360.56 216.389 361.772 216.389C362.936 216.389 363.906 216.773 364.682 217.511C365.458 218.264 365.862 219.242 365.862 220.445C365.862 221.663 365.474 222.657 364.714 223.427C363.938 224.212 362.968 224.597 361.772 224.597Z" fill="#A3A2A8"/>
<path d="M326.306 220.853C326.306 221.109 326.23 221.359 326.088 221.572C325.946 221.785 325.744 221.951 325.507 222.049C325.27 222.147 325.01 222.173 324.759 222.123C324.508 222.073 324.277 221.949 324.096 221.768C323.915 221.587 323.792 221.357 323.742 221.105C323.692 220.854 323.717 220.594 323.815 220.357C323.913 220.121 324.079 219.919 324.292 219.776C324.505 219.634 324.755 219.558 325.012 219.558C325.355 219.558 325.684 219.695 325.927 219.937C326.17 220.18 326.306 220.509 326.306 220.853Z" fill="#E0E0E0"/>
<path d="M344.216 160.747C344.216 161.001 344.141 161.249 344 161.461C343.859 161.672 343.658 161.837 343.423 161.934C343.188 162.031 342.93 162.057 342.681 162.007C342.431 161.957 342.203 161.835 342.023 161.655C341.843 161.476 341.721 161.247 341.671 160.998C341.622 160.748 341.647 160.49 341.744 160.255C341.842 160.02 342.006 159.82 342.218 159.678C342.429 159.537 342.677 159.462 342.931 159.462C343.272 159.462 343.599 159.597 343.84 159.838C344.081 160.079 344.216 160.406 344.216 160.747Z" fill="#E0E0E0"/>
<path d="M68.8555 316.937C68.8555 314.176 71.094 311.938 73.8555 311.938H149.404C152.165 311.938 154.404 314.176 154.404 316.938V389.139H68.8555V316.937Z" fill="#B99B3E"/>
<path d="M125.701 162.617C125.701 162.617 138.05 165.952 140.365 175.27C144.024 189.983 155.205 233.464 155.205 233.464L166.976 243.018L159.443 255.504C159.443 255.504 146.289 251.179 140.806 244.107C135.323 237.035 129.693 210.62 129.693 210.62L125.701 162.617Z" fill="#FD3E72"/>
<path d="M103.113 96.6059C100.171 93.2415 92.7946 93.5652 90.9898 95.6839C89.6953 95.0368 88.2015 94.9121 86.8176 95.3357C85.4337 95.7593 84.2656 96.6986 83.555 97.9594L75.6492 99.4994C74.2796 99.6455 72.9698 100.138 71.8436 100.931C71.2929 101.342 70.9118 101.94 70.7726 102.612C70.6334 103.285 70.7458 103.985 71.0883 104.58C68.3027 105.237 67.1159 109.337 69.1266 111.378C68.8501 111.676 68.6385 112.029 68.5051 112.413C68.3718 112.797 68.3196 113.205 68.3519 113.611C68.3841 114.016 68.5001 114.411 68.6926 114.769C68.885 115.128 69.1497 115.442 69.4699 115.693C67.2302 118.248 65.4453 121.167 64.1929 124.325C63.5493 125.604 63.3758 127.069 63.7024 128.464C64.1536 129.798 65.8898 130.779 67.0962 129.955C66.7006 130.494 66.4665 131.134 66.4213 131.801C66.3762 132.468 66.5218 133.134 66.8412 133.721C65.517 133.721 65.0659 135.771 65.9585 136.752C66.851 137.733 68.3321 137.88 69.6661 137.88C70.9951 137.725 72.3395 137.989 73.511 138.635C73.4743 138.961 73.3126 139.26 73.0598 139.469C71.9151 140.286 71.1301 141.513 70.8687 142.895C70.6074 144.277 70.8899 145.706 71.6572 146.884L72.079 147.512C72.8244 148.621 74.7077 149.67 75.8749 150.317C78.8174 151.955 80.6516 151.7 83.9963 152.279C83.0155 154.427 88.3611 159.351 94.7171 154.79C105.788 158.23 117.298 160.053 128.89 160.204C130.724 160.254 132.941 160.057 133.794 158.429C134.549 158.592 135.333 158.56 136.073 158.337C136.812 158.114 137.483 157.707 138.022 157.154C139.087 156.031 139.953 154.734 140.582 153.319C142.183 152.898 143.615 151.991 144.68 150.723C145.744 149.455 146.389 147.887 146.526 146.237C147.626 145.413 148.543 144.369 149.218 143.172C149.894 141.975 150.313 140.651 150.449 139.283C151.209 139.029 151.908 138.622 152.502 138.086C153.097 137.549 153.574 136.896 153.905 136.167C154.236 135.438 154.412 134.648 154.423 133.848C154.435 133.047 154.28 132.253 153.971 131.514C153.386 127.698 152.18 124.004 150.4 120.578C152.519 120.166 153.343 117.341 152.558 115.35C151.773 113.359 149.851 112.035 148.056 110.838C149.625 111.289 151.048 109.347 150.714 107.748C150.381 106.15 148.968 105.022 147.595 104.149C145.571 102.869 143.401 101.839 141.131 101.079C140.445 98.2831 136.972 95.0365 134.402 93.7516C124.035 88.5432 116.747 87.1112 103.133 96.5764" fill="#4E4A57"/>
<path d="M92.8218 113.015C92.7708 111.951 93.1218 110.906 93.8049 110.089C94.488 109.271 95.4535 108.74 96.5098 108.601L118.903 102.255C126.102 101.274 131.163 110.043 131.821 117.282C132.556 125.315 133.145 135.163 132.36 141.205C132.048 144.532 130.678 147.672 128.45 150.163C126.222 152.654 123.254 154.365 119.982 155.045L120.168 163.814L120.462 174.015C117.019 173.524 94.9012 162.95 94.9012 162.95L92.8218 113.015Z" fill="#FFBE9D"/>
<path d="M119.983 155.045C119.983 155.045 113.451 155.899 105.27 151.289C105.27 151.289 107.477 160.234 120.081 159.224L119.983 155.045Z" fill="#F6AD88"/>
<path d="M129.084 116.743C128.8 117.135 127.632 116.743 126.259 116.792C124.886 116.841 123.709 117.116 123.434 116.733C123.307 116.537 123.483 116.155 123.984 115.752C124.653 115.294 125.448 115.054 126.259 115.066C127.071 115.057 127.867 115.3 128.535 115.762C129.035 116.174 129.202 116.557 129.084 116.743Z" fill="#263238"/>
<path d="M137.156 123.167C137.126 121.25 136.433 119.403 135.195 117.939C134.426 117.244 133.693 116.51 132.997 115.742C131.663 113.927 131.899 111.455 131.35 109.278C130.989 107.872 130.296 106.573 129.33 105.489C128.364 104.406 127.153 103.569 125.798 103.049C123.552 102.206 120.982 102.265 118.873 101.088C117.314 100.225 116.137 98.7631 114.538 97.9981C111.409 96.5072 107.672 98.0569 104.729 99.7832C104.101 102.137 105.563 104.207 106.975 106.198C107.686 107.192 108.606 108.019 109.67 108.62C110.734 109.222 111.917 109.584 113.135 109.68C115.018 109.827 117.225 109.435 118.53 110.808C119.834 112.181 119.324 114.731 120.442 116.369C122.041 118.724 125.788 117.9 128.221 119.371C130.094 120.509 130.859 122.794 131.781 124.785C132.703 126.776 134.312 128.856 136.509 128.787C136.942 126.945 137.159 125.059 137.156 123.167Z" fill="#4E4A57"/>
<path d="M109.399 104.188C103.871 104.016 98.361 104.919 93.1761 106.846C91.6304 107.136 90.2566 108.012 89.3425 109.292C88.4284 110.572 88.0448 112.155 88.2718 113.712C88.2718 118.243 89.9883 123.805 91.646 128.022L97.2368 131.495C101.602 130.514 99.7282 122.991 99.581 119.224C101.106 118.558 102.414 117.476 103.354 116.103C104.294 114.729 104.829 113.119 104.897 111.456C106.145 110.659 107.197 109.593 107.976 108.335C108.756 107.076 109.242 105.659 109.399 104.188Z" fill="#4E4A57"/>
<path d="M97.1475 129.857C97.02 127.267 93.8518 126.708 91.6056 128.013C90.3698 128.719 89.4282 130.151 89.5361 132.917C89.8401 140.244 97.1475 138.43 97.1475 138.224C97.1475 138.018 97.2946 132.888 97.1475 129.857Z" fill="#FFBE9D"/>
<path d="M94.7935 135.526C94.7935 135.526 94.666 135.624 94.4601 135.723C94.3092 135.798 94.1449 135.843 93.9765 135.855C93.8081 135.867 93.6391 135.845 93.4792 135.791C92.9958 135.508 92.5954 135.102 92.3182 134.615C92.041 134.127 91.8968 133.576 91.9 133.015C91.8586 132.387 91.9557 131.758 92.1845 131.171C92.2475 130.946 92.3643 130.738 92.5249 130.568C92.6854 130.397 92.885 130.267 93.1065 130.191C93.2505 130.143 93.4066 130.149 93.5468 130.207C93.687 130.264 93.8021 130.37 93.8715 130.504C93.9794 130.71 93.9401 130.858 93.9794 130.867C94.0186 130.877 94.1363 130.74 94.0579 130.436C94.0128 130.254 93.9051 130.095 93.7538 129.985C93.5444 129.842 93.2878 129.785 93.0378 129.828C92.7399 129.902 92.4657 130.051 92.241 130.26C92.0162 130.47 91.8483 130.732 91.7529 131.024C91.4679 131.672 91.3434 132.378 91.39 133.084C91.4979 134.565 92.312 135.909 93.3517 136.174C93.5505 136.225 93.7583 136.229 93.959 136.186C94.1598 136.144 94.348 136.056 94.5091 135.929C94.7837 135.683 94.8229 135.536 94.7935 135.526Z" fill="#EB996E"/>
<path d="M93.931 138.626C93.929 138.655 93.929 138.685 93.931 138.714C93.9089 138.814 93.8726 138.909 93.8231 138.999C93.6258 139.336 93.3222 139.598 92.96 139.744C92.3865 139.987 91.7679 140.104 91.1454 140.087C90.7512 140.096 90.357 140.066 89.9684 139.999C89.5191 139.936 89.0824 139.804 88.6737 139.607H88.762C88.6557 140.165 88.4239 140.692 88.084 141.147C87.7442 141.603 87.3052 141.975 86.8003 142.235C86.1828 142.531 85.4952 142.65 84.8144 142.577C84.1335 142.504 83.4864 142.243 82.9454 141.823H83.0632C82.9502 141.989 82.8051 142.129 82.6366 142.237C82.4681 142.345 82.2796 142.418 82.0823 142.451C81.6868 142.525 81.2784 142.484 80.9053 142.334C80.4959 142.191 80.149 141.91 79.9244 141.539C79.7005 141.176 79.5784 140.759 79.5713 140.333C79.5519 139.449 79.8474 138.586 80.4051 137.9C80.9806 137.204 81.6394 136.581 82.3668 136.046V136.223C82.0662 136.024 81.81 135.766 81.6142 135.464C81.4184 135.162 81.2872 134.822 81.2289 134.467C81.0994 133.739 81.1846 132.989 81.4742 132.309C81.7881 131.626 82.2349 131.013 82.7885 130.504C83.34 129.984 83.9266 129.502 84.5442 129.063V129.229C84.2892 128.939 84.0966 128.599 83.9785 128.232C83.8604 127.864 83.8193 127.475 83.8577 127.091C83.9189 126.298 84.2199 125.542 84.7208 124.923C85.7266 123.852 86.9602 123.021 88.3304 122.491L88.2715 122.609C88.1099 121.845 88.1326 121.055 88.3378 120.302C88.543 119.55 88.9246 118.857 89.4511 118.282C89.9777 117.706 90.6338 117.265 91.3652 116.994C92.0966 116.723 92.8821 116.63 93.6564 116.723L93.5387 116.841C93.3994 116.185 93.4194 115.505 93.5968 114.858C93.7743 114.212 94.1042 113.617 94.5588 113.124C94.9402 112.666 95.417 112.297 95.9557 112.043C96.4945 111.789 97.0822 111.656 97.6779 111.652L97.5798 111.741C97.6094 111.118 97.779 110.509 98.0762 109.961C98.3734 109.412 98.7904 108.938 99.2963 108.572C99.7276 108.236 100.224 107.991 100.753 107.854C101.283 107.718 101.836 107.692 102.376 107.778L102.288 107.847C102.338 107.18 102.553 106.536 102.916 105.973C103.214 105.472 103.596 105.024 104.044 104.649C104.742 104.028 105.631 103.661 106.564 103.609H106.839H107.104C107.259 103.617 107.413 103.637 107.565 103.668C107.802 103.719 108.035 103.788 108.261 103.874L108.663 104.061L108.801 104.129H108.663L108.252 103.962C108.023 103.888 107.79 103.826 107.555 103.776C107.403 103.749 107.249 103.732 107.094 103.727H106.839H106.574C105.663 103.794 104.8 104.163 104.122 104.777C103.684 105.145 103.312 105.587 103.024 106.081C102.68 106.624 102.478 107.245 102.435 107.886V107.964H102.406C101.888 107.892 101.36 107.925 100.855 108.06C100.35 108.194 99.8765 108.429 99.4631 108.749C98.9811 109.101 98.5845 109.558 98.3027 110.084C98.0208 110.61 97.861 111.193 97.8349 111.79V111.878H97.7466C97.1635 111.907 96.5929 112.058 96.0717 112.321C95.5505 112.584 95.0903 112.954 94.7206 113.406C94.3509 113.858 94.0801 114.382 93.9255 114.945C93.7709 115.508 93.7361 116.097 93.8231 116.674V116.821H93.676C92.9309 116.723 92.1731 116.806 91.4673 117.064C90.7615 117.323 90.1288 117.748 89.6236 118.305C89.1183 118.861 88.7554 119.532 88.5661 120.259C88.3767 120.986 88.3665 121.749 88.5363 122.481V122.569H88.4579C87.1188 123.088 85.9124 123.899 84.9268 124.943C84.4603 125.528 84.177 126.238 84.1127 126.983C84.0733 127.336 84.1089 127.693 84.2171 128.031C84.3252 128.369 84.5036 128.68 84.7404 128.945L84.8287 129.033L84.7208 129.112C83.4664 129.89 82.4329 130.978 81.7194 132.27C81.4475 132.91 81.3657 133.615 81.484 134.3C81.5376 134.627 81.6575 134.939 81.8363 135.217C82.0152 135.495 82.2491 135.734 82.5237 135.919L82.6512 135.997L82.5335 136.085C81.8065 136.602 81.1474 137.209 80.5718 137.89C80.0426 138.541 79.7581 139.357 79.7675 140.195C79.7584 140.585 79.8655 140.968 80.0751 141.297C80.2847 141.625 80.5874 141.884 80.9445 142.039C81.2723 142.199 81.6444 142.243 82.0004 142.165C82.3565 142.086 82.6756 141.89 82.9062 141.608V141.529L82.9749 141.588C83.4492 141.961 84.0114 142.205 84.6076 142.297C85.2037 142.39 85.8136 142.327 86.3784 142.115C86.9432 141.903 87.4438 141.549 87.8321 141.088C88.2204 140.626 88.4832 140.072 88.5952 139.479V139.391H88.6737C89.0627 139.589 89.4793 139.728 89.9095 139.803C90.291 139.876 90.6786 139.912 91.0669 139.911C91.6801 139.925 92.29 139.818 92.8619 139.597C93.2193 139.467 93.5208 139.218 93.7153 138.891C93.8918 138.724 93.9114 138.626 93.931 138.626Z" fill="#655F72"/>
<path d="M66.1141 130.288C66.0135 130.149 65.9249 130.001 65.8492 129.847C65.6303 129.389 65.5069 128.892 65.4863 128.385C65.4352 127.574 65.6599 126.768 66.1239 126.1C66.4325 125.656 66.8296 125.28 67.2904 124.996C67.7513 124.713 68.2658 124.527 68.8016 124.452L68.7427 124.541C68.573 123.569 68.6884 122.57 69.0748 121.663C69.4613 120.756 70.1023 119.98 70.9203 119.43C71.5618 119.062 72.2388 118.76 72.9408 118.528C73.2917 118.387 73.6217 118.199 73.9217 117.969C74.2131 117.727 74.4448 117.422 74.5985 117.076C74.9418 116.38 75.0594 115.556 75.4812 114.801C75.9348 114.038 76.6051 113.427 77.4068 113.046C78.2085 112.666 79.1055 112.532 79.9834 112.662L79.8558 112.79C79.7463 111.898 79.8424 110.993 80.1368 110.144C80.4312 109.295 80.9161 108.525 81.5543 107.892C82.1925 107.26 82.967 106.782 83.8185 106.495C84.6701 106.208 85.576 106.12 86.4668 106.238L86.3393 106.355C86.2521 105.377 86.446 104.394 86.8981 103.522C87.3503 102.651 88.0419 101.926 88.8918 101.433C89.7416 100.941 90.7143 100.701 91.6956 100.743C92.6769 100.784 93.626 101.105 94.4313 101.667H94.3136C95.0594 100.983 95.9421 100.464 96.9031 100.147C97.7552 99.8486 98.6418 99.6608 99.5416 99.5876C100.997 99.4504 102.465 99.5733 103.877 99.9505C104.784 100.185 105.648 100.562 106.437 101.069C106.645 101.199 106.842 101.347 107.025 101.51L107.222 101.677C107.222 101.677 106.947 101.461 106.408 101.118C105.615 100.632 104.751 100.275 103.848 100.058C102.445 99.7051 100.991 99.5989 99.5514 99.7445C98.6635 99.8177 97.7894 100.009 96.9521 100.313C96.0179 100.625 95.1616 101.133 94.4411 101.804V101.853H94.3725C93.5985 101.313 92.6863 101.005 91.7432 100.966C90.8001 100.926 89.8654 101.157 89.0491 101.631C88.2329 102.106 87.5691 102.803 87.1359 103.642C86.7028 104.48 86.5183 105.425 86.6041 106.365V106.503H86.4766C85.6184 106.386 84.7448 106.468 83.9234 106.743C83.1021 107.018 82.3549 107.478 81.7396 108.087C81.1243 108.697 80.6574 109.44 80.375 110.259C80.0926 111.077 80.0022 111.95 80.1109 112.809V112.957H79.9637C79.1299 112.832 78.2779 112.959 77.5163 113.321C76.7547 113.682 76.118 114.262 75.6872 114.987C75.2851 115.683 75.1575 116.507 74.8044 117.243C74.6362 117.624 74.3808 117.96 74.059 118.224C73.7598 118.46 73.4298 118.655 73.0781 118.803C72.3976 119.034 71.7408 119.329 71.1164 119.685C70.5492 120.061 70.0679 120.552 69.704 121.127C69.0348 122.156 68.7758 123.399 68.9781 124.609V124.688H68.8997C68.3797 124.754 67.8792 124.928 67.43 125.198C66.9808 125.468 66.5928 125.829 66.2906 126.257C65.8418 126.907 65.6148 127.684 65.6433 128.474C65.6564 128.971 65.7663 129.461 65.9669 129.916C66.0552 130.141 66.1141 130.288 66.1141 130.288Z" fill="#655F72"/>
<path d="M136.184 133.447C136.142 133.351 136.119 133.247 136.119 133.143C136.119 133.038 136.142 132.934 136.184 132.838C136.28 132.606 136.432 132.401 136.626 132.24C136.898 132.035 137.208 131.886 137.538 131.799C137.94 131.705 138.327 131.553 138.685 131.348C139.085 131.06 139.381 130.65 139.529 130.18C139.708 129.644 139.781 129.077 139.745 128.513C139.745 127.905 139.647 127.257 139.657 126.551C139.82 125.08 140.149 123.632 140.637 122.235C140.846 121.449 140.892 120.628 140.775 119.823C140.721 119.403 140.577 119 140.354 118.642C140.131 118.283 139.832 117.976 139.48 117.743C138.672 117.331 137.815 117.025 136.93 116.831C136.462 116.693 136.021 116.477 135.625 116.193C135.229 115.884 134.918 115.479 134.723 115.016C134.374 114.065 134.131 113.078 133.997 112.074C133.908 111.588 133.746 111.118 133.516 110.681C133.279 110.244 132.903 109.899 132.447 109.7C131.789 109.513 131.11 109.411 130.427 109.396C130.088 109.354 129.757 109.261 129.446 109.121C129.12 108.961 128.843 108.717 128.642 108.415C128.312 107.824 128.064 107.19 127.906 106.532C127.65 105.638 127.122 104.846 126.397 104.264C125.671 103.683 124.783 103.341 123.855 103.285C122.713 103.239 121.596 103.624 120.726 104.364L120.628 104.453L120.569 104.325C120.167 103.42 119.577 102.61 118.838 101.95C118.099 101.291 117.228 100.796 116.283 100.5C115.492 100.26 114.663 100.173 113.84 100.245C113.141 100.299 112.456 100.479 111.82 100.774C110.921 101.206 110.165 101.887 109.642 102.736C109.497 102.953 109.372 103.183 109.27 103.423L109.181 103.599V103.658V103.589L109.26 103.403C109.356 103.16 109.474 102.927 109.613 102.707C110.128 101.851 110.886 101.168 111.79 100.745C112.434 100.434 113.129 100.245 113.84 100.186C114.685 100.097 115.538 100.177 116.351 100.421C117.326 100.719 118.225 101.224 118.987 101.901C119.749 102.578 120.355 103.412 120.765 104.345H120.618C121.522 103.57 122.685 103.163 123.875 103.207C124.512 103.237 125.137 103.399 125.709 103.683C126.282 103.967 126.789 104.366 127.2 104.855C127.629 105.365 127.946 105.96 128.131 106.601C128.286 107.238 128.527 107.852 128.847 108.425C129.042 108.686 129.293 108.9 129.582 109.051C129.871 109.202 130.189 109.286 130.515 109.298C131.219 109.321 131.917 109.43 132.594 109.622C133.087 109.84 133.497 110.211 133.762 110.681C134.005 111.139 134.177 111.632 134.272 112.142C134.408 113.116 134.645 114.072 134.978 114.997C135.146 115.411 135.412 115.778 135.753 116.066C136.129 116.331 136.547 116.533 136.989 116.664C137.893 116.88 138.766 117.209 139.588 117.645C139.992 117.885 140.329 118.222 140.569 118.626C140.787 119.011 140.934 119.433 141 119.872C141.115 120.7 141.065 121.544 140.853 122.353C140.352 123.736 140.007 125.17 139.823 126.63C139.823 127.297 139.882 127.944 139.892 128.591C139.928 129.173 139.848 129.757 139.657 130.308C139.498 130.802 139.181 131.229 138.754 131.524C138.383 131.732 137.983 131.884 137.567 131.975C137.244 132.048 136.94 132.189 136.675 132.387C136.484 132.535 136.332 132.727 136.233 132.946C136.168 133.105 136.151 133.279 136.184 133.447Z" fill="#655F72"/>
<path d="M150.595 122.333L150.526 122.196L150.33 121.784L149.594 120.176C149.28 119.489 148.917 118.616 148.407 117.674C147.869 116.574 147.033 115.646 145.995 114.997C145.406 114.673 144.729 114.447 144.033 114.124C143.681 113.969 143.351 113.768 143.052 113.525C142.729 113.264 142.477 112.927 142.316 112.545C141.983 111.779 141.993 110.916 141.728 110.132C141.597 109.746 141.358 109.406 141.041 109.151C140.681 108.903 140.284 108.714 139.864 108.592C139.421 108.457 138.991 108.283 138.579 108.072C138.153 107.83 137.811 107.464 137.598 107.022C137.279 106.101 137.084 105.141 137.02 104.168C136.959 103.69 136.802 103.23 136.559 102.814C136.29 102.412 135.875 102.13 135.401 102.03C134.42 101.814 133.44 102.128 132.331 101.942C131.799 101.837 131.312 101.57 130.938 101.176C130.591 100.789 130.291 100.361 130.046 99.9013C129.806 99.4633 129.544 99.0377 129.261 98.6262C129.001 98.2116 128.635 97.8732 128.202 97.6454C127.302 97.3411 126.326 97.3411 125.426 97.6454C124.523 97.9152 123.572 97.9821 122.64 97.8415C121.778 97.6095 120.964 97.2241 120.237 96.7037C119.567 96.2219 118.851 95.8079 118.099 95.4679C116.702 94.974 115.191 94.9023 113.754 95.2619C112.565 95.5438 111.455 96.0903 110.507 96.8607C109.8 97.4573 109.188 98.1586 108.693 98.9401C108.384 99.4348 108.121 99.9569 107.908 100.5L107.722 100.921L107.663 101.059C107.663 101.059 107.663 101.01 107.663 100.912C107.663 100.814 107.761 100.666 107.82 100.48C108.025 99.9295 108.278 99.3979 108.575 98.8911C109.067 98.0953 109.675 97.3778 110.38 96.7626C111.341 95.9709 112.467 95.4045 113.675 95.105C115.144 94.7324 116.689 94.8007 118.119 95.3011C118.884 95.6401 119.613 96.0541 120.296 96.537C121.005 97.0442 121.799 97.4196 122.64 97.6454C123.544 97.7755 124.465 97.7051 125.338 97.4394C125.809 97.3278 126.287 97.2523 126.77 97.2138C127.275 97.1795 127.78 97.2705 128.241 97.4786C128.702 97.7002 129.098 98.0383 129.389 98.4595C129.679 98.8749 129.944 99.3072 130.183 99.7542C130.422 100.198 130.712 100.613 131.046 100.99C131.385 101.356 131.832 101.603 132.321 101.696C133.302 101.883 134.362 101.559 135.401 101.785C135.927 101.897 136.388 102.21 136.686 102.658C136.949 103.099 137.12 103.59 137.186 104.099C137.247 105.051 137.432 105.991 137.736 106.895C137.925 107.309 138.241 107.653 138.638 107.876C139.036 108.086 139.453 108.257 139.884 108.386C140.323 108.515 140.738 108.717 141.11 108.984C141.466 109.27 141.729 109.656 141.865 110.092C142.13 110.936 142.13 111.779 142.444 112.505C142.777 113.192 143.359 113.725 144.072 113.996C144.739 114.31 145.426 114.536 146.034 114.879C147.091 115.549 147.938 116.505 148.476 117.635C148.986 118.616 149.329 119.469 149.643 120.166C149.957 120.862 150.163 121.402 150.33 121.784C150.399 121.961 150.457 122.098 150.506 122.206C150.539 122.246 150.569 122.289 150.595 122.333Z" fill="#655F72"/>
<path d="M142.925 114.536H143.062C143.195 114.534 143.326 114.564 143.445 114.624C143.661 114.768 143.839 114.964 143.962 115.193C144.085 115.422 144.15 115.678 144.151 115.938C144.151 116.307 144.094 116.675 143.984 117.027C143.856 117.437 143.783 117.863 143.769 118.292C143.812 118.783 143.985 119.253 144.269 119.656C144.544 120.107 144.897 120.548 145.181 121.078C145.346 121.353 145.444 121.663 145.47 121.983C145.495 122.303 145.447 122.624 145.328 122.922C145.093 123.54 144.622 124.06 144.396 124.687C144.188 125.357 144.248 126.082 144.563 126.708C144.838 127.385 145.23 128.042 145.495 128.787C145.642 129.169 145.715 129.575 145.711 129.984C145.7 130.403 145.599 130.814 145.417 131.191C145.005 131.921 144.525 132.61 143.984 133.25C143.436 133.894 143.149 134.72 143.18 135.565C143.361 136.423 143.644 137.256 144.024 138.047C144.188 138.479 144.271 138.938 144.269 139.4C144.253 139.861 144.128 140.311 143.906 140.715C143.448 141.456 142.905 142.14 142.288 142.755C141.713 143.344 141.265 144.045 140.973 144.815C140.759 145.587 140.493 146.343 140.179 147.08C139.997 147.436 139.739 147.748 139.423 147.993C139.105 148.214 138.75 148.377 138.374 148.473C138.041 148.573 137.713 148.691 137.393 148.826C137.083 148.971 136.796 149.159 136.54 149.385C136.06 149.842 135.648 150.364 135.314 150.935C134.961 151.475 134.647 152.004 134.284 152.475C133.645 153.352 132.74 153.999 131.704 154.319C130.927 154.557 130.106 154.621 129.301 154.505C128.797 154.429 128.308 154.277 127.849 154.054C127.694 153.972 127.543 153.88 127.398 153.78C128.042 154.141 128.753 154.365 129.488 154.436C130.223 154.507 130.964 154.423 131.665 154.192C132.667 153.873 133.541 153.24 134.156 152.387C134.509 151.916 134.823 151.406 135.137 150.837C135.482 150.256 135.9 149.721 136.383 149.248C136.654 149.007 136.957 148.805 137.285 148.65C137.625 148.51 137.972 148.389 138.325 148.287C138.676 148.195 139.008 148.042 139.306 147.836C139.602 147.608 139.843 147.316 140.012 146.982C140.32 146.252 140.579 145.501 140.787 144.736C141.087 143.944 141.548 143.223 142.14 142.618C142.742 142.01 143.272 141.335 143.72 140.607C143.921 140.231 144.038 139.816 144.063 139.39C144.058 138.957 143.975 138.529 143.818 138.125C143.434 137.315 143.148 136.462 142.964 135.585C142.924 135.133 142.995 134.679 143.17 134.261C143.341 133.857 143.558 133.476 143.818 133.123C144.353 132.493 144.826 131.813 145.23 131.092C145.406 130.745 145.503 130.363 145.515 129.974C145.519 129.593 145.452 129.214 145.318 128.856C145.063 128.13 144.671 127.473 144.387 126.777C144.062 126.103 144.006 125.332 144.23 124.619C144.485 123.952 144.956 123.442 145.211 122.863C145.321 122.586 145.367 122.288 145.345 121.99C145.323 121.693 145.233 121.404 145.083 121.147C144.808 120.637 144.465 120.166 144.181 119.734C143.893 119.309 143.723 118.815 143.69 118.302C143.703 117.862 143.779 117.426 143.916 117.007C144.033 116.662 144.099 116.302 144.112 115.938C144.114 115.689 144.057 115.444 143.944 115.222C143.831 115 143.667 114.808 143.465 114.663C143.301 114.57 143.113 114.525 142.925 114.536Z" fill="#655F72"/>
<path d="M66.3305 130.053C66.1357 130.052 65.9416 130.029 65.7519 129.984C65.0322 129.829 64.3686 129.48 63.8328 128.976C63.2969 128.471 62.9091 127.829 62.7112 127.12C62.5607 126.532 62.5406 125.919 62.6524 125.322C62.7643 124.726 63.0053 124.161 63.3586 123.668C63.8055 123.126 64.3049 122.63 64.8495 122.187C65.4431 121.726 65.9229 121.136 66.2521 120.46C66.5149 119.702 66.4869 118.874 66.1736 118.136C65.899 117.341 65.487 116.576 65.1928 115.693C64.9142 114.733 64.8392 113.724 64.9726 112.733C65.1059 111.742 65.4447 110.789 65.9672 109.936C66.4897 109.083 67.1845 108.348 68.0071 107.779C68.8297 107.21 69.7619 106.819 70.7444 106.63L70.6758 106.797C70.3425 106.32 70.1335 105.767 70.0676 105.188C70.0021 104.607 70.0453 104.018 70.1951 103.452C70.3552 102.879 70.6142 102.338 70.9602 101.853C71.3156 101.367 71.7421 100.938 72.2255 100.578C73.6734 99.5864 75.3323 98.945 77.0709 98.705C78.6905 98.4235 80.3423 98.3773 81.9752 98.5676L81.8575 98.6657C81.9031 97.7176 82.2081 96.8001 82.739 96.0132C83.2699 95.2263 84.0066 94.6001 84.8687 94.2028C85.677 93.8381 86.5642 93.6829 87.4484 93.7516C88.2744 93.8562 89.0806 94.0809 89.8416 94.4186C90.2046 94.5592 90.5834 94.6548 90.9696 94.7031C91.3426 94.7359 91.7183 94.6993 92.078 94.5952C92.7658 94.3702 93.4243 94.0639 94.0397 93.683C94.6236 93.3332 95.2499 93.0596 95.9033 92.8689C96.7225 92.6393 97.5799 92.5792 98.4232 92.6922C99.2664 92.8051 100.078 93.0889 100.808 93.5261C101.487 93.933 102.083 94.4656 102.563 95.0954C102.866 95.488 103.12 95.9162 103.319 96.3705C103.392 96.525 103.451 96.6858 103.495 96.8512C103.495 96.8512 103.426 96.6844 103.289 96.3803C103.074 95.9427 102.815 95.5285 102.514 95.1445C102.027 94.532 101.432 94.0135 100.759 93.6143C99.8653 93.0891 98.852 92.802 97.816 92.7806C97.2035 92.7702 96.5926 92.8462 96.0014 93.0062C95.36 93.2004 94.7467 93.4774 94.177 93.8301C93.5617 94.2163 92.9033 94.529 92.2153 94.7619C91.8374 94.8756 91.4411 94.9155 91.0481 94.8796C90.6495 94.829 90.258 94.7336 89.8809 94.5952C89.1354 94.2638 88.3458 94.0424 87.5367 93.938C86.6818 93.8832 85.8265 94.0381 85.0452 94.3892C84.2212 94.7741 83.518 95.3768 83.0115 96.1322C82.505 96.8877 82.2145 97.7671 82.1713 98.6755V98.7932H82.0536C80.4209 98.6011 78.7688 98.6473 77.1494 98.9306C75.4438 99.1681 73.8159 99.7958 72.3923 100.765C71.9321 101.115 71.5228 101.528 71.1759 101.991C70.8471 102.455 70.6015 102.973 70.4501 103.521C70.3056 104.058 70.2624 104.616 70.3226 105.169C70.3902 105.713 70.5851 106.234 70.8915 106.689L70.9896 106.826H70.8229C69.8648 107.008 68.9553 107.387 68.1528 107.941C67.3503 108.495 66.6728 109.211 66.1637 110.042C65.6546 110.874 65.3252 111.803 65.1968 112.769C65.0685 113.736 65.1439 114.719 65.4183 115.654C65.6537 116.507 66.0755 117.282 66.3403 118.087C66.671 118.866 66.6956 119.742 66.409 120.539C66.0633 121.231 65.5674 121.838 64.9574 122.314C64.4143 122.745 63.9179 123.231 63.4763 123.766C63.1281 124.239 62.8886 124.783 62.775 125.36C62.6614 125.936 62.6765 126.531 62.8191 127.101C63.0374 127.964 63.551 128.724 64.2708 129.249C64.7121 129.587 65.2203 129.828 65.7617 129.955C66.1148 130.033 66.3403 130.043 66.3305 130.053Z" fill="#263238"/>
<path d="M145.563 109.543C145.563 109.543 145.563 109.543 145.563 109.396C145.563 109.249 145.563 109.161 145.563 108.984C145.563 108.612 145.495 108.082 145.446 107.405C145.397 106.728 145.298 105.875 145.122 104.914C144.942 103.823 144.636 102.756 144.21 101.736C143.687 100.503 142.908 99.3966 141.924 98.4891C141.367 98.001 140.739 97.6008 140.061 97.3023C139.319 97.0279 138.563 96.7954 137.795 96.6059C136.967 96.4083 136.187 96.0482 135.5 95.5466C134.808 94.9989 134.189 94.3661 133.656 93.6633C133.097 92.9669 132.577 92.2313 131.949 91.5741C131.336 90.8915 130.601 90.3294 129.781 89.9165C128.125 89.1518 126.328 88.7378 124.504 88.7002C122.803 88.6181 121.099 88.6607 119.404 88.8277C116.526 89.0906 113.712 89.8298 111.076 91.015C109.308 91.8216 107.679 92.9042 106.251 94.2224C105.996 94.4578 105.77 94.6638 105.584 94.8502L105.132 95.3504L104.858 95.6545L104.75 95.7525L104.838 95.6446L105.103 95.321L105.535 94.8109L106.192 94.1538C107.613 92.8053 109.242 91.6957 111.018 90.8679C113.661 89.6582 116.49 88.9022 119.384 88.6315C121.088 88.4529 122.803 88.4037 124.514 88.4844C126.368 88.5197 128.194 88.9371 129.879 89.7105C130.72 90.1431 131.477 90.7208 132.116 91.4172C132.744 92.0939 133.273 92.8394 133.832 93.526C134.349 94.2183 134.952 94.8414 135.627 95.3798C136.296 95.8636 137.052 96.2133 137.854 96.4097C138.63 96.601 139.393 96.8401 140.139 97.1257C140.835 97.4292 141.478 97.8432 142.042 98.3518C143.041 99.2807 143.828 100.415 144.347 101.677C144.774 102.71 145.077 103.79 145.249 104.894C145.384 105.723 145.476 106.557 145.524 107.395C145.573 108.082 145.593 108.621 145.612 108.984V109.396C145.563 109.494 145.563 109.543 145.563 109.543Z" fill="#263238"/>
<path d="M89.654 137.321C89.254 137.467 88.8798 137.676 88.5456 137.939C87.6099 138.654 86.9624 139.681 86.7212 140.833C86.535 141.623 86.535 142.446 86.7212 143.236C86.9557 144.142 87.4029 144.98 88.0258 145.678C88.7027 146.455 89.5671 147.046 90.5368 147.395C91.5887 147.763 92.7273 147.804 93.803 147.513C94.8825 147.238 95.8621 146.664 96.6279 145.855C97.3447 145.104 97.8256 144.159 98.0109 143.138C98.1691 142.28 98.1284 141.397 97.8921 140.557C97.6557 139.717 97.23 138.942 96.6475 138.292C96.1754 137.822 95.6156 137.449 94.9997 137.194C94.5409 136.991 94.0552 136.856 93.5578 136.792C93.2333 136.735 92.9014 136.735 92.5769 136.792C92.4685 136.806 92.3627 136.835 92.263 136.88C92.673 136.823 93.089 136.823 93.4989 136.88C93.9802 136.962 94.4485 137.107 94.8918 137.312C95.4797 137.575 96.0122 137.948 96.4611 138.41C97.0093 139.041 97.4072 139.788 97.6247 140.595C97.8422 141.402 97.8736 142.248 97.7166 143.069C97.5319 144.038 97.0723 144.934 96.3925 145.649C95.6571 146.415 94.7232 146.962 93.6951 147.228C92.6735 147.5 91.5937 147.459 90.5956 147.11C89.6618 146.784 88.8275 146.224 88.1729 145.482C87.5733 144.818 87.1397 144.021 86.9076 143.158C86.7159 142.403 86.6991 141.615 86.8586 140.853C87.0812 139.735 87.6801 138.728 88.5554 137.998C89.2028 137.518 89.654 137.351 89.654 137.321Z" fill="#E0E0E0"/>
<path d="M170.005 376.257L159.637 401.416L140.903 393.687L151.418 362.643L170.005 376.257Z" fill="#FFBE9D"/>
<path d="M161.718 399.68L155.597 412.647C155.597 412.647 173.361 429.547 171.919 433.549L131.086 416.011L141.022 390.107L161.718 399.68Z" fill="#455A64"/>
<path d="M143.73 405.418C143.287 405.374 142.843 405.493 142.481 405.753C142.12 406.013 141.866 406.396 141.768 406.831C141.701 407.271 141.807 407.721 142.062 408.086C142.318 408.451 142.704 408.704 143.141 408.792C143.61 408.833 144.078 408.704 144.46 408.429C144.842 408.153 145.112 407.75 145.221 407.292C145.28 406.399 144.446 405.33 143.563 405.408" fill="#E0E0E0"/>
<g opacity="0.6">
<path opacity="0.6" d="M131.086 416.012L132.616 412.755L171.203 430.793C171.203 430.793 172.674 432.363 171.919 433.549L131.086 416.012Z" fill="white"/>
</g>
<path d="M156.353 412.716C156.264 412.922 155.225 412.579 153.969 412.804C152.714 413.03 151.831 413.628 151.684 413.471C151.537 413.314 152.321 412.294 153.851 412.049C155.382 411.804 156.47 412.559 156.353 412.716Z" fill="#263238"/>
<path d="M159.863 416.335C159.863 416.541 158.823 416.512 157.783 417.061C156.743 417.61 156.165 418.424 155.969 418.336C155.772 418.248 156.126 417.051 157.43 416.374C158.735 415.698 159.941 416.139 159.863 416.335Z" fill="#263238"/>
<path d="M160.1 422.505C159.904 422.505 160.051 421.357 161.032 420.484C162.013 419.611 163.131 419.572 163.141 419.778C163.15 419.984 162.326 420.318 161.532 421.043C160.737 421.769 160.276 422.564 160.1 422.505Z" fill="#263238"/>
<path d="M158.05 407.753C157.893 407.9 157.069 407.233 155.932 406.821C154.794 406.409 153.744 406.389 153.715 406.173C153.685 405.958 154.833 405.614 156.187 406.115C157.54 406.615 158.217 407.635 158.05 407.753Z" fill="#263238"/>
<path d="M171.468 389.627L196.627 311.325C196.627 311.325 195.421 298.574 192.89 294.582C190.359 290.59 117.864 269.982 117.864 269.982C117.864 269.982 99.4635 266.353 87.4579 271.247C75.4522 276.142 63.3779 282.037 64.8982 290.531C65.1572 291.822 65.5247 293.088 65.9967 294.317C68.2825 300.235 72.3305 305.307 77.5933 308.849C82.8561 312.391 89.0797 314.231 95.4224 314.121L104.917 314.788L153.509 321.987C154.021 322.063 154.513 322.245 154.95 322.523C155.388 322.801 155.762 323.168 156.049 323.6C156.336 324.032 156.529 324.519 156.615 325.031C156.701 325.542 156.679 326.066 156.549 326.568L143.131 379.102C143.131 379.102 160.62 386.694 171.468 389.627Z" fill="#AB6D29"/>
<path d="M194.302 335.258L196.097 362.408L175.881 363.742L171.615 331.246L194.302 335.258Z" fill="#FFBE9D"/>
<path d="M195.95 358.788L197.431 374.266C197.431 374.266 220.834 381.593 221.314 385.82L176.95 388.116L174.439 360.475L195.95 358.788Z" fill="#455A64"/>
<path d="M197.274 365.507C197.32 365.241 197.299 364.969 197.216 364.712C197.041 363.993 196.706 363.322 196.235 362.751C196.077 362.541 195.893 362.353 195.685 362.192C195.546 362.089 195.385 362.021 195.214 361.994C195.043 361.966 194.869 361.98 194.705 362.035C194.607 362.067 194.517 362.121 194.442 362.192C194.368 362.263 194.31 362.35 194.273 362.447C194.223 362.626 194.24 362.818 194.322 362.986C194.465 363.265 194.632 363.531 194.822 363.781C195.185 364.291 195.499 364.761 195.96 365.37C196.109 365.536 196.298 365.663 196.509 365.738C196.719 365.814 196.945 365.835 197.166 365.801C197.578 365.722 197.967 365.551 198.304 365.301C198.898 364.87 199.444 364.377 199.932 363.83C200.158 363.575 200.368 363.306 200.56 363.025C200.777 362.758 200.934 362.447 201.021 362.113C201.071 361.911 201.042 361.697 200.94 361.515C200.838 361.332 200.671 361.196 200.472 361.132C200.287 361.092 200.095 361.095 199.911 361.141C199.728 361.187 199.557 361.275 199.413 361.397C199.008 361.749 198.646 362.148 198.334 362.584C197.913 363.187 197.583 363.848 197.353 364.546C197.196 365.036 197.157 365.321 197.196 365.33C197.601 364.427 198.101 363.569 198.687 362.77C198.989 362.371 199.338 362.009 199.727 361.691C199.814 361.621 199.914 361.569 200.022 361.538C200.13 361.508 200.243 361.5 200.354 361.515C200.445 361.556 200.517 361.628 200.559 361.718C200.6 361.808 200.608 361.91 200.58 362.005C200.498 362.279 200.361 362.532 200.178 362.751C199.986 363.014 199.78 363.266 199.56 363.506C199.094 364.021 198.575 364.485 198.01 364.889C197.751 365.09 197.449 365.228 197.127 365.291C196.994 365.316 196.856 365.305 196.728 365.259C196.6 365.212 196.487 365.132 196.401 365.026C196.009 364.565 195.627 363.987 195.273 363.506C195.098 363.281 194.937 363.045 194.793 362.8C194.695 362.571 194.734 362.424 194.911 362.358C195.313 362.192 195.725 362.584 196.009 362.917C196.602 363.686 197.032 364.567 197.274 365.507Z" fill="#263238"/>
<path d="M183.612 373.05C183.19 373.202 182.84 373.504 182.628 373.899C182.416 374.294 182.358 374.753 182.464 375.188C182.6 375.612 182.894 375.968 183.284 376.181C183.675 376.395 184.133 376.45 184.563 376.336C185.013 376.167 185.385 375.84 185.609 375.415C185.833 374.99 185.894 374.498 185.779 374.031C185.595 373.598 185.249 373.253 184.815 373.07C184.382 372.887 183.894 372.88 183.455 373.05" fill="#E0E0E0"/>
<g opacity="0.6">
<path opacity="0.6" d="M176.95 388.116L176.892 384.507L219.47 383.663C219.47 383.663 221.491 384.418 221.344 385.821L176.95 388.116Z" fill="white"/>
</g>
<path d="M198.136 374.031C198.136 374.247 197.067 374.403 196.037 375.159C195.007 375.914 194.477 376.846 194.281 376.767C194.085 376.689 194.33 375.424 195.595 374.541C196.861 373.658 198.175 373.805 198.136 374.031Z" fill="#263238"/>
<path d="M202.894 375.689C202.953 375.895 202.031 376.316 201.344 377.268C200.657 378.219 200.491 379.23 200.275 379.23C200.059 379.23 199.863 378.013 200.736 376.846C201.609 375.679 202.874 375.483 202.894 375.689Z" fill="#263238"/>
<path d="M205.826 381.122C205.63 381.181 205.277 380.141 205.768 378.896C206.258 377.65 207.249 377.16 207.357 377.336C207.464 377.513 206.856 378.17 206.464 379.18C206.072 380.19 206.042 381.093 205.826 381.122Z" fill="#263238"/>
<path d="M197.479 368.793C197.391 368.989 196.39 368.744 195.164 368.891C193.938 369.038 193.006 369.479 192.889 369.293C192.771 369.106 193.644 368.312 195.086 368.145C196.528 367.978 197.548 368.616 197.479 368.793Z" fill="#263238"/>
<path d="M179.343 260.252C179.343 260.252 191.437 258.78 193.33 271.884C195.223 284.989 204.119 345.704 204.119 345.704L170.888 349.862L163.894 287.304L117.892 269.942C117.892 269.942 171.182 258.947 179.343 260.252Z" fill="#AB6D29"/>
<path d="M128.624 244.617C128.624 244.617 136.844 264.94 135.49 267.304C134.137 269.668 115.696 279.869 115.696 279.869L69.0568 300.055C65.5228 294.182 63.5665 287.495 63.3777 280.643C62.8872 268.756 78.473 246.696 78.473 246.696L128.624 244.617Z" fill="#AB6D29"/>
<path d="M115.579 269.079L115.804 269.187L116.491 269.471L119.169 270.531L129.183 274.405L163.778 287.627L163.611 287.421C164.298 293.6 165.043 300.27 165.808 307.175C167.633 323.32 169.32 338.2 170.644 349.98V350.196H170.85L191.448 347.528L197.117 346.753L198.598 346.537L199.099 346.449C198.929 346.436 198.758 346.436 198.589 346.449L197.098 346.606L191.419 347.253L170.821 349.745L171.056 349.931C169.751 338.161 168.113 323.262 166.328 307.117C165.553 300.251 164.808 293.542 164.112 287.362V287.205L163.964 287.146L129.311 274.111L119.237 270.364L116.53 269.383L115.834 269.148C115.754 269.109 115.668 269.085 115.579 269.079Z" fill="#92591B"/>
<path d="M78.0008 272.649C78.4522 272.559 78.8928 272.421 79.3152 272.238L82.7874 270.933C86.6116 269.455 90.5475 268.284 94.5577 267.431C98.579 266.596 102.716 266.476 106.779 267.078C108.45 267.396 110.104 267.802 111.732 268.294C111.337 268.054 110.916 267.86 110.477 267.716C109.292 267.293 108.075 266.965 106.838 266.735C102.733 266.019 98.529 266.089 94.4498 266.941C90.3969 267.793 86.4332 269.025 82.6109 270.619C81.1396 271.208 79.9625 271.718 79.1484 272.071C78.7512 272.233 78.3675 272.427 78.0008 272.649Z" fill="#92591B"/>
<path d="M84.2505 261.497C85.6255 261.355 87.0075 261.289 88.3898 261.301C89.6649 261.301 91.195 261.468 92.8919 261.595C94.5887 261.723 96.4426 261.88 98.3749 262.164C101.688 262.55 104.892 263.591 107.801 265.225C108.964 265.964 110.075 266.784 111.126 267.677C110.927 267.356 110.682 267.065 110.4 266.814C109.672 266.09 108.866 265.448 107.997 264.901C105.084 263.146 101.831 262.033 98.4533 261.635C96.4916 261.35 94.6182 261.213 92.9213 261.115C91.2244 261.017 89.6845 260.919 88.3898 260.928C87.3639 260.927 86.3398 261.015 85.3295 261.193C84.9557 261.235 84.5913 261.338 84.2505 261.497Z" fill="#92591B"/>
<path d="M159.118 405.173C159.288 404.926 159.402 404.645 159.452 404.349C159.654 403.557 159.687 402.732 159.55 401.926C159.506 401.647 159.431 401.374 159.324 401.112C159.255 400.943 159.141 400.797 158.994 400.689C158.846 400.582 158.672 400.518 158.49 400.504C158.383 400.495 158.275 400.511 158.175 400.55C158.075 400.589 157.985 400.65 157.912 400.73C157.78 400.888 157.701 401.083 157.686 401.289C157.682 401.617 157.702 401.944 157.745 402.269C157.833 402.936 157.853 403.594 158 404.369C158.04 404.595 158.142 404.807 158.294 404.98C158.446 405.153 158.643 405.281 158.863 405.349C159.279 405.452 159.713 405.452 160.128 405.349C160.878 405.187 161.605 404.937 162.296 404.604C162.632 404.449 162.96 404.275 163.277 404.084C163.607 403.909 163.897 403.669 164.13 403.378C164.262 403.206 164.334 402.996 164.334 402.78C164.334 402.563 164.262 402.353 164.13 402.181C163.983 402.057 163.807 401.972 163.619 401.934C163.43 401.896 163.235 401.907 163.051 401.965C162.508 402.141 161.988 402.381 161.502 402.681C160.806 403.094 160.175 403.606 159.628 404.202C159.411 404.404 159.232 404.643 159.099 404.908C159.901 404.195 160.768 403.558 161.688 403.005C162.149 402.751 162.636 402.548 163.14 402.397C163.395 402.348 163.679 402.397 163.787 402.505C163.856 402.588 163.893 402.692 163.893 402.799C163.893 402.907 163.856 403.011 163.787 403.093C163.585 403.326 163.338 403.516 163.061 403.652C162.767 403.829 162.463 403.986 162.149 404.143C161.486 404.446 160.792 404.676 160.079 404.83C159.758 404.913 159.42 404.913 159.099 404.83C158.964 404.789 158.844 404.711 158.753 404.605C158.661 404.499 158.6 404.37 158.579 404.231C158.451 403.594 158.402 402.848 158.314 402.201C158.259 401.896 158.229 401.588 158.226 401.279C158.226 401.014 158.363 400.886 158.549 400.896C158.991 400.896 159.167 401.485 159.255 401.946C159.417 403.02 159.371 404.116 159.118 405.173Z" fill="#263238"/>
<path d="M76.9033 174.672C76.9033 174.672 76.766 167.051 77.5114 166.158L93.0972 160.724L104.318 164.128C106.957 165.285 112.008 172.798 114.853 172.406C118.04 171.975 118.639 163.578 119.953 161.185L125.701 162.666C125.701 162.666 135.509 188.806 135.666 196.211C135.823 203.617 131.9 213.582 132.547 229.099C132.881 237.211 133.675 244.45 128.624 244.666L78.5119 246.745C78.5119 246.745 67.0653 244.087 66.2905 237.299C65.5156 230.512 76.9033 174.672 76.9033 174.672Z" fill="#FD3E72"/>
<path d="M54.5405 226.559L62.3873 201.714C62.3873 201.714 67.1052 170.189 78.081 165.815C82.7793 163.941 93.0488 164.275 96.1581 170.65C99.2674 177.026 95.4323 181.665 94.677 184.824C93.9218 187.982 83.2991 210.061 83.2991 210.061C81.3027 214.094 79.56 218.248 78.081 222.498L120.503 244.95L115.157 258.937L62.1323 239.653C60.3517 239.031 58.7441 237.996 57.4415 236.632C56.1388 235.267 55.1782 233.614 54.6385 231.807C54.1298 230.099 54.0959 228.285 54.5405 226.559Z" fill="#FD3E72"/>
<path d="M153.282 253.69L142.375 249.021L121.434 248.227L119.678 247.118L115.156 258.937C115.156 258.937 120.737 261.331 123.621 261.439L141.149 260.183L150.369 260.762L153.282 253.69Z" fill="#FFBE9D"/>
<path d="M211.76 209.993L151.594 212.935C149.632 213.014 147.818 214.034 147.602 215.976L142.845 260.114L111.84 261.399C111.38 261.447 110.955 261.668 110.653 262.018C110.351 262.368 110.193 262.821 110.213 263.283C110.233 263.745 110.429 264.182 110.761 264.505C111.092 264.828 111.534 265.011 111.997 265.019L142.453 263.753L148.23 263.508L211.004 260.909L215.85 214.328C215.91 213.765 215.848 213.196 215.667 212.659C215.486 212.122 215.191 211.631 214.802 211.219C214.414 210.807 213.941 210.484 213.415 210.273C212.89 210.061 212.325 209.966 211.76 209.993Z" fill="#5B5863"/>
<path d="M211.761 209.992C212.089 209.955 212.42 209.972 212.742 210.041C213.676 210.214 214.516 210.719 215.106 211.464C215.538 212.014 215.822 212.666 215.93 213.357C215.983 214.186 215.94 215.019 215.802 215.838C215.626 217.623 215.42 219.683 215.194 221.988C214.214 231.238 212.889 244.548 211.271 260.967V261.124H211.114L114.961 265.156L112.371 265.263C111.903 265.324 111.428 265.252 110.998 265.057C110.554 264.839 110.205 264.466 110.017 264.008C109.829 263.555 109.81 263.049 109.963 262.583C110.116 262.117 110.431 261.721 110.851 261.468C111.275 261.263 111.747 261.181 112.214 261.232L113.49 261.173L123.543 260.761L142.847 259.967L142.621 260.173C144.337 244.371 145.936 229.619 147.378 216.397C147.391 215.519 147.742 214.679 148.359 214.053C148.993 213.474 149.779 213.09 150.625 212.945C151.427 212.83 152.237 212.768 153.047 212.758L155.411 212.641L164.465 212.209L180.56 211.434L203.483 210.365L209.613 210.1L211.202 210.041H211.742H211.202L209.623 210.149L203.493 210.483L180.58 211.689L164.484 212.523L155.421 212.984L153.067 213.102C152.276 213.118 151.487 213.18 150.703 213.288C149.937 213.412 149.223 213.753 148.643 214.269C148.079 214.823 147.755 215.577 147.741 216.368C146.329 229.6 144.749 244.352 143.062 260.153V260.359H142.866L123.563 261.163L113.509 261.585L112.234 261.634C111.846 261.608 111.458 261.693 111.116 261.879C110.792 262.076 110.551 262.382 110.435 262.743C110.32 263.103 110.339 263.493 110.488 263.841C110.628 264.19 110.889 264.475 111.224 264.646C111.581 264.801 111.976 264.852 112.362 264.793L114.951 264.685L211.006 260.761L210.83 260.928C212.566 244.538 213.988 231.208 214.969 221.969C215.214 219.664 215.44 217.604 215.626 215.828C215.763 215.019 215.813 214.197 215.773 213.376C215.678 212.705 215.411 212.07 214.998 211.532C214.426 210.802 213.618 210.293 212.713 210.09C212.398 210.035 212.08 210.002 211.761 209.992Z" fill="#3D3946"/>
<path d="M179.04 236.25C179.071 236.994 179.323 237.712 179.762 238.313C180.202 238.914 180.81 239.372 181.509 239.628C182.208 239.883 182.968 239.926 183.692 239.75C184.415 239.575 185.071 239.188 185.575 238.64C186.079 238.092 186.409 237.407 186.524 236.671C186.639 235.936 186.533 235.182 186.22 234.507C185.907 233.831 185.401 233.263 184.765 232.875C184.13 232.487 183.393 232.297 182.649 232.327C182.155 232.347 181.669 232.465 181.219 232.673C180.77 232.881 180.366 233.176 180.031 233.54C179.696 233.905 179.436 234.331 179.266 234.796C179.095 235.262 179.019 235.756 179.04 236.25Z" fill="white"/>
<path d="M145.417 263.263C145.505 263.263 146.957 252.022 148.663 238.134C150.37 224.245 151.685 212.984 151.606 212.975C151.528 212.965 150.066 224.215 148.359 238.104C146.653 251.993 145.329 263.253 145.417 263.263Z" fill="#3D3946"/>
<path d="M66.4368 241.213L66.6722 241.311L67.3588 241.586L70.0365 242.596L80.1099 246.333L115.077 259.153L115.303 259.241L115.381 259.015C117.088 254.572 118.883 249.874 120.747 245.028L120.825 244.822L120.629 244.715C117.941 243.292 115.107 241.772 112.243 240.271L78.1973 222.292L78.2953 222.567L88.6238 197.182C89.8498 194.132 90.8209 191.729 91.4878 190.052L92.2235 188.168L92.4098 187.688C92.4307 187.634 92.4471 187.578 92.4589 187.521C92.4589 187.521 92.4589 187.57 92.3706 187.668C92.2823 187.766 92.2529 187.953 92.1646 188.149C91.9685 188.59 91.7036 189.208 91.3603 190.003L88.4178 197.084C85.8773 203.224 82.258 211.944 77.9226 222.41L77.8442 222.596L78.0207 222.694L111.998 240.732L120.384 245.176L120.266 244.862C118.422 249.707 116.627 254.405 114.93 258.849L115.244 258.711L80.208 246.058L70.0365 242.449L67.3294 241.468L66.633 241.233C66.5688 241.217 66.5028 241.211 66.4368 241.213Z" fill="#E82B5F"/>
<path d="M94.6756 154.771L110.683 162.147L114.813 171.396L115.44 161.951L120.276 158.116L122.846 161.794L118.187 175.143L110.83 175.447L93.1062 161.205L92.5177 160.892L94.6756 154.771Z" fill="#FD3E72"/>
<path d="M122.846 161.793C122.351 162.697 121.922 163.634 121.561 164.599C120.806 166.335 119.854 168.807 118.618 171.396L118.53 171.563H118.981C117.853 168.973 117.088 166.502 116.47 164.697C116.195 163.729 115.845 162.784 115.421 161.872C115.564 162.873 115.8 163.858 116.127 164.814C116.778 167.151 117.574 169.444 118.51 171.68L118.726 172.161L118.962 171.71L119.069 171.514C120.325 168.856 121.198 166.394 121.875 164.648C122.283 163.727 122.608 162.772 122.846 161.793Z" fill="#E82B5F"/>
<path d="M92.5183 160.891C92.8163 161.186 93.1451 161.449 93.4991 161.675L96.2651 163.637C98.6094 165.295 101.876 167.56 105.495 170.052L109.791 172.994L110.134 173.23V172.818C110.34 169.699 110.507 167.031 110.595 165.138C110.635 164.261 110.664 163.526 110.684 162.931C110.724 162.664 110.724 162.393 110.684 162.127C110.607 162.382 110.561 162.645 110.546 162.911C110.488 163.519 110.409 164.245 110.321 165.118C110.144 167.001 109.919 169.669 109.673 172.779L110.046 172.602L105.77 169.659C102.15 167.178 98.8546 164.951 96.4613 163.362L93.6071 161.509C93.2662 161.266 92.9014 161.059 92.5183 160.891Z" fill="#E82B5F"/>
<path d="M131.831 242.597C131.831 242.597 131.92 242.459 132.057 242.175C132.225 241.744 132.347 241.297 132.42 240.841C132.689 239.151 132.821 237.442 132.812 235.731C132.871 233.543 132.812 230.905 132.685 227.933C132.557 224.961 132.449 221.655 132.312 218.124L132.243 218.301C135.758 214.503 137.863 209.614 138.207 204.451C138.31 202.36 138.175 200.264 137.805 198.203C137.112 194.757 136.218 191.354 135.127 188.012C134.43 185.756 133.854 183.464 133.401 181.146C133.087 179.508 133.018 178.576 132.969 178.586C132.945 178.811 132.945 179.038 132.969 179.263C132.969 179.704 133.057 180.352 133.185 181.225C133.566 183.564 134.093 185.876 134.764 188.149C135.795 191.493 136.649 194.888 137.324 198.321C137.675 200.347 137.797 202.407 137.687 204.461C137.539 206.659 137.06 208.822 136.265 210.876C135.259 213.509 133.765 215.928 131.861 218.007L131.792 218.075V218.183C131.949 221.714 132.096 225.049 132.234 227.992C132.371 230.934 132.489 233.583 132.469 235.76C132.488 237.465 132.387 239.17 132.165 240.86C132.106 241.448 131.994 242.029 131.831 242.597Z" fill="#E82B5F"/>
<path d="M117.305 242.4C117.346 242.16 117.373 241.917 117.384 241.674C117.384 241.154 117.462 240.467 117.511 239.604C117.629 237.809 117.737 235.2 117.825 231.983C118.012 225.539 118.051 216.633 117.639 206.805C117.227 196.976 116.432 188.1 115.677 181.695C115.314 178.497 114.991 175.908 114.696 174.122L114.392 172.072C114.367 171.83 114.318 171.59 114.245 171.356C114.23 171.598 114.23 171.841 114.245 172.082C114.304 172.602 114.373 173.289 114.461 174.152C114.657 175.996 114.922 178.576 115.255 181.734C115.893 188.139 116.619 197.006 117.041 206.824C117.462 216.642 117.472 225.539 117.374 231.973C117.315 235.151 117.266 237.741 117.227 239.594C117.227 240.458 117.227 241.144 117.227 241.674C117.228 241.918 117.254 242.161 117.305 242.4Z" fill="#E82B5F"/>
<path d="M78.8661 166.305C78.8661 166.404 80.1804 166.227 82.2304 166.551C84.9135 166.946 87.4308 168.09 89.4936 169.851C91.5563 171.612 93.081 173.919 93.8928 176.506C94.5303 178.468 94.5597 179.802 94.6578 179.792C94.7039 179.487 94.7039 179.176 94.6578 178.87C94.5933 178.034 94.4455 177.206 94.2165 176.398C93.4692 173.698 91.9314 171.283 89.8008 169.463C87.6701 167.644 85.0439 166.503 82.2598 166.188C81.4251 166.101 80.5836 166.101 79.7489 166.188C79.4504 166.183 79.1529 166.223 78.8661 166.305Z" fill="#E82B5F"/>
<path d="M69.6338 226.186C70.8509 225.142 72.1995 224.261 73.6455 223.567C75.156 223.027 76.7336 222.697 78.334 222.587C77.8773 222.402 77.3823 222.331 76.8921 222.381C75.71 222.395 74.5416 222.635 73.4493 223.087C72.3508 223.544 71.3515 224.21 70.5067 225.049C69.8692 225.666 69.5848 226.147 69.6338 226.186Z" fill="#E82B5F"/>
<path d="M88.8405 215.691C88.8405 215.691 89.0759 215.858 89.5271 216.064C90.1633 216.349 90.8189 216.588 91.4888 216.78C96.0055 218.089 100.826 217.893 105.221 216.221C105.894 215.976 106.55 215.684 107.183 215.348C107.624 215.103 107.859 214.956 107.84 214.926C107.82 214.897 106.81 215.328 105.142 215.907C100.768 217.355 96.0743 217.545 91.5967 216.456C89.8998 216.015 88.8797 215.613 88.8405 215.691Z" fill="#E82B5F"/>
</svg>
