<svg width="439" height="439" viewBox="0 0 439 439" fill="none" xmlns="http://www.w3.org/2000/svg">
<circle cx="219.5" cy="219.5" r="219.5" fill="#FFE9EF"/>
<path d="M219.143 382.022C308.692 382.022 381.286 309.263 381.286 219.511C381.286 129.759 308.692 57 219.143 57C129.594 57 57 129.759 57 219.511C57 309.263 129.594 382.022 219.143 382.022Z" fill="#FFD7E2"/>
<path fill-rule="evenodd" clip-rule="evenodd" d="M242.566 209.215C250.183 202.615 255 192.87 255 182C255 162.118 238.882 146 219 146C199.118 146 183 162.118 183 182C183 193.301 188.207 203.385 196.352 209.985L181.745 287.14C180.579 293.299 185.302 299 191.571 299H247.872C254.159 299 258.887 293.266 257.688 287.094L242.566 209.215Z" fill="#5B5863"/>
<mask id="mask0_9588_46264" style="mask-type:alpha" maskUnits="userSpaceOnUse" x="181" y="146" width="77" height="153">
<path fill-rule="evenodd" clip-rule="evenodd" d="M242.566 209.215C250.183 202.615 255 192.87 255 182C255 162.118 238.882 146 219 146C199.118 146 183 162.118 183 182C183 193.301 188.207 203.385 196.352 209.985L181.745 287.14C180.579 293.299 185.302 299 191.571 299H247.872C254.159 299 258.887 293.266 257.688 287.094L242.566 209.215Z" fill="#5B5863"/>
</mask>
<g mask="url(#mask0_9588_46264)">
<circle cx="220.5" cy="226.5" r="49.5" fill="white"/>
<circle cx="220.5" cy="226.5" r="23.5" fill="#5B5863"/>
<circle cx="230.5" cy="210.5" r="13.5" fill="white"/>
<circle cx="203.5" cy="243.5" r="9.5" fill="white"/>
</g>
<g filter="url(#filter0_d_9588_46264)">
<g filter="url(#filter1_d_9588_46264)">
<rect x="44.5098" y="259" width="96.2419" height="102" rx="5" fill="white"/>
</g>
<path d="M84.1553 348.495H85.58V340.136H84.1553V348.495Z" fill="#5B5863"/>
<path d="M90.1758 348.587C90.4458 348.587 90.7158 348.558 90.9858 348.495C91.2501 348.437 91.5086 348.34 91.7613 348.202C92.0141 348.07 92.2324 347.909 92.422 347.713C92.6116 347.524 92.7667 347.288 92.8816 347.007C92.9965 346.731 93.0539 346.421 93.0539 346.088C93.0539 345.766 93.0022 345.479 92.9103 345.226C92.7437 344.789 92.399 344.422 91.8705 344.129C91.6292 343.997 91.1581 343.796 90.4688 343.52C89.8828 343.296 89.4979 343.123 89.3198 343.008C89.0383 342.825 88.9004 342.595 88.9062 342.308C88.9062 342.009 89.0211 341.768 89.2394 341.595C89.4577 341.423 89.7392 341.331 90.0724 341.331C90.6698 341.331 91.3075 341.618 91.9969 342.187L92.8414 341.073C91.9624 340.383 91.0375 340.044 90.0724 340.044C89.5956 340.044 89.1532 340.148 88.7511 340.354C88.349 340.561 88.0272 340.843 87.7917 341.199C87.5504 341.561 87.4355 341.957 87.4355 342.382C87.4355 342.595 87.4585 342.796 87.5102 342.98C87.5619 343.164 87.6309 343.33 87.7113 343.474C87.7917 343.617 87.8951 343.755 88.033 343.882C88.1651 344.008 88.2972 344.123 88.4294 344.215C88.5615 344.307 88.7224 344.399 88.9062 344.491C89.09 344.583 89.2624 344.663 89.4175 344.72C89.5668 344.784 89.7507 344.853 89.9575 344.921C90.1298 344.985 90.2734 345.036 90.3826 345.077C90.486 345.123 90.6066 345.169 90.733 345.226C90.8594 345.283 90.9628 345.329 91.0375 345.375C91.1122 345.421 91.1869 345.479 91.2673 345.542C91.342 345.611 91.3994 345.674 91.4396 345.743C91.4741 345.812 91.5086 345.887 91.5315 345.973C91.5545 346.059 91.5718 346.151 91.5718 346.254C91.5718 346.576 91.4511 346.823 91.2156 347.007C90.9743 347.191 90.6296 347.277 90.1815 347.277C89.8081 347.277 89.429 347.185 89.0498 346.995C88.6707 346.806 88.3317 346.53 88.0387 346.174L87.1426 347.277C87.5677 347.713 88.0445 348.041 88.5673 348.259C89.0843 348.478 89.6243 348.587 90.1758 348.587Z" fill="#5B5863"/>
<path d="M94.6395 348.495H96.0584V345.513H97.5004C97.8623 345.513 98.1955 345.479 98.5057 345.41C98.8159 345.341 99.0917 345.237 99.3444 345.094C99.5915 344.956 99.804 344.778 99.9763 344.571C100.149 344.364 100.287 344.111 100.378 343.818C100.47 343.531 100.522 343.204 100.522 342.848C100.522 342.583 100.493 342.336 100.447 342.107C100.396 341.877 100.321 341.658 100.223 341.452C100.126 341.251 99.9993 341.067 99.8442 340.906C99.6834 340.745 99.4995 340.607 99.2927 340.492C99.0859 340.377 98.8446 340.291 98.5689 340.228C98.2931 340.171 97.9887 340.136 97.667 340.136H94.6395V348.495ZM96.0584 344.232V341.411H97.4601C97.9657 341.411 98.3621 341.538 98.6378 341.785C98.9136 342.032 99.0514 342.377 99.0514 342.819C99.0514 343.256 98.9078 343.6 98.6263 343.853C98.3448 344.106 97.9255 344.232 97.3625 344.232H96.0584Z" fill="#5B5863"/>
<g opacity="0.2" clip-path="url(#clip0_9588_46264)">
<path d="M92.8937 324.961C106.817 324.961 118.103 313.675 118.103 299.752C118.103 285.829 106.817 274.542 92.8937 274.542C78.9708 274.542 67.6841 285.829 67.6841 299.752C67.6841 313.675 78.9708 324.961 92.8937 324.961Z" fill="#FFB9CC"/>
<path d="M80.6422 320.907C80.6375 320.917 80.6312 320.923 80.6265 320.932C80.6643 320.942 80.7006 320.955 80.7385 320.962L80.6422 320.907Z" fill="#E9EFF4"/>
<path d="M79.0568 285.376L79.0063 285.273C79.4277 285.21 79.4561 284.913 79.7764 284.805C80.1409 284.685 80.0162 284.816 80.3744 284.805C80.6648 284.792 80.8415 285.003 81.1729 284.849C81.0924 284.991 80.9614 285.089 80.8305 285.185C80.5575 285.379 80.2782 285.578 79.9531 285.654C79.6281 285.728 79.2462 285.649 79.0568 285.376Z" fill="#FD3E72"/>
<path d="M84.0996 307.846C84.0933 308.068 83.9623 308.263 83.8487 308.45C83.3422 309.277 83.0345 310.235 82.9667 311.205C82.8988 312.135 82.9398 313.28 82.1303 313.738C81.668 313.995 81.0179 313.95 80.7102 314.383C80.6139 314.514 80.5681 314.68 80.5224 314.835C80.3236 315.559 80.1232 316.283 79.9243 317.008C79.6671 316.986 79.4052 316.957 79.1495 316.929C79.4525 317.025 79.6624 317.435 79.4809 317.716C79.1906 317.563 78.8087 317.745 78.6478 318.036C78.4947 318.327 78.5168 318.68 78.602 319.001C78.8655 319.947 79.675 320.711 80.6281 320.938C80.4624 321.252 79.9559 321.115 79.6466 320.905C77.439 319.412 75.7727 317.139 75.0121 314.584C74.7439 313.683 74.5719 312.725 74.0464 311.95C73.6077 311.295 72.945 310.816 72.5063 310.161C71.8909 309.22 71.7757 308.001 71.0625 307.141C70.6632 306.65 70.0462 306.047 70.3997 305.522C70.5417 305.305 70.8447 305.1 70.7248 304.872C70.6853 304.797 70.6048 304.752 70.5417 304.688C70.3019 304.431 70.4676 304.027 70.5875 303.696C70.7863 303.12 70.7863 302.505 70.7011 301.889C70.1015 301.353 69.6281 300.687 69.3314 299.939C69.1547 299.483 68.9196 298.913 68.4304 298.907C68.3042 298.553 68.1732 298.2 68.047 297.846C68.0012 297.973 67.8765 298.052 67.7393 298.069C68.118 292.292 70.4471 287.05 74.0716 282.988C74.1521 282.954 74.231 282.908 74.3115 282.862C75.1715 282.36 75.8563 281.608 76.6879 281.06C76.8583 280.946 77.0524 280.837 77.2639 280.86C77.469 280.877 77.6631 281.087 77.5889 281.281C77.5605 281.361 77.4927 281.424 77.4232 281.475C76.4496 282.303 75.3829 283.028 74.2484 283.627C74.1127 283.695 73.9691 283.776 73.9075 283.913C73.7923 284.146 73.9864 284.437 74.2326 284.522C74.4772 284.607 74.7517 284.557 75.0026 284.5C74.7912 284.801 74.7281 285.207 74.837 285.56C75.0705 285.582 75.1447 285.264 75.2141 285.041C75.4981 284.158 76.9073 283.798 76.8157 282.867C77.1976 283.066 77.5858 282.621 77.8193 282.256C78.0529 281.885 78.572 281.521 78.8576 281.846C78.8734 282.027 78.8955 282.21 78.9129 282.393C79.4146 282.267 79.9228 282.136 80.4245 282.01C80.1389 282.21 80.0427 282.638 80.2068 282.946C80.3725 283.253 80.7827 283.408 81.1078 283.282C81.1031 283.55 80.8632 283.755 80.6455 283.915C80.0932 284.331 79.4999 284.759 78.856 284.964L79.0044 285.272C78.9886 285.278 78.9712 285.284 78.9539 285.284C78.5436 285.324 78.1097 285.029 77.671 285.085C77.4027 285.12 77.0729 285.12 76.9183 285.393C76.8962 285.428 76.8 285.906 76.8678 285.866C77.1077 285.729 77.3459 285.592 77.581 285.456C77.6536 285.65 77.671 285.866 77.6315 286.078C77.9219 286.05 78.2249 286.111 78.4821 286.266C78.2138 286.887 77.5242 287.304 76.8457 287.252C76.8394 287.047 76.8284 286.842 76.822 286.637C76.2634 286.591 75.8074 287.07 75.5281 287.55C75.2441 288.035 75.0279 288.588 74.5592 288.896C74.2752 289.09 73.9265 289.164 73.6188 289.324C73.3174 289.489 73.0381 289.803 73.1012 290.14C73.1296 290.299 73.2322 290.447 73.2274 290.613C73.2101 290.921 72.8519 291.064 72.612 291.263C72.2018 291.606 72.0992 292.234 71.6605 292.535C71.3418 292.757 70.9189 292.753 70.548 292.866C70.1772 292.98 69.8064 293.351 69.9563 293.711C69.7733 293.774 69.5508 293.636 69.5334 293.442C68.8786 294.731 68.4462 296.134 68.2695 297.572C68.5945 297.799 68.9243 297.28 68.9874 296.887C69.0553 296.494 69.3977 295.98 69.7165 296.213C69.6423 296.778 69.5681 297.337 69.4955 297.902C69.4782 298.011 69.4671 298.124 69.5192 298.22C69.5823 298.34 69.718 298.391 69.8222 298.476C70.1125 298.727 70.0731 299.172 70.0904 299.554C70.1078 300.021 70.2624 300.477 70.507 300.876C70.4833 300.796 70.4676 300.717 70.4502 300.636C70.8952 300.693 71.3575 300.549 71.6936 300.253C71.8704 300.093 72.0187 299.888 72.2412 299.808C72.47 299.723 72.7209 299.784 72.9544 299.847C73.6787 300.046 74.4488 300.269 74.9332 300.838C75.1778 301.129 75.3324 301.495 75.6244 301.733C76.2855 302.292 77.4043 302.045 78.0087 302.667C78.4931 303.169 78.4032 303.978 78.2722 304.668C77.9408 304.486 77.4974 304.943 77.6915 305.268C77.8682 305.073 78.0734 304.868 78.3306 304.868C78.5925 304.862 78.8213 305.222 78.6272 305.388C79.0833 304.805 80.2005 305.045 80.3772 305.769C81.0163 305.815 81.6601 305.859 82.2992 305.911C82.1761 306.849 84.1391 306.904 84.0996 307.846Z" fill="#FD3E72"/>
<path d="M80.2134 281.464C79.9673 281.586 79.628 281.449 79.5365 281.19C79.4434 280.931 79.6185 280.611 79.8868 280.549C80.0556 280.51 80.2907 280.529 80.3428 280.363C80.3586 280.312 80.3491 280.257 80.3491 280.205C80.3428 279.893 80.6221 279.634 80.9235 279.555C81.2249 279.478 81.5436 279.538 81.8498 279.598C81.9587 279.823 81.9902 280.085 81.9381 280.33C81.7283 280.339 81.5184 280.347 81.3085 280.357C81.3275 280.705 81.2927 281.144 80.9693 281.273C80.6789 281.389 80.3002 281.174 80.0588 281.37" fill="#FD3E72"/>
<path d="M83.4814 277.982C84.0542 277.707 84.5387 277.275 85.1036 276.984C86.0756 276.486 87.2102 276.441 88.3021 276.407C90.7874 276.329 93.2727 276.252 95.758 276.175C95.1821 276.49 94.6061 276.808 94.0286 277.123C93.5583 277.382 93.0234 277.647 92.5074 277.5C92.4964 277.915 92.8735 278.3 93.2901 278.297C92.2691 278.928 90.8521 278.283 89.7744 278.813C89.3231 279.036 88.9586 279.455 88.4615 279.534C88.1743 279.58 87.8761 279.503 87.5905 279.566C87.1123 279.67 86.811 280.123 86.4575 280.461C86.0504 280.85 85.4523 281.117 84.9206 280.931C84.3888 280.745 84.1111 279.954 84.5371 279.585C84.747 279.403 85.0468 279.373 85.2945 279.246C85.5423 279.119 85.7379 278.78 85.5517 278.573C85.4713 278.483 85.3387 278.449 85.2645 278.352C85.1841 278.248 85.192 278.1 85.1257 277.986C84.8732 277.543 84.171 278.139 83.6929 277.961" fill="#FD3E72"/>
<path d="M91.0283 280.079C91.3644 280.001 91.6564 279.803 91.9704 279.657C92.2844 279.512 92.6584 279.427 92.9661 279.58C93.0576 279.809 92.7941 280.017 92.5621 280.099C92.1171 280.255 91.6343 280.298 91.1688 280.221" fill="#FD3E72"/>
<path d="M111.348 282.586C111.256 282.597 111.16 282.593 111.062 282.569C110.635 282.477 110.31 282.148 109.943 281.908C109.099 281.349 107.947 281.276 107.035 281.733C107.251 281.418 107.36 281.03 107.337 280.648L107.206 280.694C105.711 279.828 103.96 278.928 102.33 279.511C101.953 279.648 101.612 279.853 101.23 279.984C100.824 280.126 100.375 280.185 100.028 280.435C99.6741 280.686 99.4863 281.24 99.7892 281.542C100.046 281.799 100.457 281.729 100.817 281.764C101.17 281.799 101.576 282.151 101.381 282.454C99.8192 283.184 98.2523 283.921 96.6901 284.658C97.4081 284.892 97.8831 285.706 97.7284 286.447C97.203 286.539 96.6964 286.22 96.1662 286.186C95.3962 286.146 94.6608 286.825 94.6451 287.595C94.623 288.365 95.3299 289.076 96.1 289.065C96.6759 289.059 97.2408 288.712 97.7994 288.859C97.8215 288.333 98.1813 287.888 98.5505 287.513C99.2685 286.793 100.294 286.143 101.254 286.496C101.568 286.61 101.836 286.821 102.098 287.031C102.674 287.487 103.25 287.948 103.827 288.41C104.01 288.223 104.192 288.033 104.375 287.852C104.689 288.183 105.003 288.513 105.322 288.849C105.481 288.74 105.647 288.638 105.806 288.529C105.92 288.825 106.04 289.116 106.155 289.412C106.201 289.087 106.24 288.769 106.279 288.448C106.657 288.459 107.056 288.47 107.397 288.3C107.739 288.134 107.99 287.724 107.846 287.371C107.772 287.183 107.595 287.034 107.561 286.834C107.487 286.435 108.056 286.162 108.427 286.343C108.792 286.52 108.975 286.937 109.129 287.319C109.214 286.93 109.293 286.548 109.38 286.16C109.737 287.098 110.251 287.975 110.89 288.745C109.721 288.523 108.489 288.65 107.395 289.1C107.744 289.591 108.342 289.881 108.941 289.857C109.21 289.851 109.506 289.79 109.712 289.96C109.866 290.091 109.906 290.302 109.934 290.497C110.026 291.044 110.117 291.585 110.202 292.127C109.585 291.62 108.697 291.677 107.892 291.661C107.087 291.639 106.147 291.417 105.85 290.67C105.531 291.03 105.389 291.543 105.481 292.022C104.648 291.824 103.69 291.505 103.45 290.683C102.8 290.923 101.991 290.508 101.814 289.84C101.751 289.607 101.733 289.321 101.528 289.196C101.404 289.122 101.243 289.133 101.094 289.151C99.8571 289.294 98.6247 289.431 97.3939 289.575C96.7217 289.655 96.0258 289.736 95.4325 290.066C94.8392 290.391 94.3673 291.03 94.4352 291.704C93.3006 292.377 92.3381 293.353 91.688 294.5C91.4828 294.853 91.3061 295.259 91.3866 295.658C91.4434 295.966 91.6485 296.228 91.7116 296.531C91.8205 297.05 91.5238 297.552 91.3992 298.064C91.0457 299.524 92.1535 300.899 93.1807 302.003C93.6652 302.516 94.2253 303.075 94.9323 303.103C95.3709 303.12 95.7875 302.926 96.1978 302.765C97.3718 302.303 98.65 302.091 99.9092 302.142C99.6236 302.364 99.9202 302.849 100.275 302.923C100.629 302.997 101.011 302.882 101.353 303.002C102.134 303.281 102.027 304.427 101.673 305.175C101.85 305.14 102.033 305.105 102.215 305.072C102.118 305.323 102.02 305.574 101.924 305.819C102.996 305.954 103.401 307.363 103.152 308.418C102.907 309.473 102.281 310.442 102.264 311.526C102.259 312.119 102.44 312.695 102.623 313.259C103.081 314.69 103.537 316.121 103.995 317.557C105.273 317.71 106.006 316.085 107.193 315.577C107.638 315.383 108.162 315.343 108.511 315.012C108.847 314.693 108.738 313.945 108.306 313.945C108.893 313.882 109.394 313.346 109.412 312.752C109.418 312.587 109.394 312.421 109.416 312.257C109.456 312.023 109.604 311.818 109.746 311.618C110.652 310.317 111.239 308.828 111.826 307.357C111.979 306.963 112.134 306.576 112.287 306.182C112.867 304.716 113.443 303.256 114.024 301.79C114.251 301.214 114.48 300.644 114.707 300.067C114.393 300.586 113.573 300.518 113.104 300.13C112.631 299.743 112.385 299.155 112.014 298.67C111.7 298.254 111.277 297.885 111.129 297.376C111.043 297.086 111.059 296.772 111.009 296.469C110.893 295.813 110.461 295.267 110.164 294.673C109.868 294.08 109.713 293.312 110.13 292.791C111.329 294.883 112.419 297.037 113.406 299.245C113.514 298.902 113.765 298.606 114.084 298.44C114.318 298.314 114.58 298.263 114.826 298.161C115.476 297.875 115.926 297.186 115.926 296.479C115.919 295.772 115.47 295.082 114.813 294.803C114.488 294.666 114.117 294.621 113.81 294.432C113.502 294.251 113.279 293.834 113.473 293.531C113.655 293.245 114.095 293.252 114.397 293.411C114.699 293.577 114.922 293.856 115.206 294.044C115.411 294.181 115.651 294.271 115.873 294.397C117.077 295.087 117.374 296.655 117.627 298.023C117.764 298.759 117.919 299.489 118.102 300.207C118.108 300.053 118.106 299.893 118.106 299.74C118.1 293.11 115.536 287.083 111.348 282.586ZM113.656 290.871C113.491 290.859 113.338 290.751 113.205 290.648C112.989 290.478 112.771 290.277 112.708 290.009C112.634 289.69 112.787 289.324 112.617 289.04C112.536 288.903 112.394 288.818 112.274 288.721C111.96 288.47 111.731 288.111 111.646 287.724C111.572 287.382 111.679 286.926 112.028 286.869C112.194 286.84 112.375 286.932 112.449 287.085L112.216 287.211C112.609 287.257 112.792 287.85 112.49 288.106C112.451 288.145 112.399 288.18 112.399 288.237C112.399 288.272 112.421 288.305 112.451 288.328C112.695 288.597 113.062 288.693 113.38 288.863C113.699 289.029 114.013 289.337 113.963 289.69C113.86 289.73 113.764 289.764 113.661 289.804C113.552 289.913 113.639 290.107 113.753 290.214C113.866 290.321 114.015 290.43 114.021 290.59C114.021 290.762 113.827 290.882 113.656 290.871Z" fill="#FD3E72"/>
<path d="M113.82 308.414L113.409 308.706C113.552 309.211 113.265 309.803 112.777 310C112.52 310.104 112.178 310.15 112.091 310.414C112.018 310.638 112.192 310.865 112.216 311.098C112.254 311.487 111.891 311.777 111.629 312.066C111.367 312.354 111.228 312.897 111.577 313.071C111.657 313.112 111.75 313.12 111.84 313.128C112.219 313.161 112.634 313.172 112.943 312.951C113.83 312.318 112.987 310.601 113.863 309.951C113.988 309.86 114.144 309.793 114.212 309.655C114.418 309.246 113.656 308.84 113.82 308.414Z" fill="#FD3E72"/>
</g>
<path fill-rule="evenodd" clip-rule="evenodd" d="M90.9722 279.557H92.8008H94.6294L100.115 301.5L107.43 330.758H78.1719L85.4863 301.5L90.9722 279.557ZM81.8291 323.443H103.772L105.601 330.757H80.0005L81.8291 323.443ZM92.8007 312.929L82.2864 321.615H103.315L92.8007 312.929ZM88.229 305.157L92.8004 309.728L97.3721 305.157H88.229ZM92.8006 300.128L88.6862 303.785H96.915L92.8006 300.128ZM90.0578 295.557L92.8007 298.757L95.5436 295.557H90.0578ZM92.8007 292.357L90.515 294.642H95.0865L92.8007 292.357ZM90.9722 288.699L92.8008 290.985L94.6294 288.699H90.9722ZM93.2578 291.442L96.4578 294.5L95.0863 288.699L93.2578 291.442ZM89.144 294.5L92.344 291.442L90.5155 288.699L89.144 294.5ZM93.7148 299.214L98.7329 303.53L96.6976 295.557L93.7148 299.214ZM86.8682 303.53L91.8862 299.214L88.9034 295.557L86.8682 303.53ZM93.7154 311.1L102.859 319.133L99.201 305.157L93.7154 311.1ZM82.7435 319.152L91.8867 311.119L86.4009 305.157L82.7435 319.152Z" fill="#FD3E72"/>
<path d="M92.8953 285.103C90.2985 285.103 88.1934 282.998 88.1934 280.401C88.1934 277.804 90.2985 275.699 92.8953 275.699C95.4921 275.699 97.5972 277.804 97.5972 280.401C97.5972 282.998 95.4921 285.103 92.8953 285.103Z" fill="#FD3E72" stroke="white"/>
<path d="M101.131 276.449C100.673 275.534 99.2486 275.768 99.7589 276.449C101.13 278.277 101.588 281.477 99.7589 283.763C99.1525 284.521 100.673 284.677 101.131 283.763C102.502 281.02 102.502 279.192 101.131 276.449Z" fill="#FD3E72"/>
<path d="M103.416 273.705C102.715 272.77 101.309 273.075 102.044 273.705C105.244 276.448 105.244 283.305 102.044 286.505C101.358 287.192 102.69 287.595 103.416 286.505C106.159 282.391 106.502 277.819 103.416 273.705Z" fill="#FF749A"/>
<path d="M106.16 270.048C105.334 269.222 104.053 269.418 104.788 270.048C110.274 274.749 109.36 286.505 104.788 290.163C104.03 290.769 105.434 291.252 106.16 290.163C111.188 285.591 111.188 275.077 106.16 270.048Z" fill="#FFB3C7"/>
<path d="M84.0477 276.449C84.5048 275.534 85.9297 275.768 85.4193 276.449C84.0479 278.277 83.5907 281.477 85.4193 283.763C86.0257 284.521 84.5048 284.677 84.0477 283.763C82.6762 281.02 82.6761 279.192 84.0477 276.449Z" fill="#FD3E72"/>
<path d="M81.7625 273.705C82.4635 272.77 83.8695 273.075 83.1342 273.705C79.9338 276.448 79.9338 283.305 83.1341 286.505C83.8205 287.192 82.4887 287.595 81.7625 286.505C79.0194 282.391 78.6765 277.819 81.7625 273.705Z" fill="#FF749A"/>
<path d="M79.0187 270.048C79.8447 269.222 81.1257 269.418 80.3903 270.048C74.9043 274.749 75.8184 286.505 80.3903 290.163C81.1483 290.769 79.7449 291.252 79.0187 290.163C73.9906 285.591 73.9905 275.077 79.0187 270.048Z" fill="#FFB3C7"/>
</g>
<g filter="url(#filter2_d_9588_46264)">
<g filter="url(#filter3_d_9588_46264)">
<rect x="291" y="57" width="104.495" height="111.596" rx="5" fill="white"/>
</g>
<path d="M343.168 75.1875L334.82 78.3153C334.552 78.4147 334.374 78.6702 334.374 78.9559C334.374 79.2416 334.552 79.4971 334.82 79.5965L343.168 82.7243" fill="#FE8CAB"/>
<path d="M343.168 87.7484C342.474 87.7484 341.912 87.186 341.912 86.4923V73.9309C341.912 73.2372 342.474 72.6748 343.168 72.6748C343.861 72.6748 344.424 73.2372 344.424 73.9309V86.4923C344.424 87.186 343.861 87.7484 343.168 87.7484Z" fill="#5B5863"/>
<path d="M356.986 100.31L343.168 102.822L329.351 100.31C329.351 92.6785 335.537 86.4922 343.168 86.4922C350.799 86.4922 356.986 92.6785 356.986 100.31Z" fill="#FD3E72"/>
<path d="M362.01 102.822V107.847H324.326V102.822C324.33 101.436 325.453 100.314 326.838 100.31H359.498C360.884 100.314 362.006 101.436 362.01 102.822Z" fill="#5B5863"/>
<path d="M378.34 106.59V129.201H307.996V106.59C307.996 105.896 308.558 105.334 309.252 105.334H377.083C377.777 105.334 378.34 105.896 378.34 106.59Z" fill="#FD3E72"/>
<path d="M363.266 126.688V112.921C363.266 112.102 362.866 111.335 362.196 110.865L343.88 98.0223C343.452 97.7234 342.884 97.7234 342.456 98.0223L324.14 110.861C323.468 111.332 323.069 112.101 323.07 112.921L323.07 126.688" fill="#FAFAFA"/>
<path d="M331.863 112.871C333.25 112.871 334.375 113.996 334.375 115.383V126.688H329.351V115.383C329.351 113.996 330.475 112.871 331.863 112.871Z" fill="#FD3E72"/>
<path d="M354.473 112.871C355.861 112.871 356.985 113.996 356.985 115.383V126.688H351.961V115.383C351.961 113.996 353.086 112.871 354.473 112.871Z" fill="#FD3E72"/>
<path d="M343.169 110.359C344.556 110.359 345.681 111.484 345.681 112.871V126.689H340.656V112.871C340.656 111.484 341.781 110.359 343.169 110.359Z" fill="#FD3E72"/>
<path d="M313.021 115.383C312.328 115.383 311.765 114.821 311.765 114.127V111.615C311.765 110.921 312.328 110.359 313.021 110.359C313.715 110.359 314.277 110.921 314.277 111.615V114.127C314.277 114.821 313.715 115.383 313.021 115.383Z" fill="white"/>
<path d="M318.047 115.383C317.353 115.383 316.791 114.821 316.791 114.127V111.615C316.791 110.921 317.353 110.359 318.047 110.359C318.74 110.359 319.303 110.921 319.303 111.615V114.127C319.303 114.821 318.74 115.383 318.047 115.383Z" fill="white"/>
<path d="M313.021 122.92C312.328 122.92 311.765 122.357 311.765 121.663V119.151C311.765 118.457 312.328 117.895 313.021 117.895C313.715 117.895 314.277 118.457 314.277 119.151V121.663C314.277 122.357 313.715 122.92 313.021 122.92Z" fill="white"/>
<path d="M318.047 122.92C317.353 122.92 316.791 122.357 316.791 121.663V119.151C316.791 118.457 317.353 117.895 318.047 117.895C318.74 117.895 319.303 118.457 319.303 119.151V121.663C319.303 122.357 318.74 122.92 318.047 122.92Z" fill="white"/>
<path d="M368.292 115.383C367.599 115.383 367.036 114.821 367.036 114.127V111.615C367.036 110.921 367.599 110.359 368.292 110.359C368.986 110.359 369.548 110.921 369.548 111.615V114.127C369.548 114.821 368.986 115.383 368.292 115.383Z" fill="white"/>
<path d="M373.317 115.383C372.623 115.383 372.061 114.821 372.061 114.127V111.615C372.061 110.921 372.623 110.359 373.317 110.359C374.01 110.359 374.573 110.921 374.573 111.615V114.127C374.573 114.821 374.01 115.383 373.317 115.383Z" fill="white"/>
<path d="M368.292 122.92C367.599 122.92 367.036 122.357 367.036 121.663V119.151C367.036 118.457 367.599 117.895 368.292 117.895C368.986 117.895 369.548 118.457 369.548 119.151V121.663C369.548 122.357 368.986 122.92 368.292 122.92Z" fill="white"/>
<path d="M373.317 122.92C372.623 122.92 372.061 122.357 372.061 121.663V119.151C372.061 118.457 372.623 117.895 373.317 117.895C374.01 117.895 374.573 118.457 374.573 119.151V121.663C374.573 122.357 374.01 122.92 373.317 122.92Z" fill="white"/>
<path d="M378.339 126.688H307.996C307.302 126.688 306.74 127.251 306.74 127.945V130.457C306.74 131.151 307.302 131.713 307.996 131.713H378.339C379.033 131.713 379.596 131.151 379.596 130.457V127.945C379.596 127.251 379.033 126.688 378.339 126.688Z" fill="#CF1C4D"/>
<path d="M312.413 154.811C313.099 154.811 313.759 154.712 314.389 154.506C315.018 154.306 315.542 154.026 315.966 153.677V149.888H312.214V151.271H314.432V152.798C313.834 153.203 313.161 153.403 312.413 153.403C311.821 153.403 311.297 153.266 310.842 152.985C310.387 152.705 310.038 152.325 309.802 151.838C309.565 151.358 309.446 150.816 309.446 150.212C309.446 149.732 309.521 149.289 309.671 148.884C309.82 148.485 310.02 148.149 310.282 147.875C310.543 147.6 310.849 147.388 311.204 147.239C311.559 147.089 311.939 147.014 312.351 147.014C313.317 147.014 314.133 147.345 314.806 147.999L315.897 147.064C315.442 146.572 314.906 146.198 314.283 145.942C313.66 145.693 313.018 145.562 312.357 145.562C311.896 145.562 311.466 145.618 311.054 145.724C310.643 145.83 310.275 145.98 309.945 146.179C309.615 146.379 309.315 146.616 309.054 146.89C308.786 147.17 308.561 147.482 308.387 147.825C308.212 148.167 308.075 148.541 307.982 148.947C307.882 149.352 307.838 149.775 307.838 150.212C307.838 150.916 307.951 151.558 308.187 152.138C308.418 152.723 308.736 153.21 309.147 153.596C309.559 153.982 310.038 154.282 310.599 154.493C311.16 154.705 311.765 154.811 312.413 154.811Z" fill="#5B5863"/>
<path d="M320.671 154.83C321.294 154.83 321.855 154.699 322.354 154.431C322.853 154.163 323.239 153.783 323.519 153.297C323.794 152.811 323.937 152.25 323.937 151.626C323.937 151.003 323.794 150.442 323.519 149.95C323.239 149.464 322.853 149.084 322.36 148.816C321.862 148.548 321.301 148.411 320.671 148.411C320.023 148.411 319.45 148.554 318.951 148.834C318.452 149.115 318.066 149.495 317.798 149.981C317.53 150.467 317.399 151.016 317.399 151.626C317.399 152.081 317.474 152.505 317.636 152.898C317.792 153.297 318.01 153.633 318.29 153.92C318.571 154.207 318.92 154.425 319.331 154.587C319.742 154.749 320.185 154.83 320.671 154.83ZM320.671 153.534C320.141 153.534 319.705 153.353 319.362 152.985C319.02 152.624 318.851 152.169 318.851 151.626C318.851 151.078 319.02 150.623 319.356 150.255C319.693 149.894 320.129 149.707 320.671 149.707C321.188 149.707 321.618 149.888 321.967 150.243C322.31 150.604 322.485 151.066 322.485 151.626C322.485 152.181 322.31 152.636 321.961 152.998C321.612 153.359 321.182 153.534 320.671 153.534Z" fill="#5B5863"/>
<path d="M329.428 148.504L327.832 152.942H327.807L326.181 148.504H324.654L327.134 154.73H328.499L330.967 148.504H329.428Z" fill="#5B5863"/>
<path d="M337.455 151.545C337.455 150.947 337.331 150.405 337.088 149.931C336.838 149.458 336.489 149.09 336.028 148.816C335.567 148.548 335.031 148.411 334.433 148.411C334.002 148.411 333.604 148.492 333.23 148.647C332.856 148.803 332.532 149.021 332.264 149.296C331.989 149.576 331.777 149.913 331.628 150.311C331.472 150.71 331.397 151.147 331.397 151.614C331.397 152.25 331.534 152.817 331.815 153.309C332.089 153.802 332.469 154.176 332.955 154.437C333.435 154.699 333.978 154.83 334.582 154.83C335.162 154.83 335.673 154.724 336.115 154.512C336.558 154.3 336.919 154.014 337.206 153.652L336.209 152.798C335.816 153.291 335.299 153.534 334.657 153.534C334.196 153.534 333.809 153.409 333.491 153.153C333.174 152.904 332.968 152.555 332.881 152.113H337.418C337.443 151.963 337.455 151.776 337.455 151.545ZM334.507 149.707C334.769 149.707 335.006 149.763 335.218 149.869C335.43 149.975 335.598 150.118 335.729 150.305C335.86 150.492 335.959 150.71 336.022 150.96H332.906C333.005 150.561 333.198 150.255 333.485 150.037C333.772 149.819 334.108 149.707 334.507 149.707Z" fill="#5B5863"/>
<path d="M342.317 148.411C341.936 148.411 341.581 148.504 341.245 148.679C340.908 148.853 340.621 149.109 340.378 149.439H340.36V148.504H338.932V154.73H340.36V151.776C340.36 151.44 340.422 151.134 340.553 150.866C340.684 150.598 340.877 150.386 341.139 150.224C341.4 150.068 341.706 149.987 342.061 149.987C342.186 149.987 342.329 149.994 342.491 150.006V148.417C342.454 148.417 342.398 148.411 342.317 148.411Z" fill="#5B5863"/>
<path d="M347.215 148.411C346.804 148.411 346.424 148.492 346.062 148.654C345.701 148.816 345.389 149.052 345.128 149.358H345.109V148.504H343.682V154.73H345.109V151.602C345.109 151.302 345.146 151.034 345.221 150.791C345.296 150.554 345.408 150.355 345.551 150.193C345.688 150.037 345.863 149.919 346.062 149.832C346.262 149.751 346.48 149.707 346.723 149.707C346.947 149.707 347.134 149.738 347.296 149.794C347.458 149.856 347.596 149.95 347.72 150.081C347.839 150.212 347.926 150.386 347.988 150.611C348.044 150.835 348.075 151.109 348.075 151.433V154.737H349.503V151.066C349.503 150.168 349.297 149.501 348.892 149.065C348.487 148.629 347.926 148.411 347.215 148.411Z" fill="#5B5863"/>
<path d="M358.764 148.411C358.303 148.411 357.879 148.504 357.499 148.679C357.113 148.853 356.795 149.109 356.533 149.445H356.508C356.134 148.76 355.517 148.411 354.651 148.411C354.283 148.411 353.928 148.498 353.591 148.66C353.255 148.822 352.956 149.059 352.706 149.364H352.688V148.504H351.26V154.73H352.688V151.626C352.688 151.034 352.825 150.567 353.105 150.224C353.386 149.881 353.747 149.707 354.183 149.707C355.006 149.707 355.424 150.305 355.424 151.489V154.737H356.851V151.626C356.851 151.034 356.988 150.567 357.262 150.224C357.536 149.881 357.885 149.707 358.303 149.707C359.113 149.707 359.525 150.305 359.525 151.489V154.737H360.952V151.128C360.952 150.218 360.759 149.539 360.385 149.09C360.005 148.641 359.462 148.411 358.764 148.411Z" fill="#5B5863"/>
<path d="M368.406 151.545C368.406 150.947 368.281 150.405 368.038 149.931C367.789 149.458 367.44 149.09 366.979 148.816C366.518 148.548 365.982 148.411 365.383 148.411C364.953 148.411 364.554 148.492 364.18 148.647C363.806 148.803 363.482 149.021 363.214 149.296C362.94 149.576 362.728 149.913 362.579 150.311C362.423 150.71 362.348 151.147 362.348 151.614C362.348 152.25 362.485 152.817 362.766 153.309C363.04 153.802 363.42 154.176 363.906 154.437C364.386 154.699 364.928 154.83 365.533 154.83C366.112 154.83 366.623 154.724 367.066 154.512C367.508 154.3 367.87 154.014 368.157 153.652L367.159 152.798C366.767 153.291 366.25 153.534 365.608 153.534C365.146 153.534 364.76 153.409 364.442 153.153C364.124 152.904 363.919 152.555 363.831 152.113H368.369C368.393 151.963 368.406 151.776 368.406 151.545ZM365.458 149.707C365.72 149.707 365.957 149.763 366.168 149.869C366.38 149.975 366.549 150.118 366.68 150.305C366.81 150.492 366.91 150.71 366.972 150.96H363.856C363.956 150.561 364.149 150.255 364.436 150.037C364.723 149.819 365.059 149.707 365.458 149.707Z" fill="#5B5863"/>
<path d="M373.417 148.411C373.006 148.411 372.625 148.492 372.264 148.654C371.902 148.816 371.591 149.052 371.329 149.358H371.31V148.504H369.883V154.73H371.31V151.602C371.31 151.302 371.348 151.034 371.422 150.791C371.497 150.554 371.609 150.355 371.753 150.193C371.89 150.037 372.064 149.919 372.264 149.832C372.463 149.751 372.681 149.707 372.925 149.707C373.149 149.707 373.336 149.738 373.498 149.794C373.66 149.856 373.797 149.95 373.922 150.081C374.04 150.212 374.127 150.386 374.19 150.611C374.246 150.835 374.277 151.109 374.277 151.433V154.737H375.704V151.066C375.704 150.168 375.499 149.501 375.093 149.065C374.688 148.629 374.127 148.411 373.417 148.411Z" fill="#5B5863"/>
<path d="M379.319 154.83C379.687 154.83 379.986 154.799 380.217 154.737C380.447 154.674 380.678 154.587 380.902 154.462L380.528 153.228C380.192 153.409 379.88 153.496 379.606 153.496C379.4 153.496 379.251 153.434 379.151 153.297C379.051 153.166 379.007 152.942 379.007 152.63V149.719H380.84V148.504H379.007V146.279L377.58 146.435V148.504H376.82V149.719H377.58V152.761C377.58 153.446 377.73 153.957 378.035 154.306C378.341 154.655 378.771 154.83 379.319 154.83Z" fill="#5B5863"/>
</g>
<defs>
<filter id="filter0_d_9588_46264" x="37.5098" y="254" width="110.242" height="116" filterUnits="userSpaceOnUse" color-interpolation-filters="sRGB">
<feFlood flood-opacity="0" result="BackgroundImageFix"/>
<feColorMatrix in="SourceAlpha" type="matrix" values="0 0 0 0 0 0 0 0 0 0 0 0 0 0 0 0 0 0 127 0" result="hardAlpha"/>
<feOffset dy="2"/>
<feGaussianBlur stdDeviation="3.5"/>
<feColorMatrix type="matrix" values="0 0 0 0 0 0 0 0 0 0 0 0 0 0 0 0 0 0 0.15 0"/>
<feBlend mode="normal" in2="BackgroundImageFix" result="effect1_dropShadow_9588_46264"/>
<feBlend mode="normal" in="SourceGraphic" in2="effect1_dropShadow_9588_46264" result="shape"/>
</filter>
<filter id="filter1_d_9588_46264" x="15.5098" y="250" width="154.242" height="160" filterUnits="userSpaceOnUse" color-interpolation-filters="sRGB">
<feFlood flood-opacity="0" result="BackgroundImageFix"/>
<feColorMatrix in="SourceAlpha" type="matrix" values="0 0 0 0 0 0 0 0 0 0 0 0 0 0 0 0 0 0 127 0" result="hardAlpha"/>
<feOffset dy="20"/>
<feGaussianBlur stdDeviation="14.5"/>
<feColorMatrix type="matrix" values="0 0 0 0 0.1375 0 0 0 0 0.1375 0 0 0 0 0.1375 0 0 0 0.07 0"/>
<feBlend mode="normal" in2="BackgroundImageFix" result="effect1_dropShadow_9588_46264"/>
<feBlend mode="normal" in="SourceGraphic" in2="effect1_dropShadow_9588_46264" result="shape"/>
</filter>
<filter id="filter2_d_9588_46264" x="281" y="52" width="122.495" height="129.596" filterUnits="userSpaceOnUse" color-interpolation-filters="sRGB">
<feFlood flood-opacity="0" result="BackgroundImageFix"/>
<feColorMatrix in="SourceAlpha" type="matrix" values="0 0 0 0 0 0 0 0 0 0 0 0 0 0 0 0 0 0 127 0" result="hardAlpha"/>
<feOffset dx="-1" dy="4"/>
<feGaussianBlur stdDeviation="4.5"/>
<feColorMatrix type="matrix" values="0 0 0 0 0 0 0 0 0 0 0 0 0 0 0 0 0 0 0.2 0"/>
<feBlend mode="normal" in2="BackgroundImageFix" result="effect1_dropShadow_9588_46264"/>
<feBlend mode="normal" in="SourceGraphic" in2="effect1_dropShadow_9588_46264" result="shape"/>
</filter>
<filter id="filter3_d_9588_46264" x="262" y="48" width="162.495" height="169.596" filterUnits="userSpaceOnUse" color-interpolation-filters="sRGB">
<feFlood flood-opacity="0" result="BackgroundImageFix"/>
<feColorMatrix in="SourceAlpha" type="matrix" values="0 0 0 0 0 0 0 0 0 0 0 0 0 0 0 0 0 0 127 0" result="hardAlpha"/>
<feOffset dy="20"/>
<feGaussianBlur stdDeviation="14.5"/>
<feColorMatrix type="matrix" values="0 0 0 0 0.1375 0 0 0 0 0.1375 0 0 0 0 0.1375 0 0 0 0.07 0"/>
<feBlend mode="normal" in2="BackgroundImageFix" result="effect1_dropShadow_9588_46264"/>
<feBlend mode="normal" in="SourceGraphic" in2="effect1_dropShadow_9588_46264" result="shape"/>
</filter>
<clipPath id="clip0_9588_46264">
<rect width="50.4226" height="50.4226" fill="white" transform="translate(67.6841 274.542)"/>
</clipPath>
</defs>
</svg>
