<svg width="395" height="395" viewBox="0 0 395 395" fill="none" xmlns="http://www.w3.org/2000/svg">
<circle r="197.5" transform="matrix(-1 0 0 1 197.5 197.5)" fill="#FFEBF2"/>
<circle r="148.353" transform="matrix(-1 0 0 1 197.5 197.5)" fill="#FFDDE9"/>
<g filter="url(#filter0_d)">
<path d="M359.316 22.9822H29.1074C27.4414 22.9822 26.0908 24.4665 26.0908 26.2975V238.863C26.0908 240.694 27.4414 242.178 29.1074 242.178H359.316C360.982 242.178 362.333 240.694 362.333 238.863V26.2975C362.333 24.4665 360.982 22.9822 359.316 22.9822Z" fill="#455A64"/>
<path d="M26.0907 39.5476H362.333V242.428H26.0907V39.5476Z" fill="white"/>
<mask id="mask0" mask-type="alpha" maskUnits="userSpaceOnUse" x="26" y="62" width="337" height="181">
<path d="M36.0908 62.1064H352.095C357.618 62.1064 362.095 66.5836 362.095 72.1065V232.383C362.095 237.905 357.618 242.383 352.095 242.383H36.0908C30.5679 242.383 26.0908 237.905 26.0908 232.383V72.1064C26.0908 66.5836 30.5679 62.1064 36.0908 62.1064Z" fill="white"/>
</mask>
<g mask="url(#mask0)">
<rect x="223.546" y="82.8162" width="99.7272" height="14.5755" rx="5" fill="#EDEDED"/>
<rect x="223.546" y="169.893" width="99.7272" height="14.5755" rx="5" fill="#EDEDED"/>
<rect x="223.894" y="118.318" width="6.06759" height="6.06759" rx="3.03379" fill="#EDEDED"/>
<rect x="234.816" y="118.318" width="40.6528" height="6.06759" rx="3.03379" fill="#EDEDED"/>
<rect x="278.502" y="118.318" width="40.6528" height="6.06759" rx="3.03379" fill="#EDEDED"/>
<rect x="223.894" y="129.847" width="6.06759" height="6.06759" rx="3.03379" fill="#EDEDED"/>
<rect x="234.816" y="129.847" width="20.023" height="6.06759" rx="3.03379" fill="#EDEDED"/>
<rect x="258.479" y="129.847" width="43.6866" height="6.06759" rx="3.03379" fill="#EDEDED"/>
<rect x="306.413" y="129.847" width="33.9785" height="6.06759" rx="3.03379" fill="#EDEDED"/>
<rect x="223.894" y="193.557" width="6.06759" height="6.06759" rx="3.03379" fill="#EDEDED"/>
<rect x="234.816" y="193.556" width="20.023" height="6.06759" rx="3.03379" fill="#EDEDED"/>
<rect x="258.479" y="193.556" width="43.6866" height="6.06759" rx="3.03379" fill="#EDEDED"/>
<rect x="306.413" y="193.556" width="33.9785" height="6.06759" rx="3.03379" fill="#EDEDED"/>
<rect x="223.546" y="151.858" width="11.507" height="6.13706" rx="3.06853" fill="#EDEDED"/>
<rect x="234.816" y="106.79" width="59.4624" height="6.06759" rx="3.03379" fill="#EDEDED"/>
<rect x="223.894" y="106.79" width="6.06759" height="6.06759" rx="3.03379" fill="#EDEDED"/>
<rect x="297.919" y="106.79" width="35.192" height="6.06759" rx="3.03379" fill="#EDEDED"/>
<rect x="234.816" y="141.375" width="59.4624" height="6.06759" rx="3.03379" fill="#EDEDED"/>
<rect x="223.894" y="141.375" width="6.06759" height="6.06759" rx="3.03379" fill="#EDEDED"/>
<rect x="297.919" y="141.375" width="35.192" height="6.06759" rx="3.03379" fill="#EDEDED"/>
<rect x="234.816" y="205.085" width="59.4624" height="6.06759" rx="3.03379" fill="#EDEDED"/>
<rect x="223.894" y="205.085" width="6.06759" height="6.06759" rx="3.03379" fill="#EDEDED"/>
<rect x="297.919" y="205.085" width="35.192" height="6.06759" rx="3.03379" fill="#EDEDED"/>
<ellipse rx="127.268" ry="120.843" transform="matrix(-1 0 0 1 73.0268 149.332)" fill="#FFF7F9"/>
<g filter="url(#filter1_d)">
<ellipse cx="123.677" cy="137.19" rx="60.7717" ry="60.4916" fill="#FAFAFA"/>
</g>
<ellipse cx="123.774" cy="136.903" rx="41.8252" ry="41.1613" fill="#FD3E72"/>
<g filter="url(#filter2_i)">
<ellipse cx="123.756" cy="137.041" rx="32.7877" ry="32.4389" fill="white"/>
</g>
<g filter="url(#filter3_d)">
<path d="M138.503 137.042L114.087 151.343L114.087 122.741L138.503 137.042Z" fill="#FD3E72"/>
</g>
<g filter="url(#filter4_d)">
<rect width="59.2969" height="20.9283" rx="5" transform="matrix(-1 0 0 1 153.747 159.714)" fill="#FD3E72"/>
</g>
<rect width="55.1112" height="16.7426" rx="3" transform="matrix(-1 0 0 1 151.655 161.807)" fill="white"/>
<path d="M110.812 166.282L109.269 171.644H109.248L107.847 166.282H106.185L104.773 171.644H104.751L103.209 166.282H101.536L104.032 174.211H105.482L107.024 168.571H107.04L108.534 174.211H109.989L112.485 166.282H110.812Z" fill="#5B5863"/>
<path d="M117.837 171.437C117.837 170.909 117.722 170.434 117.504 170.015C117.281 169.595 116.965 169.268 116.562 169.028C116.153 168.789 115.684 168.669 115.161 168.669C114.779 168.669 114.42 168.74 114.087 168.876C113.749 169.017 113.466 169.208 113.226 169.453C112.986 169.699 112.801 169.998 112.665 170.347C112.523 170.696 112.458 171.078 112.458 171.481C112.458 172.037 112.578 172.533 112.823 172.963C113.068 173.399 113.406 173.732 113.831 173.961C114.256 174.19 114.73 174.304 115.264 174.304C115.788 174.304 116.245 174.211 116.649 174.026C117.047 173.841 117.368 173.59 117.619 173.274L116.671 172.391C116.327 172.805 115.891 173.012 115.368 173.007C115.019 173.007 114.719 172.909 114.474 172.724C114.229 172.538 114.065 172.288 113.978 171.961H117.799C117.82 171.873 117.837 171.699 117.837 171.437ZM115.21 169.955C115.515 169.955 115.771 170.042 115.973 170.211C116.169 170.38 116.311 170.614 116.387 170.909H113.984C114.065 170.603 114.213 170.364 114.431 170.2C114.649 170.037 114.905 169.955 115.21 169.955Z" fill="#5B5863"/>
<path d="M122.137 168.669C121.45 168.669 120.9 168.908 120.491 169.377H120.464V165.993H119.003V174.211H120.398V173.552H120.426C120.818 174.053 121.374 174.304 122.093 174.304C122.464 174.304 122.813 174.239 123.134 174.102C123.456 173.972 123.734 173.781 123.963 173.541C124.192 173.301 124.377 173.001 124.508 172.653C124.639 172.304 124.704 171.917 124.704 171.503C124.704 171.099 124.639 170.718 124.508 170.364C124.377 170.015 124.197 169.715 123.968 169.464C123.739 169.219 123.467 169.023 123.151 168.881C122.835 168.74 122.497 168.669 122.137 168.669ZM121.826 172.996C121.418 172.996 121.074 172.86 120.802 172.582C120.529 172.309 120.393 171.95 120.393 171.508C120.393 171.072 120.524 170.707 120.796 170.418C121.063 170.129 121.407 169.982 121.826 169.982C122.224 169.982 122.557 170.124 122.824 170.402C123.085 170.685 123.222 171.05 123.222 171.508C123.222 171.95 123.091 172.309 122.829 172.582C122.568 172.86 122.235 172.996 121.826 172.996Z" fill="#5B5863"/>
<path d="M132.116 174.211L130.159 171.334V171.312C130.497 171.203 130.786 171.039 131.026 170.827C131.266 170.62 131.451 170.353 131.582 170.031C131.713 169.71 131.784 169.339 131.784 168.925C131.784 168.538 131.724 168.184 131.615 167.868C131.506 167.551 131.337 167.273 131.119 167.034C130.901 166.794 130.612 166.609 130.252 166.478C129.892 166.347 129.484 166.282 129.02 166.282H126.023V174.211H127.571V171.497H128.481L130.258 174.211H132.116ZM127.571 167.677H128.737C129.184 167.677 129.533 167.786 129.783 168.004C130.034 168.222 130.159 168.522 130.159 168.892C130.159 169.268 130.029 169.568 129.773 169.786C129.511 170.004 129.146 170.113 128.672 170.113H127.571V167.677Z" fill="#5B5863"/>
<path d="M134.759 174.211H136.324V167.688H138.52V166.282H132.574V167.688H134.759V174.211Z" fill="#5B5863"/>
<path d="M142.918 174.293C143.583 174.293 144.183 174.157 144.722 173.884C145.256 173.612 145.709 173.247 146.074 172.789L144.924 171.802C144.678 172.108 144.384 172.353 144.035 172.533C143.687 172.718 143.311 172.805 142.918 172.805C142.449 172.805 142.035 172.702 141.67 172.484C141.305 172.266 141.021 171.966 140.82 171.579C140.618 171.198 140.52 170.761 140.52 170.271C140.52 170.048 140.536 169.835 140.58 169.628C140.618 169.426 140.678 169.241 140.754 169.067C140.831 168.892 140.918 168.734 141.027 168.587C141.136 168.445 141.256 168.314 141.392 168.205C141.528 168.096 141.675 167.998 141.839 167.922C141.997 167.846 142.166 167.786 142.351 167.742C142.531 167.704 142.722 167.682 142.918 167.682C143.311 167.682 143.681 167.78 144.03 167.966C144.379 168.151 144.673 168.396 144.924 168.69L146.074 167.709C145.79 167.366 145.469 167.077 145.109 166.843C144.749 166.614 144.384 166.445 144.024 166.341C143.659 166.243 143.289 166.189 142.918 166.189C142.406 166.189 141.937 166.26 141.501 166.396C141.065 166.538 140.689 166.728 140.373 166.979C140.057 167.23 139.784 167.519 139.555 167.857C139.327 168.195 139.158 168.571 139.049 168.979C138.934 169.388 138.88 169.819 138.88 170.271C138.88 170.783 138.95 171.257 139.092 171.693C139.234 172.129 139.425 172.506 139.675 172.822C139.926 173.138 140.22 173.405 140.558 173.628C140.896 173.857 141.261 174.021 141.665 174.13C142.062 174.239 142.482 174.293 142.918 174.293Z" fill="#5B5863"/>
</g>
<circle r="6.02966" transform="matrix(-1 0 0 1 47.7266 50.2916)" fill="#FADAE3"/>
<path d="M50.9187 47.1025C50.3645 47.1025 49.9176 47.5192 49.9176 48.036V50.7394C49.9176 50.8525 49.9107 50.9655 49.8968 51.085C49.8829 51.2013 49.8483 51.3079 49.7929 51.4048C49.7374 51.5017 49.6543 51.5824 49.5435 51.647C49.4326 51.7116 49.2733 51.7439 49.0723 51.7439C48.8714 51.7439 48.7121 51.7116 48.6012 51.647C48.4904 51.5824 48.4072 51.5017 48.3518 51.4048C48.2964 51.3079 48.2617 51.2013 48.2479 51.085C48.234 50.9688 48.2271 50.8525 48.2271 50.7394V47.952C47.6728 47.952 47.226 48.3687 47.226 48.8855V50.7362C47.226 50.8493 47.219 50.9623 47.2052 51.0818C47.1913 51.1981 47.1567 51.3047 47.1013 51.4016C47.0458 51.4985 46.9627 51.5792 46.8518 51.6438C46.741 51.7084 46.5816 51.7407 46.3807 51.7407C46.1798 51.7407 46.0205 51.7084 45.9096 51.6438C45.7988 51.5792 45.7156 51.4985 45.6602 51.4016C45.6048 51.3047 45.5701 51.1981 45.5563 51.0818C45.5424 50.9655 45.5355 50.8493 45.5355 50.7362V48.8015C44.9812 48.8015 44.5344 49.2214 44.5344 49.7349V50.7362C44.5344 51.0011 44.5621 51.2336 44.6175 51.4339C44.6729 51.6341 44.7422 51.8053 44.8253 51.9507C44.912 52.096 45.0089 52.2155 45.1198 52.3124C45.2306 52.4093 45.345 52.4868 45.4593 52.5482C45.726 52.6903 46.0343 52.7678 46.3773 52.7775C46.7271 52.7678 47.0354 52.6903 47.3056 52.5482C47.42 52.4868 47.5343 52.4093 47.6417 52.3124C47.6694 52.2866 47.6971 52.2607 47.7248 52.2317C47.7525 52.2607 47.7802 52.2866 47.8079 52.3124C47.9188 52.4093 48.0331 52.4868 48.1474 52.5482C48.4142 52.6903 48.7225 52.7678 49.0654 52.7775C49.4153 52.7678 49.7236 52.6903 49.9938 52.5482C50.1081 52.4868 50.2224 52.4093 50.3298 52.3124C50.4407 52.2155 50.5377 52.096 50.6243 51.9507C50.7109 51.8053 50.7801 51.6341 50.8321 51.4339C50.8841 51.2336 50.9083 51.0043 50.9083 50.7362L50.9187 47.1025Z" fill="#FD3E72"/>
<path d="M356.658 61.9954H36.7314" stroke="#F2D9E0"/>
<path d="M56.3965 31.417C56.3965 32.0006 56.2235 32.571 55.8993 33.0562C55.5751 33.5414 55.1143 33.9196 54.5751 34.1429C54.036 34.3662 53.4428 34.4247 52.8704 34.3108C52.2981 34.197 51.7724 33.916 51.3597 33.5033C50.9471 33.0907 50.6661 32.565 50.5522 31.9926C50.4384 31.4203 50.4968 30.8271 50.7201 30.2879C50.9435 29.7488 51.3216 29.288 51.8068 28.9638C52.292 28.6396 52.8625 28.4666 53.446 28.4666C53.8335 28.4666 54.2172 28.5429 54.5751 28.6911C54.9331 28.8394 55.2584 29.0568 55.5323 29.3307C55.8063 29.6047 56.0237 29.93 56.1719 30.2879C56.3202 30.6459 56.3965 31.0296 56.3965 31.417Z" fill="#00B67A"/>
<path d="M38.5112 31.417C38.5112 32.0006 38.3382 32.571 38.014 33.0562C37.6898 33.5414 37.229 33.9196 36.6899 34.1429C36.1507 34.3662 35.5575 34.4247 34.9851 34.3108C34.4128 34.197 33.8871 33.916 33.4744 33.5033C33.0618 33.0907 32.7808 32.565 32.667 31.9926C32.5531 31.4203 32.6115 30.8271 32.8349 30.2879C33.0582 29.7488 33.4363 29.288 33.9216 28.9638C34.4068 28.6396 34.9772 28.4666 35.5608 28.4666C35.9482 28.4666 36.3319 28.5429 36.6899 28.6911C37.0478 28.8394 37.3731 29.0568 37.6471 29.3307C37.921 29.6047 38.1384 29.93 38.2866 30.2879C38.4349 30.6459 38.5112 31.0296 38.5112 31.417Z" fill="#FD3E72"/>
<path d="M47.0989 31.4172C47.0989 32.002 46.925 32.5737 46.5995 33.0595C46.2739 33.5454 45.8113 33.9235 45.2704 34.1459C44.7295 34.3683 44.1347 34.4249 43.5615 34.3086C42.9884 34.1922 42.4627 33.9082 42.0513 33.4925C41.6399 33.0768 41.3614 32.5483 41.251 31.9739C41.1406 31.3996 41.2034 30.8054 41.4314 30.2669C41.6593 29.7283 42.0422 29.2696 42.5314 28.9491C43.0206 28.6286 43.594 28.4607 44.1788 28.4667C44.9561 28.4747 45.6988 28.7891 46.2455 29.3416C46.7923 29.894 47.0989 30.6399 47.0989 31.4172Z" fill="#F8C83C"/>
</g>
<mask id="mask1" mask-type="alpha" maskUnits="userSpaceOnUse" x="49" y="49" width="297" height="297">
<circle r="148.353" transform="matrix(-1 0 0 1 197.5 197.5)" fill="#FFDDE9"/>
</mask>
<g mask="url(#mask1)">
<path d="M213.921 238.545C213.921 238.545 215.032 226.702 216.155 226.802C217.278 226.901 217.465 228.998 217.328 230.021C217.191 231.045 217.328 235.013 217.328 235.013L213.921 238.545Z" fill="#FFBE9D"/>
<path d="M315.541 228.848L309.862 268.782L336.069 383.268L263.689 389.058L294.811 205.625C294.811 205.625 315.478 202.354 315.541 228.848Z" fill="#C62F59"/>
<path d="M257.936 291.707C257.936 291.707 243.959 384.541 245.993 389.046C248.027 393.551 293.277 439.874 293.277 439.874L310.262 410.785C310.262 410.785 280.311 377.602 280.748 375.842C281.185 374.083 302.337 284.231 302.337 284.231L257.936 291.707Z" fill="#4D2A15"/>
<path d="M252.969 325.975C253.106 324.989 264.375 299.643 264.375 299.643L258.897 291.931L257.936 291.719L252.969 325.975Z" fill="#472613"/>
<path d="M310.274 282.971L311.11 286.415C313.612 296.574 312.087 307.306 306.855 316.366L268.968 382.045C266.278 386.709 264.32 391.76 263.165 397.02L253.73 439.45C253.73 439.45 223.942 440.46 222.657 439.45C221.371 438.439 226.5 410.348 229.92 389.07C232.503 373.022 253.968 323.217 264.375 299.693L257.936 291.756L269.167 289.897L310.274 282.971Z" fill="#4D2A15"/>
<path d="M263.552 299.419C263.119 300.839 262.589 302.227 261.967 303.575C260.943 306.071 259.471 309.627 257.998 313.558C256.526 317.489 255.165 321.046 254.254 323.542C253.796 324.949 253.246 326.325 252.607 327.66C252.649 327.264 252.737 326.875 252.869 326.499C253.081 325.763 253.406 324.702 253.83 323.392C254.679 320.784 255.939 317.152 257.449 313.296C258.959 309.44 260.469 305.896 261.605 303.4C262.179 302.152 262.653 301.154 263.003 300.467C263.141 300.096 263.325 299.744 263.552 299.419Z" fill="#3F2210"/>
<path d="M260.444 409.562C260.417 409.317 260.417 409.07 260.444 408.826C260.507 408.276 260.607 407.578 260.706 406.729C260.806 405.88 260.981 404.707 261.268 403.422C261.555 402.137 261.78 400.676 262.229 399.092C262.441 398.305 262.666 397.469 262.89 396.596C263.115 395.722 263.439 394.849 263.726 393.925C264.275 392.078 265.037 390.181 265.785 388.11C267.541 383.733 269.532 379.455 271.751 375.293C275.855 367.787 280.384 360.521 285.316 353.529C287.175 350.834 288.722 348.675 289.808 347.19L291.056 345.493C291.197 345.288 291.356 345.096 291.53 344.919C291.436 345.149 291.314 345.367 291.168 345.568C290.856 346.017 290.482 346.603 290.008 347.327L285.677 353.779C282.121 359.233 277.129 366.808 272.35 375.543C270.143 379.682 268.148 383.931 266.372 388.272C265.611 390.294 264.825 392.203 264.263 394.037C263.963 394.961 263.651 395.834 263.402 396.683C263.152 397.532 262.928 398.368 262.716 399.179C262.241 400.751 261.954 402.211 261.655 403.472C261.355 404.732 261.143 405.843 260.993 406.741C260.844 407.64 260.719 408.276 260.619 408.813C260.587 409.068 260.528 409.319 260.444 409.562Z" fill="#3F2210"/>
<path d="M297.595 204.788L268.281 207.283C268.281 207.283 259.546 207.483 249.962 229.746L243.073 251.835L255.465 254.48V255.728L257.961 291.706L310.823 283.195C310.936 278.628 308.328 271.964 306.418 265.724C308.402 260.795 316.751 239.281 316.739 228.923C316.739 206.772 297.583 204.862 297.583 204.862" fill="white"/>
<path d="M303.336 257.688C302.042 258.314 300.639 258.683 299.205 258.774C297.8 259.054 296.354 259.054 294.95 258.774C296.319 258.419 297.719 258.197 299.13 258.112C300.515 257.837 301.924 257.695 303.336 257.688Z" fill="white"/>
<path d="M258.061 255.928L257.462 294.976L273.31 206.048C268.044 205.112 258.223 209.255 254.529 214.509C251.883 217.654 250.436 224.892 243.073 246.681L238.555 261.469L220.236 241.415L207.894 252.571C207.894 252.571 229.183 287.351 238.081 289.273C250.186 291.894 258.048 255.928 258.048 255.928" fill="#FD3E72"/>
<path d="M260.594 219.801C260.603 220.313 260.548 220.824 260.432 221.323C260.269 222.421 260.057 223.819 259.795 225.429C259.259 228.898 258.547 233.69 257.886 239.006C257.225 244.322 256.763 249.152 256.438 252.646C256.289 254.293 256.164 255.679 256.051 256.777C256.045 257.291 255.973 257.803 255.839 258.299C255.788 257.789 255.788 257.275 255.839 256.764C255.839 255.779 255.927 254.368 256.027 252.609C256.226 249.102 256.638 244.26 257.274 238.881C257.911 233.503 258.722 228.761 259.371 225.304C259.708 223.582 259.995 222.184 260.207 221.223C260.292 220.738 260.422 220.262 260.594 219.801Z" fill="#CD2F5A"/>
<path d="M299.891 276.806L309.064 385.838L336.693 383.23L310.461 268.744L313.669 238.008L299.891 276.806Z" fill="#FD3E72"/>
<circle opacity="0.3" cx="173.836" cy="176.263" r="52.4846" fill="#FD3E72"/>
<mask id="mask2" mask-type="alpha" maskUnits="userSpaceOnUse" x="121" y="123" width="106" height="106">
<circle cx="173.836" cy="176.263" r="52.4846" fill="#FD3E72"/>
</mask>
<g mask="url(#mask2)">
<g filter="url(#filter5_d)">
<ellipse cx="48.0382" cy="41.1089" rx="186.986" ry="186.124" fill="#FAFAFA"/>
<path d="M177.78 161.094L178.69 173.836L183.848 168.679L181.118 159.881L172.32 153.51L170.803 137.127V153.51L177.78 161.094Z" fill="#C4C4C4" stroke="#C4C4C4"/>
</g>
<ellipse cx="48.3368" cy="40.2263" rx="128.69" ry="126.647" fill="#FD3E72"/>
<g filter="url(#filter6_i)">
<ellipse cx="48.2829" cy="40.6522" rx="100.883" ry="99.8099" fill="white"/>
</g>
<g filter="url(#filter7_d)">
<rect width="182.448" height="64.3935" rx="5" transform="matrix(-1 0 0 1 140.562 110.412)" fill="#FD3E72"/>
</g>
<rect width="169.57" height="51.5148" rx="3" transform="matrix(-1 0 0 1 134.122 116.851)" fill="white"/>
</g>
<g filter="url(#filter8_d)">
<path d="M181.426 175.353C181.426 175.353 167.453 198.08 171.109 205.138C173.305 209.377 176.699 211.547 181.426 211.547C186.152 211.547 189.546 209.377 191.742 205.138C195.398 198.08 181.426 175.353 181.426 175.353Z" fill="#5B5863"/>
<path d="M190.302 201.645C189.961 198.572 189.619 197.889 188.595 195.157C188.339 194.474 187.329 194.654 187.571 195.499C188.254 197.889 188.936 198.913 188.936 201.645C188.936 203.352 188.595 204.377 187.229 205.742C186.888 206.425 187.229 207.45 188.254 206.767C189.619 205.401 190.301 204.377 190.302 201.645Z" fill="white" stroke="white"/>
</g>
<path d="M259.184 290.034L212.773 226.814C215.524 224.695 218.099 222.358 220.473 219.825C230.369 209.232 236.371 195.59 237.495 181.137C238.618 166.684 234.796 152.278 226.656 140.283C218.516 128.288 206.541 119.415 192.695 115.12C178.85 110.826 163.955 111.364 150.456 116.647C136.956 121.93 125.653 131.644 118.4 144.196C111.147 156.748 108.376 171.392 110.54 185.726C112.704 200.06 119.675 213.233 130.31 223.084C140.946 232.935 154.613 238.88 169.07 239.942C171.35 240.109 173.637 240.15 175.922 240.067C185.212 239.781 194.328 237.464 202.627 233.278L249.512 297.147C250.46 298.423 251.875 299.271 253.447 299.505C255.02 299.739 256.62 299.34 257.899 298.395C259.173 297.453 260.024 296.046 260.264 294.48C260.505 292.913 260.117 291.315 259.184 290.034ZM175.572 228.086C173.716 228.147 171.859 228.114 170.006 227.987C156.736 227.03 144.339 221.018 135.372 211.189C126.404 201.361 121.551 188.466 121.811 175.164C122.072 161.861 127.428 149.167 136.774 139.697C146.12 130.228 158.743 124.706 172.041 124.271C173.917 124.208 175.796 124.245 177.669 124.383C190.918 125.373 203.285 131.403 212.224 141.233C221.163 151.062 225.995 163.944 225.727 177.228C225.458 190.511 220.109 203.187 210.78 212.647C201.451 222.107 188.851 227.633 175.572 228.086Z" fill="#4E4C54"/>
<path d="M240.752 255.653L235.248 274.46C235.248 274.46 264.051 284.93 279.65 284.73C294.263 284.556 298.444 282.896 303.585 271.103C308.727 259.31 314.567 245.757 315.815 237.908C315.815 237.908 324.064 201.98 292.591 205.187L291.718 233.278C291.718 233.278 288.236 244.796 287.974 245.47C285.628 251.71 282.583 260.783 279.638 261.881C276.692 262.979 240.752 255.653 240.752 255.653Z" fill="#FD3E72"/>
<path d="M285.952 270.716C283.634 267.992 281.817 264.878 280.586 261.519C281.651 262.94 282.591 264.452 283.394 266.036C284.374 267.523 285.23 269.088 285.952 270.716Z" fill="#CD2F5A"/>
<path d="M288.897 267.758C287.394 266.983 285.99 266.027 284.717 264.913C283.333 263.96 282.075 262.836 280.973 261.569C282.473 262.35 283.876 263.305 285.153 264.414C286.537 265.367 287.795 266.49 288.897 267.758Z" fill="#CD2F5A"/>
<path d="M298.681 216.518C297.767 219.52 296.658 222.459 295.362 225.316C294.259 228.253 292.962 231.112 291.48 233.877C292.384 230.874 293.489 227.934 294.788 225.079C295.891 222.141 297.192 219.281 298.681 216.518Z" fill="#CD2F5A"/>
<path d="M314.567 243.262C314.485 243.755 314.347 244.236 314.155 244.697C313.806 245.72 313.369 247.006 312.907 248.516C311.759 251.735 310.149 256.178 308.253 260.995C306.356 265.812 304.509 270.192 302.986 273.275C302.25 274.822 301.626 276.058 301.164 276.894C300.96 277.338 300.704 277.757 300.403 278.142C300.537 277.662 300.721 277.198 300.952 276.757C301.389 275.771 301.926 274.523 302.575 273.013C303.947 269.88 305.757 265.525 307.666 260.683C309.575 255.841 311.21 251.548 312.483 248.204C313.107 246.619 313.631 245.334 313.993 244.46C314.147 244.044 314.339 243.643 314.567 243.262Z" fill="#CD2F5A"/>
<path d="M268.281 261.057C268.281 261.232 262.042 260.234 254.279 258.836C246.517 257.438 240.353 256.166 240.39 256.003C240.427 255.841 246.63 256.827 254.392 258.225C262.154 259.622 268.319 260.895 268.281 261.057Z" fill="#CD2F5A"/>
<path d="M300.565 158.489C301.407 156.957 302.747 155.759 304.362 155.091C305.978 154.424 307.773 154.329 309.451 154.82C311.111 155.366 312.616 156.303 313.839 157.552C315.061 158.8 315.966 160.325 316.477 161.996C317.462 165.362 317.527 168.93 316.664 172.329C316.115 174.825 315.416 177.708 317.038 179.629C318.66 181.551 321.431 181.377 323.215 182.924C323.656 183.311 324.012 183.784 324.262 184.314C324.512 184.844 324.65 185.42 324.668 186.006C324.687 186.592 324.584 187.175 324.368 187.72C324.152 188.264 323.826 188.759 323.41 189.172C322.995 189.586 322.499 189.91 321.954 190.124C321.408 190.338 320.825 190.438 320.239 190.417C319.653 190.396 319.078 190.256 318.549 190.004C318.02 189.751 317.548 189.393 317.163 188.951C317.163 190.686 318.111 192.271 318.648 193.943C319.185 195.615 319.259 197.687 317.937 198.798C317.411 199.177 316.794 199.409 316.15 199.47C315.505 199.532 314.855 199.42 314.268 199.147C313.095 198.591 312.033 197.826 311.135 196.888C311.747 198.68 311.747 200.625 311.135 202.417C310.806 203.301 310.253 204.084 309.532 204.692C308.81 205.3 307.944 205.711 307.017 205.886C305.842 205.973 304.668 205.707 303.645 205.122C302.623 204.537 301.798 203.66 301.277 202.604C300.275 200.469 299.898 198.093 300.191 195.753C300.453 192.109 301.439 188.54 301.838 184.921C302.48 181.293 302.01 177.557 300.49 174.201" fill="#4E4A57"/>
<path d="M321.718 179.767C321.718 179.767 321.568 179.854 321.244 179.767C321.011 179.729 320.79 179.637 320.6 179.498C320.409 179.359 320.253 179.178 320.145 178.968C319.969 178.621 319.924 178.222 320.018 177.844C320.112 177.466 320.339 177.134 320.657 176.909C321.067 176.596 321.576 176.441 322.091 176.47C322.606 176.5 323.094 176.713 323.465 177.072C323.902 177.496 324.212 178.034 324.36 178.625C324.507 179.216 324.487 179.836 324.301 180.416C324.139 181.076 323.788 181.675 323.29 182.138C322.743 182.63 322.041 182.917 321.306 182.949C320.552 182.997 319.8 182.833 319.135 182.475C318.449 182.089 317.877 181.53 317.475 180.853C316.686 179.442 316.404 177.804 316.676 176.21C317.138 173.003 318.685 170.32 318.648 167.625C318.683 165.245 318.034 162.906 316.776 160.886C315.929 159.516 314.828 158.322 313.531 157.367C312.608 156.693 312.021 156.443 312.059 156.381C312.096 156.318 312.209 156.381 312.496 156.543C312.903 156.718 313.296 156.927 313.669 157.167C315.059 158.073 316.244 159.259 317.15 160.649C318.513 162.724 319.233 165.155 319.222 167.637C319.222 170.495 317.712 173.265 317.288 176.298C317.038 177.748 317.289 179.24 317.999 180.528C318.32 181.109 318.795 181.589 319.372 181.915C319.95 182.241 320.606 182.4 321.269 182.375C321.855 182.34 322.414 182.117 322.863 181.74C323.313 181.362 323.629 180.85 323.765 180.279C323.935 179.786 323.966 179.256 323.854 178.747C323.741 178.239 323.49 177.771 323.128 177.396C322.832 177.095 322.439 176.908 322.019 176.869C321.598 176.83 321.178 176.942 320.832 177.184C320.566 177.36 320.369 177.623 320.275 177.928C320.182 178.233 320.198 178.561 320.32 178.856C320.408 179.044 320.535 179.211 320.692 179.346C320.849 179.482 321.033 179.583 321.231 179.642C321.543 179.767 321.705 179.73 321.718 179.767Z" fill="#4E4A57"/>
<path d="M292.841 205.886L294.513 167.799L279.388 156.343L265.661 163.069C265.661 163.069 265.199 180.328 265.661 187.816C266.122 195.303 273.672 196.102 273.672 196.102C273.672 196.102 273.498 200.482 273.323 205.1C273.274 206.422 273.494 207.74 273.969 208.975C274.444 210.21 275.165 211.336 276.088 212.285C277.01 213.233 278.116 213.984 279.337 214.493C280.559 215.002 281.871 215.258 283.194 215.245C285.693 215.213 288.085 214.225 289.879 212.484C291.673 210.744 292.733 208.383 292.841 205.886Z" fill="#FFBE9D"/>
<path d="M273.635 196.102C277.194 195.95 280.636 194.785 283.556 192.745C283.556 192.745 281.31 198.248 273.797 197.937L273.635 196.102Z" fill="#EB996E"/>
<path d="M316.289 189.325C315.343 189.361 314.405 189.146 313.569 188.701C312.336 188.044 311.311 187.054 310.611 185.844C309.751 184.324 309.012 182.738 308.402 181.101C307.005 177.62 305.907 174.388 305.233 172.029L304.921 170.993C304.921 170.594 304.796 170.232 304.733 169.97C300.64 154.358 286.925 151.451 284.205 151.451C281.484 151.451 276.206 149.853 268.78 157.565C267.667 158.725 266.722 160.036 265.973 161.459C264.324 163.507 263.19 165.921 262.666 168.497C262.323 169.716 262.264 170.996 262.491 172.241C262.628 172.241 262.653 170.831 263.227 168.66C263.575 167.384 264.06 166.149 264.675 164.978C264.026 167.862 264.292 170.876 265.436 173.601L268.094 172.865L277.628 169.62C276.755 166.675 278.04 163.006 278.751 161.297L278.826 161.234C279.359 164.346 280.867 167.207 283.133 169.406C285.399 171.604 288.304 173.025 291.431 173.464L293.19 197.986C305.869 195.278 305.57 178.319 305.495 174.874C306.069 176.809 306.818 179.042 307.753 181.376C308.371 183.056 309.148 184.674 310.075 186.206C310.856 187.495 311.996 188.527 313.357 189.176C314.279 189.606 315.307 189.758 316.314 189.612C316.684 189.579 317.038 189.445 317.338 189.226C316.986 189.237 316.636 189.27 316.289 189.325Z" fill="#4E4A57"/>
<path d="M295.312 182.999C295.186 181.737 295.322 180.463 295.711 179.255C295.908 178.663 296.261 178.134 296.733 177.726C297.206 177.317 297.779 177.044 298.394 176.934C299.12 176.901 299.833 177.138 300.395 177.599C300.957 178.059 301.329 178.712 301.439 179.43C301.522 180.145 301.39 180.868 301.061 181.508C300.733 182.148 300.221 182.675 299.592 183.024C298.951 183.358 298.244 183.542 297.522 183.564C296.8 183.585 296.083 183.443 295.424 183.149" fill="#FFBE9D"/>
<path d="M297.483 181.913C297.483 181.826 297.895 182.013 298.419 181.851C298.749 181.738 299.035 181.524 299.237 181.24C299.438 180.955 299.545 180.615 299.542 180.266C299.572 180.091 299.564 179.911 299.519 179.738C299.474 179.566 299.392 179.406 299.28 179.268C299.048 179.082 298.753 178.993 298.456 179.018C297.895 179.018 297.508 179.218 297.471 179.13C297.433 179.043 297.72 178.781 298.394 178.581C298.608 178.529 298.83 178.524 299.046 178.567C299.262 178.61 299.465 178.7 299.642 178.831C299.837 179.019 299.985 179.25 300.074 179.506C300.163 179.762 300.19 180.035 300.154 180.303C300.125 180.818 299.928 181.31 299.592 181.701C299.31 182.025 298.919 182.234 298.494 182.288C297.77 182.363 297.433 181.963 297.483 181.913Z" fill="#EB996E"/>
<path d="M299.729 182.937C299.729 182.937 300.291 183.323 300.291 184.322C300.265 184.904 300.014 185.454 299.592 185.857C299.323 186.101 299.003 186.283 298.656 186.391C298.309 186.498 297.943 186.529 297.583 186.481C297.222 186.412 296.88 186.265 296.582 186.049C296.284 185.834 296.038 185.555 295.861 185.233C295.721 184.973 295.634 184.688 295.607 184.394C295.579 184.101 295.61 183.804 295.698 183.523C296.01 182.562 296.647 182.275 296.672 182.375C296.697 182.475 296.272 182.812 296.123 183.623C296.048 184.008 296.095 184.406 296.257 184.763C296.42 185.119 296.689 185.417 297.028 185.613C297.368 185.809 297.759 185.895 298.15 185.858C298.54 185.821 298.909 185.664 299.205 185.407C299.564 185.114 299.796 184.694 299.854 184.234C299.869 183.798 299.827 183.362 299.729 182.937Z" fill="#FD3E72"/>
<path d="M295.337 177.783C295.059 178.041 294.732 178.24 294.376 178.369C293.419 178.786 292.386 178.999 291.343 178.993C289.785 178.986 288.252 178.6 286.876 177.87C285.215 176.966 283.792 175.684 282.72 174.126C280.878 171.249 279.741 167.979 279.4 164.58C279.226 163.332 279.138 162.259 279.088 161.547C279.024 161.171 279.024 160.787 279.088 160.412C279.408 161.766 279.658 163.137 279.837 164.517C280.298 167.806 281.456 170.958 283.232 173.765C284.237 175.244 285.564 176.476 287.113 177.371C288.404 178.074 289.837 178.475 291.306 178.544C292.686 178.558 294.056 178.299 295.337 177.783Z" fill="#4E4A57"/>
<path d="M303.735 167.05C303.548 167.05 302.986 164.891 301.526 162.545C300.066 160.199 298.344 158.714 298.469 158.564C299.981 159.424 301.222 160.691 302.05 162.22C303.058 163.638 303.642 165.313 303.735 167.05Z" fill="#FD3E72"/>
<path d="M235.81 272.538H231.405C227.399 272.151 225.165 272.089 224.042 271.028C222.544 269.593 224.604 268.195 224.604 268.195C224.604 268.195 221.708 267.197 221.983 265.437C222.158 264.189 223.53 264.102 223.53 264.102C223.53 264.102 221.034 263.104 220.473 262.03C219.787 260.583 221.584 259.809 221.584 259.809C218.102 257.663 218.426 255.529 219.225 255.317C220.024 255.104 222.744 256.365 222.744 256.365C225.04 257.014 231.305 258.923 228.984 255.466C226.663 252.009 226.188 248.49 226.713 247.442C226.827 247.167 227.036 246.941 227.301 246.807C227.567 246.672 227.873 246.637 228.162 246.708C228.452 246.779 228.706 246.951 228.88 247.193C229.053 247.435 229.135 247.732 229.109 248.029C229.467 249.389 230.018 250.692 230.743 251.897C231.295 252.868 231.998 253.745 232.827 254.493C233.813 255.366 234.687 256.065 235.436 256.652L239.354 260.396L235.81 272.538Z" fill="#FFBE9D"/>
<path d="M208.393 228.573C208.717 227.625 209.503 226.951 210.352 227.4C210.521 227.599 210.635 227.838 210.683 228.094C210.731 228.35 210.712 228.614 210.627 228.86L207.906 237.708L210.477 231.469C210.801 230.52 211.662 229.946 212.249 230.458C212.395 230.663 212.49 230.9 212.527 231.15C212.564 231.399 212.542 231.654 212.461 231.893L210.115 239.243L212.024 234.651C212.424 233.603 212.885 233.315 213.422 233.553C213.959 233.79 213.971 234.551 213.846 234.975L212.236 240.391C212.586 241.44 213.784 244.722 212.623 246.569C212.623 246.656 212.748 246.968 212.736 247.068L213.285 247.692L209.741 250.949C209.741 250.949 206.409 242.525 205.772 239.992C205.38 238.534 205.45 236.991 205.972 235.574L208.393 228.573Z" fill="#FFBE9D"/>
</g>
<defs>
<filter id="filter0_d" x="11.0907" y="11.9822" width="366.242" height="249.446" filterUnits="userSpaceOnUse" color-interpolation-filters="sRGB">
<feFlood flood-opacity="0" result="BackgroundImageFix"/>
<feColorMatrix in="SourceAlpha" type="matrix" values="0 0 0 0 0 0 0 0 0 0 0 0 0 0 0 0 0 0 127 0" result="hardAlpha"/>
<feOffset dy="4"/>
<feGaussianBlur stdDeviation="7.5"/>
<feColorMatrix type="matrix" values="0 0 0 0 0 0 0 0 0 0 0 0 0 0 0 0 0 0 0.25 0"/>
<feBlend mode="normal" in2="BackgroundImageFix" result="effect1_dropShadow"/>
<feBlend mode="normal" in="SourceGraphic" in2="effect1_dropShadow" result="shape"/>
</filter>
<filter id="filter1_d" x="47.9049" y="65.6985" width="151.543" height="150.983" filterUnits="userSpaceOnUse" color-interpolation-filters="sRGB">
<feFlood flood-opacity="0" result="BackgroundImageFix"/>
<feColorMatrix in="SourceAlpha" type="matrix" values="0 0 0 0 0 0 0 0 0 0 0 0 0 0 0 0 0 0 127 0" result="hardAlpha"/>
<feOffset dy="4"/>
<feGaussianBlur stdDeviation="7.5"/>
<feColorMatrix type="matrix" values="0 0 0 0 0 0 0 0 0 0 0 0 0 0 0 0 0 0 0.25 0"/>
<feBlend mode="normal" in2="BackgroundImageFix" result="effect1_dropShadow"/>
<feBlend mode="normal" in="SourceGraphic" in2="effect1_dropShadow" result="shape"/>
</filter>
<filter id="filter2_i" x="90.9684" y="104.602" width="65.5754" height="68.8778" filterUnits="userSpaceOnUse" color-interpolation-filters="sRGB">
<feFlood flood-opacity="0" result="BackgroundImageFix"/>
<feBlend mode="normal" in="SourceGraphic" in2="BackgroundImageFix" result="shape"/>
<feColorMatrix in="SourceAlpha" type="matrix" values="0 0 0 0 0 0 0 0 0 0 0 0 0 0 0 0 0 0 127 0" result="hardAlpha"/>
<feOffset dy="4"/>
<feGaussianBlur stdDeviation="2"/>
<feComposite in2="hardAlpha" operator="arithmetic" k2="-1" k3="1"/>
<feColorMatrix type="matrix" values="0 0 0 0 0 0 0 0 0 0 0 0 0 0 0 0 0 0 0.25 0"/>
<feBlend mode="normal" in2="shape" result="effect1_innerShadow"/>
</filter>
<filter id="filter3_d" x="110.087" y="122.741" width="32.4164" height="36.602" filterUnits="userSpaceOnUse" color-interpolation-filters="sRGB">
<feFlood flood-opacity="0" result="BackgroundImageFix"/>
<feColorMatrix in="SourceAlpha" type="matrix" values="0 0 0 0 0 0 0 0 0 0 0 0 0 0 0 0 0 0 127 0" result="hardAlpha"/>
<feOffset dy="4"/>
<feGaussianBlur stdDeviation="2"/>
<feComposite in2="hardAlpha" operator="out"/>
<feColorMatrix type="matrix" values="0 0 0 0 0 0 0 0 0 0 0 0 0 0 0 0 0 0 0.25 0"/>
<feBlend mode="normal" in2="BackgroundImageFix" result="effect1_dropShadow"/>
<feBlend mode="normal" in="SourceGraphic" in2="effect1_dropShadow" result="shape"/>
</filter>
<filter id="filter4_d" x="88.4505" y="155.714" width="71.2969" height="32.9283" filterUnits="userSpaceOnUse" color-interpolation-filters="sRGB">
<feFlood flood-opacity="0" result="BackgroundImageFix"/>
<feColorMatrix in="SourceAlpha" type="matrix" values="0 0 0 0 0 0 0 0 0 0 0 0 0 0 0 0 0 0 127 0" result="hardAlpha"/>
<feOffset dy="2"/>
<feGaussianBlur stdDeviation="3"/>
<feComposite in2="hardAlpha" operator="out"/>
<feColorMatrix type="matrix" values="0 0 0 0 0 0 0 0 0 0 0 0 0 0 0 0 0 0 0.25 0"/>
<feBlend mode="normal" in2="BackgroundImageFix" result="effect1_dropShadow"/>
<feBlend mode="normal" in="SourceGraphic" in2="effect1_dropShadow" result="shape"/>
</filter>
<filter id="filter5_d" x="-153.948" y="-156.015" width="403.972" height="402.248" filterUnits="userSpaceOnUse" color-interpolation-filters="sRGB">
<feFlood flood-opacity="0" result="BackgroundImageFix"/>
<feColorMatrix in="SourceAlpha" type="matrix" values="0 0 0 0 0 0 0 0 0 0 0 0 0 0 0 0 0 0 127 0" result="hardAlpha"/>
<feOffset dy="4"/>
<feGaussianBlur stdDeviation="7.5"/>
<feColorMatrix type="matrix" values="0 0 0 0 0 0 0 0 0 0 0 0 0 0 0 0 0 0 0.25 0"/>
<feBlend mode="normal" in2="BackgroundImageFix" result="effect1_dropShadow"/>
<feBlend mode="normal" in="SourceGraphic" in2="effect1_dropShadow" result="shape"/>
</filter>
<filter id="filter6_i" x="-52.6003" y="-59.1577" width="201.766" height="203.62" filterUnits="userSpaceOnUse" color-interpolation-filters="sRGB">
<feFlood flood-opacity="0" result="BackgroundImageFix"/>
<feBlend mode="normal" in="SourceGraphic" in2="BackgroundImageFix" result="shape"/>
<feColorMatrix in="SourceAlpha" type="matrix" values="0 0 0 0 0 0 0 0 0 0 0 0 0 0 0 0 0 0 127 0" result="hardAlpha"/>
<feOffset dy="4"/>
<feGaussianBlur stdDeviation="2"/>
<feComposite in2="hardAlpha" operator="arithmetic" k2="-1" k3="1"/>
<feColorMatrix type="matrix" values="0 0 0 0 0 0 0 0 0 0 0 0 0 0 0 0 0 0 0.25 0"/>
<feBlend mode="normal" in2="shape" result="effect1_innerShadow"/>
</filter>
<filter id="filter7_d" x="-47.8864" y="106.412" width="194.448" height="76.3935" filterUnits="userSpaceOnUse" color-interpolation-filters="sRGB">
<feFlood flood-opacity="0" result="BackgroundImageFix"/>
<feColorMatrix in="SourceAlpha" type="matrix" values="0 0 0 0 0 0 0 0 0 0 0 0 0 0 0 0 0 0 127 0" result="hardAlpha"/>
<feOffset dy="2"/>
<feGaussianBlur stdDeviation="3"/>
<feComposite in2="hardAlpha" operator="out"/>
<feColorMatrix type="matrix" values="0 0 0 0 0 0 0 0 0 0 0 0 0 0 0 0 0 0 0.25 0"/>
<feBlend mode="normal" in2="BackgroundImageFix" result="effect1_dropShadow"/>
<feBlend mode="normal" in="SourceGraphic" in2="effect1_dropShadow" result="shape"/>
</filter>
<filter id="filter8_d" x="159.499" y="168.353" width="43.8527" height="58.1936" filterUnits="userSpaceOnUse" color-interpolation-filters="sRGB">
<feFlood flood-opacity="0" result="BackgroundImageFix"/>
<feColorMatrix in="SourceAlpha" type="matrix" values="0 0 0 0 0 0 0 0 0 0 0 0 0 0 0 0 0 0 127 0" result="hardAlpha"/>
<feOffset dy="4"/>
<feGaussianBlur stdDeviation="5.5"/>
<feComposite in2="hardAlpha" operator="out"/>
<feColorMatrix type="matrix" values="0 0 0 0 0 0 0 0 0 0 0 0 0 0 0 0 0 0 0.25 0"/>
<feBlend mode="normal" in2="BackgroundImageFix" result="effect1_dropShadow"/>
<feBlend mode="normal" in="SourceGraphic" in2="effect1_dropShadow" result="shape"/>
</filter>
</defs>
</svg>
