<svg width="187" height="60" viewBox="0 0 187 60" fill="none" xmlns="http://www.w3.org/2000/svg">
<path d="M86.6291 33.1986H66.1431C65.2119 33.1986 64.5065 34.0159 64.6758 34.9177C64.704 35.115 64.7322 35.3122 64.7605 35.5095C64.9015 36.2986 65.1273 37.0595 65.4377 37.8205C65.9174 38.9759 66.6792 39.9905 67.7233 40.8923C68.7391 41.7942 70.1782 42.2169 72.0124 42.2169C73.8465 42.2169 75.2574 41.766 76.3014 40.8923C77.1197 40.1878 77.7405 39.3987 78.2202 38.5532C78.4742 38.1023 78.9821 37.8205 79.49 37.8205H85.2182C86.2622 37.8205 86.9677 38.8632 86.6291 39.8214C86.3751 40.5541 86.0647 41.2587 85.6979 41.8787C85.0489 43.0342 84.3434 44.0487 83.5534 44.8942C82.7633 45.7397 81.945 46.4442 81.042 47.0079C80.139 47.5715 79.2925 48.0224 78.446 48.3888C76.3861 49.1779 74.2416 49.6006 71.9559 49.6006C68.9649 49.5443 66.3124 48.9243 63.9986 47.7406C63.011 47.2052 62.0516 46.5288 61.0922 45.7115C60.1328 44.8942 59.2862 43.8515 58.5526 42.6114C57.8189 41.3714 57.2264 39.8778 56.7749 38.1305C56.3234 36.3832 56.0977 34.3822 56.0977 32.0431C56.0977 29.7322 56.3234 27.703 56.7749 25.9557C57.2264 24.2084 57.8189 22.7148 58.5526 21.4466C59.2862 20.1784 60.1328 19.1356 61.0922 18.2902C62.0516 17.4447 63.011 16.7683 63.9986 16.2329C66.2842 14.9929 68.9084 14.3447 71.8713 14.2319C71.9277 14.2319 71.9841 14.2319 72.0406 14.2319C74.4673 14.3447 76.7247 14.8519 78.841 15.7538C79.744 16.1483 80.6469 16.6838 81.5499 17.332C82.4529 17.9802 83.2994 18.7693 84.0895 19.7275C84.8796 20.6857 85.5568 21.813 86.1494 23.1375C86.7419 24.4621 87.1934 25.9839 87.4474 27.703C87.532 28.3794 87.6167 29.0558 87.6731 29.7603C87.7296 30.4649 87.786 31.2258 87.786 32.0431C87.8142 31.9867 87.9835 33.1986 86.6291 33.1986ZM76.8658 27.6467C77.9381 27.6467 78.6999 26.5194 78.2202 25.5612C78.2202 25.5612 78.2202 25.533 78.192 25.533C77.8534 24.8285 77.4019 24.1803 76.8094 23.5884C76.2168 23.0248 75.5396 22.5457 74.7495 22.2075C73.9594 21.8693 73 21.7002 71.9559 21.7002C70.8837 21.7002 69.9525 21.8693 69.1624 22.2075C68.3723 22.5457 67.6669 22.9966 67.1025 23.5884C66.5099 24.1803 66.0585 24.8003 65.6916 25.533V25.5612C65.2119 26.5476 65.9738 27.6749 67.0461 27.6749H76.8658V27.6467Z" fill="#A12B52"/>
<path d="M52.005 -0.000488281C47.4902 -0.000488281 43.8501 3.63502 43.8501 8.14418V31.7327C43.8501 32.7191 43.7937 33.7055 43.6808 34.7482C43.5679 35.7628 43.2858 36.6928 42.8343 37.5383C42.3828 38.3837 41.7056 39.0883 40.8026 39.6519C39.8997 40.2156 38.6016 40.4974 36.965 40.4974C35.3284 40.4974 34.0304 40.2156 33.1274 39.6519C32.2245 39.0883 31.5473 38.3837 31.0958 37.5383C30.6443 36.6928 30.3621 35.7628 30.2492 34.7482C30.1364 33.7337 30.0799 32.7191 30.0799 31.7327V7.41144C25.5651 7.41144 21.9251 11.0469 21.9251 15.5561V31.7045C21.9251 32.6909 21.8686 33.6773 21.7558 34.72C21.6429 35.7346 21.3607 36.6646 20.9092 37.5101C20.4577 38.3555 19.7805 39.0601 18.8776 39.6237C17.9746 40.1874 16.6766 40.4692 15.04 40.4692C13.4033 40.4692 12.1053 40.1874 11.2024 39.6237C10.2994 39.0601 9.62219 38.3555 9.17071 37.5101C8.71923 36.6646 8.43706 35.7346 8.32419 34.72C8.21132 33.7055 8.15488 32.6909 8.15488 31.7045V14.8234C3.64007 14.8234 0 18.4871 0 22.968V31.7045C0 34.0155 0.225741 36.0446 0.677222 37.7919C1.1287 39.5392 1.69305 41.0329 2.37028 42.3011C3.07572 43.5693 3.86581 44.612 4.76877 45.4575C5.67173 46.3029 6.60291 46.9793 7.53409 47.5148C9.70685 48.7548 12.2182 49.4312 15.0118 49.5157C17.8617 49.4312 20.3731 48.7548 22.5741 47.5148C23.5052 46.9793 24.4364 46.3029 25.3112 45.4575C25.5369 45.232 25.7626 45.0065 25.9884 44.7529C26.2141 45.0065 26.4399 45.232 26.6656 45.4575C27.5686 46.3029 28.4998 46.9793 29.4309 47.5148C31.6037 48.7548 34.1151 49.4312 36.9086 49.5157C39.7586 49.4312 42.2699 48.7548 44.4709 47.5148C45.4021 46.9793 46.3333 46.3029 47.208 45.4575C48.111 44.612 48.9011 43.5693 49.6065 42.3011C50.3119 41.0329 50.8763 39.5392 51.2996 37.7919C51.7228 36.0446 51.9203 34.0437 51.9203 31.7045L52.005 -0.000488281Z" fill="#A12B52"/>
<path d="M112.504 47.4584C112.278 48.1066 111.685 48.5575 110.98 48.5575H106.691H102.402C101.724 48.5575 101.104 48.1066 100.878 47.4584L90.9171 16.937C90.5785 15.8943 91.3404 14.8515 92.4408 14.8515H97.2661C97.9433 14.8515 98.5641 15.3024 98.7898 15.9506L105.167 35.4246C105.647 36.89 107.707 36.89 108.186 35.4246L111.855 24.208L118.006 5.38229C119.36 1.29587 123.762 -0.958713 127.854 0.394034L112.504 47.4584Z" fill="#EF4273"/>
<path d="M151.839 21.2205C151.106 19.9523 150.259 18.9096 149.3 18.0641C148.34 17.2186 147.381 16.5423 146.393 16.0068C144.079 14.7668 141.455 14.0904 138.549 14.0059C135.755 14.0059 133.385 14.4286 131.438 15.2459C129.491 16.0632 127.883 17.2468 126.613 18.7687C125.343 20.2905 124.44 22.1505 123.847 24.3487C123.283 26.547 122.973 29.027 122.973 31.817V57.7447C122.973 58.8438 123.847 59.7175 124.948 59.7175H128.898C129.999 59.7175 130.874 58.8438 130.874 57.7447V44.6963C131.297 45.2882 131.777 45.7954 132.284 46.2463C133.441 47.2327 134.57 47.9373 135.671 48.36C136.912 48.8391 138.182 49.1209 139.508 49.2055C139.621 49.2055 139.706 49.2055 139.819 49.2055C142.499 49.1491 144.898 48.5291 146.986 47.3455C147.917 46.81 148.82 46.1336 149.695 45.3163C150.569 44.4991 151.331 43.4563 152.037 42.2163C152.714 40.9763 153.278 39.4826 153.702 37.7635C154.125 36.0444 154.322 34.0153 154.322 31.7043C154.322 29.3934 154.097 27.3924 153.617 25.6451C153.165 23.9542 152.573 22.4605 151.839 21.2205ZM145.885 34.9453C145.716 36.1007 145.349 37.1717 144.813 38.158C144.277 39.1444 143.515 39.9899 142.527 40.6381C141.54 41.3145 140.214 41.6245 138.577 41.6245C136.94 41.6245 135.614 41.2863 134.627 40.6381C133.639 39.9617 132.849 39.1444 132.284 38.158C131.72 37.1717 131.353 36.1007 131.184 34.9453C131.015 33.7898 130.93 32.7189 130.93 31.7607C130.93 30.577 131.015 29.3934 131.156 28.2097C131.325 27.0261 131.635 25.9833 132.143 25.0251C132.651 24.0669 133.413 23.306 134.429 22.7424C135.445 22.1787 136.827 21.8687 138.549 21.8687C140.185 21.8687 141.512 22.2069 142.499 22.8551C143.487 23.5315 144.277 24.3487 144.785 25.3351C145.321 26.3215 145.66 27.4206 145.857 28.5479C146.026 29.7034 146.111 30.7743 146.111 31.7325C146.139 32.7189 146.055 33.7898 145.885 34.9453Z" fill="#EF4273"/>
<path d="M185.307 24.2643C184.629 22.2352 183.755 20.5725 182.682 19.2479C181.61 17.9233 180.453 16.9088 179.212 16.2042C177.97 15.4997 176.785 14.9642 175.685 14.6542C174.584 14.316 173.596 14.1469 172.778 14.0905C171.96 14.0342 171.48 14.0342 171.339 14.0342C171.17 14.0342 170.662 14.0624 169.872 14.0905C169.082 14.1469 168.122 14.316 167.022 14.6542C165.921 14.9924 164.736 15.4997 163.495 16.2042C162.253 16.9088 161.096 17.9233 160.024 19.2479C158.951 20.5725 158.077 22.2634 157.4 24.2643C156.722 26.2935 156.355 28.7735 156.355 31.7326V46.7819C156.355 47.7683 157.146 48.5574 158.133 48.5574H162.676C163.664 48.5574 164.454 47.7683 164.454 46.7819V31.7608C164.454 30.7744 164.539 29.7881 164.708 28.7735C164.877 27.7589 165.216 26.8289 165.695 25.9834C166.175 25.138 166.881 24.4334 167.755 23.898C168.63 23.3343 169.815 23.0807 171.283 23.0807C172.75 23.0807 173.935 23.3625 174.81 23.898C175.685 24.4616 176.39 25.138 176.87 25.9834C177.349 26.8289 177.688 27.7589 177.857 28.7735C178.027 29.7881 178.111 30.8026 178.111 31.7608V46.7819C178.111 47.7683 178.901 48.5574 179.889 48.5574H184.545C185.532 48.5574 186.323 47.7683 186.323 46.7819V31.7608C186.323 28.7735 185.984 26.2935 185.307 24.2643Z" fill="#EF4273"/>
</svg>
