<svg width="119" height="119" viewBox="0 0 119 119" fill="none" xmlns="http://www.w3.org/2000/svg">
<path d="M0 0H118.5V118.5H0V0Z" fill="url(#paint0_linear)"/>
<path d="M100.219 20.1357C93.0657 20.1357 87.2985 25.8793 87.2985 33.0032V70.2697C87.2985 71.828 87.2091 73.3863 87.0303 75.0337C86.8514 76.6366 86.4044 78.1059 85.6891 79.4416C84.9738 80.7773 83.9008 81.8904 82.4702 82.7809C81.0396 83.6714 78.983 84.1166 76.3901 84.1166C73.7971 84.1166 71.7406 83.6714 70.3099 82.7809C68.8793 81.8904 67.8064 80.7773 67.091 79.4416C66.3757 78.1059 65.9287 76.6366 65.7498 75.0337C65.571 73.4309 65.4816 71.828 65.4816 70.2697V31.8455C58.3285 31.8455 52.5614 37.5891 52.5614 44.7129V70.2251C52.5614 71.7835 52.4719 73.3418 52.2931 74.9892C52.1143 76.5921 51.6672 78.0614 50.9519 79.3971C50.2366 80.7328 49.1636 81.8459 47.733 82.7364C46.3024 83.6268 44.2459 84.0721 41.6529 84.0721C39.0599 84.0721 37.0034 83.6268 35.5728 82.7364C34.1422 81.8459 33.0692 80.7328 32.3539 79.3971C31.6386 78.0614 31.1915 76.5921 31.0127 74.9892C30.8339 73.3863 30.7445 71.7835 30.7445 70.2251V43.5553C23.5914 43.5553 17.8242 49.3434 17.8242 56.4227V70.2251C17.8242 73.8761 18.1819 77.0818 18.8972 79.8423C19.6125 82.6028 20.5066 84.9626 21.5796 86.9661C22.6973 88.9697 23.949 90.6171 25.3797 91.9528C26.8103 93.2885 28.2856 94.3571 29.7609 95.2031C33.2033 97.1621 37.1822 98.2307 41.6082 98.3643C46.1236 98.2307 50.1025 97.1621 53.5896 95.2031C55.0649 94.3571 56.5403 93.2885 57.9262 91.9528C58.2838 91.5966 58.6415 91.2404 58.9991 90.8397C59.3568 91.2404 59.7144 91.5966 60.0721 91.9528C61.5027 93.2885 62.978 94.3571 64.4534 95.2031C67.8958 97.1621 71.8747 98.2307 76.3006 98.3643C80.816 98.2307 84.7949 97.1621 88.2821 95.2031C89.7574 94.3571 91.2327 93.2885 92.6186 91.9528C94.0492 90.6171 95.301 88.9697 96.4187 86.9661C97.5363 84.9626 98.4305 82.6028 99.1011 79.8423C99.7717 77.0818 100.085 73.9206 100.085 70.2251L100.219 20.1357Z" fill="white"/>
<defs>
<linearGradient id="paint0_linear" x1="61.4487" y1="-1.50439" x2="59.25" y2="120.699" gradientUnits="userSpaceOnUse">
<stop stop-color="#FF648E"/>
<stop offset="1" stop-color="#D62757"/>
</linearGradient>
</defs>
</svg>
