<svg width="103" height="103" viewBox="0 0 103 103" fill="none" xmlns="http://www.w3.org/2000/svg">
<path d="M102.594 0C93.6875 0 86.5065 7.53253 86.5065 16.8752V65.7491C86.5065 67.7928 86.3951 69.8365 86.1725 71.997C85.9498 74.0991 85.3931 76.026 84.5025 77.7778C83.6118 79.5295 82.2758 80.9893 80.4945 82.1571C78.7131 83.325 76.1524 83.9089 72.9237 83.9089C69.6951 83.9089 67.1344 83.325 65.353 82.1571C63.5717 80.9893 62.2357 79.5295 61.345 77.7778C60.4543 76.026 59.8977 74.0991 59.675 71.997C59.4523 69.8949 59.341 67.7928 59.341 65.7491V15.357C50.4343 15.357 43.2532 22.8896 43.2532 32.2322V65.6907C43.2532 67.7344 43.1419 69.7781 42.9192 71.9386C42.6966 74.0407 42.1399 75.9676 41.2492 77.7194C40.3586 79.4711 39.0226 80.9309 37.2412 82.0988C35.4599 83.2666 32.8992 83.8505 29.6705 83.8505C26.4418 83.8505 23.8811 83.2666 22.0998 82.0988C20.3184 80.9309 18.9824 79.4711 18.0918 77.7194C17.2011 75.9676 16.6444 74.0407 16.4218 71.9386C16.1991 69.8365 16.0878 67.7344 16.0878 65.6907V30.714C7.18104 30.714 0 38.305 0 47.5892V65.6907C0 70.4788 0.445336 74.683 1.33601 78.3033C2.22668 81.9236 3.34002 85.0183 4.67603 87.646C6.0677 90.2736 7.62638 92.4341 9.40772 94.1858C11.1891 95.9376 13.0261 97.339 14.8631 98.4484C19.1494 101.018 24.1038 102.419 29.6148 102.594C35.2372 102.419 40.1916 101.018 44.5336 98.4484C46.3706 97.339 48.2076 95.9376 49.9333 94.1858C50.3786 93.7187 50.8239 93.2516 51.2693 92.726C51.7146 93.2516 52.16 93.7187 52.6053 94.1858C54.3866 95.9376 56.2236 97.339 58.0607 98.4484C62.347 101.018 67.3014 102.419 72.8124 102.594C78.4348 102.419 83.3891 101.018 87.7312 98.4484C89.5682 97.339 91.4052 95.9376 93.1309 94.1858C94.9122 92.4341 96.4709 90.2736 97.8625 87.646C99.2542 85.0183 100.368 81.9236 101.203 78.3033C102.038 74.683 102.427 70.5372 102.427 65.6907L102.594 0Z" fill="white"/>
</svg>
