<svg width="194" height="35" viewBox="0 0 194 35" fill="none" xmlns="http://www.w3.org/2000/svg">
<path d="M57.4448 32.8897C56.1468 32.8639 54.8845 32.4541 53.8125 31.7105C52.7405 30.9669 51.9055 29.9218 51.4098 28.7034C50.9141 27.4849 50.7792 26.146 51.0218 24.8508C51.2643 23.5557 51.8738 22.3605 52.7753 21.4119C53.3821 20.7824 54.1095 20.2858 54.9126 19.9529C55.7157 19.62 56.5775 19.4578 57.4448 19.4764C58.323 19.4491 59.1959 19.6233 59.9986 19.9861C60.8012 20.3488 61.513 20.8908 62.0809 21.5716L60.9564 22.6846C60.5392 22.1508 60.0035 21.7248 59.3932 21.4414C58.7829 21.158 58.1153 21.0252 57.4448 21.0539C56.8011 21.0385 56.161 21.1558 55.5632 21.3986C54.9653 21.6415 54.4222 22.0048 53.9665 22.4668C53.0527 23.4782 52.5458 24.8008 52.5458 26.1734C52.5458 27.5459 53.0527 28.8686 53.9665 29.8799C54.4222 30.3419 54.9653 30.7052 55.5632 30.9481C56.161 31.1909 56.8011 31.3082 57.4448 31.2928C58.1868 31.2962 58.9201 31.1311 59.5911 30.8096C60.2622 30.4881 60.854 30.0184 61.3233 29.4347L62.4525 30.5815C61.8618 31.2955 61.121 31.8659 60.2846 32.2509C59.3958 32.6734 58.4261 32.8915 57.4448 32.8897Z" fill="#5F6368"/>
<path d="M65.5213 19.7842V23.8294L65.4498 25.044H65.5213C65.7906 24.5944 66.174 24.2267 66.6315 23.9795C67.1243 23.6921 67.6832 23.5419 68.2515 23.544C68.7114 23.5109 69.1726 23.5838 69.6009 23.7572C70.0291 23.9307 70.4132 24.2002 70.7244 24.5456C71.3142 25.3134 71.6074 26.2737 71.5487 27.2457V32.6168H69.9287V27.4828C69.9287 25.8698 69.2171 25.0633 67.7941 25.0633C67.4766 25.0582 67.1625 25.1297 66.8776 25.2718C66.5926 25.414 66.345 25.6228 66.155 25.8811C65.7339 26.4161 65.5098 27.0835 65.5213 27.7683V32.6071H63.8965V19.7842H65.5213Z" fill="#5F6368"/>
<path d="M75.0751 32.6032H73.4551V23.8304H75.0132V25.2821H75.0846C75.273 24.7779 75.6331 24.3591 76.0995 24.1014C76.5439 23.8051 77.0596 23.6377 77.5909 23.6175C78.0063 23.6053 78.4197 23.6794 78.8059 23.8353L78.1865 25.374C77.9087 25.2801 77.6166 25.2375 77.3241 25.2482C77.0304 25.2502 76.7403 25.3141 76.4721 25.4357C76.204 25.5572 75.9635 25.734 75.766 25.9547C75.5364 26.2018 75.3578 26.493 75.2408 26.8113C75.1237 27.1296 75.0706 27.4685 75.0846 27.808L75.0751 32.6032Z" fill="#5F6368"/>
<path d="M80.0826 24.8755C80.9318 24.0224 82.0781 23.5439 83.2726 23.5439C84.4671 23.5439 85.6134 24.0224 86.4626 24.8755C87.2694 25.7947 87.7152 26.983 87.7152 28.2143C87.7152 29.4456 87.2694 30.634 86.4626 31.5531C85.6146 32.4086 84.4679 32.8887 83.2726 32.8887C82.0774 32.8887 80.9306 32.4086 80.0826 31.5531C79.2759 30.634 78.8301 29.4456 78.8301 28.2143C78.8301 26.983 79.2759 25.7947 80.0826 24.8755ZM81.2881 30.5176C81.5436 30.7913 81.8514 31.0092 82.1926 31.1582C82.5338 31.3071 82.9013 31.3839 83.2726 31.3839C83.644 31.3839 84.0115 31.3071 84.3527 31.1582C84.6939 31.0092 85.0016 30.7913 85.2571 30.5176C85.7986 29.8771 86.0962 29.0609 86.0962 28.2168C86.0962 27.3726 85.7986 26.5564 85.2571 25.9159C85.0023 25.641 84.6948 25.4219 84.3535 25.2722C84.0122 25.1224 83.6444 25.0452 83.2726 25.0452C82.9009 25.0452 82.533 25.1224 82.1917 25.2722C81.8504 25.4219 81.5429 25.641 81.2881 25.9159C80.7503 26.5581 80.455 27.3737 80.455 28.2168C80.455 29.0598 80.7503 29.8754 81.2881 30.5176Z" fill="#5F6368"/>
<path d="M89.0234 32.6024V23.8296H90.5768V25.0441H90.6435C90.9268 24.5958 91.3189 24.2292 91.7822 23.9796C92.2448 23.7028 92.7702 23.5528 93.307 23.5441C94.6474 23.5441 95.5591 24.1038 96.0419 25.2231C96.3498 24.695 96.7916 24.2605 97.3214 23.9652C97.8511 23.6698 98.4493 23.5244 99.0533 23.5441C99.4882 23.5129 99.9242 23.5866 100.326 23.7589C100.727 23.9313 101.083 24.1976 101.364 24.536C101.92 25.3228 102.194 26.279 102.141 27.2458V32.6169H100.516V27.4829C100.578 26.8182 100.41 26.1525 100.04 25.6006C99.8558 25.4074 99.6326 25.2575 99.3856 25.1614C99.1387 25.0652 98.874 25.0252 98.6101 25.0441C98.3009 25.0417 97.9957 25.1158 97.7209 25.26C97.4461 25.4041 97.21 25.614 97.033 25.8716C96.6188 26.3995 96.3937 27.0547 96.3945 27.7297V32.5685H94.7697V27.4829C94.8318 26.8182 94.6632 26.1525 94.2933 25.6006C94.1095 25.4074 93.8863 25.2575 93.6393 25.1614C93.3924 25.0652 93.1277 25.0252 92.8638 25.0441C92.5546 25.0417 92.2494 25.1158 91.9746 25.26C91.6999 25.4041 91.4637 25.614 91.2867 25.8716C90.8712 26.399 90.6444 27.0542 90.6435 27.7297V32.5685L89.0234 32.6024Z" fill="#5F6368"/>
<path d="M107.955 32.8873C107.362 32.91 106.771 32.8033 106.222 32.5746C105.673 32.3459 105.179 32.0005 104.772 31.5615C103.944 30.6537 103.504 29.4497 103.548 28.213C103.525 27.0042 103.948 25.8303 104.734 24.9226C105.109 24.477 105.576 24.122 106.103 23.8834C106.63 23.6448 107.202 23.5287 107.779 23.5435C108.352 23.5194 108.923 23.6215 109.454 23.8428C109.984 24.0642 110.461 24.3995 110.852 24.8258C111.651 25.7626 112.066 26.975 112.01 28.213V28.5178H105.168C105.174 29.3058 105.488 30.0592 106.04 30.613C106.541 31.1118 107.216 31.3885 107.917 31.3824C108.421 31.4293 108.927 31.3076 109.357 31.036C109.787 30.7644 110.118 30.3576 110.3 29.8775L111.729 30.4872C111.438 31.1828 110.955 31.7778 110.338 32.2002C109.634 32.6765 108.801 32.9168 107.955 32.8873ZM110.271 27.1581C110.221 26.6083 109.982 26.094 109.594 25.7065C109.348 25.4663 109.055 25.2814 108.734 25.1638C108.413 25.0463 108.072 24.9987 107.731 25.0242C107.16 25.0143 106.605 25.2194 106.173 25.6C105.719 26.0037 105.401 26.5418 105.263 27.1388L110.271 27.1581Z" fill="#5F6368"/>
<path d="M131.648 19.7842L128.28 32.6023H126.621L123.906 24.1488H123.834L121.123 32.6023H119.465L115.953 19.7842H117.649L120.308 29.8635H120.38L123.134 21.502H124.649L127.379 29.8635H127.422L129.942 19.7842H131.648Z" fill="#5F6368"/>
<path d="M135.862 32.8873C135.269 32.91 134.678 32.8033 134.129 32.5746C133.58 32.3459 133.085 32.0005 132.679 31.5615C131.851 30.6537 131.41 29.4497 131.454 28.213C131.429 27.0031 131.855 25.8281 132.645 24.9226C133.018 24.4766 133.485 24.1212 134.011 23.8825C134.537 23.6439 135.109 23.528 135.685 23.5435C136.258 23.5194 136.83 23.6215 137.36 23.8428C137.891 24.0642 138.368 24.3995 138.759 24.8258C139.557 25.7626 139.972 26.975 139.916 28.213V28.5178H133.074C133.081 29.3058 133.394 30.0592 133.946 30.613C134.448 31.1109 135.122 31.3874 135.823 31.3824C136.328 31.4301 136.834 31.3088 137.264 31.0371C137.694 30.7653 138.025 30.3581 138.206 29.8775L139.635 30.4872C139.341 31.1821 138.856 31.7766 138.239 32.2002C137.537 32.6762 136.705 32.9165 135.862 32.8873ZM138.187 27.1581C138.137 26.6083 137.897 26.094 137.51 25.7065C137.264 25.4663 136.971 25.2814 136.65 25.1638C136.329 25.0463 135.987 24.9987 135.647 25.0242C135.075 25.0217 134.522 25.2336 134.094 25.6194C133.64 26.0231 133.321 26.5612 133.184 27.1581H138.187Z" fill="#5F6368"/>
<path d="M145.965 32.8878C145.348 32.8968 144.739 32.7488 144.193 32.4571C143.713 32.2132 143.308 31.842 143.02 31.3829H142.949V32.6023H141.4V19.7842H143.02V23.8294L142.949 25.044H143.02C143.311 24.5872 143.715 24.2166 144.193 23.9698C144.739 23.6796 145.348 23.5332 145.965 23.544C146.515 23.5414 147.06 23.6599 147.561 23.8913C148.061 24.1227 148.507 24.4614 148.867 24.8843C149.651 25.8117 150.082 26.9936 150.082 28.2159C150.082 29.4381 149.651 30.62 148.867 31.5474C148.507 31.9703 148.061 32.309 147.561 32.5404C147.06 32.7718 146.515 32.8903 145.965 32.8878ZM145.698 31.3829C146.063 31.3859 146.425 31.3103 146.759 31.161C147.094 31.0117 147.393 30.7921 147.637 30.5167C148.164 29.8691 148.452 29.0556 148.452 28.2159C148.452 27.3761 148.164 26.5626 147.637 25.915C147.391 25.6417 147.091 25.4236 146.756 25.2743C146.422 25.1251 146.061 25.048 145.696 25.048C145.331 25.048 144.97 25.1251 144.635 25.2743C144.301 25.4236 144.001 25.6417 143.754 25.915C143.233 26.5688 142.949 27.3844 142.949 28.2255C142.949 29.0666 143.233 29.8823 143.754 30.5361C144.001 30.8086 144.302 31.0249 144.637 31.1709C144.972 31.3168 145.334 31.3891 145.698 31.3829Z" fill="#5F6368"/>
<path d="M158.743 32.8887C157.776 32.8715 156.838 32.5521 156.056 31.9742C155.184 31.3734 154.569 30.4584 154.336 29.4145L155.818 28.8048C155.988 29.5004 156.367 30.1248 156.904 30.5903C157.406 31.0565 158.063 31.3139 158.743 31.3113C159.391 31.3313 160.028 31.134 160.554 30.75C160.793 30.577 160.986 30.347 161.116 30.0804C161.247 29.8137 161.31 29.5185 161.302 29.2209C161.317 28.9036 161.257 28.5873 161.127 28.2985C160.997 28.0097 160.8 27.7568 160.554 27.5612C159.825 27.068 159.019 26.7017 158.172 26.4773C157.231 26.2205 156.362 25.7469 155.632 25.0934C155.347 24.8114 155.123 24.472 154.974 24.0971C154.826 23.7221 154.756 23.3198 154.77 22.9159C154.767 22.4576 154.861 22.0042 155.047 21.5866C155.233 21.169 155.506 20.7971 155.846 20.4965C156.62 19.8058 157.629 19.4498 158.658 19.5045C159.589 19.4627 160.506 19.7481 161.254 20.3126C161.856 20.7592 162.311 21.3798 162.56 22.0933L161.078 22.7175C160.942 22.2684 160.67 21.8741 160.301 21.5901C159.833 21.2503 159.271 21.0677 158.696 21.0677C158.12 21.0677 157.559 21.2503 157.09 21.5901C156.886 21.7409 156.719 21.9389 156.605 22.1677C156.491 22.3965 156.432 22.6496 156.432 22.9062C156.432 23.1421 156.486 23.3748 156.592 23.5851C156.697 23.7954 156.85 23.9773 157.038 24.1159C157.58 24.5139 158.186 24.8134 158.829 25.0014C159.359 25.1693 159.879 25.3664 160.387 25.5918C160.835 25.8015 161.261 26.056 161.659 26.3515C162.072 26.6568 162.4 27.0651 162.612 27.537C162.84 28.0505 162.953 28.6093 162.941 29.1725C162.95 29.7507 162.819 30.3223 162.56 30.8371C162.327 31.3057 161.981 31.7069 161.555 32.0032C160.719 32.5764 159.733 32.8815 158.724 32.8791L158.743 32.8887Z" fill="#5F6368"/>
<path d="M167.949 32.7422C167.574 32.7875 167.194 32.7463 166.837 32.6217C166.48 32.497 166.156 32.2921 165.888 32.0223C165.62 31.7525 165.416 31.4247 165.29 31.0634C165.164 30.7021 165.12 30.3166 165.161 29.9357V25.334H163.637V23.8291H165.152V21.1436H166.777V23.8291H168.892V25.334H166.777V29.8099C166.777 30.7777 167.163 31.2616 167.939 31.2616C168.193 31.2693 168.445 31.2197 168.678 31.1164L169.245 32.5293C168.831 32.6877 168.391 32.7601 167.949 32.7422Z" fill="#5F6368"/>
<path d="M171.124 24.8755C171.973 24.0224 173.119 23.5439 174.314 23.5439C175.508 23.5439 176.654 24.0224 177.504 24.8755C178.31 25.7947 178.756 26.983 178.756 28.2143C178.756 29.4456 178.31 30.634 177.504 31.5531C176.656 32.4086 175.509 32.8887 174.314 32.8887C173.118 32.8887 171.972 32.4086 171.124 31.5531C170.317 30.634 169.871 29.4456 169.871 28.2143C169.871 26.983 170.317 25.7947 171.124 24.8755ZM172.329 30.5176C172.585 30.7913 172.892 31.0092 173.234 31.1582C173.575 31.3071 173.942 31.3839 174.314 31.3839C174.685 31.3839 175.052 31.3071 175.394 31.1582C175.735 31.0092 176.043 30.7913 176.298 30.5176C176.84 29.8771 177.137 29.0609 177.137 28.2168C177.137 27.3726 176.84 26.5564 176.298 25.9159C176.043 25.641 175.736 25.4219 175.395 25.2722C175.053 25.1224 174.685 25.0452 174.314 25.0452C173.942 25.0452 173.574 25.1224 173.233 25.2722C172.891 25.4219 172.584 25.641 172.329 25.9159C171.791 26.5581 171.496 27.3737 171.496 28.2168C171.496 29.0598 171.791 29.8754 172.329 30.5176Z" fill="#5F6368"/>
<path d="M181.683 32.6021H180.062V23.8293H181.611V25.2809H181.683C181.865 24.7687 182.226 24.3419 182.697 24.0809C183.142 23.7841 183.657 23.6167 184.189 23.597C184.604 23.5848 185.018 23.6589 185.404 23.8148L184.784 25.3535C184.507 25.26 184.215 25.2174 183.922 25.2277C183.628 25.2296 183.337 25.2934 183.068 25.415C182.799 25.5366 182.558 25.7133 182.359 25.9342C182.13 26.1817 181.953 26.4731 181.836 26.7914C181.72 27.1097 181.668 27.4483 181.683 27.7874V32.6021Z" fill="#5F6368"/>
<path d="M189.846 32.8872C189.253 32.9093 188.662 32.8024 188.113 32.5737C187.564 32.345 187.07 31.9999 186.663 31.5614C185.836 30.6525 185.396 29.4493 185.438 28.2129C185.414 27.003 185.839 25.8281 186.629 24.9225C187.002 24.4765 187.469 24.1211 187.995 23.8825C188.521 23.6438 189.093 23.528 189.669 23.5434C190.243 23.5196 190.815 23.6218 191.346 23.8431C191.878 24.0644 192.355 24.3996 192.747 24.8257C193.545 25.7633 193.957 26.9756 193.9 28.2129V28.5178H187.063C187.062 28.9119 187.139 29.3022 187.29 29.6654C187.441 30.0287 187.662 30.3575 187.94 30.6323C188.187 30.8797 188.481 31.075 188.803 31.2071C189.125 31.3391 189.47 31.4052 189.817 31.4017C190.318 31.4447 190.819 31.3211 191.244 31.0497C191.67 30.7782 191.997 30.3736 192.176 29.8968L193.605 30.5065C193.312 31.2011 192.83 31.7956 192.214 32.2195C191.511 32.6852 190.684 32.9185 189.846 32.8872ZM192.171 27.1581C192.124 26.6075 191.884 26.0924 191.494 25.7064C191.249 25.4666 190.957 25.2819 190.637 25.1644C190.317 25.0468 189.976 24.999 189.636 25.0241C189.063 25.0153 188.507 25.2202 188.073 25.5999C187.619 26.0031 187.302 26.5416 187.168 27.1387L192.171 27.1581Z" fill="#5F6368"/>
<path d="M51.8262 12.7001L55.4283 3.02246H56.8149L60.417 12.7001H59.0543L58.1347 10.0726H54.118L53.1651 12.7001H51.8262ZM54.523 8.90649H57.6964L56.1383 4.52734H56.0859L54.523 8.90649Z" fill="#5F6368"/>
<path d="M62.626 12.7004L59.9863 6.06152H61.3205L63.2264 11.21H63.2502L65.199 6.06152H66.5093L63.841 12.7004H62.626Z" fill="#5F6368"/>
<path d="M69.2406 12.9179C68.6053 12.9391 67.9845 12.7221 67.4967 12.3082C67.2672 12.1101 67.085 11.8618 66.9637 11.5819C66.8423 11.3019 66.7851 10.9977 66.7963 10.692C66.7844 10.3612 66.854 10.0326 66.9987 9.73606C67.1435 9.43948 67.3589 9.18428 67.6254 8.99362C68.2203 8.56651 68.9365 8.34897 69.6647 8.37425C70.2819 8.34997 70.8946 8.49009 71.4419 8.78071V8.58716C71.4521 8.36841 71.4147 8.15007 71.3323 7.94767C71.25 7.74528 71.1247 7.5638 70.9655 7.41616C70.6283 7.12125 70.1952 6.96429 69.7504 6.97582C69.4161 6.97496 69.0875 7.0634 68.7975 7.23228C68.5224 7.38688 68.3124 7.63807 68.2067 7.93875L67.0822 7.45487C67.274 7.00968 67.5842 6.62763 67.978 6.35161C68.4977 5.99892 69.117 5.82895 69.7409 5.86773C70.5014 5.83974 71.2439 6.10609 71.8183 6.61291C72.0945 6.87805 72.3104 7.20111 72.4511 7.5596C72.5918 7.9181 72.6539 8.30343 72.6331 8.68877V12.7002H71.4419V11.7614H71.3848C71.1623 12.1317 70.8458 12.4344 70.4686 12.6379C70.0914 12.8413 69.6673 12.938 69.2406 12.9179ZM69.4407 11.7614C69.9562 11.7596 70.4505 11.5529 70.8178 11.1856C71.0127 11.0185 71.1695 10.8104 71.2773 10.5756C71.3851 10.3408 71.4413 10.085 71.4419 9.8259C70.9859 9.50231 70.4339 9.34849 69.8791 9.3904C69.3975 9.35643 68.9197 9.49702 68.5307 9.78719C68.3919 9.89587 68.279 10.035 68.2007 10.1942C68.1223 10.3534 68.0803 10.5286 68.078 10.7066C68.0755 10.861 68.1123 11.0134 68.185 11.1491C68.2576 11.2847 68.3636 11.399 68.4925 11.4808C68.7731 11.6703 69.1039 11.7682 69.4407 11.7614Z" fill="#5F6368"/>
<path d="M75.3314 4.39254C75.1898 4.53707 75.0032 4.62721 74.8034 4.64756C74.6036 4.66792 74.403 4.61724 74.2359 4.50416C74.0688 4.39108 73.9455 4.22262 73.8871 4.02752C73.8287 3.83243 73.8388 3.62279 73.9156 3.43438C73.9924 3.24598 74.1312 3.09048 74.3083 2.99443C74.4855 2.89839 74.6899 2.86774 74.8868 2.90772C75.0837 2.9477 75.2609 3.05584 75.388 3.21367C75.5151 3.3715 75.5844 3.56925 75.584 3.77317C75.5862 3.8885 75.5649 4.00306 75.5214 4.10964C75.478 4.21623 75.4133 4.31254 75.3314 4.39254ZM75.3314 12.7008H74.1069V6.06194H75.3314V12.7008Z" fill="#5F6368"/>
<path d="M78.1596 12.7001H76.916V3.02246H78.1453L78.1596 12.7001Z" fill="#5F6368"/>
<path d="M81.6538 12.9186C81.0201 12.9391 80.401 12.7221 79.9147 12.3089C79.6852 12.1109 79.503 11.8625 79.3816 11.5826C79.2603 11.3026 79.2031 10.9984 79.2143 10.6928C79.2023 10.362 79.2719 10.0334 79.4167 9.73677C79.5615 9.44019 79.7769 9.18499 80.0433 8.99433C80.6382 8.56721 81.3545 8.34968 82.0826 8.37495C82.6984 8.35017 83.3097 8.49035 83.8551 8.78142V8.58786C83.8656 8.36907 83.8284 8.15063 83.746 7.94819C83.6636 7.74574 83.5382 7.5643 83.3787 7.41687C83.0415 7.12196 82.6084 6.96499 82.1636 6.97653C81.8293 6.97566 81.5007 7.06411 81.2107 7.23299C80.9355 7.38874 80.7242 7.63933 80.6151 7.93946L79.4954 7.45558C79.6854 7.00929 79.996 6.62678 80.3912 6.35232C80.9096 6.00065 81.527 5.83073 82.1493 5.86844C82.9113 5.84018 83.6554 6.10649 84.2316 6.61362C84.5025 6.88138 84.7131 7.20561 84.8489 7.56397C84.9846 7.92234 85.0422 8.30633 85.0177 8.68948V12.7009H83.8408V11.7621H83.7884C83.5645 12.1288 83.2492 12.4289 82.8743 12.632C82.4995 12.8351 82.0784 12.934 81.6538 12.9186ZM81.8539 11.7767C82.3708 11.775 82.8667 11.5684 83.2357 11.2008C83.43 11.0335 83.5861 10.8252 83.6931 10.5904C83.8001 10.3555 83.8554 10.0999 83.8551 9.84112C83.4016 9.51604 82.8505 9.36201 82.2971 9.40563C81.8155 9.37123 81.3375 9.51187 80.9486 9.80241C80.8046 9.90783 80.6867 10.0457 80.604 10.2052C80.5213 10.3648 80.4762 10.5416 80.4722 10.7218C80.4696 10.8762 80.5065 11.0286 80.5791 11.1643C80.6518 11.3 80.7577 11.4142 80.8867 11.496C81.1738 11.6851 81.5121 11.7782 81.8539 11.7621V11.7767Z" fill="#5F6368"/>
<path d="M89.8763 12.9187C89.4099 12.9254 88.9493 12.8122 88.5374 12.5897C88.1722 12.4026 87.8653 12.1162 87.6512 11.7622H87.594V12.6865H86.4219V3.00879H87.6512V6.07177L87.594 6.99115H87.6512C87.8701 6.64495 88.1761 6.36432 88.5374 6.17823C88.9497 5.95741 89.4103 5.8459 89.8763 5.85403C90.2917 5.85189 90.7025 5.9417 91.0802 6.11718C91.4579 6.29267 91.7934 6.54963 92.0634 6.87018C92.6565 7.57203 92.9825 8.46634 92.9825 9.39121C92.9825 10.3161 92.6565 11.2104 92.0634 11.9122C91.7925 12.231 91.4566 12.4862 91.0789 12.66C90.7013 12.8338 90.2909 12.9221 89.8763 12.9187ZM89.6762 11.7622C89.9524 11.7649 90.226 11.7081 90.479 11.5955C90.7319 11.4829 90.9585 11.3171 91.1438 11.109C91.541 10.6181 91.7582 10.0024 91.7582 9.36702C91.7582 8.73163 91.541 8.11593 91.1438 7.62504C90.9568 7.41841 90.7296 7.25345 90.4765 7.14062C90.2235 7.02778 89.9502 6.96952 89.6738 6.96952C89.3975 6.96952 89.1241 7.02778 88.8711 7.14062C88.6181 7.25345 88.3909 7.41841 88.2039 7.62504C87.8093 8.11902 87.5939 8.73577 87.5939 9.37186C87.5939 10.008 87.8093 10.6247 88.2039 11.1187C88.3901 11.3261 88.6178 11.4908 88.8717 11.6017C89.1256 11.7127 89.3999 11.7674 89.6762 11.7622Z" fill="#5F6368"/>
<path d="M95.2617 12.7001H94.0371V3.02246H95.2617V12.7001Z" fill="#5F6368"/>
<path d="M99.6579 12.919C99.2086 12.936 98.7608 12.855 98.3449 12.6814C97.929 12.5078 97.5546 12.2456 97.247 11.9125C96.6216 11.2262 96.2892 10.3163 96.3226 9.38179C96.3036 8.46568 96.6251 7.57591 97.2231 6.88979C97.5055 6.55209 97.8588 6.28292 98.2571 6.10206C98.6553 5.92119 99.0884 5.83322 99.5245 5.8446C99.9579 5.8257 100.39 5.90243 100.792 6.0695C101.193 6.23657 101.554 6.49001 101.85 6.81237C102.458 7.5236 102.772 8.44585 102.726 9.38663V9.61406H97.5472C97.5527 10.2112 97.7909 10.7818 98.2094 11.2012C98.3982 11.389 98.6216 11.537 98.867 11.6367C99.1123 11.7364 99.3747 11.7857 99.6389 11.7819C100.018 11.8148 100.397 11.7216 100.719 11.5165C101.042 11.3114 101.29 11.0054 101.426 10.6447L102.522 11.1286C102.3 11.6541 101.934 12.1041 101.469 12.4254C100.931 12.778 100.297 12.9506 99.6579 12.919ZM101.416 8.56403C101.378 8.15177 101.195 7.76712 100.902 7.48013C100.717 7.29793 100.496 7.15759 100.253 7.06835C100.011 6.97911 99.7529 6.94299 99.4959 6.96237C99.0627 6.95469 98.6419 7.10978 98.3143 7.39787C97.9707 7.70385 97.7307 8.11183 97.6281 8.56403H101.416Z" fill="#5F6368"/>
<path d="M108.115 4.39261C107.952 4.55816 107.732 4.65142 107.502 4.65187C107.271 4.65233 107.051 4.55994 106.888 4.39503C106.725 4.23012 106.633 4.0062 106.632 3.77253C106.632 3.53886 106.723 3.31458 106.885 3.14903C107.049 2.98415 107.27 2.8916 107.5 2.8916C107.73 2.8916 107.951 2.98415 108.115 3.14903C108.277 3.31411 108.368 3.53771 108.368 3.77082C108.368 4.00393 108.277 4.22753 108.115 4.39261ZM108.115 12.7009H106.885V6.06201H108.115V12.7009Z" fill="#5F6368"/>
<path d="M110.886 6.06276V6.98214H110.939C111.142 6.64149 111.434 6.36377 111.782 6.17889C112.154 5.95908 112.576 5.84383 113.006 5.84502C113.352 5.82162 113.698 5.8778 114.019 6.00935C114.34 6.14091 114.627 6.34443 114.86 6.60471C115.312 7.17915 115.541 7.90241 115.503 8.63702V12.7016H114.274V8.83058C114.274 7.60151 113.735 6.98698 112.659 6.98698C112.419 6.98277 112.181 7.03677 111.965 7.14448C111.75 7.2522 111.563 7.41053 111.42 7.60635C111.098 8.01845 110.929 8.53233 110.943 9.058V12.7307H109.719V6.06276H110.886Z" fill="#5F6368"/>
<path d="M122.708 12.8078C122.425 12.8405 122.138 12.8082 121.869 12.7133C121.599 12.6184 121.354 12.4634 121.152 12.2595C120.949 12.0556 120.794 11.8082 120.698 11.5355C120.602 11.2627 120.568 10.9716 120.598 10.6836V7.19962H119.449V6.0625H120.598V4.02051H121.827V6.05282H123.428V7.18995H121.827V10.5771C121.827 11.2981 122.122 11.661 122.708 11.661C122.9 11.6678 123.09 11.6314 123.266 11.5546L123.695 12.624C123.381 12.7521 123.046 12.8146 122.708 12.8078Z" fill="#5F6368"/>
<path d="M125.894 2.99902V6.06201L125.842 6.98139H125.894C126.096 6.64092 126.386 6.36313 126.733 6.17814C127.106 5.95771 127.53 5.84245 127.962 5.84426C128.306 5.82235 128.65 5.87925 128.969 6.01076C129.289 6.14226 129.575 6.345 129.806 6.60396C130.257 7.17886 130.485 7.90221 130.445 8.63627V12.7009H129.22V8.82982C129.22 7.60076 128.682 6.98623 127.605 6.98623C127.365 6.98202 127.127 7.03601 126.912 7.14373C126.696 7.25145 126.509 7.40978 126.366 7.6056C126.044 8.0177 125.876 8.53157 125.889 9.05725V12.7299H124.66V3.05225L125.894 2.99902Z" fill="#5F6368"/>
<path d="M134.857 12.9181C134.408 12.9348 133.961 12.8536 133.546 12.6799C133.131 12.5063 132.758 12.2443 132.451 11.9116C131.824 11.2258 131.49 10.316 131.522 9.38093C131.503 8.46481 131.824 7.57505 132.422 6.88892C132.705 6.55123 133.058 6.28206 133.456 6.10119C133.854 5.92032 134.287 5.83235 134.724 5.84374C135.158 5.82445 135.591 5.90098 135.993 6.06806C136.395 6.23513 136.757 6.48877 137.053 6.8115C137.652 7.52491 137.958 8.44499 137.906 9.38093V9.60835H132.751C132.753 9.90421 132.812 10.1968 132.926 10.4692C133.039 10.7416 133.205 10.9885 133.413 11.1955C133.602 11.3833 133.825 11.5313 134.071 11.631C134.316 11.7307 134.578 11.78 134.843 11.7761C135.222 11.8091 135.601 11.7159 135.923 11.5108C136.245 11.3057 136.493 10.9997 136.629 10.639L137.725 11.1229C137.503 11.6496 137.136 12.0999 136.668 12.4197C136.131 12.7752 135.497 12.9496 134.857 12.9181ZM136.62 8.56316C136.577 8.15217 136.395 7.76898 136.105 7.47926C135.917 7.29439 135.692 7.15253 135.446 7.06323C135.199 6.97392 134.937 6.93924 134.676 6.96151C134.243 6.95383 133.822 7.10891 133.494 7.397C133.151 7.70298 132.911 8.11096 132.808 8.56316H136.62Z" fill="#5F6368"/>
<g clip-path="url(#clip0)">
<path d="M24.2221 7.94854H15.5865C14.632 7.94854 13.8584 7.14715 13.8584 6.15823C13.8584 5.17108 14.632 4.36969 15.5865 4.36969H24.2221C25.1766 4.36969 25.9502 5.17108 25.9502 6.15823C25.9502 7.14715 25.1766 7.94854 24.2221 7.94854ZM0.904297 0.789062V32.1054C0.904297 33.5808 2.07061 34.7891 3.49478 34.7891H36.3138C37.738 34.7891 38.9043 33.5808 38.9043 32.1054V0.789062H0.904297Z" fill="#EEEEEE"/>
<path d="M19.9054 15.1045C14.1131 15.1045 9.02259 18.2128 6.10254 22.9079V34.7873H14.1028L19.9054 24.3745H34.5244C31.8076 18.8726 26.28 15.1045 19.9054 15.1045Z" fill="#DB4437"/>
<path d="M6.09804 22.915C4.45188 25.5651 3.49561 28.7194 3.49561 32.1054C3.49561 33.0183 3.56562 33.9152 3.70052 34.7891H12.7817L6.09804 22.915Z" fill="#0F9D58"/>
<path d="M36.3139 32.1061C36.3139 29.3233 35.6685 26.6962 34.5243 24.377H19.9053L25.7078 34.7898H36.109C36.2439 33.9158 36.3139 33.0189 36.3139 32.1061Z" fill="#FFCD40"/>
<path d="M19.9048 24.377C15.7842 24.377 12.4458 27.8373 12.4458 32.1061C12.4458 33.0508 12.6097 33.9548 12.9086 34.7898H14.5274C14.1483 33.9778 13.9366 33.0667 13.9366 32.1061C13.9366 28.69 16.609 25.9231 19.9048 25.9231C23.2005 25.9231 25.873 28.69 25.873 32.1061C25.873 33.0684 25.6612 33.9778 25.2821 34.7898H26.9009C27.1998 33.953 27.3637 33.049 27.3637 32.1061C27.3637 27.8373 24.0236 24.377 19.9048 24.377Z" fill="#F1F1F1"/>
<path d="M19.9057 25.9219C16.6099 25.9219 13.9375 28.6887 13.9375 32.1048C13.9375 33.0672 14.1492 33.9765 14.5283 34.7885H25.283C25.6621 33.9765 25.8739 33.0654 25.8739 32.1048C25.8722 28.6887 23.2014 25.9219 19.9057 25.9219Z" fill="#4285F4"/>
<path opacity="0.05" d="M0.904297 0.789062V17.79H38.9043V0.789062H0.904297ZM24.2221 7.94855H15.5865C14.632 7.94855 13.8584 7.14715 13.8584 6.15824C13.8584 5.17109 14.632 4.36969 15.5865 4.36969H24.2238C25.1783 4.36969 25.9519 5.17109 25.9519 6.15824C25.9502 7.14715 25.1766 7.94855 24.2221 7.94855Z" fill="#212121"/>
<path opacity="0.02" d="M38.9043 17.5654H0.904297V17.7901H38.9043V17.5654Z" fill="#212121"/>
<path opacity="0.05" d="M38.9043 17.79H0.904297V18.0147H38.9043V17.79Z" fill="white"/>
<path opacity="0.02" d="M0.904297 0.789062V1.01374H38.9043V0.789062H0.904297ZM24.2221 7.94854H15.5865C14.6695 7.94854 13.9199 7.20552 13.8652 6.27145C13.8601 6.3086 13.8584 6.34575 13.8584 6.3829C13.8584 7.37182 14.632 8.17144 15.5865 8.17144H24.2221C25.1766 8.17144 25.9502 7.37182 25.9502 6.3829C25.9502 6.34575 25.9485 6.3086 25.9433 6.27145C25.8887 7.20376 25.1408 7.94854 24.2221 7.94854Z" fill="#212121"/>
<path opacity="0.1" d="M36.3138 34.5647H3.49478C2.07061 34.5647 0.904297 33.3582 0.904297 31.881V32.1057C0.904297 33.5811 2.07061 34.7894 3.49478 34.7894H36.3138C37.738 34.7894 38.9043 33.5811 38.9043 32.1057V31.881C38.9043 33.3582 37.738 34.5647 36.3138 34.5647ZM15.5865 4.36823H24.2221C25.1391 4.36823 25.8887 5.11124 25.9433 6.04532C25.9451 6.00817 25.9502 5.97102 25.9502 5.93387C25.9502 4.94495 25.1766 4.14355 24.2221 4.14355H15.5865C14.632 4.14355 13.8584 4.94495 13.8584 5.93387C13.8584 5.97102 13.8601 6.00817 13.8652 6.04532C13.9199 5.11124 14.6678 4.36823 15.5865 4.36823Z" fill="#231F20"/>
</g>
<defs>
<clipPath id="clip0">
<rect width="38" height="34" fill="white" transform="translate(0.904297 0.789062)"/>
</clipPath>
</defs>
</svg>
