<svg width="434" height="434" viewBox="0 0 434 434" fill="none" xmlns="http://www.w3.org/2000/svg">
<circle cx="217" cy="217" r="217" fill="#FFF2F6"/>
<ellipse cx="216.608" cy="217" rx="158.637" ry="159.029" fill="#FFE7EE"/>
<path d="M403.163 223.3C403.163 223.3 403.551 218.556 397.448 211.357C391.345 204.158 387.377 200.015 387.377 200.015C387.377 200.015 383.156 210.687 388.784 217.819C392.943 222.879 397.519 227.582 402.464 231.877L403.163 223.3Z" fill="#FD3E72"/>
<path d="M391.078 252.165C391.078 252.165 391.466 247.421 385.364 240.221C379.261 233.022 375.302 228.879 375.302 228.879C375.302 228.879 371.082 239.552 376.709 246.683C380.866 251.733 385.439 256.426 390.38 260.713L391.078 252.165Z" fill="#FD3E72"/>
<path d="M402.077 231.363C402.077 231.363 402.969 226.687 410.809 221.379C418.648 216.072 423.538 213.132 423.538 213.132C423.538 213.132 424.771 224.523 417.436 229.917C412.084 233.676 406.427 236.98 400.524 239.795L402.077 231.363Z" fill="#FD3E72"/>
<path d="M387.545 265.428C387.545 265.428 388.923 260.868 397.248 256.405C405.573 251.942 410.773 249.536 410.773 249.536C410.773 249.536 410.773 260.994 402.943 265.583C397.22 268.749 391.242 271.429 385.071 273.598L387.545 265.428Z" fill="#FD3E72"/>
<path d="M386.582 303.792C386.582 303.792 386.97 299.047 394.17 292.945C401.369 286.842 405.948 283.397 405.948 283.397C405.948 283.397 408.374 294.594 401.65 300.736C396.726 305.051 391.449 308.945 385.874 312.379L386.582 303.792Z" fill="#FD3E72"/>
<path d="M385.713 313.106C385.713 313.106 386.77 308.458 381.754 300.493C376.738 292.527 373.41 287.879 373.41 287.879C373.41 287.879 367.715 297.824 372.265 305.703C375.662 311.293 379.521 316.59 383.801 321.537L385.713 313.106Z" fill="#FD3E72"/>
<path d="M376.891 340.195C376.891 340.195 377.279 335.451 384.479 329.348C391.678 323.245 396.257 319.801 396.257 319.801C396.257 319.801 398.683 330.997 391.959 337.139C387.035 341.454 381.758 345.348 376.183 348.782L376.891 340.195Z" fill="#FD3E72"/>
<path d="M379.268 365.606C379.268 365.606 378.443 360.91 383.857 353.186C389.271 345.463 392.832 340.961 392.832 340.961C392.832 340.961 398.013 351.178 393.065 358.824C389.39 364.236 385.268 369.331 380.743 374.056L379.268 365.606Z" fill="#FD3E72"/>
<path d="M403.868 222.175C403.122 227.078 402.108 231.936 400.831 236.728C397.086 250.089 389.799 258.307 386.161 270.357C382.522 282.407 388.771 298.824 385.452 314.416C382.134 330.007 375.284 338.254 376.167 348.917C377.05 359.58 383.929 388.804 383.929 388.804" stroke="#263238" stroke-width="0.53" stroke-linecap="round" stroke-linejoin="round"/>
<path d="M401.751 234.507L409.367 229.597" stroke="#263238" stroke-width="0.53" stroke-linecap="round" stroke-linejoin="round"/>
<path d="M402.613 228.21L400.052 222.631" stroke="#263238" stroke-width="0.53" stroke-linecap="round" stroke-linejoin="round"/>
<path d="M386.607 269.833C386.607 269.833 392.972 265.826 399.512 261.838" stroke="#263238" stroke-width="0.53" stroke-linecap="round" stroke-linejoin="round"/>
<path d="M390.377 260.713C390.377 260.713 386.185 250.506 381.053 243.54" stroke="#263238" stroke-width="0.53" stroke-linecap="round" stroke-linejoin="round"/>
<path d="M386.265 310.574C390.209 304.544 395.007 299.119 400.508 294.468" stroke="#263238" stroke-width="0.53" stroke-linecap="round" stroke-linejoin="round"/>
<path d="M384.555 317.142C383.088 312.709 381.254 308.406 379.073 304.277C375.998 298.824 375.551 298.116 375.551 298.116" stroke="#263238" stroke-width="0.53" stroke-linecap="round" stroke-linejoin="round"/>
<path d="M376.171 348.917C377.999 345.269 380.104 341.766 382.468 338.439C384.814 335.368 387.41 332.496 390.23 329.852" stroke="#263238" stroke-width="0.53" stroke-linecap="round" stroke-linejoin="round"/>
<path d="M380.745 374.047C380.691 370.414 381.609 366.833 383.404 363.675C386.315 359.047 389.652 352.954 391.03 350.547" stroke="#263238" stroke-width="0.53" stroke-linecap="round" stroke-linejoin="round"/>
<path d="M354.381 283.165C354.381 283.165 354.109 280.147 357.961 275.539C361.813 270.93 364.316 268.271 364.316 268.271C364.316 268.271 367.052 275.063 363.501 279.614C360.879 282.847 357.991 285.856 354.866 288.608L354.381 283.165Z" fill="#FD3E72"/>
<path d="M355.133 288.287C355.133 288.287 354.541 285.308 349.554 281.971C344.567 278.633 341.413 276.78 341.413 276.78C341.413 276.78 340.686 284.037 345.372 287.452C348.795 289.82 352.411 291.897 356.18 293.662L355.133 288.287Z" fill="#FD3E72"/>
<path d="M372.304 364.946C372.304 364.946 372.895 361.967 377.892 358.639C382.889 355.311 386.033 353.458 386.033 353.458C386.033 353.458 386.751 360.715 382.055 364.131C378.628 366.496 375.009 368.569 371.236 370.33L372.304 364.946Z" fill="#FD3E72"/>
<path d="M355.36 290.295L350.489 287.2" stroke="#263238" stroke-width="0.53" stroke-linecap="round" stroke-linejoin="round"/>
<path d="M354.784 286.279L356.385 282.718" stroke="#263238" stroke-width="0.53" stroke-linecap="round" stroke-linejoin="round"/>
<path d="M371.513 368.109C373.334 366.194 375.321 364.443 377.451 362.879C378.795 362.052 380.07 361.118 381.264 360.085" stroke="#263238" stroke-width="0.53" stroke-linecap="round" stroke-linejoin="round"/>
<path d="M362.238 301.483C362.238 301.483 361.966 298.465 365.818 293.856C369.67 289.248 372.173 286.589 372.173 286.589C372.173 286.589 374.909 293.381 371.358 297.931C368.736 301.165 365.848 304.174 362.723 306.926L362.238 301.483Z" fill="#FD3E72"/>
<path d="M364.547 309.904C364.547 309.904 363.645 306.993 358.338 304.208C353.031 301.424 349.703 299.9 349.703 299.9C349.703 299.9 349.703 307.187 354.758 310.078C358.411 312.072 362.224 313.756 366.158 315.114L364.547 309.904Z" fill="#FD3E72"/>
<path d="M365.318 334.315C365.318 334.315 365.047 331.298 360.467 327.446C355.888 323.594 352.928 321.421 352.928 321.421C352.928 321.421 351.434 328.552 355.742 332.433C358.896 335.149 362.271 337.596 365.833 339.749L365.318 334.315Z" fill="#FD3E72"/>
<path d="M365.927 340.234C365.927 340.234 365.229 337.323 368.382 332.171C371.535 327.019 373.641 324.079 373.641 324.079C373.641 324.079 377.308 330.376 374.446 335.421C372.31 338.995 369.88 342.383 367.179 345.551L365.927 340.234Z" fill="#FD3E72"/>
<path d="M371.671 357.436C371.671 357.436 371.4 354.419 366.82 350.567C362.241 346.715 359.281 344.542 359.281 344.542C359.281 344.542 357.787 351.673 362.095 355.554C365.249 358.27 368.624 360.717 372.185 362.869L371.671 357.436Z" fill="#FD3E72"/>
<path d="M370.278 373.61C370.278 373.61 370.783 370.622 367.3 365.732C363.817 360.842 361.527 357.97 361.527 357.97C361.527 357.97 358.277 364.499 361.459 369.341C363.821 372.767 366.466 375.99 369.366 378.975L370.278 373.61Z" fill="#FD3E72"/>
<path d="M353.953 282.427C354.449 285.553 355.116 288.649 355.952 291.702C358.397 300.192 363.073 305.383 365.441 313.048C367.808 320.712 363.917 331.181 366.091 341.078C368.264 350.974 372.669 356.204 372.155 362.986C371.641 369.768 367.41 388.406 367.41 388.406" stroke="#263238" stroke-width="0.53" stroke-linecap="round" stroke-linejoin="round"/>
<path d="M365.155 312.698C365.155 312.698 361.08 310.175 356.908 307.672" stroke="#263238" stroke-width="0.53" stroke-linecap="round" stroke-linejoin="round"/>
<path d="M362.723 306.916C364.285 303.07 366.236 299.393 368.545 295.942" stroke="#263238" stroke-width="0.53" stroke-linecap="round" stroke-linejoin="round"/>
<path d="M365.558 338.604C363.021 334.783 359.942 331.352 356.418 328.416" stroke="#263238" stroke-width="0.53" stroke-linecap="round" stroke-linejoin="round"/>
<path d="M366.676 342.795C367.591 339.968 368.74 337.223 370.111 334.587C372.051 331.103 372.323 330.647 372.323 330.647" stroke="#263238" stroke-width="0.53" stroke-linecap="round" stroke-linejoin="round"/>
<path d="M372.18 362.985C370.999 360.673 369.644 358.454 368.124 356.349C366.618 354.404 364.953 352.586 363.147 350.916" stroke="#263238" stroke-width="0.53" stroke-linecap="round" stroke-linejoin="round"/>
<path d="M369.379 378.995C369.393 376.683 368.79 374.409 367.633 372.407C365.77 369.497 363.606 365.616 362.723 364.092" stroke="#263238" stroke-width="0.53" stroke-linecap="round" stroke-linejoin="round"/>
<path d="M40.3036 364.946C40.3036 364.946 40.8954 361.967 45.8922 358.639C50.8889 355.311 54.0325 353.458 54.0325 353.458C54.0325 353.458 54.7505 360.715 50.0545 364.131C46.6278 366.496 43.0091 368.569 39.2363 370.33L40.3036 364.946Z" fill="#FD3E72"/>
<path d="M38.2946 373.61C38.2946 373.61 38.7991 370.621 35.316 365.731C31.8328 360.841 29.543 357.969 29.543 357.969C29.543 357.969 26.2927 364.499 29.4751 369.34C31.8376 372.767 34.4826 375.99 37.3826 378.975L38.2946 373.61Z" fill="#FD3E72"/>
<path d="M22.4143 283.164C22.4143 283.164 22.1426 280.147 25.9945 275.538C29.8464 270.929 32.3496 268.271 32.3496 268.271C32.3496 268.271 35.0857 275.063 31.5346 279.613C28.9123 282.847 26.0238 285.855 22.8994 288.607L22.4143 283.164Z" fill="#FD3E72"/>
<path d="M30.2551 301.483C30.2551 301.483 29.9835 298.465 33.8353 293.856C37.6872 289.248 40.1904 286.589 40.1904 286.589C40.1904 286.589 42.9264 293.381 39.3754 297.931C36.753 301.165 33.8646 304.174 30.7402 306.926L30.2551 301.483Z" fill="#FD3E72"/>
<path d="M23.1497 288.287C23.1497 288.287 22.5579 285.309 17.5708 281.971C12.5838 278.633 9.43051 276.78 9.43051 276.78C9.43051 276.78 8.70283 284.038 13.3891 287.453C16.8123 289.821 20.4278 291.898 24.1976 293.662L23.1497 288.287Z" fill="#FD3E72"/>
<path d="M32.5644 309.904C32.5644 309.904 31.6718 306.993 26.3549 304.209C21.038 301.424 17.7197 299.891 17.7197 299.891C17.7197 299.891 17.7197 307.178 22.7747 310.069C26.4398 312.068 30.2663 313.756 34.2138 315.114L32.5644 309.904Z" fill="#FD3E72"/>
<path d="M33.3516 334.315C33.3516 334.315 33.0799 331.298 28.5004 327.446C23.9208 323.594 20.9616 321.421 20.9616 321.421C20.9616 321.421 19.4674 328.552 23.7753 332.433C26.9288 335.149 30.3041 337.596 33.8658 339.749L33.3516 334.315Z" fill="#FD3E72"/>
<path d="M33.9438 340.234C33.9438 340.234 33.2452 337.323 36.3985 332.171C39.5518 327.019 41.6572 324.05 41.6572 324.05C41.6572 324.05 45.3247 330.347 42.4625 335.392C40.3222 338.976 37.8848 342.375 35.176 345.551L33.9438 340.234Z" fill="#FD3E72"/>
<path d="M39.6924 357.436C39.6924 357.436 39.4207 354.419 34.8412 350.567C30.2616 346.715 27.3024 344.542 27.3024 344.542C27.3024 344.542 25.8082 351.673 30.1161 355.554C33.2607 358.265 36.6262 360.709 40.1775 362.86L39.6924 357.436Z" fill="#FD3E72"/>
<path d="M21.9702 282.427C22.4663 285.553 23.1335 288.649 23.9689 291.702C26.4139 300.192 31.0905 305.383 33.4579 313.048C35.8252 320.712 31.9346 331.181 34.1079 341.078C36.2813 350.974 40.6861 356.204 40.1719 362.986C39.6577 369.768 35.4274 388.406 35.4274 388.406" stroke="#263238" stroke-width="0.53" stroke-linecap="round" stroke-linejoin="round"/>
<path d="M23.3765 290.296L18.5059 287.201" stroke="#263238" stroke-width="0.53" stroke-linecap="round" stroke-linejoin="round"/>
<path d="M22.8013 286.279L24.4022 282.718" stroke="#263238" stroke-width="0.53" stroke-linecap="round" stroke-linejoin="round"/>
<path d="M33.1758 312.698C33.1758 312.698 29.1008 310.176 24.9287 307.672" stroke="#263238" stroke-width="0.53" stroke-linecap="round" stroke-linejoin="round"/>
<path d="M30.7275 306.915C32.2898 303.069 34.2404 299.392 36.549 295.942" stroke="#263238" stroke-width="0.53" stroke-linecap="round" stroke-linejoin="round"/>
<path d="M33.5752 338.604C31.0377 334.783 27.959 331.352 24.4355 328.416" stroke="#263238" stroke-width="0.53" stroke-linecap="round" stroke-linejoin="round"/>
<path d="M34.6973 342.795C35.5968 339.97 36.7294 337.224 38.0834 334.587C40.0239 331.103 40.2956 330.647 40.2956 330.647" stroke="#263238" stroke-width="0.53" stroke-linecap="round" stroke-linejoin="round"/>
<path d="M39.5469 368.109C41.3668 366.187 43.3539 364.43 45.4848 362.86C46.8289 362.032 48.1041 361.098 49.2978 360.065" stroke="#263238" stroke-width="0.53" stroke-linecap="round" stroke-linejoin="round"/>
<path d="M40.1815 362.986C39.0076 360.671 37.6583 358.449 36.1453 356.34C34.6388 354.394 32.974 352.577 31.168 350.906" stroke="#263238" stroke-width="0.53" stroke-linecap="round" stroke-linejoin="round"/>
<path d="M37.3795 378.995C37.3935 376.683 36.7907 374.408 35.633 372.407C33.7702 369.496 31.6066 365.615 30.7236 364.092" stroke="#263238" stroke-width="0.53" stroke-linecap="round" stroke-linejoin="round"/>
<path d="M405.217 389.667H15.0732" stroke="#263238" stroke-width="1.06" stroke-linejoin="round"/>
<path d="M397.918 52.1636H48.8862C43.3634 52.1636 38.8862 56.6407 38.8862 62.1636V307.359C38.8862 312.882 43.3634 317.359 48.8862 317.359H397.918C403.441 317.359 407.918 312.882 407.918 307.359V62.1636C407.918 56.6407 403.441 52.1636 397.918 52.1636Z" fill="#5B5863"/>
<circle cx="54.354" cy="66.4501" r="5.14155" fill="#FD3E72"/>
<circle cx="73.4897" cy="66.4501" r="5.14155" fill="#FCCA3E"/>
<circle cx="92.621" cy="66.4497" r="5.14155" fill="#00B67A"/>
<path d="M394.969 79.0078H51.8364C46.3136 79.0078 41.8364 83.485 41.8364 89.0078V295.265C41.8364 300.788 46.3136 305.265 51.8364 305.265H394.969C400.492 305.265 404.969 300.788 404.969 295.265V89.0078C404.969 83.485 400.492 79.0078 394.969 79.0078Z" fill="white"/>
<rect x="54.2251" y="88.4473" width="35.9888" height="35.9888" rx="14" fill="#FD3E72"/>
<rect x="97.8833" y="92.8721" width="108.851" height="15.9294" rx="5" fill="#ECECEC"/>
<rect x="97.8833" y="116.471" width="292.925" height="4.71984" rx="2.35992" fill="#F5F5F5"/>
<rect x="97.8833" y="116.177" width="127.141" height="5.30982" rx="2.65491" fill="#FD3E72"/>
<path d="M404.969 135H41.8364V306.354C41.8364 310.772 45.4181 314.354 49.8364 314.354H396.969C401.387 314.354 404.969 310.772 404.969 306.354V135Z" fill="#F2F2F2"/>
<path d="M272.774 184.343C272.774 192.916 272.774 201.495 272.774 210.081C272.774 212.701 272.732 212.753 270.411 211.639C263.336 208.242 252.474 212.636 252.441 223.338C252.413 233.765 262.269 238.14 269.405 235.594C272.765 234.401 272.774 234.429 272.774 237.934C272.774 245.11 272.774 252.285 272.774 259.461C272.774 260.631 272.807 261.576 271.132 261.566C262.643 261.51 254.149 261.538 245.356 261.538C246.629 258.651 247.326 255.881 247.074 252.881C246.606 247.462 242.282 242.852 236.245 241.594C231.626 240.606 225.543 243.662 223.203 247.911C221.074 251.819 220.835 255.745 222.651 259.765C223.222 261.024 223.226 261.557 221.612 261.543C212.809 261.463 204.002 261.449 195.195 261.412V234.214C191.161 236.348 187.24 237.022 183.243 235.417C180.67 234.396 178.484 232.833 176.996 230.372C174.067 225.542 174.38 219.22 177.81 215.303C182.415 210.057 187.638 209.164 194.933 212.393C195.439 211.7 195.172 210.909 195.176 210.179C195.176 202.224 195.228 194.268 195.176 186.313C195.176 184.689 195.644 184.188 197.292 184.202C205.921 184.277 214.555 184.235 223.273 184.235C223.273 182.667 222.141 181.643 221.869 180.286C220.592 174.497 222.735 168.905 227.415 166.055C232.534 162.929 238.557 163.495 243.204 167.533C243.377 167.683 243.569 167.814 243.756 167.955C246.068 168.994 246.891 171.099 247.439 173.313C248.099 175.99 248.192 178.718 247.181 181.334C246.526 183.032 247.027 183.547 248.744 183.543C254.954 183.51 261.164 183.543 267.374 183.514C269.221 183.451 271.063 183.732 272.807 184.343H272.774Z" fill="#E8E8E8"/>
<path d="M231.464 228.781H236.152V205.455H231.464V228.781Z" fill="#A3A2A8"/>
<path d="M250.652 212.477C249.65 212.477 248.696 212.685 247.791 213.086C246.886 213.487 246.11 214.064 245.463 214.817H245.415V212.749H241.083V228.781H245.415V220.717C245.415 219.322 245.738 218.248 246.401 217.479C247.064 216.725 247.953 216.34 249.084 216.34C250.135 216.34 250.911 216.645 251.428 217.238C251.929 217.847 252.188 218.874 252.188 220.348V228.797H256.52V219.274C256.52 218.072 256.375 217.03 256.1 216.132C255.809 215.25 255.405 214.545 254.871 214.016C254.338 213.503 253.724 213.118 253.029 212.861C252.334 212.605 251.541 212.477 250.652 212.477Z" fill="#A3A2A8"/>
<path d="M265.896 229.054C267.933 229.054 269.485 228.605 270.552 227.675C271.619 226.761 272.168 225.559 272.168 224.068C272.168 223.683 272.136 223.314 272.071 222.994C271.861 221.936 271.231 221.07 270.196 220.429C269.582 220.044 268.386 219.531 266.607 218.874C265.751 218.553 265.136 218.264 264.748 218.008C264.36 217.751 264.183 217.463 264.183 217.142C264.183 216.757 264.344 216.469 264.668 216.26C264.991 216.052 265.346 215.94 265.767 215.94C266.381 215.94 267.028 216.084 267.707 216.373C268.386 216.661 269.016 217.078 269.63 217.639L271.732 214.497C270.81 213.791 269.873 213.278 268.935 212.958C267.981 212.637 266.947 212.477 265.815 212.477C264.716 212.477 263.714 212.685 262.841 213.07C261.968 213.471 261.273 214.032 260.756 214.769C260.238 215.507 259.996 216.34 259.996 217.286C259.996 217.799 260.044 218.264 260.174 218.681C260.287 219.114 260.465 219.499 260.691 219.819C260.917 220.156 261.176 220.461 261.467 220.717C261.758 220.99 262.097 221.23 262.501 221.455C262.889 221.679 263.277 221.855 263.665 222.016C264.053 222.176 264.49 222.336 264.975 222.497C265.734 222.753 266.3 222.946 266.688 223.106C267.076 223.266 267.367 223.443 267.593 223.635C267.804 223.827 267.917 224.036 267.917 224.276C267.917 224.677 267.739 224.998 267.383 225.238C267.028 225.495 266.543 225.607 265.928 225.607C264.28 225.607 262.792 224.982 261.451 223.731L259.349 226.697C261.144 228.268 263.326 229.054 265.896 229.054Z" fill="#A3A2A8"/>
<path d="M280.542 229.054C281.528 229.054 282.336 228.974 282.966 228.797C283.581 228.637 284.211 228.381 284.825 228.044L283.71 224.613C282.966 224.998 282.288 225.174 281.673 225.174C281.156 225.174 280.8 225.014 280.574 224.677C280.348 224.356 280.251 223.827 280.251 223.122V216.308H284.648V212.749H280.251V207.042L275.918 207.507V212.749H274.011V216.308H275.918V223.715C275.918 225.479 276.323 226.809 277.147 227.707C277.971 228.605 279.103 229.054 280.542 229.054Z" fill="#A3A2A8"/>
<path d="M298.679 212.749V214.561H298.614C297.402 213.182 295.818 212.477 293.846 212.477C292.779 212.477 291.76 212.685 290.823 213.102C289.885 213.519 289.077 214.096 288.398 214.817C287.719 215.555 287.202 216.437 286.814 217.463C286.426 218.505 286.232 219.627 286.232 220.813C286.232 222.032 286.426 223.17 286.814 224.196C287.202 225.222 287.735 226.104 288.414 226.809C289.093 227.515 289.917 228.076 290.871 228.461C291.825 228.861 292.86 229.054 293.975 229.054C296.044 229.054 297.644 228.316 298.808 226.841H298.889V228.781H303.011V212.749H298.679ZM294.767 225.206C293.538 225.206 292.552 224.805 291.776 223.988C291.001 223.186 290.629 222.128 290.629 220.829C290.629 219.483 291.017 218.409 291.809 217.575C292.601 216.757 293.587 216.34 294.783 216.34C295.947 216.34 296.917 216.773 297.693 217.623C298.469 218.489 298.857 219.547 298.857 220.829C298.857 222.128 298.453 223.186 297.677 223.988C296.885 224.805 295.915 225.206 294.767 225.206Z" fill="#A3A2A8"/>
<path d="M307.457 228.781H311.789V204.605H307.457V228.781Z" fill="#A3A2A8"/>
<path d="M316.574 228.781H320.906V204.605H316.574V228.781Z" fill="#A3A2A8"/>
<path d="M327.857 210.489C328.584 210.489 329.215 210.232 329.748 209.719C330.266 209.206 330.54 208.597 330.54 207.859C330.54 207.154 330.266 206.529 329.748 206.016C329.215 205.503 328.584 205.246 327.857 205.246C327.113 205.246 326.467 205.503 325.95 206.016C325.432 206.529 325.174 207.154 325.174 207.859C325.174 208.34 325.287 208.789 325.529 209.19C325.756 209.591 326.079 209.912 326.499 210.136C326.919 210.377 327.372 210.489 327.857 210.489ZM325.691 228.781H330.023V212.749H325.691V228.781Z" fill="#A3A2A8"/>
<path d="M344.184 212.477C343.182 212.477 342.228 212.685 341.323 213.086C340.417 213.487 339.641 214.064 338.995 214.817H338.946V212.749H334.614V228.781H338.946V220.717C338.946 219.322 339.27 218.248 339.932 217.479C340.595 216.725 341.484 216.34 342.616 216.34C343.667 216.34 344.442 216.645 344.96 217.238C345.461 217.847 345.72 218.874 345.72 220.348V228.797H350.052V219.274C350.052 218.072 349.906 217.03 349.631 216.132C349.341 215.25 348.936 214.545 348.403 214.016C347.869 213.503 347.255 213.118 346.56 212.861C345.865 212.605 345.073 212.477 344.184 212.477Z" fill="#A3A2A8"/>
<path d="M365.667 212.749V214.401H365.586C364.956 213.775 364.229 213.294 363.388 212.974C362.547 212.653 361.674 212.477 360.753 212.477C359.331 212.477 358.037 212.829 356.906 213.519C355.758 214.224 354.869 215.186 354.222 216.421C353.576 217.671 353.269 219.066 353.269 220.605C353.269 222.144 353.592 223.507 354.255 224.709C354.917 225.912 355.839 226.841 357.003 227.499C358.167 228.172 359.492 228.493 360.979 228.493C362.919 228.493 364.487 227.867 365.683 226.617H365.764V228.236C365.764 229.262 365.36 230.112 364.568 230.785C363.76 231.459 362.644 231.795 361.19 231.795C360.22 231.795 359.331 231.667 358.506 231.411C357.666 231.154 356.809 230.785 355.936 230.304L354.934 233.928C356.825 235.018 359.04 235.547 361.561 235.547C362.774 235.547 363.857 235.419 364.811 235.13C365.764 234.857 366.573 234.473 367.219 233.96C367.866 233.463 368.399 232.853 368.819 232.132C369.24 231.411 369.531 230.625 369.725 229.759C369.903 228.91 370 227.964 370 226.938V212.749H365.667ZM361.771 224.597C361.303 224.597 360.866 224.549 360.446 224.421C360.026 224.292 359.654 224.116 359.314 223.876C358.975 223.651 358.684 223.362 358.441 223.026C358.183 222.705 357.989 222.32 357.86 221.888C357.73 221.455 357.666 220.99 357.666 220.477C357.666 219.274 358.037 218.296 358.813 217.527C359.573 216.773 360.559 216.389 361.771 216.389C362.935 216.389 363.905 216.773 364.681 217.511C365.457 218.264 365.861 219.242 365.861 220.445C365.861 221.663 365.473 222.657 364.714 223.427C363.938 224.212 362.968 224.597 361.771 224.597Z" fill="#A3A2A8"/>
<path d="M326.306 220.853C326.306 221.109 326.23 221.359 326.088 221.572C325.946 221.785 325.744 221.951 325.507 222.049C325.27 222.147 325.01 222.173 324.759 222.123C324.508 222.073 324.277 221.949 324.096 221.768C323.915 221.587 323.792 221.357 323.742 221.105C323.692 220.854 323.717 220.594 323.815 220.357C323.913 220.121 324.079 219.919 324.292 219.776C324.505 219.634 324.755 219.558 325.012 219.558C325.355 219.558 325.684 219.695 325.927 219.937C326.17 220.18 326.306 220.509 326.306 220.853Z" fill="#E0E0E0"/>
<path d="M344.215 160.747C344.215 161.001 344.14 161.249 343.999 161.461C343.858 161.672 343.657 161.837 343.422 161.934C343.187 162.031 342.929 162.057 342.68 162.007C342.43 161.957 342.202 161.835 342.022 161.655C341.842 161.476 341.72 161.247 341.67 160.998C341.621 160.748 341.646 160.49 341.743 160.255C341.841 160.02 342.005 159.82 342.217 159.678C342.428 159.537 342.676 159.462 342.93 159.462C343.271 159.462 343.598 159.597 343.839 159.838C344.08 160.079 344.215 160.406 344.215 160.747Z" fill="#E0E0E0"/>
<path d="M68.8555 316.937C68.8555 314.176 71.094 311.938 73.8555 311.938H149.404C152.165 311.938 154.404 314.176 154.404 316.938V389.139H68.8555V316.937Z" fill="#B99B3E"/>
<path d="M125.7 162.617C125.7 162.617 138.049 165.952 140.364 175.27C144.022 189.983 155.204 233.464 155.204 233.464L166.974 243.018L159.441 255.504C159.441 255.504 146.288 251.179 140.805 244.107C135.322 237.035 129.692 210.62 129.692 210.62L125.7 162.617Z" fill="#FD3E72"/>
<path d="M103.112 96.6059C100.169 93.2415 92.7931 93.5652 90.9884 95.6839C89.6938 95.0368 88.2 94.9121 86.8161 95.3357C85.4322 95.7593 84.2641 96.6986 83.5535 97.9594L75.6478 99.4994C74.2781 99.6455 72.9683 100.138 71.8421 100.931C71.2914 101.342 70.9104 101.94 70.7712 102.612C70.632 103.285 70.7443 103.985 71.0868 104.58C68.3012 105.237 67.1144 109.337 69.1251 111.378C68.8486 111.676 68.637 112.029 68.5037 112.413C68.3703 112.797 68.3181 113.205 68.3504 113.611C68.3827 114.016 68.4987 114.411 68.6911 114.769C68.8835 115.128 69.1482 115.442 69.4684 115.693C67.2287 118.248 65.4438 121.167 64.1914 124.325C63.5479 125.604 63.3743 127.069 63.701 128.464C64.1522 129.798 65.8883 130.779 67.0948 129.955C66.6991 130.494 66.465 131.134 66.4199 131.801C66.3747 132.468 66.5203 133.134 66.8397 133.721C65.5156 133.721 65.0644 135.771 65.957 136.752C66.8496 137.733 68.3306 137.88 69.6646 137.88C70.9936 137.725 72.338 137.989 73.5095 138.635C73.4729 138.961 73.3111 139.26 73.0584 139.469C71.9136 140.286 71.1286 141.513 70.8673 142.895C70.6059 144.277 70.8884 145.706 71.6558 146.884L72.0775 147.512C72.823 148.621 74.7062 149.67 75.8734 150.317C78.816 151.955 80.6501 151.7 83.9949 152.279C83.014 154.427 88.3597 159.351 94.7156 154.79C105.787 158.23 117.296 160.053 128.889 160.204C130.723 160.254 132.94 160.057 133.793 158.429C134.548 158.592 135.332 158.56 136.071 158.337C136.811 158.114 137.481 157.707 138.02 157.154C139.086 156.031 139.952 154.734 140.58 153.319C142.182 152.898 143.614 151.991 144.678 150.723C145.743 149.455 146.388 147.887 146.524 146.237C147.625 145.413 148.542 144.369 149.217 143.172C149.892 141.975 150.312 140.651 150.448 139.283C151.207 139.029 151.906 138.622 152.501 138.086C153.095 137.549 153.573 136.896 153.904 136.167C154.234 135.438 154.411 134.648 154.422 133.848C154.433 133.047 154.279 132.253 153.969 131.514C153.385 127.698 152.179 124.004 150.399 120.578C152.517 120.166 153.341 117.341 152.557 115.35C151.772 113.359 149.849 112.035 148.054 110.838C149.624 111.289 151.046 109.347 150.713 107.748C150.379 106.15 148.967 105.022 147.593 104.149C145.57 102.869 143.4 101.839 141.13 101.079C140.443 98.2831 136.971 95.0365 134.401 93.7516C124.033 88.5432 116.746 87.1112 103.131 96.5764" fill="#4E4A57"/>
<path d="M92.8213 113.015C92.7703 111.951 93.1213 110.906 93.8044 110.089C94.4875 109.271 95.453 108.74 96.5093 108.601L118.902 102.255C126.102 101.274 131.163 110.043 131.82 117.282C132.556 125.315 133.144 135.163 132.36 141.205C132.048 144.532 130.677 147.672 128.449 150.163C126.221 152.654 123.253 154.365 119.981 155.045L120.168 163.814L120.462 174.015C117.019 173.524 94.9007 162.95 94.9007 162.95L92.8213 113.015Z" fill="#FFBE9D"/>
<path d="M119.982 155.045C119.982 155.045 113.45 155.899 105.269 151.289C105.269 151.289 107.476 160.234 120.08 159.224L119.982 155.045Z" fill="#F6AD88"/>
<path d="M129.083 116.743C128.799 117.135 127.631 116.743 126.258 116.792C124.885 116.841 123.708 117.116 123.433 116.733C123.306 116.537 123.482 116.155 123.983 115.752C124.652 115.294 125.447 115.054 126.258 115.066C127.071 115.057 127.866 115.3 128.534 115.762C129.034 116.174 129.201 116.557 129.083 116.743Z" fill="#263238"/>
<path d="M137.155 123.167C137.125 121.25 136.432 119.403 135.194 117.939C134.425 117.244 133.692 116.51 132.996 115.742C131.662 113.927 131.898 111.455 131.349 109.278C130.988 107.872 130.295 106.573 129.329 105.489C128.364 104.406 127.152 103.569 125.797 103.049C123.551 102.206 120.981 102.265 118.872 101.088C117.313 100.225 116.136 98.7631 114.537 97.9981C111.408 96.5072 107.671 98.0569 104.728 99.7832C104.1 102.137 105.562 104.207 106.974 106.198C107.685 107.192 108.605 108.019 109.669 108.62C110.733 109.222 111.916 109.584 113.134 109.68C115.017 109.827 117.224 109.435 118.529 110.808C119.833 112.181 119.323 114.731 120.441 116.369C122.04 118.724 125.787 117.9 128.22 119.371C130.093 120.509 130.858 122.794 131.78 124.785C132.702 126.776 134.311 128.856 136.508 128.787C136.941 126.945 137.158 125.059 137.155 123.167Z" fill="#4E4A57"/>
<path d="M109.399 104.188C103.87 104.016 98.3605 104.919 93.1756 106.846C91.6299 107.136 90.2562 108.012 89.3421 109.292C88.4279 110.572 88.0443 112.155 88.2713 113.712C88.2713 118.243 89.9878 123.805 91.6455 128.022L97.2363 131.495C101.601 130.514 99.7277 122.991 99.5806 119.224C101.106 118.558 102.413 117.476 103.353 116.103C104.293 114.729 104.828 113.119 104.897 111.456C106.144 110.659 107.197 109.593 107.976 108.335C108.755 107.076 109.242 105.659 109.399 104.188Z" fill="#4E4A57"/>
<path d="M97.1465 129.857C97.019 127.267 93.8508 126.708 91.6047 128.013C90.3688 128.719 89.4272 130.151 89.5351 132.917C89.8391 140.244 97.1465 138.43 97.1465 138.224C97.1465 138.018 97.2937 132.888 97.1465 129.857Z" fill="#FFBE9D"/>
<path d="M94.793 135.526C94.793 135.526 94.6655 135.624 94.4596 135.723C94.3088 135.798 94.1444 135.843 93.976 135.855C93.8076 135.867 93.6386 135.845 93.4787 135.791C92.9953 135.508 92.5949 135.102 92.3177 134.615C92.0406 134.127 91.8963 133.576 91.8995 133.015C91.8581 132.387 91.9552 131.758 92.184 131.171C92.247 130.946 92.3638 130.738 92.5244 130.568C92.6849 130.397 92.8845 130.267 93.106 130.191C93.25 130.143 93.4061 130.149 93.5463 130.207C93.6865 130.264 93.8016 130.37 93.871 130.504C93.9789 130.71 93.9397 130.858 93.9789 130.867C94.0181 130.877 94.1358 130.74 94.0574 130.436C94.0123 130.254 93.9046 130.095 93.7533 129.985C93.5439 129.842 93.2873 129.785 93.0373 129.828C92.7394 129.902 92.4652 130.051 92.2405 130.26C92.0158 130.47 91.8478 130.732 91.7524 131.024C91.4674 131.672 91.3429 132.378 91.3895 133.084C91.4974 134.565 92.3115 135.909 93.3512 136.174C93.55 136.225 93.7578 136.229 93.9585 136.186C94.1593 136.144 94.3475 136.056 94.5086 135.929C94.7832 135.683 94.8224 135.536 94.793 135.526Z" fill="#EB996E"/>
<path d="M93.93 138.626C93.928 138.655 93.928 138.685 93.93 138.714C93.908 138.814 93.8716 138.909 93.8222 138.999C93.6248 139.336 93.3213 139.598 92.959 139.744C92.3856 139.987 91.7669 140.104 91.1445 140.087C90.7502 140.096 90.356 140.066 89.9674 139.999C89.5182 139.936 89.0814 139.804 88.6727 139.607H88.761C88.6547 140.165 88.4229 140.692 88.0831 141.147C87.7432 141.603 87.3042 141.975 86.7993 142.235C86.1818 142.531 85.4942 142.65 84.8134 142.577C84.1326 142.504 83.4854 142.243 82.9445 141.823H83.0622C82.9492 141.989 82.8041 142.129 82.6356 142.237C82.4671 142.345 82.2786 142.418 82.0814 142.451C81.6858 142.525 81.2774 142.484 80.9043 142.334C80.4949 142.191 80.1481 141.91 79.9235 141.539C79.6995 141.176 79.5775 140.759 79.5703 140.333C79.5509 139.449 79.8464 138.586 80.4041 137.9C80.9796 137.204 81.6384 136.581 82.3658 136.046V136.223C82.0653 136.024 81.809 135.766 81.6132 135.464C81.4174 135.162 81.2862 134.822 81.228 134.467C81.0984 133.739 81.1836 132.989 81.4732 132.309C81.7871 131.626 82.2339 131.013 82.7876 130.504C83.339 129.984 83.9256 129.502 84.5433 129.063V129.229C84.2882 128.939 84.0956 128.599 83.9775 128.232C83.8594 127.864 83.8183 127.475 83.8567 127.091C83.9179 126.298 84.2189 125.542 84.7198 124.923C85.7256 123.852 86.9592 123.021 88.3294 122.491L88.2706 122.609C88.109 121.845 88.1317 121.055 88.3368 120.302C88.542 119.55 88.9236 118.857 89.4502 118.282C89.9767 117.706 90.6329 117.265 91.3642 116.994C92.0956 116.723 92.8811 116.63 93.6554 116.723L93.5377 116.841C93.3985 116.185 93.4184 115.505 93.5959 114.858C93.7733 114.212 94.1032 113.617 94.5578 113.124C94.9392 112.666 95.416 112.297 95.9547 112.043C96.4935 111.789 97.0812 111.656 97.6769 111.652L97.5789 111.741C97.6084 111.118 97.778 110.509 98.0752 109.961C98.3724 109.412 98.7895 108.938 99.2954 108.572C99.7266 108.236 100.223 107.991 100.753 107.854C101.282 107.718 101.835 107.692 102.375 107.778L102.287 107.847C102.337 107.18 102.553 106.536 102.915 105.973C103.213 105.472 103.595 105.024 104.043 104.649C104.741 104.028 105.63 103.661 106.563 103.609H106.838H107.103C107.258 103.617 107.412 103.637 107.564 103.668C107.801 103.719 108.034 103.788 108.26 103.874L108.663 104.061L108.8 104.129H108.663L108.251 103.962C108.022 103.888 107.789 103.826 107.554 103.776C107.402 103.749 107.248 103.732 107.093 103.727H106.838H106.573C105.662 103.794 104.799 104.163 104.121 104.777C103.683 105.145 103.311 105.587 103.023 106.081C102.679 106.624 102.477 107.245 102.434 107.886V107.964H102.405C101.887 107.892 101.359 107.925 100.854 108.06C100.349 108.194 99.8755 108.429 99.4621 108.749C98.9801 109.101 98.5835 109.558 98.3017 110.084C98.0198 110.61 97.86 111.193 97.8339 111.79V111.878H97.7456C97.1625 111.907 96.5919 112.058 96.0708 112.321C95.5496 112.584 95.0893 112.954 94.7196 113.406C94.35 113.858 94.0791 114.382 93.9245 114.945C93.77 115.508 93.7351 116.097 93.8222 116.674V116.821H93.675C92.9299 116.723 92.1721 116.806 91.4663 117.064C90.7605 117.323 90.1279 117.748 89.6226 118.305C89.1173 118.861 88.7545 119.532 88.5651 120.259C88.3757 120.986 88.3655 121.749 88.5353 122.481V122.569H88.4569C87.1178 123.088 85.9114 123.899 84.9258 124.943C84.4593 125.528 84.1761 126.238 84.1117 126.983C84.0723 127.336 84.1079 127.693 84.2161 128.031C84.3243 128.369 84.5026 128.68 84.7394 128.945L84.8277 129.033L84.7198 129.112C83.4654 129.89 82.432 130.978 81.7184 132.27C81.4465 132.91 81.3648 133.615 81.483 134.3C81.5366 134.627 81.6566 134.939 81.8354 135.217C82.0142 135.495 82.2481 135.734 82.5227 135.919L82.6502 135.997L82.5325 136.085C81.8055 136.602 81.1464 137.209 80.5708 137.89C80.0417 138.541 79.7571 139.357 79.7665 140.195C79.7574 140.585 79.8645 140.968 80.0741 141.297C80.2837 141.625 80.5864 141.884 80.9435 142.039C81.2713 142.199 81.6434 142.243 81.9995 142.165C82.3555 142.086 82.6747 141.89 82.9053 141.608V141.529L82.9739 141.588C83.4482 141.961 84.0105 142.205 84.6066 142.297C85.2027 142.39 85.8126 142.327 86.3774 142.115C86.9422 141.903 87.4429 141.549 87.8311 141.088C88.2194 140.626 88.4822 140.072 88.5942 139.479V139.391H88.6727C89.0617 139.589 89.4783 139.728 89.9086 139.803C90.29 139.876 90.6776 139.912 91.066 139.911C91.6791 139.925 92.289 139.818 92.8609 139.597C93.2184 139.467 93.5198 139.218 93.7143 138.891C93.8908 138.724 93.9104 138.626 93.93 138.626Z" fill="#655F72"/>
<path d="M66.1131 130.288C66.0125 130.149 65.9239 130.001 65.8482 129.847C65.6293 129.389 65.5059 128.892 65.4853 128.385C65.4342 127.574 65.6589 126.768 66.1229 126.1C66.4315 125.656 66.8286 125.28 67.2895 124.996C67.7503 124.713 68.2648 124.527 68.8006 124.452L68.7418 124.541C68.572 123.569 68.6874 122.57 69.0738 121.663C69.4603 120.756 70.1013 119.98 70.9193 119.43C71.5608 119.062 72.2378 118.76 72.9399 118.528C73.2907 118.387 73.6207 118.199 73.9207 117.969C74.2122 117.727 74.4438 117.422 74.5975 117.076C74.9408 116.38 75.0585 115.556 75.4802 114.801C75.9338 114.038 76.6041 113.427 77.4058 113.046C78.2076 112.666 79.1045 112.532 79.9824 112.662L79.8549 112.79C79.7453 111.898 79.8414 110.993 80.1358 110.144C80.4302 109.295 80.9151 108.525 81.5533 107.892C82.1915 107.26 82.966 106.782 83.8176 106.495C84.6691 106.208 85.575 106.12 86.4658 106.238L86.3383 106.355C86.2511 105.377 86.445 104.394 86.8972 103.522C87.3493 102.651 88.0409 101.926 88.8908 101.433C89.7406 100.941 90.7133 100.701 91.6946 100.743C92.6759 100.784 93.625 101.105 94.4304 101.667H94.3127C95.0585 100.983 95.9411 100.464 96.9021 100.147C97.7542 99.8486 98.6409 99.6608 99.5406 99.5876C100.996 99.4504 102.464 99.5733 103.876 99.9505C104.783 100.185 105.647 100.562 106.436 101.069C106.644 101.199 106.841 101.347 107.025 101.51L107.221 101.677C107.221 101.677 106.946 101.461 106.407 101.118C105.614 100.632 104.75 100.275 103.847 100.058C102.444 99.7051 100.99 99.5989 99.5504 99.7445C98.6625 99.8177 97.7884 100.009 96.9512 100.313C96.0169 100.625 95.1606 101.133 94.4402 101.804V101.853H94.3715C93.5976 101.313 92.6853 101.005 91.7422 100.966C90.7991 100.926 89.8644 101.157 89.0482 101.631C88.2319 102.106 87.5681 102.803 87.1349 103.642C86.7018 104.48 86.5173 105.425 86.6032 106.365V106.503H86.4756C85.6174 106.386 84.7438 106.468 83.9224 106.743C83.1011 107.018 82.3539 107.478 81.7386 108.087C81.1234 108.697 80.6564 109.44 80.374 110.259C80.0916 111.077 80.0013 111.95 80.1099 112.809V112.957H79.9627C79.1289 112.832 78.2769 112.959 77.5153 113.321C76.7538 113.682 76.1171 114.262 75.6862 114.987C75.2841 115.683 75.1566 116.507 74.8034 117.243C74.6352 117.624 74.3799 117.96 74.058 118.224C73.7588 118.46 73.4289 118.655 73.0771 118.803C72.3967 119.034 71.7398 119.329 71.1154 119.685C70.5482 120.061 70.0669 120.552 69.703 121.127C69.0338 122.156 68.7749 123.399 68.9772 124.609V124.688H68.8987C68.3787 124.754 67.8782 124.928 67.429 125.198C66.9798 125.468 66.5918 125.829 66.2896 126.257C65.8408 126.907 65.6138 127.684 65.6423 128.474C65.6554 128.971 65.7654 129.461 65.9659 129.916C66.0542 130.141 66.1131 130.288 66.1131 130.288Z" fill="#655F72"/>
<path d="M136.183 133.447C136.141 133.351 136.118 133.247 136.118 133.143C136.118 133.038 136.141 132.934 136.183 132.838C136.279 132.606 136.431 132.401 136.625 132.24C136.897 132.035 137.207 131.886 137.537 131.799C137.939 131.705 138.326 131.553 138.684 131.348C139.084 131.06 139.38 130.65 139.528 130.18C139.707 129.644 139.78 129.077 139.744 128.513C139.744 127.905 139.646 127.257 139.656 126.551C139.819 125.08 140.148 123.632 140.636 122.235C140.845 121.449 140.891 120.628 140.774 119.823C140.72 119.403 140.576 119 140.353 118.642C140.13 118.283 139.831 117.976 139.479 117.743C138.671 117.331 137.814 117.025 136.929 116.831C136.461 116.693 136.02 116.477 135.624 116.193C135.228 115.884 134.917 115.479 134.722 115.016C134.373 114.065 134.13 113.078 133.996 112.074C133.907 111.588 133.745 111.118 133.515 110.681C133.278 110.244 132.902 109.899 132.446 109.7C131.788 109.513 131.109 109.411 130.426 109.396C130.087 109.354 129.756 109.261 129.445 109.121C129.119 108.961 128.842 108.717 128.641 108.415C128.311 107.824 128.063 107.19 127.905 106.532C127.649 105.638 127.121 104.846 126.396 104.264C125.67 103.683 124.782 103.341 123.854 103.285C122.712 103.239 121.595 103.624 120.725 104.364L120.627 104.453L120.568 104.325C120.166 103.42 119.576 102.61 118.837 101.95C118.098 101.291 117.227 100.796 116.282 100.5C115.491 100.26 114.662 100.173 113.839 100.245C113.14 100.299 112.455 100.479 111.819 100.774C110.92 101.206 110.164 101.887 109.641 102.736C109.496 102.953 109.371 103.183 109.269 103.423L109.18 103.599V103.658V103.589L109.259 103.403C109.355 103.16 109.473 102.927 109.612 102.707C110.127 101.851 110.885 101.168 111.789 100.745C112.433 100.434 113.128 100.245 113.839 100.186C114.684 100.097 115.537 100.177 116.35 100.421C117.325 100.719 118.224 101.224 118.986 101.901C119.748 102.578 120.354 103.412 120.764 104.345H120.617C121.521 103.57 122.684 103.163 123.874 103.207C124.512 103.237 125.136 103.399 125.708 103.683C126.281 103.967 126.788 104.366 127.199 104.855C127.628 105.365 127.945 105.96 128.131 106.601C128.285 107.238 128.526 107.852 128.847 108.425C129.041 108.686 129.292 108.9 129.581 109.051C129.87 109.202 130.188 109.286 130.514 109.298C131.218 109.321 131.916 109.43 132.593 109.622C133.086 109.84 133.496 110.211 133.761 110.681C134.004 111.139 134.176 111.632 134.271 112.142C134.407 113.116 134.644 114.072 134.977 114.997C135.145 115.411 135.411 115.778 135.752 116.066C136.129 116.331 136.546 116.533 136.988 116.664C137.892 116.88 138.765 117.209 139.587 117.645C139.991 117.885 140.328 118.222 140.568 118.626C140.786 119.011 140.933 119.433 140.999 119.872C141.114 120.7 141.064 121.544 140.852 122.353C140.351 123.736 140.006 125.17 139.822 126.63C139.822 127.297 139.881 127.944 139.891 128.591C139.927 129.173 139.847 129.757 139.656 130.308C139.497 130.802 139.18 131.229 138.753 131.524C138.382 131.732 137.982 131.884 137.566 131.975C137.243 132.048 136.939 132.189 136.674 132.387C136.483 132.535 136.331 132.727 136.232 132.946C136.167 133.105 136.15 133.279 136.183 133.447Z" fill="#655F72"/>
<path d="M150.594 122.333L150.525 122.196L150.329 121.784L149.593 120.176C149.279 119.489 148.916 118.616 148.406 117.674C147.868 116.574 147.032 115.646 145.994 114.997C145.405 114.673 144.728 114.447 144.032 114.124C143.68 113.969 143.35 113.768 143.051 113.525C142.728 113.264 142.476 112.927 142.315 112.545C141.982 111.779 141.992 110.916 141.727 110.132C141.596 109.746 141.357 109.406 141.04 109.151C140.68 108.903 140.283 108.714 139.863 108.592C139.42 108.457 138.99 108.283 138.578 108.072C138.152 107.83 137.81 107.464 137.597 107.022C137.278 106.101 137.084 105.141 137.019 104.168C136.958 103.69 136.801 103.23 136.558 102.814C136.289 102.412 135.874 102.13 135.4 102.03C134.419 101.814 133.439 102.128 132.33 101.942C131.798 101.837 131.311 101.57 130.937 101.176C130.59 100.789 130.29 100.361 130.045 99.9013C129.805 99.4633 129.543 99.0377 129.26 98.6262C129 98.2116 128.634 97.8732 128.201 97.6454C127.301 97.3411 126.325 97.3411 125.425 97.6454C124.522 97.9152 123.571 97.9821 122.639 97.8415C121.777 97.6095 120.963 97.2241 120.236 96.7037C119.566 96.2219 118.85 95.8079 118.098 95.4679C116.701 94.974 115.19 94.9023 113.753 95.2619C112.564 95.5438 111.454 96.0903 110.506 96.8607C109.799 97.4573 109.187 98.1586 108.692 98.9401C108.383 99.4348 108.12 99.9569 107.907 100.5L107.721 100.921L107.662 101.059C107.662 101.059 107.662 101.01 107.662 100.912C107.662 100.814 107.76 100.666 107.819 100.48C108.024 99.9295 108.277 99.3979 108.574 98.8911C109.066 98.0953 109.674 97.3778 110.379 96.7626C111.34 95.9709 112.466 95.4045 113.674 95.105C115.143 94.7324 116.688 94.8007 118.118 95.3011C118.883 95.6401 119.612 96.0541 120.295 96.537C121.004 97.0442 121.798 97.4196 122.639 97.6454C123.543 97.7755 124.464 97.7051 125.337 97.4394C125.808 97.3278 126.286 97.2523 126.769 97.2138C127.274 97.1795 127.779 97.2705 128.24 97.4786C128.701 97.7002 129.097 98.0383 129.388 98.4595C129.678 98.8749 129.943 99.3072 130.182 99.7542C130.421 100.198 130.711 100.613 131.045 100.99C131.384 101.356 131.831 101.603 132.32 101.696C133.301 101.883 134.361 101.559 135.4 101.785C135.926 101.897 136.387 102.21 136.685 102.658C136.948 103.099 137.119 103.59 137.185 104.099C137.246 105.051 137.431 105.991 137.735 106.895C137.924 107.309 138.24 107.653 138.637 107.876C139.035 108.086 139.452 108.257 139.883 108.386C140.322 108.515 140.737 108.717 141.109 108.984C141.465 109.27 141.728 109.656 141.864 110.092C142.129 110.936 142.129 111.779 142.443 112.505C142.776 113.192 143.358 113.725 144.071 113.996C144.738 114.31 145.425 114.536 146.033 114.879C147.09 115.549 147.937 116.505 148.475 117.635C148.985 118.616 149.328 119.469 149.642 120.166C149.956 120.862 150.162 121.402 150.329 121.784C150.398 121.961 150.456 122.098 150.505 122.206C150.538 122.246 150.568 122.289 150.594 122.333Z" fill="#655F72"/>
<path d="M142.924 114.536H143.061C143.194 114.534 143.325 114.564 143.444 114.624C143.66 114.768 143.837 114.964 143.96 115.193C144.084 115.422 144.149 115.678 144.15 115.938C144.149 116.307 144.093 116.675 143.983 117.027C143.854 117.437 143.782 117.863 143.767 118.292C143.811 118.783 143.983 119.253 144.267 119.656C144.542 120.107 144.895 120.548 145.18 121.078C145.344 121.353 145.443 121.663 145.468 121.983C145.494 122.303 145.445 122.624 145.327 122.922C145.091 123.54 144.621 124.06 144.395 124.687C144.187 125.357 144.247 126.082 144.562 126.708C144.836 127.385 145.229 128.042 145.494 128.787C145.64 129.169 145.714 129.575 145.709 129.984C145.698 130.403 145.598 130.814 145.415 131.191C145.003 131.921 144.524 132.61 143.983 133.25C143.434 133.894 143.147 134.72 143.179 135.565C143.359 136.423 143.642 137.256 144.022 138.047C144.187 138.479 144.27 138.938 144.267 139.4C144.251 139.861 144.127 140.311 143.905 140.715C143.447 141.456 142.903 142.14 142.286 142.755C141.711 143.344 141.264 144.045 140.972 144.815C140.757 145.587 140.492 146.343 140.177 147.08C139.995 147.436 139.738 147.748 139.422 147.993C139.103 148.214 138.748 148.377 138.373 148.473C138.039 148.573 137.712 148.691 137.392 148.826C137.082 148.971 136.794 149.159 136.538 149.385C136.059 149.842 135.646 150.364 135.312 150.935C134.959 151.475 134.645 152.004 134.282 152.475C133.644 153.352 132.739 153.999 131.703 154.319C130.925 154.557 130.105 154.621 129.3 154.505C128.796 154.429 128.306 154.277 127.848 154.054C127.692 153.972 127.542 153.88 127.397 153.78C128.04 154.141 128.752 154.365 129.487 154.436C130.221 154.507 130.963 154.423 131.663 154.192C132.666 153.873 133.539 153.24 134.155 152.387C134.508 151.916 134.822 151.406 135.136 150.837C135.48 150.256 135.899 149.721 136.381 149.248C136.652 149.007 136.956 148.805 137.284 148.65C137.623 148.51 137.971 148.389 138.323 148.287C138.674 148.195 139.006 148.042 139.304 147.836C139.601 147.608 139.842 147.316 140.011 146.982C140.319 146.252 140.578 145.501 140.785 144.736C141.086 143.944 141.547 143.223 142.139 142.618C142.741 142.01 143.271 141.335 143.718 140.607C143.919 140.231 144.036 139.816 144.061 139.39C144.057 138.957 143.974 138.529 143.816 138.125C143.433 137.315 143.146 136.462 142.963 135.585C142.922 135.133 142.993 134.679 143.169 134.261C143.34 133.857 143.557 133.476 143.816 133.123C144.351 132.493 144.824 131.813 145.229 131.092C145.404 130.745 145.501 130.363 145.513 129.974C145.517 129.593 145.451 129.214 145.317 128.856C145.062 128.13 144.67 127.473 144.385 126.777C144.061 126.103 144.005 125.332 144.228 124.619C144.483 123.952 144.954 123.442 145.209 122.863C145.32 122.586 145.366 122.288 145.344 121.99C145.322 121.693 145.232 121.404 145.082 121.147C144.807 120.637 144.464 120.166 144.179 119.734C143.891 119.309 143.722 118.815 143.689 118.302C143.702 117.862 143.778 117.426 143.914 117.007C144.031 116.662 144.097 116.302 144.11 115.938C144.113 115.689 144.055 115.444 143.943 115.222C143.83 115 143.666 114.808 143.463 114.663C143.299 114.57 143.112 114.525 142.924 114.536Z" fill="#655F72"/>
<path d="M66.3291 130.053C66.1342 130.052 65.9401 130.029 65.7504 129.984C65.0308 129.829 64.3672 129.48 63.8313 128.976C63.2954 128.471 62.9076 127.829 62.7098 127.12C62.5592 126.532 62.5391 125.919 62.651 125.322C62.7628 124.726 63.0038 124.161 63.3571 123.668C63.804 123.126 64.3034 122.63 64.848 122.187C65.4416 121.726 65.9215 121.136 66.2506 120.46C66.5134 119.702 66.4854 118.874 66.1721 118.136C65.8975 117.341 65.4855 116.576 65.1913 115.693C64.9127 114.733 64.8378 113.724 64.9711 112.733C65.1045 111.742 65.4432 110.789 65.9657 109.936C66.4882 109.083 67.183 108.348 68.0056 107.779C68.8282 107.21 69.7605 106.819 70.7429 106.63L70.6743 106.797C70.341 106.32 70.132 105.767 70.0662 105.188C70.0006 104.607 70.0438 104.018 70.1936 103.452C70.3538 102.879 70.6127 102.338 70.9587 101.853C71.3141 101.367 71.7407 100.938 72.224 100.578C73.6719 99.5864 75.3308 98.945 77.0694 98.705C78.6891 98.4235 80.3408 98.3773 81.9737 98.5676L81.856 98.6657C81.9017 97.7176 82.2066 96.8001 82.7375 96.0132C83.2685 95.2263 84.0051 94.6001 84.8672 94.2028C85.6755 93.8381 86.5628 93.6829 87.4469 93.7516C88.2729 93.8562 89.0792 94.0809 89.8402 94.4186C90.2031 94.5592 90.582 94.6548 90.9682 94.7031C91.3411 94.7359 91.7169 94.6993 92.0765 94.5952C92.7643 94.3702 93.4229 94.0639 94.0382 93.683C94.6221 93.3332 95.2484 93.0596 95.9018 92.8689C96.7211 92.6393 97.5785 92.5792 98.4217 92.6922C99.2649 92.8051 100.076 93.0889 100.806 93.5261C101.486 93.933 102.082 94.4656 102.562 95.0954C102.865 95.488 103.118 95.9162 103.317 96.3705C103.391 96.525 103.45 96.6858 103.494 96.8512C103.494 96.8512 103.425 96.6844 103.288 96.3803C103.073 95.9427 102.813 95.5285 102.513 95.1445C102.025 94.532 101.43 94.0135 100.757 93.6143C99.8638 93.0891 98.8506 92.802 97.8145 92.7806C97.2021 92.7702 96.5912 92.8462 95.9999 93.0062C95.3586 93.2004 94.7453 93.4774 94.1755 93.8301C93.5603 94.2163 92.9019 94.529 92.2138 94.7619C91.8359 94.8756 91.4396 94.9155 91.0466 94.8796C90.6481 94.829 90.2565 94.7336 89.8794 94.5952C89.1339 94.2638 88.3443 94.0424 87.5352 93.938C86.6804 93.8832 85.8251 94.0381 85.0438 94.3892C84.2198 94.7741 83.5165 95.3768 83.0101 96.1322C82.5036 96.8877 82.2131 97.7671 82.1699 98.6755V98.7932H82.0522C80.4194 98.6011 78.7674 98.6473 77.1479 98.9306C75.4423 99.1681 73.8144 99.7958 72.3908 100.765C71.9307 101.115 71.5213 101.528 71.1745 101.991C70.8456 102.455 70.6 102.973 70.4487 103.521C70.3042 104.058 70.2609 104.616 70.3211 105.169C70.3887 105.713 70.5836 106.234 70.8901 106.689L70.9881 106.826H70.8214C69.8633 107.008 68.9538 107.387 68.1513 107.941C67.3489 108.495 66.6713 109.211 66.1622 110.042C65.6531 110.874 65.3237 111.803 65.1954 112.769C65.067 113.736 65.1425 114.719 65.4169 115.654C65.6523 116.507 66.074 117.282 66.3389 118.087C66.6696 118.866 66.6941 119.742 66.4075 120.539C66.0618 121.231 65.5659 121.838 64.9559 122.314C64.4128 122.745 63.9164 123.231 63.4748 123.766C63.1266 124.239 62.8871 124.783 62.7735 125.36C62.6599 125.936 62.675 126.531 62.8176 127.101C63.036 127.964 63.5495 128.724 64.2693 129.249C64.7106 129.587 65.2188 129.828 65.7602 129.955C66.1133 130.033 66.3389 130.043 66.3291 130.053Z" fill="#263238"/>
<path d="M145.563 109.543C145.563 109.543 145.563 109.543 145.563 109.396C145.563 109.249 145.563 109.161 145.563 108.984C145.563 108.612 145.494 108.082 145.445 107.405C145.396 106.728 145.298 105.875 145.121 104.914C144.942 103.823 144.636 102.756 144.209 101.736C143.687 100.503 142.908 99.3966 141.924 98.4891C141.367 98.001 140.738 97.6008 140.06 97.3023C139.319 97.0279 138.562 96.7954 137.794 96.6059C136.967 96.4083 136.187 96.0482 135.499 95.5466C134.808 94.9989 134.188 94.3661 133.655 93.6633C133.096 92.9669 132.576 92.2313 131.949 91.5741C131.335 90.8915 130.6 90.3294 129.781 89.9165C128.124 89.1518 126.328 88.7378 124.504 88.7002C122.803 88.6181 121.098 88.6607 119.403 88.8277C116.526 89.0906 113.711 89.8298 111.076 91.015C109.307 91.8216 107.679 92.9042 106.25 94.2224C105.995 94.4578 105.77 94.6638 105.583 94.8502L105.132 95.3504L104.857 95.6545L104.749 95.7525L104.838 95.6446L105.103 95.321L105.534 94.8109L106.191 94.1538C107.612 92.8053 109.242 91.6957 111.017 90.8679C113.661 89.6582 116.489 88.9022 119.384 88.6315C121.088 88.4529 122.802 88.4037 124.514 88.4844C126.367 88.5197 128.194 88.9371 129.879 89.7105C130.719 90.1431 131.476 90.7208 132.115 91.4172C132.743 92.0939 133.273 92.8394 133.832 93.526C134.348 94.2183 134.951 94.8414 135.627 95.3798C136.295 95.8636 137.052 96.2133 137.853 96.4097C138.629 96.601 139.392 96.8401 140.139 97.1257C140.835 97.4292 141.477 97.8432 142.042 98.3518C143.041 99.2807 143.827 100.415 144.347 101.677C144.774 102.71 145.077 103.79 145.249 104.894C145.383 105.723 145.475 106.557 145.524 107.395C145.573 108.082 145.592 108.621 145.612 108.984V109.396C145.563 109.494 145.563 109.543 145.563 109.543Z" fill="#263238"/>
<path d="M89.6525 137.321C89.2525 137.467 88.8783 137.676 88.5442 137.939C87.6085 138.654 86.9609 139.681 86.7198 140.833C86.5335 141.623 86.5335 142.446 86.7198 143.236C86.9542 144.142 87.4014 144.98 88.0243 145.678C88.7013 146.455 89.5656 147.046 90.5353 147.395C91.5873 147.763 92.7258 147.804 93.8015 147.513C94.881 147.238 95.8606 146.664 96.6264 145.855C97.3432 145.104 97.8241 144.159 98.0094 143.138C98.1676 142.28 98.1269 141.397 97.8906 140.557C97.6542 139.717 97.2285 138.942 96.646 138.292C96.174 137.822 95.6141 137.449 94.9982 137.194C94.5394 136.991 94.0538 136.856 93.5563 136.792C93.2318 136.735 92.8999 136.735 92.5755 136.792C92.4671 136.806 92.3613 136.835 92.2616 136.88C92.6715 136.823 93.0875 136.823 93.4975 136.88C93.9787 136.962 94.447 137.107 94.8903 137.312C95.4782 137.575 96.0108 137.948 96.4597 138.41C97.0079 139.041 97.4057 139.788 97.6232 140.595C97.8407 141.402 97.8721 142.248 97.7151 143.069C97.5305 144.038 97.0708 144.934 96.391 145.649C95.6557 146.415 94.7218 146.962 93.6936 147.228C92.672 147.5 91.5922 147.459 90.5942 147.11C89.6603 146.784 88.826 146.224 88.1714 145.482C87.5719 144.818 87.1383 144.021 86.9061 143.158C86.7144 142.403 86.6977 141.615 86.8571 140.853C87.0798 139.735 87.6786 138.728 88.554 137.998C89.2013 137.518 89.6525 137.351 89.6525 137.321Z" fill="#E0E0E0"/>
<path d="M170.004 376.257L159.637 401.416L140.902 393.687L151.417 362.643L170.004 376.257Z" fill="#FFBE9D"/>
<path d="M161.717 399.68L155.596 412.647C155.596 412.647 173.36 429.547 171.918 433.549L131.085 416.011L141.021 390.107L161.717 399.68Z" fill="#455A64"/>
<path d="M143.729 405.418C143.286 405.374 142.842 405.493 142.48 405.753C142.119 406.013 141.865 406.396 141.767 406.831C141.7 407.271 141.806 407.721 142.061 408.086C142.317 408.451 142.703 408.704 143.14 408.792C143.609 408.833 144.077 408.704 144.459 408.429C144.841 408.153 145.111 407.75 145.22 407.292C145.279 406.399 144.445 405.33 143.562 405.408" fill="#E0E0E0"/>
<g opacity="0.6">
<path opacity="0.6" d="M131.085 416.012L132.615 412.755L171.202 430.793C171.202 430.793 172.673 432.363 171.918 433.549L131.085 416.012Z" fill="white"/>
</g>
<path d="M156.352 412.716C156.263 412.922 155.224 412.579 153.968 412.804C152.713 413.03 151.83 413.628 151.683 413.471C151.536 413.314 152.32 412.294 153.85 412.049C155.381 411.804 156.469 412.559 156.352 412.716Z" fill="#263238"/>
<path d="M159.861 416.335C159.861 416.541 158.821 416.512 157.782 417.061C156.742 417.61 156.163 418.424 155.967 418.336C155.771 418.248 156.124 417.051 157.429 416.374C158.733 415.698 159.94 416.139 159.861 416.335Z" fill="#263238"/>
<path d="M160.099 422.505C159.903 422.505 160.05 421.357 161.031 420.484C162.012 419.611 163.13 419.572 163.14 419.778C163.149 419.984 162.325 420.318 161.531 421.043C160.736 421.769 160.275 422.564 160.099 422.505Z" fill="#263238"/>
<path d="M158.049 407.753C157.892 407.9 157.068 407.233 155.93 406.821C154.792 406.409 153.743 406.389 153.713 406.173C153.684 405.958 154.832 405.614 156.185 406.115C157.539 406.615 158.216 407.635 158.049 407.753Z" fill="#263238"/>
<path d="M171.467 389.627L196.626 311.325C196.626 311.325 195.42 298.574 192.889 294.582C190.358 290.59 117.863 269.982 117.863 269.982C117.863 269.982 99.4625 266.353 87.4569 271.247C75.4512 276.142 63.3769 282.037 64.8972 290.531C65.1562 291.822 65.5237 293.088 65.9958 294.317C68.2815 300.235 72.3295 305.307 77.5923 308.849C82.8551 312.391 89.0787 314.231 95.4214 314.121L104.916 314.788L153.508 321.987C154.021 322.063 154.512 322.245 154.949 322.523C155.387 322.801 155.761 323.168 156.048 323.6C156.335 324.032 156.528 324.519 156.614 325.031C156.7 325.542 156.678 326.066 156.548 326.568L143.13 379.102C143.13 379.102 160.619 386.694 171.467 389.627Z" fill="#AB6D29"/>
<path d="M194.301 335.258L196.096 362.408L175.881 363.742L171.614 331.246L194.301 335.258Z" fill="#FFBE9D"/>
<path d="M195.949 358.788L197.43 374.266C197.43 374.266 220.833 381.593 221.314 385.82L176.95 388.116L174.439 360.475L195.949 358.788Z" fill="#455A64"/>
<path d="M197.273 365.507C197.318 365.241 197.298 364.969 197.214 364.712C197.039 363.993 196.704 363.322 196.233 362.751C196.076 362.541 195.891 362.353 195.684 362.192C195.545 362.089 195.383 362.021 195.213 361.994C195.042 361.966 194.867 361.98 194.703 362.035C194.605 362.067 194.516 362.121 194.441 362.192C194.366 362.263 194.308 362.35 194.272 362.447C194.222 362.626 194.239 362.818 194.321 362.986C194.463 363.265 194.631 363.531 194.821 363.781C195.184 364.291 195.498 364.761 195.959 365.37C196.108 365.536 196.296 365.663 196.507 365.738C196.718 365.814 196.944 365.835 197.165 365.801C197.577 365.722 197.966 365.551 198.303 365.301C198.897 364.87 199.442 364.377 199.931 363.83C200.157 363.575 200.367 363.306 200.559 363.025C200.776 362.758 200.933 362.447 201.02 362.113C201.069 361.911 201.04 361.697 200.938 361.515C200.836 361.332 200.669 361.196 200.471 361.132C200.285 361.092 200.094 361.095 199.91 361.141C199.726 361.187 199.556 361.275 199.411 361.397C199.006 361.749 198.644 362.148 198.332 362.584C197.912 363.187 197.581 363.848 197.351 364.546C197.194 365.036 197.155 365.321 197.194 365.33C197.599 364.427 198.099 363.569 198.685 362.77C198.988 362.371 199.337 362.009 199.725 361.691C199.812 361.621 199.913 361.569 200.021 361.538C200.129 361.508 200.242 361.5 200.353 361.515C200.443 361.556 200.516 361.628 200.557 361.718C200.599 361.808 200.606 361.91 200.578 362.005C200.497 362.279 200.36 362.532 200.176 362.751C199.985 363.014 199.778 363.266 199.558 363.506C199.093 364.021 198.573 364.485 198.009 364.889C197.75 365.09 197.447 365.228 197.126 365.291C196.992 365.316 196.854 365.305 196.726 365.259C196.599 365.212 196.486 365.132 196.4 365.026C196.008 364.565 195.625 363.987 195.272 363.506C195.096 363.281 194.936 363.045 194.791 362.8C194.693 362.571 194.732 362.424 194.909 362.358C195.311 362.192 195.723 362.584 196.008 362.917C196.601 363.686 197.031 364.567 197.273 365.507Z" fill="#263238"/>
<path d="M183.61 373.05C183.189 373.202 182.838 373.504 182.626 373.899C182.414 374.294 182.356 374.753 182.462 375.188C182.598 375.612 182.892 375.968 183.283 376.181C183.673 376.395 184.131 376.45 184.562 376.336C185.011 376.167 185.384 375.84 185.608 375.415C185.832 374.99 185.892 374.498 185.778 374.031C185.593 373.598 185.248 373.253 184.814 373.07C184.38 372.887 183.892 372.88 183.453 373.05" fill="#E0E0E0"/>
<g opacity="0.6">
<path opacity="0.6" d="M176.949 388.116L176.891 384.507L219.469 383.663C219.469 383.663 221.49 384.418 221.343 385.821L176.949 388.116Z" fill="white"/>
</g>
<path d="M198.135 374.031C198.135 374.247 197.066 374.403 196.036 375.159C195.006 375.914 194.476 376.846 194.28 376.767C194.084 376.689 194.329 375.424 195.594 374.541C196.86 373.658 198.174 373.805 198.135 374.031Z" fill="#263238"/>
<path d="M202.893 375.689C202.952 375.895 202.03 376.316 201.343 377.268C200.656 378.219 200.49 379.23 200.274 379.23C200.058 379.23 199.862 378.013 200.735 376.846C201.608 375.679 202.873 375.483 202.893 375.689Z" fill="#263238"/>
<path d="M205.825 381.122C205.629 381.181 205.276 380.141 205.767 378.896C206.257 377.65 207.248 377.16 207.356 377.336C207.463 377.513 206.855 378.17 206.463 379.18C206.071 380.19 206.041 381.093 205.825 381.122Z" fill="#263238"/>
<path d="M197.479 368.793C197.39 368.989 196.39 368.744 195.164 368.891C193.938 369.038 193.006 369.479 192.888 369.293C192.771 369.106 193.644 368.312 195.085 368.145C196.527 367.978 197.547 368.616 197.479 368.793Z" fill="#263238"/>
<path d="M179.342 260.252C179.342 260.252 191.436 258.78 193.329 271.884C195.222 284.989 204.118 345.704 204.118 345.704L170.887 349.862L163.893 287.304L117.891 269.942C117.891 269.942 171.181 258.947 179.342 260.252Z" fill="#AB6D29"/>
<path d="M128.623 244.617C128.623 244.617 136.843 264.94 135.489 267.304C134.136 269.668 115.695 279.869 115.695 279.869L69.0558 300.055C65.5218 294.182 63.5655 287.495 63.3767 280.643C62.8863 268.756 78.472 246.696 78.472 246.696L128.623 244.617Z" fill="#AB6D29"/>
<path d="M115.578 269.079L115.804 269.187L116.49 269.471L119.168 270.531L129.182 274.405L163.777 287.627L163.61 287.421C164.297 293.6 165.042 300.27 165.807 307.175C167.632 323.32 169.319 338.2 170.643 349.98V350.196H170.849L191.447 347.528L197.116 346.753L198.597 346.537L199.098 346.449C198.928 346.436 198.757 346.436 198.588 346.449L197.097 346.606L191.418 347.253L170.82 349.745L171.055 349.931C169.75 338.161 168.112 323.262 166.327 307.117C165.552 300.251 164.807 293.542 164.111 287.362V287.205L163.963 287.146L129.31 274.111L119.236 270.364L116.529 269.383L115.833 269.148C115.753 269.109 115.667 269.085 115.578 269.079Z" fill="#92591B"/>
<path d="M78.0003 272.649C78.4517 272.559 78.8923 272.421 79.3147 272.238L82.7869 270.933C86.6111 269.455 90.547 268.284 94.5572 267.431C98.5785 266.596 102.716 266.476 106.779 267.078C108.45 267.396 110.103 267.802 111.732 268.294C111.337 268.054 110.916 267.86 110.476 267.716C109.291 267.293 108.075 266.965 106.837 266.735C102.732 266.019 98.5285 266.089 94.4493 266.941C90.3964 267.793 86.4327 269.025 82.6104 270.619C81.1391 271.208 79.962 271.718 79.1479 272.071C78.7507 272.233 78.367 272.427 78.0003 272.649Z" fill="#92591B"/>
<path d="M84.2491 261.497C85.6241 261.355 87.006 261.289 88.3883 261.301C89.6634 261.301 91.1935 261.468 92.8904 261.595C94.5873 261.723 96.4411 261.88 98.3734 262.164C101.687 262.55 104.891 263.591 107.799 265.225C108.963 265.964 110.074 266.784 111.125 267.677C110.925 267.356 110.681 267.065 110.399 266.814C109.67 266.09 108.864 265.448 107.996 264.901C105.083 263.146 101.829 262.033 98.4518 261.635C96.4901 261.35 94.6167 261.213 92.9199 261.115C91.223 261.017 89.683 260.919 88.3883 260.928C87.3624 260.927 86.3384 261.015 85.328 261.193C84.9543 261.235 84.5898 261.338 84.2491 261.497Z" fill="#92591B"/>
<path d="M159.118 405.173C159.288 404.926 159.401 404.645 159.451 404.349C159.653 403.557 159.687 402.732 159.549 401.926C159.506 401.647 159.43 401.374 159.324 401.112C159.255 400.943 159.141 400.797 158.993 400.689C158.846 400.582 158.672 400.518 158.49 400.504C158.383 400.495 158.275 400.511 158.174 400.55C158.074 400.589 157.984 400.65 157.911 400.73C157.779 400.888 157.7 401.083 157.686 401.289C157.682 401.617 157.701 401.944 157.745 402.269C157.833 402.936 157.852 403.594 158 404.369C158.04 404.595 158.141 404.807 158.293 404.98C158.446 405.153 158.643 405.281 158.863 405.349C159.278 405.452 159.713 405.452 160.128 405.349C160.877 405.187 161.605 404.937 162.296 404.604C162.632 404.449 162.959 404.275 163.277 404.084C163.606 403.909 163.897 403.669 164.13 403.378C164.262 403.206 164.333 402.996 164.333 402.78C164.333 402.563 164.262 402.353 164.13 402.181C163.983 402.057 163.807 401.972 163.618 401.934C163.43 401.896 163.234 401.907 163.051 401.965C162.507 402.141 161.987 402.381 161.501 402.681C160.806 403.094 160.174 403.606 159.628 404.202C159.411 404.404 159.232 404.643 159.098 404.908C159.901 404.195 160.767 403.558 161.688 403.005C162.148 402.751 162.635 402.548 163.139 402.397C163.394 402.348 163.679 402.397 163.787 402.505C163.855 402.588 163.893 402.692 163.893 402.799C163.893 402.907 163.855 403.011 163.787 403.093C163.584 403.326 163.337 403.516 163.061 403.652C162.766 403.829 162.462 403.986 162.149 404.143C161.486 404.446 160.792 404.676 160.079 404.83C159.757 404.913 159.42 404.913 159.098 404.83C158.964 404.789 158.844 404.711 158.752 404.605C158.66 404.499 158.6 404.37 158.578 404.231C158.451 403.594 158.402 402.848 158.313 402.201C158.258 401.896 158.229 401.588 158.225 401.279C158.225 401.014 158.362 400.886 158.549 400.896C158.99 400.896 159.167 401.485 159.255 401.946C159.417 403.02 159.37 404.116 159.118 405.173Z" fill="#263238"/>
<path d="M76.9023 174.672C76.9023 174.672 76.765 167.051 77.5105 166.158L93.0963 160.724L104.317 164.128C106.956 165.285 112.007 172.798 114.852 172.406C118.039 171.975 118.638 163.578 119.952 161.185L125.7 162.666C125.7 162.666 135.508 188.806 135.665 196.211C135.822 203.617 131.899 213.582 132.546 229.099C132.88 237.211 133.674 244.45 128.623 244.666L78.5109 246.745C78.5109 246.745 67.0644 244.087 66.2895 237.299C65.5146 230.512 76.9023 174.672 76.9023 174.672Z" fill="#FD3E72"/>
<path d="M54.5395 226.559L62.3863 201.714C62.3863 201.714 67.1042 170.189 78.08 165.815C82.7783 163.941 93.0478 164.275 96.1571 170.65C99.2664 177.026 95.4313 181.665 94.676 184.824C93.9208 187.982 83.2981 210.061 83.2981 210.061C81.3018 214.094 79.559 218.248 78.08 222.498L120.502 244.95L115.156 258.937L62.1313 239.653C60.3507 239.031 58.7432 237.996 57.4405 236.632C56.1378 235.267 55.1772 233.614 54.6375 231.807C54.1288 230.099 54.0949 228.285 54.5395 226.559Z" fill="#FD3E72"/>
<path d="M153.281 253.69L142.374 249.021L121.433 248.227L119.677 247.118L115.155 258.937C115.155 258.937 120.737 261.331 123.62 261.439L141.148 260.183L150.368 260.762L153.281 253.69Z" fill="#FFBE9D"/>
<path d="M211.759 209.993L151.594 212.935C149.632 213.014 147.817 214.034 147.602 215.976L142.844 260.114L111.84 261.399C111.379 261.447 110.955 261.668 110.652 262.018C110.35 262.368 110.193 262.821 110.213 263.283C110.233 263.745 110.429 264.182 110.76 264.505C111.092 264.828 111.534 265.011 111.997 265.019L142.452 263.753L148.229 263.508L211.004 260.909L215.849 214.328C215.91 213.765 215.847 213.196 215.666 212.659C215.485 212.122 215.191 211.631 214.802 211.219C214.413 210.807 213.94 210.484 213.415 210.273C212.89 210.061 212.325 209.966 211.759 209.993Z" fill="#5B5863"/>
<path d="M211.76 209.992C212.087 209.955 212.419 209.972 212.741 210.041C213.675 210.214 214.515 210.719 215.105 211.464C215.537 212.014 215.82 212.666 215.929 213.357C215.982 214.186 215.939 215.019 215.801 215.838C215.624 217.623 215.419 219.683 215.193 221.988C214.212 231.238 212.888 244.548 211.269 260.967V261.124H211.113L114.959 265.156L112.37 265.263C111.902 265.324 111.426 265.252 110.997 265.057C110.553 264.839 110.204 264.466 110.016 264.008C109.828 263.555 109.809 263.049 109.962 262.583C110.115 262.117 110.43 261.721 110.85 261.468C111.273 261.263 111.745 261.181 112.213 261.232L113.488 261.173L123.542 260.761L142.845 259.967L142.619 260.173C144.336 244.371 145.935 229.619 147.377 216.397C147.39 215.519 147.741 214.679 148.357 214.053C148.991 213.474 149.777 213.09 150.623 212.945C151.426 212.83 152.235 212.768 153.046 212.758L155.41 212.641L164.463 212.209L180.559 211.434L203.481 210.365L209.612 210.1L211.201 210.041H211.74H211.201L209.622 210.149L203.491 210.483L180.579 211.689L164.483 212.523L155.42 212.984L153.066 213.102C152.275 213.118 151.485 213.18 150.702 213.288C149.936 213.412 149.221 213.753 148.642 214.269C148.078 214.823 147.754 215.577 147.74 216.368C146.327 229.6 144.748 244.352 143.061 260.153V260.359H142.865L123.561 261.163L113.508 261.585L112.233 261.634C111.844 261.608 111.456 261.693 111.114 261.879C110.791 262.076 110.549 262.382 110.434 262.743C110.318 263.103 110.337 263.493 110.487 263.841C110.626 264.19 110.888 264.475 111.222 264.646C111.58 264.801 111.975 264.852 112.36 264.793L114.95 264.685L211.005 260.761L210.828 260.928C212.564 244.538 213.986 231.208 214.967 221.969C215.213 219.664 215.438 217.604 215.624 215.828C215.762 215.019 215.811 214.197 215.772 213.376C215.677 212.705 215.41 212.07 214.997 211.532C214.424 210.802 213.617 210.293 212.711 210.09C212.397 210.035 212.079 210.002 211.76 209.992Z" fill="#3D3946"/>
<path d="M179.039 236.25C179.07 236.994 179.322 237.712 179.761 238.313C180.201 238.914 180.809 239.372 181.508 239.628C182.208 239.883 182.967 239.926 183.691 239.75C184.414 239.575 185.07 239.188 185.574 238.64C186.078 238.092 186.408 237.407 186.523 236.671C186.638 235.936 186.532 235.182 186.219 234.507C185.906 233.831 185.4 233.263 184.764 232.875C184.129 232.487 183.392 232.297 182.648 232.327C182.154 232.347 181.668 232.465 181.218 232.673C180.769 232.881 180.365 233.176 180.03 233.54C179.695 233.905 179.435 234.331 179.265 234.796C179.094 235.262 179.018 235.756 179.039 236.25Z" fill="white"/>
<path d="M145.416 263.263C145.504 263.263 146.956 252.022 148.662 238.134C150.369 224.245 151.684 212.984 151.605 212.975C151.527 212.965 150.065 224.215 148.358 238.104C146.652 251.993 145.328 263.253 145.416 263.263Z" fill="#3D3946"/>
<path d="M66.4354 241.213L66.6708 241.311L67.3574 241.586L70.0351 242.596L80.1085 246.333L115.076 259.153L115.302 259.241L115.38 259.015C117.087 254.572 118.882 249.874 120.745 245.028L120.824 244.822L120.628 244.715C117.94 243.292 115.105 241.772 112.241 240.271L78.1958 222.292L78.2939 222.567L88.6223 197.182C89.8484 194.132 90.8194 191.729 91.4864 190.052L92.222 188.168L92.4084 187.688C92.4293 187.634 92.4457 187.578 92.4574 187.521C92.4574 187.521 92.4574 187.57 92.3692 187.668C92.2809 187.766 92.2514 187.953 92.1632 188.149C91.967 188.59 91.7022 189.208 91.3589 190.003L88.4163 197.084C85.8759 203.224 82.2565 211.944 77.9211 222.41L77.8427 222.596L78.0193 222.694L111.996 240.732L120.382 245.176L120.265 244.862C118.421 249.707 116.626 254.405 114.929 258.849L115.243 258.711L80.2065 246.058L70.0351 242.449L67.3279 241.468L66.6315 241.233C66.5673 241.217 66.5013 241.211 66.4354 241.213Z" fill="#E82B5F"/>
<path d="M94.6751 154.771L110.683 162.147L114.812 171.396L115.44 161.951L120.275 158.116L122.845 161.794L118.186 175.143L110.83 175.447L93.1057 161.205L92.5172 160.892L94.6751 154.771Z" fill="#FD3E72"/>
<path d="M122.845 161.793C122.351 162.697 121.922 163.634 121.56 164.599C120.805 166.335 119.854 168.807 118.618 171.396L118.529 171.563H118.981C117.853 168.973 117.088 166.502 116.47 164.697C116.195 163.729 115.844 162.784 115.42 161.872C115.564 162.873 115.8 163.858 116.126 164.814C116.777 167.151 117.573 169.444 118.51 171.68L118.726 172.161L118.961 171.71L119.069 171.514C120.324 168.856 121.197 166.394 121.874 164.648C122.283 163.727 122.608 162.772 122.845 161.793Z" fill="#E82B5F"/>
<path d="M92.5173 160.891C92.8153 161.186 93.1441 161.449 93.4982 161.675L96.2642 163.637C98.6084 165.295 101.875 167.56 105.494 170.052L109.79 172.994L110.133 173.23V172.818C110.339 169.699 110.506 167.031 110.594 165.138C110.634 164.261 110.663 163.526 110.683 162.931C110.723 162.664 110.723 162.393 110.683 162.127C110.606 162.382 110.56 162.645 110.545 162.911C110.487 163.519 110.408 164.245 110.32 165.118C110.143 167.001 109.918 169.669 109.672 172.779L110.045 172.602L105.769 169.659C102.149 167.178 98.8536 164.951 96.4604 163.362L93.6061 161.509C93.2653 161.266 92.9004 161.059 92.5173 160.891Z" fill="#E82B5F"/>
<path d="M131.831 242.597C131.831 242.597 131.919 242.459 132.057 242.175C132.225 241.744 132.346 241.297 132.419 240.841C132.689 239.151 132.82 237.442 132.812 235.731C132.871 233.543 132.812 230.905 132.684 227.933C132.557 224.961 132.449 221.655 132.312 218.124L132.243 218.301C135.757 214.503 137.862 209.614 138.206 204.451C138.309 202.36 138.174 200.264 137.804 198.203C137.111 194.757 136.217 191.354 135.127 188.012C134.43 185.756 133.854 183.464 133.4 181.146C133.086 179.508 133.018 178.576 132.969 178.586C132.945 178.811 132.945 179.038 132.969 179.263C132.969 179.704 133.057 180.352 133.185 181.225C133.565 183.564 134.093 185.876 134.764 188.149C135.794 191.493 136.649 194.888 137.324 198.321C137.675 200.347 137.796 202.407 137.687 204.461C137.539 206.659 137.059 208.822 136.264 210.876C135.258 213.509 133.764 215.928 131.86 218.007L131.792 218.075V218.183C131.949 221.714 132.096 225.049 132.233 227.992C132.37 230.934 132.488 233.583 132.468 235.76C132.488 237.465 132.386 239.17 132.164 240.86C132.105 241.448 131.994 242.029 131.831 242.597Z" fill="#E82B5F"/>
<path d="M117.304 242.4C117.345 242.16 117.372 241.917 117.383 241.674C117.383 241.154 117.461 240.467 117.51 239.604C117.628 237.809 117.736 235.2 117.824 231.983C118.011 225.539 118.05 216.633 117.638 206.805C117.226 196.976 116.432 188.1 115.676 181.695C115.313 178.497 114.99 175.908 114.695 174.122L114.391 172.072C114.366 171.83 114.317 171.59 114.244 171.356C114.229 171.598 114.229 171.841 114.244 172.082C114.303 172.602 114.372 173.289 114.46 174.152C114.656 175.996 114.921 178.576 115.254 181.734C115.892 188.139 116.618 197.006 117.04 206.824C117.461 216.642 117.471 225.539 117.373 231.973C117.314 235.151 117.265 237.741 117.226 239.594C117.226 240.458 117.226 241.144 117.226 241.674C117.227 241.918 117.253 242.161 117.304 242.4Z" fill="#E82B5F"/>
<path d="M78.8651 166.305C78.8651 166.404 80.1794 166.227 82.2294 166.551C84.9125 166.946 87.4299 168.09 89.4926 169.851C91.5554 171.612 93.08 173.919 93.8918 176.506C94.5293 178.468 94.5587 179.802 94.6568 179.792C94.7029 179.487 94.7029 179.176 94.6568 178.87C94.5923 178.034 94.4445 177.206 94.2155 176.398C93.4682 173.698 91.9305 171.283 89.7998 169.463C87.6691 167.644 85.0429 166.503 82.2589 166.188C81.4241 166.101 80.5827 166.101 79.7479 166.188C79.4494 166.183 79.1519 166.223 78.8651 166.305Z" fill="#E82B5F"/>
<path d="M69.6328 226.186C70.8499 225.142 72.1986 224.261 73.6445 223.567C75.155 223.027 76.7326 222.697 78.333 222.587C77.8763 222.402 77.3813 222.331 76.8911 222.381C75.7091 222.395 74.5406 222.635 73.4483 223.087C72.3498 223.544 71.3505 224.21 70.5057 225.049C69.8682 225.666 69.5838 226.147 69.6328 226.186Z" fill="#E82B5F"/>
<path d="M88.8395 215.691C88.8395 215.691 89.0749 215.858 89.5261 216.064C90.1623 216.349 90.8179 216.588 91.4879 216.78C96.0045 218.089 100.825 217.893 105.22 216.221C105.893 215.976 106.549 215.684 107.182 215.348C107.623 215.103 107.858 214.956 107.839 214.926C107.819 214.897 106.809 215.328 105.141 215.907C100.767 217.355 96.0733 217.545 91.5957 216.456C89.8989 216.015 88.8788 215.613 88.8395 215.691Z" fill="#E82B5F"/>
</svg>
