<svg width="360" height="568" viewBox="0 0 360 568" fill="none" xmlns="http://www.w3.org/2000/svg">
<g filter="url(#filter0_d)">
<path d="M4 0H356V560H4V0Z" fill="#F9F8F4"/>
<path d="M5 523C5 500.909 22.9086 483 45 483H315C337.091 483 355 500.909 355 523V560H5V523Z" fill="#F5F3ED"/>
<path d="M211.731 435.054L208.751 443.243H208.73L205.771 435.054H204.451L208.197 445H209.298L213.044 435.054H211.731Z" fill="#AFADB2"/>
<path d="M214.712 445H215.929V441.206H217.979C218.506 441.206 218.978 441.145 219.401 441.021C219.825 440.898 220.188 440.714 220.502 440.468C220.816 440.222 221.056 439.9 221.227 439.504C221.391 439.107 221.479 438.656 221.479 438.137C221.479 437.686 221.411 437.282 221.288 436.913C221.158 436.544 220.967 436.223 220.707 435.942C220.447 435.662 220.105 435.443 219.682 435.286C219.251 435.136 218.752 435.054 218.191 435.054H214.712V445ZM215.929 440.085V436.175H218.062C218.731 436.175 219.258 436.346 219.641 436.681C220.023 437.016 220.215 437.494 220.215 438.109C220.215 438.403 220.167 438.67 220.078 438.902C219.982 439.135 219.846 439.347 219.668 439.524C219.483 439.702 219.237 439.846 218.937 439.941C218.629 440.037 218.273 440.085 217.87 440.085H215.929Z" fill="#AFADB2"/>
<path d="M230.202 435.054V442.977H230.175L224.569 435.054H223.366V445H224.583V437.159H224.61L230.182 445H231.419V435.054H230.202Z" fill="#AFADB2"/>
<path d="M237.872 445H239.096V435.054H237.872V445Z" fill="#AFADB2"/>
<path d="M241.7 445H242.917V441.206H244.968C245.494 441.206 245.966 441.145 246.39 441.021C246.813 440.898 247.176 440.714 247.49 440.468C247.805 440.222 248.044 439.9 248.215 439.504C248.379 439.107 248.468 438.656 248.468 438.137C248.468 437.686 248.399 437.282 248.276 436.913C248.146 436.544 247.955 436.223 247.695 435.942C247.436 435.662 247.094 435.443 246.67 435.286C246.239 435.136 245.74 435.054 245.18 435.054H241.7V445ZM242.917 440.085V436.175H245.05C245.72 436.175 246.246 436.346 246.629 436.681C247.012 437.016 247.203 437.494 247.203 438.109C247.203 438.403 247.155 438.67 247.066 438.902C246.971 439.135 246.834 439.347 246.656 439.524C246.472 439.702 246.226 439.846 245.925 439.941C245.617 440.037 245.262 440.085 244.858 440.085H242.917Z" fill="#AFADB2"/>
<path d="M250.662 439.702C250.881 439.702 251.072 439.627 251.229 439.47C251.387 439.319 251.469 439.128 251.469 438.909C251.469 438.69 251.387 438.499 251.229 438.342C251.072 438.191 250.881 438.109 250.662 438.109C250.43 438.109 250.238 438.191 250.081 438.342C249.924 438.499 249.849 438.69 249.849 438.909C249.849 439.06 249.883 439.189 249.951 439.312C250.02 439.436 250.122 439.531 250.245 439.6C250.368 439.668 250.512 439.702 250.662 439.702ZM250.662 445.089C250.881 445.089 251.072 445.014 251.229 444.856C251.387 444.706 251.469 444.515 251.469 444.296C251.469 444.077 251.387 443.886 251.229 443.729C251.072 443.578 250.881 443.496 250.662 443.496C250.43 443.496 250.238 443.578 250.081 443.729C249.924 443.886 249.849 444.077 249.849 444.296C249.849 444.515 249.924 444.706 250.081 444.856C250.238 445.014 250.43 445.089 250.662 445.089Z" fill="#AFADB2"/>
<path d="M204.793 462.24H208.942V461.126H204.793V462.24Z" fill="#5B5863"/>
<path d="M210.535 462.24H214.685V461.126H210.535V462.24Z" fill="#5B5863"/>
<path d="M45.333 445H46.5566V435.054H45.333V445Z" fill="#AFADB2"/>
<path d="M49.1611 445H50.3779V441.206H52.4287C52.9551 441.206 53.4268 441.145 53.8506 441.021C54.2744 440.898 54.6367 440.714 54.9512 440.468C55.2656 440.222 55.5049 439.9 55.6758 439.504C55.8398 439.107 55.9287 438.656 55.9287 438.137C55.9287 437.686 55.8604 437.282 55.7373 436.913C55.6074 436.544 55.416 436.223 55.1562 435.942C54.8965 435.662 54.5547 435.443 54.1309 435.286C53.7002 435.136 53.2012 435.054 52.6406 435.054H49.1611V445ZM50.3779 440.085V436.175H52.5107C53.1807 436.175 53.707 436.346 54.0898 436.681C54.4727 437.016 54.6641 437.494 54.6641 438.109C54.6641 438.403 54.6162 438.67 54.5273 438.902C54.4316 439.135 54.2949 439.347 54.1172 439.524C53.9326 439.702 53.6865 439.846 53.3857 439.941C53.0781 440.037 52.7227 440.085 52.3193 440.085H50.3779Z" fill="#AFADB2"/>
<path d="M58.123 439.702C58.3418 439.702 58.5332 439.627 58.6904 439.47C58.8477 439.319 58.9297 439.128 58.9297 438.909C58.9297 438.69 58.8477 438.499 58.6904 438.342C58.5332 438.191 58.3418 438.109 58.123 438.109C57.8906 438.109 57.6992 438.191 57.542 438.342C57.3848 438.499 57.3096 438.69 57.3096 438.909C57.3096 439.06 57.3438 439.189 57.4121 439.312C57.4805 439.436 57.583 439.531 57.7061 439.6C57.8291 439.668 57.9727 439.702 58.123 439.702ZM58.123 445.089C58.3418 445.089 58.5332 445.014 58.6904 444.856C58.8477 444.706 58.9297 444.515 58.9297 444.296C58.9297 444.077 58.8477 443.886 58.6904 443.729C58.5332 443.578 58.3418 443.496 58.123 443.496C57.8906 443.496 57.6992 443.578 57.542 443.729C57.3848 443.886 57.3096 444.077 57.3096 444.296C57.3096 444.515 57.3848 444.706 57.542 444.856C57.6992 445.014 57.8906 445.089 58.123 445.089Z" fill="#AFADB2"/>
<path d="M44.793 462.24H48.9424V461.126H44.793V462.24Z" fill="#5B5863"/>
<path d="M50.5352 462.24H54.6846V461.126H50.5352V462.24Z" fill="#5B5863"/>
<path d="M66.0815 527.083C66.6021 527.083 67.0781 526.975 67.5034 526.746C67.9224 526.518 68.2778 526.207 68.5571 525.8C68.8364 525.4 69.0522 524.924 69.2046 524.366C69.3569 523.813 69.4331 523.204 69.4331 522.544C69.4331 521.827 69.3442 521.179 69.1792 520.602C69.0142 520.024 68.7793 519.548 68.481 519.167C68.1826 518.786 67.8271 518.5 67.4209 518.297C67.0146 518.094 66.564 517.993 66.0815 517.993C65.561 517.993 65.085 518.107 64.6597 518.335C64.2344 518.564 63.8853 518.875 63.606 519.275C63.3267 519.681 63.1108 520.157 62.9585 520.716C62.8062 521.274 62.73 521.884 62.73 522.544C62.73 523.261 62.8125 523.909 62.9775 524.48C63.1426 525.058 63.3774 525.534 63.6758 525.915C63.9741 526.295 64.3296 526.581 64.7358 526.784C65.1421 526.987 65.5928 527.083 66.0815 527.083ZM66.0879 526.067C65.4087 526.067 64.8628 525.756 64.4502 525.134C64.0376 524.512 63.8345 523.648 63.8345 522.544C63.8345 521.458 64.0312 520.595 64.4312 519.96C64.8247 519.326 65.377 519.008 66.0879 519.008C66.7607 519.008 67.3003 519.319 67.7129 519.941C68.1191 520.563 68.3286 521.427 68.3286 522.544C68.3286 523.255 68.2397 523.877 68.0684 524.404C67.8906 524.931 67.6367 525.337 67.3003 525.629C66.9575 525.921 66.5576 526.067 66.0879 526.067Z" fill="#5B5863"/>
<path d="M77.3931 522.88L80.3955 527H81.811L78.1421 521.973L81.7158 517.764H80.2686L76.0728 522.836H76.0474V517.764H74.9175V527H76.0474V524.442L77.374 522.88H77.3931Z" fill="#5B5863"/>
<path d="M87.8921 522.144V522.125C88.3745 521.96 88.7363 521.687 88.9902 521.306C89.2378 520.925 89.3647 520.5 89.3647 520.018C89.3647 519.637 89.2949 519.3 89.1553 519.008C89.0156 518.716 88.8125 518.481 88.5522 518.304C88.2856 518.126 87.9746 517.986 87.6128 517.897C87.251 517.809 86.8447 517.764 86.3877 517.764H83.3726V527H86.7368C87.2446 527 87.7017 526.943 88.0952 526.816C88.4888 526.695 88.8125 526.524 89.0664 526.302C89.314 526.08 89.5044 525.819 89.6313 525.515C89.7583 525.21 89.8218 524.874 89.8218 524.499C89.8218 524.169 89.771 523.871 89.6694 523.598C89.5679 523.325 89.4282 523.09 89.2505 522.899C89.0728 522.709 88.8696 522.544 88.6411 522.417C88.4126 522.29 88.1587 522.201 87.8921 522.144ZM84.5024 518.805H86.1528C86.5083 518.805 86.8193 518.843 87.0859 518.907C87.3525 518.977 87.562 519.072 87.7271 519.199C87.8857 519.326 88.0063 519.478 88.0825 519.649C88.1587 519.821 88.2031 520.018 88.2031 520.24C88.2031 520.456 88.165 520.646 88.0952 520.817C88.0254 520.995 87.9302 521.135 87.8159 521.243C87.6953 521.357 87.5557 521.446 87.397 521.522C87.2383 521.598 87.0732 521.655 86.9019 521.687C86.7305 521.719 86.5527 521.731 86.375 521.731H84.5024V518.805ZM86.4194 525.959H84.5024V522.747H86.4702C86.9336 522.747 87.3271 522.817 87.6572 522.95C87.981 523.083 88.2222 523.274 88.3872 523.515C88.5522 523.763 88.6348 524.055 88.6348 524.397C88.6348 524.912 88.4316 525.299 88.0381 525.565C87.6382 525.832 87.0986 525.959 86.4194 525.959Z" fill="#5B5863"/>
<path d="M54.6998 524.3L53.2998 522.9L48.9998 527.2V515H46.9998V527.2L42.6998 522.9L41.2998 524.3L47.9998 531L54.6998 524.3Z" fill="#AFADB2"/>
<path d="M175.782 527.083C176.302 527.083 176.778 526.975 177.204 526.746C177.623 526.518 177.978 526.207 178.257 525.8C178.537 525.4 178.752 524.924 178.905 524.366C179.057 523.813 179.133 523.204 179.133 522.544C179.133 521.827 179.044 521.179 178.879 520.602C178.714 520.024 178.479 519.548 178.181 519.167C177.883 518.786 177.527 518.5 177.121 518.297C176.715 518.094 176.264 517.993 175.782 517.993C175.261 517.993 174.785 518.107 174.36 518.335C173.935 518.564 173.585 518.875 173.306 519.275C173.027 519.681 172.811 520.157 172.659 520.716C172.506 521.274 172.43 521.884 172.43 522.544C172.43 523.261 172.513 523.909 172.678 524.48C172.843 525.058 173.078 525.534 173.376 525.915C173.674 526.295 174.03 526.581 174.436 526.784C174.842 526.987 175.293 527.083 175.782 527.083ZM175.788 526.067C175.109 526.067 174.563 525.756 174.15 525.134C173.738 524.512 173.535 523.648 173.535 522.544C173.535 521.458 173.731 520.595 174.131 519.96C174.525 519.326 175.077 519.008 175.788 519.008C176.461 519.008 177 519.319 177.413 519.941C177.819 520.563 178.029 521.427 178.029 522.544C178.029 523.255 177.94 523.877 177.769 524.404C177.591 524.931 177.337 525.337 177 525.629C176.658 525.921 176.258 526.067 175.788 526.067Z" fill="#5B5863"/>
<path d="M187.093 522.88L190.096 527H191.511L187.842 521.973L191.416 517.764H189.969L185.773 522.836H185.748V517.764H184.618V527H185.748V524.442L187.074 522.88H187.093Z" fill="#5B5863"/>
<path d="M197.592 522.144V522.125C198.075 521.96 198.437 521.687 198.69 521.306C198.938 520.925 199.065 520.5 199.065 520.018C199.065 519.637 198.995 519.3 198.855 519.008C198.716 518.716 198.513 518.481 198.252 518.304C197.986 518.126 197.675 517.986 197.313 517.897C196.951 517.809 196.545 517.764 196.088 517.764H193.073V527H196.437C196.945 527 197.402 526.943 197.795 526.816C198.189 526.695 198.513 526.524 198.767 526.302C199.014 526.08 199.205 525.819 199.332 525.515C199.458 525.21 199.522 524.874 199.522 524.499C199.522 524.169 199.471 523.871 199.37 523.598C199.268 523.325 199.128 523.09 198.951 522.899C198.773 522.709 198.57 522.544 198.341 522.417C198.113 522.29 197.859 522.201 197.592 522.144ZM194.203 518.805H195.853C196.208 518.805 196.52 518.843 196.786 518.907C197.053 518.977 197.262 519.072 197.427 519.199C197.586 519.326 197.707 519.478 197.783 519.649C197.859 519.821 197.903 520.018 197.903 520.24C197.903 520.456 197.865 520.646 197.795 520.817C197.726 520.995 197.63 521.135 197.516 521.243C197.396 521.357 197.256 521.446 197.097 521.522C196.938 521.598 196.773 521.655 196.602 521.687C196.431 521.719 196.253 521.731 196.075 521.731H194.203V518.805ZM196.12 525.959H194.203V522.747H196.17C196.634 522.747 197.027 522.817 197.357 522.95C197.681 523.083 197.922 523.274 198.087 523.515C198.252 523.763 198.335 524.055 198.335 524.397C198.335 524.912 198.132 525.299 197.738 525.565C197.338 525.832 196.799 525.959 196.12 525.959Z" fill="#5B5863"/>
<path d="M164.4 521.7L163 523.1L158.7 518.8V531H156.7V518.8L152.4 523.1L151 521.7L157.7 515L164.4 521.7Z" fill="#AFADB2"/>
<path d="M287.082 527.083C287.602 527.083 288.078 526.975 288.503 526.746C288.922 526.518 289.278 526.207 289.557 525.8C289.836 525.4 290.052 524.924 290.205 524.366C290.357 523.813 290.433 523.204 290.433 522.544C290.433 521.827 290.344 521.179 290.179 520.602C290.014 520.024 289.779 519.548 289.481 519.167C289.183 518.786 288.827 518.5 288.421 518.297C288.015 518.094 287.564 517.993 287.082 517.993C286.561 517.993 286.085 518.107 285.66 518.335C285.234 518.564 284.885 518.875 284.606 519.275C284.327 519.681 284.111 520.157 283.958 520.716C283.806 521.274 283.73 521.884 283.73 522.544C283.73 523.261 283.812 523.909 283.978 524.48C284.143 525.058 284.377 525.534 284.676 525.915C284.974 526.295 285.33 526.581 285.736 526.784C286.142 526.987 286.593 527.083 287.082 527.083ZM287.088 526.067C286.409 526.067 285.863 525.756 285.45 525.134C285.038 524.512 284.834 523.648 284.834 522.544C284.834 521.458 285.031 520.595 285.431 519.96C285.825 519.326 286.377 519.008 287.088 519.008C287.761 519.008 288.3 519.319 288.713 519.941C289.119 520.563 289.329 521.427 289.329 522.544C289.329 523.255 289.24 523.877 289.068 524.404C288.891 524.931 288.637 525.337 288.3 525.629C287.958 525.921 287.558 526.067 287.088 526.067Z" fill="#5B5863"/>
<path d="M295.245 527.083C295.765 527.083 296.241 526.975 296.667 526.746C297.085 526.518 297.441 526.207 297.72 525.8C298 525.4 298.215 524.924 298.368 524.366C298.52 523.813 298.596 523.204 298.596 522.544C298.596 521.827 298.507 521.179 298.342 520.602C298.177 520.024 297.942 519.548 297.644 519.167C297.346 518.786 296.99 518.5 296.584 518.297C296.178 518.094 295.727 517.993 295.245 517.993C294.724 517.993 294.248 518.107 293.823 518.335C293.397 518.564 293.048 518.875 292.769 519.275C292.49 519.681 292.274 520.157 292.122 520.716C291.969 521.274 291.893 521.884 291.893 522.544C291.893 523.261 291.976 523.909 292.141 524.48C292.306 525.058 292.541 525.534 292.839 525.915C293.137 526.295 293.493 526.581 293.899 526.784C294.305 526.987 294.756 527.083 295.245 527.083ZM295.251 526.067C294.572 526.067 294.026 525.756 293.613 525.134C293.201 524.512 292.998 523.648 292.998 522.544C292.998 521.458 293.194 520.595 293.594 519.96C293.988 519.326 294.54 519.008 295.251 519.008C295.924 519.008 296.463 519.319 296.876 519.941C297.282 520.563 297.492 521.427 297.492 522.544C297.492 523.255 297.403 523.877 297.231 524.404C297.054 524.931 296.8 525.337 296.463 525.629C296.121 525.921 295.721 526.067 295.251 526.067Z" fill="#5B5863"/>
<path d="M300.837 521.306C301.04 521.306 301.218 521.236 301.364 521.09C301.51 520.951 301.586 520.773 301.586 520.57C301.586 520.367 301.51 520.189 301.364 520.043C301.218 519.903 301.04 519.827 300.837 519.827C300.621 519.827 300.443 519.903 300.297 520.043C300.151 520.189 300.082 520.367 300.082 520.57C300.082 520.709 300.113 520.83 300.177 520.944C300.24 521.059 300.335 521.147 300.45 521.211C300.564 521.274 300.697 521.306 300.837 521.306ZM300.837 526.308C301.04 526.308 301.218 526.238 301.364 526.092C301.51 525.953 301.586 525.775 301.586 525.572C301.586 525.369 301.51 525.191 301.364 525.045C301.218 524.905 301.04 524.829 300.837 524.829C300.621 524.829 300.443 524.905 300.297 525.045C300.151 525.191 300.082 525.369 300.082 525.572C300.082 525.775 300.151 525.953 300.297 526.092C300.443 526.238 300.621 526.308 300.837 526.308Z" fill="#5B5863"/>
<path d="M306.48 527.083C307 527.083 307.477 526.975 307.902 526.746C308.321 526.518 308.676 526.207 308.956 525.8C309.235 525.4 309.451 524.924 309.603 524.366C309.755 523.813 309.832 523.204 309.832 522.544C309.832 521.827 309.743 521.179 309.578 520.602C309.413 520.024 309.178 519.548 308.879 519.167C308.581 518.786 308.226 518.5 307.819 518.297C307.413 518.094 306.962 517.993 306.48 517.993C305.959 517.993 305.483 518.107 305.058 518.335C304.633 518.564 304.284 518.875 304.004 519.275C303.725 519.681 303.509 520.157 303.357 520.716C303.205 521.274 303.128 521.884 303.128 522.544C303.128 523.261 303.211 523.909 303.376 524.48C303.541 525.058 303.776 525.534 304.074 525.915C304.373 526.295 304.728 526.581 305.134 526.784C305.541 526.987 305.991 527.083 306.48 527.083ZM306.486 526.067C305.807 526.067 305.261 525.756 304.849 525.134C304.436 524.512 304.233 523.648 304.233 522.544C304.233 521.458 304.43 520.595 304.83 519.96C305.223 519.326 305.775 519.008 306.486 519.008C307.159 519.008 307.699 519.319 308.111 519.941C308.518 520.563 308.727 521.427 308.727 522.544C308.727 523.255 308.638 523.877 308.467 524.404C308.289 524.931 308.035 525.337 307.699 525.629C307.356 525.921 306.956 526.067 306.486 526.067Z" fill="#5B5863"/>
<path d="M314.643 527.083C315.164 527.083 315.64 526.975 316.065 526.746C316.484 526.518 316.839 526.207 317.119 525.8C317.398 525.4 317.614 524.924 317.766 524.366C317.918 523.813 317.995 523.204 317.995 522.544C317.995 521.827 317.906 521.179 317.741 520.602C317.576 520.024 317.341 519.548 317.042 519.167C316.744 518.786 316.389 518.5 315.982 518.297C315.576 518.094 315.125 517.993 314.643 517.993C314.123 517.993 313.646 518.107 313.221 518.335C312.796 518.564 312.447 518.875 312.167 519.275C311.888 519.681 311.672 520.157 311.52 520.716C311.368 521.274 311.292 521.884 311.292 522.544C311.292 523.261 311.374 523.909 311.539 524.48C311.704 525.058 311.939 525.534 312.237 525.915C312.536 526.295 312.891 526.581 313.297 526.784C313.704 526.987 314.154 527.083 314.643 527.083ZM314.649 526.067C313.97 526.067 313.424 525.756 313.012 525.134C312.599 524.512 312.396 523.648 312.396 522.544C312.396 521.458 312.593 520.595 312.993 519.96C313.386 519.326 313.938 519.008 314.649 519.008C315.322 519.008 315.862 519.319 316.274 519.941C316.681 520.563 316.89 521.427 316.89 522.544C316.89 523.255 316.801 523.877 316.63 524.404C316.452 524.931 316.198 525.337 315.862 525.629C315.519 525.921 315.119 526.067 314.649 526.067Z" fill="#5B5863"/>
<path d="M269 515C264.6 515 261 518.6 261 523C261 527.4 264.6 531 269 531C273.4 531 277 527.4 277 523C277 518.6 273.4 515 269 515ZM269 529C265.7 529 263 526.3 263 523C263 519.7 265.7 517 269 517C272.3 517 275 519.7 275 523C275 526.3 272.3 529 269 529Z" fill="#AFADB2"/>
<path d="M270 519H268V524H273V522H270V519Z" fill="#AFADB2"/>
<path d="M41 293C41 290.239 43.2386 288 46 288H314C316.761 288 319 290.239 319 293V355C319 357.761 316.761 360 314 360H46C43.2386 360 41 357.761 41 355V293Z" fill="white"/>
<path d="M286.519 332.821L293.17 325.061C293.491 324.687 293.491 324.134 293.17 323.76L286.519 316L285 317.302L291.094 324.411L285.001 331.519L286.519 332.821Z" fill="#AFADB2"/>
<path d="M88.1318 305.771V305.75C88.6514 305.572 89.041 305.278 89.3145 304.868C89.5811 304.458 89.7178 304 89.7178 303.48C89.7178 303.07 89.6426 302.708 89.4922 302.394C89.3418 302.079 89.123 301.826 88.8428 301.635C88.5557 301.443 88.2207 301.293 87.8311 301.197C87.4414 301.102 87.0039 301.054 86.5117 301.054H83.2646V311H86.8877C87.4346 311 87.9268 310.938 88.3506 310.802C88.7744 310.672 89.123 310.487 89.3965 310.248C89.6631 310.009 89.8682 309.729 90.0049 309.4C90.1416 309.072 90.21 308.71 90.21 308.307C90.21 307.951 90.1553 307.63 90.0459 307.336C89.9365 307.042 89.7861 306.789 89.5947 306.584C89.4033 306.379 89.1846 306.201 88.9385 306.064C88.6924 305.928 88.4189 305.832 88.1318 305.771ZM84.4814 302.175H86.2588C86.6416 302.175 86.9766 302.216 87.2637 302.284C87.5508 302.359 87.7764 302.462 87.9541 302.599C88.125 302.735 88.2549 302.899 88.3369 303.084C88.4189 303.269 88.4668 303.48 88.4668 303.72C88.4668 303.952 88.4258 304.157 88.3506 304.342C88.2754 304.533 88.1729 304.684 88.0498 304.8C87.9199 304.923 87.7695 305.019 87.5986 305.101C87.4277 305.183 87.25 305.244 87.0654 305.278C86.8809 305.312 86.6895 305.326 86.498 305.326H84.4814V302.175ZM86.5459 309.879H84.4814V306.42H86.6006C87.0996 306.42 87.5234 306.495 87.8789 306.639C88.2275 306.782 88.4873 306.987 88.665 307.247C88.8428 307.514 88.9316 307.828 88.9316 308.197C88.9316 308.751 88.7129 309.168 88.2891 309.455C87.8584 309.742 87.2773 309.879 86.5459 309.879Z" fill="#AFADB2"/>
<path d="M98.0439 307.486C98.0439 306.844 97.9072 306.263 97.6475 305.75C97.3877 305.237 97.0117 304.834 96.5332 304.54C96.0479 304.253 95.4941 304.103 94.8721 304.103C94.4141 304.103 93.9834 304.191 93.5869 304.362C93.1836 304.54 92.835 304.779 92.5479 305.08C92.2607 305.381 92.0283 305.75 91.8643 306.188C91.6934 306.625 91.6113 307.09 91.6113 307.596C91.6113 308.108 91.6934 308.58 91.8711 309.018C92.042 309.455 92.2812 309.824 92.582 310.125C92.8828 310.426 93.2383 310.665 93.6553 310.836C94.0723 311.007 94.5234 311.089 95.002 311.089C95.5967 311.089 96.1299 310.979 96.5947 310.747C97.0596 310.515 97.4492 310.2 97.7568 309.804L96.9639 309.127C96.7314 309.407 96.458 309.633 96.1367 309.797C95.8086 309.961 95.4463 310.043 95.043 310.043C94.4277 310.043 93.915 309.858 93.5049 309.476C93.0879 309.093 92.8418 308.587 92.7734 307.951H98.0098C98.0303 307.814 98.0439 307.664 98.0439 307.486ZM94.9336 305.148C95.4668 305.148 95.9043 305.319 96.2529 305.654C96.6016 305.996 96.8203 306.447 96.916 307.008H92.8008C92.9033 306.44 93.1494 305.989 93.5391 305.654C93.9287 305.319 94.3936 305.148 94.9336 305.148Z" fill="#AFADB2"/>
<path d="M101.838 311.089C102.234 311.089 102.59 311.041 102.904 310.938C103.219 310.836 103.479 310.692 103.677 310.515C103.875 310.337 104.025 310.125 104.128 309.893C104.23 309.66 104.285 309.407 104.285 309.134C104.285 308.847 104.237 308.601 104.148 308.389C103.998 308.054 103.69 307.767 103.226 307.534C103.075 307.466 102.631 307.288 101.906 307.001C101.688 306.919 101.517 306.851 101.387 306.789C101.25 306.728 101.12 306.652 100.99 306.563C100.86 306.481 100.765 306.386 100.703 306.276C100.642 306.174 100.614 306.058 100.614 305.928C100.614 305.695 100.717 305.504 100.929 305.354C101.141 305.203 101.387 305.128 101.66 305.128C102.316 305.128 102.925 305.367 103.472 305.839L104.06 304.943C103.376 304.383 102.59 304.103 101.715 304.103C101.065 304.103 100.525 304.28 100.102 304.629C99.6709 304.978 99.459 305.408 99.459 305.928C99.459 306.174 99.4932 306.393 99.5684 306.591C99.6436 306.796 99.7393 306.96 99.8555 307.097C99.9648 307.233 100.122 307.363 100.313 307.486C100.505 307.609 100.683 307.705 100.86 307.78C101.038 307.862 101.25 307.944 101.51 308.026C101.544 308.04 101.599 308.061 101.674 308.081C101.817 308.136 101.927 308.177 101.995 308.204C102.063 308.231 102.159 308.266 102.275 308.307C102.385 308.348 102.474 308.389 102.528 308.416C102.583 308.443 102.651 308.484 102.733 308.525C102.815 308.573 102.87 308.614 102.911 308.655C102.945 308.696 102.986 308.737 103.027 308.792C103.068 308.847 103.096 308.901 103.109 308.956C103.123 309.018 103.13 309.079 103.13 309.147C103.13 309.407 103.014 309.626 102.781 309.797C102.549 309.975 102.234 310.057 101.838 310.057C101.387 310.057 100.997 309.988 100.669 309.852C100.341 309.715 100.04 309.517 99.7529 309.243L99.165 310.104C99.9033 310.761 100.792 311.089 101.838 311.089Z" fill="#AFADB2"/>
<path d="M107.867 311.089C108.113 311.089 108.353 311.068 108.571 311.027C108.79 310.986 108.961 310.932 109.098 310.877C109.228 310.822 109.364 310.747 109.515 310.665L109.214 309.674C108.804 309.906 108.421 310.022 108.065 310.022C107.751 310.022 107.539 309.927 107.416 309.735C107.293 309.544 107.231 309.229 107.231 308.799V305.169H109.487V304.185H107.231V301.73L106.097 301.854V304.185H105.229V305.169H106.097V308.97C106.097 310.385 106.685 311.089 107.867 311.089Z" fill="#AFADB2"/>
<path d="M115.079 311H121.218V309.879H116.296V301.054H115.079V311Z" fill="#AFADB2"/>
<path d="M125.818 311.089C126.481 311.089 127.083 310.945 127.616 310.651C128.149 310.364 128.566 309.947 128.867 309.414C129.168 308.881 129.325 308.279 129.325 307.603C129.325 306.926 129.168 306.317 128.867 305.784C128.566 305.251 128.149 304.834 127.616 304.54C127.083 304.253 126.481 304.103 125.818 304.103C125.299 304.103 124.813 304.198 124.376 304.376C123.932 304.554 123.556 304.8 123.255 305.114C122.954 305.429 122.715 305.798 122.544 306.229C122.373 306.659 122.291 307.117 122.291 307.603C122.291 308.095 122.373 308.553 122.544 308.977C122.715 309.4 122.954 309.77 123.255 310.084C123.556 310.398 123.932 310.645 124.376 310.822C124.813 311 125.299 311.089 125.818 311.089ZM125.818 310.043C125.354 310.043 124.943 309.934 124.581 309.715C124.212 309.496 123.932 309.202 123.733 308.833C123.535 308.464 123.439 308.054 123.439 307.603C123.439 307.151 123.535 306.741 123.733 306.365C123.925 305.996 124.205 305.695 124.574 305.477C124.937 305.258 125.354 305.148 125.818 305.148C126.256 305.148 126.652 305.251 127.008 305.456C127.363 305.661 127.65 305.955 127.862 306.331C128.067 306.707 128.177 307.131 128.177 307.603C128.177 308.074 128.067 308.498 127.862 308.867C127.65 309.243 127.363 309.53 127.008 309.735C126.646 309.94 126.249 310.043 125.818 310.043Z" fill="#AFADB2"/>
<path d="M134.021 311.089C134.603 311.089 135.143 310.986 135.635 310.768C136.127 310.556 136.53 310.275 136.838 309.934L136.052 309.229C135.833 309.476 135.553 309.674 135.211 309.824C134.869 309.975 134.5 310.043 134.117 310.043C133.434 310.043 132.873 309.817 132.442 309.366C132.012 308.915 131.8 308.32 131.8 307.596C131.8 306.871 132.012 306.283 132.442 305.825C132.873 305.374 133.434 305.142 134.117 305.142C134.507 305.142 134.869 305.224 135.197 305.374C135.525 305.524 135.806 305.736 136.024 305.996L136.811 305.312C136.482 304.923 136.072 304.622 135.58 304.41C135.088 304.205 134.582 304.096 134.062 304.096C133.399 304.096 132.812 304.246 132.292 304.54C131.772 304.841 131.369 305.251 131.082 305.784C130.795 306.317 130.651 306.926 130.651 307.603C130.651 308.286 130.795 308.888 131.082 309.421C131.369 309.954 131.766 310.364 132.278 310.651C132.791 310.945 133.372 311.089 134.021 311.089Z" fill="#AFADB2"/>
<path d="M143.674 304.185V305.196H143.646C143.359 304.841 143.018 304.574 142.614 304.383C142.211 304.198 141.773 304.103 141.309 304.103C140.673 304.103 140.099 304.26 139.593 304.567C139.08 304.875 138.684 305.299 138.396 305.832C138.109 306.372 137.973 306.974 137.973 307.637C137.973 308.149 138.055 308.621 138.232 309.052C138.403 309.489 138.636 309.852 138.937 310.146C139.237 310.446 139.593 310.679 140.003 310.843C140.413 311.007 140.851 311.089 141.315 311.089C141.808 311.089 142.259 310.986 142.669 310.781C143.079 310.576 143.421 310.289 143.701 309.92H143.722V311H144.809V304.185H143.674ZM141.425 310.05C140.741 310.05 140.188 309.824 139.764 309.373C139.34 308.922 139.128 308.341 139.128 307.644C139.128 306.898 139.347 306.297 139.784 305.832C140.222 305.374 140.775 305.142 141.438 305.142C141.753 305.142 142.054 305.21 142.341 305.34C142.621 305.47 142.86 305.647 143.065 305.866C143.264 306.092 143.421 306.358 143.537 306.666C143.653 306.974 143.715 307.302 143.715 307.644C143.715 307.999 143.653 308.327 143.53 308.628C143.407 308.929 143.236 309.188 143.031 309.394C142.819 309.599 142.573 309.763 142.3 309.879C142.02 309.995 141.726 310.05 141.425 310.05Z" fill="#AFADB2"/>
<path d="M148.828 311.089C149.074 311.089 149.313 311.068 149.532 311.027C149.751 310.986 149.922 310.932 150.059 310.877C150.188 310.822 150.325 310.747 150.476 310.665L150.175 309.674C149.765 309.906 149.382 310.022 149.026 310.022C148.712 310.022 148.5 309.927 148.377 309.735C148.254 309.544 148.192 309.229 148.192 308.799V305.169H150.448V304.185H148.192V301.73L147.058 301.854V304.185H146.189V305.169H147.058V308.97C147.058 310.385 147.646 311.089 148.828 311.089Z" fill="#AFADB2"/>
<path d="M152.595 302.92C152.813 302.92 153.005 302.845 153.162 302.688C153.319 302.537 153.401 302.346 153.401 302.127C153.401 301.983 153.36 301.847 153.292 301.724C153.217 301.601 153.121 301.505 152.998 301.437C152.875 301.368 152.738 301.327 152.595 301.327C152.362 301.327 152.171 301.409 152.021 301.56C151.863 301.717 151.788 301.908 151.788 302.127C151.788 302.346 151.863 302.537 152.021 302.688C152.171 302.845 152.362 302.92 152.595 302.92ZM152.021 311H153.148V304.185H152.021V311Z" fill="#AFADB2"/>
<path d="M158.521 311.089C159.185 311.089 159.786 310.945 160.319 310.651C160.853 310.364 161.27 309.947 161.57 309.414C161.871 308.881 162.028 308.279 162.028 307.603C162.028 306.926 161.871 306.317 161.57 305.784C161.27 305.251 160.853 304.834 160.319 304.54C159.786 304.253 159.185 304.103 158.521 304.103C158.002 304.103 157.517 304.198 157.079 304.376C156.635 304.554 156.259 304.8 155.958 305.114C155.657 305.429 155.418 305.798 155.247 306.229C155.076 306.659 154.994 307.117 154.994 307.603C154.994 308.095 155.076 308.553 155.247 308.977C155.418 309.4 155.657 309.77 155.958 310.084C156.259 310.398 156.635 310.645 157.079 310.822C157.517 311 158.002 311.089 158.521 311.089ZM158.521 310.043C158.057 310.043 157.646 309.934 157.284 309.715C156.915 309.496 156.635 309.202 156.437 308.833C156.238 308.464 156.143 308.054 156.143 307.603C156.143 307.151 156.238 306.741 156.437 306.365C156.628 305.996 156.908 305.695 157.277 305.477C157.64 305.258 158.057 305.148 158.521 305.148C158.959 305.148 159.355 305.251 159.711 305.456C160.066 305.661 160.354 305.955 160.565 306.331C160.771 306.707 160.88 307.131 160.88 307.603C160.88 308.074 160.771 308.498 160.565 308.867C160.354 309.243 160.066 309.53 159.711 309.735C159.349 309.94 158.952 310.043 158.521 310.043Z" fill="#AFADB2"/>
<path d="M167.401 304.103C166.889 304.103 166.417 304.212 165.993 304.431C165.562 304.649 165.207 304.957 164.927 305.36H164.906V304.185H163.771V311H164.906V307.596C164.906 306.844 165.098 306.242 165.487 305.805C165.877 305.367 166.396 305.142 167.046 305.142C167.306 305.142 167.531 305.183 167.729 305.251C167.921 305.326 168.099 305.442 168.249 305.606C168.399 305.771 168.509 305.996 168.591 306.27C168.673 306.55 168.714 306.885 168.714 307.274V311.007H169.849V306.96C169.849 306.017 169.63 305.299 169.192 304.82C168.755 304.342 168.16 304.103 167.401 304.103Z" fill="#AFADB2"/>
<path d="M172.439 305.702C172.658 305.702 172.85 305.627 173.007 305.47C173.164 305.319 173.246 305.128 173.246 304.909C173.246 304.69 173.164 304.499 173.007 304.342C172.85 304.191 172.658 304.109 172.439 304.109C172.207 304.109 172.016 304.191 171.858 304.342C171.701 304.499 171.626 304.69 171.626 304.909C171.626 305.06 171.66 305.189 171.729 305.312C171.797 305.436 171.899 305.531 172.022 305.6C172.146 305.668 172.289 305.702 172.439 305.702ZM172.439 311.089C172.658 311.089 172.85 311.014 173.007 310.856C173.164 310.706 173.246 310.515 173.246 310.296C173.246 310.077 173.164 309.886 173.007 309.729C172.85 309.578 172.658 309.496 172.439 309.496C172.207 309.496 172.016 309.578 171.858 309.729C171.701 309.886 171.626 310.077 171.626 310.296C171.626 310.515 171.701 310.706 171.858 310.856C172.016 311.014 172.207 311.089 172.439 311.089Z" fill="#AFADB2"/>
<path d="M74.146 303.057L69.829 302.429L67.902 298.518C67.8105 298.36 67.6791 298.23 67.5212 298.139C67.3633 298.048 67.1842 298 67.002 298C66.8198 298 66.6408 298.048 66.4829 298.139C66.3249 298.23 66.1936 298.36 66.102 298.518L64.175 302.43L59.858 303.057C59.6732 303.083 59.4994 303.161 59.3565 303.281C59.2135 303.401 59.1071 303.559 59.0492 303.737C58.9914 303.914 58.9844 304.105 59.029 304.286C59.0737 304.467 59.1683 304.633 59.302 304.763L62.425 307.808L61.688 312.108C61.6565 312.292 61.6771 312.481 61.7474 312.654C61.8177 312.826 61.935 312.976 62.086 313.086C62.2369 313.195 62.4155 313.261 62.6016 313.274C62.7877 313.288 62.9739 313.249 63.139 313.162L67.002 311.131L70.863 313.16C71.0282 313.247 71.2143 313.286 71.4004 313.272C71.5865 313.259 71.7651 313.193 71.9161 313.084C72.0671 312.974 72.1843 312.824 72.2547 312.652C72.325 312.479 72.3455 312.29 72.314 312.106L71.577 307.806L74.702 304.763C74.8354 304.633 74.9298 304.468 74.9744 304.287C75.019 304.106 75.0121 303.916 74.9545 303.738C74.8969 303.561 74.7908 303.403 74.6483 303.283C74.5058 303.163 74.3325 303.085 74.148 303.058L74.146 303.057Z" fill="#AFADB2"/>
<path d="M103.46 339.141C105.042 339.141 106.29 338.657 107.204 337.69C108.109 336.724 108.566 335.414 108.566 333.744V326.212H106.396V333.577C106.396 334.667 106.123 335.52 105.578 336.144C105.033 336.776 104.33 337.084 103.46 337.084C102.862 337.084 102.335 336.935 101.896 336.636C101.456 336.337 101.122 335.915 100.894 335.388C100.665 334.86 100.551 334.263 100.551 333.577V326.212H98.3799V333.744C98.3799 334.597 98.5029 335.361 98.749 336.038C98.9951 336.724 99.3379 337.286 99.7861 337.743C100.226 338.2 100.762 338.543 101.386 338.78C102.01 339.026 102.704 339.141 103.46 339.141Z" fill="#5B5863"/>
<path d="M115.343 339.141C115.756 339.141 116.169 339.097 116.582 339C116.986 338.912 117.382 338.763 117.769 338.552C118.155 338.35 118.489 338.104 118.779 337.805C119.069 337.515 119.307 337.154 119.482 336.724C119.658 336.302 119.746 335.827 119.746 335.317C119.746 334.825 119.667 334.386 119.526 333.999C119.271 333.331 118.744 332.769 117.936 332.32C117.566 332.118 116.846 331.811 115.791 331.389C114.895 331.046 114.306 330.782 114.033 330.606C113.603 330.325 113.392 329.974 113.4 329.534C113.4 329.077 113.576 328.708 113.91 328.444C114.244 328.181 114.675 328.04 115.185 328.04C116.099 328.04 117.074 328.479 118.129 329.35L119.421 327.645C118.076 326.59 116.661 326.071 115.185 326.071C114.455 326.071 113.778 326.229 113.163 326.546C112.548 326.862 112.056 327.293 111.695 327.838C111.326 328.392 111.15 328.998 111.15 329.648C111.15 329.974 111.186 330.281 111.265 330.562C111.344 330.844 111.449 331.099 111.572 331.318C111.695 331.538 111.854 331.749 112.064 331.942C112.267 332.136 112.469 332.312 112.671 332.452C112.873 332.593 113.119 332.733 113.4 332.874C113.682 333.015 113.945 333.138 114.183 333.226C114.411 333.322 114.692 333.428 115.009 333.533C115.272 333.63 115.492 333.709 115.659 333.771C115.817 333.841 116.002 333.911 116.195 333.999C116.389 334.087 116.547 334.157 116.661 334.228C116.775 334.298 116.89 334.386 117.013 334.482C117.127 334.588 117.215 334.685 117.276 334.79C117.329 334.896 117.382 335.01 117.417 335.142C117.452 335.273 117.479 335.414 117.479 335.572C117.479 336.064 117.294 336.442 116.934 336.724C116.564 337.005 116.037 337.137 115.352 337.137C114.78 337.137 114.2 336.996 113.62 336.706C113.04 336.416 112.521 335.994 112.073 335.449L110.702 337.137C111.353 337.805 112.082 338.306 112.882 338.64C113.673 338.974 114.499 339.141 115.343 339.141Z" fill="#5B5863"/>
<path d="M130.223 339H132.499L127.7 326.212H125.582L120.81 339H123.077L124.035 336.249H129.256L130.223 339ZM124.694 334.368L126.637 328.831H126.654L128.597 334.368H124.694Z" fill="#5B5863"/>
<path d="M138.687 334.421H144.101V332.461H138.687V334.421Z" fill="#5B5863"/>
<path d="M159.877 326.212V335.388H159.833L153.593 326.212H151.439V339H153.61V329.956H153.646L159.833 339H162.048V326.212H159.877Z" fill="#5B5863"/>
<path d="M172.955 334.509C172.955 333.665 172.779 332.9 172.437 332.232C172.085 331.564 171.593 331.046 170.942 330.659C170.292 330.281 169.536 330.088 168.692 330.088C168.086 330.088 167.523 330.202 166.996 330.422C166.469 330.642 166.012 330.949 165.634 331.336C165.247 331.731 164.948 332.206 164.737 332.769C164.518 333.331 164.412 333.946 164.412 334.605C164.412 335.502 164.605 336.302 165.001 336.996C165.388 337.69 165.924 338.218 166.609 338.587C167.286 338.956 168.051 339.141 168.903 339.141C169.721 339.141 170.441 338.991 171.065 338.692C171.689 338.394 172.199 337.989 172.604 337.479L171.197 336.275C170.644 336.97 169.914 337.312 169.009 337.312C168.358 337.312 167.813 337.137 167.365 336.776C166.917 336.425 166.627 335.933 166.504 335.309H172.902C172.938 335.098 172.955 334.834 172.955 334.509ZM168.798 331.916C169.167 331.916 169.501 331.995 169.8 332.145C170.099 332.294 170.336 332.496 170.521 332.76C170.705 333.023 170.846 333.331 170.934 333.683H166.539C166.68 333.12 166.952 332.689 167.356 332.382C167.761 332.074 168.235 331.916 168.798 331.916Z" fill="#5B5863"/>
<path d="M184.653 330.22L182.755 336.003H182.729L181.006 330.22H179.327L177.631 335.994H177.596L175.697 330.22H173.658L176.673 339H178.492L180.136 333.472H180.171L181.814 339H183.678L186.692 330.22H184.653Z" fill="#5B5863"/>
<path d="M200.421 326.212L197.582 331.169H197.529L194.673 326.212H192.186L196.457 333.349V339H198.637V333.349L202.935 326.212H200.421Z" fill="#5B5863"/>
<path d="M206.854 339.141C207.733 339.141 208.524 338.956 209.228 338.578C209.931 338.2 210.476 337.664 210.871 336.979C211.258 336.293 211.46 335.502 211.46 334.623C211.46 333.744 211.258 332.953 210.871 332.259C210.476 331.573 209.931 331.037 209.236 330.659C208.533 330.281 207.742 330.088 206.854 330.088C205.94 330.088 205.132 330.29 204.429 330.686C203.726 331.081 203.181 331.617 202.803 332.303C202.425 332.988 202.24 333.762 202.24 334.623C202.24 335.265 202.346 335.862 202.574 336.416C202.794 336.979 203.102 337.453 203.497 337.857C203.893 338.262 204.385 338.569 204.965 338.798C205.545 339.026 206.169 339.141 206.854 339.141ZM206.854 337.312C206.107 337.312 205.492 337.058 205.009 336.539C204.525 336.029 204.288 335.388 204.288 334.623C204.288 333.85 204.525 333.208 205 332.689C205.475 332.18 206.09 331.916 206.854 331.916C207.584 331.916 208.19 332.171 208.683 332.672C209.166 333.182 209.412 333.832 209.412 334.623C209.412 335.405 209.166 336.047 208.674 336.557C208.182 337.066 207.575 337.312 206.854 337.312Z" fill="#5B5863"/>
<path d="M218.342 330.088C217.806 330.088 217.305 330.22 216.83 330.466C216.355 330.712 215.951 331.072 215.608 331.538H215.582V330.22H213.569V339H215.582V334.834C215.582 334.359 215.67 333.929 215.854 333.551C216.039 333.173 216.312 332.874 216.681 332.646C217.05 332.426 217.48 332.312 217.981 332.312C218.157 332.312 218.359 332.32 218.588 332.338V330.097C218.535 330.097 218.456 330.088 218.342 330.088Z" fill="#5B5863"/>
<path d="M223.782 335.309L226.059 339H228.326L225.118 333.771L228.282 330.22H225.892L222.306 334.228H222.279V325.746H220.267V339H222.279V336.952L223.747 335.309H223.782Z" fill="#5B5863"/>
<path fill-rule="evenodd" clip-rule="evenodd" d="M59 325H85V326.539H59V325ZM59 328.078H85V329.617H59V328.078ZM59 331.152H85V332.695H59V331.152ZM59 334.23H85V335.77H59V334.23ZM59 337.309H85V338.848H59V337.309ZM59 340.383H85V341.922H59V340.383ZM59 343.461H85V345H59V343.461Z" fill="#BD3D44"/>
<path fill-rule="evenodd" clip-rule="evenodd" d="M59 327H85V328.455H59V327ZM59 329.91H85V331.362H59V329.91ZM59 332.817H85V334.272H59V332.817ZM59 335.728H85V337.183H59V335.728ZM59 338.638H85V340.093H59V338.638ZM59 341.545H85V343H59V341.545Z" fill="white"/>
<path fill-rule="evenodd" clip-rule="evenodd" d="M59 325H73.3993V335.522H59V325Z" fill="#192F5D"/>
<path fill-rule="evenodd" clip-rule="evenodd" d="M60.1991 325.45L60.3324 325.866H60.7542L60.4138 326.122L60.5433 326.542L60.1991 326.282L59.8587 326.538L59.9882 326.122L59.644 325.866H60.0733L60.1991 325.45ZM62.6009 325.45L62.7304 325.866H63.156L62.8118 326.122L62.9413 326.542L62.6009 326.282L62.2567 326.538L62.3862 326.122L62.0458 325.866H62.4676L62.6009 325.45ZM64.9989 325.45L65.1321 325.866H65.5503L65.2098 326.122L65.3394 326.542L64.9952 326.282L64.6547 326.538L64.7843 326.122L64.4401 325.866H64.8657L64.9989 325.45ZM67.4006 325.45L67.5301 325.866H67.9557L67.6116 326.122L67.7448 326.542L67.4006 326.282L67.0565 326.538L67.1897 326.122L66.8455 325.866H67.2674L67.4006 325.45ZM69.7986 325.45L69.9319 325.866H70.3537L70.0133 326.122L70.1428 326.542L69.7986 326.282L69.4582 326.538L69.5877 326.122L69.2472 325.866H69.6691L69.7986 325.45ZM72.2004 325.45L72.3299 325.866H72.7555L72.4113 326.122L72.5445 326.542L72.2004 326.282L71.8562 326.538L71.9894 326.122L71.6453 325.866H72.0708L72.2004 325.45ZM61.4019 326.503L61.5314 326.919H61.957L61.6128 327.175L61.7386 327.591L61.4056 327.335L61.0614 327.591L61.1835 327.175L60.8505 326.919H61.2723L61.4019 326.503ZM63.7999 326.503L63.9331 326.919H64.355L64.0108 327.175L64.144 327.591L63.7999 327.335L63.4557 327.591L63.5889 327.175L63.2448 326.919H63.6704L63.7999 326.503ZM66.2016 326.503L66.3311 326.919H66.7567L66.4125 327.175L66.5421 327.591L66.2016 327.335L65.8574 327.591L65.987 327.175L65.6465 326.919H66.0684L66.2016 326.503ZM68.5996 326.503L68.7329 326.919H69.1547L68.8106 327.175L68.9438 327.591L68.5996 327.335L68.2592 327.591L68.3887 327.175L68.0445 326.919H68.4738L68.5996 326.503ZM71.0014 326.503L71.1309 326.919H71.5565L71.2123 327.175L71.3418 327.591L71.0014 327.335L70.6572 327.591L70.7867 327.175L70.4463 326.919H70.8681L71.0014 326.503ZM60.1991 327.553L60.3324 327.977H60.7542L60.4138 328.232L60.5433 328.648L60.1991 328.389L59.8587 328.648L59.9882 328.228L59.644 327.973H60.0733L60.1991 327.553ZM62.6009 327.553L62.7304 327.973H63.156L62.8118 328.228L62.9413 328.644L62.6009 328.385L62.2567 328.644L62.3862 328.225L62.0458 327.969H62.4676L62.6009 327.553ZM64.9989 327.553L65.1321 327.973H65.5503L65.2098 328.228L65.3394 328.644L64.9952 328.385L64.6547 328.644L64.7843 328.225L64.4401 327.969H64.8657L64.9989 327.553ZM67.4006 327.553L67.5301 327.973H67.9557L67.6116 328.228L67.7448 328.644L67.4006 328.385L67.0565 328.644L67.1897 328.225L66.8455 327.969H67.2674L67.4006 327.553ZM69.7986 327.553L69.9319 327.973H70.3537L70.0133 328.228L70.1428 328.644L69.7986 328.385L69.4582 328.644L69.5877 328.225L69.2472 327.969H69.6691L69.7986 327.553ZM72.2004 327.553L72.3299 327.973H72.7555L72.4113 328.228L72.5445 328.644L72.2004 328.385L71.8562 328.644L71.9894 328.225L71.6453 327.969H72.0708L72.2004 327.553ZM61.4019 328.606L61.5314 329.022H61.957L61.6128 329.278L61.7423 329.698L61.4019 329.438L61.0577 329.694L61.1872 329.278L60.8468 329.022H61.2686L61.4019 328.606ZM63.7999 328.606L63.9331 329.022H64.355L64.0108 329.278L64.144 329.698L63.7999 329.438L63.4557 329.694L63.5889 329.278L63.2448 329.022H63.6704L63.7999 328.606ZM66.2016 328.606L66.3311 329.022H66.7567L66.4125 329.278L66.5421 329.698L66.2016 329.438L65.8574 329.694L65.987 329.278L65.6465 329.022H66.0684L66.2016 328.606ZM68.5996 328.606L68.7329 329.022H69.1547L68.8143 329.278L68.9438 329.698L68.5996 329.438L68.2592 329.694L68.3887 329.278L68.0445 329.022H68.4738L68.5996 328.606ZM71.0014 328.606L71.1309 329.022H71.5565L71.2123 329.278L71.3418 329.698L71.0014 329.438L70.6572 329.694L70.7867 329.278L70.4463 329.022H70.8681L71.0014 328.606ZM60.1991 329.66L60.3324 330.076H60.7542L60.4138 330.331L60.5433 330.751L60.1991 330.492L59.8587 330.747L59.9882 330.331L59.644 330.076H60.0733L60.1991 329.66ZM62.6009 329.66L62.7304 330.076H63.156L62.8118 330.331L62.9413 330.747L62.6009 330.492L62.2567 330.747L62.3862 330.331L62.0458 330.076H62.4676L62.6009 329.66ZM64.9989 329.66L65.1321 330.076H65.5503L65.2098 330.331L65.3394 330.751L64.9952 330.492L64.6547 330.747L64.7843 330.331L64.4401 330.076H64.8657L64.9989 329.66ZM67.4006 329.66L67.5301 330.076H67.9557L67.6116 330.331L67.7448 330.751L67.4006 330.492L67.0565 330.747L67.1897 330.331L66.8455 330.076H67.2674L67.4006 329.66ZM69.7986 329.66L69.9319 330.076H70.3537L70.0133 330.331L70.1428 330.751L69.7986 330.492L69.4582 330.747L69.5877 330.331L69.2472 330.076H69.6691L69.7986 329.66ZM72.2004 329.66L72.3299 330.076H72.7555L72.4113 330.331L72.5445 330.751L72.2004 330.492L71.8562 330.747L71.9894 330.331L71.6453 330.076H72.0708L72.2004 329.66ZM61.4019 330.713L61.5314 331.129H61.957L61.6128 331.385L61.7423 331.801L61.4019 331.541L61.0577 331.801L61.1872 331.381L60.8468 331.125H61.2686L61.4019 330.713ZM63.7999 330.713L63.9331 331.129H64.355L64.0108 331.385L64.144 331.801L63.7999 331.541L63.4557 331.801L63.5889 331.381L63.2448 331.125H63.6704L63.7999 330.713ZM66.2016 330.713L66.3311 331.129H66.7567L66.4125 331.385L66.5421 331.801L66.2016 331.541L65.8574 331.801L65.987 331.381L65.6465 331.125H66.0684L66.2016 330.713ZM68.5996 330.713L68.7329 331.129H69.1547L68.8143 331.385L68.9438 331.801L68.5996 331.541L68.2592 331.801L68.3887 331.381L68.0445 331.125H68.4738L68.5996 330.713ZM71.0014 330.713L71.1309 331.129H71.5565L71.2123 331.385L71.3418 331.801L71.0014 331.541L70.6572 331.801L70.7867 331.381L70.4463 331.125H70.8681L71.0014 330.713ZM60.1991 331.762L60.3324 332.182H60.7542L60.4138 332.438L60.5433 332.85L60.1991 332.594L59.8587 332.85L59.9882 332.434L59.644 332.178H60.0733L60.1991 331.762ZM62.6009 331.762L62.7304 332.182H63.156L62.8118 332.438L62.945 332.85L62.6009 332.594L62.2567 332.85L62.3899 332.434L62.0458 332.178H62.4676L62.6009 331.762ZM64.9989 331.762L65.1321 332.182H65.5503L65.2098 332.438L65.3394 332.85L64.9952 332.594L64.6547 332.85L64.7843 332.434L64.4401 332.178H64.8657L64.9989 331.762ZM67.4006 331.762L67.5301 332.182H67.9557L67.6116 332.438L67.7448 332.85L67.4006 332.594L67.0565 332.85L67.1897 332.434L66.8455 332.178H67.2674L67.4006 331.762ZM69.7986 331.762L69.9319 332.182H70.3537L70.0133 332.438L70.1428 332.85L69.7986 332.594L69.4582 332.85L69.5877 332.434L69.2472 332.178H69.6691L69.7986 331.762ZM72.2004 331.762L72.3299 332.182H72.7555L72.4113 332.438L72.5445 332.85L72.2004 332.594L71.8562 332.85L71.9894 332.434L71.6453 332.178H72.0708L72.2004 331.762ZM61.4019 332.816L61.5314 333.232H61.957L61.6128 333.487L61.7423 333.907L61.4019 333.648L61.0577 333.903L61.1872 333.487L60.8468 333.232H61.2686L61.4019 332.816ZM63.7999 332.816L63.9331 333.232H64.355L64.0108 333.487L64.144 333.907L63.7999 333.648L63.4557 333.903L63.5889 333.487L63.2448 333.232H63.6704L63.7999 332.816ZM66.2016 332.816L66.3311 333.232H66.7567L66.4125 333.487L66.5421 333.907L66.2016 333.648L65.8574 333.903L65.987 333.487L65.6465 333.232H66.0684L66.2016 332.816ZM68.5996 332.816L68.7329 333.232H69.1547L68.8143 333.487L68.9438 333.907L68.5996 333.648L68.2592 333.903L68.3887 333.487L68.0445 333.232H68.4738L68.5996 332.816ZM71.0014 332.816L71.1309 333.232H71.5565L71.2123 333.487L71.3418 333.907L71.0014 333.648L70.6572 333.903L70.7867 333.487L70.4463 333.232H70.8681L71.0014 332.816ZM60.1991 333.869L60.3324 334.285H60.7542L60.4138 334.541L60.5433 334.957L60.1991 334.701L59.8587 334.957L59.9882 334.537L59.644 334.281H60.0733L60.1991 333.869ZM62.6009 333.869L62.7304 334.285H63.156L62.8118 334.541L62.945 334.957L62.6009 334.701L62.2567 334.957L62.3899 334.537L62.0458 334.281H62.4676L62.6009 333.869ZM64.9989 333.869L65.1321 334.285H65.5503L65.2172 334.541L65.3468 334.957L65.0026 334.701L64.6621 334.957L64.7917 334.537L64.4475 334.281H64.8731L64.9989 333.869ZM67.4006 333.869L67.5301 334.285H67.9557L67.6116 334.541L67.7448 334.957L67.4006 334.701L67.0565 334.957L67.1897 334.537L66.8455 334.281H67.2674L67.4006 333.869ZM69.7986 333.869L69.9319 334.285H70.3537L70.0133 334.541L70.1428 334.957L69.7986 334.701L69.4582 334.957L69.5877 334.537L69.2472 334.281H69.6691L69.7986 333.869ZM72.2004 333.869L72.3299 334.285H72.7555L72.4113 334.541L72.5445 334.957L72.2004 334.701L71.8562 334.957L71.9894 334.537L71.6453 334.281H72.0708L72.2004 333.869Z" fill="white"/>
<path d="M5 1H355V162C355 184.091 337.091 202 315 202H45C22.9086 202 5 184.091 5 162V1Z" fill="#F5F3ED"/>
<path d="M243 202C243 236.242 215.242 264 181 264C146.758 264 119 236.242 119 202C119 167.758 146.758 140 181 140C215.242 140 243 167.758 243 202Z" fill="white"/>
<path d="M208.139 202C208.139 216.52 196.368 228.291 181.848 228.291C167.328 228.291 155.557 216.52 155.557 202C155.557 187.48 167.328 175.709 181.848 175.709C196.368 175.709 208.139 187.48 208.139 202Z" fill="#5B5863"/>
<path fill-rule="evenodd" clip-rule="evenodd" d="M190.344 191.205C190.722 190.802 191.354 190.781 191.758 191.158C194.624 193.843 196.418 197.679 196.418 201.935C196.418 210.045 189.904 216.635 181.848 216.635C173.793 216.635 167.279 210.045 167.279 201.935C167.279 197.679 169.073 193.843 171.939 191.158C172.342 190.781 172.975 190.802 173.353 191.205C173.73 191.608 173.709 192.241 173.306 192.618C170.829 194.938 169.279 198.252 169.279 201.935C169.279 208.958 174.915 214.635 181.848 214.635C188.781 214.635 194.418 208.958 194.418 201.935C194.418 198.252 192.868 194.938 190.391 192.618C189.987 192.241 189.967 191.608 190.344 191.205Z" fill="white"/>
<path fill-rule="evenodd" clip-rule="evenodd" d="M182 184.81C182.552 184.81 183 185.257 183 185.81L183 200.772C183 201.324 182.552 201.772 182 201.772C181.448 201.772 181 201.324 181 200.772L181 185.81C181 185.257 181.448 184.81 182 184.81Z" fill="white"/>
<path fill-rule="evenodd" clip-rule="evenodd" d="M247 88C247 86.3431 245.657 85 244 85H116C114.343 85 113 86.3431 113 88V118C113 119.657 114.343 121 116 121H172.929C172.955 121 172.968 121.032 172.95 121.05C172.938 121.062 172.938 121.08 172.95 121.092L177.879 126.021C179.05 127.192 180.95 127.192 182.121 126.021L187.05 121.092C187.062 121.08 187.062 121.062 187.05 121.05C187.032 121.032 187.045 121 187.071 121H244C245.657 121 247 119.657 247 118V88Z" fill="white"/>
<path d="M132.934 106.075C133.761 106.075 134.499 105.911 135.142 105.569C135.784 105.234 136.345 104.776 136.81 104.195L135.9 103.43C135.094 104.421 134.109 104.913 132.934 104.913C132.51 104.913 132.113 104.858 131.744 104.742C131.368 104.633 131.026 104.462 130.726 104.243C130.425 104.024 130.158 103.758 129.939 103.45C129.721 103.143 129.55 102.787 129.427 102.377C129.304 101.974 129.249 101.536 129.249 101.071C129.249 100.306 129.393 99.6289 129.693 99.0342C129.987 98.4395 130.418 97.9746 130.979 97.6328C131.539 97.2979 132.188 97.127 132.934 97.127C133.501 97.127 134.041 97.2568 134.554 97.5166C135.066 97.7764 135.518 98.1455 135.9 98.624L136.81 97.8652C136.454 97.4346 136.064 97.0723 135.627 96.7852C135.189 96.498 134.745 96.2861 134.301 96.1562C133.856 96.0332 133.398 95.9648 132.934 95.9648C132.305 95.9648 131.73 96.0537 131.197 96.2246C130.664 96.4023 130.199 96.6416 129.81 96.9492C129.413 97.2637 129.078 97.626 128.805 98.0498C128.524 98.4736 128.319 98.9453 128.183 99.458C128.046 99.9707 127.978 100.511 127.978 101.071C127.978 101.707 128.06 102.295 128.23 102.835C128.401 103.382 128.641 103.847 128.948 104.243C129.249 104.64 129.611 104.975 130.028 105.248C130.438 105.528 130.896 105.733 131.389 105.87C131.881 106.007 132.394 106.075 132.934 106.075Z" fill="#5B5863"/>
<path d="M138.532 106H139.66V95.6914H138.532V106Z" fill="#5B5863"/>
<path d="M142.606 97.9199C142.825 97.9199 143.017 97.8447 143.174 97.6875C143.331 97.5371 143.413 97.3457 143.413 97.127C143.413 96.9834 143.372 96.8467 143.304 96.7236C143.229 96.6006 143.133 96.5049 143.01 96.4365C142.887 96.3682 142.75 96.3271 142.606 96.3271C142.374 96.3271 142.183 96.4092 142.032 96.5596C141.875 96.7168 141.8 96.9082 141.8 97.127C141.8 97.3457 141.875 97.5371 142.032 97.6875C142.183 97.8447 142.374 97.9199 142.606 97.9199ZM142.032 106H143.16V99.1846H142.032V106Z" fill="#5B5863"/>
<path d="M148.383 106.089C148.964 106.089 149.504 105.986 149.996 105.768C150.488 105.556 150.892 105.275 151.199 104.934L150.413 104.229C150.194 104.476 149.914 104.674 149.572 104.824C149.23 104.975 148.861 105.043 148.479 105.043C147.795 105.043 147.234 104.817 146.804 104.366C146.373 103.915 146.161 103.32 146.161 102.596C146.161 101.871 146.373 101.283 146.804 100.825C147.234 100.374 147.795 100.142 148.479 100.142C148.868 100.142 149.23 100.224 149.559 100.374C149.887 100.524 150.167 100.736 150.386 100.996L151.172 100.312C150.844 99.9229 150.434 99.6221 149.941 99.4102C149.449 99.2051 148.943 99.0957 148.424 99.0957C147.761 99.0957 147.173 99.2461 146.653 99.54C146.134 99.8408 145.73 100.251 145.443 100.784C145.156 101.317 145.013 101.926 145.013 102.603C145.013 103.286 145.156 103.888 145.443 104.421C145.73 104.954 146.127 105.364 146.64 105.651C147.152 105.945 147.733 106.089 148.383 106.089Z" fill="#5B5863"/>
<path d="M155.328 102.876L157.352 106H158.644L156.087 102.008L158.63 99.1846H157.256L153.899 102.903H153.879V95.6914H152.751V106H153.879V104.462L155.308 102.876H155.328Z" fill="#5B5863"/>
<path d="M165.814 106.089C166.061 106.089 166.3 106.068 166.519 106.027C166.737 105.986 166.908 105.932 167.045 105.877C167.175 105.822 167.312 105.747 167.462 105.665L167.161 104.674C166.751 104.906 166.368 105.022 166.013 105.022C165.698 105.022 165.486 104.927 165.363 104.735C165.24 104.544 165.179 104.229 165.179 103.799V100.169H167.435V99.1846H165.179V96.7305L164.044 96.8535V99.1846H163.176V100.169H164.044V103.97C164.044 105.385 164.632 106.089 165.814 106.089Z" fill="#5B5863"/>
<path d="M171.775 106.089C172.438 106.089 173.04 105.945 173.573 105.651C174.106 105.364 174.523 104.947 174.824 104.414C175.125 103.881 175.282 103.279 175.282 102.603C175.282 101.926 175.125 101.317 174.824 100.784C174.523 100.251 174.106 99.834 173.573 99.54C173.04 99.2529 172.438 99.1025 171.775 99.1025C171.256 99.1025 170.771 99.1982 170.333 99.376C169.889 99.5537 169.513 99.7998 169.212 100.114C168.911 100.429 168.672 100.798 168.501 101.229C168.33 101.659 168.248 102.117 168.248 102.603C168.248 103.095 168.33 103.553 168.501 103.977C168.672 104.4 168.911 104.77 169.212 105.084C169.513 105.398 169.889 105.645 170.333 105.822C170.771 106 171.256 106.089 171.775 106.089ZM171.775 105.043C171.311 105.043 170.9 104.934 170.538 104.715C170.169 104.496 169.889 104.202 169.69 103.833C169.492 103.464 169.396 103.054 169.396 102.603C169.396 102.151 169.492 101.741 169.69 101.365C169.882 100.996 170.162 100.695 170.531 100.477C170.894 100.258 171.311 100.148 171.775 100.148C172.213 100.148 172.609 100.251 172.965 100.456C173.32 100.661 173.607 100.955 173.819 101.331C174.024 101.707 174.134 102.131 174.134 102.603C174.134 103.074 174.024 103.498 173.819 103.867C173.607 104.243 173.32 104.53 172.965 104.735C172.603 104.94 172.206 105.043 171.775 105.043Z" fill="#5B5863"/>
<path d="M183.834 106.089C184.415 106.089 184.955 105.986 185.447 105.768C185.939 105.556 186.343 105.275 186.65 104.934L185.864 104.229C185.646 104.476 185.365 104.674 185.023 104.824C184.682 104.975 184.312 105.043 183.93 105.043C183.246 105.043 182.686 104.817 182.255 104.366C181.824 103.915 181.612 103.32 181.612 102.596C181.612 101.871 181.824 101.283 182.255 100.825C182.686 100.374 183.246 100.142 183.93 100.142C184.319 100.142 184.682 100.224 185.01 100.374C185.338 100.524 185.618 100.736 185.837 100.996L186.623 100.312C186.295 99.9229 185.885 99.6221 185.393 99.4102C184.9 99.2051 184.395 99.0957 183.875 99.0957C183.212 99.0957 182.624 99.2461 182.104 99.54C181.585 99.8408 181.182 100.251 180.895 100.784C180.607 101.317 180.464 101.926 180.464 102.603C180.464 103.286 180.607 103.888 180.895 104.421C181.182 104.954 181.578 105.364 182.091 105.651C182.604 105.945 183.185 106.089 183.834 106.089Z" fill="#5B5863"/>
<path d="M191.299 106.089C191.962 106.089 192.563 105.945 193.097 105.651C193.63 105.364 194.047 104.947 194.348 104.414C194.648 103.881 194.806 103.279 194.806 102.603C194.806 101.926 194.648 101.317 194.348 100.784C194.047 100.251 193.63 99.834 193.097 99.54C192.563 99.2529 191.962 99.1025 191.299 99.1025C190.779 99.1025 190.294 99.1982 189.856 99.376C189.412 99.5537 189.036 99.7998 188.735 100.114C188.435 100.429 188.195 100.798 188.024 101.229C187.854 101.659 187.771 102.117 187.771 102.603C187.771 103.095 187.854 103.553 188.024 103.977C188.195 104.4 188.435 104.77 188.735 105.084C189.036 105.398 189.412 105.645 189.856 105.822C190.294 106 190.779 106.089 191.299 106.089ZM191.299 105.043C190.834 105.043 190.424 104.934 190.062 104.715C189.692 104.496 189.412 104.202 189.214 103.833C189.016 103.464 188.92 103.054 188.92 102.603C188.92 102.151 189.016 101.741 189.214 101.365C189.405 100.996 189.686 100.695 190.055 100.477C190.417 100.258 190.834 100.148 191.299 100.148C191.736 100.148 192.133 100.251 192.488 100.456C192.844 100.661 193.131 100.955 193.343 101.331C193.548 101.707 193.657 102.131 193.657 102.603C193.657 103.074 193.548 103.498 193.343 103.867C193.131 104.243 192.844 104.53 192.488 104.735C192.126 104.94 191.729 105.043 191.299 105.043Z" fill="#5B5863"/>
<path d="M200.179 99.1025C199.666 99.1025 199.194 99.2119 198.771 99.4307C198.34 99.6494 197.984 99.957 197.704 100.36H197.684V99.1846H196.549V106H197.684V102.596C197.684 101.844 197.875 101.242 198.265 100.805C198.654 100.367 199.174 100.142 199.823 100.142C200.083 100.142 200.309 100.183 200.507 100.251C200.698 100.326 200.876 100.442 201.026 100.606C201.177 100.771 201.286 100.996 201.368 101.27C201.45 101.55 201.491 101.885 201.491 102.274V106.007H202.626V101.96C202.626 101.017 202.407 100.299 201.97 99.8203C201.532 99.3418 200.938 99.1025 200.179 99.1025Z" fill="#5B5863"/>
<path d="M208.3 99.1025C207.787 99.1025 207.315 99.2119 206.892 99.4307C206.461 99.6494 206.105 99.957 205.825 100.36H205.805V99.1846H204.67V106H205.805V102.596C205.805 101.844 205.996 101.242 206.386 100.805C206.775 100.367 207.295 100.142 207.944 100.142C208.204 100.142 208.43 100.183 208.628 100.251C208.819 100.326 208.997 100.442 209.147 100.606C209.298 100.771 209.407 100.996 209.489 101.27C209.571 101.55 209.612 101.885 209.612 102.274V106.007H210.747V101.96C210.747 101.017 210.528 100.299 210.091 99.8203C209.653 99.3418 209.059 99.1025 208.3 99.1025Z" fill="#5B5863"/>
<path d="M218.8 102.486C218.8 101.844 218.663 101.263 218.403 100.75C218.144 100.237 217.768 99.834 217.289 99.54C216.804 99.2529 216.25 99.1025 215.628 99.1025C215.17 99.1025 214.739 99.1914 214.343 99.3623C213.939 99.54 213.591 99.7793 213.304 100.08C213.017 100.381 212.784 100.75 212.62 101.188C212.449 101.625 212.367 102.09 212.367 102.596C212.367 103.108 212.449 103.58 212.627 104.018C212.798 104.455 213.037 104.824 213.338 105.125C213.639 105.426 213.994 105.665 214.411 105.836C214.828 106.007 215.279 106.089 215.758 106.089C216.353 106.089 216.886 105.979 217.351 105.747C217.815 105.515 218.205 105.2 218.513 104.804L217.72 104.127C217.487 104.407 217.214 104.633 216.893 104.797C216.564 104.961 216.202 105.043 215.799 105.043C215.184 105.043 214.671 104.858 214.261 104.476C213.844 104.093 213.598 103.587 213.529 102.951H218.766C218.786 102.814 218.8 102.664 218.8 102.486ZM215.689 100.148C216.223 100.148 216.66 100.319 217.009 100.654C217.357 100.996 217.576 101.447 217.672 102.008H213.557C213.659 101.44 213.905 100.989 214.295 100.654C214.685 100.319 215.149 100.148 215.689 100.148Z" fill="#5B5863"/>
<path d="M223.469 106.089C224.05 106.089 224.59 105.986 225.082 105.768C225.574 105.556 225.978 105.275 226.285 104.934L225.499 104.229C225.28 104.476 225 104.674 224.658 104.824C224.316 104.975 223.947 105.043 223.564 105.043C222.881 105.043 222.32 104.817 221.89 104.366C221.459 103.915 221.247 103.32 221.247 102.596C221.247 101.871 221.459 101.283 221.89 100.825C222.32 100.374 222.881 100.142 223.564 100.142C223.954 100.142 224.316 100.224 224.645 100.374C224.973 100.524 225.253 100.736 225.472 100.996L226.258 100.312C225.93 99.9229 225.52 99.6221 225.027 99.4102C224.535 99.2051 224.029 99.0957 223.51 99.0957C222.847 99.0957 222.259 99.2461 221.739 99.54C221.22 99.8408 220.816 100.251 220.529 100.784C220.242 101.317 220.099 101.926 220.099 102.603C220.099 103.286 220.242 103.888 220.529 104.421C220.816 104.954 221.213 105.364 221.726 105.651C222.238 105.945 222.819 106.089 223.469 106.089Z" fill="#5B5863"/>
<path d="M229.758 106.089C230.004 106.089 230.243 106.068 230.462 106.027C230.681 105.986 230.852 105.932 230.988 105.877C231.118 105.822 231.255 105.747 231.405 105.665L231.104 104.674C230.694 104.906 230.312 105.022 229.956 105.022C229.642 105.022 229.43 104.927 229.307 104.735C229.184 104.544 229.122 104.229 229.122 103.799V100.169H231.378V99.1846H229.122V96.7305L227.987 96.8535V99.1846H227.119V100.169H227.987V103.97C227.987 105.385 228.575 106.089 229.758 106.089Z" fill="#5B5863"/>
<path d="M88.1259 41.0601H76.9814C76.4748 41.0601 76.0911 41.5048 76.1832 41.9954C76.1985 42.1027 76.2139 42.21 76.2292 42.3173C76.306 42.7466 76.4288 43.1605 76.5976 43.5745C76.8586 44.2031 77.273 44.755 77.841 45.2456C78.3936 45.7362 79.1765 45.9662 80.1743 45.9662C81.1721 45.9662 81.9396 45.7209 82.5076 45.2456C82.9527 44.8623 83.2904 44.433 83.5514 43.9731C83.6896 43.7278 83.9659 43.5745 84.2422 43.5745H87.3583C87.9263 43.5745 88.3101 44.1417 88.1259 44.663C87.9877 45.0616 87.8188 45.4449 87.6193 45.7822C87.2662 46.4108 86.8825 46.9627 86.4526 47.4226C86.0228 47.8826 85.5777 48.2659 85.0865 48.5725C84.5952 48.8791 84.1347 49.1244 83.6742 49.3237C82.5536 49.753 81.387 49.983 80.1436 49.983C78.5164 49.9523 77.0735 49.615 75.8147 48.9711C75.2775 48.6798 74.7556 48.3118 74.2336 47.8672C73.7117 47.4226 73.2512 46.8554 72.8521 46.1808C72.453 45.5062 72.1306 44.6937 71.885 43.7431C71.6394 42.7926 71.5166 41.7041 71.5166 40.4316C71.5166 39.1744 71.6394 38.0705 71.885 37.12C72.1306 36.1695 72.453 35.3569 72.8521 34.667C73.2512 33.9771 73.7117 33.4098 74.2336 32.9499C74.7556 32.49 75.2775 32.122 75.8147 31.8307C77.0581 31.1561 78.4857 30.8035 80.0975 30.7422C80.1282 30.7422 80.1589 30.7422 80.1896 30.7422C81.5098 30.8035 82.7378 31.0795 83.8891 31.5701C84.3803 31.7847 84.8715 32.076 85.3628 32.4286C85.854 32.7812 86.3145 33.2105 86.7443 33.7318C87.1741 34.2531 87.5425 34.8663 87.8649 35.5869C88.1873 36.3074 88.4329 37.1353 88.571 38.0705C88.6171 38.4385 88.6631 38.8064 88.6938 39.1897C88.7245 39.573 88.7552 39.987 88.7552 40.4316C88.7706 40.4009 88.8627 41.0601 88.1259 41.0601ZM82.8146 38.0399C83.3979 38.0399 83.8124 37.4266 83.5514 36.9054C83.5514 36.9054 83.5514 36.89 83.5361 36.89C83.3518 36.5068 83.1062 36.1541 82.7839 35.8322C82.4615 35.5255 82.0931 35.2649 81.6633 35.0809C81.2335 34.897 80.7116 34.805 80.1436 34.805C79.5603 34.805 79.0537 34.897 78.6239 35.0809C78.1941 35.2649 77.8103 35.5102 77.5033 35.8322C77.1809 36.1541 76.9353 36.4914 76.7358 36.89V36.9054C76.4748 37.442 76.8893 38.0552 77.4726 38.0552H82.8146V38.0399Z" fill="#A12B52"/>
<path d="M69.291 23C66.8349 23 64.8547 24.9777 64.8547 27.4307V40.263C64.8547 40.7996 64.824 41.3362 64.7626 41.9035C64.7012 42.4554 64.5477 42.9613 64.3021 43.4213C64.0565 43.8812 63.6881 44.2645 63.1968 44.5711C62.7056 44.8777 61.9995 45.0311 61.1092 45.0311C60.2188 45.0311 59.5127 44.8777 59.0215 44.5711C58.5303 44.2645 58.1619 43.8812 57.9163 43.4213C57.6707 42.9613 57.5172 42.4554 57.4558 41.9035C57.3944 41.3516 57.3636 40.7996 57.3636 40.263V27.0321C54.9076 27.0321 52.9273 29.0099 52.9273 31.4629V40.2477C52.9273 40.7843 52.8966 41.3209 52.8352 41.8881C52.7738 42.4401 52.6203 42.946 52.3747 43.4059C52.1291 43.8659 51.7607 44.2492 51.2695 44.5558C50.7783 44.8624 50.0722 45.0157 49.1818 45.0157C48.2915 45.0157 47.5854 44.8624 47.0942 44.5558C46.6029 44.2492 46.2345 43.8659 45.9889 43.4059C45.7433 42.946 45.5898 42.4401 45.5284 41.8881C45.467 41.3362 45.4363 40.7843 45.4363 40.2477V31.0643C42.9802 31.0643 41 33.0573 41 35.495V40.2477C41 41.5049 41.1228 42.6087 41.3684 43.5593C41.614 44.5098 41.921 45.3224 42.2894 46.0123C42.6732 46.7022 43.103 47.2694 43.5942 47.7294C44.0855 48.1893 44.592 48.5573 45.0986 48.8486C46.2806 49.5231 47.6468 49.8911 49.1665 49.9371C50.7169 49.8911 52.0831 49.5231 53.2804 48.8486C53.787 48.5573 54.2935 48.1893 54.7694 47.7294C54.8922 47.6067 55.015 47.4841 55.1378 47.3461C55.2606 47.4841 55.3834 47.6067 55.5062 47.7294C55.9975 48.1893 56.504 48.5573 57.0106 48.8486C58.1926 49.5231 59.5588 49.8911 61.0785 49.9371C62.6289 49.8911 63.9951 49.5231 65.1924 48.8486C65.699 48.5573 66.2055 48.1893 66.6814 47.7294C67.1726 47.2694 67.6024 46.7022 67.9862 46.0123C68.37 45.3224 68.677 44.5098 68.9072 43.5593C69.1375 42.6087 69.2449 41.5202 69.2449 40.2477L69.291 23Z" fill="#A12B52"/>
<path d="M102.203 48.818C102.08 49.1707 101.758 49.416 101.374 49.416H99.0406H96.7073C96.3389 49.416 96.0012 49.1707 95.8784 48.818L90.4597 32.2143C90.2755 31.647 90.6899 31.0798 91.2886 31.0798H93.9135C94.282 31.0798 94.6197 31.3251 94.7425 31.6777L98.2117 42.2716C98.4726 43.0688 99.5932 43.0688 99.8542 42.2716L101.85 36.1697L105.196 25.9284C105.933 23.7054 108.328 22.4789 110.553 23.2148L102.203 48.818Z" fill="#EF4273"/>
<path d="M123.602 34.5444C123.203 33.8545 122.742 33.2873 122.22 32.8273C121.699 32.3674 121.177 31.9994 120.639 31.7082C119.381 31.0336 117.953 30.6656 116.372 30.6196C114.852 30.6196 113.563 30.8496 112.504 31.2942C111.444 31.7388 110.569 32.3827 109.879 33.2106C109.188 34.0385 108.697 35.0504 108.374 36.2462C108.067 37.4421 107.898 38.7912 107.898 40.309V54.4138C107.898 55.0117 108.374 55.487 108.973 55.487H111.122C111.721 55.487 112.197 55.0117 112.197 54.4138V47.3154C112.427 47.6374 112.688 47.9133 112.964 48.1586C113.593 48.6952 114.208 49.0785 114.806 49.3085C115.482 49.5691 116.172 49.7224 116.894 49.7684C116.955 49.7684 117.001 49.7684 117.063 49.7684C118.521 49.7377 119.826 49.4005 120.962 48.7565C121.468 48.4653 121.96 48.0973 122.435 47.6527C122.911 47.2081 123.326 46.6408 123.709 45.9663C124.078 45.2917 124.385 44.4791 124.615 43.5439C124.845 42.6087 124.953 41.5048 124.953 40.2477C124.953 38.9905 124.83 37.902 124.569 36.9515C124.323 36.0316 124.001 35.219 123.602 34.5444ZM120.363 42.0108C120.271 42.6394 120.071 43.2219 119.78 43.7585C119.488 44.2951 119.074 44.7551 118.536 45.1077C117.999 45.4756 117.278 45.6443 116.387 45.6443C115.497 45.6443 114.775 45.4603 114.238 45.1077C113.701 44.7397 113.271 44.2951 112.964 43.7585C112.657 43.2219 112.458 42.6394 112.365 42.0108C112.273 41.3822 112.227 40.7996 112.227 40.2783C112.227 39.6344 112.273 38.9905 112.35 38.3466C112.442 37.7027 112.611 37.1354 112.887 36.6142C113.164 36.0929 113.578 35.679 114.131 35.3723C114.683 35.0657 115.436 34.8971 116.372 34.8971C117.262 34.8971 117.984 35.081 118.521 35.4337C119.058 35.8016 119.488 36.2462 119.764 36.7828C120.056 37.3194 120.24 37.9173 120.348 38.5306C120.44 39.1592 120.486 39.7417 120.486 40.263C120.501 40.7996 120.455 41.3822 120.363 42.0108Z" fill="#EF4273"/>
<path d="M141.808 36.2005C141.439 35.0967 140.963 34.1921 140.38 33.4715C139.797 32.751 139.167 32.199 138.492 31.8158C137.817 31.4325 137.172 31.1412 136.573 30.9725C135.975 30.7886 135.437 30.6966 134.992 30.6659C134.547 30.6353 134.286 30.6353 134.209 30.6353C134.117 30.6353 133.841 30.6506 133.411 30.6659C132.981 30.6966 132.459 30.7886 131.861 30.9725C131.262 31.1565 130.617 31.4325 129.942 31.8158C129.266 32.199 128.637 32.751 128.054 33.4715C127.47 34.1921 126.994 35.112 126.626 36.2005C126.258 37.3044 126.058 38.6535 126.058 40.2633V48.4502C126.058 48.9868 126.488 49.4161 127.025 49.4161H129.497C130.034 49.4161 130.464 48.9868 130.464 48.4502V40.2786C130.464 39.742 130.51 39.2054 130.602 38.6535C130.694 38.1016 130.878 37.5957 131.139 37.1357C131.4 36.6758 131.784 36.2925 132.26 36.0012C132.736 35.6946 133.38 35.5566 134.179 35.5566C134.977 35.5566 135.621 35.7099 136.097 36.0012C136.573 36.3078 136.957 36.6758 137.218 37.1357C137.479 37.5957 137.663 38.1016 137.755 38.6535C137.847 39.2054 137.893 39.7574 137.893 40.2786V48.4502C137.893 48.9868 138.323 49.4161 138.86 49.4161H141.393C141.931 49.4161 142.36 48.9868 142.36 48.4502V40.2786C142.36 38.6535 142.176 37.3044 141.808 36.2005Z" fill="#EF4273"/>
<path d="M313 39C313 37.8954 312.105 37 311 37C309.895 37 309 37.8954 309 39C309 40.1046 309.895 41 311 41C312.105 41 313 40.1046 313 39Z" fill="#5B5863"/>
<path d="M313 48C313 46.8954 312.105 46 311 46C309.895 46 309 46.8954 309 48C309 49.1046 309.895 50 311 50C312.105 50 313 49.1046 313 48Z" fill="#5B5863"/>
<path d="M313 30C313 28.8954 312.105 28 311 28C309.895 28 309 28.8954 309 30C309 31.1046 309.895 32 311 32C312.105 32 313 31.1046 313 30Z" fill="#5B5863"/>
<g clip-path="url(#clip0)">
<path d="M313 39C313 37.8954 312.105 37 311 37C309.895 37 309 37.8954 309 39C309 40.1046 309.895 41 311 41C312.105 41 313 40.1046 313 39Z" fill="#5B5863"/>
<path d="M313 48C313 46.8954 312.105 46 311 46C309.895 46 309 46.8954 309 48C309 49.1046 309.895 50 311 50C312.105 50 313 49.1046 313 48Z" fill="#5B5863"/>
<path d="M313 30C313 28.8954 312.105 28 311 28C309.895 28 309 28.8954 309 30C309 31.1046 309.895 32 311 32C312.105 32 313 31.1046 313 30Z" fill="#5B5863"/>
</g>
<path d="M80 50.5C80 50.7761 79.5523 51 79 51C78.4477 51 78 50.7761 78 50.5C78 50.2239 78.4477 50 79 50C79.5523 50 80 50.2239 80 50.5Z" fill="#C4C4C4"/>
</g>
<defs>
<filter id="filter0_d" x="0" y="0" width="360" height="568" filterUnits="userSpaceOnUse" color-interpolation-filters="sRGB">
<feFlood flood-opacity="0" result="BackgroundImageFix"/>
<feColorMatrix in="SourceAlpha" type="matrix" values="0 0 0 0 0 0 0 0 0 0 0 0 0 0 0 0 0 0 127 0"/>
<feOffset dy="4"/>
<feGaussianBlur stdDeviation="2"/>
<feColorMatrix type="matrix" values="0 0 0 0 0 0 0 0 0 0 0 0 0 0 0 0 0 0 0.15 0"/>
<feBlend mode="normal" in2="BackgroundImageFix" result="effect1_dropShadow"/>
<feBlend mode="normal" in="SourceGraphic" in2="effect1_dropShadow" result="shape"/>
</filter>
<clipPath id="clip0">
<rect width="4" height="22" fill="white" transform="translate(309 28)"/>
</clipPath>
</defs>
</svg>
