<svg width="360" height="568" viewBox="0 0 360 568" fill="none" xmlns="http://www.w3.org/2000/svg">
<g filter="url(#filter0_d)">
<path d="M4 0H356V560H4V0Z" fill="#F9F8F4"/>
<path d="M5 523C5 500.909 22.9086 483 45 483H315C337.091 483 355 500.909 355 523V560H5V523Z" fill="#F5F3ED"/>
<path d="M211.731 435.054L208.751 443.243H208.73L205.771 435.054H204.451L208.197 445H209.298L213.044 435.054H211.731Z" fill="#AFADB2"/>
<path d="M214.712 445H215.929V441.206H217.979C218.506 441.206 218.978 441.145 219.401 441.021C219.825 440.898 220.188 440.714 220.502 440.468C220.816 440.222 221.056 439.9 221.227 439.504C221.391 439.107 221.479 438.656 221.479 438.137C221.479 437.686 221.411 437.282 221.288 436.913C221.158 436.544 220.967 436.223 220.707 435.942C220.447 435.662 220.105 435.443 219.682 435.286C219.251 435.136 218.752 435.054 218.191 435.054H214.712V445ZM215.929 440.085V436.175H218.062C218.731 436.175 219.258 436.346 219.641 436.681C220.023 437.016 220.215 437.494 220.215 438.109C220.215 438.403 220.167 438.67 220.078 438.902C219.982 439.135 219.846 439.347 219.668 439.524C219.483 439.702 219.237 439.846 218.937 439.941C218.629 440.037 218.273 440.085 217.87 440.085H215.929Z" fill="#AFADB2"/>
<path d="M230.202 435.054V442.977H230.175L224.569 435.054H223.366V445H224.583V437.159H224.61L230.182 445H231.419V435.054H230.202Z" fill="#AFADB2"/>
<path d="M237.872 445H239.096V435.054H237.872V445Z" fill="#AFADB2"/>
<path d="M241.7 445H242.917V441.206H244.968C245.494 441.206 245.966 441.145 246.39 441.021C246.813 440.898 247.176 440.714 247.49 440.468C247.805 440.222 248.044 439.9 248.215 439.504C248.379 439.107 248.468 438.656 248.468 438.137C248.468 437.686 248.399 437.282 248.276 436.913C248.146 436.544 247.955 436.223 247.695 435.942C247.436 435.662 247.094 435.443 246.67 435.286C246.239 435.136 245.74 435.054 245.18 435.054H241.7V445ZM242.917 440.085V436.175H245.05C245.72 436.175 246.246 436.346 246.629 436.681C247.012 437.016 247.203 437.494 247.203 438.109C247.203 438.403 247.155 438.67 247.066 438.902C246.971 439.135 246.834 439.347 246.656 439.524C246.472 439.702 246.226 439.846 245.925 439.941C245.617 440.037 245.262 440.085 244.858 440.085H242.917Z" fill="#AFADB2"/>
<path d="M250.662 439.702C250.881 439.702 251.072 439.627 251.229 439.47C251.387 439.319 251.469 439.128 251.469 438.909C251.469 438.69 251.387 438.499 251.229 438.342C251.072 438.191 250.881 438.109 250.662 438.109C250.43 438.109 250.238 438.191 250.081 438.342C249.924 438.499 249.849 438.69 249.849 438.909C249.849 439.06 249.883 439.189 249.951 439.312C250.02 439.436 250.122 439.531 250.245 439.6C250.368 439.668 250.512 439.702 250.662 439.702ZM250.662 445.089C250.881 445.089 251.072 445.014 251.229 444.856C251.387 444.706 251.469 444.515 251.469 444.296C251.469 444.077 251.387 443.886 251.229 443.729C251.072 443.578 250.881 443.496 250.662 443.496C250.43 443.496 250.238 443.578 250.081 443.729C249.924 443.886 249.849 444.077 249.849 444.296C249.849 444.515 249.924 444.706 250.081 444.856C250.238 445.014 250.43 445.089 250.662 445.089Z" fill="#AFADB2"/>
<path d="M206.796 466H207.972V456.389H207.001L204.301 458.371L204.875 459.246L206.796 457.804V466Z" fill="#5B5863"/>
<path d="M214.165 466H215.341V464.305H216.742V463.238H215.341V456.389H214.343L209.694 463.464V464.305H214.165V466ZM211.116 463.266L214.186 458.528V463.266H211.116Z" fill="#5B5863"/>
<path d="M221.09 459.896C220.652 459.896 220.167 459.991 219.634 460.169L219.784 457.469H223.756V456.389H218.677L218.396 461.249L219.08 461.461C219.49 461.112 220.058 460.935 220.775 460.935C221.069 460.935 221.35 460.982 221.616 461.071C221.883 461.16 222.122 461.29 222.327 461.454C222.532 461.618 222.696 461.83 222.819 462.09C222.942 462.35 223.004 462.637 223.004 462.951C223.004 463.334 222.901 463.683 222.703 463.997C222.498 464.312 222.231 464.558 221.89 464.735C221.548 464.913 221.172 464.995 220.762 464.995C220.276 464.995 219.839 464.893 219.449 464.681C219.06 464.469 218.752 464.182 218.533 463.819L217.658 464.489C217.986 464.995 218.438 465.385 219.005 465.672C219.565 465.959 220.181 466.096 220.851 466.096C221.466 466.096 222.033 465.966 222.539 465.706C223.045 465.446 223.448 465.07 223.749 464.592C224.043 464.113 224.193 463.573 224.193 462.965C224.193 462.65 224.152 462.356 224.077 462.069C224.002 461.789 223.899 461.536 223.763 461.311C223.626 461.092 223.469 460.887 223.277 460.709C223.086 460.531 222.881 460.381 222.648 460.258C222.416 460.142 222.17 460.053 221.91 459.991C221.644 459.93 221.37 459.896 221.09 459.896Z" fill="#5B5863"/>
<path d="M226.442 466.089C226.586 466.089 226.723 466.055 226.846 465.986C226.969 465.918 227.064 465.815 227.14 465.692C227.208 465.569 227.249 465.439 227.249 465.296C227.249 465.077 227.167 464.886 227.01 464.729C226.853 464.578 226.661 464.496 226.442 464.496C226.21 464.496 226.019 464.578 225.861 464.729C225.704 464.886 225.629 465.077 225.629 465.296C225.629 465.515 225.704 465.706 225.861 465.856C226.019 466.014 226.21 466.089 226.442 466.089Z" fill="#5B5863"/>
<path d="M232.123 459.896C231.686 459.896 231.2 459.991 230.667 460.169L230.817 457.469H234.789V456.389H229.71L229.43 461.249L230.113 461.461C230.523 461.112 231.091 460.935 231.809 460.935C232.103 460.935 232.383 460.982 232.649 461.071C232.916 461.16 233.155 461.29 233.36 461.454C233.565 461.618 233.729 461.83 233.853 462.09C233.976 462.35 234.037 462.637 234.037 462.951C234.037 463.334 233.935 463.683 233.736 463.997C233.531 464.312 233.265 464.558 232.923 464.735C232.581 464.913 232.205 464.995 231.795 464.995C231.31 464.995 230.872 464.893 230.482 464.681C230.093 464.469 229.785 464.182 229.566 463.819L228.691 464.489C229.02 464.995 229.471 465.385 230.038 465.672C230.599 465.959 231.214 466.096 231.884 466.096C232.499 466.096 233.066 465.966 233.572 465.706C234.078 465.446 234.481 465.07 234.782 464.592C235.076 464.113 235.227 463.573 235.227 462.965C235.227 462.65 235.186 462.356 235.11 462.069C235.035 461.789 234.933 461.536 234.796 461.311C234.659 461.092 234.502 460.887 234.311 460.709C234.119 460.531 233.914 460.381 233.682 460.258C233.449 460.142 233.203 460.053 232.943 459.991C232.677 459.93 232.403 459.896 232.123 459.896Z" fill="#5B5863"/>
<path d="M241.502 460.805V460.784C241.632 460.743 241.762 460.675 241.892 460.586C242.021 460.504 242.145 460.395 242.261 460.265C242.377 460.142 242.479 459.998 242.568 459.848C242.65 459.697 242.719 459.526 242.773 459.335C242.828 459.144 242.855 458.952 242.855 458.747C242.855 458.022 242.582 457.428 242.049 456.977C241.509 456.525 240.805 456.3 239.937 456.3C239.526 456.3 239.144 456.361 238.788 456.471C238.433 456.58 238.132 456.737 237.872 456.942C237.612 457.147 237.407 457.407 237.257 457.715C237.106 458.029 237.038 458.371 237.038 458.747C237.038 459.239 237.168 459.67 237.441 460.039C237.715 460.415 238.029 460.661 238.385 460.784V460.805C237.845 460.976 237.407 461.283 237.072 461.734C236.73 462.186 236.566 462.726 236.566 463.354C236.566 463.874 236.703 464.339 236.99 464.749C237.277 465.166 237.674 465.494 238.193 465.727C238.706 465.966 239.287 466.082 239.937 466.082C240.565 466.082 241.14 465.973 241.652 465.754C242.165 465.535 242.575 465.214 242.876 464.797C243.177 464.38 243.334 463.901 243.334 463.354C243.334 462.726 243.163 462.186 242.828 461.734C242.486 461.283 242.049 460.976 241.502 460.805ZM239.943 457.353C240.456 457.353 240.88 457.496 241.222 457.77C241.557 458.05 241.728 458.405 241.728 458.836C241.728 459.273 241.557 459.629 241.229 459.889C240.9 460.155 240.47 460.285 239.943 460.285C239.417 460.285 238.993 460.155 238.665 459.889C238.337 459.629 238.173 459.273 238.173 458.836C238.173 458.426 238.337 458.07 238.665 457.783C238.993 457.496 239.424 457.353 239.943 457.353ZM239.937 465.016C239.321 465.016 238.802 464.852 238.385 464.51C237.968 464.168 237.763 463.744 237.763 463.225C237.763 462.678 237.961 462.233 238.357 461.892C238.754 461.55 239.28 461.379 239.937 461.379C240.593 461.379 241.119 461.55 241.516 461.892C241.912 462.233 242.117 462.678 242.117 463.225C242.117 463.717 241.912 464.141 241.509 464.489C241.099 464.845 240.579 465.016 239.937 465.016Z" fill="#5B5863"/>
<path d="M246.649 466H247.825V456.389H246.854L244.154 458.371L244.729 459.246L246.649 457.804V466Z" fill="#5B5863"/>
<path d="M250.806 466.089C250.949 466.089 251.086 466.055 251.209 465.986C251.332 465.918 251.428 465.815 251.503 465.692C251.571 465.569 251.612 465.439 251.612 465.296C251.612 465.077 251.53 464.886 251.373 464.729C251.216 464.578 251.024 464.496 250.806 464.496C250.573 464.496 250.382 464.578 250.225 464.729C250.067 464.886 249.992 465.077 249.992 465.296C249.992 465.515 250.067 465.706 250.225 465.856C250.382 466.014 250.573 466.089 250.806 466.089Z" fill="#5B5863"/>
<path d="M254.839 464.92V464.899L257.341 462.363C257.929 461.769 258.346 461.222 258.599 460.716C258.852 460.21 258.981 459.684 258.981 459.13C258.981 458.699 258.899 458.303 258.735 457.94C258.571 457.585 258.359 457.284 258.093 457.045C257.819 456.812 257.512 456.628 257.163 456.498C256.808 456.368 256.445 456.3 256.062 456.3C255.57 456.3 255.126 456.382 254.729 456.539C254.333 456.703 253.998 456.915 253.731 457.182C253.465 457.448 253.239 457.763 253.055 458.125L253.923 458.72C254.374 457.845 255.064 457.4 255.987 457.4C256.514 457.4 256.944 457.578 257.286 457.927C257.628 458.275 257.799 458.713 257.799 459.246C257.799 459.479 257.758 459.711 257.689 459.93C257.614 460.148 257.505 460.374 257.361 460.593C257.211 460.812 257.061 461.017 256.91 461.194C256.753 461.379 256.562 461.591 256.329 461.83L253.041 465.187L253.055 466H259.104V464.92H254.839Z" fill="#5B5863"/>
<path d="M264.936 461.01V460.996C265.373 460.791 265.708 460.49 265.954 460.107C266.2 459.725 266.323 459.294 266.323 458.815C266.323 458.296 266.187 457.845 265.92 457.462C265.653 457.079 265.298 456.785 264.854 456.594C264.409 456.402 263.91 456.3 263.363 456.3C262.693 456.3 262.119 456.443 261.627 456.717C261.135 456.99 260.759 457.359 260.506 457.824L261.456 458.344C261.887 457.715 262.516 457.4 263.343 457.4C263.849 457.4 264.279 457.551 264.621 457.838C264.963 458.132 265.141 458.508 265.141 458.973C265.141 459.185 265.106 459.383 265.038 459.561C264.97 459.738 264.867 459.902 264.73 460.046C264.594 460.189 264.416 460.299 264.19 460.381C263.958 460.463 263.698 460.504 263.404 460.504H262.468V461.529H263.268C263.609 461.529 263.924 461.577 264.197 461.666C264.471 461.762 264.689 461.885 264.86 462.042C265.024 462.206 265.154 462.384 265.243 462.589C265.332 462.794 265.38 463.013 265.38 463.245C265.38 463.587 265.291 463.895 265.113 464.161C264.936 464.428 264.696 464.633 264.396 464.77C264.095 464.913 263.76 464.981 263.397 464.981C263.028 464.981 262.693 464.934 262.399 464.824C262.105 464.722 261.859 464.578 261.668 464.387C261.47 464.202 261.312 463.977 261.196 463.71L260.178 464.175C260.424 464.749 260.834 465.214 261.408 465.562C261.982 465.918 262.673 466.089 263.466 466.089C264.054 466.089 264.58 465.979 265.052 465.761C265.523 465.542 265.893 465.228 266.166 464.817C266.439 464.407 266.576 463.942 266.576 463.423C266.576 462.862 266.426 462.37 266.139 461.946C265.845 461.529 265.441 461.215 264.936 461.01Z" fill="#5B5863"/>
<path d="M272.12 466H273.296V464.305H274.697V463.238H273.296V456.389H272.298L267.649 463.464V464.305H272.12V466ZM269.071 463.266L272.141 458.528V463.266H269.071Z" fill="#5B5863"/>
<path d="M276.632 466.089C276.775 466.089 276.912 466.055 277.035 465.986C277.158 465.918 277.254 465.815 277.329 465.692C277.397 465.569 277.438 465.439 277.438 465.296C277.438 465.077 277.356 464.886 277.199 464.729C277.042 464.578 276.851 464.496 276.632 464.496C276.399 464.496 276.208 464.578 276.051 464.729C275.894 464.886 275.818 465.077 275.818 465.296C275.818 465.515 275.894 465.706 276.051 465.856C276.208 466.014 276.399 466.089 276.632 466.089Z" fill="#5B5863"/>
<path d="M282.312 459.896C281.875 459.896 281.39 459.991 280.856 460.169L281.007 457.469H284.979V456.389H279.899L279.619 461.249L280.303 461.461C280.713 461.112 281.28 460.935 281.998 460.935C282.292 460.935 282.572 460.982 282.839 461.071C283.105 461.16 283.345 461.29 283.55 461.454C283.755 461.618 283.919 461.83 284.042 462.09C284.165 462.35 284.227 462.637 284.227 462.951C284.227 463.334 284.124 463.683 283.926 463.997C283.721 464.312 283.454 464.558 283.112 464.735C282.771 464.913 282.395 464.995 281.984 464.995C281.499 464.995 281.062 464.893 280.672 464.681C280.282 464.469 279.975 464.182 279.756 463.819L278.881 464.489C279.209 464.995 279.66 465.385 280.228 465.672C280.788 465.959 281.403 466.096 282.073 466.096C282.688 466.096 283.256 465.966 283.762 465.706C284.268 465.446 284.671 465.07 284.972 464.592C285.266 464.113 285.416 463.573 285.416 462.965C285.416 462.65 285.375 462.356 285.3 462.069C285.225 461.789 285.122 461.536 284.985 461.311C284.849 461.092 284.691 460.887 284.5 460.709C284.309 460.531 284.104 460.381 283.871 460.258C283.639 460.142 283.393 460.053 283.133 459.991C282.866 459.93 282.593 459.896 282.312 459.896Z" fill="#5B5863"/>
<path d="M290.878 466H292.054V464.305H293.455V463.238H292.054V456.389H291.056L286.407 463.464V464.305H290.878V466ZM287.829 463.266L290.898 458.528V463.266H287.829Z" fill="#5B5863"/>
<path d="M45.333 445H46.5566V435.054H45.333V445Z" fill="#AFADB2"/>
<path d="M49.1611 445H50.3779V441.206H52.4287C52.9551 441.206 53.4268 441.145 53.8506 441.021C54.2744 440.898 54.6367 440.714 54.9512 440.468C55.2656 440.222 55.5049 439.9 55.6758 439.504C55.8398 439.107 55.9287 438.656 55.9287 438.137C55.9287 437.686 55.8604 437.282 55.7373 436.913C55.6074 436.544 55.416 436.223 55.1562 435.942C54.8965 435.662 54.5547 435.443 54.1309 435.286C53.7002 435.136 53.2012 435.054 52.6406 435.054H49.1611V445ZM50.3779 440.085V436.175H52.5107C53.1807 436.175 53.707 436.346 54.0898 436.681C54.4727 437.016 54.6641 437.494 54.6641 438.109C54.6641 438.403 54.6162 438.67 54.5273 438.902C54.4316 439.135 54.2949 439.347 54.1172 439.524C53.9326 439.702 53.6865 439.846 53.3857 439.941C53.0781 440.037 52.7227 440.085 52.3193 440.085H50.3779Z" fill="#AFADB2"/>
<path d="M58.123 439.702C58.3418 439.702 58.5332 439.627 58.6904 439.47C58.8477 439.319 58.9297 439.128 58.9297 438.909C58.9297 438.69 58.8477 438.499 58.6904 438.342C58.5332 438.191 58.3418 438.109 58.123 438.109C57.8906 438.109 57.6992 438.191 57.542 438.342C57.3848 438.499 57.3096 438.69 57.3096 438.909C57.3096 439.06 57.3438 439.189 57.4121 439.312C57.4805 439.436 57.583 439.531 57.7061 439.6C57.8291 439.668 57.9727 439.702 58.123 439.702ZM58.123 445.089C58.3418 445.089 58.5332 445.014 58.6904 444.856C58.8477 444.706 58.9297 444.515 58.9297 444.296C58.9297 444.077 58.8477 443.886 58.6904 443.729C58.5332 443.578 58.3418 443.496 58.123 443.496C57.8906 443.496 57.6992 443.578 57.542 443.729C57.3848 443.886 57.3096 444.077 57.3096 444.296C57.3096 444.515 57.3848 444.706 57.542 444.856C57.6992 445.014 57.8906 445.089 58.123 445.089Z" fill="#AFADB2"/>
<path d="M46.7959 466H47.9717V456.389H47.001L44.3008 458.371L44.875 459.246L46.7959 457.804V466Z" fill="#5B5863"/>
<path d="M53.249 456.3C52.6201 456.3 52.0596 456.437 51.5537 456.71C51.0479 456.983 50.6445 457.366 50.3574 457.845C50.0703 458.323 49.9268 458.856 49.9268 459.444C49.9268 460.06 50.0498 460.593 50.3096 461.058C50.5693 461.522 50.918 461.871 51.3555 462.11C51.793 462.35 52.292 462.466 52.8457 462.466C53.1533 462.466 53.4541 462.432 53.748 462.363C54.042 462.295 54.3154 462.199 54.5684 462.069C54.8145 461.946 55.0469 461.789 55.252 461.611L55.2725 461.625C55.1289 462.145 54.9238 462.609 54.6504 463.033C54.377 463.457 54.0557 463.819 53.6934 464.113C53.3242 464.414 52.9414 464.66 52.5381 464.858C52.1348 465.063 51.7109 465.221 51.2598 465.33L51.6084 466.335C52.1143 466.246 52.6064 466.082 53.085 465.85C53.5635 465.617 54.0215 465.316 54.4521 464.94C54.876 464.571 55.252 464.147 55.5732 463.669C55.8945 463.19 56.1475 462.644 56.3389 462.021C56.5303 461.406 56.626 460.757 56.626 460.073C56.626 459.513 56.5371 459 56.3662 458.521C56.1885 458.05 55.9492 457.653 55.6484 457.325C55.3477 457.004 54.9854 456.751 54.5752 456.573C54.165 456.396 53.7207 456.3 53.249 456.3ZM53.1055 461.386C52.5039 461.386 52.0254 461.208 51.6562 460.853C51.2871 460.497 51.1094 460.025 51.1094 459.451C51.1094 459.178 51.1572 458.911 51.2666 458.658C51.3691 458.412 51.5127 458.193 51.6973 458.002C51.8818 457.817 52.1074 457.667 52.3809 457.558C52.6543 457.448 52.9482 457.394 53.2695 457.394C53.6934 457.394 54.0693 457.503 54.4043 457.715C54.7324 457.927 54.999 458.228 55.1904 458.624C55.3818 459.021 55.4775 459.472 55.4775 459.978V460.053C55.2246 460.456 54.8828 460.777 54.459 461.023C54.0352 461.27 53.584 461.386 53.1055 461.386Z" fill="#5B5863"/>
<path d="M59.5928 464.92V464.899L62.0947 462.363C62.6826 461.769 63.0996 461.222 63.3525 460.716C63.6055 460.21 63.7354 459.684 63.7354 459.13C63.7354 458.699 63.6533 458.303 63.4893 457.94C63.3252 457.585 63.1133 457.284 62.8467 457.045C62.5732 456.812 62.2656 456.628 61.917 456.498C61.5615 456.368 61.1992 456.3 60.8164 456.3C60.3242 456.3 59.8799 456.382 59.4834 456.539C59.0869 456.703 58.752 456.915 58.4854 457.182C58.2188 457.448 57.9932 457.763 57.8086 458.125L58.6768 458.72C59.1279 457.845 59.8184 457.4 60.7412 457.4C61.2676 457.4 61.6982 457.578 62.04 457.927C62.3818 458.275 62.5527 458.713 62.5527 459.246C62.5527 459.479 62.5117 459.711 62.4434 459.93C62.3682 460.148 62.2588 460.374 62.1152 460.593C61.9648 460.812 61.8145 461.017 61.6641 461.194C61.5068 461.379 61.3154 461.591 61.083 461.83L57.7949 465.187L57.8086 466H63.8584V464.92H59.5928Z" fill="#5B5863"/>
<path d="M66.2236 466.089C66.3672 466.089 66.5039 466.055 66.627 465.986C66.75 465.918 66.8457 465.815 66.9209 465.692C66.9893 465.569 67.0303 465.439 67.0303 465.296C67.0303 465.077 66.9482 464.886 66.791 464.729C66.6338 464.578 66.4424 464.496 66.2236 464.496C65.9912 464.496 65.7998 464.578 65.6426 464.729C65.4854 464.886 65.4102 465.077 65.4102 465.296C65.4102 465.515 65.4854 465.706 65.6426 465.856C65.7998 466.014 65.9912 466.089 66.2236 466.089Z" fill="#5B5863"/>
<path d="M70.1885 466H71.3643V456.389H70.3936L67.6934 458.371L68.2676 459.246L70.1885 457.804V466Z" fill="#5B5863"/>
<path d="M77.1338 459.937C76.833 459.937 76.5391 459.971 76.252 460.039C75.9648 460.107 75.6982 460.21 75.4521 460.333C75.2061 460.463 74.9805 460.613 74.7822 460.791L74.7686 460.784C74.8711 460.374 75.0215 459.991 75.2129 459.636C75.4043 459.28 75.623 458.966 75.8691 458.692C76.1152 458.419 76.3887 458.18 76.6895 457.961C76.9902 457.742 77.3047 457.564 77.6328 457.421C77.9609 457.277 78.3027 457.161 78.665 457.065L78.3096 456.061C77.7969 456.156 77.3047 456.32 76.8262 456.56C76.3477 456.799 75.9033 457.106 75.4932 457.489C75.083 457.872 74.7207 458.303 74.4131 458.781C74.0986 459.267 73.8594 459.82 73.6816 460.436C73.5039 461.051 73.4219 461.7 73.4219 462.37C73.4219 462.917 73.5039 463.423 73.6816 463.888C73.8525 464.353 74.0918 464.749 74.3926 465.07C74.6934 465.392 75.0557 465.645 75.4727 465.822C75.8896 466 76.334 466.089 76.8125 466.089C77.4346 466.089 78.002 465.959 78.5078 465.686C79.0137 465.419 79.417 465.05 79.7041 464.571C79.9912 464.1 80.1348 463.573 80.1348 462.985C80.1348 462.363 80.0049 461.816 79.7451 461.352C79.4854 460.887 79.1299 460.538 78.6787 460.299C78.2275 460.06 77.708 459.937 77.1338 459.937ZM76.7988 464.981C76.1426 464.981 75.6094 464.749 75.1924 464.284C74.7754 463.819 74.5703 463.204 74.5703 462.445V462.35C74.8027 461.974 75.124 461.659 75.5205 461.406C75.917 461.153 76.3682 461.023 76.874 461.023C77.5029 461.023 78.0088 461.208 78.3916 461.563C78.7676 461.919 78.959 462.391 78.959 462.979C78.959 463.539 78.7539 464.011 78.3506 464.4C77.9404 464.79 77.4277 464.981 76.7988 464.981Z" fill="#5B5863"/>
<path d="M86.3555 460.805V460.784C86.4854 460.743 86.6152 460.675 86.7451 460.586C86.875 460.504 86.998 460.395 87.1143 460.265C87.2305 460.142 87.333 459.998 87.4219 459.848C87.5039 459.697 87.5723 459.526 87.627 459.335C87.6816 459.144 87.709 458.952 87.709 458.747C87.709 458.022 87.4355 457.428 86.9023 456.977C86.3623 456.525 85.6582 456.3 84.79 456.3C84.3799 456.3 83.9971 456.361 83.6416 456.471C83.2861 456.58 82.9854 456.737 82.7256 456.942C82.4658 457.147 82.2607 457.407 82.1104 457.715C81.96 458.029 81.8916 458.371 81.8916 458.747C81.8916 459.239 82.0215 459.67 82.2949 460.039C82.5684 460.415 82.8828 460.661 83.2383 460.784V460.805C82.6982 460.976 82.2607 461.283 81.9258 461.734C81.584 462.186 81.4199 462.726 81.4199 463.354C81.4199 463.874 81.5566 464.339 81.8438 464.749C82.1309 465.166 82.5273 465.494 83.0469 465.727C83.5596 465.966 84.1406 466.082 84.79 466.082C85.4189 466.082 85.9932 465.973 86.5059 465.754C87.0186 465.535 87.4287 465.214 87.7295 464.797C88.0303 464.38 88.1875 463.901 88.1875 463.354C88.1875 462.726 88.0166 462.186 87.6816 461.734C87.3398 461.283 86.9023 460.976 86.3555 460.805ZM84.7969 457.353C85.3096 457.353 85.7334 457.496 86.0752 457.77C86.4102 458.05 86.5811 458.405 86.5811 458.836C86.5811 459.273 86.4102 459.629 86.082 459.889C85.7539 460.155 85.3232 460.285 84.7969 460.285C84.2705 460.285 83.8467 460.155 83.5186 459.889C83.1904 459.629 83.0264 459.273 83.0264 458.836C83.0264 458.426 83.1904 458.07 83.5186 457.783C83.8467 457.496 84.2773 457.353 84.7969 457.353ZM84.79 465.016C84.1748 465.016 83.6553 464.852 83.2383 464.51C82.8213 464.168 82.6162 463.744 82.6162 463.225C82.6162 462.678 82.8145 462.233 83.2109 461.892C83.6074 461.55 84.1338 461.379 84.79 461.379C85.4463 461.379 85.9727 461.55 86.3691 461.892C86.7656 462.233 86.9707 462.678 86.9707 463.225C86.9707 463.717 86.7656 464.141 86.3623 464.489C85.9521 464.845 85.4326 465.016 84.79 465.016Z" fill="#5B5863"/>
<path d="M90.4092 466.089C90.5527 466.089 90.6895 466.055 90.8125 465.986C90.9355 465.918 91.0312 465.815 91.1064 465.692C91.1748 465.569 91.2158 465.439 91.2158 465.296C91.2158 465.077 91.1338 464.886 90.9766 464.729C90.8193 464.578 90.6279 464.496 90.4092 464.496C90.1768 464.496 89.9854 464.578 89.8281 464.729C89.6709 464.886 89.5957 465.077 89.5957 465.296C89.5957 465.515 89.6709 465.706 89.8281 465.856C89.9854 466.014 90.1768 466.089 90.4092 466.089Z" fill="#5B5863"/>
<path d="M96.0898 459.896C95.6523 459.896 95.167 459.991 94.6338 460.169L94.7842 457.469H98.7559V456.389H93.6768L93.3965 461.249L94.0801 461.461C94.4902 461.112 95.0576 460.935 95.7754 460.935C96.0693 460.935 96.3496 460.982 96.6162 461.071C96.8828 461.16 97.1221 461.29 97.3271 461.454C97.5322 461.618 97.6963 461.83 97.8193 462.09C97.9424 462.35 98.0039 462.637 98.0039 462.951C98.0039 463.334 97.9014 463.683 97.7031 463.997C97.498 464.312 97.2314 464.558 96.8896 464.735C96.5479 464.913 96.1719 464.995 95.7617 464.995C95.2764 464.995 94.8389 464.893 94.4492 464.681C94.0596 464.469 93.752 464.182 93.5332 463.819L92.6582 464.489C92.9863 464.995 93.4375 465.385 94.0049 465.672C94.5654 465.959 95.1807 466.096 95.8506 466.096C96.4658 466.096 97.0332 465.966 97.5391 465.706C98.0449 465.446 98.4482 465.07 98.749 464.592C99.043 464.113 99.1934 463.573 99.1934 462.965C99.1934 462.65 99.1523 462.356 99.0771 462.069C99.002 461.789 98.8994 461.536 98.7627 461.311C98.626 461.092 98.4688 460.887 98.2773 460.709C98.0859 460.531 97.8809 460.381 97.6484 460.258C97.416 460.142 97.1699 460.053 96.9102 459.991C96.6436 459.93 96.3701 459.896 96.0898 459.896Z" fill="#5B5863"/>
<path d="M104.655 466H105.831V464.305H107.232V463.238H105.831V456.389H104.833L100.185 463.464V464.305H104.655V466ZM101.606 463.266L104.676 458.528V463.266H101.606Z" fill="#5B5863"/>
<path d="M108.053 456.389V457.469H112.694L109.017 465.932L110.192 466.164L114 457.202V456.389H108.053Z" fill="#5B5863"/>
<path d="M115.483 466.089C115.627 466.089 115.764 466.055 115.887 465.986C116.01 465.918 116.105 465.815 116.181 465.692C116.249 465.569 116.29 465.439 116.29 465.296C116.29 465.077 116.208 464.886 116.051 464.729C115.894 464.578 115.702 464.496 115.483 464.496C115.251 464.496 115.06 464.578 114.902 464.729C114.745 464.886 114.67 465.077 114.67 465.296C114.67 465.515 114.745 465.706 114.902 465.856C115.06 466.014 115.251 466.089 115.483 466.089Z" fill="#5B5863"/>
<path d="M119.448 466H120.624V456.389H119.653L116.953 458.371L117.527 459.246L119.448 457.804V466Z" fill="#5B5863"/>
<path d="M125.908 459.896C125.471 459.896 124.985 459.991 124.452 460.169L124.603 457.469H128.574V456.389H123.495L123.215 461.249L123.898 461.461C124.309 461.112 124.876 460.935 125.594 460.935C125.888 460.935 126.168 460.982 126.435 461.071C126.701 461.16 126.94 461.29 127.146 461.454C127.351 461.618 127.515 461.83 127.638 462.09C127.761 462.35 127.822 462.637 127.822 462.951C127.822 463.334 127.72 463.683 127.521 463.997C127.316 464.312 127.05 464.558 126.708 464.735C126.366 464.913 125.99 464.995 125.58 464.995C125.095 464.995 124.657 464.893 124.268 464.681C123.878 464.469 123.57 464.182 123.352 463.819L122.477 464.489C122.805 464.995 123.256 465.385 123.823 465.672C124.384 465.959 124.999 466.096 125.669 466.096C126.284 466.096 126.852 465.966 127.357 465.706C127.863 465.446 128.267 465.07 128.567 464.592C128.861 464.113 129.012 463.573 129.012 462.965C129.012 462.65 128.971 462.356 128.896 462.069C128.82 461.789 128.718 461.536 128.581 461.311C128.444 461.092 128.287 460.887 128.096 460.709C127.904 460.531 127.699 460.381 127.467 460.258C127.234 460.142 126.988 460.053 126.729 459.991C126.462 459.93 126.188 459.896 125.908 459.896Z" fill="#5B5863"/>
<path d="M66.7861 522.366V522.354C67.1924 522.163 67.5034 521.884 67.7319 521.528C67.9604 521.173 68.0747 520.773 68.0747 520.329C68.0747 519.846 67.9478 519.427 67.7002 519.072C67.4526 518.716 67.1226 518.443 66.71 518.266C66.2974 518.088 65.834 517.993 65.3262 517.993C64.7041 517.993 64.1709 518.126 63.7139 518.38C63.2568 518.634 62.9077 518.977 62.6729 519.408L63.5552 519.891C63.9551 519.307 64.5391 519.015 65.3071 519.015C65.7769 519.015 66.1768 519.154 66.4941 519.421C66.8115 519.694 66.9766 520.043 66.9766 520.475C66.9766 520.671 66.9448 520.855 66.8813 521.021C66.8179 521.186 66.7227 521.338 66.5957 521.471C66.4688 521.604 66.3037 521.706 66.0942 521.782C65.8784 521.858 65.6372 521.896 65.3643 521.896H64.4946V522.849H65.2373C65.5547 522.849 65.8467 522.893 66.1006 522.976C66.3545 523.064 66.5576 523.179 66.7163 523.325C66.8687 523.477 66.9893 523.642 67.0718 523.833C67.1543 524.023 67.1987 524.226 67.1987 524.442C67.1987 524.759 67.1162 525.045 66.9512 525.292C66.7861 525.54 66.564 525.73 66.2847 525.857C66.0054 525.991 65.6943 526.054 65.3579 526.054C65.0151 526.054 64.7041 526.01 64.4312 525.908C64.1582 525.813 63.9297 525.68 63.752 525.502C63.5679 525.331 63.4219 525.121 63.314 524.874L62.3682 525.305C62.5967 525.838 62.9775 526.27 63.5107 526.594C64.0439 526.924 64.6851 527.083 65.4214 527.083C65.9673 527.083 66.4561 526.981 66.894 526.778C67.332 526.575 67.6748 526.283 67.9287 525.902C68.1826 525.521 68.3096 525.089 68.3096 524.607C68.3096 524.086 68.1699 523.629 67.9033 523.236C67.6304 522.849 67.2559 522.557 66.7861 522.366Z" fill="#5B5863"/>
<path d="M72.5688 517.993C71.9849 517.993 71.4644 518.12 70.9946 518.374C70.5249 518.627 70.1504 518.983 69.8838 519.427C69.6172 519.872 69.4839 520.367 69.4839 520.913C69.4839 521.484 69.5981 521.979 69.8394 522.411C70.0806 522.842 70.4043 523.166 70.8105 523.388C71.2168 523.61 71.6802 523.718 72.1943 523.718C72.48 523.718 72.7593 523.687 73.0322 523.623C73.3052 523.56 73.5591 523.471 73.7939 523.35C74.0225 523.236 74.2383 523.09 74.4287 522.925L74.4478 522.938C74.3145 523.42 74.124 523.852 73.8701 524.245C73.6162 524.639 73.3179 524.975 72.9814 525.248C72.6387 525.527 72.2832 525.756 71.9087 525.94C71.5342 526.13 71.1406 526.276 70.7217 526.378L71.0454 527.311C71.5151 527.229 71.9722 527.076 72.4165 526.86C72.8608 526.645 73.2861 526.365 73.686 526.016C74.0796 525.673 74.4287 525.28 74.7271 524.835C75.0254 524.391 75.2603 523.883 75.438 523.306C75.6157 522.734 75.7046 522.131 75.7046 521.497C75.7046 520.976 75.6221 520.5 75.4634 520.056C75.2983 519.618 75.0762 519.25 74.7969 518.945C74.5176 518.646 74.1812 518.412 73.8003 518.247C73.4194 518.082 73.0068 517.993 72.5688 517.993ZM72.4355 522.715C71.877 522.715 71.4326 522.55 71.0898 522.22C70.7471 521.89 70.582 521.452 70.582 520.919C70.582 520.665 70.6265 520.417 70.728 520.183C70.8232 519.954 70.9565 519.751 71.1279 519.573C71.2993 519.402 71.5088 519.262 71.7627 519.161C72.0166 519.059 72.2896 519.008 72.5879 519.008C72.9814 519.008 73.3306 519.11 73.6416 519.307C73.9463 519.503 74.1938 519.783 74.3716 520.151C74.5493 520.519 74.6382 520.938 74.6382 521.408V521.478C74.4033 521.852 74.0859 522.15 73.6924 522.379C73.2988 522.607 72.8799 522.715 72.4355 522.715Z" fill="#5B5863"/>
<path d="M83.3789 524.099L85.2578 527H86.4575L84.0835 523.293L86.4448 520.671H85.1689L82.0522 524.125H82.0332V517.428H80.9858V527H82.0332V525.572L83.3599 524.099H83.3789Z" fill="#5B5863"/>
<path d="M91.0024 520.595C90.5645 520.595 90.1582 520.684 89.7837 520.855C89.4092 521.033 89.0918 521.281 88.8315 521.611H88.8062V517.428H87.7524V527H88.7617V525.997H88.7808C89.0347 526.346 89.3521 526.613 89.7329 526.803C90.1138 526.994 90.5327 527.083 90.9961 527.083C91.4277 527.083 91.834 527.006 92.2148 526.854C92.5957 526.702 92.9194 526.486 93.1987 526.207C93.478 525.934 93.6938 525.597 93.8589 525.191C94.0176 524.791 94.1001 524.353 94.1001 523.877C94.1001 523.261 93.9668 522.703 93.7002 522.201C93.4336 521.706 93.0654 521.312 92.5957 521.027C92.1196 520.741 91.5864 520.595 91.0024 520.595ZM90.8945 526.118C90.6089 526.118 90.3359 526.067 90.082 525.959C89.8218 525.851 89.5933 525.699 89.4028 525.508C89.2061 525.318 89.0537 525.077 88.9395 524.797C88.8252 524.518 88.7681 524.213 88.7681 523.883C88.7681 523.458 88.8569 523.064 89.041 522.709C89.2188 522.354 89.4727 522.074 89.7964 521.871C90.1201 521.668 90.4819 521.56 90.8818 521.56C91.4912 521.56 92.0054 521.776 92.4116 522.201C92.8179 522.633 93.0273 523.191 93.0273 523.883C93.0273 524.531 92.8306 525.07 92.437 525.489C92.0435 525.908 91.5293 526.118 90.8945 526.118Z" fill="#5B5863"/>
<path d="M98.9561 520.595C98.5244 520.595 98.1182 520.684 97.75 520.855C97.3818 521.033 97.0645 521.281 96.8042 521.604H96.7788V520.671H95.7251V529.571H96.7725V526.061H96.7979C97.0518 526.391 97.3691 526.638 97.7373 526.816C98.1055 526.994 98.5054 527.083 98.9497 527.083C99.3813 527.083 99.7876 527.006 100.168 526.854C100.549 526.702 100.873 526.486 101.152 526.207C101.432 525.934 101.647 525.597 101.812 525.191C101.971 524.791 102.054 524.353 102.054 523.877C102.054 523.261 101.92 522.703 101.654 522.201C101.387 521.706 101.019 521.312 100.549 521.027C100.073 520.741 99.54 520.595 98.9561 520.595ZM98.8481 526.118C98.5688 526.118 98.3022 526.067 98.0483 525.959C97.7944 525.851 97.5659 525.699 97.3755 525.508C97.1787 525.318 97.0264 525.077 96.9121 524.797C96.7979 524.518 96.7407 524.213 96.7407 523.883C96.7407 523.458 96.8296 523.064 97.0137 522.709C97.1914 522.354 97.4453 522.074 97.769 521.871C98.0864 521.668 98.4419 521.56 98.8354 521.56C99.4448 521.56 99.959 521.776 100.365 522.201C100.771 522.633 100.981 523.191 100.981 523.883C100.981 524.531 100.784 525.07 100.391 525.489C99.9971 525.908 99.4829 526.118 98.8481 526.118Z" fill="#5B5863"/>
<path d="M105.596 527.083C105.964 527.083 106.294 527.038 106.586 526.943C106.878 526.848 107.119 526.714 107.303 526.549C107.487 526.384 107.627 526.188 107.722 525.972C107.817 525.756 107.868 525.521 107.868 525.267C107.868 525 107.824 524.772 107.741 524.575C107.602 524.264 107.316 523.998 106.884 523.782C106.745 523.718 106.332 523.553 105.659 523.287C105.456 523.21 105.297 523.147 105.177 523.09C105.05 523.033 104.929 522.963 104.809 522.88C104.688 522.804 104.599 522.715 104.542 522.614C104.485 522.519 104.459 522.411 104.459 522.29C104.459 522.074 104.555 521.896 104.751 521.757C104.948 521.617 105.177 521.547 105.431 521.547C106.04 521.547 106.605 521.77 107.113 522.208L107.659 521.376C107.024 520.855 106.294 520.595 105.481 520.595C104.878 520.595 104.377 520.76 103.983 521.084C103.583 521.408 103.387 521.808 103.387 522.29C103.387 522.519 103.418 522.722 103.488 522.906C103.558 523.096 103.647 523.249 103.755 523.375C103.856 523.502 104.002 523.623 104.18 523.737C104.358 523.852 104.523 523.94 104.688 524.01C104.853 524.086 105.05 524.163 105.291 524.239C105.323 524.251 105.374 524.271 105.443 524.29C105.577 524.34 105.678 524.378 105.742 524.404C105.805 524.429 105.894 524.461 106.002 524.499C106.104 524.537 106.186 524.575 106.237 524.601C106.288 524.626 106.351 524.664 106.427 524.702C106.503 524.747 106.554 524.785 106.592 524.823C106.624 524.861 106.662 524.899 106.7 524.95C106.738 525 106.764 525.051 106.776 525.102C106.789 525.159 106.795 525.216 106.795 525.28C106.795 525.521 106.688 525.724 106.472 525.883C106.256 526.048 105.964 526.124 105.596 526.124C105.177 526.124 104.815 526.061 104.51 525.934C104.206 525.807 103.926 525.623 103.66 525.369L103.114 526.168C103.799 526.778 104.625 527.083 105.596 527.083Z" fill="#5B5863"/>
<path d="M54.4 524.3L53 522.9L48.7 527.2V515H46.7V527.2L42.4 522.9L41 524.3L47.7 531L54.4 524.3Z" fill="#AFADB2"/>
<path d="M174.296 527H175.388V518.075H174.487L171.979 519.916L172.513 520.729L174.296 519.389V527Z" fill="#5B5863"/>
<path d="M180.295 521.332C179.889 521.332 179.438 521.42 178.943 521.585L179.083 519.078H182.771V518.075H178.054L177.794 522.588L178.429 522.785C178.81 522.461 179.336 522.296 180.003 522.296C180.276 522.296 180.536 522.341 180.784 522.423C181.031 522.506 181.253 522.626 181.444 522.779C181.634 522.931 181.787 523.128 181.901 523.369C182.015 523.61 182.072 523.877 182.072 524.169C182.072 524.524 181.977 524.848 181.793 525.14C181.603 525.432 181.355 525.661 181.038 525.826C180.72 525.991 180.371 526.067 179.99 526.067C179.54 526.067 179.133 525.972 178.771 525.775C178.41 525.578 178.124 525.312 177.921 524.975L177.108 525.597C177.413 526.067 177.832 526.429 178.359 526.695C178.879 526.962 179.451 527.089 180.073 527.089C180.644 527.089 181.171 526.968 181.641 526.727C182.11 526.486 182.485 526.137 182.764 525.692C183.037 525.248 183.177 524.747 183.177 524.182C183.177 523.89 183.139 523.617 183.069 523.35C182.999 523.09 182.904 522.855 182.777 522.646C182.65 522.442 182.504 522.252 182.326 522.087C182.148 521.922 181.958 521.782 181.742 521.668C181.526 521.56 181.298 521.478 181.057 521.42C180.809 521.363 180.555 521.332 180.295 521.332Z" fill="#5B5863"/>
<path d="M190.807 524.099L192.686 527H193.885L191.511 523.293L193.873 520.671H192.597L189.48 524.125H189.461V517.428H188.414V527H189.461V525.572L190.788 524.099H190.807Z" fill="#5B5863"/>
<path d="M198.43 520.595C197.992 520.595 197.586 520.684 197.211 520.855C196.837 521.033 196.52 521.281 196.259 521.611H196.234V517.428H195.18V527H196.189V525.997H196.208C196.462 526.346 196.78 526.613 197.161 526.803C197.542 526.994 197.96 527.083 198.424 527.083C198.855 527.083 199.262 527.006 199.643 526.854C200.023 526.702 200.347 526.486 200.626 526.207C200.906 525.934 201.122 525.597 201.287 525.191C201.445 524.791 201.528 524.353 201.528 523.877C201.528 523.261 201.395 522.703 201.128 522.201C200.861 521.706 200.493 521.312 200.023 521.027C199.547 520.741 199.014 520.595 198.43 520.595ZM198.322 526.118C198.037 526.118 197.764 526.067 197.51 525.959C197.25 525.851 197.021 525.699 196.831 525.508C196.634 525.318 196.481 525.077 196.367 524.797C196.253 524.518 196.196 524.213 196.196 523.883C196.196 523.458 196.285 523.064 196.469 522.709C196.646 522.354 196.9 522.074 197.224 521.871C197.548 521.668 197.91 521.56 198.31 521.56C198.919 521.56 199.433 521.776 199.839 522.201C200.246 522.633 200.455 523.191 200.455 523.883C200.455 524.531 200.258 525.07 199.865 525.489C199.471 525.908 198.957 526.118 198.322 526.118Z" fill="#5B5863"/>
<path d="M206.384 520.595C205.952 520.595 205.546 520.684 205.178 520.855C204.81 521.033 204.492 521.281 204.232 521.604H204.207V520.671H203.153V529.571H204.2V526.061H204.226C204.479 526.391 204.797 526.638 205.165 526.816C205.533 526.994 205.933 527.083 206.377 527.083C206.809 527.083 207.215 527.006 207.596 526.854C207.977 526.702 208.301 526.486 208.58 526.207C208.859 525.934 209.075 525.597 209.24 525.191C209.399 524.791 209.481 524.353 209.481 523.877C209.481 523.261 209.348 522.703 209.082 522.201C208.815 521.706 208.447 521.312 207.977 521.027C207.501 520.741 206.968 520.595 206.384 520.595ZM206.276 526.118C205.997 526.118 205.73 526.067 205.476 525.959C205.222 525.851 204.994 525.699 204.803 525.508C204.606 525.318 204.454 525.077 204.34 524.797C204.226 524.518 204.168 524.213 204.168 523.883C204.168 523.458 204.257 523.064 204.441 522.709C204.619 522.354 204.873 522.074 205.197 521.871C205.514 521.668 205.87 521.56 206.263 521.56C206.873 521.56 207.387 521.776 207.793 522.201C208.199 522.633 208.409 523.191 208.409 523.883C208.409 524.531 208.212 525.07 207.818 525.489C207.425 525.908 206.911 526.118 206.276 526.118Z" fill="#5B5863"/>
<path d="M213.023 527.083C213.392 527.083 213.722 527.038 214.014 526.943C214.306 526.848 214.547 526.714 214.731 526.549C214.915 526.384 215.055 526.188 215.15 525.972C215.245 525.756 215.296 525.521 215.296 525.267C215.296 525 215.251 524.772 215.169 524.575C215.029 524.264 214.744 523.998 214.312 523.782C214.172 523.718 213.76 523.553 213.087 523.287C212.884 523.21 212.725 523.147 212.604 523.09C212.478 523.033 212.357 522.963 212.236 522.88C212.116 522.804 212.027 522.715 211.97 522.614C211.913 522.519 211.887 522.411 211.887 522.29C211.887 522.074 211.982 521.896 212.179 521.757C212.376 521.617 212.604 521.547 212.858 521.547C213.468 521.547 214.033 521.77 214.541 522.208L215.086 521.376C214.452 520.855 213.722 520.595 212.909 520.595C212.306 520.595 211.805 520.76 211.411 521.084C211.011 521.408 210.814 521.808 210.814 522.29C210.814 522.519 210.846 522.722 210.916 522.906C210.986 523.096 211.075 523.249 211.183 523.375C211.284 523.502 211.43 523.623 211.608 523.737C211.786 523.852 211.951 523.94 212.116 524.01C212.281 524.086 212.478 524.163 212.719 524.239C212.75 524.251 212.801 524.271 212.871 524.29C213.004 524.34 213.106 524.378 213.169 524.404C213.233 524.429 213.322 524.461 213.43 524.499C213.531 524.537 213.614 524.575 213.665 524.601C213.715 524.626 213.779 524.664 213.855 524.702C213.931 524.747 213.982 524.785 214.02 524.823C214.052 524.861 214.09 524.899 214.128 524.95C214.166 525 214.191 525.051 214.204 525.102C214.217 525.159 214.223 525.216 214.223 525.28C214.223 525.521 214.115 525.724 213.899 525.883C213.684 526.048 213.392 526.124 213.023 526.124C212.604 526.124 212.243 526.061 211.938 525.934C211.633 525.807 211.354 525.623 211.087 525.369L210.542 526.168C211.227 526.778 212.052 527.083 213.023 527.083Z" fill="#5B5863"/>
<path d="M164.4 521.7L163 523.1L158.7 518.8V531H156.7V518.8L152.4 523.1L151 521.7L157.7 515L164.4 521.7Z" fill="#AFADB2"/>
<path d="M287.082 527.083C287.602 527.083 288.078 526.975 288.503 526.746C288.922 526.518 289.278 526.207 289.557 525.8C289.836 525.4 290.052 524.924 290.205 524.366C290.357 523.813 290.433 523.204 290.433 522.544C290.433 521.827 290.344 521.179 290.179 520.602C290.014 520.024 289.779 519.548 289.481 519.167C289.183 518.786 288.827 518.5 288.421 518.297C288.015 518.094 287.564 517.993 287.082 517.993C286.561 517.993 286.085 518.107 285.66 518.335C285.234 518.564 284.885 518.875 284.606 519.275C284.327 519.681 284.111 520.157 283.958 520.716C283.806 521.274 283.73 521.884 283.73 522.544C283.73 523.261 283.812 523.909 283.978 524.48C284.143 525.058 284.377 525.534 284.676 525.915C284.974 526.295 285.33 526.581 285.736 526.784C286.142 526.987 286.593 527.083 287.082 527.083ZM287.088 526.067C286.409 526.067 285.863 525.756 285.45 525.134C285.038 524.512 284.834 523.648 284.834 522.544C284.834 521.458 285.031 520.595 285.431 519.96C285.825 519.326 286.377 519.008 287.088 519.008C287.761 519.008 288.3 519.319 288.713 519.941C289.119 520.563 289.329 521.427 289.329 522.544C289.329 523.255 289.24 523.877 289.068 524.404C288.891 524.931 288.637 525.337 288.3 525.629C287.958 525.921 287.558 526.067 287.088 526.067Z" fill="#5B5863"/>
<path d="M294.705 521.332C294.299 521.332 293.848 521.42 293.353 521.585L293.493 519.078H297.181V518.075H292.464L292.204 522.588L292.839 522.785C293.22 522.461 293.747 522.296 294.413 522.296C294.686 522.296 294.946 522.341 295.194 522.423C295.441 522.506 295.664 522.626 295.854 522.779C296.044 522.931 296.197 523.128 296.311 523.369C296.425 523.61 296.482 523.877 296.482 524.169C296.482 524.524 296.387 524.848 296.203 525.14C296.013 525.432 295.765 525.661 295.448 525.826C295.13 525.991 294.781 526.067 294.4 526.067C293.95 526.067 293.543 525.972 293.182 525.775C292.82 525.578 292.534 525.312 292.331 524.975L291.519 525.597C291.823 526.067 292.242 526.429 292.769 526.695C293.29 526.962 293.861 527.089 294.483 527.089C295.054 527.089 295.581 526.968 296.051 526.727C296.521 526.486 296.895 526.137 297.174 525.692C297.447 525.248 297.587 524.747 297.587 524.182C297.587 523.89 297.549 523.617 297.479 523.35C297.409 523.09 297.314 522.855 297.187 522.646C297.06 522.442 296.914 522.252 296.736 522.087C296.559 521.922 296.368 521.782 296.152 521.668C295.937 521.56 295.708 521.478 295.467 521.42C295.219 521.363 294.965 521.332 294.705 521.332Z" fill="#5B5863"/>
<path d="M299.745 521.306C299.948 521.306 300.126 521.236 300.272 521.09C300.418 520.951 300.494 520.773 300.494 520.57C300.494 520.367 300.418 520.189 300.272 520.043C300.126 519.903 299.948 519.827 299.745 519.827C299.529 519.827 299.352 519.903 299.206 520.043C299.06 520.189 298.99 520.367 298.99 520.57C298.99 520.709 299.021 520.83 299.085 520.944C299.148 521.059 299.244 521.147 299.358 521.211C299.472 521.274 299.605 521.306 299.745 521.306ZM299.745 526.308C299.948 526.308 300.126 526.238 300.272 526.092C300.418 525.953 300.494 525.775 300.494 525.572C300.494 525.369 300.418 525.191 300.272 525.045C300.126 524.905 299.948 524.829 299.745 524.829C299.529 524.829 299.352 524.905 299.206 525.045C299.06 525.191 298.99 525.369 298.99 525.572C298.99 525.775 299.06 525.953 299.206 526.092C299.352 526.238 299.529 526.308 299.745 526.308Z" fill="#5B5863"/>
<path d="M305.014 521.332C304.607 521.332 304.157 521.42 303.662 521.585L303.801 519.078H307.489V518.075H302.773L302.513 522.588L303.147 522.785C303.528 522.461 304.055 522.296 304.722 522.296C304.995 522.296 305.255 522.341 305.502 522.423C305.75 522.506 305.972 522.626 306.163 522.779C306.353 522.931 306.505 523.128 306.62 523.369C306.734 523.61 306.791 523.877 306.791 524.169C306.791 524.524 306.696 524.848 306.512 525.14C306.321 525.432 306.074 525.661 305.756 525.826C305.439 525.991 305.09 526.067 304.709 526.067C304.258 526.067 303.852 525.972 303.49 525.775C303.128 525.578 302.843 525.312 302.64 524.975L301.827 525.597C302.132 526.067 302.551 526.429 303.078 526.695C303.598 526.962 304.169 527.089 304.792 527.089C305.363 527.089 305.89 526.968 306.359 526.727C306.829 526.486 307.204 526.137 307.483 525.692C307.756 525.248 307.896 524.747 307.896 524.182C307.896 523.89 307.857 523.617 307.788 523.35C307.718 523.09 307.623 522.855 307.496 522.646C307.369 522.442 307.223 522.252 307.045 522.087C306.867 521.922 306.677 521.782 306.461 521.668C306.245 521.56 306.017 521.478 305.775 521.42C305.528 521.363 305.274 521.332 305.014 521.332Z" fill="#5B5863"/>
<path d="M308.898 518.075V519.078H313.208L309.793 526.937L310.885 527.152L314.421 518.831V518.075H308.898Z" fill="#5B5863"/>
<path d="M269 515C264.6 515 261 518.6 261 523C261 527.4 264.6 531 269 531C273.4 531 277 527.4 277 523C277 518.6 273.4 515 269 515ZM269 529C265.7 529 263 526.3 263 523C263 519.7 265.7 517 269 517C272.3 517 275 519.7 275 523C275 526.3 272.3 529 269 529Z" fill="#AFADB2"/>
<path d="M270 519H268V524H273V522H270V519Z" fill="#AFADB2"/>
<path d="M41 293C41 290.239 43.2386 288 46 288H314C316.761 288 319 290.239 319 293V355C319 357.761 316.761 360 314 360H46C43.2386 360 41 357.761 41 355V293Z" fill="white"/>
<path d="M286.519 332.821L293.17 325.061C293.491 324.687 293.491 324.134 293.17 323.76L286.519 316L285 317.302L291.094 324.411L285.001 331.519L286.519 332.821Z" fill="#AFADB2"/>
<path d="M89.1318 305.771V305.75C89.6514 305.572 90.041 305.278 90.3145 304.868C90.5811 304.458 90.7178 304 90.7178 303.48C90.7178 303.07 90.6426 302.708 90.4922 302.394C90.3418 302.079 90.123 301.826 89.8428 301.635C89.5557 301.443 89.2207 301.293 88.8311 301.197C88.4414 301.102 88.0039 301.054 87.5117 301.054H84.2646V311H87.8877C88.4346 311 88.9268 310.938 89.3506 310.802C89.7744 310.672 90.123 310.487 90.3965 310.248C90.6631 310.009 90.8682 309.729 91.0049 309.4C91.1416 309.072 91.21 308.71 91.21 308.307C91.21 307.951 91.1553 307.63 91.0459 307.336C90.9365 307.042 90.7861 306.789 90.5947 306.584C90.4033 306.379 90.1846 306.201 89.9385 306.064C89.6924 305.928 89.4189 305.832 89.1318 305.771ZM85.4814 302.175H87.2588C87.6416 302.175 87.9766 302.216 88.2637 302.284C88.5508 302.359 88.7764 302.462 88.9541 302.599C89.125 302.735 89.2549 302.899 89.3369 303.084C89.4189 303.269 89.4668 303.48 89.4668 303.72C89.4668 303.952 89.4258 304.157 89.3506 304.342C89.2754 304.533 89.1729 304.684 89.0498 304.8C88.9199 304.923 88.7695 305.019 88.5986 305.101C88.4277 305.183 88.25 305.244 88.0654 305.278C87.8809 305.312 87.6895 305.326 87.498 305.326H85.4814V302.175ZM87.5459 309.879H85.4814V306.42H87.6006C88.0996 306.42 88.5234 306.495 88.8789 306.639C89.2275 306.782 89.4873 306.987 89.665 307.247C89.8428 307.514 89.9316 307.828 89.9316 308.197C89.9316 308.751 89.7129 309.168 89.2891 309.455C88.8584 309.742 88.2773 309.879 87.5459 309.879Z" fill="#AFADB2"/>
<path d="M99.0439 307.486C99.0439 306.844 98.9072 306.263 98.6475 305.75C98.3877 305.237 98.0117 304.834 97.5332 304.54C97.0479 304.253 96.4941 304.103 95.8721 304.103C95.4141 304.103 94.9834 304.191 94.5869 304.362C94.1836 304.54 93.835 304.779 93.5479 305.08C93.2607 305.381 93.0283 305.75 92.8643 306.188C92.6934 306.625 92.6113 307.09 92.6113 307.596C92.6113 308.108 92.6934 308.58 92.8711 309.018C93.042 309.455 93.2812 309.824 93.582 310.125C93.8828 310.426 94.2383 310.665 94.6553 310.836C95.0723 311.007 95.5234 311.089 96.002 311.089C96.5967 311.089 97.1299 310.979 97.5947 310.747C98.0596 310.515 98.4492 310.2 98.7568 309.804L97.9639 309.127C97.7314 309.407 97.458 309.633 97.1367 309.797C96.8086 309.961 96.4463 310.043 96.043 310.043C95.4277 310.043 94.915 309.858 94.5049 309.476C94.0879 309.093 93.8418 308.587 93.7734 307.951H99.0098C99.0303 307.814 99.0439 307.664 99.0439 307.486ZM95.9336 305.148C96.4668 305.148 96.9043 305.319 97.2529 305.654C97.6016 305.996 97.8203 306.447 97.916 307.008H93.8008C93.9033 306.44 94.1494 305.989 94.5391 305.654C94.9287 305.319 95.3936 305.148 95.9336 305.148Z" fill="#AFADB2"/>
<path d="M102.838 311.089C103.234 311.089 103.59 311.041 103.904 310.938C104.219 310.836 104.479 310.692 104.677 310.515C104.875 310.337 105.025 310.125 105.128 309.893C105.23 309.66 105.285 309.407 105.285 309.134C105.285 308.847 105.237 308.601 105.148 308.389C104.998 308.054 104.69 307.767 104.226 307.534C104.075 307.466 103.631 307.288 102.906 307.001C102.688 306.919 102.517 306.851 102.387 306.789C102.25 306.728 102.12 306.652 101.99 306.563C101.86 306.481 101.765 306.386 101.703 306.276C101.642 306.174 101.614 306.058 101.614 305.928C101.614 305.695 101.717 305.504 101.929 305.354C102.141 305.203 102.387 305.128 102.66 305.128C103.316 305.128 103.925 305.367 104.472 305.839L105.06 304.943C104.376 304.383 103.59 304.103 102.715 304.103C102.065 304.103 101.525 304.28 101.102 304.629C100.671 304.978 100.459 305.408 100.459 305.928C100.459 306.174 100.493 306.393 100.568 306.591C100.644 306.796 100.739 306.96 100.855 307.097C100.965 307.233 101.122 307.363 101.313 307.486C101.505 307.609 101.683 307.705 101.86 307.78C102.038 307.862 102.25 307.944 102.51 308.026C102.544 308.04 102.599 308.061 102.674 308.081C102.817 308.136 102.927 308.177 102.995 308.204C103.063 308.231 103.159 308.266 103.275 308.307C103.385 308.348 103.474 308.389 103.528 308.416C103.583 308.443 103.651 308.484 103.733 308.525C103.815 308.573 103.87 308.614 103.911 308.655C103.945 308.696 103.986 308.737 104.027 308.792C104.068 308.847 104.096 308.901 104.109 308.956C104.123 309.018 104.13 309.079 104.13 309.147C104.13 309.407 104.014 309.626 103.781 309.797C103.549 309.975 103.234 310.057 102.838 310.057C102.387 310.057 101.997 309.988 101.669 309.852C101.341 309.715 101.04 309.517 100.753 309.243L100.165 310.104C100.903 310.761 101.792 311.089 102.838 311.089Z" fill="#AFADB2"/>
<path d="M108.867 311.089C109.113 311.089 109.353 311.068 109.571 311.027C109.79 310.986 109.961 310.932 110.098 310.877C110.228 310.822 110.364 310.747 110.515 310.665L110.214 309.674C109.804 309.906 109.421 310.022 109.065 310.022C108.751 310.022 108.539 309.927 108.416 309.735C108.293 309.544 108.231 309.229 108.231 308.799V305.169H110.487V304.185H108.231V301.73L107.097 301.854V304.185H106.229V305.169H107.097V308.97C107.097 310.385 107.685 311.089 108.867 311.089Z" fill="#AFADB2"/>
<path d="M116.079 311H122.218V309.879H117.296V301.054H116.079V311Z" fill="#AFADB2"/>
<path d="M126.818 311.089C127.481 311.089 128.083 310.945 128.616 310.651C129.149 310.364 129.566 309.947 129.867 309.414C130.168 308.881 130.325 308.279 130.325 307.603C130.325 306.926 130.168 306.317 129.867 305.784C129.566 305.251 129.149 304.834 128.616 304.54C128.083 304.253 127.481 304.103 126.818 304.103C126.299 304.103 125.813 304.198 125.376 304.376C124.932 304.554 124.556 304.8 124.255 305.114C123.954 305.429 123.715 305.798 123.544 306.229C123.373 306.659 123.291 307.117 123.291 307.603C123.291 308.095 123.373 308.553 123.544 308.977C123.715 309.4 123.954 309.77 124.255 310.084C124.556 310.398 124.932 310.645 125.376 310.822C125.813 311 126.299 311.089 126.818 311.089ZM126.818 310.043C126.354 310.043 125.943 309.934 125.581 309.715C125.212 309.496 124.932 309.202 124.733 308.833C124.535 308.464 124.439 308.054 124.439 307.603C124.439 307.151 124.535 306.741 124.733 306.365C124.925 305.996 125.205 305.695 125.574 305.477C125.937 305.258 126.354 305.148 126.818 305.148C127.256 305.148 127.652 305.251 128.008 305.456C128.363 305.661 128.65 305.955 128.862 306.331C129.067 306.707 129.177 307.131 129.177 307.603C129.177 308.074 129.067 308.498 128.862 308.867C128.65 309.243 128.363 309.53 128.008 309.735C127.646 309.94 127.249 310.043 126.818 310.043Z" fill="#AFADB2"/>
<path d="M135.021 311.089C135.603 311.089 136.143 310.986 136.635 310.768C137.127 310.556 137.53 310.275 137.838 309.934L137.052 309.229C136.833 309.476 136.553 309.674 136.211 309.824C135.869 309.975 135.5 310.043 135.117 310.043C134.434 310.043 133.873 309.817 133.442 309.366C133.012 308.915 132.8 308.32 132.8 307.596C132.8 306.871 133.012 306.283 133.442 305.825C133.873 305.374 134.434 305.142 135.117 305.142C135.507 305.142 135.869 305.224 136.197 305.374C136.525 305.524 136.806 305.736 137.024 305.996L137.811 305.312C137.482 304.923 137.072 304.622 136.58 304.41C136.088 304.205 135.582 304.096 135.062 304.096C134.399 304.096 133.812 304.246 133.292 304.54C132.772 304.841 132.369 305.251 132.082 305.784C131.795 306.317 131.651 306.926 131.651 307.603C131.651 308.286 131.795 308.888 132.082 309.421C132.369 309.954 132.766 310.364 133.278 310.651C133.791 310.945 134.372 311.089 135.021 311.089Z" fill="#AFADB2"/>
<path d="M144.674 304.185V305.196H144.646C144.359 304.841 144.018 304.574 143.614 304.383C143.211 304.198 142.773 304.103 142.309 304.103C141.673 304.103 141.099 304.26 140.593 304.567C140.08 304.875 139.684 305.299 139.396 305.832C139.109 306.372 138.973 306.974 138.973 307.637C138.973 308.149 139.055 308.621 139.232 309.052C139.403 309.489 139.636 309.852 139.937 310.146C140.237 310.446 140.593 310.679 141.003 310.843C141.413 311.007 141.851 311.089 142.315 311.089C142.808 311.089 143.259 310.986 143.669 310.781C144.079 310.576 144.421 310.289 144.701 309.92H144.722V311H145.809V304.185H144.674ZM142.425 310.05C141.741 310.05 141.188 309.824 140.764 309.373C140.34 308.922 140.128 308.341 140.128 307.644C140.128 306.898 140.347 306.297 140.784 305.832C141.222 305.374 141.775 305.142 142.438 305.142C142.753 305.142 143.054 305.21 143.341 305.34C143.621 305.47 143.86 305.647 144.065 305.866C144.264 306.092 144.421 306.358 144.537 306.666C144.653 306.974 144.715 307.302 144.715 307.644C144.715 307.999 144.653 308.327 144.53 308.628C144.407 308.929 144.236 309.188 144.031 309.394C143.819 309.599 143.573 309.763 143.3 309.879C143.02 309.995 142.726 310.05 142.425 310.05Z" fill="#AFADB2"/>
<path d="M149.828 311.089C150.074 311.089 150.313 311.068 150.532 311.027C150.751 310.986 150.922 310.932 151.059 310.877C151.188 310.822 151.325 310.747 151.476 310.665L151.175 309.674C150.765 309.906 150.382 310.022 150.026 310.022C149.712 310.022 149.5 309.927 149.377 309.735C149.254 309.544 149.192 309.229 149.192 308.799V305.169H151.448V304.185H149.192V301.73L148.058 301.854V304.185H147.189V305.169H148.058V308.97C148.058 310.385 148.646 311.089 149.828 311.089Z" fill="#AFADB2"/>
<path d="M153.595 302.92C153.813 302.92 154.005 302.845 154.162 302.688C154.319 302.537 154.401 302.346 154.401 302.127C154.401 301.983 154.36 301.847 154.292 301.724C154.217 301.601 154.121 301.505 153.998 301.437C153.875 301.368 153.738 301.327 153.595 301.327C153.362 301.327 153.171 301.409 153.021 301.56C152.863 301.717 152.788 301.908 152.788 302.127C152.788 302.346 152.863 302.537 153.021 302.688C153.171 302.845 153.362 302.92 153.595 302.92ZM153.021 311H154.148V304.185H153.021V311Z" fill="#AFADB2"/>
<path d="M159.521 311.089C160.185 311.089 160.786 310.945 161.319 310.651C161.853 310.364 162.27 309.947 162.57 309.414C162.871 308.881 163.028 308.279 163.028 307.603C163.028 306.926 162.871 306.317 162.57 305.784C162.27 305.251 161.853 304.834 161.319 304.54C160.786 304.253 160.185 304.103 159.521 304.103C159.002 304.103 158.517 304.198 158.079 304.376C157.635 304.554 157.259 304.8 156.958 305.114C156.657 305.429 156.418 305.798 156.247 306.229C156.076 306.659 155.994 307.117 155.994 307.603C155.994 308.095 156.076 308.553 156.247 308.977C156.418 309.4 156.657 309.77 156.958 310.084C157.259 310.398 157.635 310.645 158.079 310.822C158.517 311 159.002 311.089 159.521 311.089ZM159.521 310.043C159.057 310.043 158.646 309.934 158.284 309.715C157.915 309.496 157.635 309.202 157.437 308.833C157.238 308.464 157.143 308.054 157.143 307.603C157.143 307.151 157.238 306.741 157.437 306.365C157.628 305.996 157.908 305.695 158.277 305.477C158.64 305.258 159.057 305.148 159.521 305.148C159.959 305.148 160.355 305.251 160.711 305.456C161.066 305.661 161.354 305.955 161.565 306.331C161.771 306.707 161.88 307.131 161.88 307.603C161.88 308.074 161.771 308.498 161.565 308.867C161.354 309.243 161.066 309.53 160.711 309.735C160.349 309.94 159.952 310.043 159.521 310.043Z" fill="#AFADB2"/>
<path d="M168.401 304.103C167.889 304.103 167.417 304.212 166.993 304.431C166.562 304.649 166.207 304.957 165.927 305.36H165.906V304.185H164.771V311H165.906V307.596C165.906 306.844 166.098 306.242 166.487 305.805C166.877 305.367 167.396 305.142 168.046 305.142C168.306 305.142 168.531 305.183 168.729 305.251C168.921 305.326 169.099 305.442 169.249 305.606C169.399 305.771 169.509 305.996 169.591 306.27C169.673 306.55 169.714 306.885 169.714 307.274V311.007H170.849V306.96C170.849 306.017 170.63 305.299 170.192 304.82C169.755 304.342 169.16 304.103 168.401 304.103Z" fill="#AFADB2"/>
<path d="M173.439 305.702C173.658 305.702 173.85 305.627 174.007 305.47C174.164 305.319 174.246 305.128 174.246 304.909C174.246 304.69 174.164 304.499 174.007 304.342C173.85 304.191 173.658 304.109 173.439 304.109C173.207 304.109 173.016 304.191 172.858 304.342C172.701 304.499 172.626 304.69 172.626 304.909C172.626 305.06 172.66 305.189 172.729 305.312C172.797 305.436 172.899 305.531 173.022 305.6C173.146 305.668 173.289 305.702 173.439 305.702ZM173.439 311.089C173.658 311.089 173.85 311.014 174.007 310.856C174.164 310.706 174.246 310.515 174.246 310.296C174.246 310.077 174.164 309.886 174.007 309.729C173.85 309.578 173.658 309.496 173.439 309.496C173.207 309.496 173.016 309.578 172.858 309.729C172.701 309.886 172.626 310.077 172.626 310.296C172.626 310.515 172.701 310.706 172.858 310.856C173.016 311.014 173.207 311.089 173.439 311.089Z" fill="#AFADB2"/>
<path d="M75.146 303.057L70.829 302.429L68.902 298.518C68.8105 298.36 68.6791 298.23 68.5212 298.139C68.3633 298.048 68.1842 298 68.002 298C67.8198 298 67.6408 298.048 67.4829 298.139C67.3249 298.23 67.1936 298.36 67.102 298.518L65.175 302.43L60.858 303.057C60.6732 303.083 60.4994 303.161 60.3565 303.281C60.2135 303.401 60.1071 303.559 60.0492 303.737C59.9914 303.914 59.9844 304.105 60.029 304.286C60.0737 304.467 60.1683 304.633 60.302 304.763L63.425 307.808L62.688 312.108C62.6565 312.292 62.6771 312.481 62.7474 312.654C62.8177 312.826 62.935 312.976 63.086 313.086C63.2369 313.195 63.4155 313.261 63.6016 313.274C63.7877 313.288 63.9739 313.249 64.139 313.162L68.002 311.131L71.863 313.16C72.0282 313.247 72.2143 313.286 72.4004 313.272C72.5865 313.259 72.7651 313.193 72.9161 313.084C73.0671 312.974 73.1843 312.824 73.2547 312.652C73.325 312.479 73.3455 312.29 73.314 312.106L72.577 307.806L75.702 304.763C75.8354 304.633 75.9298 304.468 75.9744 304.287C76.019 304.106 76.0121 303.916 75.9545 303.738C75.8969 303.561 75.7908 303.403 75.6483 303.283C75.5058 303.163 75.3325 303.085 75.148 303.058L75.146 303.057Z" fill="#AFADB2"/>
<path d="M103.46 339.141C105.042 339.141 106.29 338.657 107.204 337.69C108.109 336.724 108.566 335.414 108.566 333.744V326.212H106.396V333.577C106.396 334.667 106.123 335.52 105.578 336.144C105.033 336.776 104.33 337.084 103.46 337.084C102.862 337.084 102.335 336.935 101.896 336.636C101.456 336.337 101.122 335.915 100.894 335.388C100.665 334.86 100.551 334.263 100.551 333.577V326.212H98.3799V333.744C98.3799 334.597 98.5029 335.361 98.749 336.038C98.9951 336.724 99.3379 337.286 99.7861 337.743C100.226 338.2 100.762 338.543 101.386 338.78C102.01 339.026 102.704 339.141 103.46 339.141Z" fill="#5B5863"/>
<path d="M115.343 339.141C115.756 339.141 116.169 339.097 116.582 339C116.986 338.912 117.382 338.763 117.769 338.552C118.155 338.35 118.489 338.104 118.779 337.805C119.069 337.515 119.307 337.154 119.482 336.724C119.658 336.302 119.746 335.827 119.746 335.317C119.746 334.825 119.667 334.386 119.526 333.999C119.271 333.331 118.744 332.769 117.936 332.32C117.566 332.118 116.846 331.811 115.791 331.389C114.895 331.046 114.306 330.782 114.033 330.606C113.603 330.325 113.392 329.974 113.4 329.534C113.4 329.077 113.576 328.708 113.91 328.444C114.244 328.181 114.675 328.04 115.185 328.04C116.099 328.04 117.074 328.479 118.129 329.35L119.421 327.645C118.076 326.59 116.661 326.071 115.185 326.071C114.455 326.071 113.778 326.229 113.163 326.546C112.548 326.862 112.056 327.293 111.695 327.838C111.326 328.392 111.15 328.998 111.15 329.648C111.15 329.974 111.186 330.281 111.265 330.562C111.344 330.844 111.449 331.099 111.572 331.318C111.695 331.538 111.854 331.749 112.064 331.942C112.267 332.136 112.469 332.312 112.671 332.452C112.873 332.593 113.119 332.733 113.4 332.874C113.682 333.015 113.945 333.138 114.183 333.226C114.411 333.322 114.692 333.428 115.009 333.533C115.272 333.63 115.492 333.709 115.659 333.771C115.817 333.841 116.002 333.911 116.195 333.999C116.389 334.087 116.547 334.157 116.661 334.228C116.775 334.298 116.89 334.386 117.013 334.482C117.127 334.588 117.215 334.685 117.276 334.79C117.329 334.896 117.382 335.01 117.417 335.142C117.452 335.273 117.479 335.414 117.479 335.572C117.479 336.064 117.294 336.442 116.934 336.724C116.564 337.005 116.037 337.137 115.352 337.137C114.78 337.137 114.2 336.996 113.62 336.706C113.04 336.416 112.521 335.994 112.073 335.449L110.702 337.137C111.353 337.805 112.082 338.306 112.882 338.64C113.673 338.974 114.499 339.141 115.343 339.141Z" fill="#5B5863"/>
<path d="M130.223 339H132.499L127.7 326.212H125.582L120.81 339H123.077L124.035 336.249H129.256L130.223 339ZM124.694 334.368L126.637 328.831H126.654L128.597 334.368H124.694Z" fill="#5B5863"/>
<path d="M138.687 334.421H144.101V332.461H138.687V334.421Z" fill="#5B5863"/>
<path d="M159.877 326.212V335.388H159.833L153.593 326.212H151.439V339H153.61V329.956H153.646L159.833 339H162.048V326.212H159.877Z" fill="#5B5863"/>
<path d="M172.955 334.509C172.955 333.665 172.779 332.9 172.437 332.232C172.085 331.564 171.593 331.046 170.942 330.659C170.292 330.281 169.536 330.088 168.692 330.088C168.086 330.088 167.523 330.202 166.996 330.422C166.469 330.642 166.012 330.949 165.634 331.336C165.247 331.731 164.948 332.206 164.737 332.769C164.518 333.331 164.412 333.946 164.412 334.605C164.412 335.502 164.605 336.302 165.001 336.996C165.388 337.69 165.924 338.218 166.609 338.587C167.286 338.956 168.051 339.141 168.903 339.141C169.721 339.141 170.441 338.991 171.065 338.692C171.689 338.394 172.199 337.989 172.604 337.479L171.197 336.275C170.644 336.97 169.914 337.312 169.009 337.312C168.358 337.312 167.813 337.137 167.365 336.776C166.917 336.425 166.627 335.933 166.504 335.309H172.902C172.938 335.098 172.955 334.834 172.955 334.509ZM168.798 331.916C169.167 331.916 169.501 331.995 169.8 332.145C170.099 332.294 170.336 332.496 170.521 332.76C170.705 333.023 170.846 333.331 170.934 333.683H166.539C166.68 333.12 166.952 332.689 167.356 332.382C167.761 332.074 168.235 331.916 168.798 331.916Z" fill="#5B5863"/>
<path d="M184.653 330.22L182.755 336.003H182.729L181.006 330.22H179.327L177.631 335.994H177.596L175.697 330.22H173.658L176.673 339H178.492L180.136 333.472H180.171L181.814 339H183.678L186.692 330.22H184.653Z" fill="#5B5863"/>
<path d="M200.421 326.212L197.582 331.169H197.529L194.673 326.212H192.186L196.457 333.349V339H198.637V333.349L202.935 326.212H200.421Z" fill="#5B5863"/>
<path d="M206.854 339.141C207.733 339.141 208.524 338.956 209.228 338.578C209.931 338.2 210.476 337.664 210.871 336.979C211.258 336.293 211.46 335.502 211.46 334.623C211.46 333.744 211.258 332.953 210.871 332.259C210.476 331.573 209.931 331.037 209.236 330.659C208.533 330.281 207.742 330.088 206.854 330.088C205.94 330.088 205.132 330.29 204.429 330.686C203.726 331.081 203.181 331.617 202.803 332.303C202.425 332.988 202.24 333.762 202.24 334.623C202.24 335.265 202.346 335.862 202.574 336.416C202.794 336.979 203.102 337.453 203.497 337.857C203.893 338.262 204.385 338.569 204.965 338.798C205.545 339.026 206.169 339.141 206.854 339.141ZM206.854 337.312C206.107 337.312 205.492 337.058 205.009 336.539C204.525 336.029 204.288 335.388 204.288 334.623C204.288 333.85 204.525 333.208 205 332.689C205.475 332.18 206.09 331.916 206.854 331.916C207.584 331.916 208.19 332.171 208.683 332.672C209.166 333.182 209.412 333.832 209.412 334.623C209.412 335.405 209.166 336.047 208.674 336.557C208.182 337.066 207.575 337.312 206.854 337.312Z" fill="#5B5863"/>
<path d="M218.342 330.088C217.806 330.088 217.305 330.22 216.83 330.466C216.355 330.712 215.951 331.072 215.608 331.538H215.582V330.22H213.569V339H215.582V334.834C215.582 334.359 215.67 333.929 215.854 333.551C216.039 333.173 216.312 332.874 216.681 332.646C217.05 332.426 217.48 332.312 217.981 332.312C218.157 332.312 218.359 332.32 218.588 332.338V330.097C218.535 330.097 218.456 330.088 218.342 330.088Z" fill="#5B5863"/>
<path d="M223.782 335.309L226.059 339H228.326L225.118 333.771L228.282 330.22H225.892L222.306 334.228H222.279V325.746H220.267V339H222.279V336.952L223.747 335.309H223.782Z" fill="#5B5863"/>
<path fill-rule="evenodd" clip-rule="evenodd" d="M59 325H85V326.539H59V325ZM59 328.078H85V329.617H59V328.078ZM59 331.152H85V332.695H59V331.152ZM59 334.23H85V335.77H59V334.23ZM59 337.309H85V338.848H59V337.309ZM59 340.383H85V341.922H59V340.383ZM59 343.461H85V345H59V343.461Z" fill="#BD3D44"/>
<path fill-rule="evenodd" clip-rule="evenodd" d="M59 327H85V328.455H59V327ZM59 329.91H85V331.362H59V329.91ZM59 332.817H85V334.272H59V332.817ZM59 335.728H85V337.183H59V335.728ZM59 338.638H85V340.093H59V338.638ZM59 341.545H85V343H59V341.545Z" fill="white"/>
<path fill-rule="evenodd" clip-rule="evenodd" d="M59 325H73.3993V335.522H59V325Z" fill="#192F5D"/>
<path fill-rule="evenodd" clip-rule="evenodd" d="M60.1991 325.45L60.3324 325.866H60.7542L60.4138 326.122L60.5433 326.542L60.1991 326.282L59.8587 326.538L59.9882 326.122L59.644 325.866H60.0733L60.1991 325.45ZM62.6009 325.45L62.7304 325.866H63.156L62.8118 326.122L62.9413 326.542L62.6009 326.282L62.2567 326.538L62.3862 326.122L62.0458 325.866H62.4676L62.6009 325.45ZM64.9989 325.45L65.1321 325.866H65.5503L65.2098 326.122L65.3394 326.542L64.9952 326.282L64.6547 326.538L64.7843 326.122L64.4401 325.866H64.8657L64.9989 325.45ZM67.4006 325.45L67.5301 325.866H67.9557L67.6116 326.122L67.7448 326.542L67.4006 326.282L67.0565 326.538L67.1897 326.122L66.8455 325.866H67.2674L67.4006 325.45ZM69.7986 325.45L69.9319 325.866H70.3537L70.0133 326.122L70.1428 326.542L69.7986 326.282L69.4582 326.538L69.5877 326.122L69.2472 325.866H69.6691L69.7986 325.45ZM72.2004 325.45L72.3299 325.866H72.7555L72.4113 326.122L72.5445 326.542L72.2004 326.282L71.8562 326.538L71.9894 326.122L71.6453 325.866H72.0708L72.2004 325.45ZM61.4019 326.503L61.5314 326.919H61.957L61.6128 327.175L61.7386 327.591L61.4056 327.335L61.0614 327.591L61.1835 327.175L60.8505 326.919H61.2723L61.4019 326.503ZM63.7999 326.503L63.9331 326.919H64.355L64.0108 327.175L64.144 327.591L63.7999 327.335L63.4557 327.591L63.5889 327.175L63.2448 326.919H63.6704L63.7999 326.503ZM66.2016 326.503L66.3311 326.919H66.7567L66.4125 327.175L66.5421 327.591L66.2016 327.335L65.8574 327.591L65.987 327.175L65.6465 326.919H66.0684L66.2016 326.503ZM68.5996 326.503L68.7329 326.919H69.1547L68.8106 327.175L68.9438 327.591L68.5996 327.335L68.2592 327.591L68.3887 327.175L68.0445 326.919H68.4738L68.5996 326.503ZM71.0014 326.503L71.1309 326.919H71.5565L71.2123 327.175L71.3418 327.591L71.0014 327.335L70.6572 327.591L70.7867 327.175L70.4463 326.919H70.8681L71.0014 326.503ZM60.1991 327.553L60.3324 327.977H60.7542L60.4138 328.232L60.5433 328.648L60.1991 328.389L59.8587 328.648L59.9882 328.228L59.644 327.973H60.0733L60.1991 327.553ZM62.6009 327.553L62.7304 327.973H63.156L62.8118 328.228L62.9413 328.644L62.6009 328.385L62.2567 328.644L62.3862 328.225L62.0458 327.969H62.4676L62.6009 327.553ZM64.9989 327.553L65.1321 327.973H65.5503L65.2098 328.228L65.3394 328.644L64.9952 328.385L64.6547 328.644L64.7843 328.225L64.4401 327.969H64.8657L64.9989 327.553ZM67.4006 327.553L67.5301 327.973H67.9557L67.6116 328.228L67.7448 328.644L67.4006 328.385L67.0565 328.644L67.1897 328.225L66.8455 327.969H67.2674L67.4006 327.553ZM69.7986 327.553L69.9319 327.973H70.3537L70.0133 328.228L70.1428 328.644L69.7986 328.385L69.4582 328.644L69.5877 328.225L69.2472 327.969H69.6691L69.7986 327.553ZM72.2004 327.553L72.3299 327.973H72.7555L72.4113 328.228L72.5445 328.644L72.2004 328.385L71.8562 328.644L71.9894 328.225L71.6453 327.969H72.0708L72.2004 327.553ZM61.4019 328.606L61.5314 329.022H61.957L61.6128 329.278L61.7423 329.698L61.4019 329.438L61.0577 329.694L61.1872 329.278L60.8468 329.022H61.2686L61.4019 328.606ZM63.7999 328.606L63.9331 329.022H64.355L64.0108 329.278L64.144 329.698L63.7999 329.438L63.4557 329.694L63.5889 329.278L63.2448 329.022H63.6704L63.7999 328.606ZM66.2016 328.606L66.3311 329.022H66.7567L66.4125 329.278L66.5421 329.698L66.2016 329.438L65.8574 329.694L65.987 329.278L65.6465 329.022H66.0684L66.2016 328.606ZM68.5996 328.606L68.7329 329.022H69.1547L68.8143 329.278L68.9438 329.698L68.5996 329.438L68.2592 329.694L68.3887 329.278L68.0445 329.022H68.4738L68.5996 328.606ZM71.0014 328.606L71.1309 329.022H71.5565L71.2123 329.278L71.3418 329.698L71.0014 329.438L70.6572 329.694L70.7867 329.278L70.4463 329.022H70.8681L71.0014 328.606ZM60.1991 329.66L60.3324 330.076H60.7542L60.4138 330.331L60.5433 330.751L60.1991 330.492L59.8587 330.747L59.9882 330.331L59.644 330.076H60.0733L60.1991 329.66ZM62.6009 329.66L62.7304 330.076H63.156L62.8118 330.331L62.9413 330.747L62.6009 330.492L62.2567 330.747L62.3862 330.331L62.0458 330.076H62.4676L62.6009 329.66ZM64.9989 329.66L65.1321 330.076H65.5503L65.2098 330.331L65.3394 330.751L64.9952 330.492L64.6547 330.747L64.7843 330.331L64.4401 330.076H64.8657L64.9989 329.66ZM67.4006 329.66L67.5301 330.076H67.9557L67.6116 330.331L67.7448 330.751L67.4006 330.492L67.0565 330.747L67.1897 330.331L66.8455 330.076H67.2674L67.4006 329.66ZM69.7986 329.66L69.9319 330.076H70.3537L70.0133 330.331L70.1428 330.751L69.7986 330.492L69.4582 330.747L69.5877 330.331L69.2472 330.076H69.6691L69.7986 329.66ZM72.2004 329.66L72.3299 330.076H72.7555L72.4113 330.331L72.5445 330.751L72.2004 330.492L71.8562 330.747L71.9894 330.331L71.6453 330.076H72.0708L72.2004 329.66ZM61.4019 330.713L61.5314 331.129H61.957L61.6128 331.385L61.7423 331.801L61.4019 331.541L61.0577 331.801L61.1872 331.381L60.8468 331.125H61.2686L61.4019 330.713ZM63.7999 330.713L63.9331 331.129H64.355L64.0108 331.385L64.144 331.801L63.7999 331.541L63.4557 331.801L63.5889 331.381L63.2448 331.125H63.6704L63.7999 330.713ZM66.2016 330.713L66.3311 331.129H66.7567L66.4125 331.385L66.5421 331.801L66.2016 331.541L65.8574 331.801L65.987 331.381L65.6465 331.125H66.0684L66.2016 330.713ZM68.5996 330.713L68.7329 331.129H69.1547L68.8143 331.385L68.9438 331.801L68.5996 331.541L68.2592 331.801L68.3887 331.381L68.0445 331.125H68.4738L68.5996 330.713ZM71.0014 330.713L71.1309 331.129H71.5565L71.2123 331.385L71.3418 331.801L71.0014 331.541L70.6572 331.801L70.7867 331.381L70.4463 331.125H70.8681L71.0014 330.713ZM60.1991 331.762L60.3324 332.182H60.7542L60.4138 332.438L60.5433 332.85L60.1991 332.594L59.8587 332.85L59.9882 332.434L59.644 332.178H60.0733L60.1991 331.762ZM62.6009 331.762L62.7304 332.182H63.156L62.8118 332.438L62.945 332.85L62.6009 332.594L62.2567 332.85L62.3899 332.434L62.0458 332.178H62.4676L62.6009 331.762ZM64.9989 331.762L65.1321 332.182H65.5503L65.2098 332.438L65.3394 332.85L64.9952 332.594L64.6547 332.85L64.7843 332.434L64.4401 332.178H64.8657L64.9989 331.762ZM67.4006 331.762L67.5301 332.182H67.9557L67.6116 332.438L67.7448 332.85L67.4006 332.594L67.0565 332.85L67.1897 332.434L66.8455 332.178H67.2674L67.4006 331.762ZM69.7986 331.762L69.9319 332.182H70.3537L70.0133 332.438L70.1428 332.85L69.7986 332.594L69.4582 332.85L69.5877 332.434L69.2472 332.178H69.6691L69.7986 331.762ZM72.2004 331.762L72.3299 332.182H72.7555L72.4113 332.438L72.5445 332.85L72.2004 332.594L71.8562 332.85L71.9894 332.434L71.6453 332.178H72.0708L72.2004 331.762ZM61.4019 332.816L61.5314 333.232H61.957L61.6128 333.487L61.7423 333.907L61.4019 333.648L61.0577 333.903L61.1872 333.487L60.8468 333.232H61.2686L61.4019 332.816ZM63.7999 332.816L63.9331 333.232H64.355L64.0108 333.487L64.144 333.907L63.7999 333.648L63.4557 333.903L63.5889 333.487L63.2448 333.232H63.6704L63.7999 332.816ZM66.2016 332.816L66.3311 333.232H66.7567L66.4125 333.487L66.5421 333.907L66.2016 333.648L65.8574 333.903L65.987 333.487L65.6465 333.232H66.0684L66.2016 332.816ZM68.5996 332.816L68.7329 333.232H69.1547L68.8143 333.487L68.9438 333.907L68.5996 333.648L68.2592 333.903L68.3887 333.487L68.0445 333.232H68.4738L68.5996 332.816ZM71.0014 332.816L71.1309 333.232H71.5565L71.2123 333.487L71.3418 333.907L71.0014 333.648L70.6572 333.903L70.7867 333.487L70.4463 333.232H70.8681L71.0014 332.816ZM60.1991 333.869L60.3324 334.285H60.7542L60.4138 334.541L60.5433 334.957L60.1991 334.701L59.8587 334.957L59.9882 334.537L59.644 334.281H60.0733L60.1991 333.869ZM62.6009 333.869L62.7304 334.285H63.156L62.8118 334.541L62.945 334.957L62.6009 334.701L62.2567 334.957L62.3899 334.537L62.0458 334.281H62.4676L62.6009 333.869ZM64.9989 333.869L65.1321 334.285H65.5503L65.2172 334.541L65.3468 334.957L65.0026 334.701L64.6621 334.957L64.7917 334.537L64.4475 334.281H64.8731L64.9989 333.869ZM67.4006 333.869L67.5301 334.285H67.9557L67.6116 334.541L67.7448 334.957L67.4006 334.701L67.0565 334.957L67.1897 334.537L66.8455 334.281H67.2674L67.4006 333.869ZM69.7986 333.869L69.9319 334.285H70.3537L70.0133 334.541L70.1428 334.957L69.7986 334.701L69.4582 334.957L69.5877 334.537L69.2472 334.281H69.6691L69.7986 333.869ZM72.2004 333.869L72.3299 334.285H72.7555L72.4113 334.541L72.5445 334.957L72.2004 334.701L71.8562 334.957L71.9894 334.537L71.6453 334.281H72.0708L72.2004 333.869Z" fill="white"/>
<path d="M5 1H355V162C355 184.091 337.091 202 315 202H45C22.9086 202 5 184.091 5 162V1Z" fill="#62D5B4"/>
<path d="M132.859 100.102C133.805 100.102 134.656 99.9062 135.414 99.5156C136.172 99.125 136.812 98.6016 137.336 97.9453L135.914 96.7344C135.531 97.2109 135.078 97.5859 134.562 97.8672C134.039 98.1484 133.469 98.2812 132.859 98.2812C132.141 98.2812 131.5 98.1172 130.938 97.7891C130.375 97.4609 129.93 97 129.617 96.4062C129.297 95.8125 129.141 95.125 129.141 94.3594C129.141 93.5625 129.297 92.8594 129.609 92.25C129.922 91.6406 130.359 91.1719 130.922 90.8359C131.484 90.5078 132.125 90.3359 132.859 90.3359C133.445 90.3359 134.008 90.4766 134.539 90.7578C135.07 91.0391 135.531 91.4219 135.914 91.8906L137.336 90.6875C136.742 89.9531 136.047 89.4062 135.266 89.0469C134.484 88.6875 133.68 88.5078 132.859 88.5078C132.141 88.5078 131.469 88.6094 130.852 88.8047C130.234 89.0078 129.703 89.2812 129.25 89.6406C128.797 90 128.406 90.4141 128.086 90.8984C127.758 91.3828 127.516 91.9219 127.359 92.5078C127.203 93.0938 127.125 93.7109 127.125 94.3594C127.125 95.0938 127.219 95.7656 127.422 96.3906C127.617 97.0156 127.891 97.5469 128.25 98C128.602 98.4531 129.016 98.8359 129.5 99.1562C129.984 99.4766 130.508 99.7109 131.078 99.8672C131.641 100.023 132.234 100.102 132.859 100.102Z" fill="white"/>
<path d="M144.5 100.125C145.312 100.125 146.07 99.9844 146.773 99.7031C147.477 99.4219 148.086 99.0234 148.594 98.5234C149.102 98.0234 149.5 97.4141 149.789 96.6875C150.078 95.9609 150.227 95.1719 150.227 94.3125C150.227 93.4609 150.078 92.6719 149.789 91.9453C149.5 91.2266 149.102 90.6094 148.594 90.1094C148.086 89.6094 147.477 89.2109 146.773 88.9297C146.07 88.6484 145.312 88.5078 144.5 88.5078C143.656 88.5078 142.883 88.6562 142.164 88.9531C141.445 89.25 140.836 89.6484 140.336 90.1641C139.836 90.6797 139.453 91.2891 139.172 92.0078C138.891 92.7266 138.75 93.4922 138.75 94.3125C138.75 95.1406 138.891 95.9141 139.172 96.6328C139.453 97.3516 139.836 97.9609 140.336 98.4766C140.836 98.9922 141.445 99.3906 142.164 99.6875C142.883 99.9844 143.656 100.125 144.5 100.125ZM144.5 98.3203C143.953 98.3203 143.453 98.2188 142.984 98.0078C142.516 97.8047 142.117 97.5156 141.797 97.1562C141.469 96.7969 141.219 96.375 141.031 95.8828C140.844 95.3906 140.758 94.8672 140.758 94.3125C140.758 93.7656 140.844 93.2422 141.031 92.75C141.219 92.2656 141.469 91.8359 141.797 91.4766C142.117 91.1172 142.516 90.8359 142.984 90.625C143.453 90.4219 143.953 90.3125 144.5 90.3125C145.016 90.3125 145.508 90.4141 145.969 90.6172C146.422 90.8203 146.82 91.0938 147.148 91.4375C147.477 91.7891 147.734 92.2109 147.93 92.7109C148.117 93.2109 148.219 93.7422 148.219 94.3125C148.219 94.8906 148.117 95.4219 147.93 95.9219C147.734 96.4219 147.477 96.8438 147.148 97.1953C146.82 97.5469 146.422 97.8203 145.969 98.0234C145.508 98.2266 145.016 98.3203 144.5 98.3203Z" fill="white"/>
<path d="M160 88.6328V96.7891H159.961L154.414 88.6328H152.5V100H154.43V91.9609H154.461L159.961 100H161.93V88.6328H160Z" fill="white"/>
<path d="M172.219 88.6328V96.7891H172.18L166.633 88.6328H164.719V100H166.648V91.9609H166.68L172.18 100H174.148V88.6328H172.219Z" fill="white"/>
<path d="M176.938 100H184.422V98.2656H178.867V95.2344H183.086V93.5H178.867V90.3672H184.086V88.6328H176.938V100Z" fill="white"/>
<path d="M191.438 100.102C192.383 100.102 193.234 99.9062 193.992 99.5156C194.75 99.125 195.391 98.6016 195.914 97.9453L194.492 96.7344C194.109 97.2109 193.656 97.5859 193.141 97.8672C192.617 98.1484 192.047 98.2812 191.438 98.2812C190.719 98.2812 190.078 98.1172 189.516 97.7891C188.953 97.4609 188.508 97 188.195 96.4062C187.875 95.8125 187.719 95.125 187.719 94.3594C187.719 93.5625 187.875 92.8594 188.188 92.25C188.5 91.6406 188.938 91.1719 189.5 90.8359C190.062 90.5078 190.703 90.3359 191.438 90.3359C192.023 90.3359 192.586 90.4766 193.117 90.7578C193.648 91.0391 194.109 91.4219 194.492 91.8906L195.914 90.6875C195.32 89.9531 194.625 89.4062 193.844 89.0469C193.062 88.6875 192.258 88.5078 191.438 88.5078C190.719 88.5078 190.047 88.6094 189.43 88.8047C188.812 89.0078 188.281 89.2812 187.828 89.6406C187.375 90 186.984 90.4141 186.664 90.8984C186.336 91.3828 186.094 91.9219 185.938 92.5078C185.781 93.0938 185.703 93.7109 185.703 94.3594C185.703 95.0938 185.797 95.7656 186 96.3906C186.195 97.0156 186.469 97.5469 186.828 98C187.18 98.4531 187.594 98.8359 188.078 99.1562C188.562 99.4766 189.086 99.7109 189.656 99.8672C190.219 100.023 190.812 100.102 191.438 100.102Z" fill="white"/>
<path d="M200.234 100H202.164V90.3672H205.422V88.6328H197.008V90.3672H200.234V100Z" fill="white"/>
<path d="M207.328 100H214.812V98.2656H209.258V95.2344H213.477V93.5H209.258V90.3672H214.477V88.6328H207.328V100Z" fill="white"/>
<path d="M217.047 100H220.711C221.602 100 222.422 99.8672 223.156 99.5859C223.891 99.3125 224.508 98.9297 225.008 98.4297C225.5 97.9297 225.883 97.3359 226.156 96.6328C226.422 95.9375 226.562 95.1719 226.562 94.3359C226.562 93.5078 226.422 92.7344 226.141 92.0312C225.859 91.3281 225.469 90.7266 224.969 90.2266C224.461 89.7266 223.836 89.3359 223.102 89.0547C222.359 88.7734 221.547 88.6328 220.664 88.6328H217.047V100ZM218.977 98.2656V90.3672H220.703C221.445 90.3672 222.109 90.5391 222.703 90.875C223.297 91.2188 223.75 91.6875 224.078 92.2891C224.406 92.8984 224.57 93.5781 224.57 94.3359C224.57 94.8984 224.469 95.4141 224.281 95.8984C224.094 96.3828 223.828 96.8047 223.484 97.1484C223.141 97.5 222.727 97.7734 222.227 97.9688C221.727 98.1719 221.18 98.2656 220.594 98.2656H218.977Z" fill="white"/>
<path d="M228.945 96.4141H230.328L230.656 88.2188H228.625L228.945 96.4141ZM229.602 100.125C229.93 100.125 230.211 100.016 230.445 99.7812C230.68 99.5469 230.805 99.2656 230.805 98.9375C230.805 98.6094 230.68 98.3281 230.445 98.0938C230.211 97.8594 229.93 97.7422 229.602 97.7422C229.375 97.7422 229.172 97.7969 228.984 97.9062C228.797 98.0156 228.648 98.1562 228.539 98.3438C228.43 98.5312 228.383 98.7266 228.383 98.9375C228.383 99.2656 228.5 99.5469 228.734 99.7812C228.969 100.016 229.258 100.125 229.602 100.125Z" fill="white"/>
<path d="M248 201.5C248 238.779 217.779 269 180.5 269C143.221 269 113 238.779 113 201.5C113 164.221 143.221 134 180.5 134C217.779 134 248 164.221 248 201.5Z" fill="#62D5B4"/>
<path d="M243 202C243 236.242 215.242 264 181 264C146.758 264 119 236.242 119 202C119 167.758 146.758 140 181 140C215.242 140 243 167.758 243 202Z" fill="white"/>
<path d="M208.139 202C208.139 216.52 196.368 228.291 181.848 228.291C167.328 228.291 155.557 216.52 155.557 202C155.557 187.48 167.328 175.709 181.848 175.709C196.368 175.709 208.139 187.48 208.139 202Z" fill="#62D5B4"/>
<path fill-rule="evenodd" clip-rule="evenodd" d="M190.344 191.205C190.722 190.802 191.354 190.781 191.758 191.158C194.624 193.843 196.418 197.679 196.418 201.935C196.418 210.045 189.904 216.635 181.848 216.635C173.793 216.635 167.279 210.045 167.279 201.935C167.279 197.679 169.073 193.843 171.939 191.158C172.342 190.781 172.975 190.802 173.353 191.205C173.73 191.608 173.709 192.241 173.306 192.618C170.829 194.938 169.279 198.252 169.279 201.935C169.279 208.958 174.915 214.635 181.848 214.635C188.781 214.635 194.418 208.958 194.418 201.935C194.418 198.252 192.868 194.938 190.391 192.618C189.987 192.241 189.967 191.608 190.344 191.205Z" fill="white"/>
<path fill-rule="evenodd" clip-rule="evenodd" d="M182 184.81C182.552 184.81 183 185.257 183 185.81L183 200.772C183 201.324 182.552 201.772 182 201.772C181.448 201.772 181 201.324 181 200.772L181 185.81C181 185.257 181.448 184.81 182 184.81Z" fill="white"/>
<path d="M88.1259 41.0601H76.9814C76.4748 41.0601 76.0911 41.5048 76.1832 41.9954C76.1985 42.1027 76.2139 42.21 76.2292 42.3173C76.306 42.7466 76.4288 43.1605 76.5976 43.5745C76.8586 44.2031 77.273 44.755 77.841 45.2456C78.3936 45.7362 79.1765 45.9662 80.1743 45.9662C81.1721 45.9662 81.9396 45.7209 82.5076 45.2456C82.9527 44.8623 83.2904 44.433 83.5514 43.9731C83.6896 43.7278 83.9659 43.5745 84.2422 43.5745H87.3583C87.9263 43.5745 88.3101 44.1417 88.1259 44.663C87.9877 45.0616 87.8188 45.4449 87.6193 45.7822C87.2662 46.4108 86.8825 46.9627 86.4526 47.4226C86.0228 47.8826 85.5777 48.2659 85.0865 48.5725C84.5952 48.8791 84.1347 49.1244 83.6742 49.3237C82.5536 49.753 81.387 49.983 80.1436 49.983C78.5164 49.9523 77.0735 49.615 75.8147 48.9711C75.2775 48.6798 74.7556 48.3118 74.2336 47.8672C73.7117 47.4226 73.2512 46.8554 72.8521 46.1808C72.453 45.5062 72.1306 44.6937 71.885 43.7431C71.6394 42.7926 71.5166 41.7041 71.5166 40.4316C71.5166 39.1744 71.6394 38.0705 71.885 37.12C72.1306 36.1695 72.453 35.3569 72.8521 34.667C73.2512 33.9771 73.7117 33.4098 74.2336 32.9499C74.7556 32.49 75.2775 32.122 75.8147 31.8307C77.0581 31.1561 78.4857 30.8035 80.0975 30.7422C80.1282 30.7422 80.1589 30.7422 80.1896 30.7422C81.5098 30.8035 82.7378 31.0795 83.8891 31.5701C84.3803 31.7847 84.8715 32.076 85.3628 32.4286C85.854 32.7812 86.3145 33.2105 86.7443 33.7318C87.1741 34.2531 87.5425 34.8663 87.8649 35.5869C88.1873 36.3074 88.4329 37.1353 88.571 38.0705C88.6171 38.4385 88.6631 38.8064 88.6938 39.1897C88.7245 39.573 88.7552 39.987 88.7552 40.4316C88.7706 40.4009 88.8627 41.0601 88.1259 41.0601ZM82.8146 38.0399C83.3979 38.0399 83.8124 37.4266 83.5514 36.9054C83.5514 36.9054 83.5514 36.89 83.5361 36.89C83.3518 36.5068 83.1062 36.1541 82.7839 35.8322C82.4615 35.5255 82.0931 35.2649 81.6633 35.0809C81.2335 34.897 80.7116 34.805 80.1436 34.805C79.5603 34.805 79.0537 34.897 78.6239 35.0809C78.1941 35.2649 77.8103 35.5102 77.5033 35.8322C77.1809 36.1541 76.9353 36.4914 76.7358 36.89V36.9054C76.4748 37.442 76.8893 38.0552 77.4726 38.0552H82.8146V38.0399Z" fill="white"/>
<path d="M69.291 23C66.8349 23 64.8547 24.9777 64.8547 27.4307V40.263C64.8547 40.7996 64.824 41.3362 64.7626 41.9035C64.7012 42.4554 64.5477 42.9613 64.3021 43.4213C64.0565 43.8812 63.6881 44.2645 63.1968 44.5711C62.7056 44.8777 61.9995 45.0311 61.1092 45.0311C60.2188 45.0311 59.5127 44.8777 59.0215 44.5711C58.5303 44.2645 58.1619 43.8812 57.9163 43.4213C57.6707 42.9613 57.5172 42.4554 57.4558 41.9035C57.3944 41.3516 57.3636 40.7996 57.3636 40.263V27.0321C54.9076 27.0321 52.9273 29.0099 52.9273 31.4629V40.2477C52.9273 40.7843 52.8966 41.3209 52.8352 41.8881C52.7738 42.4401 52.6203 42.946 52.3747 43.4059C52.1291 43.8659 51.7607 44.2492 51.2695 44.5558C50.7783 44.8624 50.0722 45.0157 49.1818 45.0157C48.2915 45.0157 47.5854 44.8624 47.0942 44.5558C46.6029 44.2492 46.2345 43.8659 45.9889 43.4059C45.7433 42.946 45.5898 42.4401 45.5284 41.8881C45.467 41.3362 45.4363 40.7843 45.4363 40.2477V31.0643C42.9802 31.0643 41 33.0573 41 35.495V40.2477C41 41.5049 41.1228 42.6087 41.3684 43.5593C41.614 44.5098 41.921 45.3224 42.2894 46.0123C42.6732 46.7022 43.103 47.2694 43.5942 47.7294C44.0855 48.1893 44.592 48.5573 45.0986 48.8486C46.2806 49.5231 47.6468 49.8911 49.1665 49.9371C50.7169 49.8911 52.0831 49.5231 53.2804 48.8486C53.787 48.5573 54.2935 48.1893 54.7694 47.7294C54.8922 47.6067 55.015 47.4841 55.1378 47.3461C55.2606 47.4841 55.3834 47.6067 55.5062 47.7294C55.9975 48.1893 56.504 48.5573 57.0106 48.8486C58.1926 49.5231 59.5588 49.8911 61.0785 49.9371C62.6289 49.8911 63.9951 49.5231 65.1924 48.8486C65.699 48.5573 66.2055 48.1893 66.6814 47.7294C67.1726 47.2694 67.6024 46.7022 67.9862 46.0123C68.37 45.3224 68.677 44.5098 68.9072 43.5593C69.1375 42.6087 69.2449 41.5202 69.2449 40.2477L69.291 23Z" fill="white"/>
<path d="M102.203 48.818C102.08 49.1707 101.758 49.416 101.374 49.416H99.0406H96.7073C96.3389 49.416 96.0012 49.1707 95.8784 48.818L90.4597 32.2143C90.2755 31.647 90.6899 31.0798 91.2886 31.0798H93.9135C94.282 31.0798 94.6197 31.3251 94.7425 31.6777L98.2117 42.2716C98.4726 43.0688 99.5932 43.0688 99.8542 42.2716L101.85 36.1697L105.196 25.9284C105.933 23.7054 108.328 22.4789 110.553 23.2148L102.203 48.818Z" fill="white"/>
<path d="M123.602 34.5444C123.203 33.8545 122.742 33.2873 122.22 32.8273C121.699 32.3674 121.177 31.9994 120.639 31.7082C119.381 31.0336 117.953 30.6656 116.372 30.6196C114.852 30.6196 113.563 30.8496 112.504 31.2942C111.444 31.7388 110.569 32.3827 109.879 33.2106C109.188 34.0385 108.697 35.0504 108.374 36.2462C108.067 37.4421 107.898 38.7912 107.898 40.309V54.4138C107.898 55.0117 108.374 55.487 108.973 55.487H111.122C111.721 55.487 112.197 55.0117 112.197 54.4138V47.3154C112.427 47.6374 112.688 47.9133 112.964 48.1586C113.593 48.6952 114.208 49.0785 114.806 49.3085C115.482 49.5691 116.172 49.7224 116.894 49.7684C116.955 49.7684 117.001 49.7684 117.063 49.7684C118.521 49.7377 119.826 49.4005 120.962 48.7565C121.468 48.4653 121.96 48.0973 122.435 47.6527C122.911 47.2081 123.326 46.6408 123.709 45.9663C124.078 45.2917 124.385 44.4791 124.615 43.5439C124.845 42.6087 124.953 41.5048 124.953 40.2477C124.953 38.9905 124.83 37.902 124.569 36.9515C124.323 36.0316 124.001 35.219 123.602 34.5444ZM120.363 42.0108C120.271 42.6394 120.071 43.2219 119.78 43.7585C119.488 44.2951 119.074 44.7551 118.536 45.1077C117.999 45.4756 117.278 45.6443 116.387 45.6443C115.497 45.6443 114.775 45.4603 114.238 45.1077C113.701 44.7397 113.271 44.2951 112.964 43.7585C112.657 43.2219 112.458 42.6394 112.365 42.0108C112.273 41.3822 112.227 40.7996 112.227 40.2783C112.227 39.6344 112.273 38.9905 112.35 38.3466C112.442 37.7027 112.611 37.1354 112.887 36.6142C113.164 36.0929 113.578 35.679 114.131 35.3723C114.683 35.0657 115.436 34.8971 116.372 34.8971C117.262 34.8971 117.984 35.081 118.521 35.4337C119.058 35.8016 119.488 36.2462 119.764 36.7828C120.056 37.3194 120.24 37.9173 120.348 38.5306C120.44 39.1592 120.486 39.7417 120.486 40.263C120.501 40.7996 120.455 41.3822 120.363 42.0108Z" fill="white"/>
<path d="M141.808 36.2005C141.439 35.0967 140.963 34.1921 140.38 33.4715C139.797 32.751 139.167 32.199 138.492 31.8158C137.817 31.4325 137.172 31.1412 136.573 30.9725C135.975 30.7886 135.437 30.6966 134.992 30.6659C134.547 30.6353 134.286 30.6353 134.209 30.6353C134.117 30.6353 133.841 30.6506 133.411 30.6659C132.981 30.6966 132.459 30.7886 131.861 30.9725C131.262 31.1565 130.617 31.4325 129.942 31.8158C129.266 32.199 128.637 32.751 128.054 33.4715C127.47 34.1921 126.994 35.112 126.626 36.2005C126.258 37.3044 126.058 38.6535 126.058 40.2633V48.4502C126.058 48.9868 126.488 49.4161 127.025 49.4161H129.497C130.034 49.4161 130.464 48.9868 130.464 48.4502V40.2786C130.464 39.742 130.51 39.2054 130.602 38.6535C130.694 38.1016 130.878 37.5957 131.139 37.1357C131.4 36.6758 131.784 36.2925 132.26 36.0012C132.736 35.6946 133.38 35.5566 134.179 35.5566C134.977 35.5566 135.621 35.7099 136.097 36.0012C136.573 36.3078 136.957 36.6758 137.218 37.1357C137.479 37.5957 137.663 38.1016 137.755 38.6535C137.847 39.2054 137.893 39.7574 137.893 40.2786V48.4502C137.893 48.9868 138.323 49.4161 138.86 49.4161H141.393C141.931 49.4161 142.36 48.9868 142.36 48.4502V40.2786C142.36 38.6535 142.176 37.3044 141.808 36.2005Z" fill="white"/>
<path d="M313 39C313 37.8954 312.105 37 311 37C309.895 37 309 37.8954 309 39C309 40.1046 309.895 41 311 41C312.105 41 313 40.1046 313 39Z" fill="white"/>
<path d="M313 48C313 46.8954 312.105 46 311 46C309.895 46 309 46.8954 309 48C309 49.1046 309.895 50 311 50C312.105 50 313 49.1046 313 48Z" fill="white"/>
<path d="M313 30C313 28.8954 312.105 28 311 28C309.895 28 309 28.8954 309 30C309 31.1046 309.895 32 311 32C312.105 32 313 31.1046 313 30Z" fill="white"/>
</g>
<defs>
<filter id="filter0_d" x="0" y="0" width="360" height="568" filterUnits="userSpaceOnUse" color-interpolation-filters="sRGB">
<feFlood flood-opacity="0" result="BackgroundImageFix"/>
<feColorMatrix in="SourceAlpha" type="matrix" values="0 0 0 0 0 0 0 0 0 0 0 0 0 0 0 0 0 0 127 0"/>
<feOffset dy="4"/>
<feGaussianBlur stdDeviation="2"/>
<feColorMatrix type="matrix" values="0 0 0 0 0 0 0 0 0 0 0 0 0 0 0 0 0 0 0.15 0"/>
<feBlend mode="normal" in2="BackgroundImageFix" result="effect1_dropShadow"/>
<feBlend mode="normal" in="SourceGraphic" in2="effect1_dropShadow" result="shape"/>
</filter>
</defs>
</svg>
