<svg width="78" height="78" viewBox="0 0 78 78" fill="none" xmlns="http://www.w3.org/2000/svg">
<path d="M78 39C78 60.5391 60.5391 78 39 78C17.4609 78 0 60.5391 0 39C0 37.4781 0.0871773 35.9765 0.256811 34.5L39 40L77.7432 34.5C77.9128 35.9765 78 37.4781 78 39Z" fill="#5B5863"/>
<path d="M77.1787 31L39 39C39 39 0.824429 30.5 0.821289 31C4.51169 13.2983 20.2029 0 39 0C57.7972 0 73.4883 13.2983 77.1787 31Z" fill="url(#paint0_linear)"/>
<circle cx="39" cy="39" r="27" fill="#FFE8EE"/>
<path d="M75 27.5L49.5 31.5L52 38.5L75 27.5Z" fill="#5B5863" stroke="#5B5863" stroke-linejoin="round"/>
<circle cx="39" cy="39" r="17" fill="#FD3E72"/>
<circle cx="39" cy="39" r="14.7" fill="#FD3E72" stroke="white" stroke-width="0.6"/>
<path d="M48 30C46.4373 30 45.1774 31.2482 45.1774 32.7962V40.8947C45.1774 41.2334 45.1579 41.572 45.1188 41.93C45.0798 42.2783 44.9821 42.5976 44.8258 42.8879C44.6696 43.1781 44.4352 43.42 44.1226 43.6135C43.8101 43.8071 43.3608 43.9038 42.7944 43.9038C42.2279 43.9038 41.7786 43.8071 41.4661 43.6135C41.1536 43.42 40.9192 43.1781 40.7629 42.8879C40.6066 42.5976 40.509 42.2783 40.4699 41.93C40.4308 41.5817 40.4113 41.2334 40.4113 40.8947V32.5447C38.8486 32.5447 37.5887 33.7928 37.5887 35.3409V40.885C37.5887 41.2237 37.5692 41.5623 37.5301 41.9203C37.491 42.2686 37.3934 42.5879 37.2371 42.8782C37.0808 43.1685 36.8464 43.4104 36.5339 43.6039C36.2214 43.7974 35.7721 43.8941 35.2056 43.8941C34.6392 43.8941 34.1899 43.7974 33.8774 43.6039C33.5648 43.4104 33.3304 43.1685 33.1742 42.8782C33.0179 42.5879 32.9202 42.2686 32.8812 41.9203C32.8421 41.572 32.8226 41.2237 32.8226 40.885V35.0894C31.2599 35.0894 30 36.3472 30 37.8856V40.885C30 41.6784 30.0781 42.3751 30.2344 42.975C30.3907 43.5748 30.586 44.0876 30.8204 44.5231C31.0646 44.9585 31.338 45.3164 31.6506 45.6067C31.9631 45.897 32.2854 46.1292 32.6077 46.313C33.3597 46.7388 34.229 46.971 35.1959 47C36.1823 46.971 37.0515 46.7388 37.8133 46.313C38.1356 46.1292 38.4579 45.897 38.7607 45.6067C38.8388 45.5293 38.917 45.4519 38.9951 45.3648C39.0732 45.4519 39.1514 45.5293 39.2295 45.6067C39.5421 45.897 39.8644 46.1292 40.1867 46.313C40.9387 46.7388 41.8079 46.971 42.7748 47C43.7613 46.971 44.6305 46.7388 45.3923 46.313C45.7146 46.1292 46.0369 45.897 46.3397 45.6067C46.6522 45.3164 46.9257 44.9585 47.1698 44.5231C47.414 44.0876 47.6093 43.5748 47.7558 42.975C47.9023 42.3751 47.9707 41.6881 47.9707 40.885L48 30Z" fill="white"/>
<defs>
<linearGradient id="paint0_linear" x1="-1" y1="32" x2="81.5" y2="31.5" gradientUnits="userSpaceOnUse">
<stop stop-color="#FD3E72"/>
<stop offset="1" stop-color="#FD3E72"/>
</linearGradient>
</defs>
</svg>
