<svg width="430" height="432" viewBox="0 0 430 432" fill="none" xmlns="http://www.w3.org/2000/svg">
<circle cx="215" cy="217" r="215" fill="#FFE8ED"/>
<path d="M227.977 209.294L216.716 250.513L175.579 194.966L185.274 340.618H244.003L261.117 341.443C261.117 341.443 258.578 318.492 257.539 305.516C256.905 295.158 255.158 284.899 252.329 274.915C243.558 246.391 227.977 209.294 227.977 209.294Z" fill="#FAFAFA"/>
<path d="M214.721 273.761C214.572 273.942 221.217 279.284 229.56 285.698C237.902 292.112 244.745 297.14 244.893 296.959C245.042 296.778 238.413 291.419 230.054 285.022C221.695 278.625 214.869 273.563 214.721 273.761Z" fill="#E1E1E1"/>
<path d="M112.481 189.212L144.467 173.829L157.014 158.924L174.755 177.358L221.81 340.206H141.12L130.782 312.26L112.481 204.364V189.212Z" fill="#FD3E72"/>
<path d="M256.418 342.514L258.578 307.89L161.119 291.403C161.119 291.403 144.467 210.976 134.211 197.802C124.731 185.634 112.398 189.855 112.398 189.855C112.398 189.855 101.269 197.472 103.924 226.639C105.325 241.923 110.914 294.882 112.926 314.024C113.42 318.607 114.942 323.02 117.377 326.934C120.121 331.34 123.942 334.975 128.479 337.496C133.017 340.017 138.122 341.342 143.313 341.344L256.418 342.514Z" fill="#FD3E72"/>
<path d="M145.192 311.567C145.341 311.567 145.473 310.034 146.181 307.676C147.091 304.598 148.628 301.741 150.697 299.286C152.766 296.831 155.321 294.832 158.201 293.414C160.41 292.31 161.927 291.931 161.878 291.766C160.512 291.873 159.18 292.242 157.954 292.854C154.894 294.16 152.184 296.164 150.039 298.707C147.895 301.249 146.376 304.259 145.604 307.495C145.209 308.814 145.069 310.196 145.192 311.567Z" fill="#D32353"/>
<g opacity="0.2">
<path opacity="0.2" d="M146.973 176.17C147.894 186.349 149.844 196.409 152.793 206.194L160.114 204.051C158.723 206.289 157.812 208.791 157.437 211.399C157.063 214.007 157.233 216.664 157.937 219.203C159.367 224.267 161.498 229.107 164.268 233.58C176.359 255.355 188.483 277.141 200.64 298.938L163.972 215.675L164.928 200.275L157.871 198.775L146.973 176.17Z" fill="black"/>
</g>
<g opacity="0.2">
<path opacity="0.2" d="M161.433 290.529C156.957 290.272 152.53 291.567 148.898 294.195C145.267 296.823 142.653 300.624 141.499 304.956C141.16 305.973 141.16 307.072 141.499 308.089C141.682 308.588 142.048 308.999 142.521 309.241C142.995 309.482 143.543 309.536 144.055 309.391C144.746 308.956 145.251 308.281 145.472 307.495C147.096 303.863 149.433 300.595 152.345 297.884C155.256 295.174 158.683 293.076 162.422 291.716" fill="black"/>
</g>
<path d="M200.376 298.146C200.241 297.691 200.076 297.245 199.882 296.811L198.233 293.035L192.314 279.268L172.43 233.943C169.594 227.513 166.857 221.314 164.285 215.51V215.692C164.598 210.218 164.911 205.073 165.192 200.309V199.979H164.895L157.822 198.511L158.053 198.693L149.265 180.903L146.808 176.039L146.132 174.786C146.061 174.636 145.978 174.493 145.885 174.357C145.911 174.519 145.967 174.676 146.05 174.819L146.627 176.121C147.187 177.325 147.946 178.99 148.918 181.067L157.443 198.99V199.138H157.607L164.664 200.671L164.367 200.292C164.071 205.057 163.741 210.185 163.378 215.675V215.774V215.873C165.95 221.693 168.671 227.892 171.507 234.323L191.605 279.548C194.194 285.253 196.288 289.903 197.788 293.217L199.437 296.91C199.718 297.345 200.032 297.759 200.376 298.146Z" fill="#D32353"/>
<path d="M256.5 341.426C256.542 341.236 256.569 341.043 256.583 340.849C256.583 340.421 256.583 339.86 256.715 339.2C256.83 337.651 256.995 335.474 257.193 332.605C257.572 326.917 258.116 318.756 258.842 308.715V308.434H258.578L188.06 295.475L162.059 290.76L162.389 291.073C156.668 269.359 151.721 250.513 148.16 237.026C146.379 230.431 144.862 225.04 143.956 221.314C143.445 219.516 143.065 218.115 142.785 217.109L142.472 216.021L142.34 215.675C142.318 215.8 142.318 215.929 142.34 216.054L142.587 217.142C142.834 218.164 143.181 219.582 143.626 221.38L147.599 237.158C151.078 250.662 155.942 269.54 161.532 291.271V291.535H161.795L187.862 296.349L258.397 309.045L258.133 308.715C257.589 318.772 257.144 326.934 256.83 332.638C256.698 335.425 256.599 337.585 256.533 339.151C256.533 339.86 256.533 340.421 256.533 340.8C256.501 341.007 256.49 341.217 256.5 341.426Z" fill="#D32353"/>
<path d="M117.394 186.525C117.394 186.673 119.043 186.92 121.516 187.844C124.757 189.058 127.726 190.901 130.252 193.267C132.779 195.632 134.814 198.473 136.239 201.627C137.328 204.051 137.674 205.7 137.888 205.65C138.102 205.601 137.888 205.238 137.773 204.48C137.569 203.426 137.265 202.393 136.866 201.396C135.546 198.076 133.51 195.088 130.902 192.645C128.294 190.203 125.179 188.366 121.78 187.267C120.758 186.938 119.71 186.701 118.647 186.558C117.823 186.475 117.41 186.459 117.394 186.525Z" fill="#D32353"/>
<path d="M301.66 149.873C298.775 144.547 300.011 123.047 295.609 123.806C289.921 124.779 295.181 147.383 295.609 149.444C296.038 151.505 292.988 152 292.773 150.137C292.444 147.449 289.146 121.151 283.557 122.635C280.457 123.443 281.908 129.098 281.908 129.098C281.908 129.098 286.722 154.588 284.051 155.198C281.38 155.808 279.352 141.118 278.165 135.776C276.978 130.434 273.681 128.439 272.411 131.143C270.564 135.1 274.06 147.944 275.181 153.088C276.302 158.232 278.907 173.153 271.669 167.317C264.431 161.48 256.83 159.666 254.341 160.606C251.851 161.546 252.477 165.223 255.247 165.948C258.181 167.046 260.953 168.532 263.491 170.367C265.506 171.868 267.342 173.594 268.965 175.511C271.126 177.887 272.876 180.606 274.142 183.557C275.17 185.888 276.68 187.975 278.573 189.68C280.466 191.385 282.698 192.67 285.123 193.45L289.344 213.532L316.68 207.679L310.597 186.426C308.371 172.461 309.591 153.698 309.574 145.207C309.574 131.588 307.777 131.489 306.277 131.852C302.633 132.561 304.48 155.066 301.66 149.873Z" fill="#FFD1BD"/>
<path d="M302.435 168.141C301.187 168.614 299.97 169.165 298.791 169.79C296.014 171.503 293.855 174.055 292.625 177.077C292.269 178.009 291.993 178.968 291.801 179.946L291.718 180.408L291.322 180.194C289.133 178.906 286.741 177.998 284.249 177.506C282.386 177.143 281.232 177.11 281.232 177.011C282.252 176.837 283.295 176.837 284.315 177.011C286.898 177.383 289.387 178.239 291.652 179.534L291.174 179.781C291.346 178.743 291.628 177.726 292.015 176.748C292.732 175.022 293.748 173.437 295.016 172.065C296.056 170.967 297.257 170.033 298.577 169.295C299.452 168.815 300.382 168.444 301.347 168.191C301.704 168.114 302.072 168.097 302.435 168.141Z" fill="#CC8F75"/>
<path d="M306.062 187.266C302.118 189.953 297.463 191.406 292.691 191.438C292.691 191.24 295.807 190.877 299.5 189.707C303.194 188.536 305.98 187.085 306.062 187.266Z" fill="#CC8F75"/>
<path d="M207.103 167.482L227.977 209.294L216.716 250.497L186.725 218.808L157.162 163.887L207.103 167.482Z" fill="#FFD1BD"/>
<path d="M226.757 171.406C226.757 171.406 256.435 181.958 256.435 183.92C261.678 188.025 279.138 230.25 284.694 238.23L300.589 261.725L287.267 209.723L316.565 201.116C316.565 201.116 341.593 261.494 344.627 274.915C346.461 282.884 346.291 291.183 344.132 299.07L343.968 298.938C342.089 304.961 338.216 310.165 332.987 313.694C320.572 321.658 308.964 323.158 297.093 314.387C290.366 309.44 282.683 303.422 275.659 297.817L273.813 341.476H257.638C257.638 339.019 258.133 309.111 258.133 309.111C256.009 302.034 254.357 294.824 253.186 287.528C251.719 277.24 227.614 209.674 227.614 209.674L208.934 173.632L208.488 160.293L226.757 171.406Z" fill="#FD3E72"/>
<path d="M274.159 341.097C274.238 340.65 274.282 340.198 274.291 339.745C274.357 338.777 274.439 337.475 274.538 335.837C274.719 332.342 274.967 327.428 275.28 321.361C275.841 309.012 276.599 292.013 277.456 272.953V272.854C277.11 271.057 276.731 269.128 276.352 267.182C272.444 247.166 268.883 229.03 266.294 215.823L263.145 200.292C262.782 198.511 262.469 197.11 262.255 196.071L262.007 194.983C261.98 194.859 261.942 194.737 261.892 194.62C261.867 194.745 261.867 194.874 261.892 194.999L262.073 196.104L262.815 200.358L265.684 215.955C268.207 229.145 271.669 247.282 275.577 267.364C275.939 269.293 276.319 271.222 276.665 273.019V272.92C275.906 291.98 275.23 308.995 274.752 321.328C274.554 327.412 274.39 332.325 274.274 335.821C274.274 337.469 274.274 338.772 274.175 339.745C274.134 340.194 274.128 340.646 274.159 341.097Z" fill="#D32353"/>
<path d="M257.556 302.351C257.55 301.891 257.501 301.433 257.407 300.982C257.259 300.026 257.078 298.724 256.83 297.091C256.253 293.629 255.462 288.847 254.489 282.78C252.428 270.645 249.543 254.025 246.476 235.642C244.382 223.622 242.42 212.345 240.738 202.666V202.567C236.616 193.235 233.17 185.437 230.73 179.88C229.527 177.209 228.554 175.082 227.861 173.533L227.086 171.884C227.006 171.685 226.9 171.496 226.773 171.323C226.816 171.528 226.882 171.727 226.971 171.917C227.152 172.378 227.367 172.939 227.647 173.566C228.307 175.115 229.197 177.275 230.318 179.979C232.709 185.569 236.056 193.417 240.046 202.798C241.695 212.411 243.607 223.705 245.668 235.774C248.966 254.141 251.801 270.744 253.912 282.879C255 288.831 255.874 293.678 256.517 297.124L257.259 300.999C257.327 301.456 257.426 301.907 257.556 302.351Z" fill="#DC3764"/>
<path d="M314.455 297.503C314.57 297.421 313.301 295.607 311.52 292.557C309.2 288.488 307.204 284.243 305.551 279.861C303.907 275.557 302.541 271.151 301.462 266.671C300.638 263.192 300.259 261.016 300.127 261.032C300.044 261.551 300.044 262.08 300.127 262.599C300.226 263.604 300.44 265.039 300.786 266.803C301.689 271.407 302.986 275.924 304.661 280.306C306.33 284.695 308.417 288.914 310.893 292.903C311.866 294.436 312.69 295.623 313.317 296.415C313.944 297.206 314.455 297.553 314.455 297.503Z" fill="#D32353"/>
<g opacity="0.2">
<path opacity="0.2" d="M312.196 295.096C312.464 295.154 312.715 295.272 312.93 295.44C313.146 295.609 313.321 295.824 313.441 296.07C313.562 296.316 313.625 296.586 313.627 296.86C313.628 297.134 313.567 297.405 313.449 297.652C313.166 298.132 312.742 298.514 312.235 298.744C311.727 298.974 311.161 299.042 310.613 298.938C309.518 298.711 308.514 298.167 307.728 297.371C305.339 294.918 303.634 291.883 302.781 288.567C300.259 280.62 300.143 272.079 300.044 263.835C302.347 274.719 306.431 285.147 312.13 294.7" fill="black"/>
</g>
<g opacity="0.2">
<path opacity="0.2" d="M276.154 298.971C280.949 290.935 283.047 281.574 282.139 272.26C281.248 259.565 275.082 247.958 270.482 236.103C273.12 248.568 274.637 260.95 277.077 272.936C277.077 272.936 275.808 290.76 275.775 298.657" fill="black"/>
</g>
<g opacity="0.2">
<path opacity="0.2" d="M255.676 291.023C254.39 272.03 253.088 253.003 249.741 234.273C246.347 215.102 239.889 196.602 230.615 179.484C233.006 187.003 240.376 202.798 240.376 202.798C240.376 202.798 251.01 258.856 255.627 287.149" fill="black"/>
</g>
<path d="M258.067 312.837L255.412 342.284H269.311L281.611 342.086C286.298 342.594 291.018 342.715 295.725 342.449C295.952 342.456 296.177 342.411 296.384 342.317C297.114 342.212 297.832 342.036 298.528 341.789C299.781 341.327 301.067 340.52 300.869 339.135C300.259 334.914 297.753 334.567 297.753 334.567H296.5L296.401 334.205C298.297 334.205 299.912 334.205 300.753 334.056C301.149 334.056 301.38 333.974 301.413 333.908C301.446 333.842 306.359 333.331 305.963 330.726C305.419 326.373 302.913 326.027 302.913 326.027L298.857 325.763C300.819 325.763 302.501 325.763 303.358 325.615C303.754 325.615 303.985 325.532 304.018 325.466C304.051 325.4 308.964 324.889 308.569 322.284C307.958 318.063 305.452 317.717 305.452 317.717L302.155 317.486C303.804 317.486 305.073 317.486 305.815 317.354C306.211 317.354 306.442 317.272 306.475 317.206C306.508 317.14 311.421 316.629 311.025 314.024C310.349 309.787 307.86 309.539 307.86 309.539C307.86 309.539 300.11 308.979 294.785 308.764C294.785 308.764 288.734 303.323 286.36 303.571C282.798 303.95 262.123 311.584 262.123 311.584L258.067 312.837Z" fill="#FFD1BD"/>
<path d="M284.15 333.661C286.411 334.169 288.726 334.391 291.042 334.32C293.318 334.53 295.61 334.458 297.868 334.106C295.608 333.594 293.293 333.367 290.976 333.43C288.701 333.21 286.406 333.287 284.15 333.661Z" fill="#CC8F75"/>
<path d="M284.117 325.302C287.35 325.869 290.629 326.139 293.911 326.11C297.205 326.372 300.516 326.339 303.804 326.011C300.571 325.445 297.292 325.18 294.01 325.219C290.717 324.947 287.406 324.974 284.117 325.302Z" fill="#CC8F75"/>
<g opacity="0.78">
<path opacity="0.78" d="M284.777 316.827C288.044 317.386 291.355 317.651 294.669 317.618C297.963 317.89 301.275 317.857 304.562 317.519C301.327 316.965 298.05 316.701 294.768 316.728C291.442 316.451 288.097 316.484 284.777 316.827Z" fill="#CC8F75"/>
</g>
<path d="M296.978 308.847C295.952 309.046 294.906 309.129 293.862 309.094L286.327 309.341L278.792 309.622C277.75 309.728 276.701 309.728 275.659 309.622C276.668 309.329 277.709 309.162 278.759 309.127C280.688 308.946 283.359 308.748 286.31 308.649C289.261 308.55 291.916 308.55 293.862 308.649C294.904 308.591 295.95 308.658 296.978 308.847Z" fill="#CC8F75"/>
<path d="M143.51 69.0006C140.015 60.5094 128.968 56.6348 120.329 59.8005C111.689 62.9661 105.952 71.8035 104.913 80.9377C104.199 85.4448 105.135 90.0583 107.551 93.9299C108.997 95.8213 110.813 97.3988 112.887 98.5665C114.962 99.7343 117.253 100.468 119.62 100.723C123.848 101.313 128.157 100.768 132.105 99.1442C136.054 97.5201 139.499 94.8752 142.088 91.4807C144.677 88.0862 146.317 84.0641 146.839 79.827C147.362 75.5898 146.748 71.29 145.06 67.3683" fill="#48464E"/>
<path d="M108.359 70.1219C108.359 70.1219 108.524 70.5671 108.985 71.2595C109.643 72.2227 110.382 73.1273 111.195 73.9635C113.897 76.7635 117.225 78.8825 120.905 80.1464C124.585 81.4104 128.512 81.7833 132.365 81.2346C133.522 81.069 134.663 80.8099 135.778 80.4597C136.202 80.3638 136.604 80.1906 136.965 79.9485C136.965 79.8002 135.184 80.3607 132.299 80.6245C128.546 80.989 124.759 80.5447 121.192 79.3217C117.626 78.0988 114.363 76.1255 111.623 73.5348C109.562 71.5398 108.524 70.0395 108.359 70.1219Z" fill="#5F5C67"/>
<path d="M104.748 79.8165C104.748 79.8165 105.045 80.1792 105.688 80.7068C106.601 81.4567 107.559 82.1505 108.557 82.7843C111.843 84.9168 115.483 86.4466 119.307 87.3019C121.427 87.7276 123.592 87.8936 125.753 87.7965C127.511 87.7089 129.254 87.4212 130.947 86.9392C132.084 86.6366 133.189 86.2224 134.244 85.7026C134.986 85.3399 135.399 85.1091 135.366 85.0596C135.333 85.0101 133.618 85.6861 130.765 86.3621C129.098 86.7446 127.397 86.9654 125.687 87.0216C123.59 87.061 121.495 86.873 119.438 86.461C115.709 85.6149 112.133 84.1967 108.837 82.2567C106.314 80.7893 104.83 79.7011 104.748 79.8165Z" fill="#5F5C67"/>
<path d="M232.676 94.375C253.088 49.4791 204.531 26.9405 178.052 34.4094C153.156 41.4496 142.538 53.8319 138.482 70.4844C134.426 87.137 134.574 105.109 141.103 121.052C144.401 128.867 150.122 136.831 158.531 137.804" fill="#48464E"/>
<path d="M208.291 205.32C208.653 183.886 208.901 154.407 208.901 154.538C208.901 154.67 227.334 151.472 231.159 127.416C233.055 115.463 232.461 95.8423 231.456 79.8163C230.532 65.3731 220.986 47.6818 206.592 49.1987L161.696 60.5752C159.588 60.7979 157.64 61.8044 156.238 63.3953C154.837 64.9862 154.084 67.0455 154.128 69.1653L157.063 162.024" fill="#FFD1BD"/>
<path d="M208.934 154.637C197.605 154.807 186.452 151.827 176.717 146.031C176.717 146.031 184.878 162.799 208.934 160.523V154.637Z" fill="#CC8F75"/>
<path d="M158.729 99.4697C158.366 99.3048 145.852 93.7649 145.703 108.159C145.555 122.552 160.048 119.7 160.081 119.337C160.114 118.975 158.729 99.4697 158.729 99.4697Z" fill="#FFD1BD"/>
<path d="M155.728 113.83C155.728 113.83 155.481 113.995 155.052 114.193C154.449 114.439 153.775 114.439 153.172 114.193C151.655 113.616 150.402 111.192 150.353 108.604C150.332 107.366 150.585 106.138 151.095 105.009C151.235 104.562 151.483 104.155 151.816 103.825C152.15 103.494 152.558 103.25 153.007 103.113C153.294 103.039 153.598 103.068 153.866 103.195C154.134 103.321 154.349 103.537 154.475 103.806C154.673 104.218 154.574 104.498 154.656 104.531C154.739 104.564 154.969 104.284 154.854 103.69C154.773 103.334 154.576 103.015 154.293 102.784C153.899 102.482 153.402 102.346 152.908 102.404C152.317 102.517 151.764 102.779 151.302 103.166C150.84 103.552 150.485 104.051 150.27 104.614C149.635 105.851 149.323 107.23 149.364 108.62C149.364 111.522 150.88 114.242 152.958 114.869C153.342 114.988 153.749 115.018 154.146 114.955C154.544 114.892 154.921 114.739 155.25 114.506C155.695 114.177 155.777 113.863 155.728 113.83Z" fill="#CC8F75"/>
<path d="M142.571 89.61C144.055 89.5111 155.942 91.0445 155.002 113.154C154.128 133.813 139.652 129.263 135.019 121.497C130.65 114.127 128.144 90.6323 142.571 89.61Z" fill="#FD3E72"/>
<path d="M135.217 92.2318C135.234 92.0398 135.234 91.8468 135.217 91.6548C135.217 91.2096 135.217 90.6655 135.217 90.006C135.217 88.4891 135.316 86.3622 135.399 83.7077C135.497 78.2833 135.646 70.7484 135.827 62.0264L135.563 62.2902H141.829L141.548 62.0099C141.548 63.6587 141.45 65.3899 141.417 67.1541C141.202 75.3979 141.004 83.1636 140.856 89.6433V89.8246H141.054C143.563 90.4085 145.794 91.8413 147.369 93.8806C148.553 95.4776 149.411 97.2931 149.891 99.2226C150.208 100.462 150.423 101.724 150.534 102.998C150.534 103.443 150.534 103.773 150.534 104.004C150.534 104.235 150.534 104.35 150.534 104.35C150.555 104.236 150.555 104.118 150.534 104.004C150.534 103.773 150.534 103.443 150.534 102.982C150.472 101.694 150.295 100.414 150.007 99.1566C149.561 97.1754 148.714 95.3068 147.517 93.6663C145.891 91.503 143.557 89.9799 140.922 89.363L141.103 89.5938C141.285 83.1306 141.515 75.4144 141.746 67.1211C141.746 65.3569 141.845 63.6092 141.878 61.9605V61.6802H135.201V61.944C135.102 70.6495 135.019 78.2008 134.953 83.6253C134.953 86.2798 134.953 88.4067 134.953 89.9236V91.5723C135.022 91.7995 135.11 92.0202 135.217 92.2318Z" fill="#972141"/>
<path d="M142.571 61.9767C147.032 52.627 154.425 44.9906 163.625 40.2295C169.291 37.4006 175.244 35.1895 181.383 33.6344C181.383 33.6344 172.727 31.5899 158.729 37.8058C152.381 40.6417 145.967 44.4008 141.73 49.8418C139.042 53.3537 135.679 60.196 135.695 61.9602L142.571 61.9767Z" fill="#FD3E72"/>
<path d="M144.154 127.664C144.302 127.653 144.448 127.613 144.582 127.548C144.966 127.388 145.336 127.195 145.687 126.971C146.97 126.132 148.038 125.002 148.803 123.674C149.888 121.672 150.54 119.464 150.716 117.194C150.962 114.452 150.962 111.693 150.716 108.95C150.483 106.202 150.025 103.478 149.347 100.805C148.872 98.5894 148.072 96.4559 146.973 94.474C146.202 93.1439 145.129 92.0141 143.84 91.1765C143.493 90.9504 143.123 90.7625 142.736 90.6159C142.601 90.5508 142.456 90.5117 142.307 90.5005C142.307 90.5005 142.851 90.7478 143.725 91.3579C144.923 92.2343 145.919 93.3591 146.643 94.6554C147.663 96.627 148.406 98.7297 148.852 100.904C149.496 103.56 149.937 106.261 150.171 108.983C150.394 111.699 150.394 114.429 150.171 117.145C150.027 119.357 149.432 121.517 148.424 123.492C147.713 124.793 146.721 125.919 145.522 126.79C144.632 127.416 144.137 127.614 144.154 127.664Z" fill="#C72752"/>
<path d="M191.843 124.328L203.234 126.563C204.753 126.861 205.743 128.334 205.444 129.853L205.276 130.71C204.978 132.23 203.505 133.219 201.986 132.921L190.596 130.687C189.077 130.389 188.087 128.916 188.385 127.397L188.553 126.539C188.851 125.02 190.324 124.03 191.843 124.328Z" fill="#FD3E72"/>
<path d="M189.973 125.998L139.438 110.137C139.136 110.037 138.817 109.998 138.5 110.021C138.183 110.045 137.873 110.132 137.59 110.276C137.306 110.42 137.054 110.619 136.847 110.861C136.641 111.103 136.485 111.384 136.388 111.687C136.29 111.994 136.255 112.318 136.285 112.639C136.316 112.961 136.411 113.272 136.565 113.556C136.719 113.839 136.929 114.088 137.181 114.289C137.434 114.489 137.725 114.636 138.037 114.721L189.725 128.686L189.973 125.998Z" fill="#FD3E72"/>
<path d="M152.628 119.024C152.091 118.798 151.54 118.606 150.979 118.447L146.363 117.029C144.417 116.436 142.043 115.809 139.52 114.985C138.906 114.762 138.344 114.414 137.872 113.962C137.411 113.491 137.156 112.857 137.163 112.198C137.163 111.878 137.263 111.566 137.449 111.306C137.636 111.046 137.899 110.85 138.201 110.747C138.892 110.559 139.621 110.559 140.312 110.747L155.464 115.694L160.081 117.128C160.619 117.314 161.17 117.463 161.729 117.573C161.197 117.313 160.646 117.092 160.081 116.914L155.513 115.265C151.655 113.962 146.346 112.132 140.378 110.319C139.588 110.079 138.744 110.079 137.954 110.319C137.547 110.456 137.193 110.718 136.941 111.067C136.69 111.415 136.554 111.834 136.553 112.264C136.547 112.662 136.622 113.056 136.772 113.425C136.922 113.793 137.145 114.127 137.426 114.408C137.953 114.916 138.583 115.304 139.273 115.545C141.878 116.37 144.219 116.93 146.181 117.491L150.847 118.727C151.43 118.884 152.026 118.983 152.628 119.024Z" fill="#C72752"/>
<path d="M172.941 48.0446C175.742 51.8332 177.965 56.0174 179.536 60.4598C180.307 62.6868 180.581 65.0556 180.339 67.3998C180.097 69.744 179.345 72.0068 178.135 74.0292C175.595 77.7389 171.259 79.7009 167.302 81.8608C163.345 84.0207 159.306 86.9885 158.316 91.3742C158.02 92.7427 158.597 97.5571 157.574 98.5133C156.156 99.8159 153.667 99.008 152.628 97.4087C151.589 95.8094 150.847 90.5168 150.814 88.5878L150.567 70.6162C150.567 65.538 150.567 60.2784 152.76 55.7773C155.843 49.3801 162.207 47.3356 171.507 47.7973" fill="#48464E"/>
<path d="M232.016 84.1198C231.31 78.0033 228.95 72.195 225.19 67.3189C221.39 62.4485 215.912 59.1686 209.824 58.1188C203.756 57.1955 197.623 58.8772 191.49 59.2234C185.356 59.5697 178.398 58.0693 175.2 52.8427C174.194 51.1939 173.732 48.9186 175.002 47.5007C175.517 46.9906 176.128 46.5871 176.799 46.3136C184.934 42.3641 194.05 40.8907 203.014 42.0763C212.012 43.3208 220.211 47.9061 225.982 54.9202C228.813 58.4442 230.806 62.5653 231.812 66.9724C232.817 71.3796 232.808 75.9575 231.785 80.3606" fill="#48464E"/>
<path d="M235.66 75.0844C235.787 74.8397 235.882 74.5791 235.94 74.3095C236.164 73.5427 236.33 72.7601 236.435 71.9683C236.791 69.03 236.51 66.0496 235.611 63.2298C234.275 59.0145 231.764 55.2679 228.372 52.4304C224.22 48.963 219.206 46.684 213.863 45.8353C208.559 45.0204 203.147 45.2613 197.936 46.5443C195.699 47.078 193.496 47.7498 191.341 48.5558C189.28 49.3142 187.45 50.2045 185.686 50.6167C182.906 51.3734 180.015 51.6302 177.145 51.3752C176.112 51.1592 175.148 50.6889 174.342 50.0067C174.495 50.244 174.684 50.4555 174.903 50.6332C175.528 51.157 176.268 51.5244 177.063 51.7049C179.997 52.1095 182.983 51.9359 185.851 51.1938C187.664 50.7486 189.544 49.9407 191.572 49.2318C193.73 48.4623 195.932 47.8236 198.167 47.3192C203.282 46.1018 208.583 45.8835 213.781 46.6762C218.963 47.4847 223.839 49.6522 227.911 52.958C231.218 55.6823 233.701 59.2732 235.083 63.3287C236.021 66.0608 236.38 68.958 236.138 71.8364C235.907 73.9633 235.578 75.0679 235.66 75.0844Z" fill="#5F5C67"/>
<path d="M209.049 37.2619C208.562 37.0841 208.05 36.984 207.532 36.9651C206.134 36.8222 204.726 36.8222 203.328 36.9651C198.662 37.4091 194.221 39.183 190.533 42.0763C188.406 43.7251 186.626 45.6212 184.73 46.8907C183.045 48.0006 181.156 48.7629 179.173 49.133C177.846 49.4511 176.475 49.5459 175.117 49.4133C174.161 49.2979 173.683 49.0341 173.633 49.1001C174.033 49.4488 174.526 49.6724 175.051 49.7431C176.451 50.0104 177.889 50.0104 179.289 49.7431C181.383 49.4421 183.389 48.7003 185.175 47.5667C187.17 46.2642 189 44.4176 191.061 42.7688C194.641 39.9784 198.896 38.1864 203.394 37.5752C206.856 37.097 209.032 37.4927 209.049 37.2619Z" fill="#5F5C67"/>
<path d="M136.239 81.4157C136.239 81.4157 136.569 80.8552 137.262 79.9319C138.283 78.6575 139.595 77.6457 141.087 76.9806C143.297 76.0044 145.695 75.526 148.111 75.5791C151.101 75.7455 154.073 76.1535 156.997 76.7992C159.989 77.4595 163.058 77.6926 166.115 77.4917C168.607 77.2766 171.053 76.6875 173.37 75.744C174.928 75.1124 176.415 74.3165 177.805 73.3698C178.355 73.0356 178.845 72.6121 179.256 72.1167C177.307 73.26 175.28 74.2628 173.188 75.1175C170.901 75.9474 168.509 76.4579 166.082 76.6343C163.1 76.7893 160.11 76.5397 157.195 75.8924C154.225 75.2307 151.201 74.8389 148.16 74.7218C145.63 74.6973 143.13 75.2618 140.856 76.3705C139.314 77.1223 137.991 78.2578 137.014 79.6681C136.77 80.0557 136.561 80.4639 136.388 80.8881C136.256 81.2509 136.206 81.4157 136.239 81.4157Z" fill="#5F5C67"/>
<path d="M138.844 69.8742C138.844 69.8742 139.158 69.3136 139.867 68.4232C140.905 67.2196 142.225 66.2908 143.708 65.7193C145.93 64.9 148.321 64.6451 150.666 64.9773C153.321 65.2411 156.206 66.049 159.322 66.6261C162.274 67.3033 165.345 67.258 168.275 66.4942C170.652 65.7614 172.799 64.4267 174.507 62.6196C175.662 61.4318 176.594 60.047 177.261 58.5306C177.405 58.1213 177.52 57.7027 177.607 57.2776C177.636 57.1251 177.636 56.9684 177.607 56.8159C176.692 58.8104 175.443 60.6338 173.914 62.2074C172.225 63.8598 170.16 65.0764 167.896 65.7522C165.073 66.4312 162.129 66.4312 159.306 65.7522C156.255 65.1752 153.337 64.3838 150.567 64.1035C148.106 63.7987 145.607 64.1337 143.313 65.0762C141.764 65.7238 140.424 66.7847 139.438 68.1429C139.094 68.6591 138.89 69.2555 138.844 69.8742Z" fill="#5F5C67"/>
<path d="M200.69 234.768L200.376 234.504L199.47 233.778C198.315 232.829 197.214 231.816 196.172 230.745C194.478 229.012 192.898 227.173 191.44 225.238C189.791 222.995 187.862 220.291 185.834 217.291C181.778 211.289 177.03 203.969 171.985 195.543C169.462 191.323 166.857 186.821 164.235 182.073C163.576 180.886 162.933 179.682 162.257 178.479C161.623 177.21 160.866 176.006 159.998 174.884C159.094 173.727 157.883 172.847 156.503 172.345C155.796 172.065 155.028 171.979 154.277 172.098C153.88 172.194 153.516 172.393 153.222 172.675C152.954 172.992 152.757 173.363 152.645 173.763V173.846C152.804 174.351 153.068 174.817 153.42 175.214C153.798 175.62 154.317 175.868 154.87 175.907C155.905 175.905 156.909 175.556 157.723 174.917C158.572 174.309 159.201 173.442 159.516 172.447C159.832 171.451 159.815 170.38 159.471 169.394C159.111 168.355 158.359 167.497 157.377 167.003C156.419 166.505 155.32 166.348 154.26 166.558C153.703 166.643 153.178 166.87 152.733 167.216C152.289 167.563 151.94 168.017 151.721 168.537C151.608 168.832 151.581 169.154 151.646 169.464C151.71 169.774 151.862 170.058 152.084 170.284C152.496 170.684 153.009 170.963 153.568 171.092C154.504 171.306 155.484 171.205 156.358 170.806C157.231 170.407 157.948 169.731 158.399 168.883C158.848 168.008 158.954 166.996 158.696 166.047C158.443 165.123 157.927 164.293 157.212 163.656C156.51 163.024 155.601 162.671 154.656 162.667C154.178 162.671 153.708 162.789 153.284 163.009C152.86 163.23 152.494 163.548 152.216 163.936C151.929 164.368 151.822 164.895 151.919 165.404C151.963 165.654 152.058 165.892 152.197 166.105C152.335 166.317 152.516 166.5 152.727 166.64C153.113 166.906 153.557 167.074 154.022 167.132C154.487 167.189 154.959 167.134 155.398 166.97C155.822 166.786 156.203 166.515 156.515 166.174C156.828 165.833 157.065 165.43 157.212 164.992C157.497 164.148 157.631 163.26 157.607 162.37C157.657 160.631 157.205 158.913 156.305 157.424C155.828 156.675 155.095 156.125 154.244 155.874C153.82 155.781 153.382 155.772 152.955 155.848C152.527 155.925 152.12 156.085 151.754 156.319C151.36 156.538 151.034 156.862 150.813 157.255C150.592 157.648 150.484 158.094 150.501 158.545C150.556 158.991 150.743 159.411 151.036 159.751C151.329 160.091 151.717 160.337 152.15 160.458C152.555 160.594 152.986 160.631 153.408 160.565C153.83 160.499 154.23 160.332 154.574 160.078C155.226 159.542 155.66 158.786 155.794 157.951C155.924 157.149 155.85 156.327 155.579 155.561C155.392 154.808 155.121 154.078 154.772 153.384C154.414 152.699 153.871 152.128 153.205 151.736C152.561 151.334 151.834 151.086 151.078 151.01C150.687 150.954 150.288 151.005 149.924 151.159C149.579 151.349 149.281 151.614 149.05 151.933C148.819 152.248 148.656 152.607 148.572 152.989C148.462 153.392 148.509 153.822 148.704 154.192C148.923 154.518 149.236 154.768 149.602 154.91C149.967 155.052 150.368 155.077 150.749 154.984C151.46 154.86 152.117 154.521 152.628 154.011C153.619 153.022 154.207 151.7 154.277 150.301C154.371 148.961 154.017 147.627 153.271 146.509C152.901 145.976 152.424 145.527 151.87 145.19C151.319 144.883 150.703 144.714 150.073 144.695C149.44 144.655 148.815 144.842 148.308 145.223C148.064 145.42 147.869 145.672 147.74 145.958C147.611 146.245 147.552 146.558 147.566 146.872C147.653 147.464 147.933 148.011 148.362 148.429C148.791 148.846 149.346 149.11 149.941 149.18C150.491 149.211 151.039 149.083 151.518 148.811C151.998 148.539 152.389 148.135 152.645 147.647C153.166 146.767 153.402 145.748 153.321 144.728C152.969 143 152.363 141.333 151.523 139.782L149.726 135.693C148.655 133.253 147.797 131.357 147.22 130.054L146.561 128.587C146.487 128.418 146.404 128.253 146.313 128.092C146.367 128.267 146.433 128.438 146.511 128.603L147.121 130.087L149.528 135.776L151.227 139.716C152.01 141.277 152.565 142.943 152.875 144.662C152.951 145.614 152.726 146.566 152.232 147.383C152.002 147.811 151.656 148.165 151.233 148.405C150.81 148.644 150.327 148.758 149.842 148.735C149.338 148.668 148.87 148.441 148.505 148.088C148.14 147.735 147.897 147.274 147.814 146.773C147.803 146.515 147.852 146.259 147.958 146.024C148.064 145.79 148.224 145.583 148.424 145.421C148.864 145.118 149.391 144.967 149.924 144.992C150.502 145.016 151.067 145.174 151.573 145.454C152.072 145.766 152.504 146.175 152.842 146.657C153.528 147.694 153.847 148.93 153.749 150.169C153.694 151.455 153.158 152.672 152.249 153.582C151.802 154.029 151.225 154.324 150.6 154.423C150.301 154.513 149.982 154.507 149.686 154.406C149.391 154.306 149.134 154.116 148.951 153.863C148.861 153.583 148.842 153.286 148.897 152.998C148.952 152.71 149.078 152.44 149.265 152.214C149.451 151.954 149.693 151.74 149.974 151.587C150.266 151.47 150.584 151.43 150.897 151.472C151.589 151.528 152.256 151.761 152.833 152.148C153.41 152.534 153.879 153.062 154.194 153.681C154.526 154.338 154.786 155.029 154.969 155.742C155.208 156.436 155.271 157.178 155.151 157.902C155.041 158.61 154.67 159.251 154.112 159.699C153.835 159.907 153.512 160.044 153.17 160.099C152.828 160.154 152.478 160.124 152.15 160.012C151.814 159.923 151.512 159.736 151.283 159.475C151.054 159.214 150.908 158.89 150.864 158.545C150.861 158.191 150.954 157.842 151.134 157.537C151.314 157.232 151.574 156.982 151.886 156.814C152.508 156.42 153.259 156.284 153.98 156.435C154.701 156.671 155.318 157.148 155.728 157.787C156.555 159.194 156.972 160.804 156.931 162.436C156.949 163.255 156.821 164.07 156.552 164.843C156.43 165.205 156.235 165.537 155.98 165.821C155.725 166.104 155.415 166.333 155.068 166.492C154.709 166.62 154.325 166.661 153.947 166.612C153.568 166.564 153.207 166.426 152.892 166.212C152.741 166.109 152.612 165.978 152.512 165.825C152.412 165.673 152.344 165.502 152.31 165.323C152.276 165.143 152.278 164.959 152.316 164.781C152.353 164.602 152.426 164.433 152.529 164.283C152.759 163.968 153.059 163.712 153.405 163.534C153.752 163.357 154.135 163.263 154.524 163.26C155.336 163.267 156.117 163.572 156.717 164.118C157.391 164.632 157.866 165.364 158.061 166.189C158.255 167.014 158.157 167.881 157.784 168.642C157.41 169.403 156.784 170.011 156.012 170.361C155.24 170.712 154.37 170.784 153.551 170.565C153.092 170.469 152.669 170.246 152.331 169.922C152.188 169.77 152.09 169.582 152.049 169.378C152.009 169.174 152.026 168.962 152.101 168.767C152.286 168.334 152.578 167.956 152.95 167.667C153.322 167.379 153.762 167.19 154.227 167.119C155.161 166.917 156.136 167.055 156.976 167.509C157.816 167.962 158.467 168.701 158.811 169.592C159.124 170.482 159.132 171.452 158.833 172.347C158.535 173.243 157.947 174.013 157.162 174.538C156.449 175.106 155.567 175.419 154.656 175.428C154.232 175.364 153.837 175.172 153.525 174.877C153.212 174.582 152.997 174.2 152.908 173.78V173.928C152.974 173.626 153.123 173.348 153.339 173.126C153.554 172.905 153.828 172.748 154.129 172.675C154.786 172.581 155.457 172.661 156.074 172.906C157.375 173.363 158.518 174.181 159.372 175.264C160.207 176.363 160.946 177.532 161.581 178.759C162.24 179.979 162.9 181.183 163.559 182.37C166.197 187.118 168.819 191.603 171.358 195.824C176.42 204.249 181.251 211.536 185.307 217.538C187.368 220.522 189.231 223.21 190.995 225.452C192.482 227.372 194.09 229.195 195.809 230.909C197.296 232.363 198.932 233.656 200.69 234.768Z" fill="#4D4A56"/>
<path d="M215 375.953C302.787 375.953 373.953 304.787 373.953 217C373.953 129.213 302.787 58.047 215 58.047C127.213 58.047 56.047 129.213 56.047 217C56.047 304.787 127.213 375.953 215 375.953Z" fill="#FFD8E1"/>
<g filter="url(#filter0_d)">
<path d="M372 57C372 84.062 349.39 106 321.5 106C309.815 106 299.057 102.149 290.5 95.6841C287.335 93.2929 255 115 255 115C255 115 279.889 86 276.108 78.5C272.837 72.009 271 64.7126 271 57C271 29.938 293.61 8 321.5 8C349.39 8 372 29.938 372 57Z" fill="white"/>
</g>
<circle cx="321.5" cy="56.5" r="41" stroke="#FD3E72" stroke-width="3"/>
<path d="M301.706 52.6219V52.5552L305.35 48.8967C306.56 47.6817 307.385 46.6001 307.853 45.6521C308.321 44.7175 308.554 43.6894 308.554 42.5812C308.554 41.74 308.376 40.9656 308.046 40.2446C307.716 39.5369 307.262 38.9494 306.698 38.4821C306.12 38.0148 305.474 37.6543 304.732 37.3872C303.989 37.1335 303.219 37 302.408 37C300.868 37 299.575 37.3338 298.516 37.9747C297.444 38.6156 296.605 39.4835 296 40.5517L298.75 42.461C299.589 41.1124 300.716 40.4315 302.119 40.4315C302.614 40.4315 303.054 40.5517 303.439 40.7653C303.824 40.9923 304.14 41.2994 304.36 41.6866C304.58 42.0738 304.69 42.5011 304.69 42.9817C304.69 43.6894 304.47 44.3703 304.058 45.0379C303.632 45.7056 302.985 46.48 302.105 47.3879L296.083 53.5566L296.124 56H308.761V52.6219H301.706Z" fill="#FD3E72"/>
<path d="M318.633 56H322.387V52.929H325V49.7512H322.387V37.227H319.307L310.438 50.5657V52.929H318.633V56ZM314.591 49.9382L318.895 43.1954V49.9382H314.591Z" fill="#FD3E72"/>
<path fill-rule="evenodd" clip-rule="evenodd" d="M344.612 40.3883C345.129 40.9059 345.129 41.7452 344.612 42.2629L309.263 77.6117C308.745 78.1294 307.906 78.1294 307.388 77.6117C306.871 77.0941 306.871 76.2548 307.388 75.7371L342.737 40.3883C343.255 39.8706 344.094 39.8706 344.612 40.3883Z" fill="#FD3E72"/>
<path d="M332 60V63.321H339.542L333.442 78.3384L337.107 79L343.577 62.4081V60H332Z" fill="#FD3E72"/>
<mask id="mask0" mask-type="alpha" maskUnits="userSpaceOnUse" x="56" y="58" width="318" height="318">
<path d="M215 375.953C302.787 375.953 373.953 304.787 373.953 217C373.953 129.213 302.787 58.047 215 58.047C127.213 58.047 56.047 129.213 56.047 217C56.047 304.787 127.213 375.953 215 375.953Z" fill="#FFD8E1"/>
</mask>
<g mask="url(#mask0)">
<path d="M356 341.449L76 341C76 341 142.937 385.922 223.295 380.555C293.178 375.968 356 341.449 356 341.449Z" fill="#455A64"/>
<path d="M227.977 209.294L216.716 250.513L175.579 194.966L185.274 340.618H244.003L261.117 341.443C261.117 341.443 258.578 318.492 257.539 305.516C256.905 295.158 255.158 284.899 252.329 274.915C243.558 246.391 227.977 209.294 227.977 209.294Z" fill="#FAFAFA"/>
<path d="M214.721 273.761C214.572 273.942 221.217 279.284 229.56 285.698C237.902 292.112 244.745 297.14 244.893 296.959C245.042 296.778 238.413 291.419 230.054 285.022C221.695 278.625 214.869 273.563 214.721 273.761Z" fill="#E1E1E1"/>
<path d="M112.481 189.212L144.467 173.829L157.014 158.924L174.755 177.358L221.81 340.206H141.12L130.782 312.26L112.481 204.364V189.212Z" fill="#FD3E72"/>
<path d="M256.418 342.514L258.578 307.89L161.119 291.403C161.119 291.403 144.467 210.976 134.211 197.802C124.731 185.634 112.398 189.855 112.398 189.855C112.398 189.855 101.269 197.472 103.924 226.639C105.325 241.923 110.914 294.882 112.926 314.024C113.42 318.607 114.942 323.02 117.377 326.934C120.121 331.34 123.942 334.975 128.479 337.496C133.017 340.017 138.122 341.342 143.313 341.344L256.418 342.514Z" fill="#FD3E72"/>
<path d="M145.192 311.567C145.341 311.567 145.473 310.034 146.181 307.676C147.091 304.598 148.628 301.741 150.697 299.286C152.766 296.831 155.321 294.832 158.201 293.414C160.41 292.31 161.927 291.931 161.878 291.766C160.512 291.873 159.18 292.242 157.954 292.854C154.894 294.16 152.184 296.164 150.039 298.707C147.895 301.249 146.376 304.259 145.604 307.495C145.209 308.814 145.069 310.196 145.192 311.567Z" fill="#D32353"/>
<g opacity="0.2">
<path opacity="0.2" d="M146.973 176.17C147.894 186.349 149.844 196.409 152.793 206.194L160.114 204.051C158.723 206.289 157.812 208.791 157.437 211.399C157.063 214.007 157.233 216.664 157.937 219.203C159.367 224.267 161.498 229.107 164.268 233.58C176.359 255.355 188.483 277.141 200.64 298.938L163.972 215.675L164.928 200.275L157.871 198.775L146.973 176.17Z" fill="black"/>
</g>
<g opacity="0.2">
<path opacity="0.2" d="M161.433 290.529C156.957 290.272 152.53 291.567 148.898 294.195C145.267 296.823 142.653 300.624 141.499 304.956C141.16 305.973 141.16 307.072 141.499 308.089C141.682 308.588 142.048 308.999 142.521 309.241C142.995 309.482 143.543 309.536 144.055 309.391C144.746 308.956 145.251 308.281 145.472 307.495C147.096 303.863 149.433 300.595 152.345 297.884C155.256 295.174 158.683 293.076 162.422 291.716" fill="black"/>
</g>
<path d="M200.376 298.146C200.241 297.691 200.076 297.245 199.882 296.811L198.233 293.035L192.314 279.268L172.43 233.943C169.594 227.513 166.857 221.314 164.285 215.51V215.692C164.598 210.218 164.911 205.073 165.192 200.309V199.979H164.895L157.822 198.511L158.053 198.693L149.265 180.903L146.808 176.039L146.132 174.786C146.061 174.636 145.978 174.493 145.885 174.357C145.911 174.519 145.967 174.676 146.05 174.819L146.627 176.121C147.187 177.325 147.946 178.99 148.918 181.067L157.443 198.99V199.138H157.607L164.664 200.671L164.367 200.292C164.071 205.057 163.741 210.185 163.378 215.675V215.774V215.873C165.95 221.693 168.671 227.892 171.507 234.323L191.605 279.548C194.194 285.253 196.288 289.903 197.788 293.217L199.437 296.91C199.718 297.345 200.032 297.759 200.376 298.146Z" fill="#D32353"/>
<path d="M256.5 341.426C256.542 341.236 256.569 341.043 256.583 340.849C256.583 340.421 256.583 339.86 256.715 339.2C256.83 337.651 256.995 335.474 257.193 332.605C257.572 326.917 258.116 318.756 258.842 308.715V308.434H258.578L188.06 295.475L162.059 290.76L162.389 291.073C156.668 269.359 151.721 250.513 148.16 237.026C146.379 230.431 144.862 225.04 143.956 221.314C143.445 219.516 143.065 218.115 142.785 217.109L142.472 216.021L142.34 215.675C142.318 215.8 142.318 215.929 142.34 216.054L142.587 217.142C142.834 218.164 143.181 219.582 143.626 221.38L147.599 237.158C151.078 250.662 155.942 269.54 161.532 291.271V291.535H161.795L187.862 296.349L258.397 309.045L258.133 308.715C257.589 318.772 257.144 326.934 256.83 332.638C256.698 335.425 256.599 337.585 256.533 339.151C256.533 339.86 256.533 340.421 256.533 340.8C256.501 341.007 256.49 341.217 256.5 341.426Z" fill="#D32353"/>
<path d="M117.394 186.525C117.394 186.673 119.043 186.92 121.516 187.844C124.757 189.058 127.726 190.901 130.252 193.267C132.779 195.632 134.814 198.473 136.239 201.627C137.328 204.051 137.674 205.7 137.888 205.65C138.102 205.601 137.888 205.238 137.773 204.48C137.569 203.426 137.265 202.393 136.866 201.396C135.546 198.076 133.51 195.088 130.902 192.645C128.294 190.203 125.179 188.366 121.78 187.267C120.758 186.938 119.71 186.701 118.647 186.558C117.823 186.475 117.41 186.459 117.394 186.525Z" fill="#D32353"/>
<path d="M301.66 149.873C298.775 144.547 300.011 123.047 295.609 123.806C289.921 124.779 295.181 147.383 295.609 149.444C296.038 151.505 292.988 152 292.773 150.137C292.444 147.449 289.146 121.151 283.557 122.635C280.457 123.443 281.908 129.098 281.908 129.098C281.908 129.098 286.722 154.588 284.051 155.198C281.38 155.808 279.352 141.118 278.165 135.776C276.978 130.434 273.681 128.439 272.411 131.143C270.564 135.1 274.06 147.944 275.181 153.088C276.302 158.232 278.907 173.153 271.669 167.317C264.431 161.48 256.83 159.666 254.341 160.606C251.851 161.546 252.477 165.223 255.247 165.948C258.181 167.046 260.953 168.532 263.491 170.367C265.506 171.868 267.342 173.594 268.965 175.511C271.126 177.887 272.876 180.606 274.142 183.557C275.17 185.888 276.68 187.975 278.573 189.68C280.466 191.385 282.698 192.67 285.123 193.45L289.344 213.532L316.68 207.679L310.597 186.426C308.371 172.461 309.591 153.698 309.574 145.207C309.574 131.588 307.777 131.489 306.277 131.852C302.633 132.561 304.48 155.066 301.66 149.873Z" fill="#FFD1BD"/>
<path d="M302.435 168.141C301.187 168.614 299.97 169.165 298.791 169.79C296.014 171.503 293.855 174.055 292.625 177.077C292.269 178.009 291.993 178.968 291.801 179.946L291.718 180.408L291.322 180.194C289.133 178.906 286.741 177.998 284.249 177.506C282.386 177.143 281.232 177.11 281.232 177.011C282.252 176.837 283.295 176.837 284.315 177.011C286.898 177.383 289.387 178.239 291.652 179.534L291.174 179.781C291.346 178.743 291.628 177.726 292.015 176.748C292.732 175.022 293.748 173.437 295.016 172.065C296.056 170.967 297.257 170.033 298.577 169.295C299.452 168.815 300.382 168.444 301.347 168.191C301.704 168.114 302.072 168.097 302.435 168.141Z" fill="#CC8F75"/>
<path d="M306.062 187.266C302.118 189.953 297.463 191.406 292.691 191.438C292.691 191.24 295.807 190.877 299.5 189.707C303.194 188.536 305.98 187.085 306.062 187.266Z" fill="#CC8F75"/>
<path d="M207.103 167.482L227.977 209.294L216.716 250.497L186.725 218.808L157.162 163.887L207.103 167.482Z" fill="#FFD1BD"/>
<path d="M226.757 171.406C226.757 171.406 256.435 181.958 256.435 183.92C261.678 188.025 279.138 230.25 284.694 238.23L300.589 261.725L287.267 209.723L316.565 201.116C316.565 201.116 341.593 261.494 344.627 274.915C346.461 282.884 346.291 291.183 344.132 299.07L343.968 298.938C342.089 304.961 338.216 310.165 332.987 313.694C320.572 321.658 308.964 323.158 297.093 314.387C290.366 309.44 282.683 303.422 275.659 297.817L273.813 341.476H257.638C257.638 339.019 258.133 309.111 258.133 309.111C256.009 302.034 254.357 294.824 253.186 287.528C251.719 277.24 227.614 209.674 227.614 209.674L208.934 173.632L208.488 160.293L226.757 171.406Z" fill="#FD3E72"/>
<path d="M274.159 341.097C274.238 340.65 274.282 340.198 274.291 339.745C274.357 338.777 274.439 337.475 274.538 335.837C274.719 332.342 274.967 327.428 275.28 321.361C275.841 309.012 276.599 292.013 277.456 272.953V272.854C277.11 271.057 276.731 269.128 276.352 267.182C272.444 247.166 268.883 229.03 266.294 215.823L263.145 200.292C262.782 198.511 262.469 197.11 262.255 196.071L262.007 194.983C261.98 194.859 261.942 194.737 261.892 194.62C261.867 194.745 261.867 194.874 261.892 194.999L262.073 196.104L262.815 200.358L265.684 215.955C268.207 229.145 271.669 247.282 275.577 267.364C275.939 269.293 276.319 271.222 276.665 273.019V272.92C275.906 291.98 275.23 308.995 274.752 321.328C274.554 327.412 274.39 332.325 274.274 335.821C274.274 337.469 274.274 338.772 274.175 339.745C274.134 340.194 274.128 340.646 274.159 341.097Z" fill="#D32353"/>
<path d="M257.556 302.351C257.55 301.891 257.501 301.433 257.407 300.982C257.259 300.026 257.078 298.724 256.83 297.091C256.253 293.629 255.462 288.847 254.489 282.78C252.428 270.645 249.543 254.025 246.476 235.642C244.382 223.622 242.42 212.345 240.738 202.666V202.567C236.616 193.235 233.17 185.437 230.73 179.88C229.527 177.209 228.554 175.082 227.861 173.533L227.086 171.884C227.006 171.685 226.9 171.496 226.773 171.323C226.816 171.528 226.882 171.727 226.971 171.917C227.152 172.378 227.367 172.939 227.647 173.566C228.307 175.115 229.197 177.275 230.318 179.979C232.709 185.569 236.056 193.417 240.046 202.798C241.695 212.411 243.607 223.705 245.668 235.774C248.966 254.141 251.801 270.744 253.912 282.879C255 288.831 255.874 293.678 256.517 297.124L257.259 300.999C257.327 301.456 257.426 301.907 257.556 302.351Z" fill="#DC3764"/>
<path d="M314.455 297.503C314.57 297.421 313.301 295.607 311.52 292.557C309.2 288.488 307.204 284.243 305.551 279.861C303.907 275.557 302.541 271.151 301.462 266.671C300.638 263.192 300.259 261.016 300.127 261.032C300.044 261.551 300.044 262.08 300.127 262.599C300.226 263.604 300.44 265.039 300.786 266.803C301.689 271.407 302.986 275.924 304.661 280.306C306.33 284.695 308.417 288.914 310.893 292.903C311.866 294.436 312.69 295.623 313.317 296.415C313.944 297.206 314.455 297.553 314.455 297.503Z" fill="#D32353"/>
<g opacity="0.2">
<path opacity="0.2" d="M312.196 295.096C312.464 295.154 312.715 295.272 312.93 295.44C313.146 295.609 313.321 295.824 313.441 296.07C313.562 296.316 313.625 296.586 313.627 296.86C313.628 297.134 313.567 297.405 313.449 297.652C313.166 298.132 312.742 298.514 312.235 298.744C311.727 298.974 311.161 299.042 310.613 298.938C309.518 298.711 308.514 298.167 307.728 297.371C305.339 294.918 303.634 291.883 302.781 288.567C300.259 280.62 300.143 272.079 300.044 263.835C302.347 274.719 306.431 285.147 312.13 294.7" fill="black"/>
</g>
<g opacity="0.2">
<path opacity="0.2" d="M276.154 298.971C280.949 290.935 283.047 281.574 282.139 272.26C281.248 259.565 275.082 247.958 270.482 236.103C273.12 248.568 274.637 260.95 277.077 272.936C277.077 272.936 275.808 290.76 275.775 298.657" fill="black"/>
</g>
<g opacity="0.2">
<path opacity="0.2" d="M255.676 291.023C254.39 272.03 253.088 253.003 249.741 234.273C246.347 215.102 239.889 196.602 230.615 179.484C233.006 187.003 240.376 202.798 240.376 202.798C240.376 202.798 251.01 258.856 255.627 287.149" fill="black"/>
</g>
<path d="M258.067 312.837L255.412 342.284H269.311L281.611 342.086C286.298 342.594 291.018 342.715 295.725 342.449C295.952 342.456 296.177 342.411 296.384 342.317C297.114 342.212 297.832 342.036 298.528 341.789C299.781 341.327 301.067 340.52 300.869 339.135C300.259 334.914 297.753 334.567 297.753 334.567H296.5L296.401 334.205C298.297 334.205 299.912 334.205 300.753 334.056C301.149 334.056 301.38 333.974 301.413 333.908C301.446 333.842 306.359 333.331 305.963 330.726C305.419 326.373 302.913 326.027 302.913 326.027L298.857 325.763C300.819 325.763 302.501 325.763 303.358 325.615C303.754 325.615 303.985 325.532 304.018 325.466C304.051 325.4 308.964 324.889 308.569 322.284C307.958 318.063 305.452 317.717 305.452 317.717L302.155 317.486C303.804 317.486 305.073 317.486 305.815 317.354C306.211 317.354 306.442 317.272 306.475 317.206C306.508 317.14 311.421 316.629 311.025 314.024C310.349 309.787 307.86 309.539 307.86 309.539C307.86 309.539 300.11 308.979 294.785 308.764C294.785 308.764 288.734 303.323 286.36 303.571C282.798 303.95 262.123 311.584 262.123 311.584L258.067 312.837Z" fill="#FFD1BD"/>
<path d="M284.15 333.661C286.411 334.169 288.726 334.391 291.042 334.32C293.318 334.53 295.61 334.458 297.868 334.106C295.608 333.594 293.293 333.367 290.976 333.43C288.701 333.21 286.406 333.287 284.15 333.661Z" fill="#CC8F75"/>
<path d="M284.117 325.302C287.35 325.869 290.629 326.139 293.911 326.11C297.205 326.372 300.516 326.339 303.804 326.011C300.571 325.445 297.292 325.18 294.01 325.219C290.717 324.947 287.406 324.974 284.117 325.302Z" fill="#CC8F75"/>
<g opacity="0.78">
<path opacity="0.78" d="M284.777 316.827C288.044 317.386 291.355 317.651 294.669 317.618C297.963 317.89 301.275 317.857 304.562 317.519C301.327 316.965 298.05 316.701 294.768 316.728C291.442 316.451 288.097 316.484 284.777 316.827Z" fill="#CC8F75"/>
</g>
<path d="M296.978 308.847C295.952 309.046 294.906 309.129 293.862 309.094L286.327 309.341L278.792 309.622C277.75 309.728 276.701 309.728 275.659 309.622C276.668 309.329 277.709 309.162 278.759 309.127C280.688 308.946 283.359 308.748 286.31 308.649C289.261 308.55 291.916 308.55 293.862 308.649C294.904 308.591 295.95 308.658 296.978 308.847Z" fill="#CC8F75"/>
<path d="M143.51 69.0006C140.015 60.5094 128.968 56.6348 120.329 59.8005C111.689 62.9661 105.952 71.8035 104.913 80.9377C104.199 85.4448 105.135 90.0583 107.551 93.9299C108.997 95.8213 110.813 97.3988 112.887 98.5665C114.962 99.7343 117.253 100.468 119.62 100.723C123.848 101.313 128.157 100.768 132.105 99.1442C136.054 97.5201 139.499 94.8752 142.088 91.4807C144.677 88.0862 146.317 84.0641 146.839 79.827C147.362 75.5898 146.748 71.29 145.06 67.3683" fill="#48464E"/>
<path d="M108.359 70.1219C108.359 70.1219 108.524 70.5671 108.985 71.2595C109.643 72.2227 110.382 73.1273 111.195 73.9635C113.897 76.7635 117.225 78.8825 120.905 80.1464C124.585 81.4104 128.512 81.7833 132.365 81.2346C133.522 81.069 134.663 80.8099 135.778 80.4597C136.202 80.3638 136.604 80.1906 136.965 79.9485C136.965 79.8002 135.184 80.3607 132.299 80.6245C128.546 80.989 124.759 80.5447 121.192 79.3217C117.626 78.0988 114.363 76.1255 111.623 73.5348C109.562 71.5398 108.524 70.0395 108.359 70.1219Z" fill="#5F5C67"/>
<path d="M104.748 79.8165C104.748 79.8165 105.045 80.1792 105.688 80.7068C106.601 81.4567 107.559 82.1505 108.557 82.7843C111.843 84.9168 115.483 86.4466 119.307 87.3019C121.427 87.7276 123.592 87.8936 125.753 87.7965C127.511 87.7089 129.254 87.4212 130.947 86.9392C132.084 86.6366 133.189 86.2224 134.244 85.7026C134.986 85.3399 135.399 85.1091 135.366 85.0596C135.333 85.0101 133.618 85.6861 130.765 86.3621C129.098 86.7446 127.397 86.9654 125.687 87.0216C123.59 87.061 121.495 86.873 119.438 86.461C115.709 85.6149 112.133 84.1967 108.837 82.2567C106.314 80.7893 104.83 79.7011 104.748 79.8165Z" fill="#5F5C67"/>
<path d="M232.676 94.375C253.088 49.4791 204.531 26.9405 178.052 34.4094C153.156 41.4496 142.538 53.8319 138.482 70.4844C134.426 87.137 134.574 105.109 141.103 121.052C144.401 128.867 150.122 136.831 158.531 137.804" fill="#48464E"/>
<path d="M208.291 205.32C208.653 183.886 208.901 154.407 208.901 154.538C208.901 154.67 227.334 151.472 231.159 127.416C233.055 115.463 232.461 95.8423 231.456 79.8163C230.532 65.3731 220.986 47.6818 206.592 49.1987L161.696 60.5752C159.588 60.7979 157.64 61.8044 156.238 63.3953C154.837 64.9862 154.084 67.0455 154.128 69.1653L157.063 162.024" fill="#FFD1BD"/>
<path d="M208.934 154.637C197.605 154.807 186.452 151.827 176.717 146.031C176.717 146.031 184.878 162.799 208.934 160.523V154.637Z" fill="#CC8F75"/>
<path d="M158.729 99.4697C158.366 99.3048 145.852 93.7649 145.703 108.159C145.555 122.552 160.048 119.7 160.081 119.337C160.114 118.975 158.729 99.4697 158.729 99.4697Z" fill="#FFD1BD"/>
<path d="M155.728 113.83C155.728 113.83 155.481 113.995 155.052 114.193C154.449 114.439 153.775 114.439 153.172 114.193C151.655 113.616 150.402 111.192 150.353 108.604C150.332 107.366 150.585 106.138 151.095 105.009C151.235 104.562 151.483 104.155 151.816 103.825C152.15 103.494 152.558 103.25 153.007 103.113C153.294 103.039 153.598 103.068 153.866 103.195C154.134 103.321 154.349 103.537 154.475 103.806C154.673 104.218 154.574 104.498 154.656 104.531C154.739 104.564 154.969 104.284 154.854 103.69C154.773 103.334 154.576 103.015 154.293 102.784C153.899 102.482 153.402 102.346 152.908 102.404C152.317 102.517 151.764 102.779 151.302 103.166C150.84 103.552 150.485 104.051 150.27 104.614C149.635 105.851 149.323 107.23 149.364 108.62C149.364 111.522 150.88 114.242 152.958 114.869C153.342 114.988 153.749 115.018 154.146 114.955C154.544 114.892 154.921 114.739 155.25 114.506C155.695 114.177 155.777 113.863 155.728 113.83Z" fill="#CC8F75"/>
<path d="M142.571 89.61C144.055 89.5111 155.942 91.0445 155.002 113.154C154.128 133.813 139.652 129.263 135.019 121.497C130.65 114.127 128.144 90.6323 142.571 89.61Z" fill="#FD3E72"/>
<path d="M135.217 92.2318C135.234 92.0398 135.234 91.8468 135.217 91.6548C135.217 91.2096 135.217 90.6655 135.217 90.006C135.217 88.4891 135.316 86.3622 135.399 83.7077C135.497 78.2833 135.646 70.7484 135.827 62.0264L135.563 62.2902H141.829L141.548 62.0099C141.548 63.6587 141.45 65.3899 141.417 67.1541C141.202 75.3979 141.004 83.1636 140.856 89.6433V89.8246H141.054C143.563 90.4085 145.794 91.8413 147.369 93.8806C148.553 95.4776 149.411 97.2931 149.891 99.2226C150.208 100.462 150.423 101.724 150.534 102.998C150.534 103.443 150.534 103.773 150.534 104.004C150.534 104.235 150.534 104.35 150.534 104.35C150.555 104.236 150.555 104.118 150.534 104.004C150.534 103.773 150.534 103.443 150.534 102.982C150.472 101.694 150.295 100.414 150.007 99.1566C149.561 97.1754 148.714 95.3068 147.517 93.6663C145.891 91.503 143.557 89.9799 140.922 89.363L141.103 89.5938C141.285 83.1306 141.515 75.4144 141.746 67.1211C141.746 65.3569 141.845 63.6092 141.878 61.9605V61.6802H135.201V61.944C135.102 70.6495 135.019 78.2008 134.953 83.6253C134.953 86.2798 134.953 88.4067 134.953 89.9236V91.5723C135.022 91.7995 135.11 92.0202 135.217 92.2318Z" fill="#972141"/>
<path d="M142.571 61.9767C147.032 52.627 154.425 44.9906 163.625 40.2295C169.291 37.4006 175.244 35.1895 181.383 33.6344C181.383 33.6344 172.727 31.5899 158.729 37.8058C152.381 40.6417 145.967 44.4008 141.73 49.8418C139.042 53.3537 135.679 60.196 135.695 61.9602L142.571 61.9767Z" fill="#FD3E72"/>
<path d="M144.154 127.664C144.302 127.653 144.448 127.613 144.582 127.548C144.966 127.388 145.336 127.195 145.687 126.971C146.97 126.132 148.038 125.002 148.803 123.674C149.888 121.672 150.54 119.464 150.716 117.194C150.962 114.452 150.962 111.693 150.716 108.95C150.483 106.202 150.025 103.478 149.347 100.805C148.872 98.5894 148.072 96.4559 146.973 94.474C146.202 93.1439 145.129 92.0141 143.84 91.1765C143.493 90.9504 143.123 90.7625 142.736 90.6159C142.601 90.5508 142.456 90.5117 142.307 90.5005C142.307 90.5005 142.851 90.7478 143.725 91.3579C144.923 92.2343 145.919 93.3591 146.643 94.6554C147.663 96.627 148.406 98.7297 148.852 100.904C149.496 103.56 149.937 106.261 150.171 108.983C150.394 111.699 150.394 114.429 150.171 117.145C150.027 119.357 149.432 121.517 148.424 123.492C147.713 124.793 146.721 125.919 145.522 126.79C144.632 127.416 144.137 127.614 144.154 127.664Z" fill="#C72752"/>
<path d="M191.843 124.328L203.234 126.563C204.753 126.861 205.743 128.334 205.444 129.853L205.276 130.71C204.978 132.23 203.505 133.219 201.986 132.921L190.596 130.687C189.077 130.389 188.087 128.916 188.385 127.397L188.553 126.539C188.851 125.02 190.324 124.03 191.843 124.328Z" fill="#FD3E72"/>
<path d="M189.973 125.998L139.438 110.137C139.136 110.037 138.817 109.998 138.5 110.021C138.183 110.045 137.873 110.132 137.59 110.276C137.306 110.42 137.054 110.619 136.847 110.861C136.641 111.103 136.485 111.384 136.388 111.687C136.29 111.994 136.255 112.318 136.285 112.639C136.316 112.961 136.411 113.272 136.565 113.556C136.719 113.839 136.929 114.088 137.181 114.289C137.434 114.489 137.725 114.636 138.037 114.721L189.725 128.686L189.973 125.998Z" fill="#FD3E72"/>
<path d="M152.628 119.024C152.091 118.798 151.54 118.606 150.979 118.447L146.363 117.029C144.417 116.436 142.043 115.809 139.52 114.985C138.906 114.762 138.344 114.414 137.872 113.962C137.411 113.491 137.156 112.857 137.163 112.198C137.163 111.878 137.263 111.566 137.449 111.306C137.636 111.046 137.899 110.85 138.201 110.747C138.892 110.559 139.621 110.559 140.312 110.747L155.464 115.694L160.081 117.128C160.619 117.314 161.17 117.463 161.729 117.573C161.197 117.313 160.646 117.092 160.081 116.914L155.513 115.265C151.655 113.962 146.346 112.132 140.378 110.319C139.588 110.079 138.744 110.079 137.954 110.319C137.547 110.456 137.193 110.718 136.941 111.067C136.69 111.415 136.554 111.834 136.553 112.264C136.547 112.662 136.622 113.056 136.772 113.425C136.922 113.793 137.145 114.127 137.426 114.408C137.953 114.916 138.583 115.304 139.273 115.545C141.878 116.37 144.219 116.93 146.181 117.491L150.847 118.727C151.43 118.884 152.026 118.983 152.628 119.024Z" fill="#C72752"/>
<path d="M172.941 48.0446C175.742 51.8332 177.965 56.0174 179.536 60.4598C180.307 62.6868 180.581 65.0556 180.339 67.3998C180.097 69.744 179.345 72.0068 178.135 74.0292C175.595 77.7389 171.259 79.7009 167.302 81.8608C163.345 84.0207 159.306 86.9885 158.316 91.3742C158.02 92.7427 158.597 97.5571 157.574 98.5133C156.156 99.8159 153.667 99.008 152.628 97.4087C151.589 95.8094 150.847 90.5168 150.814 88.5878L150.567 70.6162C150.567 65.538 150.567 60.2784 152.76 55.7773C155.843 49.3801 162.207 47.3356 171.507 47.7973" fill="#48464E"/>
<path d="M232.016 84.1198C231.31 78.0033 228.95 72.195 225.19 67.3189C221.39 62.4485 215.912 59.1686 209.824 58.1188C203.756 57.1955 197.623 58.8772 191.49 59.2234C185.356 59.5697 178.398 58.0693 175.2 52.8427C174.194 51.1939 173.732 48.9186 175.002 47.5007C175.517 46.9906 176.128 46.5871 176.799 46.3136C184.934 42.3641 194.05 40.8907 203.014 42.0763C212.012 43.3208 220.211 47.9061 225.982 54.9202C228.813 58.4442 230.806 62.5653 231.812 66.9724C232.817 71.3796 232.808 75.9575 231.785 80.3606" fill="#48464E"/>
<path d="M235.66 75.0844C235.787 74.8397 235.882 74.5791 235.94 74.3095C236.164 73.5427 236.33 72.7601 236.435 71.9683C236.791 69.03 236.51 66.0496 235.611 63.2298C234.275 59.0145 231.764 55.2679 228.372 52.4304C224.22 48.963 219.206 46.684 213.863 45.8353C208.559 45.0204 203.147 45.2613 197.936 46.5443C195.699 47.078 193.496 47.7498 191.341 48.5558C189.28 49.3142 187.45 50.2045 185.686 50.6167C182.906 51.3734 180.015 51.6302 177.145 51.3752C176.112 51.1592 175.148 50.6889 174.342 50.0067C174.495 50.244 174.684 50.4555 174.903 50.6332C175.528 51.157 176.268 51.5244 177.063 51.7049C179.997 52.1095 182.983 51.9359 185.851 51.1938C187.664 50.7486 189.544 49.9407 191.572 49.2318C193.73 48.4623 195.932 47.8236 198.167 47.3192C203.282 46.1018 208.583 45.8835 213.781 46.6762C218.963 47.4847 223.839 49.6522 227.911 52.958C231.218 55.6823 233.701 59.2732 235.083 63.3287C236.021 66.0608 236.38 68.958 236.138 71.8364C235.907 73.9633 235.578 75.0679 235.66 75.0844Z" fill="#5F5C67"/>
<path d="M136.239 81.4157C136.239 81.4157 136.569 80.8552 137.262 79.9319C138.283 78.6575 139.595 77.6457 141.087 76.9806C143.297 76.0044 145.695 75.526 148.111 75.5791C151.101 75.7455 154.073 76.1535 156.997 76.7992C159.989 77.4595 163.058 77.6926 166.115 77.4917C168.607 77.2766 171.053 76.6875 173.37 75.744C174.928 75.1124 176.415 74.3165 177.805 73.3698C178.355 73.0356 178.845 72.6121 179.256 72.1167C177.307 73.26 175.28 74.2628 173.188 75.1175C170.901 75.9474 168.509 76.4579 166.082 76.6343C163.1 76.7893 160.11 76.5397 157.195 75.8924C154.225 75.2307 151.201 74.8389 148.16 74.7218C145.63 74.6973 143.13 75.2618 140.856 76.3705C139.314 77.1223 137.991 78.2578 137.014 79.6681C136.77 80.0557 136.561 80.4639 136.388 80.8881C136.256 81.2509 136.206 81.4157 136.239 81.4157Z" fill="#5F5C67"/>
<path d="M138.844 69.8742C138.844 69.8742 139.158 69.3136 139.867 68.4232C140.905 67.2196 142.225 66.2908 143.708 65.7193C145.93 64.9 148.321 64.6451 150.666 64.9773C153.321 65.2411 156.206 66.049 159.322 66.6261C162.274 67.3033 165.345 67.258 168.275 66.4942C170.652 65.7614 172.799 64.4267 174.507 62.6196C175.662 61.4318 176.594 60.047 177.261 58.5306C177.405 58.1213 177.52 57.7027 177.607 57.2776C177.636 57.1251 177.636 56.9684 177.607 56.8159C176.692 58.8104 175.443 60.6338 173.914 62.2074C172.225 63.8598 170.16 65.0764 167.896 65.7522C165.073 66.4312 162.129 66.4312 159.306 65.7522C156.255 65.1752 153.337 64.3838 150.567 64.1035C148.106 63.7987 145.607 64.1337 143.313 65.0762C141.764 65.7238 140.424 66.7847 139.438 68.1429C139.094 68.6591 138.89 69.2555 138.844 69.8742Z" fill="#5F5C67"/>
<path d="M200.69 234.768L200.376 234.504L199.47 233.778C198.315 232.829 197.214 231.816 196.172 230.745C194.478 229.012 192.898 227.173 191.44 225.238C189.791 222.995 187.862 220.291 185.834 217.291C181.778 211.289 177.03 203.969 171.985 195.543C169.462 191.323 166.857 186.821 164.235 182.073C163.576 180.886 162.933 179.682 162.257 178.479C161.623 177.21 160.866 176.006 159.998 174.884C159.094 173.727 157.883 172.847 156.503 172.345C155.796 172.065 155.028 171.979 154.277 172.098C153.88 172.194 153.516 172.393 153.222 172.675C152.954 172.992 152.757 173.363 152.645 173.763V173.846C152.804 174.351 153.068 174.817 153.42 175.214C153.798 175.62 154.317 175.868 154.87 175.907C155.905 175.905 156.909 175.556 157.723 174.917C158.572 174.309 159.201 173.442 159.516 172.447C159.832 171.451 159.815 170.38 159.471 169.394C159.111 168.355 158.359 167.497 157.377 167.003C156.419 166.505 155.32 166.348 154.26 166.558C153.703 166.643 153.178 166.87 152.733 167.216C152.289 167.563 151.94 168.017 151.721 168.537C151.608 168.832 151.581 169.154 151.646 169.464C151.71 169.774 151.862 170.058 152.084 170.284C152.496 170.684 153.009 170.963 153.568 171.092C154.504 171.306 155.484 171.205 156.358 170.806C157.231 170.407 157.948 169.731 158.399 168.883C158.848 168.008 158.954 166.996 158.696 166.047C158.443 165.123 157.927 164.293 157.212 163.656C156.51 163.024 155.601 162.671 154.656 162.667C154.178 162.671 153.708 162.789 153.284 163.009C152.86 163.23 152.494 163.548 152.216 163.936C151.929 164.368 151.822 164.895 151.919 165.404C151.963 165.654 152.058 165.892 152.197 166.105C152.335 166.317 152.516 166.5 152.727 166.64C153.113 166.906 153.557 167.074 154.022 167.132C154.487 167.189 154.959 167.134 155.398 166.97C155.822 166.786 156.203 166.515 156.515 166.174C156.828 165.833 157.065 165.43 157.212 164.992C157.497 164.148 157.631 163.26 157.607 162.37C157.657 160.631 157.205 158.913 156.305 157.424C155.828 156.675 155.095 156.125 154.244 155.874C153.82 155.781 153.382 155.772 152.955 155.848C152.527 155.925 152.12 156.085 151.754 156.319C151.36 156.538 151.034 156.862 150.813 157.255C150.592 157.648 150.484 158.094 150.501 158.545C150.556 158.991 150.743 159.411 151.036 159.751C151.329 160.091 151.717 160.337 152.15 160.458C152.555 160.594 152.986 160.631 153.408 160.565C153.83 160.499 154.23 160.332 154.574 160.078C155.226 159.542 155.66 158.786 155.794 157.951C155.924 157.149 155.85 156.327 155.579 155.561C155.392 154.808 155.121 154.078 154.772 153.384C154.414 152.699 153.871 152.128 153.205 151.736C152.561 151.334 151.834 151.086 151.078 151.01C150.687 150.954 150.288 151.005 149.924 151.159C149.579 151.349 149.281 151.614 149.05 151.933C148.819 152.248 148.656 152.607 148.572 152.989C148.462 153.392 148.509 153.822 148.704 154.192C148.923 154.518 149.236 154.768 149.602 154.91C149.967 155.052 150.368 155.077 150.749 154.984C151.46 154.86 152.117 154.521 152.628 154.011C153.619 153.022 154.207 151.7 154.277 150.301C154.371 148.961 154.017 147.627 153.271 146.509C152.901 145.976 152.424 145.527 151.87 145.19C151.319 144.883 150.703 144.714 150.073 144.695C149.44 144.655 148.815 144.842 148.308 145.223C148.064 145.42 147.869 145.672 147.74 145.958C147.611 146.245 147.552 146.558 147.566 146.872C147.653 147.464 147.933 148.011 148.362 148.429C148.791 148.846 149.346 149.11 149.941 149.18C150.491 149.211 151.039 149.083 151.518 148.811C151.998 148.539 152.389 148.135 152.645 147.647C153.166 146.767 153.402 145.748 153.321 144.728C152.969 143 152.363 141.333 151.523 139.782L149.726 135.693C148.655 133.253 147.797 131.357 147.22 130.054L146.561 128.587C146.487 128.418 146.404 128.253 146.313 128.092C146.367 128.267 146.433 128.438 146.511 128.603L147.121 130.087L149.528 135.776L151.227 139.716C152.01 141.277 152.565 142.943 152.875 144.662C152.951 145.614 152.726 146.566 152.232 147.383C152.002 147.811 151.656 148.165 151.233 148.405C150.81 148.644 150.327 148.758 149.842 148.735C149.338 148.668 148.87 148.441 148.505 148.088C148.14 147.735 147.897 147.274 147.814 146.773C147.803 146.515 147.852 146.259 147.958 146.024C148.064 145.79 148.224 145.583 148.424 145.421C148.864 145.118 149.391 144.967 149.924 144.992C150.502 145.016 151.067 145.174 151.573 145.454C152.072 145.766 152.504 146.175 152.842 146.657C153.528 147.694 153.847 148.93 153.749 150.169C153.694 151.455 153.158 152.672 152.249 153.582C151.802 154.029 151.225 154.324 150.6 154.423C150.301 154.513 149.982 154.507 149.686 154.406C149.391 154.306 149.134 154.116 148.951 153.863C148.861 153.583 148.842 153.286 148.897 152.998C148.952 152.71 149.078 152.44 149.265 152.214C149.451 151.954 149.693 151.74 149.974 151.587C150.266 151.47 150.584 151.43 150.897 151.472C151.589 151.528 152.256 151.761 152.833 152.148C153.41 152.534 153.879 153.062 154.194 153.681C154.526 154.338 154.786 155.029 154.969 155.742C155.208 156.436 155.271 157.178 155.151 157.902C155.041 158.61 154.67 159.251 154.112 159.699C153.835 159.907 153.512 160.044 153.17 160.099C152.828 160.154 152.478 160.124 152.15 160.012C151.814 159.923 151.512 159.736 151.283 159.475C151.054 159.214 150.908 158.89 150.864 158.545C150.861 158.191 150.954 157.842 151.134 157.537C151.314 157.232 151.574 156.982 151.886 156.814C152.508 156.42 153.259 156.284 153.98 156.435C154.701 156.671 155.318 157.148 155.728 157.787C156.555 159.194 156.972 160.804 156.931 162.436C156.949 163.255 156.821 164.07 156.552 164.843C156.43 165.205 156.235 165.537 155.98 165.821C155.725 166.104 155.415 166.333 155.068 166.492C154.709 166.62 154.325 166.661 153.947 166.612C153.568 166.564 153.207 166.426 152.892 166.212C152.741 166.109 152.612 165.978 152.512 165.825C152.412 165.673 152.344 165.502 152.31 165.323C152.276 165.143 152.278 164.959 152.316 164.781C152.353 164.602 152.426 164.433 152.529 164.283C152.759 163.968 153.059 163.712 153.405 163.534C153.752 163.357 154.135 163.263 154.524 163.26C155.336 163.267 156.117 163.572 156.717 164.118C157.391 164.632 157.866 165.364 158.061 166.189C158.255 167.014 158.157 167.881 157.784 168.642C157.41 169.403 156.784 170.011 156.012 170.361C155.24 170.712 154.37 170.784 153.551 170.565C153.092 170.469 152.669 170.246 152.331 169.922C152.188 169.77 152.09 169.582 152.049 169.378C152.009 169.174 152.026 168.962 152.101 168.767C152.286 168.334 152.578 167.956 152.95 167.667C153.322 167.379 153.762 167.19 154.227 167.119C155.161 166.917 156.136 167.055 156.976 167.509C157.816 167.962 158.467 168.701 158.811 169.592C159.124 170.482 159.132 171.452 158.833 172.347C158.535 173.243 157.947 174.013 157.162 174.538C156.449 175.106 155.567 175.419 154.656 175.428C154.232 175.364 153.837 175.172 153.525 174.877C153.212 174.582 152.997 174.2 152.908 173.78V173.928C152.974 173.626 153.123 173.348 153.339 173.126C153.554 172.905 153.828 172.748 154.129 172.675C154.786 172.581 155.457 172.661 156.074 172.906C157.375 173.363 158.518 174.181 159.372 175.264C160.207 176.363 160.946 177.532 161.581 178.759C162.24 179.979 162.9 181.183 163.559 182.37C166.197 187.118 168.819 191.603 171.358 195.824C176.42 204.249 181.251 211.536 185.307 217.538C187.368 220.522 189.231 223.21 190.995 225.452C192.482 227.372 194.09 229.195 195.809 230.909C197.296 232.363 198.932 233.656 200.69 234.768Z" fill="#4D4A56"/>
</g>
<defs>
<filter id="filter0_d" x="243" y="0" width="141" height="131" filterUnits="userSpaceOnUse" color-interpolation-filters="sRGB">
<feFlood flood-opacity="0" result="BackgroundImageFix"/>
<feColorMatrix in="SourceAlpha" type="matrix" values="0 0 0 0 0 0 0 0 0 0 0 0 0 0 0 0 0 0 127 0" result="hardAlpha"/>
<feOffset dy="4"/>
<feGaussianBlur stdDeviation="6"/>
<feComposite in2="hardAlpha" operator="out"/>
<feColorMatrix type="matrix" values="0 0 0 0 0 0 0 0 0 0 0 0 0 0 0 0 0 0 0.15 0"/>
<feBlend mode="normal" in2="BackgroundImageFix" result="effect1_dropShadow"/>
<feBlend mode="normal" in="SourceGraphic" in2="effect1_dropShadow" result="shape"/>
</filter>
</defs>
</svg>
