<svg width="597" height="575" viewBox="0 0 597 575" fill="none" xmlns="http://www.w3.org/2000/svg">
<circle opacity="0.4" cx="300" cy="317" r="258" fill="white"/>
<circle opacity="0.15" cx="300.337" cy="317.337" r="192.337" fill="white"/>
<g filter="url(#filter0_d)">
<path d="M109 153C114.523 153 119 157.477 119 163V243C119 248.523 114.523 253 109 253H106.946H90.3526H23C17.4772 253 13 248.523 13 243V163C13 157.477 17.4771 153 23 153H109Z" fill="white"/>
</g>
<path d="M96.5788 171H35.3719C33.186 171 31 173.186 31 175.372V230.021C31 232.207 33.186 234.393 35.3719 234.393H96.5788C98.7648 234.393 100.951 232.207 100.951 230.021V175.372C100.951 173.186 98.7648 171 96.5788 171Z" fill="#455A64"/>
<path d="M95.7648 184H36.186C34.5291 184 33.186 185.343 33.186 187V229.091C33.186 230.748 34.5291 232.091 36.186 232.091H95.7648C97.4216 232.091 98.7648 230.748 98.7648 229.091V187C98.7648 185.343 97.4216 184 95.7648 184Z" fill="white"/>
<rect x="66" y="192" width="19" height="6" rx="2" fill="#E8E5E5"/>
<rect x="66" y="222" width="16" height="4" rx="2" fill="#F67F9F"/>
<rect x="66" y="202" width="30" height="3" rx="1.5" fill="#E8E5E5"/>
<rect x="66" y="207" width="24.8276" height="3" rx="1.5" fill="#E8E5E5"/>
<rect x="66" y="212" width="18" height="3" rx="1.5" fill="#E8E5E5"/>
<g filter="url(#filter1_d)">
<path d="M41.3636 211.226C41.1065 210.961 40.9473 210.596 40.947 210.193L40.9428 201.717C40.9395 197.534 44.2485 194.135 48.3191 194.138C52.3897 194.141 55.7041 197.547 55.7075 201.731L55.7116 210.206C55.7123 211.012 55.0772 211.664 54.2932 211.664C53.5091 211.663 52.8729 211.009 52.8723 210.203L52.8681 201.728C52.8661 199.154 50.8265 197.058 48.3214 197.056C45.8164 197.054 43.7801 199.146 43.7822 201.719L43.7863 210.196C43.787 211.002 43.1519 211.654 42.3678 211.654C41.9758 211.653 41.6207 211.49 41.3636 211.226Z" fill="#FD3E72"/>
<path d="M42.9627 223.668C40.997 223.668 39.3978 222.446 39.3978 220.944V212.408C39.3978 210.906 40.997 209.684 42.9627 209.684H54.1327C56.0984 209.684 57.6976 210.906 57.6976 212.408V220.944C57.6976 222.446 56.0984 223.668 54.1327 223.668H42.9627Z" fill="#FD3E72"/>
<path d="M55.82 213.124C55.82 212.292 54.8431 211.612 53.649 211.612H43.445C42.2509 211.612 41.2739 212.292 41.2739 213.124V220.228C41.2739 221.059 42.2509 221.739 43.445 221.739H53.649C54.8431 221.739 55.82 221.059 55.82 220.228V213.124Z" fill="#FD3E72"/>
<path d="M50.1879 214.759C50.1879 213.821 49.3476 213.06 48.311 213.06C47.2744 213.06 46.434 213.821 46.434 214.759C46.434 215.381 46.8041 215.931 47.3545 216.227L46.8324 220.294H48.3572H49.8819L49.355 216.179C49.8572 215.874 50.1879 215.348 50.1879 214.759Z" fill="white"/>
</g>
<path d="M55.3566 177.105C55.3566 177.527 55.2314 177.94 54.9968 178.291C54.7621 178.643 54.4287 178.916 54.0385 179.078C53.6483 179.239 53.219 179.282 52.8048 179.199C52.3906 179.117 52.0101 178.914 51.7115 178.615C51.4129 178.316 51.2095 177.936 51.1271 177.522C51.0448 177.107 51.087 176.678 51.2487 176.288C51.4103 175.898 51.6839 175.564 52.0351 175.33C52.3862 175.095 52.7991 174.97 53.2214 174.97C53.5018 174.97 53.7794 175.025 54.0385 175.132C54.2975 175.24 54.5329 175.397 54.7312 175.595C54.9295 175.794 55.0868 176.029 55.1941 176.288C55.3014 176.547 55.3566 176.825 55.3566 177.105Z" fill="#00B67A"/>
<path d="M42.4131 177.105C42.4131 177.527 42.2879 177.94 42.0533 178.291C41.8187 178.643 41.4852 178.916 41.095 179.078C40.7048 179.239 40.2755 179.282 39.8613 179.199C39.4471 179.117 39.0667 178.914 38.768 178.615C38.4694 178.316 38.266 177.936 38.1837 177.522C38.1013 177.107 38.1436 176.678 38.3052 176.288C38.4668 175.898 38.7405 175.564 39.0916 175.33C39.4427 175.095 39.8556 174.97 40.2779 174.97C40.5583 174.97 40.8359 175.025 41.095 175.132C41.3541 175.24 41.5895 175.397 41.7877 175.595C41.986 175.794 42.1433 176.029 42.2506 176.288C42.3579 176.547 42.4131 176.825 42.4131 177.105Z" fill="#FD3E72"/>
<path d="M48.628 177.105C48.628 177.528 48.5022 177.942 48.2665 178.294C48.0309 178.645 47.6961 178.919 47.3047 179.08C46.9132 179.241 46.4828 179.282 46.068 179.198C45.6532 179.113 45.2728 178.908 44.9751 178.607C44.6774 178.306 44.4758 177.924 44.3959 177.508C44.316 177.092 44.3614 176.662 44.5264 176.273C44.6914 175.883 44.9685 175.551 45.3225 175.319C45.6766 175.087 46.0915 174.966 46.5148 174.97C47.0772 174.976 47.6147 175.203 48.0104 175.603C48.4061 176.003 48.628 176.543 48.628 177.105Z" fill="#F8C83C"/>
<path d="M68 257V323C68 328.523 72.4772 333 78 333H141" stroke="white" stroke-width="3" stroke-linecap="round" stroke-dasharray="12 12"/>
<path d="M531 416L531 350C531 344.477 526.523 340 521 340L458 340" stroke="white" stroke-width="3" stroke-linecap="round" stroke-dasharray="12 12"/>
<path d="M453 116V187.858C453 190.51 451.946 193.054 450.071 194.929L425.5 219.5" stroke="white" stroke-width="3" stroke-linecap="round" stroke-dasharray="12 12"/>
<g filter="url(#filter2_d)">
<path d="M496 9C501.523 9 506 13.4772 506 19V99C506 104.523 501.523 109 496 109H493.946H477.353H410C404.477 109 400 104.523 400 99V19C400 13.4772 404.477 9 410 9H496Z" fill="white"/>
</g>
<path d="M481.875 42.4907H424.125C421.852 42.4907 420 44.3428 420 46.6157V83.7407C420 86.0177 421.852 87.8657 424.125 87.8657H481.875C484.152 87.8657 486 86.0177 486 83.7407V46.6157C486 44.3428 484.152 42.4907 481.875 42.4907Z" fill="#FD3E72"/>
<path d="M486 50.7408H420V63.1158H486V50.7408Z" fill="#455A64"/>
<path d="M438.562 75.4907H430.312C429.174 75.4907 428.25 74.5667 428.25 73.4282C428.25 72.2897 429.174 71.3657 430.312 71.3657H438.562C439.701 71.3657 440.625 72.2897 440.625 73.4282C440.625 74.5667 439.701 75.4907 438.562 75.4907Z" fill="#FAFAFA"/>
<path d="M486 62.893V46.6157C486 44.3428 484.152 42.4907 481.875 42.4907H448.875V46.6157C448.875 59.5352 453.792 67.4016 466.431 74.6781C467.363 75.2102 468.427 75.4907 469.5 75.4907C470.573 75.4907 471.637 75.2102 472.581 74.6698C478.835 71.077 483.191 67.3273 486 62.893Z" fill="#FAFAFA"/>
<path d="M484.75 36.4725L470.313 30.285C469.789 30.0622 469.207 30.0622 468.683 30.285L454.246 36.4725C453.491 36.7942 453 37.5409 453 38.3659V46.6159C453 57.9637 457.195 64.5967 468.473 71.0936C468.791 71.2751 469.145 71.3659 469.5 71.3659C469.855 71.3659 470.209 71.2751 470.527 71.0936C481.805 64.6132 486 57.9802 486 46.6159V38.3659C486 37.5409 485.509 36.7942 484.75 36.4725Z" fill="#FD3E72"/>
<path d="M467.437 56.9284C467.409 56.9284 467.376 56.9284 467.351 56.9284C466.695 56.8995 466.089 56.5612 465.721 56.0126L461.596 49.8251C460.965 48.8764 461.221 47.5976 462.17 46.9665C463.11 46.3395 464.393 46.587 465.029 47.5399L467.59 51.3802L474.075 43.2705C474.788 42.3836 476.088 42.2434 476.975 42.9487C477.866 43.6624 478.006 44.9576 477.296 45.8486L469.046 56.1611C468.654 56.6437 468.06 56.9284 467.437 56.9284Z" fill="#FAFAFA"/>
<g filter="url(#filter3_d)">
<path d="M574 423C579.523 423 584 427.477 584 433V513C584 518.523 579.523 523 574 523H571.946H555.353H488C482.477 523 478 518.523 478 513V433C478 427.477 482.477 423 488 423H574Z" fill="white"/>
</g>
<path d="M512 452L530 470" stroke="#FD3E72" stroke-width="1.75" stroke-linecap="round" stroke-linejoin="round"/>
<path d="M519.584 459.587C519.209 459.962 518.998 460.471 518.998 461.001C518.997 461.532 519.208 462.041 519.583 462.416C519.958 462.791 520.467 463.002 520.997 463.002C521.528 463.003 522.037 462.792 522.412 462.417" stroke="#FD3E72" stroke-width="1.75" stroke-linecap="round" stroke-linejoin="round"/>
<path d="M526.357 466.349C524.726 467.449 522.942 468 521 468C517 468 513.667 465.667 511 461C512.369 458.605 513.913 456.825 515.632 455.659M518.363 454.365C519.22 454.12 520.108 453.997 521 454C525 454 528.333 456.333 531 461C530.222 462.361 529.388 463.524 528.497 464.488L518.363 454.365Z" stroke="#FD3E72" stroke-width="1.75" stroke-linecap="round" stroke-linejoin="round"/>
<path d="M521.02 481.04C532.077 481.04 541.04 472.077 541.04 461.02C541.04 449.963 532.077 441 521.02 441C509.963 441 501 449.963 501 461.02C501 472.077 509.963 481.04 521.02 481.04Z" stroke="#525058" stroke-width="5" stroke-linecap="round" stroke-linejoin="round"/>
<path d="M557.94 497.94L535.32 475.32" stroke="#525058" stroke-width="5" stroke-linecap="round" stroke-linejoin="round"/>
<path d="M561.5 501.5L544 484" stroke="#FD3E72" stroke-width="7" stroke-linecap="round" stroke-linejoin="round"/>
<circle cx="300.5" cy="317.5" r="122.5" fill="white"/>
<circle cx="300.5" cy="317.5" r="146.5" stroke="white" stroke-width="3" stroke-linecap="round" stroke-dasharray="12 12"/>
<circle cx="300.5" cy="317.5" r="103.371" fill="white" stroke="#F03165" stroke-width="5"/>
<path d="M364.244 259.299C353.176 259.299 344.253 267.845 344.253 278.445V333.897C344.253 336.216 344.115 338.535 343.838 340.986C343.561 343.371 342.869 345.557 341.763 347.545C340.656 349.532 338.996 351.188 336.782 352.514C334.568 353.839 331.386 354.501 327.374 354.501C323.362 354.501 320.18 353.839 317.967 352.514C315.753 351.188 314.093 349.532 312.986 347.545C311.879 345.557 311.187 343.371 310.911 340.986C310.634 338.601 310.496 336.216 310.496 333.897V276.723C299.428 276.723 290.504 285.269 290.504 295.869V333.831C290.504 336.15 290.366 338.468 290.089 340.92C289.813 343.305 289.121 345.491 288.014 347.478C286.907 349.466 285.247 351.122 283.033 352.447C280.82 353.772 277.638 354.435 273.626 354.435C269.614 354.435 266.432 353.772 264.218 352.447C262.004 351.122 260.344 349.466 259.237 347.478C258.131 345.491 257.439 343.305 257.162 340.92C256.885 338.535 256.747 336.15 256.747 333.831V294.147C245.679 294.147 236.756 302.759 236.756 313.293V333.831C236.756 339.263 237.309 344.033 238.416 348.141C239.523 352.249 240.906 355.76 242.566 358.741C244.296 361.722 246.233 364.174 248.446 366.161C250.66 368.149 252.943 369.739 255.225 370.997C260.552 373.913 266.708 375.503 273.557 375.701C280.543 375.503 286.7 373.913 292.095 370.997C294.378 369.739 296.661 368.149 298.805 366.161C299.359 365.631 299.912 365.101 300.465 364.505C301.019 365.101 301.572 365.631 302.126 366.161C304.339 368.149 306.622 369.739 308.905 370.997C314.231 373.913 320.388 375.503 327.236 375.701C334.223 375.503 340.379 373.913 345.775 370.997C348.058 369.739 350.34 368.149 352.485 366.161C354.698 364.174 356.635 361.722 358.365 358.741C360.094 355.76 361.477 352.249 362.515 348.141C363.553 344.033 364.037 339.33 364.037 333.831L364.244 259.299Z" fill="#F03165"/>
<g filter="url(#filter4_d)">
<path d="M253.108 292.725C248.602 296.236 233.646 371.055 234.116 385.333C234.586 399.611 237.447 460.36 239.341 464.119C241.235 467.879 330.028 485.488 352.807 464.119C375.586 442.75 345.688 298.434 340.947 292.725C336.206 287.016 268.298 280.852 253.108 292.725Z" fill="#FD3E72"/>
<path d="M340.947 292.725C340.947 292.725 340.878 292.725 340.865 292.642C343.021 306.27 341.804 316.734 341.334 330.998C340.574 357.578 328.895 403.468 290.193 395.119C248.961 386.176 251.339 332.463 251.905 294.853C246.377 307.749 233.743 372.257 234.172 385.291C234.655 399.542 237.503 460.318 239.396 464.077C241.29 467.837 330.083 485.446 352.862 464.077C375.641 442.708 345.688 298.419 340.947 292.725Z" fill="#E43162"/>
<path d="M197.253 397.953C197.253 397.953 217.309 447.311 247.012 459.807H258.416C258.416 459.807 229.044 415.23 223.86 397.953H197.253Z" fill="#FFC9C5"/>
<path d="M223.169 445.984C223.169 445.984 232.154 439.765 241.484 424.56C241.484 424.56 252.679 302.317 254.186 294.204C255.693 286.09 235.955 298.433 227.841 314.674C219.728 330.915 188.614 386.549 192.069 397.953C195.525 409.356 219.106 446.565 223.169 445.984Z" fill="#FD3E72"/>
<path d="M394.909 397.953C394.909 397.953 374.853 447.311 345.149 459.807H333.746C333.746 459.807 363.118 415.23 368.301 397.953H394.909Z" fill="#FFC9C5"/>
<path d="M368.992 445.984C368.992 445.984 360.008 439.764 350.678 424.56C350.678 424.56 338.971 301.903 337.464 293.803C335.958 285.703 356.207 298.433 364.334 314.674C372.462 330.915 403.548 386.549 400.092 397.953C396.637 409.356 373.056 446.565 368.992 445.984Z" fill="#FD3E72"/>
<path d="M367.097 470.864C367.097 474.53 365.641 478.046 363.049 480.638C360.457 483.23 356.941 484.686 353.275 484.686H240.307C236.641 484.686 233.126 483.23 230.533 480.638C227.941 478.046 226.485 474.53 226.485 470.864L212.663 385.167C212.663 381.501 214.119 377.986 216.711 375.393C219.303 372.801 222.819 371.345 226.485 371.345H367.111C370.777 371.345 374.293 372.801 376.885 375.393C379.477 377.986 380.933 381.501 380.933 385.167L367.097 470.864Z" fill="#706D79"/>
<path d="M367.099 475.702C367.099 479.368 365.643 482.884 363.05 485.476C360.458 488.068 356.943 489.524 353.277 489.524H240.309C236.643 489.524 233.127 488.068 230.535 485.476C227.943 482.884 226.487 479.368 226.487 475.702L212.664 390.005C212.664 386.339 214.121 382.823 216.713 380.231C219.305 377.639 222.821 376.183 226.487 376.183H367.113C370.779 376.183 374.294 377.639 376.886 380.231C379.479 382.823 380.935 386.339 380.935 390.005L367.099 475.702Z" fill="#595662"/>
<path d="M309.212 431.568C309.212 436.157 303.683 439.861 296.772 439.861C289.861 439.861 284.332 436.129 284.332 431.568C284.332 427.007 289.861 423.275 296.772 423.275C303.683 423.275 309.212 426.979 309.212 431.568Z" fill="#EAEFFF"/>
<g style="mix-blend-mode:multiply" opacity="0.1">
<path d="M229.776 376.183H226.473C222.807 376.183 219.291 377.639 216.699 380.231C214.107 382.823 212.651 386.339 212.651 390.005L226.473 475.702C226.473 479.368 227.929 482.884 230.521 485.476C233.113 488.068 236.629 489.524 240.295 489.524H353.263C354.468 489.52 355.667 489.358 356.829 489.04C330.968 482.558 307.069 469.952 284.636 448.182C262.908 427.919 242.935 403.412 229.776 376.183Z" fill="black"/>
</g>
<path d="M283.904 260.463C283.904 260.463 283.309 284.347 281.595 288.95C280.766 291.176 276.841 298.916 281.595 303.187C286.35 307.458 299.882 310.209 307.083 302.358C311.41 297.644 309.184 293.138 306.973 288.895C304.554 284.14 305.259 260.463 305.259 260.463H283.904Z" fill="#FFC9C5"/>
<path d="M305.342 277.714C304.968 269.642 305.259 260.437 305.259 260.437H283.904C283.904 260.437 283.696 268.73 283.185 276.401C290.428 278.187 297.938 278.632 305.342 277.714Z" fill="#F19391"/>
<path d="M270.828 170.289C265.783 164.981 260.738 158.885 262.341 151.062C263.281 147.134 265.33 143.558 268.243 140.759C271.157 137.961 274.812 136.058 278.776 135.277C295.625 132.223 301.333 155.167 293.233 166.571C289.93 171.215 285.009 172.016 279.577 171.74L270.828 170.289Z" fill="#45434C"/>
<path d="M283.282 135.084C285.215 137.303 286.796 139.806 287.967 142.506C290.206 148.035 291.948 157.946 291.796 168.271C292.329 167.748 292.815 167.179 293.247 166.571C300.559 156.245 296.578 136.48 283.282 135.084Z" fill="#514E59"/>
<path d="M251.574 234.078C251.561 234.023 251.53 233.975 251.486 233.941C251.442 233.906 251.388 233.887 251.332 233.887C251.276 233.887 251.222 233.906 251.178 233.941C251.134 233.975 251.103 234.023 251.09 234.078C250.96 237.249 251.328 240.42 252.182 243.477C253.336 246.492 254.751 249.401 256.411 252.171C256.411 252.281 256.633 252.171 256.591 252.074C253.84 246.034 251.795 240.809 251.574 234.078Z" fill="#14133F"/>
<path d="M263.281 159.881C265.155 163.773 267.711 167.298 270.828 170.289L279.577 171.74C285.009 172.016 289.93 171.215 293.234 166.571C296.8 161.553 297.684 154.31 296.136 148.021C292.363 148.657 288.631 149.403 284.996 150.316C276.661 152.403 269.999 155.997 263.281 159.881Z" fill="#FD3E72"/>
<path d="M335.944 229.461C335.944 229.461 340.187 222.813 340.325 210.207C340.464 197.601 333.691 164.843 306.102 157.559C278.513 150.274 256.757 163.392 256.494 172.763C252.803 173.972 249.503 176.148 246.939 179.065C244.374 181.982 242.638 185.534 241.912 189.349C239.396 202.605 242.575 211.092 242.575 211.092C242.575 211.092 241.926 225.674 255.181 229.655C268.437 233.635 317.243 241.818 335.944 229.461Z" fill="#45434D"/>
<path d="M306.102 157.558C298.185 155.406 289.91 154.898 281.789 156.066C296.385 158.457 309.627 163.709 319.758 176.149C330.121 189.333 335.879 205.548 336.151 222.315C336.151 224.637 336.151 226.945 336.068 229.226C336.732 228.079 340.215 221.569 340.325 210.179C340.491 197.615 333.691 164.843 306.102 157.558Z" fill="#514E59"/>
<path d="M330.816 227.623C330.816 227.623 338.197 219.578 344.03 222.191C349.863 224.803 347.72 249.683 326.821 248.301L330.816 227.623Z" fill="#FFC9C5"/>
<path d="M343.339 230.498C336.331 229.199 330.373 235.28 330.498 242.164C330.526 242.402 330.641 242.622 330.821 242.781C331 242.941 331.232 243.029 331.472 243.029C331.712 243.029 331.944 242.941 332.124 242.781C332.303 242.622 332.418 242.402 332.447 242.164C332.486 240.821 332.767 239.496 333.276 238.252C334.354 237.409 335.709 236.676 336.635 237.547C338.321 239.178 336.635 241.956 334.548 241.846C334.302 241.846 334.067 241.943 333.893 242.117C333.719 242.291 333.622 242.526 333.622 242.772C333.622 243.017 333.719 243.253 333.893 243.427C334.067 243.6 334.302 243.698 334.548 243.698C335.294 243.681 336.023 243.467 336.659 243.077C337.296 242.686 337.817 242.134 338.17 241.476C338.523 240.818 338.694 240.078 338.668 239.332C338.641 238.586 338.416 237.86 338.017 237.229C337.689 236.69 337.176 236.287 336.574 236.097C335.971 235.906 335.32 235.94 334.741 236.193C334.529 236.284 334.325 236.395 334.133 236.524C335.11 234.931 336.441 233.584 338.024 232.589C339.606 231.595 341.396 230.978 343.256 230.788C343.449 230.774 343.518 230.525 343.339 230.498Z" fill="#F19391"/>
<path d="M257.932 227.623C257.932 227.623 250.565 219.578 244.718 222.191C238.871 224.803 241.041 249.683 261.926 248.301L257.932 227.623Z" fill="#FFC9C5"/>
<path d="M245.45 230.498C252.458 229.199 258.429 235.28 258.291 242.164C258.263 242.402 258.148 242.622 257.968 242.781C257.789 242.941 257.557 243.029 257.317 243.029C257.077 243.029 256.845 242.941 256.665 242.781C256.486 242.622 256.371 242.402 256.342 242.164C256.301 240.822 256.025 239.498 255.527 238.252C254.449 237.409 253.08 236.676 252.168 237.547C250.468 239.178 252.168 241.956 254.255 241.846C255.43 241.846 255.444 243.726 254.255 243.698C253.508 243.684 252.777 243.471 252.139 243.082C251.501 242.692 250.977 242.14 250.623 241.482C250.268 240.823 250.095 240.083 250.122 239.335C250.148 238.588 250.372 237.861 250.772 237.229C251.102 236.692 251.615 236.291 252.217 236.101C252.818 235.91 253.468 235.943 254.048 236.193C254.262 236.281 254.466 236.392 254.656 236.524C253.675 234.926 252.337 233.576 250.747 232.581C249.157 231.586 247.359 230.972 245.492 230.788C245.34 230.774 245.285 230.525 245.45 230.498Z" fill="#F19391"/>
<path d="M262.355 190.552C262.355 190.552 252.03 209.474 254.587 225.992C257.144 242.509 261.954 270.582 294.395 272.227C326.835 270.582 332.157 242.703 333.318 226.033C333.511 223.269 326.559 208.203 324.402 194.685C324.402 194.685 305.964 195.155 284.926 183.005C284.926 183.06 272.929 188.81 262.355 190.552Z" fill="#FFC9C5"/>
<path d="M255.513 229.544C253.288 221.251 254.407 213.925 254.96 205.563C255.057 204.181 253.177 204.181 252.776 205.272C249.57 214.284 251.256 223.614 254.006 232.516C256.951 241.998 264.387 257.396 255.499 265.689C255.479 265.705 255.466 265.729 255.464 265.755C255.461 265.781 255.469 265.807 255.485 265.827C255.502 265.847 255.526 265.86 255.552 265.863C255.578 265.865 255.603 265.857 255.624 265.841C261.802 261.86 261.152 254.438 260.226 247.872C259.314 241.68 257.158 235.584 255.513 229.544Z" fill="#45434D"/>
<path d="M330.733 193.067C314.63 200.2 295.141 190.635 283.323 179.674C283.323 179.674 283.212 179.674 283.323 179.743C295.265 191.45 314.533 201.015 331.148 193.662C331.479 193.482 331.134 192.902 330.733 193.067Z" fill="#45434D"/>
<path d="M259.466 532.262L294.215 527.203L273.136 501.508L246.584 512.096L259.466 532.262Z" fill="#F19391"/>
<path d="M218.456 537.045C218.456 537.045 197.322 540.998 187.964 539.809C173.092 537.874 161.979 528.517 163.679 512.331C165.379 496.145 195.179 506.18 195.179 506.18L218.456 537.045Z" fill="#E6E6E6"/>
<path d="M226.5 511.737C218.94 511.045 194.53 504.577 183.914 504.203C173.299 503.83 177.128 531.322 183.914 534.322C190.701 537.321 203.984 539.74 234.282 535.082C239.175 534.322 262.866 533.81 264.774 533.575C265.175 533.575 264.774 528.724 264.774 528.724C264.774 528.724 269.971 528.116 270.151 521.661C270.33 515.206 268.768 505.876 261.691 507.369C261.691 507.369 260.641 501.84 259.59 502.047C258.54 502.255 234.061 512.441 226.5 511.737Z" fill="#FD3E72"/>
<path d="M194.696 505.572C196.617 506.457 196.921 521.868 194.696 537.695C194.696 537.695 177.238 540.57 167.825 521.633C158.413 502.697 180.708 499.076 194.696 505.572Z" fill="white"/>
<path d="M205.726 520.043C205.766 516.738 205.604 513.433 205.242 510.147C205.246 509.874 205.356 509.614 205.55 509.423C205.744 509.231 206.006 509.124 206.279 509.124C209.624 508.875 209.886 515.123 210.038 517.237C210.467 523.264 210.246 529.553 207.122 534.888C206.541 535.897 204.62 535.87 204.357 534.529C203.652 529.664 205.532 524.909 205.726 520.043Z" fill="white"/>
<path d="M217.143 513.547C217.105 513.357 217.114 513.161 217.171 512.976C217.227 512.791 217.327 512.623 217.464 512.486C217.601 512.349 217.769 512.249 217.954 512.193C218.139 512.136 218.335 512.127 218.525 512.165C222.52 512.87 222.589 519.173 222.589 522.213C222.589 527.259 222.368 532.705 217.226 535.11C217.116 535.169 216.991 535.195 216.867 535.185C216.742 535.174 216.623 535.129 216.524 535.053C216.425 534.977 216.35 534.874 216.308 534.757C216.265 534.64 216.258 534.512 216.286 534.391C217.074 530.548 218.359 527.12 218.442 523.153C218.587 519.899 218.147 516.646 217.143 513.547Z" fill="white"/>
<path d="M231.297 512.026C231.432 511.991 231.575 512 231.704 512.053C231.833 512.105 231.943 512.198 232.015 512.317C233.48 514.777 233.95 518.288 234.545 521.08C235.291 524.549 235.457 527.991 236.521 531.433C236.895 532.635 235.374 533.976 234.268 533.16C230.536 530.396 230.923 525.614 230.122 521.522C229.596 518.937 227.302 513.118 231.297 512.026Z" fill="white"/>
<path d="M244.331 509.165C245.63 513.423 245.713 517.777 247.413 522.034C248.436 524.618 250.91 529.484 249.404 532.179C249.321 532.322 249.202 532.441 249.059 532.524C248.916 532.606 248.753 532.649 248.588 532.649C244.552 532.262 242.769 525.31 242.216 522.075C241.566 518.288 240.516 511.999 243.598 508.958C243.657 508.912 243.725 508.88 243.798 508.866C243.871 508.851 243.946 508.854 244.018 508.875C244.089 508.895 244.155 508.932 244.209 508.982C244.264 509.033 244.305 509.096 244.331 509.165Z" fill="white"/>
<path d="M258.001 532.456C258.321 532.536 258.659 532.499 258.954 532.352C259.249 532.205 259.482 531.957 259.61 531.654C259.739 531.35 259.754 531.01 259.654 530.696C259.554 530.382 259.346 530.114 259.065 529.94C257.566 528.728 256.555 527.015 256.218 525.116C256.507 525.287 256.807 525.44 257.116 525.572C258.499 526.194 261.111 526.499 261.443 524.301C261.857 521.536 259.397 520.057 256.715 519.325C257.241 518.938 257.752 518.523 258.236 518.122C259.798 516.837 261.595 515.054 261.553 512.87C261.55 512.668 261.483 512.472 261.361 512.31C261.239 512.149 261.069 512.03 260.876 511.971C258.734 511.681 256.619 512.967 254.836 514.736C254.81 513.686 254.875 512.637 255.029 511.598C255.029 511.184 255.9 507.078 255.886 507.078C255.984 507.054 256.074 507.003 256.147 506.933C256.22 506.863 256.273 506.775 256.301 506.678V506.415C256.351 506.221 256.343 506.016 256.278 505.826C256.213 505.636 256.093 505.47 255.934 505.348C255.775 505.225 255.583 505.152 255.383 505.138C255.183 505.124 254.983 505.169 254.808 505.268C247.054 509.898 248.851 529.995 258.001 532.456ZM256.411 517.044C255.997 517.39 255.541 517.708 255.029 518.039C255.029 517.763 255.029 517.486 254.932 517.21C256.176 515.538 257.697 513.948 259.397 513.741C258.63 515.028 257.615 516.151 256.411 517.044ZM255.541 521.329C257.227 521.744 258.844 522.38 259.051 523.361C259.203 524.08 256.453 522.145 256.135 521.868L255.541 521.329Z" fill="white"/>
<path d="M187.163 536.713C187.344 536.705 187.516 536.632 187.648 536.508C187.78 536.384 187.864 536.217 187.884 536.037C187.904 535.857 187.859 535.676 187.757 535.526C187.655 535.376 187.503 535.268 187.329 535.22C187.19 535.22 174.156 532.165 169.36 520.14C164.66 508.405 172.995 504.687 173.341 504.535C173.431 504.497 173.514 504.441 173.583 504.371C173.652 504.301 173.707 504.218 173.744 504.127C173.781 504.036 173.8 503.939 173.8 503.84C173.799 503.742 173.779 503.644 173.741 503.554C173.703 503.463 173.648 503.38 173.578 503.311C173.508 503.242 173.425 503.187 173.334 503.15C173.243 503.113 173.145 503.094 173.047 503.094C172.948 503.095 172.851 503.115 172.76 503.153C172.649 503.153 162.725 507.617 167.964 520.707C173.092 533.478 186.458 536.575 187.024 536.699L187.163 536.713Z" fill="#FD3E72"/>
<path d="M253.411 508.295C268.09 503.028 361.666 460.76 387.264 448.334C412.531 436.074 444.46 444.81 435.089 469.427C426.049 493.146 372.019 530.631 277.517 530.037C255.747 520.209 253.411 508.295 253.411 508.295Z" fill="#88431F"/>
<path d="M368.412 502.448C347.679 499.034 328.328 492.067 308.977 484.203C283.282 495.716 260.019 505.876 253.302 508.295C253.302 508.295 255.693 520.209 277.366 530.037C338.681 530.424 382.939 514.832 408.938 497.278C395.642 501.231 382.096 504.494 368.412 502.448Z" fill="#773818"/>
<g style="mix-blend-mode:multiply" opacity="0.3">
<path d="M264.94 532.649C264.94 531.267 264.774 528.724 264.774 528.724C264.774 528.724 269.971 528.116 270.151 521.661C270.33 515.206 268.768 505.876 261.691 507.369C261.691 507.369 260.641 501.84 259.59 502.047C258.54 502.255 234.047 512.441 226.5 511.723C224.855 511.571 222.437 511.156 219.589 510.575C227.309 513.383 234.88 516.585 242.271 520.168C250.055 523.9 257.623 528.067 264.94 532.649Z" fill="#D1881F"/>
</g>
<path d="M342.454 507.023L311.34 498.799L314.174 529.733L347.554 530.451L342.454 507.023Z" fill="#FFC9C5"/>
<path d="M342.454 507.023L329.779 503.733C326.172 507.756 321.583 510.644 320.85 517.058C320.173 521.827 321.818 526.125 324.333 530.023L347.554 530.521L342.454 507.023Z" fill="#F19391"/>
<path d="M374.798 536.519C374.798 536.519 395.932 540.486 405.289 539.284C420.162 537.349 431.261 527.991 429.575 511.792C427.888 495.592 398.074 505.655 398.074 505.655L374.798 536.519Z" fill="#E6E6E6"/>
<path d="M366.753 511.211C374.314 510.52 398.71 504.065 409.339 503.692C419.968 503.319 416.112 530.797 409.339 533.81C402.566 536.823 389.269 539.215 358.971 534.557C354.078 533.81 330.387 533.285 328.48 533.05C328.079 533.05 328.48 528.212 328.48 528.212C328.48 528.212 323.283 527.59 323.103 521.149C322.923 514.708 324.485 505.364 331.562 506.843C331.562 506.843 332.613 501.314 333.663 501.522C334.714 501.729 359.206 511.916 366.753 511.211Z" fill="#FD3E72"/>
<path d="M398.544 505.116C396.637 506.014 396.333 521.412 398.544 537.238C398.544 537.238 416.015 540.113 425.428 521.177C434.841 502.241 412.546 498.55 398.544 505.116Z" fill="white"/>
<path d="M387.486 519.518C387.458 516.217 387.624 512.917 387.984 509.635C387.98 509.362 387.87 509.1 387.676 508.906C387.483 508.713 387.221 508.602 386.947 508.599C383.589 508.364 383.34 514.611 383.188 516.726C382.759 522.739 382.967 529.042 386.09 534.363C386.685 535.372 388.606 535.345 388.855 534.018C389.546 529.138 387.708 524.467 387.486 519.518Z" fill="white"/>
<path d="M376.097 513.036C376.401 512.109 375.489 511.46 374.715 511.653C370.72 512.358 370.651 518.661 370.665 521.702C370.665 526.761 370.886 532.207 376.028 534.598C376.138 534.657 376.262 534.683 376.387 534.673C376.511 534.663 376.63 534.617 376.729 534.542C376.829 534.466 376.904 534.363 376.946 534.245C376.988 534.128 376.996 534.001 376.968 533.879C376.18 530.037 374.894 526.623 374.811 522.642C374.667 519.389 375.102 516.136 376.097 513.036Z" fill="white"/>
<path d="M361.971 511.543C361.836 511.507 361.693 511.516 361.563 511.569C361.434 511.621 361.325 511.714 361.252 511.833C359.787 514.307 359.317 517.818 358.709 520.61C357.962 524.065 357.81 527.521 356.746 530.949C356.359 532.165 357.893 533.492 358.999 532.69C362.731 529.926 362.33 525.144 363.146 521.038C363.657 518.44 365.952 512.593 361.971 511.543Z" fill="white"/>
<path d="M348.909 508.64C347.623 512.897 347.527 517.251 345.84 521.522C344.804 524.093 342.343 528.959 343.836 531.654C343.923 531.796 344.045 531.914 344.19 531.996C344.335 532.079 344.499 532.123 344.666 532.124C348.702 531.751 350.485 524.798 351.038 521.55C351.687 517.763 352.738 511.474 349.655 508.433C349.596 508.387 349.526 508.355 349.453 508.341C349.379 508.327 349.303 508.33 349.23 508.35C349.158 508.37 349.091 508.407 349.035 508.457C348.979 508.507 348.936 508.57 348.909 508.64Z" fill="white"/>
<path d="M338.404 504.687C338.228 504.591 338.029 504.547 337.829 504.562C337.629 504.578 337.438 504.65 337.278 504.771C337.119 504.893 336.998 505.058 336.931 505.246C336.863 505.435 336.852 505.639 336.898 505.834C336.903 505.921 336.903 506.009 336.898 506.097C336.922 506.195 336.972 506.285 337.043 506.357C337.113 506.43 337.201 506.483 337.298 506.511C337.298 506.511 338.1 510.658 338.169 511.017C338.319 512.056 338.379 513.106 338.349 514.155C336.566 512.455 334.465 511.156 332.322 511.391C332.126 511.44 331.953 511.555 331.83 511.715C331.707 511.876 331.642 512.073 331.645 512.275C331.645 514.459 333.401 516.242 334.949 517.528C335.432 517.928 335.944 518.343 336.483 518.73C333.788 519.463 331.327 520.886 331.756 523.706C332.087 525.904 334.645 525.6 336.082 524.978C336.389 524.847 336.689 524.699 336.98 524.535C336.646 526.431 335.634 528.141 334.133 529.345C333.857 529.52 333.651 529.786 333.552 530.098C333.453 530.409 333.468 530.746 333.594 531.048C333.72 531.349 333.949 531.596 334.24 531.745C334.531 531.894 334.865 531.935 335.184 531.861C344.403 529.442 346.186 509.372 338.404 504.687ZM333.788 513.215C335.419 513.436 337.008 515.026 338.252 516.684C338.252 516.961 338.252 517.237 338.142 517.528C337.699 517.196 337.257 516.864 336.842 516.519C335.61 515.636 334.571 514.512 333.788 513.215ZM337.105 521.356C336.801 521.619 334.05 523.554 334.202 522.849C334.41 521.854 336.027 521.218 337.713 520.803L337.105 521.356Z" fill="white"/>
<path d="M406.907 537.404C406.734 537.407 406.566 537.349 406.432 537.24C406.298 537.132 406.206 536.979 406.174 536.81C406.132 536.616 406.168 536.413 406.274 536.245C406.38 536.077 406.548 535.957 406.741 535.911C406.879 535.911 419.913 532.856 424.709 520.831C429.409 509.096 421.088 505.378 420.729 505.226C420.545 505.147 420.401 504.999 420.327 504.814C420.253 504.628 420.256 504.421 420.335 504.238C420.413 504.055 420.562 503.91 420.747 503.836C420.933 503.762 421.14 503.765 421.323 503.844C421.434 503.844 431.358 508.308 426.119 521.384C420.991 534.17 407.625 537.266 407.059 537.376L406.907 537.404Z" fill="#FD3E72"/>
<path d="M319.758 498.785C319.758 498.785 321.265 515.869 315.432 531.958C315.432 531.958 230.592 513.146 196.202 501.619C156.118 488.183 164.093 444.948 178.455 442.805C214.088 437.567 259.466 478.453 319.758 498.785Z" fill="#8F4620"/>
<path d="M227.15 492.676C212.568 486.331 198.124 478.093 187.619 466.04C181.91 459.651 178.083 451.804 176.561 443.372C163.568 448.846 158.039 488.819 196.258 501.646C230.647 513.174 315.487 531.986 315.487 531.986C315.667 531.502 315.833 531.004 315.999 530.52C314.16 529.138 312.267 527.756 310.276 526.526C284.705 510.465 254.684 504.756 227.15 492.676Z" fill="#853F1B"/>
</g>
<defs>
<filter id="filter0_d" x="0" y="144" width="132" height="126" filterUnits="userSpaceOnUse" color-interpolation-filters="sRGB">
<feFlood flood-opacity="0" result="BackgroundImageFix"/>
<feColorMatrix in="SourceAlpha" type="matrix" values="0 0 0 0 0 0 0 0 0 0 0 0 0 0 0 0 0 0 127 0" result="hardAlpha"/>
<feOffset dy="4"/>
<feGaussianBlur stdDeviation="6.5"/>
<feComposite in2="hardAlpha" operator="out"/>
<feColorMatrix type="matrix" values="0 0 0 0 0 0 0 0 0 0 0 0 0 0 0 0 0 0 0.15 0"/>
<feBlend mode="normal" in2="BackgroundImageFix" result="effect1_dropShadow"/>
<feBlend mode="normal" in="SourceGraphic" in2="effect1_dropShadow" result="shape"/>
</filter>
<filter id="filter1_d" x="27.3978" y="186.138" width="42.2998" height="53.5301" filterUnits="userSpaceOnUse" color-interpolation-filters="sRGB">
<feFlood flood-opacity="0" result="BackgroundImageFix"/>
<feColorMatrix in="SourceAlpha" type="matrix" values="0 0 0 0 0 0 0 0 0 0 0 0 0 0 0 0 0 0 127 0" result="hardAlpha"/>
<feOffset dy="4"/>
<feGaussianBlur stdDeviation="6"/>
<feColorMatrix type="matrix" values="0 0 0 0 0 0 0 0 0 0 0 0 0 0 0 0 0 0 0.1 0"/>
<feBlend mode="normal" in2="BackgroundImageFix" result="effect1_dropShadow"/>
<feBlend mode="normal" in="SourceGraphic" in2="effect1_dropShadow" result="shape"/>
</filter>
<filter id="filter2_d" x="387" y="0" width="132" height="126" filterUnits="userSpaceOnUse" color-interpolation-filters="sRGB">
<feFlood flood-opacity="0" result="BackgroundImageFix"/>
<feColorMatrix in="SourceAlpha" type="matrix" values="0 0 0 0 0 0 0 0 0 0 0 0 0 0 0 0 0 0 127 0" result="hardAlpha"/>
<feOffset dy="4"/>
<feGaussianBlur stdDeviation="6.5"/>
<feComposite in2="hardAlpha" operator="out"/>
<feColorMatrix type="matrix" values="0 0 0 0 0 0 0 0 0 0 0 0 0 0 0 0 0 0 0.15 0"/>
<feBlend mode="normal" in2="BackgroundImageFix" result="effect1_dropShadow"/>
<feBlend mode="normal" in="SourceGraphic" in2="effect1_dropShadow" result="shape"/>
</filter>
<filter id="filter3_d" x="465" y="414" width="132" height="126" filterUnits="userSpaceOnUse" color-interpolation-filters="sRGB">
<feFlood flood-opacity="0" result="BackgroundImageFix"/>
<feColorMatrix in="SourceAlpha" type="matrix" values="0 0 0 0 0 0 0 0 0 0 0 0 0 0 0 0 0 0 127 0" result="hardAlpha"/>
<feOffset dy="4"/>
<feGaussianBlur stdDeviation="6.5"/>
<feComposite in2="hardAlpha" operator="out"/>
<feColorMatrix type="matrix" values="0 0 0 0 0 0 0 0 0 0 0 0 0 0 0 0 0 0 0.15 0"/>
<feBlend mode="normal" in2="BackgroundImageFix" result="effect1_dropShadow"/>
<feBlend mode="normal" in="SourceGraphic" in2="effect1_dropShadow" result="shape"/>
</filter>
<filter id="filter4_d" x="151.507" y="127" width="297.255" height="429.032" filterUnits="userSpaceOnUse" color-interpolation-filters="sRGB">
<feFlood flood-opacity="0" result="BackgroundImageFix"/>
<feColorMatrix in="SourceAlpha" type="matrix" values="0 0 0 0 0 0 0 0 0 0 0 0 0 0 0 0 0 0 127 0" result="hardAlpha"/>
<feOffset dy="4"/>
<feGaussianBlur stdDeviation="6"/>
<feComposite in2="hardAlpha" operator="out"/>
<feColorMatrix type="matrix" values="0 0 0 0 0 0 0 0 0 0 0 0 0 0 0 0 0 0 0.25 0"/>
<feBlend mode="normal" in2="BackgroundImageFix" result="effect1_dropShadow"/>
<feBlend mode="normal" in="SourceGraphic" in2="effect1_dropShadow" result="shape"/>
</filter>
</defs>
</svg>
