<svg width="574" height="530" viewBox="0 0 574 530" fill="none" xmlns="http://www.w3.org/2000/svg">
<circle cx="308.353" cy="264.654" r="264.654" fill="#FFF2F6"/>
<ellipse cx="308.352" cy="264.222" rx="207.757" ry="207.326" fill="#FFE0E9"/>
<mask id="mask0" mask-type="alpha" maskUnits="userSpaceOnUse" x="43" y="0" width="530" height="530">
<circle cx="308.339" cy="264.654" r="264.654" fill="#FFF2F6"/>
</mask>
<g mask="url(#mask0)">
<path d="M266.542 540.522H335.087C342.263 500.678 358.947 448.832 358.947 448.832C363.001 446.425 370.92 449.386 370.92 449.386L395.976 540.522H458.6C461.925 484.285 431.153 420.451 431.153 420.451C431.727 419.381 432.009 418.179 431.969 416.965C431.398 415.902 430.602 414.976 429.636 414.253C427.944 412.707 425.932 411.161 425.932 411.161L309.098 410.432C309.098 410.432 307.917 411.03 306.415 411.89C303.863 413.436 300.406 415.828 300.406 417.578C300.369 419.12 300.779 420.64 301.588 421.953V422.026C276.59 469.278 266.542 540.522 266.542 540.522Z" fill="#8F4620"/>
</g>
<path d="M331.834 175.41C331.747 176.037 331.674 176.372 331.674 176.372C332.338 179.164 333.147 181.919 334.095 184.627C336.229 190.937 339.291 196.895 343.181 202.303C344.365 203.962 345.692 205.514 347.148 206.941C368.426 200.261 378.912 179.45 382.937 169.022C382.945 168.969 382.945 168.915 382.937 168.862C383.71 166.907 384.22 165.332 384.541 164.311C384.789 163.495 384.906 163.043 384.906 163.043L384.643 162.503V162.43C384.293 161.701 383.943 160.972 383.622 160.242C381.228 154.984 379.276 149.535 377.789 143.952C376.753 140.131 376.199 137.185 375.937 135.624C375.805 134.822 375.747 134.385 375.747 134.385L365.83 139.62L331.659 157.705C332.126 160.569 332.369 163.466 332.388 166.368C332.388 168.191 332.388 169.824 332.257 171.21C332.155 172.901 331.98 174.243 331.849 175.118C331.858 175.216 331.854 175.314 331.834 175.41Z" fill="#FE9083"/>
<path d="M341.257 209.231C343.339 211.295 345.718 213.036 348.316 214.394L348.491 214.496L348.695 214.379C349.439 213.927 351.976 212.367 355.389 209.8C364.315 203.077 379.22 189.484 383.478 171.167C383.985 168.964 384.326 166.726 384.499 164.472C384.499 163.875 384.586 163.277 384.601 162.664C382.335 167.716 379.626 172.557 376.507 177.131C370.469 185.969 361.412 195.61 350.591 195.668C341.228 195.668 336.43 189.324 333.994 183.417C333.105 181.256 332.445 179.007 332.025 176.709C331.923 176.184 331.85 175.717 331.777 175.323C331.777 175.119 331.778 174.944 331.705 174.783C331.617 174.127 331.588 173.748 331.588 173.748C331.588 173.748 328.131 196.003 341.257 209.231Z" fill="white"/>
<path d="M259.413 341.494L259.646 341.61C260.842 341.756 264.561 340.939 269.432 336.725C273.516 333.151 278.416 327.187 283.302 317.415C293.073 297.887 295.873 284.849 296.325 282.574V282.224L302.028 291.266C305.892 302.933 313.214 350.988 313.082 353.059C312.951 355.13 306.593 365.222 306.724 366.462C306.899 367.716 309.757 370.472 310.574 373.476C311.128 375.474 307.249 381.775 304.522 386.485C303.425 388.089 302.58 389.849 302.013 391.707C302.013 393.909 308.926 404.686 308.926 404.686V410.52L309.028 410.622L309.349 410.914L309.611 411.133C312.237 413.204 323.364 419.985 358.133 421.852C399.333 424.054 426.78 410.797 426.78 410.797L424.709 405.124C424.709 405.124 426.634 403.476 426.78 402.645C426.926 401.813 425.322 399.874 425.322 399.874C425.322 399.874 429.463 397.671 429.463 394.9C429.463 392.13 421.165 383.583 421.442 376.247C421.719 368.912 428.078 362.436 428.909 358.294C429.741 354.153 418.132 343.929 418.132 343.929C428.078 312.427 430.018 270.148 430.018 270.148L432.074 267.8C432.074 267.8 443.96 294.883 454.738 308.14C456.021 309.715 457.377 311.275 458.778 312.777C461.704 315.934 464.8 318.928 468.053 321.747C475.52 328.251 482.302 332.524 484.023 332.189C486.794 331.635 497.848 309.802 497.338 287.416C497.105 276.769 490.688 264.854 484.023 255.331C483.308 254.31 482.564 253.304 481.864 252.326C478.325 247.513 474.507 242.911 470.43 238.544C469.584 237.64 469.103 237.159 469.103 237.159C469.103 237.159 470.561 232.273 471.655 228.029C471.673 227.926 471.697 227.823 471.728 227.723C471.721 227.675 471.721 227.626 471.728 227.577C471.724 227.543 471.724 227.509 471.728 227.475C472.341 224.865 472.72 222.604 472.37 222.05C471.451 220.591 466.099 218.914 465.18 217.82C464.261 216.727 460.396 198.103 457.45 196.076C454.504 194.048 449.648 192.721 433.066 186.202L430.543 185.21C411.948 177.845 393.703 168.905 393.703 168.905L386.703 160.301H383.582L384.603 162.488V162.561C384.107 164.778 383.538 166.937 382.896 168.935C382.905 168.988 382.905 169.042 382.896 169.095C373.344 199.459 348.551 209.245 348.551 209.245C331.342 196.542 331.677 176.372 331.677 176.372V173.601L328.454 174.564L326.252 179.814C326.252 179.814 322.518 185.648 307.73 192.123C304.952 193.367 302.241 194.755 299.607 196.28C286.073 203.966 271.022 215.852 269.87 218.375C269.705 218.781 269.573 219.201 269.476 219.629C267.886 225.871 264.619 249.249 261.586 257.548C260.303 261.41 257.82 264.762 254.498 267.115C253.63 267.734 252.677 268.225 251.669 268.573C251.435 269.856 251.217 271.125 251.013 272.38C244.639 312.457 256.671 339.598 259.413 341.494Z" fill="#FD3E72"/>
<path d="M452.898 298.327C455.479 317.476 484.02 332.221 484.02 332.221C490.379 332.221 497.481 321.166 503.928 307.53C510.374 293.894 510.767 254.721 511.103 252.3C511.438 249.879 515.041 245.008 515.259 242.966C515.478 240.924 509.426 236.608 509.426 236.608V236.505V236.403C510.053 235.062 513.582 227.492 513.334 226.107C513.086 224.721 506.305 221.28 506.305 221.28L505.882 228.732C505.882 228.732 490.16 225.815 484.837 213.579L483.904 209.846L481.278 211.596V227.638C481.278 227.638 480.739 230.132 479.908 230.132C479.076 230.132 472.951 227.07 471.667 227.492C470.384 227.915 469.101 236.491 467.38 237.585C465.659 238.678 461.109 241.872 460.423 243.418C460.081 245.416 459.958 247.446 460.059 249.471C460.137 252.855 459.937 256.24 459.461 259.592C458.6 263.821 450.316 279.164 452.898 298.327Z" fill="url(#paint0_linear)"/>
<path d="M191.859 281.921C193.143 283.948 199.589 288.192 201.251 289.855C202.914 291.517 201.251 296.957 201.251 296.957C218.059 314.899 237.709 329.948 259.413 341.497L259.646 341.613C276.651 330.18 275.193 311.352 269.549 295.484C265.82 285.431 260.758 275.925 254.498 267.22C251.732 266.062 248.831 265.259 245.864 264.828C244.72 264.801 243.598 265.149 242.67 265.82C240.599 267.103 238.849 269.131 237.157 268.285C234.664 267.03 229.092 253.861 225.315 253.496C222.675 253.248 219.015 255.932 216.565 257.463C215.5 258.134 214.669 258.586 214.26 258.47C212.802 258.105 208.179 252.476 207.8 252.33C207.42 252.184 205.291 253.788 205.291 253.788L206.75 255.655C205.282 263.715 201.895 271.303 196.876 277.779L191.815 270.37C191.815 270.37 190.561 279.894 191.859 281.921Z" fill="#FD3E72"/>
<path d="M331.769 174.842C331.769 175.031 331.769 175.221 331.842 175.411C331.914 175.804 332.006 176.194 332.119 176.577C333.855 183.009 340.869 189.586 349.722 186.422C359.391 182.965 377.796 143.982 377.796 143.982L375.944 135.654L332.192 171.239L331.711 174.608L331.769 174.842Z" fill="#E77D70"/>
<path d="M477.212 167.712C477.212 167.712 479.881 152.968 478.671 142.103C478.01 134.372 478.113 126.595 478.977 118.885C480.443 118.279 482.09 118.279 483.556 118.885C485.496 119.993 490.002 131.237 487.932 140.265C485.861 149.293 487.465 170.892 487.465 170.892H490.513L497.149 161.777L500.372 160.843C500.372 160.843 518.923 178.344 518.646 188.757L516.225 198.018L493.371 197.23L478.51 180.298L477.212 167.712Z" fill="#EE8183"/>
<path d="M500.427 160.887C500.051 168.152 499.006 175.368 497.306 182.442C497.497 183.678 498.13 184.803 499.088 185.608C500.045 186.413 501.262 186.842 502.513 186.817L503.68 185.505C503.68 185.505 504.511 190.128 508.726 190.478L512.736 186.467L511.701 189.778C512.147 190.796 512.882 191.662 513.816 192.266C514.749 192.87 515.839 193.186 516.951 193.176C516.951 193.176 523.31 188.203 523.718 181.698L517.433 176.39V172.306L509.98 167.056L509.834 164.139C507.076 162.173 503.81 161.044 500.427 160.887Z" fill="url(#paint1_linear)"/>
<path d="M467.632 184.381C468.828 187.969 481.355 202.888 482.741 206.126C483.699 208.539 484.441 211.033 484.958 213.578C491.112 226.966 506.061 228.731 506.061 228.731L506.746 216.714C506.746 216.714 514.753 212.105 516.109 209.582L516.27 209.159C516.473 205.477 516.473 201.787 516.27 198.105L502.254 192.431C496.173 184.556 481.384 175.441 481.384 175.441L480.699 171.314C491.316 166.092 489.537 150.298 487.743 148.358C486.325 147.129 484.515 146.446 482.639 146.433C482.639 146.433 478.759 159.136 476.28 165.086C473.801 171.036 466.436 180.793 467.632 184.381Z" fill="url(#paint2_linear)"/>
<path d="M509.865 164.066C509.865 164.066 508.305 178.578 503.711 185.49C507.576 180.093 509.767 173.676 510.011 167.042L509.865 164.066Z" fill="#E28183"/>
<path d="M517.46 172.291C517.46 172.291 516.002 183.958 508.71 190.463C508.71 190.463 515.083 187.283 517.46 176.375V172.291Z" fill="#E28183"/>
<path style="mix-blend-mode:multiply" opacity="0.91" d="M480.801 203.036C480.801 203.036 496.595 218.378 506.688 216.716L506.002 228.733C500.899 228.034 496.107 225.871 492.207 222.506C488.306 219.142 485.464 214.719 484.024 209.774C483.134 207.444 482.056 205.191 480.801 203.036Z" fill="url(#paint3_linear)"/>
<path d="M146.764 223.888C146.764 223.888 161.276 250.416 178.266 258.569H184.1L197.502 278.885C197.502 278.885 206.165 273.445 206.807 255.55C205.02 253.651 203.714 251.35 203.001 248.841C203.001 248.841 207.784 245.079 209.082 242.322C210.38 239.566 210.832 231.267 211.751 227.855C212.67 224.442 220.502 217.354 222.252 216.435C224.002 215.517 231.921 215.05 231.921 215.05C231.921 215.05 233.029 212.133 231.921 210.821C230.813 209.508 218.474 204.637 211.751 209.245C211.515 211.062 211.115 212.854 210.555 214.598C209.811 216.435 203.92 222.969 203.001 222.969C202.082 222.969 198.115 219.659 196.365 217.135C191.562 208.004 187.305 198.595 183.618 188.959C183.627 188.896 183.627 188.832 183.618 188.769C183.618 188.667 183.546 188.565 183.531 188.478C183.527 188.415 183.527 188.351 183.531 188.288C183.531 188.288 183.531 188.288 183.531 188.215C181.868 182.6 172.199 171.823 167.036 168.877C166.299 168.764 165.545 168.926 164.919 169.332C164.292 169.738 163.837 170.359 163.638 171.079C163.638 171.079 167.78 182.877 172.112 189.878C172.841 191.059 173.57 192.445 174.445 193.932C178.135 200.714 182.291 209.595 182.889 210.893L182.962 211.054L180.658 212.235L174.43 206.329L168.043 200.276L153.386 215.75L154.844 217.588L159.423 223.421L157.105 223.844L151.708 217.879L146.764 223.888Z" fill="url(#paint4_linear)"/>
<path style="mix-blend-mode:multiply" opacity="0.6" d="M150.201 229.53L154.839 236.341C154.839 236.341 180.244 216.755 185.772 215.048C191.299 213.342 193.326 214.494 193.326 214.494L199.029 221.786C199.029 221.786 188.528 231.091 187.609 243.662C187.609 243.662 191.11 227.824 202.996 223.026C202.077 223.026 198.11 219.715 196.36 217.192C191.557 208.061 187.3 198.652 183.613 189.016C184.121 190.649 184.039 192.41 183.38 193.989C182.126 196.308 174.746 194.12 174.309 193.989L182.767 210.95L182.84 211.111L180.536 212.292L174.309 206.385L177.43 213.677L154.708 217.688L159.287 223.522L156.968 223.945L150.201 229.53Z" fill="url(#paint5_linear)"/>
<path d="M167.907 200.219C167.907 200.219 163.532 199.577 160.615 205.294L161.256 207.132C161.256 207.132 156.881 207.978 152.783 214.963C155.777 219.615 160.308 223.068 165.588 224.72C165.588 224.72 169.817 223.524 170.561 219.937L169.73 217.632L173.04 220.126C173.04 220.126 177.007 221.322 178.757 215.415L167.907 200.219Z" fill="url(#paint6_linear)"/>
<path d="M145.443 222.051C145.243 220.657 145.481 219.234 146.124 217.981C146.766 216.727 147.782 215.703 149.03 215.051L157.781 224.72C157.622 225.711 157.137 226.621 156.403 227.305C155.668 227.99 154.726 228.409 153.726 228.497C153.726 228.497 147.747 226.47 145.443 222.051Z" fill="url(#paint7_linear)"/>
<path style="mix-blend-mode:multiply" opacity="0.91" d="M209.082 242.322C202.121 249.608 193.557 255.17 184.071 258.569L190.488 268.282L203.861 251.291L203.001 248.841C203.001 248.841 208.353 244.816 209.082 242.322Z" fill="url(#paint8_linear)"/>
<path d="M161.278 207.131C161.278 207.131 165.507 214.131 169.751 217.631L170.582 219.936C170.582 219.936 162.357 214.379 159.323 207.977C159.91 207.563 160.575 207.275 161.278 207.131Z" fill="#E28183"/>
<path style="mix-blend-mode:multiply" opacity="0.5" d="M432.07 267.803L418.127 265.98C412.803 269.219 407.2 271.977 401.385 274.22L410.704 287.973C410.704 287.973 407 307.574 396.383 318.6C396.383 318.6 424.559 302.951 428.468 289.796L432.07 267.803Z" fill="url(#paint9_linear)"/>
<path style="mix-blend-mode:multiply" opacity="0.5" d="M513.433 226.12L509.452 236.606C509.452 236.606 505.397 250.753 497.332 251.351C489.267 251.949 481.392 227.623 481.392 227.623V211.58C481.392 211.58 489.967 229.956 499.228 231.998C508.489 234.04 513.433 226.12 513.433 226.12Z" fill="url(#paint10_linear)"/>
<path style="mix-blend-mode:multiply" opacity="0.76" d="M290.593 239.1L288.113 247.106L285.605 312.808C290.235 303.084 293.865 292.915 296.441 282.458L294.122 278.885C294.122 278.885 290.214 254.121 290.593 239.1Z" fill="url(#paint11_linear)"/>
<path style="mix-blend-mode:multiply" opacity="0.5" d="M214.245 258.439C214.245 258.439 215.703 290.714 201.936 293.441L201.251 296.971C201.251 296.971 218.999 296.3 214.245 258.439Z" fill="url(#paint12_linear)"/>
<path style="mix-blend-mode:multiply" opacity="0.3" d="M237.122 268.254C237.122 268.254 237.648 269.406 242.635 265.789C242.635 265.789 259.888 278.011 266.539 295.234C266.539 295.234 255.907 279.411 250.248 277.733C244.59 276.056 243.219 282.342 243.219 282.342C243.219 282.342 240.973 273.402 237.122 268.254Z" fill="url(#paint13_linear)"/>
<path style="mix-blend-mode:multiply" opacity="0.5" d="M515.257 243.01C515.257 243.01 508.622 255.246 496.181 251.41C496.181 251.41 503.634 256.427 511.101 252.344C511.101 252.3 515.739 244.352 515.257 243.01Z" fill="url(#paint14_linear)"/>
<path style="mix-blend-mode:multiply" opacity="0.5" d="M471.79 227.477C471.79 227.477 462.66 261.603 486.476 287.271C481.636 284.472 477.443 280.678 474.176 276.141C470.908 271.603 468.638 266.425 467.517 260.947C465.5 249.615 466.99 237.938 471.79 227.477Z" fill="url(#paint15_linear)"/>
<path style="mix-blend-mode:multiply" opacity="0.3" d="M224.164 253.521C224.164 253.521 228.845 268.791 224.412 292.563C224.412 292.563 222.209 262.447 220.547 259.822C218.884 257.197 214.247 258.436 214.247 258.436C217.464 256.625 220.774 254.985 224.164 253.521Z" fill="url(#paint16_linear)"/>
<path d="M321.005 170.657C330.386 172.201 340.015 170.784 348.554 166.603C363.007 159.603 375.155 138.893 375.899 133.818C376.643 128.743 370.372 115.209 370.372 104.65C370.372 94.0908 375.52 76.094 366.872 66.3226C358.223 56.5513 318.423 55.0929 305.516 67.6206C305.516 67.6206 301.52 77.6545 301.52 83.3277C301.592 85.2404 301.797 87.1458 302.133 89.0301C302.25 89.8905 302.41 90.8093 302.556 91.7573C303.708 98.6264 305.298 107.012 304.554 110.717C304.293 111.949 303.907 113.151 303.402 114.304C301.812 117.98 299.449 120.911 299.026 124.09C298.472 128.29 304.043 157.765 321.005 170.657Z" fill="#FE9083"/>
<path d="M370.427 101.748C370.427 101.748 374.001 92.7787 382.984 92.6328C382.984 92.6328 388.235 94.7183 389.066 98.7144C389.066 98.7144 387.126 113.298 384.924 119.993C382.722 126.687 374.598 125.826 374.598 125.826C370.308 118.581 368.824 110.014 370.427 101.748Z" fill="#FE9083"/>
<path d="M303.341 135.465C305.281 131.41 304.085 129.296 320.93 127.094C344.775 123.958 346.816 131.235 350.871 130.127C351.035 130.079 351.196 130.021 351.352 129.952C355.727 128.246 366.082 118.081 366.345 104.386C366.622 90.1521 357.084 80.0599 357.084 80.0599C360.54 77.1431 361.926 68.7427 358.192 65.1404C354.459 61.5381 348.1 62.384 332.495 64.032C316.89 65.68 316.875 64.732 316.875 64.732C311.917 66.0008 309.073 70.6532 308.271 72.1407C308.11 72.4324 308.037 72.6074 308.037 72.6074L306.098 70.8136C302.947 75.4856 301.438 81.0726 301.81 86.6957C301.81 86.6957 293.249 69.2823 294.226 66.8176C296.162 62.697 298.518 58.7873 301.256 55.1503C301.256 55.1503 302.641 41.8933 306.783 41.8933C310.925 41.8933 328.659 45.8894 328.659 45.8894C327.458 42.766 326.892 39.4338 326.997 36.0889L327.07 36.1618C332.903 41.3391 338.489 41.9079 346.481 45.6123C349.36 46.8192 351.921 48.676 353.963 51.0376L354.502 51.6793L355.071 52.3647C355.625 53.0648 356.194 53.8231 356.88 54.5086C356.905 54.5414 356.934 54.5708 356.967 54.5961C357.689 55.3733 358.463 56.0994 359.286 56.7691C364.536 61.0423 376.087 63.9007 377.472 68.4364C378.858 72.972 375.722 79.1119 374.06 85.4706C373.068 89.3795 372.767 93.4316 373.17 97.4442C369.689 102.567 368.368 108.855 369.495 114.945C371.114 124.235 374.658 125.752 374.658 125.752C376.147 128.826 376.607 132.298 375.97 135.654C370.866 155.956 349.719 168.046 349.719 168.046C330.934 175.046 318.582 171.998 318.582 171.998C304.916 163.087 300.235 133.598 300.031 132.227C300.264 132.606 302.802 136.544 303.341 135.465ZM311.771 154.264C315.082 153.71 315.782 145.324 316.875 144.215C317.969 143.107 323.978 143.574 323.978 143.574C323.978 143.574 329.505 149.845 331.707 150.02C333.91 150.195 345.708 145.411 343.156 138.236C340.604 131.06 331.707 130.127 331.707 130.127C328.378 132.672 324.38 134.192 320.201 134.502C313.288 134.954 310.794 133.686 309.992 133.321C309.19 132.956 304.712 134.969 304.829 141.24C304.8 145.542 308.417 154.818 311.742 154.264H311.771Z" fill="#5B5863"/>
<path d="M313.544 45.2467C313.544 45.2467 307.215 42.782 304.706 43.1758C305.229 42.4751 305.928 41.9263 306.733 41.5861C307.769 41.309 328.61 45.9613 328.61 45.9613C328.61 45.9613 315.601 44.4154 313.544 45.2467Z" fill="#646268"/>
<path d="M301.238 55.1934C300.164 58.5731 299.403 62.044 298.963 65.5627L294.179 66.8169C295.738 62.5127 298.137 58.5615 301.238 55.1934Z" fill="#5B5863"/>
<path d="M371.529 113.911C371.529 113.911 373.352 105.16 377.8 100.902C379.017 99.6631 380.524 98.7477 382.185 98.2384C383.845 97.7291 385.606 97.642 387.309 97.9849C387.309 97.9849 385.923 114.129 384.479 118.067C383.035 122.005 380.819 123.04 380.819 123.04C382.935 120.871 384.185 118.002 384.333 114.975C384.756 109.638 384.888 102.098 383.721 101.208C382.554 100.318 377.8 103.804 377.8 103.804C379.076 105.796 379.894 108.048 380.192 110.396C381.096 115.165 377.771 118.621 376.531 118.548C375.291 118.476 376.604 113.036 376.385 111.475C376.166 109.915 373.425 110.294 371.529 113.911Z" fill="#E77365" style="mix-blend-mode:multiply"/>
<path opacity="0.6" d="M258.626 153.479L253.93 287.361C253.843 289.917 252.766 292.339 250.926 294.116C249.087 295.893 246.629 296.885 244.071 296.884H13.4529C10.8768 296.881 8.4039 295.871 6.56198 294.07C4.72005 292.269 3.65494 289.819 3.59406 287.244L0.371033 151.816C0.337799 150.496 0.57019 149.182 1.05438 147.953C1.5386 146.725 2.26474 145.606 3.18976 144.663C4.11478 143.72 5.21983 142.973 6.43922 142.466C7.6586 141.958 8.96748 141.701 10.2882 141.709L248.84 143.27C250.159 143.279 251.462 143.552 252.673 144.073C253.884 144.595 254.978 145.354 255.891 146.306C256.803 147.258 257.515 148.383 257.985 149.615C258.455 150.847 258.673 152.161 258.626 153.479Z" fill="white"/>
<path opacity="0.7" d="M13.4498 297.246H244.068C246.718 297.247 249.266 296.218 251.171 294.375C253.076 292.533 254.19 290.021 254.277 287.372L258.973 153.49C259.024 152.118 258.798 150.75 258.307 149.467C257.817 148.184 257.073 147.014 256.12 146.025C255.167 145.037 254.024 144.251 252.76 143.714C251.496 143.177 250.137 142.901 248.764 142.902L10.2121 141.342C8.8549 141.347 7.51213 141.621 6.26079 142.146C5.00945 142.672 3.87416 143.439 2.92007 144.404C1.96237 145.381 1.21066 146.54 0.709595 147.813C0.208527 149.085 -0.0316467 150.446 0.00326538 151.813L3.24089 287.256C3.2981 289.925 4.39888 292.466 6.30725 294.333C8.21562 296.201 10.7797 297.246 13.4498 297.246ZM10.1975 142.071L248.735 143.631C250.006 143.64 251.263 143.904 252.43 144.407C253.598 144.91 254.653 145.642 255.533 146.56C256.412 147.478 257.099 148.563 257.552 149.751C258.005 150.939 258.216 152.205 258.171 153.476L253.475 287.343C253.399 289.808 252.364 292.145 250.591 293.858C248.818 295.572 246.446 296.525 243.98 296.517H13.4498C10.9736 296.502 8.59979 295.527 6.8286 293.797C5.05742 292.067 4.02728 289.716 3.95549 287.241L0.717865 151.799C0.688721 150.532 0.913116 149.272 1.3779 148.092C1.84271 146.913 2.53854 145.839 3.42444 144.933C4.31033 144.027 5.36839 143.307 6.53654 142.815C7.70471 142.324 8.95938 142.071 10.2267 142.071H10.1975Z" fill="#FD3E72"/>
<g style="mix-blend-mode:multiply" opacity="0.6">
<path d="M258.284 160.3H0.62735L0.218933 153.242C0.133118 151.764 0.35144 150.284 0.860382 148.894C1.36932 147.504 2.15817 146.233 3.17796 145.16C4.19774 144.087 5.42685 143.234 6.78926 142.655C8.15169 142.076 9.61838 141.783 11.0987 141.793L249.549 143.675C250.731 143.684 251.9 143.928 252.988 144.393C254.076 144.857 255.061 145.533 255.886 146.381C256.71 147.228 257.359 148.231 257.793 149.332C258.227 150.432 258.439 151.607 258.416 152.79L258.284 160.3Z" fill="#FF608B"/>
</g>
<g style="mix-blend-mode:multiply" opacity="0.3">
<path d="M245.325 171.111V248.582H166.469V170.703L245.325 171.111Z" fill="#D2D2D2"/>
</g>
<g style="mix-blend-mode:multiply" opacity="0.3">
<path d="M55.9527 176.301H90.2545V210.603H55.9527V176.301Z" fill="#D2D2D2"/>
</g>
<g style="mix-blend-mode:multiply" opacity="0.3">
<path d="M15.48 176.301H49.7819V210.603H15.48V176.301Z" fill="#D2D2D2"/>
</g>
<g style="mix-blend-mode:multiply" opacity="0.3">
<path d="M97.1051 176.301H131.407V210.603H97.1051V176.301Z" fill="#D2D2D2"/>
</g>
<g style="mix-blend-mode:multiply" opacity="0.3">
<path d="M15.4804 230.611H103.204V238.822H15.4804V230.611Z" fill="#D2D2D2"/>
</g>
<g style="mix-blend-mode:multiply" opacity="0.3">
<path d="M15.4649 243.109H125.137V245.647H15.4649V243.109Z" fill="#D2D2D2"/>
</g>
<g style="mix-blend-mode:multiply" opacity="0.3">
<path d="M103.12 214.979H124.106V217.516H103.12V214.979Z" fill="#D2D2D2"/>
</g>
<g style="mix-blend-mode:multiply" opacity="0.3">
<path d="M62.6 214.979H83.5865V217.516H62.6V214.979Z" fill="#D2D2D2"/>
</g>
<g style="mix-blend-mode:multiply" opacity="0.3">
<path d="M22.1274 214.979H43.1139V217.516H22.1274V214.979Z" fill="#D2D2D2"/>
</g>
<g style="mix-blend-mode:multiply" opacity="0.3">
<path d="M96.128 247.25H131.407V249.788H96.128V247.25Z" fill="#D2D2D2"/>
</g>
<g style="mix-blend-mode:multiply" opacity="0.3">
<path d="M15.4649 251.336H125.137V253.874H15.4649V251.336Z" fill="#D2D2D2"/>
</g>
<g style="mix-blend-mode:multiply" opacity="0.3">
<path d="M15.4779 255.422H131.407V257.96H15.4779V255.422Z" fill="#D2D2D2"/>
</g>
<g style="mix-blend-mode:multiply" opacity="0.3">
<path d="M15.4779 259.502H131.407V262.04H15.4779V259.502Z" fill="#D2D2D2"/>
</g>
<g style="mix-blend-mode:multiply" opacity="0.3">
<path d="M15.4649 276.012H125.137V278.549H15.4649V276.012Z" fill="#D2D2D2"/>
</g>
<g style="mix-blend-mode:multiply" opacity="0.3">
<path d="M15.4779 280.096H131.407V282.633H15.4779V280.096Z" fill="#D2D2D2"/>
</g>
<g style="mix-blend-mode:multiply" opacity="0.3">
<path d="M15.4779 284.178H131.407V286.715H15.4779V284.178Z" fill="#D2D2D2"/>
</g>
<g style="mix-blend-mode:multiply" opacity="0.3">
<path d="M20.1303 263.588H131.407V266.126H20.1303V263.588Z" fill="#D2D2D2"/>
</g>
<g style="mix-blend-mode:multiply" opacity="0.3">
<path d="M15.4649 267.668H125.137V270.206H15.4649V267.668Z" fill="#D2D2D2"/>
</g>
<g style="mix-blend-mode:multiply" opacity="0.3">
<path d="M37.4708 271.754H131.407V274.292H37.4708V271.754Z" fill="#D2D2D2"/>
</g>
<g style="mix-blend-mode:soft-light">
<g style="mix-blend-mode:soft-light">
<path d="M223.224 233.046C227.663 233.049 232.004 231.735 235.697 229.271C239.39 226.806 242.269 223.302 243.97 219.201C245.671 215.1 246.118 210.586 245.254 206.231C244.389 201.876 242.253 197.876 239.114 194.735C235.976 191.595 231.977 189.456 227.622 188.589C223.268 187.721 218.754 188.165 214.652 189.863C210.55 191.562 207.044 194.439 204.577 198.13C202.11 201.821 200.793 206.161 200.793 210.601C200.797 216.55 203.161 222.255 207.366 226.463C211.572 230.671 217.275 233.038 223.224 233.046ZM223.224 189.629C227.376 189.626 231.435 190.855 234.889 193.16C238.342 195.465 241.034 198.742 242.624 202.578C244.215 206.413 244.631 210.634 243.822 214.706C243.013 218.779 241.014 222.52 238.078 225.455C235.142 228.391 231.401 230.39 227.329 231.2C223.257 232.009 219.036 231.592 215.2 230.002C211.365 228.412 208.087 225.72 205.782 222.266C203.478 218.813 202.249 214.753 202.252 210.601C202.259 205.041 204.471 199.712 208.403 195.78C212.334 191.849 217.664 189.637 223.224 189.629Z" fill="#E0FFFF"/>
</g>
</g>
<path d="M223.229 222.795C216.495 222.795 211.037 217.336 211.037 210.602C211.037 203.869 216.495 198.41 223.229 198.41C229.963 198.41 235.421 203.869 235.421 210.602C235.421 217.336 229.963 222.795 223.229 222.795Z" fill="#FFDAE4"/>
<g style="mix-blend-mode:soft-light">
<g style="mix-blend-mode:soft-light">
<path d="M166.469 193.132C170.908 193.132 175.249 191.815 178.94 189.348C182.631 186.881 185.508 183.375 187.206 179.273C188.905 175.171 189.348 170.657 188.481 166.303C187.614 161.949 185.475 157.949 182.334 154.811C179.194 151.673 175.193 149.536 170.838 148.672C166.484 147.807 161.97 148.254 157.869 149.955C153.768 151.656 150.264 154.535 147.799 158.228C145.335 161.921 144.021 166.262 144.024 170.702C144.031 176.651 146.399 182.354 150.607 186.559C154.815 190.764 160.52 193.128 166.469 193.132ZM166.469 149.715C170.619 149.715 174.677 150.946 178.128 153.252C181.579 155.558 184.269 158.836 185.858 162.671C187.446 166.505 187.862 170.725 187.052 174.796C186.242 178.867 184.243 182.606 181.308 185.541C178.373 188.476 174.634 190.475 170.563 191.285C166.492 192.095 162.272 191.679 158.437 190.091C154.603 188.502 151.325 185.812 149.019 182.361C146.713 178.91 145.482 174.852 145.482 170.702C145.478 167.943 146.018 165.21 147.071 162.659C148.124 160.109 149.669 157.791 151.618 155.838C153.567 153.885 155.881 152.335 158.43 151.277C160.978 150.219 163.71 149.673 166.469 149.671V149.715Z" fill="#E0FFFF"/>
</g>
</g>
<path d="M151.879 172.21C150.865 165.934 155.13 160.025 161.406 159.011C167.681 157.996 173.591 162.261 174.605 168.537C175.619 174.813 171.354 180.722 165.079 181.736C158.803 182.751 152.894 178.485 151.879 172.21Z" fill="#FFDAE4"/>
<g style="mix-blend-mode:soft-light">
<g style="mix-blend-mode:soft-light">
<path d="M249.265 149.786L247.617 147.307L238.75 155.065L240.121 156.961L249.265 149.786Z" fill="white"/>
</g>
<g style="mix-blend-mode:soft-light">
<path d="M238.53 149.786L240.164 147.307L249.031 155.065L247.674 156.961L238.53 149.786Z" fill="white"/>
</g>
</g>
<path d="M6.87716 148.984H86.273V152.966H6.87716V148.984Z" fill="white"/>
<path d="M504.085 91.5107V125.973L462.885 126.323L462.317 90.4023L504.085 91.5107Z" fill="#5B5863"/>
<path d="M462.321 90.4023L459.638 94.938L460.98 126.294L462.89 126.323L462.321 90.4023Z" fill="#383443"/>
<path d="M496.726 103.147L492.934 97.6191L472.341 114.887L475.506 119.102L496.726 103.147Z" fill="white"/>
<path d="M471.81 103.147L475.617 97.6191L496.195 114.887L493.045 119.102L471.81 103.147Z" fill="white"/>
<path opacity="0.8" d="M393.741 370.08L393.741 370.081L396.367 485.732C396.367 485.732 396.367 485.732 396.367 485.732C396.436 488.618 397.63 491.363 399.695 493.38C401.759 495.398 404.531 496.529 407.418 496.532H548.431C551.31 496.533 554.075 495.411 556.139 493.404C558.202 491.398 559.402 488.666 559.482 485.788C559.482 485.788 559.482 485.788 559.482 485.788L562.646 370.122L393.741 370.08ZM393.741 370.08C393.706 368.607 393.966 367.143 394.505 365.772C395.045 364.401 395.854 363.153 396.883 362.099C397.913 361.046 399.144 360.21 400.502 359.639C401.86 359.069 403.318 358.777 404.791 358.779H404.792M393.741 370.08L404.792 358.779M404.792 358.779L551.596 358.779M404.792 358.779L551.596 358.779M551.596 358.779C553.072 358.778 554.533 359.074 555.894 359.647M551.596 358.779L555.894 359.647M555.894 359.647C557.254 360.221 558.485 361.061 559.515 362.118M555.894 359.647L559.515 362.118M559.515 362.118C560.545 363.176 561.353 364.429 561.891 365.804M559.515 362.118L561.891 365.804M561.891 365.804C562.429 367.178 562.686 368.647 562.646 370.122L561.891 365.804Z" fill="white" stroke="#FD3E72"/>
<path opacity="0.5" d="M505.411 381.937H431.25V385.116H505.411V381.937Z" fill="#FD3E72"/>
<path opacity="0.5" d="M468.323 389.649H431.25V392.828H468.323V389.649Z" fill="#FD3E72"/>
<path opacity="0.5" d="M468.323 396.11H431.25V399.29H468.323V396.11Z" fill="#FD3E72"/>
<path opacity="0.5" d="M501.996 396.111H472.492V399.29H501.996V396.111Z" fill="#FD3E72"/>
<path opacity="0.5" d="M491.031 402.555H431.25V405.734H491.031V402.555Z" fill="#FD3E72"/>
<path opacity="0.5" d="M452.529 409.002H431.25V412.181H452.529V409.002Z" fill="#FD3E72"/>
<path opacity="0.5" d="M493.698 428.343H456.902V431.523H493.698V428.343Z" fill="#FD3E72"/>
<path opacity="0.5" d="M497.943 415.447H431.25V418.627H497.943V415.447Z" fill="#FD3E72"/>
<path opacity="0.5" d="M482.557 421.894H431.25V425.073H482.557V421.894Z" fill="#FD3E72"/>
<path opacity="0.5" d="M455.387 428.342H431.25V431.522H455.387V428.342Z" fill="#FD3E72"/>
<path opacity="0.5" d="M468.323 434.788H431.25V437.967H468.323V434.788Z" fill="#FD3E72"/>
<path opacity="0.5" d="M441.882 441.234H431.25V444.414H441.882V441.234Z" fill="#FD3E72"/>
<path opacity="0.5" d="M484.859 441.234H446.27V444.414H484.859V441.234Z" fill="#FD3E72"/>
<path opacity="0.5" d="M493.698 447.492H456.902V450.671H493.698V447.492Z" fill="#FD3E72"/>
<path opacity="0.5" d="M455.387 447.491H431.25V450.671H455.387V447.491Z" fill="#FD3E72"/>
<path opacity="0.5" d="M468.323 453.937H431.25V457.116H468.323V453.937Z" fill="#FD3E72"/>
<path opacity="0.5" d="M441.882 460.397H431.25V463.577H441.882V460.397Z" fill="#FD3E72"/>
<path opacity="0.5" d="M484.859 460.397H446.27V463.577H484.859V460.397Z" fill="#FD3E72"/>
<path d="M32.454 129.618C32.454 130.907 32.8363 132.167 33.5526 133.24C34.269 134.312 35.2871 135.147 36.4783 135.641C37.6695 136.134 38.9803 136.263 40.2448 136.012C41.5094 135.76 42.671 135.139 43.5827 134.227C44.4945 133.316 45.1153 132.154 45.3669 130.89C45.6184 129.625 45.4893 128.314 44.9959 127.123C44.5025 125.932 43.6669 124.914 42.5949 124.197C41.5228 123.481 40.2624 123.099 38.9731 123.099C37.2441 123.099 35.5859 123.785 34.3634 125.008C33.1408 126.231 32.454 127.889 32.454 129.618Z" fill="#5B5863"/>
<path d="M19.8242 136.136C16.2238 136.136 13.3051 133.217 13.3051 129.617C13.3051 126.016 16.2238 123.098 19.8242 123.098C23.4246 123.098 26.3433 126.016 26.3433 129.617C26.3433 133.217 23.4246 136.136 19.8242 136.136Z" fill="#FD3E72"/>
<path opacity="0.73" d="M153.693 444.37H242.729C246.174 444.371 249.485 443.033 251.962 440.638C254.439 438.243 255.887 434.979 256.001 431.535L257.984 372.98C258.045 371.198 257.746 369.422 257.105 367.757C256.465 366.093 255.496 364.574 254.256 363.292C253.016 362.01 251.531 360.991 249.889 360.295C248.247 359.599 246.481 359.241 244.698 359.242H151.899C150.12 359.241 148.359 359.598 146.721 360.291C145.083 360.985 143.6 362 142.362 363.278C141.124 364.555 140.156 366.069 139.514 367.728C138.872 369.387 138.571 371.159 138.628 372.937L140.407 431.492C140.513 434.944 141.96 438.22 144.44 440.624C146.92 443.028 150.239 444.371 153.693 444.37Z" fill="black"/>
<path d="M153.692 444.732H242.727C246.261 444.745 249.66 443.383 252.205 440.932C254.751 438.482 256.242 435.137 256.364 431.606L258.347 373.051C258.41 371.22 258.103 369.394 257.445 367.684C256.787 365.973 255.791 364.413 254.518 363.095C253.244 361.778 251.718 360.73 250.03 360.015C248.343 359.3 246.529 358.933 244.696 358.934H151.898C150.07 358.935 148.261 359.303 146.579 360.016C144.896 360.729 143.374 361.773 142.102 363.085C140.83 364.398 139.835 365.952 139.175 367.657C138.516 369.361 138.205 371.181 138.262 373.007L139.997 431.504C140.093 435.063 141.581 438.443 144.141 440.916C146.702 443.39 150.131 444.76 153.692 444.732ZM244.696 359.677C246.43 359.678 248.146 360.028 249.742 360.705C251.338 361.382 252.781 362.374 253.987 363.62C255.192 364.866 256.135 366.342 256.758 367.959C257.382 369.577 257.674 371.304 257.618 373.036L255.634 431.592C255.536 434.945 254.131 438.126 251.72 440.458C249.309 442.79 246.082 444.088 242.727 444.076H153.692C150.327 444.092 147.09 442.79 144.675 440.448C142.26 438.106 140.858 434.911 140.77 431.548L138.991 372.993C138.936 371.264 139.229 369.541 139.854 367.928C140.478 366.315 141.42 364.843 142.624 363.601C143.828 362.359 145.269 361.371 146.862 360.697C148.455 360.023 150.168 359.677 151.898 359.677H244.696Z" fill="#953DA2"/>
<path d="M230.145 368.662H168.605C163.082 368.662 158.605 373.139 158.605 378.662V407.096C158.605 412.619 163.082 417.096 168.605 417.096H230.145C235.667 417.096 240.145 412.619 240.145 407.096V378.662C240.145 373.139 235.667 368.662 230.145 368.662Z" fill="#FD3E72"/>
<path d="M191.755 381.68V406.079L212.595 392.764L191.755 381.68Z" fill="white"/>
<path d="M240.149 426.023H158.609V430.457H240.149V426.023Z" fill="white"/>
<path d="M179.712 426.023H158.609V430.457H179.712V426.023Z" fill="#FD3E72"/>
<path fill-rule="evenodd" clip-rule="evenodd" d="M202.931 102.84L201.502 69.3838H245.312L243.504 102.752L202.931 102.84Z" fill="#5B5863"/>
<path fill-rule="evenodd" clip-rule="evenodd" d="M201.496 69.3848L200.183 71.3536L201.496 102.841H202.925L201.496 69.3848Z" fill="#312C3E"/>
<path d="M218.365 76.1229C216.476 76.0073 214.581 76.0756 212.706 76.3271C211.86 76.7208 212.94 84.5379 212.94 84.5379L211.014 86.3026L212.808 88.0381C212.808 88.0381 212.706 95.9718 213.844 96.6281C214.981 97.2844 218.832 96.6281 218.832 96.6281V94.6593C217.602 94.7785 216.361 94.6997 215.156 94.4259C214.646 94.003 214.69 87.1339 214.69 87.1339L213.844 86.2005L214.69 85.1942C214.69 85.1942 214.529 80.2502 214.69 78.8939C214.69 78.0042 218.423 77.9459 218.423 77.9459L218.365 76.1229Z" fill="white"/>
<path d="M229.386 76.123C231.27 76.0072 233.16 76.0756 235.03 76.3272C235.876 76.721 234.812 84.5381 234.812 84.5381L236.722 86.3027L234.943 88.0382C234.943 88.0382 235.03 95.972 233.907 96.6283C232.784 97.2846 228.905 96.6283 228.905 96.6283V94.6594C230.135 94.7789 231.376 94.7002 232.58 94.4261C233.105 94.0031 233.047 87.134 233.047 87.134L233.907 86.2007L233.047 85.1943C233.047 85.1943 233.207 80.2503 233.12 78.894C233.047 78.0044 229.386 77.9461 229.386 77.9461V76.123Z" fill="white"/>
<defs>
<linearGradient id="paint0_linear" x1="483.833" y1="209.846" x2="483.833" y2="332.221" gradientUnits="userSpaceOnUse">
<stop stop-color="#FD3E72"/>
<stop offset="1" stop-color="#FD3E72"/>
</linearGradient>
<linearGradient id="paint1_linear" x1="510.549" y1="193.161" x2="510.549" y2="160.887" gradientUnits="userSpaceOnUse">
<stop offset="0.02" stop-color="#FFC2A9"/>
<stop offset="1" stop-color="#FF9595"/>
</linearGradient>
<linearGradient id="paint2_linear" x1="-8860.19" y1="15471.2" x2="-8860.19" y2="10824.6" gradientUnits="userSpaceOnUse">
<stop offset="0.02" stop-color="#FFC2A9"/>
<stop offset="1" stop-color="#FF9595"/>
</linearGradient>
<linearGradient id="paint3_linear" x1="506.688" y1="215.884" x2="480.801" y2="215.884" gradientUnits="userSpaceOnUse">
<stop offset="0.02" stop-color="#D1A1D6"/>
<stop offset="0.99" stop-color="#BD89C4"/>
</linearGradient>
<linearGradient id="paint4_linear" x1="-33941.6" y1="24444.3" x2="-33941.6" y2="16136" gradientUnits="userSpaceOnUse">
<stop offset="0.02" stop-color="#FFC2A9"/>
<stop offset="1" stop-color="#FF9595"/>
</linearGradient>
<linearGradient id="paint5_linear" x1="-21332.9" y1="10922.2" x2="-21332.9" y2="8872.36" gradientUnits="userSpaceOnUse">
<stop stop-color="#FFEADB"/>
<stop offset="0.99" stop-color="#C27CB6"/>
</linearGradient>
<linearGradient id="paint6_linear" x1="165.777" y1="224.72" x2="165.777" y2="200.204" gradientUnits="userSpaceOnUse">
<stop stop-color="#FFB0B0"/>
<stop offset="0.98" stop-color="#FFC2A9"/>
</linearGradient>
<linearGradient id="paint7_linear" x1="-5115.95" y1="2716.78" x2="-5115.95" y2="2592.8" gradientUnits="userSpaceOnUse">
<stop stop-color="#FFB0B0"/>
<stop offset="0.98" stop-color="#FFC2A9"/>
</linearGradient>
<linearGradient id="paint8_linear" x1="-9436.18" y1="5549.26" x2="-9865.13" y2="5549.26" gradientUnits="userSpaceOnUse">
<stop offset="0.02" stop-color="#D1A1D6"/>
<stop offset="0.99" stop-color="#BD89C4"/>
</linearGradient>
<linearGradient id="paint9_linear" x1="414.233" y1="318.644" x2="414.233" y2="266.01" gradientUnits="userSpaceOnUse">
<stop stop-color="#CCEDFF"/>
<stop offset="1" stop-color="#755CBB"/>
</linearGradient>
<linearGradient id="paint10_linear" x1="-5508.08" y1="8236.74" x2="-5508.08" y2="7151.89" gradientUnits="userSpaceOnUse">
<stop stop-color="#CCEDFF"/>
<stop offset="1" stop-color="#755CBB"/>
</linearGradient>
<linearGradient id="paint11_linear" x1="291.016" y1="312.808" x2="291.016" y2="239.1" gradientUnits="userSpaceOnUse">
<stop stop-color="#CCCCFF"/>
<stop offset="1" stop-color="#755CBB"/>
</linearGradient>
<linearGradient id="paint12_linear" x1="-5116.87" y1="9235.82" x2="-5116.87" y2="8218.21" gradientUnits="userSpaceOnUse">
<stop stop-color="#CCCCFF"/>
<stop offset="1" stop-color="#755CBB"/>
</linearGradient>
<linearGradient id="paint13_linear" x1="-10215" y1="7091.5" x2="-10215" y2="6497" gradientUnits="userSpaceOnUse">
<stop stop-color="#CCCCFF"/>
<stop offset="1" stop-color="#755CBB"/>
</linearGradient>
<linearGradient id="paint14_linear" x1="-2967.12" y1="2467.91" x2="-2967.12" y2="2385.9" gradientUnits="userSpaceOnUse">
<stop stop-color="#CCEDFF"/>
<stop offset="1" stop-color="#755CBB"/>
</linearGradient>
<linearGradient id="paint15_linear" x1="-3524.97" y1="13760.8" x2="-3524.97" y2="11310.4" gradientUnits="userSpaceOnUse">
<stop stop-color="#CCCCFF"/>
<stop offset="1" stop-color="#755CBB"/>
</linearGradient>
<linearGradient id="paint16_linear" x1="-4336.78" y1="9232.31" x2="-4336.78" y2="8187.16" gradientUnits="userSpaceOnUse">
<stop stop-color="#CCCCFF"/>
<stop offset="1" stop-color="#755CBB"/>
</linearGradient>
</defs>
</svg>
