<svg width="679" height="471" viewBox="0 0 679 471" fill="none" xmlns="http://www.w3.org/2000/svg">
<g style="mix-blend-mode:multiply">
<path d="M337.437 441.613C151.076 441.613 0 432.572 0 421.419C0 410.266 151.076 401.225 337.437 401.225C523.799 401.225 674.875 410.266 674.875 421.419C674.875 432.572 523.799 441.613 337.437 441.613Z" fill="#E7E7E7"/>
</g>
<path opacity="0.2" d="M464.741 22.4668H464.871C514.706 10.4214 552.897 26.0096 572.217 69.6329C581.782 91.2202 583.589 126.211 608.92 138.197C634.251 150.184 652.791 157.624 665.427 183.899C676.918 207.789 681.96 237.218 677.236 263.021C666.195 323.626 610.632 369.198 543.532 369.198H277.706C195.703 369.198 67.7613 391.092 23.4057 309.16C3.68431 272.728 7.78214 226.672 32.2863 192.803C51.8188 165.819 83.4085 147.054 117.596 140.134C131.838 137.253 150.119 140.24 161.928 131.383C172.427 123.507 175.544 108.474 178.65 97.0304C184.555 75.3368 192.278 53.4425 207.689 35.764C235.488 3.87906 286.315 -8.04827 328.143 5.53236C352.671 13.4918 374.483 29.1508 400.274 32.0677C422.05 34.5477 443.543 27.5448 464.741 22.4668Z" fill="white"/>
<path opacity="0.2" d="M449.553 90.7832H449.659C490.094 81.0524 521.082 93.7237 536.753 129.104C544.523 146.629 545.987 175.019 566.536 184.773C587.084 194.527 602.14 200.538 612.391 221.854C621.708 241.233 625.771 265.123 621.956 286.061C612.993 335.235 567.905 372.209 513.465 372.209H297.769C231.224 372.209 127.409 389.982 91.4143 323.496C75.4127 293.973 78.7312 256.561 98.6179 229.081C114.49 207.163 140.104 191.929 167.844 186.32C179.393 183.958 194.237 186.403 203.815 179.234C212.341 172.834 214.856 160.635 217.383 151.353C222.178 133.745 228.449 115.984 240.943 101.648C263.51 75.7382 304.713 66.0901 338.723 77.1081C358.61 83.5677 376.312 96.2863 397.25 98.6363C414.905 100.608 432.335 94.9282 449.553 90.7832Z" fill="white"/>
<path d="M595.729 424.723L183.126 424.723C174.914 424.723 168.258 418.067 168.258 409.855L168.258 131.807C168.258 123.595 174.914 116.939 183.126 116.939L595.729 116.939C603.94 116.939 610.597 123.595 610.597 131.807V409.855C610.597 418.067 603.94 424.723 595.729 424.723Z" fill="#F8FFEE"/>
<path d="M610.597 153.383V131.808C610.597 127.865 609.031 124.083 606.242 121.295C603.454 118.506 599.673 116.94 595.729 116.94H183.126C179.183 116.94 175.401 118.506 172.613 121.295C169.825 124.083 168.258 127.865 168.258 131.808V153.383H610.597Z" fill="#5B5863"/>
<path d="M195.101 136C195.103 136.987 194.812 137.952 194.266 138.773C193.719 139.594 192.941 140.235 192.03 140.614C191.119 140.992 190.116 141.092 189.148 140.9C188.18 140.708 187.291 140.233 186.593 139.536C185.896 138.838 185.421 137.949 185.229 136.981C185.037 136.013 185.137 135.01 185.515 134.099C185.894 133.188 186.535 132.41 187.356 131.863C188.177 131.317 189.142 131.026 190.129 131.028C191.447 131.031 192.709 131.556 193.641 132.488C194.573 133.42 195.098 134.682 195.101 136V136Z" fill="#FD3E72"/>
<path d="M214.019 136C214.021 136.987 213.73 137.952 213.184 138.773C212.637 139.594 211.859 140.235 210.948 140.614C210.036 140.992 209.034 141.092 208.066 140.9C207.098 140.708 206.209 140.233 205.511 139.536C204.814 138.838 204.339 137.949 204.147 136.981C203.955 136.013 204.055 135.01 204.433 134.099C204.812 133.188 205.452 132.41 206.274 131.863C207.095 131.317 208.06 131.026 209.047 131.028C210.365 131.028 211.63 131.552 212.562 132.485C213.495 133.417 214.019 134.681 214.019 136V136Z" fill="#FD3E72"/>
<path d="M232.936 136C232.936 136.983 232.645 137.945 232.098 138.762C231.552 139.58 230.776 140.217 229.867 140.593C228.959 140.97 227.959 141.068 226.995 140.876C226.03 140.684 225.144 140.211 224.449 139.516C223.754 138.82 223.28 137.934 223.088 136.97C222.897 136.006 222.995 135.006 223.371 134.097C223.748 133.189 224.385 132.412 225.202 131.866C226.02 131.32 226.981 131.028 227.965 131.028C229.283 131.028 230.548 131.552 231.48 132.484C232.412 133.417 232.936 134.681 232.936 136V136Z" fill="#FD3E72"/>
<path opacity="0.3" d="M252.351 188.138H196.918V172.444H252.351V188.138Z" fill="#FD3E72"/>
<path d="M453.617 188.138H398.185V172.444H453.617V188.138Z" fill="#FF6931"/>
<path d="M588.654 227.391H476.042V219.538H588.654V227.391Z" fill="#E2E2E2"/>
<path d="M588.654 245.802H476.042V237.949H588.654V245.802Z" fill="#E2E2E2"/>
<path d="M588.654 264.201H476.042V256.348H588.654V264.201Z" fill="#E2E2E2"/>
<path d="M588.654 282.6H476.042V274.747H588.654V282.6Z" fill="#E2E2E2"/>
<path d="M588.654 301.011H476.042V293.158H588.654V301.011Z" fill="#E2E2E2"/>
<path d="M572.466 354.647H392.139V327.167H572.466V354.647Z" fill="#E2E2E2"/>
<path d="M588.667 393.902H392.15V360.73H588.667V393.902Z" fill="#E2E2E2"/>
<path opacity="0.3" d="M521.142 188.138H465.709V172.444H521.142V188.138Z" fill="#FD3E72"/>
<path d="M588.667 188.138H533.234V172.444H588.667V188.138Z" fill="#FAC5C9"/>
<path opacity="0.3" d="M458.504 305.321L190.127 305.321V217.862L458.504 217.862V305.321Z" fill="#FD3E72"/>
<path d="M190.13 386.036H276.16V393.889H190.13V386.036Z" fill="#E2E2E2"/>
<path opacity="0.3" d="M276.5 378.751H190.127V327.168H276.5V378.751Z" fill="#FD3E72"/>
<path d="M294.179 386.036H380.209V393.889H294.179V386.036Z" fill="#E2E2E2"/>
<path opacity="0.3" d="M380.553 378.751H294.18V327.168H380.553V378.751Z" fill="#FD3E72"/>
<path d="M107.406 404.33L111.622 414.297C111.622 414.297 139.397 422.268 133.162 426.177C126.926 430.086 98.9149 428.539 96.4822 426.177C93.211 423.024 97.1553 413.045 97.1553 413.045L97.6513 404.33H107.406Z" fill="#5B5863"/>
<path d="M36.1122 398.001L34.6597 408.724C34.6597 408.724 54.5228 429.78 47.1774 429.957C39.8321 430.134 16.4734 414.534 15.5995 411.298C14.4186 406.929 22.8504 400.339 22.8504 400.339L27.7276 393.088L36.1122 398.001Z" fill="#5B5863"/>
<path d="M109.873 165.287L105.15 157.953C105.15 157.953 98.4773 173.459 93.3403 177.084C88.2033 180.71 112.696 189.378 112.696 189.378C112.696 189.378 112.117 174.958 117.254 171.215C122.391 167.471 109.873 165.287 109.873 165.287Z" fill="#FFA68A"/>
<path d="M116.664 265.736L125.367 334.088L114.066 413.765L95.596 412.962C95.596 412.962 85.0622 370.094 85.7707 358.273C86.4793 346.452 92.2304 339.591 88.2271 324.18C81.5312 298.471 89.7859 267.165 89.7859 267.165L116.664 265.736Z" fill="#7C3B19"/>
<g style="mix-blend-mode:multiply" opacity="0.15">
<path d="M101.229 330.593C95.5132 309.821 99.4694 269.764 99.4694 269.764L85.6643 297.858C85.2863 306.717 86.1489 315.585 88.227 324.204C92.2303 339.615 86.4674 346.488 85.7706 358.298C85.0739 370.107 95.5959 412.986 95.5959 412.986L97.1075 413.045C92.3838 402.169 93.5647 364.084 95.1353 357.542C98.1113 344.752 103.225 337.844 101.229 330.593Z" fill="#005489"/>
</g>
<path d="M112.365 255.744L82.8418 340.475L35.3686 409.808L21.6817 403.017L28.0942 368.145C29.6544 359.65 33.5283 351.751 39.2893 345.317L45.5482 338.303C49.6689 333.698 52.3749 328.003 53.3423 321.9C53.3423 321.9 57.9716 290.18 60.0382 279.693C62.1048 269.207 73.1582 255.744 73.1582 255.744H112.365Z" fill="#8F4620"/>
<path d="M110.263 204.292L113.487 188.42L137.106 218.853L173.608 216.715L177.682 226.423L134.153 235.693L109.212 220.99L110.263 204.292Z" fill="#FFD0DD"/>
<path d="M96.6582 173.623C96.6582 173.623 98.2407 182.444 112.801 185.432C112.801 185.432 119.332 190.451 121.351 212.534C122.839 228.902 127.339 272.938 118.541 277.249C112.636 280.177 109.211 271.072 96.9653 273.6C71.7998 278.784 60.0613 275.253 59.9905 265.829C59.9905 260.716 67.6902 224.686 72.2249 211.117C76.7597 197.548 86.4904 175.89 96.6582 173.623Z" fill="#FFE6EC"/>
<path d="M218.511 204.248L157.124 247.44C155.342 248.693 152.882 248.265 151.628 246.484L147.558 240.698C146.304 238.917 146.732 236.456 148.514 235.203L209.901 192.011C211.683 190.758 214.143 191.186 215.397 192.967L219.467 198.752C220.721 200.534 220.292 202.994 218.511 204.248Z" fill="#5B5863"/>
<path d="M240.672 192.436L229.512 199.864L218.718 194.113L217.537 181.937L228.685 174.498L233.409 164.413C228.979 163.611 224.41 164.13 220.273 165.906C216.136 167.682 212.613 170.636 210.142 174.399C207.671 178.163 206.362 182.571 206.378 187.073C206.394 191.575 207.735 195.973 210.232 199.719C212.729 203.465 216.274 206.394 220.423 208.14C224.573 209.886 229.145 210.373 233.569 209.54C237.994 208.707 242.075 206.591 245.306 203.455C248.536 200.319 250.773 196.302 251.737 191.904L240.672 192.436Z" fill="#5B5863"/>
<path opacity="0.55" d="M105.492 235.269L97.3912 220.862L89.3137 219.764C89.3137 219.764 98.8792 258.026 123.738 257.99C124.881 252.132 124.403 246.072 122.356 240.465C118.943 231.278 105.492 235.269 105.492 235.269Z" fill="#FFCCDA"/>
<path d="M106.461 136.13C113.168 133.591 119.297 135.091 124.977 142.778C128.378 147.372 127.422 153.088 129.973 155.367C131.661 156.867 132.512 156.335 132.134 157.493C131.935 157.981 131.634 158.421 131.251 158.784C130.868 159.147 130.412 159.423 129.914 159.595C129.914 159.595 130.091 170.318 124.269 173.648C119.037 176.635 107.476 174.994 102.351 167.33C99.2096 162.63 91.0967 141.94 106.461 136.13Z" fill="#FFA68A"/>
<path d="M103.496 153.75C103.738 151.389 104.711 149.162 106.28 147.381C107.849 145.601 109.935 144.355 112.247 143.818C116.912 142.637 123.891 144.586 128.154 137.158C129.595 134.666 128.154 128.891 128.154 128.891C128.154 128.891 124.906 134.005 123.489 133.615C122.072 133.225 126.135 129.812 124.446 127.285C124.446 127.285 121.73 131.111 119.604 131.596C119.604 131.596 122.923 128.82 121.458 127.285C119.442 129.197 116.908 130.474 114.172 130.958C111.928 131.265 100.509 133.32 97.0721 138.35C93.6356 143.381 93.1514 146.239 94.7103 151.246C96.2691 156.253 103.496 153.75 103.496 153.75Z" fill="#01001E"/>
<path d="M110.132 139.543C110.132 139.543 104.098 144.739 105.692 157.788C106.178 160.528 105.637 163.35 104.173 165.716C102.709 168.082 100.425 169.825 97.7563 170.613C97.7563 170.613 97.4139 164.709 94.9576 160.493C92.5012 156.277 89.053 144.125 98.1225 137.642C104.074 133.391 110.132 139.543 110.132 139.543Z" fill="#01001E"/>
<path d="M111.159 139.07L112.246 143.794C112.246 143.794 108.16 145.164 109.778 153.029C109.778 153.029 103.176 148.47 102.562 142.837C102.09 138.551 101.854 140.558 101.854 140.558L111.159 139.07Z" fill="#01001E"/>
<path d="M107.323 150.974C107.323 150.974 105.752 148.388 103.78 148.353C101.808 148.317 100.804 151.411 101.489 154.187C102.174 156.962 105.776 159.276 107.854 155.084" fill="#FFA68A"/>
<path opacity="0.55" d="M112.222 203.751C112.222 203.751 110.038 199.629 111.266 199.393C112.907 199.074 114.135 199.393 115.989 205.144C117.371 209.537 119.827 228.101 119.827 228.101L112.222 203.751Z" fill="#FFC7D6"/>
<path d="M190.069 226.766C183.834 225.585 173.04 227.073 171.552 223.79C171.159 223.095 170.939 222.316 170.91 221.519C170.881 220.721 171.045 219.929 171.387 219.208C171.445 219.108 171.474 218.994 171.473 218.879C171.471 218.764 171.439 218.651 171.378 218.553C171.317 218.455 171.231 218.375 171.129 218.322C171.026 218.268 170.912 218.244 170.796 218.251C169.615 218.251 167.407 218.759 163.014 220.495C160.77 221.381 156.011 223.199 156.011 223.199C156.011 223.199 155.09 235.941 159.235 234.489C163.38 233.036 174.434 236.331 178.791 234.855C180.704 234.205 181.72 233.757 182.251 232.883C183.211 232.808 184.153 232.576 185.038 232.198C185.907 231.781 186.613 231.087 187.046 230.226C187.722 230.149 188.374 229.93 188.96 229.585C189.546 229.239 190.053 228.773 190.447 228.218C190.825 227.663 190.754 226.919 190.069 226.766Z" fill="#FFA68A"/>
<path d="M86.55 202.025C88.4158 192.177 106.803 190.417 111.267 199.392C111.586 200.03 111.893 200.726 112.2 201.459C116.085 210.835 119.793 228.1 119.793 228.1L158.645 220.566L161.964 234.737C161.964 234.737 135.983 249.322 117.207 247.916C98.43 246.511 88.3568 218.594 86.857 212.347C86.0677 208.961 85.9632 205.452 86.55 202.025Z" fill="#FFE6EC"/>
<path d="M33.1843 413.789C34.0561 413.58 34.9394 413.423 35.8296 413.317C36.7153 413.175 37.6009 413.151 38.522 413.045C37.624 412.839 36.6968 412.791 35.7823 412.903C34.8629 413.009 33.977 413.312 33.1843 413.789V413.789Z" fill="white"/>
<path d="M35.8526 416.824C36.7258 416.622 37.6088 416.464 38.498 416.352C39.3837 416.21 40.2811 416.186 41.1904 416.092C40.2941 415.874 39.3648 415.826 38.4507 415.95C37.5321 416.052 36.6462 416.35 35.8526 416.824V416.824Z" fill="white"/>
<path d="M38.5227 419.87C39.3957 419.664 40.2786 419.503 41.168 419.386C42.0537 419.256 42.9512 419.221 43.8605 419.126C42.9634 418.914 42.0351 418.866 41.1208 418.985C40.2019 419.093 39.3164 419.395 38.5227 419.87V419.87Z" fill="white"/>
<path d="M112.423 418.701C113.143 418.123 113.828 417.579 114.584 417.083C115.34 416.587 116.084 416.139 116.863 415.631C115.964 415.85 115.112 416.23 114.348 416.753C113.577 417.26 112.921 417.924 112.423 418.701V418.701Z" fill="white"/>
<path d="M116.18 420.213C116.869 419.633 117.591 419.092 118.341 418.595C119.062 418.076 119.841 417.639 120.621 417.143C119.722 417.357 118.869 417.733 118.105 418.253C117.334 418.764 116.678 419.432 116.18 420.213V420.213Z" fill="white"/>
<path d="M119.935 421.726C120.644 421.147 121.34 420.545 122.084 420.096C122.828 419.647 123.596 419.151 124.375 418.655C123.476 418.87 122.624 419.246 121.86 419.765C121.086 420.274 120.429 420.942 119.935 421.726V421.726Z" fill="white"/>
<path d="M467.114 205.178L506.911 447.138H498.468L460.182 204.706L467.114 205.178Z" fill="#5B5863"/>
<path d="M411.872 205.178L372.063 447.138H380.518L418.804 204.706L411.872 205.178Z" fill="#5B5863"/>
<path d="M476.633 282.482H400.392V276.341H476.633V282.482Z" fill="#5B5863"/>
<path d="M486.729 342.591H390.306V336.451H486.729V342.591Z" fill="#5B5863"/>
<path d="M496.827 405.251H381.9V399.111H496.827V405.251Z" fill="#5B5863"/>
<g style="mix-blend-mode:multiply">
<path d="M469.205 217.851H462.32L461.647 214.037H468.697L469.205 217.851Z" fill="#010105"/>
</g>
<path d="M477.79 214.037H385.76V201.023H477.79V214.037Z" fill="#5B5863"/>
<path d="M368.059 269.822C368.059 269.822 368.98 280.238 366.595 280.71C364.209 281.183 337.828 281.395 336.186 277.817C334.545 274.239 355.565 269.551 355.565 269.551L357.466 265.5L368.059 269.822Z" fill="#FD3E72"/>
<path d="M380.116 192.52C380.116 192.52 375.629 208.651 371.956 217.614C368.283 226.577 355.187 269.398 355.187 269.398L368.272 273.413C368.272 273.413 403.912 242.425 395.209 226.105C389.521 215.217 384.482 204.002 380.116 192.52V192.52Z" fill="#7C3B19"/>
<path d="M423.35 260.599C423.35 260.599 433.27 266.397 432.538 271.015C431.876 275.184 410.797 292.413 406.829 291.15C402.861 289.886 414.469 270.129 414.469 270.129L412.379 265.724L423.35 260.599Z" fill="#FD3E72"/>
<path d="M440.721 60.8818L447.996 66.7156C447.996 66.7156 446.401 75.6552 455.081 86.9448C460.313 93.7233 434.521 93.5698 434.521 93.5698L435.56 80.0955L440.721 60.8818Z" fill="#FFA68A"/>
<path d="M468.13 159.761C474.035 160.848 477.802 160.611 481.9 165.04C485.584 169.008 489.517 191.221 477.755 197.61C462.143 206.089 410.584 203.892 410.584 203.892C410.584 203.892 421.011 207.872 423.267 227.948C425.522 248.023 428.557 263.789 428.557 263.789L410.843 271.335C410.843 271.335 384.958 218.193 379.785 197.397C377.683 188.977 381.627 178.231 401.62 171.063C417.787 165.205 453.085 157.009 468.13 159.761Z" fill="#8F4620"/>
<g style="mix-blend-mode:multiply">
<path d="M429.171 131.691L429.585 139.083L429.49 147.728C429.49 147.728 445.149 127.77 446.897 118.476C448.007 112.725 429.171 131.691 429.171 131.691Z" fill="#007577"/>
</g>
<path d="M432.312 47.0409C422.616 45.86 412.909 53.1935 415.779 65.8294C415.779 66.0656 416.204 70.2697 413.689 71.7341C413.567 71.8059 413.463 71.9032 413.382 72.0193C413.302 72.1354 413.247 72.2675 413.222 72.4066C413.198 72.5456 413.203 72.6884 413.239 72.825C413.275 72.9617 413.339 73.0891 413.429 73.1984C413.744 73.7428 414.192 74.1985 414.731 74.5227C415.27 74.847 415.882 75.0292 416.511 75.0524C419.558 85.0549 426.584 88.9401 431.273 88.5976C440.956 87.8182 446.318 77.0954 447.345 67.53C448.597 55.7089 441.24 48.1628 432.312 47.0409Z" fill="#FFA68A"/>
<path d="M427.187 116.939L433.34 91.9746C433.34 91.9746 444.936 91.1834 452.672 83.5782C456.722 79.5985 492.823 135.161 485.584 178.961C485.584 178.961 484.403 169.443 457.608 165.971C437.461 163.361 422.18 171.533 424.034 160.976C426.443 147.395 427.187 116.939 427.187 116.939Z" fill="#E8275B"/>
<g style="mix-blend-mode:multiply">
<g style="mix-blend-mode:multiply">
<path d="M401.597 195.991L329.171 132.906L371.07 83.7085L443.603 141.904L401.597 195.991Z" fill="#B6E6DC"/>
</g>
</g>
<path d="M370.448 81.437L443.392 141.846L401.121 192.888L328.177 132.479L370.448 81.437Z" fill="#FFDDE6"/>
<path d="M370.272 80.7069L443.198 141.321L436.245 149.687L363.318 89.0725L370.272 80.7069Z" fill="#5B5863"/>
<path d="M363.886 98.5619L403.25 131.162L392.404 144.259L353.04 111.659L363.886 98.5619Z" fill="#FFD3DF"/>
<path d="M349.079 116.433L411.272 167.938L406.919 173.196L344.725 121.69L349.079 116.433Z" fill="#FFD3DF"/>
<path d="M342.855 123.96L405.048 175.466L400.694 180.723L338.501 129.217L342.855 123.96Z" fill="#FFD3DF"/>
<path d="M405.923 133.375L426.078 150.067L415.232 163.164L395.077 146.473L405.923 133.375Z" fill="#FFD3DF"/>
<path d="M374.198 153.265L373.738 148.778L369.829 143.688L363.086 144.786C363.086 144.786 348.135 142.153 348.478 147.644C348.584 149.321 353.756 145.79 353.886 147.739C353.886 147.88 353.886 148.022 353.969 148.175C353.154 148.955 351.43 149.581 347.131 148.624C347.131 148.624 346.895 153.088 349.824 153.809C352.753 154.529 350.804 157.044 353.579 157.351C355.941 157.611 353.331 160.8 358.303 160.209C362.731 159.678 363.027 158.095 365.318 157.233L373.218 155.249L374.198 153.265Z" fill="#FFA68A"/>
<g style="mix-blend-mode:multiply">
<path d="M435.903 115.335L448.894 127.026C448.894 127.026 439.966 143.772 414.954 151.66C404.018 155.108 369.146 157.565 369.146 157.565L386.269 146.464L435.903 115.335Z" fill="#B6E6DC"/>
</g>
<path d="M448.916 127.024C448.916 127.024 432.642 140.747 414.173 149.615C414.173 149.615 387.496 158.59 366.936 157.138L364.149 144.148L402.978 131.665C402.978 131.665 428.427 106.086 433.221 92.3877C433.221 92.3877 450.038 102.319 448.916 127.024Z" fill="#E8275B"/>
<path d="M435.702 62.712C433.837 59.6298 436.187 55.78 433.034 55.2604C433.034 55.2604 433.116 55.2604 433.034 55.2604C428.971 54.6345 413.135 60.8934 411.151 52.5443C412.521 52.6394 413.892 52.3918 415.143 51.8239C413.696 51.7739 412.281 51.3871 411.01 50.6942C409.738 50.0013 408.647 49.0214 407.821 47.8324C407.821 47.8324 414.623 49.0133 417.41 47.1947C417.41 47.1947 412.202 47.4191 410.501 45.4705C410.501 45.4705 418.591 44.9982 420.752 43.6637C426.373 40.18 433.364 40.4752 438.171 41.6325C442.977 42.7898 446 43.9944 448.964 49.899C451.527 55.0714 445.421 75.5132 445.421 75.5132C441.76 71.5831 438.504 67.2944 435.702 62.712Z" fill="#01001E"/>
<path d="M441.277 50.8664L447.122 46.7686C447.122 46.7686 449.815 49.3194 451.539 57.1607C453.263 65.002 449.283 72.0403 452.436 75.4886C451.432 75.2549 450.532 74.6992 449.874 73.9062C449.874 73.9062 450.984 79.1849 454.597 79.8108C454.597 79.8108 449.98 79.1141 448.598 76.6932C448.598 76.6932 449.472 80.602 451.952 81.3224C451.952 81.3224 447.311 81.1571 446.437 77.449C445.563 73.7409 441.099 73.4456 439.458 64.199C437.816 54.9524 441.277 50.8664 441.277 50.8664Z" fill="#01001E"/>
<path d="M435.1 62.4274C435.1 62.4274 437.037 57.4557 439.824 59.2034C444.358 62.014 441.642 69.8318 437.993 68.8752" fill="#FFA68A"/>
<g filter="url(#filter0_d)">
<path d="M411.07 463.092C349.727 448.207 312.067 386.412 326.952 325.07C341.838 263.728 403.633 226.067 464.975 240.953C526.317 255.838 563.978 317.633 549.092 378.975C534.207 440.317 472.412 477.978 411.07 463.092Z" fill="white"/>
</g>
<path d="M500.532 420.093L491.994 421.635C489.41 422.041 487.089 423.846 485.843 426.32L481.81 434.39C480.21 437.704 476.58 439.605 473.192 439.098L464.858 437.71C462.324 437.306 459.686 438.213 457.795 440.223L451.577 446.741C448.994 449.407 445.135 450.123 442.126 448.372L434.913 444.274C432.733 443.031 429.962 443.084 427.604 444.366L419.803 448.653C416.628 450.355 412.781 449.738 410.614 447.163L405.288 440.745C403.709 438.824 401.138 437.898 398.525 438.399L389.987 439.942C386.461 440.532 383.177 438.715 382.006 435.454L379.127 427.467C378.301 425.009 376.239 423.383 373.734 422.883L365.4 421.495C361.92 420.966 359.566 418.037 359.486 414.423L359.399 405.669C359.423 403.004 358.052 400.722 355.873 399.479L348.659 395.381C345.713 393.748 344.384 390.038 345.525 386.615L348.213 378.118C349.001 375.533 348.538 372.854 346.988 370.837L341.662 364.42C339.495 361.844 339.441 357.824 341.532 354.834L346.733 347.456C348.287 345.261 348.766 342.397 347.82 340.012L344.94 332.026C343.769 328.765 344.965 324.84 347.89 322.667L355.066 317.202C357.237 315.567 358.512 312.997 358.537 310.332L358.449 301.578C358.487 297.581 360.787 294.23 364.212 292.999L372.488 290.058C375.005 289.226 377.018 287.141 377.835 284.461L380.522 275.964C381.601 272.423 384.889 270.029 388.36 269.939L396.949 269.847C399.507 269.846 402.079 268.513 403.662 266.222L408.862 258.844C410.983 255.758 414.805 254.52 418.018 255.601L425.914 258.424C428.302 259.307 431.036 258.731 433.207 257.096L440.383 251.631C443.337 249.362 447.175 249.36 449.855 251.546L456.201 256.873C458.085 258.765 460.802 259.213 463.348 258.284L471.624 255.343C475.049 254.112 478.6 255.377 480.346 258.365L484.526 265.637C485.805 267.897 488.076 269.162 490.727 269.183L499.315 269.092C502.878 269.024 505.774 271.467 506.279 274.978L507.733 283.444C508.225 286.028 509.867 288.066 512.255 288.949L520.181 291.677C523.394 292.758 525.327 296.099 524.707 299.751L523.332 308.461C522.911 311.134 523.799 313.71 525.77 315.314L532.116 320.642C534.704 322.805 535.396 326.67 533.796 329.983L529.763 338.054C528.517 340.528 528.554 343.311 529.863 345.475L534.043 352.746C535.789 355.735 535.172 359.696 532.589 362.362L526.28 368.858C524.388 370.868 523.48 373.526 523.971 376.11L525.518 384.598C526.143 388.036 524.334 391.71 521.038 393.486L513.175 397.656C510.816 398.938 509.112 401.302 508.691 403.974L507.408 412.706C506.85 416.476 504.087 419.407 500.532 420.093Z" fill="#FD3E72"/>
<path d="M500.532 420.093L491.994 421.635C489.41 422.041 487.089 423.846 485.843 426.32L481.81 434.39C480.21 437.704 476.58 439.605 473.192 439.098L464.858 437.71C462.324 437.306 459.686 438.213 457.795 440.223L451.577 446.741C448.994 449.407 445.135 450.123 442.126 448.372L434.913 444.274C432.733 443.031 429.962 443.084 427.604 444.366L419.803 448.653C416.628 450.355 412.781 449.738 410.614 447.163L405.288 440.745C403.709 438.824 401.138 437.898 398.525 438.399L389.987 439.942C386.461 440.532 383.177 438.715 382.006 435.454L379.127 427.467C378.301 425.009 376.239 423.383 373.734 422.883L365.4 421.495C361.92 420.966 359.566 418.037 359.486 414.423L359.399 405.669C359.423 403.004 358.052 400.722 355.873 399.479L348.659 395.381C345.713 393.748 344.384 390.038 345.525 386.615L348.213 378.118C349.001 375.533 348.538 372.854 346.988 370.837L341.662 364.42C339.495 361.844 339.441 357.824 341.532 354.834L346.733 347.456C348.287 345.261 348.766 342.397 347.82 340.012L344.94 332.026C343.769 328.765 344.965 324.84 347.89 322.667L355.066 317.202C357.237 315.567 358.512 312.997 358.537 310.332L358.449 301.578C358.487 297.581 360.787 294.23 364.212 292.999L372.488 290.058C375.005 289.225 377.018 287.141 377.835 284.461L380.522 275.964C381.601 272.423 384.889 270.029 388.36 269.939L396.949 269.847C399.507 269.846 402.079 268.513 403.662 266.222L408.862 258.844C410.983 255.758 414.805 254.52 418.018 255.601L425.914 258.424C428.302 259.307 431.036 258.731 433.207 257.096L440.383 251.631C443.337 249.362 447.175 249.36 449.855 251.546L456.201 256.873C458.085 258.765 460.802 259.213 463.348 258.284L471.624 255.343C475.049 254.112 478.6 255.377 480.346 258.365L484.526 265.637C485.805 267.897 488.076 269.162 490.727 269.183L499.315 269.092C502.878 269.024 505.774 271.467 506.279 274.978L507.733 283.444C508.225 286.028 509.867 288.066 512.255 288.949L520.181 291.677C523.394 292.758 525.327 296.099 524.707 299.751L523.332 308.461C522.911 311.134 523.799 313.71 525.77 315.314L532.116 320.642C534.704 322.805 535.396 326.67 533.796 329.983L529.763 338.054C528.517 340.528 528.554 343.311 529.863 345.475L534.043 352.746C535.789 355.735 535.172 359.696 532.589 362.362L526.28 368.858C524.388 370.868 523.48 373.526 523.971 376.11L525.518 384.598C526.143 388.036 524.334 391.71 521.038 393.486L513.175 397.656C510.816 398.938 509.112 401.302 508.691 403.974L507.408 412.706C506.85 416.476 504.087 419.407 500.532 420.093Z" fill="url(#paint0_linear)"/>
<path d="M421.069 404.32C449.224 411.092 479.311 392.751 488.269 363.355C497.227 333.959 481.664 304.64 453.509 297.868C425.353 291.096 395.266 309.437 386.308 338.833C377.35 368.229 392.913 397.549 421.069 404.32Z" fill="white"/>
<path d="M395.158 282.864L403.258 294.257L400.937 296.055L395.872 288.984L396.481 296.105L394.944 297.272L388.548 294.597L393.613 301.667L391.293 303.465L383.072 292.145L385.393 290.347L393.667 293.989L392.625 284.712L395.158 282.864Z" fill="white"/>
<path d="M408.872 292.045C407.866 292.109 407.039 291.91 406.148 291.592C405.257 291.275 404.637 290.715 403.954 290.037C403.27 289.36 402.829 288.536 402.445 287.521C402.061 286.505 401.953 285.557 401.965 284.535C401.978 283.513 402.146 282.63 402.618 281.719C402.97 280.882 403.505 280.088 404.317 279.361C405.036 278.613 405.911 278.003 406.911 277.63C407.941 277.161 408.884 276.978 409.798 276.891C410.804 276.827 411.632 277.026 412.522 277.344C413.321 277.639 414.062 278.126 414.717 278.899C415.4 279.576 415.934 280.422 416.226 281.415C416.61 282.431 416.81 283.402 416.705 284.401C416.692 285.424 416.404 286.379 416.052 287.217C415.7 288.054 415.073 288.826 414.354 289.575C413.634 290.324 412.788 290.837 411.759 291.306C410.942 291.724 409.878 291.98 408.872 292.045ZM412.522 287.8C412.942 287.389 413.299 286.86 413.472 286.287C413.645 285.713 413.818 285.14 413.808 284.522C413.797 283.905 413.694 283.265 413.499 282.603C413.15 281.801 412.771 281.094 412.122 280.63C411.502 280.07 410.887 279.82 410.123 279.738C409.358 279.656 408.628 279.787 407.84 280.109C407.052 280.432 406.39 280.989 405.883 281.687C405.377 282.385 405.054 283.127 405.007 283.936C404.868 284.723 405.005 285.576 405.263 286.356C405.521 287.135 405.991 287.864 406.64 288.328C407.261 288.888 407.875 289.139 408.732 289.243C409.588 289.347 410.318 289.216 411.106 288.893C411.59 288.6 412.102 288.211 412.522 287.8Z" fill="white"/>
<path d="M431.285 271.831L432.967 286.156L430.051 286.68L422.716 278.359L423.795 287.831L420.971 288.377L419.29 274.052L422.114 273.506L429.603 281.966L428.49 272.282L431.285 271.831Z" fill="white"/>
<path d="M437.213 272.147L446.283 272.204L446.086 274.802L439.766 274.698L439.494 278.194L444.545 278.296L444.377 280.799L439.298 280.792L438.963 284.171L445.677 284.268L445.48 286.866L435.925 286.794L437.213 272.147Z" fill="white"/>
<path d="M462.507 275.484L455.772 282.529L454.061 288.848L451.29 288.281L453.001 281.961L450.601 273.015L453.737 273.671L455.113 279.513L459.25 274.901L462.507 275.484Z" fill="white"/>
<path d="M476.934 291.529C477.069 292.377 476.84 293.136 476.372 294.041C476.109 294.588 475.693 294.997 475.305 295.31C474.917 295.624 474.438 295.915 473.896 296.09C473.355 296.264 472.87 296.249 472.204 296.189C471.537 296.13 470.927 295.881 470.347 295.537L465.306 292.791L472.645 279.802L477.133 282.109C478.386 282.819 479.217 283.631 479.626 284.544C480.035 285.458 479.932 286.451 479.343 287.428C479.109 287.881 478.812 288.216 478.544 288.457C478.248 288.793 477.797 288.989 477.347 289.186C476.896 289.382 476.412 289.367 475.836 289.33C476.514 290.002 476.889 290.704 476.934 291.529ZM472.213 293.239C472.577 293.327 472.999 293.225 473.33 293.102C473.661 292.978 473.929 292.737 474.134 292.38C474.397 291.832 474.449 291.336 474.29 290.89C474.04 290.422 473.698 289.933 472.935 289.545L471.01 288.468L469.131 291.781L470.965 292.835C471.392 293.041 471.848 293.151 472.213 293.239ZM472.062 286.279L473.833 287.216C474.169 287.399 474.533 287.487 474.807 287.553C475.08 287.62 475.502 287.518 475.742 287.372C476.072 287.249 476.341 287.008 476.455 286.628C476.632 286.366 476.746 285.986 476.712 285.774C476.707 285.467 476.582 285.234 476.394 284.883C476.178 284.627 475.78 284.327 475.352 284.122L473.763 283.228L472.062 286.279Z" fill="white"/>
<path d="M484.523 301.559L480.465 298.132L477.799 299.832L475.616 297.979L489.136 289.835L491.165 291.548L485.516 306.384L483.333 304.532L484.523 301.559ZM485.57 299.061L487.894 293.305L482.681 296.63L485.57 299.061Z" fill="white"/>
<path d="M489.642 310.498C489.356 309.814 489.19 309.056 489.208 308.343C489.134 307.608 489.273 306.821 489.475 306.152C489.706 305.388 490 304.741 490.535 303.948C491.042 303.25 491.641 302.574 492.423 301.943C493.085 301.385 493.81 300.945 494.506 300.6C495.202 300.256 495.961 300.029 496.662 299.993C497.393 299.862 498.157 299.944 498.801 300.099C499.445 300.255 500.151 300.528 500.892 301.014C501.633 301.5 502.162 302.038 502.724 302.789C503.161 303.304 503.476 303.893 503.671 304.555C503.865 305.217 504.06 305.879 504.105 306.71C504.15 307.541 504.103 308.35 503.872 309.114L501.24 308.684C501.442 308.015 501.46 307.302 501.386 306.566C501.312 305.831 500.997 305.242 500.589 304.631C500.371 304.374 500.153 304.116 499.906 303.954C499.659 303.792 499.412 303.63 499.073 303.445C498.826 303.283 498.458 303.194 498.182 303.128C497.906 303.061 497.51 303.068 497.205 303.097C496.9 303.126 496.596 303.155 496.262 303.279C495.928 303.404 495.595 303.529 495.232 303.749C494.87 303.969 494.508 304.189 494.237 304.431C493.575 304.989 492.977 305.664 492.654 306.407C492.331 307.149 492.192 307.935 492.266 308.671C492.34 309.406 492.598 310.186 493.097 310.819C493.533 311.335 494.09 311.777 494.705 312.027C495.32 312.278 496.056 312.456 496.757 312.42L496.501 315.229C495.403 315.271 494.483 315.049 493.438 314.592C492.392 314.134 491.588 313.53 490.899 312.544C490.308 311.889 489.929 311.182 489.642 310.498Z" fill="white"/>
<path d="M502.799 319.298L500.654 318.883L496.902 320.849L495.697 318.302L508.859 311.325L510.064 313.872L504.286 316.99L512.158 318.377L513.649 321.609L505.651 319.986L500.614 328.821L499.185 325.707L502.799 319.298Z" fill="white"/>
<path d="M369.58 392.034C369.38 391.064 369.456 390.16 369.624 389.279C369.791 388.398 370.172 387.466 370.799 386.696C371.363 385.808 372.174 385.083 373.169 384.402C374.043 383.794 374.951 383.399 375.922 383.122C376.893 382.845 377.777 382.855 378.633 382.959C379.489 383.064 380.379 383.382 381.09 383.964C381.922 384.472 382.576 385.245 383.109 386.091C383.642 386.937 384.026 387.951 384.197 389.017C384.367 390.082 384.234 391.176 384.008 392.248L381.557 391.553C381.898 390.099 381.692 388.82 380.97 387.621C380.626 387.129 380.254 386.731 379.852 386.429C379.45 386.127 378.928 385.898 378.348 385.86C377.797 385.727 377.279 385.806 376.642 385.959C376.004 386.112 375.429 386.383 374.797 386.844C374.043 387.379 373.474 387.958 373.059 388.677C372.645 389.396 372.414 390.159 372.367 390.967C372.32 391.775 372.577 392.554 373.047 393.282C373.58 394.128 374.355 394.828 375.216 395.241L376.964 394.025L375.302 391.37L377.412 389.935L380.455 394.87L375.211 398.517C374.385 398.317 373.644 397.831 372.841 397.227C372.038 396.623 371.384 395.85 370.788 394.886C370.037 393.783 369.716 392.886 369.58 392.034Z" fill="white"/>
<path d="M379.827 405.044C379.541 404.361 379.467 403.628 379.485 402.916C379.503 402.205 379.733 401.443 380.055 400.702C380.376 399.962 381.002 399.193 381.719 398.446L387.848 392.156L389.802 394.162L383.702 400.357C383.162 400.84 382.806 401.367 382.634 401.939C382.37 402.489 382.289 403.083 382.329 403.603C382.368 404.124 382.62 404.594 383.084 405.013C383.674 405.667 384.408 405.844 385.228 405.735C386.048 405.627 386.891 405.115 387.729 404.295L393.709 398.173L395.663 400.179L389.534 406.469C388.667 407.384 387.675 408.064 386.677 408.437C385.679 408.809 384.767 408.896 383.758 408.652C382.841 408.43 381.918 407.901 381.081 407.085C380.583 406.454 380.114 405.727 379.827 405.044Z" fill="white"/>
<path d="M397.448 415.425L393.04 412.527L390.593 414.479L388.235 412.891L400.775 403.406L402.979 404.856L398.92 419.955L396.562 418.366L397.448 415.425ZM398.128 412.842L399.9 406.96L395.127 410.793L398.128 412.842Z" fill="white"/>
<path d="M410.027 424.683L409.23 418.899L407.74 418.335L405.678 422.918L403.153 421.9L409.074 408.393L413.969 410.289C414.759 410.582 415.339 410.926 415.771 411.437C416.231 411.853 416.572 412.342 416.793 412.904C416.923 413.444 417.025 414.078 416.945 414.669C416.865 415.259 416.665 415.922 416.466 416.586C416.147 417.321 415.794 417.846 415.35 418.348C414.906 418.851 414.428 419.141 413.887 419.315C413.347 419.49 412.715 419.642 412.141 419.604L413.125 425.738L410.027 424.683ZM408.726 416.033L410.46 416.758C411.25 417.051 411.916 417.11 412.456 416.936C412.996 416.762 413.441 416.26 413.731 415.619C414.022 414.977 414.011 414.365 413.761 413.898C413.54 413.336 413.079 412.92 412.289 412.627L410.373 411.858L408.726 416.033Z" fill="white"/>
<path d="M426.149 426.005L420.812 425.123L419.217 427.803L416.32 427.307L424.779 413.925L427.402 414.355L429.102 429.578L426.204 429.083L426.149 426.005ZM425.951 423.403L425.389 417.444L422.229 422.708L425.951 423.403Z" fill="white"/>
<path d="M446.264 415.331L445.731 429.812L442.843 429.931L436.9 420.628L436.553 430.251L433.758 430.392L434.291 415.912L437.087 415.77L443.065 425.285L443.377 415.451L446.264 415.331Z" fill="white"/>
<path d="M452.043 417.293L448.155 418.184L447.747 415.643L458.293 413.105L458.702 415.646L454.814 416.538L456.622 428.07L453.88 428.73L452.043 417.293Z" fill="white"/>
<path d="M459.882 413.313L468.474 409.656L469.339 412.014L463.349 414.559L464.443 417.792L469.284 415.788L470.057 418.124L465.216 420.128L466.247 423.243L472.69 420.5L473.555 422.859L464.51 426.713L459.882 413.313Z" fill="white"/>
<path d="M470.499 409.335L478.539 404.301L479.769 406.445L474.148 410.011L475.82 412.98L480.324 410.17L481.554 412.313L477.05 415.124L478.659 417.975L484.643 414.188L485.873 416.332L477.441 421.682L470.499 409.335Z" fill="white"/>
<path d="M429.768 351.528C430.335 353.493 430.275 355.611 429.586 357.882C428.898 360.153 427.725 362.104 426.035 363.523C424.316 365.037 422.38 365.991 420.106 366.457C417.833 366.923 415.432 366.85 412.995 366.261C409.654 365.453 407.023 363.903 405.072 361.704C403.122 359.506 402.066 356.915 401.876 354.026L409.447 352.708C409.612 355.998 411.411 358.058 414.752 358.865C416.377 359.258 417.875 359.113 419.274 358.334C420.673 357.555 421.587 356.456 422.075 354.847C422.534 353.333 422.394 351.877 421.626 350.575C420.858 349.272 419.376 348.406 417.389 347.925L414.59 347.249L416.569 340.72L420 341.549C421.626 341.942 423.033 341.775 424.104 341.119C425.175 340.464 425.999 339.343 426.401 338.019C426.831 336.599 426.752 335.26 426.046 334.074C425.339 332.887 424.309 332.13 422.864 331.781C420.336 331.17 418.096 331.847 416.143 333.812L411.036 328.921C412.599 326.963 414.65 325.631 417.128 324.808C419.697 324.008 422.335 323.935 425.135 324.611C426.85 325.026 428.389 325.703 429.781 326.547C431.172 327.392 432.236 328.36 433.123 329.59C433.919 330.798 434.478 332.152 434.709 333.629C434.91 335.201 434.813 336.803 434.296 338.506C433.694 340.493 432.726 342.087 431.426 343.499C430.126 344.911 428.489 345.836 426.548 346.484L426.491 346.673C428.039 347.961 429.201 349.562 429.768 351.528Z" fill="#5B5863"/>
<path d="M442.688 372.926C441.069 371.518 439.929 369.818 439.114 367.687C438.299 365.555 437.962 363.132 438.013 360.394C438.063 357.656 438.62 354.531 439.598 351.304C440.547 348.171 441.744 345.505 443.276 343.022C444.807 340.539 446.438 338.691 448.284 337.098C450.101 335.601 452.166 334.57 454.389 333.985C456.611 333.399 458.842 333.427 461.202 333.995C463.471 334.541 465.414 335.518 466.942 336.905C468.56 338.313 469.701 340.013 470.516 342.145C471.33 344.276 471.667 346.699 471.617 349.437C471.566 352.175 471.009 355.3 470.031 358.528C468.766 362.704 467.038 366.159 464.909 369.007C462.78 371.856 460.217 373.887 457.43 375.049C454.643 376.212 451.633 376.506 448.547 375.763C446.159 375.29 444.306 374.335 442.688 372.926ZM457.181 366.23C459.142 364.258 460.784 361.088 462.078 356.817C463.343 352.64 463.686 349.26 463.134 346.58C462.582 343.901 461.141 342.23 458.872 341.684C456.603 341.138 454.443 341.84 452.453 343.907C450.492 345.88 448.76 349.028 447.466 353.299C446.632 356.052 446.185 358.491 446.125 360.615C446.066 362.74 446.513 364.477 447.257 365.879C448.03 367.185 449.219 368.082 450.671 368.432C453.06 368.905 455.129 368.181 457.181 366.23Z" fill="#5B5863"/>
<path d="M450.396 303.619L450.391 310.569L456.872 312.104L450.436 314.522L450.49 321.278L446.55 315.987L440.024 318.695L443.955 312.986L439.894 308.082L446.375 309.617L450.396 303.619Z" fill="#FD3E72"/>
<path d="M465.382 316.553L465.309 321.52L469.968 322.624L465.47 324.154L465.548 328.949L462.735 325.064L458.026 326.959L460.811 323.05L457.818 319.745L462.477 320.849L465.382 316.553Z" fill="#FD3E72"/>
<path d="M430.744 307.273L430.67 312.239L435.329 313.343L430.832 314.874L430.91 319.669L428.097 315.783L423.387 317.679L426.173 313.77L423.179 310.464L427.838 311.568L430.744 307.273Z" fill="#FD3E72"/>
<path d="M409.297 384.595L412.967 385.522C413.834 385.74 414.663 385.808 415.452 385.707C416.239 385.613 416.936 385.38 417.562 385.003C418.187 384.627 418.726 384.129 419.184 383.493C419.639 382.865 419.994 382.136 420.233 381.303C420.47 380.478 420.556 379.673 420.486 378.904C420.415 378.135 420.211 377.441 419.864 376.819C419.517 376.197 419.026 375.656 418.398 375.197C417.77 374.738 417.026 374.4 416.175 374.185L412.55 373.27L409.297 384.595ZM412.012 383.135L414.113 375.818L415.643 376.205C416.291 376.368 416.825 376.678 417.255 377.121C417.678 377.561 417.96 378.1 418.086 378.733C418.211 379.365 418.181 380.034 417.98 380.735C417.832 381.248 417.603 381.708 417.31 382.11C417.014 382.519 416.664 382.84 416.268 383.091C415.873 383.342 415.424 383.496 414.934 383.572C414.435 383.647 413.926 383.618 413.406 383.487L412.012 383.135Z" fill="#5B5863"/>
<path d="M427.031 389.071L429.299 389.644L428.475 377.289L426.38 376.761L419.064 387.061L421.333 387.633L422.73 385.557L426.935 386.618L427.031 389.071ZM423.905 383.8L426.644 379.724L426.659 379.728L426.852 384.543L423.905 383.8Z" fill="#5B5863"/>
<path d="M438.717 379.875L435.322 383.45L435.292 383.443L434.248 378.747L431.761 378.119L433.562 385.385L432.133 390.359L434.326 390.913L435.755 385.939L441.227 380.508L438.717 379.875Z" fill="#5B5863"/>
<path d="M442.428 393.1C442.797 393.193 443.17 393.245 443.554 393.259C443.931 393.27 444.316 393.225 444.708 393.124C445.101 393.023 445.465 392.881 445.798 392.681C446.13 392.481 446.427 392.206 446.7 391.849C446.964 391.49 447.172 391.075 447.311 390.592C447.445 390.125 447.486 389.701 447.453 389.309C447.388 388.692 447.065 388.101 446.498 387.54C446.244 387.301 445.717 386.884 444.912 386.28C444.657 386.099 444.45 385.946 444.307 385.827C444.163 385.707 444.015 385.578 443.876 385.442C443.737 385.307 443.635 385.181 443.579 385.067C443.516 384.951 443.477 384.833 443.465 384.704C443.444 384.582 443.459 384.444 443.499 384.304C443.6 383.954 443.809 383.706 444.108 383.564C444.407 383.423 444.753 383.402 445.145 383.5C445.853 383.679 446.545 384.255 447.214 385.217L448.95 383.843C448.089 382.591 446.997 381.806 445.666 381.487C445.014 381.339 444.376 381.336 443.76 381.481C443.137 381.625 442.603 381.907 442.154 382.32C441.694 382.738 441.387 383.245 441.217 383.836C441.132 384.132 441.081 384.42 441.073 384.702C441.065 384.984 441.091 385.232 441.138 385.461C441.185 385.69 441.275 385.913 441.397 386.136C441.519 386.359 441.648 386.558 441.793 386.728C441.93 386.897 442.103 387.082 442.309 387.268C442.514 387.453 442.701 387.617 442.89 387.748C443.069 387.885 443.276 388.038 443.52 388.199C443.783 388.383 443.999 388.529 444.158 388.653C444.316 388.776 444.465 388.905 444.604 389.041C444.743 389.176 444.842 389.31 444.906 389.426C444.967 389.55 445.001 389.684 445.018 389.822C445.026 389.965 445.013 390.121 444.966 390.284C444.897 390.526 444.776 390.72 444.614 390.863C444.442 391.012 444.229 391.108 443.958 391.148C443.686 391.197 443.386 391.171 443.047 391.085C442.821 391.028 442.601 390.948 442.393 390.829C442.175 390.715 441.966 390.57 441.766 390.395C441.564 390.227 441.373 390.02 441.193 389.774C441.01 389.536 440.852 389.271 440.726 388.98L438.945 390.309C439.331 391.049 439.829 391.651 440.43 392.119C441.031 392.588 441.697 392.915 442.428 393.1Z" fill="#5B5863"/>
<path d="M365.379 336.067C367.759 336.64 370.303 335.089 371.06 332.604C371.817 330.119 370.502 327.641 368.122 327.068C365.742 326.496 363.198 328.046 362.441 330.531C361.684 333.016 362.999 335.495 365.379 336.067Z" fill="white"/>
<path d="M508.759 374.485C511.139 375.057 513.682 373.507 514.44 371.022C515.197 368.537 513.882 366.058 511.501 365.486C509.121 364.913 506.578 366.464 505.821 368.949C505.063 371.434 506.379 373.913 508.759 374.485Z" fill="white"/>
<path d="M547.89 57.303C548.901 62.1312 548.459 67.1509 546.617 71.7274C544.776 76.304 541.619 80.2317 537.546 83.014C533.472 85.7962 528.665 87.308 523.732 87.3581C518.799 87.4082 513.963 85.9945 509.833 83.2956C505.704 80.5967 502.468 76.7339 500.534 72.1958C498.6 67.6576 498.056 62.6479 498.969 57.8002C499.882 52.9525 502.213 48.4845 505.666 44.9612C509.118 41.438 513.538 39.0178 518.367 38.0067C524.84 36.651 531.588 37.9223 537.124 41.541C542.661 45.1596 546.533 50.8294 547.89 57.303V57.303ZM541.631 58.6138C540.882 55.023 539.086 51.7345 536.47 49.1641C533.853 46.5936 530.533 44.8565 526.93 44.1722C523.326 43.4879 519.601 43.8872 516.224 45.3196C512.847 46.752 509.971 49.1532 507.958 52.2198C505.946 55.2864 504.887 58.8807 504.917 62.5486C504.947 66.2165 506.063 69.7933 508.125 72.827C510.186 75.8607 513.101 78.2151 516.5 79.5928C519.9 80.9705 523.631 81.3096 527.224 80.5672C529.608 80.0697 531.872 79.107 533.885 77.7342C535.897 76.3614 537.62 74.6054 538.953 72.5666C540.287 70.5278 541.206 68.2461 541.657 65.852C542.108 63.4579 542.083 60.9983 541.584 58.6138H541.631Z" fill="white"/>
<path d="M525.091 40.2827L513.036 42.8057L511.352 34.7607L523.408 32.2377L525.091 40.2827Z" fill="white"/>
<path d="M509.114 45.0008L502.34 55.3472L495.436 50.8266L502.21 40.4803L509.114 45.0008Z" fill="white"/>
<path d="M501.034 61.0745L503.557 73.1304L495.512 74.814L492.989 62.7581L501.034 61.0745Z" fill="white"/>
<path d="M506.434 77.4101L516.743 84.1509L512.244 91.03L501.936 84.2892L506.434 77.4101Z" fill="white"/>
<path d="M521.813 85.127L533.869 82.604L535.553 90.649L523.497 93.172L521.813 85.127Z" fill="white"/>
<path d="M538.165 79.7224L544.906 69.4136L551.785 73.9117L545.045 84.2205L538.165 79.7224Z" fill="white"/>
<path d="M545.878 64.341L543.355 52.2852L551.4 50.6015L553.923 62.6574L545.878 64.341Z" fill="white"/>
<path d="M540.467 48.0049L530.159 41.2642L534.657 34.385L544.966 41.1258L540.467 48.0049Z" fill="white"/>
<path d="M162.282 55.2361C165.248 61.9825 166.146 69.4568 164.864 76.7138C163.581 83.9708 160.175 90.6845 155.077 96.0057C149.979 101.327 143.417 105.017 136.221 106.608C129.026 108.2 121.52 107.622 114.653 104.948C107.786 102.273 101.866 97.6224 97.6423 91.5834C93.4186 85.5444 91.0808 78.3884 90.9243 71.0206C90.7679 63.6528 92.7999 56.4041 96.7634 50.1912C100.727 43.9784 106.444 39.0804 113.191 36.1169C117.67 34.1481 122.492 33.0809 127.384 32.9763C132.275 32.8717 137.139 33.7316 141.697 35.5071C146.256 37.2826 150.42 39.9387 153.952 43.3239C157.484 46.709 160.315 50.7568 162.282 55.2361V55.2361ZM153.543 59.0741C151.334 54.0588 147.688 49.8113 143.064 46.8688C138.441 43.9264 133.049 42.4212 127.57 42.5436C122.092 42.6659 116.772 44.4105 112.285 47.5565C107.798 50.7024 104.344 55.1086 102.362 60.2175C100.379 65.3264 99.9557 70.9086 101.146 76.258C102.336 81.6073 105.086 86.4836 109.048 90.2699C113.01 94.0562 118.005 96.5824 123.403 97.5291C128.801 98.4758 134.358 97.8004 139.372 95.5882C146.092 92.6235 151.359 87.1118 154.017 80.2648C156.674 73.4177 156.504 65.7956 153.543 59.0741V59.0741Z" fill="#CD315B"/>
<path d="M123.775 37.3287L106.932 44.7329L101.994 33.5005L118.837 26.0963L123.775 37.3287Z" fill="#CD315B"/>
<path d="M101.536 50.3013L94.8613 67.4468L83.4273 62.9957L90.1017 45.8503L101.536 50.3013Z" fill="#CD315B"/>
<path d="M94.9902 75.1851L102.394 92.0283L91.162 96.966L83.7578 80.1228L94.9902 75.1851Z" fill="#CD315B"/>
<path d="M107.965 97.411L125.111 104.085L120.66 115.519L103.514 108.845L107.965 97.411Z" fill="#CD315B"/>
<path d="M132.844 103.954L149.687 96.5498L154.624 107.782L137.781 115.186L132.844 103.954Z" fill="#CD315B"/>
<path d="M156.368 89.7881L162.992 72.6772L174.402 77.0944L167.779 94.2052L156.368 89.7881Z" fill="#CD315B"/>
<path d="M161.636 66.1088L154.232 49.2656L165.464 44.3279L172.869 61.1711L161.636 66.1088Z" fill="#CD315B"/>
<path d="M148.66 43.8697L131.515 37.1953L135.966 25.7613L153.111 32.4357L148.66 43.8697Z" fill="#CD315B"/>
<path d="M634.975 95.101C634.018 98.9577 631.937 102.444 628.997 105.117C626.057 107.79 622.389 109.531 618.459 110.118C614.529 110.706 610.513 110.114 606.919 108.417C603.326 106.72 600.317 103.995 598.273 100.587C596.23 97.179 595.244 93.2411 595.44 89.2721C595.636 85.3031 597.006 81.4816 599.375 78.2916C601.745 75.1017 605.008 72.6867 608.751 71.3526C612.495 70.0185 616.55 69.8254 620.403 70.7976C625.553 72.097 629.978 75.3841 632.709 79.9393C635.44 84.4944 636.255 89.9463 634.975 95.101V95.101ZM629.992 93.8492C630.704 90.9922 630.554 87.988 629.56 85.2164C628.565 82.4448 626.772 80.0302 624.405 78.2778C622.039 76.5255 619.206 75.514 616.265 75.3712C613.324 75.2285 610.406 75.9609 607.881 77.4759C605.357 78.9908 603.337 81.2204 602.079 83.8826C600.821 86.5449 600.381 89.5204 600.813 92.433C601.246 95.3457 602.532 98.0647 604.51 100.246C606.487 102.428 609.067 103.974 611.924 104.69C613.822 105.167 615.796 105.265 617.732 104.979C619.668 104.692 621.529 104.026 623.207 103.019C624.886 102.012 626.349 100.683 627.513 99.1099C628.677 97.5364 629.52 95.7487 629.992 93.8492V93.8492Z" fill="#CD315B"/>
<path d="M624.504 74.8051L614.904 72.4043L616.505 66.0001L626.106 68.4009L624.504 74.8051Z" fill="#CD315B"/>
<path d="M610.797 72.9896L602.311 78.0806L598.915 72.4197L607.401 67.3288L610.797 72.9896Z" fill="#CD315B"/>
<path d="M599.805 81.4161L597.404 91.0166L591 89.4151L593.401 79.8146L599.805 81.4161Z" fill="#CD315B"/>
<path d="M598.001 95.1319L603.092 103.618L597.431 107.014L592.34 98.528L598.001 95.1319Z" fill="#CD315B"/>
<path d="M606.416 106.106L616.016 108.507L614.415 114.911L604.814 112.51L606.416 106.106Z" fill="#CD315B"/>
<path d="M620.135 107.924L628.622 102.833L632.018 108.494L623.531 113.585L620.135 107.924Z" fill="#CD315B"/>
<path d="M631.107 99.5093L633.509 89.9092L639.913 91.5118L637.511 101.112L631.107 99.5093Z" fill="#CD315B"/>
<path d="M632.925 85.7826L627.834 77.2964L633.494 73.9004L638.585 82.3866L632.925 85.7826Z" fill="#CD315B"/>
<path d="M75.0593 165.96C75.0593 169.401 74.0391 172.764 72.1277 175.625C70.2163 178.485 67.4995 180.715 64.321 182.031C61.1425 183.348 57.645 183.692 54.2707 183.021C50.8964 182.35 47.7968 180.693 45.3641 178.261C42.9314 175.828 41.2747 172.728 40.6035 169.354C39.9323 165.98 40.2768 162.482 41.5933 159.304C42.9099 156.125 45.1395 153.408 48.0001 151.497C50.8607 149.586 54.2239 148.565 57.6643 148.565C59.9491 148.564 62.2117 149.013 64.3229 149.886C66.4341 150.76 68.3523 152.041 69.9679 153.657C71.5835 155.272 72.8647 157.191 73.7383 159.302C74.6119 161.413 75.0608 163.676 75.0593 165.96V165.96ZM70.6072 165.96C70.6072 163.391 69.8453 160.88 68.4179 158.744C66.9906 156.607 64.9618 154.942 62.5881 153.959C60.2145 152.976 57.6026 152.719 55.0828 153.22C52.563 153.721 50.2483 154.958 48.4316 156.775C46.6149 158.592 45.3777 160.906 44.8765 163.426C44.3753 165.946 44.6325 168.558 45.6157 170.932C46.5989 173.305 48.2638 175.334 50.4 176.761C52.5363 178.189 55.0478 178.951 57.6171 178.951C61.0623 178.951 64.3663 177.582 66.8024 175.146C69.2386 172.71 70.6072 169.406 70.6072 165.96Z" fill="white"/>
<path d="M61.9626 151.081H53.3654V145.353H61.9626V151.081Z" fill="white"/>
<path d="M50.0222 152.441L43.9431 158.52L39.8932 154.47L45.9723 148.391L50.0222 152.441Z" fill="white"/>
<path d="M42.5595 161.84V170.437H36.832V161.84H42.5595Z" fill="white"/>
<path d="M43.9076 173.772L49.9867 179.851L45.9368 183.901L39.8577 177.822L43.9076 173.772Z" fill="white"/>
<path d="M53.3179 181.252H61.915V186.98H53.3179V181.252Z" fill="white"/>
<path d="M65.2441 179.891L71.3232 173.812L75.3731 177.862L69.294 183.941L65.2441 179.891Z" fill="white"/>
<path d="M72.7315 170.495V161.898H78.459V170.495H72.7315Z" fill="white"/>
<path d="M71.3773 158.558L65.2982 152.479L69.3481 148.429L75.4272 154.508L71.3773 158.558Z" fill="white"/>
<path d="M665.237 213.619C665.235 217.059 664.212 220.421 662.3 223.28C660.387 226.139 657.669 228.367 654.491 229.682C651.312 230.996 647.815 231.339 644.441 230.667C641.068 229.994 637.969 228.337 635.538 225.903C633.106 223.47 631.451 220.371 630.78 216.997C630.11 213.623 630.455 210.126 631.772 206.948C633.089 203.77 635.319 201.054 638.179 199.143C641.039 197.232 644.402 196.212 647.842 196.212C650.127 196.212 652.39 196.663 654.501 197.538C656.613 198.413 658.531 199.695 660.146 201.311C661.762 202.928 663.043 204.847 663.916 206.959C664.79 209.071 665.238 211.334 665.237 213.619V213.619ZM660.785 213.619C660.797 211.048 660.045 208.53 658.624 206.386C657.204 204.242 655.179 202.568 652.807 201.576C650.434 200.584 647.821 200.318 645.297 200.812C642.773 201.307 640.453 202.54 638.63 204.354C636.808 206.168 635.565 208.483 635.059 211.004C634.553 213.526 634.806 216.14 635.788 218.518C636.769 220.895 638.434 222.927 640.572 224.357C642.709 225.787 645.223 226.55 647.795 226.55C651.23 226.55 654.525 225.19 656.959 222.767C659.394 220.343 660.769 217.054 660.785 213.619V213.619Z" fill="#FFB1C7"/>
<path d="M652.14 198.728H643.543V193H652.14V198.728Z" fill="#FFB1C7"/>
<path d="M640.207 200.077L634.128 206.156L630.078 202.106L636.157 196.027L640.207 200.077Z" fill="#FFB1C7"/>
<path d="M632.728 209.499V218.096H627V209.499H632.728Z" fill="#FFB1C7"/>
<path d="M634.082 221.423L640.161 227.502L636.111 231.552L630.032 225.473L634.082 221.423Z" fill="#FFB1C7"/>
<path d="M643.497 228.901H652.094V234.629H643.497V228.901Z" fill="#FFB1C7"/>
<path d="M655.424 227.556L661.504 221.477L665.553 225.527L659.474 231.606L655.424 227.556Z" fill="#FFB1C7"/>
<path d="M662.899 218.143V209.546H668.627V218.143H662.899Z" fill="#FFB1C7"/>
<path d="M661.549 206.204L655.47 200.125L659.52 196.075L665.599 202.154L661.549 206.204Z" fill="#FFB1C7"/>
<path d="M238.427 81.1684C237.404 84.8158 235.322 88.0777 232.445 90.542C229.568 93.0062 226.025 94.5619 222.263 95.0125C218.502 95.4632 214.692 94.7884 211.314 93.0735C207.936 91.3587 205.143 88.6807 203.287 85.3784C201.431 82.076 200.596 78.2974 200.887 74.5205C201.178 70.7435 202.583 67.1378 204.924 64.1592C207.264 61.1806 210.435 58.9629 214.036 57.7864C217.637 56.61 221.506 56.5277 225.154 57.5499C227.576 58.2289 229.841 59.3784 231.82 60.9328C233.798 62.4873 235.45 64.4163 236.683 66.6095C237.916 68.8028 238.704 71.2174 239.003 73.7155C239.303 76.2135 239.107 78.7461 238.427 81.1684V81.1684ZM233.704 79.8458C234.452 77.1322 234.379 74.2579 233.495 71.5856C232.61 68.9133 230.954 66.5631 228.735 64.8316C226.515 63.1001 223.833 62.0651 221.026 61.8572C218.219 61.6493 215.413 62.2779 212.963 63.6636C210.513 65.0493 208.528 67.13 207.26 69.6428C205.991 72.1556 205.496 74.9879 205.836 77.7821C206.177 80.5762 207.337 83.2069 209.172 85.3418C211.006 87.4768 213.432 89.0203 216.143 89.7774C217.948 90.2799 219.835 90.4215 221.695 90.1942C223.555 89.9669 225.352 89.3751 226.983 88.4526C228.614 87.5302 230.047 86.2952 231.2 84.8184C232.353 83.3415 233.204 81.6518 233.704 79.8458V79.8458Z" fill="#FFBBCE"/>
<path d="M227.633 61.7967L218.552 59.2427L220.255 53.1888L229.336 55.7428L227.633 61.7967Z" fill="#FFBBCE"/>
<path d="M215.935 59.4281L207.69 64.0645L204.599 58.5678L212.844 53.9314L215.935 59.4281Z" fill="#FFBBCE"/>
<path d="M205.228 67.1629L202.676 76.2715L196.604 74.5703L199.155 65.4618L205.228 67.1629Z" fill="#FFBBCE"/>
<path d="M203.121 80.1832L207.758 88.4282L202.261 91.5191L197.625 83.2741L203.121 80.1832Z" fill="#FFBBCE"/>
<path d="M210.842 90.8877L219.951 93.4395L218.25 99.5118L209.141 96.9601L210.842 90.8877Z" fill="#FFBBCE"/>
<path d="M223.877 92.9987L232.122 88.3623L235.213 93.859L226.968 98.4954L223.877 92.9987Z" fill="#FFBBCE"/>
<path d="M234.588 85.2589L237.14 76.1504L243.212 77.8515L240.661 86.9601L234.588 85.2589Z" fill="#FFBBCE"/>
<path d="M236.692 72.2421L232.056 63.9971L237.552 60.9062L242.189 69.1512L236.692 72.2421Z" fill="#FFBBCE"/>
<path d="M409.579 279.211C410.075 278.76 410.663 278.421 411.303 278.219C411.954 278.053 412.636 278.053 413.287 278.219C412.991 278.006 412.653 277.861 412.295 277.794C411.925 277.731 411.546 277.751 411.185 277.853C410.837 277.953 410.514 278.126 410.237 278.36C409.96 278.594 409.736 278.884 409.579 279.211Z" fill="white"/>
<path d="M410.796 276.553C411.293 276.106 411.882 275.771 412.521 275.573C413.171 275.407 413.854 275.407 414.505 275.573C414.209 275.36 413.87 275.215 413.513 275.148C413.147 275.081 412.771 275.101 412.414 275.207C412.066 275.307 411.742 275.478 411.464 275.71C411.185 275.942 410.958 276.229 410.796 276.553V276.553Z" fill="white"/>
<path d="M412.402 273.909C412.896 273.454 413.485 273.115 414.127 272.917C414.778 272.751 415.46 272.751 416.111 272.917C415.815 272.697 415.472 272.55 415.109 272.486C414.746 272.423 414.373 272.445 414.02 272.551C413.671 272.651 413.346 272.824 413.067 273.058C412.788 273.292 412.562 273.582 412.402 273.909Z" fill="white"/>
<defs>
<filter id="filter0_d" x="319.703" y="233.703" width="236.64" height="236.64" filterUnits="userSpaceOnUse" color-interpolation-filters="sRGB">
<feFlood flood-opacity="0" result="BackgroundImageFix"/>
<feColorMatrix in="SourceAlpha" type="matrix" values="0 0 0 0 0 0 0 0 0 0 0 0 0 0 0 0 0 0 127 0" result="hardAlpha"/>
<feOffset/>
<feGaussianBlur stdDeviation="2"/>
<feColorMatrix type="matrix" values="0 0 0 0 0 0 0 0 0 0 0 0 0 0 0 0 0 0 0.15 0"/>
<feBlend mode="normal" in2="BackgroundImageFix" result="effect1_dropShadow"/>
<feBlend mode="normal" in="SourceGraphic" in2="effect1_dropShadow" result="shape"/>
</filter>
<linearGradient id="paint0_linear" x1="373.048" y1="280.874" x2="544.96" y2="512.209" gradientUnits="userSpaceOnUse">
<stop stop-color="#FE7E56"/>
<stop offset="0.520833" stop-color="#FD3E72"/>
<stop offset="1" stop-color="#49A8FF"/>
</linearGradient>
</defs>
</svg>
