<svg width="242" height="260" viewBox="0 0 242 260" fill="none" xmlns="http://www.w3.org/2000/svg">
<circle cx="118" cy="111" r="111" fill="#FFF6F9"/>
<circle cx="118" cy="111" r="84" fill="#FFEAEF"/>
<g filter="url(#filter0_d)">
<path d="M232.873 15H18.4524V157.612H232.873V15Z" fill="#FAFAFA"/>
</g>
<path d="M226.375 21.3774H11.9545V163.989H226.375V21.3774Z" fill="url(#paint0_linear)"/>
<path d="M236.667 246.144C236.667 246.226 183.66 246.293 118.339 246.293C53.0185 246.293 0 246.226 0 246.144C0 246.061 52.9743 246 118.339 246C183.704 246 236.667 246.066 236.667 246.144Z" fill="#263238"/>
<path d="M219.047 28.7754H4.62671V170.366H219.047V28.7754Z" fill="#FAFAFA"/>
<path d="M219.047 170.367C219.047 169.434 219.003 115.151 218.931 28.7761L219.047 28.8921H4.64345L4.78701 28.7485C4.78701 79.1332 4.78701 127.066 4.78701 170.339L4.65449 170.207L219.075 170.339L4.65449 170.472H4.52197V170.339C4.52197 127.066 4.52197 79.1332 4.52197 28.7485V28.605H4.6821H219.086H219.202V28.7209C219.092 115.129 219.047 169.434 219.047 170.367Z" fill="#263238"/>
<path d="M22.9628 43.3142L23.2444 42.6903C23.6562 42.9971 24.1555 43.1635 24.669 43.1651C25.3426 43.1651 25.6298 42.9222 25.6298 42.613C25.6298 41.6798 23.0567 42.2927 23.0567 40.6859C23.0567 39.9847 23.6089 39.3939 24.8015 39.3939C25.3078 39.3863 25.8063 39.5181 26.2427 39.7748L25.9887 40.3988C25.6268 40.1855 25.216 40.0695 24.796 40.062C24.1279 40.062 23.8573 40.3215 23.8573 40.6473C23.8573 41.5694 26.4194 40.9675 26.4194 42.5577C26.4194 43.2479 25.8672 43.8443 24.669 43.8443C24.0575 43.8595 23.458 43.6732 22.9628 43.3142Z" fill="#263238"/>
<path d="M30.2409 42.3645H27.6457C27.695 42.6057 27.8316 42.8202 28.0292 42.9669C28.2269 43.1136 28.4718 43.1823 28.7169 43.1596C28.8829 43.1667 29.0486 43.1384 29.2028 43.0765C29.357 43.0146 29.4963 42.9206 29.6114 42.8007L30.0255 43.2755C29.8602 43.4611 29.6553 43.6071 29.4259 43.7026C29.1965 43.7982 28.9485 43.841 28.7003 43.8277C28.4656 43.8522 28.2283 43.8262 28.0044 43.7515C27.7805 43.6769 27.5751 43.5552 27.402 43.3947C27.229 43.2342 27.0922 43.0385 27.0009 42.8208C26.9096 42.6032 26.8659 42.3685 26.8727 42.1326C26.8666 41.9071 26.9066 41.6828 26.9902 41.4733C27.0739 41.2638 27.1994 41.0737 27.3592 40.9144C27.5189 40.7552 27.7095 40.6303 27.9192 40.5473C28.129 40.4643 28.3534 40.4251 28.5789 40.4319C28.8024 40.4254 29.0249 40.4655 29.2321 40.5496C29.4394 40.6337 29.6268 40.76 29.7826 40.9204C29.9384 41.0809 30.0591 41.272 30.137 41.4816C30.215 41.6913 30.2485 41.9148 30.2353 42.1381C30.2519 42.1988 30.2464 42.2927 30.2409 42.3645ZM27.6402 41.8565H29.512C29.4896 41.6281 29.3803 41.417 29.2066 41.2669C29.0329 41.1169 28.8081 41.0393 28.5789 41.0503C28.35 41.0432 28.1267 41.1219 27.953 41.2711C27.7793 41.4203 27.6677 41.6291 27.6402 41.8565Z" fill="#263238"/>
<path d="M32.9802 43.5899C32.7631 43.7448 32.5013 43.8243 32.2347 43.8163C32.0837 43.8352 31.9304 43.8199 31.7861 43.7716C31.6418 43.7233 31.5102 43.6431 31.401 43.5371C31.2918 43.4311 31.2078 43.3019 31.1553 43.1591C31.1027 43.0163 31.0829 42.8635 31.0973 42.712V41.1107H30.5396V40.4923H31.0918V39.7358H31.8648V40.4923H32.7483V41.1107H31.8703V42.6844C31.8703 43.0046 32.0304 43.1758 32.3286 43.1758C32.4843 43.1786 32.637 43.1323 32.7648 43.0433L32.9802 43.5899Z" fill="#263238"/>
<path d="M36.8124 40.4707V43.7837H36.0615V43.364C35.929 43.5151 35.7647 43.635 35.5805 43.7151C35.3963 43.7953 35.1966 43.8338 34.9958 43.8278C34.8011 43.8458 34.6048 43.8199 34.4215 43.7521C34.2381 43.6842 34.0722 43.5762 33.9361 43.4358C33.8 43.2954 33.697 43.1264 33.6349 42.941C33.5727 42.7556 33.5528 42.5587 33.5767 42.3646V40.4707H34.3498V42.2487C34.3498 42.8505 34.6314 43.1321 35.1228 43.1321C35.2509 43.1384 35.3788 43.1162 35.4973 43.0671C35.6158 43.018 35.7219 42.9432 35.808 42.8482C35.8941 42.7531 35.958 42.6401 35.9952 42.5173C36.0323 42.3946 36.0417 42.2651 36.0228 42.1382V40.4817L36.8124 40.4707Z" fill="#263238"/>
<path d="M41.3332 42.1214C41.3456 42.344 41.3115 42.5667 41.2332 42.7754C41.1548 42.9841 41.0339 43.1742 40.8781 43.3336C40.7223 43.493 40.535 43.6183 40.3282 43.7014C40.1214 43.7846 39.8995 43.8238 39.6767 43.8165C39.4781 43.8237 39.2803 43.7874 39.0972 43.7102C38.9141 43.6329 38.75 43.5166 38.6166 43.3693V44.9705H37.8436V40.4704H38.5835V40.9011C38.7193 40.7435 38.8895 40.6193 39.081 40.5379C39.2725 40.4565 39.4801 40.4202 39.6878 40.4318C39.9092 40.4262 40.1293 40.4664 40.3344 40.5499C40.5396 40.6334 40.7252 40.7584 40.8797 40.917C41.0342 41.0757 41.1543 41.2646 41.2323 41.4718C41.3104 41.6791 41.3447 41.9002 41.3332 42.1214ZM40.5492 42.1214C40.5394 41.9292 40.4735 41.7441 40.3595 41.589C40.2455 41.4339 40.0885 41.3157 39.908 41.2491C39.7274 41.1824 39.5313 41.1702 39.3439 41.214C39.1565 41.2578 38.9861 41.3557 38.8538 41.4955C38.7215 41.6352 38.6331 41.8108 38.5997 42.0003C38.5662 42.1898 38.5892 42.385 38.6656 42.5616C38.7421 42.7382 38.8687 42.8885 39.0298 42.9938C39.1909 43.0991 39.3794 43.1548 39.5718 43.1539C39.7059 43.1575 39.8392 43.1328 39.9631 43.0814C40.087 43.03 40.1986 42.9531 40.2908 42.8557C40.383 42.7583 40.4537 42.6426 40.4982 42.516C40.5427 42.3895 40.5601 42.2551 40.5492 42.1214Z" fill="#263238"/>
<path d="M49.9206 39.4434L48.4629 43.7723H47.977L46.7125 40.0783L45.4481 43.7723H44.9732L43.5155 39.4434H43.9848L45.2217 43.1925L46.5137 39.471H46.9389L48.2089 43.1925L49.4788 39.4544L49.9206 39.4434Z" fill="#263238"/>
<path d="M50.5495 39.4931C50.5495 39.4082 50.5832 39.3267 50.6433 39.2667C50.7034 39.2066 50.7848 39.1729 50.8698 39.1729C50.9547 39.1729 51.0361 39.2066 51.0962 39.2667C51.1563 39.3267 51.19 39.4082 51.19 39.4931C51.19 39.578 51.1563 39.6595 51.0962 39.7196C51.0361 39.7796 50.9547 39.8134 50.8698 39.8134C50.7848 39.8134 50.7034 39.7796 50.6433 39.7196C50.5832 39.6595 50.5495 39.578 50.5495 39.4931ZM50.6434 40.5201H51.0851V43.7724H50.6434V40.5201Z" fill="#263238"/>
<path d="M54.6019 43.4078V43.7722H51.9571V43.4796L54.0056 40.89H51.9957V40.52H54.5688V40.8071L52.5203 43.4078H54.6019Z" fill="#263238"/>
<path d="M57.9256 41.7575V43.7729H57.506V43.2649C57.3868 43.446 57.222 43.5924 57.0281 43.6894C56.8341 43.7864 56.6181 43.8304 56.4017 43.8171C55.6673 43.8171 55.2145 43.4361 55.2145 42.8729C55.2145 42.3097 55.5348 41.9508 56.4679 41.9508H57.5005V41.752C57.5005 41.1998 57.1857 40.8961 56.5839 40.8961C56.1817 40.8848 55.7892 41.0202 55.4796 41.2771L55.2808 40.9514C55.655 40.6534 56.1223 40.4969 56.6005 40.5096C56.7739 40.4828 56.9512 40.4959 57.1188 40.548C57.2865 40.6 57.44 40.6896 57.5678 40.81C57.6956 40.9303 57.7942 41.0782 57.8562 41.2424C57.9182 41.4066 57.942 41.5827 57.9256 41.7575ZM57.4839 42.7956V42.2434H56.49C55.855 42.2434 55.6507 42.4919 55.6507 42.8287C55.6507 43.1655 55.9544 43.4416 56.4735 43.4416C56.688 43.4517 56.9004 43.395 57.0814 43.2793C57.2624 43.1636 57.403 42.9946 57.4839 42.7956Z" fill="#263238"/>
<path d="M60.7595 40.4928V40.918H60.6546C60.4985 40.909 60.3423 40.9348 60.1975 40.9936C60.0526 41.0524 59.9226 41.1427 59.8169 41.2579C59.7112 41.3731 59.6324 41.5104 59.5863 41.6598C59.5402 41.8092 59.5279 41.9669 59.5502 42.1217V43.7782H59.1085V40.5204H59.5282V41.1554C59.642 40.9331 59.8207 40.7507 60.0406 40.6324C60.2606 40.514 60.5113 40.4654 60.7595 40.4928Z" fill="#263238"/>
<path d="M64.4915 39.1841V43.7725H64.0663V43.1265C63.9365 43.3404 63.7518 43.5156 63.5314 43.6341C63.311 43.7525 63.0629 43.8099 62.8129 43.8001C62.3736 43.8001 61.9523 43.6256 61.6416 43.315C61.331 43.0043 61.1564 42.583 61.1564 42.1437C61.1564 41.7043 61.331 41.283 61.6416 40.9724C61.9523 40.6617 62.3736 40.4872 62.8129 40.4872C63.0574 40.4787 63.2998 40.5337 63.5166 40.6469C63.7334 40.7602 63.9171 40.9277 64.0498 41.1332V39.1841H64.4915ZM64.0553 42.1437C64.0434 41.9072 63.9623 41.6795 63.8222 41.4886C63.6821 41.2978 63.489 41.1523 63.267 41.0702C63.0449 40.9881 62.8036 40.973 62.5731 41.0267C62.3425 41.0805 62.1328 41.2007 61.9699 41.3726C61.8071 41.5444 61.6982 41.7602 61.6569 41.9933C61.6156 42.2265 61.6436 42.4666 61.7375 42.6839C61.8314 42.9012 61.987 43.0863 62.185 43.216C62.3831 43.3457 62.6148 43.4144 62.8516 43.4136C63.0161 43.4163 63.1793 43.3848 63.331 43.3211C63.4827 43.2573 63.6195 43.1627 63.7327 43.0433C63.8458 42.9239 63.933 42.7823 63.9885 42.6274C64.044 42.4725 64.0668 42.3078 64.0553 42.1437Z" fill="#263238"/>
<path d="M25.1945 92.2348L25.3711 91.8814C25.7643 92.2378 26.2762 92.4347 26.8068 92.4336C27.6184 92.4336 27.9718 92.0913 27.9718 91.6661C27.9718 90.4734 25.2994 91.2023 25.2994 89.601C25.2994 88.9605 25.7963 88.4084 26.8951 88.4084C27.3723 88.403 27.8406 88.5374 28.2424 88.7949L28.0878 89.1593C27.7329 88.9277 27.3189 88.8031 26.8951 88.8004C26.1055 88.8004 25.7521 89.1538 25.7521 89.5845C25.7521 90.7771 28.4246 90.0593 28.4246 91.6385C28.4246 92.279 27.9166 92.8256 26.8068 92.8256C26.2139 92.84 25.6377 92.6289 25.1945 92.2348Z" fill="#FD3E72"/>
<path d="M31.0464 92.5668C30.8502 92.7212 30.6058 92.8014 30.3562 92.7932C30.2282 92.8079 30.0984 92.7937 29.9766 92.7517C29.8548 92.7096 29.7439 92.6407 29.6523 92.5501C29.5606 92.4595 29.4904 92.3494 29.4469 92.2281C29.4034 92.1068 29.3877 91.9772 29.401 91.849V89.8778H28.8488V89.5023H29.401V88.79H29.8427V89.5023H30.8366V89.8778H29.8427V91.8214C29.8366 91.8975 29.8463 91.9741 29.8713 92.0463C29.8963 92.1185 29.936 92.1847 29.9879 92.2407C30.0398 92.2968 30.1028 92.3414 30.1728 92.3719C30.2429 92.4024 30.3185 92.418 30.3949 92.4177C30.5714 92.4223 30.7438 92.3635 30.8808 92.2521L31.0464 92.5668Z" fill="#FD3E72"/>
<path d="M34.5697 91.2692H31.842C31.8504 91.4283 31.8904 91.5842 31.9595 91.7278C32.0287 91.8714 32.1256 91.9998 32.2448 92.1056C32.364 92.2114 32.503 92.2925 32.6537 92.3442C32.8045 92.3959 32.964 92.4171 33.123 92.4066C33.311 92.4126 33.498 92.3771 33.6707 92.3027C33.8435 92.2283 33.9977 92.1167 34.1224 91.976L34.3709 92.2631C34.1375 92.5055 33.8383 92.6745 33.5102 92.7493C33.182 92.8241 32.8392 92.8015 32.5237 92.6843C32.2083 92.567 31.9339 92.3602 31.7343 92.0892C31.5348 91.8182 31.4187 91.4948 31.4003 91.1587C31.3881 90.9432 31.4205 90.7274 31.4956 90.5249C31.5707 90.3225 31.6867 90.1377 31.8366 89.9822C31.9864 89.8267 32.1667 89.7038 32.3662 89.6212C32.5657 89.5386 32.7801 89.4981 32.996 89.5023C33.2112 89.4979 33.425 89.5384 33.6237 89.6212C33.8224 89.7039 34.0017 89.8271 34.1502 89.9829C34.2987 90.1387 34.4132 90.3237 34.4864 90.5261C34.5596 90.7286 34.5898 90.944 34.5752 91.1587C34.5752 91.1698 34.5697 91.2305 34.5697 91.2692ZM31.842 90.9434H34.1556C34.1353 90.6504 34.0046 90.376 33.7899 90.1757C33.5752 89.9753 33.2925 89.8638 32.9988 89.8638C32.7051 89.8638 32.4223 89.9753 32.2076 90.1757C31.9929 90.376 31.8623 90.6504 31.842 90.9434Z" fill="#FD3E72"/>
<path d="M38.7774 91.137C38.789 91.3548 38.7553 91.5726 38.6782 91.7766C38.6012 91.9806 38.4826 92.1664 38.3299 92.3221C38.1773 92.4779 37.994 92.6002 37.7915 92.6814C37.5891 92.7625 37.3721 92.8007 37.1541 92.7935C36.9103 92.8021 36.6683 92.7476 36.4517 92.6354C36.235 92.5232 36.051 92.3571 35.9173 92.153V93.9917H35.4755V89.5247H35.8952V90.1266C36.0279 89.9145 36.2141 89.741 36.4351 89.6237C36.6561 89.5065 36.9041 89.4494 37.1541 89.4584C37.374 89.451 37.5931 89.4898 37.7971 89.5722C38.0011 89.6547 38.1856 89.779 38.3385 89.9372C38.4915 90.0954 38.6096 90.2839 38.6852 90.4906C38.7608 90.6972 38.7922 90.9175 38.7774 91.137ZM38.3412 91.137C38.3315 90.8978 38.2516 90.6667 38.1115 90.4726C37.9713 90.2784 37.7772 90.1298 37.5532 90.0452C37.3293 89.9606 37.0853 89.9437 36.8519 89.9967C36.6184 90.0497 36.4056 90.1702 36.2402 90.3432C36.0747 90.5162 35.9637 90.7341 35.9211 90.9697C35.8786 91.2053 35.9063 91.4483 36.0007 91.6683C36.0952 91.8883 36.2523 92.0756 36.4525 92.2069C36.6527 92.3383 36.8871 92.4079 37.1265 92.407C37.2912 92.4087 37.4546 92.3767 37.6064 92.3127C37.7582 92.2488 37.8953 92.1544 38.0092 92.0354C38.1231 91.9163 38.2113 91.7752 38.2684 91.6206C38.3255 91.4661 38.3503 91.3015 38.3412 91.137Z" fill="#FD3E72"/>
<path d="M43.8859 91.5177C43.8859 92.2466 43.3337 92.8043 42.3122 92.8043C41.7403 92.8243 41.182 92.6271 40.7496 92.2521L40.965 91.8987C41.3324 92.2333 41.8156 92.4115 42.3122 92.3957C43.0301 92.3957 43.4166 92.0644 43.4166 91.5233C43.4166 90.9821 43.0466 90.6619 42.2405 90.6619H41.9313V90.3361L43.135 88.8287H40.9263V88.4312H43.7203V88.7459L42.4889 90.2919C43.4221 90.3361 43.8859 90.822 43.8859 91.5177Z" fill="#FD3E72"/>
<path d="M178.187 147.485H155.753C155.207 147.485 154.765 147.927 154.765 148.473V160.008C154.765 160.554 155.207 160.996 155.753 160.996H178.187C178.733 160.996 179.176 160.554 179.176 160.008V148.473C179.176 147.927 178.733 147.485 178.187 147.485Z" fill="#5B5863"/>
<path d="M165.631 154.801C165.631 155.425 165.167 155.784 164.245 155.784H162.556V152.101H164.162C164.985 152.101 165.46 152.449 165.46 153.051C165.467 153.23 165.417 153.407 165.318 153.557C165.219 153.706 165.076 153.821 164.908 153.885C165.12 153.922 165.311 154.036 165.444 154.205C165.577 154.374 165.644 154.586 165.631 154.801ZM162.942 152.421V153.758H164.118C164.704 153.758 165.046 153.531 165.046 153.089C165.046 152.648 164.704 152.421 164.118 152.421H162.942ZM165.239 154.768C165.239 154.288 164.891 154.078 164.245 154.078H162.942V155.464H164.245C164.891 155.464 165.267 155.282 165.267 154.768H165.239Z" fill="white"/>
<path d="M168.524 154.066V155.783H168.171V155.353C168.066 155.507 167.923 155.63 167.755 155.711C167.587 155.791 167.401 155.826 167.216 155.811C166.592 155.811 166.205 155.48 166.205 155.005C166.205 154.53 166.481 154.221 167.276 154.221H168.154V154.05C168.154 153.58 167.884 153.321 167.37 153.321C167.034 153.317 166.707 153.432 166.448 153.647L166.283 153.37C166.596 153.122 166.986 152.989 167.387 152.995C167.536 152.97 167.689 152.981 167.833 153.025C167.978 153.069 168.111 153.146 168.221 153.249C168.331 153.353 168.415 153.481 168.468 153.622C168.521 153.764 168.54 153.916 168.524 154.066ZM168.154 154.95V154.497H167.287C166.735 154.497 166.575 154.712 166.575 154.994C166.575 155.275 166.835 155.513 167.276 155.513C167.464 155.524 167.65 155.476 167.807 155.375C167.965 155.273 168.087 155.125 168.154 154.95Z" fill="white"/>
<path d="M169.269 154.398C169.263 154.21 169.297 154.023 169.366 153.849C169.436 153.675 169.542 153.517 169.675 153.386C169.809 153.254 169.968 153.151 170.144 153.084C170.319 153.017 170.506 152.987 170.693 152.995C170.91 152.978 171.128 153.02 171.323 153.117C171.517 153.214 171.682 153.363 171.798 153.547L171.522 153.735C171.432 153.605 171.311 153.499 171.171 153.428C171.03 153.357 170.873 153.322 170.715 153.326C170.471 153.382 170.254 153.519 170.098 153.714C169.942 153.91 169.857 154.153 169.857 154.403C169.857 154.653 169.942 154.896 170.098 155.092C170.254 155.287 170.471 155.424 170.715 155.48C170.873 155.487 171.03 155.453 171.171 155.383C171.312 155.312 171.433 155.207 171.522 155.077L171.798 155.27C171.679 155.452 171.515 155.599 171.321 155.696C171.126 155.793 170.91 155.837 170.693 155.822C170.504 155.83 170.315 155.798 170.139 155.73C169.963 155.661 169.803 155.556 169.669 155.422C169.535 155.288 169.43 155.128 169.361 154.952C169.293 154.775 169.261 154.587 169.269 154.398Z" fill="white"/>
<path d="M173.493 154.392L172.841 154.994V155.784H172.444V151.88H172.819V154.525L174.476 153.017H174.934L173.769 154.177L175.061 155.833H174.608L173.493 154.392Z" fill="white"/>
<path d="M159.584 153.101C159.293 153.481 158.959 153.827 158.59 154.133V154.006C158.961 154.307 159.297 154.65 159.59 155.028C159.189 154.775 158.818 154.476 158.485 154.139L158.419 154.072L158.485 154.012C158.814 153.665 159.183 153.36 159.584 153.101Z" fill="white"/>
<path d="M161.164 154.072C160.29 154.189 159.404 154.189 158.53 154.072C159.404 153.954 160.29 153.954 161.164 154.072Z" fill="white"/>
<path d="M206.827 147.485H184.393C183.847 147.485 183.405 147.927 183.405 148.473V160.008C183.405 160.554 183.847 160.996 184.393 160.996H206.827C207.373 160.996 207.816 160.554 207.816 160.008V148.473C207.816 147.927 207.373 147.485 206.827 147.485Z" fill="#FD3E72"/>
<path d="M191.074 152.101V155.784H190.754L188.391 152.797V155.784H188.004V152.101H188.325L190.693 155.088V152.101H191.074Z" fill="white"/>
<path d="M194.603 154.514H192.29C192.297 154.65 192.332 154.783 192.392 154.906C192.452 155.028 192.536 155.138 192.639 155.227C192.742 155.317 192.862 155.385 192.991 155.427C193.121 155.47 193.258 155.486 193.394 155.475C193.553 155.48 193.712 155.45 193.858 155.388C194.005 155.326 194.137 155.233 194.244 155.116L194.454 155.359C194.255 155.566 193.999 155.71 193.719 155.773C193.438 155.836 193.145 155.815 192.877 155.712C192.608 155.61 192.376 155.431 192.209 155.197C192.041 154.963 191.947 154.685 191.936 154.398C191.924 154.214 191.95 154.03 192.013 153.856C192.075 153.683 192.172 153.524 192.298 153.39C192.424 153.256 192.576 153.149 192.745 153.075C192.914 153.002 193.097 152.964 193.281 152.964C193.465 152.964 193.647 153.002 193.816 153.075C193.985 153.149 194.137 153.256 194.263 153.39C194.389 153.524 194.487 153.683 194.549 153.856C194.611 154.03 194.637 154.214 194.625 154.398C194.609 154.431 194.603 154.475 194.603 154.514ZM192.29 154.238H194.25C194.231 153.99 194.12 153.759 193.938 153.591C193.756 153.422 193.518 153.328 193.27 153.328C193.022 153.328 192.783 153.422 192.601 153.591C192.42 153.759 192.308 153.99 192.29 154.238Z" fill="white"/>
<path d="M197.055 155.783L196.177 154.624L195.293 155.783H194.868L195.972 154.364L194.929 153.017H195.348L196.182 154.121L197.01 153.017H197.419L196.381 154.364L197.485 155.783H197.055Z" fill="white"/>
<path d="M199.556 155.613C199.388 155.759 199.171 155.838 198.948 155.833C198.839 155.846 198.729 155.833 198.625 155.797C198.522 155.761 198.427 155.702 198.35 155.625C198.272 155.547 198.212 155.454 198.175 155.35C198.138 155.247 198.125 155.136 198.137 155.027V153.371H197.645V153.056H198.137V152.449H198.512V153.056H199.351V153.371H198.512V155.027C198.503 155.094 198.508 155.161 198.529 155.225C198.549 155.289 198.584 155.347 198.63 155.395C198.676 155.444 198.733 155.481 198.796 155.504C198.859 155.528 198.926 155.536 198.992 155.53C199.141 155.534 199.286 155.485 199.401 155.392L199.556 155.613Z" fill="white"/>
<path d="M202.095 155.028C202.387 154.647 202.72 154.301 203.089 153.995V154.122C202.718 153.821 202.383 153.478 202.09 153.101C202.491 153.355 202.862 153.655 203.194 153.995L203.266 154.056L203.194 154.122C202.865 154.466 202.496 154.77 202.095 155.028Z" fill="white"/>
<path d="M200.516 154.055C200.951 153.974 201.394 153.946 201.836 153.972C202.276 153.946 202.717 153.973 203.15 154.055C202.718 154.143 202.276 154.173 201.836 154.143C201.394 154.173 200.95 154.143 200.516 154.055Z" fill="white"/>
<path d="M30.3351 74.7596C33.3358 74.7596 35.7683 72.327 35.7683 69.3263C35.7683 66.3256 33.3358 63.8931 30.3351 63.8931C27.3343 63.8931 24.9018 66.3256 24.9018 69.3263C24.9018 72.327 27.3343 74.7596 30.3351 74.7596Z" fill="#FD3E72"/>
<path d="M141.104 69.6415C141.057 69.1993 140.984 68.7605 140.883 68.3274C140.568 67.1564 139.868 66.1255 138.895 65.4009C138.237 64.8996 137.468 64.5627 136.653 64.4181C135.719 64.248 134.756 64.3319 133.865 64.661C132.88 65.0198 132.025 65.6637 131.408 66.5108C130.741 67.4173 130.381 68.5133 130.381 69.6388C130.381 70.7642 130.741 71.8602 131.408 72.7667C131.715 73.1914 132.088 73.5643 132.512 73.8711C132.92 74.1806 133.372 74.4264 133.854 74.5999C134.746 74.9248 135.708 75.0067 136.642 74.8373C137.457 74.6927 138.226 74.3558 138.884 73.8545C139.857 73.1299 140.557 72.0991 140.872 70.9281C140.972 70.4967 141.046 70.0597 141.093 69.6194C141.128 70.0682 141.089 70.5197 140.977 70.9557C140.697 72.1741 140.002 73.2573 139.011 74.0202C138.329 74.5472 137.533 74.9083 136.687 75.0748C135.708 75.2585 134.699 75.1804 133.76 74.8484C133.255 74.6692 132.78 74.4142 132.352 74.0919C131.897 73.7661 131.498 73.369 131.171 72.9158C130.461 71.9631 130.079 70.8071 130.079 69.6194C130.079 68.4318 130.461 67.2758 131.171 66.323C131.497 65.867 131.896 65.4677 132.352 65.1414C132.78 64.8192 133.255 64.5641 133.76 64.3849C134.699 64.0529 135.708 63.9748 136.687 64.1586C137.533 64.3251 138.329 64.6861 139.011 65.2132C140.002 65.976 140.697 67.0593 140.977 68.2777C141.095 68.722 141.138 69.183 141.104 69.6415Z" fill="#263238"/>
<path d="M193.747 69.0111C193.708 69.0111 193.747 68.5252 193.52 67.697C193.203 66.5285 192.505 65.499 191.538 64.7705C190.828 64.236 189.994 63.8882 189.114 63.7589C188.235 63.6297 187.337 63.7231 186.502 64.0306C186.022 64.2044 185.57 64.4481 185.161 64.754C184.737 65.0623 184.365 65.4349 184.056 65.8583C183.389 66.7657 183.029 67.8626 183.029 68.989C183.029 70.1154 183.389 71.2124 184.056 72.1198C184.673 72.9668 185.529 73.6108 186.513 73.9695C187.348 74.2771 188.246 74.3705 189.126 74.2412C190.005 74.112 190.839 73.7642 191.549 73.2296C192.516 72.5012 193.214 71.4716 193.531 70.3032C193.747 69.4749 193.719 68.989 193.758 68.989C193.789 69.4396 193.75 69.8923 193.642 70.3308C193.397 71.3568 192.861 72.2904 192.099 73.0199C191.338 73.7495 190.382 74.244 189.346 74.4444C188.37 74.6333 187.361 74.5551 186.425 74.218C185.918 74.042 185.441 73.7887 185.012 73.4671C184.555 73.1407 184.156 72.7415 183.83 72.2854C183.121 71.3327 182.738 70.1767 182.738 68.989C182.738 67.8014 183.121 66.6454 183.83 65.6926C184.156 65.2366 184.555 64.8373 185.012 64.511C185.441 64.1893 185.918 63.936 186.425 63.7601C187.361 63.423 188.37 63.3448 189.346 63.5337C190.382 63.734 191.338 64.2286 192.099 64.9581C192.861 65.6877 193.397 66.6213 193.642 67.6473C193.749 68.0935 193.784 68.5538 193.747 69.0111Z" fill="#263238"/>
<path d="M32.599 67.8574C31.9685 68.7308 31.2607 69.5458 30.4843 70.2925C30.291 70.5023 30.0978 70.7011 29.9321 70.8888L29.8327 70.9937L29.7333 70.8943C29.1251 70.3666 28.5703 69.7803 28.0768 69.144C28.742 69.5958 29.3583 70.1158 29.9155 70.6955H29.7223C29.899 70.5023 30.0867 70.298 30.2744 70.0937C30.9814 69.2807 31.7593 68.5324 32.599 67.8574Z" fill="white"/>
<path d="M76.131 68.2227H36.795V70.4313H76.131V68.2227Z" fill="#FD3E72"/>
<path d="M82.8562 74.7596C85.8569 74.7596 88.2894 72.327 88.2894 69.3263C88.2894 66.3256 85.8569 63.8931 82.8562 63.8931C79.8555 63.8931 77.4229 66.3256 77.4229 69.3263C77.4229 72.327 79.8555 74.7596 82.8562 74.7596Z" fill="#FD3E72"/>
<path d="M85.1203 67.8574C84.4878 68.7292 83.7801 69.544 83.0055 70.2925C82.8068 70.5023 82.619 70.7011 82.4534 70.8888L82.3595 70.9937L82.2601 70.8943C81.6484 70.3703 81.0932 69.7836 80.6036 69.144C81.2651 69.5985 81.8792 70.1183 82.4368 70.6955H82.2436L82.7957 70.0937C83.502 69.2801 84.28 68.5316 85.1203 67.8574Z" fill="white"/>
<path d="M128.647 68.2227H89.3114V70.4313H128.647V68.2227Z" fill="#FD3E72"/>
<path d="M181.981 69.0117C181.981 69.089 173.174 69.1553 162.313 69.1553C151.452 69.1553 142.628 69.089 142.628 69.0117C142.628 68.9344 151.463 68.8682 162.296 68.8682C173.13 68.8682 181.981 68.9344 181.981 69.0117Z" fill="#263238"/>
<path d="M219.047 51.8062C219.047 51.8835 171.042 51.9497 111.84 51.9497C52.6371 51.9497 4.62671 51.8835 4.62671 51.8062C4.62671 51.7289 52.6205 51.6626 111.84 51.6626C171.059 51.6626 219.047 51.7233 219.047 51.8062Z" fill="#E0E0E0"/>
<path d="M191.648 100.104C191.648 100.181 155.029 100.247 109.867 100.247C64.7061 100.247 28.0703 100.181 28.0703 100.104C28.0703 100.026 64.684 99.96 109.867 99.96C155.051 99.96 191.648 100.026 191.648 100.104Z" fill="#263238"/>
<path d="M101 106.559C100.937 106.566 100.874 106.566 100.812 106.559H100.26L98.1339 106.586L90.3208 106.631L64.5405 106.669L38.7546 106.631L30.936 106.586L28.8157 106.559H28.2635C28.1993 106.566 28.1345 106.566 28.0703 106.559H28.2635H28.8157L30.936 106.531L38.7546 106.487L64.5405 106.443L90.3208 106.487L98.1339 106.531L100.26 106.559H100.812H101Z" fill="#263238"/>
<path d="M174.947 115.951C174.947 116.028 145.042 116.094 108.135 116.094C71.2287 116.094 41.3237 116.028 41.3237 115.951C41.3237 115.873 71.2232 115.807 108.135 115.807C145.047 115.807 174.947 115.873 174.947 115.951Z" fill="#263238"/>
<path d="M32.9803 118.083C32.4024 118.083 31.8374 117.911 31.357 117.59C30.8765 117.269 30.5021 116.812 30.2812 116.278C30.0603 115.744 30.0028 115.157 30.1159 114.59C30.2291 114.023 30.5078 113.503 30.9169 113.094C31.3259 112.686 31.8469 112.408 32.4139 112.296C32.9808 112.184 33.5683 112.243 34.1019 112.465C34.6356 112.687 35.0914 113.062 35.4117 113.543C35.732 114.024 35.9023 114.589 35.9012 115.167C35.8983 115.94 35.5895 116.681 35.0422 117.227C34.4949 117.774 33.7536 118.081 32.9803 118.083ZM32.9803 112.798C32.5118 112.798 32.0538 112.937 31.6643 113.198C31.2748 113.458 30.9711 113.828 30.7919 114.261C30.6126 114.694 30.5657 115.17 30.6571 115.629C30.7485 116.089 30.9741 116.511 31.3053 116.842C31.6366 117.173 32.0587 117.399 32.5182 117.49C32.9777 117.582 33.454 117.535 33.8868 117.356C34.3196 117.176 34.6896 116.873 34.9499 116.483C35.2102 116.094 35.3491 115.636 35.3491 115.167C35.3476 114.539 35.0976 113.938 34.6537 113.494C34.2098 113.05 33.6081 112.8 32.9803 112.798Z" fill="#E0E0E0"/>
<path d="M147.852 123.107C147.852 123.107 147.763 123.107 147.581 123.107H146.775L143.672 123.134L132.258 123.179L94.5901 123.256L56.9327 123.212L45.5196 123.167L42.422 123.14H41.6103H41.3397H41.6103H42.422L45.5196 123.112L56.9327 123.068L94.5901 123.024L132.236 123.068L143.65 123.112L146.753 123.14H147.559C147.763 123.096 147.852 123.107 147.852 123.107Z" fill="#263238"/>
<path d="M32.9803 126.017C32.4026 126.017 31.8379 125.846 31.3575 125.525C30.8772 125.204 30.5028 124.748 30.2817 124.214C30.0607 123.68 30.0028 123.093 30.1155 122.526C30.2282 121.96 30.5064 121.439 30.9149 121.031C31.3234 120.622 31.8439 120.344 32.4105 120.231C32.9771 120.119 33.5644 120.177 34.0981 120.398C34.6318 120.619 35.088 120.993 35.409 121.473C35.7299 121.954 35.9012 122.519 35.9012 123.096C35.8998 123.87 35.5916 124.613 35.0441 125.16C34.4967 125.707 33.7545 126.016 32.9803 126.017ZM32.9803 120.727C32.5118 120.727 32.0538 120.866 31.6643 121.127C31.2748 121.387 30.9711 121.757 30.7919 122.19C30.6126 122.623 30.5657 123.099 30.6571 123.558C30.7485 124.018 30.9741 124.44 31.3053 124.771C31.6366 125.102 32.0587 125.328 32.5182 125.419C32.9777 125.511 33.454 125.464 33.8868 125.285C34.3196 125.105 34.6896 124.802 34.9499 124.412C35.2102 124.023 35.3491 123.565 35.3491 123.096C35.3447 122.47 35.0934 121.872 34.6498 121.43C34.2062 120.988 33.6062 120.74 32.9803 120.738V120.727Z" fill="#E0E0E0"/>
<path d="M32.9798 124.393C33.6904 124.393 34.2664 123.817 34.2664 123.107C34.2664 122.396 33.6904 121.82 32.9798 121.82C32.2693 121.82 31.6933 122.396 31.6933 123.107C31.6933 123.817 32.2693 124.393 32.9798 124.393Z" fill="#FD3E72"/>
<path d="M174.947 131.836C174.947 131.914 145.042 131.98 108.135 131.98C71.2287 131.98 41.3237 131.914 41.3237 131.836C41.3237 131.759 71.2232 131.693 108.135 131.693C145.047 131.693 174.947 131.754 174.947 131.836Z" fill="#263238"/>
<path d="M32.9803 133.967C32.4026 133.967 31.8379 133.796 31.3575 133.475C30.8772 133.154 30.5028 132.698 30.2817 132.164C30.0607 131.63 30.0028 131.043 30.1155 130.477C30.2282 129.91 30.5064 129.39 30.9149 128.981C31.3234 128.573 31.8439 128.294 32.4105 128.182C32.9771 128.069 33.5644 128.127 34.0981 128.348C34.6318 128.569 35.088 128.943 35.409 129.424C35.7299 129.904 35.9012 130.469 35.9012 131.046C35.8998 131.821 35.5916 132.563 35.0441 133.11C34.4967 133.658 33.7545 133.966 32.9803 133.967ZM32.9803 128.683C32.5116 128.683 32.0534 128.822 31.6637 129.083C31.2741 129.343 30.9705 129.714 30.7913 130.147C30.6122 130.58 30.5656 131.056 30.6575 131.516C30.7493 131.976 30.9755 132.398 31.3073 132.729C31.6391 133.06 32.0617 133.285 32.5216 133.376C32.9814 133.467 33.4579 133.419 33.8906 133.239C34.3234 133.059 34.6929 132.754 34.9526 132.364C35.2122 131.974 35.3502 131.515 35.3491 131.046C35.3476 130.419 35.0974 129.818 34.6533 129.375C34.2093 128.932 33.6076 128.683 32.9803 128.683Z" fill="#E0E0E0"/>
<path d="M81.5469 132.918C80.6041 133.282 79.7881 133.913 79.1994 134.734C78.6108 135.555 78.2752 136.531 78.2339 137.54C78.1953 138.816 78.2339 140.301 77.2456 141.101C76.2572 141.902 74.9044 141.505 73.778 141.924C72.3424 142.476 71.6301 144.061 71.3154 145.557C71.0006 147.054 70.9068 148.655 70.0675 149.936C69.2282 151.217 67.903 151.902 66.6717 152.697C65.4404 153.492 64.2201 154.602 63.9937 156.06C63.6679 158.147 65.5066 160.278 64.7502 162.255C64.2643 163.525 62.8949 164.176 61.8679 165.065C61.1988 165.644 60.6531 166.351 60.2634 167.145C59.8736 167.939 59.6478 168.804 59.5994 169.687C59.5509 170.57 59.6809 171.454 59.9814 172.286C60.282 173.118 60.7471 173.881 61.3489 174.529C61.8075 175.072 62.3888 175.498 63.0445 175.771C63.7003 176.045 64.4117 176.159 65.1201 176.103C66.4895 175.91 67.5772 174.91 68.6042 173.994C72.3754 170.639 76.5845 167.812 81.1162 165.59C82.2868 165.038 83.5678 164.403 84.1752 163.243C84.4446 162.638 84.6143 161.992 84.6776 161.333C85.9439 152.638 87.2121 143.943 88.482 135.249" fill="#263238"/>
<path d="M94.4579 124.652C93.9443 122.736 95.0652 120.655 96.7272 119.567C98.3892 118.479 100.454 118.225 102.437 118.28C104.419 118.336 106.738 118.833 107.864 120.55C108.566 121.616 108.687 122.979 109.316 124.095C111.089 127.242 116.014 127.297 117.936 130.356C119.763 133.261 117.897 137.065 118.333 140.466C118.626 142.747 119.946 144.74 120.978 146.8C122.011 148.859 122.773 151.294 121.9 153.426C120.962 155.7 118.322 157.175 118.035 159.621C117.709 162.652 121.304 165.429 120.2 168.273C119.382 170.382 116.334 171.183 115.987 173.419C115.81 174.617 116.539 175.744 116.842 176.909C117.66 179.869 115.738 183.121 112.977 184.49C110.217 185.859 106.904 185.644 104.005 184.645C101.686 183.841 99.5521 182.581 97.7293 180.938C95.9065 179.294 94.432 177.302 93.393 175.079C92.354 172.856 91.7716 170.447 91.6805 167.995C91.5893 165.542 91.9911 163.097 92.8621 160.802" fill="#263238"/>
<path d="M63.3815 154.144C63.2803 153.974 63.1301 153.84 62.9508 153.757C62.7326 153.665 62.4907 153.646 62.2606 153.702C62.1048 153.734 61.9598 153.806 61.8398 153.91C61.7198 154.015 61.6289 154.148 61.576 154.298C61.5188 154.489 61.5055 154.691 61.537 154.888C61.5686 155.085 61.6442 155.272 61.7582 155.436C61.8969 155.628 62.0819 155.783 62.2962 155.885C62.5104 155.988 62.7469 156.034 62.984 156.021C63.2583 156.013 63.5282 155.951 63.7784 155.838C64.0286 155.725 64.254 155.564 64.4417 155.364C64.8639 154.901 65.1671 154.342 65.3251 153.735C65.7116 152.46 65.6012 150.974 65.7392 149.39C65.8052 148.559 66.0262 147.748 66.3908 146.999C66.5912 146.603 66.8583 146.244 67.1804 145.939C67.519 145.632 67.915 145.396 68.3454 145.243C69.2323 145.002 70.1401 144.847 71.0566 144.779C71.5134 144.764 71.9628 144.658 72.3788 144.469C72.7948 144.279 73.1692 144.01 73.4805 143.675C74.0714 142.951 74.121 141.93 74.0327 140.958C73.8954 139.95 73.829 138.933 73.8339 137.916C73.9162 136.876 74.2662 135.876 74.8499 135.011C75.4025 134.152 76.2207 133.497 77.18 133.145C78.1189 132.9 79.0987 132.853 80.0568 133.007C80.9623 133.073 81.9176 133.112 82.5912 132.582C83.2648 132.052 83.447 131.168 83.4912 130.373C83.4905 129.548 83.5719 128.725 83.7342 127.916C84.1236 126.463 84.996 125.185 86.2078 124.294C87.2058 123.563 88.4053 123.158 89.6423 123.134C90.5674 123.111 91.4866 123.288 92.3368 123.653C92.876 123.874 93.3772 124.177 93.8221 124.553C93.9786 124.679 94.1245 124.818 94.2583 124.968C94.2583 124.968 94.0982 124.835 93.7835 124.598C93.3286 124.247 92.8268 123.963 92.2927 123.753C91.4521 123.419 90.5516 123.263 89.6478 123.295C88.4505 123.336 87.2944 123.742 86.3348 124.46C85.1715 125.331 84.3383 126.571 83.9716 127.977C83.8197 128.772 83.7457 129.58 83.7507 130.39C83.7348 130.828 83.6624 131.262 83.5354 131.682C83.3903 132.119 83.1195 132.503 82.7568 132.786C82.3751 133.074 81.9192 133.246 81.4427 133.283C80.9761 133.325 80.5068 133.325 80.0402 133.283C79.1212 133.131 78.1805 133.174 77.2794 133.41C76.3702 133.74 75.5943 134.358 75.0708 135.171C74.5158 135.993 74.1829 136.944 74.1045 137.932C74.103 138.939 74.1676 139.944 74.2977 140.942C74.3456 141.446 74.3326 141.954 74.2591 142.454C74.1873 142.964 73.9837 143.445 73.6683 143.851C73.3516 144.245 72.9363 144.548 72.4646 144.729C72.0116 144.894 71.5409 145.006 71.0621 145.061C70.1627 145.121 69.2714 145.269 68.4007 145.502C67.9935 145.637 67.6179 145.853 67.2963 146.137C66.9964 146.42 66.7479 146.753 66.562 147.12C66.2088 147.842 65.9917 148.622 65.9215 149.423C65.7724 150.974 65.8718 152.482 65.4632 153.801C65.293 154.437 64.9665 155.02 64.5134 155.497C64.3081 155.711 64.0623 155.882 63.7903 156.001C63.5183 156.119 63.2254 156.182 62.9288 156.187C62.6673 156.195 62.4078 156.139 62.1736 156.022C61.9394 155.905 61.7378 155.732 61.587 155.519C61.4646 155.337 61.3856 155.129 61.3559 154.912C61.3262 154.695 61.3467 154.473 61.4158 154.265C61.4772 154.101 61.5803 153.956 61.7148 153.843C61.8494 153.731 62.0108 153.656 62.1833 153.625C62.4324 153.571 62.6923 153.6 62.9232 153.708C63.0281 153.74 63.124 153.796 63.2035 153.872C63.283 153.948 63.3439 154.041 63.3815 154.144Z" fill="#263238"/>
<path d="M123.721 160.984C123.745 161.031 123.768 161.079 123.787 161.128C123.841 161.271 123.867 161.423 123.864 161.575C123.84 161.873 123.744 162.159 123.583 162.411C123.422 162.662 123.202 162.87 122.942 163.016C122.574 163.251 122.131 163.341 121.7 163.27C121.191 163.165 120.735 162.883 120.413 162.475C120.039 162.015 119.805 161.458 119.74 160.868C119.681 160.209 119.792 159.546 120.06 158.941C120.579 157.649 121.656 156.567 122.655 155.363C123.18 154.75 123.603 154.056 123.909 153.309C124.215 152.512 124.361 151.662 124.339 150.808C124.319 149.91 124.118 149.026 123.749 148.207C123.35 147.368 122.786 146.617 122.092 145.999C121.391 145.342 120.601 144.74 119.883 144C119.118 143.264 118.623 142.291 118.481 141.239C118.436 140.204 118.596 139.17 118.95 138.197C119.273 137.272 119.493 136.315 119.607 135.342C119.718 134.432 119.645 133.509 119.393 132.628C119.141 131.747 118.714 130.926 118.139 130.213C117.588 129.562 116.892 129.049 116.107 128.716C115.356 128.426 114.552 128.304 113.749 128.357C112.968 128.422 112.182 128.325 111.441 128.07C110.771 127.757 110.243 127.203 109.961 126.519C109.409 125.249 109.409 123.984 109.16 122.963C109.063 122.48 108.894 122.015 108.658 121.582C108.457 121.224 108.178 120.916 107.841 120.682C107.38 120.339 106.804 120.188 106.234 120.263C106.043 120.31 105.858 120.379 105.682 120.467C105.841 120.334 106.031 120.245 106.234 120.207C106.815 120.112 107.41 120.249 107.89 120.588C108.247 120.829 108.545 121.146 108.763 121.516C109.018 121.954 109.204 122.429 109.315 122.924C109.58 123.968 109.58 125.227 110.143 126.436C110.411 127.068 110.905 127.578 111.529 127.866C112.24 128.101 112.992 128.188 113.738 128.12C114.601 128.044 115.47 128.179 116.27 128.513C117.07 128.847 117.778 129.369 118.332 130.036C118.935 130.775 119.382 131.629 119.648 132.545C119.914 133.462 119.992 134.422 119.878 135.37C119.768 136.359 119.548 137.334 119.221 138.274C118.878 139.214 118.722 140.212 118.763 141.212C118.9 142.195 119.365 143.103 120.082 143.79C120.767 144.502 121.545 145.11 122.263 145.778C122.99 146.425 123.576 147.214 123.986 148.097C124.37 148.948 124.576 149.869 124.593 150.803C124.612 151.689 124.456 152.571 124.135 153.398C123.815 154.168 123.373 154.882 122.826 155.513C121.805 156.727 120.745 157.782 120.237 159.019C119.976 159.591 119.864 160.219 119.911 160.846C119.968 161.402 120.18 161.93 120.524 162.37C120.818 162.757 121.238 163.028 121.711 163.138C122.113 163.211 122.528 163.132 122.876 162.917C123.125 162.783 123.338 162.591 123.498 162.358C123.657 162.124 123.758 161.856 123.793 161.575C123.796 161.376 123.771 161.177 123.721 160.984Z" fill="#263238"/>
<path d="M80.73 133.587C79.6809 133.88 79.1122 135.067 79.1122 136.154C79.2059 137.238 79.4435 138.304 79.819 139.324C80.1061 140.373 80.2441 141.533 79.7251 142.499C78.676 144.409 75.733 144.31 74.3139 145.966C72.5084 148.07 74.1924 151.549 72.8893 153.995C71.7022 156.203 68.3837 156.921 67.7266 159.362C67.307 160.913 68.1905 162.603 67.7266 164.149C67.2352 165.905 65.2861 166.794 64.2591 168.301C63.7813 169.088 63.5029 169.98 63.448 170.899C63.3932 171.818 63.5636 172.736 63.9443 173.574C64.639 175.063 65.6804 176.364 66.9812 177.368C67.1358 177.5 67.296 177.627 67.4561 177.754L86.4725 173.337L90.2824 138.164L80.73 133.587Z" fill="#263238"/>
<path d="M91.1611 127.077C90.4732 127 89.7815 127.184 89.2232 127.593C88.6648 128.003 88.2805 128.606 88.1463 129.285L81.8903 166.242C81.029 170.582 86.8211 174.369 91.4703 175.258C96.1692 176.158 96.8097 173.9 97.7539 169.803C99.3331 162.951 99.8797 160.372 99.8742 160.416C99.8687 160.46 105.992 160.698 108.858 153.238C110.288 149.533 111.431 143.205 112.204 138.004C112.9 133.316 111.044 126.961 106.334 126.497L91.1611 127.077Z" fill="#FFA68A"/>
<path d="M99.8577 160.41C96.2164 159.689 92.8477 157.968 90.1286 155.441C90.1286 155.441 91.5697 161.437 99.438 162.359L99.8577 160.41Z" fill="#EF9376"/>
<path d="M96.7543 125.657C96.0111 124.851 95.1033 124.215 94.0925 123.791C93.0817 123.367 91.9914 123.166 90.8958 123.2C88.7148 123.349 86.6111 124.829 86.092 126.911C85.7552 128.263 86.0258 129.832 85.1589 130.93C84.292 132.029 82.8122 132.145 81.6306 132.775C80.7125 133.282 79.9909 134.083 79.5806 135.049C79.1703 136.014 79.095 137.09 79.3667 138.103C79.8747 139.826 81.3987 141.339 81.1723 143.117C80.957 144.773 79.2784 145.877 78.5937 147.412C77.8372 149.113 78.4281 151.162 79.5821 152.647C80.7361 154.132 82.3815 155.165 83.9994 156.17C85.2528 156.954 86.6056 157.765 88.0853 157.749C88.9599 157.706 89.8021 157.405 90.505 156.883C91.208 156.361 91.7399 155.642 92.0333 154.817C92.2985 153.99 92.382 153.115 92.2782 152.253C92.1743 151.39 91.8855 150.56 91.4314 149.82C90.675 148.522 89.4878 147.296 89.5596 145.806C89.6756 143.486 92.7401 142.222 93.0603 139.92C93.2315 138.738 92.6131 137.595 92.1382 136.485C91.6633 135.375 91.321 134.039 91.9781 133.034C92.8284 131.731 94.7831 131.764 96.1358 130.963C96.6996 130.624 97.1575 130.135 97.458 129.549C97.7584 128.964 97.8895 128.306 97.8365 127.651C97.7638 126.994 97.5136 126.369 97.1128 125.844C96.712 125.319 96.1758 124.912 95.5616 124.669" fill="#263238"/>
<path d="M96.3003 123.742C96.1295 124.516 96.1313 125.318 96.3058 126.091C96.4803 126.863 96.823 127.588 97.3097 128.214C97.7964 128.839 98.415 129.349 99.1214 129.708C99.8278 130.067 100.605 130.266 101.397 130.291C102.617 130.329 104.036 130.009 104.92 130.843C105.803 131.676 105.544 133.355 106.317 134.388C107.421 135.856 109.817 135.216 111.435 136.099C112.677 136.784 113.235 138.231 113.892 139.495C114.549 140.759 115.648 142.057 117.067 141.952C117.286 140.743 117.366 139.513 117.305 138.286C117.234 137.054 116.74 135.884 115.908 134.973C115.438 134.492 114.842 134.139 114.422 133.615C113.506 132.51 113.588 130.854 113.174 129.484C112.898 128.587 112.412 127.768 111.756 127.096C111.1 126.424 110.294 125.917 109.403 125.619C107.923 125.133 106.261 125.255 104.864 124.565C103.832 124.051 103.031 123.135 101.971 122.687C99.9059 121.815 97.5537 122.93 95.6764 124.134" fill="#263238"/>
<path d="M68.1132 168.202C67.9067 168.167 67.706 168.104 67.5168 168.014C66.973 167.754 66.5052 167.359 66.1585 166.865C65.5899 166.086 65.3266 165.126 65.4186 164.165C65.551 162.897 66.1397 161.72 67.0751 160.852C67.5886 160.372 68.1794 159.975 68.7923 159.516C69.4234 159.085 69.904 158.467 70.1672 157.749C70.3084 156.936 70.3084 156.105 70.1672 155.292C70.1127 154.377 70.3033 153.464 70.7194 152.647C71.1553 151.788 71.8034 151.055 72.6022 150.516C73.4381 149.955 74.4175 149.647 75.4238 149.627C76.4287 149.577 77.4392 149.682 78.4386 149.55C78.9313 149.49 79.4067 149.33 79.8355 149.08C80.2621 148.809 80.6074 148.427 80.8349 147.976C81.2362 147.028 81.5253 146.037 81.6963 145.022C81.8105 144.515 81.9867 144.023 82.2209 143.559C82.4651 143.093 82.8149 142.69 83.2424 142.383C84.1023 141.878 85.0539 141.55 86.0418 141.416C86.9512 141.29 87.8229 140.969 88.5983 140.478C88.9506 140.232 89.2308 139.896 89.41 139.506C89.5768 139.12 89.6506 138.7 89.6253 138.28C89.532 137.455 89.3316 136.646 89.029 135.873C88.7476 135.124 88.6217 134.325 88.6591 133.526C88.6896 133.136 88.8086 132.759 89.0069 132.422C89.2065 132.108 89.4769 131.845 89.7965 131.654C90.3929 131.346 91.0438 131.159 91.7125 131.102C92.2922 131.04 92.8675 130.942 93.4352 130.809C94.3341 130.564 95.1275 130.031 95.6936 129.291C96.0559 128.828 96.3241 128.299 96.4832 127.734C96.5881 127.342 96.5991 127.126 96.6157 127.126C96.615 127.335 96.589 127.543 96.5384 127.745C96.4036 128.332 96.1458 128.883 95.7819 129.363C95.2122 130.136 94.4026 130.699 93.4794 130.964C92.9069 131.107 92.326 131.214 91.7401 131.284C91.0973 131.348 90.4729 131.535 89.9014 131.836C89.6054 132.015 89.3575 132.263 89.1795 132.56C89.0015 132.856 88.8986 133.192 88.8799 133.537C88.8533 134.307 88.9809 135.075 89.2554 135.795C89.5721 136.584 89.7802 137.413 89.8738 138.258C89.9055 138.719 89.8279 139.18 89.6474 139.605C89.4535 140.047 89.1445 140.428 88.7529 140.71C87.9482 141.226 87.0429 141.565 86.097 141.704C85.1461 141.83 84.23 142.146 83.4025 142.631C82.6374 143.254 82.1283 144.136 81.9724 145.11C81.7993 146.149 81.5027 147.163 81.0889 148.131C80.8359 148.623 80.4543 149.037 79.9846 149.329C79.5211 149.602 79.0058 149.775 78.4717 149.837C77.4226 149.975 76.4066 149.864 75.4293 149.914C74.4936 149.94 73.5824 150.219 72.7936 150.723C72.0047 151.227 71.3678 151.936 70.9513 152.774C70.5458 153.545 70.3551 154.411 70.3991 155.281C70.5455 156.123 70.5455 156.984 70.3991 157.827C70.1138 158.588 69.5986 159.243 68.9248 159.698C68.323 160.162 67.7156 160.549 67.2131 161.007C66.2967 161.831 65.7085 162.959 65.5567 164.182C65.456 165.108 65.6932 166.04 66.2248 166.805C66.555 167.301 67.0051 167.705 67.5334 167.981C67.9033 168.141 68.1187 168.185 68.1132 168.202Z" fill="#455A64"/>
<path d="M113.914 179.901C114.085 179.737 114.246 179.561 114.395 179.377C114.792 178.817 115.013 178.152 115.03 177.466C115.067 176.383 114.813 175.31 114.295 174.358C113.743 173.215 112.882 172.033 112.308 170.493C111.721 168.801 111.721 166.961 112.308 165.269C112.626 164.328 113.121 163.457 113.765 162.702C114.433 161.929 115.245 161.282 115.891 160.46C116.537 159.637 116.995 158.582 116.675 157.555C116.355 156.528 115.427 155.805 114.61 154.999C114.172 154.595 113.8 154.126 113.506 153.607C113.223 153.066 113.052 152.472 113.003 151.863C112.927 150.631 113.133 149.398 113.605 148.257C114.052 147.097 114.643 146.048 115.135 144.944C115.653 143.905 115.988 142.784 116.123 141.631C116.199 140.542 116.023 139.45 115.611 138.439C115.198 137.428 114.559 136.525 113.743 135.8C112.919 135.189 112.054 134.636 111.154 134.144C110.713 133.872 110.336 133.509 110.049 133.078C109.805 132.647 109.647 132.173 109.585 131.681C109.531 131.235 109.386 130.805 109.16 130.417C108.925 130.057 108.602 129.762 108.222 129.561C107.472 129.205 106.679 128.948 105.864 128.793C105.098 128.647 104.355 128.398 103.655 128.053C103.047 127.729 102.489 127.318 101.999 126.833C101.204 126.057 100.591 125.114 100.204 124.072C99.9585 123.425 99.8151 122.743 99.7791 122.051C99.761 121.811 99.761 121.569 99.7791 121.328C99.7869 122.253 99.9608 123.17 100.293 124.034C100.692 125.041 101.306 125.95 102.093 126.695C102.574 127.165 103.123 127.559 103.721 127.866C104.401 128.196 105.122 128.435 105.864 128.578C106.701 128.725 107.514 128.983 108.282 129.345C108.699 129.558 109.053 129.876 109.309 130.268C109.552 130.682 109.711 131.14 109.779 131.615C109.835 132.076 109.983 132.521 110.215 132.923C110.48 133.323 110.828 133.66 111.236 133.912C112.149 134.401 113.026 134.954 113.859 135.568C114.714 136.321 115.382 137.26 115.814 138.314C116.245 139.368 116.426 140.507 116.344 141.642C116.212 142.828 115.872 143.981 115.339 145.049C114.842 146.153 114.235 147.197 113.821 148.323C113.366 149.424 113.164 150.613 113.23 151.802C113.274 152.381 113.435 152.944 113.705 153.458C113.984 153.953 114.34 154.4 114.759 154.784C115.168 155.181 115.604 155.562 115.99 155.987C116.4 156.404 116.709 156.908 116.896 157.462C117.051 158.02 117.034 158.613 116.846 159.162C116.669 159.688 116.4 160.178 116.051 160.609C115.383 161.459 114.56 162.105 113.914 162.851C113.286 163.579 112.802 164.42 112.49 165.33C111.919 166.973 111.919 168.761 112.49 170.404C113.042 171.895 113.892 173.093 114.433 174.269C114.949 175.251 115.189 176.354 115.129 177.461C115.101 178.162 114.856 178.837 114.428 179.393C114.287 179.591 114.114 179.763 113.914 179.901Z" fill="#455A64"/>
<path d="M107.687 173.342C110.804 176.611 112.512 180.974 112.441 185.49C112.298 193.043 113.518 206.742 113.518 206.742L134.417 219.519L128.52 228.553L105.495 218.338L100.664 208.449L107.687 173.342Z" fill="#FD3E72"/>
<path d="M114.076 225.102C114.076 225.102 114.855 223.606 112.662 222.463H109.112L102.182 210.497L107.704 173.343L98.251 166.164L77.3297 164.304L70.0135 201.906L79.3616 218.995L97.9032 226.61L114.076 225.102Z" fill="#FD3E72"/>
<path d="M81.0223 164.574L81.442 161.029C81.4574 160.867 81.5084 160.711 81.5913 160.571C81.6741 160.431 81.7868 160.311 81.9213 160.22C82.0558 160.129 82.2087 160.069 82.3693 160.043C82.5298 160.018 82.6939 160.028 82.85 160.074C88.0348 164.138 93.341 166.197 98.9952 164.574C99.3633 164.676 99.677 164.918 99.8698 165.248C100.063 165.578 100.119 165.97 100.028 166.341L97.8191 175.22L92.0931 176.937L84.5341 175.457L81.0002 168.93L81.0223 164.574Z" fill="#FD3E72"/>
<path d="M99.1455 167.02C98.9341 167.186 98.7021 167.323 98.4553 167.429C97.82 167.759 97.1566 168.033 96.473 168.246C94.2053 168.969 91.7858 169.073 89.4642 168.549C87.1425 168.025 85.0026 166.891 83.2654 165.264C82.7418 164.779 82.2615 164.248 81.8297 163.68C81.662 163.477 81.5175 163.257 81.399 163.022C82.0276 163.757 82.6968 164.456 83.4034 165.115C85.1447 166.67 87.2535 167.755 89.5306 168.268C91.8078 168.781 94.1782 168.705 96.4178 168.047C97.3463 167.758 98.2571 167.415 99.1455 167.02Z" fill="#263238"/>
<g opacity="0.2">
<path opacity="0.2" d="M82.0336 163.712C81.9 164.055 81.8537 164.425 81.899 164.789C81.9443 165.153 82.0798 165.501 82.2932 165.8C82.7319 166.385 83.2679 166.892 83.8779 167.296C85.9098 168.809 88.0191 170.305 90.4486 171.001C92.8781 171.697 95.7272 171.432 97.5935 169.726C98.1457 169.234 98.5488 168.306 97.9911 167.837C97.5715 167.484 96.9365 167.699 96.4285 167.898C93.9266 168.855 91.1761 168.944 88.6173 168.152C86.0585 167.36 83.8394 165.733 82.3153 163.53" fill="black"/>
</g>
<path d="M79.1285 203.937L113.362 222.269L101.027 229.723L77.472 222.821C64.9987 219.508 61.5919 214.34 61.7134 209.017C61.7631 207.068 61.5312 188.035 62.3704 178.731C63.5134 166.031 77.3229 164.319 77.3229 164.319L77.091 175.158L77.2456 188.41L77.715 200.558C78.9629 199.934 79.2721 202.275 79.2721 202.275L79.1285 203.937Z" fill="#FD3E72"/>
<path d="M77.4725 202.038C77.3952 202.038 77.2848 197.438 77.2351 191.768C77.1854 186.097 77.2075 181.492 77.2848 181.486C77.3621 181.481 77.4725 186.086 77.5222 191.762C77.5719 197.438 77.5609 202.038 77.4725 202.038Z" fill="#D92455"/>
<path d="M79.0234 204.561C78.9847 204.561 79.0952 204.335 79.1449 204.009C79.2169 203.561 79.1352 203.102 78.913 202.706C78.6782 202.318 78.3177 202.022 77.8915 201.867C77.5657 201.74 77.3393 201.734 77.3393 201.684C77.3393 201.635 77.5712 201.585 77.9577 201.684C78.2091 201.744 78.4458 201.854 78.6534 202.007C78.861 202.161 79.0351 202.355 79.1653 202.578C79.2954 202.802 79.3789 203.049 79.4105 203.305C79.4421 203.562 79.4212 203.822 79.3492 204.07C79.2277 204.423 79.051 204.583 79.0234 204.561Z" fill="#D92455"/>
<path d="M79.0242 204.561C79.0242 204.561 79.0242 204.561 79.0849 204.616L79.2837 204.743C79.4659 204.854 79.7365 205.003 80.0899 205.196C80.7911 205.577 81.8181 206.118 83.0881 206.775L93.027 211.883L102.999 216.979L106.008 218.547L106.82 218.983C106.919 219.028 107.012 219.085 107.096 219.155C106.993 219.125 106.893 219.084 106.798 219.033L105.959 218.647L102.905 217.161C100.36 215.897 96.7983 214.13 92.9331 212.153C89.068 210.177 85.5287 208.338 82.9942 206.968C80.4598 205.599 78.9359 204.671 79.0242 204.561Z" fill="#D92455"/>
<path d="M77.3406 178.362C77.2965 178.362 77.2247 177.594 77.0425 176.357C76.8394 174.751 76.408 173.182 75.7615 171.697C75.1006 170.221 74.0697 168.941 72.7687 167.981C72.2103 167.611 71.6231 167.286 71.0129 167.009C71.2035 167.019 71.3906 167.064 71.565 167.142C72.0377 167.309 72.4883 167.534 72.9068 167.81C74.2798 168.752 75.3653 170.055 76.0431 171.576C76.7048 173.086 77.1187 174.693 77.2689 176.335C77.3351 176.959 77.3682 177.467 77.3793 177.815C77.3951 177.998 77.382 178.183 77.3406 178.362Z" fill="#D92455"/>
<path d="M113.816 206.693C113.513 206.91 113.221 207.144 112.944 207.394C112.307 208.041 111.751 208.762 111.288 209.542C110.816 210.311 110.445 211.136 110.183 211.999C109.995 212.662 109.99 213.103 109.94 213.103C109.864 212.722 109.881 212.328 109.99 211.955C110.197 211.051 110.551 210.187 111.039 209.398C111.506 208.596 112.094 207.872 112.784 207.251C113.06 206.959 113.422 206.764 113.816 206.693Z" fill="#D92455"/>
<g opacity="0.2">
<path opacity="0.2" d="M108.719 220.132C109.857 217.951 109.575 215.306 108.935 212.954C108.294 210.602 107.322 208.266 107.135 205.815C106.974 203.689 107.422 201.569 107.847 199.482C108.272 197.394 108.686 195.269 108.465 193.148C108.244 191.028 107.295 188.88 105.517 187.709C106.298 189.443 106.855 191.268 107.173 193.143C107.481 195.036 107.05 196.975 105.969 198.559C105.379 199.332 104.584 199.967 104.197 200.862C103.689 202.049 103.766 203.396 103.391 204.584C102.977 205.892 102.226 210.276 102.226 210.276C102.176 210.519 103.523 212.998 104.854 214.765C106.185 216.532 107.803 218.128 108.769 220.121" fill="black"/>
</g>
<path d="M108.802 219.983C108.802 219.983 108.752 219.933 108.664 219.823L108.289 219.32L106.903 217.399C105.71 215.709 104.048 213.357 102.071 210.569L102.044 210.525V210.469L103.844 201.662C103.915 201.326 103.982 200.994 104.048 200.668V200.63V200.597C106.043 198.599 107.175 195.899 107.201 193.076C107.125 190.906 106.35 188.818 104.992 187.124V187.096C104.904 185.688 104.832 184.562 104.782 183.756C104.782 183.386 104.749 183.093 104.738 182.867C104.727 182.764 104.727 182.66 104.738 182.558C104.768 182.656 104.785 182.758 104.788 182.861C104.788 183.088 104.838 183.38 104.876 183.745C104.948 184.551 105.047 185.677 105.169 187.058V187.008C106.582 188.726 107.393 190.859 107.477 193.082C107.508 194.455 107.249 195.819 106.715 197.085C106.151 198.475 105.322 199.743 104.274 200.818L104.313 200.746C104.247 201.066 104.18 201.403 104.109 201.74C103.468 204.893 102.872 207.885 102.32 210.497V210.398L107.063 217.289C107.615 218.111 108.068 218.768 108.388 219.249L108.73 219.773C108.774 219.917 108.813 219.983 108.802 219.983Z" fill="#D92757"/>
<g opacity="0.2">
<path opacity="0.2" d="M83.9825 201.944C83.6457 201.674 83.1101 202.093 83.1322 202.524C83.1686 202.738 83.2558 202.94 83.3865 203.112C83.5171 203.285 83.6875 203.424 83.8831 203.518C84.9274 204.102 86.1292 204.341 87.3176 204.203C88.8044 204.12 90.2194 203.536 91.3318 202.546C91.8785 202.049 92.29 201.422 92.5276 200.723C92.7652 200.023 92.8211 199.275 92.6901 198.548C92.6713 198.429 92.6218 198.317 92.5465 198.223C92.2649 197.936 91.8011 198.256 91.525 198.548C89.6068 200.562 86.9916 201.767 84.2144 201.917" fill="black"/>
</g>
<g opacity="0.2">
<path opacity="0.2" d="M77.3187 201.701C76.6796 201.441 75.9737 201.393 75.3055 201.565C74.6372 201.737 74.0421 202.12 73.6082 202.656C73.4514 202.814 73.3459 203.016 73.3055 203.234C73.2651 203.453 73.2917 203.679 73.3818 203.882C73.4907 204.03 73.6421 204.141 73.8158 204.2C73.9895 204.259 74.1771 204.264 74.3536 204.214C74.7063 204.1 75.0304 203.912 75.3033 203.661C75.9383 203.17 76.5622 202.662 77.1641 202.137C77.2587 202.073 77.3333 201.983 77.3794 201.878C77.4014 201.826 77.4034 201.768 77.385 201.715C77.3667 201.662 77.3292 201.618 77.28 201.591" fill="black"/>
</g>
<path d="M74.4249 204.589C74.3917 204.589 74.4249 204.307 74.5905 203.899C74.8212 203.37 75.1652 202.898 75.5984 202.516C76.0316 202.134 76.5433 201.852 77.0973 201.69C77.3196 201.601 77.5627 201.576 77.7986 201.618C77.0738 201.877 76.3952 202.249 75.7887 202.723C75.2396 203.27 74.7794 203.9 74.4249 204.589Z" fill="#D92455"/>
<path d="M109.934 227.41L146.459 209.675C148.291 208.782 150.319 208.364 152.355 208.461C154.391 208.557 156.37 209.165 158.11 210.227C159.61 211.143 160.893 212.374 161.871 213.835C162.848 215.296 163.498 216.952 163.773 218.688C164.049 220.424 163.944 222.199 163.467 223.891C162.99 225.583 162.151 227.151 161.009 228.487L145.184 247.006L104.782 252.594L101 229.712L105.494 222.755L109.934 227.41Z" fill="#4D2A15"/>
<path d="M131.998 234.985C131.866 235.128 131.716 235.252 131.551 235.355C131.253 235.576 130.811 235.907 130.264 236.266C129.16 237.017 127.631 238.017 125.891 239.066C124.152 240.115 122.551 241.004 121.375 241.622C120.784 241.932 120.304 242.174 119.967 242.335C119.793 242.432 119.608 242.507 119.415 242.555C119.559 242.427 119.721 242.319 119.895 242.235L121.253 241.44C122.402 240.778 123.986 239.861 125.72 238.817C127.454 237.774 129.006 236.802 130.138 236.095L131.474 235.261C131.635 235.146 131.812 235.053 131.998 234.985Z" fill="#3A1D0B"/>
<path d="M54.8339 236.349C54.8339 236.349 58.4616 218.834 60.3555 216.14C62.2495 213.445 66.1588 207.41 71.1337 206.792C76.1087 206.173 86.274 212.137 88.1237 214.478C92.806 220.414 122.358 251.693 121.993 251.285L112.468 257.85L102.403 254.67H73.5246C73.5246 254.67 53.5198 251.285 54.8339 236.349Z" fill="#4D2A15"/>
<path d="M102.403 254.67C102.255 254.675 102.107 254.665 101.961 254.643C101.539 254.606 101.12 254.54 100.707 254.444C99.1868 254.076 97.707 253.556 96.2901 252.892C91.6564 250.687 87.2961 247.948 83.2978 244.731C79.1891 241.662 75.2998 238.31 71.6582 234.699C70.5593 233.599 69.5494 232.413 68.6379 231.154C68.3884 230.81 68.1616 230.45 67.9588 230.077C67.8787 229.955 67.8103 229.825 67.7545 229.69C67.8529 229.8 67.9382 229.92 68.0085 230.049C68.1796 230.287 68.3784 230.662 68.7263 231.087C69.6688 232.316 70.6965 233.476 71.8018 234.56C75.4777 238.118 79.3765 241.438 83.4745 244.499C87.4651 247.697 91.7985 250.441 96.395 252.682C97.7869 253.364 99.2376 253.919 100.729 254.339C101.282 254.46 101.679 254.554 101.966 254.587C102.114 254.601 102.26 254.629 102.403 254.67Z" fill="#3A1D0B"/>
<path d="M89.459 250.755C89.3394 250.84 89.2139 250.916 89.0835 250.982L87.9792 251.589C87.4988 251.849 86.8748 252.092 86.1681 252.412C85.8147 252.578 85.4116 252.682 84.9975 252.837C84.5632 253.001 84.1209 253.143 83.6723 253.262C81.475 253.892 79.2048 254.232 76.9194 254.273C74.1074 254.332 71.3025 253.969 68.5983 253.196C65.8932 252.421 63.3338 251.207 61.0227 249.601C60.5037 249.209 59.9791 248.862 59.5098 248.464C59.0546 248.075 58.6335 247.649 58.2508 247.189C57.5635 246.366 56.9674 245.472 56.4729 244.522C55.7329 243.159 55.2253 241.683 54.971 240.154C54.9007 239.74 54.8638 239.321 54.8606 238.901C54.8485 238.755 54.8485 238.61 54.8606 238.464C54.8937 238.464 54.8606 239.066 55.0704 240.121C55.3622 241.625 55.8916 243.073 56.6385 244.411C57.1411 245.338 57.7368 246.211 58.4165 247.017C58.7969 247.462 59.2123 247.876 59.6588 248.254C60.1227 248.641 60.6472 248.983 61.1607 249.358C63.4581 250.932 65.9936 252.125 68.6701 252.892C71.3449 253.664 74.1192 254.036 76.9028 253.997C79.1753 253.97 81.4351 253.654 83.6281 253.058C84.103 252.959 84.5337 252.782 84.9533 252.655C85.373 252.528 85.765 252.406 86.1184 252.252C86.8251 251.948 87.4546 251.7 87.9405 251.479L89.0448 250.927C89.1761 250.854 89.315 250.797 89.459 250.755Z" fill="#3A1D0B"/>
<path d="M121.132 250.252C121.076 250.307 113.909 242.759 105.119 233.395C96.3286 224.03 89.261 216.394 89.3162 216.344C89.3714 216.294 96.544 223.831 105.329 233.201C114.114 242.572 121.192 250.202 121.132 250.252Z" fill="#3A1D0B"/>
<path d="M91.3262 250.12C91.3262 250.12 84.7941 252.782 85.4788 255.824C86.1635 258.866 89.5262 260.28 92.933 259.954C96.3398 259.628 102.607 256.823 102.607 256.823L105.831 255.112C105.831 255.112 101.911 255.051 99.9289 254.344C97.6319 253.521 91.3262 250.12 91.3262 250.12Z" fill="#FD3E72"/>
<path d="M99.4037 255.46L122.594 259.104L171.549 254.223L144.709 246.868L99.4313 253.378C99.1816 253.414 98.9531 253.539 98.7878 253.729C98.6225 253.92 98.5314 254.164 98.5313 254.416C98.5302 254.665 98.6171 254.906 98.7768 255.097C98.9365 255.288 99.1585 255.417 99.4037 255.46Z" fill="#455A64"/>
<path d="M128.824 222.225L123.214 255.393C123.144 255.827 123.175 256.271 123.304 256.692C123.433 257.112 123.657 257.497 123.959 257.817C124.26 258.137 124.631 258.384 125.043 258.538C125.455 258.692 125.896 258.749 126.334 258.706L171.539 254.2C172.159 254.138 172.743 253.877 173.201 253.454C173.659 253.032 173.967 252.472 174.079 251.859L180.175 218.31C180.255 217.87 180.231 217.418 180.106 216.99C179.98 216.561 179.757 216.168 179.453 215.84C179.149 215.513 178.774 215.261 178.355 215.104C177.937 214.947 177.488 214.89 177.044 214.936L131.336 219.85C130.717 219.92 130.137 220.19 129.684 220.618C129.231 221.046 128.929 221.61 128.824 222.225Z" fill="#455A64"/>
<path d="M98.5162 254.416H98.6377L98.9966 254.455L100.371 254.648L105.473 255.41L122.751 258.099L122.59 258.215C122.877 256.487 123.17 254.687 123.474 252.848C124.838 244.687 126.069 237.305 126.969 231.932C127.427 229.276 127.797 227.117 128.073 225.604C128.2 224.87 128.305 224.296 128.383 223.881C128.416 223.699 128.449 223.556 128.471 223.44C128.478 223.387 128.491 223.335 128.51 223.285C128.516 223.337 128.516 223.388 128.51 223.44C128.51 223.561 128.476 223.71 128.449 223.893C128.388 224.307 128.3 224.886 128.195 225.621C127.952 227.139 127.61 229.304 127.19 231.965C126.317 237.343 125.114 244.731 123.783 252.892C123.474 254.731 123.181 256.531 122.894 258.265V258.403H122.751L105.468 255.642L100.377 254.797L99.0076 254.56L98.6542 254.488L98.5162 254.416Z" fill="#263238"/>
<path d="M157.062 236.592C157.062 238.392 155.759 239.85 154.152 239.85C152.545 239.85 151.248 238.392 151.248 236.592C151.248 234.792 152.551 233.334 154.152 233.334C155.753 233.334 157.062 234.792 157.062 236.592Z" fill="#FAFAFA"/>
<path d="M88.9404 146.28C90.111 148.009 91.2927 149.764 91.9442 151.747C92.5957 153.729 92.6675 155.998 91.6515 157.82C90.8067 159.333 89.2552 160.52 88.9901 162.238C88.5484 165.159 92.0546 167.323 92.3031 170.266C92.4467 171.923 91.4914 173.513 90.4037 174.799C89.3159 176.086 88.0459 177.256 87.3392 178.786C86.6324 180.315 86.6711 182.336 87.9631 183.441C86.3508 182.988 84.6778 184.7 83.0875 184.17C81.7347 183.722 81.3758 182.011 81.2433 180.592C80.9119 181.014 80.6848 181.509 80.5802 182.035C80.4756 182.562 80.4966 183.106 80.6415 183.623C79.4358 182.351 78.6553 180.736 78.408 179C78.1607 177.265 78.4588 175.496 79.2611 173.938C80.2329 172.132 81.8894 170.542 81.8894 168.532C81.8617 166.324 79.7911 164.667 79.2114 162.497C78.8083 161.028 79.1396 159.466 79.5813 158.008C80.0231 156.55 80.5863 155.098 80.647 153.591C80.7077 152.083 80.5697 151.46 79.2666 150.675" fill="#263238"/>
<path d="M84.8823 183.105H84.7608C84.6426 183.082 84.5277 183.045 84.4185 182.994C83.986 182.804 83.6205 182.489 83.3694 182.089C82.9623 181.461 82.7597 180.722 82.7896 179.974C82.8678 178.989 83.2176 178.045 83.8001 177.246C84.3909 176.341 85.2191 175.485 85.9811 174.485C86.7431 173.486 87.483 172.31 87.483 170.919C87.483 169.527 86.7265 168.185 85.8707 166.926C85.0148 165.667 84.0154 164.326 83.7117 162.647C83.5623 161.815 83.6863 160.957 84.0651 160.201C84.4476 159.498 84.9334 158.856 85.5063 158.296C86.0432 157.778 86.5449 157.225 87.0081 156.64C87.4468 156.084 87.7443 155.43 87.875 154.735C87.9656 154.072 87.8126 153.399 87.4443 152.841C87.0834 152.305 86.6829 151.798 86.2462 151.322C85.446 150.43 84.9257 149.322 84.7498 148.136C84.6067 147.162 84.717 146.168 85.0701 145.249C85.3385 144.559 85.7336 143.926 86.2351 143.382C86.5495 143.041 86.9057 142.74 87.2953 142.488C87.3951 142.422 87.4984 142.361 87.6045 142.306C87.6744 142.269 87.7131 142.252 87.7204 142.256C87.2036 142.596 86.7323 143 86.3179 143.46C85.84 144.001 85.4656 144.627 85.2136 145.304C84.8874 146.201 84.7943 147.166 84.9431 148.109C85.1227 149.251 85.6355 150.315 86.4173 151.168C86.8646 151.651 87.2761 152.166 87.6486 152.708C88.0493 153.315 88.2179 154.047 88.1235 154.768C87.9914 155.509 87.6806 156.206 87.218 156.8C86.7536 157.404 86.2461 157.975 85.6995 158.506C85.1488 159.048 84.68 159.667 84.3081 160.345C83.9566 161.046 83.8441 161.843 83.9878 162.614C84.2694 164.199 85.2357 165.518 86.0971 166.788C86.5338 167.417 86.9161 168.082 87.24 168.776C87.5556 169.453 87.7249 170.189 87.737 170.935C87.7218 171.647 87.5483 172.347 87.229 172.984C86.9318 173.571 86.5747 174.126 86.1633 174.64C85.3737 175.634 84.551 176.473 83.9547 177.357C83.3833 178.12 83.0319 179.025 82.9387 179.974C82.9006 180.693 83.0795 181.407 83.4522 182.022C83.6866 182.413 84.025 182.73 84.4296 182.939C84.7167 183.061 84.8878 183.083 84.8823 183.105Z" fill="#455A64"/>
<path d="M123.622 233.495C122.032 232.065 123.821 230.392 120.939 227.669C118.786 225.643 114.705 222.148 106.804 219.52L101.834 228.354L110.448 231.115L110.365 236.73C110.361 237.005 110.411 237.278 110.514 237.533C110.617 237.788 110.77 238.02 110.965 238.214C111.159 238.409 111.39 238.563 111.644 238.666C111.899 238.77 112.172 238.821 112.447 238.818L116.919 238.762C116.919 238.762 115.611 244.284 115.815 244.615C115.933 244.802 116.101 244.952 116.3 245.048C116.499 245.144 116.72 245.183 116.94 245.159C117.16 245.136 117.368 245.051 117.542 244.915C117.716 244.779 117.849 244.596 117.924 244.389C118.101 243.649 121.789 234.737 121.789 234.737C121.789 234.737 124.197 236.813 124.55 235.626C124.561 235.654 125.218 234.93 123.622 233.495Z" fill="#FFA68A"/>
<path d="M111.596 238.977C111.596 238.95 111.801 238.812 112.099 238.519C112.479 238.137 112.769 237.675 112.949 237.166C113.125 236.656 113.184 236.112 113.12 235.576C113.071 235.167 112.977 234.919 113.01 234.902C113.154 235.092 113.245 235.317 113.275 235.554C113.386 236.116 113.344 236.698 113.153 237.238C112.968 237.787 112.641 238.277 112.204 238.657C112.032 238.814 111.823 238.924 111.596 238.977Z" fill="#AA6550"/>
<path d="M114.467 238.795C114.842 238.267 115.132 237.684 115.329 237.067C115.455 236.433 115.481 235.783 115.406 235.14C115.515 235.306 115.581 235.495 115.599 235.692C115.679 236.166 115.659 236.651 115.539 237.116C115.419 237.582 115.202 238.016 114.903 238.392C114.672 238.685 114.467 238.812 114.467 238.795Z" fill="#AA6550"/>
<path d="M117.936 235.56C117.963 235.56 118.019 235.736 118.024 236.045C118.027 236.446 117.946 236.843 117.787 237.211C117.631 237.579 117.402 237.912 117.113 238.188C116.887 238.398 116.715 238.48 116.699 238.458C117.046 238.051 117.344 237.604 117.588 237.128C117.767 236.621 117.884 236.094 117.936 235.56Z" fill="#AA6550"/>
<defs>
<filter id="filter0_d" x="9.45239" y="10" width="232.421" height="160.612" filterUnits="userSpaceOnUse" color-interpolation-filters="sRGB">
<feFlood flood-opacity="0" result="BackgroundImageFix"/>
<feColorMatrix in="SourceAlpha" type="matrix" values="0 0 0 0 0 0 0 0 0 0 0 0 0 0 0 0 0 0 127 0" result="hardAlpha"/>
<feOffset dy="4"/>
<feGaussianBlur stdDeviation="4.5"/>
<feColorMatrix type="matrix" values="0 0 0 0 0 0 0 0 0 0 0 0 0 0 0 0 0 0 0.1 0"/>
<feBlend mode="normal" in2="BackgroundImageFix" result="effect1_dropShadow"/>
<feBlend mode="normal" in="SourceGraphic" in2="effect1_dropShadow" result="shape"/>
</filter>
<linearGradient id="paint0_linear" x1="-0.49964" y1="4.00001" x2="369.5" y2="239.5" gradientUnits="userSpaceOnUse">
<stop stop-color="#FE6556"/>
<stop offset="0.421875" stop-color="#FD3E72"/>
<stop offset="1" stop-color="#49A8FF"/>
</linearGradient>
</defs>
</svg>
