<svg width="124" height="86" viewBox="0 0 124 86" fill="none" xmlns="http://www.w3.org/2000/svg">
<rect x="66.4023" y="7.17896" width="57.433" height="75.3809" rx="8" fill="#6E6B75"/>
<rect x="70.2969" y="10.4696" width="50.2539" height="68.2017" rx="5" fill="#FFF1F5"/>
<circle cx="94.9713" cy="44.8695" r="11.2174" fill="#FD3E72"/>
<path d="M101.073 37.8586C99.9771 37.8586 99.0938 38.7852 99.0938 39.9344V45.9461C99.0938 46.1975 99.0801 46.4489 99.0527 46.7146C99.0254 46.9732 98.9569 47.2102 98.8473 47.4257C98.7378 47.6411 98.5734 47.8207 98.3543 47.9644C98.1352 48.108 97.8202 48.1798 97.4231 48.1798C97.0259 48.1798 96.711 48.108 96.4919 47.9644C96.2727 47.8207 96.1084 47.6411 95.9989 47.4257C95.8893 47.2102 95.8208 46.9732 95.7934 46.7146C95.766 46.456 95.7523 46.1975 95.7523 45.9461V39.7476C94.6568 39.7476 93.7735 40.6742 93.7735 41.8234V45.9389C93.7735 46.1903 93.7598 46.4417 93.7324 46.7074C93.705 46.966 93.6365 47.203 93.527 47.4185C93.4174 47.634 93.2531 47.8135 93.034 47.9572C92.8149 48.1008 92.4999 48.1727 92.1027 48.1727C91.7056 48.1727 91.3906 48.1008 91.1715 47.9572C90.9524 47.8135 90.7881 47.634 90.6785 47.4185C90.5689 47.203 90.5005 46.966 90.4731 46.7074C90.4457 46.4489 90.432 46.1903 90.432 45.9389V41.6366C89.3364 41.6366 88.4531 42.5703 88.4531 43.7123V45.9389C88.4531 46.5279 88.5079 47.045 88.6175 47.4903C88.727 47.9356 88.864 48.3163 89.0283 48.6395C89.1995 48.9627 89.3912 49.2285 89.6103 49.4439C89.8294 49.6594 90.0554 49.8318 90.2814 49.9683C90.8086 50.2843 91.418 50.4567 92.0959 50.4782C92.7875 50.4567 93.3969 50.2843 93.931 49.9683C94.1569 49.8318 94.3829 49.6594 94.5952 49.4439C94.6499 49.3865 94.7047 49.329 94.7595 49.2644C94.8143 49.329 94.869 49.3865 94.9238 49.4439C95.1429 49.6594 95.3689 49.8318 95.5949 49.9683C96.1221 50.2843 96.7315 50.4567 97.4094 50.4782C98.101 50.4567 98.7104 50.2843 99.2445 49.9683C99.4704 49.8318 99.6964 49.6594 99.9087 49.4439C100.128 49.2285 100.319 48.9627 100.491 48.6395C100.662 48.3163 100.799 47.9356 100.902 47.4903C101.004 47.045 101.052 46.5351 101.052 45.9389L101.073 37.8586Z" fill="white"/>
<rect width="87.9444" height="66.407" rx="5" fill="#6E6B75"/>
<rect x="3.73828" y="3.73901" width="80.84" height="52.46" rx="2" fill="#FFF1F5"/>
<circle cx="44.1219" cy="29.913" r="17.2" fill="#FD3E72"/>
<path d="M53.4711 19.1631C51.7912 19.1631 50.4368 20.5838 50.4368 22.3459V31.5638C50.4368 31.9493 50.4158 32.3348 50.3738 32.7422C50.3319 33.1387 50.2269 33.5021 50.0589 33.8325C49.8909 34.1629 49.6389 34.4383 49.3029 34.6585C48.967 34.8788 48.484 34.9889 47.875 34.9889C47.2661 34.9889 46.7831 34.8788 46.4471 34.6585C46.1112 34.4383 45.8592 34.1629 45.6912 33.8325C45.5232 33.5021 45.4182 33.1387 45.3762 32.7422C45.3342 32.3458 45.3132 31.9493 45.3132 31.5638V22.0595C43.6334 22.0595 42.279 23.4802 42.279 25.2423V31.5528C42.279 31.9383 42.258 32.3237 42.216 32.7312C42.174 33.1277 42.069 33.4911 41.901 33.8215C41.733 34.1519 41.481 34.4272 41.1451 34.6475C40.8091 34.8678 40.3261 34.9779 39.7172 34.9779C39.1082 34.9779 38.6252 34.8678 38.2893 34.6475C37.9533 34.4272 37.7013 34.1519 37.5333 33.8215C37.3653 33.4911 37.2604 33.1277 37.2184 32.7312C37.1764 32.3348 37.1554 31.9383 37.1554 31.5528V24.956C35.4755 24.956 34.1211 26.3877 34.1211 28.1388V31.5528C34.1211 32.4559 34.2051 33.2488 34.3731 33.9317C34.5411 34.6145 34.751 35.1982 35.003 35.6937C35.2655 36.1893 35.5595 36.5968 35.8955 36.9272C36.2314 37.2576 36.5779 37.5219 36.9244 37.7312C37.7328 38.2157 38.6672 38.4801 39.7067 38.5131C40.7671 38.4801 41.7015 38.2157 42.5204 37.7312C42.8669 37.5219 43.2134 37.2576 43.5389 36.9272C43.6229 36.8391 43.7069 36.751 43.7909 36.6519C43.8748 36.751 43.9588 36.8391 44.0428 36.9272C44.3788 37.2576 44.7253 37.5219 45.0718 37.7312C45.8802 38.2157 46.8146 38.4801 47.854 38.5131C48.9145 38.4801 49.8489 38.2157 50.6678 37.7312C51.0143 37.5219 51.3608 37.2576 51.6862 36.9272C52.0222 36.5968 52.3162 36.1893 52.5787 35.6937C52.8412 35.1982 53.0511 34.6145 53.2086 33.9317C53.3661 33.2488 53.4396 32.4669 53.4396 31.5528L53.4711 19.1631Z" fill="white"/>
<rect x="25.125" y="73.5864" width="39.4852" height="7.17913" fill="#6E6B75"/>
<rect x="41.2773" y="66.4072" width="8.97391" height="7.17913" fill="#6E6B75"/>
<rect x="63.6406" y="34.4" width="27.52" height="51.6" rx="3" fill="#5B5863"/>
<rect x="64.3164" y="35.1479" width="25.8" height="47.3" rx="2" fill="white"/>
<circle cx="77.0286" cy="59.0783" r="8.97392" fill="#FD3E72"/>
<path d="M81.9082 53.4696C81.0317 53.4696 80.3251 54.2108 80.3251 55.1302V59.9396C80.3251 60.1407 80.3141 60.3418 80.2922 60.5544C80.2703 60.7612 80.2155 60.9509 80.1279 61.1232C80.0402 61.2956 79.9087 61.4393 79.7335 61.5542C79.5582 61.6691 79.3062 61.7266 78.9885 61.7266C78.6708 61.7266 78.4188 61.6691 78.2435 61.5542C78.0682 61.4393 77.9367 61.2956 77.8491 61.1232C77.7614 60.9509 77.7067 60.7612 77.6847 60.5544C77.6628 60.3475 77.6519 60.1407 77.6519 59.9396V54.9808C76.7754 54.9808 76.0688 55.722 76.0688 56.6414V59.9338C76.0688 60.1349 76.0578 60.336 76.0359 60.5486C76.014 60.7555 75.9592 60.9451 75.8716 61.1175C75.7839 61.2899 75.6525 61.4335 75.4772 61.5484C75.3019 61.6634 75.0499 61.7208 74.7322 61.7208C74.4145 61.7208 74.1625 61.6634 73.9872 61.5484C73.8119 61.4335 73.6804 61.2899 73.5928 61.1175C73.5052 60.9451 73.4504 60.7555 73.4285 60.5486C73.4066 60.3418 73.3956 60.1349 73.3956 59.9338V56.492C72.5191 56.492 71.8125 57.239 71.8125 58.1526V59.9338C71.8125 60.405 71.8563 60.8187 71.944 61.1749C72.0316 61.5312 72.1412 61.8357 72.2726 62.0943C72.4096 62.3529 72.563 62.5655 72.7383 62.7378C72.9135 62.9102 73.0943 63.0481 73.2751 63.1573C73.6969 63.4101 74.1844 63.548 74.7267 63.5653C75.28 63.548 75.7675 63.4101 76.1948 63.1573C76.3755 63.0481 76.5563 62.9102 76.7261 62.7378C76.7699 62.6919 76.8138 62.6459 76.8576 62.5942C76.9014 62.6459 76.9452 62.6919 76.9891 62.7378C77.1644 62.9102 77.3451 63.0481 77.5259 63.1573C77.9477 63.4101 78.4352 63.548 78.9775 63.5653C79.5308 63.548 80.0183 63.4101 80.4456 63.1573C80.6263 63.0481 80.8071 62.9102 80.9769 62.7378C81.1522 62.5655 81.3056 62.3529 81.4425 62.0943C81.5795 61.8357 81.689 61.5312 81.7712 61.1749C81.8534 60.8187 81.8917 60.4107 81.8917 59.9338L81.9082 53.4696Z" fill="white"/>
</svg>
