<svg width="100" height="100" viewBox="0 0 100 100" fill="none" xmlns="http://www.w3.org/2000/svg">
<path d="M25.9023 6.55C25.9023 5.10886 25.9023 4.38829 26.0498 3.79462C26.4963 1.99728 27.8996 0.59393 29.697 0.147468C30.2906 0 31.0112 0 32.4523 0H82.1998C82.7765 0 83.0648 0 83.343 0.0312597C84.1722 0.124415 84.9649 0.423595 85.6488 0.901534C85.8783 1.06191 86.0948 1.25243 86.5276 1.63345L97.1422 10.977C97.6576 11.4307 97.9153 11.6576 98.1319 11.9058C98.7785 12.6468 99.1921 13.562 99.3211 14.5369C99.3644 14.8635 99.3644 15.2069 99.3644 15.8936V88.2927C99.3644 89.7339 99.3644 90.4545 99.2169 91.0481C98.7704 92.8455 97.3671 94.2488 95.5697 94.6953C94.9761 94.8427 94.2555 94.8427 92.8144 94.8427H32.4524C31.0112 94.8427 30.2906 94.8427 29.697 94.6953C27.8996 94.2488 26.4963 92.8455 26.0498 91.0481C25.9023 90.4545 25.9023 89.7339 25.9023 88.2928V6.55Z" fill="#FD3E72"/>
<path d="M84.5625 0L98.8163 12.6092H84.5625V0Z" fill="#5B5863"/>
<rect x="37.4141" y="21.3809" width="50.4366" height="27.4112" fill="#FF5784"/>
<rect x="37.4141" y="53.1777" width="50.4366" height="3.83757" fill="#FF5784"/>
<rect x="37.4141" y="58.6602" width="50.4366" height="4.38579" fill="#FF5784"/>
<rect x="37.4141" y="71.8174" width="50.4366" height="3.83757" fill="#FF5784"/>
<rect x="37.4141" y="77.2993" width="50.4366" height="4.38579" fill="#FF5784"/>
<path d="M0 36.6706C0 35.2295 0 34.5089 0.147468 33.9152C0.59393 32.1179 1.99728 30.7145 3.79462 30.2681C4.38829 30.1206 5.10886 30.1206 6.55 30.1206H45.2572C46.6983 30.1206 47.4189 30.1206 48.0125 30.2681C49.8099 30.7145 51.2132 32.1179 51.6597 33.9152C51.8072 34.5089 51.8072 35.2295 51.8072 36.6706V93.45C51.8072 94.8912 51.8072 95.6118 51.6597 96.2054C51.2132 98.0028 49.8099 99.4061 48.0125 99.8526C47.4189 100 46.6983 100 45.2572 100H6.55C5.10886 100 4.38829 100 3.79462 99.8526C1.99728 99.4061 0.59393 98.0028 0.147468 96.2054C0 95.6118 0 94.8912 0 93.45V36.6706Z" fill="#FD3E72"/>
<path d="M1.80859 35.8577C1.80859 34.9931 1.80859 34.5607 1.89707 34.2045C2.16495 33.1261 3.00696 32.2841 4.08537 32.0162C4.44157 31.9277 4.87391 31.9277 5.73859 31.9277H46.0713C46.936 31.9277 47.3683 31.9277 47.7245 32.0162C48.8029 32.2841 49.645 33.1261 49.9128 34.2045C50.0013 34.5607 50.0013 34.9931 50.0013 35.8577V94.2627C50.0013 95.1274 50.0013 95.5597 49.9128 95.9159C49.645 96.9943 48.8029 97.8364 47.7245 98.1042C47.3683 98.1927 46.936 98.1927 46.0713 98.1927H5.73859C4.87391 98.1927 4.44157 98.1927 4.08537 98.1042C3.00696 97.8364 2.16495 96.9943 1.89707 95.9159C1.80859 95.5597 1.80859 95.1274 1.80859 94.2627V35.8577Z" fill="white"/>
<rect x="9.63672" y="74.6982" width="32.5301" height="4.21686" fill="#FCEDF1"/>
<rect x="9.63672" y="80.7227" width="32.5301" height="4.21686" fill="#FCEDF1"/>
<rect x="9.63672" y="86.7471" width="32.5301" height="4.21686" fill="#FCEDF1"/>
<g opacity="0.3">
<path d="M25.6121 71.6837C34.4351 71.6837 41.5875 64.5313 41.5875 55.7083C41.5875 46.8853 34.4351 39.7329 25.6121 39.7329C16.7891 39.7329 9.63672 46.8853 9.63672 55.7083C9.63672 64.5313 16.7891 71.6837 25.6121 71.6837Z" fill="#FFCFDC"/>
<path d="M39.0793 63.2985C39.0793 63.2985 38.674 63.3657 38.6067 63.3885C38.5394 63.4113 38.3593 63.4336 38.2914 63.5026C38.2236 63.5715 38.2014 63.4803 37.9762 63.5476C37.751 63.6149 37.6837 63.5698 37.8188 63.3224C37.9539 63.075 37.8638 63.0071 37.841 62.827C37.8182 62.6468 38.0885 62.5345 37.6387 62.5117C37.1888 62.4889 37.166 62.3977 36.8507 62.579C36.5355 62.7603 36.288 62.9393 36.288 62.9393L35.9728 62.7591C35.9728 62.7591 35.6124 62.3766 35.5452 62.3538C35.4335 62.3372 35.3206 62.3298 35.2076 62.3315C35.1687 62.1924 35.1611 62.0464 35.1854 61.9039C35.2305 61.7015 35.1632 61.6337 35.0281 61.7015C34.8929 61.7694 34.6455 61.9039 34.6455 61.9039C34.6455 61.9039 34.2402 61.949 33.9927 62.0841C33.7453 62.2192 33.7225 62.3093 33.3177 62.2643C32.9129 62.2192 32.8901 62.5795 32.5765 62.3783C32.263 62.177 32.1039 62.108 31.9688 61.9507C31.8337 61.7933 31.7436 61.8834 31.7886 62.1217C31.8337 62.36 32.1261 62.3133 31.8223 62.4142C31.5184 62.5151 31.361 62.3692 31.4169 62.7181C31.4728 63.067 31.4842 63.303 31.3833 63.303C31.2824 63.303 31.0452 63.0442 31.2259 62.819C31.4066 62.5938 31.2373 62.4701 31.2373 62.4701C31.2373 62.4701 31.316 62.299 31.4289 62.2785C31.5418 62.258 31.6313 62.0083 31.4175 62.0419C31.2037 62.0755 31.2151 61.9746 31.1586 62.1656C31.1022 62.3566 31.0572 62.4022 30.8434 62.4581C30.6296 62.514 30.6068 62.4581 30.4494 62.5721C30.2921 62.6861 30.4494 62.7295 30.2128 62.7295C29.9762 62.7295 29.9089 62.7967 29.9089 62.9769C29.9089 63.1571 29.8303 63.1685 29.7288 63.2808C29.6273 63.3931 29.6051 63.4159 29.5264 63.506C29.4796 63.5548 29.4517 63.6187 29.4477 63.6861C29.4363 63.7312 29.3462 63.7534 29.2904 63.7312C29.2345 63.7089 29.1552 63.6075 28.9528 63.4723C28.7504 63.3372 28.6153 63.2808 28.3787 63.2808C28.1421 63.2808 27.9397 63.7648 27.6136 63.6069C27.2875 63.449 27.3212 63.4153 27.1296 63.2916C26.938 63.1679 26.9945 63.1451 26.9586 62.9763C26.9226 62.8076 26.8571 62.7848 26.9472 62.6502C27.0372 62.5157 27.0486 62.425 27.0372 62.144C27.0258 61.8629 27.2396 61.4798 27.0372 61.3675C26.8348 61.2551 27.2738 61.2323 26.6319 61.2101C25.9899 61.1879 26.1142 61.0527 25.6866 61.12C25.259 61.1873 25.0224 61.2437 24.8987 61.234C24.775 61.2244 24.5834 61.177 24.8086 60.9752C25.0338 60.7734 25.1125 60.9079 25.1011 60.6491C25.0897 60.3903 24.9996 60.1879 25.1347 60.2665C25.2699 60.3452 25.3599 60.2215 25.45 60.1092C25.5401 59.9969 25.3035 59.7603 25.5401 59.5693C25.7767 59.3783 25.9791 59.2654 25.6188 59.2654C25.2585 59.2654 25.5515 59.0944 25.0789 59.1417C24.6062 59.189 24.6176 59.1639 24.5948 59.3127C24.572 59.4615 24.2345 59.1776 24.3924 59.5379C24.5504 59.8982 24.5635 60.0778 24.4147 60.1006C24.286 60.1108 24.1582 60.1298 24.0321 60.1577C23.6832 60.2249 23.4694 60.4729 23.3793 60.3042C23.2893 60.1354 23.4363 60.0904 23.1769 60.0904C22.9175 60.0904 22.8845 60.1919 22.7944 59.8429C22.7043 59.494 22.3218 59.1788 22.4905 59.1788C22.6593 59.1788 22.637 58.9986 22.5578 58.8076C22.4785 58.6166 22.5008 58.3572 22.5008 58.1548C22.5008 57.9524 22.4894 57.6035 22.6359 57.7272C22.7824 57.8509 22.7932 57.7723 22.7932 57.5562C22.7932 57.3401 22.6131 57.1959 22.7482 57.0049C22.8833 56.8139 22.7368 56.8247 23.0293 56.7124C23.3217 56.6001 23.2317 56.5887 23.5247 56.5773C23.8178 56.5659 23.8064 56.6223 23.9187 56.4986C24.031 56.3749 23.9301 56.1383 24.076 56.262C24.222 56.3857 24.1433 56.3521 24.4472 56.3293C24.751 56.3065 24.9198 56.4308 24.9534 56.1999C24.9871 55.969 24.8634 55.9467 25.2237 55.9239C25.584 55.9011 25.7527 55.8789 25.9078 55.8903C26.0629 55.9017 26.0789 55.7888 26.1102 55.9804C26.1416 56.1719 26.324 56.0944 26.4591 56.0704C26.5942 56.0465 26.6057 55.8681 26.7294 55.9804C26.8531 56.0927 27.1233 56.217 27.1798 56.3515C27.2362 56.4861 27.2938 56.5431 27.2368 56.7569C27.1798 56.9707 27.0657 57.0493 27.2031 57.1622C27.3405 57.2751 27.4055 57.2192 27.4169 57.3874C27.4283 57.5556 27.5635 57.7027 27.5743 57.7814C27.5851 57.8601 27.7658 57.9165 27.8217 57.8954C27.8776 57.8743 28.1142 57.6816 27.9454 57.0853C27.7767 56.4889 27.8782 56.4661 27.7989 56.14C27.7197 55.8139 27.6638 55.7797 27.8662 55.4872C28.0686 55.1947 28.1136 55.0933 28.3502 54.9809C28.5868 54.8686 28.6655 54.8008 28.8457 54.5305C29.0258 54.2603 29.1946 54.1702 29.4198 54.0693C29.645 53.9684 29.4534 53.9399 29.4591 53.8276C29.4648 53.7153 29.6108 53.7706 29.7065 53.7096C29.8023 53.6486 29.8776 53.6309 29.8246 53.5385C29.7715 53.4462 29.6444 53.5608 29.6615 53.4878C29.6786 53.4148 29.9146 53.2854 29.8531 53.2176C29.7915 53.1497 29.7065 53.1218 29.5885 53.1839C29.4705 53.2461 29.3468 53.2062 29.397 53.1332C29.4471 53.0602 29.5264 53.1725 29.5042 52.9473C29.4819 52.7221 29.3297 52.4411 29.4027 52.3202C29.4756 52.1993 29.4984 52.0921 29.5099 52.4342C29.5213 52.7763 29.4762 53.1263 29.6336 53.0249C29.7909 52.9234 29.926 52.839 29.8417 52.6366C29.7573 52.4342 29.6279 52.327 29.7847 52.3949C29.9414 52.4627 29.9084 52.6873 30.0264 52.5522C30.1444 52.4171 30.308 52.2706 30.2065 52.1583C30.1051 52.046 30.1843 51.9165 30.1894 51.843C30.1946 51.7694 30.0714 51.6685 30.2567 51.6628C30.442 51.6571 30.6113 51.7643 30.6957 51.6058C30.7801 51.4473 30.8531 51.4034 30.7293 51.42C30.6056 51.4365 30.4648 51.5437 30.3873 51.5214C30.3097 51.4992 30.5281 51.3806 30.7134 51.347C30.8987 51.3133 30.7248 51.2626 30.9049 51.2569C31.0851 51.2512 31.2989 51.3019 31.304 51.1839C31.3092 51.0659 31.141 50.9365 31.076 50.9758C31.011 51.0152 30.962 50.9758 30.9688 50.8687C30.9756 50.7615 31.1039 50.6976 31.1547 50.5705C31.2054 50.4433 31.4249 50.2358 31.4865 50.1976C31.548 50.1594 31.7715 50.2911 31.8149 50.1281C31.8582 49.965 31.8673 49.9 31.8975 49.8875C31.9277 49.8749 32.0115 49.9291 32.0629 49.8265C32.1142 49.7239 32.1877 49.4975 32.2025 49.6554C32.2174 49.8134 32.1649 49.8419 32.3052 49.7221C32.4454 49.6024 32.4979 49.4525 32.5058 49.5511C32.5138 49.6497 32.5629 49.7164 32.6199 49.6486C32.6769 49.5808 32.6706 49.7484 32.5879 49.7626C32.5053 49.7769 32.3496 49.5916 32.3639 49.774C32.3781 49.9565 32.3006 49.831 32.2829 49.9867C32.2652 50.1423 32.2653 50.4821 32.4602 50.3168C32.6552 50.1514 32.6227 50.0317 32.759 49.9291C32.8718 49.8519 32.9901 49.7831 33.113 49.7233L33.3211 49.469C33.3211 49.469 33.4756 49.3709 33.2983 49.3709C33.121 49.3709 33.1763 49.3407 33.0378 49.3869C32.8992 49.4331 32.8331 49.4205 32.759 49.3544C32.6849 49.2883 32.702 49.2655 32.5423 49.2735C32.3827 49.2814 32.3582 49.3094 32.2824 49.0671C32.2065 48.8248 32.4534 48.8419 32.2065 48.8253C31.9597 48.8088 31.9813 48.8196 31.8354 48.8675C31.6894 48.9154 31.633 48.8761 31.7282 48.7968C31.8234 48.7176 31.942 48.7575 32.0703 48.6954C32.1985 48.6332 32.4072 48.656 32.2812 48.5038C32.1902 48.4066 32.0702 48.3415 31.9391 48.3179L31.4437 48.526L31.1398 48.798C31.1398 48.798 30.9768 49.0129 30.881 49.14C30.7852 49.2672 30.6279 49.3755 30.7179 49.2182C30.808 49.0608 30.9317 48.8077 31.06 48.6725C31.1669 48.5693 31.2796 48.4722 31.3975 48.3818C31.5155 48.2786 31.5041 48.0198 31.6735 47.9918C31.8428 47.9639 32.0024 47.9804 32.3006 47.9468C32.5988 47.9131 32.9437 47.8898 33.0503 47.8328C33.1569 47.7757 33.1712 47.6828 33.2128 47.5779C33.2544 47.473 33.2578 47.4918 33.4249 47.4525C33.5919 47.4131 33.5919 47.2182 33.5919 47.1207C33.5919 47.0232 33.4112 46.9856 33.3815 46.8578C33.3519 46.7301 33.3924 46.6252 33.2972 46.6925C33.202 46.7598 33.2322 46.9251 33.1797 46.8578C33.1273 46.7906 33.2624 46.603 33.0748 46.648C32.8873 46.6931 32.9773 46.6258 32.7972 46.8356C32.617 47.0454 32.5081 47.0066 32.6187 46.8356C32.7293 46.6646 32.9608 46.5631 33.0372 46.5272C33.1136 46.4913 32.8947 46.4462 32.6621 46.4086C32.4996 46.3848 32.3466 46.3172 32.2196 46.213C32.1671 46.176 32.1037 46.1576 32.0395 46.1606C32.0172 46.1606 31.9796 46.0779 31.747 45.8607C31.5144 45.6435 31.2145 45.3579 31.0629 45.1931C30.9112 45.0283 30.8827 44.7803 30.8451 45.0129C30.8074 45.2455 30.9352 45.3579 30.7852 45.4405C30.6353 45.5232 30.6934 45.5682 30.548 45.6116C30.4027 45.6549 30.4534 45.6264 30.3303 45.5813C30.2071 45.5363 30.08 45.6338 30.0726 45.5363C30.0652 45.4388 30.32 45.5739 30.0948 45.3561C29.8696 45.1384 30.0013 45.2632 30.007 45.0967C30.0127 44.9303 29.6917 44.9092 29.5042 44.8641C29.3166 44.8191 29.4141 44.7216 29.1592 44.7068C28.9966 44.6987 28.835 44.6761 28.6763 44.6395C28.6113 44.6247 28.1763 44.542 28.1763 44.542C28.1763 44.542 28.011 44.3322 28.0053 44.5871C27.9996 44.8419 27.9979 44.8647 27.9979 44.9696C27.9979 45.0745 28.1222 45.2301 28.1222 45.2301C28.1222 45.2301 28.2812 45.1161 28.3149 45.2079C28.3485 45.2997 28.0446 45.3487 27.966 45.4046C27.8873 45.4605 27.8479 45.4217 28.0167 45.5563C28.1855 45.6908 28.332 45.7273 28.3713 45.8094C28.4107 45.8915 28.4785 46.046 28.4785 46.046C28.4785 46.046 28.653 46.1697 28.5629 46.1811C28.4728 46.1925 28.4899 46.2205 28.3662 46.3892C28.2605 46.5333 28.1163 46.6446 27.95 46.7102C27.8263 46.7552 27.8092 46.7672 27.8542 46.924C27.8993 47.0808 28.0344 47.0591 28.0623 47.2056C28.0902 47.3521 28.0104 47.2626 28.1193 47.4553L28.2276 47.648C28.2276 47.648 28.1136 47.538 28.1815 47.6954C28.2493 47.8527 28.2385 47.9764 28.1478 47.8305C28.0572 47.6845 28.1028 47.6389 28.0241 47.7165C27.9454 47.794 27.934 47.8065 28.0019 47.9131C28.0697 48.0198 28.1484 48.2056 28.0692 48.099C27.9899 47.9924 27.9848 47.871 27.8611 47.9245C27.7373 47.9781 27.653 48.0836 27.5965 48.0716C27.5401 48.0597 27.6022 47.9131 27.6022 47.9131L27.7094 47.6936L27.5349 47.5528C27.5349 47.5528 27.275 47.6258 27.3685 47.5135C27.462 47.4012 27.304 47.367 27.2544 47.367C27.2048 47.367 27.0407 47.2432 27.1701 47.2432C27.2995 47.2432 27.3155 47.2547 27.3696 47.1646C27.4238 47.0745 27.328 46.9565 27.2887 46.8829C27.2493 46.8094 27.328 46.6355 27.1592 46.6355C26.9905 46.6355 26.7031 46.6805 26.6461 46.6412C26.5891 46.6019 26.4996 46.5061 26.3702 46.4702C26.2408 46.4342 26.072 46.4873 26.0099 46.4924C25.9477 46.4975 25.9876 46.3983 25.9426 46.3413C25.8976 46.2843 25.7345 46.2336 25.6895 46.2273C25.6444 46.221 25.5714 46.2102 25.5714 46.2102C25.5363 46.1938 25.5067 46.1675 25.4864 46.1344C25.4661 46.1014 25.4561 46.0631 25.4574 46.0243C25.4574 45.8835 25.3616 45.7541 25.2773 45.8328C25.2214 45.8866 25.1689 45.9437 25.1199 46.0038C25.1199 46.0038 24.9455 45.7672 24.9683 45.6663C24.9911 45.5654 25.0863 45.6156 25.0863 45.4953C25.0863 45.375 25.0977 45.4839 25.1935 45.3322C25.2892 45.1805 25.3001 45.0397 25.4637 45.062C25.6273 45.0842 25.7339 45.1127 25.7453 44.8909C25.7567 44.6691 25.779 44.424 25.9164 44.3339C26.0538 44.2438 25.9386 44.3453 26.1131 44.2199C26.2875 44.0945 26.4055 44.034 26.2932 44.0004C26.1809 43.9668 26.1074 44.0397 26.023 43.9611C25.9386 43.8824 25.7949 43.8202 25.9836 43.8373C26.1724 43.8544 26.2653 43.9725 26.3548 43.9445C26.4508 43.9001 26.5327 43.8301 26.5914 43.7421C26.6136 43.6971 26.6421 43.7644 26.6929 43.7028C26.7436 43.6412 26.7043 43.5848 26.8337 43.6458C26.9631 43.7068 27.0139 43.7245 27.0196 43.6178C27.0253 43.5112 27.1547 43.477 27.1547 43.3898C27.1547 43.3026 27.0475 43.3619 27.0082 43.2096C26.9688 43.0574 26.9181 42.9337 26.8565 42.8944C26.7949 42.855 26.71 42.7649 26.6199 42.8322C26.5298 42.8995 26.4791 42.9052 26.4962 42.9953C26.504 43.0586 26.4943 43.1229 26.4683 43.1811C26.4137 43.2214 26.3629 43.2666 26.3166 43.3163C26.2094 43.4229 26.2265 43.6424 26.1364 43.3949C26.0464 43.1475 26.0692 43.0574 25.9791 43.0346C25.9272 43.0132 25.8693 43.0112 25.816 43.0289C25.7374 43.046 25.7317 43.0403 25.6136 43.0289C25.4956 43.0175 25.4506 42.9502 25.4392 43.0346C25.4278 43.119 25.4335 43.2056 25.4785 43.2148C25.5236 43.2239 25.4671 43.249 25.332 43.3163C25.2647 43.3481 25.2006 43.3863 25.1404 43.4303C25.1404 43.4303 25.2978 43.5204 25.2026 43.5711C25.1074 43.6218 25.1239 43.6498 25.0732 43.6218C25.0224 43.5939 24.9215 43.5432 24.966 43.4508C24.9838 43.4025 25.0084 43.357 25.039 43.3157C25.1062 43.2142 25.1906 43.1692 25.1963 43.1412C25.202 43.1133 25.1342 43.034 25.0253 42.9702C24.9164 42.9063 24.8451 42.7991 24.7607 42.8744C24.6935 42.9246 24.6295 42.9791 24.5692 43.0375C24.5469 43.0711 24.6872 43.0597 24.7402 43.0768C24.7932 43.0939 24.8303 43.2062 24.8303 43.2062C24.8278 43.2251 24.8202 43.2429 24.8083 43.2577C24.7965 43.2726 24.7808 43.2839 24.763 43.2906C24.7009 43.3134 24.6057 43.3579 24.6057 43.3579C24.6057 43.3579 24.7351 43.4651 24.4483 43.3465C24.1615 43.2279 24.0658 43.1384 23.8212 43.0147C23.5766 42.8909 23.568 42.7729 23.5002 42.8909C23.4324 43.009 23.5623 43.0318 23.3708 43.062C23.1792 43.0922 23.157 43.0734 23.1119 43.1464C23.0806 43.2063 23.0596 43.271 23.0498 43.3379L23.0384 43.4394C23.0384 43.4394 22.9711 43.5409 22.9483 43.5466C22.9079 43.5462 22.8684 43.5345 22.8343 43.5129C22.8121 43.4958 22.8736 43.3664 22.8736 43.3385C22.8514 43.2787 22.8231 43.2214 22.7893 43.1674C22.7893 43.1674 22.7106 43.0266 22.6091 43.0494C22.5197 43.0659 22.4295 43.0771 22.3389 43.0831C22.3389 43.0831 22.0629 42.993 22.08 42.9537C22.0971 42.9143 22.2511 42.9143 22.2374 42.8864C22.2237 42.8584 22.2824 42.8265 22.1023 42.806C21.9221 42.7855 21.6462 42.7119 21.6462 42.5779C21.6462 42.444 21.5395 42.4263 21.3816 42.4314C21.2237 42.4366 21.3759 42.2906 21.1901 42.3527C21.0042 42.4149 20.9141 42.3374 20.9141 42.3374C20.9141 42.3374 20.9814 42.2627 20.706 42.2684C20.4307 42.2741 20.5202 42.2855 20.3965 42.3305C20.2727 42.3755 20.267 42.3413 20.2556 42.2684C20.2442 42.1954 20.1205 42.1732 20.0361 42.184C19.9799 42.1943 19.9276 42.2195 19.8845 42.257C19.8762 42.1767 19.8514 42.099 19.8115 42.0289C19.7385 41.8824 19.8337 41.9217 19.6707 41.8716C19.5076 41.8214 19.3332 41.7421 19.4455 41.68C19.5578 41.6179 19.7551 41.4941 19.6199 41.3989C19.4848 41.3037 19.5128 41.2849 19.2881 41.3368C19.0635 41.3887 18.99 41.2917 18.9113 41.3989C18.8326 41.5061 18.9227 41.4947 18.6832 41.5848C18.4438 41.6749 18.4974 41.6241 18.3851 41.7815C18.2727 41.9388 18.267 41.9896 18.2334 41.928C18.1998 41.8664 18.2556 41.6914 18.3628 41.5677C18.4304 41.4819 18.49 41.3901 18.5407 41.2935C18.3301 41.3984 18.1222 41.508 17.917 41.6224C17.8652 41.6619 17.8301 41.7196 17.8189 41.7838C17.7887 42.0015 17.933 42.1013 17.7665 42.1338C17.6 42.1663 17.5487 42.2866 17.4586 42.294C17.3685 42.3014 17.4284 42.2267 17.2112 42.2114C17.1034 42.2039 17.0487 42.1817 16.9866 42.1811C16.6521 42.3982 16.3263 42.6262 16.0094 42.8653C16.1804 43.0739 16.1644 43.2307 16.1644 43.2307L15.75 43.5095L15.1992 43.6657C15.1992 43.6657 15.3908 43.8294 15.7289 43.7473C16.0669 43.6652 16.2693 43.2706 16.2579 43.4286C16.2465 43.5865 16.0555 43.6612 15.9541 43.7706C15.8526 43.8801 16.303 43.733 16.3931 43.6201C16.4831 43.5072 16.5846 43.0911 16.7083 43.1811C16.7843 43.2396 16.8364 43.3237 16.8549 43.4177L16.6633 43.6093L16.9449 43.7478L17.3611 43.9696C17.3611 43.9696 17.3834 43.9696 17.3611 44.0933C17.3389 44.217 17.2636 44.2433 17.3013 44.2923C17.3389 44.3413 17.3343 44.3373 17.2653 44.4497C17.2011 44.5434 17.1428 44.641 17.0909 44.7421C17.0761 44.7912 17.1696 44.8208 17.1998 44.7421C17.23 44.6634 17.2824 44.5506 17.2824 44.5506C17.2824 44.5506 17.425 44.2917 17.4586 44.3225C17.4854 44.3546 17.5058 44.3916 17.5185 44.4314L17.4045 44.7051C17.4045 44.7051 17.393 44.7763 17.3782 44.8436C17.3634 44.9109 17.3856 44.9263 17.348 44.9576C17.3104 44.989 17.2277 44.8527 17.3104 44.9878C17.393 45.123 17.3628 45.123 17.3104 45.1828C17.2579 45.2427 17.2009 45.2581 17.2671 45.3179C17.3332 45.3778 17.4227 45.2279 17.4603 45.2729C17.498 45.3179 17.543 45.2803 17.5202 45.3704C17.4974 45.4605 17.6148 45.5129 17.5265 45.5654C17.4381 45.6178 17.3138 45.4901 17.2671 45.5055C17.2203 45.5209 17.1981 45.5158 17.1827 45.5785C17.1673 45.6412 17.1154 45.6709 17.1827 45.7159C17.2499 45.7609 17.1678 45.8208 17.1604 45.8658C17.153 45.9109 17.5595 45.7381 17.4079 45.8658C17.2562 45.9935 17.2277 46.001 17.1827 46.1207C17.1376 46.2404 17.055 46.3459 17.1525 46.3459C17.2499 46.3459 17.3235 46.2108 17.3851 46.2108C17.4466 46.2108 17.405 46.278 17.3315 46.3459C17.2579 46.4137 17.1302 46.3385 17.0852 46.436C17.0571 46.503 17.0102 46.5604 16.9501 46.6013C16.8828 46.6612 16.8902 46.6765 16.9803 46.7512C17.0704 46.8259 17.2984 46.721 17.2653 46.7512C17.2323 46.7815 17.1941 46.7815 17.1513 46.8299C17.1086 46.8784 17.0612 46.9479 17.1422 46.9348C17.2048 46.9299 17.265 46.9085 17.3167 46.8727C17.3543 46.8407 17.4723 46.7712 17.4084 46.8464C17.3446 46.9217 17.2978 46.8989 17.307 46.9605C17.3161 47.022 17.3406 46.9793 17.3332 47.0391C17.3258 47.099 17.3258 47.1366 17.3554 47.1532C17.3771 47.1561 17.3991 47.153 17.4192 47.1444C17.4393 47.1358 17.4566 47.1219 17.4694 47.1041C17.4843 47.0739 17.5595 47.0591 17.5219 47.119C17.4843 47.1788 17.4079 47.2239 17.4432 47.2843C17.4786 47.3447 17.5105 47.3932 17.5105 47.3932L17.4615 47.5135L17.4466 47.7199C17.4227 47.8198 17.3901 47.9175 17.3491 48.0118C17.2967 48.1167 17.214 48.3487 17.214 48.3487H17.1091L17.1314 47.9633C17.1314 47.9633 17.0937 47.7353 17.0715 47.7107C17.0493 47.6862 16.9962 47.6669 16.9575 47.7421C16.9319 47.797 16.9119 47.8543 16.8976 47.9131C16.9018 47.9639 16.8913 48.0147 16.8674 48.0597C16.8375 48.1196 16.8173 48.1838 16.8075 48.2501C16.8075 48.2501 16.6576 48.3151 16.5675 48.5477C16.4774 48.7803 16.4187 48.7792 16.3731 48.9741C16.3275 49.1691 16.4027 49.2814 16.2226 49.3938C16.0424 49.5061 16.0128 49.4382 15.9598 49.6486C15.9067 49.859 15.99 49.8738 15.8925 50.0614C15.795 50.2489 15.7351 50.2489 15.7214 50.4063C15.7078 50.5636 15.6451 50.7181 15.6456 50.847C15.6462 50.9758 15.5476 51.0813 15.6456 51.1714C15.7437 51.2615 15.6912 51.2541 15.7437 51.2615C15.7961 51.2689 15.7813 51.2016 15.8862 51.2615C15.9911 51.3213 16.0738 51.2392 15.9911 51.3213C15.9085 51.4034 15.8771 51.4416 15.8771 51.4416C15.8771 51.4416 15.8246 51.3818 15.8018 51.4867C15.779 51.5916 15.6815 51.583 15.6969 51.636C15.7235 51.6894 15.759 51.7378 15.8018 51.7791C15.8018 51.7791 15.6217 51.794 15.7118 51.9741C15.8018 52.1543 15.787 52.1167 15.787 52.2592C15.7861 52.3407 15.7988 52.4219 15.8246 52.4992L15.9523 52.7141L16.0664 52.859C16.0664 52.859 15.9689 52.8664 16.1416 52.9867C16.3144 53.107 16.299 52.8726 16.344 53.144C16.3705 53.2697 16.3808 53.3983 16.3748 53.5266L16.4962 53.6839C16.5281 53.7754 16.5401 53.8725 16.5316 53.969C16.5242 54.1577 16.5316 54.038 16.5316 54.2706C16.5316 54.5032 16.5316 54.5556 16.6217 54.713C16.7118 54.8703 16.9141 54.9456 16.9518 55.0357C16.9775 55.1259 16.9902 55.2195 16.9894 55.3133C16.9894 55.3133 16.9968 55.3806 17.0196 55.4935C17.0424 55.6064 17.0048 55.5762 16.9056 55.4633C16.8064 55.3504 16.7254 55.4781 16.7254 55.4781C16.7215 55.5142 16.7263 55.5508 16.7394 55.5847C16.7525 55.6186 16.7735 55.6489 16.8007 55.6731C16.8982 55.778 17.0635 55.9507 17.0635 55.9507C17.0635 55.9507 17.1234 55.9057 17.1684 56.1007C17.2135 56.2956 17.2619 56.2432 17.2602 56.4005C17.2585 56.5579 17.1986 56.7609 17.4535 56.9707C17.7083 57.1805 17.5738 57.091 17.6787 57.331C17.7481 57.5096 17.8616 57.6677 18.0088 57.7905C18.1137 57.8715 18.429 58.205 18.234 57.7905C18.039 57.376 17.9369 57.4 17.8526 57.2603C17.7682 57.1206 17.8588 56.9707 17.7385 56.5955C17.6182 56.2204 17.4233 55.847 17.3782 55.5836C17.3332 55.3202 17.348 55.0528 17.153 54.6087C16.958 54.1645 16.8377 53.9097 17.0179 54.0294C17.1981 54.1491 17.4233 53.9393 17.4381 54.1947C17.4529 54.4502 17.4683 54.8327 17.4683 54.8327C17.4683 54.8327 17.4683 54.9 17.6336 55.2888C17.799 55.6776 17.9039 55.6942 17.9786 55.7689C18.0532 55.8435 18.1137 56.0841 18.1137 56.0841C18.1137 56.0841 18.4438 56.2192 18.4438 56.339C18.4438 56.4587 18.3087 56.3988 18.4438 56.6543C18.5789 56.9097 18.3987 56.6993 18.5789 56.9091C18.6927 57.0441 18.7931 57.1898 18.8788 57.3441L19.3457 57.9336C19.3524 58.0391 19.3832 58.1417 19.4358 58.2335C19.5259 58.3988 19.6815 58.3851 19.58 58.5094C19.4786 58.6337 19.3434 58.6668 19.409 58.7061C19.4746 58.7455 19.4934 58.7683 19.4426 58.8133C19.3919 58.8583 19.5681 59.0414 19.6433 59.2694C19.7186 59.4975 19.8235 59.5168 19.966 59.652C20.0621 59.7313 20.139 59.8313 20.1912 59.9444C20.2813 60.1018 20.169 59.9821 20.4614 60.087C20.7539 60.1919 20.8742 60.3418 20.9415 60.3868C21.0088 60.4319 21.1479 60.4621 21.6319 60.7095C22.1159 60.957 22.2511 61.0807 22.4871 61.1599C22.7231 61.2392 22.7573 61.3401 22.9375 61.295C23.1176 61.25 23.2077 61.1485 23.32 61.205C23.4324 61.2614 23.3651 61.396 23.5224 61.3059C23.6798 61.2158 23.7026 61.2306 23.7476 61.3361C23.7927 61.4416 24.0851 61.6326 24.0851 61.6326C24.0851 61.6326 23.8599 61.734 24.2317 61.9587C24.5737 62.1645 24.8998 62.3315 25.023 62.3007C25.0276 62.3213 25.0618 62.3521 25.1427 62.3994C25.4916 62.6018 25.5931 62.7369 25.6832 62.8384C25.7733 62.9398 25.8405 63.1536 25.8297 63.2209C25.8189 63.2882 25.8519 63.3783 25.9762 63.4347C26.1005 63.4912 26.2687 63.4569 26.4038 63.5487C26.5389 63.6405 26.3702 63.6725 26.6176 63.7853C26.738 63.846 26.8671 63.8877 27.0002 63.9091L27.1353 63.852L27.4956 63.9091C27.4956 63.9091 27.653 63.9991 27.6666 64.0664C27.6803 64.1337 27.588 64.1901 27.7237 64.2466C27.7587 64.2638 27.7972 64.2728 27.8363 64.2728C27.8753 64.2728 27.9138 64.2638 27.9489 64.2466C27.9489 64.2466 28.2978 64.1896 28.2299 64.0664C28.1621 63.9433 27.9146 63.9649 28.0948 63.8526C28.275 63.7403 28.3536 63.6953 28.4323 63.6502C28.511 63.6052 28.5463 63.5715 28.6798 63.7072C28.8132 63.8429 28.8935 63.685 28.8149 63.8424C28.7362 63.9997 28.7311 64.0447 28.8462 64.0561C28.9169 64.0638 28.984 64.0911 29.0401 64.1348C29.0401 64.1348 29.1866 64.1958 29.1866 64.2722C29.1866 64.3486 29.0726 64.3258 29.0851 64.4273C29.0977 64.5288 28.9278 64.4946 29.0064 64.5983C29.0851 64.7021 28.9392 64.7449 28.995 64.8572C29.0509 64.9695 28.881 64.9809 29.0064 65.1388C29.1319 65.2967 29.0515 65.4313 28.8263 65.4991C28.6011 65.567 28.6912 65.3851 28.5674 65.6228C28.4437 65.8606 28.4774 65.8703 28.3725 65.9005C28.2326 65.9522 28.0971 66.015 27.9671 66.0881C27.7869 66.1781 27.8097 65.998 27.7197 66.2591C27.6296 66.5202 27.7197 66.5219 27.5395 66.6719C27.3594 66.8218 27.3896 66.9946 27.3896 66.9946C27.3896 66.9946 28.0737 66.9119 27.8023 67.0846C27.531 67.2574 27.5247 67.287 27.4574 67.3623C27.4135 67.4117 27.3733 67.4643 27.3371 67.5196L27.2168 67.7374L27.1866 67.9923C27.1866 67.9923 27.2465 67.9398 27.4494 68.0749C27.6524 68.2101 27.6969 68.2175 27.7271 68.2625C27.8253 68.442 27.9492 68.6062 28.0948 68.75C28.224 68.8875 28.3631 69.0154 28.511 69.1325C28.6125 69.2112 28.7134 69.1776 28.7026 69.3127C28.6917 69.4478 28.6803 69.3913 28.9392 69.47C29.198 69.5487 29.3668 69.6274 29.5469 69.6274C29.7271 69.6274 30.1433 69.6947 30.267 69.6947C30.3907 69.6947 30.4694 69.6832 30.3907 69.7733C30.312 69.8634 30.1655 70.2009 29.9745 70.3925C29.7835 70.584 29.7271 70.6964 29.4568 70.7864C29.1866 70.8765 29.0292 70.9575 28.8605 71.0116C28.6917 71.0658 28.58 71.3132 28.5794 71.3155C30.9804 70.8683 33.2471 69.8773 35.2058 68.4185C37.1645 66.9596 38.7631 65.0717 39.8792 62.8994L39.552 62.9433L39.0793 63.2985ZM31.1153 46.3721C31.1723 46.3419 31.2464 46.4097 31.3029 46.4548C31.3343 46.4868 31.3761 46.5066 31.4208 46.5107C31.4655 46.5148 31.5102 46.5028 31.5469 46.477C31.6609 46.4097 31.7305 46.4508 31.8434 46.4992C31.9562 46.5477 31.8285 46.6007 31.682 46.6566C31.5355 46.7125 31.6558 46.709 31.5247 46.709C31.3935 46.709 31.4836 46.7803 31.442 46.8368C31.4004 46.8932 31.2955 46.7227 31.1421 46.5967C30.9887 46.4707 30.995 46.4365 31.1153 46.3721ZM25.4711 48.9154C25.9101 48.7689 25.8086 48.6623 26.0675 48.8618C26.3263 49.0614 26.45 48.9394 26.4836 49.1412C26.5173 49.343 26.8098 49.5146 26.8098 49.5146L27.2151 49.591L27.8229 49.7181C27.8229 49.7181 28.007 49.782 28.0481 49.924C28.0891 50.0659 28.2191 50.1246 27.9694 50.1224C27.7819 50.112 27.5966 50.0773 27.4181 50.0192C27.4181 50.0192 27.3554 50.0762 27.3639 50.323C27.3725 50.5699 27.4853 50.5254 27.3166 50.672C27.1478 50.8185 26.7539 50.9422 27.0578 50.9308C27.3616 50.9194 27.5977 50.7598 27.7328 50.8521C27.8679 50.9445 27.9568 50.7381 28.0925 50.7284C28.2282 50.7187 28.0703 50.6258 28.239 50.5004C28.4078 50.3749 28.4249 50.2871 28.6752 50.3099C28.9255 50.3327 28.8804 50.2529 29.117 50.2529C29.3536 50.2529 29.5446 50.4542 29.2311 50.4998C28.9175 50.5454 28.8707 50.489 28.6233 50.5904C28.3759 50.6919 28.3759 50.5334 28.3194 50.7615C28.263 50.9895 28.4768 50.953 28.1729 51.0653C27.869 51.1777 28.0378 51.0939 27.6889 51.1469C27.34 51.1999 27.4186 51.2227 27.1376 51.2005C26.8565 51.1782 26.6199 51.1782 26.755 50.9639C26.8901 50.7495 27.2391 50.8287 27.1604 50.5813C27.0817 50.3339 26.9688 50.3675 26.8115 50.424C26.6541 50.4804 26.8844 50.2142 26.8873 50.1224C26.8901 50.0306 26.8001 49.9137 26.6313 49.8818C26.4626 49.8498 26.4603 49.6936 26.316 49.924C26.1718 50.1543 26.1695 49.9895 26.1136 50.1224C26.0578 50.2552 26.0236 50.1075 26.0236 50.5021C26.0236 50.8966 26.1022 51.1389 25.7647 51.209C25.4272 51.2791 25.3936 50.7261 25.5395 50.5021C25.6855 50.278 25.8206 50.1132 25.641 50.1224C25.4614 50.1315 25.6524 49.8014 25.8548 49.7638C26.0572 49.7261 26.1473 49.7438 26.316 49.7181C26.4848 49.6925 26.6199 49.7147 26.6421 49.6703C26.6644 49.6258 26.462 49.3892 26.2596 49.4285C26.0572 49.4679 26.2145 49.4855 25.9557 49.5152C25.6969 49.5448 25.4494 49.5015 25.5167 49.4285C25.584 49.3556 25.645 49.3556 25.4597 49.2877C25.2744 49.2199 25.4734 48.9154 25.4734 48.9154H25.4711ZM23.8919 47.1851C24.0196 47.1657 23.9067 47.0848 23.9295 46.957C23.9523 46.8293 24.072 46.8898 24.3349 46.8972C24.3349 46.8972 24.3799 46.9873 24.2596 47.0175C24.1393 47.0477 24.1997 47.0699 24.1695 47.1452C24.1393 47.2204 24.1393 47.2204 24.1319 47.3778C24.1245 47.5352 24.1171 47.5654 24.2146 47.6931C24.312 47.8208 24.267 47.8208 24.3046 48.0728C24.3423 48.3248 24.1906 48.2033 24.0344 48.241C23.8782 48.2786 24.0344 48.241 24.0258 48.1133C24.0173 47.9855 24.0715 47.9035 23.9819 47.7273C23.8924 47.5511 23.8394 47.6634 23.8246 47.5357C23.8098 47.408 23.8696 47.408 23.7613 47.3031C23.653 47.1982 23.7664 47.2051 23.8941 47.1857L23.8919 47.1851ZM23.4928 47.1897C23.4928 47.1897 23.6205 47.3772 23.5304 47.4542C23.4403 47.5312 23.4631 47.6098 23.5829 47.6697C23.7026 47.7296 23.7254 47.7073 23.6804 47.8196C23.6353 47.932 23.718 47.9696 23.7556 48.1646C23.7932 48.3595 23.5846 48.2472 23.5846 48.0716C23.5846 47.896 23.5173 47.9399 23.4044 47.8499C23.2915 47.7598 23.2995 47.7147 23.324 47.6247C23.3485 47.5346 23.3668 47.4895 23.2168 47.3396C23.0669 47.1897 23.1963 47.1748 23.4962 47.1902L23.4928 47.1897ZM22.9711 45.9103C22.9882 45.7022 22.942 45.7433 23.1519 45.7752C23.2254 45.7866 23.2921 45.8425 23.2243 46.0511C23.1564 46.2598 23.1228 46.1298 22.9392 46.237C22.7556 46.3442 22.958 46.1184 22.9751 45.9109L22.9711 45.9103ZM19.0493 50.9747C18.9535 51.1942 18.9421 51.0762 18.7226 51.0927C18.5031 51.1092 18.7226 50.9787 18.7226 50.6822C18.7226 50.3858 18.6946 50.4821 19.0036 50.4684C19.1376 50.4633 19.1485 50.7558 19.0532 50.9753L19.0493 50.9747ZM20.5777 43.4388C20.5777 43.4388 20.6678 43.4109 20.8987 43.3601C21.1296 43.3094 20.9381 43.3265 20.8012 43.2644C20.6644 43.2022 20.6963 43.2473 20.4022 43.2074C20.108 43.1674 20.6159 43.1566 20.9084 43.1452C21.2009 43.1338 20.9882 43.1332 21.2853 43.1789C21.3993 43.1971 21.2739 43.2969 21.4369 43.3533C21.6 43.4097 21.4369 43.3926 21.4369 43.4827C21.4369 43.5728 21.3748 43.5899 21.2345 43.4998C21.0943 43.4098 21.1205 43.4998 21.0772 43.5392C21.0338 43.5785 20.8491 43.7193 20.8491 43.7193C20.7234 43.677 20.6018 43.6232 20.486 43.5586C20.3417 43.469 20.5777 43.4388 20.5777 43.4388ZM22.1171 44.339C22.0327 44.3447 21.9877 44.4063 21.8805 44.5192C21.7733 44.6321 21.7094 44.6332 21.588 44.6332C21.4666 44.6332 21.4415 44.6555 21.1547 44.7347C20.8679 44.814 20.958 44.7684 20.8058 44.6674C20.6536 44.5665 20.6256 44.5603 20.6091 44.5101C20.5926 44.4599 20.8372 44.5215 20.9187 44.4707C20.9855 44.42 21.0459 44.3614 21.0988 44.2963C21.0988 44.2963 21.0418 44.1253 21.2003 44.0825C21.2716 44.062 21.2511 44.1555 21.3018 44.2741C21.3525 44.3926 21.4033 44.4485 21.5869 44.4291C21.7704 44.4097 21.8007 44.3151 22.0595 44.2855C22.3183 44.2558 22.2043 44.3351 22.1199 44.3408L22.1171 44.339ZM25.0817 62.2591C25.1712 62.1844 25.2904 62.1023 25.3006 62.1936C25.3103 62.2489 25.1695 62.246 25.0857 62.2608L25.0817 62.2591Z" fill="#FD3E72"/>
<path d="M33.7835 47.3725C33.6974 47.4079 33.6695 47.4626 33.6604 47.5584C33.6521 47.62 33.6368 47.6804 33.6148 47.7385L33.5697 47.8737C33.5851 47.8944 33.5957 47.9183 33.6005 47.9437C33.6053 47.9691 33.6044 47.9952 33.5977 48.0202C33.5798 48.0727 33.5704 48.1278 33.5697 48.1832C33.5697 48.1832 33.4842 48.1975 33.4677 48.2403C33.4511 48.283 33.2966 48.1741 33.4266 48.3206C33.5566 48.4672 33.5355 48.421 33.5076 48.4917C33.4796 48.5624 33.5298 48.6547 33.6148 48.6268C33.6997 48.5989 33.5469 48.5361 33.8593 48.5698C34.1718 48.6034 34.2111 48.4324 34.2396 48.5054C34.2681 48.5783 34.2801 48.584 34.3217 48.5276C34.3633 48.4712 34.5429 48.3868 34.4563 48.4997C34.3696 48.6125 34.2071 48.7277 34.3217 48.7505C34.4363 48.7733 34.6165 48.7072 34.5828 48.5698C34.5492 48.4324 34.5828 48.2847 34.6336 48.4324C34.6843 48.58 34.6279 48.7026 34.7476 48.6912C34.8673 48.6798 34.8838 48.7203 34.95 48.7556C35.0161 48.791 35.1415 48.7978 35.0572 48.6348C34.9728 48.4717 35.0292 48.2636 34.9392 48.3537C34.8491 48.4438 34.7476 48.4717 34.7026 48.3315C34.6575 48.1912 34.6689 48.185 34.5788 48.1063C34.4888 48.0276 34.6404 47.8868 34.4574 47.8811C34.2744 47.8754 34.2579 48.0276 34.1455 47.9598C34.0332 47.8919 34.0315 47.7631 33.9517 47.8583C33.8719 47.9535 33.808 48.0607 33.7687 47.9763C33.7294 47.8919 33.6507 47.9164 33.7065 47.8001C33.7624 47.6838 33.8787 47.3343 33.7835 47.3725Z" fill="#FD3E72"/>
<path d="M29.2006 56.7482C29.151 56.7864 29.1527 56.9038 29.2006 56.9734C29.2485 57.0429 29.2947 57.0207 29.3209 57.0783C29.3511 57.1455 29.2918 57.1923 29.3209 57.2732C29.3369 57.3189 29.3779 57.3719 29.4184 57.3707C29.4811 57.3707 29.5216 57.243 29.5387 57.1906C29.5722 57.1152 29.5801 57.0308 29.5609 56.9506C29.5062 56.7875 29.2759 56.6906 29.2006 56.7482Z" fill="#FD3E72"/>
<path d="M28.771 56.9812C28.7872 56.9735 28.8048 56.9692 28.8227 56.9684C28.8406 56.9676 28.8585 56.9705 28.8753 56.9767C28.8921 56.983 28.9075 56.9926 28.9205 57.0049C28.9336 57.0172 28.944 57.032 28.9512 57.0485C28.9633 57.0786 28.9639 57.1121 28.9529 57.1426C28.9418 57.1731 28.9199 57.1985 28.8913 57.2138C28.8681 57.225 28.842 57.2288 28.8166 57.2249C28.7911 57.2209 28.7675 57.2093 28.7488 57.1916C28.735 57.1769 28.7246 57.1595 28.7182 57.1405C28.7118 57.1214 28.7096 57.1013 28.7117 57.0813C28.7138 57.0613 28.7202 57.0421 28.7304 57.0248C28.7407 57.0075 28.7545 56.9926 28.771 56.9812V56.9812Z" fill="#FD3E72"/>
<path d="M29.1153 57.5138C29.149 57.5138 29.1723 57.56 29.2054 57.6341C29.2584 57.7447 29.2955 57.8217 29.2579 57.889C29.2377 57.9245 29.2054 57.9516 29.1669 57.9655C29.1284 57.9793 29.0862 57.9788 29.0481 57.9642C28.9699 57.9243 28.9722 57.8091 28.9728 57.7692C28.9751 57.6438 29.0526 57.5087 29.1153 57.5138Z" fill="#FD3E72"/>
<path d="M29.6312 57.3866C29.5576 57.3917 29.4824 57.4578 29.4886 57.5069C29.4949 57.5559 29.5998 57.5576 29.6386 57.6494C29.658 57.6944 29.642 57.7172 29.6688 57.7469C29.6868 57.7658 29.7105 57.7783 29.7363 57.7823C29.7621 57.7863 29.7885 57.7817 29.8113 57.7691C29.8615 57.7349 29.8524 57.6551 29.849 57.6266C29.8336 57.5165 29.7441 57.3786 29.6312 57.3866Z" fill="#FD3E72"/>
<path d="M29.7689 58.0344C29.7485 58.0495 29.7337 58.071 29.7268 58.0955C29.72 58.12 29.7216 58.146 29.7313 58.1695C29.7495 58.2214 29.8077 58.2682 29.859 58.2522C29.8845 58.2381 29.9039 58.2151 29.9136 58.1876C29.9232 58.1601 29.9224 58.13 29.9112 58.103C29.9001 58.0761 29.8794 58.0542 29.8532 58.0416C29.8269 58.0289 29.7969 58.0263 29.7689 58.0344V58.0344Z" fill="#FD3E72"/>
<path d="M30.1555 58.0765C30.1019 58.0993 30.0984 58.2059 30.103 58.2475C30.1043 58.283 30.1138 58.3177 30.1307 58.3489C30.1476 58.3802 30.1715 58.4071 30.2005 58.4277C30.2119 58.4345 30.2877 58.4778 30.343 58.4425C30.3983 58.4071 30.3898 58.3039 30.3881 58.2925C30.3704 58.1625 30.225 58.0468 30.1555 58.0765Z" fill="#FD3E72"/>
<path d="M30.8099 58.8637C30.7164 58.8808 30.6212 58.9697 30.6389 59.0512C30.6514 59.1139 30.7238 59.1436 30.7363 59.1487C30.7764 59.1651 30.8207 59.1681 30.8626 59.1573C30.9045 59.1465 30.9418 59.1225 30.969 59.0889C30.9875 59.066 30.9995 59.0385 31.0034 59.0093C31.0073 58.9801 31.0031 58.9504 30.9912 58.9235C30.9519 58.8574 30.8606 58.8545 30.8099 58.8637Z" fill="#FD3E72"/>
<path d="M26.2199 59.1795C26.1948 59.0717 26.5882 58.8648 26.9251 58.7593C27.246 58.6637 27.5817 58.6281 27.9154 58.6544C28.1739 58.6705 28.4303 58.711 28.6811 58.7753C29.0431 58.8585 29.2239 58.9001 29.3715 58.9703C29.4275 59.0008 29.4885 59.0211 29.5517 59.0301C29.6857 59.0466 29.7387 58.9925 29.8219 59.0301C29.8932 59.062 29.8721 59.1099 29.957 59.1801C30.0447 59.2435 30.1489 59.2799 30.2569 59.285C30.4103 59.3038 30.4679 59.2679 30.5118 59.3152C30.5325 59.3462 30.5436 59.3827 30.5436 59.4201C30.5436 59.4574 30.5325 59.4939 30.5118 59.525C30.4428 59.6356 30.2746 59.639 30.1218 59.6453C29.4428 59.6818 29.1606 59.8465 29.0716 59.7051C29.0061 59.6008 29.115 59.44 29.0414 59.3899C28.9776 59.3465 28.8829 59.4611 28.7712 59.4201C28.6743 59.3842 28.6942 59.2793 28.591 59.2103C28.534 59.1704 28.4918 59.1835 28.2159 59.1955C27.9063 59.2091 27.8373 59.1955 27.7655 59.1652C27.6937 59.135 27.7085 59.1191 27.6002 59.0603C27.4918 59.0016 27.294 58.9201 27.2552 58.9703C27.2279 59.0056 27.2957 59.0797 27.2701 59.1054C27.2444 59.131 27.123 59.0079 26.9702 59.0153C26.9018 59.0187 26.9029 59.0461 26.6999 59.1504C26.497 59.2547 26.4246 59.2644 26.3698 59.2553C26.355 59.2525 26.233 59.2354 26.2199 59.1795Z" fill="#FD3E72"/>
<path d="M30.761 59.4602C30.826 59.3672 30.9936 59.4676 31.3009 59.4379C31.5193 59.4168 31.5347 59.357 31.8072 59.3365C31.9163 59.3217 32.0272 59.3292 32.1333 59.3587C32.2582 59.4003 32.2564 59.4448 32.4149 59.516C32.5957 59.5976 32.7 59.585 32.7188 59.6512C32.7342 59.7025 32.6897 59.7703 32.6401 59.8085C32.4936 59.9225 32.3311 59.7515 32.0552 59.8422C31.9759 59.8672 31.964 59.8895 31.8528 59.9208C31.7165 59.9596 31.6629 59.9471 31.6162 59.9995C31.578 60.0423 31.5979 60.0679 31.5489 60.1705C31.5119 60.2464 31.4919 60.2846 31.4588 60.3057C31.3528 60.3718 31.2354 60.2048 30.9862 60.2042C30.8642 60.2042 30.8385 60.2435 30.7496 60.2156C30.6151 60.1728 30.5216 60.0326 30.5472 59.9904C30.5729 59.9482 30.7399 60.0588 30.8847 59.9904C30.9988 59.9334 31.0843 59.8045 31.0558 59.743C31.0198 59.6711 30.8494 59.743 30.7747 59.6415C30.755 59.6159 30.7432 59.5851 30.7408 59.5529C30.7384 59.5207 30.7454 59.4884 30.761 59.4602V59.4602Z" fill="#FD3E72"/>
<path d="M29.3215 40.9928C29.1362 41.0241 29.0159 40.9973 28.7588 41.0498C28.6725 41.0597 28.5927 41.1001 28.5336 41.1638C28.4937 41.2128 28.5045 41.2385 28.4663 41.2778C28.3751 41.3668 28.2383 41.3023 28.2075 41.3565C28.1767 41.4107 28.3153 41.5475 28.3991 41.6267C28.4983 41.7208 28.5473 41.7676 28.6015 41.7841C28.7662 41.8354 28.8529 41.6969 29.0741 41.7168C29.1568 41.7296 29.2368 41.7562 29.3107 41.7955C29.4726 41.8708 29.6271 41.9613 29.7719 42.0657C30.2235 42.3639 30.2719 42.3993 30.3683 42.3918C30.444 42.3798 30.5216 42.3874 30.5935 42.4141C30.6077 42.4198 30.7314 42.4711 30.7286 42.5378C30.7257 42.6045 30.5747 42.6233 30.5712 42.6951C30.5712 42.7522 30.6596 42.8001 30.7178 42.8303C30.7759 42.8605 30.8438 42.8964 30.9093 42.8753C30.9749 42.8542 30.9891 42.7818 31.033 42.7852C31.0632 42.7852 31.0804 42.8223 31.1471 42.9563L31.2257 43.1136C31.2622 43.1995 31.3116 43.2793 31.3723 43.3502C31.4452 43.4221 31.4789 43.4072 31.5746 43.4853C31.6303 43.5361 31.6795 43.5936 31.7212 43.6564C31.8922 43.8679 32.1459 43.9682 32.1602 43.9488C32.1744 43.9295 32.0615 43.8468 32.0701 43.8348C32.0786 43.8228 32.2463 43.942 32.4977 44.1165C32.8563 44.3656 32.9218 44.4015 33.0267 44.4317C33.1847 44.4756 33.1904 44.4317 33.3529 44.4888C33.4931 44.5355 33.5838 44.5976 33.7582 44.6239C33.8104 44.6317 33.8634 44.6317 33.9156 44.6239C33.9783 44.6147 34.0575 44.6028 34.0866 44.5566C34.1237 44.4927 34.049 44.3856 33.9851 44.2978C33.8101 44.0543 33.6921 44.0515 33.5798 43.8474C33.5153 43.7333 33.5421 43.71 33.4783 43.6336C33.3643 43.4984 33.2291 43.4996 33.208 43.397C33.1989 43.3525 33.2206 43.3109 33.2651 43.2259C33.3563 43.0549 33.4361 43.0458 33.4361 42.9785C33.4361 42.8918 33.2816 42.8075 32.9749 42.641C32.8569 42.5771 32.8169 42.5612 32.7833 42.5059C32.7172 42.397 32.7867 42.3177 32.7383 42.157C32.7086 42.0589 32.6277 41.905 32.5245 41.8981C32.4965 41.8981 32.4783 41.9061 32.2428 42.0555C32.1653 42.1045 32.1356 42.1239 32.1077 42.1125C32.0598 42.0914 32.0433 41.9876 32.0741 41.9101C32.1117 41.8149 32.2041 41.8012 32.1978 41.7636C32.1915 41.7259 32.0558 41.7151 31.7924 41.6621C31.602 41.6239 31.5427 41.5999 31.5222 41.5481C31.4965 41.4859 31.5558 41.4443 31.5336 41.3679C31.5136 41.3006 31.4498 41.2693 31.3312 41.2105C31.1984 41.145 31.098 41.0965 30.9823 41.1205C30.8939 41.1399 30.8871 41.1826 30.8249 41.1775C30.7354 41.1689 30.7109 41.0766 30.5997 40.9859C30.5231 40.927 30.4349 40.8849 30.3409 40.8622C30.1467 40.8053 29.9408 40.8013 29.7446 40.8508C29.4926 40.8987 29.5382 40.9557 29.3215 40.9928Z" fill="#FD3E72"/>
<g style="mix-blend-mode:multiply" opacity="0.31">
<path d="M35.9257 43.3594C38.3453 46.2329 39.6698 49.8701 39.6646 53.6267C39.6646 62.4499 32.5118 69.6021 23.6892 69.6021C19.9326 69.6071 16.2954 68.2825 13.4219 65.8627C14.9194 67.6535 16.792 69.0935 18.9073 70.081C21.0227 71.0684 23.3291 71.5791 25.6635 71.577C34.4867 71.577 41.6389 64.4242 41.6389 55.601C41.6412 53.2667 41.1306 50.9603 40.1434 48.845C39.1562 46.7297 37.7164 44.857 35.9257 43.3594V43.3594Z" fill="#E5DCBA"/>
</g>
<g style="mix-blend-mode:overlay" opacity="0.21">
<path d="M10.9844 56.9756C10.9844 48.1524 18.1372 41.0002 26.9598 41.0002C30.8692 40.9946 34.644 42.4282 37.5641 45.0275C36.067 43.3365 34.2275 41.9831 32.1676 41.0569C30.1078 40.1307 27.8745 39.6529 25.616 39.6553C16.7928 39.6553 9.64063 46.808 9.64063 55.6307C9.63827 57.8892 10.116 60.1224 11.0422 62.1823C11.9684 64.2421 13.3219 66.0816 15.0129 67.5787C12.4134 64.6591 10.9794 60.8848 10.9844 56.9756V56.9756Z" fill="white"/>
</g>
<path d="M30.8725 41.6923C30.8725 41.6923 30.8235 41.5783 30.7266 41.3833" stroke="white" stroke-width="2" stroke-miterlimit="10"/>
<path d="M20.3594 55.0508C20.3719 55.2714 20.381 55.3929 20.381 55.3929" stroke="white" stroke-width="2" stroke-miterlimit="10"/>
<path d="M20.3789 55.3912C20.4648 55.3163 20.5544 55.2457 20.6474 55.1797" stroke="white" stroke-width="2" stroke-miterlimit="10"/>
<path d="M34.3107 66.9341C34.3022 67.1541 34.2891 67.2762 34.2891 67.2762" stroke="white" stroke-width="2" stroke-miterlimit="10"/>
</g>
</svg>
