<svg width="87" height="86" viewBox="0 0 87 86" fill="none" xmlns="http://www.w3.org/2000/svg">
<path d="M58.4286 2.97725e-06L3.00001 5.79855e-05C1.34315 5.96298e-05 1.03109e-05 1.34321 1.03109e-05 3.00006L1.03118e-05 83C1.03118e-05 84.6569 1.34315 86 3.00001 86H58.4286C60.0854 86 61.4286 84.6569 61.4286 83V3C61.4286 1.34315 60.0854 0 58.4286 2.97725e-06Z" fill="#FD3E72"/>
<path d="M56.356 3.07141H5.07031C3.96574 3.07141 3.07031 3.96684 3.07031 5.07141V80.9286C3.07031 82.0331 3.96574 82.9286 5.07031 82.9286H56.356C57.4606 82.9286 58.356 82.0331 58.356 80.9286V5.07141C58.356 3.96684 57.4606 3.07141 56.356 3.07141Z" fill="#455B64"/>
<path d="M54.7841 6.14282H6.64781C6.36986 6.14282 6.14453 6.71265 6.14453 7.41557V78.5844C6.14453 79.2873 6.36986 79.8571 6.64781 79.8571H54.7841C55.0621 79.8571 55.2874 79.2873 55.2874 78.5844V7.41557C55.2874 6.71265 55.0621 6.14282 54.7841 6.14282Z" fill="#FFECF1"/>
<path d="M14.764 10.5088C15.3024 10.5088 15.7389 10.0723 15.7389 9.53387C15.7389 8.99544 15.3024 8.55896 14.764 8.55896C14.2255 8.55896 13.7891 8.99544 13.7891 9.53387C13.7891 10.0723 14.2255 10.5088 14.764 10.5088Z" fill="#263238"/>
<path d="M8.85773 10.5088C9.39616 10.5088 9.83264 10.0723 9.83264 9.53387C9.83264 8.99544 9.39616 8.55896 8.85773 8.55896C8.3193 8.55896 7.88281 8.99544 7.88281 9.53387C7.88281 10.0723 8.3193 10.5088 8.85773 10.5088Z" fill="#263238"/>
<path d="M11.6937 10.5088C12.2321 10.5088 12.6686 10.0723 12.6686 9.53387C12.6686 8.99544 12.2321 8.55896 11.6937 8.55896C11.1552 8.55896 10.7188 8.99544 10.7188 9.53387C10.7188 10.0723 11.1552 10.5088 11.6937 10.5088Z" fill="#263238"/>
<path d="M53.1263 16.9701H8.77734V50.8053H53.1263V16.9701Z" fill="#E9C3CD"/>
<path d="M52.7443 57.3043H8.96875V64.1861H52.7443V57.3043Z" fill="#E9C3CD"/>
<path d="M86.0194 27.2964C86.0194 27.2964 82.3648 56.5507 76.3601 63.133C69.1405 71.0297 63.9125 69.8746 61.0097 73.9475C58.0994 69.8696 52.8665 71.0297 45.6519 63.128C39.6471 56.5457 36 27.2914 36 27.2914C51.8234 19.6088 61.0097 11 61.0097 11C61.2835 11.2763 70.44 19.7382 86.0194 27.2964Z" fill="#EE3A6B"/>
<path d="M82.1395 29.6541C82.1395 29.6541 79.0525 54.3651 73.9814 59.9292C67.8871 66.6085 63.4632 65.6277 61.0035 69.0682C58.5439 65.6277 54.1225 66.6085 48.0257 59.9292C42.9545 54.3651 39.875 29.6541 39.875 29.6541C53.2412 23.164 61.0035 15.8921 61.0035 15.8921C61.0035 15.8921 68.7733 23.154 82.1395 29.6541Z" fill="#FF5886"/>
<path fill-rule="evenodd" clip-rule="evenodd" d="M49.207 39.8445C50.9886 35.2542 55.4484 32 60.6682 32C65.888 32 70.3478 35.2542 72.1293 39.8445C70.3478 44.4348 65.888 47.689 60.6682 47.689C55.4484 47.689 50.9886 44.4348 49.207 39.8445Z" fill="#EBEBEB"/>
<circle cx="60.6672" cy="39.7138" r="5.22965" fill="#861836"/>
<path d="M50.7969 32L71.5194 46.7084" stroke="#FF5886" stroke-width="3" stroke-linecap="round"/>
</svg>
