<svg width="90" height="90" viewBox="0 0 90 90" fill="none" xmlns="http://www.w3.org/2000/svg">
<circle cx="45" cy="45" r="45" fill="#5B5863"/>
<circle cx="45.0015" cy="45" r="40.1538" fill="#FFF1F5"/>
<mask id="mask0" mask-type="alpha" maskUnits="userSpaceOnUse" x="9" y="9" width="72" height="36">
<rect x="9" y="9" width="71.3077" height="36" fill="#C4C4C4"/>
</mask>
<g mask="url(#mask0)">
<circle cx="44.6233" cy="45.0257" r="35.6858" fill="#FD3E72"/>
<path d="M8.93918 45.0256H44.625L19.2332 19.9769C14.0862 24.7808 8.93918 33.8574 8.93918 45.0256Z" fill="white" fill-opacity="0.8"/>
<path d="M19.2327 19.9769L44.6253 45.0256L44.6242 9.33981C35.7031 9.33981 26.7816 12.3709 19.2327 19.9769Z" fill="white" fill-opacity="0.6"/>
<path d="M70.0145 19.9769L44.6235 45.0256L44.6228 9.33976C52.8717 9.24259 62.8087 12.428 70.0145 19.9769Z" fill="white" fill-opacity="0.3"/>
<circle cx="44.6252" cy="45.0256" r="15.0978" fill="white"/>
</g>
<circle cx="44.8674" cy="44.867" r="15.0978" fill="white"/>
<ellipse cx="44.6538" cy="45" rx="8.65385" ry="9" fill="#5B5863"/>
<path d="M74.0463 27.8269L49.4995 48.2722L44.3072 39.2788L74.0463 27.8269Z" fill="#5B5863"/>
</svg>
