<svg width="46" height="46" viewBox="0 0 46 46" fill="none" xmlns="http://www.w3.org/2000/svg">
<path d="M22.7974 0.000827789C10.2068 0.000827789 0 10.2076 0 22.7982C0 35.0245 9.62531 45.0029 21.7116 45.5691C22.0723 45.5861 22.4336 45.5957 22.7977 45.5957C28.6345 45.5957 33.9575 43.401 37.9909 39.7941C35.3186 41.5663 32.1943 42.586 28.8553 42.586C23.4263 42.586 18.5641 39.8927 15.294 35.6456C12.7732 32.6699 11.1404 28.2713 11.0292 23.3348V22.2612C11.1404 17.325 12.7731 12.9255 15.2934 9.95053C18.5639 5.70335 23.426 3.01006 28.8547 3.01006C32.1944 3.01006 35.3193 4.02977 37.9918 5.80315C33.9783 2.21272 28.6874 0.0224991 22.8831 0.000946045C22.8542 0.000946045 22.8258 -0.000183105 22.7969 -0.000183105L22.7974 0.000827789Z" fill="url(#paint0_linear_9205:21754)"/>
<path d="M15.2939 9.95207C17.3861 7.48229 20.0879 5.99297 23.0397 5.99297C29.6767 5.99297 35.0561 13.5176 35.0561 22.7995C35.0561 32.0814 29.6763 39.606 23.0397 39.606C20.0879 39.606 17.3861 38.1173 15.2945 35.6474C18.5645 39.8946 23.4263 42.5879 28.8558 42.5879C32.195 42.5879 35.3193 41.5682 37.9914 39.7959C42.6576 35.6214 45.5959 29.5538 45.5959 22.7996C45.5959 16.0463 42.6582 9.97901 37.993 5.80494C35.3202 4.03156 32.1953 3.01184 28.8559 3.01184C23.4269 3.01184 18.5647 5.70513 15.2946 9.95232" fill="url(#paint1_linear_9205:21754)"/>
<defs>
<linearGradient id="paint0_linear_9205:21754" x1="18.9965" y1="0.743963" x2="18.9965" y2="44.9329" gradientUnits="userSpaceOnUse">
<stop stop-color="#FF1B2D"/>
<stop offset="0.3" stop-color="#FF1B2D"/>
<stop offset="0.614" stop-color="#FF1B2D"/>
<stop offset="1" stop-color="#A70014"/>
</linearGradient>
<linearGradient id="paint1_linear_9205:21754" x1="30.4445" y1="3.34914" x2="30.4445" y2="42.4319" gradientUnits="userSpaceOnUse">
<stop stop-color="#9C0000"/>
<stop offset="0.7" stop-color="#FF4B4B"/>
<stop offset="1" stop-color="#FF4B4B"/>
</linearGradient>
</defs>
</svg>
