<svg width="223" height="46" viewBox="0 0 223 46" fill="none" xmlns="http://www.w3.org/2000/svg">
<path d="M68.7832 14.0889C69.5352 14.0889 70.2598 13.9795 70.9502 13.7539C71.6406 13.5352 72.2148 13.2275 72.6797 12.8447V8.68848H68.5645V10.2061H70.998V11.8809C70.3418 12.3252 69.6035 12.5439 68.7832 12.5439C68.1338 12.5439 67.5596 12.3936 67.0605 12.0859C66.5615 11.7783 66.1787 11.3613 65.9189 10.8281C65.6592 10.3018 65.5293 9.70703 65.5293 9.04395C65.5293 8.51758 65.6113 8.03223 65.7754 7.58789C65.9395 7.15039 66.1582 6.78125 66.4453 6.48047C66.7324 6.17969 67.0674 5.94727 67.457 5.7832C67.8467 5.61914 68.2637 5.53711 68.7148 5.53711C69.7744 5.53711 70.6699 5.89941 71.4082 6.61719L72.6045 5.5918C72.1055 5.05176 71.5176 4.6416 70.834 4.36133C70.1504 4.08789 69.4463 3.94434 68.7217 3.94434C68.2158 3.94434 67.7441 4.00586 67.293 4.12207C66.8418 4.23828 66.4385 4.40234 66.0762 4.62109C65.7139 4.83984 65.3857 5.09961 65.0986 5.40039C64.8047 5.70801 64.5586 6.0498 64.3672 6.42578C64.1758 6.80176 64.0254 7.21191 63.9229 7.65625C63.8135 8.10059 63.7656 8.56543 63.7656 9.04395C63.7656 9.81641 63.8887 10.5205 64.1484 11.1562C64.4014 11.7988 64.75 12.332 65.2012 12.7559C65.6523 13.1797 66.1787 13.5078 66.7939 13.7402C67.4092 13.9727 68.0723 14.0889 68.7832 14.0889Z" fill="#787977"/>
<path d="M80.8965 10.5068C80.8965 9.85059 80.7598 9.25586 80.4932 8.73633C80.2197 8.2168 79.8369 7.81348 79.3311 7.5127C78.8252 7.21875 78.2373 7.06836 77.5811 7.06836C77.1094 7.06836 76.6719 7.15723 76.2617 7.32812C75.8516 7.49902 75.4961 7.73828 75.2021 8.03906C74.9014 8.34668 74.6689 8.71582 74.5049 9.15332C74.334 9.59082 74.252 10.0693 74.252 10.582C74.252 11.2793 74.4023 11.9014 74.71 12.4414C75.0107 12.9814 75.4277 13.3916 75.9609 13.6787C76.4873 13.9658 77.082 14.1094 77.7451 14.1094C78.3809 14.1094 78.9414 13.9932 79.4268 13.7607C79.9121 13.5283 80.3086 13.2139 80.623 12.8174L79.5293 11.8809C79.0986 12.4209 78.5312 12.6875 77.8271 12.6875C77.3213 12.6875 76.8975 12.5508 76.5488 12.2705C76.2002 11.9971 75.9746 11.6143 75.8789 11.1289H80.8555C80.8828 10.9648 80.8965 10.7598 80.8965 10.5068ZM77.6631 8.49023C77.9502 8.49023 78.21 8.55176 78.4424 8.66797C78.6748 8.78418 78.8594 8.94141 79.0029 9.14648C79.1465 9.35156 79.2559 9.59082 79.3242 9.86426H75.9062C76.0156 9.42676 76.2275 9.0918 76.542 8.85254C76.8564 8.61328 77.2256 8.49023 77.6631 8.49023Z" fill="#787977"/>
<path d="M84.5537 14.1094C84.957 14.1094 85.2852 14.0752 85.5381 14.0068C85.791 13.9385 86.0439 13.8428 86.29 13.7061L85.8799 12.3525C85.5107 12.5508 85.1689 12.6465 84.8682 12.6465C84.6426 12.6465 84.4785 12.5781 84.3691 12.4277C84.2598 12.2842 84.2119 12.0381 84.2119 11.6963V8.50391H86.2217V7.1709H84.2119V4.73047L82.6465 4.90137V7.1709H81.8125V8.50391H82.6465V11.8398C82.6465 12.5918 82.8105 13.1523 83.1455 13.5352C83.4805 13.918 83.9521 14.1094 84.5537 14.1094Z" fill="#787977"/>
<path d="M102.601 4.05371L100.461 11.252H100.447L98.5059 4.05371H96.708L94.7529 11.2314H94.7393L92.6064 4.05371H90.8018L93.9531 14H95.5322L97.6104 6.52148H97.6309L99.668 14H101.247L104.398 4.05371H102.601Z" fill="#787977"/>
<path d="M111.18 10.5068C111.18 9.85059 111.043 9.25586 110.776 8.73633C110.503 8.2168 110.12 7.81348 109.614 7.5127C109.108 7.21875 108.521 7.06836 107.864 7.06836C107.393 7.06836 106.955 7.15723 106.545 7.32812C106.135 7.49902 105.779 7.73828 105.485 8.03906C105.185 8.34668 104.952 8.71582 104.788 9.15332C104.617 9.59082 104.535 10.0693 104.535 10.582C104.535 11.2793 104.686 11.9014 104.993 12.4414C105.294 12.9814 105.711 13.3916 106.244 13.6787C106.771 13.9658 107.365 14.1094 108.028 14.1094C108.664 14.1094 109.225 13.9932 109.71 13.7607C110.195 13.5283 110.592 13.2139 110.906 12.8174L109.812 11.8809C109.382 12.4209 108.814 12.6875 108.11 12.6875C107.604 12.6875 107.181 12.5508 106.832 12.2705C106.483 11.9971 106.258 11.6143 106.162 11.1289H111.139C111.166 10.9648 111.18 10.7598 111.18 10.5068ZM107.946 8.49023C108.233 8.49023 108.493 8.55176 108.726 8.66797C108.958 8.78418 109.143 8.94141 109.286 9.14648C109.43 9.35156 109.539 9.59082 109.607 9.86426H106.189C106.299 9.42676 106.511 9.0918 106.825 8.85254C107.14 8.61328 107.509 8.49023 107.946 8.49023Z" fill="#787977"/>
<path d="M118.528 4.05371L115.896 11.5732H115.869L113.258 4.05371H111.433L115.145 14H116.642L120.347 4.05371H118.528Z" fill="#787977"/>
<path d="M121.912 14H123.601V10.4521H125.316C125.747 10.4521 126.144 10.4111 126.513 10.3291C126.882 10.2471 127.21 10.124 127.511 9.95312C127.805 9.78906 128.058 9.57715 128.263 9.33105C128.468 9.08496 128.632 8.78418 128.741 8.43555C128.851 8.09375 128.912 7.7041 128.912 7.28027C128.912 6.96582 128.878 6.67188 128.823 6.39844C128.762 6.125 128.673 5.86523 128.557 5.61914C128.44 5.37988 128.29 5.16113 128.105 4.96973C127.914 4.77832 127.695 4.61426 127.449 4.47754C127.203 4.34082 126.916 4.23828 126.588 4.16309C126.26 4.09473 125.897 4.05371 125.515 4.05371H121.912V14ZM123.601 8.92773V5.57129H125.269C125.87 5.57129 126.342 5.72168 126.67 6.01562C126.998 6.30957 127.162 6.71973 127.162 7.24609C127.162 7.76562 126.991 8.17578 126.656 8.47656C126.321 8.77734 125.822 8.92773 125.152 8.92773H123.601Z" fill="#787977"/>
<path d="M137.293 4.05371V11.1904H137.259L132.405 4.05371H130.73V14H132.419V6.96582H132.446L137.259 14H138.981V4.05371H137.293Z" fill="#787977"/>
<path d="M71.8672 38.1992C73.1094 38.1992 74.2578 37.9883 75.3242 37.5664C76.3906 37.1445 77.3047 36.5469 78.0781 35.7969C78.8398 35.0469 79.4375 34.1211 79.8828 33.0312C80.3164 31.9414 80.5391 30.7578 80.5391 29.4688C80.5391 28.1914 80.3164 27.0078 79.8828 25.918C79.4375 24.8398 78.8398 23.9141 78.0781 23.1641C77.3047 22.4141 76.3906 21.8164 75.3242 21.3945C74.2578 20.9727 73.1094 20.75 71.8672 20.75C70.6016 20.75 69.418 20.9727 68.3398 21.4062C67.25 21.8516 66.3242 22.4492 65.5742 23.2109C64.8242 23.9844 64.2266 24.8984 63.8047 25.9766C63.3828 27.0547 63.1719 28.2266 63.1719 29.4688C63.1719 30.7227 63.3828 31.8945 63.8047 32.9727C64.2266 34.0508 64.8242 34.9766 65.5742 35.7383C66.3242 36.5117 67.25 37.1094 68.3281 37.543C69.4062 37.9883 70.5898 38.1992 71.8672 38.1992ZM71.8789 35.0586C70.8711 35.0586 69.9805 34.8125 69.1836 34.3086C68.3867 33.8164 67.7656 33.1367 67.332 32.293C66.8984 31.4492 66.6875 30.5 66.6875 29.4688C66.6875 28.4492 66.8984 27.5117 67.332 26.668C67.7656 25.8242 68.3867 25.1445 69.1836 24.6523C69.9805 24.1602 70.8711 23.9023 71.8789 23.9023C72.8398 23.9023 73.7188 24.1484 74.5039 24.6172C75.2891 25.0977 75.9102 25.7656 76.3555 26.6094C76.8008 27.4648 77.0352 28.4141 77.0352 29.4688C77.0352 30.2656 76.8945 31.0039 76.6367 31.6953C76.3789 32.3984 76.0156 32.9844 75.5586 33.4766C75.1016 33.9688 74.5508 34.3555 73.918 34.6367C73.2852 34.918 72.6055 35.0586 71.8789 35.0586Z" fill="#19191A"/>
<path d="M90.043 26.082C88.543 26.082 87.3594 26.5977 86.4922 27.6289H86.4453V26.2812H83.3047V42.7461H86.4453V36.6875H86.4922C87.3242 37.6953 88.4727 38.1992 89.9492 38.1992C90.7461 38.1992 91.4961 38.0586 92.1875 37.7656C92.8789 37.4844 93.4766 37.0742 93.9688 36.5586C94.4609 36.043 94.8594 35.3984 95.1406 34.6484C95.4219 33.8984 95.5625 33.0664 95.5625 32.1758C95.5625 31.4727 95.4688 30.8164 95.293 30.1836C95.1055 29.5508 94.8477 28.9883 94.5195 28.4961C94.1914 28.0039 93.793 27.5703 93.3477 27.207C92.8906 26.8438 92.375 26.5625 91.8125 26.375C91.25 26.1875 90.6523 26.082 90.043 26.082ZM89.375 35.3867C88.8008 35.3867 88.2852 35.2578 87.8164 35C87.3477 34.7422 86.9844 34.3555 86.7148 33.8633C86.4453 33.3711 86.3164 32.8203 86.3164 32.1875C86.3164 31.7305 86.3867 31.2969 86.5391 30.8867C86.6914 30.4883 86.9023 30.1367 87.1719 29.8438C87.4297 29.5625 87.7578 29.3281 88.1328 29.1641C88.5078 29 88.9297 28.9062 89.375 28.9062C90.2305 28.9062 90.9453 29.2109 91.5195 29.8086C92.082 30.418 92.375 31.2031 92.375 32.1875C92.375 33.1367 92.0938 33.9102 91.5312 34.4961C90.9688 35.0938 90.2539 35.3867 89.375 35.3867Z" fill="#19191A"/>
<path d="M109.039 32.0352C109.039 30.8984 108.793 29.8789 108.324 28.9766C107.844 28.0742 107.164 27.3711 106.297 26.8555C105.418 26.3398 104.41 26.082 103.285 26.082C102.465 26.082 101.691 26.2344 100.977 26.5273C100.25 26.832 99.6406 27.2422 99.125 27.7695C98.6094 28.2969 98.2109 28.9414 97.918 29.6914C97.6133 30.4414 97.4727 31.2617 97.4727 32.1289C97.4727 33.3242 97.7305 34.3906 98.2578 35.3164C98.7852 36.2539 99.5117 36.9688 100.426 37.4609C101.34 37.9531 102.359 38.1992 103.508 38.1992C104.633 38.1992 105.617 38 106.484 37.6016C107.34 37.2031 108.031 36.6641 108.57 35.9844L106.531 34.0859C105.793 34.9766 104.855 35.4219 103.73 35.4102C102.98 35.4102 102.336 35.1992 101.809 34.8008C101.281 34.4023 100.93 33.8633 100.742 33.1602H108.957C109.004 32.9727 109.039 32.5977 109.039 32.0352ZM103.391 28.8477C104.047 28.8477 104.598 29.0352 105.031 29.3984C105.453 29.7617 105.758 30.2656 105.922 30.8984H100.754C100.93 30.2422 101.246 29.7266 101.715 29.375C102.184 29.0234 102.734 28.8477 103.391 28.8477Z" fill="#19191A"/>
<path d="M118.262 26.082C117.559 26.082 116.914 26.2578 116.305 26.5859C115.695 26.9141 115.168 27.3945 114.723 28.0039H114.688V26.2812H111.547V38H114.688V32.5625C114.688 31.6719 114.945 30.9336 115.473 30.3594C116 29.7969 116.738 29.5039 117.676 29.5039C117.91 29.5039 118.191 29.5156 118.508 29.5391V26.0938C118.461 26.0938 118.379 26.082 118.262 26.082Z" fill="#19191A"/>
<path d="M128.645 26.2812V27.6055H128.598C127.719 26.5977 126.57 26.082 125.141 26.082C124.367 26.082 123.629 26.2344 122.949 26.5391C122.27 26.8438 121.684 27.2656 121.191 27.793C120.699 28.332 120.324 28.9766 120.043 29.7266C119.762 30.4883 119.621 31.3086 119.621 32.1758C119.621 33.0664 119.762 33.8984 120.043 34.6484C120.324 35.3984 120.711 36.043 121.203 36.5586C121.695 37.0742 122.293 37.4844 122.984 37.7656C123.676 38.0586 124.426 38.1992 125.234 38.1992C126.734 38.1992 127.895 37.6602 128.738 36.582H128.797V38H131.785V26.2812H128.645ZM125.809 35.3867C124.918 35.3867 124.203 35.0938 123.641 34.4961C123.078 33.9102 122.809 33.1367 122.809 32.1875C122.809 31.2031 123.09 30.418 123.664 29.8086C124.238 29.2109 124.953 28.9062 125.82 28.9062C126.664 28.9062 127.367 29.2227 127.93 29.8438C128.492 30.4766 128.773 31.25 128.773 32.1875C128.773 33.1367 128.48 33.9102 127.918 34.4961C127.344 35.0938 126.641 35.3867 125.809 35.3867Z" fill="#19191A"/>
<path d="M152.434 38H155.961L149.621 20.9492H146.363L140.047 38H143.574L144.734 34.5898H151.273L152.434 38ZM145.707 31.707L147.98 25.0156H148.004L150.289 31.707H145.707Z" fill="#19191A"/>
<path d="M166.297 20.3281V27.6055H166.238C165.348 26.5977 164.176 26.082 162.699 26.082C161.926 26.082 161.188 26.2344 160.508 26.5391C159.828 26.8438 159.242 27.2656 158.75 27.793C158.258 28.332 157.883 28.9766 157.602 29.7266C157.32 30.4883 157.18 31.3086 157.18 32.1758C157.18 32.6914 157.227 33.1836 157.32 33.6523C157.414 34.1211 157.543 34.5547 157.719 34.9531C157.895 35.3516 158.105 35.7266 158.363 36.0664C158.609 36.418 158.891 36.7109 159.219 36.9688C159.535 37.2266 159.875 37.4492 160.25 37.6367C160.625 37.8242 161.023 37.9648 161.457 38.0586C161.879 38.1523 162.324 38.1992 162.793 38.1992C164.328 38.1992 165.523 37.6602 166.379 36.582H166.449V38H169.438V20.3281H166.297ZM163.367 35.3867C162.477 35.3867 161.762 35.0938 161.199 34.4961C160.637 33.9102 160.367 33.1367 160.367 32.1875C160.367 31.2031 160.648 30.418 161.223 29.8086C161.797 29.2109 162.512 28.9062 163.379 28.9062C164.27 28.9062 164.996 29.2227 165.582 29.8438C166.168 30.4766 166.461 31.25 166.461 32.1875C166.461 32.8203 166.32 33.3711 166.039 33.8633C165.758 34.3555 165.395 34.7422 164.926 35C164.457 35.2578 163.93 35.3867 163.367 35.3867Z" fill="#19191A"/>
<path d="M181.086 20.3281V27.6055H181.027C180.137 26.5977 178.965 26.082 177.488 26.082C176.715 26.082 175.977 26.2344 175.297 26.5391C174.617 26.8438 174.031 27.2656 173.539 27.793C173.047 28.332 172.672 28.9766 172.391 29.7266C172.109 30.4883 171.969 31.3086 171.969 32.1758C171.969 32.6914 172.016 33.1836 172.109 33.6523C172.203 34.1211 172.332 34.5547 172.508 34.9531C172.684 35.3516 172.895 35.7266 173.152 36.0664C173.398 36.418 173.68 36.7109 174.008 36.9688C174.324 37.2266 174.664 37.4492 175.039 37.6367C175.414 37.8242 175.812 37.9648 176.246 38.0586C176.668 38.1523 177.113 38.1992 177.582 38.1992C179.117 38.1992 180.312 37.6602 181.168 36.582H181.238V38H184.227V20.3281H181.086ZM178.156 35.3867C177.266 35.3867 176.551 35.0938 175.988 34.4961C175.426 33.9102 175.156 33.1367 175.156 32.1875C175.156 31.2031 175.438 30.418 176.012 29.8086C176.586 29.2109 177.301 28.9062 178.168 28.9062C179.059 28.9062 179.785 29.2227 180.371 29.8438C180.957 30.4766 181.25 31.25 181.25 32.1875C181.25 32.8203 181.109 33.3711 180.828 33.8633C180.547 34.3555 180.184 34.7422 179.715 35C179.246 35.2578 178.719 35.3867 178.156 35.3867Z" fill="#19191A"/>
<path d="M186.992 32.0586H194.258V29.1172H186.992V32.0586Z" fill="#19191A"/>
<path d="M202.613 38.1992C203.809 38.1992 204.887 37.9531 205.836 37.4492C206.773 36.9453 207.512 36.2305 208.051 35.3047C208.578 34.3906 208.848 33.3359 208.848 32.1523C208.848 31.2617 208.684 30.4414 208.379 29.6914C208.074 28.9414 207.641 28.2969 207.102 27.7695C206.551 27.2422 205.895 26.832 205.121 26.5273C204.348 26.2344 203.504 26.082 202.613 26.082C201.699 26.082 200.844 26.2344 200.07 26.5391C199.285 26.8438 198.629 27.2656 198.09 27.8047C197.551 28.3438 197.129 28.9766 196.824 29.7266C196.52 30.4766 196.379 31.2852 196.379 32.1523C196.379 32.8555 196.473 33.5117 196.66 34.1211C196.848 34.7422 197.129 35.3047 197.504 35.7969C197.867 36.2891 198.301 36.7227 198.805 37.0742C199.309 37.4375 199.883 37.7188 200.539 37.9062C201.184 38.1055 201.875 38.1992 202.613 38.1992ZM202.613 35.3867C201.723 35.3867 200.984 35.082 200.41 34.4609C199.836 33.8398 199.555 33.0664 199.555 32.1523C199.555 31.2148 199.836 30.4414 200.398 29.832C200.961 29.2227 201.699 28.9062 202.613 28.9062C203.48 28.9062 204.207 29.2109 204.793 29.8203C205.367 30.4297 205.66 31.2031 205.66 32.1523C205.66 33.0898 205.367 33.8633 204.781 34.4727C204.195 35.082 203.469 35.3867 202.613 35.3867Z" fill="#19191A"/>
<path d="M218.328 26.082C217.602 26.082 216.91 26.2344 216.254 26.5273C215.598 26.8203 215.035 27.2422 214.566 27.793H214.531V26.2812H211.391V38H214.531V32.1055C214.531 31.0859 214.766 30.3008 215.246 29.7383C215.727 29.1875 216.371 28.9062 217.191 28.9062C217.953 28.9062 218.516 29.1289 218.891 29.5625C219.254 30.0078 219.441 30.7578 219.441 31.8359V38.0117H222.582V31.0508C222.582 30.1719 222.477 29.4102 222.277 28.7539C222.066 28.1094 221.773 27.5938 221.387 27.207C221 26.832 220.555 26.5508 220.051 26.3633C219.547 26.1758 218.973 26.082 218.328 26.082Z" fill="#19191A"/>
<path d="M23.0654 0.000827789C10.4749 0.000827789 0.268066 10.2076 0.268066 22.7982C0.268066 35.0245 9.89338 45.0029 21.9797 45.5691C22.3404 45.5861 22.7016 45.5957 23.0658 45.5957C28.9026 45.5957 34.2256 43.401 38.2589 39.7941C35.5866 41.5663 32.4623 42.586 29.1234 42.586C23.6944 42.586 18.8322 39.8927 15.5621 35.6456C13.0412 32.6699 11.4085 28.2713 11.2973 23.3348V22.2612C11.4084 17.325 13.0411 12.9255 15.5614 9.95053C18.832 5.70335 23.694 3.01006 29.1228 3.01006C32.4625 3.01006 35.5874 4.02977 38.2599 5.80315C34.2463 2.21272 28.9555 0.0224991 23.1512 0.000946045C23.1223 0.000946045 23.0939 -0.000183105 23.065 -0.000183105L23.0654 0.000827789Z" fill="url(#paint0_linear_9388:3286)"/>
<path d="M15.5615 9.95207C17.6536 7.48229 20.3554 5.99297 23.3073 5.99297C29.9443 5.99297 35.3236 13.5176 35.3236 22.7995C35.3236 32.0814 29.9439 39.606 23.3073 39.606C20.3554 39.606 17.6536 38.1173 15.5621 35.6474C18.8321 39.8946 23.6939 42.5879 29.1234 42.5879C32.4626 42.5879 35.5869 41.5682 38.2589 39.7959C42.9252 35.6214 45.8635 29.5538 45.8635 22.7996C45.8635 16.0463 42.9258 9.97901 38.2606 5.80494C35.5878 4.03156 32.4629 3.01184 29.1235 3.01184C23.6945 3.01184 18.8323 5.70513 15.5622 9.95232" fill="url(#paint1_linear_9388:3286)"/>
<defs>
<linearGradient id="paint0_linear_9388:3286" x1="19.2645" y1="0.743963" x2="19.2645" y2="44.9329" gradientUnits="userSpaceOnUse">
<stop stop-color="#FF1B2D"/>
<stop offset="0.3" stop-color="#FF1B2D"/>
<stop offset="0.614" stop-color="#FF1B2D"/>
<stop offset="1" stop-color="#A70014"/>
</linearGradient>
<linearGradient id="paint1_linear_9388:3286" x1="30.7121" y1="3.34914" x2="30.7121" y2="42.4319" gradientUnits="userSpaceOnUse">
<stop stop-color="#9C0000"/>
<stop offset="0.7" stop-color="#FF4B4B"/>
<stop offset="1" stop-color="#FF4B4B"/>
</linearGradient>
</defs>
</svg>
