<svg width="454" height="454" viewBox="0 0 454 454" fill="none" xmlns="http://www.w3.org/2000/svg">
<circle cx="227" cy="227" r="227" fill="#FFF2F6" fill-opacity="0.6"/>
<ellipse cx="226.588" cy="227" rx="165.948" ry="166.357" fill="#FFE7EE"/>
<g filter="url(#filter0_d)">
<path d="M404.411 95H48.2919C44.817 95 42 97.817 42 101.292V351.708C42 355.183 44.817 358 48.2919 358H404.411C407.886 358 410.703 355.183 410.703 351.708V101.292C410.703 97.817 407.886 95 404.411 95Z" fill="white"/>
</g>
<path d="M129.457 140.302H411.333V351.708C411.333 355.183 408.516 358 405.041 358H131.345C130.302 358 129.457 357.155 129.457 356.113V140.302Z" fill="#F4F4F4"/>
<g filter="url(#filter1_d)">
<path d="M142.039 188.119C142.039 187.077 142.884 186.232 143.927 186.232H282.977C284.019 186.232 284.864 187.077 284.864 188.119V237.196C284.864 238.239 284.019 239.084 282.977 239.084H143.927C142.884 239.084 142.039 238.239 142.039 237.196V188.119Z" fill="white"/>
</g>
<path d="M216.914 222.096C216.914 221.054 217.759 220.208 218.802 220.208H276.687C277.729 220.208 278.574 221.054 278.574 222.096V233.421C278.574 234.464 277.729 235.309 276.687 235.309H218.802C217.759 235.309 216.914 234.464 216.914 233.421V222.096Z" fill="#E3E3E3"/>
<path d="M232.645 227.758C232.645 227.063 233.208 226.5 233.903 226.5H261.587C262.282 226.5 262.845 227.063 262.845 227.758C262.845 228.453 262.282 229.017 261.587 229.017H233.903C233.208 229.017 232.645 228.453 232.645 227.758Z" fill="white"/>
<path d="M146.445 222.096C146.445 221.054 147.29 220.208 148.333 220.208H206.218C207.261 220.208 208.106 221.054 208.106 222.096V233.421C208.106 234.464 207.261 235.309 206.218 235.309H148.333C147.29 235.309 146.445 234.464 146.445 233.421V222.096Z" fill="#E3E3E3"/>
<path d="M162.174 227.758C162.174 227.063 162.737 226.5 163.432 226.5H191.116C191.811 226.5 192.375 227.063 192.375 227.758C192.375 228.453 191.811 229.017 191.116 229.017H163.432C162.737 229.017 162.174 228.453 162.174 227.758Z" fill="white"/>
<path d="M146.445 210.771C146.445 208.686 148.135 206.996 150.22 206.996H213.139C215.224 206.996 216.914 208.686 216.914 210.771C216.914 212.856 215.224 214.546 213.139 214.546H150.22C148.135 214.546 146.445 212.856 146.445 210.771Z" fill="#EEEEEE"/>
<path d="M146.445 192.524C146.445 191.482 147.29 190.637 148.333 190.637H170.354C171.397 190.637 172.242 191.482 172.242 192.524V196.299C172.242 197.342 171.397 198.187 170.354 198.187H148.333C147.29 198.187 146.445 197.342 146.445 196.299V192.524Z" fill="#EEEEEE"/>
<path d="M153.365 194.411C153.365 193.89 153.788 193.467 154.309 193.467H164.376C164.897 193.467 165.32 193.89 165.32 194.411C165.32 194.932 164.897 195.355 164.376 195.355H154.309C153.788 195.355 153.365 194.932 153.365 194.411Z" fill="white"/>
<path d="M142.039 188.119C142.039 187.077 142.884 186.232 143.927 186.232H282.977C284.019 186.232 284.864 187.077 284.864 188.119H142.039Z" fill="#FD3E72"/>
<path opacity="0.4" fill-rule="evenodd" clip-rule="evenodd" d="M284.864 201.715H142.039V201.086H284.864V201.715Z" fill="#E3E0D3"/>
<g filter="url(#filter2_d)">
<path d="M142.039 251.667C142.039 250.625 142.884 249.78 143.927 249.78H282.977C284.019 249.78 284.864 250.625 284.864 251.667V358H142.039V251.667Z" fill="white"/>
</g>
<path d="M146.445 256.701C146.445 256.006 147.009 255.443 147.704 255.443H176.017C176.712 255.443 177.275 256.006 177.275 256.701V259.847C177.275 260.542 176.712 261.106 176.017 261.106H147.704C147.009 261.106 146.445 260.542 146.445 259.847V256.701Z" fill="#EEEEEE"/>
<path d="M142.039 251.667C142.039 250.625 142.884 249.78 143.927 249.78H282.977C284.019 249.78 284.864 250.625 284.864 251.667H142.039Z" fill="#FD3E72"/>
<path opacity="0.4" fill-rule="evenodd" clip-rule="evenodd" d="M284.864 265.263H142.039V264.634H284.864V265.263Z" fill="#E3E0D3"/>
<path d="M269.764 271.554C269.764 270.859 270.327 270.296 271.022 270.296H276.685C277.38 270.296 277.943 270.859 277.943 271.554V277.217C277.943 277.912 277.38 278.475 276.685 278.475H271.022C270.327 278.475 269.764 277.912 269.764 277.217V271.554Z" fill="#E3E3E3"/>
<path d="M271.652 274.009C271.652 273.87 271.765 273.757 271.904 273.757H275.805C275.944 273.757 276.057 273.87 276.057 274.009V274.764C276.057 274.903 275.944 275.015 275.805 275.015H271.904C271.765 275.015 271.652 274.903 271.652 274.764V274.009Z" fill="white"/>
<path d="M146.445 272.184C146.445 270.794 147.572 269.667 148.962 269.667H153.366C154.756 269.667 155.883 270.794 155.883 272.184V276.589C155.883 277.978 154.756 279.105 153.366 279.105H148.962C147.572 279.105 146.445 277.978 146.445 276.589V272.184Z" fill="#E3E3E3"/>
<path d="M159.66 274.387C159.66 273.865 160.083 273.443 160.604 273.443H181.996C182.518 273.443 182.94 273.865 182.94 274.387C182.94 274.908 182.518 275.33 181.996 275.33H160.604C160.083 275.33 159.66 274.908 159.66 274.387Z" fill="#E3E3E3"/>
<path d="M216.113 274.415C216.113 274.036 216.421 273.729 216.8 273.729H227.095C227.475 273.729 227.782 274.036 227.782 274.415C227.782 274.794 227.475 275.101 227.095 275.101H216.8C216.421 275.101 216.113 274.794 216.113 274.415Z" fill="#E3E3E3"/>
<path fill-rule="evenodd" clip-rule="evenodd" d="M265.362 270.61H212.511C211.642 270.61 210.938 271.315 210.938 272.183V276.645C210.938 277.514 211.642 278.218 212.511 278.218H265.362C266.231 278.218 266.935 277.514 266.935 276.645V272.183C266.935 271.315 266.231 270.61 265.362 270.61ZM212.511 270.296C211.468 270.296 210.623 271.141 210.623 272.183V276.645C210.623 277.687 211.468 278.533 212.511 278.533H265.362C266.405 278.533 267.25 277.687 267.25 276.645V272.183C267.25 271.141 266.405 270.296 265.362 270.296H212.511Z" fill="#E3E3E3"/>
<path opacity="0.4" fill-rule="evenodd" clip-rule="evenodd" d="M277.945 283.51L146.445 283.51L146.445 282.88L277.945 282.88L277.945 283.51Z" fill="#E3E0D3"/>
<path d="M269.764 289.801C269.764 289.106 270.327 288.542 271.022 288.542H276.685C277.38 288.542 277.943 289.106 277.943 289.801V295.464C277.943 296.159 277.38 296.722 276.685 296.722H271.022C270.327 296.722 269.764 296.159 269.764 295.464V289.801Z" fill="#E3E3E3"/>
<path d="M271.652 292.255C271.652 292.116 271.765 292.003 271.904 292.003H275.805C275.944 292.003 276.057 292.116 276.057 292.255V293.01C276.057 293.149 275.944 293.262 275.805 293.262H271.904C271.765 293.262 271.652 293.149 271.652 293.01V292.255Z" fill="white"/>
<path d="M146.445 290.43C146.445 289.04 147.572 287.914 148.962 287.914H153.366C154.756 287.914 155.883 289.04 155.883 290.43V294.835C155.883 296.225 154.756 297.351 153.366 297.351H148.962C147.572 297.351 146.445 296.225 146.445 294.835V290.43Z" fill="#E3E3E3"/>
<path d="M159.66 292.633C159.66 292.112 160.083 291.689 160.604 291.689H181.996C182.518 291.689 182.94 292.112 182.94 292.633C182.94 293.154 182.518 293.577 181.996 293.577H160.604C160.083 293.577 159.66 293.154 159.66 292.633Z" fill="#E3E3E3"/>
<path d="M216.113 292.661C216.113 292.282 216.421 291.975 216.8 291.975H227.095C227.475 291.975 227.782 292.282 227.782 292.661C227.782 293.041 227.475 293.348 227.095 293.348H216.8C216.421 293.348 216.113 293.041 216.113 292.661Z" fill="#E3E3E3"/>
<path fill-rule="evenodd" clip-rule="evenodd" d="M265.362 288.857H212.511C211.642 288.857 210.938 289.561 210.938 290.43V294.892C210.938 295.76 211.642 296.465 212.511 296.465H265.362C266.231 296.465 266.935 295.76 266.935 294.892V290.43C266.935 289.561 266.231 288.857 265.362 288.857ZM212.511 288.542C211.468 288.542 210.623 289.388 210.623 290.43V294.892C210.623 295.934 211.468 296.779 212.511 296.779H265.362C266.405 296.779 267.25 295.934 267.25 294.892V290.43C267.25 289.388 266.405 288.542 265.362 288.542H212.511Z" fill="#E3E3E3"/>
<path opacity="0.4" fill-rule="evenodd" clip-rule="evenodd" d="M277.945 301.756L146.445 301.756L146.445 301.126L277.945 301.126L277.945 301.756Z" fill="#E3E0D3"/>
<path d="M269.764 308.295C269.764 307.6 270.327 307.036 271.022 307.036H276.685C277.38 307.036 277.943 307.6 277.943 308.295V313.957C277.943 314.652 277.38 315.216 276.685 315.216H271.022C270.327 315.216 269.764 314.652 269.764 313.957V308.295Z" fill="#E3E3E3"/>
<path d="M271.652 310.748C271.652 310.609 271.765 310.497 271.904 310.497H275.805C275.944 310.497 276.057 310.609 276.057 310.748V311.503C276.057 311.642 275.944 311.755 275.805 311.755H271.904C271.765 311.755 271.652 311.642 271.652 311.503V310.748Z" fill="white"/>
<path d="M146.445 308.923C146.445 307.534 147.572 306.407 148.962 306.407H153.366C154.756 306.407 155.883 307.534 155.883 308.923V313.328C155.883 314.718 154.756 315.845 153.366 315.845H148.962C147.572 315.845 146.445 314.718 146.445 313.328V308.923Z" fill="#E3E3E3"/>
<path d="M159.66 311.126C159.66 310.605 160.083 310.182 160.604 310.182H181.996C182.518 310.182 182.94 310.605 182.94 311.126C182.94 311.647 182.518 312.07 181.996 312.07H160.604C160.083 312.07 159.66 311.647 159.66 311.126Z" fill="#E3E3E3"/>
<path d="M216.113 311.155C216.113 310.776 216.421 310.468 216.8 310.468H227.095C227.475 310.468 227.782 310.776 227.782 311.155C227.782 311.534 227.475 311.841 227.095 311.841H216.8C216.421 311.841 216.113 311.534 216.113 311.155Z" fill="#E3E3E3"/>
<path fill-rule="evenodd" clip-rule="evenodd" d="M265.362 307.351H212.511C211.642 307.351 210.938 308.055 210.938 308.924V313.385C210.938 314.254 211.642 314.958 212.511 314.958H265.362C266.231 314.958 266.935 314.254 266.935 313.385V308.924C266.935 308.055 266.231 307.351 265.362 307.351ZM212.511 307.036C211.468 307.036 210.623 307.881 210.623 308.924V313.385C210.623 314.428 211.468 315.273 212.511 315.273H265.362C266.405 315.273 267.25 314.428 267.25 313.385V308.924C267.25 307.881 266.405 307.036 265.362 307.036H212.511Z" fill="#E3E3E3"/>
<path opacity="0.4" fill-rule="evenodd" clip-rule="evenodd" d="M277.945 320.249L146.445 320.249L146.445 319.62L277.945 319.62L277.945 320.249Z" fill="#E3E0D3"/>
<path d="M269.764 326.541C269.764 325.846 270.327 325.283 271.022 325.283H276.685C277.38 325.283 277.943 325.846 277.943 326.541V332.204C277.943 332.899 277.38 333.462 276.685 333.462H271.022C270.327 333.462 269.764 332.899 269.764 332.204V326.541Z" fill="#E3E3E3"/>
<path d="M271.652 328.994C271.652 328.855 271.765 328.743 271.904 328.743H275.805C275.944 328.743 276.057 328.855 276.057 328.994V329.749C276.057 329.888 275.944 330.001 275.805 330.001H271.904C271.765 330.001 271.652 329.888 271.652 329.749V328.994Z" fill="white"/>
<path d="M146.445 327.17C146.445 325.78 147.572 324.653 148.962 324.653H153.366C154.756 324.653 155.883 325.78 155.883 327.17V331.574C155.883 332.964 154.756 334.091 153.366 334.091H148.962C147.572 334.091 146.445 332.964 146.445 331.574V327.17Z" fill="#E3E3E3"/>
<path d="M159.66 329.372C159.66 328.851 160.083 328.428 160.604 328.428H181.996C182.518 328.428 182.94 328.851 182.94 329.372C182.94 329.893 182.518 330.316 181.996 330.316H160.604C160.083 330.316 159.66 329.893 159.66 329.372Z" fill="#E3E3E3"/>
<path d="M216.113 329.401C216.113 329.022 216.421 328.714 216.8 328.714H227.095C227.475 328.714 227.782 329.022 227.782 329.401C227.782 329.78 227.475 330.087 227.095 330.087H216.8C216.421 330.087 216.113 329.78 216.113 329.401Z" fill="#E3E3E3"/>
<path fill-rule="evenodd" clip-rule="evenodd" d="M265.362 325.597H212.511C211.642 325.597 210.938 326.302 210.938 327.17V331.632C210.938 332.501 211.642 333.205 212.511 333.205H265.362C266.231 333.205 266.935 332.501 266.935 331.632V327.17C266.935 326.302 266.231 325.597 265.362 325.597ZM212.511 325.283C211.468 325.283 210.623 326.128 210.623 327.17V331.632C210.623 332.674 211.468 333.519 212.511 333.519H265.362C266.405 333.519 267.25 332.674 267.25 331.632V327.17C267.25 326.128 266.405 325.283 265.362 325.283H212.511Z" fill="#E3E3E3"/>
<path opacity="0.4" fill-rule="evenodd" clip-rule="evenodd" d="M277.945 338.495L146.445 338.495L146.445 337.866L277.945 337.866L277.945 338.495Z" fill="#E3E0D3"/>
<path d="M269.764 344.787C269.764 344.092 270.327 343.529 271.022 343.529H276.685C277.38 343.529 277.943 344.092 277.943 344.787V350.45C277.943 351.145 277.38 351.708 276.685 351.708H271.022C270.327 351.708 269.764 351.145 269.764 350.45V344.787Z" fill="#E3E3E3"/>
<path d="M271.652 347.241C271.652 347.102 271.765 346.989 271.904 346.989H275.805C275.944 346.989 276.057 347.102 276.057 347.241V347.996C276.057 348.135 275.944 348.248 275.805 348.248H271.904C271.765 348.248 271.652 348.135 271.652 347.996V347.241Z" fill="white"/>
<path d="M146.445 345.416C146.445 344.026 147.572 342.899 148.962 342.899H153.366C154.756 342.899 155.883 344.026 155.883 345.416V349.82C155.883 351.21 154.756 352.337 153.366 352.337H148.962C147.572 352.337 146.445 351.21 146.445 349.82V345.416Z" fill="#E3E3E3"/>
<path d="M159.66 347.619C159.66 347.097 160.083 346.675 160.604 346.675H181.996C182.518 346.675 182.94 347.097 182.94 347.619C182.94 348.14 182.518 348.562 181.996 348.562H160.604C160.083 348.562 159.66 348.14 159.66 347.619Z" fill="#E3E3E3"/>
<path d="M216.113 347.647C216.113 347.268 216.421 346.961 216.8 346.961H227.095C227.475 346.961 227.782 347.268 227.782 347.647C227.782 348.026 227.475 348.334 227.095 348.334H216.8C216.421 348.334 216.113 348.026 216.113 347.647Z" fill="#E3E3E3"/>
<path fill-rule="evenodd" clip-rule="evenodd" d="M265.362 343.843H212.511C211.642 343.843 210.938 344.548 210.938 345.416V349.878C210.938 350.747 211.642 351.451 212.511 351.451H265.362C266.231 351.451 266.935 350.747 266.935 349.878V345.416C266.935 344.548 266.231 343.843 265.362 343.843ZM212.511 343.529C211.468 343.529 210.623 344.374 210.623 345.416V349.878C210.623 350.92 211.468 351.765 212.511 351.765H265.362C266.405 351.765 267.25 350.92 267.25 349.878V345.416C267.25 344.374 266.405 343.529 265.362 343.529H212.511Z" fill="#E3E3E3"/>
<path opacity="0.4" fill-rule="evenodd" clip-rule="evenodd" d="M277.945 356.742L146.445 356.741L146.445 356.112L277.945 356.112L277.945 356.742Z" fill="#E3E0D3"/>
<path d="M142.039 150.997C142.039 149.26 143.448 147.852 145.185 147.852H394.972C396.71 147.852 398.118 149.26 398.118 150.997V172.39C398.118 174.127 396.71 175.536 394.972 175.536H145.185C143.448 175.536 142.039 174.127 142.039 172.39V150.997Z" fill="url(#paint0_linear)"/>
<path opacity="0.4" d="M146.445 160.436C146.445 158.699 147.854 157.29 149.591 157.29H379.244C380.982 157.29 382.39 158.699 382.39 160.436V162.953C382.39 164.69 380.982 166.099 379.244 166.099H149.591C147.854 166.099 146.445 164.69 146.445 162.953V160.436Z" fill="white"/>
<path d="M42 117.65H129.457V358H48.2919C44.817 358 42 355.183 42 351.708V117.65Z" fill="#FD3E72"/>
<g filter="url(#filter3_d)">
<path d="M45.7754 171.131C45.7754 169.394 47.1839 167.985 48.9213 167.985H122.536C124.274 167.985 125.682 169.394 125.682 171.131V185.603C125.682 187.34 124.274 188.749 122.536 188.749H48.9213C47.1839 188.749 45.7754 187.34 45.7754 185.603V171.131Z" fill="#FAFAFA"/>
</g>
<path d="M67.089 180.569C67.2501 180.569 67.4112 180.552 67.5722 180.515C67.7299 180.481 67.8841 180.424 68.0349 180.342C68.1858 180.264 68.316 180.17 68.4291 180.055C68.5422 179.943 68.6347 179.804 68.7033 179.638C68.7718 179.476 68.8061 179.293 68.8061 179.097C68.8061 178.907 68.7753 178.738 68.7204 178.589C68.621 178.332 68.4154 178.115 68.1001 177.942C67.9561 177.865 67.6751 177.746 67.2638 177.584C66.9142 177.452 66.6845 177.35 66.5783 177.282C66.4103 177.174 66.3281 177.039 66.3315 176.869C66.3315 176.693 66.4001 176.551 66.5303 176.45C66.6605 176.348 66.8285 176.294 67.0273 176.294C67.3837 176.294 67.7642 176.463 68.1755 176.798L68.6793 176.142C68.1549 175.735 67.6031 175.536 67.0273 175.536C66.7428 175.536 66.4789 175.597 66.239 175.718C65.9991 175.84 65.8071 176.006 65.6666 176.216C65.5226 176.429 65.4541 176.663 65.4541 176.913C65.4541 177.039 65.4678 177.157 65.4987 177.265C65.5295 177.374 65.5706 177.472 65.6186 177.556C65.6666 177.641 65.7283 177.722 65.8105 177.797C65.8894 177.871 65.9682 177.939 66.047 177.993C66.1259 178.047 66.2218 178.101 66.3315 178.156C66.4412 178.21 66.544 178.257 66.6366 178.291C66.7257 178.328 66.8353 178.369 66.9587 178.41C67.0616 178.447 67.1472 178.477 67.2124 178.501C67.2741 178.528 67.346 178.555 67.4214 178.589C67.4968 178.623 67.5585 178.65 67.6031 178.677C67.6476 178.704 67.6922 178.738 67.7402 178.775C67.7847 178.816 67.819 178.853 67.843 178.894C67.8636 178.934 67.8841 178.978 67.8979 179.029C67.9116 179.08 67.9218 179.134 67.9218 179.195C67.9218 179.384 67.8499 179.53 67.7093 179.638C67.5654 179.747 67.3597 179.797 67.0924 179.797C66.8696 179.797 66.6434 179.743 66.4172 179.631C66.191 179.52 65.9888 179.357 65.814 179.147L65.2793 179.797C65.5329 180.055 65.8174 180.248 66.1293 180.376C66.4378 180.505 66.7599 180.569 67.089 180.569Z" fill="#FD3E72"/>
<path d="M73.7793 177.083C73.5257 177.083 73.2926 177.133 73.0835 177.228C72.871 177.323 72.6962 177.462 72.5523 177.644H72.5386C72.3329 177.272 71.9936 177.083 71.5172 177.083C71.315 177.083 71.1196 177.13 70.9346 177.218C70.7495 177.306 70.585 177.435 70.4479 177.6H70.4376V177.133H69.6527V180.515H70.4376V178.829C70.4376 178.508 70.513 178.254 70.6672 178.068C70.8214 177.881 71.0202 177.787 71.2602 177.787C71.7126 177.787 71.9422 178.112 71.9422 178.755V180.518H72.7271V178.829C72.7271 178.508 72.8025 178.254 72.9533 178.068C73.1041 177.881 73.296 177.787 73.5257 177.787C73.9712 177.787 74.1975 178.112 74.1975 178.755V180.518H74.9823V178.558C74.9823 178.064 74.8761 177.695 74.6704 177.452C74.4614 177.208 74.1632 177.083 73.7793 177.083Z" fill="#FD3E72"/>
<path d="M78.468 177.133V177.54H78.4543C78.1938 177.235 77.8408 177.083 77.3952 177.083C77.1622 177.083 76.9428 177.127 76.7406 177.215C76.535 177.303 76.3602 177.424 76.2162 177.577C76.0688 177.733 75.9523 177.919 75.87 178.135C75.7844 178.355 75.7432 178.589 75.7432 178.839C75.7432 179.046 75.7672 179.239 75.8221 179.422C75.8769 179.604 75.9523 179.764 76.0517 179.902C76.1511 180.041 76.2676 180.16 76.4047 180.261C76.5418 180.363 76.6926 180.441 76.864 180.491C77.0354 180.545 77.2136 180.569 77.4021 180.569C77.8682 180.569 78.2315 180.4 78.492 180.061H78.5023V180.515H79.2529V177.133H78.468ZM77.5255 179.865C77.2342 179.865 76.9977 179.77 76.816 179.581C76.6309 179.391 76.5418 179.144 76.5418 178.843C76.5418 178.687 76.5658 178.542 76.6172 178.406C76.6686 178.271 76.7406 178.159 76.8297 178.071C76.9188 177.983 77.0217 177.912 77.1416 177.861C77.2616 177.814 77.3918 177.787 77.5289 177.787C77.8065 177.787 78.0362 177.888 78.2213 178.091C78.4063 178.294 78.4989 178.545 78.4989 178.843C78.4989 179.144 78.4029 179.391 78.2144 179.581C78.0259 179.77 77.7963 179.865 77.5255 179.865Z" fill="#FD3E72"/>
<path d="M82.1045 177.083C81.8955 177.083 81.7001 177.133 81.515 177.228C81.3299 177.323 81.1723 177.462 81.0386 177.641H81.0283V177.133H80.2434V180.515H81.0283V178.91C81.0283 178.728 81.0626 178.562 81.1346 178.416C81.2065 178.271 81.3128 178.156 81.4567 178.068C81.6007 177.983 81.7686 177.939 81.964 177.939C82.0326 177.939 82.1114 177.942 82.2005 177.949V177.086C82.1799 177.086 82.1491 177.083 82.1045 177.083Z" fill="#FD3E72"/>
<path d="M83.8765 180.569C84.0787 180.569 84.2432 180.552 84.3701 180.518C84.4969 180.485 84.6237 180.437 84.7471 180.369L84.5414 179.699C84.3564 179.797 84.185 179.845 84.0342 179.845C83.9211 179.845 83.8388 179.811 83.784 179.736C83.7291 179.665 83.7051 179.543 83.7051 179.374V177.793H84.7128V177.133H83.7051V175.925L82.9203 176.01V177.133H82.5021V177.793H82.9203V179.445C82.9203 179.818 83.0025 180.095 83.1705 180.285C83.3384 180.474 83.5749 180.569 83.8765 180.569Z" fill="#FD3E72"/>
<path d="M85.5182 180.515H87.1257C87.5164 180.515 87.8763 180.457 88.1985 180.336C88.5207 180.217 88.7914 180.051 89.0108 179.835C89.2267 179.618 89.3947 179.361 89.5146 179.056C89.6312 178.755 89.6929 178.423 89.6929 178.061C89.6929 177.702 89.6312 177.367 89.5078 177.062C89.3844 176.758 89.213 176.497 88.9937 176.28C88.7709 176.064 88.4967 175.894 88.1745 175.773C87.8489 175.651 87.4924 175.59 87.1051 175.59H85.5182V180.515ZM86.3648 179.764V176.341H87.1223C87.4479 176.341 87.7392 176.416 87.9997 176.561C88.2602 176.71 88.459 176.913 88.6029 177.174C88.7469 177.438 88.8189 177.733 88.8189 178.061C88.8189 178.305 88.7743 178.528 88.692 178.738C88.6098 178.948 88.4933 179.131 88.3424 179.279C88.1916 179.432 88.01 179.55 87.7906 179.635C87.5713 179.723 87.3314 179.764 87.0743 179.764H86.3648Z" fill="#FD3E72"/>
<path d="M93.9771 175.59V179.124H93.96L91.5265 175.59H90.6868V180.515H91.5334V177.032H91.5471L93.96 180.515H94.8237V175.59H93.9771Z" fill="#FD3E72"/>
<path d="M97.5382 180.569C97.6993 180.569 97.8604 180.552 98.0215 180.515C98.1792 180.481 98.3334 180.424 98.4842 180.342C98.635 180.264 98.7653 180.17 98.8784 180.055C98.9915 179.943 99.084 179.804 99.1526 179.638C99.2211 179.476 99.2554 179.293 99.2554 179.097C99.2554 178.907 99.2245 178.738 99.1697 178.589C99.0703 178.332 98.8646 178.115 98.5493 177.942C98.4054 177.865 98.1243 177.746 97.713 177.584C97.3634 177.452 97.1338 177.35 97.0275 177.282C96.8596 177.174 96.7773 177.039 96.7808 176.869C96.7808 176.693 96.8493 176.551 96.9796 176.45C97.1098 176.348 97.2777 176.294 97.4765 176.294C97.833 176.294 98.2134 176.463 98.6247 176.798L99.1286 176.142C98.6042 175.735 98.0523 175.536 97.4765 175.536C97.1921 175.536 96.9282 175.597 96.6882 175.718C96.4483 175.84 96.2564 176.006 96.1159 176.216C95.9719 176.429 95.9034 176.663 95.9034 176.913C95.9034 177.039 95.9171 177.157 95.9479 177.265C95.9788 177.374 96.0199 177.472 96.0679 177.556C96.1159 177.641 96.1775 177.722 96.2598 177.797C96.3386 177.871 96.4175 177.939 96.4963 177.993C96.5751 178.047 96.6711 178.101 96.7808 178.156C96.8904 178.21 96.9933 178.257 97.0858 178.291C97.1749 178.328 97.2846 178.369 97.408 178.41C97.5108 178.447 97.5965 178.477 97.6616 178.501C97.7233 178.528 97.7953 178.555 97.8707 178.589C97.9461 178.623 98.0078 178.65 98.0523 178.677C98.0969 178.704 98.1415 178.738 98.1894 178.775C98.234 178.816 98.2683 178.853 98.2923 178.894C98.3128 178.934 98.3334 178.978 98.3471 179.029C98.3608 179.08 98.3711 179.134 98.3711 179.195C98.3711 179.384 98.2991 179.53 98.1586 179.638C98.0146 179.747 97.809 179.797 97.5417 179.797C97.3189 179.797 97.0927 179.743 96.8665 179.631C96.6402 179.52 96.438 179.357 96.2632 179.147L95.7286 179.797C95.9822 180.055 96.2667 180.248 96.5786 180.376C96.887 180.505 97.2092 180.569 97.5382 180.569Z" fill="#FD3E72"/>
<path d="M56.4727 182.457C58.9051 182.457 60.877 180.485 60.877 178.052C60.877 175.62 58.9051 173.648 56.4727 173.648C54.0402 173.648 52.0684 175.62 52.0684 178.052C52.0684 180.485 54.0402 182.457 56.4727 182.457Z" fill="#FD3E72"/>
<path fill-rule="evenodd" clip-rule="evenodd" d="M51.8887 176.585C51.8887 176.324 52.0999 176.113 52.3606 176.113H60.5819C60.8425 176.113 61.0538 176.324 61.0538 176.585C61.0538 176.845 60.8425 177.057 60.5819 177.057H52.3606C52.0999 177.057 51.8887 176.845 51.8887 176.585Z" fill="white"/>
<path fill-rule="evenodd" clip-rule="evenodd" d="M51.8887 179.521C51.8887 179.26 52.0999 179.049 52.3606 179.049H60.5819C60.8425 179.049 61.0538 179.26 61.0538 179.521C61.0538 179.781 60.8425 179.993 60.5819 179.993H52.3606C52.0999 179.993 51.8887 179.781 51.8887 179.521Z" fill="white"/>
<path fill-rule="evenodd" clip-rule="evenodd" d="M56.4754 173.248C56.6965 173.386 56.7639 173.677 56.6259 173.898C55.8482 175.144 55.436 176.584 55.436 178.053C55.436 179.521 55.8482 180.961 56.6259 182.207C56.7639 182.428 56.6965 182.719 56.4754 182.857C56.2543 182.995 55.9632 182.928 55.8252 182.707C54.9541 181.311 54.4922 179.698 54.4922 178.053C54.4922 176.407 54.9541 174.794 55.8252 173.398C55.9632 173.177 56.2543 173.11 56.4754 173.248Z" fill="white"/>
<path fill-rule="evenodd" clip-rule="evenodd" d="M56.4663 173.248C56.6874 173.11 56.9785 173.177 57.1164 173.398C57.9876 174.794 58.4495 176.407 58.4495 178.053C58.4495 179.698 57.9876 181.311 57.1164 182.707C56.9785 182.928 56.6874 182.995 56.4663 182.857C56.2452 182.719 56.1778 182.428 56.3158 182.207C57.0934 180.961 57.5057 179.521 57.5057 178.053C57.5057 176.584 57.0934 175.144 56.3158 173.898C56.1778 173.677 56.2452 173.386 56.4663 173.248Z" fill="white"/>
<path d="M66.8312 133.901H61.8505C61.6241 133.901 61.4526 134.1 61.4938 134.319C61.5006 134.367 61.5075 134.415 61.5144 134.463C61.5487 134.655 61.6035 134.84 61.679 135.025C61.7956 135.306 61.9809 135.553 62.2347 135.772C62.4817 135.991 62.8316 136.094 63.2775 136.094C63.7234 136.094 64.0664 135.984 64.3203 135.772C64.5192 135.601 64.6701 135.409 64.7868 135.203C64.8485 135.094 64.972 135.025 65.0955 135.025H66.4882C66.742 135.025 66.9135 135.279 66.8312 135.512C66.7694 135.69 66.694 135.861 66.6048 136.012C66.447 136.293 66.2755 136.539 66.0834 136.745C65.8913 136.95 65.6924 137.122 65.4728 137.259C65.2533 137.396 65.0475 137.505 64.8417 137.594C64.3408 137.786 63.8195 137.889 63.2638 137.889C62.5366 137.875 61.8917 137.725 61.3291 137.437C61.089 137.307 60.8558 137.142 60.6225 136.944C60.3892 136.745 60.1834 136.491 60.0051 136.19C59.8267 135.888 59.6826 135.525 59.5729 135.1C59.4631 134.676 59.4082 134.189 59.4082 133.62C59.4082 133.059 59.4631 132.565 59.5729 132.14C59.6826 131.716 59.8267 131.352 60.0051 131.044C60.1834 130.736 60.3892 130.482 60.6225 130.277C60.8558 130.071 61.089 129.907 61.3291 129.777C61.8848 129.475 62.5228 129.317 63.2432 129.29C63.2569 129.29 63.2706 129.29 63.2843 129.29C63.8743 129.317 64.4232 129.441 64.9377 129.66C65.1572 129.756 65.3768 129.886 65.5963 130.044C65.8158 130.201 66.0217 130.393 66.2137 130.626C66.4058 130.859 66.5705 131.133 66.7146 131.455C66.8586 131.777 66.9684 132.147 67.0301 132.565C67.0507 132.73 67.0713 132.894 67.085 133.065C67.0987 133.237 67.1125 133.422 67.1125 133.62C67.1193 133.607 67.1605 133.901 66.8312 133.901ZM64.4575 132.552C64.7182 132.552 64.9034 132.277 64.7868 132.044C64.7868 132.044 64.7868 132.038 64.7799 132.038C64.6976 131.866 64.5878 131.709 64.4438 131.565C64.2997 131.428 64.135 131.311 63.9429 131.229C63.7509 131.147 63.5176 131.106 63.2638 131.106C63.0031 131.106 62.7767 131.147 62.5846 131.229C62.3925 131.311 62.221 131.421 62.0838 131.565C61.9397 131.709 61.8299 131.859 61.7407 132.038V132.044C61.6241 132.284 61.8094 132.558 62.07 132.558H64.4575V132.552Z" fill="white"/>
<path d="M58.4192 125.83C57.3215 125.83 56.4365 126.713 56.4365 127.81V133.545C56.4365 133.785 56.4228 134.024 56.3953 134.278C56.3679 134.525 56.2993 134.751 56.1895 134.956C56.0798 135.162 55.9151 135.333 55.6956 135.47C55.476 135.607 55.1605 135.676 54.7626 135.676C54.3646 135.676 54.0491 135.607 53.8295 135.47C53.61 135.333 53.4453 135.162 53.3356 134.956C53.2258 134.751 53.1572 134.525 53.1298 134.278C53.1023 134.031 53.0886 133.785 53.0886 133.545V127.632C51.9909 127.632 51.1059 128.516 51.1059 129.612V133.538C51.1059 133.778 51.0922 134.018 51.0648 134.271C51.0373 134.518 50.9687 134.744 50.859 134.949C50.7492 135.155 50.5846 135.326 50.365 135.463C50.1455 135.6 49.8299 135.669 49.432 135.669C49.0341 135.669 48.7185 135.6 48.499 135.463C48.2794 135.326 48.1148 135.155 48.005 134.949C47.8953 134.744 47.8267 134.518 47.7992 134.271C47.7718 134.024 47.7581 133.778 47.7581 133.538V129.434C46.6604 129.434 45.7754 130.324 45.7754 131.414V133.538C45.7754 134.1 45.8303 134.593 45.94 135.018C46.0498 135.443 46.187 135.806 46.3517 136.114C46.5232 136.423 46.7153 136.676 46.9348 136.882C47.1543 137.087 47.3807 137.252 47.6071 137.382C48.1354 137.683 48.746 137.848 49.4251 137.868C50.118 137.848 50.7286 137.683 51.2637 137.382C51.4901 137.252 51.7165 137.087 51.9292 136.882C51.9841 136.827 52.039 136.772 52.0938 136.71C52.1487 136.772 52.2036 136.827 52.2585 136.882C52.478 137.087 52.7044 137.252 52.9308 137.382C53.4591 137.683 54.0696 137.848 54.7488 137.868C55.4417 137.848 56.0523 137.683 56.5874 137.382C56.8138 137.252 57.0402 137.087 57.2529 136.882C57.4724 136.676 57.6645 136.423 57.836 136.114C58.0075 135.806 58.1447 135.443 58.2476 135.018C58.3506 134.593 58.3986 134.107 58.3986 133.538L58.4192 125.83Z" fill="white"/>
<path d="M73.1273 137.368C73.0724 137.525 72.9284 137.635 72.7569 137.635H71.7141H70.6713C70.5066 137.635 70.3557 137.525 70.3008 137.368L67.8791 129.947C67.7968 129.694 67.982 129.44 68.2496 129.44H69.4227C69.5874 129.44 69.7383 129.55 69.7932 129.707L71.3436 134.442C71.4602 134.798 71.9611 134.798 72.0777 134.442L72.9695 131.715L74.4651 127.138C74.7944 126.144 75.8646 125.596 76.8594 125.925L73.1273 137.368Z" fill="white"/>
<path d="M82.694 130.989C82.5156 130.681 82.3098 130.427 82.0766 130.222C81.8433 130.016 81.6101 129.852 81.3699 129.721C80.8074 129.42 80.1694 129.255 79.4627 129.235C78.7836 129.235 78.2073 129.338 77.7339 129.536C77.2605 129.735 76.8695 130.023 76.5608 130.393C76.2521 130.763 76.0325 131.215 75.8885 131.749C75.7512 132.284 75.6758 132.887 75.6758 133.565V139.869C75.6758 140.136 75.8885 140.349 76.156 140.349H77.1165C77.384 140.349 77.5967 140.136 77.5967 139.869V136.697C77.6996 136.84 77.8162 136.964 77.9397 137.073C78.221 137.313 78.4954 137.484 78.763 137.587C79.0648 137.704 79.3736 137.772 79.696 137.793C79.7234 137.793 79.744 137.793 79.7715 137.793C80.4232 137.779 81.0063 137.628 81.514 137.341C81.7404 137.21 81.9599 137.046 82.1726 136.847C82.3853 136.649 82.5705 136.395 82.742 136.094C82.9067 135.792 83.0439 135.429 83.1468 135.011C83.2497 134.593 83.2977 134.1 83.2977 133.538C83.2977 132.976 83.2428 132.489 83.1262 132.065C83.0164 131.654 82.8724 131.29 82.694 130.989ZM81.2464 134.326C81.2053 134.607 81.1161 134.867 80.9858 135.107C80.8554 135.347 80.6702 135.552 80.4301 135.71C80.1899 135.874 79.8675 135.95 79.4696 135.95C79.0717 135.95 78.7493 135.867 78.5091 135.71C78.269 135.545 78.0769 135.347 77.9397 135.107C77.8025 134.867 77.7133 134.607 77.6722 134.326C77.631 134.045 77.6104 133.784 77.6104 133.552C77.6104 133.264 77.631 132.976 77.6653 132.688C77.7065 132.4 77.7819 132.147 77.9054 131.914C78.0289 131.681 78.2141 131.496 78.4611 131.359C78.7081 131.222 79.0443 131.147 79.4627 131.147C79.8606 131.147 80.1831 131.229 80.4232 131.386C80.6633 131.551 80.8554 131.749 80.9789 131.989C81.1092 132.229 81.1916 132.496 81.2396 132.77C81.2808 133.051 81.3013 133.312 81.3013 133.545C81.3082 133.784 81.2876 134.045 81.2464 134.326Z" fill="white"/>
<path d="M90.8298 131.729C90.6652 131.236 90.4525 130.831 90.1918 130.509C89.9311 130.187 89.6498 129.941 89.348 129.769C89.0461 129.598 88.758 129.468 88.4904 129.392C88.2228 129.31 87.9827 129.269 87.7838 129.255C87.5848 129.242 87.4682 129.242 87.4339 129.242C87.3927 129.242 87.2693 129.249 87.0772 129.255C86.8851 129.269 86.6518 129.31 86.3843 129.392C86.1167 129.475 85.8286 129.598 85.5267 129.769C85.2248 129.941 84.9436 130.187 84.6829 130.509C84.4222 130.831 84.2095 131.242 84.0449 131.729C83.8802 132.222 83.791 132.825 83.791 133.545V137.204C83.791 137.443 83.9831 137.635 84.2232 137.635H85.3278C85.5679 137.635 85.76 137.443 85.76 137.204V133.552C85.76 133.312 85.7805 133.072 85.8217 132.825C85.8629 132.579 85.9452 132.352 86.0618 132.147C86.1784 131.941 86.35 131.77 86.5626 131.64C86.7753 131.503 87.0634 131.441 87.4202 131.441C87.7769 131.441 88.0651 131.51 88.2777 131.64C88.4904 131.777 88.6619 131.941 88.7785 132.147C88.8952 132.352 88.9775 132.579 89.0187 132.825C89.0598 133.072 89.0804 133.319 89.0804 133.552V137.204C89.0804 137.443 89.2725 137.635 89.5126 137.635H90.6446C90.8847 137.635 91.0768 137.443 91.0768 137.204V133.552C91.0768 132.825 90.9945 132.222 90.8298 131.729Z" fill="white"/>
<path d="M369.178 125.829C369.178 124.787 370.023 123.942 371.065 123.942H396.233C397.275 123.942 398.12 124.787 398.12 125.829V132.121C398.12 133.164 397.275 134.009 396.233 134.009H371.065C370.023 134.009 369.178 133.164 369.178 132.121V125.829Z" fill="#DDDDDD"/>
<path d="M376.098 128.975C376.098 128.28 376.661 127.717 377.356 127.717H389.94C390.635 127.717 391.198 128.28 391.198 128.975C391.198 129.67 390.635 130.234 389.94 130.234H377.356C376.661 130.234 376.098 129.67 376.098 128.975Z" fill="white"/>
<path d="M345.898 126.773C345.898 125.21 347.166 123.942 348.73 123.942H361.314C362.877 123.942 364.145 125.21 364.145 126.773V131.178C364.145 132.741 362.877 134.009 361.314 134.009H348.73C347.166 134.009 345.898 132.741 345.898 131.178V126.773Z" fill="white"/>
<path d="M348.414 128.975C348.414 128.28 348.977 127.717 349.672 127.717H360.34C361.035 127.717 361.598 128.28 361.598 128.975C361.598 129.67 361.035 130.234 360.34 130.234H349.672C348.977 130.234 348.414 129.67 348.414 128.975Z" fill="#DDDDDD"/>
<path d="M57.7288 106.325C57.7288 107.715 56.602 108.842 55.2121 108.842C53.8221 108.842 52.6953 107.715 52.6953 106.325C52.6953 104.935 53.8221 103.808 55.2121 103.808C56.602 103.808 57.7288 104.935 57.7288 106.325Z" fill="#FD3E72"/>
<path d="M64.6487 106.325C64.6487 107.715 63.5219 108.842 62.132 108.842C60.742 108.842 59.6152 107.715 59.6152 106.325C59.6152 104.935 60.742 103.808 62.132 103.808C63.5219 103.808 64.6487 104.935 64.6487 106.325Z" fill="#F6BC4F"/>
<path d="M71.5726 106.325C71.5726 107.715 70.4458 108.842 69.0558 108.842C67.6658 108.842 66.5391 107.715 66.5391 106.325C66.5391 104.935 67.6658 103.808 69.0558 103.808C70.4458 103.808 71.5726 104.935 71.5726 106.325Z" fill="#00B67A"/>
<path d="M42 117.65H408.187V118.28H42V117.65Z" fill="#F3F3F3"/>
<path d="M50.8086 155.716C50.8086 153.11 52.9213 150.998 55.5275 150.998H115.929C118.536 150.998 120.648 153.11 120.648 155.716C120.648 158.323 118.536 160.435 115.929 160.435H55.5275C52.9213 160.435 50.8086 158.323 50.8086 155.716Z" fill="#EE3C6C"/>
<path d="M50.8086 207.31C50.8086 204.704 52.9213 202.591 55.5275 202.591H115.929C118.536 202.591 120.648 204.704 120.648 207.31C120.648 209.916 118.536 212.029 115.929 212.029H55.5275C52.9213 212.029 50.8086 209.916 50.8086 207.31Z" fill="#EE3C6C"/>
<path d="M50.8086 229.331C50.8086 226.725 52.9213 224.612 55.5275 224.612H115.929C118.536 224.612 120.648 226.725 120.648 229.331C120.648 231.937 118.536 234.05 115.929 234.05H55.5275C52.9213 234.05 50.8086 231.937 50.8086 229.331Z" fill="#EE3C6C"/>
<path d="M50.8086 251.353C50.8086 248.747 52.9213 246.634 55.5275 246.634H115.929C118.536 246.634 120.648 248.747 120.648 251.353C120.648 253.959 118.536 256.072 115.929 256.072H55.5275C52.9213 256.072 50.8086 253.959 50.8086 251.353Z" fill="#EE3C6C"/>
<path d="M50.8086 273.375C50.8086 270.768 52.9213 268.656 55.5275 268.656H115.929C118.536 268.656 120.648 270.768 120.648 273.375C120.648 275.981 118.536 278.094 115.929 278.094H55.5275C52.9213 278.094 50.8086 275.981 50.8086 273.375Z" fill="#EE3C6C"/>
<path d="M297.449 189.378C297.449 187.64 298.858 186.232 300.595 186.232H394.973C396.711 186.232 398.119 187.64 398.119 189.378V295.71C398.119 297.448 396.711 298.856 394.973 298.856H300.595C298.858 298.856 297.449 297.448 297.449 295.71V189.378Z" fill="white"/>
<path fill-rule="evenodd" clip-rule="evenodd" d="M382.687 199.426C382.871 199.242 383.17 199.242 383.354 199.426L384.908 200.98L386.462 199.426C386.646 199.242 386.945 199.242 387.13 199.426C387.314 199.611 387.314 199.909 387.13 200.094L385.242 201.981C385.058 202.165 384.759 202.165 384.575 201.981L382.687 200.094C382.503 199.909 382.503 199.611 382.687 199.426Z" fill="#2C3E50"/>
<path fill-rule="evenodd" clip-rule="evenodd" d="M315.723 194.411H303.084C302.925 194.411 302.772 194.474 302.659 194.587C302.546 194.699 302.482 194.851 302.482 195.01V203.999C302.482 204.158 302.546 204.31 302.659 204.422C302.772 204.535 302.925 204.598 303.084 204.598H315.723C315.882 204.598 316.035 204.535 316.148 204.422C316.261 204.31 316.325 204.158 316.325 203.999V195.01C316.325 194.851 316.261 194.699 316.148 194.587C316.035 194.474 315.882 194.411 315.723 194.411ZM310.663 195.535C310.719 195.895 310.564 196.248 310.36 196.498C310.141 196.765 309.765 196.972 309.401 196.961C309.335 196.616 309.505 196.262 309.712 196.022C309.94 195.759 310.33 195.557 310.663 195.535ZM311.592 199.452C311.624 199.886 311.905 200.25 312.325 200.402L312.638 200.514L312.5 200.805C312.338 201.147 312.257 201.305 312.049 201.607C311.696 202.12 311.252 202.644 310.635 202.649C310.377 202.652 310.23 202.589 310.079 202.525C309.931 202.463 309.778 202.398 309.508 202.386C309.26 202.387 309.107 202.452 308.953 202.517C308.797 202.583 308.639 202.651 308.377 202.651H308.365C307.735 202.645 307.289 202.117 306.972 201.656C306.17 200.494 306.011 199.031 306.592 198.178C306.982 197.606 307.612 197.25 308.238 197.25C308.561 197.25 308.812 197.335 309.035 197.411L309.036 197.411C309.206 197.469 309.352 197.518 309.5 197.518C309.63 197.518 309.748 197.476 309.899 197.422C310.111 197.345 310.376 197.25 310.758 197.25C311.309 197.25 311.873 197.53 312.268 197.997L312.502 198.276L312.173 198.448C311.778 198.654 311.56 199.029 311.592 199.452Z" fill="#FD3E72"/>
<path d="M313.316 205.198H305.492V205.797C305.492 205.956 305.556 206.108 305.668 206.221C305.781 206.333 305.934 206.396 306.094 206.396H312.714C312.874 206.396 313.027 206.333 313.14 206.221C313.253 206.108 313.316 205.956 313.316 205.797V205.198Z" fill="#FD3E72"/>
<path d="M326.355 202.88H327.411L325.185 197.137H324.202L321.988 202.88H323.04L323.485 201.645H325.907L326.355 202.88ZM323.791 200.8L324.692 198.314H324.7L325.601 200.8H323.791Z" fill="#5B5863"/>
<path d="M330.453 198.878C329.907 198.878 329.475 199.059 329.161 199.415H329.144V198.937H328.211V204.478H329.144V202.395H329.156C329.466 202.762 329.895 202.943 330.445 202.943C330.665 202.943 330.877 202.916 331.081 202.852C331.285 202.789 331.464 202.702 331.627 202.584C331.791 202.466 331.929 202.327 332.047 202.166C332.166 202.004 332.255 201.818 332.321 201.605C332.386 201.392 332.418 201.167 332.418 200.926C332.418 200.733 332.394 200.543 332.349 200.362C332.304 200.18 332.239 200.015 332.158 199.865C332.076 199.715 331.974 199.58 331.856 199.458C331.733 199.336 331.603 199.233 331.46 199.146C331.313 199.059 331.159 198.996 330.987 198.949C330.816 198.902 330.637 198.878 330.453 198.878ZM330.298 202.122C329.96 202.122 329.678 202.012 329.45 201.791C329.222 201.57 329.108 201.285 329.108 200.93C329.108 200.579 329.218 200.287 329.438 200.05C329.658 199.817 329.943 199.699 330.294 199.699C330.628 199.699 330.906 199.813 331.13 200.038C331.354 200.263 331.468 200.559 331.468 200.93C331.468 201.282 331.358 201.57 331.142 201.791C330.922 202.012 330.641 202.122 330.298 202.122Z" fill="#5B5863"/>
<path d="M335.64 198.878C335.093 198.878 334.661 199.059 334.347 199.415H334.331V198.937H333.397V204.478H334.331V202.395H334.343C334.653 202.762 335.081 202.943 335.632 202.943C335.852 202.943 336.064 202.916 336.268 202.852C336.471 202.789 336.651 202.702 336.814 202.584C336.977 202.466 337.116 202.327 337.234 202.166C337.352 202.004 337.442 201.818 337.507 201.605C337.572 201.392 337.605 201.167 337.605 200.926C337.605 200.733 337.581 200.543 337.536 200.362C337.491 200.18 337.426 200.015 337.344 199.865C337.263 199.715 337.161 199.58 337.042 199.458C336.92 199.336 336.79 199.233 336.647 199.146C336.5 199.059 336.345 198.996 336.174 198.949C336.003 198.902 335.823 198.878 335.64 198.878ZM335.485 202.122C335.146 202.122 334.865 202.012 334.637 201.791C334.408 201.57 334.294 201.285 334.294 200.93C334.294 200.579 334.404 200.287 334.624 200.05C334.845 199.817 335.13 199.699 335.481 199.699C335.815 199.699 336.092 199.813 336.317 200.038C336.541 200.263 336.655 200.559 336.655 200.93C336.655 201.282 336.545 201.57 336.329 201.791C336.109 202.012 335.827 202.122 335.485 202.122Z" fill="#5B5863"/>
<path d="M338.645 202.88H339.579V196.928H338.645V202.88Z" fill="#5B5863"/>
<path d="M344.582 200.863C344.582 200.484 344.5 200.141 344.341 199.841C344.178 199.541 343.95 199.308 343.648 199.134C343.346 198.965 342.995 198.878 342.604 198.878C342.323 198.878 342.062 198.929 341.817 199.028C341.572 199.127 341.36 199.265 341.185 199.438C341.006 199.616 340.867 199.829 340.769 200.082C340.667 200.334 340.618 200.611 340.618 200.907C340.618 201.309 340.708 201.668 340.891 201.98C341.071 202.292 341.32 202.529 341.638 202.695C341.952 202.86 342.306 202.943 342.702 202.943C343.081 202.943 343.415 202.876 343.705 202.742C343.994 202.608 344.231 202.426 344.419 202.197L343.766 201.656C343.509 201.968 343.171 202.122 342.751 202.122C342.449 202.122 342.196 202.043 341.988 201.881C341.78 201.724 341.646 201.503 341.589 201.222H344.557C344.573 201.128 344.582 201.009 344.582 200.863ZM342.653 199.699C342.824 199.699 342.979 199.734 343.118 199.801C343.256 199.869 343.367 199.959 343.452 200.078C343.538 200.196 343.603 200.334 343.644 200.492H341.605C341.67 200.24 341.797 200.046 341.984 199.908C342.172 199.77 342.392 199.699 342.653 199.699Z" fill="#5B5863"/>
<path d="M346.049 202.88H347.057V198.014H348.757V197.137H344.365V198.014H346.049V202.88Z" fill="#5B5863"/>
<path d="M353.621 197.137L352.052 201.479H352.035L350.478 197.137H349.389L351.603 202.88H352.496L354.706 197.137H353.621Z" fill="#5B5863"/>
<path d="M297.449 213.917H398.119V214.546H297.449V213.917Z" fill="#F3F3F3"/>
<path d="M297.449 241.601H398.119V242.23H297.449V241.601Z" fill="#F3F3F3"/>
<path d="M297.449 269.285H398.119V269.914H297.449V269.285Z" fill="#F3F3F3"/>
<path d="M303.113 223.983C303.113 222.593 304.24 221.466 305.63 221.466H313.7C315.09 221.466 316.216 222.593 316.216 223.983V232.053C316.216 233.443 315.09 234.569 313.7 234.569H305.63C304.24 234.569 303.113 233.443 303.113 232.053V223.983Z" fill="#E3E3E3"/>
<path d="M321.947 228.018C321.947 227.114 322.681 226.38 323.585 226.38H353.067C353.972 226.38 354.705 227.114 354.705 228.018C354.705 228.923 353.972 229.656 353.067 229.656H323.585C322.681 229.656 321.947 228.923 321.947 228.018Z" fill="#E3E3E3"/>
<path d="M303.113 251.667C303.113 250.277 304.24 249.15 305.63 249.15H313.7C315.09 249.15 316.216 250.277 316.216 251.667V259.737C316.216 261.127 315.09 262.253 313.7 262.253H305.63C304.24 262.253 303.113 261.127 303.113 259.737V251.667Z" fill="#E3E3E3"/>
<path d="M321.947 255.702C321.947 254.797 322.681 254.064 323.585 254.064H353.067C353.972 254.064 354.705 254.797 354.705 255.702C354.705 256.606 353.972 257.34 353.067 257.34H323.585C322.681 257.34 321.947 256.606 321.947 255.702Z" fill="#E3E3E3"/>
<path d="M303.113 279.352C303.113 277.962 304.24 276.835 305.63 276.835H313.7C315.09 276.835 316.216 277.962 316.216 279.352V287.421C316.216 288.811 315.09 289.938 313.7 289.938H305.63C304.24 289.938 303.113 288.811 303.113 287.421V279.352Z" fill="#E3E3E3"/>
<path d="M321.947 283.387C321.947 282.482 322.681 281.749 323.585 281.749H353.067C353.972 281.749 354.705 282.482 354.705 283.387C354.705 284.291 353.972 285.025 353.067 285.025H323.585C322.681 285.025 321.947 284.291 321.947 283.387Z" fill="#E3E3E3"/>
<defs>
<filter id="filter0_d" x="30" y="87" width="392.703" height="287" filterUnits="userSpaceOnUse" color-interpolation-filters="sRGB">
<feFlood flood-opacity="0" result="BackgroundImageFix"/>
<feColorMatrix in="SourceAlpha" type="matrix" values="0 0 0 0 0 0 0 0 0 0 0 0 0 0 0 0 0 0 127 0"/>
<feOffset dy="4"/>
<feGaussianBlur stdDeviation="6"/>
<feColorMatrix type="matrix" values="0 0 0 0 0 0 0 0 0 0 0 0 0 0 0 0 0 0 0.15 0"/>
<feBlend mode="normal" in2="BackgroundImageFix" result="effect1_dropShadow"/>
<feBlend mode="normal" in="SourceGraphic" in2="effect1_dropShadow" result="shape"/>
</filter>
<filter id="filter1_d" x="124.039" y="174.232" width="178.825" height="88.8517" filterUnits="userSpaceOnUse" color-interpolation-filters="sRGB">
<feFlood flood-opacity="0" result="BackgroundImageFix"/>
<feColorMatrix in="SourceAlpha" type="matrix" values="0 0 0 0 0 0 0 0 0 0 0 0 0 0 0 0 0 0 127 0"/>
<feOffset dy="6"/>
<feGaussianBlur stdDeviation="9"/>
<feColorMatrix type="matrix" values="0 0 0 0 0 0 0 0 0 0 0 0 0 0 0 0 0 0 0.05 0"/>
<feBlend mode="normal" in2="BackgroundImageFix" result="effect1_dropShadow"/>
<feBlend mode="normal" in="SourceGraphic" in2="effect1_dropShadow" result="shape"/>
</filter>
<filter id="filter2_d" x="124.039" y="237.78" width="178.825" height="144.22" filterUnits="userSpaceOnUse" color-interpolation-filters="sRGB">
<feFlood flood-opacity="0" result="BackgroundImageFix"/>
<feColorMatrix in="SourceAlpha" type="matrix" values="0 0 0 0 0 0 0 0 0 0 0 0 0 0 0 0 0 0 127 0"/>
<feOffset dy="6"/>
<feGaussianBlur stdDeviation="9"/>
<feColorMatrix type="matrix" values="0 0 0 0 0 0 0 0 0 0 0 0 0 0 0 0 0 0 0.05 0"/>
<feBlend mode="normal" in2="BackgroundImageFix" result="effect1_dropShadow"/>
<feBlend mode="normal" in="SourceGraphic" in2="effect1_dropShadow" result="shape"/>
</filter>
<filter id="filter3_d" x="37.7754" y="165.985" width="95.9067" height="36.7632" filterUnits="userSpaceOnUse" color-interpolation-filters="sRGB">
<feFlood flood-opacity="0" result="BackgroundImageFix"/>
<feColorMatrix in="SourceAlpha" type="matrix" values="0 0 0 0 0 0 0 0 0 0 0 0 0 0 0 0 0 0 127 0"/>
<feOffset dy="6"/>
<feGaussianBlur stdDeviation="4"/>
<feColorMatrix type="matrix" values="0 0 0 0 0 0 0 0 0 0 0 0 0 0 0 0 0 0 0.1 0"/>
<feBlend mode="normal" in2="BackgroundImageFix" result="effect1_dropShadow"/>
<feBlend mode="normal" in="SourceGraphic" in2="effect1_dropShadow" result="shape"/>
</filter>
<linearGradient id="paint0_linear" x1="116.149" y1="143.029" x2="147.789" y2="279.504" gradientUnits="userSpaceOnUse">
<stop stop-color="#FE6556"/>
<stop offset="0.413875" stop-color="#FD3E72"/>
<stop offset="1" stop-color="#49A8FF"/>
</linearGradient>
</defs>
</svg>
