<svg width="468" height="437" viewBox="0 0 468 437" fill="none" xmlns="http://www.w3.org/2000/svg">
<path d="M88.1937 34.6779C88.1937 34.6779 142.02 -6.50091 209.601 14.6127C277.182 35.7264 303.951 95.381 341.826 136.99C361.697 158.788 391.668 167.529 415.501 184.571C491.67 239.06 476.525 355.742 415.125 398.025C361.973 434.634 296.931 436.654 213.321 405.751C129.711 374.847 69.8138 356.085 19.9173 273.705C-29.9791 191.325 21.7608 90.7897 88.1937 34.6779Z" fill="#FFD6E1"/>
<path d="M229.678 343.896C340.115 343.896 429.641 328.502 429.641 309.511C429.641 290.521 340.115 275.126 229.678 275.126C119.241 275.126 29.7148 290.521 29.7148 309.511C29.7148 328.502 119.241 343.896 229.678 343.896Z" fill="#DBDBDB"/>
<path d="M394.461 216.681C394.461 216.681 392.568 143.742 366.784 135.564C340.482 127.216 312.381 127.925 285.138 129.163C259.449 130.327 153.077 129.618 127.495 131.279C99.2776 133.141 88.8351 146.091 82.614 172.182C79.2082 186.76 77.315 201.651 76.9642 216.618L70.6797 235.482H400.778L394.461 216.681Z" fill="#856C26"/>
<path d="M394.461 230.181C394.461 230.181 392.568 157.232 366.784 149.064C340.482 140.716 312.381 141.425 285.138 142.716C259.449 143.88 153.077 143.171 127.495 144.832C99.2776 146.694 88.8351 159.644 82.614 185.734C79.2082 200.313 77.315 215.204 76.9642 230.171L70.6797 249.035H400.778L394.461 230.181Z" fill="#977C2E" stroke="#977C2E" stroke-linecap="round" stroke-linejoin="round"/>
<path d="M98.3048 225.484V209.138C98.3048 209.138 97.6806 197.182 83.8419 195.923C70.0031 194.664 32.2746 224.225 32.8883 230.51C33.5019 236.794 40.453 281.474 44.8543 283.336C49.2556 285.198 60.5763 294.022 70.6379 288.996C80.6996 283.971 98.3048 225.484 98.3048 225.484Z" fill="#C8B100" stroke="#AF9B00" stroke-linecap="round" stroke-linejoin="round"/>
<path d="M368.045 225.484V209.138C368.045 209.138 368.68 197.182 382.508 195.923C396.336 194.664 434.075 224.225 433.44 230.51C432.805 236.794 425.897 281.474 421.495 283.336C417.094 285.198 405.773 294.022 395.712 288.996C385.65 283.971 368.045 225.484 368.045 225.484Z" fill="#C8B100" stroke="#AF9B00" stroke-linecap="round" stroke-linejoin="round"/>
<path d="M98.3038 225.484C97.2748 226.546 96.1679 227.529 94.9922 228.425C86.5281 235.408 64.9766 251.892 64.9766 251.892H402.629L368.042 223.601L98.3038 225.484Z" fill="#C8B100" stroke="#AF9B00" stroke-linecap="round" stroke-linejoin="round"/>
<path d="M64.9766 251.892V277.887H402.459L402.629 251.892H64.9766Z" fill="#D3BD14" stroke="#C8B100" stroke-linecap="round" stroke-linejoin="round"/>
<path d="M56.8015 303.459L48.7606 328.671C48.6004 329.17 48.5605 329.7 48.6443 330.218C48.728 330.735 48.9331 331.226 49.2426 331.649C49.5522 332.072 49.9575 332.416 50.4254 332.652C50.8932 332.888 51.4104 333.011 51.9347 333.009C52.4713 333.01 53.0002 332.881 53.4757 332.632C53.9512 332.383 54.3591 332.022 54.6643 331.581L73.7931 304.073L56.8015 303.459Z" fill="#263238" stroke="#263238" stroke-linecap="round" stroke-linejoin="round"/>
<path d="M410.777 303.459L418.818 328.671C418.978 329.17 419.018 329.7 418.934 330.218C418.85 330.735 418.645 331.226 418.336 331.649C418.026 332.072 417.621 332.416 417.153 332.652C416.685 332.888 416.168 333.011 415.644 333.009C415.107 333.01 414.578 332.881 414.103 332.632C413.627 332.383 413.219 332.022 412.914 331.581L393.785 304.073L410.777 303.459Z" fill="#263238" stroke="#263238" stroke-linecap="round" stroke-linejoin="round"/>
<path d="M427.06 223.125C422.891 221.083 418.173 220.766 412.523 223.601C401.202 229.251 402.461 251.892 402.461 251.892V277.041H64.9572V251.85C64.9572 251.85 66.2162 229.209 54.8955 223.559C49.2352 220.723 44.5165 221.041 40.3585 223.083C33.1217 226.627 29.3023 234.721 30.3815 242.73C32.1484 255.828 35.5023 278.543 38.5493 287.695C42.9506 300.899 42.9506 303.417 52.3775 306.559C60.5664 309.278 165.722 307.279 193.463 306.697C221.204 307.279 406.831 309.278 415.009 306.559C424.447 303.385 424.447 300.899 428.848 287.695C431.895 278.543 435.249 255.828 437.016 242.73C438.105 234.784 434.297 226.669 427.06 223.125Z" fill="#977C2E"/>
<path d="M212.891 308.178C212.891 308.178 208.511 315.034 207.104 318.895C205.696 322.757 206.046 327.359 210.976 326.64C215.906 325.921 218.382 309.796 218.382 309.796L212.891 308.178Z" fill="white" stroke="#263238" stroke-linecap="round" stroke-linejoin="round"/>
<path d="M298.219 266.746C295.193 253.267 291.342 253.267 294.23 240.487C297.119 227.706 294.918 196.77 294.918 196.77C295.056 194.294 293.86 190.422 291.892 188.792C289.924 187.163 282.275 190.856 269.896 189.067C257.518 187.279 256.978 185.079 256.978 185.079C256.978 185.079 250.101 180.847 245.7 188.38C241.298 195.913 236.484 215.465 235.12 226.595C233.755 237.725 228.941 242.137 224.127 250.104C221.266 253.941 219.474 258.468 218.932 263.223C218.265 268.513 212.986 302.369 212.15 307.829C212.062 308.428 212.104 309.04 212.273 309.622C212.442 310.204 212.734 310.743 213.129 311.202C213.524 311.662 214.014 312.031 214.564 312.285C215.114 312.539 215.713 312.672 216.319 312.674C217.133 312.673 217.929 312.436 218.612 311.993C219.295 311.55 219.836 310.92 220.17 310.177L234.379 262.26C236.96 257.933 243.562 246.782 244.335 244.475C245.298 241.587 252.45 229.758 256.163 221.199C258.924 215.203 262.187 209.452 265.918 204.007L266.976 206.482C268.034 208.958 269.177 212.121 270.552 219.549C271.928 226.976 276.466 253.405 281.132 265.604C285.798 277.802 287.745 327.423 287.745 327.423L292.971 328.798C292.971 328.798 294.463 313.172 296.145 305.332C297.828 297.492 301.298 280.215 298.219 266.746Z" fill="#8F4620"/>
<path d="M291.481 118.816C291.481 118.816 276.087 115.79 267.443 117.166C258.799 118.541 225.239 123.514 225.239 123.514L223.758 135.734C223.758 135.734 240.284 136.792 250.303 134.824C259.762 132.962 259.201 135.205 259.201 135.205C259.201 135.205 259.751 156.788 258.926 159.814C258.101 162.84 242.284 186.264 242.284 186.264C243.865 190.38 246.145 194.192 249.023 197.532C253.424 202.346 262.216 206.747 262.216 206.747L268.681 197.669V208.122C268.681 208.122 270.797 206.885 280.647 204.948C287.449 203.477 294.082 201.31 300.442 198.484L292.031 179.905C292.031 179.905 292.444 166.299 294.232 163.961C296.02 161.623 304.96 157.497 306.748 153.233C307.98 149.947 308.856 146.538 309.361 143.066C309.361 143.066 322.83 149.932 327.231 148.144C331.632 146.356 332.87 144.716 332.87 144.716C332.87 144.716 328.744 140.04 327.919 136.051C327.093 132.062 322.83 126.423 315.952 123.122C309.075 119.821 291.481 118.816 291.481 118.816Z" fill="#FD3E72" stroke="#FD3E72" stroke-miterlimit="10"/>
<path d="M230.723 138.938C236.267 136.624 238.885 130.255 236.572 124.712C234.259 119.168 227.89 116.55 222.346 118.863C216.803 121.176 214.184 127.545 216.497 133.089C218.81 138.632 225.179 141.251 230.723 138.938Z" fill="#FFBE9D" stroke="#FFBE9D" stroke-linecap="round" stroke-linejoin="round"/>
<path d="M279.251 119.366C277.524 121.743 276.102 124.327 275.019 127.058C273.658 130.15 272.509 133.331 271.58 136.58C271.58 136.58 279.557 132.454 282.033 132.348C284.509 132.242 294.676 143.986 294.676 143.986C294.676 143.986 300.866 126.243 300.04 121.567C299.215 116.89 288.402 115.388 284.784 116.901C281.166 118.414 279.251 119.366 279.251 119.366Z" fill="#CB2552"/>
<path d="M280.625 146.176C280.625 146.176 281.588 153.455 279.387 157.031C277.187 160.607 277.049 163.77 276.213 168.584C275.378 173.398 270.712 185.629 270.574 186.454" stroke="#ED3567" stroke-linecap="round" stroke-linejoin="round"/>
<path d="M265.209 181.883C265.209 181.883 274.265 183.386 284.327 176.847" stroke="#ED3567" stroke-linecap="round" stroke-linejoin="round"/>
<path d="M264.203 178.36C264.203 178.36 278.285 179.418 285.829 174.34" stroke="#ED3567" stroke-linecap="round" stroke-linejoin="round"/>
<path d="M267.326 160.638C267.326 160.638 272.69 166.277 285.312 163.527" stroke="#ED3567" stroke-linecap="round" stroke-linejoin="round"/>
<path d="M267.441 166.416C267.441 166.416 278.445 168.204 285.184 165.178" stroke="#ED3567" stroke-linecap="round" stroke-linejoin="round"/>
<path d="M232.897 63.8841C232.897 63.8841 245.202 63.5667 245.593 65.0268C245.985 66.4868 247.921 72.0837 247.804 73.2581C247.688 74.4324 247.709 74.9932 247.709 74.9932C247.1 74.9037 246.496 74.7801 245.9 74.6229C244.842 74.3372 238.155 75.5857 238.155 75.5857C238.155 75.5857 243.879 75.5857 244.567 76.5485C245.255 77.5112 247.117 79.1406 245.815 79.6273C244.514 80.1139 242.398 78.5693 241.837 78.5693C241.277 78.5693 234.738 80.7593 234.738 80.7593C235.087 81.3197 235.272 81.9666 235.272 82.6267C235.272 83.2868 235.087 83.9337 234.738 84.4941C234.249 85.2538 233.495 85.8044 232.622 86.0388C232.622 86.0388 233.13 118.075 232.865 123.979C232.601 129.883 232.643 133.723 228.274 135.469C223.904 137.215 219.863 133.353 217.419 128.994C214.975 124.635 216.794 120.339 218.339 117.07C219.884 113.801 227.036 83.2139 227.798 79.786C228.559 76.358 232.104 64.0957 232.897 63.8841Z" fill="#FFBE9D" stroke="#FFBE9D" stroke-linecap="round" stroke-linejoin="round"/>
<path d="M235.258 67.8092C237.744 67.3492 240.277 67.1928 242.801 67.3437C243.987 67.4688 245.155 67.7279 246.282 68.116" stroke="#F4B392" stroke-linecap="round" stroke-linejoin="round"/>
<path d="M235.701 72.2843C235.701 72.2843 238.791 71.512 241.076 71.0359C243.361 70.5598 247.741 72.4219 247.741 72.4219" stroke="#F4B392" stroke-linecap="round" stroke-linejoin="round"/>
<path d="M280.238 126.081C280.238 126.081 280.238 137.222 280.376 142.311C280.513 147.4 293.707 125.383 296.045 121.003C298.383 116.623 290.956 121.278 287.792 123.193C285.422 124.505 282.879 125.477 280.238 126.081Z" fill="#FFBE9D"/>
<path d="M280.24 117.492C280.24 117.492 280.101 125.367 280.239 130.456C280.376 135.545 289.902 133.677 294.734 122.94C297.072 118.56 290.957 112.688 287.794 114.603C285.424 115.915 282.881 116.888 280.24 117.492Z" fill="#ECAC8C"/>
<path d="M280.626 97.7719C280.626 97.7719 276.225 96.7139 273.337 90.4928C270.448 84.2717 274.712 79.9128 284.202 77.4264C293.693 74.9401 307.849 75.6384 315.541 82.1028C323.232 88.5672 326.121 96.6716 324.068 112.626C322.016 128.581 318.291 145.213 325.444 156.068C332.596 166.923 338.362 160.194 337.082 165.283C335.801 170.372 332.416 175.176 322.788 177.101C313.16 179.027 310.42 177.926 307.807 176.043C306.588 175.273 305.514 174.295 304.632 173.155C304.632 173.155 304.96 178.847 309.764 180.963C314.567 183.079 306.05 185.777 297.248 179.905C288.445 174.033 285.61 168.087 288.858 151.032C292.106 133.977 297.935 122.572 298.073 117.768C298.197 114.956 297.666 112.154 296.52 109.583C295.374 107.012 293.645 104.743 291.471 102.956C288.27 100.47 284.571 98.702 280.626 97.7719Z" fill="#5B5863"/>
<path d="M318.342 131.851C318.709 133.517 318.988 135.202 319.178 136.897" stroke="#4E495B" stroke-linecap="round" stroke-linejoin="round"/>
<path d="M292.283 85.0552C292.283 85.0552 295.214 97.2751 302.556 102.66C308.185 106.787 314.099 116.965 317.21 127.439" stroke="#4E495B" stroke-linecap="round" stroke-linejoin="round"/>
<path d="M303.041 131.512C303.041 131.512 293.583 150.27 297.169 162.818C298.433 167.002 301.082 170.633 304.681 173.113" stroke="#4E495B" stroke-linecap="round" stroke-linejoin="round"/>
<path d="M315.74 171.515C317.082 172.468 318.578 173.184 320.163 173.631" stroke="#4E495B" stroke-linecap="round" stroke-linejoin="round"/>
<path d="M311.358 119.281C311.104 127.728 309.789 136.11 307.444 144.229C304.608 154.153 307.676 163.813 313.115 169.314" stroke="#4E495B" stroke-linecap="round" stroke-linejoin="round"/>
<path d="M300.365 79.585C301.437 79.6917 302.498 79.8827 303.539 80.1563" stroke="#4E495B" stroke-linecap="round" stroke-linejoin="round"/>
<path d="M287.396 86.0276C287.396 86.0276 281.524 80.6423 285.925 80.1556C289.389 79.7053 292.875 79.4475 296.368 79.3833" stroke="#4E495B" stroke-linecap="round" stroke-linejoin="round"/>
<path d="M289.142 86.5039C289.142 86.5039 279.387 94.6188 278.149 98.5969C276.699 102.678 275.91 106.964 275.811 111.293C275.673 116.795 279.112 125.449 280.212 127.512C281.312 129.575 282.413 129.713 284.613 128.75C286.814 127.787 294.231 124.624 296.844 121.196C298.126 119.595 299.276 117.893 300.282 116.107C301.167 116.484 302.159 116.525 303.071 116.22C303.983 115.916 304.753 115.289 305.234 114.456C307.159 111.431 308.122 109.092 304.959 109.092C301.795 109.092 299.732 112.266 299.732 112.266C299.732 112.266 293.543 102.914 291.342 96.3963C289.142 89.879 289.142 86.5039 289.142 86.5039Z" fill="#FFBE9D"/>
<path d="M331.494 128.845C331.494 128.845 326.818 129.12 325.146 132.971C323.475 136.822 322.67 144.8 327.209 148.09C331.748 151.38 333.261 149.603 337.377 143.149C341.492 136.695 336.71 128.432 331.494 128.845Z" fill="#FFBE9D"/>
<path d="M347.162 115.789C347.162 115.789 342.623 121.154 340.56 122.518C338.497 123.883 332.868 123.756 329.98 130.221C327.091 136.685 329.98 143.15 332.868 144.662C335.756 146.175 338.497 145.213 342.76 141.086C347.024 136.96 348.95 129.671 351.15 126.507C353.351 123.344 360.228 118.128 360.228 118.128C360.228 118.128 352.663 112.076 347.162 115.789Z" fill="#FFBE9D"/>
<path d="M347.851 110.7C347.851 110.7 344.138 111.526 343.862 113.176C343.587 114.827 342.625 119.524 343.175 120.582C343.725 121.64 349.227 126.073 349.777 124.698C349.989 123.952 350.024 123.167 349.881 122.405C349.738 121.643 349.42 120.925 348.951 120.307C348.525 119.847 348.239 119.274 348.126 118.657L350.052 111.504C349.782 111.196 349.439 110.961 349.055 110.82C348.67 110.68 348.256 110.638 347.851 110.7Z" fill="#FFBE9D" stroke="#EDA783" stroke-linecap="round" stroke-linejoin="round"/>
<path d="M354.314 106.712C354.314 106.712 349.776 105.336 348.813 106.849C347.85 108.362 346.062 116.477 346.337 117.577C346.612 118.678 349.088 119.503 349.776 118.265C350.463 117.027 354.039 107.674 354.314 106.712Z" fill="#FFBE9D" stroke="#EDA783" stroke-linecap="round" stroke-linejoin="round"/>
<path d="M363.52 112.626C363.52 112.626 367.752 114.552 365.72 117.44C363.689 120.329 360.229 122.519 358.028 122.656C355.828 122.794 355.553 121.831 355.553 121.831C355.553 121.831 363.52 115.24 363.52 112.626Z" fill="#FFBE9D" stroke="#EDA783" stroke-linecap="round" stroke-linejoin="round"/>
<path d="M354.314 106.712C354.314 106.712 349.363 118.541 349.638 119.503C349.913 120.466 352.526 120.879 353.352 120.054C355.552 116.699 357.352 113.098 358.716 109.325C359.541 106.437 356.79 105.199 354.314 106.712Z" fill="#FFBE9D" stroke="#EDA783" stroke-linecap="round" stroke-linejoin="round"/>
<path d="M358.716 109.325C358.716 109.325 353.765 118.128 353.352 120.054C352.94 121.979 354.177 121.831 356.378 121.112C358.579 120.392 362.969 115.748 363.52 112.584C364.07 109.421 361.054 107.262 358.716 109.325Z" fill="#FFBE9D" stroke="#EDA783" stroke-linecap="round" stroke-linejoin="round"/>
<path d="M293.014 328.841C293.014 328.841 307.012 343.304 303.954 344.319C300.896 345.335 290.2 338.712 286.613 336.67C283.026 334.628 287.788 327.465 287.788 327.465L293.014 328.841Z" fill="white" stroke="#263238" stroke-linecap="round" stroke-linejoin="round"/>
<path d="M192.172 108.384C192.172 108.384 179.93 108.796 169.763 111.96C159.596 115.123 131.4 127.491 131.4 127.491L124.533 145.234C124.712 145.564 125.006 145.817 125.36 145.942C125.714 146.067 126.102 146.056 126.448 145.911C127.686 145.361 155.321 136.389 157.659 135.469C159.998 134.548 163.436 133.268 163.436 133.268L166.853 177.197L160.939 192.866C160.939 192.866 167.404 201.393 180.872 202.081C194.34 202.769 199.853 202.769 206.444 199.965C213.035 197.161 216.76 195.564 216.76 195.564L211.808 177.144L216.231 146.049C216.231 146.049 227.223 174.784 230.112 177.673C233 180.561 239.052 179.186 240.84 171.208C242.628 163.231 235.201 150.313 232.587 143.584C229.974 136.855 228.599 126.254 222.282 119.937C215.966 113.621 202.752 110.415 197.948 109.484C193.145 108.553 192.172 108.384 192.172 108.384Z" fill="#FFBE9D"/>
<path d="M216.347 195.342L211.258 192.041C211.258 192.041 209.607 195.342 194.488 198.918C179.369 202.494 162.039 191.628 162.039 191.628C162.039 191.628 159.288 197.267 157.363 201.943C155.786 205.773 144.392 234.329 140.615 244.623C139.737 247.009 139.335 249.543 139.43 252.082L143.196 318.441L153.406 318.948L165.139 249.067L184.913 216.935H194.234L217.712 251.617L226.514 320.821L236.036 321.509L240.607 255.965C241.001 253.079 240.637 250.14 239.549 247.438L216.347 195.342Z" fill="#8F4620"/>
<path d="M171.045 205.815C175.682 207.95 179.891 210.911 183.466 214.555" stroke="#823F1D" stroke-linecap="round" stroke-linejoin="round"/>
<path d="M196.354 215.02C198.951 209.346 203.311 204.663 208.785 201.668" stroke="#823F1D" stroke-linecap="round" stroke-linejoin="round"/>
<path d="M165.055 201.213C168.702 202.062 172.248 203.296 175.635 204.895" stroke="#823F1D" stroke-linecap="round" stroke-linejoin="round"/>
<path d="M232.589 143.584C229.976 136.844 228.601 126.254 222.284 119.937C215.968 113.621 202.753 110.415 197.95 109.484C193.147 108.553 192.173 108.426 192.173 108.426C192.173 108.426 179.932 108.839 169.765 112.002C162.359 114.309 145.272 121.524 136.639 125.27L139.686 141.531C147.621 138.918 156.392 136.03 157.672 135.511C160.01 134.548 163.449 133.311 163.449 133.311L166.866 177.239L160.952 192.908C160.952 192.908 167.416 201.436 180.885 202.123C194.353 202.811 199.865 202.811 206.456 200.007C213.048 197.204 216.772 195.606 216.772 195.606L211.821 177.186L216.232 146.049C216.232 146.049 219.079 153.455 222.253 161.168C225.427 158.671 231.182 154.714 237.065 153.762C235.414 149.879 233.584 146.239 232.589 143.584Z" fill="#FD3E72"/>
<path d="M184.238 186.412C184.238 186.412 203.346 176.35 208.382 165.251" stroke="#EA3667" stroke-linecap="round" stroke-linejoin="round"/>
<path d="M174.176 185.406C174.176 185.406 189.263 181.375 197.812 171.324" stroke="#EA3667" stroke-linecap="round" stroke-linejoin="round"/>
<path d="M189.009 109.622C189.009 109.622 182.545 108.247 181.307 108.564C180.069 108.882 180.894 117.779 183.37 126.021C185.846 134.263 191.485 140.601 198.637 135.543C205.789 130.486 206.043 121.927 206.329 118.499L206.879 111.622L199.325 110.077L189.009 109.622Z" fill="#CB2552"/>
<path d="M184.057 109.209C185 115.131 186.415 120.969 188.289 126.666C191.039 134.368 198.742 130.898 200.985 124.878C202.458 120.497 203.521 115.988 204.159 111.41C204.159 111.41 195.229 115.123 190.69 113.06C188.322 112.069 186.092 110.775 184.057 109.209Z" fill="#FFBE9D"/>
<path d="M184.675 109.519C185.619 115.441 183.338 109.191 185.212 114.888C187.36 124.551 200.782 128.309 203.465 115.961C204.939 111.58 204.14 116.298 204.778 111.72C204.778 111.72 195.848 115.433 191.309 113.37C188.94 112.379 186.71 111.085 184.675 109.519Z" fill="#F0A37C"/>
<path d="M178.418 93.5403C178.418 93.5403 176.503 90.5144 174.853 91.7522C173.202 92.9901 173.34 98.6187 174.853 101.274C176.366 103.93 179.624 103.729 179.624 103.729C179.624 103.729 180.862 106.48 183.476 111.135C186.089 115.79 190.882 119.8 195.717 119.525C200.552 119.25 203.408 116.224 205.884 112.373C207.535 109.478 208.653 106.31 209.185 103.02C209.185 103.02 217.025 99.0313 215.375 94.3655C215.217 93.7607 214.93 93.1971 214.534 92.7134C214.138 92.2297 213.642 91.8372 213.081 91.5629C212.519 91.2886 211.905 91.1389 211.28 91.1241C210.655 91.1093 210.034 91.2298 209.46 91.4772C209.46 91.4772 211.248 84.8752 209.735 78.9609C208.222 73.0467 204.784 69.2061 196.68 67.5556C188.575 65.9052 179.212 69.3331 177.836 71.5338C176.461 73.7344 176.874 77.0354 177.286 81.7118C177.699 86.3882 178.418 93.5403 178.418 93.5403Z" fill="#FFBE9D"/>
<path d="M178.83 65.9048C178.83 65.9048 174.44 68.5181 174.027 71.5334C173.614 74.5487 178.418 93.1273 178.418 93.5399C178.418 93.9525 180.618 94.2276 180.618 92.8522C180.618 91.4768 180.343 87.6256 180.068 85.5625C179.793 83.4994 183.242 82.5366 182.407 80.0609C181.571 77.5852 179.518 75.6596 179.931 74.9719C180.343 74.2842 185.02 72.2211 185.707 72.9088C186.395 73.5965 191.072 78.2729 193.685 77.9978C196.298 77.7227 194.648 72.6337 194.648 72.6337C194.648 72.6337 201.112 81.5738 203.577 80.7486C206.042 79.9234 206.603 76.0722 206.603 76.0722C206.603 76.0722 205.64 82.9492 206.328 83.7745C207.016 84.5997 208.116 85.8905 208.116 85.8905C208.116 85.8905 207.132 93.1484 207.703 93.1484C208.275 93.1484 209.767 93.286 209.767 92.7358C209.767 92.1856 211.967 80.6322 211.967 77.3312C211.965 75.3548 211.34 73.4295 210.179 71.8296C210.179 71.8296 216.527 74.3053 213.893 70.4542C211.258 66.6031 205.09 63.1751 203.165 62.9C201.239 62.625 199.049 62.4874 199.049 62.4874C199.049 62.4874 207.566 59.8741 203.852 58.0861C200.139 56.2981 186.67 59.4615 182.544 62.2123C178.418 64.9631 178.83 65.9048 178.83 65.9048Z" fill="#5B5863" stroke="#5B5863" stroke-linecap="round" stroke-linejoin="round"/>
<path d="M159.035 83.9116C159.035 83.9116 163.987 84.4618 164.537 85.9747C165.087 87.4877 164.674 93.1269 164.124 94.0896C163.574 95.0524 162.199 94.5023 161.098 93.0316C159.998 91.561 159.86 87.3925 159.86 87.3925L157.522 85.742C157.522 85.742 155.872 83.9116 159.035 83.9116Z" fill="#FFBE9D" stroke="#FFB28B" stroke-linecap="round" stroke-linejoin="round"/>
<path d="M147.08 78.5479C147.08 78.5479 159.036 81.4362 159.036 82.9492C159.036 84.4621 159.448 90.3552 159.036 91.4767C158.817 92.0238 158.626 92.5817 158.465 93.1483C157.898 92.908 157.346 92.6324 156.814 92.3231C155.851 91.7729 149.091 91.2651 149.091 91.2651C149.091 91.2651 154.613 92.7569 155.026 93.8572C155.439 94.9575 156.814 97.0312 155.439 97.1476C154.063 97.264 152.413 95.222 151.863 95.0316C151.312 94.8412 144.457 95.3067 144.457 95.3067C144.627 95.8385 144.666 96.4034 144.572 96.9538C144.478 97.5041 144.253 98.0237 143.916 98.4688C143.578 98.9138 143.139 99.2712 142.635 99.5109C142.131 99.7505 141.576 99.8653 141.018 99.8455C141.018 99.8455 133.178 130.919 131.39 136.558C129.602 142.198 128.639 145.901 123.984 146.451C119.329 147.001 116.419 142.219 115.182 137.384C113.944 132.548 116.832 128.856 119.17 126.105C121.508 123.354 136.352 95.7193 138.003 92.5664C139.653 89.4136 146.255 78.5479 147.08 78.5479Z" fill="#FFBE9D" stroke="#FFBE9D" stroke-linecap="round" stroke-linejoin="round"/>
<path d="M148.326 82.9492C150.847 83.1547 153.333 83.6627 155.732 84.4622C156.851 84.8874 157.916 85.4413 158.906 86.1127" stroke="#FFB28B" stroke-linecap="round" stroke-linejoin="round"/>
<path d="M147.576 87.3823C147.576 87.3823 150.75 87.3823 153.099 87.5728C155.448 87.7632 159.172 90.6516 159.172 90.6516" stroke="#FFB28B" stroke-linecap="round" stroke-linejoin="round"/>
<path d="M143.199 318.44C143.199 318.44 120.759 334.765 124.842 335.792C128.926 336.818 150.34 331.2 150.34 331.2L153.409 318.948L143.199 318.44Z" fill="white" stroke="#263238" stroke-miterlimit="10"/>
<path d="M226.484 320.821L226.865 334.765L251.348 337.823C251.348 337.823 253.897 334.765 249.813 332.216C245.729 329.666 236.059 321.508 236.059 321.508L226.484 320.821Z" fill="white" stroke="#263238" stroke-miterlimit="10"/>
<path d="M235.338 117.324C234.152 117.254 232.968 117.491 231.9 118.012C230.524 118.837 230.842 125.703 231.762 127.354C232.683 129.004 234.936 127.491 235.201 124.74C235.465 121.99 235.338 117.324 235.338 117.324Z" fill="#FFBE9D" stroke="#E9A888" stroke-linecap="round" stroke-linejoin="round"/>
<path d="M239.603 138.643C238.592 137.928 237.824 136.92 237.403 135.755C237.075 134.679 237.075 133.529 237.403 132.454C237.403 132.454 236.99 133.004 235.89 130.665C234.789 128.327 233.414 118.848 233.552 117.197C233.689 115.547 244.28 115.684 245.19 115.409C246.1 115.134 246.703 119.81 246.703 124.339C246.703 128.867 244.915 137.405 244.915 140.293C244.915 143.182 244.28 162.861 241.54 170.976C238.799 179.09 236.249 179.884 232.261 179.334C228.272 178.784 226.082 176.858 227.309 170.129C228.537 163.4 239.603 138.643 239.603 138.643Z" fill="#FFBE9D" stroke="#E7A686" stroke-linecap="round" stroke-linejoin="round"/>
<path d="M234.377 120.477C234.898 119.568 235.547 118.738 236.303 118.012C236.99 117.599 244.555 116.774 244.968 117.461" stroke="#E9A888" stroke-linecap="round" stroke-linejoin="round"/>
<path d="M234.641 124.889C234.641 124.889 236.154 121.45 237.942 121.312C239.73 121.175 244.681 121.45 244.681 121.45" stroke="#E9A888" stroke-linecap="round" stroke-linejoin="round"/>
<path d="M235.752 129.554C235.752 129.554 235.614 126.666 236.99 125.703C238.365 124.74 245.242 125.153 245.242 125.153" stroke="#E9A888" stroke-linecap="round" stroke-linejoin="round"/>
<path d="M237.402 132.443L240.153 130.518L238.64 129.142" stroke="#E9A888" stroke-linecap="round" stroke-linejoin="round"/>
<path d="M324.898 219.696L341.52 207.508" stroke="white" stroke-linecap="round" stroke-linejoin="round"/>
<path d="M353.414 240.74L357.583 239.64" stroke="white" stroke-linecap="round" stroke-linejoin="round"/>
<path d="M328.221 247.395L349.127 241.873" stroke="white" stroke-linecap="round" stroke-linejoin="round"/>
<path d="M327.674 287.271L350.379 291.704" stroke="white" stroke-linecap="round" stroke-linejoin="round"/>
<path d="M143.789 219.696L127.168 207.508" stroke="white" stroke-linecap="round" stroke-linejoin="round"/>
<path d="M115.278 240.74L111.109 239.64" stroke="white" stroke-linecap="round" stroke-linejoin="round"/>
<path d="M140.469 247.395L119.562 241.873" stroke="white" stroke-linecap="round" stroke-linejoin="round"/>
<path d="M141.019 287.271L118.314 291.704" stroke="white" stroke-linecap="round" stroke-linejoin="round"/>
<path d="M229.68 437C309.148 437 373.569 421.605 373.569 402.615C373.569 383.624 309.148 368.229 229.68 368.229C150.212 368.229 85.791 383.624 85.791 402.615C85.791 421.605 150.212 437 229.68 437Z" fill="#DBDBDB"/>
<path d="M371.39 348.17H96.0547V409.809H371.39V348.17Z" fill="#977C2E" stroke="#977C2E" stroke-linecap="round" stroke-linejoin="round"/>
<path d="M91.7051 340.52H375.737L365.052 311.213H102.391L91.7051 340.52Z" fill="#FD3E72"/>
<path opacity="0.7" d="M151.492 331.411L91.4609 306.759H374.34L305.887 331.411H151.492Z" fill="white"/>
<path d="M375.727 340.366H91.7051V349.312H375.727V340.366Z" fill="#8F4620"/>
<path d="M156.71 335.4H152.129L165.745 322.249H170.327L156.71 335.4Z" fill="#263238" stroke="#263238" stroke-linecap="round" stroke-linejoin="round"/>
<path d="M182.927 335.4H187.508L173.892 322.249H169.311L182.927 335.4Z" fill="#263238" stroke="#263238" stroke-linecap="round" stroke-linejoin="round"/>
<path d="M287.256 335.4H282.686L296.291 322.249H300.873L287.256 335.4Z" fill="#263238" stroke="#263238" stroke-linecap="round" stroke-linejoin="round"/>
<path d="M310.322 335.4H314.903L301.286 322.249H296.705L310.322 335.4Z" fill="#263238" stroke="#263238" stroke-linecap="round" stroke-linejoin="round"/>
<path d="M316.586 224.891H150.85V326.248H316.586V224.891Z" fill="#5B5863"/>
<path d="M242.775 270.832C241.132 270.214 240.033 268.731 239.909 266.963C239.787 265.24 240.637 263.71 242.182 262.869L243.467 262.17L242.549 261.035C241.008 259.127 238.802 257.988 236.649 257.988C235.156 257.988 234.121 258.376 233.289 258.688C232.702 258.909 232.239 259.082 231.73 259.082C231.151 259.082 230.578 258.88 229.915 258.645C229.045 258.338 228.06 257.989 226.795 257.989C224.351 257.989 221.886 259.439 220.362 261.769C218.089 265.246 218.713 271.208 221.846 275.945C223.088 277.822 224.829 279.978 227.294 280C227.31 280 227.326 280 227.342 280C229.36 280 229.802 278.931 231.761 278.919C233.901 279.019 234.171 280.009 236.17 279.995C238.578 279.973 240.315 277.834 241.696 275.743C242.511 274.515 242.827 273.872 243.462 272.475L244 271.292L242.775 270.832Z" fill="white"/>
<path d="M235.093 254.922C235.892 253.904 236.497 252.468 236.278 251C234.973 251.089 233.45 251.913 232.559 252.987C231.751 253.962 231.084 255.407 231.343 256.812C232.766 256.856 234.239 256.012 235.093 254.922Z" fill="white"/>
<path d="M153.537 221.368L150.85 224.943H316.586L313.899 221.368H153.537Z" fill="#6F6C78"/>
<path d="M158.369 313.605H307.59" stroke="#757180" stroke-linecap="round" stroke-linejoin="round"/>
<path d="M276.951 304.347H188.205C187.968 304.366 187.73 304.335 187.505 304.257C187.28 304.179 187.074 304.056 186.9 303.894C186.725 303.733 186.586 303.537 186.49 303.319C186.395 303.101 186.346 302.866 186.346 302.628C186.346 302.39 186.395 302.155 186.49 301.937C186.586 301.719 186.725 301.523 186.9 301.362C187.074 301.2 187.28 301.077 187.505 300.999C187.73 300.921 187.968 300.89 188.205 300.909H276.951C277.383 300.943 277.787 301.138 278.082 301.457C278.377 301.776 278.54 302.194 278.54 302.628C278.54 303.062 278.377 303.48 278.082 303.799C277.787 304.117 277.383 304.313 276.951 304.347Z" fill="white" stroke="#757180" stroke-linecap="round" stroke-linejoin="round"/>
<path d="M185.646 274.829V235.683H278.952V277.019" stroke="#757180" stroke-linecap="round" stroke-linejoin="round"/>
<path d="M285.088 241.396C285.848 241.396 286.464 240.78 286.464 240.02C286.464 239.261 285.848 238.645 285.088 238.645C284.329 238.645 283.713 239.261 283.713 240.02C283.713 240.78 284.329 241.396 285.088 241.396Z" stroke="#757180" stroke-linecap="round" stroke-linejoin="round"/>
<path d="M285.088 248.252C285.848 248.252 286.464 247.636 286.464 246.876C286.464 246.117 285.848 245.501 285.088 245.501C284.329 245.501 283.713 246.117 283.713 246.876C283.713 247.636 284.329 248.252 285.088 248.252Z" stroke="#757180" stroke-linecap="round" stroke-linejoin="round"/>
<path d="M285.088 255.097C285.848 255.097 286.464 254.481 286.464 253.722C286.464 252.962 285.848 252.346 285.088 252.346C284.329 252.346 283.713 252.962 283.713 253.722C283.713 254.481 284.329 255.097 285.088 255.097Z" stroke="#757180" stroke-linecap="round" stroke-linejoin="round"/>
<path d="M285.088 261.953C285.848 261.953 286.464 261.337 286.464 260.578C286.464 259.818 285.848 259.202 285.088 259.202C284.329 259.202 283.713 259.818 283.713 260.578C283.713 261.337 284.329 261.953 285.088 261.953Z" stroke="#757180" stroke-linecap="round" stroke-linejoin="round"/>
</svg>
