<svg width="45" height="40" viewBox="0 0 45 40" fill="none" xmlns="http://www.w3.org/2000/svg">
<g clip-path="url(#clip0)">
<path d="M33.5137 14.8712L37.198 8.29059C37.4059 7.92168 37.2802 7.45307 36.9272 7.2387C36.5743 7.02433 36.1149 7.14896 35.9118 7.51787L32.1792 14.1832C29.3314 12.8422 26.1257 12.0944 22.6783 12.0944C19.2309 12.0944 16.0253 12.8422 13.1775 14.1832L9.4448 7.51787C9.23689 7.14896 8.7824 7.02433 8.4246 7.2387C8.06681 7.45307 7.94593 7.92168 8.15384 8.29059L11.8381 14.8712C5.48489 18.4207 1.1817 25.0512 0.470947 32.8133H44.8857C44.1749 25.0512 39.8717 18.4207 33.5137 14.8712ZM12.4812 26.3823C11.4513 26.3823 10.6197 25.5198 10.6197 24.4629C10.6197 23.401 11.4562 22.5436 12.4812 22.5436C13.5111 22.5436 14.3427 23.406 14.3427 24.4629C14.3476 25.5198 13.5111 26.3823 12.4812 26.3823ZM32.8706 26.3823C31.8407 26.3823 31.0091 25.5198 31.0091 24.4629C31.0091 23.401 31.8456 22.5436 32.8706 22.5436C33.9005 22.5436 34.7321 23.406 34.7321 24.4629C34.7369 25.5198 33.9005 26.3823 32.8706 26.3823Z" fill="#32DE84"/>
</g>
<defs>
<clipPath id="clip0">
<rect width="44.4444" height="40" fill="white" transform="translate(0.444336)"/>
</clipPath>
</defs>
</svg>
