<svg width="35" height="40" viewBox="0 0 35 40" fill="none" xmlns="http://www.w3.org/2000/svg">
<path fill-rule="evenodd" clip-rule="evenodd" d="M33.43 9.59557L34.3669 7.29295C34.3669 7.29295 33.1744 6.01372 31.7265 4.56393C30.2785 3.11413 27.2122 3.96695 27.2122 3.96695L23.72 6.10352e-05H17.5873H11.4547L7.96251 3.96695C7.96251 3.96695 4.89619 3.11413 3.44821 4.56393C2.00023 6.01372 0.807772 7.29295 0.807772 7.29295L1.7447 9.59557L0.552246 13.0068C0.552246 13.0068 4.05934 26.307 4.47032 27.9312C5.27948 31.1293 5.83312 32.3659 8.13286 33.9862C10.4326 35.6066 14.6062 38.4209 15.2876 38.8473C15.969 39.2737 16.8208 40.0001 17.5873 40.0001C18.3539 40.0001 19.2057 39.2737 19.8871 38.8473C20.5685 38.4209 24.7421 35.6066 27.0418 33.9862C29.3415 32.3659 29.8952 31.1293 30.7043 27.9312C31.1152 26.307 34.6224 13.0068 34.6224 13.0068L33.43 9.59557Z" fill="url(#paint0_linear)"/>
<path fill-rule="evenodd" clip-rule="evenodd" d="M26.2331 6.4828C26.2331 6.4828 30.7249 11.9195 30.7249 13.0815C30.7249 14.2435 30.1599 14.5501 29.5917 15.1542C29.0236 15.7582 26.5424 18.3964 26.2237 18.7351C25.9051 19.0739 25.2418 19.5876 25.6319 20.5121C26.0221 21.4367 26.5977 22.6131 25.9576 23.8064C25.3175 24.9997 24.2208 25.7961 23.5181 25.6644C22.8154 25.5327 21.1652 24.6692 20.5583 24.2748C19.9514 23.8803 18.028 22.292 18.028 21.6843C18.028 21.0767 20.0162 19.9856 20.3835 19.7377C20.751 19.4898 22.4264 18.5303 22.4607 18.1537C22.4949 17.777 22.4819 17.6666 21.9875 16.736C21.493 15.8053 20.6026 14.5634 20.7508 13.7371C20.899 12.9109 22.3351 12.4813 23.3599 12.0938C24.3845 11.7063 26.3576 10.9745 26.604 10.8608C26.8506 10.7469 26.7869 10.6385 26.0402 10.5676C25.2936 10.4968 23.1748 10.2152 22.2196 10.4818C21.2643 10.7484 19.6324 11.154 19.5002 11.369C19.368 11.5841 19.2514 11.5914 19.3871 12.3333C19.5228 13.0753 20.2218 16.6355 20.2896 17.2678C20.3575 17.9002 20.4902 18.3182 19.8092 18.4741C19.1281 18.63 17.9817 18.9007 17.5878 18.9007C17.1939 18.9007 16.0474 18.63 15.3664 18.4741C14.6854 18.3182 14.8181 17.9002 14.886 17.2678C14.9538 16.6355 15.6527 13.0753 15.7885 12.3333C15.9242 11.5914 15.8075 11.5841 15.6754 11.369C15.5432 11.154 13.9112 10.7484 12.956 10.4818C12.0007 10.2152 9.88198 10.4968 9.13533 10.5676C8.38868 10.6385 8.32497 10.7469 8.57147 10.8608C8.81797 10.9745 10.7911 11.7063 11.8157 12.0938C12.8405 12.4813 14.2766 12.9109 14.4248 13.7371C14.573 14.5634 13.6825 15.8053 13.1881 16.736C12.6937 17.6666 12.6806 17.777 12.7149 18.1537C12.7492 18.5303 14.4246 19.4898 14.792 19.7377C15.1594 19.9856 17.1475 21.0767 17.1475 21.6843C17.1475 22.292 15.2242 23.8803 14.6173 24.2748C14.0104 24.6692 12.3602 25.5327 11.6575 25.6644C10.9548 25.7961 9.85813 24.9997 9.21795 23.8064C8.57786 22.6131 9.15347 21.4367 9.54358 20.5121C9.93377 19.5876 9.27051 19.0739 8.95178 18.7351C8.63322 18.3964 6.15189 15.7582 5.58377 15.1542C5.01565 14.5501 4.45068 14.2435 4.45068 13.0815C4.45068 11.9195 8.94249 6.4828 8.94249 6.4828C8.94249 6.4828 12.7328 7.2077 13.2439 7.2077C13.7549 7.2077 14.8622 6.78129 15.8843 6.44016C16.9064 6.09903 17.5878 6.09656 17.5878 6.09656C17.5878 6.09656 18.2692 6.09903 19.2913 6.44016C20.3134 6.78129 21.4207 7.2077 21.9317 7.2077C22.4428 7.2077 26.2331 6.4828 26.2331 6.4828ZM22.8658 27.2794C23.1438 27.4537 22.9742 27.7823 22.721 27.9615C22.4677 28.1408 19.064 30.7798 18.7336 31.0714C18.4033 31.3632 17.9178 31.8449 17.5878 31.8449C17.2577 31.8449 16.7722 31.3632 16.4419 31.0714C16.1115 30.7798 12.7079 28.1408 12.4546 27.9615C12.2013 27.7823 12.0318 27.4537 12.3098 27.2794C12.5879 27.1051 13.4578 26.6653 14.6582 26.0434C15.8584 25.4215 17.3543 24.8928 17.5878 24.8928C17.8213 24.8928 19.3171 25.4215 20.5175 26.0434C21.7178 26.6653 22.5877 27.1051 22.8658 27.2794Z" fill="white"/>
<mask id="mask0" mask-type="alpha" maskUnits="userSpaceOnUse" x="3" y="0" width="29" height="8">
<path d="M27.2115 3.96695L23.7193 6.10352e-05H17.5866H11.454L7.96181 3.96695C7.96181 3.96695 4.89549 3.11413 3.44751 4.56393C3.44751 4.56393 7.53593 4.1944 8.94133 6.48277C8.94133 6.48277 12.7316 7.20767 13.2427 7.20767C13.7537 7.20767 14.861 6.78126 15.8831 6.44013C16.9052 6.099 17.5866 6.09653 17.5866 6.09653C17.5866 6.09653 18.268 6.099 19.2901 6.44013C20.3122 6.78126 21.4195 7.20767 21.9306 7.20767C22.4416 7.20767 26.2319 6.48277 26.2319 6.48277C27.6373 4.1944 31.7258 4.56393 31.7258 4.56393C30.2778 3.11413 27.2115 3.96695 27.2115 3.96695Z" fill="white"/>
</mask>
<g mask="url(#mask0)">
<path d="M27.2115 3.96695L23.7193 6.10352e-05H17.5866H11.454L7.96181 3.96695C7.96181 3.96695 4.89549 3.11413 3.44751 4.56393C3.44751 4.56393 7.53593 4.1944 8.94133 6.48277C8.94133 6.48277 12.7316 7.20767 13.2427 7.20767C13.7537 7.20767 14.861 6.78126 15.8831 6.44013C16.9052 6.099 17.5866 6.09653 17.5866 6.09653C17.5866 6.09653 18.268 6.099 19.2901 6.44013C20.3122 6.78126 21.4195 7.20767 21.9306 7.20767C22.4416 7.20767 26.2319 6.48277 26.2319 6.48277C27.6373 4.1944 31.7258 4.56393 31.7258 4.56393C30.2778 3.11413 27.2115 3.96695 27.2115 3.96695Z" fill="url(#paint1_linear)"/>
</g>
<defs>
<linearGradient id="paint0_linear" x1="0.552246" y1="20.2823" x2="34.6224" y2="20.2823" gradientUnits="userSpaceOnUse">
<stop stop-color="#FF5500"/>
<stop offset="0.409877" stop-color="#FF5500"/>
<stop offset="0.581981" stop-color="#FF2000"/>
<stop offset="1" stop-color="#FF2000"/>
</linearGradient>
<linearGradient id="paint1_linear" x1="4.05505" y1="3.65472" x2="31.7258" y2="3.65472" gradientUnits="userSpaceOnUse">
<stop stop-color="#FF452A"/>
<stop offset="1" stop-color="#FF2000"/>
</linearGradient>
</defs>
</svg>
