<svg width="41" height="40" viewBox="0 0 41 40" fill="none" xmlns="http://www.w3.org/2000/svg">
<path d="M3.70068 9.19545V24.5372H12.6541L20.5186 10.9135H38.3286C35.0134 4.42837 28.2863 6.10352e-05 20.5186 6.10352e-05C13.4526 6.10352e-05 7.25785 3.65402 3.70068 9.19545Z" fill="#DB4437"/>
<path d="M3.70068 9.19545V24.5372H12.6541L20.5186 10.9135H38.3286C35.0134 4.42837 28.2863 6.10352e-05 20.5186 6.10352e-05C13.4526 6.10352e-05 7.25785 3.65402 3.70068 9.19545Z" fill="url(#paint0_linear)"/>
<path d="M3.698 9.1956L12.6756 24.5616L12.8692 24.4406L3.84319 8.95361C3.79479 9.05041 3.74639 9.123 3.698 9.1956Z" fill="#3E2723" fill-opacity="0.15"/>
<path d="M19.571 39.9515L28.3792 31.1433V24.5371H12.6503L3.69685 9.19531C1.68838 12.2927 0.526855 16.0193 0.526855 19.9878C0.526855 30.7077 8.97209 39.4675 19.571 39.9515Z" fill="#0F9D58"/>
<path d="M19.571 39.9515L28.3792 31.1433V24.5371H12.6503L3.69685 9.19531C1.68838 12.2927 0.526855 16.0193 0.526855 19.9878C0.526855 30.7077 8.97209 39.4675 19.571 39.9515Z" fill="url(#paint1_linear)"/>
<path d="M19.3257 39.9517C19.3983 39.9517 19.4951 39.9517 19.5677 39.9759L28.2065 24.8519L28.0129 24.7309L19.3257 39.9517Z" fill="#263238" fill-opacity="0.15"/>
<path d="M19.571 39.9518L28.3793 31.1436V24.5374L19.571 39.9518Z" fill="#FFCD40"/>
<path d="M19.571 39.9518L28.3793 31.1436V24.5374L19.571 39.9518Z" fill="url(#paint2_linear)"/>
<path d="M20.5148 10.9136L28.3793 24.5373L19.571 39.9516C19.8856 39.9758 20.2002 39.9758 20.5148 39.9758C31.5493 39.9758 40.5027 31.0224 40.5027 19.988C40.5027 16.7212 39.7041 13.6238 38.3248 10.9136H20.5148Z" fill="#FFCD40"/>
<path d="M20.5148 10.9136L28.3793 24.5373L19.571 39.9516C19.8856 39.9758 20.2002 39.9758 20.5148 39.9758C31.5493 39.9758 40.5027 31.0224 40.5027 19.988C40.5027 16.7212 39.7041 13.6238 38.3248 10.9136H20.5148Z" fill="url(#paint3_linear)"/>
<path d="M38.3271 10.9136H20.5171V15.6565L38.3271 10.9136Z" fill="url(#paint4_radial)"/>
<path d="M3.698 9.19531L12.6514 24.5371L16.7167 22.1898L3.698 9.19531Z" fill="url(#paint5_radial)"/>
<path d="M28.3793 24.5372L24.3381 22.19L19.571 39.9516L28.3793 24.5372Z" fill="url(#paint6_radial)"/>
<path d="M20.5146 29.0624C25.5262 29.0624 29.589 24.9996 29.589 19.988C29.589 14.9763 25.5262 10.9136 20.5146 10.9136C15.5029 10.9136 11.4402 14.9763 11.4402 19.988C11.4402 24.9996 15.5029 29.0624 20.5146 29.0624Z" fill="#F1F1F1"/>
<path d="M20.5186 27.2471C24.5279 27.2471 27.7781 23.9969 27.7781 19.9876C27.7781 15.9783 24.5279 12.7281 20.5186 12.7281C16.5092 12.7281 13.259 15.9783 13.259 19.9876C13.259 23.9969 16.5092 27.2471 20.5186 27.2471Z" fill="#4285F4"/>
<path d="M38.2014 10.6715H20.5124C15.5033 10.6715 11.438 14.7368 11.438 19.7459V19.9637C11.438 14.9546 15.5033 10.8893 20.5124 10.8893H20.7302H38.2982C38.274 10.8167 38.2498 10.7441 38.2014 10.6715Z" fill="#3E2723" fill-opacity="0.2"/>
<path d="M20.6609 29.0622C20.6125 29.0622 20.5641 29.0622 20.5157 29.0622C17.1521 29.0622 14.2241 27.2231 12.6512 24.5129L3.69784 9.19531C3.67364 9.21951 3.64944 9.26791 3.62524 9.29211L12.6512 24.7549C14.2241 27.4651 17.1521 29.3042 20.5157 29.3042C23.0324 29.3042 25.3312 28.2636 26.9767 26.594C25.3554 28.1185 23.1533 29.0622 20.7577 29.0622C20.7093 29.0864 20.6851 29.0622 20.6609 29.0622Z" fill="white" fill-opacity="0.1"/>
<path d="M23.688 28.5057C23.7364 28.4815 23.7848 28.4573 23.8332 28.4573C23.7848 28.4573 23.7364 28.4815 23.688 28.5057Z" fill="white" fill-opacity="0.1"/>
<path d="M24.145 28.3119C24.2902 28.2635 24.4112 28.1909 24.5564 28.1183C24.4112 28.1909 24.2902 28.2635 24.145 28.3119Z" fill="white" fill-opacity="0.1"/>
<path d="M23.249 28.6506C23.2732 28.6506 23.2974 28.6264 23.3216 28.6264C23.2974 28.6264 23.2732 28.6506 23.249 28.6506Z" fill="white" fill-opacity="0.1"/>
<path d="M28.3822 24.537C27.6079 25.868 26.4947 27.0053 25.1638 27.8038C26.4947 27.0053 27.6079 25.868 28.3822 24.537Z" fill="white" fill-opacity="0.1"/>
<path d="M24.7231 28.0459C24.8441 27.9975 24.9409 27.9249 25.0619 27.8523C24.9409 27.9249 24.8199 27.9733 24.7231 28.0459Z" fill="white" fill-opacity="0.1"/>
<path opacity="0.1" d="M29.5623 20.7139C29.5623 20.6655 29.5623 20.6171 29.5623 20.5687C29.5865 20.5929 29.5865 20.6413 29.5623 20.7139Z" fill="#3E2723"/>
<path opacity="0.1" d="M26.9744 26.5941C27.168 26.4005 27.3615 26.2069 27.5551 26.0133L27.6519 25.8439C27.4341 26.1101 27.2163 26.3521 26.9744 26.5941Z" fill="#3E2723"/>
<path opacity="0.1" d="M29.3486 17.8102C29.5664 18.6088 29.6874 19.4315 29.6874 20.3027C29.6874 21.682 29.3728 22.9645 28.8163 24.1502C29.4454 22.9161 29.8326 21.4884 29.8326 19.9881C29.8326 14.979 25.7673 10.9137 20.7582 10.9137C20.7098 10.9137 20.6856 10.9137 20.6372 10.9137C24.8477 10.9621 28.3807 13.8901 29.3486 17.8102Z" fill="#3E2723"/>
<path opacity="0.1" d="M29.5134 21.2463C29.5134 21.1979 29.5134 21.1737 29.5376 21.1253C29.5134 21.1737 29.5134 21.2221 29.5134 21.2463Z" fill="#3E2723"/>
<path opacity="0.1" d="M23.3201 28.6269C23.4411 28.5785 23.5621 28.5543 23.6588 28.5059C23.5621 28.5543 23.4411 28.5785 23.3201 28.6269Z" fill="#3E2723"/>
<path opacity="0.1" d="M23.8279 28.4574C23.9247 28.409 24.0457 28.3848 24.1425 28.3364C24.0457 28.3606 23.9247 28.409 23.8279 28.4574Z" fill="#3E2723"/>
<path opacity="0.1" d="M25.0408 27.8524C25.0892 27.8282 25.1134 27.804 25.1618 27.7798C25.1376 27.804 25.0892 27.8282 25.0408 27.8524Z" fill="#3E2723"/>
<path opacity="0.1" d="M24.5525 28.1183C24.6009 28.0941 24.6493 28.0699 24.7219 28.0215C24.6493 28.0699 24.6009 28.0941 24.5525 28.1183Z" fill="#3E2723"/>
<path opacity="0.1" d="M20.6372 29.0623H20.6614C21.5567 29.0381 22.4279 28.8929 23.2506 28.6509C22.4279 28.9171 21.5567 29.0623 20.6372 29.0623Z" fill="#3E2723"/>
<path d="M28.3812 24.537C27.6068 25.868 26.4937 27.0053 25.1628 27.8038C25.1144 27.828 25.0902 27.8522 25.0418 27.8764C24.9208 27.949 24.824 27.9974 24.703 28.07C24.6546 28.0942 24.6062 28.1184 24.5336 28.1668C24.4126 28.2394 24.2674 28.2878 24.1222 28.3604C24.0254 28.4088 23.9045 28.4572 23.8077 28.4814C23.7593 28.5056 23.7109 28.5298 23.6625 28.5298C23.5415 28.5782 23.4447 28.6024 23.3237 28.6508C23.2995 28.6508 23.2753 28.675 23.2511 28.675C22.4283 28.9412 21.5572 29.0863 20.6619 29.0863C20.6861 29.0863 20.7103 29.0863 20.7345 29.0863C23.1543 29.0863 25.3322 28.1426 26.9534 26.6181C27.1954 26.3761 27.4132 26.1099 27.631 25.8438L28.3812 24.537Z" fill="white" fill-opacity="0.1"/>
<path opacity="0.1" d="M28.3812 24.537C27.6068 25.868 26.4937 27.0053 25.1628 27.8038C25.1144 27.828 25.0902 27.8522 25.0418 27.8764C24.9208 27.949 24.824 27.9974 24.703 28.07C24.6546 28.0942 24.6062 28.1184 24.5336 28.1668C24.4126 28.2394 24.2674 28.2878 24.1222 28.3604C24.0254 28.4088 23.9045 28.4572 23.8077 28.4814C23.7593 28.5056 23.7109 28.5298 23.6625 28.5298C23.5415 28.5782 23.4447 28.6024 23.3237 28.6508C23.2995 28.6508 23.2753 28.675 23.2511 28.675C22.4283 28.9412 21.5572 29.0863 20.6619 29.0863C20.6861 29.0863 20.7103 29.0863 20.7345 29.0863C23.1543 29.0863 25.3322 28.1426 26.9534 26.6181C27.1954 26.3761 27.4132 26.1099 27.631 25.8438L28.3812 24.537Z" fill="#3E2723"/>
<path d="M29.3462 17.8101C29.322 17.7133 29.2978 17.6407 29.2736 17.5439C29.443 18.1247 29.5398 18.7055 29.5882 19.3346C29.5882 19.3588 29.5882 19.383 29.5882 19.383C29.6124 19.5766 29.6124 19.7944 29.6124 19.988C29.6124 20.1816 29.6124 20.351 29.5882 20.5445C29.5882 20.5929 29.5882 20.6413 29.5882 20.6897C29.5882 20.8349 29.564 20.9801 29.5398 21.1253C29.5398 21.1737 29.5398 21.1979 29.5156 21.2463C29.3462 22.432 28.959 23.521 28.3783 24.5131L27.6281 25.8198L27.5313 25.9892L19.5701 39.9275C19.6669 39.9275 19.7395 39.9275 19.8363 39.9275L28.4751 24.8035C28.5961 24.5857 28.7171 24.3437 28.8381 24.1017C29.3946 22.9402 29.7092 21.6335 29.7092 20.2542C29.685 19.4314 29.564 18.6087 29.3462 17.8101Z" fill="white" fill-opacity="0.2"/>
<path d="M20.5147 0.217847C31.525 0.217847 40.43 9.09866 40.5026 20.0847C40.5026 20.0363 40.5026 20.0121 40.5026 19.9637C40.5026 8.95347 31.5492 6.10352e-05 20.5147 6.10352e-05C9.48026 6.10352e-05 0.526855 8.95347 0.526855 19.9879C0.526855 20.0363 0.526855 20.0605 0.526855 20.1089C0.599451 9.12285 9.50446 0.217847 20.5147 0.217847Z" fill="white" fill-opacity="0.2"/>
<path d="M20.5147 39.7581C31.525 39.7581 40.43 30.8773 40.5026 19.8912C40.5026 19.9396 40.5026 19.9638 40.5026 20.0122C40.5026 31.0467 31.5492 40.0001 20.5147 40.0001C9.48026 40.0001 0.526855 31.0225 0.526855 19.988C0.526855 19.9396 0.526855 19.9154 0.526855 19.867C0.599451 30.8531 9.50446 39.7581 20.5147 39.7581Z" fill="#3E2723" fill-opacity="0.15"/>
<path d="M20.5147 39.9758C31.5537 39.9758 40.5026 31.0269 40.5026 19.9879C40.5026 8.94894 31.5537 6.10352e-05 20.5147 6.10352e-05C9.47573 6.10352e-05 0.526855 8.94894 0.526855 19.9879C0.526855 31.0269 9.47573 39.9758 20.5147 39.9758Z" fill="url(#paint7_radial)"/>
<defs>
<linearGradient id="paint0_linear" x1="6.55024" y1="17.2321" x2="18.4763" y2="10.2657" gradientUnits="userSpaceOnUse">
<stop stop-color="#A52714" stop-opacity="0.6"/>
<stop offset="0.66" stop-color="#A52714" stop-opacity="0"/>
</linearGradient>
<linearGradient id="paint1_linear" x1="24.9736" y1="33.7095" x2="11.7228" y2="25.9474" gradientUnits="userSpaceOnUse">
<stop stop-color="#055524" stop-opacity="0.4"/>
<stop offset="0.33" stop-color="#055524" stop-opacity="0"/>
</linearGradient>
<linearGradient id="paint2_linear" x1="19.1611" y1="11.1477" x2="22.4982" y2="25.7602" gradientUnits="userSpaceOnUse">
<stop stop-color="#EA6100" stop-opacity="0.3"/>
<stop offset="0.66" stop-color="#EA6100" stop-opacity="0"/>
</linearGradient>
<linearGradient id="paint3_linear" x1="25.6589" y1="9.66373" x2="28.9959" y2="24.2762" gradientUnits="userSpaceOnUse">
<stop stop-color="#EA6100" stop-opacity="0.3"/>
<stop offset="0.66" stop-color="#EA6100" stop-opacity="0"/>
</linearGradient>
<radialGradient id="paint4_radial" cx="0" cy="0" r="1" gradientUnits="userSpaceOnUse" gradientTransform="translate(19.6517 10.8921) scale(19.0993)">
<stop stop-color="#3E2723" stop-opacity="0.2"/>
<stop offset="1" stop-color="#3E2723" stop-opacity="0"/>
</radialGradient>
<radialGradient id="paint5_radial" cx="0" cy="0" r="1" gradientUnits="userSpaceOnUse" gradientTransform="translate(3.68101 9.20453) scale(17.7286)">
<stop stop-color="#3E2723" stop-opacity="0.2"/>
<stop offset="1" stop-color="#3E2723" stop-opacity="0"/>
</radialGradient>
<radialGradient id="paint6_radial" cx="0" cy="0" r="1" gradientUnits="userSpaceOnUse" gradientTransform="translate(20.4809 20.0217) scale(19.9607)">
<stop stop-color="#263238" stop-opacity="0.2"/>
<stop offset="1" stop-color="#263238" stop-opacity="0"/>
</radialGradient>
<radialGradient id="paint7_radial" cx="0" cy="0" r="1" gradientUnits="userSpaceOnUse" gradientTransform="translate(6.49805 5.45513) scale(40.1509)">
<stop stop-color="white" stop-opacity="0.1"/>
<stop offset="1" stop-color="white" stop-opacity="0"/>
</radialGradient>
</defs>
</svg>
