<svg width="23" height="23" viewBox="0 0 23 23" fill="none" xmlns="http://www.w3.org/2000/svg">
<path d="M2.60156 5.79167V13.91H7.33941L11.501 6.70083H20.9255C19.1712 3.26909 15.6114 0.925781 11.501 0.925781C7.76197 0.925781 4.48389 2.85933 2.60156 5.79167Z" fill="#DB4437"/>
<path d="M2.60156 5.79167V13.91H7.33941L11.501 6.70083H20.9255C19.1712 3.26909 15.6114 0.925781 11.501 0.925781C7.76197 0.925781 4.48389 2.85933 2.60156 5.79167Z" fill="url(#paint0_linear)"/>
<path d="M2.60156 5.79211L7.35221 13.9233L7.45465 13.8593L2.67839 5.66406C2.65278 5.71528 2.62717 5.7537 2.60156 5.79211Z" fill="#3E2723" fill-opacity="0.15"/>
<path d="M11.0004 22.0661L15.6614 17.4051V13.9094H7.33815L2.6003 5.79102C1.53749 7.43005 0.922852 9.40202 0.922852 11.502C0.922852 17.1746 5.39179 21.81 11.0004 22.0661Z" fill="#0F9D58"/>
<path d="M11.0004 22.0661L15.6614 17.4051V13.9094H7.33815L2.6003 5.79102C1.53749 7.43005 0.922852 9.40202 0.922852 11.502C0.922852 17.1746 5.39179 21.81 11.0004 22.0661Z" fill="url(#paint1_linear)"/>
<path d="M10.8701 22.067C10.9085 22.067 10.9598 22.067 10.9982 22.0798L15.5695 14.0767L15.4671 14.0127L10.8701 22.067Z" fill="#263238" fill-opacity="0.15"/>
<path d="M11.001 22.066L15.662 17.4049V13.9092L11.001 22.066Z" fill="#FFCD40"/>
<path d="M11.001 22.066L15.662 17.4049V13.9092L11.001 22.066Z" fill="url(#paint2_linear)"/>
<path d="M11.5004 6.70117L15.662 13.9104L11.001 22.0671C11.1674 22.08 11.3339 22.08 11.5004 22.08C17.3394 22.08 22.0773 17.3421 22.0773 11.503C22.0773 9.77437 21.6547 8.13533 20.9248 6.70117H11.5004Z" fill="#FFCD40"/>
<path d="M11.5004 6.70117L15.662 13.9104L11.001 22.0671C11.1674 22.08 11.3339 22.08 11.5004 22.08C17.3394 22.08 22.0773 17.3421 22.0773 11.503C22.0773 9.77437 21.6547 8.13533 20.9248 6.70117H11.5004Z" fill="url(#paint3_linear)"/>
<path d="M20.9254 6.70117H11.501V9.21095L20.9254 6.70117Z" fill="url(#paint4_radial)"/>
<path d="M2.60156 5.79102L7.33941 13.9094L9.49064 12.6673L2.60156 5.79102Z" fill="url(#paint5_radial)"/>
<path d="M15.662 13.9101L13.5236 12.668L11.001 22.0668L15.662 13.9101Z" fill="url(#paint6_radial)"/>
<path d="M11.5001 16.3049C14.1521 16.3049 16.302 14.155 16.302 11.503C16.302 8.85104 14.1521 6.70117 11.5001 6.70117C8.84811 6.70117 6.69824 8.85104 6.69824 11.503C6.69824 14.155 8.84811 16.3049 11.5001 16.3049Z" fill="#F1F1F1"/>
<path d="M11.5026 15.3451C13.6242 15.3451 15.3441 13.6252 15.3441 11.5036C15.3441 9.38201 13.6242 7.66211 11.5026 7.66211C9.38103 7.66211 7.66113 9.38201 7.66113 11.5036C7.66113 13.6252 9.38103 15.3451 11.5026 15.3451Z" fill="#4285F4"/>
<path d="M20.8596 6.57129H11.4991C8.8485 6.57129 6.69727 8.72253 6.69727 11.3732V11.4884C6.69727 8.83777 8.8485 6.68653 11.4991 6.68653H11.6144H20.9108C20.898 6.64812 20.8852 6.6097 20.8596 6.57129Z" fill="#3E2723" fill-opacity="0.2"/>
<path d="M11.5772 16.3039C11.5516 16.3039 11.526 16.3039 11.5004 16.3039C9.72048 16.3039 8.17108 15.3307 7.33876 13.8966L2.60091 5.79102C2.58811 5.80382 2.5753 5.82943 2.5625 5.84224L7.33876 14.0246C8.17108 15.4588 9.72048 16.432 11.5004 16.432C12.8321 16.432 14.0486 15.8813 14.9193 14.9978C14.0614 15.8045 12.8961 16.3039 11.6284 16.3039C11.6028 16.3167 11.59 16.3039 11.5772 16.3039Z" fill="white" fill-opacity="0.1"/>
<path d="M13.1787 16.009C13.2043 15.9962 13.2299 15.9834 13.2555 15.9834C13.2299 15.9834 13.2043 15.9962 13.1787 16.009Z" fill="white" fill-opacity="0.1"/>
<path d="M13.4209 15.9062C13.4977 15.8805 13.5618 15.8421 13.6386 15.8037C13.5618 15.8421 13.4977 15.8805 13.4209 15.9062Z" fill="white" fill-opacity="0.1"/>
<path d="M12.9473 16.0851C12.9601 16.0851 12.9729 16.0723 12.9857 16.0723C12.9729 16.0723 12.9601 16.0851 12.9473 16.0851Z" fill="white" fill-opacity="0.1"/>
<path d="M15.663 13.9092C15.2533 14.6135 14.6642 15.2153 13.96 15.6379C14.6642 15.2153 15.2533 14.6135 15.663 13.9092Z" fill="white" fill-opacity="0.1"/>
<path d="M13.7266 15.7665C13.7906 15.7409 13.8418 15.7025 13.9058 15.6641C13.8418 15.7025 13.7778 15.7281 13.7266 15.7665Z" fill="white" fill-opacity="0.1"/>
<path opacity="0.1" d="M16.2881 11.8854C16.2881 11.8598 16.2881 11.8342 16.2881 11.8086C16.3009 11.8214 16.3009 11.847 16.2881 11.8854Z" fill="#3E2723"/>
<path opacity="0.1" d="M14.9189 14.9975C15.0214 14.8951 15.1238 14.7927 15.2263 14.6902L15.2775 14.6006C15.1622 14.7414 15.047 14.8695 14.9189 14.9975Z" fill="#3E2723"/>
<path opacity="0.1" d="M16.1742 10.3496C16.2895 10.7722 16.3535 11.2075 16.3535 11.6685C16.3535 12.3984 16.1871 13.0771 15.8925 13.7045C16.2255 13.0515 16.4303 12.296 16.4303 11.5021C16.4303 8.85143 14.2791 6.7002 11.6285 6.7002C11.6029 6.7002 11.5901 6.7002 11.5645 6.7002C13.7925 6.72581 15.662 8.27521 16.1742 10.3496Z" fill="#3E2723"/>
<path opacity="0.1" d="M16.2617 12.1675C16.2617 12.1419 16.2617 12.1291 16.2745 12.1035C16.2617 12.1291 16.2617 12.1547 16.2617 12.1675Z" fill="#3E2723"/>
<path opacity="0.1" d="M12.9844 16.0728C13.0484 16.0472 13.1124 16.0344 13.1636 16.0088C13.1124 16.0344 13.0484 16.0472 12.9844 16.0728Z" fill="#3E2723"/>
<path opacity="0.1" d="M13.2539 15.9839C13.3051 15.9583 13.3692 15.9455 13.4204 15.9199C13.3692 15.9327 13.3051 15.9583 13.2539 15.9839Z" fill="#3E2723"/>
<path opacity="0.1" d="M13.8945 15.6634C13.9201 15.6506 13.9329 15.6378 13.9586 15.625C13.9458 15.6378 13.9201 15.6506 13.8945 15.6634Z" fill="#3E2723"/>
<path opacity="0.1" d="M13.6367 15.8041C13.6623 15.7913 13.6879 15.7785 13.7264 15.7529C13.6879 15.7785 13.6623 15.7913 13.6367 15.8041Z" fill="#3E2723"/>
<path opacity="0.1" d="M11.5645 16.3036H11.5773C12.051 16.2908 12.512 16.214 12.9474 16.0859C12.512 16.2268 12.051 16.3036 11.5645 16.3036Z" fill="#3E2723"/>
<path d="M15.6629 13.9092C15.2532 14.6135 14.6641 15.2153 13.9599 15.6379C13.9342 15.6507 13.9214 15.6635 13.8958 15.6763C13.8318 15.7147 13.7806 15.7403 13.7166 15.7787C13.6909 15.7915 13.6653 15.8043 13.6269 15.8299C13.5629 15.8683 13.4861 15.894 13.4092 15.9324C13.358 15.958 13.294 15.9836 13.2428 15.9964C13.2172 16.0092 13.1916 16.022 13.1659 16.022C13.1019 16.0476 13.0507 16.0604 12.9867 16.086C12.9739 16.086 12.9611 16.0988 12.9483 16.0988C12.5129 16.2397 12.0519 16.3165 11.5781 16.3165C11.5909 16.3165 11.6037 16.3165 11.6165 16.3165C12.897 16.3165 14.0495 15.8171 14.9074 15.0104C15.0355 14.8824 15.1507 14.7415 15.266 14.6006L15.6629 13.9092Z" fill="white" fill-opacity="0.1"/>
<path opacity="0.1" d="M15.6629 13.9092C15.2532 14.6135 14.6641 15.2153 13.9599 15.6379C13.9342 15.6507 13.9214 15.6635 13.8958 15.6763C13.8318 15.7147 13.7806 15.7403 13.7166 15.7787C13.6909 15.7915 13.6653 15.8043 13.6269 15.8299C13.5629 15.8683 13.4861 15.894 13.4092 15.9324C13.358 15.958 13.294 15.9836 13.2428 15.9964C13.2172 16.0092 13.1916 16.022 13.1659 16.022C13.1019 16.0476 13.0507 16.0604 12.9867 16.086C12.9739 16.086 12.9611 16.0988 12.9483 16.0988C12.5129 16.2397 12.0519 16.3165 11.5781 16.3165C11.5909 16.3165 11.6037 16.3165 11.6165 16.3165C12.897 16.3165 14.0495 15.8171 14.9074 15.0104C15.0355 14.8824 15.1507 14.7415 15.266 14.6006L15.6629 13.9092Z" fill="#3E2723"/>
<path d="M16.1732 10.3489C16.1604 10.2976 16.1476 10.2592 16.1348 10.208C16.2244 10.5153 16.2757 10.8226 16.3013 11.1556C16.3013 11.1684 16.3013 11.1812 16.3013 11.1812C16.3141 11.2836 16.3141 11.3989 16.3141 11.5013C16.3141 11.6038 16.3141 11.6934 16.3013 11.7958C16.3013 11.8214 16.3013 11.847 16.3013 11.8727C16.3013 11.9495 16.2885 12.0263 16.2757 12.1031C16.2757 12.1288 16.2757 12.1416 16.2628 12.1672C16.1732 12.7946 15.9683 13.3708 15.661 13.8958L15.2641 14.5873L15.2128 14.6769L11 22.0526C11.0512 22.0526 11.0896 22.0526 11.1409 22.0526L15.7122 14.0495C15.7763 13.9343 15.8403 13.8062 15.9043 13.6782C16.1988 13.0635 16.3653 12.372 16.3653 11.6422C16.3525 11.2068 16.2885 10.7714 16.1732 10.3489Z" fill="white" fill-opacity="0.2"/>
<path d="M11.4998 1.04103C17.326 1.04103 22.0383 5.74045 22.0767 11.5539C22.0767 11.5283 22.0767 11.5155 22.0767 11.4899C22.0767 5.66362 17.3388 0.925781 11.4998 0.925781C5.6607 0.925781 0.922852 5.66362 0.922852 11.5027C0.922852 11.5283 0.922852 11.5411 0.922852 11.5667C0.961267 5.75326 5.6735 1.04103 11.4998 1.04103Z" fill="white" fill-opacity="0.2"/>
<path d="M11.4998 21.9632C17.326 21.9632 22.0383 17.2638 22.0767 11.4503C22.0767 11.4759 22.0767 11.4887 22.0767 11.5143C22.0767 17.3534 17.3388 22.0912 11.4998 22.0912C5.6607 22.0912 0.922852 17.3406 0.922852 11.5015C0.922852 11.4759 0.922852 11.4631 0.922852 11.4375C0.961267 17.251 5.6735 21.9632 11.4998 21.9632Z" fill="#3E2723" fill-opacity="0.15"/>
<path d="M11.4998 22.0796C17.3412 22.0796 22.0767 17.3442 22.0767 11.5027C22.0767 5.66123 17.3412 0.925781 11.4998 0.925781C5.6583 0.925781 0.922852 5.66123 0.922852 11.5027C0.922852 17.3442 5.6583 22.0796 11.4998 22.0796Z" fill="url(#paint7_radial)"/>
<defs>
<linearGradient id="paint0_linear" x1="4.10945" y1="10.0444" x2="10.4203" y2="6.35803" gradientUnits="userSpaceOnUse">
<stop stop-color="#A52714" stop-opacity="0.6"/>
<stop offset="0.66" stop-color="#A52714" stop-opacity="0"/>
</linearGradient>
<linearGradient id="paint1_linear" x1="13.8593" y1="18.7631" x2="6.84737" y2="14.6557" gradientUnits="userSpaceOnUse">
<stop stop-color="#055524" stop-opacity="0.4"/>
<stop offset="0.33" stop-color="#055524" stop-opacity="0"/>
</linearGradient>
<linearGradient id="paint2_linear" x1="10.7841" y1="6.82381" x2="12.5499" y2="14.5562" gradientUnits="userSpaceOnUse">
<stop stop-color="#EA6100" stop-opacity="0.3"/>
<stop offset="0.66" stop-color="#EA6100" stop-opacity="0"/>
</linearGradient>
<linearGradient id="paint3_linear" x1="14.2225" y1="6.03979" x2="15.9883" y2="13.7722" gradientUnits="userSpaceOnUse">
<stop stop-color="#EA6100" stop-opacity="0.3"/>
<stop offset="0.66" stop-color="#EA6100" stop-opacity="0"/>
</linearGradient>
<radialGradient id="paint4_radial" cx="0" cy="0" r="1" gradientUnits="userSpaceOnUse" gradientTransform="translate(11.0431 6.6898) scale(10.1067)">
<stop stop-color="#3E2723" stop-opacity="0.2"/>
<stop offset="1" stop-color="#3E2723" stop-opacity="0"/>
</radialGradient>
<radialGradient id="paint5_radial" cx="0" cy="0" r="1" gradientUnits="userSpaceOnUse" gradientTransform="translate(2.59257 5.79589) scale(9.3814)">
<stop stop-color="#3E2723" stop-opacity="0.2"/>
<stop offset="1" stop-color="#3E2723" stop-opacity="0"/>
</radialGradient>
<radialGradient id="paint6_radial" cx="0" cy="0" r="1" gradientUnits="userSpaceOnUse" gradientTransform="translate(11.4824 11.5206) scale(10.5626)">
<stop stop-color="#263238" stop-opacity="0.2"/>
<stop offset="1" stop-color="#263238" stop-opacity="0"/>
</radialGradient>
<radialGradient id="paint7_radial" cx="0" cy="0" r="1" gradientUnits="userSpaceOnUse" gradientTransform="translate(4.08261 3.81242) scale(21.2465)">
<stop stop-color="white" stop-opacity="0.1"/>
<stop offset="1" stop-color="white" stop-opacity="0"/>
</radialGradient>
</defs>
</svg>
