<svg width="41" height="40" viewBox="0 0 41 40" fill="none" xmlns="http://www.w3.org/2000/svg">
<path d="M36.6554 29.7686C36.1222 30.0475 35.5722 30.2933 35.0087 30.5045C33.2151 31.1756 31.3151 31.5175 29.4 31.5138C22.0071 31.5138 15.5672 26.4284 15.5672 19.9026C15.5766 19.0273 15.8195 18.1704 16.2708 17.4204C16.722 16.6703 17.3652 16.0543 18.1341 15.6359C11.4473 15.9171 9.72876 22.885 9.72876 26.9674C9.72876 38.5099 20.3666 39.68 22.6586 39.68C23.8944 39.68 25.7582 39.3207 26.8768 38.9676L27.0815 38.8989C31.3861 37.4107 35.0558 34.5014 37.4866 30.6498C37.561 30.5325 37.5943 30.3937 37.581 30.2554C37.5678 30.1171 37.5089 29.9872 37.4136 29.8861C37.3182 29.785 37.1919 29.7186 37.0546 29.6974C36.9173 29.6761 36.7769 29.7012 36.6554 29.7686Z" fill="url(#paint0_linear)"/>
<path opacity="0.35" d="M36.6554 29.7686C36.1222 30.0475 35.5722 30.2933 35.0087 30.5045C33.2151 31.1756 31.3151 31.5175 29.4 31.5138C22.0071 31.5138 15.5672 26.4284 15.5672 19.9026C15.5766 19.0273 15.8195 18.1704 16.2708 17.4204C16.722 16.6703 17.3652 16.0543 18.1341 15.6359C11.4473 15.9171 9.72876 22.885 9.72876 26.9674C9.72876 38.5099 20.3666 39.68 22.6586 39.68C23.8944 39.68 25.7582 39.3207 26.8768 38.9676L27.0815 38.8989C31.3861 37.4107 35.0558 34.5014 37.4866 30.6498C37.561 30.5325 37.5943 30.3937 37.581 30.2554C37.5678 30.1171 37.5089 29.9872 37.4136 29.8861C37.3182 29.785 37.1919 29.7186 37.0546 29.6974C36.9173 29.6761 36.7769 29.7012 36.6554 29.7686Z" fill="url(#paint1_radial)"/>
<path d="M17.0726 37.7176C15.6791 36.8527 14.4715 35.7194 13.5199 34.3836C12.4353 32.8976 11.689 31.1924 11.3332 29.3875C10.9775 27.5825 11.0209 25.7216 11.4605 23.9352C11.9001 22.1488 12.7252 20.4803 13.8779 19.0465C15.0307 17.6128 16.4832 16.4487 18.1335 15.6357C18.6209 15.406 19.4536 14.9905 20.5613 15.0108C21.3417 15.0165 22.1102 15.2028 22.8065 15.5552C23.5029 15.9075 24.1081 16.4164 24.5749 17.0418C25.2058 17.8842 25.5537 18.9048 25.5686 19.9571C25.5686 19.9243 29.39 7.521 13.07 7.521C6.21136 7.521 0.571372 14.0296 0.571372 19.7399C0.544319 22.7606 1.19064 25.7494 2.46335 28.489C4.54331 32.9269 8.1806 36.4464 12.6845 38.3792C17.1884 40.3121 22.2454 40.5236 26.895 38.9737C25.267 39.487 23.547 39.6411 21.8537 39.4253C20.1603 39.2095 18.534 38.629 17.0867 37.7239L17.0726 37.7176Z" fill="url(#paint2_linear)"/>
<path opacity="0.41" d="M17.0726 37.7176C15.6791 36.8527 14.4715 35.7194 13.5199 34.3836C12.4353 32.8976 11.689 31.1924 11.3332 29.3875C10.9775 27.5825 11.0209 25.7216 11.4605 23.9352C11.9001 22.1488 12.7252 20.4803 13.8779 19.0465C15.0307 17.6128 16.4832 16.4487 18.1335 15.6357C18.6209 15.406 19.4536 14.9905 20.5613 15.0108C21.3417 15.0165 22.1102 15.2028 22.8065 15.5552C23.5029 15.9075 24.1081 16.4164 24.5749 17.0418C25.2058 17.8842 25.5537 18.9048 25.5686 19.9571C25.5686 19.9243 29.39 7.521 13.07 7.521C6.21136 7.521 0.571372 14.0296 0.571372 19.7399C0.544319 22.7606 1.19064 25.7494 2.46335 28.489C4.54331 32.9269 8.1806 36.4464 12.6845 38.3792C17.1884 40.3121 22.2454 40.5236 26.895 38.9737C25.267 39.487 23.547 39.6411 21.8537 39.4253C20.1603 39.2095 18.534 38.629 17.0867 37.7239L17.0726 37.7176Z" fill="url(#paint3_radial)"/>
<path d="M24.3531 23.2568C24.2265 23.4209 23.8375 23.6474 23.8375 24.1411C23.8375 24.5489 24.1031 24.941 24.5749 25.2707C26.8216 26.833 31.057 26.6268 31.068 26.6268C32.7327 26.6228 34.3658 26.1723 35.7971 25.3222C37.241 24.4791 38.4394 23.2732 39.2733 21.8239C40.1073 20.3747 40.5478 18.7327 40.5513 17.0606C40.5919 13.5595 39.3014 11.2316 38.7796 10.2005C35.469 3.72464 28.323 6.11331e-05 20.552 6.11331e-05C15.2966 -0.000458527 10.2522 2.0678 6.50991 5.75749C2.76758 9.44719 0.628103 14.4617 0.554199 19.7166C0.629191 14.0079 6.30355 9.39744 13.0528 9.39744C13.5996 9.39744 16.718 9.45056 19.6146 10.9707C22.1674 12.3112 23.5047 13.9297 24.4343 15.5343C25.3998 17.2013 25.5717 19.3073 25.5717 20.1462C25.5717 20.9852 25.1436 22.2288 24.3531 23.2568Z" fill="url(#paint4_radial)"/>
<path d="M24.3531 23.2568C24.2265 23.4209 23.8375 23.6474 23.8375 24.1411C23.8375 24.5489 24.1031 24.941 24.5749 25.2707C26.8216 26.833 31.057 26.6268 31.068 26.6268C32.7327 26.6228 34.3658 26.1723 35.7971 25.3222C37.241 24.4791 38.4394 23.2732 39.2733 21.8239C40.1073 20.3747 40.5478 18.7327 40.5513 17.0606C40.5919 13.5595 39.3014 11.2316 38.7796 10.2005C35.469 3.72464 28.323 6.11331e-05 20.552 6.11331e-05C15.2966 -0.000458527 10.2522 2.0678 6.50991 5.75749C2.76758 9.44719 0.628103 14.4617 0.554199 19.7166C0.629191 14.0079 6.30355 9.39744 13.0528 9.39744C13.5996 9.39744 16.718 9.45056 19.6146 10.9707C22.1674 12.3112 23.5047 13.9297 24.4343 15.5343C25.3998 17.2013 25.5717 19.3073 25.5717 20.1462C25.5717 20.9852 25.1436 22.2288 24.3531 23.2568Z" fill="url(#paint5_radial)"/>
<defs>
<linearGradient id="paint0_linear" x1="9.72876" y1="27.6611" x2="37.5913" y2="27.6611" gradientUnits="userSpaceOnUse">
<stop stop-color="#0C59A4"/>
<stop offset="1" stop-color="#114A8B"/>
</linearGradient>
<radialGradient id="paint1_radial" cx="0" cy="0" r="1" gradientUnits="userSpaceOnUse" gradientTransform="translate(25.1177 27.8807) scale(14.9015 14.1564)">
<stop offset="0.72" stop-opacity="0"/>
<stop offset="0.95" stop-opacity="0.53"/>
<stop offset="1"/>
</radialGradient>
<linearGradient id="paint2_linear" x1="24.4171" y1="15.5748" x2="7.0144" y2="34.5305" gradientUnits="userSpaceOnUse">
<stop stop-color="#1B9DE2"/>
<stop offset="0.16" stop-color="#1595DF"/>
<stop offset="0.67" stop-color="#0680D7"/>
<stop offset="1" stop-color="#0078D4"/>
</linearGradient>
<radialGradient id="paint3_radial" cx="0" cy="0" r="1" gradientUnits="userSpaceOnUse" gradientTransform="translate(11.5833 31.0915) rotate(-81.3844) scale(22.4078 18.1033)">
<stop offset="0.76" stop-opacity="0"/>
<stop offset="0.95" stop-opacity="0.5"/>
<stop offset="1"/>
</radialGradient>
<radialGradient id="paint4_radial" cx="0" cy="0" r="1" gradientUnits="userSpaceOnUse" gradientTransform="translate(4.59476 7.40185) rotate(92.2906) scale(31.6514 67.411)">
<stop stop-color="#35C1F1"/>
<stop offset="0.11" stop-color="#34C1ED"/>
<stop offset="0.23" stop-color="#2FC2DF"/>
<stop offset="0.31" stop-color="#2BC3D2"/>
<stop offset="0.67" stop-color="#36C752"/>
</radialGradient>
<radialGradient id="paint5_radial" cx="0" cy="0" r="1" gradientUnits="userSpaceOnUse" gradientTransform="translate(38.0613 12.0934) rotate(73.7398) scale(15.2077 12.3669)">
<stop stop-color="#66EB6E"/>
<stop offset="1" stop-color="#66EB6E" stop-opacity="0"/>
</radialGradient>
</defs>
</svg>
