<svg width="23" height="23" viewBox="0 0 23 23" fill="none" xmlns="http://www.w3.org/2000/svg">
<path d="M20.0165 16.668C19.7345 16.8155 19.4436 16.9455 19.1456 17.0572C18.197 17.4121 17.1921 17.5929 16.1792 17.5909C12.2692 17.5909 8.86324 14.9014 8.86324 11.45C8.86824 10.987 8.9967 10.5338 9.23535 10.1372C9.47401 9.74047 9.8142 9.41466 10.2208 9.19336C6.68431 9.34209 5.77539 13.0273 5.77539 15.1864C5.77539 21.2911 11.4016 21.91 12.6138 21.91C13.2674 21.91 14.2531 21.7199 14.8447 21.5332L14.953 21.4968C17.2296 20.7098 19.1705 19.1711 20.4561 17.134C20.4955 17.072 20.513 16.9986 20.506 16.9254C20.4991 16.8523 20.4679 16.7836 20.4175 16.7301C20.367 16.6767 20.3002 16.6415 20.2276 16.6303C20.155 16.619 20.0807 16.6323 20.0165 16.668Z" fill="url(#paint0_linear)"/>
<path opacity="0.35" d="M20.0165 16.668C19.7345 16.8155 19.4436 16.9455 19.1456 17.0572C18.197 17.4121 17.1921 17.5929 16.1792 17.5909C12.2692 17.5909 8.86324 14.9014 8.86324 11.45C8.86824 10.987 8.9967 10.5338 9.23535 10.1372C9.47401 9.74047 9.8142 9.41466 10.2208 9.19336C6.68431 9.34209 5.77539 13.0273 5.77539 15.1864C5.77539 21.2911 11.4016 21.91 12.6138 21.91C13.2674 21.91 14.2531 21.7199 14.8447 21.5332L14.953 21.4968C17.2296 20.7098 19.1705 19.1711 20.4561 17.134C20.4955 17.072 20.513 16.9986 20.506 16.9254C20.4991 16.8523 20.4679 16.7836 20.4175 16.7301C20.367 16.6767 20.3002 16.6415 20.2276 16.6303C20.155 16.619 20.0807 16.6323 20.0165 16.668Z" fill="url(#paint1_radial)"/>
<path d="M9.65935 20.8719C8.92235 20.4145 8.28364 19.8151 7.78036 19.1086C7.20674 18.3227 6.81201 17.4208 6.62386 16.4662C6.4357 15.5116 6.45867 14.5274 6.69117 13.5826C6.92367 12.6378 7.36005 11.7553 7.96972 10.9971C8.57939 10.2388 9.34758 9.62307 10.2204 9.19312C10.4782 9.07165 10.9186 8.85186 11.5045 8.8626C11.9172 8.86561 12.3236 8.96415 12.6919 9.15052C13.0602 9.33688 13.3803 9.606 13.6272 9.93678C13.9609 10.3823 14.1448 10.9221 14.1527 11.4786C14.1527 11.4613 16.1738 4.90137 7.54239 4.90137C3.91498 4.90137 0.932072 8.34369 0.932072 11.3638C0.917764 12.9614 1.25959 14.5421 1.93271 15.991C3.03277 18.3381 4.95648 20.1996 7.33854 21.2218C9.7206 22.2441 12.3951 22.356 14.8542 21.5362C13.9932 21.8077 13.0835 21.8892 12.188 21.7751C11.2924 21.661 10.4322 21.3539 9.66679 20.8752L9.65935 20.8719Z" fill="url(#paint2_linear)"/>
<path opacity="0.41" d="M9.65935 20.8719C8.92235 20.4145 8.28364 19.8151 7.78036 19.1086C7.20674 18.3227 6.81201 17.4208 6.62386 16.4662C6.4357 15.5116 6.45867 14.5274 6.69117 13.5826C6.92367 12.6378 7.36005 11.7553 7.96972 10.9971C8.57939 10.2388 9.34758 9.62307 10.2204 9.19312C10.4782 9.07165 10.9186 8.85186 11.5045 8.8626C11.9172 8.86561 12.3236 8.96415 12.6919 9.15052C13.0602 9.33688 13.3803 9.606 13.6272 9.93678C13.9609 10.3823 14.1448 10.9221 14.1527 11.4786C14.1527 11.4613 16.1738 4.90137 7.54239 4.90137C3.91498 4.90137 0.932072 8.34369 0.932072 11.3638C0.917764 12.9614 1.25959 14.5421 1.93271 15.991C3.03277 18.3381 4.95648 20.1996 7.33854 21.2218C9.7206 22.2441 12.3951 22.356 14.8542 21.5362C13.9932 21.8077 13.0835 21.8892 12.188 21.7751C11.2924 21.661 10.4322 21.3539 9.66679 20.8752L9.65935 20.8719Z" fill="url(#paint3_radial)"/>
<path d="M13.5097 13.223C13.4428 13.3098 13.2371 13.4296 13.2371 13.6907C13.2371 13.9063 13.3775 14.1137 13.6271 14.2881C14.8153 15.1144 17.0553 15.0053 17.0611 15.0053C17.9416 15.0032 18.8053 14.7649 19.5623 14.3154C20.326 13.8695 20.9598 13.2316 21.4008 12.4652C21.8419 11.6987 22.0749 10.8302 22.0767 9.94594C22.0982 8.09422 21.4157 6.86305 21.1397 6.3177C19.3888 2.89273 15.6093 0.922852 11.4994 0.922852C8.71988 0.922577 6.052 2.01645 4.07274 3.96787C2.09348 5.9193 0.961938 8.57142 0.922852 11.3506C0.962513 8.33137 3.9636 5.89299 7.53317 5.89299C7.82237 5.89299 9.47165 5.92108 11.0036 6.72506C12.3538 7.43402 13.0611 8.29005 13.5527 9.13865C14.0633 10.0203 14.1542 11.1341 14.1542 11.5779C14.1542 12.0216 13.9278 12.6793 13.5097 13.223Z" fill="url(#paint4_radial)"/>
<path d="M13.5097 13.223C13.4428 13.3098 13.2371 13.4296 13.2371 13.6907C13.2371 13.9063 13.3775 14.1137 13.6271 14.2881C14.8153 15.1144 17.0553 15.0053 17.0611 15.0053C17.9416 15.0032 18.8053 14.7649 19.5623 14.3154C20.326 13.8695 20.9598 13.2316 21.4008 12.4652C21.8419 11.6987 22.0749 10.8302 22.0767 9.94594C22.0982 8.09422 21.4157 6.86305 21.1397 6.3177C19.3888 2.89273 15.6093 0.922852 11.4994 0.922852C8.71988 0.922577 6.052 2.01645 4.07274 3.96787C2.09348 5.9193 0.961938 8.57142 0.922852 11.3506C0.962513 8.33137 3.9636 5.89299 7.53317 5.89299C7.82237 5.89299 9.47165 5.92108 11.0036 6.72506C12.3538 7.43402 13.0611 8.29005 13.5527 9.13865C14.0633 10.0203 14.1542 11.1341 14.1542 11.5779C14.1542 12.0216 13.9278 12.6793 13.5097 13.223Z" fill="url(#paint5_radial)"/>
<defs>
<linearGradient id="paint0_linear" x1="5.77539" y1="15.5533" x2="20.5114" y2="15.5533" gradientUnits="userSpaceOnUse">
<stop stop-color="#0C59A4"/>
<stop offset="1" stop-color="#114A8B"/>
</linearGradient>
<radialGradient id="paint1_radial" cx="0" cy="0" r="1" gradientUnits="userSpaceOnUse" gradientTransform="translate(13.9143 15.6694) scale(7.88115 7.4871)">
<stop offset="0.72" stop-opacity="0"/>
<stop offset="0.95" stop-opacity="0.53"/>
<stop offset="1"/>
</radialGradient>
<linearGradient id="paint2_linear" x1="13.5437" y1="9.16089" x2="4.33969" y2="19.1863" gradientUnits="userSpaceOnUse">
<stop stop-color="#1B9DE2"/>
<stop offset="0.16" stop-color="#1595DF"/>
<stop offset="0.67" stop-color="#0680D7"/>
<stop offset="1" stop-color="#0078D4"/>
</linearGradient>
<radialGradient id="paint3_radial" cx="0" cy="0" r="1" gradientUnits="userSpaceOnUse" gradientTransform="translate(6.75614 17.3675) rotate(-81.3844) scale(11.8512 9.57454)">
<stop offset="0.76" stop-opacity="0"/>
<stop offset="0.95" stop-opacity="0.5"/>
<stop offset="1"/>
</radialGradient>
<radialGradient id="paint4_radial" cx="0" cy="0" r="1" gradientUnits="userSpaceOnUse" gradientTransform="translate(3.05984 4.83755) rotate(92.2906) scale(16.74 35.6527)">
<stop stop-color="#35C1F1"/>
<stop offset="0.11" stop-color="#34C1ED"/>
<stop offset="0.23" stop-color="#2FC2DF"/>
<stop offset="0.31" stop-color="#2BC3D2"/>
<stop offset="0.67" stop-color="#36C752"/>
</radialGradient>
<radialGradient id="paint5_radial" cx="0" cy="0" r="1" gradientUnits="userSpaceOnUse" gradientTransform="translate(20.7598 7.31884) rotate(73.7398) scale(8.04311 6.54066)">
<stop stop-color="#66EB6E"/>
<stop offset="1" stop-color="#66EB6E" stop-opacity="0"/>
</radialGradient>
</defs>
</svg>
