<svg width="76" height="94" viewBox="0 0 76 94" fill="none" xmlns="http://www.w3.org/2000/svg">
<mask id="mask0" mask-type="alpha" maskUnits="userSpaceOnUse" x="0" y="5" width="35" height="84">
<rect y="5.03735" width="34.0538" height="83.34" fill="#C4C4C4"/>
</mask>
<g mask="url(#mask0)">
<path d="M2.21924 13.7622C2.21924 12.321 2.21924 11.6005 2.36671 11.0068C2.81317 9.20944 4.21652 7.80609 6.01386 7.35963C6.60753 7.21216 7.3281 7.21216 8.76924 7.21216H53.2999L65.8851 18.0826V86.9286H2.21924V13.7622Z" fill="#FCDCE5"/>
<rect opacity="0.2" x="12.144" y="25.2539" width="43.4783" height="23.1314" fill="#FF6992"/>
<rect opacity="0.2" x="12.144" y="52.0864" width="43.4783" height="3.2384" fill="#FF6992"/>
<rect opacity="0.2" x="12.144" y="56.7129" width="43.4783" height="3.70103" fill="#FF6992"/>
<rect opacity="0.2" x="12.144" y="67.8159" width="43.4783" height="3.2384" fill="#FF6992"/>
<rect opacity="0.2" x="12.144" y="72.4417" width="43.4783" height="3.70103" fill="#FF6992"/>
</g>
<rect x="32.6145" width="2.87857" height="93.5534" fill="#FD3E72"/>
<rect x="39.0923" y="26.6267" width="13.6732" height="9.35534" fill="#FFB4C8"/>
<rect x="39.0933" y="4.31787" width="19.4303" height="13.6732" fill="#FFDFE8"/>
<rect x="55.6438" y="23.0283" width="19.4303" height="21.5892" fill="#FF608B"/>
<rect x="39.0923" y="52.5334" width="10.7946" height="15.8321" fill="#FF7EA1"/>
<rect x="52.7639" y="52.5334" width="10.7946" height="15.8321" fill="#FFB0C6"/>
<rect x="63.5586" y="73.4031" width="7.19641" height="10.7946" fill="#FFBFD1"/>
<rect x="39.0923" y="73.4031" width="20.15" height="15.8321" fill="#FF8AAA"/>
<circle cx="34.2107" cy="46.5645" r="19.4065" fill="white" stroke="#FD3E72" stroke-width="3"/>
<path d="M31.0878 46.7034H28.2269C28.0968 46.7034 27.9983 46.8176 28.0219 46.9435C28.0259 46.9711 28.0298 46.9986 28.0338 47.0262C28.0535 47.1364 28.085 47.2426 28.1283 47.3489C28.1953 47.5102 28.3017 47.6519 28.4475 47.7779C28.5894 47.9038 28.7904 47.9629 29.0465 47.9629C29.3027 47.9629 29.4997 47.8999 29.6455 47.7779C29.7598 47.6795 29.8465 47.5693 29.9135 47.4512C29.9489 47.3882 30.0198 47.3489 30.0908 47.3489H30.8907C31.0366 47.3489 31.1351 47.4945 31.0878 47.6283C31.0523 47.7306 31.009 47.829 30.9577 47.9156C30.8671 48.077 30.7686 48.2187 30.6582 48.3367C30.5479 48.4548 30.4336 48.5532 30.3075 48.6319C30.1814 48.7106 30.0632 48.7736 29.945 48.8248C29.6573 48.935 29.3578 48.994 29.0386 48.994C28.6209 48.9862 28.2505 48.8996 27.9274 48.7343C27.7894 48.6595 27.6555 48.565 27.5215 48.4509C27.3875 48.3367 27.2693 48.1911 27.1668 48.018C27.0644 47.8448 26.9816 47.6362 26.9186 47.3922C26.8555 47.1482 26.824 46.8687 26.824 46.5421C26.824 46.2193 26.8555 45.936 26.9186 45.6919C26.9816 45.4479 27.0644 45.2393 27.1668 45.0622C27.2693 44.8851 27.3875 44.7395 27.5215 44.6214C27.6555 44.5034 27.7894 44.4089 27.9274 44.3341C28.2466 44.161 28.613 44.0704 29.0268 44.0547C29.0347 44.0547 29.0426 44.0547 29.0505 44.0547C29.3894 44.0704 29.7046 44.1413 30.0002 44.2672C30.1263 44.3223 30.2524 44.3971 30.3785 44.4876C30.5046 44.5781 30.6228 44.6883 30.7331 44.8222C30.8435 44.956 30.938 45.1134 31.0208 45.2984C31.1035 45.4833 31.1666 45.6959 31.202 45.936C31.2139 46.0304 31.2257 46.1249 31.2336 46.2233C31.2415 46.3217 31.2493 46.4279 31.2493 46.5421C31.2533 46.5342 31.2769 46.7034 31.0878 46.7034ZM29.7243 45.9281C29.874 45.9281 29.9805 45.7707 29.9135 45.6369C29.9135 45.6369 29.9135 45.6329 29.9095 45.6329C29.8622 45.5345 29.7992 45.444 29.7164 45.3613C29.6337 45.2826 29.5391 45.2157 29.4287 45.1685C29.3184 45.1213 29.1844 45.0977 29.0386 45.0977C28.8889 45.0977 28.7589 45.1213 28.6485 45.1685C28.5382 45.2157 28.4396 45.2787 28.3609 45.3613C28.2781 45.444 28.215 45.5306 28.1638 45.6329V45.6369C28.0968 45.7746 28.2032 45.932 28.353 45.932H29.7243V45.9281Z" fill="#A12B52"/>
<path d="M34.8265 42H32.8235C32.3432 42.0103 32.1082 42.2676 32.1082 42.7512V48.9974H34.4484C35.0819 48.9974 35.5725 48.946 35.9199 48.8534C37.2586 48.4932 37.9944 47.2172 37.9944 45.4987C37.9944 43.2657 37.0338 42 34.8265 42ZM36.5433 45.4987C36.5433 46.9702 36.0528 47.7317 34.6425 47.7317H33.5082V43.2246H34.8265C36.1141 43.2246 36.5433 44.0992 36.5433 45.4987Z" fill="#FD3E72"/>
<path d="M42.9232 46.0595V48.9061H42.3083C41.9104 48.8786 41.7114 48.6864 41.7114 48.302V45.8124C41.6843 45.309 41.413 45.0619 40.8794 45.0619C40.3459 45.0619 40.0746 45.309 40.0656 45.8124V48.9061H38.8447V46.0595C38.8447 44.6774 39.532 43.991 40.8975 43.991C42.263 43.991 42.9322 44.6774 42.9232 46.0595Z" fill="#FD3E72"/>
<path d="M43.3278 47.3135H44.5577C44.5848 47.8443 44.9646 48.0274 45.5524 48.0274C46.0588 48.0274 46.312 47.881 46.312 47.5698C46.312 47.3226 45.8961 47.1213 45.0731 46.9748C44.0151 46.7826 43.4725 46.3067 43.4634 45.547C43.4634 44.5035 44.2773 44.0093 45.3716 43.991C45.9865 43.991 46.4748 44.1283 46.8365 44.4028C47.1892 44.6866 47.3791 45.0802 47.4063 45.5836H46.6466C46.3663 45.5744 46.1854 45.4737 46.1131 45.2815C46.0317 45.071 45.7875 44.952 45.3896 44.952C44.9194 44.952 44.6843 45.0802 44.6843 45.3273C44.6843 45.5744 44.9917 45.7666 45.6157 45.8856C46.4296 46.0504 46.9632 46.2609 47.2254 46.508C47.4515 46.746 47.56 47.0389 47.56 47.3684C47.56 48.5583 46.6376 48.9976 45.3716 48.9976C44.7024 48.9976 44.1959 48.8512 43.8704 48.5674C43.5087 48.2928 43.3278 47.8718 43.3278 47.3135Z" fill="#FD3E72"/>
<path d="M26.2626 42.0791C25.6321 42.0791 25.1238 42.5868 25.1238 43.2165V46.5107C25.1238 46.6485 25.1159 46.7862 25.1001 46.9318C25.0844 47.0735 25.045 47.2034 24.9819 47.3215C24.9189 47.4396 24.8243 47.538 24.6982 47.6167C24.5721 47.6954 24.3908 47.7347 24.1623 47.7347C23.9337 47.7347 23.7524 47.6954 23.6263 47.6167C23.5002 47.538 23.4057 47.4396 23.3426 47.3215C23.2796 47.2034 23.2402 47.0735 23.2244 46.9318C23.2086 46.7902 23.2007 46.6485 23.2007 46.5107V43.1142C22.5702 43.1142 22.0619 43.6219 22.0619 44.2516V46.5068C22.0619 46.6445 22.054 46.7823 22.0382 46.9279C22.0225 47.0696 21.9831 47.1995 21.92 47.3176C21.857 47.4356 21.7624 47.534 21.6363 47.6127C21.5102 47.6915 21.3289 47.7308 21.1004 47.7308C20.8718 47.7308 20.6905 47.6915 20.5644 47.6127C20.4383 47.534 20.3438 47.4356 20.2807 47.3176C20.2177 47.1995 20.1783 47.0696 20.1625 46.9279C20.1467 46.7862 20.1389 46.6445 20.1389 46.5068V44.1493C19.5083 44.1493 19 44.6609 19 45.2867V46.5068C19 46.8295 19.0315 47.1129 19.0946 47.3569C19.1576 47.6009 19.2364 47.8095 19.331 47.9866C19.4295 48.1637 19.5399 48.3094 19.666 48.4274C19.7921 48.5455 19.9221 48.64 20.0522 48.7147C20.3556 48.8879 20.7063 48.9824 21.0964 48.9942C21.4944 48.9824 21.8452 48.8879 22.1525 48.7147C22.2826 48.64 22.4126 48.5455 22.5348 48.4274C22.5663 48.396 22.5978 48.3645 22.6293 48.329C22.6609 48.3645 22.6924 48.396 22.7239 48.4274C22.85 48.5455 22.9801 48.64 23.1101 48.7147C23.4135 48.8879 23.7643 48.9824 24.1544 48.9942C24.5524 48.9824 24.9031 48.8879 25.2105 48.7147C25.3405 48.64 25.4706 48.5455 25.5927 48.4274C25.7188 48.3094 25.8292 48.1637 25.9277 47.9866C26.0262 47.8095 26.105 47.6009 26.1641 47.3569C26.2232 47.1129 26.2508 46.8335 26.2508 46.5068L26.2626 42.0791Z" fill="#A12B52"/>
<path d="M41.9147 50.4212V50.4182C41.9481 50.404 41.9761 50.3837 41.9987 50.3567C42.0208 50.3296 42.0368 50.3011 42.0461 50.2711C42.0554 50.2411 42.0601 50.2088 42.0601 50.1742C42.0601 50.0879 42.0328 50.0218 41.9788 49.976C41.9247 49.931 41.8461 49.9077 41.7434 49.9077H41.3933V51.0001H41.7947C41.8467 51.0001 41.8927 50.9926 41.9327 50.9775C41.9727 50.9625 42.0061 50.9415 42.0314 50.9145C42.0568 50.8875 42.0761 50.8559 42.0894 50.8191C42.1028 50.7831 42.1094 50.7426 42.1094 50.6983C42.1094 50.6269 42.0921 50.5676 42.0588 50.5196C42.0248 50.4715 41.9767 50.4392 41.9147 50.4212ZM41.582 50.0992H41.7067C41.7427 50.0992 41.7734 50.1052 41.7974 50.1157C41.8214 50.1262 41.8387 50.1412 41.8494 50.1592C41.8601 50.178 41.8654 50.2005 41.8654 50.226C41.8654 50.2553 41.8581 50.2801 41.8441 50.2996C41.8301 50.3191 41.8127 50.3334 41.7914 50.3424C41.77 50.3514 41.746 50.3552 41.7194 50.3552H41.582V50.0992ZM41.7367 50.8101H41.582V50.5294H41.7387C41.794 50.5294 41.8361 50.5421 41.8654 50.5676C41.8947 50.5932 41.9094 50.6277 41.9094 50.6712C41.9094 50.702 41.9021 50.7275 41.8874 50.7486C41.8727 50.7696 41.8521 50.7846 41.8267 50.7951C41.8014 50.8056 41.7714 50.8101 41.7367 50.8101ZM43.2533 51.0001H43.9021V50.8071H43.4427V50.5541H43.7881V50.3634H43.4427V50.1014H43.8734V49.9077H43.2533V51.0001ZM45.254 51.0001H45.4453V50.1014H45.7141V49.9077H44.9866V50.1014H45.254V51.0001ZM47.3827 51.0001H47.5833L47.2227 49.9077H47.0373L46.6779 51.0001H46.8786L46.9446 50.7816H47.3167L47.3827 51.0001ZM47 50.5969L47.1293 50.1682H47.1307L47.2607 50.5969H47Z" fill="#A12B52"/>
</svg>
