<svg width="100" height="100" viewBox="0 0 100 100" fill="none" xmlns="http://www.w3.org/2000/svg">
<circle cx="50" cy="49.9999" r="50" fill="white"/>
<circle cx="49.9999" cy="49.9999" r="45.7895" fill="white"/>
<circle cx="50" cy="49.9999" r="28.3389" fill="#FFE6EC" stroke="#5B5863" stroke-width="2"/>
<path fill-rule="evenodd" clip-rule="evenodd" d="M28.4797 49.1377L28.4818 49.1376C28.8309 40.0301 36.3244 32.7538 45.5174 32.7538C54.4888 32.7538 61.8416 39.6835 62.5153 48.4822L72.2928 48.9711C71.8559 37.2505 62.2165 27.8829 50.3891 27.8829C38.5057 27.8829 28.831 37.3394 28.4797 49.1377Z" fill="#FD3E72"/>
<path d="M54.3836 51.4247C54.3836 53.8092 52.4506 55.7421 50.0662 55.7421C47.6818 55.7421 45.7488 53.8092 45.7488 51.4247C45.7488 49.0403 47.6818 47.1073 50.0662 47.1073C52.4506 47.1073 54.3836 49.0403 54.3836 51.4247Z" fill="#5B5863"/>
<path d="M50 49.1734L72.314 51.6528L50 54.1321V49.1734Z" fill="#5B5863"/>
</svg>
