<svg width="43" height="40" viewBox="0 0 43 40" fill="none" xmlns="http://www.w3.org/2000/svg">
<g clip-path="url(#clip0)">
<path d="M38.8008 13.0916C37.9907 11.1143 36.3475 8.97925 35.0607 8.30434C35.9785 10.1076 36.6154 12.0441 36.9488 14.0452L36.9522 14.0769C34.8443 8.74549 31.2697 6.59585 28.3503 1.91494C28.2026 1.67826 28.055 1.44109 27.9111 1.19074C27.8289 1.04776 27.763 0.918926 27.7057 0.800342C27.5846 0.562467 27.4913 0.311074 27.4277 0.0512595C27.4278 0.0392703 27.4235 0.0276689 27.4157 0.0186682C27.4079 0.00966761 27.3971 0.00389774 27.3854 0.00245932C27.3739 -0.000738393 27.3617 -0.000738393 27.3502 0.00245932C27.3478 0.00245932 27.344 0.00685133 27.3411 0.00782733C27.3382 0.00880334 27.332 0.0131953 27.3276 0.0151474L27.3348 0.00245932C22.652 2.78407 21.0631 7.93346 20.9169 10.5091C19.0468 10.6395 17.2588 11.3387 15.7862 12.5153C15.6326 12.3833 15.472 12.2598 15.3052 12.1454C14.8804 10.637 14.8622 9.04052 15.2527 7.52256C13.533 8.36774 12.0049 9.56584 10.7652 11.0411H10.7565C10.0176 10.0909 10.0696 6.95794 10.1119 6.30353C9.89334 6.39265 9.68468 6.50503 9.48946 6.63879C8.8372 7.11106 8.22744 7.64098 7.66731 8.22235C7.02902 8.87887 6.44606 9.58847 5.92452 10.3437V10.3466V10.3432C4.7259 12.0671 3.87575 14.0148 3.42315 16.0738L3.39813 16.1987C3.36302 16.3651 3.2365 17.1987 3.21486 17.3797C3.21486 17.3939 3.21197 17.407 3.21053 17.4212C3.04733 18.2817 2.94621 19.1531 2.90796 20.0286V20.1262C2.91205 24.8619 4.66711 29.4237 7.82629 32.9102C10.9855 36.3966 15.3189 38.554 19.9702 38.9558C24.6214 39.3577 29.252 37.9749 32.9469 35.0806C36.6418 32.1864 39.132 27.9913 39.9254 23.3245C39.9567 23.0805 39.9822 22.839 40.0101 22.5925C40.3941 19.3728 39.9784 16.1068 38.8008 13.0916ZM17.313 27.8966C17.4001 27.9391 17.4818 27.9849 17.5713 28.0255L17.5843 28.0337C17.4939 27.9898 17.4034 27.9441 17.313 27.8966ZM36.9536 14.0813V14.0632L36.957 14.0833L36.9536 14.0813Z" fill="url(#paint0_linear)"/>
<path d="M38.8008 13.0916C37.9907 11.1143 36.3475 8.97926 35.0607 8.30435C35.9785 10.1076 36.6154 12.0442 36.9488 14.0452V14.0633L36.9522 14.0833C38.3891 18.2549 38.1813 22.8286 36.372 26.8484C34.2353 31.4995 29.0632 36.2668 20.9674 36.035C12.2198 35.7837 4.51605 29.1986 3.07584 20.5737C2.81368 19.2136 3.07584 18.5241 3.20764 17.4188C3.02785 18.2773 2.92752 19.1511 2.90796 20.0286V20.1262C2.91205 24.8619 4.66711 29.4237 7.82629 32.9102C10.9855 36.3966 15.3189 38.554 19.9702 38.9558C24.6214 39.3577 29.252 37.9749 32.9469 35.0806C36.6418 32.1864 39.132 27.9913 39.9254 23.3245C39.9567 23.0805 39.9822 22.839 40.0101 22.5925C40.3941 19.3728 39.9784 16.1068 38.8008 13.0916Z" fill="url(#paint1_radial)"/>
<path d="M38.8008 13.0916C37.9907 11.1143 36.3475 8.97926 35.0607 8.30435C35.9785 10.1076 36.6154 12.0442 36.9488 14.0452V14.0633L36.9522 14.0833C38.3891 18.2549 38.1813 22.8286 36.372 26.8484C34.2353 31.4995 29.0632 36.2668 20.9674 36.035C12.2198 35.7837 4.51605 29.1986 3.07584 20.5737C2.81368 19.2136 3.07584 18.5241 3.20764 17.4188C3.02785 18.2773 2.92752 19.1511 2.90796 20.0286V20.1262C2.91205 24.8619 4.66711 29.4237 7.82629 32.9102C10.9855 36.3966 15.3189 38.554 19.9702 38.9558C24.6214 39.3577 29.252 37.9749 32.9469 35.0806C36.6418 32.1864 39.132 27.9913 39.9254 23.3245C39.9567 23.0805 39.9822 22.839 40.0101 22.5925C40.3941 19.3728 39.9784 16.1068 38.8008 13.0916Z" fill="url(#paint2_radial)"/>
<path d="M29.7411 15.3149C29.7815 15.3437 29.819 15.3725 29.857 15.4013C29.3887 14.5589 28.8057 13.7876 28.1253 13.1102C22.3308 7.23072 26.6067 0.362098 27.3277 0.0131774L27.3349 0.00244141C22.6521 2.78405 21.0632 7.93344 20.917 10.5091C21.1344 10.494 21.3499 10.4754 21.5722 10.4754C23.2337 10.4785 24.8649 10.9279 26.2997 11.778C27.7346 12.628 28.9219 13.8484 29.7411 15.3149Z" fill="url(#paint3_radial)"/>
<path d="M21.5841 16.4891C21.5533 16.9596 19.9149 18.5822 19.342 18.5822C14.0405 18.5822 13.1799 21.8357 13.1799 21.8357C13.4147 24.5753 15.2965 26.8318 17.5713 28.0255C17.6752 28.0801 17.7805 28.1294 17.8859 28.1777C18.0684 28.2597 18.2508 28.3355 18.4333 28.4052C19.214 28.6855 20.0317 28.8455 20.8591 28.88C30.1513 29.3221 31.9513 17.6071 25.2457 14.2077C26.8276 13.9989 28.4296 14.3935 29.741 15.315C28.9218 13.8484 27.7344 12.6281 26.2996 11.778C24.8648 10.928 23.2336 10.4786 21.572 10.4755C21.3508 10.4755 21.1343 10.494 20.9169 10.5092C19.0468 10.6396 17.2588 11.3387 15.7862 12.5153C16.0705 12.7593 16.3913 13.0853 17.0672 13.7612C18.3323 15.0256 21.5769 16.3354 21.5841 16.4891Z" fill="url(#paint4_radial)"/>
<path d="M21.5841 16.4891C21.5533 16.9596 19.9149 18.5822 19.342 18.5822C14.0405 18.5822 13.1799 21.8357 13.1799 21.8357C13.4147 24.5753 15.2965 26.8318 17.5713 28.0255C17.6752 28.0801 17.7805 28.1294 17.8859 28.1777C18.0684 28.2597 18.2508 28.3355 18.4333 28.4052C19.214 28.6855 20.0317 28.8455 20.8591 28.88C30.1513 29.3221 31.9513 17.6071 25.2457 14.2077C26.8276 13.9989 28.4296 14.3935 29.741 15.315C28.9218 13.8484 27.7344 12.6281 26.2996 11.778C24.8648 10.928 23.2336 10.4786 21.572 10.4755C21.3508 10.4755 21.1343 10.494 20.9169 10.5092C19.0468 10.6396 17.2588 11.3387 15.7862 12.5153C16.0705 12.7593 16.3913 13.0853 17.0672 13.7612C18.3323 15.0256 21.5769 16.3354 21.5841 16.4891Z" fill="url(#paint5_radial)"/>
<path d="M14.9171 11.8863C15.0682 11.9839 15.1928 12.0688 15.302 12.1454C14.8772 10.637 14.8591 9.04054 15.2495 7.52258C13.5298 8.36776 12.0017 9.56586 10.762 11.0411C10.8529 11.0386 13.5573 10.9893 14.9171 11.8863Z" fill="url(#paint6_radial)"/>
<path d="M3.07848 20.5737C4.51725 29.1986 12.2224 35.7837 20.97 36.035C29.0658 36.2673 34.2379 31.4995 36.3747 26.8484C38.1839 22.8286 38.3918 18.2549 36.9548 14.0832V14.0652C36.9548 14.051 36.9519 14.0427 36.9548 14.0471L36.9582 14.0789C37.6196 18.4596 35.4232 22.7038 31.9896 25.5737L31.979 25.5981C25.2888 31.1257 18.8862 28.9331 17.5903 28.0381C17.4999 27.9942 17.4094 27.9485 17.319 27.901C13.4183 26.0095 11.8068 22.4042 12.1522 19.3122C11.2263 19.326 10.3162 19.0672 9.53238 18.567C8.74852 18.0668 8.12447 17.3467 7.73585 16.494C8.75978 15.8576 9.9273 15.4978 11.1271 15.449C12.327 15.4001 13.5192 15.6638 14.5901 16.2148C16.798 17.2317 19.3104 17.3319 21.5901 16.494C21.5829 16.3403 18.3383 15.03 17.0732 13.766C16.3973 13.0902 16.0765 12.7647 15.7922 12.5202C15.6386 12.3882 15.478 12.2647 15.3112 12.1503C15.2005 12.0737 15.0759 11.9907 14.9263 11.8911C13.5665 10.9942 10.8621 11.0435 10.7726 11.0459H10.764C10.0251 10.0958 10.077 6.96282 10.1194 6.30841C9.90079 6.39753 9.69213 6.50991 9.49691 6.64367C8.84465 7.11594 8.23489 7.64586 7.67476 8.22723C7.03419 8.88191 6.44881 9.58987 5.92476 10.3437V10.3466V10.3432C4.72614 12.0671 3.87598 14.0148 3.42338 16.0738C3.41424 16.1124 2.75186 19.0501 3.07848 20.5737Z" fill="url(#paint7_radial)"/>
<path d="M28.1265 13.1102C28.8071 13.7884 29.3901 14.5605 29.8582 15.4038C29.9607 15.4824 30.0564 15.5604 30.1377 15.6361C34.3646 19.5889 32.1499 25.1765 31.9849 25.5742C35.4185 22.7043 37.613 18.4601 36.9535 14.0793C34.8446 8.74549 31.2701 6.59585 28.3507 1.91494C28.203 1.67826 28.0553 1.44109 27.9115 1.19074C27.8292 1.04776 27.7633 0.918926 27.7061 0.800342C27.585 0.562467 27.4917 0.311074 27.4281 0.0512595C27.4281 0.0392703 27.4239 0.0276689 27.4161 0.0186682C27.4083 0.00966761 27.3975 0.00389774 27.3857 0.00245932C27.3742 -0.000738393 27.3621 -0.000738393 27.3506 0.00245932C27.3482 0.00245932 27.3444 0.00685133 27.3415 0.00782733C27.3386 0.00880334 27.3323 0.0131954 27.328 0.0151474C26.6069 0.362116 22.331 7.23074 28.1265 13.1102Z" fill="url(#paint8_radial)"/>
<path d="M30.1344 15.6336C30.0531 15.558 29.9574 15.4799 29.8549 15.4014C29.8169 15.3726 29.7794 15.3438 29.739 15.315C28.4276 14.3935 26.8257 13.9989 25.2437 14.2077C31.9494 17.6091 30.1503 29.3221 20.8572 28.8799C20.0297 28.8455 19.2121 28.6854 18.4313 28.4051C18.2489 28.3358 18.0664 28.26 17.8839 28.1777C17.7786 28.1289 17.6732 28.0801 17.5693 28.0255L17.5823 28.0338C18.8782 28.9312 25.2789 31.1238 31.971 25.5937L31.9816 25.5693C32.1485 25.1741 34.3632 19.585 30.1344 15.6336Z" fill="url(#paint9_radial)"/>
<path d="M13.1803 21.8357C13.1803 21.8357 14.0409 18.5821 19.3424 18.5821C19.9153 18.5821 21.5551 16.9595 21.5845 16.4891C19.3047 17.327 16.7923 17.2268 14.5845 16.21C13.5136 15.6589 12.3214 15.3952 11.1215 15.4441C9.92168 15.493 8.75416 15.8527 7.73022 16.4891C8.11885 17.3418 8.7429 18.0619 9.52676 18.5621C10.3106 19.0623 11.2207 19.3212 12.1466 19.3073C11.8012 22.3998 13.4127 26.0051 17.3134 27.8961C17.4004 27.9386 17.4822 27.9845 17.5717 28.025C15.295 26.8318 13.4151 24.5753 13.1803 21.8357Z" fill="url(#paint10_radial)"/>
<path d="M38.8008 13.0916C37.9907 11.1143 36.3475 8.97925 35.0607 8.30434C35.9785 10.1076 36.6154 12.0441 36.9488 14.0452L36.9522 14.0769C34.8443 8.74549 31.2697 6.59585 28.3503 1.91494C28.2026 1.67826 28.055 1.44109 27.9111 1.19074C27.8289 1.04776 27.763 0.918926 27.7057 0.800342C27.5846 0.562467 27.4913 0.311074 27.4277 0.0512595C27.4278 0.0392703 27.4235 0.0276689 27.4157 0.0186682C27.4079 0.00966761 27.3971 0.00389774 27.3854 0.00245932C27.3739 -0.000738393 27.3617 -0.000738393 27.3502 0.00245932C27.3478 0.00245932 27.344 0.00685133 27.3411 0.00782733C27.3382 0.00880334 27.332 0.0131953 27.3276 0.0151474L27.3348 0.00245932C22.652 2.78407 21.0631 7.93346 20.9169 10.5091C21.1343 10.494 21.3498 10.4755 21.5721 10.4755C23.2336 10.4785 24.8648 10.928 26.2996 11.778C27.7345 12.628 28.9218 13.8484 29.741 15.315C28.4296 14.3935 26.8276 13.9989 25.2457 14.2077C31.9513 17.6091 30.1523 29.3221 20.8592 28.8799C20.0317 28.8455 19.214 28.6854 18.4333 28.4051C18.2508 28.3358 18.0684 28.26 17.8859 28.1777C17.7806 28.1289 17.6752 28.0801 17.5713 28.0255L17.5843 28.0337C17.4939 27.9898 17.4034 27.9441 17.313 27.8966C17.4001 27.9391 17.4818 27.9849 17.5713 28.0255C15.2946 26.8318 13.4147 24.5753 13.18 21.8356C13.18 21.8356 14.0405 18.5821 19.342 18.5821C19.9149 18.5821 21.5547 16.9595 21.5841 16.4891C21.5769 16.3354 18.3323 15.0251 17.0672 13.7612C16.3913 13.0853 16.0705 12.7598 15.7862 12.5153C15.6326 12.3833 15.472 12.2598 15.3052 12.1454C14.8804 10.637 14.8622 9.04052 15.2527 7.52256C13.533 8.36774 12.0049 9.56584 10.7652 11.0411H10.7565C10.0176 10.0909 10.0696 6.95794 10.1119 6.30353C9.89334 6.39265 9.68468 6.50503 9.48946 6.63879C8.8372 7.11106 8.22744 7.64098 7.66731 8.22235C7.02902 8.87887 6.44606 9.58847 5.92452 10.3437V10.3466V10.3432C4.7259 12.0671 3.87575 14.0148 3.42315 16.0738L3.39813 16.1987C3.36302 16.3651 3.20572 17.2104 3.18311 17.3919C3.18311 17.4056 3.18311 17.3778 3.18311 17.3919C3.03924 18.2644 2.94735 19.1449 2.90796 20.0286V20.1262C2.91205 24.8619 4.66711 29.4237 7.82629 32.9102C10.9855 36.3966 15.3189 38.554 19.9702 38.9558C24.6214 39.3577 29.252 37.9749 32.9469 35.0806C36.6418 32.1864 39.132 27.9913 39.9254 23.3245C39.9567 23.0805 39.9822 22.839 40.0101 22.5925C40.3941 19.3728 39.9784 16.1068 38.8008 13.0916ZM36.9512 14.0632L36.9546 14.0833L36.9512 14.0632Z" fill="url(#paint11_linear)"/>
</g>
<defs>
<linearGradient id="paint0_linear" x1="36.3331" y1="6.04587" x2="4.95494" y2="35.8876" gradientUnits="userSpaceOnUse">
<stop offset="0.048" stop-color="#FFF44F"/>
<stop offset="0.111" stop-color="#FFE847"/>
<stop offset="0.225" stop-color="#FFC830"/>
<stop offset="0.368" stop-color="#FF980E"/>
<stop offset="0.401" stop-color="#FF8B16"/>
<stop offset="0.462" stop-color="#FF672A"/>
<stop offset="0.534" stop-color="#FF3647"/>
<stop offset="0.705" stop-color="#E31587"/>
</linearGradient>
<radialGradient id="paint1_radial" cx="0" cy="0" r="1" gradientUnits="userSpaceOnUse" gradientTransform="translate(34.9029 4.33099) scale(38.8661 39.429)">
<stop offset="0.129" stop-color="#FFBD4F"/>
<stop offset="0.186" stop-color="#FFAC31"/>
<stop offset="0.247" stop-color="#FF9D17"/>
<stop offset="0.283" stop-color="#FF980E"/>
<stop offset="0.403" stop-color="#FF563B"/>
<stop offset="0.467" stop-color="#FF3750"/>
<stop offset="0.71" stop-color="#F5156C"/>
<stop offset="0.782" stop-color="#EB0878"/>
<stop offset="0.86" stop-color="#E50080"/>
</radialGradient>
<radialGradient id="paint2_radial" cx="0" cy="0" r="1" gradientUnits="userSpaceOnUse" gradientTransform="translate(20.701 20.4507) scale(38.8661 39.429)">
<stop offset="0.3" stop-color="#960E18"/>
<stop offset="0.351" stop-color="#B11927" stop-opacity="0.74"/>
<stop offset="0.435" stop-color="#DB293D" stop-opacity="0.343"/>
<stop offset="0.497" stop-color="#F5334B" stop-opacity="0.094"/>
<stop offset="0.53" stop-color="#FF3750" stop-opacity="0"/>
</radialGradient>
<radialGradient id="paint3_radial" cx="0" cy="0" r="1" gradientUnits="userSpaceOnUse" gradientTransform="translate(25.3867 -4.61699) scale(28.1568 28.5647)">
<stop offset="0.132" stop-color="#FFF44F"/>
<stop offset="0.252" stop-color="#FFDC3E"/>
<stop offset="0.506" stop-color="#FF9D12"/>
<stop offset="0.526" stop-color="#FF980E"/>
</radialGradient>
<radialGradient id="paint4_radial" cx="0" cy="0" r="1" gradientUnits="userSpaceOnUse" gradientTransform="translate(16.4019 30.7498) scale(18.5058 18.7739)">
<stop offset="0.353" stop-color="#3A8EE6"/>
<stop offset="0.472" stop-color="#5C79F0"/>
<stop offset="0.669" stop-color="#9059FF"/>
<stop offset="1" stop-color="#C139E6"/>
</radialGradient>
<radialGradient id="paint5_radial" cx="0" cy="0" r="1" gradientUnits="userSpaceOnUse" gradientTransform="translate(22.8247 17.2194) rotate(-13.781) scale(9.81959 11.644)">
<stop offset="0.206" stop-color="#9059FF" stop-opacity="0"/>
<stop offset="0.278" stop-color="#8C4FF3" stop-opacity="0.064"/>
<stop offset="0.747" stop-color="#7716A8" stop-opacity="0.45"/>
<stop offset="0.975" stop-color="#6E008B" stop-opacity="0.6"/>
</radialGradient>
<radialGradient id="paint6_radial" cx="0" cy="0" r="1" gradientUnits="userSpaceOnUse" gradientTransform="translate(20.2104 2.71781) scale(13.3131 13.5059)">
<stop stop-color="#FFE226"/>
<stop offset="0.121" stop-color="#FFDB27"/>
<stop offset="0.295" stop-color="#FFC82A"/>
<stop offset="0.502" stop-color="#FFA930"/>
<stop offset="0.732" stop-color="#FF7E37"/>
<stop offset="0.792" stop-color="#FF7139"/>
</radialGradient>
<radialGradient id="paint7_radial" cx="0" cy="0" r="1" gradientUnits="userSpaceOnUse" gradientTransform="translate(30.6748 -5.84888) scale(56.8009 57.6237)">
<stop offset="0.113" stop-color="#FFF44F"/>
<stop offset="0.456" stop-color="#FF980E"/>
<stop offset="0.622" stop-color="#FF5634"/>
<stop offset="0.716" stop-color="#FF3647"/>
<stop offset="0.904" stop-color="#E31587"/>
</radialGradient>
<radialGradient id="paint8_radial" cx="0" cy="0" r="1" gradientUnits="userSpaceOnUse" gradientTransform="translate(25.8877 -2.6447) rotate(84.0614) scale(42.2272 27.3262)">
<stop stop-color="#FFF44F"/>
<stop offset="0.06" stop-color="#FFE847"/>
<stop offset="0.168" stop-color="#FFC830"/>
<stop offset="0.304" stop-color="#FF980E"/>
<stop offset="0.356" stop-color="#FF8B16"/>
<stop offset="0.455" stop-color="#FF672A"/>
<stop offset="0.57" stop-color="#FF3647"/>
<stop offset="0.737" stop-color="#E31587"/>
</radialGradient>
<radialGradient id="paint9_radial" cx="0" cy="0" r="1" gradientUnits="userSpaceOnUse" gradientTransform="translate(19.8967 7.72031) scale(35.4618 35.9754)">
<stop offset="0.137" stop-color="#FFF44F"/>
<stop offset="0.48" stop-color="#FF980E"/>
<stop offset="0.592" stop-color="#FF5634"/>
<stop offset="0.655" stop-color="#FF3647"/>
<stop offset="0.904" stop-color="#E31587"/>
</radialGradient>
<radialGradient id="paint10_radial" cx="0" cy="0" r="1" gradientUnits="userSpaceOnUse" gradientTransform="translate(29.258 9.82578) scale(38.8127 39.3749)">
<stop offset="0.094" stop-color="#FFF44F"/>
<stop offset="0.231" stop-color="#FFE141"/>
<stop offset="0.509" stop-color="#FFAF1E"/>
<stop offset="0.626" stop-color="#FF980E"/>
</radialGradient>
<linearGradient id="paint11_linear" x1="35.9612" y1="5.88385" x2="9.24787" y2="32.2153" gradientUnits="userSpaceOnUse">
<stop offset="0.167" stop-color="#FFF44F" stop-opacity="0.8"/>
<stop offset="0.266" stop-color="#FFF44F" stop-opacity="0.634"/>
<stop offset="0.489" stop-color="#FFF44F" stop-opacity="0.217"/>
<stop offset="0.6" stop-color="#FFF44F" stop-opacity="0"/>
</linearGradient>
<clipPath id="clip0">
<rect width="42.0513" height="40" fill="white" transform="translate(0.50293)"/>
</clipPath>
</defs>
</svg>
