<svg width="25" height="23" viewBox="0 0 25 23" fill="none" xmlns="http://www.w3.org/2000/svg">
<g clip-path="url(#clip0)">
<path d="M22.5786 7.55445C22.1059 6.42506 21.147 5.20564 20.3961 4.82017C20.9317 5.85009 21.3033 6.95617 21.4979 8.09908L21.4998 8.11719C20.2698 5.07213 18.1839 3.84436 16.4803 1.17084C16.3942 1.03566 16.308 0.900196 16.2241 0.757211C16.1761 0.675545 16.1376 0.601962 16.1042 0.534232C16.0335 0.398369 15.9791 0.254784 15.9419 0.106391C15.942 0.099543 15.9395 0.0929168 15.935 0.087776C15.9304 0.0826353 15.9241 0.0793398 15.9172 0.0785182C15.9105 0.0766918 15.9035 0.0766918 15.8968 0.0785182C15.8954 0.0785182 15.8931 0.0810267 15.8914 0.0815842C15.8897 0.0821416 15.8861 0.0846502 15.8836 0.085765L15.8878 0.0785182C13.1552 1.66724 12.228 4.60834 12.1427 6.07944C11.0514 6.15393 10.008 6.55323 9.14871 7.22528C9.05905 7.14987 8.96535 7.07934 8.86801 7.014C8.62012 6.15245 8.60955 5.24064 8.83741 4.37365C7.83389 4.85638 6.9422 5.54068 6.21875 6.38325H6.2137C5.78255 5.84058 5.81286 4.05117 5.83756 3.6774C5.71001 3.7283 5.58826 3.79249 5.47434 3.86888C5.09372 4.13862 4.7379 4.44129 4.41104 4.77334C4.03858 5.14832 3.6984 5.5536 3.39406 5.98496V5.98663V5.98468C2.69463 6.96929 2.19853 8.08171 1.93442 9.25773L1.91982 9.32909C1.89933 9.42413 1.82551 9.90019 1.81288 10.0036C1.81288 10.0117 1.81119 10.0192 1.81035 10.0273C1.71512 10.5188 1.65611 11.0165 1.63379 11.5165V11.5723C1.63617 14.2771 2.66032 16.8826 4.50382 18.8739C6.34732 20.8652 8.87603 22.0974 11.5902 22.3269C14.3044 22.5564 17.0065 21.7666 19.1626 20.1136C21.3187 18.4605 22.7718 16.0645 23.2348 13.399C23.2531 13.2596 23.268 13.1217 23.2842 12.9809C23.5083 11.142 23.2657 9.27657 22.5786 7.55445ZM10.0397 16.0104C10.0905 16.0346 10.1382 16.0608 10.1904 16.084L10.198 16.0887C10.1452 16.0636 10.0924 16.0375 10.0397 16.0104ZM21.5007 8.1197V8.10939L21.5026 8.12082L21.5007 8.1197Z" fill="url(#paint0_linear)"/>
<path d="M22.5786 7.55459C22.1059 6.4252 21.147 5.20579 20.3961 4.82031C20.9317 5.85023 21.3033 6.95631 21.4979 8.09922V8.10953L21.4998 8.12096C22.3384 10.5036 22.2171 13.1159 21.1613 15.4118C19.9144 18.0683 16.8963 20.7912 12.1721 20.6588C7.06759 20.5152 2.57217 16.7542 1.73175 11.828C1.57877 11.0512 1.73175 10.6573 1.80867 10.026C1.70375 10.5164 1.6452 11.0155 1.63379 11.5167V11.5724C1.63617 14.2772 2.66032 16.8827 4.50382 18.874C6.34732 20.8653 8.87603 22.0975 11.5902 22.327C14.3044 22.5566 17.0065 21.7667 19.1626 20.1137C21.3187 18.4606 22.7718 16.0646 23.2348 13.3992C23.2531 13.2598 23.268 13.1218 23.2842 12.9811C23.5083 11.1421 23.2657 9.27671 22.5786 7.55459Z" fill="url(#paint1_radial)"/>
<path d="M22.5786 7.55459C22.1059 6.4252 21.147 5.20579 20.3961 4.82031C20.9317 5.85023 21.3033 6.95631 21.4979 8.09922V8.10953L21.4998 8.12096C22.3384 10.5036 22.2171 13.1159 21.1613 15.4118C19.9144 18.0683 16.8963 20.7912 12.1721 20.6588C7.06759 20.5152 2.57217 16.7542 1.73175 11.828C1.57877 11.0512 1.73175 10.6573 1.80867 10.026C1.70375 10.5164 1.6452 11.0155 1.63379 11.5167V11.5724C1.63617 14.2772 2.66032 16.8827 4.50382 18.874C6.34732 20.8653 8.87603 22.0975 11.5902 22.327C14.3044 22.5566 17.0065 21.7667 19.1626 20.1137C21.3187 18.4606 22.7718 16.0646 23.2348 13.3992C23.2531 13.2598 23.268 13.1218 23.2842 12.9811C23.5083 11.1421 23.2657 9.27671 22.5786 7.55459Z" fill="url(#paint2_radial)"/>
<path d="M17.2918 8.82392C17.3153 8.84037 17.3372 8.85681 17.3594 8.87326C17.0861 8.39209 16.7459 7.95156 16.3489 7.56465C12.9676 4.20658 15.4627 0.283545 15.8835 0.0842569L15.8877 0.078125C13.1551 1.66685 12.2279 4.60795 12.1426 6.07905C12.2695 6.07041 12.3952 6.05982 12.5249 6.05982C13.4945 6.06158 14.4463 6.31827 15.2836 6.80377C16.1209 7.28928 16.8138 7.98629 17.2918 8.82392Z" fill="url(#paint3_radial)"/>
<path d="M12.5321 9.49526C12.5141 9.76395 11.558 10.6907 11.2237 10.6907C8.1301 10.6907 7.62793 12.549 7.62793 12.549C7.76491 14.1137 8.86301 15.4025 10.1904 16.0843C10.2511 16.1155 10.3126 16.1437 10.374 16.1713C10.4805 16.2181 10.587 16.2614 10.6935 16.3011C11.149 16.4612 11.6262 16.5527 12.109 16.5723C17.5313 16.8249 18.5817 10.1338 14.6687 8.19223C15.5918 8.07296 16.5267 8.29834 17.2919 8.82465C16.8139 7.98701 16.121 7.29001 15.2837 6.8045C14.4465 6.319 13.4946 6.06231 12.525 6.06055C12.3959 6.06055 12.2696 6.07114 12.1427 6.07978C11.0514 6.15426 10.0081 6.55357 9.14877 7.22561C9.31466 7.36497 9.50189 7.55116 9.89627 7.9372C10.6345 8.65937 12.5278 9.40746 12.5321 9.49526Z" fill="url(#paint4_radial)"/>
<path d="M12.5321 9.49526C12.5141 9.76395 11.558 10.6907 11.2237 10.6907C8.1301 10.6907 7.62793 12.549 7.62793 12.549C7.76491 14.1137 8.86301 15.4025 10.1904 16.0843C10.2511 16.1155 10.3126 16.1437 10.374 16.1713C10.4805 16.2181 10.587 16.2614 10.6935 16.3011C11.149 16.4612 11.6262 16.5527 12.109 16.5723C17.5313 16.8249 18.5817 10.1338 14.6687 8.19223C15.5918 8.07296 16.5267 8.29834 17.2919 8.82465C16.8139 7.98701 16.121 7.29001 15.2837 6.8045C14.4465 6.319 13.4946 6.06231 12.525 6.06055C12.3959 6.06055 12.2696 6.07114 12.1427 6.07978C11.0514 6.15426 10.0081 6.55357 9.14877 7.22561C9.31466 7.36497 9.50189 7.55116 9.89627 7.9372C10.6345 8.65937 12.5278 9.40746 12.5321 9.49526Z" fill="url(#paint5_radial)"/>
<path d="M8.64149 6.86637C8.72963 6.92212 8.80233 6.97061 8.86605 7.01437C8.61816 6.15282 8.6076 5.24101 8.83546 4.37402C7.83193 4.85675 6.94024 5.54105 6.2168 6.38362C6.26985 6.38223 7.84795 6.35408 8.64149 6.86637Z" fill="url(#paint6_radial)"/>
<path d="M1.73344 11.8283C2.57302 16.7545 7.06928 20.5156 12.1738 20.6591C16.898 20.7918 19.9161 18.0687 21.163 15.4122C22.2188 13.1162 22.34 10.504 21.5015 8.12129V8.11098C21.5015 8.1029 21.4998 8.09816 21.5015 8.10067L21.5035 8.11878C21.8894 10.6209 20.6078 13.045 18.6041 14.6841L18.5979 14.6981C14.694 17.8552 10.9578 16.6029 10.2016 16.0917C10.1489 16.0666 10.0961 16.0405 10.0433 16.0134C7.7671 14.933 6.82676 12.8738 7.0283 11.1078C6.48798 11.1157 5.95694 10.9679 5.49953 10.6822C5.04212 10.3965 4.67796 9.98523 4.45119 9.49819C5.04869 9.13472 5.72998 8.92924 6.43013 8.90133C7.13028 8.87342 7.82597 9.02401 8.45089 9.33876C9.73927 9.91952 11.2053 9.97675 12.5357 9.49819C12.5314 9.41039 10.6381 8.66202 9.89987 7.94012C9.50548 7.55409 9.31826 7.36818 9.15236 7.22854C9.06271 7.15313 8.969 7.08261 8.87166 7.01727C8.8071 6.97351 8.7344 6.92613 8.6471 6.86927C7.85356 6.35697 6.27546 6.38512 6.22325 6.38652H6.2182C5.78704 5.84384 5.81736 4.05443 5.84206 3.68066C5.71451 3.73156 5.59275 3.79575 5.47883 3.87215C5.09821 4.14189 4.74239 4.44455 4.41554 4.77661C4.04174 5.15053 3.70015 5.55488 3.39435 5.98543V5.9871V5.98515C2.69491 6.96976 2.19881 8.08219 1.9347 9.25821C1.92937 9.28023 1.54284 10.9581 1.73344 11.8283Z" fill="url(#paint7_radial)"/>
<path d="M16.3493 7.56504C16.7465 7.95238 17.0867 8.39339 17.3599 8.87504C17.4197 8.91992 17.4755 8.96451 17.5229 9.00772C19.9895 11.2654 18.6971 14.4568 18.6008 14.6839C20.6045 13.0448 21.885 10.6207 21.5002 8.11859C20.2696 5.07214 18.1837 3.84436 16.4801 1.17084C16.394 1.03566 16.3078 0.900196 16.2239 0.757211C16.1759 0.675545 16.1374 0.601962 16.104 0.534232C16.0333 0.398369 15.9789 0.254784 15.9418 0.106391C15.9418 0.099543 15.9393 0.0929168 15.9348 0.087776C15.9302 0.0826353 15.9239 0.0793398 15.9171 0.0785182C15.9104 0.0766918 15.9033 0.0766918 15.8966 0.0785182C15.8952 0.0785182 15.8929 0.0810267 15.8912 0.0815842C15.8895 0.0821416 15.8859 0.0846502 15.8834 0.085765C15.4626 0.283938 12.9675 4.20698 16.3493 7.56504Z" fill="url(#paint8_radial)"/>
<path d="M17.5216 9.00675C17.4742 8.96355 17.4183 8.91895 17.3586 8.87408C17.3364 8.85763 17.3145 8.84119 17.2909 8.82474C16.5257 8.29843 15.5909 8.07305 14.6678 8.19232C18.5807 10.135 17.5309 16.825 12.108 16.5724C11.6252 16.5527 11.148 16.4613 10.6925 16.3012C10.586 16.2617 10.4795 16.2184 10.373 16.1713C10.3116 16.1435 10.2501 16.1156 10.1895 16.0844L10.197 16.0891C10.9532 16.6017 14.6882 17.854 18.5934 14.6955L18.5995 14.6816C18.6969 14.4558 19.9893 11.2636 17.5216 9.00675Z" fill="url(#paint9_radial)"/>
<path d="M7.62761 12.5484C7.62761 12.5484 8.12978 10.6901 11.2234 10.6901C11.5577 10.6901 12.5146 9.76336 12.5317 9.49467C11.2014 9.97323 9.73535 9.91601 8.44697 9.33524C7.82205 9.0205 7.12636 8.8699 6.42621 8.89781C5.72606 8.92572 5.04477 9.1312 4.44727 9.49467C4.67404 9.98171 5.0382 10.393 5.49561 10.6787C5.95302 10.9644 6.48406 11.1122 7.02438 11.1043C6.82284 12.8706 7.76318 14.9298 10.0394 16.0098C10.0902 16.0341 10.1379 16.0603 10.1901 16.0834C8.86157 15.4019 7.76459 14.1131 7.62761 12.5484Z" fill="url(#paint10_radial)"/>
<path d="M22.5786 7.55445C22.1059 6.42506 21.147 5.20564 20.3961 4.82017C20.9317 5.85009 21.3033 6.95617 21.4979 8.09908L21.4998 8.11719C20.2698 5.07213 18.1839 3.84436 16.4803 1.17084C16.3942 1.03566 16.308 0.900196 16.2241 0.757211C16.1761 0.675545 16.1376 0.601962 16.1042 0.534232C16.0335 0.398369 15.9791 0.254784 15.9419 0.106391C15.942 0.099543 15.9395 0.0929168 15.935 0.087776C15.9304 0.0826353 15.9241 0.0793398 15.9172 0.0785182C15.9105 0.0766918 15.9035 0.0766918 15.8968 0.0785182C15.8954 0.0785182 15.8931 0.0810267 15.8914 0.0815842C15.8897 0.0821416 15.8861 0.0846502 15.8836 0.085765L15.8878 0.0785182C13.1552 1.66724 12.228 4.60834 12.1427 6.07944C12.2695 6.0708 12.3953 6.06021 12.525 6.06021C13.4946 6.06198 14.4464 6.31866 15.2837 6.80417C16.121 7.28967 16.8138 7.98668 17.2918 8.82432C16.5266 8.298 15.5918 8.07263 14.6687 8.19189C18.5817 10.1346 17.5318 16.8245 12.109 16.572C11.6261 16.5523 11.149 16.4609 10.6934 16.3008C10.5869 16.2612 10.4804 16.2179 10.374 16.1709C10.3125 16.143 10.251 16.1152 10.1904 16.084L10.198 16.0887C10.1452 16.0636 10.0924 16.0375 10.0397 16.0104C10.0905 16.0346 10.1382 16.0608 10.1904 16.084C8.86183 15.4022 7.76485 14.1134 7.62787 12.5486C7.62787 12.5486 8.13005 10.6904 11.2236 10.6904C11.558 10.6904 12.5149 9.76361 12.532 9.49493C12.5278 9.40713 10.6345 8.65875 9.89622 7.93686C9.50183 7.55083 9.3146 7.36492 9.14871 7.22528C9.05905 7.14987 8.96535 7.07934 8.86801 7.014C8.62012 6.15245 8.60955 5.24064 8.83741 4.37365C7.83389 4.85638 6.9422 5.54068 6.21875 6.38325H6.2137C5.78255 5.84058 5.81286 4.05117 5.83756 3.6774C5.71001 3.7283 5.58826 3.79249 5.47434 3.86888C5.09372 4.13862 4.7379 4.44129 4.41104 4.77334C4.03858 5.14832 3.6984 5.5536 3.39406 5.98496V5.98663V5.98468C2.69463 6.96929 2.19853 8.08171 1.93442 9.25773L1.91982 9.32909C1.89933 9.42413 1.80754 9.90688 1.79435 10.0106C1.79435 10.0184 1.79435 10.0025 1.79435 10.0106C1.7104 10.5089 1.65678 11.0118 1.63379 11.5165V11.5723C1.63617 14.2771 2.66032 16.8826 4.50382 18.8739C6.34732 20.8652 8.87603 22.0974 11.5902 22.3269C14.3044 22.5564 17.0065 21.7666 19.1626 20.1136C21.3187 18.4605 22.7718 16.0645 23.2348 13.399C23.2531 13.2596 23.268 13.1217 23.2842 12.9809C23.5083 11.142 23.2657 9.27657 22.5786 7.55445ZM21.4993 8.10939L21.5012 8.12082L21.4993 8.10939Z" fill="url(#paint11_linear)"/>
</g>
<defs>
<linearGradient id="paint0_linear" x1="21.1386" y1="3.53024" x2="3.20166" y2="20.9587" gradientUnits="userSpaceOnUse">
<stop offset="0.048" stop-color="#FFF44F"/>
<stop offset="0.111" stop-color="#FFE847"/>
<stop offset="0.225" stop-color="#FFC830"/>
<stop offset="0.368" stop-color="#FF980E"/>
<stop offset="0.401" stop-color="#FF8B16"/>
<stop offset="0.462" stop-color="#FF672A"/>
<stop offset="0.534" stop-color="#FF3647"/>
<stop offset="0.705" stop-color="#E31587"/>
</linearGradient>
<radialGradient id="paint1_radial" cx="0" cy="0" r="1" gradientUnits="userSpaceOnUse" gradientTransform="translate(20.304 2.55091) scale(22.6798 22.52)">
<stop offset="0.129" stop-color="#FFBD4F"/>
<stop offset="0.186" stop-color="#FFAC31"/>
<stop offset="0.247" stop-color="#FF9D17"/>
<stop offset="0.283" stop-color="#FF980E"/>
<stop offset="0.403" stop-color="#FF563B"/>
<stop offset="0.467" stop-color="#FF3750"/>
<stop offset="0.71" stop-color="#F5156C"/>
<stop offset="0.782" stop-color="#EB0878"/>
<stop offset="0.86" stop-color="#E50080"/>
</radialGradient>
<radialGradient id="paint2_radial" cx="0" cy="0" r="1" gradientUnits="userSpaceOnUse" gradientTransform="translate(12.0167 11.7578) scale(22.6798 22.52)">
<stop offset="0.3" stop-color="#960E18"/>
<stop offset="0.351" stop-color="#B11927" stop-opacity="0.74"/>
<stop offset="0.435" stop-color="#DB293D" stop-opacity="0.343"/>
<stop offset="0.497" stop-color="#F5334B" stop-opacity="0.094"/>
<stop offset="0.53" stop-color="#FF3750" stop-opacity="0"/>
</radialGradient>
<radialGradient id="paint3_radial" cx="0" cy="0" r="1" gradientUnits="userSpaceOnUse" gradientTransform="translate(14.7508 -2.56028) scale(16.4306 16.3148)">
<stop offset="0.132" stop-color="#FFF44F"/>
<stop offset="0.252" stop-color="#FFDC3E"/>
<stop offset="0.506" stop-color="#FF9D12"/>
<stop offset="0.526" stop-color="#FF980E"/>
</radialGradient>
<radialGradient id="paint4_radial" cx="0" cy="0" r="1" gradientUnits="userSpaceOnUse" gradientTransform="translate(9.50809 17.6403) scale(10.7988 10.7228)">
<stop offset="0.353" stop-color="#3A8EE6"/>
<stop offset="0.472" stop-color="#5C79F0"/>
<stop offset="0.669" stop-color="#9059FF"/>
<stop offset="1" stop-color="#C139E6"/>
</radialGradient>
<radialGradient id="paint5_radial" cx="0" cy="0" r="1" gradientUnits="userSpaceOnUse" gradientTransform="translate(13.256 9.91237) rotate(-13.4994) scale(5.72326 6.65848)">
<stop offset="0.206" stop-color="#9059FF" stop-opacity="0"/>
<stop offset="0.278" stop-color="#8C4FF3" stop-opacity="0.064"/>
<stop offset="0.747" stop-color="#7716A8" stop-opacity="0.45"/>
<stop offset="0.975" stop-color="#6E008B" stop-opacity="0.6"/>
</radialGradient>
<radialGradient id="paint6_radial" cx="0" cy="0" r="1" gradientUnits="userSpaceOnUse" gradientTransform="translate(11.7303 1.62976) scale(7.76868 7.71396)">
<stop stop-color="#FFE226"/>
<stop offset="0.121" stop-color="#FFDB27"/>
<stop offset="0.295" stop-color="#FFC82A"/>
<stop offset="0.502" stop-color="#FFA930"/>
<stop offset="0.732" stop-color="#FF7E37"/>
<stop offset="0.792" stop-color="#FF7139"/>
</radialGradient>
<radialGradient id="paint7_radial" cx="0" cy="0" r="1" gradientUnits="userSpaceOnUse" gradientTransform="translate(17.8369 -3.26302) scale(33.1454 32.912)">
<stop offset="0.113" stop-color="#FFF44F"/>
<stop offset="0.456" stop-color="#FF980E"/>
<stop offset="0.622" stop-color="#FF5634"/>
<stop offset="0.716" stop-color="#FF3647"/>
<stop offset="0.904" stop-color="#E31587"/>
</radialGradient>
<radialGradient id="paint8_radial" cx="0" cy="0" r="1" gradientUnits="userSpaceOnUse" gradientTransform="translate(15.0429 -1.43342) rotate(83.9336) scale(24.1239 15.9421)">
<stop stop-color="#FFF44F"/>
<stop offset="0.06" stop-color="#FFE847"/>
<stop offset="0.168" stop-color="#FFC830"/>
<stop offset="0.304" stop-color="#FF980E"/>
<stop offset="0.356" stop-color="#FF8B16"/>
<stop offset="0.455" stop-color="#FF672A"/>
<stop offset="0.57" stop-color="#FF3647"/>
<stop offset="0.737" stop-color="#E31587"/>
</radialGradient>
<radialGradient id="paint9_radial" cx="0" cy="0" r="1" gradientUnits="userSpaceOnUse" gradientTransform="translate(11.5475 4.48701) scale(20.6933 20.5475)">
<stop offset="0.137" stop-color="#FFF44F"/>
<stop offset="0.48" stop-color="#FF980E"/>
<stop offset="0.592" stop-color="#FF5634"/>
<stop offset="0.655" stop-color="#FF3647"/>
<stop offset="0.904" stop-color="#E31587"/>
</radialGradient>
<radialGradient id="paint10_radial" cx="0" cy="0" r="1" gradientUnits="userSpaceOnUse" gradientTransform="translate(17.0095 5.68889) scale(22.6486 22.4891)">
<stop offset="0.094" stop-color="#FFF44F"/>
<stop offset="0.231" stop-color="#FFE141"/>
<stop offset="0.509" stop-color="#FFAF1E"/>
<stop offset="0.626" stop-color="#FF980E"/>
</radialGradient>
<linearGradient id="paint11_linear" x1="20.9216" y1="3.4377" x2="5.66294" y2="18.8043" gradientUnits="userSpaceOnUse">
<stop offset="0.167" stop-color="#FFF44F" stop-opacity="0.8"/>
<stop offset="0.266" stop-color="#FFF44F" stop-opacity="0.634"/>
<stop offset="0.489" stop-color="#FFF44F" stop-opacity="0.217"/>
<stop offset="0.6" stop-color="#FFF44F" stop-opacity="0"/>
</linearGradient>
<clipPath id="clip0">
<rect width="24.5385" height="22.8462" fill="white" transform="translate(0.230469 0.0771484)"/>
</clipPath>
</defs>
</svg>
