<svg xmlns="http://www.w3.org/2000/svg" xmlns:xlink="http://www.w3.org/1999/xlink" width="499" height="442" fill="none" xmlns:v="https://vecta.io/nano"><circle cx="241.786" cy="240.5" r="201.5" fill="#67344e"/><path d="M404.557 136.038c1.953-6.94 10.963-6.261 10.963-6.261l-.244 4.818c-5.211-.902-8.49 5.211-8.49 5.211l-2.229-3.768z" fill="#e0e0e0"/><path d="M458.352 184.867c-10.453 3.183-16.98-8.883-16.98-8.883l6.368-3.63c3.109 7.429 13.552 6.538 13.552 6.538l-2.94 5.975z" fill="#ebebeb"/><path d="M36.18 93.774h405.928c9.759 0 17.671 7.912 17.671 17.672v256.468c0 9.76-7.912 17.671-17.671 17.671H36.18c-9.759 0-17.671-7.911-17.671-17.671V111.446c0-9.76 7.912-17.672 17.671-17.672z" fill="#647c88"/><path d="M478.287 364.009H.146v3.942a21.59 21.59 0 0 0 6.323 15.265c4.049 4.049 9.54 6.323 15.265 6.323h434.902a21.59 21.59 0 0 0 21.589-21.588v-3.942h.061z" fill="#fff"/><path d="M31.584 105.369h416.345v246.426H31.584V105.369zm251.058 258.64l-5.931 9.436h-83.48l-5.518-9.436h94.929z" fill="#455a64"/><path d="M43.264 113.714h392.126a3.97 3.97 0 0 1 3.966 3.966v229.362a3.97 3.97 0 0 1-3.966 3.966H43.264c-2.19 0-3.966-1.776-3.966-3.966V117.68c0-2.19 1.776-3.966 3.966-3.966z" fill="#ebebeb"/><path d="M39.298 131.106h400.058V351.02H39.298V131.106z" fill="#fafafa"/><path d="M406.548 122.883c0 .633.188 1.253.54 1.78s.853.937 1.439 1.179a3.2 3.2 0 0 0 4.364-2.342c.123-.622.057-1.266-.187-1.851s-.656-1.084-1.184-1.435-1.149-.536-1.783-.533c-.419 0-.835.083-1.223.244s-.74.397-1.036.694a3.2 3.2 0 0 0-.691 1.039 3.18 3.18 0 0 0-.239 1.225h0zm19.356 0c0 .633.188 1.252.54 1.778a3.2 3.2 0 0 0 3.287 1.362 3.21 3.21 0 0 0 1.639-.876 3.2 3.2 0 0 0 .694-3.49c-.242-.585-.653-1.085-1.179-1.437a3.2 3.2 0 0 0-1.779-.539c-.849 0-1.664.337-2.264.937a3.2 3.2 0 0 0-.938 2.265h0zm-9.291 0a3.2 3.2 0 0 0 .541 1.78c.352.527.853.937 1.439 1.179s1.23.305 1.851.18a3.2 3.2 0 0 0 2.513-2.522c.122-.622.057-1.266-.187-1.851s-.657-1.084-1.185-1.435a3.2 3.2 0 0 0-1.782-.533c-.42 0-.836.083-1.223.244a3.2 3.2 0 0 0-1.037.694c-.296.298-.531.651-.69 1.039a3.2 3.2 0 0 0-.24 1.225h0z" fill="#263238"/><path d="M439.276 113.725l-399.048.187v237.185l399.048-.188V113.725z" fill="#fd3e72" style="mix-blend-mode:color"/><g opacity=".4" stroke="#08ae7e" stroke-width="12" stroke-linejoin="round"><path d="M253 315.5c43.907 0 79.5-35.593 79.5-79.5s-35.593-79.5-79.5-79.5-79.5 35.593-79.5 79.5 35.593 79.5 79.5 79.5z"/><path d="M226.5 236l17.667 17.667 35.333-35.334" stroke-linecap="round"/></g><g clip-path="url(#D)"><mask id="A" maskUnits="userSpaceOnUse" x="278" y="259.932" width="62" height="46" fill="#000"><path fill="#fff" d="M278 259.932h62v46h-62z"/><use xlink:href="#G"/></mask><use xlink:href="#G" fill="#111"/><path d="M329.944 301.446h-4v4h4v-4zm0-3.049h4v-10.912l-7.052 8.327 3.052 2.585zm-8.734 1.303l-3.785 1.292.044.129.052.125 3.689-1.546zm-.538-26.279v-4h-4v4h4zm5.187 0h4v-4h-4v4zm0 22.764h-4v.329l.053.325 3.947-.654zm4.11-1.426l3.26 2.318.74-1.041v-1.277h-4zm0-21.338v-4h-4v4h4zm5.186 0h4v-4h-4v4zm0 28.025v4h4v-4h-4zm-18.373-18.88l-2.835 2.821 6.835 6.869v-9.69h-4zm-1.614-6.638l-3.282 2.287.04.058.043.057 3.199-2.402zm-11.499 0l3.173 2.437.067-.087.062-.091-3.302-2.259zm-.073 23.035l3.282-2.286-.063-.091-.068-.087-3.151 2.464zm11.67 0l3.243 2.34.009-.011.008-.012-3.26-2.317zm1.467-16.446l2.836-2.822-6.836-6.868v9.69h4zm-9.492 10.62l3.985.351.015-.176v-.175h-4zm0-11.112h4v-.176l-.015-.175-3.985.351zm4.404 0l-3.985-.351-.015.175v.176h4zm-15.339 19.421v4h4v-4h-4zm-5.456 0h-4v4h4v-4zm0-15.242h4v-.593l-.172-.569-3.828 1.162zM284 263.932v-4h-5.529l1.73 5.251 3.799-1.251zm5.749 0l3.87-1.015-.783-2.985h-3.087v4zm3.841 14.651l-3.869 1.015 3.878 14.794 3.862-14.799-3.871-1.01zm3.817-14.627v-4h-3.091l-.78 2.99 3.871 1.01zm5.724 0l3.823 1.178 1.596-5.178h-5.419v4zm32 33.49h-5.187v8h5.187v-8zm-1.187 4v-3.049h-8v3.049h8zm-7.052-5.634c-.838.99-1.459 1.525-1.891 1.801a1.8 1.8 0 0 1-.406.205c-.063.02-.092.021-.106.021v8c3.632 0 6.37-2.333 8.507-4.856l-6.104-5.171zm-2.403 2.027c-.101 0-.115-.011-.069.001.052.014.144.049.249.118s.179.144.222.2c.04.051.036.061.009-.003l-7.379 3.091c.539 1.287 1.413 2.511 2.739 3.387s2.801 1.206 4.229 1.206v-8zm.507.57c-.118-.346-.324-1.193-.324-2.814h-8c0 2.263.283 4.022.753 5.397l7.571-2.583zm-.324-2.814v-22.174h-8v22.174h8zm-4-18.174h5.187v-8h-5.187v8zm1.187-4v22.764h8v-22.764h-8zm.053 23.418c.123.741.452 2.021 1.562 3.06 1.191 1.113 2.587 1.318 3.485 1.318v-8c.239 0 1.145.058 1.981.84.755.706.864 1.47.865 1.473l-7.893 1.309zm5.047 4.378c1.808 0 3.179-.855 4.059-1.608.869-.743 1.602-1.676 2.211-2.532l-6.521-4.635-.586.766c-.164.193-.264.287-.303.321s.032-.037.22-.122c.205-.093.524-.19.92-.19v8zm7.01-6.458v-21.338h-8v21.338h8zm-4-17.338h5.186v-8h-5.186v8zm1.186-4v28.025h8v-28.025h-8zm4 24.025h-.024v8h.024v-8zm-14.373-14.88c0-3.353-.603-6.624-2.415-9.039l-6.398 4.803c.291.387.813 1.59.813 4.236h8zm-2.332-8.924c-2.347-3.369-5.981-4.418-9.031-4.418v8c1.352 0 2.073.426 2.467.991l6.564-4.573zm-9.031-4.418c-3.414 0-6.758 1.095-9.051 4.446l6.603 4.517c.398-.582.87-.963 2.448-.963v-8zm-8.922 4.268c-1.869 2.433-2.467 5.785-2.467 9.074h8c0-2.611.528-3.832.812-4.201l-6.345-4.873zm-2.467 9.074v10.005h8v-10.005h-8zm0 10.005c0 3.246.508 6.417 2.415 8.856l6.302-4.928c-.246-.315-.717-1.273-.717-3.928h-8zm2.284 8.678c2.207 3.169 5.759 4.664 9.08 4.664v-8c-1.033 0-1.983-.472-2.516-1.236l-6.564 4.572zm9.08 4.664c3.353 0 6.869-1.497 9.115-4.61l-6.487-4.681c-.592.821-1.577 1.291-2.628 1.291v8zm9.132-4.633c1.69-2.377 2.207-5.443 2.207-8.709h-8c0 2.634-.461 3.699-.728 4.074l6.521 4.635zm2.207-8.709v-10.054h-8v10.054h8zm-6.835-7.233l.049.049 5.671-5.643-.049-.049-5.671 5.643zm-6.238 8.15c.042.473.026.775.004.937s-.04.104.06-.079c.114-.209.352-.514.755-.749s.763-.281.964-.281v8a5.91 5.91 0 0 0 5.297-3.126c.932-1.701 1.042-3.674.889-5.404l-7.969.702zm1.783-.172c.185 0 .546.044.948.278.409.237.651.548.768.764.102.187.084.252.062.081-.022-.165-.037-.472.005-.951l-7.969-.702c-.151 1.712-.054 3.686.874 5.392 1.11 2.043 3.106 3.138 5.312 3.138v-8zm1.798-.179v-11.112h-8v11.112h8zm-.015-11.463c-.043-.483-.026-.779-.007-.927s.033-.057-.089.159c-.14.249-.407.564-.82.791-.396.217-.73.247-.867.247v-8c-2.085 0-4.117.966-5.283 3.035-.965 1.712-1.053 3.7-.903 5.397l7.969-.702zm-1.783.27a1.88 1.88 0 0 1-.883-.251 2.09 2.09 0 0 1-.806-.775c-.12-.212-.109-.305-.089-.156s.037.435-.005.912l7.969.702c.151-1.715.051-3.701-.919-5.409-1.162-2.045-3.177-3.023-5.267-3.023v8zm-1.798.081v11.112h8v-11.112h-8zm-15.339 4.179v15.242h8v-15.242h-8zm4 11.242h-5.456v8h5.456v-8zm-1.456 4v-15.242h-8v15.242h8zm-4-15.242l3.828-1.162-.017-.054-2.979-9.78-3.883-12.528-7.598 2.503c.558 1.693 2.254 7.206 3.83 12.363l2.975 9.766c.006.018.01.031.012.04.005.014.005.014 3.832-1.148zM284 267.932h5.749v-8H284v8zm1.88-2.986l3.841 14.652 7.738-2.029-3.84-14.652-7.739 2.029zm11.581 14.647l3.816-14.627-7.741-2.02-3.816 14.627 7.741 2.02zm-.054-11.637h5.724v-8h-5.724v8zm1.902-5.178l-6.85 22.223 7.645 2.357 6.85-22.224-7.645-2.356z" fill="#fff8fa" mask="url(#A)"/><g fill="#e62117"><path d="M388.56 277.846c-.807 0-1.712.491-2.568 1.278v16.864c.807.836 1.712 1.229 2.544 1.229 1.468 0 2.079-1.032 2.079-3.81v-11.948c0-2.777-.66-3.589-2.103-3.589l.048-.024zm20.404 3.368c0-2.582-.661-3.344-2.3-3.344s-2.349.738-2.349 3.319v3.073h4.649v-3.024m11.229-14.258s-.807-5.654-3.254-8.186c-3.107-3.319-6.605-3.319-8.171-3.491-11.425-.811-28.574-.811-28.574-.811h-.049s-17.125 0-28.55.811c-1.59.197-5.088.197-8.195 3.491-2.447 2.507-3.23 8.186-3.23 8.186s-.831 6.687-.831 13.373v6.269c0 6.687.831 13.349.831 13.349s.783 5.703 3.23 8.211c3.107 3.294 7.192 3.196 9.002 3.515 6.532.639 27.767.836 27.767.836s17.199 0 28.624-.836c1.59-.197 5.064-.197 8.171-3.491 2.446-2.507 3.253-8.211 3.253-8.211s.783-6.662.783-13.373v-6.269c0-6.686-.807-13.373-.807-13.373h0zm-62.922 34.466h-5.456v-31.958h-5.749v-5.212h17.223v5.212h-5.994v31.958h-.024zm19.694 0h-5.187v-3.048c-1.957 2.31-3.67 3.441-5.455 3.441-1.615 0-2.691-.737-3.279-2.139-.293-.86-.538-2.163-.538-4.105v-21.928h5.187v22.543c.122.737.44 1.032 1.1 1.032.979 0 1.909-.909 3.01-2.458v-21.117h5.162v27.779zm18.837-8.309c0 2.556-.171 4.376-.489 5.556-.685 2.065-2.129 3.122-4.086 3.122-1.761 0-3.572-1.082-5.235-3.147v2.802h-4.942v-37.194h4.893v12.095c1.615-1.967 3.425-3.122 5.26-3.122 1.957 0 3.278 1.155 3.914 3.196.367 1.155.685 2.95.685 5.58v11.112zm10.911 4.105c1.223 0 1.957-.688 2.202-2.04.049-.246.049-1.475.049-3.491h5.186v.787c0 1.622-.122 2.777-.171 3.269-.171 1.131-.563 2.139-1.15 3.024-1.37 2.016-3.425 2.999-5.994 2.999s-4.525-.934-5.969-2.852c-1.052-1.401-1.712-3.441-1.712-6.391v-9.735c0-2.95.611-5.261 1.663-6.687 1.419-1.893 3.425-2.901 5.921-2.901s4.452.984 5.871 2.901c.979 1.426 1.59 3.589 1.59 6.564v5.728h-9.834v4.966c0 2.581.733 3.859 2.397 3.859h-.049z"/></g></g><g clip-path="url(#E)"><path d="M65 261h158v56H65v-56z" fill="#3b5998" stroke="#fff8fa" stroke-width="4"/><g fill="#fff"><path d="M148.275 288.758c-1.086 0-1.87.351-2.664.709v8.091c.761.072 1.197.072 1.919.072 2.608 0 2.965-1.177 2.965-2.82v-3.865c0-1.213-.408-2.187-2.22-2.187zm-17.319-.441c-1.809 0-2.223.978-2.223 2.19v.681h4.443v-.681c0-1.212-.413-2.19-2.22-2.19zm-33.551 8.422c0 .959.459 1.457 1.473 1.457 1.087 0 1.731-.349 2.525-.708v-1.92h-2.378c-1.125 0-1.62.207-1.62 1.171zm67.718-7.981c-1.813 0-2.441.974-2.441 2.187v4.428c0 1.216.628 2.193 2.441 2.193 1.807 0 2.44-.977 2.44-2.193v-4.428c0-1.213-.633-2.187-2.44-2.187zm-76.6 12.945h-5.327v-12.704h-2.662v-4.378h2.662v-2.629c0-3.571 1.503-5.695 5.773-5.695h3.555v4.379h-2.222c-1.663 0-1.772.611-1.772 1.753l-.007 2.192h4.026l-.471 4.378h-3.555v12.704zm18.208.033h-4.44l-.192-1.106c-2.028 1.106-3.837 1.285-5.031 1.285-3.256 0-4.99-2.143-4.99-5.107 0-3.497 2.022-4.745 5.641-4.745h3.683v-.756c0-1.784-.208-2.308-2.994-2.308h-4.555l.445-4.378h4.98c6.114 0 7.453 1.902 7.453 6.722v10.393zm15.1-12.416c-2.764-.467-3.557-.569-4.887-.569-2.388 0-3.109.519-3.109 2.517v3.779c0 1.998.721 2.519 3.109 2.519 1.33 0 2.123-.104 4.887-.573v4.271c-2.421.534-3.997.675-5.33.675-5.72 0-7.994-2.964-7.994-7.245v-3.067c0-4.284 2.274-7.253 7.994-7.253 1.333 0 2.909.141 5.33.678v4.268zm16.672 5.374h-9.77v.353c0 1.998.723 2.519 3.11 2.519 2.147 0 3.457-.104 6.215-.573v4.271c-2.66.534-4.046.675-6.656.675-5.721 0-7.996-2.964-7.996-7.245v-3.506c0-3.746 1.688-6.814 7.55-6.814s7.547 3.033 7.547 6.814v3.506zm17.319.081c0 4.138-1.2 7.155-8.472 7.155-2.626 0-4.166-.227-7.065-.666v-23.653l5.326-.875v8.273c1.151-.421 2.641-.635 3.997-.635 5.327 0 6.214 2.353 6.214 6.133v4.268zm17.073.09c0 3.57-1.496 7.032-7.754 7.032s-7.786-3.462-7.786-7.032v-3.446c0-3.572 1.524-7.034 7.786-7.034s7.754 3.462 7.754 7.034v3.446zm17.061 0c0 3.57-1.498 7.032-7.755 7.032s-7.785-3.462-7.785-7.032v-3.446c0-3.572 1.523-7.034 7.785-7.034s7.755 3.462 7.755 7.034v3.446zm17.509 6.838h-5.774l-4.882-8.03v8.03h-5.328v-24.092l5.328-.875v15.509l4.882-7.624h5.774l-5.331 8.32 5.331 8.762zm-25.282-12.945c-1.809 0-2.437.974-2.437 2.187v4.428c0 1.216.628 2.193 2.437 2.193s2.446-.977 2.446-2.193v-4.428c0-1.213-.639-2.187-2.446-2.187zm28.323 9.949a1.61 1.61 0 0 1 1.612 1.621c0 .914-.715 1.626-1.619 1.626-.898 0-1.628-.712-1.628-1.626 0-.9.73-1.621 1.628-1.621h.007zm-.007.252c-.722 0-1.314.613-1.314 1.369 0 .77.592 1.374 1.321 1.374.73.007 1.312-.604 1.312-1.367s-.582-1.376-1.312-1.376h-.007zm-.307 2.312h-.292v-1.808c.153-.021.3-.042.518-.042.278 0 .46.057.571.136s.166.201.166.373c0 .24-.16.382-.357.441v.014c.16.029.27.172.307.438.043.282.087.389.116.448h-.307c-.043-.059-.087-.224-.124-.462-.043-.229-.16-.316-.395-.316h-.203v.778zm0-1.001h.212c.24 0 .444-.086.444-.31 0-.158-.116-.317-.444-.317-.096 0-.162.007-.212.014v.613z"/></g></g><g clip-path="url(#F)"><path d="M310.63 176.293c-5.204 0-9.401 4.243-9.401 9.443h0a9.42 9.42 0 0 0 2.368 6.257l-.01.59c0 9.241 7.453 16.746 16.675 16.746 2.918 0 5.659-.755 8.042-2.077 2.284 2.391 5.417 3.969 8.921 4.232 1.702 3.293 5.122 5.56 9.092 5.56 3.321 0 6.264-1.591 8.133-4.046a9.36 9.36 0 0 0 6.253 2.385c3.917 0 7.262-2.396 8.692-5.791l.15.002c2.877 0 5.539-.925 7.713-2.48 2.338 1.297 5.026 2.034 7.878 2.034 9.004 0 16.296-7.342 16.296-16.372 0-.592-.031-1.176-.093-1.753 2.03-1.337 3.375-3.64 3.375-6.265 0-4.13-3.331-7.499-7.472-7.499-1.529 0-2.945.464-4.122 1.25-2.36-1.338-5.083-2.105-7.984-2.105-2.966 0-5.745.801-8.135 2.191-1.184-.72-2.574-1.143-4.072-1.143-.827 0-1.622.13-2.368.369-2.64-3.562-6.856-5.889-11.637-5.889-4.173 0-7.927 1.77-10.57 4.589a12.29 12.29 0 0 0-7.181-2.302 12.22 12.22 0 0 0-3.774.595c-1.201-3.391-4.422-5.829-8.224-5.829-4.053 0-6.311 2.39-7.446 4.59-.416.808-.694 1.603-.878 2.275a11.46 11.46 0 0 0-.589-.019 16.47 16.47 0 0 0-6.082 1.158 9.35 9.35 0 0 0-3.55-.696z" fill="#00aff0" stroke="#fff8fa" stroke-width="4"/><path d="M329.345 175.514c-1.572 0-2.606.898-2.606 2.621v16.373c-.846-2.494-3.751-3.486-6.248-4.063l-2.179-.502c-1.612-.357-2.786-.643-2.786-1.868 0-1.11 1.175-1.612 2.995-1.612 3.293 0 3.363 2.405 5.402 2.405 1.353 0 2.178-1.08 2.178-2.3 0-2.401-4.008-3.983-7.968-3.983-3.611 0-7.82 1.581-7.82 5.851 0 3.52 2.358 4.777 5.392 5.53l3.075.753c1.85.467 2.994.684 2.994 2.01 0 1.074-1.173 1.902-3.034 1.902-3.86 0-4.07-3.229-6.328-3.229-1.462 0-2.099 1.04-2.099 2.19 0 2.582 3.93 4.701 8.636 4.701 3.363 0 6.855-1.455 7.79-4.552v1.93c0 1.723 1.034 2.622 2.606 2.622s2.607-.899 2.607-2.622v-3.983l1.82-1.617 4.935 7.001c.388.573 1.064 1.221 2.357 1.221 1.393 0 2.457-1.221 2.457-2.551 0-.859-.358-1.437-.537-1.688l-5.422-7.323 3.851-4.053.417-.475.448 1.339 5.432 15.539c-.398 1.618-1.144 1.653-1.82 1.653h-.538c-1.393 0-2.397.718-2.397 2.119 0 1.256.965 2.401 3.283 2.401 3.293 0 4.716-1.863 5.972-5.454l5.859-16.695v19.532c0 1.723 1.035 2.617 2.606 2.617s2.606-.894 2.606-2.617v-7.001h.067c.967 1.688 2.756 2.657 5.144 2.657 4.467 0 6.986-3.107 7.769-6.966.875 3.683 3.81 6.966 9.741 6.966 3.133 0 8.18-1.472 8.18-4.63 0-.97-.899-2.05-2.151-2.05-2.098 0-2.098 2.586-6.029 2.586-3.045 0-4.824-2.008-4.824-4.775h11.791c1.75 0 2.287-.463 2.287-2.261 0-4.309-3.433-8.578-9.432-8.578-5.125 0-8.519 2.816-9.529 7.248-.899-4.909-4.221-7.248-7.943-7.248-2.533 0-4.646 1.079-5.502 3.3h-.067v-.824c0-1.613-.827-2.476-2.36-2.476-1.121 0-1.817.432-2.146 1.242-.368-.63-1.088-1.242-2.321-1.242-1.431 0-2.136 1.005-2.494 2.335l-3.185 11.879h-.07l-3.362-12.24c-.318-1.185-1.284-1.974-2.677-1.974-.975 0-1.82.533-2.238 1.349-.437-.802-1.343-1.349-2.188-1.349-.786 0-1.463.432-2 1.005l-5.79 6.463v-11.918c0-1.723-1.035-2.621-2.607-2.621h0zm64.457 7.446v.608h.987v2.692h.725v-2.692h.986v-.608h-2.698zm3.075 0v3.3h.677v-2.318l.817 2.318h.546l.808-2.34h.009v2.34h.677v-3.3h-1.015l-.725 2.269h-.01l-.769-2.269h-1.015zm-10.95 3.287c2.325 0 4.104 1.757 4.395 4.163h-9.142c.565-2.547 2.136-4.163 4.747-4.163zm-18.758.431c2.79.035 4.153 2.622 4.153 5.706 0 2.441-.827 5.78-4.153 5.815-3.171 0-4.177-3.123-4.177-5.815 0-2.979 1.146-5.745 4.177-5.706z" fill="#fff"/></g><mask id="B" maskUnits="userSpaceOnUse" x="57.815" y="174.597" width="173" height="38" fill="#000"><path fill="#fff" d="M57.815 174.597h173v38h-173z"/><use xlink:href="#H"/></mask><use xlink:href="#H" fill="#3cf"/><use xlink:href="#H" stroke="#fff8fa" stroke-width="6" mask="url(#B)"/><g filter="url(#C)"><rect x="347" y="22" width="145" height="124" rx="7" fill="#fff"/></g><circle cx="350" cy="27" r="27" fill="#fd3e72"/><path d="M334 17.356s2.338 18.59 6.18 22.772c4.618 5.018 7.963 4.284 9.82 6.872 1.862-2.591 5.21-1.854 9.825-6.875C363.667 35.942 366 17.352 366 17.352 358.724 9.807 350 7 350 7c-.175.176-8.653 3.087-16 10.356z" fill="#fff"/><path d="M336 18.799s2.045 15.8 5.405 19.357c4.037 4.271 6.968 3.644 8.597 5.843 1.63-2.2 4.559-1.573 8.598-5.843 3.36-3.557 5.4-19.357 5.4-19.357C356.69 11.425 350.002 10 350.002 10s-7.503 2.131-14.002 8.799z" fill="#ffaec4"/><path d="M347.999 26.422h-2.082c-.094 0-.166.083-.149.175l.009.06c.014.08.037.157.068.235a.84.84 0 0 0 .233.312c.103.092.249.135.435.135s.33-.046.436-.135c.083-.072.146-.152.195-.238.026-.046.078-.075.129-.075h.582c.106 0 .178.106.144.203a1.19 1.19 0 0 1-.095.209c-.066.117-.138.221-.218.306s-.163.158-.255.215-.178.103-.264.14a1.82 1.82 0 0 1-.659.123c-.304-.006-.574-.069-.809-.189a1.72 1.72 0 0 1-.295-.206c-.098-.083-.184-.189-.258-.315s-.135-.278-.181-.455-.069-.381-.069-.619a2.48 2.48 0 0 1 .069-.619 1.81 1.81 0 0 1 .181-.458c.074-.129.16-.235.258-.321s.195-.155.295-.209c.232-.126.499-.192.8-.203.264.011.493.063.708.155.092.04.184.095.276.16s.177.146.258.243.149.212.209.346a1.78 1.78 0 0 1 .132.464l.023.209.011.232c.003-.006.02.117-.117.117zm-.992-.564c.109 0 .186-.114.137-.212-.037-.074-.083-.14-.143-.2s-.129-.106-.209-.14a.73.73 0 0 0-.284-.052c-.109 0-.204.017-.284.052a.62.62 0 0 0-.209.14.74.74 0 0 0-.144.198v.003c-.048.1.029.215.138.215h.998v-.003z" fill="#a12b52"/><path d="M350.719 23h-1.458c-.349.008-.52.195-.52.547v4.544h1.703c.461 0 .817-.038 1.07-.105.974-.262 1.51-1.19 1.51-2.441 0-1.625-.699-2.546-2.305-2.546zm1.249 2.546c0 1.071-.357 1.625-1.383 1.625h-.825v-3.279h.959c.936 0 1.249.636 1.249 1.655zm4.641.407v2.071h-.447c-.29-.02-.434-.16-.434-.439v-1.811c-.02-.366-.217-.546-.606-.546s-.585.18-.592.546v2.251h-.888v-2.071c0-1.005.5-1.505 1.494-1.505s1.48.5 1.473 1.505zm.295.913h.894c.02.386.297.519.724.519.369 0 .553-.106.553-.333 0-.18-.303-.326-.902-.433-.769-.14-1.164-.486-1.171-1.039 0-.759.593-1.119 1.389-1.132.447 0 .802.1 1.065.3.257.206.395.493.415.859h-.553c-.204-.007-.335-.08-.388-.22-.059-.153-.237-.24-.526-.24-.342 0-.513.093-.513.273s.223.32.677.406c.592.12.981.273 1.171.453a.88.88 0 0 1 .244.626c0 .866-.671 1.185-1.592 1.185-.487 0-.856-.107-1.093-.313-.263-.2-.394-.506-.394-.912z" fill="#fd3e72"/><path d="M344.488 23.058c-.459 0-.829.369-.829.828v2.397a2.69 2.69 0 0 1-.017.306.77.77 0 0 1-.086.284.57.57 0 0 1-.206.215c-.092.058-.224.086-.39.086s-.298-.029-.39-.086a.56.56 0 0 1-.206-.215c-.046-.086-.075-.18-.086-.284a2.66 2.66 0 0 1-.018-.306v-2.471c-.458 0-.828.369-.828.828v1.641a2.94 2.94 0 0 1-.017.306.76.76 0 0 1-.086.283.57.57 0 0 1-.207.215c-.092.057-.223.086-.39.086s-.298-.029-.39-.086-.16-.129-.206-.215-.075-.18-.086-.283-.017-.206-.017-.306v-1.715a.83.83 0 0 0-.829.828v.888a2.48 2.48 0 0 0 .069.619c.046.177.103.329.172.458a1.23 1.23 0 0 0 .244.321 1.48 1.48 0 0 0 .281.209 1.61 1.61 0 0 0 .759.203 1.64 1.64 0 0 0 .769-.203c.094-.054.189-.123.278-.209l.069-.072.068.072a1.55 1.55 0 0 0 .281.209c.221.126.476.195.76.203a1.64 1.64 0 0 0 .769-.203c.094-.054.189-.123.278-.209s.172-.192.243-.321.129-.281.172-.458.063-.381.063-.619l.009-3.221zm11.388 6.069v-.002c.024-.01.044-.025.061-.045a.19.19 0 0 0 .034-.062.23.23 0 0 0 .01-.071c0-.063-.019-.111-.059-.144a.26.26 0 0 0-.171-.05h-.255v.795h.292a.31.31 0 0 0 .101-.016c.029-.01.053-.026.072-.046a.21.21 0 0 0 .042-.069c.01-.026.014-.056.014-.088 0-.052-.012-.095-.037-.13s-.059-.058-.104-.072zm-.242-.234h.09c.027 0 .049.004.066.012s.03.019.038.032.012.03.012.049-.006.039-.016.053-.023.025-.038.031-.033.009-.052.009h-.1v-.186zm.112.517h-.112v-.204h.114c.04 0 .07.009.092.028s.032.044.032.075a.1.1 0 0 1-.016.056c-.01.015-.026.026-.044.034s-.041.011-.066.011zm1.104.138h.472v-.14h-.335v-.184h.252v-.139h-.252v-.191h.314v-.141h-.451v.795zm1.455 0h.139v-.654h.196v-.141h-.529v.141h.194v.654zm1.549 0H360l-.263-.795h-.134l-.262.795h.146l.048-.159h.271l.048.159zm-.279-.293l.095-.312h.001l.094.312h-.19z" fill="#a12b52"/><path d="M337 9c.128.664.331.898 1 1-.643.105-.86.328-1 1-.15-.673-.359-.905-1-1 .665-.084.874-.312 1-1zm-3.243 27c.353 1.831.914 2.475 2.757 2.757-1.771.29-2.371.904-2.757 2.757-.414-1.855-.99-2.497-2.757-2.757 1.834-.232 2.409-.861 2.757-2.757zm27-19c.353 1.831.914 2.475 2.757 2.757-1.771.29-2.371.904-2.757 2.757-.414-1.855-.99-2.497-2.757-2.757 1.834-.232 2.409-.862 2.757-2.757zm5.365 17c.143.745.371 1.007 1.121 1.122-.72.118-.964.368-1.121 1.122-.169-.755-.403-1.016-1.122-1.122.746-.094.98-.351 1.122-1.122zm-9.561 11.561c.2 1.037.517 1.402 1.561 1.561-1.003.164-1.343.512-1.561 1.561-.234-1.05-.561-1.413-1.561-1.561 1.038-.131 1.364-.488 1.561-1.561zm1-40.561c.2 1.036.517 1.401 1.561 1.561-1.003.164-1.343.512-1.561 1.561-.234-1.05-.561-1.413-1.561-1.561 1.038-.131 1.364-.488 1.561-1.561z" fill="#fff"/><path d="M439.188 90.626h14.422c3.011 0 5.452-1.894 5.452-4.23v-41.77H380v41.77c0 2.336 2.441 4.23 5.453 4.23h53.735z" fill="#fff1f5"/><path d="M382.343 36h73.678a2.73 2.73 0 0 1 2.729 2.729v8.186h-79.136v-8.186A2.73 2.73 0 0 1 382.343 36h0z" fill="#fd3e72"/><g fill="#fff"><use xlink:href="#I"/><use xlink:href="#I" x="5.457"/><path d="M395.987 42.82c.753 0 1.364-.611 1.364-1.364s-.611-1.364-1.364-1.364-1.365.611-1.365 1.364.611 1.364 1.365 1.364zm57.305.003h-8.186c-.754 0-1.364-.611-1.364-1.364s.61-1.364 1.364-1.364h8.186c.754 0 1.365.611 1.365 1.364s-.611 1.364-1.365 1.364z"/></g><path d="M431.325 54.354v12.971l-12.365 4.946-12.365-4.946V54.354c.002-1.03.792-1.864 1.766-1.867h21.197c.975.003 1.764.837 1.767 1.867z" fill="#fd3e72"/><g fill="#fff"><use xlink:href="#J"/><use xlink:href="#J" x="13.795"/><path d="M419.766 62.242h-1.839a.92.92 0 0 1-.919-.92.92.92 0 0 1 .919-.92h1.839a.92.92 0 0 1 .92.92.92.92 0 0 1-.92.92z"/><use xlink:href="#K"/><path d="M413.33 66.839a.92.92 0 0 0 .919-.92.92.92 0 0 0-.919-.92.92.92 0 0 0-.92.92.92.92 0 0 0 .92.92z"/><use xlink:href="#K" x="8.277"/><use xlink:href="#K" x="5.518"/></g><path d="M437.783 77.728a2.41 2.41 0 0 1-.759 1.083c-.607.456-.898 1.247-.74 2.012a2.49 2.49 0 0 1-.348 1.974c-.461.695-1.242 1.079-2.047 1.006a2.27 2.27 0 0 1-1.742-1.094 2.5 2.5 0 0 1-.223-2.116 2.32 2.32 0 0 1 .201-.431l-13.161-5.03-13.162 5.03c.082.136.149.28.201.431.245.703.163 1.486-.223 2.116a2.27 2.27 0 0 1-1.742 1.094c-.805.073-1.586-.311-2.047-1.006a2.49 2.49 0 0 1-.348-1.974c.158-.766-.133-1.556-.74-2.012-.75-.597-1.074-1.616-.815-2.566s1.047-1.635 1.985-1.727c.762-.081 1.512.247 1.992.872.258.338.425.741.485 1.169l9.067-3.459-9.067-3.459c-.062.424-.229.824-.485 1.159-.48.625-1.23.953-1.992.872-.704-.074-1.336-.484-1.713-1.111a2.51 2.51 0 0 1-.216-2.099c.153-.428.415-.802.759-1.083.609-.455.9-1.247.74-2.012-.243-.998.149-2.047.974-2.605a2.2 2.2 0 0 1 2.666.141c.768.643 1.058 1.728.72 2.695a2.13 2.13 0 0 1-.201.441l.366.144 12.796 4.877 13.161-5.021a2.13 2.13 0 0 1-.201-.441c-.337-.967-.048-2.052.72-2.695a2.2 2.2 0 0 1 2.666-.141c.825.559 1.217 1.608.974 2.605-.16.766.131 1.557.74 2.012a2.46 2.46 0 0 1 .759 1.083c.24.697.161 1.472-.216 2.099s-1.009 1.037-1.713 1.111c-.762.081-1.511-.247-1.992-.872-.256-.335-.423-.735-.485-1.159L424.31 73.1l9.067 3.459c.06-.428.227-.831.485-1.169.481-.625 1.23-.953 1.992-.872.704.074 1.336.484 1.713 1.111s.456 1.402.216 2.099h0zM393.859 113h1.942v-3.404h1.552c.546 0 1.045-.062 1.49-.199.444-.129.827-.328 1.148-.594.322-.26.568-.602.745-1.012.171-.41.26-.882.26-1.422a4.05 4.05 0 0 0-.205-1.326 2.99 2.99 0 0 0-.615-1.046c-.274-.301-.636-.533-1.087-.697s-.964-.246-1.552-.246h-3.678V113zm1.942-5.147v-3.049h1.388c.56 0 .998.136 1.305.41s.465.649.465 1.114c0 .472-.164.841-.478 1.114s-.773.411-1.375.411h-1.305zm10.548-1.805a2.36 2.36 0 0 0-1.142.294c-.355.191-.663.471-.923.827h-.02v-1.005h-1.832V113h1.832v-3.172c0-.519.15-.95.458-1.285.307-.328.738-.499 1.285-.499l.485.02v-2.009c-.027 0-.075-.007-.143-.007zm7.526 3.473c0-.664-.144-1.258-.417-1.785a3.12 3.12 0 0 0-1.183-1.237c-.512-.301-1.1-.451-1.756-.451-.479 0-.93.089-1.347.26-.424.177-.779.417-1.08.724a3.3 3.3 0 0 0-.704 1.121c-.178.438-.26.916-.26 1.422 0 .697.15 1.32.458 1.86.308.546.731.963 1.265 1.251s1.128.43 1.797.43c.657 0 1.231-.116 1.737-.348.499-.233.902-.547 1.217-.944l-1.19-1.107c-.431.519-.977.779-1.634.772-.437 0-.813-.123-1.121-.355s-.512-.547-.622-.957h4.792c.028-.11.048-.328.048-.656zm-3.295-1.86c.383 0 .704.11.957.321.246.212.424.506.52.875h-3.015c.103-.382.287-.683.561-.888s.594-.308.977-.308zm8.805-1.497l-1.572 4.594h-.021l-1.606-4.594h-1.935l2.693 6.836h1.709l2.687-6.836h-1.955zm9.064 3.357c0-.664-.143-1.258-.417-1.785a3.12 3.12 0 0 0-1.182-1.237c-.513-.301-1.101-.451-1.757-.451-.479 0-.93.089-1.347.26-.424.177-.779.417-1.08.724a3.3 3.3 0 0 0-.704 1.121c-.178.438-.26.916-.26 1.422 0 .697.151 1.32.458 1.86a3.15 3.15 0 0 0 1.265 1.251c.533.287 1.128.43 1.798.43.656 0 1.23-.116 1.736-.348.499-.233.902-.547 1.217-.944l-1.19-1.107c-.43.519-.977.779-1.633.772-.438 0-.814-.123-1.122-.355s-.512-.547-.622-.957h4.792c.028-.11.048-.328.048-.656zm-3.295-1.86c.383 0 .704.11.957.321.246.212.424.506.52.875h-3.015c.103-.382.287-.683.561-.888s.595-.308.977-.308zm8.805-1.613c-.424 0-.827.089-1.21.26s-.711.417-.984.738h-.021v-.882h-1.832V113h1.832v-3.438c0-.595.137-1.053.417-1.381.28-.322.656-.486 1.135-.486.444 0 .772.13.991.383.212.26.321.697.321 1.326v3.603h1.832v-4.061c0-.512-.061-.957-.177-1.34-.123-.376-.294-.676-.52-.902-.225-.219-.485-.383-.779-.492s-.629-.164-1.005-.164zm6.364 7.068c.417 0 .759-.034 1.026-.109.259-.069.526-.178.786-.321l-.472-1.463c-.314.164-.601.239-.861.239-.219 0-.369-.068-.465-.212-.096-.137-.137-.362-.137-.663v-2.905h1.86v-1.518h-1.86v-2.434l-1.832.199v2.235h-.806v1.518h.806v3.158c0 .752.171 1.319.52 1.702s.827.574 1.435.574zM373.406 130h3.329c.787 0 1.504-.116 2.147-.362a4.43 4.43 0 0 0 1.613-1.012c.438-.438.773-.957 1.005-1.572.232-.609.356-1.279.356-2.01 0-.725-.124-1.401-.37-2.017s-.588-1.141-1.032-1.579-.991-.779-1.634-1.025-1.353-.369-2.126-.369h-3.288V130zm1.942-1.757v-6.426h1.387c.588 0 1.115.144 1.586.417.465.274.834.657 1.094 1.149s.397 1.046.397 1.661c0 .451-.082.875-.233 1.265-.15.396-.369.731-.642 1.018a2.92 2.92 0 0 1-1.012.67c-.403.164-.841.246-1.313.246h-1.264zm14.697-8.189v6.719h-.027l-4.423-6.719h-1.962V130h1.962v-6.59h.027l4.375 6.59h2.017v-9.946h-1.969zm7.144 10.062a4.86 4.86 0 0 0 .991-.102c.321-.069.635-.185.943-.349s.581-.355.814-.588a2.59 2.59 0 0 0 .56-.868c.137-.349.212-.731.212-1.155 0-.41-.068-.766-.191-1.08-.205-.493-.622-.91-1.238-1.251-.273-.144-.82-.376-1.647-.704l-.622-.247-.458-.225c-.151-.082-.267-.164-.342-.246-.082-.082-.144-.171-.185-.274-.047-.095-.068-.212-.068-.335 0-.307.116-.553.335-.731s.506-.267.861-.267c.643 0 1.368.328 2.167.978l1.135-1.484c-1.032-.847-2.146-1.264-3.35-1.25-.587.013-1.127.143-1.613.389-.492.246-.875.588-1.155 1.019-.287.437-.424.916-.424 1.435a2.86 2.86 0 0 0 .089.739 2.77 2.77 0 0 0 .239.608c.096.178.226.342.383.499s.314.294.479.403a4.45 4.45 0 0 0 .567.335l.608.274.643.239.649.239.472.226c.15.082.267.171.349.253.082.089.143.191.191.3a1.17 1.17 0 0 1 .068.39.95.95 0 0 1-.157.547c-.109.157-.266.28-.485.369-.219.096-.479.137-.786.137a2.41 2.41 0 0 1-.616-.075 2.95 2.95 0 0 1-.635-.226c-.212-.096-.424-.226-.636-.39a3.44 3.44 0 0 1-.588-.553l-1.183 1.456c.506.526 1.074.916 1.696 1.176a4.95 4.95 0 0 0 1.928.389zm8.879-.116h1.976v-3.883h4.067V130h1.983v-9.946h-1.983v4.306h-4.067v-4.306h-1.976V130zm10.924-7.8a1.11 1.11 0 0 0 .8-.328c.219-.219.335-.478.335-.793 0-.301-.116-.567-.335-.786a1.11 1.11 0 0 0-.8-.328 1.1 1.1 0 0 0-.806.328 1.08 1.08 0 0 0-.329.786c0 .205.048.397.151.567.096.171.232.308.41.404a1.13 1.13 0 0 0 .574.15zm-.916 7.8h1.832v-6.836h-1.832V130zm4.649-7.841c.307 0 .574-.109.799-.328.219-.219.335-.478.335-.793 0-.301-.116-.567-.335-.786-.225-.219-.492-.328-.799-.328-.315 0-.588.109-.807.328a1.08 1.08 0 0 0-.328.786c0 .205.048.397.15.567a1.02 1.02 0 0 0 .41.404c.178.102.37.15.575.15zm-1.08 10.726c.615 0 1.107-.212 1.469-.636s.547-1.032.547-1.839v-7.246h-1.832v7.171c0 .314-.061.554-.184.711-.123.164-.294.239-.513.239-.205 0-.41-.055-.609-.171l-.307 1.525a2.84 2.84 0 0 0 .656.191 4.22 4.22 0 0 0 .773.055zm8.688-9.721v.773h-.027c-.513-.588-1.183-.889-2.017-.889-.451 0-.882.089-1.278.266a3.15 3.15 0 0 0-1.026.732 3.44 3.44 0 0 0-.67 1.128c-.164.444-.246.923-.246 1.429a4.1 4.1 0 0 0 .246 1.442c.165.437.39.813.677 1.114s.636.54 1.039.704a3.33 3.33 0 0 0 1.313.253c.875 0 1.552-.314 2.044-.943h.034V130h1.743v-6.836h-1.832zm-1.654 5.312c-.52 0-.937-.171-1.265-.52-.328-.342-.485-.793-.485-1.347 0-.574.164-1.032.499-1.387a1.67 1.67 0 0 1 1.258-.527c.492 0 .902.185 1.23.547.328.369.492.82.492 1.367 0 .554-.171 1.005-.499 1.347-.335.349-.745.52-1.23.52zm8.422 1.64c.656 0 1.244-.109 1.763-.342.52-.225.944-.519 1.258-.888l-1.258-1.108c-.177.205-.403.369-.676.499s-.575.192-.91.192c-.547 0-.984-.171-1.326-.527-.342-.348-.506-.806-.506-1.367a2.11 2.11 0 0 1 .13-.759 1.63 1.63 0 0 1 .363-.594c.157-.164.348-.287.581-.383a1.87 1.87 0 0 1 .745-.144c.642 0 1.169.246 1.592.732l1.238-1.067c-.342-.423-.766-.745-1.285-.97a4.04 4.04 0 0 0-1.621-.342c-.697 0-1.319.15-1.866.444-.547.301-.977.718-1.278 1.251-.308.54-.458 1.155-.458 1.846s.15 1.306.451 1.839c.301.54.725.957 1.258 1.251s1.135.437 1.805.437zm7.109-2.837l1.627 2.721h2.044l-2.454-4.115 2.413-2.721h-2.147l-2.44 2.755h-.027v-6.228h-1.832V130h1.832v-1.634l.963-1.087h.021zm5.735-5.079c.308 0 .575-.109.8-.328.219-.219.335-.478.335-.793 0-.301-.116-.567-.335-.786-.225-.219-.492-.328-.8-.328a1.1 1.1 0 0 0-.806.328 1.08 1.08 0 0 0-.328.786c0 .205.047.397.15.567.096.171.232.308.41.404a1.13 1.13 0 0 0 .574.15zm-.916 7.8h1.832v-6.836h-1.832V130zm7.821-6.952c-.424 0-.828.089-1.21.26a2.76 2.76 0 0 0-.985.738h-.02v-.882h-1.832V130h1.832v-3.438c0-.595.137-1.053.417-1.381.28-.322.656-.486 1.135-.486.444 0 .772.13.991.383.212.26.321.697.321 1.326v3.603h1.832v-4.061c0-.512-.061-.957-.178-1.34-.123-.376-.294-.676-.519-.902a2.22 2.22 0 0 0-.779-.492c-.294-.109-.629-.164-1.005-.164zm9.085.116v.704h-.035a2.64 2.64 0 0 0-.929-.608c-.356-.137-.725-.212-1.115-.212-.601 0-1.148.15-1.626.444-.486.301-.862.711-1.135 1.237-.274.534-.404 1.128-.404 1.785s.137 1.237.417 1.75.67.909 1.163 1.189c.492.287 1.052.424 1.681.424.82 0 1.484-.267 1.989-.8h.035v.691a1.37 1.37 0 0 1-.506 1.086c-.342.288-.814.431-1.429.431-.41 0-.786-.055-1.135-.164-.355-.109-.717-.267-1.087-.472l-.423 1.545c.799.465 1.736.691 2.802.691.513 0 .971-.055 1.374-.178.404-.116.745-.28 1.019-.499.273-.212.499-.472.677-.779a3.51 3.51 0 0 0 .382-1.012 5.88 5.88 0 0 0 .117-1.203v-6.05h-1.832zm-1.648 5.052a1.9 1.9 0 0 1-.56-.075 1.64 1.64 0 0 1-.479-.233 1.44 1.44 0 0 1-.369-.362c-.109-.137-.191-.301-.246-.485a2.09 2.09 0 0 1-.082-.602c0-.513.157-.93.485-1.258.321-.321.738-.485 1.251-.485.492 0 .902.164 1.231.478.328.322.499.739.499 1.251 0 .52-.164.944-.486 1.272-.328.335-.738.499-1.244.499z" fill="#5b5863"/><defs><filter id="C" x="334" y="15" width="165" height="144" filterUnits="userSpaceOnUse" color-interpolation-filters="sRGB"><feFlood flood-opacity="0" result="A"/><feColorMatrix in="SourceAlpha" values="0 0 0 0 0 0 0 0 0 0 0 0 0 0 0 0 0 0 127 0"/><feOffset dx="-3" dy="3"/><feGaussianBlur stdDeviation="5"/><feColorMatrix values="0 0 0 0 0 0 0 0 0 0 0 0 0 0 0 0 0 0 0.25 0"/><feBlend in2="A"/><feBlend in="SourceGraphic"/></filter><clipPath id="D"><path fill="#fff" transform="translate(284 254)" d="M0 0h137v59H0z"/></clipPath><clipPath id="E"><path fill="#fff" transform="translate(63 259)" d="M0 0h162v60H0z"/></clipPath><clipPath id="F"><path fill="#fff" transform="translate(295 167)" d="M0 0h116v52H0z"/></clipPath><path id="G" d="M335.131 301.446h-5.187v-3.049c-1.957 2.311-3.67 3.442-5.455 3.442-1.615 0-2.691-.737-3.279-2.139-.293-.86-.538-2.163-.538-4.105v-22.174h5.187v22.764c.122.737.44 1.032 1.1 1.032.979 0 1.909-.909 3.01-2.458v-21.338h5.186v28.025h-.024zm-18.349-18.88c0-2.999-.562-5.236-1.614-6.638-1.37-1.966-3.548-2.704-5.749-2.704-2.496 0-4.404.738-5.75 2.704-1.076 1.402-1.639 3.688-1.639 6.638v10.005c0 2.95.49 5.015 1.566 6.392 1.37 1.967 3.621 2.95 5.798 2.95 2.202 0 4.453-.983 5.872-2.95.978-1.377 1.467-3.442 1.467-6.392v-10.054l.049.049zm-5.137 10.571c.244 2.778-.612 4.179-2.202 4.179-1.615 0-2.446-1.401-2.202-4.179v-11.112c-.244-2.778.587-4.081 2.202-4.081 1.59 0 2.446 1.303 2.202 4.081v11.112zm-15.339-6.933v15.242h-5.456v-15.242L284 263.932h5.749l3.841 14.651 3.817-14.627h5.724l-6.85 22.224"/><path id="H" d="M69.781 209.068c-3.241-.834-6.214-3.187-7.736-6.12-1.166-2.248-1.164-2.232-1.167-12.563-.138-8.937-.085-9.225.538-10.087 1.324-2.11 4.244-2.561 6.158-.951 1.344 1.131 1.451 1.515 1.451 5.214v3.208h5.646c3.454 0 5.975.068 6.493.174 2.947.604 4.065 3.971 2.019 6.079-.241.249-.738.606-1.104.795-.642.331-.88.345-6.86.392l-6.195.048v1.431c0 2.081.226 2.762 1.236 3.727 1.18 1.128 1.495 1.181 7.028 1.186 4.292.003 4.678.026 5.373.327 2.635 1.14 3.292 4.175 1.349 6.235-1.136 1.204-1.211 1.216-7.502 1.209-4.91-.005-5.709-.041-6.728-.304h0zm25.144.069c-2.558-.593-5.199-2.451-6.813-4.794-1.487-2.159-1.777-3.678-1.785-9.353-.007-4.894.096-5.51 1.081-6.479.912-.897 1.493-1.13 2.834-1.135 1.024-.004 1.283.058 1.991.477a4.21 4.21 0 0 1 1.317 1.259c.624 1.033.51 1.466.587 5.717.081 4.838.091 4.953.473 5.54 1.29 1.983 3.957 2.275 5.727.627 1.021-.951 1.117-1.51 1.117-6.507 0-4.109.019-4.385.351-5.017.666-1.267 1.63-1.938 3.055-2.124 1.526-.2 3.171.659 3.959 2.068.351.627.372.885.452 5.518-.029 3.854.161 4.982.541 5.522 1.218 1.756 3.776 2.133 5.373.793 1.145-.961 1.145-.957 1.239-6.327.081-4.61.103-4.88.451-5.506 1.463-2.628 5.167-2.794 6.777-.304 1.041 1.38.586 4.301.586 6.184.075 2.478-.077 5.655-.53 6.634-1.234 3.327-3.981 5.97-7.286 7.009-1.499.471-4.803.584-6.292.215-1.435-.356-2.677-.9-3.859-1.693l-.992-.665-.992.665c-1.199.804-2.414 1.349-3.741 1.678-1.237.307-4.292.306-5.622-.002h0zm34.54.023c-.757-.315-1.704-1.167-2.117-1.905-.362-.646-.365-.717-.365-8.837 0-7.813.015-8.214.327-8.814 1.295-2.496 4.639-3.058 6.667-1.12 1.261 1.205 1.257 1.175 1.203 10.191-.047 7.782-.054 7.941-.407 8.565-.464.821-1.308 1.588-2.088 1.899-.755.301-2.52.312-3.22.021h0zm17.453-.09c-3.697-.926-6.916-3.717-8.275-7.176-.733-1.866-.791-2.817-.736-12.058.052-8.524.059-8.673.412-9.298 1.761-3.12 6.583-2.725 7.628.624.177.566.245 1.592.245 3.681v2.897l3.95.058c3.652.053 4 .083 4.615.397 2.891 1.477 2.904 5.142.024 6.613-.646.329-.938.355-4.653.404l-3.963.053.055 1.855c.064 2.164.322 2.813 1.446 3.636.984.721 1.604.839 4.43.842 2.268.002 2.571.036 3.335.376 3.195 1.422 3.191 5.726-.005 7.114-.988.429-6.774.417-8.508-.018h0zm21.172.008c-4.188-1.095-7.626-4.457-8.711-8.518-.266-.999-.296-2.006-.297-10.168.064-8.472-.376-8.141.454-9.884.956-1.733 2.928-2.496 5.017-1.942.871.231 2.336 1.631 2.578 2.464.101.346.181 1.972.181 3.68l.001 3.059h3.387c3.879 0 4.909.138 5.843.779 2.024 1.39 2.07 4.503.087 5.876-.989.685-1.924.816-5.832.816h-3.485v1.439c0 1.896.228 2.693 1.013 3.546 1.071 1.162 1.468 1.273 4.905 1.368 2.992.083 3.011.086 3.825.566.932.55 1.794 1.765 1.961 2.765.242 1.447-.551 3.076-1.919 3.942l-.695.44-3.589.034c-3.063.03-3.754-.009-4.724-.262h0zm20.76.072c-2.431-.628-4.223-1.659-5.976-3.44-2.13-2.164-3.091-4.549-3.085-7.66.004-1.899.344-3.385 1.136-4.956.837-1.66 1.754-2.742 3.106-3.664 3.935-2.684 10.929-2.851 15.335-.368 1.577.889 3.216 2.572 4.016 4.121 1.615 3.131 1.453 5.968-.396 6.89-.639.319-.937.334-7.691.377l-7.027.045v.417c0 .65 1.083 1.531 2.275 1.85.813.218 1.793.266 5.469.267 2.488 0 4.747.071 5.081.16 2.863.76 3.437 4.384.918 5.795-.816.527-1.308.394-6.523.391-4.324-.008-6.019-.065-6.638-.225h0zm7.312-14.109c-.313-1.003-1.211-1.597-2.852-1.887-1.747-.308-4.188.382-4.659 1.317-.207.412-.405.881-.405.881s1.453.047 4.03.047h3.997l-.111-.358zm12.55 14.038c-.857-.445-1.77-1.478-1.987-2.25-.127-.451-.168-2.216-.126-5.453.061-4.715.068-4.805.517-6.091 1.181-3.388 4.338-6.198 8.011-7.13 1.35-.342 7.583-.506 8.943-.235 1.888.376 3.114 1.769 3.114 3.535 0 1.507-.716 2.672-2.058 3.35-.632.319-.994.353-4.594.43-3.732.08-3.936.101-4.535.457-.791.469-1.368 1.194-1.601 2.011-.11.384-.182 2.279-.183 4.777-.001 4.14-.001 4.141-.433 4.97a3.51 3.51 0 0 1-1.206 1.341c-.679.449-.925.517-2.02.554-.981.034-1.375-.023-1.842-.266h0zm-79.451-24.105c-2.64-1.258-3.12-4.579-.927-6.418.854-.717 1.541-.959 2.724-.959 1.654 0 2.939.739 3.683 2.117 1.776 3.295-1.998 6.918-5.48 5.26h0z"/><path id="I" d="M385.072 42.82c.754 0 1.365-.611 1.365-1.364s-.611-1.364-1.365-1.364-1.364.611-1.364 1.364.611 1.364 1.364 1.364z"/><path id="J" d="M411.95 62.241a2.3 2.3 0 0 0 2.299-2.299 2.3 2.3 0 0 0-2.299-2.299 2.3 2.3 0 0 0-2.299 2.299 2.3 2.3 0 0 0 2.299 2.299z"/><path id="K" d="M416.088 66.839a.92.92 0 0 0 .92-.92.92.92 0 0 0-.92-.92.92.92 0 0 0-.919.92.92.92 0 0 0 .919.92z"/></defs></svg>