<svg width="43" height="53" viewBox="0 0 43 53" fill="none" xmlns="http://www.w3.org/2000/svg">
<rect y="32.4531" width="32.1251" height="42.1642" rx="2" transform="rotate(-90 0 32.4531)" fill="#FD3E72"/>
<rect x="1.84106" y="30.2744" width="28.1094" height="38.1485" rx="1" transform="rotate(-90 1.84106 30.2744)" fill="#FFF1F5"/>
<circle cx="21.0825" cy="16.4732" r="6.27443" fill="#FD3E72"/>
<path d="M24.4928 12.5518C23.88 12.5518 23.3859 13.07 23.3859 13.7128V17.0755C23.3859 17.2161 23.3783 17.3567 23.363 17.5053C23.3476 17.65 23.3093 17.7825 23.2481 17.9031C23.1868 18.0236 23.0949 18.124 22.9723 18.2044C22.8497 18.2847 22.6736 18.3249 22.4514 18.3249C22.2293 18.3249 22.0531 18.2847 21.9305 18.2044C21.808 18.124 21.716 18.0236 21.6548 17.9031C21.5935 17.7825 21.5552 17.65 21.5399 17.5053C21.5245 17.3607 21.5169 17.2161 21.5169 17.0755V13.6084C20.9041 13.6084 20.41 14.1266 20.41 14.7694V17.0714C20.41 17.212 20.4024 17.3527 20.387 17.5013C20.3717 17.6459 20.3334 17.7785 20.2721 17.899C20.2108 18.0196 20.1189 18.12 19.9964 18.2004C19.8738 18.2807 19.6976 18.3209 19.4755 18.3209C19.2533 18.3209 19.0772 18.2807 18.9546 18.2004C18.832 18.12 18.7401 18.0196 18.6788 17.899C18.6176 17.7785 18.5793 17.6459 18.5639 17.5013C18.5486 17.3567 18.541 17.212 18.541 17.0714V14.665C17.9282 14.665 17.4341 15.1872 17.4341 15.826V17.0714C17.4341 17.4009 17.4647 17.6901 17.526 17.9392C17.5873 18.1883 17.6639 18.4012 17.7558 18.582C17.8516 18.7628 17.9588 18.9114 18.0814 19.032C18.2039 19.1525 18.3303 19.2489 18.4567 19.3253C18.7516 19.502 19.0925 19.5984 19.4717 19.6105C19.8585 19.5984 20.1994 19.502 20.4981 19.3253C20.6245 19.2489 20.7509 19.1525 20.8696 19.032C20.9003 18.9998 20.9309 18.9677 20.9615 18.9315C20.9922 18.9677 21.0228 18.9998 21.0535 19.032C21.176 19.1525 21.3024 19.2489 21.4288 19.3253C21.7237 19.502 22.0646 19.5984 22.4438 19.6105C22.8306 19.5984 23.1715 19.502 23.4702 19.3253C23.5966 19.2489 23.723 19.1525 23.8417 19.032C23.9643 18.9114 24.0715 18.7628 24.1673 18.582C24.263 18.4012 24.3396 18.1883 24.3971 17.9392C24.4545 17.6901 24.4813 17.4049 24.4813 17.0714L24.4928 12.5518Z" fill="white"/>
<ellipse cx="28.4329" cy="41.3547" rx="5.37313" ry="4.77612" fill="#FD3E72"/>
<ellipse cx="15.2984" cy="41.3547" rx="5.37313" ry="4.77612" fill="#FD3E72"/>
<path d="M36.1767 47.9286L36.1011 47.1792L35.4275 40.5206C35.2849 39.1143 34.6 37.8091 33.5063 36.8596C32.4126 35.91 30.9885 35.3841 29.5115 35.3843H14.2187C12.7417 35.3841 11.3175 35.91 10.2238 36.8596C9.1301 37.8091 8.44522 39.1143 8.30267 40.5206L7.55585 47.9286C7.50247 48.4563 7.56495 48.9889 7.73928 49.4922C7.91361 49.9954 8.19595 50.4583 8.5682 50.8511C8.94044 51.2439 9.39437 51.558 9.9009 51.7732C10.4074 51.9883 10.9554 52.0999 11.5096 52.1007C12.1182 52.1009 12.7187 51.9676 13.2649 51.711C13.8112 51.4544 14.2886 51.0813 14.6604 50.6205L17.4452 47.1675H26.2899L29.0673 50.6088C29.4391 51.0696 29.9165 51.4427 30.4628 51.6993C31.009 51.956 31.6095 52.0893 32.2181 52.089C32.7716 52.0887 33.319 51.9779 33.8252 51.7638C34.3314 51.5496 34.7853 51.2367 35.1579 50.8451C35.5305 50.4535 35.8135 49.9919 35.989 49.4897C36.1644 48.9875 36.2284 48.4558 36.1767 47.9286ZM14.143 37.4668C14.143 37.3882 14.1757 37.3128 14.2338 37.2572C14.2919 37.2016 14.3708 37.1703 14.453 37.1703H16.4494C16.5316 37.1703 16.6104 37.2016 16.6686 37.2572C16.7267 37.3128 16.7593 37.3882 16.7593 37.4668V39.3579L15.4512 40.6093L14.143 39.3579V37.4668ZM11.4828 42.5144C11.4006 42.5144 11.3217 42.4832 11.2636 42.4276C11.2055 42.372 11.1728 42.2966 11.1728 42.2179V40.3081C11.1728 40.2295 11.2055 40.1541 11.2636 40.0985C11.3217 40.0429 11.4006 40.0116 11.4828 40.0116H13.4621L14.7703 41.263L13.4621 42.5121L11.4828 42.5144ZM16.7593 45.0663C16.7593 45.1449 16.7267 45.2203 16.6686 45.2759C16.6104 45.3315 16.5316 45.3628 16.4494 45.3628H14.453C14.3708 45.3628 14.2919 45.3315 14.2338 45.2759C14.1757 45.2203 14.143 45.1449 14.143 45.0663V43.1752L15.4512 41.9238L16.7593 43.1752V45.0663ZM19.7295 42.2249C19.7295 42.3036 19.6969 42.379 19.6388 42.4346C19.5806 42.4902 19.5018 42.5214 19.4196 42.5214H17.4427L16.1346 41.27L17.4427 40.0186H19.4196C19.5018 40.0186 19.5806 40.0499 19.6388 40.1055C19.6969 40.1611 19.7295 40.2365 19.7295 40.3152V42.2249ZM25.5284 42.7316C25.2233 42.7316 24.9251 42.645 24.6715 42.4829C24.4178 42.3208 24.2201 42.0903 24.1034 41.8207C23.9866 41.5511 23.9561 41.2544 24.0156 40.9682C24.0751 40.6819 24.222 40.419 24.4377 40.2127C24.6534 40.0063 24.9283 39.8658 25.2275 39.8089C25.5267 39.7519 25.8368 39.7812 26.1187 39.8928C26.4005 40.0045 26.6414 40.1936 26.8109 40.4363C26.9804 40.6789 27.0709 40.9642 27.0709 41.256C27.0702 41.6472 26.9075 42.0221 26.6184 42.2987C26.3293 42.5753 25.9373 42.7309 25.5284 42.7316ZM28.6304 45.699C28.3253 45.699 28.0271 45.6124 27.7735 45.4503C27.5198 45.2882 27.3221 45.0577 27.2054 44.7881C27.0886 44.5185 27.0581 44.2218 27.1176 43.9356C27.1771 43.6494 27.324 43.3864 27.5397 43.1801C27.7554 42.9737 28.0303 42.8332 28.3295 42.7763C28.6287 42.7193 28.9388 42.7485 29.2207 42.8602C29.5025 42.9719 29.7434 43.161 29.9129 43.4037C30.0824 43.6463 30.1729 43.9316 30.1729 44.2234C30.1732 44.4175 30.1335 44.6097 30.0562 44.7892C29.9789 44.9686 29.8653 45.1317 29.7221 45.2691C29.5789 45.4066 29.4088 45.5157 29.2214 45.5902C29.0341 45.6648 28.8333 45.7033 28.6304 45.7036V45.699ZM28.6304 39.7642C28.3253 39.7642 28.0271 39.6776 27.7735 39.5155C27.5198 39.3534 27.3221 39.1229 27.2054 38.8533C27.0886 38.5837 27.0581 38.287 27.1176 38.0008C27.1771 37.7146 27.324 37.4516 27.5397 37.2453C27.7554 37.0389 28.0303 36.8984 28.3295 36.8415C28.6287 36.7845 28.9388 36.8138 29.2207 36.9254C29.5025 37.0371 29.7434 37.2262 29.9129 37.4689C30.0824 37.7115 30.1729 37.9968 30.1729 38.2886C30.1735 38.4829 30.1341 38.6754 30.0569 38.8551C29.9797 39.0348 29.8662 39.1981 29.723 39.3358C29.5797 39.4735 29.4095 39.5829 29.222 39.6576C29.0345 39.7323 28.8335 39.7709 28.6304 39.7712V39.7642ZM31.7324 42.7316C31.4273 42.7316 31.1291 42.645 30.8755 42.4829C30.6218 42.3208 30.4241 42.0903 30.3074 41.8207C30.1906 41.5511 30.1601 41.2544 30.2196 40.9682C30.2791 40.6819 30.426 40.419 30.6417 40.2127C30.8574 40.0063 31.1323 39.8658 31.4315 39.8089C31.7307 39.7519 32.0408 39.7812 32.3227 39.8928C32.6045 40.0045 32.8454 40.1936 33.0149 40.4363C33.1844 40.6789 33.2749 40.9642 33.2749 41.256C33.2742 41.6472 33.1115 42.0221 32.8224 42.2987C32.5332 42.5753 32.1413 42.7309 31.7324 42.7316Z" fill="white"/>
</svg>
