<svg width="84" height="92" viewBox="0 0 84 92" fill="none" xmlns="http://www.w3.org/2000/svg">
<ellipse cx="71.4298" cy="12.1572" rx="4.40298" ry="4.8922" transform="rotate(37.0278 71.4298 12.1572)" fill="white"/>
<path d="M76.0569 6.08078C75.132 5.39228 74.091 4.87901 72.9933 4.5703C71.8957 4.26159 70.7628 4.16348 69.6596 4.28157C68.5563 4.39965 67.5041 4.73163 66.5632 5.25854C65.6223 5.78544 64.811 6.49697 64.1757 7.35247C61.5039 10.9447 60.3493 27.2262 60.3493 27.2262C60.3493 27.2262 75.5869 21.4346 78.262 17.8379C78.8974 16.9824 79.3444 15.9997 79.5774 14.9459C79.8105 13.892 79.825 12.7877 79.6202 11.6959C79.4155 10.6042 78.9954 9.54639 78.384 8.58293C77.7726 7.61948 76.9819 6.76925 76.0569 6.08078ZM69.0477 15.5136C68.3799 15.0168 67.8631 14.348 67.5625 13.5918C67.262 12.8355 67.1912 12.0258 67.3592 11.265C67.5272 10.5043 67.9264 9.82659 68.5063 9.31771C69.0862 8.80882 69.8208 8.49158 70.6171 8.4061C71.4135 8.32062 72.2359 8.47074 72.9803 8.83749C73.7247 9.20423 74.3577 9.77113 74.7992 10.4665C75.2408 11.1618 75.471 11.9544 75.4609 12.744C75.4507 13.5336 75.2006 14.2847 74.7422 14.9024C74.1281 15.73 73.1839 16.2596 72.1171 16.3749C71.0503 16.4902 69.9481 16.1817 69.0526 15.5173L69.0477 15.5136Z" fill="#FD3E72"/>
<mask id="mask0" mask-type="alpha" maskUnits="userSpaceOnUse" x="0" y="4" width="77" height="88">
<rect y="4.5376" width="76.6475" height="86.9531" fill="#C4C4C4"/>
</mask>
<g mask="url(#mask0)">
<path d="M38.1283 86.8639C59.1859 86.8639 76.2565 69.7933 76.2565 48.7357C76.2565 27.678 59.1859 10.6074 38.1283 10.6074C17.0706 10.6074 0 27.678 0 48.7357C0 69.7933 17.0706 86.8639 38.1283 86.8639Z" fill="#FFD3DF"/>
<path d="M70.2671 66.8508C70.2671 66.8508 69.2996 67.0114 69.1391 67.0658C68.9785 67.1203 68.5485 67.1733 68.3866 67.338C68.2247 67.5026 68.1716 67.2849 67.6341 67.4455C67.0967 67.606 66.9361 67.4985 67.2586 66.908C67.5811 66.3174 67.3661 66.1555 67.3116 65.7255C67.2572 65.2956 67.9022 65.0275 66.8286 64.9731C65.755 64.9186 65.7006 64.7009 64.9481 65.1336C64.1956 65.5663 63.6051 65.9936 63.6051 65.9936L62.8526 65.5636C62.8526 65.5636 61.9927 64.6506 61.8321 64.5962C61.5655 64.5566 61.2961 64.5389 61.0266 64.5431C60.9337 64.211 60.9156 63.8625 60.9735 63.5226C61.081 63.0395 60.9204 62.8776 60.5979 63.0395C60.2755 63.2014 59.6849 63.5226 59.6849 63.5226C59.6849 63.5226 58.7174 63.63 58.1269 63.9525C57.5364 64.275 57.4819 64.49 56.5158 64.3825C55.5497 64.275 55.4953 65.135 54.7469 64.6547C53.9985 64.1743 53.6189 64.0097 53.2964 63.6341C52.9739 63.2586 52.7589 63.4736 52.8664 64.0423C52.9739 64.6111 53.672 64.4995 52.9467 64.7404C52.2215 64.9812 51.8459 64.6329 51.9793 65.4656C52.1126 66.2984 52.1398 66.8617 51.899 66.8617C51.6581 66.8617 51.0921 66.244 51.5234 65.7065C51.9548 65.169 51.5506 64.8737 51.5506 64.8737C51.5506 64.8737 51.7384 64.4655 52.0078 64.4165C52.2772 64.3676 52.4909 63.7716 51.9806 63.8518C51.4703 63.9321 51.4976 63.6913 51.3629 64.1471C51.2281 64.603 51.1207 64.7118 50.6104 64.8452C50.1001 64.9785 50.0457 64.8452 49.6701 65.1173C49.2946 65.3894 49.6701 65.4929 49.1054 65.4929C48.5408 65.4929 48.3802 65.6534 48.3802 66.0834C48.3802 66.5134 48.1924 66.5406 47.9502 66.8087C47.708 67.0767 47.6549 67.1311 47.4672 67.3461C47.3556 67.4627 47.289 67.6151 47.2794 67.7761C47.2522 67.8836 47.0372 67.9367 46.9038 67.8836C46.7705 67.8305 46.5813 67.5883 46.0983 67.2659C45.6152 66.9434 45.2928 66.8087 44.7281 66.8087C44.1634 66.8087 43.6803 67.9639 42.902 67.587C42.1237 67.2101 42.204 67.1298 41.7468 66.8345C41.2896 66.5392 41.4243 66.4848 41.3386 66.082C41.2528 65.6793 41.0964 65.6248 41.3113 65.3037C41.5263 64.9826 41.5535 64.7662 41.5263 64.0954C41.4991 63.4246 42.0094 62.5102 41.5263 62.2421C41.0433 61.9741 42.091 61.9196 40.5589 61.8666C39.0267 61.8135 39.3234 61.491 38.3028 61.6516C37.2823 61.8122 36.7176 61.9469 36.4223 61.9237C36.1271 61.9006 35.6699 61.7877 36.2073 61.306C36.7448 60.8243 36.9326 61.1454 36.9054 60.5276C36.8782 59.9099 36.6632 59.4268 36.9857 59.6146C37.3082 59.8024 37.5231 59.5071 37.7381 59.2391C37.9531 58.971 37.3884 58.4063 37.9531 57.9505C38.5178 57.4946 39.0009 57.2252 38.1409 57.2252C37.2809 57.2252 37.9803 56.817 36.8523 56.93C35.7243 57.0429 35.7515 56.983 35.6971 57.3382C35.6427 57.6933 34.8371 57.0157 35.214 57.8756C35.5909 58.7356 35.6222 59.1642 35.2671 59.2187C34.96 59.2428 34.6549 59.2883 34.3541 59.3547C33.5213 59.5153 33.0111 60.1072 32.7961 59.7044C32.5811 59.3017 32.9321 59.1942 32.313 59.1942C31.6939 59.1942 31.615 59.4364 31.4 58.6036C31.185 57.7709 30.272 57.0184 30.6747 57.0184C31.0775 57.0184 31.0244 56.5884 30.8353 56.1326C30.6462 55.6767 30.6992 55.0576 30.6992 54.5746C30.6992 54.0915 30.672 53.2588 31.0217 53.554C31.3714 53.8493 31.3973 53.6615 31.3973 53.1458C31.3973 52.6301 30.9673 52.2859 31.2898 51.83C31.6123 51.3742 31.2626 51.4001 31.9606 51.132C32.6586 50.8639 32.4436 50.8367 33.143 50.8095C33.8424 50.7823 33.8152 50.917 34.0833 50.6217C34.3513 50.3265 34.1105 49.7618 34.4588 50.057C34.8072 50.3523 34.6194 50.272 35.3447 50.2176C36.0699 50.1632 36.4727 50.4598 36.553 49.9087C36.6332 49.3576 36.338 49.3046 37.1979 49.2501C38.0579 49.1957 38.4607 49.1426 38.8308 49.1699C39.2009 49.1971 39.239 48.9277 39.3138 49.3849C39.3887 49.8421 39.8241 49.657 40.1466 49.5998C40.4691 49.5427 40.4963 49.1168 40.7916 49.3849C41.0868 49.6529 41.7318 49.9495 41.8665 50.2707C42.0012 50.5918 42.1387 50.7279 42.0026 51.2381C41.8665 51.7484 41.5944 51.9362 41.9223 52.2056C42.2502 52.475 42.4053 52.3417 42.4326 52.7431C42.4598 53.1445 42.7823 53.4955 42.8081 53.6833C42.834 53.8711 43.2653 54.0058 43.3987 53.9555C43.532 53.9051 44.0967 53.4452 43.6939 52.0219C43.2912 50.5986 43.5334 50.5442 43.3442 49.7659C43.1551 48.9875 43.0217 48.9059 43.5048 48.2078C43.9878 47.5098 44.0953 47.2676 44.66 46.9995C45.2247 46.7315 45.4125 46.5696 45.8425 45.9246C46.2725 45.2796 46.6752 45.0646 47.2127 44.8238C47.7502 44.5829 47.293 44.5149 47.3066 44.2468C47.3202 43.9788 47.6685 44.1108 47.8971 43.9652C48.1257 43.8196 48.3054 43.7774 48.1788 43.557C48.0523 43.3365 47.7488 43.61 47.7896 43.4359C47.8305 43.2617 48.3938 42.9528 48.2468 42.7909C48.0999 42.629 47.8971 42.5623 47.6155 42.7106C47.3338 42.8589 47.0385 42.7637 47.1583 42.5895C47.278 42.4153 47.4672 42.6834 47.4141 42.1459C47.361 41.6084 46.9977 40.9376 47.1719 40.6491C47.3461 40.3607 47.4005 40.1049 47.4277 40.9213C47.4549 41.7377 47.3474 42.5732 47.723 42.331C48.0985 42.0888 48.421 41.8874 48.2196 41.4043C48.0182 40.9213 47.7094 40.6655 48.0836 40.8274C48.4578 40.9893 48.3788 41.5254 48.6605 41.2029C48.9422 40.8805 49.3327 40.5308 49.0905 40.2627C48.8483 39.9946 49.0374 39.6858 49.0497 39.5102C49.0619 39.3347 48.768 39.0939 49.2102 39.0802C49.6525 39.0666 50.0566 39.3225 50.258 38.9442C50.4593 38.5659 50.6335 38.4611 50.3382 38.5006C50.043 38.5401 49.7069 38.7959 49.5218 38.7428C49.3368 38.6897 49.8579 38.4067 50.3001 38.3264C50.7424 38.2461 50.3274 38.125 50.7573 38.1114C51.1873 38.0978 51.6976 38.2189 51.7098 37.9373C51.7221 37.6556 51.3207 37.3467 51.1656 37.4406C51.0104 37.5345 50.8934 37.4406 50.9097 37.1848C50.9261 36.929 51.2322 36.7766 51.3533 36.4731C51.4744 36.1697 51.9983 35.6744 52.1453 35.5832C52.2922 35.4921 52.8256 35.8064 52.929 35.4172C53.0324 35.0281 53.0542 34.873 53.1263 34.843C53.1984 34.8131 53.3985 34.9424 53.5209 34.6974C53.6434 34.4525 53.8189 33.9123 53.8543 34.2892C53.8897 34.6661 53.7645 34.7342 54.0992 34.4484C54.434 34.1627 54.5591 33.8048 54.5782 34.0402C54.5972 34.2756 54.7143 34.4348 54.8503 34.2729C54.9864 34.111 54.9714 34.511 54.7741 34.545C54.5768 34.579 54.2054 34.1368 54.2394 34.5722C54.2734 35.0077 54.0883 34.7083 54.0462 35.0798C54.004 35.4513 54.004 36.2622 54.4693 35.8676C54.9347 35.473 54.8571 35.1873 55.1823 34.9424C55.4516 34.7582 55.7341 34.594 56.0273 34.4511L56.524 33.8443C56.524 33.8443 56.8927 33.6102 56.4696 33.6102C56.0464 33.6102 56.1784 33.5381 55.8477 33.6483C55.5171 33.7585 55.3592 33.7286 55.1823 33.5708C55.0055 33.4129 55.0463 33.3585 54.6653 33.3775C54.2843 33.3966 54.2258 33.4633 54.0448 32.885C53.8638 32.3067 54.453 32.3475 53.8638 32.308C53.2746 32.2686 53.3263 32.2944 52.978 32.4087C52.6297 32.523 52.495 32.4291 52.7222 32.24C52.9494 32.0509 53.2325 32.1461 53.5386 31.9978C53.8448 31.8495 54.3428 31.9039 54.0421 31.5406C53.8248 31.3087 53.5384 31.1531 53.2257 31.097L52.0432 31.5937L51.3179 32.2427C51.3179 32.2427 50.9288 32.7557 50.7002 33.0591C50.4716 33.3626 50.096 33.6211 50.311 33.2456C50.526 32.87 50.8213 32.2659 51.1275 31.9434C51.3825 31.6969 51.6515 31.4652 51.933 31.2494C52.2147 31.0031 52.1874 30.3854 52.5916 30.3187C52.9957 30.252 53.3767 30.2915 54.0883 30.2112C54.8 30.1309 55.6232 30.0751 55.8777 29.939C56.1321 29.803 56.1661 29.5812 56.2655 29.3308C56.3648 29.0804 56.373 29.1253 56.7716 29.0315C57.1703 28.9376 57.1703 28.4722 57.1703 28.2395C57.1703 28.0069 56.739 27.917 56.6682 27.6122C56.5975 27.3075 56.6941 27.0571 56.4669 27.2176C56.2396 27.3782 56.3117 27.7728 56.1865 27.6122C56.0614 27.4517 56.3838 27.004 55.9362 27.1115C55.4885 27.219 55.7035 27.0584 55.2735 27.5592C54.8435 28.0599 54.5836 27.9674 54.8476 27.5592C55.1116 27.151 55.664 26.9088 55.8464 26.823C56.0287 26.7373 55.5062 26.6298 54.951 26.54C54.5632 26.4833 54.1981 26.3219 53.8951 26.0733C53.7697 25.985 53.6184 25.941 53.4651 25.9481C53.4121 25.9481 53.3223 25.7508 52.7671 25.2324C52.2119 24.7139 51.4962 24.0322 51.1343 23.639C50.7723 23.2458 50.7043 22.6538 50.6145 23.209C50.5247 23.7642 50.8295 24.0322 50.4716 24.2295C50.1137 24.4268 50.2525 24.5343 49.9055 24.6378C49.5586 24.7412 49.6797 24.6731 49.3858 24.5656C49.0918 24.4581 48.7884 24.6908 48.7707 24.4581C48.753 24.2255 49.3613 24.5479 48.8238 24.0282C48.2863 23.5084 48.6006 23.8064 48.6142 23.409C48.6278 23.0117 47.8618 22.9614 47.4141 22.8539C46.9664 22.7464 47.1991 22.5137 46.5909 22.4783C46.2027 22.4589 45.817 22.4052 45.4384 22.3178C45.2832 22.2824 44.245 22.0851 44.245 22.0851C44.245 22.0851 43.8504 21.5843 43.8368 22.1926C43.8232 22.8008 43.8191 22.8552 43.8191 23.1056C43.8191 23.356 44.1158 23.7274 44.1158 23.7274C44.1158 23.7274 44.4954 23.4553 44.5757 23.6744C44.656 23.8934 43.9307 24.0105 43.7429 24.1438C43.5551 24.2772 43.4613 24.1846 43.864 24.5058C44.2668 24.8269 44.6165 24.914 44.7104 25.1099C44.8043 25.3059 44.9662 25.6746 44.9662 25.6746C44.9662 25.6746 45.3826 25.9699 45.1676 25.9971C44.9526 26.0243 44.9934 26.091 44.6981 26.4937C44.446 26.8378 44.1016 27.1034 43.7048 27.2598C43.4095 27.3673 43.3687 27.3959 43.4762 27.7701C43.5837 28.1443 43.9062 28.0926 43.9729 28.4423C44.0396 28.792 43.8491 28.5783 44.1089 29.0383L44.3675 29.4982C44.3675 29.4982 44.0953 29.2356 44.2573 29.6111C44.4192 29.9867 44.3933 30.2819 44.177 29.9336C43.9606 29.5853 44.0695 29.4764 43.8817 29.6615C43.6939 29.8465 43.6667 29.8765 43.8286 30.1309C43.9906 30.3854 44.1783 30.8289 43.9892 30.5745C43.8001 30.32 43.7878 30.0302 43.4925 30.1581C43.1973 30.286 42.9959 30.5378 42.8612 30.5092C42.7265 30.4806 42.8748 30.1309 42.8748 30.1309L43.1306 29.607L42.7142 29.2709C42.7142 29.2709 42.0937 29.4451 42.3169 29.1771C42.5401 28.909 42.1631 28.8274 42.0448 28.8274C41.9264 28.8274 41.5345 28.5321 41.8434 28.5321C42.1523 28.5321 42.1904 28.5593 42.3196 28.3443C42.4489 28.1293 42.2203 27.8476 42.1264 27.6721C42.0325 27.4966 42.2203 27.0816 41.8175 27.0816C41.4148 27.0816 40.729 27.1891 40.5929 27.0952C40.4568 27.0013 40.2432 26.7727 39.9343 26.687C39.6254 26.6012 39.2227 26.7278 39.0744 26.74C38.926 26.7523 39.0213 26.5155 38.9138 26.3795C38.8063 26.2434 38.4171 26.1223 38.3096 26.1073C38.2021 26.0923 38.028 26.0665 38.028 26.0665C37.944 26.0275 37.8734 25.9646 37.825 25.8857C37.7766 25.8068 37.7526 25.7154 37.7558 25.6229C37.7558 25.2868 37.5272 24.9779 37.3258 25.1657C37.1926 25.2941 37.0671 25.4304 36.9503 25.5739C36.9503 25.5739 36.5339 25.0092 36.5883 24.7684C36.6428 24.5275 36.87 24.6473 36.87 24.3602C36.87 24.0731 36.8972 24.333 37.1258 23.971C37.3544 23.6091 37.3803 23.273 37.7708 23.326C38.1613 23.3791 38.4158 23.4471 38.443 22.9178C38.4702 22.3885 38.5233 21.8034 38.8512 21.5884C39.1791 21.3734 38.9043 21.6156 39.3206 21.3163C39.737 21.0169 40.0187 20.8727 39.7506 20.7924C39.4826 20.7121 39.307 20.8863 39.1056 20.6985C38.9043 20.5107 38.5614 20.3624 39.0118 20.4032C39.4621 20.4441 39.6839 20.7257 39.8976 20.6591C40.1267 20.5531 40.3221 20.386 40.4623 20.176C40.5153 20.0685 40.5834 20.2291 40.7045 20.0821C40.8256 19.9352 40.7317 19.8005 41.0406 19.946C41.3494 20.0916 41.4705 20.1338 41.4842 19.8794C41.4978 19.6249 41.8066 19.5433 41.8066 19.3351C41.8066 19.1269 41.5508 19.2684 41.4569 18.9051C41.363 18.5418 41.2419 18.2465 41.095 18.1526C40.948 18.0588 40.7453 17.8438 40.5303 18.0043C40.3153 18.1649 40.1942 18.1785 40.235 18.3935C40.2537 18.5447 40.2306 18.6981 40.1684 18.8371C40.0381 18.9332 39.9169 19.0412 39.8064 19.1596C39.5506 19.414 39.5914 19.9379 39.3764 19.3473C39.1614 18.7568 39.2159 18.5418 39.0009 18.4874C38.877 18.4364 38.7389 18.4315 38.6117 18.4738C38.4239 18.5146 38.4103 18.501 38.1287 18.4738C37.847 18.4466 37.7395 18.286 37.7123 18.4874C37.6851 18.6888 37.6987 18.8956 37.8062 18.9174C37.9137 18.9391 37.779 18.999 37.4565 19.1596C37.2958 19.2357 37.1428 19.3268 36.9993 19.4317C36.9993 19.4317 37.3748 19.6467 37.1476 19.7678C36.9204 19.8889 36.9598 19.9556 36.8387 19.8889C36.7176 19.8222 36.4768 19.7011 36.5829 19.4807C36.6254 19.3655 36.6841 19.2569 36.7571 19.1582C36.9176 18.916 37.119 18.8085 37.1326 18.7418C37.1462 18.6752 36.9843 18.486 36.7244 18.3336C36.4645 18.1812 36.2944 17.9254 36.0931 18.105C35.9325 18.2249 35.7798 18.3548 35.6359 18.4942C35.5828 18.5745 35.9175 18.5472 36.0441 18.5881C36.1706 18.6289 36.2591 18.8969 36.2591 18.8969C36.253 18.9419 36.2349 18.9844 36.2067 19.0199C36.1784 19.0553 36.141 19.0825 36.0985 19.0983C35.9502 19.1528 35.7229 19.2589 35.7229 19.2589C35.7229 19.2589 36.0318 19.5147 35.3474 19.2317C34.663 18.9487 34.4344 18.735 33.8506 18.4397C33.2669 18.1445 33.2465 17.8628 33.0845 18.1445C32.9226 18.4261 33.2329 18.4806 32.7757 18.5527C32.3185 18.6248 32.2654 18.5799 32.1579 18.7541C32.0832 18.8971 32.0331 19.0516 32.0096 19.2113L31.9824 19.4535C31.9824 19.4535 31.8218 19.6957 31.7674 19.7093C31.671 19.7084 31.5767 19.6806 31.4952 19.629C31.4422 19.5882 31.5891 19.2793 31.5891 19.2126C31.5361 19.0701 31.4686 18.9333 31.3877 18.8044C31.3877 18.8044 31.2 18.4683 30.9578 18.5228C30.7445 18.5621 30.5292 18.5889 30.3128 18.603C30.3128 18.603 29.6542 18.388 29.695 18.2942C29.7358 18.2003 30.1032 18.2003 30.0706 18.1336C30.0379 18.0669 30.1781 17.9907 29.7481 17.9417C29.3181 17.8927 28.6595 17.7172 28.6595 17.3975C28.6595 17.0777 28.4051 17.0355 28.0282 17.0478C27.6512 17.06 28.0146 16.7117 27.571 16.86C27.1274 17.0083 26.9124 16.8232 26.9124 16.8232C26.9124 16.8232 27.0729 16.645 26.4157 16.6586C25.7585 16.6722 25.9721 16.6994 25.6769 16.8069C25.3816 16.9144 25.368 16.8328 25.3408 16.6586C25.3136 16.4844 25.0183 16.4314 24.8169 16.4572C24.6828 16.4817 24.5578 16.5419 24.455 16.6314C24.4353 16.4398 24.376 16.2545 24.2808 16.0871C24.1066 15.7374 24.3339 15.8313 23.9447 15.7115C23.5555 15.5918 23.1392 15.4027 23.4072 15.2543C23.6753 15.106 24.1461 14.8108 23.8236 14.5835C23.5011 14.3563 23.5678 14.3114 23.0317 14.4352C22.4955 14.559 22.32 14.3277 22.1322 14.5835C21.9445 14.8393 22.1595 14.8121 21.588 15.0271C21.0165 15.2421 21.1444 15.121 20.8763 15.4965C20.6083 15.8721 20.5946 15.9932 20.5144 15.8463C20.4341 15.6993 20.5674 15.2816 20.8232 14.9863C20.9846 14.7817 21.1267 14.5626 21.2478 14.3318C20.7452 14.5822 20.249 14.8439 19.7592 15.1169C19.6355 15.2112 19.5519 15.3487 19.5251 15.502C19.453 16.0218 19.7973 16.2599 19.3999 16.3375C19.0026 16.415 18.8802 16.7021 18.6652 16.7198C18.4502 16.7375 18.5931 16.5593 18.0746 16.5225C17.8175 16.5048 17.6868 16.4518 17.5385 16.4504C16.7402 16.9684 15.9628 17.5127 15.2063 18.0832C15.6145 18.5813 15.5764 18.9555 15.5764 18.9555L14.5871 19.6208L13.2727 19.9937C13.2727 19.9937 13.7299 20.3842 14.5368 20.1883C15.3437 19.9923 15.8267 19.0507 15.7995 19.4276C15.7723 19.8045 15.3165 19.9828 15.0743 20.244C14.8321 20.5053 15.907 20.1542 16.122 19.8848C16.337 19.6154 16.5792 18.6221 16.8745 18.8371C17.0558 18.9766 17.1801 19.1773 17.2242 19.4018L16.767 19.859L17.4392 20.1896L18.4325 20.7189C18.4325 20.7189 18.4856 20.7189 18.4325 21.0142C18.3794 21.3095 18.1998 21.3721 18.2896 21.4891C18.3794 21.6061 18.3685 21.5966 18.2039 21.8646C18.0505 22.0883 17.9114 22.3214 17.7875 22.5627C17.7521 22.6797 17.9753 22.7505 18.0474 22.5627C18.1195 22.3749 18.2447 22.1055 18.2447 22.1055C18.2447 22.1055 18.5849 21.4877 18.6652 21.5612C18.7292 21.6377 18.7777 21.726 18.808 21.8211L18.5359 22.4742C18.5359 22.4742 18.5087 22.6443 18.4733 22.8049C18.4379 22.9654 18.491 23.0022 18.4012 23.077C18.3114 23.1519 18.1141 22.8267 18.3114 23.1491C18.5087 23.4716 18.4366 23.4716 18.3114 23.6145C18.1862 23.7574 18.0501 23.7941 18.208 23.937C18.3658 24.0799 18.5794 23.722 18.6693 23.8295C18.7591 23.937 18.8666 23.8472 18.8121 24.0622C18.7577 24.2772 19.038 24.4023 18.8271 24.5275C18.6162 24.6527 18.3195 24.3479 18.208 24.3847C18.0964 24.4214 18.0433 24.4092 18.0066 24.5588C17.9698 24.7085 17.846 24.7793 18.0066 24.8868C18.1672 24.9943 17.9712 25.1371 17.9535 25.2446C17.9358 25.3521 18.906 24.9398 18.5441 25.2446C18.1821 25.5494 18.1141 25.5671 18.0066 25.8529C17.8991 26.1386 17.7018 26.3903 17.9345 26.3903C18.1672 26.3903 18.3427 26.0678 18.4896 26.0678C18.6366 26.0678 18.5373 26.2284 18.3617 26.3903C18.1862 26.5523 17.8814 26.3726 17.7739 26.6053C17.7069 26.7653 17.5949 26.9024 17.4514 26.9999C17.2909 27.1428 17.3085 27.1795 17.5235 27.3578C17.7385 27.536 18.2828 27.2857 18.2039 27.3578C18.125 27.4299 18.0338 27.4299 17.9317 27.5456C17.8297 27.6612 17.7168 27.8272 17.91 27.7959C18.0595 27.7843 18.2032 27.7331 18.3264 27.6476C18.4162 27.5714 18.6978 27.4054 18.5454 27.585C18.393 27.7646 18.2815 27.7102 18.3032 27.8572C18.325 28.0041 18.3835 27.9021 18.3658 28.0449C18.3481 28.1878 18.3481 28.2776 18.4189 28.3171C18.4706 28.324 18.5232 28.3168 18.5711 28.2962C18.619 28.2756 18.6605 28.2424 18.691 28.2001C18.7264 28.128 18.906 28.0926 18.8162 28.2354C18.7264 28.3783 18.5441 28.4858 18.6284 28.6301C18.7128 28.7743 18.789 28.8899 18.789 28.8899L18.672 29.1771L18.6366 29.6696C18.5795 29.9082 18.5017 30.1413 18.4039 30.3663C18.2787 30.6167 18.0814 31.1705 18.0814 31.1705H17.8311L17.8841 30.2506C17.8841 30.2506 17.7943 29.7064 17.7413 29.6479C17.6882 29.5893 17.5616 29.5431 17.4691 29.7227C17.4081 29.8537 17.3603 29.9905 17.3262 30.1309C17.3362 30.252 17.3112 30.3734 17.2541 30.4806C17.1828 30.6236 17.1346 30.777 17.1112 30.9351C17.1112 30.9351 16.7534 31.0902 16.5384 31.6454C16.3234 32.2005 16.1832 32.1978 16.0744 32.6632C15.9655 33.1285 16.1451 33.3966 15.7152 33.6647C15.2852 33.9327 15.2144 33.7708 15.0879 34.2729C14.9613 34.775 15.16 34.8104 14.9273 35.258C14.6946 35.7057 14.5518 35.7057 14.5191 36.0813C14.4865 36.4568 14.3368 36.8256 14.3381 37.1331C14.3395 37.4406 14.1041 37.6923 14.3381 37.9073C14.5722 38.1223 14.447 38.1046 14.5722 38.1223C14.6974 38.14 14.662 37.9794 14.9124 38.1223C15.1627 38.2652 15.36 38.0693 15.1627 38.2652C14.9654 38.4611 14.8906 38.5523 14.8906 38.5523C14.8906 38.5523 14.7654 38.4094 14.711 38.6598C14.6565 38.9102 14.4239 38.8898 14.4606 39.0163C14.5239 39.1436 14.6086 39.2591 14.711 39.3578C14.711 39.3578 14.281 39.3932 14.496 39.8232C14.711 40.2532 14.6756 40.1634 14.6756 40.5035C14.6734 40.6982 14.7037 40.8918 14.7654 41.0764L15.0702 41.5894L15.3423 41.935C15.3423 41.935 15.1097 41.9527 15.5219 42.2398C15.9342 42.5269 15.8975 41.9677 16.005 42.6154C16.0681 42.9154 16.0928 43.2222 16.0785 43.5284L16.3683 43.9039C16.4443 44.1222 16.473 44.3541 16.4527 44.5843C16.435 45.0347 16.4527 44.7489 16.4527 45.3041C16.4527 45.8593 16.4527 45.9845 16.6677 46.36C16.8826 46.7356 17.3657 46.9152 17.4555 47.1302C17.517 47.3456 17.5472 47.5688 17.5453 47.7928C17.5453 47.7928 17.563 47.9534 17.6174 48.2228C17.6719 48.4922 17.582 48.4201 17.3453 48.1507C17.1085 47.8813 16.9153 48.1861 16.9153 48.1861C16.906 48.2723 16.9174 48.3596 16.9487 48.4405C16.9799 48.5215 17.0301 48.5938 17.0949 48.6514C17.3276 48.9018 17.7222 49.3141 17.7222 49.3141C17.7222 49.3141 17.8651 49.2066 17.9726 49.672C18.0801 50.1373 18.1957 50.0121 18.1916 50.3877C18.1876 50.7632 18.0447 51.2477 18.6529 51.7484C19.2612 52.2491 18.94 52.0355 19.1904 52.6084C19.356 53.0347 19.6271 53.4121 19.9782 53.7051C20.2286 53.8983 20.9811 54.6943 20.5157 53.7051C20.0504 52.7159 19.8068 52.773 19.6054 52.4396C19.404 52.1063 19.6204 51.7484 19.3333 50.8531C19.0462 49.9577 18.5808 49.0664 18.4733 48.4378C18.3658 47.8092 18.4012 47.171 17.9358 46.111C17.4705 45.051 17.1834 44.4428 17.6133 44.7285C18.0433 45.0143 18.5808 44.5135 18.6162 45.1231C18.6516 45.7327 18.6883 46.6458 18.6883 46.6458C18.6883 46.6458 18.6883 46.8063 19.0829 47.7343C19.4775 48.6623 19.7279 48.7018 19.9061 48.88C20.0844 49.0583 20.2286 49.6325 20.2286 49.6325C20.2286 49.6325 21.0165 49.955 21.0165 50.2407C21.0165 50.5265 20.694 50.3836 21.0165 50.9932C21.3389 51.6028 20.909 51.1007 21.3389 51.6014C21.6105 51.9236 21.8501 52.2713 22.0547 52.6397L23.1691 54.0466C23.185 54.2985 23.2586 54.5434 23.3841 54.7624C23.5991 55.157 23.9705 55.1243 23.7283 55.4209C23.4861 55.7176 23.1637 55.7965 23.3201 55.8904C23.4766 55.9843 23.5215 56.0387 23.4004 56.1462C23.2793 56.2537 23.6998 56.6905 23.8794 57.2347C24.059 57.779 24.3094 57.8253 24.6495 58.1478C24.8788 58.3372 25.0625 58.5758 25.187 58.8458C25.402 59.2214 25.134 58.9356 25.832 59.186C26.53 59.4364 26.8171 59.7942 26.9777 59.9017C27.1383 60.0092 27.4703 60.0813 28.6255 60.6719C29.7808 61.2624 30.1032 61.5577 30.6666 61.7468C31.2299 61.936 31.3115 62.1768 31.7415 62.0693C32.1715 61.9618 32.3865 61.7196 32.6546 61.8543C32.9226 61.989 32.7621 62.3102 33.1376 62.0952C33.5132 61.8802 33.5676 61.9156 33.6751 62.1673C33.7826 62.419 34.4806 62.8749 34.4806 62.8749C34.4806 62.8749 33.9431 63.1171 34.8303 63.6532C35.6467 64.1444 36.4251 64.5431 36.719 64.4696C36.7299 64.5186 36.8115 64.5921 37.0047 64.705C37.8375 65.1881 38.0797 65.5105 38.2947 65.7528C38.5097 65.995 38.6702 66.5052 38.6444 66.6658C38.6185 66.8263 38.6974 67.0413 38.9941 67.176C39.2907 67.3107 39.6921 67.2291 40.0146 67.4482C40.3371 67.6673 39.9343 67.7435 40.5249 68.0129C40.8122 68.1576 41.1202 68.2572 41.4379 68.3081L41.7604 68.1721L42.6203 68.3081C42.6203 68.3081 42.9959 68.5231 43.0286 68.6837C43.0612 68.8443 42.8408 68.979 43.1646 69.1137C43.2482 69.1549 43.3402 69.1763 43.4334 69.1763C43.5265 69.1763 43.6185 69.1549 43.7021 69.1137C43.7021 69.1137 44.5348 68.9776 44.3729 68.6837C44.211 68.3898 43.6205 68.4415 44.0504 68.1734C44.4804 67.9054 44.6682 67.7979 44.856 67.6904C45.0438 67.5829 45.1281 67.5026 45.4465 67.8265C45.7649 68.1503 45.9568 67.7734 45.769 68.1489C45.5812 68.5245 45.569 68.632 45.8438 68.6592C46.0125 68.6775 46.1727 68.7426 46.3065 68.847C46.3065 68.847 46.6562 68.9926 46.6562 69.1749C46.6562 69.3572 46.384 69.3028 46.414 69.545C46.4439 69.7872 46.0384 69.7056 46.2262 69.9532C46.414 70.2009 46.0656 70.3029 46.199 70.571C46.3323 70.8391 45.9268 70.8663 46.2262 71.2432C46.5256 71.6201 46.3337 71.9412 45.7962 72.1031C45.2587 72.2651 45.4737 71.831 45.1785 72.3984C44.8832 72.9658 44.9635 72.989 44.7131 73.0611C44.3793 73.1846 44.0558 73.3343 43.7456 73.5088C43.3157 73.7237 43.3701 73.2938 43.1551 73.917C42.9401 74.5402 43.1551 74.5443 42.7251 74.9021C42.2951 75.26 42.3672 75.6723 42.3672 75.6723C42.3672 75.6723 44.0001 75.475 43.3524 75.8873C42.7047 76.2996 42.6897 76.3703 42.5292 76.5499C42.4245 76.6679 42.3285 76.7935 42.2421 76.9255L41.955 77.4453L41.8828 78.0535C41.8828 78.0535 42.0257 77.9283 42.5101 78.2508C42.9945 78.5733 43.1007 78.591 43.1728 78.6985C43.4072 79.1269 43.7028 79.5189 44.0504 79.8619C44.3587 80.1901 44.6907 80.4953 45.0438 80.7749C45.286 80.9627 45.5268 80.8824 45.5009 81.2049C45.4751 81.5274 45.4479 81.3927 46.0656 81.5804C46.6834 81.7682 47.0862 81.956 47.5161 81.956C47.9461 81.956 48.9394 82.1166 49.2347 82.1166C49.53 82.1166 49.7178 82.0893 49.53 82.3043C49.3422 82.5193 48.9925 83.3249 48.5367 83.7821C48.0808 84.2393 47.9461 84.5073 47.3012 84.7223C46.6562 84.9373 46.2806 85.1305 45.8779 85.2598C45.4751 85.3891 45.2084 85.9796 45.207 85.985C50.9374 84.9177 56.3473 82.5525 61.0221 79.0707C65.6969 75.589 69.5124 71.083 72.1762 65.8983L71.3951 66.0031L70.2671 66.8508ZM51.2594 26.4529C51.3955 26.3808 51.5724 26.5427 51.7071 26.6502C51.7821 26.7267 51.8819 26.774 51.9886 26.7837C52.0952 26.7934 52.2019 26.7649 52.2895 26.7033C52.5616 26.5427 52.7276 26.6407 52.9971 26.7564C53.2665 26.872 52.9617 26.9986 52.612 27.1319C52.2623 27.2653 52.5494 27.2571 52.2364 27.2571C51.9235 27.2571 52.1385 27.4272 52.0391 27.5619C51.9398 27.6966 51.6894 27.2898 51.3234 26.989C50.9574 26.6883 50.9723 26.6067 51.2594 26.4529ZM37.7885 32.523C38.8362 32.1733 38.594 31.9189 39.2118 32.3951C39.8295 32.8714 40.1248 32.5802 40.2051 33.0619C40.2854 33.5435 40.9834 33.9531 40.9834 33.9531L41.9509 34.1355L43.4014 34.4389C43.4014 34.4389 43.8409 34.5913 43.9389 34.9301C44.0368 35.2689 44.3471 35.4091 43.7511 35.4036C43.3037 35.3789 42.8614 35.2961 42.4353 35.1573C42.4353 35.1573 42.2856 35.2934 42.306 35.8826C42.3264 36.4718 42.5958 36.3656 42.1931 36.7153C41.7903 37.065 40.8501 37.3603 41.5753 37.3331C42.3006 37.3059 42.8639 36.9249 43.1864 37.1453C43.5089 37.3658 43.7211 36.8732 44.045 36.8501C44.3688 36.8269 43.9919 36.6051 44.3947 36.3058C44.7975 36.0064 44.8383 35.7969 45.4356 35.8513C46.033 35.9057 45.9255 35.7152 46.4902 35.7152C47.0549 35.7152 47.5107 36.1956 46.7623 36.3044C46.0139 36.4133 45.9024 36.2786 45.3118 36.5208C44.7213 36.763 44.7213 36.3847 44.5866 36.929C44.4518 37.4733 44.9621 37.3862 44.2369 37.6542C43.5116 37.9223 43.9144 37.7223 43.0816 37.8488C42.2489 37.9754 42.4366 38.0298 41.7658 37.9767C41.095 37.9237 40.5303 37.9237 40.8528 37.412C41.1753 36.9004 42.008 37.0895 41.8202 36.499C41.6325 35.9085 41.3631 35.9887 40.9875 36.1234C40.6119 36.2582 41.1617 35.6227 41.1685 35.4036C41.1753 35.1846 40.9603 34.9056 40.5575 34.8294C40.1547 34.7532 40.1493 34.3804 39.805 34.9301C39.4608 35.4798 39.4553 35.0866 39.322 35.4036C39.1886 35.7207 39.107 35.3683 39.107 36.3099C39.107 37.2515 39.2948 37.8298 38.4892 37.9971C37.6837 38.1645 37.6034 36.8446 37.9518 36.3099C38.3001 35.7751 38.6226 35.3819 38.194 35.4036C37.7654 35.4254 38.2212 34.6376 38.7042 34.5478C39.1873 34.4579 39.4023 34.5001 39.805 34.4389C40.2078 34.3777 40.5303 34.4307 40.5834 34.3246C40.6364 34.2185 40.1534 33.6538 39.6703 33.7477C39.1873 33.8415 39.5628 33.8837 38.9451 33.9545C38.3273 34.0252 37.7368 33.9218 37.8973 33.7477C38.0579 33.5735 38.2035 33.5735 37.7613 33.4116C37.319 33.2496 37.7939 32.523 37.7939 32.523H37.7885ZM34.0193 28.3933C34.3241 28.347 34.0547 28.1538 34.1091 27.849C34.1636 27.5442 34.4493 27.6884 35.0766 27.7061C35.0766 27.7061 35.1841 27.9211 34.897 27.9932C34.6099 28.0654 34.7541 28.1184 34.682 28.298C34.6099 28.4777 34.6099 28.4777 34.5922 28.8532C34.5745 29.2288 34.5568 29.3009 34.7895 29.6057C35.0222 29.9105 34.9147 29.9105 35.0045 30.5119C35.0943 31.1133 34.7323 30.8235 34.3595 30.9133C33.9867 31.0031 34.3595 30.9133 34.3391 30.6085C34.3187 30.3037 34.448 30.1078 34.2343 29.6873C34.0207 29.2669 33.8942 29.5349 33.8588 29.2301C33.8234 28.9253 33.9663 28.9253 33.7077 28.675C33.4492 28.4246 33.72 28.4409 34.0248 28.3947L34.0193 28.3933ZM33.0668 28.4042C33.0668 28.4042 33.3716 28.8518 33.1567 29.0355C32.9417 29.2192 32.9961 29.407 33.2818 29.5499C33.5676 29.6928 33.622 29.6397 33.5145 29.9078C33.407 30.1758 33.6043 30.2656 33.6941 30.731C33.7839 31.1963 33.2859 30.9283 33.2859 30.5092C33.2859 30.0901 33.1254 30.1949 32.8559 29.9799C32.5865 29.7649 32.6056 29.6574 32.6641 29.4424C32.7226 29.2274 32.7661 29.1199 32.4083 28.762C32.0504 28.4042 32.3593 28.3688 33.075 28.4055L33.0668 28.4042ZM31.8218 25.3508C31.8626 24.8541 31.7524 24.9521 32.2531 25.0283C32.4287 25.0555 32.5879 25.1888 32.426 25.6869C32.264 26.1849 32.1838 25.8746 31.7456 26.1304C31.3075 26.3863 31.7905 25.8474 31.8313 25.3521L31.8218 25.3508ZM22.4615 37.4379C22.2329 37.9618 22.2057 37.6801 21.6818 37.7195C21.158 37.759 21.6818 37.4474 21.6818 36.7398C21.6818 36.0323 21.6152 36.2622 22.3527 36.2296C22.6724 36.2173 22.6983 36.9154 22.4711 37.4392L22.4615 37.4379ZM26.1096 19.4521C26.1096 19.4521 26.3246 19.3854 26.8756 19.2643C27.4267 19.1432 26.9695 19.1841 26.643 19.0357C26.3164 18.8874 26.3926 18.9949 25.6905 18.8997C24.9884 18.8044 26.2007 18.7786 26.8988 18.7514C27.5968 18.7241 27.0893 18.7228 27.7982 18.8316C28.0703 18.8752 27.771 19.1133 28.1602 19.248C28.5493 19.3827 28.1602 19.3419 28.1602 19.5569C28.1602 19.7719 28.0118 19.8127 27.6771 19.5977C27.3424 19.3827 27.405 19.5977 27.3015 19.6916C27.1981 19.7855 26.7573 20.1216 26.7573 20.1216C26.4572 20.0205 26.167 19.8921 25.8905 19.7379C25.5462 19.5242 26.1096 19.4521 26.1096 19.4521ZM29.7835 21.6007C29.5821 21.6143 29.4746 21.7612 29.2188 22.0306C28.963 22.3001 28.8106 22.3028 28.5207 22.3028C28.2309 22.3028 28.171 22.3559 27.4866 22.545C26.8022 22.7341 27.0172 22.6253 26.6539 22.3844C26.2905 22.1436 26.2239 22.1286 26.1844 22.0089C26.145 21.8891 26.7287 22.0361 26.9233 21.915C27.0826 21.7938 27.227 21.654 27.3533 21.4986C27.3533 21.4986 27.2172 21.0904 27.5955 20.9883C27.7655 20.9394 27.7166 21.1625 27.8377 21.4455C27.9588 21.7286 28.0799 21.8619 28.518 21.8157C28.9562 21.7694 29.0283 21.5435 29.646 21.4728C30.2638 21.402 29.9917 21.5911 29.7903 21.6047L29.7835 21.6007ZM36.8591 64.3703C37.0728 64.192 37.3571 63.9961 37.3816 64.2138C37.4048 64.3458 37.0687 64.339 36.8686 64.3744L36.8591 64.3703Z" fill="#FF86A7"/>
<path d="M57.631 28.8412C57.4255 28.9255 57.3589 29.0561 57.3371 29.2847C57.3173 29.4318 57.2808 29.576 57.2282 29.7147L57.1207 30.0372C57.1575 30.0867 57.1827 30.1438 57.1942 30.2044C57.2058 30.265 57.2034 30.3274 57.1874 30.3869C57.1449 30.5123 57.1224 30.6437 57.1207 30.7761C57.1207 30.7761 56.9166 30.8101 56.8772 30.9121C56.8377 31.0142 56.469 30.7543 56.7792 31.104C57.0894 31.4537 57.0391 31.3435 56.9724 31.5122C56.9057 31.6809 57.0255 31.9014 57.2282 31.8347C57.431 31.768 57.0663 31.6183 57.812 31.6986C58.5576 31.7789 58.6515 31.3707 58.7196 31.5449C58.7876 31.719 58.8162 31.7326 58.9155 31.5979C59.0148 31.4632 59.4435 31.2618 59.2366 31.5313C59.0298 31.8007 58.642 32.0755 58.9155 32.13C59.189 32.1844 59.619 32.0266 59.5387 31.6986C59.4584 31.3707 59.5387 31.0183 59.6598 31.3707C59.7809 31.7231 59.6462 32.0157 59.9319 31.9885C60.2177 31.9612 60.2572 32.0579 60.415 32.1422C60.5728 32.2266 60.8722 32.2429 60.6708 31.8538C60.4694 31.4646 60.6041 30.9679 60.3891 31.1829C60.1742 31.3979 59.9319 31.4646 59.8245 31.1299C59.717 30.7951 59.7442 30.7802 59.5292 30.5924C59.3142 30.4046 59.6761 30.0685 59.2394 30.0549C58.8026 30.0413 58.7631 30.4046 58.495 30.2427C58.227 30.0808 58.2229 29.7732 58.0324 30.0005C57.8419 30.2277 57.6895 30.4835 57.5956 30.2821C57.5017 30.0808 57.314 30.1393 57.4473 29.8617C57.5807 29.5841 57.8582 28.75 57.631 28.8412Z" fill="#FD3E72"/>
<path d="M46.6893 51.2176C46.5709 51.3088 46.575 51.5891 46.6893 51.7551C46.8036 51.9211 46.9138 51.868 46.9764 52.0055C47.0485 52.166 46.907 52.2776 46.9764 52.4708C47.0145 52.5797 47.1125 52.7062 47.2091 52.7035C47.3588 52.7035 47.4554 52.3987 47.4962 52.2735C47.5762 52.0936 47.5949 51.8923 47.5493 51.7007C47.4187 51.3115 46.8689 51.0802 46.6893 51.2176Z" fill="#FD3E72"/>
<path d="M45.6658 51.7728C45.7045 51.7545 45.7465 51.7441 45.7892 51.7422C45.832 51.7404 45.8747 51.7472 45.9148 51.7621C45.9549 51.7771 45.9916 51.8 46.0227 51.8294C46.0538 51.8588 46.0786 51.8942 46.0958 51.9334C46.1248 52.0052 46.1263 52.0852 46.0999 52.158C46.0735 52.2308 46.0212 52.2914 45.9529 52.328C45.8975 52.3546 45.8354 52.3639 45.7746 52.3544C45.7139 52.3449 45.6574 52.3172 45.6128 52.2749C45.58 52.24 45.5551 52.1984 45.5398 52.153C45.5246 52.1076 45.5193 52.0594 45.5243 52.0117C45.5293 51.9641 45.5446 51.9181 45.569 51.8768C45.5934 51.8356 45.6265 51.8001 45.6658 51.7728Z" fill="#FD3E72"/>
<path d="M46.4872 53.0445C46.5675 53.0445 46.6233 53.1547 46.7022 53.3316C46.8288 53.5956 46.9172 53.7793 46.8274 53.9399C46.7792 54.0247 46.7022 54.0895 46.6103 54.1224C46.5185 54.1554 46.4178 54.1543 46.3267 54.1195C46.1403 54.0242 46.1457 53.7494 46.1471 53.6541C46.1525 53.3548 46.3376 53.0323 46.4872 53.0445Z" fill="#FD3E72"/>
<path d="M47.7273 52.7408C47.5518 52.753 47.3721 52.9109 47.3871 53.0279C47.4021 53.1449 47.6524 53.149 47.745 53.3681C47.7912 53.4756 47.7531 53.53 47.8171 53.6007C47.8599 53.646 47.9166 53.6757 47.9781 53.6853C48.0397 53.6949 48.1027 53.6838 48.1573 53.6538C48.277 53.5722 48.2552 53.3817 48.2471 53.3136C48.2103 53.051 47.9967 52.7217 47.7273 52.7408Z" fill="#FD3E72"/>
<path d="M48.0478 54.2869C47.9991 54.323 47.9637 54.3743 47.9475 54.4327C47.9312 54.4911 47.9349 54.5533 47.958 54.6094C48.0016 54.7332 48.1404 54.8448 48.2628 54.8067C48.3237 54.7731 48.3701 54.7182 48.3931 54.6525C48.4162 54.5869 48.4142 54.515 48.3876 54.4507C48.361 54.3864 48.3117 54.3342 48.249 54.304C48.1863 54.2737 48.1147 54.2677 48.0478 54.2869Z" fill="#FD3E72"/>
<path d="M48.9616 54.3876C48.8337 54.4421 48.8256 54.6965 48.8365 54.7959C48.8396 54.8806 48.8623 54.9634 48.9026 55.038C48.943 55.1126 49 55.1768 49.0691 55.2258C49.0964 55.2422 49.2773 55.3456 49.4093 55.2612C49.5413 55.1769 49.5209 54.9306 49.5168 54.9034C49.4746 54.5931 49.1277 54.3169 48.9616 54.3876Z" fill="#FD3E72"/>
<path d="M50.5322 56.2671C50.309 56.3079 50.0818 56.5202 50.124 56.7148C50.1539 56.8645 50.3267 56.9352 50.3567 56.9475C50.4523 56.9865 50.5579 56.9937 50.6579 56.9679C50.7579 56.9422 50.847 56.8849 50.9118 56.8046C50.9562 56.7501 50.9847 56.6844 50.994 56.6148C51.0034 56.5451 50.9933 56.4743 50.9649 56.41C50.871 56.2521 50.6533 56.2453 50.5322 56.2671Z" fill="#FD3E72"/>
<path d="M39.5772 57.0203C39.5173 56.7632 40.4562 56.2692 41.2604 56.0175C42.0261 55.7892 42.8274 55.7043 43.6239 55.7671C44.2408 55.8056 44.8526 55.9022 45.4513 56.0556C46.3154 56.2543 46.7467 56.3536 47.0992 56.521C47.2328 56.594 47.3784 56.6424 47.5291 56.6638C47.8489 56.7033 47.9754 56.574 48.1741 56.6638C48.3442 56.74 48.2938 56.8543 48.4966 57.0217C48.7057 57.173 48.9545 57.26 49.2123 57.2721C49.5784 57.317 49.7158 57.2313 49.8206 57.3442C49.8701 57.4183 49.8966 57.5054 49.8966 57.5946C49.8966 57.6837 49.8701 57.7708 49.8206 57.8449C49.6559 58.1089 49.2545 58.1171 48.8898 58.132C47.2692 58.2191 46.5957 58.6124 46.3834 58.2749C46.2269 58.0259 46.4868 57.6422 46.3113 57.5224C46.1589 57.419 45.933 57.6925 45.6663 57.5946C45.435 57.5088 45.4826 57.2585 45.2363 57.0938C45.1003 56.9986 44.9996 57.0299 44.341 57.0584C43.6021 57.0911 43.4375 57.0584 43.266 56.9863C43.0946 56.9142 43.13 56.8761 42.8714 56.736C42.6129 56.5958 42.1408 56.4012 42.0482 56.521C41.9829 56.6053 42.1448 56.7822 42.0836 56.8435C42.0224 56.9047 41.7325 56.6108 41.3679 56.6285C41.2046 56.6366 41.2073 56.7019 40.7229 56.9509C40.2385 57.2 40.0657 57.2231 39.9351 57.2013C39.8997 57.1945 39.6085 57.1537 39.5772 57.0203Z" fill="#FD3E72"/>
<path d="M50.4218 57.6886C50.5769 57.4668 50.9769 57.7062 51.7104 57.6355C52.2315 57.5851 52.2682 57.4423 52.9187 57.3933C53.179 57.358 53.4438 57.376 53.697 57.4464C53.995 57.5457 53.9909 57.6518 54.3692 57.8219C54.8005 58.0165 55.0495 57.9866 55.0944 58.1444C55.1312 58.2669 55.025 58.4288 54.9066 58.5199C54.5569 58.7921 54.1691 58.3839 53.5106 58.6002C53.3214 58.6601 53.2928 58.7132 53.0275 58.788C52.7023 58.8805 52.5744 58.8506 52.4628 58.9758C52.3717 59.0778 52.4193 59.1391 52.3023 59.384C52.2138 59.565 52.1662 59.6561 52.0873 59.7065C51.8342 59.8643 51.5539 59.4656 50.9592 59.4643C50.668 59.4643 50.6068 59.5582 50.3945 59.4915C50.0734 59.3894 49.8503 59.0547 49.9115 58.954C49.9727 58.8533 50.3714 59.1173 50.717 58.954C50.9892 58.8179 51.1933 58.5104 51.1252 58.3635C51.0395 58.192 50.6327 58.3635 50.4544 58.1213C50.4075 58.0601 50.3793 57.9866 50.3735 57.9098C50.3677 57.8329 50.3845 57.756 50.4218 57.6886Z" fill="#FD3E72"/>
<path d="M46.9852 13.6145C46.543 13.6894 46.2559 13.6254 45.6422 13.7506C45.4363 13.7742 45.2456 13.8708 45.1047 14.0227C45.0095 14.1397 45.0353 14.201 44.9441 14.2949C44.7264 14.5071 44.3999 14.3534 44.3264 14.4826C44.2529 14.6119 44.5836 14.9385 44.7836 15.1276C45.0203 15.3521 45.1374 15.4637 45.2666 15.5032C45.6599 15.6256 45.8667 15.295 46.3947 15.3426C46.592 15.3732 46.7829 15.4367 46.9593 15.5304C47.3459 15.71 47.7145 15.926 48.0601 16.1754C49.1378 16.887 49.2535 16.9714 49.4834 16.9537C49.6642 16.9248 49.8493 16.9431 50.0209 17.0067C50.0549 17.0204 50.3502 17.1428 50.3434 17.302C50.3366 17.4612 49.976 17.5061 49.9679 17.6776C49.9679 17.8136 50.1788 17.9279 50.3176 18.0001C50.4563 18.0722 50.6183 18.1579 50.7748 18.1076C50.9312 18.0572 50.9652 17.8844 51.07 17.8926C51.1421 17.8926 51.183 17.981 51.3422 18.3008L51.5299 18.6763C51.6169 18.8813 51.7349 19.0718 51.8796 19.241C52.0538 19.4125 52.1341 19.3771 52.3627 19.5635C52.4955 19.6848 52.613 19.8218 52.7124 19.9717C53.1206 20.4765 53.7261 20.716 53.7601 20.6698C53.7941 20.6235 53.5247 20.4262 53.5451 20.3976C53.5656 20.369 53.9656 20.6534 54.5657 21.0698C55.4216 21.6644 55.578 21.7502 55.8284 21.8223C56.2053 21.927 56.2189 21.8223 56.6067 21.9583C56.9415 22.0699 57.1578 22.2182 57.5742 22.2808C57.6987 22.2995 57.8252 22.2995 57.9497 22.2808C58.0994 22.2591 58.2886 22.2305 58.3579 22.1203C58.4464 21.9679 58.2681 21.7121 58.1157 21.5025C57.698 20.9215 57.4163 20.9147 57.1483 20.4276C56.9945 20.1554 57.0585 20.0996 56.9061 19.9173C56.6339 19.5948 56.3114 19.5975 56.2611 19.3526C56.2393 19.2465 56.291 19.1471 56.3972 18.9444C56.6149 18.5362 56.8054 18.5144 56.8054 18.3538C56.8054 18.147 56.4366 17.9456 55.7046 17.5483C55.4229 17.3959 55.3277 17.3578 55.2474 17.2258C55.0895 16.9659 55.2555 16.7768 55.1399 16.3931C55.0691 16.159 54.8759 15.7916 54.6296 15.7753C54.5629 15.7753 54.5194 15.7944 53.9574 16.1509C53.7724 16.2679 53.7016 16.3141 53.6349 16.2869C53.5206 16.2366 53.4812 15.9889 53.5547 15.8039C53.6445 15.5766 53.8649 15.544 53.8499 15.4542C53.835 15.3644 53.5111 15.3385 52.8825 15.212C52.428 15.1208 52.2865 15.0637 52.2375 14.9398C52.1763 14.7915 52.3178 14.6922 52.2647 14.5099C52.2171 14.3493 52.0647 14.2745 51.7817 14.1343C51.4646 13.9778 51.2251 13.8622 50.9489 13.9193C50.738 13.9656 50.7217 14.0676 50.5734 14.0554C50.3597 14.035 50.3012 13.8145 50.0359 13.5982C49.8529 13.4576 49.6424 13.357 49.4181 13.3029C48.9546 13.1671 48.4632 13.1577 47.9948 13.2757C47.3934 13.39 47.5023 13.5261 46.9852 13.6145Z" fill="#FD3E72"/>
<g style="mix-blend-mode:multiply" opacity="0.31">
<path d="M62.7375 19.2629C68.5123 26.1213 71.6734 34.8021 71.661 43.7678C71.661 64.8261 54.5896 81.8961 33.5327 81.8961C24.5668 81.9081 15.886 78.7465 9.02783 72.9712C12.6019 77.2454 17.0713 80.6823 22.1199 83.039C27.1686 85.3957 32.6732 86.6146 38.2448 86.6096C59.3031 86.6096 76.3731 69.5382 76.3731 48.4799C76.3784 42.9086 75.16 37.404 72.8038 32.3554C70.4476 27.3068 67.0112 22.8373 62.7375 19.2629Z" fill="#E5DCBA"/>
</g>
<g style="mix-blend-mode:overlay" opacity="0.21">
<path d="M3.21208 51.7596C3.21208 30.7013 20.2835 13.6313 41.3403 13.6313C50.6709 13.6179 59.68 17.0394 66.6494 23.2433C63.0763 19.2074 58.686 15.9771 53.7698 13.7665C48.8535 11.556 43.5235 10.4158 38.1332 10.4214C17.0749 10.4214 0.00490359 27.4928 0.00490359 48.5497C-0.000730551 53.94 1.13951 59.27 3.35003 64.1863C5.56056 69.1026 8.79087 73.4928 12.8268 77.0659C6.62256 70.0976 3.2001 61.0896 3.21208 51.7596Z" fill="white"/>
</g>
<path d="M50.6813 15.2829C50.6813 15.2829 50.5643 15.0108 50.333 14.5454" stroke="white" stroke-width="2" stroke-miterlimit="10"/>
<path d="M25.5879 47.1653C25.6178 47.6919 25.6396 47.9817 25.6396 47.9817" stroke="white" stroke-width="2" stroke-miterlimit="10"/>
<path d="M25.6372 47.9794C25.8423 47.8006 26.0562 47.6321 26.2781 47.4746" stroke="white" stroke-width="2" stroke-miterlimit="10"/>
<path d="M58.8859 75.5283C58.8655 76.0536 58.8342 76.3447 58.8342 76.3447" stroke="white" stroke-width="2" stroke-miterlimit="10"/>
</g>
<ellipse cx="19.3195" cy="8.01778" rx="3.66126" ry="4.06807" fill="white"/>
<path d="M17.6547 1.8899C16.7297 2.14225 15.8598 2.56047 15.0948 3.12066C14.3299 3.68086 13.6847 4.37207 13.1962 5.15482C12.7077 5.93757 12.3855 6.79653 12.2478 7.68265C12.1102 8.56878 12.1599 9.46472 12.3941 10.3193C13.3754 13.9104 23.4409 23.0156 23.4409 23.0156C23.4409 23.0156 27.464 10.0713 26.4815 6.47574C26.2473 5.62113 25.8333 4.82461 25.263 4.13163C24.6926 3.43866 23.9772 2.86281 23.1576 2.43697C22.3379 2.01114 21.4301 1.74364 20.4859 1.64978C19.5417 1.55591 18.5796 1.63751 17.6547 1.8899ZM20.2348 11.3154C19.5671 11.4977 18.8643 11.493 18.2151 11.302C17.566 11.1109 16.9997 10.742 16.5878 10.2419C16.176 9.74175 15.9371 9.13293 15.9014 8.49236C15.8656 7.8518 16.0347 7.20827 16.3871 6.64315C16.7396 6.07804 17.2596 5.61671 17.8814 5.31751C18.5032 5.01831 19.1989 4.89468 19.8805 4.96224C20.5621 5.02981 21.199 5.28555 21.7106 5.6971C22.2223 6.10866 22.5857 6.65756 22.755 7.27439C22.9817 8.1008 22.8442 8.99041 22.3726 9.74784C21.901 10.5053 21.1338 11.0686 20.2397 11.3141L20.2348 11.3154Z" fill="#FD3E72"/>
<ellipse cx="63.123" cy="63.872" rx="2.30046" ry="2.55607" fill="white"/>
<path d="M63.1411 59.8817C62.5386 59.8855 61.9429 59.999 61.3879 60.2156C60.833 60.4322 60.3296 60.7477 59.9065 61.1441C59.4835 61.5405 59.1491 62.01 58.9224 62.5258C58.6957 63.0416 58.5811 63.5937 58.5853 64.1504C58.6011 66.4895 63.2423 73.644 63.2423 73.644C63.2423 73.644 67.7759 66.4339 67.7601 64.092C67.756 63.5352 67.6332 62.9847 67.3988 62.4718C67.1644 61.9589 66.8231 61.4937 66.3941 61.1027C65.9652 60.7117 65.4572 60.4027 64.899 60.1932C64.3408 59.9837 63.7435 59.8778 63.1411 59.8817ZM63.1854 66.0217C62.7505 66.0245 62.3245 65.9082 61.9612 65.6873C61.5979 65.4664 61.3136 65.151 61.1443 64.7808C60.975 64.4106 60.9283 64.0023 61.01 63.6076C61.0918 63.2129 61.2984 62.8494 61.6037 62.5632C61.909 62.277 62.2992 62.0808 62.7251 61.9996C63.151 61.9183 63.5934 61.9556 63.9964 62.1068C64.3993 62.2579 64.7448 62.516 64.989 62.8486C65.2332 63.1811 65.3652 63.5731 65.3683 63.975C65.3725 64.5134 65.1453 65.0314 64.7366 65.4151C64.3279 65.7989 63.7711 66.017 63.1885 66.0217H63.1854Z" fill="#FD3E72"/>
<ellipse cx="27.196" cy="48.1205" rx="1.79899" ry="1.99888" fill="white"/>
<path d="M27.2102 45.0001C26.7391 45.0031 26.2732 45.0918 25.8392 45.2612C25.4052 45.4306 25.0116 45.6773 24.6807 45.9873C24.3499 46.2973 24.0884 46.6644 23.9111 47.0678C23.7338 47.4712 23.6443 47.9029 23.6475 48.3383C23.6599 50.1675 27.2894 55.7624 27.2894 55.7624C27.2894 55.7624 30.8347 50.124 30.8224 48.2926C30.8191 47.8572 30.7231 47.4267 30.5398 47.0256C30.3566 46.6245 30.0896 46.2607 29.7542 45.9549C29.4187 45.6492 29.0214 45.4075 28.585 45.2437C28.1485 45.0798 27.6813 44.9971 27.2102 45.0001ZM27.2448 49.8016C26.9048 49.8039 26.5716 49.7129 26.2875 49.5402C26.0034 49.3674 25.7811 49.1207 25.6487 48.8312C25.5163 48.5417 25.4798 48.2225 25.5437 47.9138C25.6077 47.6051 25.7692 47.3209 26.008 47.097C26.2467 46.8732 26.5519 46.7198 26.8849 46.6563C27.218 46.5928 27.564 46.6219 27.8791 46.7401C28.1942 46.8583 28.4643 47.0602 28.6553 47.3202C28.8463 47.5803 28.9495 47.8868 28.952 48.2011C28.9553 48.6222 28.7776 49.0272 28.458 49.3273C28.1384 49.6274 27.7029 49.798 27.2473 49.8016H27.2448Z" fill="#FD3E72"/>
<ellipse cx="46.8445" cy="31.5701" rx="2.63477" ry="2.92752" fill="white"/>
<path d="M46.8654 27.0001C46.1754 27.0045 45.4931 27.1344 44.8575 27.3825C44.2219 27.6306 43.6453 27.9919 43.1608 28.4459C42.6763 28.8999 42.2933 29.4377 42.0336 30.0285C41.774 30.6193 41.6428 31.2516 41.6476 31.8892C41.6657 34.5682 46.9814 42.7624 46.9814 42.7624C46.9814 42.7624 52.1738 34.5045 52.1557 31.8222C52.1509 31.1846 52.0103 30.554 51.7419 29.9666C51.4735 29.3792 51.0825 28.8464 50.5912 28.3986C50.1 27.9508 49.5181 27.5968 48.8788 27.3569C48.2395 27.1169 47.5554 26.9957 46.8654 27.0001ZM46.9161 34.0324C46.4181 34.0357 45.9301 33.9024 45.514 33.6494C45.0979 33.3964 44.7723 33.0351 44.5784 32.6111C44.3845 32.1872 44.331 31.7196 44.4247 31.2675C44.5183 30.8154 44.7549 30.3991 45.1046 30.0713C45.4542 29.7435 45.9012 29.5188 46.389 29.4258C46.8768 29.3327 47.3835 29.3755 47.845 29.5485C48.3065 29.7216 48.7021 30.0173 48.9818 30.3982C49.2615 30.779 49.4127 31.228 49.4163 31.6883C49.4212 32.305 49.1609 32.8982 48.6928 33.3377C48.2247 33.7772 47.587 34.0271 46.9197 34.0324H46.9161Z" fill="#FD3E72"/>
</svg>
