<svg width="23" height="23" viewBox="0 0 23 23" fill="none" xmlns="http://www.w3.org/2000/svg">
<path d="M10.4839 8.81762C11.2199 9.01379 11.7539 9.67782 11.9585 10.6464C12.1022 11.3267 12.0631 12.1127 11.8573 12.7318C11.5369 13.696 10.8413 14.2404 9.99599 14.2317C9.15066 14.2404 8.45507 13.696 8.13468 12.7318C7.92894 12.1127 7.88977 11.3267 8.03348 10.6464C8.23807 9.67782 8.77211 9.01379 9.50808 8.81762C9.84179 8.7469 10.1743 8.75964 10.4839 8.81762Z" fill="black"/>
<path fill-rule="evenodd" clip-rule="evenodd" d="M11.4998 22.0767C17.3412 22.0767 22.0767 17.3412 22.0767 11.4998C22.0767 5.6583 17.3412 0.922852 11.4998 0.922852C5.6583 0.922852 0.922852 5.6583 0.922852 11.4998C0.922852 17.3412 5.6583 22.0767 11.4998 22.0767ZM5.1085 7.67553C4.70215 7.67553 4.37275 8.00494 4.37275 8.41128C4.37275 8.81763 4.70215 9.14703 5.1085 9.14703C5.51484 9.14703 5.84425 8.81763 5.84425 8.41128C5.84425 8.00494 5.51484 7.67553 5.1085 7.67553ZM4.42099 9.92048V15.324H5.796V9.92048H4.42099ZM9.99599 7.67553C9.42852 7.68298 8.93996 7.79421 8.45996 8.03334C7.23425 8.64396 6.52635 9.92983 6.52635 11.55C6.52635 13.1739 7.22267 14.4215 8.45273 15.0051C8.78502 15.1628 9.11808 15.2486 9.62373 15.3087C9.66287 15.3103 9.70162 15.3121 9.74008 15.3138C9.95308 15.3235 10.1571 15.3328 10.3683 15.3087C10.8739 15.2486 11.207 15.1628 11.5393 15.0051C12.7693 14.4215 13.4656 13.1739 13.4656 11.55C13.4656 9.92983 12.7577 8.64396 11.532 8.03334C11.052 7.79421 10.5635 7.68298 9.99599 7.67553ZM15.3188 15.288C15.3673 15.2961 15.416 15.3043 15.4648 15.3127C15.6274 15.3312 16.102 15.3261 16.3034 15.3036C17.3786 15.1836 18.0945 14.7421 18.4456 13.9825C18.5901 13.6698 18.6279 13.4808 18.6268 13.0757C18.6237 12.5894 18.4913 12.0987 18.0726 11.6805C17.7711 11.3742 17.4196 11.1689 16.6868 10.8711C15.692 10.4669 15.4217 10.2601 15.3344 9.83651C15.2111 9.16066 15.9102 8.77798 16.555 8.78698C17.0107 8.78959 17.5491 8.9255 18.0291 9.11563C18.0437 9.09341 18.3282 8.09035 18.3282 8.06122C18.3282 7.98232 17.7714 7.79869 17.2859 7.71745C16.949 7.66108 16.2642 7.66167 15.944 7.71861C14.8388 7.91514 14.1186 8.55827 13.9686 9.48269C13.9147 9.81507 13.9545 10.1956 14.0744 10.4945C14.3182 11.1024 14.9148 11.5699 15.932 11.9502C16.8441 12.2911 17.1765 12.5677 17.2509 13.0476C17.3171 13.4742 17.1201 13.8441 16.7201 14.0442C15.9864 14.3815 14.8982 14.0133 14.1252 13.7508C14.1121 13.7702 13.8217 14.855 13.8281 14.8607C14.2692 15.111 14.7824 15.1975 15.3188 15.288Z" fill="black"/>
</svg>
