<svg width="40" height="40" viewBox="0 0 40 40" fill="none" xmlns="http://www.w3.org/2000/svg">
<path d="M18.0791 14.9284C19.4708 15.2993 20.4806 16.5549 20.8674 18.3864C21.1392 19.6727 21.0651 21.1591 20.6761 22.3297C20.0703 24.1529 18.7549 25.1824 17.1565 25.1659C15.558 25.1824 14.2427 24.1529 13.6369 22.3297C13.2479 21.1591 13.1738 19.6727 13.4456 18.3864C13.8324 16.5549 14.8422 15.2993 16.2339 14.9284C16.8649 14.7946 17.4936 14.8187 18.0791 14.9284Z" fill="white"/>
<path fill-rule="evenodd" clip-rule="evenodd" d="M20 40.0001C31.0457 40.0001 40 31.0458 40 20.0001C40 8.95437 31.0457 6.10352e-05 20 6.10352e-05C8.95431 6.10352e-05 0 8.95437 0 20.0001C0 31.0458 8.95431 40.0001 20 40.0001ZM7.91467 12.7688C7.14631 12.7688 6.52344 13.3917 6.52344 14.16C6.52344 14.9284 7.14631 15.5512 7.91467 15.5512C8.68303 15.5512 9.30591 14.9284 9.30591 14.16C9.30591 13.3917 8.68303 12.7688 7.91467 12.7688ZM6.61467 17.0138V27.2313H9.21468V17.0138H6.61467ZM17.1565 12.7688C16.0834 12.7829 15.1596 12.9932 14.252 13.4453C11.9343 14.6 10.5957 17.0314 10.5957 20.095C10.5957 23.1656 11.9124 25.5248 14.2383 26.6284C14.8666 26.9265 15.4964 27.0888 16.4526 27.2025C16.5266 27.2055 16.5999 27.2088 16.6726 27.2121C17.0753 27.2305 17.4611 27.248 17.8604 27.2025C18.8166 27.0888 19.4463 26.9265 20.0747 26.6284C22.4006 25.5248 23.7173 23.1656 23.7173 20.095C23.7173 17.0314 22.3787 14.6 20.061 13.4453C19.1534 12.9932 18.2295 12.7829 17.1565 12.7688ZM27.2215 27.1632C27.3132 27.1786 27.4052 27.1942 27.4975 27.21C27.805 27.245 28.7023 27.2353 29.0833 27.1928C31.1163 26.9659 32.47 26.1311 33.1339 24.6946C33.4072 24.1033 33.4786 23.746 33.4765 22.98C33.4707 22.0604 33.2204 21.1327 32.4286 20.3419C31.8586 19.7627 31.1938 19.3743 29.8083 18.8113C27.9271 18.0469 27.4159 17.6559 27.2509 16.855C27.0178 15.577 28.3398 14.8534 29.5591 14.8704C30.4206 14.8754 31.4386 15.1323 32.3464 15.4919C32.374 15.4498 32.912 13.5532 32.912 13.4981C32.912 13.3489 31.8591 13.0016 30.941 12.848C30.3039 12.7414 29.0091 12.7426 28.4037 12.8502C26.3138 13.2218 24.952 14.4379 24.6684 16.1859C24.5664 16.8144 24.6416 17.534 24.8683 18.0992C25.3293 19.2486 26.4575 20.1326 28.381 20.8517C30.1057 21.4964 30.7341 22.0194 30.8749 22.9269C31.0001 23.7335 30.6275 24.433 29.8711 24.8114C28.4837 25.4491 26.4261 24.7529 24.9644 24.2566C24.9396 24.2932 24.3906 26.3446 24.4027 26.3552C25.2368 26.8286 26.2071 26.9922 27.2215 27.1632Z" fill="white"/>
</svg>
