<svg width="129" height="42" viewBox="0 0 129 42" fill="none" xmlns="http://www.w3.org/2000/svg">
<path d="M54.5466 21.9183H41.6367C41.0499 21.9183 40.6053 22.4333 40.712 23.0016C40.7298 23.126 40.7476 23.2503 40.7653 23.3746C40.8543 23.872 40.9965 24.3514 41.1921 24.8309C41.4944 25.5591 41.9745 26.1985 42.6325 26.7668C43.2726 27.3351 44.1796 27.6015 45.3354 27.6015C46.4912 27.6015 47.3804 27.3174 48.0383 26.7668C48.5539 26.3228 48.9452 25.8255 49.2475 25.2927C49.4075 25.0085 49.7276 24.8309 50.0476 24.8309H53.6575C54.3155 24.8309 54.76 25.4881 54.5466 26.0919C54.3865 26.5536 54.191 26.9976 53.9598 27.3883C53.5508 28.1165 53.1062 28.7559 52.6083 29.2887C52.1104 29.8215 51.5947 30.2655 51.0258 30.6207C50.4567 30.9759 49.9232 31.2601 49.3897 31.491C48.0916 31.9882 46.7401 32.2546 45.2998 32.2546C43.4149 32.2191 41.7434 31.8284 40.2852 31.0824C39.6628 30.745 39.0583 30.3188 38.4536 29.8037C37.8491 29.2887 37.3156 28.6316 36.8532 27.8501C36.3909 27.0687 36.0175 26.1274 35.733 25.0263C35.4484 23.9252 35.3062 22.6642 35.3062 21.1902C35.3062 19.7338 35.4484 18.4551 35.733 17.3539C36.0175 16.2528 36.3909 15.3116 36.8532 14.5123C37.3156 13.7132 37.8491 13.0561 38.4536 12.5232C39.0583 11.9905 39.6628 11.5642 40.2852 11.2268C41.7256 10.4453 43.3794 10.0369 45.2464 9.96582C45.282 9.96582 45.3176 9.96582 45.3532 9.96582C46.8825 10.0369 48.305 10.3565 49.6387 10.9249C50.2078 11.1735 50.7768 11.5109 51.3458 11.9194C51.9148 12.3279 52.4483 12.8252 52.9462 13.429C53.4441 14.0329 53.8708 14.7432 54.2443 15.5779C54.6177 16.4127 54.9022 17.3717 55.0623 18.4551C55.1156 18.8813 55.169 19.3075 55.2045 19.7515C55.2401 20.1955 55.2757 20.6751 55.2757 21.1902C55.2935 21.1546 55.4001 21.9183 54.5466 21.9183ZM48.3939 18.4195C49.0696 18.4195 49.5498 17.7092 49.2475 17.1054C49.2475 17.1054 49.2475 17.0876 49.2297 17.0876C49.0163 16.6436 48.7318 16.2352 48.3584 15.8621C47.985 15.507 47.5581 15.205 47.0602 14.9919C46.5623 14.7788 45.9578 14.6723 45.2998 14.6723C44.6241 14.6723 44.0373 14.7788 43.5394 14.9919C43.0415 15.205 42.5969 15.4892 42.2413 15.8621C41.8679 16.2352 41.5833 16.6259 41.3522 17.0876V17.1054C41.0499 17.727 41.53 18.4373 42.2057 18.4373H48.3939V18.4195Z" fill="white"/>
<path d="M71.4178 0.693381H62.3794C60.212 0.739816 59.1514 1.9007 59.1514 4.08316V32.2694H69.7115C72.5706 32.2694 74.7841 32.0372 76.352 31.6193C82.393 29.994 85.7132 24.2361 85.7132 16.4814C85.7132 6.40492 81.3785 0.693381 71.4178 0.693381ZM79.165 16.4814C79.165 23.1216 76.9515 26.5578 70.5877 26.5578H65.469V6.21918H71.4178C77.2282 6.21918 79.165 10.1662 79.165 16.4814Z" fill="#FD3E72"/>
<path d="M107.953 19.0116V31.8568H105.178C103.382 31.7329 102.485 30.8655 102.485 29.1308V17.8965C102.362 15.6248 101.138 14.5097 98.7302 14.5097C96.3226 14.5097 95.0984 15.6248 95.0576 17.8965V31.8568H89.5486V19.0116C89.5486 12.7749 92.6499 9.67725 98.8119 9.67725C104.974 9.67725 107.994 12.7749 107.953 19.0116Z" fill="#FD3E72"/>
<path d="M109.778 24.6701H115.328C115.451 27.0657 117.165 27.8917 119.817 27.8917C122.102 27.8917 123.245 27.2309 123.245 25.8266C123.245 24.7114 121.368 23.8028 117.654 23.1419C112.88 22.2746 110.431 20.1268 110.391 16.6987C110.391 11.9902 114.063 9.75985 119.001 9.67725C121.776 9.67725 123.979 10.2968 125.612 11.5359C127.203 12.8162 128.06 14.5923 128.183 16.8639H124.755C123.49 16.8226 122.674 16.3683 122.347 15.5009C121.98 14.551 120.878 14.014 119.083 14.014C116.961 14.014 115.9 14.5923 115.9 15.7074C115.9 16.8226 117.287 17.69 120.103 18.2269C123.775 18.9703 126.183 19.9203 127.366 21.0355C128.387 22.1093 128.876 23.431 128.876 24.9179C128.876 30.2873 124.714 32.2698 119.001 32.2698C115.981 32.2698 113.696 31.609 112.227 30.3286C110.595 29.0895 109.778 27.1896 109.778 24.6701Z" fill="#FD3E72"/>
<path d="M32.7728 1.05029C29.9276 1.05029 27.6337 3.34134 27.6337 6.18294V21.048C27.6337 21.6697 27.5981 22.2913 27.5269 22.9484C27.4559 23.5878 27.278 24.1738 26.9935 24.7067C26.709 25.2394 26.2822 25.6834 25.7132 26.0387C25.1442 26.3938 24.3262 26.5714 23.2948 26.5714C22.2634 26.5714 21.4454 26.3938 20.8764 26.0387C20.3074 25.6834 19.8806 25.2394 19.5961 24.7067C19.3116 24.1738 19.1338 23.5878 19.0626 22.9484C18.9915 22.3091 18.9559 21.6697 18.9559 21.048V5.72118C16.1107 5.72118 13.8169 8.01222 13.8169 10.8538V21.0303C13.8169 21.6519 13.7813 22.2735 13.7101 22.9306C13.639 23.57 13.4612 24.156 13.1767 24.6889C12.8921 25.2216 12.4654 25.6656 11.8963 26.0209C11.3273 26.3761 10.5093 26.5536 9.47795 26.5536C8.44658 26.5536 7.6286 26.3761 7.05957 26.0209C6.49053 25.6656 6.06376 25.2216 5.77924 24.6889C5.49472 24.156 5.3169 23.57 5.24577 22.9306C5.17464 22.2913 5.13908 21.6519 5.13908 21.0303V10.3921C2.29392 10.3921 0 12.7009 0 15.5247V21.0303C0 22.4866 0.142258 23.7653 0.426775 24.8665C0.711291 25.9676 1.06694 26.9089 1.49371 27.7081C1.93827 28.5072 2.43617 29.1644 3.0052 29.6972C3.57424 30.2299 4.16105 30.6562 4.74787 30.9937C6.11711 31.7751 7.69972 32.2013 9.46017 32.2546C11.2562 32.2013 12.8388 31.7751 14.2258 30.9937C14.8127 30.6562 15.3994 30.2299 15.9507 29.6972C16.093 29.5551 16.2352 29.413 16.3774 29.2532C16.5198 29.413 16.662 29.5551 16.8043 29.6972C17.3732 30.2299 17.9601 30.6562 18.5469 30.9937C19.9161 31.7751 21.4988 32.2013 23.2592 32.2546C25.0552 32.2013 26.6379 31.7751 28.0248 30.9937C28.6117 30.6562 29.1985 30.2299 29.7498 29.6972C30.3187 29.1644 30.8166 28.5072 31.2613 27.7081C31.7058 26.9089 32.0615 25.9676 32.3281 24.8665C32.5949 23.7653 32.7194 22.5044 32.7194 21.0303L32.7728 1.05029Z" fill="white"/>
<path d="M103.403 38.6943V38.6807C103.554 38.6163 103.68 38.5248 103.782 38.4029C103.882 38.2809 103.954 38.1522 103.996 38.0167C104.038 37.8812 104.059 37.7355 104.059 37.5796C104.059 37.19 103.936 36.8919 103.692 36.6852C103.448 36.482 103.093 36.377 102.63 36.377H101.05V41.3062H102.862C103.096 41.3062 103.304 41.2724 103.484 41.2046C103.665 41.1369 103.815 41.042 103.93 40.9201C104.044 40.7981 104.131 40.6558 104.192 40.4897C104.252 40.3272 104.282 40.1442 104.282 39.9443C104.282 39.6225 104.204 39.3549 104.053 39.138C103.9 38.9212 103.683 38.7755 103.403 38.6943ZM101.902 37.2408H102.464C102.627 37.2408 102.765 37.268 102.874 37.3154C102.982 37.3628 103.06 37.4306 103.108 37.5118C103.157 37.5966 103.181 37.6982 103.181 37.8134C103.181 37.9455 103.148 38.0573 103.084 38.1454C103.021 38.2335 102.943 38.2979 102.847 38.3385C102.75 38.3791 102.642 38.3961 102.522 38.3961H101.902V37.2408ZM102.6 40.4491H101.902V39.1821H102.609C102.859 39.1821 103.048 39.2397 103.181 39.3549C103.313 39.47 103.379 39.6259 103.379 39.8224C103.379 39.9613 103.346 40.0764 103.28 40.1713C103.214 40.2662 103.12 40.3339 103.006 40.3814C102.892 40.4288 102.756 40.4491 102.6 40.4491ZM109.444 41.3062H112.371V40.4356H110.298V39.2939H111.857V38.4334H110.298V37.251H112.242V36.377H109.444V41.3062ZM118.472 41.3062H119.335V37.251H120.548V36.377H117.265V37.251H118.472V41.3062ZM128.078 41.3062H128.983L127.355 36.377H126.519L124.897 41.3062H125.803L126.101 40.3204H127.78L128.078 41.3062ZM126.35 39.487L126.934 37.5525H126.94L127.527 39.487H126.35Z" fill="white"/>
</svg>
