<svg width="35" height="40" viewBox="0 0 35 40" fill="none" xmlns="http://www.w3.org/2000/svg">
<path d="M33.7225 31.1722C33.1041 32.5697 32.3721 33.8561 31.524 35.0388C30.368 36.6511 29.4214 37.7671 28.6919 38.3868C27.5611 39.4041 26.3495 39.925 25.0521 39.9547C24.1207 39.9547 22.9975 39.6954 21.69 39.1695C20.3782 38.646 19.1726 38.3868 18.0703 38.3868C16.9143 38.3868 15.6744 38.646 14.3482 39.1695C13.02 39.6954 11.95 39.9695 11.132 39.9966C9.88782 40.0485 8.64771 39.5127 7.40987 38.3868C6.61982 37.7127 5.63161 36.5572 4.44779 34.9202C3.17764 33.1721 2.1334 31.145 1.31533 28.834C0.439201 26.3378 0 23.9206 0 21.5804C0 18.8997 0.592164 16.5877 1.77826 14.6502C2.71042 13.094 3.95053 11.8664 5.50263 10.9652C7.05473 10.064 8.73176 9.60471 10.5378 9.57533C11.526 9.57533 12.8219 9.87433 14.4323 10.462C16.0381 11.0516 17.0693 11.3506 17.5213 11.3506C17.8593 11.3506 19.0048 11.001 20.9466 10.304C22.7829 9.65755 24.3327 9.3899 25.6024 9.49533C29.0428 9.76693 31.6275 11.0936 33.3464 13.4836C30.2695 15.3073 28.7475 17.8615 28.7777 21.1382C28.8055 23.6905 29.7521 25.8143 31.6124 27.5007C32.4554 28.2834 33.3969 28.8883 34.4444 29.3179C34.2173 29.9624 33.9775 30.5796 33.7225 31.1722ZM25.8321 0.800289C25.8321 2.80075 25.0849 4.66857 23.5957 6.3974C21.7985 8.45265 19.6247 9.64027 17.2674 9.45287C17.2374 9.21287 17.22 8.96029 17.22 8.69486C17.22 6.77443 18.0746 4.71918 19.5924 3.03874C20.3501 2.1879 21.3139 1.48044 22.4825 0.916087C23.6487 0.360153 24.7517 0.0527094 25.7892 6.10352e-05C25.8195 0.267491 25.8321 0.534937 25.8321 0.800263V0.800289Z" fill="white"/>
</svg>
