<svg width="21" height="23" viewBox="0 0 21 23" fill="none" xmlns="http://www.w3.org/2000/svg">
<path d="M19.8232 18.0675C19.4738 18.8362 19.0602 19.5437 18.581 20.1941C17.9278 21.0809 17.393 21.6947 16.9808 22.0356C16.3419 22.595 15.6573 22.8816 14.9243 22.8979C14.398 22.8979 13.7634 22.7553 13.0246 22.466C12.2834 22.1781 11.6023 22.0356 10.9795 22.0356C10.3263 22.0356 9.62577 22.1781 8.87646 22.466C8.12601 22.7553 7.52146 22.906 7.05923 22.921C6.35627 22.9495 5.6556 22.6548 4.9562 22.0356C4.50981 21.6648 3.95146 21.0293 3.28259 20.129C2.56494 19.1675 1.97493 18.0526 1.51271 16.7815C1.01769 15.4086 0.769531 14.0791 0.769531 12.792C0.769531 11.3177 1.10411 10.0461 1.77427 8.98045C2.30095 8.12451 3.00163 7.44932 3.87859 6.95366C4.75554 6.45799 5.70309 6.20541 6.72351 6.18925C7.28186 6.18925 8.01406 6.3537 8.92395 6.6769C9.83128 7.00119 10.4139 7.16564 10.6693 7.16564C10.8603 7.16564 11.5075 6.97335 12.6046 6.58999C13.6422 6.23447 14.5178 6.08727 15.2352 6.14525C17.1791 6.29463 18.6395 7.02427 19.6107 8.3388C17.8722 9.34181 17.0122 10.7466 17.0293 12.5488C17.045 13.9526 17.5798 15.1207 18.6309 16.0482C19.1072 16.4787 19.6392 16.8114 20.2311 17.0477C20.1027 17.4021 19.9672 17.7416 19.8232 18.0675ZM15.365 1.36298C15.365 2.46323 14.9428 3.49053 14.1014 4.44139C13.0859 5.57177 11.8577 6.22496 10.5258 6.12189C10.5089 5.9899 10.499 5.85098 10.499 5.70499C10.499 4.64875 10.9819 3.51837 11.8395 2.59412C12.2676 2.12616 12.8121 1.73706 13.4724 1.42667C14.1313 1.1209 14.7546 0.951808 15.3407 0.922852C15.3578 1.06994 15.365 1.21703 15.365 1.36296V1.36298Z" fill="black"/>
</svg>
