<svg width="570" height="473" viewBox="0 0 570 473" fill="none" xmlns="http://www.w3.org/2000/svg">
<circle cx="292.5" cy="236.5" r="236.5" fill="#67344E"/>
<path d="M362.198 114.306H10.188C4.66514 114.306 0.187988 118.784 0.187988 124.306V349.173C0.187988 354.695 4.66512 359.173 10.188 359.173H362.198C367.721 359.173 372.198 354.695 372.198 349.173V124.306C372.198 118.784 367.721 114.306 362.198 114.306Z" fill="#EBEBEB"/>
<path d="M372.198 359.182C372.198 357.502 372.119 263.676 371.99 114.306L372.198 114.514H0.217511L0.474577 114.257C0.474577 201.37 0.474577 284.31 0.474577 359.133L0.237288 358.896L372.248 359.133L0.237288 359.36H0V359.133C0 284.26 0 201.37 0 114.257V114H0.286725L372.267 114.059H372.465V114.257C372.257 263.676 372.198 357.512 372.198 359.182Z" fill="#263238"/>
<path d="M372.198 136.097C372.198 136.235 288.912 136.354 186.198 136.354C83.4842 136.354 0.187988 136.235 0.187988 136.097C0.187988 135.958 83.4545 135.84 186.198 135.84C288.942 135.84 372.198 135.958 372.198 136.097Z" fill="#263238"/>
<path d="M346.72 172.322H34.8508V215.003H346.72V172.322Z" fill="#E0E0E0"/>
<path d="M98.7492 289.649H29.512V358.886H98.7492V289.649Z" fill="#E0E0E0"/>
<path d="M180.592 289.649H111.355V358.886H180.592V289.649Z" fill="#E0E0E0"/>
<path d="M259.993 289.649H190.755V358.886H259.993V289.649Z" fill="#E0E0E0"/>
<path d="M153.314 260.305H78.2632C75.2311 260.305 72.3231 259.101 70.1781 256.958C68.0332 254.815 66.8268 251.908 66.8242 248.875C66.8373 245.85 68.0482 242.953 70.192 240.819C72.3359 238.684 75.238 237.486 78.2632 237.486H153.314C156.348 237.486 159.257 238.691 161.402 240.836C163.548 242.981 164.753 245.891 164.753 248.925C164.737 251.948 163.525 254.843 161.382 256.975C159.238 259.108 156.337 260.305 153.314 260.305Z" fill="#FD3E72"/>
<path d="M241.05 260.305L242.038 260.235C242.385 260.235 242.79 260.117 243.284 260.038C245.465 259.579 247.464 258.492 249.035 256.911C250.605 255.33 251.679 253.323 252.123 251.14C252.665 248.404 252.194 245.565 250.798 243.151C249.967 241.73 248.836 240.507 247.483 239.568C246.131 238.629 244.59 237.996 242.968 237.713C241.138 237.536 239.298 237.48 237.461 237.545H231.529H218.676L78.1748 237.624C75.2619 237.603 72.4558 238.72 70.3546 240.738C68.2534 242.755 67.0234 245.514 66.9267 248.425C66.83 251.337 67.8743 254.171 69.8369 256.323C71.7996 258.476 74.5254 259.777 77.4333 259.949C79.0251 260.028 80.6762 259.949 82.2877 259.949H119.591L182.757 260.008L225.34 260.087L236.917 260.137H239.883H240.872H239.883H236.917L225.34 260.186L182.757 260.265H119.591H82.2877C80.6663 260.265 79.0646 260.265 77.4037 260.265C75.7258 260.16 74.0902 259.695 72.6086 258.901C70.3221 257.661 68.514 255.695 67.4702 253.313C66.4263 250.93 66.2062 248.268 66.8448 245.747C67.4833 243.226 68.944 240.989 70.996 239.391C73.0479 237.793 75.574 236.924 78.1748 236.922L218.676 236.992H231.529H237.461C239.315 236.922 241.172 236.988 243.017 237.189C244.542 237.459 245.996 238.031 247.295 238.873C248.594 239.715 249.71 240.81 250.578 242.092C251.445 243.373 252.047 244.816 252.346 246.335C252.646 247.853 252.637 249.417 252.321 250.932C251.838 253.139 250.729 255.161 249.127 256.755C247.948 257.908 246.535 258.794 244.985 259.355C244.436 259.552 243.874 259.71 243.304 259.83C242.8 259.899 242.385 259.978 242.048 259.998L241.05 260.305Z" fill="#263238"/>
<path d="M140.906 268.303H141.766L140.718 273.533H143.961L143.813 274.275H139.72L140.906 268.303Z" fill="#263238"/>
<path d="M144.614 272.377C144.602 272.023 144.662 271.672 144.791 271.343C144.921 271.014 145.116 270.715 145.365 270.465C145.615 270.215 145.913 270.018 146.241 269.888C146.569 269.758 146.921 269.696 147.274 269.707C147.547 269.677 147.824 269.706 148.085 269.793C148.346 269.88 148.585 270.022 148.786 270.21C148.987 270.397 149.145 270.626 149.249 270.881C149.353 271.136 149.401 271.41 149.39 271.684C149.403 272.037 149.344 272.389 149.216 272.719C149.089 273.048 148.894 273.348 148.646 273.599C148.398 273.85 148.1 274.047 147.772 274.179C147.445 274.311 147.093 274.373 146.74 274.364C146.467 274.384 146.193 274.348 145.935 274.257C145.677 274.166 145.441 274.023 145.241 273.836C145.042 273.65 144.883 273.423 144.775 273.172C144.667 272.921 144.612 272.65 144.614 272.377ZM148.569 271.704C148.584 271.527 148.559 271.348 148.496 271.182C148.432 271.016 148.333 270.866 148.203 270.743C148.074 270.621 147.919 270.529 147.75 270.475C147.58 270.42 147.401 270.404 147.224 270.429C146.98 270.43 146.739 270.48 146.515 270.578C146.292 270.676 146.091 270.819 145.925 270.998C145.759 271.177 145.632 271.388 145.551 271.619C145.47 271.849 145.437 272.094 145.455 272.337C145.442 272.514 145.468 272.691 145.532 272.857C145.596 273.022 145.696 273.172 145.824 273.294C145.953 273.416 146.107 273.508 146.276 273.563C146.445 273.618 146.623 273.635 146.799 273.612C147.043 273.612 147.284 273.561 147.507 273.463C147.73 273.365 147.931 273.222 148.096 273.042C148.261 272.863 148.387 272.652 148.467 272.422C148.547 272.191 148.578 271.947 148.559 271.704H148.569Z" fill="#263238"/>
<path d="M155.193 269.756L154.303 274.275H153.512L153.621 273.721C153.409 273.923 153.159 274.081 152.886 274.186C152.613 274.291 152.322 274.342 152.029 274.334C151.765 274.35 151.501 274.31 151.254 274.216C151.007 274.122 150.782 273.977 150.596 273.79C150.409 273.603 150.264 273.379 150.17 273.132C150.076 272.885 150.036 272.62 150.052 272.357C150.033 272.01 150.085 271.664 150.206 271.339C150.326 271.013 150.512 270.716 150.752 270.466C150.992 270.216 151.281 270.017 151.601 269.883C151.921 269.749 152.265 269.683 152.612 269.687C152.933 269.656 153.256 269.716 153.544 269.859C153.832 270.002 154.075 270.224 154.244 270.498L154.392 269.737L155.193 269.756ZM153.977 271.734C153.99 271.556 153.964 271.377 153.899 271.211C153.835 271.045 153.734 270.895 153.604 270.773C153.474 270.651 153.319 270.559 153.149 270.504C152.979 270.45 152.799 270.434 152.622 270.458C152.379 270.46 152.139 270.512 151.916 270.611C151.694 270.71 151.494 270.853 151.329 271.031C151.164 271.21 151.038 271.421 150.957 271.651C150.877 271.88 150.845 272.124 150.862 272.367C150.849 272.543 150.876 272.721 150.939 272.887C151.003 273.052 151.103 273.201 151.232 273.323C151.361 273.445 151.515 273.537 151.684 273.592C151.852 273.647 152.031 273.664 152.207 273.642C152.454 273.643 152.699 273.592 152.925 273.493C153.152 273.394 153.355 273.248 153.522 273.066C153.688 272.883 153.815 272.668 153.893 272.433C153.972 272.199 154 271.95 153.977 271.704V271.734Z" fill="#263238"/>
<path d="M161.382 267.947L160.116 274.275H159.335L159.444 273.721C159.011 274.128 158.436 274.348 157.843 274.334C157.579 274.35 157.315 274.31 157.067 274.216C156.82 274.122 156.596 273.977 156.409 273.79C156.222 273.603 156.077 273.379 155.983 273.132C155.89 272.885 155.849 272.621 155.865 272.357C155.848 272.011 155.901 271.665 156.022 271.34C156.143 271.016 156.329 270.719 156.569 270.469C156.809 270.219 157.097 270.021 157.417 269.886C157.736 269.752 158.079 269.684 158.426 269.687C158.749 269.656 159.074 269.717 159.364 269.862C159.654 270.007 159.898 270.231 160.067 270.508L160.581 267.927L161.382 267.947ZM159.79 271.704C159.805 271.527 159.78 271.348 159.717 271.182C159.654 271.016 159.554 270.866 159.425 270.743C159.295 270.621 159.14 270.529 158.971 270.475C158.801 270.42 158.622 270.404 158.446 270.429C158.202 270.43 157.96 270.48 157.737 270.578C157.513 270.676 157.312 270.819 157.146 270.998C156.98 271.177 156.853 271.388 156.772 271.619C156.691 271.849 156.658 272.094 156.676 272.337C156.662 272.515 156.689 272.693 156.753 272.86C156.818 273.026 156.919 273.176 157.049 273.298C157.179 273.42 157.334 273.512 157.504 273.566C157.674 273.621 157.854 273.636 158.03 273.612C158.274 273.612 158.515 273.561 158.738 273.463C158.961 273.365 159.162 273.222 159.327 273.042C159.492 272.863 159.619 272.652 159.698 272.422C159.778 272.191 159.809 271.947 159.79 271.704Z" fill="#263238"/>
<path d="M162.568 269.756H163.389L162.499 274.275H161.669L162.568 269.756ZM162.707 268.392C162.705 268.315 162.72 268.238 162.749 268.166C162.779 268.095 162.823 268.03 162.879 267.976C162.934 267.922 163 267.881 163.073 267.854C163.145 267.826 163.223 267.815 163.3 267.819C163.365 267.816 163.43 267.826 163.491 267.849C163.552 267.871 163.608 267.905 163.655 267.949C163.703 267.993 163.742 268.046 163.769 268.105C163.796 268.164 163.812 268.228 163.814 268.293C163.817 268.372 163.803 268.45 163.775 268.523C163.746 268.597 163.702 268.663 163.647 268.719C163.591 268.774 163.524 268.818 163.451 268.847C163.378 268.876 163.3 268.889 163.221 268.886C163.155 268.888 163.089 268.876 163.027 268.852C162.966 268.828 162.909 268.792 162.861 268.746C162.814 268.7 162.775 268.645 162.749 268.584C162.722 268.524 162.708 268.458 162.707 268.392Z" fill="#263238"/>
<path d="M168.906 271.21C168.904 271.389 168.887 271.567 168.857 271.744L168.353 274.275H167.532L168.036 271.744C168.044 271.619 168.044 271.493 168.036 271.368C168.036 270.775 167.7 270.449 166.988 270.449C166.577 270.426 166.173 270.564 165.862 270.833C165.55 271.103 165.355 271.482 165.317 271.892L164.833 274.275H164.012L164.912 269.756H165.703L165.584 270.33C165.802 270.122 166.06 269.959 166.342 269.852C166.624 269.745 166.924 269.696 167.225 269.707C167.439 269.671 167.658 269.684 167.866 269.744C168.074 269.804 168.266 269.91 168.427 270.054C168.588 270.199 168.715 270.378 168.798 270.578C168.881 270.778 168.918 270.994 168.906 271.21Z" fill="#263238"/>
<path d="M175.114 269.756L174.343 273.711C174.323 274.044 174.237 274.369 174.089 274.667C173.941 274.965 173.734 275.231 173.482 275.448C173.229 275.664 172.935 275.828 172.618 275.929C172.3 276.03 171.966 276.066 171.634 276.035C170.891 276.072 170.159 275.844 169.568 275.392L170.023 274.769C170.497 275.143 171.09 275.336 171.694 275.313C171.909 275.339 172.128 275.321 172.336 275.26C172.545 275.2 172.739 275.097 172.907 274.96C173.075 274.822 173.214 274.652 173.314 274.46C173.415 274.267 173.476 274.056 173.493 273.84L173.562 273.513C173.119 273.93 172.529 274.155 171.921 274.136C171.667 274.16 171.411 274.13 171.17 274.048C170.928 273.966 170.707 273.833 170.52 273.66C170.334 273.486 170.186 273.275 170.086 273.04C169.987 272.805 169.938 272.552 169.944 272.297C169.937 271.958 169.999 271.622 170.127 271.308C170.254 270.994 170.445 270.709 170.686 270.471C170.928 270.233 171.216 270.047 171.532 269.924C171.848 269.801 172.185 269.744 172.524 269.756C172.86 269.727 173.198 269.793 173.498 269.949C173.798 270.105 174.046 270.344 174.215 270.636L174.383 269.806L175.114 269.756ZM173.859 271.595C173.859 270.874 173.364 270.429 172.514 270.429C172.279 270.419 172.044 270.458 171.824 270.544C171.605 270.629 171.405 270.759 171.238 270.925C171.071 271.091 170.94 271.29 170.853 271.509C170.767 271.728 170.726 271.963 170.735 272.199C170.735 272.93 171.239 273.375 172.089 273.375C172.325 273.383 172.559 273.343 172.778 273.256C172.998 273.17 173.196 273.039 173.363 272.872C173.529 272.705 173.659 272.505 173.744 272.285C173.829 272.066 173.868 271.831 173.859 271.595Z" fill="#263238"/>
<path d="M177.794 273.78C177.79 273.699 177.802 273.618 177.831 273.542C177.859 273.466 177.903 273.396 177.96 273.338C178.017 273.279 178.085 273.233 178.16 273.202C178.235 273.171 178.316 273.156 178.397 273.157C178.469 273.157 178.54 273.172 178.606 273.2C178.672 273.228 178.732 273.269 178.781 273.321C178.831 273.372 178.87 273.434 178.896 273.501C178.922 273.568 178.933 273.639 178.931 273.711C178.935 273.791 178.922 273.872 178.894 273.947C178.866 274.023 178.823 274.091 178.768 274.15C178.712 274.208 178.646 274.254 178.572 274.286C178.498 274.318 178.418 274.334 178.337 274.334C178.265 274.334 178.194 274.319 178.127 274.292C178.06 274.264 178 274.223 177.949 274.171C177.899 274.12 177.859 274.058 177.832 273.991C177.806 273.924 177.792 273.852 177.794 273.78Z" fill="#263238"/>
<path d="M179.732 273.78C179.728 273.699 179.74 273.618 179.769 273.542C179.798 273.466 179.841 273.396 179.898 273.338C179.955 273.279 180.023 273.233 180.098 273.202C180.173 273.171 180.254 273.156 180.335 273.157C180.407 273.157 180.478 273.172 180.544 273.2C180.61 273.228 180.67 273.269 180.719 273.321C180.769 273.372 180.808 273.434 180.834 273.501C180.859 273.568 180.871 273.639 180.869 273.711C180.873 273.791 180.86 273.872 180.832 273.947C180.804 274.023 180.761 274.091 180.706 274.15C180.65 274.208 180.584 274.254 180.51 274.286C180.436 274.318 180.356 274.334 180.275 274.334C180.203 274.334 180.132 274.319 180.065 274.292C179.998 274.264 179.938 274.223 179.887 274.171C179.837 274.12 179.797 274.058 179.77 273.991C179.743 273.924 179.73 273.852 179.732 273.78Z" fill="#263238"/>
<path d="M181.66 273.78C181.657 273.698 181.671 273.617 181.701 273.541C181.73 273.465 181.775 273.396 181.833 273.337C181.89 273.279 181.959 273.233 182.034 273.202C182.11 273.171 182.191 273.156 182.273 273.157C182.345 273.157 182.416 273.172 182.482 273.2C182.548 273.228 182.608 273.269 182.657 273.321C182.707 273.372 182.746 273.434 182.772 273.501C182.797 273.568 182.809 273.639 182.807 273.711C182.811 273.791 182.798 273.872 182.77 273.947C182.742 274.023 182.699 274.091 182.644 274.15C182.588 274.208 182.521 274.254 182.447 274.286C182.374 274.318 182.294 274.334 182.213 274.334C182.067 274.334 181.926 274.275 181.822 274.172C181.718 274.068 181.66 273.927 181.66 273.78Z" fill="#263238"/>
<path d="M24.3552 126.26C24.3552 126.799 24.1952 127.327 23.8953 127.776C23.5955 128.224 23.1693 128.574 22.6707 128.781C22.1721 128.987 21.6234 129.041 21.0941 128.936C20.5648 128.831 20.0786 128.571 19.6969 128.189C19.3153 127.807 19.0554 127.321 18.9501 126.792C18.8448 126.263 18.8989 125.714 19.1054 125.215C19.312 124.717 19.6617 124.29 20.1104 123.991C20.5592 123.691 21.0868 123.531 21.6265 123.531C22.3502 123.531 23.0442 123.818 23.556 124.33C24.0677 124.842 24.3552 125.536 24.3552 126.26Z" fill="#263238"/>
<path d="M35.9822 126.26C35.9822 126.799 35.8221 127.327 35.5223 127.776C35.2225 128.224 34.7963 128.574 34.2977 128.781C33.7991 128.987 33.2504 129.041 32.7211 128.936C32.1917 128.831 31.7055 128.571 31.3239 128.189C30.9423 127.807 30.6824 127.321 30.5771 126.792C30.4718 126.263 30.5258 125.714 30.7324 125.215C30.9389 124.717 31.2887 124.29 31.7374 123.991C32.1861 123.691 32.7137 123.531 33.2534 123.531C33.9771 123.531 34.6712 123.818 35.1829 124.33C35.6947 124.842 35.9822 125.536 35.9822 126.26Z" fill="#263238"/>
<path d="M47.5698 126.26C47.5698 126.8 47.4095 127.328 47.1092 127.777C46.809 128.226 46.3822 128.575 45.883 128.782C45.3838 128.988 44.8346 129.041 44.305 128.935C43.7755 128.829 43.2893 128.568 42.908 128.186C42.5268 127.803 42.2677 127.316 42.1635 126.786C42.0594 126.256 42.1148 125.707 42.3229 125.208C42.5309 124.71 42.8822 124.284 43.3322 123.986C43.7823 123.687 44.3108 123.529 44.8509 123.531C45.5729 123.533 46.2645 123.822 46.7741 124.334C47.2837 124.845 47.5698 125.538 47.5698 126.26Z" fill="#263238"/>
<g style="mix-blend-mode:color">
<path d="M362.198 114.306H10.188C4.66514 114.306 0.187988 118.784 0.187988 124.306V349.173C0.187988 354.695 4.66512 359.173 10.188 359.173H362.198C367.721 359.173 372.198 354.695 372.198 349.173V124.306C372.198 118.784 367.721 114.306 362.198 114.306Z" fill="#FD3E72"/>
</g>
<path d="M379.769 425.769C484.286 425.769 569.014 341.041 569.014 236.524C569.014 132.007 484.286 47.2792 379.769 47.2792C275.252 47.2792 190.525 132.007 190.525 236.524C190.525 341.041 275.252 425.769 379.769 425.769Z" fill="#F5F5F5"/>
<path d="M568.956 236.524C568.956 236.524 568.956 235.486 568.841 233.454C568.841 232.431 568.769 231.177 568.726 229.679C568.683 228.18 568.726 226.422 568.466 224.462C568.207 222.502 568.135 220.268 567.933 217.847C567.731 215.426 567.299 212.76 566.939 209.892C565.993 203.299 564.714 196.758 563.106 190.293C561.041 182.212 558.452 174.274 555.352 166.53C551.698 157.307 547.293 148.4 542.181 139.898C529.726 119.104 513.431 100.867 494.164 86.1599C470.756 68.3431 443.503 56.2518 414.586 50.853C390.084 46.323 364.934 46.6118 340.543 51.7033C323.188 55.364 306.446 61.4882 290.825 69.8899C282.734 74.2573 274.957 79.1833 267.551 84.6323C252.276 95.9157 238.798 109.447 227.575 124.767C221.801 132.615 216.651 140.902 212.17 149.554C211.089 151.759 209.85 153.877 208.884 156.168L205.8 162.913C203.97 167.51 202.097 172.121 200.584 176.877C197.392 186.402 194.982 196.171 193.378 206.088C191.799 216.148 190.97 226.312 190.899 236.495C190.965 246.678 191.788 256.842 193.364 266.902C194.974 276.827 197.384 286.605 200.569 296.142L201.78 299.673L202.37 301.445L203.048 303.175C204.009 305.5 204.921 307.81 205.786 310.106L208.841 316.851C209.807 319.113 211.046 321.26 212.127 323.465C216.607 332.121 221.758 340.414 227.532 348.266C233.22 355.952 239.442 363.229 246.151 370.041C252.829 376.644 259.95 382.783 267.465 388.415C274.906 393.857 282.711 398.783 290.825 403.158C298.734 407.363 306.919 411.027 315.324 414.125C323.578 417.077 332.017 419.484 340.586 421.33C364.977 426.424 390.128 426.713 414.63 422.18C443.542 416.773 470.789 404.677 494.192 386.859C513.467 372.156 529.768 353.919 542.224 333.121C547.326 324.616 551.727 315.709 555.381 306.489C558.51 298.755 561.119 290.821 563.192 282.74C564.979 275.433 566.233 268.876 567.04 263.141C567.386 260.259 567.775 257.636 568.034 255.2C568.293 252.765 568.394 250.56 568.553 248.586C568.711 246.612 568.784 244.868 568.812 243.369C568.841 241.87 568.899 240.602 568.928 239.593C568.928 237.561 569.043 236.524 569.043 236.524C569.043 236.524 569.043 237.561 569.043 239.593C569.043 240.602 569.043 241.87 568.956 243.369C568.87 244.868 568.956 246.626 568.726 248.6C568.495 250.575 568.423 252.779 568.236 255.215C568.049 257.65 567.631 260.302 567.285 263.17C566.357 269.777 565.092 276.333 563.495 282.812C561.468 290.916 558.897 298.875 555.799 306.633C552.147 315.91 547.737 324.871 542.613 333.423C530.16 354.289 513.85 372.595 494.553 387.363C471.089 405.242 443.759 417.369 414.759 422.771C390.175 427.328 364.938 427.059 340.456 421.979C322.991 418.33 306.141 412.19 290.421 403.749C282.298 399.365 274.488 394.425 267.047 388.963C259.499 383.312 252.344 377.154 245.632 370.531C238.884 363.691 232.624 356.386 226.898 348.67C221.097 340.786 215.922 332.46 211.421 323.768C210.34 321.563 209.1 319.445 208.12 317.139L205.051 310.366C204.143 308.045 203.235 305.74 202.313 303.42L201.621 301.676L201.03 299.903L199.82 296.344C196.62 286.772 194.21 276.954 192.614 266.989C189.3 246.775 189.3 226.157 192.614 205.944C194.21 195.983 196.62 186.17 199.82 176.603C201.333 171.833 203.221 167.222 205.051 162.596L208.12 155.822C209.1 153.546 210.34 151.398 211.421 149.193C215.919 140.504 221.094 132.183 226.898 124.306C232.616 116.583 238.877 109.278 245.632 102.444C252.352 95.8554 259.511 89.731 267.061 84.1135C274.497 78.6269 282.308 73.667 290.436 69.2702C306.155 60.8287 323.005 54.6894 340.471 51.0404C364.945 45.9399 390.18 45.6658 414.759 50.2334C443.758 55.6847 471.079 67.845 494.538 85.742C513.839 100.506 530.15 118.813 542.599 139.682C547.701 148.215 552.096 157.151 555.742 166.4C558.837 174.159 561.408 182.118 563.437 190.221C565.21 197.542 566.434 204.128 567.227 209.864C567.573 212.746 567.948 215.383 568.178 217.818C568.409 220.254 568.524 222.473 568.668 224.447C568.812 226.422 568.956 228.223 568.956 229.664C568.956 231.105 568.956 232.431 569.043 233.454C568.956 235.429 568.956 236.524 568.956 236.524Z" fill="#263238"/>
<path d="M303.939 302.584C290.241 288.053 281.128 269.807 277.74 250.127C274.353 230.446 276.84 210.204 284.892 191.929C292.944 173.654 306.202 158.157 323.011 147.375C339.821 136.593 359.435 131.004 379.402 131.306C399.37 131.608 418.806 137.789 435.281 149.074C451.756 160.36 464.54 176.251 472.035 194.761C479.53 213.271 481.404 233.579 477.423 253.148C473.441 272.717 463.781 290.679 449.648 304.789L500.779 354.708C524.856 330.809 541.315 300.313 548.08 267.07C554.845 233.826 551.613 199.323 538.79 167.915C525.968 136.506 504.131 109.599 476.033 90.5877C447.935 71.5764 414.836 61.3129 380.912 61.0921C346.988 60.8713 313.758 70.7031 285.415 89.347C257.072 107.991 234.886 134.612 221.656 165.851C208.426 197.09 204.745 231.547 211.076 264.876C217.408 298.205 233.469 328.912 257.233 353.123L303.939 302.584Z" fill="#FD3E72"/>
<g opacity="0.8">
<path opacity="0.8" d="M479.554 231.965L551.484 231.999C553.197 283.772 527.77 327.779 500.916 354.634L449.704 304.671C462.195 291.556 478.269 271.355 479.554 231.965Z" fill="black"/>
</g>
<g opacity="0.7">
<path opacity="0.7" d="M451.51 163.031L502.675 112.723C536.927 148.474 551.485 191.29 551.485 231.999H479.554C478.698 206.061 470.134 183.155 451.51 163.031Z" fill="black"/>
</g>
<g opacity="0.5">
<path opacity="0.5" d="M383.245 131.578L383.949 61.0966C437.166 63.6984 472.489 83.1796 502.711 112.901L451.509 163.031C433.313 144.62 411.905 133.274 383.245 131.578Z" fill="black"/>
</g>
<g opacity="0.3">
<path opacity="0.3" d="M254.178 115.452C255.619 115.913 301.014 165.891 301.014 165.891C323.688 142.503 350.118 130.169 383.301 131.468L383.95 61.0965C332.146 60.3917 289.504 79.4218 254.178 115.452Z" fill="black"/>
</g>
<g opacity="0.1">
<path opacity="0.1" d="M201.953 231.999C203.394 232.935 304.689 231.999 304.689 231.999L302.902 165.305L253.991 113.425L220.63 153.084L201.953 231.999Z" fill="black"/>
</g>
<path d="M381.686 275.952C403.461 275.952 421.114 258.299 421.114 236.524C421.114 214.748 403.461 197.095 381.686 197.095C359.91 197.095 342.257 214.748 342.257 236.524C342.257 258.299 359.91 275.952 381.686 275.952Z" fill="#E0E0E0"/>
<path d="M370.086 239.161C370.913 241.995 372.827 244.386 375.41 245.814C377.994 247.242 381.037 247.591 383.877 246.784L521.012 207.875L379.482 224.908C377.869 225.105 376.319 225.649 374.939 226.504C373.558 227.36 372.38 228.505 371.486 229.861C370.592 231.217 370.004 232.751 369.762 234.357C369.52 235.963 369.631 237.602 370.086 239.161Z" fill="#455A64"/>
<path d="M360.631 321.808L353.095 360.069H343.093L347.028 339.894L334.288 356.293H329.533L322.529 339.908L318.494 360.083H308.536L316.188 321.822H324.993L334.058 343.943L351.351 321.808H360.631Z" fill="#263238"/>
<path d="M397.466 330.44L391.558 360.069H381.715L382.32 357.288C380.001 359.46 376.922 360.635 373.746 360.559C367.347 360.559 361.223 355.703 361.223 347.056C361.223 337.228 368.428 329.95 377.291 329.95C381.283 329.95 384.496 331.161 386.37 334L387.076 330.44H397.466ZM384.395 343.943C384.463 343.186 384.364 342.423 384.106 341.707C383.848 340.992 383.438 340.341 382.903 339.8C382.368 339.26 381.721 338.842 381.008 338.577C380.295 338.312 379.533 338.206 378.775 338.265C374.668 338.265 371.714 341.594 371.714 346.566C371.648 347.323 371.748 348.084 372.008 348.798C372.268 349.512 372.681 350.16 373.218 350.697C373.755 351.234 374.403 351.647 375.117 351.906C375.83 352.166 376.592 352.267 377.349 352.201C381.513 352.157 384.41 348.872 384.41 343.943H384.395Z" fill="#263238"/>
<path d="M420.524 345.37L428.551 360.069H417.512L413.462 352.316L406.257 360.069H394.584L409.398 344.952L401.573 330.541H412.454L416.388 338.092L423.449 330.541H434.935L420.524 345.37Z" fill="#263238"/>
<path d="M431.317 354.881C431.293 354.001 431.449 353.125 431.777 352.308C432.104 351.49 432.596 350.749 433.221 350.129C433.847 349.509 434.592 349.024 435.412 348.704C436.232 348.383 437.11 348.234 437.989 348.266C438.75 348.223 439.512 348.34 440.225 348.609C440.938 348.878 441.586 349.293 442.129 349.828C442.672 350.363 443.097 351.005 443.377 351.714C443.657 352.423 443.785 353.183 443.754 353.944C443.776 354.819 443.619 355.689 443.295 356.501C442.97 357.313 442.483 358.051 441.865 358.67C441.246 359.288 440.508 359.775 439.696 360.1C438.884 360.424 438.014 360.581 437.139 360.559C436.378 360.59 435.619 360.466 434.908 360.194C434.197 359.921 433.549 359.507 433.004 358.975C432.459 358.443 432.028 357.806 431.738 357.102C431.448 356.398 431.305 355.642 431.317 354.881Z" fill="#263238"/>
<path d="M453.02 195.078C452.918 194.906 452.827 194.728 452.746 194.545L451.968 192.96C451.636 192.268 451.247 191.374 450.729 190.38L448.855 186.936C448.134 185.668 447.227 184.299 446.29 182.771C445.353 181.243 444.157 179.701 442.918 178.03C440.021 174.29 436.836 170.782 433.392 167.539C424.352 159.131 413.558 152.836 401.789 149.107C394.854 146.927 387.642 145.757 380.374 145.634C364.689 145.292 349.229 149.404 335.787 157.494C329.547 161.231 323.87 165.836 318.926 171.17C310.568 180.259 304.327 191.086 300.653 202.874C299.281 207.396 298.26 212.016 297.598 216.694C297.353 218.755 297.165 220.701 297.036 222.459C296.906 224.217 296.863 225.874 296.877 227.344C296.892 228.814 296.877 230.111 296.964 231.249C297.05 232.388 297.122 233.339 297.165 234.132C297.209 234.924 297.266 235.457 297.295 235.89C297.308 236.091 297.308 236.293 297.295 236.495C297.247 236.301 297.213 236.103 297.194 235.904C297.194 235.472 297.079 234.881 297.007 234.146C296.935 233.411 296.791 232.417 296.719 231.264C296.647 230.111 296.632 228.814 296.574 227.344C296.517 225.874 296.574 224.231 296.661 222.43C296.747 220.629 296.935 218.697 297.165 216.666C297.755 211.947 298.719 207.282 300.048 202.716C303.684 190.821 309.926 179.887 318.321 170.709C323.293 165.312 329.015 160.658 335.311 156.889C348.86 148.701 364.462 144.547 380.288 144.913C387.626 145.05 394.906 146.244 401.904 148.458C413.759 152.259 424.616 158.659 433.68 167.193C437.12 170.478 440.295 174.03 443.177 177.814C444.416 179.514 445.526 181.114 446.52 182.627C447.515 184.14 448.336 185.509 449.042 186.835L450.858 190.322C451.363 191.331 451.723 192.225 452.04 192.945C452.357 193.666 452.573 194.17 452.746 194.559C452.85 194.725 452.942 194.898 453.02 195.078Z" fill="#263238"/>
<path d="M436.722 191.101C436.464 190.844 436.237 190.559 436.044 190.25C435.612 189.674 435.05 188.809 434.2 187.714C431.887 184.634 429.333 181.743 426.562 179.067C422.468 175.123 417.921 171.679 413.016 168.807C400.96 161.669 387.015 158.376 373.04 159.368C367.369 159.743 361.762 160.788 356.337 162.48C352.67 163.638 349.099 165.084 345.659 166.804C344.434 167.366 343.526 167.913 342.877 168.245C342.559 168.429 342.227 168.588 341.883 168.72C342.168 168.487 342.478 168.284 342.805 168.115C343.425 167.755 344.246 167.164 345.529 166.559C348.934 164.74 352.493 163.226 356.164 162.034C368.357 158.038 381.416 157.485 393.902 160.434C406.389 163.384 417.82 169.722 426.937 178.75C429.687 181.456 432.194 184.397 434.43 187.541C435.252 188.636 435.77 189.559 436.174 190.164C436.374 190.466 436.557 190.778 436.722 191.101Z" fill="#263238"/>
</svg>
