<svg width="224" height="141" viewBox="0 0 224 141" fill="none" xmlns="http://www.w3.org/2000/svg">
<path d="M147.047 129.167L162.387 95.1955L158.837 93.562L143.458 127.533L147.047 129.167ZM186.416 104.997C184.965 104.997 183.631 105.288 182.434 105.832C181.218 106.377 180.217 107.174 179.394 108.224H179.315C178.139 106.085 176.197 104.997 173.47 104.997C172.313 104.997 171.194 105.268 170.135 105.774C169.076 106.279 168.135 107.018 167.349 107.971H167.291V105.288H162.799V124.714H167.291V115.03C167.291 113.183 167.723 111.724 168.605 110.655C169.488 109.585 170.625 109.041 171.999 109.041C174.588 109.041 175.902 110.907 175.902 114.603V124.734H180.394V115.03C180.394 113.183 180.826 111.724 181.689 110.655C182.551 109.585 183.65 109.041 184.965 109.041C187.515 109.041 188.809 110.907 188.809 114.603V124.734H193.301V113.474C193.301 110.635 192.693 108.516 191.516 107.116C190.32 105.715 188.613 104.997 186.416 104.997ZM207.993 125.025C209.954 125.025 211.72 124.616 213.29 123.78C214.859 122.945 216.074 121.758 216.957 120.241C217.821 118.724 218.271 116.974 218.271 115.03C218.271 113.085 217.821 111.335 216.957 109.8C216.074 108.282 214.859 107.096 213.309 106.26C211.74 105.424 209.975 104.997 207.993 104.997C205.953 104.997 204.148 105.443 202.58 106.318C201.01 107.193 199.794 108.38 198.95 109.896C198.107 111.414 197.695 113.124 197.695 115.03C197.695 116.449 197.93 117.772 198.441 118.997C198.93 120.241 199.617 121.291 200.5 122.186C201.383 123.08 202.481 123.761 203.775 124.266C205.07 124.773 206.463 125.025 207.993 125.025ZM207.993 120.981C206.326 120.981 204.953 120.416 203.874 119.269C202.795 118.142 202.266 116.722 202.266 115.03C202.266 113.319 202.795 111.899 203.855 110.752C204.914 109.625 206.287 109.041 207.993 109.041C209.621 109.041 210.975 109.605 212.073 110.713C213.152 111.841 213.701 113.28 213.701 115.03C213.701 116.761 213.152 118.181 212.054 119.308C210.956 120.436 209.601 120.981 207.993 120.981Z" fill="white"/>
<path d="M120.156 63.9454V63.7612C123.687 61.7347 126.846 59.3399 129.447 56.3923C132.049 53.4448 134.001 50.1288 135.394 46.4444C136.787 42.76 137.531 38.7071 137.531 34.4699C137.531 27.3774 135.673 21.206 131.956 15.8636C128.239 10.6133 123.222 6.65249 117.089 3.98128C110.958 1.40217 103.989 0.0205078 96.2766 0.0205078C86.985 0.0205078 78.9013 2.04694 71.9326 6.09982C64.871 10.1527 59.7606 15.4952 56.6016 22.1271L74.1626 31.5224C79.1801 24.0615 86.3346 20.2849 95.8119 20.2849C101.201 20.2849 105.847 21.9429 109.656 25.2589C113.466 28.5748 115.417 32.7199 115.417 37.786C115.417 40.1808 115.046 42.2994 114.302 44.3258C113.559 46.3522 112.537 48.1944 111.051 49.7604C109.563 51.4184 107.613 52.6158 105.104 53.5369C102.595 54.458 99.7144 54.9185 96.3694 54.9185H84.3834V73.5249H94.3252C102.13 73.5249 108.077 75.4593 112.351 79.1437C116.625 82.8281 118.762 87.4337 118.762 92.8682C118.762 98.5791 116.532 103.277 112.258 106.777C107.984 110.369 102.688 112.119 96.3694 112.119C83.6399 112.119 75.1847 106.962 70.9105 96.6448L51.8628 105.027C55.2078 113.225 60.8756 119.856 69.0522 124.923C77.1359 129.989 86.7062 132.476 97.8561 132.476C106.033 132.476 113.466 131.002 120.063 127.963C126.66 125.015 131.863 120.685 135.58 115.159C139.296 109.632 141.248 103.185 141.248 96C141.248 91.0261 140.318 86.4204 138.553 82.1834C136.787 77.9463 134.372 74.354 131.213 71.3143C128.054 68.2747 124.43 65.7876 120.156 63.9454Z" fill="white"/>
<path d="M165.214 47.6519C168.652 47.6519 171.656 46.7307 174.196 44.8577C176.736 43.0155 178.687 40.4058 179.988 37.0897C181.288 33.7738 181.97 29.9359 181.97 25.5759C181.97 22.1371 181.537 19.0054 180.731 16.2114C179.895 13.4479 178.749 11.1145 177.263 9.27229C175.776 7.43006 174.011 5.987 171.966 5.00448C169.922 4.02197 167.661 3.5 165.214 3.5C161.776 3.5 158.803 4.45182 156.264 6.29403C153.724 8.16696 151.772 10.7768 150.472 14.0928C149.14 17.4087 148.49 21.2467 148.49 25.5759C148.49 29.0147 148.892 32.1465 149.729 34.9405C150.534 37.7346 151.68 40.068 153.166 41.9102C154.653 43.7524 156.418 45.1955 158.463 46.178C160.506 47.1606 162.737 47.6519 165.214 47.6519ZM165.246 40.897C162.396 40.897 160.135 39.5461 158.463 36.8135C156.79 34.0808 155.954 30.335 155.954 25.5759C155.954 20.7862 156.759 17.0096 158.431 14.3076C160.073 11.6057 162.334 10.2548 165.246 10.2548C168.095 10.2548 170.324 11.6057 171.997 14.3076C173.669 17.0096 174.505 20.7862 174.505 25.5759C174.505 30.3964 173.669 34.1422 172.059 36.8441C170.417 39.5461 168.157 40.897 165.246 40.897ZM202.499 47.6519C205.937 47.6519 208.942 46.7307 211.481 44.8577C214.022 43.0155 215.972 40.4058 217.273 37.0897C218.574 33.7738 219.256 29.9359 219.256 25.5759C219.256 22.1371 218.822 19.0054 218.017 16.2114C217.18 13.4479 216.034 11.1145 214.548 9.27229C213.061 7.43006 211.295 5.987 209.252 5.00448C207.207 4.02197 204.947 3.5 202.499 3.5C199.062 3.5 196.089 4.45182 193.548 6.29403C191.009 8.16696 189.057 10.7768 187.757 14.0928C186.425 17.4087 185.775 21.2467 185.775 25.5759C185.775 29.0147 186.178 32.1465 187.014 34.9405C187.818 37.7346 188.964 40.068 190.452 41.9102C191.938 43.7524 193.704 45.1955 195.747 46.178C197.792 47.1606 200.021 47.6519 202.499 47.6519ZM202.53 40.897C199.681 40.897 197.42 39.5461 195.747 36.8135C194.075 34.0808 193.239 30.335 193.239 25.5759C193.239 20.7862 194.044 17.0096 195.717 14.3076C197.358 11.6057 199.619 10.2548 202.53 10.2548C205.38 10.2548 207.61 11.6057 209.282 14.3076C210.955 17.0096 211.791 20.7862 211.791 25.5759C211.791 30.3964 210.955 34.1422 209.345 36.8441C207.703 39.5461 205.442 40.897 202.53 40.897Z" fill="white"/>
<path d="M147.944 61.833H219.832" stroke="#FD3E72" stroke-width="6"/>
<path d="M40.7718 47.8987C40.7718 46.8599 40.6634 45.8927 40.5189 44.9614C40.3382 44.0659 40.1214 43.242 39.8324 42.4898C39.5432 41.7734 39.1819 41.057 38.676 40.4121C38.1702 39.7674 37.6643 39.1942 37.1585 38.6927C36.6525 38.1913 36.0021 37.7256 35.2072 37.2241C34.4122 36.7226 33.6534 36.3286 32.9669 35.9704C32.2803 35.6122 31.4132 35.254 30.4014 34.8599C29.3535 34.5017 28.4141 34.1793 27.5829 33.8927C26.7157 33.6062 25.704 33.2838 24.4754 32.8898C22.8856 32.3883 21.6209 31.9584 20.6452 31.5644C19.6696 31.1704 18.7663 30.7047 17.9352 30.1674C17.1041 29.6658 16.4899 29.057 16.1285 28.4122C15.7672 27.7674 15.5865 27.0509 15.5865 26.1913C15.5865 24.5793 16.2007 23.3256 17.4654 22.43C18.694 21.5346 20.4285 21.0689 22.5964 21.0689C23.7528 21.0689 24.9451 21.248 26.246 21.5346C27.5469 21.8211 28.8838 22.2868 30.3291 22.9316C31.7383 23.5763 33.1114 24.3286 34.4122 25.2599L39.4349 19.0271C37.7727 17.7375 35.8576 16.5913 33.6173 15.5883C31.377 14.5853 29.1006 13.8689 26.8242 13.4033V3.80322H20.1393V13.045C15.8033 13.439 12.4067 14.8718 9.94961 17.3793C7.4925 19.8868 6.30008 23.039 6.30008 26.7644C6.30008 28.054 6.44462 29.2361 6.73369 30.3107C7.02277 31.3853 7.42023 32.3524 7.92611 33.1406C8.39584 33.9286 9.04626 34.7167 9.87734 35.4331C10.7084 36.1495 11.5034 36.7584 12.2983 37.2599C13.0933 37.7614 14.0688 38.2271 15.2613 38.7286C16.4537 39.23 17.5377 39.6599 18.4772 39.9823C19.4167 40.3047 20.573 40.6629 21.9822 41.0928C23.7166 41.6301 25.0897 42.0957 26.1375 42.5255C27.1855 42.9554 28.1249 43.4569 28.9921 44.0301C29.8594 44.6032 30.4736 45.2838 30.835 46.0002C31.1963 46.7167 31.377 47.5764 31.377 48.5435C31.377 49.4031 31.1963 50.1913 30.835 50.9077C30.4736 51.6241 29.9678 52.1973 29.3174 52.6629C28.6669 53.1285 27.872 53.4867 26.9687 53.7375C26.0292 54.0241 25.0536 54.1316 23.9696 54.1316C21.7292 54.1316 19.3805 53.6658 16.9957 52.6629C14.5748 51.6957 12.3706 50.2629 10.3832 48.3286L5.17993 54.5614C9.40759 58.7167 14.3941 61.1525 20.1393 61.9405V70.7524H26.8242V61.9763C31.1602 61.4748 34.5568 59.9704 37.05 57.4629C39.5071 54.9554 40.7718 51.7674 40.7718 47.8987Z" fill="white"/>
</svg>
