<svg width="482" height="376" viewBox="0 0 482 376" fill="none" xmlns="http://www.w3.org/2000/svg">
<circle opacity="0.6" cx="235" cy="188" r="188" fill="#67344E"/>
<rect x="86.5071" y="200.866" width="4.71507" height="292.334" transform="rotate(-90 86.5071 200.866)" fill="white"/>
<ellipse cx="181.982" cy="198.616" rx="26.0403" ry="8.63776" transform="rotate(-90 181.982 198.616)" fill="url(#paint0_linear)"/>
<ellipse cx="241.175" cy="198.616" rx="26.0403" ry="8.63776" transform="rotate(-90 241.175 198.616)" fill="url(#paint1_linear)"/>
<ellipse cx="196.717" cy="198.616" rx="26.0403" ry="8.63776" transform="rotate(-90 196.717 198.616)" fill="url(#paint2_linear)"/>
<ellipse cx="255.911" cy="198.616" rx="26.0403" ry="8.63776" transform="rotate(-90 255.911 198.616)" fill="url(#paint3_linear)"/>
<ellipse cx="211.451" cy="198.616" rx="26.0403" ry="8.63776" transform="rotate(-90 211.451 198.616)" fill="url(#paint4_linear)"/>
<ellipse cx="270.638" cy="199.04" rx="26.0403" ry="8.63776" transform="rotate(-90 270.638 199.04)" fill="url(#paint5_linear)"/>
<ellipse cx="226.187" cy="198.616" rx="26.0403" ry="8.63776" transform="rotate(-90 226.187 198.616)" fill="url(#paint6_linear)"/>
<ellipse cx="285.38" cy="198.616" rx="26.0403" ry="8.63776" transform="rotate(-90 285.38 198.616)" fill="url(#paint7_linear)"/>
<mask id="path-11-inside-1" fill="white">
<path fill-rule="evenodd" clip-rule="evenodd" d="M440.906 230.963C431.149 240.209 417.971 245.88 403.468 245.88C390.339 245.88 378.296 241.233 368.893 233.493C363.153 237.149 356.338 239.268 349.028 239.268C328.578 239.268 312 222.69 312 202.24C312 181.79 328.578 165.212 349.028 165.212C351.218 165.212 353.364 165.402 355.45 165.767C364.623 148.645 382.685 137 403.468 137C429.725 137 451.64 155.588 456.772 180.324C470.519 181.637 481.271 193.218 481.271 207.309C481.271 222.282 469.134 234.419 454.161 234.419C449.347 234.419 444.825 233.164 440.906 230.963Z"/>
</mask>
<path fill-rule="evenodd" clip-rule="evenodd" d="M440.906 230.963C431.149 240.209 417.971 245.88 403.468 245.88C390.339 245.88 378.296 241.233 368.893 233.493C363.153 237.149 356.338 239.268 349.028 239.268C328.578 239.268 312 222.69 312 202.24C312 181.79 328.578 165.212 349.028 165.212C351.218 165.212 353.364 165.402 355.45 165.767C364.623 148.645 382.685 137 403.468 137C429.725 137 451.64 155.588 456.772 180.324C470.519 181.637 481.271 193.218 481.271 207.309C481.271 222.282 469.134 234.419 454.161 234.419C449.347 234.419 444.825 233.164 440.906 230.963Z" fill="#FD3E72"/>
<path d="M440.906 230.963L442.375 228.347L440.448 227.265L438.843 228.786L440.906 230.963ZM368.893 233.493L370.8 231.177L369.118 229.793L367.282 230.963L368.893 233.493ZM355.45 165.767L354.933 168.722L357.07 169.095L358.094 167.183L355.45 165.767ZM456.772 180.324L453.834 180.933L454.284 183.099L456.487 183.31L456.772 180.324ZM438.843 228.786C429.621 237.524 417.173 242.88 403.468 242.88V248.88C418.769 248.88 432.678 242.893 442.97 233.141L438.843 228.786ZM403.468 242.88C391.06 242.88 379.685 238.491 370.8 231.177L366.987 235.81C376.907 243.975 389.618 248.88 403.468 248.88V242.88ZM349.028 242.268C356.926 242.268 364.298 239.977 370.505 236.024L367.282 230.963C362.009 234.322 355.75 236.268 349.028 236.268V242.268ZM309 202.24C309 224.347 326.921 242.268 349.028 242.268V236.268C330.235 236.268 315 221.033 315 202.24H309ZM349.028 162.212C326.921 162.212 309 180.133 309 202.24H315C315 183.447 330.235 168.212 349.028 168.212V162.212ZM355.966 162.811C353.711 162.417 351.392 162.212 349.028 162.212V168.212C351.044 168.212 353.017 168.387 354.933 168.722L355.966 162.811ZM358.094 167.183C366.766 150.998 383.835 140 403.468 140V134C381.536 134 362.48 146.293 352.805 164.35L358.094 167.183ZM403.468 140C428.274 140 448.986 157.562 453.834 180.933L459.709 179.714C454.294 153.615 431.175 134 403.468 134V140ZM484.271 207.309C484.271 191.656 472.329 178.796 457.057 177.337L456.487 183.31C468.71 184.478 478.271 194.779 478.271 207.309H484.271ZM454.161 237.419C470.79 237.419 484.271 223.938 484.271 207.309H478.271C478.271 220.625 467.477 231.419 454.161 231.419V237.419ZM439.437 233.579C443.793 236.025 448.819 237.419 454.161 237.419V231.419C449.874 231.419 445.857 230.303 442.375 228.347L439.437 233.579Z" fill="white" mask="url(#path-11-inside-1)"/>
<path d="M360.65 204H363.482V189.791H360.65V204ZM372.242 194.068C371.637 194.068 371.061 194.195 370.514 194.439C369.967 194.684 369.498 195.035 369.107 195.494H369.078V194.234H366.461V204H369.078V199.088C369.078 198.238 369.273 197.584 369.674 197.115C370.074 196.656 370.611 196.422 371.295 196.422C371.93 196.422 372.398 196.607 372.711 196.969C373.014 197.34 373.17 197.965 373.17 198.863V204.01H375.787V198.209C375.787 197.477 375.699 196.842 375.533 196.295C375.357 195.758 375.113 195.328 374.791 195.006C374.469 194.693 374.098 194.459 373.678 194.303C373.258 194.146 372.779 194.068 372.242 194.068ZM381.334 204.166C381.93 204.166 382.418 204.117 382.799 204.01C383.17 203.912 383.551 203.756 383.922 203.551L383.248 201.461C382.799 201.695 382.389 201.803 382.018 201.803C381.705 201.803 381.49 201.705 381.354 201.5C381.217 201.305 381.158 200.982 381.158 200.553V196.402H383.814V194.234H381.158V190.758L378.541 191.041V194.234H377.389V196.402H378.541V200.914C378.541 201.988 378.785 202.799 379.283 203.346C379.781 203.893 380.465 204.166 381.334 204.166ZM394.371 199.029C394.371 198.082 394.166 197.232 393.775 196.48C393.375 195.729 392.809 195.143 392.086 194.713C391.354 194.283 390.514 194.068 389.576 194.068C388.893 194.068 388.248 194.195 387.652 194.439C387.047 194.693 386.539 195.035 386.109 195.475C385.68 195.914 385.348 196.451 385.104 197.076C384.85 197.701 384.732 198.385 384.732 199.107C384.732 200.104 384.947 200.992 385.387 201.764C385.826 202.545 386.432 203.141 387.193 203.551C387.955 203.961 388.805 204.166 389.762 204.166C390.699 204.166 391.52 204 392.242 203.668C392.955 203.336 393.531 202.887 393.98 202.32L392.281 200.738C391.666 201.48 390.885 201.852 389.947 201.842C389.322 201.842 388.785 201.666 388.346 201.334C387.906 201.002 387.613 200.553 387.457 199.967H394.303C394.342 199.811 394.371 199.498 394.371 199.029ZM389.664 196.373C390.211 196.373 390.67 196.529 391.031 196.832C391.383 197.135 391.637 197.555 391.773 198.082H387.467C387.613 197.535 387.877 197.105 388.268 196.812C388.658 196.52 389.117 196.373 389.664 196.373ZM402.057 194.068C401.471 194.068 400.934 194.215 400.426 194.488C399.918 194.762 399.479 195.162 399.107 195.67H399.078V194.234H396.461V204H399.078V199.469C399.078 198.727 399.293 198.111 399.732 197.633C400.172 197.164 400.787 196.92 401.568 196.92C401.764 196.92 401.998 196.93 402.262 196.949V194.078C402.223 194.078 402.154 194.068 402.057 194.068ZM409.742 194.068C409.137 194.068 408.561 194.195 408.014 194.439C407.467 194.684 406.998 195.035 406.607 195.494H406.578V194.234H403.961V204H406.578V199.088C406.578 198.238 406.773 197.584 407.174 197.115C407.574 196.656 408.111 196.422 408.795 196.422C409.43 196.422 409.898 196.607 410.211 196.969C410.514 197.34 410.67 197.965 410.67 198.863V204.01H413.287V198.209C413.287 197.477 413.199 196.842 413.033 196.295C412.857 195.758 412.613 195.328 412.291 195.006C411.969 194.693 411.598 194.459 411.178 194.303C410.758 194.146 410.279 194.068 409.742 194.068ZM424.898 199.029C424.898 198.082 424.693 197.232 424.303 196.48C423.902 195.729 423.336 195.143 422.613 194.713C421.881 194.283 421.041 194.068 420.104 194.068C419.42 194.068 418.775 194.195 418.18 194.439C417.574 194.693 417.066 195.035 416.637 195.475C416.207 195.914 415.875 196.451 415.631 197.076C415.377 197.701 415.26 198.385 415.26 199.107C415.26 200.104 415.475 200.992 415.914 201.764C416.354 202.545 416.959 203.141 417.721 203.551C418.482 203.961 419.332 204.166 420.289 204.166C421.227 204.166 422.047 204 422.77 203.668C423.482 203.336 424.059 202.887 424.508 202.32L422.809 200.738C422.193 201.48 421.412 201.852 420.475 201.842C419.85 201.842 419.312 201.666 418.873 201.334C418.434 201.002 418.141 200.553 417.984 199.967H424.83C424.869 199.811 424.898 199.498 424.898 199.029ZM420.191 196.373C420.738 196.373 421.197 196.529 421.559 196.832C421.91 197.135 422.164 197.555 422.301 198.082H417.994C418.141 197.535 418.404 197.105 418.795 196.812C419.186 196.52 419.645 196.373 420.191 196.373ZM430.025 204.166C430.621 204.166 431.109 204.117 431.49 204.01C431.861 203.912 432.242 203.756 432.613 203.551L431.939 201.461C431.49 201.695 431.08 201.803 430.709 201.803C430.396 201.803 430.182 201.705 430.045 201.5C429.908 201.305 429.85 200.982 429.85 200.553V196.402H432.506V194.234H429.85V190.758L427.232 191.041V194.234H426.08V196.402H427.232V200.914C427.232 201.988 427.477 202.799 427.975 203.346C428.473 203.893 429.156 204.166 430.025 204.166Z" fill="white"/>
<path d="M29.9744 144H143.627C145.708 144 147.79 146.082 147.79 148.163V226.429H25.8113V148.163C25.8113 146.082 27.8928 144 29.9744 144Z" fill="#727F96"/>
<path d="M25.8112 226.429H147.79L173.601 246.828H0L25.8112 226.429Z" fill="#4E5A6F"/>
<path d="M0 246.828H173.601V251.408C173.601 252.449 172.56 253.489 171.519 253.489H2.08155C1.04077 253.489 0 252.449 0 251.408V246.828Z" fill="#384254"/>
<rect x="30" y="148" width="114.485" height="73.2705" fill="white"/>
<path d="M144.5 148H30V155H144.5V148Z" fill="#AFADB2"/>
<circle cx="36.5" cy="151.5" r="1.5" fill="white"/>
<circle cx="43.5" cy="151.5" r="1.5" fill="white"/>
<circle cx="50.5" cy="151.5" r="1.5" fill="white"/>
<g opacity="0.6">
<rect opacity="0.4" x="58.4468" y="196.888" width="57.5442" height="3.40315" fill="#C4C4C4"/>
<rect opacity="0.4" x="73.2971" y="161" width="27.5346" height="3.40315" fill="#C4C4C4"/>
<rect opacity="0.4" x="49.1655" y="178.634" width="9.28133" height="9.28133" fill="#C4C4C4"/>
<rect opacity="0.4" x="47" y="189.463" width="13.6126" height="0.928133" fill="#C4C4C4"/>
<rect opacity="0.4" x="49.1655" y="191.01" width="9.28133" height="0.928133" fill="#C4C4C4"/>
<rect opacity="0.4" x="65.8721" y="203.694" width="9.28133" height="9.28133" fill="#C4C4C4"/>
<rect opacity="0.4" x="65.8718" y="214.522" width="9.28133" height="0.928133" fill="#C4C4C4"/>
<rect opacity="0.4" x="82.5781" y="203.694" width="9.28133" height="9.28133" fill="#C4C4C4"/>
<rect opacity="0.4" x="82.5779" y="214.522" width="9.28133" height="0.928133" fill="#C4C4C4"/>
<rect opacity="0.4" x="99.2847" y="203.694" width="9.28133" height="9.28133" fill="#C4C4C4"/>
<rect opacity="0.4" x="99.2844" y="214.522" width="9.28133" height="0.928133" fill="#C4C4C4"/>
<rect opacity="0.4" x="82.5779" y="178.635" width="9.28133" height="9.28133" fill="#C4C4C4"/>
<rect opacity="0.4" x="80.4124" y="189.463" width="13.6126" height="0.928133" fill="#C4C4C4"/>
<rect opacity="0.4" x="82.5779" y="191.01" width="9.28133" height="0.928133" fill="#C4C4C4"/>
<rect opacity="0.4" x="99.2844" y="178.635" width="9.28133" height="9.28133" fill="#C4C4C4"/>
<rect opacity="0.4" x="97.1189" y="189.463" width="13.6126" height="0.928133" fill="#C4C4C4"/>
<rect opacity="0.4" x="99.2844" y="191.01" width="9.28133" height="0.928133" fill="#C4C4C4"/>
<rect opacity="0.4" x="115.991" y="178.635" width="9.28133" height="9.28133" fill="#C4C4C4"/>
<rect opacity="0.4" x="113.825" y="189.463" width="13.6126" height="0.928133" fill="#C4C4C4"/>
<rect opacity="0.4" x="115.991" y="191.01" width="9.28133" height="0.928133" fill="#C4C4C4"/>
<rect opacity="0.4" x="65.8721" y="178.635" width="9.28133" height="9.28133" fill="#C4C4C4"/>
<rect opacity="0.4" x="63.7065" y="189.463" width="13.6126" height="0.928133" fill="#C4C4C4"/>
<rect opacity="0.4" x="65.8721" y="191.01" width="9.28133" height="0.928133" fill="#C4C4C4"/>
<rect x="56.8406" y="167.747" width="60.4474" height="4.75942" rx="2.37971" stroke="#C4C4C4" stroke-width="0.5"/>
</g>
<path d="M29.5579 228.927H144.043L152.369 236.212H20.8154L29.5579 228.927Z" fill="#7C899E"/>
<path d="M73.8948 238.502H100.122L107.408 244.331H66.6094L73.8948 238.502Z" fill="#C4C4C4"/>
<g style="mix-blend-mode:color">
<path d="M145 148H30V221H145V148Z" fill="#FD3E72"/>
</g>
<g filter="url(#filter0_d)">
<circle cx="237.668" cy="198.668" r="36.6682" fill="white"/>
</g>
<path d="M249.742 207.295H246.058V187.242C246.058 184.972 245.156 182.796 243.551 181.191C241.946 179.586 239.77 178.684 237.5 178.684C235.23 178.684 233.053 179.586 231.449 181.191C229.844 182.796 228.942 184.972 228.942 187.242V207.295H225.258V187.242C225.258 185.634 225.574 184.043 226.19 182.557C226.805 181.072 227.707 179.722 228.843 178.586C229.98 177.449 231.33 176.547 232.815 175.932C234.3 175.317 235.892 175 237.5 175C239.108 175 240.699 175.317 242.185 175.932C243.67 176.547 245.02 177.449 246.156 178.586C247.293 179.722 248.195 181.072 248.81 182.557C249.425 184.043 249.742 185.634 249.742 187.242V207.295Z" fill="#263238"/>
<path d="M250.942 198.374H224.058C222.369 198.374 221 199.743 221 201.432V216.489C221 218.178 222.369 219.547 224.058 219.547H250.942C252.631 219.547 254 218.178 254 216.489V201.432C254 199.743 252.631 198.374 250.942 198.374Z" fill="#FD3E72"/>
<path d="M222.758 217.537C222.684 217.537 222.621 214.005 222.621 209.642C222.621 205.279 222.684 201.747 222.758 201.747C222.832 201.747 222.895 205.279 222.895 209.642C222.895 214.005 222.853 217.537 222.758 217.537Z" fill="#FAFAFA"/>
<path d="M235.805 208.815H233.484C233.379 208.815 233.299 208.908 233.318 209.01C233.321 209.032 233.324 209.055 233.327 209.077C233.343 209.166 233.369 209.252 233.404 209.339C233.459 209.47 233.545 209.584 233.663 209.687C233.778 209.789 233.941 209.837 234.149 209.837C234.357 209.837 234.516 209.786 234.635 209.687C234.727 209.607 234.798 209.517 234.852 209.422C234.881 209.371 234.938 209.339 234.996 209.339H235.645C235.763 209.339 235.843 209.457 235.805 209.565C235.776 209.648 235.741 209.728 235.699 209.798C235.626 209.929 235.546 210.044 235.456 210.14C235.367 210.236 235.274 210.315 235.172 210.379C235.069 210.443 234.974 210.494 234.878 210.536C234.644 210.625 234.401 210.673 234.143 210.673C233.804 210.667 233.503 210.596 233.241 210.462C233.129 210.402 233.021 210.325 232.912 210.232C232.803 210.14 232.707 210.022 232.624 209.881C232.541 209.741 232.474 209.572 232.423 209.374C232.372 209.176 232.346 208.949 232.346 208.684C232.346 208.422 232.372 208.193 232.423 207.995C232.474 207.797 232.541 207.628 232.624 207.484C232.707 207.34 232.803 207.222 232.912 207.126C233.021 207.031 233.129 206.954 233.241 206.893C233.5 206.753 233.797 206.679 234.133 206.667C234.139 206.667 234.146 206.667 234.152 206.667C234.427 206.679 234.683 206.737 234.922 206.839C235.025 206.884 235.127 206.944 235.229 207.018C235.332 207.091 235.427 207.181 235.517 207.289C235.606 207.398 235.683 207.525 235.75 207.675C235.817 207.825 235.869 207.998 235.897 208.193C235.907 208.269 235.916 208.346 235.923 208.426C235.929 208.505 235.936 208.592 235.936 208.684C235.939 208.678 235.958 208.815 235.805 208.815ZM234.699 208.186C234.82 208.186 234.906 208.059 234.852 207.95C234.852 207.95 234.852 207.947 234.849 207.947C234.811 207.867 234.759 207.794 234.692 207.727C234.625 207.663 234.548 207.608 234.459 207.57C234.369 207.532 234.261 207.513 234.143 207.513C234.021 207.513 233.916 207.532 233.826 207.57C233.737 207.608 233.657 207.659 233.593 207.727C233.526 207.794 233.474 207.864 233.433 207.947V207.95C233.379 208.062 233.465 208.189 233.586 208.189H234.699V208.186Z" fill="white"/>
<path d="M238.837 205H237.213C236.823 205.008 236.632 205.217 236.632 205.609V210.676H238.53C239.044 210.676 239.442 210.634 239.724 210.559C240.81 210.267 241.407 209.232 241.407 207.838C241.407 206.027 240.628 205 238.837 205ZM240.23 207.838C240.23 209.031 239.832 209.649 238.688 209.649H237.768V205.993H238.837C239.882 205.993 240.23 206.703 240.23 207.838Z" fill="white"/>
<path d="M245.404 208.293V210.601H244.905C244.582 210.579 244.421 210.423 244.421 210.112V208.092C244.399 207.684 244.179 207.483 243.746 207.483C243.314 207.483 243.094 207.684 243.086 208.092V210.601H242.096V208.293C242.096 207.172 242.653 206.615 243.761 206.615C244.869 206.615 245.411 207.172 245.404 208.293Z" fill="white"/>
<path d="M245.732 209.31H246.73C246.752 209.74 247.06 209.889 247.537 209.889C247.947 209.889 248.153 209.77 248.153 209.518C248.153 209.317 247.815 209.154 247.148 209.035C246.29 208.879 245.85 208.493 245.842 207.877C245.842 207.031 246.502 206.63 247.39 206.615C247.889 206.615 248.285 206.726 248.578 206.949C248.864 207.179 249.018 207.498 249.04 207.907H248.424C248.197 207.899 248.05 207.817 247.991 207.662C247.925 207.491 247.727 207.394 247.405 207.394C247.023 207.394 246.832 207.498 246.832 207.699C246.832 207.899 247.082 208.055 247.588 208.152C248.248 208.285 248.681 208.456 248.894 208.656C249.077 208.849 249.165 209.087 249.165 209.354C249.165 210.319 248.417 210.676 247.39 210.676C246.847 210.676 246.436 210.557 246.172 210.327C245.879 210.104 245.732 209.763 245.732 209.31Z" fill="white"/>
<path d="M231.891 205.064C231.379 205.064 230.967 205.476 230.967 205.987V208.659C230.967 208.77 230.961 208.882 230.948 209C230.935 209.115 230.903 209.221 230.852 209.316C230.801 209.412 230.724 209.492 230.622 209.556C230.52 209.62 230.373 209.652 230.187 209.652C230.002 209.652 229.855 209.62 229.752 209.556C229.65 209.492 229.573 209.412 229.522 209.316C229.471 209.221 229.439 209.115 229.426 209C229.414 208.885 229.407 208.77 229.407 208.659V205.904C228.896 205.904 228.484 206.316 228.484 206.826V208.656C228.484 208.767 228.477 208.879 228.464 208.997C228.452 209.112 228.42 209.217 228.368 209.313C228.317 209.409 228.241 209.489 228.138 209.553C228.036 209.616 227.889 209.648 227.704 209.648C227.518 209.648 227.371 209.616 227.269 209.553C227.167 209.489 227.09 209.409 227.039 209.313C226.988 209.217 226.956 209.112 226.943 208.997C226.93 208.882 226.924 208.767 226.924 208.656V206.743C226.412 206.743 226 207.158 226 207.666V208.656C226 208.917 226.026 209.147 226.077 209.345C226.128 209.543 226.192 209.712 226.268 209.856C226.348 209.999 226.438 210.118 226.54 210.213C226.642 210.309 226.748 210.386 226.853 210.446C227.1 210.587 227.384 210.663 227.7 210.673C228.023 210.663 228.308 210.587 228.557 210.446C228.663 210.386 228.768 210.309 228.867 210.213C228.893 210.188 228.918 210.162 228.944 210.134C228.969 210.162 228.995 210.188 229.02 210.213C229.123 210.309 229.228 210.386 229.334 210.446C229.58 210.587 229.864 210.663 230.181 210.673C230.504 210.663 230.788 210.587 231.037 210.446C231.143 210.386 231.248 210.309 231.347 210.213C231.45 210.118 231.539 209.999 231.619 209.856C231.699 209.712 231.763 209.543 231.811 209.345C231.859 209.147 231.881 208.92 231.881 208.656L231.891 205.064Z" fill="white"/>
<path d="M244.586 211.83V211.828C244.613 211.816 244.636 211.8 244.654 211.778C244.672 211.756 244.685 211.733 244.693 211.709C244.7 211.684 244.704 211.658 244.704 211.63C244.704 211.56 244.682 211.507 244.638 211.469C244.594 211.433 244.531 211.414 244.447 211.414H244.163V212.3H244.489C244.531 212.3 244.568 212.294 244.601 212.282C244.633 212.27 244.66 212.252 244.681 212.231C244.701 212.209 244.717 212.183 244.728 212.153C244.739 212.124 244.744 212.091 244.744 212.055C244.744 211.997 244.73 211.949 244.703 211.91C244.676 211.871 244.637 211.845 244.586 211.83ZM244.316 211.569H244.418C244.447 211.569 244.472 211.574 244.491 211.583C244.511 211.591 244.525 211.603 244.533 211.618C244.542 211.633 244.546 211.651 244.546 211.672C244.546 211.696 244.54 211.716 244.529 211.732C244.518 211.748 244.504 211.759 244.486 211.767C244.469 211.774 244.449 211.777 244.428 211.777H244.316V211.569ZM244.442 212.146H244.316V211.918H244.443C244.488 211.918 244.522 211.929 244.546 211.949C244.57 211.97 244.582 211.998 244.582 212.033C244.582 212.058 244.576 212.079 244.564 212.096C244.552 212.113 244.535 212.125 244.515 212.134C244.494 212.142 244.47 212.146 244.442 212.146ZM245.672 212.3H246.198V212.143H245.826V211.938H246.106V211.784H245.826V211.571H246.175V211.414H245.672V212.3ZM247.295 212.3H247.45V211.571H247.668V211.414H247.078V211.571H247.295V212.3ZM249.021 212.3H249.184L248.892 211.414H248.741L248.45 212.3H248.612L248.666 212.123H248.968L249.021 212.3ZM248.711 211.973L248.816 211.625H248.817L248.922 211.973H248.711Z" fill="white"/>
<g filter="url(#filter1_f)">
<path fill-rule="evenodd" clip-rule="evenodd" d="M216.171 164.548C210.187 161.033 202.762 158.952 194.718 158.952C186.674 158.952 179.248 161.034 173.264 164.55C178.438 158.496 186.13 154.659 194.718 154.659C203.305 154.659 210.996 158.496 216.171 164.548Z" fill="url(#paint8_linear)" fill-opacity="0.8"/>
</g>
<g filter="url(#filter2_f)">
<path fill-rule="evenodd" clip-rule="evenodd" d="M274.167 236.701C268.184 240.217 260.758 242.298 252.713 242.298C244.67 242.298 237.244 240.217 231.26 236.702C236.435 242.755 244.126 246.591 252.714 246.591C261.301 246.591 268.993 242.754 274.167 236.701Z" fill="url(#paint9_linear)" fill-opacity="0.8"/>
</g>
<g filter="url(#filter3_f)">
<path fill-rule="evenodd" clip-rule="evenodd" d="M249.649 164.548C255.633 161.033 263.058 158.952 271.102 158.952C279.146 158.952 286.572 161.034 292.556 164.549C287.382 158.496 279.69 154.659 271.102 154.659C262.515 154.659 254.824 158.496 249.649 164.548Z" fill="url(#paint10_linear)" fill-opacity="0.8"/>
</g>
<g filter="url(#filter4_d)">
<g filter="url(#filter5_d)">
<rect x="116.212" y="65.7533" width="57.2612" height="60.6871" rx="5" fill="white"/>
</g>
<path d="M139.8 119H140.648V114.027H139.8V119ZM143.382 119.055C143.543 119.055 143.704 119.038 143.864 119C144.021 118.966 144.175 118.908 144.326 118.826C144.476 118.747 144.606 118.651 144.719 118.535C144.832 118.422 144.924 118.282 144.992 118.115C145.061 117.951 145.095 117.766 145.095 117.568C145.095 117.376 145.064 117.206 145.009 117.055C144.91 116.795 144.705 116.577 144.391 116.402C144.247 116.324 143.967 116.204 143.557 116.04C143.208 115.907 142.979 115.804 142.873 115.736C142.706 115.626 142.624 115.49 142.627 115.319C142.627 115.141 142.695 114.998 142.825 114.895C142.955 114.792 143.123 114.738 143.321 114.738C143.676 114.738 144.056 114.909 144.466 115.247L144.968 114.584C144.445 114.174 143.895 113.972 143.321 113.972C143.037 113.972 142.774 114.034 142.535 114.157C142.295 114.28 142.104 114.447 141.964 114.659C141.82 114.875 141.752 115.11 141.752 115.363C141.752 115.49 141.766 115.609 141.796 115.719C141.827 115.828 141.868 115.927 141.916 116.013C141.964 116.098 142.025 116.18 142.107 116.255C142.186 116.331 142.265 116.399 142.343 116.454C142.422 116.508 142.518 116.563 142.627 116.618C142.736 116.672 142.839 116.72 142.931 116.754C143.02 116.792 143.129 116.833 143.252 116.874C143.355 116.912 143.44 116.942 143.505 116.966C143.567 116.994 143.639 117.021 143.714 117.055C143.789 117.089 143.851 117.117 143.895 117.144C143.939 117.171 143.984 117.206 144.032 117.243C144.076 117.284 144.11 117.322 144.134 117.363C144.155 117.404 144.175 117.448 144.189 117.5C144.203 117.551 144.213 117.605 144.213 117.667C144.213 117.858 144.141 118.005 144.001 118.115C143.857 118.224 143.652 118.275 143.386 118.275C143.164 118.275 142.938 118.221 142.712 118.108C142.487 117.995 142.285 117.831 142.111 117.619L141.578 118.275C141.831 118.535 142.114 118.73 142.425 118.86C142.733 118.99 143.054 119.055 143.382 119.055ZM146.038 119H146.882V117.226H147.74C147.956 117.226 148.154 117.206 148.338 117.165C148.523 117.124 148.687 117.062 148.837 116.977C148.984 116.895 149.111 116.789 149.213 116.666C149.316 116.542 149.398 116.392 149.453 116.218C149.507 116.047 149.538 115.852 149.538 115.64C149.538 115.483 149.521 115.336 149.494 115.199C149.463 115.062 149.418 114.933 149.36 114.81C149.302 114.69 149.227 114.581 149.135 114.485C149.039 114.389 148.93 114.307 148.807 114.239C148.684 114.17 148.54 114.119 148.376 114.082C148.212 114.047 148.031 114.027 147.839 114.027H146.038V119ZM146.882 116.464V114.786H147.716C148.017 114.786 148.253 114.861 148.417 115.008C148.581 115.155 148.663 115.36 148.663 115.623C148.663 115.883 148.578 116.088 148.41 116.238C148.243 116.389 147.993 116.464 147.658 116.464H146.882Z" fill="#5B5863"/>
<g opacity="0.2">
<path d="M144.999 104.999C153.283 104.999 159.998 98.2834 159.998 89.9997C159.998 81.716 153.283 75.0007 144.999 75.0007C136.715 75.0007 130 81.716 130 89.9997C130 98.2834 136.715 104.999 144.999 104.999Z" fill="#FFB9CC"/>
<path d="M137.71 102.586C137.707 102.592 137.703 102.596 137.7 102.601C137.723 102.607 137.745 102.614 137.767 102.619L137.71 102.586Z" fill="#E9EFF4"/>
<path d="M136.767 81.4462L136.737 81.3851C136.987 81.3476 137.004 81.1711 137.195 81.1063C137.412 81.0349 137.337 81.1129 137.551 81.1063C137.723 81.0988 137.828 81.2246 138.026 81.1326C137.978 81.2171 137.9 81.2753 137.822 81.3326C137.659 81.448 137.493 81.5663 137.3 81.6114C137.106 81.6555 136.879 81.6086 136.767 81.4462Z" fill="#FD3E72"/>
<path d="M139.767 94.8152C139.763 94.9476 139.685 95.0631 139.618 95.1748C139.316 95.6668 139.133 96.2366 139.093 96.814C139.052 97.367 139.077 98.0486 138.595 98.3209C138.32 98.4739 137.933 98.4467 137.75 98.7049C137.693 98.7828 137.666 98.8814 137.639 98.9734C137.52 99.4043 137.401 99.8352 137.283 100.266C137.13 100.253 136.974 100.236 136.822 100.219C137.002 100.277 137.127 100.521 137.019 100.688C136.846 100.597 136.619 100.705 136.523 100.878C136.432 101.051 136.445 101.261 136.496 101.452C136.653 102.015 137.134 102.47 137.701 102.605C137.603 102.792 137.302 102.71 137.117 102.585C135.804 101.697 134.813 100.344 134.36 98.8241C134.2 98.288 134.098 97.7181 133.786 97.2572C133.525 96.8676 133.13 96.5821 132.869 96.1925C132.503 95.633 132.435 94.9072 132.01 94.3956C131.773 94.1036 131.406 93.745 131.616 93.4323C131.7 93.3037 131.881 93.1816 131.809 93.0455C131.786 93.0014 131.738 92.9742 131.7 92.9366C131.558 92.7836 131.656 92.5432 131.728 92.3461C131.846 92.0034 131.846 91.6372 131.795 91.2711C131.438 90.9519 131.157 90.5557 130.98 90.1107C130.875 89.8394 130.735 89.5004 130.444 89.4967C130.369 89.2864 130.291 89.0761 130.216 88.8658C130.189 88.9409 130.115 88.9878 130.033 88.9981C130.258 85.561 131.644 82.4422 133.801 80.0256C133.848 80.0049 133.895 79.9777 133.943 79.9505C134.455 79.6519 134.862 79.2041 135.357 78.8783C135.459 78.8107 135.574 78.746 135.7 78.7591C135.822 78.7694 135.937 78.8943 135.893 79.0098C135.876 79.0576 135.836 79.0952 135.795 79.1252C135.215 79.6181 134.581 80.0491 133.906 80.4058C133.825 80.4462 133.74 80.4941 133.703 80.5758C133.634 80.7147 133.75 80.8875 133.896 80.9382C134.042 80.9889 134.205 80.9588 134.354 80.925C134.229 81.1043 134.191 81.3456 134.256 81.5559C134.395 81.5691 134.439 81.3794 134.48 81.247C134.649 80.7213 135.488 80.5072 135.433 79.9533C135.66 80.0716 135.891 79.8068 136.03 79.59C136.169 79.3693 136.478 79.1525 136.648 79.3459C136.657 79.4538 136.671 79.5627 136.681 79.6717C136.979 79.5965 137.282 79.5186 137.58 79.4435C137.41 79.5627 137.353 79.8172 137.451 80.0003C137.549 80.1833 137.793 80.2753 137.987 80.2002C137.984 80.3598 137.841 80.4819 137.712 80.5767C137.383 80.8246 137.03 81.079 136.647 81.201L136.735 81.3841C136.726 81.3879 136.716 81.3916 136.705 81.3916C136.461 81.4151 136.203 81.2395 135.942 81.2733C135.782 81.294 135.586 81.294 135.494 81.4564C135.481 81.4771 135.424 81.7615 135.464 81.7381C135.607 81.6564 135.749 81.5747 135.889 81.494C135.932 81.6094 135.942 81.7381 135.919 81.8639C136.091 81.847 136.272 81.8836 136.425 81.9756C136.265 82.3455 135.855 82.5933 135.451 82.5624C135.447 82.4403 135.441 82.3183 135.437 82.1962C135.105 82.169 134.833 82.4544 134.667 82.7398C134.498 83.028 134.369 83.3576 134.091 83.5406C133.922 83.6561 133.714 83.7002 133.531 83.7951C133.352 83.8936 133.186 84.0805 133.223 84.2804C133.24 84.3753 133.301 84.4635 133.298 84.5621C133.288 84.7452 133.075 84.8306 132.932 84.9489C132.688 85.1526 132.627 85.5263 132.366 85.7056C132.176 85.838 131.925 85.8352 131.704 85.9028C131.483 85.9704 131.263 86.191 131.352 86.4051C131.243 86.4426 131.111 86.3609 131.1 86.2455C130.711 87.0125 130.454 87.8471 130.348 88.7024C130.542 88.8376 130.738 88.5287 130.776 88.295C130.816 88.0612 131.02 87.7551 131.209 87.8941C131.165 88.2302 131.121 88.5625 131.078 88.8986C131.068 88.9634 131.061 89.031 131.092 89.0883C131.13 89.1596 131.21 89.1897 131.272 89.2404C131.445 89.3896 131.422 89.6544 131.432 89.8816C131.442 90.1595 131.534 90.4308 131.68 90.6684C131.666 90.6205 131.656 90.5735 131.646 90.5256C131.911 90.5594 132.186 90.474 132.386 90.2975C132.491 90.2027 132.579 90.0806 132.711 90.0328C132.848 89.9821 132.997 90.0187 133.136 90.0562C133.567 90.1745 134.025 90.3069 134.313 90.6458C134.459 90.8186 134.551 91.0364 134.724 91.1781C135.118 91.5105 135.783 91.364 136.143 91.7339C136.431 92.0325 136.378 92.5141 136.3 92.9244C136.103 92.8164 135.839 93.0878 135.954 93.2812C136.059 93.1657 136.181 93.0436 136.334 93.0436C136.49 93.0399 136.626 93.2539 136.511 93.3525C136.782 93.0061 137.447 93.1488 137.552 93.5797C137.932 93.6069 138.315 93.6332 138.696 93.6642C138.622 94.2219 139.79 94.2547 139.767 94.8152Z" fill="#FD3E72"/>
<path d="M137.455 79.1188C137.308 79.1911 137.106 79.1094 137.052 78.9554C136.996 78.8015 137.101 78.6109 137.26 78.5743C137.361 78.5508 137.501 78.5621 137.532 78.4635C137.541 78.4335 137.535 78.4006 137.535 78.3696C137.532 78.1837 137.698 78.0297 137.877 77.9828C138.056 77.9368 138.246 77.9725 138.428 78.0082C138.493 78.1424 138.512 78.2983 138.481 78.4438C138.356 78.4494 138.231 78.4541 138.106 78.4597C138.117 78.6672 138.097 78.9282 137.904 79.0052C137.732 79.0737 137.506 78.9461 137.363 79.0625" fill="#FD3E72"/>
<path d="M139.399 77.0467C139.74 76.8834 140.028 76.6261 140.364 76.4534C140.943 76.1567 141.618 76.1304 142.267 76.1098C143.746 76.0637 145.225 76.0177 146.703 75.9717C146.361 76.1595 146.018 76.3482 145.674 76.536C145.395 76.69 145.076 76.8477 144.769 76.7604C144.763 77.0073 144.987 77.2364 145.235 77.2345C144.628 77.61 143.785 77.226 143.143 77.5415C142.875 77.6739 142.658 77.9236 142.362 77.9705C142.191 77.9978 142.014 77.9518 141.844 77.9893C141.559 78.0513 141.38 78.3207 141.17 78.5216C140.928 78.7535 140.572 78.9122 140.255 78.8014C139.939 78.6906 139.774 78.2203 140.027 78.0006C140.152 77.8926 140.331 77.8748 140.478 77.7987C140.625 77.7236 140.742 77.5218 140.631 77.3988C140.583 77.3453 140.504 77.3246 140.46 77.2673C140.412 77.2054 140.417 77.1171 140.377 77.0495C140.227 76.7857 139.809 77.1406 139.525 77.0345" fill="#FD3E72"/>
<path d="M143.889 78.2944C144.089 78.2484 144.263 78.1301 144.45 78.0438C144.637 77.9574 144.859 77.9067 145.042 77.9978C145.097 78.1339 144.94 78.2578 144.802 78.3066C144.537 78.3996 144.25 78.4249 143.973 78.3789" fill="#FD3E72"/>
<path d="M155.979 79.7862C155.924 79.7928 155.867 79.79 155.809 79.7759C155.554 79.7215 155.361 79.5252 155.143 79.3825C154.641 79.0502 153.955 79.007 153.413 79.2783C153.541 79.0915 153.606 78.8605 153.592 78.6333L153.514 78.6606C152.625 78.1451 151.583 77.61 150.613 77.9564C150.389 78.0381 150.186 78.1602 149.959 78.2381C149.718 78.3226 149.45 78.3573 149.243 78.5066C149.033 78.6559 148.921 78.9854 149.102 79.1647C149.255 79.3178 149.499 79.2765 149.713 79.2971C149.923 79.3178 150.164 79.5271 150.049 79.7074C149.119 80.1421 148.187 80.5805 147.258 81.019C147.685 81.1579 147.967 81.6423 147.875 82.0836C147.563 82.1381 147.261 81.9484 146.946 81.9278C146.488 81.9043 146.05 82.308 146.041 82.7661C146.028 83.2243 146.448 83.6477 146.907 83.6411C147.249 83.6374 147.585 83.4308 147.918 83.5182C147.931 83.2055 148.145 82.9408 148.365 82.7173C148.792 82.2892 149.402 81.9024 149.973 82.1127C150.16 82.1803 150.319 82.3061 150.475 82.431C150.818 82.7023 151.161 82.9764 151.504 83.2515C151.613 83.1398 151.721 83.0271 151.83 82.9192C152.017 83.1163 152.204 83.3126 152.393 83.5125C152.488 83.4477 152.587 83.3867 152.681 83.3219C152.749 83.4984 152.82 83.6712 152.889 83.8477C152.916 83.6543 152.94 83.4646 152.963 83.2741C153.187 83.2806 153.425 83.2872 153.628 83.1858C153.832 83.0872 153.981 82.8431 153.895 82.6328C153.851 82.5211 153.746 82.4329 153.725 82.3136C153.681 82.0761 154.02 81.9137 154.241 82.0216C154.458 82.1268 154.567 82.3746 154.659 82.6018C154.709 82.3709 154.756 82.1437 154.808 81.9127C155.02 82.4704 155.326 82.9924 155.706 83.4506C155.011 83.3182 154.277 83.3942 153.627 83.6618C153.834 83.9538 154.19 84.1265 154.547 84.1124C154.707 84.1087 154.883 84.0721 155.005 84.1735C155.097 84.2514 155.121 84.3772 155.137 84.4927C155.192 84.8185 155.246 85.1405 155.297 85.4625C154.93 85.1611 154.401 85.1949 153.923 85.1856C153.444 85.1724 152.884 85.04 152.708 84.596C152.518 84.81 152.434 85.1151 152.488 85.4005C151.992 85.2823 151.422 85.0926 151.28 84.6035C150.893 84.7462 150.411 84.4993 150.306 84.1021C150.269 83.9632 150.258 83.7932 150.136 83.7191C150.062 83.6749 149.966 83.6815 149.878 83.6918C149.142 83.7773 148.409 83.859 147.676 83.9444C147.277 83.9923 146.862 84.0402 146.509 84.2364C146.156 84.4298 145.876 84.81 145.916 85.2109C145.241 85.6118 144.668 86.192 144.282 86.8745C144.16 87.0848 144.054 87.3261 144.102 87.5636C144.136 87.7467 144.258 87.9026 144.296 88.0828C144.36 88.3917 144.184 88.6903 144.11 88.9954C143.899 89.8638 144.559 90.6816 145.17 91.3387C145.458 91.6439 145.791 91.9762 146.212 91.9931C146.473 92.0035 146.721 91.888 146.965 91.7922C147.663 91.5171 148.424 91.3913 149.173 91.4214C149.003 91.5537 149.18 91.842 149.391 91.8861C149.601 91.9302 149.828 91.8617 150.032 91.933C150.497 92.0992 150.433 92.7808 150.223 93.2258C150.328 93.2052 150.437 93.1845 150.545 93.1648C150.487 93.3141 150.429 93.4634 150.372 93.6089C151.009 93.6896 151.251 94.528 151.102 95.1552C150.957 95.7832 150.584 96.3597 150.574 97.0047C150.571 97.3577 150.679 97.7004 150.788 98.0355C151.06 98.8871 151.331 99.7386 151.604 100.593C152.364 100.684 152.801 99.717 153.507 99.4147C153.771 99.2992 154.083 99.2758 154.291 99.0786C154.491 98.8889 154.426 98.4439 154.169 98.4439C154.518 98.4064 154.816 98.0872 154.827 97.7342C154.83 97.6356 154.816 97.537 154.83 97.4394C154.853 97.3004 154.941 97.1784 155.026 97.0591C155.565 96.2855 155.914 95.3993 156.263 94.5243C156.354 94.2895 156.446 94.0595 156.537 93.8248C156.883 92.9526 157.225 92.0842 157.571 91.212C157.706 90.8693 157.842 90.5304 157.977 90.1868C157.791 90.4957 157.302 90.4553 157.024 90.2243C156.742 89.9943 156.595 89.6441 156.375 89.3559C156.188 89.108 155.936 88.8884 155.848 88.5861C155.797 88.4133 155.807 88.2265 155.777 88.0462C155.708 87.6557 155.451 87.3308 155.275 86.9778C155.098 86.6248 155.006 86.1676 155.254 85.8578C155.967 87.1027 156.616 88.3842 157.203 89.6976C157.268 89.4939 157.417 89.3174 157.607 89.2188C157.746 89.1437 157.901 89.1137 158.048 89.0527C158.435 88.8827 158.702 88.4725 158.702 88.0518C158.699 87.6312 158.431 87.221 158.04 87.0548C157.847 86.9731 157.626 86.9468 157.443 86.8342C157.26 86.7262 157.128 86.4783 157.243 86.2981C157.351 86.1282 157.613 86.1319 157.793 86.2267C157.973 86.3253 158.105 86.4915 158.274 86.6032C158.396 86.6849 158.539 86.7384 158.671 86.8135C159.388 87.2238 159.564 88.157 159.714 88.971C159.796 89.4085 159.888 89.8432 159.997 90.2703C160.001 90.1783 160 90.0835 160 89.9924C159.996 86.0474 158.47 82.462 155.979 79.7862ZM157.352 84.7152C157.254 84.7086 157.163 84.6438 157.084 84.5828C156.955 84.4814 156.826 84.3622 156.788 84.2026C156.744 84.0129 156.835 83.7951 156.734 83.6261C156.686 83.5444 156.601 83.4937 156.53 83.4365C156.343 83.2872 156.207 83.0731 156.156 82.8431C156.112 82.6394 156.176 82.3681 156.383 82.3343C156.482 82.3174 156.59 82.3718 156.634 82.4629L156.495 82.538C156.729 82.5652 156.838 82.9182 156.658 83.0703C156.635 83.0938 156.604 83.1145 156.604 83.1483C156.604 83.1689 156.617 83.1886 156.635 83.2027C156.78 83.3623 156.998 83.4196 157.188 83.521C157.378 83.6196 157.564 83.8026 157.534 84.0129C157.473 84.0364 157.416 84.0571 157.355 84.0805C157.29 84.1453 157.342 84.2608 157.409 84.3246C157.477 84.3885 157.565 84.4532 157.569 84.5481C157.569 84.6504 157.454 84.7218 157.352 84.7152Z" fill="#FD3E72"/>
<path d="M157.45 95.1533L157.205 95.327C157.29 95.6274 157.12 95.9795 156.829 96.0969C156.676 96.1588 156.473 96.1861 156.421 96.3428C156.378 96.4762 156.481 96.6113 156.495 96.7503C156.518 96.9813 156.302 97.154 156.146 97.3258C155.99 97.4976 155.907 97.8206 156.115 97.9239C156.163 97.9483 156.218 97.953 156.272 97.9577C156.497 97.9774 156.744 97.9839 156.928 97.8525C157.456 97.476 156.954 96.4546 157.475 96.0678C157.55 96.0133 157.642 95.9739 157.683 95.8913C157.806 95.6481 157.352 95.4068 157.45 95.1533Z" fill="#FD3E72"/>
</g>
<path fill-rule="evenodd" clip-rule="evenodd" d="M143.856 77.9838H144.944H146.032L149.296 91.0395L153.648 108.447H136.24L140.592 91.0395L143.856 77.9838ZM138.416 104.095H151.472L152.56 108.447H137.328L138.416 104.095ZM144.944 97.8393L138.688 103.007H151.2L144.944 97.8393ZM142.224 93.2154L144.944 95.9353L147.664 93.2154H142.224ZM144.944 90.2235L142.496 92.3994H147.392L144.944 90.2235ZM143.312 87.5036L144.944 89.4075L146.576 87.5036H143.312ZM144.944 85.5996L143.584 86.9596H146.304L144.944 85.5996ZM143.856 83.4237L144.944 84.7836L146.032 83.4237H143.856ZM145.216 85.0556L147.12 86.875L146.304 83.4236L145.216 85.0556ZM142.768 86.875L144.672 85.0556L143.584 83.4236L142.768 86.875ZM145.488 89.6795L148.473 92.2474L147.262 87.5037L145.488 89.6795ZM141.414 92.2474L144.4 89.6795L142.625 87.5037L141.414 92.2474ZM145.488 96.7513L150.928 101.531L148.752 93.2154L145.488 96.7513ZM138.96 101.542L144.4 96.7629L141.136 93.2154L138.96 101.542Z" fill="#FD3E72"/>
<path d="M145 81.4861C143.343 81.4861 142 80.143 142 78.4861C142 76.8293 143.343 75.4861 145 75.4861C146.657 75.4861 148 76.8293 148 78.4861C148 80.143 146.657 81.4861 145 81.4861Z" fill="#FD3E72" stroke="white"/>
<path d="M149.9 76.1344C149.628 75.5905 148.78 75.7295 149.084 76.1344C149.9 77.2224 150.172 79.1264 149.084 80.4863C148.723 80.9373 149.628 81.0302 149.9 80.4863C150.716 78.8544 150.716 77.7664 149.9 76.1344Z" fill="#FD3E72"/>
<path d="M151.26 74.5023C150.843 73.9463 150.006 74.1274 150.444 74.5023C152.348 76.1343 152.348 80.2142 150.444 82.1181C150.035 82.5265 150.828 82.7663 151.26 82.1181C152.892 79.6702 153.096 76.9503 151.26 74.5023Z" fill="#FF749A"/>
<path d="M152.892 72.3264C152.401 71.8349 151.639 71.9514 152.076 72.3264C155.34 75.1236 154.796 82.1181 152.076 84.294C151.625 84.6548 152.46 84.9422 152.892 84.294C155.884 81.5742 155.884 75.3184 152.892 72.3264Z" fill="#FFB3C7"/>
<path d="M139.736 76.1344C140.008 75.5905 140.856 75.7295 140.552 76.1344C139.736 77.2224 139.464 79.1264 140.552 80.4863C140.913 80.9373 140.008 81.0302 139.736 80.4863C138.92 78.8544 138.92 77.7664 139.736 76.1344Z" fill="#FD3E72"/>
<path d="M138.376 74.5023C138.793 73.9463 139.63 74.1274 139.192 74.5023C137.288 76.1343 137.288 80.2142 139.192 82.1181C139.601 82.5265 138.808 82.7663 138.376 82.1181C136.744 79.6702 136.54 76.9503 138.376 74.5023Z" fill="#FF749A"/>
<path d="M136.744 72.3264C137.235 71.8349 137.997 71.9514 137.56 72.3264C134.296 75.1236 134.84 82.1181 137.56 84.294C138.011 84.6548 137.176 84.9422 136.744 84.294C133.752 81.5742 133.752 75.3184 136.744 72.3264Z" fill="#FFB3C7"/>
</g>
<g filter="url(#filter6_d)">
<g filter="url(#filter7_d)">
<rect x="213.343" y="65.4038" width="57.3058" height="61.2004" rx="5" fill="white"/>
</g>
<path d="M241.952 75.3778L237.374 77.0931C237.227 77.1476 237.129 77.2878 237.129 77.4444C237.129 77.6011 237.227 77.7412 237.374 77.7958L241.952 79.5111" fill="#FE8CAB"/>
<path d="M241.952 82.2665C241.572 82.2665 241.263 81.9581 241.263 81.5776V74.6889C241.263 74.3084 241.572 74 241.952 74C242.333 74 242.641 74.3084 242.641 74.6889V81.5776C242.641 81.9581 242.333 82.2665 241.952 82.2665Z" fill="#5B5863"/>
<path d="M249.53 89.1553L241.952 90.533L234.375 89.1553C234.375 84.9703 237.767 81.5776 241.952 81.5776C246.137 81.5776 249.53 84.9703 249.53 89.1553Z" fill="#FD3E72"/>
<path d="M252.285 90.533V93.2885H231.619V90.533C231.621 89.7731 232.237 89.1575 232.997 89.1553H250.907C251.667 89.1575 252.283 89.7731 252.285 90.533Z" fill="#5B5863"/>
<path d="M261.241 92.5996V104.999H222.664V92.5996C222.664 92.2192 222.972 91.9108 223.352 91.9108H260.552C260.932 91.9108 261.241 92.2192 261.241 92.5996Z" fill="#FD3E72"/>
<path d="M252.974 103.622V96.0716C252.974 95.6225 252.755 95.2017 252.387 94.9439L242.343 87.9009C242.108 87.737 241.796 87.737 241.562 87.9009L231.517 94.9419C231.149 95.2001 230.93 95.6218 230.93 96.0716L230.93 103.622" fill="#FAFAFA"/>
<path d="M235.752 96.0441C236.513 96.0441 237.13 96.6609 237.13 97.4218V103.622H234.375V97.4218C234.375 96.6609 234.991 96.0441 235.752 96.0441Z" fill="#FD3E72"/>
<path d="M248.152 96.0441C248.913 96.0441 249.53 96.6609 249.53 97.4218V103.622H246.774V97.4218C246.774 96.6609 247.391 96.0441 248.152 96.0441Z" fill="#FD3E72"/>
<path d="M241.952 94.6663C242.713 94.6663 243.33 95.2831 243.33 96.044V103.622H240.575V96.044C240.575 95.2831 241.192 94.6663 241.952 94.6663Z" fill="#FD3E72"/>
<path d="M225.419 97.422C225.039 97.422 224.73 97.1136 224.73 96.7331V95.3554C224.73 94.9749 225.039 94.6665 225.419 94.6665C225.8 94.6665 226.108 94.9749 226.108 95.3554V96.7331C226.108 97.1136 225.8 97.422 225.419 97.422Z" fill="white"/>
<path d="M228.175 97.4218C227.794 97.4218 227.486 97.1133 227.486 96.7329V95.3551C227.486 94.9747 227.794 94.6663 228.175 94.6663C228.555 94.6663 228.864 94.9747 228.864 95.3551V96.7329C228.864 97.1133 228.555 97.4218 228.175 97.4218Z" fill="white"/>
<path d="M225.419 101.555C225.039 101.555 224.73 101.247 224.73 100.866V99.4883C224.73 99.1079 225.039 98.7994 225.419 98.7994C225.8 98.7994 226.108 99.1079 226.108 99.4883V100.866C226.108 101.247 225.8 101.555 225.419 101.555Z" fill="white"/>
<path d="M228.175 101.555C227.794 101.555 227.486 101.247 227.486 100.866V99.4883C227.486 99.1079 227.794 98.7994 228.175 98.7994C228.555 98.7994 228.864 99.1079 228.864 99.4883V100.866C228.864 101.247 228.555 101.555 228.175 101.555Z" fill="white"/>
<path d="M255.73 97.4218C255.349 97.4218 255.041 97.1133 255.041 96.7329V95.3551C255.041 94.9747 255.349 94.6663 255.73 94.6663C256.11 94.6663 256.419 94.9747 256.419 95.3551V96.7329C256.419 97.1133 256.11 97.4218 255.73 97.4218Z" fill="white"/>
<path d="M258.485 97.4218C258.105 97.4218 257.796 97.1133 257.796 96.7329V95.3551C257.796 94.9747 258.105 94.6663 258.485 94.6663C258.866 94.6663 259.174 94.9747 259.174 95.3551V96.7329C259.174 97.1133 258.866 97.4218 258.485 97.4218Z" fill="white"/>
<path d="M255.73 101.555C255.349 101.555 255.041 101.247 255.041 100.866V99.4883C255.041 99.1079 255.349 98.7994 255.73 98.7994C256.11 98.7994 256.419 99.1079 256.419 99.4883V100.866C256.419 101.247 256.11 101.555 255.73 101.555Z" fill="white"/>
<path d="M258.485 101.555C258.105 101.555 257.796 101.247 257.796 100.866V99.4883C257.796 99.1079 258.105 98.7994 258.485 98.7994C258.866 98.7994 259.174 99.1079 259.174 99.4883V100.866C259.174 101.247 258.866 101.555 258.485 101.555Z" fill="white"/>
<path d="M261.241 103.622H222.663C222.283 103.622 221.975 103.93 221.975 104.311V105.688C221.975 106.069 222.283 106.377 222.663 106.377H261.241C261.621 106.377 261.929 106.069 261.929 105.688V104.311C261.929 103.93 261.621 103.622 261.241 103.622Z" fill="#CF1C4D"/>
<path d="M225.085 119.044C225.461 119.044 225.824 118.99 226.169 118.877C226.514 118.768 226.801 118.614 227.034 118.422V116.344H224.976V117.103H226.193V117.94C225.865 118.163 225.496 118.272 225.085 118.272C224.761 118.272 224.474 118.197 224.224 118.043C223.975 117.889 223.783 117.681 223.653 117.414C223.523 117.151 223.458 116.854 223.458 116.522C223.458 116.259 223.5 116.016 223.582 115.794C223.664 115.575 223.773 115.391 223.917 115.24C224.06 115.09 224.228 114.974 224.422 114.892C224.617 114.81 224.826 114.769 225.051 114.769C225.581 114.769 226.029 114.95 226.398 115.309L226.996 114.796C226.747 114.526 226.453 114.321 226.111 114.181C225.769 114.044 225.417 113.972 225.055 113.972C224.802 113.972 224.566 114.003 224.34 114.061C224.115 114.119 223.913 114.201 223.732 114.311C223.551 114.42 223.387 114.55 223.243 114.7C223.096 114.854 222.973 115.025 222.877 115.213C222.782 115.401 222.707 115.606 222.655 115.828C222.601 116.05 222.577 116.283 222.577 116.522C222.577 116.908 222.638 117.26 222.768 117.578C222.895 117.899 223.069 118.166 223.294 118.378C223.52 118.59 223.783 118.754 224.091 118.87C224.398 118.986 224.73 119.044 225.085 119.044ZM229.614 119.055C229.956 119.055 230.264 118.983 230.537 118.836C230.811 118.689 231.022 118.48 231.176 118.214C231.327 117.947 231.405 117.64 231.405 117.298C231.405 116.956 231.327 116.648 231.176 116.378C231.022 116.112 230.811 115.903 230.541 115.756C230.267 115.609 229.959 115.534 229.614 115.534C229.259 115.534 228.944 115.613 228.671 115.767C228.397 115.92 228.186 116.129 228.039 116.396C227.892 116.662 227.82 116.963 227.82 117.298C227.82 117.547 227.861 117.78 227.95 117.995C228.035 118.214 228.155 118.398 228.309 118.556C228.462 118.713 228.654 118.833 228.879 118.921C229.105 119.01 229.348 119.055 229.614 119.055ZM229.614 118.344C229.324 118.344 229.084 118.245 228.896 118.043C228.708 117.845 228.616 117.595 228.616 117.298C228.616 116.997 228.708 116.748 228.893 116.546C229.078 116.348 229.317 116.245 229.614 116.245C229.898 116.245 230.134 116.344 230.325 116.539C230.513 116.737 230.609 116.99 230.609 117.298C230.609 117.602 230.513 117.852 230.322 118.05C230.13 118.248 229.895 118.344 229.614 118.344ZM234.417 115.585L233.542 118.019H233.528L232.636 115.585H231.798L233.159 119H233.907L235.261 115.585H234.417ZM238.819 117.253C238.819 116.925 238.75 116.628 238.617 116.368C238.48 116.108 238.289 115.907 238.036 115.756C237.783 115.609 237.489 115.534 237.161 115.534C236.925 115.534 236.707 115.579 236.501 115.664C236.296 115.75 236.119 115.869 235.972 116.02C235.821 116.173 235.705 116.358 235.623 116.577C235.538 116.795 235.497 117.035 235.497 117.291C235.497 117.64 235.572 117.951 235.726 118.221C235.876 118.491 236.084 118.696 236.351 118.839C236.614 118.983 236.912 119.055 237.243 119.055C237.561 119.055 237.841 118.997 238.084 118.88C238.327 118.764 238.525 118.607 238.682 118.409L238.135 117.94C237.92 118.21 237.636 118.344 237.284 118.344C237.031 118.344 236.819 118.275 236.645 118.135C236.471 117.999 236.358 117.807 236.31 117.564H238.798C238.812 117.482 238.819 117.38 238.819 117.253ZM237.202 116.245C237.346 116.245 237.476 116.276 237.592 116.334C237.708 116.392 237.8 116.471 237.872 116.573C237.944 116.676 237.999 116.795 238.033 116.932H236.324C236.378 116.713 236.484 116.546 236.642 116.426C236.799 116.307 236.983 116.245 237.202 116.245ZM241.485 115.534C241.276 115.534 241.082 115.585 240.897 115.681C240.712 115.777 240.555 115.917 240.422 116.098H240.412V115.585H239.629V119H240.412V117.38C240.412 117.195 240.446 117.028 240.518 116.881C240.589 116.734 240.695 116.618 240.839 116.529C240.982 116.443 241.15 116.399 241.345 116.399C241.413 116.399 241.492 116.402 241.581 116.409V115.538C241.56 115.538 241.529 115.534 241.485 115.534ZM244.171 115.534C243.946 115.534 243.737 115.579 243.539 115.667C243.341 115.756 243.17 115.886 243.026 116.054H243.016V115.585H242.233V119H243.016V117.284C243.016 117.12 243.037 116.973 243.078 116.84C243.119 116.71 243.18 116.601 243.259 116.512C243.334 116.426 243.43 116.361 243.539 116.313C243.648 116.269 243.768 116.245 243.901 116.245C244.024 116.245 244.127 116.262 244.216 116.293C244.305 116.327 244.38 116.378 244.448 116.45C244.513 116.522 244.561 116.618 244.595 116.741C244.626 116.864 244.643 117.014 244.643 117.192V119.003H245.426V116.99C245.426 116.498 245.313 116.132 245.091 115.893C244.869 115.654 244.561 115.534 244.171 115.534ZM250.505 115.534C250.252 115.534 250.02 115.585 249.811 115.681C249.599 115.777 249.425 115.917 249.281 116.102H249.268C249.062 115.726 248.724 115.534 248.249 115.534C248.047 115.534 247.853 115.582 247.668 115.671C247.483 115.76 247.319 115.89 247.183 116.057H247.172V115.585H246.39V119H247.172V117.298C247.172 116.973 247.248 116.717 247.401 116.529C247.555 116.341 247.753 116.245 247.993 116.245C248.444 116.245 248.673 116.573 248.673 117.223V119.003H249.456V117.298C249.456 116.973 249.531 116.717 249.681 116.529C249.832 116.341 250.023 116.245 250.252 116.245C250.696 116.245 250.922 116.573 250.922 117.223V119.003H251.705V117.024C251.705 116.525 251.599 116.153 251.394 115.907C251.185 115.661 250.888 115.534 250.505 115.534ZM255.792 117.253C255.792 116.925 255.724 116.628 255.591 116.368C255.454 116.108 255.263 115.907 255.01 115.756C254.757 115.609 254.463 115.534 254.135 115.534C253.899 115.534 253.68 115.579 253.475 115.664C253.27 115.75 253.092 115.869 252.945 116.02C252.795 116.173 252.679 116.358 252.597 116.577C252.511 116.795 252.47 117.035 252.47 117.291C252.47 117.64 252.545 117.951 252.699 118.221C252.85 118.491 253.058 118.696 253.325 118.839C253.588 118.983 253.885 119.055 254.217 119.055C254.535 119.055 254.815 118.997 255.058 118.88C255.3 118.764 255.499 118.607 255.656 118.409L255.109 117.94C254.894 118.21 254.61 118.344 254.258 118.344C254.005 118.344 253.793 118.275 253.619 118.135C253.444 117.999 253.332 117.807 253.284 117.564H255.772C255.786 117.482 255.792 117.38 255.792 117.253ZM254.176 116.245C254.319 116.245 254.449 116.276 254.565 116.334C254.682 116.392 254.774 116.471 254.846 116.573C254.917 116.676 254.972 116.795 255.006 116.932H253.297C253.352 116.713 253.458 116.546 253.615 116.426C253.772 116.307 253.957 116.245 254.176 116.245ZM258.541 115.534C258.315 115.534 258.106 115.579 257.908 115.667C257.71 115.756 257.539 115.886 257.396 116.054H257.385V115.585H256.603V119H257.385V117.284C257.385 117.12 257.406 116.973 257.447 116.84C257.488 116.71 257.549 116.601 257.628 116.512C257.703 116.426 257.799 116.361 257.908 116.313C258.018 116.269 258.137 116.245 258.271 116.245C258.394 116.245 258.496 116.262 258.585 116.293C258.674 116.327 258.749 116.378 258.817 116.45C258.882 116.522 258.93 116.618 258.964 116.741C258.995 116.864 259.012 117.014 259.012 117.192V119.003H259.795V116.99C259.795 116.498 259.682 116.132 259.46 115.893C259.238 115.654 258.93 115.534 258.541 115.534ZM261.777 119.055C261.979 119.055 262.143 119.038 262.27 119.003C262.396 118.969 262.522 118.921 262.646 118.853L262.44 118.176C262.256 118.275 262.085 118.323 261.935 118.323C261.822 118.323 261.74 118.289 261.685 118.214C261.63 118.142 261.606 118.019 261.606 117.848V116.252H262.611V115.585H261.606V114.365L260.824 114.451V115.585H260.407V116.252H260.824V117.92C260.824 118.296 260.906 118.576 261.073 118.768C261.241 118.959 261.477 119.055 261.777 119.055Z" fill="#5B5863"/>
</g>
<g filter="url(#filter8_d)">
<rect x="256.25" y="274" width="72.9224" height="76.3483" rx="5" fill="white"/>
</g>
<path d="M278.1 342H278.985L277.119 337.027H276.295L274.439 342H275.321L275.694 340.93H277.724L278.1 342ZM275.95 340.199L276.706 338.045H276.712L277.468 340.199H275.95ZM282.161 336.846V338.996H282.144C281.884 338.688 281.521 338.534 281.063 338.534C280.831 338.534 280.612 338.579 280.411 338.667C280.206 338.756 280.031 338.879 279.888 339.033C279.741 339.19 279.625 339.378 279.542 339.597C279.457 339.819 279.416 340.055 279.416 340.308C279.416 340.517 279.44 340.711 279.495 340.896C279.549 341.081 279.625 341.241 279.724 341.381C279.823 341.521 279.939 341.641 280.076 341.744C280.212 341.846 280.363 341.925 280.534 341.976C280.705 342.031 280.882 342.055 281.07 342.055C281.549 342.055 281.921 341.884 282.181 341.542H282.195V342H282.943V336.846H282.161ZM281.193 341.344C280.903 341.344 280.667 341.248 280.486 341.057C280.301 340.865 280.212 340.616 280.212 340.312C280.212 340.154 280.236 340.007 280.288 339.871C280.339 339.734 280.411 339.621 280.5 339.532C280.588 339.443 280.691 339.372 280.811 339.32C280.93 339.272 281.06 339.245 281.197 339.245C281.487 339.245 281.727 339.348 281.911 339.549C282.096 339.754 282.191 340.007 282.191 340.312C282.191 340.619 282.096 340.865 281.904 341.057C281.713 341.248 281.474 341.344 281.193 341.344ZM286.208 338.585L285.333 341.019H285.319L284.427 338.585H283.589L284.95 342H285.698L287.052 338.585H286.208ZM290.61 340.253C290.61 339.925 290.542 339.628 290.408 339.368C290.271 339.108 290.08 338.907 289.827 338.756C289.574 338.609 289.28 338.534 288.952 338.534C288.716 338.534 288.498 338.579 288.292 338.664C288.087 338.75 287.91 338.869 287.763 339.02C287.612 339.173 287.496 339.358 287.414 339.577C287.329 339.795 287.288 340.035 287.288 340.291C287.288 340.64 287.363 340.951 287.517 341.221C287.667 341.491 287.875 341.696 288.142 341.839C288.405 341.983 288.703 342.055 289.034 342.055C289.352 342.055 289.632 341.997 289.875 341.88C290.118 341.764 290.316 341.607 290.473 341.409L289.926 340.94C289.711 341.21 289.427 341.344 289.075 341.344C288.822 341.344 288.61 341.275 288.436 341.135C288.262 340.999 288.149 340.807 288.101 340.564H290.589C290.603 340.482 290.61 340.38 290.61 340.253ZM288.993 339.245C289.137 339.245 289.267 339.276 289.383 339.334C289.499 339.392 289.591 339.471 289.663 339.573C289.735 339.676 289.79 339.795 289.824 339.932H288.115C288.169 339.713 288.275 339.546 288.433 339.426C288.59 339.307 288.774 339.245 288.993 339.245ZM293.276 338.534C293.067 338.534 292.873 338.585 292.688 338.681C292.503 338.777 292.346 338.917 292.213 339.098H292.203V338.585H291.42V342H292.203V340.38C292.203 340.195 292.237 340.028 292.309 339.881C292.38 339.734 292.486 339.618 292.63 339.529C292.773 339.443 292.941 339.399 293.136 339.399C293.204 339.399 293.283 339.402 293.372 339.409V338.538C293.351 338.538 293.32 338.534 293.276 338.534ZM295.043 342.055C295.245 342.055 295.409 342.038 295.535 342.003C295.662 341.969 295.788 341.921 295.911 341.853L295.706 341.176C295.521 341.275 295.351 341.323 295.2 341.323C295.087 341.323 295.005 341.289 294.951 341.214C294.896 341.142 294.872 341.019 294.872 340.848V339.252H295.877V338.585H294.872V337.365L294.089 337.451V338.585H293.672V339.252H294.089V340.92C294.089 341.296 294.171 341.576 294.339 341.768C294.506 341.959 294.742 342.055 295.043 342.055ZM296.995 338.076C297.087 338.076 297.172 338.056 297.254 338.008C297.336 337.96 297.401 337.898 297.449 337.816C297.497 337.738 297.521 337.652 297.521 337.557C297.521 337.417 297.466 337.293 297.364 337.191C297.261 337.088 297.138 337.037 296.995 337.037C296.844 337.037 296.721 337.088 296.619 337.191C296.516 337.293 296.465 337.413 296.465 337.557C296.465 337.7 296.516 337.823 296.619 337.926C296.721 338.028 296.844 338.076 296.995 338.076ZM296.598 342H297.381V338.585H296.598V342ZM299.548 342.055C299.76 342.055 299.948 342.031 300.112 341.976C300.276 341.921 300.409 341.85 300.512 341.754C300.614 341.658 300.689 341.549 300.744 341.426C300.795 341.303 300.823 341.166 300.823 341.019C300.823 340.879 300.802 340.756 300.761 340.646C300.689 340.476 300.542 340.329 300.317 340.206C300.228 340.161 300.002 340.065 299.64 339.922C299.517 339.874 299.421 339.833 299.35 339.792C299.274 339.754 299.216 339.71 299.168 339.662C299.121 339.614 299.097 339.56 299.097 339.505C299.097 339.409 299.134 339.337 299.213 339.286C299.292 339.238 299.377 339.211 299.469 339.211C299.562 339.211 299.654 339.225 299.75 339.249C299.842 339.276 299.938 339.317 300.04 339.372C300.143 339.426 300.238 339.495 300.327 339.577L300.72 338.961C300.365 338.678 299.961 338.534 299.51 338.534C299.162 338.534 298.871 338.626 298.646 338.811C298.42 338.996 298.307 339.225 298.307 339.501C298.307 339.611 298.317 339.713 298.345 339.802C298.369 339.895 298.406 339.977 298.454 340.048C298.502 340.12 298.557 340.185 298.618 340.24C298.676 340.298 298.748 340.349 298.83 340.397C298.912 340.445 298.994 340.482 299.076 340.517C299.155 340.551 299.247 340.585 299.35 340.619C299.606 340.708 299.784 340.78 299.879 340.834C299.975 340.889 300.026 340.954 300.026 341.036C300.026 341.139 299.982 341.217 299.896 341.279C299.811 341.34 299.695 341.371 299.548 341.371C299.343 341.371 299.162 341.34 299.004 341.275C298.847 341.21 298.7 341.108 298.563 340.968L298.167 341.556C298.543 341.891 299.004 342.055 299.548 342.055ZM304.685 340.253C304.685 339.925 304.617 339.628 304.483 339.368C304.347 339.108 304.155 338.907 303.902 338.756C303.649 338.609 303.355 338.534 303.027 338.534C302.792 338.534 302.573 338.579 302.368 338.664C302.163 338.75 301.985 338.869 301.838 339.02C301.688 339.173 301.571 339.358 301.489 339.577C301.404 339.795 301.363 340.035 301.363 340.291C301.363 340.64 301.438 340.951 301.592 341.221C301.742 341.491 301.951 341.696 302.217 341.839C302.48 341.983 302.778 342.055 303.109 342.055C303.427 342.055 303.708 341.997 303.95 341.88C304.193 341.764 304.391 341.607 304.548 341.409L304.001 340.94C303.786 341.21 303.502 341.344 303.15 341.344C302.897 341.344 302.686 341.275 302.511 341.135C302.337 340.999 302.224 340.807 302.176 340.564H304.665C304.678 340.482 304.685 340.38 304.685 340.253ZM303.068 339.245C303.212 339.245 303.342 339.276 303.458 339.334C303.574 339.392 303.667 339.471 303.738 339.573C303.81 339.676 303.865 339.795 303.899 339.932H302.19C302.245 339.713 302.351 339.546 302.508 339.426C302.665 339.307 302.85 339.245 303.068 339.245ZM307.351 338.534C307.143 338.534 306.948 338.585 306.763 338.681C306.579 338.777 306.421 338.917 306.288 339.098H306.278V338.585H305.495V342H306.278V340.38C306.278 340.195 306.312 340.028 306.384 339.881C306.456 339.734 306.562 339.618 306.705 339.529C306.849 339.443 307.016 339.399 307.211 339.399C307.279 339.399 307.358 339.402 307.447 339.409V338.538C307.426 338.538 307.396 338.534 307.351 338.534ZM309.193 342.055C309.405 342.055 309.593 342.031 309.757 341.976C309.921 341.921 310.055 341.85 310.157 341.754C310.26 341.658 310.335 341.549 310.39 341.426C310.441 341.303 310.468 341.166 310.468 341.019C310.468 340.879 310.448 340.756 310.407 340.646C310.335 340.476 310.188 340.329 309.962 340.206C309.874 340.161 309.648 340.065 309.286 339.922C309.163 339.874 309.067 339.833 308.995 339.792C308.92 339.754 308.862 339.71 308.814 339.662C308.766 339.614 308.742 339.56 308.742 339.505C308.742 339.409 308.78 339.337 308.858 339.286C308.937 339.238 309.022 339.211 309.115 339.211C309.207 339.211 309.299 339.225 309.395 339.249C309.487 339.276 309.583 339.317 309.686 339.372C309.788 339.426 309.884 339.495 309.973 339.577L310.366 338.961C310.01 338.678 309.607 338.534 309.156 338.534C308.807 338.534 308.517 338.626 308.291 338.811C308.065 338.996 307.953 339.225 307.953 339.501C307.953 339.611 307.963 339.713 307.99 339.802C308.014 339.895 308.052 339.977 308.1 340.048C308.147 340.12 308.202 340.185 308.264 340.24C308.322 340.298 308.394 340.349 308.476 340.397C308.558 340.445 308.64 340.482 308.722 340.517C308.8 340.551 308.893 340.585 308.995 340.619C309.251 340.708 309.429 340.78 309.525 340.834C309.621 340.889 309.672 340.954 309.672 341.036C309.672 341.139 309.627 341.217 309.542 341.279C309.457 341.34 309.34 341.371 309.193 341.371C308.988 341.371 308.807 341.34 308.65 341.275C308.493 341.21 308.346 341.108 308.209 340.968L307.812 341.556C308.188 341.891 308.65 342.055 309.193 342.055Z" fill="#5B5863"/>
<g filter="url(#filter9_d)">
<rect x="333.713" y="274" width="44.9184" height="35.5" rx="5" fill="white"/>
</g>
<g clip-path="url(#clip0)">
<path d="M353.036 281.356C353.226 280.863 353.488 280.41 353.877 280.042C355.433 278.549 358.006 278.924 359.061 280.801C359.855 282.224 360.697 283.616 361.514 285.024C362.88 287.362 364.261 289.7 365.611 292.046C366.746 294.009 365.515 296.488 363.261 296.824C361.88 297.027 360.586 296.402 359.871 295.182C358.672 293.125 357.466 291.068 356.267 289.02C356.243 288.973 356.211 288.934 356.18 288.894C356.053 288.793 355.997 288.644 355.918 288.511C355.386 287.589 354.838 286.674 354.306 285.759C353.965 285.164 353.608 284.578 353.266 283.984C352.957 283.452 352.814 282.873 352.83 282.263C352.853 281.95 352.893 281.638 353.036 281.356Z" fill="#3C8BD9"/>
<path d="M353.036 281.356C352.965 281.638 352.901 281.919 352.885 282.216C352.861 282.873 353.028 283.483 353.362 284.054C354.235 285.532 355.108 287.018 355.973 288.504C356.053 288.637 356.116 288.769 356.196 288.895C355.719 289.708 355.243 290.513 354.759 291.327C354.092 292.461 353.425 293.602 352.75 294.736C352.719 294.736 352.711 294.72 352.703 294.697C352.695 294.634 352.719 294.58 352.734 294.517C353.06 293.344 352.79 292.304 351.972 291.413C351.472 290.873 350.837 290.568 350.107 290.466C349.154 290.333 348.313 290.576 347.558 291.162C347.423 291.264 347.336 291.413 347.177 291.491C347.146 291.491 347.13 291.475 347.122 291.452C347.503 290.803 347.876 290.154 348.257 289.505C349.829 286.814 351.401 284.124 352.981 281.442C352.996 281.411 353.02 281.387 353.036 281.356Z" fill="#FABC04"/>
<path d="M347.154 291.475C347.304 291.342 347.447 291.201 347.606 291.076C349.535 289.575 352.433 290.662 352.853 293.039C352.957 293.61 352.901 294.157 352.726 294.705C352.719 294.752 352.711 294.791 352.695 294.838C352.623 294.963 352.56 295.096 352.48 295.221C351.774 296.371 350.734 296.941 349.368 296.855C347.805 296.746 346.574 295.589 346.36 294.056C346.257 293.313 346.407 292.617 346.796 291.976C346.876 291.835 346.971 291.71 347.058 291.569C347.098 291.538 347.082 291.475 347.154 291.475Z" fill="#34A852"/>
<path d="M347.154 291.475C347.122 291.507 347.122 291.562 347.066 291.57C347.058 291.515 347.09 291.483 347.122 291.444L347.154 291.475Z" fill="#FABC04"/>
<path d="M352.695 294.839C352.663 294.784 352.695 294.744 352.727 294.705C352.735 294.713 352.751 294.728 352.759 294.736L352.695 294.839Z" fill="#E1C025"/>
<path d="M347.86 299.483C346.963 299.483 346.217 300.194 346.217 301.07C346.217 301.946 346.963 302.65 347.86 302.65C348.344 302.65 348.702 302.493 348.987 302.204C349.281 301.915 349.368 301.516 349.368 301.195C349.368 301.094 349.36 301 349.345 300.922H347.86V301.352H348.916C348.884 301.594 348.805 301.774 348.678 301.899C348.527 302.048 348.281 302.22 347.86 302.22C347.209 302.22 346.701 301.704 346.701 301.07C346.701 300.437 347.209 299.921 347.86 299.921C348.209 299.921 348.471 300.054 348.654 300.234L348.964 299.929C348.702 299.678 348.352 299.483 347.86 299.483ZM350.551 300.617C349.988 300.617 349.519 301.047 349.519 301.649C349.519 302.243 349.98 302.681 350.551 302.681C351.123 302.681 351.583 302.243 351.583 301.649C351.583 301.055 351.115 300.617 350.551 300.617ZM350.551 302.275C350.242 302.275 349.972 302.016 349.972 301.649C349.972 301.281 350.242 301.023 350.551 301.023C350.861 301.023 351.131 301.274 351.131 301.649C351.131 302.016 350.861 302.275 350.551 302.275ZM352.79 300.617C352.218 300.617 351.758 301.047 351.758 301.649C351.758 302.243 352.218 302.681 352.79 302.681C353.354 302.681 353.822 302.243 353.822 301.649C353.822 301.055 353.362 300.617 352.79 300.617ZM352.79 302.275C352.48 302.275 352.21 302.016 352.21 301.649C352.21 301.281 352.48 301.023 352.79 301.023C353.1 301.023 353.369 301.274 353.369 301.649C353.369 302.016 353.108 302.275 352.79 302.275ZM355.021 300.617C354.505 300.617 354.036 301.062 354.036 301.641C354.036 302.212 354.505 302.658 355.021 302.658C355.267 302.658 355.457 302.548 355.561 302.423H355.576V302.572C355.576 302.963 355.37 303.174 355.029 303.174C354.751 303.174 354.584 302.978 354.513 302.814L354.116 302.978C354.227 303.252 354.529 303.58 355.029 303.58C355.561 303.58 356.005 303.268 356.005 302.517V300.687H355.576V300.851H355.561C355.457 300.726 355.267 300.617 355.021 300.617ZM355.06 302.259C354.751 302.259 354.489 302.001 354.489 301.641C354.489 301.281 354.751 301.016 355.06 301.016C355.37 301.016 355.608 301.281 355.608 301.641C355.608 302.001 355.37 302.259 355.06 302.259ZM356.339 299.608H356.791V302.626H356.339V299.608ZM358.006 300.617C357.466 300.617 357.013 301.031 357.013 301.649C357.013 302.228 357.458 302.681 358.053 302.681C358.538 302.681 358.815 302.392 358.927 302.228L358.569 301.993C358.45 302.165 358.283 302.275 358.053 302.275C357.815 302.275 357.648 302.173 357.545 301.962L358.95 301.391L358.903 301.274C358.815 301.047 358.545 300.617 358.006 300.617ZM357.466 301.618C357.45 301.219 357.783 301.016 358.014 301.016C358.196 301.016 358.355 301.102 358.403 301.234L357.466 301.618Z" fill="#757575"/>
<path d="M359.744 302.58L360.792 299.835H361.197L362.245 302.58H361.848L361.578 301.837H360.411L360.141 302.58H359.744ZM360.53 301.508H361.459L361.006 300.273H360.991L360.53 301.508Z" fill="#757575"/>
<path d="M362.61 302.353C362.435 302.157 362.348 301.923 362.348 301.641C362.348 301.367 362.435 301.133 362.61 300.93C362.793 300.734 362.999 300.64 363.253 300.64C363.396 300.64 363.523 300.671 363.634 300.726C363.753 300.789 363.841 300.859 363.904 300.961H363.92L363.904 300.703V299.835H364.261V302.58H363.92V302.321H363.904C363.841 302.415 363.753 302.494 363.634 302.556C363.515 302.619 363.388 302.642 363.253 302.642C362.999 302.642 362.785 302.548 362.61 302.353ZM363.737 302.134C363.856 302.009 363.912 301.844 363.912 301.641C363.912 301.446 363.856 301.281 363.737 301.156C363.626 301.031 363.483 300.969 363.309 300.969C363.134 300.969 362.991 301.031 362.88 301.156C362.761 301.281 362.705 301.446 362.705 301.641C362.705 301.837 362.761 302.001 362.88 302.126C362.999 302.251 363.142 302.314 363.309 302.314C363.483 302.321 363.626 302.259 363.737 302.134Z" fill="#757575"/>
<path d="M365.913 302.47C365.77 302.579 365.587 302.642 365.365 302.642C365.174 302.642 365.008 302.595 364.857 302.493C364.714 302.392 364.611 302.267 364.547 302.102L364.865 301.97C364.912 302.079 364.976 302.173 365.071 302.235C365.158 302.298 365.262 302.329 365.365 302.329C365.476 302.329 365.571 302.306 365.651 302.259C365.73 302.212 365.762 302.149 365.762 302.087C365.762 301.97 365.666 301.876 365.484 301.821L365.158 301.743C364.785 301.649 364.603 301.477 364.603 301.211C364.603 301.039 364.674 300.906 364.817 300.797C364.96 300.695 365.143 300.64 365.357 300.64C365.524 300.64 365.674 300.679 365.817 300.757C365.952 300.836 366.048 300.945 366.103 301.078L365.786 301.211C365.746 301.133 365.69 301.07 365.611 301.023C365.532 300.976 365.436 300.953 365.333 300.953C365.238 300.953 365.158 300.976 365.079 301.023C365.008 301.07 364.968 301.125 364.968 301.195C364.968 301.305 365.071 301.383 365.277 301.422L365.563 301.493C365.944 301.586 366.127 301.774 366.127 302.056C366.135 302.22 366.055 302.361 365.913 302.47Z" fill="#757575"/>
</g>
<g clip-path="url(#clip1)">
<path d="M303.075 289.305H304.591V293.851H303.075V289.305Z" fill="#C8C5C9"/>
<path d="M304.591 290.062H303.075C302.657 290.062 302.318 289.723 302.318 289.305V287.789C302.318 286.952 302.996 286.273 303.833 286.273C304.67 286.273 305.349 286.952 305.349 287.789V289.305C305.349 289.723 305.01 290.062 304.591 290.062Z" fill="#5B5863"/>
<path d="M280.341 289.305H281.857V293.851H280.341V289.305Z" fill="#C8C5C9"/>
<path d="M281.857 290.062H280.341C279.923 290.062 279.583 289.723 279.583 289.305V287.789C279.583 286.952 280.262 286.273 281.099 286.273C281.936 286.273 282.615 286.952 282.615 287.789V289.305C282.615 289.723 282.275 290.062 281.857 290.062Z" fill="#5B5863"/>
<path d="M291.708 289.305H293.224V293.851H291.708V289.305Z" fill="#C8C5C9"/>
<path d="M274.279 315.07H275.795V318.859H274.279V315.07Z" fill="#999899"/>
<path d="M309.138 315.07H310.654V318.859H309.138V315.07Z" fill="#999899"/>
<path d="M293.982 328.71H291.708L290.967 320.308L294.74 321.132V327.952C294.739 328.371 294.4 328.71 293.982 328.71Z" fill="#B7B7B7"/>
<path d="M290.193 314.312V327.952C290.193 328.371 290.532 328.71 290.95 328.71H291.708V322.648C291.708 321.811 292.387 321.132 293.224 321.132H294.739V314.312H290.193V314.312Z" fill="#999899"/>
<path d="M313.685 293.094H272.006C271.587 293.094 271.248 293.433 271.248 293.851V314.312C271.248 314.731 271.587 315.07 272.006 315.07H313.685C314.103 315.07 314.442 314.731 314.442 314.312V293.851C314.442 293.433 314.103 293.094 313.685 293.094Z" fill="#FD3E72"/>
<path d="M293.224 290.062H291.708C291.29 290.062 290.951 289.723 290.951 289.305V287.789C290.951 286.952 291.629 286.273 292.466 286.273C293.303 286.273 293.982 286.952 293.982 287.789V289.305C293.982 289.723 293.643 290.062 293.224 290.062Z" fill="#5B5863"/>
<path d="M288.727 299.814C288.496 299.224 287.966 298.843 287.378 298.843C286.79 298.843 286.261 299.224 286.03 299.813L282.762 308.132C282.635 308.455 282.772 308.829 283.068 308.967C283.361 309.105 283.706 308.956 283.833 308.633L284.432 307.111H290.325L290.923 308.633C291.018 308.874 291.233 309.019 291.459 309.019C291.536 309.019 291.614 309.002 291.689 308.967C291.985 308.829 292.122 308.455 291.995 308.132L288.727 299.814ZM284.931 305.839L287.102 300.313C287.197 300.073 287.559 300.072 287.655 300.314L289.826 305.839H284.931Z" fill="white"/>
<path d="M297.372 298.843H294.344C294.009 298.843 293.738 299.128 293.738 299.479V308.383C293.738 308.734 294.009 309.019 294.344 309.019H297.372C300.044 309.019 302.218 306.736 302.218 303.931C302.218 301.125 300.044 298.843 297.372 298.843ZM297.372 307.747H294.949V300.115H297.372C299.376 300.115 301.006 301.827 301.006 303.931C301.006 306.035 299.376 307.747 297.372 307.747Z" fill="white"/>
<path d="M276.552 314.312C274.041 314.312 272.006 312.276 272.006 309.765V293.094H271.261C270.835 293.094 270.49 293.439 270.49 293.865V315.056C270.49 315.482 270.835 315.828 271.261 315.828H313.671C314.097 315.828 314.442 315.482 314.442 315.056V314.312H276.552V314.312Z" fill="#E32257"/>
<path d="M315.2 319.617H269.732C269.313 319.617 268.974 319.277 268.974 318.859C268.974 318.44 269.313 318.101 269.732 318.101H315.2C315.619 318.101 315.958 318.44 315.958 318.859C315.958 319.277 315.619 319.617 315.2 319.617Z" fill="#FF89A9"/>
</g>
<g filter="url(#filter10_d)">
<rect x="333.713" y="315" width="77.2984" height="35.5" rx="5" fill="white"/>
</g>
<g clip-path="url(#clip2)">
<path d="M354.522 330.82C354.522 330.537 354.6 330.332 354.757 330.206C354.913 330.079 355.134 330.016 355.417 330.016C355.593 330.016 355.754 330.039 355.901 330.084C356.048 330.13 356.146 330.163 356.194 330.183V334.171C356.194 334.86 356.351 335.383 356.664 335.742C356.977 336.1 357.457 336.28 358.102 336.28C358.747 336.28 359.227 336.1 359.539 335.742C359.853 335.383 360.009 334.86 360.009 334.171V330.82C360.009 330.537 360.087 330.332 360.244 330.206C360.4 330.079 360.615 330.016 360.889 330.016C361.075 330.016 361.241 330.039 361.388 330.084C361.535 330.13 361.633 330.163 361.681 330.183V334.551C361.681 335.067 361.596 335.529 361.425 335.939C361.253 336.348 361.009 336.695 360.692 336.977C360.374 337.261 359.994 337.476 359.555 337.623C359.114 337.769 358.63 337.842 358.102 337.842C357.573 337.842 357.089 337.769 356.649 337.623C356.209 337.476 355.832 337.261 355.52 336.977C355.207 336.695 354.962 336.348 354.786 335.939C354.61 335.529 354.522 335.067 354.522 334.551V330.82Z" fill="#F18421"/>
<path d="M363.002 328.666C363.002 328.383 363.08 328.179 363.237 328.051C363.393 327.926 363.608 327.863 363.882 327.863C364.058 327.863 364.221 327.885 364.373 327.931C364.525 327.976 364.625 328.009 364.674 328.029V330.016H366.802C367.125 330.016 367.352 330.084 367.484 330.22C367.616 330.358 367.681 330.557 367.681 330.82C367.681 330.992 367.658 331.151 367.608 331.297C367.56 331.444 367.52 331.548 367.491 331.609H364.674V334.991C364.674 335.254 364.708 335.469 364.777 335.636C364.846 335.802 364.941 335.936 365.063 336.037C365.186 336.139 365.327 336.21 365.489 336.25C365.65 336.29 365.819 336.31 365.994 336.31C366.278 336.31 366.542 336.265 366.787 336.174C367.031 336.083 367.208 335.997 367.315 335.917L367.99 337.069C367.912 337.13 367.802 337.205 367.66 337.297C367.518 337.388 367.344 337.474 367.139 337.554C366.934 337.635 366.704 337.703 366.45 337.759C366.195 337.815 365.917 337.842 365.614 337.842C364.753 337.842 364.103 337.612 363.662 337.152C363.222 336.693 363.002 336.088 363.002 335.34V328.666Z" fill="#F18421"/>
<path d="M372.611 336.281C372.943 336.281 373.249 336.217 373.528 336.091C373.807 335.964 374.046 335.793 374.247 335.575C374.448 335.357 374.601 335.1 374.709 334.801C374.817 334.503 374.87 334.178 374.87 333.823C374.87 333.469 374.817 333.14 374.709 332.837C374.601 332.534 374.448 332.273 374.247 332.056C374.046 331.839 373.807 331.667 373.528 331.54C373.249 331.414 372.943 331.351 372.611 331.351C372.269 331.351 371.959 331.414 371.68 331.54C371.401 331.667 371.163 331.842 370.968 332.064C370.772 332.287 370.618 332.549 370.506 332.852C370.393 333.156 370.337 333.48 370.337 333.823C370.337 334.187 370.393 334.52 370.506 334.824C370.618 335.128 370.775 335.385 370.975 335.597C371.176 335.81 371.415 335.976 371.695 336.098C371.973 336.22 372.279 336.281 372.611 336.281ZM368.679 327.256C368.679 326.983 368.758 326.78 368.914 326.649C369.07 326.517 369.29 326.451 369.574 326.451C369.751 326.451 369.912 326.475 370.058 326.52C370.205 326.566 370.302 326.599 370.352 326.619V330.972C370.596 330.648 370.934 330.372 371.364 330.145C371.794 329.917 372.288 329.803 372.845 329.803C373.384 329.803 373.88 329.902 374.335 330.1C374.79 330.296 375.186 330.575 375.523 330.934C375.861 331.293 376.125 331.717 376.315 332.208C376.507 332.698 376.602 333.237 376.602 333.823C376.602 334.399 376.504 334.936 376.308 335.431C376.113 335.927 375.838 336.351 375.487 336.705C375.135 337.059 374.716 337.337 374.232 337.539C373.748 337.741 373.217 337.842 372.64 337.842C372.063 337.842 371.533 337.752 371.049 337.569C370.564 337.388 370.147 337.114 369.794 336.75C369.442 336.386 369.169 335.931 368.973 335.385C368.777 334.839 368.679 334.197 368.679 333.459V327.256Z" fill="#F18421"/>
<path d="M377.585 332.731C377.585 331.801 377.861 331.08 378.414 330.57C378.966 330.059 379.731 329.803 380.709 329.803C381.326 329.803 381.827 329.893 382.214 330.069C382.6 330.246 382.793 330.516 382.793 330.881C382.793 331.053 382.746 331.219 382.654 331.381C382.56 331.543 382.485 331.644 382.426 331.684C382.26 331.604 382.055 331.528 381.81 331.457C381.565 331.386 381.286 331.351 380.973 331.351C379.83 331.351 379.258 331.978 379.258 333.232V337.63H377.585V332.731Z" fill="#F18421"/>
<path d="M388.367 334.232C388.27 334.212 388.087 334.182 387.817 334.142C387.548 334.102 387.145 334.08 386.607 334.08C385.941 334.08 385.458 334.185 385.155 334.392C384.852 334.599 384.7 334.925 384.7 335.37C384.7 335.552 384.731 335.719 384.795 335.871C384.858 336.023 384.968 336.151 385.125 336.257C385.282 336.364 385.494 336.445 385.763 336.5C386.032 336.555 386.368 336.584 386.769 336.584C387.218 336.584 387.575 336.566 387.839 336.53C388.103 336.495 388.279 336.467 388.367 336.447V334.232ZM390.025 337.6C389.927 337.62 389.774 337.642 389.563 337.668C389.353 337.693 389.105 337.718 388.822 337.744C388.538 337.769 388.221 337.792 387.868 337.812C387.516 337.832 387.15 337.842 386.769 337.842C386.005 337.842 385.382 337.774 384.898 337.637C384.414 337.501 384.032 337.319 383.753 337.092C383.475 336.864 383.284 336.601 383.181 336.302C383.079 336.005 383.028 335.699 383.028 335.385C383.028 334.971 383.089 334.607 383.211 334.293C383.333 333.98 383.534 333.716 383.812 333.504C384.091 333.292 384.455 333.133 384.905 333.027C385.355 332.92 385.903 332.867 386.548 332.867C386.919 332.867 387.272 332.88 387.605 332.905C387.937 332.93 388.186 332.954 388.353 332.974C388.353 332.62 388.296 332.327 388.185 332.094C388.071 331.862 387.918 331.679 387.722 331.548C387.526 331.417 387.291 331.326 387.018 331.275C386.744 331.224 386.441 331.199 386.109 331.199C385.551 331.199 385.103 331.265 384.765 331.396C384.428 331.528 384.206 331.639 384.098 331.73C384.039 331.679 383.959 331.584 383.856 331.442C383.753 331.3 383.702 331.129 383.702 330.926C383.702 330.785 383.739 330.645 383.812 330.509C383.886 330.372 384.015 330.251 384.201 330.145C384.387 330.039 384.636 329.956 384.949 329.895C385.262 329.834 385.659 329.803 386.137 329.803C386.714 329.803 387.24 329.862 387.715 329.978C388.189 330.095 388.597 330.279 388.939 330.531C389.282 330.785 389.548 331.119 389.739 331.533C389.93 331.948 390.025 332.448 390.025 333.034V337.6Z" fill="#F18421"/>
<path d="M391.522 330.82C391.522 330.537 391.6 330.332 391.756 330.206C391.913 330.079 392.133 330.016 392.417 330.016C392.592 330.016 392.754 330.039 392.901 330.084C393.047 330.13 393.145 330.163 393.194 330.183V337.63H391.522V330.82ZM392.358 326.603C392.642 326.603 392.881 326.704 393.076 326.907C393.272 327.109 393.37 327.357 393.37 327.65C393.37 327.943 393.272 328.191 393.076 328.393C392.881 328.596 392.642 328.696 392.358 328.696C392.074 328.696 391.835 328.596 391.639 328.393C391.444 328.191 391.345 327.943 391.345 327.65C391.345 327.357 391.444 327.109 391.639 326.907C391.835 326.704 392.074 326.603 392.358 326.603Z" fill="#F18421"/>
<path d="M394.691 333.034C394.691 332.529 394.781 332.076 394.961 331.677C395.142 331.278 395.392 330.939 395.71 330.66C396.028 330.382 396.404 330.17 396.84 330.024C397.275 329.877 397.751 329.804 398.27 329.804C398.788 329.804 399.267 329.877 399.708 330.024C400.148 330.17 400.527 330.382 400.845 330.66C401.162 330.939 401.41 331.278 401.585 331.677C401.762 332.076 401.85 332.529 401.85 333.034V337.63H400.177V333.474C400.177 332.787 400.015 332.263 399.693 331.904C399.37 331.545 398.895 331.366 398.27 331.366C397.634 331.366 397.157 331.545 396.84 331.904C396.522 332.263 396.363 332.787 396.363 333.474V337.63H394.691V333.034Z" fill="#F18421"/>
<path d="M350.747 336.102C350.43 336.423 350.058 336.675 349.632 336.857C349.206 337.04 348.743 337.131 348.243 337.131C347.744 337.131 347.28 337.04 346.854 336.857C346.428 336.675 346.056 336.423 345.739 336.102C345.422 335.781 345.173 335.402 344.994 334.964C344.821 334.542 344.732 334.085 344.726 333.594H345.568C345.577 333.745 345.609 333.886 345.663 334.019C345.728 334.179 345.818 334.316 345.934 334.432C346.048 334.549 346.184 334.641 346.338 334.706C346.493 334.773 346.661 334.806 346.843 334.806C347.024 334.806 347.192 334.773 347.347 334.706C347.502 334.641 347.637 334.549 347.752 334.432C347.867 334.316 347.957 334.179 348.022 334.019C348.066 333.914 348.094 333.803 348.108 333.687H348.378C348.393 333.803 348.421 333.914 348.464 334.019C348.53 334.179 348.62 334.316 348.735 334.432C348.85 334.549 348.985 334.641 349.14 334.706C349.295 334.773 349.463 334.806 349.643 334.806C349.826 334.806 349.993 334.773 350.148 334.706C350.303 334.641 350.438 334.549 350.553 334.432C350.668 334.316 350.759 334.179 350.824 334.019C350.878 333.886 350.909 333.745 350.918 333.594H351.76C351.754 334.085 351.665 334.542 351.492 334.964C351.313 335.402 351.064 335.781 350.747 336.102ZM347.601 333.503C347.601 333.614 347.582 333.716 347.543 333.81C347.505 333.904 347.451 333.986 347.383 334.055C347.314 334.124 347.234 334.179 347.142 334.218C347.05 334.257 346.95 334.277 346.843 334.277C346.735 334.277 346.635 334.257 346.543 334.218C346.451 334.179 346.371 334.124 346.302 334.055C346.234 333.986 346.18 333.904 346.142 333.81C346.103 333.716 346.084 333.614 346.084 333.503C346.084 333.394 346.103 333.291 346.142 333.197C346.18 333.103 346.234 333.021 346.302 332.951C346.371 332.883 346.451 332.828 346.543 332.789C346.635 332.749 346.735 332.73 346.843 332.73C346.95 332.73 347.05 332.749 347.142 332.789C347.234 332.828 347.314 332.883 347.383 332.951C347.451 333.021 347.505 333.103 347.543 333.197C347.582 333.291 347.601 333.394 347.601 333.503ZM350.403 333.503C350.403 333.614 350.383 333.716 350.344 333.81C350.306 333.904 350.253 333.986 350.184 334.055C350.116 334.124 350.035 334.179 349.943 334.218C349.851 334.257 349.751 334.277 349.643 334.277C349.536 334.277 349.436 334.257 349.344 334.218C349.252 334.179 349.172 334.124 349.104 334.055C349.035 333.986 348.982 333.904 348.943 333.81C348.905 333.716 348.885 333.614 348.885 333.503C348.885 333.394 348.905 333.291 348.943 333.197C348.982 333.103 349.035 333.021 349.104 332.951C349.172 332.883 349.252 332.828 349.344 332.789C349.436 332.749 349.536 332.73 349.643 332.73C349.751 332.73 349.851 332.749 349.943 332.789C350.035 332.828 350.116 332.883 350.184 332.951C350.253 333.021 350.306 333.103 350.344 333.197C350.383 333.291 350.403 333.394 350.403 333.503ZM345.038 332.027C345.637 331.822 346.431 331.562 346.431 331.562C348.177 330.988 348.41 330.309 348.41 330.309C348.41 330.309 348.778 330.988 350.046 331.437C350.046 331.437 350.746 331.674 351.397 331.917C351.429 331.984 351.463 332.051 351.492 332.122C351.606 332.401 351.684 332.695 351.725 333.004H350.83C350.828 332.998 350.826 332.993 350.824 332.987C350.759 332.828 350.668 332.691 350.553 332.574C350.438 332.457 350.303 332.366 350.148 332.3C349.993 332.234 349.826 332.201 349.643 332.201C349.463 332.201 349.295 332.234 349.14 332.3C348.985 332.366 348.85 332.457 348.735 332.574C348.62 332.691 348.53 332.828 348.464 332.987C348.443 333.038 348.426 333.089 348.413 333.141H348.074C348.06 333.089 348.043 333.038 348.022 332.987C347.957 332.828 347.867 332.691 347.752 332.574C347.637 332.457 347.502 332.366 347.347 332.3C347.192 332.234 347.024 332.201 346.843 332.201C346.661 332.201 346.493 332.234 346.338 332.3C346.184 332.366 346.048 332.457 345.934 332.574C345.818 332.691 345.728 332.828 345.663 332.987C345.661 332.993 345.659 332.998 345.657 333.004H344.761C344.802 332.695 344.88 332.401 344.994 332.122C345.008 332.089 345.024 332.059 345.038 332.027ZM353.202 330.259C352.928 329.591 352.549 329.012 352.065 328.522C351.581 328.031 351.014 327.648 350.363 327.37C349.713 327.091 349.006 326.952 348.243 326.952C347.481 326.952 346.774 327.091 346.123 327.37C345.473 327.648 344.905 328.031 344.421 328.522C343.937 329.012 343.558 329.591 343.284 330.259C343.011 330.926 342.874 331.65 342.874 332.428C342.874 333.206 343.011 333.929 343.284 334.597C343.558 335.264 343.937 335.843 344.421 336.333C344.905 336.824 345.473 337.208 346.123 337.486C346.774 337.764 347.481 337.903 348.243 337.903C349.006 337.903 349.713 337.764 350.363 337.486C351.014 337.208 351.581 336.824 352.065 336.333C352.549 335.843 352.928 335.264 353.202 334.597C353.475 333.929 353.613 333.206 353.613 332.428C353.613 331.65 353.475 330.926 353.202 330.259Z" fill="#F18421"/>
</g>
<g filter="url(#filter11_d)">
<rect x="383" y="274" width="76.5335" height="35.5" rx="5" fill="white"/>
</g>
<g clip-path="url(#clip3)">
<path fill-rule="evenodd" clip-rule="evenodd" d="M404.996 297.133H403.483V288.044H404.996V289.16C405.532 288.389 406.429 287.946 407.479 287.946C407.66 287.946 407.84 287.958 408.019 287.982L408.13 287.997V289.624L407.969 289.583C407.703 289.525 407.432 289.498 407.159 289.502C405.889 289.502 405.001 290.446 405.001 291.798L404.996 297.133Z" fill="#2C2F33"/>
<path fill-rule="evenodd" clip-rule="evenodd" d="M422.549 297.117C424.039 297.117 425.114 296.65 426.037 295.604L426.116 295.515L425.149 294.51L425.054 294.607C424.37 295.339 423.741 295.762 422.546 295.762C420.868 295.762 419.77 294.674 419.657 292.913H426.462L426.47 292.791C426.487 292.538 426.487 292.258 426.487 292.245C426.487 291.007 426.105 289.874 425.415 289.057C424.685 288.19 423.681 287.734 422.512 287.734C419.934 287.734 418.137 289.713 418.137 292.55V292.617C418.14 295.309 419.912 297.117 422.549 297.117ZM419.751 291.567C419.902 290.238 421.114 289.18 422.521 289.18C423.826 289.18 424.894 290.239 424.959 291.567H419.751Z" fill="#2C2F33"/>
<path d="M411.111 288.044H409.598V297.134H411.111V288.044Z" fill="#2C2F33"/>
<path fill-rule="evenodd" clip-rule="evenodd" d="M416.293 297.244C415.83 297.244 415.147 297.195 414.606 296.778C414.015 296.328 413.716 295.537 413.716 294.431V285.934H415.228V288.038H417.196V289.477H415.228V294.431C415.228 295.575 415.63 295.804 416.279 295.804C416.537 295.81 416.795 295.793 417.05 295.754L417.199 295.73V297.131L417.103 297.155C416.838 297.22 416.566 297.249 416.293 297.244Z" fill="#2C2F33"/>
<path fill-rule="evenodd" clip-rule="evenodd" d="M432.072 297.244C432.677 297.248 433.276 297.131 433.836 296.899C434.395 296.668 434.903 296.326 435.331 295.895C435.769 295.446 436.115 294.913 436.348 294.328C436.581 293.743 436.696 293.117 436.688 292.487C436.696 291.857 436.581 291.231 436.348 290.646C436.115 290.061 435.769 289.528 435.331 289.079C434.462 288.217 433.292 287.734 432.072 287.734C430.853 287.734 429.683 288.217 428.814 289.079C428.376 289.528 428.03 290.061 427.798 290.646C427.565 291.231 427.449 291.857 427.458 292.487C427.449 293.118 427.564 293.745 427.797 294.331C428.031 294.917 428.377 295.451 428.816 295.901C429.244 296.331 429.752 296.671 430.311 296.901C430.869 297.132 431.468 297.248 432.072 297.244ZM432.072 289.175C432.487 289.17 432.899 289.251 433.282 289.415C433.665 289.578 434.01 289.819 434.295 290.123C434.863 290.731 435.176 291.574 435.176 292.494C435.176 293.414 434.863 294.255 434.295 294.864C434.006 295.163 433.661 295.4 433.28 295.562C432.898 295.724 432.488 295.808 432.074 295.808C431.66 295.808 431.251 295.724 430.869 295.562C430.488 295.4 430.142 295.163 429.853 294.864C429.286 294.255 428.973 293.414 428.973 292.494C428.973 291.574 429.286 290.731 429.853 290.123C430.138 289.819 430.483 289.578 430.864 289.415C431.246 289.252 431.657 289.171 432.072 289.175Z" fill="#2C2F33"/>
<path fill-rule="evenodd" clip-rule="evenodd" d="M398.418 297.244C397.81 297.248 397.206 297.131 396.643 296.9C396.079 296.669 395.567 296.327 395.135 295.895C394.695 295.447 394.348 294.915 394.114 294.331C393.88 293.746 393.764 293.12 393.772 292.49C393.763 291.859 393.88 291.233 394.114 290.648C394.348 290.063 394.695 289.53 395.135 289.082C395.567 288.65 396.079 288.308 396.643 288.077C397.207 287.846 397.81 287.729 398.418 287.733C399.736 287.733 400.88 288.197 401.724 289.074L401.805 289.159L400.88 290.266L400.784 290.161C400.171 289.516 399.356 289.175 398.418 289.175C398 289.17 397.585 289.251 397.198 289.414C396.812 289.577 396.464 289.818 396.174 290.123C395.601 290.731 395.285 291.573 395.285 292.493C395.285 293.413 395.601 294.253 396.174 294.862C396.464 295.166 396.813 295.406 397.199 295.568C397.585 295.73 398 295.811 398.418 295.805C399.356 295.805 400.173 295.464 400.78 294.82L400.876 294.714L401.801 295.819L401.72 295.904C400.88 296.78 399.737 297.244 398.418 297.244Z" fill="#2C2F33"/>
<path fill-rule="evenodd" clip-rule="evenodd" d="M410.356 284.284C410.125 284.286 409.899 284.218 409.706 284.09C409.514 283.962 409.363 283.779 409.274 283.565C409.184 283.351 409.16 283.114 409.204 282.886C409.248 282.658 409.358 282.448 409.521 282.283C409.684 282.118 409.891 282.005 410.117 281.959C410.343 281.913 410.578 281.936 410.791 282.025C411.004 282.114 411.187 282.264 411.315 282.457C411.443 282.651 411.511 282.878 411.511 283.111C411.511 283.421 411.39 283.718 411.173 283.938C410.957 284.158 410.663 284.282 410.356 284.284Z" fill="url(#paint11_linear)"/>
<path fill-rule="evenodd" clip-rule="evenodd" d="M448.174 297.244C447.943 297.245 447.717 297.178 447.525 297.05C447.332 296.922 447.181 296.739 447.092 296.525C447.002 296.311 446.978 296.075 447.022 295.846C447.066 295.618 447.176 295.408 447.338 295.243C447.501 295.078 447.708 294.965 447.934 294.919C448.16 294.873 448.395 294.895 448.608 294.984C448.821 295.072 449.004 295.223 449.132 295.416C449.26 295.609 449.329 295.836 449.329 296.069C449.33 296.379 449.209 296.677 448.992 296.897C448.776 297.117 448.481 297.242 448.174 297.244Z" fill="url(#paint12_linear)"/>
<path fill-rule="evenodd" clip-rule="evenodd" d="M444.882 295.516H441.807C441.425 295.516 441.059 295.362 440.789 295.09C440.519 294.818 440.367 294.449 440.367 294.064V284.937C440.367 284.307 440.119 283.703 439.677 283.257C439.235 282.812 438.636 282.561 438.011 282.561H413.666V283.62H437.88C438.262 283.62 438.628 283.773 438.898 284.045C439.168 284.318 439.319 284.687 439.319 285.072V294.198C439.319 294.829 439.568 295.433 440.01 295.879C440.451 296.324 441.051 296.575 441.676 296.575H444.882V295.516Z" fill="url(#paint13_linear)"/>
</g>
<path d="M156.761 120.71L162.437 137.075L173.771 123.977L156.761 120.71ZM193.539 152.537L192.557 153.671C193.128 154.165 193.977 154.158 194.539 153.655L193.539 152.537ZM211.456 136.506L194.503 140.054L206.052 152.962L211.456 136.506ZM165.988 130.679L192.557 153.671L194.521 151.403L167.951 128.41L165.988 130.679ZM194.539 153.655L202.396 146.625L200.395 144.39L192.539 151.419L194.539 153.655Z" fill="url(#paint14_linear)"/>
<path d="M234.56 119.767L240.236 136.132L251.57 123.034L234.56 119.767ZM271.338 151.594L270.356 152.728C270.927 153.222 271.776 153.215 272.338 152.712L271.338 151.594ZM289.255 135.563L272.302 139.111L283.851 152.019L289.255 135.563ZM243.787 129.736L270.356 152.728L272.319 150.46L245.75 127.467L243.787 129.736ZM272.338 152.712L280.194 145.682L278.194 143.447L270.338 150.476L272.338 152.712Z" fill="url(#paint15_linear)"/>
<path d="M292.084 282.201L286.409 265.837L275.074 278.934L292.084 282.201ZM255.306 250.375L256.288 249.24C255.717 248.747 254.869 248.754 254.306 249.257L255.306 250.375ZM237.389 266.406L254.342 262.858L242.793 249.95L237.389 266.406ZM282.857 272.233L256.288 249.24L254.325 251.509L280.894 274.502L282.857 272.233ZM254.306 249.257L246.45 256.286L248.45 258.522L256.307 251.493L254.306 249.257Z" fill="url(#paint16_linear)"/>
<defs>
<filter id="filter0_d" x="190" y="151" width="95.3365" height="95.3365" filterUnits="userSpaceOnUse" color-interpolation-filters="sRGB">
<feFlood flood-opacity="0" result="BackgroundImageFix"/>
<feColorMatrix in="SourceAlpha" type="matrix" values="0 0 0 0 0 0 0 0 0 0 0 0 0 0 0 0 0 0 127 0"/>
<feOffset/>
<feGaussianBlur stdDeviation="5.5"/>
<feColorMatrix type="matrix" values="0 0 0 0 0 0 0 0 0 0 0 0 0 0 0 0 0 0 0.25 0"/>
<feBlend mode="normal" in2="BackgroundImageFix" result="effect1_dropShadow"/>
<feBlend mode="normal" in="SourceGraphic" in2="effect1_dropShadow" result="shape"/>
</filter>
<filter id="filter1_f" x="171.264" y="152.659" width="46.907" height="13.8908" filterUnits="userSpaceOnUse" color-interpolation-filters="sRGB">
<feFlood flood-opacity="0" result="BackgroundImageFix"/>
<feBlend mode="normal" in="SourceGraphic" in2="BackgroundImageFix" result="shape"/>
<feGaussianBlur stdDeviation="1" result="effect1_foregroundBlur"/>
</filter>
<filter id="filter2_f" x="229.26" y="234.701" width="46.907" height="13.8906" filterUnits="userSpaceOnUse" color-interpolation-filters="sRGB">
<feFlood flood-opacity="0" result="BackgroundImageFix"/>
<feBlend mode="normal" in="SourceGraphic" in2="BackgroundImageFix" result="shape"/>
<feGaussianBlur stdDeviation="1" result="effect1_foregroundBlur"/>
</filter>
<filter id="filter3_f" x="247.649" y="152.659" width="46.9068" height="13.8905" filterUnits="userSpaceOnUse" color-interpolation-filters="sRGB">
<feFlood flood-opacity="0" result="BackgroundImageFix"/>
<feBlend mode="normal" in="SourceGraphic" in2="BackgroundImageFix" result="shape"/>
<feGaussianBlur stdDeviation="1" result="effect1_foregroundBlur"/>
</filter>
<filter id="filter4_d" x="109.212" y="60.7533" width="71.2612" height="74.6871" filterUnits="userSpaceOnUse" color-interpolation-filters="sRGB">
<feFlood flood-opacity="0" result="BackgroundImageFix"/>
<feColorMatrix in="SourceAlpha" type="matrix" values="0 0 0 0 0 0 0 0 0 0 0 0 0 0 0 0 0 0 127 0"/>
<feOffset dy="2"/>
<feGaussianBlur stdDeviation="3.5"/>
<feColorMatrix type="matrix" values="0 0 0 0 0 0 0 0 0 0 0 0 0 0 0 0 0 0 0.15 0"/>
<feBlend mode="normal" in2="BackgroundImageFix" result="effect1_dropShadow"/>
<feBlend mode="normal" in="SourceGraphic" in2="effect1_dropShadow" result="shape"/>
</filter>
<filter id="filter5_d" x="99.2122" y="63.7533" width="79.2612" height="82.6871" filterUnits="userSpaceOnUse" color-interpolation-filters="sRGB">
<feFlood flood-opacity="0" result="BackgroundImageFix"/>
<feColorMatrix in="SourceAlpha" type="matrix" values="0 0 0 0 0 0 0 0 0 0 0 0 0 0 0 0 0 0 127 0"/>
<feOffset dx="-6" dy="9"/>
<feGaussianBlur stdDeviation="5.5"/>
<feColorMatrix type="matrix" values="0 0 0 0 0 0 0 0 0 0 0 0 0 0 0 0 0 0 0.25 0"/>
<feBlend mode="normal" in2="BackgroundImageFix" result="effect1_dropShadow"/>
<feBlend mode="normal" in="SourceGraphic" in2="effect1_dropShadow" result="shape"/>
</filter>
<filter id="filter6_d" x="203.343" y="60.4038" width="75.3058" height="79.2004" filterUnits="userSpaceOnUse" color-interpolation-filters="sRGB">
<feFlood flood-opacity="0" result="BackgroundImageFix"/>
<feColorMatrix in="SourceAlpha" type="matrix" values="0 0 0 0 0 0 0 0 0 0 0 0 0 0 0 0 0 0 127 0"/>
<feOffset dx="-1" dy="4"/>
<feGaussianBlur stdDeviation="4.5"/>
<feColorMatrix type="matrix" values="0 0 0 0 0 0 0 0 0 0 0 0 0 0 0 0 0 0 0.2 0"/>
<feBlend mode="normal" in2="BackgroundImageFix" result="effect1_dropShadow"/>
<feBlend mode="normal" in="SourceGraphic" in2="effect1_dropShadow" result="shape"/>
</filter>
<filter id="filter7_d" x="209.343" y="65.4038" width="65.3058" height="69.2004" filterUnits="userSpaceOnUse" color-interpolation-filters="sRGB">
<feFlood flood-opacity="0" result="BackgroundImageFix"/>
<feColorMatrix in="SourceAlpha" type="matrix" values="0 0 0 0 0 0 0 0 0 0 0 0 0 0 0 0 0 0 127 0"/>
<feOffset dy="4"/>
<feGaussianBlur stdDeviation="2"/>
<feColorMatrix type="matrix" values="0 0 0 0 0 0 0 0 0 0 0 0 0 0 0 0 0 0 0.25 0"/>
<feBlend mode="normal" in2="BackgroundImageFix" result="effect1_dropShadow"/>
<feBlend mode="normal" in="SourceGraphic" in2="effect1_dropShadow" result="shape"/>
</filter>
<filter id="filter8_d" x="246.25" y="271" width="94.9224" height="98.3483" filterUnits="userSpaceOnUse" color-interpolation-filters="sRGB">
<feFlood flood-opacity="0" result="BackgroundImageFix"/>
<feColorMatrix in="SourceAlpha" type="matrix" values="0 0 0 0 0 0 0 0 0 0 0 0 0 0 0 0 0 0 127 0"/>
<feOffset dx="1" dy="8"/>
<feGaussianBlur stdDeviation="5.5"/>
<feColorMatrix type="matrix" values="0 0 0 0 0 0 0 0 0 0 0 0 0 0 0 0 0 0 0.25 0"/>
<feBlend mode="normal" in2="BackgroundImageFix" result="effect1_dropShadow"/>
<feBlend mode="normal" in="SourceGraphic" in2="effect1_dropShadow" result="shape"/>
</filter>
<filter id="filter9_d" x="319.713" y="261" width="72.9184" height="63.5" filterUnits="userSpaceOnUse" color-interpolation-filters="sRGB">
<feFlood flood-opacity="0" result="BackgroundImageFix"/>
<feColorMatrix in="SourceAlpha" type="matrix" values="0 0 0 0 0 0 0 0 0 0 0 0 0 0 0 0 0 0 127 0"/>
<feOffset dy="1"/>
<feGaussianBlur stdDeviation="7"/>
<feColorMatrix type="matrix" values="0 0 0 0 0 0 0 0 0 0 0 0 0 0 0 0 0 0 0.25 0"/>
<feBlend mode="normal" in2="BackgroundImageFix" result="effect1_dropShadow"/>
<feBlend mode="normal" in="SourceGraphic" in2="effect1_dropShadow" result="shape"/>
</filter>
<filter id="filter10_d" x="319.713" y="303" width="105.298" height="63.5" filterUnits="userSpaceOnUse" color-interpolation-filters="sRGB">
<feFlood flood-opacity="0" result="BackgroundImageFix"/>
<feColorMatrix in="SourceAlpha" type="matrix" values="0 0 0 0 0 0 0 0 0 0 0 0 0 0 0 0 0 0 127 0"/>
<feOffset dy="2"/>
<feGaussianBlur stdDeviation="7"/>
<feColorMatrix type="matrix" values="0 0 0 0 0 0 0 0 0 0 0 0 0 0 0 0 0 0 0.25 0"/>
<feBlend mode="normal" in2="BackgroundImageFix" result="effect1_dropShadow"/>
<feBlend mode="normal" in="SourceGraphic" in2="effect1_dropShadow" result="shape"/>
</filter>
<filter id="filter11_d" x="369" y="262" width="104.533" height="63.5" filterUnits="userSpaceOnUse" color-interpolation-filters="sRGB">
<feFlood flood-opacity="0" result="BackgroundImageFix"/>
<feColorMatrix in="SourceAlpha" type="matrix" values="0 0 0 0 0 0 0 0 0 0 0 0 0 0 0 0 0 0 127 0"/>
<feOffset dy="2"/>
<feGaussianBlur stdDeviation="7"/>
<feColorMatrix type="matrix" values="0 0 0 0 0 0 0 0 0 0 0 0 0 0 0 0 0 0 0.25 0"/>
<feBlend mode="normal" in2="BackgroundImageFix" result="effect1_dropShadow"/>
<feBlend mode="normal" in="SourceGraphic" in2="effect1_dropShadow" result="shape"/>
</filter>
<linearGradient id="paint0_linear" x1="181.982" y1="189.979" x2="181.982" y2="207.254" gradientUnits="userSpaceOnUse">
<stop stop-color="#FD3E72" stop-opacity="0"/>
<stop offset="1" stop-color="#FD3E72" stop-opacity="0.9"/>
</linearGradient>
<linearGradient id="paint1_linear" x1="241.175" y1="189.979" x2="241.175" y2="207.254" gradientUnits="userSpaceOnUse">
<stop stop-color="#FD3E72" stop-opacity="0"/>
<stop offset="1" stop-color="#FD3E72" stop-opacity="0.9"/>
</linearGradient>
<linearGradient id="paint2_linear" x1="196.717" y1="189.979" x2="196.717" y2="207.254" gradientUnits="userSpaceOnUse">
<stop stop-color="#FD3E72" stop-opacity="0"/>
<stop offset="1" stop-color="#FD3E72" stop-opacity="0.9"/>
</linearGradient>
<linearGradient id="paint3_linear" x1="255.911" y1="189.979" x2="255.911" y2="207.254" gradientUnits="userSpaceOnUse">
<stop stop-color="#FD3E72" stop-opacity="0"/>
<stop offset="1" stop-color="#FD3E72" stop-opacity="0.9"/>
</linearGradient>
<linearGradient id="paint4_linear" x1="211.451" y1="189.979" x2="211.451" y2="207.254" gradientUnits="userSpaceOnUse">
<stop stop-color="#FD3E72" stop-opacity="0"/>
<stop offset="1" stop-color="#FD3E72" stop-opacity="0.9"/>
</linearGradient>
<linearGradient id="paint5_linear" x1="270.638" y1="190.403" x2="270.638" y2="207.678" gradientUnits="userSpaceOnUse">
<stop stop-color="#FD3E72" stop-opacity="0"/>
<stop offset="1" stop-color="#FD3E72" stop-opacity="0.9"/>
</linearGradient>
<linearGradient id="paint6_linear" x1="226.187" y1="189.979" x2="226.187" y2="207.254" gradientUnits="userSpaceOnUse">
<stop stop-color="#FD3E72" stop-opacity="0"/>
<stop offset="1" stop-color="#FD3E72" stop-opacity="0.9"/>
</linearGradient>
<linearGradient id="paint7_linear" x1="285.38" y1="189.979" x2="285.38" y2="207.254" gradientUnits="userSpaceOnUse">
<stop stop-color="#FD3E72" stop-opacity="0"/>
<stop offset="1" stop-color="#FD3E72" stop-opacity="0.9"/>
</linearGradient>
<linearGradient id="paint8_linear" x1="194.717" y1="164.472" x2="194.717" y2="154.659" gradientUnits="userSpaceOnUse">
<stop stop-color="#FD3E72"/>
<stop offset="1" stop-color="#FD3E72" stop-opacity="0"/>
</linearGradient>
<linearGradient id="paint9_linear" x1="252.714" y1="236.778" x2="252.714" y2="246.591" gradientUnits="userSpaceOnUse">
<stop stop-color="#FD3E72"/>
<stop offset="1" stop-color="#FD3E72" stop-opacity="0"/>
</linearGradient>
<linearGradient id="paint10_linear" x1="271.103" y1="164.472" x2="271.103" y2="154.659" gradientUnits="userSpaceOnUse">
<stop stop-color="#FD3E72"/>
<stop offset="1" stop-color="#FD3E72" stop-opacity="0"/>
</linearGradient>
<linearGradient id="paint11_linear" x1="400.801" y1="283.111" x2="452.947" y2="283.111" gradientUnits="userSpaceOnUse">
<stop stop-color="#F68C21"/>
<stop offset="1" stop-color="#F16324"/>
</linearGradient>
<linearGradient id="paint12_linear" x1="618.386" y1="639.451" x2="1889.71" y2="639.451" gradientUnits="userSpaceOnUse">
<stop stop-color="#F68C21"/>
<stop offset="1" stop-color="#F16324"/>
</linearGradient>
<linearGradient id="paint13_linear" x1="2711.19" y1="1392.77" x2="19754" y2="1392.77" gradientUnits="userSpaceOnUse">
<stop stop-color="#F68C21"/>
<stop offset="1" stop-color="#F16324"/>
</linearGradient>
<linearGradient id="paint14_linear" x1="192.832" y1="150.651" x2="169.256" y2="129.433" gradientUnits="userSpaceOnUse">
<stop stop-color="white"/>
<stop offset="1" stop-color="white" stop-opacity="0"/>
</linearGradient>
<linearGradient id="paint15_linear" x1="270.631" y1="149.708" x2="247.055" y2="128.49" gradientUnits="userSpaceOnUse">
<stop stop-color="white"/>
<stop offset="1" stop-color="white" stop-opacity="0"/>
</linearGradient>
<linearGradient id="paint16_linear" x1="256.014" y1="252.261" x2="279.589" y2="273.479" gradientUnits="userSpaceOnUse">
<stop stop-color="white"/>
<stop offset="1" stop-color="white" stop-opacity="0"/>
</linearGradient>
<clipPath id="clip0">
<rect width="19.91" height="24.4609" fill="white" transform="translate(346.217 279.12)"/>
</clipPath>
<clipPath id="clip1">
<rect width="46.9835" height="46.9835" fill="white" transform="translate(268.974 284)"/>
</clipPath>
<clipPath id="clip2">
<rect width="58.9758" height="11.4516" fill="white" transform="translate(342.874 326.451)"/>
</clipPath>
<clipPath id="clip3">
<rect width="55.5576" height="15.3067" fill="white" transform="translate(393.771 281.937)"/>
</clipPath>
</defs>
</svg>
