<svg width="63" height="74" viewBox="0 0 63 74" fill="none" xmlns="http://www.w3.org/2000/svg">
<rect x="7.62207" y="13.2937" width="43.6032" height="48.2116" fill="#E42C60"/>
<rect width="58.9127" height="21.274" rx="3" fill="#EF4273"/>
<circle cx="10.5884" cy="10.5455" r="3.6336" fill="white"/>
<rect x="43.4253" y="9.74854" width="9.03968" height="1.77249" fill="white"/>
<rect y="49.0942" width="58.9127" height="21.274" rx="3" fill="#FD3E72"/>
<circle cx="9.66045" cy="59.8213" r="3.6336" fill="white"/>
<rect x="22.509" y="59.0237" width="29.955" height="1.77249" fill="white"/>
<rect y="24.5464" width="58.9127" height="21.274" rx="3" fill="#FFCEDB"/>
<rect x="48.9219" y="28.3599" width="3.54497" height="1.77249" fill="white"/>
<rect x="42.0103" y="28.3599" width="3.54497" height="1.77249" fill="white"/>
<rect x="35.1003" y="28.3599" width="3.54497" height="1.77249" fill="white"/>
<rect x="28.1851" y="28.3611" width="3.54497" height="1.77249" fill="white"/>
<path d="M0 3C0 1.34314 1.34315 0 3 0H4.09116V21.274H3C1.34315 21.274 0 19.9309 0 18.274V3Z" fill="#FF628E"/>
<path d="M58.9128 3C58.9128 1.34314 57.5697 0 55.9128 0H54.8217V21.274H55.9128C57.5697 21.274 58.9128 19.9309 58.9128 18.274V3Z" fill="#D12657"/>
<path d="M58.9128 27.5466C58.9128 25.8898 57.5697 24.5466 55.9128 24.5466H54.8217V45.8207H55.9128C57.5697 45.8207 58.9128 44.4775 58.9128 42.8207V27.5466Z" fill="#FFB9CC"/>
<path d="M58.9128 52.0942C58.9128 50.4374 57.5697 49.0942 55.9128 49.0942H54.8217V70.3683H55.9128C57.5697 70.3683 58.9128 69.0251 58.9128 67.3683V52.0942Z" fill="#F12F64"/>
<path d="M0 27.5466C0 25.8898 1.34315 24.5466 3 24.5466H4.09116V45.8207H3C1.34315 45.8207 0 44.4775 0 42.8207V27.5466Z" fill="#FFE2EA"/>
<path d="M0 52.0942C0 50.4374 1.34315 49.0942 3 49.0942H4.09116V70.3683H3C1.34315 70.3683 0 69.0251 0 67.3683V52.0942Z" fill="#FF6690"/>
<rect x="38.7449" y="41.1208" width="4.29906" height="29.4126" transform="rotate(-31.2907 38.7449 41.1208)" fill="white"/>
<rect x="42.5505" y="48.3965" width="5.50498" height="29.5353" rx="2.75249" transform="rotate(-31.2907 42.5505 48.3965)" fill="#5B5863"/>
<path d="M50.8468 26.3947C50.8468 36.3331 42.7901 44.3898 32.8517 44.3898C22.9134 44.3898 14.8567 36.3331 14.8567 26.3947C14.8567 16.4563 22.9134 8.39966 32.8517 8.39966C42.7901 8.39966 50.8468 16.4563 50.8468 26.3947Z" fill="white"/>
<circle cx="33.0262" cy="26.5692" r="15.5738" fill="#FFB7CA"/>
<path d="M33.8533 31.5195H36.2048L31.9783 20.1523H29.8064L25.5955 31.5195H27.947L28.7205 29.2461H33.0798L33.8533 31.5195ZM29.3689 27.3242L30.8845 22.8633H30.9001L32.4236 27.3242H29.3689ZM38.2517 33.3555H39.3923V19.7305H38.2517V33.3555Z" fill="white"/>
</svg>
