<svg width="486" height="458" viewBox="0 0 486 458" fill="none" xmlns="http://www.w3.org/2000/svg">
<circle cx="233" cy="244" r="214" fill="#67344E"/>
<circle cx="58" cy="52" r="52" fill="#FD3E72"/>
<circle cx="57.8835" cy="51.8835" r="46.8835" fill="white"/>
<rect x="24" y="36" width="69" height="40.1942" rx="5" fill="#FF789D"/>
<rect x="26.0098" y="38.0098" width="64.9806" height="36.1748" rx="3" fill="#FFD6E1"/>
<path d="M65.2966 50.4029C65.2966 51.0728 63.3521 51.0728 63.3521 50.4029V47.8207C63.3521 46.6227 62.8762 45.4738 62.0291 44.6268C61.182 43.7797 60.0331 43.3038 58.8352 43.3038C57.6372 43.3038 56.4884 43.7797 55.6413 44.6268C54.7942 45.4738 54.3183 46.6227 54.3183 47.8207V58.4045H52.3738V47.8207C52.3738 46.9721 52.5409 46.1319 52.8656 45.348C53.1903 44.5641 53.6663 43.8518 54.2663 43.2518C54.8663 42.6518 55.5786 42.1758 56.3625 41.8511C57.1464 41.5264 57.9867 41.3593 58.8352 41.3593C59.6837 41.3593 60.5239 41.5264 61.3079 41.8511C62.0918 42.1758 62.8041 42.6518 63.4041 43.2518C64.0041 43.8518 64.48 44.5641 64.8048 45.348C65.1295 46.1319 65.2966 46.9721 65.2966 47.8207V50.4029Z" fill="#263238"/>
<path d="M65.93 53.0261H51.7404C50.8491 53.0261 50.1265 53.7487 50.1265 54.6401V62.5877C50.1265 63.4791 50.8491 64.2016 51.7404 64.2016H65.93C66.8213 64.2016 67.5439 63.4791 67.5439 62.5877V54.6401C67.5439 53.7487 66.8213 53.0261 65.93 53.0261Z" fill="#FD3E72"/>
<path d="M60.2906 57.1567C60.2906 57.4446 60.2053 57.726 60.0453 57.9654C59.8854 58.2047 59.658 58.3913 59.3921 58.5015C59.1261 58.6117 58.8334 58.6405 58.551 58.5843C58.2687 58.5282 58.0093 58.3895 57.8057 58.186C57.6022 57.9824 57.4635 57.723 57.4074 57.4406C57.3512 57.1583 57.38 56.8656 57.4902 56.5996C57.6004 56.3337 57.7869 56.1063 58.0263 55.9464C58.2657 55.7864 58.5471 55.701 58.835 55.701C59.2211 55.701 59.5913 55.8544 59.8643 56.1274C60.1373 56.4004 60.2906 56.7706 60.2906 57.1567Z" fill="#263238"/>
<path d="M59.232 57.7346H58.4375V60.7292H59.232V57.7346Z" fill="#263238"/>
<path d="M51.0544 63.1404C51.0155 63.1404 50.9822 61.2764 50.9822 58.9735C50.9822 56.6706 51.0155 54.8066 51.0544 54.8066C51.0933 54.8066 51.1266 56.6706 51.1266 58.9735C51.1266 61.2764 51.1044 63.1404 51.0544 63.1404Z" fill="#FAFAFA"/>
<path d="M57.6962 59.0236C57.6962 59.0236 57.6268 59.0013 57.524 58.9263C57.3801 58.8185 57.2536 58.6892 57.149 58.543C56.9689 58.3033 56.8438 58.027 56.7826 57.7335C56.7213 57.4401 56.7255 57.1367 56.7947 56.845C56.8639 56.5534 56.9964 56.2805 57.183 56.0458C57.3695 55.8112 57.6055 55.6205 57.874 55.4873C58.0336 55.4042 58.2051 55.3461 58.3824 55.3151C58.4465 55.3017 58.5127 55.3017 58.5768 55.3151C58.3527 55.3914 58.1345 55.4842 57.924 55.5928C57.6771 55.7288 57.4614 55.9148 57.2907 56.1391C57.1201 56.3634 56.9982 56.621 56.9331 56.8952C56.8679 57.1694 56.8609 57.4542 56.9124 57.7313C56.964 58.0084 57.0729 58.2716 57.2323 58.5041C57.3728 58.6894 57.5279 58.8631 57.6962 59.0236Z" fill="#FAFAFA"/>
<rect x="33.8784" y="58.6068" width="49.2427" height="11.0583" rx="1.5" fill="white" stroke="#FFAFC5"/>
<circle cx="42.7573" cy="64.1359" r="2.00971" fill="#263238"/>
<circle cx="74.2426" cy="64.1359" r="2.00971" fill="#263238"/>
<circle cx="58.8351" cy="64.1359" r="2.00971" fill="#263238"/>
<circle cx="66.874" cy="64.1359" r="2.00971" fill="#263238"/>
<circle cx="50.7961" cy="64.1359" r="2.00971" fill="#263238"/>
<path d="M51.3908 27.42C51.0162 27.42 50.7127 27.1164 50.7127 26.7419V21.6782C50.7127 21.3036 51.0162 21 51.3908 21C51.7654 21 52.0689 21.3037 52.0689 21.6782V26.7418C52.0689 27.1164 51.7654 27.42 51.3908 27.42Z" fill="#748197"/>
<path d="M56.7083 44.484C58.9244 44.484 60.7274 42.6811 60.7274 40.4649V35.8064H59.907C59.6073 35.8064 59.4376 35.4629 59.6199 35.2249L63.0015 30.808C63.2117 30.5335 63.6505 30.6821 63.6505 31.0279V40.465C63.6505 44.2929 60.5362 47.4071 56.7083 47.4071L56.7083 44.484Z" fill="#262F3E"/>
<path d="M56.7036 44.4875C54.4887 44.4875 52.6868 42.6843 52.6868 40.4678V30.2593L49.7654 30.2593V40.4679C49.7654 44.2964 52.8778 47.4111 56.7035 47.4111L56.7036 44.4875Z" fill="#262F3E"/>
<path d="M51.3906 32.2905C53.1854 32.2905 54.6403 30.8355 54.6403 29.0407C54.6403 27.246 53.1854 25.791 51.3906 25.791C49.5958 25.791 48.1409 27.246 48.1409 29.0407C48.1409 30.8355 49.5958 32.2905 51.3906 32.2905Z" fill="#D10E43"/>
<rect x="17.6584" y="25.0436" width="97.2643" height="6.16314" transform="rotate(30 17.6584 25.0436)" fill="#FD3E72"/>
<path d="M449.095 124.72H36.97C27.0615 124.72 19.0291 132.752 19.0291 142.661V403.045C19.0291 412.953 27.0615 420.986 36.97 420.986H449.095C459.003 420.986 467.036 412.953 467.036 403.045V142.661C467.036 132.752 459.003 124.72 449.095 124.72Z" fill="#647C88"/>
<path d="M0.238525 399.08H485.679V403.082C485.679 408.895 483.37 414.47 479.259 418.58C475.149 422.691 469.574 425 463.761 425H22.2184C16.4053 425 10.8303 422.691 6.71981 418.58C2.60934 414.47 0.300097 408.895 0.300097 403.082V399.08H0.238525Z" fill="#263238"/>
<path d="M453.762 136.492H31.0593V386.68H453.762V136.492Z" fill="#455A64"/>
<path d="M198.87 399.08L204.891 408.66H289.646L295.249 399.08H198.87Z" fill="#455A64"/>
<path d="M441.904 144.964H43.7917C41.5679 144.964 39.7651 146.766 39.7651 148.99V381.853C39.7651 384.077 41.5679 385.88 43.7917 385.88H441.904C444.128 385.88 445.93 384.077 445.93 381.853V148.99C445.93 146.766 444.128 144.964 441.904 144.964Z" fill="#EBEBEB"/>
<path d="M445.589 162.621H39.4243V385.892H445.589V162.621Z" fill="#FAFAFA"/>
<g opacity="0.6">
<rect opacity="0.4" x="138.447" y="317.139" width="209.298" height="12.3779" fill="#C4C4C4"/>
<rect opacity="0.4" x="192.46" y="186.609" width="100.148" height="12.3779" fill="#C4C4C4"/>
<rect opacity="0.4" x="104.69" y="250.749" width="33.7578" height="33.7578" fill="#C4C4C4"/>
<rect opacity="0.4" x="96.8132" y="290.133" width="49.5114" height="3.37578" fill="#C4C4C4"/>
<rect opacity="0.4" x="104.69" y="295.759" width="33.7578" height="3.37578" fill="#C4C4C4"/>
<rect opacity="0.4" x="165.454" y="341.895" width="33.7578" height="33.7578" fill="#C4C4C4"/>
<rect opacity="0.4" x="165.454" y="381.279" width="33.7578" height="3.37578" fill="#C4C4C4"/>
<rect opacity="0.4" x="226.218" y="341.895" width="33.7578" height="33.7578" fill="#C4C4C4"/>
<rect opacity="0.4" x="226.218" y="381.279" width="33.7578" height="3.37578" fill="#C4C4C4"/>
<rect opacity="0.4" x="286.981" y="341.895" width="33.7578" height="33.7578" fill="#C4C4C4"/>
<rect opacity="0.4" x="286.982" y="381.279" width="33.7578" height="3.37578" fill="#C4C4C4"/>
<rect opacity="0.4" x="226.218" y="250.749" width="33.7578" height="33.7578" fill="#C4C4C4"/>
<rect opacity="0.4" x="218.341" y="290.133" width="49.5114" height="3.37578" fill="#C4C4C4"/>
<rect opacity="0.4" x="226.218" y="295.759" width="33.7578" height="3.37578" fill="#C4C4C4"/>
<rect opacity="0.4" x="286.981" y="250.749" width="33.7578" height="33.7578" fill="#C4C4C4"/>
<rect opacity="0.4" x="279.105" y="290.133" width="49.5114" height="3.37578" fill="#C4C4C4"/>
<rect opacity="0.4" x="286.981" y="295.759" width="33.7578" height="3.37578" fill="#C4C4C4"/>
<rect opacity="0.4" x="347.746" y="250.749" width="33.7578" height="33.7578" fill="#C4C4C4"/>
<rect opacity="0.4" x="339.869" y="290.133" width="49.5114" height="3.37578" fill="#C4C4C4"/>
<rect opacity="0.4" x="347.746" y="295.759" width="33.7578" height="3.37578" fill="#C4C4C4"/>
<rect opacity="0.4" x="165.454" y="250.749" width="33.7578" height="33.7578" fill="#C4C4C4"/>
<rect opacity="0.4" x="157.577" y="290.133" width="49.5114" height="3.37578" fill="#C4C4C4"/>
<rect opacity="0.4" x="165.454" y="295.759" width="33.7578" height="3.37578" fill="#C4C4C4"/>
<rect x="131.946" y="210.49" width="221.176" height="18.6294" rx="9.31471" stroke="#C4C4C4" stroke-width="0.5"/>
</g>
<path d="M73.0739 154.273C73.0739 154.916 72.8829 155.545 72.5251 156.08C72.1674 156.615 71.659 157.031 71.0642 157.277C70.4695 157.523 69.8153 157.586 69.1843 157.46C68.5534 157.334 67.9742 157.023 67.52 156.567C67.0659 156.111 66.7573 155.531 66.6332 154.899C66.5092 154.268 66.5753 153.614 66.8233 153.02C67.0712 152.426 67.4898 151.919 68.026 151.564C68.5622 151.208 69.1919 151.019 69.8354 151.022C70.2617 151.022 70.6838 151.106 71.0776 151.269C71.4713 151.433 71.8288 151.673 72.1297 151.975C72.4306 152.277 72.6689 152.635 72.8309 153.029C72.9929 153.424 73.0755 153.846 73.0739 154.273Z" fill="#263238"/>
<path d="M53.4213 154.273C53.4213 154.915 53.2306 155.544 52.8734 156.079C52.5162 156.613 52.0085 157.03 51.4145 157.276C50.8205 157.522 50.1669 157.586 49.5363 157.461C48.9057 157.335 48.3265 157.026 47.8718 156.571C47.4172 156.117 47.1076 155.537 46.9821 154.907C46.8567 154.276 46.9211 153.623 47.1671 153.028C47.4132 152.434 47.8298 151.927 48.3644 151.57C48.899 151.212 49.5275 151.022 50.1705 151.022C51.0326 151.022 51.8595 151.364 52.4691 151.974C53.0788 152.584 53.4213 153.41 53.4213 154.273Z" fill="#263238"/>
<path d="M62.8537 154.273C62.8537 154.916 62.6627 155.545 62.3049 156.08C61.9472 156.615 61.4387 157.031 60.844 157.277C60.2493 157.523 59.595 157.586 58.9641 157.46C58.3332 157.334 57.754 157.023 57.2998 156.567C56.8457 156.111 56.5371 155.531 56.413 154.899C56.289 154.268 56.3551 153.614 56.6031 153.02C56.851 152.426 57.2696 151.919 57.8058 151.564C58.342 151.208 58.9717 151.019 59.6152 151.022C60.0415 151.022 60.4636 151.106 60.8573 151.269C61.2511 151.433 61.6086 151.673 61.9095 151.975C62.2104 152.277 62.4487 152.635 62.6107 153.029C62.7727 153.424 62.8553 153.846 62.8537 154.273Z" fill="#263238"/>
<path d="M463.231 399.08C463.231 399.24 363.798 399.375 241.167 399.375C118.535 399.375 19.0657 399.24 19.0657 399.08C19.0657 398.92 118.486 398.784 241.167 398.784C363.847 398.784 463.231 398.92 463.231 399.08Z" fill="#455A64"/>
<g style="mix-blend-mode:color">
<path d="M40.5493 144.974H445.889V385.78H40.5493V144.974Z" fill="#FD3E72"/>
</g>
<path d="M287.855 294.972H274.979V224.892C274.979 216.96 271.828 209.352 266.219 203.743C260.61 198.135 253.003 194.984 245.071 194.984C237.139 194.984 229.532 198.135 223.923 203.743C218.314 209.352 215.163 216.96 215.163 224.892V294.972H202.287V224.892C202.287 219.273 203.394 213.71 205.544 208.519C207.694 203.328 210.845 198.612 214.818 194.639C218.791 190.666 223.507 187.515 228.698 185.365C233.889 183.215 239.452 182.108 245.071 182.108C250.689 182.108 256.253 183.215 261.444 185.365C266.634 187.515 271.351 190.666 275.324 194.639C279.297 198.612 282.448 203.328 284.598 208.519C286.748 213.71 287.855 219.273 287.855 224.892V294.972Z" fill="#263238"/>
<path d="M292.049 263.795H198.093C192.191 263.795 187.406 268.579 187.406 274.481V327.106C187.406 333.008 192.191 337.793 198.093 337.793H292.049C297.951 337.793 302.735 333.008 302.735 327.106V274.481C302.735 268.579 297.951 263.795 292.049 263.795Z" fill="#FD3E72"/>
<path d="M254.71 291.146C254.71 293.053 254.144 294.916 253.085 296.501C252.026 298.086 250.521 299.322 248.76 300.051C246.998 300.781 245.061 300.971 243.191 300.6C241.321 300.228 239.604 299.31 238.256 297.962C236.908 296.614 235.99 294.896 235.618 293.027C235.246 291.157 235.437 289.219 236.167 287.458C236.896 285.697 238.131 284.192 239.716 283.132C241.301 282.073 243.165 281.508 245.071 281.508C247.627 281.508 250.079 282.524 251.887 284.331C253.694 286.139 254.71 288.59 254.71 291.146Z" fill="#263238"/>
<path d="M247.701 294.972H242.44V314.801H247.701V294.972Z" fill="#263238"/>
<path d="M193.55 330.766C193.293 330.766 193.072 318.424 193.072 303.176C193.072 287.927 193.293 275.585 193.55 275.585C193.808 275.585 194.028 287.927 194.028 303.176C194.028 318.424 193.881 330.766 193.55 330.766Z" fill="#FAFAFA"/>
<path d="M237.53 303.507C237.53 303.507 237.07 303.36 236.389 302.863C235.436 302.149 234.599 301.293 233.906 300.325C232.714 298.738 231.885 296.908 231.48 294.965C231.074 293.022 231.102 291.013 231.56 289.082C232.018 287.151 232.896 285.344 234.131 283.79C235.366 282.236 236.929 280.974 238.707 280.092C239.764 279.541 240.899 279.157 242.073 278.951C242.497 278.863 242.936 278.863 243.36 278.951C241.876 279.457 240.431 280.072 239.038 280.791C237.403 281.691 235.975 282.923 234.845 284.408C233.714 285.893 232.908 287.598 232.476 289.414C232.045 291.23 231.998 293.116 232.34 294.95C232.681 296.785 233.402 298.528 234.458 300.067C235.388 301.294 236.415 302.445 237.53 303.507Z" fill="#FAFAFA"/>
<circle cx="182" cy="52" r="52" fill="#FD3E72"/>
<circle cx="181.883" cy="51.8835" r="46.8835" fill="white"/>
<rect x="146" y="25" width="71" height="54" rx="3" fill="#FFE4EC"/>
<path d="M146 28C146 26.3431 147.343 25 149 25H214C215.657 25 217 26.3431 217 28V32H146V28Z" fill="#FF8AAA"/>
<circle cx="152.5" cy="28.5" r="1.5" fill="white"/>
<circle cx="158.5" cy="28.5" r="1.5" fill="white"/>
<circle cx="164.5" cy="28.5" r="1.5" fill="white"/>
<circle cx="181.5" cy="54.5" r="17.5" fill="#FFBFD2"/>
<path d="M171.819 66.8431L170.341 66.3737L171.724 62.0158L175.726 60.4445L176.293 61.8884L172.979 63.1896L171.819 66.8431Z" fill="#333333"/>
<path d="M174.912 53.5776L171.724 52.3257L170.341 47.9679L171.819 47.4984L172.979 51.1519L175.479 52.1337L174.912 53.5776Z" fill="#333333"/>
<path d="M169.839 59.9538L168.73 58.8697L171.782 55.7468H175.196V57.298H172.435L169.839 59.9538Z" fill="#333333"/>
<path d="M192.08 66.8432L190.92 63.1897L187.606 61.8885L188.173 60.4446L192.175 62.016L193.559 66.3738L192.08 66.8432Z" fill="#1A1A1A"/>
<path d="M188.987 53.5776L188.42 52.1337L190.92 51.1519L192.08 47.4984L193.559 47.9679L192.175 52.3257L188.987 53.5776Z" fill="#1A1A1A"/>
<path d="M194.06 59.954L191.465 57.2981H188.703V55.7469H192.118L195.169 58.8698L194.06 59.954Z" fill="#1A1A1A"/>
<path d="M180.732 45.3169H179.181V44.1839C179.181 43.686 178.776 43.281 178.278 43.281V41.7297C179.632 41.7297 180.732 42.8306 180.732 44.1839V45.3169Z" fill="#333333"/>
<path d="M184.718 45.3169H183.167V44.1839C183.167 42.8306 184.268 41.7297 185.621 41.7297V43.281C185.123 43.281 184.718 43.686 184.718 44.1839V45.3169Z" fill="#1A1A1A"/>
<path d="M181.95 65.3399C177.981 65.3399 174.764 62.1227 174.764 58.154V50.9681H189.136V58.1541C189.136 62.1227 185.919 65.3399 181.95 65.3399Z" fill="#E83163"/>
<path d="M181.95 65.34C181.95 62.2336 181.95 50.9681 181.95 50.9681H189.136V58.1541C189.136 62.1228 185.918 65.34 181.95 65.34Z" fill="#D32454"/>
<path d="M181.95 44.1907C179.147 44.1907 176.875 46.4624 176.875 49.2648V52.0851H187.024V49.2648C187.024 46.4625 184.752 44.1907 181.95 44.1907Z" fill="#4D4D4D"/>
<path d="M181.95 44.1907C181.95 46.0962 181.95 52.0851 181.95 52.0851H187.024V49.2648C187.024 46.4625 184.752 44.1907 181.95 44.1907Z" fill="#333333"/>
<path d="M189.136 50.9681H174.764L181.95 56.7955L189.136 50.9681Z" fill="#EF4E7A"/>
<path d="M189.136 50.9681H181.95V56.7955L189.136 50.9681Z" fill="#BC1442"/>
<rect x="141.658" y="25.0436" width="97.2643" height="6.16314" transform="rotate(30 141.658 25.0436)" fill="#FD3E72"/>
<circle cx="306" cy="52" r="52" fill="#FD3E72"/>
<circle cx="306" cy="52.0001" r="46.8835" fill="white"/>
<path d="M326.608 47.7319C326.608 47.7262 326.609 47.7205 326.609 47.7147C326.609 44.2138 317.382 21.5632 306 21.5632C294.618 21.5632 285.391 44.2138 285.391 47.7147C285.391 47.7204 285.391 47.7261 285.391 47.7319C285.391 47.7372 285.391 47.7427 285.391 47.748C285.391 51.0092 299.286 68.1532 306 68.1532C312.569 68.1532 326.609 51.0092 326.609 47.748C326.609 47.7425 326.608 47.7369 326.608 47.7314C326.608 47.7315 326.608 47.7317 326.608 47.7319Z" fill="#A8143C"/>
<path d="M319.77 47.268H317.429V40.4799H319.77C320.976 40.4799 321.954 41.4577 321.954 42.6639V45.084C321.954 46.2903 320.976 47.268 319.77 47.268Z" fill="#F4C892"/>
<path d="M292.229 47.268H294.57V40.4799H292.229C291.023 40.4799 290.045 41.4577 290.045 42.6639V45.084C290.045 46.2903 291.023 47.268 292.229 47.268Z" fill="#F4C892"/>
<path d="M313.973 59.3564L312.496 59.0596C311.449 58.8491 310.695 57.9288 310.695 56.8602V54.7329H301.037V56.9139C301.037 57.9826 300.284 58.9028 299.236 59.1134L298.027 59.3564V67.4772H313.973V59.3564H313.973Z" fill="#FED9A8"/>
<path d="M306 56.3341C299.028 56.3341 293.375 50.6818 293.375 43.7095V40.1617C293.375 33.1893 299.028 27.5371 306 27.5371C312.972 27.5371 318.625 33.1893 318.625 40.1617V43.7095C318.625 50.6818 312.972 56.3341 306 56.3341Z" fill="#FED9A8"/>
<path d="M306 40.5365C317.363 40.5365 326.578 44.4738 326.608 47.7319C326.608 47.7262 326.609 47.7205 326.609 47.7147C326.609 44.2138 317.382 21.5632 306 21.5632C294.618 21.5632 285.391 44.2138 285.391 47.7147C285.391 47.7204 285.391 47.7261 285.391 47.7319C285.421 44.4738 294.636 40.5365 306 40.5365Z" fill="#FD3E72"/>
<path d="M333.829 80.9439C333.28 76.908 331.049 65.2048 323.387 62.1303L314.648 59.4055H297.351L288.612 62.1303C280.95 65.2048 278.719 76.9079 278.17 80.9439C278.071 81.6733 278.64 82.3219 279.376 82.3219H332.623C333.359 82.3219 333.928 81.6733 333.829 80.9439Z" fill="#DE2457"/>
<path d="M323.278 58.9633H288.722C287.575 58.9633 286.646 59.8929 286.646 61.0397V80.7305H325.354V61.0397C325.354 59.8929 324.424 58.9633 323.278 58.9633Z" fill="#3E4B60"/>
<path d="M323.278 58.9633H316.691C317.838 58.9633 318.768 59.8929 318.768 61.0397V80.7305H325.354V61.0397C325.354 59.8929 324.424 58.9633 323.278 58.9633Z" fill="#262F3E"/>
<path d="M326.603 79.1862H285.396C284.615 79.1862 283.981 79.8196 283.981 80.6011V80.9071C283.981 81.6885 284.615 82.322 285.396 82.322H326.603C327.385 82.322 328.018 81.6885 328.018 80.9071V80.6011C328.018 79.8196 327.385 79.1862 326.603 79.1862Z" fill="#2F3B4F"/>
<path d="M326.603 79.1862H321.391V82.322H326.603C327.384 82.322 328.018 81.6885 328.018 80.9071V80.6011C328.018 79.8196 327.384 79.1862 326.603 79.1862Z" fill="#1E2837"/>
<path d="M306 72.8061C307.605 72.8061 308.905 71.5054 308.905 69.9009C308.905 68.2963 307.605 66.9956 306 66.9956C304.395 66.9956 303.095 68.2963 303.095 69.9009C303.095 71.5054 304.395 72.8061 306 72.8061Z" fill="white"/>
<path d="M309.144 43.8703C306.861 43.0238 305.158 43.0167 302.855 43.8703C303.019 44.2059 303.101 44.3738 303.266 44.7094C303.312 44.8042 303.364 44.8957 303.418 44.986C305.38 44.3132 306.634 44.3149 308.595 44.9926C308.815 44.5438 308.925 44.3192 309.144 43.8703Z" fill="#4D4D4D"/>
<path d="M318.624 43.7096V43.0493H314.285V43.9837C314.285 44.0893 314.29 44.1942 314.299 44.299H318.61C318.619 44.1037 318.624 43.9073 318.624 43.7096Z" fill="#4D4D4D"/>
<path d="M293.375 43.0493V43.7096C293.375 43.9073 293.381 44.1036 293.39 44.299H297.714V43.0493H293.375Z" fill="#4D4D4D"/>
<path d="M302.379 47.1126H297.702C297.187 47.1126 296.77 46.695 296.77 46.1798V43.5177C296.77 43.0026 297.187 42.585 297.702 42.585H303.531C304.046 42.585 304.464 43.0026 304.464 43.5177V45.0273C304.464 46.179 303.53 47.1126 302.379 47.1126Z" fill="#4D4D4D"/>
<path d="M309.621 47.1126H314.297C314.812 47.1126 315.23 46.695 315.23 46.1798V43.5177C315.23 43.0026 314.812 42.585 314.297 42.585H308.468C307.953 42.585 307.536 43.0026 307.536 43.5177V45.0273C307.536 46.179 308.469 47.1126 309.621 47.1126Z" fill="#4D4D4D"/>
<path d="M314.297 42.5847H308.635V46.8647C308.929 47.0225 309.264 47.1124 309.621 47.1124H314.297C314.812 47.1124 315.23 46.6948 315.23 46.1797V43.5176C315.23 43.0024 314.812 42.5847 314.297 42.5847Z" fill="#353535"/>
<path d="M303.531 42.5847H297.866V47.1124H302.379C303.53 47.1124 304.464 46.1789 304.464 45.0272V43.5176C304.464 43.0024 304.046 42.5847 303.531 42.5847Z" fill="#353535"/>
<rect x="265.082" y="25" width="97.2643" height="6.16314" transform="rotate(30 265.082 25)" fill="#FD3E72"/>
<circle cx="430" cy="52" r="52" fill="#FD3E72"/>
<circle cx="430" cy="52" r="46.8835" fill="white"/>
<path d="M396.036 25.3828C409.3 16.1493 448.305 31.2584 451.497 48.0517C442.895 37.2181 412.969 24.1524 396.036 25.3828Z" fill="#5B5863"/>
<path d="M424.613 23.7786L431.741 26.6922C431.957 26.7805 432.085 27.0847 431.997 27.3008L429.083 34.4289C428.995 34.6449 428.691 34.7726 428.475 34.6844L421.346 31.7708C421.13 31.6825 421.003 31.3782 421.091 31.1622L423.984 24.085C424.093 23.8181 424.397 23.6903 424.613 23.7786Z" fill="#FD3E72"/>
<path d="M422.61 32.2872L427.211 34.1681L410.471 75.1237C409.561 77.3495 404.96 75.4687 405.87 73.2429L422.61 32.2872Z" fill="#C4C4C4"/>
<path d="M445.914 63.4579C445.914 58.6082 442.58 54.395 437.86 53.2808C433.14 52.1665 428.273 54.4438 426.105 58.7814C423.936 63.1191 425.034 68.3787 428.757 71.4861C432.481 74.5935 437.852 74.7331 441.732 71.8234L445.914 63.4579Z" fill="#F12C62"/>
<path d="M435.5 73C440.747 73 445 68.7467 445 63.5C445 58.2533 440.747 54 435.5 54C430.253 54 426 58.2533 426 63.5C426 68.7467 430.253 73 435.5 73Z" fill="#FF6790"/>
<path d="M430.652 65.0254C430.889 65.0254 431.102 64.9766 431.291 64.8789C431.48 64.7812 431.641 64.6504 431.771 64.4863L431.416 64.1836C431.32 64.3027 431.207 64.3965 431.078 64.4668C430.947 64.5371 430.805 64.5703 430.652 64.5703C430.473 64.5703 430.312 64.5293 430.172 64.4473C430.031 64.3652 429.92 64.25 429.842 64.1016C429.762 63.9531 429.723 63.7812 429.723 63.5898C429.723 63.3906 429.762 63.2148 429.84 63.0625C429.918 62.9102 430.027 62.793 430.168 62.709C430.309 62.627 430.469 62.584 430.652 62.584C430.799 62.584 430.939 62.6191 431.072 62.6895C431.205 62.7598 431.32 62.8555 431.416 62.9727L431.771 62.6719C431.623 62.4883 431.449 62.3516 431.254 62.2617C431.059 62.1719 430.857 62.127 430.652 62.127C430.473 62.127 430.305 62.1523 430.15 62.2012C429.996 62.252 429.863 62.3203 429.75 62.4102C429.637 62.5 429.539 62.6035 429.459 62.7246C429.377 62.8457 429.316 62.9805 429.277 63.127C429.238 63.2734 429.219 63.4277 429.219 63.5898C429.219 63.7734 429.242 63.9414 429.293 64.0977C429.342 64.2539 429.41 64.3867 429.5 64.5C429.588 64.6133 429.691 64.709 429.812 64.7891C429.934 64.8691 430.064 64.9277 430.207 64.9668C430.348 65.0059 430.496 65.0254 430.652 65.0254ZM433.27 63.0195C433.15 63.0195 433.039 63.0488 432.934 63.1035C432.828 63.1582 432.738 63.2383 432.662 63.3418H432.656V63.0488H432.209V65H432.656V64.0742C432.656 63.9688 432.676 63.873 432.717 63.7891C432.758 63.7051 432.818 63.6387 432.9 63.5879C432.982 63.5391 433.078 63.5137 433.189 63.5137C433.229 63.5137 433.273 63.5156 433.324 63.5195V63.0215C433.312 63.0215 433.295 63.0195 433.27 63.0195ZM434.998 63.0488L434.496 64.3652H434.492L433.953 63.0488H433.482L434.275 64.8906L433.924 65.791H434.395L435.467 63.0488H434.998ZM436.912 63.0195C436.65 63.0195 436.443 63.1094 436.293 63.2852H436.285V63.0488H435.838V65.791H436.285V64.7598H436.291C436.439 64.9414 436.645 65.0312 436.908 65.0312C437.014 65.0312 437.115 65.0176 437.213 64.9863C437.311 64.9551 437.396 64.9121 437.475 64.8535C437.553 64.7949 437.619 64.7266 437.676 64.6465C437.732 64.5664 437.775 64.4746 437.807 64.3691C437.838 64.2637 437.854 64.1523 437.854 64.0332C437.854 63.9375 437.842 63.8438 437.82 63.7539C437.799 63.6641 437.768 63.582 437.729 63.5078C437.689 63.4336 437.641 63.3672 437.584 63.3066C437.525 63.2461 437.463 63.1953 437.395 63.1523C437.324 63.1094 437.25 63.0781 437.168 63.0547C437.086 63.0312 437 63.0195 436.912 63.0195ZM436.838 64.625C436.676 64.625 436.541 64.5703 436.432 64.4609C436.322 64.3516 436.268 64.2109 436.268 64.0352C436.268 63.8613 436.32 63.7168 436.426 63.5996C436.531 63.4844 436.668 63.4258 436.836 63.4258C436.996 63.4258 437.129 63.4824 437.236 63.5938C437.344 63.7051 437.398 63.8516 437.398 64.0352C437.398 64.209 437.346 64.3516 437.242 64.4609C437.137 64.5703 437.002 64.625 436.838 64.625ZM438.885 65.0312C439 65.0312 439.094 65.0215 439.166 65.002C439.238 64.9824 439.311 64.9551 439.381 64.916L439.264 64.5293C439.158 64.5859 439.061 64.6133 438.975 64.6133C438.91 64.6133 438.863 64.5938 438.832 64.5508C438.801 64.5098 438.787 64.4395 438.787 64.3418V63.4297H439.361V63.0488H438.787V62.3516L438.34 62.4004V63.0488H438.102V63.4297H438.34V64.3828C438.34 64.5977 438.387 64.7578 438.482 64.8672C438.578 64.9766 438.713 65.0312 438.885 65.0312ZM440.58 65.0312C440.775 65.0312 440.951 64.9902 441.107 64.9062C441.264 64.8223 441.385 64.7031 441.473 64.5508C441.559 64.3984 441.604 64.2227 441.604 64.0273C441.604 63.832 441.559 63.6562 441.473 63.502C441.385 63.3496 441.264 63.2305 441.109 63.1465C440.953 63.0625 440.777 63.0195 440.58 63.0195C440.377 63.0195 440.197 63.0645 440.041 63.1523C439.885 63.2402 439.764 63.3594 439.68 63.5117C439.596 63.6641 439.555 63.8359 439.555 64.0273C439.555 64.1699 439.578 64.3027 439.629 64.4258C439.678 64.5508 439.746 64.6562 439.834 64.7461C439.922 64.8359 440.031 64.9043 440.16 64.9551C440.289 65.0059 440.428 65.0312 440.58 65.0312ZM440.58 64.625C440.414 64.625 440.277 64.5684 440.17 64.4531C440.062 64.3398 440.01 64.1973 440.01 64.0273C440.01 63.8555 440.062 63.7129 440.168 63.5977C440.273 63.4844 440.41 63.4258 440.58 63.4258C440.742 63.4258 440.877 63.4824 440.986 63.5938C441.094 63.707 441.148 63.8516 441.148 64.0273C441.148 64.2012 441.094 64.3438 440.984 64.457C440.875 64.5703 440.74 64.625 440.58 64.625Z" fill="white"/>
<path d="M451.457 81.9137C457.232 81.9137 461.914 77.232 461.914 71.4569C461.914 65.6817 457.232 61 451.457 61C445.682 61 441 65.6817 441 71.4569C441 77.232 445.682 81.9137 451.457 81.9137Z" fill="#FD3E72"/>
<path d="M451.5 81C456.747 81 461 76.7467 461 71.5C461 66.2533 456.747 62 451.5 62C446.253 62 442 66.2533 442 71.5C442 76.7467 446.253 81 451.5 81Z" fill="#FF91AF"/>
<path d="M446.652 73.0254C446.889 73.0254 447.102 72.9766 447.291 72.8789C447.48 72.7812 447.641 72.6504 447.771 72.4863L447.416 72.1836C447.32 72.3027 447.207 72.3965 447.078 72.4668C446.947 72.5371 446.805 72.5703 446.652 72.5703C446.473 72.5703 446.312 72.5293 446.172 72.4473C446.031 72.3652 445.92 72.25 445.842 72.1016C445.762 71.9531 445.723 71.7812 445.723 71.5898C445.723 71.3906 445.762 71.2148 445.84 71.0625C445.918 70.9102 446.027 70.793 446.168 70.709C446.309 70.627 446.469 70.584 446.652 70.584C446.799 70.584 446.939 70.6191 447.072 70.6895C447.205 70.7598 447.32 70.8555 447.416 70.9727L447.771 70.6719C447.623 70.4883 447.449 70.3516 447.254 70.2617C447.059 70.1719 446.857 70.127 446.652 70.127C446.473 70.127 446.305 70.1523 446.15 70.2012C445.996 70.252 445.863 70.3203 445.75 70.4102C445.637 70.5 445.539 70.6035 445.459 70.7246C445.377 70.8457 445.316 70.9805 445.277 71.127C445.238 71.2734 445.219 71.4277 445.219 71.5898C445.219 71.7734 445.242 71.9414 445.293 72.0977C445.342 72.2539 445.41 72.3867 445.5 72.5C445.588 72.6133 445.691 72.709 445.812 72.7891C445.934 72.8691 446.064 72.9277 446.207 72.9668C446.348 73.0059 446.496 73.0254 446.652 73.0254ZM449.27 71.0195C449.15 71.0195 449.039 71.0488 448.934 71.1035C448.828 71.1582 448.738 71.2383 448.662 71.3418H448.656V71.0488H448.209V73H448.656V72.0742C448.656 71.9688 448.676 71.873 448.717 71.7891C448.758 71.7051 448.818 71.6387 448.9 71.5879C448.982 71.5391 449.078 71.5137 449.189 71.5137C449.229 71.5137 449.273 71.5156 449.324 71.5195V71.0215C449.312 71.0215 449.295 71.0195 449.27 71.0195ZM450.998 71.0488L450.496 72.3652H450.492L449.953 71.0488H449.482L450.275 72.8906L449.924 73.791H450.395L451.467 71.0488H450.998ZM452.912 71.0195C452.65 71.0195 452.443 71.1094 452.293 71.2852H452.285V71.0488H451.838V73.791H452.285V72.7598H452.291C452.439 72.9414 452.645 73.0312 452.908 73.0312C453.014 73.0312 453.115 73.0176 453.213 72.9863C453.311 72.9551 453.396 72.9121 453.475 72.8535C453.553 72.7949 453.619 72.7266 453.676 72.6465C453.732 72.5664 453.775 72.4746 453.807 72.3691C453.838 72.2637 453.854 72.1523 453.854 72.0332C453.854 71.9375 453.842 71.8438 453.82 71.7539C453.799 71.6641 453.768 71.582 453.729 71.5078C453.689 71.4336 453.641 71.3672 453.584 71.3066C453.525 71.2461 453.463 71.1953 453.395 71.1523C453.324 71.1094 453.25 71.0781 453.168 71.0547C453.086 71.0312 453 71.0195 452.912 71.0195ZM452.838 72.625C452.676 72.625 452.541 72.5703 452.432 72.4609C452.322 72.3516 452.268 72.2109 452.268 72.0352C452.268 71.8613 452.32 71.7168 452.426 71.5996C452.531 71.4844 452.668 71.4258 452.836 71.4258C452.996 71.4258 453.129 71.4824 453.236 71.5938C453.344 71.7051 453.398 71.8516 453.398 72.0352C453.398 72.209 453.346 72.3516 453.242 72.4609C453.137 72.5703 453.002 72.625 452.838 72.625ZM454.885 73.0312C455 73.0312 455.094 73.0215 455.166 73.002C455.238 72.9824 455.311 72.9551 455.381 72.916L455.264 72.5293C455.158 72.5859 455.061 72.6133 454.975 72.6133C454.91 72.6133 454.863 72.5938 454.832 72.5508C454.801 72.5098 454.787 72.4395 454.787 72.3418V71.4297H455.361V71.0488H454.787V70.3516L454.34 70.4004V71.0488H454.102V71.4297H454.34V72.3828C454.34 72.5977 454.387 72.7578 454.482 72.8672C454.578 72.9766 454.713 73.0312 454.885 73.0312ZM456.58 73.0312C456.775 73.0312 456.951 72.9902 457.107 72.9062C457.264 72.8223 457.385 72.7031 457.473 72.5508C457.559 72.3984 457.604 72.2227 457.604 72.0273C457.604 71.832 457.559 71.6562 457.473 71.502C457.385 71.3496 457.264 71.2305 457.109 71.1465C456.953 71.0625 456.777 71.0195 456.58 71.0195C456.377 71.0195 456.197 71.0645 456.041 71.1523C455.885 71.2402 455.764 71.3594 455.68 71.5117C455.596 71.6641 455.555 71.8359 455.555 72.0273C455.555 72.1699 455.578 72.3027 455.629 72.4258C455.678 72.5508 455.746 72.6562 455.834 72.7461C455.922 72.8359 456.031 72.9043 456.16 72.9551C456.289 73.0059 456.428 73.0312 456.58 73.0312ZM456.58 72.625C456.414 72.625 456.277 72.5684 456.17 72.4531C456.062 72.3398 456.01 72.1973 456.01 72.0273C456.01 71.8555 456.062 71.7129 456.168 71.5977C456.273 71.4844 456.41 71.4258 456.58 71.4258C456.742 71.4258 456.877 71.4824 456.986 71.5938C457.094 71.707 457.148 71.8516 457.148 72.0273C457.148 72.2012 457.094 72.3438 456.984 72.457C456.875 72.5703 456.74 72.625 456.58 72.625Z" fill="white"/>
<rect x="389.658" y="25.0436" width="97.2643" height="6.16314" transform="rotate(30 389.658 25.0436)" fill="#FD3E72"/>
</svg>
