<svg width="26" height="10" viewBox="0 0 26 10" fill="none" xmlns="http://www.w3.org/2000/svg">
<path d="M14.4429 0.84668C12.0533 0.84668 10.5488 2.55706 10.5488 5.27087C10.5488 7.98544 12.0526 9.68974 14.4429 9.68974C16.8393 9.68974 18.343 7.98544 18.343 5.27087C18.343 2.55706 16.8324 0.84668 14.4429 0.84668ZM14.4429 8.93565C12.5647 8.93565 11.3814 7.51641 11.3814 5.27163C11.3814 3.02076 12.564 1.60153 14.4429 1.60153C16.3218 1.60153 17.5112 3.02076 17.5105 5.27163C17.5104 7.51641 16.321 8.93565 14.4429 8.93565Z" fill="#303030"/>
<path d="M3.32605 9.54723C3.2431 9.57079 2.90979 9.58296 2.74313 9.58296C1.70893 9.58296 1.29266 9.14358 1.29266 8.03297V4.02991H0.371094V3.37692H1.29266V1.83301H2.07725V3.37692H3.29637V4.02991H2.07725V7.99116C2.07725 8.63274 2.32686 8.89956 2.89761 8.89956C2.98056 8.89956 3.2781 8.8874 3.32605 8.88208V9.54723H3.32605Z" fill="#303030"/>
<path d="M7.21335 9.55336H6.37473L4.07422 3.37695H4.90676L6.78566 8.72781H6.80317L8.68817 3.37695H9.50852L7.21335 9.55336Z" fill="#303030"/>
<path d="M22.3337 9.68976C20.5385 9.68976 19.2775 8.69773 19.1885 7.22528H20.0027C20.0918 8.25304 21.0613 8.95315 22.4045 8.95315C23.689 8.95315 24.6098 8.25227 24.6098 7.2899C24.6098 6.48792 24.0566 6.01281 22.785 5.69201L21.7211 5.41911C20.1336 5.01546 19.4259 4.34423 19.4259 3.21614C19.4259 1.83263 20.6747 0.84668 22.3626 0.84668C24.033 0.84668 25.2582 1.83262 25.3054 3.19257H24.4911C24.4135 2.22487 23.5574 1.58328 22.339 1.58328C21.1496 1.58328 20.2699 2.24235 20.2699 3.18649C20.2699 3.92309 20.8048 4.35639 22.0651 4.67718L22.9927 4.91512C24.7171 5.34841 25.4424 6.00824 25.4424 7.20171C25.4431 8.70381 24.2301 9.68976 22.3337 9.68976Z" fill="#303030"/>
</svg>
