<svg width="41" height="48" viewBox="0 0 41 48" fill="none" xmlns="http://www.w3.org/2000/svg">
<path d="M4.98652 9.09527L6.9166 7.74381C7.39912 7.40595 8.21951 7.5506 8.55737 8.03312L14.6389 16.7185L10.7788 19.4214L4.69721 10.736C4.35935 10.2535 4.504 9.43313 4.98652 9.09527Z" fill="white"/>
<path d="M13.4463 3.53431V1.17811C13.4463 0.589065 14.0353 1.66893e-05 14.6244 1.66893e-05H24.0492C24.6382 1.66893e-05 25.2273 0.589065 25.2273 1.17811V3.53431C25.2273 4.12335 24.6382 4.7124 24.0492 4.7124H14.6244C14.0353 4.7124 13.4463 4.12335 13.4463 3.53431Z" fill="white"/>
<path d="M18.1141 2.35596H20.4703L21.6484 2.35596V14.1369H16.936V2.35596H18.1141Z" fill="white"/>
<path d="M33.7024 9.09527L31.7724 7.74381C31.2898 7.40595 30.4695 7.5506 30.1316 8.03312L24.05 16.7185L27.9102 19.4214L33.9918 10.736C34.3296 10.2535 34.185 9.43313 33.7024 9.09527Z" fill="white"/>
<circle cx="20.0276" cy="27.0276" r="19.0276" fill="#FD3E72" stroke="#43526A" stroke-width="2"/>
<path d="M20.1783 18.8491V24.8051H25.2273L18.4953 34.1644V28.2084H13.4463L20.1783 18.8491Z" fill="white" stroke="white" stroke-linecap="round" stroke-linejoin="round"/>
</svg>
