<svg width="96" height="67" viewBox="0 0 96 67" fill="none" xmlns="http://www.w3.org/2000/svg">
<rect x="51.4758" y="5.56543" width="44.5233" height="58.4368" rx="8" fill="white"/>
<rect x="54.4951" y="8.11621" width="38.9578" height="52.8714" rx="5" fill="#FFD2DF"/>
<path d="M79.9288 14.6131H78.3394C78.2672 14.6131 78.2125 14.6765 78.2256 14.7465C78.2278 14.7618 78.23 14.7771 78.2322 14.7924C78.2431 14.8536 78.2606 14.9127 78.2847 14.9717C78.3219 15.0614 78.381 15.1401 78.462 15.21C78.5408 15.28 78.6525 15.3128 78.7948 15.3128C78.9371 15.3128 79.0466 15.2778 79.1276 15.21C79.191 15.1554 79.2392 15.0941 79.2764 15.0286C79.2961 14.9936 79.3355 14.9717 79.3749 14.9717H79.8194C79.9004 14.9717 79.9551 15.0526 79.9288 15.127C79.9091 15.1838 79.8851 15.2385 79.8566 15.2866C79.8062 15.3762 79.7515 15.4549 79.6902 15.5205C79.6289 15.5861 79.5654 15.6408 79.4954 15.6845C79.4253 15.7282 79.3596 15.7632 79.2939 15.7917C79.1341 15.8529 78.9677 15.8857 78.7904 15.8857C78.5584 15.8813 78.3526 15.8332 78.173 15.7414C78.0964 15.6998 78.022 15.6473 77.9476 15.5839C77.8731 15.5205 77.8074 15.4396 77.7505 15.3434C77.6936 15.2472 77.6476 15.1313 77.6126 14.9958C77.5776 14.8602 77.5601 14.705 77.5601 14.5235C77.5601 14.3442 77.5776 14.1868 77.6126 14.0512C77.6476 13.9156 77.6936 13.7997 77.7505 13.7013C77.8074 13.603 77.8731 13.5221 77.9476 13.4565C78.022 13.3909 78.0964 13.3384 78.173 13.2968C78.3504 13.2006 78.554 13.1503 78.7838 13.1416C78.7882 13.1416 78.7926 13.1416 78.797 13.1416C78.9853 13.1503 79.1604 13.1897 79.3246 13.2597C79.3947 13.2903 79.4647 13.3318 79.5348 13.3821C79.6048 13.4324 79.6705 13.4936 79.7318 13.568C79.7931 13.6423 79.8456 13.7298 79.8916 13.8325C79.9376 13.9353 79.9726 14.0534 79.9923 14.1868C79.9989 14.2392 80.0055 14.2917 80.0098 14.3464C80.0142 14.401 80.0186 14.4601 80.0186 14.5235C80.0208 14.5191 80.0339 14.6131 79.9288 14.6131ZM79.1713 14.1824C79.2545 14.1824 79.3137 14.0949 79.2764 14.0206C79.2764 14.0206 79.2764 14.0184 79.2742 14.0184C79.248 13.9637 79.2129 13.9134 79.167 13.8675C79.121 13.8238 79.0685 13.7866 79.0072 13.7604C78.9459 13.7342 78.8714 13.721 78.7904 13.721C78.7072 13.721 78.635 13.7342 78.5737 13.7604C78.5124 13.7866 78.4577 13.8216 78.4139 13.8675C78.3679 13.9134 78.3329 13.9615 78.3044 14.0184V14.0206C78.2672 14.0971 78.3263 14.1846 78.4095 14.1846H79.1713V14.1824Z" fill="#A12B52"/>
<path d="M82.006 12H80.8933C80.6264 12.0057 80.4958 12.1486 80.4958 12.4173V15.8875H81.796C82.148 15.8875 82.4205 15.8589 82.6135 15.8074C83.3572 15.6073 83.766 14.8984 83.766 13.9437C83.766 12.7032 83.2323 12 82.006 12ZM82.9598 13.9437C82.9598 14.7612 82.6873 15.1843 81.9038 15.1843H81.2736V12.6803H82.006C82.7214 12.6803 82.9598 13.1662 82.9598 13.9437Z" fill="#FD3E72"/>
<path d="M86.5041 14.2552V15.8366H86.1625C85.9414 15.8213 85.8309 15.7145 85.8309 15.501V14.1179C85.8158 13.8382 85.6651 13.7009 85.3687 13.7009C85.0723 13.7009 84.9215 13.8382 84.9165 14.1179V15.8366H84.2383V14.2552C84.2383 13.4873 84.6201 13.106 85.3787 13.106C86.1373 13.106 86.5091 13.4873 86.5041 14.2552Z" fill="#FD3E72"/>
<path d="M86.7289 14.9518H87.4121C87.4272 15.2467 87.6382 15.3484 87.9648 15.3484C88.2461 15.3484 88.3868 15.2671 88.3868 15.0942C88.3868 14.9569 88.1557 14.845 87.6985 14.7636C87.1107 14.6569 86.8093 14.3924 86.8042 13.9704C86.8042 13.3907 87.2564 13.1161 87.8643 13.106C88.2059 13.106 88.4772 13.1822 88.6782 13.3348C88.8741 13.4924 88.9796 13.7111 88.9947 13.9907H88.5727C88.4169 13.9857 88.3164 13.9297 88.2763 13.8229C88.231 13.706 88.0954 13.6399 87.8743 13.6399C87.6131 13.6399 87.4825 13.7111 87.4825 13.8484C87.4825 13.9857 87.6533 14.0924 87.9999 14.1585C88.4521 14.2501 88.7485 14.367 88.8942 14.5043C89.0198 14.6365 89.0801 14.7992 89.0801 14.9823C89.0801 15.6433 88.5676 15.8874 87.8643 15.8874C87.4925 15.8874 87.2112 15.8061 87.0303 15.6484C86.8294 15.4959 86.7289 15.262 86.7289 14.9518Z" fill="#FD3E72"/>
<path d="M77.2482 12.0439C76.8979 12.0439 76.6155 12.326 76.6155 12.6758V14.506C76.6155 14.5825 76.6111 14.659 76.6023 14.7399C76.5936 14.8186 76.5717 14.8908 76.5367 14.9564C76.5016 15.022 76.4491 15.0766 76.379 15.1204C76.309 15.1641 76.2083 15.186 76.0813 15.186C75.9543 15.186 75.8536 15.1641 75.7836 15.1204C75.7135 15.0766 75.661 15.022 75.6259 14.9564C75.5909 14.8908 75.569 14.8186 75.5603 14.7399C75.5515 14.6612 75.5471 14.5825 75.5471 14.506V12.619C75.1968 12.619 74.9144 12.9011 74.9144 13.2509V14.5038C74.9144 14.5803 74.91 14.6568 74.9013 14.7377C74.8925 14.8164 74.8706 14.8886 74.8356 14.9542C74.8006 15.0198 74.748 15.0744 74.678 15.1182C74.6079 15.1619 74.5072 15.1838 74.3803 15.1838C74.2533 15.1838 74.1526 15.1619 74.0825 15.1182C74.0125 15.0744 73.9599 15.0198 73.9249 14.9542C73.8899 14.8886 73.868 14.8164 73.8592 14.7377C73.8505 14.659 73.8461 14.5803 73.8461 14.5038V13.1941C73.4958 13.1941 73.2134 13.4783 73.2134 13.8259V14.5038C73.2134 14.6831 73.2309 14.8405 73.2659 14.9761C73.3009 15.1116 73.3447 15.2275 73.3973 15.3259C73.452 15.4243 73.5133 15.5052 73.5834 15.5708C73.6534 15.6364 73.7257 15.6889 73.7979 15.7304C73.9665 15.8266 74.1613 15.8791 74.3781 15.8856C74.5992 15.8791 74.794 15.8266 74.9648 15.7304C75.037 15.6889 75.1093 15.6364 75.1771 15.5708C75.1947 15.5533 75.2122 15.5358 75.2297 15.5161C75.2472 15.5358 75.2647 15.5533 75.2822 15.5708C75.3523 15.6364 75.4245 15.6889 75.4968 15.7304C75.6653 15.8266 75.8602 15.8791 76.0769 15.8856C76.298 15.8791 76.4929 15.8266 76.6636 15.7304C76.7359 15.6889 76.8081 15.6364 76.876 15.5708C76.946 15.5052 77.0073 15.4243 77.0621 15.3259C77.1168 15.2275 77.1606 15.1116 77.1934 14.9761C77.2263 14.8405 77.2416 14.6852 77.2416 14.5038L77.2482 12.0439Z" fill="#A12B52"/>
<path d="M85.9437 16.6784V16.6767C85.9623 16.6688 85.9778 16.6575 85.9904 16.6425C86.0026 16.6275 86.0115 16.6116 86.0167 16.5949C86.0219 16.5783 86.0245 16.5603 86.0245 16.5411C86.0245 16.4932 86.0093 16.4565 85.9793 16.431C85.9493 16.406 85.9056 16.3931 85.8485 16.3931H85.6541V16.9999H85.8771C85.906 16.9999 85.9315 16.9958 85.9537 16.9874C85.976 16.9791 85.9945 16.9674 86.0086 16.9524C86.0226 16.9374 86.0334 16.9199 86.0408 16.8994C86.0482 16.8794 86.0519 16.8569 86.0519 16.8323C86.0519 16.7926 86.0423 16.7597 86.0237 16.733C86.0049 16.7063 85.9782 16.6884 85.9437 16.6784ZM85.7589 16.4994H85.8282C85.8482 16.4994 85.8652 16.5028 85.8785 16.5086C85.8919 16.5144 85.9015 16.5228 85.9074 16.5328C85.9134 16.5432 85.9163 16.5557 85.9163 16.5699C85.9163 16.5862 85.9122 16.5999 85.9045 16.6108C85.8967 16.6216 85.8871 16.6296 85.8752 16.6346C85.8633 16.6396 85.85 16.6417 85.8352 16.6417H85.7589V16.4994ZM85.8448 16.8944H85.7589V16.7384H85.8459C85.8767 16.7384 85.9 16.7455 85.9163 16.7597C85.9326 16.7739 85.9408 16.7931 85.9408 16.8172C85.9408 16.8343 85.9367 16.8485 85.9285 16.8602C85.9204 16.8719 85.9089 16.8802 85.8948 16.8861C85.8808 16.8919 85.8641 16.8944 85.8448 16.8944ZM86.6874 16.9999H87.0478V16.8927H86.7926V16.7522H86.9845V16.6462H86.7926V16.5007H87.0319V16.3931H86.6874V16.9999ZM87.7989 16.9999H87.9052V16.5007H88.0545V16.3931H87.6503V16.5007H87.7989V16.9999ZM88.9815 16.9999H89.093L88.8926 16.3931H88.7896L88.5899 16.9999H88.7014L88.7381 16.8786H88.9448L88.9815 16.9999ZM88.7689 16.776L88.8407 16.5378H88.8415L88.9137 16.776H88.7689Z" fill="#A12B52"/>
<rect width="68.1762" height="51.48" rx="5" fill="#FD3E72"/>
<rect x="2.89868" y="2.89868" width="62.6688" height="40.668" rx="2" fill="#FFD2DF"/>
<path d="M30.9692 22.6195H27.5513C27.3959 22.6195 27.2782 22.7559 27.3065 22.9064C27.3112 22.9393 27.3159 22.9722 27.3206 23.0051C27.3441 23.1368 27.3818 23.2637 27.4336 23.3907C27.5136 23.5834 27.6407 23.7527 27.8149 23.9032C27.9844 24.0536 28.2245 24.1242 28.5305 24.1242C28.8365 24.1242 29.0719 24.049 29.2461 23.9032C29.3826 23.7856 29.4862 23.654 29.5662 23.5129C29.6086 23.4377 29.6934 23.3907 29.7781 23.3907H30.7338C30.908 23.3907 31.0257 23.5647 30.9692 23.7245C30.9268 23.8467 30.8751 23.9643 30.8139 24.0677C30.7056 24.2605 30.5879 24.4298 30.456 24.5709C30.3242 24.7119 30.1877 24.8295 30.0371 24.9235C29.8864 25.0176 29.7451 25.0928 29.6039 25.1539C29.2602 25.2856 28.9024 25.3561 28.5211 25.3561C28.022 25.3467 27.5795 25.2433 27.1935 25.0458C27.0287 24.9564 26.8686 24.8436 26.7085 24.7072C26.5485 24.5709 26.4072 24.3969 26.2848 24.19C26.1624 23.9831 26.0636 23.7339 25.9883 23.4424C25.9129 23.1509 25.8752 22.817 25.8752 22.4268C25.8752 22.0412 25.9129 21.7026 25.9883 21.4111C26.0636 21.1196 26.1624 20.8704 26.2848 20.6588C26.4072 20.4472 26.5485 20.2732 26.7085 20.1322C26.8686 19.9911 27.0287 19.8783 27.1935 19.7889C27.5748 19.582 28.0127 19.4739 28.507 19.4551C28.5164 19.4551 28.5258 19.4551 28.5352 19.4551C28.9401 19.4739 29.3167 19.5585 29.6698 19.709C29.8205 19.7748 29.9711 19.8642 30.1218 19.9723C30.2724 20.0805 30.4137 20.2121 30.5455 20.372C30.6773 20.5318 30.7903 20.7199 30.8892 20.9409C30.988 21.1619 31.0634 21.4158 31.1057 21.7026C31.1199 21.8155 31.134 21.9283 31.1434 22.0459C31.1528 22.1634 31.1622 22.2904 31.1622 22.4268C31.1669 22.4173 31.1952 22.6195 30.9692 22.6195ZM29.3403 21.6932C29.5192 21.6932 29.6463 21.5052 29.5662 21.3453C29.5662 21.3453 29.5662 21.3406 29.5615 21.3406C29.5051 21.223 29.4297 21.1149 29.3309 21.0161C29.232 20.9221 29.119 20.8422 28.9872 20.7858C28.8553 20.7293 28.6953 20.7011 28.5211 20.7011C28.3422 20.7011 28.1868 20.7293 28.055 20.7858C27.9232 20.8422 27.8055 20.9174 27.7114 21.0161C27.6125 21.1149 27.5371 21.2183 27.4759 21.3406V21.3453C27.3959 21.5099 27.523 21.6979 27.7019 21.6979H29.3403V21.6932Z" fill="#A12B52"/>
<path d="M35.4358 17H33.0429C32.469 17.0123 32.1882 17.3196 32.1882 17.8975V25.3598H34.9841C35.741 25.3598 36.3271 25.2984 36.7422 25.1877C38.3415 24.7574 39.2206 23.233 39.2206 21.1799C39.2206 18.5122 38.0729 17 35.4358 17ZM37.4869 21.1799C37.4869 22.9379 36.9009 23.8477 35.216 23.8477H33.8609V18.463H35.4358C36.9741 18.463 37.4869 19.508 37.4869 21.1799Z" fill="#FD3E72"/>
<path d="M45.1086 21.85V25.2508H44.374C43.8986 25.218 43.6609 24.9883 43.6609 24.529V21.5547C43.6285 20.9533 43.3044 20.6581 42.667 20.6581C42.0295 20.6581 41.7054 20.9533 41.6946 21.5547V25.2508H40.2361V21.85C40.2361 20.1988 41.0572 19.3787 42.6886 19.3787C44.3199 19.3787 45.1194 20.1988 45.1086 21.85Z" fill="#FD3E72"/>
<path d="M45.592 23.3481H47.0613C47.0938 23.9823 47.5475 24.201 48.2498 24.201C48.8548 24.201 49.1573 24.026 49.1573 23.6542C49.1573 23.359 48.6603 23.1184 47.6772 22.9435C46.4131 22.7138 45.7649 22.1452 45.7541 21.2376C45.7541 19.991 46.7264 19.4005 48.0337 19.3787C48.7684 19.3787 49.3518 19.5427 49.7839 19.8707C50.2053 20.2097 50.4321 20.6799 50.4646 21.2814H49.557C49.2221 21.2704 49.006 21.1501 48.9196 20.9205C48.8224 20.669 48.5307 20.5268 48.0553 20.5268C47.4935 20.5268 47.2126 20.6799 47.2126 20.9752C47.2126 21.2704 47.5799 21.5001 48.3254 21.6422C49.2977 21.839 49.9352 22.0905 50.2485 22.3858C50.5186 22.6701 50.6482 23.02 50.6482 23.4137C50.6482 24.8352 49.5462 25.3601 48.0337 25.3601C47.2342 25.3601 46.6292 25.1851 46.2402 24.8462C45.8081 24.5181 45.592 24.0151 45.592 23.3481Z" fill="#FD3E72"/>
<path d="M25.2045 17.0945C24.4513 17.0945 23.8439 17.701 23.8439 18.4534V22.3889C23.8439 22.5535 23.8345 22.7181 23.8157 22.8921C23.7969 23.0613 23.7498 23.2165 23.6744 23.3576C23.5991 23.4986 23.4861 23.6162 23.3355 23.7102C23.1848 23.8042 22.9683 23.8513 22.6952 23.8513C22.4221 23.8513 22.2056 23.8042 22.0549 23.7102C21.9043 23.6162 21.7913 23.4986 21.7159 23.3576C21.6406 23.2165 21.5935 23.0613 21.5747 22.8921C21.5559 22.7228 21.5465 22.5535 21.5465 22.3889V18.3311C20.7932 18.3311 20.1859 18.9377 20.1859 19.69V22.3843C20.1859 22.5488 20.1765 22.7134 20.1576 22.8874C20.1388 23.0566 20.0917 23.2118 20.0164 23.3529C19.9411 23.4939 19.8281 23.6115 19.6774 23.7055C19.5268 23.7996 19.3102 23.8466 19.0371 23.8466C18.7641 23.8466 18.5475 23.7996 18.3969 23.7055C18.2462 23.6115 18.1332 23.4939 18.0579 23.3529C17.9826 23.2118 17.9355 23.0566 17.9167 22.8874C17.8978 22.7181 17.8884 22.5488 17.8884 22.3843V19.5677C17.1352 19.5677 16.5278 20.179 16.5278 20.9266V22.3843C16.5278 22.7698 16.5655 23.1083 16.6408 23.3999C16.7161 23.6914 16.8103 23.9406 16.9233 24.1522C17.041 24.3638 17.1728 24.5378 17.3235 24.6788C17.4741 24.8199 17.6295 24.9327 17.7848 25.0221C18.1474 25.229 18.5664 25.3418 19.0324 25.3559C19.5079 25.3418 19.927 25.229 20.2942 25.0221C20.4495 24.9327 20.6049 24.8199 20.7508 24.6788C20.7885 24.6412 20.8261 24.6036 20.8638 24.5613C20.9015 24.6036 20.9392 24.6412 20.9768 24.6788C21.1274 24.8199 21.2828 24.9327 21.4382 25.0221C21.8007 25.229 22.2197 25.3418 22.6858 25.3559C23.1613 25.3418 23.5803 25.229 23.9475 25.0221C24.1029 24.9327 24.2582 24.8199 24.4042 24.6788C24.5548 24.5378 24.6866 24.3638 24.8043 24.1522C24.922 23.9406 25.0162 23.6914 25.0868 23.3999C25.1574 23.1083 25.1904 22.7745 25.1904 22.3843L25.2045 17.0945Z" fill="#A12B52"/>
<path d="M43.9042 27.0608V27.0572C43.944 27.0401 43.9775 27.0159 44.0046 26.9836C44.0309 26.9513 44.05 26.9173 44.0611 26.8814C44.0723 26.8455 44.0779 26.8069 44.0779 26.7657C44.0779 26.6625 44.0452 26.5836 43.9807 26.5289C43.9162 26.4751 43.8222 26.4473 43.6995 26.4473H43.2812V27.7523H43.7608C43.823 27.7523 43.8779 27.7433 43.9257 27.7254C43.9735 27.7075 44.0133 27.6823 44.0436 27.6501C44.0739 27.6178 44.097 27.5801 44.1129 27.5361C44.1288 27.4931 44.1368 27.4447 44.1368 27.3917C44.1368 27.3065 44.1161 27.2357 44.0763 27.1783C44.0356 27.1209 43.9783 27.0823 43.9042 27.0608ZM43.5067 26.676H43.6557C43.6987 26.676 43.7353 26.6832 43.764 26.6957C43.7927 26.7083 43.8134 26.7262 43.8261 26.7477C43.8389 26.7702 43.8453 26.7971 43.8453 26.8276C43.8453 26.8625 43.8365 26.8922 43.8198 26.9155C43.803 26.9388 43.7823 26.9558 43.7568 26.9666C43.7313 26.9773 43.7027 26.9818 43.6708 26.9818H43.5067V26.676ZM43.6915 27.5254H43.5067V27.1899H43.6939C43.76 27.1899 43.8102 27.2052 43.8453 27.2357C43.8803 27.2662 43.8978 27.3074 43.8978 27.3594C43.8978 27.3962 43.8891 27.4267 43.8715 27.4518C43.854 27.477 43.8293 27.4949 43.7991 27.5074C43.7688 27.52 43.7329 27.5254 43.6915 27.5254ZM45.5034 27.7523H46.2785V27.5218H45.7296V27.2195H46.1423V26.9917H45.7296V26.6787H46.2442V26.4473H45.5034V27.7523ZM47.8936 27.7523H48.1222V26.6787H48.4433V26.4473H47.5742V26.6787H47.8936V27.7523ZM50.4368 27.7523H50.6765L50.2456 26.4473H50.0241L49.5948 27.7523H49.8345L49.9134 27.4913H50.3579L50.4368 27.7523ZM49.9795 27.2706L50.1341 26.7585H50.1357L50.291 27.2706H49.9795Z" fill="#A12B52"/>
<rect x="19.4795" y="57.0457" width="30.6097" height="5.56541" fill="#D01F4F"/>
<rect x="31.9985" y="51.4802" width="6.95676" height="5.56541" fill="#D01F4F"/>
<rect x="49.3318" y="26.6677" width="21.3341" height="40.0014" rx="3" fill="#FF215D"/>
<rect x="49.855" y="27.2473" width="20.0007" height="36.6679" rx="2" fill="#FFD2DF"/>
<path d="M58.4382 45.4836H56.9275C56.8589 45.4836 56.8069 45.5439 56.8193 45.6104C56.8214 45.6249 56.8235 45.6395 56.8256 45.654C56.836 45.7122 56.8526 45.7683 56.8755 45.8244C56.9109 45.9096 56.9671 45.9844 57.0441 46.051C57.119 46.1174 57.2251 46.1486 57.3604 46.1486C57.4956 46.1486 57.5997 46.1154 57.6766 46.051C57.737 45.999 57.7828 45.9408 57.8181 45.8785C57.8369 45.8452 57.8743 45.8244 57.9118 45.8244H58.3342C58.4112 45.8244 58.4632 45.9013 58.4382 45.972C58.4195 46.026 58.3966 46.078 58.3695 46.1237C58.3217 46.2089 58.2697 46.2837 58.2114 46.346C58.1531 46.4084 58.0928 46.4604 58.0262 46.5019C57.9596 46.5435 57.8972 46.5767 57.8348 46.6038C57.6829 46.6619 57.5247 46.6931 57.3562 46.6931C57.1356 46.689 56.94 46.6432 56.7694 46.556C56.6966 46.5165 56.6258 46.4666 56.5551 46.4063C56.4843 46.346 56.4219 46.2692 56.3678 46.1777C56.3137 46.0863 56.27 45.9761 56.2367 45.8473C56.2034 45.7184 56.1868 45.5709 56.1868 45.3984C56.1868 45.228 56.2034 45.0783 56.2367 44.9495C56.27 44.8206 56.3137 44.7105 56.3678 44.617C56.4219 44.5235 56.4843 44.4466 56.5551 44.3842C56.6258 44.3219 56.6966 44.272 56.7694 44.2325C56.938 44.1411 57.1315 44.0933 57.3499 44.085C57.3541 44.085 57.3583 44.085 57.3624 44.085C57.5414 44.0933 57.7078 44.1307 57.8639 44.1972C57.9305 44.2263 57.9971 44.2658 58.0637 44.3136C58.1303 44.3614 58.1927 44.4196 58.2509 44.4902C58.3092 44.5609 58.3591 44.644 58.4028 44.7417C58.4465 44.8393 58.4798 44.9516 58.4986 45.0783C58.5048 45.1282 58.511 45.1781 58.5152 45.23C58.5194 45.282 58.5235 45.3381 58.5235 45.3984C58.5256 45.3942 58.5381 45.4836 58.4382 45.4836ZM57.7182 45.0742C57.7973 45.0742 57.8535 44.9911 57.8181 44.9204C57.8181 44.9204 57.8181 44.9183 57.816 44.9183C57.7911 44.8664 57.7578 44.8186 57.7141 44.7749C57.6704 44.7334 57.6204 44.698 57.5622 44.6731C57.5039 44.6482 57.4332 44.6357 57.3562 44.6357C57.2771 44.6357 57.2085 44.6482 57.1502 44.6731C57.0919 44.698 57.0399 44.7313 56.9983 44.7749C56.9546 44.8186 56.9213 44.8643 56.8943 44.9183V44.9204C56.8589 44.9931 56.9151 45.0763 56.9941 45.0763H57.7182V45.0742Z" fill="#A12B52"/>
<path d="M60.4124 43H59.3548C59.1012 43.0054 58.9771 43.1413 58.9771 43.3967V46.6949H60.2128C60.5473 46.6949 60.8063 46.6677 60.9898 46.6188C61.6967 46.4287 62.0852 45.7549 62.0852 44.8475C62.0852 43.6683 61.578 43 60.4124 43ZM61.319 44.8475C61.319 45.6245 61.06 46.0266 60.3153 46.0266H59.7163V43.6466H60.4124C61.0923 43.6466 61.319 44.1085 61.319 44.8475Z" fill="#FD3E72"/>
<path d="M64.6878 45.1435V46.6466H64.3631C64.1529 46.6321 64.0479 46.5306 64.0479 46.3277V45.0131C64.0336 44.7472 63.8903 44.6167 63.6086 44.6167C63.3269 44.6167 63.1836 44.7472 63.1788 45.0131V46.6466H62.5342V45.1435C62.5342 44.4138 62.8971 44.0513 63.6181 44.0513C64.3392 44.0513 64.6925 44.4138 64.6878 45.1435Z" fill="#FD3E72"/>
<path d="M64.9014 45.8057H65.5508C65.5652 46.086 65.7657 46.1827 66.0761 46.1827C66.3435 46.1827 66.4772 46.1053 66.4772 45.941C66.4772 45.8105 66.2575 45.7042 65.823 45.6269C65.2643 45.5254 64.9778 45.274 64.973 44.8729C64.973 44.3219 65.4028 44.0609 65.9806 44.0513C66.3053 44.0513 66.5632 44.1238 66.7542 44.2688C66.9404 44.4186 67.0407 44.6264 67.055 44.8922H66.6539C66.5059 44.8874 66.4104 44.8342 66.3721 44.7327C66.3292 44.6216 66.2002 44.5587 65.9901 44.5587C65.7418 44.5587 65.6177 44.6264 65.6177 44.7569C65.6177 44.8874 65.78 44.9889 66.1095 45.0517C66.5393 45.1387 66.821 45.2499 66.9595 45.3804C67.0789 45.506 67.1362 45.6607 67.1362 45.8347C67.1362 46.463 66.6491 46.695 65.9806 46.695C65.6272 46.695 65.3598 46.6176 65.1879 46.4678C64.9969 46.3228 64.9014 46.1005 64.9014 45.8057Z" fill="#FD3E72"/>
<path d="M55.8904 43.0417C55.5574 43.0417 55.289 43.3098 55.289 43.6424V45.3818C55.289 45.4545 55.2848 45.5273 55.2765 45.6042C55.2682 45.679 55.2474 45.7476 55.2141 45.8099C55.1808 45.8723 55.1309 45.9242 55.0643 45.9658C54.9977 46.0073 54.902 46.0281 54.7813 46.0281C54.6606 46.0281 54.5649 46.0073 54.4983 45.9658C54.4317 45.9242 54.3818 45.8723 54.3485 45.8099C54.3152 45.7476 54.2944 45.679 54.2861 45.6042C54.2777 45.5294 54.2736 45.4545 54.2736 45.3818V43.5883C53.9406 43.5883 53.6722 43.8564 53.6722 44.1889V45.3797C53.6722 45.4525 53.6681 45.5252 53.6597 45.6021C53.6514 45.6769 53.6306 45.7455 53.5973 45.8078C53.564 45.8702 53.5141 45.9221 53.4475 45.9637C53.3809 46.0053 53.2852 46.0261 53.1645 46.0261C53.0438 46.0261 52.9481 46.0053 52.8815 45.9637C52.8149 45.9221 52.765 45.8702 52.7317 45.8078C52.6984 45.7455 52.6776 45.6769 52.6693 45.6021C52.6609 45.5273 52.6568 45.4525 52.6568 45.3797V44.1349C52.3238 44.1349 52.0554 44.4051 52.0554 44.7355V45.3797C52.0554 45.5501 52.0721 45.6998 52.1054 45.8286C52.1387 45.9575 52.1803 46.0676 52.2302 46.1611C52.2822 46.2547 52.3405 46.3316 52.4071 46.3939C52.4737 46.4562 52.5423 46.5061 52.611 46.5456C52.7712 46.6371 52.9564 46.6869 53.1624 46.6932C53.3726 46.6869 53.5578 46.6371 53.7201 46.5456C53.7887 46.5061 53.8574 46.4562 53.9219 46.3939C53.9386 46.3773 53.9552 46.3606 53.9718 46.3419C53.9885 46.3606 54.0051 46.3773 54.0218 46.3939C54.0884 46.4562 54.157 46.5061 54.2257 46.5456C54.3859 46.6371 54.5711 46.6869 54.7771 46.6932C54.9873 46.6869 55.1725 46.6371 55.3348 46.5456C55.4035 46.5061 55.4721 46.4562 55.5366 46.3939C55.6032 46.3316 55.6615 46.2547 55.7135 46.1611C55.7655 46.0676 55.8071 45.9575 55.8383 45.8286C55.8696 45.6998 55.8841 45.5522 55.8841 45.3797L55.8904 43.0417Z" fill="#A12B52"/>
<path d="M64.1552 47.4467V47.4451C64.1728 47.4376 64.1876 47.4269 64.1996 47.4126C64.2112 47.3983 64.2196 47.3833 64.2246 47.3674C64.2295 47.3516 64.232 47.3345 64.232 47.3163C64.232 47.2707 64.2175 47.2358 64.189 47.2116C64.1605 47.1878 64.119 47.1755 64.0647 47.1755H63.8799V47.7523H64.0918C64.1193 47.7523 64.1436 47.7484 64.1647 47.7404C64.1858 47.7325 64.2035 47.7214 64.2168 47.7072C64.2302 47.6929 64.2404 47.6762 64.2475 47.6568C64.2545 47.6378 64.258 47.6164 64.258 47.593C64.258 47.5553 64.2489 47.524 64.2313 47.4986C64.2133 47.4733 64.188 47.4562 64.1552 47.4467ZM63.9795 47.2766H64.0454C64.0644 47.2766 64.0806 47.2798 64.0932 47.2853C64.1059 47.2909 64.1151 47.2988 64.1207 47.3083C64.1263 47.3183 64.1292 47.3301 64.1292 47.3436C64.1292 47.3591 64.1253 47.3722 64.1179 47.3825C64.1105 47.3928 64.1013 47.4003 64.0901 47.4051C64.0788 47.4098 64.0661 47.4118 64.0521 47.4118H63.9795V47.2766ZM64.0612 47.652H63.9795V47.5038H64.0623C64.0915 47.5038 64.1137 47.5105 64.1292 47.524C64.1447 47.5375 64.1524 47.5557 64.1524 47.5787C64.1524 47.595 64.1485 47.6084 64.1408 47.6195C64.133 47.6306 64.1221 47.6386 64.1087 47.6441C64.0954 47.6497 64.0795 47.652 64.0612 47.652ZM64.862 47.7523H65.2046V47.6505H64.962V47.5169H65.1444V47.4162H64.962V47.2778H65.1895V47.1755H64.862V47.7523ZM65.9185 47.7523H66.0195V47.2778H66.1614V47.1755H65.7773V47.2778H65.9185V47.7523ZM67.0425 47.7523H67.1485L66.958 47.1755H66.8601L66.6704 47.7523H66.7763L66.8112 47.637H67.0076L67.0425 47.7523ZM66.8404 47.5395L66.9087 47.3131H66.9094L66.9781 47.5395H66.8404Z" fill="#A12B52"/>
</svg>
