<svg width="231" height="74" viewBox="0 0 231 74" fill="none" xmlns="http://www.w3.org/2000/svg">
<path d="M107.344 41.1383H81.9591C80.8052 41.1383 79.9311 42.1511 80.1409 43.2686C80.1758 43.513 80.2108 43.7575 80.2458 44.002C80.4206 44.9798 80.7003 45.9227 81.0849 46.8656C81.6794 48.2974 82.6234 49.5546 83.9172 50.6721C85.176 51.7896 86.9592 52.3134 89.232 52.3134C91.5048 52.3134 93.2531 51.7547 94.5468 50.6721C95.5608 49.799 96.3301 48.8212 96.9245 47.7735C97.2392 47.2148 97.8686 46.8656 98.498 46.8656H105.596C106.89 46.8656 107.764 48.1577 107.344 49.345C107.03 50.253 106.645 51.1261 106.19 51.8944C105.386 53.3262 104.512 54.5834 103.533 55.631C102.554 56.6787 101.54 57.5517 100.421 58.2502C99.3022 58.9486 98.2532 59.5074 97.2042 59.9614C94.6517 60.9392 91.9943 61.463 89.1621 61.463C85.4557 61.3932 82.1689 60.6249 79.3017 59.1582C78.0779 58.4946 76.889 57.6565 75.7002 56.6438C74.5114 55.631 73.4624 54.3389 72.5533 52.8023C71.6442 51.2658 70.9099 49.4149 70.3504 47.2497C69.791 45.0845 69.5112 42.6051 69.5112 39.7065C69.5112 36.8429 69.791 34.3285 70.3504 32.1634C70.9099 29.9982 71.6442 28.1473 72.5533 26.5758C73.4624 25.0043 74.5114 23.7122 75.7002 22.6645C76.889 21.6169 78.0779 20.7787 79.3017 20.1152C82.1339 18.5786 85.3858 17.7754 89.0572 17.6357C89.1271 17.6357 89.197 17.6357 89.267 17.6357C92.274 17.7754 95.0713 18.404 97.6938 19.5215C98.8127 20.0104 99.9316 20.674 101.05 21.4772C102.169 22.2804 103.218 23.2582 104.197 24.4456C105.176 25.6329 106.016 27.0298 106.75 28.6711C107.484 30.3125 108.044 32.1983 108.358 34.3285C108.463 35.1667 108.568 36.0048 108.638 36.8778C108.708 37.7509 108.778 38.6938 108.778 39.7065C108.813 39.6367 109.023 41.1383 107.344 41.1383ZM95.2461 34.2587C96.5748 34.2587 97.5189 32.8618 96.9245 31.6744C96.9245 31.6744 96.9245 31.6395 96.8895 31.6395C96.47 30.7665 95.9105 29.9633 95.1762 29.2299C94.4419 28.5314 93.6027 27.9378 92.6237 27.5187C91.6447 27.0996 90.4558 26.8901 89.1621 26.8901C87.8334 26.8901 86.6795 27.0996 85.7005 27.5187C84.7214 27.9378 83.8473 28.4965 83.1479 29.2299C82.4137 29.9633 81.8542 30.7315 81.3996 31.6395V31.6744C80.8052 32.8967 81.7493 34.2936 83.078 34.2936H95.2461V34.2587Z" fill="#A12B52"/>
<path d="M64.4422 0C58.8476 0 54.337 4.50495 54.337 10.0925V39.3223C54.337 40.5446 54.2671 41.7669 54.1273 43.059C53.9874 44.3162 53.6377 45.4686 53.0783 46.5163C52.5188 47.5639 51.6796 48.437 50.5607 49.1354C49.4418 49.8339 47.8334 50.1831 45.8054 50.1831C43.7773 50.1831 42.1689 49.8339 41.05 49.1354C39.9311 48.437 39.0919 47.5639 38.5324 46.5163C37.973 45.4686 37.6233 44.3162 37.4835 43.059C37.3436 41.8018 37.2737 40.5446 37.2737 39.3223V9.18452C31.6791 9.18452 27.1685 13.6895 27.1685 19.277V39.2874C27.1685 40.5097 27.0986 41.7319 26.9587 43.0241C26.8189 44.2813 26.4692 45.4337 25.9097 46.4814C25.3503 47.529 24.5111 48.4021 23.3922 49.1005C22.2733 49.799 20.6649 50.1482 18.6368 50.1482C16.6088 50.1482 15.0004 49.799 13.8815 49.1005C12.7626 48.4021 11.9234 47.529 11.3639 46.4814C10.8045 45.4337 10.4548 44.2813 10.3149 43.0241C10.1751 41.7669 10.1052 40.5097 10.1052 39.2874V18.369C4.5106 18.369 0 22.9089 0 28.4615V39.2874C0 42.151 0.279727 44.6654 0.839182 46.8306C1.39864 48.9958 2.09796 50.8466 2.93714 52.4181C3.81129 53.9896 4.79033 55.2817 5.90924 56.3294C7.02815 57.3771 8.18203 58.2152 9.3359 58.8787C12.0283 60.4153 15.1402 61.2534 18.6019 61.3582C22.1334 61.2534 25.2454 60.4153 27.9727 58.8787C29.1266 58.2152 30.2805 57.3771 31.3644 56.3294C31.6442 56.05 31.9239 55.7706 32.2036 55.4563C32.4833 55.7706 32.7631 56.05 33.0428 56.3294C34.1617 57.3771 35.3156 58.2152 36.4695 58.8787C39.1618 60.4153 42.2738 61.2534 45.7354 61.3582C49.267 61.2534 52.379 60.4153 55.1063 58.8787C56.2602 58.2152 57.414 57.3771 58.498 56.3294C59.6169 55.2817 60.5959 53.9896 61.4701 52.4181C62.3442 50.8466 63.0436 48.9958 63.5681 46.8306C64.0925 44.6654 64.3373 42.1859 64.3373 39.2874L64.4422 0Z" fill="#A12B52"/>
<path d="M139.407 58.809C139.127 59.6122 138.393 60.1709 137.519 60.1709H132.204H126.889C126.05 60.1709 125.281 59.6122 125.001 58.809L112.658 20.9883C112.239 19.6962 113.183 18.4041 114.546 18.4041H120.526C121.365 18.4041 122.134 18.9628 122.414 19.766L130.316 43.8972C130.91 45.7132 133.463 45.7132 134.057 43.8972L138.603 29.9982L146.225 6.67023C147.904 1.60652 153.359 -1.18725 158.429 0.489012L139.407 58.809Z" fill="#EF4273"/>
<path d="M188.152 26.297C187.243 24.7255 186.194 23.4334 185.005 22.3857C183.816 21.3381 182.627 20.4999 181.404 19.8364C178.536 18.2998 175.285 17.4617 171.683 17.3569C168.221 17.3569 165.284 17.8808 162.872 18.8935C160.459 19.9062 158.466 21.373 156.892 23.2588C155.319 25.1446 154.2 27.4494 153.466 30.1734C152.766 32.8973 152.382 35.9704 152.382 39.4277V71.5561C152.382 72.918 153.466 74.0006 154.829 74.0006H159.725C161.088 74.0006 162.172 72.918 162.172 71.5561V55.3871C162.697 56.1205 163.291 56.7491 163.921 57.3079C165.354 58.5301 166.753 59.4032 168.117 59.927C169.655 60.5207 171.228 60.8699 172.872 60.9747C173.012 60.9747 173.117 60.9747 173.257 60.9747C176.578 60.9048 179.55 60.1366 182.138 58.6698C183.292 58.0063 184.411 57.1682 185.495 56.1554C186.579 55.1427 187.523 53.8506 188.397 52.314C189.236 50.7774 189.935 48.9265 190.46 46.7963C190.984 44.666 191.229 42.1516 191.229 39.288C191.229 36.4244 190.949 33.9449 190.355 31.7798C189.795 29.6844 189.061 27.8336 188.152 26.297ZM180.774 43.3041C180.564 44.7359 180.11 46.0629 179.445 47.2852C178.781 48.5075 177.837 49.5551 176.613 50.3584C175.389 51.1965 173.746 51.5806 171.718 51.5806C169.69 51.5806 168.047 51.1616 166.823 50.3584C165.599 49.5202 164.62 48.5075 163.921 47.2852C163.221 46.0629 162.767 44.7359 162.557 43.3041C162.347 41.8723 162.242 40.5452 162.242 39.3579C162.242 37.8911 162.347 36.4244 162.522 34.9577C162.732 33.491 163.116 32.1988 163.746 31.0115C164.375 29.8241 165.319 28.8812 166.578 28.1828C167.837 27.4844 169.55 27.1002 171.683 27.1002C173.711 27.1002 175.354 27.5193 176.578 28.3225C177.802 29.1606 178.781 30.1734 179.41 31.3956C180.075 32.6179 180.494 33.9799 180.739 35.3768C180.949 36.8086 181.054 38.1356 181.054 39.323C181.089 40.5452 180.984 41.8723 180.774 43.3041Z" fill="#EF4273"/>
<path d="M229.62 30.0683C228.781 27.5539 227.697 25.4935 226.369 23.8522C225.04 22.2109 223.606 20.9537 222.068 20.0806C220.529 19.2076 219.061 18.544 217.697 18.1599C216.333 17.7408 215.11 17.5313 214.096 17.4614C213.082 17.3916 212.487 17.3916 212.312 17.3916C212.102 17.3916 211.473 17.4265 210.494 17.4614C209.515 17.5313 208.326 17.7408 206.962 18.1599C205.599 18.579 204.13 19.2076 202.592 20.0806C201.053 20.9537 199.62 22.2109 198.291 23.8522C196.962 25.4935 195.878 27.5889 195.039 30.0683C194.2 32.5827 193.745 35.6559 193.745 39.3227V57.9711C193.745 59.1934 194.724 60.1712 195.948 60.1712H201.578C202.802 60.1712 203.781 59.1934 203.781 57.9711V39.3576C203.781 38.1353 203.885 36.9131 204.095 35.6559C204.305 34.3987 204.725 33.2462 205.319 32.1986C205.914 31.1509 206.788 30.2779 207.872 29.6143C208.956 28.9159 210.424 28.6016 212.242 28.6016C214.061 28.6016 215.529 28.9508 216.613 29.6143C217.697 30.3128 218.571 31.1509 219.166 32.1986C219.76 33.2462 220.18 34.3987 220.389 35.6559C220.599 36.9131 220.704 38.1703 220.704 39.3576V57.9711C220.704 59.1934 221.683 60.1712 222.907 60.1712H228.676C229.9 60.1712 230.879 59.1934 230.879 57.9711V39.3576C230.879 35.6559 230.46 32.5827 229.62 30.0683Z" fill="#EF4273"/>
</svg>
