<svg width="512" height="441" viewBox="0 0 512 441" fill="none" xmlns="http://www.w3.org/2000/svg">
<circle cx="255.5" cy="198.5" r="198.5" fill="#F5F5F5"/>
<path d="M152.052 168.288C150.129 168.669 148.298 169.429 146.666 170.526C145.033 171.622 143.63 173.033 142.537 174.678C141.444 176.322 140.682 178.169 140.294 180.111C139.907 182.054 139.902 184.054 140.279 185.999C140.323 186.265 140.379 186.528 140.45 186.788C143.371 199.551 154.86 200.698 158.889 206.693C158.963 206.806 159.069 206.894 159.193 206.947C159.317 206.999 159.454 207.013 159.586 206.987C159.718 206.961 159.839 206.896 159.935 206.8C160.03 206.705 160.096 206.582 160.123 206.449C161.541 199.365 171.796 193.915 169.725 180.98C169.725 180.722 169.64 180.449 169.597 180.191C169.221 178.243 168.467 176.39 167.381 174.737C166.295 173.084 164.897 171.664 163.267 170.559C161.637 169.453 159.808 168.683 157.883 168.294C155.959 167.904 153.977 167.902 152.052 168.288ZM155.981 188.552C155.272 188.695 154.542 188.696 153.833 188.552C153.124 188.409 152.449 188.125 151.849 187.717C151.249 187.309 150.735 186.785 150.337 186.175C149.938 185.565 149.663 184.881 149.527 184.163C149.424 183.693 149.391 183.21 149.428 182.729C149.495 181.494 149.967 180.316 150.77 179.383C151.573 178.449 152.661 177.813 153.862 177.574C155.063 177.335 156.308 177.508 157.401 178.065C158.493 178.622 159.371 179.532 159.896 180.65C160.096 181.063 160.24 181.502 160.321 181.955C160.47 182.677 160.475 183.421 160.337 184.145C160.198 184.868 159.919 185.557 159.515 186.171C159.112 186.785 158.591 187.311 157.984 187.72C157.378 188.129 156.697 188.411 155.981 188.552Z" fill="#FD3E72"/>
<path opacity="0.45" d="M511.687 364.876C511.687 373.896 397.137 440.006 255.844 440.006C114.55 440.006 0 373.896 0 364.876C0 355.857 114.55 348.539 255.844 348.539C397.137 348.539 511.687 355.857 511.687 364.876Z" fill="#FFD9E4"/>
<path opacity="0.72" d="M406.308 363.41C406.308 368.725 338.939 407.606 255.842 407.606C172.746 407.606 105.377 368.725 105.377 363.41C105.377 358.095 172.746 353.801 255.842 353.801C338.939 353.801 406.308 358.108 406.308 363.41Z" fill="#FFC7D6"/>
<path d="M134.687 290.637H100.996C98.3829 290.637 95.8769 289.598 94.0293 287.749C92.1816 285.901 91.1436 283.393 91.1436 280.779V257.778C91.1385 256.48 91.3895 255.194 91.8823 253.993C92.3751 252.793 93.1 251.701 94.0154 250.782C94.9307 249.862 96.0186 249.133 97.2165 248.635C98.4144 248.137 99.6987 247.881 100.996 247.881H134.687C137.298 247.884 139.8 248.924 141.645 250.773C143.49 252.621 144.526 255.126 144.526 257.738V280.74C144.531 282.036 144.281 283.321 143.789 284.521C143.297 285.721 142.573 286.811 141.659 287.731C140.745 288.65 139.659 289.38 138.462 289.879C137.266 290.377 135.983 290.635 134.687 290.637ZM100.996 253.602C99.8889 253.602 98.8273 254.042 98.0445 254.825C97.2618 255.608 96.8221 256.67 96.8221 257.778V280.779C96.8221 281.886 97.2618 282.949 98.0445 283.732C98.8273 284.515 99.8889 284.955 100.996 284.955H134.687C135.792 284.951 136.85 284.51 137.63 283.727C138.41 282.944 138.848 281.884 138.848 280.779V257.778C138.848 256.672 138.41 255.612 137.63 254.829C136.85 254.047 135.792 253.605 134.687 253.602H100.996Z" fill="#5B5863"/>
<path d="M180.597 269.272H55.0697C47.2728 269.272 40.9521 275.596 40.9521 283.397V356.367C40.9521 364.169 47.2728 370.493 55.0697 370.493H180.597C188.394 370.493 194.715 364.169 194.715 356.367V283.397C194.715 275.596 188.394 269.272 180.597 269.272Z" fill="#FD3E72"/>
<path d="M83.9866 269.272H71.5176V370.493H83.9866V269.272Z" fill="#AB6D29"/>
<path d="M79.2754 311.072H76.2399C72.215 311.072 68.9521 314.336 68.9521 318.364V321.401C68.9521 325.428 72.215 328.692 76.2399 328.692H79.2754C83.3003 328.692 86.5631 325.428 86.5631 321.401V318.364C86.5631 314.336 83.3003 311.072 79.2754 311.072Z" stroke="white" stroke-width="1.45" stroke-miterlimit="10"/>
<path d="M164.151 269.272H151.682V370.493H164.151V269.272Z" fill="#AB6D29"/>
<path d="M159.428 311.072H156.392C152.367 311.072 149.104 314.336 149.104 318.364V321.401C149.104 325.428 152.367 328.692 156.392 328.692H159.428C163.453 328.692 166.715 325.428 166.715 321.401V318.364C166.715 314.336 163.453 311.072 159.428 311.072Z" stroke="white" stroke-width="1.45" stroke-miterlimit="10"/>
<path d="M393.565 205.466H388.41V237.997H393.565V205.466Z" fill="#5B5863"/>
<path d="M427.244 205.466H422.089V237.997H427.244V205.466Z" fill="#5B5863"/>
<path d="M431.025 207.966H384.786C384.123 207.966 383.488 207.703 383.019 207.234C382.55 206.765 382.287 206.129 382.287 205.466C382.285 205.136 382.349 204.81 382.474 204.505C382.598 204.2 382.782 203.923 383.014 203.689C383.247 203.456 383.523 203.27 383.827 203.144C384.131 203.017 384.457 202.952 384.786 202.952H431.025C431.691 202.952 432.33 203.217 432.801 203.688C433.272 204.16 433.537 204.799 433.537 205.466C433.534 206.13 433.267 206.766 432.797 207.235C432.326 207.703 431.689 207.966 431.025 207.966Z" fill="#5B5863"/>
<path d="M376.819 378.439C376.438 378.441 376.06 378.367 375.708 378.222C375.356 378.078 375.036 377.865 374.766 377.596C374.496 377.327 374.282 377.008 374.135 376.656C373.989 376.304 373.914 375.927 373.914 375.546V365.871C373.912 365.489 373.986 365.111 374.132 364.757C374.277 364.404 374.491 364.083 374.761 363.812C375.031 363.542 375.352 363.328 375.705 363.183C376.058 363.037 376.437 362.963 376.819 362.965C377.2 362.965 377.577 363.04 377.928 363.187C378.28 363.333 378.599 363.547 378.868 363.817C379.137 364.087 379.349 364.408 379.494 364.76C379.638 365.113 379.712 365.49 379.71 365.871V375.546C379.71 376.313 379.406 377.049 378.863 377.591C378.321 378.134 377.586 378.439 376.819 378.439Z" fill="url(#paint0_linear)"/>
<path d="M439.019 378.439C438.638 378.441 438.261 378.367 437.908 378.222C437.556 378.078 437.236 377.865 436.966 377.596C436.696 377.327 436.482 377.008 436.336 376.656C436.189 376.304 436.114 375.927 436.114 375.546V365.871C436.113 365.489 436.187 365.111 436.332 364.757C436.477 364.404 436.691 364.083 436.961 363.812C437.231 363.542 437.552 363.328 437.905 363.183C438.259 363.037 438.637 362.963 439.019 362.965C439.4 362.965 439.777 363.04 440.129 363.187C440.48 363.333 440.8 363.547 441.068 363.817C441.337 364.087 441.55 364.408 441.694 364.76C441.839 365.113 441.912 365.49 441.911 365.871V375.546C441.911 376.313 441.606 377.049 441.064 377.591C440.521 378.134 439.786 378.439 439.019 378.439Z" fill="#5B5863"/>
<path d="M436.114 364.039H379.696V370.702H436.114V364.039Z" fill="#5B5863"/>
<path d="M447.211 233.52H368.602C364.939 233.52 361.969 236.492 361.969 240.157V360.74C361.969 364.405 364.939 367.377 368.602 367.377H447.211C450.874 367.377 453.844 364.405 453.844 360.74V240.157C453.844 236.492 450.874 233.52 447.211 233.52Z" fill="#FD3E72"/>
<path d="M437.659 249.792H378.166C375.391 249.792 373.142 252.043 373.142 254.819V346.078C373.142 348.854 375.391 351.105 378.166 351.105H437.659C440.433 351.105 442.683 348.854 442.683 346.078V254.819C442.683 252.043 440.433 249.792 437.659 249.792Z" fill="#C92F59"/>
<path d="M432.045 272.008H383.778C382.75 271.965 381.746 272.328 380.983 273.018C380.219 273.709 379.757 274.672 379.696 275.7V342.726C379.757 343.754 380.219 344.717 380.983 345.408C381.746 346.098 382.75 346.461 383.778 346.418H432.045C433.071 346.458 434.072 346.093 434.833 345.403C435.593 344.713 436.053 343.752 436.114 342.726V275.7C436.053 274.674 435.593 273.713 434.833 273.023C434.072 272.333 433.071 271.969 432.045 272.008Z" fill="#FC5985"/>
<g style="mix-blend-mode:overlay" opacity="0.45">
<path d="M386.304 295.847V290.532C386.304 289.355 386.771 288.226 387.603 287.394C388.435 286.562 389.563 286.094 390.739 286.094H425.071C426.248 286.094 427.376 286.562 428.208 287.394C429.04 288.226 429.507 289.355 429.507 290.532V295.847" stroke="black" stroke-width="0.96" stroke-linecap="round" stroke-linejoin="round"/>
</g>
<path d="M214.97 224.998L202.514 250.421L208.532 273.644L228.564 277.022L246.567 227.145L235.812 216.07" fill="#FFBE9D"/>
<path d="M345.639 161.008V212.627C345.639 212.627 344.487 227.027 343.179 244.844C343.009 247.096 342.839 249.4 342.668 251.73C342.498 254.06 342.354 256.063 342.197 258.275C342.04 260.488 341.87 262.87 341.713 265.161C341.556 267.452 341.412 269.547 341.255 271.707C341.098 273.867 340.941 276.354 340.797 278.593C340.654 280.831 340.51 283.018 340.366 285.138C340.222 287.547 340.078 289.851 339.96 292.024C339.855 293.674 339.777 295.245 339.698 296.724C322.689 304.081 288.92 314.292 271.282 314.908C247.143 315.759 238.01 313.69 235.694 308.689L235.603 308.467C234.098 304.867 235.956 297.169 238.219 289.275C238.256 289.181 238.286 289.085 238.311 288.987C238.952 286.788 239.619 284.575 240.247 282.442C240.579 281.342 240.893 280.268 241.189 279.221C241.486 278.141 241.717 277.043 241.883 275.935C242.184 273.919 242.406 271.576 242.524 269.062C242.642 266.968 242.694 264.742 242.707 262.517C242.72 260.291 242.707 257.87 242.707 255.618C242.707 254.518 242.707 253.445 242.616 252.397C242.524 251.35 242.537 250.12 242.498 249.059C242.367 246.336 242.236 243.941 242.118 242.16C241.988 240.053 241.883 238.796 241.883 238.796C240.958 234.623 238.55 230.929 235.105 228.401C226.889 222.497 215.021 225.037 215.021 225.037C215.021 225.037 219.758 214.564 225.999 197.087C232.24 179.611 236.95 167.41 254.784 170.211C262.228 171.376 269.307 172.83 275.94 173.602C285.204 174.767 293.604 174.911 300.983 171.769C303.809 170.591 306.557 169.373 309.357 168.221C319.065 164.098 329.428 160.602 345.639 161.008Z" fill="#FD3E72"/>
<path d="M244.788 253.209L242.564 252.358C242.302 244.765 241.831 238.756 241.831 238.756C240.907 234.584 238.498 230.89 235.054 228.362C238.626 221.568 244.998 209.445 248.975 201.708C249.629 209.825 244.461 229.881 244.788 253.209Z" fill="#F13B6D"/>
<path d="M286.211 187.662C272.068 185.044 273.952 177.359 275.888 173.536C285.152 174.702 293.551 174.846 300.931 171.704C303.757 170.526 306.505 169.308 309.305 168.156C310.09 177.385 303.037 190.804 286.211 187.662Z" fill="white"/>
<path d="M345.638 187.662V212.613C345.638 212.613 341.085 270.083 339.698 296.671C339.335 301.003 339.235 305.353 339.397 309.697C340.47 314.214 294.271 317.866 269.778 318.73C245.638 319.581 237.971 313.742 235.694 308.637L235.602 308.414C234.085 304.762 235.995 296.92 238.311 288.935C249.38 289.301 284.34 288.202 289.783 260.016C296.246 226.464 325.541 222.288 332.476 175.971L345.638 187.662Z" fill="#FD3E72"/>
<path opacity="0.7" d="M340.366 285.099C340.222 287.508 340.078 289.812 339.961 291.985L238.22 289.236C238.256 289.142 238.287 289.046 238.311 288.948C238.952 286.749 239.62 284.536 240.248 282.402L340.366 285.099Z" fill="white"/>
<path opacity="0.7" d="M342.198 258.262C342.028 260.553 341.871 262.857 341.714 265.148L242.708 262.53C242.708 260.213 242.708 257.883 242.708 255.631L342.198 258.262Z" fill="white"/>
<path opacity="0.7" d="M341.255 271.681C341.098 274.024 340.941 276.328 340.797 278.567L241.883 275.948C242.184 273.932 242.406 271.589 242.524 269.075L341.255 271.681Z" fill="white"/>
<path d="M311.921 167.109C307.172 204.994 326.771 284.13 341.255 279.823C344.553 277.035 343.27 270.987 336.82 260.03C330.37 249.072 317.286 187.557 319 164.569C317.704 164.165 316.312 164.194 315.035 164.652C313.758 165.111 312.665 165.973 311.921 167.109Z" fill="#AB6D29"/>
<path opacity="0.7" d="M343.179 244.844C343.009 247.095 342.839 249.4 342.669 251.73L242.446 249.02C242.315 246.297 242.184 243.901 242.066 242.121L343.179 244.844Z" fill="white"/>
<path d="M272.786 173.144C264.936 199.077 247.351 281.434 239.54 284.772C231.729 288.11 232.069 280.609 239.54 264.886C247.011 249.164 262.201 172.803 266.061 170.643C269.921 168.483 273.454 171.101 272.786 173.144Z" fill="#AB6D29"/>
<path d="M314.472 235.536C314.472 235.536 330.591 169.334 340.26 162.527C349.929 155.719 380.663 169.727 345.638 242.383L314.472 235.536Z" fill="#FF638D"/>
<path d="M141.463 302.942C141.455 308.218 143.142 313.356 146.275 317.599C149.409 321.842 153.823 324.965 158.865 326.506L286.538 365.531L296.691 368.634L307.669 334.439L298.445 330.656L175.325 280.164C171.589 278.634 167.535 278.048 163.519 278.457C159.504 278.865 155.65 280.257 152.299 282.508C148.948 284.758 146.202 287.8 144.303 291.364C142.404 294.927 141.411 298.904 141.411 302.942H141.463Z" fill="#8F4620"/>
<path d="M235.477 284.998C235.477 284.998 228.999 285.214 228.899 287.962C228.799 290.71 224.368 302.706 224.456 303.716C224.545 304.726 227.282 304.844 229.338 300.888C231.394 296.932 235.477 284.998 235.477 284.998Z" fill="#EFAB8A"/>
<path d="M239.655 282.48C239.655 282.48 234.041 282.571 233.075 284.243C232.11 285.916 227.045 303.828 227.398 305.147C227.752 306.466 231.189 304.831 231.189 304.831L237.835 287.544L240.331 283.698L239.655 282.48Z" fill="#F6B291"/>
<path fill-rule="evenodd" clip-rule="evenodd" d="M306.18 271.401L314.474 235.536C330.803 234.449 345.64 242.409 345.64 242.409L327.1 286.67C326.89 287.168 326.66 287.655 326.409 288.132C326.342 288.296 326.269 288.458 326.192 288.619C325.774 289.49 325.227 290.283 324.574 290.975C323.98 291.737 323.328 292.454 322.622 293.12C321.638 294.048 317.055 294.027 312.81 293.785C296.054 294.817 281.124 294.135 281.124 294.135C277.513 294.271 275.769 294.797 273.597 295.451C272.764 295.701 271.868 295.971 270.78 296.245C264.171 297.934 255.608 295.584 255.608 295.584L246.591 301.214C246.591 301.214 241.582 309.171 240.178 309.251C238.774 309.332 242.265 302.182 243.271 300.811C244.276 299.44 251.449 291.521 251.449 291.521L242.022 294.434C242.022 294.434 235.979 304.862 234.086 307.937C232.193 311.011 230.509 309.042 230.509 309.042C230.509 309.042 238.108 286.391 239.413 285.988C240.717 285.585 261.116 283.57 263.688 283.836C266.259 284.102 276.008 281.089 286.976 277.347C296.596 274.064 301.173 272.685 306.18 271.401Z" fill="#FFBE9D"/>
<path d="M249 296H168V302H249V296Z" fill="#5B5863" stroke="#263238" stroke-width="1.06" stroke-linejoin="round"/>
<path d="M315.424 307.88L249.069 296L249.069 301.971L314.355 313.851L315.424 307.88Z" fill="#3A4A52" stroke="#263238" stroke-width="1.06" stroke-linejoin="round"/>
<path d="M168 302H248L314.5 314.5H234.5L168 302Z" fill="#263238"/>
<path d="M249.978 295.934L222.648 219.237H137.44L171.585 295.934H249.978Z" fill="#263238" stroke="#263238" stroke-width="1.06" stroke-linejoin="round"/>
<path d="M246.537 295.934L219.207 219.237H134L168.145 295.934H246.537Z" fill="#5B5863"/>
<path d="M189.734 247.049H198.174L201.536 256.13H193.096L189.734 247.049Z" fill="white"/>
<path d="M191.922 256.13H183.482L180 247.049H188.441L191.922 256.13Z" fill="white"/>
<path d="M193.778 257.946H202.218L205.532 267.028H197.092L193.778 257.946Z" fill="white"/>
<path d="M195.668 267.028L187.227 267.028L184.062 257.946H192.503L195.668 267.028Z" fill="white"/>
<path d="M260.658 115.909L247.757 107.269C246.824 106.65 246.062 105.806 245.54 104.814C245.019 103.823 244.755 102.716 244.773 101.596C244.792 100.476 245.091 99.3786 245.645 98.4048C246.198 97.431 246.988 96.6122 247.94 96.0238L253.174 92.7902L250.492 89.1902C249.771 88.2248 249.339 87.0748 249.245 85.8736C249.15 84.6724 249.399 83.469 249.96 82.4031C250.521 81.3371 251.373 80.4522 252.417 79.8508C253.46 79.2495 254.653 78.9563 255.856 79.0053L300.08 81.0344C302.227 81.1325 304.33 81.6797 306.254 82.6408C308.177 83.6018 309.877 84.9555 311.246 86.6144C312.614 88.2733 313.62 90.2007 314.198 92.2723C314.776 94.3439 314.914 96.5137 314.603 98.642L318.424 99.9511C319.457 100.308 320.407 100.87 321.216 101.604C322.026 102.338 322.679 103.229 323.135 104.222C323.591 105.216 323.841 106.291 323.87 107.384C323.899 108.477 323.707 109.565 323.304 110.581L310.429 143.086C309.711 144.88 308.357 146.346 306.626 147.203C304.895 148.06 302.909 148.249 301.048 147.734L293.198 145.508L260.658 115.909Z" fill="#5B5863"/>
<path d="M305.143 172.201C305.143 172.201 299.426 182.674 289.783 182.674C280.14 182.674 279.316 178.969 279.316 178.969L278.374 170.853L277.301 161.794L303.089 142.445L303.992 155.379L305.143 172.201Z" fill="#FFBE9D"/>
<path d="M303.953 155.353C300.316 165.106 293.198 174.793 278.335 170.826L277.262 161.767L303.05 142.419L303.953 155.353Z" fill="#F1B292"/>
<path d="M257.23 99.2441C268.286 112.466 296.548 119.143 308.585 113.016C308.585 113.016 308.153 129.458 309.121 130.323C310.09 131.187 313.308 121.722 313.308 121.722C313.308 121.722 323.631 117.519 323.945 127.626C324.259 137.732 310.09 135.808 310.09 135.808C310.09 135.808 296.26 164.163 278.688 164.163C261.116 164.163 255.857 151.478 255.634 139.224C255.412 126.971 256.04 121.931 257.23 99.2441Z" fill="#FFBE9D"/>
<path d="M313.858 132.051C313.858 132.051 312.641 126.814 316.92 125.282C321.198 123.751 320.74 128.66 319.249 129.668" stroke="#F98875" stroke-width="0.96" stroke-linecap="round" stroke-linejoin="round"/>
<path d="M286.578 365.531L296.731 368.634L307.709 334.44L298.485 330.656L286.578 365.531Z" fill="#FFBE9D"/>
<path d="M307.708 334.44L325.764 327.161C327.402 326.504 329.188 326.308 330.929 326.594C332.671 326.88 334.3 327.638 335.642 328.784L390.268 375.533C391.359 376.479 392.107 377.761 392.394 379.177C392.681 380.593 392.492 382.065 391.855 383.362C391.219 384.66 390.171 385.71 388.876 386.349C387.58 386.988 386.11 387.181 384.694 386.896L296.73 368.634L307.708 334.44Z" fill="#3D1A08"/>
<path d="M384.458 302.942C384.463 308.219 382.774 313.358 379.638 317.601C376.503 321.843 372.087 324.965 367.043 326.506L239.331 365.57L229.178 368.673L218.2 334.479L227.359 330.696L350.466 280.203C353.632 278.9 357.036 278.272 360.459 278.359C363.882 278.447 367.249 279.248 370.345 280.712C373.441 282.176 376.197 284.269 378.438 286.86C380.679 289.45 382.355 292.48 383.359 295.755C384.075 298.084 384.445 300.506 384.458 302.942Z" fill="#9B4C23"/>
<path d="M239.331 365.531L229.178 368.634L218.2 334.44L227.424 330.656L239.331 365.531Z" fill="#FFBE9D"/>
<path d="M218.201 334.44L200.184 327.161C198.546 326.504 196.76 326.308 195.018 326.594C193.277 326.88 191.647 327.638 190.306 328.784L135.693 375.533C134.602 376.479 133.854 377.761 133.567 379.177C133.28 380.593 133.469 382.065 134.106 383.362C134.742 384.66 135.79 385.71 137.085 386.349C138.38 386.988 139.851 387.181 141.267 386.896L229.217 368.634L218.201 334.44Z" fill="#54260E"/>
<defs>
<linearGradient id="paint0_linear" x1="370.656" y1="312.329" x2="380.716" y2="407.853" gradientUnits="userSpaceOnUse">
<stop stop-color="#A2D6E2"/>
<stop offset="1" stop-color="#7B99CB"/>
</linearGradient>
</defs>
</svg>
