<svg width="524" height="412" viewBox="0 0 524 412" fill="none" xmlns="http://www.w3.org/2000/svg">
<circle cx="262.5" cy="213.5" r="193" stroke="#CFCFCF" stroke-width="5" stroke-dasharray="20 10"/>
<path d="M145 158C188.63 158 224 122.63 224 79C224 35.3695 188.63 0 145 0C101.37 0 66 35.3695 66 79C66 122.63 101.37 158 145 158Z" fill="#FAFAFA"/>
<path d="M145 142.01C179.794 142.01 208 113.804 208 79.0102C208 44.2163 179.794 16.0103 145 16.0103C110.206 16.0103 82 44.2163 82 79.0102C82 113.804 110.206 142.01 145 142.01Z" fill="#1977F3"/>
<path d="M169.525 97.2238L172.315 79.0087H154.844V67.1901C154.844 62.2111 157.281 57.3472 165.112 57.3472H173.059V41.843C173.059 41.843 165.848 40.6116 158.955 40.6116C144.567 40.6116 135.158 49.3293 135.158 65.1258V79.0087H119.158V97.2238H135.158V141.247C138.366 141.752 141.653 142.009 145.001 142.009C148.35 142.009 151.637 141.743 154.844 141.247V97.2238H169.525Z" fill="white"/>
<path d="M339.719 233.321C339.719 233.321 337.942 212.518 379.889 194.7C421.836 176.883 488.779 175.871 516.168 256.987C543.557 338.103 476.96 409.348 476.96 409.348H212.101C212.101 409.348 181.48 409.669 171.709 386.645C161.938 363.62 168.526 341.312 206.253 320.78C243.981 300.248 313.095 260.121 339.719 233.321Z" fill="#8F4620"/>
<path d="M339.549 233.321C339.711 229.175 340.953 225.142 343.152 221.624C345.283 218.055 347.889 214.792 350.9 211.925C356.962 206.247 363.82 201.484 371.256 197.785C373.082 196.823 374.982 196.008 376.858 195.12C378.733 194.231 380.633 193.368 382.533 192.652C386.373 191.081 390.294 189.714 394.278 188.555C402.249 186.189 410.443 184.65 418.731 183.965C427.049 183.27 435.422 183.626 443.652 185.027C451.91 186.449 459.92 189.05 467.438 192.751C474.945 196.497 481.848 201.347 487.918 207.138C493.991 212.9 499.299 219.419 503.71 226.535C508.088 233.584 511.813 241.018 514.839 248.745C517.885 256.541 520.231 264.593 521.846 272.806C523.365 280.942 524.084 289.207 523.993 297.484C523.91 305.767 523.085 314.026 521.525 322.161C518.225 338.383 512.677 354.065 505.043 368.753C501.253 376.089 497.043 383.2 492.434 390.05C487.854 396.954 482.826 403.549 477.382 409.793C477.33 409.853 477.266 409.902 477.194 409.936C477.121 409.97 477.043 409.988 476.963 409.99C453.752 409.99 430.541 410.097 407.331 410.311L337.723 410.804L268.116 411.002H233.325H216.052H211.537C209.982 411.002 208.527 410.854 207.022 410.706C204.045 410.378 201.094 409.85 198.188 409.126C192.301 407.693 186.729 405.183 181.755 401.723C176.721 398.249 172.715 393.484 170.158 387.928C167.668 382.414 166.197 376.494 165.815 370.456C165.486 364.341 166.637 358.238 169.171 352.663C174.278 341.509 183.531 333.266 193.204 326.727C198.139 323.469 203.246 320.557 208.354 317.843L223.603 309.526C233.736 303.9 243.803 298.142 253.805 292.252C263.675 286.354 273.742 280.382 283.414 274.163C293.087 267.944 302.858 261.553 312.358 254.914C321.93 248.382 331.018 241.165 339.549 233.321ZM339.845 233.543C331.54 241.667 322.658 249.18 313.271 256.025C303.968 262.984 294.345 269.499 284.623 275.767C274.902 282.035 265.056 288.279 255.014 294.325C244.971 300.371 235.077 306.244 224.985 311.994L209.81 320.557C204.727 323.371 199.817 326.258 195.005 329.491C190.32 332.706 185.957 336.367 181.977 340.423C178.1 344.467 174.938 349.14 172.625 354.243C170.364 359.292 169.34 364.808 169.639 370.333C170.029 375.864 171.408 381.28 173.711 386.324C175.948 391.348 179.514 395.665 184.025 398.811C188.608 401.976 193.736 404.268 199.15 405.573C201.878 406.249 204.648 406.744 207.441 407.053C208.823 407.201 210.254 407.325 211.586 407.349H215.929H233.201H267.993L337.6 407.695L407.207 408.188C430.435 408.386 453.645 408.501 476.839 408.534L476.395 408.707C481.858 402.596 486.849 396.079 491.324 389.211C495.853 382.379 499.972 375.284 503.661 367.964C511.139 353.372 516.419 337.755 519.329 321.619C520.721 313.575 521.39 305.424 521.328 297.261C521.299 289.122 520.472 281.006 518.86 273.028C517.156 265.073 514.795 257.273 511.804 249.707C508.811 242.15 505.136 234.881 500.823 227.991C496.531 221.127 491.427 214.805 485.624 209.162C479.776 203.542 473.123 198.826 465.884 195.169C458.642 191.555 450.924 188.988 442.961 187.544C434.954 186.167 426.813 185.736 418.706 186.26C406.5 187.104 394.489 189.774 383.076 194.182C381.126 194.922 379.276 195.687 377.425 196.65C375.574 197.612 373.674 198.254 371.849 199.118C364.436 202.557 357.563 207.054 351.443 212.468C348.409 215.189 345.761 218.311 343.571 221.747C341.346 225.213 340.078 229.206 339.895 233.321C339.901 233.352 339.9 233.383 339.891 233.413C339.882 233.443 339.867 233.471 339.845 233.494V233.543Z" fill="#8F4620"/>
<path opacity="0.4" d="M397.163 206.842C397.163 206.842 398.372 206.694 400.617 206.62C403.91 206.52 407.206 206.619 410.487 206.916C415.588 207.38 420.62 208.415 425.489 210.001C431.897 211.993 437.792 215.362 442.762 219.872C445.609 222.486 448.046 225.514 449.991 228.855C452.146 232.419 453.564 236.38 454.161 240.503C455.395 249.016 453.347 257.925 450.287 266.439C447.004 275.14 442.871 283.497 437.95 291.388C432.915 299.54 427.343 307.348 421.27 314.758C415.21 322.215 408.613 329.217 401.53 335.71C394.605 342.057 387.178 347.833 379.323 352.984C375.523 355.452 371.551 357.648 367.751 359.721C363.951 361.794 360.348 363.867 356.672 365.94C349.541 370.086 342.829 374.059 336.932 377.983C331.035 381.907 325.458 385.658 320.844 389.211C316.82 392.281 312.972 395.577 309.321 399.083C306.967 401.317 304.759 403.699 302.708 406.215C301.302 407.967 300.611 408.954 300.611 408.954L300.389 408.806C300.389 408.806 301.03 407.794 302.363 405.943C304.295 403.3 306.388 400.778 308.63 398.392C312.144 394.706 315.885 391.244 319.832 388.027C324.348 384.227 329.702 380.327 335.723 376.256C341.743 372.184 348.356 367.988 355.463 363.917C362.569 359.845 370.44 355.748 377.991 351.01C385.766 346.058 393.141 340.505 400.05 334.402C407.211 328.104 413.961 321.353 420.258 314.191C426.573 307.007 432.284 299.314 437.333 291.191C442.23 283.349 446.188 274.958 449.128 266.192C452.069 258.046 453.107 249.334 452.163 240.725C451.535 236.887 450.187 233.203 448.19 229.866C446.422 226.7 444.193 223.814 441.577 221.303C436.806 216.934 431.199 213.576 425.095 211.432C420.358 209.75 415.464 208.551 410.487 207.854C407.281 207.395 404.052 207.115 400.815 207.015C398.545 207.015 397.36 207.015 397.36 207.015L397.163 206.842Z" fill="#333333"/>
<path d="M226.316 201.61C223.934 223.6 223.934 245.782 226.316 267.771C229.795 295.756 280.205 282.578 296.54 276.014C312.875 269.45 323.139 231.026 323.139 231.026C323.139 231.026 265.993 247.437 247.067 256.987C247.067 256.987 240.084 219.699 235.149 198.896L226.316 201.61Z" fill="#FFA68A"/>
<path d="M226.488 201.734C225.871 210.001 225.773 218.268 225.674 226.412C225.575 234.556 225.921 242.995 226.414 251.263C226.71 255.384 227.006 259.505 227.475 263.601L227.845 266.686V267.451V268.117L228.141 269.648C228.578 271.447 229.321 273.158 230.338 274.706C231.394 276.265 232.733 277.613 234.285 278.68C235.873 279.797 237.608 280.685 239.442 281.32C243.248 282.616 247.22 283.356 251.237 283.516C259.519 283.833 267.809 283.112 275.912 281.37C279.983 280.555 284.005 279.494 287.953 278.285C289.952 277.693 291.901 277.002 293.826 276.286C294.815 276.005 295.787 275.667 296.737 275.274C297.625 274.756 298.612 274.312 299.451 273.744C302.696 271.289 305.464 268.262 307.619 264.811C309.855 261.358 311.819 257.736 313.491 253.977C316.818 246.434 319.556 238.646 321.683 230.681L323.559 232.532C310.777 236.505 297.971 240.454 285.288 244.871C278.947 246.993 272.605 249.116 266.338 251.411C263.204 252.521 260.071 253.681 256.986 254.89L252.372 256.766C250.867 257.407 249.386 258.148 247.881 258.814C247.659 258.92 247.417 258.98 247.17 258.99C246.924 259 246.678 258.96 246.447 258.872C246.216 258.785 246.006 258.651 245.828 258.48C245.651 258.309 245.51 258.103 245.414 257.876C245.403 257.737 245.403 257.596 245.414 257.457C243.769 247.734 242.025 238.01 240.183 228.287C238.34 218.564 236.482 208.808 234.606 199.019L235.297 199.414L226.488 201.734ZM226.266 201.413L234.976 198.378C235.107 198.337 235.249 198.348 235.373 198.407C235.496 198.467 235.593 198.571 235.643 198.699C238.283 208.249 240.578 217.898 242.7 227.547C244.822 237.196 246.845 246.895 248.844 256.593L246.203 255.285C249.288 253.73 252.397 252.373 255.53 251.09C258.664 249.807 261.798 248.622 264.956 247.437C271.298 245.167 277.664 242.946 284.079 240.947C296.885 236.925 309.741 233.001 322.695 229.497C323.078 229.398 323.484 229.455 323.825 229.653C324.167 229.852 324.417 230.177 324.521 230.558C324.594 230.824 324.594 231.106 324.521 231.372C322.133 239.432 319.028 247.261 315.243 254.767C313.372 258.54 311.21 262.162 308.778 265.6C306.378 269.134 303.39 272.23 299.945 274.756C299.057 275.323 298.119 275.743 297.206 276.237C296.246 276.697 295.257 277.093 294.245 277.421C292.271 278.137 290.272 278.778 288.298 279.42C284.301 280.679 280.279 281.764 276.208 282.751C268.059 284.828 259.695 285.946 251.286 286.083C246.976 286.118 242.685 285.511 238.554 284.281C234.195 283.018 230.388 280.323 227.747 276.631C226.475 274.72 225.579 272.585 225.106 270.339L224.835 268.808L224.662 267.871V267.081L224.342 263.947C223.922 259.776 223.626 255.606 223.453 251.411C223.281 247.215 223.207 243.069 223.281 238.874C223.355 234.679 223.478 230.533 223.675 226.363C223.873 222.192 224.144 218.046 224.588 213.876C225.032 209.705 225.477 205.584 226.192 201.537C226.205 201.49 226.231 201.447 226.266 201.413Z" fill="#FFA68A"/>
<path d="M331.06 221.205C331.06 221.205 295.38 233.544 281.094 244.032C281.094 244.032 293.135 261.306 291.482 275.175C289.829 289.044 336.933 230.977 331.06 221.205Z" fill="#E73263"/>
<path d="M330.96 221.452C322.67 225.326 314.305 228.855 306.039 232.68L293.529 238.257C291.456 239.17 289.408 240.182 287.385 241.194L284.375 242.798L281.488 244.575L281.66 243.489C282.869 245.414 283.906 247.363 284.992 249.338C286.077 251.312 287.04 253.311 287.952 255.359C288.865 257.407 289.704 259.456 290.42 261.578C291.191 263.714 291.785 265.909 292.197 268.142C292.655 270.415 292.829 272.736 292.715 275.052V275.792C292.694 275.89 292.694 275.991 292.715 276.088C292.715 276.088 292.715 275.916 292.443 275.817C292.172 275.718 292.295 275.817 292.443 275.817C293.256 275.474 294.006 274.999 294.664 274.41C297.925 271.571 300.945 268.468 303.695 265.131C309.321 258.419 314.7 251.435 319.832 244.328C321.115 242.527 322.3 240.725 323.533 238.874C324.767 237.023 326.001 235.197 326.988 233.297C328.084 231.409 329.065 229.455 329.924 227.448C330.941 225.625 331.307 223.51 330.96 221.452ZM331.232 221.106C331.841 222.131 332.101 223.326 331.972 224.512C331.902 225.654 331.72 226.786 331.429 227.893C330.842 230.083 330.075 232.221 329.135 234.284C328.222 236.357 327.259 238.381 326.149 240.355C325.039 242.329 323.928 244.254 322.769 246.154C320.449 249.979 317.834 253.558 315.218 257.259C312.603 260.961 309.691 264.292 306.656 267.599C305.126 269.253 303.572 270.881 301.968 272.535C300.344 274.174 298.595 275.684 296.737 277.051C295.687 277.867 294.489 278.47 293.208 278.828C292.639 278.954 292.044 278.903 291.506 278.68C291.156 278.54 290.849 278.31 290.617 278.013C290.428 277.77 290.286 277.494 290.198 277.199C290.072 276.758 290.014 276.3 290.025 275.842V274.929C290.335 272.829 290.384 270.698 290.173 268.586C289.965 266.429 289.585 264.292 289.038 262.195C288.459 260.082 287.733 258.013 286.867 256.001C285.164 251.941 282.985 248.097 280.377 244.55C280.264 244.387 280.216 244.187 280.244 243.991C280.271 243.794 280.372 243.615 280.525 243.489L283.314 241.342L286.201 239.368C288.15 238.134 290.124 236.9 292.147 235.765C296.195 233.512 300.382 231.517 304.682 229.793C308.926 228.016 313.244 226.371 317.636 224.857C322.004 223.401 326.42 222.093 330.911 221.007C330.967 220.98 331.031 220.976 331.091 220.994C331.15 221.012 331.201 221.052 331.232 221.106Z" fill="#E63263"/>
<path d="M318.698 230.286C319.565 228.276 320.866 226.483 322.509 225.036C324.151 223.59 326.094 222.525 328.198 221.92C335.6 219.921 348.85 217.725 368.96 219.057C389.141 220.735 408.937 225.547 427.637 233.321C429.563 234.108 431.298 235.3 432.724 236.815C434.15 238.331 435.234 240.135 435.903 242.106C436.791 244.865 437.322 247.726 437.482 250.62C438.296 262.564 389.835 369.493 328.913 369.493H271.1C269.101 369.498 267.121 369.091 265.285 368.299C263.449 367.507 261.795 366.346 260.425 364.888C259.056 363.431 258 361.708 257.324 359.826C256.647 357.943 256.365 355.942 256.493 353.946C257.398 341.362 259.615 328.906 263.106 316.781C271.323 287.316 308.729 252.372 318.698 230.286Z" fill="#FD3E72"/>
<path d="M318.522 230.212C318.522 230.212 318.719 229.743 319.213 228.854C319.939 227.544 320.854 226.346 321.927 225.301C323.638 223.6 325.752 222.361 328.071 221.698C331.182 220.852 334.337 220.177 337.522 219.674C346.149 218.343 354.876 217.773 363.603 217.972C374.953 218.153 386.255 219.493 397.333 221.969C403.436 223.351 409.695 225.079 416.11 227.152C419.318 228.188 422.501 229.397 425.734 230.681L428.201 231.692C429.059 232.067 429.885 232.513 430.669 233.025C432.324 234.076 433.771 235.423 434.937 236.998C436.116 238.586 436.994 240.376 437.528 242.279C438.053 244.097 438.432 245.954 438.663 247.832C438.786 248.823 438.851 249.82 438.861 250.818C438.817 251.816 438.676 252.808 438.441 253.779C437.995 255.633 437.451 257.461 436.813 259.258C434.19 266.433 431.107 273.431 427.584 280.209C420.288 294.415 411.855 308.008 402.367 320.854C397.524 327.488 392.257 333.802 386.6 339.757C380.951 345.857 374.738 351.409 368.044 356.34C361.291 361.364 353.799 365.31 345.837 368.038C343.789 368.556 341.79 369.198 339.718 369.642C337.645 370.086 335.597 370.456 333.5 370.579C329.256 370.95 325.622 368.858 321.6 368.908L273.855 369.204C272.818 369.204 271.014 369.599 269.854 369.599C268.774 369.576 267.7 369.444 266.646 369.204C263.493 368.469 261.178 368.466 258.957 366.109C256.736 363.752 255.26 360.791 254.713 357.599C254.455 355.6 254.455 353.576 254.713 351.578C254.861 349.702 255.059 347.876 255.256 346.025C255.676 342.373 256.218 338.77 256.86 335.241C258.059 328.354 259.708 321.553 261.795 314.882C262.362 313.302 262.881 311.747 263.473 310.217L265.57 305.603C266.236 304.073 267.075 302.715 267.816 301.284C268.556 299.853 269.321 298.471 270.283 297.138C276.311 287.54 267.264 298.587 274.497 289.861C280.764 281.989 310.564 245.85 314.832 240.051C318.191 235.617 312.879 240.192 315.734 235.419C316.745 233.79 317.338 232.433 317.831 231.544L318.522 230.212ZM318.843 230.36L318.177 231.717C317.708 232.606 317.14 233.987 316.129 235.666C313.302 240.498 318.154 235.545 314.832 240.051L274.497 289.861C267.737 298.826 278.44 288.994 272.824 298.718C272.035 300.025 271.344 301.407 270.653 302.789C269.962 304.171 269.173 305.578 268.58 307.009L266.754 311.353C266.212 312.883 265.743 314.487 265.2 316.066C263.307 322.557 261.775 329.148 260.61 335.808C259.994 339.263 259.475 342.792 259.081 346.37C258.883 348.147 258.711 349.973 258.562 351.75C258.338 353.437 258.338 355.147 258.562 356.834C259.122 360.09 260.95 362.992 263.645 364.904C264.989 365.866 266.505 366.561 268.112 366.952C268.922 367.14 269.748 367.255 270.579 367.297C271.344 367.297 272.454 367.297 273.392 367.297L321.138 367.593C325.184 367.593 329.305 367.742 333.228 367.593C335.227 367.593 337.176 367.075 339.15 366.828C341.124 366.582 343.049 365.866 344.998 365.397C352.773 362.992 360.124 359.387 366.786 354.712C373.518 350.029 379.789 344.715 385.514 338.844C391.185 332.967 396.476 326.736 401.355 320.187C410.774 307.393 418.93 293.715 425.709 279.345C428.983 272.547 431.826 265.549 434.222 258.394C435.551 255.172 436.035 251.664 435.628 248.202C435.357 244.873 434.254 241.665 432.42 238.874C431.467 237.622 430.297 236.552 428.966 235.715C428.298 235.303 427.596 234.948 426.869 234.654L424.401 233.691C421.193 232.457 418.035 231.347 414.901 230.236C408.659 228.065 402.564 226.239 396.519 224.783C385.666 221.983 374.569 220.231 363.381 219.551C354.741 218.949 346.063 219.197 337.472 220.291C334.288 220.711 331.133 221.321 328.022 222.117C325.755 222.741 323.683 223.93 322.001 225.572C320.963 226.591 320.067 227.745 319.336 229.003C319.065 229.891 318.843 230.36 318.843 230.36Z" fill="#813C18"/>
<path d="M355.806 198.772C355.806 198.772 349.761 221.205 358.274 231.372C366.787 241.539 384.528 222.587 384.528 222.587L389.759 196.675L355.806 198.772Z" fill="#F0987C"/>
<path d="M311.369 342.274L308.358 312.66L253.605 311.13C218.345 274.237 151.255 231.89 135.611 227.077C114.193 220.488 44.3145 380.919 44.3145 380.919C44.3145 380.919 58.2803 380.08 62.401 391.605L132.304 280.554C132.304 280.554 188.81 369.395 238.998 369.395H286.916C290.354 369.381 293.751 368.648 296.889 367.245C300.028 365.841 302.838 363.797 305.14 361.243C307.442 358.69 309.186 355.683 310.258 352.417C311.331 349.15 311.709 345.695 311.369 342.274Z" fill="#9E5F1A"/>
<path d="M311.173 342.299L308.04 312.685L308.336 312.981C290.101 312.488 271.842 312.364 253.583 312.068C253.466 312.07 253.351 312.046 253.245 311.999C253.138 311.953 253.043 311.883 252.966 311.797L245.563 304.69L237.988 297.878L230.191 291.289L222.271 284.873C216.916 280.653 211.537 276.507 206.035 272.534C200.532 268.561 194.98 264.588 189.404 260.689C183.827 256.79 178.251 252.915 172.625 249.238C166.999 245.561 161.102 241.983 155.353 238.479C149.587 234.96 143.604 231.811 137.439 229.052C136.723 228.805 135.786 228.386 135.268 228.238C134.909 228.163 134.54 228.163 134.182 228.238H133.762L133.145 228.386C131.661 228.822 130.271 229.533 129.049 230.483C126.422 232.53 124.022 234.855 121.894 237.418C117.538 242.617 113.509 248.082 109.828 253.779C106.077 259.455 102.574 265.304 99.1684 271.202C92.3829 283.022 85.8687 295.04 79.7988 307.231C73.7288 319.422 67.7082 331.712 62.033 344.1C56.3578 356.488 50.6826 368.852 45.3035 381.388L44.3165 379.784C46.2954 379.74 48.273 379.914 50.2138 380.303C52.1606 380.695 54.045 381.351 55.8149 382.252C56.688 382.714 57.5143 383.26 58.2824 383.881C58.7019 384.169 59.0905 384.5 59.4421 384.868C59.8459 385.185 60.2103 385.55 60.5278 385.954L61.4901 387.114L62.3044 388.422C62.8125 389.302 63.2577 390.217 63.6368 391.161L61.2927 390.889C72.8158 372.282 84.2649 353.65 95.8373 335.093L130.678 279.419C130.814 279.202 130.991 279.014 131.2 278.865C131.409 278.716 131.645 278.61 131.895 278.553C132.145 278.496 132.403 278.488 132.656 278.531C132.909 278.574 133.151 278.666 133.368 278.802C133.611 278.947 133.815 279.151 133.96 279.395C139.166 287.415 144.866 295.238 150.739 302.839C156.611 310.439 162.854 317.843 169.393 324.901C172.65 328.43 176.03 331.86 179.46 335.191C182.89 338.523 186.418 341.83 190.095 344.914C193.771 347.999 197.497 350.936 201.445 353.7C205.383 356.447 209.505 358.921 213.782 361.103C217.953 363.342 222.354 365.121 226.909 366.409C228.069 366.705 229.204 367.075 230.364 367.297L233.843 367.89C236.21 368.164 238.591 368.312 240.974 368.334L270.016 368.753L284.525 368.951C286.919 369.051 289.317 368.902 291.68 368.507C296.349 367.565 300.639 365.274 304.018 361.918C305.758 360.256 307.216 358.322 308.336 356.192C310.633 351.943 311.62 347.108 311.173 342.299ZM311.544 342.299C312.062 347.188 311.108 352.12 308.805 356.464C306.5 360.824 302.965 364.411 298.639 366.779C296.477 367.934 294.158 368.766 291.754 369.247C289.311 369.671 286.831 369.844 284.352 369.765L269.843 369.963L240.801 370.382C238.334 370.382 235.866 370.382 233.399 370.135L229.722 369.617C228.513 369.42 227.255 369.074 226.12 368.803C221.328 367.612 216.679 365.908 212.253 363.719C207.838 361.556 203.584 359.082 199.52 356.316C195.474 353.552 191.526 350.664 187.751 347.53C183.975 344.396 180.348 341.188 176.77 337.832C173.193 334.476 169.837 330.996 166.53 327.418C159.868 320.286 153.625 312.833 147.605 305.208C141.584 297.582 136.008 289.71 130.678 281.517H133.984L98.7983 336.968C87.1272 355.452 75.2833 373.985 63.4888 392.296C63.3743 392.496 63.2091 392.662 63.0098 392.778C62.8105 392.893 62.5842 392.954 62.3537 392.954C62.1233 392.954 61.897 392.893 61.6977 392.778C61.4984 392.662 61.3332 392.496 61.2187 392.296V392.148C60.9174 391.348 60.5544 390.572 60.133 389.828L59.4915 388.718L58.6772 387.731C58.4137 387.389 58.116 387.074 57.7889 386.793C57.4915 386.487 57.1697 386.207 56.8266 385.954C56.1537 385.404 55.4261 384.924 54.6552 384.522C53.1021 383.695 51.4411 383.089 49.7203 382.721C48.8494 382.523 47.9679 382.375 47.0801 382.277C46.2011 382.216 45.3189 382.216 44.4399 382.277C44.2941 382.28 44.149 382.255 44.0131 382.202C43.8771 382.149 43.7529 382.07 43.6475 381.969C43.5421 381.868 43.4575 381.748 43.3988 381.614C43.34 381.481 43.3081 381.337 43.3049 381.191C43.2682 381.037 43.2682 380.876 43.3049 380.722C48.906 368.235 54.7046 355.896 60.5772 343.705C66.4497 331.514 72.4457 319.027 78.6637 306.96C84.8818 294.892 91.1985 282.282 97.91 270.338C101.2 264.382 104.687 258.501 108.372 252.693C111.978 246.85 115.934 241.23 120.216 235.863C122.417 233.143 124.898 230.661 127.618 228.46C129.091 227.33 130.766 226.493 132.553 225.992C133.55 225.707 134.603 225.682 135.613 225.918C136.723 226.189 137.34 226.51 138.253 226.806C144.599 229.486 150.772 232.561 156.734 236.011C162.681 239.417 168.529 242.995 174.303 246.672C180.077 250.349 185.777 254.075 191.402 257.999C197.028 261.923 202.58 265.921 208.058 270.017C213.536 274.114 218.89 278.383 224.22 282.677L232.091 289.266L239.74 296.102L247.143 303.184L254.323 310.588L253.657 310.291C271.916 311.007 290.151 311.92 308.385 312.438C308.466 312.438 308.544 312.469 308.604 312.523C308.663 312.578 308.7 312.654 308.706 312.735L311.544 342.299Z" fill="#9E5F1A"/>
<path d="M386.48 256.124L349.764 273.768L345.52 307.034C345.52 307.034 379.077 300.963 403.851 282.356C410.414 277.297 397.164 254.445 386.48 256.124Z" fill="#FFA68A"/>
<path d="M386.528 256.321C383.616 258.098 380.655 259.727 377.694 261.405C374.733 263.083 371.723 264.638 368.713 266.217C362.692 269.326 356.622 272.411 350.453 275.224L351.366 273.99C350.527 279.518 349.466 284.997 348.504 290.525C347.542 296.053 346.727 301.556 346.036 307.108L345.346 306.442C349.401 305.543 353.404 304.422 357.337 303.086C361.261 301.778 365.135 300.248 368.984 298.767C372.833 297.286 376.633 295.608 380.359 293.831C384.085 292.055 387.761 290.105 391.265 288.057C393.066 287.094 394.769 285.935 396.521 284.873C398.273 283.812 399.926 282.603 401.629 281.468L402.27 281.024L402.566 280.802C402.566 280.802 402.714 280.654 402.443 280.802L402.591 280.678C402.788 280.505 402.986 280.308 402.961 280.283C402.936 280.259 402.961 280.16 403.134 279.987C403.472 279.305 403.641 278.552 403.627 277.791C403.592 275.899 403.224 274.028 402.541 272.263C401.829 270.401 400.962 268.601 399.951 266.883C398.94 265.132 397.766 263.48 396.447 261.948C395.206 260.465 393.789 259.139 392.227 257.999C390.545 256.868 388.555 256.282 386.528 256.321ZM386.528 255.951C388.684 255.542 390.916 255.863 392.869 256.864C394.835 257.8 396.635 259.05 398.199 260.566C401.361 263.544 403.88 267.139 405.601 271.128C406.562 273.212 407.139 275.452 407.304 277.742C407.398 279.068 407.17 280.397 406.637 281.616C406.315 282.298 405.863 282.91 405.305 283.417L405.182 283.541L404.96 283.714L404.639 283.96L403.997 284.429C402.27 285.663 400.592 286.897 398.791 288.106C396.99 289.315 395.213 290.401 393.338 291.413C391.463 292.425 389.637 293.461 387.712 294.35C385.787 295.238 383.887 296.176 381.963 297.015C380.038 297.854 378.064 298.619 376.115 299.483C374.166 300.346 372.142 300.914 370.144 301.605C368.145 302.296 366.146 302.913 364.098 303.431C362.05 303.949 360.027 304.492 358.004 305.011C353.908 305.998 349.812 306.861 345.666 307.478C345.519 307.507 345.366 307.477 345.242 307.394C345.117 307.311 345.03 307.181 345 307.034C344.99 306.969 344.99 306.902 345 306.837C345.79 301.309 346.431 295.756 346.826 290.179C347.221 284.602 347.64 279 348.233 273.448C348.252 273.19 348.341 272.942 348.488 272.729C348.635 272.517 348.837 272.347 349.071 272.238C355.141 269.203 361.409 266.39 367.528 263.626C370.637 262.269 373.771 260.911 376.904 259.628C380.038 258.345 383.221 257.16 386.429 255.902L386.528 255.951Z" fill="#FFA68A"/>
<path d="M423.369 231.495C439.803 236.085 435.016 265.427 418.434 279.148C401.853 292.869 389.713 293.955 389.713 293.955C389.713 293.955 391.292 269.598 375.648 257.777C375.772 257.826 406.813 226.88 423.369 231.495Z" fill="#FD5B87"/>
<path d="M423.443 231.323C425.246 231.782 426.929 232.624 428.378 233.791C429.896 235.012 431.147 236.533 432.054 238.257C433.783 241.707 434.631 245.53 434.522 249.387C434.555 253.245 433.946 257.081 432.721 260.739C431.522 264.412 429.801 267.895 427.613 271.079C425.433 274.253 422.788 277.082 419.766 279.469C418.237 280.679 416.781 281.715 415.202 282.801C413.622 283.887 412.068 284.874 410.464 285.861C407.28 287.834 403.984 289.622 400.594 291.216C398.867 291.981 397.14 292.746 395.363 293.338C393.561 294.01 391.703 294.522 389.811 294.868C389.593 294.898 389.372 294.842 389.193 294.714C389.014 294.586 388.891 294.394 388.849 294.177V293.931C388.853 292.282 388.771 290.635 388.602 288.995C388.429 287.342 388.207 285.713 387.887 284.06C387.566 282.406 387.27 280.827 386.826 279.272C386.381 277.717 385.888 276.138 385.37 274.608C384.801 273.101 384.15 271.627 383.42 270.191C383.091 269.458 382.712 268.749 382.285 268.068C381.841 267.402 381.496 266.686 381.002 266.069L379.571 264.169C379.077 263.557 378.55 262.972 377.992 262.417C377.487 261.813 376.916 261.266 376.289 260.788L374.513 259.283C374.118 258.952 373.871 258.478 373.824 257.964C373.778 257.451 373.937 256.94 374.266 256.544L374.39 256.396C377.763 253.065 381.313 249.918 385.024 246.969C388.688 243.969 392.564 241.239 396.621 238.8C400.707 236.369 405.021 234.344 409.502 232.754C410.612 232.359 411.772 232.039 412.907 231.742C414.054 231.445 415.215 231.206 416.386 231.027C417.565 230.879 418.751 230.805 419.939 230.805C421.123 230.844 422.298 231.018 423.443 231.323ZM423.32 231.668C422.202 231.413 421.06 231.28 419.914 231.274C418.762 231.286 417.613 231.41 416.485 231.644C415.354 231.881 414.241 232.194 413.154 232.581C412.068 233.026 411.007 233.445 409.97 233.963C405.84 236.031 401.93 238.511 398.299 241.367C394.598 244.131 390.897 246.993 387.442 249.979C383.988 252.965 380.435 256.05 377.178 259.234L376.956 256.272L378.979 258.074C379.659 258.651 380.286 259.287 380.854 259.974C381.422 260.665 382.063 261.282 382.582 262.022L384.087 264.194C384.605 264.909 384.975 265.724 385.419 266.464C385.868 267.217 386.263 268.001 386.604 268.809C387.347 270.409 387.982 272.058 388.503 273.744C389.015 275.367 389.443 277.014 389.787 278.68C390.152 280.356 390.407 282.054 390.552 283.763C390.724 285.466 390.823 287.194 390.848 288.896C390.872 290.599 390.848 292.302 390.7 294.054L389.737 293.116C391.535 292.916 393.311 292.553 395.042 292.03C396.8 291.516 398.522 290.889 400.199 290.155C403.581 288.666 406.811 286.856 409.847 284.751C411.368 283.717 412.834 282.605 414.239 281.419C415.621 280.259 417.101 278.951 418.385 277.767C420.962 275.248 423.209 272.412 425.071 269.327C425.984 267.797 426.897 266.242 427.662 264.638C428.427 263.034 429.167 261.381 429.784 259.702C431.062 256.346 431.94 252.85 432.4 249.288C432.899 245.708 432.492 242.059 431.215 238.677C430.525 236.995 429.472 235.487 428.131 234.26C426.732 233.06 425.091 232.177 423.32 231.668Z" fill="#FD5B87"/>
<path d="M345.518 307.034C345.518 307.034 361.211 292.573 357.856 282.998C349.738 259.554 295.157 206.965 295.157 206.965L282.4 213.949C282.4 213.949 312.38 294.029 345.518 307.034Z" fill="#FFA68A"/>
<path d="M345.47 306.787C349.032 302.992 352.115 298.774 354.649 294.226C355.927 292.05 356.766 289.644 357.116 287.144C357.24 285.997 357.123 284.837 356.771 283.738V283.541C356.771 283.541 356.771 283.393 356.771 283.541L356.548 283.072L356.129 282.184L355.216 280.209C354.688 279.028 354.07 277.889 353.365 276.804C352.699 275.693 352.082 274.583 351.391 273.497C349.911 271.35 348.554 269.129 346.975 267.031C345.396 264.934 343.89 262.762 342.237 260.714C340.584 258.666 339.079 256.494 337.302 254.47C335.526 252.447 334.07 250.275 332.367 248.252L327.432 242.082C324.052 238.01 320.622 233.988 317.069 230.064C313.516 226.14 309.667 222.364 306.039 218.613C302.412 214.862 298.415 211.21 294.541 207.656L295.701 207.804L283.166 215.208L283.659 213.579C285.436 217.972 287.385 222.34 289.31 226.658C291.235 230.977 293.283 235.32 295.38 239.59C299.599 248.103 303.991 256.543 308.729 264.761C311.196 268.858 313.664 272.929 316.131 276.878C318.599 280.826 321.461 284.725 324.422 288.402C325.853 290.278 327.383 292.079 328.962 293.832C330.541 295.584 332.219 297.237 333.897 298.767L336.562 301.111L339.35 303.283C340.337 303.949 341.324 304.566 342.336 305.208L345.47 306.787ZM345.47 307.207C344.359 306.763 343.224 306.343 342.114 305.874L338.906 304.196L335.822 302.247L333.009 300.075C331.134 298.545 329.308 296.966 327.58 295.139C325.853 293.313 324.151 291.734 322.645 289.908C321.14 288.082 319.536 286.206 318.007 284.331C316.477 282.455 315.07 280.505 313.688 278.531C310.876 274.607 308.211 270.585 305.768 266.464C300.805 258.225 296.323 249.705 292.345 240.947C288.101 232.334 284.35 223.45 281.192 214.443C281.072 214.131 281.074 213.785 281.198 213.474C281.321 213.163 281.557 212.91 281.858 212.765L294.714 206.176C294.887 206.013 295.117 205.922 295.355 205.922C295.594 205.922 295.823 206.013 295.997 206.176L318.007 229.176C325.409 236.826 332.811 244.377 339.844 252.447C341.596 254.446 343.249 256.543 344.902 258.641C346.555 260.738 348.11 262.91 349.689 265.082C351.268 267.253 352.625 269.573 354.106 271.794C354.821 272.954 355.438 274.262 356.104 275.397C356.79 276.567 357.384 277.788 357.881 279.049L358.646 280.9L359.016 281.813L359.213 282.282C359.213 282.504 359.213 282.43 359.213 282.504V282.801C359.585 284.26 359.652 285.781 359.411 287.267C358.897 290.03 357.84 292.664 356.302 295.016C354.863 297.306 353.21 299.454 351.367 301.432C349.578 303.419 347.648 305.275 345.593 306.985C345.598 307.017 345.595 307.051 345.584 307.082C345.573 307.113 345.555 307.141 345.53 307.163C345.506 307.185 345.476 307.201 345.444 307.209C345.412 307.216 345.378 307.216 345.346 307.207H345.47Z" fill="#FFA68A"/>
<path d="M282.424 213.949C282.424 213.949 275.021 209.902 276.674 196.675C277.461 189.334 279.401 182.163 282.424 175.427C282.424 175.427 295.6 199.192 295.18 206.966C294.761 214.739 282.424 213.949 282.424 213.949Z" fill="#FFA68A"/>
<path d="M282.328 214.122C280.654 213.378 279.206 212.203 278.134 210.717C277.583 209.978 277.095 209.194 276.678 208.372C276.279 207.534 275.941 206.668 275.666 205.781C275.419 204.896 275.221 203.998 275.074 203.091C274.939 202.184 274.864 201.269 274.852 200.352C274.802 199.448 274.802 198.541 274.852 197.637C274.852 196.724 275.049 195.811 275.173 194.997C275.473 193.269 275.885 191.563 276.406 189.888C276.924 188.21 277.467 186.532 278.084 184.953L279.885 180.017C280.478 178.364 281.045 176.76 281.761 175.082C281.831 174.929 281.957 174.808 282.112 174.744C282.268 174.68 282.442 174.677 282.6 174.736C282.736 174.784 282.85 174.881 282.92 175.008C285.166 178.611 287.535 182.115 289.533 185.866C290.52 187.717 291.483 189.617 292.371 191.542C292.84 192.504 293.284 193.467 293.703 194.454C294.123 195.441 294.518 196.453 294.912 197.44C295.307 198.427 295.628 199.488 295.924 200.525C296.22 201.561 296.492 202.647 296.64 203.831C296.841 205.065 296.841 206.324 296.64 207.558C296.435 208.853 295.89 210.071 295.06 211.087C294.255 212.064 293.221 212.827 292.05 213.308C290.996 213.771 289.884 214.086 288.744 214.245C286.587 214.56 284.392 214.501 282.254 214.073L282.328 214.122ZM282.501 213.752C284.525 213.507 286.518 213.052 288.448 212.395C289.32 212.072 290.149 211.64 290.915 211.111C291.631 210.649 292.244 210.044 292.716 209.335C292.898 209.037 293.031 208.712 293.111 208.372C293.263 207.961 293.346 207.527 293.358 207.089C293.333 206.254 293.209 205.426 292.988 204.621C292.84 203.708 292.47 202.721 292.223 201.783L291.285 198.772C289.903 194.923 288.398 191.048 286.72 187.223C285.042 183.398 283.611 179.45 281.785 175.649H282.994C281.39 178.653 280.274 181.894 279.688 185.249C279.392 186.952 279.17 188.63 278.972 190.333C278.775 192.035 278.652 193.664 278.454 195.268C278.454 196.157 278.257 196.946 278.183 197.736C278.061 198.553 278.004 199.378 278.01 200.204C277.935 201.814 278.034 203.427 278.306 205.016C278.423 205.807 278.588 206.59 278.8 207.36C279.071 208.101 279.318 208.866 279.663 209.606C280.331 211.159 281.295 212.568 282.501 213.752Z" fill="#FFA68A"/>
<path d="M293.849 136.017H252.371C251.284 136.132 250.26 136.585 249.442 137.31C248.623 138.035 248.052 138.998 247.806 140.064L229.818 212.765C229.251 214.986 230.386 216.787 232.286 216.787H273.764C274.849 216.674 275.872 216.222 276.686 215.496C277.501 214.769 278.067 213.805 278.304 212.74L296.317 140.138C296.958 137.818 295.799 136.017 293.849 136.017Z" fill="#919396"/>
<path d="M293.849 136.214H291.061C289.185 136.214 286.422 136.214 282.918 136.214C279.414 136.214 275.145 136.535 270.26 136.732C265.374 136.93 259.872 137.25 253.851 137.448C253.223 137.419 252.594 137.46 251.976 137.571C251.477 137.754 251.023 138.04 250.643 138.41C250.232 138.811 249.905 139.289 249.681 139.817C249.452 140.538 249.263 141.271 249.114 142.013C248.373 145.172 247.534 148.43 246.646 151.884C244.894 158.572 242.846 165.531 240.798 172.787C238.75 180.042 236.678 187.593 234.802 195.194C233.889 199.044 232.976 202.894 232.063 206.793L230.756 212.666C230.213 214.468 231.002 216.022 232.384 215.899C240.403 215.603 248.423 215.381 256.319 215.233L268.039 215.035H273.813C274.374 214.92 274.896 214.661 275.328 214.285C275.761 213.909 276.088 213.428 276.28 212.888L278.748 202.449C279.612 198.92 280.475 195.49 281.363 192.159C283.066 185.496 284.719 179.178 286.298 173.404L290.937 157.634C292.294 152.921 293.577 148.849 294.466 145.468C294.935 143.765 295.329 142.26 295.699 140.927C296.122 139.9 296.122 138.747 295.699 137.719C295.551 137.427 295.346 137.168 295.096 136.956C294.846 136.744 294.556 136.584 294.244 136.485C294.121 136.382 293.989 136.291 293.849 136.214ZM293.849 135.844C294.11 135.795 294.377 135.795 294.638 135.844C295.012 135.944 295.361 136.121 295.662 136.363C295.964 136.605 296.212 136.907 296.39 137.25C296.852 138.381 296.852 139.649 296.39 140.779C296.094 142.112 295.749 143.642 295.379 145.345C294.589 148.775 293.799 152.97 292.911 157.684C292.023 162.397 290.863 167.9 289.654 173.798C288.445 179.696 286.94 186.137 285.336 192.751C284.571 196.107 283.732 199.537 282.869 203.042L281.437 208.644L280.747 211.111C280.525 212.133 280.236 213.138 279.883 214.122C279.389 215.357 278.553 216.426 277.474 217.204C276.395 217.982 275.116 218.437 273.788 218.515H268.014L256.269 218.391C248.373 218.391 240.354 218.095 232.335 217.824C231.642 217.819 230.966 217.614 230.388 217.233C229.81 216.852 229.355 216.311 229.078 215.677C228.656 214.538 228.656 213.286 229.078 212.148L230.657 206.349C231.669 202.499 232.656 198.649 233.643 194.824C235.592 187.149 237.294 179.573 238.824 172.194C240.354 164.816 241.859 157.708 243.438 150.996C244.253 147.665 245.018 144.382 245.906 141.248C246.1 140.408 246.356 139.583 246.671 138.781C247.091 137.847 247.695 137.007 248.447 136.313C249.204 135.599 250.129 135.089 251.137 134.832C252.013 134.716 252.901 134.716 253.777 134.832C259.798 134.98 265.325 135.276 270.21 135.449C275.096 135.622 279.365 135.844 282.869 135.893C286.372 135.943 289.136 135.893 291.011 135.893L293.849 135.844Z" fill="#838588"/>
<path d="M286.127 181.276C286.127 181.276 277.047 176.834 273.346 175.427C269.644 174.021 268.855 180.165 282.426 184.706C282.426 184.706 268.855 180.585 267.621 184.706C266.387 188.827 279.564 190.876 279.564 190.876C279.564 190.876 267.054 195.515 267.547 196.675C268.041 197.835 265.795 200.303 267.547 202.178C269.299 204.054 282.031 205.584 282.031 205.584C282.031 205.584 287.854 191.024 286.127 181.276Z" fill="#FFA68A"/>
<path d="M282.427 203.708C282.599 202.721 283.019 201.808 283.216 200.87C282.38 201.911 281.181 202.599 279.86 202.795C279.62 202.873 279.361 202.873 279.12 202.795H278.405C278.203 202.851 277.99 202.851 277.788 202.795L272.853 202.104L270.977 201.709C270.475 201.591 269.981 201.443 269.497 201.265C269.497 201.265 269.497 201.265 269.349 201.265L269.028 201.018C268.936 200.729 268.936 200.419 269.028 200.13C269.028 199.612 269.398 199.069 269.571 197.983C269.584 197.835 269.584 197.686 269.571 197.539C270.509 196.922 271.718 196.33 272.853 195.737C275.32 194.553 277.788 193.467 280.255 192.332H280.403C280.586 192.247 280.744 192.116 280.861 191.951C280.978 191.787 281.049 191.595 281.069 191.394C281.086 191.243 281.073 191.09 281.03 190.944C280.986 190.798 280.914 190.663 280.818 190.545C280.721 190.428 280.602 190.331 280.467 190.261C280.332 190.19 280.185 190.148 280.033 190.135C277.588 189.893 275.169 189.439 272.803 188.778C271.663 188.437 270.575 187.938 269.571 187.297C269.145 187.02 268.796 186.637 268.559 186.187C268.533 186.098 268.492 186.014 268.436 185.94C268.412 185.793 268.412 185.643 268.436 185.496V185.274C268.503 185.181 268.56 185.082 268.609 184.978C268.609 184.78 268.954 184.682 269.127 184.533L269.867 184.237C270.434 184.107 271.013 184.041 271.594 184.04C272.807 184.047 274.015 184.188 275.197 184.459C276.332 184.706 277.467 185.002 278.577 185.323C279.762 185.796 280.973 186.2 282.204 186.532C282.533 186.652 282.895 186.646 283.219 186.513C283.543 186.381 283.806 186.133 283.956 185.817C284.035 185.65 284.079 185.47 284.086 185.286C284.094 185.102 284.064 184.918 284 184.746C283.936 184.574 283.838 184.416 283.711 184.282C283.585 184.148 283.434 184.04 283.265 183.966H283.043C281.884 183.398 280.576 182.954 279.564 182.387C278.432 181.868 277.335 181.275 276.283 180.61C275.28 180.028 274.366 179.305 273.568 178.463C273.262 178.127 273.012 177.744 272.828 177.328H273.173L275.024 178.068C276.258 178.537 277.492 179.03 278.725 179.475C281.02 180.338 283.364 181.103 285.708 181.819C285.973 181.732 286.258 181.732 286.523 181.819C284.252 180.388 281.958 179.03 279.614 177.747C278.479 177.081 277.294 176.464 276.11 175.847L274.358 174.909C273.949 174.728 273.517 174.604 273.075 174.539C272.407 174.427 271.722 174.54 271.125 174.86C270.802 175.051 270.523 175.308 270.307 175.614C270.09 175.92 269.94 176.268 269.867 176.637C269.74 177.205 269.74 177.795 269.867 178.364C270.147 179.188 270.582 179.95 271.15 180.61C271.64 181.202 272.177 181.755 272.754 182.263C273.05 182.461 273.322 182.683 273.593 182.905C272.902 182.905 272.211 182.905 271.496 182.905C270.82 182.971 270.151 183.094 269.497 183.275L268.51 183.694C268.185 183.905 267.901 184.172 267.671 184.484L267.375 185.027V185.175V185.619C267.362 185.775 267.362 185.932 267.375 186.088C267.421 186.313 267.479 186.536 267.548 186.754C267.842 187.439 268.32 188.029 268.929 188.457C269.998 189.225 271.158 189.855 272.384 190.333C273.519 190.826 274.679 191.221 275.814 191.591C274.457 192.06 273.099 192.554 271.742 193.097C270.397 193.603 269.094 194.213 267.844 194.923C267.357 195.209 266.923 195.576 266.561 196.009C266.456 196.156 266.365 196.313 266.289 196.478C266.289 196.601 266.289 196.7 266.289 196.798C266.274 196.996 266.274 197.194 266.289 197.391C266.312 197.602 266.362 197.809 266.437 198.008C266.289 197.588 266.437 197.884 266.437 197.81V197.983C266.437 197.983 266.437 197.86 266.437 197.785C266.437 197.711 266.437 197.785 266.437 197.785C266.437 197.785 266.092 198.748 265.87 199.513C265.543 200.524 265.543 201.612 265.87 202.622C265.966 202.917 266.098 203.199 266.265 203.461L266.511 203.807V203.98L266.388 203.708L266.783 204.029C267.027 204.202 267.283 204.358 267.548 204.498C268.334 204.869 269.163 205.142 270.015 205.312C270.731 205.485 271.422 205.633 272.137 205.756C274.879 206.219 277.649 206.499 280.428 206.595C280.771 206.614 281.111 206.533 281.409 206.363C281.707 206.192 281.949 205.938 282.106 205.633L282.402 204.942C282.352 204.498 282.352 204.078 282.427 203.708Z" fill="#FFA68A"/>
<path d="M272.359 176.562C272.359 176.562 272.334 176.689 272.359 176.562V176.562Z" fill="#333333"/>
<path d="M234.631 181.326C234.631 181.326 244.229 178.858 247.931 178.068C251.632 177.278 248.868 182.634 235.593 184.657C235.593 184.657 248.547 182.954 247.24 186.557C245.932 190.16 234.458 190.185 234.458 190.185C234.458 190.185 241.861 195.663 240.701 196.576C239.541 197.49 240.084 199.834 237.691 201.167C235.297 202.499 226.217 201.611 226.217 201.611C226.217 201.611 227.944 189.247 234.631 181.326Z" fill="#FFA68A"/>
<path d="M250.151 177.031C249.949 176.861 249.714 176.734 249.46 176.661H248.917H248.374H247.905H247.782H247.486L245.611 177.229L241.909 178.413C239.442 179.228 236.974 180.091 234.507 181.128C233.126 182.425 231.885 183.864 230.806 185.422C229.755 187 228.815 188.649 227.993 190.357C227.993 190.53 227.82 190.752 227.721 190.925C227.327 192.776 226.833 194.602 226.266 196.403C226.266 198.18 226.266 199.982 226.266 201.833C226.266 202.104 226.266 202.4 226.266 202.672C226.266 202.943 226.266 202.672 226.266 202.672C226.636 201.043 228.141 201.166 229.893 201.586L231.003 201.783H231.546C233.988 202.289 236.507 202.289 238.948 201.783C239.639 201.586 241.564 200.994 241.219 199.957C241.219 199.686 240.947 199.463 240.873 199.192C240.528 198.007 241.835 198.131 242.378 197.514C242.69 197.121 242.86 196.634 242.86 196.132C242.86 195.63 242.69 195.143 242.378 194.75C241.99 194.201 241.543 193.697 241.046 193.245C240.225 192.464 239.36 191.731 238.455 191.048C239.516 190.876 240.577 190.678 241.638 190.431C242.765 190.16 243.87 189.805 244.944 189.37C245.51 189.155 246.049 188.873 246.548 188.531C247.107 188.191 247.579 187.726 247.93 187.174C248.168 186.857 248.297 186.472 248.297 186.076C248.297 185.68 248.168 185.294 247.93 184.978C247.445 184.507 246.838 184.182 246.178 184.04C245.901 183.976 245.621 183.927 245.339 183.892C246.24 183.553 247.107 183.131 247.93 182.633C248.574 182.261 249.178 181.822 249.731 181.325C250.057 181.052 250.355 180.746 250.62 180.412C250.799 180.199 250.941 179.957 251.039 179.697C251.12 179.559 251.178 179.409 251.212 179.252C251.236 179.023 251.236 178.791 251.212 178.561C251.174 178.239 251.058 177.93 250.873 177.663C250.688 177.396 250.44 177.179 250.151 177.031ZM244.327 180.61C243.78 180.861 243.22 181.084 242.65 181.276C240.355 182.09 237.961 182.855 235.494 183.472H235.321C235.021 183.548 234.762 183.737 234.597 183.998C234.432 184.26 234.373 184.575 234.433 184.879C234.465 185.034 234.528 185.182 234.617 185.314C234.707 185.445 234.821 185.557 234.954 185.644C235.087 185.732 235.236 185.792 235.392 185.821C235.548 185.851 235.709 185.849 235.864 185.817C237.699 185.688 239.521 185.424 241.317 185.027H242.354C243.421 184.971 244.491 185.054 245.537 185.274C245.973 185.345 246.382 185.533 246.721 185.817C246.918 186.039 246.918 186.31 246.721 186.705C246.611 186.907 246.46 187.084 246.277 187.223C246.277 187.347 245.907 187.47 245.709 187.618C245.257 187.87 244.776 188.069 244.278 188.21C243.248 188.512 242.19 188.71 241.12 188.803C238.96 188.975 236.79 188.975 234.63 188.803C234.428 188.791 234.225 188.824 234.037 188.901C233.849 188.978 233.681 189.096 233.545 189.247C233.305 189.495 233.171 189.827 233.171 190.172C233.171 190.517 233.305 190.849 233.545 191.098L233.693 191.246C235.297 192.652 236.95 194.133 238.332 195.614C238.509 195.791 238.674 195.981 238.825 196.181C238.819 196.222 238.819 196.264 238.825 196.305C238.552 196.866 238.313 197.443 238.109 198.032C237.975 198.349 237.801 198.648 237.591 198.921C237.488 199.032 237.372 199.131 237.246 199.217C237.189 199.228 237.13 199.228 237.073 199.217H236.95C236.703 199.217 236.432 199.439 236.358 199.389H235.864C234.875 199.529 233.877 199.604 232.878 199.612C230.732 199.612 228.141 200.278 227.672 197.563C227.581 197.117 227.608 196.654 227.751 196.221C227.894 195.788 228.147 195.4 228.486 195.095C229.251 194.306 229.424 194.602 229.202 193.59C228.968 192.958 228.842 192.29 228.832 191.616C228.832 189.963 230.51 189.148 230.88 187.544C231.25 185.94 231.275 185.471 232.681 184.879C232.903 184.41 233.101 183.941 233.347 183.497C233.594 183.053 234.236 181.942 234.655 181.153C237.122 180.93 239.787 180.585 242.329 180.19L245.561 179.647L244.327 180.61Z" fill="#FFA68A"/>
<path d="M248.596 179.524C248.596 179.524 248.745 179.474 248.596 179.524V179.524Z" fill="#333333"/>
<path d="M64.8429 391.605V408.88H1.4289C1.4289 408.88 -1.80348 404.734 9.76895 399.798C21.3414 394.863 41.2292 390.05 44.3135 380.92C44.3135 380.92 59.1184 376.798 64.8429 391.605Z" fill="#5B5863"/>
<path d="M65.0163 391.605C65.3617 394.443 65.5098 397.306 65.7565 400.169C66.0033 403.031 66.0773 405.894 66.176 408.756C66.1826 408.925 66.1559 409.093 66.0975 409.251C66.039 409.41 65.9499 409.555 65.8354 409.679C65.7208 409.802 65.5829 409.902 65.4297 409.973C65.2764 410.043 65.1108 410.083 64.9422 410.089C59.6619 410.286 54.3815 410.393 49.1011 410.41C46.4362 410.41 43.796 410.41 41.1558 410.262L33.2353 409.842C30.5951 409.842 27.9549 409.521 25.3147 409.447C22.6745 409.373 20.0343 409.324 17.3941 409.324C12.089 409.324 6.80865 409.546 1.52826 409.793C1.37057 409.799 1.21382 409.766 1.07183 409.697C0.929833 409.628 0.806947 409.526 0.713997 409.398C0.275244 408.751 0.0285242 407.992 0.00232743 407.211C-0.0238693 406.429 0.171526 405.656 0.565949 404.981C1.18586 403.841 2.02433 402.835 3.03342 402.019C4.90928 400.572 6.94612 399.347 9.1034 398.367C10.1644 397.874 11.1267 397.429 12.2124 397.01L15.3708 395.751L21.6628 393.283C25.7835 391.63 29.9042 390.026 33.7534 388.052C34.7157 387.583 35.6534 387.065 36.5663 386.522C37.4265 385.975 38.2506 385.373 39.0338 384.72C39.8278 384.125 40.5632 383.456 41.2299 382.721C41.5013 382.326 41.8221 381.981 42.0688 381.586L42.7103 380.377L42.8831 380.056C42.9754 379.871 43.1073 379.709 43.2694 379.581C43.4314 379.453 43.6197 379.363 43.8207 379.316C44.4075 379.187 45.0005 379.088 45.5973 379.02H47.2998C48.437 378.983 49.5753 379.032 50.7049 379.168C51.8448 379.305 52.9687 379.553 54.0607 379.908C54.6035 380.056 55.1217 380.328 55.6399 380.525C56.1688 380.74 56.6803 380.996 57.1697 381.29C57.6863 381.541 58.1744 381.847 58.6255 382.203C59.0697 382.549 59.5385 382.845 59.958 383.24L61.1423 384.424C61.5371 384.844 61.8332 385.312 62.1787 385.757C62.8093 386.654 63.3623 387.603 63.8319 388.595C64.0836 389.076 64.2901 389.58 64.4488 390.1L64.9916 391.63L65.0163 391.605ZM64.6461 391.605L63.8812 390.273C63.6336 389.806 63.3618 389.353 63.067 388.915C62.4891 388.039 61.8369 387.213 61.1177 386.448C60.7718 386.077 60.4008 385.731 60.0073 385.411L58.8229 384.473C58.422 384.182 58.0016 383.918 57.5645 383.684C57.1456 383.421 56.6987 383.206 56.2321 383.042C55.7922 382.819 55.3287 382.645 54.8503 382.524C54.3829 382.366 53.9046 382.242 53.4192 382.154C52.4512 381.956 51.4696 381.832 50.4829 381.784C49.4973 381.709 48.5075 381.709 47.5219 381.784C47.0326 381.815 46.546 381.881 46.0661 381.981C45.6062 382.053 45.1525 382.161 44.709 382.302L45.8194 381.241L45.0298 383.067C44.7133 383.628 44.3674 384.171 43.9934 384.696C43.6289 385.211 43.2158 385.69 42.7597 386.127C42.3594 386.598 41.913 387.028 41.4273 387.41C40.5147 388.19 39.5501 388.908 38.5403 389.557C37.5533 390.199 36.5417 390.791 35.5053 391.359C33.4796 392.436 31.3954 393.4 29.2626 394.246C27.1406 395.159 25.0186 395.899 22.8719 396.714C18.6032 398.194 14.4085 399.601 10.2878 401.18C8.31205 401.933 6.42536 402.901 4.66195 404.068C3.8576 404.595 3.15538 405.264 2.58927 406.042C2.3852 406.313 2.24764 406.629 2.18765 406.963C2.12765 407.298 2.14689 407.641 2.24383 407.967L1.42956 407.597C6.70995 407.819 11.9903 408.09 17.2954 408.065C19.9356 408.065 22.5758 408.065 25.216 408.065C27.8562 408.065 30.4964 407.794 33.1366 407.671L41.0571 407.251C43.6973 407.251 46.3375 407.103 49.0024 407.103C54.2828 407.103 59.5632 407.21 64.8435 407.424L63.5111 408.756C63.5111 405.894 63.7579 403.031 63.9306 400.169C64.1033 397.306 64.3254 394.493 64.6461 391.63V391.605Z" fill="#5B5863"/>
<path d="M363.307 209.951C363.307 209.951 362.937 210.84 362.271 212.098C361.436 213.634 360.522 215.125 359.532 216.565C358.56 218.014 357.505 219.407 356.373 220.735C355.46 221.821 354.77 222.512 354.77 222.512C354.77 222.512 355.14 221.599 355.806 220.341C356.472 219.082 357.459 217.453 358.52 215.874C359.5 214.438 360.554 213.054 361.678 211.728C362.616 210.617 363.307 209.951 363.307 209.951Z" fill="#333333"/>
<path d="M387.466 199.907C387.466 199.907 384.998 209.063 380.434 212.592C373.652 218.159 365.15 221.203 356.376 221.204C355.685 221.204 355.019 221.204 354.328 221.204C347.74 220.834 343.767 213.307 341.842 203.066C341.312 200.416 340.933 197.739 340.707 195.046V194.848C339.523 180.313 341.472 163.187 345.395 153.093C347.369 148.158 349.837 144.777 352.65 144.431C352.65 144.431 390.402 137.472 397.854 149.219C402.542 156.524 400.198 199.636 387.466 199.907Z" fill="#FFA68A"/>
<path d="M387.538 200.376C387.538 200.804 387.365 201.52 387.019 202.523C386.341 204.924 385.398 207.241 384.206 209.433C383.318 211.051 382.099 212.463 380.629 213.579C379.001 214.917 377.286 216.145 375.496 217.256C369.896 220.771 363.429 222.659 356.818 222.71C356.003 222.71 355.362 222.71 354.621 222.71C353.788 222.702 352.958 222.586 352.154 222.364C350.505 221.83 348.979 220.972 347.665 219.841C346.352 218.709 345.277 217.327 344.505 215.775C341.223 209.926 340.557 202.967 339.915 196.304C339.523 189.28 339.646 182.236 340.286 175.229C340.557 171.676 340.976 168.073 341.593 164.494C342.128 160.872 342.953 157.299 344.061 153.809C344.597 152.012 345.299 150.269 346.158 148.602C347.006 146.77 348.285 145.17 349.884 143.938C350.356 143.607 350.871 143.341 351.414 143.148C351.694 143.048 351.983 142.974 352.277 142.926L352.919 142.778L355.609 142.309C357.41 141.988 359.186 141.717 360.963 141.495C367.999 140.504 375.116 140.223 382.208 140.656C385.724 140.847 389.192 141.563 392.497 142.778C394.197 143.417 395.774 144.344 397.161 145.517C398.666 146.748 399.787 148.383 400.393 150.231C401.254 153.317 401.71 156.503 401.75 159.707C401.75 162.693 401.75 165.58 401.553 168.32C401.244 173.31 400.501 178.265 399.332 183.126C398.487 186.93 397.126 190.6 395.285 194.034C394.162 196.351 392.341 198.258 390.079 199.488C389.234 199.84 388.329 200.024 387.414 200.031L387.538 200.376ZM387.538 199.734C388.401 199.624 389.237 199.356 390.005 198.945C391.93 197.574 393.4 195.657 394.224 193.442C395.631 189.995 396.617 186.39 397.161 182.707C397.934 177.906 398.379 173.058 398.493 168.196C398.573 165.422 398.508 162.646 398.296 159.88C398.155 157.04 397.691 154.225 396.914 151.489C396.373 150.297 395.578 149.238 394.585 148.385C393.592 147.533 392.425 146.908 391.165 146.554C388.154 145.476 385.021 144.78 381.838 144.481C375.001 143.92 368.127 144.011 361.308 144.752C359.556 144.9 357.78 145.098 356.028 145.32L353.388 145.665H352.722H352.277C351.964 145.755 351.665 145.888 351.389 146.06C350.074 146.99 348.986 148.205 348.206 149.614C347.307 151.112 346.548 152.69 345.936 154.327C343.468 161.027 341.94 168.036 341.396 175.155C340.72 182.051 340.877 189.002 341.865 195.86L342.753 200.796C342.926 201.659 343 202.4 343.222 203.263C343.444 204.127 343.617 204.843 343.839 205.608C344.617 208.552 345.778 211.381 347.293 214.023C348.481 216.318 350.49 218.08 352.919 218.959C353.497 219.131 354.093 219.23 354.696 219.255C355.411 219.255 356.176 219.255 356.793 219.255C358.12 219.277 359.447 219.211 360.766 219.057C365.5 218.572 370.094 217.164 374.287 214.911C376.076 213.986 377.799 212.939 379.444 211.777C380.792 210.83 381.961 209.652 382.899 208.298C384.267 206.313 385.416 204.187 386.329 201.955C386.995 200.401 387.291 199.488 387.291 199.488L387.538 199.734Z" fill="#FFA68A"/>
<path d="M398.596 144.925C393.315 140.631 385.123 141.544 375.549 140.384H375.303L370.368 139.57C360.103 137.892 350.505 136.608 345.693 140.458C343.39 142.417 341.681 144.982 340.758 147.862C339.828 150.277 339.526 152.888 339.88 155.452C340.234 158.015 341.232 160.447 342.781 162.52L345.249 159.287C348.194 161.673 351.582 163.451 355.218 164.519L353.663 160.052C353.663 160.052 361.707 165.605 368.172 166.222L368.789 161.286C372.087 164.26 376.278 166.056 380.706 166.395C381.39 168.688 382.458 170.85 383.865 172.786C387.714 177.524 387.048 189.197 387.048 189.197C387.048 189.197 389.515 181.004 393.809 181.991C398.102 182.978 392.23 196.798 391.711 197.958C397.239 193.269 400.915 184.187 402.642 174.736C402.642 174.218 402.815 173.699 402.889 173.181C404.937 161.188 403.654 149.021 398.596 144.925Z" fill="#5B5863"/>
<path d="M398.494 145.073C397.733 144.469 396.905 143.956 396.026 143.543C395.141 143.119 394.215 142.789 393.263 142.556C391.305 142.074 389.305 141.785 387.291 141.692C383.343 141.47 379.371 141.569 375.349 141.248H375.176H374.929H375.077L370.019 140.606H370.192C369.981 140.58 369.774 140.531 369.575 140.458H369.896C365.874 140.137 361.778 139.545 357.682 139.545C355.722 139.424 353.756 139.49 351.809 139.742C350.05 139.917 348.358 140.509 346.874 141.47C345.409 142.571 344.19 143.966 343.296 145.566C342.36 147.23 341.685 149.028 341.298 150.897C340.859 152.758 340.822 154.69 341.188 156.567C341.553 158.443 342.314 160.22 343.42 161.78H341.989L344.629 158.621C344.698 158.55 344.78 158.494 344.871 158.455C344.962 158.417 345.06 158.397 345.159 158.397C345.258 158.397 345.356 158.417 345.447 158.455C345.538 158.494 345.621 158.55 345.69 158.621C347.125 159.798 348.661 160.846 350.279 161.755C351.861 162.736 353.583 163.468 355.387 163.927L354.721 164.667C354.227 163.186 353.709 161.681 353.166 160.2C353.119 160.06 353.128 159.906 353.193 159.772C353.257 159.638 353.372 159.535 353.512 159.485C353.591 159.442 353.68 159.419 353.771 159.419C353.861 159.419 353.95 159.442 354.03 159.485C356.212 160.917 358.506 162.171 360.889 163.236C363.22 164.346 365.724 165.047 368.292 165.309L367.379 166.049L367.848 161.114C367.86 160.987 367.897 160.864 367.957 160.752C368.018 160.64 368.099 160.541 368.198 160.46C368.297 160.38 368.41 160.32 368.532 160.284C368.654 160.248 368.782 160.236 368.909 160.25C369.107 160.271 369.295 160.348 369.452 160.472C369.835 160.802 370.239 161.107 370.661 161.385C371.081 161.696 371.518 161.984 371.968 162.249C372.871 162.77 373.811 163.224 374.781 163.606C376.697 164.352 378.723 164.777 380.777 164.865C381.048 164.876 381.308 164.969 381.524 165.132C381.74 165.296 381.901 165.521 381.986 165.778C382.603 167.565 383.431 169.271 384.454 170.861L384.824 171.38L385.095 171.725L385.317 172.021L385.762 172.638L386.23 173.452C386.761 174.449 387.183 175.5 387.489 176.587C388.069 178.626 388.449 180.717 388.624 182.83C388.801 184.923 388.867 187.023 388.821 189.123L385.268 188.481C385.651 187.265 386.138 186.085 386.724 184.952C387.326 183.732 388.107 182.609 389.043 181.621C389.626 181.05 390.302 180.582 391.042 180.239C391.894 179.862 392.835 179.733 393.756 179.869H394.2H394.472H394.669C394.866 179.961 395.056 180.068 395.237 180.19C395.779 180.539 396.221 181.024 396.52 181.596C396.877 182.371 397.071 183.211 397.087 184.064C397.115 185.383 396.983 186.701 396.692 187.988C396.463 189.188 396.167 190.374 395.804 191.541C395.459 192.701 395.113 193.836 394.694 194.947C394.274 196.057 393.855 197.143 393.337 198.328L390.326 196.057C393.3 193.292 395.655 189.927 397.235 186.186C398.954 182.308 400.301 178.276 401.257 174.143V173.995C401.319 173.799 401.429 173.62 401.578 173.477L401.233 174.193C401.804 171.675 402.249 169.13 402.565 166.567C402.849 164.019 402.972 161.456 402.935 158.892C402.927 156.45 402.645 154.017 402.096 151.637C401.765 150.398 401.302 149.199 400.714 148.059C400.412 147.497 400.066 146.961 399.678 146.455C399.327 145.959 398.93 145.496 398.494 145.073ZM398.716 144.777C399.225 145.204 399.688 145.684 400.097 146.208C400.504 146.725 400.875 147.269 401.208 147.837C401.816 148.999 402.32 150.213 402.713 151.464C403.474 153.976 403.995 156.554 404.268 159.164C404.547 161.778 404.654 164.408 404.588 167.036C404.588 169.701 404.292 172.342 403.996 174.884C403.965 175.123 403.862 175.347 403.7 175.525L404.07 174.859C403.514 179.307 402.404 183.668 400.764 187.84C399.163 192.22 396.551 196.16 393.139 199.34C392.753 199.67 392.254 199.837 391.747 199.805C391.24 199.773 390.766 199.544 390.425 199.167C390.182 198.896 390.021 198.563 389.96 198.205C389.899 197.847 389.94 197.479 390.08 197.143C390.474 196.181 390.869 195.07 391.239 194.009C391.609 192.948 391.98 191.887 392.3 190.826C392.621 189.765 392.892 188.679 393.115 187.618C393.322 186.636 393.43 185.635 393.435 184.632C393.43 184.33 393.38 184.03 393.287 183.743H393.435H393.633H393.435H393.287H393.509H393.386C393.171 183.662 392.934 183.662 392.72 183.743C392.395 183.869 392.101 184.063 391.856 184.311C391.177 184.99 390.611 185.773 390.178 186.63C389.683 187.549 389.262 188.507 388.92 189.493C388.8 189.93 388.521 190.305 388.137 190.545C387.753 190.785 387.293 190.872 386.848 190.788C386.404 190.704 386.007 190.455 385.737 190.092C385.467 189.729 385.343 189.277 385.391 188.827C385.515 186.896 385.515 184.959 385.391 183.027C385.29 181.121 385.009 179.229 384.552 177.376C384.327 176.53 384.03 175.704 383.664 174.908L383.417 174.366L382.998 173.749L382.801 173.428L382.603 173.181L382.134 172.465C381.064 170.621 380.234 168.647 379.667 166.592L380.901 167.53C378.553 167.313 376.263 166.678 374.14 165.654C373.081 165.174 372.066 164.605 371.105 163.951C370.636 163.631 370.167 163.285 369.723 162.915C369.279 162.545 368.835 162.175 368.366 161.73L370.044 161.163L369.279 166.098C369.264 166.203 369.228 166.303 369.174 166.393C369.12 166.483 369.048 166.562 368.963 166.624C368.878 166.686 368.781 166.73 368.678 166.755C368.576 166.779 368.47 166.782 368.366 166.765C365.667 166.332 363.048 165.5 360.593 164.297C358.165 163.148 355.83 161.812 353.61 160.299L354.499 159.633C354.992 161.138 355.51 162.619 356.028 164.1C356.056 164.171 356.069 164.247 356.066 164.323C356.063 164.399 356.045 164.474 356.013 164.543C355.981 164.612 355.935 164.674 355.878 164.725C355.822 164.776 355.755 164.815 355.683 164.84H355.214C353.295 164.364 351.446 163.642 349.712 162.693C347.989 161.749 346.339 160.676 344.777 159.485L345.887 159.361L343.42 162.693C343.277 162.883 343.066 163.01 342.831 163.047C342.596 163.084 342.355 163.028 342.161 162.89L342.038 162.767C340.613 161.044 339.573 159.036 338.985 156.879C338.398 154.721 338.278 152.463 338.633 150.255C338.928 148.045 339.595 145.9 340.607 143.913C341.632 141.83 343.127 140.013 344.974 138.607C345.955 137.905 347.036 137.356 348.182 136.979C349.261 136.644 350.367 136.404 351.488 136.263C353.647 136.066 355.819 136.066 357.978 136.263C362.129 136.673 366.25 137.349 370.315 138.286H370.636C370.507 138.251 370.37 138.251 370.241 138.286H370.438L375.373 139.348H375.521H375.744H375.595C379.469 139.989 383.417 140.31 387.39 140.804C389.383 141.024 391.355 141.404 393.287 141.939C394.258 142.197 395.201 142.553 396.1 143C397.045 143.478 397.924 144.075 398.716 144.777Z" fill="#5B5863"/>
<path d="M353.461 143.075C353.471 143.034 353.471 142.992 353.461 142.951C353.399 142.924 353.332 142.91 353.264 142.91C353.196 142.91 353.129 142.924 353.066 142.951C352.685 143.337 352.376 143.789 352.153 144.284C351.508 145.771 351.386 147.432 351.808 148.997C352.019 149.859 352.343 150.688 352.77 151.465C353.162 152.142 353.607 152.785 354.103 153.39C354.587 154.019 355.106 154.621 355.657 155.191C354.917 154.852 354.228 154.412 353.609 153.884C352.953 153.348 352.365 152.735 351.857 152.057C351.253 151.264 350.793 150.37 350.5 149.417C350.265 148.508 350.23 147.558 350.396 146.634C350.562 145.71 350.926 144.832 351.463 144.062C351.669 143.779 351.91 143.522 352.178 143.297C352.375 143.108 352.611 142.964 352.869 142.877C352.947 142.829 353.037 142.804 353.128 142.804C353.22 142.804 353.309 142.829 353.387 142.877L353.461 143.075Z" fill="#55525C"/>
<path d="M362.299 145.888L362.694 146.505C362.916 146.899 363.31 147.418 363.73 148.059C364.813 149.57 366.018 150.99 367.332 152.304C368.661 153.6 370.097 154.78 371.626 155.833C372.267 156.252 372.81 156.647 373.205 156.869L373.822 157.24C372.974 157.065 372.147 156.8 371.354 156.45C369.525 155.673 367.853 154.569 366.42 153.192C365.029 151.811 363.901 150.189 363.088 148.405C362.729 147.599 362.464 146.755 362.299 145.888Z" fill="#55525C"/>
<path d="M377.598 145.937C378.805 146.315 379.933 146.909 380.929 147.689C383.056 149.362 385.272 150.919 387.566 152.353C389.854 153.76 392.236 155.005 394.697 156.08C395.734 156.499 396.572 156.894 397.165 157.116L398.127 157.511C396.901 157.383 395.687 157.152 394.5 156.82C391.832 156.068 389.282 154.946 386.925 153.488C385.662 152.748 384.45 151.923 383.298 151.021C382.212 150.132 381.299 149.17 380.485 148.405C379.838 147.788 379.154 147.211 378.437 146.677C378.173 146.413 377.893 146.166 377.598 145.937Z" fill="#55525C"/>
<path d="M343.471 342.274C341.744 325.296 337.623 312.167 320.548 311.501L320.277 311.106C268.855 273.522 228.561 231.199 202.233 227.078C180.026 223.598 128.209 380.92 128.209 380.92C128.209 380.92 144.642 380.081 148.763 391.605L203.862 287.958C203.862 287.958 255.679 369.395 280.921 369.395H328.839C343.422 369.37 343.471 342.274 343.471 342.274Z" fill="#AB6D29"/>
<path d="M343.271 342.298C342.913 338.757 342.352 335.239 341.594 331.761C341.421 330.873 341.199 330.009 340.952 329.293C340.726 328.456 340.455 327.632 340.138 326.825C339.577 325.117 338.859 323.465 337.991 321.89C337.566 321.117 337.088 320.375 336.56 319.669C336.034 318.96 335.465 318.285 334.857 317.645C334.265 317.028 333.55 316.485 332.908 315.918C332.267 315.35 331.452 314.931 330.687 314.511C329.922 314.092 329.133 313.697 328.22 313.425C327.307 313.154 326.567 312.833 325.752 312.685C324.938 312.537 324.05 312.29 323.137 312.29L320.669 311.969C320.596 311.969 320.524 311.951 320.46 311.917C320.395 311.883 320.34 311.833 320.299 311.772L320.003 311.402C314.599 307.503 309.196 303.604 303.891 299.581C298.586 295.559 293.281 291.511 288.049 287.415L272.381 275.076L256.861 262.54C251.679 258.394 246.448 254.297 241.168 250.201C235.887 246.104 230.557 242.279 225.006 238.701C219.6 235.099 213.806 232.119 207.733 229.817C206.228 229.249 204.649 229.002 203.119 228.558C202.774 228.558 202.206 228.311 202.083 228.311C201.723 228.259 201.357 228.259 200.997 228.311C200.701 228.35 200.411 228.425 200.133 228.533C199.797 228.622 199.473 228.755 199.171 228.928C196.47 230.55 194.107 232.679 192.213 235.196C188.156 240.403 184.534 245.932 181.381 251.731C178.148 257.505 175.113 263.428 172.226 269.4C166.551 281.418 161.296 293.634 156.311 305.973C151.327 318.312 146.713 330.799 142.247 343.335C137.781 355.871 133.388 368.63 129.292 381.388L128.157 379.907C130.304 379.848 132.452 379.988 134.573 380.327C136.707 380.664 138.794 381.252 140.791 382.079C141.816 382.495 142.799 383.007 143.727 383.609C144.675 384.19 145.56 384.868 146.367 385.633L147.527 386.867C147.884 387.307 148.213 387.768 148.514 388.249C148.85 388.699 149.131 389.188 149.353 389.705L150.069 391.259L147.601 391.087C156.599 373.713 165.646 356.357 174.743 339.016C183.873 321.742 192.879 304.467 202.132 287.193C202.339 286.718 202.723 286.343 203.203 286.149C203.683 285.956 204.22 285.958 204.698 286.156C204.981 286.325 205.225 286.552 205.414 286.823C214.247 300.469 223.648 313.845 233.666 326.653C238.601 333.044 243.808 339.362 249.261 345.383C254.591 351.445 260.481 356.989 266.854 361.942C269.951 364.391 273.437 366.302 277.168 367.593L278.55 367.988L279.931 368.136C280.921 368.262 281.92 368.312 282.917 368.284H289.036L313.538 368.679L325.876 368.852C327.876 369.014 329.889 368.872 331.847 368.432C333.779 367.861 335.497 366.727 336.782 365.175C339.253 361.973 340.943 358.238 341.717 354.267C342.646 350.342 343.167 346.331 343.271 342.298ZM343.642 342.298C343.594 346.408 343.122 350.501 342.235 354.514C341.478 358.587 339.789 362.431 337.3 365.742C335.972 367.396 334.187 368.623 332.168 369.271C330.145 369.781 328.055 369.964 325.974 369.814L313.637 369.987L289.135 370.382H283.016C281.964 370.443 280.909 370.443 279.857 370.382C279.315 370.382 278.747 370.382 278.204 370.234L276.625 369.839C272.56 368.588 268.738 366.652 265.324 364.114C261.931 361.724 258.707 359.102 255.676 356.266C252.617 353.477 249.73 350.541 246.892 347.555C241.291 341.533 235.887 335.216 230.829 328.849C225.77 322.482 220.959 315.844 216.024 309.107C211.089 302.37 206.648 295.682 202.181 288.772L205.513 288.624C196.408 305.899 187.056 323.173 177.828 340.448C168.599 357.722 159.272 374.997 149.92 392.098C149.82 392.344 149.65 392.553 149.43 392.701C149.21 392.849 148.951 392.928 148.687 392.928C148.422 392.928 148.163 392.849 147.943 392.701C147.724 392.553 147.553 392.344 147.453 392.098L146.91 390.815C146.723 390.389 146.491 389.984 146.219 389.606C145.993 389.203 145.729 388.823 145.43 388.471L144.517 387.41C143.82 386.772 143.078 386.186 142.296 385.657C141.512 385.132 140.687 384.67 139.829 384.275C138.015 383.502 136.12 382.938 134.178 382.597C132.233 382.241 130.258 382.068 128.281 382.079C128.134 382.086 127.988 382.063 127.85 382.011C127.713 381.96 127.587 381.881 127.481 381.779C127.375 381.678 127.29 381.556 127.233 381.421C127.175 381.285 127.146 381.14 127.146 380.993C127.134 380.862 127.134 380.73 127.146 380.598C131.488 368.013 136.012 355.485 140.717 343.014C145.38 330.552 150.118 318.089 155.127 305.75C160.136 293.412 165.145 281.073 170.746 268.98C173.509 262.91 176.372 256.888 179.53 250.966C182.59 244.977 186.147 239.257 190.165 233.864C192.207 231.004 194.799 228.579 197.789 226.732C198.211 226.494 198.658 226.304 199.122 226.164C199.609 225.957 200.125 225.824 200.652 225.77C201.119 225.711 201.591 225.711 202.058 225.77H202.527H202.848H203.465C205.142 226.189 206.894 226.436 208.4 227.003L213.334 228.756L217.899 230.977C219.454 231.668 220.86 232.605 222.341 233.444C223.821 234.283 225.302 235.098 226.683 235.912C232.359 239.515 237.812 243.315 243.141 247.437C248.471 251.558 253.628 255.704 258.785 259.924L274.158 272.682L289.407 285.564C294.49 289.833 299.647 294.053 304.828 298.199C310.01 302.345 315.266 306.441 320.546 310.538L320.842 310.933L320.472 310.735L323.186 311.007C324.075 311.13 324.963 311.377 325.851 311.55C326.732 311.753 327.598 312.017 328.442 312.339C329.284 312.673 330.108 313.052 330.909 313.475C331.699 313.919 332.439 314.462 333.204 314.955C333.969 315.449 334.611 316.14 335.203 316.806C335.838 317.454 336.416 318.156 336.93 318.904C337.475 319.629 337.962 320.397 338.386 321.199C338.841 321.991 339.237 322.816 339.57 323.667C339.94 324.469 340.262 325.293 340.533 326.134C340.841 326.942 341.104 327.766 341.322 328.602C341.569 329.466 341.791 330.354 341.964 331.218C342.678 334.732 343.197 338.283 343.518 341.854L343.642 342.298Z" fill="#AB6D29"/>
<path d="M148.79 391.605V408.88H85.3762C85.3762 408.88 82.1685 404.857 93.667 399.922C105.165 394.986 125.152 390.174 128.212 381.043C128.212 380.92 143.016 376.798 148.79 391.605Z" fill="#58595B"/>
<path d="M148.982 391.605C149.303 394.443 149.451 397.306 149.698 400.169C149.945 403.031 150.019 405.894 150.117 408.756C150.124 408.925 150.097 409.093 150.039 409.251C149.98 409.41 149.891 409.555 149.777 409.679C149.662 409.802 149.524 409.902 149.371 409.973C149.218 410.043 149.052 410.083 148.884 410.089C143.603 410.286 138.323 410.393 133.042 410.41C130.402 410.41 127.762 410.41 125.097 410.262L117.177 409.842C114.536 409.842 111.896 409.521 109.256 409.447C106.616 409.373 103.976 409.324 101.336 409.324C96.0551 409.324 90.7501 409.546 85.4697 409.793C85.312 409.799 85.1552 409.766 85.0132 409.697C84.8712 409.628 84.7483 409.526 84.6554 409.398C84.2166 408.751 83.9699 407.992 83.9437 407.211C83.9175 406.429 84.1129 405.656 84.5074 404.981C85.134 403.846 85.9715 402.841 86.9748 402.019C88.8507 400.572 90.8875 399.347 93.0448 398.367C94.1058 397.874 95.0681 397.429 96.1538 397.01L99.3368 395.751L105.604 393.283C109.725 391.63 113.846 390.026 117.72 388.052C118.682 387.583 119.619 387.065 120.508 386.522C121.372 385.98 122.196 385.378 122.975 384.72C123.769 384.125 124.505 383.456 125.171 382.721C125.443 382.326 125.788 381.981 126.035 381.586L126.652 380.377L126.824 380.056C126.917 379.871 127.049 379.709 127.211 379.581C127.373 379.453 127.561 379.363 127.762 379.316C128.349 379.187 128.942 379.088 129.539 379.02H131.241C132.378 378.983 133.517 379.032 134.646 379.168C135.787 379.302 136.911 379.55 138.002 379.908C138.545 380.056 139.063 380.328 139.606 380.525C140.125 380.745 140.627 381.001 141.111 381.29C141.628 381.541 142.116 381.847 142.567 382.203C143.011 382.549 143.48 382.845 143.899 383.24L145.084 384.424C145.479 384.844 145.775 385.312 146.12 385.757C146.75 386.659 147.311 387.608 147.798 388.595C148.031 389.081 148.229 389.585 148.39 390.1L148.933 391.63L148.982 391.605ZM148.612 391.605L147.823 390.273C147.575 389.806 147.303 389.353 147.008 388.915C146.43 388.039 145.778 387.213 145.059 386.448C144.716 386.083 144.353 385.737 143.973 385.411L142.789 384.473C142.376 384.187 141.948 383.923 141.506 383.684C140.638 383.216 139.729 382.828 138.792 382.524C138.325 382.363 137.847 382.239 137.361 382.154C135.43 381.752 133.448 381.66 131.488 381.882C130.99 381.912 130.495 381.978 130.008 382.08C129.549 382.158 129.095 382.265 128.65 382.401L129.761 381.339L128.996 383.166C128.675 383.758 128.28 384.251 127.935 384.794C127.57 385.31 127.157 385.789 126.701 386.226C126.301 386.697 125.854 387.127 125.369 387.509C124.456 388.289 123.492 389.006 122.482 389.656C121.495 390.297 120.483 390.89 119.447 391.457C117.421 392.535 115.337 393.499 113.204 394.345C111.107 395.258 108.96 395.998 106.838 396.812C102.545 398.293 98.3499 399.7 94.2292 401.279C92.295 402.048 90.4501 403.024 88.7267 404.191C87.9224 404.719 87.2202 405.388 86.6541 406.165C86.45 406.437 86.3124 406.752 86.2524 407.087C86.1924 407.421 86.2117 407.765 86.3086 408.09L85.4943 407.72C90.7747 407.942 96.0798 408.214 101.36 408.189C104 408.189 106.641 408.189 109.281 408.189C111.921 408.189 114.561 407.917 117.201 407.794L125.122 407.374C127.787 407.374 130.427 407.226 133.067 407.226C138.348 407.226 143.628 407.333 148.908 407.547L147.576 408.88C147.675 406.017 147.823 403.155 148.02 400.292C148.119 397.331 148.267 394.493 148.612 391.63V391.605Z" fill="#5B5863"/>
<path d="M338.484 322.754C338.484 322.754 336.609 322.112 333.944 320.903C333.278 320.582 332.562 320.262 331.822 319.867C331.168 319.502 330.46 319.244 329.724 319.102C329.035 319.051 328.348 319.234 327.775 319.62C327.009 320.084 326.29 320.621 325.628 321.224C324.806 321.901 323.902 322.473 322.939 322.927C321.86 323.402 320.654 323.506 319.509 323.223C318.595 322.972 317.716 322.608 316.894 322.137C316.153 321.767 315.438 321.372 314.821 321.027C313.374 320.275 311.966 319.451 310.602 318.559C310.602 318.559 312.551 318.929 315.364 319.793L317.609 320.508C318.361 320.793 319.137 321.007 319.929 321.15C320.628 321.267 321.347 321.155 321.977 320.829C322.743 320.426 323.456 319.928 324.099 319.349C324.873 318.7 325.698 318.114 326.566 317.596C327.618 317.016 328.838 316.816 330.021 317.029C330.987 317.295 331.893 317.747 332.685 318.361C333.376 318.83 334.018 319.324 334.61 319.743C337.028 321.421 338.484 322.754 338.484 322.754Z" fill="#955C1E"/>
<path d="M351.514 234.012C351.555 234.496 351.716 234.963 351.982 235.369C352.648 236.421 353.675 237.193 354.869 237.541C356.606 237.956 358.39 238.139 360.174 238.084C362.219 238.074 364.258 237.884 366.269 237.516C370.072 236.842 373.74 235.55 377.126 233.691C378.265 233.118 379.333 232.414 380.309 231.594C380.674 231.282 380.94 230.87 381.074 230.409C381.02 230.912 380.813 231.385 380.482 231.766C379.607 232.725 378.602 233.556 377.496 234.234C375.935 235.262 374.283 236.146 372.561 236.875C370.592 237.692 368.54 238.296 366.442 238.676C364.342 239.053 362.208 239.202 360.076 239.12C359.039 239.12 358.126 238.948 357.164 238.824C356.318 238.687 355.491 238.455 354.697 238.133C354.06 237.895 353.476 237.532 352.981 237.066C352.485 236.6 352.087 236.04 351.81 235.419C351.675 235.071 351.592 234.705 351.563 234.333C351.534 234.228 351.518 234.121 351.514 234.012Z" fill="#F13C6E"/>
<path d="M423.466 277.026C422.951 277.392 422.465 277.796 422.011 278.235C420.827 279.392 419.783 280.684 418.901 282.085C417.766 283.788 416.607 285.959 415.126 288.082C413.562 290.325 411.847 292.461 409.994 294.473C408.102 296.449 406.065 298.28 403.899 299.952C401.993 301.39 399.962 302.653 397.829 303.727C396.323 304.486 394.764 305.138 393.166 305.677L391.34 306.22L393.092 305.455C394.594 304.748 396.06 303.965 397.484 303.11C399.499 301.916 401.42 300.571 403.233 299.088C405.333 297.42 407.296 295.588 409.106 293.609C410.948 291.667 412.663 289.606 414.238 287.44C415.768 285.342 417.076 283.343 418.334 281.665C419.325 280.304 420.504 279.09 421.838 278.062C422.349 277.669 422.894 277.322 423.466 277.026Z" fill="#F13C6E"/>
<path d="M343.028 320.829C343.335 321.315 343.616 321.817 343.867 322.334C344.535 323.69 345.104 325.092 345.569 326.53C346.198 328.584 346.644 330.69 346.902 332.823C347.156 335.282 347.222 337.757 347.099 340.226C346.925 342.709 346.612 345.181 346.162 347.629C345.742 349.949 345.15 352.047 344.681 353.848C343.645 357.451 342.781 359.771 342.781 359.771C342.781 359.771 343.275 357.303 343.99 353.7C344.385 351.874 344.73 349.727 345.101 347.457C345.495 345.079 345.759 342.682 345.89 340.275C346.19 335.784 345.858 331.274 344.903 326.875C344.558 325.423 344.138 323.99 343.645 322.581L343.028 320.829Z" fill="#F13C6E"/>
<path d="M353.144 337.734C353.221 338.761 353.221 339.792 353.144 340.819C352.882 343.064 352.343 345.269 351.54 347.383C350.732 349.494 349.672 351.499 348.382 353.355C347.806 354.227 347.163 355.052 346.457 355.823C346.457 355.823 346.975 354.737 347.789 353.108C348.604 351.479 349.541 349.258 350.405 347.037C351.269 344.816 351.984 342.521 352.453 340.769L353.144 337.734Z" fill="#F13C6E"/>
<path d="M207.586 269.03C207.895 269.91 208.15 270.809 208.351 271.72C208.841 273.729 208.967 275.811 208.721 277.864C208.562 278.984 208.237 280.073 207.759 281.097C207.331 282.008 206.756 282.842 206.056 283.565C205.574 284.061 205.016 284.477 204.403 284.799L203.688 285.12L204.255 284.602C204.725 284.153 205.146 283.657 205.513 283.121C206.033 282.357 206.448 281.527 206.747 280.653C207.112 279.698 207.368 278.704 207.512 277.692C207.742 275.734 207.791 273.76 207.66 271.794C207.586 270.165 207.586 269.03 207.586 269.03Z" fill="#955C1E"/>
<path d="M217.037 270.585C217.266 271.614 217.316 272.674 217.186 273.72C216.885 276.039 216.04 278.255 214.718 280.185C214.052 281.21 213.309 282.183 212.497 283.097C211.708 283.961 210.918 284.701 210.227 285.343C209.439 286.035 208.616 286.686 207.76 287.292C207.76 287.292 208.5 286.281 209.66 284.825C210.252 284.134 210.893 283.27 211.584 282.357C212.275 281.444 212.966 280.506 213.608 279.469C214.801 277.637 215.723 275.643 216.347 273.547C216.675 272.585 216.907 271.593 217.037 270.585Z" fill="#955C1E"/>
<path d="M222.193 283.517C221.973 283.48 221.747 283.48 221.527 283.517C220.979 283.638 220.48 283.922 220.096 284.331C219.535 284.928 219.016 285.563 218.541 286.231C217.892 287.039 217.041 287.66 216.074 288.033C214.322 288.571 212.532 288.975 210.719 289.242C209.903 289.383 209.079 289.482 208.252 289.538C208.252 289.538 209.165 289.094 210.547 288.576C211.262 288.329 212.077 288.008 213.014 287.736C213.952 287.465 214.865 287.194 215.728 286.873C216.562 286.61 217.317 286.143 217.924 285.515C218.512 284.866 219.166 284.279 219.874 283.763C220.417 283.395 221.069 283.221 221.724 283.27C221.895 283.322 222.054 283.405 222.193 283.517Z" fill="#955C1E"/>
<path d="M138.594 262.935L138.865 263.601C139.076 264.195 139.232 264.806 139.334 265.428C139.476 266.317 139.526 267.218 139.482 268.117C139.39 269.147 139.192 270.164 138.89 271.153C138.541 272.133 138.095 273.075 137.558 273.966C137.064 274.722 136.485 275.417 135.83 276.039C135.392 276.488 134.903 276.885 134.375 277.224L133.758 277.594L134.202 277.051C134.597 276.585 134.967 276.099 135.312 275.595C136.36 274.116 137.191 272.496 137.78 270.783C138.045 269.826 138.251 268.853 138.397 267.871C138.541 267.055 138.624 266.231 138.643 265.403C138.683 264.795 138.683 264.185 138.643 263.577L138.594 262.935Z" fill="#844F15"/>
<path d="M148.641 270.93C148.374 271.014 148.129 271.157 147.925 271.35C147.411 271.872 147.008 272.493 146.741 273.176C146.298 274.189 145.744 275.149 145.088 276.038C144.323 277.066 143.408 277.973 142.373 278.728C140.459 280.168 138.191 281.064 135.81 281.319C135.039 281.392 134.262 281.392 133.491 281.319L132.627 281.196H133.491C134.23 281.086 134.963 280.938 135.687 280.752C137.842 280.115 139.864 279.095 141.658 277.741C143.444 276.384 144.966 274.711 146.149 272.806C146.547 272.114 147.116 271.536 147.802 271.127C148.057 270.983 148.348 270.914 148.641 270.93Z" fill="#844F15"/>
<path d="M150.415 284.38C149.863 284.609 149.294 284.79 148.712 284.923C147.441 285.216 146.142 285.365 144.838 285.368C143.536 285.376 142.238 285.244 140.964 284.973C140.382 284.854 139.812 284.68 139.262 284.454C139.262 284.454 139.977 284.454 141.038 284.282C142.099 284.109 143.506 284.282 144.838 284.134C146.171 283.986 147.602 284.134 148.638 284.134C149.674 284.134 150.415 284.38 150.415 284.38Z" fill="#844F15"/>
<path d="M136.723 374.282C137.484 374.083 138.292 374.17 138.993 374.528C140.457 375.352 141.721 376.49 142.694 377.86C143.691 379.118 144.622 380.428 145.482 381.784C146.198 382.894 146.617 383.708 146.617 383.708C146.617 383.708 145.902 383.141 144.939 382.228C143.977 381.315 142.768 380.007 141.633 378.649C140.732 377.368 139.698 376.185 138.549 375.121C138.151 374.803 137.7 374.561 137.216 374.405C137.055 374.353 136.89 374.311 136.723 374.282Z" fill="#955C1E"/>
<path d="M54.1836 372.505C54.8658 372.582 55.5317 372.765 56.1576 373.048C57.5294 373.688 58.7491 374.614 59.7354 375.762C61.0971 377.431 62.1348 379.339 62.7951 381.389C62.7951 381.389 62.2275 380.821 61.4626 379.908C60.6977 378.995 59.7107 377.761 58.6991 376.601C57.783 375.528 56.7667 374.545 55.6641 373.665C55.1953 373.319 54.8251 373.023 54.529 372.85L54.1836 372.505Z" fill="#844F15"/>
<path d="M295.205 281.986L296.093 282.973C296.636 283.639 297.475 284.503 298.561 285.441C299.697 286.618 300.891 287.739 302.139 288.797C303.52 289.932 305.026 291.117 306.605 292.202C308.184 293.288 309.813 294.3 311.367 295.164C312.922 296.028 314.451 296.817 315.784 297.36C317.116 297.903 318.251 298.397 319.016 298.693L320.275 299.162L318.942 298.915C317.787 298.691 316.649 298.386 315.537 298.002C313.938 297.494 312.379 296.867 310.874 296.126C307.393 294.467 304.203 292.259 301.423 289.587C300.208 288.437 299.078 287.199 298.043 285.885C297.297 284.971 296.605 284.016 295.97 283.022L295.205 281.986Z" fill="#F13C6E"/>
<path d="M305.398 284.972L306.015 285.268C306.385 285.465 306.928 285.687 307.57 285.959C309.157 286.622 310.812 287.11 312.505 287.415C314.131 287.723 315.784 287.872 317.44 287.859C318.131 287.859 318.747 287.859 319.142 287.859H319.808C319.086 288.218 318.324 288.491 317.538 288.673C315.773 289.048 313.949 289.048 312.184 288.673C310.418 288.33 308.739 287.633 307.249 286.625C306.562 286.158 305.94 285.602 305.398 284.972Z" fill="#F13C6E"/>
<path d="M391.736 258.32C392.033 258.641 392.355 258.938 392.699 259.208C393.604 259.878 394.637 260.357 395.734 260.615C399.145 261.137 402.605 261.278 406.048 261.034C407.948 261.034 409.848 261.034 411.649 261.034C413.25 261.163 414.859 261.163 416.46 261.034C417.578 260.913 418.674 260.639 419.717 260.22C420.126 260.041 420.521 259.835 420.902 259.603C420.574 259.907 420.219 260.179 419.841 260.417C418.84 261.041 417.738 261.483 416.584 261.725C413.097 262.244 409.57 262.442 406.048 262.318C404.123 262.318 402.248 262.318 400.422 262.318C398.744 262.251 397.083 261.952 395.487 261.429C394.362 261.028 393.341 260.378 392.501 259.529C392.222 259.142 391.967 258.738 391.736 258.32Z" fill="#F13C6E"/>
<path d="M407.923 236.752L407.553 237.344C407.281 237.739 406.985 238.282 406.615 238.924C405.745 240.501 405.018 242.152 404.444 243.859C403.877 245.593 403.48 247.379 403.259 249.19C403.259 249.93 403.087 250.572 403.062 251.016V251.707C402.815 250.905 402.666 250.076 402.618 249.239C402.481 247.32 402.716 245.393 403.309 243.563C403.926 241.76 404.871 240.087 406.097 238.627C406.625 237.929 407.239 237.299 407.923 236.752Z" fill="#F13C6E"/>
</svg>
