<svg width="493" height="391" viewBox="0 0 493 391" fill="none" xmlns="http://www.w3.org/2000/svg">
<circle cx="265.5" cy="184.5" r="181" stroke="#CFCFCF" stroke-width="5" stroke-dasharray="20 10"/>
<path d="M274.567 83.4673C273.067 80.463 270.136 77.7256 266.069 75.5299C262.001 73.3342 256.94 71.7576 251.394 70.9584C231.034 68 149.446 68 149.446 68C149.446 68 67.8368 68 47.5204 70.9584C41.9917 71.7644 36.9507 73.3442 32.9025 75.5397C28.8543 77.7351 25.9412 80.4689 24.4549 83.4673C19 94.4971 19 117.523 19 117.523C19 117.523 19 140.55 24.4549 151.579C25.9412 154.578 28.8543 157.312 32.9025 159.507C36.9507 161.702 41.9917 163.282 47.5204 164.088C67.8583 167 149.446 167 149.446 167C149.446 167 231.056 167 251.394 164.042C256.93 163.246 261.984 161.677 266.051 159.49C270.117 157.303 273.054 154.575 274.567 151.579C280 140.55 280 117.523 280 117.523C280 117.523 279.893 94.4971 274.567 83.4673Z" fill="#FAFAFA"/>
<path d="M93.0223 91.4678C92.4765 89.4346 91.4098 87.582 89.9293 86.096C88.4488 84.61 86.6066 83.543 84.5878 83.0021C77.1772 81 47.4805 81 47.4805 81C47.4805 81 17.7759 81 10.381 83.0021C8.36861 83.5476 6.53376 84.6168 5.06029 86.1026C3.58682 87.5884 2.52648 89.4386 1.98552 91.4678C0 98.9324 0 114.516 0 114.516C0 114.516 0 130.099 1.98552 137.564C2.52648 139.593 3.58682 141.443 5.06029 142.929C6.53376 144.415 8.36861 145.484 10.381 146.029C17.7837 148 47.4805 148 47.4805 148C47.4805 148 77.1851 148 84.5878 145.998C86.6029 145.46 88.4425 144.397 89.9227 142.917C91.4029 141.437 92.4717 139.591 93.0223 137.564C95 130.099 95 114.516 95 114.516C95 114.516 94.9609 98.9324 93.0223 91.4678Z" fill="#FF0000"/>
<path d="M38 129L63 114.5L38 100V129Z" fill="white"/>
<path d="M138.219 141.099C136.222 139.676 134.799 137.59 134.206 135.216C133.317 131.746 132.917 128.169 133.016 124.589V118.558C132.905 114.922 133.364 111.292 134.378 107.798C135.058 105.392 136.561 103.297 138.626 101.876C140.917 100.541 143.548 99.8943 146.2 100.014C149.282 100.014 151.752 100.645 153.609 101.907C155.602 103.365 157.042 105.453 157.693 107.829C158.657 111.321 159.092 114.938 158.984 118.558V124.589C159.086 128.184 158.662 131.774 157.724 135.247C157.101 137.626 155.658 139.711 153.648 141.138C151.76 142.379 149.209 143 145.996 143C142.689 143 140.097 142.366 138.219 141.099ZM148.75 134.585C149.272 133.24 149.533 131.03 149.533 127.955V115.044C149.533 112.06 149.274 109.886 148.75 108.507C148.587 107.907 148.227 107.378 147.729 107.004C147.23 106.63 146.62 106.433 145.996 106.442C145.382 106.441 144.786 106.644 144.3 107.018C143.814 107.391 143.467 107.915 143.313 108.507C142.788 109.886 142.53 112.06 142.53 115.044V127.97C142.53 131.04 142.791 133.25 143.313 134.601C143.467 135.196 143.819 135.721 144.312 136.091C144.806 136.46 145.41 136.652 146.027 136.634C146.645 136.64 147.247 136.443 147.74 136.072C148.232 135.701 148.588 135.178 148.75 134.585Z" fill="#282828"/>
<path d="M282.187 124.74V126.855C282.157 128.857 282.236 130.858 282.422 132.851C282.475 133.896 282.818 134.907 283.413 135.771C283.703 136.089 284.063 136.338 284.465 136.496C284.867 136.654 285.3 136.719 285.731 136.684C286.324 136.74 286.921 136.615 287.441 136.325C287.96 136.035 288.378 135.593 288.638 135.06C289.162 133.973 289.445 132.151 289.487 129.596L297.613 130.072C297.667 130.567 297.691 131.065 297.684 131.563C297.684 135.404 296.636 138.266 294.54 140.151C292.418 142.048 289.432 143 285.558 143C280.921 143 277.66 141.556 275.798 138.659C273.935 135.763 273 131.29 273 125.232V117.971C273 111.726 273.967 107.172 275.9 104.309C277.833 101.447 281.144 100.01 285.833 100C289.065 100 291.546 100.588 293.275 101.764C295.111 103.094 296.407 105.033 296.929 107.229C297.732 110.606 298.086 114.073 297.982 117.542V124.662L282.187 124.74ZM283.381 107.245C282.804 108.101 282.472 109.097 282.422 110.125C282.235 112.144 282.157 114.172 282.187 116.199V119.181H289.079V116.199C289.109 114.171 289.017 112.143 288.803 110.125C288.739 109.08 288.392 108.071 287.798 107.206C287.516 106.909 287.17 106.679 286.786 106.533C286.403 106.387 285.991 106.329 285.581 106.363C285.171 106.332 284.759 106.396 284.378 106.549C283.996 106.702 283.655 106.94 283.381 107.245Z" fill="#282828"/>
<path d="M114.754 124.534L104 86.0078H113.382L117.151 103.45C118.112 107.759 118.822 111.426 119.279 114.453H119.547C119.868 112.281 120.577 108.634 121.676 103.513L125.618 86H135L124.104 124.534V143H114.754V124.534Z" fill="#282828"/>
<path d="M189 101V142.325H181.479L180.678 137.266H180.47C178.424 141.084 175.362 142.995 171.282 143C168.452 143 166.364 142.1 165.018 140.3C163.673 138.507 163 135.691 163 131.873V101H172.612V131.338C172.524 132.68 172.737 134.025 173.237 135.28C173.426 135.654 173.725 135.966 174.097 136.176C174.469 136.386 174.897 136.485 175.327 136.459C176.191 136.442 177.029 136.171 177.73 135.683C178.447 135.227 179.022 134.592 179.396 133.844V101H189Z" fill="#282828"/>
<path d="M237 101V142.325H229.774L229.003 137.266H228.803C226.841 141.084 223.895 142.995 219.966 143C217.239 143 215.236 142.1 213.941 140.3C212.647 138.5 212 135.691 212 131.873V101H221.245V131.338C221.16 132.68 221.365 134.025 221.846 135.28C222.026 135.652 222.312 135.963 222.667 136.173C223.022 136.383 223.43 136.483 223.841 136.459C224.672 136.444 225.479 136.174 226.153 135.683C226.848 135.232 227.406 134.596 227.763 133.844V101H237Z" fill="#282828"/>
<path d="M214 93.5656H204.957V143H196.043V93.5656H187V86H214V93.5656Z" fill="#282828"/>
<path d="M268.129 107.823C267.571 105.236 266.657 103.351 265.403 102.192C263.968 100.963 262.111 100.337 260.222 100.446C258.521 100.445 256.858 100.947 255.444 101.891C253.999 102.836 252.829 104.144 252.053 105.684H251.991V84H243V142.392H250.674L251.611 138.53H251.812C252.538 139.919 253.662 141.062 255.042 141.813C256.496 142.613 258.135 143.021 259.796 142.995C261.258 143.051 262.704 142.669 263.946 141.898C265.189 141.127 266.171 140.002 266.766 138.669C268.242 135.78 268.983 131.271 268.988 125.142V118.63C269.064 115.008 268.776 111.388 268.129 107.823ZM259.61 124.609C259.647 126.963 259.523 129.317 259.239 131.654C259.141 132.947 258.715 134.194 258 135.277C257.722 135.623 257.367 135.9 256.964 136.086C256.561 136.272 256.121 136.363 255.677 136.351C254.935 136.357 254.205 136.174 253.555 135.818C252.898 135.435 252.361 134.875 252.006 134.204V110.851C252.271 109.805 252.823 108.852 253.601 108.101C254.259 107.431 255.154 107.045 256.095 107.028C256.518 107.015 256.938 107.11 257.314 107.303C257.691 107.496 258.012 107.782 258.248 108.132C258.891 109.273 259.26 110.548 259.324 111.856C259.558 114.331 259.659 116.817 259.626 119.302L259.61 124.609Z" fill="#282828"/>
<path d="M327.055 264.169L297.654 235.159L350.093 145.529C355.559 139.291 362.479 134.491 370.242 131.552L388.713 124.546L434.62 116.167L467.211 128.954C471.217 130.531 474.588 133.387 476.796 137.077C479.004 140.766 479.926 145.082 479.419 149.35L470.889 220.98L465.851 314.263L347.406 293.766L359.311 259.259L358.925 205.461L327.055 264.169Z" fill="#FD3E72"/>
<path d="M358.255 256.963C357.969 256.963 357.902 238.327 358.087 215.35C358.272 192.372 358.658 173.736 358.926 173.736C359.195 173.736 359.279 192.372 359.094 215.366C358.91 238.36 358.524 256.98 358.255 256.963Z" fill="#EF2F63"/>
<path d="M362.587 270.638L434.168 241.879C436.996 240.743 439.45 238.84 441.251 236.385C443.052 233.929 444.129 231.02 444.36 227.986L449.599 159.49C449.599 159.49 448.978 130.362 467.213 128.954L477.573 133.027C491.006 140.133 494.364 159.607 492.483 174.64C489.881 196.009 488.806 226.243 485.901 244.795C483.534 259.879 474.399 271.962 459.942 277.208L371.788 296.264L362.587 270.638Z" fill="#FD3E72"/>
<path d="M448.574 169.948C448.451 170.46 448.372 170.981 448.339 171.506C448.238 172.624 448.087 174.132 447.885 176.031C447.516 180.037 447.012 185.685 446.374 192.64C445.736 199.595 445.048 208.025 444.258 217.276C444.057 219.589 443.855 221.969 443.654 224.399C443.513 226.859 443.204 229.305 442.73 231.723C442.252 234.177 441.02 236.42 439.204 238.142C437.213 239.878 434.942 241.266 432.488 242.248C412.758 250.779 394.573 257.818 381.359 262.745L365.692 268.51L361.427 270.085C360.924 270.244 360.435 270.446 359.967 270.689C360.486 270.588 360.997 270.448 361.495 270.27L365.81 268.862C369.554 267.622 374.961 265.761 381.594 263.382C394.875 258.605 413.094 251.65 432.891 243.119C435.417 242.088 437.764 240.662 439.842 238.896C441.789 237.037 443.119 234.627 443.654 231.991C444.131 229.53 444.434 227.037 444.561 224.533C444.762 222.103 444.947 219.723 445.132 217.41C445.854 208.143 446.492 199.796 447.046 192.741C447.6 185.685 447.969 180.121 448.255 176.098C448.372 174.205 448.473 172.747 448.54 171.573C448.595 171.033 448.606 170.49 448.574 169.948Z" fill="#E92F61"/>
<path d="M458.969 255.103C458.79 253.763 458.351 252.47 457.676 251.299C456.206 248.369 454.164 245.762 451.67 243.632C449.175 241.502 446.279 239.892 443.151 238.897C441.89 238.427 440.551 238.2 439.206 238.226C440.434 238.736 441.69 239.178 442.967 239.55C445.875 240.718 448.574 242.348 450.959 244.377C453.357 246.44 455.394 248.887 456.987 251.617C458.297 253.729 458.818 255.153 458.969 255.103Z" fill="#E92F61"/>
<g opacity="0.3">
<path opacity="0.3" d="M383.157 262.477C390.814 258.17 398.269 254.851 406.295 251.214C414.321 247.578 422.146 242.935 427.452 235.879C437.325 222.606 436.2 203.416 446.309 190.311C445.648 199.126 444.988 207.941 444.327 216.757C443.723 224.835 444.965 232.829 439.743 238.326C435.361 242.952 426.78 246.505 420.719 248.499C408.528 252.505 395.414 258.555 383.224 262.477" fill="black"/>
</g>
<g opacity="0.3">
<path opacity="0.3" d="M358.928 178.78L352.732 216.908L358.592 206.098L358.928 178.78Z" fill="black"/>
</g>
<path d="M363.074 141.959C361.992 146.38 361.151 150.856 360.556 155.367C359.745 159.801 359.184 164.278 358.876 168.775C359.959 164.354 360.8 159.878 361.395 155.367C362.217 150.934 362.778 146.458 363.074 141.959Z" fill="#EF2F63"/>
<path d="M283.316 356.749C283.316 356.749 228.291 371.949 226.091 372.72C222.733 373.893 223.337 386.01 228.492 385.826C230.927 385.726 270.739 387.301 275.776 386.983C280.814 386.664 295.926 380.698 295.926 380.698L283.316 356.749Z" fill="#5B5863"/>
<path d="M260.396 377.698C259.699 375.692 258.886 373.727 257.961 371.815C256.776 370.059 255.48 368.38 254.082 366.788C256.035 367.863 257.655 369.452 258.768 371.381C259.881 373.31 260.444 375.506 260.396 377.731V377.698Z" fill="#7E7C85"/>
<path d="M266.121 375.1C265.852 375.1 265.298 372.553 263.837 369.687C262.377 366.821 260.647 364.81 260.832 364.659C262.552 365.781 263.888 367.401 264.66 369.302C265.71 371.048 266.219 373.066 266.121 375.1Z" fill="#7E7C85"/>
<path d="M271.512 373.676C271.232 371.707 270.799 369.763 270.219 367.86C269.357 366.076 268.358 364.361 267.23 362.732C268.972 363.907 270.315 365.583 271.079 367.538C271.844 369.493 271.995 371.634 271.512 373.676Z" fill="#7E7C85"/>
<path d="M270.537 366.57C270.047 365.271 269.846 363.881 269.949 362.497C269.957 360.983 270.143 359.476 270.504 358.005C270.718 357.14 270.987 356.289 271.31 355.458C271.482 354.94 271.789 354.478 272.199 354.117C272.473 353.907 272.813 353.801 273.158 353.819C273.504 353.838 273.831 353.979 274.08 354.218C274.507 354.625 274.769 355.173 274.819 355.76C274.852 356.245 274.852 356.732 274.819 357.218C274.813 358.122 274.7 359.022 274.483 359.899C274.124 361.373 273.559 362.789 272.804 364.106C272.209 365.374 271.37 366.513 270.336 367.458C270.218 367.374 271.142 366.083 272.233 363.854C272.877 362.554 273.362 361.181 273.677 359.765C273.855 358.939 273.945 358.096 273.946 357.251C273.946 356.413 273.946 355.357 273.425 354.955C273.328 354.862 273.199 354.81 273.064 354.81C272.93 354.81 272.8 354.862 272.703 354.955C272.431 355.229 272.224 355.562 272.099 355.927C271.77 356.712 271.495 357.518 271.276 358.341C270.887 359.743 270.639 361.18 270.537 362.631C270.436 364.994 270.688 366.553 270.537 366.57Z" fill="#7E7C85"/>
<path d="M270.605 366.016C271.724 365.548 272.938 365.353 274.148 365.447C275.466 365.447 276.779 365.605 278.06 365.916C278.84 366.092 279.591 366.374 280.294 366.754C280.746 366.976 281.113 367.341 281.338 367.793C281.563 368.244 281.632 368.756 281.536 369.251C281.412 369.725 281.163 370.157 280.815 370.502C280.466 370.847 280.031 371.092 279.555 371.212C278.745 371.422 277.896 371.422 277.086 371.212C274.641 370.473 272.494 368.976 270.958 366.938C271.986 367.528 272.969 368.194 273.896 368.933C274.915 369.623 276.054 370.117 277.254 370.391C277.922 370.55 278.618 370.55 279.286 370.391C279.606 370.311 279.899 370.148 280.134 369.918C280.37 369.688 280.541 369.4 280.629 369.083C280.682 368.774 280.63 368.456 280.481 368.18C280.332 367.903 280.094 367.685 279.807 367.558C279.179 367.207 278.507 366.942 277.808 366.771C276.603 366.428 275.365 366.214 274.114 366.134C271.965 365.949 270.622 366.167 270.605 366.016Z" fill="#7E7C85"/>
<path d="M251.933 378.284C251.718 376.609 251.358 374.954 250.858 373.34C250.079 371.832 249.175 370.391 248.155 369.033C248.997 369.399 249.751 369.942 250.366 370.625C250.98 371.307 251.44 372.113 251.715 372.988C252.134 373.802 252.371 374.698 252.409 375.612C252.446 376.527 252.284 377.439 251.933 378.284Z" fill="#7E7C85"/>
<path d="M290.316 380.832C289.646 381.231 288.937 381.562 288.201 381.821C286.205 382.596 284.157 383.229 282.072 383.715C275.177 385.224 268.123 385.894 261.066 385.709C252.822 385.608 245.4 385.24 240.01 385.022L233.629 384.687C232.845 384.684 232.062 384.6 231.295 384.435C232.073 384.317 232.861 384.284 233.646 384.335H240.027L261.083 384.754C268.074 384.94 275.066 384.378 281.938 383.078C287.193 382.005 290.266 380.648 290.316 380.832Z" fill="#7E7C85"/>
<path d="M291.947 382.072C291.947 382.206 290.369 381.318 287.833 380.212C284.588 378.695 280.982 378.114 277.423 378.536C273.921 379.297 270.763 381.173 268.423 383.882C267.439 385.03 266.379 386.111 265.249 387.117C265.983 385.773 266.892 384.533 267.953 383.429C269.037 382.179 270.259 381.055 271.596 380.078C273.272 378.842 275.217 378.021 277.272 377.681C280.996 377.214 284.774 377.911 288.085 379.675C289.492 380.265 290.796 381.074 291.947 382.072Z" fill="#7E7C85"/>
<path d="M348.415 344.011C348.415 344.011 400.468 377.999 402.264 379.424C405.069 381.552 401.845 391.608 396.992 389.865C394.692 389.044 351.018 376.91 346.316 375.1C341.615 373.29 329.055 362.916 329.055 362.916L348.415 344.011Z" fill="#5B5863"/>
<path d="M363.88 370.91C364.358 368.71 365.586 366.743 367.356 365.346C368.918 363.72 370.993 362.679 373.232 362.396C371.404 363.495 369.648 364.709 367.977 366.033C366.514 367.575 365.146 369.204 363.88 370.91Z" fill="#7E7C85"/>
<path d="M359.194 366.704C359.861 364.788 360.945 363.042 362.367 361.594C363.79 360.145 365.516 359.028 367.422 358.324C367.556 358.559 365.273 360 363.04 362.229C360.806 364.458 359.446 366.821 359.194 366.704Z" fill="#7E7C85"/>
<path d="M354.51 363.704C354.664 361.598 355.461 359.59 356.795 357.951C358.128 356.312 359.932 355.12 361.965 354.536C360.387 355.737 358.91 357.066 357.549 358.508C356.399 360.157 355.383 361.894 354.51 363.704Z" fill="#263238"/>
<path d="M357.6 357.235C357.465 357.235 358.171 355.76 358.775 353.346C359.128 351.936 359.336 350.492 359.396 349.039C359.454 348.186 359.454 347.329 359.396 346.475C359.4 346.095 359.308 345.721 359.128 345.386C359.049 345.274 358.932 345.195 358.799 345.164C358.666 345.133 358.526 345.152 358.406 345.218C357.818 345.453 357.499 346.475 357.23 347.263C356.972 348.07 356.798 348.901 356.71 349.743C356.589 351.185 356.634 352.636 356.844 354.067C357.214 356.531 357.7 358.022 357.549 358.073C356.865 356.865 356.409 355.541 356.206 354.168C355.883 352.688 355.77 351.17 355.87 349.659C355.939 348.757 356.102 347.864 356.357 346.995C356.497 346.53 356.671 346.076 356.878 345.637C357.1 345.093 357.511 344.647 358.036 344.38C358.349 344.227 358.706 344.193 359.042 344.282C359.379 344.371 359.671 344.579 359.867 344.866C360.149 345.331 360.3 345.864 360.303 346.408C360.37 347.301 360.37 348.197 360.303 349.09C360.204 350.597 359.928 352.088 359.48 353.531C359.129 354.886 358.487 356.15 357.6 357.235Z" fill="#263238"/>
<path d="M357.699 356.682C357.699 356.816 356.423 356.196 354.341 355.693C353.12 355.394 351.87 355.225 350.613 355.19C349.9 355.142 349.183 355.187 348.481 355.324C348.167 355.358 347.873 355.494 347.645 355.713C347.417 355.931 347.268 356.219 347.222 356.531C347.204 356.864 347.277 357.197 347.434 357.492C347.591 357.787 347.825 358.034 348.111 358.207C348.694 358.575 349.356 358.799 350.042 358.86C351.275 358.963 352.516 358.838 353.703 358.492C354.8 358.087 355.922 357.751 357.061 357.486C356.106 358.24 355.018 358.808 353.854 359.162C352.602 359.64 351.262 359.84 349.925 359.749C349.091 359.705 348.283 359.451 347.574 359.011C347.157 358.754 346.817 358.389 346.59 357.956C346.363 357.522 346.256 357.036 346.281 356.548C346.341 356.044 346.563 355.574 346.914 355.208C347.266 354.842 347.727 354.6 348.229 354.52C349.016 354.38 349.818 354.346 350.613 354.419C351.927 354.502 353.224 354.749 354.475 355.156C355.658 355.398 356.764 355.921 357.699 356.682Z" fill="#263238"/>
<path d="M390.51 388.055C390.51 388.139 389.637 387.536 389.234 386.044C388.816 384.106 389.165 382.083 390.208 380.396C390.706 379.497 391.267 378.634 391.887 377.815C392.362 377.113 392.926 376.477 393.566 375.921C394.045 375.527 394.629 375.282 395.246 375.217C395.682 375.217 395.9 375.318 395.9 375.368C395.197 375.566 394.548 375.921 394.003 376.407C393.443 376.987 392.942 377.621 392.509 378.301C391.971 379.089 391.384 379.977 390.829 380.848C389.905 382.354 389.504 384.121 389.688 385.876C389.919 386.618 390.194 387.346 390.51 388.055Z" fill="#7E7C85"/>
<path d="M371.754 374.028C371.766 372.206 372.412 370.446 373.583 369.048C374.753 367.651 376.374 366.703 378.168 366.369C376.782 367.374 375.484 368.495 374.289 369.721C373.324 371.082 372.476 372.523 371.754 374.028Z" fill="#7E7C85"/>
<path d="M334.41 364.81C335.209 365.278 335.972 365.805 336.693 366.385C338.753 367.816 340.895 369.125 343.108 370.307C346.406 372.04 349.817 373.552 353.317 374.832C357.246 376.307 361.712 377.681 366.347 379.039C375.716 381.737 384.196 384.201 390.308 386.028L397.545 388.24C398.443 388.479 399.319 388.793 400.164 389.178C399.241 389.066 398.331 388.87 397.444 388.592L390.123 386.648C383.961 384.972 375.464 382.625 366.095 379.944C361.41 378.586 356.96 377.162 353.014 375.653C349.5 374.316 346.088 372.725 342.805 370.894C340.594 369.649 338.479 368.243 336.475 366.687C335.729 366.128 335.037 365.499 334.41 364.81Z" fill="#7E7C85"/>
<path d="M332.481 365.514C333.883 364.896 335.373 364.5 336.897 364.341C340.592 363.645 344.412 364.113 347.828 365.681C349.681 366.603 351.287 367.954 352.513 369.62C353.49 370.974 354.307 372.436 354.947 373.977C355.626 375.341 356.117 376.79 356.408 378.284C355.621 376.994 354.936 375.643 354.36 374.245C352.957 370.956 350.516 368.213 347.408 366.436C344.144 364.964 340.53 364.441 336.981 364.927C334.21 365.279 332.514 365.665 332.481 365.514Z" fill="#7E7C85"/>
<path d="M240.195 259.007C240.195 259.007 224.58 264.571 224.512 282.051C224.395 315.57 292.299 352.441 292.299 352.441L382.652 292.526L388.311 290.247C388.311 290.247 266.255 244.577 240.195 259.007Z" fill="#9E5F1A"/>
<path d="M336.879 322.777C336.05 322.285 335.263 321.724 334.528 321.101C333.051 320.028 330.935 318.436 328.349 316.442C323.177 312.453 316.125 306.788 308.552 300.303C300.979 293.817 294.313 287.733 289.578 283.225C287.211 280.979 285.33 279.135 284.037 277.828C283.328 277.199 282.681 276.503 282.106 275.75C282.889 276.29 283.62 276.901 284.289 277.577L290.031 282.755C294.867 287.13 301.601 293.13 309.157 299.615C316.713 306.101 323.681 311.816 328.752 315.939L334.746 320.816C335.513 321.407 336.226 322.063 336.879 322.777Z" fill="#8E5516"/>
<path d="M265.701 271.443C268.626 270.974 271.622 271.245 274.416 272.231C277.291 272.925 279.95 274.318 282.156 276.286C282.005 276.521 278.798 274.426 274.147 273.102C269.496 271.778 265.701 271.728 265.701 271.443Z" fill="#455A64"/>
<path d="M273.494 266.164C275.579 267.039 277.416 268.415 278.839 270.169C280.263 271.923 281.23 274.002 281.654 276.22C281.402 276.32 280.412 273.505 278.128 270.723C275.845 267.941 273.343 266.399 273.494 266.164Z" fill="#455A64"/>
<path d="M235.227 372.167C235.227 372.067 236.318 371.849 237.561 372.871C239.03 374.254 239.958 376.114 240.18 378.117C240.461 380.078 240.176 382.078 239.357 383.882C238.702 385.256 238.014 385.893 237.93 385.826C238.152 385.081 238.427 384.353 238.753 383.647C239.343 381.907 239.516 380.053 239.257 378.234C239.052 376.432 238.309 374.732 237.124 373.357C236.167 372.352 235.21 372.318 235.227 372.167Z" fill="#7E7C85"/>
<path d="M246.66 211.377L272.367 280.493C273.097 282.411 274.397 284.061 276.092 285.22C277.788 286.379 279.799 286.993 281.854 286.979L423.354 285.119V274.393L370.847 276.304L348.532 207.322C348.17 206.181 347.451 205.187 346.481 204.484C345.511 203.781 344.341 203.407 343.142 203.417L251.882 203.668C250.964 203.676 250.062 203.906 249.254 204.338C248.445 204.771 247.754 205.394 247.24 206.152C246.726 206.911 246.405 207.783 246.304 208.693C246.203 209.604 246.325 210.525 246.66 211.377Z" fill="#5B5863"/>
<path d="M246.66 211.377C246.665 211.304 246.665 211.232 246.66 211.159C246.66 211.008 246.542 210.807 246.492 210.505C246.282 209.658 246.282 208.772 246.492 207.924C246.866 206.534 247.754 205.336 248.977 204.573C249.754 204.097 250.636 203.821 251.546 203.768C252.52 203.768 253.578 203.768 254.686 203.768H292.768H319.45H334.444H342.302C343.612 203.636 344.929 203.924 346.064 204.589C347.192 205.303 348.026 206.397 348.414 207.673C355.131 228.539 362.637 251.734 370.629 276.538V276.705H370.797L423.303 274.795L423.068 274.577V285.303L423.303 285.085L334.31 286.275L295.69 286.794L286.774 286.929H282.442C281.043 287.018 279.642 286.813 278.328 286.325C277.054 285.863 275.891 285.139 274.913 284.201C273.936 283.263 273.166 282.131 272.653 280.878C271.712 278.364 270.794 275.912 269.899 273.521C262.712 254.315 256.936 238.812 252.923 228.086L248.305 215.785C247.231 212.969 246.626 211.511 246.626 211.511C246.626 211.511 247.147 213.003 248.188 215.818L252.721 228.153L269.513 273.622C270.408 276.035 271.326 278.499 272.266 281.012C272.795 282.309 273.59 283.481 274.599 284.454C275.608 285.427 276.81 286.178 278.126 286.66C279.48 287.151 280.92 287.362 282.358 287.28H286.69L295.606 287.163L334.226 286.677L423.219 285.537H423.438V274.091H423.202L370.696 276.018L370.915 276.169C362.905 251.365 355.383 228.17 348.65 207.321C348.251 205.933 347.354 204.74 346.131 203.969C344.937 203.264 343.548 202.959 342.168 203.098H334.427H319.433L292.752 203.198L254.669 203.366C253.561 203.366 252.52 203.366 251.529 203.366C250.349 203.46 249.228 203.922 248.324 204.685C247.421 205.449 246.78 206.476 246.492 207.623C246.269 208.486 246.269 209.391 246.492 210.254C246.52 210.632 246.576 211.007 246.66 211.377Z" fill="#263238"/>
<path d="M309.41 237.505C308.314 236.954 307.081 236.73 305.859 236.861C304.638 236.992 303.481 237.472 302.526 238.243C301.72 239.007 301.161 239.995 300.921 241.08C300.682 242.164 300.773 243.294 301.183 244.327C301.627 245.345 302.346 246.221 303.259 246.857C304.172 247.493 305.243 247.864 306.355 247.93C307.533 248.004 308.704 247.692 309.689 247.042C310.674 246.392 311.419 245.438 311.812 244.327C312.466 242.064 311.812 238.695 309.41 237.505Z" fill="white"/>
<path d="M277.053 356.112C277.053 356.112 404.583 274.594 410.208 271.393C414.993 268.678 427.805 260.801 440.432 264.27C453.059 267.739 464.393 279.119 470.068 295.577C473.292 305.012 475.277 321.417 475.999 333.5C476.967 347.948 471.82 361.908 462.462 372.972C458.303 378.129 452.793 382.033 446.544 384.251C445.217 384.653 443.824 385.022 442.413 385.324C418.284 390.553 393.467 379.726 379.916 359.129L376.927 354.604C376.927 354.604 293.425 385.223 292.115 384.771L277.053 356.112Z" fill="#AB6D29"/>
<path d="M403.625 275.901C403.625 275.901 403.743 275.901 403.944 275.716L404.834 275.113C405.624 274.577 406.765 273.772 408.193 272.8C412.433 270.008 416.98 267.709 421.743 265.946C425.018 264.736 428.451 264.008 431.935 263.784C435.943 263.619 439.942 264.269 443.689 265.694C447.815 267.301 451.628 269.615 454.956 272.532C456.746 274.046 458.429 275.681 459.994 277.426C461.566 279.247 462.955 281.217 464.141 283.308C466.482 287.454 468.33 291.858 469.648 296.431C470.841 300.872 471.815 305.247 472.721 309.403C474.405 316.735 475.389 324.209 475.66 331.727C475.749 336.78 475.361 341.83 474.501 346.81C474.216 348.587 473.897 349.944 473.712 350.883C473.622 351.307 473.555 351.659 473.51 351.938C473.488 352.06 473.488 352.185 473.51 352.307C473.566 352.196 473.605 352.077 473.628 351.955C473.628 351.67 473.796 351.335 473.913 350.916C474.148 349.994 474.518 348.637 474.837 346.86C475.817 341.859 476.29 336.772 476.247 331.676C476.043 324.14 475.104 316.641 473.443 309.286C472.537 305.113 471.596 300.755 470.387 296.247C469.075 291.616 467.209 287.159 464.829 282.973C463.627 280.835 462.209 278.825 460.598 276.973C459.043 275.178 457.36 273.498 455.561 271.946C452.165 268.98 448.271 266.636 444.059 265.024C440.221 263.587 436.13 262.948 432.036 263.147C428.497 263.398 425.013 264.16 421.693 265.409C416.948 267.25 412.438 269.647 408.26 272.549C406.765 273.554 405.64 274.392 404.902 274.962L404.045 275.633L403.625 275.901Z" fill="#9A5D1B"/>
<path d="M434.99 333.118C434.766 333.231 434.536 333.331 434.302 333.42L432.203 334.241L424.093 337.358L394.037 348.671C381.258 353.431 365.945 359.078 348.784 365.313C331.624 371.547 312.582 378.385 292.248 385.257L291.896 385.374L291.711 385.039C288.521 378.955 285.146 372.536 281.737 366.017L276.7 356.33L276.498 355.961L276.851 355.727L374.24 294.035L403.49 275.6L411.382 270.739L413.464 269.466C413.934 269.181 414.186 269.063 414.186 269.063L413.497 269.549C413.011 269.868 412.339 270.304 411.483 270.89L403.624 275.918L374.525 294.571L277.304 356.581L277.455 355.995C279.134 359.062 280.813 362.363 282.493 365.682L292.517 384.704L291.963 384.469C312.28 377.547 331.321 370.743 348.532 364.592L393.869 348.135L424.093 337.073L432.153 334.09L434.268 333.336C434.504 333.248 434.745 333.175 434.99 333.118Z" fill="#9A5D1B"/>
<path d="M428.39 62.6369C430.783 58.3549 432.687 53.8182 434.065 49.112C435.436 44.3642 435.17 39.2945 433.31 34.7156C432.118 32.1011 430.254 29.8219 429.314 27.1068C428.037 23.3862 428.558 18.9785 426.241 15.7942C422.631 10.7664 414.89 11.9563 409.315 9.34182C404.95 7.29717 401.91 2.90619 397.343 1.44812C393.33 0.157644 388.948 1.44812 385.119 3.12407C381.291 4.80001 377.479 6.87818 373.365 7.41448C370.379 7.58213 367.385 7.58213 364.399 7.41448C361.375 7.26456 358.409 8.28515 356.121 10.2636C354.005 12.392 353.569 16.297 355.852 18.2411C350.613 17.3528 345.677 22.565 345.777 27.8778C345.878 33.1905 349.858 37.9334 354.677 40.0451C359.496 42.1568 365.02 42.3914 370.326 41.9892C385.321 40.8161 400.382 35.1346 410.625 24.1069" fill="#5B5863"/>
<path d="M425.168 43.9168L435.377 118.027C435.781 121.01 435.575 124.044 434.77 126.944C433.966 129.845 432.579 132.553 430.695 134.903C428.812 137.254 426.469 139.198 423.81 140.618C421.152 142.039 418.232 142.905 415.227 143.166C409.53 143.659 403.861 141.949 399.39 138.391C394.919 134.833 391.987 129.697 391.199 124.044C390.444 118.48 389.789 113.82 389.671 113.251C389.671 113.251 370.529 114.072 366.6 95.5862C364.686 86.6534 362.268 67.9499 360.287 50.9893C359.272 42.2136 361.602 33.3782 366.812 26.2373C372.022 19.0963 379.732 14.1722 388.412 12.4426L390.192 12.0906C409.737 9.29182 422.968 24.3753 425.168 43.9168Z" fill="#FFA68A"/>
<path d="M389.586 112.999C398.196 111.438 406.145 107.354 412.422 101.268C412.422 101.268 409.366 115.748 390.593 117.776L389.586 112.999Z" fill="#EB996E"/>
<path d="M426.393 57.894C426.679 57.6929 438.399 51.5757 440.532 64.3296C442.664 77.0836 429.399 76.5808 429.315 76.2288C429.231 75.8769 426.393 57.894 426.393 57.894Z" fill="#FFA68A"/>
<path d="M432.406 70.7987C432.406 70.7987 432.658 70.916 433.061 71.0166C433.629 71.1636 434.233 71.0792 434.74 70.7819C436.016 70.0613 436.788 67.7317 436.419 65.4189C436.267 64.3231 435.871 63.2751 435.26 62.3519C435.078 61.9734 434.804 61.6454 434.465 61.397C434.125 61.1486 433.729 60.9873 433.313 60.9274C433.044 60.9007 432.775 60.968 432.552 61.1179C432.328 61.2678 432.164 61.4908 432.087 61.7486C431.986 62.1341 432.087 62.3687 432.087 62.4022C432.087 62.4357 431.785 62.2346 431.801 61.6983C431.81 61.3668 431.942 61.0504 432.171 60.8101C432.323 60.6507 432.505 60.5227 432.707 60.4336C432.908 60.3444 433.126 60.2958 433.346 60.2905C433.887 60.3044 434.414 60.4566 434.879 60.7325C435.343 61.0083 435.729 61.3986 435.999 61.8659C436.72 62.8867 437.186 64.0646 437.359 65.3016C437.712 67.8826 436.788 70.497 435.042 71.3518C434.713 71.5046 434.355 71.5838 433.993 71.5838C433.63 71.5838 433.272 71.5046 432.943 71.3518C432.49 71.1004 432.372 70.8155 432.406 70.7987Z" fill="#EF987D"/>
<path d="M356.609 33.7776C358.791 38.487 370.041 40.3138 378.32 37.8166C385.943 35.5206 388.696 30.6939 393.549 26.4872C396.622 23.8225 396.622 23.8225 401.609 23.3197C405.622 22.9007 408.98 26.923 411.969 29.5877C410.29 39.7272 414.773 49.6991 419.173 59.0341C419.54 60.1206 420.269 61.049 421.238 61.6653C422.917 62.5201 425.033 61.1793 426.074 59.5536C427.531 56.8083 428.15 53.6968 427.854 50.6041C427.83 43.5474 426.391 36.5668 423.622 30.0738C420.831 23.5673 416.19 18.0202 410.273 14.1188C402.67 9.4852 393.563 7.97714 384.868 9.91216C376.22 11.9359 368.429 16.627 362.603 23.3197C359.759 26.2758 357.698 29.8933 356.609 33.8446" fill="#5B5863"/>
</svg>
