<svg width="601" height="601" viewBox="0 0 601 601" fill="none" xmlns="http://www.w3.org/2000/svg">
<circle opacity="0.3" r="300.184" transform="matrix(-1 0 0 1 300.816 300.816)" fill="white"/>
<ellipse opacity="0.2" rx="233.864" ry="233.515" transform="matrix(-1 0 0 1 299.42 302.561)" fill="white"/>
<g filter="url(#filter0_d)">
<path d="M507.693 128.615H69.3821C67.1706 128.615 65.3778 130.585 65.3778 133.016V415.169C65.3778 417.6 67.1706 419.57 69.3821 419.57H507.693C509.904 419.57 511.697 417.6 511.697 415.169V133.016C511.697 130.585 509.904 128.615 507.693 128.615Z" fill="#455A64"/>
<path d="M511.697 150.605H65.3778V419.903H511.697V150.605Z" fill="white"/>
<mask id="mask0" style="mask-type:alpha" maskUnits="userSpaceOnUse" x="65" y="180" width="447" height="240">
<path d="M75.3776 180.547H501.38C506.903 180.547 511.38 185.024 511.38 190.547V409.841C511.38 415.363 506.903 419.841 501.38 419.841H75.3776C69.8548 419.841 65.3776 415.363 65.3776 409.841V190.547C65.3776 185.024 69.8548 180.547 75.3776 180.547Z" fill="white"/>
</mask>
<g mask="url(#mask0)">
<rect x="340.311" y="362.817" width="73.3155" height="22.402" rx="11.201" fill="#FDB9CC"/>
<rect x="340.311" y="208.04" width="132.375" height="19.3472" rx="5" fill="#EDEDED"/>
<rect x="340.311" y="233.497" width="89.6079" height="19.3472" rx="5" fill="#EDEDED"/>
<rect x="340.311" y="269.136" width="89.6079" height="8.14617" rx="4.07308" fill="#EDEDED"/>
<rect x="340.311" y="284.41" width="61.0963" height="8.14617" rx="4.07308" fill="#EDEDED"/>
<rect x="406.498" y="284.41" width="61.0963" height="8.14617" rx="4.07308" fill="#EDEDED"/>
<rect x="340.311" y="299.684" width="15.2741" height="8.14617" rx="4.07308" fill="#EDEDED"/>
<rect x="360.676" y="299.684" width="98.7723" height="8.14617" rx="4.07308" fill="#EDEDED"/>
<rect x="341.329" y="314.958" width="103.864" height="8.14617" rx="4.07308" fill="#EDEDED"/>
<rect x="341.329" y="330.232" width="37.676" height="8.14617" rx="4.07308" fill="#EDEDED"/>
<rect x="387.151" y="330.232" width="19.3472" height="8.14617" rx="4.07308" fill="#EDEDED"/>
<rect x="464.54" y="299.684" width="23.4202" height="8.14617" rx="4.07308" fill="#EDEDED"/>
<rect x="435.01" y="269.135" width="52.9501" height="8.14617" rx="4.07308" fill="#EDEDED"/>
<ellipse rx="176.161" ry="160.378" transform="matrix(-1 0 0 1 126.474 296.12)" fill="#FFF7F9"/>
<g filter="url(#filter1_d)">
<g filter="url(#filter2_d)">
<path d="M261.528 248.494C261.528 248.494 251.323 330.176 234.557 348.554C214.399 370.603 199.802 366.675 191.697 378.047C183.571 366.661 168.96 370.603 148.816 348.541C132.05 330.162 121.866 248.48 121.866 248.48C153.621 215.324 191.697 202.992 191.697 202.992C192.461 203.763 229.464 216.557 261.528 248.494Z" fill="#FD3E72"/>
</g>
<g filter="url(#filter3_d)">
<path d="M261.526 248.492C261.526 248.492 251.322 330.174 234.556 348.552C214.398 370.601 199.801 366.673 191.696 378.045L191.696 344.987L191.696 254.884L191.696 202.99C192.46 203.761 229.463 216.555 261.526 248.492Z" fill="#E32D5F"/>
</g>
<path d="M250.748 255.08C250.748 255.08 242.129 324.077 227.969 339.613C210.953 358.262 198.601 355.524 191.733 365.13C184.866 355.524 172.521 358.262 155.497 339.613C141.338 324.077 132.74 255.08 132.74 255.08C163.546 222.88 191.733 216.655 191.733 216.655C191.733 216.655 223.357 225.963 250.748 255.08Z" fill="white"/>
<mask id="mask1" style="mask-type:alpha" maskUnits="userSpaceOnUse" x="191" y="214" width="60" height="159">
<path d="M191.59 214.088H250.784V372.864H191.59V214.088Z" fill="#C4C4C4"/>
</mask>
<g mask="url(#mask1)">
<path d="M250.738 255.085C250.738 255.085 242.118 324.081 227.959 339.617C210.943 358.267 198.591 355.528 191.723 365.134C184.855 355.528 172.51 358.267 155.487 339.617C141.328 324.081 132.729 255.085 132.729 255.085C163.536 222.884 191.723 216.659 191.723 216.659C191.723 216.659 223.347 225.967 250.738 255.085Z" fill="#F8F3F3"/>
</g>
<circle cx="191.737" cy="291.918" r="29.6425" fill="#FD3E72"/>
<path d="M208.491 275.161C205.582 275.161 203.237 277.432 203.237 280.249V294.984C203.237 295.6 203.2 296.216 203.128 296.868C203.055 297.502 202.873 298.083 202.582 298.611C202.291 299.139 201.855 299.579 201.273 299.931C200.691 300.283 199.855 300.459 198.8 300.459C197.746 300.459 196.909 300.283 196.328 299.931C195.746 299.579 195.309 299.139 195.019 298.611C194.728 298.083 194.546 297.502 194.473 296.868C194.4 296.234 194.364 295.6 194.364 294.984V279.791C191.455 279.791 189.109 282.062 189.109 284.879V294.967C189.109 295.583 189.073 296.199 189 296.85C188.928 297.484 188.746 298.065 188.455 298.593C188.164 299.121 187.728 299.561 187.146 299.913C186.564 300.266 185.728 300.442 184.673 300.442C183.619 300.442 182.782 300.266 182.2 299.913C181.619 299.561 181.182 299.121 180.891 298.593C180.6 298.065 180.419 297.484 180.346 296.85C180.273 296.216 180.237 295.583 180.237 294.967V284.421C177.328 284.421 174.982 286.71 174.982 289.509V294.967C174.982 296.41 175.128 297.678 175.419 298.769C175.71 299.861 176.073 300.794 176.51 301.586C176.964 302.378 177.473 303.029 178.055 303.558C178.637 304.086 179.237 304.508 179.837 304.843C181.237 305.617 182.855 306.04 184.655 306.093C186.491 306.04 188.109 305.617 189.528 304.843C190.128 304.508 190.728 304.086 191.291 303.558C191.437 303.417 191.582 303.276 191.728 303.118C191.873 303.276 192.019 303.417 192.164 303.558C192.746 304.086 193.346 304.508 193.946 304.843C195.346 305.617 196.964 306.04 198.764 306.093C200.6 306.04 202.219 305.617 203.637 304.843C204.237 304.508 204.837 304.086 205.4 303.558C205.982 303.029 206.491 302.378 206.946 301.586C207.4 300.794 207.764 299.861 208.037 298.769C208.309 297.678 208.437 296.428 208.437 294.967L208.491 275.161Z" fill="white"/>
</g>
</g>
<circle cx="482.978" cy="164.866" r="8.00361" fill="#FADAE3"/>
<path d="M487.215 160.632C486.479 160.632 485.886 161.185 485.886 161.871V165.459C485.886 165.609 485.877 165.759 485.859 165.918C485.84 166.072 485.794 166.214 485.721 166.343C485.647 166.471 485.537 166.578 485.39 166.664C485.243 166.75 485.031 166.793 484.764 166.793C484.498 166.793 484.286 166.75 484.139 166.664C483.992 166.578 483.881 166.471 483.808 166.343C483.734 166.214 483.688 166.072 483.67 165.918C483.652 165.764 483.642 165.609 483.642 165.459V161.759C482.907 161.759 482.313 162.312 482.313 162.998V165.455C482.313 165.605 482.304 165.755 482.286 165.914C482.268 166.068 482.222 166.21 482.148 166.338C482.074 166.467 481.964 166.574 481.817 166.66C481.67 166.746 481.458 166.788 481.192 166.788C480.925 166.788 480.713 166.746 480.566 166.66C480.419 166.574 480.309 166.467 480.235 166.338C480.162 166.21 480.116 166.068 480.097 165.914C480.079 165.759 480.07 165.605 480.07 165.455V162.887C479.334 162.887 478.741 163.444 478.741 164.126V165.455C478.741 165.807 478.778 166.115 478.851 166.381C478.925 166.647 479.017 166.874 479.127 167.067C479.242 167.26 479.371 167.419 479.518 167.547C479.665 167.676 479.817 167.779 479.968 167.86C480.322 168.049 480.732 168.152 481.187 168.165C481.651 168.152 482.061 168.049 482.419 167.86C482.571 167.779 482.723 167.676 482.865 167.547C482.902 167.513 482.939 167.479 482.976 167.44C483.012 167.479 483.049 167.513 483.086 167.547C483.233 167.676 483.385 167.779 483.537 167.86C483.891 168.049 484.3 168.152 484.755 168.165C485.22 168.152 485.629 168.049 485.987 167.86C486.139 167.779 486.291 167.676 486.433 167.547C486.581 167.419 486.709 167.26 486.824 167.067C486.939 166.874 487.031 166.647 487.1 166.381C487.169 166.115 487.201 165.811 487.201 165.455L487.215 160.632Z" fill="#FD3E72"/>
<path d="M504.164 180.402H79.5017" stroke="#F2D9E0"/>
<path d="M105.605 139.811C105.605 140.585 105.375 141.342 104.945 141.987C104.515 142.631 103.903 143.133 103.187 143.429C102.472 143.725 101.684 143.803 100.924 143.652C100.165 143.501 99.4669 143.128 98.9192 142.58C98.3715 142.032 97.9985 141.334 97.8474 140.575C97.6963 139.815 97.7738 139.028 98.0702 138.312C98.3667 137.596 98.8686 136.985 99.5127 136.554C100.157 136.124 100.914 135.894 101.689 135.894C102.203 135.894 102.712 135.996 103.187 136.192C103.662 136.389 104.094 136.678 104.458 137.041C104.822 137.405 105.11 137.837 105.307 138.312C105.504 138.787 105.605 139.296 105.605 139.811Z" fill="#00B67A"/>
<path d="M81.8645 139.811C81.8645 140.585 81.6348 141.342 81.2044 141.987C80.7741 142.631 80.1624 143.133 79.4468 143.429C78.7312 143.725 77.9437 143.803 77.184 143.652C76.4243 143.501 75.7265 143.128 75.1787 142.58C74.631 142.032 74.258 141.334 74.1069 140.575C73.9558 139.815 74.0333 139.028 74.3298 138.312C74.6262 137.596 75.1282 136.985 75.7722 136.554C76.4163 136.124 77.1735 135.894 77.948 135.894C78.4624 135.894 78.9716 135.996 79.4468 136.192C79.9219 136.389 80.3537 136.678 80.7174 137.041C81.081 137.405 81.3695 137.837 81.5663 138.312C81.7631 138.787 81.8645 139.296 81.8645 139.811Z" fill="#FD3E72"/>
<path d="M93.2635 139.811C93.2634 140.587 93.0327 141.346 92.6005 141.991C92.1684 142.636 91.5543 143.138 90.8364 143.433C90.1184 143.728 89.3289 143.803 88.5681 143.649C87.8073 143.494 87.1096 143.117 86.5635 142.566C86.0174 142.014 85.6476 141.312 85.5011 140.55C85.3546 139.788 85.4379 138.999 85.7405 138.284C86.0432 137.569 86.5514 136.96 87.2007 136.535C87.8501 136.109 88.6112 135.886 89.3875 135.894C90.4191 135.905 91.405 136.322 92.1307 137.056C92.8565 137.789 93.2635 138.779 93.2635 139.811Z" fill="#F8C83C"/>
</g>
<mask id="mask2" style="mask-type:alpha" maskUnits="userSpaceOnUse" x="65" y="69" width="469" height="468">
<ellipse rx="233.864" ry="233.515" transform="matrix(-1 0 0 1 299.42 302.561)" fill="white"/>
</mask>
<g mask="url(#mask2)">
<path d="M332.395 462.631C333.84 452.393 343.305 444.089 353.543 444.089H372.086L387.364 334.88C388.072 330.467 390.298 326.439 393.658 323.492C397.019 320.545 401.302 318.864 405.77 318.737H486.425C495.344 318.737 501.567 325.961 500.315 334.88L486.209 435.511C484.036 450.982 469.748 463.519 454.277 463.519H332.281L332.395 462.631Z" fill="#AB6D29"/>
<path d="M396.919 556.608H414.552L409.968 463.485H401.493L396.919 556.608Z" fill="#AA8C30"/>
<path opacity="0.3" d="M401.345 466.556L410.207 468.331L409.968 463.485H401.493L401.345 466.556Z" fill="#263238"/>
<path d="M334.193 307.02C335.046 311.934 335.979 316.792 336.764 321.592C337.548 326.393 338.231 331.137 338.754 335.767C339.26 340.213 339.541 344.682 339.596 349.156C339.662 352.967 339.373 356.775 338.732 360.532L345.387 351.272C344.342 352.641 343.02 353.773 341.507 354.594C339.257 355.97 336.907 357.175 334.477 358.2C331.838 359.338 328.971 360.475 326.025 361.613C324.546 362.159 323.033 362.751 321.474 363.24L319.199 364.07L318.061 364.491C317.71 364.6 317.371 364.745 317.049 364.923L313.397 367.551C311.887 368.643 310.714 370.136 310.011 371.862C309.309 373.588 309.106 375.477 309.425 377.312C309.744 379.148 310.572 380.858 311.816 382.245C313.059 383.633 314.668 384.643 316.458 385.161L319.461 386.026L322.305 386.731C324.216 387.129 326.127 387.493 328.061 387.766C332.008 388.335 335.995 388.586 339.983 388.517C344.302 388.459 348.604 387.944 352.815 386.981C357.916 385.862 362.787 383.877 367.217 381.111C369.921 379.431 371.993 376.903 373.11 373.922L373.883 371.84C376.268 365.345 377.827 358.577 378.525 351.693C379.194 345.479 379.4 339.224 379.139 332.98C378.905 327.046 378.347 321.129 377.467 315.256C376.62 309.536 375.481 303.864 374.054 298.26C372.641 293.253 369.374 288.971 364.917 286.285C360.461 283.599 355.149 282.71 350.061 283.799C344.973 284.888 340.49 287.874 337.524 292.149C334.557 296.424 333.33 301.668 334.09 306.815L334.193 307.02Z" fill="#263238"/>
<g opacity="0.1">
<path opacity="0.1" d="M334.193 307.02C335.046 311.934 335.979 316.792 336.764 321.592C337.548 326.393 338.231 331.137 338.754 335.767C339.26 340.213 339.541 344.682 339.596 349.156C339.662 352.967 339.373 356.775 338.732 360.532L345.387 351.272C344.342 352.641 343.02 353.773 341.507 354.594C339.257 355.97 336.907 357.175 334.477 358.2C331.838 359.338 328.971 360.475 326.025 361.613C324.546 362.159 323.033 362.751 321.474 363.24L319.199 364.07L318.061 364.491C317.71 364.6 317.371 364.745 317.049 364.923L313.397 367.551C311.887 368.643 310.714 370.136 310.011 371.862C309.309 373.588 309.106 375.477 309.425 377.312C309.744 379.148 310.572 380.858 311.816 382.245C313.059 383.633 314.668 384.643 316.458 385.161L319.461 386.026L322.305 386.731C324.216 387.129 326.127 387.493 328.061 387.766C332.008 388.335 335.995 388.586 339.983 388.517C344.302 388.459 348.604 387.944 352.815 386.981C357.916 385.862 362.787 383.877 367.217 381.111C369.921 379.431 371.993 376.903 373.11 373.922L373.883 371.84C376.268 365.345 377.827 358.577 378.525 351.693C379.194 345.479 379.4 339.224 379.139 332.98C378.905 327.046 378.347 321.129 377.467 315.256C376.62 309.536 375.481 303.864 374.054 298.26C372.641 293.253 369.374 288.971 364.917 286.285C360.461 283.599 355.149 282.71 350.061 283.799C344.973 284.888 340.49 287.874 337.524 292.149C334.557 296.424 333.33 301.668 334.09 306.815L334.193 307.02Z" fill="white"/>
</g>
<path d="M291.294 362.967L293.091 362.592C299.502 361.238 306.13 361.284 312.521 362.728L314.797 363.229C316.484 363.585 318.05 364.371 319.344 365.511C320.638 366.651 321.615 368.107 322.18 369.736C322.604 370.992 322.765 372.321 322.654 373.642C322.542 374.963 322.161 376.247 321.532 377.414C320.904 378.581 320.043 379.606 319.001 380.426C317.96 381.246 316.761 381.844 315.479 382.181C311.794 382.986 308.009 383.232 304.251 382.909L294.912 383.535C293.378 383.637 291.857 383.191 290.622 382.276C289.386 381.362 288.515 380.038 288.166 378.541L286.357 370.782C286.162 369.945 286.136 369.077 286.279 368.229C286.423 367.381 286.733 366.57 287.192 365.843C287.652 365.116 288.251 364.487 288.955 363.994C289.659 363.5 290.454 363.151 291.294 362.967Z" fill="#FF8B7B"/>
<path d="M423.653 257.08C402.039 259.219 363.156 269.002 344.454 279.638C335.228 284.894 331.576 295.041 333.772 305.439C341.735 343.446 350.085 356.71 350.028 417.606C359.538 428.413 417.84 438.56 459.112 425.011C465.038 400.371 474.503 339.897 464.902 284.359C461.501 264.736 443.47 255.123 423.653 257.08Z" fill="#263238"/>
<path d="M403.472 267.898C369.208 286.475 360.687 286.623 351.325 276.749C341.962 266.874 328.789 231.984 346.262 216.399C363.736 200.814 401.948 204.648 396.635 216.399C391.322 228.151 442.196 246.887 403.472 267.898Z" fill="#263238"/>
<path d="M388.661 308.431C388.727 308.43 388.792 308.406 388.843 308.362C388.87 308.337 388.891 308.306 388.906 308.272C388.921 308.238 388.929 308.201 388.929 308.163C388.929 308.126 388.921 308.089 388.906 308.055C388.891 308.021 388.87 307.99 388.843 307.964C377.774 293.335 379.662 274.405 379.685 274.223C379.69 274.186 379.687 274.148 379.677 274.112C379.667 274.075 379.65 274.041 379.626 274.012C379.603 273.982 379.574 273.957 379.541 273.939C379.508 273.921 379.472 273.909 379.435 273.905C379.36 273.901 379.287 273.924 379.228 273.97C379.17 274.016 379.13 274.082 379.116 274.155C379.116 274.348 377.182 293.494 388.399 308.283C388.423 308.33 388.461 308.37 388.508 308.396C388.554 308.422 388.607 308.434 388.661 308.431Z" fill="white"/>
<path d="M390.617 308.795L388.57 307.953L388.808 310.16L390.617 308.795Z" fill="white"/>
<path d="M357.65 312.822C357.724 312.808 357.791 312.766 357.835 312.704C357.879 312.643 357.899 312.567 357.889 312.492C356.35 301.469 356.446 290.28 358.173 279.285C358.181 279.249 358.182 279.211 358.175 279.174C358.167 279.137 358.153 279.102 358.131 279.071C358.11 279.04 358.082 279.014 358.05 278.994C358.018 278.974 357.983 278.961 357.945 278.956C357.909 278.947 357.871 278.947 357.834 278.954C357.797 278.961 357.762 278.976 357.731 278.997C357.7 279.019 357.674 279.046 357.654 279.078C357.634 279.11 357.621 279.146 357.616 279.183C355.869 290.241 355.773 301.497 357.331 312.583C357.342 312.656 357.382 312.723 357.442 312.767C357.501 312.812 357.576 312.832 357.65 312.822Z" fill="white"/>
<path d="M359.049 314.062L357.661 312.333L356.797 314.369L359.049 314.062Z" fill="white"/>
<path opacity="0.2" d="M387.364 391.953C387.516 391.95 387.66 391.887 387.767 391.779C387.873 391.67 387.933 391.525 387.932 391.373C387.648 368.735 382.131 347.7 377.25 329.146C371.995 309.136 367.456 291.856 370.482 277.443C370.497 277.369 370.497 277.294 370.483 277.221C370.469 277.147 370.44 277.078 370.399 277.015C370.358 276.953 370.305 276.899 370.243 276.857C370.181 276.816 370.111 276.786 370.038 276.772C369.966 276.755 369.891 276.753 369.817 276.766C369.744 276.778 369.674 276.806 369.611 276.846C369.549 276.886 369.495 276.939 369.453 277C369.411 277.062 369.382 277.131 369.367 277.204C366.284 291.879 370.857 309.284 376.193 329.431C381.061 347.928 386.567 368.882 386.84 391.384C386.84 391.527 386.894 391.665 386.991 391.771C387.088 391.876 387.221 391.941 387.364 391.953Z" fill="white"/>
<path d="M381.494 231.757C385.657 244.339 388.729 251.438 385.043 260.664C379.492 274.542 362.052 276.18 354.214 265.373C347.161 255.658 341.541 236.717 351.632 226.126C361.722 215.535 377.341 219.187 381.494 231.757Z" fill="#FF8B7B"/>
<path d="M380.777 219.221C381.698 227.764 365.988 238.116 360.016 241.279C361.689 239.182 362.703 236.637 362.928 233.964C362.928 233.964 356.842 240.221 351.006 241.597C352.938 239.661 354.144 237.118 354.419 234.396C352.974 235.142 351.698 236.177 350.67 237.438C349.643 238.698 348.886 240.157 348.447 241.722C345.989 238.856 341.393 230.824 348.594 222.383C357.786 211.724 379.4 206.992 380.777 219.221Z" fill="#263238"/>
<path opacity="0.6" d="M352.041 226.706C362.632 215.592 379.446 219.301 383.894 232.713C387.307 243.065 392.187 254.919 389.582 265.987C389.4 266.772 388.672 267.216 388.149 267.83C387.843 268.184 387.468 268.471 387.046 268.674C386.625 268.876 386.166 268.99 385.699 269.009C385.232 269.027 384.766 268.949 384.33 268.779C383.894 268.61 383.498 268.353 383.166 268.024C381.653 266.659 380.959 264.611 380.208 262.745C376.795 254.088 372.757 251.586 363.906 248.707C357.422 246.603 346.444 246.034 346.365 245.067C346.036 242.351 346.086 239.602 346.513 236.899C347.419 233.071 349.327 229.553 352.041 226.706Z" fill="black"/>
<path opacity="0.2" d="M461.683 274.69C463.245 277.729 464.33 280.99 464.902 284.359C471.728 324.005 468.895 366.164 464.538 396.003C422.413 313.891 418.079 268.9 461.683 274.69Z" fill="black"/>
<path d="M286.254 514.699C289.269 514.335 302.943 520.558 302.943 520.558C299.917 531.682 296.229 542.614 291.897 553.297L276.369 542.195C276.369 542.195 284.411 525.017 286.254 514.699Z" fill="#FF8B7B"/>
<path d="M298.631 547.61L295.014 563.149C294.953 563.434 294.828 563.701 294.647 563.93C294.467 564.158 294.237 564.342 293.974 564.467C293.711 564.593 293.423 564.656 293.132 564.652C292.841 564.649 292.554 564.578 292.295 564.446C286.163 561.5 278.644 557.621 272.762 554.697C265.869 551.284 261.284 549.828 253.196 545.79C248.304 543.355 249.271 537.895 251.546 538.236C262.501 539.863 268.735 540.375 275.868 536.496C275.868 536.496 271.727 530.216 275.436 528.931C279.144 527.645 287.085 530.546 286.596 533.959C286.439 535.694 285.949 537.382 285.151 538.93C285.151 538.93 297.05 542.661 298.631 547.61Z" fill="#263238"/>
<path d="M308.972 517.475C316.787 488.193 329.449 476.317 330.643 448.082C351.518 444.248 405.144 456.375 412.334 426.9C415.121 415.478 427.179 401.543 426.201 395.172C408 395.172 353.008 395.707 331.11 398.232C295.332 402.373 298.836 410.53 295.469 452.598C294.161 469.025 290.839 474.212 287.085 495.303C285.06 506.679 281.886 512.879 282.057 520.888C287.347 529.272 297.983 530.819 303.58 530.387C308.87 528.35 307.38 523.47 308.972 517.475Z" fill="#263238"/>
<path opacity="0.2" d="M344.067 408.141L359.743 447.501C350.244 447.388 341.234 447.001 334.431 447.638C330.677 437.32 330.666 415.444 344.067 408.141Z" fill="black"/>
<path d="M356.91 525.643C359.686 524.016 374.748 523.709 374.748 523.709C375.414 535.129 375.387 546.579 374.668 557.996L356.262 554.708C356.262 554.708 358.457 535.744 356.91 525.643Z" fill="#FF8B7B"/>
<path d="M379.241 515.404C377.717 485.144 391.129 475.907 376.716 450.698C397.932 450.3 451.899 456.386 459.078 426.934C461.876 415.478 464.06 404.773 464.015 399.518C450.079 392.021 396.191 394.034 374.657 398.687C339.391 406.275 329.631 406.218 344.192 455.908C346.877 465.111 346.695 469.559 351.609 500.968C353.395 512.344 350.665 524.744 353.281 532.32C356.125 539.146 368.559 537.075 378.149 538.463C385.737 534.413 379.548 521.604 379.241 515.404Z" fill="#263238"/>
<path d="M423.767 290.673L426.042 297.965C426.781 300.513 427.578 303.05 428.317 305.598C429.056 308.146 429.762 310.683 430.387 313.22C431.013 315.757 431.627 318.271 432.196 320.762C433.284 325.508 434.12 330.307 434.699 335.141C434.972 337.417 435.063 339.521 435.108 341.444C435.134 343.039 435.061 344.635 434.892 346.222L440.831 337.155C439.126 338.782 437.262 340.234 435.268 341.489C432.993 342.968 430.478 344.413 427.805 345.823C422.413 348.599 416.532 351.216 410.468 353.65C404.405 356.085 398.125 358.439 391.766 360.658C388.592 361.795 385.396 362.933 382.188 363.979L372.643 367.244L372.313 367.358C370.026 368.136 368.087 369.698 366.841 371.768C365.594 373.837 365.119 376.281 365.5 378.667C365.882 381.053 367.094 383.227 368.924 384.804C370.754 386.382 373.083 387.262 375.499 387.289C377.467 387.289 379.219 387.289 381.05 387.289L386.488 387.107C390.094 386.902 393.711 386.674 397.318 386.322C404.519 385.616 411.754 384.649 419.012 383.228C426.468 381.812 433.819 379.889 441.013 377.471C444.888 376.171 448.686 374.652 452.389 372.921C456.556 370.967 460.519 368.604 464.219 365.868C466.775 363.976 468.699 361.354 469.737 358.348L470.26 356.824C471.601 352.835 472.524 348.718 473.013 344.538C473.464 340.873 473.68 337.184 473.661 333.492C473.661 329.977 473.468 326.553 473.195 323.254C472.922 319.955 472.49 316.667 471.989 313.459C470.995 307.176 469.678 300.949 468.042 294.802C467.211 291.776 466.381 288.75 465.403 285.77C464.913 284.28 464.424 282.789 463.901 281.299L463.082 279.024L462.65 277.886L462.149 276.601C460.111 271.838 456.344 268.025 451.606 265.929C446.868 263.833 441.512 263.612 436.617 265.308C431.722 267.005 427.653 270.493 425.228 275.072C422.803 279.65 422.204 284.977 423.551 289.979L423.767 290.673Z" fill="#263238"/>
<path opacity="0.1" d="M423.767 290.673L426.042 297.965C426.781 300.513 427.578 303.05 428.317 305.598C429.056 308.146 429.762 310.683 430.387 313.22C431.013 315.757 431.627 318.271 432.196 320.762C433.284 325.508 434.12 330.307 434.699 335.141C434.972 337.417 435.063 339.521 435.108 341.444C435.134 343.039 435.061 344.635 434.892 346.222L440.831 337.155C439.126 338.782 437.262 340.234 435.268 341.489C432.993 342.968 430.478 344.413 427.805 345.823C422.413 348.599 416.532 351.216 410.468 353.65C404.405 356.085 398.125 358.439 391.766 360.658C388.592 361.795 385.396 362.933 382.188 363.979L372.643 367.244L372.313 367.358C370.026 368.136 368.087 369.698 366.841 371.768C365.594 373.837 365.119 376.281 365.5 378.667C365.882 381.053 367.094 383.227 368.924 384.804C370.754 386.382 373.083 387.262 375.499 387.289C377.467 387.289 379.219 387.289 381.05 387.289L386.488 387.107C390.094 386.902 393.711 386.674 397.318 386.322C404.519 385.616 411.754 384.649 419.012 383.228C426.468 381.812 433.819 379.889 441.013 377.471C444.888 376.171 448.686 374.652 452.389 372.921C456.556 370.967 460.519 368.604 464.219 365.868C466.775 363.976 468.699 361.354 469.737 358.348L470.26 356.824C471.601 352.835 472.524 348.718 473.013 344.538C473.464 340.873 473.68 337.184 473.661 333.492C473.661 329.977 473.468 326.553 473.195 323.254C472.922 319.955 472.49 316.667 471.989 313.459C470.995 307.176 469.678 300.949 468.042 294.802C467.211 291.776 466.381 288.75 465.403 285.77C464.913 284.28 464.424 282.789 463.901 281.299L463.082 279.024L462.65 277.886L462.149 276.601C460.111 271.838 456.344 268.025 451.606 265.929C446.868 263.833 441.512 263.612 436.617 265.308C431.722 267.005 427.653 270.493 425.228 275.072C422.803 279.65 422.204 284.977 423.551 289.979L423.767 290.673Z" fill="white"/>
<path d="M346.035 369.679L353.054 367.517C355.846 366.657 358.791 366.409 361.688 366.789L369.72 367.859C371.541 368.104 373.256 368.86 374.665 370.04C376.075 371.22 377.121 372.775 377.683 374.525C378.466 376.916 378.287 379.517 377.185 381.779C376.083 384.04 374.144 385.784 371.779 386.64C368.181 387.768 364.435 388.351 360.664 388.369L351.427 389.837C349.909 390.074 348.356 389.765 347.043 388.966C345.731 388.166 344.745 386.927 344.26 385.469L341.758 377.904C341.487 377.083 341.383 376.217 341.453 375.355C341.522 374.494 341.763 373.656 342.162 372.889C342.56 372.123 343.109 371.444 343.774 370.892C344.439 370.341 345.208 369.928 346.035 369.679Z" fill="#FF8B7B"/>
<path opacity="0.2" d="M453.651 426.024C453.708 426.034 453.766 426.034 453.822 426.024C453.892 426.002 453.958 425.966 454.014 425.918C454.071 425.871 454.118 425.813 454.151 425.747C454.185 425.681 454.206 425.61 454.212 425.536C454.218 425.462 454.209 425.388 454.186 425.318C453.811 424.101 443.777 395.479 351.086 397.584C350.937 397.59 350.796 397.654 350.694 397.762C350.592 397.871 350.537 398.015 350.54 398.164C350.546 398.314 350.609 398.456 350.718 398.559C350.826 398.663 350.97 398.721 351.12 398.721C442.674 396.64 453.014 425.364 453.105 425.659C453.147 425.769 453.223 425.863 453.32 425.928C453.418 425.993 453.534 426.027 453.651 426.024Z" fill="white"/>
<path d="M352.098 213.158C347.48 215.285 340.336 224.715 339.778 229.812C338.959 237.274 341.723 240.835 347.65 235.591C355.898 228.288 367.843 228.196 373.428 238.344C379.014 248.491 378.957 278.717 389.172 267.432C399.388 256.147 398.057 229.653 393.336 219.096C388.183 207.47 371.016 204.535 352.098 213.158Z" fill="#263238"/>
<path d="M316.218 390.646H375.562V393.501H316.218V390.646Z" fill="black"/>
<path d="M316.217 393.501L298.735 334.157H301.578L319.061 393.501H316.217Z" fill="black"/>
<path d="M220.904 334.157H298.735L316.218 393.501H238.387L220.904 334.157Z" fill="#263238"/>
<path d="M273.122 353.733C273.908 354.943 273.678 356.213 272.626 356.648C271.998 356.811 271.335 356.765 270.735 356.519C270.135 356.272 269.631 355.838 269.299 355.281L273.122 353.733Z" fill="#263238"/>
<path d="M262.79 355.342C262.705 356.552 261.58 357.133 260.273 356.697C259.646 356.502 259.094 356.117 258.695 355.594C258.297 355.072 258.07 354.438 258.047 353.781L262.79 355.342Z" fill="#263238"/>
<path d="M227.873 393.501H422.371V407.173H227.873V393.501Z" fill="#AA8C30"/>
<path opacity="0.3" d="M350.904 393.501H422.371V407.173H350.904V393.501Z" fill="#263238"/>
<path d="M318.928 591.23H331.317L328.111 407.173H322.146L318.928 591.23Z" fill="#AA8C30"/>
<path opacity="0.3" d="M322.049 413.246L328.268 416.743L328.111 407.173H322.146L322.049 413.246Z" fill="#263238"/>
</g>
<defs>
<filter id="filter0_d" x="50.3776" y="117.615" width="476.319" height="321.288" filterUnits="userSpaceOnUse" color-interpolation-filters="sRGB">
<feFlood flood-opacity="0" result="BackgroundImageFix"/>
<feColorMatrix in="SourceAlpha" type="matrix" values="0 0 0 0 0 0 0 0 0 0 0 0 0 0 0 0 0 0 127 0" result="hardAlpha"/>
<feOffset dy="4"/>
<feGaussianBlur stdDeviation="7.5"/>
<feColorMatrix type="matrix" values="0 0 0 0 0 0 0 0 0 0 0 0 0 0 0 0 0 0 0.25 0"/>
<feBlend mode="normal" in2="BackgroundImageFix" result="effect1_dropShadow"/>
<feBlend mode="normal" in="SourceGraphic" in2="effect1_dropShadow" result="shape"/>
</filter>
<filter id="filter1_d" x="106.866" y="191.99" width="169.661" height="205.057" filterUnits="userSpaceOnUse" color-interpolation-filters="sRGB">
<feFlood flood-opacity="0" result="BackgroundImageFix"/>
<feColorMatrix in="SourceAlpha" type="matrix" values="0 0 0 0 0 0 0 0 0 0 0 0 0 0 0 0 0 0 127 0" result="hardAlpha"/>
<feOffset dy="4"/>
<feGaussianBlur stdDeviation="7.5"/>
<feColorMatrix type="matrix" values="0 0 0 0 0 0 0 0 0 0 0 0 0 0 0 0 0 0 0.25 0"/>
<feBlend mode="normal" in2="BackgroundImageFix" result="effect1_dropShadow"/>
<feBlend mode="normal" in="SourceGraphic" in2="effect1_dropShadow" result="shape"/>
</filter>
<filter id="filter2_d" x="115.866" y="200.992" width="151.661" height="187.055" filterUnits="userSpaceOnUse" color-interpolation-filters="sRGB">
<feFlood flood-opacity="0" result="BackgroundImageFix"/>
<feColorMatrix in="SourceAlpha" type="matrix" values="0 0 0 0 0 0 0 0 0 0 0 0 0 0 0 0 0 0 127 0" result="hardAlpha"/>
<feOffset dy="4"/>
<feGaussianBlur stdDeviation="3"/>
<feColorMatrix type="matrix" values="0 0 0 0 0 0 0 0 0 0 0 0 0 0 0 0 0 0 0.1 0"/>
<feBlend mode="normal" in2="BackgroundImageFix" result="effect1_dropShadow"/>
<feBlend mode="normal" in="SourceGraphic" in2="effect1_dropShadow" result="shape"/>
</filter>
<filter id="filter3_d" x="185.696" y="200.99" width="81.8307" height="187.055" filterUnits="userSpaceOnUse" color-interpolation-filters="sRGB">
<feFlood flood-opacity="0" result="BackgroundImageFix"/>
<feColorMatrix in="SourceAlpha" type="matrix" values="0 0 0 0 0 0 0 0 0 0 0 0 0 0 0 0 0 0 127 0" result="hardAlpha"/>
<feOffset dy="4"/>
<feGaussianBlur stdDeviation="3"/>
<feColorMatrix type="matrix" values="0 0 0 0 0 0 0 0 0 0 0 0 0 0 0 0 0 0 0.1 0"/>
<feBlend mode="normal" in2="BackgroundImageFix" result="effect1_dropShadow"/>
<feBlend mode="normal" in="SourceGraphic" in2="effect1_dropShadow" result="shape"/>
</filter>
</defs>
</svg>
