<svg width="601" height="601" viewBox="0 0 601 601" fill="none" xmlns="http://www.w3.org/2000/svg">
<circle opacity="0.3" r="300.184" transform="matrix(-1 0 0 1 300.816 300.816)" fill="white"/>
<ellipse opacity="0.2" rx="233.864" ry="233.515" transform="matrix(-1 0 0 1 300.136 302.561)" fill="white"/>
<g filter="url(#filter0_d)">
<path d="M462.844 173.445C462.844 173.445 439.197 362.733 400.344 405.323C353.63 456.419 319.802 447.315 301.02 473.668C282.189 447.283 248.33 456.419 201.648 405.291C162.795 362.701 139.196 173.413 139.196 173.413C212.785 96.5784 301.02 68.0002 301.02 68.0002C302.792 69.7883 388.54 99.4362 462.844 173.445Z" fill="#FD3E72"/>
</g>
<g filter="url(#filter1_d)">
<path d="M462.841 173.445C462.841 173.445 439.194 362.733 400.341 405.323C353.627 456.419 319.8 447.315 301.018 473.668L301.018 397.061L301.018 188.259L301.018 68C302.79 69.788 388.538 99.4359 462.841 173.445Z" fill="#E32D5F"/>
</g>
<path d="M437.864 188.709C437.864 188.709 417.889 348.6 385.077 384.602C345.644 427.82 317.019 421.474 301.104 443.735C285.189 421.474 256.581 427.82 217.132 384.602C184.319 348.6 164.394 188.709 164.394 188.709C235.784 114.088 301.104 99.6628 301.104 99.6628C301.104 99.6628 374.388 121.232 437.864 188.709Z" fill="white"/>
<mask id="mask0" style="mask-type:alpha" maskUnits="userSpaceOnUse" x="300" y="93" width="138" height="369">
<path d="M300.771 93.7263H437.947V461.67H300.771V93.7263Z" fill="#C4C4C4"/>
</mask>
<g mask="url(#mask0)">
<path d="M437.838 188.725C437.838 188.725 417.864 348.616 385.051 384.618C345.618 427.836 316.994 421.489 301.079 443.751C285.164 421.489 256.556 427.836 217.107 384.618C184.294 348.616 164.368 188.725 164.368 188.725C235.759 114.104 301.079 99.6785 301.079 99.6785C301.079 99.6785 374.363 121.248 437.838 188.725Z" fill="#F8F3F3"/>
</g>
<circle cx="301.112" cy="274.069" r="68.6928" fill="#FD3E72"/>
<path d="M339.939 235.241C333.197 235.241 327.762 240.504 327.762 247.032V281.178C327.762 282.606 327.678 284.034 327.509 285.544C327.341 287.012 326.919 288.358 326.245 289.582C325.571 290.806 324.56 291.826 323.212 292.642C321.863 293.458 319.925 293.866 317.481 293.866C315.038 293.866 313.1 293.458 311.751 292.642C310.403 291.826 309.392 290.806 308.718 289.582C308.043 288.358 307.622 287.012 307.454 285.544C307.285 284.075 307.201 282.606 307.201 281.178V245.971C300.459 245.971 295.024 251.234 295.024 257.761V281.137C295.024 282.565 294.94 283.993 294.771 285.503C294.603 286.971 294.181 288.318 293.507 289.542C292.833 290.765 291.822 291.785 290.474 292.601C289.125 293.417 287.187 293.825 284.743 293.825C282.3 293.825 280.362 293.417 279.013 292.601C277.665 291.785 276.654 290.765 275.98 289.542C275.305 288.318 274.884 286.971 274.716 285.503C274.547 284.034 274.463 282.565 274.463 281.137V256.7C267.721 256.7 262.286 262.004 262.286 268.491V281.137C262.286 284.483 262.623 287.42 263.297 289.95C263.971 292.479 264.814 294.641 265.825 296.477C266.879 298.313 268.058 299.822 269.407 301.046C270.755 302.27 272.145 303.249 273.536 304.024C276.78 305.819 280.53 306.798 284.701 306.921C288.957 306.798 292.707 305.819 295.993 304.024C297.384 303.249 298.774 302.27 300.08 301.046C300.417 300.72 300.754 300.393 301.091 300.026C301.428 300.393 301.766 300.72 302.103 301.046C303.451 302.27 304.841 303.249 306.232 304.024C309.476 305.819 313.226 306.798 317.397 306.921C321.653 306.798 325.403 305.819 328.689 304.024C330.079 303.249 331.47 302.27 332.776 301.046C334.124 299.822 335.304 298.313 336.357 296.477C337.411 294.641 338.253 292.479 338.885 289.95C339.517 287.42 339.812 284.524 339.812 281.137L339.939 235.241Z" fill="white"/>
<g filter="url(#filter2_d)">
<path d="M282.284 460V509.569H265.257L301.961 552.317L336.394 510.439H318.988V460H282.284Z" fill="#CF2E5A"/>
<path d="M401.98 357.1C397.413 339.361 387.994 323.245 374.78 310.56C361.566 297.875 345.079 289.122 327.168 285.283C309.257 281.444 290.631 282.671 273.379 288.826C256.127 294.981 240.93 305.821 229.494 320.13C226.345 319.751 223.176 319.553 220.004 319.537C198.259 319.537 177.405 328.175 162.029 343.551C146.654 358.927 138.016 379.781 138.016 401.525C138.016 423.27 146.654 444.124 162.029 459.5C177.405 474.876 198.259 483.514 220.004 483.514H398.523C415.007 483.526 430.845 477.102 442.663 465.61C454.482 454.119 461.347 438.468 461.798 421.99C462.249 405.512 456.249 389.509 445.076 377.389C433.903 365.268 418.44 357.989 401.98 357.1Z" fill="#FD3E72"/>
<path d="M240.223 372.021C240.168 371.846 240.14 371.663 240.141 371.479C240.141 371.07 240.08 370.559 240.039 369.935C240.039 369.587 240.039 369.219 239.978 368.81C239.916 368.401 239.875 367.961 239.824 367.491C239.691 366.54 239.609 365.445 239.344 364.28C239.231 363.686 239.108 363.063 238.975 362.418C238.842 361.774 238.638 361.13 238.464 360.445C238.147 359.064 237.615 357.642 237.104 356.139C235.875 352.933 234.344 349.851 232.532 346.935C230.661 344.037 228.521 341.322 226.141 338.825C225.006 337.721 223.942 336.637 222.837 335.757C222.295 335.307 221.815 334.847 221.273 334.448L219.749 333.323C218.808 332.577 217.857 332.034 217.059 331.513L215.934 330.797L214.912 330.265L213.562 329.498C213.394 329.423 213.239 329.323 213.102 329.202C213.275 329.254 213.442 329.323 213.603 329.406L215.014 330.081L216.037 330.582C216.395 330.777 216.773 331.012 217.192 331.257C218.143 331.794 219.065 332.381 219.954 333.016L221.498 334.121C222.04 334.509 222.52 334.98 223.103 335.42C224.278 336.383 225.401 337.407 226.468 338.488C231.388 343.462 235.167 349.446 237.544 356.027C238.063 357.454 238.507 358.909 238.873 360.383C239.037 361.079 239.241 361.733 239.364 362.429C239.487 363.124 239.589 363.707 239.691 364.3C239.884 365.376 240.02 366.462 240.1 367.552C240.1 368.033 240.192 368.473 240.213 368.892C240.233 369.311 240.213 369.669 240.213 370.017V371.571C240.225 371.721 240.229 371.871 240.223 372.021Z" fill="#CF2755"/>
<path d="M206.679 356.169C206.608 356.241 205.534 355.146 203.611 353.725C198.515 349.94 192.46 347.658 186.134 347.139C183.71 346.934 182.196 347.026 182.196 346.934C182.528 346.837 182.873 346.789 183.219 346.791C184.186 346.726 185.156 346.726 186.123 346.791C192.572 347.095 198.762 349.421 203.816 353.439C204.579 354.036 205.3 354.685 205.974 355.382C206.238 355.616 206.475 355.88 206.679 356.169Z" fill="#CF2755"/>
<path d="M244.23 426.151C243.693 426.206 243.152 426.206 242.615 426.151C241.592 426.151 240.058 426.151 238.197 426.059C234.474 425.926 229.33 425.619 223.664 425.037C217.999 424.454 212.895 423.779 209.214 423.175C207.373 422.879 205.89 422.623 204.867 422.418C204.329 422.341 203.799 422.218 203.282 422.05C203.824 422.066 204.364 422.121 204.898 422.214L209.275 422.807C212.957 423.308 218.06 423.952 223.715 424.505C229.371 425.057 234.505 425.425 238.217 425.65L242.615 425.916C243.158 425.957 243.698 426.035 244.23 426.151Z" fill="#CF2755"/>
<path d="M399.301 356.599C399.113 356.641 398.921 356.665 398.728 356.67L397.081 356.783C396.376 356.783 395.496 356.865 394.494 356.998C393.492 357.131 392.326 357.192 391.068 357.417L389.084 357.734C388.399 357.847 387.693 358.02 386.957 358.164C385.484 358.44 383.94 358.879 382.304 359.309C375.249 361.316 368.561 364.441 362.494 368.564C361.114 369.536 359.784 370.436 358.629 371.397C358.035 371.868 357.453 372.297 356.931 372.747L355.417 374.066C354.395 374.884 353.628 375.723 352.891 376.418C352.155 377.114 351.552 377.748 351.061 378.28L349.926 379.466C349.797 379.611 349.653 379.742 349.496 379.855C349.595 379.689 349.712 379.535 349.844 379.394C350.12 379.057 350.478 378.648 350.866 378.137C351.255 377.625 351.889 376.93 352.646 376.214C353.403 375.498 354.149 374.629 355.121 373.79L356.624 372.44C357.146 371.97 357.729 371.53 358.312 371.049C359.467 370.027 360.797 369.147 362.177 368.155C368.29 363.949 375.066 360.799 382.222 358.839C383.868 358.419 385.433 357.99 386.916 357.734C387.663 357.591 388.378 357.427 389.074 357.325L391.119 357.049C392.387 356.844 393.553 356.793 394.566 356.701C395.436 356.616 396.309 356.575 397.184 356.578H398.83C398.987 356.569 399.145 356.576 399.301 356.599Z" fill="#CF2755"/>
<path d="M394.248 484.066C394.248 484.219 354.722 484.332 305.981 484.332C257.24 484.332 217.703 484.219 217.703 484.066C217.703 483.913 257.219 483.8 305.981 483.8C354.742 483.8 394.248 483.923 394.248 484.066Z" fill="#263238"/>
<g opacity="0.3">
<path opacity="0.3" d="M424.621 389.948C422.576 378.279 407.103 366.426 393.767 369.096C382.15 371.407 369.642 374.107 358.157 377.011C353.412 378.208 348.503 372.45 344.535 369.597C342.49 368.104 341.222 365.711 339.923 363.461C332.529 350.892 320.359 341.463 306.768 336.196C293.176 330.929 278.225 329.671 263.733 331.256C252.484 332.494 240.212 336.37 234.945 346.392C232.838 350.432 232 355.279 228.737 358.45C224.381 362.663 217.488 362.326 211.812 364.463C200.46 368.738 194.713 384.968 196.144 397.005C197.576 409.042 208.284 424.556 230.793 427.031C230.793 427.031 312.331 427.746 352.594 429.7C366.554 430.375 370.767 428.452 384.727 428.084C409.363 427.491 428.303 411.353 424.621 389.948Z" fill="black"/>
</g>
<path d="M274.841 448.599C276.211 448.252 277.745 446.84 278.931 446.084C281.836 444.216 284.709 442.296 287.553 440.326C277.326 437.36 268.684 435.018 258.478 432.145C258.127 436.236 258.508 440.357 259.603 444.314C260.544 447.475 262.343 450.839 265.534 451.678C268.428 452.435 271.374 450.839 273.93 449.264L274.636 448.824" fill="#E0E0E0"/>
<path d="M276.59 442.954C276.436 442.954 276.498 441.614 276.14 440.05C275.782 438.485 275.117 437.319 275.301 437.237C275.969 438.011 276.436 438.937 276.661 439.934C276.886 440.932 276.861 441.969 276.59 442.954Z" fill="#263238"/>
<path d="M278.788 442.412C278.683 441.653 278.628 440.888 278.625 440.121C278.466 439.373 278.36 438.614 278.308 437.851C278.78 438.503 279.072 439.267 279.157 440.067C279.241 440.868 279.114 441.676 278.788 442.412Z" fill="#263238"/>
<path d="M265.309 434.046C265.401 434.046 265.105 435.069 265.084 436.818C265.052 439.039 265.605 441.23 266.69 443.169C267.726 445.134 269.145 446.872 270.862 448.282C271.63 448.793 272.441 449.234 273.286 449.601C273.028 449.616 272.77 449.574 272.529 449.479C271.861 449.279 271.226 448.979 270.648 448.589C268.804 447.221 267.29 445.456 266.219 443.424C265.09 441.406 264.568 439.105 264.716 436.797C264.749 436.106 264.855 435.421 265.033 434.752C265.079 434.501 265.173 434.262 265.309 434.046Z" fill="#455A64"/>
<path d="M273.287 436.409C274.183 438.299 274.744 440.33 274.944 442.412C275.305 444.462 275.305 446.559 274.944 448.609C274.78 448.609 274.893 445.838 274.433 442.473C273.972 439.109 273.124 436.46 273.287 436.409Z" fill="#455A64"/>
<path d="M270.974 447.29C270.366 446.943 269.817 446.501 269.348 445.981C268.101 444.833 267.063 443.476 266.28 441.972C265.499 440.447 265.175 438.728 265.35 437.023C265.379 436.31 265.614 435.621 266.025 435.039C266.106 435.039 265.8 435.806 265.728 437.084C265.668 438.707 266.02 440.318 266.751 441.768C267.515 443.219 268.471 444.561 269.594 445.756C270.103 446.221 270.565 446.735 270.974 447.29Z" fill="#FF725E"/>
<path d="M285.271 441.747C284.169 442.64 282.96 443.393 281.671 443.987C280.466 444.733 279.175 445.33 277.826 445.766C278.923 444.863 280.133 444.107 281.426 443.516C282.63 442.77 283.921 442.176 285.271 441.747Z" fill="#FF725E"/>
<path d="M268.99 447.433C268.142 448.358 267.073 449.051 265.883 449.448C264.694 449.845 263.423 449.933 262.189 449.704C262.189 449.55 263.836 449.581 265.718 448.937C267.599 448.292 268.898 447.311 268.99 447.433Z" fill="#455A64"/>
<path d="M265.525 442.197C265.525 442.351 264.144 442.545 262.61 443.22C261.076 443.895 260.002 444.836 259.89 444.723C260.483 443.808 261.359 443.111 262.385 442.739C263.342 442.214 264.447 442.023 265.525 442.197Z" fill="#455A64"/>
<path d="M264.848 437.544C263.746 437.164 262.622 436.85 261.483 436.603C260.318 436.543 259.15 436.543 257.985 436.603C259.08 436.023 260.343 435.846 261.554 436.102C262.791 436.168 263.961 436.68 264.848 437.544Z" fill="#455A64"/>
<path d="M343.145 422.757C343.206 422.849 304.784 432.114 304.784 432.114L299.139 418.891L301.726 414.892C301.726 414.892 317.966 411.221 331.179 403.745L343.145 422.757Z" fill="#FFBE9D"/>
<path d="M252.986 385.08C252.986 385.08 251.227 382.513 243.782 378.862C237.595 375.794 221.712 373.299 215.28 385.724C208.847 398.15 213.787 417.213 224.484 421.283C235.181 425.353 252.986 430.927 260.278 433.279C267.569 435.631 291.551 441.634 291.551 441.634L301.41 435.856L302.576 417.448C302.576 417.448 288.984 403.488 277.418 399.633C265.851 395.777 252.986 385.08 252.986 385.08Z" fill="#AB6D29"/>
<path d="M230.794 376.408C230.896 376.254 241.696 376.561 249.581 379.537C252.546 380.652 255.451 381.848 255.451 381.848L259.807 369.433L292.462 358.552H328.613L340.374 381.848V383.025C340.374 383.025 354.497 383.26 360.613 380.437C366.729 377.615 385.781 369.372 390.721 367.725C395.66 366.079 417.781 362.919 422.72 376.377C427.66 389.836 424.162 403.877 415.899 409.011C412.003 411.424 346.265 428.442 346.265 428.442L330.73 403.734C330.73 403.734 307.065 415.464 299.14 414.186C291.214 412.907 230.794 376.408 230.794 376.408Z" fill="#AB6D29"/>
<path d="M297.472 364.555C297.541 364.71 297.596 364.871 297.635 365.036C297.728 365.404 297.85 365.864 297.993 366.416C298.29 367.623 298.668 369.392 299.016 371.581C299.814 375.958 300.611 382.063 301.225 388.823C301.839 395.583 302.166 401.719 302.299 406.209C302.37 408.428 302.391 410.228 302.391 411.476C302.391 412.048 302.391 412.498 302.391 412.908C302.419 413.073 302.419 413.243 302.391 413.409C302.358 413.243 302.337 413.076 302.33 412.908C302.33 412.519 302.33 412.048 302.258 411.476C302.186 410.157 302.105 408.408 301.992 406.229C301.767 401.791 301.368 395.665 300.765 388.905C300.162 382.145 299.415 376.071 298.72 371.683C298.382 369.495 298.055 367.725 297.82 366.509C297.717 365.946 297.625 365.486 297.554 365.097C297.497 364.922 297.469 364.739 297.472 364.555Z" fill="#8F5A1F"/>
<path d="M340.017 383.597C340.017 383.741 331.835 384.773 321.701 385.898C311.566 387.023 303.354 387.821 303.292 387.668C303.231 387.514 311.474 386.492 321.609 385.367C331.743 384.242 339.996 383.454 340.017 383.597Z" fill="#8F5A1F"/>
<path d="M334.617 383.648C334.226 383.666 333.834 383.635 333.451 383.556C332.704 383.454 331.63 383.321 330.291 383.188C326.817 382.809 323.323 382.649 319.829 382.707C316.338 382.775 312.854 383.055 309.397 383.546L306.258 384.027C305.875 384.114 305.484 384.162 305.092 384.17C305.451 384.01 305.829 383.896 306.217 383.832C306.943 383.638 308.006 383.413 309.336 383.178C316.276 381.965 323.363 381.841 330.342 382.81C331.671 383.004 332.745 383.188 333.481 383.352C333.869 383.412 334.249 383.512 334.617 383.648Z" fill="#8F5A1F"/>
<path d="M339.617 382.237C337.376 381.137 335.028 380.266 332.612 379.639C330.153 379.189 327.655 378.993 325.156 379.057C325.863 378.81 326.606 378.685 327.355 378.688C330.974 378.48 334.581 379.276 337.776 380.989C338.452 381.305 339.074 381.726 339.617 382.237Z" fill="#8F5A1F"/>
<path d="M390.914 376.132C390.697 376.203 390.474 376.257 390.249 376.295L388.347 376.684C386.69 377.032 384.307 377.584 381.403 378.402C373.851 380.601 366.523 383.508 359.518 387.085C351.275 391.175 344.177 395.573 338.982 398.713L332.846 402.456L331.169 403.478C330.976 403.6 330.775 403.706 330.565 403.795C330.735 403.64 330.92 403.503 331.118 403.386L332.734 402.302C334.145 401.372 336.19 400.032 338.747 398.416C343.86 395.184 351.019 390.777 359.252 386.625C366.282 383.031 373.66 380.159 381.27 378.054C384.205 377.277 386.608 376.786 388.275 376.51C389.104 376.347 389.758 376.275 390.198 376.214C390.432 376.156 390.673 376.129 390.914 376.132Z" fill="#8F5A1F"/>
<path d="M233.33 382.861C233.602 382.622 233.909 382.425 234.24 382.278C235.102 381.82 235.998 381.43 236.92 381.112C239.992 380.051 243.265 379.702 246.492 380.089C249.715 380.397 252.855 381.292 255.757 382.728C256.624 383.185 257.434 383.741 258.171 384.385C258.457 384.602 258.708 384.86 258.918 385.152C257.853 384.382 256.739 383.681 255.584 383.055C252.67 381.744 249.56 380.921 246.379 380.621C243.231 380.236 240.036 380.515 237.001 381.439C234.7 382.186 233.371 382.953 233.33 382.861Z" fill="#8F5A1F"/>
<path d="M302.565 417.459C302.387 417.361 302.226 417.237 302.084 417.091L300.775 415.976C299.64 414.953 297.963 413.624 295.877 411.947C291.704 408.602 285.814 404.123 279.32 399.163L274.595 395.533C273.051 394.387 271.527 393.405 269.972 392.464C266.904 390.654 264.143 389.11 261.924 387.586C260.148 386.417 258.494 385.074 256.984 383.577C256.574 383.175 256.185 382.752 255.818 382.309C255.676 382.165 255.552 382.004 255.45 381.829C255.45 381.829 256.033 382.422 257.127 383.434C258.679 384.857 260.352 386.14 262.128 387.269C264.358 388.742 267.17 390.245 270.228 392.045C271.752 392.955 273.296 393.937 274.902 395.113C276.507 396.289 277.97 397.506 279.637 398.744C286.131 403.704 291.991 408.224 296.112 411.66C298.157 413.368 299.824 414.79 300.908 415.812C301.471 416.324 301.88 416.733 302.156 417.019C302.306 417.153 302.443 417.3 302.565 417.459Z" fill="#8F5A1F"/>
<path d="M286.907 382.902C285.697 383.186 284.471 383.397 283.236 383.536C280.966 383.873 277.826 384.354 274.38 384.968C270.933 385.581 267.824 386.226 265.574 386.696C264.37 387 263.147 387.226 261.913 387.371C262.211 387.219 262.527 387.105 262.854 387.034C263.468 386.849 264.368 386.604 265.482 386.328C267.722 385.765 270.821 385.07 274.288 384.446C277.754 383.822 280.894 383.423 283.185 383.158C284.33 383.035 285.23 382.953 285.905 382.912C286.237 382.86 286.575 382.856 286.907 382.902Z" fill="#8F5A1F"/>
<path d="M282.061 376.899C282.061 376.981 280.65 377.104 278.4 377.441C272.511 378.31 266.791 380.083 261.444 382.698C259.398 383.721 258.161 384.406 258.12 384.324C258.361 384.093 258.633 383.896 258.928 383.741C259.46 383.383 260.258 382.913 261.27 382.36C263.919 380.948 266.696 379.791 269.564 378.904C272.429 378.019 275.37 377.403 278.349 377.063C279.494 376.94 280.394 376.879 281.059 376.869C281.392 376.826 281.731 376.837 282.061 376.899Z" fill="#8F5A1F"/>
<path d="M323.15 428.535L317.014 442.852C319.274 444.898 327.864 446.207 330.891 446.053C333.919 445.9 338.296 445.93 341.313 445.593C345.156 445.283 349.02 445.31 352.859 445.675C356.7 446.039 360.57 445.967 364.394 445.46C368.229 444.933 371.803 443.225 374.621 440.572C375.983 439.368 377.013 437.835 377.613 436.119C378.212 434.403 378.36 432.562 378.042 430.772C377.725 428.983 376.953 427.305 375.801 425.899C374.648 424.494 373.154 423.408 371.461 422.746C368.377 421.435 364.998 420.972 361.674 421.407C358.368 421.842 355.109 422.582 351.938 423.616C348.533 424.638 345.045 425.661 341.507 425.354C340.791 425.293 340.075 425.354 339.369 425.19C334.747 424.331 329.93 424.291 325.768 426.909C324.95 427.43 324.019 427.89 323.15 428.535Z" fill="#E0E0E0"/>
<path d="M324.043 430.14C324.207 429.952 324.388 429.781 324.585 429.628C325.136 429.174 325.724 428.766 326.344 428.411C328.651 427.084 331.314 426.508 333.963 426.765C335.62 426.928 337.399 427.266 339.322 427.552C341.346 427.913 343.408 428.013 345.458 427.849C347.709 427.546 349.928 427.036 352.085 426.325C354.434 425.547 356.863 425.033 359.325 424.791C361.805 424.551 364.307 424.766 366.709 425.425C367.85 425.754 368.953 426.2 370.002 426.755C371.022 427.272 371.943 427.964 372.723 428.8C374.16 430.362 375.17 432.267 375.658 434.333C375.897 435.272 375.928 436.253 375.75 437.206C375.556 438.082 375.21 438.916 374.727 439.671C373.919 440.953 372.831 442.037 371.546 442.841C370.592 443.45 369.581 443.967 368.53 444.386C367.671 444.743 366.996 444.979 366.535 445.142C366.305 445.238 366.065 445.306 365.819 445.347C366.035 445.225 366.261 445.123 366.494 445.04C366.944 444.846 367.609 444.58 368.448 444.201C369.468 443.746 370.449 443.209 371.383 442.596C372.609 441.794 373.639 440.728 374.4 439.477C374.869 438.733 375.181 437.901 375.316 437.032C375.452 436.163 375.408 435.276 375.187 434.425C374.694 432.449 373.709 430.63 372.324 429.137C370.717 427.555 368.714 426.436 366.525 425.895C364.194 425.266 361.77 425.058 359.366 425.282C354.376 425.65 349.947 427.931 345.509 428.35C343.423 428.503 341.327 428.386 339.271 428.002C337.348 427.685 335.579 427.327 333.943 427.143C331.358 426.876 328.753 427.381 326.457 428.595C325.625 429.067 324.82 429.582 324.043 430.14Z" fill="#455A64"/>
<path d="M365.857 445.409C365.857 445.409 365.632 445.214 365.305 444.785C365.099 444.533 364.911 444.266 364.743 443.987C364.504 443.627 364.288 443.251 364.098 442.862C363.577 441.864 363.149 440.82 362.82 439.743C362.42 438.408 362.146 437.038 362.002 435.652C361.88 434.274 361.88 432.888 362.002 431.51C362.109 430.389 362.318 429.28 362.626 428.197C362.736 427.776 362.872 427.363 363.035 426.96C363.14 426.651 363.267 426.351 363.413 426.06C363.658 425.579 363.802 425.323 363.832 425.344C363.863 425.364 363.423 426.448 362.994 428.289C362.737 429.361 362.569 430.452 362.493 431.551C362.412 432.898 362.433 434.248 362.554 435.591C362.708 436.931 362.965 438.258 363.321 439.559C363.621 440.61 364.004 441.636 364.466 442.627C365.213 444.458 365.919 445.358 365.857 445.409Z" fill="#263238"/>
<path d="M326.925 426.53C327.058 426.601 326.925 427.133 326.628 427.747C326.331 428.36 326.096 428.851 325.953 428.769C325.81 428.687 325.871 428.156 326.137 427.511C326.403 426.867 326.802 426.458 326.925 426.53Z" fill="#455A64"/>
<path d="M331.292 424.832C331.425 424.893 331.292 425.415 331.118 426.028C330.944 426.642 330.688 427.133 330.545 427.051C330.402 426.969 330.402 426.458 330.606 425.814C330.811 425.169 331.159 424.771 331.292 424.832Z" fill="#455A64"/>
<path d="M336.907 424.719C337.04 424.77 336.968 425.374 336.743 426.069C336.518 426.765 336.211 427.296 336.078 427.245C335.945 427.194 336.007 426.601 336.232 425.906C336.457 425.21 336.763 424.678 336.907 424.719Z" fill="#455A64"/>
<path d="M342.173 425.385C342.316 425.385 342.265 426.029 342.06 426.735C341.856 427.44 341.569 427.982 341.436 427.941C341.303 427.9 341.344 427.297 341.549 426.581C341.753 425.865 342.029 425.344 342.173 425.385Z" fill="#455A64"/>
<path d="M346.612 428.166C346.469 428.166 346.346 427.45 346.356 426.571C346.366 425.691 346.479 424.985 346.632 424.985C346.786 424.985 346.888 425.701 346.888 426.571C346.888 427.44 346.755 428.166 346.612 428.166Z" fill="#455A64"/>
<path d="M351.541 426.908C351.387 426.908 351.183 426.295 351.07 425.497C350.958 424.699 350.988 424.035 351.132 424.014C351.275 423.994 351.49 424.628 351.602 425.425C351.715 426.223 351.704 426.888 351.541 426.908Z" fill="#455A64"/>
<path d="M356.102 422.439C356.245 422.439 356.48 423.012 356.623 423.779C356.766 424.546 356.766 425.19 356.623 425.211C356.48 425.231 356.245 424.638 356.102 423.871C355.958 423.104 355.958 422.46 356.102 422.439Z" fill="#455A64"/>
<path d="M361.993 421.355C362.137 421.355 362.075 422.224 361.871 423.226C361.666 424.229 361.359 425.026 361.216 424.996C361.073 424.965 361.134 424.126 361.349 423.124C361.564 422.122 361.85 421.324 361.993 421.355Z" fill="#455A64"/>
<path d="M367.046 421.498C367.179 421.559 366.821 422.521 366.238 423.543C365.655 424.566 365.083 425.445 364.96 425.374C365.072 424.64 365.348 423.941 365.768 423.328C366.341 422.255 366.883 421.437 367.046 421.498Z" fill="#455A64"/>
<path d="M372.188 422.848C372.311 422.93 371.84 423.871 371.165 424.955C370.49 426.039 369.785 426.857 369.662 426.775C369.539 426.693 370.01 425.753 370.685 424.669C371.36 423.584 372.065 422.766 372.188 422.848Z" fill="#455A64"/>
<path d="M375.502 425.957C375.615 426.039 375.165 426.888 374.48 427.859C373.794 428.831 373.16 429.547 373.048 429.465C372.935 429.383 373.375 428.524 374.07 427.553C374.766 426.581 375.379 425.865 375.502 425.957Z" fill="#455A64"/>
<path d="M377.815 429.904C377.937 429.986 377.477 430.814 376.7 431.674C375.923 432.533 375.145 433.064 375.053 432.962C374.961 432.86 375.555 432.154 376.311 431.316C377.068 430.477 377.692 429.812 377.815 429.904Z" fill="#455A64"/>
<path d="M377.476 435.928C377.589 436.01 377.333 436.511 376.729 436.777C376.126 437.043 375.574 436.9 375.594 436.777C375.615 436.654 376.034 436.521 376.515 436.306C376.995 436.092 377.364 435.826 377.476 435.928Z" fill="#455A64"/>
<path d="M374.205 441.083C374.205 441.216 374.113 441.39 373.888 441.359C373.663 441.328 373.592 441.103 373.684 440.991C373.716 440.942 373.76 440.901 373.812 440.873C373.864 440.844 373.921 440.829 373.98 440.827C374.036 440.848 374.086 440.882 374.125 440.926C374.164 440.971 374.192 441.025 374.205 441.083Z" fill="#455A64"/>
<path d="M338.543 443.118C339.269 441.587 339.828 439.982 340.21 438.331C340.428 436.636 340.462 434.921 340.312 433.218C340.904 434.873 341.052 436.653 340.741 438.383C340.431 440.113 339.673 441.731 338.543 443.077V443.118Z" fill="#263238"/>
<path d="M342.756 442.637C343.429 441.226 343.944 439.744 344.29 438.219C344.47 436.663 344.47 435.091 344.29 433.535C344.906 435.044 345.09 436.695 344.821 438.303C344.552 439.91 343.84 441.411 342.766 442.637H342.756Z" fill="#263238"/>
<path d="M348.064 442.668C349.905 439.737 350.556 436.214 349.885 432.819C350.176 433.254 350.359 433.752 350.417 434.272C350.656 435.508 350.656 436.778 350.417 438.015C350.196 439.255 349.734 440.44 349.056 441.502C348.555 442.31 348.116 442.709 348.064 442.668Z" fill="#263238"/>
<path d="M354.057 442.31C354.67 440.717 355.133 439.07 355.437 437.391C355.558 435.687 355.524 433.975 355.335 432.277C355.968 433.927 356.182 435.707 355.959 437.46C355.736 439.212 355.082 440.882 354.057 442.32V442.31Z" fill="#263238"/>
<path d="M337.47 437.82C337.197 437.939 336.897 437.982 336.601 437.943C335.79 437.89 335.005 437.634 334.32 437.196C333.338 436.532 332.48 435.701 331.784 434.742C331.313 434.2 330.939 433.581 330.68 432.911C330.551 432.526 330.52 432.115 330.588 431.714C330.666 431.284 330.89 430.894 331.222 430.61C331.545 430.351 331.926 430.176 332.333 430.099C332.739 430.023 333.158 430.047 333.553 430.17C334.249 430.399 334.878 430.796 335.384 431.326C336.227 432.174 336.879 433.192 337.296 434.312C337.58 435.056 337.749 435.839 337.798 436.633C337.843 436.924 337.826 437.22 337.746 437.503C337.59 436.455 337.322 435.426 336.949 434.435C336.502 433.393 335.852 432.451 335.036 431.663C334.587 431.193 334.029 430.842 333.41 430.641C333.098 430.548 332.768 430.531 332.448 430.591C332.127 430.652 331.826 430.788 331.569 430.988C331.337 431.205 331.175 431.487 331.106 431.797C331.036 432.108 331.062 432.432 331.181 432.727C331.422 433.344 331.768 433.915 332.203 434.414C332.848 435.349 333.643 436.172 334.556 436.848C335.414 437.444 336.426 437.781 337.47 437.82Z" fill="#263238"/>
<path d="M337.224 437.667C337.205 437.935 337.14 438.198 337.03 438.444C336.801 439.152 336.506 439.836 336.151 440.489C335.634 441.484 334.847 442.314 333.88 442.883C333.287 443.219 332.619 443.402 331.937 443.414C331.542 443.441 331.146 443.366 330.787 443.196C330.429 443.026 330.121 442.767 329.892 442.443C329.713 442.092 329.639 441.697 329.678 441.305C329.718 440.913 329.871 440.541 330.117 440.234C330.513 439.684 331.041 439.241 331.651 438.945C332.654 438.5 333.714 438.197 334.801 438.045C335.766 437.805 336.753 437.658 337.746 437.605C336.817 437.956 335.858 438.227 334.883 438.413C333.845 438.615 332.835 438.941 331.876 439.385C331.346 439.653 330.89 440.046 330.546 440.53C330.364 440.757 330.249 441.031 330.215 441.321C330.18 441.61 330.228 441.903 330.352 442.167C330.53 442.403 330.763 442.592 331.03 442.718C331.297 442.845 331.591 442.905 331.886 442.893C332.483 442.89 333.07 442.739 333.594 442.453C334.499 441.937 335.253 441.193 335.782 440.295C336.713 438.72 337.092 437.616 337.224 437.667Z" fill="#263238"/>
<path d="M336.805 442.023C336.682 441.921 337.275 441.134 337.449 439.978C337.623 438.822 337.336 437.933 337.449 437.851C337.708 438.151 337.889 438.511 337.975 438.898C338.06 439.286 338.048 439.688 337.94 440.07C337.766 441.389 336.886 442.136 336.805 442.023Z" fill="#263238"/>
<path d="M339.084 434.875C339.217 434.875 339.084 435.693 338.644 436.532C338.205 437.37 337.622 437.902 337.509 437.82C337.397 437.738 337.755 437.074 338.174 436.286C338.593 435.499 338.941 434.824 339.084 434.875Z" fill="#263238"/>
<path d="M355.459 427.266C354.757 427.731 353.993 428.093 353.188 428.34C349.365 429.766 345.286 430.379 341.213 430.14C340.372 430.136 339.535 430.015 338.728 429.782C341.563 429.816 344.399 429.669 347.216 429.342C350.006 428.83 352.759 428.137 355.459 427.266Z" fill="#FF725E"/>
<path d="M352.923 443.844C351.077 444.241 349.196 444.46 347.308 444.498C345.434 444.714 343.545 444.755 341.663 444.621C343.509 444.224 345.389 444.005 347.278 443.966C349.151 443.751 351.041 443.71 352.923 443.844Z" fill="#FF725E"/>
<path d="M366.493 444.243C367.774 444.062 369.002 443.609 370.093 442.913C371.245 442.127 372.169 441.051 372.772 439.794C373.467 438.242 373.66 436.512 373.325 434.844C373 433.166 372.213 431.611 371.054 430.355C370.097 429.338 368.951 428.518 367.68 427.941C366.472 427.451 365.218 427.084 363.937 426.847C364.292 426.782 364.655 426.782 365.01 426.847C365.976 426.96 366.923 427.204 367.823 427.573C369.175 428.121 370.398 428.947 371.412 429.997C372.66 431.306 373.505 432.946 373.846 434.722C374.208 436.5 373.986 438.347 373.212 439.988C372.553 441.308 371.545 442.423 370.298 443.21C369.464 443.736 368.531 444.084 367.557 444.232C367.206 444.303 366.845 444.306 366.493 444.243Z" fill="#FF725E"/>
<path d="M301.799 419.105L328.389 430.917C328.648 434.297 328.087 437.69 326.753 440.806C324.81 444.795 318.909 443.997 318.909 443.997L295.51 438.556L300.725 435.488L301.799 419.105Z" fill="#FFBE9D"/>
<path d="M325.565 442.903C324.513 442.167 323.552 441.308 322.701 440.346C321.852 439.372 321.374 438.13 321.352 436.838C321.467 435.675 321.86 434.556 322.497 433.576C323.041 432.391 323.976 431.431 325.146 430.856C326.618 430.303 328.214 430.937 329.656 431.643L329.932 437.575L325.565 442.903Z" fill="#E0E0E0"/>
<path d="M328.427 430.917C328.366 431.05 322.363 428.514 315.01 425.251C307.657 421.989 301.715 419.238 301.797 419.115C301.879 418.992 307.871 421.508 315.225 424.771C322.578 428.033 328.489 430.774 328.427 430.917Z" fill="#EB996E"/>
<path d="M358.7 323.689C358.956 323.703 359.212 323.666 359.454 323.58C359.696 323.494 359.918 323.361 360.108 323.189C360.298 323.017 360.452 322.809 360.562 322.577C360.671 322.345 360.733 322.094 360.745 321.838C361.042 313.431 355.499 294.389 352.84 286.484C351.214 281.657 345.681 278.129 341.877 275.531C337.234 272.391 320.82 268.546 315.41 267.053H313.589L288.442 265.181L274.625 271.798C274.625 271.798 255.471 279.059 249.917 289.184C244.364 299.308 240.141 328.894 240.141 328.894C240.141 328.894 237.594 337.352 240.141 341.167C241.726 343.549 247.627 345.615 252.934 346.628C250.061 356.2 252.331 363.308 252.229 364.525C252.014 367.04 250.081 372.9 254.611 372.542C259.142 372.185 294.568 362.827 305.091 362.408C314.001 362.166 322.811 364.328 330.597 368.667C335.904 371.643 335.863 371.857 337.755 366.621C339.647 361.385 333.603 355.484 333.603 355.484C333.603 355.484 339.024 335.9 341.55 323.096L358.7 323.689Z" fill="#5B5863"/>
<path d="M269.727 340.594C269.319 340.669 268.904 340.7 268.489 340.686C267.692 340.686 266.536 340.737 265.104 340.686C261.384 340.663 257.67 340.386 253.988 339.858C250.305 339.341 246.692 338.407 243.219 337.076C242.171 336.673 241.147 336.212 240.151 335.695C239.769 335.532 239.408 335.323 239.077 335.071C239.077 334.99 240.693 335.767 243.372 336.728C246.863 337.948 250.462 338.832 254.121 339.367C257.784 339.878 261.47 340.202 265.166 340.338L268.541 340.471C268.939 340.469 269.337 340.51 269.727 340.594Z" fill="#4C4954"/>
<path d="M322.907 350.186C322.825 350.459 322.7 350.718 322.539 350.953C322.155 351.613 321.735 352.252 321.281 352.866C318.264 356.952 314.186 360.135 309.489 362.07C308.784 362.369 308.059 362.622 307.321 362.827C307.058 362.925 306.783 362.983 306.503 363C306.503 362.908 307.597 362.53 309.336 361.732C311.588 360.677 313.718 359.377 315.687 357.856C317.642 356.318 319.419 354.565 320.984 352.63C322.14 351.148 322.784 350.145 322.907 350.186Z" fill="#4C4954"/>
<path d="M323.315 358.041C322.841 358.575 322.277 359.022 321.648 359.36C320.208 360.291 318.663 361.05 317.046 361.62C315.428 362.19 313.75 362.574 312.045 362.766C311.341 362.887 310.622 362.887 309.918 362.766C312.268 362.37 314.588 361.813 316.862 361.099C319.081 360.23 321.237 359.208 323.315 358.041Z" fill="#4C4954"/>
<path d="M359.211 319.189C358.396 319.348 357.565 319.413 356.736 319.383C355.202 319.383 353.085 319.383 350.753 319.383C348.421 319.383 346.304 319.138 344.781 318.974C343.95 318.938 343.127 318.808 342.326 318.586C343.149 318.505 343.978 318.505 344.801 318.586L350.774 318.841L356.736 319.046C357.563 319.009 358.393 319.057 359.211 319.189Z" fill="#4C4954"/>
<path d="M339.268 289.869C339.424 290.307 339.54 290.759 339.615 291.219C339.82 292.241 340.086 293.438 340.393 294.931C341.027 298.071 341.937 302.417 342.438 307.295C342.913 311.466 342.892 315.678 342.377 319.843C342.141 321.429 341.906 322.707 341.681 323.576C341.595 324.036 341.468 324.488 341.303 324.926C341.313 324.458 341.372 323.992 341.477 323.535C341.64 322.666 341.824 321.377 341.998 319.792C342.406 315.652 342.375 311.48 341.906 307.346C341.364 302.509 340.515 298.142 339.984 295.003C339.707 293.428 339.493 292.139 339.37 291.259C339.283 290.801 339.249 290.335 339.268 289.869Z" fill="#4C4954"/>
<path d="M274.34 315.855C274.36 316.252 274.336 316.65 274.269 317.041C274.187 317.798 274.054 318.882 273.88 320.222C273.522 322.911 272.98 326.624 272.233 330.694C271.629 334.181 270.823 337.63 269.82 341.023C269.51 342.049 269.141 343.056 268.715 344.04C268.568 344.401 268.379 344.744 268.153 345.063C268.071 345.063 268.787 343.508 269.462 340.89C270.137 338.272 270.965 334.631 271.712 330.571C272.458 326.511 273.052 322.819 273.512 320.15C273.723 318.903 273.907 317.849 274.064 316.99C274.111 316.602 274.204 316.221 274.34 315.855Z" fill="#4C4954"/>
<path d="M270.893 299.564C271.33 300.193 271.674 300.882 271.916 301.609C273.302 304.971 274.198 308.515 274.575 312.132C274.685 312.878 274.685 313.636 274.575 314.382C274.411 314.382 274.094 310.987 273.051 306.907C272.008 302.826 270.75 299.625 270.893 299.564Z" fill="#4C4954"/>
<g opacity="0.3">
<path opacity="0.3" d="M318.18 363.819C319.386 364.136 321.698 360.485 323.037 358.245C318.947 360.515 314.999 363.236 310.417 362.244C312.964 361.563 315.304 360.265 317.23 358.465C319.156 356.666 320.61 354.419 321.462 351.925C318.263 356.807 313.538 360.492 308.024 362.407C308.024 362.407 316.267 363.317 318.18 363.819Z" fill="black"/>
</g>
<path d="M270.894 255.261C270.894 255.261 271.589 255.547 272.939 255.834C274.785 256.275 276.726 256.085 278.451 255.292C279.612 254.721 280.58 253.821 281.233 252.704C281.613 252.082 281.85 251.383 281.928 250.658C282.006 249.933 281.922 249.2 281.683 248.511C281.441 247.746 281 247.059 280.405 246.52C279.811 245.98 279.083 245.609 278.298 245.443C277.452 245.348 276.597 245.526 275.86 245.954C275.124 246.381 274.544 247.034 274.207 247.816C274.052 248.209 273.981 248.63 273.997 249.053C274.013 249.475 274.116 249.89 274.299 250.27C274.685 251.018 275.292 251.629 276.038 252.019C276.748 252.423 277.552 252.632 278.369 252.623C279.158 252.604 279.934 252.423 280.65 252.091C281.993 251.444 283.164 250.487 284.066 249.299C284.883 248.281 285.545 247.147 286.029 245.934C286.729 244.164 287.077 242.274 287.052 240.371C287.052 239.031 286.878 238.326 286.929 238.274C287.002 238.444 287.05 238.623 287.072 238.806C287.169 239.323 287.23 239.846 287.256 240.371C287.351 242.314 287.034 244.255 286.326 246.067C285.85 247.328 285.189 248.511 284.362 249.575C283.431 250.832 282.21 251.846 280.803 252.531C280.028 252.899 279.186 253.105 278.328 253.134C277.42 253.147 276.525 252.921 275.731 252.479C274.89 252.037 274.207 251.343 273.778 250.495C273.557 250.051 273.434 249.566 273.414 249.071C273.395 248.575 273.48 248.082 273.665 247.622C274.042 246.73 274.699 245.986 275.537 245.5C276.374 245.015 277.347 244.816 278.308 244.932C279.18 245.106 279.99 245.51 280.652 246.104C281.314 246.698 281.804 247.459 282.071 248.307C282.327 249.062 282.412 249.864 282.322 250.656C282.232 251.448 281.968 252.21 281.55 252.889C280.836 254.062 279.795 255.001 278.553 255.588C276.747 256.39 274.718 256.535 272.816 255.997C272.307 255.869 271.811 255.694 271.333 255.476C271.18 255.42 271.032 255.348 270.894 255.261Z" fill="#263238"/>
<path d="M351.07 232.691C351.285 230.612 351.052 228.512 350.387 226.531C349.722 224.55 348.64 222.734 347.215 221.206C345.762 219.7 343.951 218.588 341.952 217.972C339.952 217.357 337.829 217.259 335.781 217.688C332.834 218.236 330.121 219.662 327.999 221.779C327.345 222.434 326.812 223.199 326.424 224.039C326.352 224.162 326.291 224.295 326.219 224.428C326.147 224.56 326.066 224.765 325.994 224.939V225.021C324.728 227.916 324.413 231.139 325.094 234.225C325.643 236.554 326.776 238.705 328.386 240.474C329.996 242.244 332.031 243.574 334.298 244.339C336.591 245.029 339.03 245.078 341.348 244.479C343.667 243.88 345.777 242.658 347.45 240.944C349.534 238.667 350.807 235.766 351.07 232.691Z" fill="#2F2D36"/>
<path d="M349.239 239.522C349.147 239.522 348.963 238.356 348.217 236.607C347.291 234.325 345.854 232.286 344.015 230.647C342.176 229.009 339.985 227.815 337.611 227.158C335.791 226.647 334.543 226.606 334.605 226.503C334.882 226.457 335.166 226.457 335.443 226.503C336.205 226.544 336.961 226.654 337.703 226.831C340.181 227.401 342.474 228.587 344.372 230.278C346.27 231.969 347.712 234.11 348.564 236.505C348.823 237.223 349.018 237.962 349.147 238.714C349.222 238.977 349.253 239.25 349.239 239.522Z" fill="#44414B"/>
<path d="M345.241 231.443C345.055 232.287 344.741 233.098 344.311 233.847C343.357 235.707 342.13 237.413 340.67 238.909C339.2 240.392 337.514 241.643 335.669 242.621C334.93 243.079 334.127 243.424 333.286 243.644C333.184 243.47 336.927 242.018 340.292 238.531C343.656 235.043 345.078 231.341 345.241 231.443Z" fill="#44414B"/>
<path d="M334.205 227.045C334.052 226.953 335.279 225 336.251 222.382C336.797 220.782 337.157 219.125 337.325 217.442C337.503 217.926 337.566 218.444 337.509 218.956C337.455 220.193 337.2 221.412 336.752 222.566C336.197 224.208 335.332 225.728 334.205 227.045Z" fill="#FD3E72"/>
<path d="M334.36 223.487C334.61 217.651 332.638 211.937 328.843 207.496C325.048 203.055 319.71 200.218 313.906 199.556C310.91 199.222 307.877 199.495 304.989 200.36C302.101 201.225 299.417 202.663 297.097 204.588C294.777 206.514 292.869 208.887 291.488 211.567C290.106 214.246 289.279 217.177 289.055 220.184L287.01 270.663C286.973 271.64 287.265 272.602 287.838 273.394C291.022 277.763 295.798 280.702 301.133 281.575C305.756 282.027 310.402 280.972 314.377 278.568C315.024 278.185 315.559 277.639 315.929 276.984C316.299 276.329 316.49 275.588 316.484 274.836V263.586C316.484 263.567 316.491 263.549 316.505 263.536C316.518 263.522 316.536 263.515 316.555 263.515C317.611 263.575 318.67 263.527 319.715 263.371C322.691 262.584 330.249 259.516 332.591 248.297C333.276 244.493 333.941 233.959 334.36 223.487Z" fill="#FFBE9D"/>
<path d="M316.391 263.443C316.391 263.443 308.67 263.668 299.302 257.491C299.302 257.491 301.879 267.646 316.391 267.053V263.443Z" fill="#EB996E"/>
<path d="M315.583 196.969C314.561 195.22 312.515 194.453 310.388 194.156C301.532 192.99 291.775 198.492 286.969 206.019C282.162 213.546 282.101 224.683 285.875 232.762L289.198 233.284C296.091 232.742 307.341 213.301 316.811 202.501C317.987 201.172 316.524 198.523 315.583 196.969Z" fill="#2F2D36"/>
<path d="M332.602 202.481C328.838 198.39 322.733 193.338 315.124 196.345C314.03 198.513 316.362 201.264 318.284 202.849C321.117 205.191 323.582 206.756 325.443 208.423C329.196 211.808 333.88 217.432 334.361 223.763C334.361 224.162 334.698 224.213 335.097 224.141C335.496 224.07 336.744 221.452 337.296 218.005C338.441 210.683 336.375 206.612 332.602 202.481Z" fill="#2F2D36"/>
<path d="M289.74 221.738C289.332 220.046 288.534 218.474 287.408 217.146C286.673 216.274 285.803 215.524 284.831 214.927C283.014 213.888 280.963 213.328 278.871 213.297C276.778 213.267 274.712 213.768 272.866 214.753C271.047 215.772 269.468 217.167 268.233 218.846C266.998 220.526 266.137 222.45 265.707 224.489C265.002 227.501 265.315 230.662 266.597 233.478C267.667 235.62 269.305 237.427 271.332 238.702C273.359 239.977 275.697 240.671 278.092 240.709C280.487 240.683 282.836 240.046 284.917 238.86C286.998 237.673 288.743 235.976 289.985 233.928C291.683 231.044 291.202 225.951 289.74 221.738Z" fill="#2F2D36"/>
<path d="M291.316 229.224C291.112 229.122 282.889 226.044 282.531 234.634C282.173 243.225 290.876 241.793 290.897 241.568C290.917 241.343 291.316 229.224 291.316 229.224Z" fill="#FFBE9D"/>
<path d="M288.409 238.203C288.409 238.203 288.256 238.305 288 238.408C287.639 238.551 287.236 238.551 286.875 238.408C285.985 238.029 285.28 236.556 285.3 235.012C285.307 234.274 285.482 233.546 285.812 232.885C285.904 232.62 286.059 232.381 286.264 232.188C286.469 231.996 286.717 231.856 286.988 231.781C287.161 231.743 287.342 231.768 287.499 231.85C287.656 231.932 287.779 232.067 287.847 232.231C287.959 232.476 287.898 232.64 287.939 232.66C287.98 232.681 288.133 232.527 288.072 232.169C288.04 231.952 287.926 231.754 287.755 231.617C287.526 231.427 287.232 231.335 286.936 231.361C286.582 231.418 286.247 231.564 285.964 231.786C285.682 232.008 285.46 232.298 285.321 232.629C284.927 233.359 284.716 234.173 284.707 235.002C284.707 236.73 285.505 238.387 286.752 238.806C286.981 238.883 287.224 238.907 287.463 238.877C287.702 238.847 287.931 238.763 288.133 238.633C288.389 238.408 288.44 238.223 288.409 238.203Z" fill="#EB996E"/>
<path d="M310.388 194.187C310.964 194.074 311.561 194.116 312.116 194.31C313.479 194.699 314.703 195.469 315.644 196.529C315.915 196.846 316.154 197.189 316.36 197.552C316.539 197.876 316.683 198.219 316.79 198.574C316.997 199.161 317.157 199.763 317.27 200.374C317.423 200.948 317.38 201.556 317.148 202.102C317.056 202.102 317.148 201.438 316.902 200.456C316.741 199.872 316.547 199.299 316.319 198.738C316.217 198.404 316.08 198.082 315.91 197.777C315.717 197.46 315.494 197.162 315.245 196.887C314.361 195.895 313.248 195.133 312.004 194.668C311.042 194.33 310.388 194.279 310.388 194.187Z" fill="#44414B"/>
<path d="M287.717 228.477C287.635 228.477 287.891 227.587 288.075 226.176C288.305 224.335 288.198 222.467 287.758 220.664C287.291 218.873 286.4 217.221 285.16 215.847C284.138 214.824 283.422 214.323 283.483 214.231C283.545 214.139 283.698 214.303 284.056 214.517C284.55 214.806 285.009 215.149 285.426 215.54C286.808 216.9 287.791 218.611 288.269 220.49C288.744 222.353 288.803 224.298 288.443 226.186C288.344 226.988 288.098 227.765 287.717 228.477Z" fill="#FD3E72"/>
<path d="M288.359 226.626C288.308 226.698 287.254 226.023 285.444 225.123C280.724 222.79 275.511 221.629 270.247 221.738C268.202 221.738 266.995 221.942 266.975 221.86C267.248 221.743 267.538 221.671 267.834 221.646C268.628 221.502 269.431 221.407 270.237 221.359C275.571 221.044 280.887 222.234 285.577 224.796C286.285 225.174 286.969 225.597 287.623 226.064C288.134 226.36 288.379 226.555 288.359 226.626Z" fill="#44414B"/>
<path d="M280.536 223.169C280.447 224.039 280.23 224.89 279.892 225.695C279.18 227.673 278.214 229.55 277.018 231.279C275.817 233.006 274.393 234.568 272.784 235.922C272.151 236.522 271.43 237.022 270.646 237.405C272.849 235.48 274.837 233.323 276.578 230.972C278.171 228.519 279.497 225.904 280.536 223.169Z" fill="#44414B"/>
<path d="M286.191 239.86C286.252 239.696 286.559 239.594 287.07 239.727C287.81 239.951 288.447 240.429 288.87 241.077C289.438 241.928 289.658 242.964 289.485 243.972C289.312 244.98 288.759 245.884 287.94 246.497C287.253 246.988 286.435 247.262 285.591 247.284C284.747 247.306 283.916 247.075 283.205 246.619C282.577 246.209 282.063 245.646 281.712 244.983C281.388 244.383 281.219 243.712 281.221 243.03C281.241 242.478 281.37 241.936 281.599 241.434C281.889 240.696 282.453 240.099 283.174 239.768C283.716 239.563 284.043 239.706 284.084 239.87C284.146 240.238 283.501 240.729 283.399 241.987C283.353 242.292 283.353 242.602 283.399 242.907C283.48 243.205 283.616 243.486 283.798 243.736C283.986 244.01 284.237 244.234 284.531 244.389C284.826 244.544 285.153 244.625 285.485 244.625C285.8 244.63 286.11 244.547 286.379 244.384C286.649 244.221 286.867 243.986 287.009 243.705C287.291 243.163 287.354 242.533 287.183 241.946C286.876 240.811 286.089 240.207 286.191 239.86Z" fill="#FD3E72"/>
<path d="M294.894 226.268C296.645 226.144 298.379 225.839 300.068 225.358C304.1 224.016 307.654 221.528 310.295 218.199C312.884 214.836 314.826 211.022 316.022 206.95C316.513 205.385 316.85 204.107 317.045 203.227C317.131 202.759 317.261 202.301 317.433 201.857C317.414 202.332 317.349 202.805 317.239 203.268C317.086 204.168 316.799 205.467 316.36 207.052C315.248 211.221 313.315 215.126 310.674 218.537C307.975 221.933 304.309 224.43 300.16 225.696C298.906 226.062 297.611 226.272 296.305 226.319C295.964 226.336 295.623 226.336 295.282 226.319C295.027 226.299 294.894 226.289 294.894 226.268Z" fill="#263238"/>
<path d="M305.346 343.13C305 343.113 304.664 343.013 304.365 342.838C304.066 342.663 303.814 342.419 303.631 342.126C303.447 341.832 303.337 341.499 303.309 341.154C303.282 340.809 303.339 340.462 303.474 340.144C306.236 333.926 313.773 321.961 314.264 321.184C314.979 320.099 315.358 318.76 317.649 318.484C318.528 318.381 332.334 318.064 335.576 317.993C335.838 317.982 336.1 318.024 336.345 318.115C336.591 318.207 336.816 318.346 337.008 318.525C337.652 319.138 338.327 320.304 337.305 322.135C336.159 324.18 327.814 337.137 324.429 342.128C324.098 342.614 323.65 343.008 323.127 343.275C322.603 343.541 322.02 343.671 321.433 343.652L305.346 343.13Z" fill="#263238"/>
<path d="M326.65 322.452C326.518 322.296 326.342 322.184 326.145 322.129C325.948 322.074 325.739 322.08 325.545 322.145C325.174 322.267 324.84 322.481 324.574 322.769C324.418 322.897 324.312 323.075 324.275 323.273C324.237 323.472 324.271 323.677 324.369 323.853C324.485 323.979 324.631 324.075 324.794 324.13C324.957 324.186 325.131 324.199 325.3 324.17C325.736 324.144 326.148 323.958 326.456 323.648C326.604 323.491 326.701 323.293 326.736 323.08C326.77 322.866 326.74 322.648 326.65 322.452Z" fill="white"/>
<path d="M333.746 325.264C333.886 324.848 334.068 324.447 334.288 324.067C334.493 323.668 334.718 323.208 334.984 322.707C335.127 322.441 335.27 322.155 335.424 321.858C335.611 321.587 335.73 321.275 335.771 320.948C335.777 320.782 335.741 320.616 335.668 320.467C335.595 320.317 335.487 320.187 335.352 320.089C335.193 319.988 335.015 319.92 334.829 319.888C334.642 319.856 334.452 319.862 334.268 319.905L331.445 320.017L324.992 320.242L318.529 320.437H317.813C317.62 320.453 317.436 320.524 317.281 320.641C316.999 320.954 316.752 321.297 316.545 321.664C316.074 322.4 315.635 323.096 315.215 323.709L313.272 326.685C313.049 327.052 312.789 327.395 312.495 327.708C312.652 327.298 312.855 326.907 313.098 326.542L314.898 323.474L316.167 321.367L316.514 320.795C316.635 320.568 316.794 320.364 316.985 320.191C317.205 320.007 317.476 319.893 317.762 319.864H318.519L324.951 319.69L331.415 319.506L334.227 319.445C334.702 319.366 335.188 319.472 335.587 319.741C335.765 319.884 335.907 320.067 336.001 320.275C336.095 320.483 336.139 320.71 336.129 320.938C336.12 321.15 336.06 321.357 335.955 321.541L335.7 322.001L335.219 322.83C334.933 323.321 334.677 323.76 334.442 324.149C334.253 324.546 334.019 324.92 333.746 325.264Z" fill="#455A64"/>
<path d="M356.859 323.709C356.859 323.709 355.458 333.445 354.026 339.704C352.748 345.278 350.712 364.115 345.538 366.488C340.363 368.861 333.91 367.378 331.527 362.786C329.144 358.194 326.587 345.973 326.587 345.973L315.747 341.412C315.747 341.412 313.252 332.32 314.673 331.298C316.095 330.275 330.085 331.809 330.085 331.809L333.838 330.96C333.838 330.96 327.866 330.101 326.587 329.764C326.297 329.722 326.018 329.622 325.767 329.469C325.517 329.316 325.3 329.114 325.13 328.875C324.959 328.636 324.84 328.365 324.777 328.078C324.715 327.791 324.711 327.495 324.767 327.207C325.064 326.01 325.309 324.814 328.541 324.814C331.772 324.814 336.845 324.333 337.745 324.65C338.89 325.039 340.179 325.673 340.434 328.567C340.69 331.461 339.33 336.749 339.33 336.749L339.627 337.199L341.539 323.106L356.859 323.709Z" fill="#FFBE9D"/>
<path d="M338.654 340.522C338.383 340.689 338.086 340.806 337.775 340.87C336.96 341.144 336.13 341.369 335.289 341.545C332.514 342.149 329.667 342.366 326.832 342.189C323.992 342.007 321.196 341.397 318.538 340.379C317.732 340.09 316.947 339.749 316.186 339.357C315.894 339.233 315.622 339.068 315.378 338.866C315.378 338.784 316.626 339.357 318.671 340.052C321.318 340.939 324.067 341.485 326.852 341.678C329.638 341.833 332.432 341.661 335.177 341.167C337.345 340.799 338.634 340.441 338.654 340.522Z" fill="#EB996E"/>
<path d="M336.6 336.616C336.322 336.752 336.025 336.845 335.72 336.892C335.147 337.035 334.309 337.219 333.266 337.393C330.529 337.852 327.745 337.955 324.982 337.7C322.208 337.435 319.509 336.651 317.025 335.389C316.278 335.005 315.563 334.56 314.888 334.059C314.418 333.701 314.172 333.476 314.193 333.445C314.213 333.415 315.297 334.161 317.189 335.051C319.672 336.185 322.326 336.9 325.043 337.168C327.768 337.417 330.511 337.366 333.225 337.015C335.301 336.769 336.589 336.534 336.6 336.616Z" fill="#EB996E"/>
<path d="M339.984 326.562C340.046 326.562 340.24 327.043 340.189 327.872C340.174 328.377 340.037 328.872 339.79 329.314C339.618 329.583 339.378 329.802 339.094 329.948C338.822 330.102 338.534 330.229 338.235 330.326C337.224 330.64 336.175 330.819 335.116 330.858C334.693 330.918 334.266 330.952 333.838 330.96C333.838 330.888 334.267 330.633 335.065 330.49C336.081 330.335 337.085 330.113 338.072 329.825C338.573 329.696 339.028 329.426 339.381 329.048C339.606 328.675 339.755 328.261 339.821 327.831C339.848 327.405 339.902 326.981 339.984 326.562Z" fill="#EB996E"/>
<path d="M334.831 342.946C334.964 343.222 335.032 343.524 335.032 343.83C335.032 344.137 334.964 344.439 334.831 344.715C334.619 345.351 334.242 345.92 333.737 346.362C333.117 346.899 332.359 347.253 331.548 347.384C330.753 347.522 329.936 347.487 329.155 347.282C328.537 347.106 327.941 346.862 327.376 346.556C326.841 346.323 326.333 346.032 325.862 345.687C326.447 345.75 327.013 345.927 327.529 346.208C328.743 346.816 330.111 347.044 331.456 346.863C332.173 346.749 332.849 346.453 333.42 346.004C333.865 345.622 334.215 345.142 334.443 344.603C334.648 344.071 334.779 343.513 334.831 342.946Z" fill="#EB996E"/>
<path d="M339.34 325.581C339.34 325.581 339.412 325.581 339.535 325.694C339.709 325.836 339.854 326.009 339.964 326.205C340.347 326.935 340.557 327.743 340.578 328.567C340.637 331.357 340.293 334.14 339.555 336.831V336.687C340.081 338.084 340.728 339.432 341.488 340.717C342.54 342.501 343.716 344.21 345.006 345.83C346.181 347.099 347.21 348.495 348.074 349.992C348.609 351.069 348.715 352.308 348.37 353.459C348.266 353.766 348.111 354.053 347.91 354.308C347.777 354.472 347.685 354.543 347.675 354.533C347.872 354.17 348.037 353.79 348.166 353.398C348.419 352.301 348.266 351.149 347.736 350.156C346.85 348.718 345.822 347.372 344.668 346.137C343.34 344.526 342.137 342.817 341.069 341.024C340.297 339.721 339.644 338.352 339.115 336.933V336.851V336.779C339.844 334.129 340.235 331.397 340.281 328.649C340.286 327.864 340.137 327.086 339.841 326.358C339.69 326.089 339.523 325.83 339.34 325.581Z" fill="#EB996E"/>
<path d="M243.637 343.774C243.637 343.774 242.052 365.516 252.166 369.157C266.105 374.189 281.998 360.301 282.059 360.076C282.121 359.851 298.974 346.28 298.974 346.28L293.728 331.829C293.728 331.829 291.621 331.829 288.216 334.263C286.978 335.143 267.445 345.441 267.445 345.441C267.445 345.441 258.916 345.369 243.637 343.774Z" fill="#FFBE9D"/>
<path d="M268.152 345.114C268.223 345.278 264.542 346.771 260.093 348.765C257.874 349.788 255.92 350.811 254.519 351.547C253.789 352.009 253.023 352.413 252.229 352.754C252.859 352.154 253.563 351.639 254.325 351.22C256.111 350.123 257.966 349.143 259.878 348.285C262.108 347.262 264.173 346.464 265.677 345.912C266.474 345.567 267.303 345.3 268.152 345.114Z" fill="#EB996E"/>
<path d="M312.412 323.955C312.412 323.955 309.774 320.222 308.731 320.232C307.688 320.242 301.398 321.255 301.398 321.255L292.511 330.939C292.511 330.939 291.898 334.079 293.82 335.214C293.82 335.214 293.176 340.154 295.548 341.575C295.548 341.575 297.318 346.218 298.974 346.31C299.675 346.373 300.38 346.373 301.081 346.31C301.081 346.31 300.723 349.102 303.249 349.276C305.754 349.238 308.252 348.989 310.715 348.53C311.079 348.468 311.427 348.336 311.74 348.139C312.052 347.943 312.323 347.686 312.535 347.384L314.703 344.316C315.045 343.841 315.229 343.27 315.229 342.685C315.229 342.099 315.045 341.529 314.703 341.054C315.273 340.378 315.717 339.606 316.012 338.773C316.155 337.807 316.155 336.825 316.012 335.859C316.012 335.859 319.766 332.678 319.858 331.85C319.95 331.021 319.766 330.224 318.109 330.316C318.109 330.316 317.761 327.749 315.665 327.81C313.568 327.871 303.638 327.81 303.638 327.81L305.53 325.969C305.53 325.969 310.469 327.851 310.991 326.603L312.412 323.955Z" fill="#FFBE9D"/>
<path d="M298.157 335.081C298.692 335.003 299.232 334.966 299.773 334.969C300.796 334.908 302.309 334.815 304.171 334.601C306.362 334.341 308.538 333.955 310.685 333.445C311.902 333.148 313.17 332.801 314.479 332.422C315.78 331.922 316.953 331.14 317.915 330.132L317.977 330.08H318.048C318.535 329.963 319.047 330.014 319.501 330.224C319.744 330.378 319.926 330.613 320.012 330.888C320.081 331.131 320.112 331.383 320.104 331.635C320.119 331.747 320.119 331.86 320.104 331.972C320.079 332.108 320.027 332.236 319.951 332.351C319.836 332.53 319.71 332.7 319.572 332.862C319.316 333.169 319.03 333.455 318.754 333.742C318.192 334.304 317.629 334.826 317.056 335.327C315.093 336.892 313.045 338.346 310.92 339.683C309.184 340.73 307.259 341.425 305.255 341.729C303.929 341.93 302.579 341.895 301.266 341.627C300.918 341.554 300.576 341.455 300.244 341.33C300.123 341.299 300.009 341.247 299.906 341.177C301.641 341.62 303.449 341.693 305.214 341.391C307.156 341.059 309.019 340.365 310.706 339.346C312.638 338.19 314.592 336.585 316.75 334.959C317.312 334.458 317.875 333.936 318.417 333.384C318.693 333.108 318.959 332.831 319.204 332.535C319.449 332.238 319.439 332.238 319.541 332.095C319.644 331.952 319.623 331.932 319.623 331.921C319.634 331.833 319.634 331.744 319.623 331.655C319.623 331.226 319.552 330.847 319.276 330.704C318.932 330.561 318.552 330.532 318.192 330.622L318.335 330.561C317.797 331.065 317.226 331.533 316.627 331.962C316.05 332.424 315.391 332.771 314.684 332.985C313.364 333.394 312.076 333.731 310.838 334.008C308.672 334.493 306.475 334.835 304.263 335.03C302.381 335.214 300.867 335.245 299.824 335.245C299.303 335.245 298.904 335.245 298.628 335.245C298.464 335.214 298.305 335.159 298.157 335.081Z" fill="#EB996E"/>
<path d="M316.004 335.838C316.163 336.341 316.235 336.866 316.219 337.393C316.219 337.638 316.219 337.914 316.219 338.221C316.219 338.375 316.219 338.528 316.219 338.692C316.204 338.877 316.152 339.058 316.065 339.223C315.917 339.575 315.746 339.917 315.554 340.246L315.247 340.757L315.083 341.013C315.053 341.07 315.019 341.124 314.981 341.177L314.91 341.238C314.858 341.238 314.91 341.31 314.664 341.238C314.618 341.209 314.583 341.164 314.566 341.112C314.55 341.059 314.552 341.003 314.572 340.952C314.569 340.935 314.569 340.918 314.572 340.901L314.623 340.829L315.032 341.075C314.364 342.29 313.48 343.375 312.425 344.275C310.647 345.806 308.424 346.724 306.084 346.894C305.402 346.944 304.716 346.923 304.039 346.832C303.782 346.815 303.53 346.757 303.292 346.658C303.292 346.556 304.376 346.74 306.094 346.525C308.322 346.247 310.419 345.323 312.128 343.866C313.134 342.991 313.988 341.954 314.654 340.798L315.073 341.044C315.715 339.385 316.031 337.617 316.004 335.838Z" fill="#EB996E"/>
<path d="M305.755 326.031C305.755 326.153 304.733 325.775 304.232 324.589C304.056 324.1 304.028 323.57 304.15 323.065C304.252 322.686 304.395 322.482 304.457 322.502C304.518 322.523 304.375 323.453 304.733 324.405C305.091 325.356 305.858 325.898 305.755 326.031Z" fill="#EB996E"/>
<path d="M301.307 346.372C301.065 346.5 300.793 346.564 300.519 346.556C299.773 346.611 299.026 346.47 298.351 346.147C297.327 345.663 296.521 344.813 296.091 343.764C295.846 343.153 295.721 342.5 295.723 341.842C295.723 341.709 295.693 341.578 295.635 341.459C295.576 341.341 295.491 341.237 295.386 341.156C294.838 340.796 294.388 340.306 294.076 339.729C293.764 339.153 293.599 338.509 293.596 337.853C293.552 337.044 293.583 336.233 293.688 335.429L293.8 335.654C293.258 335.308 292.815 334.828 292.514 334.26C292.213 333.692 292.064 333.055 292.082 332.412C292.051 331.929 292.193 331.451 292.481 331.062C292.412 331.506 292.371 331.953 292.358 332.402C292.382 332.979 292.548 333.541 292.841 334.038C293.133 334.536 293.543 334.954 294.036 335.255L294.158 335.327V335.47C294.091 336.249 294.091 337.033 294.158 337.812C294.21 338.648 294.517 339.447 295.038 340.103C295.257 340.346 295.505 340.562 295.774 340.747C295.929 340.871 296.055 341.026 296.145 341.202C296.235 341.379 296.287 341.572 296.296 341.77C296.282 342.376 296.383 342.98 296.592 343.549C296.963 344.505 297.663 345.296 298.566 345.779C299.42 346.19 300.359 346.393 301.307 346.372Z" fill="#EB996E"/>
<g opacity="0.3">
<path opacity="0.3" d="M274.145 317.144C272.949 327.995 271.261 336.278 268.715 343.734C272.289 340.707 274.65 336.49 275.362 331.86C276.037 327.289 274.963 321.736 274.145 317.144Z" fill="black"/>
</g>
<g opacity="0.3">
<path opacity="0.3" d="M343.809 311.181C343.409 307.332 342.444 303.562 340.945 299.993C342.551 307.663 342.735 315.563 341.487 323.3L341.855 322.472C343.526 318.957 344.202 315.053 343.809 311.181Z" fill="black"/>
</g>
</g>
<defs>
<filter id="filter0_d" x="133.196" y="66.0002" width="335.647" height="417.668" filterUnits="userSpaceOnUse" color-interpolation-filters="sRGB">
<feFlood flood-opacity="0" result="BackgroundImageFix"/>
<feColorMatrix in="SourceAlpha" type="matrix" values="0 0 0 0 0 0 0 0 0 0 0 0 0 0 0 0 0 0 127 0" result="hardAlpha"/>
<feOffset dy="4"/>
<feGaussianBlur stdDeviation="3"/>
<feColorMatrix type="matrix" values="0 0 0 0 0 0 0 0 0 0 0 0 0 0 0 0 0 0 0.1 0"/>
<feBlend mode="normal" in2="BackgroundImageFix" result="effect1_dropShadow"/>
<feBlend mode="normal" in="SourceGraphic" in2="effect1_dropShadow" result="shape"/>
</filter>
<filter id="filter1_d" x="295.018" y="66" width="173.824" height="417.668" filterUnits="userSpaceOnUse" color-interpolation-filters="sRGB">
<feFlood flood-opacity="0" result="BackgroundImageFix"/>
<feColorMatrix in="SourceAlpha" type="matrix" values="0 0 0 0 0 0 0 0 0 0 0 0 0 0 0 0 0 0 127 0" result="hardAlpha"/>
<feOffset dy="4"/>
<feGaussianBlur stdDeviation="3"/>
<feColorMatrix type="matrix" values="0 0 0 0 0 0 0 0 0 0 0 0 0 0 0 0 0 0 0.1 0"/>
<feBlend mode="normal" in2="BackgroundImageFix" result="effect1_dropShadow"/>
<feBlend mode="normal" in="SourceGraphic" in2="effect1_dropShadow" result="shape"/>
</filter>
<filter id="filter2_d" x="127.016" y="187" width="345.806" height="380.317" filterUnits="userSpaceOnUse" color-interpolation-filters="sRGB">
<feFlood flood-opacity="0" result="BackgroundImageFix"/>
<feColorMatrix in="SourceAlpha" type="matrix" values="0 0 0 0 0 0 0 0 0 0 0 0 0 0 0 0 0 0 127 0" result="hardAlpha"/>
<feOffset dy="4"/>
<feGaussianBlur stdDeviation="5.5"/>
<feComposite in2="hardAlpha" operator="out"/>
<feColorMatrix type="matrix" values="0 0 0 0 0 0 0 0 0 0 0 0 0 0 0 0 0 0 0.25 0"/>
<feBlend mode="normal" in2="BackgroundImageFix" result="effect1_dropShadow"/>
<feBlend mode="normal" in="SourceGraphic" in2="effect1_dropShadow" result="shape"/>
</filter>
</defs>
</svg>
