<svg width="419" height="387" viewBox="0 0 419 387" fill="none" xmlns="http://www.w3.org/2000/svg">
<path d="M81.1761 23.9195C81.1761 23.9195 128.916 -12.6749 188.854 6.08822C248.793 24.8513 272.535 77.8646 306.127 114.841C323.751 134.213 350.332 141.981 371.47 157.125C439.026 205.548 425.593 309.24 371.138 346.815C323.995 379.349 266.308 381.144 192.154 353.681C117.999 326.218 64.8746 309.544 20.6206 236.336C-23.6334 163.127 22.2556 73.7844 81.1761 23.9195Z" fill="#FFD6E1"/>
<path d="M20.9553 217.297C20.9553 217.297 20.5637 212.501 26.722 205.224C32.8804 197.946 36.8848 193.758 36.8848 193.758C36.8848 193.758 41.1437 204.547 35.4651 211.756C31.2679 216.871 26.6502 221.625 21.6603 225.968L20.9553 217.297Z" fill="#FD3E72"/>
<path d="M33.1525 246.477C33.1525 246.477 32.7609 241.68 38.9193 234.403C45.0776 227.125 49.0723 222.937 49.0723 222.937C49.0723 222.937 53.3312 233.726 47.6526 240.935C43.4574 246.04 38.8429 250.784 33.8575 255.118L33.1525 246.477Z" fill="#FD3E72"/>
<path d="M22.0507 225.448C22.0507 225.448 21.1499 220.721 13.2391 215.356C5.32822 209.99 0.393736 207.019 0.393736 207.019C0.393736 207.019 -0.849699 218.533 6.55204 223.987C11.9524 227.786 17.6608 231.126 23.6172 233.971L22.0507 225.448Z" fill="#FD3E72"/>
<path d="M36.7143 259.885C36.7143 259.885 35.324 255.275 26.9236 250.763C18.5232 246.251 13.2754 243.819 13.2754 243.819C13.2754 243.819 13.2753 255.402 21.1764 260.042C26.9518 263.241 32.9843 265.951 39.2109 268.143L36.7143 259.885Z" fill="#FD3E72"/>
<path d="M37.6876 298.666C37.6876 298.666 37.296 293.87 30.0312 287.701C22.7665 281.531 18.1453 278.049 18.1453 278.049C18.1453 278.049 15.6976 289.368 22.4826 295.577C27.4517 299.938 32.7769 303.876 38.4023 307.346L37.6876 298.666Z" fill="#FD3E72"/>
<path d="M38.5651 308.082C38.5651 308.082 37.4979 303.384 42.5597 295.332C47.6215 287.279 50.9797 282.581 50.9797 282.581C50.9797 282.581 56.7268 292.634 52.135 300.599C48.7073 306.25 44.8133 311.605 40.4938 316.606L38.5651 308.082Z" fill="#FD3E72"/>
<path d="M47.465 335.466C47.465 335.466 47.0733 330.67 39.8086 324.501C32.5439 318.332 27.9227 314.85 27.9227 314.85C27.9227 314.85 25.4751 326.168 32.26 332.377C37.2291 336.739 42.5543 340.676 48.1797 344.147L47.465 335.466Z" fill="#FD3E72"/>
<path d="M45.0679 361.154C45.0679 361.154 45.9001 356.407 40.4369 348.6C34.9737 340.792 31.3804 336.241 31.3804 336.241C31.3804 336.241 26.1522 346.569 31.1455 354.298C34.8541 359.77 39.0133 364.921 43.5797 369.697L45.0679 361.154Z" fill="#FD3E72"/>
<path d="M20.2463 216.16C20.9989 221.116 22.022 226.028 23.3108 230.872C27.09 244.378 34.4428 252.685 38.1144 264.867C41.7859 277.049 35.4807 293.644 38.8291 309.406C42.1775 325.168 49.0897 333.505 48.1988 344.284C47.3078 355.063 40.3662 384.606 40.3662 384.606" stroke="#263238" stroke-width="0.53" stroke-linecap="round" stroke-linejoin="round"/>
<path d="M22.3789 228.626L14.6931 223.663" stroke="#263238" stroke-width="0.53" stroke-linecap="round" stroke-linejoin="round"/>
<path d="M21.5091 222.26L24.0938 216.621" stroke="#263238" stroke-width="0.53" stroke-linecap="round" stroke-linejoin="round"/>
<path d="M37.6602 264.338C37.6602 264.338 31.2375 260.287 24.6385 256.256" stroke="#263238" stroke-width="0.53" stroke-linecap="round" stroke-linejoin="round"/>
<path d="M33.8567 255.118C33.8567 255.118 38.0863 244.8 43.2656 237.757" stroke="#263238" stroke-width="0.53" stroke-linecap="round" stroke-linejoin="round"/>
<path d="M38.0078 305.522C34.0282 299.427 29.1868 293.943 23.635 289.241" stroke="#263238" stroke-width="0.53" stroke-linecap="round" stroke-linejoin="round"/>
<path d="M39.7345 312.163C41.2152 307.681 43.0655 303.331 45.2663 299.157C48.3699 293.645 48.8203 292.929 48.8203 292.929" stroke="#263238" stroke-width="0.53" stroke-linecap="round" stroke-linejoin="round"/>
<path d="M48.1953 344.284C46.3502 340.596 44.226 337.055 41.8411 333.691C39.4733 330.587 36.8536 327.684 34.0085 325.011" stroke="#263238" stroke-width="0.53" stroke-linecap="round" stroke-linejoin="round"/>
<path d="M43.5758 369.688C43.6307 366.016 42.7045 362.396 40.8932 359.203C37.956 354.524 34.588 348.365 33.1977 345.932" stroke="#263238" stroke-width="0.53" stroke-linecap="round" stroke-linejoin="round"/>
<path d="M70.1794 277.814C70.1794 277.814 70.4535 274.764 66.5666 270.105C62.6797 265.446 60.1537 262.759 60.1537 262.759C60.1537 262.759 57.3927 269.625 60.9761 274.225C63.6223 277.494 66.537 280.535 69.6899 283.317L70.1794 277.814Z" fill="#C6FF00"/>
<path d="M69.4233 282.993C69.4233 282.993 70.0206 279.982 75.053 276.608C80.0854 273.234 83.2674 271.36 83.2674 271.36C83.2674 271.36 84.0017 278.697 79.2728 282.149C75.8184 284.543 72.17 286.643 68.3659 288.427L69.4233 282.993Z" fill="#C6FF00"/>
<path d="M52.0949 360.487C52.0949 360.487 51.4976 357.476 46.4554 354.112C41.4131 350.748 38.2409 348.875 38.2409 348.875C38.2409 348.875 37.5164 356.211 42.2551 359.664C45.7131 362.054 49.3647 364.151 53.1719 365.931L52.0949 360.487Z" fill="#FD3E72"/>
<path d="M69.1945 285.023L74.1094 281.894" stroke="#263238" stroke-width="0.53" stroke-linecap="round" stroke-linejoin="round"/>
<path d="M69.7734 280.962L68.1579 277.363" stroke="#263238" stroke-width="0.53" stroke-linecap="round" stroke-linejoin="round"/>
<path d="M52.8906 363.685C51.0533 361.748 49.0481 359.979 46.8987 358.398C45.5423 357.562 44.2555 356.617 43.0509 355.573" stroke="#263238" stroke-width="0.53" stroke-linecap="round" stroke-linejoin="round"/>
<path d="M62.2536 296.332C62.2536 296.332 62.5278 293.282 58.6408 288.623C54.7539 283.964 52.2279 281.276 52.2279 281.276C52.2279 281.276 49.4669 288.142 53.0503 292.742C55.6965 296.011 58.6113 299.053 61.7641 301.834L62.2536 296.332Z" fill="#FD3E72"/>
<path d="M59.9226 304.846C59.9226 304.846 60.8331 301.903 66.1886 299.088C71.5441 296.273 74.9023 294.733 74.9023 294.733C74.9023 294.733 74.9024 302.099 69.8014 305.022C66.1152 307.038 62.267 308.74 58.2973 310.113L59.9226 304.846Z" fill="#FD3E72"/>
<path d="M59.1428 329.523C59.1428 329.523 59.4169 326.473 64.0381 322.579C68.6593 318.685 71.6455 316.488 71.6455 316.488C71.6455 316.488 73.1533 323.697 68.8062 327.62C65.624 330.365 62.218 332.839 58.6239 335.015L59.1428 329.523Z" fill="#FD3E72"/>
<path d="M58.5312 335.506C58.5312 335.506 59.2361 332.563 56.0542 327.355C52.8722 322.147 50.7477 319.175 50.7477 319.175C50.7477 319.175 47.0468 325.541 49.935 330.641C52.0899 334.253 54.5429 337.679 57.2682 340.881L58.5312 335.506Z" fill="#FD3E72"/>
<path d="M52.7327 352.896C52.7327 352.896 53.0069 349.846 57.628 345.952C62.2492 342.058 65.2354 339.861 65.2354 339.861C65.2354 339.861 66.7431 347.07 62.3961 350.993C59.2139 353.739 55.8079 356.212 52.2138 358.389L52.7327 352.896Z" fill="#FD3E72"/>
<path d="M54.1398 369.246C54.1398 369.246 53.6307 366.225 57.1455 361.282C60.6604 356.339 62.971 353.436 62.971 353.436C62.971 353.436 66.2509 360.036 63.0395 364.931C60.6556 368.395 57.9865 371.653 55.0601 374.67L54.1398 369.246Z" fill="#FD3E72"/>
<path d="M70.6133 277.069C70.1127 280.229 69.4394 283.359 68.5964 286.445C66.1292 295.028 61.4101 300.275 59.0211 308.024C56.6322 315.772 60.5583 326.355 58.3652 336.359C56.1721 346.364 51.7271 351.65 52.246 358.506C52.7649 365.362 57.0336 384.204 57.0336 384.204" stroke="#263238" stroke-width="0.53" stroke-linecap="round" stroke-linejoin="round"/>
<path d="M59.3108 307.67C59.3108 307.67 63.4228 305.12 67.6328 302.59" stroke="#263238" stroke-width="0.53" stroke-linecap="round" stroke-linejoin="round"/>
<path d="M61.7617 301.824C60.1852 297.936 58.2169 294.219 55.8872 290.731" stroke="#263238" stroke-width="0.53" stroke-linecap="round" stroke-linejoin="round"/>
<path d="M58.9021 333.858C61.4628 329.996 64.5694 326.527 68.125 323.56" stroke="#263238" stroke-width="0.53" stroke-linecap="round" stroke-linejoin="round"/>
<path d="M57.7734 338.095C56.8499 335.238 55.6906 332.462 54.3075 329.798C52.3494 326.276 52.0753 325.815 52.0753 325.815" stroke="#263238" stroke-width="0.53" stroke-linecap="round" stroke-linejoin="round"/>
<path d="M52.2208 358.506C53.4121 356.168 54.7802 353.926 56.3133 351.797C57.8335 349.831 59.5135 347.994 61.3359 346.305" stroke="#263238" stroke-width="0.53" stroke-linecap="round" stroke-linejoin="round"/>
<path d="M55.0453 374.69C55.0311 372.353 55.6395 370.054 56.8076 368.03C58.6874 365.088 60.8708 361.164 61.7617 359.625" stroke="#263238" stroke-width="0.53" stroke-linecap="round" stroke-linejoin="round"/>
<path d="M355.957 217.297C355.957 217.297 355.566 212.501 361.724 205.224C367.882 197.946 371.877 193.758 371.877 193.758C371.877 193.758 376.136 204.547 370.457 211.756C366.266 216.87 361.655 221.624 356.672 225.968L355.957 217.297Z" fill="#C6FF00"/>
<path d="M357.039 225.448C357.039 225.448 356.138 220.721 348.227 215.356C340.316 209.99 335.382 207.019 335.382 207.019C335.382 207.019 334.138 218.533 341.54 223.987C346.941 227.786 352.649 231.126 358.605 233.971L357.039 225.448Z" fill="#C6FF00"/>
<path d="M371.718 259.885C371.718 259.885 370.328 255.275 361.928 250.763C353.527 246.251 348.279 243.819 348.279 243.819C348.279 243.819 348.279 255.402 356.18 260.042C361.956 263.241 367.988 265.951 374.215 268.143L371.718 259.885Z" fill="#C6FF00"/>
<path d="M357.383 228.626L349.697 223.663" stroke="#263238" stroke-width="0.53" stroke-linecap="round" stroke-linejoin="round"/>
<path d="M356.529 222.26L359.113 216.621" stroke="#263238" stroke-width="0.53" stroke-linecap="round" stroke-linejoin="round"/>
<path d="M372.699 264.338C372.699 264.338 366.277 260.287 359.678 256.256" stroke="#263238" stroke-width="0.53" stroke-linecap="round" stroke-linejoin="round"/>
<path d="M368.153 246.477C368.153 246.477 367.81 241.661 373.919 234.403C380.029 227.145 384.072 222.937 384.072 222.937C384.072 222.937 388.331 233.726 382.653 240.935C378.457 246.04 373.843 250.784 368.858 255.118L368.153 246.477Z" fill="#FD3E72"/>
<path d="M372.703 298.666C372.703 298.666 372.312 293.87 365.047 287.701C357.782 281.531 353.122 278.049 353.122 278.049C353.122 278.049 350.674 289.368 357.459 295.577C362.428 299.938 367.753 303.875 373.379 307.346L372.703 298.666Z" fill="#FD3E72"/>
<path d="M373.571 308.082C373.571 308.082 372.504 303.384 377.566 295.331C382.627 287.279 385.995 282.581 385.995 282.581C385.995 282.581 391.733 292.565 387.141 300.51C383.713 306.162 379.819 311.516 375.5 316.517L373.571 308.082Z" fill="#FD3E72"/>
<path d="M382.492 335.466C382.492 335.466 382.101 330.67 374.836 324.501C367.571 318.332 362.911 314.84 362.911 314.84C362.911 314.84 360.463 326.159 367.248 332.367C372.217 336.729 377.543 340.666 383.168 344.137L382.492 335.466Z" fill="#FD3E72"/>
<path d="M380.071 361.154C380.071 361.154 380.913 356.417 375.44 348.57C369.967 340.724 366.383 336.212 366.383 336.212C366.383 336.212 361.155 346.54 366.148 354.269C369.856 359.747 374.015 364.905 378.582 369.687L380.071 361.154Z" fill="#FD3E72"/>
<path d="M355.25 216.16C356.003 221.116 357.026 226.028 358.315 230.872C362.094 244.378 369.447 252.685 373.118 264.867C376.79 277.049 370.485 293.644 373.833 309.406C377.181 325.168 384.094 333.505 383.203 344.284C382.312 355.063 375.37 384.606 375.37 384.606" stroke="#263238" stroke-width="0.53" stroke-linecap="round" stroke-linejoin="round"/>
<path d="M368.861 255.118C368.861 255.118 373.09 244.8 378.27 237.738" stroke="#263238" stroke-width="0.53" stroke-linecap="round" stroke-linejoin="round"/>
<path d="M372.996 305.522C369.017 299.427 364.175 293.943 358.623 289.241" stroke="#263238" stroke-width="0.53" stroke-linecap="round" stroke-linejoin="round"/>
<path d="M374.723 312.162C376.203 307.681 378.054 303.33 380.255 299.156C383.358 293.644 383.809 292.928 383.809 292.928" stroke="#263238" stroke-width="0.53" stroke-linecap="round" stroke-linejoin="round"/>
<path d="M383.203 344.284C381.358 340.596 379.234 337.055 376.849 333.691C374.481 330.587 371.861 327.684 369.016 325.011" stroke="#263238" stroke-width="0.53" stroke-linecap="round" stroke-linejoin="round"/>
<path d="M378.58 369.687C378.635 366.015 377.708 362.395 375.897 359.202C372.96 354.524 369.592 348.364 368.202 345.932" stroke="#263238" stroke-width="0.53" stroke-linecap="round" stroke-linejoin="round"/>
<path d="M387.114 360.487C387.114 360.487 386.517 357.476 381.475 354.112C376.433 350.748 373.261 348.875 373.261 348.875C373.261 348.875 372.536 356.211 377.275 359.664C380.733 362.054 384.384 364.151 388.191 365.931L387.114 360.487Z" fill="#FD3E72"/>
<path d="M389.144 369.246C389.144 369.246 388.635 366.225 392.149 361.282C395.664 356.338 397.975 353.435 397.975 353.435C397.975 353.435 401.255 360.036 398.043 364.93C395.659 368.394 392.99 371.652 390.064 374.67L389.144 369.246Z" fill="#FD3E72"/>
<path d="M405.168 277.814C405.168 277.814 405.442 274.764 401.555 270.105C397.668 265.446 395.142 262.759 395.142 262.759C395.142 262.759 392.381 269.625 395.964 274.225C398.611 277.494 401.525 280.535 404.678 283.317L405.168 277.814Z" fill="#FD3E72"/>
<path d="M397.258 296.332C397.258 296.332 397.532 293.282 393.645 288.623C389.758 283.964 387.232 281.276 387.232 281.276C387.232 281.276 384.471 288.142 388.054 292.742C390.7 296.011 393.615 299.053 396.768 301.834L397.258 296.332Z" fill="#FD3E72"/>
<path d="M404.427 282.993C404.427 282.993 405.024 279.982 410.057 276.608C415.089 273.234 418.271 271.36 418.271 271.36C418.271 271.36 419.006 278.697 414.277 282.149C410.822 284.543 407.174 286.643 403.37 288.427L404.427 282.993Z" fill="#FD3E72"/>
<path d="M394.926 304.846C394.926 304.846 395.827 301.903 401.193 299.088C406.558 296.273 409.906 294.724 409.906 294.724C409.906 294.724 409.906 302.09 404.805 305.012C401.107 307.033 397.245 308.739 393.262 310.113L394.926 304.846Z" fill="#FD3E72"/>
<path d="M394.131 329.523C394.131 329.523 394.405 326.473 399.026 322.579C403.648 318.685 406.634 316.488 406.634 316.488C406.634 316.488 408.142 323.697 403.794 327.621C400.612 330.366 397.206 332.84 393.612 335.016L394.131 329.523Z" fill="#FD3E72"/>
<path d="M393.535 335.506C393.535 335.506 394.24 332.564 391.058 327.355C387.876 322.147 385.752 319.146 385.752 319.146C385.752 319.146 382.051 325.512 384.939 330.612C387.099 334.235 389.558 337.67 392.292 340.881L393.535 335.506Z" fill="#FD3E72"/>
<path d="M387.733 352.896C387.733 352.896 388.007 349.846 392.628 345.952C397.249 342.058 400.235 339.861 400.235 339.861C400.235 339.861 401.743 347.07 397.396 350.993C394.223 353.734 390.827 356.204 387.243 358.379L387.733 352.896Z" fill="#FD3E72"/>
<path d="M405.617 277.069C405.117 280.229 404.443 283.359 403.6 286.445C401.133 295.028 396.414 300.275 394.025 308.024C391.636 315.772 395.562 326.355 393.369 336.359C391.176 346.364 386.731 351.65 387.25 358.506C387.769 365.362 392.037 384.204 392.037 384.204" stroke="#263238" stroke-width="0.53" stroke-linecap="round" stroke-linejoin="round"/>
<path d="M404.198 285.023L409.113 281.895" stroke="#263238" stroke-width="0.53" stroke-linecap="round" stroke-linejoin="round"/>
<path d="M404.777 280.963L403.162 277.363" stroke="#263238" stroke-width="0.53" stroke-linecap="round" stroke-linejoin="round"/>
<path d="M394.311 307.671C394.311 307.671 398.423 305.12 402.633 302.59" stroke="#263238" stroke-width="0.53" stroke-linecap="round" stroke-linejoin="round"/>
<path d="M396.781 301.824C395.205 297.936 393.236 294.219 390.907 290.731" stroke="#263238" stroke-width="0.53" stroke-linecap="round" stroke-linejoin="round"/>
<path d="M393.906 333.858C396.467 329.996 399.573 326.527 403.129 323.56" stroke="#263238" stroke-width="0.53" stroke-linecap="round" stroke-linejoin="round"/>
<path d="M392.773 338.095C391.866 335.239 390.723 332.464 389.356 329.798C387.398 326.276 387.124 325.815 387.124 325.815" stroke="#263238" stroke-width="0.53" stroke-linecap="round" stroke-linejoin="round"/>
<path d="M387.883 363.685C386.046 361.742 384.041 359.966 381.891 358.379C380.535 357.543 379.248 356.598 378.043 355.554" stroke="#263238" stroke-width="0.53" stroke-linecap="round" stroke-linejoin="round"/>
<path d="M387.24 358.506C388.425 356.166 389.787 353.92 391.313 351.788C392.834 349.821 394.513 347.984 396.336 346.295" stroke="#263238" stroke-width="0.53" stroke-linecap="round" stroke-linejoin="round"/>
<path d="M390.069 374.69C390.055 372.353 390.663 370.054 391.831 368.03C393.711 365.088 395.894 361.164 396.785 359.625" stroke="#263238" stroke-width="0.53" stroke-linecap="round" stroke-linejoin="round"/>
<path d="M54 57H373V293.187H54V57Z" fill="#EDEDED"/>
<path fill-rule="evenodd" clip-rule="evenodd" d="M292.655 260.23C291.297 260.23 290.185 261.35 290.185 262.745V275.461C290.185 276.856 291.297 277.976 292.655 277.976H341.797C343.155 277.976 344.267 276.856 344.267 275.461V262.745C344.267 261.35 343.155 260.23 341.797 260.23H292.655ZM289.34 262.745C289.34 260.896 290.818 259.385 292.655 259.385H341.797C343.634 259.385 345.112 260.896 345.112 262.745V275.461C345.112 277.311 343.634 278.821 341.797 278.821H292.655C290.818 278.821 289.34 277.311 289.34 275.461V262.745Z" fill="#A3A3A3"/>
<path d="M279.269 259.808H230.127C228.529 259.808 227.234 261.123 227.234 262.745V275.462C227.234 277.084 228.529 278.399 230.127 278.399H279.269C280.866 278.399 282.162 277.084 282.162 275.462V262.745C282.162 261.123 280.866 259.808 279.269 259.808Z" fill="#D7D3D3"/>
<path fill-rule="evenodd" clip-rule="evenodd" d="M279.269 260.653H230.127C229.008 260.653 228.079 261.578 228.079 262.745V275.462C228.079 276.629 229.008 277.554 230.127 277.554H279.269C280.388 277.554 281.316 276.629 281.316 275.462V262.745C281.316 261.578 280.388 260.653 279.269 260.653ZM230.127 259.808H279.269C280.866 259.808 282.162 261.123 282.162 262.745V275.462C282.162 277.084 280.866 278.399 279.269 278.399H230.127C228.529 278.399 227.234 277.084 227.234 275.462V262.745C227.234 261.123 228.529 259.808 230.127 259.808Z" fill="#A3A3A3"/>
<path d="M54 57H373V75.5907H54V57Z" fill="#5B5863"/>
<circle cx="359.791" cy="66.2131" r="5.21311" fill="#CECECE"/>
<path fill-rule="evenodd" clip-rule="evenodd" d="M357.744 64.1683C357.914 63.9986 358.189 63.9986 358.359 64.1683L359.789 65.5988L361.22 64.1683C361.389 63.9986 361.665 63.9986 361.834 64.1683C362.004 64.3379 362.004 64.613 361.834 64.7826L360.404 66.2131L361.834 67.6437C362.004 67.8133 362.004 68.0884 361.834 68.258C361.665 68.4277 361.389 68.4277 361.22 68.258L359.789 66.8275L358.359 68.258C358.189 68.4277 357.914 68.4277 357.744 68.258C357.575 68.0884 357.575 67.8133 357.744 67.6437L359.175 66.2131L357.744 64.7826C357.575 64.613 357.575 64.3379 357.744 64.1683Z" fill="#5B5863"/>
<path d="M334.07 61H342.411V69.341H334.07V61Z" fill="#CECECE"/>
<path fill-rule="evenodd" clip-rule="evenodd" d="M341.542 61.8689H334.939V68.4721H341.542V61.8689ZM334.07 61V69.341H342.411V61H334.07Z" fill="#5B5863"/>
<path d="M331.984 63.085H340.325V71.4259H331.984V63.085Z" fill="#CECECE"/>
<path fill-rule="evenodd" clip-rule="evenodd" d="M339.457 63.9538H332.853V70.5571H339.457V63.9538ZM331.984 63.085V71.4259H340.325V63.085H331.984Z" fill="#5B5863"/>
<path d="M312 65.2134H320V66.2134H312V65.2134Z" fill="#CECECE"/>
<path d="M75.5469 95.0262C75.5469 93.8594 76.4927 92.9136 77.6595 92.9136H103.01C104.177 92.9136 105.123 93.8594 105.123 95.0262V120.377C105.123 121.544 104.177 122.49 103.01 122.49H77.6595C76.4927 122.49 75.5469 121.544 75.5469 120.377V95.0262Z" fill="#C4C4C4"/>
<path d="M75.5469 134.743H130.474V147.419H75.5469V134.743Z" fill="#E0E0E0"/>
<path d="M130.477 134.743H185.404V147.419H130.477V134.743Z" fill="#E0E0E0"/>
<path d="M185.402 134.743H240.329V147.419H185.402V134.743Z" fill="#E0E0E0"/>
<path d="M117.801 98.407C117.801 97.2403 118.747 96.2944 119.913 96.2944H165.545C166.712 96.2944 167.658 97.2403 167.658 98.407V103.055C167.658 104.221 166.712 105.167 165.545 105.167H119.913C118.747 105.167 117.801 104.221 117.801 103.055V98.407Z" fill="#C4C4C4"/>
<path d="M136.391 111.928C136.391 110.761 137.336 109.815 138.503 109.815H165.544C166.711 109.815 167.657 110.761 167.657 111.928V116.575C167.657 117.742 166.711 118.688 165.544 118.688H138.503C137.336 118.688 136.391 117.742 136.391 116.575V111.928Z" fill="#C4C4C4"/>
<path d="M171.887 98.407C171.887 97.2403 172.833 96.2944 173.999 96.2944H253.855C255.022 96.2944 255.968 97.2403 255.968 98.407V103.055C255.968 104.221 255.022 105.167 253.855 105.167H173.999C172.833 105.167 171.887 104.221 171.887 103.055V98.407Z" fill="#C4C4C4"/>
<path d="M171.887 111.928C171.887 110.761 172.833 109.815 173.999 109.815H275.826C276.993 109.815 277.938 110.761 277.938 111.928V116.575C277.938 117.742 276.993 118.688 275.826 118.688H173.999C172.833 118.688 171.887 117.742 171.887 116.575V111.928Z" fill="#C4C4C4"/>
<path d="M75.5469 147.419H130.474V135.588H185.401V147.419H344.69V247.555H75.5469V147.419Z" fill="#F3F3F3"/>
<path fill-rule="evenodd" clip-rule="evenodd" d="M185.401 147.419V135.588H130.474V147.419H75.5469V247.555H344.69V147.419H185.401ZM344.267 147.841H184.979V136.011H130.897V147.841H75.9694V247.133H344.267V147.841Z" fill="#D1D1D1"/>
<path d="M253.431 154.179H85.2695V162.207H253.431V154.179Z" fill="#263238"/>
<path d="M191.744 167.277H85.2695V174.883H191.744V167.277Z" fill="#263238"/>
<path fill-rule="evenodd" clip-rule="evenodd" d="M331.597 185.023H85.2695V184.601H331.597V185.023Z" fill="#263238"/>
<path fill-rule="evenodd" clip-rule="evenodd" d="M331.597 206.149H85.2695V205.726H331.597V206.149Z" fill="#263238"/>
<path fill-rule="evenodd" clip-rule="evenodd" d="M331.597 212.064H85.2695V211.219H331.597V212.064Z" fill="#263238"/>
<path fill-rule="evenodd" clip-rule="evenodd" d="M331.597 218.402H85.2695V217.979H331.597V218.402Z" fill="#263238"/>
<path fill-rule="evenodd" clip-rule="evenodd" d="M128.335 224.023H85.2695V223.575H128.335V224.023Z" fill="#263238"/>
<path fill-rule="evenodd" clip-rule="evenodd" d="M182.167 190.608H85.2695V190.16H182.167V190.608Z" fill="#263238"/>
<path fill-rule="evenodd" clip-rule="evenodd" d="M182.167 238.599H85.2695V238.151H182.167V238.599Z" fill="#263238"/>
<path d="M160.372 277.981C153.797 277.981 148.466 271.864 148.466 264.319C148.466 256.773 153.797 250.656 160.372 250.656C166.947 250.656 172.277 256.773 172.277 264.319C172.277 271.864 166.947 277.981 160.372 277.981Z" fill="#263238" stroke="#263238" stroke-width="1.06" stroke-linejoin="round"/>
<path d="M218.474 266.967C222.127 266.066 225.625 264.625 228.853 262.69C234.345 259.424 234.551 254.334 232.925 250.459C231.3 246.585 215.831 230.274 200.166 226.812C184.501 223.35 172.693 234.354 167.602 246.997C162.511 259.64 166.378 274.107 169.844 278.383C173.31 282.66 182.053 285.72 185.92 282.866C189.788 280.012 196.093 271.449 203.622 267.987C208.306 265.934 213.555 265.574 218.474 266.967Z" fill="#263238" stroke="#263238" stroke-width="1.06" stroke-linejoin="round"/>
<path d="M199.059 330.327C199.216 341.195 208.694 371.679 213.207 385.606H165.624L153.474 305.66L164.87 300.158C164.87 300.158 173.623 296.077 179.556 297.509C185.49 298.941 192.989 303.394 192.989 303.394L199.294 305.64C199.294 305.64 198.864 316.057 199.059 330.327Z" fill="#FFB7CA"/>
<path opacity="0.2" d="M200.166 385.607C199.187 381.291 197.161 372.464 193.871 358.144C188.907 336.566 188.496 302.61 188.496 302.61C188.848 311.535 203.015 369.649 206.941 385.597L200.166 385.607Z" fill="black"/>
<path d="M199.059 330.327C199.216 341.195 208.694 371.679 213.207 385.606H165.624L153.474 305.66L164.87 300.158C164.87 300.158 173.623 296.077 179.556 297.509C185.49 298.941 192.989 303.394 192.989 303.394L199.294 305.64C199.294 305.64 198.864 316.057 199.059 330.327Z" stroke="#263238" stroke-width="1.06" stroke-linejoin="round"/>
<path d="M193.359 293.645C193.359 293.645 189.541 297.823 188.846 300.952C188.151 304.081 190.598 316.292 184.724 319.421C178.85 322.55 172.221 316.635 168.746 309.671C165.27 302.708 166.954 298.549 166.954 298.549C166.954 298.549 175.296 290.192 179.114 283.935C181.529 279.912 183.414 275.593 184.724 271.086C184.724 271.086 186.809 282.571 189.619 286.779C191.096 288.934 192.349 291.235 193.359 293.645Z" fill="#FFBE9D"/>
<path opacity="0.05" d="M190.981 295.165L191.578 295.862C190.679 297.034 189.913 298.304 189.297 299.647C186.608 298.599 184.308 296.746 182.708 294.341C180.671 291.33 180.475 285.445 180.652 281.198C181.131 280.276 181.562 279.374 181.954 278.501C183.599 282.503 187.29 290.849 190.981 295.165Z" fill="black"/>
<path d="M216.824 251.872C216.824 251.872 201.159 264.053 193.552 266.839C185.944 269.624 176.908 268.232 176.908 268.232C176.72 268.96 176.717 269.723 176.898 270.452C177.079 271.182 177.439 271.855 177.945 272.41C179.094 273.593 180.139 274.873 181.069 276.235C181.069 276.235 180.726 286.671 184.192 291.928C187.658 297.185 192.181 299.932 198.437 297.499C204.694 295.067 209.902 291.928 213.026 286.71C216.149 281.492 215.806 276.274 217.196 272.792L221.367 262.357C221.367 262.357 219.605 254.657 216.824 251.872Z" fill="#FFBE9D"/>
<path d="M145.273 385.607C141.621 364.774 131.566 306.425 133.945 305.248C136.755 303.826 166.96 298.549 166.96 298.549C166.96 298.549 170.367 323.197 174.841 345.825C177.778 360.841 180.96 376.662 182.742 385.617L145.273 385.607Z" fill="#F33166"/>
<path d="M210.254 309.534C210.254 309.534 215.864 314.262 216.206 317.753C216.549 321.245 222.482 363.126 222.482 363.126C222.482 363.126 223.873 361.38 225.615 362.077C226.761 362.605 227.73 363.453 228.406 364.519C228.436 364.249 228.546 363.993 228.722 363.786C228.897 363.578 229.131 363.427 229.392 363.353C229.653 363.278 229.93 363.283 230.189 363.367C230.447 363.45 230.675 363.609 230.844 363.823C232.665 365.402 233.977 371.502 233.977 371.502C233.977 371.502 231.186 380.575 229.081 381.978C226.976 383.38 223.853 381.281 223.853 381.281C223.853 381.281 224.205 382.674 220.367 382.674C216.529 382.674 215.834 376.789 214.493 374.298C213.152 371.806 208.922 345.677 206.827 331.367C204.732 317.057 210.254 309.534 210.254 309.534Z" fill="#EF275D"/>
<path d="M221.023 385.607H203.4C201.667 378.741 198.887 367.54 196.038 355.603C191.358 335.987 188.871 300.972 188.871 300.972L210.283 309.524C209.575 321.345 209.713 333.2 210.694 345.001C211.791 358.379 217.548 375.946 221.023 385.607Z" fill="#F33166"/>
<path d="M148.963 310.417L161.152 361.027L166.38 359.634L168.818 361.724C168.818 361.724 170.561 359.281 172.304 362.077C173.244 363.643 174.42 365.056 175.789 366.265L173.351 380.575C173.351 380.575 163.012 384.822 161.504 384.41C160.458 384.144 159.552 383.489 158.97 382.578C158.388 381.668 158.174 380.569 158.371 379.506C157.086 380.249 155.664 380.723 154.191 380.899C153.28 380.899 150.842 379.172 148.718 377.534C146.402 375.759 144.692 373.309 143.822 370.522C140.161 358.654 129.675 324.756 128.01 320.166C123.83 308.651 134.629 304.473 136.019 304.473" fill="#FD3E72"/>
<path d="M289.622 370.149C289.622 370.149 297.337 373.788 296.661 374.464C295.986 375.141 290.787 372.65 289.622 372.414C288.457 372.179 287.125 369.717 289.622 370.149Z" fill="white" stroke="#263238" stroke-width="1.06" stroke-linecap="round" stroke-linejoin="round"/>
<path d="M286.677 367.677C286.677 367.677 289.173 367.226 289.614 368.364C290.054 369.501 292.11 375.641 291.885 377.005C291.66 378.368 289.614 375.641 288.703 374.278C287.793 372.915 286.677 367.677 286.677 367.677Z" fill="white" stroke="#263238" stroke-width="1.06" stroke-linecap="round" stroke-linejoin="round"/>
<path d="M281.913 367.677C281.913 367.677 285.996 366.539 286.681 367.677C287.366 368.815 290.989 376.769 290.989 376.769C290.989 376.769 291.439 377.681 289.403 376.769C287.366 375.857 281.913 367.677 281.913 367.677Z" fill="white" stroke="#263238" stroke-width="1.06" stroke-linecap="round" stroke-linejoin="round"/>
<path d="M233.117 367.677L258.993 370.149C258.993 370.149 276.92 366.51 278.966 366.284C281.013 366.059 283.049 367.648 283.96 369.011C284.87 370.374 290.539 377.652 290.539 377.652L289.178 378.103L281.238 371.738C281.238 371.738 276.93 371.512 275.559 371.512C274.189 371.512 279.417 374.454 281.003 374.7C282.589 374.945 284.41 375.151 284.185 376.063C283.96 376.975 279.877 377.201 278.966 377.201C278.056 377.201 271.702 374.925 271.702 374.925C271.702 374.925 270.116 374.925 268.069 375.151C266.023 375.376 262.391 373.788 262.391 373.788C262.391 373.788 230.16 381.516 227.898 381.291C225.636 381.065 225.46 369.168 233.117 367.677Z" fill="#FFBE9D"/>
<path d="M241.055 368.579C241.055 368.579 245.598 371.08 247.634 371.306C249.67 371.532 249.445 373.356 247.634 374.033C245.823 374.709 239.469 371.532 238.098 371.532C236.727 371.532 226.065 372.444 223.803 372.669C221.542 372.895 220.171 370.619 225.85 368.805C231.528 366.99 241.055 368.579 241.055 368.579Z" fill="#FFBE9D"/>
<path d="M236.009 365.392C236.009 365.392 240.219 364.411 240.757 366.167C241.296 367.922 246.221 374.896 246.338 375.563C246.456 376.23 244.713 376.779 242.706 374.582C240.699 372.385 236.009 365.392 236.009 365.392Z" fill="#EFAB8A"/>
<path d="M232.884 364.489C232.884 364.489 236.516 363.577 237.427 364.489C238.337 365.402 244.691 376.083 244.691 376.995C244.691 377.907 242.195 377.446 242.195 377.446L234.93 367.442L232.659 365.392L232.884 364.489Z" fill="#F6B291"/>
<path d="M165.949 380.86C164.494 380.68 163.149 379.991 162.153 378.914C161.157 377.837 160.573 376.442 160.505 374.975C160.055 369.521 165.949 364.293 170.041 364.058C174.134 363.823 193.187 368.148 200.911 368.374C208.636 368.599 215.441 368.599 217.027 367.923C218.613 367.246 232.007 364.509 232.917 364.509C233.828 364.509 243.129 377.466 243.129 377.466C243.129 377.466 242.444 379.055 240.632 377.466C238.821 375.877 232.917 370.414 232.917 370.414H226.338C226.338 370.414 232.467 374.053 233.377 374.729C234.288 375.406 237.92 379.28 237.01 379.506C236.099 379.732 231.341 375.642 231.341 375.642L224.487 373.827C224.487 373.827 219.494 377.015 214.951 377.24C212.256 377.384 209.558 376.997 207.011 376.103C207.011 376.103 180.694 381.085 165.949 380.86Z" fill="#FAB796"/>
<path d="M18.8841 385.479H412.578" stroke="#263238" stroke-width="1.06" stroke-linejoin="round"/>
<path d="M204.348 380.997H326.281V385.479H204.348V380.997Z" fill="#5B5863" stroke="#263238" stroke-width="1.06" stroke-linejoin="round"/>
<path d="M204.355 380.997H261.641V385.479H204.355V380.997Z" fill="#263238" stroke="#263238" stroke-width="1.06" stroke-linejoin="round"/>
<path d="M258.795 380.997L281.334 324.315H351.602L323.443 380.997H258.795Z" fill="#263238" stroke="#263238" stroke-width="1.06" stroke-linejoin="round"/>
<path d="M261.631 380.997L284.17 324.315H354.438L326.279 380.997H261.631Z" fill="#5B5863"/>
</svg>
