<svg width="24" height="13" viewBox="0 0 24 13" fill="none" xmlns="http://www.w3.org/2000/svg">
<g clip-path="url(#clip0)">
<path d="M7.1717 2.94734C7.07932 3.03202 6.98694 3.11285 6.89841 3.20137C6.57894 3.50545 6.33645 3.85572 6.25177 4.29451C6.1363 4.90266 6.25947 5.46077 6.62898 5.96115C6.81373 6.21134 7.03313 6.41919 7.32566 6.53851C7.3603 6.55391 7.39494 6.56546 7.43728 6.58085C7.39879 6.68478 7.36415 6.78485 7.32566 6.88493C7.08702 7.46229 6.77909 7.99731 6.35569 8.4592C6.27871 8.54387 6.18634 8.6247 6.09781 8.69784C5.78988 8.94803 5.44347 9.04425 5.05086 8.92878C4.85456 8.87104 4.66211 8.80946 4.46965 8.74787C4.2695 8.68629 4.06935 8.63625 3.85765 8.6324C3.59592 8.6247 3.35727 8.70553 3.11478 8.79406C2.93003 8.86335 2.74912 8.93263 2.56052 8.97497C2.26414 9.04425 1.9947 8.95572 1.74836 8.78637C1.49818 8.61701 1.30187 8.39761 1.13251 8.15512C0.705269 7.54312 0.378098 6.88493 0.177947 6.16515C0.000890031 5.52621 -0.0491478 4.87572 0.0509279 4.21753C0.139456 3.63632 0.355004 3.11285 0.763005 2.68175C1.1864 2.23526 1.70603 2.0505 2.31803 2.10824C2.6221 2.13903 2.91078 2.22756 3.20331 2.31224C3.32648 2.34688 3.44965 2.37383 3.57282 2.40462C3.74988 2.45081 3.92309 2.42771 4.09244 2.37768C4.33109 2.30839 4.56973 2.22756 4.80837 2.15828C5.16248 2.05435 5.5243 2.02356 5.88996 2.09284C6.36339 2.18522 6.7406 2.43926 7.05237 2.79722C7.09087 2.84341 7.12936 2.88575 7.16785 2.93194C7.16785 2.93579 7.16785 2.93964 7.1717 2.94734Z" fill="white"/>
<path d="M5.38965 0.0263672C5.3935 0.130292 5.4089 0.230367 5.4012 0.326594C5.36271 0.853916 5.15871 1.30811 4.79305 1.68917C4.62754 1.86237 4.44663 2.01249 4.22339 2.10101C4.03093 2.178 3.83078 2.19339 3.62678 2.20879C3.62293 2.20879 3.61908 2.20494 3.61523 2.20494C3.64603 1.02713 4.23878 0.265009 5.38965 0.0263672Z" fill="white"/>
<path d="M9.70508 1.42801C10.1747 1.35102 10.7905 1.28174 11.5757 1.28174C12.538 1.28174 13.2424 1.50499 13.6927 1.90914C14.1084 2.2671 14.3547 2.81752 14.3547 3.48725C14.3547 4.16854 14.1546 4.70741 13.7735 5.10001C13.2578 5.65043 12.4187 5.92756 11.4679 5.92756C11.1754 5.92756 10.9098 5.91601 10.6827 5.86213V8.88364H9.70893V1.42801H9.70508ZM10.6789 5.06537C10.8906 5.12311 11.16 5.14235 11.4833 5.14235C12.6573 5.14235 13.3771 4.57269 13.3771 3.52959C13.3771 2.53269 12.6727 2.05155 11.595 2.05155C11.1677 2.05155 10.8444 2.0862 10.675 2.12853V5.06537H10.6789Z" fill="white"/>
<path d="M17.8651 8.88249L17.7881 8.2012H17.7534C17.4494 8.62845 16.8682 9.00566 16.0945 9.00566C14.9975 9.00566 14.4355 8.232 14.4355 7.45064C14.4355 6.14195 15.6018 5.42218 17.6919 5.43373V5.3221C17.6919 4.87561 17.5687 4.06731 16.4602 4.06731C15.9559 4.06731 15.4286 4.22512 15.0475 4.47146L14.8243 3.82097C15.2708 3.52844 15.9213 3.33984 16.6064 3.33984C18.2654 3.33984 18.6657 4.47146 18.6657 5.5569V7.58535C18.6657 8.05494 18.6888 8.51298 18.7542 8.88249H17.8651ZM17.7226 6.11886C16.6488 6.09577 15.4286 6.28822 15.4286 7.33901C15.4286 7.97796 15.8559 8.27818 16.3562 8.27818C17.0606 8.27818 17.5109 7.83169 17.6649 7.36981C17.6996 7.26973 17.7226 7.15811 17.7226 7.05803V6.11886Z" fill="white"/>
<path d="M19.9821 3.46338L21.1676 6.6658C21.2908 7.02377 21.4255 7.45101 21.514 7.77433H21.5371C21.6372 7.45101 21.7488 7.03531 21.8835 6.64271L22.9574 3.46338H24.0005L22.5225 7.32784C21.8181 9.18694 21.337 10.1377 20.6634 10.7189C20.1822 11.1461 19.7011 11.3117 19.4548 11.3578L19.2084 10.5303C19.4548 10.4533 19.7781 10.2955 20.0706 10.0492C20.3401 9.83743 20.6749 9.45637 20.8982 8.95215C20.9444 8.85207 20.9752 8.77124 20.9752 8.71735C20.9752 8.66347 20.9521 8.58264 20.9097 8.45947L18.9082 3.46338H19.9821Z" fill="white"/>
</g>
<defs>
<clipPath id="clip0">
<rect width="24" height="12" fill="white" transform="translate(0 0.0263672)"/>
</clipPath>
</defs>
</svg>
