<svg width="36" height="12" viewBox="0 0 36 12" fill="none" xmlns="http://www.w3.org/2000/svg">
<g clip-path="url(#clip0)">
<path d="M34.7195 2.84013H32.9435L31.9156 7.17657L31.7714 7.77166C31.6723 7.7987 31.5731 7.82567 31.4739 7.84384C31.2936 7.87982 31.1043 7.89785 30.9061 7.89785C30.6806 7.89785 30.5004 7.86186 30.3651 7.7987C30.2388 7.73561 30.1397 7.64554 30.0856 7.51921C30.0314 7.40197 30.0134 7.25776 30.0224 7.09551C30.0314 6.93327 30.0675 6.75286 30.1126 6.57273L30.6535 4.31868L31.005 2.82217H29.1929L28.3725 6.28403C28.2733 6.69865 28.2193 7.09544 28.2012 7.47415C28.1831 7.85271 28.2463 8.17733 28.3725 8.47485C28.4988 8.76334 28.7241 8.98868 29.0307 9.15994C29.3372 9.33126 29.779 9.41225 30.338 9.41225C30.7257 9.41225 31.0683 9.3764 31.3568 9.31317C31.3658 9.31317 31.3839 9.30422 31.3929 9.30422C31.3118 9.66476 31.1494 9.95319 30.8969 10.1787C30.6355 10.4041 30.2568 10.5213 29.7519 10.5213C29.5355 10.5213 29.3372 10.5123 29.1569 10.4854L28.8053 11.9549C29.0398 11.982 29.3012 12 29.5896 12C30.1306 12 30.5994 11.9369 31.005 11.8196C31.4108 11.6933 31.7535 11.5131 32.0509 11.2606C32.3394 11.0082 32.5828 10.6926 32.7811 10.3231C32.9794 9.94445 33.1326 9.50252 33.2499 8.97967L34.476 3.8228L34.7195 2.84013ZM27.2817 6.54542C27.1735 6.99623 27.1374 7.45598 27.1825 7.90679C27.2276 8.36655 27.4079 9.06072 27.5792 9.41232H25.8663C25.6589 9.06086 25.668 8.88953 25.623 8.78137C25.3975 8.96171 25.1542 9.11494 24.8837 9.23218C24.6132 9.34943 24.3157 9.41252 23.9731 9.41252C23.5764 9.41252 23.2338 9.34034 22.9544 9.20514C22.6749 9.07001 22.4405 8.88066 22.2601 8.64617C22.0797 8.41168 21.9537 8.14121 21.8723 7.82567C21.7912 7.51013 21.7552 7.17657 21.7552 6.81603C21.7552 6.26593 21.8544 5.75216 22.0438 5.26537C22.242 4.7785 22.5125 4.35467 22.8552 3.99413C23.1978 3.63352 24.0362 2.83118 25.4066 2.83118H28.1564L27.2817 6.54542ZM26.0286 4.33664C25.1992 4.33664 25.0458 4.33664 24.7034 4.50803C24.46 4.63422 24.2615 4.82357 24.0903 5.0399C23.919 5.25622 23.7747 5.50866 23.6756 5.79723C23.5764 6.08573 23.5223 6.38318 23.5223 6.68977C23.5223 7.0684 23.5855 7.37486 23.7116 7.60027C23.8377 7.82567 24.0722 7.93383 24.4148 7.93383C24.5952 7.93383 24.7663 7.89785 24.9108 7.82567C25.0549 7.7535 25.2172 7.63646 25.3795 7.46513C25.3976 7.26684 25.4246 7.05939 25.4606 6.8432C25.4966 6.62668 25.5418 6.41937 25.5779 6.23903L26.0286 4.33664ZM21.2684 5.44557C21.2684 6.03158 21.1691 6.56345 20.9798 7.05031C20.7905 7.5371 20.52 7.95186 20.1774 8.30352C19.8347 8.65518 19.4291 8.92559 18.9513 9.12402C18.4735 9.32218 17.9596 9.4214 17.4006 9.4214C17.1302 9.4214 16.8597 9.39436 16.5801 9.34929L16.0393 11.522H14.2631L16.3277 2.84901H18.6988C19.1497 2.84901 19.5372 2.92118 19.8528 3.05625C20.1773 3.19145 20.4388 3.38087 20.6552 3.61536C20.8626 3.84978 21.0157 4.12919 21.1149 4.44473C21.2233 4.75133 21.2684 5.08496 21.2684 5.44557ZM16.9138 7.90679C17.0489 7.94278 17.2203 7.95186 17.4187 7.95186C17.7342 7.95186 18.0137 7.89771 18.2751 7.78047C18.5274 7.66329 18.7529 7.50098 18.9332 7.29374C19.1136 7.08636 19.2487 6.83392 19.357 6.54542C19.4561 6.25678 19.5103 5.9323 19.5103 5.58077C19.5103 5.23805 19.4381 4.94061 19.2849 4.70612C19.1316 4.46283 18.8702 4.33657 18.4916 4.33657H17.7883L16.9138 7.90679ZM13.1814 7.90679C12.9559 7.90679 12.7758 7.87074 12.6404 7.80765C12.5142 7.74455 12.4149 7.65442 12.3609 7.52809C12.3068 7.41092 12.2888 7.2667 12.2978 7.10439C12.3068 6.94208 12.3428 6.76174 12.3879 6.58147L12.9288 4.32763H14.9483L15.318 2.83105H13.2894L13.7582 0.937742L11.8649 1.23512L10.6658 6.30192C10.5665 6.71654 10.5125 7.1134 10.4944 7.4919C10.4763 7.87053 10.5395 8.19529 10.6658 8.49267C10.792 8.78117 11.0174 9.00651 11.3239 9.17783C11.6304 9.34915 12.0722 9.43021 12.6312 9.43021C13.0189 9.43021 13.3614 9.39422 13.65 9.33106C13.677 9.32191 13.7221 9.31296 13.7491 9.30402L14.1188 7.7623C13.9925 7.80737 13.8663 7.83455 13.7491 7.85237C13.569 7.8887 13.3796 7.90679 13.1814 7.90679ZM8.66458 2.84013L7.09582 9.42133H8.87188L10.4316 2.84013H8.66458ZM10.6209 2.08273L10.8914 0.937742H9.11532L8.84484 2.08273H10.6209ZM4.73375 2.84901C5.11238 2.84901 5.44595 2.92118 5.72543 3.05625C6.00492 3.19145 6.23032 3.37179 6.41961 3.60628C6.59994 3.84076 6.73515 4.11123 6.82528 4.41776C6.91542 4.72415 6.96048 5.05785 6.96048 5.41846C6.96048 5.96842 6.86133 6.48232 6.65396 6.97813C6.44658 7.465 6.17611 7.89771 5.82458 8.25825C5.47299 8.61886 5.05823 8.90749 4.58045 9.1148C4.1026 9.32211 3.58869 9.43027 3.02979 9.43027C2.95761 9.43027 2.83143 9.43027 2.65116 9.42133C2.47082 9.42133 2.26351 9.40323 2.0381 9.36718C1.80369 9.33119 1.56025 9.28606 1.3078 9.22303C1.05588 9.16177 0.811124 9.07414 0.577576 8.96157L2.64207 0.288635L4.49031 0L3.76002 3.07421C3.92226 3.00217 4.06654 2.94802 4.22885 2.91203C4.38208 2.8671 4.55341 2.84901 4.73375 2.84901ZM3.18302 7.95186C3.46251 7.95186 3.72396 7.8887 3.9674 7.74455C4.21407 7.60782 4.43154 7.42403 4.60749 7.20361C4.78783 6.97813 4.93204 6.71667 5.03126 6.43712C5.13041 6.14862 5.18449 5.85124 5.18449 5.54472C5.18449 5.16602 5.12139 4.86864 4.99514 4.65218C4.86895 4.43579 4.60749 4.33664 4.26491 4.33664C4.15668 4.33664 4.0395 4.34572 3.85917 4.39079C3.67883 4.42677 3.5256 4.51705 3.38138 4.64317L2.60602 7.91581C2.84044 7.95186 2.91255 7.96081 2.97571 7.96081C3.02078 7.95186 3.09288 7.95186 3.18302 7.95186Z" fill="white"/>
</g>
<defs>
<clipPath id="clip0">
<rect width="35" height="12" fill="white" transform="translate(0.577576)"/>
</clipPath>
</defs>
</svg>
