<svg width="18" height="12" viewBox="0 0 18 12" fill="none" xmlns="http://www.w3.org/2000/svg">
<g clip-path="url(#clip0)">
<path d="M11.6652 9.8715H7.36859V2.12891H11.6652V9.8715Z" fill="#F1134F"/>
<path d="M7.64318 5.99971C7.64318 4.42909 8.37658 3.03002 9.51867 2.12841C8.68349 1.46911 7.62944 1.07559 6.48392 1.07559C3.772 1.07559 1.57367 3.28016 1.57367 5.99971C1.57367 8.71927 3.772 10.9238 6.48392 10.9238C7.62944 10.9238 8.68349 10.5303 9.51867 9.87102C8.37658 8.9694 7.64318 7.57034 7.64318 5.99971Z" fill="white"/>
<path d="M17.4604 5.99971C17.4604 8.71927 15.2621 10.9238 12.5502 10.9238C11.4046 10.9238 10.3506 10.5303 9.51508 9.87102C10.6575 8.9694 11.3909 7.57034 11.3909 5.99971C11.3909 4.42909 10.6575 3.03002 9.51508 2.12841C10.3506 1.46911 11.4046 1.07559 12.5502 1.07559C15.2621 1.07559 17.4604 3.28016 17.4604 5.99971Z" fill="white"/>
</g>
<defs>
<clipPath id="clip0">
<rect width="17" height="11" fill="white" transform="translate(0.577576 0.5)"/>
</clipPath>
</defs>
</svg>
