<svg width="242" height="217" viewBox="0 0 242 217" fill="none" xmlns="http://www.w3.org/2000/svg">
<path d="M4.00003 93.6904L48.5183 71.4961C58.1351 50.3378 75.134 33.4653 96.2918 24.0776C117.45 14.6899 141.296 13.4397 163.309 20.5638C185.322 27.688 203.972 42.6913 215.722 62.7292C227.473 82.7672 231.507 106.447 227.061 129.278C222.614 152.11 209.996 172.506 191.598 186.6C173.2 200.695 150.302 207.507 127.244 205.745C104.187 203.984 82.5732 193.771 66.5014 177.043C50.4295 160.316 41.0167 138.236 40.0475 114.991L4.00003 93.6904Z" fill="#F1F1F1"/>
<path d="M59.2892 24.9974L14.0004 16.5754L53.7223 30.8292L38.2656 48.9976L14.0004 16.5754L73.0739 11.5007L59.2892 24.9974Z" fill="#FD3E72"/>
<path d="M53.7219 30.8293L61.2062 42.1645L59.2888 24.9975L14 16.5755L53.7219 30.8293Z" fill="#D11D4E"/>
<path d="M53.7219 30.8294L61.2665 42.1465L47.6566 37.9585L53.7219 30.8294Z" fill="#9C0B33"/>
<path d="M69.1084 39.3627C114.983 56.4389 209.477 113.375 220.458 204.509" stroke="#FD3E72" stroke-dasharray="6 6"/>
<path d="M169.501 128.81H226.414C228.856 128.81 231.198 129.78 232.924 131.507C234.651 133.233 235.621 135.575 235.621 138.017V209.589H160.312V138.017C160.312 135.578 161.28 133.239 163.002 131.513C164.725 129.787 167.062 128.815 169.501 128.81Z" fill="#455A64"/>
<path d="M229.281 129.224C229.372 129.224 229.439 147.205 229.439 169.385C229.439 191.565 229.372 209.547 229.281 209.547C229.19 209.547 229.123 191.565 229.123 169.385C229.123 147.205 229.196 129.224 229.281 129.224Z" fill="#263238"/>
<path d="M192.172 41.1178C199.098 51.0334 203.07 62.7103 203.625 74.7926C203.977 82.8857 202.888 91.5083 206.728 98.64C212.241 108.875 224.162 108.528 227.813 119.56C229.401 124.362 226.474 134.919 225.683 139.915C224.788 145.586 228.257 150.351 227.362 156.028C226.541 161.231 222.646 164.943 217.973 167.365C213.811 169.519 209.965 169.58 205.639 167.785C197.387 164.371 190.523 160.768 184.651 154.051C176.4 144.619 173.905 131.536 172.481 119.104C169.374 91.611 170.002 63.8238 174.349 36.4993" fill="#263238"/>
<path d="M209.813 168.947C209.899 168.92 209.986 168.897 210.075 168.88C210.251 168.838 210.519 168.795 210.86 168.692C213.426 167.994 215.727 166.547 217.468 164.536C218.123 163.769 218.623 162.882 218.941 161.925C219.244 160.836 219.418 159.714 219.458 158.584C219.502 155.978 219.236 153.376 218.667 150.832C218.137 148.069 217.45 145.124 217.243 141.93C217.142 140.299 217.259 138.662 217.59 137.061C217.971 135.399 218.488 133.771 219.135 132.193C219.798 130.575 220.379 128.923 220.876 127.246C221.391 125.532 221.537 123.727 221.302 121.952C221.018 120.186 220.342 118.506 219.324 117.036C218.329 115.604 217.171 114.293 215.874 113.129C213.36 110.78 210.64 108.869 208.316 106.667C204.169 102.829 200.823 98.2092 198.47 93.0725C197.559 91.1062 196.802 89.0716 196.207 86.9875C195.915 86.0808 195.744 85.2045 195.537 84.4135C195.33 83.6224 195.239 82.8801 195.105 82.2229C194.917 80.8902 194.771 79.8619 194.734 79.1803C194.734 78.8396 194.685 78.5718 194.673 78.3771C194.661 78.1824 194.673 78.1033 194.673 78.1033C194.673 78.1033 194.673 78.1945 194.716 78.3771C194.758 78.5596 194.771 78.8335 194.813 79.1742C194.868 79.874 195.032 80.9024 195.239 82.2168C195.379 82.874 195.531 83.6042 195.696 84.4013C195.86 85.1985 196.085 86.0504 196.389 86.957C197 89.0204 197.767 91.0343 198.683 92.9813C201.052 98.0712 204.395 102.648 208.523 106.454C210.835 108.608 213.561 110.537 216.099 112.898C217.413 114.079 218.587 115.409 219.598 116.859C220.643 118.37 221.335 120.096 221.624 121.91C221.867 123.727 221.72 125.575 221.192 127.331C220.717 129.06 220.054 130.697 219.439 132.303C218.797 133.862 218.281 135.469 217.894 137.11C217.565 138.688 217.449 140.303 217.547 141.911C217.711 145.063 218.417 147.996 218.941 150.777C219.501 153.343 219.754 155.965 219.695 158.59C219.644 159.74 219.46 160.879 219.147 161.986C218.809 162.96 218.291 163.862 217.62 164.645C216.547 165.89 215.24 166.913 213.774 167.657C212.861 168.142 211.89 168.51 210.884 168.753C210.532 168.845 210.174 168.91 209.813 168.947Z" fill="#455A64"/>
<path d="M96.5156 190.689L125.724 176.821C125.724 176.821 137.097 121.6 139.251 117.456C141.405 113.312 150.387 109.728 150.387 109.728L148.884 184.501L146.206 201.764L105.023 205.665L96.5156 190.689Z" fill="#FD3E72"/>
<path d="M71.5971 203.772C71.4328 203.772 70.6235 204.271 71.2989 205.555C71.9744 206.839 76.9276 211.08 78.382 209.601C79.8363 208.123 77.6152 206.321 77.6152 206.321L71.5971 203.772Z" fill="#FFBE9D"/>
<path d="M77.822 206.376C77.822 206.376 83.7975 207.131 86.0916 208.007C88.5926 208.956 91.6351 208.305 93.6797 206.924C94.8416 206.15 95.9257 205.266 96.9169 204.283L104.535 204.161C105.631 202.879 106.349 201.318 106.611 199.652C106.873 197.986 106.669 196.28 106.02 194.723C105.612 193.64 105.024 192.634 104.28 191.747C103.373 190.768 101.943 189.977 99.4727 189.551L90.4242 191.504C90.4242 191.504 76.4285 190.5 73.9093 191.681C73.9093 191.681 70.7755 193.537 69.808 194.315C69.4428 194.614 68.3293 198.179 70.6112 200.035C70.6112 200.035 68.6274 201.611 69.7045 203.029L70.2156 203.638C70.2156 203.638 68.883 205.366 69.5706 206.12C70.2582 206.875 76.2642 210.38 78.4001 209.552C80.5359 208.725 78.7713 206.723 77.822 206.358" fill="#FFBE9D"/>
<path d="M72.1145 196.95C72.3671 197.025 72.615 197.114 72.8569 197.218C73.3254 197.395 74.013 197.65 74.8771 197.924C75.3031 198.064 75.7777 198.204 76.2949 198.338C76.8122 198.472 77.3659 198.587 77.944 198.776C78.5729 198.948 79.1416 199.292 79.587 199.768C79.8324 200.032 80.0026 200.357 80.0797 200.709C80.1567 201.061 80.1379 201.427 80.0251 201.77C79.8822 202.115 79.6212 202.397 79.2888 202.567C78.976 202.72 78.6378 202.815 78.2908 202.847C77.6541 202.884 77.0151 202.85 76.3862 202.743C75.3329 202.573 74.298 202.304 73.295 201.94C72.437 201.636 71.7616 201.332 71.293 201.149C71.045 201.059 70.8065 200.945 70.5811 200.808C70.8354 200.876 71.0854 200.959 71.3295 201.058C71.8042 201.228 72.4918 201.49 73.3498 201.77C74.3406 202.106 75.3585 202.356 76.3923 202.518C76.9959 202.613 77.608 202.641 78.2178 202.603C78.5333 202.575 78.8408 202.489 79.1245 202.348C79.4001 202.204 79.6158 201.967 79.733 201.679C79.8314 201.383 79.8505 201.067 79.7886 200.761C79.7267 200.456 79.5858 200.172 79.3801 199.938C78.9654 199.494 78.4372 199.172 77.8527 199.007C77.2929 198.819 76.7331 198.697 76.2219 198.551C75.7108 198.405 75.23 198.253 74.8041 198.107C73.94 197.808 73.2646 197.498 72.8021 197.322C72.5618 197.22 72.3315 197.095 72.1145 196.95Z" fill="#EB996E"/>
<path d="M72.6498 192.636C72.9017 192.707 73.1478 192.796 73.3861 192.904C73.8607 193.087 74.5422 193.348 75.3941 193.628C76.246 193.908 77.2744 194.237 78.4367 194.498C79.0743 194.598 79.6802 194.844 80.2074 195.216C80.4869 195.449 80.671 195.776 80.7247 196.135C80.778 196.497 80.7252 196.867 80.5725 197.2C80.4179 197.517 80.199 197.799 79.9298 198.027C79.6606 198.256 79.347 198.426 79.0087 198.527C78.3946 198.726 77.742 198.778 77.104 198.679C76.0661 198.471 75.0481 198.174 74.0615 197.79L72.0473 197.084C71.7976 197.006 71.5536 196.911 71.3171 196.798C71.5757 196.842 71.8302 196.907 72.0778 196.993L74.1163 197.602C75.1079 197.954 76.1251 198.231 77.1588 198.429C77.7614 198.516 78.3757 198.461 78.9539 198.271C79.2614 198.177 79.5461 198.02 79.7901 197.811C80.0341 197.601 80.2321 197.344 80.3717 197.054C80.5155 196.778 80.5641 196.461 80.5103 196.155C80.4564 195.848 80.3029 195.567 80.0735 195.356C79.5755 195.009 79.0056 194.778 78.4062 194.681C77.244 194.389 76.2156 194.072 75.3637 193.756C74.5118 193.439 73.8424 193.147 73.38 192.953C73.1284 192.867 72.8842 192.761 72.6498 192.636Z" fill="#EB996E"/>
<path d="M75.5278 193.853C75.4032 193.456 75.3116 193.049 75.254 192.636C75.1168 192.241 75.0169 191.834 74.9558 191.419C75.246 191.736 75.4347 192.132 75.4974 192.557C75.6496 192.974 75.6603 193.43 75.5278 193.853Z" fill="#EB996E"/>
<path d="M96.6004 194.048L91.2759 192.028C91.2759 192.028 76.4953 185.127 76.2458 185.505C75.9963 185.882 75.1931 185.833 75.3696 187.634C75.546 189.436 84.1564 193.074 84.4302 193.72C84.7041 194.365 84.2477 197.504 87.4302 199.762C90.6127 202.02 92.9067 202.074 92.9067 202.074" fill="#FFBE9D"/>
<path d="M92.9069 202.019H92.7669L92.4018 201.983C91.9332 201.909 91.4712 201.797 91.0205 201.648C89.3612 201.083 87.8277 200.201 86.5054 199.05C85.6099 198.211 84.9759 197.131 84.6799 195.94C84.5272 195.286 84.4214 194.621 84.3635 193.951C84.3531 193.874 84.3348 193.798 84.3087 193.726C84.2741 193.667 84.2261 193.617 84.1687 193.579C84.0298 193.479 83.8856 193.385 83.7367 193.3C83.4385 193.123 83.1282 192.953 82.7996 192.782C81.5217 192.095 80.1526 191.407 78.7774 190.616C78.0724 190.219 77.388 189.786 76.7267 189.32C76.3843 189.08 76.0627 188.811 75.7652 188.517C75.607 188.365 75.4698 188.193 75.3576 188.006C75.2972 187.902 75.256 187.789 75.2359 187.671C75.2238 187.562 75.2238 187.451 75.2359 187.342C75.1872 186.902 75.2653 186.456 75.461 186.058C75.5819 185.87 75.7417 185.711 75.9295 185.59C76.0059 185.54 76.0755 185.481 76.1364 185.413C76.1364 185.413 76.1364 185.413 76.1851 185.359C76.2147 185.336 76.2515 185.325 76.2886 185.328C76.3229 185.324 76.3576 185.324 76.392 185.328L76.5563 185.371C77.3535 185.614 78.0897 185.937 78.826 186.241C80.2865 186.849 81.6799 187.458 83.0065 188.066C85.6657 189.283 88.0388 190.367 90.0347 191.304C90.5337 191.529 91.0023 191.766 91.4526 191.961L92.7548 192.472L94.8419 193.3L96.1563 193.829L96.491 193.975C96.5701 193.975 96.6066 194.024 96.6066 194.03C96.6066 194.036 96.564 194.03 96.4849 193.993L96.138 193.878L94.8054 193.385L92.7 192.636L91.3856 192.143C90.9231 191.955 90.4546 191.724 89.9556 191.498L82.9091 188.316C81.5765 187.707 80.183 187.099 78.7226 186.49C77.9924 186.192 77.25 185.882 76.4833 185.632L76.3494 185.602H76.3007C76.3007 185.602 76.3007 185.565 76.3007 185.541C76.4711 185.651 76.3433 185.578 76.3798 185.602C76.3072 185.692 76.2209 185.77 76.1243 185.833C75.962 185.933 75.8246 186.068 75.7227 186.229C75.5514 186.586 75.4839 186.985 75.5279 187.379C75.524 187.569 75.568 187.757 75.6557 187.926C75.7575 188.095 75.8801 188.251 76.0208 188.389C76.3087 188.672 76.6202 188.931 76.9518 189.162C77.609 189.636 78.2966 190.05 78.9782 190.446C80.3473 191.237 81.7043 191.93 82.9882 192.618C83.3107 192.794 83.5967 192.965 83.9314 193.154C84.0885 193.243 84.2408 193.34 84.3878 193.446C84.4764 193.505 84.5477 193.587 84.5947 193.683C84.6255 193.772 84.6459 193.863 84.6555 193.957C84.7133 194.62 84.8128 195.278 84.9537 195.928C85.232 197.088 85.8358 198.143 86.694 198.971C87.9908 200.118 89.4914 201.012 91.1179 201.606C91.5607 201.762 92.0142 201.886 92.4748 201.977C92.6331 202.013 92.7548 202.026 92.8399 202.038L92.9069 202.019Z" fill="#EB996E"/>
<path d="M76.6047 202.713C76.801 202.737 76.9921 202.792 77.1706 202.877C77.6706 203.078 78.1397 203.349 78.5641 203.681C78.8599 203.912 79.1293 204.175 79.3673 204.466C79.5169 204.629 79.6323 204.821 79.7065 205.03C79.7807 205.239 79.8123 205.461 79.7994 205.683C79.7507 205.934 79.6326 206.168 79.4584 206.356C79.2842 206.544 79.0609 206.68 78.8136 206.748C78.3052 206.887 77.7667 206.87 77.268 206.699C75.5755 206.198 73.9335 205.54 72.3634 204.733C71.8906 204.487 71.4315 204.215 70.9882 203.918C70.8179 203.82 70.6605 203.702 70.5197 203.565C70.7007 203.637 70.874 203.726 71.0369 203.833C71.3655 204.021 71.8401 204.283 72.4425 204.575C74.015 205.327 75.6424 205.957 77.3106 206.462C77.7654 206.619 78.2567 206.638 78.7223 206.516C78.9271 206.462 79.1131 206.353 79.2601 206.201C79.4071 206.049 79.5095 205.859 79.556 205.652C79.5694 205.457 79.544 205.26 79.4813 205.074C79.4187 204.888 79.32 204.717 79.1909 204.569C78.9676 204.285 78.7146 204.026 78.4363 203.796C77.8739 203.36 77.2584 202.996 76.6047 202.713Z" fill="#EB996E"/>
<g opacity="0.3">
<path opacity="0.3" d="M145.999 201.764C141.216 185.632 136.999 164.858 132.216 148.726C130.464 163.616 132.655 183.277 135.393 198.015C135.715 199.744 135.861 201.435 137.218 202.573L145.999 201.764Z" fill="black"/>
</g>
<path d="M138.167 190.689C138.1 190.689 137.899 189.636 137.248 188.024C136.866 187.084 136.408 186.176 135.879 185.31C135.219 184.258 134.466 183.268 133.628 182.353C132.777 181.446 131.844 180.621 130.841 179.888C130.018 179.293 129.147 178.768 128.236 178.318C126.679 177.551 125.632 177.272 125.65 177.211C125.904 177.24 126.153 177.3 126.393 177.387C126.681 177.46 126.964 177.554 127.238 177.667C127.611 177.798 127.977 177.948 128.334 178.117C129.271 178.546 130.167 179.06 131.011 179.651C132.041 180.384 132.997 181.215 133.865 182.134C134.716 183.072 135.474 184.091 136.129 185.176C136.654 186.062 137.1 186.992 137.461 187.957C137.626 188.365 137.723 188.748 137.826 189.083C137.92 189.367 137.993 189.658 138.046 189.953C138.11 190.194 138.15 190.44 138.167 190.689Z" fill="#E73263"/>
<path d="M147.283 108.973C147.283 108.973 131.991 143.141 131.991 149.432C131.991 155.724 143.45 199.287 143.45 199.287C143.34 201.022 142.896 209.705 142.896 209.705L207.148 209.93L208.128 196.117L203.114 182.955L208.122 145.745C208.122 145.745 211.493 124.143 211.773 118.1C212.15 110.543 186.544 101.78 187.244 100.734L182.826 94.7947L157.506 115.356L152.498 100.898L146.498 106.563L147.283 108.973Z" fill="#FD3E72"/>
<path d="M189.362 118.064C182.406 129.826 169.682 151.258 169.682 151.258L146.876 177.265C146.876 177.265 145.385 190.476 148.366 194.529C151.348 198.581 156.466 201.35 156.466 201.35C156.466 201.35 162.484 201.35 170.133 194.955C177.782 188.559 198.879 162.132 198.879 162.132L206.126 153.388C206.126 153.388 214.767 132.163 213.154 121.362C212.546 117.194 210.757 115.466 208.396 113.555C202.451 108.766 193.25 111.486 189.362 118.064Z" fill="#FD3E72"/>
<path d="M208.809 146.025C208.778 146.108 208.741 146.19 208.699 146.268C208.62 146.438 208.504 146.664 208.365 146.962C208.06 147.57 207.598 148.453 206.965 149.572C205.705 151.818 203.746 154.988 201.19 158.815C199.906 160.726 198.476 162.801 196.9 165.004C195.324 167.207 193.535 169.477 192.063 172.13C190.59 174.783 189.251 177.679 187.639 180.576C185.982 183.577 184.04 186.411 181.84 189.04C179.639 191.68 177.049 193.969 174.16 195.831C171.453 197.558 168.429 198.729 165.264 199.275C162.4 199.783 159.459 199.659 156.648 198.91C155.375 198.566 154.149 198.07 152.997 197.431C151.924 196.865 150.916 196.184 149.99 195.399C149.142 194.696 148.382 193.893 147.727 193.007C147.137 192.221 146.635 191.372 146.23 190.476C145.604 189.035 145.194 187.509 145.013 185.949C144.908 184.965 144.874 183.974 144.909 182.985C144.909 182.657 144.946 182.377 144.958 182.213C144.952 182.125 144.952 182.038 144.958 181.951C144.965 182.038 144.965 182.125 144.958 182.213C144.958 182.401 144.958 182.657 144.958 182.985C144.946 183.969 144.999 184.953 145.116 185.931C145.321 187.475 145.747 188.981 146.382 190.403C146.791 191.282 147.293 192.114 147.879 192.886C148.531 193.756 149.287 194.542 150.13 195.229C151.047 195.998 152.045 196.665 153.106 197.218C154.243 197.841 155.45 198.325 156.702 198.66C159.484 199.387 162.392 199.499 165.221 198.989C168.344 198.441 171.326 197.279 173.996 195.569C176.859 193.721 179.426 191.45 181.608 188.833C183.796 186.222 185.726 183.406 187.371 180.424C188.984 177.545 190.286 174.624 191.813 171.984C193.305 169.517 194.93 167.135 196.681 164.846C198.263 162.655 199.724 160.586 200.996 158.688C203.576 154.885 205.559 151.732 206.849 149.511C207.5 148.398 207.981 147.528 208.298 146.931L208.669 146.25C208.707 146.17 208.754 146.094 208.809 146.025Z" fill="#E73263"/>
<path d="M145.707 176.103C145.707 176.146 145.384 176.347 144.964 176.815C144.405 177.408 144.061 178.172 143.986 178.983C143.911 179.795 144.11 180.608 144.551 181.294C144.873 181.829 145.159 182.091 145.159 182.128C145.159 182.164 144.776 181.957 144.374 181.422C143.849 180.712 143.605 179.833 143.687 178.955C143.769 178.076 144.171 177.258 144.818 176.657C145.054 176.39 145.363 176.197 145.707 176.103Z" fill="#E73263"/>
<path d="M149.924 183.003C150.046 183.02 150.166 183.048 150.283 183.088L150.709 183.204L151.317 183.314C152.582 183.48 153.867 183.36 155.078 182.961C156.88 182.357 158.537 181.388 159.946 180.113C161.62 178.506 163.138 176.743 164.479 174.849C165.842 172.94 167.411 171.187 169.159 169.622C169.986 168.929 170.796 168.314 171.471 167.651C172.114 167.061 172.632 166.346 172.992 165.551C173.234 164.97 173.329 164.339 173.268 163.713C173.208 163.087 172.994 162.485 172.646 161.961C172.352 161.601 171.973 161.319 171.544 161.14C171.665 161.162 171.783 161.197 171.897 161.243C172.225 161.39 172.514 161.611 172.743 161.888C173.129 162.424 173.373 163.048 173.454 163.703C173.535 164.358 173.449 165.023 173.205 165.637C172.843 166.467 172.317 167.216 171.66 167.839C170.972 168.521 170.157 169.154 169.347 169.847C167.629 171.41 166.082 173.152 164.735 175.044C163.378 176.954 161.837 178.728 160.135 180.338C158.696 181.62 157.005 182.586 155.169 183.174C153.924 183.564 152.604 183.653 151.317 183.435L150.709 183.295C150.539 183.247 150.399 183.186 150.289 183.149C150.162 183.115 150.039 183.066 149.924 183.003Z" fill="#E73263"/>
<path d="M192.458 114.449C192.381 114.577 192.296 114.699 192.203 114.814C192.002 115.07 191.746 115.423 191.424 115.831C190.73 116.695 189.775 117.985 188.606 119.591C185.629 123.812 182.919 128.216 180.495 132.777C177.623 138.108 175.25 143.055 173.43 146.584C172.53 148.355 171.787 149.779 171.246 150.753L170.655 151.866C170.589 152 170.51 152.126 170.418 152.244C170.464 152.102 170.523 151.966 170.595 151.836L171.167 150.686L173.254 146.481C175.018 142.921 177.367 137.962 180.239 132.619C182.666 128.043 185.411 123.643 188.454 119.451C189.671 117.863 190.627 116.585 191.351 115.745L192.178 114.766C192.26 114.65 192.354 114.544 192.458 114.449Z" fill="#E73263"/>
<g opacity="0.3">
<path opacity="0.3" d="M144.977 181.951C147.94 183.557 151.202 183.387 154.512 182.742C157.854 182.074 160.863 180.273 163.031 177.643C162.53 180.572 161.158 183.282 159.094 185.419C156.989 187.482 153.934 188.675 151.037 188.145C148.141 187.616 145.208 184.89 144.952 181.951" fill="black"/>
</g>
<g opacity="0.3">
<path opacity="0.3" d="M173.029 164.389C174.91 167.289 175.566 170.816 174.854 174.199C177.367 170.353 177.958 165.485 177.288 160.939C176.619 156.394 174.763 152.104 172.706 147.996C172.706 147.996 170.442 151.83 170.418 152.256C170.309 154.471 171.124 158.633 171.55 160.805C172.118 161.351 172.542 162.029 172.783 162.779C173.024 163.529 173.075 164.327 172.931 165.101" fill="black"/>
</g>
<g opacity="0.3">
<path opacity="0.3" d="M155.029 197.87C161.078 202.585 170.053 202.805 176.668 198.934C183.039 195.204 186.964 188.486 190.602 182.067C196.243 172.124 203.119 159.826 207.148 149.128C207.148 149.128 195.86 164.529 192.458 171.168C190.191 175.656 187.617 179.983 184.755 184.117C181.516 188.776 177.138 192.527 172.037 195.012C166.937 197.498 161.284 198.634 155.619 198.314" fill="black"/>
</g>
<path d="M142.896 209.674C142.886 209.612 142.886 209.548 142.896 209.486C142.896 209.34 142.896 209.157 142.896 208.932C142.896 208.415 142.938 207.715 142.975 206.821C143.06 204.995 143.176 202.379 143.322 199.257V199.33C142.232 195.679 140.955 191.249 139.628 186.466C137.875 180.125 136.397 174.357 135.399 170.164C134.906 168.071 134.516 166.367 134.273 165.187C134.157 164.621 134.066 164.164 133.999 163.83C133.963 163.671 133.937 163.511 133.92 163.349C133.982 163.498 134.029 163.653 134.06 163.811L134.395 165.162C134.693 166.379 135.107 168.047 135.612 170.109C136.665 174.29 138.18 180.046 139.932 186.381C141.253 191.164 142.512 195.594 143.583 199.251V199.293C143.395 202.415 143.236 205.013 143.121 206.863C143.06 207.746 143.011 208.451 142.975 208.969C142.975 209.188 142.938 209.37 142.926 209.516C142.923 209.57 142.912 209.623 142.896 209.674Z" fill="#E73263"/>
<path d="M207.166 113.202C207.166 113.251 206.509 113.019 205.456 112.758C204.083 112.412 202.678 112.208 201.264 112.149C199.848 112.11 198.433 112.221 197.041 112.478C195.97 112.679 195.318 112.861 195.306 112.813C195.441 112.726 195.589 112.66 195.744 112.618C196.154 112.477 196.57 112.357 196.992 112.259C198.387 111.933 199.819 111.79 201.251 111.833C202.695 111.876 204.126 112.105 205.511 112.514C205.925 112.635 206.332 112.781 206.728 112.953C207.032 113.105 207.166 113.178 207.166 113.202Z" fill="#E73263"/>
<path d="M186.824 101.969C186.78 102.079 186.725 102.185 186.659 102.285L186.142 103.155C185.686 103.91 185.01 104.981 184.152 106.313C182.43 108.948 179.966 112.545 177.051 116.366C174.708 119.451 172.439 122.22 170.583 124.386L170.449 124.538L170.37 124.356C169.481 122.421 168.751 120.814 168.222 119.652C167.984 119.116 167.796 118.678 167.644 118.344C167.569 118.194 167.51 118.037 167.467 117.875C167.565 118.012 167.648 118.159 167.717 118.313C167.881 118.642 168.088 119.068 168.356 119.591C168.909 120.741 169.676 122.329 170.595 124.252L170.388 124.222C172.214 122.031 174.459 119.256 176.802 116.177C179.71 112.356 182.193 108.79 183.964 106.186L186.039 103.088L186.605 102.249C186.665 102.146 186.739 102.052 186.824 101.969Z" fill="#E73263"/>
<path d="M201.617 200.103C201.526 200.103 201.806 196.932 202.226 193.044C202.645 189.156 203.077 186.016 203.163 186.028C203.248 186.04 202.968 189.192 202.554 193.08C202.14 196.969 201.69 200.109 201.617 200.103Z" fill="#E73263"/>
<path d="M157.573 199.269C157.919 201.022 158.16 202.794 158.297 204.575C158.543 206.344 158.679 208.126 158.705 209.912C158.363 208.158 158.121 206.387 157.981 204.606C157.742 202.836 157.605 201.054 157.573 199.269Z" fill="#FD3E72"/>
<path d="M142.695 36.9866C137.906 40.0291 136.001 46.4245 136.902 50.2033C137.364 52.108 138.228 54.0248 137.851 55.9416C137.529 57.6028 136.33 58.9354 135.417 60.3715C133.913 62.7889 133.222 65.6241 133.445 68.4624C133.669 71.3006 134.794 73.9931 136.657 76.1458C138.52 78.2986 141.023 79.7987 143.8 80.4269C146.577 81.055 149.482 80.7781 152.09 79.6368" fill="#263238"/>
<path d="M139.859 61.929C128.2 36.2865 155.936 23.4044 171.063 27.6761C185.284 31.6923 191.351 38.7692 193.693 48.2802C196.036 57.7911 195.921 68.1053 192.19 77.166C190.365 81.6324 187.043 86.1719 182.241 86.7317" fill="#263238"/>
<path d="M153.52 124.55C153.319 112.295 153.173 95.4699 153.173 95.5369C153.173 95.6038 142.664 93.7905 140.455 80.0626C139.372 73.229 139.719 62.0264 140.291 52.8684C140.814 44.6231 146.273 34.5098 154.488 35.3799L180.136 41.8605C181.34 41.987 182.453 42.5614 183.253 43.4699C184.053 44.3785 184.483 45.5546 184.457 46.7651L182.789 99.8086" fill="#FFBE9D"/>
<path d="M153.173 95.5366C159.642 95.6355 166.012 93.9377 171.574 90.6321C171.574 90.6321 166.925 100.186 153.173 98.9017V95.5366Z" fill="#F5B08C"/>
<path d="M160.512 55.8011C160.694 56.3183 162.593 56.0688 164.814 56.3427C167.035 56.6165 168.836 57.2128 169.134 56.7504C169.268 56.5313 168.952 56.0445 168.228 55.5334C167.259 54.9221 166.164 54.5393 165.025 54.4138C163.887 54.2884 162.735 54.4236 161.656 54.8092C160.841 55.15 160.427 55.5577 160.512 55.8011Z" fill="#263238"/>
<path d="M182.102 64.8498C182.303 64.7524 189.459 61.5882 189.544 69.8152C189.629 78.0422 181.348 76.4297 181.329 76.1924C181.311 75.955 182.102 64.8498 182.102 64.8498Z" fill="#FFBE9D"/>
<path d="M183.812 73.0403C183.849 73.0403 183.958 73.1377 184.202 73.2472C184.546 73.3841 184.929 73.3841 185.273 73.2472C186.137 72.9186 186.855 71.5312 186.879 70.0465C186.897 69.3418 186.754 68.6423 186.459 68.0019C186.381 67.7451 186.24 67.5116 186.05 67.3217C185.86 67.1318 185.627 66.9914 185.37 66.9127C185.205 66.8702 185.031 66.8872 184.877 66.9607C184.723 67.0341 184.601 67.1593 184.53 67.3143C184.421 67.5455 184.476 67.7098 184.433 67.722C184.39 67.7341 184.25 67.5881 184.317 67.2473C184.36 67.0437 184.472 66.8611 184.634 66.7301C184.745 66.6434 184.872 66.5794 185.007 66.5418C185.143 66.5042 185.285 66.4937 185.425 66.511C185.763 66.5746 186.079 66.7237 186.343 66.9442C186.608 67.1648 186.811 67.4493 186.934 67.7706C187.292 68.4792 187.472 69.2647 187.457 70.0586C187.421 71.7138 186.587 73.2776 185.4 73.6306C185.18 73.697 184.948 73.7135 184.721 73.6787C184.493 73.644 184.276 73.5589 184.086 73.4298C183.83 73.2411 183.788 73.0525 183.812 73.0403Z" fill="#EB996E"/>
<path d="M151.75 31.3091C147.174 33.6762 145.287 43.035 147.18 47.83C149.072 52.6251 154.178 54.9617 159.21 56.0631C164.242 57.1645 169.177 57.2801 174.143 55.9171C174.484 59.2517 176.486 62.6776 179.723 63.5599C184.013 64.7222 188.333 60.7973 189.288 56.4587C190.244 52.12 188.808 47.6536 187.396 43.4366" fill="#263238"/>
<path d="M188.047 61.1563C188.047 61.1563 187.84 61.3997 187.408 61.7648C186.804 62.2759 186.172 62.7533 185.516 63.1948C184.534 63.872 183.454 64.3953 182.315 64.7465C180.891 65.1954 179.361 65.1719 177.952 64.6796C176.565 64.1207 175.402 63.1168 174.648 61.8257C174.036 60.7943 173.633 59.6532 173.461 58.4667C173.341 57.6777 173.298 56.8787 173.333 56.0814C173.32 55.7896 173.355 55.4977 173.437 55.2173C173.528 55.2173 173.437 56.4647 173.79 58.4059C173.998 59.5338 174.411 60.6143 175.007 61.5944C175.729 62.784 176.815 63.7098 178.104 64.2354C179.422 64.6908 180.851 64.7206 182.187 64.3205C183.292 64.0008 184.347 63.5277 185.321 62.9149C187.012 61.8561 187.998 61.0894 188.047 61.1563Z" fill="#263238"/>
<path d="M191.345 59.2092C190.505 59.1483 183.708 60.0307 184.244 72.6572C184.742 84.4561 193.018 81.8578 195.659 77.4157C198.142 73.2109 199.59 59.7873 191.345 59.2092Z" fill="#455A64"/>
<path d="M195.525 60.7C195.506 60.5915 195.496 60.4816 195.495 60.3714C195.495 60.1219 195.495 59.8055 195.458 59.4039C195.458 58.5337 195.397 57.3167 195.355 55.8076C195.294 52.7103 195.209 48.396 195.105 43.4245L195.257 43.5706H191.758L191.917 43.4123C191.917 44.3494 191.965 45.3413 191.996 46.3514C192.111 51.0856 192.221 55.479 192.312 59.197V59.3065H192.209C190.772 59.6378 189.496 60.4599 188.6 61.631C187.922 62.5392 187.432 63.5735 187.158 64.6736C186.976 65.3823 186.852 66.1048 186.787 66.8338C186.787 67.0833 186.756 67.278 186.75 67.4058C186.744 67.5335 186.75 67.6066 186.75 67.6066C186.742 67.5399 186.742 67.4725 186.75 67.4058C186.75 67.278 186.75 67.0833 186.75 66.8277C186.78 66.0893 186.882 65.3556 187.055 64.6371C187.308 63.5048 187.791 62.4363 188.472 61.4972C189.391 60.278 190.706 59.4172 192.19 59.0631L192.087 59.197C191.984 55.5034 191.856 51.0917 191.722 46.3514C191.691 45.3474 191.667 44.3555 191.643 43.4123V43.248H195.458V43.4002C195.513 48.3778 195.562 52.686 195.598 55.7894C195.598 57.2985 195.598 58.5155 195.598 59.3856C195.598 59.7873 195.598 60.1037 195.598 60.3471C195.59 60.4675 195.566 60.5863 195.525 60.7Z" fill="#455A64"/>
<path d="M191.345 43.4182C191.345 43.4182 187.791 35.106 179.327 30.9986C176.09 29.3863 172.689 28.1255 169.183 27.2381C169.183 27.2381 174.124 26.0697 182.114 29.6234C185.765 31.242 189.416 33.3414 191.85 36.4995C193.384 38.5015 195.307 42.4142 195.3 43.4182H191.345Z" fill="#455A64"/>
<path d="M169.439 144.108C169.439 144.108 169.487 144.047 169.591 143.944C169.694 143.84 169.853 143.682 170.047 143.469C170.631 142.851 171.18 142.201 171.69 141.522C172.503 140.434 173.244 139.296 173.911 138.114C174.702 136.733 175.53 135.102 176.424 133.283C178.219 129.632 180.294 125.238 182.449 120.188C183.52 117.662 184.615 114.979 185.71 112.149L186.526 110.007C186.783 109.258 187.111 108.534 187.505 107.847C187.927 107.134 188.537 106.553 189.27 106.168C189.643 105.963 190.062 105.856 190.487 105.857C190.719 105.873 190.942 105.953 191.132 106.088C191.312 106.234 191.452 106.422 191.54 106.636V106.679V106.727C191.488 107.017 191.376 107.293 191.211 107.537C191.027 107.791 190.757 107.968 190.45 108.036C189.866 108.117 189.271 108.008 188.753 107.725C188.209 107.472 187.765 107.043 187.493 106.508C187.221 105.974 187.135 105.363 187.25 104.774C187.374 104.169 187.73 103.636 188.242 103.289C188.747 102.937 189.355 102.764 189.97 102.796C190.288 102.799 190.601 102.88 190.879 103.035C191.158 103.189 191.393 103.41 191.564 103.679C191.65 103.833 191.69 104.008 191.679 104.184C191.668 104.359 191.607 104.529 191.503 104.671C191.302 104.925 191.035 105.119 190.73 105.23C190.22 105.424 189.661 105.449 189.136 105.299C188.611 105.15 188.148 104.836 187.816 104.403C187.492 103.961 187.351 103.412 187.42 102.869C187.473 102.34 187.685 101.84 188.029 101.433C188.377 101.023 188.864 100.754 189.398 100.679C189.667 100.644 189.941 100.672 190.197 100.76C190.454 100.849 190.686 100.996 190.876 101.19C191.071 101.4 191.176 101.677 191.168 101.963C191.165 102.105 191.132 102.245 191.071 102.374C191.01 102.503 190.923 102.618 190.816 102.711C190.617 102.89 190.379 103.019 190.121 103.089C189.863 103.159 189.592 103.167 189.331 103.113C189.078 103.047 188.841 102.928 188.637 102.764C188.432 102.601 188.264 102.396 188.144 102.164C187.908 101.727 187.758 101.25 187.7 100.758C187.528 99.8015 187.641 98.8157 188.023 97.9223C188.236 97.4664 188.605 97.1017 189.063 96.8939C189.532 96.7203 190.049 96.7378 190.505 96.9426C190.744 97.0288 190.954 97.1798 191.112 97.3786C191.27 97.5774 191.37 97.8162 191.4 98.0683C191.412 98.326 191.344 98.5812 191.206 98.799C191.067 99.0168 190.865 99.1867 190.627 99.2853C190.41 99.3964 190.171 99.4543 189.927 99.4543C189.684 99.4543 189.444 99.3964 189.227 99.2853C188.816 99.0474 188.506 98.6661 188.357 98.2143C188.22 97.7859 188.192 97.3296 188.278 96.8878C188.326 96.4571 188.42 96.0327 188.558 95.6221C188.695 95.2 188.951 94.8262 189.294 94.5451C189.632 94.2744 190.024 94.0813 190.444 93.9791C190.663 93.9166 190.895 93.9166 191.114 93.9791C191.323 94.0518 191.513 94.1727 191.667 94.3321C191.822 94.4843 191.945 94.6665 192.026 94.8676C192.115 95.0841 192.115 95.3265 192.026 95.543C191.928 95.7432 191.772 95.9088 191.577 96.0175C191.382 96.1263 191.159 96.173 190.937 96.1515C190.525 96.1456 190.126 96.0116 189.793 95.7682C189.163 95.3034 188.729 94.6197 188.576 93.8514C188.417 93.0929 188.536 92.3024 188.911 91.6242C189.076 91.2989 189.31 91.0142 189.599 90.7906C189.883 90.575 190.215 90.4309 190.566 90.3707C190.917 90.2994 191.283 90.3509 191.601 90.5167C191.758 90.602 191.891 90.7251 191.989 90.8749C192.087 91.0247 192.146 91.1965 192.16 91.3747C192.158 91.7105 192.045 92.0362 191.838 92.3005C191.631 92.5648 191.342 92.7529 191.016 92.8352C190.711 92.9001 190.394 92.8774 190.101 92.7697C189.808 92.662 189.552 92.4738 189.361 92.2267C188.996 91.7866 188.782 91.2402 188.753 90.6689C188.806 89.6739 189.011 88.6929 189.361 87.7602C189.611 86.884 189.836 86.0807 190.043 85.3627C190.45 83.9327 190.767 82.8191 190.992 82.0524C191.095 81.6812 191.181 81.3952 191.242 81.1944C191.302 80.9936 191.339 80.9023 191.339 80.9023C191.339 80.9023 191.339 81.0058 191.272 81.2005C191.205 81.3952 191.144 81.6995 191.053 82.0707C190.846 82.8435 190.542 83.9631 190.158 85.3931L189.507 87.7967C189.3 88.6791 188.899 89.6222 188.941 90.6567C188.985 91.1918 189.199 91.6989 189.55 92.1049C189.718 92.3233 189.944 92.4902 190.202 92.587C190.46 92.6838 190.74 92.7065 191.01 92.6526C191.283 92.5824 191.527 92.4261 191.704 92.207C191.882 91.9878 191.984 91.7174 191.996 91.4356C191.983 91.2927 191.936 91.1552 191.857 91.0353C191.779 90.9153 191.672 90.8166 191.546 90.748C191.271 90.6118 190.958 90.5711 190.657 90.6324C190.338 90.687 190.038 90.8186 189.781 91.0157C189.526 91.2226 189.318 91.4821 189.173 91.7764C188.871 92.4005 188.792 93.109 188.947 93.7844C189.094 94.4907 189.497 95.1174 190.079 95.543C190.371 95.7525 190.718 95.8691 191.077 95.8777C191.246 95.898 191.416 95.8663 191.567 95.7869C191.717 95.7075 191.839 95.5842 191.917 95.4335C191.954 95.2646 191.944 95.0886 191.887 94.9252C191.83 94.7618 191.729 94.6175 191.594 94.5086C191.469 94.3818 191.317 94.2842 191.15 94.2226C190.977 94.1772 190.794 94.1772 190.621 94.2226C190.238 94.3058 189.882 94.4852 189.587 94.7439C189.292 95.0026 189.068 95.332 188.935 95.7012C188.803 96.0958 188.715 96.504 188.674 96.9182C188.591 97.3233 188.616 97.7429 188.747 98.1353C188.868 98.5184 189.128 98.8421 189.477 99.0419C189.653 99.1303 189.848 99.1763 190.046 99.1763C190.243 99.1763 190.438 99.1303 190.615 99.0419C190.797 98.9711 190.953 98.8462 191.061 98.6841C191.17 98.522 191.227 98.3305 191.223 98.1353C191.196 97.9387 191.115 97.7534 190.99 97.5999C190.864 97.4464 190.699 97.3305 190.511 97.2651C190.126 97.0967 189.691 97.0815 189.294 97.2225C188.906 97.4038 188.593 97.7162 188.412 98.1048C188.063 98.9452 187.963 99.8685 188.126 100.764C188.18 101.218 188.318 101.657 188.534 102.06C188.633 102.254 188.771 102.424 188.94 102.562C189.108 102.699 189.304 102.799 189.513 102.857C189.727 102.903 189.949 102.898 190.161 102.842C190.372 102.786 190.567 102.681 190.73 102.535C190.807 102.467 190.868 102.385 190.912 102.293C190.956 102.201 190.98 102.101 190.984 101.999C190.988 101.897 190.972 101.796 190.935 101.701C190.899 101.606 190.844 101.519 190.773 101.446C190.615 101.289 190.423 101.171 190.212 101.1C190.001 101.029 189.776 101.008 189.556 101.038C189.099 101.105 188.682 101.339 188.388 101.695C188.068 102.038 187.873 102.478 187.834 102.944C187.794 103.411 187.912 103.877 188.169 104.269C188.461 104.644 188.865 104.916 189.323 105.045C189.78 105.174 190.267 105.154 190.712 104.987C190.95 104.889 191.16 104.732 191.321 104.531C191.389 104.436 191.429 104.324 191.435 104.207C191.442 104.091 191.415 103.975 191.357 103.873C191.211 103.654 191.013 103.475 190.78 103.35C190.548 103.226 190.288 103.161 190.024 103.162C189.487 103.12 188.951 103.269 188.514 103.585C188.076 103.9 187.764 104.36 187.633 104.884C187.534 105.392 187.606 105.918 187.837 106.382C188.068 106.845 188.445 107.219 188.911 107.445C189.363 107.702 189.886 107.805 190.402 107.737C190.634 107.665 190.839 107.525 190.991 107.336C191.143 107.146 191.234 106.915 191.254 106.673V106.764C191.195 106.596 191.088 106.448 190.946 106.34C190.805 106.232 190.634 106.168 190.457 106.155C190.079 106.154 189.708 106.25 189.379 106.435C188.694 106.794 188.122 107.338 187.73 108.005C187.345 108.672 187.025 109.375 186.775 110.105L185.948 112.253C184.852 115.076 183.745 117.729 182.662 120.285C180.495 125.336 178.402 129.741 176.577 133.368C175.67 135.193 174.83 136.806 174.021 138.187C173.339 139.365 172.581 140.497 171.751 141.577C171.073 142.501 170.298 143.349 169.439 144.108Z" fill="white"/>
<path d="M198.702 53.2884C198.628 52.5149 198.441 51.7564 198.148 51.0369C197.264 49.1015 195.713 47.5486 193.779 46.6617C192.451 46.0618 191.023 45.7131 189.568 45.6333C187.893 45.5472 186.215 45.674 184.572 46.0106C181.085 46.6556 177.422 48.1586 173.321 48.7793C171.322 49.0441 169.296 49.0441 167.297 48.7793C165.44 48.4998 163.623 48.0056 161.881 47.3067C158.923 46.1155 156.233 44.3445 153.97 42.0979C152.447 40.5957 151.159 38.8725 150.149 36.9865C149.978 36.699 149.828 36.4002 149.699 36.092L149.407 35.4165C149.334 35.2522 149.279 35.1123 149.23 35.0027C149.207 34.9567 149.19 34.9075 149.181 34.8567C149.213 34.8977 149.24 34.9427 149.261 34.9906L149.461 35.3922L149.784 36.0494C149.923 36.3535 150.081 36.6483 150.258 36.9317C151.302 38.7776 152.606 40.4642 154.129 41.9397C157.721 45.4582 162.339 47.7446 167.315 48.469C169.286 48.7307 171.283 48.7307 173.254 48.469C177.3 47.8605 180.97 46.3635 184.499 45.7307C186.165 45.3978 187.866 45.2792 189.562 45.3778C191.048 45.4678 192.503 45.8374 193.852 46.467C195.819 47.3885 197.38 48.9993 198.239 50.9943C198.453 51.5373 198.594 52.106 198.659 52.6859V53.1362C198.681 53.1845 198.695 53.2358 198.702 53.2884Z" fill="#455A64"/>
<path d="M189.52 40.1748C189.376 40.21 189.229 40.2344 189.081 40.2478C188.795 40.2904 188.369 40.3512 187.828 40.4486C186.745 40.625 185.193 40.9719 183.282 41.4465C181.047 42.0491 178.772 42.4904 176.473 42.767C173.649 43.0563 170.799 42.9929 167.991 42.5783C165.181 42.1708 162.429 41.4313 159.794 40.3756C157.633 39.5203 155.564 38.45 153.618 37.1809C152.802 36.6272 152.072 36.116 151.451 35.6292C150.831 35.1424 150.307 34.7225 149.906 34.3453L148.981 33.4751C148.774 33.2743 148.664 33.1648 148.677 33.1526C148.8 33.2329 148.917 33.3246 149.023 33.4264L149.985 34.2479C150.399 34.613 150.952 35.0024 151.561 35.4649C152.169 35.9274 152.924 36.4324 153.739 36.9679C158.077 39.7044 162.94 41.5016 168.015 42.2437C170.802 42.6517 173.627 42.7212 176.431 42.4506C178.716 42.2021 180.981 41.7955 183.209 41.2336C185.126 40.7893 186.696 40.4729 187.791 40.3269C188.339 40.2539 188.765 40.2113 189.057 40.193C189.21 40.171 189.365 40.1648 189.52 40.1748Z" fill="#455A64"/>
<path d="M190.42 80.945C190.338 80.9292 190.258 80.9047 190.182 80.8719C189.97 80.7827 189.767 80.6748 189.574 80.5494C188.838 80.0659 188.227 79.4154 187.791 78.6509C187.167 77.5074 186.793 76.2441 186.695 74.9451C186.555 73.3742 186.555 71.794 186.695 70.2231C186.827 68.6527 187.088 67.0957 187.474 65.568C187.751 64.3062 188.208 63.0908 188.831 61.9596C189.28 61.1922 189.906 60.5433 190.657 60.0671C190.848 59.941 191.052 59.835 191.265 59.7507C191.417 59.6959 191.503 59.6716 191.503 59.6837C191.503 59.6959 191.192 59.8237 190.699 60.1705C190.012 60.674 189.443 61.3221 189.032 62.0691C188.447 63.1953 188.021 64.3975 187.766 65.641C187.397 67.1569 187.145 68.6989 187.012 70.2535C186.884 71.8046 186.884 73.3636 187.012 74.9147C187.089 76.1874 187.429 77.4304 188.01 78.5657C188.411 79.3185 188.977 79.9715 189.665 80.4764C190.127 80.7989 190.438 80.9145 190.42 80.945Z" fill="#263238"/>
<path d="M163.052 79.0648L156.806 80.2902C155.866 80.4746 155.253 81.3859 155.438 82.3258L155.484 82.5587C155.668 83.4986 156.579 84.111 157.519 83.9266L163.765 82.7013C164.705 82.5169 165.318 81.6055 165.133 80.6656L165.087 80.4328C164.903 79.4929 163.992 78.8804 163.052 79.0648Z" fill="#455A64"/>
<path d="M164.248 79.9895L193.122 70.9349C193.465 70.8277 193.836 70.8602 194.155 71.0255C194.474 71.1907 194.715 71.4753 194.826 71.8172C194.881 71.9929 194.901 72.1781 194.883 72.3616C194.866 72.5451 194.811 72.7232 194.723 72.8852C194.635 73.0471 194.515 73.1896 194.371 73.3041C194.226 73.4186 194.06 73.5027 193.882 73.5515L164.358 81.5229L164.248 79.9895Z" fill="#455A64"/>
<path d="M185.589 76.0098C185.898 75.8734 186.218 75.7615 186.544 75.6751L189.185 74.8719C190.293 74.5311 191.656 74.166 193.092 73.6975C193.447 73.5653 193.768 73.3576 194.035 73.089C194.298 72.8211 194.444 72.4603 194.443 72.0849C194.441 71.9005 194.382 71.7212 194.272 71.5726C194.163 71.424 194.01 71.3137 193.834 71.2574C193.433 71.1553 193.011 71.1679 192.617 71.2939L183.958 74.0808L181.323 74.8962C181.022 75.0207 180.71 75.1204 180.392 75.1944C180.697 75.0464 181.012 74.9223 181.336 74.8232L183.94 73.9105C186.149 73.162 189.179 72.1214 192.587 71.0322C193.04 70.901 193.521 70.901 193.974 71.0322C194.206 71.1158 194.406 71.2675 194.55 71.4674C194.693 71.6673 194.772 71.9059 194.777 72.1519C194.778 72.6075 194.599 73.0448 194.278 73.3689C193.958 73.6501 193.58 73.8578 193.171 73.9774C191.68 74.4459 190.348 74.7745 189.222 75.091L186.581 75.8029C186.257 75.9028 185.925 75.9721 185.589 76.0098Z" fill="#263238"/>
<path d="M138.405 53.8967C139.391 57.3652 135.868 60.3408 134.626 63.7302C133.409 67.004 134.444 70.6733 135.923 73.8375C137.401 77.0017 139.348 79.9956 140.103 83.3971C141.971 91.7945 134.377 100.843 135.843 109.32C136.367 112.411 137.614 115.636 138.691 118.575C139.732 121.347 139.732 124.401 138.691 127.173C137.048 132.041 134.261 134.323 132.302 139.057C131.298 141.491 131.377 144.193 131.426 146.81C131.474 149.426 131.462 152.164 130.294 154.513C129.125 156.862 126.46 158.675 123.929 157.994C125.295 159.525 127.127 160.562 129.143 160.946C131.158 161.33 133.244 161.039 135.077 160.118C138.405 158.341 140.267 154.738 141.862 151.319C149.577 134.761 153.66 133.362 153.423 115.094C153.423 113.92 153.192 95.622 153.192 95.622C151.593 95.1928 150.059 94.5479 148.634 93.7052C140.018 87.754 139.701 77.1539 139.768 68.9329" fill="#263238"/>
<path d="M155.626 109.32V116.214C155.626 116.214 150.325 143.262 148.731 158.286C147.137 173.31 146.875 177.278 146.875 177.278C146.875 177.278 150.678 183.211 158.632 173.134C166.585 163.057 168.003 161.469 171.185 161.292C171.185 161.292 167.297 119.044 167.473 117.48C167.67 116.371 168.157 115.334 168.885 114.474L155.626 109.32Z" fill="#FFBE9D"/>
<path d="M166.055 93.7659C166.055 93.7659 157.396 105.254 156.69 106.837C155.985 108.419 155.625 109.307 155.625 109.307L168.885 114.437L181.791 100.295L186.562 87.7417L185.144 72.8941C185.144 72.8941 182.321 72.7176 181.791 75.1943C181.467 76.7624 181.346 78.3659 181.432 79.9649L177.477 76.7825L171.094 74.8413C171.094 74.8413 169.591 77.3119 172.067 78.5532C174.544 79.7946 175.25 79.7702 175.25 79.7702L177.477 83.6586L176.503 88.0155L171.988 83.756C171.551 83.343 170.983 83.0962 170.383 83.0584C169.782 83.0206 169.188 83.1942 168.702 83.5491L165.781 85.6667L163.049 84.4496L157.749 89.1899L155.625 91.1311C155.625 91.1311 157.043 93.7841 159.885 92.5489L162.715 91.3319L166.055 93.7659Z" fill="#FFBE9D"/>
<path d="M155.626 111.65C155.618 111.527 155.618 111.403 155.626 111.279C155.626 111.036 155.657 110.671 155.711 110.202C155.782 109.617 155.894 109.037 156.046 108.468C156.235 107.681 156.547 106.93 156.971 106.241C158.955 103.198 162.076 98.9385 165.971 93.6993V93.8575L162.612 91.3869H162.727L160.981 92.1597C160.381 92.4521 159.759 92.6943 159.119 92.8839C158.423 93.0506 157.69 92.9666 157.05 92.6465C156.399 92.3116 155.858 91.7962 155.492 91.1618L155.444 91.0766L155.523 91.0036C157.799 88.8616 160.336 86.7014 162.94 84.3891L163.02 84.3222L163.105 84.3709L165.46 85.7643H165.307L168.058 83.9388C168.539 83.6285 168.971 83.3303 169.488 83.0139C169.77 82.874 170.084 82.8142 170.398 82.841C170.711 82.8678 171.011 82.9803 171.265 83.166L176.626 87.6994L176.376 87.7846C176.668 86.4763 176.985 85.0585 177.301 83.6285V83.738L175.074 79.8497L175.214 79.9288C174.836 79.8772 174.465 79.777 174.113 79.6306C173.766 79.5028 173.419 79.3568 173.072 79.2046C172.725 79.0525 172.384 78.8821 172.044 78.7178C171.867 78.6326 171.697 78.517 171.526 78.4197C171.36 78.3008 171.205 78.1663 171.064 78.018C170.86 77.8013 170.7 77.546 170.596 77.267C170.491 76.988 170.444 76.691 170.455 76.3933C170.475 75.8118 170.636 75.2437 170.924 74.7382L170.985 74.6348L171.107 74.6713L177.484 76.6185H177.514L181.469 79.801L181.22 79.9348C181.135 78.3591 181.247 76.7789 181.555 75.2311C181.619 74.832 181.768 74.4511 181.99 74.1134C182.212 73.7757 182.504 73.4888 182.845 73.2717C183.525 72.8702 184.307 72.6737 185.096 72.7058H185.26V72.8397C185.759 78.1154 186.228 83.093 186.66 87.6872V87.7176C184.895 92.3423 183.289 96.541 181.865 100.259L171.873 111.285L169.159 114.224C168.849 114.547 168.612 114.802 168.447 114.979L168.198 115.228C168.198 115.228 168.271 115.131 168.423 114.954L169.111 114.182L171.788 111.206L181.731 100.253V100.283L186.477 87.7237V87.7846C186.033 83.1904 185.559 78.2189 185.047 72.937L185.187 73.077C184.462 73.0473 183.743 73.2291 183.118 73.6003C182.812 73.7952 182.551 74.0536 182.352 74.358C182.154 74.6624 182.023 75.0057 181.968 75.365C181.663 76.8843 181.553 78.4363 181.64 79.9835V80.3365L181.366 80.1174L177.35 76.9167H177.405L171.027 74.9755L171.204 74.9025C170.947 75.3612 170.803 75.8742 170.784 76.3994C170.773 76.6568 170.814 76.9138 170.903 77.1552C170.993 77.3966 171.131 77.6176 171.307 77.8051C171.433 77.9337 171.57 78.0518 171.715 78.158C171.879 78.2493 172.025 78.3466 172.196 78.4318C172.537 78.5961 172.871 78.7665 173.212 78.9126C173.853 79.2253 174.529 79.4603 175.226 79.6123H175.324L175.36 79.6732L177.587 83.5615L177.618 83.6163V83.6772C177.295 85.1072 177.009 86.525 176.687 87.8333L176.632 88.0888L176.431 87.9185L171.088 83.3972C170.881 83.2427 170.635 83.1484 170.377 83.1248C170.119 83.1011 169.86 83.1491 169.628 83.2634C169.178 83.5311 168.691 83.8719 168.228 84.1701L165.472 85.9956L165.399 86.0443L165.32 86.0017L162.965 84.6021H163.135C160.531 86.9023 157.987 89.0624 155.705 91.1922L155.736 91.034C156.072 91.6212 156.571 92.0988 157.172 92.4092C157.758 92.7074 158.432 92.7851 159.07 92.6283C159.697 92.4449 160.307 92.2108 160.896 91.9285L162.642 91.1618H162.709L162.764 91.1983L166.117 93.681L166.208 93.748L166.141 93.8392C162.228 99.0785 159.076 103.302 157.068 106.314C156.646 106.99 156.328 107.727 156.125 108.498C155.97 109.062 155.85 109.635 155.766 110.214C155.699 110.683 155.669 111.048 155.65 111.285C155.632 111.522 155.626 111.65 155.626 111.65Z" fill="#EB996E"/>
<path d="M172.031 96.4254C171.97 96.4254 172.202 95.4883 172.299 93.9913C172.363 93.1188 172.221 92.2434 171.885 91.4356C171.377 90.4897 170.654 89.6766 169.774 89.0624C168.201 87.857 166.562 86.7417 164.863 85.7217L163.311 84.809C163.112 84.7105 162.924 84.5901 162.751 84.45C162.966 84.502 163.171 84.5861 163.36 84.6994C163.749 84.8759 164.303 85.1558 164.973 85.527C166.714 86.4985 168.382 87.5968 169.962 88.8129C170.883 89.4551 171.631 90.314 172.141 91.3139C172.49 92.1645 172.62 93.0895 172.518 94.0035C172.466 94.6068 172.366 95.205 172.22 95.7925C172.187 96.0112 172.123 96.2243 172.031 96.4254Z" fill="#EB996E"/>
<path d="M181.31 90.9124C181.349 90.3765 181.425 89.8439 181.536 89.3181C181.725 88.0492 181.817 86.7675 181.809 85.4845C181.793 84.1979 181.679 82.9143 181.469 81.6449C181.351 81.1234 181.268 80.595 181.219 80.0627C181.443 80.5529 181.6 81.0706 181.688 81.6023C182.249 84.1556 182.272 86.7981 181.755 89.3607C181.676 89.8954 181.527 90.4172 181.31 90.9124Z" fill="#EB996E"/>
<path d="M241.772 209.569C241.772 210.411 187.635 211.029 120.886 211.029C54.1378 211.029 0 210.411 0 209.569C0 208.726 54.1219 208.108 120.913 208.108C187.704 208.108 241.772 208.782 241.772 209.569Z" fill="#263238"/>
<path d="M163.689 209.912C165.117 207.739 167.043 205.939 169.306 204.66C171.57 203.381 174.107 202.662 176.705 202.561C185.595 202.257 190.037 209.912 190.037 209.912H163.689Z" fill="#455A64"/>
<path d="M180.727 209.675C180.609 209.239 180.522 208.796 180.465 208.348C179.987 206.237 178.728 204.385 176.942 203.164C176.548 202.943 176.168 202.699 175.804 202.433C176.263 202.504 176.701 202.674 177.088 202.932C178.058 203.499 178.889 204.274 179.52 205.203C180.152 206.131 180.568 207.189 180.739 208.299C180.834 208.753 180.83 209.222 180.727 209.675Z" fill="#263238"/>
<path d="M158.188 209.589V209.528C158.173 208.633 157.807 207.779 157.168 207.152C156.529 206.525 155.669 206.174 154.774 206.176H79.1121C78.2067 206.176 77.3384 206.535 76.6982 207.175C76.058 207.816 75.6984 208.684 75.6984 209.589H158.188Z" fill="#455A64"/>
<path d="M13.3386 77.0201C13.3386 78.6144 14.5556 173.639 14.5556 173.639L85.1424 190.622H90.9415L87.2296 57.9678H81.9234L13.3386 77.0201Z" fill="#5B5863"/>
<path d="M28.2655 169.69L6.38965 209.778H26.3852C22.8072 209.425 58.0275 209.778 58.0275 209.778L26.3852 201.387L36.2856 178.902L35.4398 169.69H28.2655Z" fill="#5B5863"/>
<path d="M28.7522 177.089L26.3851 102.364L47.8776 100.308L50.5246 180.089L42.8513 180.478L28.7522 177.089Z" fill="#5B5863"/>
<path d="M53.5306 183.046C53.5306 183.046 53.5306 182.93 53.5306 182.699C53.5306 182.468 53.5306 182.121 53.5306 181.677C53.5306 180.764 53.5306 179.432 53.5306 177.709C53.5306 174.235 53.5002 169.19 53.4819 162.844C53.4819 150.144 53.4515 132.272 53.4271 111.547L53.5793 111.699H28.1741L28.3323 111.54V114.985C28.3323 135.199 28.3323 154.008 28.3019 169.683V169.714C21.7178 181.78 16.2595 191.796 12.4381 198.794C10.5274 202.287 9.0244 205.025 7.99602 206.9C7.48488 207.824 7.08935 208.53 6.8216 209.023C6.55386 209.516 6.40173 209.741 6.40173 209.741C6.40173 209.741 6.52952 209.486 6.78509 209.005C7.04066 208.524 7.43011 207.788 7.923 206.857C8.93921 204.977 10.4179 202.226 12.3042 198.721L28.0646 169.586V169.653C28.0646 153.978 28.0646 135.169 28.0646 114.954V111.352H53.7314V111.504C53.7314 132.23 53.6888 150.102 53.6766 162.801C53.6766 169.142 53.6401 174.192 53.6279 177.667C53.6279 179.389 53.6279 180.709 53.6279 181.634C53.6279 182.079 53.6279 182.419 53.6279 182.657C53.6279 182.894 53.5306 183.046 53.5306 183.046Z" fill="#39464D"/>
<path d="M36.2853 178.902C36.3644 178.933 33.3219 185.973 29.4883 194.614C25.6547 203.255 22.4783 210.24 22.3992 210.204C22.3201 210.167 25.3626 203.133 29.1962 194.486C33.0298 185.839 36.2062 178.866 36.2853 178.902Z" fill="#39464D"/>
<path d="M85.1125 190.647C85.1125 190.647 85.1125 190.531 85.1125 190.306C85.1125 190.081 85.1125 189.734 85.1125 189.302C85.1125 188.407 85.0821 187.111 85.0638 185.444C85.0638 182.097 84.9604 177.253 84.8448 171.266C84.6196 159.29 84.0781 142.757 83.4148 124.496C82.7515 106.235 82.2464 89.6832 82.0761 77.7078C81.9848 71.7201 81.9422 66.8703 81.9604 63.5235C81.9604 61.8562 81.9604 60.5601 81.9604 59.6656C81.9604 59.2336 81.9604 58.905 81.9604 58.6616C81.9604 58.4182 81.9604 58.3208 81.9604 58.3208C81.9604 58.3208 81.9604 58.4364 81.9604 58.6616C81.9604 58.8867 81.9604 59.2336 81.9604 59.6656C81.9604 60.5601 81.9604 61.8562 82.0091 63.5235C82.0091 66.8703 82.1065 71.714 82.2282 77.7017C82.4898 89.6771 83.0314 106.229 83.6947 124.484C84.358 142.739 84.863 159.284 85.0334 171.26C85.1247 177.247 85.1612 182.097 85.149 185.444C85.149 187.111 85.149 188.407 85.149 189.302C85.149 189.734 85.149 190.069 85.149 190.306C85.149 190.543 85.1125 190.647 85.1125 190.647Z" fill="#39464D"/>
<path d="M49.6788 110.993C49.7701 110.993 49.8371 126.887 49.8371 146.487C49.8371 166.087 49.7701 181.982 49.6788 181.982C49.5876 181.982 49.5206 166.093 49.5206 146.487C49.5206 126.881 49.5937 110.993 49.6788 110.993Z" fill="#39464D"/>
<path d="M11.6533 203.523C11.5382 203.391 11.4363 203.248 11.3491 203.097C11.2456 202.951 11.13 202.774 10.9962 202.573C10.8351 202.335 10.6888 202.087 10.558 201.831C9.66582 200.221 9.01584 198.488 8.62907 196.689C8.06776 194.015 7.94038 191.268 8.25179 188.553C8.63259 185.23 9.52335 181.985 10.8927 178.933C11.6172 177.357 12.5438 175.882 13.6492 174.545C13.901 174.214 14.1712 173.897 14.4586 173.596C14.7385 173.292 15.0062 172.988 15.2861 172.696C15.8946 172.142 16.424 171.576 17.0265 171.095C18.1366 170.151 19.3186 169.294 20.5619 168.533C21.1704 168.205 21.7241 167.858 22.2961 167.584C22.8681 167.31 23.4097 167.018 23.9573 166.824C25.6485 166.099 27.4359 165.623 29.2635 165.412C29.7575 165.344 30.2558 165.314 30.7544 165.32C30.9285 165.306 31.1035 165.306 31.2777 165.32C31.1066 165.35 30.9339 165.368 30.7605 165.375C30.2651 165.398 29.7714 165.449 29.2818 165.527C27.4751 165.784 25.7122 166.288 24.0425 167.024C23.501 167.225 22.9777 167.529 22.4057 167.791C21.8337 168.053 21.286 168.4 20.6958 168.752C19.4714 169.516 18.3078 170.372 17.2151 171.314C16.6066 171.789 16.0772 172.355 15.4991 172.902C15.2253 173.188 14.9575 173.511 14.6837 173.791C14.4038 174.091 14.1397 174.406 13.8926 174.734C12.8048 176.053 11.8926 177.507 11.1787 179.061C9.82258 182.081 8.93413 185.29 8.54387 188.578C8.22085 191.262 8.32353 193.981 8.84813 196.634C9.21585 198.421 9.83024 200.147 10.6736 201.764C10.7947 202.024 10.9329 202.276 11.0874 202.519L11.4099 203.06C11.5013 203.209 11.5826 203.363 11.6533 203.523Z" fill="#455A64"/>
</svg>
