<svg width="272" height="219" viewBox="0 0 272 219" fill="none" xmlns="http://www.w3.org/2000/svg">
<path d="M135.027 209.776C152.138 211.55 161.67 210.201 178.522 201.305C199.68 191.688 216.553 174.689 225.941 153.531C235.328 132.374 236.579 108.528 229.454 86.5145C222.33 64.5014 207.327 45.8517 187.289 34.1011C167.251 22.3505 143.572 18.316 120.74 22.7625C97.9084 27.209 77.512 39.8274 63.4178 58.2253C49.3237 76.6232 42.5116 99.5216 44.2732 122.579C46.0347 145.636 56.2474 167.25 72.9749 183.322C89.7025 199.394 111.782 208.807 135.027 209.776Z" fill="#F1F1F1"/>
<path d="M52.596 169.436V150.937C48.9554 150.936 45.3956 152.01 42.3626 154.024C39.3296 156.038 36.9582 158.902 35.5455 162.257C34.1327 165.612 33.7414 169.31 34.4206 172.887C35.0997 176.463 36.8191 179.76 39.3635 182.364C41.9078 184.968 45.1639 186.763 48.7239 187.525C52.2839 188.287 55.9896 187.982 59.3767 186.647C62.7639 185.312 65.682 183.008 67.7654 180.022C69.8489 177.037 71.0051 173.503 71.0892 169.863L52.596 169.436Z" fill="#FD3E72"/>
<path d="M57.1098 164.447L75.603 164.869C75.6084 159.925 73.7362 155.164 70.3651 151.548C66.92 148.089 62.2756 146.087 57.3949 145.96L57.1098 164.447Z" fill="#5B5863"/>
<path d="M27.891 184.348H10.3064V218.656H27.891V184.348Z" fill="#FD3E72"/>
<path d="M66.0648 198.387H48.4802V218.662H66.0648V198.387Z" fill="#5B5863"/>
<path d="M101.536 218.662L83.9518 218.781V172.786H101.536V218.662Z" fill="#FD3E72"/>
<path d="M138.672 194.438H121.087V218.662H138.672V194.438Z" fill="#FF725E"/>
<g opacity="0.79">
<path opacity="0.79" d="M138.672 194.438H121.087V218.662H138.672V194.438Z" fill="white"/>
</g>
<path d="M175.182 172.78H157.598V218.657H175.182V172.78Z" fill="#FF725E"/>
<path d="M211.35 114.117H193.766V218.662H211.35V114.117Z" fill="#5B5863"/>
<path d="M138.636 200.668C138.773 200.81 134.966 204.95 130.132 209.92C125.298 214.891 121.259 218.817 121.105 218.662C120.95 218.508 124.775 214.374 129.615 209.41C134.455 204.445 138.499 200.525 138.636 200.668Z" fill="#FF725E"/>
<path d="M175.61 200.668C175.747 200.81 171.94 204.95 167.106 209.92C162.272 214.891 158.234 218.828 158.097 218.662C157.961 218.496 161.767 214.374 166.607 209.41C171.447 204.445 175.474 200.525 175.61 200.668Z" fill="white"/>
<path d="M175.373 184.687C175.51 184.83 171.703 188.969 166.869 193.94C162.035 198.91 157.996 202.818 157.86 202.681C157.723 202.545 161.53 198.394 166.37 193.429C171.21 188.464 175.236 184.545 175.373 184.687Z" fill="white"/>
<path d="M169.803 172.625C169.94 172.768 167.38 175.594 164.09 179.003C160.8 182.412 158.021 185.007 157.884 184.871C157.748 184.734 160.307 181.901 163.597 178.493C166.887 175.084 169.637 172.494 169.803 172.625Z" fill="white"/>
<path d="M248.562 51.0774H231.946V218.663H248.562V51.0774Z" fill="#FD3E72"/>
<path d="M264.548 49.4765L264.31 49.7983L263.568 49.2816L263.567 49.281L262.671 48.6498L262.664 48.6455L261.39 47.8197C261.39 47.8195 261.389 47.8193 261.389 47.8191C258.547 46.0237 255.511 44.5562 252.338 43.4447L252.381 43.3219L252.338 43.4447C250.047 42.6409 247.688 42.0475 245.289 41.6719C242.441 41.2298 239.547 41.1643 236.683 41.4771L236.682 41.4772C230.527 42.1375 223.759 45.0463 217.853 50.1771C214.764 52.8718 211.972 55.8911 209.528 59.1828C207.01 62.6435 204.503 66.3296 201.905 70.1494L201.895 70.1637L264.548 49.4765ZM264.548 49.4765L264.547 49.4763L264.547 49.4759L264.545 49.4743L264.536 49.4677L264.503 49.4414L264.37 49.3379C264.254 49.2466 264.082 49.1116 263.859 48.9365L263.859 48.9364L263.854 48.9324L262.963 48.2792L262.963 48.279L262.955 48.2736L261.678 47.4302L261.676 47.4289C258.815 45.5895 255.75 44.088 252.542 42.9545L252.499 43.0771M264.548 49.4765L252.499 43.0771M252.499 43.0771L252.542 42.9545C250.226 42.1373 247.838 41.5379 245.41 41.1639C242.516 40.6998 239.572 40.6235 236.658 40.9369C230.377 41.5949 223.481 44.5476 217.485 49.7383L217.484 49.7384C214.354 52.453 211.527 55.4981 209.052 58.8206L209.051 58.8222C206.512 62.2994 203.993 65.99 201.386 69.8141L201.386 69.8144C196.187 77.4723 190.847 85.7947 185.3 94.6025C183.66 97.2057 182.004 99.851 180.327 102.531C176.327 108.921 172.202 115.51 167.877 122.203C164.795 126.948 161.631 131.757 158.324 136.577C156.893 138.652 155.528 140.78 154.156 142.919C153.931 143.269 153.706 143.619 153.481 143.97C151.878 146.463 150.252 148.962 148.572 151.443L148.571 151.444C145.295 156.377 141.73 161.112 137.896 165.625L137.896 165.625C136.031 167.824 133.983 169.86 131.773 171.712C130.692 172.613 129.521 173.401 128.28 174.064L128.274 174.067C127.089 174.749 125.763 175.146 124.398 175.228C123.045 175.101 121.729 174.717 120.519 174.098L120.519 174.098L120.511 174.094C119.249 173.522 118.026 172.849 116.841 172.156L116.841 172.156C114.448 170.764 112.167 169.236 109.936 167.687C105.498 164.572 101.256 161.326 97.1896 158.091C95.1536 156.471 93.1594 154.85 91.2188 153.23C89.2761 151.608 87.339 150.016 85.4134 148.477C81.5628 145.398 77.7418 142.487 74.0039 139.765C70.2581 137.037 66.2814 134.767 62.0933 133.57L62.0906 133.569C58.0519 132.477 53.8153 132.334 49.7121 133.15L49.7086 133.151C46.0139 133.955 42.4788 135.368 39.2485 137.333L39.2482 137.333C36.3823 139.083 33.6963 141.112 31.2292 143.39C26.6307 147.632 22.757 151.375 19.6145 154.458C16.4719 157.542 14.0657 159.972 12.4436 161.629L12.4431 161.63C12.1495 161.932 11.8761 162.21 11.6282 162.462C11.2033 162.895 10.8531 163.251 10.604 163.523C10.4075 163.737 10.2584 163.903 10.1584 164.015C10.1084 164.071 10.0706 164.113 10.0453 164.142L10.0167 164.174L10.0094 164.183L10.0075 164.185L10.007 164.185L10.0069 164.186L10.0069 164.186L10.0068 164.186L10.299 164.458L10.9345 163.823L10.9349 163.823L12.7935 161.952C14.4265 160.313 16.8426 157.891 19.9949 154.828C23.1476 151.764 27.03 148.042 31.6366 143.815L31.6368 143.815C34.0791 141.568 36.7382 139.569 39.575 137.847L39.5751 137.847C42.7486 135.918 46.2216 134.531 49.8512 133.744C53.8594 132.955 57.9956 133.102 61.9375 134.175C66.0376 135.329 69.8871 137.612 73.6393 140.291C77.3941 142.973 81.1679 145.91 85.015 148.991L85.0152 148.991C86.9318 150.522 88.8607 152.112 90.8019 153.739L90.8021 153.739C92.7472 155.363 94.7398 156.988 96.7799 158.612C100.85 161.862 105.082 165.113 109.552 168.246L109.553 168.246C111.794 169.804 114.121 171.339 116.502 172.75L116.504 172.751C117.71 173.446 118.938 174.12 120.233 174.717C121.53 175.384 122.943 175.794 124.395 175.925L124.409 175.926L124.422 175.925C125.9 175.854 127.342 175.439 128.631 174.713C129.912 174.025 131.117 173.203 132.226 172.262C132.226 172.262 132.227 172.261 132.227 172.261L132.098 172.109M252.499 43.0771L201.895 70.164C196.706 77.822 191.381 86.1457 185.864 94.9519C184.78 96.6831 183.686 98.4333 182.581 100.2C178.066 107.422 173.375 114.925 168.45 122.569L168.45 122.57C165.367 127.321 162.201 132.133 158.892 136.958L158.892 136.958C157.584 138.856 156.332 140.806 155.069 142.773C154.734 143.294 154.399 143.817 154.061 144.341C152.451 146.835 150.823 149.331 149.142 151.82C149.142 151.821 149.141 151.821 149.141 151.821L148.976 151.709M132.098 172.109C134.331 170.239 136.401 168.183 138.286 165.962C142.131 161.429 145.701 156.67 148.976 151.709M132.098 172.109C130.999 173.041 129.804 173.855 128.534 174.538L132.098 172.109ZM148.976 151.709C150.656 149.221 152.283 146.726 153.893 144.232C154.23 143.71 154.565 143.187 154.9 142.666C156.163 140.699 157.417 138.746 158.727 136.844L148.976 151.709Z" fill="#B8B8B8" stroke="#B8B8B8" stroke-width="0.4"/>
<path d="M58.3088 134.243C58.2878 134.922 58.0674 135.58 57.6751 136.134C57.2827 136.688 56.7359 137.114 56.1028 137.359C55.4696 137.605 54.7783 137.658 54.115 137.513C53.4517 137.368 52.8459 137.03 52.3732 136.543C51.9004 136.056 51.5817 135.44 51.4568 134.772C51.3318 134.105 51.4063 133.416 51.6707 132.79C51.9352 132.165 52.3779 131.631 52.9438 131.256C53.5096 130.881 54.1735 130.681 54.8525 130.68C55.3136 130.686 55.769 130.784 56.1925 130.966C56.6161 131.149 56.9994 131.413 57.3205 131.744C57.6416 132.075 57.8942 132.466 58.0638 132.895C58.2334 133.324 58.3167 133.782 58.3088 134.243Z" fill="#FD3E72"/>
<path d="M54.8525 140.586C53.5921 140.616 52.3516 140.269 51.2892 139.59C50.2268 138.911 49.3908 137.932 48.8879 136.776C48.385 135.619 48.2381 134.34 48.4658 133.1C48.6935 131.86 49.2855 130.716 50.1664 129.814C51.0472 128.912 52.1768 128.293 53.411 128.036C54.6452 127.779 55.928 127.896 57.0957 128.371C58.2633 128.846 59.2628 129.659 59.9665 130.705C60.6702 131.751 61.0462 132.983 61.0466 134.244C61.064 135.905 60.4218 137.506 59.2606 138.695C58.0995 139.884 56.5142 140.564 54.8525 140.586ZM54.8525 128.495C53.7096 128.465 52.5839 128.777 51.6193 129.391C50.6546 130.004 49.8947 130.891 49.4367 131.939C48.9788 132.986 48.8435 134.147 49.0483 135.271C49.2531 136.396 49.7885 137.434 50.5863 138.253C51.384 139.072 52.4078 139.634 53.5268 139.869C54.6458 140.103 55.8092 139.998 56.8683 139.567C57.9274 139.137 58.8341 138.401 59.4726 137.452C60.1111 136.504 60.4523 135.387 60.4527 134.244C60.4702 132.739 59.8905 131.29 58.8407 130.212C57.7909 129.134 56.3567 128.517 54.8525 128.495Z" fill="#FD3E72"/>
<path d="M244.066 40.9934C244.045 41.6721 243.824 42.3295 243.432 42.8837C243.04 43.4378 242.493 43.8641 241.86 44.1094C241.227 44.3547 240.535 44.4081 239.872 44.2629C239.209 44.1177 238.603 43.7804 238.13 43.293C237.658 42.8057 237.339 42.1898 237.214 41.5225C237.089 40.8551 237.163 40.1657 237.428 39.5403C237.692 38.915 238.135 38.3813 238.701 38.0061C239.267 37.6308 239.931 37.4305 240.61 37.4302C241.071 37.4356 241.527 37.5322 241.951 37.7145C242.374 37.8968 242.758 38.1612 243.079 38.4924C243.401 38.8236 243.653 39.2151 243.823 39.6443C243.992 40.0736 244.075 40.5321 244.066 40.9934Z" fill="#FD3E72"/>
<path d="M240.61 47.3298C239.349 47.3581 238.109 47.0102 237.047 46.3304C235.986 45.6507 235.15 44.6699 234.649 43.5134C234.147 42.3569 234.001 41.0771 234.23 39.8373C234.459 38.5976 235.052 37.4542 235.934 36.5531C236.815 35.652 237.946 35.034 239.18 34.7782C240.414 34.5224 241.697 34.6402 242.864 35.1167C244.032 35.5932 245.03 36.4067 245.733 37.4534C246.436 38.5001 246.811 39.7325 246.81 40.9932C246.826 42.6549 246.182 44.2552 245.02 45.4431C243.857 46.6309 242.271 47.3094 240.61 47.3298ZM240.61 35.2445C239.467 35.2161 238.342 35.529 237.378 36.1432C236.414 36.7574 235.655 37.645 235.198 38.6927C234.741 39.7403 234.607 40.9004 234.812 42.0247C235.018 43.1491 235.554 44.1867 236.352 45.005C237.15 45.8233 238.173 46.3851 239.292 46.6187C240.411 46.8523 241.574 46.7471 242.633 46.3165C243.692 45.8859 244.598 45.1495 245.236 44.2013C245.874 43.2531 246.215 42.1361 246.216 40.9932C246.233 39.4878 245.653 38.0371 244.602 36.9593C243.551 35.8815 242.115 35.2648 240.61 35.2445Z" fill="#FD3E72"/>
<path d="M168.759 133.383L171.134 140.034C171.134 140.034 182.008 150.017 183.605 163.385C185.203 176.753 185.209 179.669 185.209 179.669L181.842 218.663H109.389C109.389 218.663 107.014 187.14 107.875 178.226C108.736 169.312 113.944 159.222 113.944 159.222L119.467 145.854L119.633 139.126L168.759 133.383Z" fill="#5B5863"/>
<path d="M170.993 140.717C170.825 140.763 170.654 140.798 170.482 140.824L169.015 141.085L163.617 141.97C159.05 142.701 152.743 143.669 145.759 144.648C138.775 145.628 132.432 146.43 127.83 146.864C125.532 147.101 123.673 147.256 122.378 147.345L120.893 147.44C120.721 147.454 120.549 147.454 120.377 147.44C120.544 147.399 120.715 147.374 120.887 147.363L122.366 147.214C123.655 147.083 125.514 146.899 127.806 146.62C132.403 146.109 138.733 145.29 145.717 144.316C152.701 143.342 159.008 142.404 163.581 141.733L168.997 140.943L170.47 140.741C170.643 140.718 170.818 140.71 170.993 140.717Z" fill="#7C7888"/>
<path d="M129.854 164.312C129.788 164.536 129.699 164.753 129.587 164.959C129.403 165.375 129.106 165.957 128.726 166.669C127.726 168.521 126.607 170.307 125.377 172.014C124.146 173.725 122.809 175.358 121.374 176.902C120.822 177.496 120.358 177.953 120.026 178.262C119.866 178.434 119.689 178.59 119.497 178.725C119.622 178.525 119.772 178.341 119.943 178.178L121.208 176.753C122.271 175.565 123.69 173.825 125.127 171.83C126.564 169.835 127.728 167.94 128.536 166.544L129.48 164.888C129.584 164.683 129.709 164.49 129.854 164.312Z" fill="#7C7888"/>
<path d="M215.276 62.7119C215.276 62.7119 216.76 87.6902 217.206 90.517C217.651 93.3439 215.276 96.913 215.276 96.913C215.276 96.913 209.776 97.5069 206.059 90.6655L203.683 85.3206C205.116 80.7574 205.572 75.9434 205.02 71.1924C204.129 63.1632 203.683 59.4456 203.683 59.4456L215.276 62.7119Z" fill="#FFBE9D"/>
<path d="M208.607 27.8928C209.254 33.9206 209.201 39.1348 206.232 40.2038C205.982 40.2929 203.987 40.3701 203.725 40.3998C200.305 40.768 196.961 35.7676 196.254 29.235C195.548 22.7024 197.745 17.1021 201.166 16.728C201.486 16.728 203.31 16.437 203.624 16.4904C206.659 17.0368 207.966 21.9719 208.607 27.8928Z" fill="#455A64"/>
<path d="M218.103 49.4739C218.103 49.4739 220.609 50.3112 220.152 52.7283C219.611 55.0062 218.927 57.2476 218.103 59.4391L214.985 62.8895L203.702 59.4391C203.163 58.3961 202.897 57.2335 202.93 56.0599C203.007 54.1655 202.93 49.4739 202.93 49.4739C203.916 48.2015 204.615 46.7306 204.979 45.1623C205.359 43.2085 205.632 40.934 205.709 40.2391C205.713 40.2104 205.722 40.1826 205.737 40.1576C205.751 40.1325 205.771 40.1108 205.794 40.0935C205.818 40.0763 205.844 40.064 205.872 40.0574C205.901 40.0508 205.93 40.05 205.958 40.055C206.47 40.1632 206.944 40.4064 207.331 40.7594C207.717 41.1123 208.002 41.5622 208.156 42.0623C208.75 43.9568 208.613 44.4853 208.613 44.4853L218.103 49.4739Z" fill="#FFBE9D"/>
<path d="M209.113 41.421L207.498 38.8376L205.799 40.1442L208.947 46.362L209.802 43.7549L209.113 41.421Z" fill="#455A64"/>
<path d="M209.112 41.4211C209.112 41.4211 210.894 38.7486 212.527 40.0195C214.16 41.2904 213.786 42.0506 212.527 44.3904C212.527 44.3904 215.746 43.945 214.986 47.3598C214.986 47.3598 218.181 46.7303 218.103 49.474C218.103 49.474 220.734 51.6535 219.6 53.2985C218.466 54.9436 214.107 58.097 212.901 57.7169C211.695 57.3369 211.559 55.6978 211.559 55.6978C211.559 55.6978 210.122 55.193 209.682 54.51C209.243 53.8271 209.807 52.7284 209.807 52.7284C209.807 52.7284 208.542 51.6357 208.227 51.3328C207.913 51.0299 208.227 49.4443 208.227 49.4443L209.932 47.4845C209.932 47.4845 207.473 48.8089 206.903 48.4347C206.333 48.0606 205.715 47.7399 206.208 46.9144C206.936 45.9539 207.73 45.0451 208.584 44.1945L209.112 41.4211Z" fill="#FFBE9D"/>
<path d="M211.833 55.8641C212.053 55.4825 212.303 55.1191 212.581 54.7773C213.173 53.8705 213.912 53.0679 214.766 52.4018C215.645 51.8168 216.482 51.1719 217.272 50.4717C217.568 50.1506 217.845 49.8136 218.104 49.4622C217.999 49.9144 217.766 50.3268 217.433 50.6499C216.677 51.4098 215.845 52.0904 214.95 52.681C214.123 53.3299 213.386 54.0869 212.759 54.9317C212.499 55.2877 212.187 55.6021 211.833 55.8641Z" fill="#EB996E"/>
<path d="M209.8 53.2095C210.523 52.1183 211.332 51.0857 212.217 50.1214C212.918 49.3078 213.512 48.5239 214.04 48.0309C214.295 47.7328 214.619 47.5022 214.984 47.3599C215.014 47.3955 214.664 47.6568 214.201 48.1853C213.737 48.7139 213.161 49.4978 212.449 50.3233C211.646 51.3557 210.76 52.3209 209.8 53.2095Z" fill="#EB996E"/>
<path d="M209.931 47.4842C210.342 46.9244 210.801 46.4018 211.303 45.9223C211.73 45.3867 212.127 44.8276 212.491 44.2476C212.405 44.9641 212.071 45.6279 211.547 46.1242C211.109 46.6851 210.559 47.1483 209.931 47.4842Z" fill="#EB996E"/>
<path d="M205.394 50.751C205.776 50.8047 206.137 50.9538 206.445 51.1845C207.218 51.6985 207.862 52.3832 208.328 53.1859C208.785 53.9791 209.143 54.8245 209.397 55.7039C209.537 56.0552 209.623 56.4256 209.652 56.8025C209.454 56.4824 209.3 56.1367 209.195 55.7752C208.881 54.937 208.502 54.1248 208.061 53.3462C207.611 52.581 207.021 51.9079 206.321 51.3627C205.774 50.9291 205.371 50.751 205.394 50.751Z" fill="#EB996E"/>
<path d="M205.957 40.1548C208.876 39.8388 210.668 34.2852 209.96 27.7505C209.253 21.2159 206.313 16.1747 203.395 16.4907C200.477 16.8067 198.684 22.3603 199.392 28.8949C200.099 35.4296 203.039 40.4708 205.957 40.1548Z" fill="#263238"/>
<path d="M204.877 40.0135C207.609 38.6476 209.242 33.6175 208.619 27.8629C207.995 22.1082 205.353 17.5948 202.407 16.8049C200.091 18.1233 198.772 23.1178 199.396 28.8784C200.02 34.639 202.348 39.1761 204.877 40.0135Z" fill="#E0E0E0"/>
<path d="M205.003 35.3098C204.739 33.4533 204.577 31.5838 204.516 29.7096C204.355 27.8415 204.293 25.9662 204.332 24.0916C204.603 25.9474 204.767 27.8172 204.825 29.6918C204.986 31.5598 205.045 33.4353 205.003 35.3098Z" fill="white"/>
<path d="M203.981 31.533C203.814 31.0244 203.704 30.4984 203.654 29.9652C203.518 28.9913 203.375 27.6491 203.292 26.1525C203.209 24.656 203.209 23.3079 203.239 22.328C203.223 21.7982 203.267 21.2684 203.369 20.7483C203.445 21.2713 203.475 21.7998 203.458 22.328C203.458 23.3079 203.518 24.65 203.601 26.1407C203.684 27.6313 203.791 28.9675 203.874 29.9415C203.953 30.4682 203.989 31.0005 203.981 31.533Z" fill="white"/>
<path d="M209.112 41.4094C209.121 41.4725 209.121 41.5364 209.112 41.5995L209.029 42.1399L208.679 44.2006C208.335 44.557 207.948 44.9727 207.527 45.4359C207.061 45.9264 206.641 46.4592 206.274 47.0275C206.189 47.1727 206.154 47.3415 206.173 47.5085C206.216 47.6763 206.317 47.8235 206.458 47.9242C206.614 48.046 206.776 48.159 206.945 48.2627C207.106 48.3467 207.292 48.3679 207.467 48.3221C208.321 48.0996 209.141 47.7661 209.908 47.3303L210.502 47.0334L210.075 47.5204L208.376 49.4861L208.406 49.4445C208.275 49.7442 208.207 50.0677 208.207 50.3947C208.207 50.7217 208.275 51.0452 208.406 51.3449C208.839 51.9041 209.38 52.3706 209.997 52.7168L210.128 52.7999L210.039 52.9306C209.677 53.4413 209.445 54.2193 210.039 54.6409C210.598 55.0853 211.223 55.4399 211.892 55.6921L211.684 55.8287V55.7812C211.726 55.8227 211.589 55.6802 211.785 55.9059C212.189 55.6743 211.898 55.8109 211.987 55.7752V55.8465V55.995C211.998 56.097 212.016 56.1982 212.04 56.2978C212.086 56.5033 212.156 56.7027 212.248 56.8917C212.341 57.0696 212.468 57.2271 212.622 57.3549C212.76 57.4843 212.934 57.5674 213.121 57.5925C213.537 57.5609 213.941 57.4436 214.309 57.248C214.718 57.0553 215.115 56.8371 215.497 56.5948C216.211 56.144 216.895 55.6481 217.545 55.1101C218.192 54.5977 218.789 54.025 219.327 53.3997C219.58 53.1209 219.726 52.7607 219.737 52.3842C219.722 52.0085 219.623 51.641 219.446 51.3093C219.08 50.6464 218.594 50.0565 218.015 49.5692L217.967 49.5217V49.4505C217.986 49.0895 217.918 48.7294 217.771 48.3993C217.615 48.0887 217.363 47.8367 217.053 47.6807C216.413 47.414 215.709 47.3397 215.027 47.4669H214.843L214.873 47.2769C214.903 47.075 214.944 46.8671 214.968 46.683C214.986 46.4855 214.986 46.2867 214.968 46.0891C214.951 45.708 214.802 45.3447 214.546 45.0617C214.279 44.8229 213.962 44.646 213.618 44.5433C213.274 44.4407 212.912 44.4149 212.557 44.4679H212.343L212.444 44.2838C212.776 43.707 213.075 43.1122 213.341 42.5022C213.458 42.2294 213.524 41.9376 213.537 41.641C213.538 41.3665 213.457 41.0978 213.305 40.869C213.013 40.4523 212.634 40.1038 212.195 39.8475C212.002 39.761 211.794 39.7163 211.583 39.7163C211.372 39.7163 211.164 39.761 210.971 39.8475C210.422 40.0931 209.935 40.4584 209.546 40.9165C209.403 41.065 209.308 41.1897 209.237 41.2728C209.166 41.356 209.136 41.3976 209.13 41.3916C209.152 41.3429 209.18 41.297 209.213 41.255C209.3 41.1204 209.395 40.9915 209.499 40.869C209.663 40.6707 209.842 40.4841 210.033 40.3108C210.293 40.0624 210.595 39.8615 210.924 39.7169C211.134 39.6227 211.362 39.574 211.592 39.574C211.822 39.574 212.05 39.6227 212.26 39.7169L212.587 39.9188L212.89 40.1623C213.115 40.3311 213.315 40.5311 213.483 40.7562C213.662 41.0122 213.757 41.317 213.757 41.6292C213.749 41.9513 213.683 42.2693 213.561 42.5675C213.3 43.1904 213.002 43.7972 212.67 44.3847L212.557 44.2185C212.938 44.1771 213.324 44.2012 213.697 44.2897C214.103 44.3771 214.473 44.5839 214.76 44.8836C215.06 45.2093 215.236 45.6294 215.259 46.0713C215.277 46.2867 215.277 46.5033 215.259 46.7187C215.259 46.9325 215.194 47.1462 215.158 47.366L215.004 47.2056C215.744 47.059 216.512 47.1376 217.207 47.4313C217.573 47.6143 217.871 47.9099 218.056 48.2746C218.227 48.6463 218.307 49.0536 218.288 49.4624L218.234 49.3436C218.847 49.8537 219.359 50.4741 219.743 51.1727C219.947 51.5362 220.059 51.9439 220.069 52.3605C220.07 52.5823 220.028 52.802 219.945 53.0078C219.854 53.2058 219.738 53.3914 219.6 53.5601C219.067 54.2116 218.47 54.8084 217.819 55.3417C217.158 55.8924 216.462 56.3983 215.734 56.8561C215.352 57.1016 214.955 57.3237 214.546 57.5212C214.129 57.7448 213.666 57.8708 213.192 57.8894C212.934 57.8647 212.685 57.7743 212.471 57.6267C212.257 57.4791 212.084 57.2793 211.969 57.0461C211.865 56.8405 211.785 56.6232 211.731 56.3988C211.706 56.289 211.686 56.178 211.672 56.0662V55.894V55.7871C211.761 55.7455 211.476 55.8881 211.874 55.6564C212.07 55.8762 211.933 55.7337 211.975 55.7812V56.0959L211.767 56.0128C211.069 55.7452 210.416 55.3727 209.831 54.9082C209.679 54.7755 209.557 54.6114 209.475 54.4271C209.397 54.2396 209.37 54.0346 209.398 53.8333C209.45 53.4591 209.595 53.104 209.819 52.7999L209.861 53.0137C209.205 52.6433 208.633 52.1419 208.18 51.5409C207.988 51.2143 207.897 50.8382 207.919 50.4601C207.925 50.1042 207.988 49.7515 208.103 49.4148L209.819 47.4669L209.968 47.657C209.177 48.1032 208.327 48.437 207.444 48.6487C207.212 48.7061 206.968 48.6721 206.761 48.5537C206.594 48.435 206.422 48.3281 206.262 48.1915C206.083 48.0598 205.959 47.8677 205.912 47.651C205.888 47.4448 205.932 47.2365 206.036 47.0572C206.421 46.4811 206.858 45.9423 207.343 45.4478C207.77 44.9846 208.168 44.5807 208.53 44.26C208.709 43.387 208.845 42.6981 208.946 42.2052L209.065 41.6767C209.062 41.5852 209.078 41.4942 209.112 41.4094Z" fill="#EB996E"/>
<path d="M110.583 151.709L88.152 123.862C88.152 123.862 76.2271 133.905 75.9123 134.219C75.5976 134.534 94.5659 152.992 106.752 160.136L110.583 157.6V151.709Z" fill="#FFBE9D"/>
<path d="M129.42 142.801C129.42 142.801 122.341 141.685 121.7 142.148C121.059 142.611 116.201 145.877 116.201 145.877C115.555 146.889 114.839 147.853 114.057 148.764C114.057 148.764 112.477 150.628 111.266 150.813C110.618 150.933 109.954 150.933 109.306 150.813L106.141 159.572C106.141 159.572 108.564 162.09 110.054 161.9C111.545 161.71 119.461 157.339 119.461 157.339L121.421 156.686C121.421 156.686 129.058 156.965 129.432 154.637V153.984L121.884 153.331L119.093 153.8L123.939 151.977C123.939 151.977 131.018 151.561 131.659 151.383C132.301 151.205 133.055 150.195 132.776 149.601L131.285 149.417C131.285 149.417 132.895 148.306 132.835 147.279L126.136 146.216C126.136 146.216 130.169 144.191 129.42 142.801Z" fill="#FFBE9D"/>
<path d="M132.057 149.333C131.857 149.327 131.658 149.3 131.463 149.25C131.077 149.179 130.507 149.084 129.807 148.983C128.399 148.775 126.451 148.526 124.295 148.288C124.038 148.25 123.778 148.228 123.517 148.223C123.273 148.227 123.031 148.269 122.799 148.348C122.342 148.532 121.884 148.745 121.463 148.941C120.613 149.339 119.859 149.725 119.242 150.076C118.755 150.347 118.283 150.644 117.828 150.967C117.668 151.097 117.497 151.214 117.317 151.317C117.433 151.143 117.58 150.991 117.751 150.871C118.184 150.508 118.645 150.179 119.129 149.886C119.723 149.512 120.489 149.102 121.338 148.698C121.765 148.49 122.199 148.282 122.698 148.104C122.958 148.012 123.23 147.962 123.506 147.956C123.782 147.962 124.057 147.983 124.331 148.021C126.493 148.264 128.441 148.544 129.842 148.811C130.543 148.941 131.107 149.066 131.493 149.173C131.688 149.199 131.878 149.253 132.057 149.333Z" fill="#EB996E"/>
<path d="M126.332 146.513C126.332 146.56 125.786 146.329 124.889 146.157C123.726 145.921 122.524 145.954 121.375 146.251C120.225 146.548 119.159 147.103 118.255 147.873C117.561 148.467 117.21 148.918 117.169 148.882C117.401 148.428 117.722 148.024 118.113 147.695C119.01 146.85 120.105 146.244 121.297 145.932C122.489 145.621 123.741 145.614 124.937 145.913C125.438 146.015 125.913 146.22 126.332 146.513Z" fill="#EB996E"/>
<path d="M217.26 91.4849C218.051 92.9521 218.517 94.5725 218.626 96.2359C218.626 98.5579 217.266 102.62 217.266 102.62L215.574 104.218C215.574 104.218 216.684 109.295 210.229 110.75C203.773 112.205 167.79 91.5027 167.79 91.5027L166.834 64.042C166.834 64.042 172.06 66.2215 175.832 69.9807C179.603 73.7399 201.089 89.5786 201.089 89.5786C201.089 89.5786 201.962 83.9724 202.924 84.3406C203.886 84.7088 217.26 91.4849 217.26 91.4849Z" fill="#FD3E72"/>
<path d="M166.834 64.0414L147.349 59.8843L142.277 54.6701L119.87 54.4563L117.168 59.3617L100.379 69.5704C100.379 69.5704 104.608 97.5359 106.152 100.796C107.696 104.057 119.918 139.992 119.918 139.992L168.77 134.166L169.186 111.599L170.599 100.677C170.902 98.3418 170.95 95.9801 170.742 93.6341C169.803 83.4551 166.834 64.0414 166.834 64.0414Z" fill="#FD3E72"/>
<path d="M94.5718 130.597L78.5373 141.578L72.943 133.602L74.4395 132.272C74.4395 132.272 66.1787 125.442 66.6776 120.626C67.1765 115.81 75.8826 103.404 75.8826 103.404C75.8826 103.404 94.5481 72.855 100.332 69.553C101.14 69.0957 108.166 86.0508 108.166 92.7141C108.166 99.3773 106.853 99.3773 106.853 99.3773C106.853 99.3773 101.205 104.859 98.5389 109.847C95.8724 114.836 91.3768 120.234 88.3896 122.247L94.5718 130.597Z" fill="#FD3E72"/>
<path d="M79.4341 118.34C79.4341 118.34 79.5885 118.304 79.8676 118.292C80.2646 118.286 80.6614 118.308 81.0554 118.358C82.3491 118.523 83.6058 118.904 84.773 119.486C85.9404 120.069 87.0071 120.835 87.9324 121.754C88.3324 122.115 88.6767 122.534 88.9539 122.996C88.8767 123.079 87.3385 121.095 84.6364 119.765C83.4953 119.2 82.2795 118.8 81.0257 118.577C80.0458 118.411 79.4341 118.393 79.4341 118.34Z" fill="#D62656"/>
<path d="M84.316 112.929C84.7652 113.2 85.1666 113.543 85.5037 113.944C86.3701 114.87 87.0694 115.939 87.5704 117.104C88.0714 118.269 88.3726 119.509 88.4612 120.774C88.5258 121.295 88.5038 121.822 88.3959 122.336C88.3484 122.336 88.3603 121.742 88.2474 120.792C88.0945 119.565 87.7706 118.366 87.2853 117.229C86.7916 116.093 86.1355 115.034 85.3374 114.087C84.7317 113.362 84.2863 112.971 84.316 112.929Z" fill="#D62656"/>
<path d="M145.752 95.5408C145.828 95.8064 145.878 96.0789 145.9 96.3544C145.949 96.6711 145.981 96.9903 145.995 97.3105C146.029 97.7352 146.041 98.1614 146.031 98.5873C146.035 99.1049 146.011 99.6223 145.96 100.137C145.93 100.696 145.823 101.284 145.728 101.919C145.255 104.609 144.245 107.176 142.759 109.467C142.402 109.984 142.076 110.483 141.719 110.916C141.403 111.329 141.066 111.725 140.71 112.104C140.425 112.423 140.124 112.726 139.807 113.013C139.58 113.24 139.337 113.452 139.083 113.648C138.88 113.834 138.659 113.999 138.423 114.141C138.382 114.087 139.308 113.369 140.549 111.961C140.858 111.605 141.191 111.219 141.511 110.774C141.832 110.328 142.171 109.847 142.515 109.331C143.225 108.197 143.837 107.005 144.344 105.767C144.825 104.513 145.199 103.219 145.461 101.901C145.562 101.307 145.675 100.713 145.716 100.161C145.758 99.6088 145.805 99.104 145.823 98.6348C145.871 96.7107 145.686 95.5526 145.752 95.5408Z" fill="#D62656"/>
<path d="M144.547 84.8982C144.411 84.8161 144.284 84.7206 144.167 84.6131C143.917 84.4231 143.573 84.1202 143.104 83.7639C142.177 83.0274 140.8 81.9822 139.048 80.7945C137.296 79.6067 135.182 78.1933 132.836 76.6374C130.25 74.9463 127.771 73.0979 125.412 71.1025H125.644C125.394 71.4588 125.139 71.8508 124.902 72.2546C123.914 73.9294 123.221 75.7614 122.853 77.6707L122.764 78.1399L122.574 77.7063C120.723 73.5301 119.254 69.195 118.185 64.754C117.787 63.0971 117.514 61.7846 117.359 60.8403C117.27 60.3831 117.223 60.0267 117.187 59.7832C117.164 59.6617 117.15 59.5386 117.146 59.415C117.192 59.5295 117.224 59.6492 117.241 59.7714C117.294 60.0386 117.365 60.3652 117.46 60.8225C117.65 61.7371 117.947 63.0614 118.369 64.7065C119.497 69.1164 120.995 73.4234 122.847 77.5816H122.562C122.93 75.6372 123.632 73.7708 124.634 72.0645C124.878 71.6548 125.139 71.2569 125.389 70.8768L125.489 70.7343L125.62 70.853C127.965 72.841 130.424 74.6911 132.984 76.3939C135.318 77.9855 137.432 79.3989 139.166 80.6341C140.901 81.8694 142.266 82.9087 143.169 83.6748C143.632 84.043 143.965 84.3637 144.197 84.5715C144.321 84.6719 144.438 84.7811 144.547 84.8982Z" fill="#D62656"/>
<path d="M147.326 59.9028C147.391 59.9762 147.445 60.0581 147.487 60.1463C147.587 60.3126 147.736 60.5561 147.908 60.8827C148.27 61.5241 148.769 62.4743 149.351 63.6858C150.931 66.9052 152.144 70.2917 152.968 73.7817L153.063 74.1914L152.73 73.9301C151.712 73.1432 150.766 72.2667 149.904 71.3111C149.367 70.7177 148.863 70.0951 148.395 69.4464L148.674 69.3632C148.478 72.7958 148.306 75.8958 148.158 78.5029C147.083 80.4271 146.198 82.0127 145.562 83.1589L144.832 84.4239C144.756 84.5776 144.665 84.723 144.559 84.8574C144.612 84.6955 144.684 84.5401 144.773 84.3942C144.939 84.0616 145.164 83.6281 145.444 83.0877C146.037 81.9355 146.905 80.3321 147.944 78.3901V78.4376C148.074 75.8661 148.229 72.7305 148.395 69.2979V68.8644L148.651 69.2207C149.857 70.89 151.295 72.3796 152.92 73.6451L152.677 73.7935C151.865 70.3158 150.693 66.9322 149.179 63.6977C148.621 62.5099 148.152 61.5182 147.819 60.859C147.671 60.5502 147.546 60.3007 147.445 60.0988C147.4 60.0368 147.36 59.9713 147.326 59.9028Z" fill="#D62656"/>
<path d="M170.992 94.8105C170.903 94.8105 170.398 90.1071 169.834 84.293C169.27 78.479 168.908 73.7518 168.991 73.7459C169.074 73.7399 169.585 78.4434 170.143 84.2633C170.701 90.0833 171.07 94.7987 170.992 94.8105Z" fill="#D62656"/>
<path d="M205.632 97.7024C205.239 97.4239 204.889 97.0899 204.593 96.7107C203.826 95.839 203.159 94.8849 202.603 93.866C202.049 92.8459 201.607 91.7686 201.285 90.6532C201.128 90.1972 201.036 89.7214 201.012 89.2397C201.529 90.7736 202.152 92.2698 202.876 93.7176C203.7 95.1092 204.621 96.4409 205.632 97.7024Z" fill="#D62656"/>
<path d="M202.717 98.385C202.717 98.385 202.598 98.2781 202.426 98.0465C202.184 97.7206 201.969 97.375 201.785 97.0132C200.543 94.6063 200.255 91.8198 200.977 89.2097C201.083 88.8192 201.22 88.4379 201.387 88.0694C201.438 87.9278 201.513 87.7955 201.606 87.6775C201.654 87.6775 201.416 88.2714 201.191 89.2631C200.898 90.5399 200.816 91.8557 200.947 93.1589C201.088 94.4593 201.437 95.7286 201.981 96.9182C202.402 97.8327 202.758 98.3494 202.717 98.385Z" fill="#D62656"/>
<path d="M99.6317 86.7334C99.7583 86.9201 99.8657 87.119 99.9523 87.3273L100.736 88.9901L103.349 94.4656C104.371 96.6095 105.268 98.5574 105.879 99.9887C106.188 100.707 106.426 101.289 106.574 101.693C106.669 101.9 106.741 102.117 106.788 102.34C106.656 102.157 106.548 101.958 106.467 101.747L105.677 100.084C104.982 98.6168 104.074 96.7105 103.07 94.6082C102.067 92.5059 101.146 90.5164 100.54 89.0851C100.231 88.3666 99.9939 87.7846 99.8395 87.3807C99.7454 87.1737 99.6756 86.9565 99.6317 86.7334Z" fill="#D62656"/>
<path d="M157.171 119.313C157.143 119.561 157.086 119.804 156.999 120.038C156.868 120.495 156.66 121.154 156.405 121.968C155.859 123.583 155.039 125.799 154.029 128.186C153.02 130.573 151.945 132.693 151.137 134.196C150.733 134.95 150.395 135.55 150.146 135.978C150.031 136.189 149.896 136.388 149.742 136.571C149.818 136.335 149.919 136.108 150.045 135.894C150.282 135.407 150.585 134.802 150.941 134.083C151.696 132.563 152.723 130.437 153.744 128.055C154.766 125.674 155.621 123.477 156.215 121.879C156.494 121.125 156.726 120.495 156.916 119.99C156.979 119.757 157.065 119.53 157.171 119.313Z" fill="#D62656"/>
<path d="M156.827 129.266C156.727 129.657 156.567 130.03 156.352 130.371C155.905 131.222 155.404 132.044 154.85 132.83C154.295 133.618 153.69 134.37 153.038 135.08C152.791 135.395 152.497 135.67 152.165 135.894C152.1 135.835 153.312 134.481 154.594 132.652C155.877 130.822 156.738 129.225 156.827 129.266Z" fill="#D62656"/>
<path d="M153.353 129.267C153.318 129.116 153.296 128.963 153.287 128.809C153.252 128.483 153.21 128.043 153.157 127.491C153.05 126.345 152.884 124.688 152.67 122.645C152.224 118.553 151.529 112.905 150.336 106.747C149.335 101.477 148.051 96.2652 146.487 91.1341C146.196 90.1482 145.894 89.2634 145.656 88.4854C145.419 87.7074 145.187 87.0363 144.997 86.4959C144.807 85.9555 144.682 85.5517 144.575 85.2369C144.516 85.0938 144.475 84.9443 144.451 84.7915C144.521 84.9301 144.582 85.0729 144.635 85.2191C144.753 85.5279 144.908 85.9377 145.11 86.4543C145.312 86.971 145.555 87.6421 145.816 88.4319C146.078 89.2218 146.41 90.0829 146.695 91.0687C148.325 96.1842 149.642 101.394 150.639 106.67C151.826 112.846 152.497 118.506 152.889 122.603C153.074 124.652 153.21 126.315 153.275 127.467L153.347 128.786C153.367 128.945 153.369 129.107 153.353 129.267Z" fill="#D62656"/>
<path d="M154.363 133.192C154.626 132.283 154.752 131.341 154.737 130.395C154.625 129.454 154.366 128.536 153.971 127.675C154.001 127.675 154.232 127.895 154.488 128.364C154.807 128.989 154.997 129.671 155.046 130.371C155.098 131.072 155.005 131.775 154.773 132.438C154.589 132.943 154.393 133.21 154.363 133.192Z" fill="#D62656"/>
<path d="M153.443 136.061C153.354 136.061 153.306 135.675 153.336 135.211C153.365 134.748 153.455 134.368 153.538 134.374C153.621 134.38 153.674 134.76 153.645 135.229C153.615 135.698 153.526 136.067 153.443 136.061Z" fill="#D62656"/>
<path d="M89.5183 124.576C89.2886 124.677 89.05 124.756 88.8056 124.813C88.3424 124.95 87.6832 125.158 86.8696 125.443C86.056 125.728 85.088 126.108 84.0724 126.559C83.0569 127.011 81.9226 127.581 80.7764 128.216C78.8277 129.316 76.9566 130.548 75.1762 131.904C74.4933 132.427 73.9469 132.854 73.5728 133.157C73.392 133.327 73.1928 133.477 72.9789 133.603C73.1339 133.405 73.3113 133.225 73.5074 133.068C73.8578 132.735 74.3864 132.278 75.0515 131.732C76.8057 130.317 78.6749 129.052 80.6398 127.949C81.792 127.307 82.9203 126.761 83.9715 126.298C84.9013 125.896 85.8507 125.541 86.8161 125.235C87.4635 125.022 88.1216 124.844 88.7878 124.7C89.0257 124.631 89.2708 124.589 89.5183 124.576Z" fill="#D62656"/>
<path d="M88.8944 124.593C88.8944 124.647 88.0808 124.593 86.7802 124.736C85.0924 124.888 83.4281 125.237 81.8213 125.775C80.2174 126.326 78.6686 127.026 77.1951 127.865C76.0608 128.513 75.4134 128.964 75.36 128.923C75.4861 128.78 75.6321 128.656 75.7935 128.554C76.2081 128.242 76.6382 127.95 77.0822 127.681C78.5393 126.77 80.0979 126.033 81.7263 125.484C83.3553 124.934 85.0515 124.609 86.7683 124.516C87.2865 124.485 87.8061 124.485 88.3242 124.516C88.5171 124.512 88.7094 124.538 88.8944 124.593Z" fill="#D62656"/>
<g opacity="0.3">
<path opacity="0.3" d="M100.748 88.8596C100.412 91.2373 100.757 93.6616 101.743 95.8512C102.729 98.0408 104.315 99.9059 106.319 101.23C104.917 97.6668 102.494 92.5238 100.748 88.8596Z" fill="black"/>
</g>
<g opacity="0.3">
<path opacity="0.3" d="M123.446 74.9867C124.198 76.5161 125.232 77.8901 126.493 79.0369L126.433 75.7884L141.28 82.3982L125.341 70.9424C124.468 72.4093 124.319 73.5079 123.446 74.9748" fill="black"/>
</g>
<g opacity="0.3">
<path opacity="0.3" d="M150.912 72.4565C150.277 71.4588 148.537 69.3506 148.537 69.3506C148.477 70.9065 148.341 73.0385 148.287 74.6004L148.062 78.3359C148.293 77.0353 148.466 74.5232 148.697 73.2167L151.465 75.8416C151.636 75.2725 151.675 74.6718 151.58 74.0852C151.484 73.4987 151.256 72.9416 150.912 72.4565Z" fill="black"/>
</g>
<g opacity="0.3">
<path opacity="0.3" d="M169.067 76.2871L170.991 93.4144C171.787 87.8379 173.308 84.8092 169.067 76.2871Z" fill="black"/>
</g>
<g opacity="0.3">
<path opacity="0.3" d="M211.375 100.981C210.663 100.387 209.083 100.018 208.269 99.579C204.581 97.5717 202.628 93.9016 201.19 89.9583L201.06 89.5188C201.208 94.8043 204.564 100.458 209.374 102.632C209.86 102.892 210.41 103.008 210.96 102.964C211.232 102.932 211.482 102.801 211.664 102.596C211.846 102.392 211.946 102.127 211.946 101.854C211.872 101.501 211.668 101.19 211.375 100.981Z" fill="black"/>
</g>
<g opacity="0.3">
<path opacity="0.3" d="M134.879 115.667C140.984 113.642 143.93 107.893 145.497 102.869C145.585 105.048 145.323 107.228 144.719 109.324C144.1 111.432 142.825 113.288 141.079 114.622C140.201 115.272 139.182 115.705 138.104 115.887C137.027 116.069 135.922 115.993 134.879 115.667Z" fill="black"/>
</g>
<g opacity="0.3">
<path opacity="0.3" d="M88.3303 124.985C83.8568 124.7 79.4414 126.12 75.9718 128.958C75.7224 129.166 75.4492 129.463 75.5561 129.771C75.6108 129.879 75.697 129.967 75.8031 130.024C75.9091 130.082 76.0301 130.105 76.15 130.092C76.393 130.049 76.6239 129.953 76.827 129.813C80.4511 127.715 84.3103 126.053 88.3244 124.86" fill="black"/>
</g>
<g opacity="0.3">
<path opacity="0.3" d="M161.591 113.042C161.365 112.829 161.067 112.707 160.756 112.702C160.445 112.696 160.143 112.807 159.91 113.012C159.456 113.443 159.12 113.983 158.936 114.58L151.685 132.581L150.574 135.247L158.176 122.503C159.69 119.961 161.234 117.348 161.739 114.432C161.814 114.203 161.839 113.961 161.814 113.721C161.788 113.482 161.712 113.25 161.591 113.042Z" fill="black"/>
</g>
<path d="M111.711 11.8877C116.207 5.61046 123.66 1.94033 131.256 0.544724C134.451 -0.0491494 136.547 0.384378 139.73 1.0317C142.913 1.58339 145.8 3.23807 147.884 5.70549C150.301 8.71049 152.392 12.1193 153.057 15.9201C153.74 19.8278 154.423 23.7592 154.381 27.7204C154.34 31.6815 153.514 35.7258 151.412 39.0752L141.482 41.4507C135.953 41.9911 130.341 42.5316 124.854 41.617C119.367 40.7024 113.939 38.125 110.743 33.576C106.301 27.269 107.21 18.1649 111.711 11.8877Z" fill="#5B5863"/>
<path d="M148.722 44.9248C148.722 44.9248 148.9 45.1624 149.357 45.4118C150.006 45.7669 150.727 45.97 151.466 46.0057C152.58 46.0585 153.682 45.7616 154.619 45.1565C155.757 44.3708 156.547 43.1745 156.821 41.819C157.096 40.4634 156.835 39.0542 156.092 37.8874C155.465 36.9693 154.568 36.2681 153.526 35.8801C152.836 35.6162 152.095 35.5127 151.359 35.5773C150.842 35.6307 150.575 35.7495 150.587 35.7792C150.599 35.8089 151.745 35.5713 153.366 36.2721C154.29 36.6787 155.076 37.3451 155.629 38.1903C156.263 39.248 156.479 40.5048 156.234 41.7136C155.989 42.9224 155.301 43.9958 154.304 44.7229C153.466 45.2873 152.482 45.5948 151.472 45.6078C149.714 45.5662 148.769 44.812 148.722 44.9248Z" fill="#E0E0E0"/>
<path d="M103.949 40.4587C103.976 39.3143 104.263 38.191 104.788 37.1742C105.314 36.1574 106.065 35.274 106.984 34.5913C108.873 33.3085 111.622 33.2491 113.356 34.7338L115.055 36.5154C116.318 36.9993 117.399 37.8666 118.144 38.9955C118.89 40.1245 119.263 41.4585 119.212 42.8105C119.112 44.1572 118.631 45.4477 117.826 46.5318C117.02 47.6158 115.923 48.4486 114.663 48.9333C113.388 49.382 112.019 49.4953 110.688 49.2623C109.357 49.0293 108.108 48.458 107.061 47.603C106.03 46.7304 105.212 45.6323 104.673 44.3935C104.133 43.1547 103.886 41.8085 103.949 40.4587Z" fill="#5B5863"/>
<path d="M106.372 47.099C105.952 46.5304 105.718 45.846 105.701 45.1392C105.701 43.8446 106.533 42.1045 107.714 40.4773C108.753 39.0855 110.047 37.9044 111.527 36.9972C112.667 36.2905 113.457 36.0054 113.427 35.9282C112.692 36.0414 111.987 36.302 111.355 36.6943C108.88 38.0234 106.937 40.1618 105.85 42.7518C105.509 43.4965 105.34 44.3085 105.357 45.1273C105.381 45.6923 105.571 46.2377 105.903 46.6952C106.152 47.0218 106.354 47.1227 106.372 47.099Z" fill="#75727D"/>
<path d="M111.414 49.7529C111.58 49.7529 110.702 46.7419 111.414 43.0956C112.127 39.4492 114.033 36.9905 113.891 36.9133C113.387 37.3569 112.97 37.8906 112.661 38.4871C110.982 41.2928 110.339 44.5982 110.844 47.8287C110.914 48.4997 111.108 49.1519 111.414 49.7529Z" fill="#75727D"/>
<path d="M142.516 57.747C142.225 54.2313 141.957 51.351 141.957 51.3688C141.957 51.3867 150.082 49.9435 151.673 39.3073C152.469 34.0218 152.125 25.3631 151.614 18.2901C151.157 11.9238 145.176 3.59172 137.307 4.03713L133.786 3.85303L120.721 10.0293C119.791 10.136 118.936 10.5875 118.323 11.2946C117.711 12.0017 117.386 12.9128 117.413 13.8479L120.269 59.3386L144.523 84.8752L145.913 77.6715L142.516 57.747Z" fill="#FFBE9D"/>
<path d="M141.957 51.3449C136.959 51.4635 132.026 50.1952 127.704 47.6807C127.704 47.6807 131.559 55.0031 142.183 53.9163L141.957 51.3449Z" fill="#EB996E"/>
<path d="M121.225 31.7055C121.225 30.9156 120.287 29.0568 119.509 28.944C117.418 28.6352 113.659 28.8371 113.671 34.1344C113.671 41.3797 120.958 39.8653 120.97 39.6574C120.982 39.4496 121.261 34.4373 121.225 31.7055Z" fill="#FFBE9D"/>
<path d="M118.136 36.8542C118.136 36.8542 118.011 36.9433 117.798 37.0443C117.495 37.1668 117.156 37.1668 116.853 37.0443C116.087 36.7651 115.44 35.5536 115.404 34.2471C115.39 33.6348 115.51 33.0268 115.755 32.4655C115.821 32.2393 115.942 32.0328 116.106 31.864C116.271 31.6953 116.474 31.5694 116.699 31.4975C116.844 31.4579 116.999 31.4707 117.136 31.5337C117.272 31.5967 117.383 31.7058 117.447 31.8419C117.542 32.0438 117.495 32.1864 117.536 32.1982C117.578 32.2101 117.691 32.0795 117.631 31.7766C117.592 31.5974 117.491 31.4377 117.346 31.3253C117.247 31.2499 117.134 31.1949 117.014 31.1633C116.894 31.1317 116.769 31.1242 116.645 31.1412C116.349 31.2022 116.073 31.3378 115.843 31.5352C115.613 31.7327 115.438 31.9854 115.333 32.2695C115.025 32.8969 114.876 33.5903 114.899 34.2887C114.947 35.7496 115.701 37.1096 116.746 37.4125C116.941 37.4688 117.145 37.4804 117.345 37.4465C117.544 37.4125 117.734 37.3339 117.899 37.2165C118.136 37.0324 118.136 36.8661 118.136 36.8542Z" fill="#EB996E"/>
<path d="M118.374 28.8187L120.328 30.6003C127.758 22.5177 142.016 2.56355 141.221 3.75129C137.528 2.63279 133.614 2.4572 129.836 3.24056C124.016 4.61835 113.047 8.27661 113.659 15.2012C114.271 22.1257 118.374 28.8187 118.374 28.8187Z" fill="#5B5863"/>
<path d="M119.693 46.7778C119.693 46.7778 119.544 47.0332 119.099 47.342C118.494 47.7658 117.802 48.0498 117.074 48.1734C115.977 48.3651 114.847 48.2094 113.843 47.728C113.23 47.4202 112.684 46.9941 112.237 46.4743C111.789 45.9544 111.449 45.3512 111.236 44.6992C110.779 43.3927 110.856 41.9586 111.45 40.7084C111.956 39.7165 112.757 38.9054 113.742 38.3864C114.394 38.0346 115.116 37.8317 115.856 37.7925C116.373 37.7925 116.652 37.8638 116.646 37.8994C116.64 37.935 115.458 37.84 113.95 38.7367C113.085 39.2603 112.389 40.0236 111.949 40.9341C111.463 42.0601 111.413 43.3264 111.808 44.4874C112.203 45.6484 113.015 46.6212 114.087 47.2173C114.991 47.6709 116.009 47.8505 117.014 47.7339C118.79 47.5379 119.633 46.6709 119.693 46.7778Z" fill="#E0E0E0"/>
<path d="M113.463 35.1616C113.486 34.6012 113.474 34.0399 113.427 33.4809C113.398 31.9602 113.503 30.44 113.742 28.9378C114.602 23.9827 116.654 19.3112 119.722 15.3262C122.832 11.375 126.529 7.92404 130.685 5.09379C132.265 3.98325 133.577 3.13401 134.492 2.55201C134.979 2.27611 135.446 1.96446 135.887 1.61963C135.746 1.65835 135.612 1.71844 135.49 1.79779C135.234 1.92844 134.86 2.11848 134.391 2.39167C133.447 2.92021 132.098 3.72788 130.483 4.80279C126.23 7.57905 122.46 11.0337 119.324 15.0293C116.198 19.0694 114.154 23.8401 113.386 28.8903C113.175 30.413 113.121 31.9532 113.225 33.4869C113.225 34.0332 113.332 34.449 113.362 34.734C113.378 34.8802 113.412 35.0238 113.463 35.1616Z" fill="#75727D"/>
<path d="M131.321 1.45923C131.177 1.49582 131.039 1.55176 130.911 1.62551C130.644 1.74429 130.263 1.94027 129.776 2.21939C128.803 2.73012 127.401 3.51403 125.75 4.59488C123.809 5.84719 121.939 7.20731 120.15 8.66885C117.911 10.419 115.889 12.4307 114.128 14.661C113.233 15.8465 112.502 17.1468 111.954 18.5271C111.465 19.8191 111.153 21.1717 111.028 22.5477C110.842 24.8678 110.996 27.2026 111.485 29.4782C111.877 31.4142 112.328 32.9464 112.673 33.9976C112.839 34.5261 112.97 34.9299 113.071 35.1853C113.109 35.3283 113.165 35.4659 113.237 35.5951C113.153 35.0304 113.028 34.4726 112.863 33.9263C112.596 32.8633 112.198 31.3192 111.853 29.395C111.423 27.1494 111.305 24.8552 111.503 22.5774C111.64 21.2437 111.951 19.9339 112.429 18.6816C112.966 17.3455 113.679 16.0872 114.55 14.9402C116.293 12.7377 118.286 10.7448 120.488 9.00142C122.25 7.52413 124.086 6.13666 125.988 4.84431C127.615 3.74564 128.957 2.92016 129.913 2.35598C130.401 2.08759 130.871 1.78805 131.321 1.45923Z" fill="#75727D"/>
<path d="M118.244 29.009C118.573 28.7172 118.87 28.3907 119.129 28.035L121.397 25.2735C123.292 22.9277 125.887 19.6673 128.726 16.0447C131.565 12.4221 134.118 9.13203 135.947 6.72685L138.091 3.87031C138.371 3.53155 138.616 3.16546 138.822 2.77759C138.497 3.07184 138.201 3.39593 137.937 3.7456L135.674 6.50711C133.774 8.88261 131.179 12.1192 128.34 15.7418C125.501 19.3645 122.948 22.6605 121.106 25.0597L118.963 27.9222C118.692 28.2633 118.452 28.6269 118.244 29.009Z" fill="#716D7A"/>
<path d="M271.403 218.663C271.403 218.746 210.775 218.817 136 218.817C61.2254 218.817 0.596863 218.746 0.596863 218.663C0.596863 218.58 61.2076 218.508 136 218.508C210.792 218.508 271.403 218.574 271.403 218.663Z" fill="#263238"/>
</svg>
