<svg width="225" height="223" viewBox="0 0 225 223" fill="none" xmlns="http://www.w3.org/2000/svg">
<path d="M224.912 109.692L180.393 87.4978C170.776 66.3395 153.778 49.467 132.62 40.0793C111.462 30.6917 87.616 29.4414 65.6029 36.5655C43.5898 43.6897 24.94 58.693 13.1894 78.7309C1.43885 98.7689 -2.59565 122.448 1.85085 145.28C6.29736 168.112 18.9158 188.508 37.3137 202.602C55.7116 216.696 78.6099 223.508 101.667 221.747C124.725 219.985 146.338 209.773 162.41 193.045C178.482 176.317 187.895 154.238 188.864 130.993L224.912 109.692Z" fill="#F1F1F1"/>
<path d="M78.2464 82.7686H108.739C108.739 82.7686 136.316 92.6095 145.279 99.5105C154.242 106.411 168.031 155.069 168.031 155.069L140.485 154.254L138.431 196.021C110.228 216.198 76.3778 214.723 50.2381 197.053L48.1848 157.504L25.2073 156.813C17.4558 156.575 17.0964 154.44 17.0964 154.44C17.0964 154.44 34.7248 107.938 40.1047 98.9328C44.8275 91.0828 72.0451 84.0683 78.2464 82.7686Z" fill="#FD3E72"/>
<path fill-rule="evenodd" clip-rule="evenodd" d="M169.882 71.5102C183.13 71.5102 193.869 60.7707 193.869 47.5228C193.869 34.2749 183.13 23.5354 169.882 23.5354C156.634 23.5354 145.894 34.2749 145.894 47.5228C145.894 53.1761 147.85 58.3726 151.122 62.4728L148.246 71.51L156.947 67.7273C160.679 70.1217 165.118 71.5102 169.882 71.5102Z" fill="#5B5863"/>
<rect x="152.479" y="37.6454" width="33.8646" height="19.7543" rx="2" fill="white"/>
<path d="M166.889 43.4605L172.87 46.8786C173.005 46.9554 173.005 47.1492 172.87 47.2259L166.889 50.644C166.755 50.7202 166.59 50.6239 166.59 50.4704L166.59 43.6342C166.59 43.4806 166.755 43.3843 166.889 43.4605Z" fill="#FD3E72" stroke="#FD3E72"/>
<path d="M140.454 124.268C140.608 124.268 140.608 131.581 140.454 140.587C140.3 149.592 140.074 156.906 139.93 156.906C139.786 156.906 139.776 149.592 139.93 140.576C140.084 131.561 140.31 124.268 140.454 124.268Z" fill="#EC3668"/>
<path d="M110.608 85.6363C110.635 85.8175 110.635 86.0019 110.608 86.1831C110.542 86.6938 110.446 87.2002 110.32 87.6994C109.885 89.5604 109.157 91.3397 108.164 92.9706C106.674 95.3991 104.647 97.4499 102.24 98.9639C99.249 100.775 95.8026 101.685 92.3115 101.584C88.8203 101.483 85.4315 100.377 82.5484 98.3965C80.2297 96.7488 78.3217 94.5846 76.9734 92.0732C76.0665 90.3845 75.4389 88.5589 75.1151 86.6679C75.0247 86.16 74.9698 85.6464 74.9508 85.1309C74.9238 84.9531 74.9238 84.7722 74.9508 84.5945C74.9508 84.5945 75.0432 85.3269 75.3204 86.6576C75.725 88.493 76.3961 90.2587 77.3122 91.8978C78.6628 94.3286 80.5443 96.42 82.8153 98.0148C85.6302 99.9125 88.9222 100.971 92.3106 101.068C95.6991 101.164 99.0456 100.296 101.963 98.5616C104.321 97.1025 106.322 95.128 107.815 92.7849C108.829 91.1904 109.597 89.4517 110.095 87.6272C110.474 86.3584 110.536 85.6363 110.608 85.6363Z" fill="#EC3668"/>
<path d="M47.9075 126.465C48.0615 126.465 48.1847 133.593 48.1847 142.382C48.1847 151.17 48.0717 158.298 47.928 158.298C47.7843 158.298 47.6611 151.181 47.6508 142.382C47.6405 133.582 47.7843 126.465 47.9075 126.465Z" fill="#EC3668"/>
<g opacity="0.2">
<path opacity="0.2" d="M47.1891 189.822C53.3493 190.307 58.8934 186.129 63.4827 181.931C68.0721 177.733 72.8873 173.06 79.0269 172.173C85.4745 171.244 92.0146 174.751 98.4006 173.472C101.265 172.895 103.945 171.409 106.871 171.244C111.696 171.059 115.741 174.659 119.191 178.032L132.733 191.184C134.109 192.525 136.748 194.536 138.483 193.701L138.811 186.913C136.655 174.71 134.304 162.156 124.951 154.09C118.01 148.096 108.524 146.033 99.4684 144.991C88.4417 143.733 76.5218 143.877 67.2712 150.025C61.1111 154.152 56.7476 160.547 53.9242 167.407C51.1008 174.267 49.5813 181.57 48.1234 188.791" fill="black"/>
</g>
<path d="M165.731 154.998C165.998 156.607 170.444 182.375 169.643 187.47C168.842 192.566 167.507 199.271 161.635 201.685C155.762 204.099 147.261 200.881 142.425 192.566C137.59 184.252 116.758 155.039 116.758 155.039L101.296 153.161V127.156L130.906 146.095L144.52 158.474L143.493 154.348L165.731 154.998Z" fill="#FFBE9D"/>
<path d="M108.01 113.333H84.6428C82.7263 113.333 81.1726 114.895 81.1726 116.82V159.175C81.1726 161.101 82.7263 162.662 84.6428 162.662H108.01C109.927 162.662 111.481 161.101 111.481 159.175V116.82C111.481 114.895 109.927 113.333 108.01 113.333Z" fill="#455A64"/>
<path d="M129.643 145.466C129.745 145.352 136.183 150.943 144.016 157.947C151.85 164.952 158.134 170.728 158.041 170.842C157.949 170.955 151.501 165.364 143.667 158.35C135.834 151.335 129.55 145.548 129.643 145.466Z" fill="#F3B18F"/>
<path d="M21.1213 156.462C21.1213 156.462 17.4354 188.492 17.4354 192.143C17.4354 195.795 20.7003 204.522 29.7558 205.285C38.8112 206.048 50.4642 185.572 50.4642 185.572L69.3554 156.741L60.9981 141.051L44.6839 157.411L21.1213 156.462Z" fill="#FFBE9D"/>
<path d="M105.454 132.613L80.9983 131.932L61.0188 141.051L69.3761 156.741L83.986 154.605C83.986 154.605 92.5383 153.203 93.0825 152.687C94.1092 151.655 94.9203 148.653 95.5055 146.013C96.1139 143.322 95.8103 140.505 94.643 138.008L94.1092 137.523C94.1092 137.523 102.158 135.831 103.493 135.243C106.676 133.82 105.454 132.613 105.454 132.613Z" fill="#FFBE9D"/>
<path d="M61.0186 141.051C60.7358 141.468 60.4163 141.858 60.0637 142.217C59.4272 142.949 58.4826 143.981 57.3019 145.239C54.9303 147.756 51.5832 151.16 47.8461 154.874L38.2875 164.384L35.4025 167.283C35.0697 167.661 34.7019 168.007 34.304 168.315C34.5824 167.895 34.9023 167.504 35.2588 167.149C35.8953 166.417 36.8399 165.395 38.0206 164.137C40.382 161.61 43.7393 158.206 47.4764 154.492L57.0247 144.981L59.9097 142.083C60.2472 141.705 60.6184 141.36 61.0186 141.051Z" fill="#F3B18F"/>
<path d="M85.115 139.906C86.3896 138.743 87.9803 137.989 89.6838 137.74C91.3542 137.312 93.1141 137.398 94.7351 137.987C93.0807 137.936 91.4248 138.029 89.7865 138.266C88.1855 138.677 86.6226 139.226 85.115 139.906Z" fill="#E07646"/>
<path d="M96.1621 142.65C94.7127 142.358 93.235 142.233 91.7575 142.278C90.2855 142.486 88.842 142.864 87.4557 143.403C88.6175 142.36 90.1078 141.761 91.6651 141.711C93.2275 141.477 94.8219 141.81 96.1621 142.65Z" fill="#E07646"/>
<path d="M94.5813 147.168C94.5197 147.23 94.2528 147.054 93.7907 146.889C93.1945 146.669 92.5538 146.598 91.9241 146.683C91.2944 146.767 90.6947 147.005 90.1768 147.374C89.7764 147.663 89.5608 147.9 89.4889 147.859C89.417 147.818 89.4889 147.488 89.9304 147.085C90.4582 146.58 91.1317 146.255 91.8545 146.156C92.5773 146.058 93.3124 146.192 93.955 146.539C94.4376 146.828 94.6224 147.127 94.5813 147.168Z" fill="#E07646"/>
<path d="M94.3965 98.2007C98.3048 97.9807 101.979 96.2569 104.655 93.3871C107.332 90.5174 108.805 86.7221 108.77 82.7895C108.77 77.8793 108.668 73.6809 108.668 73.6809C108.668 73.6809 120.988 71.752 121.193 59.3219C121.399 46.8918 119.201 18.3697 119.201 18.3697C112.172 15.3338 104.463 14.239 96.8715 15.1983C89.2799 16.1576 82.081 19.1363 76.0187 23.8265L74.1809 25.2398L78.3698 84.0376C78.6598 88.038 80.502 91.764 83.4996 94.413C86.4972 97.062 90.4105 98.4222 94.3965 98.2007Z" fill="#FFBE9D"/>
<path d="M108.657 73.5057C102.949 73.6144 97.3372 72.0128 92.5381 68.905C92.5381 68.905 96.3471 77.8382 108.688 76.7241L108.657 73.5057Z" fill="#F3B18F"/>
<path d="M75.6797 38.1132C75.4641 38.0204 67.1787 35.586 67.4662 44.0859C67.7536 52.5858 76.1725 50.5536 76.1828 50.2751C76.1931 49.9966 75.6797 38.1132 75.6797 38.1132Z" fill="#FFBE9D"/>
<path d="M73.4722 47.1705C73.4722 47.1705 73.3284 47.284 73.082 47.4077C72.7361 47.5662 72.3426 47.5847 71.9835 47.4593C71.08 47.1602 70.2894 45.7573 70.197 44.2306C70.1383 43.5055 70.2399 42.7763 70.4948 42.0953C70.5672 41.8279 70.7031 41.5821 70.8908 41.379C71.0786 41.176 71.3126 41.0218 71.5728 40.9297C71.7494 40.8533 71.9482 40.847 72.1292 40.9121C72.3102 40.9772 72.4599 41.1088 72.5482 41.2804C72.6611 41.5176 72.62 41.693 72.6611 41.7033C72.7022 41.7136 72.8356 41.5589 72.7638 41.2082C72.7051 41.0004 72.583 40.8164 72.4147 40.6821C72.1758 40.5141 71.8808 40.4474 71.5933 40.4964C71.2478 40.5743 70.9282 40.7406 70.6656 40.9791C70.4029 41.2177 70.2062 41.5205 70.0944 41.8581C69.7538 42.6036 69.6021 43.4222 69.6529 44.2409C69.7658 45.9533 70.6796 47.5315 71.9219 47.841C72.1519 47.8977 72.3916 47.903 72.6239 47.8567C72.8563 47.8104 73.0757 47.7134 73.2668 47.5728C73.4619 47.3768 73.503 47.1911 73.4722 47.1705Z" fill="#F3B18F"/>
<path d="M125.197 10.53C125.288 9.75519 125.181 8.97001 124.886 8.24822C124.592 7.52642 124.119 6.89174 123.513 6.40381C122.89 5.94654 122.125 5.72755 121.355 5.78616C120.585 5.84477 119.862 6.17714 119.314 6.72359C119.432 6.20483 119.439 5.66703 119.336 5.14526C119.232 4.62348 119.021 4.12944 118.715 3.69535C118.408 3.26126 118.015 2.89686 117.559 2.62593C117.103 2.35499 116.596 2.18359 116.07 2.12291C114.016 1.98881 112.333 3.52581 110.382 4.06221C108.437 4.4752 106.411 4.2398 104.612 3.39171C102.774 2.66963 101.07 1.6484 99.2423 0.967587C95.3333 -0.469183 91.0183 -0.300378 87.2323 1.43742C83.4463 3.17521 80.4945 6.342 79.0164 10.2515C77.6241 9.90619 76.16 9.99684 74.8204 10.5112C73.4808 11.0256 72.3298 11.9392 71.5216 13.1295C69.9482 15.5321 69.3189 18.4362 69.7556 21.2786C70.0319 23.179 70.5139 25.0434 71.193 26.8386C71.193 26.9934 71.193 27.1481 71.193 27.3132C71.3162 34.142 72.0862 42.1674 74.9918 42.2086C80.0431 42.2911 78.8419 32.7184 78.8419 32.7184C85.0021 30.3046 82.7331 20.9692 84.2834 19.556C85.8337 18.1428 89.078 14.8418 102.076 21.5159C107.117 24.1051 113.832 24.0225 117.476 23.187L117.805 23.1251H117.877H117.99C119.166 22.8176 120.288 22.3306 121.316 21.6809C122.542 20.9751 123.507 19.8894 124.068 18.5863C124.336 17.9379 124.411 17.225 124.284 16.5345C124.156 15.8441 123.831 15.2058 123.349 14.6974C124.358 13.5201 125.001 12.071 125.197 10.53Z" fill="#5B5863"/>
</svg>
