<svg width="418" height="418" viewBox="0 0 418 418" fill="none" xmlns="http://www.w3.org/2000/svg">
<circle cx="209" cy="209" r="209" fill="#F7F7F7"/>
<circle cx="209.072" cy="209.072" r="168.676" fill="#FFEAF0"/>
<mask id="mask0" mask-type="alpha" maskUnits="userSpaceOnUse" x="42" y="40" width="333" height="333">
<rect x="42.9305" y="40.4053" width="331.659" height="331.659" fill="#C4C4C4"/>
</mask>
<g mask="url(#mask0)">
<path d="M208.383 371.787C299.76 371.787 373.836 297.712 373.836 206.335C373.836 114.958 299.76 40.8818 208.383 40.8818C117.006 40.8818 42.9302 114.958 42.9302 206.335C42.9302 297.712 117.006 371.787 208.383 371.787Z" fill="#FFD3DF"/>
<path d="M347.845 284.944C347.845 284.944 343.647 285.641 342.95 285.877C342.253 286.113 340.388 286.343 339.685 287.058C338.982 287.772 338.752 286.827 336.42 287.524C334.087 288.221 333.391 287.754 334.79 285.192C336.189 282.629 335.256 281.927 335.02 280.061C334.784 278.195 337.583 277.032 332.924 276.796C328.265 276.559 328.029 275.615 324.764 277.492C321.499 279.37 318.936 281.224 318.936 281.224L315.671 279.358C315.671 279.358 311.939 275.396 311.242 275.16C310.085 274.988 308.916 274.911 307.747 274.93C307.344 273.489 307.265 271.976 307.517 270.501C307.983 268.405 307.286 267.702 305.887 268.405C304.488 269.108 301.925 270.501 301.925 270.501C301.925 270.501 297.727 270.968 295.164 272.367C292.602 273.766 292.365 274.699 288.173 274.233C283.981 273.766 283.745 277.498 280.497 275.414C277.25 273.33 275.602 272.615 274.203 270.985C272.803 269.356 271.871 270.289 272.337 272.757C272.803 275.225 275.833 274.741 272.685 275.786C269.538 276.831 267.909 275.319 268.487 278.933C269.066 282.547 269.184 284.991 268.139 284.991C267.094 284.991 264.637 282.31 266.509 279.978C268.381 277.646 266.627 276.364 266.627 276.364C266.627 276.364 267.442 274.593 268.611 274.381C269.78 274.168 270.707 271.582 268.493 271.93C266.279 272.278 266.397 271.233 265.812 273.211C265.228 275.189 264.761 275.662 262.547 276.24C260.333 276.819 260.097 276.24 258.467 277.421C256.837 278.602 258.467 279.051 256.017 279.051C253.566 279.051 252.87 279.748 252.87 281.614C252.87 283.48 252.055 283.598 251.004 284.761C249.953 285.924 249.722 286.16 248.908 287.093C248.423 287.599 248.134 288.26 248.093 288.959C247.975 289.425 247.042 289.656 246.463 289.425C245.884 289.195 245.064 288.144 242.967 286.745C240.871 285.345 239.472 284.761 237.022 284.761C234.571 284.761 232.475 289.774 229.098 288.138C225.72 286.503 226.069 286.154 224.085 284.873C222.101 283.592 222.685 283.356 222.313 281.608C221.941 279.86 221.262 279.624 222.195 278.23C223.128 276.837 223.246 275.898 223.128 272.987C223.01 270.076 225.224 266.108 223.128 264.945C221.032 263.782 225.578 263.546 218.93 263.315C212.281 263.085 213.568 261.686 209.14 262.382C204.712 263.079 202.261 263.664 200.98 263.563C199.699 263.463 197.715 262.973 200.047 260.883C202.379 258.792 203.194 260.186 203.076 257.505C202.958 254.824 202.025 252.728 203.424 253.543C204.824 254.358 205.757 253.077 206.69 251.914C207.623 250.75 205.172 248.3 207.623 246.322C210.073 244.344 212.169 243.175 208.437 243.175C204.706 243.175 207.741 241.403 202.846 241.893C197.951 242.383 198.069 242.124 197.833 243.665C197.597 245.206 194.101 242.265 195.737 245.997C197.372 249.729 197.508 251.589 195.967 251.825C194.634 251.93 193.31 252.127 192.005 252.415C188.391 253.112 186.177 255.681 185.244 253.933C184.311 252.185 185.835 251.719 183.148 251.719C180.461 251.719 180.119 252.77 179.186 249.156C178.253 245.542 174.291 242.277 176.039 242.277C177.787 242.277 177.556 240.411 176.736 238.433C175.915 236.455 176.145 233.769 176.145 231.673C176.145 229.576 176.027 225.963 177.545 227.244C179.062 228.525 179.174 227.711 179.174 225.473C179.174 223.235 177.308 221.741 178.708 219.763C180.107 217.785 178.59 217.897 181.619 216.734C184.648 215.571 183.715 215.453 186.75 215.335C189.785 215.216 189.667 215.801 190.83 214.52C191.993 213.238 190.948 210.788 192.46 212.069C193.971 213.351 193.156 213.002 196.303 212.766C199.451 212.53 201.198 213.817 201.547 211.426C201.895 209.034 200.614 208.804 204.346 208.568C208.077 208.332 209.825 208.101 211.431 208.219C213.037 208.338 213.202 207.168 213.527 209.152C213.852 211.136 215.741 210.333 217.141 210.085C218.54 209.837 218.658 207.989 219.94 209.152C221.221 210.316 224.02 211.603 224.604 212.996C225.189 214.39 225.785 214.98 225.195 217.194C224.604 219.409 223.423 220.224 224.846 221.393C226.269 222.562 226.942 221.983 227.061 223.725C227.179 225.467 228.578 226.99 228.69 227.805C228.802 228.62 230.674 229.204 231.253 228.986C231.831 228.767 234.282 226.772 232.534 220.596C230.786 214.419 231.837 214.183 231.017 210.806C230.196 207.428 229.617 207.074 231.713 204.045C233.809 201.016 234.276 199.965 236.726 198.802C239.177 197.638 239.992 196.936 241.857 194.137C243.723 191.338 245.471 190.405 247.803 189.36C250.136 188.315 248.152 188.02 248.211 186.857C248.27 185.693 249.781 186.266 250.773 185.634C251.765 185.003 252.545 184.82 251.996 183.863C251.446 182.906 250.13 184.093 250.307 183.337C250.484 182.582 252.929 181.241 252.291 180.539C251.653 179.836 250.773 179.547 249.551 180.19C248.329 180.834 247.048 180.421 247.567 179.665C248.087 178.909 248.908 180.072 248.677 177.74C248.447 175.408 246.87 172.497 247.626 171.245C248.382 169.993 248.618 168.883 248.736 172.426C248.854 175.969 248.388 179.594 250.018 178.543C251.647 177.492 253.047 176.618 252.173 174.522C251.299 172.426 249.959 171.316 251.582 172.018C253.206 172.721 252.864 175.047 254.086 173.648C255.308 172.249 257.003 170.731 255.952 169.568C254.901 168.405 255.721 167.064 255.775 166.303C255.828 165.541 254.552 164.496 256.471 164.437C258.39 164.378 260.144 165.488 261.018 163.846C261.892 162.205 262.648 161.75 261.366 161.921C260.085 162.093 258.627 163.203 257.823 162.972C257.02 162.742 259.282 161.514 261.201 161.166C263.12 160.817 261.319 160.292 263.185 160.233C265.051 160.174 267.265 160.699 267.318 159.477C267.371 158.255 265.629 156.914 264.956 157.322C264.283 157.729 263.775 157.322 263.846 156.212C263.917 155.102 265.246 154.44 265.771 153.124C266.297 151.807 268.57 149.658 269.208 149.262C269.845 148.866 272.16 150.23 272.609 148.542C273.057 146.853 273.152 146.18 273.465 146.05C273.778 145.92 274.646 146.481 275.177 145.418C275.708 144.355 276.47 142.011 276.624 143.647C276.777 145.282 276.234 145.578 277.687 144.338C279.139 143.098 279.682 141.545 279.765 142.566C279.848 143.588 280.355 144.279 280.946 143.576C281.536 142.873 281.471 144.609 280.615 144.757C279.759 144.904 278.147 142.985 278.295 144.875C278.442 146.764 277.639 145.465 277.456 147.077C277.273 148.689 277.273 152.208 279.293 150.496C281.312 148.784 280.975 147.544 282.387 146.481C283.555 145.682 284.781 144.969 286.053 144.349L288.209 141.716C288.209 141.716 289.809 140.7 287.972 140.7C286.136 140.7 286.709 140.387 285.274 140.866C283.839 141.344 283.154 141.214 282.387 140.529C281.619 139.844 281.796 139.608 280.143 139.691C278.49 139.773 278.236 140.063 277.45 137.553C276.665 135.044 279.222 135.221 276.665 135.05C274.108 134.878 274.333 134.991 272.821 135.487C271.31 135.983 270.725 135.575 271.711 134.754C272.697 133.934 273.925 134.347 275.254 133.703C276.582 133.06 278.743 133.296 277.439 131.719C276.496 130.713 275.253 130.038 273.896 129.795L268.765 131.95L265.618 134.766C265.618 134.766 263.929 136.992 262.937 138.309C261.945 139.626 260.315 140.748 261.248 139.118C262.181 137.488 263.462 134.867 264.791 133.467C265.898 132.398 267.065 131.392 268.286 130.456C269.509 129.387 269.391 126.706 271.144 126.417C272.898 126.128 274.551 126.299 277.639 125.951C280.727 125.602 284.3 125.36 285.404 124.77C286.508 124.179 286.656 123.217 287.087 122.13C287.518 121.044 287.553 121.239 289.283 120.831C291.013 120.424 291.013 118.405 291.013 117.395C291.013 116.385 289.141 115.995 288.834 114.673C288.527 113.35 288.947 112.264 287.961 112.961C286.975 113.657 287.287 115.37 286.744 114.673C286.201 113.976 287.6 112.034 285.658 112.5C283.715 112.966 284.648 112.27 282.782 114.443C280.916 116.615 279.789 116.214 280.934 114.443C282.08 112.671 284.477 111.62 285.268 111.248C286.059 110.876 283.792 110.41 281.383 110.02C279.7 109.774 278.116 109.074 276.801 107.995C276.256 107.612 275.6 107.421 274.935 107.452C274.705 107.452 274.315 106.595 271.906 104.346C269.497 102.096 266.391 99.1379 264.82 97.4314C263.25 95.725 262.955 93.1565 262.565 95.5656C262.175 97.9746 263.498 99.1379 261.945 99.994C260.392 100.85 260.994 101.317 259.489 101.765C257.983 102.214 258.508 101.919 257.233 101.452C255.958 100.986 254.641 101.996 254.564 100.986C254.487 99.9763 257.127 101.376 254.794 99.1201C252.462 96.8646 253.826 98.1577 253.885 96.4335C253.944 94.7094 250.62 94.4909 248.677 94.0245C246.735 93.558 247.744 92.5483 245.105 92.3948C243.421 92.3106 241.747 92.0775 240.104 91.6981C239.431 91.5445 234.925 90.6884 234.925 90.6884C234.925 90.6884 233.213 88.5155 233.154 91.1548C233.095 93.7942 233.077 94.0304 233.077 95.1168C233.077 96.2033 234.365 97.8152 234.365 97.8152C234.365 97.8152 236.012 96.6343 236.36 97.5849C236.709 98.5356 233.561 99.0434 232.747 99.622C231.932 100.201 231.524 99.7992 233.272 101.193C235.02 102.586 236.537 102.964 236.945 103.814C237.352 104.665 238.055 106.265 238.055 106.265C238.055 106.265 239.862 107.546 238.929 107.664C237.996 107.782 238.173 108.072 236.892 109.819C235.798 111.312 234.303 112.465 232.581 113.144C231.3 113.61 231.123 113.734 231.589 115.358C232.056 116.982 233.455 116.757 233.745 118.275C234.034 119.792 233.207 118.865 234.335 120.861L235.457 122.857C235.457 122.857 234.276 121.717 234.979 123.347C235.681 124.976 235.569 126.258 234.63 124.746C233.691 123.235 234.164 122.762 233.349 123.565C232.534 124.368 232.416 124.498 233.119 125.602C233.821 126.706 234.636 128.631 233.815 127.527C232.995 126.423 232.941 125.165 231.66 125.72C230.379 126.275 229.505 127.368 228.92 127.244C228.336 127.12 228.98 125.602 228.98 125.602L230.09 123.329L228.283 121.871C228.283 121.871 225.59 122.626 226.559 121.463C227.527 120.3 225.891 119.946 225.378 119.946C224.864 119.946 223.163 118.664 224.504 118.664C225.844 118.664 226.009 118.782 226.57 117.85C227.131 116.917 226.139 115.694 225.732 114.933C225.325 114.171 226.139 112.37 224.392 112.37C222.644 112.37 219.668 112.837 219.077 112.429C218.487 112.022 217.56 111.03 216.22 110.658C214.879 110.286 213.132 110.835 212.488 110.888C211.844 110.941 212.258 109.914 211.791 109.323C211.325 108.733 209.636 108.207 209.17 108.142C208.703 108.077 207.947 107.965 207.947 107.965C207.583 107.796 207.277 107.523 207.067 107.181C206.857 106.838 206.752 106.442 206.766 106.04C206.766 104.582 205.774 103.242 204.901 104.056C204.322 104.613 203.778 105.205 203.271 105.828C203.271 105.828 201.464 103.377 201.7 102.332C201.936 101.287 202.922 101.807 202.922 100.561C202.922 99.315 203.041 100.443 204.033 98.8722C205.025 97.3015 205.137 95.8431 206.831 96.0734C208.526 96.3036 209.63 96.5989 209.748 94.302C209.866 92.0051 210.097 89.4661 211.52 88.5332C212.943 87.6003 211.75 88.6513 213.557 87.3523C215.363 86.0533 216.586 85.4274 215.423 85.079C214.259 84.7306 213.498 85.4864 212.624 84.6716C211.75 83.8567 210.262 83.2131 212.216 83.3903C214.171 83.5674 215.133 84.7897 216.06 84.5003C217.055 84.0407 217.903 83.3153 218.511 82.4042C218.741 81.9378 219.036 82.6345 219.562 81.9968C220.087 81.3591 219.68 80.7745 221.02 81.4063C222.36 82.0381 222.886 82.2212 222.945 81.117C223.004 80.0128 224.344 79.6586 224.344 78.7552C224.344 77.8518 223.234 78.4658 222.827 76.8893C222.419 75.3128 221.894 74.0315 221.256 73.6241C220.619 73.2167 219.739 72.2837 218.806 72.9805C217.873 73.6772 217.347 73.7363 217.525 74.6692C217.605 75.3252 217.505 75.9908 217.235 76.5941C216.67 77.0113 216.144 77.4798 215.665 77.9935C214.555 79.0976 214.732 81.3709 213.799 78.8083C212.866 76.2457 213.102 75.3128 212.169 75.0766C211.631 74.8553 211.032 74.8343 210.48 75.0176C209.666 75.1947 209.607 75.1356 208.384 75.0176C207.162 74.8995 206.696 74.2027 206.577 75.0766C206.459 75.9505 206.518 76.848 206.985 76.9425C207.451 77.0369 206.867 77.2967 205.467 77.9935C204.77 78.3237 204.106 78.7191 203.483 79.1744C203.483 79.1744 205.113 80.1073 204.127 80.6328C203.141 81.1583 203.312 81.4477 202.787 81.1583C202.261 80.869 201.216 80.3435 201.677 79.387C201.861 78.8871 202.116 78.416 202.432 77.9876C203.129 76.9366 204.003 76.4701 204.062 76.1808C204.121 75.8914 203.418 75.0707 202.291 74.4094C201.163 73.7481 200.425 72.638 199.551 73.4174C198.854 73.9374 198.192 74.5015 197.567 75.1061C197.337 75.4545 198.789 75.3364 199.338 75.5135C199.888 75.6907 200.271 76.8539 200.271 76.8539C200.245 77.049 200.167 77.2334 200.044 77.3873C199.921 77.5412 199.759 77.6589 199.575 77.7278C198.931 77.9639 197.945 78.4245 197.945 78.4245C197.945 78.4245 199.285 79.5346 196.315 78.3064C193.345 77.0783 192.353 76.1512 189.82 74.8699C187.287 73.5886 187.199 72.3664 186.496 73.5886C185.793 74.8109 187.139 75.0471 185.156 75.36C183.172 75.673 182.941 75.4781 182.475 76.2339C182.151 76.8545 181.933 77.5252 181.831 78.2178L181.713 79.2689C181.713 79.2689 181.016 80.3199 180.78 80.3789C180.362 80.3749 179.953 80.2542 179.599 80.0306C179.369 79.8534 180.007 78.5131 180.007 78.2238C179.777 77.6051 179.484 77.0115 179.133 76.4524C179.133 76.4524 178.318 74.9939 177.267 75.2301C176.342 75.4008 175.407 75.5172 174.468 75.5785C174.468 75.5785 171.61 74.6456 171.788 74.2382C171.965 73.8307 173.559 73.8307 173.417 73.5414C173.275 73.2521 173.884 72.9214 172.018 72.7089C170.152 72.4963 167.294 71.7346 167.294 70.347C167.294 68.9594 166.19 68.7764 164.554 68.8295C162.919 68.8827 164.495 67.3711 162.57 68.0147C160.646 68.6583 159.713 67.8553 159.713 67.8553C159.713 67.8553 160.409 67.0818 157.557 67.1408C154.706 67.1999 155.633 67.318 154.351 67.7844C153.07 68.2509 153.011 67.8966 152.893 67.1408C152.775 66.385 151.493 66.1548 150.62 66.2669C150.038 66.3733 149.495 66.6344 149.049 67.0227C148.964 66.1915 148.706 65.3872 148.293 64.6609C147.537 63.1434 148.523 63.5508 146.835 63.0312C145.146 62.5116 143.339 61.6909 144.502 61.0473C145.666 60.4037 147.709 59.1224 146.309 58.1363C144.91 57.1502 145.199 56.9554 142.873 57.4927C140.546 58.03 139.785 57.0262 138.97 58.1363C138.155 59.2464 139.088 59.1283 136.608 60.0612C134.128 60.9941 134.683 60.4686 133.52 62.0983C132.357 63.728 132.298 64.2535 131.949 63.6158C131.601 62.9781 132.179 61.1654 133.29 59.8841C133.99 58.9961 134.606 58.0453 135.132 57.0439C132.951 58.1304 130.798 59.266 128.672 60.4509C128.135 60.8602 127.773 61.4569 127.657 62.1219C127.344 64.3775 128.837 65.4108 127.113 65.7473C125.389 66.0839 124.858 67.3298 123.925 67.4065C122.992 67.4833 123.612 66.7098 121.362 66.5504C120.246 66.4736 119.679 66.2433 119.036 66.2374C115.572 68.4851 112.198 70.8469 108.915 73.3229C110.687 75.484 110.521 77.1078 110.521 77.1078L106.229 79.9951L100.525 81.613C100.525 81.613 102.509 83.3076 106.01 82.4574C109.512 81.6071 111.608 77.5211 111.49 79.1567C111.372 80.7923 109.394 81.5658 108.343 82.6994C107.292 83.8331 111.956 82.3097 112.889 81.1406C113.822 79.9715 114.873 75.6612 116.154 76.5941C116.941 77.1994 117.48 78.0705 117.672 79.0445L115.688 81.0284L118.605 82.4633L122.915 84.7601C122.915 84.7601 123.145 84.7601 122.915 86.0414C122.685 87.3227 121.905 87.5944 122.295 88.1022C122.685 88.61 122.638 88.5686 121.923 89.7318C121.257 90.7023 120.654 91.714 120.116 92.7609C119.963 93.2687 120.931 93.5757 121.244 92.7609C121.557 91.946 122.1 90.7769 122.1 90.7769C122.1 90.7769 123.576 88.0962 123.925 88.4151C124.203 88.7472 124.413 89.1303 124.545 89.5429L123.364 92.3771C123.364 92.3771 123.246 93.1152 123.092 93.8119C122.939 94.5086 123.169 94.6681 122.779 94.9928C122.39 95.3176 121.533 93.9064 122.39 95.3058C123.246 96.7052 122.933 96.7052 122.39 97.3251C121.846 97.9451 121.256 98.1046 121.941 98.7245C122.626 99.3445 123.553 97.7916 123.943 98.2581C124.332 98.7245 124.799 98.3348 124.563 99.2678C124.326 100.201 125.543 100.744 124.627 101.287C123.712 101.83 122.425 100.508 121.941 100.667C121.457 100.827 121.226 100.773 121.067 101.423C120.908 102.072 120.37 102.379 121.067 102.846C121.764 103.312 120.913 103.932 120.837 104.399C120.76 104.865 124.97 103.076 123.399 104.399C121.829 105.721 121.533 105.798 121.067 107.038C120.601 108.278 119.744 109.371 120.754 109.371C121.764 109.371 122.525 107.971 123.163 107.971C123.801 107.971 123.37 108.668 122.608 109.371C121.846 110.073 120.524 109.294 120.057 110.303C119.767 110.998 119.28 111.593 118.658 112.016C117.961 112.636 118.038 112.795 118.971 113.569C119.904 114.342 122.266 113.256 121.923 113.569C121.581 113.882 121.185 113.882 120.742 114.384C120.299 114.885 119.809 115.606 120.648 115.47C121.296 115.419 121.92 115.197 122.455 114.826C122.844 114.496 124.067 113.775 123.405 114.555C122.744 115.334 122.26 115.098 122.354 115.736C122.449 116.373 122.703 115.931 122.626 116.551C122.549 117.171 122.549 117.56 122.856 117.731C123.08 117.761 123.309 117.73 123.517 117.641C123.725 117.551 123.904 117.407 124.037 117.224C124.191 116.911 124.97 116.757 124.58 117.377C124.191 117.997 123.399 118.464 123.765 119.09C124.131 119.715 124.462 120.217 124.462 120.217L123.954 121.463L123.801 123.601C123.553 124.636 123.215 125.647 122.791 126.624C122.248 127.71 121.392 130.113 121.392 130.113H120.305L120.536 126.122C120.536 126.122 120.146 123.76 119.916 123.506C119.685 123.252 119.136 123.051 118.735 123.831C118.47 124.399 118.262 124.993 118.115 125.602C118.158 126.128 118.049 126.654 117.802 127.12C117.492 127.74 117.283 128.406 117.182 129.092C117.182 129.092 115.629 129.765 114.696 132.174C113.763 134.583 113.155 134.571 112.682 136.591C112.21 138.61 112.99 139.773 111.124 140.937C109.258 142.1 108.951 141.397 108.402 143.576C107.853 145.755 108.715 145.908 107.705 147.851C106.695 149.793 106.075 149.793 105.934 151.423C105.792 153.053 105.142 154.653 105.148 155.987C105.154 157.322 104.133 158.414 105.148 159.347C106.164 160.28 105.621 160.203 106.164 160.28C106.707 160.357 106.554 159.66 107.64 160.28C108.726 160.9 109.583 160.05 108.726 160.9C107.87 161.75 107.545 162.146 107.545 162.146C107.545 162.146 107.002 161.526 106.766 162.612C106.53 163.699 105.52 163.61 105.68 164.159C105.954 164.712 106.322 165.213 106.766 165.641C106.766 165.641 104.9 165.795 105.833 167.661C106.766 169.527 106.613 169.137 106.613 170.613C106.603 171.458 106.735 172.298 107.002 173.099L108.325 175.325L109.506 176.825C109.506 176.825 108.496 176.901 110.285 178.147C112.074 179.393 111.915 176.966 112.381 179.777C112.655 181.079 112.762 182.41 112.7 183.739L113.958 185.369C114.287 186.316 114.412 187.322 114.324 188.321C114.247 190.275 114.324 189.035 114.324 191.444C114.324 193.854 114.324 194.397 115.257 196.026C116.19 197.656 118.286 198.436 118.676 199.368C118.943 200.303 119.074 201.272 119.065 202.244C119.065 202.244 119.142 202.941 119.378 204.11C119.614 205.279 119.225 204.966 118.197 203.797C117.17 202.628 116.332 203.95 116.332 203.95C116.291 204.325 116.341 204.703 116.476 205.055C116.612 205.406 116.829 205.72 117.111 205.97C118.121 207.056 119.833 208.845 119.833 208.845C119.833 208.845 120.453 208.379 120.919 210.398C121.386 212.418 121.888 211.874 121.87 213.504C121.852 215.134 121.232 217.236 123.872 219.409C126.511 221.582 125.118 220.655 126.204 223.14C126.922 224.991 128.099 226.628 129.623 227.9C130.709 228.738 133.974 232.192 131.955 227.9C129.936 223.607 128.879 223.855 128.005 222.408C127.131 220.962 128.07 219.409 126.824 215.523C125.578 211.638 123.559 207.771 123.092 205.043C122.626 202.315 122.779 199.546 120.76 194.946C118.741 190.346 117.495 187.707 119.361 188.947C121.226 190.187 123.559 188.014 123.712 190.659C123.866 193.304 124.025 197.266 124.025 197.266C124.025 197.266 124.025 197.963 125.738 201.99C127.45 206.017 128.536 206.188 129.31 206.962C130.083 207.735 130.709 210.227 130.709 210.227C130.709 210.227 134.128 211.626 134.128 212.866C134.128 214.106 132.729 213.486 134.128 216.132C135.527 218.777 133.662 216.598 135.527 218.771C136.706 220.169 137.746 221.678 138.633 223.276L143.469 229.382C143.538 230.475 143.857 231.537 144.402 232.487C145.335 234.2 146.947 234.058 145.896 235.345C144.845 236.632 143.445 236.975 144.124 237.382C144.803 237.79 144.998 238.026 144.473 238.492C143.947 238.959 145.772 240.854 146.551 243.216C147.331 245.578 148.417 245.779 149.893 247.178C150.888 248 151.685 249.035 152.226 250.207C153.159 251.837 151.995 250.597 155.024 251.683C158.053 252.77 159.299 254.323 159.996 254.789C160.693 255.256 162.134 255.568 167.147 258.131C172.16 260.694 173.559 261.975 176.003 262.796C178.448 263.616 178.802 264.662 180.668 264.195C182.534 263.729 183.467 262.678 184.63 263.262C185.793 263.847 185.097 265.24 186.726 264.307C188.356 263.374 188.592 263.528 189.058 264.62C189.525 265.713 192.554 267.691 192.554 267.691C192.554 267.691 190.222 268.742 194.072 271.068C197.614 273.2 200.992 274.93 202.267 274.611C202.314 274.823 202.669 275.142 203.507 275.632C207.121 277.728 208.172 279.128 209.105 280.179C210.038 281.23 210.734 283.444 210.622 284.141C210.51 284.838 210.852 285.77 212.14 286.355C213.427 286.94 215.169 286.585 216.568 287.536C217.967 288.487 216.22 288.817 218.782 289.986C220.029 290.615 221.366 291.047 222.744 291.268L224.144 290.677L227.875 291.268C227.875 291.268 229.505 292.201 229.647 292.897C229.788 293.594 228.832 294.179 230.237 294.763C230.6 294.942 230.999 295.035 231.403 295.035C231.808 295.035 232.207 294.942 232.569 294.763C232.569 294.763 236.183 294.173 235.48 292.897C234.778 291.622 232.215 291.846 234.081 290.683C235.947 289.52 236.762 289.053 237.577 288.587C238.391 288.121 238.758 287.772 240.139 289.177C241.521 290.583 242.353 288.947 241.539 290.577C240.724 292.207 240.671 292.673 241.863 292.791C242.595 292.871 243.291 293.153 243.871 293.606C243.871 293.606 245.388 294.238 245.388 295.029C245.388 295.82 244.207 295.584 244.337 296.635C244.467 297.686 242.708 297.332 243.523 298.406C244.337 299.481 242.826 299.924 243.404 301.087C243.983 302.25 242.224 302.368 243.523 304.004C244.822 305.639 243.989 307.033 241.657 307.736C239.324 308.438 240.257 306.555 238.976 309.017C237.695 311.479 238.043 311.58 236.957 311.892C235.508 312.428 234.105 313.078 232.758 313.835C230.893 314.768 231.129 312.902 230.196 315.606C229.263 318.311 230.196 318.328 228.33 319.881C226.464 321.434 226.777 323.223 226.777 323.223C226.777 323.223 233.863 322.367 231.052 324.156C228.241 325.945 228.176 326.252 227.48 327.032C227.025 327.544 226.609 328.089 226.234 328.662L224.988 330.917L224.675 333.556C224.675 333.556 225.295 333.013 227.397 334.413C229.499 335.812 229.96 335.889 230.273 336.355C231.29 338.214 232.573 339.915 234.081 341.404C235.419 342.828 236.86 344.152 238.391 345.366C239.442 346.18 240.488 345.832 240.375 347.232C240.263 348.631 240.145 348.046 242.826 348.861C245.506 349.676 247.254 350.491 249.12 350.491C250.986 350.491 255.296 351.188 256.578 351.188C257.859 351.188 258.674 351.069 257.859 352.002C257.044 352.935 255.527 356.431 253.549 358.415C251.57 360.399 250.986 361.562 248.187 362.495C245.388 363.428 243.759 364.266 242.011 364.827C240.263 365.388 239.106 367.951 239.1 367.974C263.966 363.343 287.442 353.079 307.728 337.971C328.013 322.862 344.57 303.309 356.129 280.811L352.74 281.265L347.845 284.944ZM265.364 109.642C265.954 109.329 266.722 110.032 267.306 110.498C267.632 110.83 268.065 111.035 268.528 111.078C268.99 111.12 269.453 110.996 269.833 110.729C271.014 110.032 271.735 110.457 272.904 110.959C274.073 111.461 272.75 112.01 271.233 112.589C269.715 113.167 270.961 113.132 269.603 113.132C268.245 113.132 269.178 113.87 268.747 114.454C268.316 115.039 267.23 113.273 265.641 111.969C264.053 110.664 264.118 110.309 265.364 109.642ZM206.908 135.983C211.455 134.465 210.404 133.361 213.084 135.428C215.765 137.494 217.046 136.231 217.395 138.321C217.743 140.411 220.772 142.188 220.772 142.188L224.97 142.98L231.265 144.296C231.265 144.296 233.172 144.958 233.597 146.428C234.022 147.898 235.368 148.506 232.782 148.483C230.841 148.375 228.921 148.016 227.072 147.414C227.072 147.414 226.423 148.004 226.511 150.561C226.6 153.118 227.769 152.657 226.021 154.175C224.274 155.692 220.193 156.973 223.341 156.855C226.488 156.737 228.932 155.084 230.332 156.041C231.731 156.997 232.652 154.86 234.057 154.759C235.463 154.659 233.827 153.696 235.575 152.397C237.323 151.098 237.5 150.189 240.092 150.425C242.684 150.661 242.218 149.835 244.668 149.835C247.118 149.835 249.096 151.919 245.849 152.391C242.601 152.864 242.117 152.279 239.555 153.33C236.992 154.381 236.992 152.74 236.407 155.102C235.823 157.464 238.037 157.086 234.89 158.249C231.743 159.412 233.491 158.544 229.877 159.093C226.263 159.642 227.078 159.879 224.167 159.648C221.256 159.418 218.806 159.418 220.205 157.198C221.605 154.978 225.218 155.798 224.403 153.236C223.589 150.673 222.419 151.022 220.79 151.606C219.16 152.191 221.546 149.433 221.575 148.483C221.605 147.532 220.672 146.322 218.924 145.991C217.176 145.66 217.153 144.042 215.659 146.428C214.165 148.813 214.141 147.107 213.563 148.483C212.984 149.858 212.63 148.329 212.63 152.415C212.63 156.501 213.444 159.011 209.949 159.737C206.453 160.463 206.105 154.736 207.617 152.415C209.128 150.095 210.528 148.388 208.668 148.483C206.808 148.577 208.786 145.158 210.882 144.769C212.978 144.379 213.911 144.562 215.659 144.296C217.406 144.031 218.806 144.261 219.036 143.8C219.266 143.34 217.17 140.889 215.074 141.297C212.978 141.704 214.608 141.887 211.927 142.194C209.246 142.501 206.684 142.052 207.38 141.297C208.077 140.541 208.709 140.541 206.79 139.838C204.871 139.136 206.932 135.983 206.932 135.983H206.908ZM190.552 118.062C191.875 117.861 190.706 117.023 190.942 115.7C191.178 114.378 192.418 115.004 195.14 115.08C195.14 115.08 195.607 116.013 194.361 116.326C193.115 116.639 193.741 116.869 193.428 117.649C193.115 118.428 193.115 118.428 193.038 120.058C192.961 121.688 192.885 122 193.894 123.323C194.904 124.646 194.438 124.646 194.827 127.256C195.217 129.865 193.646 128.608 192.028 128.997C190.411 129.387 192.029 128.997 191.94 127.675C191.851 126.352 192.412 125.502 191.485 123.677C190.558 121.853 190.009 123.016 189.856 121.693C189.702 120.371 190.322 120.371 189.2 119.284C188.078 118.198 189.253 118.269 190.576 118.068L190.552 118.062ZM186.419 118.109C186.419 118.109 187.742 120.052 186.809 120.849C185.876 121.646 186.112 122.461 187.352 123.081C188.592 123.701 188.828 123.471 188.362 124.634C187.895 125.797 188.751 126.187 189.141 128.206C189.531 130.226 187.37 129.062 187.37 127.244C187.37 125.425 186.673 125.88 185.504 124.947C184.335 124.014 184.417 123.547 184.671 122.615C184.925 121.682 185.114 121.215 183.561 119.662C182.008 118.109 183.349 117.956 186.455 118.115L186.419 118.109ZM181.016 104.859C181.194 102.704 180.715 103.129 182.888 103.46C183.65 103.578 184.341 104.157 183.638 106.318C182.935 108.479 182.587 107.133 180.686 108.243C178.784 109.353 180.881 107.015 181.058 104.865L181.016 104.859ZM140.399 157.31C139.407 159.583 139.289 158.361 137.015 158.532C134.742 158.703 137.015 157.351 137.015 154.281C137.015 151.211 136.726 152.208 139.926 152.067C141.314 152.014 141.426 155.043 140.44 157.316L140.399 157.31ZM156.229 79.263C156.229 79.263 157.162 78.9736 159.553 78.4481C161.945 77.9226 159.961 78.0998 158.544 77.4562C157.126 76.8126 157.457 77.279 154.41 76.8657C151.364 76.4524 156.625 76.3402 159.654 76.2221C162.683 76.104 160.48 76.0981 163.557 76.5705C164.737 76.7594 163.438 77.7927 165.127 78.3773C166.816 78.9618 165.127 78.7847 165.127 79.7176C165.127 80.6505 164.484 80.8277 163.031 79.8948C161.578 78.9618 161.85 79.8948 161.401 80.3022C160.953 80.7096 159.039 82.168 159.039 82.168C157.737 81.7295 156.478 81.1721 155.278 80.5029C153.784 79.5759 156.229 79.263 156.229 79.263ZM172.171 88.5863C171.297 88.6454 170.831 89.2831 169.721 90.4522C168.611 91.6213 167.95 91.6331 166.692 91.6331C165.434 91.6331 165.174 91.8634 162.204 92.6841C159.234 93.5049 160.167 93.0325 158.591 91.9874C157.014 90.9423 156.725 90.8773 156.554 90.3577C156.382 89.8381 158.916 90.4758 159.76 89.9503C160.451 89.4243 161.078 88.8178 161.626 88.1435C161.626 88.1435 161.035 86.3721 162.677 85.9293C163.415 85.7167 163.202 86.685 163.728 87.9132C164.253 89.1414 164.779 89.72 166.68 89.5193C168.581 89.3185 168.894 88.3383 171.575 88.0313C174.256 87.7243 173.075 88.545 172.201 88.604L172.171 88.5863ZM202.875 274.18C203.802 273.406 205.036 272.556 205.143 273.501C205.243 274.074 203.785 274.044 202.917 274.197L202.875 274.18Z" fill="#FD3E72"/>
<path d="M293.014 120.006C292.122 120.372 291.833 120.939 291.738 121.931C291.652 122.568 291.494 123.195 291.266 123.796L290.799 125.196C290.959 125.41 291.068 125.659 291.118 125.921C291.168 126.184 291.158 126.455 291.089 126.713C290.904 127.258 290.807 127.827 290.799 128.402C290.799 128.402 289.914 128.55 289.742 128.992C289.571 129.435 287.971 128.308 289.317 129.825C290.664 131.342 290.445 130.864 290.156 131.596C289.866 132.329 290.386 133.285 291.266 132.996C292.146 132.706 290.563 132.057 293.799 132.405C297.035 132.754 297.442 130.982 297.737 131.738C298.033 132.494 298.156 132.553 298.588 131.968C299.019 131.384 300.879 130.51 299.981 131.679C299.084 132.848 297.401 134.041 298.588 134.277C299.774 134.513 301.64 133.828 301.292 132.405C300.943 130.982 301.292 129.453 301.817 130.982C302.343 132.512 301.758 133.781 302.998 133.663C304.238 133.545 304.409 133.964 305.094 134.33C305.779 134.696 307.078 134.767 306.204 133.078C305.331 131.39 305.915 129.235 304.982 130.167C304.049 131.1 302.998 131.39 302.532 129.937C302.065 128.485 302.183 128.42 301.251 127.605C300.318 126.79 301.888 125.332 299.993 125.273C298.097 125.214 297.926 126.79 296.763 126.087C295.6 125.385 295.582 124.05 294.755 125.036C293.929 126.022 293.267 127.132 292.86 126.259C292.453 125.385 291.638 125.639 292.216 124.434C292.795 123.23 294 119.61 293.014 120.006Z" fill="#FD3E72"/>
<path d="M245.533 217.105C245.019 217.5 245.037 218.717 245.533 219.437C246.029 220.157 246.507 219.927 246.779 220.524C247.092 221.22 246.478 221.704 246.779 222.543C246.944 223.015 247.369 223.564 247.788 223.553C248.438 223.553 248.857 222.23 249.034 221.687C249.382 220.906 249.462 220.032 249.265 219.201C248.698 217.512 246.312 216.508 245.533 217.105Z" fill="#FD3E72"/>
<path d="M241.092 219.515C241.259 219.435 241.441 219.39 241.627 219.382C241.813 219.374 241.998 219.404 242.172 219.469C242.346 219.534 242.505 219.633 242.64 219.76C242.775 219.888 242.883 220.041 242.957 220.212C243.083 220.523 243.089 220.87 242.975 221.186C242.861 221.502 242.634 221.765 242.337 221.924C242.097 222.04 241.827 222.08 241.564 222.038C241.3 221.997 241.055 221.877 240.861 221.694C240.719 221.542 240.611 221.362 240.545 221.164C240.479 220.967 240.456 220.758 240.477 220.552C240.499 220.345 240.565 220.145 240.671 219.966C240.777 219.787 240.921 219.633 241.092 219.515Z" fill="#FD3E72"/>
<path d="M244.655 225.031C245.003 225.031 245.245 225.51 245.588 226.277C246.137 227.423 246.521 228.22 246.131 228.916C245.922 229.285 245.588 229.566 245.189 229.709C244.79 229.852 244.354 229.847 243.958 229.696C243.149 229.283 243.173 228.09 243.179 227.677C243.202 226.378 244.005 224.978 244.655 225.031Z" fill="#FD3E72"/>
<path d="M250.037 223.715C249.276 223.768 248.496 224.453 248.561 224.961C248.626 225.469 249.713 225.487 250.114 226.437C250.315 226.904 250.149 227.14 250.427 227.447C250.613 227.643 250.859 227.772 251.126 227.814C251.393 227.856 251.666 227.808 251.903 227.677C252.423 227.323 252.328 226.496 252.293 226.201C252.133 225.062 251.206 223.633 250.037 223.715Z" fill="#FD3E72"/>
<path d="M251.427 230.422C251.216 230.579 251.062 230.801 250.992 231.055C250.921 231.309 250.937 231.578 251.038 231.822C251.227 232.359 251.829 232.843 252.36 232.678C252.625 232.532 252.826 232.294 252.926 232.009C253.026 231.724 253.017 231.412 252.902 231.133C252.786 230.854 252.572 230.628 252.3 230.496C252.028 230.365 251.718 230.339 251.427 230.422Z" fill="#FD3E72"/>
<path d="M255.393 230.86C254.838 231.096 254.803 232.2 254.85 232.631C254.864 232.999 254.962 233.359 255.137 233.682C255.312 234.006 255.56 234.285 255.86 234.497C255.978 234.568 256.763 235.017 257.336 234.651C257.909 234.285 257.82 233.216 257.802 233.098C257.619 231.752 256.114 230.553 255.393 230.86Z" fill="#FD3E72"/>
<path d="M262.209 239.015C261.241 239.192 260.255 240.113 260.438 240.958C260.568 241.607 261.318 241.914 261.448 241.967C261.863 242.137 262.321 242.168 262.755 242.056C263.189 241.944 263.575 241.696 263.857 241.347C264.049 241.111 264.173 240.826 264.214 240.524C264.254 240.221 264.21 239.914 264.087 239.635C263.68 238.95 262.735 238.92 262.209 239.015Z" fill="#FD3E72"/>
<path d="M214.672 242.284C214.412 241.169 218.486 239.025 221.976 237.933C225.299 236.942 228.776 236.574 232.232 236.846C234.909 237.013 237.564 237.432 240.162 238.098C243.911 238.96 245.783 239.391 247.312 240.118C247.892 240.434 248.524 240.644 249.178 240.737C250.566 240.909 251.115 240.348 251.977 240.737C252.715 241.068 252.497 241.564 253.377 242.29C254.284 242.947 255.363 243.325 256.482 243.377C258.071 243.572 258.667 243.2 259.122 243.69C259.337 244.011 259.451 244.389 259.451 244.776C259.451 245.163 259.337 245.541 259.122 245.863C258.407 247.008 256.665 247.044 255.083 247.109C248.051 247.486 245.128 249.193 244.207 247.729C243.528 246.648 244.655 244.983 243.894 244.463C243.232 244.015 242.252 245.201 241.095 244.776C240.091 244.404 240.298 243.318 239.229 242.603C238.639 242.19 238.202 242.326 235.344 242.45C232.138 242.592 231.423 242.45 230.679 242.137C229.935 241.824 230.089 241.659 228.967 241.05C227.845 240.442 225.796 239.598 225.395 240.118C225.111 240.484 225.814 241.251 225.548 241.517C225.282 241.783 224.025 240.507 222.442 240.584C221.734 240.619 221.746 240.903 219.644 241.983C217.541 243.064 216.792 243.164 216.225 243.07C216.071 243.04 214.808 242.863 214.672 242.284Z" fill="#FD3E72"/>
<path d="M261.729 245.185C262.402 244.223 264.138 245.262 267.321 244.955C269.582 244.736 269.741 244.116 272.564 243.904C273.694 243.751 274.843 243.829 275.941 244.134C277.234 244.565 277.217 245.026 278.858 245.764C280.73 246.608 281.81 246.478 282.005 247.163C282.165 247.695 281.704 248.397 281.19 248.793C279.673 249.974 277.99 248.202 275.132 249.141C274.312 249.401 274.188 249.631 273.036 249.956C271.625 250.358 271.07 250.228 270.586 250.771C270.19 251.214 270.397 251.479 269.889 252.542C269.505 253.328 269.299 253.723 268.956 253.942C267.858 254.627 266.642 252.897 264.061 252.891C262.798 252.891 262.532 253.298 261.611 253.009C260.217 252.566 259.249 251.113 259.515 250.676C259.78 250.239 261.51 251.385 263.01 250.676C264.191 250.086 265.077 248.751 264.782 248.114C264.41 247.37 262.644 248.114 261.871 247.063C261.667 246.798 261.545 246.479 261.52 246.145C261.494 245.812 261.567 245.478 261.729 245.185Z" fill="#FD3E72"/>
<path d="M246.817 53.9293C244.898 54.254 243.652 53.9765 240.989 54.5197C240.095 54.6223 239.268 55.0412 238.656 55.7007C238.243 56.2084 238.355 56.4742 237.96 56.8816C237.015 57.8027 235.598 57.1355 235.279 57.6964C234.96 58.2573 236.395 59.6744 237.263 60.4952C238.29 61.4694 238.798 61.9536 239.359 62.1248C241.066 62.6563 241.963 61.2215 244.254 61.4281C245.111 61.5609 245.939 61.8364 246.704 62.2429C248.382 63.0226 249.981 63.9597 251.481 65.0417C256.158 68.1298 256.66 68.4959 257.657 68.4192C258.442 68.2941 259.245 68.3734 259.99 68.6494C260.137 68.7085 261.419 69.2399 261.389 69.9307C261.36 70.6216 259.795 70.8164 259.76 71.5604C259.76 72.1509 260.675 72.6469 261.277 72.9598C261.879 73.2727 262.582 73.6447 263.261 73.4263C263.94 73.2078 264.088 72.4579 264.542 72.4933C264.855 72.4933 265.032 72.8771 265.723 74.2647L266.538 75.8944C266.916 76.784 267.427 77.6104 268.055 78.3448C268.811 79.0888 269.16 78.9353 270.152 79.7442C270.728 80.2703 271.238 80.8652 271.669 81.5156C273.44 83.7062 276.068 84.7454 276.216 84.5446C276.363 84.3439 275.194 83.4877 275.283 83.3637C275.371 83.2397 277.107 84.4738 279.711 86.2806C283.425 88.8609 284.104 89.2329 285.191 89.5458C286.826 90.0005 286.885 89.5458 288.568 90.1363C290.021 90.6204 290.959 91.264 292.766 91.5357C293.306 91.6165 293.856 91.6165 294.396 91.5357C295.045 91.4412 295.866 91.3172 296.167 90.8389C296.551 90.1776 295.778 89.0675 295.116 88.1582C293.304 85.637 292.081 85.6074 290.918 83.4936C290.251 82.3127 290.528 82.0706 289.867 81.2794C288.686 79.88 287.287 79.8918 287.068 78.829C286.974 78.3684 287.198 77.9374 287.659 77.0576C288.603 75.2862 289.43 75.1917 289.43 74.495C289.43 73.5975 287.83 72.7236 284.653 70.9995C283.431 70.3381 283.018 70.1728 282.669 69.6001C281.984 68.4723 282.705 67.6516 282.203 65.9865C281.896 64.9709 281.057 63.3766 279.989 63.3058C279.699 63.3058 279.51 63.3884 277.072 64.9354C276.269 65.4432 275.962 65.644 275.672 65.5259C275.176 65.3074 275.005 64.2328 275.324 63.4298C275.714 62.4437 276.67 62.302 276.605 61.9123C276.54 61.5226 275.135 61.4104 272.407 60.8613C270.435 60.4657 269.821 60.2177 269.608 59.6803C269.343 59.0367 269.957 58.6057 269.726 57.8145C269.52 57.1177 268.859 56.793 267.63 56.1848C266.255 55.5058 265.215 55.0039 264.017 55.2519C263.102 55.4527 263.031 55.8955 262.387 55.8424C261.46 55.7538 261.206 54.7972 260.055 53.8584C259.261 53.2485 258.347 52.812 257.374 52.5771C255.363 51.9876 253.23 51.9468 251.198 52.459C248.588 52.955 249.06 53.5455 246.817 53.9293Z" fill="#FD3E72"/>
<g style="mix-blend-mode:multiply" opacity="0.31">
<path d="M315.173 78.4419C340.232 108.203 353.949 145.872 353.895 184.778C353.895 276.157 279.816 350.231 188.442 350.231C149.536 350.283 111.866 336.564 82.1064 311.502C97.6158 330.05 117.01 344.964 138.918 355.19C160.826 365.417 184.713 370.706 208.89 370.684C300.27 370.684 374.343 296.605 374.343 205.225C374.366 181.049 369.079 157.163 358.854 135.255C348.63 113.347 333.718 93.9524 315.173 78.4419Z" fill="#E5DCBA"/>
</g>
<g style="mix-blend-mode:overlay" opacity="0.21">
<path d="M56.8691 219.456C56.8691 128.076 130.948 54.0033 222.322 54.0033C262.811 53.9451 301.905 68.7924 332.147 95.7134C316.642 78.1999 297.591 64.1824 276.258 54.5901C254.924 44.9978 231.796 40.0499 208.405 40.0743C117.025 40.0743 42.9519 114.153 42.9519 205.527C42.9275 228.918 47.8754 252.047 57.4677 273.38C67.06 294.714 81.0775 313.765 98.591 329.27C71.6684 299.032 56.8171 259.943 56.8691 219.456Z" fill="white"/>
</g>
<path d="M262.856 61.17C262.856 61.17 262.348 59.9891 261.344 57.9697" stroke="white" stroke-width="2" stroke-miterlimit="10"/>
</g>
<path d="M134.685 92.7592C134.685 13.2116 281.995 24.8321 281.995 78.7057" stroke="#5B5863" stroke-width="2" stroke-dasharray="5 4"/>
<rect x="185.191" y="26.937" width="50.5065" height="16.8355" rx="4" fill="#5B5863"/>
<path d="M209.547 35.8556H205.527C205.345 35.8556 205.206 36.016 205.24 36.1929C205.245 36.2316 205.251 36.2703 205.256 36.309C205.284 36.4639 205.328 36.6132 205.389 36.7625C205.483 36.9892 205.633 37.1882 205.837 37.3652C206.037 37.5421 206.319 37.6251 206.679 37.6251C207.039 37.6251 207.316 37.5366 207.521 37.3652C207.681 37.2269 207.803 37.0721 207.897 36.9062C207.947 36.8178 208.046 36.7625 208.146 36.7625H209.27C209.475 36.7625 209.613 36.9671 209.547 37.1551C209.497 37.2988 209.436 37.4371 209.364 37.5587C209.237 37.7854 209.098 37.9845 208.943 38.1504C208.788 38.3163 208.628 38.4545 208.451 38.5651C208.273 38.6757 208.107 38.7641 207.941 38.836C207.537 38.9908 207.116 39.0738 206.668 39.0738C206.081 39.0627 205.561 38.9411 205.107 38.7088C204.913 38.6038 204.725 38.4711 204.536 38.3107C204.348 38.1504 204.182 37.9458 204.038 37.7025C203.894 37.4592 203.778 37.1661 203.689 36.8233C203.601 36.4805 203.556 36.0879 203.556 35.6289C203.556 35.1755 203.601 34.7774 203.689 34.4345C203.778 34.0917 203.894 33.7987 204.038 33.5498C204.182 33.301 204.348 33.0964 204.536 32.9305C204.725 32.7646 204.913 32.6319 205.107 32.5269C205.555 32.2836 206.07 32.1564 206.651 32.1343C206.662 32.1343 206.673 32.1343 206.685 32.1343C207.161 32.1564 207.604 32.2559 208.019 32.4329C208.196 32.5103 208.373 32.6153 208.55 32.7425C208.727 32.8697 208.894 33.0245 209.049 33.2125C209.204 33.4005 209.336 33.6217 209.453 33.8816C209.569 34.1415 209.658 34.4401 209.707 34.7774C209.724 34.9101 209.741 35.0428 209.752 35.181C209.763 35.3193 209.774 35.4686 209.774 35.6289C209.779 35.6179 209.813 35.8556 209.547 35.8556ZM207.631 34.7663C207.842 34.7663 207.991 34.5451 207.897 34.3571C207.897 34.3571 207.897 34.3516 207.891 34.3516C207.825 34.2134 207.736 34.0862 207.62 33.9701C207.504 33.8595 207.371 33.7655 207.216 33.6991C207.061 33.6328 206.873 33.5996 206.668 33.5996C206.458 33.5996 206.275 33.6328 206.12 33.6991C205.965 33.7655 205.826 33.8539 205.716 33.9701C205.599 34.0862 205.511 34.2078 205.439 34.3516V34.3571C205.345 34.5507 205.494 34.7718 205.705 34.7718H207.631V34.7663Z" fill="white"/>
<path d="M202.753 29.3418C201.867 29.3418 201.153 30.0551 201.153 30.9398V35.568C201.153 35.7615 201.142 35.9551 201.12 36.1597C201.098 36.3587 201.042 36.5412 200.954 36.7071C200.865 36.873 200.732 37.0112 200.555 37.1218C200.378 37.2324 200.123 37.2877 199.802 37.2877C199.481 37.2877 199.226 37.2324 199.049 37.1218C198.872 37.0112 198.739 36.873 198.651 36.7071C198.562 36.5412 198.507 36.3587 198.485 36.1597C198.462 35.9606 198.451 35.7615 198.451 35.568V30.7961C197.566 30.7961 196.851 31.5094 196.851 32.3941V35.5625C196.851 35.756 196.84 35.9495 196.818 36.1541C196.796 36.3532 196.741 36.5357 196.652 36.7016C196.563 36.8674 196.431 37.0057 196.253 37.1163C196.076 37.2269 195.822 37.2821 195.5 37.2821C195.179 37.2821 194.925 37.2269 194.748 37.1163C194.57 37.0057 194.437 36.8674 194.349 36.7016C194.26 36.5357 194.205 36.3532 194.183 36.1541C194.161 35.9551 194.15 35.756 194.15 35.5625V32.2503C193.264 32.2503 192.55 32.9691 192.55 33.8483V35.5625C192.55 36.0159 192.594 36.414 192.682 36.7568C192.771 37.0997 192.882 37.3927 193.015 37.6416C193.153 37.8904 193.308 38.095 193.485 38.2609C193.662 38.4268 193.845 38.5595 194.028 38.6645C194.454 38.9078 194.947 39.0405 195.495 39.0571C196.054 39.0405 196.547 38.9078 196.979 38.6645C197.161 38.5595 197.344 38.4268 197.516 38.2609C197.56 38.2166 197.604 38.1724 197.649 38.1226C197.693 38.1724 197.737 38.2166 197.781 38.2609C197.959 38.4268 198.141 38.5595 198.324 38.6645C198.75 38.9078 199.243 39.0405 199.791 39.0571C200.35 39.0405 200.843 38.9078 201.275 38.6645C201.458 38.5595 201.64 38.4268 201.812 38.2609C201.989 38.095 202.144 37.8904 202.283 37.6416C202.421 37.3927 202.532 37.0997 202.615 36.7568C202.698 36.414 202.737 36.0214 202.737 35.5625L202.753 29.3418Z" fill="white"/>
<path d="M214.623 38.6532C214.578 38.7803 214.462 38.8688 214.324 38.8688H213.482H212.641C212.508 38.8688 212.386 38.7803 212.342 38.6532L210.387 32.6647C210.321 32.4601 210.47 32.2555 210.686 32.2555H211.633C211.766 32.2555 211.888 32.344 211.932 32.4712L213.183 36.2921C213.277 36.5796 213.681 36.5796 213.776 36.2921L214.495 34.0913L215.702 30.3976C215.968 29.5959 216.832 29.1535 217.634 29.4189L214.623 38.6532Z" fill="white"/>
<path d="M222.341 33.5049C222.197 33.2561 222.031 33.0515 221.843 32.8856C221.655 32.7197 221.466 32.587 221.273 32.4819C220.819 32.2387 220.304 32.1059 219.733 32.0894C219.185 32.0894 218.72 32.1723 218.338 32.3327C217.956 32.493 217.641 32.7252 217.392 33.0238C217.142 33.3224 216.965 33.6874 216.849 34.1187C216.738 34.55 216.677 35.0366 216.677 35.584V40.6711C216.677 40.8868 216.849 41.0582 217.065 41.0582H217.84C218.056 41.0582 218.228 40.8868 218.228 40.6711V38.111C218.311 38.2271 218.405 38.3266 218.504 38.4151C218.731 38.6086 218.953 38.7469 219.169 38.8298C219.412 38.9238 219.662 38.9791 219.922 38.9957C219.944 38.9957 219.96 38.9957 219.983 38.9957C220.509 38.9846 220.979 38.863 221.389 38.6307C221.572 38.5257 221.749 38.393 221.92 38.2326C222.092 38.0723 222.241 37.8677 222.38 37.6244C222.513 37.3811 222.623 37.088 222.707 36.7507C222.79 36.4134 222.828 36.0153 222.828 35.5619C222.828 35.1085 222.784 34.7159 222.69 34.373C222.601 34.0413 222.485 33.7482 222.341 33.5049ZM221.173 36.1978C221.14 36.4245 221.068 36.6346 220.963 36.8281C220.857 37.0217 220.708 37.1875 220.514 37.3147C220.32 37.4474 220.06 37.5083 219.739 37.5083C219.418 37.5083 219.158 37.4419 218.964 37.3147C218.77 37.182 218.615 37.0217 218.504 36.8281C218.394 36.6346 218.322 36.4245 218.288 36.1978C218.255 35.9711 218.239 35.7609 218.239 35.5729C218.239 35.3407 218.255 35.1085 218.283 34.8762C218.316 34.644 218.377 34.4394 218.477 34.2514C218.576 34.0634 218.726 33.9141 218.925 33.8035C219.124 33.6929 219.396 33.6321 219.733 33.6321C220.055 33.6321 220.315 33.6984 220.509 33.8256C220.702 33.9583 220.857 34.1187 220.957 34.3122C221.062 34.5057 221.129 34.7214 221.167 34.9426C221.201 35.1693 221.217 35.3794 221.217 35.5674C221.223 35.7609 221.206 35.9711 221.173 36.1978Z" fill="white"/>
<path d="M228.906 34.1022C228.773 33.7041 228.602 33.3778 228.391 33.1179C228.181 32.858 227.954 32.659 227.71 32.5207C227.467 32.3825 227.234 32.2774 227.018 32.2166C226.802 32.1503 226.609 32.1171 226.448 32.106C226.288 32.095 226.193 32.095 226.166 32.095C226.133 32.095 226.033 32.1005 225.878 32.106C225.723 32.1171 225.535 32.1503 225.319 32.2166C225.103 32.283 224.87 32.3825 224.627 32.5207C224.383 32.659 224.156 32.858 223.946 33.1179C223.735 33.3778 223.564 33.7096 223.431 34.1022C223.298 34.5003 223.226 34.9869 223.226 35.5675V38.5202C223.226 38.7138 223.381 38.8686 223.575 38.8686H224.466C224.66 38.8686 224.815 38.7138 224.815 38.5202V35.573C224.815 35.3795 224.832 35.186 224.865 34.9869C224.898 34.7878 224.964 34.6054 225.059 34.4395C225.153 34.2736 225.291 34.1354 225.463 34.0303C225.634 33.9197 225.867 33.8699 226.155 33.8699C226.443 33.8699 226.675 33.9252 226.847 34.0303C227.018 34.1409 227.157 34.2736 227.251 34.4395C227.345 34.6054 227.411 34.7878 227.445 34.9869C227.478 35.186 227.495 35.385 227.495 35.573V38.5202C227.495 38.7138 227.65 38.8686 227.843 38.8686H228.757C228.951 38.8686 229.106 38.7138 229.106 38.5202V35.573C229.106 34.9869 229.039 34.5003 228.906 34.1022Z" fill="white"/>
<g opacity="0.1" filter="url(#filter0_f)">
<path d="M134.685 92.5957C134.685 29.3689 281.995 35.1697 281.995 77.9901" stroke="#5B5863" stroke-width="2" stroke-dasharray="5 4"/>
</g>
<path d="M276.102 244.77C276.102 218.932 321.979 239.299 319.032 309.587" stroke="#5B5863" stroke-width="2" stroke-dasharray="5 4"/>
<g opacity="0.1" filter="url(#filter1_f)">
<path d="M276.102 244.77C276.102 234.855 319.032 295.884 319.032 309.587" stroke="#5B5863" stroke-width="2" stroke-dasharray="5 4"/>
</g>
<path d="M154.886 245.23C154.886 137.831 281.994 44.0453 281.994 78.9792" stroke="#5B5863" stroke-width="2" stroke-dasharray="5 4"/>
<g opacity="0.1" filter="url(#filter2_f)">
<path d="M154.886 245.23C154.886 175.089 281.994 55.1362 281.994 78.9791" stroke="#5B5863" stroke-width="2" stroke-dasharray="5 4"/>
</g>
<ellipse cx="133.844" cy="51.5391" rx="9.81608" ry="10.9068" fill="white"/>
<path d="M133.922 34.5131C131.351 34.5295 128.809 35.0136 126.441 35.9378C124.073 36.862 121.925 38.2083 120.12 39.8997C118.315 41.5911 116.888 43.5945 115.921 45.7956C114.953 47.9966 114.465 50.3522 114.482 52.7279C114.55 62.7086 134.354 93.237 134.354 93.237C134.354 93.237 153.699 62.4715 153.631 52.4784C153.614 50.1027 153.09 47.7536 152.09 45.565C151.09 43.3765 149.633 41.3915 147.803 39.7232C145.973 38.055 143.805 36.7362 141.423 35.8423C139.041 34.9483 136.492 34.4967 133.922 34.5131ZM134.111 60.7124C132.255 60.7247 130.437 60.2282 128.887 59.2857C127.337 58.3433 126.124 56.9971 125.402 55.4175C124.679 53.8379 124.48 52.0958 124.829 50.4115C125.178 48.7272 126.059 47.1764 127.362 45.9551C128.664 44.7338 130.33 43.8969 132.147 43.5502C133.964 43.2036 135.852 43.3627 137.571 44.0075C139.291 44.6523 140.765 45.7539 141.807 47.1729C142.849 48.5918 143.412 50.2645 143.426 51.9793C143.444 54.2768 142.474 56.487 140.73 58.1244C138.986 59.7618 136.61 60.6926 134.124 60.7124H134.111Z" fill="#5B5863"/>
<ellipse cx="318.857" cy="291.565" rx="5.03203" ry="5.59115" fill="white"/>
<path d="M318.897 282.837C317.58 282.845 316.277 283.093 315.063 283.567C313.849 284.041 312.748 284.731 311.822 285.598C310.897 286.465 310.165 287.492 309.669 288.62C309.174 289.749 308.923 290.956 308.932 292.174C308.967 297.291 319.119 312.94 319.119 312.94C319.119 312.94 329.036 297.169 329.001 292.046C328.992 290.828 328.724 289.624 328.211 288.502C327.698 287.38 326.951 286.363 326.013 285.508C325.075 284.652 323.964 283.976 322.743 283.518C321.522 283.06 320.215 282.828 318.897 282.837ZM318.994 296.267C318.043 296.274 317.111 296.019 316.316 295.536C315.522 295.053 314.9 294.363 314.53 293.553C314.159 292.743 314.057 291.85 314.236 290.987C314.415 290.123 314.867 289.328 315.535 288.702C316.202 288.076 317.056 287.647 317.988 287.469C318.919 287.292 319.887 287.373 320.768 287.704C321.65 288.034 322.405 288.599 322.939 289.326C323.474 290.054 323.762 290.911 323.769 291.79C323.779 292.968 323.282 294.101 322.388 294.941C321.494 295.78 320.276 296.257 319.001 296.267H318.994Z" fill="#5B5863"/>
<ellipse cx="153.845" cy="221.124" rx="6.15769" ry="6.84188" fill="white"/>
<path d="M153.894 210.444C152.281 210.454 150.687 210.758 149.201 211.338C147.716 211.918 146.368 212.762 145.236 213.823C144.104 214.884 143.209 216.141 142.602 217.522C141.995 218.902 141.688 220.38 141.7 221.87C141.742 228.131 154.165 247.282 154.165 247.282C154.165 247.282 166.3 227.983 166.258 221.714C166.247 220.224 165.918 218.75 165.291 217.377C164.663 216.004 163.75 214.759 162.602 213.712C161.453 212.666 160.094 211.839 158.6 211.278C157.105 210.717 155.507 210.434 153.894 210.444ZM154.013 226.879C152.849 226.887 151.708 226.575 150.736 225.984C149.763 225.393 149.002 224.548 148.549 223.558C148.096 222.567 147.971 221.474 148.19 220.417C148.409 219.361 148.962 218.388 149.779 217.622C150.596 216.856 151.641 216.331 152.781 216.113C153.921 215.896 155.105 215.996 156.183 216.4C157.262 216.805 158.187 217.496 158.84 218.386C159.494 219.276 159.847 220.325 159.856 221.401C159.867 222.842 159.259 224.228 158.165 225.256C157.071 226.283 155.58 226.867 154.021 226.879H154.013Z" fill="#5B5863"/>
<ellipse cx="281.528" cy="57.6858" rx="5.59486" ry="6.21652" fill="white"/>
<path d="M281.572 47.9814C280.107 47.9908 278.658 48.2667 277.308 48.7935C275.958 49.3202 274.734 50.0876 273.705 51.0516C272.676 52.0157 271.863 53.1575 271.312 54.4121C270.76 55.6666 270.482 57.0093 270.492 58.3633C270.53 64.052 281.818 81.4522 281.818 81.4522C281.818 81.4522 292.844 63.9169 292.806 58.2211C292.795 56.867 292.497 55.5281 291.927 54.2807C291.357 53.0333 290.527 51.9019 289.483 50.951C288.44 50.0002 287.205 49.2486 285.847 48.739C284.49 48.2295 283.037 47.9721 281.572 47.9814ZM281.679 62.9142C280.622 62.9212 279.586 62.6383 278.702 62.1011C277.819 61.5639 277.127 60.7966 276.715 59.8963C276.304 58.996 276.19 58.003 276.389 57.043C276.588 56.083 277.09 55.1991 277.833 54.503C278.575 53.8069 279.524 53.3299 280.56 53.1323C281.596 52.9347 282.672 53.0254 283.652 53.393C284.632 53.7605 285.472 54.3883 286.066 55.1971C286.66 56.0059 286.981 56.9592 286.989 57.9366C286.999 59.2461 286.446 60.5059 285.452 61.4391C284.458 62.3724 283.104 62.903 281.687 62.9142H281.679Z" fill="#5B5863"/>
<ellipse cx="275.385" cy="229.492" rx="4.18779" ry="4.6531" fill="white"/>
<path d="M275.418 222.229C274.321 222.236 273.236 222.442 272.226 222.836C271.216 223.231 270.299 223.805 269.529 224.527C268.759 225.248 268.15 226.103 267.738 227.042C267.325 227.981 267.117 228.986 267.124 230C267.153 234.258 275.602 247.282 275.602 247.282C275.602 247.282 283.855 234.156 283.826 229.893C283.819 228.88 283.595 227.877 283.168 226.944C282.742 226.01 282.12 225.163 281.339 224.451C280.559 223.74 279.634 223.177 278.618 222.796C277.602 222.414 276.514 222.222 275.418 222.229ZM275.498 233.406C274.707 233.411 273.931 233.199 273.27 232.797C272.608 232.395 272.091 231.821 271.783 231.147C271.474 230.473 271.389 229.73 271.538 229.011C271.687 228.293 272.063 227.631 272.619 227.11C273.175 226.589 273.885 226.232 274.66 226.084C275.436 225.936 276.241 226.004 276.975 226.279C277.708 226.554 278.337 227.024 278.781 227.63C279.226 228.235 279.466 228.949 279.472 229.68C279.48 230.66 279.066 231.603 278.322 232.302C277.578 233 276.564 233.398 275.504 233.406H275.498Z" fill="#5B5863"/>
<rect x="190.71" y="125.263" width="50.4107" height="16.8036" rx="4" transform="rotate(-44.8389 190.71 125.263)" fill="#5B5863"/>
<path d="M214.224 114.433L211.379 117.262C211.25 117.391 211.265 117.602 211.413 117.703C211.444 117.727 211.475 117.75 211.506 117.774C211.635 117.864 211.771 117.938 211.919 118.001C212.146 118.095 212.391 118.131 212.661 118.112C212.927 118.097 213.185 117.957 213.439 117.704C213.694 117.451 213.828 117.193 213.852 116.928C213.869 116.717 213.846 116.522 213.796 116.338C213.769 116.24 213.8 116.131 213.871 116.061L214.666 115.27C214.811 115.126 215.053 115.173 215.138 115.353C215.204 115.49 215.259 115.63 215.293 115.767C215.363 116.017 215.405 116.256 215.412 116.482C215.419 116.709 215.402 116.919 215.355 117.122C215.307 117.325 215.252 117.505 215.185 117.673C215.008 118.067 214.769 118.421 214.451 118.737C214.028 119.142 213.574 119.422 213.089 119.578C212.878 119.64 212.652 119.678 212.406 119.697C212.16 119.716 211.898 119.688 211.625 119.617C211.352 119.546 211.063 119.421 210.759 119.24C210.455 119.06 210.148 118.814 209.825 118.489C209.506 118.168 209.257 117.855 209.078 117.55C208.9 117.245 208.776 116.956 208.702 116.678C208.629 116.401 208.603 116.139 208.619 115.889C208.636 115.639 208.675 115.413 208.739 115.202C208.885 114.714 209.16 114.262 209.556 113.837C209.563 113.829 209.571 113.822 209.579 113.814C209.932 113.494 210.315 113.253 210.734 113.086C210.913 113.016 211.113 112.966 211.328 112.931C211.543 112.897 211.769 112.889 212.011 112.913C212.253 112.937 212.503 113 212.768 113.102C213.033 113.204 213.306 113.353 213.579 113.557C213.684 113.639 213.789 113.722 213.894 113.812C213.999 113.902 214.112 114 214.225 114.113C214.221 114.101 214.412 114.246 214.224 114.433ZM212.102 115.01C212.25 114.862 212.201 114.601 212.002 114.534C212.002 114.534 211.998 114.53 211.994 114.534C211.85 114.483 211.697 114.455 211.533 114.455C211.373 114.458 211.213 114.485 211.057 114.547C210.9 114.61 210.744 114.718 210.599 114.863C210.45 115.011 210.344 115.163 210.281 115.319C210.218 115.475 210.182 115.635 210.185 115.795C210.185 115.959 210.208 116.108 210.258 116.26L210.262 116.264C210.331 116.467 210.593 116.518 210.742 116.37L212.105 115.014L212.102 115.01Z" fill="white"/>
<path d="M204.832 114.603C204.205 115.227 204.202 116.234 204.825 116.86L208.082 120.136C208.218 120.273 208.346 120.417 208.475 120.578C208.599 120.734 208.688 120.902 208.742 121.082C208.796 121.262 208.8 121.453 208.752 121.656C208.705 121.859 208.563 122.078 208.336 122.304C208.109 122.53 207.89 122.67 207.686 122.716C207.483 122.762 207.292 122.758 207.112 122.703C206.933 122.648 206.765 122.558 206.609 122.433C206.454 122.307 206.306 122.174 206.17 122.037L202.811 118.66C202.184 119.283 202.181 120.291 202.803 120.917L205.033 123.159C205.169 123.296 205.298 123.441 205.426 123.601C205.551 123.758 205.64 123.926 205.694 124.106C205.748 124.286 205.751 124.477 205.704 124.68C205.656 124.883 205.515 125.101 205.287 125.327C205.06 125.553 204.841 125.693 204.638 125.74C204.435 125.786 204.243 125.782 204.064 125.727C203.884 125.672 203.717 125.581 203.561 125.456C203.405 125.331 203.257 125.198 203.121 125.061L200.79 122.717C200.163 123.34 200.164 124.351 200.782 124.974L201.989 126.187C202.308 126.508 202.619 126.758 202.923 126.939C203.227 127.119 203.512 127.248 203.781 127.331C204.054 127.41 204.308 127.445 204.55 127.438C204.792 127.431 205.015 127.396 205.218 127.342C205.691 127.214 206.133 126.961 206.533 126.587C206.917 126.182 207.172 125.741 207.307 125.265C207.362 125.062 207.398 124.84 207.403 124.602C207.403 124.539 207.403 124.477 207.399 124.41C207.466 124.414 207.528 124.414 207.591 124.415C207.833 124.407 208.055 124.373 208.259 124.318C208.732 124.191 209.174 123.938 209.573 123.564C209.957 123.158 210.213 122.718 210.347 122.242C210.403 122.039 210.438 121.816 210.443 121.578C210.452 121.336 210.418 121.082 210.34 120.808C210.263 120.535 210.135 120.25 209.953 119.948C209.77 119.647 209.522 119.342 209.199 119.017L204.832 114.603Z" fill="white"/>
<path d="M219.787 112.839C219.845 112.96 219.825 113.104 219.727 113.202L219.131 113.794L218.535 114.387C218.441 114.48 218.292 114.503 218.172 114.445L212.575 111.583C212.384 111.485 212.345 111.235 212.498 111.083L213.169 110.417C213.263 110.323 213.411 110.3 213.532 110.359L217.106 112.182C217.375 112.319 217.661 112.034 217.526 111.765L216.487 109.701L214.742 106.237C214.366 105.483 214.667 104.562 215.422 104.185L219.787 112.839Z" fill="white"/>
<path d="M221.627 103.764C221.35 103.689 221.089 103.662 220.839 103.677C220.589 103.692 220.362 103.731 220.151 103.793C219.659 103.94 219.201 104.209 218.785 104.598C218.397 104.984 218.126 105.37 217.969 105.753C217.811 106.135 217.751 106.522 217.785 106.908C217.818 107.295 217.95 107.678 218.171 108.065C218.396 108.448 218.695 108.835 219.08 109.223L222.66 112.822C222.811 112.975 223.053 112.975 223.206 112.823L223.755 112.278C223.908 112.126 223.909 111.883 223.757 111.731L221.956 109.919C222.096 109.943 222.233 109.947 222.366 109.94C222.663 109.917 222.917 109.859 223.128 109.765C223.367 109.66 223.582 109.524 223.778 109.353C223.793 109.337 223.805 109.325 223.821 109.31C224.185 108.932 224.433 108.514 224.56 108.061C224.615 107.859 224.647 107.64 224.656 107.406C224.665 107.171 224.626 106.921 224.553 106.652C224.476 106.386 224.348 106.101 224.17 105.804C223.991 105.506 223.739 105.197 223.42 104.877C223.101 104.556 222.793 104.309 222.485 104.133C222.189 103.96 221.901 103.835 221.627 103.764ZM222.695 106.492C222.831 106.676 222.928 106.875 222.99 107.086C223.051 107.297 223.062 107.52 223.014 107.746C222.971 107.976 222.829 108.203 222.602 108.429C222.375 108.655 222.144 108.791 221.917 108.838C221.686 108.88 221.464 108.876 221.249 108.817C221.035 108.758 220.836 108.66 220.653 108.523C220.47 108.386 220.31 108.249 220.178 108.116C220.015 107.951 219.863 107.775 219.719 107.592C219.579 107.404 219.478 107.216 219.417 107.013C219.355 106.81 219.356 106.599 219.419 106.38C219.482 106.162 219.632 105.928 219.871 105.69C220.098 105.464 220.329 105.328 220.556 105.281C220.786 105.239 221.009 105.243 221.216 105.31C221.426 105.373 221.625 105.479 221.808 105.608C221.991 105.745 222.151 105.882 222.283 106.015C222.423 106.148 222.559 106.308 222.695 106.492Z" fill="white"/>
<path d="M226.693 99.5657C226.319 99.3775 225.968 99.2675 225.636 99.2317C225.305 99.196 225.004 99.2149 224.734 99.2886C224.464 99.3623 224.226 99.4517 224.03 99.5607C223.831 99.6657 223.67 99.7787 223.549 99.8839C223.427 99.9891 223.361 100.055 223.341 100.075C223.317 100.098 223.251 100.172 223.145 100.285C223.043 100.402 222.933 100.558 222.827 100.757C222.721 100.956 222.626 101.19 222.551 101.46C222.476 101.729 222.455 102.03 222.489 102.362C222.523 102.694 222.635 103.049 222.817 103.421C223.003 103.796 223.294 104.191 223.703 104.602L225.78 106.691C225.916 106.828 226.135 106.828 226.272 106.692L226.903 106.064C227.041 105.928 227.041 105.709 226.905 105.572L224.832 103.487C224.695 103.35 224.571 103.201 224.454 103.037C224.338 102.873 224.257 102.697 224.207 102.513C224.156 102.33 224.157 102.134 224.205 101.939C224.248 101.74 224.378 101.541 224.582 101.339C224.786 101.136 224.989 101.011 225.185 100.965C225.384 100.922 225.575 100.919 225.759 100.97C225.942 101.021 226.118 101.103 226.281 101.221C226.445 101.338 226.596 101.467 226.729 101.6L228.802 103.686C228.938 103.823 229.157 103.823 229.294 103.687L229.941 103.043C230.078 102.907 230.079 102.688 229.943 102.551L227.869 100.466C227.457 100.051 227.068 99.7538 226.693 99.5657Z" fill="white"/>
<rect x="299.201" y="224.405" width="42.5256" height="14.1752" rx="4" transform="rotate(61.0923 299.201 224.405)" fill="#5B5863"/>
<path d="M302.539 245.988L300.903 243.026C300.829 242.891 300.654 242.854 300.537 242.951C300.511 242.97 300.485 242.99 300.458 243.01C300.355 243.094 300.263 243.187 300.178 243.293C300.049 243.454 299.963 243.645 299.916 243.868C299.867 244.087 299.921 244.329 300.067 244.595C300.214 244.86 300.392 245.028 300.601 245.109C300.769 245.171 300.932 245.198 301.093 245.2C301.178 245.2 301.26 245.251 301.3 245.325L301.758 246.153C301.841 246.304 301.747 246.489 301.581 246.517C301.455 246.539 301.328 246.55 301.209 246.547C300.99 246.545 300.787 246.524 300.602 246.477C300.416 246.431 300.249 246.369 300.096 246.283C299.942 246.197 299.809 246.111 299.689 246.018C299.41 245.783 299.178 245.507 298.995 245.176C298.764 244.739 298.642 244.306 298.629 243.877C298.627 243.691 298.648 243.498 298.69 243.294C298.732 243.09 298.815 242.885 298.935 242.679C299.056 242.474 299.225 242.269 299.442 242.065C299.658 241.86 299.929 241.667 300.268 241.48C300.602 241.296 300.913 241.167 301.202 241.092C301.491 241.018 301.754 240.984 301.996 240.989C302.238 240.994 302.457 241.033 302.656 241.104C302.854 241.176 303.029 241.26 303.185 241.361C303.547 241.592 303.85 241.92 304.103 242.339C304.108 242.347 304.112 242.356 304.117 242.364C304.294 242.724 304.401 243.091 304.44 243.469C304.455 243.631 304.449 243.804 304.428 243.987C304.406 244.169 304.36 244.354 304.284 244.545C304.209 244.736 304.1 244.924 303.956 245.115C303.811 245.307 303.627 245.494 303.399 245.668C303.308 245.734 303.217 245.8 303.119 245.865C303.022 245.929 302.917 245.998 302.798 246.063C302.809 246.063 302.647 246.184 302.539 245.988ZM302.562 244.133C302.648 244.288 302.872 244.308 302.972 244.162C302.972 244.162 302.976 244.16 302.974 244.156C303.048 244.051 303.106 243.934 303.144 243.801C303.179 243.67 303.194 243.534 303.18 243.392C303.165 243.251 303.113 243.099 303.03 242.948C302.944 242.793 302.845 242.672 302.733 242.584C302.621 242.497 302.5 242.431 302.369 242.397C302.236 242.358 302.111 242.343 301.975 242.348L301.971 242.35C301.79 242.36 301.688 242.56 301.774 242.715L302.558 244.135L302.562 244.133Z" fill="white"/>
<path d="M304.575 238.329C304.215 237.676 303.398 237.44 302.746 237.8L299.335 239.684C299.192 239.762 299.045 239.833 298.885 239.9C298.729 239.965 298.572 239.998 298.414 240C298.256 240.003 298.1 239.961 297.946 239.875C297.792 239.79 297.648 239.624 297.517 239.388C297.387 239.151 297.324 238.941 297.333 238.765C297.342 238.59 297.39 238.436 297.476 238.303C297.563 238.17 297.675 238.055 297.812 237.958C297.95 237.86 298.092 237.771 298.235 237.692L301.752 235.75C301.392 235.097 300.575 234.861 299.923 235.221L297.588 236.511C297.445 236.589 297.298 236.66 297.138 236.727C296.982 236.792 296.825 236.825 296.667 236.827C296.509 236.83 296.353 236.788 296.199 236.702C296.045 236.617 295.901 236.452 295.77 236.215C295.64 235.978 295.577 235.768 295.586 235.592C295.596 235.417 295.643 235.263 295.73 235.13C295.816 234.997 295.928 234.882 296.065 234.785C296.203 234.687 296.345 234.598 296.488 234.519L298.929 233.171C298.569 232.518 297.748 232.284 297.1 232.642L295.837 233.34C295.503 233.524 295.227 233.719 295.011 233.924C294.794 234.129 294.623 234.33 294.494 234.529C294.367 234.732 294.279 234.93 294.229 235.128C294.179 235.326 294.155 235.515 294.152 235.692C294.146 236.105 294.249 236.522 294.46 236.933C294.7 237.339 294.998 237.648 295.353 237.867C295.505 237.959 295.677 238.04 295.869 238.099C295.92 238.113 295.971 238.128 296.025 238.14C296.007 238.193 295.992 238.244 295.977 238.294C295.927 238.493 295.904 238.681 295.901 238.859C295.895 239.272 295.998 239.689 296.209 240.1C296.448 240.505 296.747 240.814 297.102 241.034C297.254 241.126 297.426 241.206 297.618 241.265C297.812 241.328 298.026 241.359 298.266 241.36C298.506 241.361 298.767 241.323 299.053 241.245C299.34 241.166 299.645 241.035 299.983 240.848L304.575 238.329Z" fill="white"/>
<path d="M302.474 250.92C302.361 250.942 302.249 250.896 302.195 250.796L301.867 250.191L301.538 249.586C301.487 249.49 301.505 249.365 301.584 249.28L305.311 245.355C305.439 245.222 305.651 245.243 305.735 245.398L306.104 246.079C306.156 246.175 306.137 246.3 306.059 246.385L303.682 248.892C303.504 249.081 303.661 249.371 303.914 249.318L305.845 248.91L309.085 248.224C309.79 248.078 310.459 248.514 310.573 249.203L302.474 250.92Z" fill="white"/>
<path d="M309.471 254.374C309.601 254.166 309.689 253.961 309.74 253.756C309.791 253.551 309.817 253.36 309.82 253.177C309.826 252.749 309.724 252.323 309.514 251.907C309.301 251.513 309.057 251.214 308.788 251.007C308.519 250.8 308.223 250.671 307.902 250.618C307.581 250.564 307.239 250.59 306.87 250.688C306.504 250.789 306.116 250.95 305.706 251.18L301.896 253.316C301.735 253.407 301.673 253.602 301.757 253.757L302.06 254.314C302.144 254.469 302.339 254.52 302.5 254.429L304.418 253.354C304.363 253.463 304.325 253.572 304.298 253.681C304.241 253.925 304.224 254.142 304.246 254.332C304.271 254.546 304.327 254.749 304.416 254.942C304.424 254.958 304.431 254.97 304.439 254.986C304.653 255.359 304.927 255.646 305.261 255.843C305.411 255.93 305.579 256.001 305.766 256.057C305.953 256.113 306.164 256.135 306.401 256.132C306.635 256.125 306.897 256.082 307.182 256C307.467 255.918 307.78 255.778 308.12 255.588C308.46 255.397 308.736 255.201 308.956 254.989C309.17 254.786 309.344 254.58 309.471 254.374ZM306.999 254.666C306.816 254.737 306.63 254.774 306.444 254.78C306.259 254.785 306.076 254.748 305.905 254.662C305.73 254.579 305.583 254.417 305.458 254.187C305.333 253.956 305.281 253.741 305.301 253.549C305.325 253.354 305.385 253.175 305.486 253.014C305.588 252.854 305.718 252.714 305.874 252.595C306.031 252.475 306.182 252.375 306.323 252.296C306.497 252.199 306.677 252.113 306.862 252.036C307.049 251.962 307.226 251.92 307.405 251.912C307.585 251.905 307.755 251.95 307.916 252.046C308.076 252.143 308.227 252.312 308.359 252.555C308.484 252.785 308.536 253 308.516 253.193C308.492 253.388 308.433 253.566 308.327 253.719C308.223 253.876 308.087 254.014 307.936 254.135C307.78 254.254 307.629 254.354 307.488 254.433C307.345 254.518 307.181 254.595 306.999 254.666Z" fill="white"/>
<path d="M311.686 259.48C311.933 259.216 312.111 258.955 312.224 258.694C312.337 258.433 312.398 258.186 312.406 257.952C312.415 257.718 312.403 257.506 312.364 257.325C312.33 257.142 312.279 256.988 312.224 256.868C312.17 256.747 312.133 256.679 312.122 256.66C312.109 256.636 312.066 256.566 312.002 256.457C311.933 256.35 311.834 256.228 311.7 256.1C311.566 255.973 311.4 255.847 311.201 255.73C311.002 255.613 310.764 255.533 310.486 255.491C310.209 255.449 309.893 255.465 309.546 255.535C309.195 255.607 308.801 255.76 308.365 256.005L306.147 257.249C306.002 257.33 305.946 257.507 306.022 257.647L306.37 258.289C306.446 258.429 306.623 258.475 306.768 258.394L308.982 257.152C309.127 257.07 309.279 257.001 309.442 256.941C309.604 256.881 309.767 256.852 309.929 256.85C310.09 256.848 310.248 256.889 310.394 256.968C310.544 257.045 310.672 257.192 310.785 257.399C310.897 257.607 310.947 257.798 310.935 257.966C310.919 258.136 310.873 258.292 310.786 258.429C310.698 258.567 310.587 258.692 310.45 258.8C310.314 258.907 310.171 259.003 310.029 259.083L307.816 260.324C307.67 260.406 307.615 260.583 307.691 260.723L308.048 261.381C308.123 261.52 308.3 261.567 308.446 261.485L310.659 260.243C311.099 259.996 311.439 259.744 311.686 259.48Z" fill="white"/>
<g filter="url(#filter3_d)">
<path d="M35.9989 170.078C36.8325 165.406 40.9484 162.063 45.6947 162.063H371.075C375.823 162.063 379.937 165.407 380.789 170.078C385.649 196.714 385.436 214.677 380.73 241.612C379.905 246.332 375.769 249.737 370.978 249.737H46.0208C41.1292 249.737 36.9424 246.192 36.1985 241.357C32.0768 214.569 31.2648 196.614 35.9989 170.078Z" fill="white"/>
</g>
<path d="M126.237 183.318L118.499 209.958H118.39L111.364 183.318H103.025L95.9437 209.958H95.8344L88.0971 183.318H79.7037L92.2255 222.709H99.498L107.235 194.689H107.317L114.808 222.709H122.108L134.63 183.318H126.237Z" fill="#FD3E72"/>
<path d="M161.478 208.929C161.478 206.303 160.904 203.948 159.81 201.863C158.689 199.778 157.104 198.154 155.08 196.963C153.03 195.772 150.679 195.176 148.054 195.176C146.14 195.176 144.336 195.528 142.668 196.205C140.973 196.909 139.551 197.856 138.348 199.074C137.145 200.293 136.216 201.782 135.532 203.514C134.821 205.247 134.493 207.142 134.493 209.146C134.493 211.907 135.095 214.371 136.325 216.51C137.555 218.675 139.25 220.327 141.383 221.464C143.515 222.601 145.894 223.17 148.573 223.17C151.198 223.17 153.495 222.709 155.518 221.789C157.514 220.868 159.127 219.623 160.384 218.053L155.627 213.667C153.905 215.724 151.718 216.753 149.093 216.726C147.343 216.726 145.839 216.239 144.609 215.318C143.379 214.398 142.559 213.152 142.121 211.528H161.287C161.396 211.095 161.478 210.229 161.478 208.929ZM148.3 201.565C149.831 201.565 151.116 201.998 152.128 202.838C153.112 203.677 153.823 204.841 154.205 206.303H142.148C142.559 204.787 143.297 203.596 144.39 202.783C145.484 201.971 146.769 201.565 148.3 201.565Z" fill="#FD3E72"/>
<path d="M167.985 222.709H175.749V209.227H181.956C184.143 209.227 186.139 208.983 187.916 208.442C189.693 207.927 191.224 207.142 192.509 206.086C193.794 205.058 194.778 203.704 195.489 202.08C196.172 200.455 196.528 198.587 196.528 196.448C196.528 194.526 196.255 192.766 195.708 191.196C195.161 189.626 194.341 188.245 193.247 187.054C192.154 185.863 190.704 184.942 188.9 184.293C187.096 183.643 185.045 183.318 182.694 183.318H167.985V222.709ZM175.749 202.323V190.249H181.299C183.541 190.249 185.291 190.79 186.521 191.873C187.752 192.956 188.381 194.445 188.381 196.286C188.381 198.154 187.724 199.616 186.467 200.699C185.209 201.782 183.377 202.323 180.971 202.323H175.749Z" fill="#FD3E72"/>
<path d="M202.925 222.709H228.488V215.752H210.799V183.318H202.925V222.709Z" fill="#FD3E72"/>
<path d="M260.914 222.709H269.143L254.352 183.318H246.752L232.015 222.709H240.245L242.951 214.831H258.207L260.914 222.709ZM245.221 208.171L250.525 192.712H250.579L255.911 208.171H245.221Z" fill="#FD3E72"/>
<path d="M291.507 183.318L283.497 197.694H283.387L275.295 183.318H266.272L279.423 205.41V222.709H287.379V205.41L300.612 183.318H291.507Z" fill="#FD3E72"/>
<path d="M307.064 201.267H311.548V187.271H316.223V183.318H302.361V187.271H307.064V201.267ZM318.656 201.267H323.003V191.467L326.585 197.883H329.455L333.01 191.467V201.267H337.411V183.318H332.846L328.034 192.712L323.195 183.318H318.656V201.267Z" fill="#FD3E72"/>
<defs>
<filter id="filter0_f" x="131.685" y="42.4563" width="153.311" height="52.1394" filterUnits="userSpaceOnUse" color-interpolation-filters="sRGB">
<feFlood flood-opacity="0" result="BackgroundImageFix"/>
<feBlend mode="normal" in="SourceGraphic" in2="BackgroundImageFix" result="shape"/>
<feGaussianBlur stdDeviation="1" result="effect1_foregroundBlur"/>
</filter>
<filter id="filter1_f" x="273.102" y="240.687" width="48.9305" height="70.9005" filterUnits="userSpaceOnUse" color-interpolation-filters="sRGB">
<feFlood flood-opacity="0" result="BackgroundImageFix"/>
<feBlend mode="normal" in="SourceGraphic" in2="BackgroundImageFix" result="shape"/>
<feGaussianBlur stdDeviation="1" result="effect1_foregroundBlur"/>
</filter>
<filter id="filter2_f" x="151.886" y="73.1235" width="133.108" height="174.106" filterUnits="userSpaceOnUse" color-interpolation-filters="sRGB">
<feFlood flood-opacity="0" result="BackgroundImageFix"/>
<feBlend mode="normal" in="SourceGraphic" in2="BackgroundImageFix" result="shape"/>
<feGaussianBlur stdDeviation="1" result="effect1_foregroundBlur"/>
</filter>
<filter id="filter3_d" x="20.767" y="154.063" width="375.581" height="111.674" filterUnits="userSpaceOnUse" color-interpolation-filters="sRGB">
<feFlood flood-opacity="0" result="BackgroundImageFix"/>
<feColorMatrix in="SourceAlpha" type="matrix" values="0 0 0 0 0 0 0 0 0 0 0 0 0 0 0 0 0 0 127 0" result="hardAlpha"/>
<feOffset dy="4"/>
<feGaussianBlur stdDeviation="6"/>
<feColorMatrix type="matrix" values="0 0 0 0 0 0 0 0 0 0 0 0 0 0 0 0 0 0 0.2 0"/>
<feBlend mode="normal" in2="BackgroundImageFix" result="effect1_dropShadow"/>
<feBlend mode="normal" in="SourceGraphic" in2="effect1_dropShadow" result="shape"/>
</filter>
</defs>
</svg>
