<svg width="555" height="390" viewBox="0 0 555 390" fill="none" xmlns="http://www.w3.org/2000/svg">
<path d="M517 225.987C517 290.044 490.405 347.877 447.677 389C428.588 389 352.121 389 291.5 389C230.879 389 168.429 389 135.322 389C92.5947 347.877 66 290.044 66 225.987C66 101.178 166.96 0 291.5 0C416.04 0 517 101.178 517 225.987Z" fill="#FFF6F9"/>
<path d="M477 225.966C477 296.415 437.502 357.664 379.383 388.898C366.197 388.898 323.297 388.898 291.5 388.898C259.78 388.898 214.901 389 203.807 389C145.584 357.797 106 296.491 106 225.966C106 123.812 189.051 41 291.5 41C393.949 41 477 123.812 477 225.966Z" fill="#FEE9EE"/>
<path d="M385.347 50.9514H162.101V180.38H385.347V50.9514Z" fill="#5B5863"/>
<path d="M382.775 53.9578H164.474V177.278H382.775V53.9578Z" fill="#FFEAF0"/>
<path d="M378.689 58.1155H168.632V173.048H378.689V58.1155Z" fill="#FD3E72"/>
<g filter="url(#filter0_d)">
<path d="M256.7 120.848C255.737 120.59 254.873 119.965 254.335 119.034L247.363 106.969C241.781 97.3072 245.105 84.9097 254.773 79.3323C264.441 73.755 276.849 77.0789 282.432 86.7422L289.402 98.8044C290.477 100.666 289.84 103.046 287.978 104.12C286.115 105.194 283.734 104.556 282.658 102.695L275.689 90.6326C272.253 84.6862 264.617 82.6409 258.668 86.0733C252.718 89.5054 250.672 97.1339 254.107 103.078L261.078 115.144C262.154 117.005 261.516 119.385 259.654 120.459C258.723 120.997 257.662 121.106 256.7 120.848Z" fill="url(#paint0_linear)"/>
<path d="M256.585 79.7518C246.917 85.3293 243.593 97.7271 249.176 107.389L256.146 119.455C256.509 120.08 257.016 120.566 257.602 120.897C257.273 120.893 256.946 120.848 256.63 120.763C255.667 120.505 254.805 119.881 254.266 118.951L247.295 106.885C241.713 97.2232 245.037 84.8254 254.705 79.2479C259.84 76.2852 265.75 75.8343 270.999 77.5126C266.249 76.4796 261.117 77.139 256.585 79.7518Z" fill="#EDEDED"/>
<path d="M255.218 154C249.696 154 245.203 150.445 245.203 146.076V121.248C245.203 116.879 249.696 113.324 255.218 113.324H286.598C292.12 113.324 296.613 116.879 296.613 121.248V146.076C296.613 150.445 292.12 154 286.598 154H255.218Z" fill="url(#paint1_linear)"/>
<path d="M275.803 128.338C275.803 125.662 273.632 123.493 270.955 123.493C268.277 123.493 266.107 125.662 266.107 128.338C266.107 130.11 267.063 131.679 268.484 132.523L267.136 144.118H271.074H275.012L273.651 132.386C274.948 131.517 275.803 130.016 275.803 128.338Z" fill="#5B5863"/>
<path d="M300.107 103.503C298.402 104.799 297.812 104.303 298.796 102.402L303.979 92.3878C304.963 90.4869 307.007 90.1698 308.522 91.6831L308.855 92.0166C310.37 93.53 310.214 95.8278 308.509 97.1228L300.107 103.503Z" fill="white"/>
<path d="M301.549 109.574C299.815 108.317 300.14 107.461 302.271 107.669L309.414 108.369C311.546 108.578 312.501 110.277 311.537 112.145C310.574 114.012 308.366 114.512 306.632 113.256L301.549 109.574Z" fill="white"/>
<path d="M285.813 104.964C284.482 104.952 283.191 104.255 282.477 103.018L275.507 90.9565C273.965 88.2872 271.575 86.404 268.872 85.4481C272.329 86.0945 275.496 88.1858 277.388 91.4605L284.357 103.522C284.718 104.147 285.227 104.633 285.813 104.964Z" fill="#D5D5D5"/>
</g>
<path d="M256.365 177.327H291.089V180.489C291.089 180.879 291.012 181.265 290.863 181.626C290.713 181.986 290.494 182.314 290.219 182.589C289.943 182.865 289.615 183.084 289.255 183.234C288.894 183.383 288.508 183.46 288.118 183.46H259.431C258.618 183.46 257.838 183.137 257.263 182.562C256.688 181.986 256.365 181.206 256.365 180.393V177.327Z" fill="#5B5863"/>
<g filter="url(#filter1_d)">
<rect x="335.896" y="72.0532" width="87.896" height="44.3706" rx="10" fill="white"/>
</g>
<g clip-path="url(#clip0)">
<path d="M385.819 103.306H390.267V85.0762H385.819V103.306ZM377.983 98.1201C377.983 98.7708 377.449 99.2978 376.792 99.2978H374.205C373.545 99.2978 373.013 98.7708 373.013 98.1201C373.013 97.875 373.013 90.7646 373.013 90.7646H368.566V98.487C368.566 101.643 370.608 103.306 373.629 103.306H377.983V103.283C380.764 103.283 382.43 101.327 382.43 98.487V90.7646H377.983C377.983 90.7646 377.983 97.8751 377.983 98.1201ZM403.068 90.7646C403.068 90.7646 403.068 97.875 403.068 98.1201C403.068 98.7708 402.535 99.2978 401.878 99.2978H399.291C398.632 99.2978 398.099 98.7708 398.099 98.1201C398.099 97.875 398.099 90.7646 398.099 90.7646H393.651V98.487C393.651 101.643 395.694 103.306 398.715 103.306H403.068V103.283C405.85 103.283 407.515 101.327 407.515 98.487V90.7646H403.068ZM360.324 90.7646C360.324 90.7646 358.007 90.7646 357.472 90.7646C356.471 90.7646 355.969 91.0314 355.969 91.0314V85.0762H351.522V103.306H355.969V95.95C355.969 95.2994 356.503 94.7723 357.161 94.7723H359.749C360.407 94.7723 360.939 95.2994 360.939 95.95V103.306H365.387V95.3805C365.387 92.0474 363.139 90.7646 360.324 90.7646Z" fill="url(#paint2_linear)"/>
</g>
<path d="M272.992 180.384C272.992 180.239 273.035 180.097 273.116 179.976C273.196 179.856 273.311 179.762 273.445 179.706C273.579 179.65 273.727 179.636 273.869 179.664C274.011 179.693 274.142 179.762 274.245 179.865C274.347 179.968 274.417 180.098 274.445 180.241C274.474 180.383 274.459 180.53 274.404 180.665C274.348 180.799 274.254 180.913 274.133 180.994C274.013 181.074 273.871 181.117 273.726 181.117C273.531 181.117 273.345 181.04 273.207 180.903C273.069 180.765 272.992 180.578 272.992 180.384Z" fill="#F99746"/>
<path d="M376.081 272.329C376.262 274.388 368.804 281.57 362.876 286.933C361.267 288.386 359.77 289.709 358.57 290.755C357.874 291.367 357.374 292.171 357.132 293.066C356.891 293.96 356.919 294.906 357.213 295.785C357.499 296.668 357.636 297.58 357.413 298.368C357.112 299.427 356.66 300.412 355.56 300.412H349.791H342.643C342.37 300.414 342.101 300.34 341.867 300.199C341.633 300.058 341.442 299.855 341.316 299.613C341.19 299.37 341.133 299.098 341.151 298.825C341.169 298.552 341.263 298.29 341.42 298.067C342.271 296.881 343.658 296.035 345.277 295.685C345.929 295.513 346.541 295.213 347.077 294.802C349.243 293.257 351.537 290.156 352.481 288.42C353.359 286.773 354.151 285.082 354.855 283.353C359.299 272.615 361.785 259.738 369.087 254.957C370.921 253.727 375.78 268.906 376.081 272.329Z" fill="#EA9C68"/>
<path d="M362.875 286.921C361.265 288.374 359.769 289.697 358.568 290.743C357.872 291.355 357.372 292.159 357.131 293.054C356.889 293.949 356.917 294.895 357.211 295.774C357.497 296.656 357.634 297.569 357.412 298.356C357.111 299.415 356.658 300.4 355.558 300.4H349.789H342.641C342.368 300.402 342.1 300.328 341.866 300.187C341.631 300.046 341.441 299.843 341.314 299.601C341.188 299.358 341.131 299.086 341.149 298.813C341.168 298.541 341.261 298.278 341.419 298.055C342.27 296.869 343.656 296.023 345.275 295.673C345.928 295.502 346.54 295.201 347.075 294.791C349.242 293.245 351.535 290.144 352.479 288.408C353.357 286.761 354.15 285.07 354.854 283.341C356.844 283.667 360.395 284.581 362.875 286.921Z" fill="#35488B"/>
<path d="M349.789 300.392H342.641C342.368 300.394 342.1 300.32 341.866 300.179C341.631 300.038 341.441 299.835 341.314 299.593C341.188 299.351 341.131 299.078 341.149 298.805C341.168 298.533 341.261 298.27 341.419 298.047C342.27 296.861 343.656 296.015 345.275 295.666C345.928 295.494 346.54 295.194 347.075 294.783C348.141 295.966 349.665 298.062 349.789 300.392Z" fill="#25386D"/>
<path d="M392.317 202.216C392.317 202.216 393.051 200.015 392.263 198.428C392.263 198.428 392.224 200.602 391.368 201.57C390.513 202.538 392.317 202.216 392.317 202.216Z" fill="#2C3A64"/>
<path d="M391.977 200.68C391.977 200.68 394 200.45 394.956 202.008C394.956 202.008 393.53 201.045 392.09 202.067L391.977 200.68Z" fill="#2C3A64"/>
<g filter="url(#filter2_d)">
<rect x="380.89" y="141.258" width="130.308" height="65.7806" rx="10" fill="white"/>
</g>
<g clip-path="url(#clip1)">
<path d="M412.889 184.789C411.513 185.028 410.113 185.099 408.665 185.29L404.247 172.501V185.839C402.871 185.982 401.616 186.173 400.312 186.364V161.931H403.982L409.003 175.794V161.931H412.889V184.789ZM420.493 170.879C421.99 170.879 424.283 170.807 425.659 170.807V174.625C423.945 174.625 421.942 174.625 420.493 174.696V180.375C422.763 180.232 425.032 180.041 427.325 179.969V183.644L416.631 184.479V161.931H427.325V165.749H420.493V170.879ZM441.688 165.749H437.681V183.31C436.377 183.31 435.074 183.31 433.819 183.357V165.749H429.812V161.931H441.688L441.688 165.749ZM447.965 170.616H453.251V174.434H447.965V183.095H444.174V161.931H454.965V165.749H447.965V170.616ZM461.242 179.755C463.438 179.802 465.659 179.97 467.808 180.089V183.859C464.356 183.644 460.904 183.429 457.379 183.357V161.931H461.242V179.755ZM471.067 184.121C472.298 184.193 473.601 184.264 474.856 184.407V161.931H471.067V184.121ZM491.779 161.931L486.878 173.551L491.779 186.364C490.33 186.173 488.882 185.911 487.433 185.672L484.657 178.609L481.833 185.099C480.433 184.861 479.081 184.789 477.681 184.598L482.654 173.408L478.164 161.931H482.316L484.85 168.35L487.554 161.931H491.779V161.931Z" fill="#D81F26"/>
</g>
<path d="M413.798 281.355C413.798 281.355 412.991 300.429 387.806 300.429C369.466 300.429 356.505 254.933 356.505 254.933C356.505 254.933 361.005 252.184 361.976 252.431C370.759 254.649 413.798 281.355 413.798 281.355Z" fill="#FFB27D"/>
<path d="M375.084 230.514L384.917 235.042L387.118 227.398C387.118 227.398 385.714 224.755 385.081 220.422C384.777 218.339 384.701 216.229 384.853 214.13L375.876 218.727C376.038 219.404 376.157 220.09 376.233 220.781C376.442 222.38 376.39 224.002 376.079 225.584C375.754 227.031 375.399 228.596 375.084 230.514Z" fill="#FFA68A"/>
<path d="M376.084 225.576C381.188 225.44 385.086 220.414 385.086 220.414L376.243 220.774C376.451 222.373 376.397 223.995 376.084 225.576Z" fill="#EA9C68"/>
<path d="M373.607 222.732C373.607 222.732 383.79 225.422 387.302 217.326C391.092 208.588 386.932 202.223 383.477 201.793C376.581 200.937 372.578 203.566 371.365 206.343C370.152 209.121 367.99 221.299 373.607 222.732Z" fill="#FFA68A"/>
<path d="M400.301 300.426C400.301 300.426 384.265 300.426 382.634 300.426C382.242 300.426 381.499 300.143 380.597 299.71C377.762 298.355 373.363 295.533 373.363 295.533C371.61 280.127 385.157 272.979 385.157 272.979C385.157 272.979 408.696 276.237 411.323 285.258C411.462 285.727 411.558 286.209 411.611 286.696C412.521 294.927 400.301 300.426 400.301 300.426Z" fill="#35488B"/>
<path d="M400.302 300.427C400.302 300.427 384.265 300.427 382.634 300.427C382.243 300.427 381.499 300.143 380.597 299.711C380.969 299.73 381.365 299.755 381.785 299.789C400.182 301.217 397.754 285.826 397.754 285.826L411.614 286.696C412.521 294.927 400.302 300.427 400.302 300.427Z" fill="#25386D"/>
<path d="M372.115 205.093C369.425 205.308 367.119 203.068 370.188 198.833C372.986 194.969 383.855 194.228 388.805 197.855C402.479 207.866 392.514 217.777 386.438 220.871C386.064 221.06 385.634 221.109 385.228 221.009C384.821 220.909 384.463 220.666 384.22 220.325C383.19 218.895 381.659 216.52 382.07 215.552C382.677 214.121 382.755 210.612 380.847 211.365C378.94 212.119 374.793 204.88 372.115 205.093Z" fill="#5B5863"/>
<path d="M413.584 288.126C401.506 298.58 388.296 276.357 382.858 269.439C382.124 268.507 381.535 267.854 381.105 267.593C377.485 265.392 372.272 257.078 371.983 253.566C371.753 250.371 371.81 247.162 372.155 243.978C372.786 238.14 374.015 232.383 375.823 226.796C385.377 227.063 386.37 225.574 386.37 225.574C408.505 228.931 417.908 284.383 413.584 288.126Z" fill="#E82D60"/>
<path d="M382.858 269.439C382.124 268.507 381.535 267.855 381.105 267.593C377.485 265.392 372.272 257.078 371.983 253.566C371.753 250.371 371.81 247.162 372.155 243.978C373.526 241.105 375.823 238.759 379.366 237.439H382.525C382.525 237.439 391.405 245.893 382.858 269.439Z" fill="#FFA412"/>
<path d="M363.51 272.329C363.513 272.665 363.429 272.996 363.266 273.29C361.916 276.102 355.526 282.218 350.305 286.933C348.696 288.385 347.2 289.708 345.999 290.755C345.303 291.367 344.803 292.17 344.562 293.065C344.32 293.96 344.348 294.906 344.642 295.785C344.928 296.668 345.065 297.58 344.842 298.367C344.542 299.426 344.089 300.412 342.989 300.412L330.072 300.395C329.799 300.396 329.531 300.322 329.297 300.181C329.062 300.04 328.872 299.837 328.745 299.595C328.619 299.353 328.562 299.08 328.58 298.808C328.599 298.535 328.692 298.273 328.85 298.049C329.701 296.863 331.087 296.017 332.706 295.668C335.249 295.115 338.695 290.652 339.91 288.402C340.788 286.755 341.581 285.064 342.285 283.336C343.928 279.367 345.302 275.107 346.752 271.07C347.694 268.341 348.792 265.668 350.041 263.066C351.768 259.593 353.812 256.708 356.517 254.94L356.568 254.911C357.316 254.556 358.524 256.725 359.727 259.669C360.375 261.254 361.021 263.068 361.593 264.839C362.615 267.993 363.396 271.013 363.51 272.329Z" fill="#FFB27D"/>
<path d="M350.303 286.92C348.694 288.373 347.198 289.696 345.997 290.743C345.301 291.354 344.801 292.158 344.56 293.053C344.318 293.948 344.346 294.894 344.64 295.773C344.926 296.655 345.063 297.568 344.84 298.355C344.54 299.414 344.087 300.399 342.987 300.399L330.07 300.382C329.797 300.384 329.529 300.31 329.295 300.169C329.06 300.028 328.87 299.825 328.743 299.583C328.617 299.34 328.56 299.068 328.578 298.795C328.597 298.523 328.69 298.26 328.848 298.037C329.699 296.851 331.085 296.005 332.704 295.655C335.247 295.103 338.693 290.64 339.908 288.39C340.786 286.743 341.579 285.052 342.283 283.323C344.273 283.666 347.824 284.58 350.303 286.92Z" fill="#35488B"/>
<path d="M370.808 256.326C368.041 259.472 364.953 262.321 361.594 264.827C361.142 265.159 360.682 265.487 360.207 265.805C356.231 268.526 351.517 270.83 346.758 271.05C347.699 268.321 348.797 265.649 350.047 263.046C352.641 262.039 355.471 261.048 358.185 260.156C358.705 259.981 359.221 259.813 359.733 259.65C365.685 257.735 370.713 256.351 370.808 256.326Z" fill="#EA9C68"/>
<path d="M374.388 228.857C374.388 228.857 363.685 253.086 359.193 254.935C354.7 256.784 345.039 266.208 345.039 266.208L347.115 269.536C347.115 269.536 360.65 264.218 363.89 262.349C367.13 260.481 383.468 244.498 382.475 240.192C381.482 235.885 384.48 227.302 374.388 228.857Z" fill="#FFB27D"/>
<path d="M378.332 226.825C375.461 227.734 373.006 229.63 371.399 232.176C368.726 236.436 366.22 240.864 366.22 240.864C366.22 240.864 371.482 248.34 383.093 245.061C394.703 241.781 386.35 226.402 378.332 226.825Z" fill="#E82D60"/>
<path d="M345.039 266.216C345.039 266.216 340.896 271.386 344.873 276.426L347.783 268.248L345.039 266.216Z" fill="#FFB27D"/>
<path d="M482.81 334.634L480.078 344.983L468.703 388.059H467.507L474.082 352.319C474.082 352.285 474.097 352.251 474.104 352.212L477.357 334.537L482.81 334.634Z" fill="#9E906A"/>
<path d="M482.811 334.634L480.079 344.983C479.923 345.059 474.944 347.632 474.105 352.212L477.357 334.537L482.811 334.634Z" fill="#8E7D4E"/>
<path d="M536.533 388.064H535.337L526.066 352.973L523.961 344.994L521.229 334.645L526.688 334.552L528.549 344.656L529.94 352.237C529.94 352.276 529.957 352.31 529.962 352.344L536.533 388.064Z" fill="#9E906A"/>
<path d="M528.544 344.646C527.536 346.113 526.147 348.867 526.066 352.96L523.961 344.981L521.229 334.632L526.688 334.539L528.544 344.646Z" fill="#8E7D4E"/>
<path d="M545.215 324.746H455.694C454.477 324.746 453.491 325.732 453.491 326.949V333.356C453.491 334.573 454.477 335.559 455.694 335.559H545.215C546.431 335.559 547.418 334.573 547.418 333.356V326.949C547.418 325.732 546.431 324.746 545.215 324.746Z" fill="#9E906A"/>
<path d="M537.402 320.154H509.738V324.807H537.402V320.154Z" fill="#EFDECE"/>
<path d="M537.989 324.313H496.35L496.225 320.156H537.967C538.032 320.156 538.094 320.13 538.14 320.084C538.186 320.039 538.212 319.976 538.212 319.912C538.208 319.845 538.178 319.783 538.129 319.738C538.081 319.692 538.017 319.667 537.95 319.667H494.99C494.841 319.666 494.695 319.705 494.566 319.779C494.437 319.854 494.33 319.961 494.256 320.09C493.787 320.912 493.034 322.822 494.533 324.815H537.926C538 324.815 538.07 324.786 538.123 324.734C538.176 324.682 538.206 324.612 538.207 324.538C538.208 324.509 538.203 324.48 538.193 324.453C538.182 324.425 538.166 324.401 538.146 324.38C538.126 324.359 538.101 324.342 538.074 324.33C538.047 324.319 538.019 324.313 537.989 324.313Z" fill="#2A4E96"/>
<path d="M522.201 324.313L495.385 324.34C495.16 324.34 494.944 324.251 494.785 324.092C494.626 323.933 494.536 323.717 494.536 323.492V320.667C494.536 320.532 494.59 320.401 494.686 320.305C494.782 320.209 494.912 320.154 495.048 320.154H522.191L522.201 324.313Z" fill="#FCECDB"/>
<g filter="url(#filter3_d)">
<rect x="98.6938" y="40.9971" width="102.844" height="62.3489" rx="10" fill="white"/>
</g>
<path d="M146.981 79.1163C147.019 79.1215 147.027 79.123 147.064 79.1278C147.677 79.2118 148.28 79.3232 148.742 79.5309C149.17 79.7211 149.42 79.9618 149.649 80.3909C149.997 81.0415 150.02 81.9529 149.705 82.6428C149.47 83.1561 148.955 83.5865 148.484 83.8147C147.995 84.0534 147.513 84.1671 146.96 84.2307C145.994 84.3378 144.95 84.1362 144.08 83.7126C143.565 83.4595 142.937 83.0237 142.62 82.4623C142.387 82.0511 142.394 81.5159 142.678 81.125C143.13 80.502 144.098 80.3649 144.827 80.3909C145.383 80.4125 146.384 80.5856 146.912 80.7747C147.058 80.8279 147.598 81.0396 147.692 81.1367C147.758 81.2042 147.801 81.3023 147.772 81.393C147.651 81.7645 146.755 81.9603 146.496 81.9997C145.803 82.1066 145.443 81.8425 144.656 81.5292C144.46 81.4521 144.199 81.3666 144 81.348C143.643 81.3137 143.211 81.4146 143.142 81.8077C143.108 82.0104 143.344 82.1999 143.524 82.2795C143.947 82.4623 144.29 82.5281 144.706 82.5337C145.935 82.5541 147.316 82.3504 148.321 81.6333C148.458 81.5345 148.593 81.3897 148.595 81.2073C148.599 80.8389 147.958 80.6137 147.958 80.6137C147.281 80.3295 146.03 80.1911 145.386 80.1377C144.71 80.0787 143.646 79.9906 143.39 79.9527C143.127 79.9149 142.842 79.8614 142.614 79.7586C142.385 79.6546 142.161 79.4216 142.095 79.1639C141.977 78.6993 142.127 78.1293 142.383 77.7581C143.055 76.786 144.628 76.4168 145.803 76.2702C146.94 76.1276 148.779 76.1291 149.896 76.7269C150.068 76.82 150.156 76.9066 150.12 77.0922C150.047 77.4408 149.787 77.6654 149.472 77.7639C149.141 77.8699 148.457 77.9112 148.156 77.9303C146.81 78.0063 145.182 77.9664 143.899 78.3187C143.799 78.3476 143.625 78.3947 143.569 78.4582C143.368 78.6777 143.942 78.7404 144.064 78.7655C144.101 78.7743 144.108 78.7755 144.146 78.7797L146.981 79.1163ZM138.969 73.0688C138.969 73.0688 139.188 72.738 139.372 72.487C139.706 72.0299 140.311 71.3959 140.766 71.0035C140.906 70.8836 141.07 70.7478 141.07 70.7478C141.07 70.7478 140.813 70.7746 140.667 70.8045C140.322 70.8723 139.815 71.2114 139.562 71.4306C139.144 71.7907 138.685 72.3762 138.893 72.8965C138.923 72.9699 138.969 73.0688 138.969 73.0688ZM141.292 73.6947C141.952 73.6489 142.57 73.4575 143.146 73.136C143.71 72.8179 144.54 72.1976 144.454 71.4685C144.428 71.2324 144.275 71.0542 144.081 70.9711C143.829 70.8612 143.698 70.8789 143.376 70.9752C143.143 71.044 143.038 71.0858 142.817 71.2129C142.169 71.5918 141.251 72.4025 140.753 73.0495C140.638 73.2021 140.521 73.3728 140.43 73.4898C140.373 73.5619 140.328 73.6281 140.334 73.6457C140.354 73.7191 141.034 73.7123 141.292 73.6947ZM139.611 74.9377C139.543 75.0103 139.471 75.1851 139.397 75.3117C139.357 75.3794 139.283 75.4666 139.234 75.5016C139.062 75.6288 138.917 75.6347 138.751 75.4877C138.518 75.2806 138.384 74.9602 138.374 74.6486C138.369 74.5126 138.392 74.3621 138.367 74.2475C138.325 74.0539 138.132 73.8545 138.028 73.6695C137.907 73.4515 137.808 73.0714 137.796 72.8259C137.754 72.0607 138.155 71.3557 138.675 70.7997C139.199 70.2375 139.885 69.7702 140.63 69.4522C141.335 69.1532 142.368 68.9494 143.142 69.2193C143.394 69.3063 143.745 69.5222 143.921 69.7484C143.959 69.7954 143.989 69.8461 144.028 69.871C144.062 69.8931 144.152 69.9018 144.224 69.915C144.47 69.9581 144.826 70.1463 144.971 70.2717C145.263 70.5251 145.422 70.7673 145.496 71.1188C145.645 71.8261 145.24 72.602 144.78 73.0743C143.991 73.8871 143.212 74.4586 142.203 74.8564C141.759 75.0308 141.069 75.1937 140.566 75.1481C140.41 75.1351 140.25 75.0936 140.098 75.0835C140.02 75.0767 139.736 75.0031 139.706 74.9823C139.669 74.9532 139.62 74.9279 139.611 74.9377ZM140.513 76.5058C140.543 76.5111 140.591 76.5249 140.631 76.5407C140.985 76.6762 141.131 77.0059 141.218 77.3681C141.42 78.209 141.506 80.0694 141.54 80.7976C141.564 81.3442 141.578 81.8819 141.601 82.4222C141.62 82.8797 141.656 83.488 141.561 83.9166C141.527 84.0708 141.425 84.2501 141.278 84.3419C141.11 84.4502 140.728 84.4584 140.518 84.4148C140 84.3069 139.831 83.9715 139.757 83.4557C139.582 82.2248 139.666 79.8091 139.77 78.7897C139.805 78.4531 139.93 77.3743 140.105 76.922C140.165 76.7695 140.292 76.4623 140.513 76.5058ZM124.756 78.5538C124.756 78.5538 123.985 78.6087 123.454 78.668C122.779 78.7412 121.511 78.9618 120.779 79.225C120.559 79.3042 120.113 79.4922 120.074 79.7196C120.034 79.9553 120.179 80.1396 120.341 80.3303C120.434 80.441 120.963 80.9532 121.111 81.0777C121.732 81.6002 122.992 82.406 123.921 82.7973C124.239 82.9301 124.767 83.1203 124.767 83.1203C124.767 83.1203 124.728 81.6078 124.735 80.1179C124.739 79.3319 124.756 78.5538 124.756 78.5538ZM138.89 79.1557C138.935 79.5621 138.831 80.3303 138.813 80.4317C138.78 80.6652 138.605 81.204 138.576 81.2697C138.435 81.5972 138.296 81.8655 138.148 82.133C137.895 82.5912 137.294 83.3175 136.938 83.6283C135.611 84.7833 133.557 85.4409 131.794 85.6575C130.599 85.803 129.225 85.7816 127.958 85.5455C127.521 85.4656 126.873 85.315 126.873 85.315C126.873 85.315 126.875 85.5763 126.854 85.7601C126.844 85.8439 126.781 86.0646 126.746 86.1361C126.654 86.3277 126.503 86.4266 126.283 86.4691C126.017 86.5187 125.736 86.5353 125.49 86.4297C125.088 86.259 124.943 85.8796 124.873 85.442C124.816 85.092 124.757 84.4836 124.757 84.4836C124.757 84.4836 124.455 84.3399 124.204 84.2136C123.433 83.8308 122.7 83.3669 122.059 82.8898C121.881 82.7563 121.118 82.1127 120.949 81.9529C120.477 81.5013 120.052 81.0521 119.729 80.4757C119.478 80.0254 119.405 79.6257 119.597 79.1485C119.86 78.4834 120.807 77.9827 121.455 77.6973C121.931 77.4859 123.41 76.9995 124.024 76.9094C124.314 76.8676 124.764 76.7864 124.792 76.7683C124.803 76.7596 124.811 76.7522 124.819 76.7428C124.833 76.7227 124.857 76.0643 124.853 75.8235C124.847 75.5867 125.027 74.0315 125.085 73.7026C125.115 73.5248 125.248 72.8401 125.385 72.6604C125.474 72.539 125.632 72.5488 125.761 72.6285C126.466 73.0698 126.68 74.6001 126.732 75.3787C126.763 75.8531 126.779 76.5667 126.779 76.5667C126.779 76.5667 127.587 76.5426 128.085 76.5568C128.568 76.5681 129.1 76.6449 129.602 76.7254C130.244 76.8291 131.496 77.104 132.213 77.4705C132.805 77.7723 133.358 78.2807 133.537 78.8188C133.704 79.312 133.679 79.6534 133.425 80.0986C133.14 80.6012 132.6 80.9748 132.053 81.0061C131.89 81.0155 131.278 80.9335 131.089 80.7866C131.015 80.728 131.019 80.6222 131.073 80.5505C131.093 80.5253 131.379 80.372 131.548 80.2825C131.633 80.2361 131.703 80.1861 131.769 80.1254C131.91 80.0009 132.036 79.8638 132.022 79.7031C132.003 79.4945 131.783 79.3658 131.574 79.2831C130.594 78.891 128.637 78.5654 127.692 78.5091C127.321 78.4872 126.795 78.4685 126.795 78.4685L126.906 83.7275C126.906 83.7275 127.341 83.811 127.685 83.867C127.881 83.8971 128.715 83.9727 128.937 83.9782C130.625 84.023 132.508 83.8708 134.057 83.1349C134.737 82.8127 135.36 82.4115 135.833 81.8684C136.455 81.1498 136.781 80.1664 136.695 79.1391C136.6 78.0173 135.816 76.6855 135.19 75.8747C133.536 73.7323 130.7 71.97 128.206 70.9368C125.659 69.8827 123.142 69.2763 120.439 69.1747C119.742 69.1487 118.223 69.1841 117.455 69.3981C117.345 69.4292 117.234 69.4664 117.132 69.4895C117.052 69.5093 116.925 69.563 116.89 69.5913C116.871 69.607 116.852 69.6288 116.852 69.6288C116.852 69.6288 116.899 69.6551 116.945 69.6744C117.026 69.7101 117.368 69.7315 117.546 69.7642C117.704 69.7943 117.869 69.8781 117.935 69.9951C117.997 70.1063 118.004 70.194 117.93 70.2868C117.756 70.4999 117.101 70.4639 116.813 70.418C116.513 70.3699 116.14 70.2775 116.071 70.0147C115.992 69.7052 116.138 69.4018 116.296 69.1213C116.613 68.5601 117.066 68.2682 117.731 68.0854C118.675 67.8238 119.867 67.6409 120.759 67.6066C122.777 67.5298 124.687 67.8851 126.642 68.4829C127.761 68.8236 129.226 69.3954 130.298 69.9154C131.068 70.2891 132.28 70.9763 132.961 71.4254C133.176 71.5682 134.433 72.4984 134.629 72.6619C135.036 72.9973 135.569 73.4793 135.955 73.8649C136.701 74.6098 137.63 75.7517 138.081 76.658C138.189 76.8751 138.273 77.0886 138.413 77.3401C138.461 77.4263 138.667 77.9417 138.702 78.0906C138.736 78.2379 138.785 78.4545 138.792 78.4631C138.802 78.5422 138.898 78.985 138.89 79.1557ZM164.258 77.9929C163.313 78.2124 160.828 78.3342 160.828 78.3342L160.515 79.3227C160.515 79.3227 161.757 79.2159 162.66 79.3109C162.66 79.3109 162.953 79.2767 162.987 79.6456C162.999 79.9896 162.958 80.3588 162.958 80.3588C162.958 80.3588 162.94 80.5821 162.625 80.6389C162.285 80.6961 159.949 80.787 159.949 80.787L159.57 82.0755C159.57 82.0755 159.43 82.3733 159.745 82.2883C160.038 82.2094 162.485 81.7469 162.804 81.8134C163.146 81.8989 163.524 82.3576 163.414 82.7756C163.284 83.2937 160.841 84.8627 159.353 84.7532C159.353 84.7532 158.572 84.8039 157.911 83.7414C157.296 82.729 158.144 80.8119 158.144 80.8119C158.144 80.8119 157.755 79.9169 158.037 79.6136C158.037 79.6136 158.205 79.4603 158.694 79.4257L159.293 78.1782C159.293 78.1782 158.611 78.2255 158.205 77.7202C157.827 77.2408 157.795 77.0205 158.085 76.8882C158.395 76.7341 161.235 76.212 163.189 76.2783C163.189 76.2783 163.869 76.2111 164.458 77.3976C164.458 77.3976 164.743 77.8774 164.258 77.9929ZM156.907 82.7895C156.657 83.3828 155.995 84.016 155.173 83.6224C154.362 83.228 153.069 80.5641 153.069 80.5641C153.069 80.5641 152.579 79.5708 152.484 79.5964C152.484 79.5964 152.378 79.4024 152.313 80.4879C152.246 81.5688 152.326 83.6764 151.898 84.0081C151.492 84.3408 151.001 84.2084 150.747 83.8197C150.515 83.4369 150.419 82.5271 150.545 80.9293C150.694 79.3284 151.063 77.6251 151.535 77.0947C152.006 76.5679 152.384 76.9503 152.532 77.0891C152.532 77.0891 153.162 77.6643 154.201 79.3535L154.385 79.666C154.385 79.666 155.329 81.2619 155.428 81.2582C155.428 81.2582 155.505 81.3316 155.574 81.2789C155.673 81.2503 155.633 80.7386 155.633 80.7386C155.633 80.7386 155.437 78.9994 154.575 76.0555C154.575 76.0555 154.445 75.6884 154.533 75.3445C154.621 74.9969 154.967 75.16 154.967 75.16C154.967 75.16 156.302 75.8362 156.95 78.0258C157.594 80.216 157.161 82.1917 156.907 82.7895ZM171.28 81.4781C170.672 82.5462 168.956 84.7828 166.675 84.2547C165.922 86.094 165.289 87.9546 164.927 90.7387C164.927 90.7387 164.848 91.2798 164.401 91.0918C163.959 90.9359 163.23 90.195 163.083 89.1701C162.924 87.8239 163.519 85.548 164.735 82.9384C164.381 82.3576 164.139 81.5277 164.346 80.3461C164.346 80.3461 164.651 78.1519 166.84 76.1742C166.84 76.1742 167.102 75.9461 167.254 76.0164C167.422 76.0871 167.344 76.8011 167.211 77.1483C167.073 77.4935 166.099 79.1919 166.099 79.1919C166.099 79.1919 165.491 80.3393 165.662 81.2444C166.81 79.4674 169.419 75.8843 171.036 77.0142C171.579 77.4056 171.829 78.2569 171.829 79.1742C171.829 79.9799 171.637 80.8363 171.28 81.4781ZM170.808 78.664C170.808 78.664 170.718 77.9575 170.032 78.7358C169.442 79.3926 168.378 80.6231 167.522 82.2945C168.42 82.1929 169.287 81.7019 169.549 81.4518C169.975 81.071 170.968 80.038 170.808 78.664ZM183.844 78.5031H179.664C179.58 77.0725 179.409 75.6788 179.139 74.2436C179.112 74.095 178.983 73.9873 178.834 73.9873H177.87C177.786 73.9873 177.707 74.0252 177.653 74.0914C177.598 74.1588 177.577 74.2444 177.593 74.3282C177.867 75.7171 178.04 77.0841 178.126 78.5045H174.104C173.917 78.5045 173.765 78.6573 173.765 78.8453V79.7205C173.765 79.9088 173.917 80.0627 174.104 80.0627H178.183C178.186 80.2787 178.188 80.4722 178.188 80.6537C178.188 81.9151 178.134 82.9542 178.008 84.1268C177.998 84.2174 178.027 84.3076 178.088 84.3741C178.147 84.4412 178.232 84.4794 178.321 84.4794H179.215C179.389 84.4794 179.534 84.3472 179.551 84.1723C179.673 82.9918 179.725 81.9398 179.725 80.6536C179.725 80.4728 179.724 80.2787 179.721 80.0627H183.844C184.031 80.0627 184.183 79.9088 184.183 79.7204V78.8452C184.183 78.6564 184.03 78.5031 183.844 78.5031Z" fill="#101C50"/>
<path d="M127.954 66.7751C127.895 66.8637 127.881 66.9725 127.915 67.0746C127.95 67.1766 128.027 67.2541 128.127 67.2893L128.876 67.5433C128.922 67.5575 128.967 67.565 129.011 67.565C129.15 67.565 129.28 67.4958 129.357 67.3796C131.811 63.7486 135.133 60.7253 138.964 58.6367C142.918 56.4802 147.399 55.3395 151.922 55.3395C157.385 55.3395 162.657 56.9625 167.167 60.0327C171.567 63.0274 174.985 67.2056 177.05 72.1157C177.112 72.2627 177.255 72.3575 177.412 72.3575H178.307C178.41 72.3575 178.507 72.3052 178.566 72.2184C178.624 72.1318 178.635 72.0218 178.596 71.9244C176.467 66.645 172.866 62.1446 168.181 58.9112C163.385 55.6011 157.763 53.8511 151.922 53.8511C142.266 53.8511 133.306 58.6826 127.954 66.7751Z" fill="url(#paint3_linear)"/>
<path d="M514.192 322.389L522.2 322.315V322.587L514.192 322.389Z" fill="#EFDECE"/>
<g filter="url(#filter4_d)">
<rect x="29" y="171.581" width="125.641" height="65.7806" rx="10" fill="white"/>
</g>
<g clip-path="url(#clip2)">
<path d="M91.7511 217.627V217.585C91.7938 217.531 91.8686 217.499 91.9327 217.51C92.2425 217.499 92.5416 217.499 92.8515 217.51C92.9156 217.51 92.9903 217.531 93.0331 217.585V217.627H91.7511Z" fill="#D1EFFA"/>
<path d="M93.0317 217.584C92.6043 217.574 92.177 217.574 91.7497 217.584C91.1621 217.552 90.5746 217.531 89.987 217.488C88.4273 217.371 86.8782 217.136 85.3613 216.783C80.1159 215.565 75.5115 213.119 71.4947 209.562C71.1208 209.23 70.7683 208.888 70.4051 208.547C70.3196 208.472 70.2448 208.365 70.2021 208.258C70.138 208.109 70.17 207.948 70.2769 207.831C70.3837 207.713 70.5546 207.671 70.7042 207.735C70.8003 207.777 70.8965 207.82 70.9819 207.874C74.8171 210.245 79.0049 211.976 83.3956 213.001C84.8698 213.343 86.3548 213.61 87.8504 213.803C89.9977 214.07 92.1663 214.166 94.3243 214.091C95.4887 214.059 96.6425 213.952 97.7963 213.803C100.488 213.461 103.148 212.852 105.723 211.997C107.08 211.549 108.404 211.036 109.697 210.438C109.889 210.331 110.124 210.299 110.338 210.352C110.691 210.438 110.904 210.801 110.819 211.153C110.808 211.196 110.787 211.249 110.765 211.292C110.68 211.452 110.562 211.591 110.413 211.698C109.184 212.66 107.86 213.504 106.46 214.209C103.821 215.544 101.001 216.495 98.0954 217.04C96.4182 217.339 94.7302 217.52 93.0317 217.584Z" fill="#00A8E1"/>
<path d="M77.2106 195.93C77.4777 195.769 77.7554 195.599 78.0439 195.449C78.7917 195.064 79.625 194.872 80.4689 194.915C81.0778 194.947 81.6334 195.118 82.0607 195.566C82.4666 195.983 82.6162 196.496 82.6589 197.051C82.6696 197.169 82.6696 197.286 82.6696 197.415V202.948C82.6696 203.429 82.6055 203.493 82.1248 203.493H80.8215C80.736 203.493 80.6505 203.493 80.5651 203.483C80.4369 203.472 80.33 203.365 80.3087 203.237C80.2873 203.119 80.2873 203.002 80.2873 202.884V197.938C80.298 197.735 80.2766 197.543 80.2232 197.351C80.1377 197.019 79.8386 196.784 79.4968 196.763C78.8665 196.72 78.2362 196.848 77.6593 197.115C77.5738 197.137 77.5204 197.222 77.5311 197.308V202.927C77.5311 203.034 77.5311 203.13 77.5097 203.237C77.5097 203.386 77.3922 203.493 77.2427 203.493C77.0824 203.504 76.9222 203.504 76.7512 203.504H75.6188C75.2236 203.504 75.1381 203.408 75.1381 203.013V197.959C75.1381 197.778 75.1274 197.586 75.0847 197.404C75.0099 197.041 74.7001 196.784 74.3369 196.763C73.6959 196.72 73.0442 196.848 72.4673 197.126C72.3819 197.148 72.3285 197.244 72.3498 197.329V203.023C72.3498 203.418 72.2644 203.504 71.8691 203.504H70.4376C70.0637 203.504 69.9675 203.397 69.9675 203.034V195.62C69.9675 195.534 69.9782 195.449 69.9996 195.363C70.0423 195.235 70.1705 195.161 70.2987 195.161H71.6341C71.8264 195.161 71.9439 195.278 72.008 195.46C72.0614 195.609 72.0934 195.748 72.1469 195.908C72.2537 195.908 72.3178 195.834 72.3926 195.791C72.9801 195.428 73.5997 195.118 74.2941 194.99C74.8283 194.883 75.3624 194.883 75.8966 194.99C76.3987 195.096 76.8474 195.396 77.1358 195.823C77.1572 195.855 77.1785 195.876 77.1999 195.898C77.1892 195.908 77.1999 195.908 77.2106 195.93Z" fill="#00A8E1"/>
<path d="M99.356 201.25C99.4201 201.037 99.4842 200.834 99.5483 200.62C100.04 198.964 100.531 197.319 101.023 195.663L101.087 195.471C101.14 195.278 101.322 195.161 101.514 195.161H103.138C103.544 195.161 103.629 195.278 103.49 195.663L102.849 197.362C102.134 199.22 101.418 201.09 100.702 202.949C100.681 203.013 100.649 203.077 100.627 203.141C100.553 203.365 100.328 203.515 100.093 203.494C99.6231 203.483 99.1531 203.483 98.683 203.494C98.3518 203.504 98.1595 203.355 98.042 203.056C97.7749 202.351 97.4972 201.635 97.2301 200.93C96.5891 199.253 95.9375 197.575 95.2965 195.887C95.2324 195.759 95.1897 195.61 95.1576 195.471C95.1256 195.257 95.2004 195.15 95.414 195.15C96.0229 195.14 96.6319 195.15 97.2301 195.15C97.4865 195.15 97.604 195.321 97.6681 195.546C97.7856 195.951 97.9031 196.368 98.0313 196.774C98.4693 198.259 98.8967 199.755 99.3347 201.24C99.324 201.25 99.3347 201.25 99.356 201.25Z" fill="#232F3E"/>
<path d="M61.4222 196.336C61.497 196.315 61.5611 196.272 61.6038 196.208C61.7961 196.016 61.9991 195.834 62.2127 195.663C62.7683 195.236 63.4627 195.022 64.1571 195.076C64.4348 195.086 64.531 195.172 64.5523 195.439C64.5737 195.802 64.563 196.176 64.563 196.539C64.5737 196.689 64.563 196.828 64.5416 196.977C64.4989 197.17 64.4241 197.244 64.2318 197.266C64.0823 197.276 63.9434 197.266 63.7938 197.255C63.0781 197.191 62.3837 197.33 61.7106 197.554C61.5611 197.608 61.5611 197.714 61.5611 197.832V202.96C61.5611 203.056 61.5611 203.141 61.5504 203.238C61.5397 203.376 61.4329 203.483 61.294 203.483C61.2192 203.494 61.1338 203.494 61.059 203.494H59.6702C59.5954 203.494 59.5099 203.494 59.4352 203.483C59.2963 203.473 59.1895 203.355 59.1788 203.216C59.1681 203.131 59.1681 203.045 59.1681 202.96V195.695C59.1681 195.204 59.2215 195.15 59.7129 195.15H60.7385C61.0162 195.15 61.1444 195.247 61.2192 195.514C61.294 195.781 61.3581 196.048 61.4222 196.336Z" fill="#00A8E1"/>
<path d="M111.396 207.169C112.101 207.19 112.796 207.233 113.479 207.414C113.672 207.468 113.853 207.532 114.035 207.617C114.281 207.713 114.441 207.948 114.473 208.205C114.516 208.504 114.526 208.814 114.505 209.124C114.366 210.95 113.8 212.713 112.86 214.283C112.518 214.85 112.101 215.362 111.621 215.811C111.524 215.907 111.407 215.982 111.279 216.025C111.076 216.078 110.947 215.971 110.937 215.768C110.947 215.662 110.969 215.555 111.012 215.448C111.386 214.444 111.749 213.45 112.037 212.414C112.208 211.848 112.326 211.271 112.4 210.683C112.422 210.47 112.432 210.256 112.411 210.042C112.4 209.679 112.165 209.369 111.813 209.262C111.482 209.156 111.14 209.092 110.787 209.07C109.804 209.027 108.822 209.07 107.849 209.198L106.557 209.359C106.418 209.369 106.29 209.359 106.215 209.23C106.14 209.102 106.172 208.974 106.247 208.846C106.332 208.728 106.439 208.621 106.567 208.547C107.358 207.98 108.245 207.639 109.185 207.414C109.911 207.265 110.648 207.19 111.396 207.169Z" fill="#00A8E1"/>
<path d="M106.92 199.327V203.173C106.898 203.387 106.802 203.483 106.589 203.494C106.012 203.504 105.445 203.504 104.869 203.494C104.655 203.494 104.559 203.387 104.537 203.184C104.527 203.12 104.527 203.045 104.527 202.981V195.588C104.537 195.257 104.623 195.161 104.954 195.161H106.492C106.824 195.161 106.92 195.257 106.92 195.588V199.327Z" fill="#232F3E"/>
<path d="M65.5873 199.306V195.513C65.598 195.257 65.6942 195.161 65.9506 195.15C66.5061 195.139 67.0616 195.139 67.6171 195.15C67.8628 195.15 67.9376 195.225 67.959 195.47C67.9697 195.567 67.9697 195.652 67.9697 195.748V202.863C67.9697 202.981 67.959 203.098 67.9483 203.216C67.9376 203.355 67.8308 203.451 67.6919 203.461C67.6278 203.472 67.5744 203.472 67.5103 203.472H66.0253C65.9719 203.472 65.9292 203.472 65.8758 203.461C65.7262 203.451 65.598 203.333 65.5873 203.184C65.5767 203.098 65.5767 203.013 65.5767 202.927C65.5873 201.741 65.5873 200.524 65.5873 199.306Z" fill="#00A8E1"/>
<path d="M66.8272 191.326C66.9981 191.315 67.1691 191.347 67.3293 191.401C67.9062 191.593 68.2053 192.095 68.1519 192.747C68.1092 193.302 67.6925 193.751 67.137 193.836C66.902 193.879 66.6563 193.879 66.4213 193.836C65.8123 193.719 65.3636 193.27 65.4064 192.501C65.4705 191.742 65.9726 191.326 66.8272 191.326Z" fill="#00A8E1"/>
<path d="M105.735 191.326C105.949 191.304 106.162 191.347 106.365 191.432C106.782 191.593 107.07 191.977 107.092 192.426C107.177 193.398 106.525 193.89 105.66 193.868C105.543 193.868 105.425 193.847 105.308 193.825C104.645 193.665 104.303 193.152 104.367 192.415C104.421 191.828 104.88 191.39 105.511 191.336C105.585 191.326 105.66 191.315 105.735 191.326Z" fill="#232F3E"/>
<path d="M57.5862 198.43C57.5435 197.875 57.3939 197.33 57.1696 196.828C56.7316 195.909 56.0585 195.236 55.033 195.001C53.8578 194.745 52.8002 195.001 51.8387 195.717C51.7746 195.781 51.6999 195.834 51.6144 195.877C51.593 195.866 51.5717 195.856 51.5717 195.845C51.5396 195.738 51.5183 195.631 51.4862 195.524C51.4007 195.257 51.2939 195.161 51.0055 195.161C50.685 195.161 50.3538 195.172 50.0333 195.161C49.7876 195.15 49.5633 195.183 49.3923 195.375C49.3923 199.114 49.3923 202.864 49.403 206.592C49.5419 206.816 49.7556 206.859 50.0013 206.848C50.3859 206.838 50.7704 206.848 51.155 206.848C51.8281 206.848 51.8281 206.848 51.8281 206.186V203.141C51.8281 203.067 51.796 202.981 51.8708 202.917C52.4049 203.334 53.0566 203.59 53.7296 203.654C54.6697 203.75 55.5244 203.515 56.2401 202.874C56.7636 202.394 57.1482 201.774 57.3512 201.09C57.6396 200.214 57.661 199.328 57.5862 198.43ZM55.033 200.642C54.9582 200.973 54.7873 201.272 54.5415 201.496C54.2638 201.731 53.9219 201.87 53.5587 201.87C53.0139 201.902 52.4797 201.785 51.999 201.528C51.8815 201.475 51.8067 201.357 51.8174 201.229V199.296C51.8174 198.655 51.8281 198.014 51.8174 197.373C51.8067 197.223 51.8922 197.095 52.031 197.041C52.6186 196.764 53.2275 196.635 53.8685 196.764C54.3172 196.828 54.7018 197.116 54.8834 197.533C55.0436 197.875 55.1398 198.249 55.1612 198.622C55.2253 199.306 55.2253 199.99 55.033 200.642Z" fill="#00A8E1"/>
<path d="M134.878 198.665V198.708C134.835 198.665 134.814 198.601 134.835 198.548V198.462C134.835 198.462 134.835 198.452 134.846 198.452H134.835V198.345H134.856C134.856 198.334 134.846 198.334 134.846 198.323C134.824 198.12 134.782 197.917 134.728 197.725C134.333 196.315 133.446 195.385 132.004 195.022C131.331 194.862 130.647 194.841 129.964 194.947C128.521 195.161 127.485 195.93 126.983 197.298C126.492 198.601 126.502 200.033 126.994 201.336C127.421 202.522 128.276 203.27 129.504 203.579C130.156 203.74 130.84 203.782 131.513 203.686C133.756 203.419 134.685 201.721 134.835 200.246H134.824V200.097C134.814 200.033 134.803 199.979 134.867 199.936V199.958C134.867 199.947 134.878 199.926 134.888 199.915V198.687C134.888 198.676 134.878 198.676 134.878 198.665ZM132.314 200.695C132.25 200.919 132.154 201.122 132.015 201.315C131.78 201.646 131.406 201.859 131 201.891C130.797 201.913 130.594 201.913 130.391 201.87C129.942 201.785 129.568 201.485 129.387 201.069C129.226 200.738 129.13 200.374 129.098 200.011C129.045 199.381 129.034 198.751 129.184 198.131C129.237 197.885 129.344 197.64 129.472 197.426C129.707 197.041 130.113 196.796 130.562 196.764C130.765 196.742 130.968 196.742 131.171 196.785C131.598 196.87 131.951 197.148 132.143 197.543C132.325 197.917 132.431 198.334 132.453 198.751C132.463 198.943 132.474 199.135 132.463 199.328C132.495 199.798 132.442 200.257 132.314 200.695Z" fill="#232F3E"/>
<path d="M116.15 191.401H114.665C114.26 191.401 114.185 191.475 114.185 191.881V195.343C114.185 195.417 114.217 195.492 114.163 195.567C114.067 195.556 114.014 195.492 113.939 195.449C112.828 194.798 111.664 194.68 110.488 195.225C109.666 195.61 109.153 196.304 108.822 197.127C108.501 197.917 108.427 198.751 108.448 199.595C108.448 200.385 108.63 201.165 108.982 201.87C109.388 202.65 109.976 203.248 110.83 203.504C111.995 203.868 113.084 203.686 114.078 202.949C114.153 202.906 114.195 202.831 114.292 202.81C114.345 202.928 114.388 203.056 114.409 203.184C114.452 203.355 114.601 203.472 114.783 203.472H115.039C115.424 203.472 115.798 203.483 116.172 203.472C116.471 203.472 116.556 203.376 116.567 203.066V191.807C116.556 191.475 116.471 191.401 116.15 191.401ZM114.195 199.263V201.208C114.217 201.336 114.142 201.453 114.024 201.507C113.512 201.795 112.924 201.913 112.347 201.827C111.856 201.774 111.429 201.475 111.204 201.037C111.033 200.695 110.937 200.332 110.905 199.958C110.82 199.285 110.873 198.601 111.033 197.949C111.087 197.768 111.151 197.597 111.247 197.426C111.471 197.009 111.899 196.742 112.369 196.71C112.935 196.657 113.501 196.764 114.014 196.999C114.142 197.041 114.217 197.169 114.206 197.308C114.185 197.971 114.195 198.612 114.195 199.263Z" fill="#232F3E"/>
<path d="M86.569 200C87.3702 200.15 88.1928 200.16 88.994 200.032C89.464 199.968 89.9127 199.829 90.3294 199.605C90.8101 199.327 91.1626 198.943 91.3122 198.408C91.6861 197.062 91.1092 195.706 89.7098 195.204C89.026 194.979 88.2996 194.904 87.5838 195.001C85.8959 195.193 84.7956 196.122 84.2935 197.735C83.9409 198.836 83.9837 199.957 84.2721 201.068C84.646 202.489 85.5861 203.333 87.007 203.632C87.8189 203.814 88.6415 203.782 89.4534 203.654C89.8807 203.579 90.308 203.472 90.714 203.312C90.9597 203.216 91.0879 203.066 91.0772 202.788C91.0665 202.532 91.0772 202.265 91.0772 201.998C91.0772 201.677 90.949 201.581 90.6392 201.656C90.3294 201.731 90.0302 201.795 89.7204 201.859C89.0581 201.998 88.3744 201.998 87.712 201.88C86.804 201.699 86.2164 200.919 86.2698 199.957C86.366 199.968 86.4728 199.979 86.569 200ZM86.3019 198.366C86.3339 198.109 86.4087 197.864 86.5049 197.629C86.8253 196.849 87.4984 196.582 88.1821 196.624C88.3744 196.635 88.5667 196.678 88.7483 196.753C89.026 196.87 89.2077 197.126 89.2397 197.426C89.2718 197.607 89.2611 197.799 89.2077 197.981C89.0795 198.366 88.7697 198.526 88.3957 198.601C88.1714 198.654 87.9364 198.675 87.7014 198.654C87.2847 198.654 86.8574 198.622 86.4408 198.558C86.2805 198.537 86.2805 198.537 86.3019 198.366Z" fill="#00A8E1"/>
<path d="M122.603 200.107C123.222 200.064 123.842 199.947 124.397 199.648C124.964 199.37 125.359 198.846 125.476 198.227C125.551 197.842 125.551 197.436 125.466 197.052C125.241 196.09 124.632 195.492 123.714 195.182C123.201 195.022 122.656 194.958 122.122 194.979C120.327 195.022 118.96 195.93 118.404 197.725C118.03 198.91 118.084 200.118 118.447 201.303C118.821 202.521 119.675 203.258 120.893 203.59C121.417 203.718 121.962 203.771 122.496 203.75C123.276 203.739 124.055 203.59 124.793 203.312C125.102 203.194 125.177 203.087 125.177 202.756V201.987C125.167 201.677 125.038 201.571 124.729 201.645C124.493 201.709 124.269 201.763 124.034 201.816C123.318 201.987 122.571 202.019 121.844 201.891C121.118 201.752 120.626 201.335 120.434 200.609C120.381 200.395 120.338 200.182 120.316 199.957C120.37 199.957 120.423 199.957 120.466 199.979C121.171 200.107 121.887 200.16 122.603 200.107ZM120.37 198.398C120.445 197.981 120.541 197.575 120.797 197.233C121.192 196.71 121.737 196.56 122.357 196.624C122.41 196.624 122.453 196.646 122.506 196.646C123.254 196.763 123.436 197.361 123.297 197.938C123.19 198.366 122.838 198.526 122.442 198.601C122.229 198.643 122.004 198.665 121.78 198.654C121.342 198.643 120.915 198.611 120.487 198.547C120.391 198.537 120.348 198.494 120.37 198.398Z" fill="#232F3E"/>
</g>
<path d="M519.317 323.36L522.202 323.215V323.404L519.317 323.36Z" fill="#EFDECE"/>
<path d="M530.025 315.006H505.584V319.659H530.025V315.006Z" fill="#EFDECE"/>
<path d="M530.548 319.165H493.757L493.647 315.008H530.528C530.558 315.006 530.588 314.998 530.615 314.985C530.642 314.972 530.667 314.953 530.687 314.931C530.706 314.908 530.722 314.881 530.731 314.852C530.74 314.824 530.744 314.793 530.741 314.763C530.741 314.701 530.717 314.641 530.675 314.595C530.632 314.55 530.573 314.522 530.511 314.519H492.554C492.418 314.522 492.285 314.564 492.171 314.638C492.057 314.713 491.966 314.818 491.908 314.942C491.516 315.677 491.332 316.505 491.375 317.338C491.418 318.17 491.687 318.975 492.153 319.666H530.494C530.563 319.661 530.627 319.629 530.673 319.578C530.718 319.526 530.742 319.459 530.739 319.39C530.741 319.362 530.738 319.335 530.73 319.308C530.722 319.282 530.709 319.258 530.691 319.237C530.673 319.216 530.651 319.199 530.627 319.186C530.602 319.174 530.575 319.167 530.548 319.165Z" fill="#A9453D"/>
<path d="M516.594 319.165L492.9 319.192C492.689 319.179 492.491 319.081 492.351 318.922C492.211 318.763 492.139 318.555 492.152 318.344V315.519C492.145 315.392 492.189 315.266 492.273 315.17C492.358 315.074 492.477 315.015 492.604 315.006H516.594V319.165Z" fill="#FCECDB"/>
<path d="M509.519 317.24L516.594 317.167V317.438L509.519 317.24Z" fill="#EFDECE"/>
<path d="M514.046 318.212L516.594 318.067V318.256L514.046 318.212Z" fill="#EFDECE"/>
<path d="M494.844 310.416H516.884V314.515H494.673C494.401 314.515 494.139 314.407 493.947 314.214C493.754 314.021 493.646 313.76 493.646 313.488V311.605C493.646 311.448 493.677 311.293 493.737 311.148C493.798 311.003 493.886 310.871 493.997 310.761C494.109 310.65 494.241 310.563 494.386 310.504C494.532 310.445 494.687 310.415 494.844 310.416Z" fill="#2A4E96"/>
<path d="M516.166 310.748H527.517V314.172H516.312C516.049 314.172 515.797 314.067 515.61 313.881C515.424 313.695 515.32 313.442 515.32 313.179V311.592C515.32 311.368 515.41 311.153 515.568 310.995C515.727 310.837 515.942 310.748 516.166 310.748Z" fill="#FCECDB"/>
<path d="M528.077 310.414H496.823V310.749H528.077V310.414Z" fill="#2A4E96"/>
<path d="M528.077 314.175H497.708V314.513H528.077V314.175Z" fill="#2A4E96"/>
<path d="M481.299 310.9C481.299 310.9 476.409 312.886 472.927 307.895C472.927 307.895 478.573 306.939 481.299 310.9Z" fill="#6BB7BF"/>
<path d="M481.64 308.851C481.64 308.851 481.982 307.102 484.034 307.043C484.039 307.053 483.266 308.814 481.64 308.851Z" fill="#6BB7BF"/>
<path d="M480.612 298.617C480.612 298.617 478.24 298.861 477.35 296.269C477.35 296.269 479.928 296.555 480.612 298.617Z" fill="#6BB7BF"/>
<path d="M474.98 264.238C479.768 263.211 479.849 259.296 479.849 259.296C474.21 261.081 474.98 264.238 474.98 264.238Z" fill="#6BB7BF"/>
<path d="M474.652 263.345C474.652 263.345 471.664 264.567 469.541 261.511C469.541 261.511 472.987 260.926 474.652 263.345Z" fill="#6BB7BF"/>
<path d="M481.207 322.386L481.826 323.098C481.846 323.122 481.874 323.139 481.904 323.147C481.935 323.155 481.967 323.153 481.997 323.143C482.026 323.132 482.052 323.112 482.07 323.086C482.088 323.06 482.098 323.029 482.097 322.998C482.063 302.838 479.503 284.928 477.353 274.359C475.006 262.827 472.627 256.019 472.604 255.94C472.627 256.009 474.774 262.937 477.111 274.435C479.266 285.021 481.728 298.854 481.105 322.12C481.105 322.218 481.142 322.313 481.207 322.386Z" fill="#6BB7BF"/>
<path d="M472.643 253.194C473.408 253.808 476.33 256.422 473.494 258.439C473.494 258.439 471.32 259.129 470.601 257.461C470.181 256.404 469.933 255.287 469.867 254.152C469.863 254.077 469.888 254.004 469.938 253.947C469.987 253.891 470.056 253.855 470.131 253.849C470.341 253.83 470.547 253.783 470.745 253.71C471.016 253.605 471.151 253.199 471.515 253.108C471.754 253.04 472.002 253.012 472.249 253.027C472.393 253.044 472.53 253.102 472.643 253.194Z" fill="#F99746"/>
<path d="M474.267 257.711C474.014 257.929 473.829 258.214 473.732 258.533C473.636 258.852 473.632 259.192 473.722 259.513V259.922C473.635 259.608 473.471 259.321 473.245 259.087C473.019 258.852 472.738 258.678 472.428 258.579C472.428 258.579 473.396 258.687 474.267 257.711Z" fill="#6BB7BF"/>
<path d="M474.98 264.238C479.768 263.211 479.849 259.296 479.849 259.296C479.849 259.296 476.056 261.379 474.98 264.238Z" fill="#8AD8DB"/>
<path d="M479.58 261.555C479.58 261.555 482.592 262.707 484.654 259.618C484.654 259.614 481.196 259.105 479.58 261.555Z" fill="#6BB7BF"/>
<path d="M474.21 320.716L473.606 321.449C473.585 321.473 473.558 321.49 473.528 321.497C473.497 321.505 473.465 321.504 473.436 321.493C473.406 321.483 473.381 321.464 473.362 321.438C473.344 321.413 473.333 321.383 473.332 321.352C472.963 301.194 475.164 283.238 477.1 272.63C479.216 261.051 481.458 254.187 481.48 254.118C481.458 254.187 479.45 261.156 477.342 272.703C475.403 283.328 473.217 297.208 474.308 320.452C474.308 320.549 474.273 320.642 474.21 320.716Z" fill="#6BB7BF"/>
<path d="M481.395 251.365C480.644 251.993 477.774 254.668 480.649 256.627C480.649 256.627 482.85 257.273 483.523 255.583C483.923 254.519 484.151 253.398 484.195 252.262C484.198 252.187 484.171 252.113 484.12 252.057C484.07 252.001 483.999 251.966 483.924 251.961C483.713 251.949 483.506 251.907 483.307 251.837C483.036 251.736 482.892 251.333 482.527 251.252C482.288 251.188 482.04 251.165 481.794 251.184C481.646 251.205 481.508 251.267 481.395 251.365Z" fill="#F99746"/>
<path d="M479.854 255.914C480.11 256.127 480.301 256.408 480.403 256.725C480.506 257.042 480.517 257.381 480.434 257.704V258.115C480.513 257.799 480.67 257.508 480.891 257.27C481.112 257.031 481.389 256.851 481.698 256.748C481.698 256.748 480.744 256.872 479.854 255.914Z" fill="#6BB7BF"/>
<path d="M478.303 258.025C478.303 258.025 475.124 258.558 473.715 255.122C473.715 255.122 477.207 255.303 478.303 258.025Z" fill="#6BB7BF"/>
<path d="M471.826 317.08L472.273 317.909C472.289 317.936 472.312 317.959 472.34 317.973C472.368 317.987 472.4 317.992 472.431 317.988C472.462 317.983 472.491 317.97 472.515 317.949C472.538 317.928 472.554 317.9 472.562 317.87C476.924 298.187 478.331 280.15 478.538 269.368C478.763 257.601 477.927 250.429 477.92 250.358C477.92 250.429 478.512 257.657 478.287 269.39C478.079 280.189 477.465 294.228 471.784 316.791C471.761 316.889 471.776 316.993 471.826 317.08Z" fill="#6BB7BF"/>
<path d="M478.557 247.68C479.169 248.445 481.453 251.634 478.244 252.984C478.244 252.984 475.972 253.184 475.635 251.392C475.454 250.269 475.454 249.125 475.635 248.002C475.646 247.927 475.686 247.859 475.747 247.813C475.808 247.767 475.885 247.747 475.96 247.758C476.169 247.787 476.38 247.787 476.589 247.758C476.875 247.716 477.097 247.35 477.472 247.34C477.719 247.324 477.967 247.351 478.205 247.42C478.345 247.471 478.468 247.561 478.557 247.68Z" fill="#F99746"/>
<path d="M479.158 252.441C478.864 252.599 478.622 252.837 478.458 253.128C478.294 253.418 478.217 253.749 478.234 254.082L478.153 254.483C478.137 254.157 478.039 253.84 477.868 253.562C477.697 253.283 477.459 253.053 477.175 252.891C477.175 252.891 478.094 253.204 479.158 252.441Z" fill="#6BB7BF"/>
<path d="M475.681 254.478C475.681 254.478 475.681 251.962 473.512 251.172C473.512 251.177 473.035 253.278 475.681 254.478Z" fill="#6BB7BF"/>
<path d="M480.775 250.438C480.775 250.438 480.712 248.516 482.487 247.963C482.489 247.963 482.917 249.751 480.775 250.438Z" fill="#ED9F4A"/>
<path d="M474.946 261.995C474.88 262.052 474.019 260.127 475.773 258.572C475.77 258.579 476.504 260.641 474.946 261.995Z" fill="#ED9F4A"/>
<path d="M473.717 261.846C473.734 261.583 473.651 261.324 473.484 261.12C473.318 260.916 473.08 260.783 472.819 260.748C472.819 260.748 472.665 261.57 473.717 261.846Z" fill="#6BB7BF"/>
<path d="M482.806 258.579C482.806 258.579 483.574 256.987 486.037 257.263C486.042 257.263 485.667 258.972 482.806 258.579Z" fill="#6BB7BF"/>
<path d="M469.194 324.746H484.979C485.228 324.745 485.474 324.69 485.7 324.586C485.926 324.481 486.127 324.33 486.289 324.141C486.451 323.952 486.571 323.731 486.64 323.492C486.71 323.253 486.727 323.002 486.691 322.755L479.355 272.119C479.321 271.891 479.207 271.682 479.032 271.531C478.858 271.38 478.634 271.297 478.404 271.297H476.058C475.812 271.298 475.574 271.386 475.388 271.547C475.201 271.707 475.078 271.929 475.041 272.173L467.522 322.804C467.486 323.045 467.502 323.29 467.57 323.524C467.637 323.758 467.755 323.974 467.913 324.158C468.072 324.342 468.269 324.49 468.49 324.592C468.711 324.693 468.951 324.746 469.194 324.746Z" fill="#F99746"/>
<path d="M481.482 323.216L477.57 271.31C477.776 271.337 477.969 271.431 478.117 271.577C478.266 271.723 478.363 271.914 478.394 272.12L485.73 322.756C485.766 323.002 485.749 323.254 485.679 323.493C485.61 323.732 485.49 323.953 485.328 324.142C485.166 324.33 484.965 324.482 484.739 324.586C484.513 324.691 484.267 324.745 484.018 324.747H480.864C481.077 324.556 481.245 324.319 481.352 324.054C481.459 323.788 481.504 323.501 481.482 323.216Z" fill="#FFB278"/>
<path d="M341.585 215.689C341.585 215.689 340.565 222.392 342.688 225.872H329.194C329.194 225.872 330.268 220.101 329.73 216.452C329.192 212.804 341.585 215.689 341.585 215.689Z" fill="#FFA68A"/>
<path d="M329.73 216.453C329.73 216.453 325.6 218.182 324.666 206.014C323.932 196.423 324.837 194.726 334.762 194.442C344.163 194.176 345.992 196.915 345.997 200.243C346.023 217.81 333.469 215.597 329.73 216.453Z" fill="#FFA68A"/>
<path d="M338.186 189.067C341.918 190.113 347.234 192.999 347.234 197.939C347.234 202.568 346.784 207.067 345.596 208.209C344.407 209.351 344.757 214.584 339.416 214.596C334.469 214.596 329.439 211.484 328.676 208.598C327.913 205.712 324.306 207.737 323.56 204.729C322.093 198.799 322.338 195.735 326.25 192.503C329.676 189.71 333.938 187.878 338.186 189.067Z" fill="#5B5863"/>
<path d="M345.996 206.636C345.996 206.636 347.163 205.673 347.576 206.861C347.989 208.05 345.275 211.996 344.258 210.681C343.24 209.365 345.996 206.636 345.996 206.636Z" fill="#FFB27D"/>
<path d="M371.244 246V279.095L290.992 277.159C288.926 277.054 281.108 268.561 281.316 266.502L285.568 259.782C287.478 256.987 291.887 252.404 293.039 251.443C297.502 247.729 308.75 238.094 309.729 234.839C311.734 228.139 314.326 225.73 316.935 224.801C320.791 223.426 325.22 222.514 329.715 222.037C330.658 221.937 331.61 221.854 332.556 221.793C335.524 221.597 338.501 221.593 341.47 221.781C347.918 222.199 353.501 223.595 356.435 225.867C359.169 227.992 366.092 238.138 371.244 246Z" fill="#FD3E72"/>
<path d="M334.002 186.398C335.421 186.544 336.852 186.502 338.26 186.274C341.011 185.846 345.491 185.701 347.621 188.699C355.83 200.261 345.726 206.844 347.237 210.952C348.748 215.061 358.61 220.614 356.436 225.869C351.037 238.94 341.884 228.774 332.99 225.81C331.278 225.238 332.112 216.227 341.304 211.642C344.065 210.263 327.4 207.314 324.676 206.018C320.719 204.122 320.519 200.819 321.137 197.669C322.13 192.526 326.603 185.591 334.002 186.398Z" fill="#5B5863"/>
<path d="M329.352 206.999C329.352 206.999 329.513 205.453 328.269 205.568C325.158 205.854 325.234 210.327 326.921 210.677C328.608 211.026 329.352 206.999 329.352 206.999Z" fill="#FFB27D"/>
<path d="M227.076 202.391C227.076 202.391 228.176 209.634 225.885 213.395H240.462C240.462 213.395 239.3 207.162 239.88 203.22C240.459 199.278 227.076 202.391 227.076 202.391Z" fill="#FFA68A"/>
<path d="M233.501 205.815C233.501 205.815 244.349 205.081 245.356 191.952C246.151 181.594 245.173 179.76 234.452 179.454C224.299 179.163 222.321 182.122 222.316 185.716C222.286 204.683 229.461 204.876 233.501 205.815Z" fill="#FFA68A"/>
<path d="M230.743 173.638C226.716 174.766 220.962 177.883 220.962 183.219C220.962 188.22 221.451 193.079 222.732 194.324C224.014 195.568 227.232 203.663 233.003 203.675C238.346 203.675 241.073 201.107 241.894 197.992C242.716 194.876 245.734 193.813 246.541 190.565C248.13 184.158 247.854 180.85 243.623 177.36C239.945 174.33 235.331 172.354 230.743 173.638Z" fill="#B22929"/>
<path d="M222.315 192.609C222.315 192.609 221.058 191.57 220.603 192.854C220.148 194.138 223.09 198.4 224.19 196.977C225.291 195.554 222.315 192.609 222.315 192.609Z" fill="#FFB27D"/>
<path d="M211.041 213.395C218.133 207.9 239.505 207.177 253.708 212.236C256.527 213.241 259.332 215.843 261.492 223.081C262.541 226.588 274.697 237 279.516 241.016C280.761 242.053 285.525 247.002 287.586 250.022L292.179 257.28C292.404 259.505 283.96 268.678 281.727 268.793L186.282 271.091L182.667 256.532C182.384 255.388 182.369 254.193 182.623 253.042C182.878 251.892 183.395 250.815 184.135 249.897C186.24 247.281 189.196 244.234 189.935 243.07C194.346 236.103 206.977 216.538 211.041 213.395Z" fill="#DF3563"/>
<path d="M233.19 171.159C233.19 171.159 225.365 169.709 220.577 173.24C215.789 176.771 214.965 182.195 213.331 186.624C211.698 191.052 206.015 192.104 208.365 197.792C214.197 211.911 236.936 208.033 246.544 204.832C248.395 204.216 246.62 201.223 243.982 200.174C240.883 198.951 242.429 193.351 245.368 191.942C249.645 189.893 249.853 186.318 249.19 182.924C248.004 176.908 242.426 168.604 233.19 171.159Z" fill="#5B5863"/>
<path d="M242.481 192.341C242.481 192.341 243.144 190.754 244.193 191.737C245.242 192.72 244.592 198.146 242.87 197.361C241.149 196.576 242.481 192.341 242.481 192.341Z" fill="#FFA68A"/>
<path d="M275.086 239.047C275.086 239.047 283.659 237.597 286.163 238.257C288.667 238.918 293.812 243.796 292.89 245.906C291.968 248.017 283.395 244.476 282.209 244.476H273.724L275.086 239.047Z" fill="#FFB27D"/>
<path d="M165.517 213.55L173.587 218.836L185.239 216.665C185.078 215.724 184.307 211.826 183.608 208.294C183.566 208.087 183.522 207.879 183.483 207.676C182.884 204.67 182.366 202.091 182.366 202.091L171.484 197.288L167.41 195.498C167.41 195.561 167.723 198.833 167.767 199.31C168.535 207.791 165.517 213.55 165.517 213.55Z" fill="#FFA68A"/>
<path d="M195.671 272.98H144.932C149.578 241.828 156.306 212.963 164.326 210.605C167.882 209.561 186.907 215.711 186.907 215.711C189.003 221.489 190.653 227.418 191.844 233.448C192.468 236.612 194.292 256.344 195.671 272.98Z" fill="#FD3E72"/>
<path d="M168.59 199.457C170.979 203.507 179.883 207.006 183.597 208.292C183.556 208.084 183.512 207.876 183.472 207.674C182.873 204.668 182.355 202.088 182.355 202.088L171.473 197.286C169.067 197.256 167.604 197.794 168.59 199.457Z" fill="#FCA56B"/>
<path d="M186.456 201.428C186.456 201.428 168.928 206.896 165.697 195.928C162.467 184.961 158.019 178.278 169.074 174.323C180.13 170.369 183.549 173.91 185.52 177.307C187.491 180.703 190.934 199.724 186.456 201.428Z" fill="#FFA68A"/>
<path d="M184.823 176.251C184.823 176.251 183.705 189.016 181.067 188.461C178.428 187.906 176.032 187.495 176.42 191.344C176.809 195.193 180.468 199.634 172.334 200.314C164.201 200.993 152.505 180.017 154.728 176.043C161.183 164.582 194.142 162.271 184.823 176.251Z" fill="#5B5863"/>
<path d="M182.245 210.884C182.018 210.789 169.197 205.037 167.695 205.531C166.194 206.025 164.328 210.608 164.328 210.608L186.906 215.711C186.906 215.711 185.128 212.097 182.245 210.884Z" fill="#163560"/>
<path d="M173.15 212.601C173.15 212.601 227.085 232.601 236.842 233.188C246.599 233.775 265.857 236.541 275.085 239.057C275.085 239.057 275.909 240.666 275.555 241.85C274.963 243.826 273.723 244.486 273.723 244.486L190.95 244.241L173.15 212.601Z" fill="#FD3E72"/>
<path d="M164.328 210.608C164.328 210.608 151.566 211.806 148.923 215.712C146.279 219.617 140.665 244.941 143.653 247.049C146.641 249.157 153.564 248.983 153.564 248.983L164.328 210.608Z" fill="#FD3E72"/>
<path d="M135.831 274.205H127.549C125.277 274.208 123.033 274.699 120.968 275.647C118.903 276.594 117.066 277.974 115.581 279.694C114.097 281.413 112.999 283.432 112.364 285.613C111.729 287.794 111.57 290.087 111.899 292.335L120.854 353.613C121.323 356.827 122.933 359.765 125.39 361.889C127.847 364.013 130.987 365.182 134.235 365.182H158.82L135.831 274.205Z" fill="#9E906A"/>
<path d="M423.566 274.205H431.839C434.112 274.205 436.359 274.695 438.427 275.641C440.494 276.586 442.334 277.966 443.82 279.686C445.307 281.406 446.406 283.426 447.043 285.608C447.68 287.791 447.84 290.085 447.511 292.335L438.554 353.613C438.085 356.827 436.474 359.765 434.017 361.889C431.56 364.013 428.421 365.182 425.173 365.182H400.577L423.566 274.205Z" fill="#9E906A"/>
<path d="M405.968 365.183H154.275C147.619 365.183 142.095 361.116 141.61 355.866L132.318 255.07C131.78 249.248 137.605 244.291 144.983 244.291H414.737C422.095 244.291 427.913 249.221 427.406 255.028L418.637 355.824C418.178 361.097 412.644 365.183 405.968 365.183Z" fill="#8E7D4E"/>
<path d="M158.82 365.182L156.93 385.99C156.901 386.296 156.937 386.604 157.035 386.895C157.132 387.186 157.29 387.454 157.497 387.681C157.705 387.907 157.957 388.088 158.238 388.211C158.52 388.334 158.824 388.397 159.131 388.396C159.572 388.396 160.001 388.25 160.35 387.98C160.7 387.71 160.949 387.332 161.06 386.904L166.738 365.182H158.82Z" fill="#8E7D4E"/>
<path d="M398.678 365.182L400.568 385.99C400.597 386.296 400.561 386.604 400.464 386.895C400.366 387.186 400.208 387.454 400.001 387.681C399.794 387.907 399.541 388.088 399.26 388.211C398.979 388.334 398.675 388.397 398.368 388.396C397.926 388.396 397.497 388.249 397.147 387.98C396.798 387.71 396.548 387.332 396.436 386.904L390.76 365.182H398.678Z" fill="#8E7D4E"/>
<path d="M554.429 388.24H49.3786C49.0631 388.24 48.8073 388.569 48.8073 388.974V389.218C48.8073 389.624 49.0631 389.952 49.3786 389.952H554.429C554.744 389.952 555 389.624 555 389.218V388.974C555 388.569 554.744 388.24 554.429 388.24Z" fill="#2E3552"/>
<defs>
<filter id="filter0_d" x="236.586" y="72.5427" width="83.3269" height="93.4571" filterUnits="userSpaceOnUse" color-interpolation-filters="sRGB">
<feFlood flood-opacity="0" result="BackgroundImageFix"/>
<feColorMatrix in="SourceAlpha" type="matrix" values="0 0 0 0 0 0 0 0 0 0 0 0 0 0 0 0 0 0 127 0" result="hardAlpha"/>
<feOffset dy="4"/>
<feGaussianBlur stdDeviation="4"/>
<feColorMatrix type="matrix" values="0 0 0 0 0 0 0 0 0 0 0 0 0 0 0 0 0 0 0.3 0"/>
<feBlend mode="normal" in2="BackgroundImageFix" result="effect1_dropShadow"/>
<feBlend mode="normal" in="SourceGraphic" in2="effect1_dropShadow" result="shape"/>
</filter>
<filter id="filter1_d" x="306.896" y="63.0532" width="145.896" height="102.371" filterUnits="userSpaceOnUse" color-interpolation-filters="sRGB">
<feFlood flood-opacity="0" result="BackgroundImageFix"/>
<feColorMatrix in="SourceAlpha" type="matrix" values="0 0 0 0 0 0 0 0 0 0 0 0 0 0 0 0 0 0 127 0" result="hardAlpha"/>
<feOffset dy="20"/>
<feGaussianBlur stdDeviation="14.5"/>
<feColorMatrix type="matrix" values="0 0 0 0 0.1375 0 0 0 0 0.1375 0 0 0 0 0.1375 0 0 0 0.07 0"/>
<feBlend mode="normal" in2="BackgroundImageFix" result="effect1_dropShadow"/>
<feBlend mode="normal" in="SourceGraphic" in2="effect1_dropShadow" result="shape"/>
</filter>
<filter id="filter2_d" x="351.89" y="132.258" width="188.308" height="123.781" filterUnits="userSpaceOnUse" color-interpolation-filters="sRGB">
<feFlood flood-opacity="0" result="BackgroundImageFix"/>
<feColorMatrix in="SourceAlpha" type="matrix" values="0 0 0 0 0 0 0 0 0 0 0 0 0 0 0 0 0 0 127 0" result="hardAlpha"/>
<feOffset dy="20"/>
<feGaussianBlur stdDeviation="14.5"/>
<feColorMatrix type="matrix" values="0 0 0 0 0.1375 0 0 0 0 0.1375 0 0 0 0 0.1375 0 0 0 0.07 0"/>
<feBlend mode="normal" in2="BackgroundImageFix" result="effect1_dropShadow"/>
<feBlend mode="normal" in="SourceGraphic" in2="effect1_dropShadow" result="shape"/>
</filter>
<filter id="filter3_d" x="69.6938" y="31.9971" width="160.844" height="120.349" filterUnits="userSpaceOnUse" color-interpolation-filters="sRGB">
<feFlood flood-opacity="0" result="BackgroundImageFix"/>
<feColorMatrix in="SourceAlpha" type="matrix" values="0 0 0 0 0 0 0 0 0 0 0 0 0 0 0 0 0 0 127 0" result="hardAlpha"/>
<feOffset dy="20"/>
<feGaussianBlur stdDeviation="14.5"/>
<feColorMatrix type="matrix" values="0 0 0 0 0.1375 0 0 0 0 0.1375 0 0 0 0 0.1375 0 0 0 0.07 0"/>
<feBlend mode="normal" in2="BackgroundImageFix" result="effect1_dropShadow"/>
<feBlend mode="normal" in="SourceGraphic" in2="effect1_dropShadow" result="shape"/>
</filter>
<filter id="filter4_d" x="0" y="162.581" width="183.641" height="123.781" filterUnits="userSpaceOnUse" color-interpolation-filters="sRGB">
<feFlood flood-opacity="0" result="BackgroundImageFix"/>
<feColorMatrix in="SourceAlpha" type="matrix" values="0 0 0 0 0 0 0 0 0 0 0 0 0 0 0 0 0 0 127 0" result="hardAlpha"/>
<feOffset dy="20"/>
<feGaussianBlur stdDeviation="14.5"/>
<feColorMatrix type="matrix" values="0 0 0 0 0.1375 0 0 0 0 0.1375 0 0 0 0 0.1375 0 0 0 0.07 0"/>
<feBlend mode="normal" in2="BackgroundImageFix" result="effect1_dropShadow"/>
<feBlend mode="normal" in="SourceGraphic" in2="effect1_dropShadow" result="shape"/>
</filter>
<linearGradient id="paint0_linear" x1="286.691" y1="119.133" x2="237.449" y2="85.2505" gradientUnits="userSpaceOnUse">
<stop stop-color="#E2E2E2"/>
<stop offset="1" stop-color="white"/>
</linearGradient>
<linearGradient id="paint1_linear" x1="292.941" y1="152.305" x2="245.203" y2="111.629" gradientUnits="userSpaceOnUse">
<stop stop-color="#E7E7E7"/>
<stop offset="1" stop-color="white"/>
</linearGradient>
<linearGradient id="paint2_linear" x1="379.519" y1="85.0762" x2="379.519" y2="103.306" gradientUnits="userSpaceOnUse">
<stop stop-color="#A5CD39"/>
<stop offset="0.2478" stop-color="#A1CA3A"/>
<stop offset="0.5044" stop-color="#95C33D"/>
<stop offset="0.7643" stop-color="#81B941"/>
<stop offset="1" stop-color="#66AE45"/>
</linearGradient>
<linearGradient id="paint3_linear" x1="179.449" y1="65.8839" x2="128.949" y2="59.1038" gradientUnits="userSpaceOnUse">
<stop stop-color="#101C50"/>
<stop offset="0.236" stop-color="#0D267A"/>
<stop offset="0.4973" stop-color="#085AA4"/>
<stop offset="0.6549" stop-color="#058BBF"/>
<stop offset="1" stop-color="#B1FFFF"/>
</linearGradient>
<clipPath id="clip0">
<rect width="55.993" height="18.2303" fill="white" transform="translate(351.522 85.0762)"/>
</clipPath>
<clipPath id="clip1">
<rect width="91.4663" height="24.4328" fill="white" transform="translate(400.312 161.931)"/>
</clipPath>
<clipPath id="clip2">
<rect width="85.4961" height="26.3123" fill="white" transform="translate(49.3923 191.315)"/>
</clipPath>
</defs>
</svg>
