<svg width="78" height="137" viewBox="0 0 78 137" fill="none" xmlns="http://www.w3.org/2000/svg">
<path d="M0 6.55001C0 5.10886 0 4.38829 0.147468 3.79462C0.59393 1.99728 1.99728 0.59393 3.79462 0.147468C4.38829 0 5.10886 0 6.55 0H59.9278C60.5045 0 60.7928 0 61.0711 0.0312597C61.9002 0.124415 62.6929 0.423595 63.3769 0.901534C63.6064 1.06191 63.8228 1.25243 64.2557 1.63346L75.7778 11.7759C76.2933 12.2297 76.551 12.4565 76.7676 12.7048C77.4141 13.4458 77.8277 14.361 77.9568 15.3358C78 15.6625 78 16.0058 78 16.6925V94.1515C78 95.5926 78 96.3132 77.8525 96.9069C77.4061 98.7042 76.0027 100.108 74.2054 100.554C73.6117 100.701 72.8911 100.701 71.45 100.701H6.55C5.10886 100.701 4.38829 100.701 3.79462 100.554C1.99728 100.108 0.59393 98.7042 0.147468 96.9069C0 96.3132 0 95.5926 0 94.1515V6.55001Z" fill="#FCDCE5"/>
<rect opacity="0.2" x="5.62109" y="9.63379" width="66.6316" height="27.2949" fill="#FD3E72"/>
<rect opacity="0.2" x="5.62109" y="39.3369" width="66.6316" height="6.42233" fill="#FD3E72"/>
<rect opacity="0.2" x="5.62109" y="48.167" width="66.6316" height="6.42233" fill="#FD3E72"/>
<rect opacity="0.2" x="5.62109" y="56.998" width="66.6316" height="6.42233" fill="#FD3E72"/>
<rect opacity="0.2" x="44.1543" y="65.8291" width="28.0977" height="6.42233" fill="#FD3E72"/>
<rect opacity="0.2" x="44.1543" y="74.6592" width="28.0977" height="6.42233" fill="#FD3E72"/>
<rect opacity="0.2" x="44.1543" y="83.4902" width="28.0977" height="6.42233" fill="#FD3E72"/>
<rect opacity="0.2" x="5.62109" y="65.8291" width="33.7172" height="27.2949" fill="#FD3E72"/>
<path d="M24.9842 50.2008C24.4669 49.6691 24.1467 48.9352 24.146 48.1245L24.1375 37.6161C24.1309 29.2019 30.7884 22.3621 38.9781 22.369C47.1678 22.3759 53.8363 29.2283 53.843 37.6443L53.8514 48.1494C53.8527 49.7707 52.575 51.0839 50.9975 51.0825C49.4201 51.081 48.14 49.7658 48.1388 48.1446L48.1305 37.6394C48.1263 32.4607 44.0228 28.2441 38.9828 28.2398C33.9429 28.2355 29.8461 32.4439 29.8502 37.6208L29.8586 48.1291C29.8599 49.7504 28.5821 51.0635 27.0046 51.0621C26.2159 51.0616 25.5014 50.7323 24.9842 50.2008Z" fill="white"/>
<path d="M28.2113 75.2359C24.2565 75.2359 21.0391 72.7771 21.0391 69.755V52.5815C21.0391 49.5593 24.2565 47.1006 28.2113 47.1006H50.6843C54.6391 47.1006 57.8565 49.5593 57.8565 52.5815V69.755C57.8565 72.7771 54.6391 75.2359 50.6843 75.2359H28.2113Z" fill="white"/>
<path d="M54.0739 54.0243C54.0739 52.3518 52.1083 50.9834 49.7059 50.9834H29.1765C26.7742 50.9834 24.8086 52.3518 24.8086 54.0243V68.3164C24.8086 69.9889 26.7742 71.3573 29.1765 71.3573H49.7059C52.1083 71.3573 54.0739 69.9889 54.0739 68.3164V54.0243Z" fill="white"/>
<path d="M42.7556 57.3128C42.7556 55.4249 41.0649 53.8945 38.9794 53.8945C36.8939 53.8945 35.2031 55.4249 35.2031 57.3128C35.2031 58.5636 35.9476 59.6703 37.0551 60.2662L36.0047 68.4475H39.0723H42.1399L41.0799 60.1693C42.0903 59.556 42.7556 58.4968 42.7556 57.3128Z" fill="#FD3E72"/>
<path d="M62.2812 0L77.4156 13.3881H62.2812V0Z" fill="#5B5863"/>
<g filter="url(#filter0_d)">
<path d="M39.337 81.082C39.337 81.082 57.8152 111.138 52.9806 120.472C50.0769 126.078 45.5877 128.948 39.337 128.948C33.0862 128.948 28.597 126.078 25.6933 120.472C20.8587 111.138 39.337 81.082 39.337 81.082Z" fill="url(#paint0_linear)"/>
</g>
<path d="M27.5977 115.854C28.0492 111.789 28.5008 110.886 29.8555 107.274C30.1942 106.37 31.5296 106.607 31.2102 107.725C30.3071 110.886 29.4039 112.241 29.4039 115.854C29.4039 118.111 29.8555 119.466 31.6618 121.272C32.1134 122.176 31.6618 123.53 30.3071 122.627C28.5008 120.821 27.5989 119.466 27.5977 115.854Z" fill="white" stroke="white"/>
<defs>
<filter id="filter0_d" x="19.8867" y="79.082" width="38.9005" height="57.8664" filterUnits="userSpaceOnUse" color-interpolation-filters="sRGB">
<feFlood flood-opacity="0" result="BackgroundImageFix"/>
<feColorMatrix in="SourceAlpha" type="matrix" values="0 0 0 0 0 0 0 0 0 0 0 0 0 0 0 0 0 0 127 0"/>
<feOffset dy="3"/>
<feGaussianBlur stdDeviation="2.5"/>
<feColorMatrix type="matrix" values="0 0 0 0 0 0 0 0 0 0 0 0 0 0 0 0 0 0 0.25 0"/>
<feBlend mode="normal" in2="BackgroundImageFix" result="effect1_dropShadow"/>
<feBlend mode="normal" in="SourceGraphic" in2="effect1_dropShadow" result="shape"/>
</filter>
<linearGradient id="paint0_linear" x1="15.5" y1="76.5" x2="73" y2="153.5" gradientUnits="userSpaceOnUse">
<stop stop-color="#FE6556"/>
<stop offset="0.453125" stop-color="#FD3E72"/>
<stop offset="1" stop-color="#49A8FF"/>
</linearGradient>
</defs>
</svg>
