<svg width="78" height="114" viewBox="0 0 78 114" fill="none" xmlns="http://www.w3.org/2000/svg">
<path d="M77.2012 0H0.798811C0.35764 0 0 0.875718 0 1.95598V111.33C0 112.41 0.35764 113.286 0.798811 113.286H77.2012C77.6424 113.286 78 112.41 78 111.33V1.95598C78 0.875718 77.6424 0 77.2012 0Z" fill="#5B5863"/>
<path d="M74.472 2.16699H3.52691C3.11725 2.16699 2.78516 3.00682 2.78516 4.04281V108.934C2.78516 109.97 3.11725 110.81 3.52691 110.81H74.472C74.8816 110.81 75.2137 109.97 75.2137 108.934V4.04281C75.2137 3.00682 74.8816 2.16699 74.472 2.16699Z" fill="#FFF9FA"/>
<path d="M15.4876 8.60125C16.2812 8.60125 16.9245 7.95795 16.9245 7.1644C16.9245 6.37084 16.2812 5.72754 15.4876 5.72754C14.6941 5.72754 14.0508 6.37084 14.0508 7.1644C14.0508 7.95795 14.6941 8.60125 15.4876 8.60125Z" fill="#5B5863"/>
<path d="M6.78452 8.60125C7.57808 8.60125 8.22138 7.95795 8.22138 7.1644C8.22138 6.37084 7.57808 5.72754 6.78452 5.72754C5.99096 5.72754 5.34766 6.37084 5.34766 7.1644C5.34766 7.95795 5.99096 8.60125 6.78452 8.60125Z" fill="#5B5863"/>
<path d="M10.9603 8.60125C11.7539 8.60125 12.3972 7.95795 12.3972 7.1644C12.3972 6.37084 11.7539 5.72754 10.9603 5.72754C10.1668 5.72754 9.52344 6.37084 9.52344 7.1644C9.52344 7.95795 10.1668 8.60125 10.9603 8.60125Z" fill="#5B5863"/>
<path fill-rule="evenodd" clip-rule="evenodd" d="M6.66797 18.124H72.0312V67.9916H6.66797V18.124ZM6.94922 77.5703H71.4672V87.7129H6.94922V77.5703Z" fill="url(#paint0_linear)"/>
<circle cx="38.8603" cy="56.622" r="28.3095" fill="white"/>
<g filter="url(#filter0_d)">
<circle cx="38.8611" cy="56.6218" r="21.2322" fill="#FD3E72"/>
</g>
<circle cx="38.8577" cy="56.6224" r="15.9241" fill="white"/>
<rect x="24.4727" y="68.1416" width="35.3869" height="5.30804" transform="rotate(-45 24.4727 68.1416)" fill="#FD3E72"/>
<defs>
<filter id="filter0_d" x="12.6289" y="33.3896" width="52.4643" height="52.4643" filterUnits="userSpaceOnUse" color-interpolation-filters="sRGB">
<feFlood flood-opacity="0" result="BackgroundImageFix"/>
<feColorMatrix in="SourceAlpha" type="matrix" values="0 0 0 0 0 0 0 0 0 0 0 0 0 0 0 0 0 0 127 0"/>
<feOffset dy="3"/>
<feGaussianBlur stdDeviation="2.5"/>
<feColorMatrix type="matrix" values="0 0 0 0 0 0 0 0 0 0 0 0 0 0 0 0 0 0 0.25 0"/>
<feBlend mode="normal" in2="BackgroundImageFix" result="effect1_dropShadow"/>
<feBlend mode="normal" in="SourceGraphic" in2="effect1_dropShadow" result="shape"/>
</filter>
<linearGradient id="paint0_linear" x1="-3" y1="10.5" x2="108" y2="120.5" gradientUnits="userSpaceOnUse">
<stop stop-color="#FE6556"/>
<stop offset="0.291667" stop-color="#FD3E72"/>
<stop offset="1" stop-color="#49A8FF"/>
</linearGradient>
</defs>
</svg>
