<svg width="78" height="101" viewBox="0 0 78 101" fill="none" xmlns="http://www.w3.org/2000/svg">
<path d="M0 6.55001C0 5.10886 0 4.38829 0.147468 3.79462C0.59393 1.99728 1.99728 0.59393 3.79462 0.147468C4.38829 0 5.10886 0 6.55 0H59.9278C60.5045 0 60.7928 0 61.0711 0.0312597C61.9002 0.124415 62.6929 0.423595 63.3769 0.901534C63.6064 1.06191 63.8228 1.25243 64.2557 1.63346L75.7778 11.7759C76.2933 12.2297 76.551 12.4565 76.7676 12.7048C77.4141 13.4458 77.8277 14.361 77.9568 15.3358C78 15.6625 78 16.0058 78 16.6925V94.1515C78 95.5926 78 96.3132 77.8525 96.9069C77.4061 98.7042 76.0027 100.108 74.2054 100.554C73.6117 100.701 72.8911 100.701 71.45 100.701H6.55C5.10886 100.701 4.38829 100.701 3.79462 100.554C1.99728 100.108 0.59393 98.7042 0.147468 96.9069C0 96.3132 0 95.5926 0 94.1515V6.55001Z" fill="#FCDCE5"/>
<path d="M62.2852 0L77.4195 13.3881H62.2852V0Z" fill="#5B5863"/>
<rect opacity="0.2" x="10" y="20" width="58" height="30" fill="#FE5B87"/>
<rect opacity="0.2" x="10" y="55" width="58" height="5" fill="#FE5B87"/>
<rect opacity="0.2" x="10" y="61" width="58" height="5" fill="#FE5B87"/>
<rect opacity="0.2" x="10" y="75" width="58" height="5" fill="#FE5B87"/>
<rect opacity="0.2" x="10" y="82" width="58" height="5" fill="#FE5B87"/>
<g filter="url(#filter0_d)">
<circle cx="39.0897" cy="50.0369" r="26.0897" fill="white"/>
<circle cx="39.0868" cy="50.037" r="19.5673" fill="#FD3E72"/>
<circle cx="39.0934" cy="50.0368" r="14.6755" fill="white"/>
<rect x="25.8281" y="60.6523" width="32.6121" height="4.89182" transform="rotate(-45 25.8281 60.6523)" fill="#FD3E72"/>
</g>
<defs>
<filter id="filter0_d" x="6" y="20.9473" width="66.1794" height="66.1794" filterUnits="userSpaceOnUse" color-interpolation-filters="sRGB">
<feFlood flood-opacity="0" result="BackgroundImageFix"/>
<feColorMatrix in="SourceAlpha" type="matrix" values="0 0 0 0 0 0 0 0 0 0 0 0 0 0 0 0 0 0 127 0"/>
<feOffset dy="4"/>
<feGaussianBlur stdDeviation="3.5"/>
<feColorMatrix type="matrix" values="0 0 0 0 0 0 0 0 0 0 0 0 0 0 0 0 0 0 0.2 0"/>
<feBlend mode="normal" in2="BackgroundImageFix" result="effect1_dropShadow"/>
<feBlend mode="normal" in="SourceGraphic" in2="effect1_dropShadow" result="shape"/>
</filter>
</defs>
</svg>
