<svg width="78" height="61" viewBox="0 0 78 61" fill="none" xmlns="http://www.w3.org/2000/svg">
<rect width="78" height="47.0476" rx="2" fill="url(#paint0_linear)"/>
<path d="M3.3125 4.71436C3.3125 4.16207 3.76022 3.71436 4.3125 3.71436H72.8839C73.4362 3.71436 73.8839 4.16207 73.8839 4.71436V42.3334C73.8839 42.8857 73.4362 43.3334 72.8839 43.3334H4.3125C3.76021 43.3334 3.3125 42.8857 3.3125 42.3334V4.71436Z" fill="#FFE8EE"/>
<path d="M33.2914 31.1677L27.0127 32.9367C26.8376 32.7042 26.6234 32.504 26.3799 32.3449C25.8838 32.0232 25.2207 32.1647 24.899 32.6607C24.5773 33.1568 24.7187 33.8199 25.2148 34.1416C25.418 34.2874 25.4744 34.565 25.3444 34.7785C25.039 35.2847 25.2018 35.9427 25.7082 36.2481C26.2145 36.5535 26.8725 36.3907 27.1779 35.8843C27.1788 35.8828 27.1796 35.8813 27.1805 35.8799C27.3381 35.6158 27.447 35.3258 27.5025 35.0234L34.1184 33.1592C34.1982 33.1782 34.28 33.188 34.362 33.1884H42.9267C43.0087 33.1881 43.0905 33.1784 43.1704 33.1595L49.7861 35.0235C49.8417 35.326 49.9506 35.616 50.1081 35.88C50.4134 36.3864 51.0712 36.5495 51.5776 36.2444C52.0825 35.9401 52.2465 35.2849 51.9443 34.7786C51.8142 34.5652 51.8707 34.2875 52.0738 34.1418C52.5699 33.8201 52.7114 33.157 52.3897 32.6609C52.068 32.1648 51.405 32.0233 50.9088 32.3451C50.6652 32.5043 50.451 32.7045 50.2758 32.9368L43.9972 31.1677V30.3915L50.2743 28.6229C50.4498 28.8562 50.6644 29.0572 50.9088 29.2168C51.4049 29.5385 52.0678 29.3972 52.3895 28.901C52.7112 28.4049 52.5699 27.742 52.0738 27.4202C51.8708 27.2744 51.8144 26.9968 51.9443 26.7833C52.2526 26.2787 52.0935 25.6198 51.589 25.3115C51.0845 25.0031 50.4255 25.1623 50.1172 25.6668C50.1141 25.6719 50.1111 25.6768 50.1081 25.6819C49.9513 25.9453 49.8426 26.2343 49.7869 26.5357L47.9814 27.0442C48.1781 26.6213 48.28 26.1606 48.2796 25.6942V20.3413C48.2796 15.0198 43.9657 10.7061 38.6443 10.7061C33.323 10.7061 29.0091 15.0198 29.0091 20.3413V25.6942C29.0088 26.1606 29.1107 26.6212 29.3075 27.0439L27.502 26.5354C27.4463 26.234 27.3377 25.945 27.1808 25.6816C26.8725 25.1771 26.2135 25.0181 25.709 25.3265C25.2104 25.6312 25.0484 26.2793 25.3446 26.7829C25.4746 26.9964 25.4181 27.274 25.2151 27.4198C24.719 27.7416 24.5776 28.4045 24.8994 28.9006C25.2211 29.3967 25.8841 29.5381 26.3802 29.2164C26.6245 29.0568 26.8392 28.8558 27.0146 28.6225L33.2914 30.3915V31.1677ZM31.1503 20.3414C31.1503 16.2026 34.5055 12.8474 38.6443 12.8474C42.7832 12.8474 46.1384 16.2026 46.1384 20.3414V25.6943C46.1377 26.2853 45.6588 26.7642 45.0678 26.7649H42.9267C42.3354 26.7649 41.8561 27.2443 41.8561 27.8355V31.0472H35.4326V27.8355C35.4326 27.2443 34.9532 26.7649 34.362 26.7649H32.2208C31.6299 26.7642 31.1509 26.2853 31.1503 25.6943V20.3414Z" fill="#FD3E72"/>
<path d="M35.5201 23.5528C36.7026 23.5528 37.6612 22.5942 37.6612 21.4117C37.6612 20.2291 36.7026 19.2705 35.5201 19.2705C34.3375 19.2705 33.3789 20.2291 33.3789 21.4117C33.3789 22.5942 34.3375 23.5528 35.5201 23.5528Z" fill="#FD3E72"/>
<path d="M41.9419 23.5528C43.1245 23.5528 44.0831 22.5942 44.0831 21.4117C44.0831 20.2291 43.1245 19.2705 41.9419 19.2705C40.7594 19.2705 39.8008 20.2291 39.8008 21.4117C39.8008 22.5942 40.7594 23.5528 41.9419 23.5528Z" fill="#FD3E72"/>
<path d="M37.6641 24.6235H39.8052V27.8353H37.6641V24.6235Z" fill="#FD3E72"/>
<rect x="19.8086" y="56.9531" width="39.6191" height="3.71429" fill="#5B5863"/>
<rect x="32.1914" y="47.0479" width="14.8571" height="9.90476" fill="#6C6875"/>
<g filter="url(#filter0_d)">
<path fill-rule="evenodd" clip-rule="evenodd" d="M38.3639 45.8084C50.2082 45.8084 59.8099 36.2068 59.8099 24.3625C59.8099 12.5182 50.2082 2.9165 38.3639 2.9165C26.5197 2.9165 16.918 12.5182 16.918 24.3625C16.918 36.2068 26.5197 45.8084 38.3639 45.8084ZM38.3623 41.7874C47.9858 41.7874 55.7872 33.9861 55.7872 24.3626C55.7872 14.7391 47.9858 6.93774 38.3623 6.93774C28.7389 6.93774 20.9375 14.7391 20.9375 24.3626C20.9375 33.9861 28.7389 41.7874 38.3623 41.7874Z" fill="white"/>
<rect x="23.7734" y="37.229" width="37.1115" height="4.7992" transform="rotate(-45 23.7734 37.229)" fill="white"/>
</g>
<defs>
<filter id="filter0_d" x="13.918" y="2.9165" width="48.8919" height="49.8919" filterUnits="userSpaceOnUse" color-interpolation-filters="sRGB">
<feFlood flood-opacity="0" result="BackgroundImageFix"/>
<feColorMatrix in="SourceAlpha" type="matrix" values="0 0 0 0 0 0 0 0 0 0 0 0 0 0 0 0 0 0 127 0"/>
<feOffset dy="4"/>
<feGaussianBlur stdDeviation="1.5"/>
<feColorMatrix type="matrix" values="0 0 0 0 0 0 0 0 0 0 0 0 0 0 0 0 0 0 0.15 0"/>
<feBlend mode="normal" in2="BackgroundImageFix" result="effect1_dropShadow"/>
<feBlend mode="normal" in="SourceGraphic" in2="effect1_dropShadow" result="shape"/>
</filter>
<linearGradient id="paint0_linear" x1="-3.5" y1="-8.49999" x2="96.5" y2="68" gradientUnits="userSpaceOnUse">
<stop stop-color="#FE6556"/>
<stop offset="0.494792" stop-color="#FD3E72"/>
<stop offset="1" stop-color="#49A8FF"/>
</linearGradient>
</defs>
</svg>
