<svg width="86" height="65" viewBox="0 0 86 65" fill="none" xmlns="http://www.w3.org/2000/svg">
<rect width="71.5" height="47.6667" rx="10" fill="#5B5863"/>
<rect x="2.98047" y="2.97949" width="65.5417" height="41.7083" rx="8" fill="#FFEAEF"/>
<g filter="url(#filter0_d)">
<circle cx="65.5404" cy="41.7083" r="12.4583" fill="white"/>
<circle cx="65.5404" cy="41.7083" r="14.4583" stroke="url(#paint0_linear)" stroke-width="4"/>
</g>
<path d="M72.3125 33.9219C71.0957 33.9219 70.1147 34.9509 70.1147 36.2272V42.904C70.1147 43.1832 70.0995 43.4624 70.0691 43.7575C70.0387 44.0447 69.9626 44.308 69.8409 44.5473C69.7193 44.7866 69.5368 44.986 69.2934 45.1455C69.05 45.3051 68.7002 45.3849 68.2591 45.3849C67.8181 45.3849 67.4682 45.3051 67.2249 45.1455C66.9815 44.986 66.799 44.7866 66.6774 44.5473C66.5557 44.308 66.4796 44.0447 66.4492 43.7575C66.4188 43.4704 66.4036 43.1832 66.4036 42.904V36.0198C65.1868 36.0198 64.2058 37.0489 64.2058 38.3252V42.896C64.2058 43.1752 64.1906 43.4544 64.1602 43.7496C64.1297 44.0367 64.0537 44.3 63.932 44.5393C63.8103 44.7786 63.6278 44.978 63.3845 45.1376C63.1411 45.2971 62.7913 45.3769 62.3502 45.3769C61.9091 45.3769 61.5593 45.2971 61.316 45.1376C61.0726 44.978 60.8901 44.7786 60.7684 44.5393C60.6468 44.3 60.5707 44.0367 60.5403 43.7496C60.5099 43.4624 60.4947 43.1752 60.4947 42.896V38.1178C59.2779 38.1178 58.2969 39.1548 58.2969 40.4231V42.896C58.2969 43.5501 58.3577 44.1245 58.4794 44.6191C58.6011 45.1136 58.7532 45.5364 58.9357 45.8954C59.1258 46.2543 59.3387 46.5495 59.5821 46.7888C59.8254 47.0281 60.0764 47.2196 60.3274 47.3711C60.9129 47.7221 61.5897 47.9136 62.3426 47.9375C63.1107 47.9136 63.7875 47.7221 64.3807 47.3711C64.6317 47.2196 64.8826 47.0281 65.1184 46.7888C65.1792 46.725 65.24 46.6612 65.3009 46.5894C65.3617 46.6612 65.4226 46.725 65.4834 46.7888C65.7268 47.0281 65.9777 47.2196 66.2287 47.3711C66.8142 47.7221 67.4911 47.9136 68.2439 47.9375C69.012 47.9136 69.6888 47.7221 70.282 47.3711C70.533 47.2196 70.7839 47.0281 71.0197 46.7888C71.263 46.5495 71.476 46.2543 71.6661 45.8954C71.8562 45.5364 72.0083 45.1136 72.1224 44.6191C72.2365 44.1245 72.2897 43.5581 72.2897 42.896L72.3125 33.9219Z" fill="#FD3E72"/>
<path d="M31.117 14.0381C30.9672 13.9357 30.7892 13.8912 30.6149 13.9047C30.345 13.9255 30.0682 14.0601 29.9212 14.2873C29.8397 14.4133 29.793 14.5756 29.793 14.7619V32.8586C29.793 33.2206 29.9695 33.492 30.2343 33.673C30.4109 33.7635 30.4991 33.7635 30.6757 33.7635C30.724 33.7635 30.7724 33.7567 30.8189 33.745C31.0402 33.6893 31.2141 33.5203 31.4063 33.3972L45.2405 24.5341C45.5053 24.3532 45.6819 24.0817 45.6819 23.8103C45.6819 23.6508 45.621 23.4602 45.517 23.3117C45.379 23.1143 45.138 23.0207 44.9352 22.8908L31.117 14.0381Z" fill="#FD3E72"/>
<defs>
<filter id="filter0_d" x="45.082" y="23.25" width="40.9167" height="40.9167" filterUnits="userSpaceOnUse" color-interpolation-filters="sRGB">
<feFlood flood-opacity="0" result="BackgroundImageFix"/>
<feColorMatrix in="SourceAlpha" type="matrix" values="0 0 0 0 0 0 0 0 0 0 0 0 0 0 0 0 0 0 127 0"/>
<feOffset dy="2"/>
<feGaussianBlur stdDeviation="2"/>
<feColorMatrix type="matrix" values="0 0 0 0 0 0 0 0 0 0 0 0 0 0 0 0 0 0 0.25 0"/>
<feBlend mode="normal" in2="BackgroundImageFix" result="effect1_dropShadow"/>
<feBlend mode="normal" in="SourceGraphic" in2="effect1_dropShadow" result="shape"/>
</filter>
<linearGradient id="paint0_linear" x1="49.5" y1="23" x2="90" y2="66.5" gradientUnits="userSpaceOnUse">
<stop stop-color="#FD3E72"/>
<stop offset="0.359375" stop-color="#FD3E72"/>
<stop offset="1" stop-color="#49A8FF"/>
</linearGradient>
</defs>
</svg>
