<svg width="510" height="468" viewBox="0 0 510 468" fill="none" xmlns="http://www.w3.org/2000/svg">
<g clip-path="url(#clip0)">
<path d="M99.0458 29.0008C99.0458 29.0008 157.04 -15.3675 229.853 7.3815C302.666 30.1305 331.509 94.4057 372.316 139.238C393.725 162.724 426.016 172.142 451.695 190.503C533.761 249.213 517.443 374.933 451.29 420.491C394.022 459.936 323.944 462.112 233.861 428.815C143.778 395.518 79.2428 375.302 25.4832 286.542C-28.2764 197.781 27.4694 89.4587 99.0458 29.0008Z" fill="#FFD6E1"/>
<path d="M25.8846 263.459C25.8846 263.459 25.4088 257.644 32.8899 248.821C40.3711 239.997 45.2356 234.919 45.2356 234.919C45.2356 234.919 50.4093 248 43.511 256.741C38.4123 262.943 32.8026 268.707 26.7409 273.972L25.8846 263.459Z" fill="#FD3E72"/>
<path d="M40.6986 298.837C40.6986 298.837 40.2229 293.022 47.704 284.199C55.1852 275.375 60.0378 270.297 60.0378 270.297C60.0378 270.297 65.2116 283.378 58.3132 292.119C53.2169 298.308 47.6112 304.06 41.555 309.314L40.6986 298.837Z" fill="#FD3E72"/>
<path d="M27.2157 273.342C27.2157 273.342 26.1214 267.61 16.5113 261.105C6.90125 254.6 0.906845 250.997 0.906845 250.997C0.906845 250.997 -0.60368 264.958 8.38794 271.57C14.9483 276.176 21.8828 280.225 29.1187 283.675L27.2157 273.342Z" fill="#FD3E72"/>
<path d="M45.0293 315.094C45.0293 315.094 43.3404 309.504 33.1356 304.034C22.9308 298.564 16.5558 295.615 16.5558 295.615C16.5558 295.615 16.5558 309.659 26.154 315.284C33.1698 319.163 40.4982 322.449 48.0623 325.106L45.0293 315.094Z" fill="#FD3E72"/>
<path d="M46.2099 362.114C46.2099 362.114 45.7341 356.299 36.909 348.819C28.0838 341.339 22.47 337.117 22.47 337.117C22.47 337.117 19.4965 350.84 27.7389 358.368C33.7753 363.656 40.2443 368.43 47.0781 372.638L46.2099 362.114Z" fill="#FD3E72"/>
<path d="M47.276 373.53C47.276 373.53 45.9796 367.834 52.1286 358.071C58.2777 348.307 62.3572 342.611 62.3572 342.611C62.3572 342.611 69.3388 354.8 63.7607 364.456C59.5967 371.309 54.8663 377.801 49.619 383.864L47.276 373.53Z" fill="#FD3E72"/>
<path d="M58.0898 406.732C58.0898 406.732 57.614 400.917 48.7889 393.437C39.9638 385.957 34.35 381.735 34.35 381.735C34.35 381.735 31.3765 395.458 39.6189 402.986C45.6553 408.274 52.1243 413.048 58.958 417.256L58.0898 406.732Z" fill="#FD3E72"/>
<path d="M55.1761 437.876C55.1761 437.876 56.1871 432.121 49.5503 422.655C42.9136 413.189 38.5486 407.671 38.5486 407.671C38.5486 407.671 32.1973 420.193 38.2631 429.564C42.7683 436.198 47.821 442.443 53.3682 448.234L55.1761 437.876Z" fill="#FD3E72"/>
<path d="M25.0207 262.08C25.935 268.089 27.1778 274.044 28.7435 279.918C33.3345 296.293 42.2666 306.365 46.7268 321.135C51.1869 335.904 43.5274 356.025 47.595 375.135C51.6627 394.245 60.0597 404.354 58.9773 417.423C57.895 430.492 49.4623 466.31 49.4623 466.31" stroke="#263238" stroke-width="0.53" stroke-linecap="round" stroke-linejoin="round"/>
<path d="M27.615 277.195L18.2784 271.177" stroke="#263238" stroke-width="0.53" stroke-linecap="round" stroke-linejoin="round"/>
<path d="M26.5583 269.477L29.6982 262.639" stroke="#263238" stroke-width="0.53" stroke-linecap="round" stroke-linejoin="round"/>
<path d="M46.179 320.493C46.179 320.493 38.3767 315.581 30.3603 310.694" stroke="#263238" stroke-width="0.53" stroke-linecap="round" stroke-linejoin="round"/>
<path d="M41.5582 309.314C41.5582 309.314 46.6962 296.804 52.988 288.266" stroke="#263238" stroke-width="0.53" stroke-linecap="round" stroke-linejoin="round"/>
<path d="M46.5986 370.426C41.7642 363.036 35.883 356.387 29.1386 350.686" stroke="#263238" stroke-width="0.53" stroke-linecap="round" stroke-linejoin="round"/>
<path d="M48.6948 378.477C50.4935 373.044 52.7413 367.769 55.4147 362.708C59.1851 356.025 59.7322 355.157 59.7322 355.157" stroke="#263238" stroke-width="0.53" stroke-linecap="round" stroke-linejoin="round"/>
<path d="M58.9729 417.423C56.7315 412.951 54.1509 408.657 51.2539 404.579C48.3775 400.815 45.195 397.295 41.7388 394.055" stroke="#263238" stroke-width="0.53" stroke-linecap="round" stroke-linejoin="round"/>
<path d="M53.3649 448.222C53.4315 443.77 52.3064 439.381 50.106 435.51C46.5379 429.838 42.4465 422.369 40.7576 419.42" stroke="#263238" stroke-width="0.53" stroke-linecap="round" stroke-linejoin="round"/>
<path d="M85.6846 336.832C85.6846 336.832 86.0176 333.134 81.2958 327.485C76.574 321.836 73.5054 318.578 73.5054 318.578C73.5054 318.578 70.1514 326.902 74.5045 332.479C77.7191 336.443 81.2599 340.13 85.0899 343.503L85.6846 336.832Z" fill="#C6FF00"/>
<path d="M84.7633 343.111C84.7633 343.111 85.4888 339.46 91.6022 335.369C97.7156 331.278 101.581 329.007 101.581 329.007C101.581 329.007 102.473 337.902 96.7284 342.088C92.532 344.99 88.0999 347.536 83.4787 349.699L84.7633 343.111Z" fill="#C6FF00"/>
<path d="M63.7151 437.068C63.7151 437.068 62.9896 433.417 56.8642 429.338C50.7389 425.259 46.8853 422.988 46.8853 422.988C46.8853 422.988 46.0052 431.883 51.7618 436.069C55.9625 438.967 60.3985 441.509 65.0234 443.668L63.7151 437.068Z" fill="#FD3E72"/>
<path d="M84.4855 345.573L90.4561 341.779" stroke="#263238" stroke-width="0.53" stroke-linecap="round" stroke-linejoin="round"/>
<path d="M85.1902 340.65L83.2277 336.285" stroke="#263238" stroke-width="0.53" stroke-linecap="round" stroke-linejoin="round"/>
<path d="M64.6829 440.945C62.4509 438.597 60.015 436.452 57.4039 434.535C55.7562 433.521 54.193 432.376 52.7296 431.11" stroke="#263238" stroke-width="0.53" stroke-linecap="round" stroke-linejoin="round"/>
<path d="M76.053 359.284C76.053 359.284 76.386 355.585 71.6642 349.937C66.9424 344.288 63.8738 341.03 63.8738 341.03C63.8738 341.03 60.5197 349.354 64.8729 354.931C68.0875 358.895 71.6283 362.582 75.4583 365.955L76.053 359.284Z" fill="#FD3E72"/>
<path d="M73.2225 369.606C73.2225 369.606 74.3286 366.038 80.8345 362.625C87.3404 359.212 91.4199 357.345 91.4199 357.345C91.4199 357.345 91.4199 366.276 85.2233 369.82C80.7452 372.263 76.0705 374.328 71.2481 375.992L73.2225 369.606Z" fill="#FD3E72"/>
<path d="M72.2774 399.525C72.2774 399.525 72.6104 395.827 78.2243 391.106C83.8381 386.385 87.4657 383.721 87.4657 383.721C87.4657 383.721 89.2973 392.462 84.0165 397.218C80.1508 400.547 76.0132 403.546 71.647 406.185L72.2774 399.525Z" fill="#FD3E72"/>
<path d="M71.5313 406.779C71.5313 406.779 72.3877 403.212 68.5222 396.897C64.6568 390.583 62.0759 386.979 62.0759 386.979C62.0759 386.979 57.5801 394.697 61.0887 400.881C63.7064 405.261 66.6863 409.414 69.9971 413.296L71.5313 406.779Z" fill="#FD3E72"/>
<path d="M64.4895 427.864C64.4895 427.864 64.8225 424.165 70.4363 419.444C76.0501 414.723 79.6776 412.059 79.6776 412.059C79.6776 412.059 81.5092 420.8 76.2285 425.557C72.3628 428.885 68.2252 431.885 63.8591 434.523L64.4895 427.864Z" fill="#FD3E72"/>
<path d="M66.1971 447.687C66.1971 447.687 65.5786 444.024 69.8484 438.031C74.1183 432.038 76.9252 428.518 76.9252 428.518C76.9252 428.518 80.9096 436.521 77.0084 442.455C74.1125 446.654 70.8701 450.604 67.3151 454.263L66.1971 447.687Z" fill="#FD3E72"/>
<path d="M86.2095 335.928C85.6014 339.76 84.7835 343.555 83.7594 347.297C80.7622 357.702 75.0294 364.064 72.1274 373.459C69.2253 382.853 73.9947 395.684 71.3305 407.814C68.6663 419.944 63.2666 426.353 63.897 434.666C64.5273 442.978 69.7129 465.822 69.7129 465.822" stroke="#263238" stroke-width="0.53" stroke-linecap="round" stroke-linejoin="round"/>
<path d="M72.4779 373.031C72.4779 373.031 77.4732 369.939 82.5874 366.87" stroke="#263238" stroke-width="0.53" stroke-linecap="round" stroke-linejoin="round"/>
<path d="M75.4587 365.943C73.5436 361.229 71.1525 356.722 68.3224 352.493" stroke="#263238" stroke-width="0.53" stroke-linecap="round" stroke-linejoin="round"/>
<path d="M71.9831 404.782C75.0937 400.099 78.8677 395.893 83.187 392.295" stroke="#263238" stroke-width="0.53" stroke-linecap="round" stroke-linejoin="round"/>
<path d="M70.6128 409.919C69.4909 406.454 68.0826 403.089 66.4024 399.858C64.0237 395.589 63.6907 395.03 63.6907 395.03" stroke="#263238" stroke-width="0.53" stroke-linecap="round" stroke-linejoin="round"/>
<path d="M63.8661 434.666C65.3133 431.832 66.9753 429.112 68.8377 426.532C70.6845 424.148 72.7253 421.92 74.9392 419.872" stroke="#263238" stroke-width="0.53" stroke-linecap="round" stroke-linejoin="round"/>
<path d="M67.2996 454.287C67.2824 451.453 68.0214 448.666 69.4405 446.213C71.7241 442.645 74.3764 437.888 75.4587 436.021" stroke="#263238" stroke-width="0.53" stroke-linecap="round" stroke-linejoin="round"/>
<path d="M432.845 263.459C432.845 263.459 432.369 257.644 439.85 248.821C447.331 239.997 452.184 234.919 452.184 234.919C452.184 234.919 457.358 248 450.459 256.741C445.368 262.942 439.766 268.706 433.713 273.972L432.845 263.459Z" fill="#C6FF00"/>
<path d="M434.159 273.342C434.159 273.342 433.065 267.61 423.455 261.105C413.845 254.6 407.85 250.997 407.85 250.997C407.85 250.997 406.34 264.958 415.331 271.57C421.892 276.176 428.826 280.225 436.062 283.675L434.159 273.342Z" fill="#C6FF00"/>
<path d="M451.994 315.094C451.994 315.094 450.305 309.504 440.1 304.034C429.895 298.564 423.52 295.615 423.52 295.615C423.52 295.615 423.52 309.659 433.118 315.284C440.134 319.163 447.463 322.449 455.027 325.106L451.994 315.094Z" fill="#C6FF00"/>
<path d="M434.578 277.195L425.242 271.177" stroke="#263238" stroke-width="0.53" stroke-linecap="round" stroke-linejoin="round"/>
<path d="M433.541 269.477L436.681 262.639" stroke="#263238" stroke-width="0.53" stroke-linecap="round" stroke-linejoin="round"/>
<path d="M453.182 320.493C453.182 320.493 445.38 315.581 437.363 310.694" stroke="#263238" stroke-width="0.53" stroke-linecap="round" stroke-linejoin="round"/>
<path d="M447.662 298.837C447.662 298.837 447.246 292.999 454.667 284.199C462.089 275.399 467.001 270.297 467.001 270.297C467.001 270.297 472.175 283.378 465.276 292.119C460.18 298.308 454.574 304.06 448.518 309.314L447.662 298.837Z" fill="#FD3E72"/>
<path d="M453.186 362.114C453.186 362.114 452.71 356.299 443.885 348.819C435.06 341.339 429.398 337.117 429.398 337.117C429.398 337.117 426.425 350.84 434.667 358.368C440.704 363.656 447.173 368.43 454.006 372.638L453.186 362.114Z" fill="#FD3E72"/>
<path d="M454.242 373.53C454.242 373.53 452.945 367.834 459.095 358.071C465.244 348.307 469.335 342.611 469.335 342.611C469.335 342.611 476.305 354.717 470.727 364.349C466.563 371.202 461.832 377.694 456.585 383.757L454.242 373.53Z" fill="#FD3E72"/>
<path d="M465.08 406.732C465.08 406.732 464.605 400.917 455.78 393.437C446.954 385.957 441.293 381.723 441.293 381.723C441.293 381.723 438.32 395.446 446.562 402.974C452.598 408.262 459.067 413.036 465.901 417.244L465.08 406.732Z" fill="#FD3E72"/>
<path d="M462.138 437.876C462.138 437.876 463.161 432.133 456.512 422.619C449.863 413.106 445.51 407.636 445.51 407.636C445.51 407.636 439.159 420.158 445.225 429.528C449.729 436.171 454.782 442.424 460.33 448.222L462.138 437.876Z" fill="#FD3E72"/>
<path d="M431.984 262.08C432.898 268.089 434.141 274.044 435.707 279.918C440.298 296.293 449.23 306.365 453.69 321.135C458.15 335.904 450.491 356.025 454.558 375.135C458.626 394.245 467.023 404.354 465.941 417.423C464.858 430.492 456.426 466.31 456.426 466.31" stroke="#263238" stroke-width="0.53" stroke-linecap="round" stroke-linejoin="round"/>
<path d="M448.522 309.314C448.522 309.314 453.66 296.804 459.951 288.242" stroke="#263238" stroke-width="0.53" stroke-linecap="round" stroke-linejoin="round"/>
<path d="M453.542 370.426C448.707 363.036 442.826 356.387 436.082 350.686" stroke="#263238" stroke-width="0.53" stroke-linecap="round" stroke-linejoin="round"/>
<path d="M455.643 378.477C457.442 373.044 459.69 367.769 462.363 362.708C466.133 356.025 466.68 355.157 466.68 355.157" stroke="#263238" stroke-width="0.53" stroke-linecap="round" stroke-linejoin="round"/>
<path d="M465.941 417.423C463.7 412.951 461.119 408.657 458.222 404.579C455.346 400.815 452.163 397.295 448.707 394.055" stroke="#263238" stroke-width="0.53" stroke-linecap="round" stroke-linejoin="round"/>
<path d="M460.328 448.222C460.395 443.77 459.27 439.381 457.069 435.51C453.501 429.838 449.41 422.369 447.721 419.42" stroke="#263238" stroke-width="0.53" stroke-linecap="round" stroke-linejoin="round"/>
<path d="M470.697 437.068C470.697 437.068 469.972 433.417 463.846 429.338C457.721 425.259 453.867 422.988 453.867 422.988C453.867 422.988 452.987 431.883 458.744 436.069C462.945 438.967 467.381 441.509 472.005 443.668L470.697 437.068Z" fill="#FD3E72"/>
<path d="M473.16 447.687C473.16 447.687 472.542 444.025 476.812 438.031C481.081 432.038 483.888 428.518 483.888 428.518C483.888 428.518 487.873 436.521 483.972 442.455C481.076 446.654 477.833 450.604 474.278 454.263L473.16 447.687Z" fill="#FD3E72"/>
<path d="M492.628 336.832C492.628 336.832 492.961 333.134 488.239 327.485C483.517 321.836 480.449 318.578 480.449 318.578C480.449 318.578 477.095 326.902 481.448 332.479C484.662 336.443 488.203 340.13 492.033 343.503L492.628 336.832Z" fill="#FD3E72"/>
<path d="M483.016 359.283C483.016 359.283 483.349 355.585 478.627 349.937C473.906 344.288 470.837 341.03 470.837 341.03C470.837 341.03 467.483 349.354 471.836 354.931C475.051 358.895 478.591 362.582 482.421 365.955L483.016 359.283Z" fill="#FD3E72"/>
<path d="M491.726 343.111C491.726 343.111 492.452 339.46 498.565 335.369C504.679 331.278 508.544 329.007 508.544 329.007C508.544 329.007 509.436 337.902 503.692 342.088C499.495 344.99 495.063 347.536 490.442 349.699L491.726 343.111Z" fill="#FD3E72"/>
<path d="M480.186 369.606C480.186 369.606 481.28 366.038 487.798 362.625C494.315 359.212 498.383 357.333 498.383 357.333C498.383 357.333 498.383 366.264 492.186 369.808C487.694 372.258 483.003 374.326 478.164 375.992L480.186 369.606Z" fill="#FD3E72"/>
<path d="M479.221 399.525C479.221 399.525 479.554 395.827 485.168 391.106C490.781 386.385 494.409 383.721 494.409 383.721C494.409 383.721 496.241 392.462 490.96 397.218C487.094 400.547 482.957 403.546 478.59 406.185L479.221 399.525Z" fill="#FD3E72"/>
<path d="M478.494 406.779C478.494 406.779 479.351 403.212 475.485 396.897C471.62 390.583 469.039 386.944 469.039 386.944C469.039 386.944 464.543 394.662 468.052 400.845C470.675 405.238 473.663 409.403 476.984 413.296L478.494 406.779Z" fill="#FD3E72"/>
<path d="M471.447 427.864C471.447 427.864 471.78 424.165 477.394 419.444C483.008 414.723 486.636 412.059 486.636 412.059C486.636 412.059 488.467 420.8 483.186 425.557C479.332 428.88 475.206 431.875 470.853 434.511L471.447 427.864Z" fill="#FD3E72"/>
<path d="M493.173 335.928C492.565 339.76 491.747 343.555 490.723 347.297C487.725 357.702 481.993 364.064 479.09 373.459C476.188 382.853 480.958 395.684 478.294 407.814C475.629 419.944 470.23 426.353 470.86 434.666C471.49 442.978 476.676 465.822 476.676 465.822" stroke="#263238" stroke-width="0.53" stroke-linecap="round" stroke-linejoin="round"/>
<path d="M491.448 345.573L497.419 341.779" stroke="#263238" stroke-width="0.53" stroke-linecap="round" stroke-linejoin="round"/>
<path d="M492.154 340.65L490.191 336.285" stroke="#263238" stroke-width="0.53" stroke-linecap="round" stroke-linejoin="round"/>
<path d="M479.436 373.031C479.436 373.031 484.431 369.939 489.546 366.87" stroke="#263238" stroke-width="0.53" stroke-linecap="round" stroke-linejoin="round"/>
<path d="M482.437 365.943C480.522 361.229 478.131 356.722 475.301 352.493" stroke="#263238" stroke-width="0.53" stroke-linecap="round" stroke-linejoin="round"/>
<path d="M478.946 404.782C482.057 400.099 485.831 395.893 490.15 392.295" stroke="#263238" stroke-width="0.53" stroke-linecap="round" stroke-linejoin="round"/>
<path d="M477.571 409.919C476.468 406.456 475.08 403.091 473.42 399.858C471.041 395.589 470.708 395.03 470.708 395.03" stroke="#263238" stroke-width="0.53" stroke-linecap="round" stroke-linejoin="round"/>
<path d="M471.626 440.945C469.395 438.589 466.959 436.436 464.347 434.511C462.7 433.497 461.136 432.352 459.673 431.086" stroke="#263238" stroke-width="0.53" stroke-linecap="round" stroke-linejoin="round"/>
<path d="M470.848 434.666C472.287 431.828 473.941 429.105 475.796 426.52C477.643 424.136 479.683 421.908 481.897 419.86" stroke="#263238" stroke-width="0.53" stroke-linecap="round" stroke-linejoin="round"/>
<path d="M474.283 454.287C474.266 451.453 475.005 448.666 476.424 446.213C478.707 442.645 481.36 437.888 482.442 436.021" stroke="#263238" stroke-width="0.53" stroke-linecap="round" stroke-linejoin="round"/>
<path d="M447.541 63.3799H71.1759C68.128 63.3799 65.6572 65.8503 65.6572 68.8977V356.953C65.6572 360 68.128 362.471 71.1759 362.471H447.541C450.589 362.471 453.06 360 453.06 356.953V68.8977C453.06 65.8503 450.589 63.3799 447.541 63.3799Z" fill="#CCCCCC"/>
<path d="M443.66 86.0219H75.0142V323.418H443.66V86.0219Z" fill="white"/>
<path d="M170.307 86.0219H75.0142V323.418H170.307V86.0219Z" fill="#263238"/>
<g opacity="0.2">
<path opacity="0.2" d="M100.917 254.029V148.501L170.317 170.418V126.823H110.955C108.81 126.823 106.687 127.245 104.705 128.067C102.724 128.888 100.924 130.092 99.4083 131.61C97.8927 133.127 96.6912 134.929 95.8725 136.911C95.0539 138.893 94.6341 141.017 94.6372 143.162V263.626L170.317 292.999V281.737L100.917 254.029Z" fill="white"/>
<path opacity="0.2" d="M170.297 276.374V175.674L105.916 155.351V250.628L170.297 276.374Z" fill="white"/>
<path opacity="0.2" d="M170.328 306.484L100.797 278.288C100.026 277.973 99.1606 277.977 98.3922 278.299C97.6237 278.621 97.0148 279.236 96.6994 280.007C96.384 280.778 96.3878 281.643 96.7101 282.411C97.0324 283.179 97.6468 283.788 98.418 284.104L170.328 313.215V306.484Z" fill="white"/>
</g>
<path d="M353.746 332.016H303.436C301.8 332.016 300.474 333.341 300.474 334.977V347.796C300.474 349.432 301.8 350.757 303.436 350.757H353.746C355.382 350.757 356.708 349.432 356.708 347.796V334.977C356.708 333.341 355.382 332.016 353.746 332.016Z" fill="#A3A3A3" stroke="#FD3E72" stroke-width="1.06" stroke-miterlimit="10"/>
<path d="M428.202 332.016H377.891C376.256 332.016 374.93 333.341 374.93 334.977V347.796C374.93 349.432 376.256 350.757 377.891 350.757H428.202C429.837 350.757 431.163 349.432 431.163 347.796V334.977C431.163 333.341 429.837 332.016 428.202 332.016Z" fill="#A3A3A3"/>
<path d="M357.74 63.3799V77.436C357.74 78.4705 358.151 79.4626 358.882 80.1941C359.614 80.9256 360.606 81.3365 361.641 81.3365H440.532C441.567 81.3365 442.559 80.9256 443.291 80.1941C444.022 79.4626 444.433 78.4705 444.433 77.436V63.3799H357.74Z" fill="#A3A3A3"/>
<path d="M374.542 63.3799H352.669V77.436C352.669 78.4705 353.08 79.4626 353.812 80.1941C354.543 80.9256 355.536 81.3365 356.57 81.3365H374.53L374.542 63.3799Z" fill="#A3A3A3"/>
<path d="M400.697 63.3799V81.3246H440.529C441.564 81.3246 442.556 80.9137 443.288 80.1822C444.02 79.4507 444.431 78.4586 444.431 77.4241V63.3799H400.697Z" fill="#263238"/>
<path d="M400.718 63.3799H374.54V81.3365H400.718V63.3799Z" fill="#787878"/>
<path d="M426.099 75.9263H422.626L416.834 67.0907H420.295L426.099 75.9263Z" fill="white"/>
<path d="M416.834 75.9263H420.295L426.099 67.0907H422.626L416.834 75.9263Z" fill="white"/>
<path d="M369.959 72.4294H357.411V75.7716H369.959V72.4294Z" fill="white"/>
<path d="M381.739 67.7449V75.7837H393.228V67.7449H381.739ZM391.064 73.5005H383.927V70.0162H391.064V73.5005Z" fill="white"/>
<path d="M156.556 101.719H126.43V131.009H156.556V101.719Z" fill="#FD3E72" stroke="white" stroke-width="2.11" stroke-miterlimit="10"/>
<path d="M318.919 102.551H185.019V108.415H318.919V102.551Z" fill="#263238"/>
<path d="M269.548 115.109H185.019V120.973H269.548V115.109Z" fill="#263238"/>
<path d="M187.506 146.063H390.865" stroke="#263238" stroke-width="1.06" stroke-miterlimit="10"/>
<path d="M187.506 183.713H390.865" stroke="#263238" stroke-width="1.06" stroke-miterlimit="10"/>
<path d="M187.506 192.917H390.865" stroke="#263238" stroke-width="1.06" stroke-miterlimit="10"/>
<path d="M187.506 202.121H390.865" stroke="#263238" stroke-width="1.06" stroke-miterlimit="10"/>
<path d="M187.506 211.326H221.82" stroke="#263238" stroke-width="1.06" stroke-miterlimit="10"/>
<path d="M187.506 153.591H264.506" stroke="#263238" stroke-width="1.06" stroke-miterlimit="10"/>
<path d="M187.506 232.243H264.506" stroke="#263238" stroke-width="1.06" stroke-miterlimit="10"/>
<path d="M195.245 337.034C187.258 337.034 180.783 329.617 180.783 320.469C180.783 311.32 187.258 303.903 195.245 303.903C203.233 303.903 209.708 311.32 209.708 320.469C209.708 329.617 203.233 337.034 195.245 337.034Z" fill="#263238" stroke="#263238" stroke-width="1.06" stroke-linejoin="round"/>
<path d="M265.83 323.68C270.267 322.588 274.517 320.841 278.438 318.495C285.11 314.535 285.36 308.363 283.386 303.666C281.411 298.968 262.619 279.192 243.589 274.995C224.559 270.797 210.215 284.139 204.031 299.468C197.846 314.796 202.544 332.337 206.754 337.522C210.965 342.706 221.586 346.417 226.284 342.956C230.982 339.496 238.641 329.114 247.788 324.916C253.477 322.428 259.854 321.991 265.83 323.68Z" fill="#263238" stroke="#263238" stroke-width="1.06" stroke-linejoin="round"/>
<path d="M242.243 400.501C242.433 413.677 253.946 450.636 259.429 467.523H201.626L186.866 370.593L200.71 363.921C200.71 363.921 211.343 358.974 218.551 360.711C225.758 362.447 234.869 367.846 234.869 367.846L242.528 370.569C242.528 370.569 242.005 383.198 242.243 400.501Z" fill="#FFB7CA"/>
<path opacity="0.2" d="M243.591 467.523C242.401 462.29 239.939 451.588 235.943 434.226C229.913 408.064 229.414 366.894 229.414 366.894C229.842 377.716 247.052 448.175 251.821 467.511L243.591 467.523Z" fill="black"/>
<path d="M242.243 400.501C242.433 413.677 253.946 450.636 259.429 467.523H201.626L186.866 370.593L200.71 363.921C200.71 363.921 211.343 358.974 218.551 360.711C225.758 362.447 234.869 367.846 234.869 367.846L242.528 370.569C242.528 370.569 242.005 383.198 242.243 400.501Z" stroke="#263238" stroke-width="1.06" stroke-linejoin="round"/>
<path d="M235.321 356.025C235.321 356.025 230.682 361.091 229.838 364.885C228.993 368.678 231.967 383.483 224.83 387.277C217.694 391.07 209.642 383.9 205.42 375.456C201.198 367.013 203.243 361.971 203.243 361.971C203.243 361.971 213.377 351.839 218.015 344.252C220.949 339.375 223.239 334.139 224.83 328.674C224.83 328.674 227.364 342.599 230.777 347.701C232.571 350.314 234.093 353.103 235.321 356.025Z" fill="#FFBE9D"/>
<path opacity="0.05" d="M232.432 357.868L233.157 358.713C232.065 360.134 231.135 361.674 230.386 363.303C227.12 362.032 224.325 359.785 222.382 356.87C219.908 353.219 219.67 346.084 219.884 340.935C220.467 339.817 220.99 338.723 221.466 337.664C223.464 342.516 227.948 352.636 232.432 357.868Z" fill="black"/>
<path d="M263.828 305.378C263.828 305.378 244.798 320.148 235.556 323.525C226.315 326.902 215.337 325.214 215.337 325.214C215.109 326.096 215.105 327.022 215.325 327.906C215.546 328.791 215.983 329.606 216.598 330.279C217.993 331.714 219.262 333.265 220.392 334.917C220.392 334.917 219.975 347.57 224.186 353.944C228.396 360.318 233.891 363.648 241.491 360.699C249.091 357.75 255.419 353.944 259.213 347.618C263.007 341.291 262.591 334.965 264.279 330.743L269.346 318.09C269.346 318.09 267.205 308.755 263.828 305.378Z" fill="#FFBE9D"/>
<path d="M176.904 467.523C172.468 442.265 160.253 371.52 163.143 370.093C166.557 368.369 203.249 361.971 203.249 361.971C203.249 361.971 207.388 391.855 212.823 419.29C216.391 437.496 220.257 456.677 222.421 467.535L176.904 467.523Z" fill="#F33166"/>
<path d="M255.845 375.29C255.845 375.29 262.66 381.022 263.076 385.255C263.492 389.489 270.7 440.267 270.7 440.267C270.7 440.267 272.389 438.15 274.506 438.994C275.897 439.635 277.074 440.663 277.896 441.955C277.933 441.628 278.067 441.318 278.28 441.067C278.493 440.815 278.776 440.632 279.094 440.542C279.411 440.451 279.748 440.457 280.062 440.558C280.376 440.66 280.653 440.852 280.857 441.111C283.07 443.026 284.663 450.422 284.663 450.422C284.663 450.422 281.274 461.422 278.716 463.123C276.159 464.823 272.365 462.279 272.365 462.279C272.365 462.279 272.793 463.967 268.131 463.967C263.469 463.967 262.624 456.832 260.995 453.812C259.365 450.791 254.227 419.111 251.682 401.761C249.137 384.411 255.845 375.29 255.845 375.29Z" fill="#EF275D"/>
<path d="M268.927 467.523H247.518C245.413 459.199 242.035 445.618 238.574 431.146C232.888 407.362 229.868 364.909 229.868 364.909L255.879 375.278C255.019 389.609 255.186 403.984 256.379 418.291C257.711 434.511 264.704 455.809 268.927 467.523Z" fill="#F33166"/>
<path d="M181.386 376.36L196.193 437.722L202.545 436.033L205.506 438.566C205.506 438.566 207.623 435.605 209.74 438.994C210.883 440.894 212.311 442.607 213.975 444.072L211.013 461.422C211.013 461.422 198.453 466.571 196.622 466.072C195.351 465.75 194.25 464.956 193.543 463.851C192.836 462.747 192.576 461.415 192.816 460.126C191.255 461.027 189.527 461.602 187.737 461.815C186.631 461.815 183.669 459.722 181.088 457.736C178.276 455.584 176.198 452.613 175.142 449.233C170.693 434.844 157.955 393.746 155.933 388.181C150.855 374.22 163.973 369.154 165.662 369.154" fill="#FD3E72"/>
<path d="M352.26 448.781C352.26 448.781 361.632 453.194 360.811 454.015C359.99 454.835 353.675 451.814 352.26 451.529C350.844 451.243 349.227 448.258 352.26 448.781Z" fill="white" stroke="#263238" stroke-width="1.06" stroke-linecap="round" stroke-linejoin="round"/>
<path d="M348.684 445.785C348.684 445.785 351.717 445.238 352.252 446.617C352.787 447.996 355.285 455.441 355.011 457.094C354.738 458.747 352.252 455.441 351.146 453.788C350.04 452.135 348.684 445.785 348.684 445.785Z" fill="white" stroke="#263238" stroke-width="1.06" stroke-linecap="round" stroke-linejoin="round"/>
<path d="M342.895 445.785C342.895 445.785 347.855 444.405 348.688 445.785C349.52 447.164 353.921 456.808 353.921 456.808C353.921 456.808 354.468 457.914 351.994 456.808C349.52 455.702 342.895 445.785 342.895 445.785Z" fill="white" stroke="#263238" stroke-width="1.06" stroke-linecap="round" stroke-linejoin="round"/>
<path d="M283.616 445.785L315.051 448.781C315.051 448.781 336.828 444.369 339.314 444.096C341.8 443.822 344.274 445.749 345.38 447.402C346.486 449.055 353.373 457.879 353.373 457.879L351.719 458.426L342.074 450.708C342.074 450.708 336.84 450.434 335.175 450.434C333.51 450.434 339.861 454.002 341.788 454.299C343.715 454.596 345.927 454.846 345.654 455.952C345.38 457.058 340.42 457.332 339.314 457.332C338.208 457.332 330.489 454.573 330.489 454.573C330.489 454.573 328.562 454.573 326.076 454.846C323.591 455.12 319.178 453.193 319.178 453.193C319.178 453.193 280.024 462.564 277.277 462.29C274.529 462.017 274.315 447.592 283.616 445.785Z" fill="#FFBE9D"/>
<path d="M293.26 446.879C293.26 446.879 298.779 449.911 301.253 450.184C303.726 450.458 303.453 452.67 301.253 453.49C299.052 454.311 291.333 450.458 289.668 450.458C288.003 450.458 275.051 451.564 272.303 451.837C269.556 452.111 267.891 449.352 274.789 447.152C281.687 444.952 293.26 446.879 293.26 446.879Z" fill="#FFBE9D"/>
<path d="M287.131 443.014C287.131 443.014 292.245 441.825 292.899 443.953C293.553 446.082 299.536 454.537 299.678 455.346C299.821 456.154 297.704 456.82 295.266 454.156C292.828 451.493 287.131 443.014 287.131 443.014Z" fill="#EFAB8A"/>
<path d="M283.333 441.92C283.333 441.92 287.745 440.814 288.852 441.92C289.958 443.026 297.677 455.976 297.677 457.082C297.677 458.188 294.644 457.629 294.644 457.629L285.819 445.499L283.059 443.014L283.333 441.92Z" fill="#F6B291"/>
<path d="M202.02 461.767C200.253 461.55 198.619 460.715 197.409 459.409C196.199 458.103 195.49 456.411 195.407 454.632C194.86 448.02 202.02 441.682 206.992 441.396C211.963 441.111 235.109 446.355 244.493 446.629C253.877 446.902 262.143 446.902 264.07 446.082C265.996 445.261 282.267 441.944 283.373 441.944C284.479 441.944 295.778 457.653 295.778 457.653C295.778 457.653 294.946 459.579 292.745 457.653C290.545 455.726 283.373 449.102 283.373 449.102H275.381C275.381 449.102 282.826 453.514 283.932 454.335C285.038 455.155 289.451 459.853 288.345 460.126C287.239 460.4 281.458 455.441 281.458 455.441L273.133 453.241C273.133 453.241 267.067 457.106 261.548 457.379C258.274 457.553 254.997 457.084 251.902 456C251.902 456 219.932 462.041 202.02 461.767Z" fill="#FAB796"/>
<path d="M23.3669 467.368H501.625" stroke="#263238" stroke-width="1.06" stroke-linejoin="round"/>
<path d="M248.667 461.934H396.792V467.369H248.667V461.934Z" fill="#5B5863" stroke="#263238" stroke-width="1.06" stroke-linejoin="round"/>
<path d="M248.679 461.934H318.269V467.369H248.679V461.934Z" fill="#263238" stroke="#263238" stroke-width="1.06" stroke-linejoin="round"/>
<path d="M314.809 461.934L342.188 393.211H427.549L393.343 461.934H314.809Z" fill="#263238" stroke="#263238" stroke-width="1.06" stroke-linejoin="round"/>
<path d="M318.256 461.934L345.635 393.211H430.996L396.79 461.934H318.256Z" fill="#5B5863"/>
<path d="M380.746 418.131H372.29L368.922 426.268H377.377L380.746 418.131Z" fill="white"/>
<path d="M378.553 426.268H387.008L390.496 418.131H382.041L378.553 426.268Z" fill="white"/>
<path d="M376.694 427.896H368.239L364.918 436.033H373.374L376.694 427.896Z" fill="white"/>
<path d="M374.801 436.033L383.256 436.033L386.427 427.896H377.972L374.801 436.033Z" fill="white"/>
</g>
<defs>
<clipPath id="clip0">
<rect width="509" height="468" fill="white" transform="matrix(-1 0 0 1 509.434 0)"/>
</clipPath>
</defs>
</svg>
