<svg width="299" height="485" viewBox="0 0 299 485" fill="none" xmlns="http://www.w3.org/2000/svg">
<mask id="mask0" mask-type="alpha" maskUnits="userSpaceOnUse" x="0" y="0" width="299" height="485">
<rect width="299" height="484.865" rx="8.08108" fill="#F9F8F4"/>
</mask>
<g mask="url(#mask0)">
<rect y="29.0919" width="299" height="455.773" fill="#F9F8F4"/>
<rect x="32.3242" y="261.827" width="234.351" height="72.7297" rx="4.04054" fill="white"/>
<path d="M235.579 305.32L240.953 299.049C241.213 298.747 241.213 298.3 240.953 297.998L235.579 291.727L234.351 292.779L239.276 298.524L234.352 304.268L235.579 305.32Z" fill="#AFADB2"/>
<path d="M52.3872 288.477V287.383C52.5124 287.493 52.6615 287.593 52.8346 287.681C53.0114 287.77 53.1955 287.845 53.3871 287.908C53.5822 287.967 53.7774 288.013 53.9726 288.046C54.1678 288.079 54.3483 288.096 54.514 288.096C55.0848 288.096 55.5102 287.991 55.7901 287.781C56.0736 287.567 56.2154 287.261 56.2154 286.864C56.2154 286.65 56.1676 286.464 56.0718 286.306C55.9797 286.147 55.8508 286.004 55.6851 285.875C55.5194 285.742 55.3224 285.617 55.094 285.499C54.8694 285.378 54.6263 285.251 54.3648 285.118C54.0886 284.978 53.8308 284.836 53.5914 284.693C53.3521 284.549 53.144 284.391 52.9672 284.218C52.7904 284.045 52.6505 283.849 52.5474 283.632C52.4479 283.411 52.3982 283.153 52.3982 282.859C52.3982 282.498 52.4774 282.185 52.6358 281.92C52.7941 281.651 53.0022 281.43 53.26 281.257C53.5178 281.084 53.8106 280.955 54.1383 280.87C54.4698 280.785 54.8068 280.743 55.1493 280.743C55.93 280.743 56.499 280.837 56.8562 281.025V282.069C56.3885 281.745 55.7882 281.583 55.0554 281.583C54.8528 281.583 54.6502 281.605 54.4477 281.649C54.2451 281.689 54.0647 281.758 53.9063 281.853C53.748 281.949 53.6191 282.072 53.5196 282.223C53.4202 282.374 53.3705 282.559 53.3705 282.776C53.3705 282.978 53.4073 283.153 53.481 283.301C53.5583 283.448 53.6706 283.582 53.8179 283.704C53.9652 283.825 54.1439 283.943 54.3538 284.057C54.5674 284.172 54.8123 284.297 55.0885 284.433C55.3721 284.573 55.6409 284.72 55.895 284.875C56.1491 285.03 56.3719 285.201 56.5635 285.389C56.755 285.577 56.906 285.785 57.0164 286.013C57.1306 286.241 57.1877 286.503 57.1877 286.797C57.1877 287.188 57.1103 287.519 56.9557 287.792C56.8047 288.061 56.5984 288.28 56.337 288.449C56.0792 288.619 55.7809 288.74 55.442 288.814C55.1032 288.891 54.746 288.93 54.3704 288.93C54.2451 288.93 54.0905 288.919 53.9063 288.897C53.7222 288.878 53.5344 288.849 53.3429 288.808C53.1514 288.771 52.9691 288.725 52.796 288.67C52.6266 288.611 52.4903 288.547 52.3872 288.477ZM63.1925 286.195H59.1985C59.2132 286.825 59.3826 287.311 59.7067 287.654C60.0308 287.996 60.4764 288.167 61.0436 288.167C61.6807 288.167 62.2662 287.958 62.8002 287.538V288.388C62.3031 288.749 61.6457 288.93 60.8281 288.93C60.029 288.93 59.401 288.674 58.9444 288.162C58.4877 287.646 58.2594 286.923 58.2594 285.991C58.2594 285.111 58.508 284.394 59.0051 283.842C59.506 283.286 60.1265 283.008 60.8668 283.008C61.607 283.008 62.1797 283.247 62.5848 283.726C62.9899 284.205 63.1925 284.869 63.1925 285.72V286.195ZM62.2644 285.427C62.2607 284.904 62.1337 284.498 61.8832 284.207C61.6365 283.916 61.2921 283.77 60.8502 283.77C60.423 283.77 60.0603 283.923 59.762 284.229C59.4636 284.534 59.2795 284.934 59.2095 285.427H62.2644ZM65.4739 288.797H64.568V280.423H65.4739V288.797ZM71.8544 286.195H67.8604C67.8751 286.825 68.0445 287.311 68.3686 287.654C68.6927 287.996 69.1383 288.167 69.7055 288.167C70.3426 288.167 70.9282 287.958 71.4622 287.538V288.388C70.965 288.749 70.3076 288.93 69.49 288.93C68.6909 288.93 68.0629 288.674 67.6063 288.162C67.1496 287.646 66.9213 286.923 66.9213 285.991C66.9213 285.111 67.1699 284.394 67.667 283.842C68.1679 283.286 68.7885 283.008 69.5287 283.008C70.2689 283.008 70.8416 283.247 71.2467 283.726C71.6518 284.205 71.8544 284.869 71.8544 285.72V286.195ZM70.9263 285.427C70.9226 284.904 70.7956 284.498 70.5451 284.207C70.2984 283.916 69.9541 283.77 69.5121 283.77C69.0849 283.77 68.7222 283.923 68.4239 284.229C68.1256 284.534 67.9414 284.934 67.8714 285.427H70.9263ZM77.0858 288.538C76.6512 288.799 76.1356 288.93 75.539 288.93C74.7325 288.93 74.0806 288.668 73.5834 288.145C73.0899 287.619 72.8432 286.937 72.8432 286.101C72.8432 285.17 73.1102 284.422 73.6442 283.859C74.1782 283.291 74.8908 283.008 75.7821 283.008C76.2792 283.008 76.7175 283.1 77.0968 283.284V284.212C76.677 283.917 76.2277 283.77 75.7489 283.77C75.1707 283.77 74.6956 283.978 74.3237 284.394C73.9554 284.807 73.7713 285.35 73.7713 286.024C73.7713 286.687 73.9444 287.21 74.2905 287.593C74.6404 287.976 75.1081 288.167 75.6937 288.167C76.1872 288.167 76.6512 288.004 77.0858 287.676V288.538ZM81.0797 288.742C80.8661 288.86 80.5844 288.919 80.2345 288.919C79.2439 288.919 78.7485 288.366 78.7485 287.261V283.914H77.7763V283.14H78.7485V281.759L79.6545 281.467V283.14H81.0797V283.914H79.6545V287.101C79.6545 287.481 79.719 287.751 79.8479 287.913C79.9768 288.075 80.1904 288.156 80.4887 288.156C80.717 288.156 80.914 288.094 81.0797 287.969V288.742ZM86.8359 286.195H82.842C82.8567 286.825 83.0261 287.311 83.3502 287.654C83.6743 287.996 84.1199 288.167 84.687 288.167C85.3242 288.167 85.9097 287.958 86.4437 287.538V288.388C85.9465 288.749 85.2892 288.93 84.4716 288.93C83.6724 288.93 83.0445 288.674 82.5878 288.162C82.1312 287.646 81.9029 286.923 81.9029 285.991C81.9029 285.111 82.1514 284.394 82.6486 283.842C83.1495 283.286 83.77 283.008 84.5103 283.008C85.2505 283.008 85.8232 283.247 86.2283 283.726C86.6334 284.205 86.8359 284.869 86.8359 285.72V286.195ZM85.9079 285.427C85.9042 284.904 85.7771 284.498 85.5267 284.207C85.28 283.916 84.9356 283.77 84.4937 283.77C84.0665 283.77 83.7037 283.923 83.4054 284.229C83.1071 284.534 82.923 284.934 82.853 285.427H85.9079ZM93.0396 288.797H92.1336V287.836H92.1115C91.6917 288.565 91.0435 288.93 90.167 288.93C89.4562 288.93 88.8873 288.677 88.4601 288.173C88.0365 287.665 87.8248 286.974 87.8248 286.101C87.8248 285.166 88.0605 284.417 88.5319 283.853C89.0033 283.29 89.6312 283.008 90.4156 283.008C91.1927 283.008 91.758 283.314 92.1115 283.925H92.1336V280.423H93.0396V288.797ZM92.1336 286.239V285.405C92.1336 284.949 91.9826 284.562 91.6806 284.245C91.3787 283.929 90.9956 283.77 90.5316 283.77C89.9792 283.77 89.5446 283.973 89.2279 284.378C88.9112 284.783 88.7528 285.343 88.7528 286.057C88.7528 286.709 88.9038 287.225 89.2058 287.604C89.5115 287.98 89.9203 288.167 90.4322 288.167C90.9367 288.167 91.3455 287.985 91.6585 287.621C91.9753 287.256 92.1336 286.796 92.1336 286.239ZM102.21 288.797H98.0997V280.876H99.0278V287.958H102.21V288.797ZM105.668 288.93C104.832 288.93 104.163 288.666 103.663 288.14C103.165 287.609 102.917 286.908 102.917 286.035C102.917 285.085 103.176 284.343 103.696 283.809C104.215 283.275 104.917 283.008 105.8 283.008C106.644 283.008 107.301 283.267 107.773 283.787C108.248 284.306 108.485 285.026 108.485 285.947C108.485 286.849 108.229 287.573 107.717 288.118C107.209 288.659 106.526 288.93 105.668 288.93ZM105.734 283.77C105.152 283.77 104.692 283.969 104.353 284.367C104.014 284.761 103.845 285.306 103.845 286.002C103.845 286.672 104.016 287.201 104.359 287.587C104.701 287.974 105.16 288.167 105.734 288.167C106.32 288.167 106.769 287.978 107.082 287.598C107.399 287.219 107.557 286.68 107.557 285.98C107.557 285.273 107.399 284.728 107.082 284.345C106.769 283.962 106.32 283.77 105.734 283.77ZM113.788 288.538C113.354 288.799 112.838 288.93 112.242 288.93C111.435 288.93 110.783 288.668 110.286 288.145C109.793 287.619 109.546 286.937 109.546 286.101C109.546 285.17 109.813 284.422 110.347 283.859C110.881 283.291 111.593 283.008 112.485 283.008C112.982 283.008 113.42 283.1 113.799 283.284V284.212C113.38 283.917 112.93 283.77 112.452 283.77C111.873 283.77 111.398 283.978 111.026 284.394C110.658 284.807 110.474 285.35 110.474 286.024C110.474 286.687 110.647 287.21 110.993 287.593C111.343 287.976 111.811 288.167 112.396 288.167C112.89 288.167 113.354 288.004 113.788 287.676V288.538ZM119.208 288.797H118.302V287.913H118.28C117.885 288.591 117.305 288.93 116.539 288.93C115.976 288.93 115.534 288.781 115.214 288.482C114.897 288.184 114.739 287.788 114.739 287.295C114.739 286.238 115.361 285.623 116.606 285.45L118.302 285.212C118.302 284.251 117.913 283.77 117.136 283.77C116.455 283.77 115.84 284.002 115.291 284.466V283.538C115.847 283.185 116.488 283.008 117.213 283.008C118.543 283.008 119.208 283.711 119.208 285.118V288.797ZM118.302 285.936L116.937 286.123C116.517 286.182 116.201 286.287 115.987 286.438C115.773 286.586 115.667 286.849 115.667 287.228C115.667 287.505 115.764 287.731 115.959 287.908C116.158 288.081 116.422 288.167 116.749 288.167C117.199 288.167 117.569 288.011 117.86 287.698C118.154 287.381 118.302 286.982 118.302 286.499V285.936ZM123.539 288.742C123.325 288.86 123.043 288.919 122.693 288.919C121.703 288.919 121.207 288.366 121.207 287.261V283.914H120.235V283.14H121.207V281.759L122.113 281.467V283.14H123.539V283.914H122.113V287.101C122.113 287.481 122.178 287.751 122.307 287.913C122.436 288.075 122.649 288.156 122.947 288.156C123.176 288.156 123.373 288.094 123.539 287.969V288.742ZM125.212 281.704C125.05 281.704 124.912 281.649 124.798 281.538C124.684 281.428 124.627 281.288 124.627 281.119C124.627 280.949 124.684 280.809 124.798 280.699C124.912 280.585 125.05 280.527 125.212 280.527C125.378 280.527 125.518 280.585 125.632 280.699C125.75 280.809 125.809 280.949 125.809 281.119C125.809 281.281 125.75 281.419 125.632 281.533C125.518 281.647 125.378 281.704 125.212 281.704ZM125.654 288.797H124.748V283.14H125.654V288.797ZM129.853 288.93C129.017 288.93 128.348 288.666 127.847 288.14C127.35 287.609 127.102 286.908 127.102 286.035C127.102 285.085 127.361 284.343 127.881 283.809C128.4 283.275 129.101 283.008 129.985 283.008C130.829 283.008 131.486 283.267 131.957 283.787C132.432 284.306 132.67 285.026 132.67 285.947C132.67 286.849 132.414 287.573 131.902 288.118C131.394 288.659 130.711 288.93 129.853 288.93ZM129.919 283.77C129.337 283.77 128.877 283.969 128.538 284.367C128.199 284.761 128.03 285.306 128.03 286.002C128.03 286.672 128.201 287.201 128.543 287.587C128.886 287.974 129.344 288.167 129.919 288.167C130.505 288.167 130.954 287.978 131.267 287.598C131.584 287.219 131.742 286.68 131.742 285.98C131.742 285.273 131.584 284.728 131.267 284.345C130.954 283.962 130.505 283.77 129.919 283.77ZM138.813 288.797H137.907V285.571C137.907 284.37 137.469 283.77 136.592 283.77C136.139 283.77 135.764 283.941 135.465 284.284C135.171 284.623 135.023 285.052 135.023 285.571V288.797H134.117V283.14H135.023V284.08H135.045C135.473 283.365 136.091 283.008 136.902 283.008C137.52 283.008 137.993 283.209 138.321 283.61C138.649 284.008 138.813 284.584 138.813 285.339V288.797ZM140.84 284.245C140.671 284.245 140.525 284.184 140.404 284.063C140.286 283.941 140.227 283.796 140.227 283.627C140.227 283.457 140.286 283.314 140.404 283.196C140.525 283.078 140.671 283.019 140.84 283.019C141.013 283.019 141.161 283.078 141.282 283.196C141.404 283.314 141.465 283.457 141.465 283.627C141.465 283.796 141.404 283.941 141.282 284.063C141.161 284.184 141.013 284.245 140.84 284.245ZM140.84 288.919C140.671 288.919 140.525 288.858 140.404 288.736C140.286 288.615 140.227 288.469 140.227 288.3C140.227 288.131 140.286 287.985 140.404 287.864C140.525 287.738 140.671 287.676 140.84 287.676C141.013 287.676 141.161 287.738 141.282 287.864C141.404 287.985 141.465 288.131 141.465 288.3C141.465 288.469 141.404 288.615 141.282 288.736C141.161 288.858 141.013 288.919 140.84 288.919Z" fill="#AFADB2"/>
<path d="M91.518 308.497C91.518 311.357 90.1638 312.786 87.4553 312.786C84.8606 312.786 83.5632 311.411 83.5632 308.66V302.431H85.2536V308.312C85.2536 310.31 86.0301 311.309 87.5832 311.309C89.0794 311.309 89.8276 310.346 89.8276 308.418V302.431H91.518V308.497ZM93.4428 312.211V310.471C93.599 310.613 93.7837 310.741 93.9968 310.855C94.2146 310.968 94.4442 311.065 94.6857 311.146C94.9272 311.222 95.1687 311.281 95.4102 311.323C95.6516 311.366 95.8742 311.387 96.0778 311.387C96.788 311.387 97.316 311.269 97.6616 311.032C98.012 310.795 98.1872 310.452 98.1872 310.002C98.1872 309.761 98.128 309.552 98.0097 309.377C97.896 309.197 97.735 309.034 97.5267 308.887C97.3184 308.74 97.0721 308.601 96.788 308.468C96.5087 308.331 96.208 308.189 95.886 308.042C95.5404 307.857 95.2184 307.67 94.9201 307.481C94.6218 307.292 94.3613 307.083 94.1388 306.856C93.921 306.624 93.7482 306.363 93.6203 306.075C93.4972 305.786 93.4357 305.447 93.4357 305.059C93.4357 304.581 93.5422 304.166 93.7553 303.816C93.9731 303.461 94.2572 303.17 94.6076 302.942C94.9627 302.71 95.3652 302.54 95.815 302.431C96.2648 302.317 96.7241 302.261 97.1929 302.261C98.2583 302.261 99.0348 302.381 99.5225 302.623V304.292C98.9448 303.875 98.2014 303.667 97.2923 303.667C97.0414 303.667 96.7904 303.691 96.5395 303.738C96.2932 303.785 96.0707 303.863 95.8718 303.972C95.6777 304.081 95.5191 304.221 95.3959 304.391C95.2728 304.562 95.2113 304.768 95.2113 305.009C95.2113 305.237 95.2586 305.433 95.3533 305.599C95.448 305.764 95.5853 305.916 95.7653 306.053C95.9499 306.191 96.1725 306.326 96.4329 306.458C96.6981 306.586 97.0035 306.726 97.3491 306.877C97.7043 307.062 98.0381 307.256 98.3506 307.46C98.6678 307.663 98.9448 307.888 99.1816 308.134C99.4231 308.381 99.6125 308.655 99.7498 308.958C99.8918 309.257 99.9629 309.597 99.9629 309.981C99.9629 310.497 99.8587 310.933 99.6504 311.288C99.442 311.643 99.1603 311.932 98.8052 312.154C98.4548 312.377 98.0499 312.538 97.5906 312.637C97.1313 312.737 96.646 312.786 96.1346 312.786C95.9641 312.786 95.7534 312.772 95.5025 312.744C95.2563 312.72 95.0029 312.682 94.7425 312.63C94.4821 312.583 94.2359 312.524 94.0039 312.453C93.7718 312.382 93.5848 312.301 93.4428 312.211ZM110.205 312.616H108.351L107.435 310.024H103.429L102.548 312.616H100.702L104.516 302.431H106.419L110.205 312.616ZM106.987 308.646L105.574 304.583C105.531 304.451 105.486 304.237 105.439 303.944H105.41C105.368 304.214 105.321 304.427 105.268 304.583L103.869 308.646H106.987ZM119.26 309.249H115.382V308.035H119.26V309.249ZM134.112 312.616H132.265L127.4 305.13C127.277 304.941 127.175 304.744 127.094 304.54H127.052C127.09 304.758 127.109 305.225 127.109 305.94V312.616H125.475V302.431H127.442L132.144 309.74C132.343 310.043 132.471 310.251 132.528 310.365H132.556C132.509 310.095 132.485 309.638 132.485 308.994V302.431H134.112V312.616ZM142.613 309.427H137.656C137.675 310.099 137.881 310.618 138.274 310.982C138.672 311.347 139.216 311.529 139.907 311.529C140.684 311.529 141.397 311.297 142.045 310.833V312.161C141.382 312.578 140.506 312.786 139.417 312.786C138.347 312.786 137.507 312.457 136.896 311.799C136.29 311.136 135.987 310.206 135.987 309.008C135.987 307.876 136.321 306.955 136.988 306.245C137.661 305.53 138.494 305.173 139.488 305.173C140.483 305.173 141.252 305.492 141.797 306.131C142.341 306.771 142.613 307.658 142.613 308.795V309.427ZM141.022 308.262C141.018 307.67 140.878 307.211 140.603 306.884C140.329 306.553 139.95 306.387 139.467 306.387C138.994 306.387 138.591 306.56 138.26 306.906C137.933 307.251 137.732 307.703 137.656 308.262H141.022ZM153.963 305.343L151.818 312.616H150.092L148.771 307.687C148.719 307.497 148.686 307.284 148.672 307.048H148.643C148.634 307.209 148.591 307.417 148.516 307.673L147.081 312.616H145.391L143.253 305.343H144.957L146.278 310.585C146.321 310.741 146.349 310.949 146.364 311.21H146.413C146.428 311.011 146.465 310.798 146.527 310.571L147.997 305.343H149.546L150.852 310.606C150.895 310.772 150.926 310.98 150.945 311.231H150.994C151.004 311.056 151.039 310.848 151.101 310.606L152.394 305.343H153.963ZM166.478 302.431L163.14 308.916V312.616H161.449V308.951L158.196 302.431H160.121L162.124 306.799C162.148 306.851 162.219 307.048 162.337 307.389H162.358C162.401 307.237 162.479 307.041 162.593 306.799L164.688 302.431H166.478ZM169.525 312.786C168.403 312.786 167.505 312.448 166.833 311.771C166.165 311.089 165.832 310.187 165.832 309.065C165.832 307.843 166.18 306.889 166.876 306.202C167.576 305.516 168.519 305.173 169.702 305.173C170.839 305.173 171.724 305.506 172.359 306.174C172.993 306.842 173.311 307.767 173.311 308.951C173.311 310.111 172.967 311.042 172.281 311.742C171.599 312.438 170.68 312.786 169.525 312.786ZM169.603 306.487C168.959 306.487 168.45 306.711 168.076 307.161C167.702 307.611 167.515 308.231 167.515 309.022C167.515 309.784 167.704 310.386 168.083 310.826C168.462 311.262 168.969 311.48 169.603 311.48C170.252 311.48 170.749 311.264 171.095 310.833C171.445 310.402 171.62 309.789 171.62 308.994C171.62 308.194 171.445 307.576 171.095 307.14C170.749 306.704 170.252 306.487 169.603 306.487ZM179.213 306.913C179.014 306.756 178.727 306.678 178.353 306.678C177.866 306.678 177.458 306.899 177.132 307.339C176.805 307.779 176.642 308.378 176.642 309.136V312.616H174.994V305.343H176.642V306.842H176.67C176.831 306.33 177.077 305.933 177.409 305.648C177.745 305.36 178.119 305.215 178.531 305.215C178.829 305.215 179.056 305.26 179.213 305.35V306.913ZM186.976 312.616H184.888L182.061 309.122H182.032V312.616H180.378V301.849H182.032V308.674H182.061L184.731 305.343H186.713L183.709 308.852L186.976 312.616Z" fill="#5B5863"/>
<path fill-rule="evenodd" clip-rule="evenodd" d="M51.7188 299H72.7296V300.244H51.7188V299ZM51.7188 301.487H72.7296V302.731H51.7188V301.487ZM51.7188 303.972H72.7296V305.218H51.7188V303.972ZM51.7188 306.459H72.7296V307.703H51.7188V306.459ZM51.7188 308.946H72.7296V310.19H51.7188V308.946ZM51.7188 311.431H72.7296V312.675H51.7188V311.431ZM51.7188 313.918H72.7296V315.162H51.7188V313.918Z" fill="#BD3D44"/>
<path fill-rule="evenodd" clip-rule="evenodd" d="M51.7188 300.616H72.7296V301.792H51.7188V300.616ZM51.7188 302.968H72.7296V304.141H51.7188V302.968ZM51.7188 305.317H72.7296V306.493H51.7188V305.317ZM51.7188 307.669H72.7296V308.845H51.7188V307.669ZM51.7188 310.021H72.7296V311.197H51.7188V310.021ZM51.7188 312.37H72.7296V313.546H51.7188V312.37Z" fill="white"/>
<path fill-rule="evenodd" clip-rule="evenodd" d="M51.7188 299H63.3549V307.502H51.7188V299Z" fill="#192F5D"/>
<path fill-rule="evenodd" clip-rule="evenodd" d="M52.6876 299.364L52.7953 299.7H53.1362L52.861 299.907L52.9657 300.246L52.6876 300.036L52.4125 300.243L52.5171 299.907L52.239 299.7H52.5859L52.6876 299.364ZM54.6284 299.364L54.7331 299.7H55.077L54.7989 299.907L54.9036 300.246L54.6284 300.036L54.3503 300.243L54.455 299.907L54.1799 299.7H54.5208L54.6284 299.364ZM56.5663 299.364L56.674 299.7H57.0119L56.7368 299.907L56.8414 300.246L56.5633 300.036L56.2882 300.243L56.3929 299.907L56.1147 299.7H56.4587L56.5663 299.364ZM58.5072 299.364L58.6118 299.7H58.9557L58.6776 299.907L58.7853 300.246L58.5072 300.036L58.229 300.243L58.3367 299.907L58.0586 299.7H58.3995L58.5072 299.364ZM60.445 299.364L60.5527 299.7H60.8936L60.6185 299.907L60.7231 300.246L60.445 300.036L60.1699 300.243L60.2746 299.907L59.9994 299.7H60.3404L60.445 299.364ZM62.3859 299.364L62.4906 299.7H62.8345L62.5563 299.907L62.664 300.246L62.3859 300.036L62.1078 300.243L62.2154 299.907L61.9373 299.7H62.2812L62.3859 299.364ZM53.6595 300.215L53.7642 300.551H54.1081L53.83 300.758L53.9317 301.094L53.6625 300.887L53.3844 301.094L53.4831 300.758L53.2139 300.551H53.5548L53.6595 300.215ZM55.5974 300.215L55.705 300.551H56.046L55.7678 300.758L55.8755 301.094L55.5974 300.887L55.3193 301.094L55.4269 300.758L55.1488 300.551H55.4927L55.5974 300.215ZM57.5382 300.215L57.6429 300.551H57.9868L57.7087 300.758L57.8134 301.094L57.5382 300.887L57.2601 301.094L57.3648 300.758L57.0897 300.551H57.4306L57.5382 300.215ZM59.4761 300.215L59.5838 300.551H59.9247L59.6466 300.758L59.7542 301.094L59.4761 300.887L59.201 301.094L59.3056 300.758L59.0275 300.551H59.3744L59.4761 300.215ZM61.417 300.215L61.5216 300.551H61.8655L61.5874 300.758L61.6921 301.094L61.417 300.887L61.1388 301.094L61.2435 300.758L60.9684 300.551H61.3093L61.417 300.215ZM52.6876 301.063L52.7953 301.405H53.1362L52.861 301.612L52.9657 301.948L52.6876 301.738L52.4125 301.948L52.5171 301.609L52.239 301.402H52.5859L52.6876 301.063ZM54.6284 301.063L54.7331 301.402H55.077L54.7989 301.609L54.9036 301.945L54.6284 301.735L54.3503 301.945L54.455 301.606L54.1799 301.399H54.5208L54.6284 301.063ZM56.5663 301.063L56.674 301.402H57.0119L56.7368 301.609L56.8414 301.945L56.5633 301.735L56.2882 301.945L56.3929 301.606L56.1147 301.399H56.4587L56.5663 301.063ZM58.5072 301.063L58.6118 301.402H58.9557L58.6776 301.609L58.7853 301.945L58.5072 301.735L58.229 301.945L58.3367 301.606L58.0586 301.399H58.3995L58.5072 301.063ZM60.445 301.063L60.5527 301.402H60.8936L60.6185 301.609L60.7231 301.945L60.445 301.735L60.1699 301.945L60.2746 301.606L59.9994 301.399H60.3404L60.445 301.063ZM62.3859 301.063L62.4906 301.402H62.8345L62.5563 301.609L62.664 301.945L62.3859 301.735L62.1078 301.945L62.2154 301.606L61.9373 301.399H62.2812L62.3859 301.063ZM53.6595 301.914L53.7642 302.25H54.1081L53.83 302.457L53.9346 302.796L53.6595 302.587L53.3814 302.793L53.4861 302.457L53.2109 302.25H53.5519L53.6595 301.914ZM55.5974 301.914L55.705 302.25H56.046L55.7678 302.457L55.8755 302.796L55.5974 302.587L55.3193 302.793L55.4269 302.457L55.1488 302.25H55.4927L55.5974 301.914ZM57.5382 301.914L57.6429 302.25H57.9868L57.7087 302.457L57.8134 302.796L57.5382 302.587L57.2601 302.793L57.3648 302.457L57.0897 302.25H57.4306L57.5382 301.914ZM59.4761 301.914L59.5838 302.25H59.9247L59.6495 302.457L59.7542 302.796L59.4761 302.587L59.201 302.793L59.3056 302.457L59.0275 302.25H59.3744L59.4761 301.914ZM61.417 301.914L61.5216 302.25H61.8655L61.5874 302.457L61.6921 302.796L61.417 302.587L61.1388 302.793L61.2435 302.457L60.9684 302.25H61.3093L61.417 301.914ZM52.6876 302.765L52.7953 303.102H53.1362L52.861 303.308L52.9657 303.647L52.6876 303.438L52.4125 303.644L52.5171 303.308L52.239 303.102H52.5859L52.6876 302.765ZM54.6284 302.765L54.7331 303.102H55.077L54.7989 303.308L54.9036 303.644L54.6284 303.438L54.3503 303.644L54.455 303.308L54.1799 303.102H54.5208L54.6284 302.765ZM56.5663 302.765L56.674 303.102H57.0119L56.7368 303.308L56.8414 303.647L56.5633 303.438L56.2882 303.644L56.3929 303.308L56.1147 303.102H56.4587L56.5663 302.765ZM58.5072 302.765L58.6118 303.102H58.9557L58.6776 303.308L58.7853 303.647L58.5072 303.438L58.229 303.644L58.3367 303.308L58.0586 303.102H58.3995L58.5072 302.765ZM60.445 302.765L60.5527 303.102H60.8936L60.6185 303.308L60.7231 303.647L60.445 303.438L60.1699 303.644L60.2746 303.308L59.9994 303.102H60.3404L60.445 302.765ZM62.3859 302.765L62.4906 303.102H62.8345L62.5563 303.308L62.664 303.647L62.3859 303.438L62.1078 303.644L62.2154 303.308L61.9373 303.102H62.2812L62.3859 302.765ZM53.6595 303.617L53.7642 303.953H54.1081L53.83 304.159L53.9346 304.496L53.6595 304.286L53.3814 304.496L53.4861 304.156L53.2109 303.95H53.5519L53.6595 303.617ZM55.5974 303.617L55.705 303.953H56.046L55.7678 304.159L55.8755 304.496L55.5974 304.286L55.3193 304.496L55.4269 304.156L55.1488 303.95H55.4927L55.5974 303.617ZM57.5382 303.617L57.6429 303.953H57.9868L57.7087 304.159L57.8134 304.496L57.5382 304.286L57.2601 304.496L57.3648 304.156L57.0897 303.95H57.4306L57.5382 303.617ZM59.4761 303.617L59.5838 303.953H59.9247L59.6495 304.159L59.7542 304.496L59.4761 304.286L59.201 304.496L59.3056 304.156L59.0275 303.95H59.3744L59.4761 303.617ZM61.417 303.617L61.5216 303.953H61.8655L61.5874 304.159L61.6921 304.496L61.417 304.286L61.1388 304.496L61.2435 304.156L60.9684 303.95H61.3093L61.417 303.617ZM52.6876 304.465L52.7953 304.804H53.1362L52.861 305.011L52.9657 305.344L52.6876 305.137L52.4125 305.344L52.5171 305.008L52.239 304.801H52.5859L52.6876 304.465ZM54.6284 304.465L54.7331 304.804H55.077L54.7989 305.011L54.9066 305.344L54.6284 305.137L54.3503 305.344L54.458 305.008L54.1799 304.801H54.5208L54.6284 304.465ZM56.5663 304.465L56.674 304.804H57.0119L56.7368 305.011L56.8414 305.344L56.5633 305.137L56.2882 305.344L56.3929 305.008L56.1147 304.801H56.4587L56.5663 304.465ZM58.5072 304.465L58.6118 304.804H58.9557L58.6776 305.011L58.7853 305.344L58.5072 305.137L58.229 305.344L58.3367 305.008L58.0586 304.801H58.3995L58.5072 304.465ZM60.445 304.465L60.5527 304.804H60.8936L60.6185 305.011L60.7231 305.344L60.445 305.137L60.1699 305.344L60.2746 305.008L59.9994 304.801H60.3404L60.445 304.465ZM62.3859 304.465L62.4906 304.804H62.8345L62.5563 305.011L62.664 305.344L62.3859 305.137L62.1078 305.344L62.2154 305.008L61.9373 304.801H62.2812L62.3859 304.465ZM53.6595 305.316L53.7642 305.652H54.1081L53.83 305.859L53.9346 306.198L53.6595 305.988L53.3814 306.195L53.4861 305.859L53.2109 305.652H53.5519L53.6595 305.316ZM55.5974 305.316L55.705 305.652H56.046L55.7678 305.859L55.8755 306.198L55.5974 305.988L55.3193 306.195L55.4269 305.859L55.1488 305.652H55.4927L55.5974 305.316ZM57.5382 305.316L57.6429 305.652H57.9868L57.7087 305.859L57.8134 306.198L57.5382 305.988L57.2601 306.195L57.3648 305.859L57.0897 305.652H57.4306L57.5382 305.316ZM59.4761 305.316L59.5838 305.652H59.9247L59.6495 305.859L59.7542 306.198L59.4761 305.988L59.201 306.195L59.3056 305.859L59.0275 305.652H59.3744L59.4761 305.316ZM61.417 305.316L61.5216 305.652H61.8655L61.5874 305.859L61.6921 306.198L61.417 305.988L61.1388 306.195L61.2435 305.859L60.9684 305.652H61.3093L61.417 305.316ZM52.6876 306.167L52.7953 306.503H53.1362L52.861 306.71L52.9657 307.046L52.6876 306.839L52.4125 307.046L52.5171 306.707L52.239 306.5H52.5859L52.6876 306.167ZM54.6284 306.167L54.7331 306.503H55.077L54.7989 306.71L54.9066 307.046L54.6284 306.839L54.3503 307.046L54.458 306.707L54.1799 306.5H54.5208L54.6284 306.167ZM56.5663 306.167L56.674 306.503H57.0119L56.7428 306.71L56.8474 307.046L56.5693 306.839L56.2942 307.046L56.3988 306.707L56.1207 306.5H56.4646L56.5663 306.167ZM58.5072 306.167L58.6118 306.503H58.9557L58.6776 306.71L58.7853 307.046L58.5072 306.839L58.229 307.046L58.3367 306.707L58.0586 306.5H58.3995L58.5072 306.167ZM60.445 306.167L60.5527 306.503H60.8936L60.6185 306.71L60.7231 307.046L60.445 306.839L60.1699 307.046L60.2746 306.707L59.9994 306.5H60.3404L60.445 306.167ZM62.3859 306.167L62.4906 306.503H62.8345L62.5563 306.71L62.664 307.046L62.3859 306.839L62.1078 307.046L62.2154 306.707L61.9373 306.5H62.2812L62.3859 306.167Z" fill="white"/>
<path d="M182.287 381.081L179.353 389.003H178.331L175.459 381.081H176.492L178.685 387.362C178.755 387.565 178.808 387.798 178.845 388.064H178.867C178.897 387.843 178.957 387.605 179.05 387.351L181.287 381.081H182.287ZM184.353 386.009V389.003H183.425V381.081H185.601C186.448 381.081 187.104 381.287 187.568 381.7C188.036 382.112 188.269 382.694 188.269 383.445C188.269 384.197 188.01 384.812 187.49 385.29C186.975 385.769 186.277 386.009 185.397 386.009H184.353ZM184.353 381.921V385.169H185.325C185.966 385.169 186.454 385.023 186.789 384.733C187.128 384.438 187.297 384.024 187.297 383.49C187.297 382.444 186.678 381.921 185.441 381.921H184.353ZM196.152 389.003H195.014L190.938 382.689C190.834 382.53 190.75 382.365 190.683 382.191H190.65C190.68 382.361 190.694 382.724 190.694 383.28V389.003H189.766V381.081H190.971L194.937 387.296C195.103 387.554 195.21 387.73 195.257 387.826H195.28C195.243 387.598 195.224 387.209 195.224 386.66V381.081H196.152V389.003ZM202.262 389.003H201.334V381.081H202.262V389.003ZM205.278 386.009V389.003H204.35V381.081H206.527C207.374 381.081 208.029 381.287 208.493 381.7C208.961 382.112 209.195 382.694 209.195 383.445C209.195 384.197 208.935 384.812 208.416 385.29C207.9 385.769 207.203 386.009 206.322 386.009H205.278ZM205.278 381.921V385.169H206.251C206.891 385.169 207.379 385.023 207.714 384.733C208.053 384.438 208.223 384.024 208.223 383.49C208.223 382.444 207.604 381.921 206.367 381.921H205.278ZM210.885 384.451C210.716 384.451 210.57 384.39 210.449 384.269C210.331 384.147 210.272 384.002 210.272 383.832C210.272 383.663 210.331 383.519 210.449 383.401C210.57 383.283 210.716 383.224 210.885 383.224C211.058 383.224 211.206 383.283 211.327 383.401C211.449 383.519 211.51 383.663 211.51 383.832C211.51 384.002 211.449 384.147 211.327 384.269C211.206 384.39 211.058 384.451 210.885 384.451ZM210.885 389.124C210.716 389.124 210.57 389.063 210.449 388.942C210.331 388.82 210.272 388.675 210.272 388.506C210.272 388.336 210.331 388.191 210.449 388.069C210.57 387.944 210.716 387.881 210.885 387.881C211.058 387.881 211.206 387.944 211.327 388.069C211.449 388.191 211.51 388.336 211.51 388.506C211.51 388.675 211.449 388.82 211.327 388.942C211.206 389.063 211.058 389.124 210.885 389.124Z" fill="#AFADB2"/>
<path d="M178.757 397.875V405.973H177.475V399.443C177.243 399.609 176.993 399.751 176.724 399.869C176.459 399.983 176.155 400.084 175.812 400.173V399.079C176.026 399.009 176.232 398.935 176.431 398.858C176.63 398.781 176.825 398.694 177.017 398.598C177.212 398.502 177.407 398.396 177.602 398.278C177.801 398.16 178.005 398.026 178.215 397.875H178.757ZM180.414 403.763C180.414 403.535 180.442 403.314 180.497 403.1C180.556 402.887 180.642 402.69 180.756 402.509C180.871 402.329 181.014 402.167 181.187 402.023C181.36 401.88 181.563 401.764 181.795 401.675C181.453 401.484 181.18 401.239 180.977 400.94C180.775 400.639 180.674 400.305 180.674 399.941C180.674 399.65 180.733 399.381 180.85 399.134C180.972 398.887 181.138 398.674 181.348 398.493C181.561 398.313 181.812 398.173 182.099 398.073C182.386 397.97 182.699 397.919 183.038 397.919C183.38 397.919 183.695 397.97 183.983 398.073C184.274 398.177 184.524 398.318 184.734 398.499C184.948 398.679 185.113 398.893 185.231 399.14C185.349 399.386 185.408 399.653 185.408 399.941C185.408 400.305 185.307 400.639 185.104 400.94C184.901 401.239 184.633 401.484 184.297 401.675C184.526 401.764 184.727 401.88 184.9 402.023C185.076 402.163 185.224 402.323 185.342 402.504C185.459 402.684 185.548 402.881 185.607 403.095C185.666 403.309 185.695 403.531 185.695 403.763C185.695 404.11 185.631 404.426 185.502 404.714C185.373 405.001 185.192 405.248 184.96 405.454C184.728 405.656 184.45 405.815 184.126 405.929C183.802 406.043 183.445 406.1 183.055 406.1C182.668 406.1 182.312 406.043 181.988 405.929C181.668 405.815 181.39 405.656 181.154 405.454C180.922 405.248 180.74 405.001 180.607 404.714C180.478 404.426 180.414 404.11 180.414 403.763ZM181.662 403.653C181.662 403.878 181.696 404.08 181.762 404.261C181.828 404.441 181.922 404.594 182.044 404.719C182.165 404.844 182.311 404.94 182.48 405.006C182.653 405.073 182.845 405.106 183.055 405.106C183.257 405.106 183.443 405.073 183.612 405.006C183.782 404.936 183.927 404.839 184.049 404.714C184.174 404.585 184.272 404.432 184.342 404.255C184.412 404.075 184.447 403.874 184.447 403.653C184.447 403.45 184.414 403.261 184.347 403.084C184.281 402.903 184.187 402.747 184.065 402.614C183.944 402.482 183.797 402.377 183.624 402.299C183.454 402.222 183.264 402.183 183.055 402.183C182.856 402.183 182.67 402.22 182.497 402.294C182.327 402.364 182.18 402.465 182.055 402.598C181.933 402.727 181.837 402.881 181.767 403.062C181.697 403.242 181.662 403.439 181.662 403.653ZM181.933 400.073C181.933 400.239 181.963 400.394 182.022 400.537C182.08 400.677 182.16 400.801 182.259 400.907C182.359 401.01 182.475 401.091 182.607 401.15C182.743 401.209 182.889 401.239 183.044 401.239C183.198 401.239 183.342 401.209 183.474 401.15C183.611 401.088 183.729 401.005 183.828 400.902C183.931 400.795 184.012 400.672 184.071 400.532C184.13 400.388 184.159 400.235 184.159 400.073C184.159 399.907 184.13 399.753 184.071 399.609C184.016 399.466 183.938 399.342 183.839 399.239C183.74 399.136 183.622 399.055 183.485 398.996C183.349 398.937 183.202 398.908 183.044 398.908C182.878 398.908 182.727 398.939 182.591 399.002C182.454 399.06 182.336 399.143 182.237 399.25C182.141 399.357 182.066 399.482 182.01 399.626C181.959 399.766 181.933 399.915 181.933 400.073ZM187.054 405.791V404.559C187.573 404.909 188.1 405.084 188.634 405.084C189.172 405.084 189.604 404.947 189.932 404.675C190.26 404.399 190.424 404.032 190.424 403.576C190.424 403.126 190.256 402.776 189.921 402.526C189.59 402.276 189.113 402.15 188.49 402.15C188.277 402.15 187.844 402.172 187.192 402.217L187.474 398.051H191.374V399.145H188.54L188.407 401.128C188.662 401.114 188.892 401.106 189.098 401.106C189.938 401.106 190.586 401.322 191.043 401.753C191.503 402.183 191.733 402.773 191.733 403.52C191.733 404.305 191.47 404.934 190.943 405.41C190.42 405.881 189.7 406.117 188.783 406.117C188.01 406.117 187.433 406.008 187.054 405.791ZM193.849 406.095C193.628 406.095 193.44 406.023 193.285 405.879C193.131 405.732 193.053 405.557 193.053 405.354C193.053 405.148 193.131 404.971 193.285 404.824C193.44 404.677 193.628 404.603 193.849 404.603C194.073 404.603 194.263 404.677 194.418 404.824C194.576 404.971 194.655 405.148 194.655 405.354C194.655 405.557 194.576 405.732 194.418 405.879C194.263 406.023 194.073 406.095 193.849 406.095ZM200.726 405.973H195.755V405.36C195.755 405.109 195.79 404.876 195.86 404.658C195.93 404.437 196.023 404.231 196.141 404.04C196.259 403.844 196.397 403.662 196.556 403.493C196.714 403.32 196.883 403.154 197.064 402.995C197.244 402.833 197.428 402.679 197.616 402.531C197.804 402.38 197.988 402.229 198.169 402.078C198.338 401.935 198.493 401.795 198.633 401.659C198.773 401.519 198.892 401.375 198.992 401.228C199.091 401.08 199.169 400.926 199.224 400.764C199.279 400.598 199.307 400.419 199.307 400.228C199.307 400.018 199.274 399.836 199.207 399.681C199.145 399.523 199.054 399.392 198.937 399.289C198.822 399.182 198.686 399.103 198.528 399.051C198.369 398.996 198.196 398.968 198.008 398.968C197.684 398.968 197.355 399.044 197.02 399.195C196.685 399.346 196.362 399.572 196.053 399.874V398.642C196.215 398.521 196.379 398.416 196.545 398.328C196.71 398.235 196.882 398.16 197.058 398.101C197.235 398.038 197.421 397.992 197.616 397.963C197.811 397.934 198.02 397.919 198.241 397.919C198.598 397.919 198.922 397.967 199.213 398.062C199.504 398.154 199.752 398.293 199.959 398.477C200.165 398.657 200.323 398.884 200.434 399.156C200.548 399.429 200.605 399.742 200.605 400.095C200.605 400.416 200.564 400.705 200.483 400.963C200.406 401.217 200.294 401.454 200.146 401.675C200.003 401.896 199.828 402.106 199.622 402.305C199.415 402.504 199.185 402.708 198.931 402.918C198.717 403.091 198.504 403.261 198.29 403.426C198.08 403.588 197.891 403.749 197.721 403.907C197.552 404.062 197.414 404.218 197.307 404.377C197.204 404.531 197.152 404.688 197.152 404.846V404.874H200.726V405.973ZM204.897 397.875V405.973H203.616V399.443C203.384 399.609 203.133 399.751 202.864 399.869C202.599 399.983 202.295 400.084 201.953 400.173V399.079C202.166 399.009 202.373 398.935 202.571 398.858C202.77 398.781 202.966 398.694 203.157 398.598C203.352 398.502 203.547 398.396 203.743 398.278C203.941 398.16 204.146 398.026 204.356 397.875H204.897ZM211.167 398.051V403.167H212.344V404.233H211.167V405.973H209.924V404.233H206.339V403.156C206.663 402.791 206.994 402.397 207.333 401.974C207.676 401.546 208.004 401.112 208.317 400.67C208.633 400.224 208.926 399.779 209.195 399.333C209.464 398.887 209.69 398.46 209.874 398.051H211.167ZM209.924 403.167V399.841C209.523 400.563 209.125 401.193 208.731 401.73C208.341 402.268 207.974 402.747 207.632 403.167H209.924ZM213.935 406.095C213.714 406.095 213.526 406.023 213.371 405.879C213.217 405.732 213.139 405.557 213.139 405.354C213.139 405.148 213.217 404.971 213.371 404.824C213.526 404.677 213.714 404.603 213.935 404.603C214.159 404.603 214.349 404.677 214.504 404.824C214.662 404.971 214.741 405.148 214.741 405.354C214.741 405.557 214.662 405.732 214.504 405.879C214.349 406.023 214.159 406.095 213.935 406.095ZM215.979 405.68V404.476C216.494 404.885 217.076 405.089 217.724 405.089C218.251 405.089 218.671 404.969 218.984 404.73C219.301 404.491 219.459 404.167 219.459 403.758C219.459 402.859 218.772 402.41 217.398 402.41H216.785V401.382H217.371C218.59 401.382 219.199 400.959 219.199 400.112C219.199 399.331 218.724 398.941 217.774 398.941C217.244 398.941 216.745 399.13 216.277 399.51V398.372C216.815 398.07 217.45 397.919 218.183 397.919C218.886 397.919 219.45 398.096 219.873 398.449C220.297 398.803 220.508 399.256 220.508 399.808C220.508 400.85 219.978 401.521 218.918 401.819V401.841C219.488 401.896 219.939 402.097 220.271 402.443C220.602 402.786 220.768 403.215 220.768 403.73C220.768 404.441 220.501 405.015 219.967 405.454C219.433 405.888 218.73 406.106 217.857 406.106C217.072 406.106 216.446 405.964 215.979 405.68ZM227.265 398.692C226.933 399.3 226.62 399.902 226.325 400.499C226.031 401.091 225.764 401.688 225.524 402.288C225.285 402.889 225.077 403.495 224.9 404.106C224.723 404.714 224.587 405.336 224.491 405.973H223.149C223.237 405.406 223.363 404.841 223.525 404.277C223.69 403.71 223.884 403.145 224.105 402.581C224.326 402.014 224.572 401.445 224.845 400.874C225.121 400.303 225.414 399.727 225.723 399.145H221.972V398.051H227.265V398.692ZM233.435 401.581C233.435 402.373 233.348 403.054 233.175 403.625C233.006 404.196 232.77 404.666 232.468 405.034C232.17 405.402 231.818 405.675 231.413 405.851C231.012 406.025 230.579 406.111 230.115 406.111C229.964 406.111 229.811 406.102 229.657 406.084C229.506 406.065 229.36 406.041 229.22 406.012C229.084 405.982 228.959 405.951 228.844 405.918C228.734 405.881 228.642 405.846 228.568 405.813V404.658C228.646 404.706 228.741 404.756 228.856 404.807C228.97 404.855 229.093 404.899 229.226 404.94C229.362 404.977 229.502 405.008 229.645 405.034C229.793 405.056 229.935 405.067 230.071 405.067C230.384 405.067 230.667 405.006 230.922 404.885C231.179 404.763 231.398 404.583 231.579 404.343C231.759 404.104 231.897 403.808 231.993 403.454C232.093 403.097 232.142 402.684 232.142 402.217H232.12C232.054 402.334 231.966 402.447 231.855 402.554C231.748 402.657 231.625 402.749 231.485 402.83C231.345 402.907 231.189 402.97 231.015 403.018C230.846 403.065 230.664 403.089 230.469 403.089C230.137 403.089 229.828 403.032 229.54 402.918C229.257 402.8 229.01 402.635 228.8 402.421C228.59 402.207 228.425 401.948 228.303 401.642C228.185 401.336 228.126 400.996 228.126 400.62C228.126 400.208 228.194 399.836 228.331 399.504C228.467 399.169 228.655 398.886 228.894 398.653C229.134 398.418 229.415 398.237 229.739 398.112C230.063 397.983 230.415 397.919 230.794 397.919C231.152 397.919 231.489 397.987 231.805 398.123C232.126 398.256 232.406 398.469 232.645 398.764C232.888 399.055 233.08 399.432 233.22 399.896C233.363 400.36 233.435 400.922 233.435 401.581ZM232.098 400.736C232.098 400.471 232.063 400.23 231.993 400.012C231.927 399.795 231.833 399.609 231.711 399.454C231.59 399.3 231.444 399.18 231.275 399.095C231.109 399.011 230.927 398.968 230.728 398.968C230.551 398.968 230.382 399.005 230.22 399.079C230.062 399.149 229.922 399.25 229.8 399.383C229.682 399.515 229.588 399.675 229.518 399.863C229.448 400.051 229.413 400.259 229.413 400.488C229.413 400.738 229.447 400.959 229.513 401.15C229.583 401.342 229.679 401.504 229.8 401.637C229.922 401.765 230.067 401.865 230.237 401.935C230.41 402.001 230.599 402.034 230.806 402.034C230.99 402.034 231.159 402.001 231.314 401.935C231.472 401.865 231.608 401.773 231.723 401.659C231.84 401.541 231.932 401.403 231.999 401.244C232.065 401.086 232.098 400.917 232.098 400.736ZM235.335 406.095C235.114 406.095 234.927 406.023 234.772 405.879C234.617 405.732 234.54 405.557 234.54 405.354C234.54 405.148 234.617 404.971 234.772 404.824C234.927 404.677 235.114 404.603 235.335 404.603C235.56 404.603 235.75 404.677 235.904 404.824C236.063 404.971 236.142 405.148 236.142 405.354C236.142 405.557 236.063 405.732 235.904 405.879C235.75 406.023 235.56 406.095 235.335 406.095ZM242.583 403.426C242.583 403.824 242.517 404.187 242.384 404.515C242.255 404.842 242.075 405.126 241.843 405.365C241.611 405.601 241.335 405.785 241.014 405.918C240.697 406.047 240.353 406.111 239.981 406.111C239.583 406.111 239.217 406.034 238.882 405.879C238.55 405.724 238.263 405.494 238.02 405.189C237.781 404.883 237.595 404.504 237.462 404.051C237.33 403.594 237.263 403.065 237.263 402.465C237.263 401.732 237.35 401.082 237.523 400.515C237.7 399.948 237.941 399.473 238.247 399.09C238.552 398.707 238.911 398.416 239.324 398.217C239.736 398.018 240.182 397.919 240.661 397.919C240.959 397.919 241.23 397.939 241.473 397.98C241.719 398.02 241.916 398.075 242.064 398.145V399.3C241.876 399.204 241.675 399.123 241.462 399.057C241.248 398.99 241.003 398.957 240.727 398.957C240.418 398.957 240.132 399.02 239.871 399.145C239.609 399.27 239.383 399.454 239.191 399.698C239.003 399.937 238.854 400.235 238.744 400.592C238.637 400.946 238.582 401.355 238.578 401.819H238.611C238.781 401.557 239.009 401.351 239.296 401.2C239.587 401.049 239.928 400.974 240.318 400.974C240.664 400.974 240.976 401.031 241.252 401.145C241.532 401.255 241.769 401.417 241.964 401.631C242.163 401.841 242.316 402.099 242.423 402.404C242.53 402.706 242.583 403.047 242.583 403.426ZM241.29 403.531C241.29 403.303 241.263 403.095 241.208 402.907C241.156 402.719 241.075 402.559 240.964 402.427C240.858 402.29 240.721 402.185 240.556 402.112C240.394 402.038 240.202 402.001 239.981 402.001C239.76 402.001 239.565 402.042 239.396 402.123C239.23 402.2 239.09 402.303 238.976 402.432C238.862 402.561 238.775 402.708 238.716 402.874C238.661 403.04 238.633 403.209 238.633 403.382C238.633 403.57 238.659 403.763 238.711 403.962C238.766 404.157 238.849 404.336 238.959 404.498C239.07 404.66 239.21 404.795 239.379 404.901C239.552 405.004 239.757 405.056 239.992 405.056C240.202 405.056 240.388 405.017 240.55 404.94C240.712 404.863 240.847 404.756 240.953 404.62C241.064 404.483 241.147 404.323 241.202 404.139C241.261 403.951 241.29 403.749 241.29 403.531ZM248.135 398.051V403.167H249.312V404.233H248.135V405.973H246.892V404.233H243.307V403.156C243.631 402.791 243.962 402.397 244.301 401.974C244.644 401.546 244.971 401.112 245.284 400.67C245.601 400.224 245.894 399.779 246.163 399.333C246.432 398.887 246.658 398.46 246.842 398.051H248.135ZM246.892 403.167V399.841C246.491 400.563 246.093 401.193 245.699 401.73C245.308 402.268 244.942 402.747 244.599 403.167H246.892Z" fill="#5B5863"/>
<path d="M34.2908 389.003H33.3628V381.081H34.2908V389.003ZM37.307 386.009V389.003H36.379V381.081H38.5555C39.4025 381.081 40.0581 381.287 40.5221 381.7C40.9898 382.112 41.2237 382.694 41.2237 383.446C41.2237 384.197 40.964 384.812 40.4448 385.291C39.9292 385.769 39.2313 386.009 38.3511 386.009H37.307ZM37.307 381.921V385.169H38.2793C38.9201 385.169 39.4081 385.024 39.7432 384.733C40.082 384.438 40.2514 384.024 40.2514 383.49C40.2514 382.444 39.6327 381.921 38.3953 381.921H37.307ZM42.9141 384.451C42.7447 384.451 42.5992 384.39 42.4777 384.269C42.3598 384.147 42.3009 384.002 42.3009 383.832C42.3009 383.663 42.3598 383.519 42.4777 383.401C42.5992 383.284 42.7447 383.225 42.9141 383.225C43.0872 383.225 43.2345 383.284 43.356 383.401C43.4775 383.519 43.5383 383.663 43.5383 383.832C43.5383 384.002 43.4775 384.147 43.356 384.269C43.2345 384.39 43.0872 384.451 42.9141 384.451ZM42.9141 389.124C42.7447 389.124 42.5992 389.064 42.4777 388.942C42.3598 388.821 42.3009 388.675 42.3009 388.506C42.3009 388.336 42.3598 388.191 42.4777 388.069C42.5992 387.944 42.7447 387.881 42.9141 387.881C43.0872 387.881 43.2345 387.944 43.356 388.069C43.4775 388.191 43.5383 388.336 43.5383 388.506C43.5383 388.675 43.4775 388.821 43.356 388.942C43.2345 389.064 43.0872 389.124 42.9141 389.124Z" fill="#AFADB2"/>
<path d="M35.7216 397.874V405.973H34.44V399.443C34.208 399.609 33.9575 399.751 33.6887 399.869C33.4235 399.983 33.1197 400.084 32.7772 400.173V399.079C32.9908 399.009 33.197 398.935 33.3959 398.858C33.5948 398.78 33.79 398.694 33.9815 398.598C34.1767 398.502 34.3718 398.396 34.567 398.278C34.7659 398.16 34.9703 398.025 35.1802 397.874H35.7216ZM42.66 401.581C42.66 402.373 42.5734 403.054 42.4003 403.625C42.2309 404.196 41.9952 404.666 41.6932 405.034C41.3949 405.402 41.0432 405.675 40.6381 405.851C40.2367 406.024 39.804 406.111 39.3399 406.111C39.1889 406.111 39.0361 406.102 38.8814 406.083C38.7304 406.065 38.585 406.041 38.445 406.012C38.3087 405.982 38.1835 405.951 38.0694 405.918C37.9589 405.881 37.8668 405.846 37.7932 405.813V404.658C37.8705 404.706 37.9662 404.756 38.0804 404.807C38.1946 404.855 38.318 404.899 38.4505 404.94C38.5868 404.977 38.7267 405.008 38.8704 405.034C39.0177 405.056 39.1595 405.067 39.2957 405.067C39.6088 405.067 39.8923 405.006 40.1465 404.885C40.4042 404.763 40.6234 404.583 40.8038 404.343C40.9843 404.104 41.1224 403.807 41.2181 403.454C41.3176 403.097 41.3673 402.684 41.3673 402.216H41.3452C41.2789 402.334 41.1905 402.447 41.08 402.553C40.9732 402.657 40.8499 402.749 40.7099 402.83C40.57 402.907 40.4135 402.97 40.2404 403.017C40.071 403.065 39.8887 403.089 39.6935 403.089C39.362 403.089 39.0527 403.032 38.7654 402.918C38.4818 402.8 38.2351 402.634 38.0252 402.421C37.8153 402.207 37.6495 401.948 37.528 401.642C37.4101 401.336 37.3512 400.996 37.3512 400.62C37.3512 400.208 37.4194 399.836 37.5556 399.504C37.6919 399.169 37.8797 398.885 38.1191 398.653C38.3585 398.418 38.6402 398.237 38.9643 398.112C39.2884 397.983 39.6401 397.919 40.0194 397.919C40.3766 397.919 40.7136 397.987 41.0303 398.123C41.3507 398.256 41.6306 398.469 41.87 398.764C42.1131 399.055 42.3046 399.432 42.4445 399.896C42.5881 400.36 42.66 400.922 42.66 401.581ZM41.3231 400.736C41.3231 400.471 41.2881 400.23 41.2181 400.012C41.1519 399.795 41.0579 399.609 40.9364 399.454C40.8149 399.3 40.6694 399.18 40.5 399.095C40.3343 399.011 40.152 398.968 39.9531 398.968C39.7763 398.968 39.6069 399.005 39.4449 399.079C39.2865 399.149 39.1466 399.25 39.025 399.383C38.9072 399.515 38.8133 399.675 38.7433 399.863C38.6733 400.051 38.6384 400.259 38.6384 400.487C38.6384 400.738 38.6715 400.959 38.7378 401.15C38.8078 401.342 38.9035 401.504 39.025 401.636C39.1466 401.765 39.292 401.865 39.4615 401.935C39.6345 402.001 39.8242 402.034 40.0304 402.034C40.2146 402.034 40.384 402.001 40.5387 401.935C40.697 401.865 40.8333 401.773 40.9475 401.659C41.0653 401.541 41.1574 401.403 41.2237 401.244C41.29 401.086 41.3231 400.916 41.3231 400.736ZM48.7089 405.973H43.7372V405.36C43.7372 405.109 43.7722 404.875 43.8421 404.658C43.9121 404.437 44.006 404.231 44.1239 404.039C44.2417 403.844 44.3798 403.662 44.5382 403.493C44.6965 403.319 44.8659 403.154 45.0464 402.995C45.2269 402.833 45.411 402.679 45.5988 402.531C45.7866 402.38 45.9708 402.229 46.1512 402.078C46.3206 401.935 46.4753 401.795 46.6153 401.659C46.7552 401.519 46.8749 401.375 46.9743 401.228C47.0738 401.08 47.1511 400.926 47.2064 400.764C47.2616 400.598 47.2892 400.419 47.2892 400.228C47.2892 400.018 47.2561 399.836 47.1898 399.681C47.1272 399.523 47.0369 399.392 46.9191 399.289C46.8049 399.182 46.6687 399.103 46.5103 399.051C46.3519 398.996 46.1789 398.968 45.991 398.968C45.6669 398.968 45.3373 399.044 45.0022 399.195C44.6671 399.346 44.3448 399.572 44.0355 399.874V398.642C44.1975 398.521 44.3614 398.416 44.5271 398.327C44.6929 398.235 44.8641 398.16 45.0409 398.101C45.2176 398.038 45.4036 397.992 45.5988 397.963C45.794 397.933 46.0021 397.919 46.223 397.919C46.5803 397.919 46.9044 397.967 47.1953 398.062C47.4862 398.154 47.7348 398.292 47.9411 398.477C48.1473 398.657 48.3057 398.884 48.4161 399.156C48.5303 399.429 48.5874 399.742 48.5874 400.095C48.5874 400.416 48.5469 400.705 48.4659 400.962C48.3885 401.217 48.2762 401.454 48.1289 401.675C47.9853 401.896 47.8103 402.106 47.6041 402.305C47.3979 402.504 47.1677 402.708 46.9136 402.918C46.7 403.091 46.4864 403.261 46.2728 403.426C46.0628 403.588 45.8732 403.749 45.7038 403.907C45.5344 404.062 45.3963 404.218 45.2895 404.376C45.1863 404.531 45.1348 404.688 45.1348 404.846V404.874H48.7089V405.973ZM50.8468 406.094C50.6258 406.094 50.438 406.023 50.2833 405.879C50.1286 405.732 50.0513 405.557 50.0513 405.354C50.0513 405.148 50.1286 404.971 50.2833 404.824C50.438 404.677 50.6258 404.603 50.8468 404.603C51.0714 404.603 51.2611 404.677 51.4158 404.824C51.5741 404.971 51.6533 405.148 51.6533 405.354C51.6533 405.557 51.5741 405.732 51.4158 405.879C51.2611 406.023 51.0714 406.094 50.8468 406.094ZM55.6086 397.874V405.973H54.327V399.443C54.095 399.609 53.8446 399.751 53.5757 399.869C53.3106 399.983 53.0067 400.084 52.6642 400.173V399.079C52.8778 399.009 53.0841 398.935 53.2829 398.858C53.4818 398.78 53.677 398.694 53.8685 398.598C54.0637 398.502 54.2589 398.396 54.4541 398.278C54.6529 398.16 54.8573 398.025 55.0673 397.874H55.6086ZM57.6194 405.791V404.559C58.1387 404.909 58.6653 405.084 59.1993 405.084C59.737 405.084 60.1698 404.947 60.4975 404.675C60.8253 404.399 60.9892 404.032 60.9892 403.575C60.9892 403.126 60.8216 402.776 60.4865 402.526C60.155 402.275 59.6781 402.15 59.0557 402.15C58.8421 402.15 58.4094 402.172 57.7575 402.216L58.0393 398.051H61.9393V399.145H59.1054L58.9728 401.128C59.227 401.113 59.4571 401.106 59.6634 401.106C60.503 401.106 61.1512 401.322 61.6079 401.752C62.0682 402.183 62.2984 402.773 62.2984 403.52C62.2984 404.305 62.0351 404.934 61.5084 405.409C60.9855 405.881 60.2655 406.117 59.3485 406.117C58.5751 406.117 57.9988 406.008 57.6194 405.791ZM68.9329 403.426C68.9329 403.824 68.8666 404.187 68.7341 404.515C68.6052 404.842 68.4247 405.126 68.1927 405.365C67.9607 405.601 67.6845 405.785 67.3641 405.918C67.0474 406.047 66.703 406.111 66.331 406.111C65.9333 406.111 65.5669 406.034 65.2317 405.879C64.9003 405.724 64.613 405.494 64.37 405.188C64.1306 404.883 63.9446 404.503 63.812 404.051C63.6794 403.594 63.6132 403.065 63.6132 402.465C63.6132 401.732 63.6997 401.082 63.8728 400.515C64.0496 399.948 64.2908 399.473 64.5965 399.09C64.9021 398.707 65.2612 398.416 65.6737 398.217C66.0861 398.018 66.5318 397.919 67.0105 397.919C67.3088 397.919 67.5795 397.939 67.8226 397.979C68.0693 398.02 68.2664 398.075 68.4137 398.145V399.3C68.2258 399.204 68.0251 399.123 67.8115 399.057C67.5979 398.99 67.353 398.957 67.0768 398.957C66.7675 398.957 66.482 399.02 66.2206 399.145C65.9591 399.27 65.7326 399.454 65.5411 399.697C65.3533 399.937 65.2041 400.235 65.0936 400.592C64.9868 400.946 64.9316 401.355 64.9279 401.819H64.9611C65.1305 401.557 65.3588 401.351 65.6461 401.2C65.937 401.049 66.2776 400.974 66.668 400.974C67.0142 400.974 67.3254 401.031 67.6016 401.145C67.8815 401.255 68.119 401.417 68.3142 401.631C68.5131 401.841 68.6659 402.099 68.7727 402.404C68.8795 402.706 68.9329 403.047 68.9329 403.426ZM67.6403 403.531C67.6403 403.303 67.6127 403.095 67.5574 402.907C67.5059 402.719 67.4248 402.559 67.3144 402.426C67.2076 402.29 67.0713 402.185 66.9056 402.112C66.7435 402.038 66.552 402.001 66.331 402.001C66.1101 402.001 65.9149 402.042 65.7455 402.123C65.5798 402.2 65.4398 402.303 65.3256 402.432C65.2115 402.561 65.1249 402.708 65.066 402.874C65.0108 403.04 64.9832 403.209 64.9832 403.382C64.9832 403.57 65.0089 403.763 65.0605 403.962C65.1157 404.157 65.1986 404.336 65.3091 404.498C65.4196 404.66 65.5595 404.794 65.7289 404.901C65.902 405.004 66.1064 405.056 66.3421 405.056C66.552 405.056 66.738 405.017 66.9 404.94C67.0621 404.863 67.1965 404.756 67.3033 404.619C67.4138 404.483 67.4967 404.323 67.5519 404.139C67.6108 403.951 67.6403 403.749 67.6403 403.531ZM70.7338 406.094C70.5129 406.094 70.325 406.023 70.1704 405.879C70.0157 405.732 69.9383 405.557 69.9383 405.354C69.9383 405.148 70.0157 404.971 70.1704 404.824C70.325 404.677 70.5129 404.603 70.7338 404.603C70.9585 404.603 71.1481 404.677 71.3028 404.824C71.4612 404.971 71.5403 405.148 71.5403 405.354C71.5403 405.557 71.4612 405.732 71.3028 405.879C71.1481 406.023 70.9585 406.094 70.7338 406.094ZM77.2137 398.051V403.167H78.3903V404.233H77.2137V405.973H75.9707V404.233H72.3855V403.156C72.7096 402.791 73.0411 402.397 73.3799 401.973C73.7224 401.546 74.0502 401.112 74.3632 400.67C74.6799 400.224 74.9727 399.778 75.2415 399.333C75.5104 398.887 75.7369 398.46 75.921 398.051H77.2137ZM75.9707 403.167V399.841C75.5693 400.563 75.1716 401.193 74.7775 401.73C74.3871 402.268 74.0207 402.747 73.6782 403.167H75.9707ZM79.4731 405.791V404.559C79.9923 404.909 80.519 405.084 81.053 405.084C81.5907 405.084 82.0234 404.947 82.3512 404.675C82.6789 404.399 82.8428 404.032 82.8428 403.575C82.8428 403.126 82.6752 402.776 82.3401 402.526C82.0087 402.275 81.5317 402.15 80.9094 402.15C80.6957 402.15 80.263 402.172 79.6112 402.216L79.8929 398.051H83.793V399.145H80.9591L80.8265 401.128C81.0806 401.113 81.3108 401.106 81.517 401.106C82.3567 401.106 83.0049 401.322 83.4615 401.752C83.9219 402.183 84.152 402.773 84.152 403.52C84.152 404.305 83.8887 404.934 83.3621 405.409C82.8391 405.881 82.1191 406.117 81.2021 406.117C80.4287 406.117 79.8524 406.008 79.4731 405.791ZM90.5822 398.692C90.2507 399.3 89.9377 399.902 89.6431 400.498C89.3485 401.091 89.0815 401.688 88.8421 402.288C88.6027 402.889 88.3946 403.494 88.2178 404.106C88.0411 404.713 87.9048 405.336 87.809 405.973H86.4667C86.5551 405.406 86.6803 404.84 86.8423 404.277C87.008 403.71 87.2014 403.145 87.4224 402.581C87.6433 402.014 87.8901 401.445 88.1626 400.874C88.4388 400.303 88.7316 399.727 89.0409 399.145H85.29V398.051H90.5822V398.692ZM92.3334 406.094C92.1124 406.094 91.9246 406.023 91.7699 405.879C91.6152 405.732 91.5379 405.557 91.5379 405.354C91.5379 405.148 91.6152 404.971 91.7699 404.824C91.9246 404.677 92.1124 404.603 92.3334 404.603C92.558 404.603 92.7477 404.677 92.9023 404.824C93.0607 404.971 93.1399 405.148 93.1399 405.354C93.1399 405.557 93.0607 405.732 92.9023 405.879C92.7477 406.023 92.558 406.094 92.3334 406.094ZM99.211 405.973H94.2392V405.36C94.2392 405.109 94.2742 404.875 94.3442 404.658C94.4141 404.437 94.508 404.231 94.6259 404.039C94.7437 403.844 94.8818 403.662 95.0402 403.493C95.1986 403.319 95.368 403.154 95.5484 402.995C95.7289 402.833 95.913 402.679 96.1008 402.531C96.2887 402.38 96.4728 402.229 96.6533 402.078C96.8227 401.935 96.9773 401.795 97.1173 401.659C97.2572 401.519 97.3769 401.375 97.4764 401.228C97.5758 401.08 97.6531 400.926 97.7084 400.764C97.7636 400.598 97.7912 400.419 97.7912 400.228C97.7912 400.018 97.7581 399.836 97.6918 399.681C97.6292 399.523 97.539 399.392 97.4211 399.289C97.307 399.182 97.1707 399.103 97.0123 399.051C96.854 398.996 96.6809 398.968 96.4931 398.968C96.169 398.968 95.8394 399.044 95.5042 399.195C95.1691 399.346 94.8469 399.572 94.5375 399.874V398.642C94.6995 398.521 94.8634 398.416 95.0291 398.327C95.1949 398.235 95.3661 398.16 95.5429 398.101C95.7197 398.038 95.9057 397.992 96.1008 397.963C96.296 397.933 96.5041 397.919 96.7251 397.919C97.0823 397.919 97.4064 397.967 97.6973 398.062C97.9883 398.154 98.2369 398.292 98.4431 398.477C98.6493 398.657 98.8077 398.884 98.9182 399.156C99.0323 399.429 99.0894 399.742 99.0894 400.095C99.0894 400.416 99.0489 400.705 98.9679 400.962C98.8905 401.217 98.7782 401.454 98.6309 401.675C98.4873 401.896 98.3124 402.106 98.1061 402.305C97.8999 402.504 97.6697 402.708 97.4156 402.918C97.202 403.091 96.9884 403.261 96.7748 403.426C96.5649 403.588 96.3752 403.749 96.2058 403.907C96.0364 404.062 95.8983 404.218 95.7915 404.376C95.6884 404.531 95.6368 404.688 95.6368 404.846V404.874H99.211V405.973ZM103.382 397.874V405.973H102.1V399.443C101.868 399.609 101.618 399.751 101.349 399.869C101.084 399.983 100.78 400.084 100.437 400.173V399.079C100.651 399.009 100.857 398.935 101.056 398.858C101.255 398.78 101.45 398.694 101.642 398.598C101.837 398.502 102.032 398.396 102.227 398.278C102.426 398.16 102.63 398.025 102.84 397.874H103.382Z" fill="#5B5863"/>
<path d="M53.008 449.611H52.1668V443.255C52.1018 443.32 52.006 443.395 51.8795 443.481C51.7564 443.563 51.6162 443.645 51.4589 443.727C51.305 443.809 51.1408 443.886 50.9664 443.958C50.7955 444.03 50.6279 444.086 50.4637 444.127V443.276C50.6484 443.224 50.8433 443.156 51.0485 443.071C51.2571 442.982 51.4606 442.884 51.6589 442.778C51.8607 442.669 52.0505 442.556 52.2283 442.44C52.4061 442.32 52.56 442.204 52.69 442.091H53.008V449.611ZM58.9173 444.184C58.9173 443.958 58.8814 443.761 58.8096 443.594C58.7412 443.426 58.6454 443.288 58.5223 443.178C58.4026 443.065 58.2607 442.982 58.0966 442.927C57.9324 442.872 57.7546 442.845 57.5631 442.845C57.3989 442.845 57.2382 442.867 57.0809 442.912C56.9236 442.956 56.7697 443.018 56.6192 443.096C56.4722 443.175 56.3286 443.269 56.1884 443.378C56.0516 443.488 55.9233 443.609 55.8036 443.743V442.84C56.0396 442.611 56.3029 442.436 56.5936 442.317C56.8877 442.193 57.2451 442.132 57.6657 442.132C57.9666 442.132 58.2453 442.176 58.5018 442.265C58.7583 442.351 58.9806 442.477 59.1687 442.645C59.3567 442.812 59.5038 443.019 59.6098 443.266C59.7192 443.512 59.7739 443.794 59.7739 444.112C59.7739 444.403 59.7398 444.666 59.6714 444.902C59.6064 445.138 59.5055 445.36 59.3687 445.569C59.2353 445.777 59.0661 445.977 58.8609 446.169C58.6557 446.36 58.4146 446.555 58.1376 446.754C57.7922 447 57.5067 447.21 57.281 447.385C57.0587 447.559 56.8809 447.723 56.7475 447.877C56.6175 448.027 56.5252 448.18 56.4705 448.334C56.4192 448.484 56.3935 448.658 56.3935 448.857H60.0561V449.611H55.5164V449.247C55.5164 448.932 55.5506 448.655 55.619 448.416C55.6874 448.176 55.8002 447.949 55.9575 447.733C56.1148 447.518 56.32 447.302 56.5731 447.087C56.8296 446.872 57.1425 446.629 57.5118 446.359C57.7785 446.167 58.0008 445.984 58.1786 445.81C58.3599 445.635 58.5052 445.461 58.6147 445.287C58.7241 445.112 58.801 444.936 58.8455 444.758C58.8934 444.577 58.9173 444.385 58.9173 444.184ZM65.5909 447.364C65.5909 447.723 65.5294 448.048 65.4062 448.339C65.2831 448.629 65.107 448.879 64.8779 449.088C64.6522 449.296 64.3786 449.457 64.0572 449.57C63.7357 449.683 63.3783 449.739 62.9851 449.739C62.3011 449.739 61.7933 449.636 61.4616 449.431V448.539C61.9609 448.86 62.4721 449.021 62.9953 449.021C63.2621 449.021 63.5015 448.982 63.7135 448.903C63.9289 448.824 64.1119 448.715 64.2623 448.575C64.4128 448.434 64.5274 448.265 64.606 448.067C64.6881 447.868 64.7291 447.651 64.7291 447.415C64.7291 446.937 64.5684 446.562 64.247 446.292C63.9255 446.018 63.4587 445.882 62.8466 445.882C62.7474 445.882 62.6431 445.883 62.5337 445.887C62.4242 445.89 62.3148 445.895 62.2054 445.902C62.0959 445.906 61.9882 445.911 61.8822 445.918C61.7796 445.924 61.6856 445.933 61.6001 445.943L61.8514 442.255H65.2524V443.014H62.5798L62.4311 445.174C62.5405 445.167 62.6568 445.162 62.7799 445.158C62.903 445.151 63.0124 445.148 63.1082 445.148C63.498 445.148 63.8468 445.199 64.1546 445.302C64.4624 445.405 64.7223 445.552 64.9343 445.743C65.1498 445.931 65.3122 446.164 65.4216 446.441C65.5345 446.714 65.5909 447.022 65.5909 447.364ZM77.6301 449.611H76.7734V444.676C76.7734 444.286 76.7974 443.809 76.8452 443.245H76.8247C76.7426 443.577 76.6691 443.814 76.6041 443.958L74.0906 449.611H73.67L71.1616 443.999C71.0898 443.835 71.0163 443.584 70.9411 443.245H70.9206C70.9479 443.539 70.9616 444.02 70.9616 444.686V449.611H70.1306V442.255H71.2694L73.5264 447.385C73.7008 447.778 73.8136 448.072 73.8649 448.267H73.8957C74.0428 447.863 74.1607 447.562 74.2497 447.364L76.5528 442.255H77.6301V449.611ZM79.569 449.611V442.255H81.6619C82.298 442.255 82.8024 442.411 83.1752 442.722C83.5479 443.033 83.7343 443.438 83.7343 443.937C83.7343 444.355 83.6214 444.717 83.3957 445.025C83.17 445.333 82.8588 445.552 82.4621 445.682V445.702C82.958 445.76 83.3547 445.948 83.6522 446.266C83.9497 446.581 84.0985 446.991 84.0985 447.497C84.0985 448.127 83.8728 448.636 83.4214 449.026C82.97 449.416 82.4006 449.611 81.7132 449.611H79.569ZM80.4308 443.035V445.41H81.3131C81.785 445.41 82.1561 445.297 82.4262 445.071C82.6964 444.842 82.8315 444.521 82.8315 444.107C82.8315 443.392 82.3613 443.035 81.4208 443.035H80.4308ZM80.4308 446.184V448.831H81.6004C82.1065 448.831 82.498 448.711 82.775 448.472C83.0555 448.233 83.1957 447.904 83.1957 447.487C83.1957 446.619 82.6041 446.184 81.4208 446.184H80.4308Z" fill="#5B5863"/>
<path d="M43.3951 447.126L42.2637 445.995L38.7888 449.47V439.611H37.1726V449.47L33.6978 445.995L32.5664 447.126L37.9807 452.541L43.3951 447.126Z" fill="#AFADB2"/>
<path d="M148.931 449.611H148.089V443.255C148.024 443.32 147.929 443.395 147.802 443.481C147.679 443.563 147.539 443.645 147.381 443.727C147.228 443.809 147.063 443.886 146.889 443.958C146.718 444.03 146.55 444.086 146.386 444.127V443.276C146.571 443.224 146.766 443.156 146.971 443.071C147.18 442.982 147.383 442.884 147.582 442.778C147.783 442.669 147.973 442.556 148.151 442.44C148.329 442.32 148.483 442.204 148.613 442.091H148.931V449.611ZM155.85 447.364C155.85 447.723 155.789 448.048 155.666 448.339C155.543 448.629 155.367 448.879 155.137 449.088C154.912 449.296 154.638 449.457 154.317 449.57C153.995 449.683 153.638 449.739 153.245 449.739C152.561 449.739 152.053 449.636 151.721 449.431V448.539C152.22 448.86 152.732 449.021 153.255 449.021C153.522 449.021 153.761 448.982 153.973 448.903C154.188 448.824 154.371 448.715 154.522 448.575C154.672 448.434 154.787 448.265 154.866 448.067C154.948 447.868 154.989 447.651 154.989 447.415C154.989 446.937 154.828 446.562 154.506 446.292C154.185 446.018 153.718 445.882 153.106 445.882C153.007 445.882 152.903 445.883 152.793 445.887C152.684 445.89 152.574 445.895 152.465 445.902C152.355 445.906 152.248 445.911 152.142 445.918C152.039 445.924 151.945 445.933 151.86 445.943L152.111 442.255H155.512V443.014H152.839L152.691 445.174C152.8 445.167 152.916 445.162 153.039 445.158C153.163 445.151 153.272 445.148 153.368 445.148C153.758 445.148 154.106 445.199 154.414 445.302C154.722 445.405 154.982 445.552 155.194 445.743C155.409 445.931 155.572 446.164 155.681 446.441C155.794 446.714 155.85 447.022 155.85 447.364ZM167.89 449.611H167.033V444.676C167.033 444.286 167.057 443.809 167.105 443.245H167.084C167.002 443.577 166.929 443.814 166.864 443.958L164.35 449.611H163.93L161.421 443.999C161.349 443.835 161.276 443.584 161.201 443.245H161.18C161.207 443.539 161.221 444.02 161.221 444.686V449.611H160.39V442.255H161.529L163.786 447.385C163.96 447.778 164.073 448.072 164.124 448.267H164.155C164.302 447.863 164.42 447.562 164.509 447.364L166.812 442.255H167.89V449.611ZM169.829 449.611V442.255H171.921C172.558 442.255 173.062 442.411 173.435 442.722C173.807 443.033 173.994 443.438 173.994 443.937C173.994 444.355 173.881 444.717 173.655 445.025C173.43 445.333 173.118 445.552 172.722 445.682V445.702C173.218 445.76 173.614 445.948 173.912 446.266C174.209 446.581 174.358 446.991 174.358 447.497C174.358 448.127 174.132 448.636 173.681 449.026C173.23 449.416 172.66 449.611 171.973 449.611H169.829ZM170.69 443.035V445.41H171.573C172.045 445.41 172.416 445.297 172.686 445.071C172.956 444.842 173.091 444.521 173.091 444.107C173.091 443.392 172.621 443.035 171.68 443.035H170.69ZM170.69 446.184V448.831H171.86C172.366 448.831 172.758 448.711 173.035 448.472C173.315 448.233 173.455 447.904 173.455 447.487C173.455 446.619 172.864 446.184 171.68 446.184H170.69Z" fill="#5B5863"/>
<path d="M139.318 445.025L138.186 446.156L134.711 442.682V452.541H133.095V442.682L129.62 446.156L128.489 445.025L133.903 439.611L139.318 445.025Z" fill="#AFADB2"/>
<path d="M246.856 445.902C246.856 446.518 246.8 447.063 246.687 447.538C246.578 448.014 246.417 448.416 246.205 448.744C245.996 449.069 245.738 449.317 245.43 449.488C245.126 449.655 244.779 449.739 244.389 449.739C244.02 449.739 243.69 449.659 243.399 449.498C243.112 449.334 242.869 449.096 242.671 448.785C242.472 448.474 242.322 448.092 242.219 447.641C242.117 447.186 242.065 446.666 242.065 446.082C242.065 445.439 242.118 444.871 242.224 444.379C242.334 443.886 242.493 443.474 242.701 443.142C242.91 442.807 243.168 442.556 243.476 442.388C243.787 442.217 244.143 442.132 244.543 442.132C246.085 442.132 246.856 443.389 246.856 445.902ZM245.995 445.984C245.995 443.891 245.497 442.845 244.502 442.845C243.452 442.845 242.927 443.91 242.927 446.041C242.927 448.027 243.442 449.021 244.471 449.021C245.487 449.021 245.995 448.009 245.995 445.984ZM252.258 447.364C252.258 447.723 252.196 448.048 252.073 448.339C251.95 448.629 251.774 448.879 251.545 449.088C251.319 449.296 251.046 449.457 250.724 449.57C250.403 449.683 250.045 449.739 249.652 449.739C248.968 449.739 248.46 449.636 248.129 449.431V448.539C248.628 448.86 249.139 449.021 249.662 449.021C249.929 449.021 250.168 448.982 250.38 448.903C250.596 448.824 250.779 448.715 250.929 448.575C251.08 448.434 251.194 448.265 251.273 448.067C251.355 447.868 251.396 447.651 251.396 447.415C251.396 446.937 251.235 446.562 250.914 446.292C250.593 446.018 250.126 445.882 249.514 445.882C249.414 445.882 249.31 445.883 249.201 445.887C249.091 445.89 248.982 445.895 248.872 445.902C248.763 445.906 248.655 445.911 248.549 445.918C248.447 445.924 248.353 445.933 248.267 445.943L248.518 442.255H251.919V443.014H249.247L249.098 445.174C249.208 445.167 249.324 445.162 249.447 445.158C249.57 445.151 249.679 445.148 249.775 445.148C250.165 445.148 250.514 445.199 250.822 445.302C251.129 445.405 251.389 445.552 251.601 445.743C251.817 445.931 251.979 446.164 252.089 446.441C252.201 446.714 252.258 447.022 252.258 447.364ZM254.094 445.384C253.937 445.384 253.802 445.328 253.689 445.215C253.58 445.102 253.525 444.967 253.525 444.81C253.525 444.652 253.58 444.519 253.689 444.409C253.802 444.3 253.937 444.245 254.094 444.245C254.255 444.245 254.392 444.3 254.505 444.409C254.618 444.519 254.674 444.652 254.674 444.81C254.674 444.967 254.618 445.102 254.505 445.215C254.392 445.328 254.255 445.384 254.094 445.384ZM254.094 449.724C253.937 449.724 253.802 449.667 253.689 449.554C253.58 449.442 253.525 449.306 253.525 449.149C253.525 448.992 253.58 448.857 253.689 448.744C253.802 448.628 253.937 448.57 254.094 448.57C254.255 448.57 254.392 448.628 254.505 448.744C254.618 448.857 254.674 448.992 254.674 449.149C254.674 449.306 254.618 449.442 254.505 449.554C254.392 449.667 254.255 449.724 254.094 449.724ZM260.199 447.364C260.199 447.723 260.137 448.048 260.014 448.339C259.891 448.629 259.715 448.879 259.486 449.088C259.26 449.296 258.986 449.457 258.665 449.57C258.343 449.683 257.986 449.739 257.593 449.739C256.909 449.739 256.401 449.636 256.069 449.431V448.539C256.568 448.86 257.08 449.021 257.603 449.021C257.87 449.021 258.109 448.982 258.321 448.903C258.537 448.824 258.719 448.715 258.87 448.575C259.02 448.434 259.135 448.265 259.214 448.067C259.296 447.868 259.337 447.651 259.337 447.415C259.337 446.937 259.176 446.562 258.855 446.292C258.533 446.018 258.066 445.882 257.454 445.882C257.355 445.882 257.251 445.883 257.141 445.887C257.032 445.89 256.922 445.895 256.813 445.902C256.704 445.906 256.596 445.911 256.49 445.918C256.387 445.924 256.293 445.933 256.208 445.943L256.459 442.255H259.86V443.014H257.187L257.039 445.174C257.148 445.167 257.264 445.162 257.388 445.158C257.511 445.151 257.62 445.148 257.716 445.148C258.106 445.148 258.454 445.199 258.762 445.302C259.07 445.405 259.33 445.552 259.542 445.743C259.757 445.931 259.92 446.164 260.029 446.441C260.142 446.714 260.199 447.022 260.199 447.364ZM265.251 442.255V447.113H266.195V447.882H265.251V449.611H264.42V447.882H260.963V447.154C261.284 446.791 261.609 446.405 261.937 445.994C262.266 445.581 262.579 445.162 262.876 444.738C263.177 444.314 263.454 443.891 263.707 443.471C263.964 443.047 264.179 442.641 264.353 442.255H265.251ZM261.912 447.113H264.42V443.512C264.164 443.96 263.921 444.36 263.692 444.712C263.463 445.064 263.244 445.384 263.035 445.671C262.83 445.959 262.633 446.218 262.445 446.451C262.257 446.684 262.079 446.904 261.912 447.113Z" fill="#5B5863"/>
<path d="M230.311 439.611C226.755 439.611 223.846 442.52 223.846 446.076C223.846 449.632 226.755 452.541 230.311 452.541C233.866 452.541 236.776 449.632 236.776 446.076C236.776 442.52 233.866 439.611 230.311 439.611ZM230.311 450.925C227.644 450.925 225.462 448.743 225.462 446.076C225.462 443.409 227.644 441.227 230.311 441.227C232.978 441.227 235.159 443.409 235.159 446.076C235.159 448.743 232.978 450.925 230.311 450.925Z" fill="#AFADB2"/>
<path d="M231.119 442.843H229.503V446.884H233.543V445.268H231.119V442.843Z" fill="#AFADB2"/>
<rect x="32.3242" y="422.641" width="234.351" height="0.808108" fill="#E8E6E0"/>
<rect width="299" height="29.0919" fill="#62D5B4"/>
<path d="M42.8801 9.82621L40.9624 16.6162H40.0297L38.6328 11.6539C38.5728 11.4424 38.5365 11.212 38.5239 10.9626H38.505C38.486 11.1962 38.445 11.4235 38.3819 11.6445L36.9756 16.6162H36.0522L34.0635 9.82621H34.9395L36.3837 15.0347C36.4437 15.2525 36.4816 15.4798 36.4973 15.7166H36.521C36.5368 15.5493 36.5857 15.322 36.6678 15.0347L38.1688 9.82621H38.9311L40.3706 15.0726C40.4211 15.2525 40.459 15.464 40.4842 15.7071H40.5032C40.5158 15.5429 40.5584 15.3251 40.631 15.0537L42.0184 9.82621H42.8801ZM47.3074 14.386H43.8839C43.8966 14.9258 44.0418 15.3425 44.3196 15.6361C44.5974 15.9296 44.9793 16.0764 45.4654 16.0764C46.0115 16.0764 46.5135 15.8965 46.9712 15.5366V16.2658C46.545 16.5752 45.9816 16.7299 45.2808 16.7299C44.5958 16.7299 44.0576 16.5105 43.6661 16.0717C43.2747 15.6298 43.079 15.0095 43.079 14.2108C43.079 13.4564 43.2921 12.8424 43.7182 12.3689C44.1475 11.8923 44.6794 11.6539 45.3139 11.6539C45.9484 11.6539 46.4393 11.8591 46.7865 12.2695C47.1337 12.6798 47.3074 13.2496 47.3074 13.9788V14.386ZM46.5119 13.7279C46.5087 13.2796 46.3998 12.9308 46.1852 12.6814C45.9737 12.432 45.6785 12.3074 45.2997 12.3074C44.9335 12.3074 44.6226 12.4384 44.3669 12.7004C44.1112 12.9624 43.9534 13.3049 43.8934 13.7279H46.5119ZM53.6381 9.82621L51.1238 16.6162H50.2478L47.7856 9.82621H48.671L50.5508 15.2099C50.6108 15.3835 50.6566 15.584 50.6882 15.8113H50.7071C50.7323 15.6219 50.7844 15.4183 50.8634 15.2004L52.781 9.82621H53.6381ZM55.409 14.0498V16.6162H54.6135V9.82621H56.4791C57.2051 9.82621 57.767 10.003 58.1647 10.3565C58.5656 10.7101 58.7661 11.2088 58.7661 11.8528C58.7661 12.4968 58.5435 13.0239 58.0984 13.4343C57.6565 13.8447 57.0583 14.0498 56.3039 14.0498H55.409ZM55.409 10.5459V13.3301H56.2423C56.7916 13.3301 57.2098 13.2054 57.4971 12.956C57.7875 12.7035 57.9327 12.3484 57.9327 11.8907C57.9327 10.9942 57.4024 10.5459 56.3418 10.5459H55.409ZM65.5229 16.6162H64.5475L61.0531 11.2041C60.9647 11.0684 60.8921 10.9263 60.8353 10.7779H60.8069C60.8321 10.9232 60.8447 11.2341 60.8447 11.7107V16.6162H60.0493V9.82621H61.0815L64.4812 15.1531C64.6233 15.3741 64.7148 15.5256 64.7559 15.6077H64.7748C64.7432 15.4119 64.7275 15.0789 64.7275 14.6086V9.82621H65.5229V16.6162Z" fill="white"/>
<rect x="253.746" width="45.2541" height="29.0919" fill="#62D5B4"/>
<path d="M273.279 17.6398C273.371 17.7322 273.464 17.7784 273.602 17.7784C273.741 17.7784 273.833 17.7322 273.925 17.6398L276.373 15.1924L278.82 17.6398C278.913 17.7322 279.051 17.7784 279.143 17.7784C279.236 17.7784 279.374 17.7322 279.467 17.6398C279.651 17.4551 279.651 17.1781 279.467 16.9934L277.019 14.5459L279.467 12.0985C279.651 11.9138 279.651 11.6368 279.467 11.452C279.282 11.2673 279.005 11.2673 278.82 11.452L276.373 13.8995L273.925 11.452C273.741 11.2673 273.464 11.2673 273.279 11.452C273.094 11.6368 273.094 11.9138 273.279 12.0985L275.726 14.5459L273.279 16.9934C273.094 17.1781 273.094 17.4551 273.279 17.6398Z" fill="white"/>
<rect x="208.492" width="45.2541" height="29.0919" fill="#62D5B4"/>
<g opacity="0.3">
<mask id="path-28-inside-1" fill="white">
<path d="M233.543 15.3541H235.968V8.88926H229.503V11.3136"/>
</mask>
<path d="M233.543 16.1622H232.735V14.546H233.543V16.1622ZM235.968 15.3541H236.776V16.1622H235.968V15.3541ZM235.968 8.88926V8.08115H236.776V8.88926H235.968ZM229.503 8.88926H228.695V8.08115H229.503V8.88926ZM230.311 11.3136V12.1217H228.695V11.3136H230.311ZM233.543 14.546H235.968V16.1622H233.543V14.546ZM235.159 15.3541V8.88926H236.776V15.3541H235.159ZM235.968 9.69737H229.503V8.08115H235.968V9.69737ZM230.311 8.88926V11.3136H228.695V8.88926H230.311Z" fill="white" mask="url(#path-28-inside-1)"/>
<path d="M227.482 11.7176V17.3743H233.139V11.7176H227.482Z" stroke="white" stroke-width="0.808108" stroke-miterlimit="10" stroke-linecap="square"/>
</g>
<rect x="163.238" width="45.2541" height="29.0919" fill="#62D5B4"/>
<path d="M183.036 14.5459H188.693C188.936 14.5459 189.097 14.3843 189.097 14.1419C189.097 13.8994 188.936 13.7378 188.693 13.7378H183.036C182.794 13.7378 182.632 13.8994 182.632 14.1419C182.632 14.3843 182.794 14.5459 183.036 14.5459Z" fill="white"/>
<rect x="12.9297" y="6.46487" width="16.1622" height="16.1622" rx="8.08108" fill="#FD3E72"/>
<mask id="mask1" mask-type="alpha" maskUnits="userSpaceOnUse" x="12" y="6" width="18" height="17">
<rect x="12.9297" y="6.46487" width="16.1622" height="16.1622" rx="8.08108" fill="#FD3E72"/>
</mask>
<g mask="url(#mask1)">
<g style="mix-blend-mode:multiply">
<path d="M30.102 19.4956L25.0513 9.69733L23.9738 17.2228L16.9702 17.7784L22.6606 27.6777L30.102 19.4956Z" fill="url(#paint0_linear)" fill-opacity="0.24"/>
</g>
</g>
<path d="M25.0514 9.4953C24.2622 9.4953 23.6258 10.1628 23.6258 10.9907V15.3215C23.6258 15.5026 23.616 15.6837 23.5962 15.8752C23.5765 16.0615 23.5272 16.2322 23.4482 16.3874C23.3693 16.5427 23.2509 16.672 23.0931 16.7755C22.9352 16.879 22.7083 16.9307 22.4222 16.9307C22.1361 16.9307 21.9092 16.879 21.7514 16.7755C21.5935 16.672 21.4751 16.5427 21.3962 16.3874C21.3173 16.2322 21.2679 16.0615 21.2482 15.8752C21.2285 15.6889 21.2186 15.5026 21.2186 15.3215V10.8561C20.4294 10.8561 19.793 11.5236 19.793 12.3515V15.3164C19.793 15.4975 19.7832 15.6786 19.7634 15.87C19.7437 16.0563 19.6944 16.227 19.6154 16.3823C19.5365 16.5375 19.4181 16.6669 19.2603 16.7703C19.1024 16.8738 18.8755 16.9256 18.5894 16.9256C18.3033 16.9256 18.0764 16.8738 17.9185 16.7703C17.7607 16.6669 17.6423 16.5375 17.5634 16.3823C17.4845 16.227 17.4351 16.0563 17.4154 15.87C17.3957 15.6837 17.3858 15.4975 17.3858 15.3164V12.217C16.5965 12.217 15.9602 12.8896 15.9602 13.7123V15.3164C15.9602 15.7407 15.9997 16.1132 16.0786 16.434C16.1575 16.7548 16.2562 17.0291 16.3746 17.2619C16.4979 17.4947 16.636 17.6862 16.7939 17.8414C16.9517 17.9966 17.1145 18.1208 17.2773 18.2191C17.6571 18.4468 18.0961 18.571 18.5845 18.5865C19.0827 18.571 19.5217 18.4468 19.9065 18.2191C20.0693 18.1208 20.232 17.9966 20.385 17.8414C20.4244 17.8 20.4639 17.7586 20.5033 17.7121C20.5428 17.7586 20.5823 17.8 20.6217 17.8414C20.7796 17.9966 20.9424 18.1208 21.1052 18.2191C21.485 18.4468 21.924 18.571 22.4124 18.5865C22.9106 18.571 23.3496 18.4468 23.7344 18.2191C23.8971 18.1208 24.0599 17.9966 24.2128 17.8414C24.3707 17.6862 24.5088 17.4947 24.6321 17.2619C24.7555 17.0291 24.8541 16.7548 24.9281 16.434C25.0021 16.1132 25.0366 15.7458 25.0366 15.3164L25.0514 9.4953Z" fill="white"/>
<path d="M0 29.0919H299V126.873C299 144.725 284.528 159.197 266.676 159.197H32.3243C14.4721 159.197 0 144.725 0 126.873V29.0919Z" fill="#62D5B4"/>
<path d="M279.605 56.5676C279.605 55.675 278.882 54.9514 277.989 54.9514C277.097 54.9514 276.373 55.675 276.373 56.5676C276.373 57.4602 277.097 58.1838 277.989 58.1838C278.882 58.1838 279.605 57.4602 279.605 56.5676Z" fill="white"/>
<path d="M279.605 63.8406C279.605 62.948 278.882 62.2244 277.989 62.2244C277.097 62.2244 276.373 62.948 276.373 63.8406C276.373 64.7332 277.097 65.4568 277.989 65.4568C278.882 65.4568 279.605 64.7332 279.605 63.8406Z" fill="white"/>
<path d="M279.605 49.2947C279.605 48.402 278.882 47.6784 277.989 47.6784C277.097 47.6784 276.373 48.402 276.373 49.2947C276.373 50.1873 277.097 50.9109 277.989 50.9109C278.882 50.9109 279.605 50.1873 279.605 49.2947Z" fill="white"/>
<circle cx="149.904" cy="159.601" r="63.4365" fill="#62D5B4"/>
<circle cx="149.904" cy="159.602" r="57.7797" fill="#F9F8F4"/>
<path d="M150.456 134.779C145.437 134.779 140.531 136.267 136.358 139.055C132.185 141.843 128.933 145.806 127.013 150.443C125.092 155.079 124.59 160.181 125.569 165.104C126.548 170.026 128.964 174.547 132.513 178.096C136.062 181.644 140.583 184.061 145.505 185.04C150.428 186.019 155.529 185.517 160.166 183.596C164.803 181.676 168.766 178.423 171.554 174.251C174.342 170.078 175.83 165.172 175.83 160.153C175.823 153.426 173.147 146.976 168.39 142.219C163.633 137.462 157.183 134.786 150.456 134.779ZM149.352 144.708C149.352 144.415 149.469 144.135 149.676 143.928C149.882 143.721 150.163 143.605 150.456 143.605C150.748 143.605 151.029 143.721 151.236 143.928C151.443 144.135 151.559 144.415 151.559 144.708V157.947C151.559 158.239 151.443 158.52 151.236 158.727C151.029 158.934 150.748 159.05 150.456 159.05C150.163 159.05 149.882 158.934 149.676 158.727C149.469 158.52 149.352 158.239 149.352 157.947V144.708ZM150.456 174.495C147.551 174.495 144.715 173.613 142.323 171.966C139.93 170.319 138.095 167.984 137.058 165.271C136.022 162.558 135.833 159.594 136.518 156.771C137.203 153.949 138.729 151.4 140.894 149.464C141.002 149.366 141.128 149.29 141.265 149.241C141.402 149.191 141.548 149.17 141.693 149.177C141.839 149.185 141.981 149.221 142.113 149.283C142.244 149.346 142.362 149.435 142.459 149.543C142.557 149.652 142.631 149.778 142.679 149.916C142.727 150.054 142.747 150.199 142.739 150.345C142.73 150.49 142.692 150.633 142.628 150.764C142.564 150.895 142.475 151.012 142.366 151.108C140.531 152.749 139.239 154.909 138.66 157.302C138.082 159.694 138.245 162.206 139.127 164.504C140.01 166.802 141.571 168.777 143.602 170.168C145.633 171.558 148.039 172.298 150.501 172.289C152.963 172.28 155.363 171.522 157.384 170.117C159.405 168.712 160.951 166.725 161.817 164.42C162.682 162.116 162.827 159.603 162.231 157.215C161.635 154.826 160.326 152.676 158.48 151.048C158.367 150.954 158.274 150.837 158.207 150.706C158.14 150.576 158.1 150.433 158.089 150.286C158.078 150.139 158.096 149.992 158.143 149.852C158.19 149.713 158.264 149.584 158.361 149.474C158.458 149.363 158.577 149.274 158.709 149.21C158.842 149.146 158.986 149.109 159.133 149.101C159.28 149.094 159.427 149.116 159.565 149.166C159.703 149.216 159.83 149.293 159.938 149.393C162.124 151.32 163.671 153.866 164.374 156.694C165.077 159.521 164.902 162.496 163.872 165.221C162.843 167.947 161.007 170.294 158.61 171.951C156.214 173.608 153.369 174.495 150.456 174.495Z" fill="#62D5B4"/>
<path d="M117.712 69.997C117.03 70.3505 116.182 70.5273 115.168 70.5273C113.855 70.5273 112.803 70.1127 112.011 69.2836C111.22 68.4544 110.824 67.3664 110.824 66.0196C110.824 64.5717 111.268 63.4016 112.156 62.5093C113.049 61.617 114.175 61.1709 115.534 61.1709C116.41 61.1709 117.136 61.2951 117.712 61.5434V63.0333C117.102 62.6714 116.428 62.4904 115.692 62.4904C114.711 62.4904 113.916 62.804 113.305 63.4311C112.699 64.0582 112.396 64.8958 112.396 65.9438C112.396 66.9413 112.68 67.7368 113.249 68.3302C113.817 68.9195 114.564 69.2141 115.49 69.2141C116.344 69.2141 117.085 69.0121 117.712 68.608V69.997ZM122.996 70.5273C121.692 70.5273 120.646 70.1043 119.859 69.2583C119.076 68.4123 118.684 67.3117 118.684 65.9564C118.684 64.5001 119.084 63.3385 119.884 62.4715C120.684 61.6044 121.77 61.1709 123.142 61.1709C124.413 61.1709 125.436 61.5918 126.21 62.4336C126.989 63.2754 127.378 64.376 127.378 65.7355C127.378 67.2128 126.98 68.3807 126.185 69.2394C125.389 70.098 124.326 70.5273 122.996 70.5273ZM123.066 62.4904C122.237 62.4904 121.561 62.7997 121.039 63.4185C120.522 64.0372 120.263 64.8516 120.263 65.8617C120.263 66.8676 120.515 67.6779 121.02 68.2924C121.525 68.9069 122.186 69.2141 123.003 69.2141C123.87 69.2141 124.554 68.9216 125.055 68.3366C125.555 67.7515 125.806 66.9329 125.806 65.8807C125.806 64.799 125.562 63.9635 125.074 63.3743C124.59 62.785 123.92 62.4904 123.066 62.4904ZM136.715 70.3758H135.074L130.749 63.7215C130.64 63.5531 130.549 63.3785 130.478 63.1975H130.44C130.474 63.3911 130.49 63.8057 130.49 64.4412V70.3758H129.038V61.3224H130.787L134.967 67.8189C135.143 68.0882 135.257 68.2734 135.307 68.3744H135.333C135.291 68.1345 135.27 67.7284 135.27 67.156V61.3224H136.715V70.3758ZM146.64 70.3758H144.998L140.674 63.7215C140.564 63.5531 140.474 63.3785 140.402 63.1975H140.364C140.398 63.3911 140.415 63.8057 140.415 64.4412V70.3758H138.963V61.3224H140.712L144.891 67.8189C145.068 68.0882 145.182 68.2734 145.232 68.3744H145.257C145.215 68.1345 145.194 67.7284 145.194 67.156V61.3224H146.64V70.3758ZM153.97 70.3758H148.887V61.3224H153.768V62.5977H150.39V65.1609H153.503V66.4299H150.39V69.1068H153.97V70.3758ZM161.893 69.997C161.211 70.3505 160.363 70.5273 159.349 70.5273C158.036 70.5273 156.983 70.1127 156.192 69.2836C155.401 68.4544 155.005 67.3664 155.005 66.0196C155.005 64.5717 155.449 63.4016 156.337 62.5093C157.23 61.617 158.355 61.1709 159.715 61.1709C160.59 61.1709 161.316 61.2951 161.893 61.5434V63.0333C161.283 62.6714 160.609 62.4904 159.873 62.4904C158.892 62.4904 158.097 62.804 157.486 63.4311C156.88 64.0582 156.577 64.8958 156.577 65.9438C156.577 66.9413 156.861 67.7368 157.429 68.3302C157.998 68.9195 158.745 69.2141 159.671 69.2141C160.525 69.2141 161.266 69.0121 161.893 68.608V69.997ZM169.418 62.5977H166.817V70.3758H165.315V62.5977H162.72V61.3224H169.418V62.5977ZM175.827 70.3758H170.744V61.3224H175.625V62.5977H172.247V65.1609H175.359V66.4299H172.247V69.1068H175.827V70.3758ZM177.436 70.3758V61.3224H180.05C183.388 61.3224 185.057 62.7934 185.057 65.7355C185.057 67.1328 184.594 68.2566 183.668 69.1068C182.742 69.9528 181.5 70.3758 179.943 70.3758H177.436ZM178.933 62.5977V69.1068H180.132C181.189 69.1068 182.009 68.8164 182.594 68.2355C183.184 67.6547 183.478 66.834 183.478 65.7733C183.478 63.6563 182.382 62.5977 180.189 62.5977H178.933ZM188.264 61.3224L188.144 67.7115H186.944L186.78 61.3224H188.264ZM187.563 70.502C187.311 70.502 187.096 70.4221 186.919 70.2621C186.742 70.098 186.654 69.9002 186.654 69.6687C186.654 69.4288 186.742 69.2246 186.919 69.0563C187.096 68.8879 187.311 68.8037 187.563 68.8037C187.807 68.8037 188.018 68.8879 188.194 69.0563C188.375 69.2246 188.466 69.4288 188.466 69.6687C188.466 69.9002 188.375 70.098 188.194 70.2621C188.018 70.4221 187.807 70.502 187.563 70.502Z" fill="white"/>
</g>
<defs>
<linearGradient id="paint0_linear" x1="21.3475" y1="14.0409" x2="25.0655" y2="21.2016" gradientUnits="userSpaceOnUse">
<stop stop-color="#666666"/>
<stop offset="1" stop-color="#666666" stop-opacity="0"/>
</linearGradient>
</defs>
</svg>
