<svg width="300" height="485" viewBox="0 0 300 485" fill="none" xmlns="http://www.w3.org/2000/svg">
<mask id="mask0" mask-type="alpha" maskUnits="userSpaceOnUse" x="0" y="0" width="300" height="485">
<rect width="299.083" height="485" rx="8.08333" fill="#F9F8F4"/>
</mask>
<g mask="url(#mask0)">
<rect y="29.1" width="299.083" height="455.9" fill="#F9F8F4"/>
<rect y="381.533" width="299.083" height="103.467" fill="#F9F8F4"/>
<path d="M182.338 381.184L179.404 389.108H178.381L175.508 381.184H176.541L178.735 387.467C178.805 387.67 178.858 387.904 178.895 388.169H178.917C178.947 387.948 179.008 387.71 179.1 387.456L181.338 381.184H182.338ZM184.404 386.113V389.108H183.476V381.184H185.653C186.5 381.184 187.156 381.391 187.62 381.803C188.088 382.216 188.322 382.798 188.322 383.549C188.322 384.301 188.062 384.916 187.543 385.395C187.027 385.874 186.329 386.113 185.449 386.113H184.404ZM184.404 382.024V385.273H185.377C186.018 385.273 186.506 385.128 186.841 384.837C187.18 384.542 187.35 384.128 187.35 383.594C187.35 382.547 186.731 382.024 185.493 382.024H184.404ZM196.207 389.108H195.069L190.991 382.792C190.888 382.634 190.803 382.468 190.737 382.295H190.704C190.733 382.465 190.748 382.827 190.748 383.384V389.108H189.82V381.184H191.024L194.992 387.401C195.157 387.659 195.264 387.836 195.312 387.931H195.334C195.297 387.703 195.279 387.314 195.279 386.765V381.184H196.207V389.108ZM202.319 389.108H201.39V381.184H202.319V389.108ZM205.336 386.113V389.108H204.407V381.184H206.585C207.432 381.184 208.088 381.391 208.552 381.803C209.02 382.216 209.253 382.798 209.253 383.549C209.253 384.301 208.994 384.916 208.474 385.395C207.959 385.874 207.261 386.113 206.38 386.113H205.336ZM205.336 382.024V385.273H206.308C206.949 385.273 207.437 385.128 207.773 384.837C208.111 384.542 208.281 384.128 208.281 383.594C208.281 382.547 207.662 382.024 206.424 382.024H205.336ZM210.944 384.555C210.775 384.555 210.629 384.494 210.508 384.373C210.39 384.251 210.331 384.106 210.331 383.936C210.331 383.767 210.39 383.623 210.508 383.505C210.629 383.387 210.775 383.328 210.944 383.328C211.117 383.328 211.265 383.387 211.386 383.505C211.508 383.623 211.569 383.767 211.569 383.936C211.569 384.106 211.508 384.251 211.386 384.373C211.265 384.494 211.117 384.555 210.944 384.555ZM210.944 389.23C210.775 389.23 210.629 389.169 210.508 389.047C210.39 388.926 210.331 388.78 210.331 388.611C210.331 388.441 210.39 388.296 210.508 388.174C210.629 388.049 210.775 387.987 210.944 387.987C211.117 387.987 211.265 388.049 211.386 388.174C211.508 388.296 211.569 388.441 211.569 388.611C211.569 388.78 211.508 388.926 211.386 389.047C211.265 389.169 211.117 389.23 210.944 389.23Z" fill="#AFADB2"/>
<path d="M179.221 403.464H176.204V402.519H179.221V403.464ZM183.774 403.464H180.757V402.519H183.774V403.464Z" fill="#5B5863"/>
<path d="M34.3004 389.108H33.3721V381.184H34.3004V389.108ZM37.3174 386.113V389.108H36.3891V381.184H38.5663C39.4135 381.184 40.0693 381.391 40.5334 381.803C41.0013 382.216 41.2352 382.798 41.2352 383.549C41.2352 384.301 40.9755 384.916 40.4561 385.395C39.9403 385.874 39.2422 386.113 38.3618 386.113H37.3174ZM37.3174 382.024V385.273H38.29C38.931 385.273 39.4191 385.128 39.7543 384.837C40.0932 384.542 40.2627 384.128 40.2627 383.594C40.2627 382.547 39.6438 382.024 38.406 382.024H37.3174ZM42.926 384.555C42.7566 384.555 42.6111 384.494 42.4895 384.373C42.3716 384.251 42.3127 384.106 42.3127 383.936C42.3127 383.767 42.3716 383.623 42.4895 383.505C42.6111 383.387 42.7566 383.328 42.926 383.328C43.0992 383.328 43.2465 383.387 43.3681 383.505C43.4897 383.623 43.5505 383.767 43.5505 383.936C43.5505 384.106 43.4897 384.251 43.3681 384.373C43.2465 384.494 43.0992 384.555 42.926 384.555ZM42.926 389.23C42.7566 389.23 42.6111 389.169 42.4895 389.047C42.3716 388.926 42.3127 388.78 42.3127 388.611C42.3127 388.441 42.3716 388.296 42.4895 388.174C42.6111 388.049 42.7566 387.987 42.926 387.987C43.0992 387.987 43.2465 388.049 43.3681 388.174C43.4897 388.296 43.5505 388.441 43.5505 388.611C43.5505 388.78 43.4897 388.926 43.3681 389.047C43.2465 389.169 43.0992 389.23 42.926 389.23Z" fill="#AFADB2"/>
<path d="M36.146 403.464H33.129V402.519H36.146V403.464ZM40.6992 403.464H37.6821V402.519H40.6992V403.464Z" fill="#5B5863"/>
<path d="M54.5417 446.023C54.5417 446.639 54.4853 447.185 54.3724 447.66C54.263 448.136 54.1022 448.538 53.8901 448.866C53.6814 449.191 53.4232 449.439 53.1153 449.61C52.8109 449.778 52.4637 449.861 52.0737 449.861C51.7043 449.861 51.3742 449.781 51.0834 449.62C50.7961 449.456 50.5532 449.218 50.3548 448.907C50.1564 448.596 50.0059 448.214 49.9033 447.763C49.8007 447.308 49.7494 446.788 49.7494 446.203C49.7494 445.56 49.8024 444.992 49.9084 444.5C50.0179 444.007 50.177 443.595 50.3856 443.263C50.5943 442.928 50.8525 442.676 51.1604 442.509C51.4717 442.338 51.8274 442.252 52.2277 442.252C53.7704 442.252 54.5417 443.509 54.5417 446.023ZM53.6797 446.106C53.6797 444.012 53.182 442.965 52.1866 442.965C51.1365 442.965 50.6114 444.031 50.6114 446.162C50.6114 448.149 51.1262 449.143 52.1558 449.143C53.1718 449.143 53.6797 448.131 53.6797 446.106ZM63.9418 449.733H62.7411L59.8985 446.367C59.7925 446.241 59.7275 446.155 59.7036 446.111H59.683V449.733H58.821V442.375H59.683V445.834H59.7036C59.7514 445.758 59.8164 445.675 59.8985 445.582L62.6488 442.375H63.7211L60.5656 445.905L63.9418 449.733ZM64.9167 449.733V442.375H67.0101C67.6464 442.375 68.1509 442.531 68.5238 442.842C68.8966 443.154 69.0831 443.559 69.0831 444.058C69.0831 444.476 68.9702 444.838 68.7444 445.146C68.5187 445.454 68.2074 445.673 67.8106 445.803V445.823C68.3066 445.882 68.7034 446.07 69.001 446.388C69.2986 446.702 69.4474 447.113 69.4474 447.619C69.4474 448.249 69.2216 448.758 68.7701 449.148C68.3185 449.538 67.749 449.733 67.0614 449.733H64.9167ZM65.7787 443.155V445.531H66.6612C67.1333 445.531 67.5044 445.418 67.7747 445.192C68.0449 444.963 68.18 444.642 68.18 444.228C68.18 443.513 67.7097 443.155 66.769 443.155H65.7787ZM65.7787 446.306V448.953H66.9486C67.4548 448.953 67.8465 448.834 68.1236 448.594C68.4041 448.355 68.5443 448.026 68.5443 447.609C68.5443 446.74 67.9525 446.306 66.769 446.306H65.7787Z" fill="#5B5863"/>
<path d="M43.4073 447.251L42.2757 446.119L38.7998 449.595V439.733H37.1832V449.595L33.7074 446.119L32.5757 447.251L37.9915 452.667L43.4073 447.251Z" fill="#AFADB2"/>
<path d="M150.491 446.023C150.491 446.639 150.435 447.185 150.322 447.66C150.212 448.136 150.051 448.538 149.839 448.866C149.631 449.191 149.372 449.439 149.065 449.61C148.76 449.778 148.413 449.861 148.023 449.861C147.654 449.861 147.323 449.781 147.033 449.62C146.745 449.456 146.502 449.218 146.304 448.907C146.106 448.596 145.955 448.214 145.853 447.763C145.75 447.308 145.699 446.788 145.699 446.203C145.699 445.56 145.752 444.992 145.858 444.5C145.967 444.007 146.126 443.595 146.335 443.263C146.544 442.928 146.802 442.676 147.11 442.509C147.421 442.338 147.777 442.252 148.177 442.252C149.72 442.252 150.491 443.509 150.491 446.023ZM149.629 446.106C149.629 444.012 149.131 442.965 148.136 442.965C147.086 442.965 146.561 444.031 146.561 446.162C146.561 448.149 147.075 449.143 148.105 449.143C149.121 449.143 149.629 448.131 149.629 446.106ZM159.891 449.733H158.69L155.848 446.367C155.742 446.241 155.677 446.155 155.653 446.111H155.632V449.733H154.77V442.375H155.632V445.834H155.653C155.701 445.758 155.766 445.675 155.848 445.582L158.598 442.375H159.67L156.515 445.905L159.891 449.733ZM160.866 449.733V442.375H162.959C163.596 442.375 164.1 442.531 164.473 442.842C164.846 443.154 165.032 443.559 165.032 444.058C165.032 444.476 164.919 444.838 164.694 445.146C164.468 445.454 164.157 445.673 163.76 445.803V445.823C164.256 445.882 164.653 446.07 164.95 446.388C165.248 446.702 165.397 447.113 165.397 447.619C165.397 448.249 165.171 448.758 164.719 449.148C164.268 449.538 163.698 449.733 163.011 449.733H160.866ZM161.728 443.155V445.531H162.61C163.082 445.531 163.454 445.418 163.724 445.192C163.994 444.963 164.129 444.642 164.129 444.228C164.129 443.513 163.659 443.155 162.718 443.155H161.728ZM161.728 446.306V448.953H162.898C163.404 448.953 163.796 448.834 164.073 448.594C164.353 448.355 164.494 448.026 164.494 447.609C164.494 446.74 163.902 446.306 162.718 446.306H161.728Z" fill="#5B5863"/>
<path d="M139.357 445.149L138.225 446.281L134.749 442.805V452.667H133.132V442.805L129.657 446.281L128.525 445.149L133.941 439.733L139.357 445.149Z" fill="#AFADB2"/>
<path d="M246.925 446.023C246.925 446.639 246.869 447.185 246.756 447.66C246.647 448.136 246.486 448.538 246.274 448.866C246.065 449.191 245.807 449.439 245.499 449.61C245.194 449.778 244.847 449.861 244.457 449.861C244.088 449.861 243.758 449.781 243.467 449.62C243.18 449.456 242.937 449.218 242.738 448.907C242.54 448.596 242.389 448.214 242.287 447.763C242.184 447.308 242.133 446.788 242.133 446.203C242.133 445.56 242.186 444.992 242.292 444.5C242.401 444.007 242.561 443.595 242.769 443.263C242.978 442.928 243.236 442.676 243.544 442.509C243.855 442.338 244.211 442.252 244.611 442.252C246.154 442.252 246.925 443.509 246.925 446.023ZM246.063 446.106C246.063 444.012 245.566 442.965 244.57 442.965C243.52 442.965 242.995 444.031 242.995 446.162C242.995 448.149 243.51 449.143 244.539 449.143C245.555 449.143 246.063 448.131 246.063 446.106ZM252.59 446.023C252.59 446.639 252.534 447.185 252.421 447.66C252.311 448.136 252.15 448.538 251.938 448.866C251.73 449.191 251.471 449.439 251.164 449.61C250.859 449.778 250.512 449.861 250.122 449.861C249.752 449.861 249.422 449.781 249.132 449.62C248.844 449.456 248.601 449.218 248.403 448.907C248.205 448.596 248.054 448.214 247.951 447.763C247.849 447.308 247.798 446.788 247.798 446.203C247.798 445.56 247.851 444.992 247.957 444.5C248.066 444.007 248.225 443.595 248.434 443.263C248.642 442.928 248.901 442.676 249.209 442.509C249.52 442.338 249.876 442.252 250.276 442.252C251.819 442.252 252.59 443.509 252.59 446.023ZM251.728 446.106C251.728 444.012 251.23 442.965 250.235 442.965C249.185 442.965 248.66 444.031 248.66 446.162C248.66 448.149 249.174 449.143 250.204 449.143C251.22 449.143 251.728 448.131 251.728 446.106ZM254.165 445.505C254.008 445.505 253.873 445.449 253.76 445.336C253.65 445.223 253.596 445.088 253.596 444.931C253.596 444.773 253.65 444.64 253.76 444.53C253.873 444.421 254.008 444.366 254.165 444.366C254.326 444.366 254.463 444.421 254.576 444.53C254.689 444.64 254.745 444.773 254.745 444.931C254.745 445.088 254.689 445.223 254.576 445.336C254.463 445.449 254.326 445.505 254.165 445.505ZM254.165 449.846C254.008 449.846 253.873 449.79 253.76 449.677C253.65 449.564 253.596 449.429 253.596 449.271C253.596 449.114 253.65 448.979 253.76 448.866C253.873 448.75 254.008 448.692 254.165 448.692C254.326 448.692 254.463 448.75 254.576 448.866C254.689 448.979 254.745 449.114 254.745 449.271C254.745 449.429 254.689 449.564 254.576 449.677C254.463 449.79 254.326 449.846 254.165 449.846ZM260.533 446.023C260.533 446.639 260.476 447.185 260.363 447.66C260.254 448.136 260.093 448.538 259.881 448.866C259.672 449.191 259.414 449.439 259.106 449.61C258.802 449.778 258.455 449.861 258.065 449.861C257.695 449.861 257.365 449.781 257.074 449.62C256.787 449.456 256.544 449.218 256.346 448.907C256.147 448.596 255.997 448.214 255.894 447.763C255.792 447.308 255.74 446.788 255.74 446.203C255.74 445.56 255.793 444.992 255.899 444.5C256.009 444.007 256.168 443.595 256.377 443.263C256.585 442.928 256.844 442.676 257.151 442.509C257.463 442.338 257.818 442.252 258.219 442.252C259.761 442.252 260.533 443.509 260.533 446.023ZM259.671 446.106C259.671 444.012 259.173 442.965 258.178 442.965C257.127 442.965 256.602 444.031 256.602 446.162C256.602 448.149 257.117 449.143 258.147 449.143C259.163 449.143 259.671 448.131 259.671 446.106ZM266.197 446.023C266.197 446.639 266.141 447.185 266.028 447.66C265.919 448.136 265.758 448.538 265.546 448.866C265.337 449.191 265.079 449.439 264.771 449.61C264.467 449.778 264.119 449.861 263.729 449.861C263.36 449.861 263.03 449.781 262.739 449.62C262.452 449.456 262.209 449.218 262.01 448.907C261.812 448.596 261.662 448.214 261.559 447.763C261.456 447.308 261.405 446.788 261.405 446.203C261.405 445.56 261.458 444.992 261.564 444.5C261.674 444.007 261.833 443.595 262.041 443.263C262.25 442.928 262.508 442.676 262.816 442.509C263.127 442.338 263.483 442.252 263.883 442.252C265.426 442.252 266.197 443.509 266.197 446.023ZM265.335 446.106C265.335 444.012 264.838 442.965 263.842 442.965C262.792 442.965 262.267 444.031 262.267 446.162C262.267 448.149 262.782 449.143 263.811 449.143C264.827 449.143 265.335 448.131 265.335 446.106Z" fill="#5B5863"/>
<path d="M230.375 439.733C226.818 439.733 223.908 442.643 223.908 446.2C223.908 449.757 226.818 452.667 230.375 452.667C233.932 452.667 236.842 449.757 236.842 446.2C236.842 442.643 233.932 439.733 230.375 439.733ZM230.375 451.05C227.708 451.05 225.525 448.868 225.525 446.2C225.525 443.533 227.708 441.35 230.375 441.35C233.043 441.35 235.225 443.533 235.225 446.2C235.225 448.868 233.043 451.05 230.375 451.05Z" fill="#AFADB2"/>
<path d="M231.184 442.967H229.567V447.008H233.609V445.392H231.184V442.967Z" fill="#AFADB2"/>
<rect x="32.3333" y="422.758" width="234.417" height="0.808333" fill="#E8E6E0"/>
<rect x="32.3333" y="286.15" width="234.417" height="72.75" rx="4.04167" fill="white"/>
<path d="M235.644 328.847L241.02 322.574C241.28 322.272 241.28 321.825 241.02 321.523L235.644 315.25L234.416 316.303L239.342 322.049L234.417 327.795L235.644 328.847Z" fill="#AFADB2"/>
<path d="M52.4018 311.996V310.902C52.527 311.013 52.6762 311.112 52.8493 311.201C53.0262 311.289 53.2104 311.364 53.4019 311.427C53.5972 311.486 53.7924 311.532 53.9876 311.565C54.1829 311.598 54.3634 311.615 54.5292 311.615C55.1002 311.615 55.5256 311.51 55.8056 311.3C56.0893 311.086 56.2311 310.781 56.2311 310.383C56.2311 310.169 56.1832 309.983 56.0874 309.825C55.9953 309.666 55.8664 309.523 55.7006 309.394C55.5348 309.261 55.3378 309.136 55.1094 309.018C54.8847 308.896 54.6415 308.769 54.38 308.637C54.1037 308.497 53.8458 308.355 53.6064 308.211C53.3669 308.067 53.1588 307.909 52.982 307.736C52.8051 307.563 52.6652 307.368 52.562 307.15C52.4625 306.929 52.4128 306.671 52.4128 306.377C52.4128 306.016 52.492 305.702 52.6504 305.437C52.8088 305.168 53.017 304.947 53.2748 304.774C53.5327 304.601 53.8256 304.472 54.1534 304.387C54.485 304.303 54.822 304.26 55.1646 304.26C55.9456 304.26 56.5147 304.354 56.8721 304.542V305.586C56.4042 305.262 55.8038 305.1 55.0707 305.1C54.8681 305.1 54.6655 305.122 54.4629 305.166C54.2602 305.207 54.0797 305.275 53.9213 305.371C53.7629 305.467 53.634 305.59 53.5345 305.741C53.4351 305.892 53.3853 306.076 53.3853 306.294C53.3853 306.496 53.4222 306.671 53.4959 306.819C53.5732 306.966 53.6856 307.1 53.8329 307.222C53.9803 307.344 54.1589 307.461 54.3689 307.576C54.5826 307.69 54.8276 307.815 55.1038 307.951C55.3875 308.091 55.6564 308.239 55.9106 308.393C56.1648 308.548 56.3876 308.72 56.5792 308.907C56.7708 309.095 56.9218 309.303 57.0323 309.532C57.1465 309.76 57.2036 310.022 57.2036 310.316C57.2036 310.707 57.1263 311.038 56.9715 311.311C56.8205 311.58 56.6142 311.799 56.3527 311.969C56.0948 312.138 55.7964 312.26 55.4575 312.333C55.1186 312.411 54.7612 312.449 54.3855 312.449C54.2602 312.449 54.1055 312.438 53.9213 312.416C53.7371 312.398 53.5493 312.368 53.3577 312.328C53.1662 312.291 52.9838 312.245 52.8107 312.19C52.6412 312.131 52.5049 312.066 52.4018 311.996ZM63.2101 309.714H59.215C59.2297 310.344 59.3992 310.83 59.7233 311.173C60.0475 311.516 60.4933 311.687 61.0606 311.687C61.6979 311.687 62.2836 311.477 62.8177 311.057V311.908C62.3204 312.269 61.6629 312.449 60.8451 312.449C60.0457 312.449 59.4176 312.193 58.9608 311.681C58.504 311.166 58.2756 310.442 58.2756 309.51C58.2756 308.629 58.5243 307.913 59.0216 307.36C59.5226 306.804 60.1433 306.526 60.8837 306.526C61.6242 306.526 62.197 306.765 62.6022 307.244C63.0075 307.723 63.2101 308.388 63.2101 309.239V309.714ZM62.2817 308.946C62.2781 308.423 62.151 308.016 61.9005 307.725C61.6537 307.434 61.3092 307.288 60.8672 307.288C60.4398 307.288 60.077 307.441 59.7786 307.747C59.4802 308.053 59.296 308.452 59.226 308.946H62.2817ZM65.4922 312.317H64.586V303.94H65.4922V312.317ZM71.8744 309.714H67.8793C67.894 310.344 68.0635 310.83 68.3877 311.173C68.7118 311.516 69.1576 311.687 69.7249 311.687C70.3622 311.687 70.9479 311.477 71.4821 311.057V311.908C70.9847 312.269 70.3272 312.449 69.5094 312.449C68.71 312.449 68.0819 312.193 67.6251 311.681C67.1683 311.166 66.9399 310.442 66.9399 309.51C66.9399 308.629 67.1886 307.913 67.6859 307.36C68.1869 306.804 68.8076 306.526 69.5481 306.526C70.2885 306.526 70.8613 306.765 71.2666 307.244C71.6718 307.723 71.8744 308.388 71.8744 309.239V309.714ZM70.9461 308.946C70.9424 308.423 70.8153 308.016 70.5648 307.725C70.318 307.434 69.9735 307.288 69.5315 307.288C69.1042 307.288 68.7413 307.441 68.4429 307.747C68.1445 308.053 67.9603 308.452 67.8903 308.946H70.9461ZM77.1072 312.057C76.6726 312.319 76.1568 312.449 75.56 312.449C74.7533 312.449 74.1013 312.188 73.6039 311.665C73.1103 311.138 72.8635 310.456 72.8635 309.62C72.8635 308.688 73.1306 307.94 73.6647 307.377C74.1989 306.809 74.9117 306.526 75.8032 306.526C76.3005 306.526 76.7389 306.618 77.1183 306.802V307.73C76.6983 307.436 76.2489 307.288 75.77 307.288C75.1917 307.288 74.7164 307.496 74.3444 307.913C73.976 308.325 73.7918 308.869 73.7918 309.543C73.7918 310.206 73.965 310.729 74.3112 311.112C74.6612 311.495 75.129 311.687 75.7148 311.687C76.2084 311.687 76.6726 311.523 77.1072 311.195V312.057ZM81.1023 312.262C80.8887 312.379 80.6069 312.438 80.2569 312.438C79.266 312.438 78.7705 311.886 78.7705 310.781V307.432H77.798V306.658H78.7705V305.277L79.6767 304.984V306.658H81.1023V307.432H79.6767V310.62C79.6767 311 79.7412 311.271 79.8701 311.433C79.999 311.595 80.2127 311.676 80.5111 311.676C80.7395 311.676 80.9366 311.613 81.1023 311.488V312.262ZM86.8601 309.714H82.865C82.8798 310.344 83.0492 310.83 83.3734 311.173C83.6976 311.516 84.1433 311.687 84.7106 311.687C85.3479 311.687 85.9337 311.477 86.4678 311.057V311.908C85.9705 312.269 85.3129 312.449 84.4951 312.449C83.6957 312.449 83.0676 312.193 82.6109 311.681C82.1541 311.166 81.9257 310.442 81.9257 309.51C81.9257 308.629 82.1743 307.913 82.6716 307.36C83.1726 306.804 83.7934 306.526 84.5338 306.526C85.2743 306.526 85.8471 306.765 86.2523 307.244C86.6575 307.723 86.8601 308.388 86.8601 309.239V309.714ZM85.9318 308.946C85.9281 308.423 85.801 308.016 85.5505 307.725C85.3037 307.434 84.9593 307.288 84.5172 307.288C84.0899 307.288 83.7271 307.441 83.4287 307.747C83.1303 308.053 82.9461 308.452 82.8761 308.946H85.9318ZM93.0655 312.317H92.1593V311.355H92.1372C91.7172 312.085 91.0689 312.449 90.1921 312.449C89.4812 312.449 88.912 312.197 88.4847 311.692C88.0611 311.184 87.8492 310.493 87.8492 309.62C87.8492 308.685 88.085 307.935 88.5565 307.371C89.0281 306.808 89.6561 306.526 90.4408 306.526C91.2181 306.526 91.7835 306.832 92.1372 307.443H92.1593V303.94H93.0655V312.317ZM92.1593 309.758V308.924C92.1593 308.467 92.0083 308.08 91.7062 307.764C91.4041 307.447 91.021 307.288 90.5568 307.288C90.0043 307.288 89.5696 307.491 89.2528 307.896C88.936 308.301 88.7776 308.861 88.7776 309.576C88.7776 310.228 88.9286 310.744 89.2307 311.123C89.5364 311.499 89.9453 311.687 90.4574 311.687C90.9621 311.687 91.371 311.504 91.6841 311.14C92.0009 310.775 92.1593 310.315 92.1593 309.758ZM102.238 312.317H98.1271V304.393H99.0554V311.477H102.238V312.317ZM105.697 312.449C104.861 312.449 104.192 312.186 103.691 311.659C103.194 311.129 102.945 310.427 102.945 309.554C102.945 308.603 103.205 307.861 103.725 307.327C104.244 306.793 104.946 306.526 105.83 306.526C106.674 306.526 107.331 306.786 107.803 307.305C108.278 307.824 108.515 308.545 108.515 309.465C108.515 310.368 108.259 311.092 107.747 311.637C107.239 312.179 106.556 312.449 105.697 312.449ZM105.764 307.288C105.182 307.288 104.721 307.487 104.382 307.885C104.043 308.279 103.874 308.825 103.874 309.521C103.874 310.191 104.045 310.72 104.388 311.107C104.73 311.493 105.189 311.687 105.764 311.687C106.349 311.687 106.799 311.497 107.112 311.118C107.429 310.738 107.587 310.199 107.587 309.499C107.587 308.791 107.429 308.246 107.112 307.863C106.799 307.48 106.349 307.288 105.764 307.288ZM113.82 312.057C113.385 312.319 112.87 312.449 112.273 312.449C111.466 312.449 110.814 312.188 110.317 311.665C109.823 311.138 109.576 310.456 109.576 309.62C109.576 308.688 109.843 307.94 110.378 307.377C110.912 306.809 111.625 306.526 112.516 306.526C113.013 306.526 113.452 306.618 113.831 306.802V307.73C113.411 307.436 112.962 307.288 112.483 307.288C111.905 307.288 111.429 307.496 111.057 307.913C110.689 308.325 110.505 308.869 110.505 309.543C110.505 310.206 110.678 310.729 111.024 311.112C111.374 311.495 111.842 311.687 112.428 311.687C112.921 311.687 113.385 311.523 113.82 311.195V312.057ZM119.241 312.317H118.335V311.433H118.313C117.918 312.11 117.338 312.449 116.572 312.449C116.008 312.449 115.566 312.3 115.246 312.002C114.929 311.703 114.771 311.307 114.771 310.814C114.771 309.757 115.393 309.141 116.638 308.968L118.335 308.731C118.335 307.769 117.946 307.288 117.169 307.288C116.487 307.288 115.872 307.52 115.323 307.985V307.056C115.879 306.703 116.52 306.526 117.246 306.526C118.576 306.526 119.241 307.229 119.241 308.637V312.317ZM118.335 309.454L116.97 309.642C116.55 309.701 116.233 309.806 116.019 309.957C115.806 310.105 115.699 310.368 115.699 310.747C115.699 311.024 115.796 311.25 115.992 311.427C116.191 311.6 116.454 311.687 116.782 311.687C117.231 311.687 117.602 311.53 117.893 311.217C118.187 310.9 118.335 310.501 118.335 310.018V309.454ZM123.573 312.262C123.359 312.379 123.078 312.438 122.728 312.438C121.737 312.438 121.241 311.886 121.241 310.781V307.432H120.269V306.658H121.241V305.277L122.147 304.984V306.658H123.573V307.432H122.147V310.62C122.147 311 122.212 311.271 122.341 311.433C122.47 311.595 122.683 311.676 122.982 311.676C123.21 311.676 123.407 311.613 123.573 311.488V312.262ZM125.247 305.222C125.085 305.222 124.947 305.166 124.833 305.056C124.719 304.945 124.662 304.805 124.662 304.636C124.662 304.467 124.719 304.327 124.833 304.216C124.947 304.102 125.085 304.045 125.247 304.045C125.413 304.045 125.553 304.102 125.667 304.216C125.785 304.327 125.844 304.467 125.844 304.636C125.844 304.798 125.785 304.936 125.667 305.05C125.553 305.165 125.413 305.222 125.247 305.222ZM125.689 312.317H124.783V306.658H125.689V312.317ZM129.889 312.449C129.053 312.449 128.384 312.186 127.883 311.659C127.386 311.129 127.137 310.427 127.137 309.554C127.137 308.603 127.397 307.861 127.916 307.327C128.436 306.793 129.137 306.526 130.021 306.526C130.865 306.526 131.523 306.786 131.994 307.305C132.469 307.824 132.707 308.545 132.707 309.465C132.707 310.368 132.451 311.092 131.939 311.637C131.431 312.179 130.747 312.449 129.889 312.449ZM129.955 307.288C129.373 307.288 128.913 307.487 128.574 307.885C128.235 308.279 128.065 308.825 128.065 309.521C128.065 310.191 128.237 310.72 128.579 311.107C128.922 311.493 129.381 311.687 129.955 311.687C130.541 311.687 130.99 311.497 131.303 311.118C131.62 310.738 131.779 310.199 131.779 309.499C131.779 308.791 131.62 308.246 131.303 307.863C130.99 307.48 130.541 307.288 129.955 307.288ZM138.852 312.317H137.945V309.09C137.945 307.889 137.507 307.288 136.63 307.288C136.177 307.288 135.801 307.46 135.503 307.802C135.208 308.141 135.061 308.57 135.061 309.09V312.317H134.155V306.658H135.061V307.598H135.083C135.51 306.883 136.129 306.526 136.94 306.526C137.559 306.526 138.032 306.727 138.36 307.128C138.688 307.526 138.852 308.102 138.852 308.858V312.317ZM140.88 307.764C140.71 307.764 140.565 307.703 140.443 307.581C140.325 307.46 140.266 307.314 140.266 307.145C140.266 306.975 140.325 306.832 140.443 306.714C140.565 306.596 140.71 306.537 140.88 306.537C141.053 306.537 141.2 306.596 141.322 306.714C141.443 306.832 141.504 306.975 141.504 307.145C141.504 307.314 141.443 307.46 141.322 307.581C141.2 307.703 141.053 307.764 140.88 307.764ZM140.88 312.438C140.71 312.438 140.565 312.378 140.443 312.256C140.325 312.134 140.266 311.989 140.266 311.819C140.266 311.65 140.325 311.504 140.443 311.383C140.565 311.258 140.71 311.195 140.88 311.195C141.053 311.195 141.2 311.258 141.322 311.383C141.443 311.504 141.504 311.65 141.504 311.819C141.504 311.989 141.443 312.134 141.322 312.256C141.2 312.378 141.053 312.438 140.88 312.438Z" fill="#AFADB2"/>
<path d="M91.5435 332.021C91.5435 334.882 90.1889 336.312 87.4797 336.312C84.8842 336.312 83.5864 334.936 83.5864 332.185V325.954H85.2773V331.836C85.2773 333.835 86.0541 334.835 87.6076 334.835C89.1042 334.835 89.8526 333.871 89.8526 331.943V325.954H91.5435V332.021ZM93.4688 335.737V333.996C93.6251 334.138 93.8098 334.266 94.0229 334.38C94.2408 334.494 94.4705 334.591 94.7121 334.671C94.9536 334.747 95.1952 334.806 95.4367 334.849C95.6783 334.891 95.9009 334.913 96.1045 334.913C96.815 334.913 97.3431 334.794 97.6888 334.557C98.0393 334.321 98.2146 333.977 98.2146 333.527C98.2146 333.286 98.1554 333.077 98.037 332.902C97.9233 332.722 97.7623 332.559 97.5539 332.412C97.3455 332.265 97.0992 332.125 96.815 331.993C96.5355 331.855 96.2348 331.713 95.9127 331.566C95.567 331.382 95.2449 331.195 94.9465 331.005C94.6481 330.816 94.3876 330.607 94.165 330.38C93.9471 330.148 93.7743 329.887 93.6464 329.599C93.5232 329.31 93.4617 328.971 93.4617 328.583C93.4617 328.104 93.5682 327.69 93.7814 327.339C93.9992 326.984 94.2834 326.693 94.6339 326.465C94.9891 326.233 95.3917 326.063 95.8417 325.954C96.2916 325.84 96.751 325.783 97.2199 325.783C98.2856 325.783 99.0624 325.904 99.5502 326.146V327.815C98.9724 327.399 98.2288 327.19 97.3194 327.19C97.0684 327.19 96.8174 327.214 96.5663 327.261C96.32 327.309 96.0974 327.387 95.8985 327.496C95.7043 327.605 95.5457 327.744 95.4225 327.915C95.2994 328.085 95.2378 328.291 95.2378 328.533C95.2378 328.76 95.2852 328.957 95.3799 329.123C95.4746 329.288 95.612 329.44 95.7919 329.577C95.9767 329.715 96.1993 329.85 96.4598 329.982C96.725 330.11 97.0305 330.25 97.3762 330.401C97.7315 330.586 98.0654 330.78 98.378 330.984C98.6953 331.188 98.9724 331.413 99.2092 331.659C99.4508 331.905 99.6402 332.18 99.7776 332.483C99.9197 332.781 99.9907 333.122 99.9907 333.506C99.9907 334.022 99.8865 334.458 99.6781 334.813C99.4697 335.168 99.1879 335.457 98.8327 335.68C98.4822 335.903 98.0772 336.064 97.6178 336.163C97.1584 336.263 96.6729 336.312 96.1614 336.312C95.9909 336.312 95.7801 336.298 95.5291 336.27C95.2828 336.246 95.0294 336.208 94.7689 336.156C94.5084 336.109 94.2621 336.049 94.03 335.978C93.7979 335.907 93.6109 335.827 93.4688 335.737ZM110.235 336.142H108.381L107.465 333.549H103.458L102.577 336.142H100.73L104.545 325.954H106.449L110.235 336.142ZM107.017 332.17L105.603 328.107C105.561 327.974 105.516 327.761 105.468 327.467H105.44C105.397 327.737 105.35 327.95 105.298 328.107L103.898 332.17H107.017ZM119.294 332.774H115.415V331.559H119.294V332.774ZM134.149 336.142H132.302L127.435 328.654C127.312 328.464 127.21 328.268 127.13 328.064H127.087C127.125 328.282 127.144 328.748 127.144 329.464V336.142H125.51V325.954H127.478L132.181 333.264C132.38 333.568 132.508 333.776 132.565 333.89H132.593C132.546 333.62 132.522 333.163 132.522 332.518V325.954H134.149V336.142ZM142.653 332.952H137.694C137.713 333.624 137.919 334.143 138.312 334.508C138.71 334.872 139.255 335.055 139.946 335.055C140.723 335.055 141.436 334.823 142.085 334.359V335.687C141.422 336.104 140.546 336.312 139.456 336.312C138.386 336.312 137.545 335.983 136.934 335.325C136.328 334.662 136.025 333.731 136.025 332.533C136.025 331.401 136.359 330.479 137.026 329.769C137.699 329.054 138.533 328.696 139.527 328.696C140.522 328.696 141.291 329.016 141.836 329.655C142.381 330.295 142.653 331.183 142.653 332.32V332.952ZM141.062 331.787C141.057 331.195 140.917 330.735 140.643 330.408C140.368 330.077 139.989 329.911 139.506 329.911C139.032 329.911 138.63 330.084 138.298 330.43C137.971 330.776 137.77 331.228 137.694 331.787H141.062ZM154.006 328.867L151.861 336.142H150.134L148.813 331.211C148.761 331.022 148.728 330.809 148.713 330.572H148.685C148.675 330.733 148.633 330.941 148.557 331.197L147.122 336.142H145.431L143.293 328.867H144.998L146.319 334.11C146.362 334.266 146.39 334.475 146.404 334.735H146.454C146.468 334.536 146.506 334.323 146.568 334.096L148.038 328.867H149.587L150.894 334.131C150.937 334.297 150.968 334.505 150.987 334.756H151.036C151.046 334.581 151.081 334.373 151.143 334.131L152.436 328.867H154.006ZM166.524 325.954L163.185 332.44V336.142H161.494V332.476L158.24 325.954H160.166L162.169 330.323C162.193 330.375 162.264 330.572 162.382 330.913H162.404C162.446 330.761 162.524 330.565 162.638 330.323L164.734 325.954H166.524ZM169.572 336.312C168.45 336.312 167.552 335.974 166.879 335.296C166.212 334.614 165.878 333.712 165.878 332.59C165.878 331.368 166.226 330.413 166.922 329.726C167.623 329.04 168.566 328.696 169.75 328.696C170.886 328.696 171.772 329.03 172.407 329.698C173.041 330.366 173.359 331.292 173.359 332.476C173.359 333.636 173.015 334.567 172.329 335.268C171.647 335.964 170.728 336.312 169.572 336.312ZM169.65 330.011C169.006 330.011 168.497 330.236 168.123 330.686C167.749 331.135 167.562 331.756 167.562 332.547C167.562 333.309 167.751 333.911 168.13 334.351C168.509 334.787 169.016 335.005 169.65 335.005C170.299 335.005 170.796 334.79 171.142 334.359C171.493 333.928 171.668 333.314 171.668 332.518C171.668 331.718 171.493 331.1 171.142 330.664C170.796 330.228 170.299 330.011 169.65 330.011ZM179.263 330.437C179.064 330.281 178.777 330.202 178.403 330.202C177.915 330.202 177.508 330.423 177.181 330.863C176.854 331.304 176.691 331.903 176.691 332.661V336.142H175.043V328.867H176.691V330.366H176.719C176.88 329.854 177.127 329.456 177.458 329.172C177.794 328.883 178.169 328.739 178.581 328.739C178.879 328.739 179.106 328.784 179.263 328.874V330.437ZM187.028 336.142H184.939L182.112 332.646H182.083V336.142H180.428V325.371H182.083V332.199H182.112L184.783 328.867H186.765L183.76 332.376L187.028 336.142Z" fill="#5B5863"/>
<path fill-rule="evenodd" clip-rule="evenodd" d="M51.7332 322.525H72.7498V323.769H51.7332V322.525ZM51.7332 325.013H72.7498V326.257H51.7332V325.013ZM51.7332 327.498H72.7498V328.746H51.7332V327.498ZM51.7332 329.986H72.7498V331.231H51.7332V329.986ZM51.7332 332.475H72.7498V333.719H51.7332V332.475ZM51.7332 334.96H72.7498V336.204H51.7332V334.96ZM51.7332 337.448H72.7498V338.692H51.7332V337.448Z" fill="#BD3D44"/>
<path fill-rule="evenodd" clip-rule="evenodd" d="M51.7332 324.142H72.7498V325.318H51.7332V324.142ZM51.7332 326.494H72.7498V327.668H51.7332V326.494ZM51.7332 328.844H72.7498V330.02H51.7332V328.844ZM51.7332 331.197H72.7498V332.373H51.7332V331.197ZM51.7332 333.549H72.7498V334.726H51.7332V333.549ZM51.7332 335.899H72.7498V337.075H51.7332V335.899Z" fill="white"/>
<path fill-rule="evenodd" clip-rule="evenodd" d="M51.7332 322.525H63.3726V331.03H51.7332V322.525Z" fill="#192F5D"/>
<path fill-rule="evenodd" clip-rule="evenodd" d="M52.7024 322.889L52.8101 323.226H53.1511L52.8759 323.432L52.9806 323.772L52.7024 323.562L52.4272 323.769L52.5319 323.432L52.2537 323.226H52.6007L52.7024 322.889ZM54.6438 322.889L54.7485 323.226H55.0925L54.8143 323.432L54.919 323.772L54.6438 323.562L54.3656 323.769L54.4703 323.432L54.1951 323.226H54.5361L54.6438 322.889ZM56.5822 322.889L56.6899 323.226H57.0279L56.7527 323.432L56.8574 323.772L56.5792 323.562L56.304 323.769L56.4087 323.432L56.1305 323.226H56.4745L56.5822 322.889ZM58.5236 322.889L58.6283 323.226H58.9723L58.6941 323.432L58.8018 323.772L58.5236 323.562L58.2454 323.769L58.3531 323.432L58.0749 323.226H58.4159L58.5236 322.889ZM60.462 322.889L60.5697 323.226H60.9107L60.6355 323.432L60.7402 323.772L60.462 323.562L60.1868 323.769L60.2915 323.432L60.0163 323.226H60.3573L60.462 322.889ZM62.4034 322.889L62.5081 323.226H62.8521L62.5739 323.432L62.6816 323.772L62.4034 323.562L62.1252 323.769L62.2329 323.432L61.9547 323.226H62.2987L62.4034 322.889ZM53.6746 323.741L53.7793 324.077H54.1233L53.8451 324.284L53.9468 324.62L53.6776 324.413L53.3994 324.62L53.4981 324.284L53.2288 324.077H53.5699L53.6746 323.741ZM55.613 323.741L55.7207 324.077H56.0617L55.7835 324.284L55.8912 324.62L55.613 324.413L55.3348 324.62L55.4425 324.284L55.1643 324.077H55.5083L55.613 323.741ZM57.5544 323.741L57.6591 324.077H58.0031L57.7249 324.284L57.8296 324.62L57.5544 324.413L57.2762 324.62L57.3809 324.284L57.1057 324.077H57.4467L57.5544 323.741ZM59.4928 323.741L59.6005 324.077H59.9415L59.6633 324.284L59.771 324.62L59.4928 324.413L59.2176 324.62L59.3223 324.284L59.0441 324.077H59.3911L59.4928 323.741ZM61.4342 323.741L61.5389 324.077H61.8829L61.6047 324.284L61.7094 324.62L61.4342 324.413L61.156 324.62L61.2607 324.284L60.9855 324.077H61.3265L61.4342 323.741ZM52.7024 324.589L52.8101 324.932H53.1511L52.8759 325.138L52.9806 325.475L52.7024 325.265L52.4272 325.475L52.5319 325.135L52.2537 324.928H52.6007L52.7024 324.589ZM54.6438 324.589L54.7485 324.928H55.0925L54.8143 325.135L54.919 325.471L54.6438 325.262L54.3656 325.471L54.4703 325.132L54.1951 324.925H54.5361L54.6438 324.589ZM56.5822 324.589L56.6899 324.928H57.0279L56.7527 325.135L56.8574 325.471L56.5792 325.262L56.304 325.471L56.4087 325.132L56.1305 324.925H56.4745L56.5822 324.589ZM58.5236 324.589L58.6283 324.928H58.9723L58.6941 325.135L58.8018 325.471L58.5236 325.262L58.2454 325.471L58.3531 325.132L58.0749 324.925H58.4159L58.5236 324.589ZM60.462 324.589L60.5697 324.928H60.9107L60.6355 325.135L60.7402 325.471L60.462 325.262L60.1868 325.471L60.2915 325.132L60.0163 324.925H60.3573L60.462 324.589ZM62.4034 324.589L62.5081 324.928H62.8521L62.5739 325.135L62.6816 325.471L62.4034 325.262L62.1252 325.471L62.2329 325.132L61.9547 324.925H62.2987L62.4034 324.589ZM53.6746 325.441L53.7793 325.777H54.1233L53.8451 325.984L53.9498 326.323L53.6746 326.113L53.3964 326.32L53.5011 325.984L53.2259 325.777H53.5669L53.6746 325.441ZM55.613 325.441L55.7207 325.777H56.0617L55.7835 325.984L55.8912 326.323L55.613 326.113L55.3348 326.32L55.4425 325.984L55.1643 325.777H55.5083L55.613 325.441ZM57.5544 325.441L57.6591 325.777H58.0031L57.7249 325.984L57.8296 326.323L57.5544 326.113L57.2762 326.32L57.3809 325.984L57.1057 325.777H57.4467L57.5544 325.441ZM59.4928 325.441L59.6005 325.777H59.9415L59.6663 325.984L59.771 326.323L59.4928 326.113L59.2176 326.32L59.3223 325.984L59.0441 325.777H59.3911L59.4928 325.441ZM61.4342 325.441L61.5389 325.777H61.8829L61.6047 325.984L61.7094 326.323L61.4342 326.113L61.156 326.32L61.2607 325.984L60.9855 325.777H61.3265L61.4342 325.441ZM52.7024 326.292L52.8101 326.628H53.1511L52.8759 326.835L52.9806 327.174L52.7024 326.964L52.4272 327.171L52.5319 326.835L52.2537 326.628H52.6007L52.7024 326.292ZM54.6438 326.292L54.7485 326.628H55.0925L54.8143 326.835L54.919 327.171L54.6438 326.964L54.3656 327.171L54.4703 326.835L54.1951 326.628H54.5361L54.6438 326.292ZM56.5822 326.292L56.6899 326.628H57.0279L56.7527 326.835L56.8574 327.174L56.5792 326.964L56.304 327.171L56.4087 326.835L56.1305 326.628H56.4745L56.5822 326.292ZM58.5236 326.292L58.6283 326.628H58.9723L58.6941 326.835L58.8018 327.174L58.5236 326.964L58.2454 327.171L58.3531 326.835L58.0749 326.628H58.4159L58.5236 326.292ZM60.462 326.292L60.5697 326.628H60.9107L60.6355 326.835L60.7402 327.174L60.462 326.964L60.1868 327.171L60.2915 326.835L60.0163 326.628H60.3573L60.462 326.292ZM62.4034 326.292L62.5081 326.628H62.8521L62.5739 326.835L62.6816 327.174L62.4034 326.964L62.1252 327.171L62.2329 326.835L61.9547 326.628H62.2987L62.4034 326.292ZM53.6746 327.143L53.7793 327.48H54.1233L53.8451 327.686L53.9498 328.023L53.6746 327.813L53.3964 328.023L53.5011 327.683L53.2259 327.477H53.5669L53.6746 327.143ZM55.613 327.143L55.7207 327.48H56.0617L55.7835 327.686L55.8912 328.023L55.613 327.813L55.3348 328.023L55.4425 327.683L55.1643 327.477H55.5083L55.613 327.143ZM57.5544 327.143L57.6591 327.48H58.0031L57.7249 327.686L57.8296 328.023L57.5544 327.813L57.2762 328.023L57.3809 327.683L57.1057 327.477H57.4467L57.5544 327.143ZM59.4928 327.143L59.6005 327.48H59.9415L59.6663 327.686L59.771 328.023L59.4928 327.813L59.2176 328.023L59.3223 327.683L59.0441 327.477H59.3911L59.4928 327.143ZM61.4342 327.143L61.5389 327.48H61.8829L61.6047 327.686L61.7094 328.023L61.4342 327.813L61.156 328.023L61.2607 327.683L60.9855 327.477H61.3265L61.4342 327.143ZM52.7024 327.992L52.8101 328.331H53.1511L52.8759 328.538L52.9806 328.871L52.7024 328.664L52.4272 328.871L52.5319 328.535L52.2537 328.328H52.6007L52.7024 327.992ZM54.6438 327.992L54.7485 328.331H55.0925L54.8143 328.538L54.922 328.871L54.6438 328.664L54.3656 328.871L54.4733 328.535L54.1951 328.328H54.5361L54.6438 327.992ZM56.5822 327.992L56.6899 328.331H57.0279L56.7527 328.538L56.8574 328.871L56.5792 328.664L56.304 328.871L56.4087 328.535L56.1305 328.328H56.4745L56.5822 327.992ZM58.5236 327.992L58.6283 328.331H58.9723L58.6941 328.538L58.8018 328.871L58.5236 328.664L58.2454 328.871L58.3531 328.535L58.0749 328.328H58.4159L58.5236 327.992ZM60.462 327.992L60.5697 328.331H60.9107L60.6355 328.538L60.7402 328.871L60.462 328.664L60.1868 328.871L60.2915 328.535L60.0163 328.328H60.3573L60.462 327.992ZM62.4034 327.992L62.5081 328.331H62.8521L62.5739 328.538L62.6816 328.871L62.4034 328.664L62.1252 328.871L62.2329 328.535L61.9547 328.328H62.2987L62.4034 327.992ZM53.6746 328.843L53.7793 329.179H54.1233L53.8451 329.386L53.9498 329.725L53.6746 329.516L53.3964 329.722L53.5011 329.386L53.2259 329.179H53.5669L53.6746 328.843ZM55.613 328.843L55.7207 329.179H56.0617L55.7835 329.386L55.8912 329.725L55.613 329.516L55.3348 329.722L55.4425 329.386L55.1643 329.179H55.5083L55.613 328.843ZM57.5544 328.843L57.6591 329.179H58.0031L57.7249 329.386L57.8296 329.725L57.5544 329.516L57.2762 329.722L57.3809 329.386L57.1057 329.179H57.4467L57.5544 328.843ZM59.4928 328.843L59.6005 329.179H59.9415L59.6663 329.386L59.771 329.725L59.4928 329.516L59.2176 329.722L59.3223 329.386L59.0441 329.179H59.3911L59.4928 328.843ZM61.4342 328.843L61.5389 329.179H61.8829L61.6047 329.386L61.7094 329.725L61.4342 329.516L61.156 329.722L61.2607 329.386L60.9855 329.179H61.3265L61.4342 328.843ZM52.7024 329.695L52.8101 330.031H53.1511L52.8759 330.238L52.9806 330.574L52.7024 330.367L52.4272 330.574L52.5319 330.234L52.2537 330.028H52.6007L52.7024 329.695ZM54.6438 329.695L54.7485 330.031H55.0925L54.8143 330.238L54.922 330.574L54.6438 330.367L54.3656 330.574L54.4733 330.234L54.1951 330.028H54.5361L54.6438 329.695ZM56.5822 329.695L56.6899 330.031H57.0279L56.7587 330.238L56.8634 330.574L56.5852 330.367L56.31 330.574L56.4147 330.234L56.1365 330.028H56.4805L56.5822 329.695ZM58.5236 329.695L58.6283 330.031H58.9723L58.6941 330.238L58.8018 330.574L58.5236 330.367L58.2454 330.574L58.3531 330.234L58.0749 330.028H58.4159L58.5236 329.695ZM60.462 329.695L60.5697 330.031H60.9107L60.6355 330.238L60.7402 330.574L60.462 330.367L60.1868 330.574L60.2915 330.234L60.0163 330.028H60.3573L60.462 329.695ZM62.4034 329.695L62.5081 330.031H62.8521L62.5739 330.238L62.6816 330.574L62.4034 330.367L62.1252 330.574L62.2329 330.234L61.9547 330.028H62.2987L62.4034 329.695Z" fill="white"/>
<rect width="299.083" height="29.1" fill="#F5F3ED"/>
<path d="M42.8921 9.82477L40.9739 16.6167H40.0409L38.6437 11.653C38.5837 11.4414 38.5473 11.2109 38.5347 10.9615H38.5158C38.4968 11.1952 38.4558 11.4225 38.3926 11.6435L36.9859 16.6167H36.0624L34.0731 9.82477H34.9493L36.3939 15.0347C36.4539 15.2526 36.4918 15.4799 36.5076 15.7168H36.5312C36.547 15.5494 36.596 15.3221 36.6781 15.0347L38.1795 9.82477H38.942L40.3819 15.0726C40.4324 15.2526 40.4703 15.4642 40.4956 15.7073H40.5145C40.5271 15.5431 40.5698 15.3252 40.6424 15.0537L42.0301 9.82477H42.8921ZM47.3206 14.3859H43.8962C43.9089 14.9258 44.0541 15.3426 44.332 15.6362C44.6098 15.9299 44.9919 16.0767 45.4782 16.0767C46.0244 16.0767 46.5265 15.8967 46.9843 15.5368V16.2662C46.5581 16.5756 45.9944 16.7303 45.2935 16.7303C44.6083 16.7303 44.0699 16.5109 43.6784 16.072C43.2868 15.6299 43.0911 15.0095 43.0911 14.2106C43.0911 13.456 43.3042 12.8418 43.7305 12.3682C44.1599 11.8914 44.6919 11.653 45.3266 11.653C45.9613 11.653 46.4523 11.8582 46.7996 12.2687C47.1469 12.6792 47.3206 13.2491 47.3206 13.9785V14.3859ZM46.5249 13.7275C46.5217 13.2791 46.4128 12.9302 46.1981 12.6808C45.9865 12.4313 45.6913 12.3066 45.3124 12.3066C44.9461 12.3066 44.6351 12.4376 44.3793 12.6997C44.1236 12.9618 43.9657 13.3044 43.9057 13.7275H46.5249ZM53.6531 9.82477L51.1381 16.6167H50.2619L47.799 9.82477H48.6847L50.565 15.21C50.625 15.3836 50.6708 15.5841 50.7023 15.8115H50.7213C50.7465 15.622 50.7986 15.4184 50.8776 15.2005L52.7958 9.82477H53.6531ZM55.4245 14.0496V16.6167H54.6288V9.82477H56.4949C57.2211 9.82477 57.7832 10.0016 58.181 10.3552C58.582 10.7089 58.7825 11.2078 58.7825 11.8519C58.7825 12.4961 58.5599 13.0234 58.1147 13.4339C57.6726 13.8443 57.0743 14.0496 56.3196 14.0496H55.4245ZM55.4245 10.5447V13.3297H56.2581C56.8075 13.3297 57.2258 13.2049 57.5132 12.9555C57.8037 12.7029 57.9489 12.3477 57.9489 11.8898C57.9489 10.9931 57.4185 10.5447 56.3575 10.5447H55.4245ZM65.5413 16.6167H64.5656L61.0702 11.203C60.9818 11.0673 60.9091 10.9252 60.8523 10.7768H60.8239C60.8491 10.922 60.8618 11.233 60.8618 11.7098V16.6167H60.0661V9.82477H61.0986L64.4993 15.1531C64.6414 15.3742 64.7329 15.5257 64.774 15.6078H64.7929C64.7613 15.4121 64.7456 15.0789 64.7456 14.6085V9.82477H65.5413V16.6167Z" fill="#5B5863"/>
<rect x="253.817" width="45.2667" height="29.1" fill="#F5F3ED"/>
<path d="M273.355 17.6447C273.448 17.7371 273.54 17.7833 273.678 17.7833C273.817 17.7833 273.909 17.7371 274.002 17.6447L276.45 15.1967L278.898 17.6447C278.99 17.7371 279.129 17.7833 279.221 17.7833C279.314 17.7833 279.452 17.7371 279.545 17.6447C279.729 17.46 279.729 17.1828 279.545 16.9981L277.097 14.55L279.545 12.1019C279.729 11.9171 279.729 11.64 279.545 11.4552C279.36 11.2705 279.083 11.2705 278.898 11.4552L276.45 13.9033L274.002 11.4552C273.817 11.2705 273.54 11.2705 273.355 11.4552C273.17 11.64 273.17 11.9171 273.355 12.1019L275.803 14.55L273.355 16.9981C273.17 17.1828 273.17 17.46 273.355 17.6447Z" fill="#5B5863"/>
<rect x="208.55" width="45.2667" height="29.1" fill="#F5F3ED"/>
<g opacity="0.3">
<mask id="path-29-inside-1" fill="white">
<path d="M233.609 15.3582H236.034V8.89155H229.567V11.3165"/>
</mask>
<path d="M233.609 16.1665H232.8V14.5499H233.609V16.1665ZM236.034 15.3582H236.842V16.1665H236.034V15.3582ZM236.034 8.89155V8.08322H236.842V8.89155H236.034ZM229.567 8.89155H228.759V8.08322H229.567V8.89155ZM230.375 11.3165V12.1249H228.759V11.3165H230.375ZM233.609 14.5499H236.034V16.1665H233.609V14.5499ZM235.225 15.3582V8.89155H236.842V15.3582H235.225ZM236.034 9.69988H229.567V8.08322H236.034V9.69988ZM230.375 8.89155V11.3165H228.759V8.89155H230.375Z" fill="#5B5863" mask="url(#path-29-inside-1)"/>
<path d="M227.546 11.7208V17.3792H233.204V11.7208H227.546Z" stroke="#5B5863" stroke-width="0.808333" stroke-miterlimit="10" stroke-linecap="square"/>
</g>
<rect x="163.283" width="45.2667" height="29.1" fill="#F5F3ED"/>
<path d="M183.088 14.55H188.746C188.988 14.55 189.15 14.3884 189.15 14.1459C189.15 13.9034 188.988 13.7417 188.746 13.7417H183.088C182.845 13.7417 182.683 13.9034 182.683 14.1459C182.683 14.3884 182.845 14.55 183.088 14.55Z" fill="#5B5863"/>
<rect x="12.9333" y="6.46667" width="16.1667" height="16.1667" rx="8.08333" fill="#FD3E72"/>
<mask id="mask1" mask-type="alpha" maskUnits="userSpaceOnUse" x="12" y="6" width="18" height="17">
<rect x="12.9333" y="6.46667" width="16.1667" height="16.1667" rx="8.08333" fill="#FD3E72"/>
</mask>
<g mask="url(#mask1)">
<g style="mix-blend-mode:multiply">
<path d="M30.1105 19.5012L25.0584 9.70013L23.9807 17.2277L16.9751 17.7835L22.6671 27.6856L30.1105 19.5012Z" fill="url(#paint0_linear)" fill-opacity="0.24"/>
</g>
</g>
<path d="M25.0583 9.49805C24.2689 9.49805 23.6324 10.1657 23.6324 10.9938V15.3259C23.6324 15.5071 23.6225 15.6882 23.6028 15.8797C23.583 16.066 23.5337 16.2368 23.4547 16.3921C23.3758 16.5474 23.2574 16.6768 23.0995 16.7803C22.9416 16.8838 22.7146 16.9356 22.4284 16.9356C22.1422 16.9356 21.9153 16.8838 21.7574 16.7803C21.5995 16.6768 21.481 16.5474 21.4021 16.3921C21.3232 16.2368 21.2738 16.066 21.2541 15.8797C21.2343 15.6934 21.2245 15.5071 21.2245 15.3259V10.8593C20.435 10.8593 19.7985 11.5269 19.7985 12.355V15.3207C19.7985 15.5019 19.7886 15.683 19.7689 15.8745C19.7491 16.0609 19.6998 16.2317 19.6208 16.3869C19.5419 16.5422 19.4235 16.6716 19.2656 16.7751C19.1077 16.8786 18.8807 16.9304 18.5945 16.9304C18.3083 16.9304 18.0814 16.8786 17.9235 16.7751C17.7656 16.6716 17.6472 16.5422 17.5682 16.3869C17.4893 16.2317 17.4399 16.0609 17.4202 15.8745C17.4005 15.6882 17.3906 15.5019 17.3906 15.3207V12.2205C16.6011 12.2205 15.9646 12.8933 15.9646 13.7163V15.3207C15.9646 15.7451 16.0041 16.1178 16.083 16.4387C16.162 16.7596 16.2607 17.0339 16.3791 17.2668C16.5024 17.4997 16.6406 17.6912 16.7985 17.8465C16.9564 18.0018 17.1192 18.126 17.282 18.2243C17.662 18.4521 18.1011 18.5763 18.5896 18.5918C19.088 18.5763 19.5271 18.4521 19.912 18.2243C20.0748 18.126 20.2376 18.0018 20.3906 17.8465C20.4301 17.8051 20.4695 17.7637 20.509 17.7171C20.5485 17.7637 20.588 17.8051 20.6274 17.8465C20.7853 18.0018 20.9482 18.126 21.111 18.2243C21.4909 18.4521 21.9301 18.5763 22.4185 18.5918C22.9169 18.5763 23.356 18.4521 23.7409 18.2243C23.9037 18.126 24.0666 18.0018 24.2195 17.8465C24.3774 17.6912 24.5156 17.4997 24.6389 17.2668C24.7623 17.0339 24.861 16.7596 24.935 16.4387C25.009 16.1178 25.0435 15.7503 25.0435 15.3207L25.0583 9.49805Z" fill="white"/>
<path d="M0 29.1H299.083V126.908C299.083 144.766 284.607 159.242 266.75 159.242H32.3334C14.4762 159.242 0 144.766 0 126.908V29.1Z" fill="#F5F3ED"/>
<path d="M279.683 56.5832C279.683 55.6903 278.959 54.9665 278.067 54.9665C277.174 54.9665 276.45 55.6903 276.45 56.5832C276.45 57.476 277.174 58.1998 278.067 58.1998C278.959 58.1998 279.683 57.476 279.683 56.5832Z" fill="#5B5863"/>
<path d="M279.683 63.8582C279.683 62.9653 278.959 62.2415 278.067 62.2415C277.174 62.2415 276.45 62.9653 276.45 63.8582C276.45 64.751 277.174 65.4748 278.067 65.4748C278.959 65.4748 279.683 64.751 279.683 63.8582Z" fill="#5B5863"/>
<path d="M279.683 49.3082C279.683 48.4153 278.959 47.6915 278.067 47.6915C277.174 47.6915 276.45 48.4153 276.45 49.3082C276.45 50.201 277.174 50.9248 278.067 50.9248C278.959 50.9248 279.683 50.201 279.683 49.3082Z" fill="#5B5863"/>
<circle cx="149.946" cy="159.646" r="63.4542" fill="#F1EFE8"/>
<circle cx="149.946" cy="159.646" r="63.4542" fill="white"/>
<g filter="url(#filter0_d)">
<path fill-rule="evenodd" clip-rule="evenodd" d="M163.718 201.846L162.683 200.235C161.977 199.136 160.472 198.734 159.321 199.337L159.589 199.197C159.303 199.346 159.166 199.719 159.284 200.029L160.716 203.804C160.943 204.402 161.523 205.248 162.003 205.674C162.003 205.674 164.885 208.103 164.885 209.014V210.167H169.552L170.719 207.789L171.886 210.167H173.053V209.014C173.053 208.103 174.814 205.234 174.814 205.234C175.138 204.677 175.408 203.694 175.408 203.042V198.246C175.387 197.184 174.501 196.323 173.408 196.323C172.861 196.323 172.418 196.754 172.418 197.285V197.669C172.418 196.607 171.532 195.747 170.438 195.747C169.891 195.747 169.448 196.177 169.448 196.708V197.092C169.448 196.03 168.562 195.17 167.469 195.17C166.922 195.17 166.479 195.6 166.479 196.131V196.515C166.479 196.345 166.461 196.209 166.426 196.102L166.124 191.148C166.083 190.479 165.529 189.958 164.885 189.958C164.236 189.958 163.718 190.49 163.718 191.147V201.846ZM171.907 200.657H173.074V205.412H171.907V200.657ZM169.574 200.657H170.741V205.412H169.574V200.657ZM167.24 200.657H168.407V205.412H167.24V200.657Z" fill="white"/>
<path d="M163.023 200.017C162.259 198.828 160.701 198.345 159.409 198.853L159.401 198.839C159.401 198.839 159.401 198.839 159.401 198.839L159.133 198.979L159.155 199.02C158.861 199.315 158.755 199.776 158.906 200.173L160.338 203.947C160.588 204.606 161.205 205.507 161.736 205.976L161.736 205.976L161.743 205.983L161.743 205.983L161.743 205.983L161.743 205.983L161.745 205.984L161.75 205.989L161.773 206.009C161.794 206.026 161.824 206.052 161.863 206.085C161.94 206.152 162.051 206.249 162.184 206.368C162.451 206.607 162.805 206.934 163.158 207.288C163.513 207.643 163.858 208.017 164.113 208.352C164.24 208.519 164.337 208.668 164.401 208.793C164.469 208.926 164.48 208.995 164.48 209.014V210.167V210.571H164.885H169.552H169.804L169.915 210.345L170.719 208.706L171.524 210.345L171.635 210.571H171.886H173.053H173.457V210.167V209.014C173.457 208.876 173.535 208.595 173.702 208.194C173.86 207.814 174.073 207.382 174.291 206.972C174.508 206.562 174.725 206.18 174.888 205.9C174.97 205.76 175.038 205.646 175.085 205.567C175.109 205.528 175.127 205.497 175.14 205.476L175.154 205.453L175.158 205.447L175.158 205.446L175.159 205.446L175.159 205.446L175.159 205.446L175.164 205.437C175.349 205.119 175.509 204.698 175.623 204.28C175.737 203.862 175.813 203.416 175.813 203.042V198.246H175.813L175.812 198.238C175.787 196.95 174.715 195.919 173.408 195.919C173.014 195.919 172.653 196.081 172.398 196.343C171.965 195.736 171.245 195.342 170.438 195.342C170.044 195.342 169.684 195.504 169.428 195.766C168.996 195.159 168.276 194.766 167.469 194.766C167.212 194.766 166.97 194.834 166.761 194.955L166.528 191.124C166.474 190.246 165.748 189.554 164.885 189.554C164.004 189.554 163.313 190.275 163.313 191.147V200.469L163.023 200.017ZM172.312 201.061H172.67V205.008H172.312V201.061ZM169.978 201.061H170.336V205.008H169.978V201.061ZM167.644 201.061H168.002V205.008H167.644V201.061Z" stroke="black" stroke-opacity="0.8" stroke-width="0.808333"/>
</g>
<path d="M150.498 134.816C145.478 134.816 140.57 136.305 136.396 139.094C132.222 141.883 128.969 145.847 127.048 150.485C125.127 155.122 124.624 160.226 125.604 165.149C126.583 170.073 129 174.596 132.55 178.145C136.1 181.695 140.622 184.112 145.546 185.092C150.469 186.071 155.573 185.568 160.211 183.647C164.849 181.726 168.813 178.473 171.602 174.299C174.391 170.125 175.879 165.218 175.879 160.198C175.872 153.468 173.195 147.017 168.437 142.258C163.678 137.5 157.227 134.824 150.498 134.816ZM149.394 144.748C149.394 144.455 149.51 144.175 149.717 143.968C149.924 143.761 150.205 143.644 150.498 143.644C150.79 143.644 151.071 143.761 151.278 143.968C151.485 144.175 151.601 144.455 151.601 144.748V157.991C151.601 158.283 151.485 158.564 151.278 158.771C151.071 158.978 150.79 159.094 150.498 159.094C150.205 159.094 149.924 158.978 149.717 158.771C149.51 158.564 149.394 158.283 149.394 157.991V144.748ZM150.498 174.544C147.592 174.544 144.755 173.662 142.362 172.014C139.969 170.366 138.133 168.031 137.096 165.317C136.06 162.603 135.871 159.638 136.556 156.815C137.242 153.991 138.768 151.442 140.933 149.505C141.041 149.407 141.167 149.331 141.304 149.282C141.441 149.233 141.587 149.211 141.733 149.219C141.878 149.226 142.021 149.262 142.152 149.325C142.284 149.388 142.402 149.476 142.499 149.585C142.596 149.693 142.671 149.82 142.719 149.958C142.767 150.095 142.787 150.241 142.778 150.387C142.77 150.532 142.732 150.675 142.668 150.805C142.604 150.936 142.515 151.053 142.405 151.15C140.57 152.791 139.277 154.952 138.699 157.345C138.12 159.739 138.283 162.251 139.166 164.55C140.049 166.849 141.61 168.824 143.642 170.215C145.674 171.606 148.081 172.346 150.543 172.336C153.005 172.327 155.407 171.57 157.428 170.164C159.45 168.758 160.996 166.771 161.862 164.466C162.728 162.161 162.872 159.647 162.276 157.258C161.68 154.869 160.371 152.718 158.524 151.09C158.411 150.995 158.318 150.879 158.251 150.748C158.184 150.617 158.144 150.474 158.133 150.328C158.122 150.181 158.14 150.033 158.187 149.894C158.234 149.754 158.308 149.626 158.405 149.515C158.503 149.405 158.621 149.315 158.754 149.251C158.886 149.187 159.03 149.15 159.177 149.143C159.324 149.135 159.471 149.157 159.609 149.207C159.748 149.257 159.875 149.335 159.983 149.435C162.169 151.362 163.717 153.909 164.42 156.737C165.123 159.566 164.948 162.541 163.918 165.267C162.888 167.994 161.052 170.342 158.655 171.999C156.257 173.656 153.412 174.544 150.498 174.544Z" fill="#5B5863"/>
<path fill-rule="evenodd" clip-rule="evenodd" d="M204.508 54.1582C204.508 52.819 203.423 51.7332 202.083 51.7332H98.6167C97.2774 51.7332 96.1917 52.819 96.1917 54.1582V78.4082C96.1917 79.7475 97.2774 80.8332 98.6166 80.8332H144.634C144.655 80.8332 144.666 80.8588 144.651 80.8738C144.642 80.8831 144.642 80.8982 144.651 80.9074L148.635 84.8917C149.582 85.8387 151.118 85.8387 152.065 84.8917L156.049 80.9074C156.058 80.8982 156.058 80.8831 156.049 80.8738C156.034 80.8588 156.045 80.8332 156.066 80.8332H202.083C203.423 80.8332 204.508 79.7475 204.508 78.4082V54.1582Z" fill="white"/>
<path d="M116.537 70.06C115.952 70.3694 115.222 70.5241 114.349 70.5241C113.222 70.5241 112.319 70.1613 111.642 69.4356C110.964 68.7099 110.625 67.7576 110.625 66.5788C110.625 65.3115 111.006 64.2874 111.769 63.5065C112.531 62.7255 113.498 62.335 114.67 62.335C115.421 62.335 116.044 62.4437 116.537 62.661V63.6501C115.97 63.3333 115.344 63.1749 114.659 63.1749C113.749 63.1749 113.01 63.4788 112.443 64.0867C111.879 64.6945 111.597 65.5068 111.597 66.5235C111.597 67.4887 111.861 68.2586 112.388 68.8333C112.918 69.4042 113.612 69.6897 114.471 69.6897C115.266 69.6897 115.955 69.5129 116.537 69.1593V70.06ZM118.936 70.3915H118.029V62.0145H118.936V70.3915ZM121.234 63.2965C121.072 63.2965 120.934 63.2412 120.82 63.1307C120.706 63.0202 120.649 62.8802 120.649 62.7108C120.649 62.5413 120.706 62.4013 120.82 62.2908C120.934 62.1766 121.072 62.1195 121.234 62.1195C121.4 62.1195 121.54 62.1766 121.654 62.2908C121.772 62.4013 121.831 62.5413 121.831 62.7108C121.831 62.8729 121.772 63.011 121.654 63.1252C121.54 63.2394 121.4 63.2965 121.234 63.2965ZM121.676 70.3915H120.77V64.7332H121.676V70.3915ZM127.368 70.1318C126.933 70.3934 126.417 70.5241 125.821 70.5241C125.014 70.5241 124.362 70.2626 123.864 69.7395C123.371 69.2127 123.124 68.5312 123.124 67.695C123.124 66.763 123.391 66.0151 123.925 65.4515C124.459 64.8842 125.172 64.6006 126.064 64.6006C126.561 64.6006 126.999 64.6927 127.379 64.8768V65.8052C126.959 65.5105 126.509 65.3631 126.031 65.3631C125.452 65.3631 124.977 65.5712 124.605 65.9875C124.237 66.4001 124.052 66.9435 124.052 67.6176C124.052 68.2807 124.225 68.8038 124.572 69.1869C124.922 69.57 125.39 69.7616 125.975 69.7616C126.469 69.7616 126.933 69.5976 127.368 69.2698V70.1318ZM133.435 70.3915H132.164L129.666 67.6729H129.644V70.3915H128.738V62.0145H129.644V67.3247H129.666L132.043 64.7332H133.231L130.606 67.4629L133.435 70.3915ZM140.093 70.3363C139.88 70.4541 139.598 70.5131 139.248 70.5131C138.257 70.5131 137.762 69.9605 137.762 68.8554V65.5068H136.789V64.7332H137.762V63.3517L138.668 63.0589V64.7332H140.093V65.5068H138.668V68.6951C138.668 69.0745 138.732 69.3453 138.861 69.5074C138.99 69.6695 139.204 69.7505 139.502 69.7505C139.731 69.7505 139.928 69.6879 140.093 69.5627V70.3363ZM143.669 70.5241C142.832 70.5241 142.164 70.2607 141.663 69.7339C141.165 69.2035 140.917 68.5017 140.917 67.6287C140.917 66.6782 141.177 65.9359 141.696 65.4018C142.215 64.8676 142.917 64.6006 143.801 64.6006C144.645 64.6006 145.302 64.8603 145.774 65.3797C146.249 65.8991 146.487 66.6193 146.487 67.5402C146.487 68.4428 146.231 69.1666 145.719 69.7118C145.21 70.2534 144.527 70.5241 143.669 70.5241ZM143.735 65.3631C143.153 65.3631 142.692 65.562 142.354 65.9599C142.015 66.3541 141.845 66.8993 141.845 67.5955C141.845 68.266 142.016 68.7946 142.359 69.1814C142.702 69.5682 143.16 69.7616 143.735 69.7616C144.321 69.7616 144.77 69.5719 145.083 69.1924C145.4 68.813 145.558 68.2733 145.558 67.5734C145.558 66.8661 145.4 66.3209 145.083 65.9378C144.77 65.5547 144.321 65.3631 143.735 65.3631ZM154.897 70.1318C154.462 70.3934 153.946 70.5241 153.35 70.5241C152.543 70.5241 151.891 70.2626 151.394 69.7395C150.9 69.2127 150.653 68.5312 150.653 67.695C150.653 66.763 150.92 66.0151 151.454 65.4515C151.989 64.8842 152.701 64.6006 153.593 64.6006C154.09 64.6006 154.529 64.6927 154.908 64.8768V65.8052C154.488 65.5105 154.039 65.3631 153.56 65.3631C152.981 65.3631 152.506 65.5712 152.134 65.9875C151.766 66.4001 151.581 66.9435 151.581 67.6176C151.581 68.2807 151.755 68.8038 152.101 69.1869C152.451 69.57 152.919 69.7616 153.504 69.7616C153.998 69.7616 154.462 69.5976 154.897 69.2698V70.1318ZM158.632 70.5241C157.796 70.5241 157.127 70.2607 156.626 69.7339C156.129 69.2035 155.88 68.5017 155.88 67.6287C155.88 66.6782 156.14 65.9359 156.66 65.4018C157.179 64.8676 157.881 64.6006 158.765 64.6006C159.608 64.6006 160.266 64.8603 160.738 65.3797C161.213 65.8991 161.45 66.6193 161.45 67.5402C161.45 68.4428 161.194 69.1666 160.682 69.7118C160.174 70.2534 159.491 70.5241 158.632 70.5241ZM158.699 65.3631C158.117 65.3631 157.656 65.562 157.317 65.9599C156.978 66.3541 156.809 66.8993 156.809 67.5955C156.809 68.266 156.98 68.7946 157.323 69.1814C157.665 69.5682 158.124 69.7616 158.699 69.7616C159.284 69.7616 159.734 69.5719 160.047 69.1924C160.364 68.813 160.522 68.2733 160.522 67.5734C160.522 66.8661 160.364 66.3209 160.047 65.9378C159.734 65.5547 159.284 65.3631 158.699 65.3631ZM167.595 70.3915H166.689V67.1645C166.689 65.9636 166.25 65.3631 165.374 65.3631C164.921 65.3631 164.545 65.5344 164.246 65.877C163.952 66.2159 163.804 66.6451 163.804 67.1645V70.3915H162.898V64.7332H163.804V65.6725H163.826C164.254 64.9579 164.873 64.6006 165.683 64.6006C166.302 64.6006 166.775 64.8013 167.103 65.2029C167.431 65.6007 167.595 66.1772 167.595 66.9324V70.3915ZM174.005 70.3915H173.099V67.1645C173.099 65.9636 172.66 65.3631 171.783 65.3631C171.33 65.3631 170.955 65.5344 170.656 65.877C170.362 66.2159 170.214 66.6451 170.214 67.1645V70.3915H169.308V64.7332H170.214V65.6725H170.236C170.664 64.9579 171.282 64.6006 172.093 64.6006C172.712 64.6006 173.185 64.8013 173.513 65.2029C173.841 65.6007 174.005 66.1772 174.005 66.9324V70.3915ZM180.265 67.7889H176.27C176.285 68.4188 176.455 68.9051 176.779 69.2477C177.103 69.5903 177.549 69.7616 178.116 69.7616C178.753 69.7616 179.339 69.5516 179.873 69.1316V69.9826C179.376 70.3436 178.718 70.5241 177.9 70.5241C177.101 70.5241 176.473 70.2681 176.016 69.7561C175.559 69.2403 175.331 68.5165 175.331 67.5844C175.331 66.704 175.58 65.9875 176.077 65.4349C176.578 64.8787 177.199 64.6006 177.939 64.6006C178.68 64.6006 179.252 64.84 179.658 65.3189C180.063 65.7978 180.265 66.4627 180.265 67.3137V67.7889ZM179.337 67.0208C179.333 66.4977 179.206 66.0907 178.956 65.7996C178.709 65.5086 178.365 65.3631 177.923 65.3631C177.495 65.3631 177.132 65.516 176.834 65.8217C176.536 66.1275 176.351 66.5272 176.281 67.0208H179.337ZM185.498 70.1318C185.064 70.3934 184.548 70.5241 183.951 70.5241C183.144 70.5241 182.492 70.2626 181.995 69.7395C181.501 69.2127 181.255 68.5312 181.255 67.695C181.255 66.763 181.522 66.0151 182.056 65.4515C182.59 64.8842 183.303 64.6006 184.194 64.6006C184.692 64.6006 185.13 64.6927 185.509 64.8768V65.8052C185.089 65.5105 184.64 65.3631 184.161 65.3631C183.583 65.3631 183.108 65.5712 182.735 65.9875C182.367 66.4001 182.183 66.9435 182.183 67.6176C182.183 68.2807 182.356 68.8038 182.702 69.1869C183.052 69.57 183.52 69.7616 184.106 69.7616C184.599 69.7616 185.064 69.5976 185.498 69.2698V70.1318ZM189.493 70.3363C189.28 70.4541 188.998 70.5131 188.648 70.5131C187.657 70.5131 187.162 69.9605 187.162 68.8554V65.5068H186.189V64.7332H187.162V63.3517L188.068 63.0589V64.7332H189.493V65.5068H188.068V68.6951C188.068 69.0745 188.132 69.3453 188.261 69.5074C188.39 69.6695 188.604 69.7505 188.902 69.7505C189.131 69.7505 189.328 69.6879 189.493 69.5627V70.3363Z" fill="#5B5863"/>
</g>
<defs>
<filter id="filter0_d" x="156.009" y="187.533" width="22.633" height="26.675" filterUnits="userSpaceOnUse" color-interpolation-filters="sRGB">
<feFlood flood-opacity="0" result="BackgroundImageFix"/>
<feColorMatrix in="SourceAlpha" type="matrix" values="0 0 0 0 0 0 0 0 0 0 0 0 0 0 0 0 0 0 127 0"/>
<feOffset dy="0.808333"/>
<feGaussianBlur stdDeviation="1.2125"/>
<feColorMatrix type="matrix" values="0 0 0 0 0 0 0 0 0 0 0 0 0 0 0 0 0 0 0.2 0"/>
<feBlend mode="normal" in2="BackgroundImageFix" result="effect1_dropShadow"/>
<feBlend mode="normal" in="SourceGraphic" in2="effect1_dropShadow" result="shape"/>
</filter>
<linearGradient id="paint0_linear" x1="21.3536" y1="14.0449" x2="25.0727" y2="21.2076" gradientUnits="userSpaceOnUse">
<stop stop-color="#666666"/>
<stop offset="1" stop-color="#666666" stop-opacity="0"/>
</linearGradient>
</defs>
</svg>
