<svg width="300" height="485" viewBox="0 0 300 485" fill="none" xmlns="http://www.w3.org/2000/svg">
<mask id="mask0" mask-type="alpha" maskUnits="userSpaceOnUse" x="0" y="0" width="300" height="485">
<rect width="299.083" height="485" rx="8.08333" fill="#F9F8F4"/>
</mask>
<g mask="url(#mask0)">
<rect y="29.1" width="299.083" height="455.9" fill="#F9F8F4"/>
<rect y="381.533" width="299.083" height="103.467" fill="#F9F8F4"/>
<path d="M179.713 389.108H178.729L175.79 381.135H176.834L179.177 387.821H179.265L181.608 381.135H182.653L179.713 389.108ZM184.051 381.135H187.062C187.817 381.135 188.431 381.376 188.902 381.859C189.377 382.337 189.615 382.956 189.615 383.715C189.615 384.459 189.374 385.071 188.891 385.55C188.412 386.025 187.799 386.263 187.051 386.263H185.045V389.108H184.051V381.135ZM185.045 382.019V385.378H186.802C187.37 385.378 187.81 385.233 188.123 384.942C188.436 384.651 188.593 384.242 188.593 383.715C188.593 383.166 188.438 382.746 188.129 382.455C187.823 382.164 187.381 382.019 186.802 382.019H185.045ZM192.229 389.108H191.245V381.135H192.212L196.539 387.34H196.627V381.135H197.611V389.108H196.644L192.317 382.925H192.229V389.108ZM203.833 389.108H202.838V381.135H203.833V389.108ZM205.866 381.135H208.878C209.633 381.135 210.246 381.376 210.718 381.859C211.193 382.337 211.43 382.956 211.43 383.715C211.43 384.459 211.189 385.071 210.707 385.55C210.228 386.025 209.614 386.263 208.867 386.263H206.861V389.108H205.866V381.135ZM206.861 382.019V385.378H208.618C209.185 385.378 209.625 385.233 209.939 384.942C210.252 384.651 210.408 384.242 210.408 383.715C210.408 383.166 210.253 382.746 209.944 382.455C209.638 382.164 209.196 382.019 208.618 382.019H206.861ZM213.724 389.164C213.528 389.164 213.359 389.094 213.215 388.954C213.075 388.81 213.005 388.64 213.005 388.445C213.005 388.246 213.075 388.077 213.215 387.937C213.359 387.797 213.528 387.727 213.724 387.727C213.923 387.727 214.092 387.797 214.232 387.937C214.372 388.077 214.442 388.246 214.442 388.445C214.442 388.64 214.372 388.81 214.232 388.954C214.092 389.094 213.923 389.164 213.724 389.164ZM213.724 384.914C213.528 384.914 213.359 384.844 213.215 384.704C213.075 384.561 213.005 384.391 213.005 384.196C213.005 383.997 213.075 383.828 213.215 383.688C213.359 383.548 213.528 383.478 213.724 383.478C213.923 383.478 214.092 383.548 214.232 383.688C214.372 383.828 214.442 383.997 214.442 384.196C214.442 384.391 214.372 384.561 214.232 384.704C214.092 384.844 213.923 384.914 213.724 384.914Z" fill="#AFADB2"/>
<path d="M179.939 403.514H176.309V402.226H179.939V403.514ZM185.377 403.514H181.746V402.226H185.377V403.514Z" fill="#5B5863"/>
<path d="M34.3447 389.108H33.3501V381.135H34.3447V389.108ZM36.3782 381.135H39.3897C40.1449 381.135 40.7582 381.376 41.2298 381.859C41.705 382.337 41.9426 382.956 41.9426 383.715C41.9426 384.459 41.7013 385.071 41.2187 385.55C40.7398 386.025 40.1265 386.263 39.3787 386.263H37.3728V389.108H36.3782V381.135ZM37.3728 382.019V385.378H39.13C39.6973 385.378 40.1375 385.233 40.4507 384.942C40.7638 384.651 40.9203 384.242 40.9203 383.715C40.9203 383.166 40.7656 382.746 40.4562 382.455C40.1504 382.164 39.7084 382.019 39.13 382.019H37.3728ZM44.2358 389.164C44.0405 389.164 43.8711 389.094 43.7274 388.954C43.5874 388.81 43.5174 388.64 43.5174 388.445C43.5174 388.246 43.5874 388.077 43.7274 387.937C43.8711 387.797 44.0405 387.727 44.2358 387.727C44.4347 387.727 44.6041 387.797 44.7441 387.937C44.8841 388.077 44.9541 388.246 44.9541 388.445C44.9541 388.64 44.8841 388.81 44.7441 388.954C44.6041 389.094 44.4347 389.164 44.2358 389.164ZM44.2358 384.914C44.0405 384.914 43.8711 384.844 43.7274 384.704C43.5874 384.561 43.5174 384.391 43.5174 384.196C43.5174 383.997 43.5874 383.828 43.7274 383.688C43.8711 383.548 44.0405 383.478 44.2358 383.478C44.4347 383.478 44.6041 383.548 44.7441 383.688C44.8841 383.828 44.9541 383.997 44.9541 384.196C44.9541 384.391 44.8841 384.561 44.7441 384.704C44.6041 384.844 44.4347 384.914 44.2358 384.914Z" fill="#AFADB2"/>
<path d="M36.8645 403.514H33.2341V402.226H36.8645V403.514ZM42.3018 403.514H38.6714V402.226H42.3018V403.514Z" fill="#5B5863"/>
<path d="M52.6227 450.524C51.7881 450.524 51.1416 450.186 50.6832 449.508C50.2248 448.831 49.9957 447.877 49.9957 446.645C49.9957 445.424 50.2266 444.473 50.6884 443.792C51.1501 443.112 51.7949 442.771 52.6227 442.771C53.4471 442.771 54.0885 443.113 54.5469 443.798C55.0087 444.482 55.2396 445.436 55.2396 446.661C55.2396 447.889 55.0104 448.84 54.552 449.514C54.0971 450.187 53.454 450.524 52.6227 450.524ZM51.3605 448.923C51.6547 449.454 52.0754 449.719 52.6227 449.719C53.1701 449.719 53.5874 449.455 53.8747 448.929C54.1655 448.398 54.3109 447.637 54.3109 446.645C54.3109 445.664 54.1638 444.908 53.8696 444.377C53.5788 443.847 53.1632 443.582 52.6227 443.582C52.0823 443.582 51.6632 443.849 51.3656 444.382C51.0715 444.913 50.9244 445.667 50.9244 446.645C50.9244 447.634 51.0698 448.393 51.3605 448.923ZM60.7605 450.35H59.837V442.946H60.7605V446.543H60.8426L64.0854 442.946H65.2451L62.2845 446.142L65.517 450.35H64.3215L61.6482 446.784L60.7605 447.764V450.35ZM69.6526 450.35H66.7638V442.946H69.5962C70.2735 442.946 70.8071 443.112 71.197 443.444C71.5904 443.775 71.7871 444.225 71.7871 444.793C71.7871 445.176 71.6623 445.522 71.4125 445.829C71.1663 446.137 70.8652 446.324 70.5095 446.389V446.471C71.0157 446.536 71.4177 446.731 71.7153 447.056C72.0129 447.377 72.1617 447.783 72.1617 448.272C72.1617 448.925 71.9393 449.435 71.4946 449.801C71.0534 450.167 70.4394 450.35 69.6526 450.35ZM67.6874 443.762V446.137H69.1652C70.2906 446.137 70.8533 445.742 70.8533 444.952C70.8533 444.576 70.725 444.283 70.4684 444.075C70.2153 443.866 69.8596 443.762 69.4012 443.762H67.6874ZM67.6874 449.534H69.5141C70.0716 449.534 70.4941 449.423 70.7814 449.201C71.0688 448.978 71.2124 448.653 71.2124 448.226C71.2124 447.364 70.6172 446.933 69.4268 446.933H67.6874V449.534Z" fill="#5B5863"/>
<path d="M43.4073 447.251L42.2757 446.119L38.7998 449.595V439.733H37.1832V449.595L33.7074 446.119L32.5757 447.251L37.9915 452.667L43.4073 447.251Z" fill="#AFADB2"/>
<path d="M148.572 450.524C147.737 450.524 147.091 450.186 146.633 449.508C146.174 448.831 145.945 447.877 145.945 446.645C145.945 445.424 146.176 444.473 146.638 443.792C147.099 443.112 147.744 442.771 148.572 442.771C149.396 442.771 150.038 443.113 150.496 443.798C150.958 444.482 151.189 445.436 151.189 446.661C151.189 447.889 150.96 448.84 150.501 449.514C150.046 450.187 149.403 450.524 148.572 450.524ZM147.31 448.923C147.604 449.454 148.025 449.719 148.572 449.719C149.119 449.719 149.537 449.455 149.824 448.929C150.115 448.398 150.26 447.637 150.26 446.645C150.26 445.664 150.113 444.908 149.819 444.377C149.528 443.847 149.113 443.582 148.572 443.582C148.032 443.582 147.613 443.849 147.315 444.382C147.021 444.913 146.874 445.667 146.874 446.645C146.874 447.634 147.019 448.393 147.31 448.923ZM156.71 450.35H155.786V442.946H156.71V446.543H156.792L160.035 442.946H161.194L158.234 446.142L161.466 450.35H160.271L157.598 446.784L156.71 447.764V450.35ZM165.602 450.35H162.713V442.946H165.546C166.223 442.946 166.756 443.112 167.146 443.444C167.54 443.775 167.736 444.225 167.736 444.793C167.736 445.176 167.612 445.522 167.362 445.829C167.116 446.137 166.815 446.324 166.459 446.389V446.471C166.965 446.536 167.367 446.731 167.665 447.056C167.962 447.377 168.111 447.783 168.111 448.272C168.111 448.925 167.889 449.435 167.444 449.801C167.003 450.167 166.389 450.35 165.602 450.35ZM163.637 443.762V446.137H165.115C166.24 446.137 166.803 445.742 166.803 444.952C166.803 444.576 166.674 444.283 166.418 444.075C166.165 443.866 165.809 443.762 165.351 443.762H163.637ZM163.637 449.534H165.463C166.021 449.534 166.443 449.423 166.731 449.201C167.018 448.978 167.162 448.653 167.162 448.226C167.162 447.364 166.567 446.933 165.376 446.933H163.637V449.534Z" fill="#5B5863"/>
<path d="M139.357 445.149L138.225 446.281L134.749 442.805V452.667H133.133V442.805L129.657 446.281L128.525 445.149L133.941 439.733L139.357 445.149Z" fill="#AFADB2"/>
<path d="M245.006 450.524C244.171 450.524 243.525 450.186 243.067 449.508C242.608 448.831 242.379 447.877 242.379 446.645C242.379 445.424 242.61 444.473 243.072 443.792C243.534 443.112 244.178 442.771 245.006 442.771C245.83 442.771 246.472 443.113 246.93 443.798C247.392 444.482 247.623 445.436 247.623 446.661C247.623 447.889 247.394 448.84 246.935 449.514C246.48 450.187 245.837 450.524 245.006 450.524ZM243.744 448.923C244.038 449.454 244.459 449.719 245.006 449.719C245.553 449.719 245.971 449.455 246.258 448.929C246.549 448.398 246.694 447.637 246.694 446.645C246.694 445.664 246.547 444.908 246.253 444.377C245.962 443.847 245.547 443.582 245.006 443.582C244.466 443.582 244.047 443.849 243.749 444.382C243.455 444.913 243.308 445.667 243.308 446.645C243.308 447.634 243.453 448.393 243.744 448.923ZM251.625 450.524C250.79 450.524 250.144 450.186 249.686 449.508C249.227 448.831 248.998 447.877 248.998 446.645C248.998 445.424 249.229 444.473 249.691 443.792C250.153 443.112 250.797 442.771 251.625 442.771C252.45 442.771 253.091 443.113 253.549 443.798C254.011 444.482 254.242 445.436 254.242 446.661C254.242 447.889 254.013 448.84 253.554 449.514C253.099 450.187 252.456 450.524 251.625 450.524ZM250.363 448.923C250.657 449.454 251.078 449.719 251.625 449.719C252.172 449.719 252.59 449.455 252.877 448.929C253.168 448.398 253.313 447.637 253.313 446.645C253.313 445.664 253.166 444.908 252.872 444.377C252.581 443.847 252.166 443.582 251.625 443.582C251.085 443.582 250.666 443.849 250.368 444.382C250.074 444.913 249.927 445.667 249.927 446.645C249.927 447.634 250.072 448.393 250.363 448.923ZM256.489 449.503C256.308 449.503 256.151 449.438 256.017 449.308C255.887 449.175 255.822 449.018 255.822 448.836C255.822 448.652 255.887 448.494 256.017 448.364C256.151 448.234 256.308 448.169 256.489 448.169C256.674 448.169 256.831 448.234 256.961 448.364C257.091 448.494 257.156 448.652 257.156 448.836C257.156 449.018 257.091 449.175 256.961 449.308C256.831 449.438 256.674 449.503 256.489 449.503ZM256.489 445.557C256.308 445.557 256.151 445.493 256.017 445.363C255.887 445.229 255.822 445.072 255.822 444.89C255.822 444.706 255.887 444.548 256.017 444.418C256.151 444.288 256.308 444.223 256.489 444.223C256.674 444.223 256.831 444.288 256.961 444.418C257.091 444.548 257.156 444.706 257.156 444.89C257.156 445.072 257.091 445.229 256.961 445.363C256.831 445.493 256.674 445.557 256.489 445.557ZM261.364 450.524C260.529 450.524 259.883 450.186 259.424 449.508C258.966 448.831 258.737 447.877 258.737 446.645C258.737 445.424 258.968 444.473 259.429 443.792C259.891 443.112 260.536 442.771 261.364 442.771C262.188 442.771 262.83 443.113 263.288 443.798C263.75 444.482 263.981 445.436 263.981 446.661C263.981 447.889 263.751 448.84 263.293 449.514C262.838 450.187 262.195 450.524 261.364 450.524ZM260.102 448.923C260.396 449.454 260.816 449.719 261.364 449.719C261.911 449.719 262.328 449.455 262.616 448.929C262.907 448.398 263.052 447.637 263.052 446.645C263.052 445.664 262.905 444.908 262.611 444.377C262.32 443.847 261.904 443.582 261.364 443.582C260.823 443.582 260.404 443.849 260.107 444.382C259.813 444.913 259.665 445.667 259.665 446.645C259.665 447.634 259.811 448.393 260.102 448.923ZM267.983 450.524C267.148 450.524 266.502 450.186 266.043 449.508C265.585 448.831 265.356 447.877 265.356 446.645C265.356 445.424 265.587 444.473 266.048 443.792C266.51 443.112 267.155 442.771 267.983 442.771C268.807 442.771 269.449 443.113 269.907 443.798C270.369 444.482 270.6 445.436 270.6 446.661C270.6 447.889 270.37 448.84 269.912 449.514C269.457 450.187 268.814 450.524 267.983 450.524ZM266.721 448.923C267.015 449.454 267.436 449.719 267.983 449.719C268.53 449.719 268.947 449.455 269.235 448.929C269.526 448.398 269.671 447.637 269.671 446.645C269.671 445.664 269.524 444.908 269.23 444.377C268.939 443.847 268.523 443.582 267.983 443.582C267.442 443.582 267.023 443.849 266.726 444.382C266.432 444.913 266.284 445.667 266.284 446.645C266.284 447.634 266.43 448.393 266.721 448.923Z" fill="#5B5863"/>
<path d="M230.375 439.733C226.818 439.733 223.908 442.643 223.908 446.2C223.908 449.757 226.818 452.667 230.375 452.667C233.932 452.667 236.842 449.757 236.842 446.2C236.842 442.643 233.932 439.733 230.375 439.733ZM230.375 451.05C227.707 451.05 225.525 448.867 225.525 446.2C225.525 443.532 227.707 441.35 230.375 441.35C233.042 441.35 235.225 443.532 235.225 446.2C235.225 448.867 233.042 451.05 230.375 451.05Z" fill="#AFADB2"/>
<path d="M231.183 442.967H229.567V447.008H233.608V445.392H231.183V442.967Z" fill="#AFADB2"/>
<rect x="32.3334" y="422.758" width="234.417" height="0.808333" fill="#E8E6E0"/>
<rect x="32.3334" y="286.15" width="234.417" height="72.75" rx="4.04167" fill="white"/>
<path d="M235.644 328.847L241.021 322.574C241.28 322.272 241.28 321.825 241.021 321.523L235.644 315.25L234.417 316.303L239.343 322.049L234.417 327.795L235.644 328.847Z" fill="#AFADB2"/>
<path d="M52.3688 310.234H53.3745C53.4371 310.65 53.6526 310.981 54.021 311.228C54.3894 311.475 54.8572 311.598 55.4245 311.598C55.9624 311.598 56.4063 311.469 56.7562 311.212C57.1099 310.95 57.2867 310.622 57.2867 310.228C57.2867 309.889 57.1577 309.609 56.8999 309.388C56.642 309.163 56.2386 308.981 55.6898 308.841L54.6675 308.576C53.9455 308.395 53.4205 308.134 53.0927 307.791C52.7648 307.449 52.6009 306.994 52.6009 306.426C52.6009 305.749 52.8587 305.201 53.3745 304.785C53.8939 304.365 54.5754 304.155 55.419 304.155C56.1889 304.155 56.8336 304.362 57.353 304.774C57.8724 305.187 58.1524 305.715 58.1929 306.36H57.1927C57.1228 305.951 56.9275 305.632 56.607 305.404C56.2902 305.172 55.8832 305.056 55.3858 305.056C54.8554 305.056 54.428 305.179 54.1039 305.426C53.7834 305.669 53.6231 305.992 53.6231 306.393C53.6231 306.706 53.741 306.96 53.9768 307.156C54.2162 307.351 54.6104 307.519 55.1593 307.659L55.9937 307.88C56.8188 308.086 57.4101 308.362 57.7674 308.708C58.1284 309.055 58.3089 309.521 58.3089 310.106C58.3089 310.84 58.04 311.423 57.5022 311.858C56.9643 312.289 56.2405 312.505 55.3306 312.505C54.487 312.505 53.7944 312.298 53.2529 311.886C52.7151 311.473 52.4204 310.922 52.3688 310.234ZM62.2211 307.095C61.7459 307.095 61.3555 307.255 61.0497 307.576C60.7439 307.896 60.5726 308.32 60.5358 308.847H63.8181C63.807 308.32 63.656 307.896 63.365 307.576C63.0739 307.255 62.6927 307.095 62.2211 307.095ZM63.7904 310.775H64.7409C64.5972 311.291 64.3043 311.694 63.8623 311.985C63.4239 312.276 62.8805 312.422 62.2322 312.422C61.407 312.422 60.7531 312.145 60.2706 311.593C59.788 311.037 59.5467 310.287 59.5467 309.344C59.5467 308.405 59.7898 307.655 60.2761 307.095C60.7624 306.535 61.4144 306.255 62.2322 306.255C63.0353 306.255 63.667 306.522 64.1275 307.056C64.588 307.59 64.8182 308.322 64.8182 309.25V309.615H60.5358V309.659C60.5616 310.248 60.7274 310.716 61.0331 311.062C61.3426 311.409 61.7496 311.582 62.2543 311.582C63.0242 311.582 63.5363 311.313 63.7904 310.775ZM66.3654 312.317V303.995H67.3159V312.317H66.3654ZM71.5375 307.095C71.0623 307.095 70.6718 307.255 70.3661 307.576C70.0603 307.896 69.889 308.32 69.8522 308.847H73.1344C73.1234 308.32 72.9723 307.896 72.6813 307.576C72.3903 307.255 72.009 307.095 71.5375 307.095ZM73.1068 310.775H74.0572C73.9136 311.291 73.6207 311.694 73.1786 311.985C72.7403 312.276 72.1969 312.422 71.5486 312.422C70.7234 312.422 70.0695 312.145 69.5869 311.593C69.1043 311.037 68.8631 310.287 68.8631 309.344C68.8631 308.405 69.1062 307.655 69.5925 307.095C70.0787 306.535 70.7307 306.255 71.5486 306.255C72.3516 306.255 72.9834 306.522 73.4439 307.056C73.9044 307.59 74.1346 308.322 74.1346 309.25V309.615H69.8522V309.659C69.8779 310.248 70.0437 310.716 70.3495 311.062C70.6589 311.409 71.066 311.582 71.5707 311.582C72.3406 311.582 72.8526 311.313 73.1068 310.775ZM80.5555 308.184H79.594C79.513 307.87 79.338 307.614 79.0691 307.415C78.8038 307.213 78.4668 307.112 78.0578 307.112C77.5237 307.112 77.0982 307.31 76.7814 307.708C76.4683 308.106 76.3117 308.642 76.3117 309.316C76.3117 310.001 76.4701 310.549 76.7869 310.957C77.1037 311.363 77.5274 311.565 78.0578 311.565C78.4594 311.565 78.7928 311.475 79.058 311.294C79.3269 311.114 79.5056 310.856 79.594 310.521H80.5555C80.4671 311.085 80.2037 311.543 79.7653 311.897C79.3269 312.247 78.7596 312.422 78.0634 312.422C77.2271 312.422 76.5622 312.142 76.0686 311.582C75.575 311.018 75.3281 310.263 75.3281 309.316C75.3281 308.388 75.575 307.646 76.0686 307.089C76.5622 306.533 77.2253 306.255 78.0578 306.255C78.7541 306.255 79.3214 306.437 79.7598 306.802C80.2018 307.167 80.4671 307.627 80.5555 308.184ZM82.4674 304.818H83.4178V306.36H84.744V307.156H83.4178V310.526C83.4178 310.876 83.4878 311.131 83.6278 311.289C83.7678 311.447 83.9925 311.527 84.3019 311.527C84.4382 311.527 84.5856 311.519 84.744 311.504V312.306C84.534 312.343 84.348 312.361 84.1859 312.361C83.5707 312.361 83.1305 312.238 82.8652 311.991C82.6 311.744 82.4674 311.337 82.4674 310.77V307.156H81.5059V306.36H82.4674V304.818ZM88.4683 307.095C87.9931 307.095 87.6026 307.255 87.2968 307.576C86.9911 307.896 86.8198 308.32 86.783 308.847H90.0652C90.0542 308.32 89.9031 307.896 89.6121 307.576C89.3211 307.255 88.9398 307.095 88.4683 307.095ZM90.0376 310.775H90.988C90.8444 311.291 90.5515 311.694 90.1094 311.985C89.6711 312.276 89.1277 312.422 88.4794 312.422C87.6542 312.422 87.0003 312.145 86.5177 311.593C86.0351 311.037 85.7939 310.287 85.7939 309.344C85.7939 308.405 86.037 307.655 86.5232 307.095C87.0095 306.535 87.6615 306.255 88.4794 306.255C89.2824 306.255 89.9142 306.522 90.3747 307.056C90.8351 307.59 91.0654 308.322 91.0654 309.25V309.615H86.783V309.659C86.8087 310.248 86.9745 310.716 87.2803 311.062C87.5897 311.409 87.9968 311.582 88.5015 311.582C89.2714 311.582 89.7834 311.313 90.0376 310.775ZM94.7621 312.422C93.9995 312.422 93.3917 312.142 92.9386 311.582C92.4855 311.022 92.2589 310.274 92.2589 309.338C92.2589 308.406 92.4855 307.66 92.9386 307.1C93.3954 306.537 94.0032 306.255 94.7621 306.255C95.1784 306.255 95.5504 306.349 95.8783 306.537C96.2098 306.721 96.4603 306.975 96.6298 307.299H96.7127V303.995H97.6631V312.317H96.7569V311.366H96.6685C96.4806 311.698 96.219 311.958 95.8838 312.145C95.5486 312.33 95.1747 312.422 94.7621 312.422ZM94.9831 307.112C94.4416 307.112 94.0161 307.31 93.7067 307.708C93.3972 308.102 93.2425 308.646 93.2425 309.338C93.2425 310.035 93.3954 310.58 93.7012 310.974C94.0106 311.368 94.4379 311.565 94.9831 311.565C95.5246 311.565 95.952 311.366 96.2651 310.968C96.5782 310.571 96.7348 310.027 96.7348 309.338C96.7348 308.657 96.5764 308.115 96.2596 307.714C95.9464 307.312 95.521 307.112 94.9831 307.112ZM107.665 311.422V312.317H102.824V304.343H103.819V311.422H107.665ZM110.002 310.985C110.308 311.372 110.742 311.565 111.306 311.565C111.87 311.565 112.304 311.372 112.61 310.985C112.916 310.595 113.069 310.046 113.069 309.338C113.069 308.631 112.916 308.084 112.61 307.697C112.304 307.307 111.87 307.112 111.306 307.112C110.742 307.112 110.308 307.307 110.002 307.697C109.696 308.084 109.543 308.631 109.543 309.338C109.543 310.046 109.696 310.595 110.002 310.985ZM113.312 311.598C112.822 312.147 112.153 312.422 111.306 312.422C110.459 312.422 109.788 312.147 109.295 311.598C108.805 311.046 108.56 310.293 108.56 309.338C108.56 308.381 108.805 307.627 109.295 307.078C109.785 306.529 110.455 306.255 111.306 306.255C112.157 306.255 112.827 306.529 113.317 307.078C113.807 307.627 114.052 308.381 114.052 309.338C114.052 310.293 113.806 311.046 113.312 311.598ZM120.473 308.184H119.512C119.431 307.87 119.256 307.614 118.987 307.415C118.722 307.213 118.385 307.112 117.976 307.112C117.441 307.112 117.016 307.31 116.699 307.708C116.386 308.106 116.229 308.642 116.229 309.316C116.229 310.001 116.388 310.549 116.705 310.957C117.022 311.363 117.445 311.565 117.976 311.565C118.377 311.565 118.711 311.475 118.976 311.294C119.245 311.114 119.423 310.856 119.512 310.521H120.473C120.385 311.085 120.121 311.543 119.683 311.897C119.245 312.247 118.677 312.422 117.981 312.422C117.145 312.422 116.48 312.142 115.986 311.582C115.493 311.018 115.246 310.263 115.246 309.316C115.246 308.388 115.493 307.646 115.986 307.089C116.48 306.533 117.143 306.255 117.976 306.255C118.672 306.255 119.239 306.437 119.678 306.802C120.12 307.167 120.385 307.627 120.473 308.184ZM123.711 311.587C124.201 311.587 124.606 311.446 124.927 311.162C125.251 310.878 125.413 310.523 125.413 310.095V309.548L123.811 309.653C123.361 309.683 123.032 309.777 122.822 309.935C122.612 310.094 122.507 310.324 122.507 310.626C122.507 310.924 122.619 311.16 122.844 311.333C123.068 311.503 123.358 311.587 123.711 311.587ZM123.534 312.422C122.949 312.422 122.466 312.262 122.087 311.941C121.711 311.617 121.523 311.186 121.523 310.648C121.523 310.118 121.711 309.701 122.087 309.399C122.463 309.097 122.998 308.926 123.695 308.885L125.413 308.78V308.239C125.413 307.87 125.299 307.589 125.071 307.393C124.842 307.198 124.507 307.1 124.065 307.1C123.708 307.1 123.411 307.165 123.175 307.294C122.94 307.423 122.789 307.605 122.722 307.841H121.761C121.823 307.366 122.068 306.983 122.496 306.692C122.927 306.401 123.461 306.255 124.098 306.255C124.82 306.255 125.378 306.43 125.772 306.78C126.167 307.13 126.364 307.616 126.364 308.239V312.317H125.457V311.438H125.369C125.177 311.755 124.923 311.998 124.606 312.168C124.29 312.337 123.932 312.422 123.534 312.422ZM128.519 304.818H129.469V306.36H130.795V307.156H129.469V310.526C129.469 310.876 129.539 311.131 129.679 311.289C129.819 311.447 130.044 311.527 130.353 311.527C130.49 311.527 130.637 311.519 130.795 311.504V312.306C130.585 312.343 130.399 312.361 130.237 312.361C129.622 312.361 129.182 312.238 128.917 311.991C128.651 311.744 128.519 311.337 128.519 310.77V307.156H127.557V306.36H128.519V304.818ZM132.254 312.317V306.36H133.204V312.317H132.254ZM133.199 304.957C133.07 305.085 132.913 305.15 132.729 305.15C132.545 305.15 132.389 305.085 132.26 304.957C132.131 304.824 132.066 304.667 132.066 304.487C132.066 304.306 132.131 304.152 132.26 304.023C132.389 303.89 132.545 303.824 132.729 303.824C132.913 303.824 133.07 303.89 133.199 304.023C133.328 304.152 133.392 304.306 133.392 304.487C133.392 304.667 133.328 304.824 133.199 304.957ZM136.161 310.985C136.467 311.372 136.901 311.565 137.465 311.565C138.028 311.565 138.463 311.372 138.769 310.985C139.075 310.595 139.228 310.046 139.228 309.338C139.228 308.631 139.075 308.084 138.769 307.697C138.463 307.307 138.028 307.112 137.465 307.112C136.901 307.112 136.467 307.307 136.161 307.697C135.855 308.084 135.702 308.631 135.702 309.338C135.702 310.046 135.855 310.595 136.161 310.985ZM139.471 311.598C138.981 312.147 138.312 312.422 137.465 312.422C136.618 312.422 135.947 312.147 135.453 311.598C134.964 311.046 134.719 310.293 134.719 309.338C134.719 308.381 134.964 307.627 135.453 307.078C135.943 306.529 136.614 306.255 137.465 306.255C138.316 306.255 138.986 306.529 139.476 307.078C139.966 307.627 140.211 308.381 140.211 309.338C140.211 310.293 139.964 311.046 139.471 311.598ZM141.703 312.317V306.36H142.609V307.299H142.698C143.014 306.603 143.611 306.255 144.488 306.255C145.155 306.255 145.669 306.447 146.03 306.83C146.391 307.209 146.571 307.753 146.571 308.46V312.317H145.621V308.692C145.621 308.158 145.505 307.762 145.273 307.504C145.044 307.242 144.692 307.112 144.217 307.112C143.738 307.112 143.357 307.263 143.073 307.565C142.793 307.863 142.653 308.272 142.653 308.791V312.317H141.703ZM149.096 312.372C148.901 312.372 148.732 312.302 148.588 312.162C148.448 312.018 148.378 311.849 148.378 311.654C148.378 311.455 148.448 311.285 148.588 311.145C148.732 311.005 148.901 310.935 149.096 310.935C149.295 310.935 149.465 311.005 149.605 311.145C149.745 311.285 149.815 311.455 149.815 311.654C149.815 311.849 149.745 312.018 149.605 312.162C149.465 312.302 149.295 312.372 149.096 312.372ZM149.096 308.123C148.901 308.123 148.732 308.053 148.588 307.913C148.448 307.769 148.378 307.6 148.378 307.404C148.378 307.205 148.448 307.036 148.588 306.896C148.732 306.756 148.901 306.686 149.096 306.686C149.295 306.686 149.465 306.756 149.605 306.896C149.745 307.036 149.815 307.205 149.815 307.404C149.815 307.6 149.745 307.769 149.605 307.913C149.465 308.053 149.295 308.123 149.096 308.123Z" fill="#AFADB2"/>
<path d="M85.5689 324.89V331.44C85.5689 332.146 85.7797 332.71 86.2012 333.131C86.6228 333.548 87.2077 333.756 87.9561 333.756C88.7044 333.756 89.287 333.548 89.7038 333.131C90.1253 332.71 90.3361 332.146 90.3361 331.44V324.89H92.169V331.611C92.169 332.743 91.7877 333.657 91.0252 334.353C90.2626 335.049 89.2396 335.398 87.9561 335.398C86.6725 335.398 85.6495 335.049 84.8869 334.353C84.1244 333.657 83.7431 332.743 83.7431 331.611V324.89H85.5689ZM94.2577 332.357H96.0481C96.1049 332.816 96.3441 333.183 96.7656 333.458C97.1872 333.728 97.7224 333.863 98.3712 333.863C98.9775 333.863 99.4748 333.726 99.8632 333.451C100.256 333.171 100.453 332.816 100.453 332.385C100.453 332.016 100.304 331.715 100.005 331.483C99.7116 331.251 99.2356 331.059 98.5773 330.907L97.2487 330.602C96.3204 330.394 95.6313 330.055 95.1813 329.586C94.7361 329.112 94.5135 328.494 94.5135 327.732C94.5135 326.799 94.8616 326.05 95.5579 325.487C96.2588 324.918 97.1824 324.634 98.3286 324.634C99.4038 324.634 100.294 324.914 101 325.473C101.706 326.031 102.08 326.751 102.122 327.632H100.368C100.306 327.182 100.091 326.825 99.7211 326.56C99.3517 326.294 98.8851 326.162 98.3215 326.162C97.7295 326.162 97.2535 326.294 96.8935 326.56C96.5383 326.82 96.3607 327.168 96.3607 327.604C96.3607 327.95 96.5004 328.231 96.7798 328.449C97.0593 328.662 97.5163 328.842 98.151 328.989L99.3303 329.259C100.368 329.491 101.118 329.837 101.582 330.297C102.051 330.756 102.286 331.376 102.286 332.158C102.286 333.157 101.923 333.948 101.199 334.531C100.479 335.109 99.4985 335.398 98.2576 335.398C97.083 335.398 96.1333 335.123 95.4087 334.573C94.6887 334.024 94.3051 333.285 94.2577 332.357ZM110.96 335.142L110.094 332.52H106.321L105.44 335.142H103.586L107.223 324.89H109.284L112.928 335.142H110.96ZM108.154 326.844L106.747 331.071H109.667L108.275 326.844H108.154ZM123.13 331.838H118.463V330.183H123.13V331.838ZM131.208 335.142H129.439V324.89H131.031L136.061 331.859H136.181V324.89H137.943V335.142H136.359L131.329 328.165H131.208V335.142ZM143.556 328.613C143.03 328.613 142.597 328.786 142.256 329.131C141.915 329.477 141.725 329.934 141.687 330.503H145.346C145.327 329.925 145.157 329.465 144.835 329.124C144.513 328.783 144.086 328.613 143.556 328.613ZM145.36 333.003H147.03C146.864 333.714 146.473 334.275 145.858 334.687C145.247 335.094 144.486 335.298 143.577 335.298C142.436 335.298 141.538 334.943 140.885 334.232C140.236 333.517 139.911 332.534 139.911 331.284C139.911 330.034 140.238 329.044 140.892 328.314C141.545 327.58 142.436 327.213 143.563 327.213C144.671 327.213 145.538 327.561 146.163 328.258C146.793 328.949 147.108 329.908 147.108 331.135V331.703H141.68V331.796C141.704 332.444 141.889 332.958 142.234 333.337C142.585 333.711 143.049 333.898 143.627 333.898C144.517 333.898 145.095 333.6 145.36 333.003ZM159.186 327.369L157.083 335.142H155.228L153.715 329.543H153.594L152.088 335.142H150.255L148.152 327.369H149.929L151.222 333.174H151.342L152.834 327.369H154.518L156.024 333.174H156.145L157.431 327.369H159.186ZM169.459 335.142H167.626V331.135L164.031 324.89H166.042L168.485 329.273H168.606L171.043 324.89H173.054L169.459 331.135V335.142ZM175.242 333.153C175.578 333.598 176.054 333.82 176.67 333.82C177.286 333.82 177.759 333.598 178.091 333.153C178.427 332.703 178.595 332.07 178.595 331.256C178.595 330.446 178.427 329.816 178.091 329.366C177.754 328.916 177.281 328.691 176.67 328.691C176.054 328.691 175.578 328.916 175.242 329.366C174.906 329.816 174.737 330.446 174.737 331.256C174.737 332.07 174.906 332.703 175.242 333.153ZM176.67 335.298C175.505 335.298 174.591 334.94 173.928 334.225C173.264 333.505 172.933 332.515 172.933 331.256C172.933 330.005 173.267 329.02 173.935 328.3C174.602 327.575 175.514 327.213 176.67 327.213C177.83 327.213 178.742 327.573 179.405 328.293C180.073 329.013 180.407 330 180.407 331.256C180.407 332.515 180.073 333.505 179.405 334.225C178.742 334.94 177.83 335.298 176.67 335.298ZM182.183 335.142V327.369H183.881V328.577H184.002C184.111 328.189 184.355 327.869 184.733 327.618C185.117 327.367 185.558 327.242 186.055 327.242C186.372 327.242 186.616 327.268 186.787 327.32V328.954C186.607 328.887 186.306 328.854 185.884 328.854C185.311 328.854 184.845 329.02 184.485 329.352C184.125 329.678 183.945 330.112 183.945 330.652V335.142H182.183ZM190.19 330.538L193.06 327.369H195.106L192.008 330.701L195.319 335.142H193.188L190.694 331.81L190.069 332.435V335.142H188.307V324.364H190.069V330.538H190.19Z" fill="#5B5863"/>
<path fill-rule="evenodd" clip-rule="evenodd" d="M51.7334 322.525H72.7501V323.769H51.7334V322.525ZM51.7334 325.013H72.7501V326.257H51.7334V325.013ZM51.7334 327.498H72.7501V328.745H51.7334V327.498ZM51.7334 329.986H72.7501V331.23H51.7334V329.986ZM51.7334 332.475H72.7501V333.719H51.7334V332.475ZM51.7334 334.96H72.7501V336.204H51.7334V334.96ZM51.7334 337.448H72.7501V338.692H51.7334V337.448Z" fill="#BD3D44"/>
<path fill-rule="evenodd" clip-rule="evenodd" d="M51.7335 324.142H72.7501V325.318H51.7335V324.142ZM51.7335 326.494H72.7501V327.668H51.7335V326.494ZM51.7335 328.844H72.7501V330.02H51.7335V328.844ZM51.7335 331.197H72.7501V332.373H51.7335V331.197ZM51.7335 333.549H72.7501V334.726H51.7335V333.549ZM51.7335 335.899H72.7501V337.075H51.7335V335.899Z" fill="white"/>
<path fill-rule="evenodd" clip-rule="evenodd" d="M51.7334 322.525H63.3728V331.03H51.7334V322.525Z" fill="#192F5D"/>
<path fill-rule="evenodd" clip-rule="evenodd" d="M52.7027 322.889L52.8104 323.226H53.1514L52.8762 323.432L52.9809 323.772L52.7027 323.562L52.4275 323.768L52.5322 323.432L52.254 323.226H52.601L52.7027 322.889ZM54.6441 322.889L54.7488 323.226H55.0928L54.8146 323.432L54.9193 323.772L54.6441 323.562L54.3659 323.768L54.4706 323.432L54.1954 323.226H54.5364L54.6441 322.889ZM56.5825 322.889L56.6902 323.226H57.0282L56.753 323.432L56.8577 323.772L56.5795 323.562L56.3043 323.768L56.409 323.432L56.1308 323.226H56.4748L56.5825 322.889ZM58.5239 322.889L58.6286 323.226H58.9726L58.6944 323.432L58.8021 323.772L58.5239 323.562L58.2457 323.768L58.3534 323.432L58.0752 323.226H58.4162L58.5239 322.889ZM60.4623 322.889L60.57 323.226H60.911L60.6358 323.432L60.7405 323.772L60.4623 323.562L60.1871 323.768L60.2918 323.432L60.0166 323.226H60.3576L60.4623 322.889ZM62.4037 322.889L62.5084 323.226H62.8524L62.5742 323.432L62.6819 323.772L62.4037 323.562L62.1255 323.768L62.2332 323.432L61.955 323.226H62.299L62.4037 322.889ZM53.6749 323.741L53.7796 324.077H54.1236L53.8454 324.284L53.9471 324.62L53.6779 324.413L53.3997 324.62L53.4984 324.284L53.2292 324.077H53.5702L53.6749 323.741ZM55.6133 323.741L55.721 324.077H56.062L55.7838 324.284L55.8915 324.62L55.6133 324.413L55.3351 324.62L55.4428 324.284L55.1646 324.077H55.5086L55.6133 323.741ZM57.5547 323.741L57.6594 324.077H58.0034L57.7252 324.284L57.8299 324.62L57.5547 324.413L57.2765 324.62L57.3812 324.284L57.106 324.077H57.447L57.5547 323.741ZM59.4931 323.741L59.6008 324.077H59.9418L59.6636 324.284L59.7713 324.62L59.4931 324.413L59.2179 324.62L59.3226 324.284L59.0444 324.077H59.3914L59.4931 323.741ZM61.4345 323.741L61.5392 324.077H61.8832L61.605 324.284L61.7097 324.62L61.4345 324.413L61.1563 324.62L61.261 324.284L60.9858 324.077H61.3268L61.4345 323.741ZM52.7027 324.589L52.8104 324.931H53.1514L52.8762 325.138L52.9809 325.474L52.7027 325.265L52.4275 325.474L52.5322 325.135L52.254 324.928H52.601L52.7027 324.589ZM54.6441 324.589L54.7488 324.928H55.0928L54.8146 325.135L54.9193 325.471L54.6441 325.262L54.3659 325.471L54.4706 325.132L54.1954 324.925H54.5364L54.6441 324.589ZM56.5825 324.589L56.6902 324.928H57.0282L56.753 325.135L56.8577 325.471L56.5795 325.262L56.3043 325.471L56.409 325.132L56.1308 324.925H56.4748L56.5825 324.589ZM58.5239 324.589L58.6286 324.928H58.9726L58.6944 325.135L58.8021 325.471L58.5239 325.262L58.2457 325.471L58.3534 325.132L58.0752 324.925H58.4162L58.5239 324.589ZM60.4623 324.589L60.57 324.928H60.911L60.6358 325.135L60.7405 325.471L60.4623 325.262L60.1871 325.471L60.2918 325.132L60.0166 324.925H60.3576L60.4623 324.589ZM62.4037 324.589L62.5084 324.928H62.8524L62.5742 325.135L62.6819 325.471L62.4037 325.262L62.1255 325.471L62.2332 325.132L61.955 324.925H62.299L62.4037 324.589ZM53.6749 325.44L53.7796 325.777H54.1236L53.8454 325.983L53.9501 326.323L53.6749 326.113L53.3967 326.32L53.5014 325.983L53.2262 325.777H53.5672L53.6749 325.44ZM55.6133 325.44L55.721 325.777H56.062L55.7838 325.983L55.8915 326.323L55.6133 326.113L55.3351 326.32L55.4428 325.983L55.1646 325.777H55.5086L55.6133 325.44ZM57.5547 325.44L57.6594 325.777H58.0034L57.7252 325.983L57.8299 326.323L57.5547 326.113L57.2765 326.32L57.3812 325.983L57.106 325.777H57.447L57.5547 325.44ZM59.4931 325.44L59.6008 325.777H59.9418L59.6666 325.983L59.7713 326.323L59.4931 326.113L59.2179 326.32L59.3226 325.983L59.0444 325.777H59.3914L59.4931 325.44ZM61.4345 325.44L61.5392 325.777H61.8832L61.605 325.983L61.7097 326.323L61.4345 326.113L61.1563 326.32L61.261 325.983L60.9858 325.777H61.3268L61.4345 325.44ZM52.7027 326.292L52.8104 326.628H53.1514L52.8762 326.835L52.9809 327.174L52.7027 326.964L52.4275 327.171L52.5322 326.835L52.254 326.628H52.601L52.7027 326.292ZM54.6441 326.292L54.7488 326.628H55.0928L54.8146 326.835L54.9193 327.171L54.6441 326.964L54.3659 327.171L54.4706 326.835L54.1954 326.628H54.5364L54.6441 326.292ZM56.5825 326.292L56.6902 326.628H57.0282L56.753 326.835L56.8577 327.174L56.5795 326.964L56.3043 327.171L56.409 326.835L56.1308 326.628H56.4748L56.5825 326.292ZM58.5239 326.292L58.6286 326.628H58.9726L58.6944 326.835L58.8021 327.174L58.5239 326.964L58.2457 327.171L58.3534 326.835L58.0752 326.628H58.4162L58.5239 326.292ZM60.4623 326.292L60.57 326.628H60.911L60.6358 326.835L60.7405 327.174L60.4623 326.964L60.1871 327.171L60.2918 326.835L60.0166 326.628H60.3576L60.4623 326.292ZM62.4037 326.292L62.5084 326.628H62.8524L62.5742 326.835L62.6819 327.174L62.4037 326.964L62.1255 327.171L62.2332 326.835L61.955 326.628H62.299L62.4037 326.292ZM53.6749 327.143L53.7796 327.48H54.1236L53.8454 327.686L53.9501 328.022L53.6749 327.813L53.3967 328.022L53.5014 327.683L53.2262 327.476H53.5672L53.6749 327.143ZM55.6133 327.143L55.721 327.48H56.062L55.7838 327.686L55.8915 328.022L55.6133 327.813L55.3351 328.022L55.4428 327.683L55.1646 327.476H55.5086L55.6133 327.143ZM57.5547 327.143L57.6594 327.48H58.0034L57.7252 327.686L57.8299 328.022L57.5547 327.813L57.2765 328.022L57.3812 327.683L57.106 327.476H57.447L57.5547 327.143ZM59.4931 327.143L59.6008 327.48H59.9418L59.6666 327.686L59.7713 328.022L59.4931 327.813L59.2179 328.022L59.3226 327.683L59.0444 327.476H59.3914L59.4931 327.143ZM61.4345 327.143L61.5392 327.48H61.8832L61.605 327.686L61.7097 328.022L61.4345 327.813L61.1563 328.022L61.261 327.683L60.9858 327.476H61.3268L61.4345 327.143ZM52.7027 327.992L52.8104 328.331H53.1514L52.8762 328.538L52.9809 328.871L52.7027 328.664L52.4275 328.871L52.5322 328.535L52.254 328.328H52.601L52.7027 327.992ZM54.6441 327.992L54.7488 328.331H55.0928L54.8146 328.538L54.9223 328.871L54.6441 328.664L54.3659 328.871L54.4736 328.535L54.1954 328.328H54.5364L54.6441 327.992ZM56.5825 327.992L56.6902 328.331H57.0282L56.753 328.538L56.8577 328.871L56.5795 328.664L56.3043 328.871L56.409 328.535L56.1308 328.328H56.4748L56.5825 327.992ZM58.5239 327.992L58.6286 328.331H58.9726L58.6944 328.538L58.8021 328.871L58.5239 328.664L58.2457 328.871L58.3534 328.535L58.0752 328.328H58.4162L58.5239 327.992ZM60.4623 327.992L60.57 328.331H60.911L60.6358 328.538L60.7405 328.871L60.4623 328.664L60.1871 328.871L60.2918 328.535L60.0166 328.328H60.3576L60.4623 327.992ZM62.4037 327.992L62.5084 328.331H62.8524L62.5742 328.538L62.6819 328.871L62.4037 328.664L62.1255 328.871L62.2332 328.535L61.955 328.328H62.299L62.4037 327.992ZM53.6749 328.843L53.7796 329.179H54.1236L53.8454 329.386L53.9501 329.725L53.6749 329.516L53.3967 329.722L53.5014 329.386L53.2262 329.179H53.5672L53.6749 328.843ZM55.6133 328.843L55.721 329.179H56.062L55.7838 329.386L55.8915 329.725L55.6133 329.516L55.3351 329.722L55.4428 329.386L55.1646 329.179H55.5086L55.6133 328.843ZM57.5547 328.843L57.6594 329.179H58.0034L57.7252 329.386L57.8299 329.725L57.5547 329.516L57.2765 329.722L57.3812 329.386L57.106 329.179H57.447L57.5547 328.843ZM59.4931 328.843L59.6008 329.179H59.9418L59.6666 329.386L59.7713 329.725L59.4931 329.516L59.2179 329.722L59.3226 329.386L59.0444 329.179H59.3914L59.4931 328.843ZM61.4345 328.843L61.5392 329.179H61.8832L61.605 329.386L61.7097 329.725L61.4345 329.516L61.1563 329.722L61.261 329.386L60.9858 329.179H61.3268L61.4345 328.843ZM52.7027 329.694L52.8104 330.031H53.1514L52.8762 330.237L52.9809 330.574L52.7027 330.367L52.4275 330.574L52.5322 330.234L52.254 330.028H52.601L52.7027 329.694ZM54.6441 329.694L54.7488 330.031H55.0928L54.8146 330.237L54.9223 330.574L54.6441 330.367L54.3659 330.574L54.4736 330.234L54.1954 330.028H54.5364L54.6441 329.694ZM56.5825 329.694L56.6902 330.031H57.0282L56.759 330.237L56.8637 330.574L56.5855 330.367L56.3103 330.574L56.415 330.234L56.1368 330.028H56.4808L56.5825 329.694ZM58.5239 329.694L58.6286 330.031H58.9726L58.6944 330.237L58.8021 330.574L58.5239 330.367L58.2457 330.574L58.3534 330.234L58.0752 330.028H58.4162L58.5239 329.694ZM60.4623 329.694L60.57 330.031H60.911L60.6358 330.237L60.7405 330.574L60.4623 330.367L60.1871 330.574L60.2918 330.234L60.0166 330.028H60.3576L60.4623 329.694ZM62.4037 329.694L62.5084 330.031H62.8524L62.5742 330.237L62.6819 330.574L62.4037 330.367L62.1255 330.574L62.2332 330.234L61.955 330.028H62.299L62.4037 329.694Z" fill="white"/>
<path d="M0 17.7833H299.083V126.908C299.083 144.766 284.607 159.242 266.75 159.242H32.3334C14.4762 159.242 0 144.766 0 126.908V17.7833Z" fill="#F5F3ED"/>
<path d="M279.683 46.075C279.683 45.1822 278.96 44.4583 278.067 44.4583C277.174 44.4583 276.45 45.1822 276.45 46.075C276.45 46.9679 277.174 47.6917 278.067 47.6917C278.96 47.6917 279.683 46.9679 279.683 46.075Z" fill="#5B5863"/>
<path d="M279.683 53.35C279.683 52.4572 278.96 51.7333 278.067 51.7333C277.174 51.7333 276.45 52.4572 276.45 53.35C276.45 54.2429 277.174 54.9667 278.067 54.9667C278.96 54.9667 279.683 54.2429 279.683 53.35Z" fill="#5B5863"/>
<path d="M279.683 38.8C279.683 37.9072 278.96 37.1833 278.067 37.1833C277.174 37.1833 276.45 37.9072 276.45 38.8C276.45 39.6929 277.174 40.4167 278.067 40.4167C278.96 40.4167 279.683 39.6929 279.683 38.8Z" fill="#5B5863"/>
<circle cx="149.946" cy="159.646" r="63.4542" fill="#F1EFE8"/>
<circle cx="149.946" cy="159.646" r="63.4542" fill="white"/>
<g filter="url(#filter0_d)">
<path fill-rule="evenodd" clip-rule="evenodd" d="M169.393 203.887L168.358 202.277C167.651 201.177 166.147 200.776 164.996 201.379L165.264 201.238C164.978 201.388 164.841 201.761 164.959 202.071L166.391 205.845C166.618 206.444 167.198 207.29 167.678 207.715C167.678 207.715 170.56 210.144 170.56 211.055V212.208H175.227L176.394 209.831L177.561 212.208H178.728V211.055C178.728 210.144 180.489 207.276 180.489 207.276C180.813 206.718 181.083 205.736 181.083 205.084V200.287C181.062 199.226 180.176 198.365 179.083 198.365C178.536 198.365 178.093 198.795 178.093 199.326V199.711C178.093 198.649 177.207 197.788 176.113 197.788C175.566 197.788 175.123 198.218 175.123 198.75V199.134C175.123 198.072 174.237 197.211 173.144 197.211C172.597 197.211 172.154 197.642 172.154 198.173V198.557C172.154 198.386 172.136 198.251 172.101 198.143L171.799 193.19C171.758 192.52 171.204 192 170.56 192C169.911 192 169.393 192.532 169.393 193.188V203.887ZM177.582 202.698H178.749V207.453H177.582V202.698ZM175.248 202.698H176.415V207.453H175.248V202.698ZM172.915 202.698H174.082V207.453H172.915V202.698Z" fill="white"/>
<path d="M168.698 202.058C167.934 200.87 166.376 200.386 165.084 200.895L165.076 200.88C165.076 200.88 165.076 200.881 165.076 200.881L164.808 201.021L164.83 201.062C164.536 201.356 164.43 201.817 164.581 202.214L166.013 205.989C166.263 206.647 166.88 207.549 167.411 208.018L167.41 208.018L167.418 208.024L167.418 208.024L167.418 208.024L167.418 208.024L167.419 208.026L167.425 208.03L167.448 208.05C167.469 208.068 167.499 208.093 167.538 208.127C167.615 208.194 167.726 208.291 167.859 208.41C168.126 208.649 168.48 208.976 168.833 209.329C169.188 209.685 169.533 210.059 169.787 210.393C169.915 210.561 170.012 210.71 170.076 210.835C170.144 210.967 170.155 211.037 170.155 211.055V212.208V212.612H170.56H175.227H175.479L175.59 212.386L176.394 210.748L177.198 212.386L177.309 212.612H177.561H178.728H179.132V212.208V211.055C179.132 210.918 179.21 210.636 179.377 210.236C179.535 209.855 179.748 209.424 179.966 209.013C180.183 208.604 180.4 208.222 180.563 207.942C180.645 207.802 180.713 207.688 180.76 207.609C180.784 207.569 180.802 207.539 180.815 207.518L180.829 207.495L180.832 207.489L180.833 207.488L180.833 207.487L180.833 207.487L180.834 207.487L180.838 207.479C181.024 207.16 181.184 206.739 181.298 206.321C181.411 205.903 181.487 205.457 181.487 205.084V200.287H181.488L181.487 200.279C181.462 198.991 180.39 197.961 179.083 197.961C178.689 197.961 178.328 198.122 178.073 198.385C177.64 197.778 176.92 197.384 176.113 197.384C175.719 197.384 175.359 197.546 175.103 197.808C174.671 197.201 173.951 196.807 173.144 196.807C172.887 196.807 172.645 196.876 172.436 196.996L172.202 193.165C172.149 192.287 171.423 191.596 170.56 191.596C169.679 191.596 168.988 192.317 168.988 193.188V202.51L168.698 202.058ZM177.987 203.103H178.345V207.049H177.987V203.103ZM175.653 203.103H176.011V207.049H175.653V203.103ZM173.319 203.103H173.677V207.049H173.319V203.103Z" stroke="black" stroke-opacity="0.8" stroke-width="0.808333"/>
</g>
<path d="M150.498 134.816C145.478 134.816 140.57 136.305 136.396 139.094C132.222 141.882 128.969 145.847 127.048 150.484C125.127 155.122 124.624 160.226 125.604 165.149C126.583 170.073 129 174.595 132.55 178.145C136.1 181.695 140.622 184.112 145.546 185.092C150.469 186.071 155.573 185.568 160.211 183.647C164.849 181.726 168.813 178.473 171.602 174.299C174.391 170.125 175.879 165.218 175.879 160.198C175.872 153.468 173.195 147.017 168.437 142.258C163.678 137.5 157.227 134.824 150.498 134.816ZM149.394 144.748C149.394 144.455 149.51 144.175 149.717 143.968C149.924 143.761 150.205 143.644 150.498 143.644C150.79 143.644 151.071 143.761 151.278 143.968C151.485 144.175 151.601 144.455 151.601 144.748V157.99C151.601 158.283 151.485 158.564 151.278 158.771C151.071 158.978 150.79 159.094 150.498 159.094C150.205 159.094 149.924 158.978 149.717 158.771C149.51 158.564 149.394 158.283 149.394 157.99V144.748ZM150.498 174.544C147.592 174.544 144.755 173.661 142.362 172.014C139.969 170.366 138.133 168.031 137.096 165.317C136.06 162.603 135.871 159.638 136.556 156.815C137.242 153.991 138.768 151.442 140.933 149.505C141.041 149.407 141.167 149.331 141.304 149.282C141.441 149.233 141.587 149.211 141.733 149.218C141.878 149.226 142.021 149.262 142.152 149.325C142.284 149.388 142.402 149.476 142.499 149.585C142.596 149.693 142.671 149.82 142.719 149.958C142.767 150.095 142.787 150.241 142.778 150.387C142.77 150.532 142.732 150.674 142.668 150.805C142.604 150.936 142.515 151.053 142.405 151.15C140.57 152.791 139.277 154.952 138.699 157.345C138.12 159.739 138.283 162.251 139.166 164.55C140.049 166.848 141.61 168.824 143.642 170.215C145.674 171.606 148.081 172.345 150.543 172.336C153.005 172.327 155.406 171.57 157.428 170.164C159.45 168.758 160.996 166.771 161.862 164.466C162.728 162.161 162.872 159.647 162.276 157.258C161.68 154.869 160.371 152.718 158.524 151.09C158.411 150.995 158.318 150.879 158.251 150.748C158.184 150.617 158.144 150.474 158.133 150.327C158.122 150.181 158.14 150.033 158.187 149.894C158.234 149.754 158.308 149.626 158.405 149.515C158.503 149.405 158.621 149.315 158.754 149.251C158.886 149.187 159.03 149.15 159.177 149.143C159.324 149.135 159.471 149.157 159.609 149.207C159.748 149.257 159.875 149.335 159.983 149.435C162.169 151.362 163.717 153.909 164.42 156.737C165.123 159.565 164.948 162.541 163.918 165.267C162.888 167.994 161.052 170.342 158.655 171.999C156.257 173.656 153.412 174.544 150.498 174.544Z" fill="#5B5863"/>
<path fill-rule="evenodd" clip-rule="evenodd" d="M204.508 54.1582C204.508 52.8189 203.423 51.7332 202.083 51.7332H98.6167C97.2774 51.7332 96.1917 52.8189 96.1917 54.1582V78.4082C96.1917 79.7475 97.2774 80.8332 98.6166 80.8332H144.634C144.655 80.8332 144.666 80.8588 144.651 80.8738C144.642 80.8831 144.642 80.8981 144.651 80.9074L148.635 84.8916C149.582 85.8387 151.118 85.8387 152.065 84.8916L156.049 80.9074C156.058 80.8981 156.058 80.8831 156.049 80.8738C156.034 80.8588 156.045 80.8332 156.066 80.8332H202.083C203.423 80.8332 204.508 79.7475 204.508 78.4082V54.1582Z" fill="white"/>
<path d="M110.486 69.5794C109.403 69.5794 108.545 69.2054 107.911 68.4576C107.281 67.7098 106.966 66.6931 106.966 65.4074C106.966 64.1218 107.281 63.1051 107.911 62.3572C108.541 61.6057 109.397 61.23 110.48 61.23C111.32 61.23 112.039 61.4694 112.635 61.9483C113.232 62.4272 113.59 63.0516 113.707 63.8216H112.696C112.564 63.3058 112.298 62.8988 111.9 62.6004C111.503 62.2983 111.029 62.1473 110.48 62.1473C109.714 62.1473 109.106 62.4401 108.657 63.0259C108.211 63.6116 107.988 64.4054 107.988 65.4074C107.988 66.4094 108.213 67.2033 108.662 67.789C109.112 68.3711 109.72 68.6621 110.486 68.6621C111.042 68.6621 111.517 68.5295 111.912 68.2642C112.309 67.9953 112.571 67.6306 112.696 67.1701H113.707C113.575 67.9032 113.216 68.4889 112.63 68.9273C112.048 69.362 111.333 69.5794 110.486 69.5794ZM115.31 69.3915V61.0698H116.26V69.3915H115.31ZM118.128 69.3915V63.4348H119.078V69.3915H118.128ZM119.073 62.0312C118.944 62.1602 118.787 62.2246 118.603 62.2246C118.419 62.2246 118.262 62.1602 118.133 62.0312C118.005 61.8986 117.94 61.742 117.94 61.5615C117.94 61.381 118.005 61.2263 118.133 61.0974C118.262 60.9648 118.419 60.8985 118.603 60.8985C118.787 60.8985 118.944 60.9648 119.073 61.0974C119.202 61.2263 119.266 61.381 119.266 61.5615C119.266 61.742 119.202 61.8986 119.073 62.0312ZM125.82 65.2582H124.858C124.777 64.9451 124.602 64.6891 124.333 64.4902C124.068 64.2876 123.731 64.1863 123.322 64.1863C122.788 64.1863 122.363 64.3852 122.046 64.783C121.733 65.1809 121.576 65.7169 121.576 66.391C121.576 67.0762 121.734 67.6233 122.051 68.0322C122.368 68.4374 122.792 68.64 123.322 68.64C123.724 68.64 124.057 68.5497 124.322 68.3692C124.591 68.1887 124.77 67.9308 124.858 67.5956H125.82C125.731 68.1592 125.468 68.6179 125.03 68.9715C124.591 69.3215 124.024 69.4965 123.328 69.4965C122.491 69.4965 121.827 69.2165 121.333 68.6566C120.839 68.0929 120.592 67.3378 120.592 66.391C120.592 65.4627 120.839 64.7204 121.333 64.1642C121.827 63.6079 122.49 63.3298 123.322 63.3298C124.018 63.3298 124.586 63.5121 125.024 63.8768C125.466 64.2415 125.731 64.702 125.82 65.2582ZM128.317 66.0374L130.903 63.4348H132.069L129.505 65.9876L132.241 69.3915H131.031L128.798 66.601L128.229 67.1315V69.3915H127.279V61.0698H128.229V66.0374H128.317ZM136.96 61.8931H137.91V63.4348H139.236V64.2305H137.91V67.6011C137.91 67.9511 137.98 68.2053 138.12 68.3637C138.26 68.5221 138.485 68.6013 138.794 68.6013C138.93 68.6013 139.078 68.5939 139.236 68.5792V69.3804C139.026 69.4173 138.84 69.4357 138.678 69.4357C138.063 69.4357 137.623 69.3123 137.357 69.0655C137.092 68.8186 136.96 68.4116 136.96 67.8443V64.2305H135.998V63.4348H136.96V61.8931ZM141.728 68.0598C142.034 68.4466 142.469 68.64 143.032 68.64C143.596 68.64 144.031 68.4466 144.336 68.0598C144.642 67.6693 144.795 67.1204 144.795 66.4131C144.795 65.7058 144.642 65.1588 144.336 64.772C144.031 64.3815 143.596 64.1863 143.032 64.1863C142.469 64.1863 142.034 64.3815 141.728 64.772C141.423 65.1588 141.27 65.7058 141.27 66.4131C141.27 67.1204 141.423 67.6693 141.728 68.0598ZM145.038 68.6731C144.548 69.222 143.88 69.4965 143.032 69.4965C142.185 69.4965 141.515 69.222 141.021 68.6731C140.531 68.1206 140.286 67.3672 140.286 66.4131C140.286 65.4553 140.531 64.702 141.021 64.1531C141.511 63.6042 142.181 63.3298 143.032 63.3298C143.883 63.3298 144.554 63.6042 145.044 64.1531C145.534 64.702 145.779 65.4553 145.779 66.4131C145.779 67.3672 145.532 68.1206 145.038 68.6731ZM155.393 65.2582H154.432C154.351 64.9451 154.176 64.6891 153.907 64.4902C153.642 64.2876 153.305 64.1863 152.896 64.1863C152.362 64.1863 151.936 64.3852 151.619 64.783C151.306 65.1809 151.15 65.7169 151.15 66.391C151.15 67.0762 151.308 67.6233 151.625 68.0322C151.942 68.4374 152.365 68.64 152.896 68.64C153.297 68.64 153.631 68.5497 153.896 68.3692C154.165 68.1887 154.344 67.9308 154.432 67.5956H155.393C155.305 68.1592 155.042 68.6179 154.603 68.9715C154.165 69.3215 153.598 69.4965 152.901 69.4965C152.065 69.4965 151.4 69.2165 150.907 68.6566C150.413 68.0929 150.166 67.3378 150.166 66.391C150.166 65.4627 150.413 64.7204 150.907 64.1642C151.4 63.6079 152.063 63.3298 152.896 63.3298C153.592 63.3298 154.159 63.5121 154.598 63.8768C155.04 64.2415 155.305 64.702 155.393 65.2582ZM157.941 68.0598C158.247 68.4466 158.681 68.64 159.245 68.64C159.808 68.64 160.243 68.4466 160.549 68.0598C160.855 67.6693 161.008 67.1204 161.008 66.4131C161.008 65.7058 160.855 65.1588 160.549 64.772C160.243 64.3815 159.808 64.1863 159.245 64.1863C158.681 64.1863 158.247 64.3815 157.941 64.772C157.635 65.1588 157.482 65.7058 157.482 66.4131C157.482 67.1204 157.635 67.6693 157.941 68.0598ZM161.251 68.6731C160.761 69.222 160.092 69.4965 159.245 69.4965C158.398 69.4965 157.727 69.222 157.233 68.6731C156.744 68.1206 156.499 67.3672 156.499 66.4131C156.499 65.4553 156.744 64.702 157.233 64.1531C157.723 63.6042 158.394 63.3298 159.245 63.3298C160.096 63.3298 160.766 63.6042 161.256 64.1531C161.746 64.702 161.991 65.4553 161.991 66.4131C161.991 67.3672 161.744 68.1206 161.251 68.6731ZM163.483 69.3915V63.4348H164.389V64.3741H164.478C164.794 63.6779 165.391 63.3298 166.268 63.3298C166.935 63.3298 167.449 63.5213 167.81 63.9044C168.171 64.2839 168.351 64.8272 168.351 65.5345V69.3915H167.401V65.7666C167.401 65.2325 167.285 64.8364 167.053 64.5786C166.824 64.317 166.472 64.1863 165.997 64.1863C165.518 64.1863 165.137 64.3373 164.853 64.6394C164.573 64.9378 164.433 65.3467 164.433 65.8661V69.3915H163.483ZM170.092 69.3915V63.4348H170.998V64.3741H171.086C171.403 63.6779 172 63.3298 172.877 63.3298C173.544 63.3298 174.057 63.5213 174.418 63.9044C174.779 64.2839 174.96 64.8272 174.96 65.5345V69.3915H174.01V65.7666C174.01 65.2325 173.893 64.8364 173.661 64.5786C173.433 64.317 173.081 64.1863 172.606 64.1863C172.127 64.1863 171.746 64.3373 171.462 64.6394C171.182 64.9378 171.042 65.3467 171.042 65.8661V69.3915H170.092ZM179.077 64.1697C178.601 64.1697 178.211 64.3299 177.905 64.6504C177.599 64.9709 177.428 65.3945 177.391 65.9213H180.674C180.662 65.3945 180.511 64.9709 180.22 64.6504C179.929 64.3299 179.548 64.1697 179.077 64.1697ZM180.646 67.8498H181.596C181.453 68.3655 181.16 68.7689 180.718 69.0599C180.279 69.351 179.736 69.4965 179.088 69.4965C178.262 69.4965 177.609 69.2202 177.126 68.6676C176.643 68.1114 176.402 67.3617 176.402 66.4186C176.402 65.4793 176.645 64.7296 177.132 64.1697C177.618 63.6097 178.27 63.3298 179.088 63.3298C179.891 63.3298 180.523 63.5968 180.983 64.131C181.443 64.6652 181.674 65.3964 181.674 66.3247V66.6894H177.391V66.7336C177.417 67.323 177.583 67.7909 177.889 68.1371C178.198 68.4834 178.605 68.6566 179.11 68.6566C179.88 68.6566 180.392 68.3876 180.646 67.8498ZM188.095 65.2582H187.133C187.052 64.9451 186.877 64.6891 186.608 64.4902C186.343 64.2876 186.006 64.1863 185.597 64.1863C185.063 64.1863 184.637 64.3852 184.321 64.783C184.007 65.1809 183.851 65.7169 183.851 66.391C183.851 67.0762 184.009 67.6233 184.326 68.0322C184.643 68.4374 185.066 68.64 185.597 68.64C185.998 68.64 186.332 68.5497 186.597 68.3692C186.866 68.1887 187.045 67.9308 187.133 67.5956H188.095C188.006 68.1592 187.743 68.6179 187.304 68.9715C186.866 69.3215 186.299 69.4965 185.602 69.4965C184.766 69.4965 184.101 69.2165 183.608 68.6566C183.114 68.0929 182.867 67.3378 182.867 66.391C182.867 65.4627 183.114 64.7204 183.608 64.1642C184.101 63.6079 184.764 63.3298 185.597 63.3298C186.293 63.3298 186.861 63.5121 187.299 63.8768C187.741 64.2415 188.006 64.702 188.095 65.2582ZM190.006 61.8931H190.957V63.4348H192.283V64.2305H190.957V67.6011C190.957 67.9511 191.027 68.2053 191.167 68.3637C191.307 68.5221 191.532 68.6013 191.841 68.6013C191.977 68.6013 192.125 68.5939 192.283 68.5792V69.3804C192.073 69.4173 191.887 69.4357 191.725 69.4357C191.11 69.4357 190.67 69.3123 190.404 69.0655C190.139 68.8186 190.006 68.4116 190.006 67.8443V64.2305H189.045V63.4348H190.006V61.8931Z" fill="#5B5863"/>
<g filter="url(#filter1_ii)">
<path d="M0 4.04167C0 1.80952 1.80952 0 4.04167 0H295.042C297.274 0 299.083 1.80952 299.083 4.04167V17.7833H0V4.04167Z" fill="url(#paint0_linear)"/>
</g>
<path d="M136.486 6.18292L134.9 11.6167H133.813L131.817 4.2126H133.012L134.372 9.88238H134.444L135.988 4.2126H137.055L138.61 9.88238H138.682L140.037 4.2126H141.232L139.231 11.6167H138.148L136.558 6.18292H136.486ZM144.971 7.2553C144.725 6.99191 144.398 6.86021 143.991 6.86021C143.584 6.86021 143.249 6.99191 142.986 7.2553C142.722 7.51869 142.575 7.86931 142.544 8.30716H145.366C145.353 7.86589 145.221 7.51527 144.971 7.2553ZM145.361 10.1081H146.423C146.297 10.611 146.02 11.0061 145.592 11.2934C145.168 11.5808 144.638 11.7244 144.002 11.7244C143.201 11.7244 142.57 11.4679 142.108 10.9548C141.65 10.4382 141.421 9.73358 141.421 8.84079C141.421 7.94799 141.653 7.2382 142.118 6.71141C142.584 6.18463 143.21 5.92123 143.996 5.92123C144.773 5.92123 145.382 6.17094 145.823 6.67036C146.268 7.16978 146.49 7.85905 146.49 8.73817V9.12299H142.544V9.18456C142.561 9.67714 142.703 10.0671 142.97 10.3544C143.237 10.6418 143.591 10.7854 144.032 10.7854C144.706 10.7854 145.149 10.5597 145.361 10.1081ZM150.486 11.6167H149.224L146.576 4.2126H147.828L149.824 10.18H149.911L151.897 4.2126H153.118L150.486 11.6167ZM154.169 4.2126H157.068C157.793 4.2126 158.381 4.44179 158.833 4.90016C159.284 5.35511 159.51 5.9486 159.51 6.68063C159.51 7.40239 159.279 7.99075 158.817 8.4457C158.355 8.89723 157.76 9.12299 157.032 9.12299H155.318V11.6167H154.169V4.2126ZM155.318 5.22855V8.11218H156.765C157.261 8.11218 157.646 7.98904 157.919 7.74275C158.196 7.49304 158.335 7.139 158.335 6.68063C158.335 6.21199 158.2 5.85282 157.93 5.60311C157.659 5.3534 157.271 5.22855 156.765 5.22855H155.318ZM161.869 11.6167H160.75V4.2126H161.787L165.589 9.4719H165.671V4.2126H166.789V11.6167H165.753L161.951 6.35737H161.869V11.6167Z" fill="#423F42"/>
<path d="M15.9646 8.89166C15.9646 11.4586 13.8836 13.5396 11.3167 13.5396C8.7497 13.5396 6.66876 11.4586 6.66876 8.89166C6.66876 6.32468 8.7497 4.24374 11.3167 4.24374C13.8836 4.24374 15.9646 6.32468 15.9646 8.89166Z" fill="#FF5F58" stroke="#E1483F" stroke-width="0.404167"/>
<path d="M32.1312 8.89156C32.1312 11.4585 30.0503 13.5395 27.4833 13.5395C24.9163 13.5395 22.8354 11.4585 22.8354 8.89156C22.8354 6.32459 24.9163 4.24365 27.4833 4.24365C30.0503 4.24365 32.1312 6.32459 32.1312 8.89156Z" fill="#FFBE2F" stroke="#E0A028" stroke-width="0.404167"/>
<path d="M48.2979 8.89156C48.2979 11.4585 46.217 13.5395 43.65 13.5395C41.083 13.5395 39.0021 11.4585 39.0021 8.89156C39.0021 6.32459 41.083 4.24365 43.65 4.24365C46.217 4.24365 48.2979 6.32459 48.2979 8.89156Z" fill="#D9D9D9" stroke="#969696" stroke-width="0.404167"/>
</g>
<defs>
<filter id="filter0_d" x="161.684" y="189.575" width="22.633" height="26.675" filterUnits="userSpaceOnUse" color-interpolation-filters="sRGB">
<feFlood flood-opacity="0" result="BackgroundImageFix"/>
<feColorMatrix in="SourceAlpha" type="matrix" values="0 0 0 0 0 0 0 0 0 0 0 0 0 0 0 0 0 0 127 0"/>
<feOffset dy="0.808333"/>
<feGaussianBlur stdDeviation="1.2125"/>
<feColorMatrix type="matrix" values="0 0 0 0 0 0 0 0 0 0 0 0 0 0 0 0 0 0 0.2 0"/>
<feBlend mode="normal" in2="BackgroundImageFix" result="effect1_dropShadow"/>
<feBlend mode="normal" in="SourceGraphic" in2="effect1_dropShadow" result="shape"/>
</filter>
<filter id="filter1_ii" x="0" y="-0.404167" width="299.083" height="18.5917" filterUnits="userSpaceOnUse" color-interpolation-filters="sRGB">
<feFlood flood-opacity="0" result="BackgroundImageFix"/>
<feBlend mode="normal" in="SourceGraphic" in2="BackgroundImageFix" result="shape"/>
<feColorMatrix in="SourceAlpha" type="matrix" values="0 0 0 0 0 0 0 0 0 0 0 0 0 0 0 0 0 0 127 0" result="hardAlpha"/>
<feOffset dy="-0.404167"/>
<feGaussianBlur stdDeviation="0.202083"/>
<feComposite in2="hardAlpha" operator="arithmetic" k2="-1" k3="1"/>
<feColorMatrix type="matrix" values="0 0 0 0 0 0 0 0 0 0 0 0 0 0 0 0 0 0 0.2 0"/>
<feBlend mode="normal" in2="shape" result="effect1_innerShadow"/>
<feColorMatrix in="SourceAlpha" type="matrix" values="0 0 0 0 0 0 0 0 0 0 0 0 0 0 0 0 0 0 127 0" result="hardAlpha"/>
<feOffset dy="0.404167"/>
<feGaussianBlur stdDeviation="0.202083"/>
<feComposite in2="hardAlpha" operator="arithmetic" k2="-1" k3="1"/>
<feColorMatrix type="matrix" values="0 0 0 0 1 0 0 0 0 1 0 0 0 0 1 0 0 0 0.6 0"/>
<feBlend mode="normal" in2="effect1_innerShadow" result="effect2_innerShadow"/>
</filter>
<linearGradient id="paint0_linear" x1="0" y1="0" x2="0" y2="17.7833" gradientUnits="userSpaceOnUse">
<stop stop-color="#E7E6E7"/>
<stop offset="1" stop-color="#D1D0D1"/>
</linearGradient>
</defs>
</svg>
