<svg width="300" height="485" viewBox="0 0 300 485" fill="none" xmlns="http://www.w3.org/2000/svg">
<mask id="mask0" mask-type="alpha" maskUnits="userSpaceOnUse" x="0" y="0" width="300" height="485">
<rect width="299.083" height="485" rx="8.08333" fill="#F9F8F4"/>
</mask>
<g mask="url(#mask0)">
<rect y="29.1" width="299.083" height="455.9" fill="#F9F8F4"/>
<rect x="32.3333" y="286.15" width="234.417" height="72.75" rx="4.04167" fill="white"/>
<path d="M235.644 329.655L241.021 323.383C241.28 323.08 241.28 322.633 241.021 322.331L235.644 316.058L234.417 317.111L239.343 322.857L234.417 328.603L235.644 329.655Z" fill="#AFADB2"/>
<path d="M52.3687 311.042H53.3744C53.4371 311.458 53.6526 311.79 54.0209 312.037C54.3893 312.283 54.8572 312.407 55.4245 312.407C55.9623 312.407 56.4062 312.278 56.7562 312.02C57.1098 311.758 57.2866 311.431 57.2866 311.036C57.2866 310.697 57.1577 310.417 56.8998 310.196C56.642 309.972 56.2386 309.789 55.6897 309.649L54.6674 309.384C53.9454 309.204 53.4205 308.942 53.0926 308.6C52.7648 308.257 52.6008 307.802 52.6008 307.235C52.6008 306.557 52.8587 306.01 53.3744 305.594C53.8938 305.174 54.5754 304.964 55.4189 304.964C56.1889 304.964 56.8335 305.17 57.3529 305.582C57.8724 305.995 58.1523 306.524 58.1929 307.168H57.1927C57.1227 306.759 56.9275 306.441 56.607 306.212C56.2902 305.98 55.8831 305.864 55.3858 305.864C54.8553 305.864 54.428 305.988 54.1038 306.235C53.7833 306.478 53.6231 306.8 53.6231 307.202C53.6231 307.515 53.741 307.769 53.9767 307.964C54.2162 308.159 54.6103 308.327 55.1592 308.467L55.9936 308.688C56.8188 308.894 57.41 309.171 57.7674 309.517C58.1284 309.863 58.3089 310.329 58.3089 310.915C58.3089 311.648 58.04 312.232 57.5021 312.666C56.9643 313.097 56.2404 313.313 55.3305 313.313C54.4869 313.313 53.7944 313.107 53.2529 312.694C52.715 312.281 52.4203 311.731 52.3687 311.042ZM62.2211 307.903C61.7459 307.903 61.3554 308.064 61.0496 308.384C60.7439 308.705 60.5726 309.128 60.5358 309.655H63.818C63.807 309.128 63.6559 308.705 63.3649 308.384C63.0739 308.064 62.6926 307.903 62.2211 307.903ZM63.7904 311.583H64.7408C64.5972 312.099 64.3043 312.503 63.8622 312.794C63.4239 313.085 62.8805 313.23 62.2322 313.23C61.407 313.23 60.7531 312.954 60.2705 312.401C59.7879 311.845 59.5467 311.095 59.5467 310.152C59.5467 309.213 59.7898 308.463 60.276 307.903C60.7623 307.343 61.4143 307.063 62.2322 307.063C63.0352 307.063 63.667 307.33 64.1275 307.865C64.5879 308.399 64.8182 309.13 64.8182 310.058V310.423H60.5358V310.467C60.5615 311.057 60.7273 311.524 61.0331 311.871C61.3425 312.217 61.7496 312.39 62.2543 312.39C63.0242 312.39 63.5362 312.121 63.7904 311.583ZM66.3654 313.125V304.803H67.3158V313.125H66.3654ZM71.5375 307.903C71.0622 307.903 70.6718 308.064 70.366 308.384C70.0602 308.705 69.889 309.128 69.8521 309.655H73.1344C73.1233 309.128 72.9723 308.705 72.6813 308.384C72.3903 308.064 72.009 307.903 71.5375 307.903ZM73.1068 311.583H74.0572C73.9135 312.099 73.6207 312.503 73.1786 312.794C72.7402 313.085 72.1969 313.23 71.5485 313.23C70.7233 313.23 70.0695 312.954 69.5869 312.401C69.1043 311.845 68.863 311.095 68.863 310.152C68.863 309.213 69.1061 308.463 69.5924 307.903C70.0787 307.343 70.7307 307.063 71.5485 307.063C72.3516 307.063 72.9834 307.33 73.4438 307.865C73.9043 308.399 74.1345 309.13 74.1345 310.058V310.423H69.8521V310.467C69.8779 311.057 70.0437 311.524 70.3494 311.871C70.6589 312.217 71.0659 312.39 71.5706 312.39C72.3405 312.39 72.8526 312.121 73.1068 311.583ZM80.5554 308.992H79.594C79.5129 308.679 79.3379 308.423 79.069 308.224C78.8038 308.021 78.4667 307.92 78.0578 307.92C77.5236 307.92 77.0982 308.119 76.7814 308.517C76.4682 308.914 76.3117 309.45 76.3117 310.125C76.3117 310.81 76.4701 311.357 76.7869 311.766C77.1037 312.171 77.5273 312.374 78.0578 312.374C78.4593 312.374 78.7927 312.283 79.058 312.103C79.3269 311.922 79.5055 311.664 79.594 311.329H80.5554C80.467 311.893 80.2036 312.351 79.7652 312.705C79.3269 313.055 78.7596 313.23 78.0633 313.23C77.2271 313.23 76.5622 312.95 76.0685 312.39C75.5749 311.827 75.3281 311.071 75.3281 310.125C75.3281 309.196 75.5749 308.454 76.0685 307.898C76.5622 307.342 77.2253 307.063 78.0578 307.063C78.754 307.063 79.3213 307.246 79.7597 307.61C80.2018 307.975 80.467 308.436 80.5554 308.992ZM82.4673 305.627H83.4177V307.168H84.7439V307.964H83.4177V311.335C83.4177 311.685 83.4877 311.939 83.6277 312.097C83.7677 312.256 83.9924 312.335 84.3019 312.335C84.4382 312.335 84.5855 312.328 84.7439 312.313V313.114C84.5339 313.151 84.3479 313.169 84.1858 313.169C83.5706 313.169 83.1304 313.046 82.8652 312.799C82.5999 312.552 82.4673 312.145 82.4673 311.578V307.964H81.5058V307.168H82.4673V305.627ZM88.4683 307.903C87.993 307.903 87.6026 308.064 87.2968 308.384C86.991 308.705 86.8197 309.128 86.7829 309.655H90.0652C90.0541 309.128 89.9031 308.705 89.6121 308.384C89.3211 308.064 88.9398 307.903 88.4683 307.903ZM90.0376 311.583H90.988C90.8443 312.099 90.5514 312.503 90.1094 312.794C89.671 313.085 89.1277 313.23 88.4793 313.23C87.6541 313.23 87.0003 312.954 86.5177 312.401C86.0351 311.845 85.7938 311.095 85.7938 310.152C85.7938 309.213 86.0369 308.463 86.5232 307.903C87.0095 307.343 87.6615 307.063 88.4793 307.063C89.2824 307.063 89.9141 307.33 90.3746 307.865C90.8351 308.399 91.0653 309.13 91.0653 310.058V310.423H86.7829V310.467C86.8087 311.057 86.9745 311.524 87.2802 311.871C87.5897 312.217 87.9967 312.39 88.5014 312.39C89.2713 312.39 89.7834 312.121 90.0376 311.583ZM94.762 313.23C93.9995 313.23 93.3917 312.95 92.9386 312.39C92.4854 311.83 92.2589 311.082 92.2589 310.147C92.2589 309.215 92.4854 308.469 92.9386 307.909C93.3953 307.345 94.0032 307.063 94.762 307.063C95.1783 307.063 95.5504 307.157 95.8782 307.345C96.2098 307.529 96.4603 307.784 96.6297 308.108H96.7126V304.803H97.663V313.125H96.7568V312.175H96.6684C96.4805 312.506 96.219 312.766 95.8838 312.954C95.5485 313.138 95.1746 313.23 94.762 313.23ZM94.9831 307.92C94.4416 307.92 94.0161 308.119 93.7066 308.517C93.3972 308.911 93.2425 309.454 93.2425 310.147C93.2425 310.843 93.3953 311.388 93.7011 311.782C94.0105 312.177 94.4379 312.374 94.9831 312.374C95.5246 312.374 95.9519 312.175 96.265 311.777C96.5782 311.379 96.7347 310.836 96.7347 310.147C96.7347 309.465 96.5763 308.924 96.2595 308.522C95.9464 308.121 95.5209 307.92 94.9831 307.92ZM107.665 312.23V313.125H102.824V305.151H103.819V312.23H107.665ZM110.002 311.793C110.308 312.18 110.742 312.374 111.306 312.374C111.87 312.374 112.304 312.18 112.61 311.793C112.916 311.403 113.069 310.854 113.069 310.147C113.069 309.439 112.916 308.892 112.61 308.506C112.304 308.115 111.87 307.92 111.306 307.92C110.742 307.92 110.308 308.115 110.002 308.506C109.696 308.892 109.543 309.439 109.543 310.147C109.543 310.854 109.696 311.403 110.002 311.793ZM113.312 312.407C112.822 312.956 112.153 313.23 111.306 313.23C110.459 313.23 109.788 312.956 109.295 312.407C108.805 311.854 108.56 311.101 108.56 310.147C108.56 309.189 108.805 308.436 109.295 307.887C109.785 307.338 110.455 307.063 111.306 307.063C112.157 307.063 112.827 307.338 113.317 307.887C113.807 308.436 114.052 309.189 114.052 310.147C114.052 311.101 113.806 311.854 113.312 312.407ZM120.473 308.992H119.512C119.431 308.679 119.256 308.423 118.987 308.224C118.722 308.021 118.384 307.92 117.976 307.92C117.441 307.92 117.016 308.119 116.699 308.517C116.386 308.914 116.229 309.45 116.229 310.125C116.229 310.81 116.388 311.357 116.705 311.766C117.021 312.171 117.445 312.374 117.976 312.374C118.377 312.374 118.71 312.283 118.976 312.103C119.245 311.922 119.423 311.664 119.512 311.329H120.473C120.385 311.893 120.121 312.351 119.683 312.705C119.245 313.055 118.677 313.23 117.981 313.23C117.145 313.23 116.48 312.95 115.986 312.39C115.493 311.827 115.246 311.071 115.246 310.125C115.246 309.196 115.493 308.454 115.986 307.898C116.48 307.342 117.143 307.063 117.976 307.063C118.672 307.063 119.239 307.246 119.677 307.61C120.12 307.975 120.385 308.436 120.473 308.992ZM123.711 312.396C124.201 312.396 124.606 312.254 124.927 311.97C125.251 311.687 125.413 311.331 125.413 310.904V310.357L123.811 310.462C123.361 310.491 123.032 310.585 122.822 310.744C122.612 310.902 122.507 311.132 122.507 311.434C122.507 311.733 122.619 311.968 122.844 312.142C123.068 312.311 123.358 312.396 123.711 312.396ZM123.534 313.23C122.949 313.23 122.466 313.07 122.087 312.749C121.711 312.425 121.523 311.994 121.523 311.456C121.523 310.926 121.711 310.51 122.087 310.208C122.462 309.905 122.998 309.734 123.695 309.694L125.413 309.589V309.047C125.413 308.679 125.299 308.397 125.071 308.202C124.842 308.006 124.507 307.909 124.065 307.909C123.708 307.909 123.411 307.973 123.175 308.102C122.94 308.231 122.788 308.413 122.722 308.649H121.761C121.823 308.174 122.068 307.791 122.496 307.5C122.927 307.209 123.461 307.063 124.098 307.063C124.82 307.063 125.378 307.238 125.772 307.588C126.167 307.938 126.364 308.425 126.364 309.047V313.125H125.457V312.247H125.369C125.177 312.563 124.923 312.806 124.606 312.976C124.29 313.145 123.932 313.23 123.534 313.23ZM128.519 305.627H129.469V307.168H130.795V307.964H129.469V311.335C129.469 311.685 129.539 311.939 129.679 312.097C129.819 312.256 130.044 312.335 130.353 312.335C130.489 312.335 130.637 312.328 130.795 312.313V313.114C130.585 313.151 130.399 313.169 130.237 313.169C129.622 313.169 129.182 313.046 128.916 312.799C128.651 312.552 128.519 312.145 128.519 311.578V307.964H127.557V307.168H128.519V305.627ZM132.254 313.125V307.168H133.204V313.125H132.254ZM133.199 305.765C133.07 305.894 132.913 305.958 132.729 305.958C132.545 305.958 132.388 305.894 132.26 305.765C132.131 305.632 132.066 305.476 132.066 305.295C132.066 305.115 132.131 304.96 132.26 304.831C132.388 304.698 132.545 304.632 132.729 304.632C132.913 304.632 133.07 304.698 133.199 304.831C133.328 304.96 133.392 305.115 133.392 305.295C133.392 305.476 133.328 305.632 133.199 305.765ZM136.161 311.793C136.466 312.18 136.901 312.374 137.465 312.374C138.028 312.374 138.463 312.18 138.769 311.793C139.075 311.403 139.227 310.854 139.227 310.147C139.227 309.439 139.075 308.892 138.769 308.506C138.463 308.115 138.028 307.92 137.465 307.92C136.901 307.92 136.466 308.115 136.161 308.506C135.855 308.892 135.702 309.439 135.702 310.147C135.702 310.854 135.855 311.403 136.161 311.793ZM139.471 312.407C138.981 312.956 138.312 313.23 137.465 313.23C136.618 313.23 135.947 312.956 135.453 312.407C134.963 311.854 134.718 311.101 134.718 310.147C134.718 309.189 134.963 308.436 135.453 307.887C135.943 307.338 136.614 307.063 137.465 307.063C138.316 307.063 138.986 307.338 139.476 307.887C139.966 308.436 140.211 309.189 140.211 310.147C140.211 311.101 139.964 311.854 139.471 312.407ZM141.703 313.125V307.168H142.609V308.108H142.698C143.014 307.412 143.611 307.063 144.488 307.063C145.155 307.063 145.669 307.255 146.03 307.638C146.391 308.017 146.571 308.561 146.571 309.268V313.125H145.621V309.5C145.621 308.966 145.505 308.57 145.273 308.312C145.044 308.051 144.692 307.92 144.217 307.92C143.738 307.92 143.357 308.071 143.073 308.373C142.793 308.671 142.653 309.08 142.653 309.6V313.125H141.703ZM149.096 313.18C148.901 313.18 148.732 313.11 148.588 312.97C148.448 312.827 148.378 312.657 148.378 312.462C148.378 312.263 148.448 312.094 148.588 311.954C148.732 311.814 148.901 311.744 149.096 311.744C149.295 311.744 149.465 311.814 149.605 311.954C149.745 312.094 149.815 312.263 149.815 312.462C149.815 312.657 149.745 312.827 149.605 312.97C149.465 313.11 149.295 313.18 149.096 313.18ZM149.096 308.931C148.901 308.931 148.732 308.861 148.588 308.721C148.448 308.577 148.378 308.408 148.378 308.213C148.378 308.014 148.448 307.844 148.588 307.704C148.732 307.564 148.901 307.494 149.096 307.494C149.295 307.494 149.465 307.564 149.605 307.704C149.745 307.844 149.815 308.014 149.815 308.213C149.815 308.408 149.745 308.577 149.605 308.721C149.465 308.861 149.295 308.931 149.096 308.931Z" fill="#AFADB2"/>
<path d="M85.5689 325.698V332.249C85.5689 332.954 85.7797 333.518 86.2012 333.94C86.6227 334.356 87.2077 334.565 87.956 334.565C88.7043 334.565 89.2869 334.356 89.7037 333.94C90.1252 333.518 90.336 332.954 90.336 332.249V325.698H92.169V332.419C92.169 333.551 91.7877 334.465 91.0251 335.161C90.2626 335.858 89.2395 336.206 87.956 336.206C86.6724 336.206 85.6494 335.858 84.8869 335.161C84.1243 334.465 83.743 333.551 83.743 332.419V325.698H85.5689ZM94.2577 333.165H96.048C96.1048 333.625 96.344 333.992 96.7656 334.266C97.1871 334.536 97.7223 334.671 98.3712 334.671C98.9774 334.671 99.4747 334.534 99.8631 334.259C100.256 333.98 100.453 333.625 100.453 333.194C100.453 332.824 100.304 332.523 100.005 332.291C99.7116 332.059 99.2356 331.867 98.5772 331.716L97.2487 331.41C96.3203 331.202 95.6312 330.863 95.1813 330.394C94.736 329.921 94.5134 329.303 94.5134 328.54C94.5134 327.607 94.8616 326.859 95.5578 326.295C96.2588 325.727 97.1824 325.443 98.3286 325.443C99.4037 325.443 100.294 325.722 101 326.281C101.706 326.84 102.08 327.56 102.122 328.441H100.368C100.306 327.991 100.09 327.633 99.721 327.368C99.3516 327.103 98.8851 326.97 98.3214 326.97C97.7294 326.97 97.2534 327.103 96.8934 327.368C96.5382 327.628 96.3606 327.976 96.3606 328.412C96.3606 328.758 96.5003 329.04 96.7798 329.258C97.0592 329.471 97.5163 329.651 98.1509 329.798L99.3303 330.068C100.368 330.3 101.118 330.645 101.582 331.105C102.051 331.564 102.286 332.185 102.286 332.966C102.286 333.966 101.923 334.757 101.199 335.339C100.479 335.917 99.4984 336.206 98.2575 336.206C97.0829 336.206 96.1333 335.931 95.4086 335.382C94.6887 334.832 94.305 334.093 94.2577 333.165ZM110.96 335.95L110.094 333.329H106.321L105.44 335.95H103.586L107.223 325.698H109.284L112.928 335.95H110.96ZM108.154 327.652L106.747 331.879H109.667L108.275 327.652H108.154ZM123.13 332.646H118.463V330.991H123.13V332.646ZM131.208 335.95H129.439V325.698H131.031L136.061 332.668H136.181V325.698H137.943V335.95H136.359L131.329 328.973H131.208V335.95ZM143.556 329.421C143.03 329.421 142.597 329.594 142.256 329.94C141.915 330.285 141.725 330.742 141.687 331.311H145.346C145.327 330.733 145.157 330.274 144.835 329.933C144.512 329.592 144.086 329.421 143.556 329.421ZM145.36 333.812H147.03C146.864 334.522 146.473 335.083 145.858 335.495C145.247 335.903 144.486 336.106 143.577 336.106C142.436 336.106 141.538 335.751 140.884 335.041C140.236 334.326 139.911 333.343 139.911 332.092C139.911 330.842 140.238 329.852 140.892 329.123C141.545 328.389 142.436 328.021 143.563 328.021C144.671 328.021 145.538 328.37 146.163 329.066C146.793 329.757 147.108 330.716 147.108 331.943V332.512H141.68V332.604C141.704 333.253 141.889 333.767 142.234 334.146C142.585 334.52 143.049 334.707 143.627 334.707C144.517 334.707 145.095 334.408 145.36 333.812ZM159.186 328.178L157.083 335.95H155.228L153.715 330.352H153.594L152.088 335.95H150.255L148.152 328.178H149.928L151.221 333.982H151.342L152.834 328.178H154.518L156.024 333.982H156.145L157.431 328.178H159.186ZM169.459 335.95H167.626V331.943L164.031 325.698H166.041L168.485 330.082H168.606L171.043 325.698H173.054L169.459 331.943V335.95ZM175.242 333.961C175.578 334.406 176.054 334.629 176.67 334.629C177.286 334.629 177.759 334.406 178.091 333.961C178.427 333.511 178.595 332.879 178.595 332.064C178.595 331.254 178.427 330.624 178.091 330.174C177.754 329.724 177.281 329.499 176.67 329.499C176.054 329.499 175.578 329.724 175.242 330.174C174.906 330.624 174.737 331.254 174.737 332.064C174.737 332.879 174.906 333.511 175.242 333.961ZM176.67 336.106C175.505 336.106 174.591 335.749 173.927 335.034C173.264 334.314 172.933 333.324 172.933 332.064C172.933 330.814 173.267 329.828 173.935 329.108C174.602 328.384 175.514 328.021 176.67 328.021C177.83 328.021 178.742 328.381 179.405 329.101C180.073 329.821 180.407 330.809 180.407 332.064C180.407 333.324 180.073 334.314 179.405 335.034C178.742 335.749 177.83 336.106 176.67 336.106ZM182.183 335.95V328.178H183.881V329.386H184.002C184.111 328.997 184.354 328.677 184.733 328.426C185.117 328.175 185.558 328.05 186.055 328.05C186.372 328.05 186.616 328.076 186.787 328.128V329.762C186.607 329.696 186.306 329.663 185.884 329.663C185.311 329.663 184.845 329.828 184.485 330.16C184.125 330.487 183.945 330.92 183.945 331.46V335.95H182.183ZM190.19 331.346L193.06 328.178H195.106L192.008 331.51L195.319 335.95H193.188L190.694 332.618L190.069 333.243V335.95H188.307V325.173H190.069V331.346H190.19Z" fill="#5B5863"/>
<path fill-rule="evenodd" clip-rule="evenodd" d="M51.7334 323.333H72.75V324.577H51.7334V323.333ZM51.7334 325.822H72.75V327.066H51.7334V325.822ZM51.7334 328.307H72.75V329.554H51.7334V328.307ZM51.7334 330.795H72.75V332.039H51.7334V330.795ZM51.7334 333.283H72.75V334.527H51.7334V333.283ZM51.7334 335.768H72.75V337.012H51.7334V335.768ZM51.7334 338.256H72.75V339.5H51.7334V338.256Z" fill="#BD3D44"/>
<path fill-rule="evenodd" clip-rule="evenodd" d="M51.7334 324.95H72.7501V326.126H51.7334V324.95ZM51.7334 327.303H72.7501V328.476H51.7334V327.303ZM51.7334 329.652H72.7501V330.829H51.7334V329.652ZM51.7334 332.005H72.7501V333.181H51.7334V332.005ZM51.7334 334.358H72.7501V335.534H51.7334V334.358ZM51.7334 336.707H72.7501V337.883H51.7334V336.707Z" fill="white"/>
<path fill-rule="evenodd" clip-rule="evenodd" d="M51.7334 323.333H63.3728V331.838H51.7334V323.333Z" fill="#192F5D"/>
<path fill-rule="evenodd" clip-rule="evenodd" d="M52.7026 323.698L52.8103 324.034H53.1513L52.8761 324.241L52.9808 324.58L52.7026 324.37L52.4274 324.577L52.5321 324.241L52.2539 324.034H52.6009L52.7026 323.698ZM54.644 323.698L54.7487 324.034H55.0927L54.8145 324.241L54.9192 324.58L54.644 324.37L54.3658 324.577L54.4705 324.241L54.1953 324.034H54.5363L54.644 323.698ZM56.5824 323.698L56.6901 324.034H57.0281L56.7529 324.241L56.8576 324.58L56.5794 324.37L56.3042 324.577L56.4089 324.241L56.1307 324.034H56.4747L56.5824 323.698ZM58.5238 323.698L58.6285 324.034H58.9725L58.6943 324.241L58.802 324.58L58.5238 324.37L58.2456 324.577L58.3533 324.241L58.0751 324.034H58.4161L58.5238 323.698ZM60.4622 323.698L60.5699 324.034H60.9109L60.6357 324.241L60.7404 324.58L60.4622 324.37L60.187 324.577L60.2917 324.241L60.0165 324.034H60.3575L60.4622 323.698ZM62.4036 323.698L62.5083 324.034H62.8523L62.5741 324.241L62.6818 324.58L62.4036 324.37L62.1254 324.577L62.2331 324.241L61.9549 324.034H62.2989L62.4036 323.698ZM53.6748 324.549L53.7795 324.885H54.1235L53.8453 325.092L53.947 325.428L53.6778 325.222L53.3996 325.428L53.4983 325.092L53.2291 324.885H53.5701L53.6748 324.549ZM55.6132 324.549L55.7209 324.885H56.0619L55.7837 325.092L55.8914 325.428L55.6132 325.222L55.335 325.428L55.4427 325.092L55.1645 324.885H55.5085L55.6132 324.549ZM57.5546 324.549L57.6593 324.885H58.0033L57.7251 325.092L57.8298 325.428L57.5546 325.222L57.2764 325.428L57.3811 325.092L57.1059 324.885H57.4469L57.5546 324.549ZM59.493 324.549L59.6007 324.885H59.9417L59.6635 325.092L59.7712 325.428L59.493 325.222L59.2178 325.428L59.3225 325.092L59.0443 324.885H59.3913L59.493 324.549ZM61.4344 324.549L61.5391 324.885H61.8831L61.6049 325.092L61.7096 325.428L61.4344 325.222L61.1562 325.428L61.2609 325.092L60.9857 324.885H61.3267L61.4344 324.549ZM52.7026 325.397L52.8103 325.74H53.1513L52.8761 325.946L52.9808 326.283L52.7026 326.073L52.4274 326.283L52.5321 325.943L52.2539 325.737H52.6009L52.7026 325.397ZM54.644 325.397L54.7487 325.737H55.0927L54.8145 325.943L54.9192 326.28L54.644 326.07L54.3658 326.28L54.4705 325.94L54.1953 325.734H54.5363L54.644 325.397ZM56.5824 325.397L56.6901 325.737H57.0281L56.7529 325.943L56.8576 326.28L56.5794 326.07L56.3042 326.28L56.4089 325.94L56.1307 325.734H56.4747L56.5824 325.397ZM58.5238 325.397L58.6285 325.737H58.9725L58.6943 325.943L58.802 326.28L58.5238 326.07L58.2456 326.28L58.3533 325.94L58.0751 325.734H58.4161L58.5238 325.397ZM60.4622 325.397L60.5699 325.737H60.9109L60.6357 325.943L60.7404 326.28L60.4622 326.07L60.187 326.28L60.2917 325.94L60.0165 325.734H60.3575L60.4622 325.397ZM62.4036 325.397L62.5083 325.737H62.8523L62.5741 325.943L62.6818 326.28L62.4036 326.07L62.1254 326.28L62.2331 325.94L61.9549 325.734H62.2989L62.4036 325.397ZM53.6748 326.249L53.7795 326.585H54.1235L53.8453 326.792L53.95 327.131L53.6748 326.921L53.3966 327.128L53.5013 326.792L53.2261 326.585H53.5671L53.6748 326.249ZM55.6132 326.249L55.7209 326.585H56.0619L55.7837 326.792L55.8914 327.131L55.6132 326.921L55.335 327.128L55.4427 326.792L55.1645 326.585H55.5085L55.6132 326.249ZM57.5546 326.249L57.6593 326.585H58.0033L57.7251 326.792L57.8298 327.131L57.5546 326.921L57.2764 327.128L57.3811 326.792L57.1059 326.585H57.4469L57.5546 326.249ZM59.493 326.249L59.6007 326.585H59.9417L59.6665 326.792L59.7712 327.131L59.493 326.921L59.2178 327.128L59.3225 326.792L59.0443 326.585H59.3913L59.493 326.249ZM61.4344 326.249L61.5391 326.585H61.8831L61.6049 326.792L61.7096 327.131L61.4344 326.921L61.1562 327.128L61.2609 326.792L60.9857 326.585H61.3267L61.4344 326.249ZM52.7026 327.1L52.8103 327.436H53.1513L52.8761 327.643L52.9808 327.982L52.7026 327.773L52.4274 327.979L52.5321 327.643L52.2539 327.436H52.6009L52.7026 327.1ZM54.644 327.1L54.7487 327.436H55.0927L54.8145 327.643L54.9192 327.979L54.644 327.773L54.3658 327.979L54.4705 327.643L54.1953 327.436H54.5363L54.644 327.1ZM56.5824 327.1L56.6901 327.436H57.0281L56.7529 327.643L56.8576 327.982L56.5794 327.773L56.3042 327.979L56.4089 327.643L56.1307 327.436H56.4747L56.5824 327.1ZM58.5238 327.1L58.6285 327.436H58.9725L58.6943 327.643L58.802 327.982L58.5238 327.773L58.2456 327.979L58.3533 327.643L58.0751 327.436H58.4161L58.5238 327.1ZM60.4622 327.1L60.5699 327.436H60.9109L60.6357 327.643L60.7404 327.982L60.4622 327.773L60.187 327.979L60.2917 327.643L60.0165 327.436H60.3575L60.4622 327.1ZM62.4036 327.1L62.5083 327.436H62.8523L62.5741 327.643L62.6818 327.982L62.4036 327.773L62.1254 327.979L62.2331 327.643L61.9549 327.436H62.2989L62.4036 327.1ZM53.6748 327.952L53.7795 328.288H54.1235L53.8453 328.495L53.95 328.831L53.6748 328.621L53.3966 328.831L53.5013 328.491L53.2261 328.285H53.5671L53.6748 327.952ZM55.6132 327.952L55.7209 328.288H56.0619L55.7837 328.495L55.8914 328.831L55.6132 328.621L55.335 328.831L55.4427 328.491L55.1645 328.285H55.5085L55.6132 327.952ZM57.5546 327.952L57.6593 328.288H58.0033L57.7251 328.495L57.8298 328.831L57.5546 328.621L57.2764 328.831L57.3811 328.491L57.1059 328.285H57.4469L57.5546 327.952ZM59.493 327.952L59.6007 328.288H59.9417L59.6665 328.495L59.7712 328.831L59.493 328.621L59.2178 328.831L59.3225 328.491L59.0443 328.285H59.3913L59.493 327.952ZM61.4344 327.952L61.5391 328.288H61.8831L61.6049 328.495L61.7096 328.831L61.4344 328.621L61.1562 328.831L61.2609 328.491L60.9857 328.285H61.3267L61.4344 327.952ZM52.7026 328.8L52.8103 329.139H53.1513L52.8761 329.346L52.9808 329.679L52.7026 329.472L52.4274 329.679L52.5321 329.343L52.2539 329.136H52.6009L52.7026 328.8ZM54.644 328.8L54.7487 329.139H55.0927L54.8145 329.346L54.9222 329.679L54.644 329.472L54.3658 329.679L54.4735 329.343L54.1953 329.136H54.5363L54.644 328.8ZM56.5824 328.8L56.6901 329.139H57.0281L56.7529 329.346L56.8576 329.679L56.5794 329.472L56.3042 329.679L56.4089 329.343L56.1307 329.136H56.4747L56.5824 328.8ZM58.5238 328.8L58.6285 329.139H58.9725L58.6943 329.346L58.802 329.679L58.5238 329.472L58.2456 329.679L58.3533 329.343L58.0751 329.136H58.4161L58.5238 328.8ZM60.4622 328.8L60.5699 329.139H60.9109L60.6357 329.346L60.7404 329.679L60.4622 329.472L60.187 329.679L60.2917 329.343L60.0165 329.136H60.3575L60.4622 328.8ZM62.4036 328.8L62.5083 329.139H62.8523L62.5741 329.346L62.6818 329.679L62.4036 329.472L62.1254 329.679L62.2331 329.343L61.9549 329.136H62.2989L62.4036 328.8ZM53.6748 329.651L53.7795 329.988H54.1235L53.8453 330.194L53.95 330.534L53.6748 330.324L53.3966 330.531L53.5013 330.194L53.2261 329.988H53.5671L53.6748 329.651ZM55.6132 329.651L55.7209 329.988H56.0619L55.7837 330.194L55.8914 330.534L55.6132 330.324L55.335 330.531L55.4427 330.194L55.1645 329.988H55.5085L55.6132 329.651ZM57.5546 329.651L57.6593 329.988H58.0033L57.7251 330.194L57.8298 330.534L57.5546 330.324L57.2764 330.531L57.3811 330.194L57.1059 329.988H57.4469L57.5546 329.651ZM59.493 329.651L59.6007 329.988H59.9417L59.6665 330.194L59.7712 330.534L59.493 330.324L59.2178 330.531L59.3225 330.194L59.0443 329.988H59.3913L59.493 329.651ZM61.4344 329.651L61.5391 329.988H61.8831L61.6049 330.194L61.7096 330.534L61.4344 330.324L61.1562 330.531L61.2609 330.194L60.9857 329.988H61.3267L61.4344 329.651ZM52.7026 330.503L52.8103 330.839H53.1513L52.8761 331.046L52.9808 331.382L52.7026 331.175L52.4274 331.382L52.5321 331.043L52.2539 330.836H52.6009L52.7026 330.503ZM54.644 330.503L54.7487 330.839H55.0927L54.8145 331.046L54.9222 331.382L54.644 331.175L54.3658 331.382L54.4735 331.043L54.1953 330.836H54.5363L54.644 330.503ZM56.5824 330.503L56.6901 330.839H57.0281L56.7589 331.046L56.8636 331.382L56.5854 331.175L56.3102 331.382L56.4149 331.043L56.1367 330.836H56.4807L56.5824 330.503ZM58.5238 330.503L58.6285 330.839H58.9725L58.6943 331.046L58.802 331.382L58.5238 331.175L58.2456 331.382L58.3533 331.043L58.0751 330.836H58.4161L58.5238 330.503ZM60.4622 330.503L60.5699 330.839H60.9109L60.6357 331.046L60.7404 331.382L60.4622 331.175L60.187 331.382L60.2917 331.043L60.0165 330.836H60.3575L60.4622 330.503ZM62.4036 330.503L62.5083 330.839H62.8523L62.5741 331.046L62.6818 331.382L62.4036 331.175L62.1254 331.382L62.2331 331.043L61.9549 330.836H62.2989L62.4036 330.503Z" fill="white"/>
<path d="M179.713 389.108H178.729L175.79 381.135H176.834L179.177 387.821H179.265L181.608 381.135H182.653L179.713 389.108ZM184.051 381.135H187.062C187.817 381.135 188.431 381.376 188.902 381.859C189.377 382.337 189.615 382.956 189.615 383.715C189.615 384.459 189.374 385.071 188.891 385.55C188.412 386.025 187.799 386.263 187.051 386.263H185.045V389.108H184.051V381.135ZM185.045 382.019V385.378H186.802C187.37 385.378 187.81 385.233 188.123 384.942C188.436 384.651 188.593 384.242 188.593 383.715C188.593 383.166 188.438 382.746 188.128 382.455C187.823 382.164 187.381 382.019 186.802 382.019H185.045ZM192.229 389.108H191.245V381.135H192.212L196.539 387.34H196.627V381.135H197.611V389.108H196.644L192.317 382.925H192.229V389.108ZM203.833 389.108H202.838V381.135H203.833V389.108ZM205.866 381.135H208.878C209.633 381.135 210.246 381.376 210.718 381.859C211.193 382.337 211.43 382.956 211.43 383.715C211.43 384.459 211.189 385.071 210.707 385.55C210.228 386.025 209.614 386.263 208.867 386.263H206.861V389.108H205.866V381.135ZM206.861 382.019V385.378H208.618C209.185 385.378 209.625 385.233 209.938 384.942C210.252 384.651 210.408 384.242 210.408 383.715C210.408 383.166 210.253 382.746 209.944 382.455C209.638 382.164 209.196 382.019 208.618 382.019H206.861ZM213.724 389.164C213.528 389.164 213.359 389.094 213.215 388.954C213.075 388.81 213.005 388.64 213.005 388.445C213.005 388.246 213.075 388.077 213.215 387.937C213.359 387.797 213.528 387.727 213.724 387.727C213.923 387.727 214.092 387.797 214.232 387.937C214.372 388.077 214.442 388.246 214.442 388.445C214.442 388.64 214.372 388.81 214.232 388.954C214.092 389.094 213.923 389.164 213.724 389.164ZM213.724 384.914C213.528 384.914 213.359 384.844 213.215 384.704C213.075 384.561 213.005 384.391 213.005 384.196C213.005 383.997 213.075 383.828 213.215 383.688C213.359 383.548 213.528 383.478 213.724 383.478C213.923 383.478 214.092 383.548 214.232 383.688C214.372 383.828 214.442 383.997 214.442 384.196C214.442 384.391 214.372 384.561 214.232 384.704C214.092 384.844 213.923 384.914 213.724 384.914Z" fill="#AFADB2"/>
<path d="M178.166 406.083V399.546H178.072L176.088 400.939V399.568L178.171 398.11H179.591V406.083H178.166ZM184.83 406.282C183.916 406.282 183.172 406.067 182.597 405.636C182.026 405.201 181.741 404.639 181.741 403.95C181.741 403.446 181.897 403.009 182.21 402.641C182.524 402.269 182.942 402.027 183.465 401.917V401.823C183.041 401.72 182.7 401.51 182.443 401.193C182.188 400.872 182.061 400.499 182.061 400.071C182.061 399.441 182.321 398.924 182.84 398.519C183.36 398.113 184.025 397.911 184.835 397.911C185.646 397.911 186.309 398.113 186.824 398.519C187.344 398.924 187.604 399.441 187.604 400.071C187.604 400.499 187.476 400.871 187.222 401.187C186.972 401.504 186.633 401.716 186.206 401.823V401.917C186.725 402.013 187.141 402.247 187.454 402.619C187.771 402.987 187.93 403.429 187.93 403.945C187.93 404.637 187.642 405.201 187.068 405.636C186.497 406.067 185.751 406.282 184.83 406.282ZM184.835 405.171C185.314 405.171 185.703 405.048 186.001 404.801C186.303 404.551 186.454 404.227 186.454 403.829C186.454 403.431 186.303 403.109 186.001 402.862C185.703 402.611 185.314 402.486 184.835 402.486C184.353 402.486 183.96 402.611 183.658 402.862C183.36 403.109 183.211 403.431 183.211 403.829C183.211 404.227 183.36 404.551 183.658 404.801C183.96 405.048 184.353 405.171 184.835 405.171ZM183.846 401.066C184.1 401.283 184.43 401.392 184.835 401.392C185.24 401.392 185.568 401.283 185.819 401.066C186.073 400.845 186.2 400.559 186.2 400.209C186.2 399.852 186.073 399.563 185.819 399.342C185.568 399.117 185.24 399.005 184.835 399.005C184.426 399.005 184.095 399.117 183.841 399.342C183.59 399.563 183.465 399.852 183.465 400.209C183.465 400.559 183.592 400.845 183.846 401.066ZM192.356 406.282C191.534 406.282 190.86 406.057 190.333 405.608C189.806 405.159 189.527 404.58 189.493 403.873H190.831C190.875 404.238 191.039 404.532 191.322 404.757C191.606 404.982 191.954 405.094 192.367 405.094C192.835 405.094 193.212 404.95 193.499 404.663C193.791 404.372 193.936 403.989 193.936 403.514C193.936 403.039 193.791 402.654 193.499 402.359C193.212 402.06 192.838 401.911 192.378 401.911C192.054 401.911 191.764 401.979 191.51 402.116C191.26 402.252 191.061 402.445 190.913 402.696H189.62L190.035 398.11H194.837V399.314H191.14L190.947 401.552H191.041C191.409 401.055 191.971 400.806 192.726 400.806C193.481 400.806 194.1 401.057 194.583 401.558C195.069 402.059 195.312 402.7 195.312 403.481C195.312 404.313 195.039 404.989 194.494 405.509C193.953 406.024 193.24 406.282 192.356 406.282ZM197.417 406.199C197.159 406.199 196.948 406.116 196.782 405.951C196.616 405.785 196.533 405.577 196.533 405.326C196.533 405.072 196.616 404.864 196.782 404.702C196.948 404.536 197.159 404.453 197.417 404.453C197.679 404.453 197.891 404.536 198.053 404.702C198.218 404.864 198.301 405.072 198.301 405.326C198.301 405.577 198.218 405.785 198.053 405.951C197.891 406.116 197.679 406.199 197.417 406.199ZM199.882 400.441C199.882 399.697 200.14 399.089 200.655 398.618C201.175 398.146 201.843 397.911 202.661 397.911C203.449 397.911 204.098 398.126 204.606 398.557C205.118 398.988 205.374 399.537 205.374 400.204C205.374 400.631 205.245 401.055 204.987 401.475C204.73 401.891 204.262 402.434 203.584 403.105L201.915 404.779V404.873H205.496V406.083H199.959V405.094L202.617 402.375C203.162 401.823 203.525 401.408 203.705 401.132C203.886 400.852 203.976 400.572 203.976 400.292C203.976 399.942 203.847 399.653 203.589 399.425C203.335 399.196 203.011 399.082 202.617 399.082C202.201 399.082 201.864 399.207 201.606 399.458C201.348 399.708 201.219 400.036 201.219 400.441V400.464H199.882V400.441ZM209.01 406.083V399.546H208.916L206.933 400.939V399.568L209.016 398.11H210.436V406.083H209.01ZM216.398 406.083V404.597H212.502V403.326C213.151 402.132 214.234 400.394 215.752 398.11H217.763V403.392H218.84V404.597H217.763V406.083H216.398ZM213.823 403.342V403.425H216.42V399.27H216.343C215.481 400.545 214.641 401.902 213.823 403.342ZM221.078 406.199C220.82 406.199 220.609 406.116 220.443 405.951C220.277 405.785 220.194 405.577 220.194 405.326C220.194 405.072 220.277 404.864 220.443 404.702C220.609 404.536 220.82 404.453 221.078 404.453C221.34 404.453 221.552 404.536 221.714 404.702C221.88 404.864 221.962 405.072 221.962 405.326C221.962 405.577 221.88 405.785 221.714 405.951C221.552 406.116 221.34 406.199 221.078 406.199ZM225.272 402.547V401.442H226.245C226.65 401.442 226.98 401.331 227.234 401.11C227.488 400.885 227.615 400.594 227.615 400.237C227.615 399.883 227.49 399.602 227.24 399.392C226.993 399.178 226.661 399.071 226.245 399.071C225.832 399.071 225.497 399.18 225.239 399.397C224.985 399.614 224.845 399.911 224.819 400.287H223.488C223.524 399.554 223.793 398.975 224.294 398.552C224.795 398.124 225.46 397.911 226.289 397.911C227.063 397.911 227.706 398.113 228.218 398.519C228.733 398.92 228.991 399.427 228.991 400.038C228.991 400.506 228.86 400.906 228.599 401.237C228.341 401.569 227.991 401.781 227.549 401.873V401.967C228.094 402.029 228.523 402.234 228.836 402.58C229.153 402.926 229.312 403.365 229.312 403.895C229.312 404.58 229.024 405.149 228.45 405.602C227.879 406.056 227.16 406.282 226.295 406.282C225.436 406.282 224.736 406.063 224.195 405.625C223.657 405.186 223.37 404.602 223.333 403.873H224.698C224.727 404.241 224.887 404.536 225.178 404.757C225.469 404.974 225.845 405.083 226.306 405.083C226.762 405.083 227.135 404.965 227.422 404.729C227.713 404.49 227.858 404.182 227.858 403.807C227.858 403.416 227.717 403.109 227.433 402.884C227.149 402.659 226.762 402.547 226.273 402.547H225.272ZM231.196 406.083L234.661 399.397V399.309H230.549V398.11H236.097V399.325L232.688 406.083H231.196ZM240.23 406.277C239.501 406.277 238.88 406.08 238.368 405.685C237.856 405.288 237.541 404.761 237.423 404.105H238.844C238.936 404.407 239.105 404.647 239.352 404.823C239.602 404.996 239.899 405.083 240.242 405.083C240.824 405.083 241.279 404.827 241.606 404.315C241.934 403.799 242.098 403.085 242.098 402.171H242.048H242.021H242.004C241.816 402.55 241.542 402.845 241.181 403.055C240.82 403.261 240.405 403.365 239.938 403.365C239.179 403.365 238.551 403.114 238.053 402.613C237.56 402.112 237.313 401.478 237.313 400.712C237.313 399.894 237.589 399.224 238.142 398.701C238.698 398.174 239.409 397.911 240.275 397.911C240.857 397.911 241.372 398.045 241.822 398.314C242.271 398.583 242.63 398.973 242.899 399.486C243.275 400.152 243.463 400.992 243.463 402.005C243.463 403.346 243.178 404.394 242.607 405.149C242.036 405.901 241.244 406.277 240.23 406.277ZM239.153 401.795C239.448 402.086 239.823 402.232 240.28 402.232C240.737 402.232 241.115 402.086 241.413 401.795C241.711 401.504 241.861 401.136 241.861 400.69C241.861 400.241 241.71 399.863 241.407 399.557C241.105 399.252 240.731 399.099 240.286 399.099C239.84 399.099 239.466 399.25 239.164 399.552C238.862 399.85 238.711 400.222 238.711 400.668C238.711 401.125 238.858 401.501 239.153 401.795ZM245.491 406.199C245.233 406.199 245.021 406.116 244.856 405.951C244.69 405.785 244.607 405.577 244.607 405.326C244.607 405.072 244.69 404.864 244.856 404.702C245.021 404.536 245.233 404.453 245.491 404.453C245.753 404.453 245.964 404.536 246.126 404.702C246.292 404.864 246.375 405.072 246.375 405.326C246.375 405.577 246.292 405.785 246.126 405.951C245.964 406.116 245.753 406.199 245.491 406.199ZM250.74 406.277C250.155 406.277 249.637 406.142 249.188 405.873C248.738 405.604 248.381 405.214 248.116 404.702C247.74 404.039 247.552 403.199 247.552 402.182C247.552 400.841 247.836 399.795 248.403 399.043C248.974 398.288 249.768 397.911 250.785 397.911C251.51 397.911 252.129 398.11 252.641 398.507C253.157 398.902 253.474 399.427 253.592 400.082H252.166C252.078 399.78 251.908 399.543 251.658 399.369C251.411 399.193 251.116 399.104 250.774 399.104C250.192 399.104 249.737 399.362 249.409 399.878C249.081 400.39 248.917 401.103 248.917 402.016H249.011C249.199 401.637 249.473 401.344 249.834 401.138C250.195 400.928 250.61 400.823 251.077 400.823C251.836 400.823 252.463 401.073 252.956 401.574C253.454 402.075 253.702 402.709 253.702 403.475C253.702 404.297 253.424 404.969 252.868 405.492C252.315 406.015 251.606 406.277 250.74 406.277ZM250.724 405.089C251.173 405.089 251.549 404.939 251.851 404.641C252.153 404.339 252.304 403.965 252.304 403.519C252.304 403.062 252.157 402.689 251.862 402.398C251.567 402.103 251.192 401.955 250.735 401.955C250.278 401.955 249.9 402.101 249.602 402.392C249.304 402.683 249.155 403.051 249.155 403.497C249.155 403.95 249.304 404.33 249.602 404.635C249.904 404.938 250.278 405.089 250.724 405.089ZM258.935 406.083V404.597H255.039V403.326C255.688 402.132 256.771 400.394 258.289 398.11H260.3V403.392H261.377V404.597H260.3V406.083H258.935ZM256.36 403.342V403.425H258.957V399.27H258.88C258.018 400.545 257.178 401.902 256.36 403.342Z" fill="#5B5863"/>
<path d="M34.3447 389.109H33.3501V381.135H34.3447V389.109ZM36.3782 381.135H39.3897C40.1448 381.135 40.7582 381.376 41.2297 381.859C41.7049 382.338 41.9425 382.957 41.9425 383.715C41.9425 384.46 41.7013 385.071 41.2187 385.55C40.7398 386.025 40.1264 386.263 39.3786 386.263H37.3728V389.109H36.3782V381.135ZM37.3728 382.019V385.379H39.13C39.6973 385.379 40.1375 385.233 40.4506 384.942C40.7637 384.651 40.9203 384.242 40.9203 383.715C40.9203 383.167 40.7656 382.747 40.4561 382.456C40.1504 382.165 39.7083 382.019 39.13 382.019H37.3728ZM44.2357 389.164C44.0405 389.164 43.871 389.094 43.7274 388.954C43.5874 388.81 43.5174 388.641 43.5174 388.445C43.5174 388.247 43.5874 388.077 43.7274 387.937C43.871 387.797 44.0405 387.727 44.2357 387.727C44.4346 387.727 44.6041 387.797 44.7441 387.937C44.8841 388.077 44.9541 388.247 44.9541 388.445C44.9541 388.641 44.8841 388.81 44.7441 388.954C44.6041 389.094 44.4346 389.164 44.2357 389.164ZM44.2357 384.915C44.0405 384.915 43.871 384.845 43.7274 384.705C43.5874 384.561 43.5174 384.391 43.5174 384.196C43.5174 383.997 43.5874 383.828 43.7274 383.688C43.871 383.548 44.0405 383.478 44.2357 383.478C44.4346 383.478 44.6041 383.548 44.7441 383.688C44.8841 383.828 44.9541 383.997 44.9541 384.196C44.9541 384.391 44.8841 384.561 44.7441 384.705C44.6041 384.845 44.4346 384.915 44.2357 384.915Z" fill="#AFADB2"/>
<path d="M35.0906 406.083V399.546H34.9967L33.0129 400.939V399.568L35.0961 398.11H36.5162V406.083H35.0906ZM41.5668 406.277C40.8374 406.277 40.2166 406.08 39.7046 405.685C39.1925 405.288 38.8776 404.761 38.7597 404.105H40.1798C40.2719 404.407 40.4413 404.647 40.6882 404.823C40.9387 404.997 41.2352 405.083 41.5778 405.083C42.1598 405.083 42.6148 404.827 42.9427 404.315C43.2705 403.799 43.4344 403.085 43.4344 402.171H43.3847H43.3571H43.3405C43.1526 402.55 42.8782 402.845 42.5172 403.055C42.1562 403.261 41.7417 403.365 41.2739 403.365C40.515 403.365 39.8869 403.114 39.3896 402.613C38.896 402.112 38.6492 401.479 38.6492 400.712C38.6492 399.894 38.9255 399.224 39.478 398.701C40.0343 398.174 40.7453 397.911 41.611 397.911C42.193 397.911 42.7087 398.045 43.1582 398.314C43.6076 398.583 43.9668 398.974 44.2357 399.486C44.6114 400.152 44.7993 400.992 44.7993 402.005C44.7993 403.346 44.5138 404.394 43.9428 405.149C43.3718 405.901 42.5798 406.277 41.5668 406.277ZM40.4892 401.795C40.7839 402.086 41.1597 402.232 41.6165 402.232C42.0733 402.232 42.4509 402.086 42.7493 401.795C43.0476 401.504 43.1968 401.136 43.1968 400.69C43.1968 400.241 43.0458 399.863 42.7437 399.557C42.4417 399.252 42.0678 399.099 41.622 399.099C41.1763 399.099 40.8024 399.25 40.5003 399.552C40.1982 399.85 40.0472 400.222 40.0472 400.668C40.0472 401.125 40.1945 401.501 40.4892 401.795ZM46.2526 400.442C46.2526 399.697 46.5104 399.09 47.0262 398.618C47.5456 398.146 48.2142 397.911 49.032 397.911C49.8203 397.911 50.4687 398.126 50.977 398.557C51.4891 398.988 51.7451 399.537 51.7451 400.204C51.7451 400.631 51.6162 401.055 51.3583 401.475C51.1005 401.891 50.6326 402.434 49.9548 403.105L48.286 404.779V404.873H51.8667V406.083H46.3299V405.094L48.9878 402.376C49.533 401.823 49.8959 401.409 50.0764 401.132C50.2569 400.852 50.3471 400.572 50.3471 400.292C50.3471 399.942 50.2182 399.653 49.9603 399.425C49.7061 399.196 49.382 399.082 48.9878 399.082C48.5715 399.082 48.2345 399.207 47.9766 399.458C47.7187 399.708 47.5898 400.036 47.5898 400.442V400.464H46.2526V400.442ZM54.3754 406.199C54.1175 406.199 53.9057 406.116 53.7399 405.951C53.5741 405.785 53.4913 405.577 53.4913 405.326C53.4913 405.072 53.5741 404.864 53.7399 404.702C53.9057 404.536 54.1175 404.453 54.3754 404.453C54.6369 404.453 54.8487 404.536 55.0108 404.702C55.1766 404.864 55.2595 405.072 55.2595 405.326C55.2595 405.577 55.1766 405.785 55.0108 405.951C54.8487 406.116 54.6369 406.199 54.3754 406.199ZM58.4865 406.083V399.546H58.3926L56.4088 400.939V399.568L58.492 398.11H59.9121V406.083H58.4865ZM65.051 406.282C64.2296 406.282 63.5554 406.057 63.0286 405.608C62.5019 405.159 62.2219 404.58 62.1887 403.873H63.526C63.5702 404.238 63.7341 404.532 64.0177 404.757C64.3014 404.982 64.6495 405.094 65.0621 405.094C65.5299 405.094 65.9075 404.95 66.1949 404.663C66.4859 404.372 66.6314 403.989 66.6314 403.514C66.6314 403.039 66.4859 402.654 66.1949 402.359C65.9075 402.061 65.5336 401.911 65.0732 401.911C64.749 401.911 64.4598 401.98 64.2056 402.116C63.9551 402.252 63.7562 402.446 63.6088 402.696H62.3158L62.7302 398.11H67.5321V399.314H63.8354L63.642 401.552H63.7359C64.1043 401.055 64.6661 400.806 65.4213 400.806C66.1765 400.806 66.7953 401.057 67.2779 401.558C67.7642 402.059 68.0073 402.7 68.0073 403.481C68.0073 404.313 67.7347 404.989 67.1895 405.509C66.648 406.024 65.9352 406.282 65.051 406.282ZM72.555 406.277C71.9692 406.277 71.4517 406.142 71.0022 405.873C70.5528 405.604 70.1955 405.214 69.9303 404.702C69.5545 404.039 69.3666 403.199 69.3666 402.182C69.3666 400.841 69.6503 399.795 70.2176 399.044C70.7886 398.288 71.5824 397.911 72.5992 397.911C73.3249 397.911 73.9438 398.11 74.4558 398.508C74.9715 398.902 75.2884 399.427 75.4062 400.082H73.9806C73.8922 399.78 73.7227 399.543 73.4722 399.37C73.2254 399.193 72.9307 399.104 72.5881 399.104C72.0061 399.104 71.5511 399.362 71.2233 399.878C70.8954 400.39 70.7315 401.103 70.7315 402.016H70.8254C71.0133 401.637 71.2877 401.344 71.6488 401.138C72.0098 400.928 72.4242 400.823 72.892 400.823C73.6509 400.823 74.2772 401.073 74.7708 401.574C75.2681 402.075 75.5168 402.709 75.5168 403.475C75.5168 404.297 75.2386 404.969 74.6824 405.492C74.1298 406.015 73.4207 406.277 72.555 406.277ZM72.5384 405.089C72.9878 405.089 73.3636 404.939 73.6656 404.641C73.9677 404.339 74.1187 403.965 74.1187 403.519C74.1187 403.063 73.9714 402.689 73.6767 402.398C73.382 402.103 73.0062 401.956 72.5494 401.956C72.0927 401.956 71.7151 402.101 71.4167 402.392C71.1183 402.683 70.9691 403.051 70.9691 403.497C70.9691 403.95 71.1183 404.33 71.4167 404.636C71.7187 404.938 72.0927 405.089 72.5384 405.089ZM77.6607 406.199C77.4029 406.199 77.191 406.116 77.0253 405.951C76.8595 405.785 76.7766 405.577 76.7766 405.326C76.7766 405.072 76.8595 404.864 77.0253 404.702C77.191 404.536 77.4029 404.453 77.6607 404.453C77.9223 404.453 78.1341 404.536 78.2962 404.702C78.462 404.864 78.5448 405.072 78.5448 405.326C78.5448 405.577 78.462 405.785 78.2962 405.951C78.1341 406.116 77.9223 406.199 77.6607 406.199ZM83.8219 406.083V404.597H79.9263V403.326C80.5746 402.132 81.6577 400.394 83.1754 398.11H85.1868V403.392H86.2643V404.597H85.1868V406.083H83.8219ZM81.2469 403.343V403.425H83.844V399.27H83.7666C82.9046 400.545 82.0647 401.902 81.2469 403.343ZM90.613 406.282C89.7915 406.282 89.1174 406.057 88.5906 405.608C88.0638 405.159 87.7838 404.58 87.7507 403.873H89.0879C89.1321 404.238 89.296 404.532 89.5797 404.757C89.8634 404.982 90.2115 405.094 90.6241 405.094C91.0919 405.094 91.4695 404.95 91.7568 404.663C92.0479 404.372 92.1934 403.989 92.1934 403.514C92.1934 403.039 92.0479 402.654 91.7568 402.359C91.4695 402.061 91.0956 401.911 90.6351 401.911C90.3109 401.911 90.0218 401.98 89.7676 402.116C89.5171 402.252 89.3182 402.446 89.1708 402.696H87.8778L88.2922 398.11H93.0941V399.314H89.3974L89.204 401.552H89.2979C89.6663 401.055 90.2281 400.806 90.9832 400.806C91.7384 400.806 92.3573 401.057 92.8399 401.558C93.3261 402.059 93.5693 402.7 93.5693 403.481C93.5693 404.313 93.2967 404.989 92.7515 405.509C92.2099 406.024 91.4971 406.282 90.613 406.282ZM95.4149 406.083L98.8795 399.397V399.309H94.7683V398.11H100.316V399.325L96.9068 406.083H95.4149ZM101.421 406.199C101.163 406.199 100.952 406.116 100.786 405.951C100.62 405.785 100.537 405.577 100.537 405.326C100.537 405.072 100.62 404.864 100.786 404.702C100.952 404.536 101.163 404.453 101.421 404.453C101.683 404.453 101.895 404.536 102.057 404.702C102.223 404.864 102.305 405.072 102.305 405.326C102.305 405.577 102.223 405.785 102.057 405.951C101.895 406.116 101.683 406.199 101.421 406.199ZM103.886 400.442C103.886 399.697 104.144 399.09 104.659 398.618C105.179 398.146 105.847 397.911 106.665 397.911C107.454 397.911 108.102 398.126 108.61 398.557C109.122 398.988 109.378 399.537 109.378 400.204C109.378 400.631 109.249 401.055 108.992 401.475C108.734 401.891 108.266 402.434 107.588 403.105L105.919 404.779V404.873H109.5V406.083H103.963V405.094L106.621 402.376C107.166 401.823 107.529 401.409 107.71 401.132C107.89 400.852 107.98 400.572 107.98 400.292C107.98 399.942 107.851 399.653 107.594 399.425C107.339 399.196 107.015 399.082 106.621 399.082C106.205 399.082 105.868 399.207 105.61 399.458C105.352 399.708 105.223 400.036 105.223 400.442V400.464H103.886V400.442ZM113.014 406.083V399.546H112.92L110.937 400.939V399.568L113.02 398.11H114.44V406.083H113.014Z" fill="#5B5863"/>
<path d="M51.9044 450.35V443.972H51.8223L49.9392 445.337V444.362L51.9095 442.946H52.828V450.35H51.9044ZM57.528 450.524C56.6933 450.524 56.0468 450.186 55.5884 449.508C55.1301 448.831 54.9009 447.877 54.9009 446.645C54.9009 445.424 55.1318 444.473 55.5936 443.792C56.0554 443.112 56.7002 442.771 57.528 442.771C58.3524 442.771 58.9937 443.113 59.4521 443.798C59.9139 444.482 60.1448 445.436 60.1448 446.661C60.1448 447.889 59.9156 448.84 59.4572 449.514C59.0023 450.187 58.3592 450.524 57.528 450.524ZM56.2657 448.923C56.5599 449.454 56.9807 449.719 57.528 449.719C58.0753 449.719 58.4926 449.455 58.7799 448.929C59.0707 448.398 59.2161 447.637 59.2161 446.645C59.2161 445.664 59.069 444.908 58.7748 444.377C58.4841 443.847 58.0684 443.582 57.528 443.582C56.9875 443.582 56.5685 443.849 56.2709 444.382C55.9767 444.913 55.8296 445.667 55.8296 446.645C55.8296 447.634 55.975 448.393 56.2657 448.923ZM70.9559 447.487C70.9559 448.4 70.6685 449.136 70.0938 449.693C69.5192 450.247 68.7581 450.524 67.8105 450.524C66.7878 450.524 65.9719 450.174 65.363 449.472C64.7576 448.771 64.4549 447.829 64.4549 446.645C64.4549 445.475 64.761 444.538 65.3733 443.833C65.9856 443.125 66.798 442.771 67.8105 442.771C68.6315 442.771 69.3191 442.985 69.8732 443.413C70.4308 443.84 70.7763 444.42 70.9097 445.152H69.9707C69.8099 444.653 69.5465 444.273 69.1805 444.013C68.8145 443.753 68.3578 443.623 67.8105 443.623C67.0785 443.623 66.4936 443.897 66.0557 444.444C65.6213 444.991 65.4041 445.725 65.4041 446.645C65.4041 447.579 65.6196 448.318 66.0506 448.862C66.485 449.402 67.0734 449.673 67.8157 449.673C68.4793 449.673 69.0146 449.479 69.4217 449.093C69.8322 448.706 70.0374 448.2 70.0374 447.574V447.394H67.9542V446.584H70.9559V447.487ZM75.4814 450.35H72.5927V442.946H75.425C76.1023 442.946 76.6359 443.112 77.0259 443.444C77.4192 443.775 77.6159 444.225 77.6159 444.793C77.6159 445.176 77.4911 445.522 77.2414 445.829C76.9951 446.137 76.694 446.324 76.3383 446.389V446.471C76.8446 446.536 77.2465 446.731 77.5441 447.056C77.8417 447.377 77.9905 447.783 77.9905 448.272C77.9905 448.925 77.7681 449.435 77.3235 449.801C76.8822 450.167 76.2682 450.35 75.4814 450.35ZM73.5162 443.762V446.137H74.994C76.1194 446.137 76.6821 445.742 76.6821 444.952C76.6821 444.576 76.5538 444.283 76.2973 444.075C76.0441 443.866 75.6884 443.762 75.23 443.762H73.5162ZM73.5162 449.534H75.3429C75.9005 449.534 76.3229 449.423 76.6102 449.201C76.8976 448.978 77.0412 448.653 77.0412 448.226C77.0412 447.364 76.446 446.933 75.2557 446.933H73.5162V449.534Z" fill="#5B5863"/>
<path d="M43.4073 447.251L42.2756 446.119L38.7998 449.595V439.733H37.1831V449.595L33.7073 446.119L32.5756 447.251L37.9915 452.667L43.4073 447.251Z" fill="#AFADB2"/>
<path d="M146.037 445.029C146.037 444.372 146.26 443.832 146.704 443.408C147.152 442.983 147.72 442.771 148.408 442.771C149.071 442.771 149.627 442.971 150.075 443.372C150.527 443.768 150.753 444.261 150.753 444.849C150.753 445.236 150.643 445.616 150.424 445.989C150.205 446.361 149.793 446.873 149.188 447.523L147.407 449.437V449.519H150.876V450.35H146.083V449.714L148.644 446.917C149.119 446.401 149.436 446.007 149.593 445.737C149.75 445.467 149.829 445.183 149.829 444.885C149.829 444.516 149.689 444.206 149.408 443.957C149.131 443.703 148.789 443.577 148.382 443.577C147.948 443.577 147.597 443.71 147.33 443.977C147.064 444.244 146.93 444.595 146.93 445.029V445.034H146.037V445.029ZM152.744 450.35L156.068 443.844V443.772H152.107V442.946H157.007V443.803L153.713 450.35H152.744ZM162.374 450.35H161.512V442.946H162.585L165.12 449.072H165.202L167.736 442.946H168.809V450.35H167.947V444.695H167.885L165.551 450.299H164.771L162.436 444.695H162.374V450.35ZM173.586 450.35H170.697V442.946H173.529C174.207 442.946 174.74 443.112 175.13 443.444C175.524 443.775 175.72 444.225 175.72 444.793C175.72 445.176 175.595 445.522 175.346 445.829C175.099 446.137 174.798 446.324 174.443 446.389V446.471C174.949 446.536 175.351 446.731 175.648 447.056C175.946 447.377 176.095 447.783 176.095 448.272C176.095 448.925 175.872 449.435 175.428 449.801C174.987 450.167 174.373 450.35 173.586 450.35ZM171.621 443.762V446.137H173.098C174.224 446.137 174.786 445.742 174.786 444.952C174.786 444.576 174.658 444.283 174.402 444.075C174.148 443.866 173.793 443.762 173.334 443.762H171.621ZM171.621 449.534H173.447C174.005 449.534 174.427 449.423 174.715 449.201C175.002 448.978 175.146 448.653 175.146 448.226C175.146 447.364 174.55 446.933 173.36 446.933H171.621V449.534Z" fill="#5B5863"/>
<path d="M139.357 445.149L138.225 446.281L134.749 442.805V452.667H133.132V442.805L129.657 446.281L128.525 445.149L133.941 439.733L139.357 445.149Z" fill="#AFADB2"/>
<path d="M245.006 450.524C244.171 450.524 243.525 450.186 243.067 449.508C242.608 448.831 242.379 447.877 242.379 446.645C242.379 445.424 242.61 444.473 243.072 443.792C243.533 443.112 244.178 442.771 245.006 442.771C245.83 442.771 246.472 443.113 246.93 443.798C247.392 444.482 247.623 445.436 247.623 446.661C247.623 447.889 247.394 448.84 246.935 449.514C246.48 450.187 245.837 450.524 245.006 450.524ZM243.744 448.923C244.038 449.454 244.459 449.719 245.006 449.719C245.553 449.719 245.971 449.455 246.258 448.929C246.549 448.398 246.694 447.637 246.694 446.645C246.694 445.664 246.547 444.908 246.253 444.377C245.962 443.847 245.547 443.582 245.006 443.582C244.466 443.582 244.047 443.849 243.749 444.382C243.455 444.913 243.308 445.667 243.308 446.645C243.308 447.634 243.453 448.393 243.744 448.923ZM251.579 450.524C250.878 450.524 250.298 450.328 249.84 449.934C249.381 449.537 249.131 449.019 249.09 448.38H249.999C250.04 448.78 250.206 449.103 250.496 449.349C250.79 449.592 251.155 449.714 251.589 449.714C252.085 449.714 252.484 449.558 252.785 449.247C253.089 448.935 253.241 448.527 253.241 448.02C253.241 447.514 253.089 447.104 252.785 446.789C252.484 446.471 252.09 446.312 251.605 446.312C251.269 446.312 250.968 446.385 250.702 446.532C250.435 446.676 250.226 446.88 250.076 447.143H249.208L249.614 442.946H253.744V443.772H250.337L250.127 446.148H250.209C250.568 445.727 251.09 445.516 251.774 445.516C252.479 445.516 253.053 445.747 253.498 446.209C253.943 446.671 254.165 447.266 254.165 447.995C254.165 448.747 253.926 449.358 253.447 449.827C252.968 450.292 252.345 450.524 251.579 450.524ZM256.376 449.503C256.195 449.503 256.038 449.438 255.904 449.308C255.774 449.175 255.709 449.018 255.709 448.836C255.709 448.652 255.774 448.494 255.904 448.364C256.038 448.234 256.195 448.169 256.376 448.169C256.561 448.169 256.718 448.234 256.848 448.364C256.978 448.494 257.043 448.652 257.043 448.836C257.043 449.018 256.978 449.175 256.848 449.308C256.718 449.438 256.561 449.503 256.376 449.503ZM256.376 445.557C256.195 445.557 256.038 445.493 255.904 445.363C255.774 445.229 255.709 445.072 255.709 444.89C255.709 444.706 255.774 444.548 255.904 444.418C256.038 444.288 256.195 444.223 256.376 444.223C256.561 444.223 256.718 444.288 256.848 444.418C256.978 444.548 257.043 444.706 257.043 444.89C257.043 445.072 256.978 445.229 256.848 445.363C256.718 445.493 256.561 445.557 256.376 445.557ZM261.379 450.524C260.678 450.524 260.098 450.328 259.64 449.934C259.181 449.537 258.932 449.019 258.891 448.38H259.799C259.84 448.78 260.006 449.103 260.297 449.349C260.591 449.592 260.955 449.714 261.389 449.714C261.885 449.714 262.284 449.558 262.585 449.247C262.889 448.935 263.042 448.527 263.042 448.02C263.042 447.514 262.889 447.104 262.585 446.789C262.284 446.471 261.891 446.312 261.405 446.312C261.07 446.312 260.769 446.385 260.502 446.532C260.235 446.676 260.026 446.88 259.876 447.143H259.009L259.414 442.946H263.544V443.772H260.137L259.927 446.148H260.009C260.368 445.727 260.89 445.516 261.574 445.516C262.279 445.516 262.853 445.747 263.298 446.209C263.743 446.671 263.965 447.266 263.965 447.995C263.965 448.747 263.726 449.358 263.247 449.827C262.768 450.292 262.145 450.524 261.379 450.524ZM268.824 450.35V448.816H265.217V447.974C265.894 446.77 266.951 445.094 268.388 442.946H269.727V447.99H270.779V448.816H269.727V450.35H268.824ZM266.161 447.933V447.995H268.829V443.803H268.768C267.967 444.966 267.099 446.343 266.161 447.933Z" fill="#5B5863"/>
<path d="M230.375 439.733C226.818 439.733 223.908 442.643 223.908 446.2C223.908 449.757 226.818 452.667 230.375 452.667C233.932 452.667 236.842 449.757 236.842 446.2C236.842 442.643 233.932 439.733 230.375 439.733ZM230.375 451.05C227.707 451.05 225.525 448.867 225.525 446.2C225.525 443.532 227.707 441.35 230.375 441.35C233.042 441.35 235.225 443.532 235.225 446.2C235.225 448.867 233.042 451.05 230.375 451.05Z" fill="#AFADB2"/>
<path d="M231.183 442.967H229.567V447.008H233.608V445.392H231.183V442.967Z" fill="#AFADB2"/>
<rect x="32.3333" y="422.758" width="234.417" height="0.808333" fill="#E8E6E0"/>
<path d="M0 17.7833H299.083V126.908C299.083 144.766 284.607 159.242 266.75 159.242H32.3334C14.4762 159.242 0 144.766 0 126.908V17.7833Z" fill="#62D5B4"/>
<path d="M279.683 46.075C279.683 45.1822 278.96 44.4583 278.067 44.4583C277.174 44.4583 276.45 45.1822 276.45 46.075C276.45 46.9679 277.174 47.6917 278.067 47.6917C278.96 47.6917 279.683 46.9679 279.683 46.075Z" fill="white"/>
<path d="M279.683 53.35C279.683 52.4572 278.96 51.7333 278.067 51.7333C277.174 51.7333 276.45 52.4572 276.45 53.35C276.45 54.2429 277.174 54.9667 278.067 54.9667C278.96 54.9667 279.683 54.2429 279.683 53.35Z" fill="white"/>
<path d="M279.683 38.8C279.683 37.9072 278.96 37.1833 278.067 37.1833C277.174 37.1833 276.45 37.9072 276.45 38.8C276.45 39.6929 277.174 40.4167 278.067 40.4167C278.96 40.4167 279.683 39.6929 279.683 38.8Z" fill="white"/>
<circle cx="149.946" cy="159.646" r="63.4542" fill="#62D5B4"/>
<circle cx="149.946" cy="159.646" r="57.7958" fill="#F9F8F4"/>
<path d="M150.498 134.816C145.478 134.816 140.57 136.305 136.396 139.094C132.222 141.882 128.969 145.847 127.048 150.484C125.127 155.122 124.624 160.226 125.604 165.149C126.583 170.073 129 174.595 132.55 178.145C136.1 181.695 140.622 184.112 145.546 185.092C150.469 186.071 155.573 185.568 160.211 183.647C164.849 181.726 168.813 178.473 171.602 174.299C174.391 170.125 175.879 165.218 175.879 160.198C175.872 153.468 173.195 147.017 168.437 142.258C163.678 137.5 157.227 134.824 150.498 134.816ZM149.394 144.748C149.394 144.455 149.51 144.175 149.717 143.968C149.924 143.761 150.205 143.644 150.498 143.644C150.79 143.644 151.071 143.761 151.278 143.968C151.485 144.175 151.601 144.455 151.601 144.748V157.99C151.601 158.283 151.485 158.564 151.278 158.771C151.071 158.978 150.79 159.094 150.498 159.094C150.205 159.094 149.924 158.978 149.717 158.771C149.51 158.564 149.394 158.283 149.394 157.99V144.748ZM150.498 174.544C147.592 174.544 144.755 173.661 142.362 172.014C139.969 170.366 138.133 168.031 137.096 165.317C136.06 162.603 135.871 159.638 136.556 156.815C137.242 153.991 138.768 151.442 140.933 149.505C141.041 149.407 141.167 149.331 141.304 149.282C141.441 149.233 141.587 149.211 141.733 149.218C141.878 149.226 142.021 149.262 142.152 149.325C142.284 149.388 142.402 149.476 142.499 149.585C142.596 149.693 142.671 149.82 142.719 149.958C142.767 150.095 142.787 150.241 142.778 150.387C142.77 150.532 142.732 150.674 142.668 150.805C142.604 150.936 142.515 151.053 142.405 151.15C140.57 152.791 139.277 154.952 138.699 157.345C138.12 159.739 138.283 162.251 139.166 164.55C140.049 166.848 141.61 168.824 143.642 170.215C145.674 171.606 148.081 172.345 150.543 172.336C153.005 172.327 155.406 171.57 157.428 170.164C159.45 168.758 160.996 166.771 161.862 164.466C162.728 162.161 162.872 159.647 162.276 157.258C161.68 154.869 160.371 152.718 158.524 151.09C158.411 150.995 158.318 150.879 158.251 150.748C158.184 150.617 158.144 150.474 158.133 150.327C158.122 150.181 158.14 150.033 158.187 149.894C158.234 149.754 158.308 149.626 158.405 149.515C158.503 149.405 158.621 149.315 158.754 149.251C158.886 149.187 159.03 149.15 159.177 149.143C159.324 149.135 159.471 149.157 159.609 149.207C159.748 149.257 159.875 149.335 159.983 149.435C162.169 151.362 163.717 153.909 164.42 156.737C165.123 159.565 164.948 162.541 163.918 165.267C162.888 167.994 161.052 170.342 158.655 171.999C156.257 173.656 153.412 174.544 150.498 174.544Z" fill="#62D5B4"/>
<path d="M111.146 70.6189C109.853 70.6189 108.832 70.1916 108.083 69.3369C107.334 68.4781 106.959 67.3119 106.959 65.8384C106.959 64.3564 107.332 63.1881 108.077 62.3335C108.826 61.4788 109.847 61.0515 111.14 61.0515C112.175 61.0515 113.053 61.3567 113.773 61.9672C114.493 62.5734 114.901 63.3523 114.998 64.3038H113.394C113.28 63.7565 113.019 63.3207 112.611 62.9966C112.203 62.6682 111.712 62.504 111.14 62.504C110.365 62.504 109.752 62.8029 109.302 63.4007C108.851 63.9943 108.626 64.8048 108.626 65.832C108.626 66.8593 108.851 67.6718 109.302 68.2697C109.752 68.8675 110.367 69.1664 111.146 69.1664C111.723 69.1664 112.215 69.017 112.624 68.718C113.032 68.4149 113.291 68.0086 113.4 67.4992H115.004C114.895 68.4339 114.487 69.1875 113.779 69.76C113.072 70.3326 112.194 70.6189 111.146 70.6189ZM120.751 61.0515C122.073 61.0515 123.119 61.4809 123.89 62.3398C124.664 63.1986 125.052 64.3627 125.052 65.832C125.052 67.3013 124.666 68.4675 123.896 69.3306C123.126 70.1895 122.077 70.6189 120.751 70.6189C119.417 70.6189 118.362 70.1895 117.587 69.3306C116.817 68.4717 116.432 67.3056 116.432 65.832C116.432 64.3627 116.819 63.1986 117.594 62.3398C118.372 61.4809 119.425 61.0515 120.751 61.0515ZM120.751 62.4977C119.939 62.4977 119.292 62.7987 118.812 63.4007C118.337 64.0028 118.099 64.8132 118.099 65.832C118.099 66.8551 118.335 67.6676 118.806 68.2697C119.282 68.8717 119.93 69.1727 120.751 69.1727C121.559 69.1727 122.199 68.8717 122.671 68.2697C123.147 67.6634 123.385 66.8509 123.385 65.832C123.385 64.8132 123.147 64.0028 122.671 63.4007C122.199 62.7987 121.559 62.4977 120.751 62.4977ZM128.493 70.3915H126.921V61.2788H128.336L132.807 67.474H132.914V61.2788H134.48V70.3915H133.072L128.601 64.1901H128.493V70.3915ZM138.307 70.3915H136.735V61.2788H138.149L142.62 67.474H142.728V61.2788H144.294V70.3915H142.886L138.414 64.1901H138.307V70.3915ZM152.447 68.9833V70.3915H146.548V61.2788H152.447V62.6871H148.178V65.1058H152.213V66.432H148.178V68.9833H152.447ZM158.269 70.6189C156.977 70.6189 155.956 70.1916 155.206 69.3369C154.457 68.4781 154.082 67.3119 154.082 65.8384C154.082 64.3564 154.455 63.1881 155.2 62.3335C155.949 61.4788 156.97 61.0515 158.263 61.0515C159.299 61.0515 160.176 61.3567 160.896 61.9672C161.616 62.5734 162.025 63.3523 162.121 64.3038H160.517C160.404 63.7565 160.143 63.3207 159.734 62.9966C159.326 62.6682 158.835 62.504 158.263 62.504C157.488 62.504 156.876 62.8029 156.425 63.4007C155.975 63.9943 155.749 64.8048 155.749 65.832C155.749 66.8593 155.975 67.6718 156.425 68.2697C156.876 68.8675 157.49 69.1664 158.269 69.1664C158.846 69.1664 159.338 69.017 159.747 68.718C160.155 68.4149 160.414 68.0086 160.524 67.4992H162.128C162.018 68.4339 161.61 69.1875 160.903 69.76C160.195 70.3326 159.317 70.6189 158.269 70.6189ZM167.597 70.3915H165.967V62.6871H163.163V61.2788H170.407V62.6871H167.597V70.3915ZM178.01 68.9833V70.3915H172.112V61.2788H178.01V62.6871H173.741V65.1058H177.776V66.432H173.741V68.9833H178.01ZM180.031 61.2788H183.447C184.803 61.2788 185.856 61.6746 186.605 62.4661C187.359 63.2534 187.735 64.3627 187.735 65.7941C187.735 67.255 187.361 68.3875 186.611 69.1917C185.866 69.9916 184.812 70.3915 183.447 70.3915H180.031V61.2788ZM181.66 62.6871V68.9833H183.233C184.142 68.9833 184.843 68.7096 185.336 68.1623C185.828 67.615 186.075 66.834 186.075 65.8194C186.075 64.8258 185.824 64.0554 185.323 63.5081C184.826 62.9608 184.129 62.6871 183.233 62.6871H181.66ZM189.788 61.2725H191.537L191.392 67.3792H189.933L189.788 61.2725ZM189.617 69.5516C189.617 69.2443 189.712 69.0001 189.902 68.8191C190.091 68.6338 190.346 68.5412 190.666 68.5412C190.986 68.5412 191.24 68.6338 191.43 68.8191C191.619 69.0001 191.714 69.2443 191.714 69.5516C191.714 69.8548 191.619 70.0989 191.43 70.2842C191.24 70.4652 190.986 70.5557 190.666 70.5557C190.346 70.5557 190.091 70.4652 189.902 70.2842C189.712 70.0989 189.617 69.8548 189.617 69.5516Z" fill="white"/>
<g filter="url(#filter0_ii)">
<path d="M0 4.04167C0 1.80952 1.80952 0 4.04167 0H295.042C297.274 0 299.083 1.80952 299.083 4.04167V17.7833H0V4.04167Z" fill="url(#paint0_linear)"/>
</g>
<path d="M136.486 6.18292L134.9 11.6167H133.813L131.817 4.2126H133.012L134.372 9.88238H134.444L135.988 4.2126H137.055L138.61 9.88238H138.682L140.037 4.2126H141.232L139.231 11.6167H138.148L136.558 6.18292H136.486ZM144.971 7.2553C144.725 6.99191 144.398 6.86021 143.991 6.86021C143.584 6.86021 143.249 6.99191 142.986 7.2553C142.722 7.51869 142.575 7.86931 142.544 8.30716H145.366C145.353 7.86589 145.221 7.51527 144.971 7.2553ZM145.361 10.1081H146.423C146.297 10.611 146.02 11.0061 145.592 11.2934C145.168 11.5808 144.638 11.7244 144.002 11.7244C143.201 11.7244 142.57 11.4679 142.108 10.9548C141.65 10.4382 141.421 9.73358 141.421 8.84079C141.421 7.94799 141.653 7.2382 142.118 6.71141C142.584 6.18463 143.21 5.92123 143.996 5.92123C144.773 5.92123 145.382 6.17094 145.823 6.67036C146.268 7.16978 146.49 7.85905 146.49 8.73817V9.12299H142.544V9.18456C142.561 9.67714 142.703 10.0671 142.97 10.3544C143.237 10.6418 143.591 10.7854 144.032 10.7854C144.706 10.7854 145.149 10.5597 145.361 10.1081ZM150.486 11.6167H149.224L146.576 4.2126H147.828L149.824 10.18H149.911L151.897 4.2126H153.118L150.486 11.6167ZM154.169 4.2126H157.068C157.793 4.2126 158.381 4.44179 158.833 4.90016C159.284 5.35511 159.51 5.9486 159.51 6.68063C159.51 7.40239 159.279 7.99075 158.817 8.4457C158.355 8.89723 157.76 9.12299 157.032 9.12299H155.318V11.6167H154.169V4.2126ZM155.318 5.22855V8.11218H156.765C157.261 8.11218 157.646 7.98904 157.919 7.74275C158.196 7.49304 158.335 7.139 158.335 6.68063C158.335 6.21199 158.2 5.85282 157.93 5.60311C157.659 5.3534 157.271 5.22855 156.765 5.22855H155.318ZM161.869 11.6167H160.75V4.2126H161.787L165.589 9.4719H165.671V4.2126H166.789V11.6167H165.753L161.951 6.35737H161.869V11.6167Z" fill="#423F42"/>
<path d="M15.9646 8.89166C15.9646 11.4586 13.8836 13.5396 11.3167 13.5396C8.74969 13.5396 6.66874 11.4586 6.66874 8.89166C6.66874 6.32468 8.74969 4.24374 11.3167 4.24374C13.8836 4.24374 15.9646 6.32468 15.9646 8.89166Z" fill="#FF5F58" stroke="#E1483F" stroke-width="0.404167"/>
<path d="M32.1312 8.89156C32.1312 11.4585 30.0503 13.5395 27.4833 13.5395C24.9163 13.5395 22.8354 11.4585 22.8354 8.89156C22.8354 6.32459 24.9163 4.24365 27.4833 4.24365C30.0503 4.24365 32.1312 6.32459 32.1312 8.89156Z" fill="#FFBE2F" stroke="#E0A028" stroke-width="0.404167"/>
<path d="M48.2979 8.89156C48.2979 11.4585 46.217 13.5395 43.65 13.5395C41.083 13.5395 39.0021 11.4585 39.0021 8.89156C39.0021 6.32459 41.083 4.24365 43.65 4.24365C46.217 4.24365 48.2979 6.32459 48.2979 8.89156Z" fill="#D9D9D9" stroke="#969696" stroke-width="0.404167"/>
</g>
<defs>
<filter id="filter0_ii" x="0" y="-0.404167" width="299.083" height="18.5917" filterUnits="userSpaceOnUse" color-interpolation-filters="sRGB">
<feFlood flood-opacity="0" result="BackgroundImageFix"/>
<feBlend mode="normal" in="SourceGraphic" in2="BackgroundImageFix" result="shape"/>
<feColorMatrix in="SourceAlpha" type="matrix" values="0 0 0 0 0 0 0 0 0 0 0 0 0 0 0 0 0 0 127 0" result="hardAlpha"/>
<feOffset dy="-0.404167"/>
<feGaussianBlur stdDeviation="0.202083"/>
<feComposite in2="hardAlpha" operator="arithmetic" k2="-1" k3="1"/>
<feColorMatrix type="matrix" values="0 0 0 0 0 0 0 0 0 0 0 0 0 0 0 0 0 0 0.2 0"/>
<feBlend mode="normal" in2="shape" result="effect1_innerShadow"/>
<feColorMatrix in="SourceAlpha" type="matrix" values="0 0 0 0 0 0 0 0 0 0 0 0 0 0 0 0 0 0 127 0" result="hardAlpha"/>
<feOffset dy="0.404167"/>
<feGaussianBlur stdDeviation="0.202083"/>
<feComposite in2="hardAlpha" operator="arithmetic" k2="-1" k3="1"/>
<feColorMatrix type="matrix" values="0 0 0 0 1 0 0 0 0 1 0 0 0 0 1 0 0 0 0.6 0"/>
<feBlend mode="normal" in2="effect1_innerShadow" result="effect2_innerShadow"/>
</filter>
<linearGradient id="paint0_linear" x1="0" y1="0" x2="0" y2="17.7833" gradientUnits="userSpaceOnUse">
<stop stop-color="#E7E6E7"/>
<stop offset="1" stop-color="#D1D0D1"/>
</linearGradient>
</defs>
</svg>
