<svg width="509" height="468" viewBox="0 0 509 468" fill="none" xmlns="http://www.w3.org/2000/svg">
<g clip-path="url(#clip0)">
<path d="M98.6122 29.0006C98.6122 29.0006 156.606 -15.3678 229.419 7.38126C302.233 30.1303 331.075 94.4055 371.882 139.238C393.291 162.724 425.582 172.142 451.261 190.503C533.328 249.213 517.009 374.933 450.857 420.491C393.588 459.936 323.511 462.112 233.427 428.815C143.344 395.518 78.8092 375.302 25.0496 286.541C-28.71 197.781 27.0358 89.4585 98.6122 29.0006Z" fill="#FFD6E1"/>
<path d="M25.451 263.459C25.451 263.459 24.9752 257.644 32.4563 248.821C39.9375 239.997 44.802 234.919 44.802 234.919C44.802 234.919 49.9758 248 43.0774 256.741C37.9787 262.943 32.369 268.707 26.3073 273.972L25.451 263.459Z" fill="#FD3E72"/>
<path d="M40.265 298.838C40.265 298.838 39.7893 293.022 47.2704 284.199C54.7516 275.375 59.6042 270.297 59.6042 270.297C59.6042 270.297 64.778 283.378 57.8796 292.119C52.7833 298.308 47.1776 304.06 41.1214 309.314L40.265 298.838Z" fill="#FD3E72"/>
<path d="M26.7822 273.342C26.7822 273.342 25.688 267.61 16.0779 261.105C6.46778 254.6 0.473373 250.997 0.473373 250.997C0.473373 250.997 -1.03715 264.958 7.95447 271.57C14.5149 276.176 21.4493 280.225 28.6852 283.675L26.7822 273.342Z" fill="#FD3E72"/>
<path d="M44.5957 315.093C44.5957 315.093 42.9068 309.504 32.702 304.034C22.4972 298.564 16.1222 295.615 16.1222 295.615C16.1222 295.615 16.1222 309.659 25.7204 315.284C32.7363 319.163 40.0646 322.449 47.6287 325.106L44.5957 315.093Z" fill="#FD3E72"/>
<path d="M45.7763 362.114C45.7763 362.114 45.3005 356.299 36.4754 348.819C27.6502 341.339 22.0364 337.117 22.0364 337.117C22.0364 337.117 19.0629 350.84 27.3053 358.368C33.3417 363.656 39.8107 368.43 46.6445 372.638L45.7763 362.114Z" fill="#FD3E72"/>
<path d="M46.8424 373.53C46.8424 373.53 45.546 367.834 51.695 358.071C57.8441 348.307 61.9236 342.611 61.9236 342.611C61.9236 342.611 68.9052 354.8 63.3271 364.457C59.1631 371.309 54.4327 377.801 49.1854 383.864L46.8424 373.53Z" fill="#FD3E72"/>
<path d="M57.656 406.732C57.656 406.732 57.1803 400.917 48.3552 393.437C39.5301 385.957 33.9162 381.735 33.9162 381.735C33.9162 381.735 30.9428 395.458 39.1851 402.986C45.2216 408.274 51.6906 413.048 58.5243 417.256L57.656 406.732Z" fill="#FD3E72"/>
<path d="M54.7425 437.876C54.7425 437.876 55.7535 432.121 49.1167 422.655C42.48 413.189 38.115 407.671 38.115 407.671C38.115 407.671 31.7637 420.193 37.8295 429.564C42.3347 436.198 47.3874 442.443 52.9346 448.234L54.7425 437.876Z" fill="#FD3E72"/>
<path d="M24.5871 262.08C25.5014 268.089 26.7442 274.044 28.3099 279.918C32.9009 296.293 41.833 306.365 46.2932 321.135C50.7533 335.904 43.0938 356.025 47.1615 375.135C51.2291 394.245 59.6261 404.353 58.5437 417.423C57.4614 430.492 49.0287 466.31 49.0287 466.31" stroke="#263238" stroke-width="0.53" stroke-linecap="round" stroke-linejoin="round"/>
<path d="M27.1814 277.194L17.8448 271.177" stroke="#263238" stroke-width="0.53" stroke-linecap="round" stroke-linejoin="round"/>
<path d="M26.1248 269.477L29.2646 262.639" stroke="#263238" stroke-width="0.53" stroke-linecap="round" stroke-linejoin="round"/>
<path d="M45.7454 320.493C45.7454 320.493 37.9431 315.581 29.9267 310.694" stroke="#263238" stroke-width="0.53" stroke-linecap="round" stroke-linejoin="round"/>
<path d="M41.1246 309.314C41.1246 309.314 46.2627 296.804 52.5544 288.266" stroke="#263238" stroke-width="0.53" stroke-linecap="round" stroke-linejoin="round"/>
<path d="M46.165 370.426C41.3307 363.036 35.4494 356.387 28.705 350.686" stroke="#263238" stroke-width="0.53" stroke-linecap="round" stroke-linejoin="round"/>
<path d="M48.2613 378.477C50.0601 373.044 52.3078 367.769 54.9813 362.708C58.7516 356.025 59.2987 355.157 59.2987 355.157" stroke="#263238" stroke-width="0.53" stroke-linecap="round" stroke-linejoin="round"/>
<path d="M58.5393 417.423C56.2979 412.951 53.7174 408.657 50.8203 404.579C47.9439 400.815 44.7614 397.295 41.3052 394.055" stroke="#263238" stroke-width="0.53" stroke-linecap="round" stroke-linejoin="round"/>
<path d="M52.9314 448.222C52.998 443.77 51.8729 439.381 49.6725 435.51C46.1044 429.838 42.013 422.369 40.3241 419.42" stroke="#263238" stroke-width="0.53" stroke-linecap="round" stroke-linejoin="round"/>
<path d="M85.2511 336.832C85.2511 336.832 85.5842 333.134 80.8623 327.485C76.1405 321.836 73.072 318.578 73.072 318.578C73.072 318.578 69.7179 326.902 74.071 332.48C77.2856 336.443 80.8264 340.131 84.6564 343.503L85.2511 336.832Z" fill="#C6FF00"/>
<path d="M84.3298 343.111C84.3298 343.111 85.0553 339.46 91.1687 335.369C97.2821 331.278 101.148 329.007 101.148 329.007C101.148 329.007 102.04 337.902 96.2949 342.088C92.0985 344.99 87.6665 347.536 83.0453 349.699L84.3298 343.111Z" fill="#C6FF00"/>
<path d="M63.2815 437.068C63.2815 437.068 62.556 433.417 56.4307 429.338C50.3053 425.259 46.4517 422.988 46.4517 422.988C46.4517 422.988 45.5716 431.883 51.3282 436.069C55.5289 438.967 59.9649 441.509 64.5898 443.668L63.2815 437.068Z" fill="#FD3E72"/>
<path d="M84.052 345.572L90.0226 341.779" stroke="#263238" stroke-width="0.53" stroke-linecap="round" stroke-linejoin="round"/>
<path d="M84.7567 340.649L82.7942 336.285" stroke="#263238" stroke-width="0.53" stroke-linecap="round" stroke-linejoin="round"/>
<path d="M64.2494 440.945C62.0174 438.597 59.5815 436.452 56.9704 434.535C55.3227 433.521 53.7595 432.376 52.2961 431.11" stroke="#263238" stroke-width="0.53" stroke-linecap="round" stroke-linejoin="round"/>
<path d="M75.6195 359.283C75.6195 359.283 75.9525 355.585 71.2307 349.936C66.5088 344.288 63.4403 341.03 63.4403 341.03C63.4403 341.03 60.0862 349.354 64.4393 354.931C67.6539 358.894 71.1948 362.582 75.0248 365.955L75.6195 359.283Z" fill="#FD3E72"/>
<path d="M72.7889 369.606C72.7889 369.606 73.895 366.038 80.4009 362.625C86.9068 359.212 90.9863 357.345 90.9863 357.345C90.9863 357.345 90.9863 366.276 84.7897 369.82C80.3116 372.263 75.6369 374.328 70.8145 375.992L72.7889 369.606Z" fill="#FD3E72"/>
<path d="M71.8439 399.525C71.8439 399.525 72.177 395.827 77.7908 391.106C83.4046 386.385 87.0322 383.721 87.0322 383.721C87.0322 383.721 88.8639 392.462 83.583 397.218C79.7173 400.547 75.5797 403.546 71.2136 406.185L71.8439 399.525Z" fill="#FD3E72"/>
<path d="M71.0977 406.779C71.0977 406.779 71.9541 403.212 68.0886 396.897C64.2232 390.583 61.6423 386.979 61.6423 386.979C61.6423 386.979 57.1465 394.697 60.6551 400.881C63.2728 405.261 66.2527 409.414 69.5635 413.296L71.0977 406.779Z" fill="#FD3E72"/>
<path d="M64.0558 427.864C64.0558 427.864 64.3889 424.165 70.0026 419.444C75.6164 414.723 79.244 412.059 79.244 412.059C79.244 412.059 81.0756 420.8 75.7948 425.557C71.9291 428.885 67.7916 431.884 63.4255 434.523L64.0558 427.864Z" fill="#FD3E72"/>
<path d="M65.7634 447.687C65.7634 447.687 65.1449 444.024 69.4148 438.031C73.6846 432.038 76.4915 428.518 76.4915 428.518C76.4915 428.518 80.4759 436.521 76.5748 442.455C73.6789 446.654 70.4364 450.604 66.8814 454.263L65.7634 447.687Z" fill="#FD3E72"/>
<path d="M85.7758 335.928C85.1677 339.76 84.3498 343.555 83.3257 347.297C80.3285 357.702 74.5958 364.064 71.6937 373.459C68.7917 382.853 73.561 395.684 70.8968 407.814C68.2327 419.944 62.833 426.353 63.4633 434.666C64.0937 442.978 69.2793 465.822 69.2793 465.822" stroke="#263238" stroke-width="0.53" stroke-linecap="round" stroke-linejoin="round"/>
<path d="M72.0444 373.03C72.0444 373.03 77.0397 369.938 82.1539 366.87" stroke="#263238" stroke-width="0.53" stroke-linecap="round" stroke-linejoin="round"/>
<path d="M75.0251 365.943C73.11 361.229 70.7189 356.722 67.8889 352.493" stroke="#263238" stroke-width="0.53" stroke-linecap="round" stroke-linejoin="round"/>
<path d="M71.5495 404.782C74.6601 400.099 78.4341 395.893 82.7534 392.295" stroke="#263238" stroke-width="0.53" stroke-linecap="round" stroke-linejoin="round"/>
<path d="M70.1793 409.919C69.0574 406.454 67.6491 403.089 65.969 399.858C63.5902 395.589 63.2572 395.03 63.2572 395.03" stroke="#263238" stroke-width="0.53" stroke-linecap="round" stroke-linejoin="round"/>
<path d="M63.4325 434.666C64.8797 431.832 66.5417 429.112 68.4041 426.532C70.2509 424.148 72.2917 421.92 74.5056 419.872" stroke="#263238" stroke-width="0.53" stroke-linecap="round" stroke-linejoin="round"/>
<path d="M66.866 454.287C66.8488 451.453 67.5878 448.666 69.0069 446.213C71.2905 442.645 73.9428 437.888 75.0251 436.021" stroke="#263238" stroke-width="0.53" stroke-linecap="round" stroke-linejoin="round"/>
<path d="M432.411 263.459C432.411 263.459 431.935 257.644 439.417 248.821C446.898 239.997 451.75 234.919 451.75 234.919C451.75 234.919 456.924 248 450.026 256.741C444.935 262.942 439.333 268.706 433.279 273.972L432.411 263.459Z" fill="#C6FF00"/>
<path d="M433.725 273.342C433.725 273.342 432.631 267.61 423.021 261.105C413.411 254.6 407.416 250.997 407.416 250.997C407.416 250.997 405.906 264.958 414.898 271.57C421.458 276.176 428.393 280.225 435.628 283.675L433.725 273.342Z" fill="#C6FF00"/>
<path d="M451.56 315.094C451.56 315.094 449.871 309.504 439.666 304.034C429.462 298.564 423.087 295.615 423.087 295.615C423.087 295.615 423.087 309.659 432.685 315.284C439.701 319.164 447.029 322.449 454.593 325.107L451.56 315.094Z" fill="#C6FF00"/>
<path d="M434.145 277.194L424.808 271.177" stroke="#263238" stroke-width="0.53" stroke-linecap="round" stroke-linejoin="round"/>
<path d="M433.108 269.477L436.248 262.639" stroke="#263238" stroke-width="0.53" stroke-linecap="round" stroke-linejoin="round"/>
<path d="M452.749 320.493C452.749 320.493 444.946 315.581 436.93 310.694" stroke="#263238" stroke-width="0.53" stroke-linecap="round" stroke-linejoin="round"/>
<path d="M447.228 298.837C447.228 298.837 446.812 292.999 454.234 284.199C461.655 275.399 466.567 270.297 466.567 270.297C466.567 270.297 471.741 283.378 464.843 292.119C459.747 298.308 454.141 304.06 448.085 309.314L447.228 298.837Z" fill="#FD3E72"/>
<path d="M452.752 362.114C452.752 362.114 452.276 356.299 443.451 348.819C434.626 341.339 428.965 337.117 428.965 337.117C428.965 337.117 425.991 350.84 434.234 358.368C440.27 363.656 446.739 368.43 453.573 372.638L452.752 362.114Z" fill="#FD3E72"/>
<path d="M453.808 373.53C453.808 373.53 452.512 367.834 458.661 358.071C464.81 348.307 468.901 342.611 468.901 342.611C468.901 342.611 475.871 354.717 470.293 364.35C466.129 371.202 461.399 377.694 456.151 383.757L453.808 373.53Z" fill="#FD3E72"/>
<path d="M464.647 406.732C464.647 406.732 464.171 400.917 455.346 393.437C446.521 385.957 440.859 381.723 440.859 381.723C440.859 381.723 437.886 395.447 446.128 402.974C452.165 408.262 458.634 413.036 465.468 417.244L464.647 406.732Z" fill="#FD3E72"/>
<path d="M461.704 437.877C461.704 437.877 462.727 432.133 456.078 422.619C449.43 413.106 445.077 407.636 445.077 407.636C445.077 407.636 438.726 420.158 444.791 429.529C449.295 436.171 454.348 442.424 459.896 448.222L461.704 437.877Z" fill="#FD3E72"/>
<path d="M431.55 262.08C432.465 268.089 433.708 274.044 435.273 279.918C439.864 296.293 448.796 306.365 453.257 321.135C457.717 335.904 450.057 356.025 454.125 375.135C458.192 394.245 466.589 404.353 465.507 417.423C464.425 430.492 455.992 466.31 455.992 466.31" stroke="#263238" stroke-width="0.53" stroke-linecap="round" stroke-linejoin="round"/>
<path d="M448.088 309.314C448.088 309.314 453.226 296.804 459.518 288.242" stroke="#263238" stroke-width="0.53" stroke-linecap="round" stroke-linejoin="round"/>
<path d="M453.108 370.426C448.274 363.036 442.393 356.387 435.648 350.686" stroke="#263238" stroke-width="0.53" stroke-linecap="round" stroke-linejoin="round"/>
<path d="M455.21 378.477C457.008 373.044 459.256 367.769 461.929 362.708C465.7 356.025 466.247 355.157 466.247 355.157" stroke="#263238" stroke-width="0.53" stroke-linecap="round" stroke-linejoin="round"/>
<path d="M465.508 417.423C463.266 412.951 460.686 408.657 457.789 404.579C454.912 400.815 451.73 397.295 448.274 394.055" stroke="#263238" stroke-width="0.53" stroke-linecap="round" stroke-linejoin="round"/>
<path d="M459.895 448.222C459.961 443.77 458.836 439.381 456.636 435.51C453.068 429.838 448.976 422.369 447.287 419.42" stroke="#263238" stroke-width="0.53" stroke-linecap="round" stroke-linejoin="round"/>
<path d="M470.263 437.068C470.263 437.068 469.538 433.417 463.413 429.338C457.287 425.259 453.434 422.988 453.434 422.988C453.434 422.988 452.554 431.883 458.31 436.069C462.511 438.967 466.947 441.509 471.572 443.668L470.263 437.068Z" fill="#FD3E72"/>
<path d="M472.727 447.687C472.727 447.687 472.108 444.025 476.378 438.031C480.648 432.038 483.455 428.518 483.455 428.518C483.455 428.518 487.439 436.521 483.538 442.455C480.642 446.654 477.4 450.604 473.845 454.263L472.727 447.687Z" fill="#FD3E72"/>
<path d="M492.194 336.832C492.194 336.832 492.527 333.134 487.806 327.485C483.084 321.836 480.015 318.578 480.015 318.578C480.015 318.578 476.661 326.902 481.014 332.48C484.229 336.443 487.77 340.131 491.6 343.503L492.194 336.832Z" fill="#FD3E72"/>
<path d="M482.583 359.284C482.583 359.284 482.916 355.585 478.194 349.937C473.472 344.288 470.404 341.03 470.404 341.03C470.404 341.03 467.05 349.354 471.403 354.931C474.617 358.895 478.158 362.582 481.988 365.955L482.583 359.284Z" fill="#FD3E72"/>
<path d="M491.293 343.111C491.293 343.111 492.018 339.46 498.132 335.369C504.245 331.278 508.111 329.007 508.111 329.007C508.111 329.007 509.003 337.902 503.258 342.088C499.062 344.99 494.63 347.536 490.008 349.699L491.293 343.111Z" fill="#FD3E72"/>
<path d="M479.752 369.606C479.752 369.606 480.846 366.038 487.364 362.625C493.882 359.212 497.95 357.333 497.95 357.333C497.95 357.333 497.95 366.264 491.753 369.808C487.26 372.258 482.569 374.326 477.73 375.992L479.752 369.606Z" fill="#FD3E72"/>
<path d="M478.787 399.525C478.787 399.525 479.12 395.827 484.734 391.106C490.348 386.385 493.975 383.721 493.975 383.721C493.975 383.721 495.807 392.462 490.526 397.218C486.661 400.547 482.523 403.546 478.157 406.185L478.787 399.525Z" fill="#FD3E72"/>
<path d="M478.061 406.779C478.061 406.779 478.917 403.212 475.052 396.897C471.186 390.583 468.605 386.944 468.605 386.944C468.605 386.944 464.11 394.662 467.618 400.845C470.242 405.238 473.23 409.403 476.55 413.296L478.061 406.779Z" fill="#FD3E72"/>
<path d="M471.014 427.864C471.014 427.864 471.347 424.165 476.961 419.444C482.575 414.723 486.202 412.059 486.202 412.059C486.202 412.059 488.034 420.8 482.753 425.557C478.898 428.88 474.773 431.875 470.419 434.511L471.014 427.864Z" fill="#FD3E72"/>
<path d="M492.739 335.928C492.131 339.76 491.313 343.555 490.289 347.297C487.292 357.702 481.559 364.064 478.657 373.459C475.755 382.853 480.524 395.684 477.86 407.814C475.196 419.944 469.796 426.353 470.426 434.666C471.057 442.978 476.242 465.822 476.242 465.822" stroke="#263238" stroke-width="0.53" stroke-linecap="round" stroke-linejoin="round"/>
<path d="M491.015 345.572L496.985 341.779" stroke="#263238" stroke-width="0.53" stroke-linecap="round" stroke-linejoin="round"/>
<path d="M491.72 340.649L489.757 336.285" stroke="#263238" stroke-width="0.53" stroke-linecap="round" stroke-linejoin="round"/>
<path d="M479.002 373.03C479.002 373.03 483.998 369.939 489.112 366.87" stroke="#263238" stroke-width="0.53" stroke-linecap="round" stroke-linejoin="round"/>
<path d="M482.003 365.943C480.088 361.229 477.697 356.722 474.867 352.493" stroke="#263238" stroke-width="0.53" stroke-linecap="round" stroke-linejoin="round"/>
<path d="M478.513 404.782C481.623 400.099 485.397 395.893 489.717 392.295" stroke="#263238" stroke-width="0.53" stroke-linecap="round" stroke-linejoin="round"/>
<path d="M477.138 409.919C476.035 406.456 474.646 403.091 472.987 399.858C470.608 395.589 470.275 395.03 470.275 395.03" stroke="#263238" stroke-width="0.53" stroke-linecap="round" stroke-linejoin="round"/>
<path d="M471.193 440.945C468.962 438.589 466.526 436.436 463.914 434.511C462.266 433.497 460.703 432.352 459.239 431.086" stroke="#263238" stroke-width="0.53" stroke-linecap="round" stroke-linejoin="round"/>
<path d="M470.415 434.666C471.854 431.828 473.508 429.105 475.362 426.52C477.209 424.136 479.25 421.908 481.464 419.86" stroke="#263238" stroke-width="0.53" stroke-linecap="round" stroke-linejoin="round"/>
<path d="M473.849 454.287C473.832 451.453 474.571 448.666 475.99 446.213C478.274 442.645 480.926 437.888 482.008 436.021" stroke="#263238" stroke-width="0.53" stroke-linecap="round" stroke-linejoin="round"/>
<path d="M447.473 63H70.5272C67.4746 63 65 65.4697 65 68.5161V356.484C65 359.53 67.4746 362 70.5272 362H447.473C450.525 362 453 359.53 453 356.484V68.5161C453 65.4697 450.525 63 447.473 63Z" fill="#EDEDED"/>
<path d="M65 68C65 65.2386 67.2386 63 70 63H448C450.761 63 453 65.2386 453 68V90H65V68Z" fill="#CECECE"/>
<circle cx="83" cy="76" r="5" fill="#FD3E72"/>
<circle cx="103" cy="76" r="5" fill="#EBB829"/>
<circle cx="123" cy="76" r="5" fill="#08AE7E"/>
<path d="M443 113H187V323H443V113Z" fill="#FCFCFC"/>
<path d="M353.313 332.016H303.002C301.367 332.016 300.041 333.341 300.041 334.977V347.796C300.041 349.432 301.367 350.757 303.002 350.757H353.313C354.948 350.757 356.274 349.432 356.274 347.796V334.977C356.274 333.341 354.948 332.016 353.313 332.016Z" fill="#A3A3A3" stroke="#FD3E72" stroke-width="1.06" stroke-miterlimit="10"/>
<path d="M427.768 332.016H377.457C375.822 332.016 374.496 333.341 374.496 334.977V347.796C374.496 349.432 375.822 350.757 377.457 350.757H427.768C429.404 350.757 430.73 349.432 430.73 347.796V334.977C430.73 333.341 429.404 332.016 427.768 332.016Z" fill="#A3A3A3"/>
<path d="M335.9 124H202V129.863H335.9V124Z" fill="#263238"/>
<path d="M286.529 136.558H202V142.42H286.529V136.558Z" fill="#263238"/>
<path d="M204.487 167.512H407.846" stroke="#263238" stroke-width="1.06" stroke-miterlimit="10"/>
<path d="M204.487 205.162H407.846" stroke="#263238" stroke-width="1.06" stroke-miterlimit="10"/>
<path d="M204.487 214.366H407.846" stroke="#263238" stroke-width="1.06" stroke-miterlimit="10"/>
<path d="M204.487 223.57H407.846" stroke="#263238" stroke-width="1.06" stroke-miterlimit="10"/>
<path d="M204.487 232.774H238.801" stroke="#263238" stroke-width="1.06" stroke-miterlimit="10"/>
<path d="M204.487 175.04H281.487" stroke="#263238" stroke-width="1.06" stroke-miterlimit="10"/>
<path d="M204.487 253.692H281.487" stroke="#263238" stroke-width="1.06" stroke-miterlimit="10"/>
<path d="M194.812 337.034C186.824 337.034 180.349 329.618 180.349 320.469C180.349 311.32 186.824 303.904 194.812 303.904C202.799 303.904 209.274 311.32 209.274 320.469C209.274 329.618 202.799 337.034 194.812 337.034Z" fill="#263238" stroke="#263238" stroke-width="1.06" stroke-linejoin="round"/>
<path d="M265.397 323.68C269.834 322.588 274.083 320.841 278.004 318.495C284.677 314.535 284.926 308.363 282.952 303.666C280.978 298.968 262.186 279.192 243.156 274.995C224.126 270.797 209.782 284.139 203.597 299.468C197.412 314.796 202.11 332.337 206.321 337.522C210.531 342.706 221.152 346.417 225.85 342.956C230.548 339.496 238.208 329.114 247.354 324.916C253.044 322.428 259.421 321.991 265.397 323.68Z" fill="#263238" stroke="#263238" stroke-width="1.06" stroke-linejoin="round"/>
<path d="M241.809 400.501C242 413.677 253.513 450.636 258.996 467.523H201.192L186.432 370.593L200.277 363.921C200.277 363.921 210.909 358.974 218.117 360.711C225.325 362.447 234.435 367.846 234.435 367.846L242.095 370.569C242.095 370.569 241.571 383.198 241.809 400.501Z" fill="#FFB7CA"/>
<path opacity="0.2" d="M243.157 467.523C241.968 462.291 239.506 451.588 235.51 434.226C229.479 408.064 228.98 366.895 228.98 366.895C229.408 377.716 246.618 448.175 251.388 467.511L243.157 467.523Z" fill="black"/>
<path d="M241.809 400.501C242 413.677 253.513 450.636 258.996 467.523H201.192L186.432 370.593L200.276 363.921C200.276 363.921 210.909 358.974 218.117 360.711C225.325 362.447 234.435 367.846 234.435 367.846L242.095 370.569C242.095 370.569 241.571 383.198 241.809 400.501Z" stroke="#263238" stroke-width="1.06" stroke-linejoin="round"/>
<path d="M234.887 356.025C234.887 356.025 230.248 361.091 229.404 364.885C228.56 368.678 231.533 383.483 224.397 387.277C217.261 391.07 209.208 383.9 204.986 375.456C200.764 367.013 202.81 361.971 202.81 361.971C202.81 361.971 212.943 351.839 217.582 344.252C220.515 339.375 222.806 334.139 224.397 328.674C224.397 328.674 226.93 342.599 230.344 347.701C232.137 350.314 233.66 353.103 234.887 356.025Z" fill="#FFBE9D"/>
<path opacity="0.05" d="M231.998 357.868L232.724 358.713C231.631 360.134 230.702 361.674 229.953 363.303C226.687 362.032 223.892 359.785 221.948 356.87C219.474 353.219 219.236 346.084 219.45 340.935C220.033 339.817 220.557 338.723 221.032 337.664C223.031 342.516 227.514 352.636 231.998 357.868Z" fill="black"/>
<path d="M263.394 305.378C263.394 305.378 244.364 320.148 235.123 323.525C225.881 326.902 214.903 325.214 214.903 325.214C214.676 326.096 214.672 327.022 214.892 327.906C215.112 328.791 215.549 329.606 216.164 330.279C217.559 331.714 218.829 333.265 219.958 334.917C219.958 334.917 219.542 347.57 223.752 353.944C227.963 360.318 233.457 363.648 241.058 360.699C248.658 357.75 254.985 353.944 258.779 347.618C262.573 341.291 262.157 334.965 263.846 330.743L268.913 318.09C268.913 318.09 266.772 308.755 263.394 305.378Z" fill="#FFBE9D"/>
<path d="M176.471 467.523C172.034 442.265 159.82 371.52 162.71 370.093C166.123 368.369 202.815 361.971 202.815 361.971C202.815 361.971 206.954 391.855 212.39 419.29C215.958 437.496 219.823 456.677 221.988 467.535L176.471 467.523Z" fill="#F33166"/>
<path d="M255.411 375.29C255.411 375.29 262.226 381.022 262.643 385.255C263.059 389.489 270.266 440.267 270.266 440.267C270.266 440.267 271.955 438.15 274.072 438.994C275.464 439.635 276.641 440.663 277.462 441.955C277.499 441.628 277.633 441.318 277.846 441.067C278.06 440.815 278.343 440.632 278.66 440.542C278.977 440.451 279.315 440.457 279.629 440.558C279.943 440.66 280.219 440.852 280.424 441.111C282.636 443.026 284.23 450.422 284.23 450.422C284.23 450.422 280.84 461.422 278.283 463.123C275.726 464.823 271.932 462.279 271.932 462.279C271.932 462.279 272.36 463.967 267.697 463.967C263.035 463.967 262.191 456.832 260.561 453.812C258.932 450.791 253.794 419.111 251.248 401.761C248.703 384.411 255.411 375.29 255.411 375.29Z" fill="#EF275D"/>
<path d="M268.493 467.523H247.084C244.979 459.199 241.601 445.618 238.14 431.146C232.455 407.362 229.434 364.909 229.434 364.909L255.445 375.278C254.586 389.609 254.753 403.984 255.945 418.291C257.277 434.511 264.271 455.81 268.493 467.523Z" fill="#F33166"/>
<path d="M180.952 376.36L195.76 437.722L202.111 436.033L205.073 438.566C205.073 438.566 207.19 435.605 209.307 438.994C210.45 440.894 211.878 442.607 213.541 444.072L210.58 461.422C210.58 461.422 198.02 466.571 196.188 466.072C194.917 465.75 193.816 464.956 193.109 463.851C192.403 462.747 192.143 461.415 192.382 460.126C190.821 461.027 189.093 461.602 187.304 461.815C186.197 461.815 183.236 459.722 180.655 457.736C177.842 455.584 175.765 452.613 174.708 449.233C170.26 434.844 157.522 393.746 155.5 388.181C150.421 374.22 163.54 369.154 165.229 369.154" fill="#FD3E72"/>
<path d="M351.826 448.781C351.826 448.781 361.198 453.193 360.378 454.014C359.557 454.834 353.241 451.814 351.826 451.528C350.411 451.243 348.793 448.258 351.826 448.781Z" fill="white" stroke="#263238" stroke-width="1.06" stroke-linecap="round" stroke-linejoin="round"/>
<path d="M348.25 445.785C348.25 445.785 351.283 445.238 351.818 446.617C352.354 447.996 354.851 455.441 354.578 457.094C354.304 458.747 351.818 455.441 350.712 453.788C349.606 452.135 348.25 445.785 348.25 445.785Z" fill="white" stroke="#263238" stroke-width="1.06" stroke-linecap="round" stroke-linejoin="round"/>
<path d="M342.462 445.785C342.462 445.785 347.421 444.405 348.254 445.785C349.087 447.164 353.487 456.808 353.487 456.808C353.487 456.808 354.034 457.914 351.56 456.808C349.087 455.702 342.462 445.785 342.462 445.785Z" fill="white" stroke="#263238" stroke-width="1.06" stroke-linecap="round" stroke-linejoin="round"/>
<path d="M283.182 445.785L314.617 448.781C314.617 448.781 336.395 444.369 338.881 444.096C341.366 443.822 343.84 445.749 344.946 447.402C346.053 449.055 352.939 457.879 352.939 457.879L351.286 458.426L341.64 450.708C341.64 450.708 336.407 450.434 334.742 450.434C333.076 450.434 339.428 454.002 341.354 454.299C343.281 454.596 345.493 454.846 345.22 455.952C344.946 457.058 339.987 457.332 338.881 457.332C337.774 457.332 330.055 454.573 330.055 454.573C330.055 454.573 328.129 454.573 325.643 454.846C323.157 455.12 318.745 453.193 318.745 453.193C318.745 453.193 279.59 462.564 276.843 462.29C274.096 462.017 273.881 447.592 283.182 445.785Z" fill="#FFBE9D"/>
<path d="M292.826 446.879C292.826 446.879 298.345 449.911 300.819 450.185C303.293 450.458 303.019 452.67 300.819 453.491C298.619 454.311 290.9 450.458 289.234 450.458C287.569 450.458 274.617 451.564 271.87 451.838C269.122 452.111 267.457 449.352 274.355 447.152C281.254 444.952 292.826 446.879 292.826 446.879Z" fill="#FFBE9D"/>
<path d="M286.697 443.014C286.697 443.014 291.811 441.825 292.465 443.953C293.119 446.082 299.102 454.537 299.245 455.346C299.387 456.154 297.27 456.82 294.832 454.156C292.394 451.493 286.697 443.014 286.697 443.014Z" fill="#EFAB8A"/>
<path d="M282.899 441.92C282.899 441.92 287.312 440.814 288.418 441.92C289.524 443.026 297.243 455.976 297.243 457.082C297.243 458.188 294.21 457.629 294.21 457.629L285.385 445.499L282.626 443.014L282.899 441.92Z" fill="#F6B291"/>
<path d="M201.587 461.767C199.819 461.55 198.186 460.715 196.975 459.409C195.765 458.103 195.056 456.411 194.974 454.632C194.427 448.02 201.587 441.682 206.558 441.396C211.53 441.111 234.675 446.355 244.059 446.629C253.443 446.902 261.709 446.902 263.636 446.082C265.563 445.261 281.833 441.944 282.94 441.944C284.046 441.944 295.345 457.653 295.345 457.653C295.345 457.653 294.512 459.579 292.312 457.653C290.111 455.726 282.94 449.102 282.94 449.102H274.947C274.947 449.102 282.392 453.514 283.499 454.335C284.605 455.155 289.017 459.853 287.911 460.126C286.805 460.4 281.025 455.441 281.025 455.441L272.699 453.241C272.699 453.241 266.633 457.106 261.115 457.379C257.84 457.553 254.563 457.084 251.469 456C251.469 456 219.499 462.041 201.587 461.767Z" fill="#FAB796"/>
<path d="M22.9334 467.368H501.192" stroke="#263238" stroke-width="1.06" stroke-linejoin="round"/>
<path d="M248.234 461.934H396.358V467.368H248.234V461.934Z" fill="#5B5863" stroke="#263238" stroke-width="1.06" stroke-linejoin="round"/>
<path d="M248.245 461.934H317.835V467.368H248.245V461.934Z" fill="#263238" stroke="#263238" stroke-width="1.06" stroke-linejoin="round"/>
<path d="M314.375 461.934L341.755 393.211H427.116L392.909 461.934H314.375Z" fill="#263238" stroke="#263238" stroke-width="1.06" stroke-linejoin="round"/>
<path d="M317.822 461.934L345.202 393.211H430.563L396.356 461.934H317.822Z" fill="#5B5863"/>
<rect x="78" y="122" width="89" height="23" fill="#E3E3E3"/>
<rect x="78" y="152" width="89" height="23" fill="#E3E3E3"/>
<rect x="78" y="182" width="89" height="23" fill="#E3E3E3"/>
<rect x="78" y="212" width="89" height="23" fill="#E3E3E3"/>
</g>
<defs>
<clipPath id="clip0">
<rect width="509" height="468" fill="white" transform="matrix(-1 0 0 1 509 0)"/>
</clipPath>
</defs>
</svg>
