<svg width="441" height="510" viewBox="0 0 441 510" fill="none" xmlns="http://www.w3.org/2000/svg">
<circle cx="220.5" cy="272.5" r="220.5" fill="#FFF0F5"/>
<path d="M385 272.5C385 363.351 311.351 437 220.5 437C129.649 437 56 363.351 56 272.5C56 181.649 129.649 108 220.5 108C311.351 108 385 181.649 385 272.5Z" fill="#FFDEE9"/>
<circle cx="220" cy="219" r="152" fill="white"/>
<path d="M219.121 32.683C315.557 34.9276 394.219 113.54 396.514 209.977C397.529 249.563 385.526 288.39 362.346 320.496L360.566 322.907L360.317 323.256L231.624 498.305C228.998 501.876 225.552 504.763 221.577 506.722C217.601 508.681 213.213 509.655 208.782 509.562C204.351 509.469 200.007 508.312 196.117 506.188C192.227 504.064 188.906 501.035 186.432 497.358L70.0429 324.437C48.0288 290.85 32.9315 255.767 32.9315 214.399C32.9309 190.157 37.7798 166.159 47.1927 143.819C56.6057 121.478 70.3924 101.247 87.7415 84.3144C105.091 67.382 125.652 54.0912 148.214 45.2242C170.777 36.3572 194.885 32.0931 219.121 32.683ZM214.798 346.584C241.827 346.587 268.249 338.575 290.725 323.561C313.2 308.547 330.718 287.205 341.064 262.235C351.41 237.264 354.119 209.786 348.848 183.276C343.577 156.766 330.563 132.415 311.451 113.301C292.34 94.1878 267.99 81.1708 241.481 75.8965C214.971 70.6222 187.493 73.3275 162.522 83.6703C137.55 94.0131 116.206 111.529 101.189 134.002C86.1721 156.476 78.1569 182.898 78.1569 209.927C78.1569 246.168 92.5524 280.924 118.177 306.552C143.802 332.18 178.557 346.58 214.798 346.584Z" fill="#E33262"/>
<path d="M229.895 32.683C326.331 34.9276 404.994 113.54 407.288 209.977C408.303 249.563 396.3 288.39 373.12 320.496L371.341 322.907L371.091 323.256L242.398 498.305C239.773 501.876 236.327 504.763 232.351 506.722C228.376 508.681 223.987 509.655 219.556 509.562C215.125 509.469 210.781 508.312 206.892 506.188C203.002 504.064 199.68 501.035 197.206 497.358L80.8172 324.437C58.8031 290.85 43.7058 255.767 43.7058 214.399C43.7052 190.157 48.5541 166.159 57.967 143.819C67.3799 121.478 81.1667 101.247 98.5158 84.3144C115.865 67.382 136.426 54.0912 158.989 45.2242C181.551 36.3572 205.66 32.0931 229.895 32.683ZM225.572 346.584C252.601 346.587 279.024 338.575 301.499 323.561C323.974 308.547 341.493 287.205 351.839 262.235C362.184 237.264 364.893 209.786 359.622 183.276C354.351 156.766 341.337 132.415 322.226 113.301C303.114 94.1878 278.764 81.1708 252.255 75.8965C225.746 70.6222 198.268 73.3275 173.296 83.6703C148.324 94.0131 126.98 111.529 111.963 134.002C96.9464 156.476 88.9312 182.898 88.9312 209.927C88.9312 246.168 103.327 280.924 128.951 306.552C154.576 332.18 189.331 346.58 225.572 346.584Z" fill="#FD3E72"/>
<g opacity="0.3">
<path opacity="0.3" d="M146.959 312.997C149.154 315.475 293.659 353.634 295.838 356.111C268.137 364.558 234.318 371.907 205.353 370.227C189.042 369.296 172.099 366.387 159.13 356.344C146.161 346.301 139.111 327.33 146.959 312.997Z" fill="black"/>
</g>
<path d="M284.963 37.2222C289.133 41.6553 292.169 47.0306 293.814 52.8901C295.458 58.7497 295.662 64.9199 294.408 70.8752C293.144 76.6281 290.617 83.0462 293.776 88.0176C296.935 92.9891 304.284 93.8371 307.227 98.8751C310.719 104.778 306.063 112.177 306.645 119.06C307.021 122.27 308.528 125.241 310.895 127.44C313.263 129.64 316.336 130.925 319.564 131.065C311.232 136.109 301.67 138.755 291.93 138.713C289.935 135.255 287.945 131.797 285.961 128.338C288.256 132.013 286.792 137.117 283.65 140.093C280.507 143.07 276.118 144.317 271.845 145.082C261.594 146.728 251.101 145.981 241.186 142.897C231.272 139.814 222.206 134.478 214.698 127.307" fill="#424048"/>
<path d="M168.375 73.3026C170.453 69.0461 173.479 65.2551 175.026 60.7991C178.517 51.2386 175.275 39.4501 181.311 31.2529C185.601 25.4002 193.282 23.3219 200.448 22.1746C207.615 21.0273 215.213 20.2625 221.033 15.9561C225.306 12.7804 228.149 7.99178 232.406 4.81603C238.474 0.276855 246.605 -0.404853 254.154 0.177092C261.702 0.759037 269.816 2.60463 276.218 7.01079C282.619 11.4169 287.507 18.5499 287.674 26.3313C287.757 30.1223 286.759 33.9465 287.424 37.671C288.156 41.7778 290.75 45.2695 292.196 49.1935C293.558 53.4056 293.48 57.9508 291.975 62.1138C290.47 66.2767 287.623 69.821 283.883 72.1886L221.531 132.994C209.893 135.621 183.688 126.792 176.273 117.397C168.857 108.003 163.154 84.0769 168.375 73.3026Z" fill="#424048"/>
<path d="M283.816 63.3265C283.816 47.5474 274.588 27.5951 258.876 28.2768L209.161 37.5713C206.849 37.6732 204.66 38.6384 203.025 40.2761C201.391 41.9138 200.43 44.105 200.332 46.4168L198.17 164.735H197.838C197.838 164.735 206.817 198.72 239.805 190.656C246.356 188.993 249.781 182.243 251.443 175.11H251.759C251.842 174.245 251.892 173.447 251.959 172.632C252.943 167.299 253.361 161.876 253.206 156.454C253.921 146.927 254.154 143.02 254.154 143.153C254.154 143.286 274.455 141.091 280.258 115.136C283.134 102.367 283.816 80.8679 283.816 63.3265Z" fill="#FFBE9D"/>
<path d="M254.137 143.219C241.806 142.623 229.882 138.624 219.686 131.663C219.686 131.663 227.068 150.202 253.472 149.388L254.137 143.219Z" fill="#EB996E"/>
<path d="M198.071 39.8324C200.981 36.507 205.553 35.1934 209.876 34.1792C228.542 29.8331 247.659 27.7177 266.823 27.8776C268.619 32.0676 265.726 37.0224 261.835 39.3336C257.945 41.6447 253.206 42.1269 248.767 43.1079C244.327 44.0889 239.638 45.9179 237.311 49.7587C234.833 53.9321 235.648 59.3857 233.403 63.6755C229.512 71.0579 218.323 71.989 214.482 79.4379C211.572 85.0412 214.099 91.7751 214.083 98.0934C214.079 101.299 213.392 104.467 212.067 107.386C210.742 110.306 208.81 112.909 206.399 115.022C203.988 117.135 201.155 118.71 198.087 119.642C195.02 120.573 191.789 120.84 188.61 120.423C190.461 97.9437 192.301 75.4696 194.13 53.0009C194.496 48.4119 195.011 43.3739 198.071 39.8324Z" fill="#424048"/>
<path d="M145.28 89.863C149.254 87.2027 154.043 85.0911 156.088 80.768C159.047 74.483 154.857 66.0033 159.097 60.4997C162.955 55.5116 172.066 57.0247 175.724 51.8537C178.584 47.8134 176.539 43.5402 177.936 39.8823C179.332 36.2243 185.235 33.5806 189.059 34.5783L213.318 82.9794C214.066 98.1765 215.812 106.457 211.422 114.67C209.011 119.176 206.085 123.483 204.772 128.404C203.458 133.326 203.874 139.179 207.548 142.72C189.159 141.59 173.43 129.668 158.948 118.245L143.634 106.157C141.936 105.033 140.547 103.501 139.594 101.701C137.648 97.3784 141.323 92.5233 145.28 89.863Z" fill="#424048"/>
<path d="M159.064 113.723C159.664 114.009 160.294 114.226 160.943 114.371C162.817 114.836 164.758 114.971 166.679 114.77C169.738 114.476 172.667 113.387 175.175 111.611C178.507 109.181 180.865 105.645 181.826 101.635C182.424 99.3285 182.554 96.9258 182.209 94.5684C181.716 92.0838 180.9 89.6745 179.781 87.4022C178.582 85.0329 177.736 82.501 177.27 79.8868C177.028 78.5492 177.087 77.1744 177.444 75.8626C177.8 74.5509 178.446 73.3354 179.332 72.3049C181.294 70.3263 184.453 70.2099 187.463 69.4617C189.093 69.1324 190.588 68.3215 191.753 67.1339C192.846 65.8305 193.514 64.2229 193.665 62.5282C194.097 59.2028 193.099 55.8774 192.933 52.7682C192.781 51.1897 192.992 49.5975 193.548 48.1126C194.169 46.6674 195.283 45.4891 196.691 44.7872C199.584 43.2741 202.976 43.4404 206.251 43.6233C209.574 43.9658 212.93 43.4684 216.011 42.1768C218.985 40.8668 221.544 38.7681 223.41 36.1079C225.041 33.5149 226.253 30.6813 227.002 27.7113C227.708 24.9735 228.694 22.3158 229.945 19.7802C231.238 17.4829 233.007 15.4877 235.132 13.9275C238.661 11.3431 242.921 9.9499 247.295 9.9499C251.669 9.9499 255.929 11.3431 259.458 13.9275C261.906 15.6443 264.029 17.7839 265.726 20.2458C267.143 22.3744 268.303 24.6625 269.184 27.0628C269.173 26.8929 269.139 26.7253 269.085 26.564C268.985 26.2481 268.869 25.7493 268.636 25.1507C267.987 23.3436 267.127 21.6191 266.075 20.013C264.405 17.4351 262.281 15.1817 259.807 13.3622C256.535 10.9715 252.658 9.54841 248.617 9.25531C243.646 8.96083 238.722 10.3618 234.65 13.2292C232.404 14.8516 230.532 16.9384 229.163 19.3479C227.869 21.9335 226.85 24.6474 226.121 27.4452C225.377 30.307 224.2 33.0379 222.629 35.5426C220.859 38.035 218.445 40.0004 215.646 41.229C212.714 42.4224 209.53 42.8625 206.384 42.5093C203.059 42.343 199.517 42.1102 196.292 43.7896C194.655 44.5974 193.363 45.9664 192.65 47.647C192.028 49.2779 191.789 51.0301 191.952 52.7682C192.152 56.0936 193.116 59.2859 192.717 62.3619C192.59 63.8424 192.009 65.2476 191.054 66.3857C190.019 67.4167 188.709 68.1269 187.28 68.4308C185.833 68.8132 184.32 68.9961 182.824 69.3951C181.281 69.7337 179.857 70.4802 178.7 71.5567C177.717 72.697 177 74.0426 176.603 75.4954C176.206 76.9481 176.139 78.4712 176.406 79.9533C176.895 82.6567 177.78 85.2731 179.033 87.7181C180.153 89.9319 180.969 92.2863 181.46 94.718C181.806 96.966 181.705 99.2601 181.161 101.469C180.244 105.313 178.008 108.713 174.843 111.079C172.429 112.833 169.608 113.943 166.646 114.305C164.105 114.605 161.529 114.407 159.064 113.723Z" fill="#5B5863"/>
<path d="M139.178 78.9558C138.812 79.3595 138.535 79.8352 138.363 80.3525C137.859 81.8616 137.912 83.5016 138.513 84.9748C138.932 86.0503 139.612 87.0046 140.492 87.7515C141.568 88.6258 142.872 89.1739 144.249 89.3311C145.918 89.5339 147.611 89.2735 149.142 88.5785C150.673 87.8834 151.983 86.7805 152.929 85.3905C154.033 83.7882 154.745 81.9484 155.007 80.02C155.229 77.948 155.077 75.8529 154.558 73.8347C153.677 69.6946 151.582 65.5212 152.18 60.8657C152.246 59.7233 152.543 58.6061 153.055 57.5827C153.567 56.5592 154.282 55.6508 155.157 54.9132C157.227 53.6508 159.706 53.2397 162.073 53.766C164.701 54.3362 167.408 54.4375 170.071 54.0652C171.486 53.7 172.753 52.904 173.696 51.7873C174.598 50.6594 175.245 49.3489 175.591 47.9465C176.089 45.25 176.245 42.5016 176.057 39.766C176.018 37.2064 176.523 34.6677 177.537 32.3171C179.467 27.8407 183.036 24.2717 187.513 22.3409C191.786 20.512 196.392 20.8944 200.532 21.2269C204.447 21.7817 208.426 21.7144 212.32 21.0274C215.52 20.3135 218.541 18.9557 221.199 17.0369C223.201 15.6082 224.978 13.8876 226.47 11.9324C227.775 10.2976 228.782 8.44597 229.446 6.46216C228.49 8.2898 227.378 10.0311 226.121 11.6664C222.584 16.058 217.648 19.1039 212.137 20.2958C208.314 20.8891 204.422 20.8891 200.598 20.2958C196.458 19.93 191.686 19.4811 187.114 21.3766C182.378 23.3719 178.583 27.1012 176.506 31.8017C175.43 34.2825 174.892 36.9627 174.926 39.6663C175.113 42.3128 174.962 44.9723 174.477 47.5807C174.257 48.8229 173.698 49.9802 172.862 50.9249C172.026 51.8696 170.945 52.5651 169.739 52.9346C167.202 53.2726 164.626 53.1714 162.123 52.6353C159.494 52.0677 156.746 52.5575 154.475 53.9987C153.498 54.8233 152.699 55.8383 152.128 56.9818C151.556 58.1252 151.223 59.3732 151.15 60.6495C150.919 63.0127 151.162 65.3981 151.864 67.6661C152.446 69.8609 153.161 71.906 153.644 73.9345C154.169 75.8493 154.333 77.8456 154.126 79.8205C153.9 81.6076 153.256 83.3164 152.247 84.8086C151.387 86.1063 150.189 87.1449 148.783 87.8129C147.377 88.4809 145.815 88.7528 144.266 88.5995C142.994 88.4723 141.783 87.9882 140.774 87.2029C139.933 86.5325 139.27 85.6643 138.846 84.6755C138.236 83.2876 138.118 81.7331 138.513 80.2694C138.712 79.8204 138.934 79.382 139.178 78.9558Z" fill="#424048"/>
<path d="M329.424 116.716C329.734 118.336 329.482 120.013 328.709 121.471C328.28 122.311 327.669 123.045 326.922 123.62C326.174 124.195 325.308 124.597 324.386 124.796C323.163 124.98 321.913 124.819 320.776 124.332C319.64 123.844 318.661 123.049 317.951 122.036C317.158 120.846 316.794 119.421 316.921 117.996C317.089 116.424 317.545 114.896 318.267 113.49C319.664 110.547 322.108 107.471 322.374 103.397C322.517 101.336 322.229 99.267 321.528 97.3231C320.826 95.3792 319.727 93.6029 318.301 92.1077C316.805 90.5266 315.022 89.2455 313.046 88.3333C311.021 87.4389 308.885 86.8182 306.695 86.4877C304.584 86.1651 302.508 85.6475 300.493 84.9414C298.61 84.2652 297.026 82.9463 296.02 81.217C295.165 79.4691 294.813 77.517 295.006 75.5804C295.172 73.6803 295.597 71.8118 296.27 70.027C297.517 66.5021 299.113 63.1102 299.396 59.6019C299.662 56.3727 298.962 53.1373 297.384 50.3074C296.023 48.048 294.246 46.0676 292.146 44.4713C290.623 43.2574 289.189 41.9349 287.857 40.5141C286.759 39.2776 285.927 37.8288 285.412 36.2576C285.412 36.2576 285.412 36.374 285.412 36.5901C285.455 36.9136 285.533 37.2314 285.645 37.5379C286.051 38.725 286.677 39.825 287.491 40.7801C288.787 42.264 290.2 43.6428 291.714 44.9036C293.717 46.4977 295.408 48.4481 296.702 50.6566C298.151 53.3667 298.775 56.4415 298.498 59.5021C298.199 62.8275 296.636 66.1529 295.322 69.6778C294.603 71.5451 294.15 73.504 293.975 75.4973C293.753 77.6283 294.14 79.7786 295.089 81.6992C296.207 83.6473 297.972 85.1419 300.077 85.9224C302.156 86.6716 304.299 87.2282 306.479 87.5851C308.581 87.9021 310.633 88.4946 312.581 89.3476C314.454 90.1916 316.148 91.3883 317.569 92.8725C318.905 94.261 319.938 95.9122 320.602 97.7212C321.266 99.5302 321.547 101.457 321.427 103.381C321.227 107.105 318.949 110.032 317.503 113.157C316.748 114.67 316.286 116.312 316.139 117.996C316.003 119.601 316.439 121.203 317.37 122.518C318.17 123.627 319.267 124.489 320.534 125.003C321.802 125.518 323.189 125.665 324.536 125.428C326.144 125.018 327.556 124.051 328.52 122.7C329.485 121.349 329.941 119.7 329.807 118.046C329.764 117.582 329.634 117.131 329.424 116.716Z" fill="#424048"/>
<path d="M323.355 218.107C323.355 218.107 320.562 195.744 309.788 184.571C299.013 173.397 253.921 159.397 253.921 159.397C253.921 159.397 252.059 175.343 241.251 179.183C229.795 183.274 216.859 181.744 208.479 172.001C203.411 165.756 199.85 158.428 198.071 150.585C198.071 150.585 144.216 155.573 135.437 170.305C126.658 185.036 115.302 242.283 115.302 242.283L165.648 252.974L158.798 351.506H292.512L289.902 259.026L326.315 264.23L323.355 218.107Z" fill="#5B5863"/>
<path d="M175.574 256.133C175.733 255.407 175.794 254.664 175.757 253.922C175.757 252.492 175.757 250.413 175.757 247.869C175.757 242.748 175.674 235.698 175.508 227.917C175.342 220.136 175.142 213.069 174.926 207.965C174.826 205.404 174.726 203.342 174.627 201.912C174.639 201.165 174.544 200.421 174.344 199.701C174.198 200.428 174.142 201.171 174.178 201.912C174.178 203.342 174.178 205.421 174.178 207.965C174.178 213.086 174.261 220.136 174.427 227.917C174.593 235.698 174.793 242.765 175.009 247.869C175.109 250.413 175.225 252.475 175.308 253.905C175.289 254.657 175.379 255.407 175.574 256.133Z" fill="#4F4C57"/>
<path d="M302.305 215.563C301.989 215.48 298.847 225.539 295.289 237.893C291.731 250.247 289.07 260.439 289.386 260.523C289.702 260.606 292.828 250.546 296.403 238.209C299.978 225.872 302.605 215.663 302.305 215.563Z" fill="#4F4C57"/>
<path d="M140.99 166.68C140.99 166.879 143.385 167.328 147.059 168.725C156.697 172.414 164.719 179.393 169.705 188.428C171.601 191.87 172.382 194.214 172.582 194.148C172.541 193.577 172.412 193.016 172.199 192.485C171.733 190.971 171.143 189.497 170.437 188.079C168.097 183.374 164.85 179.178 160.884 175.731C156.918 172.284 152.31 169.655 147.325 167.993C145.825 167.484 144.284 167.1 142.72 166.846C142.158 166.685 141.572 166.628 140.99 166.68Z" fill="#4F4C57"/>
<path d="M310.586 189.076C310.286 189.076 309.222 192.119 308.225 196.027C307.227 199.934 306.678 203.176 306.994 203.259C307.31 203.342 308.358 200.217 309.355 196.309C310.353 192.402 310.902 189.16 310.586 189.076Z" fill="#4F4C57"/>
<path d="M124.18 244.095C124.18 244.095 139.261 320.679 140.99 327.23C142.72 333.781 145.496 351.422 163.769 355.08C188.427 360.068 285.246 356.56 285.246 356.56L266.956 333.449L182.242 309.689L170.603 253.972L124.18 244.095Z" fill="#FFBE9D"/>
<path d="M268.569 320.513C268.233 321.056 267.991 321.652 267.854 322.275C267.358 323.945 267.035 325.661 266.89 327.396C266.38 333.158 267.583 338.943 270.348 344.023C271.819 346.854 273.684 349.463 275.885 351.771C277.714 353.646 279.918 355.114 282.353 356.078C283.988 356.695 285.7 357.081 287.441 357.225C288.074 357.328 288.72 357.328 289.353 357.225C287.086 356.806 284.861 356.189 282.702 355.38C280.433 354.361 278.387 352.903 276.683 351.09C274.61 348.825 272.833 346.305 271.396 343.591C268.733 338.672 267.468 333.117 267.738 327.529C267.904 323.14 268.785 320.579 268.569 320.513Z" fill="#EB996E"/>
<path d="M349.643 229.879C349.643 229.879 335.992 275.819 330.339 295.672C324.32 316.755 311.168 364.641 283.135 356.144C261.802 349.66 268.071 322.026 268.071 322.026L289.902 258.943L306.878 261.786L323.355 219.238L349.643 229.879Z" fill="#FFBE9D"/>
<path d="M275.536 324.021C274.774 320.599 274.774 317.051 275.536 313.629C276.438 309.947 277.98 306.452 280.092 303.304C282.754 299.461 285.712 295.831 288.937 292.447C292.177 289.001 295.146 285.31 297.816 281.406C299.95 278.185 301.813 274.793 303.386 271.264C304.45 268.891 305.361 266.453 306.113 263.964C306.458 263.067 306.682 262.128 306.778 261.171C306.349 262.023 305.988 262.907 305.697 263.815C305.032 265.478 304.035 267.972 302.638 270.915C300.988 274.354 299.076 277.662 296.918 280.808C294.235 284.635 291.279 288.264 288.073 291.665C284.806 295.093 281.835 298.792 279.194 302.722C277.043 306.015 275.526 309.68 274.721 313.53C274.202 316.12 274.202 318.787 274.721 321.377C274.854 322.075 275.049 322.759 275.303 323.423C275.351 323.632 275.429 323.834 275.536 324.021Z" fill="#EB996E"/>
<path d="M323.355 219.238C323.355 219.238 323.255 200.948 324.868 195.727L337.837 166.763C337.837 166.763 341.163 164.718 342.825 170.487C344.488 176.257 339.367 182.21 339.367 182.21L338.968 189.791L344.156 185.502L354.248 166.58C354.248 166.58 361.215 152.796 363.011 154.941C364.806 157.086 364.224 161.592 361.231 167.495L354.414 180.996C354.414 180.996 353.384 183.39 356.958 179.915C360.533 176.44 368.298 159.613 369.911 157.502C371.524 155.39 373.718 149.188 377.193 150.635C380.668 152.081 376.212 159.431 376.212 159.431L365.089 184.371C365.089 184.371 371.54 174.927 372.704 173.331C373.868 171.734 376.562 166.331 378.673 163.571C380.785 160.811 383.096 159.746 384.626 160.412C385.372 160.68 385.988 161.224 386.347 161.932C386.705 162.64 386.779 163.458 386.554 164.219L374.666 184.837C374.666 184.837 368.73 194.098 368.73 194.813C368.73 195.528 373.918 191.753 373.918 191.753L378.906 185.402C378.906 185.402 384.293 175.891 387.12 176.407C389.946 176.922 389.448 179.034 389.448 179.034L379.471 196.359L364.939 215.048L349.41 230.478L340.431 227.585L323.355 219.238Z" fill="#FFBE9D"/>
<path d="M351.937 216.145C351.485 214.271 351.185 212.364 351.039 210.442C350.457 207.017 349.277 201.879 345.07 198.571C343.37 197.152 341.247 196.339 339.034 196.259H338.286V195.461C338.519 191.903 338.386 188.511 338.519 186.267C338.412 185.031 338.582 183.787 339.018 182.625C339.249 183.82 339.366 185.033 339.367 186.25C339.622 189.386 339.716 192.532 339.65 195.677L338.968 194.879C341.516 194.873 343.984 195.768 345.935 197.407C348.065 199.126 349.691 201.39 350.64 203.958C351.386 206.003 351.856 208.139 352.037 210.309C352.325 212.247 352.291 214.219 351.937 216.145Z" fill="#EB996E"/>
<g filter="url(#filter0_d)">
<path d="M84.931 379.089H356.104C361.738 379.089 366.304 382.694 366.304 387.141V445.514C366.304 449.961 361.738 453.566 356.104 453.566H84.931C79.2979 453.566 74.7314 449.961 74.7314 445.514V387.141C74.7314 382.694 79.2979 379.089 84.931 379.089Z" fill="white"/>
</g>
<path d="M104.164 430.882H110.342V400.074H105.399L96 406.735L98.9566 411.271L104.164 407.392V430.882Z" fill="#FD3E72"/>
<path d="M124.661 425.339V425.229L130.508 419.225C132.45 417.231 133.774 415.456 134.524 413.9C135.274 412.367 135.649 410.679 135.649 408.861C135.649 407.48 135.362 406.209 134.833 405.026C134.303 403.865 133.575 402.9 132.67 402.133C131.744 401.367 130.707 400.775 129.515 400.337C128.324 399.92 127.088 399.701 125.786 399.701C123.315 399.701 121.241 400.249 119.542 401.301C117.821 402.353 116.475 403.777 115.505 405.53L119.917 408.663C121.263 406.45 123.073 405.333 125.323 405.333C126.117 405.333 126.823 405.53 127.441 405.88C128.059 406.253 128.567 406.757 128.92 407.392C129.273 408.028 129.449 408.729 129.449 409.518C129.449 410.679 129.096 411.797 128.434 412.892C127.75 413.988 126.713 415.259 125.301 416.749L115.637 426.873L115.703 430.882H135.98V425.339H124.661Z" fill="#FD3E72"/>
<path d="M155.595 414.974V414.865C156.853 414.12 157.823 413.155 158.53 411.95C159.236 410.767 159.589 409.43 159.589 407.94C159.589 406.669 159.324 405.486 158.794 404.434C158.265 403.382 157.559 402.528 156.676 401.827C155.772 401.147 154.712 400.622 153.521 400.249C152.307 399.898 151.006 399.701 149.616 399.701C147.365 399.701 145.401 400.205 143.702 401.213C141.981 402.221 140.768 403.558 140.062 405.179L144.96 407.787C145.931 406.078 147.453 405.201 149.483 405.201C150.631 405.201 151.601 405.552 152.396 406.253C153.19 406.954 153.587 407.853 153.587 408.948C153.587 410.022 153.234 410.898 152.572 411.578C151.888 412.257 150.895 412.586 149.572 412.586H146.836V417.538H149.064C150.697 417.538 151.954 417.932 152.837 418.721C153.72 419.51 154.183 420.474 154.183 421.657C154.183 422.906 153.72 423.892 152.837 424.637C151.954 425.382 150.873 425.755 149.594 425.755C146.902 425.755 145.115 424.594 144.232 422.271L138.893 424.484C139.687 426.5 141.055 428.122 143.041 429.371C145.004 430.641 147.321 431.255 150.013 431.255C151.999 431.255 153.808 430.904 155.396 430.181C156.985 429.48 158.221 428.45 159.125 427.114C160.03 425.799 160.493 424.265 160.493 422.512C160.493 420.759 160.052 419.247 159.191 417.954C158.309 416.683 157.117 415.675 155.595 414.974Z" fill="#FD3E72"/>
<path d="M168.436 431.255C169.429 431.255 170.29 430.904 170.996 430.203C171.702 429.502 172.077 428.669 172.077 427.683C172.077 426.719 171.702 425.865 170.996 425.163C170.29 424.462 169.429 424.09 168.436 424.09C167.399 424.09 166.517 424.44 165.811 425.141C165.105 425.843 164.752 426.697 164.752 427.683C164.752 428.691 165.105 429.524 165.811 430.225C166.517 430.926 167.399 431.255 168.436 431.255Z" fill="#FD3E72"/>
<path d="M188.095 430.882H194.119V425.843H198.311V420.627H194.119V400.074H189.177L174.945 421.964V425.843H188.095V430.882ZM181.609 420.934L188.515 409.869V420.934H181.609Z" fill="#FD3E72"/>
<path d="M212.653 411.008C211.549 411.008 210.248 411.227 208.769 411.665L209.122 405.596H220.706V400.074H203.761L202.812 416.355L206.1 417.56C207.423 416.508 208.968 415.982 210.755 415.982C211.373 415.982 212.013 416.092 212.631 416.289C213.248 416.508 213.822 416.793 214.352 417.187C214.859 417.582 215.278 418.108 215.587 418.721C215.896 419.357 216.073 420.058 216.073 420.825C216.073 422.205 215.565 423.367 214.594 424.287C213.601 425.229 212.366 425.689 210.888 425.689C208.328 425.689 206.32 424.747 204.886 422.841L200.473 426.39C201.753 427.99 203.32 429.195 205.173 430.028C207.026 430.861 209.034 431.255 211.196 431.255C213.27 431.255 215.146 430.839 216.823 429.962C218.5 429.086 219.846 427.859 220.816 426.281C221.787 424.703 222.295 422.906 222.295 420.912C222.295 419.729 222.118 418.59 221.787 417.538C221.456 416.486 220.993 415.566 220.419 414.777C219.823 413.988 219.117 413.309 218.323 412.739C217.529 412.169 216.646 411.753 215.675 411.446C214.705 411.161 213.69 411.008 212.653 411.008Z" fill="#FD3E72"/>
<path d="M239.284 411.139C237.188 411.139 235.29 411.622 233.591 412.542L233.503 412.52C234.364 410.373 235.71 408.62 237.563 407.217C239.416 405.815 241.755 404.719 244.623 403.908L242.836 399C240.431 399.438 238.203 400.271 236.173 401.476C234.143 402.681 232.4 404.149 230.988 405.88C229.554 407.612 228.451 409.606 227.656 411.841C226.862 414.098 226.465 416.464 226.465 418.918C226.465 420.737 226.73 422.424 227.303 423.958C227.877 425.514 228.649 426.829 229.642 427.88C230.635 428.932 231.826 429.765 233.194 430.357C234.562 430.97 236.019 431.255 237.607 431.255C239.703 431.255 241.601 430.839 243.3 429.984C244.999 429.129 246.344 427.924 247.315 426.369C248.286 424.813 248.794 423.038 248.794 421.066C248.794 419.532 248.529 418.108 248.043 416.837C247.536 415.566 246.852 414.536 245.991 413.703C245.109 412.892 244.116 412.257 242.969 411.819C241.821 411.38 240.586 411.139 239.284 411.139ZM237.784 425.777C236.239 425.777 234.959 425.207 233.9 424.024C232.841 422.841 232.312 421.307 232.312 419.422V419.006C232.974 418.217 233.768 417.56 234.739 417.034C235.688 416.53 236.68 416.267 237.717 416.267C239.24 416.267 240.475 416.705 241.402 417.582C242.329 418.458 242.814 419.554 242.814 420.912C242.814 422.271 242.329 423.41 241.38 424.353C240.431 425.317 239.24 425.777 237.784 425.777Z" fill="#FD3E72"/>
<path d="M256.737 431.255C257.73 431.255 258.59 430.904 259.296 430.203C260.002 429.502 260.377 428.669 260.377 427.683C260.377 426.719 260.002 425.865 259.296 425.163C258.59 424.462 257.73 424.09 256.737 424.09C255.7 424.09 254.817 424.44 254.111 425.141C253.405 425.843 253.052 426.697 253.052 427.683C253.052 428.691 253.405 429.524 254.111 430.225C254.817 430.926 255.7 431.255 256.737 431.255Z" fill="#FD3E72"/>
<path d="M263.488 400.074V405.574H276.065L265.893 430.444L272.005 431.54L282.794 404.062V400.074H263.488Z" fill="#FD3E72"/>
<path d="M288.156 431.255C289.149 431.255 290.009 430.904 290.715 430.203C291.421 429.502 291.796 428.669 291.796 427.683C291.796 426.719 291.421 425.865 290.715 425.163C290.009 424.462 289.149 424.09 288.156 424.09C287.119 424.09 286.236 424.44 285.53 425.141C284.824 425.843 284.471 426.697 284.471 427.683C284.471 428.691 284.824 429.524 285.53 430.225C286.236 430.926 287.119 431.255 288.156 431.255Z" fill="#FD3E72"/>
<path d="M313 414.229V414.163C314.037 413.725 314.942 412.892 315.714 411.709C316.464 410.526 316.861 409.211 316.861 407.743C316.861 406.1 316.442 404.653 315.604 403.426C314.765 402.199 313.618 401.279 312.162 400.643C310.705 400.03 309.051 399.701 307.197 399.701C305.366 399.701 303.733 400.008 302.299 400.6C300.865 401.213 299.717 402.133 298.857 403.361C297.996 404.588 297.577 406.056 297.577 407.743C297.577 409.211 297.952 410.548 298.725 411.731C299.497 412.914 300.401 413.725 301.438 414.163V414.229C299.806 414.843 298.504 415.829 297.489 417.231C296.474 418.633 295.989 420.343 295.989 422.359C295.989 424.112 296.474 425.667 297.445 427.026C298.416 428.384 299.74 429.436 301.438 430.159C303.137 430.904 305.057 431.255 307.197 431.255C309.293 431.255 311.191 430.904 312.912 430.203C314.611 429.502 315.957 428.45 316.972 427.092C317.986 425.733 318.494 424.155 318.494 422.359C318.494 420.343 317.986 418.633 316.972 417.231C315.957 415.829 314.633 414.843 313 414.229ZM307.197 404.741C308.322 404.741 309.271 405.092 310.021 405.749C310.772 406.428 311.169 407.283 311.169 408.291C311.169 409.321 310.794 410.153 310.065 410.811C309.315 411.468 308.367 411.775 307.197 411.775C306.425 411.775 305.741 411.643 305.145 411.337C304.549 411.052 304.086 410.635 303.755 410.11C303.402 409.584 303.248 408.97 303.248 408.291C303.248 407.655 303.402 407.064 303.733 406.516C304.064 405.99 304.527 405.552 305.145 405.223C305.763 404.916 306.447 404.741 307.197 404.741ZM307.197 426.04C305.785 426.04 304.594 425.624 303.623 424.769C302.652 423.914 302.189 422.841 302.189 421.57C302.189 420.255 302.652 419.181 303.579 418.327C304.505 417.494 305.719 417.056 307.197 417.056C308.168 417.056 309.051 417.253 309.801 417.647C310.551 418.042 311.147 418.568 311.566 419.247C311.985 419.948 312.206 420.715 312.206 421.57C312.206 422.797 311.72 423.849 310.794 424.725C309.845 425.602 308.653 426.04 307.197 426.04Z" fill="#FD3E72"/>
<path d="M332.769 399.701C331.225 399.701 329.769 399.964 328.401 400.468C327.033 400.972 325.841 401.673 324.848 402.55C323.856 403.448 323.083 404.544 322.51 405.815C321.936 407.086 321.649 408.466 321.649 409.956C321.649 411.205 321.804 412.367 322.135 413.418C322.443 414.47 322.907 415.39 323.48 416.179C324.054 416.968 324.76 417.625 325.554 418.195C326.349 418.765 327.209 419.181 328.158 419.444C329.085 419.729 330.078 419.861 331.137 419.861C333.233 419.861 335.152 419.378 336.895 418.414L336.939 418.436C336.057 420.627 334.667 422.402 332.791 423.783C330.916 425.185 328.533 426.281 325.621 427.07L327.43 432C329.835 431.562 332.063 430.729 334.115 429.546C336.167 428.363 337.91 426.894 339.367 425.163C340.823 423.454 341.948 421.46 342.764 419.203C343.581 416.968 344 414.58 344 412.06C344 411.03 343.89 410.022 343.713 409.058C343.537 408.094 343.25 407.217 342.897 406.384C342.544 405.574 342.102 404.807 341.617 404.106C341.11 403.404 340.536 402.791 339.896 402.243C339.256 401.717 338.572 401.257 337.822 400.863C337.072 400.49 336.278 400.205 335.417 400.008C334.557 399.811 333.674 399.701 332.769 399.701ZM327.673 410.066C327.673 408.707 328.136 407.568 329.107 406.625C330.056 405.683 331.313 405.201 332.858 405.201C334.38 405.201 335.638 405.793 336.631 406.976C337.623 408.159 338.131 409.693 338.131 411.578V411.95C337.469 412.783 336.653 413.44 335.704 413.966C334.733 414.492 333.74 414.733 332.725 414.733C331.181 414.733 329.945 414.317 329.041 413.44C328.114 412.564 327.673 411.446 327.673 410.066Z" fill="#FD3E72"/>
<defs>
<filter id="filter0_d" x="70.7313" y="379.089" width="299.573" height="82.4778" filterUnits="userSpaceOnUse" color-interpolation-filters="sRGB">
<feFlood flood-opacity="0" result="BackgroundImageFix"/>
<feColorMatrix in="SourceAlpha" type="matrix" values="0 0 0 0 0 0 0 0 0 0 0 0 0 0 0 0 0 0 127 0" result="hardAlpha"/>
<feOffset dy="4"/>
<feGaussianBlur stdDeviation="2"/>
<feComposite in2="hardAlpha" operator="out"/>
<feColorMatrix type="matrix" values="0 0 0 0 0 0 0 0 0 0 0 0 0 0 0 0 0 0 0.25 0"/>
<feBlend mode="normal" in2="BackgroundImageFix" result="effect1_dropShadow"/>
<feBlend mode="normal" in="SourceGraphic" in2="effect1_dropShadow" result="shape"/>
</filter>
</defs>
</svg>
