<svg width="674" height="602" viewBox="0 0 674 602" fill="none" xmlns="http://www.w3.org/2000/svg">
<circle cx="300.52" cy="300.52" r="300.52" fill="#FFF0F5"/>
<path d="M524.26 301.12C524.26 425.02 423.82 525.46 299.92 525.46C176.02 525.46 75.5798 425.02 75.5798 301.12C75.5798 177.22 176.02 76.7795 299.92 76.7795C423.82 76.7795 524.26 177.22 524.26 301.12Z" fill="#FFDEE9"/>
<path d="M528.234 145.486H60.6641C50.5744 145.486 42.3951 153.665 42.3951 163.755V460.572C42.3951 470.662 50.5744 478.841 60.6641 478.841H528.234C538.324 478.841 546.503 470.662 546.503 460.572V163.755C546.503 153.665 538.324 145.486 528.234 145.486Z" fill="#403E48"/>
<path d="M21.305 454.189H567.468V461.047C567.468 466.967 565.117 472.644 560.931 476.829C556.745 481.015 551.068 483.366 545.149 483.366H43.5989C37.6795 483.366 32.0026 481.015 27.817 476.829C23.6314 472.644 21.2799 466.967 21.2799 461.047V454.189H21.305Z" fill="#4F4D59"/>
<path d="M531.557 158.726H55.9243V440.246H531.557V158.726Z" fill="#E6E6E6"/>
<path d="M244.746 454.189L251.529 464.972H346.886L353.181 454.189H244.746Z" fill="#6D6B75"/>
<path d="M518.63 168.256H69.8175C67.553 168.256 65.7173 170.092 65.7173 172.356V435.244C65.7173 437.508 67.553 439.344 69.8175 439.344H518.63C520.894 439.344 522.73 437.508 522.73 435.244V172.356C522.73 170.092 520.894 168.256 518.63 168.256Z" fill="#455A64"/>
<path d="M522.73 188.471H65.7173V439.697H522.73V188.471Z" fill="white"/>
<rect x="314.904" y="389.322" width="80.0167" height="24.4496" rx="12.2248" fill="#FDB9CC"/>
<rect x="314.905" y="220.396" width="144.475" height="21.1155" rx="5" fill="#EDEDED"/>
<rect x="314.904" y="248.181" width="97.7982" height="21.1155" rx="5" fill="#EDEDED"/>
<rect x="314.904" y="287.076" width="97.7982" height="8.89075" rx="4.44537" fill="#EDEDED"/>
<rect x="314.905" y="303.746" width="66.6806" height="8.89075" rx="4.44537" fill="#EDEDED"/>
<rect x="387.142" y="303.746" width="66.6806" height="8.89075" rx="4.44537" fill="#EDEDED"/>
<rect x="314.905" y="320.416" width="16.6701" height="8.89075" rx="4.44537" fill="#EDEDED"/>
<rect x="337.131" y="320.416" width="107.8" height="8.89075" rx="4.44537" fill="#EDEDED"/>
<rect x="316.016" y="337.086" width="113.357" height="8.89075" rx="4.44537" fill="#EDEDED"/>
<rect x="316.016" y="353.756" width="41.1197" height="8.89075" rx="4.44537" fill="#EDEDED"/>
<rect x="366.026" y="353.756" width="21.1155" height="8.89075" rx="4.44537" fill="#EDEDED"/>
<rect x="450.488" y="320.416" width="25.5609" height="8.89075" rx="4.44537" fill="#EDEDED"/>
<rect x="418.259" y="287.076" width="57.7899" height="8.89075" rx="4.44537" fill="#EDEDED"/>
<path d="M103.196 178.724C103.196 179.446 102.982 180.152 102.581 180.752C102.18 181.352 101.61 181.819 100.943 182.095C100.276 182.372 99.5427 182.444 98.8349 182.303C98.1271 182.162 97.4769 181.815 96.9667 181.305C96.4564 180.794 96.1088 180.144 95.9681 179.436C95.8273 178.729 95.8995 177.995 96.1757 177.328C96.4519 176.661 96.9195 176.092 97.5196 175.691C98.1196 175.29 98.8251 175.076 99.5467 175.076C100.026 175.076 100.5 175.17 100.943 175.353C101.386 175.537 101.788 175.806 102.127 176.144C102.466 176.483 102.734 176.885 102.918 177.328C103.101 177.771 103.196 178.245 103.196 178.724Z" fill="#00B67A"/>
<path d="M81.0772 178.724C81.0772 179.446 80.8632 180.152 80.4623 180.752C80.0614 181.352 79.4915 181.819 78.8248 182.095C78.158 182.372 77.4244 182.444 76.7166 182.303C76.0088 182.162 75.3587 181.815 74.8484 181.305C74.3381 180.794 73.9906 180.144 73.8498 179.436C73.709 178.729 73.7812 177.995 74.0574 177.328C74.3336 176.661 74.8013 176.092 75.4013 175.691C76.0013 175.29 76.7068 175.076 77.4284 175.076C77.9076 175.076 78.3821 175.17 78.8248 175.353C79.2675 175.537 79.6697 175.806 80.0085 176.144C80.3473 176.483 80.6161 176.885 80.7995 177.328C80.9828 177.771 81.0772 178.245 81.0772 178.724Z" fill="#FD3E72"/>
<path d="M91.6975 178.725C91.6974 179.448 91.4824 180.155 91.0798 180.756C90.6772 181.356 90.1051 181.824 89.4362 182.099C88.7673 182.374 88.0317 182.444 87.3229 182.3C86.6141 182.156 85.964 181.805 85.4553 181.291C84.9465 180.777 84.602 180.123 84.4655 179.413C84.329 178.703 84.4066 177.968 84.6886 177.302C84.9705 176.636 85.444 176.069 86.049 175.672C86.654 175.276 87.3631 175.068 88.0863 175.076C89.0475 175.086 89.9659 175.475 90.6421 176.158C91.3183 176.841 91.6975 177.763 91.6975 178.725Z" fill="#F8C83C"/>
<path d="M542.165 454.188C542.165 454.364 430.269 454.514 292.293 454.514C154.316 454.514 42.3951 454.364 42.3951 454.188C42.3951 454.013 154.253 453.862 292.293 453.862C430.332 453.862 542.165 454 542.165 454.188Z" fill="#6D6B75"/>
<circle cx="177.002" cy="302.346" r="89.8693" fill="#FFDFE8"/>
<mask id="mask0" mask-type="alpha" maskUnits="userSpaceOnUse" x="106" y="231" width="142" height="142">
<circle cx="177.002" cy="302.346" r="70.5009" fill="#C4C4C4"/>
</mask>
<g mask="url(#mask0)">
<path d="M151.752 396.595C157.312 397.576 165.728 367.171 168.295 354.004C170.862 340.836 170.486 330.004 163.618 328.786C156.751 327.568 152.758 337.667 150.624 350.909C148.489 364.15 146.175 395.624 151.752 396.595Z" fill="#FFC8AF"/>
<path d="M217.859 369.307C221.071 364.653 197.002 344.292 186.117 336.441C175.232 328.59 165.201 324.46 161.281 330.126C157.36 335.791 164.693 343.764 175.923 351.17C187.153 358.577 214.635 373.957 217.859 369.307Z" fill="#FFC8AF"/>
<path d="M224.485 440.106C229.468 439.547 225.827 395.378 224.702 385.491C223.578 375.604 221.647 365.246 216.036 365.878C210.426 366.51 210.883 377.038 212.004 386.938C213.125 396.839 219.511 440.682 224.485 440.106Z" fill="#FFC8AF"/>
<path d="M231.279 282.248C232.753 278.486 211.732 267.848 202.475 263.997C193.218 260.145 185.234 258.769 183.424 263.36C181.615 267.95 188.382 272.393 197.774 275.9C207.166 279.406 229.792 286.006 231.279 282.248Z" fill="#4A4555"/>
<path d="M252.189 238.918C249.047 237.143 235.119 259.793 231.429 266.34C227.738 272.887 224.332 280.061 227.855 282.051C231.378 284.042 235.755 277.41 239.446 270.863C243.136 264.316 255.345 240.697 252.189 238.918Z" fill="#4A4555"/>
<path d="M248.461 244.55C251.523 247.364 255.582 241.552 257.165 239.601C259.251 237.092 256.697 233.382 255.385 232.479C254.072 231.576 252.32 236.479 251.856 236.524C251.391 236.569 253.315 232.448 251.996 231.727C250.677 231.006 247.418 236.155 246.908 238.691C246.398 241.226 246.54 242.805 248.461 244.55Z" fill="#FFC8AF"/>
<path d="M246.868 238.68C247.378 236.144 250.638 230.995 251.957 231.716C253.276 232.437 251.335 236.568 251.816 236.513L246.627 240.58C246.65 239.941 246.731 239.305 246.868 238.68Z" fill="#FFC8AF"/>
<path d="M200.49 318.774C201.073 319.064 201.707 319.237 202.357 319.282C203.007 319.326 203.659 319.243 204.276 319.035C204.894 318.828 205.464 318.501 205.955 318.072C206.446 317.644 206.848 317.124 207.138 316.54C212.758 305.322 218.775 294.209 224.857 283.114C231.79 270.636 238.976 258.287 246.416 246.066C261.257 221.639 277.148 197.832 294.301 174.958C302.925 163.555 311.831 152.368 321.186 141.556C330.542 130.745 340.397 120.393 350.704 110.515C361.073 100.663 372.165 91.6029 383.888 83.41C395.584 75.1159 408.315 68.3887 421.756 63.3999C408.133 68.0162 395.169 74.3905 383.193 82.3616C371.159 90.2669 359.729 99.0565 348.997 108.658C338.307 118.277 328.129 128.515 318.328 139.037C308.527 149.56 299.299 160.632 290.27 171.856C272.348 194.383 255.651 217.875 239.98 242.023C232.147 254.062 224.545 266.291 217.175 278.709C210.671 289.691 204.338 300.719 198.297 311.923C197.985 312.51 197.792 313.154 197.732 313.816C197.672 314.479 197.744 315.146 197.946 315.78C198.148 316.414 198.474 317.001 198.906 317.506C199.338 318.012 199.867 318.426 200.461 318.724L200.49 318.774Z" fill="#212F47"/>
<path d="M151.651 335.576L184.945 331.04L187.543 278.743L190.001 261.022L174.563 252.389L163.949 252.599C157.91 252.72 154.337 256.824 153.563 262.824C153.563 262.824 148.259 295.066 148.642 305.716C148.959 315.726 149.964 325.704 151.651 335.576Z" fill="#4A4555"/>
<path d="M171.985 243.866L169.688 253.388C170.652 254.799 171.895 255.998 173.34 256.91C174.784 257.823 176.401 258.429 178.089 258.693C181.266 259.233 182.23 257.851 182.23 257.851L182.983 253.458L171.985 243.866Z" fill="#FFC8AF"/>
<path d="M172.149 234.761C172.105 235.188 172.052 235.598 172.015 235.998C171.98 236.13 171.945 236.262 171.902 236.42C170.393 243.424 173.63 251.756 180.279 253.948L180.661 254.051C182.099 254.436 187.255 255.817 189.587 254.024C192.541 251.575 194.647 248.255 195.605 244.539C195.82 242.798 195.926 241.047 195.922 239.293C196.085 238.319 197.128 235.375 197.336 234.017C198.469 227.732 195.243 220.731 187.763 219.477C176.547 217.503 173.122 227.119 172.149 234.761Z" fill="#FFC8AF"/>
<path d="M177.249 236.298C178.102 234.01 180.363 233.273 181.765 231.471C182.22 230.706 182.515 229.857 182.632 228.974C184.217 223.744 192.271 228.814 195.623 228.751C196.534 228.791 197.432 228.526 198.175 227.998C198.918 227.47 199.464 226.709 199.726 225.835C199.803 225.029 199.667 224.216 199.331 223.478C198.996 222.741 198.472 222.105 197.814 221.633C196.998 220.901 195.966 220.455 194.874 220.365C194.68 220.382 194.484 220.363 194.296 220.309C194.029 220.169 193.807 219.957 193.654 219.698C193.268 219.113 192.726 218.649 192.089 218.358C191.452 218.068 190.746 217.962 190.052 218.054C189.797 218.158 189.519 218.196 189.246 218.164C188.991 218.07 188.77 217.902 188.611 217.683C185.27 213.96 179.255 214.992 175.95 218.15C172.83 221.403 170.746 225.509 169.962 229.948C169.071 235.266 169.592 240.725 171.472 245.778L175.424 236.304L177.249 236.298Z" fill="#212F47"/>
<path d="M175.449 235.421C174.584 235.062 172.589 233.962 172.452 237.163C172.172 242.744 175.422 242.907 175.422 242.907C175.369 242.101 175.275 240.974 175.245 239.665C176.204 239.3 175.206 238.438 175.276 237.807C175.26 237.676 175.266 237.544 175.296 237.416C175.3 236.767 175.374 236.122 175.449 235.421Z" fill="#FFC8AF"/>
<path d="M175.296 237.414C175.296 237.414 174.471 236.274 173.652 236.535C172.833 236.796 173.093 238.619 173.481 239.756C173.87 240.892 174.539 241.085 174.709 240.82C174.879 240.554 173.595 239.701 174.218 239.274C174.841 238.847 175.262 238.861 175.27 238.566L175.296 237.414Z" fill="#F2B49C"/>
<path d="M177.85 233.477C177.449 234.935 177.155 236.42 176.97 237.921C176.884 238.759 176.75 239.592 176.57 240.415C176.46 240.824 176.341 242.22 175.855 242.344C175.1 242.524 175.3 238.562 175.295 238.052C175.161 236.938 175.135 235.814 175.219 234.695L177.85 233.477Z" fill="#212F47"/>
<path d="M184.463 254.844C181.016 254.415 177.032 250.294 176.028 248.554C175.025 246.815 175.075 242.884 175.075 242.884C174.722 242.84 174.386 242.705 174.101 242.493C173.816 242.28 173.591 241.997 173.449 241.671C173.449 241.671 173.254 243.4 173.819 244.088C174.384 244.777 174.797 244.973 174.876 245.418C174.955 245.863 174.812 251.353 177.392 253.331C179.971 255.308 184.463 254.844 184.463 254.844Z" fill="#F2B49C"/>
<path d="M152.357 317.116C152.357 317.116 144.315 363.639 144.443 385.475C144.464 389.722 129.506 426.715 127.786 441.891C130.918 444.079 134.701 445.137 138.514 444.893C138.514 444.893 159.398 397.81 162.074 386.24C164.607 375.311 172.59 356.54 172.59 356.54C172.59 356.54 178.077 358.745 187.536 363.372C196.176 367.681 206.749 373.794 207.364 375.033C208.847 378.046 215.059 409.613 217.985 432.241C222.085 432.161 226.164 431.622 230.145 430.636C230.145 430.636 228.274 376.96 222.499 366.548C217.845 358.232 184.131 329.716 184.131 329.716L154.445 313.703L152.357 317.116Z" fill="#363141"/>
<path d="M170.421 304.398C174.366 303.391 170.594 279.914 168.306 270.097C166.018 260.28 162.356 252.951 157.554 254.152C152.752 255.354 153.11 263.565 155.813 273.31C158.516 283.054 166.473 305.419 170.421 304.398Z" fill="#555060"/>
<path d="M215.917 291.209C215.063 287.7 188.997 292.988 181.695 294.764C174.392 296.54 166.841 298.927 167.778 302.869C168.715 306.81 176.563 305.477 183.862 303.714C191.16 301.951 216.772 294.718 215.917 291.209Z" fill="#555060"/>
<path d="M209.184 292.657C209.878 296.873 217.175 294.798 219.625 294.041C223.618 292.75 224.858 286.96 224.398 285.353C223.939 283.745 216.332 288.451 215.919 288.199C215.506 287.947 220.752 285.987 220.183 284.576C219.614 283.166 213.674 285.236 211.654 286.971C209.635 288.706 208.744 290.079 209.184 292.657Z" fill="#FFC8AF"/>
<path d="M199.997 224.876C199.997 224.876 201.51 220.814 190.965 215.175C180.42 209.536 171.963 211.243 170.273 213.278C168.583 215.314 170.964 218.454 170.405 220.171C169.846 221.887 169.041 228.741 169.041 228.741L197.073 228.037L199.997 224.876Z" fill="#454582"/>
<path d="M169.507 235.285C172.39 233.229 191.406 230.987 197.306 234.448L196.973 235.688C197.394 235.698 197.811 235.607 198.189 235.423C198.568 235.239 198.897 234.968 199.15 234.631C199.992 233.443 202.133 227.033 200.803 225.404C199.473 223.775 186.484 221.878 178.332 222.606C170.179 223.334 168.588 226.951 168.588 226.951C168.588 226.951 168.276 234.658 168.446 235.396C168.654 235.904 169.052 236.31 169.556 236.528L169.507 235.285Z" fill="#56548C"/>
</g>
<circle cx="177.002" cy="302.346" r="74.5009" stroke="#FD3E72" stroke-width="8"/>
<circle cx="110.374" cy="271.356" r="22.4673" fill="#FD3E72"/>
<circle cx="110.375" cy="271.356" r="17.8189" fill="white"/>
<path d="M101.852 280.653H105.365V262.059H101.852V280.653Z" fill="#5B5863"/>
<path d="M109.35 280.653H112.79V274.289H115.54C116.509 274.289 117.393 274.174 118.18 273.918C118.967 273.676 119.646 273.305 120.215 272.807C120.784 272.321 121.22 271.682 121.535 270.915C121.838 270.149 121.996 269.267 121.996 268.257C121.996 267.35 121.874 266.519 121.632 265.778C121.39 265.037 121.027 264.385 120.542 263.823C120.058 263.261 119.416 262.826 118.616 262.519C117.817 262.213 116.908 262.059 115.867 262.059H109.35V280.653ZM112.79 271.03V265.331H115.249C116.242 265.331 117.017 265.586 117.562 266.098C118.107 266.609 118.386 267.312 118.386 268.181C118.386 269.062 118.095 269.752 117.538 270.264C116.981 270.775 116.169 271.03 115.104 271.03H112.79Z" fill="#5B5863"/>
<path d="M507.979 107.569C508.624 107.091 509.421 106.864 510.222 106.931C511.022 106.997 511.77 107.354 512.327 107.932C512.884 108.511 513.211 109.273 513.247 110.076C513.282 110.878 513.025 111.666 512.522 112.293L524.331 128.775C525.448 130.332 527.137 131.382 529.027 131.695C530.917 132.008 532.854 131.558 534.413 130.445C534.487 130.403 534.554 130.349 534.611 130.286C536.095 129.146 537.077 127.473 537.348 125.622C537.62 123.771 537.16 121.887 536.067 120.369L535.149 119.048L532.681 120.819L533.833 113.832L537.666 119.2C539.059 121.146 539.632 123.562 539.263 125.927C538.894 128.292 537.611 130.418 535.691 131.847L535.567 131.941C533.593 133.352 531.142 133.922 528.749 133.528C526.357 133.133 524.218 131.805 522.803 129.836L510.994 113.354C510.24 113.608 509.42 113.583 508.683 113.283C507.946 112.982 507.342 112.427 506.98 111.719C506.618 111.01 506.523 110.194 506.712 109.421C506.901 108.648 507.362 107.969 508.01 107.507L507.979 107.569ZM510.735 111.418C510.946 111.256 511.104 111.036 511.191 110.785C511.278 110.534 511.29 110.263 511.226 110.005C511.161 109.747 511.023 109.514 510.828 109.334C510.633 109.153 510.39 109.034 510.128 108.99C509.866 108.946 509.597 108.98 509.353 109.086C509.11 109.193 508.903 109.368 508.758 109.591C508.613 109.814 508.536 110.074 508.536 110.339C508.537 110.605 508.615 110.865 508.761 111.087C508.864 111.244 508.998 111.378 509.156 111.481C509.313 111.584 509.49 111.653 509.676 111.684C509.861 111.715 510.051 111.707 510.233 111.662C510.416 111.616 510.587 111.533 510.735 111.418Z" fill="url(#paint0_linear)"/>
<g filter="url(#filter0_d)">
<g style="mix-blend-mode:multiply">
<path d="M408.022 315.199C406.072 314.143 404.621 312.355 403.987 310.229C403.354 308.103 403.59 305.812 404.644 303.86L462.022 197.645L500.214 204.697C502.13 205.048 504.107 204.625 505.712 203.521C507.316 202.416 508.418 200.72 508.775 198.805L509.449 195.182C509.493 194.872 509.599 194.574 509.762 194.307C509.925 194.039 510.14 193.808 510.395 193.626C510.65 193.445 510.939 193.317 511.245 193.25C511.551 193.184 511.867 193.181 512.174 193.24L520.685 194.814L530.533 196.618L542.289 198.793C547.199 199.702 551.546 202.524 554.376 206.639C557.207 210.754 558.288 215.824 557.383 220.736L527.977 379.958L408.022 315.199Z" fill="#FD3E72"/>
</g>
<path d="M526.707 114.198L648.784 193.251C652.657 195.759 653.764 200.934 651.256 204.809L540.26 376.289C537.752 380.163 532.579 381.271 528.706 378.763L406.628 299.71C402.755 297.202 401.649 292.027 404.157 288.152L515.153 116.672C517.661 112.798 522.834 111.69 526.707 114.198Z" fill="white"/>
</g>
<path d="M528.214 130.636C528.115 130.896 528.043 131.166 527.998 131.441C527.915 132.119 527.971 132.808 528.162 133.464C528.324 134.26 528.661 135.009 529.149 135.658C529.637 136.306 530.263 136.838 530.982 137.214C531.701 137.591 532.495 137.802 533.306 137.832C534.117 137.863 534.924 137.713 535.67 137.392C536.415 137.072 537.08 136.589 537.616 135.979C538.151 135.369 538.545 134.648 538.766 133.867C538.988 133.086 539.033 132.265 538.899 131.465C538.764 130.664 538.452 129.904 537.987 129.239C537.649 128.644 537.199 128.12 536.662 127.697C536.103 127.28 535.471 126.972 534.799 126.788C533.417 126.443 531.954 126.653 530.724 127.372C529.493 128.091 528.593 129.262 528.214 130.636Z" fill="#F9FBFC"/>
<path d="M528.063 131.46C527.98 132.139 528.036 132.827 528.228 133.483C529.476 133.767 530.77 133.782 532.024 133.528C533.278 133.275 534.465 132.758 535.505 132.012C535.505 132.012 535.609 131.941 535.633 131.905C537.109 130.807 538.219 129.287 538.814 127.546C539.409 125.805 539.463 123.924 538.967 122.152L535.861 120.132L536 120.353C537.096 121.87 537.559 123.754 537.289 125.605C537.02 127.457 536.04 129.132 534.557 130.273C534.501 130.333 534.439 130.387 534.373 130.436C533.469 131.078 532.43 131.504 531.337 131.681C530.243 131.859 529.123 131.783 528.063 131.46Z" fill="url(#paint1_linear)"/>
<path d="M534.719 119.387L532.637 120.879L533.058 118.305L534.719 119.387Z" fill="url(#paint2_linear)"/>
<path d="M598.87 179.559L630.119 199.796C631.885 200.939 632.39 203.298 631.246 205.064L611.011 236.327C609.867 238.094 607.509 238.599 605.743 237.455L574.493 217.219C572.728 216.075 572.223 213.716 573.366 211.95L593.602 180.687C594.746 178.921 597.104 178.416 598.87 179.559Z" fill="#FD3E72"/>
<path d="M598.356 205.704C599.151 207.183 600.308 208.437 601.719 209.348C603.131 210.261 604.756 210.794 606.435 210.894C607.981 213.032 608.848 215.585 608.925 218.223C609.002 220.86 608.285 223.46 606.867 225.685L606.554 226.167C601.763 226.893 596.872 225.849 592.795 223.229C588.719 220.609 585.736 216.594 584.405 211.933L584.701 211.461C586.14 209.245 588.211 207.512 590.645 206.485C593.08 205.459 595.766 205.187 598.356 205.704ZM611.752 193.741C613.191 194.671 614.322 196.006 615.002 197.579C615.683 199.151 615.882 200.89 615.575 202.576C615.269 204.262 614.469 205.819 613.279 207.052C612.088 208.284 610.559 209.135 608.885 209.499C607.211 209.863 605.466 209.722 603.872 209.095C602.278 208.468 600.906 207.382 599.928 205.975C598.95 204.569 598.411 202.903 598.379 201.19C598.346 199.477 598.822 197.792 599.746 196.349C600.36 195.384 601.158 194.55 602.095 193.895C603.032 193.239 604.089 192.775 605.205 192.529C606.321 192.283 607.475 192.26 608.601 192.461C609.726 192.662 610.8 193.084 611.762 193.701L611.752 193.741Z" fill="white"/>
<path d="M523.46 134.512L583.106 173.137L580.079 177.815L520.433 139.19L523.46 134.512Z" fill="#E6E6E6"/>
<path d="M513.933 149.24L573.579 187.865L570.552 192.543L510.905 153.918L513.933 149.24Z" fill="#E6E6E6"/>
<path d="M504.388 163.97L564.034 202.594L561.007 207.272L501.361 168.647L504.388 163.97Z" fill="#E6E6E6"/>
<path d="M489.933 186.317L572.865 240.021L571.766 241.717L488.834 188.013L489.933 186.317Z" fill="#E6E6E6"/>
<path d="M485.267 193.54L568.199 247.244L567.1 248.94L484.169 195.236L485.267 193.54Z" fill="#E6E6E6"/>
<path d="M585.676 244.695L599.714 253.785L590.624 267.828L576.586 258.738L585.676 244.695Z" fill="#E6E6E6"/>
<path d="M475.332 208.873L558.263 262.577L557.165 264.274L474.233 210.57L475.332 208.873Z" fill="#E6E6E6"/>
<path d="M470.652 216.087L553.584 269.791L552.486 271.487L469.554 217.784L470.652 216.087Z" fill="#E6E6E6"/>
<path d="M571.08 267.238L585.117 276.328L576.027 290.372L561.99 281.281L571.08 267.238Z" fill="#E6E6E6"/>
<path d="M460.875 231.203L543.807 284.907L542.709 286.604L459.777 232.9L460.875 231.203Z" fill="#E6E6E6"/>
<path d="M456.193 238.433L539.125 292.137L538.027 293.833L455.095 240.129L456.193 238.433Z" fill="#E6E6E6"/>
<path d="M556.625 289.576L570.663 298.666L561.573 312.71L547.535 303.619L556.625 289.576Z" fill="#E6E6E6"/>
<path d="M520.888 309.012L549.17 327.327C550.316 328.069 550.643 329.599 549.901 330.745L531.587 359.038C530.845 360.184 529.315 360.512 528.17 359.77L499.888 341.456C498.743 340.714 498.415 339.184 499.157 338.038L517.471 309.744C518.213 308.598 519.743 308.271 520.888 309.012Z" fill="#FD3E72"/>
<path d="M515.239 339.086L531.676 340.556L524.728 325.584L515.239 339.086Z" fill="#F0F5F7"/>
<path d="M437.608 267.15L507.143 312.179L503.285 318.141L433.749 273.112L437.608 267.15Z" fill="#E6E6E6"/>
<path d="M429.069 280.338L498.33 325.189L497.231 326.886L427.971 282.035L429.069 280.338Z" fill="#E6E6E6"/>
<path d="M231.279 282.249C232.753 278.487 211.732 267.85 202.475 263.998C193.218 260.146 185.234 258.77 183.424 263.361C181.615 267.952 188.381 272.395 197.774 275.901C207.166 279.407 229.792 286.007 231.279 282.249Z" fill="#363141"/>
<path d="M252.189 238.918C249.046 237.143 235.119 259.793 231.429 266.34C227.738 272.887 224.332 280.061 227.855 282.052C231.378 284.042 235.755 277.41 239.446 270.864C243.136 264.317 255.345 240.697 252.189 238.918Z" fill="#363141"/>
<path d="M248.461 244.55C251.523 247.364 255.582 241.552 257.165 239.601C259.25 237.092 256.697 233.382 255.384 232.479C254.071 231.576 252.319 236.479 251.855 236.524C251.391 236.569 253.315 232.448 251.996 231.727C250.677 231.006 247.417 236.155 246.907 238.691C246.398 241.226 246.54 242.805 248.461 244.55Z" fill="#FFC8AF"/>
<path d="M246.868 238.68C247.378 236.144 250.638 230.995 251.957 231.716C253.276 232.437 251.335 236.568 251.816 236.513L246.627 240.58C246.65 239.941 246.731 239.305 246.868 238.68Z" fill="#FFC8AF"/>
<path d="M200.49 318.775C201.073 319.065 201.707 319.237 202.357 319.282C203.007 319.327 203.659 319.243 204.276 319.036C204.894 318.828 205.464 318.501 205.955 318.073C206.446 317.645 206.848 317.124 207.137 316.54C212.758 305.322 218.774 294.21 224.856 283.115C231.79 270.636 238.976 258.287 246.415 246.067C261.257 221.639 277.148 197.833 294.301 174.958C302.925 163.555 311.83 152.368 321.186 141.557C330.542 130.746 340.397 120.393 350.704 110.515C361.073 100.664 372.165 91.6034 383.887 83.4105C395.584 75.1164 408.315 68.3892 421.756 63.4004C408.132 68.0166 395.169 74.391 383.193 82.3621C371.159 90.2674 359.728 99.057 348.997 108.658C338.307 118.278 328.129 128.516 318.328 139.038C308.526 149.56 299.299 160.632 290.27 171.857C272.348 194.384 255.651 217.875 239.98 242.023C232.146 254.063 224.545 266.292 217.175 278.71C210.671 289.691 204.338 300.719 198.297 311.924C197.984 312.511 197.792 313.154 197.732 313.817C197.671 314.479 197.744 315.147 197.946 315.78C198.147 316.414 198.474 317.001 198.906 317.507C199.338 318.012 199.866 318.426 200.461 318.724L200.49 318.775Z" fill="#212F47"/>
<path d="M257.744 237.705L256.885 234.845L254.959 232.378C253.708 232.751 252.616 233.527 251.852 234.585C251.447 235.41 252.425 237.722 253.313 239.049" fill="#FFC8AF"/>
<path d="M365.983 132.084C365.973 132.136 365.973 132.188 365.983 132.239C365.994 132.291 366.014 132.339 366.043 132.382C366.072 132.426 366.11 132.463 366.153 132.492C366.197 132.52 366.245 132.54 366.297 132.55L366.362 132.568L366.721 132.339C366.735 132.31 366.744 132.278 366.745 132.246C366.762 132.143 366.739 132.038 366.681 131.951C366.623 131.865 366.534 131.804 366.432 131.781C366.432 131.781 366.366 131.763 366.353 131.759L366.022 131.939C365.993 131.982 365.98 132.033 365.983 132.084Z" fill="#212F47"/>
<path d="M151.651 335.576L184.945 331.041L187.543 278.743L190.001 261.022L174.563 252.39L163.949 252.599C157.91 252.72 154.337 256.824 153.563 262.824C153.563 262.824 148.259 295.066 148.642 305.716C148.959 315.727 149.964 325.704 151.651 335.576Z" fill="#363141"/>
<path d="M171.984 243.867L169.687 253.388C170.652 254.799 171.894 255.998 173.339 256.91C174.784 257.823 176.4 258.43 178.089 258.693C181.265 259.234 182.229 257.852 182.229 257.852L182.982 253.459L171.984 243.867Z" fill="#FFC8AF"/>
<path d="M172.148 234.762C172.105 235.188 172.051 235.598 172.015 235.998C171.98 236.13 171.944 236.262 171.902 236.42C170.392 243.425 173.629 251.757 180.279 253.949L180.661 254.051C182.098 254.436 187.254 255.818 189.586 254.025C192.541 251.575 194.647 248.256 195.605 244.539C195.82 242.799 195.926 241.047 195.922 239.294C196.084 238.319 197.127 235.375 197.336 234.017C198.469 227.732 195.242 220.732 187.763 219.477C176.546 217.504 173.122 227.119 172.148 234.762Z" fill="#FFC8AF"/>
<path d="M177.249 236.299C178.102 234.011 180.363 233.274 181.765 231.472C182.22 230.707 182.514 229.858 182.631 228.975C184.217 223.745 192.271 228.815 195.623 228.752C196.534 228.792 197.432 228.527 198.175 227.999C198.918 227.471 199.464 226.71 199.726 225.836C199.803 225.03 199.666 224.217 199.331 223.479C198.995 222.742 198.472 222.106 197.813 221.634C196.998 220.902 195.966 220.456 194.874 220.366C194.679 220.383 194.483 220.364 194.296 220.309C194.029 220.169 193.807 219.958 193.653 219.699C193.268 219.114 192.726 218.65 192.089 218.359C191.452 218.069 190.746 217.963 190.052 218.055C189.796 218.159 189.519 218.197 189.245 218.165C188.991 218.071 188.77 217.903 188.611 217.683C185.269 213.961 179.255 214.993 175.949 218.151C172.83 221.404 170.746 225.51 169.961 229.949C169.071 235.267 169.592 240.726 171.472 245.779L175.424 236.305L177.249 236.299Z" fill="#212F47"/>
<path d="M175.448 235.422C174.584 235.063 172.589 233.963 172.452 237.164C172.172 242.744 175.421 242.908 175.421 242.908C175.369 242.102 175.275 240.974 175.244 239.665C176.204 239.3 175.205 238.439 175.276 237.807C175.259 237.677 175.266 237.545 175.296 237.417C175.3 236.767 175.374 236.123 175.448 235.422Z" fill="#FFC8AF"/>
<path d="M175.296 237.415C175.296 237.415 174.471 236.275 173.652 236.536C172.833 236.797 173.093 238.62 173.481 239.757C173.87 240.893 174.539 241.086 174.709 240.821C174.879 240.555 173.595 239.702 174.218 239.275C174.841 238.848 175.262 238.862 175.27 238.567L175.296 237.415Z" fill="#F2B49C"/>
<path d="M177.849 233.477C177.449 234.936 177.155 236.421 176.969 237.921C176.883 238.76 176.75 239.593 176.57 240.416C176.46 240.825 176.34 242.221 175.855 242.345C175.1 242.524 175.299 238.563 175.295 238.052C175.16 236.939 175.135 235.814 175.219 234.695L177.849 233.477Z" fill="#212F47"/>
<path d="M184.462 254.844C181.016 254.416 177.032 250.294 176.028 248.555C175.024 246.816 175.074 242.884 175.074 242.884C174.721 242.841 174.386 242.706 174.101 242.493C173.816 242.281 173.591 241.997 173.449 241.671C173.449 241.671 173.254 243.401 173.819 244.089C174.383 244.778 174.797 244.973 174.876 245.419C174.954 245.864 174.812 251.354 177.391 253.331C179.971 255.309 184.462 254.844 184.462 254.844Z" fill="#F2B49C"/>
<path d="M170.421 304.399C174.366 303.392 170.593 279.915 168.305 270.098C166.017 260.281 162.356 252.952 157.554 254.153C152.751 255.355 153.109 263.566 155.813 273.311C158.516 283.055 166.473 305.419 170.421 304.399Z" fill="#443D51"/>
<path d="M215.917 291.21C215.063 287.701 188.997 292.989 181.695 294.765C174.392 296.541 166.841 298.928 167.778 302.869C168.715 306.811 176.563 305.478 183.862 303.715C191.16 301.952 216.772 294.719 215.917 291.21Z" fill="#443D51"/>
<path d="M209.184 292.657C209.877 296.872 217.175 294.798 219.625 294.041C223.617 292.75 224.858 286.96 224.398 285.352C223.938 283.745 216.332 288.45 215.919 288.198C215.506 287.946 220.751 285.987 220.182 284.576C219.613 283.165 213.674 285.236 211.654 286.971C209.635 288.706 208.744 290.079 209.184 292.657Z" fill="#FFC8AF"/>
<path d="M199.997 224.877C199.997 224.877 201.509 220.814 190.965 215.175C180.42 209.536 171.963 211.243 170.273 213.279C168.582 215.314 170.963 218.455 170.404 220.171C169.846 221.888 169.041 228.741 169.041 228.741L197.072 228.038L199.997 224.877Z" fill="#3B3646"/>
<path d="M169.507 235.285C172.389 233.23 191.406 230.988 197.305 234.449L196.973 235.689C197.394 235.698 197.811 235.607 198.189 235.423C198.568 235.24 198.897 234.968 199.15 234.632C199.991 233.443 202.133 227.033 200.803 225.404C199.473 223.775 186.483 221.878 178.331 222.606C170.179 223.335 168.588 226.952 168.588 226.952C168.588 226.952 168.275 234.658 168.445 235.397C168.653 235.904 169.052 236.31 169.555 236.528L169.507 235.285Z" fill="#4A4555"/>
<path d="M424.992 63.1365C407.312 67.4615 325.562 107.186 252.006 231.687" stroke="#212F47" stroke-miterlimit="10" stroke-linecap="round"/>
<path d="M421.388 64.6166C421.388 64.6166 481.941 72.2456 508.492 107.552" stroke="#100D10" stroke-width="0.75" stroke-miterlimit="10"/>
<g filter="url(#filter1_d)">
<rect x="432.603" y="189.173" width="51.1325" height="51.1325" rx="10" transform="rotate(30 432.603 189.173)" fill="#FD3E72"/>
</g>
<path d="M458.676 216.301C458.194 211.715 455.65 208.239 452.084 206.18C452.084 206.18 443.362 201.144 436.269 207.466C433.653 209.794 432.06 213.043 431.597 216.514C431.415 217.83 431.374 219.162 431.476 220.487C431.853 225.044 433.728 237.983 433.728 237.983C433.728 237.983 448.262 231.512 452.065 229.041C456.02 226.47 459.23 221.568 458.676 216.301ZM440.941 225.331C439.467 224.48 438.279 223.211 437.527 221.684C436.775 220.158 436.492 218.442 436.714 216.754C436.937 215.066 437.655 213.482 438.777 212.202C439.9 210.922 441.376 210.003 443.02 209.562C444.664 209.121 446.402 209.178 448.013 209.725C449.625 210.271 451.037 211.284 452.073 212.634C453.109 213.984 453.721 215.612 453.832 217.311C453.943 219.009 453.547 220.703 452.696 222.177C452.137 223.163 451.388 224.027 450.492 224.72C449.596 225.413 448.571 225.921 447.477 226.215C446.383 226.508 445.242 226.581 444.12 226.429C442.998 226.278 441.917 225.904 440.941 225.331Z" fill="white"/>
<defs>
<filter id="filter0_d" x="384.662" y="107.855" width="276.937" height="285.251" filterUnits="userSpaceOnUse" color-interpolation-filters="sRGB">
<feFlood flood-opacity="0" result="BackgroundImageFix"/>
<feColorMatrix in="SourceAlpha" type="matrix" values="0 0 0 0 0 0 0 0 0 0 0 0 0 0 0 0 0 0 127 0" result="hardAlpha"/>
<feOffset dy="4"/>
<feGaussianBlur stdDeviation="4.5"/>
<feColorMatrix type="matrix" values="0 0 0 0 0 0 0 0 0 0 0 0 0 0 0 0 0 0 0.25 0"/>
<feBlend mode="normal" in2="BackgroundImageFix" result="effect1_dropShadow"/>
<feBlend mode="normal" in="SourceGraphic" in2="effect1_dropShadow" result="shape"/>
</filter>
<filter id="filter1_d" x="402.037" y="188.173" width="79.8483" height="79.8483" filterUnits="userSpaceOnUse" color-interpolation-filters="sRGB">
<feFlood flood-opacity="0" result="BackgroundImageFix"/>
<feColorMatrix in="SourceAlpha" type="matrix" values="0 0 0 0 0 0 0 0 0 0 0 0 0 0 0 0 0 0 127 0" result="hardAlpha"/>
<feOffset dy="4"/>
<feGaussianBlur stdDeviation="2.5"/>
<feComposite in2="hardAlpha" operator="out"/>
<feColorMatrix type="matrix" values="0 0 0 0 0 0 0 0 0 0 0 0 0 0 0 0 0 0 0.25 0"/>
<feBlend mode="normal" in2="BackgroundImageFix" result="effect1_dropShadow"/>
<feBlend mode="normal" in="SourceGraphic" in2="effect1_dropShadow" result="shape"/>
</filter>
<linearGradient id="paint0_linear" x1="535.476" y1="113.316" x2="515.503" y2="124.655" gradientUnits="userSpaceOnUse">
<stop stop-color="#414042"/>
<stop offset="1" stop-color="#0C0A0C"/>
</linearGradient>
<linearGradient id="paint1_linear" x1="-413.751" y1="254.449" x2="-476.349" y2="237.676" gradientUnits="userSpaceOnUse">
<stop stop-color="#414042"/>
<stop offset="1" stop-color="#0C0A0C"/>
</linearGradient>
<linearGradient id="paint2_linear" x1="341.387" y1="120.646" x2="338.875" y2="119.973" gradientUnits="userSpaceOnUse">
<stop stop-color="#414042"/>
<stop offset="1" stop-color="#0C0A0C"/>
</linearGradient>
</defs>
</svg>
