<svg width="601" height="601" viewBox="0 0 601 601" fill="none" xmlns="http://www.w3.org/2000/svg">
<circle opacity="0.2" r="300.184" transform="matrix(-1 0 0 1 300.184 300.184)" fill="white"/>
<circle opacity="0.15" r="229" transform="matrix(-1 0 0 1 300 300)" fill="white"/>
<g filter="url(#filter0_d_9041:12572)">
<path d="M499.642 154.591C499.642 154.591 474.169 358.498 432.315 404.377C381.994 459.418 345.554 449.612 325.321 478C305.036 449.577 268.562 459.418 218.275 404.342C176.421 358.463 151 154.556 151 154.556C230.272 71.7881 325.321 41.0029 325.321 41.0029C327.23 42.929 419.601 74.8666 499.642 154.591Z" fill="#FD3E72"/>
</g>
<g filter="url(#filter1_d_9041:12572)">
<path d="M499.64 154.588C499.64 154.588 474.166 358.495 432.313 404.374C381.991 459.416 345.551 449.609 325.319 477.997L325.319 395.474L325.318 170.547L325.319 41C327.227 42.9261 419.598 74.8637 499.64 154.588Z" fill="#E32D5F"/>
</g>
<path d="M472.733 171.036C472.733 171.036 451.217 343.274 415.87 382.057C373.392 428.613 342.557 421.776 325.412 445.757C308.268 421.776 277.451 428.613 234.955 382.057C199.608 343.274 178.144 171.036 178.144 171.036C255.048 90.6515 325.412 75.1123 325.412 75.1123C325.412 75.1123 404.356 98.3477 472.733 171.036Z" fill="white"/>
<mask id="mask0_9041:12572" style="mask-type:alpha" maskUnits="userSpaceOnUse" x="325" y="68" width="148" height="398">
<path d="M325.054 68.7061H472.823V465.065H325.054V68.7061Z" fill="#C4C4C4"/>
</mask>
<g mask="url(#mask0_9041:12572)">
<path d="M472.708 171.046C472.708 171.046 451.191 343.285 415.844 382.068C373.366 428.624 342.531 421.787 325.387 445.768C308.243 421.787 277.425 428.624 234.929 382.068C199.583 343.285 178.118 171.046 178.118 171.046C255.022 90.6622 325.387 75.123 325.387 75.123C325.387 75.123 404.33 98.3585 472.708 171.046Z" fill="#F8F3F3"/>
</g>
<circle cx="325.336" cy="239.601" r="65.6695" fill="#FD3E72"/>
<path d="M362.35 202.587C355.923 202.587 350.742 207.613 350.742 213.847V246.458C350.742 247.821 350.662 249.185 350.501 250.627C350.34 252.029 349.939 253.315 349.296 254.484C348.653 255.653 347.689 256.627 346.404 257.406C345.119 258.185 343.271 258.575 340.941 258.575C338.612 258.575 336.764 258.185 335.479 257.406C334.193 256.627 333.229 255.653 332.586 254.484C331.944 253.315 331.542 252.029 331.381 250.627C331.221 249.224 331.14 247.821 331.14 246.458V212.834C324.714 212.834 319.532 217.86 319.532 224.094V246.419C319.532 247.782 319.452 249.146 319.291 250.588C319.131 251.99 318.729 253.276 318.086 254.445C317.444 255.614 316.48 256.588 315.194 257.367C313.909 258.146 312.061 258.536 309.732 258.536C307.402 258.536 305.554 258.146 304.269 257.367C302.984 256.588 302.02 255.614 301.377 254.445C300.734 253.276 300.333 251.99 300.172 250.588C300.011 249.185 299.931 247.782 299.931 246.419V223.081C293.504 223.081 288.323 228.146 288.323 234.341V246.419C288.323 249.614 288.644 252.419 289.287 254.834C289.929 257.25 290.733 259.315 291.697 261.068C292.701 262.822 293.825 264.263 295.111 265.432C296.396 266.601 297.722 267.536 299.047 268.276C302.14 269.99 305.715 270.926 309.691 271.042C313.748 270.926 317.323 269.99 320.456 268.276C321.782 267.536 323.107 266.601 324.352 265.432C324.674 265.12 324.995 264.809 325.316 264.458C325.638 264.809 325.959 265.12 326.28 265.432C327.566 266.601 328.891 267.536 330.217 268.276C333.309 269.99 336.884 270.926 340.861 271.042C344.918 270.926 348.493 269.99 351.626 268.276C352.951 267.536 354.277 266.601 355.522 265.432C356.807 264.263 357.932 262.822 358.936 261.068C359.94 259.315 360.743 257.25 361.346 254.834C361.948 252.419 362.23 249.653 362.23 246.419L362.35 202.587Z" fill="white"/>
<g filter="url(#filter2_d_9041:12572)">
<ellipse cx="223.901" cy="369.685" rx="9.80916" ry="28.937" fill="#C9C9C9"/>
<path d="M218.996 228C218.996 226.343 220.339 225 221.996 225H225.806C227.462 225 228.805 226.343 228.805 228V355.462H218.996V228Z" fill="#C9C9C9"/>
<ellipse cx="439.702" cy="369.685" rx="9.80916" ry="28.937" fill="#C9C9C9"/>
<path d="M434.797 228C434.797 226.343 436.141 225 437.797 225H441.607C443.264 225 444.607 226.343 444.607 228V355.462H434.797V228Z" fill="#C9C9C9"/>
<rect x="120" y="394" width="423" height="80" fill="#E1E1E1"/>
<rect x="119.924" y="400.584" width="422.775" height="79.4542" fill="#F4F4F4"/>
<path d="M458.657 421.831C451.287 421.82 442.892 427.278 444.137 438.564C447.679 427.758 458.935 429.636 461.967 435.592C464.389 440.349 462.719 446.808 457.008 448.862C470.314 444.488 473.368 425.601 461.721 422.169C460.741 421.945 459.71 421.833 458.657 421.831Z" fill="#E0E0E0"/>
<path d="M461.722 422.17C473.6 425.69 470.203 445.224 456.135 449.133C450.562 450.597 446.047 448.98 443.057 445.715C448.819 452.868 464.4 452.462 469.142 449.687C471.917 446.278 473.581 441.927 473.581 437.188C473.581 430.409 468.988 423.829 461.722 422.17Z" fill="#E0E0E0"/>
<path d="M445.908 419C435.23 425.515 432.948 441.152 438.594 449.925C442.391 454.992 448.794 456.915 453.768 457C459.973 457 465.512 454.148 469.144 449.684C464.404 452.462 448.807 452.87 443.05 445.707C437.349 439.473 437.209 427.245 445.908 419Z" fill="#E0E0E0"/>
<path d="M445.909 419C438.878 422.042 433.957 429.039 433.957 437.187C433.957 442.042 435.703 446.488 438.601 449.934C432.947 441.163 435.227 425.517 445.909 419Z" fill="#E0E0E0"/>
<path d="M444.137 438.565C447.679 427.759 458.935 429.637 461.967 435.593C457.777 425.537 443.002 425.423 444.137 438.565Z" fill="#E0E0E0"/>
<g opacity="0.2" filter="url(#filter3_f_9041:12572)">
<path d="M125.109 481.019L121.885 402.546H219.977L209.385 481.019H125.109Z" fill="#A5A5A5"/>
</g>
<path d="M119.352 480.085L116.088 403.159C116.04 402.022 116.949 401.074 118.087 401.074H218.169C219.384 401.074 220.318 402.148 220.15 403.35L209.427 480.276C209.289 481.264 208.444 482 207.446 482H121.35C120.278 482 119.397 481.155 119.352 480.085Z" fill="white"/>
<path d="M168.751 422.682C161.769 422.672 153.815 427.842 154.995 438.535C158.351 428.297 169.014 430.076 171.887 435.719C174.181 440.226 172.599 446.345 167.189 448.29C179.794 444.147 182.688 426.253 171.654 423.003C170.725 422.79 169.748 422.684 168.751 422.682Z" fill="#E6E6E6"/>
<path d="M171.654 423.003C182.907 426.337 179.689 444.843 166.362 448.547C161.082 449.934 156.804 448.402 153.972 445.309C159.43 452.085 174.192 451.701 178.684 449.072C181.313 445.842 182.889 441.72 182.889 437.231C182.889 430.809 178.538 424.575 171.654 423.003Z" fill="#E6E6E6"/>
<path d="M156.672 420C146.557 426.172 144.394 440.986 149.744 449.297C153.341 454.098 159.407 455.919 164.119 456C169.997 456 175.244 453.298 178.686 449.069C174.196 451.701 159.419 452.087 153.965 445.302C148.564 439.396 148.432 427.812 156.672 420Z" fill="#E6E6E6"/>
<path d="M156.674 420C150.013 422.882 145.351 429.51 145.351 437.23C145.351 441.829 147.005 446.042 149.751 449.306C144.393 440.996 146.554 426.174 156.674 420Z" fill="#E6E6E6"/>
<path d="M154.995 438.535C158.351 428.298 169.014 430.076 171.887 435.719C167.917 426.193 153.92 426.085 154.995 438.535Z" fill="#E6E6E6"/>
<g opacity="0.2" filter="url(#filter4_f_9041:12572)">
<path d="M540.943 480.038L544.66 401.565H500.519L501.913 480.038H540.943Z" fill="#A5A5A5"/>
</g>
<path d="M543.771 480.096L547.502 402.68C547.557 401.539 546.647 400.584 545.504 400.584H503.046C501.927 400.584 501.026 401.502 501.046 402.62L502.445 480.036C502.465 481.126 503.355 482 504.445 482H541.773C542.841 482 543.72 481.162 543.771 480.096Z" fill="white"/>
<path d="M295.508 451.751V445.744C295.508 444.64 296.403 443.744 297.508 443.744H331.763C332.868 443.744 333.763 444.64 333.763 445.744V451.751C333.763 452.277 333.556 452.782 333.186 453.157L329.508 456.882C329.132 457.263 328.62 457.477 328.085 457.477H301.186C300.651 457.477 300.139 457.263 299.763 456.882L296.084 453.157C295.715 452.782 295.508 452.277 295.508 451.751Z" fill="#919090" stroke="#757575"/>
<rect x="297.469" y="445.706" width="34.3321" height="4.90458" rx="0.5" fill="#AFAFAF"/>
<rect x="238.615" y="415.298" width="41.1985" height="43.1603" rx="3" fill="#5A5A5A"/>
<rect x="241.076" y="417.76" width="36.2748" height="17.6374" rx="1.5" fill="#5A5A5A" stroke="#757575"/>
<rect x="241.076" y="438.359" width="36.2748" height="17.6374" rx="1.5" fill="#5A5A5A" stroke="#757575"/>
<rect x="242.788" y="446.937" width="32.8511" height="7.34733" rx="0.25" fill="#908F8F" stroke="#908F8F" stroke-width="0.5"/>
<rect x="242.788" y="426.338" width="32.8511" height="7.34733" rx="0.25" fill="#908F8F" stroke="#908F8F" stroke-width="0.5"/>
<rect x="212.13" y="387.832" width="300.16" height="8.82824" rx="2" fill="#F4F4F4"/>
<path d="M152.294 364.29L116 387.832H546.622L510.328 364.29H152.294Z" fill="#E3E3E3"/>
<rect x="116" y="387.832" width="103.977" height="8.82824" rx="2" fill="white"/>
<rect x="500.519" y="387.832" width="47.084" height="8.82824" rx="2" fill="white"/>
</g>
<g filter="url(#filter5_d_9041:12572)">
<path d="M104.431 473.245C104.431 473.245 63.0417 484.716 61.325 485.301C58.8343 486.175 59.251 495.324 63.1409 495.225C64.9767 495.155 94.9647 496.336 98.7554 496.098C102.546 495.86 112.747 491.841 112.747 491.841L104.431 473.245Z" fill="#455A64"/>
<path d="M87.1651 489.062C86.9567 489.062 86.6789 486.899 85.3392 484.616C83.9996 482.334 82.2829 480.965 82.4119 480.806C82.5409 480.647 84.5454 481.798 85.9446 484.269C87.3437 486.74 87.3437 489.062 87.1651 489.062Z" fill="#263238"/>
<path d="M91.4916 487.077C91.2832 487.077 90.8664 485.152 89.765 482.989C88.6635 480.826 87.3536 479.307 87.5025 479.168C87.6513 479.029 89.239 480.389 90.3802 482.681C91.5214 484.973 91.6702 487.077 91.4916 487.077Z" fill="#263238"/>
<path d="M95.5405 486.015C95.3321 486.015 95.4908 483.931 94.5481 481.629C93.6054 479.327 92.1368 477.908 92.2856 477.759C92.4345 477.61 94.2703 478.88 95.1931 481.381C96.116 483.881 95.7091 486.084 95.5405 486.015Z" fill="#263238"/>
<path d="M94.7961 480.656C94.4336 479.673 94.2814 478.625 94.3496 477.58C94.3667 476.432 94.5165 475.29 94.7961 474.176C94.9512 473.519 95.1569 472.876 95.4114 472.251C95.5405 471.867 95.7701 471.524 96.0762 471.259C96.2829 471.101 96.5387 471.021 96.7984 471.034C97.0581 471.047 97.305 471.151 97.4952 471.328C97.8145 471.639 98.0116 472.055 98.0509 472.499C98.0752 472.862 98.0752 473.227 98.0509 473.591C98.0396 474.26 97.953 474.925 97.7929 475.575C97.517 476.684 97.0896 477.749 96.5228 478.741C96.0614 479.68 95.4287 480.525 94.6572 481.231C94.5679 481.172 95.2625 480.239 96.0861 478.513C96.5708 477.535 96.934 476.502 97.1678 475.436C97.3035 474.814 97.3733 474.178 97.3762 473.541C97.3762 472.906 97.3762 472.112 96.9892 471.804C96.922 471.728 96.8278 471.68 96.7262 471.67C96.6246 471.661 96.5233 471.691 96.4434 471.755C96.2325 471.954 96.0754 472.203 95.9869 472.479C95.7374 473.073 95.5285 473.683 95.3618 474.305C95.0707 475.362 94.8879 476.446 94.816 477.54C94.7267 479.465 94.9152 480.646 94.7961 480.656Z" fill="#263238"/>
<path d="M94.8556 480.24C95.702 479.886 96.6199 479.736 97.5349 479.803C98.5386 479.8 99.5388 479.923 100.512 480.17C101.105 480.294 101.677 480.504 102.209 480.795C102.549 480.964 102.825 481.24 102.993 481.581C103.162 481.921 103.214 482.308 103.141 482.681C103.046 483.039 102.857 483.364 102.594 483.624C102.33 483.884 102.002 484.069 101.643 484.159C101.034 484.314 100.396 484.314 99.7874 484.159C97.939 483.616 96.3188 482.483 95.1731 480.934C95.9422 481.381 96.6784 481.881 97.3761 482.433C98.1457 482.957 99.0077 483.331 99.9164 483.534C100.422 483.658 100.949 483.658 101.455 483.534C101.692 483.469 101.908 483.343 102.082 483.169C102.256 482.995 102.382 482.779 102.447 482.542C102.487 482.309 102.448 482.069 102.337 481.861C102.226 481.652 102.048 481.487 101.832 481.391C101.357 481.129 100.85 480.932 100.323 480.805C99.4134 480.546 98.4788 480.383 97.5349 480.319C95.8876 480.18 94.8754 480.349 94.8556 480.24Z" fill="#263238"/>
<path d="M80.8043 489.499C80.5959 489.499 80.8043 487.702 79.9807 485.767C79.1571 483.832 77.8274 482.681 77.9961 482.523C78.1648 482.364 79.7922 483.336 80.6654 485.5C81.5386 487.663 80.973 489.578 80.8043 489.499Z" fill="#263238"/>
<path d="M109.681 491.412C109.169 491.712 108.631 491.964 108.074 492.167C106.569 492.745 105.027 493.222 103.459 493.596C98.2672 494.737 92.9554 495.24 87.6416 495.094C81.4297 495.025 75.833 494.747 71.7644 494.578L66.9616 494.33C66.3713 494.326 65.7829 494.263 65.2052 494.141C65.8008 494.034 66.4067 493.994 67.0112 494.022H71.824L87.7011 494.33C92.968 494.464 98.234 494.035 103.41 493.05C107.359 492.306 109.681 491.283 109.681 491.412Z" fill="#263238"/>
<path d="M110.941 492.356C109.883 491.939 108.846 491.469 107.835 490.947C105.394 489.793 102.679 489.343 99.996 489.647C96.8701 490.123 94.6573 492.227 93.2184 493.675C92.4823 494.547 91.683 495.363 90.8269 496.117C91.3794 495.108 92.0635 494.177 92.8612 493.348C93.6749 492.388 94.5974 491.525 95.6099 490.778C96.8702 489.84 98.3367 489.217 99.8868 488.962C102.7 488.623 105.55 489.163 108.044 490.51C109.1 490.969 110.078 491.592 110.941 492.356Z" fill="#263238"/>
<path d="M69.3729 494.152C69.545 493.619 69.7471 493.095 69.9783 492.584C70.4132 491.334 70.5156 489.993 70.2755 488.692C70.0354 487.39 69.4611 486.174 68.6089 485.162C67.9539 484.368 67.428 483.991 67.4776 483.911C67.5272 483.832 68.1325 484.13 68.8966 484.904C69.8992 485.913 70.5738 487.201 70.8323 488.599C71.0908 489.998 70.9211 491.442 70.3454 492.743C69.8989 493.715 69.4226 494.192 69.3729 494.152Z" fill="#263238"/>
<path d="M147.667 474.474C147.667 474.474 190.178 480.934 191.895 481.321C194.485 481.897 195.15 491.026 191.28 491.344C189.444 491.492 159.803 496.236 156.012 496.454C152.222 496.672 140.334 493.556 140.334 493.556L147.667 474.474Z" fill="#455A64"/>
<path d="M166.69 488.119C166.898 488.119 166.918 485.916 167.97 483.485C169.022 481.054 170.58 479.516 170.431 479.347C170.282 479.178 168.446 480.607 167.335 483.217C166.223 485.827 166.521 488.159 166.69 488.119Z" fill="#263238"/>
<path d="M162.165 486.689C162.373 486.689 162.552 484.705 163.395 482.422C164.239 480.14 165.38 478.453 165.181 478.364C164.983 478.274 163.604 479.773 162.74 482.184C161.877 484.595 161.986 486.699 162.165 486.689Z" fill="#263238"/>
<path d="M158.017 486.084C158.215 486.084 157.818 484.01 158.453 481.619C159.088 479.227 160.438 477.65 160.24 477.501C160.041 477.352 158.443 478.85 157.788 481.47C157.134 484.09 157.858 486.174 158.017 486.084Z" fill="#263238"/>
<path d="M158.106 480.685C158.36 479.668 158.387 478.608 158.186 477.579C158.044 476.449 157.767 475.34 157.362 474.275C157.127 473.64 156.845 473.023 156.519 472.429C156.348 472.058 156.08 471.739 155.745 471.506C155.519 471.374 155.254 471.326 154.997 471.369C154.739 471.413 154.505 471.546 154.335 471.745C154.056 472.093 153.912 472.529 153.929 472.975C153.93 473.34 153.956 473.705 154.008 474.067C154.097 474.745 154.263 475.411 154.504 476.051C154.911 477.114 155.462 478.115 156.141 479.028C156.712 479.907 157.438 480.674 158.285 481.291C158.374 481.211 157.57 480.298 156.548 478.76C155.947 477.83 155.461 476.831 155.099 475.783C154.896 475.181 154.756 474.559 154.683 473.928C154.623 473.293 154.524 472.509 154.851 472.161C154.91 472.078 154.998 472.02 155.098 472C155.197 471.98 155.301 471.998 155.387 472.052C155.622 472.224 155.81 472.453 155.933 472.717C156.251 473.276 156.529 473.856 156.767 474.454C157.18 475.469 157.492 476.523 157.699 477.599C158.037 479.505 157.997 480.685 158.106 480.685Z" fill="#263238"/>
<path d="M158.007 480.28C157.138 480.022 156.22 479.971 155.328 480.131C154.344 480.249 153.377 480.486 152.45 480.836C151.878 481.034 151.337 481.311 150.842 481.659C150.525 481.868 150.284 482.175 150.157 482.533C150.03 482.892 150.023 483.281 150.138 483.644C150.276 483.988 150.503 484.29 150.796 484.518C151.089 484.747 151.437 484.893 151.805 484.944C152.43 485.018 153.063 484.94 153.651 484.716C155.418 483.95 156.89 482.635 157.848 480.965C157.146 481.499 156.483 482.083 155.863 482.711C155.163 483.325 154.351 483.8 153.472 484.11C152.982 484.281 152.459 484.336 151.944 484.269C151.699 484.235 151.468 484.138 151.272 483.989C151.075 483.839 150.921 483.642 150.822 483.416C150.757 483.187 150.768 482.942 150.854 482.72C150.94 482.498 151.096 482.31 151.299 482.185C151.739 481.876 152.215 481.622 152.718 481.431C153.592 481.063 154.504 480.79 155.437 480.617C156.975 480.349 158.007 480.389 158.007 480.28Z" fill="#263238"/>
<path d="M173.06 487.801C173.269 487.751 172.852 486.024 173.427 483.99C174.003 481.956 175.214 480.676 175.065 480.537C174.916 480.398 173.368 481.529 172.763 483.811C172.157 486.094 172.911 487.9 173.06 487.801Z" fill="#263238"/>
<path d="M144.581 493.139C145.123 493.382 145.688 493.568 146.268 493.695C147.827 494.094 149.412 494.386 151.011 494.568C156.299 495.084 161.631 494.954 166.888 494.181C173.05 493.367 178.568 492.425 182.577 491.78L187.32 490.956C187.905 490.886 188.48 490.753 189.037 490.559C188.448 490.54 187.86 490.583 187.28 490.688L182.507 491.294L166.799 493.487C161.586 494.245 156.306 494.445 151.051 494.082C147.032 493.745 144.61 493.03 144.581 493.139Z" fill="#263238"/>
<path d="M143.479 494.22C143.549 494.31 144.591 493.516 146.397 492.454C148.681 491.01 151.326 490.24 154.028 490.231C157.183 490.331 159.624 492.156 161.232 493.427C162.07 494.199 162.958 494.915 163.891 495.57C163.23 494.629 162.442 493.784 161.549 493.059C160.627 492.2 159.608 491.451 158.513 490.827C157.148 490.049 155.617 489.607 154.047 489.537C151.206 489.528 148.432 490.402 146.109 492.037C145.124 492.623 144.236 493.36 143.479 494.22Z" fill="#263238"/>
<path d="M279.874 299.815C279.612 299.279 279.174 298.848 278.633 298.595L279.626 296.61C279.558 295.899 279.36 295.206 279.04 294.566C278.544 293.713 276.808 293.782 276.808 293.782L277.076 293.217C277.257 292.816 277.332 292.376 277.294 291.938C277.256 291.5 277.105 291.079 276.857 290.716C276.778 290.607 276.698 290.498 276.599 290.379C275.998 289.794 275.233 289.407 274.406 289.267C274.406 289.267 275.399 287.362 274.952 286.558C274.488 285.897 273.84 285.387 273.088 285.091C272.337 284.794 271.515 284.725 270.725 284.891C268.077 285.931 265.507 287.158 263.034 288.563C262.803 288.688 262.548 288.762 262.286 288.779C262.023 288.796 261.76 288.756 261.515 288.662C261.27 288.568 261.048 288.421 260.865 288.233C260.682 288.044 260.541 287.818 260.454 287.57C259.571 285.036 258.303 282.653 256.693 280.505C254.828 278.262 253.081 278.441 252.059 278.838C251.945 278.882 251.841 278.951 251.756 279.04C251.671 279.129 251.607 279.235 251.567 279.351C251.527 279.467 251.514 279.591 251.527 279.713C251.54 279.835 251.579 279.953 251.642 280.058C252.644 281.654 253.546 283.312 254.341 285.02C254.828 286.32 255.334 296.104 255.334 296.104L252.655 301.205L225.634 343.885C225.634 343.885 184.8 316.367 184.948 315.683L183.023 347.239L213.785 367.68C216.42 369.43 219.407 370.582 222.534 371.055C225.662 371.528 228.855 371.31 231.89 370.417C234.925 369.525 237.727 367.978 240.101 365.887C242.474 363.796 244.361 361.211 245.629 358.313L266.339 313.361L268.849 309.689L278.604 303.437C278.604 303.437 280.221 300.639 279.874 299.815Z" fill="#FFBE9D"/>
<path d="M275.398 289.278C275.398 289.278 275.339 289.347 275.21 289.456L274.624 289.932C274.079 290.349 273.334 290.925 272.441 291.629L269.177 294.11C268.561 294.567 267.946 295.102 267.192 295.539C266.819 295.798 266.389 295.964 265.939 296.025C265.489 296.085 265.03 296.038 264.602 295.886C264.161 295.687 263.809 295.335 263.61 294.894C263.433 294.485 263.355 294.039 263.381 293.594C263.456 292.763 263.805 291.981 264.374 291.371C264.876 290.833 265.42 290.335 266.001 289.883L267.47 288.662L269.613 286.906L270.199 286.439C270.338 286.34 270.407 286.281 270.417 286.291L270.228 286.479L269.673 286.985L267.589 288.791L266.14 290.032C265.573 290.485 265.042 290.983 264.552 291.52C263.994 292.082 263.644 292.817 263.56 293.604C263.509 294.011 263.58 294.425 263.766 294.791C263.952 295.157 264.243 295.459 264.602 295.658C264.988 295.816 265.413 295.858 265.823 295.777C266.23 295.698 266.62 295.547 266.974 295.331C267.668 294.904 268.303 294.338 268.958 293.931L272.243 291.48L274.476 289.853L275.091 289.416L275.398 289.278Z" fill="#EB996E"/>
<path d="M277.562 293.871C277.425 294.014 277.272 294.14 277.106 294.248C276.808 294.476 276.361 294.804 275.806 295.191C274.704 295.955 273.146 296.987 271.37 298.029C270.923 298.287 270.497 298.555 270.04 298.763C269.598 298.972 269.109 299.064 268.621 299.031C268.207 298.982 267.816 298.817 267.491 298.555C267.167 298.294 266.922 297.946 266.785 297.553C266.619 297.021 266.661 296.446 266.904 295.945C266.974 295.814 267.057 295.691 267.153 295.578C267.222 295.499 267.262 295.469 267.272 295.469C267.282 295.469 267.143 295.647 266.994 295.985C266.814 296.471 266.814 297.006 266.994 297.493C267.121 297.85 267.347 298.162 267.646 298.394C267.945 298.626 268.304 298.768 268.681 298.803C269.13 298.824 269.577 298.732 269.981 298.535C270.426 298.32 270.86 298.081 271.281 297.821C273.057 296.779 274.625 295.776 275.756 295.042L277.086 294.169C277.236 294.057 277.395 293.957 277.562 293.871Z" fill="#EB996E"/>
<path d="M278.822 298.358C278.677 298.464 278.52 298.553 278.356 298.626L277.036 299.291C275.915 299.846 274.357 300.591 272.64 301.404C272.221 301.615 271.791 301.8 271.35 301.96C270.922 302.119 270.459 302.156 270.01 302.069C269.803 302.03 269.606 301.946 269.435 301.823C269.263 301.699 269.121 301.539 269.018 301.355C268.852 301.031 268.797 300.661 268.859 300.303C268.968 299.8 269.245 299.348 269.643 299.023C269.911 298.795 270.09 298.705 270.1 298.725C270.11 298.745 269.951 298.854 269.703 299.092C269.358 299.427 269.126 299.86 269.038 300.333C268.989 300.649 269.045 300.973 269.197 301.255C269.289 301.411 269.415 301.545 269.564 301.647C269.713 301.75 269.882 301.819 270.06 301.851C270.467 301.923 270.886 301.882 271.271 301.732C271.702 301.572 272.122 301.387 272.531 301.176C274.258 300.372 275.816 299.648 276.957 299.132L278.316 298.546C278.475 298.459 278.645 298.395 278.822 298.358Z" fill="#EB996E"/>
<path d="M279.527 302.505C279.022 302.68 278.504 302.816 277.979 302.912C276.986 303.13 275.677 303.418 274.198 303.715L273.116 303.934C272.775 304.017 272.425 304.057 272.074 304.053C271.738 304.052 271.413 303.937 271.152 303.725C271.037 303.63 270.945 303.51 270.883 303.374C270.822 303.238 270.791 303.09 270.794 302.941C270.811 302.735 270.874 302.534 270.976 302.354C271.079 302.174 271.22 302.019 271.39 301.899C271.501 301.802 271.639 301.739 271.787 301.721C271.787 301.721 271.648 301.8 271.449 301.979C271.305 302.101 271.187 302.253 271.105 302.424C271.023 302.595 270.978 302.781 270.973 302.971C270.973 303.092 271.001 303.211 271.054 303.319C271.108 303.428 271.185 303.522 271.281 303.596C271.509 303.769 271.788 303.86 272.074 303.854C272.409 303.849 272.742 303.805 273.067 303.725L274.148 303.497C275.627 303.199 276.967 302.941 277.939 302.763C278.462 302.639 278.992 302.553 279.527 302.505Z" fill="#EB996E"/>
<path d="M268.939 300.521C268.024 300.338 267.093 300.245 266.16 300.243C265.234 300.33 264.319 300.513 263.431 300.789C264.244 300.273 265.187 299.997 266.15 299.995C267.11 299.91 268.076 300.092 268.939 300.521Z" fill="#EB996E"/>
<path d="M123.137 291.173C123.137 291.173 109.403 279.592 112.578 271.614C115.754 263.636 124.576 259.706 128.912 245.169C132.375 233.578 153.006 211.211 177.456 228.081C177.456 228.081 185.732 226.781 190.436 230.552C195.14 234.322 196.281 241.844 198.275 250.527C201.352 263.913 203.038 274.204 197.085 280.753C191.131 287.302 188.948 289.059 189.265 296.501C189.682 306.216 193.969 304.916 190.257 312.001L169.756 305.313L169.538 299.667L167.464 304.976L155.556 300.689L123.137 291.173Z" fill="#37353F"/>
<path d="M191.418 242.331C190.089 245.387 191.18 248.92 192.411 252.016C193.641 255.112 195.14 258.377 194.504 261.652C193.373 267.457 186.159 270.692 185.365 276.536C184.938 279.672 186.506 282.867 185.901 285.983C185.296 289.099 182.795 291.262 180.126 292.771C177.456 294.279 174.509 295.291 171.999 297.058C171.999 297.058 166.481 301.583 156.975 294.13" fill="#37353F"/>
<path d="M152.47 234.739C151.236 234.453 149.941 234.64 148.839 235.263C147.736 235.886 146.908 236.899 146.516 238.103L126.818 303.497C124.268 311.148 133.893 319.314 142.1 321.974C150.396 324.663 152.073 320.724 154.702 313.519C159.108 301.492 160.656 296.947 160.656 297.017C160.656 297.086 171.651 298.902 178.518 286.101C181.932 279.721 185.464 268.537 188.015 259.309C190.337 250.993 188.412 239.125 180.007 237.17L152.47 234.739Z" fill="#FFBE9D"/>
<path d="M160.666 297.018C154.243 294.898 148.536 291.033 144.184 285.854C144.184 285.854 145.523 296.77 159.545 300.233L160.666 297.018Z" fill="#EB996E"/>
<path d="M129.527 277.696C133.219 265.332 136.914 252.961 140.612 240.584C141.366 238.043 142.239 235.334 144.353 233.737C146.466 232.139 149.026 232.05 151.527 232C162.332 231.775 173.126 232.841 183.678 235.175C184.174 237.686 182.001 240.078 179.56 240.901C177.119 241.725 174.48 241.427 171.919 241.457C169.359 241.487 166.551 241.943 164.814 243.838C163.078 245.734 162.78 248.959 161.034 251.063C158.057 254.675 151.735 253.911 148.749 257.542C146.496 260.291 147.101 264.31 146.357 267.783C145.514 271.752 145.514 271.752 142.388 277.528C140.492 281.08 145.256 287.868 140.512 296.67L131.304 294.05L135.342 280.455L129.865 293.206L129.527 277.696Z" fill="#37353F"/>
<path d="M158.781 244.355C158.624 244.477 158.45 244.574 158.265 244.643C157.764 244.887 157.277 245.159 156.806 245.457C154.65 246.795 152.808 248.583 151.405 250.697C150.003 252.812 149.073 255.205 148.679 257.712C148.442 259.48 148.442 261.273 148.679 263.041C148.973 264.971 149.089 266.924 149.027 268.876C148.963 269.893 148.753 270.896 148.401 271.853C148.03 272.749 147.588 273.615 147.082 274.443C146.06 275.899 145.35 277.551 144.998 279.295C144.805 280.894 144.849 282.512 145.127 284.098C145.335 285.616 145.603 287.075 145.702 288.335C145.98 290.417 145.667 292.535 144.799 294.448C144.531 294.95 144.197 295.413 143.807 295.827C143.519 296.095 143.36 296.224 143.35 296.204C143.846 295.644 144.27 295.024 144.611 294.359C145.375 292.473 145.625 290.418 145.335 288.405C145.206 287.115 144.918 285.715 144.69 284.197C144.386 282.561 144.329 280.889 144.521 279.236C144.908 275.584 148.431 272.905 148.491 268.896C148.552 266.974 148.443 265.052 148.163 263.15C147.915 261.339 147.915 259.503 148.163 257.692C148.652 254.622 149.95 251.738 151.924 249.337C153.239 247.729 154.845 246.382 156.657 245.368C157.144 245.087 157.651 244.844 158.176 244.643C158.361 244.516 158.565 244.419 158.781 244.355Z" fill="#37353F"/>
<path d="M203.257 300.151L203.088 300.29C202.969 300.37 202.8 300.509 202.562 300.648C201.86 301.061 201.101 301.368 200.31 301.561C199.047 301.874 197.732 301.922 196.449 301.699C194.731 301.427 193.138 300.634 191.885 299.427C190.373 297.949 189.41 295.999 189.156 293.9C188.991 292.736 189.068 291.55 189.384 290.417C189.731 289.226 190.282 288.105 191.012 287.102C192.671 285.078 194.508 283.205 196.499 281.506C197.496 280.581 198.4 279.56 199.198 278.459C199.987 277.308 200.611 276.052 201.054 274.728C201.867 272.079 202.219 269.31 202.096 266.542C201.998 263.95 201.729 261.368 201.292 258.811C200.583 254.476 199.48 250.215 197.998 246.08C196.999 243.286 195.839 240.553 194.524 237.893C194.058 236.95 193.681 236.226 193.423 235.74C193.273 235.514 193.143 235.275 193.036 235.025C193.208 235.25 193.36 235.489 193.492 235.74C193.78 236.206 194.187 236.921 194.683 237.854C196.077 240.485 197.294 243.207 198.325 246C199.87 250.143 201.019 254.423 201.758 258.782C202.215 261.359 202.497 263.965 202.602 266.581C202.735 269.407 202.376 272.234 201.54 274.937C201.09 276.308 200.445 277.608 199.625 278.797C198.802 279.926 197.871 280.973 196.846 281.922C194.874 283.596 193.051 285.439 191.399 287.43C190.694 288.383 190.16 289.45 189.821 290.585C189.518 291.663 189.434 292.79 189.573 293.9C189.809 295.911 190.714 297.784 192.143 299.219C193.338 300.387 194.855 301.172 196.499 301.471C197.744 301.71 199.024 301.69 200.26 301.412C201.318 301.147 202.328 300.722 203.257 300.151Z" fill="#37353F"/>
<path d="M118.84 286.698C120.001 286.397 121.086 285.856 122.025 285.11C124.486 282.925 126.002 279.868 126.253 276.586C126.466 274.334 126.526 272.069 126.431 269.809C126.287 267.18 126.491 264.544 127.037 261.969C127.371 260.575 127.91 259.238 128.634 258C129.405 256.691 130.481 255.588 131.77 254.785C134.459 253.138 137.724 253.217 140.701 252.195C142.152 251.687 143.456 250.832 144.501 249.704C145.507 248.585 146.405 247.372 147.181 246.082C148.768 243.582 150.297 240.952 152.718 239.394C153.881 238.654 155.191 238.176 156.558 237.995C157.824 237.825 159.103 237.772 160.379 237.836C162.635 238.012 164.903 237.992 167.156 237.777C170.407 237.331 173.5 236.097 176.166 234.184C176.884 233.659 177.573 233.096 178.23 232.497L178.736 232.021L178.925 231.862C178.157 232.801 177.27 233.635 176.285 234.343C173.622 236.346 170.501 237.652 167.206 238.144C164.934 238.38 162.647 238.42 160.369 238.263C157.967 238.263 155.238 238.263 152.976 239.801C150.713 241.339 149.195 243.83 147.607 246.35C146.816 247.672 145.899 248.915 144.869 250.061C143.777 251.244 142.415 252.143 140.899 252.681C137.843 253.733 134.588 253.674 132.078 255.222C129.719 256.823 128.089 259.291 127.543 262.088C126.992 264.619 126.775 267.211 126.898 269.799C126.984 272.081 126.904 274.366 126.659 276.636C126.367 279.99 124.762 283.092 122.194 285.269C121.483 285.83 120.671 286.251 119.803 286.509C119.577 286.575 119.349 286.628 119.118 286.668C119.028 286.696 118.934 286.706 118.84 286.698Z" fill="#413E4D"/>
<path d="M128.783 245.595C129.43 245.822 130.093 245.998 130.768 246.121C132.601 246.345 134.461 246.038 136.126 245.238C138.554 243.961 140.727 242.249 142.537 240.187C143.628 239.075 144.769 237.885 146.059 236.763C147.382 235.569 148.895 234.603 150.535 233.905C152.202 233.255 153.975 232.918 155.764 232.913C157.405 232.909 159.045 232.998 160.676 233.181C162.224 233.33 163.653 233.489 165.062 233.499C166.336 233.519 167.609 233.416 168.863 233.191C170.682 232.906 172.393 232.146 173.824 230.988C174.316 230.527 174.783 230.04 175.224 229.529C175.152 229.691 175.062 229.844 174.956 229.986C174.84 230.168 174.711 230.34 174.569 230.502C174.382 230.731 174.176 230.943 173.953 231.137C172.524 232.391 170.776 233.225 168.903 233.548C167.628 233.803 166.332 233.93 165.032 233.925C163.633 233.925 162.155 233.786 160.597 233.657C158.985 233.486 157.365 233.406 155.744 233.419C154.018 233.417 152.305 233.733 150.693 234.352C147.409 235.711 145.047 238.321 142.844 240.494C140.986 242.581 138.746 244.292 136.245 245.535C134.517 246.335 132.588 246.598 130.708 246.29C130.202 246.194 129.708 246.037 129.239 245.823C129.08 245.762 128.927 245.686 128.783 245.595Z" fill="#413E4D"/>
<path d="M200.578 273.42C200.822 272.812 200.985 272.175 201.064 271.524C201.156 269.745 200.661 267.984 199.655 266.513C198.504 264.528 196.37 262.861 194.207 260.748C193.042 259.645 192.066 258.357 191.319 256.937C190.594 255.378 190.176 253.693 190.089 251.976C189.861 248.453 190.466 245.158 190.386 242.171C190.501 239.53 189.733 236.925 188.203 234.769C187.136 233.344 185.588 232.353 183.847 231.98C183.19 231.886 182.524 231.869 181.862 231.931C182.023 231.859 182.194 231.812 182.369 231.792C182.859 231.724 183.357 231.724 183.847 231.792C185.677 232.099 187.325 233.084 188.461 234.55C189.999 236.327 190.793 239.145 190.833 242.171C190.873 245.198 190.347 248.512 190.575 251.946C190.655 253.607 191.052 255.237 191.746 256.749C192.458 258.127 193.394 259.377 194.515 260.45C196.618 262.554 198.791 264.32 199.933 266.404C200.95 267.948 201.408 269.793 201.233 271.633C201.169 272.125 201.029 272.604 200.816 273.052C200.752 273.184 200.672 273.307 200.578 273.42Z" fill="#413E4D"/>
<path d="M112.757 279.364C112.539 279.261 112.326 279.145 112.122 279.017C111.547 278.628 111.029 278.16 110.584 277.627C109.764 276.628 109.17 275.463 108.841 274.213C108.512 272.963 108.457 271.657 108.679 270.383C108.839 269.536 109.123 268.717 109.522 267.952C109.997 267.151 110.585 266.422 111.269 265.789C112.836 264.5 114.572 263.432 116.429 262.613C118.447 261.751 120.31 260.564 121.946 259.101C123.526 257.363 124.606 255.23 125.072 252.928C125.667 250.577 126.064 248.195 126.848 245.982C127.583 243.867 128.551 241.84 129.736 239.939C131.725 236.713 134.28 233.873 137.277 231.554C139.291 229.991 141.499 228.697 143.847 227.704C144.477 227.426 145.124 227.184 145.782 226.979C146.005 226.887 146.238 226.82 146.476 226.781C146.476 226.84 145.543 227.138 143.926 227.892C141.629 228.944 139.473 230.277 137.506 231.861C134.578 234.187 132.085 237.012 130.143 240.207C128.988 242.081 128.046 244.078 127.334 246.161C126.58 248.324 126.183 250.676 125.568 253.107C125.084 255.498 123.955 257.712 122.303 259.508C120.627 261.004 118.716 262.215 116.647 263.09C114.821 263.88 113.109 264.911 111.556 266.156C110.902 266.756 110.334 267.444 109.869 268.2C109.479 268.922 109.198 269.698 109.036 270.502C108.789 271.901 108.867 273.337 109.264 274.7C109.568 275.734 110.067 276.701 110.733 277.548C111.327 278.238 112.007 278.848 112.757 279.364Z" fill="#37353F"/>
<path d="M203.376 274.343C203.326 274.343 203.793 273.866 204.428 272.924C205.303 271.59 205.903 270.096 206.194 268.528C206.609 266.201 206.525 263.813 205.946 261.522C205.174 258.725 203.976 256.064 202.393 253.633C200.756 251.003 198.99 248.622 197.501 246.369C196.152 244.385 194.98 242.287 193.998 240.098C193.339 238.615 192.856 237.059 192.56 235.464C192.482 235.03 192.429 234.593 192.401 234.154C192.379 234.002 192.379 233.849 192.401 233.697C192.401 233.697 192.52 234.322 192.768 235.424C193.128 236.995 193.65 238.525 194.326 239.989C195.351 242.131 196.546 244.188 197.898 246.141C199.397 248.374 201.183 250.745 202.86 253.405C204.471 255.881 205.68 258.598 206.442 261.452C207.01 263.812 207.057 266.267 206.581 268.647C206.243 270.25 205.566 271.762 204.596 273.083C204.334 273.438 204.042 273.77 203.723 274.075C203.62 274.179 203.503 274.269 203.376 274.343Z" fill="#37353F"/>
<path d="M100.303 412.653L92.1565 426.833C92.1565 426.833 51.6599 412.018 27.9533 416.335C18.9331 417.972 9.28773 438.424 22.4261 451.562C35.2369 464.373 58.1496 482.493 101.147 488.357C102.219 488.496 119.832 492.277 118.741 492.148C117.649 492.019 143.43 496.117 143.43 496.117L149.483 473.234L197.501 480.766C225.802 478.841 239.655 448.575 222.607 438.83C206.73 429.751 176.821 429.016 176.821 429.016L165.985 412.028L100.303 412.653Z" fill="#AA8C30"/>
<path d="M144.412 497C144.531 496.226 144.879 494.142 145.573 489.865C145.96 487.583 146.427 484.804 147.032 481.609C147.34 480.001 147.677 478.304 148.084 476.508C148.292 475.605 148.511 474.692 148.778 473.75C148.907 473.283 149.046 472.817 149.215 472.341C149.367 471.828 149.617 471.35 149.949 470.931L150.019 471.279C139.798 467.647 127.017 462.854 113.402 457.108C105.027 453.546 97.1281 449.954 90.1719 446.193C86.8545 444.464 83.6702 442.49 80.6457 440.289C77.8275 438.205 75.307 436.121 72.9452 434.335C68.2813 430.643 64.0143 428.262 60.8687 427.249C60.1758 427.003 59.4703 426.795 58.755 426.624C58.2367 426.479 57.7098 426.366 57.1772 426.287L56.1849 426.108L55.8475 426.029C55.9629 426.016 56.0795 426.016 56.1949 426.029L57.1872 426.158C57.7291 426.216 58.2663 426.312 58.7947 426.446C59.5204 426.597 60.2362 426.793 60.9381 427.031C62.872 427.658 64.7345 428.486 66.4951 429.502C68.824 430.849 71.0556 432.358 73.1735 434.017C75.555 435.813 78.0755 437.877 80.9037 439.971C83.9205 442.148 87.0947 444.099 90.4002 445.806C97.3464 449.517 105.235 453.099 113.601 456.652C127.205 462.388 139.967 467.22 150.158 470.902L150.446 471.011L150.227 471.249C149.949 471.627 149.737 472.05 149.602 472.499C149.433 472.956 149.294 473.422 149.156 473.879C148.888 474.802 148.659 475.724 148.451 476.608C148.034 478.394 147.677 480.091 147.359 481.688C146.724 484.884 146.228 487.642 145.811 489.925C145.395 492.207 145.057 493.943 144.819 495.184C144.7 495.789 144.611 496.256 144.531 496.563C144.501 496.711 144.462 496.857 144.412 497Z" fill="#8D7425"/>
<path d="M213.299 441.609H213.031L212.287 441.49C211.632 441.4 210.679 441.162 209.419 441.033C205.89 440.568 202.325 440.442 198.771 440.656C193.499 440.996 188.273 441.86 183.172 443.236C180.294 444 177.298 444.913 174.241 445.975C171.185 447.037 168.049 448.257 164.844 449.537C161.716 450.778 158.519 451.835 155.268 452.703C152.122 453.566 149.056 454.241 146.119 454.807C140.244 455.958 134.896 456.662 130.41 457.208C125.925 457.754 122.283 458.121 119.773 458.379L116.875 458.667L116.121 458.726C116.036 458.739 115.949 458.739 115.863 458.726H116.111L116.865 458.617L119.743 458.23L130.361 456.9C134.846 456.305 140.175 455.561 146.02 454.39C148.947 453.814 151.974 453.13 155.129 452.256C158.361 451.388 161.542 450.338 164.655 449.111C167.851 447.831 170.996 446.6 174.083 445.548C177.169 444.496 180.165 443.564 183.063 442.819C188.197 441.459 193.458 440.631 198.762 440.349C202.336 440.162 205.921 440.342 209.459 440.884C210.719 441.043 211.662 441.321 212.317 441.44L213.061 441.609C213.14 441.598 213.22 441.598 213.299 441.609Z" fill="#8D7425"/>
<path d="M139.312 433.373C139.312 433.71 137.168 434.256 133.566 434.593C124.16 435.362 114.694 434.352 105.662 431.616C102.219 430.525 100.204 429.522 100.304 429.195C100.532 428.48 109.036 430.743 119.753 431.854C130.47 432.966 139.242 432.618 139.312 433.373Z" fill="#AB6D29"/>
<path d="M177.278 429.354C176.76 429.536 176.229 429.679 175.69 429.781C175.064 429.907 174.444 430.066 173.834 430.257C173.12 430.465 172.296 430.684 171.413 431.001C169.326 431.699 167.279 432.511 165.281 433.432C163.038 434.504 160.617 435.774 158.146 437.243C153.96 439.797 149.946 442.621 146.129 445.698C144.66 446.868 143.479 447.841 142.675 448.516C142.272 448.884 141.837 449.216 141.375 449.508C141.733 449.093 142.121 448.705 142.536 448.347C143.31 447.623 144.452 446.61 145.9 445.37C149.668 442.191 153.675 439.308 157.888 436.747C160.217 435.356 162.618 434.091 165.082 432.956C167.104 432.041 169.182 431.256 171.304 430.604C172.197 430.307 173.031 430.108 173.765 429.93C174.385 429.76 175.015 429.628 175.65 429.533C176.187 429.427 176.731 429.367 177.278 429.354Z" fill="#966025"/>
<path d="M132.256 449.526C131.276 449.379 130.318 449.105 129.408 448.712C127.187 447.864 125.016 446.886 122.908 445.785L116.627 442.48C115.734 442.068 114.868 441.598 114.037 441.071C114.991 441.336 115.916 441.699 116.796 442.153C118.453 442.907 120.696 444.058 123.166 445.318C125.637 446.579 127.89 447.67 129.567 448.375C131.244 449.079 132.276 449.446 132.256 449.526Z" fill="#966025"/>
<path d="M136.632 414.359C136.712 414.359 136.573 415.847 136.424 418.239C136.275 420.63 136.136 423.935 136.206 427.587C136.275 431.238 136.543 434.533 136.781 436.934C136.968 438.217 137.091 439.509 137.148 440.804C137.018 440.487 136.931 440.153 136.89 439.812C136.751 439.157 136.593 438.194 136.424 437.004C135.994 433.895 135.748 430.764 135.69 427.626C135.631 424.493 135.754 421.358 136.057 418.239C136.186 417.038 136.305 416.076 136.414 415.411C136.444 415.053 136.517 414.699 136.632 414.359Z" fill="#966025"/>
<path d="M141.147 415.828C141.147 415.828 140.969 415.986 140.721 416.284C140.373 416.699 140.153 417.206 140.086 417.743C140.03 418.129 140.057 418.522 140.164 418.897C140.272 419.271 140.458 419.619 140.711 419.916C141.058 420.224 141.482 420.432 141.938 420.518C142.394 420.604 142.865 420.564 143.3 420.403C143.735 420.242 144.118 419.966 144.408 419.604C144.699 419.242 144.885 418.808 144.948 418.348C144.938 417.955 144.844 417.568 144.673 417.214C144.502 416.86 144.258 416.546 143.956 416.294C143.556 415.93 143.06 415.689 142.527 415.599C142.14 415.54 141.921 415.599 141.911 415.53C141.902 415.46 142.12 415.401 142.547 415.401C143.148 415.419 143.728 415.635 144.194 416.016C144.556 416.29 144.851 416.644 145.056 417.05C145.261 417.456 145.37 417.903 145.375 418.358C145.329 418.923 145.123 419.463 144.78 419.915C144.438 420.367 143.974 420.712 143.442 420.909C142.91 421.106 142.334 421.147 141.779 421.027C141.225 420.908 140.717 420.632 140.314 420.234C140.025 419.882 139.82 419.471 139.711 419.029C139.603 418.588 139.595 418.128 139.689 417.683C139.794 417.087 140.094 416.543 140.542 416.135C140.899 415.867 141.137 415.808 141.147 415.828Z" fill="#966025"/>
<path d="M153.472 399.486C153.252 399.844 152.992 400.177 152.698 400.478C151.953 401.363 151.158 402.205 150.316 402.999C149.071 404.184 147.745 405.281 146.347 406.283C144.627 407.502 142.819 408.593 140.939 409.548C139.049 410.477 137.092 411.263 135.084 411.9C133.44 412.411 131.762 412.809 130.063 413.09C128.924 413.289 127.774 413.419 126.62 413.477C126.197 413.518 125.772 413.518 125.35 413.477C125.35 413.378 127.146 413.279 130.004 412.723C131.681 412.391 133.338 411.96 134.965 411.433C140.548 409.609 145.691 406.646 150.068 402.731C152.232 400.806 153.393 399.426 153.472 399.486Z" fill="#263238"/>
<path d="M171.582 410.5C171.582 410.649 169.796 410.649 167.692 411.185C165.588 411.721 164.001 412.515 163.921 412.386C166.124 410.766 168.88 410.088 171.582 410.5Z" fill="#263238"/>
<g opacity="0.3">
<path opacity="0.3" d="M129.934 412.979C138.561 411.398 146.376 406.883 152.053 400.198C152.57 401.769 152.64 403.452 152.256 405.06C151.873 406.669 151.05 408.139 149.88 409.307C152.4 410.498 155.357 409.704 158.116 409.307C160.875 408.91 164.249 409.307 165.568 411.758C153.226 412.901 140.823 413.255 128.436 412.82" fill="black"/>
</g>
<path d="M105.295 393.53C104.051 392.353 102.601 391.414 101.018 390.762C99.2892 390.091 97.4429 389.778 95.5898 389.839C93.3251 389.92 91.1088 390.518 89.11 391.585C84.7834 393.828 82.1637 397.658 80.2585 400.109C79.5205 401.139 78.8572 402.22 78.2738 403.344C78.0811 403.767 77.852 404.172 77.5891 404.555C77.7138 404.106 77.8833 403.67 78.0952 403.255C78.6047 402.086 79.2156 400.964 79.9211 399.901C80.8439 398.571 82.0347 397.083 83.4041 395.455C84.9397 393.693 86.7821 392.224 88.842 391.119C90.9138 390.018 93.2144 389.416 95.5601 389.363C97.4727 389.324 99.3722 389.686 101.137 390.424C102.324 390.91 103.413 391.605 104.352 392.479C104.613 392.707 104.852 392.96 105.066 393.233C105.235 393.421 105.315 393.52 105.295 393.53Z" fill="#263238"/>
<path d="M131.274 298.348L117.421 301.295L124.348 327.224L148.878 332.493L165.707 320.556L168.02 306.256L153.591 300.799L131.274 298.348Z" fill="#FFBE9D"/>
<path d="M121.519 300.232C121.519 300.232 130.897 327.462 148.223 324.941C165.549 322.421 164.1 304.777 164.1 304.777C164.1 304.777 182.18 310.295 187.767 316.159C193.353 322.024 190.059 334.775 190.059 334.775L185.375 357.817L175.174 401.955C175.174 401.955 179.074 414.002 169.101 416.979L165.955 412.017L106.148 413.704C106.148 413.704 93.3572 428.45 89.3681 423.37C85.379 418.289 81.5486 408.366 81.5486 408.366L109.026 303.497L121.519 300.232Z" fill="#5B5863"/>
<path d="M183.043 312.676C183.53 312.954 225.505 343.438 225.505 343.438C225.505 343.438 222.21 368.524 242.374 364.535C242.374 364.535 234.237 385.512 223.223 381.106C220.087 379.856 181.396 355.375 181.396 355.375L173.19 337.901L183.043 312.676Z" fill="#5B5863"/>
<path d="M121.519 301.572C121.519 301.572 120.527 301.572 118.969 301.75C110.753 302.544 80.4274 308.826 77.6191 330.23C76.1505 341.423 75.7337 374.16 74.146 387.884C74.146 387.884 76.6764 406.956 77.6191 410.489C79.2961 416.78 109.681 406.698 109.681 406.698L109.741 346.167L120.597 301.602" fill="#5B5863"/>
<path d="M102.328 356.568C102.355 356.729 102.355 356.893 102.328 357.054C102.335 357.525 102.369 357.996 102.427 358.463C102.643 360.164 103.073 361.832 103.707 363.425C104.481 365.469 105.692 367.791 106.843 370.45C107.475 371.846 108.006 373.285 108.431 374.757C108.856 376.345 109.132 377.97 109.254 379.61C109.431 382.767 109.348 385.933 109.006 389.076C108.758 391.974 108.52 394.584 108.163 396.757C107.892 398.475 107.491 400.17 106.962 401.828C106.763 402.413 106.595 402.82 106.466 403.157C106.415 403.316 106.342 403.467 106.247 403.604C106.247 403.604 106.436 402.949 106.773 401.768C107.217 400.102 107.549 398.408 107.766 396.697C108.083 394.534 108.282 391.934 108.51 389.047C108.814 385.924 108.88 382.782 108.708 379.649C108.592 378.04 108.326 376.446 107.915 374.886C107.501 373.436 106.987 372.017 106.376 370.639C105.225 367.989 104.074 365.628 103.33 363.554C102.713 361.916 102.332 360.198 102.199 358.453C102.158 357.981 102.158 357.506 102.199 357.034C102.228 356.875 102.271 356.719 102.328 356.568Z" fill="#47454F"/>
<path d="M103.727 348.926C103.816 348.926 103.886 350.464 104.233 352.895C104.683 356.095 105.424 359.247 106.446 362.312C106.754 363.215 107.071 364.079 107.438 364.912C107.51 365.105 107.593 365.294 107.686 365.478L108.044 366.023C108.274 366.386 108.486 366.761 108.679 367.145C109.389 368.464 109.773 369.934 109.8 371.432C109.806 372.453 109.606 373.465 109.215 374.409C109.077 374.762 108.894 375.096 108.669 375.401C109.17 374.172 109.43 372.858 109.433 371.531C109.361 370.1 108.96 368.704 108.262 367.452C108.073 367.095 107.855 366.738 107.627 366.381L107.27 365.835C107.149 365.63 107.05 365.414 106.972 365.19C106.625 364.356 106.307 363.473 105.98 362.57C104.938 359.474 104.239 356.273 103.896 353.024C103.757 351.784 103.717 350.762 103.707 350.047C103.67 349.674 103.677 349.298 103.727 348.926Z" fill="#47454F"/>
<path d="M104.938 339.836C104.858 339.836 104.402 338.595 103.509 336.64C102.34 334.086 100.935 331.648 99.311 329.357C97.674 327.078 95.8304 324.956 93.8037 323.016C92.2457 321.527 91.1938 320.684 91.2534 320.614C91.5398 320.75 91.8068 320.924 92.0472 321.13C92.7363 321.635 93.3988 322.175 94.0319 322.748C98.2964 326.527 101.646 331.227 103.826 336.491C104.233 337.484 104.531 338.327 104.699 338.913C104.817 339.209 104.897 339.519 104.938 339.836Z" fill="#47454F"/>
<path d="M190.942 322.054C190.962 322.859 190.896 323.664 190.744 324.455C190.565 325.934 190.307 327.968 190.079 330.22C189.85 332.473 189.662 334.517 189.533 336.006C189.518 336.811 189.418 337.613 189.235 338.397C189.122 337.599 189.099 336.79 189.166 335.986C189.166 334.487 189.325 332.433 189.563 330.171C189.801 327.908 190.108 325.864 190.376 324.406C190.476 323.603 190.666 322.814 190.942 322.054Z" fill="#47454F"/>
<path d="M199.575 347.537C199.575 347.626 198.265 347.755 196.231 348.331C193.583 349.065 191.171 350.478 189.235 352.429C188.207 353.531 187.311 354.75 186.566 356.061C185.982 357.15 185.472 358.277 185.038 359.435L184.552 360.784C184.432 361.151 184.333 361.499 184.234 361.777C184.163 362.081 184.053 362.374 183.906 362.65C183.901 362.337 183.948 362.025 184.045 361.727L184.274 360.665L184.69 359.276C185.085 358.078 185.572 356.914 186.149 355.793C186.899 354.46 187.812 353.227 188.868 352.121C190.855 350.101 193.373 348.683 196.132 348.033C196.601 347.904 197.078 347.807 197.561 347.745C197.918 347.677 198.279 347.63 198.642 347.606C198.948 347.534 199.263 347.511 199.575 347.537Z" fill="#47454F"/>
<path d="M227.37 375.152C227.109 374.807 226.886 374.434 226.705 374.041C226.497 373.684 226.259 373.227 226.011 372.681C225.763 372.136 225.465 371.54 225.207 370.836C224.553 369.206 224.02 367.531 223.609 365.824C223.112 363.727 222.78 361.593 222.617 359.444C222.482 357.298 222.518 355.144 222.726 353.004C222.908 351.258 223.213 349.527 223.639 347.824C223.798 347.089 224.026 346.444 224.195 345.839C224.331 345.35 224.496 344.869 224.691 344.4C224.821 343.986 224.994 343.587 225.207 343.209C225.306 343.209 224.641 344.966 223.996 347.863C223.626 349.559 223.361 351.276 223.203 353.004C223.025 355.123 222.999 357.252 223.123 359.374C223.283 361.494 223.595 363.6 224.056 365.676C224.442 367.358 224.932 369.015 225.525 370.637C226.576 373.485 227.46 375.113 227.37 375.152Z" fill="#47454F"/>
<path d="M216.464 367.701C216.285 367.366 216.151 367.009 216.068 366.639C215.791 365.663 215.585 364.668 215.452 363.662C215.026 360.273 215.345 356.833 216.385 353.58C217.397 350.313 219.13 347.315 221.456 344.808C222.154 344 223.126 343.477 224.185 343.339C224.475 343.331 224.763 343.389 225.028 343.508C225.197 343.597 225.286 343.657 225.276 343.677C224.927 343.564 224.561 343.517 224.195 343.538C223.224 343.751 222.353 344.286 221.724 345.056C219.526 347.58 217.877 350.533 216.881 353.729C215.869 356.933 215.505 360.306 215.81 363.652C216.068 366.133 216.554 367.671 216.464 367.701Z" fill="#47454F"/>
<path d="M148.223 362.759C148.191 363.161 148.108 363.558 147.975 363.94C147.869 364.397 147.737 364.848 147.578 365.289C147.386 365.882 147.164 366.465 146.913 367.036C146.286 368.535 145.529 369.976 144.65 371.342C142.489 374.71 139.663 377.6 136.345 379.837C134.997 380.749 133.573 381.543 132.087 382.208C131.522 382.472 130.942 382.704 130.351 382.903C129.916 383.083 129.469 383.229 129.011 383.339C128.631 383.471 128.239 383.564 127.84 383.617C127.84 383.518 129.468 383.072 131.929 381.881C133.372 381.178 134.759 380.365 136.077 379.45C137.674 378.313 139.175 377.045 140.562 375.659C141.917 374.242 143.149 372.711 144.243 371.084C145.13 369.749 145.91 368.345 146.575 366.887C147.717 364.396 148.123 362.729 148.223 362.759Z" fill="#47454F"/>
<g opacity="0.3">
<path opacity="0.3" d="M113.859 372.583L108.143 351.744C107.865 350.752 107.399 349.531 106.357 349.343C105.867 349.325 105.388 349.49 105.012 349.806C104.636 350.121 104.391 350.564 104.322 351.049C104.184 352.06 104.184 353.085 104.322 354.096C104.769 358.631 105.126 361.707 107.24 365.22C111.358 372.067 108.649 375.391 108.649 375.391C108.976 383.726 108.272 395.098 105.672 403.662L108.123 413.992C110.445 406.312 115.754 399.911 116.647 391.933C117.332 385.394 115.635 378.914 113.859 372.583Z" fill="black"/>
</g>
<g opacity="0.3">
<path opacity="0.3" d="M185.395 357.955C192.192 361.487 198.236 366.369 204.854 370.15C202.264 364.742 197.908 359.393 192.669 356.526C191.301 355.643 189.689 355.216 188.064 355.305C186.457 355.533 185.306 356.436 185.554 358.034" fill="black"/>
</g>
<g opacity="0.3">
<path opacity="0.3" d="M224.344 343.001C222.022 342.942 220.275 345.056 219.134 347.08C215.925 352.84 214.612 359.465 215.383 366.013C215.522 367.184 215.959 368.593 217.12 368.822C217.548 368.869 217.98 368.775 218.351 368.555C218.722 368.335 219.01 368 219.174 367.601C219.492 366.805 219.624 365.946 219.561 365.09C219.561 361.121 219.283 357.102 219.858 353.183C220.434 349.263 221.913 345.294 224.82 342.604" fill="black"/>
</g>
<g opacity="0.3">
<path opacity="0.3" d="M128.624 383.687C130.179 384.677 132.018 385.124 133.854 384.957C135.677 384.791 137.461 384.325 139.133 383.578C141.41 382.729 143.464 381.372 145.136 379.608C146.762 377.588 147.793 375.155 148.113 372.583C148.442 370.013 148.529 367.418 148.371 364.833C148.381 364.721 148.353 364.609 148.292 364.515C148.256 364.478 148.213 364.448 148.165 364.428C148.117 364.408 148.066 364.397 148.014 364.397C147.962 364.397 147.911 364.408 147.863 364.428C147.816 364.448 147.772 364.478 147.736 364.515C147.589 364.668 147.483 364.856 147.429 365.061C145.909 369.384 143.38 373.282 140.05 376.43C136.721 379.578 132.688 381.886 128.287 383.161" fill="black"/>
</g>
<path d="M133.97 415.919L111.204 413.976L102.784 391.615C102.784 391.615 90.2413 384.411 79.9609 400.198C79.554 400.834 85.9583 415.919 93.2581 429.534L107.858 433.442C107.858 433.442 109.49 434.932 110.204 436.192C110.843 437.075 111.716 437.763 112.725 438.177C112.725 438.177 112.189 441.779 116.327 442.146C116.327 442.146 116.684 446.115 119.74 445.57C120.571 445.469 121.371 445.192 122.086 444.757C122.802 444.322 123.416 443.74 123.888 443.049C123.888 443.049 123.888 448.08 126.587 447.544C129.286 447.008 129.723 444.845 130.219 444.131C130.715 443.416 131.291 436.023 131.291 436.023L131.241 423.838L138.267 429.534C140.252 430.526 143.278 431.796 144.965 430.278L133.97 415.919Z" fill="#FFBE9D"/>
<path d="M182.985 397.55L172.005 451.082C172.005 451.082 104.532 450.564 103.837 450.363C103.143 450.161 96.6038 397.55 96.6038 397.55H182.985Z" fill="#263238"/>
<circle cx="140.098" cy="424.622" r="6.38735" fill="white"/>
</g>
<defs>
<filter id="filter0_d_9041:12572" x="145" y="39.0029" width="360.642" height="448.997" filterUnits="userSpaceOnUse" color-interpolation-filters="sRGB">
<feFlood flood-opacity="0" result="BackgroundImageFix"/>
<feColorMatrix in="SourceAlpha" type="matrix" values="0 0 0 0 0 0 0 0 0 0 0 0 0 0 0 0 0 0 127 0" result="hardAlpha"/>
<feOffset dy="4"/>
<feGaussianBlur stdDeviation="3"/>
<feColorMatrix type="matrix" values="0 0 0 0 0 0 0 0 0 0 0 0 0 0 0 0 0 0 0.1 0"/>
<feBlend mode="normal" in2="BackgroundImageFix" result="effect1_dropShadow_9041:12572"/>
<feBlend mode="normal" in="SourceGraphic" in2="effect1_dropShadow_9041:12572" result="shape"/>
</filter>
<filter id="filter1_d_9041:12572" x="319.318" y="39" width="186.321" height="448.997" filterUnits="userSpaceOnUse" color-interpolation-filters="sRGB">
<feFlood flood-opacity="0" result="BackgroundImageFix"/>
<feColorMatrix in="SourceAlpha" type="matrix" values="0 0 0 0 0 0 0 0 0 0 0 0 0 0 0 0 0 0 127 0" result="hardAlpha"/>
<feOffset dy="4"/>
<feGaussianBlur stdDeviation="3"/>
<feColorMatrix type="matrix" values="0 0 0 0 0 0 0 0 0 0 0 0 0 0 0 0 0 0 0.1 0"/>
<feBlend mode="normal" in2="BackgroundImageFix" result="effect1_dropShadow_9041:12572"/>
<feBlend mode="normal" in="SourceGraphic" in2="effect1_dropShadow_9041:12572" result="shape"/>
</filter>
<filter id="filter2_d_9041:12572" x="90.9999" y="204" width="481.603" height="307" filterUnits="userSpaceOnUse" color-interpolation-filters="sRGB">
<feFlood flood-opacity="0" result="BackgroundImageFix"/>
<feColorMatrix in="SourceAlpha" type="matrix" values="0 0 0 0 0 0 0 0 0 0 0 0 0 0 0 0 0 0 127 0" result="hardAlpha"/>
<feOffset dy="4"/>
<feGaussianBlur stdDeviation="12.5"/>
<feComposite in2="hardAlpha" operator="out"/>
<feColorMatrix type="matrix" values="0 0 0 0 0 0 0 0 0 0 0 0 0 0 0 0 0 0 0.1 0"/>
<feBlend mode="normal" in2="BackgroundImageFix" result="effect1_dropShadow_9041:12572"/>
<feBlend mode="normal" in="SourceGraphic" in2="effect1_dropShadow_9041:12572" result="shape"/>
</filter>
<filter id="filter3_f_9041:12572" x="117.885" y="398.546" width="106.092" height="86.4731" filterUnits="userSpaceOnUse" color-interpolation-filters="sRGB">
<feFlood flood-opacity="0" result="BackgroundImageFix"/>
<feBlend mode="normal" in="SourceGraphic" in2="BackgroundImageFix" result="shape"/>
<feGaussianBlur stdDeviation="2" result="effect1_foregroundBlur_9041:12572"/>
</filter>
<filter id="filter4_f_9041:12572" x="496.519" y="397.565" width="52.1412" height="86.4731" filterUnits="userSpaceOnUse" color-interpolation-filters="sRGB">
<feFlood flood-opacity="0" result="BackgroundImageFix"/>
<feBlend mode="normal" in="SourceGraphic" in2="BackgroundImageFix" result="shape"/>
<feGaussianBlur stdDeviation="2" result="effect1_foregroundBlur_9041:12572"/>
</filter>
<filter id="filter5_d_9041:12572" x="8" y="218" width="279.923" height="291" filterUnits="userSpaceOnUse" color-interpolation-filters="sRGB">
<feFlood flood-opacity="0" result="BackgroundImageFix"/>
<feColorMatrix in="SourceAlpha" type="matrix" values="0 0 0 0 0 0 0 0 0 0 0 0 0 0 0 0 0 0 127 0" result="hardAlpha"/>
<feOffset dy="4"/>
<feGaussianBlur stdDeviation="4"/>
<feComposite in2="hardAlpha" operator="out"/>
<feColorMatrix type="matrix" values="0 0 0 0 0 0 0 0 0 0 0 0 0 0 0 0 0 0 0.25 0"/>
<feBlend mode="normal" in2="BackgroundImageFix" result="effect1_dropShadow_9041:12572"/>
<feBlend mode="normal" in="SourceGraphic" in2="effect1_dropShadow_9041:12572" result="shape"/>
</filter>
</defs>
</svg>
