<svg width="532" height="532" viewBox="0 0 532 532" fill="none" xmlns="http://www.w3.org/2000/svg">
<circle cx="266" cy="266" r="266" fill="#FFE8EF"/>
<path d="M266.586 462.864C375.634 462.864 464.035 374.462 464.035 265.414C464.035 156.366 375.634 67.9648 266.586 67.9648C157.538 67.9648 69.1365 156.366 69.1365 265.414C69.1365 374.462 157.538 462.864 266.586 462.864Z" fill="#FFD0DD"/>
<g filter="url(#filter0_d_9041:10532)">
<path d="M420.058 149.075C420.058 149.075 397.616 328.717 360.743 369.137C316.409 417.629 284.306 408.989 266.481 433.999C248.61 408.959 216.475 417.629 172.172 369.107C135.299 328.687 112.903 149.044 112.903 149.044C182.742 76.1248 266.481 49.0029 266.481 49.0029C268.162 50.6998 349.541 78.837 420.058 149.075Z" fill="#FD3E72"/>
</g>
<g filter="url(#filter1_d_9041:10532)">
<path d="M420.056 149.072C420.056 149.072 397.614 328.714 360.741 369.134C316.407 417.626 284.304 408.986 266.479 433.996L266.479 361.293L266.479 163.131L266.479 49C268.16 50.6969 349.539 78.8341 420.056 149.072Z" fill="#E32D5F"/>
</g>
<path d="M396.352 163.561C396.352 163.561 377.395 315.305 346.255 349.472C308.831 390.488 281.665 384.465 266.561 405.592C251.457 384.465 224.307 390.488 186.868 349.472C155.727 315.305 136.817 163.561 136.817 163.561C204.57 92.7425 266.561 79.0525 266.561 79.0525C266.561 79.0525 336.111 99.523 396.352 163.561Z" fill="white"/>
<mask id="mask0_9041:10532" style="mask-type:alpha" maskUnits="userSpaceOnUse" x="266" y="73" width="131" height="350">
<path d="M266.245 73.4094H396.431V422.604H266.245V73.4094Z" fill="#C4C4C4"/>
</mask>
<g mask="url(#mask0_9041:10532)">
<path d="M396.329 163.572C396.329 163.572 377.373 315.315 346.232 349.482C308.808 390.498 281.643 384.475 266.539 405.602C251.435 384.475 224.284 390.498 186.845 349.482C155.705 315.315 136.794 163.572 136.794 163.572C204.547 92.7528 266.539 79.0627 266.539 79.0627C266.539 79.0627 336.088 99.5333 396.329 163.572Z" fill="#F8F3F3"/>
</g>
<circle cx="266.494" cy="223.968" r="57.8552" fill="#FD3E72"/>
<path d="M299.103 191.359C293.441 191.359 288.877 195.787 288.877 201.279V230.009C288.877 231.211 288.806 232.412 288.664 233.682C288.523 234.918 288.169 236.05 287.603 237.08C287.036 238.11 286.187 238.968 285.055 239.655C283.922 240.341 282.295 240.684 280.242 240.684C278.19 240.684 276.562 240.341 275.429 239.655C274.297 238.968 273.448 238.11 272.882 237.08C272.315 236.05 271.961 234.918 271.82 233.682C271.678 232.446 271.608 231.211 271.608 230.009V200.386C265.946 200.386 261.381 204.814 261.381 210.306V229.975C261.381 231.176 261.31 232.378 261.168 233.648C261.027 234.883 260.673 236.016 260.107 237.046C259.541 238.076 258.691 238.934 257.559 239.62C256.427 240.307 254.799 240.65 252.746 240.65C250.694 240.65 249.066 240.307 247.934 239.62C246.801 238.934 245.952 238.076 245.386 237.046C244.82 236.016 244.466 234.883 244.324 233.648C244.183 232.412 244.112 231.176 244.112 229.975V209.414C238.45 209.414 233.885 213.876 233.885 219.334V229.975C233.885 232.79 234.168 235.261 234.734 237.389C235.3 239.517 236.008 241.337 236.857 242.881C237.742 244.426 238.733 245.696 239.865 246.726C240.998 247.755 242.165 248.579 243.333 249.231C246.058 250.742 249.208 251.566 252.711 251.669C256.285 251.566 259.434 250.742 262.195 249.231C263.362 248.579 264.53 247.755 265.627 246.726C265.91 246.451 266.193 246.176 266.476 245.868C266.76 246.176 267.043 246.451 267.326 246.726C268.458 247.755 269.626 248.579 270.794 249.231C273.519 250.742 276.668 251.566 280.171 251.669C283.745 251.566 286.895 250.742 289.655 249.231C290.823 248.579 291.991 247.755 293.088 246.726C294.22 245.696 295.211 244.426 296.096 242.881C296.98 241.337 297.688 239.517 298.219 237.389C298.75 235.261 298.997 232.824 298.997 229.975L299.103 191.359Z" fill="white"/>
<g filter="url(#filter2_d_9041:10532)">
<ellipse cx="158.901" cy="366.685" rx="9.80916" ry="28.937" fill="#C9C9C9"/>
<path d="M153.996 225C153.996 223.343 155.339 222 156.996 222H160.806C162.462 222 163.805 223.343 163.805 225V352.462H153.996V225Z" fill="#C9C9C9"/>
<ellipse cx="374.702" cy="366.685" rx="9.80916" ry="28.937" fill="#C9C9C9"/>
<path d="M369.797 225C369.797 223.343 371.141 222 372.797 222H376.607C378.264 222 379.607 223.343 379.607 225V352.462H369.797V225Z" fill="#C9C9C9"/>
<rect x="54.9238" y="390.718" width="422.775" height="86.3206" fill="#DBD4D2"/>
<rect x="54.9238" y="397.584" width="422.775" height="79.4542" fill="#F4F4F4"/>
<g opacity="0.2" filter="url(#filter3_f_9041:10532)">
<path d="M60.1092 478.019L56.8855 399.546H154.977L144.385 478.019H60.1092Z" fill="#A5A5A5"/>
</g>
<path d="M54.352 477.085L51.0884 400.159C51.0402 399.022 51.9488 398.074 53.0866 398.074H153.169C154.384 398.074 155.318 399.148 155.15 400.351L144.427 477.276C144.29 478.264 143.444 479 142.446 479H56.3502C55.2786 479 54.3974 478.155 54.352 477.085Z" fill="white"/>
<path d="M103.751 419.682C96.7689 419.672 88.8154 424.842 89.9954 435.535C93.3509 425.297 104.014 427.076 106.887 432.719C109.181 437.226 107.599 443.345 102.189 445.29C114.794 441.147 117.688 423.253 106.654 420.003C105.725 419.79 104.748 419.684 103.751 419.682Z" fill="#E6E6E6"/>
<path d="M106.654 420.003C117.908 423.337 114.689 441.843 101.362 445.546C96.082 446.934 91.8046 445.402 88.9722 442.309C94.4303 449.085 109.192 448.701 113.684 446.071C116.313 442.842 117.889 438.72 117.889 434.231C117.889 427.809 113.538 421.575 106.654 420.003Z" fill="#E6E6E6"/>
<path d="M91.6724 417C81.5571 423.172 79.3946 437.986 84.7439 446.297C88.3409 451.098 94.4071 452.919 99.1196 453C104.997 453 110.245 450.298 113.686 446.069C109.196 448.701 94.4191 449.087 88.9653 442.302C83.5642 436.396 83.4317 424.812 91.6724 417Z" fill="#E6E6E6"/>
<path d="M91.6737 417C85.0127 419.882 80.3511 426.51 80.3511 434.23C80.3511 438.829 82.0052 443.042 84.7509 446.306C79.3936 437.996 81.554 423.174 91.6737 417Z" fill="#E6E6E6"/>
<path d="M89.9953 435.535C93.3507 425.297 104.014 427.076 106.887 432.719C102.917 423.193 88.92 423.084 89.9953 435.535Z" fill="#E6E6E6"/>
<g opacity="0.2" filter="url(#filter4_f_9041:10532)">
<path d="M475.943 477.038L479.66 398.565H435.519L436.913 477.038H475.943Z" fill="#A5A5A5"/>
</g>
<path d="M478.771 477.096L482.502 399.68C482.557 398.539 481.647 397.584 480.504 397.584H438.046C436.927 397.584 436.026 398.502 436.046 399.62L437.446 477.036C437.465 478.126 438.355 479 439.445 479H476.774C477.841 479 478.72 478.162 478.771 477.096Z" fill="white"/>
<path d="M230.508 448.751V442.744C230.508 441.64 231.403 440.744 232.508 440.744H266.763C267.868 440.744 268.763 441.64 268.763 442.744V448.751C268.763 449.277 268.556 449.782 268.187 450.157L264.508 453.882C264.132 454.263 263.62 454.477 263.085 454.477H236.186C235.651 454.477 235.139 454.263 234.763 453.882L231.084 450.157C230.715 449.782 230.508 449.277 230.508 448.751Z" fill="#919090" stroke="#757575"/>
<rect x="232.47" y="442.706" width="34.3321" height="4.90458" rx="0.5" fill="#AFAFAF"/>
<rect x="173.615" y="412.298" width="41.1985" height="43.1603" rx="3" fill="#5A5A5A"/>
<rect x="176.077" y="414.76" width="36.2748" height="17.6374" rx="1.5" fill="#5A5A5A" stroke="#757575"/>
<rect x="176.077" y="435.359" width="36.2748" height="17.6374" rx="1.5" fill="#5A5A5A" stroke="#757575"/>
<rect x="177.788" y="443.937" width="32.8511" height="7.34733" rx="0.25" fill="#908F8F" stroke="#908F8F" stroke-width="0.5"/>
<rect x="177.788" y="423.338" width="32.8511" height="7.34733" rx="0.25" fill="#908F8F" stroke="#908F8F" stroke-width="0.5"/>
<rect x="147.13" y="384.832" width="300.16" height="8.82824" rx="2" fill="#F4F4F4"/>
<path d="M87.2939 361.29L51 384.832H481.622L445.328 361.29H87.2939Z" fill="#E3E3E3"/>
<rect x="51" y="384.832" width="103.977" height="8.82824" rx="2" fill="white"/>
<rect x="435.519" y="384.832" width="47.084" height="8.82824" rx="2" fill="white"/>
</g>
<defs>
<filter id="filter0_d_9041:10532" x="106.903" y="47.0029" width="319.155" height="396.997" filterUnits="userSpaceOnUse" color-interpolation-filters="sRGB">
<feFlood flood-opacity="0" result="BackgroundImageFix"/>
<feColorMatrix in="SourceAlpha" type="matrix" values="0 0 0 0 0 0 0 0 0 0 0 0 0 0 0 0 0 0 127 0" result="hardAlpha"/>
<feOffset dy="4"/>
<feGaussianBlur stdDeviation="3"/>
<feColorMatrix type="matrix" values="0 0 0 0 0 0 0 0 0 0 0 0 0 0 0 0 0 0 0.1 0"/>
<feBlend mode="normal" in2="BackgroundImageFix" result="effect1_dropShadow_9041:10532"/>
<feBlend mode="normal" in="SourceGraphic" in2="effect1_dropShadow_9041:10532" result="shape"/>
</filter>
<filter id="filter1_d_9041:10532" x="260.479" y="47" width="165.578" height="396.997" filterUnits="userSpaceOnUse" color-interpolation-filters="sRGB">
<feFlood flood-opacity="0" result="BackgroundImageFix"/>
<feColorMatrix in="SourceAlpha" type="matrix" values="0 0 0 0 0 0 0 0 0 0 0 0 0 0 0 0 0 0 127 0" result="hardAlpha"/>
<feOffset dy="4"/>
<feGaussianBlur stdDeviation="3"/>
<feColorMatrix type="matrix" values="0 0 0 0 0 0 0 0 0 0 0 0 0 0 0 0 0 0 0.1 0"/>
<feBlend mode="normal" in2="BackgroundImageFix" result="effect1_dropShadow_9041:10532"/>
<feBlend mode="normal" in="SourceGraphic" in2="effect1_dropShadow_9041:10532" result="shape"/>
</filter>
<filter id="filter2_d_9041:10532" x="26" y="201" width="481.603" height="307" filterUnits="userSpaceOnUse" color-interpolation-filters="sRGB">
<feFlood flood-opacity="0" result="BackgroundImageFix"/>
<feColorMatrix in="SourceAlpha" type="matrix" values="0 0 0 0 0 0 0 0 0 0 0 0 0 0 0 0 0 0 127 0" result="hardAlpha"/>
<feOffset dy="4"/>
<feGaussianBlur stdDeviation="12.5"/>
<feComposite in2="hardAlpha" operator="out"/>
<feColorMatrix type="matrix" values="0 0 0 0 0 0 0 0 0 0 0 0 0 0 0 0 0 0 0.1 0"/>
<feBlend mode="normal" in2="BackgroundImageFix" result="effect1_dropShadow_9041:10532"/>
<feBlend mode="normal" in="SourceGraphic" in2="effect1_dropShadow_9041:10532" result="shape"/>
</filter>
<filter id="filter3_f_9041:10532" x="52.8855" y="395.546" width="106.092" height="86.4734" filterUnits="userSpaceOnUse" color-interpolation-filters="sRGB">
<feFlood flood-opacity="0" result="BackgroundImageFix"/>
<feBlend mode="normal" in="SourceGraphic" in2="BackgroundImageFix" result="shape"/>
<feGaussianBlur stdDeviation="2" result="effect1_foregroundBlur_9041:10532"/>
</filter>
<filter id="filter4_f_9041:10532" x="431.519" y="394.565" width="52.1412" height="86.4734" filterUnits="userSpaceOnUse" color-interpolation-filters="sRGB">
<feFlood flood-opacity="0" result="BackgroundImageFix"/>
<feBlend mode="normal" in="SourceGraphic" in2="BackgroundImageFix" result="shape"/>
<feGaussianBlur stdDeviation="2" result="effect1_foregroundBlur_9041:10532"/>
</filter>
</defs>
</svg>
