<svg width="468" height="437" viewBox="0 0 468 437" fill="none" xmlns="http://www.w3.org/2000/svg">
<path d="M88.1917 34.6779C88.1917 34.6779 142.018 -6.50091 209.599 14.6127C277.18 35.7264 303.95 95.381 341.824 136.99C361.695 158.788 391.666 167.529 415.499 184.571C491.668 239.06 476.523 355.742 415.124 398.025C361.971 434.634 296.929 436.654 213.319 405.751C129.71 374.847 69.8118 356.085 19.9154 273.705C-29.981 191.325 21.7589 90.7897 88.1917 34.6779Z" fill="#FFD6E1"/>
<path d="M229.678 343.896C340.115 343.896 429.641 328.502 429.641 309.511C429.641 290.521 340.115 275.126 229.678 275.126C119.241 275.126 29.7148 290.521 29.7148 309.511C29.7148 328.502 119.241 343.896 229.678 343.896Z" fill="#DBDBDB"/>
<path d="M394.461 216.681C394.461 216.681 392.568 143.742 366.784 135.564C340.482 127.216 312.381 127.925 285.138 129.163C259.449 130.327 153.077 129.618 127.495 131.279C99.2776 133.141 88.8351 146.091 82.614 172.182C79.2082 186.76 77.315 201.651 76.9642 216.618L70.6797 235.482H400.778L394.461 216.681Z" fill="#856C26"/>
<path d="M394.461 230.181C394.461 230.181 392.568 157.232 366.784 149.064C340.482 140.716 312.381 141.425 285.138 142.716C259.449 143.88 153.077 143.171 127.495 144.832C99.2776 146.694 88.8351 159.644 82.614 185.734C79.2082 200.313 77.315 215.204 76.9642 230.171L70.6797 249.035H400.778L394.461 230.181Z" fill="#977C2E" stroke="#977C2E" stroke-linecap="round" stroke-linejoin="round"/>
<path d="M98.3067 225.484V209.138C98.3067 209.138 97.6825 197.182 83.8438 195.923C70.0051 194.664 32.2766 224.225 32.8902 230.51C33.5039 236.794 40.455 281.474 44.8563 283.336C49.2576 285.198 60.5782 294.022 70.6399 288.996C80.7015 283.971 98.3067 225.484 98.3067 225.484Z" fill="#C8B100" stroke="#AF9B00" stroke-linecap="round" stroke-linejoin="round"/>
<path d="M368.047 225.484V209.138C368.047 209.138 368.682 197.182 382.51 195.923C396.338 194.664 434.077 224.225 433.442 230.51C432.807 236.794 425.899 281.474 421.497 283.336C417.096 285.198 405.775 294.022 395.714 288.996C385.652 283.971 368.047 225.484 368.047 225.484Z" fill="#C8B100" stroke="#AF9B00" stroke-linecap="round" stroke-linejoin="round"/>
<path d="M98.3038 225.484C97.2748 226.546 96.1679 227.529 94.9922 228.425C86.5281 235.408 64.9766 251.892 64.9766 251.892H402.629L368.042 223.601L98.3038 225.484Z" fill="#C8B100" stroke="#AF9B00" stroke-linecap="round" stroke-linejoin="round"/>
<path d="M64.9766 251.892V277.887H402.459L402.629 251.892H64.9766Z" fill="#D3BD14" stroke="#C8B100" stroke-linecap="round" stroke-linejoin="round"/>
<path d="M56.8015 303.459L48.7606 328.671C48.6004 329.17 48.5605 329.7 48.6443 330.218C48.728 330.735 48.9331 331.226 49.2426 331.649C49.5522 332.072 49.9575 332.416 50.4254 332.652C50.8932 332.888 51.4104 333.011 51.9347 333.009C52.4713 333.01 53.0002 332.881 53.4757 332.632C53.9512 332.383 54.3591 332.022 54.6643 331.581L73.7931 304.073L56.8015 303.459Z" fill="#263238" stroke="#263238" stroke-linecap="round" stroke-linejoin="round"/>
<path d="M410.777 303.459L418.818 328.671C418.978 329.17 419.018 329.7 418.934 330.218C418.85 330.735 418.645 331.226 418.336 331.649C418.026 332.072 417.621 332.416 417.153 332.652C416.685 332.888 416.168 333.011 415.644 333.009C415.107 333.01 414.578 332.881 414.103 332.632C413.627 332.383 413.219 332.022 412.914 331.581L393.785 304.073L410.777 303.459Z" fill="#263238" stroke="#263238" stroke-linecap="round" stroke-linejoin="round"/>
<path d="M427.062 223.125C422.893 221.083 418.174 220.766 412.525 223.601C401.204 229.251 402.463 251.892 402.463 251.892V277.041H64.9591V251.85C64.9591 251.85 66.2181 229.209 54.8975 223.559C49.2371 220.723 44.5184 221.041 40.3605 223.083C33.1237 226.627 29.3043 234.721 30.3835 242.73C32.1503 255.828 35.5042 278.543 38.5513 287.695C42.9526 300.899 42.9526 303.417 52.3794 306.559C60.5684 309.278 165.724 307.279 193.465 306.697C221.205 307.279 406.833 309.278 415.011 306.559C424.448 303.385 424.448 300.899 428.85 287.695C431.897 278.543 435.251 255.828 437.018 242.73C438.107 234.784 434.298 226.669 427.062 223.125Z" fill="#977C2E"/>
<path d="M212.889 308.177C212.889 308.177 208.509 315.033 207.102 318.895C205.694 322.757 206.044 327.359 210.974 326.639C215.904 325.92 218.38 309.796 218.38 309.796L212.889 308.177Z" fill="white" stroke="#263238" stroke-linecap="round" stroke-linejoin="round"/>
<path d="M298.219 266.746C295.193 253.267 291.342 253.267 294.23 240.486C297.119 227.705 294.918 196.769 294.918 196.769C295.056 194.294 293.86 190.421 291.892 188.792C289.924 187.163 282.275 190.855 269.896 189.067C257.518 187.279 256.978 185.078 256.978 185.078C256.978 185.078 250.101 180.846 245.7 188.379C241.298 195.912 236.484 215.464 235.12 226.594C233.755 237.725 228.941 242.137 224.127 250.103C221.266 253.94 219.474 258.467 218.932 263.223C218.265 268.513 212.986 302.369 212.15 307.828C212.062 308.428 212.104 309.039 212.273 309.621C212.442 310.203 212.734 310.742 213.129 311.202C213.524 311.661 214.014 312.03 214.564 312.284C215.114 312.538 215.713 312.671 216.319 312.674C217.133 312.672 217.929 312.436 218.612 311.993C219.295 311.55 219.836 310.919 220.17 310.177L234.379 262.26C236.96 257.933 243.562 246.781 244.335 244.475C245.298 241.586 252.45 229.758 256.163 221.199C258.924 215.203 262.187 209.451 265.918 204.006L266.976 206.482C268.034 208.958 269.177 212.121 270.552 219.548C271.928 226.975 276.466 253.404 281.132 265.603C285.798 277.802 287.745 327.422 287.745 327.422L292.971 328.798C292.971 328.798 294.463 313.171 296.145 305.331C297.828 297.491 301.298 280.214 298.219 266.746Z" fill="#8F4620"/>
<path d="M291.477 118.816C291.477 118.816 276.083 115.79 267.439 117.165C258.795 118.541 225.235 123.513 225.235 123.513L223.754 135.733C223.754 135.733 240.28 136.791 250.299 134.823C259.758 132.961 259.197 135.204 259.197 135.204C259.197 135.204 259.747 156.787 258.922 159.813C258.097 162.839 242.28 186.263 242.28 186.263C243.861 190.379 246.141 194.191 249.019 197.531C253.42 202.345 262.212 206.746 262.212 206.746L268.677 197.669V208.122C268.677 208.122 270.793 206.884 280.643 204.948C287.445 203.476 294.078 201.31 300.438 198.483L292.027 179.905C292.027 179.905 292.44 166.299 294.228 163.961C296.016 161.623 304.956 157.496 306.744 153.233C307.976 149.947 308.852 146.538 309.357 143.065C309.357 143.065 322.826 149.932 327.227 148.144C331.628 146.356 332.866 144.716 332.866 144.716C332.866 144.716 328.74 140.039 327.915 136.051C327.089 132.062 322.826 126.423 315.949 123.122C309.072 119.821 291.477 118.816 291.477 118.816Z" fill="#FD3E72" stroke="#FD3E72" stroke-miterlimit="10"/>
<path d="M230.723 138.937C236.267 136.624 238.885 130.255 236.572 124.711C234.259 119.168 227.89 116.549 222.346 118.862C216.803 121.176 214.184 127.545 216.497 133.088C218.81 138.632 225.179 141.25 230.723 138.937Z" fill="#FFBE9D" stroke="#FFBE9D" stroke-linecap="round" stroke-linejoin="round"/>
<path d="M279.249 119.366C277.522 121.743 276.1 124.327 275.017 127.058C273.656 130.15 272.507 133.331 271.578 136.58C271.578 136.58 279.555 132.454 282.031 132.348C284.507 132.242 294.674 143.986 294.674 143.986C294.674 143.986 300.864 126.243 300.038 121.567C299.213 116.89 288.4 115.388 284.782 116.901C281.164 118.414 279.249 119.366 279.249 119.366Z" fill="#CB2552"/>
<path d="M280.625 146.175C280.625 146.175 281.588 153.454 279.387 157.03C277.187 160.607 277.049 163.77 276.213 168.584C275.378 173.398 270.712 185.628 270.574 186.454" stroke="#ED3567" stroke-linecap="round" stroke-linejoin="round"/>
<path d="M265.207 181.883C265.207 181.883 274.264 183.385 284.325 176.847" stroke="#ED3567" stroke-linecap="round" stroke-linejoin="round"/>
<path d="M264.203 178.36C264.203 178.36 278.285 179.418 285.829 174.339" stroke="#ED3567" stroke-linecap="round" stroke-linejoin="round"/>
<path d="M267.324 160.638C267.324 160.638 272.688 166.277 285.31 163.526" stroke="#ED3567" stroke-linecap="round" stroke-linejoin="round"/>
<path d="M267.441 166.415C267.441 166.415 278.445 168.203 285.184 165.177" stroke="#ED3567" stroke-linecap="round" stroke-linejoin="round"/>
<path d="M232.895 63.8836C232.895 63.8836 245.2 63.5662 245.591 65.0263C245.983 66.4863 247.919 72.0832 247.803 73.2576C247.686 74.432 247.707 74.9927 247.707 74.9927C247.098 74.9032 246.494 74.7796 245.898 74.6224C244.84 74.3368 238.154 75.5852 238.154 75.5852C238.154 75.5852 243.877 75.5852 244.565 76.548C245.253 77.5108 247.115 79.1401 245.813 79.6268C244.512 80.1135 242.396 78.5688 241.835 78.5688C241.275 78.5688 234.736 80.7588 234.736 80.7588C235.085 81.3192 235.27 81.9661 235.27 82.6262C235.27 83.2863 235.085 83.9332 234.736 84.4936C234.247 85.2533 233.493 85.8039 232.62 86.0383C232.62 86.0383 233.128 118.075 232.863 123.978C232.599 129.882 232.641 133.723 228.272 135.468C223.902 137.214 219.861 133.352 217.417 128.993C214.973 124.634 216.792 120.339 218.337 117.07C219.882 113.8 227.034 83.2134 227.796 79.7855C228.557 76.3575 232.102 64.0952 232.895 63.8836Z" fill="#FFBE9D" stroke="#FFBE9D" stroke-linecap="round" stroke-linejoin="round"/>
<path d="M235.254 67.8087C237.74 67.3487 240.273 67.1924 242.797 67.3432C243.983 67.4683 245.151 67.7274 246.278 68.1156" stroke="#F4B392" stroke-linecap="round" stroke-linejoin="round"/>
<path d="M235.699 72.2839C235.699 72.2839 238.789 71.5115 241.074 71.0354C243.359 70.5593 247.739 72.4214 247.739 72.4214" stroke="#F4B392" stroke-linecap="round" stroke-linejoin="round"/>
<path d="M280.234 126.081C280.234 126.081 280.234 137.221 280.372 142.31C280.509 147.399 293.703 125.382 296.041 121.002C298.379 116.622 290.952 121.277 287.789 123.192C285.418 124.504 282.875 125.477 280.234 126.081Z" fill="#FFBE9D"/>
<path d="M280.238 117.491C280.238 117.491 280.099 125.366 280.237 130.455C280.374 135.544 289.9 133.676 294.732 122.939C297.07 118.559 290.955 112.687 287.792 114.602C285.422 115.914 282.879 116.887 280.238 117.491Z" fill="#ECAC8C"/>
<path d="M280.622 97.7714C280.622 97.7714 276.221 96.7134 273.333 90.4923C270.444 84.2713 274.708 79.9123 284.198 77.426C293.689 74.9396 307.845 75.6379 315.537 82.1023C323.228 88.5668 326.117 96.6711 324.064 112.626C322.012 128.581 318.287 145.212 325.44 156.068C332.592 166.923 338.358 160.194 337.078 165.283C335.797 170.372 332.412 175.175 322.784 177.101C313.156 179.026 310.416 177.926 307.803 176.043C306.584 175.272 305.51 174.295 304.629 173.154C304.629 173.154 304.957 178.846 309.76 180.962C314.563 183.078 306.046 185.776 297.244 179.904C288.441 174.033 285.606 168.087 288.854 151.031C292.102 133.976 297.931 122.571 298.069 117.768C298.194 114.956 297.662 112.153 296.516 109.583C295.37 107.012 293.641 104.743 291.467 102.956C288.266 100.47 284.567 98.7015 280.622 97.7714Z" fill="#5B5863"/>
<path d="M318.34 131.85C318.707 133.517 318.986 135.201 319.176 136.897" stroke="#4E495B" stroke-linecap="round" stroke-linejoin="round"/>
<path d="M292.281 85.0547C292.281 85.0547 295.212 97.2747 302.554 102.66C308.183 106.786 314.097 116.964 317.208 127.438" stroke="#4E495B" stroke-linecap="round" stroke-linejoin="round"/>
<path d="M303.039 131.511C303.039 131.511 293.581 150.27 297.167 162.818C298.431 167.002 301.08 170.632 304.679 173.112" stroke="#4E495B" stroke-linecap="round" stroke-linejoin="round"/>
<path d="M315.738 171.515C317.08 172.468 318.576 173.184 320.161 173.631" stroke="#4E495B" stroke-linecap="round" stroke-linejoin="round"/>
<path d="M311.358 119.281C311.104 127.728 309.789 136.11 307.444 144.229C304.608 154.153 307.676 163.812 313.115 169.314" stroke="#4E495B" stroke-linecap="round" stroke-linejoin="round"/>
<path d="M300.363 79.584C301.435 79.6907 302.496 79.8818 303.537 80.1553" stroke="#4E495B" stroke-linecap="round" stroke-linejoin="round"/>
<path d="M287.396 86.0271C287.396 86.0271 281.524 80.6418 285.925 80.1552C289.389 79.7048 292.875 79.447 296.368 79.3828" stroke="#4E495B" stroke-linecap="round" stroke-linejoin="round"/>
<path d="M289.14 86.5039C289.14 86.5039 279.385 94.6188 278.147 98.5969C276.697 102.678 275.908 106.964 275.809 111.293C275.671 116.795 279.11 125.449 280.21 127.512C281.31 129.575 282.411 129.713 284.611 128.75C286.812 127.787 294.229 124.624 296.842 121.196C298.124 119.595 299.274 117.893 300.28 116.107C301.165 116.484 302.157 116.525 303.069 116.22C303.981 115.916 304.751 115.289 305.232 114.456C307.157 111.431 308.12 109.092 304.957 109.092C301.793 109.092 299.73 112.266 299.73 112.266C299.73 112.266 293.541 102.914 291.34 96.3963C289.14 89.879 289.14 86.5039 289.14 86.5039Z" fill="#FFBE9D"/>
<path d="M331.49 128.844C331.49 128.844 326.814 129.12 325.142 132.971C323.471 136.822 322.666 144.799 327.205 148.09C331.744 151.38 333.257 149.603 337.373 143.149C341.488 136.695 336.706 128.432 331.49 128.844Z" fill="#FFBE9D"/>
<path d="M347.16 115.789C347.16 115.789 342.621 121.153 340.558 122.518C338.495 123.883 332.866 123.756 329.978 130.22C327.089 136.685 329.978 143.149 332.866 144.662C335.754 146.175 338.495 145.212 342.758 141.086C347.022 136.96 348.948 129.67 351.148 126.507C353.349 123.343 360.226 118.127 360.226 118.127C360.226 118.127 352.661 112.075 347.16 115.789Z" fill="#FFBE9D"/>
<path d="M347.851 110.7C347.851 110.7 344.138 111.525 343.862 113.176C343.587 114.826 342.625 119.524 343.175 120.582C343.725 121.64 349.227 126.073 349.777 124.697C349.989 123.952 350.024 123.167 349.881 122.405C349.738 121.643 349.42 120.925 348.951 120.307C348.525 119.846 348.239 119.274 348.126 118.656L350.052 111.504C349.782 111.196 349.439 110.96 349.055 110.82C348.67 110.679 348.256 110.638 347.851 110.7Z" fill="#FFBE9D" stroke="#EDA783" stroke-linecap="round" stroke-linejoin="round"/>
<path d="M354.314 106.711C354.314 106.711 349.776 105.336 348.813 106.849C347.85 108.362 346.062 116.477 346.337 117.577C346.612 118.677 349.088 119.502 349.776 118.265C350.463 117.027 354.039 107.674 354.314 106.711Z" fill="#FFBE9D" stroke="#EDA783" stroke-linecap="round" stroke-linejoin="round"/>
<path d="M363.518 112.626C363.518 112.626 367.75 114.552 365.718 117.44C363.687 120.328 360.227 122.518 358.027 122.656C355.826 122.793 355.551 121.831 355.551 121.831C355.551 121.831 363.518 115.239 363.518 112.626Z" fill="#FFBE9D" stroke="#EDA783" stroke-linecap="round" stroke-linejoin="round"/>
<path d="M354.312 106.712C354.312 106.712 349.361 118.54 349.636 119.503C349.911 120.466 352.524 120.878 353.35 120.053C355.55 116.698 357.35 113.098 358.714 109.325C359.539 106.437 356.788 105.199 354.312 106.712Z" fill="#FFBE9D" stroke="#EDA783" stroke-linecap="round" stroke-linejoin="round"/>
<path d="M358.716 109.325C358.716 109.325 353.765 118.128 353.352 120.053C352.94 121.979 354.177 121.831 356.378 121.111C358.579 120.392 362.969 115.747 363.52 112.584C364.07 109.42 361.054 107.262 358.716 109.325Z" fill="#FFBE9D" stroke="#EDA783" stroke-linecap="round" stroke-linejoin="round"/>
<path d="M293.012 328.84C293.012 328.84 307.01 343.303 303.952 344.319C300.894 345.335 290.198 338.711 286.611 336.67C283.025 334.628 287.786 327.465 287.786 327.465L293.012 328.84Z" fill="white" stroke="#263238" stroke-linecap="round" stroke-linejoin="round"/>
<path d="M192.17 108.384C192.17 108.384 179.928 108.796 169.761 111.96C159.594 115.123 131.398 127.491 131.398 127.491L124.531 145.234C124.71 145.564 125.004 145.817 125.358 145.942C125.712 146.067 126.1 146.056 126.446 145.911C127.684 145.361 155.319 136.389 157.657 135.469C159.996 134.548 163.434 133.268 163.434 133.268L166.852 177.197L160.937 192.866C160.937 192.866 167.402 201.393 180.87 202.081C194.339 202.769 199.851 202.769 206.442 199.965C213.033 197.161 216.758 195.564 216.758 195.564L211.806 177.144L216.229 146.049C216.229 146.049 227.221 174.784 230.11 177.673C232.998 180.561 239.05 179.186 240.838 171.208C242.626 163.231 235.199 150.313 232.585 143.584C229.972 136.855 228.597 126.254 222.28 119.937C215.964 113.621 202.75 110.415 197.946 109.484C193.143 108.553 192.17 108.384 192.17 108.384Z" fill="#FFBE9D"/>
<path d="M216.345 195.342L211.256 192.041C211.256 192.041 209.605 195.342 194.486 198.918C179.367 202.494 162.037 191.628 162.037 191.628C162.037 191.628 159.286 197.267 157.361 201.943C155.784 205.773 144.39 234.329 140.613 244.623C139.735 247.009 139.333 249.543 139.428 252.082L143.194 318.441L153.404 318.948L165.137 249.067L184.911 216.935H194.232L217.71 251.617L226.512 320.821L236.034 321.509L240.605 255.965C240.999 253.079 240.635 250.14 239.547 247.438L216.345 195.342Z" fill="#8F4620"/>
<path d="M171.043 205.815C175.68 207.95 179.889 210.911 183.464 214.555" stroke="#823F1D" stroke-linecap="round" stroke-linejoin="round"/>
<path d="M196.352 215.02C198.949 209.346 203.309 204.663 208.783 201.668" stroke="#823F1D" stroke-linecap="round" stroke-linejoin="round"/>
<path d="M165.055 201.213C168.702 202.062 172.248 203.296 175.635 204.895" stroke="#823F1D" stroke-linecap="round" stroke-linejoin="round"/>
<path d="M232.587 143.584C229.974 136.844 228.599 126.254 222.282 119.937C215.966 113.621 202.752 110.415 197.948 109.484C193.145 108.553 192.171 108.426 192.171 108.426C192.171 108.426 179.93 108.839 169.763 112.002C162.357 114.309 145.27 121.524 136.637 125.27L139.684 141.531C147.619 138.918 156.39 136.03 157.67 135.511C160.008 134.548 163.447 133.311 163.447 133.311L166.864 177.239L160.95 192.908C160.95 192.908 167.414 201.436 180.883 202.123C194.351 202.811 199.863 202.811 206.455 200.007C213.046 197.204 216.77 195.606 216.77 195.606L211.819 177.186L216.231 146.049C216.231 146.049 219.077 153.455 222.251 161.168C225.425 158.671 231.18 154.714 237.063 153.762C235.412 149.879 233.582 146.239 232.587 143.584Z" fill="#FD3E72"/>
<path d="M184.234 186.412C184.234 186.412 203.342 176.35 208.378 165.252" stroke="#EA3667" stroke-linecap="round" stroke-linejoin="round"/>
<path d="M174.176 185.406C174.176 185.406 189.263 181.375 197.812 171.324" stroke="#EA3667" stroke-linecap="round" stroke-linejoin="round"/>
<path d="M189.005 109.622C189.005 109.622 182.541 108.247 181.303 108.564C180.065 108.882 180.89 117.779 183.366 126.021C185.842 134.263 191.481 140.601 198.633 135.543C205.785 130.486 206.039 121.927 206.325 118.499L206.875 111.622L199.321 110.077L189.005 109.622Z" fill="#CB2552"/>
<path d="M184.055 109.209C184.998 115.131 186.414 120.969 188.287 126.666C191.038 134.368 198.74 130.898 200.983 124.878C202.456 120.497 203.519 115.988 204.157 111.41C204.157 111.41 195.227 115.123 190.688 113.06C188.32 112.069 186.09 110.775 184.055 109.209Z" fill="#FFBE9D"/>
<path d="M184.674 109.519C185.617 115.441 183.336 109.191 185.21 114.888C187.358 124.551 200.78 128.309 203.463 115.961C204.937 111.58 204.138 116.298 204.776 111.72C204.776 111.72 195.846 115.433 191.307 113.37C188.938 112.379 186.708 111.085 184.674 109.519Z" fill="#F0A37C"/>
<path d="M178.416 93.5403C178.416 93.5403 176.501 90.5144 174.851 91.7522C173.2 92.9901 173.338 98.6187 174.851 101.274C176.364 103.93 179.623 103.729 179.623 103.729C179.623 103.729 180.86 106.48 183.474 111.135C186.087 115.79 190.88 119.8 195.715 119.525C200.55 119.25 203.407 116.224 205.882 112.373C207.533 109.478 208.651 106.31 209.183 103.02C209.183 103.02 217.023 99.0313 215.373 94.3655C215.215 93.7607 214.928 93.1971 214.532 92.7134C214.136 92.2297 213.641 91.8372 213.079 91.5629C212.517 91.2886 211.903 91.1389 211.278 91.1241C210.653 91.1093 210.032 91.2298 209.458 91.4772C209.458 91.4772 211.246 84.8752 209.733 78.9609C208.22 73.0467 204.782 69.2061 196.678 67.5556C188.573 65.9052 179.21 69.3331 177.834 71.5338C176.459 73.7344 176.872 77.0354 177.284 81.7118C177.697 86.3882 178.416 93.5403 178.416 93.5403Z" fill="#FFBE9D"/>
<path d="M178.828 65.9048C178.828 65.9048 174.438 68.5181 174.025 71.5334C173.613 74.5487 178.416 93.1273 178.416 93.5399C178.416 93.9525 180.617 94.2276 180.617 92.8522C180.617 91.4768 180.341 87.6256 180.066 85.5625C179.791 83.4994 183.24 82.5366 182.405 80.0609C181.569 77.5852 179.516 75.6596 179.929 74.9719C180.341 74.2842 185.018 72.2211 185.706 72.9088C186.393 73.5965 191.07 78.2729 193.683 77.9978C196.296 77.7227 194.646 72.6337 194.646 72.6337C194.646 72.6337 201.11 81.5738 203.575 80.7486C206.04 79.9234 206.601 76.0722 206.601 76.0722C206.601 76.0722 205.638 82.9492 206.326 83.7745C207.014 84.5997 208.114 85.8905 208.114 85.8905C208.114 85.8905 207.13 93.1484 207.701 93.1484C208.273 93.1484 209.765 93.286 209.765 92.7358C209.765 92.1856 211.965 80.6322 211.965 77.3312C211.963 75.3548 211.338 73.4295 210.177 71.8296C210.177 71.8296 216.525 74.3053 213.891 70.4542C211.256 66.6031 205.088 63.1751 203.163 62.9C201.237 62.625 199.047 62.4874 199.047 62.4874C199.047 62.4874 207.564 59.8741 203.85 58.0861C200.137 56.2981 186.668 59.4615 182.542 62.2123C178.416 64.9631 178.828 65.9048 178.828 65.9048Z" fill="#5B5863" stroke="#5B5863" stroke-linecap="round" stroke-linejoin="round"/>
<path d="M159.033 83.9121C159.033 83.9121 163.985 84.4623 164.535 85.9752C165.085 87.4882 164.672 93.1273 164.122 94.0901C163.572 95.0529 162.197 94.5027 161.096 93.0321C159.996 91.5615 159.858 87.3929 159.858 87.3929L157.52 85.7425C157.52 85.7425 155.87 83.9121 159.033 83.9121Z" fill="#FFBE9D" stroke="#FFB28B" stroke-linecap="round" stroke-linejoin="round"/>
<path d="M147.078 78.5479C147.078 78.5479 159.034 81.4362 159.034 82.9492C159.034 84.4621 159.447 90.3552 159.034 91.4767C158.815 92.0238 158.624 92.5817 158.463 93.1483C157.896 92.908 157.344 92.6324 156.812 92.3231C155.849 91.7729 149.089 91.2651 149.089 91.2651C149.089 91.2651 154.611 92.7569 155.024 93.8572C155.437 94.9575 156.812 97.0312 155.437 97.1476C154.061 97.264 152.411 95.222 151.861 95.0316C151.31 94.8412 144.455 95.3067 144.455 95.3067C144.625 95.8385 144.664 96.4034 144.57 96.9538C144.476 97.5041 144.251 98.0237 143.914 98.4688C143.577 98.9138 143.137 99.2712 142.633 99.5109C142.129 99.7505 141.574 99.8653 141.016 99.8455C141.016 99.8455 133.176 130.919 131.388 136.558C129.6 142.198 128.637 145.901 123.982 146.451C119.327 147.001 116.417 142.219 115.18 137.384C113.942 132.548 116.83 128.856 119.168 126.105C121.506 123.354 136.35 95.7193 138.001 92.5664C139.651 89.4136 146.253 78.5479 147.078 78.5479Z" fill="#FFBE9D" stroke="#FFBE9D" stroke-linecap="round" stroke-linejoin="round"/>
<path d="M148.324 82.9492C150.845 83.1547 153.331 83.6627 155.73 84.4622C156.849 84.8874 157.914 85.4413 158.904 86.1127" stroke="#FFB28B" stroke-linecap="round" stroke-linejoin="round"/>
<path d="M147.574 87.3828C147.574 87.3828 150.748 87.3828 153.097 87.5732C155.446 87.7637 159.17 90.652 159.17 90.652" stroke="#FFB28B" stroke-linecap="round" stroke-linejoin="round"/>
<path d="M143.197 318.44C143.197 318.44 120.757 334.765 124.84 335.792C128.924 336.818 150.338 331.2 150.338 331.2L153.407 318.948L143.197 318.44Z" fill="white" stroke="#263238" stroke-miterlimit="10"/>
<path d="M226.48 320.821L226.861 334.765L251.344 337.823C251.344 337.823 253.893 334.765 249.809 332.216C245.726 329.666 236.055 321.508 236.055 321.508L226.48 320.821Z" fill="white" stroke="#263238" stroke-miterlimit="10"/>
<path d="M235.338 117.324C234.152 117.255 232.968 117.492 231.9 118.012C230.524 118.837 230.842 125.704 231.762 127.354C232.683 129.005 234.936 127.492 235.201 124.741C235.465 121.99 235.338 117.324 235.338 117.324Z" fill="#FFBE9D" stroke="#E9A888" stroke-linecap="round" stroke-linejoin="round"/>
<path d="M239.599 138.643C238.588 137.928 237.82 136.92 237.399 135.755C237.071 134.679 237.071 133.529 237.399 132.454C237.399 132.454 236.986 133.004 235.886 130.665C234.786 128.327 233.41 118.848 233.548 117.197C233.685 115.547 244.276 115.684 245.186 115.409C246.096 115.134 246.699 119.81 246.699 124.339C246.699 128.867 244.911 137.405 244.911 140.293C244.911 143.182 244.276 162.861 241.536 170.976C238.795 179.09 236.246 179.884 232.257 179.334C228.268 178.784 226.078 176.858 227.305 170.129C228.533 163.4 239.599 138.643 239.599 138.643Z" fill="#FFBE9D" stroke="#E7A686" stroke-linecap="round" stroke-linejoin="round"/>
<path d="M234.375 120.477C234.896 119.568 235.545 118.738 236.301 118.012C236.988 117.599 244.553 116.774 244.966 117.461" stroke="#E9A888" stroke-linecap="round" stroke-linejoin="round"/>
<path d="M234.641 124.889C234.641 124.889 236.154 121.45 237.942 121.313C239.73 121.175 244.681 121.45 244.681 121.45" stroke="#E9A888" stroke-linecap="round" stroke-linejoin="round"/>
<path d="M235.75 129.555C235.75 129.555 235.612 126.666 236.988 125.703C238.363 124.741 245.24 125.153 245.24 125.153" stroke="#E9A888" stroke-linecap="round" stroke-linejoin="round"/>
<path d="M237.402 132.443L240.153 130.517L238.64 129.142" stroke="#E9A888" stroke-linecap="round" stroke-linejoin="round"/>
<path d="M229.678 436.999C309.146 436.999 373.567 421.605 373.567 402.614C373.567 383.624 309.146 368.229 229.678 368.229C150.21 368.229 85.7891 383.624 85.7891 402.614C85.7891 421.605 150.21 436.999 229.678 436.999Z" fill="#DBDBDB"/>
<path d="M371.386 348.169H96.0508V409.809H371.386V348.169Z" fill="#977C2E" stroke="#977C2E" stroke-linecap="round" stroke-linejoin="round"/>
<path d="M91.7031 340.52H375.736L365.05 311.213H102.389L91.7031 340.52Z" fill="#FD3E72"/>
<path opacity="0.7" d="M151.492 331.411L91.4609 306.759H374.34L305.887 331.411H151.492Z" fill="white"/>
<path d="M375.725 340.366H91.7031V349.312H375.725V340.366Z" fill="#8F4620"/>
<path d="M156.706 335.399H152.125L165.742 322.248H170.323L156.706 335.399Z" fill="#263238" stroke="#263238" stroke-linecap="round" stroke-linejoin="round"/>
<path d="M182.925 335.399H187.506L173.89 322.248H169.309L182.925 335.399Z" fill="#263238" stroke="#263238" stroke-linecap="round" stroke-linejoin="round"/>
<path d="M287.254 335.399H282.684L296.29 322.248H300.871L287.254 335.399Z" fill="#263238" stroke="#263238" stroke-linecap="round" stroke-linejoin="round"/>
<path d="M310.32 335.399H314.901L301.284 322.248H296.703L310.32 335.399Z" fill="#263238" stroke="#263238" stroke-linecap="round" stroke-linejoin="round"/>
<path d="M316.584 224.891H150.848V326.248H316.584V224.891Z" fill="#5B5863"/>
<path d="M244.748 282.551C230.254 289.442 221.287 283.751 215.609 280.156C215.31 280.007 214.713 280.156 215.161 280.755C217.104 283.152 223.38 288.693 231.599 288.693C239.818 288.693 244.6 284.2 245.347 283.451C245.796 282.702 245.497 282.253 244.749 282.553L244.748 282.551Z" fill="#FF9900"/>
<path d="M248.935 280.305C248.487 279.856 246.544 279.706 245.349 279.856C244.153 280.005 242.211 280.754 242.36 281.204C242.51 281.354 242.659 281.354 243.406 281.204C244.302 281.054 246.693 280.755 247.142 281.503C247.59 282.102 246.394 285.247 246.096 285.846C245.947 286.296 246.245 286.446 246.544 286.146C246.992 285.846 247.739 284.948 248.188 283.749C248.935 282.402 249.234 280.605 248.935 280.305Z" fill="#FF9900"/>
<path d="M241.164 271.469V259.938C241.164 257.991 239.222 253.498 232.348 253.498C225.474 253.498 221.737 257.84 221.737 261.733L227.565 262.183C227.565 262.183 228.911 258.29 231.75 258.29C234.739 258.29 234.588 260.685 234.588 261.284V263.83C230.703 263.98 221.289 265.028 221.289 273.115C221.289 281.652 232.048 282.102 235.635 276.56C235.785 276.859 235.934 277.01 236.083 277.159L239.073 280.154L243.555 275.811C243.704 275.661 241.164 273.715 241.164 271.469ZM234.589 270.57C234.589 276.86 228.014 275.962 228.014 271.918C228.014 268.174 231.899 267.426 234.589 267.426V270.57Z" fill="white"/>
<path d="M153.535 221.367L150.848 224.942H316.584L313.897 221.367H153.535Z" fill="#6F6C78"/>
<path d="M158.367 313.604H307.588" stroke="#757180" stroke-linecap="round" stroke-linejoin="round"/>
<path d="M276.605 304.347H187.86C187.622 304.366 187.384 304.335 187.159 304.257C186.935 304.179 186.728 304.056 186.554 303.894C186.379 303.733 186.24 303.537 186.145 303.319C186.049 303.101 186 302.866 186 302.628C186 302.39 186.049 302.155 186.145 301.937C186.24 301.719 186.379 301.523 186.554 301.362C186.728 301.2 186.935 301.077 187.159 300.999C187.384 300.921 187.622 300.89 187.86 300.909H276.605C277.038 300.943 277.442 301.138 277.736 301.457C278.031 301.776 278.195 302.194 278.195 302.628C278.195 303.062 278.031 303.48 277.736 303.799C277.442 304.117 277.038 304.313 276.605 304.347Z" fill="white" stroke="#757180" stroke-linecap="round" stroke-linejoin="round"/>
<path d="M185.645 274.829V235.683H278.95V277.019" stroke="#757180" stroke-linecap="round" stroke-linejoin="round"/>
<path d="M285.086 241.395C285.846 241.395 286.462 240.78 286.462 240.02C286.462 239.26 285.846 238.645 285.086 238.645C284.327 238.645 283.711 239.26 283.711 240.02C283.711 240.78 284.327 241.395 285.086 241.395Z" stroke="#757180" stroke-linecap="round" stroke-linejoin="round"/>
<path d="M285.086 248.251C285.846 248.251 286.462 247.636 286.462 246.876C286.462 246.116 285.846 245.5 285.086 245.5C284.327 245.5 283.711 246.116 283.711 246.876C283.711 247.636 284.327 248.251 285.086 248.251Z" stroke="#757180" stroke-linecap="round" stroke-linejoin="round"/>
<path d="M285.086 255.097C285.846 255.097 286.462 254.481 286.462 253.721C286.462 252.961 285.846 252.346 285.086 252.346C284.327 252.346 283.711 252.961 283.711 253.721C283.711 254.481 284.327 255.097 285.086 255.097Z" stroke="#757180" stroke-linecap="round" stroke-linejoin="round"/>
<path d="M285.086 261.953C285.846 261.953 286.462 261.337 286.462 260.578C286.462 259.818 285.846 259.202 285.086 259.202C284.327 259.202 283.711 259.818 283.711 260.578C283.711 261.337 284.327 261.953 285.086 261.953Z" stroke="#757180" stroke-linecap="round" stroke-linejoin="round"/>
</svg>
