<svg width="114" height="62" viewBox="0 0 114 62" fill="none" xmlns="http://www.w3.org/2000/svg">
<path d="M12.5406 0C12.8517 0.0430784 13.158 0.0861567 13.4692 0.119662C14.2413 0.20935 15.006 0.354922 15.7571 0.555232C15.8306 0.575724 15.9026 0.601314 15.9725 0.631816C16.1575 0.685379 16.3204 0.797218 16.4368 0.950714C16.5532 1.10421 16.617 1.29117 16.6187 1.48381C16.6474 2.1252 16.6474 2.77616 16.6187 3.3984C16.6232 3.48551 16.6083 3.57254 16.575 3.65318C16.5418 3.73382 16.491 3.80607 16.4264 3.8647C16.3619 3.92333 16.285 3.96688 16.2016 3.99219C16.1181 4.01751 16.0301 4.02395 15.9438 4.01107C15.5363 3.98449 15.1305 3.93656 14.728 3.86748C13.6043 3.6703 12.454 3.68166 11.3344 3.90098C10.6783 4.00379 10.087 4.35515 9.68306 4.88221C9.39747 5.3002 9.21837 5.78165 9.16133 6.28465C9.1178 6.60191 9.09541 6.92172 9.09432 7.24195C9.09432 8.57259 9.09432 9.90324 9.09432 11.2339V11.5881C9.25706 11.5881 9.37672 11.5881 9.49638 11.5881H15.288C15.4125 11.5881 15.5369 11.5881 15.6566 11.5881C15.8454 11.5955 16.0238 11.6761 16.1542 11.8128C16.2847 11.9495 16.3568 12.1315 16.3554 12.3204C16.3554 12.5741 16.3554 12.8326 16.3554 13.0862C16.3554 13.5075 16.3554 13.9239 16.3554 14.3403C16.3693 14.4498 16.3593 14.5611 16.3261 14.6664C16.2929 14.7717 16.2374 14.8685 16.1633 14.9504C16.0892 15.0322 15.9983 15.097 15.8968 15.1404C15.7953 15.1839 15.6856 15.2048 15.5752 15.2019C15.4795 15.2019 15.3838 15.2019 15.288 15.2019H9.09432V34.2904C9.09652 34.4506 9.08531 34.6107 9.06081 34.769C9.0433 34.9268 8.97262 35.0738 8.8604 35.1861C8.74818 35.2983 8.6011 35.369 8.44336 35.3865C8.32174 35.4081 8.1983 35.4177 8.0748 35.4152H5.4901C5.347 35.4153 5.20427 35.4009 5.0641 35.3721C4.91724 35.3458 4.78335 35.2713 4.68364 35.1603C4.58393 35.0494 4.52411 34.9083 4.51365 34.7594C4.49217 34.5912 4.48257 34.4217 4.48494 34.2521V15.2737H4.14988H1.10089C0.997312 15.281 0.893349 15.281 0.78977 15.2737C0.621507 15.2645 0.461543 15.1976 0.336856 15.0843C0.212168 14.9709 0.130386 14.8181 0.105303 14.6514C0.079138 14.5711 0.0438044 14.494 0 14.4217L0 13.0527C0.045534 12.9723 0.0824355 12.8873 0.110089 12.7991C0.137129 12.6676 0.200976 12.5465 0.294192 12.4499C0.387409 12.3532 0.506157 12.2851 0.636602 12.2534C0.761012 12.2097 0.889199 12.1777 1.01952 12.1577L4.1786 11.7556L4.48494 11.703V11.2913C4.48494 9.91759 4.48494 8.53909 4.50887 7.16537C4.52117 6.33979 4.64022 5.51928 4.86307 4.72426C5.04124 3.969 5.36733 3.25654 5.82247 2.62805C6.27761 1.99956 6.8528 1.46749 7.51478 1.0626C8.40709 0.547046 9.39617 0.221153 10.4202 0.105303L11.4014 0H12.5406Z" fill="#FC4C02"/>
<path d="M56.0641 61.1328C54.7048 61.1328 53.3454 61.1328 51.986 61.1328C51.0862 61.1328 50.1863 61.0371 49.2913 60.9509C48.4776 60.8791 47.6686 60.7834 46.8597 60.659C45.4716 60.4436 44.0836 60.2234 42.7098 59.9506C40.1401 59.4352 37.6061 58.7558 35.1233 57.9163C32.496 57.0377 29.9269 55.9938 27.4314 54.7907C21.9065 52.12 16.7883 48.6794 12.2295 44.5716C12.0777 44.4427 11.9469 44.2909 11.8418 44.1217C11.7616 43.9967 11.7212 43.8503 11.7261 43.7019C11.731 43.5535 11.7809 43.4101 11.8691 43.2907C11.9574 43.1713 12.0799 43.0815 12.2203 43.0333C12.3607 42.9851 12.5125 42.9807 12.6555 43.0208C12.856 43.0723 13.0479 43.1529 13.2251 43.2601C14.8206 44.1791 16.4448 45.0455 18.0977 45.8592C21.439 47.4999 24.8829 48.9228 28.4078 50.1191C31.5251 51.1806 34.6985 52.0691 37.9138 52.7804C39.7757 53.1921 41.6472 53.5558 43.5331 53.8334C44.9068 54.0297 46.2806 54.2259 47.6543 54.3791C48.8413 54.5131 50.0475 54.6089 51.2298 54.6854C52.5923 54.7716 53.9581 54.8338 55.327 54.8721C56.4566 54.9056 57.5862 54.9248 58.7158 54.8721C60.3002 54.829 61.8845 54.7572 63.464 54.6471C65.5653 54.4988 67.6618 54.2451 69.7439 53.934C73.818 53.322 77.845 52.4296 81.7963 51.2631C84.8867 50.3545 87.9231 49.271 90.8906 48.0179C91.2603 47.8366 91.681 47.7876 92.0824 47.8791C92.3174 47.9292 92.5328 48.0463 92.7026 48.2161C92.8725 48.386 92.9896 48.6014 93.0397 48.8364C93.0686 48.9853 93.0679 49.1385 93.0375 49.2872C93.0071 49.4358 92.9477 49.577 92.8626 49.7027C92.7112 49.9347 92.5142 50.1334 92.2835 50.2867C90.3896 51.671 88.3944 52.911 86.3147 53.9962C82.4119 56.0225 78.3042 57.6271 74.0613 58.7827C71.585 59.4819 69.0713 60.0412 66.5322 60.4579C64.9287 60.7164 63.3204 60.9366 61.7026 61.0515C61.1139 61.0945 60.5251 61.1233 59.9412 61.128C58.6488 61.1376 57.3565 61.1328 56.0641 61.1328Z" fill="#FC4C02"/>
<path d="M50.1768 24.502C50.1768 24.5642 50.1385 24.5881 50.1433 24.6168C50.131 26.0352 50.4096 27.441 50.9617 28.7476C51.3029 29.5349 51.8176 30.2349 52.4674 30.7952C53.1173 31.3556 53.8854 31.7617 54.7143 31.9832C55.5629 32.2314 56.4394 32.3714 57.323 32.3997C58.4619 32.4477 59.6027 32.3901 60.731 32.2273C61.752 32.0584 62.7597 31.8169 63.7464 31.5046C64.048 31.4184 64.3448 31.3275 64.6463 31.2461C64.7571 31.2158 64.8713 31.1997 64.9861 31.1982C65.1066 31.1855 65.2275 31.2189 65.3243 31.2917C65.4211 31.3646 65.4867 31.4714 65.5079 31.5907C65.546 31.7181 65.5653 31.8503 65.5653 31.9832C65.5653 32.5624 65.5653 33.1416 65.5653 33.7207C65.566 33.8642 65.5287 34.0053 65.4572 34.1297C65.3858 34.2541 65.2827 34.3574 65.1585 34.4291C64.8818 34.5942 64.5939 34.7397 64.2969 34.8647C63.0901 35.3213 61.8364 35.6424 60.5586 35.822C59.1348 36.0497 57.6905 36.1235 56.2508 36.0422C54.507 35.9924 52.7925 35.5817 51.2154 34.836C49.2815 33.8755 47.7539 32.2562 46.9076 30.2697C46.3707 29.0304 46.0176 27.7195 45.8594 26.3783C45.6863 25.0407 45.6351 23.6901 45.7062 22.3433C45.7572 20.5348 46.1367 18.7507 46.8262 17.0781C47.6888 14.9526 49.2759 13.201 51.3064 12.1337C52.3741 11.5883 53.5263 11.2275 54.7143 11.0663C55.7749 10.9164 56.8484 10.8811 57.9165 10.961C59.4704 11.0281 60.982 11.4876 62.3105 12.2964C63.7806 13.2384 64.8811 14.6584 65.4265 16.3171C65.8117 17.4498 66.0231 18.6343 66.0535 19.8304C66.0976 21.0271 66.0335 22.2254 65.8621 23.4106C65.8303 23.6255 65.779 23.8369 65.7089 24.0425C65.6816 24.1522 65.6209 24.2508 65.5351 24.3245C65.4494 24.3983 65.3429 24.4435 65.2303 24.4541C65.0435 24.4843 64.8547 24.5003 64.6655 24.502H50.1768ZM50.1289 21.4386H61.6165C61.8606 21.4386 61.8797 21.4386 61.8893 21.1801C61.8893 20.7302 61.9132 20.2851 61.8893 19.8399C61.8863 19.1936 61.801 18.5502 61.6356 17.9253C61.4522 17.0739 61.0175 16.2971 60.3877 15.6955C59.7579 15.0939 58.9621 14.6952 58.1032 14.5509C57.156 14.3631 56.1821 14.3534 55.2313 14.5221C54.3419 14.6393 53.4958 14.9764 52.7695 15.5029C52.0432 16.0294 51.4597 16.7288 51.0718 17.5376C50.6097 18.4945 50.3182 19.5247 50.2103 20.5818C50.1768 20.8499 50.1624 21.1131 50.1289 21.4386Z" fill="#FC4C02"/>
<path d="M76.9236 15.2593H73.4773C73.365 15.2722 73.2512 15.2602 73.144 15.2242C73.0368 15.1882 72.9388 15.129 72.857 15.0509C72.7753 14.9728 72.7117 14.8776 72.6708 14.7722C72.6299 14.6667 72.6128 14.5536 72.6205 14.4408C72.5947 13.9625 72.5947 13.4831 72.6205 13.0048C72.607 12.8209 72.6653 12.6389 72.7831 12.497C72.9009 12.3551 73.0691 12.2643 73.2524 12.2438C73.6048 12.1673 73.9611 12.1098 74.3197 12.0715C75.1478 11.9662 75.9807 11.8704 76.8087 11.7699C77.0432 11.7412 77.0528 11.7268 77.0815 11.4923L77.5985 6.50958C77.6272 6.24154 77.6511 5.97828 77.699 5.71502C77.7185 5.50803 77.8179 5.31677 77.976 5.18184C78.1342 5.0469 78.3387 4.9789 78.5462 4.99226C79.2674 4.99226 79.9901 4.99226 80.7145 4.99226C80.8186 4.98212 80.9236 4.99411 81.0228 5.02744C81.1219 5.06077 81.2129 5.11468 81.2897 5.18564C81.3666 5.25661 81.4276 5.34301 81.4686 5.4392C81.5097 5.53538 81.53 5.63916 81.5282 5.74374C81.5282 5.85862 81.5282 5.97349 81.5282 6.08358V11.6072C81.6814 11.6072 81.801 11.6311 81.9207 11.6311H87.7602C87.8692 11.6225 87.9789 11.6376 88.0815 11.6754C88.1842 11.7132 88.2774 11.7729 88.3548 11.8503C88.4321 11.9276 88.4918 12.0208 88.5296 12.1235C88.5674 12.2261 88.5825 12.3358 88.5739 12.4448C88.5739 12.9235 88.5739 13.3782 88.5739 13.8425C88.5739 14.0435 88.5739 14.2445 88.5739 14.4408C88.5857 14.6386 88.5189 14.8331 88.388 14.9819C88.2571 15.1307 88.0728 15.2218 87.8751 15.2353C87.753 15.253 87.6298 15.261 87.5065 15.2593H81.5569C81.5569 15.3981 81.5569 15.5082 81.5569 15.6183V28.8146C81.55 29.2708 81.6014 29.726 81.7101 30.1692C81.7924 30.5526 81.9797 30.9056 82.251 31.1887C82.5223 31.4719 82.867 31.674 83.2465 31.7726C83.7218 31.9077 84.2124 31.9816 84.7064 31.9928C85.5809 32.0019 86.4539 31.9168 87.3103 31.7391C87.5639 31.6961 87.8176 31.6482 88.0713 31.629C88.5165 31.5908 88.751 31.7726 88.7606 32.2178C88.7606 32.8544 88.7606 33.491 88.7606 34.1324C88.7586 34.3554 88.6814 34.5712 88.5416 34.7449C88.4018 34.9187 88.2074 35.0401 87.9899 35.0897C87.4627 35.2486 86.9275 35.3796 86.3865 35.4822C85.1132 35.7045 83.8166 35.7624 82.5286 35.6545C81.5972 35.5932 80.6868 35.351 79.8481 34.9413C79.2169 34.6165 78.6618 34.1614 78.2195 33.6061C77.7773 33.0507 77.4579 32.4079 77.2826 31.72C77.0457 30.8776 76.9312 30.0055 76.9427 29.1305C76.9427 24.6472 76.9427 20.1622 76.9427 15.6757L76.9236 15.2593Z" fill="#FC4C02"/>
<path d="M102.728 31.1121C102.766 31.0164 102.804 30.9255 102.838 30.825C104.8 25.2726 106.747 19.7283 108.677 14.1919C108.84 13.7133 109.003 13.2346 109.184 12.756C109.278 12.518 109.387 12.2862 109.51 12.0619C109.56 11.9582 109.635 11.8687 109.729 11.8017C109.823 11.7348 109.932 11.6926 110.046 11.679C110.262 11.6454 110.479 11.6263 110.697 11.6216C111.53 11.6216 112.367 11.6216 113.205 11.6216C114.043 11.6216 114.105 12.1002 113.904 12.6315C113.746 13.0719 113.578 13.5027 113.425 13.9335L108.16 27.2159C107.238 29.5581 106.313 31.8955 105.384 34.2281C105.295 34.4488 105.195 34.6645 105.082 34.8743C105.021 34.9986 104.929 35.1053 104.815 35.1848C104.701 35.2642 104.569 35.3138 104.431 35.329C104.245 35.3587 104.056 35.3762 103.867 35.3817C103.058 35.3817 102.254 35.3817 101.445 35.3817C101.246 35.376 101.048 35.3584 100.851 35.329C100.718 35.3135 100.59 35.2652 100.48 35.1883C100.37 35.1115 100.28 35.0085 100.219 34.8887C100.114 34.6876 100.009 34.4866 99.9226 34.276L94.198 19.974C93.3269 17.7882 92.4573 15.6023 91.5894 13.4165C91.4889 13.1676 91.3883 12.9379 91.307 12.6698C91.2577 12.5148 91.2303 12.3537 91.2256 12.1912C91.219 12.1264 91.2257 12.0609 91.2453 11.9988C91.2649 11.9367 91.297 11.8793 91.3395 11.83C91.3821 11.7807 91.4343 11.7406 91.4929 11.7122C91.5515 11.6838 91.6152 11.6676 91.6803 11.6647C91.7647 11.6574 91.8496 11.6574 91.934 11.6647H94.7724C94.9616 11.6701 95.1502 11.6877 95.3372 11.7173C95.4613 11.7312 95.5799 11.7767 95.6813 11.8497C95.7827 11.9226 95.8637 12.0204 95.9163 12.1337C96.0455 12.3899 96.159 12.6536 96.2562 12.9235C97.8996 17.5855 99.5381 22.2492 101.172 26.9144L102.56 30.8585C102.589 30.9494 102.632 31.0308 102.665 31.1169L102.728 31.1121Z" fill="#FC4C02"/>
<path d="M35.5924 15.1205C35.7168 14.996 35.8173 14.9051 35.913 14.8046C36.4995 14.1752 37.1402 13.5986 37.8276 13.0814C39.1202 12.1029 40.6829 11.5463 42.303 11.4875C42.8295 11.4875 43.3656 11.4875 43.8921 11.4875C44.0448 11.4976 44.195 11.5315 44.3373 11.5881C44.4456 11.6257 44.5409 11.6934 44.6121 11.7832C44.6833 11.8731 44.7275 11.9814 44.7393 12.0954C44.7586 12.227 44.7682 12.3598 44.768 12.4927V14.6897C44.775 14.8125 44.775 14.9355 44.768 15.0583C44.7606 15.2221 44.6903 15.3767 44.5717 15.49C44.4531 15.6032 44.2954 15.6663 44.1314 15.6661C43.8462 15.6877 43.5598 15.6877 43.2747 15.6661C40.9287 15.3699 38.5543 15.9252 36.5832 17.2313C36.3821 17.3701 36.1907 17.5281 35.9896 17.6717C35.9185 17.7115 35.8617 17.7727 35.8273 17.8466C35.793 17.9204 35.7828 18.0033 35.7982 18.0833C35.803 18.1678 35.803 18.2525 35.7982 18.337V34.2042C35.7982 34.3478 35.7982 34.4914 35.7982 34.6302C35.7987 34.8187 35.728 35.0004 35.6002 35.1389C35.4723 35.2774 35.2968 35.3624 35.1089 35.3769C34.9958 35.3842 34.8822 35.3842 34.7691 35.3769H32.2322C32.1097 35.3889 31.9862 35.3889 31.8637 35.3769C31.6818 35.3567 31.5139 35.2696 31.3927 35.1324C31.2715 34.9953 31.2056 34.818 31.2079 34.635C31.2032 34.5585 31.2032 34.4817 31.2079 34.4052C31.2079 27.1425 31.2079 19.8846 31.2079 12.6315C31.2079 11.9327 31.5286 11.6216 32.1652 11.6359C32.8018 11.6503 33.4767 11.6359 34.1325 11.6359H34.3287C34.5411 11.6233 34.7502 11.692 34.9138 11.828C35.0774 11.964 35.1831 12.1572 35.2094 12.3683C35.2669 12.6555 35.2908 12.9522 35.3291 13.2442C35.4057 13.809 35.4727 14.3738 35.5493 14.9386C35.5603 15 35.5747 15.0607 35.5924 15.1205Z" fill="#FC4C02"/>
<path d="M25.0237 23.5208V34.5776C25.0301 34.6779 25.0164 34.7784 24.9834 34.8733C24.9503 34.9682 24.8986 35.0554 24.8312 35.13C24.7638 35.2045 24.6821 35.2647 24.5911 35.3072C24.5 35.3496 24.4013 35.3733 24.3009 35.377C24.2069 35.3842 24.1125 35.3842 24.0185 35.377H21.453C20.6871 35.377 20.4191 35.1089 20.4191 34.3526V12.6507C20.4184 12.4995 20.4345 12.3486 20.467 12.2008C20.4974 12.0504 20.5769 11.9143 20.6929 11.8138C20.809 11.7133 20.9551 11.6542 21.1083 11.6456C21.2135 11.6384 21.3191 11.6384 21.4242 11.6456H24.0425C24.1571 11.636 24.2724 11.636 24.3871 11.6456C24.5534 11.6665 24.7071 11.745 24.8216 11.8674C24.9362 11.9898 25.0043 12.1484 25.0141 12.3157C25.0213 12.44 25.0213 12.5647 25.0141 12.689L25.0237 23.5208Z" fill="#FC4C02"/>
<path d="M91.551 44.6627C90.6703 44.7201 89.7896 44.7632 88.9089 44.835C88.0281 44.9068 87.2288 44.993 86.3864 45.0791C85.9652 45.127 85.5392 45.1892 85.118 45.2275C84.9291 45.2475 84.7383 45.2362 84.5532 45.194C84.495 45.1811 84.4403 45.1561 84.3926 45.1205C84.3449 45.0849 84.3052 45.0396 84.2763 44.9876C84.2474 44.9356 84.2298 44.8781 84.2247 44.8187C84.2196 44.7594 84.2271 44.6997 84.2468 44.6436C84.2859 44.4956 84.3543 44.3571 84.4481 44.2362C84.5418 44.1153 84.6589 44.0146 84.7925 43.9399C85.2328 43.6575 85.6732 43.3704 86.1327 43.131C87.6119 42.3699 89.2011 41.845 90.8426 41.5754C92.2086 41.3301 93.5952 41.2179 94.9829 41.2404C96.3645 41.2377 97.7409 41.4081 99.0801 41.7477C99.4164 41.8502 99.7471 41.97 100.071 42.1067C100.279 42.1818 100.46 42.3161 100.593 42.493C100.726 42.6699 100.804 42.8817 100.818 43.1023C100.879 43.5912 100.905 44.0839 100.894 44.5765C100.674 47.9644 99.6149 51.2443 97.8117 54.1208C97.0931 55.2979 96.1952 56.3557 95.1504 57.2559C95.0134 57.3736 94.8642 57.4763 94.7053 57.5623C94.5691 57.6288 94.421 57.6679 94.2697 57.6772C94.205 57.6849 94.1394 57.6778 94.0778 57.6564C94.0162 57.6351 93.9603 57.6001 93.9142 57.554C93.8682 57.5079 93.8331 57.452 93.8118 57.3904C93.7905 57.3288 93.7834 57.2632 93.7911 57.1985C93.8096 57.0107 93.8564 56.8267 93.9299 56.6528C94.3367 55.5711 94.7675 54.4941 95.1696 53.4124C95.7038 52.0074 96.1436 50.5682 96.4859 49.1046C96.6459 48.4684 96.7374 47.8169 96.7587 47.1612C96.7626 46.8308 96.7353 46.5006 96.6773 46.1752C96.6405 45.9775 96.5571 45.7913 96.4339 45.6323C96.3106 45.4733 96.1512 45.346 95.9689 45.261C95.4479 45.0045 94.8856 44.8425 94.308 44.7824C93.3924 44.6853 92.4716 44.6453 91.551 44.6627Z" fill="#FC4C02"/>
<path d="M22.822 1.75171C23.1328 1.78859 23.4412 1.84292 23.7458 1.91445C24.1646 2.01254 24.5492 2.22168 24.8592 2.51985C25.1691 2.81802 25.393 3.19422 25.5073 3.60886C25.6897 4.19311 25.703 4.8171 25.5456 5.40858C25.4232 5.93084 25.1379 6.40063 24.7309 6.74999C24.3239 7.09935 23.8163 7.31015 23.2815 7.3519C22.7631 7.4217 22.2359 7.38753 21.7307 7.25138C21.2489 7.12452 20.8165 6.85515 20.4903 6.47853C20.1641 6.1019 19.9591 5.63556 19.9023 5.14054C19.8247 4.69054 19.841 4.22936 19.9502 3.78596C20.0529 3.29964 20.3012 2.85607 20.662 2.51412C21.0227 2.17217 21.4789 1.948 21.9701 1.87137C22.2516 1.81587 22.5361 1.77592 22.822 1.75171Z" fill="#FC4C02"/>
</svg>
