<svg width="70" height="61" viewBox="0 0 70 61" fill="none" xmlns="http://www.w3.org/2000/svg">
<g clip-path="url(#clip0)">
<path d="M15.22 54.7827H54.7852V57.8262C54.7852 58.6334 54.4646 59.4075 53.8938 59.9783C53.323 60.549 52.5489 60.8697 51.7417 60.8697H18.2635C17.4563 60.8697 16.6822 60.549 16.1114 59.9783C15.5407 59.4075 15.22 58.6334 15.22 57.8262V54.7827Z" fill="#5B5863"/>
<path fill-rule="evenodd" clip-rule="evenodd" d="M3.04348 0H66.9565C67.7637 0 68.5378 0.320651 69.1086 0.891414C69.6794 1.46218 70 2.2363 70 3.04348V48.6957C70 49.5028 69.6794 50.277 69.1086 50.8477C68.5378 51.4185 67.7637 51.7391 66.9565 51.7391H3.04348C2.2363 51.7391 1.46218 51.4185 0.891414 50.8477C0.320651 50.277 0 49.5028 0 48.6957V3.04348C0 2.2363 0.320651 1.46218 0.891414 0.891414C1.46218 0.320651 2.2363 0 3.04348 0Z" fill="#5B5863"/>
<path fill-rule="evenodd" clip-rule="evenodd" d="M5.78261 3H64.2174C64.9554 3 65.6632 3.28508 66.185 3.79253C66.7068 4.29999 67 4.98824 67 5.70588V46.2941C67 47.0118 66.7068 47.7 66.185 48.2075C65.6632 48.7149 64.9554 49 64.2174 49H5.78261C5.04462 49 4.33685 48.7149 3.81501 48.2075C3.29317 47.7 3 47.0118 3 46.2941V5.70588C3 4.98824 3.29317 4.29999 3.81501 3.79253C4.33685 3.28508 5.04462 3 5.78261 3Z" fill="white"/>
<mask id="mask0" mask-type="alpha" maskUnits="userSpaceOnUse" x="13" y="13" width="44" height="26">
<rect x="13" y="13" width="44" height="25.4737" fill="#C4C4C4"/>
</mask>
<g mask="url(#mask0)">
<path d="M14.1579 76.6843C14.1579 78.5948 15.721 80.158 17.6316 80.158H21.1053V92.3159C21.1053 95.199 23.4326 97.5264 26.3158 97.5264C29.1989 97.5264 31.5263 95.199 31.5263 92.3159V80.158H38.4737V92.3159C38.4737 95.199 40.801 97.5264 43.6842 97.5264C46.5674 97.5264 48.8947 95.199 48.8947 92.3159V80.158H52.3684C54.2789 80.158 55.8421 78.5948 55.8421 76.6843V41.9474H14.1579V76.6843ZM5.47368 41.9474C2.59052 41.9474 0.263153 44.2748 0.263153 47.158V71.4737C0.263153 74.3569 2.59052 76.6843 5.47368 76.6843C8.35684 76.6843 10.6842 74.3569 10.6842 71.4737V47.158C10.6842 44.2748 8.35684 41.9474 5.47368 41.9474ZM64.5263 41.9474C61.6432 41.9474 59.3158 44.2748 59.3158 47.158V71.4737C59.3158 74.3569 61.6432 76.6843 64.5263 76.6843C67.4095 76.6843 69.7368 74.3569 69.7368 71.4737V47.158C69.7368 44.2748 67.4095 41.9474 64.5263 41.9474ZM47.2621 21.6611L51.7779 17.1453C52.4726 16.4506 52.4726 15.3737 51.7779 14.679C51.0831 13.9843 50.0063 13.9843 49.3116 14.679L44.1705 19.8201C41.4263 18.4306 38.3 17.6316 35 17.6316C31.6653 17.6316 28.5389 18.4306 25.76 19.8201L20.5842 14.679C19.8895 13.9843 18.8126 13.9843 18.1179 14.679C17.4232 15.3737 17.4232 16.4506 18.1179 17.1453L22.6684 21.6959C17.5274 25.4822 14.1579 31.5611 14.1579 38.4737H55.8421C55.8421 31.5611 52.4726 25.4474 47.2621 21.6611ZM28.0526 31.5264H24.5789V28.0527H28.0526V31.5264ZM45.421 31.5264H41.9474V28.0527H45.421V31.5264Z" fill="#2EDF85"/>
</g>
</g>
<defs>
<clipPath id="clip0">
<rect width="70" height="60.8696" fill="white"/>
</clipPath>
</defs>
</svg>
