<svg width="37" height="37" viewBox="0 0 37 37" fill="none" xmlns="http://www.w3.org/2000/svg">
<path d="M27.75 12.334C28.9766 12.334 30.153 12.8213 31.0204 13.6886C31.8877 14.556 32.375 15.7324 32.375 16.959C32.375 18.1856 31.8877 19.362 31.0204 20.2294C30.153 21.0967 28.9766 21.584 27.75 21.584" stroke="white" stroke-width="2" stroke-linecap="round" stroke-linejoin="round"/>
<path d="M15.4167 12.334V29.2923C15.4167 29.7012 15.2543 30.0933 14.9652 30.3824C14.6761 30.6716 14.284 30.834 13.8751 30.834H12.3334C11.9245 30.834 11.5324 30.6716 11.2433 30.3824C10.9542 30.0933 10.7917 29.7012 10.7917 29.2923V21.584" stroke="white" stroke-width="2" stroke-linecap="round" stroke-linejoin="round"/>
<path d="M18.5 12.3327L25.4745 6.5206C25.6772 6.3518 25.9237 6.24426 26.1853 6.21058C26.4469 6.1769 26.7127 6.21848 26.9515 6.33044C27.1903 6.4424 27.3922 6.6201 27.5337 6.84273C27.6751 7.06536 27.7501 7.32368 27.75 7.58743V26.3279C27.7501 26.5917 27.6751 26.85 27.5337 27.0726C27.3922 27.2953 27.1903 27.473 26.9515 27.5849C26.7127 27.6969 26.4469 27.7385 26.1853 27.7048C25.9237 27.6711 25.6772 27.5636 25.4745 27.3948L18.5 21.5827H6.16667C5.75779 21.5827 5.36566 21.4203 5.07654 21.1311C4.78743 20.842 4.625 20.4499 4.625 20.041V13.8743C4.625 13.4655 4.78743 13.0733 5.07654 12.7842C5.36566 12.4951 5.75779 12.3327 6.16667 12.3327H18.5" stroke="white" stroke-width="2" stroke-linecap="round" stroke-linejoin="round"/>
</svg>
