<svg width="141" height="40" viewBox="0 0 141 40" fill="none" xmlns="http://www.w3.org/2000/svg">
<rect width="141" height="40" rx="3" fill="#111111"/>
<path d="M55.2531 25.6094H51.0438L50.0329 28.5901H48.25L52.237 17.562H54.0894L58.0764 28.5901H56.2631L55.2531 25.6094ZM51.4797 24.2339H54.8163L53.1715 19.3963H53.1255L51.4797 24.2339ZM66.687 24.5704C66.687 27.069 65.3478 28.6742 63.327 28.6742C62.2824 28.7288 61.2985 28.1824 60.7937 27.2675H60.7555V31.25H59.1029V20.5497H60.7026V21.8871H60.7329C61.2601 20.9779 62.2451 20.4318 63.2966 20.4656C65.34 20.4656 66.687 22.0787 66.687 24.5704ZM64.9883 24.5704C64.9883 22.9425 64.1459 21.8723 62.8606 21.8723C61.5979 21.8723 60.7486 22.9651 60.7486 24.5704C60.7486 26.1904 61.5979 27.2754 62.8606 27.2754C64.1459 27.2754 64.9883 26.213 64.9883 24.5704ZM75.5485 24.5704C75.5485 27.069 74.2094 28.6742 72.1885 28.6742C71.144 28.7288 70.16 28.1824 69.6553 27.2675H69.6171V31.25H67.9644V20.5497H69.5641V21.8871H69.5945C70.1216 20.9779 71.1066 20.4318 72.1581 20.4656C74.2016 20.4656 75.5485 22.0787 75.5485 24.5704ZM73.8499 24.5704C73.8499 22.9425 73.0075 21.8723 71.7222 21.8723C70.4595 21.8723 69.6101 22.9651 69.6101 24.5704C69.6101 26.1904 70.4595 27.2754 71.7222 27.2754C73.0075 27.2754 73.8499 26.213 73.8499 24.5704H73.8499ZM81.4053 25.5174C81.5277 26.611 82.5916 27.3291 84.0453 27.3291C85.4383 27.3291 86.4405 26.611 86.4405 25.6249C86.4405 24.7689 85.8361 24.2564 84.4049 23.9051L82.9737 23.5608C80.9459 23.0717 80.0045 22.1247 80.0045 20.5879C80.0045 18.6851 81.665 17.3781 84.0228 17.3781C86.3562 17.3781 87.9559 18.6851 88.0098 20.5879H86.3415C86.2416 19.4873 85.3306 18.823 83.9993 18.823C82.668 18.823 81.757 19.4951 81.757 20.4734C81.757 21.2531 82.3388 21.7118 83.7622 22.063L84.9789 22.3614C87.2446 22.8965 88.186 23.8054 88.186 25.4185C88.186 27.4817 86.5403 28.7739 83.9229 28.7739C81.4739 28.7739 79.8204 27.512 79.7135 25.5173L81.4053 25.5174ZM91.7527 18.647V20.5497H93.2838V21.8567H91.7527V26.2893C91.7527 26.9779 92.0593 27.2988 92.7323 27.2988C92.9141 27.2956 93.0956 27.2829 93.276 27.2606V28.5597C92.9734 28.6162 92.6658 28.6418 92.358 28.6361C90.728 28.6361 90.0923 28.0246 90.0923 26.4653V21.8567H88.9216V20.5497H90.0923V18.647H91.7527ZM94.1705 24.5704C94.1705 22.0406 95.6625 20.4509 97.989 20.4509C100.323 20.4509 101.808 22.0405 101.808 24.5704C101.808 27.1071 100.331 28.6899 97.989 28.6899C95.6477 28.6899 94.1705 27.1071 94.1705 24.5704ZM100.125 24.5704C100.125 22.835 99.3282 21.8108 97.989 21.8108C96.6499 21.8108 95.8544 22.8428 95.8544 24.5704C95.8544 26.3127 96.6499 27.3291 97.989 27.3291C99.3282 27.3291 100.124 26.3127 100.124 24.5704H100.125ZM103.171 20.5497H104.747V21.9183H104.785C105.005 21.0373 105.814 20.431 106.722 20.4656C106.913 20.4649 107.102 20.4856 107.288 20.5272V22.0709C107.048 21.9975 106.797 21.9639 106.546 21.9712C106.06 21.9515 105.59 22.1449 105.259 22.5005C104.927 22.8562 104.769 23.3386 104.824 23.821V28.5901H103.171L103.171 20.5497ZM114.908 26.2286C114.686 27.6882 113.262 28.6898 111.441 28.6898C109.099 28.6898 107.645 27.1227 107.645 24.6085C107.645 22.0865 109.107 20.4509 111.372 20.4509C113.599 20.4509 115 21.979 115 24.4169V24.9823H109.313V25.082C109.26 25.6806 109.467 26.2732 109.882 26.7089C110.296 27.1446 110.878 27.3816 111.479 27.3595C112.281 27.4345 113.037 26.9746 113.339 26.2286L114.908 26.2286ZM109.321 23.8289L113.346 23.8289C113.376 23.291 113.18 22.765 112.806 22.3776C112.431 21.9903 111.911 21.7766 111.372 21.7882C110.828 21.785 110.306 21.9987 109.921 22.3819C109.536 22.7651 109.32 23.286 109.321 23.8289ZM51.2726 9.26109C51.9742 9.21081 52.6614 9.47738 53.145 9.98743C53.6287 10.4975 53.8578 11.1972 53.7694 11.8941C53.7694 13.587 52.8532 14.5601 51.2726 14.5601H49.356V9.26109H51.2726ZM50.1801 13.8107H51.1805C51.6819 13.8406 52.1701 13.6434 52.5096 13.2736C52.8491 12.9039 53.0037 12.4011 52.9304 11.9049C52.9983 11.4107 52.8415 10.9121 52.5029 10.5454C52.1643 10.1787 51.6793 9.98229 51.1805 10.0099H50.1801V13.8107ZM54.7003 12.5588C54.6317 11.842 54.9758 11.1484 55.5885 10.7687C56.2011 10.389 56.9764 10.389 57.589 10.7687C58.2017 11.1484 58.5458 11.842 58.4772 12.5588C58.5471 13.2764 58.2033 13.9714 57.5901 14.3519C56.9769 14.7324 56.2006 14.7324 55.5874 14.3519C54.9742 13.9714 54.6304 13.2764 54.7003 12.5588ZM57.6643 12.5588C57.6643 11.692 57.2744 11.1851 56.59 11.1851C55.9031 11.1851 55.5167 11.692 55.5167 12.5588C55.5167 13.4326 55.9031 13.9356 56.59 13.9356C57.2744 13.9356 57.6643 13.4291 57.6643 12.5588H57.6643ZM63.4976 14.56H62.6778L61.8502 11.6148H61.7877L60.9635 14.56H60.1515L59.0477 10.5611H59.8493L60.5666 13.6125H60.6257L61.449 10.5611H62.2071L63.0304 13.6125H63.0929L63.8068 10.5611H64.5971L63.4976 14.56ZM65.5254 10.5611H66.2862V11.1963H66.3452C66.5506 10.7286 67.0305 10.4425 67.5402 10.4839C67.9349 10.4543 68.3216 10.6055 68.5913 10.8948C68.8609 11.1841 68.9842 11.5802 68.9262 11.9712V14.56H68.136V12.1694C68.136 11.5268 67.8563 11.2072 67.2719 11.2072C67.0042 11.1947 66.7444 11.2997 66.5606 11.4944C66.3768 11.6892 66.2873 11.9544 66.3157 12.2206V14.56H65.5254L65.5254 10.5611ZM70.1855 9H70.9758V14.56H70.1855V9ZM72.0743 12.5588C72.0057 11.842 72.3499 11.1483 72.9626 10.7686C73.5753 10.3889 74.3506 10.3889 74.9633 10.7686C75.576 11.1483 75.9202 11.842 75.8516 12.5588C75.9215 13.2764 75.5776 13.9714 74.9643 14.3519C74.3511 14.7323 73.5748 14.7323 72.9616 14.3519C72.3484 13.9714 72.0044 13.2764 72.0743 12.5588ZM75.0383 12.5588C75.0383 11.692 74.6484 11.1851 73.964 11.1851C73.2771 11.1851 72.8907 11.692 72.8907 12.5588C72.8907 13.4326 73.2771 13.9356 73.964 13.9356C74.6484 13.9356 75.0383 13.4291 75.0383 12.5588H75.0383ZM76.6836 13.4291C76.6836 12.7093 77.2203 12.2943 78.1729 12.2353L79.2576 12.1729V11.8277C79.2576 11.4054 78.978 11.1669 78.4378 11.1669C77.9967 11.1669 77.691 11.3286 77.6032 11.6113H76.8382C76.9189 10.9245 77.5659 10.4839 78.4743 10.4839C79.4782 10.4839 80.0444 10.983 80.0444 11.8277V14.56H79.2837V13.998H79.2212C78.9628 14.4084 78.5033 14.6483 78.0184 14.6259C77.6784 14.6612 77.3394 14.5513 77.0851 14.3233C76.8308 14.0952 76.6849 13.7704 76.6836 13.4291ZM79.2576 13.0874V12.7531L78.2798 12.8155C77.7283 12.8524 77.4782 13.0397 77.4782 13.3922C77.4782 13.7522 77.7908 13.9616 78.2207 13.9616C78.4752 13.9873 78.7293 13.9088 78.9248 13.744C79.1202 13.5792 79.2403 13.3423 79.2576 13.0874ZM81.0831 12.5588C81.0831 11.2952 81.7335 10.4947 82.7453 10.4947C83.2561 10.4712 83.7346 10.7446 83.9732 11.1963H84.0323V9H84.8226V14.56H84.0653V13.9282H84.0028C83.7461 14.3762 83.2617 14.6449 82.7453 14.6259C81.7266 14.626 81.0831 13.8255 81.0831 12.5588ZM81.8994 12.5588C81.8994 13.407 82.2998 13.9174 82.9694 13.9174C83.6354 13.9174 84.0471 13.3996 84.0471 12.5623C84.0471 11.7288 83.6311 11.2037 82.9694 11.2037C82.3041 11.2037 81.8994 11.7176 81.8994 12.5588H81.8994ZM88.0923 12.5588C88.0236 11.842 88.3678 11.1484 88.9804 10.7687C89.5931 10.389 90.3683 10.389 90.9809 10.7687C91.5936 11.1484 91.9378 11.842 91.8691 12.5588C91.9391 13.2764 91.5952 13.9714 90.982 14.3519C90.3688 14.7324 89.5925 14.7324 88.9793 14.3519C88.3661 13.9714 88.0223 13.2764 88.0923 12.5588ZM91.0562 12.5588C91.0562 11.692 90.6663 11.1851 89.982 11.1851C89.2951 11.1851 88.9086 11.692 88.9086 12.5588C88.9086 13.4326 89.2951 13.9356 89.982 13.9356C90.6663 13.9356 91.0562 13.4291 91.0562 12.5588ZM92.9295 10.5611H93.6902V11.1963H93.7493C93.9546 10.7286 94.4345 10.4425 94.9443 10.4839C95.3389 10.4543 95.7257 10.6055 95.9953 10.8948C96.2649 11.1841 96.3882 11.5802 96.3303 11.9712V14.56H95.54V12.1694C95.54 11.5268 95.2604 11.2072 94.6759 11.2072C94.4082 11.1947 94.1484 11.2997 93.9646 11.4944C93.7808 11.6892 93.6914 11.9544 93.7197 12.2206V14.56H92.9295V10.5611ZM100.796 9.56546V10.5793H101.663V11.244H100.796V13.3003C100.796 13.7192 100.969 13.9026 101.362 13.9026C101.463 13.9023 101.563 13.8962 101.663 13.8844V14.5418C101.521 14.5672 101.378 14.5806 101.233 14.5821C100.355 14.5821 100.005 14.2734 100.005 13.5024V11.244H99.369V10.5793H100.005V9.56546H100.796ZM102.743 9H103.526V11.2037H103.589C103.804 10.7319 104.292 10.4454 104.81 10.4874C105.202 10.466 105.584 10.6206 105.85 10.9089C106.117 11.1972 106.241 11.5892 106.189 11.9782V14.56H105.398V12.1729C105.398 11.5341 105.1 11.2106 104.541 11.2106C104.266 11.1881 103.996 11.2879 103.801 11.4834C103.607 11.6789 103.509 11.9501 103.533 12.2245V14.56H102.743L102.743 9ZM110.797 13.4803C110.575 14.2346 109.844 14.722 109.062 14.6372C108.528 14.6513 108.014 14.4302 107.658 14.0328C107.302 13.6353 107.139 13.1015 107.212 12.5731C107.141 12.0432 107.303 11.5086 107.658 11.1078C108.012 10.707 108.523 10.4793 109.058 10.4839C110.172 10.4839 110.845 11.2441 110.845 12.4998V12.7752H108.017V12.8194C107.992 13.1162 108.093 13.4097 108.296 13.6278C108.499 13.8459 108.785 13.9684 109.083 13.965C109.47 14.0114 109.846 13.8199 110.036 13.4802L110.797 13.4803ZM108.017 12.1915H110.039C110.06 11.9201 109.964 11.6529 109.776 11.4556C109.589 11.2583 109.326 11.1494 109.054 11.1556C108.778 11.1521 108.512 11.2602 108.317 11.4552C108.121 11.6503 108.013 11.9158 108.017 12.1915H108.017Z" fill="white"/>
<path fill-rule="evenodd" clip-rule="evenodd" d="M39.3803 19.4126C39.3822 21.1384 40.4215 22.6959 42.02 23.3681C41.7126 24.3612 41.2492 25.2997 40.647 26.1488C39.8383 27.3518 38.9903 28.527 37.6445 28.5488C36.3367 28.5788 35.8972 27.7835 34.3973 27.7835C32.8834 27.7835 32.4149 28.5271 31.1607 28.5788C29.879 28.626 28.8994 27.2948 28.0613 26.1031C26.3861 23.6695 25.0816 19.2447 26.8304 16.2339C27.6517 14.7665 29.1871 13.8354 30.875 13.7811C32.1579 13.7549 33.3492 14.6427 34.138 14.6427C34.9117 14.6427 36.3838 13.5807 37.9022 13.7392C39.3455 13.7841 40.683 14.5031 41.5112 15.6792C40.2043 16.4782 39.4001 17.8872 39.3803 19.4126ZM36.9103 12.1386C36.1983 13.0191 35.1196 13.5263 33.9834 13.5147C33.9112 12.4106 34.2832 11.3233 35.0176 10.4922C35.7614 9.64989 36.797 9.11709 37.9181 9C38.0056 10.1367 37.6441 11.2626 36.9103 12.1386Z" fill="white"/>
</svg>
