<svg width="30" height="27" viewBox="0 0 30 27" fill="none" xmlns="http://www.w3.org/2000/svg">
<g clip-path="url(#clip0)">
<path d="M6.52295 23.7858H23.4795V25.1072C23.4795 25.4577 23.342 25.7938 23.0974 26.0416C22.8528 26.2894 22.5211 26.4286 22.1751 26.4286H7.8273C7.48136 26.4286 7.1496 26.2894 6.90498 26.0416C6.66037 25.7938 6.52295 25.4577 6.52295 25.1072V23.7858Z" fill="#5B5863"/>
<path fill-rule="evenodd" clip-rule="evenodd" d="M1.30435 0H28.6957C29.0416 0 29.3734 0.139222 29.618 0.387037C29.8626 0.634853 30 0.970964 30 1.32143V21.1429C30 21.4933 29.8626 21.8294 29.618 22.0772C29.3734 22.3251 29.0416 22.4643 28.6957 22.4643H1.30435C0.958413 22.4643 0.626647 22.3251 0.382035 22.0772C0.137422 21.8294 0 21.4933 0 21.1429V1.32143C0 0.970964 0.137422 0.634853 0.382035 0.387037C0.626647 0.139222 0.958413 0 1.30435 0Z" fill="#5B5863"/>
<path fill-rule="evenodd" clip-rule="evenodd" d="M2.47819 1.30249H27.5217C27.838 1.30249 28.1413 1.42627 28.3649 1.6466C28.5886 1.86692 28.7142 2.16575 28.7142 2.47734V20.1001C28.7142 20.4117 28.5886 20.7105 28.3649 20.9308C28.1413 21.1512 27.838 21.2749 27.5217 21.2749H2.47819C2.16191 21.2749 1.85858 21.1512 1.63493 20.9308C1.41129 20.7105 1.28564 20.4117 1.28564 20.1001V2.47734C1.28564 2.16575 1.41129 1.86692 1.63493 1.6466C1.85858 1.42627 2.16191 1.30249 2.47819 1.30249Z" fill="white"/>
<g clip-path="url(#clip1)">
<path d="M20.3378 14.3969C20.1377 14.8671 19.9009 15.3 19.6266 15.698C19.2526 16.2405 18.9464 16.616 18.7104 16.8246C18.3446 17.1669 17.9526 17.3422 17.5329 17.3521C17.2316 17.3521 16.8682 17.2649 16.4452 17.0879C16.0208 16.9118 15.6309 16.8246 15.2743 16.8246C14.9003 16.8246 14.4992 16.9118 14.0702 17.0879C13.6405 17.2649 13.2943 17.3571 13.0297 17.3662C12.6272 17.3837 12.226 17.2034 11.8256 16.8246C11.57 16.5977 11.2503 16.2089 10.8673 15.6581C10.4564 15.0699 10.1186 14.3878 9.85398 13.6101C9.57055 12.7702 9.42847 11.9568 9.42847 11.1693C9.42847 10.2673 9.62003 9.48933 10.0037 8.83739C10.3053 8.31372 10.7065 7.90064 11.2086 7.59739C11.7107 7.29414 12.2532 7.13961 12.8375 7.12972C13.1572 7.12972 13.5764 7.23033 14.0973 7.42807C14.6168 7.62647 14.9504 7.72708 15.0967 7.72708C15.206 7.72708 15.5766 7.60943 16.2047 7.37489C16.7988 7.15738 17.3002 7.06732 17.7109 7.1028C18.8239 7.19419 19.66 7.64059 20.2161 8.44482C19.2207 9.05847 18.7283 9.91795 18.7381 11.0205C18.7471 11.8793 19.0533 12.594 19.6551 13.1615C19.9279 13.4248 20.2325 13.6284 20.5713 13.773C20.4978 13.9898 20.4203 14.1975 20.3378 14.3969ZM17.7852 4.17699C17.7852 4.85012 17.5435 5.47863 17.0617 6.06037C16.4803 6.75194 15.7771 7.15157 15.0145 7.08851C15.0048 7.00775 14.9992 6.92276 14.9992 6.83345C14.9992 6.18724 15.2757 5.49566 15.7667 4.93021C16.0118 4.64391 16.3236 4.40585 16.7016 4.21595C17.0789 4.02888 17.4357 3.92543 17.7713 3.90771C17.7811 3.9977 17.7852 4.0877 17.7852 4.17698V4.17699Z" fill="black"/>
</g>
</g>
<defs>
<clipPath id="clip0">
<rect width="30" height="26.4286" fill="white"/>
</clipPath>
<clipPath id="clip1">
<rect width="11.1429" height="13.4597" fill="white" transform="translate(9.42847 3.90771)"/>
</clipPath>
</defs>
</svg>
