<svg width="39" height="49" viewBox="0 0 39 49" fill="none" xmlns="http://www.w3.org/2000/svg">
<path d="M39.0003 13.0269C39.0003 13.0269 36.2064 35.3916 31.6158 40.4238C26.0965 46.4608 22.0997 45.5777 19.8805 48.6914C17.6557 45.5739 13.6551 46.4608 8.13954 40.42C3.54896 35.3878 0.760742 13.0231 0.760742 13.0231C9.45539 3.94492 19.8805 0.568359 19.8805 0.568359C20.0899 0.779617 30.2212 4.28258 39.0003 13.0269Z" fill="#FFCDDB"/>
<path d="M36.0307 14.8301C36.0307 14.8301 33.6708 33.7215 29.7939 37.9752C25.1348 43.0815 21.7528 42.3317 19.8724 44.9619C17.992 42.3317 14.6119 43.0815 9.95088 37.9752C6.07401 33.7215 3.71973 14.8301 3.71973 14.8301C12.1547 6.01344 19.8724 4.30908 19.8724 4.30908C19.8724 4.30908 28.531 6.85758 36.0307 14.8301Z" fill="#FD3E72"/>
</svg>
