<svg width="173" height="133" viewBox="0 0 173 133" fill="none" xmlns="http://www.w3.org/2000/svg">
<g clip-path="url(#clip0)">
<path d="M67.1133 49.9053L64.0865 51.5171L57.3857 56.6379C57.3857 56.6379 36.8712 59.3618 36.0842 59.9329C35.2973 60.5039 25.093 65.3318 23.712 71.7864C22.331 78.241 19.4971 120.365 19.4971 120.365L23.2201 132.812L97.9494 132.929L115.475 132.681C115.475 132.681 122.206 117.063 122.206 112.768C122.206 108.474 120.238 76.1859 120.238 76.1859L99.2207 61.4695L67.1133 49.9053Z" fill="#FD3E72"/>
<path d="M57.1963 56.333C57.1699 56.3967 57.1342 56.4562 57.0903 56.5096L56.7649 56.9867C56.4698 57.3925 56.0688 57.9974 55.6034 58.7601C55.3764 59.1358 55.1191 59.5641 54.8807 60.0375C54.6423 60.5109 54.3851 61.003 54.124 61.5403C53.5961 62.7095 53.1425 63.9103 52.7657 65.1358C52.1116 67.3748 51.6197 69.6574 51.2939 71.9661C51.1652 72.834 51.0631 73.5441 50.9874 74.0663C50.9534 74.2955 50.9269 74.4871 50.9042 74.6374C50.8982 74.7055 50.883 74.7725 50.8588 74.8365C50.8505 74.7692 50.8505 74.701 50.8588 74.6337C50.8588 74.4796 50.889 74.2918 50.908 74.0588C50.9534 73.5591 51.0328 72.8378 51.1501 71.9474C51.444 69.6233 51.9261 67.3266 52.5917 65.0794C52.9718 63.8459 53.4331 62.6386 53.9727 61.4652C54.2299 60.9279 54.4759 60.4207 54.7294 59.9623C54.9829 59.504 55.2401 59.0794 55.4861 58.6924C55.9742 57.941 56.3904 57.3361 56.7044 56.9454L57.0638 56.4908C57.1014 56.4331 57.1458 56.3801 57.1963 56.333Z" fill="#F03367"/>
<g opacity="0.3">
<path opacity="0.3" d="M57.662 68.7167C57.5372 68.3222 57.3783 67.8751 56.9886 67.7173C56.6859 67.5971 56.8069 67.7925 56.5043 67.9165C53.6666 69.0774 52.2931 71.6735 51.0938 74.619L51.1619 74.5514C51.0758 74.7972 51.0749 75.0645 51.1592 75.3108C51.2435 75.5572 51.4082 75.7686 51.6272 75.9115C52.2667 76.2872 53.0877 76.0805 53.746 75.7424C54.4044 75.4043 55.006 74.9384 55.7248 74.7543C57.2761 74.3598 58.8236 75.4155 59.917 76.5765C61.0105 77.7374 62.0018 79.1275 63.5001 79.7023C60.8967 76.424 58.9183 72.701 57.662 68.7167Z" fill="black"/>
</g>
<path d="M50.8701 74.8371C51.6272 73.0508 52.6389 71.3819 53.8743 69.8815C54.302 69.3841 54.7744 68.9264 55.2855 68.5139C55.8665 68.044 56.551 67.717 57.2833 67.5596H57.3438L57.3665 67.616C57.8395 68.8483 58.3389 70.1896 58.914 71.6022C59.5092 73.1032 60.2175 74.5576 61.0328 75.9529C61.9355 77.4752 63.0288 78.8777 64.2867 80.127C65.639 81.4531 67.1321 82.6297 68.7399 83.6361C69.2885 83.9592 69.8183 84.2973 70.3669 84.5979L72.0052 85.4658H71.9068L74.6385 83.5872L75.9628 82.678C76.4017 82.385 76.8292 82.0844 77.2341 81.7688C78.7615 80.5769 80.1795 79.253 81.4717 77.8126C83.0141 76.6552 84.3309 75.2279 85.3574 73.601C86.146 72.349 86.7368 70.9843 87.1092 69.5546C87.3474 68.6366 87.4969 67.6981 87.5556 66.7519C87.5783 66.425 87.5556 66.1733 87.5821 66.0004C87.6086 65.8276 87.5821 65.7412 87.5821 65.7412C87.5821 65.7412 87.5821 65.8314 87.5821 66.0004C87.5821 66.1695 87.5821 66.4212 87.5821 66.7519C87.5467 67.7048 87.4123 68.6516 87.1811 69.5772C86.8211 71.0221 86.2364 72.4025 85.4482 73.6686C84.4232 75.3184 83.1008 76.7665 81.5473 77.9404C80.2672 79.3813 78.8618 80.7077 77.3476 81.9041C76.9389 82.2234 76.5114 82.524 76.0725 82.8208L74.7482 83.73L72.0165 85.6085L71.9711 85.6424L71.9181 85.6161L70.2685 84.7444C69.7199 84.4401 69.1864 84.0982 68.634 83.7751C67.0139 82.7598 65.5093 81.5731 64.1467 80.2359C62.8809 78.9723 61.7812 77.5546 60.8739 76.0168C60.0564 74.6128 59.3493 73.1482 58.7589 71.636C58.1875 70.2196 57.6957 68.8746 57.2454 67.6423L57.3249 67.6874C56.6144 67.8352 55.9492 68.1481 55.3839 68.6003C54.8746 69.0039 54.4035 69.4529 53.9764 69.9416C53.2995 70.7363 52.6907 71.5858 52.1565 72.4814C51.7139 73.2328 51.3998 73.8076 51.1993 74.2134L50.9685 74.6755C50.9411 74.7324 50.9082 74.7865 50.8701 74.8371Z" fill="#F03367"/>
<path d="M93.1595 65.5869C93.2169 67.5009 93.1259 69.4164 92.8871 71.3164C92.6501 73.3912 92.2645 75.4465 91.7331 77.4668C91.0782 79.95 90.241 82.3823 89.2284 84.7442L89.0846 85.0861L89.0392 84.7104C89.0127 84.4887 88.9938 84.252 88.956 84.0153C88.7748 82.6629 88.4553 81.3323 88.0025 80.0441C87.7869 79.4204 87.5409 78.8193 87.2761 78.2407C87.1437 77.9514 87.0037 77.6696 86.8599 77.3954C86.7303 77.1203 86.5758 76.8574 86.3983 76.6101C86.2363 76.3741 86.0108 76.1879 85.7475 76.0729C85.6204 76.0267 85.4831 76.0153 85.35 76.0397C85.2169 76.0642 85.0929 76.1236 84.9908 76.2119C84.7839 76.4001 84.5916 76.6035 84.4157 76.8205C84.2303 77.0309 84.0373 77.2376 83.8671 77.4442L81.8656 79.6985L78.956 82.9746L78.1577 83.8575L77.9458 84.0829L77.8701 84.1581C77.8701 84.1581 77.8701 84.1243 77.9307 84.0717L78.1274 83.8312L78.8841 82.9258L81.7445 79.6083L83.7271 77.324L84.2719 76.7003C84.4539 76.4732 84.6538 76.2609 84.8697 76.0654C84.9932 75.9598 85.1426 75.8885 85.3027 75.8589C85.4629 75.8292 85.6281 75.8421 85.7816 75.8963C86.0786 76.02 86.3334 76.2261 86.5156 76.4899C86.6999 76.745 86.8619 77.0152 86.9999 77.2977C87.1437 77.5757 87.2837 77.8612 87.4199 78.1543C87.6885 78.7366 87.9382 79.3415 88.1766 79.9727C88.634 81.2718 88.9572 82.6137 89.1414 83.9777C89.1792 84.2182 89.1981 84.4587 89.2246 84.6803L89.0355 84.6503C90.0505 82.3037 90.8951 79.888 91.5629 77.4217C92.0999 75.4096 92.4981 73.3635 92.7547 71.2977C92.9741 69.5393 93.0612 68.1079 93.1028 67.1198C93.1293 66.6276 93.1293 66.2406 93.1406 65.9927C93.1406 65.8724 93.1406 65.7748 93.1406 65.6959C93.1406 65.617 93.1595 65.5869 93.1595 65.5869Z" fill="#F03367"/>
<path d="M64.9408 55.2064C64.9408 55.2064 64.9408 55.2327 64.8841 55.2816L64.7025 55.4844C64.536 55.6535 64.3241 55.9315 64.0365 56.2885C63.2875 57.3329 62.6783 58.4695 62.2242 59.6698C61.5322 61.4341 61.0756 63.2807 60.8659 65.1626C60.6001 67.4659 60.7023 69.7965 61.1686 72.0681C61.4079 73.2432 61.7627 74.3921 62.228 75.4983C62.6514 76.5327 63.1721 77.5252 63.7831 78.4626C64.8253 80.0474 66.1006 81.4683 67.5666 82.678C68.1758 83.2153 68.7963 83.6136 69.3146 83.9968C69.833 84.38 70.3324 84.6392 70.7259 84.8647L71.6453 85.3681L71.8837 85.5034L71.9631 85.5522C71.9631 85.5522 71.9329 85.5522 71.8761 85.5184L71.6302 85.4019L70.6881 84.9097C70.287 84.6956 69.8141 84.3988 69.2541 84.0682C68.6941 83.7375 68.119 83.3167 67.4796 82.7645C65.9856 81.5608 64.6866 80.1366 63.6279 78.5415C63.0083 77.5909 62.4801 76.5846 62.0502 75.5359C61.5781 74.4191 61.2182 73.2588 60.9756 72.0719C60.5028 69.7805 60.4057 67.4284 60.6881 65.1063C60.9071 63.21 61.3805 61.3513 62.0956 59.5796C62.5707 58.3816 63.2071 57.253 63.9874 56.2246C64.2029 55.9477 64.4367 55.6854 64.6873 55.4394C64.763 55.3617 64.8273 55.2978 64.8803 55.2477C64.9143 55.229 64.937 55.2027 64.9408 55.2064Z" fill="#F03367"/>
<path d="M32.7502 91.296C32.7797 91.3293 32.8051 91.3658 32.8259 91.405L33.0264 91.7506L32.9697 91.7694C32.7011 90.5108 31.967 86.6373 31.1309 82.0612C30.6314 79.2396 30.1736 76.6886 29.8407 74.81C29.6893 73.9008 29.5645 73.1532 29.4623 72.6084C29.4283 72.3642 29.398 72.1651 29.3715 72.0073C29.3631 71.9374 29.3631 71.8668 29.3715 71.7969C29.3981 71.8622 29.4171 71.9302 29.4283 71.9998C29.4623 72.1576 29.5039 72.3529 29.5531 72.5934C29.6629 73.1381 29.8066 73.8783 29.9845 74.7837C30.3363 76.6623 30.8093 79.2096 31.3352 82.0236C32.1676 86.6035 32.8486 90.4845 33.0378 91.7619L33.0681 91.9535L32.981 91.7807L32.8032 91.405C32.781 91.371 32.7632 91.3344 32.7502 91.296Z" fill="#F03367"/>
<path d="M31.8385 90.5449C31.7893 90.5674 30.8358 88.6664 29.7083 86.2919C28.5808 83.9174 27.7106 81.9788 27.7598 81.9563C27.809 81.9337 28.7624 83.8348 29.89 86.2092C31.0175 88.5837 31.8877 90.5111 31.8385 90.5449Z" fill="#F03367"/>
<g opacity="0.3">
<path opacity="0.3" d="M31.4492 131.839C33.8215 133.023 39.319 130.934 41.3206 128.33C43.3221 125.726 43.8972 122.341 44.3474 119.095C45.0032 114.203 45.4686 109.292 45.7436 104.36C49.8604 107.332 54.8691 108.834 59.9546 108.62C63.1631 108.478 66.8218 107.212 67.8131 104.176C68.8044 101.14 66.6781 98.0894 64.4874 95.8088C62.3965 93.636 60.1176 91.6497 57.6769 89.8727C56.0765 88.708 54.3209 87.6184 52.3459 87.3892C50.2157 87.1563 48.0629 88.0242 46.4435 89.4181C44.8241 90.8119 43.6929 92.6905 42.8605 94.6516C40.333 100.64 40.4692 107.351 39.9509 113.813C39.4326 120.275 38.7439 126.996 32.9664 131.212" fill="black"/>
</g>
<path d="M31.6045 131.873C31.6565 131.842 31.7109 131.816 31.7672 131.794L32.2439 131.591C32.8259 131.279 33.3693 130.901 33.8633 130.464C35.5939 128.897 37.0682 127.071 38.2333 125.054V125.084C38.5776 122.51 38.99 119.508 39.41 116.315C40.1062 111.25 40.7191 106.663 41.2148 103.353C41.5212 101.719 41.7672 100.389 41.945 99.4531C42.032 99.006 42.1001 98.6491 42.1531 98.3936L42.2098 98.1193C42.2153 98.0872 42.2242 98.0557 42.2363 98.0254C42.243 98.0576 42.243 98.0908 42.2363 98.1231C42.2363 98.1982 42.2136 98.2884 42.1985 98.4011L42.0282 99.4643C41.8655 100.404 41.6499 101.719 41.3585 103.372C40.9121 106.704 40.2954 111.284 39.6143 116.341C39.1754 119.535 38.763 122.536 38.4111 125.11C37.2272 127.137 35.7222 128.961 33.9541 130.513C33.448 130.939 32.89 131.3 32.2931 131.587C32.0812 131.674 31.9147 131.73 31.8012 131.771L31.6045 131.873Z" fill="#263238"/>
<path d="M68.0206 132.681C68.0072 132.641 67.9958 132.601 67.9866 132.56C67.9639 132.474 67.9374 132.357 67.9033 132.211C67.8352 131.899 67.7104 131.46 67.612 130.847C67.3094 129.164 67.1348 127.461 67.0899 125.753C67.03 123.219 67.1666 120.684 67.4985 118.171C67.8466 115.33 68.4255 112.238 69.099 109.011C69.7724 105.784 70.5556 102.733 71.214 99.9528C71.8392 97.5034 72.2456 95.0041 72.4285 92.4838C72.5263 90.7834 72.4629 89.0778 72.2393 87.3892C72.175 86.7881 72.0729 86.3297 72.0274 86.0141L71.9745 85.6572C71.9693 85.616 71.9693 85.5744 71.9745 85.5332C71.9875 85.5725 71.9976 85.6127 72.0047 85.6534C72.0237 85.7436 72.0502 85.8601 72.0804 86.0291C72.1334 86.341 72.2507 86.7805 72.3264 87.3967C72.5795 89.0888 72.6644 90.8015 72.5799 92.5101C72.4163 95.0449 72.0225 97.5598 71.4032 100.024C70.7524 102.812 69.9465 105.848 69.3033 109.079C68.6601 112.31 68.0471 115.391 67.6877 118.223C67.3488 120.727 67.1996 123.253 67.2412 125.779C67.2731 127.483 67.4261 129.183 67.699 130.866C67.786 131.463 67.8996 131.918 67.9525 132.23C67.979 132.38 68.0017 132.496 68.0169 132.587C68.0214 132.618 68.0227 132.649 68.0206 132.681Z" fill="#F03367"/>
<path d="M74.389 90.3163C74.3436 90.2862 74.9943 89.2493 75.7208 87.9305C76.4472 86.6118 76.9731 85.511 77.0261 85.5335C76.9688 85.7948 76.8772 86.0474 76.7537 86.285C76.5569 86.7433 76.258 87.3595 75.891 88.0207C75.524 88.682 75.1646 89.2681 74.8846 89.6776C74.7498 89.9121 74.583 90.127 74.389 90.3163Z" fill="#F03367"/>
<g opacity="0.3">
<path opacity="0.3" d="M75.611 88.7569C77.5832 86.4636 79.7189 84.314 82.0015 82.3248C82.6258 81.7801 83.303 81.2278 84.1241 81.0925C85.1229 80.931 86.1407 81.4419 86.8331 82.1746C87.485 82.9491 88.0063 83.8233 88.3768 84.7632C89.3681 82.3399 88.339 79.6122 87.3174 77.204C86.9845 76.4187 86.4094 75.4907 85.5618 75.6147C85.1173 75.7377 84.7312 76.0133 84.4722 76.3924C81.1921 80.1709 78.1591 84.154 75.3916 88.3174" fill="black"/>
</g>
<g opacity="0.3">
<path opacity="0.3" d="M108.876 70.858L109.016 69.667C107.575 69.806 105.804 69.9751 104.654 70.8467C103.31 71.8611 102.762 73.5931 102.331 75.2087C101.301 78.8868 104.222 97.8036 104.071 101.617C105.346 101.076 106.247 92.957 106.474 91.6007C107.034 88.287 105.902 86.2206 106.247 85.3001C106.591 84.3796 106.579 83.369 106.606 82.3884C106.731 78.0002 107.17 74.9119 108.876 70.858Z" fill="black"/>
</g>
<path d="M90.0675 10.1439C88.2362 7.88964 88.8378 4.28662 90.9339 2.27283C93.03 0.259046 96.2309 -0.319541 99.0951 0.157605C101.181 0.524483 103.15 1.37651 104.841 2.644C106.531 3.91148 107.896 5.55841 108.823 7.45006C109.806 9.49391 110.336 11.9135 112.141 13.3073C113.722 14.5284 115.902 14.6373 117.703 15.5127C120.117 16.6887 121.675 19.1984 122.243 21.8133C122.81 24.4282 122.462 27.1446 121.906 29.7557C121.395 32.1527 120.714 34.7451 121.751 36.9693C122.761 39.1371 125.122 40.3206 126.67 42.1428C129.598 45.5767 128.94 51.4152 125.311 54.1128C124.157 54.9731 122.697 55.6156 122.145 56.9494C121.641 58.1591 122.069 59.5342 122.042 60.8417C121.978 64.223 118.236 66.9807 114.963 66.1016C113.314 65.6507 111.793 64.4372 110.094 64.6701C108.395 64.9031 107.283 66.4472 105.932 67.4466C104.553 68.3992 102.886 68.8522 101.211 68.7297C99.5359 68.6073 97.9539 67.9168 96.7303 66.7741C95.739 65.7935 94.9407 64.456 93.5862 64.0991C92.2317 63.7421 90.809 64.5161 89.4243 64.3282C87.6119 64.0803 86.4201 62.2919 85.8828 60.5712C85.3456 58.8504 85.2056 56.9456 84.2975 55.3676C83.1133 53.2975 80.8582 52.129 78.9589 50.6713C76.858 49.0587 75.1304 47.0167 73.8932 44.6836C72.6559 42.3505 71.9379 39.7807 71.7875 37.1481C71.6372 34.5155 72.0582 31.8816 73.0219 29.4245C73.9857 26.9675 75.4697 24.7447 77.3736 22.9066" fill="#5B5863"/>
<path d="M64.699 55.2285C62.9021 57.3121 61.6296 59.7898 60.9862 62.4575C60.3429 65.1253 60.3471 67.9066 60.9986 70.5724C62.3456 75.8773 66.814 83.6244 71.971 85.548C75.3157 83.1172 79.61 79.7171 82.7315 77.0045C84.7481 75.2461 85.8189 72.6801 86.8177 70.2079C87.3928 68.7802 87.9793 67.2398 87.6198 65.7445C87.3512 64.6475 86.6021 63.727 85.8113 62.9117C83.2421 60.3071 80.0856 58.347 76.6027 57.1933C73.1198 56.0396 69.4104 55.7254 65.7811 56.2767" fill="#FFA68A"/>
<path d="M80.0033 17.0458C80.9339 15.1716 82.4848 13.6718 84.3962 12.7977C86.3076 11.9236 88.4635 11.7282 90.5027 12.2442L103.408 15.5129C109.859 17.5793 114.91 27.4904 111.108 36.1767C108.104 43.0334 105.028 51.6521 101.944 56.3822C95.7391 65.8988 87.2564 63.7235 87.2564 63.7235L82.6783 73.8676L63.9609 56.4386L80.0033 17.0458Z" fill="#FFA68A"/>
<path d="M87.2377 63.7453C87.2377 63.7453 79.7614 60.9613 74.7217 53.8379C74.7217 53.8379 75.0054 62.5355 86.0951 66.2925L87.2377 63.7453Z" fill="#D37A57"/>
<path d="M68.967 11.707C67.9666 12.4827 67.1644 13.4815 66.6254 14.6225C66.0864 15.7636 65.8257 17.0146 65.8645 18.2744C65.9212 19.6758 66.2655 21.3364 65.225 22.2869C64.1846 23.2375 62.4933 22.734 61.0631 22.7415C59.8067 22.7865 58.606 23.2675 57.6699 24.1009C56.7338 24.9343 56.1217 26.0673 55.9402 27.3026C55.838 28.1893 55.9401 29.1511 55.4975 29.9325C55.0548 30.714 54.0749 31.0935 53.2727 31.5744C52.2721 32.1761 51.4483 33.0284 50.8839 34.0458C50.3195 35.0633 50.0343 36.2101 50.0569 37.3715C50.0795 38.5329 50.4091 39.668 51.0127 40.663C51.6163 41.6581 52.4727 42.4781 53.496 43.0409C54.4229 43.5519 55.505 43.8712 56.1823 44.679C56.939 45.607 56.9844 46.9333 57.3666 48.0604C57.7337 49.1666 58.4409 50.1307 59.3887 50.8169C60.3366 51.5031 61.4772 51.8768 62.6502 51.8856C63.8231 51.8943 64.9693 51.5375 65.9274 50.8655C66.8854 50.1934 67.6071 49.2399 67.9908 48.1393" fill="#5B5863"/>
<path d="M89.8901 8.11157C89.5092 9.21379 89.3775 10.3858 89.5045 11.5443C89.6315 12.7028 90.014 13.8193 90.6248 14.8143C91.2357 15.8093 92.0598 16.6585 93.0386 17.3013C94.0175 17.9441 95.1269 18.3649 96.2881 18.5337C98.0815 18.7967 100.223 18.5712 101.381 19.9538C102.599 21.4116 101.876 23.7372 102.841 25.3715C104.215 27.7084 106.564 29.5719 108.789 31.1311C110.511 32.3371 108.543 35.6959 109.292 37.6496C110.041 39.6033 113.125 44.0591 115.229 44.138C115.69 42.391 118.308 34.7191 118.354 32.9119C118.399 31.1048 117.976 29.2338 116.863 27.8136C116.246 27.0359 115.437 26.416 114.903 25.5594C113.749 23.756 114.147 21.4266 113.768 19.3114C113.514 17.9526 112.938 16.6735 112.086 15.5804C111.235 14.4872 110.133 13.6114 108.872 13.0258C106.769 12.0753 104.309 11.9701 102.368 10.7227C100.934 9.806 99.909 8.33323 98.4221 7.49917C95.5276 5.87612 91.903 7.12346 88.9102 8.5549" fill="#5B5863"/>
<path d="M75.9555 29.9511C75.6566 29.752 73.6854 31.2435 75.6301 32.4345C79.0618 34.5197 82.0092 27.479 81.8806 25.1383C83.6286 24.3869 85.3993 23.658 86.9392 22.5084C88.4791 21.3587 90.7795 17.534 91.1844 15.6142C92.4973 16.1402 98.8423 16.189 98.2899 15.8133C97.0376 14.9529 94.5064 13.1045 94.1696 11.6617C93.4394 8.52459 91.1957 5.79697 88.2294 4.97793C86.6827 4.58924 85.0508 4.70864 83.5782 5.31822C82.1055 5.92781 80.8714 6.99477 80.0607 8.35928C76.5306 7.20211 72.346 8.24281 69.531 10.9892C68.1232 12.3987 67.0818 14.127 66.4965 16.0251C65.9112 17.9232 65.7995 19.9342 66.1712 21.8847C66.3793 22.8841 66.7198 23.9248 66.3982 24.9167C65.9972 26.1452 64.7561 26.7952 63.7686 27.603C61.0785 29.7708 59.917 33.6143 60.2499 37.0557C60.5829 40.4972 61.1769 41.8873 62.8984 43.1384C66.2696 45.5843 59.2624 51.8285 65.5469 53.9362" fill="#5B5863"/>
<path d="M122.807 53.8194C122.807 53.7931 123.031 53.6654 123.398 53.3197C123.939 52.8259 124.37 52.2242 124.661 51.5539C125.142 50.5044 125.267 49.3285 125.017 48.2026C124.722 46.8951 123.727 45.6478 122.395 44.5845C121.063 43.5213 119.402 42.4919 118.199 40.7561C116.996 39.0203 116.78 36.6233 117.166 34.3691C117.552 32.1149 118.502 29.8606 119.118 27.4862C119.448 26.2933 119.605 25.0598 119.584 23.823C119.572 22.5631 119.231 21.3278 118.593 20.2388C117.903 19.1877 116.926 18.3527 115.778 17.8305C114.65 17.305 113.452 16.9419 112.221 16.7522C110.994 16.6126 109.78 16.3815 108.589 16.0609C107.991 15.9033 107.432 15.626 106.946 15.2461C106.46 14.8662 106.057 14.3917 105.762 13.8518C105.214 12.7773 105.093 11.6351 104.854 10.6057C104.669 9.60264 104.249 8.65682 103.628 7.84423C102.476 6.3927 100.827 5.41254 98.9936 5.0903C97.4762 4.83985 95.9183 5.02899 94.5063 5.63508C93.4356 6.09188 92.4516 6.72723 91.5967 7.51361C90.8807 8.19935 90.2355 8.95452 89.6709 9.76784C89.6709 9.76784 89.6709 9.70397 89.7541 9.58751C89.8425 9.41608 89.9398 9.2493 90.0455 9.08782C90.4469 8.45938 90.9205 7.87941 91.4567 7.35957C92.3093 6.52952 93.3017 5.85431 94.389 5.36457C95.8472 4.71046 97.466 4.49369 99.0466 4.7409C100.978 5.05587 102.724 6.07048 103.946 7.58875C104.611 8.44333 105.064 9.44054 105.271 10.5005C105.52 11.5562 105.649 12.6683 106.16 13.6339C106.429 14.119 106.796 14.5443 107.237 14.8835C107.678 15.2227 108.184 15.4687 108.725 15.6063C109.897 15.9119 111.089 16.1341 112.293 16.2713C113.573 16.4688 114.818 16.8484 115.989 17.3984C117.226 17.9641 118.276 18.867 119.016 20.0021C119.699 21.1648 120.064 22.4845 120.076 23.8305C120.098 25.1132 119.935 26.3924 119.591 27.6289C118.952 30.0485 117.991 32.2501 117.616 34.4668C117.242 36.6834 117.416 38.9039 118.54 40.5419C119.663 42.18 121.317 43.1907 122.622 44.3291C123.927 45.4674 125.002 46.7561 125.289 48.1538C125.527 49.3348 125.369 50.5607 124.839 51.6441C124.52 52.3262 124.051 52.9285 123.466 53.4061C123.267 53.5746 123.046 53.7138 122.807 53.8194Z" fill="#737079"/>
<path d="M111.203 31.1348C111.245 31.1348 111.018 31.672 110.787 32.6376C110.47 34.0263 110.426 35.4625 110.655 36.868C110.806 37.834 111.093 38.7738 111.51 39.6595C112.01 40.6702 112.633 41.6165 113.364 42.4773C113.761 42.975 114.1 43.5157 114.374 44.0891C114.662 44.7132 114.784 45.3999 114.73 46.0841C114.62 47.478 113.927 48.7141 113.413 49.9839C112.898 51.2538 112.569 52.5763 113.065 53.741C113.56 54.9057 114.461 55.7848 115.312 56.6302C116.185 57.4063 116.934 58.3095 117.533 59.309C118.031 60.2293 118.166 61.3009 117.912 62.3146C117.737 63.0371 117.404 63.7123 116.935 64.2917C116.467 64.8711 115.875 65.3404 115.203 65.6659C114.836 65.8293 114.447 65.9357 114.049 65.9815C113.911 66.0064 113.77 66.0064 113.632 65.9815C114.145 65.8738 114.643 65.71 115.119 65.4931C115.737 65.155 116.275 64.6898 116.697 64.1287C117.119 63.5676 117.416 62.9235 117.567 62.2395C117.788 61.3054 117.653 60.3232 117.189 59.4818C116.594 58.5299 115.859 57.6713 115.01 56.9345C114.154 56.0967 113.159 55.1988 112.63 53.8988C112.37 53.2477 112.282 52.5418 112.372 51.8474C112.481 51.1457 112.682 50.461 112.97 49.8111C113.504 48.5187 114.162 47.3127 114.26 46.0541C114.359 44.7954 113.727 43.6984 113.012 42.7554C112.27 41.8638 111.645 40.883 111.15 39.8361C110.736 38.9111 110.457 37.9318 110.322 36.9282C110.114 35.4796 110.215 34.0039 110.617 32.5963C110.72 32.2101 110.856 31.8331 111.022 31.4691C111.065 31.3492 111.126 31.2365 111.203 31.1348Z" fill="#455A64"/>
<path d="M54.4346 42.9286C54.4346 42.9286 54.3514 42.8835 54.2152 42.7708C54.0157 42.6024 53.832 42.4162 53.6666 42.2147C53.0274 41.4454 52.5952 40.5276 52.4104 39.5472C52.2522 38.779 52.2538 37.9868 52.4152 37.2192C52.5766 36.4517 52.8943 35.725 53.3488 35.0838C53.9483 34.2523 54.7457 33.5811 55.67 33.1301C56.5943 32.6791 57.6166 32.4622 58.6458 32.4989L58.4377 32.7732C57.9507 31.5298 57.7329 30.1984 57.7982 28.8659C57.8367 28.1304 58.038 27.4123 58.3879 26.7629C58.7378 26.1135 59.2276 25.5487 59.8225 25.1088C60.4618 24.6325 61.2366 24.3694 62.0359 24.3574C62.8365 24.4055 63.6173 24.6246 64.3249 24.9999C64.9921 25.3591 65.7029 25.6318 66.4399 25.8114C66.7967 25.8793 67.1647 25.8611 67.513 25.7585C67.8613 25.6558 68.1797 25.4717 68.4414 25.2215C69.2147 24.4274 69.6578 23.3728 69.6824 22.2685C69.7695 21.1639 69.6635 20.0368 69.777 18.9134C70.0145 16.7515 71 14.7385 72.5655 13.2177C73.9625 11.8708 75.7585 11.0054 77.6885 10.7493C79.3168 10.5252 80.9758 10.7326 82.4974 11.3504L82.2855 11.4331C82.8303 10.352 83.757 9.50809 84.8886 9.0624C85.7186 8.72635 86.6189 8.59736 87.5106 8.68669C88.0654 8.7435 88.6052 8.90009 89.1035 9.14881C89.2749 9.23466 89.4361 9.33925 89.584 9.46065C88.9314 9.13468 88.223 8.93332 87.4955 8.86703C86.6366 8.81487 85.7776 8.9682 84.9908 9.31412C83.9386 9.75703 83.0846 10.565 82.5882 11.5871L82.5201 11.7299L82.3726 11.6698C80.9013 11.1019 79.3062 10.9257 77.7452 11.1588C75.9165 11.4133 74.2179 12.2428 72.8985 13.5258C71.4216 14.979 70.4954 16.8941 70.2765 18.9472C70.1667 20.0067 70.2765 21.1263 70.1894 22.291C70.1563 23.5198 69.6578 24.691 68.7933 25.5709C68.475 25.8698 68.0901 26.0898 67.67 26.2132C67.2499 26.3366 66.8064 26.3598 66.3756 26.281C65.5931 26.0962 64.8387 25.8095 64.1319 25.4282C63.4898 25.0817 62.7801 24.8767 62.051 24.827C61.3528 24.8346 60.6753 25.0636 60.1176 25.4808C59.5723 25.8799 59.1232 26.3944 58.8026 26.987C58.4819 27.5795 58.2979 28.2354 58.2636 28.9072C58.1949 30.1771 58.392 31.4475 58.8425 32.638L58.9447 32.9348L58.6458 32.9122C57.6771 32.8668 56.712 33.0594 55.8362 33.4729C54.9604 33.8865 54.2009 34.5082 53.625 35.2829C53.1852 35.8856 52.8729 36.5705 52.7071 37.2963C52.5413 38.0221 52.5253 38.7738 52.6602 39.5059C52.8213 40.46 53.2105 41.3619 53.7952 42.1358C54.1736 42.6731 54.4536 42.9023 54.4346 42.9286Z" fill="#737079"/>
<path d="M89.7348 10.9406C89.7575 11.027 88.997 10.9067 88.0284 11.598C87.0598 12.2893 86.2236 13.9237 85.9777 16.0088L85.955 16.1892H85.7772C84.7343 16.1221 83.6898 16.2943 82.7247 16.6924C81.7596 17.0904 80.8997 17.7037 80.2115 18.4847C79.8296 18.932 79.5264 19.4401 79.3148 19.9876C79.1339 20.5812 79.0072 21.1898 78.9365 21.806C78.8568 22.4702 78.7304 23.128 78.5581 23.7747C78.3645 24.4841 77.9369 25.1085 77.3436 25.548C76.0874 26.5211 74.5437 26.6751 73.1816 26.9043C71.875 27.0166 70.5963 27.3442 69.3981 27.8736C67.397 28.836 65.839 30.5174 65.0394 32.5775C64.5071 33.9746 64.3291 35.4804 64.5211 36.962C64.6573 38.014 64.8805 38.57 64.8351 38.585C64.7549 38.4696 64.6925 38.343 64.6497 38.2093C64.5105 37.8192 64.4042 37.4184 64.3319 37.0108C64.0582 35.4923 64.1887 33.9291 64.7102 32.476C65.5019 30.2889 67.1173 28.4921 69.2165 27.4641C70.3818 26.8592 71.7628 26.6113 73.1249 26.4197C74.487 26.228 75.9361 26.0214 77.0333 25.1723C78.1154 24.4209 78.2327 22.9932 78.4408 21.7459C78.5208 21.0981 78.6613 20.4591 78.8608 19.8373C79.098 19.2419 79.433 18.6896 79.8521 18.203C80.5893 17.3719 81.5123 16.7239 82.5471 16.3109C83.582 15.8979 84.6999 15.7314 85.8112 15.8247L85.6107 15.9901C85.9134 13.8185 86.8366 12.1353 87.9111 11.4478C88.3071 11.1793 88.7628 11.0104 89.2391 10.9556C89.4026 10.9258 89.5697 10.9207 89.7348 10.9406Z" fill="#737079"/>
<path d="M76.686 31.022C77.7643 28.9218 76.3076 26.2806 73.9429 26.2881C72.6375 26.2881 71.2376 26.9907 70.0723 29.2111C66.9697 35.1247 73.5872 36.9995 73.6856 36.8191C73.7461 36.7327 75.4222 33.4791 76.686 31.022Z" fill="#FFA68A"/>
<path d="M73.0417 33.6519C73.0417 33.6219 72.9017 33.6707 72.6633 33.6519C72.3634 33.631 72.083 33.4965 71.8801 33.2762C71.3731 32.7202 71.3618 31.4541 71.8801 30.372C72.1286 29.8566 72.4922 29.4044 72.9433 29.0495C73.0966 28.8948 73.2857 28.7796 73.4941 28.7142C73.7025 28.6487 73.9239 28.6348 74.1389 28.6738C74.2742 28.7043 74.3947 28.7806 74.4796 28.8896C74.5645 28.9985 74.6086 29.1335 74.6043 29.2712C74.6043 29.4778 74.4983 29.5755 74.521 29.6018C74.5438 29.6281 74.7027 29.5718 74.7821 29.3013C74.8257 29.1377 74.8123 28.9642 74.7443 28.8091C74.6444 28.6014 74.4664 28.4408 74.2486 28.362C73.977 28.286 73.6903 28.2807 73.416 28.3465C73.1416 28.4123 72.889 28.547 72.6822 28.7377C72.184 29.1173 71.7823 29.6075 71.5093 30.1691C70.9229 31.3789 70.9531 32.7991 71.6834 33.5054C71.8182 33.635 71.9808 33.7324 72.1591 33.7903C72.3374 33.8483 72.5267 33.8652 72.7125 33.8398C72.9546 33.791 73.0568 33.6745 73.0417 33.6519Z" fill="#D37A57"/>
<path d="M70.7528 113.155C70.2269 112.186 68.861 111.588 68.861 111.588L67.726 108.827C67.9966 108.131 67.9966 107.359 67.726 106.663C67.2757 105.468 63.9651 98.525 64.0408 98.3033L63.1857 98.2507C63.1857 98.2507 66.2352 105.6 66.5341 105.972C66.833 106.343 67.2909 108.53 66.5341 108.831C65.7774 109.131 64.1845 108.32 63.5073 107.647C62.83 106.975 60.6772 101.921 60.3026 100.884C59.928 99.8475 60.5939 98.3822 60.5939 98.3822L61.1955 96.9658H60.3707C60.0408 97.9205 59.7641 98.8926 59.5421 99.8775C59.2432 101.294 62.6257 107.489 63.1516 108.162C63.6775 108.834 65.4823 109.357 66.4585 110.04C67.4346 110.724 67.2871 112.802 67.2871 112.802C66.7777 113.533 66.4663 114.382 66.3828 115.266C66.3071 116.608 69.3151 122.953 71.3431 124.283C73.3711 125.613 75.7812 124.659 76.0044 124.731C76.2277 124.802 76.7611 123.686 76.7611 123.686C76.7611 123.686 71.2787 114.128 70.7528 113.155ZM73.5262 124.253C72.4188 124.105 71.4153 123.529 70.7339 122.649C70.488 122.326 67.8546 117.765 67.5141 116.931C66.9239 115.454 67.3325 114.635 67.5481 113.767C67.8622 112.513 69.8183 113.249 69.8183 113.249C69.8183 113.249 75.5769 123.126 75.4444 123.431C75.312 123.735 74.6045 124.336 73.5224 124.253H73.5262Z" fill="#263238"/>
<path d="M76.7647 123.683C76.7647 123.683 93.5296 117.345 94.3128 116.627C95.096 115.909 97.9262 111.784 97.9262 111.784C97.9262 111.784 99.3109 112.025 99.1293 112.382C98.9477 112.738 96.2992 116.867 93.454 118.062C90.6087 119.257 76.0117 124.735 76.0117 124.735L76.7647 123.683Z" fill="#263238"/>
<path d="M23.7117 71.4785L16.8066 111.022C16.8066 111.022 14.2641 118.716 14.6273 120.414C14.9905 122.112 16.2694 129.345 20.1475 131.629C24.0257 133.913 31.695 132.422 33.269 130.859C34.8429 129.296 37.9455 126.433 38.3087 125.111C38.6719 123.788 41.2183 103.695 41.2183 103.695L42.2285 98.0597C42.2285 98.0597 38.4752 99.262 36.1748 97.684C33.8743 96.1061 30.8475 89.3809 30.8475 89.3809L27.4423 94.5506L23.7117 71.4785Z" fill="#FD3E72"/>
<path d="M30.8477 89.3799C30.8144 89.4601 30.7712 89.5358 30.7191 89.6053L30.3066 90.2215C29.951 90.7587 29.4364 91.5364 28.8197 92.5058C27.5787 94.4406 25.9215 97.1532 24.1092 100.159C22.2968 103.165 20.6585 105.896 19.444 107.85C18.8386 108.826 18.3392 109.615 17.9836 110.153C17.8171 110.408 17.6771 110.611 17.5711 110.769C17.5281 110.844 17.476 110.913 17.416 110.975C17.451 110.896 17.4927 110.819 17.5409 110.746L17.9192 110.111L19.3267 107.778L23.9389 100.057C25.7512 97.0518 27.4311 94.3505 28.7024 92.4306C29.338 91.4688 29.8678 90.7024 30.2461 90.1764C30.4277 89.9284 30.5715 89.7293 30.685 89.579C30.734 89.5086 30.7884 89.442 30.8477 89.3799Z" fill="#F03367"/>
<path d="M41.3624 102.887C41.3199 102.947 41.2717 103.002 41.2187 103.052C41.1165 103.154 40.9803 103.312 40.776 103.492C40.2123 104.009 39.5749 104.441 38.8842 104.773C38.4032 104.998 37.8943 105.158 37.3708 105.25C36.7639 105.36 36.1435 105.375 35.532 105.295C34.858 105.207 34.1989 105.03 33.5721 104.769C32.9075 104.483 32.2737 104.13 31.6803 103.717C31.0954 103.287 30.5588 102.796 30.0798 102.252C29.65 101.738 29.2699 101.184 28.9448 100.599C28.3948 99.6012 28.0115 98.5214 27.8097 97.4017C27.6687 96.6489 27.6167 95.8822 27.6546 95.1174C27.6546 94.8507 27.7 94.6403 27.7113 94.5013C27.715 94.4286 27.7277 94.3567 27.7492 94.2871C27.7571 94.5653 27.7508 94.8436 27.7302 95.1212C27.7239 95.878 27.7961 96.6334 27.9459 97.3754C28.1668 98.474 28.56 99.5314 29.1112 100.509C29.4405 101.081 29.8203 101.623 30.2463 102.128C30.72 102.656 31.2461 103.136 31.8165 103.56C32.4026 103.964 33.0274 104.31 33.6818 104.593C34.287 104.847 34.9229 105.023 35.5736 105.115C36.1666 105.199 36.7692 105.19 37.3594 105.089C37.8818 105.009 38.3909 104.86 38.8729 104.645C39.5652 104.332 40.2097 103.923 40.7873 103.432C41.1354 103.082 41.3473 102.876 41.3624 102.887Z" fill="#EA1F56"/>
<path d="M30.8477 89.3806L36.016 86.0819C36.016 86.0819 49.7882 80.5252 51.1881 80.2059C52.5881 79.8865 54.215 79.2441 54.9717 80.2059C55.7284 81.1677 63.5642 86.8296 63.5642 86.8296C63.5642 86.8296 68.1915 95.4708 68.1915 96.6618C68.1915 97.8528 69.4817 99.3406 68.1915 99.7652L66.9013 100.19C66.9013 100.19 66.47 102.282 64.8544 102.519C63.2388 102.756 62.7015 102.519 62.7015 102.519C62.7015 102.519 62.5956 104.616 61.3054 104.484C60.0152 104.353 57.8624 102.519 57.8624 102.519C57.8624 102.519 56.8938 103.609 56.137 103.609C55.3803 103.609 53.0194 102.004 53.0194 102.004L48.4299 98.0594L44.3966 96.6693L42.2173 98.0444C42.2173 98.0444 37.5748 98.4351 36.8749 98.0594C36.1749 97.6837 30.8477 89.3806 30.8477 89.3806Z" fill="#FFA68A"/>
<path d="M57.298 102.887C57.2006 102.693 57.1208 102.491 57.0596 102.282C56.9915 102.083 56.9045 101.843 56.7872 101.572C56.6699 101.302 56.5564 100.982 56.3899 100.648C56.2234 100.314 56.0607 99.938 55.8489 99.5548C55.637 99.1716 55.3986 98.7658 55.1451 98.345C54.5711 97.4433 53.9299 96.5856 53.2268 95.779C52.5123 94.9811 51.7396 94.2364 50.9151 93.551C50.5367 93.2467 50.1584 92.9499 49.78 92.7019C49.4017 92.454 49.0801 92.2248 48.7622 92.0257C48.4444 91.8265 48.1455 91.6499 47.8882 91.5147C47.6309 91.3794 47.4039 91.2479 47.2148 91.139C47.0155 91.0494 46.8232 90.9452 46.6396 90.8271C46.8489 90.8925 47.0525 90.9741 47.2488 91.0714C47.4418 91.154 47.6763 91.2592 47.9412 91.402C48.206 91.5447 48.5125 91.6913 48.8341 91.8942C49.1557 92.097 49.5114 92.2999 49.8746 92.5554C50.2378 92.8109 50.6313 93.0927 51.0097 93.397C52.7025 94.7533 54.1475 96.389 55.2813 98.2323C55.5348 98.6644 55.7807 99.0664 55.9737 99.4646C56.1667 99.8629 56.3521 100.216 56.4996 100.592C56.6472 100.967 56.7645 101.253 56.878 101.531C56.9714 101.77 57.0522 102.013 57.1201 102.26C57.1934 102.465 57.2528 102.674 57.298 102.887Z" fill="#D37A57"/>
<path d="M62.6934 102.755C62.6934 102.755 62.648 102.703 62.5761 102.59C62.5042 102.477 62.3982 102.316 62.281 102.094C61.9526 101.468 61.6718 100.819 61.441 100.151C61.1421 99.3099 60.8508 98.273 60.5102 97.1458C60.1701 95.9211 59.6823 94.7416 59.0574 93.633C58.3936 92.5488 57.5128 91.6115 56.4694 90.8791C55.5159 90.1878 54.5965 89.6317 53.8966 89.0644C53.3278 88.6326 52.8344 88.1109 52.4361 87.5202C52.3316 87.3588 52.2405 87.1892 52.1637 87.013C52.1292 86.9549 52.1049 86.8914 52.0918 86.8252C52.0918 86.8252 52.2167 87.0732 52.5004 87.4789C52.9164 88.0431 53.4165 88.541 53.9836 88.9554C54.6873 89.504 55.6067 90.045 56.5753 90.7325C57.6465 91.4703 58.5489 92.4241 59.2238 93.5315C59.8581 94.6551 60.3488 95.8528 60.6843 97.097C61.0172 98.2241 61.2897 99.2536 61.5734 100.103C61.7842 100.769 62.0369 101.422 62.3301 102.056C62.4631 102.283 62.5844 102.516 62.6934 102.755Z" fill="#D37A57"/>
<path d="M66.5905 100.28C66.5625 100.22 66.5421 100.157 66.5299 100.092C66.4959 99.9492 66.4543 99.7689 66.4013 99.551C66.3483 99.3331 66.284 99.0287 66.1856 98.7019C66.0873 98.375 66.004 97.9955 65.8565 97.5747C65.7089 97.154 65.5765 96.7181 65.3835 96.2523C65.1906 95.7864 64.9787 95.2867 64.7479 94.7494C64.212 93.6382 63.5975 92.566 62.9091 91.5409C62.2025 90.5275 61.4236 89.5657 60.5784 88.663C60.2 88.261 59.8217 87.8665 59.4433 87.5359C59.065 87.2053 58.7131 86.8859 58.3763 86.6116C58.0396 86.3374 57.7294 86.1044 57.4569 85.8978C57.1845 85.6912 56.9424 85.5221 56.7381 85.3868L56.2802 85.0675C56.2248 85.034 56.174 84.9936 56.1289 84.9473C56.1911 84.9687 56.2497 84.999 56.3029 85.0374L56.7835 85.323C56.9916 85.447 57.2413 85.6047 57.5213 85.8076C57.8012 86.0105 58.1304 86.2247 58.4634 86.5027C58.7963 86.7807 59.1785 87.07 59.553 87.4157C59.9276 87.7613 60.3097 88.1408 60.7297 88.5428C61.5889 89.4467 62.3781 90.4138 63.0907 91.4357C63.7861 92.4683 64.4008 93.5522 64.9295 94.6781C65.1603 95.2003 65.3873 95.6962 65.5538 96.1809C65.7203 96.6655 65.8829 97.1089 66.0078 97.5222C66.1327 97.9354 66.2273 98.3149 66.3143 98.6493C66.4013 98.9837 66.458 99.2729 66.4959 99.5096C66.5337 99.7463 66.564 99.9116 66.5905 100.058C66.6024 100.132 66.6024 100.206 66.5905 100.28Z" fill="#D37A57"/>
<path d="M46.3035 85.691C46.3035 85.7248 46.0348 85.7661 45.6375 85.9352C45.1193 86.152 44.6678 86.5006 44.3284 86.9458C43.989 87.391 43.7737 87.9171 43.7041 88.4712C43.6474 88.8957 43.6814 89.17 43.6474 89.1738C43.5612 88.9449 43.5339 88.6982 43.5679 88.4562C43.6002 87.8649 43.8098 87.2968 44.1699 86.8247C44.5299 86.3527 45.0239 85.9984 45.5884 85.8074C45.8132 85.71 46.059 85.67 46.3035 85.691Z" fill="#D37A57"/>
<path d="M50.14 82.0732C50.1703 82.1221 49.5044 82.5429 48.846 83.2379C48.1877 83.933 47.7942 84.6168 47.7412 84.5867C48.1953 83.48 49.0514 82.5829 50.14 82.0732Z" fill="#D37A57"/>
<path d="M104.136 37.4577C103.481 37.7245 103.349 38.5022 103.36 39.2048C103.36 40.0839 103.595 40.2267 104.317 41.7032C105.502 44.1115 106.917 48.6763 106.917 48.6763C106.917 48.6763 105.755 60.2105 106.519 62.9193C106.732 63.638 107.119 64.2938 107.647 64.8291C108.175 65.3643 108.827 65.7626 109.546 65.9889L108.487 74.9006H121.158C121.158 74.9006 120.708 66.2594 120.435 63.6294C120.148 60.8492 120.337 44.0363 120.337 44.0363L119.092 35.057L116.156 30.0563C115.709 30.3425 115.378 30.7753 115.22 31.2792C115.061 31.7832 115.086 32.3263 115.29 32.814C115.952 34.6625 116.387 38.2054 116.387 38.2054L109.043 27.2197C109.043 27.2197 107.601 27.5616 107.53 30.2254C107.53 30.2254 105.396 31.6042 106.773 33.8397C108.305 36.3381 109.902 43.8485 109.342 43.8485L104.768 37.1947L104.136 37.4577Z" fill="#FFA68A"/>
<path d="M108.475 74.9009C108.475 74.9009 108.475 74.698 108.532 74.3072C108.589 73.9165 108.642 73.3379 108.725 72.5827C108.899 71.0799 109.156 68.8257 109.482 65.9853L109.516 66.0379C108.925 65.8482 108.378 65.5457 107.904 65.1475C107.382 64.7197 106.967 64.1768 106.693 63.562C106.421 62.8934 106.27 62.1825 106.247 61.4618C106.205 60.7104 106.186 59.959 106.194 59.17C106.228 56.0179 106.474 52.4937 106.833 48.6503V48.6841C106.239 46.8281 105.581 44.8707 104.756 42.8869C104.548 42.391 104.328 41.8988 104.079 41.4104C103.802 40.9268 103.559 40.4247 103.352 39.9076C103.283 39.6275 103.252 39.3393 103.261 39.051C103.261 38.7582 103.304 38.467 103.39 38.1868C103.472 37.8882 103.66 37.6292 103.92 37.458C104.05 37.3865 104.185 37.325 104.325 37.2739L104.726 37.1086L104.794 37.0785L104.835 37.1386L109.587 44.0591L109.413 44.0929C109.476 43.5155 109.468 42.9328 109.391 42.3572C109.325 41.7644 109.224 41.1761 109.088 40.5951C108.814 39.4108 108.46 38.246 108.029 37.1086C107.612 35.9439 107.087 34.8205 106.576 33.6596C106.305 33.0599 106.233 32.3901 106.371 31.7472C106.528 31.0982 106.911 30.5256 107.454 30.1317L107.412 30.1993C107.473 29.6213 107.608 29.0532 107.813 28.5087C107.925 28.2232 108.075 27.954 108.259 27.7084C108.445 27.4411 108.709 27.2377 109.016 27.1261L109.077 27.1035L109.118 27.1674L109.205 27.2914C111.684 31.0033 114.124 34.6289 116.455 38.1305L116.277 38.1981C116.106 36.7524 115.853 35.3175 115.52 33.9C115.433 33.5544 115.335 33.2125 115.221 32.8781C115.093 32.5319 115.031 32.1649 115.04 31.7961C115.061 31.4279 115.168 31.0698 115.354 30.7507C115.54 30.4316 115.799 30.1603 116.11 29.9589L116.19 29.9063L116.239 29.9927L119.171 35.0309C119.603 38.1718 120.015 41.1649 120.408 44.0103C120.356 48.6615 120.329 52.9145 120.337 56.6829C120.337 58.5614 120.337 60.3235 120.393 61.9427C120.416 62.758 120.461 63.5282 120.537 64.2721C120.613 65.016 120.647 65.7261 120.692 66.3986C120.87 69.0887 120.976 71.2001 121.052 72.6391C121.086 73.3567 121.112 73.9052 121.127 74.2847C121.143 74.6642 121.146 74.8483 121.146 74.8483C121.146 74.8483 121.127 74.6566 121.105 74.2847C121.082 73.9127 121.044 73.3605 121.003 72.6429C120.912 71.2039 120.787 69.0962 120.598 66.4061C120.548 65.7336 120.499 65.0235 120.435 64.2834C120.371 63.5433 120.303 62.758 120.276 61.9465C120.227 60.3197 120.212 58.5652 120.2 56.6866C120.181 52.9296 120.2 48.6615 120.246 44.0103C119.85 41.1649 119.432 38.1718 118.993 35.0309V35.0647C118.037 33.4267 117.058 31.7472 116.054 30.0265L116.182 30.0603C115.899 30.2476 115.663 30.4973 115.493 30.7899C115.324 31.0825 115.224 31.4101 115.202 31.7472C115.198 32.0918 115.257 32.4342 115.376 32.7579C115.494 33.0998 115.596 33.4492 115.683 33.7986C116.024 35.222 116.286 36.6632 116.466 38.1155L116.519 38.5287L116.288 38.1831L109.046 27.4003L108.967 27.2763L109.069 27.3177C108.808 27.4209 108.585 27.5987 108.426 27.8286C108.253 28.0588 108.113 28.3117 108.01 28.58C107.815 29.1107 107.688 29.6636 107.631 30.2256V30.267L107.594 30.2933C107.091 30.6613 106.736 31.1935 106.591 31.7961C106.462 32.4002 106.531 33.0294 106.788 33.592C107.291 34.7191 107.824 35.8838 108.241 37.0485C108.675 38.1944 109.031 39.368 109.307 40.5613C109.444 41.1485 109.545 41.7431 109.61 42.3422C109.69 42.9378 109.697 43.5409 109.629 44.138L109.599 44.3747L109.459 44.1718L104.695 37.2476L104.805 37.2814C104.538 37.3808 104.277 37.4937 104.022 37.6195C103.799 37.7684 103.637 37.9907 103.564 38.247C103.487 38.5107 103.448 38.7839 103.447 39.0585C103.438 39.3315 103.466 39.6044 103.53 39.87C103.733 40.3789 103.971 40.8734 104.241 41.3503C104.491 41.8425 104.714 42.3422 104.922 42.8531C105.747 44.8481 106.402 46.8093 106.992 48.669V48.6991C106.614 52.52 106.371 56.0404 106.326 59.1851C106.326 59.969 106.341 60.7305 106.371 61.4694C106.389 62.1767 106.534 62.8751 106.799 63.532C107.062 64.1032 107.441 64.614 107.914 65.0318C108.386 65.4496 108.94 65.7654 109.542 65.959H109.584V66.0004C109.232 68.852 108.959 71.0762 108.774 72.594L108.558 74.3148C108.509 74.7017 108.475 74.9009 108.475 74.9009Z" fill="#D37A57"/>
<path d="M114.074 44.8025C114.012 44.5986 113.967 44.39 113.938 44.1789C113.866 43.7769 113.745 43.1983 113.583 42.4882C113.141 40.6384 112.513 38.8373 111.71 37.1118C110.89 35.393 109.935 33.741 108.853 32.1713C108.444 31.5627 108.096 31.078 107.866 30.7436C107.735 30.5758 107.618 30.3988 107.514 30.2139C107.666 30.3626 107.804 30.5248 107.926 30.6985C108.183 31.0216 108.543 31.495 108.97 32.0924C110.091 33.6473 111.067 35.2996 111.887 37.0292C112.7 38.7641 113.314 40.5838 113.719 42.4544C113.862 43.172 113.968 43.7581 114.014 44.1638C114.053 44.3745 114.074 44.5883 114.074 44.8025Z" fill="#D37A57"/>
<path d="M118.01 42.0002C117.642 41.3792 117.332 40.7266 117.083 40.0503C116.77 39.3978 116.517 38.7188 116.326 38.0215C116.695 38.6431 117.005 39.2971 117.253 39.9752C117.566 40.6265 117.819 41.3042 118.01 42.0002Z" fill="#D37A57"/>
<path d="M107.453 71.2111C105.24 90.699 102.345 111.446 99.0156 133H124.808C129.659 122.337 126.7 113.035 125.398 99.7723L121.146 69.667L107.453 71.2111Z" fill="#FD3E72"/>
<path d="M99.0158 133C99.0116 132.957 99.0116 132.915 99.0158 132.872L99.0612 132.496C99.1104 132.158 99.1747 131.681 99.258 131.076C99.4396 129.833 99.7007 128.071 100.015 125.865C100.665 121.454 101.566 115.379 102.557 108.673C103.549 101.966 104.354 95.865 104.896 91.4505C105.172 89.2451 105.38 87.4567 105.52 86.2206C105.593 85.612 105.65 85.1386 105.69 84.8005L105.735 84.4248C105.74 84.3827 105.749 84.3412 105.762 84.3008C105.762 84.3008 105.762 84.3459 105.762 84.4285L105.732 84.8042C105.701 85.1424 105.656 85.6195 105.599 86.2281C105.482 87.468 105.297 89.2563 105.035 91.4655C104.528 95.8876 103.73 101.985 102.765 108.699C101.801 115.413 100.851 121.473 100.162 125.884C99.8142 128.071 99.5342 129.848 99.3374 131.087C99.2391 131.692 99.1596 132.166 99.1066 132.5C99.0802 132.654 99.0575 132.774 99.0385 132.876C99.0349 132.918 99.0273 132.959 99.0158 133Z" fill="#263238"/>
<path d="M154.899 132.83H81.3467L90.8359 81.5688C90.9991 80.6898 91.4667 79.8951 92.1576 79.3223C92.8485 78.7494 93.7193 78.4343 94.6194 78.4316H160.722C161.29 78.4333 161.85 78.5591 162.363 78.8002C162.876 79.0412 163.329 79.3916 163.691 79.8263C164.052 80.261 164.312 80.7695 164.453 81.3155C164.594 81.8614 164.612 82.4315 164.506 82.9852L154.899 132.83Z" fill="#455A64"/>
<path d="M81.3465 132.83H53.4502L53.5637 132.744C56.0528 130.891 59.058 129.848 62.1675 129.757L82.1032 129.175L81.3465 132.83Z" fill="#455A64"/>
<path d="M99.0164 78.5226C99.0164 78.5414 98.8121 78.485 98.4224 78.4812C97.8533 78.4863 97.2935 78.624 96.7879 78.8833C95.9871 79.2887 95.3104 79.8997 94.828 80.6528C94.221 81.6726 93.8129 82.7968 93.6248 83.9666C93.3864 85.2627 93.1746 86.7055 92.9135 88.2383C92.6524 89.7712 92.3649 91.4168 92.0395 93.1225C91.4001 96.5677 90.6396 100.344 89.8147 104.304C88.1538 112.22 86.6138 119.377 85.6112 124.592C85.1042 127.192 84.7145 129.299 84.4496 130.757C84.3172 131.471 84.2151 132.034 84.1432 132.436C84.1053 132.613 84.0789 132.76 84.0562 132.872C84.05 132.923 84.0359 132.972 84.0145 133.019C84.0095 132.969 84.0095 132.918 84.0145 132.868C84.0145 132.752 84.0524 132.609 84.0751 132.429C84.1394 132.023 84.2226 131.456 84.3324 130.742C84.5632 129.277 84.9264 127.162 85.4069 124.558C86.3641 119.343 87.8738 112.16 89.5348 104.27C90.3596 100.314 91.1239 96.5377 91.7784 93.1C92.1114 91.3792 92.4027 89.7412 92.6789 88.2158C92.9551 86.6904 93.1708 85.2515 93.4356 83.944C93.637 82.7546 94.066 81.6144 94.6993 80.5852C95.204 79.8176 95.9105 79.2017 96.7425 78.8044C97.263 78.5445 97.8399 78.4155 98.4224 78.4286C98.6238 78.4323 98.8238 78.464 99.0164 78.5226Z" fill="#263238"/>
<path d="M130.079 104.476C130.079 105.174 129.87 105.857 129.48 106.438C129.089 107.019 128.533 107.471 127.883 107.739C127.234 108.006 126.518 108.076 125.829 107.94C125.139 107.803 124.505 107.467 124.008 106.973C123.51 106.479 123.171 105.85 123.034 105.165C122.897 104.48 122.967 103.77 123.237 103.124C123.506 102.479 123.962 101.928 124.546 101.54C125.131 101.151 125.819 100.944 126.522 100.944C127.466 100.944 128.37 101.316 129.037 101.979C129.704 102.641 130.079 103.539 130.079 104.476Z" fill="#F5F5F5"/>
<path d="M173 132.887C173 132.943 134.268 132.984 86.5038 132.984C38.74 132.984 0 132.943 0 132.887C0 132.83 38.7211 132.789 86.5038 132.789C134.287 132.789 173 132.834 173 132.887Z" fill="#263238"/>
</g>
<defs>
<clipPath id="clip0">
<rect width="173" height="133" fill="white"/>
</clipPath>
</defs>
</svg>
