<svg width="160" height="161" viewBox="0 0 160 161" fill="none" xmlns="http://www.w3.org/2000/svg">
<circle cx="79.9997" cy="81.4187" r="79.5817" fill="#FFF0F4"/>
<path d="M123.638 62.5397C123.638 62.1506 123.213 61.9106 122.879 62.1115L47.6122 107.502C45.8772 108.548 46.6189 111.214 48.645 111.214H113.638C119.161 111.214 123.638 106.737 123.638 101.214V62.5397Z" fill="#E8295D"/>
<path d="M36.9746 56.5136C36.9746 54.0397 38.9801 52.0342 41.4541 52.0342H119.159C121.633 52.0342 123.639 54.0397 123.639 56.5136C123.639 58.0871 122.813 59.5452 121.464 60.3547L90.5966 78.8751C84.2629 82.6753 76.3504 82.6753 70.0168 78.8751L39.1494 60.3547C37.8002 59.5452 36.9746 58.0871 36.9746 56.5136Z" fill="#FD3E72"/>
<path d="M36.9736 62.5397C36.9736 62.1506 37.3986 61.9106 37.7318 62.1115L112.999 107.502C114.734 108.548 113.992 111.214 111.966 111.214H46.9736C41.4508 111.214 36.9736 106.737 36.9736 101.214V62.5397Z" fill="#FD3E72"/>
<circle cx="79.8932" cy="82.986" r="15.0075" fill="#FD3E72" stroke="white" stroke-width="3"/>
<path d="M84.3652 78.8261H81.975L81.8314 80.1699H81.7903C81.6467 79.934 81.4928 79.7185 81.3185 79.5339C81.1441 79.3492 80.9491 79.1954 80.744 79.0723C80.5285 78.9492 80.2926 78.8466 80.0464 78.785C79.7899 78.7235 79.5232 78.6824 79.2462 78.6824C78.7641 78.6824 78.323 78.7645 77.9126 78.9184C77.5023 79.0825 77.1535 79.2877 76.8662 79.5544C76.579 79.8211 76.3225 80.1186 76.0969 80.4469C75.8712 80.7752 75.6968 81.1342 75.5737 81.5035C75.4506 81.8728 75.348 82.2319 75.2864 82.5704C75.2249 82.9192 75.1941 83.2372 75.1941 83.545C75.1941 84.7452 75.5121 85.7095 76.1687 86.4379C76.8252 87.1765 77.6664 87.5356 78.7128 87.5356C79.3078 87.5356 79.8412 87.4125 80.3234 87.1457C80.8055 86.8893 81.1954 86.52 81.4928 86.0378H81.5441C81.6262 86.4379 81.7493 86.7354 81.9134 86.9303C82.3648 87.4843 83.0111 87.751 83.8318 87.751C84.3345 87.751 84.7961 87.6894 85.227 87.5561C85.6578 87.433 86.0169 87.2586 86.3246 87.0431C86.6324 86.8277 86.9094 86.5712 87.1556 86.2738C87.4018 85.9763 87.5967 85.6685 87.7506 85.3505C87.8942 85.0325 88.0173 84.6939 88.1199 84.3451C88.2224 83.9964 88.2943 83.6578 88.3353 83.3501C88.3763 83.0423 88.3968 82.7346 88.3968 82.4371C88.3968 81.3497 88.2122 80.3341 87.8429 79.3903C87.4736 78.4465 86.9504 77.6361 86.2938 76.9487C85.627 76.2717 84.8064 75.7382 83.8215 75.3484C82.8367 74.9586 81.7493 74.7637 80.5798 74.7637C79.6361 74.7637 78.7436 74.8663 77.9229 75.0714C77.1022 75.2766 76.3841 75.5536 75.7686 75.9024C75.1531 76.2512 74.5991 76.6718 74.1067 77.1437C73.604 77.6155 73.1834 78.1182 72.8552 78.6517C72.5166 79.1851 72.2396 79.7391 72.014 80.3238C71.7883 80.9085 71.6241 81.4728 71.5215 82.0165C71.419 82.5704 71.3779 83.1039 71.3779 83.6168C71.3779 84.7657 71.5728 85.8429 71.9729 86.838C72.3627 87.8433 72.9065 88.6948 73.604 89.4026C74.2914 90.1104 75.112 90.6644 76.0763 91.0645C77.0304 91.4748 78.0562 91.6697 79.1539 91.6697C81.0312 91.6697 82.7341 91.1671 84.2729 90.1515L83.4933 88.8589C82.0571 89.5873 80.6106 89.9463 79.1539 89.9463C78.364 89.9463 77.6049 89.7822 76.8765 89.4539C76.1481 89.1256 75.5121 88.6845 74.9787 88.1203C74.435 87.5663 74.0041 86.8893 73.6758 86.1096C73.3476 85.33 73.1937 84.499 73.1937 83.627C73.1937 83.2372 73.2245 82.8371 73.2963 82.4268C73.3578 82.0267 73.4604 81.6164 73.5938 81.206C73.7271 80.7957 73.9015 80.3854 74.1272 79.9955C74.3529 79.6057 74.6094 79.2364 74.8966 78.8773C75.1838 78.5286 75.5224 78.2003 75.9122 77.9028C76.302 77.6155 76.7226 77.3591 77.1843 77.1334C77.6356 76.918 78.1588 76.7538 78.7333 76.6307C79.3078 76.5076 79.9233 76.4461 80.5798 76.4461C81.4621 76.4461 82.2828 76.6102 83.0419 76.918C83.801 77.236 84.4268 77.6668 84.9397 78.2105C85.4526 78.7542 85.8425 79.3903 86.1297 80.1186C86.4169 80.8572 86.5606 81.6266 86.5606 82.4473C86.5606 82.7858 86.5093 83.1449 86.4272 83.5347C86.3349 83.9245 86.2118 84.2939 86.0579 84.6529C85.8938 85.0222 85.6886 85.3197 85.4219 85.5557C85.1551 85.7916 84.8679 85.9044 84.5602 85.9044C84.2934 85.9044 84.0883 85.8326 83.9652 85.6788C83.8318 85.5351 83.7702 85.2582 83.7702 84.8581C83.7702 84.7145 83.7805 84.5298 83.801 84.3246L84.3652 78.8261ZM79.4206 85.4223C78.8872 85.4223 78.4563 85.2376 78.1178 84.8478C77.769 84.458 77.6049 83.9553 77.6049 83.3398C77.6049 82.6422 77.8203 82.0472 78.2614 81.5548C78.7025 81.0624 79.2667 80.806 79.9438 80.806C80.4567 80.806 80.8773 81.0009 81.2159 81.3804C81.5544 81.76 81.7288 82.2421 81.7288 82.8371C81.7288 83.2783 81.6262 83.6886 81.4416 84.0784C81.2569 84.4683 80.9799 84.7965 80.6209 85.0427C80.2618 85.2992 79.8617 85.4223 79.4206 85.4223Z" fill="white"/>
<path d="M130.809 36.4237C139.431 36.4237 146.42 29.4347 146.42 20.8134C146.42 12.1921 139.431 5.20312 130.809 5.20312C122.188 5.20312 115.199 12.1921 115.199 20.8134C115.199 29.4347 122.188 36.4237 130.809 36.4237Z" fill="#08AE7E" stroke="#08AE7E" stroke-width="5" stroke-linecap="round" stroke-linejoin="round"/>
<path d="M123.872 20.8137L128.497 25.439L137.748 16.1885" stroke="white" stroke-width="3" stroke-linecap="round" stroke-linejoin="round"/>
</svg>
