<svg width="40" height="30" viewBox="0 0 40 30" fill="none" xmlns="http://www.w3.org/2000/svg">
<path d="M5 3.33333H35V21.6667H36.6667V3.33333C36.6667 2.44928 36.3155 1.60143 35.6904 0.976311C35.0652 0.351189 34.2174 0 33.3333 0H6.66667C5.78261 0 4.93476 0.351189 4.30964 0.976311C3.68452 1.60143 3.33333 2.44928 3.33333 3.33333V21.6667H5V3.33333ZM25.8333 23.3333V25.8333H14.1667V23.3333H0C0 24.2088 0.172438 25.0757 0.50747 25.8846C0.842501 26.6934 1.33356 27.4283 1.95262 28.0474C3.20286 29.2976 4.89856 30 6.66667 30H33.3333C35.1014 30 36.7971 29.2976 38.0474 28.0474C39.2976 26.7971 40 25.1014 40 23.3333H25.8333Z" fill="#5B5863"/>
<path d="M20.0672 15.5583C20.3642 15.5664 20.6598 15.5149 20.9366 15.4069C21.2133 15.2989 21.4656 15.1364 21.6786 14.9293C21.8915 14.7221 22.0608 14.4743 22.1763 14.2006C22.2919 13.9269 22.3514 13.6329 22.3514 13.3358C22.3514 13.0387 22.2919 12.7446 22.1763 12.4709C22.0608 12.1972 21.8915 11.9494 21.6786 11.7423C21.4656 11.5351 21.2133 11.3727 20.9366 11.2646C20.6598 11.1566 20.3642 11.1051 20.0672 11.1133C19.4883 11.1291 18.9385 11.3702 18.5346 11.7853C18.1308 12.2004 17.9048 12.7566 17.9048 13.3358C17.9048 13.9149 18.1308 14.4712 18.5346 14.8862C18.9385 15.3013 19.4883 15.5424 20.0672 15.5583Z" fill="#5B5863"/>
<path d="M14.3057 9.66095V14.7779H17.2919L19.915 10.234H25.8552C24.7494 8.07097 22.5057 6.59399 19.915 6.59399C17.5582 6.59399 15.4921 7.8127 14.3057 9.66095Z" fill="#DB4437"/>
<path d="M14.3057 9.66095V14.7779H17.2919L19.915 10.234H25.8552C24.7494 8.07097 22.5057 6.59399 19.915 6.59399C17.5582 6.59399 15.4921 7.8127 14.3057 9.66095Z" fill="url(#paint0_linear)"/>
<path d="M14.3052 9.66103L17.2995 14.7861L17.3641 14.7457L14.3536 9.58032C14.3375 9.61261 14.3213 9.63682 14.3052 9.66103Z" fill="#3E2723" fill-opacity="0.15"/>
<path d="M19.5996 19.919L22.5374 16.9812V14.7779H17.2913L14.3051 9.66089C13.6352 10.694 13.2478 11.9369 13.2478 13.2605C13.2478 16.8359 16.0646 19.7576 19.5996 19.919Z" fill="#0F9D58"/>
<path d="M19.5996 19.919L22.5374 16.9812V14.7779H17.2913L14.3051 9.66089C13.6352 10.694 13.2478 11.9369 13.2478 13.2605C13.2478 16.8359 16.0646 19.7576 19.5996 19.919Z" fill="url(#paint1_linear)"/>
<path d="M19.5188 19.9191C19.543 19.9191 19.5753 19.9191 19.5995 19.9272L22.4808 14.8829L22.4163 14.8425L19.5188 19.9191Z" fill="#263238" fill-opacity="0.15"/>
<path d="M19.5996 19.9191L22.5374 16.9813V14.778L19.5996 19.9191Z" fill="#FFCD40"/>
<path d="M19.5996 19.9191L22.5374 16.9813V14.778L19.5996 19.9191Z" fill="url(#paint2_linear)"/>
<path d="M19.9158 10.234L22.5389 14.7779L19.6011 19.9191C19.706 19.9272 19.8109 19.9272 19.9158 19.9272C23.5962 19.9272 26.5824 16.941 26.5824 13.2606C26.5824 12.171 26.3161 11.138 25.856 10.234H19.9158Z" fill="#FFCD40"/>
<path d="M19.9158 10.234L22.5389 14.7779L19.6011 19.9191C19.706 19.9272 19.8109 19.9272 19.9158 19.9272C23.5962 19.9272 26.5824 16.941 26.5824 13.2606C26.5824 12.171 26.3161 11.138 25.856 10.234H19.9158Z" fill="url(#paint3_linear)"/>
<path d="M25.8545 10.234H19.9143V11.8159L25.8545 10.234Z" fill="url(#paint4_radial)"/>
<path d="M14.3052 9.66089L17.2914 14.7779L18.6473 13.995L14.3052 9.66089Z" fill="url(#paint5_radial)"/>
<path d="M22.5372 14.7778L21.1893 13.9949L19.5994 19.9189L22.5372 14.7778Z" fill="url(#paint6_radial)"/>
<path d="M19.9145 16.2872C21.5861 16.2872 22.9411 14.9322 22.9411 13.2606C22.9411 11.5891 21.5861 10.234 19.9145 10.234C18.243 10.234 16.8879 11.5891 16.8879 13.2606C16.8879 14.9322 18.243 16.2872 19.9145 16.2872Z" fill="#F1F1F1"/>
<path d="M19.9144 15.6819C21.2517 15.6819 22.3357 14.5979 22.3357 13.2606C22.3357 11.9234 21.2517 10.8394 19.9144 10.8394C18.5772 10.8394 17.4932 11.9234 17.4932 13.2606C17.4932 14.5979 18.5772 15.6819 19.9144 15.6819Z" fill="#4285F4"/>
<path d="M25.8137 10.1531H19.9138C18.2431 10.1531 16.8872 11.509 16.8872 13.1797V13.2523C16.8872 11.5816 18.2431 10.2257 19.9138 10.2257H19.9864H25.8459C25.8379 10.2015 25.8298 10.1773 25.8137 10.1531Z" fill="#3E2723" fill-opacity="0.2"/>
<path d="M19.9627 16.2871C19.9466 16.2871 19.9304 16.2871 19.9143 16.2871C18.7924 16.2871 17.8158 15.6737 17.2912 14.7698L14.305 9.66089C14.2969 9.66896 14.2888 9.6851 14.2808 9.69317L17.2912 14.8505C17.8158 15.7544 18.7924 16.3678 19.9143 16.3678C20.7536 16.3678 21.5204 16.0208 22.0692 15.4639C21.5285 15.9724 20.794 16.2871 19.995 16.2871C19.9788 16.2952 19.9708 16.2871 19.9627 16.2871Z" fill="white" fill-opacity="0.1"/>
<path d="M20.9714 16.1016C20.9876 16.0935 21.0037 16.0854 21.0199 16.0854C21.0037 16.0854 20.9876 16.0935 20.9714 16.1016Z" fill="white" fill-opacity="0.1"/>
<path d="M21.1245 16.0369C21.1729 16.0207 21.2133 15.9965 21.2617 15.9723C21.2133 15.9965 21.1729 16.0207 21.1245 16.0369Z" fill="white" fill-opacity="0.1"/>
<path d="M20.8267 16.1499C20.8347 16.1499 20.8428 16.1418 20.8509 16.1418C20.8428 16.1418 20.8347 16.1499 20.8267 16.1499Z" fill="white" fill-opacity="0.1"/>
<path d="M22.5371 14.7777C22.2788 15.2216 21.9075 15.6009 21.4636 15.8673C21.9075 15.6009 22.2788 15.2216 22.5371 14.7777Z" fill="white" fill-opacity="0.1"/>
<path d="M21.3184 15.9481C21.3587 15.932 21.391 15.9078 21.4314 15.8835C21.391 15.9078 21.3506 15.9239 21.3184 15.9481Z" fill="white" fill-opacity="0.1"/>
<path opacity="0.1" d="M22.9319 13.5026C22.9319 13.4865 22.9319 13.4704 22.9319 13.4542C22.94 13.4623 22.94 13.4784 22.9319 13.5026Z" fill="#3E2723"/>
<path opacity="0.1" d="M22.0693 15.4639C22.1339 15.3994 22.1985 15.3348 22.263 15.2702L22.2953 15.2137C22.2227 15.3025 22.15 15.3832 22.0693 15.4639Z" fill="#3E2723"/>
<path opacity="0.1" d="M22.8599 12.5341C22.9325 12.8004 22.9729 13.0749 22.9729 13.3654C22.9729 13.8255 22.868 14.2532 22.6823 14.6487C22.8922 14.2371 23.0213 13.7609 23.0213 13.2605C23.0213 11.5898 21.6654 10.2339 19.9947 10.2339C19.9786 10.2339 19.9705 10.2339 19.9543 10.2339C21.3587 10.25 22.537 11.2266 22.8599 12.5341Z" fill="#3E2723"/>
<path opacity="0.1" d="M22.9165 13.6804C22.9165 13.6642 22.9165 13.6562 22.9246 13.64C22.9165 13.6562 22.9165 13.6723 22.9165 13.6804Z" fill="#3E2723"/>
<path opacity="0.1" d="M20.8499 16.1419C20.8902 16.1258 20.9306 16.1177 20.9628 16.1016C20.9306 16.1177 20.8902 16.1258 20.8499 16.1419Z" fill="#3E2723"/>
<path opacity="0.1" d="M21.0195 16.0853C21.0518 16.0691 21.0922 16.0611 21.1245 16.0449C21.0922 16.053 21.0518 16.0691 21.0195 16.0853Z" fill="#3E2723"/>
<path opacity="0.1" d="M21.4231 15.8836C21.4392 15.8755 21.4473 15.8674 21.4635 15.8594C21.4554 15.8674 21.4392 15.8755 21.4231 15.8836Z" fill="#3E2723"/>
<path opacity="0.1" d="M21.2622 15.9725C21.2783 15.9644 21.2945 15.9563 21.3187 15.9402C21.2945 15.9563 21.2783 15.9644 21.2622 15.9725Z" fill="#3E2723"/>
<path opacity="0.1" d="M19.9543 16.287H19.9624C20.261 16.2789 20.5516 16.2305 20.826 16.1498C20.5516 16.2386 20.261 16.287 19.9543 16.287Z" fill="#3E2723"/>
<path d="M22.537 14.7777C22.2788 15.2216 21.9075 15.6009 21.4636 15.8673C21.4475 15.8754 21.4394 15.8834 21.4232 15.8915C21.3829 15.9157 21.3506 15.9319 21.3102 15.9561C21.2941 15.9641 21.278 15.9722 21.2538 15.9883C21.2134 16.0126 21.165 16.0287 21.1165 16.0529C21.0843 16.0691 21.0439 16.0852 21.0116 16.0933C20.9955 16.1013 20.9793 16.1094 20.9632 16.1094C20.9228 16.1256 20.8906 16.1336 20.8502 16.1498C20.8421 16.1498 20.8341 16.1578 20.826 16.1578C20.5516 16.2466 20.261 16.295 19.9624 16.295C19.9705 16.295 19.9785 16.295 19.9866 16.295C20.7937 16.295 21.5201 15.9803 22.0608 15.4718C22.1416 15.3911 22.2142 15.3023 22.2868 15.2135L22.537 14.7777Z" fill="white" fill-opacity="0.1"/>
<path opacity="0.1" d="M22.537 14.7777C22.2788 15.2216 21.9075 15.6009 21.4636 15.8673C21.4475 15.8754 21.4394 15.8834 21.4232 15.8915C21.3829 15.9157 21.3506 15.9319 21.3102 15.9561C21.2941 15.9641 21.278 15.9722 21.2538 15.9883C21.2134 16.0126 21.165 16.0287 21.1165 16.0529C21.0843 16.0691 21.0439 16.0852 21.0116 16.0933C20.9955 16.1013 20.9793 16.1094 20.9632 16.1094C20.9228 16.1256 20.8906 16.1336 20.8502 16.1498C20.8421 16.1498 20.8341 16.1578 20.826 16.1578C20.5516 16.2466 20.261 16.295 19.9624 16.295C19.9705 16.295 19.9785 16.295 19.9866 16.295C20.7937 16.295 21.5201 15.9803 22.0608 15.4718C22.1416 15.3911 22.2142 15.3023 22.2868 15.2135L22.537 14.7777Z" fill="#3E2723"/>
<path d="M22.86 12.5343C22.852 12.5021 22.8439 12.4778 22.8358 12.4456C22.8923 12.6393 22.9246 12.833 22.9407 13.0428C22.9407 13.0509 22.9407 13.0589 22.9407 13.0589C22.9488 13.1235 22.9488 13.1962 22.9488 13.2607C22.9488 13.3253 22.9488 13.3818 22.9407 13.4464C22.9407 13.4625 22.9407 13.4786 22.9407 13.4948C22.9407 13.5432 22.9327 13.5916 22.9246 13.6401C22.9246 13.6562 22.9246 13.6643 22.9165 13.6804C22.86 14.0759 22.7309 14.4391 22.5372 14.77L22.287 15.2058L22.2547 15.2623L19.5994 19.9112C19.6316 19.9112 19.6559 19.9112 19.6881 19.9112L22.5695 14.8668C22.6098 14.7942 22.6502 14.7135 22.6905 14.6328C22.8762 14.2454 22.9811 13.8095 22.9811 13.3495C22.973 13.0751 22.9327 12.8007 22.86 12.5343Z" fill="white" fill-opacity="0.2"/>
<path d="M19.9151 6.66688C23.5874 6.66688 26.5575 9.62891 26.5817 13.2931C26.5817 13.277 26.5817 13.2689 26.5817 13.2528C26.5817 9.58048 23.5955 6.59424 19.9151 6.59424C16.2348 6.59424 13.2485 9.58048 13.2485 13.2608C13.2485 13.277 13.2485 13.285 13.2485 13.3012C13.2727 9.63698 16.2429 6.66688 19.9151 6.66688Z" fill="white" fill-opacity="0.2"/>
<path d="M19.9144 19.8546C23.5867 19.8546 26.5568 16.8926 26.581 13.2284C26.581 13.2445 26.581 13.2526 26.581 13.2688C26.581 16.9491 23.5947 19.9354 19.9144 19.9354C16.234 19.9354 13.2478 16.941 13.2478 13.2607C13.2478 13.2445 13.2478 13.2365 13.2478 13.2203C13.272 16.8845 16.2421 19.8546 19.9144 19.8546Z" fill="#3E2723" fill-opacity="0.15"/>
<path d="M19.9151 19.9274C23.597 19.9274 26.5817 16.9427 26.5817 13.2608C26.5817 9.57897 23.597 6.59424 19.9151 6.59424C16.2333 6.59424 13.2485 9.57897 13.2485 13.2608C13.2485 16.9427 16.2333 19.9274 19.9151 19.9274Z" fill="url(#paint7_radial)"/>
<defs>
<linearGradient id="paint0_linear" x1="15.2561" y1="12.3414" x2="19.2338" y2="10.0179" gradientUnits="userSpaceOnUse">
<stop stop-color="#A52714" stop-opacity="0.6"/>
<stop offset="0.66" stop-color="#A52714" stop-opacity="0"/>
</linearGradient>
<linearGradient id="paint1_linear" x1="21.4016" y1="17.8372" x2="16.982" y2="15.2482" gradientUnits="userSpaceOnUse">
<stop stop-color="#055524" stop-opacity="0.4"/>
<stop offset="0.33" stop-color="#055524" stop-opacity="0"/>
</linearGradient>
<linearGradient id="paint2_linear" x1="19.4629" y1="10.3121" x2="20.5759" y2="15.1858" gradientUnits="userSpaceOnUse">
<stop stop-color="#EA6100" stop-opacity="0.3"/>
<stop offset="0.66" stop-color="#EA6100" stop-opacity="0"/>
</linearGradient>
<linearGradient id="paint3_linear" x1="21.6316" y1="9.81715" x2="22.7446" y2="14.6909" gradientUnits="userSpaceOnUse">
<stop stop-color="#EA6100" stop-opacity="0.3"/>
<stop offset="0.66" stop-color="#EA6100" stop-opacity="0"/>
</linearGradient>
<radialGradient id="paint4_radial" cx="0" cy="0" r="1" gradientUnits="userSpaceOnUse" gradientTransform="translate(19.6257 10.2268) scale(6.37023)">
<stop stop-color="#3E2723" stop-opacity="0.2"/>
<stop offset="1" stop-color="#3E2723" stop-opacity="0"/>
</radialGradient>
<radialGradient id="paint5_radial" cx="0" cy="0" r="1" gradientUnits="userSpaceOnUse" gradientTransform="translate(14.2995 9.66396) scale(5.91306)">
<stop stop-color="#3E2723" stop-opacity="0.2"/>
<stop offset="1" stop-color="#3E2723" stop-opacity="0"/>
</radialGradient>
<radialGradient id="paint6_radial" cx="0" cy="0" r="1" gradientUnits="userSpaceOnUse" gradientTransform="translate(19.9028 13.2717) scale(6.65754)">
<stop stop-color="#263238" stop-opacity="0.2"/>
<stop offset="1" stop-color="#263238" stop-opacity="0"/>
</radialGradient>
<radialGradient id="paint7_radial" cx="0" cy="0" r="1" gradientUnits="userSpaceOnUse" gradientTransform="translate(15.2401 8.41368) scale(13.3916)">
<stop stop-color="white" stop-opacity="0.1"/>
<stop offset="1" stop-color="white" stop-opacity="0"/>
</radialGradient>
</defs>
</svg>
