<svg width="65" height="66" viewBox="0 0 65 66" fill="none" xmlns="http://www.w3.org/2000/svg">
<path d="M5.16016 14.9514V39.8966H19.7181L32.5055 17.7449H61.464C56.0736 7.20028 45.1355 0 32.5055 0C21.0165 0 10.944 5.94121 5.16016 14.9514Z" fill="#DB4437"/>
<path d="M5.16016 14.9514V39.8966H19.7181L32.5055 17.7449H61.464C56.0736 7.20028 45.1355 0 32.5055 0C21.0165 0 10.944 5.94121 5.16016 14.9514Z" fill="url(#paint0_linear)"/>
<path d="M5.15625 14.9516L19.7535 39.9361L20.0683 39.7394L5.39232 14.5581C5.31363 14.7155 5.23494 14.8335 5.15625 14.9516Z" fill="#3E2723" fill-opacity="0.15"/>
<path d="M30.9651 64.9597L45.287 50.6378V39.8964H19.7122L5.1543 14.9512C1.8886 19.9874 0 26.0467 0 32.4994C0 49.9296 13.7317 64.1728 30.9651 64.9597Z" fill="#0F9D58"/>
<path d="M30.9651 64.9597L45.287 50.6378V39.8964H19.7122L5.1543 14.9512C1.8886 19.9874 0 26.0467 0 32.4994C0 49.9296 13.7317 64.1728 30.9651 64.9597Z" fill="url(#paint1_linear)"/>
<path d="M30.5664 64.9599C30.6844 64.9599 30.8418 64.9599 30.9599 64.9993L45.0063 40.4082L44.6915 40.2114L30.5664 64.9599Z" fill="#263238" fill-opacity="0.15"/>
<path d="M30.9647 64.96L45.2865 50.6381V39.8967L30.9647 64.96Z" fill="#FFCD40"/>
<path d="M30.9647 64.96L45.2865 50.6381V39.8967L30.9647 64.96Z" fill="url(#paint2_linear)"/>
<path d="M32.4991 17.7449L45.2865 39.8966L30.9647 64.9598C31.4762 64.9992 31.9877 64.9992 32.4991 64.9992C50.4408 64.9992 64.9988 50.4412 64.9988 32.4995C64.9988 27.1879 63.7004 22.1516 61.4576 17.7449H32.4991Z" fill="#FFCD40"/>
<path d="M32.4991 17.7449L45.2865 39.8966L30.9647 64.9598C31.4762 64.9992 31.9877 64.9992 32.4991 64.9992C50.4408 64.9992 64.9988 50.4412 64.9988 32.4995C64.9988 27.1879 63.7004 22.1516 61.4576 17.7449H32.4991Z" fill="url(#paint3_linear)"/>
<path d="M61.4624 17.7449H32.5039V25.4566L61.4624 17.7449Z" fill="url(#paint4_radial)"/>
<path d="M5.15625 14.9512L19.7142 39.8964L26.3243 36.0799L5.15625 14.9512Z" fill="url(#paint5_radial)"/>
<path d="M45.2865 39.8966L38.7158 36.0801L30.9647 64.9599L45.2865 39.8966Z" fill="url(#paint6_radial)"/>
<path d="M32.4998 47.2542C40.6486 47.2542 47.2545 40.6483 47.2545 32.4995C47.2545 24.3508 40.6486 17.7449 32.4998 17.7449C24.3511 17.7449 17.7452 24.3508 17.7452 32.4995C17.7452 40.6483 24.3511 47.2542 32.4998 47.2542Z" fill="#F1F1F1"/>
<path d="M32.5059 44.303C39.025 44.303 44.3097 39.0183 44.3097 32.4993C44.3097 25.9803 39.025 20.6956 32.5059 20.6956C25.9869 20.6956 20.7022 25.9803 20.7022 32.4993C20.7022 39.0183 25.9869 44.303 32.5059 44.303Z" fill="#4285F4"/>
<path d="M61.258 17.3513H32.4962C24.3517 17.3513 17.7416 23.9614 17.7416 32.106V32.4601C17.7416 24.3155 24.3517 17.7054 32.4962 17.7054H32.8504H61.4154C61.3761 17.5874 61.3367 17.4694 61.258 17.3513Z" fill="#3E2723" fill-opacity="0.2"/>
<path d="M32.7379 47.2541C32.6592 47.2541 32.5805 47.2541 32.5018 47.2541C27.0327 47.2541 22.2719 44.2638 19.7144 39.8571L5.15649 14.9512C5.11714 14.9905 5.0778 15.0692 5.03845 15.1086L19.7144 40.2505C22.2719 44.6572 27.0327 47.6475 32.5018 47.6475C36.5938 47.6475 40.3316 45.9557 43.0071 43.2408C40.371 45.7196 36.7905 47.2541 32.8953 47.2541C32.8166 47.2934 32.7772 47.2541 32.7379 47.2541Z" fill="white" fill-opacity="0.1"/>
<path d="M37.6588 46.349C37.7375 46.3096 37.8162 46.2703 37.8949 46.2703C37.8162 46.2703 37.7375 46.3096 37.6588 46.349Z" fill="white" fill-opacity="0.1"/>
<path d="M38.4027 46.034C38.6388 45.9553 38.8355 45.8373 39.0716 45.7192C38.8355 45.8373 38.6388 45.9553 38.4027 46.034Z" fill="white" fill-opacity="0.1"/>
<path d="M36.9447 46.5848C36.984 46.5848 37.0234 46.5454 37.0627 46.5454C37.0234 46.5454 36.984 46.5848 36.9447 46.5848Z" fill="white" fill-opacity="0.1"/>
<path d="M45.291 39.896C44.0319 42.06 42.222 43.9093 40.058 45.2077C42.222 43.9093 44.0319 42.06 45.291 39.896Z" fill="white" fill-opacity="0.1"/>
<path d="M39.3431 45.6014C39.5399 45.5227 39.6973 45.4047 39.894 45.2866C39.6973 45.4047 39.5005 45.4834 39.3431 45.6014Z" fill="white" fill-opacity="0.1"/>
<path opacity="0.1" d="M47.2101 33.6797C47.2101 33.601 47.2101 33.5223 47.2101 33.4436C47.2494 33.4829 47.2494 33.5616 47.2101 33.6797Z" fill="#3E2723"/>
<path opacity="0.1" d="M43.0033 43.2407C43.3181 42.9259 43.6328 42.6112 43.9476 42.2964L44.105 42.021C43.7509 42.4538 43.3968 42.8473 43.0033 43.2407Z" fill="#3E2723"/>
<path opacity="0.1" d="M46.8631 28.9584C47.2172 30.2568 47.4139 31.5946 47.4139 33.011C47.4139 35.2537 46.9024 37.3391 45.9975 39.267C47.0205 37.2604 47.65 34.939 47.65 32.4995C47.65 24.355 41.0399 17.7449 32.8953 17.7449C32.8166 17.7449 32.7773 17.7449 32.6986 17.7449C39.5448 17.8236 45.2893 22.5844 46.8631 28.9584Z" fill="#3E2723"/>
<path opacity="0.1" d="M47.1322 34.5454C47.1322 34.4667 47.1322 34.4273 47.1715 34.3486C47.1322 34.4273 47.1322 34.506 47.1322 34.5454Z" fill="#3E2723"/>
<path opacity="0.1" d="M37.0619 46.5459C37.2586 46.4672 37.4553 46.4278 37.6127 46.3491C37.4553 46.4278 37.2586 46.4672 37.0619 46.5459Z" fill="#3E2723"/>
<path opacity="0.1" d="M37.887 46.2705C38.0443 46.1918 38.2411 46.1524 38.3985 46.0737C38.2411 46.1131 38.0443 46.1918 37.887 46.2705Z" fill="#3E2723"/>
<path opacity="0.1" d="M39.8588 45.2867C39.9375 45.2474 39.9768 45.208 40.0555 45.1687C40.0161 45.208 39.9375 45.2474 39.8588 45.2867Z" fill="#3E2723"/>
<path opacity="0.1" d="M39.0658 45.7191C39.1445 45.6798 39.2232 45.6405 39.3412 45.5618C39.2232 45.6405 39.1445 45.6798 39.0658 45.7191Z" fill="#3E2723"/>
<path opacity="0.1" d="M32.6986 47.2541H32.738C34.1937 47.2147 35.6102 46.9787 36.948 46.5852C35.6102 47.018 34.1937 47.2541 32.6986 47.2541Z" fill="#3E2723"/>
<path d="M45.289 39.896C44.0299 42.06 42.22 43.9093 40.056 45.2077C39.9773 45.247 39.938 45.2864 39.8593 45.3257C39.6625 45.4437 39.5051 45.5224 39.3084 45.6405C39.2297 45.6798 39.151 45.7192 39.033 45.7979C38.8363 45.9159 38.6002 45.9946 38.3641 46.1126C38.2067 46.1913 38.01 46.27 37.8526 46.3094C37.7739 46.3487 37.6952 46.3881 37.6165 46.3881C37.4198 46.4667 37.2624 46.5061 37.0657 46.5848C37.0264 46.5848 36.987 46.6241 36.9477 46.6241C35.6099 47.0569 34.1935 47.293 32.7377 47.293C32.777 47.293 32.8164 47.293 32.8557 47.293C36.7903 47.293 40.3314 45.7585 42.9676 43.2797C43.361 42.8863 43.7151 42.4535 44.0693 42.0207L45.289 39.896Z" fill="white" fill-opacity="0.1"/>
<path opacity="0.1" d="M45.289 39.896C44.0299 42.06 42.22 43.9093 40.056 45.2077C39.9773 45.247 39.938 45.2864 39.8593 45.3257C39.6625 45.4437 39.5051 45.5224 39.3084 45.6405C39.2297 45.6798 39.151 45.7192 39.033 45.7979C38.8363 45.9159 38.6002 45.9946 38.3641 46.1126C38.2067 46.1913 38.01 46.27 37.8526 46.3094C37.7739 46.3487 37.6952 46.3881 37.6165 46.3881C37.4198 46.4667 37.2624 46.5061 37.0657 46.5848C37.0264 46.5848 36.987 46.6241 36.9477 46.6241C35.6099 47.0569 34.1935 47.293 32.7377 47.293C32.777 47.293 32.8164 47.293 32.8557 47.293C36.7903 47.293 40.3314 45.7585 42.9676 43.2797C43.361 42.8863 43.7151 42.4535 44.0693 42.0207L45.289 39.896Z" fill="#3E2723"/>
<path d="M46.8597 28.9582C46.8204 28.8008 46.7811 28.6828 46.7417 28.5254C47.0171 29.4697 47.1745 30.414 47.2532 31.437C47.2532 31.4763 47.2532 31.5157 47.2532 31.5157C47.2926 31.8304 47.2926 32.1845 47.2926 32.4993C47.2926 32.8141 47.2926 33.0895 47.2532 33.4043C47.2532 33.483 47.2532 33.5617 47.2532 33.6403C47.2532 33.8764 47.2139 34.1125 47.1745 34.3486C47.1745 34.4273 47.1745 34.4666 47.1352 34.5453C46.8597 36.4732 46.2302 38.2438 45.2859 39.857L44.0662 41.9816L43.9088 42.2571L30.9641 64.9202C31.1214 64.9202 31.2395 64.9202 31.3969 64.9202L45.4433 40.3291C45.64 39.975 45.8368 39.5816 46.0335 39.1881C46.9384 37.2995 47.4499 35.1748 47.4499 32.9321C47.4106 31.5944 47.2139 30.2566 46.8597 28.9582Z" fill="white" fill-opacity="0.2"/>
<path d="M32.4996 0.354112C50.402 0.354112 64.8812 14.794 64.9992 32.657C64.9992 32.5783 64.9992 32.539 64.9992 32.4603C64.9992 14.5579 50.4413 0 32.4996 0C14.5579 0 0 14.5579 0 32.4996C0 32.5783 0 32.6177 0 32.6963C0.118037 14.8334 14.5973 0.354112 32.4996 0.354112Z" fill="white" fill-opacity="0.2"/>
<path d="M32.4996 64.6452C50.402 64.6452 64.8812 50.2053 64.9992 32.3423C64.9992 32.421 64.9992 32.4604 64.9992 32.5391C64.9992 50.4807 50.4413 65.0387 32.4996 65.0387C14.5579 65.0387 0 50.4414 0 32.4997C0 32.421 0 32.3817 0 32.303C0.118037 50.166 14.5973 64.6452 32.4996 64.6452Z" fill="#3E2723" fill-opacity="0.15"/>
<path d="M32.4996 64.9992C50.4487 64.9992 64.9992 50.4487 64.9992 32.4996C64.9992 14.5506 50.4487 0 32.4996 0C14.5506 0 0 14.5506 0 32.4996C0 50.4487 14.5506 64.9992 32.4996 64.9992Z" fill="url(#paint7_radial)"/>
<defs>
<linearGradient id="paint0_linear" x1="9.79344" y1="28.0187" x2="29.1848" y2="16.6916" gradientUnits="userSpaceOnUse">
<stop stop-color="#A52714" stop-opacity="0.6"/>
<stop offset="0.66" stop-color="#A52714" stop-opacity="0"/>
</linearGradient>
<linearGradient id="paint1_linear" x1="39.7497" y1="54.8105" x2="18.2042" y2="42.1895" gradientUnits="userSpaceOnUse">
<stop stop-color="#055524" stop-opacity="0.4"/>
<stop offset="0.33" stop-color="#055524" stop-opacity="0"/>
</linearGradient>
<linearGradient id="paint2_linear" x1="30.2982" y1="18.1256" x2="35.7241" y2="41.8849" gradientUnits="userSpaceOnUse">
<stop stop-color="#EA6100" stop-opacity="0.3"/>
<stop offset="0.66" stop-color="#EA6100" stop-opacity="0"/>
</linearGradient>
<linearGradient id="paint3_linear" x1="40.8633" y1="15.7127" x2="46.2891" y2="39.472" gradientUnits="userSpaceOnUse">
<stop stop-color="#EA6100" stop-opacity="0.3"/>
<stop offset="0.66" stop-color="#EA6100" stop-opacity="0"/>
</linearGradient>
<radialGradient id="paint4_radial" cx="0" cy="0" r="1" gradientUnits="userSpaceOnUse" gradientTransform="translate(31.0969 17.7099) scale(31.0549)">
<stop stop-color="#3E2723" stop-opacity="0.2"/>
<stop offset="1" stop-color="#3E2723" stop-opacity="0"/>
</radialGradient>
<radialGradient id="paint5_radial" cx="0" cy="0" r="1" gradientUnits="userSpaceOnUse" gradientTransform="translate(5.12863 14.9662) scale(28.8262)">
<stop stop-color="#3E2723" stop-opacity="0.2"/>
<stop offset="1" stop-color="#3E2723" stop-opacity="0"/>
</radialGradient>
<radialGradient id="paint6_radial" cx="0" cy="0" r="1" gradientUnits="userSpaceOnUse" gradientTransform="translate(32.444 32.5545) scale(32.4555)">
<stop stop-color="#263238" stop-opacity="0.2"/>
<stop offset="1" stop-color="#263238" stop-opacity="0"/>
</radialGradient>
<radialGradient id="paint7_radial" cx="0" cy="0" r="1" gradientUnits="userSpaceOnUse" gradientTransform="translate(9.70897 8.86976) scale(65.2841)">
<stop stop-color="white" stop-opacity="0.1"/>
<stop offset="1" stop-color="white" stop-opacity="0"/>
</radialGradient>
</defs>
</svg>
