<svg width="69" height="51" viewBox="0 0 69 51" fill="none" xmlns="http://www.w3.org/2000/svg">
<path d="M0 5C0 2.23858 2.23858 0 5 0H64C66.7614 0 69 2.23858 69 5V7H0V5Z" fill="#5B5863"/>
<circle cx="62.5" cy="3.5" r="1.5" fill="white"/>
<circle cx="57.5" cy="3.5" r="1.5" fill="white"/>
<circle cx="52.5" cy="3.5" r="1.5" fill="white"/>
<path d="M0 7H69V46C69 48.7614 66.7614 51 64 51H5C2.23858 51 0 48.7614 0 46V7Z" fill="#5B5863"/>
<path d="M3 7H66V45C66 46.6569 64.6569 48 63 48H6C4.34315 48 3 46.6569 3 45V7Z" fill="white"/>
<path d="M42.4689 34.3759C43.0678 34.3923 43.6639 34.2885 44.222 34.0706C44.7802 33.8528 45.289 33.5253 45.7184 33.1074C46.1478 32.6896 46.4891 32.19 46.7222 31.638C46.9553 31.0861 47.0753 30.493 47.0753 29.8939C47.0753 29.2947 46.9553 28.7017 46.7222 28.1497C46.4891 27.5978 46.1478 27.0981 45.7184 26.6803C45.289 26.2625 44.7802 25.935 44.222 25.7171C43.6639 25.4992 43.0678 25.3954 42.4689 25.4118C41.3014 25.4438 40.1925 25.93 39.3781 26.7671C38.5636 27.6042 38.1079 28.726 38.1079 29.8939C38.1079 31.0618 38.5636 32.1836 39.3781 33.0206C40.1925 33.8577 41.3014 34.3439 42.4689 34.3759Z" fill="#5B5863"/>
<path d="M23.1338 20.185V30.5042H29.156L34.4459 21.3406H46.4253C44.1954 16.9786 39.6706 14 34.4459 14C29.6932 14 25.5264 16.4577 23.1338 20.185Z" fill="#DB4437"/>
<path d="M23.1338 20.185V30.5042H29.156L34.4459 21.3406H46.4253C44.1954 16.9786 39.6706 14 34.4459 14C29.6932 14 25.5264 16.4577 23.1338 20.185Z" fill="url(#paint0_linear_9364:8126)"/>
<path d="M23.1323 20.1852L29.1709 30.5207L29.3011 30.4393L23.23 20.0225C23.1974 20.0876 23.1649 20.1364 23.1323 20.1852Z" fill="#3E2723" fill-opacity="0.15"/>
<path d="M33.8095 40.8728L39.7341 34.9482V30.5048H29.1545L23.1322 20.1855C21.7813 22.2689 21 24.7755 21 27.4448C21 34.6552 26.6805 40.5473 33.8095 40.8728Z" fill="#0F9D58"/>
<path d="M33.8095 40.8728L39.7341 34.9482V30.5048H29.1545L23.1322 20.1855C21.7813 22.2689 21 24.7755 21 27.4448C21 34.6552 26.6805 40.5473 33.8095 40.8728Z" fill="url(#paint1_linear_9364:8126)"/>
<path d="M33.6465 40.8726C33.6953 40.8726 33.7604 40.8726 33.8092 40.8889L39.6199 30.7161L39.4897 30.6348L33.6465 40.8726Z" fill="#263238" fill-opacity="0.15"/>
<path d="M33.8091 40.8724L39.7337 34.9478V30.5044L33.8091 40.8724Z" fill="#FFCD40"/>
<path d="M33.8091 40.8724L39.7337 34.9478V30.5044L33.8091 40.8724Z" fill="url(#paint2_linear_9364:8126)"/>
<path d="M34.4473 21.3408L39.7371 30.5044L33.8125 40.8725C34.0241 40.8888 34.2357 40.8888 34.4473 40.8888C41.8693 40.8888 47.8916 34.8665 47.8916 27.4445C47.8916 25.2472 47.3544 23.1638 46.4267 21.3408H34.4473Z" fill="#FFCD40"/>
<path d="M34.4473 21.3408L39.7371 30.5044L33.8125 40.8725C34.0241 40.8888 34.2357 40.8888 34.4473 40.8888C41.8693 40.8888 47.8916 34.8665 47.8916 27.4445C47.8916 25.2472 47.3544 23.1638 46.4267 21.3408H34.4473Z" fill="url(#paint3_linear_9364:8126)"/>
<path d="M46.4237 21.3408H34.4443V24.531L46.4237 21.3408Z" fill="url(#paint4_radial_9364:8126)"/>
<path d="M23.1323 20.1855L29.1546 30.5048L31.889 28.926L23.1323 20.1855Z" fill="url(#paint5_radial_9364:8126)"/>
<path d="M39.7332 30.5041L37.015 28.9253L33.8086 40.8722L39.7332 30.5041Z" fill="url(#paint6_radial_9364:8126)"/>
<path d="M34.4445 33.5481C37.8154 33.5481 40.5481 30.8154 40.5481 27.4445C40.5481 24.0735 37.8154 21.3408 34.4445 21.3408C31.0735 21.3408 28.3408 24.0735 28.3408 27.4445C28.3408 30.8154 31.0735 33.5481 34.4445 33.5481Z" fill="#F1F1F1"/>
<path d="M34.4449 32.3269C37.1417 32.3269 39.3278 30.1407 39.3278 27.4439C39.3278 24.7472 37.1417 22.561 34.4449 22.561C31.7482 22.561 29.562 24.7472 29.562 27.4439C29.562 30.1407 31.7482 32.3269 34.4449 32.3269Z" fill="#4285F4"/>
<path d="M46.3415 21.1777H34.4435C31.0743 21.1777 28.3398 23.9122 28.3398 27.2814V27.4279C28.3398 24.0587 31.0743 21.3242 34.4435 21.3242H34.59H46.4066C46.3903 21.2754 46.3741 21.2266 46.3415 21.1777Z" fill="#3E2723" fill-opacity="0.2"/>
<path d="M34.5416 33.5485C34.509 33.5485 34.4765 33.5485 34.4439 33.5485C32.1815 33.5485 30.2121 32.3114 29.1541 30.4885L23.1318 20.1855C23.1156 20.2018 23.0993 20.2344 23.083 20.2507L29.1541 30.6513C30.2121 32.4742 32.1815 33.7112 34.4439 33.7112C36.1367 33.7112 37.6829 33.0113 38.7897 31.8883C37.6992 32.9137 36.218 33.5485 34.6067 33.5485C34.5741 33.5647 34.5579 33.5485 34.5416 33.5485Z" fill="white" fill-opacity="0.1"/>
<path d="M36.5767 33.1737C36.6092 33.1574 36.6418 33.1411 36.6743 33.1411C36.6418 33.1411 36.6092 33.1574 36.5767 33.1737Z" fill="white" fill-opacity="0.1"/>
<path d="M36.8848 33.0433C36.9824 33.0107 37.0638 32.9619 37.1615 32.9131C37.0638 32.9619 36.9824 33.0107 36.8848 33.0433Z" fill="white" fill-opacity="0.1"/>
<path d="M36.2847 33.2712C36.3009 33.2712 36.3172 33.2549 36.3335 33.2549C36.3172 33.2549 36.3009 33.2712 36.2847 33.2712Z" fill="white" fill-opacity="0.1"/>
<path d="M39.7336 30.5044C39.2128 31.3996 38.464 32.1646 37.5688 32.7017C38.464 32.1646 39.2128 31.3996 39.7336 30.5044Z" fill="white" fill-opacity="0.1"/>
<path d="M37.2759 32.8651C37.3573 32.8325 37.4224 32.7837 37.5037 32.7349C37.4224 32.7837 37.341 32.8162 37.2759 32.8651Z" fill="white" fill-opacity="0.1"/>
<path opacity="0.1" d="M40.5298 27.9331C40.5298 27.9006 40.5298 27.868 40.5298 27.8354C40.5461 27.8517 40.5461 27.8843 40.5298 27.9331Z" fill="#3E2723"/>
<path opacity="0.1" d="M38.7905 31.8884C38.9207 31.7581 39.0509 31.6279 39.1812 31.4977L39.2463 31.3838C39.0998 31.5628 38.9533 31.7256 38.7905 31.8884Z" fill="#3E2723"/>
<path opacity="0.1" d="M40.3844 25.9796C40.5309 26.5167 40.6123 27.0701 40.6123 27.6561C40.6123 28.5838 40.4007 29.4465 40.0263 30.244C40.4495 29.4139 40.7099 28.4536 40.7099 27.4445C40.7099 24.0753 37.9755 21.3408 34.6063 21.3408C34.5737 21.3408 34.5575 21.3408 34.5249 21.3408C37.357 21.3734 39.7333 23.3428 40.3844 25.9796Z" fill="#3E2723"/>
<path opacity="0.1" d="M40.4985 28.2909C40.4985 28.2583 40.4985 28.242 40.5148 28.2095C40.4985 28.242 40.4985 28.2746 40.4985 28.2909Z" fill="#3E2723"/>
<path opacity="0.1" d="M36.3311 33.2552C36.4124 33.2227 36.4938 33.2064 36.5589 33.1738C36.4938 33.2064 36.4124 33.2227 36.3311 33.2552Z" fill="#3E2723"/>
<path opacity="0.1" d="M36.6733 33.1414C36.7384 33.1089 36.8198 33.0926 36.8849 33.0601C36.8198 33.0763 36.7384 33.1089 36.6733 33.1414Z" fill="#3E2723"/>
<path opacity="0.1" d="M37.4873 32.7344C37.5199 32.7181 37.5361 32.7018 37.5687 32.6855C37.5524 32.7018 37.5199 32.7181 37.4873 32.7344Z" fill="#3E2723"/>
<path opacity="0.1" d="M37.1626 32.9137C37.1952 32.8975 37.2277 32.8812 37.2765 32.8486C37.2277 32.8812 37.1952 32.8975 37.1626 32.9137Z" fill="#3E2723"/>
<path opacity="0.1" d="M34.5249 33.5482H34.5412C35.1434 33.5319 35.7294 33.4342 36.2828 33.2715C35.7294 33.4505 35.1434 33.5482 34.5249 33.5482Z" fill="#3E2723"/>
<path d="M39.7332 30.5044C39.2123 31.3996 38.4636 32.1646 37.5684 32.7017C37.5359 32.718 37.5196 32.7343 37.487 32.7505C37.4057 32.7994 37.3406 32.8319 37.2592 32.8807C37.2266 32.897 37.1941 32.9133 37.1452 32.9459C37.0639 32.9947 36.9662 33.0272 36.8685 33.0761C36.8034 33.1086 36.722 33.1412 36.6569 33.1574C36.6244 33.1737 36.5918 33.19 36.5593 33.19C36.4779 33.2225 36.4128 33.2388 36.3314 33.2714C36.3151 33.2714 36.2989 33.2877 36.2826 33.2877C35.7292 33.4667 35.1432 33.5644 34.541 33.5644C34.5573 33.5644 34.5736 33.5644 34.5898 33.5644C36.2175 33.5644 37.6824 32.9296 38.7729 31.9042C38.9356 31.7414 39.0821 31.5624 39.2286 31.3833L39.7332 30.5044Z" fill="white" fill-opacity="0.1"/>
<path opacity="0.1" d="M39.7332 30.5044C39.2123 31.3996 38.4636 32.1646 37.5684 32.7017C37.5359 32.718 37.5196 32.7343 37.487 32.7505C37.4057 32.7994 37.3406 32.8319 37.2592 32.8807C37.2266 32.897 37.1941 32.9133 37.1452 32.9459C37.0639 32.9947 36.9662 33.0272 36.8685 33.0761C36.8034 33.1086 36.722 33.1412 36.6569 33.1574C36.6244 33.1737 36.5918 33.19 36.5593 33.19C36.4779 33.2225 36.4128 33.2388 36.3314 33.2714C36.3151 33.2714 36.2989 33.2877 36.2826 33.2877C35.7292 33.4667 35.1432 33.5644 34.541 33.5644C34.5573 33.5644 34.5736 33.5644 34.5898 33.5644C36.2175 33.5644 37.6824 32.9296 38.7729 31.9042C38.9356 31.7414 39.0821 31.5624 39.2286 31.3833L39.7332 30.5044Z" fill="#3E2723"/>
<path d="M40.3847 25.9798C40.3685 25.9147 40.3522 25.8659 40.3359 25.8008C40.4498 26.1914 40.5149 26.582 40.5475 27.0052C40.5475 27.0215 40.5475 27.0378 40.5475 27.0378C40.5638 27.168 40.5638 27.3145 40.5638 27.4447C40.5638 27.5749 40.5638 27.6888 40.5475 27.8191C40.5475 27.8516 40.5475 27.8842 40.5475 27.9167C40.5475 28.0144 40.5312 28.112 40.5149 28.2097C40.5149 28.2422 40.5149 28.2585 40.4987 28.2911C40.3847 29.0886 40.1243 29.821 39.7337 30.4884L39.2291 31.3673L39.164 31.4812L33.8091 40.8564C33.8742 40.8564 33.923 40.8564 33.9881 40.8564L39.7988 30.6837C39.8802 30.5372 39.9616 30.3744 40.0429 30.2117C40.4173 29.4304 40.6289 28.5515 40.6289 27.6237C40.6126 27.0703 40.5312 26.5169 40.3847 25.9798Z" fill="white" fill-opacity="0.2"/>
<path d="M34.4443 14.147C41.85 14.147 47.8397 20.1204 47.8886 27.5099C47.8886 27.4773 47.8886 27.4611 47.8886 27.4285C47.8886 20.0227 41.8663 14.0005 34.4443 14.0005C27.0223 14.0005 21 20.0227 21 27.4448C21 27.4773 21 27.4936 21 27.5262C21.0488 20.1367 27.0385 14.147 34.4443 14.147Z" fill="white" fill-opacity="0.2"/>
<path d="M34.4443 40.7425C41.85 40.7425 47.8397 34.769 47.8886 27.3796C47.8886 27.4121 47.8886 27.4284 47.8886 27.4609C47.8886 34.883 41.8663 40.9052 34.4443 40.9052C27.0223 40.9052 21 34.8667 21 27.4447C21 27.4121 21 27.3958 21 27.3633C21.0488 34.7528 27.0385 40.7425 34.4443 40.7425Z" fill="#3E2723" fill-opacity="0.15"/>
<path d="M34.4443 40.8888C41.8694 40.8888 47.8886 34.8696 47.8886 27.4445C47.8886 20.0195 41.8694 14.0002 34.4443 14.0002C27.0192 14.0002 21 20.0195 21 27.4445C21 34.8696 27.0192 40.8888 34.4443 40.8888Z" fill="url(#paint7_radial_9364:8126)"/>
<defs>
<linearGradient id="paint0_linear_9364:8126" x1="25.0505" y1="25.5907" x2="33.0722" y2="20.9049" gradientUnits="userSpaceOnUse">
<stop stop-color="#A52714" stop-opacity="0.6"/>
<stop offset="0.66" stop-color="#A52714" stop-opacity="0"/>
</linearGradient>
<linearGradient id="paint1_linear_9364:8126" x1="37.4435" y1="36.6743" x2="28.5306" y2="31.4534" gradientUnits="userSpaceOnUse">
<stop stop-color="#055524" stop-opacity="0.4"/>
<stop offset="0.33" stop-color="#055524" stop-opacity="0"/>
</linearGradient>
<linearGradient id="paint2_linear_9364:8126" x1="33.5334" y1="21.4982" x2="35.7779" y2="31.3269" gradientUnits="userSpaceOnUse">
<stop stop-color="#EA6100" stop-opacity="0.3"/>
<stop offset="0.66" stop-color="#EA6100" stop-opacity="0"/>
</linearGradient>
<linearGradient id="paint3_linear_9364:8126" x1="37.9073" y1="20.5001" x2="40.1519" y2="30.3288" gradientUnits="userSpaceOnUse">
<stop stop-color="#EA6100" stop-opacity="0.3"/>
<stop offset="0.66" stop-color="#EA6100" stop-opacity="0"/>
</linearGradient>
<radialGradient id="paint4_radial_9364:8126" cx="0" cy="0" r="1" gradientUnits="userSpaceOnUse" gradientTransform="translate(33.8623 21.3264) scale(12.8466)">
<stop stop-color="#3E2723" stop-opacity="0.2"/>
<stop offset="1" stop-color="#3E2723" stop-opacity="0"/>
</radialGradient>
<radialGradient id="paint5_radial_9364:8126" cx="0" cy="0" r="1" gradientUnits="userSpaceOnUse" gradientTransform="translate(23.1209 20.1917) scale(11.9247)">
<stop stop-color="#3E2723" stop-opacity="0.2"/>
<stop offset="1" stop-color="#3E2723" stop-opacity="0"/>
</radialGradient>
<radialGradient id="paint6_radial_9364:8126" cx="0" cy="0" r="1" gradientUnits="userSpaceOnUse" gradientTransform="translate(34.4206 27.4668) scale(13.426)">
<stop stop-color="#263238" stop-opacity="0.2"/>
<stop offset="1" stop-color="#263238" stop-opacity="0"/>
</radialGradient>
<radialGradient id="paint7_radial_9364:8126" cx="0" cy="0" r="1" gradientUnits="userSpaceOnUse" gradientTransform="translate(25.0164 17.6694) scale(27.0064)">
<stop stop-color="white" stop-opacity="0.1"/>
<stop offset="1" stop-color="white" stop-opacity="0"/>
</radialGradient>
</defs>
</svg>
