<svg width="198" height="198" viewBox="0 0 198 198" fill="none" xmlns="http://www.w3.org/2000/svg">
<path d="M6.81081 0H0V6.81081H6.81081V0Z" fill="black"/>
<path d="M13.6214 0H6.81055V6.81081H13.6214V0Z" fill="black"/>
<path d="M20.4329 0H13.6221V6.81081H20.4329V0Z" fill="black"/>
<path d="M27.2434 0H20.4326V6.81081H27.2434V0Z" fill="black"/>
<path d="M34.054 0H27.2432V6.81081H34.054V0Z" fill="black"/>
<path d="M40.8645 0H34.0537V6.81081H40.8645V0Z" fill="black"/>
<path d="M47.676 0H40.8652V6.81081H47.676V0Z" fill="black"/>
<path d="M61.2971 0H54.4863V6.81081H61.2971V0Z" fill="black"/>
<path d="M68.1077 0H61.2969V6.81081H68.1077V0Z" fill="black"/>
<path d="M74.9192 0H68.1084V6.81081H74.9192V0Z" fill="black"/>
<path d="M88.5403 0H81.7295V6.81081H88.5403V0Z" fill="black"/>
<path d="M108.973 0H102.162V6.81081H108.973V0Z" fill="black"/>
<path d="M115.783 0H108.973V6.81081H115.783V0Z" fill="black"/>
<path d="M122.595 0H115.784V6.81081H122.595V0Z" fill="black"/>
<path d="M129.406 0H122.595V6.81081H129.406V0Z" fill="black"/>
<path d="M136.216 0H129.405V6.81081H136.216V0Z" fill="black"/>
<path d="M143.027 0H136.216V6.81081H143.027V0Z" fill="black"/>
<path d="M156.649 0H149.838V6.81081H156.649V0Z" fill="black"/>
<path d="M163.459 0H156.648V6.81081H163.459V0Z" fill="black"/>
<path d="M170.27 0H163.459V6.81081H170.27V0Z" fill="black"/>
<path d="M177.081 0H170.271V6.81081H177.081V0Z" fill="black"/>
<path d="M183.892 0H177.081V6.81081H183.892V0Z" fill="black"/>
<path d="M190.702 0H183.892V6.81081H190.702V0Z" fill="black"/>
<path d="M197.514 0H190.703V6.81081H197.514V0Z" fill="black"/>
<path d="M6.81081 6.81055H0V13.6214H6.81081V6.81055Z" fill="black"/>
<path d="M47.676 6.81055H40.8652V13.6214H47.676V6.81055Z" fill="black"/>
<path d="M61.2971 6.81055H54.4863V13.6214H61.2971V6.81055Z" fill="black"/>
<path d="M68.1077 6.81055H61.2969V13.6214H68.1077V6.81055Z" fill="black"/>
<path d="M74.9192 6.81055H68.1084V13.6214H74.9192V6.81055Z" fill="black"/>
<path d="M81.7298 6.81055H74.9189V13.6214H81.7298V6.81055Z" fill="black"/>
<path d="M88.5403 6.81055H81.7295V13.6214H88.5403V6.81055Z" fill="black"/>
<path d="M102.162 6.81055H95.3516V13.6214H102.162V6.81055Z" fill="black"/>
<path d="M108.973 6.81055H102.162V13.6214H108.973V6.81055Z" fill="black"/>
<path d="M122.595 6.81055H115.784V13.6214H122.595V6.81055Z" fill="black"/>
<path d="M156.649 6.81055H149.838V13.6214H156.649V6.81055Z" fill="black"/>
<path d="M197.514 6.81055H190.703V13.6214H197.514V6.81055Z" fill="black"/>
<path d="M6.81081 13.6221H0V20.4329H6.81081V13.6221Z" fill="black"/>
<path d="M20.4329 13.6221H13.6221V20.4329H20.4329V13.6221Z" fill="black"/>
<path d="M27.2434 13.6221H20.4326V20.4329H27.2434V13.6221Z" fill="black"/>
<path d="M34.054 13.6221H27.2432V20.4329H34.054V13.6221Z" fill="black"/>
<path d="M47.676 13.6221H40.8652V20.4329H47.676V13.6221Z" fill="black"/>
<path d="M95.3518 13.6221H88.541V20.4329H95.3518V13.6221Z" fill="black"/>
<path d="M102.162 13.6221H95.3516V20.4329H102.162V13.6221Z" fill="black"/>
<path d="M108.973 13.6221H102.162V20.4329H108.973V13.6221Z" fill="black"/>
<path d="M129.406 13.6221H122.595V20.4329H129.406V13.6221Z" fill="black"/>
<path d="M143.027 13.6221H136.216V20.4329H143.027V13.6221Z" fill="black"/>
<path d="M156.649 13.6221H149.838V20.4329H156.649V13.6221Z" fill="black"/>
<path d="M170.27 13.6221H163.459V20.4329H170.27V13.6221Z" fill="black"/>
<path d="M177.081 13.6221H170.271V20.4329H177.081V13.6221Z" fill="black"/>
<path d="M183.892 13.6221H177.081V20.4329H183.892V13.6221Z" fill="black"/>
<path d="M197.514 13.6221H190.703V20.4329H197.514V13.6221Z" fill="black"/>
<path d="M6.81081 20.4326H0V27.2434H6.81081V20.4326Z" fill="black"/>
<path d="M20.4329 20.4326H13.6221V27.2434H20.4329V20.4326Z" fill="black"/>
<path d="M27.2434 20.4326H20.4326V27.2434H27.2434V20.4326Z" fill="black"/>
<path d="M34.054 20.4326H27.2432V27.2434H34.054V20.4326Z" fill="black"/>
<path d="M47.676 20.4326H40.8652V27.2434H47.676V20.4326Z" fill="black"/>
<path d="M61.2971 20.4326H54.4863V27.2434H61.2971V20.4326Z" fill="black"/>
<path d="M74.9192 20.4326H68.1084V27.2434H74.9192V20.4326Z" fill="black"/>
<path d="M81.7298 20.4326H74.9189V27.2434H81.7298V20.4326Z" fill="black"/>
<path d="M122.595 20.4326H115.784V27.2434H122.595V20.4326Z" fill="black"/>
<path d="M143.027 20.4326H136.216V27.2434H143.027V20.4326Z" fill="black"/>
<path d="M156.649 20.4326H149.838V27.2434H156.649V20.4326Z" fill="black"/>
<path d="M170.27 20.4326H163.459V27.2434H170.27V20.4326Z" fill="black"/>
<path d="M177.081 20.4326H170.271V27.2434H177.081V20.4326Z" fill="black"/>
<path d="M183.892 20.4326H177.081V27.2434H183.892V20.4326Z" fill="black"/>
<path d="M197.514 20.4326H190.703V27.2434H197.514V20.4326Z" fill="black"/>
<path d="M6.81081 27.2432H0V34.054H6.81081V27.2432Z" fill="black"/>
<path d="M20.4329 27.2432H13.6221V34.054H20.4329V27.2432Z" fill="black"/>
<path d="M27.2434 27.2432H20.4326V34.054H27.2434V27.2432Z" fill="black"/>
<path d="M34.054 27.2432H27.2432V34.054H34.054V27.2432Z" fill="black"/>
<path d="M47.676 27.2432H40.8652V34.054H47.676V27.2432Z" fill="black"/>
<path d="M74.9192 27.2432H68.1084V34.054H74.9192V27.2432Z" fill="black"/>
<path d="M88.5403 27.2432H81.7295V34.054H88.5403V27.2432Z" fill="black"/>
<path d="M95.3518 27.2432H88.541V34.054H95.3518V27.2432Z" fill="black"/>
<path d="M136.216 27.2432H129.405V34.054H136.216V27.2432Z" fill="black"/>
<path d="M156.649 27.2432H149.838V34.054H156.649V27.2432Z" fill="black"/>
<path d="M170.27 27.2432H163.459V34.054H170.27V27.2432Z" fill="black"/>
<path d="M177.081 27.2432H170.271V34.054H177.081V27.2432Z" fill="black"/>
<path d="M183.892 27.2432H177.081V34.054H183.892V27.2432Z" fill="black"/>
<path d="M197.514 27.2432H190.703V34.054H197.514V27.2432Z" fill="black"/>
<path d="M6.81081 34.0537H0V40.8645H6.81081V34.0537Z" fill="black"/>
<path d="M47.676 34.0537H40.8652V40.8645H47.676V34.0537Z" fill="black"/>
<path d="M68.1077 34.0537H61.2969V40.8645H68.1077V34.0537Z" fill="black"/>
<path d="M81.7298 34.0537H74.9189V40.8645H81.7298V34.0537Z" fill="black"/>
<path d="M88.5403 34.0537H81.7295V40.8645H88.5403V34.0537Z" fill="black"/>
<path d="M102.162 34.0537H95.3516V40.8645H102.162V34.0537Z" fill="black"/>
<path d="M122.595 34.0537H115.784V40.8645H122.595V34.0537Z" fill="black"/>
<path d="M136.216 34.0537H129.405V40.8645H136.216V34.0537Z" fill="black"/>
<path d="M156.649 34.0537H149.838V40.8645H156.649V34.0537Z" fill="black"/>
<path d="M197.514 34.0537H190.703V40.8645H197.514V34.0537Z" fill="black"/>
<path d="M6.81081 40.8652H0V47.676H6.81081V40.8652Z" fill="black"/>
<path d="M13.6214 40.8652H6.81055V47.676H13.6214V40.8652Z" fill="black"/>
<path d="M20.4329 40.8652H13.6221V47.676H20.4329V40.8652Z" fill="black"/>
<path d="M27.2434 40.8652H20.4326V47.676H27.2434V40.8652Z" fill="black"/>
<path d="M34.054 40.8652H27.2432V47.676H34.054V40.8652Z" fill="black"/>
<path d="M40.8645 40.8652H34.0537V47.676H40.8645V40.8652Z" fill="black"/>
<path d="M47.676 40.8652H40.8652V47.676H47.676V40.8652Z" fill="black"/>
<path d="M61.2971 40.8652H54.4863V47.676H61.2971V40.8652Z" fill="black"/>
<path d="M74.9192 40.8652H68.1084V47.676H74.9192V40.8652Z" fill="black"/>
<path d="M88.5403 40.8652H81.7295V47.676H88.5403V40.8652Z" fill="black"/>
<path d="M102.162 40.8652H95.3516V47.676H102.162V40.8652Z" fill="black"/>
<path d="M115.783 40.8652H108.973V47.676H115.783V40.8652Z" fill="black"/>
<path d="M129.406 40.8652H122.595V47.676H129.406V40.8652Z" fill="black"/>
<path d="M143.027 40.8652H136.216V47.676H143.027V40.8652Z" fill="black"/>
<path d="M156.649 40.8652H149.838V47.676H156.649V40.8652Z" fill="black"/>
<path d="M163.459 40.8652H156.648V47.676H163.459V40.8652Z" fill="black"/>
<path d="M170.27 40.8652H163.459V47.676H170.27V40.8652Z" fill="black"/>
<path d="M177.081 40.8652H170.271V47.676H177.081V40.8652Z" fill="black"/>
<path d="M183.892 40.8652H177.081V47.676H183.892V40.8652Z" fill="black"/>
<path d="M190.702 40.8652H183.892V47.676H190.702V40.8652Z" fill="black"/>
<path d="M197.514 40.8652H190.703V47.676H197.514V40.8652Z" fill="black"/>
<path d="M61.2971 47.6758H54.4863V54.4866H61.2971V47.6758Z" fill="black"/>
<path d="M81.7298 47.6758H74.9189V54.4866H81.7298V47.6758Z" fill="black"/>
<path d="M88.5403 47.6758H81.7295V54.4866H88.5403V47.6758Z" fill="black"/>
<path d="M95.3518 47.6758H88.541V54.4866H95.3518V47.6758Z" fill="black"/>
<path d="M102.162 47.6758H95.3516V54.4866H102.162V47.6758Z" fill="black"/>
<path d="M108.973 47.6758H102.162V54.4866H108.973V47.6758Z" fill="black"/>
<path d="M115.783 47.6758H108.973V54.4866H115.783V47.6758Z" fill="black"/>
<path d="M122.595 47.6758H115.784V54.4866H122.595V47.6758Z" fill="black"/>
<path d="M129.406 47.6758H122.595V54.4866H129.406V47.6758Z" fill="black"/>
<path d="M136.216 47.6758H129.405V54.4866H136.216V47.6758Z" fill="black"/>
<path d="M6.81081 54.4863H0V61.2971H6.81081V54.4863Z" fill="black"/>
<path d="M20.4329 54.4863H13.6221V61.2971H20.4329V54.4863Z" fill="black"/>
<path d="M27.2434 54.4863H20.4326V61.2971H27.2434V54.4863Z" fill="black"/>
<path d="M40.8645 54.4863H34.0537V61.2971H40.8645V54.4863Z" fill="black"/>
<path d="M47.676 54.4863H40.8652V61.2971H47.676V54.4863Z" fill="black"/>
<path d="M54.4866 54.4863H47.6758V61.2971H54.4866V54.4863Z" fill="black"/>
<path d="M68.1077 54.4863H61.2969V61.2971H68.1077V54.4863Z" fill="black"/>
<path d="M81.7298 54.4863H74.9189V61.2971H81.7298V54.4863Z" fill="black"/>
<path d="M95.3518 54.4863H88.541V61.2971H95.3518V54.4863Z" fill="black"/>
<path d="M102.162 54.4863H95.3516V61.2971H102.162V54.4863Z" fill="black"/>
<path d="M108.973 54.4863H102.162V61.2971H108.973V54.4863Z" fill="black"/>
<path d="M115.783 54.4863H108.973V61.2971H115.783V54.4863Z" fill="black"/>
<path d="M122.595 54.4863H115.784V61.2971H122.595V54.4863Z" fill="black"/>
<path d="M129.406 54.4863H122.595V61.2971H129.406V54.4863Z" fill="black"/>
<path d="M156.649 54.4863H149.838V61.2971H156.649V54.4863Z" fill="black"/>
<path d="M177.081 54.4863H170.271V61.2971H177.081V54.4863Z" fill="black"/>
<path d="M190.702 54.4863H183.892V61.2971H190.702V54.4863Z" fill="black"/>
<path d="M197.514 54.4863H190.703V61.2971H197.514V54.4863Z" fill="black"/>
<path d="M27.2434 61.2969H20.4326V68.1077H27.2434V61.2969Z" fill="black"/>
<path d="M34.054 61.2969H27.2432V68.1077H34.054V61.2969Z" fill="black"/>
<path d="M88.5403 61.2969H81.7295V68.1077H88.5403V61.2969Z" fill="black"/>
<path d="M122.595 61.2969H115.784V68.1077H122.595V61.2969Z" fill="black"/>
<path d="M129.406 61.2969H122.595V68.1077H129.406V61.2969Z" fill="black"/>
<path d="M136.216 61.2969H129.405V68.1077H136.216V61.2969Z" fill="black"/>
<path d="M149.838 61.2969H143.027V68.1077H149.838V61.2969Z" fill="black"/>
<path d="M156.649 61.2969H149.838V68.1077H156.649V61.2969Z" fill="black"/>
<path d="M163.459 61.2969H156.648V68.1077H163.459V61.2969Z" fill="black"/>
<path d="M170.27 61.2969H163.459V68.1077H170.27V61.2969Z" fill="black"/>
<path d="M197.514 61.2969H190.703V68.1077H197.514V61.2969Z" fill="black"/>
<path d="M34.054 68.1084H27.2432V74.9192H34.054V68.1084Z" fill="black"/>
<path d="M47.676 68.1084H40.8652V74.9192H47.676V68.1084Z" fill="black"/>
<path d="M54.4866 68.1084H47.6758V74.9192H54.4866V68.1084Z" fill="black"/>
<path d="M81.7298 68.1084H74.9189V74.9192H81.7298V68.1084Z" fill="black"/>
<path d="M102.162 68.1084H95.3516V74.9192H102.162V68.1084Z" fill="black"/>
<path d="M115.783 68.1084H108.973V74.9192H115.783V68.1084Z" fill="black"/>
<path d="M122.595 68.1084H115.784V74.9192H122.595V68.1084Z" fill="black"/>
<path d="M183.892 68.1084H177.081V74.9192H183.892V68.1084Z" fill="black"/>
<path d="M190.702 68.1084H183.892V74.9192H190.702V68.1084Z" fill="black"/>
<path d="M6.81081 74.9189H0V81.7298H6.81081V74.9189Z" fill="black"/>
<path d="M13.6214 74.9189H6.81055V81.7298H13.6214V74.9189Z" fill="black"/>
<path d="M20.4329 74.9189H13.6221V81.7298H20.4329V74.9189Z" fill="black"/>
<path d="M27.2434 74.9189H20.4326V81.7298H27.2434V74.9189Z" fill="black"/>
<path d="M34.054 74.9189H27.2432V81.7298H34.054V74.9189Z" fill="black"/>
<path d="M40.8645 74.9189H34.0537V81.7298H40.8645V74.9189Z" fill="black"/>
<path d="M54.4866 74.9189H47.6758V81.7298H54.4866V74.9189Z" fill="black"/>
<path d="M61.2971 74.9189H54.4863V81.7298H61.2971V74.9189Z" fill="black"/>
<path d="M81.7298 74.9189H74.9189V81.7298H81.7298V74.9189Z" fill="black"/>
<path d="M88.5403 74.9189H81.7295V81.7298H88.5403V74.9189Z" fill="black"/>
<path d="M95.3518 74.9189H88.541V81.7298H95.3518V74.9189Z" fill="black"/>
<path d="M102.162 74.9189H95.3516V81.7298H102.162V74.9189Z" fill="black"/>
<path d="M108.973 74.9189H102.162V81.7298H108.973V74.9189Z" fill="black"/>
<path d="M129.406 74.9189H122.595V81.7298H129.406V74.9189Z" fill="black"/>
<path d="M143.027 74.9189H136.216V81.7298H143.027V74.9189Z" fill="black"/>
<path d="M149.838 74.9189H143.027V81.7298H149.838V74.9189Z" fill="black"/>
<path d="M156.649 74.9189H149.838V81.7298H156.649V74.9189Z" fill="black"/>
<path d="M163.459 74.9189H156.648V81.7298H163.459V74.9189Z" fill="black"/>
<path d="M170.27 74.9189H163.459V81.7298H170.27V74.9189Z" fill="black"/>
<path d="M177.081 74.9189H170.271V81.7298H177.081V74.9189Z" fill="black"/>
<path d="M197.514 74.9189H190.703V81.7298H197.514V74.9189Z" fill="black"/>
<path d="M13.6214 81.7295H6.81055V88.5403H13.6214V81.7295Z" fill="black"/>
<path d="M27.2434 81.7295H20.4326V88.5403H27.2434V81.7295Z" fill="black"/>
<path d="M34.054 81.7295H27.2432V88.5403H34.054V81.7295Z" fill="black"/>
<path d="M40.8645 81.7295H34.0537V88.5403H40.8645V81.7295Z" fill="black"/>
<path d="M47.676 81.7295H40.8652V88.5403H47.676V81.7295Z" fill="black"/>
<path d="M61.2971 81.7295H54.4863V88.5403H61.2971V81.7295Z" fill="black"/>
<path d="M74.9192 81.7295H68.1084V88.5403H74.9192V81.7295Z" fill="black"/>
<path d="M88.5403 81.7295H81.7295V88.5403H88.5403V81.7295Z" fill="black"/>
<path d="M108.973 81.7295H102.162V88.5403H108.973V81.7295Z" fill="black"/>
<path d="M122.595 81.7295H115.784V88.5403H122.595V81.7295Z" fill="black"/>
<path d="M143.027 81.7295H136.216V88.5403H143.027V81.7295Z" fill="black"/>
<path d="M177.081 81.7295H170.271V88.5403H177.081V81.7295Z" fill="black"/>
<path d="M183.892 81.7295H177.081V88.5403H183.892V81.7295Z" fill="black"/>
<path d="M6.81081 88.541H0V95.3518H6.81081V88.541Z" fill="black"/>
<path d="M13.6214 88.541H6.81055V95.3518H13.6214V88.541Z" fill="black"/>
<path d="M20.4329 88.541H13.6221V95.3518H20.4329V88.541Z" fill="black"/>
<path d="M27.2434 88.541H20.4326V95.3518H27.2434V88.541Z" fill="black"/>
<path d="M34.054 88.541H27.2432V95.3518H34.054V88.541Z" fill="black"/>
<path d="M54.4866 88.541H47.6758V95.3518H54.4866V88.541Z" fill="black"/>
<path d="M61.2971 88.541H54.4863V95.3518H61.2971V88.541Z" fill="black"/>
<path d="M68.1077 88.541H61.2969V95.3518H68.1077V88.541Z" fill="black"/>
<path d="M74.9192 88.541H68.1084V95.3518H74.9192V88.541Z" fill="black"/>
<path d="M95.3518 88.541H88.541V95.3518H95.3518V88.541Z" fill="black"/>
<path d="M108.973 88.541H102.162V95.3518H108.973V88.541Z" fill="black"/>
<path d="M115.783 88.541H108.973V95.3518H115.783V88.541Z" fill="black"/>
<path d="M136.216 88.541H129.405V95.3518H136.216V88.541Z" fill="black"/>
<path d="M143.027 88.541H136.216V95.3518H143.027V88.541Z" fill="black"/>
<path d="M156.649 88.541H149.838V95.3518H156.649V88.541Z" fill="black"/>
<path d="M190.702 88.541H183.892V95.3518H190.702V88.541Z" fill="black"/>
<path d="M197.514 88.541H190.703V95.3518H197.514V88.541Z" fill="black"/>
<path d="M13.6214 95.3516H6.81055V102.162H13.6214V95.3516Z" fill="black"/>
<path d="M27.2434 95.3516H20.4326V102.162H27.2434V95.3516Z" fill="black"/>
<path d="M34.054 95.3516H27.2432V102.162H34.054V95.3516Z" fill="black"/>
<path d="M47.676 95.3516H40.8652V102.162H47.676V95.3516Z" fill="black"/>
<path d="M54.4866 95.3516H47.6758V102.162H54.4866V95.3516Z" fill="black"/>
<path d="M61.2971 95.3516H54.4863V102.162H61.2971V95.3516Z" fill="black"/>
<path d="M68.1077 95.3516H61.2969V102.162H68.1077V95.3516Z" fill="black"/>
<path d="M74.9192 95.3516H68.1084V102.162H74.9192V95.3516Z" fill="black"/>
<path d="M102.162 95.3516H95.3516V102.162H102.162V95.3516Z" fill="black"/>
<path d="M115.783 95.3516H108.973V102.162H115.783V95.3516Z" fill="black"/>
<path d="M129.406 95.3516H122.595V102.162H129.406V95.3516Z" fill="black"/>
<path d="M136.216 95.3516H129.405V102.162H136.216V95.3516Z" fill="black"/>
<path d="M149.838 95.3516H143.027V102.162H149.838V95.3516Z" fill="black"/>
<path d="M163.459 95.3516H156.648V102.162H163.459V95.3516Z" fill="black"/>
<path d="M177.081 95.3516H170.271V102.162H177.081V95.3516Z" fill="black"/>
<path d="M183.892 95.3516H177.081V102.162H183.892V95.3516Z" fill="black"/>
<path d="M190.702 95.3516H183.892V102.162H190.702V95.3516Z" fill="black"/>
<path d="M197.514 95.3516H190.703V102.162H197.514V95.3516Z" fill="black"/>
<path d="M6.81081 102.162H0V108.973H6.81081V102.162Z" fill="black"/>
<path d="M20.4329 102.162H13.6221V108.973H20.4329V102.162Z" fill="black"/>
<path d="M27.2434 102.162H20.4326V108.973H27.2434V102.162Z" fill="black"/>
<path d="M68.1077 102.162H61.2969V108.973H68.1077V102.162Z" fill="black"/>
<path d="M74.9192 102.162H68.1084V108.973H74.9192V102.162Z" fill="black"/>
<path d="M81.7298 102.162H74.9189V108.973H81.7298V102.162Z" fill="black"/>
<path d="M95.3518 102.162H88.541V108.973H95.3518V102.162Z" fill="black"/>
<path d="M149.838 102.162H143.027V108.973H149.838V102.162Z" fill="black"/>
<path d="M156.649 102.162H149.838V108.973H156.649V102.162Z" fill="black"/>
<path d="M190.702 102.162H183.892V108.973H190.702V102.162Z" fill="black"/>
<path d="M6.81081 108.973H0V115.783H6.81081V108.973Z" fill="black"/>
<path d="M20.4329 108.973H13.6221V115.783H20.4329V108.973Z" fill="black"/>
<path d="M47.676 108.973H40.8652V115.783H47.676V108.973Z" fill="black"/>
<path d="M54.4866 108.973H47.6758V115.783H54.4866V108.973Z" fill="black"/>
<path d="M61.2971 108.973H54.4863V115.783H61.2971V108.973Z" fill="black"/>
<path d="M88.5403 108.973H81.7295V115.783H88.5403V108.973Z" fill="black"/>
<path d="M115.783 108.973H108.973V115.783H115.783V108.973Z" fill="black"/>
<path d="M129.406 108.973H122.595V115.783H129.406V108.973Z" fill="black"/>
<path d="M149.838 108.973H143.027V115.783H149.838V108.973Z" fill="black"/>
<path d="M163.459 108.973H156.648V115.783H163.459V108.973Z" fill="black"/>
<path d="M170.27 108.973H163.459V115.783H170.27V108.973Z" fill="black"/>
<path d="M190.702 108.973H183.892V115.783H190.702V108.973Z" fill="black"/>
<path d="M20.4329 115.784H13.6221V122.595H20.4329V115.784Z" fill="black"/>
<path d="M27.2434 115.784H20.4326V122.595H27.2434V115.784Z" fill="black"/>
<path d="M40.8645 115.784H34.0537V122.595H40.8645V115.784Z" fill="black"/>
<path d="M61.2971 115.784H54.4863V122.595H61.2971V115.784Z" fill="black"/>
<path d="M74.9192 115.784H68.1084V122.595H74.9192V115.784Z" fill="black"/>
<path d="M81.7298 115.784H74.9189V122.595H81.7298V115.784Z" fill="black"/>
<path d="M88.5403 115.784H81.7295V122.595H88.5403V115.784Z" fill="black"/>
<path d="M95.3518 115.784H88.541V122.595H95.3518V115.784Z" fill="black"/>
<path d="M108.973 115.784H102.162V122.595H108.973V115.784Z" fill="black"/>
<path d="M163.459 115.784H156.648V122.595H163.459V115.784Z" fill="black"/>
<path d="M183.892 115.784H177.081V122.595H183.892V115.784Z" fill="black"/>
<path d="M190.702 115.784H183.892V122.595H190.702V115.784Z" fill="black"/>
<path d="M13.6214 122.595H6.81055V129.406H13.6214V122.595Z" fill="black"/>
<path d="M20.4329 122.595H13.6221V129.406H20.4329V122.595Z" fill="black"/>
<path d="M34.054 122.595H27.2432V129.406H34.054V122.595Z" fill="black"/>
<path d="M40.8645 122.595H34.0537V129.406H40.8645V122.595Z" fill="black"/>
<path d="M47.676 122.595H40.8652V129.406H47.676V122.595Z" fill="black"/>
<path d="M61.2971 122.595H54.4863V129.406H61.2971V122.595Z" fill="black"/>
<path d="M68.1077 122.595H61.2969V129.406H68.1077V122.595Z" fill="black"/>
<path d="M81.7298 122.595H74.9189V129.406H81.7298V122.595Z" fill="black"/>
<path d="M108.973 122.595H102.162V129.406H108.973V122.595Z" fill="black"/>
<path d="M115.783 122.595H108.973V129.406H115.783V122.595Z" fill="black"/>
<path d="M149.838 122.595H143.027V129.406H149.838V122.595Z" fill="black"/>
<path d="M156.649 122.595H149.838V129.406H156.649V122.595Z" fill="black"/>
<path d="M163.459 122.595H156.648V129.406H163.459V122.595Z" fill="black"/>
<path d="M177.081 122.595H170.271V129.406H177.081V122.595Z" fill="black"/>
<path d="M183.892 122.595H177.081V129.406H183.892V122.595Z" fill="black"/>
<path d="M6.81081 129.405H0V136.216H6.81081V129.405Z" fill="black"/>
<path d="M13.6214 129.405H6.81055V136.216H13.6214V129.405Z" fill="black"/>
<path d="M20.4329 129.405H13.6221V136.216H20.4329V129.405Z" fill="black"/>
<path d="M27.2434 129.405H20.4326V136.216H27.2434V129.405Z" fill="black"/>
<path d="M40.8645 129.405H34.0537V136.216H40.8645V129.405Z" fill="black"/>
<path d="M54.4866 129.405H47.6758V136.216H54.4866V129.405Z" fill="black"/>
<path d="M74.9192 129.405H68.1084V136.216H74.9192V129.405Z" fill="black"/>
<path d="M108.973 129.405H102.162V136.216H108.973V129.405Z" fill="black"/>
<path d="M115.783 129.405H108.973V136.216H115.783V129.405Z" fill="black"/>
<path d="M122.595 129.405H115.784V136.216H122.595V129.405Z" fill="black"/>
<path d="M129.406 129.405H122.595V136.216H129.406V129.405Z" fill="black"/>
<path d="M143.027 129.405H136.216V136.216H143.027V129.405Z" fill="black"/>
<path d="M149.838 129.405H143.027V136.216H149.838V129.405Z" fill="black"/>
<path d="M163.459 129.405H156.648V136.216H163.459V129.405Z" fill="black"/>
<path d="M170.27 129.405H163.459V136.216H170.27V129.405Z" fill="black"/>
<path d="M183.892 129.405H177.081V136.216H183.892V129.405Z" fill="black"/>
<path d="M6.81081 136.216H0V143.027H6.81081V136.216Z" fill="black"/>
<path d="M20.4329 136.216H13.6221V143.027H20.4329V136.216Z" fill="black"/>
<path d="M40.8645 136.216H34.0537V143.027H40.8645V136.216Z" fill="black"/>
<path d="M47.676 136.216H40.8652V143.027H47.676V136.216Z" fill="black"/>
<path d="M54.4866 136.216H47.6758V143.027H54.4866V136.216Z" fill="black"/>
<path d="M61.2971 136.216H54.4863V143.027H61.2971V136.216Z" fill="black"/>
<path d="M88.5403 136.216H81.7295V143.027H88.5403V136.216Z" fill="black"/>
<path d="M95.3518 136.216H88.541V143.027H95.3518V136.216Z" fill="black"/>
<path d="M108.973 136.216H102.162V143.027H108.973V136.216Z" fill="black"/>
<path d="M115.783 136.216H108.973V143.027H115.783V136.216Z" fill="black"/>
<path d="M122.595 136.216H115.784V143.027H122.595V136.216Z" fill="black"/>
<path d="M129.406 136.216H122.595V143.027H129.406V136.216Z" fill="black"/>
<path d="M136.216 136.216H129.405V143.027H136.216V136.216Z" fill="black"/>
<path d="M143.027 136.216H136.216V143.027H143.027V136.216Z" fill="black"/>
<path d="M149.838 136.216H143.027V143.027H149.838V136.216Z" fill="black"/>
<path d="M156.649 136.216H149.838V143.027H156.649V136.216Z" fill="black"/>
<path d="M163.459 136.216H156.648V143.027H163.459V136.216Z" fill="black"/>
<path d="M170.27 136.216H163.459V143.027H170.27V136.216Z" fill="black"/>
<path d="M177.081 136.216H170.271V143.027H177.081V136.216Z" fill="black"/>
<path d="M183.892 136.216H177.081V143.027H183.892V136.216Z" fill="black"/>
<path d="M61.2971 143.027H54.4863V149.838H61.2971V143.027Z" fill="black"/>
<path d="M68.1077 143.027H61.2969V149.838H68.1077V143.027Z" fill="black"/>
<path d="M74.9192 143.027H68.1084V149.838H74.9192V143.027Z" fill="black"/>
<path d="M81.7298 143.027H74.9189V149.838H81.7298V143.027Z" fill="black"/>
<path d="M95.3518 143.027H88.541V149.838H95.3518V143.027Z" fill="black"/>
<path d="M102.162 143.027H95.3516V149.838H102.162V143.027Z" fill="black"/>
<path d="M115.783 143.027H108.973V149.838H115.783V143.027Z" fill="black"/>
<path d="M129.406 143.027H122.595V149.838H129.406V143.027Z" fill="black"/>
<path d="M136.216 143.027H129.405V149.838H136.216V143.027Z" fill="black"/>
<path d="M143.027 143.027H136.216V149.838H143.027V143.027Z" fill="black"/>
<path d="M170.27 143.027H163.459V149.838H170.27V143.027Z" fill="black"/>
<path d="M177.081 143.027H170.271V149.838H177.081V143.027Z" fill="black"/>
<path d="M183.892 143.027H177.081V149.838H183.892V143.027Z" fill="black"/>
<path d="M190.702 143.027H183.892V149.838H190.702V143.027Z" fill="black"/>
<path d="M197.514 143.027H190.703V149.838H197.514V143.027Z" fill="black"/>
<path d="M6.81081 149.838H0V156.649H6.81081V149.838Z" fill="black"/>
<path d="M13.6214 149.838H6.81055V156.649H13.6214V149.838Z" fill="black"/>
<path d="M20.4329 149.838H13.6221V156.649H20.4329V149.838Z" fill="black"/>
<path d="M27.2434 149.838H20.4326V156.649H27.2434V149.838Z" fill="black"/>
<path d="M34.054 149.838H27.2432V156.649H34.054V149.838Z" fill="black"/>
<path d="M40.8645 149.838H34.0537V156.649H40.8645V149.838Z" fill="black"/>
<path d="M47.676 149.838H40.8652V156.649H47.676V149.838Z" fill="black"/>
<path d="M61.2971 149.838H54.4863V156.649H61.2971V149.838Z" fill="black"/>
<path d="M74.9192 149.838H68.1084V156.649H74.9192V149.838Z" fill="black"/>
<path d="M81.7298 149.838H74.9189V156.649H81.7298V149.838Z" fill="black"/>
<path d="M95.3518 149.838H88.541V156.649H95.3518V149.838Z" fill="black"/>
<path d="M122.595 149.838H115.784V156.649H122.595V149.838Z" fill="black"/>
<path d="M129.406 149.838H122.595V156.649H129.406V149.838Z" fill="black"/>
<path d="M136.216 149.838H129.405V156.649H136.216V149.838Z" fill="black"/>
<path d="M143.027 149.838H136.216V156.649H143.027V149.838Z" fill="black"/>
<path d="M156.649 149.838H149.838V156.649H156.649V149.838Z" fill="black"/>
<path d="M170.27 149.838H163.459V156.649H170.27V149.838Z" fill="black"/>
<path d="M177.081 149.838H170.271V156.649H177.081V149.838Z" fill="black"/>
<path d="M190.702 149.838H183.892V156.649H190.702V149.838Z" fill="black"/>
<path d="M6.81081 156.648H0V163.459H6.81081V156.648Z" fill="black"/>
<path d="M47.676 156.648H40.8652V163.459H47.676V156.648Z" fill="black"/>
<path d="M61.2971 156.648H54.4863V163.459H61.2971V156.648Z" fill="black"/>
<path d="M68.1077 156.648H61.2969V163.459H68.1077V156.648Z" fill="black"/>
<path d="M74.9192 156.648H68.1084V163.459H74.9192V156.648Z" fill="black"/>
<path d="M88.5403 156.648H81.7295V163.459H88.5403V156.648Z" fill="black"/>
<path d="M108.973 156.648H102.162V163.459H108.973V156.648Z" fill="black"/>
<path d="M136.216 156.648H129.405V163.459H136.216V156.648Z" fill="black"/>
<path d="M143.027 156.648H136.216V163.459H143.027V156.648Z" fill="black"/>
<path d="M170.27 156.648H163.459V163.459H170.27V156.648Z" fill="black"/>
<path d="M190.702 156.648H183.892V163.459H190.702V156.648Z" fill="black"/>
<path d="M6.81081 163.459H0V170.27H6.81081V163.459Z" fill="black"/>
<path d="M20.4329 163.459H13.6221V170.27H20.4329V163.459Z" fill="black"/>
<path d="M27.2434 163.459H20.4326V170.27H27.2434V163.459Z" fill="black"/>
<path d="M34.054 163.459H27.2432V170.27H34.054V163.459Z" fill="black"/>
<path d="M47.676 163.459H40.8652V170.27H47.676V163.459Z" fill="black"/>
<path d="M68.1077 163.459H61.2969V170.27H68.1077V163.459Z" fill="black"/>
<path d="M74.9192 163.459H68.1084V170.27H74.9192V163.459Z" fill="black"/>
<path d="M81.7298 163.459H74.9189V170.27H81.7298V163.459Z" fill="black"/>
<path d="M88.5403 163.459H81.7295V170.27H88.5403V163.459Z" fill="black"/>
<path d="M102.162 163.459H95.3516V170.27H102.162V163.459Z" fill="black"/>
<path d="M122.595 163.459H115.784V170.27H122.595V163.459Z" fill="black"/>
<path d="M143.027 163.459H136.216V170.27H143.027V163.459Z" fill="black"/>
<path d="M149.838 163.459H143.027V170.27H149.838V163.459Z" fill="black"/>
<path d="M156.649 163.459H149.838V170.27H156.649V163.459Z" fill="black"/>
<path d="M163.459 163.459H156.648V170.27H163.459V163.459Z" fill="black"/>
<path d="M170.27 163.459H163.459V170.27H170.27V163.459Z" fill="black"/>
<path d="M177.081 163.459H170.271V170.27H177.081V163.459Z" fill="black"/>
<path d="M183.892 163.459H177.081V170.27H183.892V163.459Z" fill="black"/>
<path d="M190.702 163.459H183.892V170.27H190.702V163.459Z" fill="black"/>
<path d="M6.81081 170.271H0V177.081H6.81081V170.271Z" fill="black"/>
<path d="M20.4329 170.271H13.6221V177.081H20.4329V170.271Z" fill="black"/>
<path d="M27.2434 170.271H20.4326V177.081H27.2434V170.271Z" fill="black"/>
<path d="M34.054 170.271H27.2432V177.081H34.054V170.271Z" fill="black"/>
<path d="M47.676 170.271H40.8652V177.081H47.676V170.271Z" fill="black"/>
<path d="M61.2971 170.271H54.4863V177.081H61.2971V170.271Z" fill="black"/>
<path d="M68.1077 170.271H61.2969V177.081H68.1077V170.271Z" fill="black"/>
<path d="M102.162 170.271H95.3516V177.081H102.162V170.271Z" fill="black"/>
<path d="M108.973 170.271H102.162V177.081H108.973V170.271Z" fill="black"/>
<path d="M149.838 170.271H143.027V177.081H149.838V170.271Z" fill="black"/>
<path d="M163.459 170.271H156.648V177.081H163.459V170.271Z" fill="black"/>
<path d="M170.27 170.271H163.459V177.081H170.27V170.271Z" fill="black"/>
<path d="M177.081 170.271H170.271V177.081H177.081V170.271Z" fill="black"/>
<path d="M183.892 170.271H177.081V177.081H183.892V170.271Z" fill="black"/>
<path d="M197.514 170.271H190.703V177.081H197.514V170.271Z" fill="black"/>
<path d="M6.81081 177.081H0V183.892H6.81081V177.081Z" fill="black"/>
<path d="M20.4329 177.081H13.6221V183.892H20.4329V177.081Z" fill="black"/>
<path d="M27.2434 177.081H20.4326V183.892H27.2434V177.081Z" fill="black"/>
<path d="M34.054 177.081H27.2432V183.892H34.054V177.081Z" fill="black"/>
<path d="M47.676 177.081H40.8652V183.892H47.676V177.081Z" fill="black"/>
<path d="M61.2971 177.081H54.4863V183.892H61.2971V177.081Z" fill="black"/>
<path d="M68.1077 177.081H61.2969V183.892H68.1077V177.081Z" fill="black"/>
<path d="M81.7298 177.081H74.9189V183.892H81.7298V177.081Z" fill="black"/>
<path d="M95.3518 177.081H88.541V183.892H95.3518V177.081Z" fill="black"/>
<path d="M136.216 177.081H129.405V183.892H136.216V177.081Z" fill="black"/>
<path d="M163.459 177.081H156.648V183.892H163.459V177.081Z" fill="black"/>
<path d="M183.892 177.081H177.081V183.892H183.892V177.081Z" fill="black"/>
<path d="M197.514 177.081H190.703V183.892H197.514V177.081Z" fill="black"/>
<path d="M6.81081 183.892H0V190.702H6.81081V183.892Z" fill="black"/>
<path d="M47.676 183.892H40.8652V190.702H47.676V183.892Z" fill="black"/>
<path d="M68.1077 183.892H61.2969V190.702H68.1077V183.892Z" fill="black"/>
<path d="M74.9192 183.892H68.1084V190.702H74.9192V183.892Z" fill="black"/>
<path d="M81.7298 183.892H74.9189V190.702H81.7298V183.892Z" fill="black"/>
<path d="M88.5403 183.892H81.7295V190.702H88.5403V183.892Z" fill="black"/>
<path d="M108.973 183.892H102.162V190.702H108.973V183.892Z" fill="black"/>
<path d="M136.216 183.892H129.405V190.702H136.216V183.892Z" fill="black"/>
<path d="M143.027 183.892H136.216V190.702H143.027V183.892Z" fill="black"/>
<path d="M149.838 183.892H143.027V190.702H149.838V183.892Z" fill="black"/>
<path d="M163.459 183.892H156.648V190.702H163.459V183.892Z" fill="black"/>
<path d="M170.27 183.892H163.459V190.702H170.27V183.892Z" fill="black"/>
<path d="M177.081 183.892H170.271V190.702H177.081V183.892Z" fill="black"/>
<path d="M190.702 183.892H183.892V190.702H190.702V183.892Z" fill="black"/>
<path d="M6.81081 190.703H0V197.514H6.81081V190.703Z" fill="black"/>
<path d="M13.6214 190.703H6.81055V197.514H13.6214V190.703Z" fill="black"/>
<path d="M20.4329 190.703H13.6221V197.514H20.4329V190.703Z" fill="black"/>
<path d="M27.2434 190.703H20.4326V197.514H27.2434V190.703Z" fill="black"/>
<path d="M34.054 190.703H27.2432V197.514H34.054V190.703Z" fill="black"/>
<path d="M40.8645 190.703H34.0537V197.514H40.8645V190.703Z" fill="black"/>
<path d="M47.676 190.703H40.8652V197.514H47.676V190.703Z" fill="black"/>
<path d="M61.2971 190.703H54.4863V197.514H61.2971V190.703Z" fill="black"/>
<path d="M68.1077 190.703H61.2969V197.514H68.1077V190.703Z" fill="black"/>
<path d="M74.9192 190.703H68.1084V197.514H74.9192V190.703Z" fill="black"/>
<path d="M88.5403 190.703H81.7295V197.514H88.5403V190.703Z" fill="black"/>
<path d="M129.406 190.703H122.595V197.514H129.406V190.703Z" fill="black"/>
<path d="M143.027 190.703H136.216V197.514H143.027V190.703Z" fill="black"/>
<path d="M149.838 190.703H143.027V197.514H149.838V190.703Z" fill="black"/>
<path d="M163.459 190.703H156.648V197.514H163.459V190.703Z" fill="black"/>
<path d="M170.27 190.703H163.459V197.514H170.27V190.703Z" fill="black"/>
<path d="M190.702 190.703H183.892V197.514H190.702V190.703Z" fill="black"/>
</svg>
