<svg width="65" height="66" viewBox="0 0 65 66" fill="none" xmlns="http://www.w3.org/2000/svg">
<path d="M58.6642 48.3763C57.7977 48.8296 56.904 49.2289 55.9882 49.5722C53.0734 50.6628 49.9857 51.2184 46.8736 51.2123C34.8595 51.2123 24.3941 42.9482 24.3941 32.3432C24.4095 30.9208 24.8042 29.5283 25.5375 28.3094C26.2708 27.0905 27.3161 26.0894 28.5655 25.4094C17.699 25.8664 14.9062 37.1899 14.9062 43.8241C14.9062 62.5815 32.1936 64.4831 35.9182 64.4831C37.9265 64.4831 40.9554 63.8992 42.7732 63.3254L43.1058 63.2137C50.1011 60.7954 56.0647 56.0675 60.0149 49.8083C60.1359 49.6177 60.1899 49.3922 60.1685 49.1674C60.147 48.9426 60.0512 48.7315 59.8963 48.5672C59.7413 48.403 59.5361 48.295 59.313 48.2605C59.0899 48.2259 58.8616 48.2667 58.6642 48.3763Z" fill="url(#paint0_linear)"/>
<path opacity="0.35" d="M58.6642 48.3763C57.7977 48.8296 56.904 49.2289 55.9882 49.5722C53.0734 50.6628 49.9857 51.2184 46.8736 51.2123C34.8595 51.2123 24.3941 42.9482 24.3941 32.3432C24.4095 30.9208 24.8042 29.5283 25.5375 28.3094C26.2708 27.0905 27.3161 26.0894 28.5655 25.4094C17.699 25.8664 14.9062 37.1899 14.9062 43.8241C14.9062 62.5815 32.1936 64.4831 35.9182 64.4831C37.9265 64.4831 40.9554 63.8992 42.7732 63.3254L43.1058 63.2137C50.1011 60.7954 56.0647 56.0675 60.0149 49.8083C60.1359 49.6177 60.1899 49.3922 60.1685 49.1674C60.147 48.9426 60.0512 48.7315 59.8963 48.5672C59.7413 48.403 59.5361 48.295 59.313 48.2605C59.0899 48.2259 58.8616 48.2667 58.6642 48.3763Z" fill="url(#paint1_radial)"/>
<path d="M26.8446 61.2943C24.58 59.8888 22.6175 58.0471 21.0711 55.8763C19.3086 53.4615 18.0957 50.6903 17.5175 47.7572C16.9394 44.824 17.01 41.7998 17.7244 38.8968C18.4388 35.9938 19.7796 33.2823 21.6529 30.9524C23.5262 28.6224 25.8866 26.7306 28.5685 25.4095C29.3606 25.0363 30.7138 24.3609 32.5139 24.3939C33.7821 24.4032 35.031 24.7059 36.1626 25.2786C37.2942 25.8512 38.2778 26.6781 39.0364 27.6945C40.0616 29.0634 40.6269 30.7219 40.6511 32.4321C40.6511 32.3788 46.8613 12.2224 20.3399 12.2224C9.19411 12.2224 0.0286691 22.7995 0.0286691 32.0792C-0.0152947 36.988 1.03502 41.845 3.10328 46.297C6.48339 53.509 12.3943 59.2285 19.7135 62.3696C27.0328 65.5106 35.2506 65.8544 42.8066 63.3356C40.161 64.1698 37.3659 64.4202 34.6141 64.0695C31.8623 63.7188 29.2193 62.7755 26.8674 61.3045L26.8446 61.2943Z" fill="url(#paint2_linear)"/>
<path opacity="0.41" d="M26.8446 61.2943C24.58 59.8888 22.6175 58.0471 21.0711 55.8763C19.3086 53.4615 18.0957 50.6903 17.5175 47.7572C16.9394 44.824 17.01 41.7998 17.7244 38.8968C18.4388 35.9938 19.7796 33.2823 21.6529 30.9524C23.5262 28.6224 25.8866 26.7306 28.5685 25.4095C29.3606 25.0363 30.7138 24.3609 32.5139 24.3939C33.7821 24.4032 35.031 24.7059 36.1626 25.2786C37.2942 25.8512 38.2778 26.6781 39.0364 27.6945C40.0616 29.0634 40.6269 30.7219 40.6511 32.4321C40.6511 32.3788 46.8613 12.2224 20.3399 12.2224C9.19411 12.2224 0.0286691 22.7995 0.0286691 32.0792C-0.0152947 36.988 1.03502 41.845 3.10328 46.297C6.48339 53.509 12.3943 59.2285 19.7135 62.3696C27.0328 65.5106 35.2506 65.8544 42.8066 63.3356C40.161 64.1698 37.3659 64.4202 34.6141 64.0695C31.8623 63.7188 29.2193 62.7755 26.8674 61.3045L26.8446 61.2943Z" fill="url(#paint3_radial)"/>
<path d="M38.6751 37.7941C38.4695 38.0607 37.8373 38.4288 37.8373 39.2311C37.8373 39.8938 38.2689 40.531 39.0356 41.0668C42.6866 43.6057 49.5696 43.2705 49.5873 43.2705C52.2926 43.264 54.9466 42.5319 57.2726 41.1505C59.6191 39.7804 61.5665 37.8206 62.9217 35.4656C64.277 33.1105 64.9929 30.442 64.9985 27.7248C65.0645 22.0351 62.9674 18.2522 62.1194 16.5765C56.7394 6.05274 45.1265 1.59098e-07 32.498 1.59098e-07C23.9576 -0.00084433 15.7601 3.36023 9.67851 9.35629C3.59693 15.3524 0.120099 23.5014 0 32.041C0.121867 22.7638 9.34317 15.2715 20.3112 15.2715C21.1998 15.2715 26.2675 15.3578 30.9746 17.8282C35.1232 20.0066 37.2965 22.6369 38.8071 25.2443C40.3762 27.9533 40.6555 31.3758 40.6555 32.7392C40.6555 34.1025 39.9598 36.1235 38.6751 37.7941Z" fill="url(#paint4_radial)"/>
<path d="M38.6751 37.7941C38.4695 38.0607 37.8373 38.4288 37.8373 39.2311C37.8373 39.8938 38.2689 40.531 39.0356 41.0668C42.6866 43.6057 49.5695 43.2705 49.5873 43.2705C52.2926 43.264 54.9466 42.5319 57.2726 41.1505C59.619 39.7804 61.5665 37.8206 62.9217 35.4656C64.277 33.1105 64.9929 30.442 64.9985 27.7248C65.0645 22.0351 62.9673 18.2522 62.1194 16.5765C56.7394 6.05275 45.1265 1.59098e-07 32.498 1.59098e-07C23.9576 -0.00084433 15.7601 3.36023 9.67851 9.35629C3.59693 15.3524 0.120099 23.5014 0 32.041C0.121867 22.7638 9.34316 15.2715 20.3112 15.2715C21.1998 15.2715 26.2675 15.3578 30.9746 17.8282C35.1232 20.0066 37.2965 22.6369 38.8071 25.2443C40.3762 27.9533 40.6555 31.3758 40.6555 32.7392C40.6555 34.1025 39.9598 36.1235 38.6751 37.7941Z" fill="url(#paint5_radial)"/>
<defs>
<linearGradient id="paint0_linear" x1="14.9063" y1="44.9514" x2="60.185" y2="44.9514" gradientUnits="userSpaceOnUse">
<stop stop-color="#0C59A4"/>
<stop offset="1" stop-color="#114A8B"/>
</linearGradient>
<radialGradient id="paint1_radial" cx="0" cy="0" r="1" gradientUnits="userSpaceOnUse" gradientTransform="translate(39.9144 45.3082) scale(24.2161 23.0053)">
<stop offset="0.72" stop-opacity="0"/>
<stop offset="0.95" stop-opacity="0.53"/>
<stop offset="1"/>
</radialGradient>
<linearGradient id="paint2_linear" x1="38.7799" y1="25.3105" x2="10.4991" y2="56.115" gradientUnits="userSpaceOnUse">
<stop stop-color="#1B9DE2"/>
<stop offset="0.16" stop-color="#1595DF"/>
<stop offset="0.67" stop-color="#0680D7"/>
<stop offset="1" stop-color="#0078D4"/>
</linearGradient>
<radialGradient id="paint3_radial" cx="0" cy="0" r="1" gradientUnits="userSpaceOnUse" gradientTransform="translate(17.924 50.5264) rotate(-81.3844) scale(36.4145 29.4192)">
<stop offset="0.76" stop-opacity="0"/>
<stop offset="0.95" stop-opacity="0.5"/>
<stop offset="1"/>
</radialGradient>
<radialGradient id="paint4_radial" cx="0" cy="0" r="1" gradientUnits="userSpaceOnUse" gradientTransform="translate(6.56624 12.0285) rotate(92.2906) scale(51.4361 109.548)">
<stop stop-color="#35C1F1"/>
<stop offset="0.11" stop-color="#34C1ED"/>
<stop offset="0.23" stop-color="#2FC2DF"/>
<stop offset="0.31" stop-color="#2BC3D2"/>
<stop offset="0.67" stop-color="#36C752"/>
</radialGradient>
<radialGradient id="paint5_radial" cx="0" cy="0" r="1" gradientUnits="userSpaceOnUse" gradientTransform="translate(60.952 19.6527) rotate(73.7398) scale(24.7137 20.0972)">
<stop stop-color="#66EB6E"/>
<stop offset="1" stop-color="#66EB6E" stop-opacity="0"/>
</radialGradient>
</defs>
</svg>
