<svg width="22" height="22" viewBox="0 0 22 22" fill="none" xmlns="http://www.w3.org/2000/svg">
<path d="M2.75 2.75L19.25 19.25" stroke="#5B5863" stroke-width="2" stroke-linecap="round" stroke-linejoin="round"/>
<path d="M9.70197 9.70477C9.35796 10.0485 9.1646 10.5149 9.16443 11.0012C9.16426 11.4875 9.35729 11.954 9.70105 12.298C10.0448 12.642 10.5112 12.8354 10.9975 12.8356C11.4838 12.8357 11.9503 12.6427 12.2943 12.2989" stroke="#5B5863" stroke-width="2" stroke-linecap="round" stroke-linejoin="round"/>
<path d="M15.9106 15.9033C14.4155 16.9116 12.7802 17.4167 11 17.4167C7.33337 17.4167 4.27812 15.2781 1.83337 11C3.08829 8.80459 4.50362 7.17292 6.07937 6.10409M8.58279 4.91792C9.36876 4.69308 10.1826 4.58044 11 4.58334C14.6667 4.58334 17.722 6.72192 20.1667 11C19.4535 12.2476 18.689 13.3137 17.8723 14.1973L8.58279 4.91792Z" stroke="#5B5863" stroke-width="2" stroke-linecap="round" stroke-linejoin="round"/>
</svg>
