<svg width="76" height="72" viewBox="0 0 76 72" fill="none" xmlns="http://www.w3.org/2000/svg">
<g clip-path="url(#clip0)">
<path d="M69.2166 23.3228C67.7526 19.8001 64.7828 15.9965 62.4572 14.7942C64.1159 18.0066 65.267 21.4567 65.8695 25.0216L65.8756 25.0781C62.066 15.5801 55.6056 11.7505 50.3293 3.41137C50.0624 2.98973 49.7955 2.56721 49.5356 2.12121C49.3869 1.86649 49.2678 1.63697 49.1644 1.42571C48.9455 1.00193 48.7769 0.554073 48.6619 0.0912106C48.662 0.0698518 48.6543 0.0491837 48.6402 0.033149C48.6261 0.0171142 48.6066 0.00683514 48.5854 0.00427257C48.5646 -0.00142419 48.5427 -0.00142419 48.5219 0.00427257C48.5175 0.00427257 48.5106 0.012097 48.5054 0.0138358C48.5002 0.0155745 48.4888 0.0233989 48.481 0.0268765L48.4941 0.00427257C40.0306 4.95974 37.1591 14.1334 36.8948 18.722C33.5149 18.9544 30.2835 20.1999 27.622 22.2961C27.3443 22.0609 27.0541 21.8409 26.7526 21.6371C25.9848 18.9498 25.9521 16.1057 26.6578 13.4014C23.5497 14.9071 20.788 17.0416 18.5474 19.6697H18.5317C17.1964 17.977 17.2903 12.3956 17.3668 11.2297C16.9717 11.3885 16.5946 11.5887 16.2418 11.827C15.0629 12.6683 13.9609 13.6124 12.9486 14.6481C11.795 15.8177 10.7414 17.0819 9.79881 18.4273V18.4325V18.4264C7.63252 21.4976 6.09603 24.9674 5.27803 28.6356L5.23282 28.8581C5.16936 29.1546 4.94071 30.6395 4.90159 30.962C4.90159 30.9873 4.89637 31.0107 4.89376 31.0359C4.59882 32.569 4.41605 34.1214 4.34692 35.681V35.8549C4.35431 44.2916 7.52627 52.4186 13.2359 58.6298C18.9456 64.8409 26.7775 68.6842 35.1837 69.4002C43.59 70.1161 51.9591 67.6526 58.6368 62.4965C65.3146 57.3404 69.8152 49.8668 71.2492 41.5528C71.3057 41.1181 71.3518 40.6878 71.4022 40.2488C72.0962 34.5128 71.3449 28.6943 69.2166 23.3228ZM30.3814 49.6981C30.5387 49.7737 30.6865 49.8554 30.8483 49.9276L30.8717 49.9424C30.7083 49.8641 30.5448 49.7827 30.3814 49.6981ZM65.8782 25.0859V25.0537L65.8843 25.0894L65.8782 25.0859Z" fill="url(#paint0_linear)"/>
<path d="M69.2166 23.3228C67.7526 19.8001 64.7828 15.9965 62.4572 14.7942C64.1159 18.0067 65.267 21.4567 65.8695 25.0216V25.0538L65.8756 25.0894C68.4727 32.5213 68.097 40.6693 64.8271 47.8307C60.9653 56.1167 51.6178 64.6097 36.9861 64.1967C21.1764 63.749 7.25326 52.0176 4.65034 36.6522C4.17653 34.2292 4.65034 33.0008 4.88855 31.0316C4.5636 32.5612 4.38227 34.1178 4.34692 35.6811V35.8549C4.35431 44.2917 7.52627 52.4187 13.2359 58.6298C18.9456 64.8409 26.7775 68.6843 35.1837 69.4002C43.59 70.1161 51.9591 67.6526 58.6368 62.4965C65.3146 57.3404 69.8152 49.8668 71.2492 41.5529C71.3057 41.1182 71.3518 40.6878 71.4022 40.2488C72.0962 34.5128 71.3449 28.6943 69.2166 23.3228Z" fill="url(#paint1_radial)"/>
<path d="M69.2166 23.3228C67.7526 19.8001 64.7828 15.9965 62.4572 14.7942C64.1159 18.0067 65.267 21.4567 65.8695 25.0216V25.0538L65.8756 25.0894C68.4727 32.5213 68.097 40.6693 64.8271 47.8307C60.9653 56.1167 51.6178 64.6097 36.9861 64.1967C21.1764 63.749 7.25326 52.0176 4.65034 36.6522C4.17653 34.2292 4.65034 33.0008 4.88855 31.0316C4.5636 32.5612 4.38227 34.1178 4.34692 35.6811V35.8549C4.35431 44.2917 7.52627 52.4187 13.2359 58.6298C18.9456 64.8409 26.7775 68.6843 35.1837 69.4002C43.59 70.1161 51.9591 67.6526 58.6368 62.4965C65.3146 57.3404 69.8152 49.8668 71.2492 41.5529C71.3057 41.1182 71.3518 40.6878 71.4022 40.2488C72.0962 34.5128 71.3449 28.6943 69.2166 23.3228Z" fill="url(#paint2_radial)"/>
<path d="M52.8428 27.2838C52.9158 27.3351 52.9836 27.3864 53.0523 27.4377C52.2059 25.9369 51.1523 24.5628 49.9225 23.356C39.4499 12.8817 47.1779 0.645128 48.4811 0.0235209L48.4941 0.00439453C40.0307 4.95986 37.1591 14.1336 36.8948 18.7222C37.2878 18.6952 37.6773 18.6622 38.0789 18.6622C41.0819 18.6677 44.0299 19.4683 46.6231 20.9827C49.2163 22.497 51.3623 24.6711 52.8428 27.2838Z" fill="url(#paint3_radial)"/>
<path d="M38.1004 29.3755C38.0447 30.2136 35.0836 33.1043 34.0482 33.1043C24.4668 33.1043 22.9114 38.9004 22.9114 38.9004C23.3357 43.7811 26.7367 47.8011 30.848 49.9276C31.0358 50.025 31.2262 50.1128 31.4166 50.1989C31.7464 50.3449 32.0762 50.48 32.4059 50.604C33.8169 51.1034 35.2948 51.3885 36.7902 51.4499C53.5841 52.2376 56.8373 31.3672 44.7181 25.3111C47.5771 24.9391 50.4724 25.6421 52.8425 27.2838C51.362 24.671 49.2161 22.497 46.6229 20.9826C44.0296 19.4682 41.0816 18.6676 38.0787 18.6621C37.6787 18.6621 37.2875 18.6951 36.8946 18.7221C33.5147 18.9544 30.2832 20.1999 27.6217 22.2961C28.1355 22.7308 28.7154 23.3116 29.9369 24.5156C32.2234 26.7682 38.0873 29.1016 38.1004 29.3755Z" fill="url(#paint4_radial)"/>
<path d="M38.1004 29.3755C38.0447 30.2136 35.0836 33.1043 34.0482 33.1043C24.4668 33.1043 22.9114 38.9004 22.9114 38.9004C23.3357 43.7811 26.7367 47.8011 30.848 49.9276C31.0358 50.025 31.2262 50.1128 31.4166 50.1989C31.7464 50.3449 32.0762 50.48 32.4059 50.604C33.8169 51.1034 35.2948 51.3885 36.7902 51.4499C53.5841 52.2376 56.8373 31.3672 44.7181 25.3111C47.5771 24.9391 50.4724 25.6421 52.8425 27.2838C51.362 24.671 49.2161 22.497 46.6229 20.9826C44.0296 19.4682 41.0816 18.6676 38.0787 18.6621C37.6787 18.6621 37.2875 18.6951 36.8946 18.7221C33.5147 18.9544 30.2832 20.1999 27.6217 22.2961C28.1355 22.7308 28.7154 23.3116 29.9369 24.5156C32.2234 26.7682 38.0873 29.1016 38.1004 29.3755Z" fill="url(#paint5_radial)"/>
<path d="M26.0508 21.1754C26.3238 21.3492 26.549 21.5005 26.7464 21.637C25.9786 18.9497 25.9459 16.1056 26.6516 13.4014C23.5435 14.9071 20.7818 17.0415 18.5411 19.6696C18.7055 19.6653 23.5931 19.5774 26.0508 21.1754Z" fill="url(#paint6_radial)"/>
<path d="M4.65491 36.652C7.25523 52.0175 21.181 63.7489 36.9907 64.1966C51.6223 64.6104 60.9699 56.1166 64.8317 47.8305C68.1016 40.6691 68.4773 32.5211 65.8802 25.0893V25.0571C65.8802 25.0319 65.875 25.0171 65.8802 25.0249L65.8863 25.0814C67.0817 32.8859 63.1121 40.4469 56.9064 45.5597L56.8873 45.6032C44.796 55.4506 33.2245 51.5445 30.8824 49.9501C30.7189 49.8718 30.5555 49.7904 30.3921 49.7058C23.3422 46.336 20.4298 39.9131 21.054 34.4047C19.3806 34.4294 17.7359 33.9682 16.3192 33.0771C14.9025 32.186 13.7746 30.9031 13.0723 29.384C14.9228 28.2503 17.0329 27.6093 19.2014 27.5223C21.3699 27.4352 23.5246 27.905 25.4601 28.8867C29.4504 30.6982 33.9911 30.8767 38.1113 29.384C38.0982 29.1101 32.2343 26.7759 29.9478 24.5242C28.7263 23.3201 28.1464 22.7402 27.6326 22.3046C27.355 22.0694 27.0647 21.8494 26.7633 21.6456C26.5633 21.5091 26.3381 21.3613 26.0678 21.184C23.61 19.5861 18.7224 19.6739 18.5607 19.6782H18.545C17.2096 17.9855 17.3035 12.4041 17.38 11.2383C16.985 11.397 16.6079 11.5973 16.2551 11.8355C15.0762 12.6769 13.9742 13.621 12.9618 14.6567C11.8041 15.823 10.7462 17.0842 9.79904 18.4272V18.4324V18.4263C7.63275 21.4975 6.09626 24.9673 5.27826 28.6355C5.26174 28.7041 4.0646 33.9378 4.65491 36.652Z" fill="url(#paint7_radial)"/>
<path d="M49.9241 23.3558C51.1542 24.564 52.2078 25.9396 53.0538 27.4419C53.239 27.5819 53.412 27.721 53.5589 27.8558C61.1982 34.8977 57.1956 44.8521 56.8974 45.5607C63.103 40.4479 67.0691 32.8869 65.8772 25.0824C62.0658 15.5801 55.6055 11.7505 50.3292 3.41138C50.0623 2.98973 49.7954 2.56721 49.5354 2.12121C49.3868 1.86649 49.2677 1.63697 49.1642 1.42571C48.9454 1.00193 48.7768 0.554073 48.6617 0.0912106C48.6619 0.0698519 48.6542 0.0491837 48.6401 0.033149C48.6259 0.0171142 48.6064 0.00683514 48.5852 0.00427257C48.5644 -0.00142419 48.5425 -0.00142419 48.5218 0.00427257C48.5174 0.00427257 48.5104 0.012097 48.5052 0.0138358C48.5 0.0155745 48.4887 0.0233989 48.4809 0.0268765C47.1777 0.645006 39.4498 12.8815 49.9241 23.3558Z" fill="url(#paint8_radial)"/>
<path d="M53.5536 27.8515C53.4067 27.7167 53.2337 27.5776 53.0485 27.4376C52.9798 27.3863 52.912 27.3351 52.839 27.2838C50.4689 25.6421 47.5736 24.9391 44.7146 25.3111C56.8338 31.3707 53.5823 52.2376 36.7868 51.4499C35.2913 51.3885 33.8135 51.1034 32.4025 50.604C32.0727 50.4806 31.7429 50.3455 31.4131 50.1989C31.2227 50.1119 31.0323 50.025 30.8445 49.9276L30.868 49.9424C33.2101 51.5412 44.7781 55.4473 56.8729 45.5955L56.8921 45.5521C57.1937 44.8479 61.1964 34.8908 53.5536 27.8515Z" fill="url(#paint9_radial)"/>
<path d="M22.9117 38.9003C22.9117 38.9003 24.467 33.1041 34.0485 33.1041C35.0839 33.1041 38.0476 30.2134 38.1007 29.3753C33.9805 30.868 29.4398 30.6896 25.4494 28.8781C23.514 27.8963 21.3593 27.4266 19.1908 27.5136C17.0223 27.6007 14.9122 28.2416 13.0616 29.3753C13.764 30.8945 14.8919 32.1773 16.3086 33.0684C17.7252 33.9596 19.37 34.4207 21.0434 34.396C20.4192 39.9053 23.3316 46.3283 30.3814 49.6971C30.5388 49.7728 30.6866 49.8545 30.8483 49.9266C26.7335 47.801 23.336 43.781 22.9117 38.9003Z" fill="url(#paint10_radial)"/>
<path d="M69.2166 23.3228C67.7526 19.8001 64.7828 15.9965 62.4572 14.7942C64.1159 18.0066 65.267 21.4567 65.8695 25.0216L65.8756 25.0781C62.066 15.5801 55.6056 11.7505 50.3293 3.41137C50.0624 2.98973 49.7955 2.56721 49.5356 2.12121C49.3869 1.86649 49.2678 1.63697 49.1644 1.42571C48.9455 1.00193 48.7769 0.554073 48.6619 0.0912106C48.662 0.0698518 48.6543 0.0491837 48.6402 0.033149C48.6261 0.0171142 48.6066 0.00683514 48.5854 0.00427257C48.5646 -0.00142419 48.5427 -0.00142419 48.5219 0.00427257C48.5175 0.00427257 48.5106 0.012097 48.5054 0.0138358C48.5002 0.0155745 48.4888 0.0233989 48.481 0.0268765L48.4941 0.00427257C40.0306 4.95974 37.1591 14.1334 36.8948 18.722C37.2878 18.6951 37.6772 18.662 38.0789 18.662C41.0819 18.6676 44.0299 19.4682 46.6231 20.9826C49.2163 22.4969 51.3622 24.671 52.8427 27.2837C50.4726 25.6421 47.5774 24.9391 44.7183 25.3111C56.8375 31.3707 53.586 52.2375 36.7905 51.4499C35.295 51.3885 33.8172 51.1033 32.4062 50.604C32.0764 50.4805 31.7466 50.3455 31.4168 50.1988C31.2264 50.1119 31.036 50.0249 30.8483 49.9276L30.8717 49.9424C30.7083 49.8641 30.5448 49.7827 30.3814 49.6981C30.5387 49.7737 30.6865 49.8554 30.8483 49.9276C26.7335 47.8011 23.3359 43.7811 22.9117 38.9004C22.9117 38.9004 24.467 33.1042 34.0484 33.1042C35.0839 33.1042 38.0476 30.2135 38.1006 29.3754C38.0876 29.1016 32.2236 26.7673 29.9371 24.5156C28.7157 23.3115 28.1358 22.7316 27.622 22.2961C27.3443 22.0609 27.0541 21.8409 26.7526 21.6371C25.9848 18.9498 25.9521 16.1057 26.6578 13.4014C23.5497 14.9071 20.788 17.0416 18.5474 19.6697H18.5317C17.1964 17.977 17.2903 12.3956 17.3668 11.2297C16.9717 11.3885 16.5946 11.5887 16.2418 11.827C15.0629 12.6683 13.9609 13.6124 12.9486 14.6481C11.795 15.8177 10.7414 17.0819 9.79881 18.4273V18.4325V18.4264C7.63252 21.4976 6.09603 24.9674 5.27803 28.6356L5.23282 28.8581C5.16936 29.1546 4.88507 30.6604 4.84421 30.9838C4.84421 31.0081 4.84421 30.9586 4.84421 30.9838C4.58419 32.5381 4.41812 34.1067 4.34692 35.681V35.8549C4.35431 44.2916 7.52627 52.4186 13.2359 58.6298C18.9456 64.8409 26.7775 68.6842 35.1837 69.4002C43.59 70.1161 51.9591 67.6526 58.6368 62.4965C65.3146 57.3404 69.8152 49.8668 71.2492 41.5528C71.3057 41.1181 71.3518 40.6878 71.4022 40.2488C72.0962 34.5128 71.3449 28.6943 69.2166 23.3228ZM65.8739 25.0537L65.8799 25.0894L65.8739 25.0537Z" fill="url(#paint11_linear)"/>
</g>
<defs>
<linearGradient id="paint0_linear" x1="64.7567" y1="10.7707" x2="8.82163" y2="64.7375" gradientUnits="userSpaceOnUse">
<stop offset="0.048" stop-color="#FFF44F"/>
<stop offset="0.111" stop-color="#FFE847"/>
<stop offset="0.225" stop-color="#FFC830"/>
<stop offset="0.368" stop-color="#FF980E"/>
<stop offset="0.401" stop-color="#FF8B16"/>
<stop offset="0.462" stop-color="#FF672A"/>
<stop offset="0.534" stop-color="#FF3647"/>
<stop offset="0.705" stop-color="#E31587"/>
</linearGradient>
<radialGradient id="paint1_radial" cx="0" cy="0" r="1" gradientUnits="userSpaceOnUse" gradientTransform="translate(62.172 7.71559) scale(70.2433)">
<stop offset="0.129" stop-color="#FFBD4F"/>
<stop offset="0.186" stop-color="#FFAC31"/>
<stop offset="0.247" stop-color="#FF9D17"/>
<stop offset="0.283" stop-color="#FF980E"/>
<stop offset="0.403" stop-color="#FF563B"/>
<stop offset="0.467" stop-color="#FF3750"/>
<stop offset="0.71" stop-color="#F5156C"/>
<stop offset="0.782" stop-color="#EB0878"/>
<stop offset="0.86" stop-color="#E50080"/>
</radialGradient>
<radialGradient id="paint2_radial" cx="0" cy="0" r="1" gradientUnits="userSpaceOnUse" gradientTransform="translate(36.5045 36.4331) scale(70.2433)">
<stop offset="0.3" stop-color="#960E18"/>
<stop offset="0.351" stop-color="#B11927" stop-opacity="0.74"/>
<stop offset="0.435" stop-color="#DB293D" stop-opacity="0.343"/>
<stop offset="0.497" stop-color="#F5334B" stop-opacity="0.094"/>
<stop offset="0.53" stop-color="#FF3750" stop-opacity="0"/>
</radialGradient>
<radialGradient id="paint3_radial" cx="0" cy="0" r="1" gradientUnits="userSpaceOnUse" gradientTransform="translate(44.9729 -8.22518) scale(50.8883)">
<stop offset="0.132" stop-color="#FFF44F"/>
<stop offset="0.252" stop-color="#FFDC3E"/>
<stop offset="0.506" stop-color="#FF9D12"/>
<stop offset="0.526" stop-color="#FF980E"/>
</radialGradient>
<radialGradient id="paint4_radial" cx="0" cy="0" r="1" gradientUnits="userSpaceOnUse" gradientTransform="translate(28.7346 54.781) scale(33.4459)">
<stop offset="0.353" stop-color="#3A8EE6"/>
<stop offset="0.472" stop-color="#5C79F0"/>
<stop offset="0.669" stop-color="#9059FF"/>
<stop offset="1" stop-color="#C139E6"/>
</radialGradient>
<radialGradient id="paint5_radial" cx="0" cy="0" r="1" gradientUnits="userSpaceOnUse" gradientTransform="translate(40.3426 30.6765) rotate(-13.5916) scale(17.7328 20.7607)">
<stop offset="0.206" stop-color="#9059FF" stop-opacity="0"/>
<stop offset="0.278" stop-color="#8C4FF3" stop-opacity="0.064"/>
<stop offset="0.747" stop-color="#7716A8" stop-opacity="0.45"/>
<stop offset="0.975" stop-color="#6E008B" stop-opacity="0.6"/>
</radialGradient>
<radialGradient id="paint6_radial" cx="0" cy="0" r="1" gradientUnits="userSpaceOnUse" gradientTransform="translate(35.6175 4.84161) scale(24.061)">
<stop stop-color="#FFE226"/>
<stop offset="0.121" stop-color="#FFDB27"/>
<stop offset="0.295" stop-color="#FFC82A"/>
<stop offset="0.502" stop-color="#FFA930"/>
<stop offset="0.732" stop-color="#FF7E37"/>
<stop offset="0.792" stop-color="#FF7139"/>
</radialGradient>
<radialGradient id="paint7_radial" cx="0" cy="0" r="1" gradientUnits="userSpaceOnUse" gradientTransform="translate(54.5303 -10.4201) scale(102.657)">
<stop offset="0.113" stop-color="#FFF44F"/>
<stop offset="0.456" stop-color="#FF980E"/>
<stop offset="0.622" stop-color="#FF5634"/>
<stop offset="0.716" stop-color="#FF3647"/>
<stop offset="0.904" stop-color="#E31587"/>
</radialGradient>
<radialGradient id="paint8_radial" cx="0" cy="0" r="1" gradientUnits="userSpaceOnUse" gradientTransform="translate(45.8778 -4.71167) rotate(83.976) scale(75.24 49.3794)">
<stop stop-color="#FFF44F"/>
<stop offset="0.06" stop-color="#FFE847"/>
<stop offset="0.168" stop-color="#FFC830"/>
<stop offset="0.304" stop-color="#FF980E"/>
<stop offset="0.356" stop-color="#FF8B16"/>
<stop offset="0.455" stop-color="#FF672A"/>
<stop offset="0.57" stop-color="#FF3647"/>
<stop offset="0.737" stop-color="#E31587"/>
</radialGradient>
<radialGradient id="paint9_radial" cx="0" cy="0" r="1" gradientUnits="userSpaceOnUse" gradientTransform="translate(35.0508 13.7538) scale(64.0907)">
<stop offset="0.137" stop-color="#FFF44F"/>
<stop offset="0.48" stop-color="#FF980E"/>
<stop offset="0.592" stop-color="#FF5634"/>
<stop offset="0.655" stop-color="#FF3647"/>
<stop offset="0.904" stop-color="#E31587"/>
</radialGradient>
<radialGradient id="paint10_radial" cx="0" cy="0" r="1" gradientUnits="userSpaceOnUse" gradientTransform="translate(51.9691 17.5045) scale(70.1468)">
<stop offset="0.094" stop-color="#FFF44F"/>
<stop offset="0.231" stop-color="#FFE141"/>
<stop offset="0.509" stop-color="#FFAF1E"/>
<stop offset="0.626" stop-color="#FF980E"/>
</radialGradient>
<linearGradient id="paint11_linear" x1="64.0847" y1="10.482" x2="16.4896" y2="58.0763" gradientUnits="userSpaceOnUse">
<stop offset="0.167" stop-color="#FFF44F" stop-opacity="0.8"/>
<stop offset="0.266" stop-color="#FFF44F" stop-opacity="0.634"/>
<stop offset="0.489" stop-color="#FFF44F" stop-opacity="0.217"/>
<stop offset="0.6" stop-color="#FFF44F" stop-opacity="0"/>
</linearGradient>
<clipPath id="clip0">
<rect width="76" height="71.2605" fill="white"/>
</clipPath>
</defs>
</svg>
