<svg width="35" height="30" viewBox="0 0 35 30" fill="none" xmlns="http://www.w3.org/2000/svg">
<g clip-path="url(#clip0)">
<path d="M7.41821 27.0001H26.7021V28.5001C26.7021 28.8979 26.5458 29.2795 26.2676 29.5608C25.9894 29.8421 25.6121 30.0001 25.2187 30.0001H8.90159C8.50817 30.0001 8.13087 29.8421 7.85268 29.5608C7.5745 29.2795 7.41821 28.8979 7.41821 28.5001V27.0001Z" fill="#5B5863"/>
<path fill-rule="evenodd" clip-rule="evenodd" d="M1.48338 0H32.6343C33.0277 0 33.405 0.158035 33.6832 0.43934C33.9614 0.720644 34.1176 1.10218 34.1176 1.5V24C34.1176 24.3978 33.9614 24.7794 33.6832 25.0607C33.405 25.342 33.0277 25.5 32.6343 25.5H1.48338C1.08996 25.5 0.712658 25.342 0.434471 25.0607C0.156284 24.7794 0 24.3978 0 24V1.5C0 1.10218 0.156284 0.720644 0.434471 0.43934C0.712658 0.158035 1.08996 0 1.48338 0Z" fill="#5B5863"/>
<path fill-rule="evenodd" clip-rule="evenodd" d="M2.81839 1.47852H31.2992C31.6589 1.47852 32.0039 1.61902 32.2582 1.86912C32.5125 2.11922 32.6554 2.45843 32.6554 2.81213V22.8163C32.6554 23.17 32.5125 23.5092 32.2582 23.7593C32.0039 24.0094 31.6589 24.1499 31.2992 24.1499H2.81839C2.45869 24.1499 2.11373 24.0094 1.85939 23.7593C1.60505 23.5092 1.46216 23.17 1.46216 22.8163V2.81213C1.46216 2.45843 1.60505 2.11922 1.85939 1.86912C2.11373 1.61902 2.45869 1.47852 2.81839 1.47852Z" fill="white"/>
<mask id="mask0" mask-type="alpha" maskUnits="userSpaceOnUse" x="7" y="7" width="20" height="12">
<rect x="7.16577" y="7.05884" width="19.7861" height="11.4551" fill="#C4C4C4"/>
</mask>
<g mask="url(#mask0)">
<path d="M9.34233 7.50842C9.39633 7.5159 9.4495 7.52338 9.50349 7.52919C9.63751 7.54476 9.77023 7.57002 9.90059 7.60479C9.91335 7.60835 9.92584 7.61279 9.93798 7.61808C9.97009 7.62738 9.99836 7.64679 10.0186 7.67343C10.0388 7.70007 10.0498 7.73252 10.0501 7.76595C10.0551 7.87727 10.0551 7.99026 10.0501 8.09825C10.0509 8.11337 10.0483 8.12848 10.0426 8.14247C10.0368 8.15647 10.028 8.16901 10.0168 8.17918C10.0056 8.18936 9.99222 8.19692 9.97774 8.20131C9.96325 8.20571 9.94796 8.20683 9.93299 8.20459C9.86227 8.19998 9.79183 8.19166 9.72198 8.17967C9.52695 8.14544 9.32729 8.14742 9.13298 8.18548C9.01912 8.20332 8.91649 8.26431 8.84637 8.35579C8.79681 8.42833 8.76572 8.51189 8.75582 8.59919C8.74827 8.65426 8.74438 8.70976 8.74419 8.76534C8.74419 8.99629 8.74419 9.22724 8.74419 9.45819V9.51966C8.77244 9.51966 8.79321 9.51966 8.81397 9.51966H9.81918C9.84078 9.51966 9.86238 9.51966 9.88315 9.51966C9.91591 9.52096 9.94688 9.53494 9.96952 9.55866C9.99216 9.58239 10.0047 9.61398 10.0044 9.64677C10.0044 9.6908 10.0044 9.73566 10.0044 9.77969C10.0044 9.85279 10.0044 9.92507 10.0044 9.99734C10.0068 10.0164 10.0051 10.0357 9.99935 10.0539C9.99359 10.0722 9.98395 10.089 9.97109 10.1032C9.95823 10.1174 9.94245 10.1287 9.92483 10.1362C9.90722 10.1438 9.88818 10.1474 9.86902 10.1469C9.85241 10.1469 9.83579 10.1469 9.81918 10.1469H8.74419V13.4599C8.74457 13.4877 8.74263 13.5155 8.73838 13.543C8.73534 13.5704 8.72307 13.5959 8.70359 13.6154C8.68411 13.6348 8.65859 13.6471 8.63121 13.6501C8.6101 13.6539 8.58868 13.6556 8.56724 13.6551H8.11864C8.0938 13.6551 8.06903 13.6526 8.0447 13.6476C8.01921 13.6431 7.99597 13.6302 7.97867 13.6109C7.96136 13.5916 7.95098 13.5671 7.94917 13.5413C7.94544 13.5121 7.94377 13.4827 7.94418 13.4533V10.1593H7.88603H7.35684C7.33887 10.1606 7.32082 10.1606 7.30284 10.1593C7.27364 10.1578 7.24588 10.1461 7.22424 10.1265C7.2026 10.1068 7.1884 10.0803 7.18405 10.0513C7.17951 10.0374 7.17337 10.024 7.16577 10.0115V9.77387C7.17367 9.75991 7.18008 9.74515 7.18488 9.72984C7.18957 9.70702 7.20065 9.686 7.21683 9.66923C7.23301 9.65247 7.25362 9.64064 7.27626 9.63514C7.29785 9.62756 7.3201 9.622 7.34272 9.61852L7.89101 9.54874L7.94418 9.5396V9.46816C7.94418 9.22973 7.94418 8.99048 7.94834 8.75205C7.95047 8.60877 7.97113 8.46636 8.00981 8.32837C8.04074 8.19729 8.09733 8.07363 8.17633 7.96455C8.25532 7.85547 8.35515 7.76312 8.47004 7.69285C8.62491 7.60337 8.79658 7.54681 8.97431 7.5267L9.14461 7.50842H9.34233Z" fill="#FC4C02"/>
<path d="M16.8968 18.1187C16.6609 18.1187 16.425 18.1187 16.189 18.1187C16.0329 18.1187 15.8767 18.1021 15.7213 18.0871C15.5801 18.0747 15.4397 18.0581 15.2993 18.0365C15.0584 17.9991 14.8175 17.9609 14.5791 17.9135C14.1331 17.8241 13.6932 17.7061 13.2623 17.5605C12.8063 17.408 12.3604 17.2268 11.9273 17.018C10.9684 16.5544 10.0801 15.9573 9.28886 15.2443C9.2625 15.222 9.2398 15.1956 9.22157 15.1662C9.20764 15.1446 9.20064 15.1191 9.20148 15.0934C9.20233 15.0676 9.21099 15.0427 9.22631 15.022C9.24162 15.0013 9.26288 14.9857 9.28726 14.9773C9.31163 14.969 9.33798 14.9682 9.36279 14.9752C9.3976 14.9841 9.4309 14.9981 9.46165 15.0167C9.73857 15.1762 10.0205 15.3266 10.3074 15.4678C10.8873 15.7526 11.485 15.9995 12.0968 16.2072C12.6378 16.3914 13.1886 16.5456 13.7466 16.6691C14.0698 16.7405 14.3946 16.8036 14.7219 16.8518C14.9604 16.8859 15.1988 16.9199 15.4372 16.9465C15.6432 16.9698 15.8526 16.9864 16.0578 16.9997C16.2943 17.0147 16.5313 17.0255 16.7689 17.0321C16.965 17.0379 17.161 17.0412 17.3571 17.0321C17.6321 17.0246 17.907 17.0122 18.1812 16.9931C18.5459 16.9673 18.9097 16.9233 19.2711 16.8693C19.9782 16.7631 20.6772 16.6082 21.3629 16.4057C21.8993 16.248 22.4263 16.06 22.9414 15.8425C23.0055 15.811 23.0785 15.8025 23.1482 15.8184C23.189 15.8271 23.2264 15.8474 23.2559 15.8769C23.2853 15.9064 23.3057 15.9437 23.3144 15.9845C23.3194 16.0104 23.3193 16.037 23.314 16.0628C23.3087 16.0886 23.2984 16.1131 23.2836 16.1349C23.2574 16.1752 23.2232 16.2096 23.1831 16.2362C22.8544 16.4765 22.5081 16.6917 22.1472 16.8801C21.4698 17.2318 20.7569 17.5103 20.0205 17.7108C19.5907 17.8322 19.1544 17.9292 18.7137 18.0016C18.4354 18.0464 18.1563 18.0847 17.8755 18.1046C17.7733 18.1121 17.6711 18.1171 17.5697 18.1179C17.3454 18.1195 17.1211 18.1187 16.8968 18.1187Z" fill="#FC4C02"/>
<path d="M15.8741 11.7611C15.8741 11.7719 15.8674 11.776 15.8683 11.781C15.8661 12.0272 15.9145 12.2712 16.0103 12.498C16.0695 12.6346 16.1589 12.7561 16.2716 12.8534C16.3844 12.9506 16.5177 13.0211 16.6616 13.0595C16.8089 13.1026 16.961 13.1269 17.1144 13.1318C17.312 13.1402 17.5101 13.1302 17.7059 13.1019C17.8831 13.0726 18.058 13.0307 18.2292 12.9765C18.2816 12.9615 18.3331 12.9457 18.3854 12.9316C18.4047 12.9263 18.4245 12.9236 18.4444 12.9233C18.4653 12.9211 18.4863 12.9269 18.5031 12.9395C18.5199 12.9522 18.5313 12.9707 18.535 12.9914C18.5416 13.0135 18.5449 13.0365 18.5449 13.0595C18.5449 13.1601 18.5449 13.2606 18.5449 13.3611C18.545 13.386 18.5386 13.4105 18.5262 13.4321C18.5138 13.4537 18.4959 13.4716 18.4743 13.4841C18.4263 13.5127 18.3763 13.538 18.3248 13.5597C18.1153 13.6389 17.8977 13.6946 17.676 13.7258C17.4288 13.7653 17.1782 13.7781 16.9283 13.764C16.6256 13.7554 16.3281 13.6841 16.0543 13.5547C15.7187 13.388 15.4536 13.1069 15.3067 12.7621C15.2135 12.5471 15.1522 12.3195 15.1247 12.0867C15.0947 11.8546 15.0858 11.6202 15.0982 11.3864C15.107 11.0725 15.1729 10.7629 15.2926 10.4726C15.4423 10.1037 15.7177 9.79968 16.0701 9.61443C16.2554 9.51978 16.4554 9.45715 16.6616 9.42918C16.8457 9.40317 17.032 9.39704 17.2174 9.4109C17.4871 9.42255 17.7494 9.50229 17.98 9.64268C18.2352 9.80617 18.4262 10.0526 18.5208 10.3405C18.5877 10.5371 18.6244 10.7427 18.6297 10.9503C18.6373 11.158 18.6262 11.366 18.5964 11.5717C18.5909 11.609 18.582 11.6457 18.5699 11.6813C18.5651 11.7004 18.5546 11.7175 18.5397 11.7303C18.5248 11.7431 18.5063 11.7509 18.4868 11.7528C18.4544 11.758 18.4216 11.7608 18.3887 11.7611H15.8741ZM15.8658 11.2294H17.8596C17.9019 11.2294 17.9053 11.2294 17.9069 11.1845C17.9069 11.1065 17.9111 11.0292 17.9069 10.9519C17.9064 10.8398 17.8916 10.7281 17.8629 10.6196C17.831 10.4719 17.7556 10.337 17.6463 10.2326C17.537 10.1282 17.3989 10.059 17.2498 10.034C17.0854 10.0014 16.9164 9.99968 16.7513 10.029C16.597 10.0493 16.4501 10.1078 16.3241 10.1992C16.198 10.2906 16.0968 10.412 16.0294 10.5523C15.9492 10.7184 15.8986 10.8972 15.8799 11.0807C15.8741 11.1272 15.8716 11.1729 15.8658 11.2294Z" fill="#FC4C02"/>
<path d="M20.5163 10.1567H19.9182C19.8987 10.1589 19.8789 10.1569 19.8603 10.1506C19.8417 10.1444 19.8247 10.1341 19.8105 10.1205C19.7963 10.107 19.7853 10.0905 19.7782 10.0722C19.7711 10.0539 19.7681 10.0342 19.7695 10.0146C19.765 9.93163 19.765 9.84844 19.7695 9.76542C19.7671 9.7335 19.7772 9.70191 19.7977 9.67728C19.8181 9.65265 19.8473 9.6369 19.8791 9.63333C19.9403 9.62007 20.0021 9.61009 20.0644 9.60343C20.2081 9.58515 20.3527 9.56854 20.4964 9.55109C20.5371 9.54611 20.5387 9.54361 20.5437 9.50291L20.6334 8.6381C20.6384 8.59158 20.6426 8.54589 20.6509 8.50019C20.6543 8.46427 20.6715 8.43107 20.699 8.40765C20.7264 8.38423 20.7619 8.37243 20.7979 8.37475C20.9231 8.37475 21.0485 8.37475 21.1743 8.37475C21.1923 8.37299 21.2106 8.37507 21.2278 8.38086C21.245 8.38664 21.2608 8.396 21.2741 8.40832C21.2874 8.42063 21.298 8.43563 21.3052 8.45232C21.3123 8.46902 21.3158 8.48703 21.3155 8.50518C21.3155 8.52512 21.3155 8.54506 21.3155 8.56416V9.52285C21.3421 9.52285 21.3628 9.527 21.3836 9.527H22.3971C22.4161 9.5255 22.4351 9.52812 22.4529 9.53469C22.4707 9.54125 22.4869 9.55161 22.5003 9.56503C22.5137 9.57846 22.5241 9.59464 22.5307 9.61245C22.5372 9.63027 22.5399 9.6493 22.5384 9.66823C22.5384 9.7513 22.5384 9.83022 22.5384 9.9108C22.5384 9.9457 22.5384 9.98059 22.5384 10.0146C22.5404 10.049 22.5288 10.0827 22.5061 10.1086C22.4834 10.1344 22.4514 10.1502 22.4171 10.1526C22.3959 10.1556 22.3745 10.157 22.3531 10.1567H21.3205C21.3205 10.1808 21.3205 10.1999 21.3205 10.219V12.5094C21.3193 12.5886 21.3282 12.6676 21.3471 12.7445C21.3614 12.811 21.3939 12.8723 21.4409 12.9214C21.488 12.9706 21.5479 13.0057 21.6137 13.0228C21.6962 13.0462 21.7814 13.0591 21.8671 13.061C22.0189 13.0626 22.1704 13.0478 22.319 13.017C22.3631 13.0095 22.4071 13.0012 22.4511 12.9979C22.5284 12.9912 22.5691 13.0228 22.5708 13.1C22.5708 13.2105 22.5708 13.321 22.5708 13.4323C22.5704 13.4711 22.557 13.5085 22.5327 13.5387C22.5085 13.5688 22.4747 13.5899 22.437 13.5985C22.3455 13.6261 22.2526 13.6488 22.1587 13.6666C21.9377 13.7052 21.7127 13.7153 21.4891 13.6965C21.3275 13.6859 21.1695 13.6438 21.0239 13.5727C20.9143 13.5164 20.818 13.4374 20.7412 13.341C20.6645 13.2446 20.6091 13.133 20.5786 13.0136C20.5375 12.8674 20.5176 12.7161 20.5196 12.5642C20.5196 11.7861 20.5196 11.0077 20.5196 10.229L20.5163 10.1567Z" fill="#FC4C02"/>
<path d="M24.9955 12.9082C25.0021 12.8916 25.0088 12.8758 25.0146 12.8584C25.3552 11.8947 25.693 10.9324 26.0281 9.9715C26.0564 9.88843 26.0846 9.80535 26.1162 9.72228C26.1325 9.68098 26.1513 9.64075 26.1727 9.60182C26.1813 9.58381 26.1944 9.56828 26.2107 9.55666C26.2269 9.54504 26.2459 9.53772 26.2657 9.53536C26.3031 9.52953 26.3408 9.5262 26.3787 9.52539C26.5232 9.52539 26.6686 9.52539 26.814 9.52539C26.9594 9.52539 26.9702 9.60847 26.9353 9.70068C26.9079 9.77711 26.8788 9.85187 26.8522 9.92664L25.9384 12.232C25.7783 12.6385 25.6177 13.0442 25.4566 13.449C25.4411 13.4873 25.4237 13.5248 25.4042 13.5612C25.3935 13.5827 25.3775 13.6013 25.3578 13.615C25.3381 13.6288 25.3152 13.6374 25.2912 13.6401C25.2588 13.6452 25.226 13.6483 25.1932 13.6492C25.0528 13.6492 24.9132 13.6492 24.7729 13.6492C24.7384 13.6482 24.704 13.6452 24.6698 13.6401C24.6467 13.6374 24.6245 13.629 24.6054 13.6157C24.5863 13.6023 24.5707 13.5845 24.5602 13.5637C24.5419 13.5288 24.5236 13.4939 24.5087 13.4573L23.5151 10.975C23.3639 10.5957 23.213 10.2163 23.0623 9.83692C23.0449 9.79372 23.0274 9.75385 23.0133 9.70732C23.0048 9.68042 23 9.65246 22.9992 9.62425C22.9981 9.613 22.9992 9.60164 23.0026 9.59086C23.006 9.58009 23.0116 9.57011 23.019 9.56156C23.0264 9.553 23.0354 9.54605 23.0456 9.54111C23.0558 9.53618 23.0668 9.53337 23.0781 9.53287C23.0928 9.5316 23.1075 9.5316 23.1222 9.53287H23.6148C23.6476 9.53381 23.6804 9.53686 23.7128 9.54201C23.7344 9.54441 23.7549 9.55232 23.7725 9.56498C23.7901 9.57764 23.8042 9.59462 23.8133 9.61428C23.8357 9.65874 23.8554 9.70451 23.8723 9.75135C24.1575 10.5605 24.4419 11.3699 24.7255 12.1796L24.9664 12.8642C24.9714 12.8799 24.9789 12.8941 24.9847 12.909L24.9955 12.9082Z" fill="#FC4C02"/>
<path d="M13.3434 10.1327C13.365 10.1111 13.3824 10.0954 13.399 10.0779C13.5008 9.96867 13.612 9.8686 13.7313 9.77884C13.9557 9.60899 14.2269 9.5124 14.5081 9.5022C14.5995 9.5022 14.6925 9.5022 14.7839 9.5022C14.8104 9.50394 14.8365 9.50983 14.8611 9.51964C14.8799 9.52617 14.8965 9.53792 14.9089 9.55352C14.9212 9.56911 14.9289 9.58791 14.9309 9.6077C14.9343 9.63053 14.9359 9.65358 14.9359 9.67665V10.058C14.9371 10.0793 14.9371 10.1006 14.9359 10.1219C14.9346 10.1504 14.9224 10.1772 14.9018 10.1969C14.8813 10.2165 14.8539 10.2275 14.8254 10.2274C14.7759 10.2312 14.7262 10.2312 14.6767 10.2274C14.2696 10.176 13.8575 10.2724 13.5153 10.4991C13.4804 10.5232 13.4472 10.5506 13.4123 10.5755C13.4 10.5824 13.3901 10.593 13.3842 10.6059C13.3782 10.6187 13.3764 10.6331 13.3791 10.647C13.3799 10.6616 13.3799 10.6763 13.3791 10.691V13.4449C13.3791 13.4698 13.3791 13.4948 13.3791 13.5189C13.3792 13.5516 13.3669 13.5831 13.3447 13.6071C13.3225 13.6312 13.2921 13.6459 13.2595 13.6485C13.2398 13.6497 13.2201 13.6497 13.2005 13.6485H12.7602C12.7389 13.6505 12.7175 13.6505 12.6962 13.6485C12.6647 13.645 12.6355 13.6298 12.6145 13.606C12.5934 13.5822 12.582 13.5515 12.5824 13.5197C12.5816 13.5064 12.5816 13.4931 12.5824 13.4798C12.5824 12.2193 12.5824 10.9596 12.5824 9.70075C12.5824 9.57946 12.6381 9.52546 12.7486 9.52795C12.859 9.53044 12.9762 9.52795 13.09 9.52795H13.1241C13.1609 9.52577 13.1972 9.53769 13.2256 9.56129C13.254 9.5849 13.2723 9.61842 13.2769 9.65505C13.2869 9.7049 13.291 9.75641 13.2977 9.80708C13.311 9.90511 13.3226 10.0031 13.3359 10.1012C13.3378 10.1118 13.3403 10.1224 13.3434 10.1327Z" fill="#FC4C02"/>
<path d="M11.5089 11.5906V13.5097C11.51 13.5271 11.5076 13.5445 11.5019 13.561C11.4962 13.5775 11.4872 13.5926 11.4755 13.6055C11.4638 13.6185 11.4496 13.6289 11.4338 13.6363C11.418 13.6437 11.4009 13.6478 11.3835 13.6484C11.3671 13.6497 11.3508 13.6497 11.3344 13.6484H10.8892C10.7562 13.6484 10.7097 13.6019 10.7097 13.4706V9.70402C10.7096 9.67776 10.7124 9.65157 10.718 9.62593C10.7233 9.59981 10.7371 9.57619 10.7573 9.55876C10.7774 9.54132 10.8027 9.53105 10.8293 9.52956C10.8476 9.52832 10.8659 9.52832 10.8842 9.52956H11.3386C11.3585 9.52791 11.3785 9.52791 11.3984 9.52956C11.4273 9.53319 11.454 9.54681 11.4738 9.56805C11.4937 9.5893 11.5055 9.61682 11.5072 9.64586C11.5085 9.66745 11.5085 9.68908 11.5072 9.71066L11.5089 11.5906Z" fill="#FC4C02"/>
<path d="M23.056 15.2601C22.9032 15.2701 22.7503 15.2776 22.5974 15.29C22.4446 15.3025 22.3058 15.3174 22.1596 15.3324C22.0865 15.3407 22.0126 15.3515 21.9395 15.3582C21.9067 15.3616 21.8736 15.3597 21.8415 15.3523C21.8314 15.3501 21.8219 15.3458 21.8136 15.3396C21.8053 15.3334 21.7984 15.3255 21.7934 15.3165C21.7884 15.3075 21.7853 15.2975 21.7844 15.2872C21.7836 15.2769 21.7849 15.2666 21.7883 15.2568C21.7951 15.2311 21.8069 15.2071 21.8232 15.1861C21.8395 15.1651 21.8598 15.1476 21.883 15.1347C21.9594 15.0857 22.0359 15.0358 22.1156 14.9943C22.3723 14.8622 22.6482 14.7711 22.9331 14.7243C23.1701 14.6817 23.4108 14.6622 23.6517 14.6661C23.8914 14.6657 24.1303 14.6953 24.3628 14.7542C24.4211 14.772 24.4785 14.7928 24.5347 14.8165C24.5708 14.8295 24.6023 14.8528 24.6253 14.8835C24.6484 14.9142 24.6619 14.951 24.6643 14.9893C24.675 15.0742 24.6794 15.1597 24.6776 15.2452C24.6394 15.8332 24.4556 16.4024 24.1426 16.9017C24.0179 17.106 23.8621 17.2896 23.6807 17.4458C23.6569 17.4662 23.631 17.4841 23.6035 17.499C23.5798 17.5105 23.5541 17.5173 23.5279 17.5189C23.5166 17.5203 23.5053 17.519 23.4946 17.5153C23.4839 17.5116 23.4742 17.5056 23.4662 17.4976C23.4582 17.4896 23.4521 17.4798 23.4484 17.4692C23.4447 17.4585 23.4435 17.4471 23.4448 17.4359C23.448 17.4033 23.4561 17.3713 23.4689 17.3411C23.5395 17.1534 23.6143 16.9665 23.6841 16.7787C23.7768 16.5349 23.8531 16.2851 23.9125 16.0311C23.9403 15.9206 23.9562 15.8076 23.9599 15.6938C23.9605 15.6364 23.9558 15.5791 23.9457 15.5226C23.9394 15.4883 23.9249 15.456 23.9035 15.4284C23.8821 15.4008 23.8544 15.3787 23.8228 15.364C23.7324 15.3194 23.6348 15.2913 23.5345 15.2809C23.3756 15.264 23.2158 15.2571 23.056 15.2601Z" fill="#FC4C02"/>
<path d="M11.1269 7.8125C11.1809 7.8189 11.2344 7.82833 11.2873 7.84075C11.3599 7.85777 11.4267 7.89407 11.4805 7.94582C11.5343 7.99757 11.5731 8.06286 11.593 8.13483C11.6247 8.23623 11.627 8.34453 11.5996 8.44719C11.5784 8.53784 11.5289 8.61937 11.4582 8.68001C11.3876 8.74064 11.2995 8.77723 11.2067 8.78448C11.1167 8.79659 11.0252 8.79066 10.9375 8.76703C10.8539 8.74501 10.7789 8.69826 10.7222 8.63289C10.6656 8.56753 10.63 8.48659 10.6202 8.40067C10.6067 8.32257 10.6095 8.24252 10.6285 8.16557C10.6463 8.08116 10.6894 8.00417 10.752 7.94482C10.8146 7.88548 10.8938 7.84657 10.9791 7.83327C11.0279 7.82364 11.0773 7.8167 11.1269 7.8125Z" fill="#FC4C02"/>
</g>
</g>
<defs>
<clipPath id="clip0">
<rect width="34.1176" height="30" fill="white"/>
</clipPath>
</defs>
</svg>
