<svg width="140" height="40" viewBox="0 0 140 40" fill="none" xmlns="http://www.w3.org/2000/svg">
<rect width="140" height="40" rx="3" fill="#111111"/>
<path d="M34.9052 23.5874L39.5122 21.0855C40.0327 20.8026 40.5789 20.0815 39.5122 19.5044L34.9027 17.0098L31.6025 20.3085L34.9052 23.5874Z" fill="#F49C71"/>
<path d="M31.3824 20.2988L20.8281 30.8503C21.0668 30.8799 21.3536 30.8174 21.6826 30.6381L34.6858 23.577L31.3824 20.2988Z" fill="#D54A6D"/>
<path d="M31.3907 20.1146L34.69 16.8159L21.6909 9.77945C21.4083 9.62652 21.1008 9.5739 20.8281 9.6331L31.3907 20.1146Z" fill="#ADD69E"/>
<path d="M31.3565 20.0909L20.794 9.60938C20.3572 9.70557 20 10.0805 20 10.8336V29.3835C20 30.0923 20.2818 30.5914 20.8014 30.6415L31.3565 20.0901V20.0909Z" fill="#24B9C2"/>
<path fill-rule="evenodd" clip-rule="evenodd" d="M57.2001 24.4631V25.1715C57.2001 28.0052 55.0995 29.4917 52.8705 29.4917C50.0462 29.4917 48.1323 27.4013 48.1323 24.8115C48.1323 22.1637 50.2913 20.1198 52.8938 20.1198C55.1695 20.1198 56.6166 21.4437 57.0017 22.8953L55.1578 23.4528C54.9594 22.6747 54.1075 21.9082 52.8705 21.9082C51.33 21.9082 50.0579 23.1508 50.0579 24.7999C50.0579 26.3793 51.2133 27.7033 52.8705 27.7033C54.1075 27.7033 55.0061 27.0645 55.2278 26.1703H52.4503V24.4631H57.2001ZM58.0871 26.2632C58.0871 24.4167 59.6159 23.0115 61.5065 23.0115C63.3854 23.0115 64.8908 24.3818 64.8908 26.2284C64.8908 28.0981 63.362 29.4917 61.4831 29.4917C59.5925 29.4917 58.0871 28.1329 58.0871 26.2632ZM59.9543 26.24C59.9543 27.1807 60.6429 27.831 61.4948 27.831C62.3467 27.831 63.0236 27.1807 63.0236 26.24C63.0236 25.3109 62.335 24.6606 61.4831 24.6606C60.6312 24.6606 59.9543 25.3109 59.9543 26.24ZM65.8011 26.2632C65.8011 24.4167 67.3299 23.0115 69.2205 23.0115C71.0994 23.0115 72.6049 24.3818 72.6049 26.2284C72.6049 28.0981 71.0761 29.4917 69.1972 29.4917C67.3066 29.4917 65.8011 28.1329 65.8011 26.2632ZM67.6684 26.24C67.6684 27.1807 68.3569 27.831 69.2088 27.831C70.0608 27.831 70.7376 27.1807 70.7376 26.24C70.7376 25.3109 70.0491 24.6606 69.1972 24.6606C68.3452 24.6606 67.6684 25.3109 67.6684 26.24ZM80.1672 23.1508V29.2594C80.1672 31.3963 78.7201 32.4531 76.8062 32.4531C74.8106 32.4531 73.7602 31.3615 73.5268 30.2233L75.1957 29.7124C75.3591 30.293 75.7325 30.8737 76.7945 30.8737C77.6348 30.8737 78.3583 30.4208 78.3583 29.3059V28.5278H78.335C77.7748 29.2478 76.9812 29.3523 76.5378 29.3523C74.7405 29.3523 73.5268 27.9587 73.5268 26.2167C73.5268 24.6489 74.6705 23.0579 76.4677 23.0579C76.8529 23.0579 77.7165 23.1392 78.3583 23.9057H78.3817V23.1508H80.1672ZM78.405 26.2167C78.405 25.2993 77.7398 24.6722 76.8879 24.6722C76.0476 24.6722 75.3707 25.3109 75.3707 26.2167C75.3707 27.1458 76.0359 27.7729 76.8879 27.7729C77.7281 27.7729 78.405 27.1458 78.405 26.2167ZM81.8594 19.8875H83.6916V29.3523H81.8594V19.8875ZM86.8893 25.5548H89.5735C89.5385 25.1019 89.1533 24.4747 88.243 24.4747C87.4261 24.4747 86.9593 25.1483 86.8893 25.5548ZM91.3707 26.751H86.8426C86.9593 27.5291 87.6245 27.9704 88.3831 27.9704C88.9083 27.9704 89.4918 27.6568 89.7018 27.1458L91.1956 27.6568C90.7872 28.853 89.6318 29.4917 88.4064 29.4917C86.5159 29.4917 84.987 28.1678 84.987 26.24C84.987 24.4515 86.4925 22.9999 88.2897 22.9999C90.1453 22.9999 91.394 24.2657 91.394 26.1006C91.394 26.3213 91.394 26.5419 91.3707 26.751ZM102.504 23.1741C102.504 25.1832 101.08 26.1471 99.1664 26.1471H97.731V29.3523H95.8404V20.2591H99.2365C101.069 20.2591 102.504 21.2462 102.504 23.1741ZM100.602 23.2205C100.602 22.3379 99.855 22.036 99.0731 22.036H97.731V24.3935H99.0847C99.8316 24.3935 100.602 24.0683 100.602 23.2205ZM103.694 19.8875H105.527V29.3523H103.694V19.8875ZM108.923 29.4685C107.837 29.4685 106.857 28.7717 106.857 27.622V27.5755C106.857 26.089 108.386 25.6709 109.6 25.6709H110.207C110.545 25.6709 110.697 25.4967 110.697 25.2412C110.697 24.8464 110.37 24.4747 109.716 24.4747C109.156 24.4747 108.736 24.7999 108.596 25.3225L106.997 24.9625C107.207 23.6386 108.491 23.0115 109.798 23.0115C111.35 23.0115 112.482 23.836 112.482 25.5083V29.3523H110.802V28.5859L110.778 28.5743C110.312 29.2362 109.6 29.4685 108.923 29.4685ZM109.448 28.1446C110.253 28.1446 110.685 27.5755 110.685 26.9484V26.809H109.6C109.226 26.809 108.689 27.0297 108.689 27.5174C108.689 27.9587 109.063 28.1446 109.448 28.1446ZM114.268 32.4066L115.797 28.6904L113.171 23.1508H115.178L116.73 26.6929L118.119 23.1508H119.998L116.217 32.4066H114.268ZM52.6983 10.996C52.5743 10.5097 52.0419 9.82745 51.0353 9.82745C49.9193 9.82745 49.0659 10.7202 49.0659 11.9106C49.0659 13.0864 49.8756 14.0082 51.028 14.0082C52.0346 14.0082 52.6035 13.4276 52.7275 12.7308H50.6779V11.9178H53.6976V12.23C53.6976 13.6671 52.691 14.8284 51.0353 14.8284C49.3139 14.8284 48.1323 13.5873 48.1323 11.9324C48.1323 10.2339 49.3869 9 51.0426 9C52.4212 9 53.3183 9.82019 53.5809 10.7202L52.6983 10.996ZM58.3876 9.07984V9.88552H55.6305V11.4678H58.1396V12.2735H55.6305V13.9502H58.4168V14.7631H54.7333V9.07984H58.3876ZM60.7946 9.90729H58.9857V9.07984H63.5079V9.90729H61.6917V14.7631H60.7946V9.90729ZM66.9433 14.7631H66.0462V9.07984H66.9433V14.7631ZM69.6202 9.90729H67.8113V9.07984H72.3336V9.90729H70.5174V14.7631H69.6202V9.90729ZM74.4926 11.9324C74.4926 10.2775 75.8128 9 77.432 9C79.0513 9 80.3569 10.2484 80.3569 11.9106C80.3569 13.5873 79.0221 14.8284 77.4101 14.8284C75.7909 14.8284 74.4926 13.609 74.4926 11.9324ZM75.4335 11.9106C75.4335 13.0647 76.3014 14.001 77.4247 14.001C78.5407 14.001 79.4159 13.0647 79.4159 11.9106C79.4159 10.7565 78.5407 9.82745 77.4247 9.82745C76.3014 9.82745 75.4335 10.7565 75.4335 11.9106ZM86.1993 14.7631H85.2657L82.3189 10.3863V14.7631H81.4364V9.07984H82.494L85.3094 13.2679V9.07984H86.1993V14.7631Z" fill="white"/>
</svg>
