<svg width="173" height="50" viewBox="0 0 173 50" fill="none" xmlns="http://www.w3.org/2000/svg">
<rect width="173" height="50" rx="3" fill="#111111"/>
<path d="M51.9056 27.5098L56.5127 25.0078C57.0331 24.725 57.5793 24.0039 56.5127 23.4267L51.9031 20.9321L48.603 24.2308L51.9056 27.5098Z" fill="#F49C71"/>
<path d="M48.3829 24.2212L37.8286 34.7726C38.0673 34.8022 38.354 34.7397 38.6831 34.5605L51.6863 27.4993L48.3829 24.2212Z" fill="#D54A6D"/>
<path d="M48.3912 24.037L51.6905 20.7383L38.6914 13.7018C38.4087 13.5489 38.1013 13.4963 37.8286 13.5555L48.3912 24.037Z" fill="#ADD69E"/>
<path d="M48.357 24.0133L37.7944 13.5317C37.3577 13.6279 37.0005 14.0029 37.0005 14.756V33.3059C37.0005 34.0146 37.2823 34.5137 37.8019 34.5639L48.357 24.0125V24.0133Z" fill="#24B9C2"/>
<path fill-rule="evenodd" clip-rule="evenodd" d="M74.2008 28.3848V29.0932C74.2008 31.9268 72.1001 33.4133 69.8711 33.4133C67.0469 33.4133 65.133 31.3229 65.133 28.7332C65.133 26.0853 67.292 24.0414 69.8945 24.0414C72.1702 24.0414 73.6173 25.3653 74.0024 26.817L72.1585 27.3744C71.9601 26.5963 71.1082 25.8298 69.8711 25.8298C68.3306 25.8298 67.0586 27.0725 67.0586 28.7216C67.0586 30.301 68.2139 31.6249 69.8711 31.6249C71.1082 31.6249 72.0068 30.9861 72.2285 30.0919H69.451V28.3848H74.2008ZM75.0877 30.1848C75.0877 28.3383 76.6165 26.9331 78.5071 26.9331C80.386 26.9331 81.8915 28.3035 81.8915 30.15C81.8915 32.0197 80.3627 33.4133 78.4838 33.4133C76.5932 33.4133 75.0877 32.0546 75.0877 30.1848ZM76.955 30.1616C76.955 31.1023 77.6435 31.7526 78.4955 31.7526C79.3474 31.7526 80.0243 31.1023 80.0243 30.1616C80.0243 29.2325 79.3357 28.5822 78.4838 28.5822C77.6319 28.5822 76.955 29.2325 76.955 30.1616ZM82.8018 30.1848C82.8018 28.3383 84.3306 26.9331 86.2212 26.9331C88.1001 26.9331 89.6056 28.3035 89.6056 30.15C89.6056 32.0197 88.0767 33.4133 86.1978 33.4133C84.3073 33.4133 82.8018 32.0546 82.8018 30.1848ZM84.669 30.1616C84.669 31.1023 85.3576 31.7526 86.2095 31.7526C87.0614 31.7526 87.7383 31.1023 87.7383 30.1616C87.7383 29.2325 87.0498 28.5822 86.1978 28.5822C85.3459 28.5822 84.669 29.2325 84.669 30.1616ZM97.1679 27.0725V33.1811C97.1679 35.3179 95.7208 36.3747 93.8069 36.3747C91.8112 36.3747 90.7609 35.2831 90.5275 34.145L92.1964 33.634C92.3597 34.2147 92.7332 34.7953 93.7952 34.7953C94.6354 34.7953 95.359 34.3424 95.359 33.2275V32.4494H95.3357C94.7755 33.1695 93.9819 33.274 93.5384 33.274C91.7412 33.274 90.5275 31.8804 90.5275 30.1384C90.5275 28.5706 91.6712 26.9796 93.4684 26.9796C93.8535 26.9796 94.7171 27.0608 95.359 27.8273H95.3823V27.0725H97.1679ZM95.4057 30.1384C95.4057 29.2209 94.7405 28.5938 93.8885 28.5938C93.0483 28.5938 92.3714 29.2325 92.3714 30.1384C92.3714 31.0674 93.0366 31.6946 93.8885 31.6946C94.7288 31.6946 95.4057 31.0674 95.4057 30.1384ZM98.8601 23.8091H100.692V33.274H98.8601V23.8091ZM103.89 29.4764H106.574C106.539 29.0235 106.154 28.3964 105.244 28.3964C104.427 28.3964 103.96 29.07 103.89 29.4764ZM108.371 30.6726H103.843C103.96 31.4507 104.625 31.892 105.384 31.892C105.909 31.892 106.492 31.5784 106.703 31.0674L108.196 31.5784C107.788 32.7746 106.632 33.4133 105.407 33.4133C103.517 33.4133 101.988 32.0894 101.988 30.1616C101.988 28.3732 103.493 26.9215 105.29 26.9215C107.146 26.9215 108.395 28.1873 108.395 30.0222C108.395 30.2429 108.395 30.4636 108.371 30.6726ZM119.505 27.0957C119.505 29.1048 118.081 30.0687 116.167 30.0687H114.732V33.274H112.841V24.1807H116.237C118.069 24.1807 119.505 25.1679 119.505 27.0957ZM117.603 27.1421C117.603 26.2595 116.856 25.9576 116.074 25.9576H114.732V28.3151H116.085C116.832 28.3151 117.603 27.9899 117.603 27.1421ZM120.695 23.8091H122.527V33.274H120.695V23.8091ZM125.923 33.3901C124.838 33.3901 123.858 32.6933 123.858 31.5436V31.4971C123.858 30.0106 125.387 29.5926 126.6 29.5926H127.207C127.546 29.5926 127.697 29.4184 127.697 29.1629C127.697 28.768 127.371 28.3964 126.717 28.3964C126.157 28.3964 125.737 28.7216 125.597 29.2442L123.998 28.8841C124.208 27.5602 125.492 26.9331 126.799 26.9331C128.351 26.9331 129.483 27.7576 129.483 29.43V33.274H127.802V32.5075L127.779 32.4959C127.312 33.1578 126.6 33.3901 125.923 33.3901ZM126.449 32.0662C127.254 32.0662 127.686 31.4971 127.686 30.87V30.7307H126.6C126.227 30.7307 125.69 30.9513 125.69 31.4391C125.69 31.8804 126.063 32.0662 126.449 32.0662ZM131.268 36.3283L132.797 32.612L130.171 27.0725H132.179L133.731 30.6145L135.12 27.0725H136.999L133.217 36.3283H131.268ZM69.699 14.9177C69.575 14.4314 69.0425 13.7491 68.036 13.7491C66.92 13.7491 66.0666 14.6419 66.0666 15.8322C66.0666 17.0081 66.8762 17.9299 68.0287 17.9299C69.0352 17.9299 69.6042 17.3492 69.7282 16.6524H67.6786V15.8395H70.6983V16.1516C70.6983 17.5887 69.6917 18.7501 68.036 18.7501C66.3146 18.7501 65.133 17.5089 65.133 15.854C65.133 14.1555 66.3876 12.9216 68.0433 12.9216C69.4218 12.9216 70.319 13.7418 70.5816 14.6419L69.699 14.9177ZM75.3882 13.0015V13.8071H72.6311V15.3895H75.1403V16.1951H72.6311V17.8718H75.4174V18.6847H71.734V13.0015H75.3882ZM77.7952 13.8289H75.9863V13.0015H80.5086V13.8289H78.6924V18.6847H77.7952V13.8289ZM83.944 18.6847H83.0469V13.0015H83.944V18.6847ZM86.6209 13.8289H84.812V13.0015H89.3342V13.8289H87.518V18.6847H86.6209V13.8289ZM91.4932 15.854C91.4932 14.1991 92.8134 12.9216 94.4327 12.9216C96.0519 12.9216 97.3575 14.1701 97.3575 15.8322C97.3575 17.5089 96.0227 18.7501 94.4108 18.7501C92.7915 18.7501 91.4932 17.5307 91.4932 15.854ZM92.4341 15.8322C92.4341 16.9863 93.3021 17.9226 94.4254 17.9226C95.5414 17.9226 96.4166 16.9863 96.4166 15.8322C96.4166 14.6781 95.5414 13.7491 94.4254 13.7491C93.3021 13.7491 92.4341 14.6781 92.4341 15.8322ZM103.2 18.6847H102.266L99.3196 14.308V18.6847H98.437V13.0015H99.4947L102.31 17.1895V13.0015H103.2V18.6847Z" fill="white"/>
</svg>
