<svg width="32" height="32" viewBox="0 0 32 32" fill="none" xmlns="http://www.w3.org/2000/svg">
<g clip-path="url(#clip0)">
<path d="M16.0938 30.4141C24.0026 30.4141 30.4141 24.0026 30.4141 16.0938C30.4141 8.18486 24.0026 1.77344 16.0938 1.77344C8.18486 1.77344 1.77344 8.18486 1.77344 16.0938C1.77344 24.0026 8.18486 30.4141 16.0938 30.4141Z" stroke="#5B5863" stroke-width="2.5" stroke-linecap="round" stroke-linejoin="round"/>
<path d="M16.0938 24.0495V24.0646" stroke="#5B5863" stroke-width="3" stroke-linecap="round" stroke-linejoin="round"/>
<path d="M16.0942 18.4804C16.0649 17.9639 16.2042 17.4518 16.4912 17.0214C16.7782 16.5909 17.1972 16.2653 17.6853 16.0937C18.2834 15.865 18.8202 15.5006 19.2535 15.0292C19.6868 14.5577 20.0047 13.9922 20.1823 13.377C20.3599 12.7618 20.3923 12.1138 20.2768 11.4839C20.1614 10.8541 19.9014 10.2597 19.5172 9.74744C19.133 9.2352 18.6352 8.81912 18.0629 8.53197C17.4906 8.24482 16.8594 8.09444 16.2191 8.09267C15.5788 8.09089 14.9468 8.23777 14.3729 8.52174C13.799 8.80571 13.2989 9.21902 12.9119 9.72912" stroke="#5B5863" stroke-width="3" stroke-linecap="round" stroke-linejoin="round"/>
</g>
<defs>
<clipPath id="clip0">
<rect width="32" height="32" fill="white"/>
</clipPath>
</defs>
</svg>
