<svg width="30" height="30" viewBox="0 0 30 30" fill="none" xmlns="http://www.w3.org/2000/svg">
<g clip-path="url(#clip0)">
<path d="M14.9062 28.5234C22.3233 28.5234 28.3359 22.5108 28.3359 15.0938C28.3359 7.67674 22.3233 1.66406 14.9062 1.66406C7.48924 1.66406 1.47656 7.67674 1.47656 15.0938C1.47656 22.5108 7.48924 28.5234 14.9062 28.5234Z" stroke="white" stroke-width="2" stroke-linecap="round" stroke-linejoin="round"/>
<path d="M14.9062 21.5705V21.5857" stroke="white" stroke-width="2" stroke-linecap="round" stroke-linejoin="round"/>
<path d="M14.9067 18.2882C14.9067 16.8815 15.0099 16.3674 15.2791 15.9637C15.5482 15.56 15.9412 15.2547 16.3989 15.0937C16.9598 14.8792 17.4632 14.5375 17.8696 14.0954C18.2759 13.6533 18.5741 13.1229 18.7407 12.5459C18.9072 11.969 18.9375 11.3613 18.8293 10.7706C18.7211 10.18 18.4772 9.62253 18.1169 9.14215C17.7566 8.66176 17.2897 8.27156 16.753 8.00227C16.2163 7.73298 15.6244 7.59195 15.0239 7.59029C14.4234 7.58862 13.8308 7.72636 13.2926 7.99267C12.7544 8.25898 12.2853 8.64658 11.9224 9.12496" stroke="white" stroke-width="2" stroke-linecap="round" stroke-linejoin="round"/>
</g>
<defs>
<clipPath id="clip0">
<rect width="30" height="30" fill="white"/>
</clipPath>
</defs>
</svg>
