<svg width="58" height="67" viewBox="0 0 58 67" fill="none" xmlns="http://www.w3.org/2000/svg">
<g clip-path="url(#clip0)">
<path fill-rule="evenodd" clip-rule="evenodd" d="M19.9432 16.8691L19.831 9.36284L24.3643 6.74765L31.0945 2.27971L33.8601 2.16916L36.7379 5.21895L38.2889 15.3519L36.1886 19.0535L27.4586 18.8324L19.9432 16.8691Z" fill="white"/>
<path fill-rule="evenodd" clip-rule="evenodd" d="M10.9889 38.332L13.3097 31.9046L17.8429 26.5674L20.1598 21.9928L21.1577 20.4717L37.7281 17.967L41.0468 23.0869L50.3299 44.9729L47.1233 48.8881L38.7221 62.7341L36.7379 63.1649L21.3743 63.5995L10.6562 51.8349L8.88858 42.0337L10.9889 38.332Z" fill="white"/>
<path fill-rule="evenodd" clip-rule="evenodd" d="M32.2046 21.6687C32.2046 21.6687 31.6554 21.5582 33.1987 21.2265C34.742 20.8948 34.7459 20.5822 35.1868 20.14C35.6278 19.6978 35.8521 18.7219 35.8521 17.6354C35.8521 16.5489 36.4013 13.3886 36.2892 12.5232C36.177 11.6578 34.301 8.38691 33.5313 7.9485C32.7616 7.5101 24.1399 6.74765 24.1399 6.74765L21.4865 8.81769L19.4945 10.6743L19.9432 16.5603C19.9432 16.5603 19.3823 18.4093 19.4945 19.1679C19.6067 19.9265 20.7206 20.8072 21.1577 21.2379C21.5948 21.6687 23.2542 23.43 23.8034 23.9637C24.3527 24.4974 24.4764 25.0502 25.7954 24.6194C27.1144 24.1886 27.8957 24.1848 28.8898 23.4224C29.8838 22.6599 32.1969 21.6802 32.1969 21.6802L32.2046 21.6687Z" fill="#FFD400"/>
<path fill-rule="evenodd" clip-rule="evenodd" d="M27.1221 12.4126C27.4586 11.5358 27.8957 9.90415 28.6693 9.36281C29.6997 8.73897 30.896 8.43358 32.104 8.486C33.1058 8.59655 34.9741 9.5763 35.4228 10.3387C35.8714 11.1012 35.8637 14.151 35.8637 14.151L35.6394 16.6594L34.0922 16.5489L30.7657 15.2489H30.2165C30.2165 15.2489 29.6634 15.4586 28.0001 14.5932C26.3369 13.7278 26.7856 13.2932 27.1221 12.4202V12.4126Z" fill="white"/>
<path fill-rule="evenodd" clip-rule="evenodd" d="M23.5945 14.8067C23.6834 14.7313 23.7808 14.666 23.8846 14.6123C24.5799 14.2793 25.2926 13.9828 26.0197 13.724C26.0197 13.724 27.4509 10.1367 26.2325 8.71857C25.0141 7.30042 22.3645 7.52153 22.3645 7.52153C22.3645 7.52153 19.4984 9.15316 19.5989 9.80887C19.6995 10.4646 19.8233 12.7443 19.9355 13.0683C20.0476 13.3924 20.4886 16.8806 20.4886 16.8806L21.4788 16.4498L22.9176 15.3633C23.162 15.2011 23.3888 15.0146 23.5945 14.8067Z" fill="white"/>
<path fill-rule="evenodd" clip-rule="evenodd" d="M44.6904 47.6987L46.2956 47.8206C46.5276 47.8206 46.7597 47.8435 46.9918 47.8511C48.1831 47.8969 49.2236 48.0723 50.3376 48.2095C51.0686 48.2934 52.2716 48.7546 52.3683 49.662C52.492 51.0039 52.0936 52.483 53.2502 53.032C54.4299 53.8249 57.0678 55.651 57.0678 55.651L57.8414 57.0577L55.5206 59.1315L44.1372 65.883L38.9503 64.1408V60.0045L39.163 54.4501L38.6138 49.4408L39.4918 47.4775L41.7082 46.8257L44.6865 47.6987H44.6904Z" fill="#FFD400"/>
<path fill-rule="evenodd" clip-rule="evenodd" d="M11.7741 45.255C11.6619 45.1521 9.6467 45.7391 9.51519 45.762C8.57915 45.8993 7.38781 46.5245 7.38781 47.5461C7.41605 48.0692 7.31934 48.5915 7.10545 49.071C6.88113 49.4052 6.67581 49.7514 6.49045 50.108C6.35528 50.5722 6.0866 50.988 5.71686 51.305L3.37288 51.5185H1.70192L0.711722 52.7041L1.48531 55.8721L1.26097 58.3691L0.487381 61.2092L2.3556 62.1851L16.5046 65.8868L19.7266 64.907L21.3821 60.8737L21.0456 59.3488L19.4984 56.299C19.4984 56.299 12.7797 46.677 11.7625 45.2436L11.7741 45.255Z" fill="#FFD400"/>
<path fill-rule="evenodd" clip-rule="evenodd" d="M18.9801 11.0556C18.7441 3.46923 21.7534 0.114465 28.0001 9.77188e-05C34.2469 -0.114269 38.1535 3.12613 38.9542 7.38058C39.7549 11.635 39.2907 17.2238 40.8882 20.1287C42.4856 23.0336 43.4913 25.2752 46.2221 28.63C48.9529 31.9847 50.6393 35.4005 51.4438 39.5482C52.2483 43.6959 52.6932 45.6478 50.6509 47.7674C48.6086 49.887 44.9805 53.3561 42.2574 49.441C40.8882 47.4777 40.7412 45.0416 43.031 44.5232C44.5047 44.1839 45.5645 44.2944 46.6592 44.8548C47.7538 45.4152 48.0207 45.1522 46.7017 44.1839C45.3827 43.2156 45.1081 44.1076 45.5645 42.5446C46.3547 40.1042 46.2907 37.4729 45.3827 35.0726C44.8025 33.6431 42.8492 29.7355 41.0119 28.7786C40.8495 28.6833 40.366 28.4889 40.6948 28.8892C41.186 29.4915 43.8317 33.3305 44.5821 35.614C45.3827 38.0691 45.4949 40.4136 45.081 41.9004C44.6672 43.3871 43.9438 43.9895 43.0736 43.9895C42.2033 43.9895 41.4103 44.3974 41.4103 42.4264C41.4103 40.4555 41.6153 37.4705 40.54 34.943C39.4648 32.4155 38.1535 30.7038 37.8673 29.644C37.5811 28.5842 36.9622 25.7289 35.6626 24.1049C34.3629 22.4808 33.7827 21.4363 34.4635 19.5721C35.1442 17.7079 34.6375 17.2276 33.276 16.8349C31.9145 16.4423 30.0966 15.8857 29.6479 14.986C29.1992 14.0863 29.4738 12.3174 30.4911 11.86C31.5084 11.4025 33.1987 12.0201 33.276 13.3124C33.3534 14.6048 32.7074 15.249 32.8776 15.5464C33.0478 15.8437 33.9568 16.2745 34.4248 15.7751C34.8928 15.2757 34.9934 13.7013 34.537 12.2488C34.0806 10.7963 33.8562 9.7861 32.2162 9.45444C30.5762 9.12277 29.8297 9.2257 29.0367 10.2359C28.2392 11.3404 27.9141 12.7096 28.1316 14.0482C28.356 15.2223 27.8996 14.5514 27.1066 14.4904C26.6566 14.4188 26.1993 14.4021 25.7451 14.4408C24.9328 14.4866 25.2191 13.9834 25.1417 13.1409C25.0644 12.2984 24.9793 10.5676 23.7802 9.89666C22.5811 9.2257 20.5505 10.0072 20.6007 12.8092C20.651 15.6112 21.6606 16.9455 22.2098 15.9352C22.7591 14.925 22.496 15.4358 21.9274 14.986C21.3589 14.5361 20.9605 12.6986 21.5793 12.1382C22.1982 11.5779 22.9409 11.5779 23.347 11.9095C23.7531 12.2412 24.3681 13.3696 24.2521 14.1054C24.136 14.8411 24.078 14.8869 23.347 15.3939C22.6159 15.9009 22.322 16.347 21.4672 16.8997C20.6123 17.4525 20.2797 18.7372 20.9605 19.0613C21.6412 19.3853 21.7031 19.3434 22.2601 20.1821C22.8171 21.0208 23.8073 21.4134 26.1822 21.0246C28.5571 20.6357 29.5434 20.0715 31.3459 19.4539C32.6533 19.0117 32.1969 19.0727 32.6533 18.5619C33.1097 18.051 33.8446 18.783 33.1639 19.2328C32.4831 19.6827 30.9436 20.1325 29.8103 20.5214C28.677 20.9102 27.3735 22.0462 24.9947 21.9243C22.6159 21.8023 24.2521 21.8633 23.5094 21.8137C22.7668 21.7641 22.4341 21.8633 23.2271 22.4237C24.02 22.9841 23.9697 23.1556 24.6505 23.3767C25.5329 23.6252 26.4751 23.5673 27.3194 23.2128C28.3985 22.8316 31.1216 21.6421 31.9609 21.0817C32.8003 20.5214 33.5081 21.2533 32.6417 21.8137C31.7753 22.3741 31.5548 22.1949 30.7657 22.7058C29.9767 23.2166 28.4991 24.0477 27.5321 24.9474C26.5651 25.847 26.3563 25.8966 25.1417 25.95C23.9272 26.0033 23.2077 24.7758 22.7049 24.2154C22.2021 23.655 22.2446 23.3233 21.6257 22.6524C21.0069 21.9814 20.945 22.1454 20.8328 22.8735C20.7206 23.6016 19.8697 25.4468 19.127 26.6857C18.509 27.8577 18.2714 29.1885 18.4463 30.498C18.5585 31.5578 18.2722 31.6683 17.429 32.8997C16.5858 34.131 15.1701 37.7412 14.9458 38.9268C14.6425 40.561 14.5129 42.222 14.559 43.8827C14.6673 45.2856 14.2728 45.5677 13.2478 44.6147C12.2227 43.6616 11.8862 42.6018 11.9443 41.1837C11.9627 40.3446 12.0928 39.5115 12.331 38.7057C12.4858 38.2635 12.331 37.9433 12.0139 38.4998C11.3138 39.6893 11.279 41.7479 11.453 42.476C11.6271 43.2041 11.6774 44.4889 13.5456 46.2234C15.7248 48.2669 18.0182 50.1888 20.4151 51.9799C22.6894 53.6039 23.4824 55.6168 20.1288 57.0692C22.233 59.8712 23.3702 61.3237 22.4496 63.1688C24.3294 62.109 23.61 59.6006 22.701 58.9296C21.7921 58.2587 22.3374 57.744 23.1304 58.251C23.9233 58.7581 24.2057 59.7759 27.3348 59.7035C30.464 59.6311 33.8137 59.3223 35.6935 56.6537C37.5733 53.9851 37.9253 56.2305 37.4689 57.7974C37.0125 59.3642 35.9217 62.8943 37.6584 62.5627C37.8828 60.4888 38.4011 58.6971 38.4011 56.4631C38.4011 54.2291 38.6254 53.1426 38.4514 49.8984C38.2812 46.7724 39.6504 46.5589 41.0622 46.5589C42.474 46.5589 42.0292 47.4624 41.1241 47.4014C40.219 47.3404 39.252 47.6835 39.1901 49.9747C39.1282 52.2658 39.1901 52.0485 39.5769 54.1109C39.9637 56.1734 40.0333 56.7795 39.6891 59.0897C39.3448 61.3999 39.0664 62.6389 40.6135 64.0456C42.1607 65.4523 44.4815 65.0482 45.6651 64.1562C46.8487 63.2641 49.1192 61.1903 51.1615 60.5193C53.2037 59.8484 55.3659 59.3489 56.5031 58.232C57.6403 57.115 57.3502 56.3258 56.1589 55.7159C54.9675 55.1059 53.8381 55.3766 52.9291 54.374C52.0201 53.3714 51.5676 51.1298 51.9041 49.948C52.2406 48.7662 52.6429 49.277 52.6429 50.1195C52.5814 51.0912 52.906 52.0482 53.548 52.7881C54.4028 53.8479 55.1957 54.3587 56.5573 55.1898C57.9188 56.0209 58.7697 57.3742 57.064 58.556C55.3582 59.7378 54.4028 60.3973 52.9794 60.9577C51.0795 61.7556 49.3338 62.8712 47.8195 64.2553C46.3961 65.6544 45.6032 66.8857 42.8221 66.8857C40.0411 66.8857 38.7685 66.2224 37.9446 64.5984C37.3761 63.4776 37.0898 63.6453 35.7902 63.5882C34.4906 63.531 30.112 63.4776 26.7082 63.5348C23.3044 63.592 22.1634 64.1486 20.6317 65.3799C19.1 66.6113 18.5391 67.5605 15.642 66.6113C12.7449 65.662 11.2171 64.6022 6.88883 63.7597C2.56059 62.9172 4.89684 63.3099 2.28597 62.7495C-0.324904 62.1891 -0.150846 60.9653 0.193402 59.9551C0.53765 58.9449 1.38086 57.3818 0.642085 55.3194C-0.0966948 53.257 0.193402 51.126 2.18927 51.126C4.18513 51.126 6.05722 51.5072 6.83081 48.9454C7.6044 46.3835 7.85582 48.385 7.62374 49.0559C7.39167 49.7269 7.28723 51.5682 5.53118 51.8503C3.77513 52.1324 3.37673 51.7397 2.28983 51.7397C1.20294 51.7397 0.773595 52.4641 1.32284 53.6954C1.87209 54.9268 2.51804 56.2115 2.40974 57.2713C2.37426 58.1865 2.00956 59.0595 1.38086 59.734C0.607273 60.7366 0.700104 61.2589 2.12351 61.5791C3.54692 61.8993 6.0959 62.5893 8.4747 63.1497C10.8535 63.7101 11.0353 63.7025 15.1701 64.7699C19.305 65.8374 20.4538 63.9313 20.7864 61.6363C21.119 59.3413 19.5371 57.1607 18.0788 54.9801C16.6206 52.7995 15.0231 50.2835 13.093 47.9885C11.1629 45.6935 10.0219 45.5258 9.05876 46.0252C8.09564 46.5246 7.92158 46.4064 7.86743 45.1369C7.81327 43.8675 7.69724 43.0135 8.77253 41.1112C10.0473 38.8219 11.1114 36.4246 11.952 33.948C13.1124 30.7648 14.1064 30.1358 16.0365 27.4024C17.9667 24.6691 17.1157 25.7289 18.4772 23.8837C19.8388 22.0386 19.4404 22.3588 19.3282 19.4615C19.216 16.5643 19.1077 14.8869 18.9955 11.0746L18.9801 11.0556ZM13.5649 33.7994C13.8589 34.1463 14.2728 33.3228 14.7021 33.0102C14.8885 32.8452 15.0293 32.6361 15.1111 32.4027C15.193 32.1693 15.2133 31.9192 15.1701 31.6759C15.1276 31.4129 14.6944 31.4968 14.6093 31.5921C14.3424 31.8551 14.4004 32.2783 14.2225 32.6443C14.0097 33.0865 13.2864 33.441 13.5765 33.7879L13.5649 33.7994ZM37.9524 22.1111C38.5635 22.6219 38.9464 23.0641 39.2791 22.3093C39.6117 21.5545 39.6272 21.2457 38.7995 20.9407C38.1956 20.7306 37.6609 20.363 37.2523 19.8771C36.8655 19.4539 36.7533 20.1744 37.055 20.8797C37.2065 21.3773 37.5223 21.8107 37.9524 22.1111ZM25.1649 15.188C24.9551 15.1268 24.7326 15.1206 24.5196 15.1701C24.3066 15.2196 24.1104 15.323 23.9504 15.4701C23.9239 15.512 23.9064 15.5587 23.8991 15.6075C23.8918 15.6563 23.8947 15.706 23.9078 15.7536C23.9209 15.8012 23.9438 15.8456 23.9751 15.8841C24.0064 15.9225 24.0454 15.9542 24.0896 15.9772C24.3488 16.0877 24.519 15.8361 24.5693 15.6379C24.5963 15.554 24.6311 15.4435 24.7162 15.4168C24.8013 15.3901 24.9947 15.4168 25.103 15.3596C25.2113 15.3024 25.1881 15.188 25.1533 15.188H25.1649ZM27.1724 15.2643C27.3465 15.5197 27.6559 15.5197 27.915 15.6455C28.0543 15.7065 28.3366 15.7904 28.4217 15.5959C28.6229 14.9746 27.7681 15.169 27.3735 15.169C27.2846 15.169 27.0873 15.1461 27.1724 15.2795V15.2643ZM31.3304 12.5576C31.7172 12.5576 32.2433 13.2514 32.2936 14.0406C32.2936 14.1625 32.6301 14.1511 32.6804 14.0406C32.8622 13.728 32.7306 13.3772 32.6455 13.0036C32.5791 12.8332 32.4784 12.6778 32.3494 12.5468C32.2205 12.4158 32.066 12.3118 31.8952 12.2412C31.6795 12.1366 31.4362 12.1007 31.1989 12.1382C31.1293 12.1726 30.8856 12.5195 31.3111 12.5576H31.3304ZM22.8751 12.3594C22.5231 12.386 22.6508 12.6567 22.6701 12.8778C23.1613 13.1485 23.2039 13.7623 23.3083 14.2464C23.3083 14.4332 23.5984 14.3493 23.6255 14.2883C23.8421 13.9071 23.5752 13.4573 23.4785 12.996C23.3872 12.7336 23.2239 12.5013 23.0066 12.325C22.9718 12.2946 22.9099 12.3594 22.8751 12.3594ZM33.7054 3.78946C33.3495 3.51116 32.8003 3.40823 32.6339 3.85808C32.4638 4.2393 32.5334 4.64721 32.4367 5.07418C32.4367 5.20761 32.2665 5.24192 32.1698 5.37153C32.1154 5.42729 32.0822 5.49988 32.0758 5.577C32.0695 5.65411 32.0904 5.73102 32.135 5.79469C32.4638 6.12636 33.0672 5.47446 33.5081 5.24192C33.833 5.03987 34.3088 5.30291 34.6685 5.07418C34.6959 5.05381 34.7188 5.02803 34.7355 4.99848C34.7523 4.96893 34.7627 4.93627 34.766 4.90256C34.7692 4.86885 34.7654 4.83485 34.7546 4.8027C34.7438 4.77055 34.7263 4.74097 34.7033 4.71583C34.4284 4.35175 34.0906 4.03818 33.7054 3.78946Z" fill="#231F20"/>
<path fill-rule="evenodd" clip-rule="evenodd" d="M43.9168 48.2591C43.9671 48.0303 44.0908 47.5805 44.3036 47.4966C44.3208 47.4901 44.3392 47.4873 44.3576 47.4882C44.376 47.4892 44.394 47.494 44.4104 47.5023C44.4268 47.5105 44.4413 47.5221 44.4529 47.5362C44.4644 47.5504 44.4729 47.5667 44.4776 47.5843C44.5279 47.7253 44.3732 48.5526 44.4351 48.728C44.497 48.9033 44.7368 48.8957 44.8992 48.8461C45.038 48.7909 45.1631 48.7068 45.2659 48.5995C45.3687 48.4923 45.4468 48.3645 45.4949 48.2248C45.4949 48.2248 45.4949 48.2248 45.4678 48.2248C45.4408 48.2248 45.3557 48.4535 45.1855 48.503C45.0153 48.5526 44.9843 48.503 44.9534 48.4116C44.9224 48.3201 45.0617 47.4432 44.9959 47.245C44.9803 47.2027 44.9559 47.164 44.9244 47.1314C44.8929 47.0987 44.855 47.0728 44.8129 47.0553C44.7708 47.0378 44.7255 47.029 44.6798 47.0295C44.6341 47.03 44.589 47.0398 44.5473 47.0582C44.1256 47.1955 43.9439 47.8207 43.8317 48.2019L43.8897 47.3289L43.3637 47.4966L43.3405 49.3074L43.8317 49.1435C43.8291 48.8415 43.8576 48.5401 43.9168 48.2438V48.2591Z" fill="#231F20"/>
<path fill-rule="evenodd" clip-rule="evenodd" d="M46.1911 48.4573C46.3431 48.4012 46.4784 48.3088 46.5851 48.1883C46.6918 48.0679 46.7664 47.9232 46.8023 47.7673C46.7995 47.7601 46.7948 47.7538 46.7887 47.7491C46.7825 47.7444 46.7752 47.7415 46.7675 47.7406C46.7327 47.7406 46.6553 48.0379 46.4155 48.1218C46.3111 48.1561 46.2144 48.1218 46.1911 48.0646C46.173 47.9203 46.173 47.7743 46.1911 47.63L46.2105 46.8142L46.7868 46.6274V46.433L46.2105 46.6198L46.2337 45.8573L45.7193 46.1471L45.6922 47.8702C45.6744 48.0145 45.6744 48.1605 45.6922 48.3048C45.7618 48.5259 45.9939 48.5526 46.2105 48.4763L46.1911 48.4573Z" fill="#231F20"/>
</g>
<defs>
<clipPath id="clip0">
<rect width="58" height="67" fill="white"/>
</clipPath>
</defs>
</svg>
