<svg width="81" height="61" viewBox="0 0 81 61" fill="none" xmlns="http://www.w3.org/2000/svg">
<path d="M10.1 6.73333H70.7V43.7667H74.0667V6.73333C74.0667 4.94754 73.3573 3.23489 72.0945 1.97215C70.8318 0.709403 69.1191 0 67.3333 0H13.4667C11.6809 0 9.96823 0.709403 8.70548 1.97215C7.44274 3.23489 6.73333 4.94754 6.73333 6.73333V43.7667H10.1V6.73333ZM52.1833 47.1333V52.1833H28.6167V47.1333H0C0 48.9018 0.348325 50.653 1.02509 52.2868C1.70185 53.9207 2.6938 55.4052 3.9443 56.6557C6.46979 59.1812 9.89508 60.6 13.4667 60.6H67.3333C70.9049 60.6 74.3302 59.1812 76.8557 56.6557C79.3812 54.1302 80.8 50.7049 80.8 47.1333H52.1833Z" fill="#5B5863"/>
<path d="M52.4551 34.3791C51.9883 35.4272 51.4357 36.392 50.7955 37.279C49.9229 38.4882 49.2084 39.3253 48.6578 39.7901C47.8042 40.553 46.8896 40.9437 45.9103 40.9659C45.2072 40.9659 44.3594 40.7715 43.3724 40.3771C42.3822 39.9845 41.4722 39.7901 40.6402 39.7901C39.7676 39.7901 38.8317 39.9845 37.8306 40.3771C36.828 40.7715 36.0204 40.9771 35.4028 40.9974C34.4637 41.0363 33.5276 40.6345 32.5933 39.7901C31.9969 39.2845 31.251 38.4179 30.3574 37.1901C29.3986 35.8791 28.6104 34.3587 27.9929 32.6255C27.3315 30.7533 27 28.9404 27 27.1853C27 25.1748 27.447 23.4407 28.3423 21.9876C29.0459 20.8204 29.982 19.8997 31.1536 19.2238C32.3252 18.5479 33.5911 18.2035 34.9543 18.1815C35.7003 18.1815 36.6785 18.4057 37.8941 18.8464C39.1062 19.2886 39.8845 19.5129 40.2258 19.5129C40.4809 19.5129 41.3455 19.2507 42.8113 18.7279C44.1974 18.2431 45.3673 18.0424 46.3257 18.1215C48.9226 18.3252 50.8737 19.3201 52.1712 21.1127C49.8486 22.4804 48.6997 24.3961 48.7226 26.8536C48.7435 28.7678 49.458 30.3607 50.8622 31.6255C51.4986 32.2125 52.2093 32.6662 53 32.9884C52.8285 33.4717 52.6475 33.9347 52.4551 34.3791ZM46.4991 11.6002C46.4991 13.1005 45.9351 14.5014 44.8109 15.798C43.4543 17.3394 41.8135 18.2302 40.0341 18.0896C40.0114 17.9096 39.9983 17.7202 39.9983 17.5211C39.9983 16.0808 40.6434 14.5393 41.7891 13.279C42.3611 12.6409 43.0885 12.1103 43.9707 11.687C44.8509 11.2701 45.6836 11.0395 46.4667 11C46.4895 11.2006 46.4991 11.4012 46.4991 11.6002V11.6002Z" fill="black"/>
</svg>
