<svg width="31" height="19" viewBox="0 0 31 19" fill="none" xmlns="http://www.w3.org/2000/svg">
<path d="M0.5 2.56757C0.5 1.35365 1.33441 0.5 2.21429 0.5H28.7857C29.6656 0.5 30.5 1.35365 30.5 2.56757V16.4324C30.5 17.6463 29.6656 18.5 28.7857 18.5H2.21429C1.33442 18.5 0.5 17.6463 0.5 16.4324V2.56757Z" fill="#FFF5F8" stroke="#FD3E72"/>
<path d="M9.59375 13.0781C10.1016 13.0781 10.5752 12.9902 11.0146 12.8145C11.4541 12.6387 11.835 12.3896 12.1523 12.0771C12.4697 11.7646 12.7188 11.3838 12.8994 10.9297C13.0801 10.4756 13.1729 9.98242 13.1729 9.44531C13.1729 8.91309 13.0801 8.41992 12.8994 7.96582C12.7188 7.5166 12.4697 7.13086 12.1523 6.81836C11.835 6.50586 11.4541 6.25684 11.0146 6.08105C10.5752 5.90527 10.1016 5.81738 9.59375 5.81738C9.06641 5.81738 8.58301 5.91016 8.13379 6.0957C7.68457 6.28125 7.30371 6.53027 6.99121 6.85254C6.67871 7.1748 6.43945 7.55566 6.26367 8.00488C6.08789 8.4541 6 8.93262 6 9.44531C6 9.96289 6.08789 10.4463 6.26367 10.8955C6.43945 11.3447 6.67871 11.7256 6.99121 12.0479C7.30371 12.3701 7.68457 12.6191 8.13379 12.8047C8.58301 12.9902 9.06641 13.0781 9.59375 13.0781ZM9.59375 11.9502C9.25195 11.9502 8.93945 11.8867 8.64648 11.7549C8.35352 11.6279 8.10449 11.4473 7.9043 11.2227C7.69922 10.998 7.54297 10.7344 7.42578 10.4268C7.30859 10.1191 7.25488 9.79199 7.25488 9.44531C7.25488 9.10352 7.30859 8.77637 7.42578 8.46875C7.54297 8.16602 7.69922 7.89746 7.9043 7.67285C8.10449 7.44824 8.35352 7.27246 8.64648 7.14062C8.93945 7.01367 9.25195 6.94531 9.59375 6.94531C9.91602 6.94531 10.2236 7.00879 10.5117 7.13574C10.7949 7.2627 11.0439 7.43359 11.249 7.64844C11.4541 7.86816 11.6152 8.13184 11.7373 8.44434C11.8545 8.75684 11.918 9.08887 11.918 9.44531C11.918 9.80664 11.8545 10.1387 11.7373 10.4512C11.6152 10.7637 11.4541 11.0273 11.249 11.2471C11.0439 11.4668 10.7949 11.6377 10.5117 11.7646C10.2236 11.8916 9.91602 11.9502 9.59375 11.9502Z" fill="#FD3E72"/>
<path d="M14.5938 13H15.7998V10.1875H18.6855V9.10352H15.7998V6.97949H19.2373V5.89551H14.5938V13Z" fill="#FD3E72"/>
<path d="M20.5508 13H21.7568V10.1875H24.6426V9.10352H21.7568V6.97949H25.1943V5.89551H20.5508V13Z" fill="#FD3E72"/>
</svg>
