<svg width="198" height="198" viewBox="0 0 198 198" fill="none" xmlns="http://www.w3.org/2000/svg">
<circle cx="99" cy="99" r="99" fill="#FFF0F4"/>
<path d="M62.1419 101.866C60.792 100.479 59.9565 98.5641 59.9548 96.4487L59.9327 69.0302C59.9154 47.0758 77.2862 29.2293 98.6548 29.2473C120.024 29.2653 137.423 47.1446 137.44 69.1036L137.462 96.5136C137.466 100.744 134.132 104.17 130.016 104.167C125.9 104.163 122.56 100.731 122.557 96.5011L122.535 69.091C122.524 55.5786 111.817 44.5765 98.6671 44.5654C85.5169 44.5541 74.8274 55.5349 74.8382 69.0425L74.86 96.4607C74.8634 100.691 71.5295 104.117 67.4135 104.113C65.3556 104.112 63.4913 103.253 62.1419 101.866Z" fill="#FF5886"/>
<path d="M70.5351 167.193C60.2163 167.193 51.8213 160.778 51.8213 152.892V108.083C51.8213 100.198 60.2163 93.7822 70.5351 93.7822H129.172C139.491 93.7822 147.886 100.198 147.886 108.083V152.892C147.886 160.778 139.491 167.193 129.172 167.193H70.5351Z" fill="#EE3A6B"/>
<path d="M138.033 111.842C138.033 107.479 132.905 103.908 126.636 103.908H73.0707C66.8024 103.908 61.6738 107.479 61.6738 111.842V149.134C61.6738 153.497 66.8024 157.068 73.0707 157.068H126.636C132.905 157.068 138.033 153.497 138.033 149.134V111.842Z" fill="#FF5886"/>
<path d="M108.48 120.423C108.48 115.497 104.069 111.504 98.6274 111.504C93.1859 111.504 88.7744 115.497 88.7744 120.423C88.7744 123.686 90.717 126.574 93.6065 128.129L90.8658 149.476H98.87H106.874L104.108 127.876C106.744 126.276 108.48 123.512 108.48 120.423Z" fill="white"/>
<path d="M166.703 54.1305C178.608 54.1305 188.259 44.4793 188.259 32.574C188.259 20.6687 178.608 11.0176 166.703 11.0176C154.798 11.0176 145.146 20.6687 145.146 32.574C145.146 44.4793 154.798 54.1305 166.703 54.1305Z" fill="#08AE7E" stroke="#08AE7E" stroke-width="5" stroke-linecap="round" stroke-linejoin="round"/>
<path d="M157.122 32.5736L163.509 38.9607L176.283 26.1865" stroke="white" stroke-width="5" stroke-linecap="round" stroke-linejoin="round"/>
</svg>
