<svg width="215" height="165" viewBox="0 0 215 165" fill="none" xmlns="http://www.w3.org/2000/svg">
<path d="M214.974 164.813C214.974 164.886 166.847 164.949 107.494 164.949C48.141 164.949 0 164.886 0 164.813C0 164.74 48.1183 164.677 107.494 164.677C166.869 164.677 214.974 164.736 214.974 164.813Z" fill="#263238"/>
<path d="M50.1568 13.423C51.6478 17.0789 52.0206 21.0948 51.2282 24.9627C50.4357 28.8305 48.5136 32.3762 45.705 35.1511C42.8964 37.926 39.3278 39.8053 35.4507 40.551C31.5736 41.2968 27.5624 40.8756 23.9248 39.3406C20.2873 37.8056 17.1869 35.226 15.0161 31.9282C12.8453 28.6304 11.7017 24.7626 11.73 20.8146C11.7584 16.8665 12.9574 13.0156 15.1753 9.74931C17.3933 6.48301 20.5304 3.94815 24.1897 2.46559C29.0863 0.47652 34.5724 0.513422 39.4418 2.56819C44.3112 4.62296 48.1654 8.52738 50.1568 13.423Z" fill="#FCCA3E"/>
<path d="M45.7549 15.1994C46.8903 17.9846 47.1739 21.044 46.5698 23.9904C45.9657 26.9369 44.501 29.6379 42.3612 31.7516C40.2214 33.8653 37.5026 35.2967 34.549 35.8646C31.5954 36.4324 28.5396 36.1113 25.7686 34.9418C22.9975 33.7723 20.6357 31.807 18.9821 29.2946C17.3284 26.7823 16.4573 23.8358 16.4789 20.8281C16.5005 17.8205 17.414 14.8868 19.1036 12.3985C20.7932 9.9102 23.183 7.97906 25.9706 6.84953C27.8179 6.09844 29.795 5.71863 31.7891 5.73178C33.7832 5.74492 35.7552 6.15078 37.5924 6.92616C39.4296 7.70155 41.0961 8.83127 42.4966 10.2508C43.8971 11.6703 45.0043 13.3519 45.7549 15.1994Z" fill="#FCCA3E"/>
<path d="M45.7553 15.199C45.7106 15.1293 45.6712 15.0565 45.6372 14.981L45.3192 14.3359L45.0875 13.8543C44.9966 13.6863 44.8785 13.5045 44.7559 13.3047C44.4947 12.8416 44.2002 12.3983 43.8745 11.9781C43.0084 10.8012 41.9701 9.76138 40.7945 8.8935C37.9932 6.78771 34.5468 5.7218 31.0458 5.87845C27.5448 6.0351 24.2073 7.40455 21.6053 9.75211C21.0722 10.2287 20.5728 10.7418 20.1107 11.2876C19.879 11.5647 19.6564 11.8646 19.452 12.1553C19.2268 12.4426 19.0233 12.7463 18.8432 13.0639C18.0332 14.3399 17.4406 15.7415 17.0897 17.2115C16.6893 18.7246 16.5359 20.2924 16.6354 21.8544C16.8417 25.1048 18.1088 28.1977 20.2424 30.6585C21.2568 31.8509 22.4563 32.8725 23.795 33.6841C24.4431 34.0841 25.1186 34.4378 25.8166 34.7425C26.5086 35.0247 27.2189 35.26 27.9426 35.4467C29.3418 35.8179 30.7898 35.9711 32.2357 35.901C34.9129 35.7988 37.5151 34.9884 39.7769 33.5523C41.5804 32.4014 43.12 30.8818 44.2944 29.0936C45.4688 27.3053 46.2516 25.2887 46.5912 23.1763C46.8328 21.7373 46.8543 20.2698 46.6548 18.8243C46.5962 18.294 46.499 17.7686 46.3641 17.2524C46.3141 17.0253 46.2732 16.7981 46.2187 16.63L46.0461 16.1485C45.9507 15.8578 45.878 15.6306 45.8234 15.458C45.7947 15.3811 45.7719 15.3021 45.7553 15.2218C45.7954 15.2937 45.8274 15.3699 45.8507 15.4489C45.9143 15.617 46.0006 15.8396 46.1051 16.1258L46.2868 16.63C46.3459 16.8163 46.3913 17.0253 46.4504 17.2524C46.5954 17.7693 46.7017 18.2962 46.7684 18.8288C46.9967 20.2857 46.9967 21.7694 46.7684 23.2263C46.4462 25.3705 45.672 27.4218 44.4973 29.2443C43.3225 31.0668 41.7739 32.6188 39.954 33.7976C37.0018 35.6577 33.5138 36.4809 30.0414 36.1372C29.3 36.0535 28.5654 35.9184 27.8427 35.7329C27.1121 35.5446 26.3943 35.3094 25.6939 35.0287C24.9828 34.717 24.2937 34.3573 23.6314 33.9521C22.2615 33.1248 21.0343 32.0817 19.9971 30.8629C17.8362 28.3489 16.5595 25.1954 16.3628 21.8862C16.2564 20.2926 16.4098 18.6923 16.8171 17.1479C16.9984 16.3951 17.2322 15.6558 17.5167 14.9355C17.8255 14.2402 18.1807 13.5663 18.5797 12.9185C18.7638 12.5902 18.9718 12.2759 19.2021 11.9781C19.4293 11.6828 19.6564 11.3785 19.8745 11.0968C20.3487 10.5417 20.8602 10.0196 21.4054 9.53405C23.4457 7.70232 25.9375 6.44778 28.6241 5.89974C30.753 5.47613 32.9477 5.51022 35.0624 5.99974C37.1772 6.48927 39.1636 7.42303 40.8899 8.73905C42.0709 9.62427 43.107 10.6879 43.9609 11.8918C44.282 12.325 44.572 12.7804 44.8286 13.2547C44.9421 13.4591 45.0557 13.6408 45.1466 13.8135L45.3646 14.3041L45.6554 14.9628C45.6962 15.0381 45.7297 15.1173 45.7553 15.199Z" fill="#E7B52A"/>
<g opacity="0.3">
<path opacity="0.3" d="M45.7051 15.3897C45.6233 15.4306 45.3144 14.8354 44.6512 13.8451C43.7258 12.4574 42.5919 11.2208 41.2894 10.179C40.3983 9.46809 39.4307 8.85862 38.4047 8.36183C37.2327 7.79968 35.9928 7.39196 34.7159 7.14888C33.3119 6.88157 31.8766 6.81883 30.4546 6.96262C29.7063 7.04002 28.9652 7.1752 28.2377 7.36693C26.7336 7.76162 25.3026 8.39508 23.9992 9.24315C23.3658 9.64911 22.7658 10.1048 22.2048 10.606C21.6605 11.0934 21.1561 11.6236 20.6965 12.1915C20.247 12.7284 19.8399 13.2995 19.479 13.8996C18.7976 15.0078 18.2646 16.2007 17.8935 17.4476C17.5695 18.5395 17.3668 19.6639 17.2893 20.8003C17.1875 22.4643 17.3407 24.1342 17.7436 25.752C18.0253 26.9104 18.257 27.5374 18.1752 27.5692C18.0934 27.601 17.7209 27.0286 17.3121 25.8792C16.7207 24.2386 16.4374 22.5029 16.4762 20.7594C16.4993 19.5492 16.6656 18.3461 16.9713 17.175C17.3248 15.83 17.8613 14.5399 18.5659 13.3408C18.9411 12.6884 19.368 12.067 19.8424 11.4828C20.331 10.8762 20.8673 10.3095 21.4461 9.78829C22.0474 9.23974 22.6915 8.73996 23.3723 8.29369C24.7791 7.36298 26.3314 6.67359 27.9651 6.25393C28.7518 6.04871 29.5541 5.90892 30.3638 5.83598C31.1444 5.76053 31.9299 5.74838 32.7125 5.79964C33.4629 5.84153 34.2088 5.94331 34.943 6.10401C37.4973 6.64237 39.8704 7.82813 41.8346 9.54752C43.1501 10.6935 44.2434 12.0717 45.06 13.6134C45.5961 14.7037 45.7687 15.3624 45.7051 15.3897Z" fill="black"/>
</g>
<g opacity="0.3">
<path opacity="0.3" d="M36.665 28.669L37.6962 31.1085L35.5156 32.0171L34.5116 29.6412C32.3038 30.4226 29.9687 30.6225 28.356 30.1909L28.4287 27.0109C30.0481 27.3552 31.7292 27.2738 33.3078 26.7746L31.7723 23.1403C29.1056 23.5719 26.0664 23.9081 24.749 20.7916C23.7768 18.4839 24.6172 15.7945 27.8926 13.9501L26.875 11.5287L29.0511 10.6201L30.0551 12.996C31.6545 12.4228 33.3672 12.2375 35.0522 12.4554L35.0931 15.5946C33.8168 15.4333 32.5212 15.5275 31.2816 15.8717L32.8444 19.5741C35.502 19.1199 38.5003 18.8019 39.795 21.8774C40.7399 24.1488 39.9086 26.811 36.665 28.669ZM30.423 19.9558L29.1147 16.862C28.0744 17.6116 27.8836 18.4384 28.2061 19.1562C28.5286 19.874 29.3282 20.0557 30.423 19.9558ZM36.3833 23.6264C36.0653 22.8632 35.2567 22.7178 34.18 22.786L35.452 25.7888C36.4378 25.0938 36.6786 24.326 36.3833 23.6264Z" fill="black"/>
</g>
<path d="M131.057 71.5293L137.271 99.9542L155.284 118.862L142.623 148.063L147.656 156.177C147.656 156.177 174.764 125.985 174.005 118.539C172.706 105.556 145.226 78.3573 139.048 73.2465C136.994 71.5293 131.057 71.5293 131.057 71.5293Z" fill="#FFA68A"/>
<path d="M164.747 114.597C164.747 114.67 164.111 114.597 163.116 114.683C160.508 114.91 158.087 116.132 156.356 118.095C155.697 118.845 155.384 119.39 155.32 119.353C155.481 118.818 155.755 118.324 156.124 117.904C156.952 116.835 158.008 115.964 159.215 115.355C160.423 114.746 161.75 114.414 163.102 114.383C163.659 114.338 164.22 114.41 164.747 114.597Z" fill="#EB996E"/>
<path d="M131.779 75.9316C131.779 75.9316 137.135 91.7682 137.29 100.663C137.362 104.824 135.5 128.752 135.5 141.327L144.372 164.822H70.7773L78.8364 138.474L72.2038 90.8732L81.8983 79.4842L131.779 75.9316Z" fill="#FD3E72"/>
<path d="M95.5411 9.91891C92.6336 7.11595 85.9737 8.00181 84.5155 10.0688C83.293 9.58757 81.9323 9.5951 80.7152 10.0899C79.4982 10.5846 78.5182 11.5287 77.9783 12.7264L70.964 14.7525C69.7647 15.0978 68.5154 15.4749 67.6341 16.3562C66.7528 17.2375 66.4211 18.7957 67.2525 19.7179C64.7902 20.5356 64.0725 24.3335 66.0305 26.0144C65.8084 26.308 65.6487 26.6441 65.5614 27.0018C65.474 27.3595 65.4608 27.7312 65.5225 28.0942C65.5842 28.4572 65.7195 28.8038 65.9202 29.1125C66.1208 29.4212 66.3825 29.6856 66.6892 29.8894C64.8658 32.3795 63.4829 35.1637 62.6006 38.1212C62.2326 39.3523 61.9646 40.7197 62.4915 41.8918C63.0185 43.0638 64.654 43.7952 65.6443 42.973C65.3298 43.4912 65.1699 44.0886 65.1836 44.6946C65.1973 45.3007 65.3839 45.8902 65.7215 46.3938C64.5177 46.5028 64.2814 48.3881 65.1673 49.2058C66.0532 50.0235 67.4024 50.0326 68.6017 49.9236C69.8011 49.8146 71.1049 49.6692 72.1406 50.2916C72.1405 50.4395 72.1102 50.5859 72.0516 50.7218C71.993 50.8577 71.9074 50.9803 71.7999 51.082C69.8419 52.8992 69.4422 55.8339 71.1367 57.8964L71.5682 58.4233C72.3314 59.3683 74.1168 60.1587 75.2298 60.6494C78.0419 61.8896 79.65 61.517 82.7165 61.7578C82.0169 63.7703 87.2594 67.7908 92.6064 63.1479C104.077 65.4194 112.282 66.0554 123.952 65.3195C125.615 65.215 127.587 64.8652 128.245 63.316C129.608 63.5841 131.035 62.8617 131.97 61.8169C132.906 60.772 133.447 59.45 133.969 58.1508C135.389 57.6481 136.618 56.7167 137.485 55.4854C138.353 54.254 138.817 52.7836 138.812 51.2774C139.737 50.4427 140.478 49.4249 140.989 48.2886C141.499 47.1523 141.768 45.9223 141.779 44.6766C144.504 43.6362 145.831 39.8974 144.327 37.3716C143.503 33.9684 142.121 30.7249 140.239 27.7725C142.119 27.2364 142.669 24.5924 141.765 22.8752C140.861 21.158 139.039 20.1041 137.336 19.1637C138.785 19.4499 139.911 17.5737 139.48 16.1563C139.048 14.7389 137.685 13.8349 136.368 13.158C134.437 12.1658 132.393 11.4107 130.281 10.9093C129.436 8.43793 126.037 5.78942 123.607 4.83088C113.822 0.960333 107.098 0.260728 95.582 9.91891" fill="#5B5863"/>
<path d="M123.366 44.8547C123.704 44.4163 124.143 44.0671 124.647 43.8371H124.542C124.637 43.8059 124.735 43.7817 124.833 43.7644C125.006 43.697 125.19 43.6654 125.375 43.6717C125.56 43.6779 125.742 43.7218 125.91 43.8007C126.523 43.9595 127.054 44.3441 127.395 44.8774C127.668 45.3525 127.806 45.8934 127.793 46.4412C127.78 46.9891 127.618 47.5229 127.323 47.9847C127.124 48.4098 126.799 48.7629 126.391 48.9957C125.984 49.2284 125.515 49.3293 125.048 49.2845C124.581 49.2397 124.139 49.0514 123.783 48.7454C123.428 48.4395 123.176 48.0309 123.061 47.5759C122.878 47.1335 122.81 46.6519 122.863 46.1761C122.916 45.7003 123.089 45.2457 123.366 44.8547Z" fill="#FD3E72"/>
<path d="M123.162 26.2736C121.976 19.7864 116.697 12.2815 110.269 13.7444L90.5438 21.2901C89.6023 21.5039 88.7752 22.0631 88.226 22.8571C87.6767 23.6511 87.4452 24.6222 87.5772 25.5786L93.4239 69.0586C93.7935 71.8064 95.1008 74.3422 97.1248 76.237C99.1488 78.1319 101.765 79.2694 104.531 79.4573C106.251 79.5733 107.976 79.3184 109.59 78.7098C111.203 78.1012 112.666 77.1531 113.881 75.9297C115.096 74.7063 116.033 73.2362 116.631 71.6188C117.228 70.0015 117.47 68.2747 117.342 66.5554C117.12 63.5571 116.956 61.2993 116.961 61.3175C116.965 61.3357 125.138 58.9416 125.592 47.8433C125.801 42.3146 124.479 33.4787 123.162 26.2736Z" fill="#FFA68A"/>
<path d="M116.961 61.3174C111.84 62.0026 106.63 61.2524 101.91 59.1504C101.91 59.1504 106.339 66.2146 117.12 63.9068L116.961 61.3174Z" fill="#EB996E"/>
<path d="M120.641 26.0101C120.414 26.3826 119.337 26.1509 118.092 26.2827C116.847 26.4144 115.821 26.7824 115.534 26.4553C115.407 26.2963 115.534 25.9329 115.952 25.5467C116.526 25.0863 117.223 24.8065 117.956 24.7426C118.689 24.6787 119.424 24.8336 120.068 25.1878C120.55 25.5058 120.736 25.8284 120.641 26.0101Z" fill="#263238"/>
<path d="M128.458 31.1615C128.287 29.4352 127.524 27.821 126.301 26.5914C125.606 25.9508 124.751 25.4875 124.129 24.7742C122.766 23.2478 122.789 20.99 122.126 19.0684C121.682 17.8285 120.95 16.712 119.989 15.8114C119.029 14.9108 117.867 14.252 116.602 13.8895C114.498 13.308 112.181 13.576 110.182 12.6947C108.706 12.0451 107.529 10.8139 106.012 10.2552C103.068 9.16033 99.8655 10.8639 97.2897 12.6674C96.9127 14.8435 98.4027 16.597 99.8383 18.2779C100.56 19.122 101.457 19.7992 102.467 20.2627C103.476 20.7263 104.574 20.9651 105.685 20.9628C107.398 20.9628 109.365 20.4085 110.655 21.5397C112.018 22.7254 111.686 25.0196 112.835 26.4142C114.471 28.404 117.787 27.3591 120.104 28.4949C121.889 29.3716 122.762 31.366 123.738 33.0923C124.715 34.8186 126.36 36.5721 128.336 36.3313C128.576 34.6186 128.617 32.8838 128.458 31.1615Z" fill="#5B5863"/>
<path d="M101.836 16.2568C96.8264 16.5529 91.921 17.8148 87.39 19.9729C86.0271 20.618 84.6643 21.4085 83.9647 22.7259C83.3559 23.8843 83.3696 25.2699 83.4831 26.5737C83.8329 30.6623 85.85 35.555 87.6853 39.2257L93.0232 41.9105C96.8937 40.6885 94.5859 34.0241 94.1453 30.6305C95.469 29.9039 96.5624 28.8205 97.3012 27.5035C98.0401 26.1865 98.3947 24.6887 98.3247 23.1802C99.3938 22.3653 100.265 21.3193 100.873 20.1205C101.481 18.9216 101.81 17.6008 101.836 16.2568Z" fill="#5B5863"/>
<path d="M92.8465 40.4424C92.5194 38.1119 89.612 37.8711 87.6858 39.2249C86.6318 39.97 85.8959 41.3419 86.223 43.8132C87.0907 50.4141 93.537 48.1835 93.5234 47.9927C93.5143 47.8746 93.2281 43.1727 92.8465 40.4424Z" fill="#FFA68A"/>
<path d="M91.18 45.758C91.1482 45.758 91.0755 45.8534 90.8938 45.967C90.6352 46.1197 90.3277 46.1669 90.0352 46.0987C89.3038 45.9352 88.5724 44.9039 88.3816 43.7182C88.2907 43.1541 88.3263 42.5769 88.4861 42.0283C88.5229 41.8148 88.6102 41.6132 88.7405 41.4402C88.8709 41.2672 89.0406 41.1277 89.2356 41.0334C89.3636 40.9806 89.506 40.9745 89.638 41.016C89.77 41.0575 89.8833 41.144 89.958 41.2605C90.0715 41.4332 90.0443 41.5695 90.0806 41.5785C90.117 41.5876 90.2078 41.4468 90.1215 41.1833C90.0625 41.0247 89.9522 40.8904 89.8081 40.8017C89.6072 40.6908 89.3719 40.66 89.1493 40.7154C88.8853 40.8046 88.6485 40.9601 88.4616 41.1668C88.2747 41.3736 88.1439 41.6248 88.0818 41.8965C87.8758 42.5057 87.8212 43.1559 87.9227 43.7909C88.1408 45.1174 88.9858 46.2713 89.9761 46.4213C90.1598 46.4496 90.3475 46.4361 90.5253 46.3818C90.7031 46.3276 90.8663 46.2339 91.0028 46.1078C91.1891 45.917 91.2027 45.7671 91.18 45.758Z" fill="#EB996E"/>
<path d="M87.5817 47.5119C87.9187 47.0727 88.3587 46.7232 88.8628 46.4943H88.7583C88.852 46.4637 88.9476 46.4394 89.0445 46.4216C89.2177 46.3536 89.4029 46.3217 89.5889 46.3279C89.7748 46.3342 89.9575 46.3784 90.1257 46.458C90.7408 46.6153 91.2733 47.0001 91.6158 47.5346C91.8891 48.0099 92.0264 48.5511 92.0128 49.0991C91.9992 49.6472 91.8351 50.1809 91.5385 50.642C91.3392 51.0654 91.0139 51.4169 90.6072 51.6484C90.2005 51.8799 89.7322 51.9801 89.2663 51.9354C88.8005 51.8906 88.3598 51.7031 88.0046 51.3984C87.6494 51.0937 87.397 50.6867 87.2819 50.2331C87.098 49.7911 87.0291 49.3097 87.0815 48.8339C87.1339 48.3581 87.306 47.9033 87.5817 47.5119Z" fill="#FD3E72"/>
<path d="M90.6563 48.5981V48.689C90.645 48.7784 90.6205 48.8657 90.5836 48.9479C90.4374 49.2716 90.1838 49.5348 89.8658 49.6929C89.3651 49.9535 88.8162 50.1081 88.2531 50.1472C87.8981 50.1815 87.5406 50.1815 87.1855 50.1472C86.7786 50.1214 86.3783 50.0309 85.9998 49.8792L86.0725 49.8338C86.0221 50.4021 85.8255 50.9478 85.5018 51.4176C85.1782 51.8875 84.7384 52.2657 84.2254 52.5154C83.7123 52.765 83.1434 52.8777 82.5739 52.8425C82.0044 52.8072 81.4537 52.6252 80.9754 52.3142L81.089 52.2869C81.0006 52.4437 80.882 52.5815 80.7401 52.6922C80.5982 52.8029 80.4357 52.8844 80.2622 52.932C79.9093 53.0365 79.5338 53.0365 79.181 52.932C78.8153 52.8279 78.4953 52.6039 78.2724 52.296C78.0453 51.9811 77.9015 51.6138 77.8544 51.2284C77.7664 50.429 77.9644 49.6243 78.4132 48.957C78.8777 48.2874 79.4224 47.6772 80.035 47.1398L80.0577 47.2897C79.7699 47.1367 79.5173 46.925 79.3162 46.6683C79.1151 46.4117 78.97 46.1158 78.8902 45.7997C78.7123 45.1522 78.7281 44.4667 78.9356 43.8281C79.1669 43.1864 79.5201 42.5955 79.976 42.0881C80.4335 41.5754 80.9253 41.0943 81.4479 40.648V40.798C81.1905 40.559 80.9866 40.2683 80.8496 39.9449C80.7126 39.6216 80.6455 39.2729 80.6528 38.9217C80.6454 38.2009 80.856 37.4946 81.2571 36.8956C82.0293 35.7463 83.2241 35.0785 84.3235 34.4016L84.2781 34.5197C84.0545 33.8421 83.9988 33.1203 84.1158 32.4164C84.2328 31.7125 84.519 31.0475 84.9498 30.4786C85.3805 29.9098 85.943 29.454 86.5889 29.1506C87.2347 28.8471 87.9446 28.7051 88.6574 28.7366L88.5666 28.8547C88.4175 28.2926 88.3994 27.7038 88.5136 27.1336C88.6278 26.5634 88.8713 26.027 89.2253 25.5657C89.5342 25.1225 89.9353 24.7514 90.4011 24.4778C90.8669 24.2041 91.3863 24.0344 91.9238 23.9802L91.8465 24.071C91.8211 23.5052 91.9244 22.9409 92.1487 22.4208C92.3729 21.9006 92.7123 21.4381 93.1413 21.0682C93.5061 20.7303 93.9359 20.4702 94.4045 20.3038C94.8731 20.1375 95.3708 20.0683 95.867 20.1006L95.7943 20.1687C95.7899 19.5639 95.9317 18.967 96.2077 18.4288C96.4364 17.951 96.7435 17.5149 97.1163 17.1386C97.7008 16.5247 98.4725 16.122 99.3105 15.9938L99.5604 15.962C99.6421 15.962 99.7194 15.962 99.792 15.962C99.9341 15.9502 100.077 15.9502 100.219 15.962C100.437 15.9885 100.653 16.0325 100.864 16.0937L101.246 16.2209L101.373 16.2709C101.328 16.2669 101.283 16.2562 101.241 16.2391L100.855 16.1255C100.642 16.0758 100.427 16.0379 100.21 16.012C100.072 16.0049 99.9343 16.0049 99.7966 16.012H99.5649L99.3241 16.0528C98.506 16.1895 97.7556 16.5918 97.189 17.1977C96.8246 17.5681 96.5265 17.9984 96.3076 18.4697C96.0418 18.9879 95.9076 19.5636 95.917 20.146V20.2232H95.8443C95.3687 20.1969 94.8927 20.2675 94.4453 20.4307C93.9978 20.5939 93.5882 20.8464 93.2412 21.1727C92.832 21.5276 92.509 21.9709 92.2965 22.4691C92.084 22.9673 91.9876 23.5074 92.0146 24.0483V24.1437H91.9328C91.4206 24.1976 90.9261 24.3614 90.4831 24.6241C90.0401 24.8868 89.6591 25.242 89.3661 25.6656C89.0303 26.1052 88.7992 26.6157 88.6906 27.1581C88.582 27.7005 88.5986 28.2606 88.7392 28.7957L88.7801 28.9229H88.6483C87.9671 28.8947 87.2891 29.032 86.6725 29.3231C86.0559 29.6142 85.519 30.0503 85.1078 30.5941C84.6965 31.138 84.4232 31.7734 84.3111 32.446C84.1991 33.1186 84.2516 33.8083 84.4643 34.4561L84.4916 34.5333L84.4189 34.5742C83.3195 35.2284 82.1475 35.9098 81.4206 37.0092C81.0437 37.5739 80.8444 38.2383 80.8482 38.9172C80.8413 39.2405 80.9025 39.5617 81.0277 39.8599C81.1529 40.1581 81.3394 40.4266 81.5751 40.648L81.6614 40.7207L81.5751 40.798C80.5574 41.7065 79.5308 42.656 79.1174 43.8917C78.9184 44.4913 78.9026 45.1365 79.0719 45.7452C79.1459 46.0338 79.279 46.304 79.4627 46.5386C79.6465 46.7732 79.8769 46.9671 80.1395 47.108L80.2576 47.1671L80.1622 47.2625C79.5581 47.7916 79.021 48.3927 78.5631 49.0524C78.1322 49.6795 77.9404 50.4402 78.0225 51.1966C78.0452 51.5452 78.1696 51.8795 78.3803 52.1581C78.5911 52.4367 78.8789 52.6473 79.2082 52.7639C79.5154 52.8776 79.8517 52.8853 80.1638 52.7856C80.4758 52.686 80.7455 52.4849 80.93 52.2142L80.9709 52.137L81.039 52.187C81.4974 52.4857 82.0251 52.6611 82.5711 52.6962C83.117 52.7313 83.6628 52.6249 84.1557 52.3874C84.6486 52.1499 85.0718 51.7892 85.3845 51.3403C85.6972 50.8913 85.8888 50.3693 85.9408 49.8247V49.7475L86.0089 49.7793C86.3775 49.9274 86.7667 50.0178 87.1628 50.0473C87.5118 50.0813 87.8632 50.0813 88.2122 50.0473C88.7671 50.0138 89.3095 49.8686 89.8068 49.6203C90.1188 49.4713 90.3716 49.2217 90.5246 48.9116C90.6245 48.7208 90.6563 48.5981 90.6563 48.5981Z" fill="#6A6674"/>
<path d="M64.8722 43.3506C64.7654 43.2335 64.671 43.1056 64.5905 42.969C64.3555 42.5731 64.2011 42.1347 64.1363 41.6788C64.0306 40.9494 64.1679 40.2055 64.5269 39.5618C64.7665 39.1358 65.0923 38.7642 65.4833 38.4709C65.8744 38.1776 66.3223 37.969 66.7984 37.8583L66.7484 37.94C66.4459 36.8289 66.5741 35.6445 67.1073 34.6237C67.3955 34.0519 67.8048 33.5496 68.3066 33.1518C68.856 32.7669 69.4418 32.4367 70.0556 32.166C70.3569 32.0091 70.6363 31.8137 70.887 31.5845C71.1313 31.3432 71.3177 31.0497 71.4321 30.7259C71.6775 30.0672 71.7183 29.3085 72.0409 28.5999C72.386 27.8717 72.9413 27.2635 73.6352 26.8538C74.3291 26.4441 75.1298 26.2516 75.9341 26.3012L75.8251 26.4193C75.6524 25.6217 75.6652 24.7951 75.8625 24.0032C76.0598 23.2114 76.4364 22.4754 76.9631 21.8521C77.4899 21.2288 78.1527 20.7348 78.9006 20.4082C79.6485 20.0816 80.4614 19.9311 81.2766 19.9684L81.1721 20.0865C81.0123 19.2092 81.1068 18.3046 81.4444 17.4792C81.7819 16.6539 82.3485 15.9423 83.0773 15.4285C83.806 14.9146 84.6665 14.6199 85.5573 14.5792C86.448 14.5384 87.3319 14.7532 88.1045 15.1983H88.0001C88.6145 14.5164 89.3692 13.9755 90.2124 13.6129C90.9593 13.2758 91.7452 13.0332 92.552 12.8905C93.8588 12.6537 95.1976 12.6537 96.5043 12.8905C97.3436 13.0244 98.1554 13.2944 98.9075 13.6901C99.106 13.7911 99.2959 13.9081 99.4754 14.0399L99.6617 14.1716C99.6617 14.1716 99.3982 14.0036 98.8848 13.7173C98.1287 13.3454 97.3196 13.0925 96.4862 12.9678C95.189 12.7573 93.8649 12.7773 92.5747 13.0268C91.781 13.1715 91.0087 13.4157 90.276 13.7537C89.4566 14.1115 88.7238 14.6413 88.1273 15.3074L88.0818 15.3573L88.0228 15.3255C87.2781 14.9057 86.4292 14.7067 85.5756 14.752C84.7219 14.7973 83.8988 15.0849 83.2028 15.5812C82.5067 16.0775 81.9665 16.7619 81.6455 17.5542C81.3245 18.3465 81.2359 19.2138 81.3902 20.0547L81.4129 20.1773H81.2902C80.5061 20.143 79.7245 20.289 79.0056 20.604C78.2867 20.9191 77.6496 21.3947 77.1433 21.9945C76.637 22.5942 76.275 23.3021 76.0851 24.0637C75.8951 24.8252 75.8823 25.6202 76.0477 26.3875L76.075 26.5192H75.9432C75.1795 26.475 74.4199 26.6587 73.7607 27.047C73.1015 27.4352 72.5725 28.0105 72.2408 28.6998C71.9364 29.3676 71.891 30.1172 71.632 30.8122C71.5059 31.1567 71.3023 31.4675 71.0369 31.7208C70.7764 31.9639 70.4827 32.1689 70.1647 32.3296C69.5582 32.5945 68.9786 32.917 68.4338 33.2927C67.9508 33.675 67.5557 34.1569 67.2754 34.7055C66.7521 35.6896 66.6191 36.8349 66.9029 37.9128V37.9809H66.8347C66.3713 38.083 65.9341 38.2803 65.5509 38.5603C65.1677 38.8402 64.8469 39.1968 64.6087 39.6073C64.2511 40.2301 64.1075 40.953 64.1999 41.6652C64.2504 42.115 64.3893 42.5504 64.6087 42.9463C64.7632 43.2234 64.8813 43.3415 64.8722 43.3506Z" fill="#6A6674"/>
<path d="M128.413 40.5246C128.362 40.4453 128.33 40.3555 128.318 40.262C128.306 40.1684 128.316 40.0734 128.345 39.984C128.408 39.7638 128.529 39.5646 128.695 39.407C128.923 39.2028 129.19 39.0481 129.481 38.9527C129.839 38.8329 130.177 38.6615 130.485 38.4439C130.823 38.1531 131.059 37.7613 131.157 37.3264C131.27 36.8238 131.289 36.3047 131.212 35.7954C131.148 35.2503 131.021 34.6779 130.976 34.0555C130.871 32.8017 131.312 31.4842 131.534 30.0759C131.655 29.3499 131.63 28.6072 131.462 27.8908C131.381 27.5156 131.22 27.1625 130.989 26.8558C130.759 26.5491 130.464 26.2962 130.126 26.1145C129.422 25.7465 128.577 25.6602 127.741 25.4967C127.311 25.4107 126.897 25.2574 126.515 25.0424C126.133 24.7961 125.82 24.4569 125.606 24.0566C125.213 23.2373 124.908 22.3784 124.697 21.4944C124.578 21.0612 124.393 20.649 124.148 20.2724C123.896 19.9036 123.531 19.6276 123.107 19.4864C122.497 19.3711 121.874 19.3315 121.254 19.3683C120.932 19.3679 120.612 19.3126 120.309 19.2048C120.004 19.0887 119.735 18.8926 119.532 18.6369C119.182 18.1326 118.906 17.5802 118.714 16.9969C118.504 16.4584 118.184 15.9695 117.774 15.5614C117.384 15.1703 116.917 14.8642 116.402 14.6625C115.888 14.4607 115.337 14.3677 114.785 14.3893C113.754 14.4395 112.78 14.8777 112.059 15.6159L111.973 15.6977L111.918 15.5977C111.483 14.811 110.884 14.1264 110.162 13.5898C109.441 13.0531 108.613 12.6767 107.734 12.4859C107 12.3306 106.242 12.3198 105.504 12.4541C104.874 12.5567 104.269 12.7738 103.718 13.0946C102.746 13.6829 102.008 14.5899 101.629 15.6613L101.56 15.8294C101.56 15.8703 101.538 15.8885 101.533 15.8885V15.8294C101.533 15.7794 101.565 15.7249 101.588 15.6522C101.658 15.4244 101.746 15.2026 101.851 14.989C102.249 14.1634 102.881 13.473 103.668 13.0037C104.229 12.6729 104.845 12.4452 105.486 12.3314C106.236 12.1851 107.007 12.1851 107.757 12.3314C108.661 12.5225 109.514 12.9052 110.257 13.4538C111.001 14.0024 111.619 14.704 112.068 15.5114H111.927C112.684 14.7376 113.704 14.277 114.785 14.2212C115.363 14.198 115.94 14.2941 116.479 14.5035C117.018 14.713 117.509 15.0314 117.919 15.4387C118.349 15.8645 118.684 16.3751 118.905 16.9379C119.092 17.5027 119.358 18.0381 119.696 18.5279C119.895 18.744 120.141 18.9119 120.415 19.0189C120.689 19.1259 120.983 19.1693 121.277 19.1457C121.914 19.1062 122.553 19.1474 123.18 19.2684C123.646 19.4223 124.049 19.7257 124.325 20.1315C124.584 20.5252 124.779 20.9577 124.902 21.4126C125.105 22.2803 125.396 23.125 125.77 23.9339C125.972 24.3034 126.264 24.616 126.619 24.8425C126.98 25.0577 127.375 25.2112 127.787 25.2968C128.6 25.4876 129.458 25.5467 130.212 25.9373C130.584 26.1278 130.903 26.4052 131.144 26.746C131.371 27.0772 131.537 27.4465 131.634 27.8363C131.809 28.5814 131.83 29.354 131.698 30.1077C131.462 31.5387 131.026 32.8335 131.116 34.0509C131.157 34.6597 131.28 35.2321 131.339 35.7863C131.417 36.31 131.392 36.8439 131.266 37.3582C131.157 37.8135 130.905 38.2223 130.549 38.5257C130.229 38.7418 129.88 38.9116 129.513 39.03C129.226 39.1268 128.961 39.2814 128.736 39.4842C128.576 39.6339 128.455 39.8213 128.386 40.0294C128.342 40.1931 128.351 40.3668 128.413 40.5246Z" fill="#6A6674"/>
<path d="M132.97 22.8938L133.088 22.8666C133.21 22.8535 133.333 22.8706 133.447 22.9166C133.655 23.0282 133.831 23.1895 133.961 23.3861C134.091 23.5827 134.171 23.8085 134.192 24.0432C134.217 24.3794 134.195 24.7175 134.124 25.0472C134.039 25.4271 134.01 25.8173 134.038 26.2056C134.115 26.644 134.306 27.0544 134.592 27.3958C134.878 27.7775 135.237 28.1454 135.537 28.6043C135.707 28.84 135.821 29.1115 135.871 29.398C135.92 29.6845 135.904 29.9786 135.823 30.2579C135.65 30.8394 135.278 31.3436 135.119 31.9297C134.983 32.5531 135.095 33.2049 135.432 33.7468C135.732 34.3328 136.145 34.8916 136.45 35.564C136.61 35.8963 136.708 36.255 136.741 36.6225C136.763 37.003 136.704 37.3839 136.568 37.74C136.252 38.4315 135.876 39.0942 135.446 39.7207C135.001 40.3451 134.805 41.1129 134.896 41.874C135.041 42.6327 135.523 43.3005 135.864 44.0501C136.048 44.4275 136.162 44.8355 136.2 45.2539C136.216 45.6697 136.14 46.0839 135.977 46.4669C135.623 47.1745 135.189 47.8391 134.683 48.4476C134.21 49.024 133.862 49.6923 133.66 50.4101C133.528 51.1252 133.349 51.8308 133.124 52.5226C132.991 52.861 132.781 53.1641 132.511 53.4084C132.241 53.6348 131.934 53.8117 131.603 53.9309C131.292 54.043 130.988 54.175 130.694 54.3261C130.425 54.4835 130.178 54.6777 129.963 54.903C129.571 55.3578 129.241 55.8618 128.981 56.4022C128.713 56.9155 128.468 57.4243 128.182 57.8832C127.672 58.7235 126.906 59.378 125.997 59.7503C125.315 60.0314 124.579 60.1556 123.843 60.1137C123.376 60.0933 122.915 59.995 122.48 59.823C122.332 59.7655 122.187 59.6972 122.049 59.6186C122.614 59.8634 123.219 60.005 123.834 60.0365C124.556 60.0639 125.274 59.9305 125.938 59.6458C126.819 59.2742 127.558 58.6292 128.045 57.806C128.323 57.3517 128.563 56.8519 128.831 56.3295C129.093 55.7741 129.427 55.2562 129.826 54.7895C130.052 54.5498 130.31 54.3433 130.594 54.1762C130.887 54.0198 131.191 53.8832 131.503 53.7673C131.812 53.6529 132.1 53.4854 132.352 53.2721C132.599 53.0441 132.792 52.7629 132.915 52.4499C133.134 51.7651 133.308 51.0671 133.438 50.3602C133.643 49.6179 134.001 48.9264 134.487 48.3295C134.982 47.7329 135.407 47.0821 135.755 46.3897C135.906 46.0341 135.976 45.6491 135.959 45.263C135.924 44.8709 135.817 44.4888 135.641 44.1364C135.314 43.405 134.819 42.7281 134.664 41.9104C134.59 41.5046 134.615 41.0869 134.737 40.6929C134.861 40.3171 135.029 39.9572 135.237 39.6208C135.665 39.0054 136.037 38.3532 136.35 37.6719C136.478 37.3422 136.533 36.9891 136.513 36.6361C136.484 36.2905 136.392 35.9532 136.241 35.6412C135.955 35.0052 135.546 34.4464 135.237 33.824C134.885 33.2425 134.771 32.5476 134.919 31.8842C135.096 31.2573 135.478 30.7576 135.637 30.217C135.714 29.9576 135.731 29.6839 135.686 29.4169C135.641 29.1499 135.536 28.8968 135.378 28.6769C135.096 28.2227 134.742 27.8638 134.469 27.4731C134.173 27.1124 133.977 26.6799 133.901 26.2192C133.878 25.8195 133.913 25.4186 134.006 25.029C134.081 24.7093 134.11 24.3803 134.092 24.0523C134.075 23.8279 134.004 23.611 133.885 23.4197C133.766 23.2285 133.604 23.0684 133.411 22.9529C133.271 22.897 133.119 22.8767 132.97 22.8938Z" fill="#6A6674"/>
<path d="M65.0215 43.1188C64.845 43.1399 64.6666 43.1399 64.49 43.1188C63.9804 43.0573 63.4896 42.8885 63.0499 42.6236C62.3366 42.2058 61.7918 41.5517 61.5099 40.7746C61.3232 40.2547 61.2541 39.6998 61.3076 39.15C61.361 38.6001 61.5356 38.0689 61.8188 37.5946C62.174 37.0671 62.5836 36.5783 63.0408 36.1364C63.5369 35.6705 63.9219 35.0992 64.1675 34.4646C64.3428 33.757 64.2506 33.0095 63.9085 32.3658C63.5996 31.6752 63.1635 31.0029 62.8591 30.2397C62.5296 29.3945 62.3802 28.4899 62.4205 27.5837C62.4609 26.6774 62.69 25.7896 63.0933 24.9771C63.4966 24.1645 64.0651 23.4451 64.7625 22.865C65.4598 22.2849 66.2707 21.8568 67.1431 21.6082L67.0931 21.7672C66.7568 21.3606 66.5231 20.8792 66.4117 20.3634C66.3094 19.8399 66.3094 19.3015 66.4117 18.778C66.5067 18.246 66.696 17.7352 66.9704 17.2697C67.2514 16.804 67.6006 16.3829 68.0062 16.0204C69.2362 15.0083 70.6838 14.2946 72.2356 13.9353C73.685 13.5461 75.183 13.3686 76.6831 13.4083L76.5832 13.5128C76.5494 12.6524 76.7511 11.7991 77.1666 11.045C77.5821 10.2909 78.1956 9.66445 78.941 9.23336C79.6441 8.83992 80.434 8.6276 81.2397 8.61554C81.9946 8.64331 82.7414 8.78104 83.4566 9.02439C83.7955 9.12047 84.1448 9.17538 84.4969 9.18794C84.8354 9.18939 85.1713 9.12777 85.4873 9.00622C86.0878 8.74786 86.6551 8.41842 87.1772 8.02496C87.6743 7.65281 88.218 7.34736 88.7945 7.11638C89.3283 6.91881 89.8888 6.80242 90.4572 6.77112C91.4244 6.70684 92.3918 6.89468 93.2647 7.31627C93.9113 7.63154 94.4937 8.06443 94.9819 8.59282C95.2842 8.92435 95.5465 9.29029 95.7633 9.68311C95.8391 9.81786 95.9058 9.95748 95.9632 10.1011C95.9632 10.1011 95.8905 9.96023 95.736 9.70129C95.5069 9.31912 95.2373 8.96272 94.9319 8.63825C94.444 8.12407 93.8648 7.70507 93.2238 7.40258C92.3625 6.99708 91.4112 6.82029 90.4617 6.88924C89.9082 6.9279 89.3634 7.04728 88.8444 7.24358C88.2806 7.4705 87.7478 7.76818 87.259 8.12944C86.7244 8.53964 86.1416 8.88291 85.5236 9.15159C85.1887 9.27977 84.8328 9.34447 84.4742 9.3424C84.1103 9.33247 83.7488 9.27909 83.3975 9.1834C82.6954 8.94534 81.9624 8.81067 81.2215 8.78362C80.4471 8.80063 79.6888 9.00815 79.0136 9.38783C78.2964 9.80112 77.7057 10.4025 77.3053 11.1271C76.905 11.8517 76.7103 12.6719 76.7422 13.4991V13.6036H76.6422C75.162 13.5665 73.684 13.7425 72.2538 14.1261C70.7318 14.4775 69.312 15.1773 68.1062 16.1704C67.7126 16.5174 67.3754 16.9235 67.1067 17.3742C66.8427 17.8176 66.6626 18.3058 66.5752 18.8143C66.4775 19.3108 66.4775 19.8215 66.5752 20.318C66.6813 20.8022 66.8991 21.2549 67.2112 21.64L67.3112 21.7581L67.1658 21.799C66.3191 22.0432 65.5325 22.4606 64.8557 23.0249C64.1788 23.5891 63.6267 24.2879 63.2341 25.0768C62.8416 25.8657 62.6173 26.7275 62.5754 27.6077C62.5335 28.4878 62.675 29.3671 62.9909 30.1897C63.2771 30.9347 63.7132 31.6026 64.0266 32.3112C64.3854 32.9892 64.4762 33.7773 64.2811 34.5191C64.0303 35.1756 63.6306 35.765 63.1135 36.2408C62.6611 36.6762 62.2532 37.1555 61.896 37.6719C61.6208 38.1281 61.4492 38.6393 61.3934 39.1692C61.3377 39.6991 61.3992 40.2348 61.5735 40.7383C61.8415 41.4974 62.365 42.1398 63.0545 42.5555C63.4838 42.8228 63.9629 43.0006 64.4628 43.0779C64.8398 43.1188 65.0215 43.1097 65.0215 43.1188Z" fill="#5B5863"/>
<path d="M134.968 18.1647C134.954 18.1252 134.944 18.084 134.941 18.042C134.941 17.9466 134.905 17.8239 134.877 17.6695C134.818 17.3333 134.741 16.8563 134.637 16.2476C134.532 15.6388 134.387 14.8847 134.151 14.0261C133.9 13.0539 133.535 12.1146 133.065 11.2277C132.49 10.1655 131.697 9.23663 130.739 8.50194C130.197 8.10631 129.596 7.7996 128.958 7.59337C128.267 7.39989 127.564 7.24819 126.855 7.13908C126.092 7.02019 125.358 6.75815 124.692 6.36678C124.023 5.92616 123.413 5.40259 122.875 4.80857C122.316 4.22708 121.776 3.60925 121.162 3.05956C120.55 2.4933 119.839 2.0451 119.064 1.73758C117.505 1.18162 115.849 0.954251 114.198 1.06977C112.655 1.13328 111.118 1.3094 109.601 1.59675C107.025 2.07002 104.544 2.96486 102.26 4.24525C100.732 5.1198 99.3524 6.22979 98.1709 7.53431C97.9665 7.77054 97.7757 7.9886 97.6258 8.16123C97.4759 8.33386 97.3577 8.51103 97.2578 8.64731L97.0261 8.9426C97.0039 8.97842 96.9763 9.0106 96.9443 9.038C96.9624 8.99897 96.9853 8.96234 97.0125 8.92897L97.226 8.62006L97.5758 8.12488C97.7212 7.92954 97.9074 7.72511 98.1119 7.48433C99.282 6.148 100.663 5.01239 102.2 4.1226C104.489 2.80531 106.983 1.88379 109.578 1.39686C111.104 1.10108 112.65 0.918868 114.203 0.851717C115.882 0.73512 117.568 0.965532 119.155 1.52861C119.951 1.84711 120.683 2.30904 121.312 2.89147C121.935 3.45025 122.475 4.07263 123.03 4.65412C123.555 5.23547 124.152 5.7483 124.806 6.18053C125.446 6.56639 126.156 6.82262 126.896 6.93464C127.613 7.04219 128.323 7.19391 129.022 7.38893C129.674 7.60906 130.287 7.93105 130.839 8.34294C131.815 9.10367 132.617 10.0639 133.192 11.1595C133.661 12.0581 134.019 13.0099 134.26 13.9943C134.487 14.8574 134.619 15.6161 134.714 16.2339C134.809 16.8518 134.873 17.3379 134.914 17.665C134.914 17.8194 134.946 17.9421 134.955 18.0375C134.964 18.0792 134.969 18.1219 134.968 18.1647Z" fill="#5B5863"/>
<path d="M136.449 77.0589C136.449 77.0589 134.832 71.1077 134.3 71.1077L117.655 66.9147C117.655 66.9147 111.954 73.2066 105.235 72.4888C98.5161 71.771 93.051 66.2832 93.051 66.2832L74.4888 70.7171C73.1259 70.9896 70.6909 71.8391 68.3468 75.1873C65.7301 78.9261 51.9561 98.3878 51.9561 98.3878L73.3076 108.623L137.276 98.5014L136.449 77.0589Z" fill="#FD3E72"/>
<path d="M134.3 71.1074C134.3 71.1074 139.97 71.6889 146.943 79.0529C150.577 82.8735 160.572 93.4266 160.572 93.4266L141.61 111.144L134.291 99.8503L134.45 80.4749L134.3 71.1074Z" fill="#FD3E72"/>
<path d="M51.5202 76.904C51.1431 76.5951 52.8058 70.5439 52.8058 70.5439C52.8058 70.5439 48.4038 63.7296 48.2902 61.5308C48.1766 59.3321 50.0256 54.8255 50.0256 54.8255L62.6457 51.75C62.6457 51.75 66.698 58.8914 67.5112 61.4218C68.3243 63.9522 66.1256 72.5065 66.1256 72.5065L63.9859 76.904C63.9859 76.904 57.535 81.7376 51.5202 76.904Z" fill="#FFA68A"/>
<path d="M48.3129 62.8259C47.8178 61.9667 47.3734 61.0793 46.9819 60.1683C46.1823 58.3511 45.2011 56.6021 46.9819 55.5982C47.2634 55.4243 47.5772 55.3094 47.9043 55.2602C48.2315 55.211 48.5652 55.2286 48.8853 55.312C48.8853 55.312 48.6128 53.7992 49.5668 53.2313C49.8468 53.0659 50.1607 52.966 50.4849 52.9393C50.8091 52.9125 51.1351 52.9596 51.4384 53.0768C51.4384 53.0768 51.1341 50.9462 52.4969 50.0377C53.02 49.7151 53.6189 49.5364 54.2331 49.5197C54.8474 49.5029 55.4551 49.6487 55.995 49.9423C55.995 49.9423 54.9092 40.593 54.8138 40.0978C54.4686 38.2807 55.1772 36.6725 57.0853 37.1222C57.7849 37.2858 58.171 37.9854 58.9887 41.0291C59.8064 44.0728 61.1284 49.2654 61.1284 49.2654C61.1284 49.2654 63.3454 52.8997 64.3948 54.9031C65.4442 56.9065 67.5112 61.404 67.6838 62.5987C68.1381 65.6924 66.221 69.7901 66.221 69.7901L52.8059 70.5261C52.8059 70.5261 48.8217 63.7163 48.3129 62.8259Z" fill="#FFA68A"/>
<path d="M49.1489 55.7168C49.5301 56.1438 49.8779 56.5994 50.1892 57.0797L51.2477 58.6106C51.468 58.9124 51.6611 59.2332 51.8246 59.5692C52.0127 59.944 52.0687 60.3714 51.9836 60.7821C51.9399 61.0007 51.8385 61.2036 51.6899 61.3697C51.5413 61.5359 51.351 61.6592 51.1387 61.727C50.7332 61.8223 50.3073 61.7725 49.9348 61.5862C49.6154 61.4408 49.311 61.2643 49.0262 61.0592C48.7627 60.8821 48.5174 60.7094 48.3039 60.5459C47.8496 60.2233 47.5271 59.9462 47.2999 59.7463C47.0728 59.5465 46.9592 59.4329 46.9683 59.4192C46.9774 59.4056 47.5271 59.7918 48.422 60.396C48.9301 60.7591 49.4664 61.0811 50.0256 61.3591C50.3395 61.5145 50.6975 61.5563 51.0387 61.4772C51.2063 61.4226 51.3561 61.3237 51.4721 61.191C51.588 61.0582 51.6659 60.8965 51.6974 60.7231C51.7692 60.3659 51.7196 59.9949 51.5566 59.6691C51.4007 59.3524 51.2199 59.0486 51.016 58.7605L50.0075 57.1978C49.6831 56.7273 49.396 56.2321 49.1489 55.7168Z" fill="#EB996E"/>
<path d="M60.1518 56.8247C60.0791 56.8247 60.011 55.9162 60.2926 54.8259C60.4181 54.1525 60.705 53.5197 61.1285 52.9814C61.2058 53.0178 60.8332 53.831 60.5652 54.8895C60.2972 55.948 60.2199 56.852 60.1518 56.8247Z" fill="#EB996E"/>
<path d="M65.4715 59.5779C64.2143 58.4297 62.6585 57.6597 60.9831 57.3565C59.2975 57.0476 57.5762 56.9833 55.8723 57.1657C54.5095 57.2838 52.9513 57.6199 52.3289 58.7784C51.7065 59.9368 52.4561 61.5041 53.6918 62.1992C54.9274 62.8942 56.4175 62.9124 57.7804 62.7898C59.1432 62.6671 60.6015 62.4218 61.9962 62.6262" fill="#FFA68A"/>
<path d="M61.9962 62.6083C61.9962 62.631 61.6191 62.5765 60.9377 62.581C60.2562 62.5856 59.2795 62.6992 58.062 62.84C57.3945 62.9218 56.7215 62.9492 56.0495 62.9218C55.2638 62.8995 54.4909 62.7171 53.7781 62.3857C53.0022 62.0059 52.402 61.3423 52.1018 60.5322C51.9428 60.1085 51.9097 59.6478 52.0064 59.2057C52.122 58.7447 52.3794 58.3315 52.7423 58.0245C53.4967 57.473 54.3907 57.1441 55.3227 57.0751C56.169 56.9811 57.0197 56.9326 57.8712 56.9297C59.3168 56.9051 60.7569 57.1122 62.137 57.543C63.0579 57.8358 63.9237 58.2794 64.6992 58.8559C64.9054 59.0109 65.1012 59.1793 65.2852 59.3601C65.3523 59.4192 65.4118 59.4864 65.4624 59.56C65.4624 59.56 65.1807 59.3147 64.631 58.9376C63.846 58.4041 62.9833 57.995 62.0734 57.7247C60.7097 57.3243 59.292 57.1389 57.8712 57.175C57.0316 57.1847 56.1931 57.2378 55.359 57.334C54.4821 57.4078 53.6427 57.7222 52.9331 58.2426C52.6129 58.5117 52.3843 58.8736 52.2789 59.2784C52.1942 59.6734 52.2225 60.0844 52.3607 60.4641C52.6353 61.2136 53.1864 61.8296 53.9007 62.1858C54.5745 62.5087 55.3075 62.6896 56.0541 62.7173C56.7145 62.7511 57.3766 62.7359 58.0348 62.6719C58.9948 62.5529 59.9612 62.4938 60.9286 62.4947C61.1932 62.5044 61.4571 62.5286 61.7191 62.5674C61.8129 62.5673 61.9063 62.5811 61.9962 62.6083Z" fill="#EB996E"/>
<path d="M49.249 55.8621C50.6394 57.9431 51.9236 60.0931 53.0969 62.3039C53.3918 62.9715 53.8629 63.5463 54.4597 63.9666C54.9685 64.2619 56.2314 63.7258 56.7993 63.5395L52.9242 55.167" fill="#FFA68A"/>
<path d="M52.9063 55.1572C53.0375 55.3546 53.1515 55.5628 53.2471 55.7796C53.4697 56.2339 53.7559 56.8245 54.1057 57.5332C54.8234 59.0278 55.8093 61.1129 56.9086 63.4752L56.9677 63.607L56.8269 63.657C56.4044 63.7978 55.9592 63.975 55.464 64.1113C55.2687 64.1575 55.0694 64.1849 54.8689 64.193C54.7618 64.2 54.6544 64.1893 54.5509 64.1612C54.4463 64.1344 54.3477 64.0882 54.2601 64.0249C53.9517 63.8136 53.6865 63.5453 53.4788 63.2345C53.0835 62.6394 52.8019 62.0442 52.4839 61.49C51.8751 60.377 51.3209 59.3776 50.8348 58.5508C50.3487 57.724 49.9262 57.0562 49.6627 56.6019C49.5019 56.3733 49.3606 56.1317 49.2402 55.8795C49.4312 56.0861 49.6031 56.3097 49.7536 56.5473C50.067 57.0016 50.5032 57.6376 51.0074 58.4554C51.5117 59.2731 52.0932 60.2725 52.7155 61.3764C53.0335 61.9216 53.3288 62.5303 53.7104 63.0891C53.9 63.3704 54.1403 63.6138 54.4191 63.8069C54.5702 63.8808 54.7348 63.9229 54.9028 63.9307C55.0708 63.9385 55.2386 63.9119 55.3959 63.8523C55.8501 63.7433 56.3044 63.5707 56.7269 63.4207L56.6451 63.6024C55.5503 61.2356 54.6008 59.1368 53.9194 57.624C53.6014 56.8971 53.3379 56.302 53.138 55.8387C53.0375 55.6201 52.9598 55.3918 52.9063 55.1572Z" fill="#EB996E"/>
<path d="M51.8604 52.668L55.5946 61.5676C55.8239 62.2161 56.1636 62.8201 56.5986 63.3529C56.8282 63.6232 57.1191 63.8348 57.4471 63.9699C57.775 64.105 58.1305 64.1598 58.4839 64.1298C59.4561 63.9935 60.0921 63.0122 60.142 62.0809C60.192 61.1496 59.8013 60.2638 59.4424 59.3779C58.3255 56.6792 57.4292 53.8943 56.7621 51.0508" fill="#FFA68A"/>
<path d="M56.7621 51.0508C56.8044 51.1376 56.8364 51.2291 56.8575 51.3234L57.0801 52.1093C57.2709 52.7907 57.5344 53.7765 57.9478 54.9849C58.3612 56.1933 58.8564 57.6153 59.497 59.1644C59.8901 59.9674 60.1538 60.8275 60.2783 61.7129C60.3178 62.2009 60.2202 62.6902 59.9967 63.1258C59.7634 63.6016 59.362 63.9739 58.87 64.1706C58.6143 64.2585 58.3432 64.293 58.0737 64.2719C57.8041 64.2508 57.5417 64.1746 57.3027 64.048C56.8549 63.8215 56.4743 63.4816 56.1988 63.0622C55.7521 62.2911 55.3736 61.4824 55.0676 60.6454L53.3641 56.5068C52.9098 55.3529 52.5145 54.4034 52.2374 53.7084L51.9421 52.9452C51.9019 52.8571 51.8744 52.7638 51.8604 52.668C51.9143 52.748 51.96 52.8332 51.9966 52.9225L52.3374 53.672L53.5458 56.4386C54.0546 57.6198 54.6497 59.0145 55.3084 60.5545C55.6162 61.3717 55.9916 62.1619 56.4305 62.9168C56.6779 63.3023 57.0226 63.6157 57.4299 63.8254C57.6339 63.9346 57.8581 64.0006 58.0887 64.0193C58.3192 64.0381 58.5512 64.0092 58.7701 63.9344C59.1954 63.7623 59.5418 63.4386 59.7423 63.0258C59.9464 62.6313 60.0361 62.1876 60.0012 61.7447C59.8833 60.8866 59.6303 60.0525 59.2516 59.2734C58.6202 57.7107 58.1295 56.2751 57.757 55.0576C57.3845 53.8401 57.1301 52.8452 56.9711 52.1502C56.8939 51.8049 56.8348 51.5369 56.803 51.3506C56.7753 51.2531 56.7615 51.1522 56.7621 51.0508Z" fill="#EB996E"/>
<path d="M52.1612 73.533C52.1612 73.533 43.6024 97.4831 43.2617 98.6552L60.452 104.279L66.2624 71.9248L52.1612 73.533Z" fill="#FFA68A"/>
<path d="M60.4923 69.8082C60.2201 69.8429 59.9436 69.8085 59.6882 69.7083C59.0618 69.531 58.4808 69.2211 57.9846 68.7997C57.4999 68.3806 57.1162 67.8572 56.8625 67.2688C56.7381 67.0375 56.6785 66.777 56.6899 66.5146C57.0472 67.2983 57.5515 68.0061 58.1754 68.5998C59.2657 69.572 60.5195 69.731 60.4923 69.8082Z" fill="#EB996E"/>
<path d="M43.2612 98.6465C43.2612 98.6465 40.4491 105.633 40.6445 110.358C40.8398 115.083 43.2612 124.028 50.1846 123.987C55.1817 123.955 60.1426 121.983 65.4714 115.882C68.4288 112.493 72.163 108.059 72.163 108.059L56.3992 100.509L43.2612 98.6465Z" fill="#FFA68A"/>
<path d="M56.8672 117.154C56.9021 117.031 56.9477 116.911 57.0035 116.795C57.117 116.545 57.2624 116.209 57.4578 115.796C57.6531 115.382 57.8121 114.805 58.0438 114.174C58.2755 113.542 58.4981 112.811 58.7252 111.984C59.6702 108.722 60.6968 104.134 61.669 99.0415C62.6412 93.9489 63.3999 89.3061 63.9405 85.9489C64.204 84.2908 64.4175 82.9415 64.5719 81.9739C64.6492 81.5196 64.7082 81.1653 64.7536 80.8927C64.7671 80.7648 64.793 80.6385 64.8309 80.5156C64.8345 80.6432 64.8269 80.7709 64.8082 80.8972C64.7718 81.1743 64.7309 81.5378 64.6764 81.9875C64.5583 82.9324 64.3766 84.2953 64.1313 85.9807C63.6361 89.347 62.9047 93.9898 61.9371 99.0915C61.1465 103.455 60.1367 107.777 58.9115 112.039C58.6571 112.852 58.4572 113.592 58.1892 114.224C57.9211 114.855 57.7712 115.41 57.5532 115.837L57.0398 116.818C56.9941 116.936 56.9363 117.048 56.8672 117.154Z" fill="#EB996E"/>
<path d="M70.7734 86.2812C70.8263 86.4078 70.8689 86.5385 70.9006 86.6719C70.9824 86.9536 71.0914 87.3307 71.2232 87.8031C71.4821 88.7935 71.8365 90.2336 72.2317 92.0189C73.0267 95.5942 73.9853 100.56 74.9256 106.066C75.866 111.572 76.5747 116.578 77.029 120.212C77.2425 122.029 77.3788 123.506 77.4833 124.528C77.5105 125.018 77.5378 125.409 77.5514 125.704C77.5625 125.841 77.5625 125.977 77.5514 126.113C77.5178 125.981 77.4965 125.845 77.4878 125.709C77.4606 125.414 77.4197 125.023 77.3697 124.537C77.2561 123.519 77.0881 122.052 76.8473 120.235C76.393 116.6 75.6162 111.603 74.6894 106.111C73.7627 100.619 72.8268 95.6396 72.0818 92.0598C71.7093 90.2699 71.3867 88.8253 71.1732 87.8304C71.0596 87.3534 70.9688 86.9718 70.9052 86.6856C70.8496 86.5549 70.8055 86.4196 70.7734 86.2812Z" fill="#E63868"/>
<path d="M136.386 113.974C136.373 113.873 136.373 113.771 136.386 113.67C136.386 113.438 136.427 113.152 136.454 112.793C136.522 111.998 136.613 110.912 136.727 109.581C137.049 106.053 137.178 102.511 137.113 98.9688C137.051 97.0231 136.885 95.0821 136.618 93.1539C136.468 92.2453 136.35 91.4231 136.163 90.6462C136.077 90.2555 136.009 89.8739 135.918 89.515C135.827 89.1561 135.736 88.8154 135.645 88.4838C135.491 87.8251 135.282 87.2436 135.128 86.7302C134.973 86.2169 134.814 85.7762 134.673 85.4219C134.532 85.0676 134.451 84.8131 134.373 84.5951C134.334 84.5002 134.305 84.4012 134.287 84.2998C134.343 84.385 134.389 84.4764 134.423 84.5724L134.773 85.381C134.923 85.7308 135.1 86.1624 135.268 86.6803C135.436 87.1982 135.659 87.7706 135.832 88.4338L136.118 89.4651C136.213 89.824 136.291 90.2056 136.381 90.5962C136.572 91.3776 136.704 92.2271 136.858 93.113C137.141 95.0521 137.314 97.0057 137.376 98.9643C137.449 102.515 137.298 106.067 136.922 109.599C136.786 110.962 136.658 112.052 136.559 112.806C136.513 113.161 136.472 113.447 136.44 113.674C136.434 113.776 136.415 113.876 136.386 113.974Z" fill="#E63868"/>
<path d="M128.745 141.051C128.745 141.051 127.864 138.738 129.79 138.552C130.603 138.475 131.816 138.47 132.938 138.488C133.774 138.502 134.584 138.778 135.255 139.277C135.926 139.775 136.423 140.472 136.677 141.269L137.486 143.776L140.139 146.429H143.073L147.657 156.178C147.657 156.178 143.714 159.504 141.424 158.418C139.135 157.332 138.767 157.509 138.767 157.509C138.767 157.509 129.681 162.825 129.054 162.548C128.427 162.27 127.314 161.298 129.054 159.799C130.794 158.3 136.841 154.12 136.841 154.12L125.302 158.413C125.302 158.413 123.375 157.959 124.475 156.505C125.574 155.052 135.287 150.513 135.287 150.513L134.551 149.723C134.551 149.723 125.206 153.207 124.557 152.748C123.907 152.29 122.412 151.386 124.125 150.182C125.838 148.978 134.269 145.607 134.269 145.607L132.984 142.581L131.703 141.941C131.703 141.941 129.013 141.886 128.745 141.051Z" fill="#FFA68A"/>
<path d="M145.998 149.982C145.867 150.013 145.608 148.887 144.676 147.892C143.745 146.897 142.659 146.529 142.7 146.397C142.741 146.265 143.986 146.461 145.008 147.583C146.03 148.705 146.117 149.982 145.998 149.982Z" fill="#EB996E"/>
<path d="M138.448 147.201C138.348 147.283 137.685 146.352 136.449 145.925C135.213 145.498 134.123 145.797 134.096 145.666C134.096 145.616 134.323 145.457 134.786 145.361C135.393 145.245 136.02 145.292 136.602 145.497C137.185 145.702 137.703 146.058 138.103 146.529C138.402 146.892 138.498 147.169 138.448 147.201Z" fill="#EB996E"/>
<path d="M138.58 150.703C138.507 150.812 137.776 150.38 136.763 150.426C135.75 150.471 135.073 150.935 134.991 150.83C134.909 150.726 135.582 150.012 136.749 149.976C137.917 149.94 138.675 150.626 138.58 150.703Z" fill="#EB996E"/>
<path d="M140.203 153.961C140.167 154.089 139.294 153.898 138.24 154.057C137.186 154.216 136.396 154.625 136.323 154.511C136.251 154.398 137 153.771 138.177 153.603C139.353 153.434 140.253 153.857 140.203 153.961Z" fill="#EB996E"/>
<path d="M116.288 101.436C116.252 101.538 116.205 101.635 116.147 101.726L115.693 102.53C115.307 103.23 114.711 104.225 113.939 105.433C113.167 106.642 112.213 108.055 111.1 109.585C109.987 111.116 108.688 112.766 107.261 114.405C105.835 116.045 104.399 117.586 103.063 118.917C101.728 120.248 100.46 121.406 99.3792 122.342C98.298 123.278 97.403 124.018 96.767 124.504L96.0356 125.068C95.9546 125.138 95.8645 125.198 95.7676 125.245C95.8393 125.165 95.9167 125.091 95.9993 125.022C96.1855 124.868 96.4172 124.668 96.6989 124.423C97.3122 123.909 98.1889 123.151 99.252 122.197C104.799 117.218 109.684 111.55 113.789 105.329C114.575 104.139 115.198 103.162 115.606 102.476L116.097 101.694C116.149 101.6 116.213 101.513 116.288 101.436Z" fill="#E63868"/>
<path d="M112.695 106.429C112.622 106.435 112.549 106.435 112.477 106.429C112.261 106.434 112.045 106.419 111.832 106.383C111.012 106.226 110.249 105.854 109.619 105.307C108.615 104.442 107.896 103.294 107.557 102.013C107.16 100.32 107.09 98.5668 107.352 96.8477C107.407 96.3707 107.466 95.8846 107.525 95.3849C107.58 94.8694 107.676 94.359 107.811 93.8585C107.952 93.3221 108.231 92.8319 108.62 92.4366C108.824 92.2302 109.07 92.0697 109.341 91.9655C109.612 91.8614 109.902 91.816 110.192 91.8324C110.494 91.8759 110.782 91.9898 111.032 92.165C111.282 92.3402 111.487 92.5717 111.632 92.8409C111.927 93.373 112.116 93.958 112.186 94.5627C112.285 95.8074 112.22 97.0597 111.995 98.2878C111.51 100.92 110.367 103.388 108.674 105.461C107.779 106.559 106.733 107.524 105.567 108.328C104.978 108.756 104.337 109.107 103.659 109.372C102.963 109.658 102.209 109.771 101.46 109.7C100.7 109.602 99.9989 109.24 99.4794 108.677C98.9945 108.138 98.6209 107.508 98.38 106.824C98.14 106.15 97.9651 105.455 97.8576 104.748C97.7401 104.057 97.6582 103.361 97.6123 102.663C97.4877 100.64 97.6731 98.61 98.162 96.6433C98.3271 96.0036 98.6173 95.4029 99.016 94.8761C99.2178 94.6114 99.4752 94.3943 99.7702 94.2401C100.072 94.0882 100.412 94.0297 100.747 94.072C101.066 94.1334 101.367 94.2701 101.623 94.4708C101.879 94.6715 102.083 94.9303 102.219 95.2259C102.472 95.7868 102.578 96.4026 102.528 97.0158C102.489 97.592 102.416 98.1654 102.31 98.733C101.912 100.793 101.147 102.764 100.052 104.552C98.4696 107.167 96.2419 109.33 93.5828 110.835C93.1714 111.074 92.7467 111.29 92.3107 111.48C91.9953 111.63 91.6723 111.764 91.3431 111.88L90.7389 112.089C90.6695 112.116 90.5981 112.137 90.5254 112.153C90.5908 112.117 90.6592 112.086 90.7298 112.062L91.3249 111.826C91.6487 111.703 91.9656 111.564 92.2744 111.408C92.7053 111.209 93.1254 110.988 93.5328 110.744C96.1489 109.216 98.3366 107.052 99.8928 104.453C100.964 102.669 101.705 100.707 102.082 98.6603C102.182 98.1012 102.252 97.537 102.291 96.9704C102.333 96.3977 102.233 95.8237 102.001 95.2986C101.881 95.0396 101.701 94.8124 101.477 94.6356C101.253 94.4588 100.99 94.3373 100.711 94.281C100.416 94.2566 100.12 94.3116 99.8543 94.4402C99.5883 94.5689 99.3616 94.7664 99.1978 95.0124C98.4255 95.98 98.2301 97.3156 98.0257 98.6013C97.8332 99.9338 97.7799 101.283 97.8667 102.626C97.9128 103.315 97.9947 104 98.112 104.68C98.2176 105.371 98.3895 106.051 98.6254 106.71C98.8508 107.373 99.2095 107.982 99.6793 108.5C100.155 109.019 100.799 109.352 101.496 109.441C102.2 109.506 102.91 109.4 103.563 109.132C104.22 108.873 104.841 108.533 105.412 108.119C106.558 107.329 107.586 106.381 108.465 105.302C110.143 103.263 111.278 100.833 111.763 98.2379C111.988 97.0402 112.055 95.8185 111.963 94.6035C111.905 94.0301 111.728 93.4749 111.445 92.9726C111.322 92.7318 111.143 92.5238 110.924 92.3658C110.704 92.2078 110.45 92.1043 110.182 92.0641C109.922 92.0487 109.662 92.0894 109.419 92.1834C109.176 92.2775 108.956 92.4227 108.774 92.6092C108.41 92.9764 108.147 93.4319 108.011 93.9312C107.88 94.4216 107.785 94.9212 107.729 95.4258C107.666 95.921 107.602 96.4071 107.543 96.8841C107.277 98.5811 107.331 100.313 107.702 101.99C108.024 103.247 108.716 104.379 109.687 105.238C110.298 105.785 111.04 106.165 111.841 106.342C112.124 106.386 112.409 106.415 112.695 106.429Z" fill="white"/>
<path d="M123.479 108.096C123.473 108.232 123.444 108.365 123.393 108.491C123.257 108.856 123.032 109.181 122.739 109.436C122.272 109.848 121.687 110.101 121.067 110.158C120.245 110.21 119.434 109.951 118.795 109.431C118.012 108.816 117.437 107.974 117.151 107.019C116.838 105.935 116.715 104.806 116.788 103.68C116.873 101.103 117.506 98.5743 118.646 96.2616C118.825 95.947 119.082 95.683 119.391 95.4938C119.555 95.4034 119.739 95.3527 119.926 95.3456C120.114 95.3385 120.301 95.3752 120.472 95.4529C120.791 95.6235 121.046 95.8929 121.199 96.2207C121.349 96.5217 121.449 96.8456 121.494 97.1792C121.582 98.4347 121.364 99.6928 120.858 100.845C120.002 102.775 118.647 104.442 116.933 105.674C115.792 106.508 114.575 107.232 113.299 107.837C112.844 108.055 112.499 108.214 112.258 108.318C112.139 108.377 112.014 108.424 111.886 108.459C111.998 108.388 112.115 108.324 112.236 108.268L113.249 107.741C114.491 107.102 115.678 106.359 116.797 105.52C118.464 104.29 119.778 102.644 120.608 100.745C121.089 99.6357 121.294 98.4263 121.208 97.2201C121.167 96.9145 121.075 96.6181 120.935 96.3433C120.813 96.0702 120.603 95.8451 120.34 95.7028C120.208 95.6407 120.064 95.6112 119.918 95.6168C119.773 95.6223 119.631 95.6627 119.504 95.7346C119.236 95.8994 119.015 96.1311 118.864 96.4069C118.274 97.5708 117.827 98.8018 117.533 100.073C117.244 101.265 117.074 102.482 117.024 103.707C116.943 104.805 117.054 105.909 117.351 106.969C117.615 107.886 118.154 108.699 118.895 109.3C119.498 109.803 120.269 110.061 121.053 110.022C121.647 109.978 122.212 109.751 122.671 109.372C122.962 109.135 123.192 108.831 123.343 108.486C123.447 108.232 123.461 108.096 123.479 108.096Z" fill="white"/>
<g opacity="0.3">
<path opacity="0.3" d="M115.316 103.085C113.065 109.57 108.715 115.119 102.955 118.853C102.955 118.853 110.292 111.78 115.316 103.085Z" fill="black"/>
</g>
<g opacity="0.3">
<path opacity="0.3" d="M134.683 85.2266V85.4446C137.049 90.7871 137.145 98.8371 137.177 104.865C138.276 101.926 139.221 97.9194 139.266 94.7803C139.312 91.6411 137.354 86.8756 134.683 85.2266Z" fill="black"/>
</g>
</svg>
