<svg width="18" height="15" viewBox="0 0 18 15" fill="none" xmlns="http://www.w3.org/2000/svg">
<path d="M0.85 2C0.85 1.36487 1.36487 0.85 2 0.85H8.5806C9.21572 0.85 9.73059 1.36487 9.73059 2V3.96854C9.73059 4.60367 9.21572 5.11854 8.58059 5.11854H6.23984C5.02123 5.11854 4.03335 6.10642 4.03335 7.32503C4.03335 8.54364 5.02123 9.53151 6.23984 9.53151H8.5806C9.21572 9.53151 9.73059 10.0464 9.73059 10.6815V12.6501C9.73059 13.2852 9.21572 13.8001 8.58059 13.8001H2C1.36487 13.8001 0.85 13.2852 0.85 12.6501V2Z" stroke="#FD3E72" stroke-width="1.7"/>
<path d="M16.9998 7.32495H6.38232" stroke="#FD3E72" stroke-width="1.7" stroke-linecap="round" stroke-linejoin="round"/>
<path d="M16.9995 7.32495L13.0205 11.304" stroke="#FD3E72" stroke-width="1.7" stroke-linecap="round" stroke-linejoin="round"/>
<path d="M16.9995 7.32486L13.0205 3.34583" stroke="#FD3E72" stroke-width="1.7" stroke-linecap="round" stroke-linejoin="round"/>
</svg>
