<svg width="180" height="142" viewBox="0 0 180 142" fill="none" xmlns="http://www.w3.org/2000/svg">
<g style="mix-blend-mode:multiply">
<path d="M140.521 136.98C143.276 132.709 145.077 127.886 145.801 122.844C146.525 117.802 146.153 112.662 144.712 107.779C142.854 101.635 139.286 95.932 138.833 89.5231C137.921 76.7182 149.416 66.3631 151.8 53.7506C152.848 48.1925 151.707 41.7494 147.215 38.3804C142.722 35.0113 136.44 35.7339 131.418 38.064C126.395 40.3941 122.141 44.118 117.318 46.8457C112.495 49.5735 106.556 51.258 101.462 49.0861C96.2992 46.8885 93.3724 41.3518 91.735 35.9519C90.0976 30.5521 89.2874 24.7973 86.492 19.9105C81.8684 11.8513 72.0484 7.45617 62.886 8.59343C53.7235 9.7307 45.5367 15.96 41.1463 24.1475C36.756 32.3349 35.9882 42.2325 38.177 51.2708C39.2841 55.8583 41.1124 60.2492 42.1092 64.8581C43.1061 69.4671 43.1951 74.5163 40.9724 78.6721C36.3063 87.3555 24.0558 88.5654 17.6421 96.0175C12.3397 102.166 12.1743 111.546 15.186 119.105C18.1977 126.664 23.8479 132.786 29.4854 138.635C55.785 139.529 82.5513 139.584 108.847 140.478C119.053 140.824 130.315 137.583 140.521 136.98Z" fill="#F1F1F1"/>
</g>
<g style="mix-blend-mode:multiply">
<path d="M131.231 40.7662C131.163 48.2653 138.234 54.7896 137.004 62.1818C136.342 66.1409 133.352 70.1512 135.091 73.7597C136.631 76.9492 141.03 77.505 144.402 76.466C152.283 74.0376 157.077 65.9143 159.367 57.932C161.522 50.4244 162.057 42.0402 158.604 35.0414C155.825 29.4021 149.407 24.4255 142.909 24.8872C136.919 25.3105 131.282 35.1226 131.231 40.7662Z" fill="#F1F1F1"/>
</g>
<g style="mix-blend-mode:multiply">
<path d="M28.1795 26.9569C25.5874 31.4292 24.1712 36.4944 24.065 41.6727C23.9589 46.851 25.1663 51.9709 27.5729 56.5472C29.1212 59.4075 31.2124 62.0796 34.0375 63.6701C36.8626 65.2606 40.5064 65.6197 43.3145 64.0036C47.5564 61.5495 48.5235 55.7691 48.1842 50.8353C47.8448 45.9014 46.7334 40.7281 48.6084 36.1577C49.8385 33.1649 52.197 30.8604 54.2925 28.4234C56.388 25.9864 58.3392 23.139 58.4453 19.9153C58.7252 11.5611 49.9276 12.1853 44.6252 13.9297C37.7752 16.1523 31.9412 20.7737 28.1795 26.9569Z" fill="#F1F1F1"/>
</g>
<path d="M161.993 142H12.464C11.7293 141.999 11.0249 141.706 10.5054 141.184C9.98584 140.663 9.69348 139.956 9.69238 139.218C9.69238 138.48 9.98426 137.772 10.5039 137.249C11.0236 136.727 11.7286 136.433 12.464 136.432H161.993C162.73 136.432 163.436 136.725 163.956 137.248C164.477 137.77 164.769 138.479 164.769 139.218C164.768 139.956 164.475 140.664 163.955 141.186C163.434 141.707 162.729 142 161.993 142Z" fill="#5B5863"/>
<path d="M56.4385 97.3302C54.8626 96.3967 53.4988 95.1399 52.4355 93.6412C51.3722 92.1426 50.633 90.4355 50.2659 88.6306C49.8988 86.8258 49.9119 84.9633 50.3045 83.1638C50.697 81.3644 51.4601 79.6681 52.5445 78.1848C54.2412 75.8847 56.7439 73.9094 57.0578 71.0876C57.3887 68.1504 55.2041 65.6022 54.1988 62.8232C53.599 61.1168 53.4326 59.2861 53.7149 57.4983C53.9972 55.7104 54.7192 54.0223 55.815 52.5878C57.4099 50.5399 59.7684 49.052 60.8331 46.6792C61.5033 45.187 61.5839 43.5068 61.7706 41.8779C61.9572 40.2489 62.3008 38.5516 63.3613 37.3117C64.4217 36.0718 66.4197 35.5075 67.7134 36.4994C70.1695 33.9341 73.0582 30.8472 76.3117 29.4705C79.5653 28.0939 83.4763 27.8972 86.5177 29.6971C88.9271 31.1166 90.5305 33.5792 92.6472 35.4134C94.4627 36.991 96.6346 38.0855 98.5859 39.4793C100.537 40.8731 102.37 42.6945 102.972 45.0374C103.96 48.8853 101.411 52.7332 101.275 56.7179C101.161 60.5658 103.337 64.1315 103.82 67.9623C104.304 71.7931 103.01 75.7863 100.957 79.1126C98.904 82.4389 96.134 85.2393 93.3853 88.0098C92.2739 93.0163 88.6132 96.5607 83.9471 98.6C79.281 100.639 74.0508 100.99 68.9648 100.802C64.8544 100.661 60.0102 99.4466 56.4385 97.3302Z" fill="#5B5863"/>
<path d="M62.1135 87.2192C61.053 85.804 61.0827 83.8373 61.5281 82.1271C61.9735 80.4169 62.7668 78.8051 63.1146 77.0693C63.5897 74.7263 63.2122 72.3022 62.7286 69.9635C62.245 67.6248 61.6554 65.2605 61.702 62.8834C61.7487 60.5062 62.5207 57.9966 64.3363 56.4702C70.6991 51.0746 80.9899 52.9515 89.2615 53.828C93.4398 54.2555 96.2946 58.3343 97.6223 62.3532C98.95 66.3721 98.4961 70.8528 96.9181 74.7776C95.3402 78.7025 92.6975 82.1143 89.7069 85.0772C87.9169 86.8472 84.7439 85.4278 82.2837 85.9323C79.8234 86.4368 77.7957 87.8904 75.5306 88.8481C71.8681 90.3841 67.7786 90.5359 64.0139 89.2756C62.911 88.8524 61.9905 88.365 62.1135 87.2192Z" fill="#4C4952"/>
<path d="M107.77 91.3752C104.742 87.4515 100.503 84.6576 95.7226 83.4357C93.5422 82.8884 91.2813 82.6746 89.1392 81.9991C88.5279 81.8043 87.9323 81.5627 87.3576 81.2766C86.5161 77.9695 86.1041 74.5663 86.1317 71.1523H73.5714C73.5955 74.5664 73.182 77.9693 72.3413 81.2766C71.7665 81.5627 71.1709 81.8043 70.5597 81.9991C68.4176 82.6746 66.1566 82.8884 63.9805 83.4357C59.1946 84.6422 54.9514 87.4386 51.9354 91.3735C48.9194 95.3085 47.3064 100.153 47.3566 105.125V136.408L103.383 135.583C105.773 135.548 108.052 134.567 109.729 132.852C111.407 131.137 112.347 128.825 112.347 126.417V105.125C112.382 100.156 110.771 95.3172 107.77 91.3752Z" fill="#FFC582"/>
<path d="M85.9831 134.39C87.0521 131.564 87.1454 128.477 87.5314 125.475C88.2738 119.721 90.1359 114.184 91.4594 108.536C92.7829 102.888 93.9494 96.7316 92.5029 91.1179C84.3303 92.1046 76.0692 92.0903 67.9 91.0752C64.8077 92.3835 63.2042 96.3169 62.6316 99.6261C62.0589 102.935 62.4746 106.364 62.5383 109.742C62.6104 113.436 62.2498 117.13 62.4237 120.824C62.5977 124.518 63.3527 128.289 65.4227 131.341C66.7507 133.191 68.3989 134.784 70.2882 136.044L85.3214 135.822C85.5748 135.361 85.796 134.882 85.9831 134.39Z" fill="white"/>
<path d="M62.6105 102.61C63.1832 99.2836 64.7866 95.3417 67.8789 94.0591C76.0482 95.0748 84.3095 95.0878 92.4819 94.0975C92.8274 95.4669 93.0363 96.8676 93.1054 98.2789C93.2574 95.8865 93.0471 93.4847 92.4819 91.156C84.3092 92.1427 76.0481 92.1283 67.8789 91.1133C64.7866 92.4216 63.1832 96.355 62.6105 99.6641C62.3363 101.487 62.251 103.334 62.356 105.175C62.3869 104.316 62.4719 103.459 62.6105 102.61Z" fill="#EDEDED"/>
<path d="M62.5169 112.701C62.5169 112.585 62.5169 112.47 62.5169 112.354C62.4617 114.89 62.3218 117.425 62.3854 119.956C62.4278 117.541 62.5635 115.121 62.5169 112.701Z" fill="#EDEDED"/>
<path d="M73.2402 76.5302C77.7757 76.4791 82.2237 75.2652 86.1652 73.003C86.1398 72.3831 86.1271 71.7631 86.1313 71.1475H73.5711C73.5838 72.9473 73.4732 74.7458 73.2402 76.5302Z" fill="#94724C"/>
<path d="M67.9843 54.794C67.4753 53.8449 66.8645 52.9 65.9355 52.3613C65.0065 51.8226 63.6958 51.8269 62.9662 52.6307C62.3893 53.2805 62.3511 54.2468 62.402 55.119C62.5081 56.889 62.8941 58.7061 63.9503 60.117C65.0065 61.5279 66.856 62.4513 68.557 61.9981C68.8157 59.5911 69.1424 56.9275 67.9843 54.794Z" fill="#FFC582"/>
<path d="M67.8695 56.6755L68.0519 56.7012C67.8348 56.1079 67.565 55.5355 67.2459 54.991C66.9216 54.4544 66.4639 54.0123 65.9182 53.7084C65.6425 53.5582 65.3376 53.4705 65.0248 53.4513C64.7119 53.4321 64.3987 53.4819 64.1069 53.5972C63.8182 53.7206 63.5733 53.9291 63.4044 54.1955C63.2356 54.4618 63.1507 54.7735 63.161 55.0894C63.3468 54.897 63.5789 54.7565 63.8346 54.6815C64.0904 54.6066 64.3611 54.5998 64.6202 54.6618C64.8756 54.718 65.1118 54.8407 65.3054 55.0178C65.4989 55.1949 65.643 55.4201 65.7231 55.6708C65.5036 55.7252 65.3054 55.8448 65.1542 56.014C65.0029 56.1832 64.9056 56.3943 64.8747 56.62C64.8061 57.0701 64.8741 57.5306 65.0698 57.9411C65.1682 58.1871 65.3122 58.412 65.494 58.6038C65.5831 58.7003 65.6907 58.7778 65.8103 58.8314C65.9298 58.885 66.0589 58.9138 66.1897 58.9159C66.0699 59.0806 65.9168 59.2179 65.7407 59.3189C65.5645 59.4198 65.3691 59.4821 65.1674 59.5016C65.596 59.7076 66.07 59.7993 66.5438 59.7679C67.0177 59.7364 67.4756 59.5829 67.8737 59.322C67.9696 58.4424 67.9681 57.5548 67.8695 56.6755Z" fill="#D6A56D"/>
<path d="M90.9377 55.7179C91.4467 54.7687 92.0575 53.8239 92.9865 53.2852C93.9155 52.7464 95.2262 52.7507 95.9558 53.5545C96.5327 54.2044 96.5709 55.1706 96.52 56.0471C96.414 57.8128 96.0279 59.6299 94.9717 61.0408C93.9155 62.4517 92.066 63.3752 90.365 62.922C90.1063 60.5149 89.8009 57.8513 90.9377 55.7179Z" fill="#FFC582"/>
<path d="M91.0522 57.5984L90.874 57.6241C91.0911 57.0307 91.3609 56.4584 91.68 55.9139C92.0044 55.3772 92.462 54.9351 93.0077 54.6313C93.2834 54.4811 93.5883 54.3933 93.9012 54.3741C94.214 54.3549 94.5272 54.4047 94.819 54.5201C95.1077 54.6434 95.3526 54.852 95.5215 55.1183C95.6903 55.3847 95.7752 55.6963 95.7649 56.0122C95.5792 55.8198 95.3471 55.6793 95.0913 55.6044C94.8355 55.5294 94.5649 55.5226 94.3057 55.5847C94.0503 55.6408 93.8141 55.7636 93.6205 55.9407C93.427 56.1177 93.2829 56.3429 93.2028 56.5937C93.4223 56.6481 93.6205 56.7676 93.7717 56.9368C93.923 57.1061 94.0204 57.3172 94.0512 57.5428C94.1205 57.9934 94.0509 58.4545 93.8518 58.8639C93.7537 59.1101 93.6097 59.335 93.4276 59.5266C93.3385 59.6232 93.231 59.7006 93.1114 59.7542C92.9919 59.8079 92.8628 59.8366 92.732 59.8387C92.8518 60.0035 93.0048 60.1408 93.181 60.2417C93.3572 60.3427 93.5525 60.4049 93.7543 60.4245C93.3249 60.6305 92.8503 60.7221 92.3758 60.6907C91.9012 60.6593 91.4426 60.5058 91.0437 60.2449C90.9514 59.365 90.9542 58.4777 91.0522 57.5984Z" fill="#D6A56D"/>
<path d="M66.784 60.2492C68.78 60.2492 70.3981 58.6183 70.3981 56.6065C70.3981 54.5947 68.78 52.9639 66.784 52.9639C64.788 52.9639 63.1699 54.5947 63.1699 56.6065C63.1699 58.6183 64.788 60.2492 66.784 60.2492Z" fill="#FD3E72"/>
<path d="M92.3758 60.2492C94.3718 60.2492 95.9899 58.6183 95.9899 56.6065C95.9899 54.5947 94.3718 52.9639 92.3758 52.9639C90.3798 52.9639 88.7617 54.5947 88.7617 56.6065C88.7617 58.6183 90.3798 60.2492 92.3758 60.2492Z" fill="#FD3E72"/>
<path d="M79.5608 74.7686C86.6382 74.7686 92.3755 66.9912 92.3755 57.3975C92.3755 47.8037 86.6382 40.0264 79.5608 40.0264C72.4834 40.0264 66.7461 47.8037 66.7461 57.3975C66.7461 66.9912 72.4834 74.7686 79.5608 74.7686Z" fill="#FFC582"/>
<path d="M91.4935 50.8777C91.8965 50.6939 91.2051 49.9927 90.1616 49.7105C87.4001 48.9581 84.3417 48.6417 82.0468 50.3604C81.9577 50.8393 82.5686 51.4079 83.0479 51.4678C83.5331 51.4789 84.014 51.3749 84.452 51.1642C86.7234 50.3905 89.1676 50.2911 91.4935 50.8777Z" fill="#6B3C00"/>
<path d="M62.0208 58.304C66.3716 55.0986 69.6707 50.6537 71.4929 45.5418C74.6383 48.4085 78.7722 49.9202 83.0096 49.7531C82.2098 49.3232 81.5456 48.6759 81.0923 47.8847C85.0966 48.8424 88.541 51.3051 91.1795 54.4732C92.2527 55.7558 93.1604 57.2052 94.3694 58.3681C95.5783 59.531 97.203 60.4075 98.8658 60.2279C97.8265 55.7815 96.817 51.1896 95.1584 46.9441C94.1403 44.3361 92.9356 41.6811 90.8062 39.8769C88.1593 37.6322 84.4646 37.0636 81.0117 37.3116C77.3137 37.5715 73.7292 38.7099 70.5512 40.6336C66.2329 43.2907 62.93 47.3382 61.1767 52.1217C60.7529 53.1577 60.5352 54.2675 60.5361 55.3881C60.5588 55.9536 60.7034 56.5074 60.9598 57.0109C61.2161 57.5144 61.5782 57.9557 62.0208 58.304Z" fill="#5B5863"/>
<path d="M66.7676 61.1386C66.7676 61.3712 66.6992 61.5985 66.571 61.7918C66.4428 61.9852 66.2607 62.1359 66.0475 62.2249C65.8343 62.3139 65.5998 62.3371 65.3735 62.2918C65.1472 62.2464 64.9394 62.1344 64.7762 61.97C64.6131 61.8056 64.502 61.5961 64.457 61.368C64.412 61.1399 64.4351 60.9035 64.5234 60.6887C64.6117 60.4739 64.7612 60.2902 64.953 60.161C65.1448 60.0318 65.3704 59.9629 65.6011 59.9629C65.9101 59.964 66.2062 60.0883 66.4247 60.3085C66.6432 60.5288 66.7665 60.8272 66.7676 61.1386Z" fill="#636363"/>
<path d="M94.708 61.1386C94.708 61.3712 94.6396 61.5985 94.5114 61.7918C94.3832 61.9852 94.2011 62.1359 93.9879 62.2249C93.7748 62.3139 93.5402 62.3371 93.3139 62.2918C93.0877 62.2464 92.8798 62.1344 92.7167 61.97C92.5535 61.8056 92.4424 61.5961 92.3974 61.368C92.3524 61.1399 92.3755 60.9035 92.4638 60.6887C92.5521 60.4739 92.7016 60.2902 92.8934 60.161C93.0853 60.0318 93.3108 59.9629 93.5415 59.9629C93.8505 59.964 94.1466 60.0883 94.3651 60.3085C94.5836 60.5288 94.7069 60.8272 94.708 61.1386Z" fill="#636363"/>
<path d="M64.5526 50.2833C64.3153 48.3565 64.5081 46.4006 65.1168 44.5585C65.7416 42.6702 66.7532 40.9354 68.0861 39.4665C69.448 37.9686 71.1091 36.7782 72.96 35.9735C74.8143 35.1543 76.8168 34.7314 78.8414 34.7314C80.8659 34.7314 82.8685 35.1543 84.7228 35.9735C86.5648 36.7829 88.2168 37.9746 89.5712 39.4708C90.9064 40.938 91.9183 42.6733 92.5406 44.5628C93.1459 46.4057 93.3371 48.3611 93.1005 50.2876C92.6642 46.6343 90.9532 43.2564 88.2732 40.7577C85.6884 38.3852 82.3183 37.0702 78.8223 37.0702C75.3263 37.0702 71.9562 38.3852 69.3714 40.7577C66.6943 43.2558 64.9862 46.6323 64.5526 50.2833Z" fill="#FD3E72"/>
<path d="M95.7226 83.4354C93.9156 82.9822 92.0576 82.7513 90.2506 82.3066C86.4522 99.9803 83.7702 117.879 82.2207 135.895L103.383 135.583C105.773 135.548 108.052 134.567 109.729 132.852C111.407 131.136 112.347 128.825 112.347 126.416V105.125C112.397 100.152 110.784 95.3082 107.768 91.3732C104.752 87.4382 100.509 84.6419 95.7226 83.4354Z" fill="#FD3E72"/>
<path d="M69.8513 82.2041C67.9213 82.7214 65.9191 82.948 63.9805 83.4354C59.1946 84.642 54.9514 87.4383 51.9354 91.3733C48.9194 95.3083 47.3064 100.153 47.3566 105.125V136.408L77.8982 135.959C76.3492 117.887 73.6615 99.9324 69.8513 82.2041Z" fill="#FD3E72"/>
<g style="mix-blend-mode:multiply" opacity="0.18">
<path d="M63.9804 83.4354C63.3187 83.6021 62.6697 83.8031 62.0334 84.0297C60.5572 88.2538 59.2111 92.5079 57.9951 96.7919C60.3069 98.1343 62.5382 99.806 65.0494 100.871C64.1416 103.098 63.1745 105.574 62.2667 107.797C66.8898 116.9 70.8467 126.331 74.1058 136.015L77.9235 135.968C76.0362 117.953 72.796 100.109 68.2308 82.5889C66.8055 82.8668 65.376 83.0848 63.9804 83.4354Z" fill="black"/>
</g>
<g style="mix-blend-mode:multiply" opacity="0.18">
<path d="M97.8817 107.796C96.9952 105.564 96.045 103.093 95.1584 100.87C97.6145 99.8054 99.7991 98.1337 102.056 96.7912C100.893 92.5728 99.5997 88.3814 98.1744 84.2172C97.3733 83.9076 96.5546 83.6463 95.7226 83.4348C94.3907 83.097 93.029 82.8875 91.6801 82.6182C87.224 100.117 84.0621 117.924 82.2207 135.894L86.3608 135.834C89.5303 126.222 93.3806 116.852 97.8817 107.796Z" fill="black"/>
</g>
<path d="M69.8513 82.2041C68.2818 82.6316 66.6656 82.854 65.0749 83.1875C63.7627 87.6909 62.575 92.2257 61.5117 96.7919C63.4163 98.1344 65.2531 99.8061 67.3231 100.871C66.5765 103.098 65.7748 105.574 65.0282 107.797C68.8686 116.986 72.1273 126.41 74.7846 136.015L77.9193 135.968C76.3637 117.892 73.6689 99.9347 69.8513 82.2041Z" fill="#EA2C60"/>
<path d="M95.413 83.3709C93.7162 82.9433 91.9558 82.7338 90.2506 82.3105C86.4522 99.9842 83.7702 117.883 82.2207 135.899L85.7033 135.848C88.3504 126.302 91.592 116.935 95.4087 107.801C94.6621 105.569 93.8604 103.098 93.1139 100.874C95.1839 99.8099 97.0206 98.1382 98.9252 96.7957C97.8789 92.2866 96.7081 87.8116 95.413 83.3709Z" fill="#EA2C60"/>
<path d="M75.3693 69.1764H75.3481C73.9998 69.1335 72.6574 68.9762 71.3353 68.7061C69.963 68.4228 68.6862 67.7882 67.6279 66.8634C66.3925 65.6344 65.5731 64.044 65.2863 62.3186C65.0162 60.6574 64.9223 58.9719 65.0064 57.2907C65.0097 57.1893 65.0516 57.0932 65.1236 57.0223C65.1955 56.9514 65.2918 56.9112 65.3924 56.9102C65.4429 56.9107 65.4928 56.9214 65.5392 56.9415C65.5856 56.9616 65.6275 56.9908 65.6626 57.0274C65.6977 57.064 65.7253 57.1072 65.7437 57.1546C65.7621 57.202 65.771 57.2526 65.7699 57.3035C65.689 58.9303 65.7786 60.5611 66.0372 62.1689C66.2968 63.7345 67.0389 65.178 68.1581 66.2947C69.119 67.1303 70.2777 67.7017 71.5219 67.9536C72.8007 68.2139 74.0992 68.3641 75.4033 68.4025C75.4981 68.4126 75.5859 68.4577 75.6497 68.5291C75.7135 68.6006 75.7489 68.6933 75.7489 68.7894C75.7489 68.8856 75.7135 68.9783 75.6497 69.0497C75.5859 69.1212 75.4981 69.1663 75.4033 69.1764H75.3693Z" fill="#FD3E72"/>
<path d="M76.49 68.7613C76.49 69.3385 75.8452 69.8046 75.0477 69.8046C74.2502 69.8046 73.6055 69.3385 73.6055 68.7613C73.6055 68.1842 74.2545 67.7139 75.0477 67.7139C75.8409 67.7139 76.49 68.1842 76.49 68.7613Z" fill="#FD3E72"/>
<path d="M52.9516 90.8955C48.6122 95.3847 45.6301 101.058 43.5431 106.963C41.4561 112.867 40.2217 119.032 38.9916 125.172C38.6395 126.942 38.2874 128.78 38.7286 130.525C39.6363 134.107 43.5601 136.061 47.2124 136.489C50.8646 136.916 54.5805 136.305 58.1861 136.985C60.85 121.717 59.7344 104.812 52.9516 90.8955Z" fill="#FD3E72"/>
<path d="M65.3246 128.862C68.0012 128.075 70.6948 127.28 73.4647 126.998C76.2347 126.716 79.1234 126.964 81.6346 128.182C84.1458 129.401 86.2328 131.675 86.8054 134.424C86.9878 135.28 85.3123 135.536 84.4597 135.78C83.592 135.979 82.6971 136.03 81.8127 135.929L72.9599 135.433C70.839 135.314 68.5526 135.835 66.7838 134.672C65.9188 134.038 65.3367 133.086 65.1634 132.022C64.9428 130.974 65.2567 129.927 65.3246 128.862Z" fill="#FFC582"/>
<path d="M46.971 124.287C54.6919 123.847 62.4309 123.837 70.1529 124.257C70.857 127.904 71.8072 131.901 71.4891 135.604C65.3193 137.281 58.827 137.346 52.6254 135.792C48.3581 134.736 46.9201 128.69 46.971 124.287Z" fill="#FD3E72"/>
<g style="mix-blend-mode:multiply" opacity="0.18">
<path d="M65.8811 124.18C63.1186 122.778 60.1205 121.908 57.041 121.615C57.5237 117.167 57.6273 112.685 57.3507 108.22C58.4748 111.811 59.2892 115.488 59.2426 119.267C61.8513 120.221 64.4346 121.786 65.8811 124.18Z" fill="black"/>
</g>
<path d="M54.2451 133.735H142.387V134.471C142.387 134.946 142.2 135.401 141.867 135.737C141.533 136.073 141.081 136.262 140.61 136.262H56.0225C55.5511 136.262 55.099 136.073 54.7657 135.737C54.4324 135.401 54.2451 134.946 54.2451 134.471V133.735Z" fill="#E0E8FF"/>
<g style="mix-blend-mode:multiply">
<path d="M54.2451 133.735H142.387V134.471C142.387 134.946 142.2 135.401 141.867 135.737C141.533 136.073 141.081 136.262 140.61 136.262H56.0225C55.5511 136.262 55.099 136.073 54.7657 135.737C54.4324 135.401 54.2451 134.946 54.2451 134.471V133.735Z" fill="#9A9A9A"/>
</g>
<g style="mix-blend-mode:multiply">
<path d="M84.9521 134.471V133.735H54.2451V134.471C54.2462 134.945 54.434 135.4 54.7672 135.735C55.1004 136.07 55.5518 136.258 56.0225 136.258H83.1705C83.4041 136.259 83.6356 136.214 83.8517 136.124C84.0678 136.035 84.2642 135.904 84.4298 135.737C84.5953 135.571 84.7267 135.374 84.8163 135.157C84.906 134.939 84.9521 134.706 84.9521 134.471Z" fill="#DADADA"/>
</g>
<path d="M142.387 133.736H84.9521L97.7584 98.2493C98.0183 97.5832 98.4604 97.005 99.0333 96.582C99.6062 96.159 100.286 95.9084 100.995 95.8594H153.688C154.998 95.8594 155.673 96.9282 155.198 98.2493L142.387 133.736Z" fill="#5B5863"/>
<path d="M124.194 114.804C123.451 116.861 121.199 118.524 119.163 118.524C117.127 118.524 116.075 116.861 116.817 114.804C117.559 112.748 119.812 111.089 121.848 111.089C123.884 111.089 124.936 112.752 124.194 114.804Z" fill="white"/>
<g style="mix-blend-mode:multiply">
<path d="M78.7972 135.463H76.8035C76.6831 135.463 76.5677 135.415 76.4826 135.329C76.3974 135.243 76.3496 135.127 76.3496 135.006C76.3491 134.945 76.3604 134.885 76.383 134.829C76.4055 134.773 76.4389 134.722 76.4811 134.679C76.5233 134.637 76.5735 134.602 76.6288 134.579C76.6842 134.556 76.7435 134.544 76.8035 134.544H78.7972C78.9187 134.544 79.0352 134.593 79.1211 134.679C79.207 134.766 79.2553 134.883 79.2553 135.006C79.2542 135.127 79.2054 135.244 79.1196 135.329C79.0338 135.415 78.918 135.463 78.7972 135.463Z" fill="#D0D8ED"/>
</g>
<g style="mix-blend-mode:multiply">
<path d="M74.7542 135.463H72.7605C72.6402 135.463 72.5247 135.415 72.4396 135.329C72.3545 135.243 72.3067 135.127 72.3067 135.006C72.3061 134.945 72.3174 134.885 72.34 134.829C72.3625 134.773 72.3959 134.722 72.4381 134.679C72.4803 134.637 72.5305 134.602 72.5859 134.579C72.6412 134.556 72.7006 134.544 72.7605 134.544H74.7542C74.8142 134.544 74.8736 134.556 74.9289 134.579C74.9843 134.602 75.0345 134.637 75.0767 134.679C75.1189 134.722 75.1522 134.773 75.1748 134.829C75.1973 134.885 75.2087 134.945 75.2081 135.006C75.2081 135.127 75.1603 135.243 75.0752 135.329C74.9901 135.415 74.8746 135.463 74.7542 135.463Z" fill="#D0D8ED"/>
</g>
<g style="mix-blend-mode:multiply">
<path d="M70.7125 135.463H68.7189C68.6589 135.464 68.5994 135.452 68.5439 135.43C68.4883 135.407 68.4378 135.373 68.3952 135.331C68.3526 135.288 68.3188 135.238 68.2957 135.182C68.2726 135.126 68.2607 135.066 68.2607 135.006C68.2607 134.883 68.309 134.766 68.3949 134.679C68.4808 134.593 68.5974 134.544 68.7189 134.544H70.7125C70.7725 134.544 70.8319 134.556 70.8872 134.579C70.9426 134.602 70.9928 134.637 71.035 134.679C71.0772 134.722 71.1105 134.773 71.1331 134.829C71.1557 134.885 71.167 134.945 71.1664 135.006C71.1664 135.127 71.1186 135.243 71.0335 135.329C70.9484 135.415 70.8329 135.463 70.7125 135.463Z" fill="#D0D8ED"/>
</g>
<path d="M46.3175 132.823C45.1186 132.823 43.9467 132.464 42.9498 131.793C41.953 131.122 41.1761 130.168 40.7173 129.051C40.2585 127.935 40.1384 126.706 40.3723 125.521C40.6062 124.336 41.1835 123.247 42.0313 122.393C42.879 121.539 43.9591 120.957 45.1349 120.721C46.3108 120.485 47.5296 120.606 48.6372 121.069C49.7448 121.531 50.6915 122.314 51.3576 123.319C52.0237 124.324 52.3792 125.505 52.3792 126.713C52.378 128.333 51.739 129.886 50.6025 131.032C49.466 132.178 47.9248 132.822 46.3175 132.823ZM46.3175 122.515C45.4936 122.515 44.6883 122.761 44.0033 123.222C43.3183 123.684 42.7843 124.339 42.4691 125.106C42.1538 125.874 42.0713 126.718 42.232 127.532C42.3927 128.347 42.7895 129.095 43.372 129.682C43.9546 130.269 44.6968 130.669 45.5049 130.831C46.3129 130.993 47.1504 130.91 47.9116 130.592C48.6727 130.274 49.3233 129.736 49.781 129.046C50.2387 128.355 50.483 127.543 50.483 126.713C50.4808 125.6 50.0412 124.534 49.2605 123.747C48.4798 122.96 47.4216 122.517 46.3175 122.515Z" fill="white"/>
<path d="M29.4131 131.004C29.4111 131.737 29.5082 132.468 29.7016 133.176C29.9536 134.068 30.4886 134.852 31.2248 135.409C31.9609 135.965 32.8577 136.264 33.778 136.258H41.2183C42.138 136.264 43.0342 135.965 43.7696 135.408C44.505 134.852 45.0392 134.067 45.2905 133.176C45.4853 132.468 45.5837 131.738 45.5832 131.004V118.566H29.4131V131.004Z" fill="white"/>
<path d="M128.737 65.6836H113.979C112.831 65.6836 111.729 66.1435 110.917 66.9621C110.105 67.7808 109.648 68.8911 109.648 70.0488V77.1589C109.648 77.7321 109.76 78.2998 109.978 78.8294C110.196 79.359 110.515 79.8402 110.917 80.2456C111.319 80.6509 111.797 80.9724 112.322 81.1918C112.847 81.4112 113.411 81.5241 113.979 81.5241H114.476L113.47 82.9435C113.401 83.0451 113.366 83.1665 113.371 83.2897C113.375 83.4129 113.419 83.5313 113.496 83.6274C113.573 83.7234 113.678 83.7919 113.797 83.8228C113.915 83.8536 114.04 83.8452 114.153 83.7986L118.858 81.7892C119.279 81.6089 119.732 81.5159 120.19 81.5156H128.737C129.886 81.5156 130.987 81.0556 131.799 80.237C132.612 79.4184 133.068 78.3081 133.068 77.1503V70.0488C133.068 68.8911 132.612 67.7808 131.799 66.9621C130.987 66.1435 129.886 65.6836 128.737 65.6836Z" fill="white"/>
<path d="M130.099 70.9715H112.618C112.419 70.9715 112.227 70.8919 112.086 70.7501C111.944 70.6083 111.864 70.4158 111.863 70.2147C111.864 70.0137 111.944 69.8212 112.086 69.6794C112.227 69.5376 112.419 69.458 112.618 69.458H130.099C130.298 69.458 130.489 69.5377 130.63 69.6797C130.771 69.8216 130.85 70.014 130.85 70.2147C130.85 70.3141 130.831 70.4125 130.793 70.5043C130.755 70.5962 130.7 70.6796 130.63 70.7498C130.56 70.8201 130.478 70.8759 130.386 70.9139C130.295 70.9519 130.198 70.9715 130.099 70.9715Z" fill="#EDEDED"/>
<path d="M130.099 74.3625H112.618C112.418 74.3625 112.226 74.2823 112.084 74.1396C111.943 73.9969 111.863 73.8033 111.863 73.6015C111.864 73.4004 111.944 73.2079 112.086 73.0661C112.227 72.9243 112.419 72.8447 112.618 72.8447H130.099C130.298 72.8447 130.489 72.9245 130.63 73.0664C130.771 73.2083 130.85 73.4008 130.85 73.6015C130.85 73.8026 130.771 73.9955 130.63 74.1381C130.49 74.2807 130.299 74.3614 130.099 74.3625Z" fill="#EDEDED"/>
<path d="M122.447 77.7313H112.618C112.419 77.7313 112.227 77.6517 112.086 77.5099C111.944 77.3681 111.864 77.1756 111.863 76.9745C111.864 76.7734 111.944 76.581 112.086 76.4392C112.227 76.2974 112.419 76.2178 112.618 76.2178H122.447C122.646 76.2178 122.837 76.2975 122.978 76.4394C123.119 76.5813 123.198 76.7738 123.198 76.9745C123.198 77.1752 123.119 77.3677 122.978 77.5096C122.837 77.6515 122.646 77.7313 122.447 77.7313Z" fill="#EDEDED"/>
<path d="M152.055 23.1729H138.006C133.241 23.1729 129.378 27.0663 129.378 31.8691V46.0293C129.378 50.8321 133.241 54.7256 138.006 54.7256H152.055C156.82 54.7256 160.683 50.8321 160.683 46.0293V31.8691C160.683 27.0663 156.82 23.1729 152.055 23.1729Z" fill="#FD3E72"/>
<path d="M136.728 46.9908C135.74 45.8965 134.978 44.6152 134.486 43.2213C133.995 41.8274 133.783 40.3488 133.863 38.8717C133.944 37.3945 134.315 35.9482 134.956 34.617C135.596 33.2858 136.493 32.0964 137.593 31.1178C138.694 30.1393 139.977 29.3912 141.368 28.9172C142.758 28.4432 144.228 28.2527 145.692 28.3567C147.157 28.4608 148.586 28.8574 149.896 29.5235C151.207 30.1895 152.373 31.1116 153.327 32.2362C153.406 32.3233 153.468 32.4256 153.508 32.537C153.548 32.6484 153.565 32.7668 153.559 32.8851C153.553 33.0034 153.524 33.1193 153.472 33.2259C153.421 33.3326 153.349 33.4279 153.261 33.5062C153.173 33.5845 153.07 33.6443 152.959 33.6821C152.848 33.7198 152.73 33.7347 152.613 33.7259C152.495 33.7171 152.381 33.6848 152.276 33.6309C152.172 33.577 152.079 33.5026 152.003 33.412C150.502 31.7035 148.434 30.6052 146.187 30.3228C143.941 30.0404 141.669 30.5933 139.797 31.8779C137.926 33.1625 136.583 35.0907 136.021 37.3013C135.458 39.512 135.715 41.8535 136.742 43.8872C137.77 45.9209 139.497 47.5074 141.602 48.3494C143.706 49.1915 146.043 49.2314 148.175 48.4617C150.306 47.6919 152.086 46.1654 153.182 44.1679C154.277 42.1704 154.612 39.8391 154.124 37.6105C154.074 37.3797 154.117 37.1384 154.243 36.9395C154.37 36.7407 154.57 36.6006 154.798 36.5502C155.027 36.4997 155.267 36.543 155.464 36.6705C155.661 36.7979 155.8 36.9992 155.85 37.23C156.373 39.6433 156.086 42.1633 155.035 44.3947C153.984 46.6261 152.227 48.4425 150.041 49.5592C147.855 50.6758 145.363 51.0294 142.956 50.5646C140.549 50.0998 138.363 48.8428 136.741 46.9908H136.728Z" fill="white"/>
<path d="M147.244 33.776C147.117 33.6305 147.039 33.4476 147.023 33.2544C147.014 33.1375 147.028 33.02 147.064 32.9085C147.1 32.797 147.157 32.6938 147.233 32.6048C147.309 32.5158 147.401 32.4428 147.505 32.3899C147.609 32.337 147.722 32.3053 147.838 32.2967L151.706 31.9974L151.409 28.0982C151.391 27.8629 151.466 27.6298 151.618 27.4502C151.77 27.2706 151.986 27.1592 152.22 27.1405C152.453 27.1218 152.684 27.1973 152.862 27.3505C153.041 27.5036 153.151 27.7218 153.17 27.9571L153.535 32.7456C153.544 32.8636 153.531 32.9823 153.494 33.0949C153.458 33.2074 153.399 33.3114 153.322 33.4007C153.245 33.49 153.151 33.5628 153.045 33.6148C152.94 33.6667 152.825 33.6968 152.707 33.7033L147.957 34.0753C147.823 34.0831 147.689 34.0602 147.566 34.0083C147.443 33.9565 147.332 33.877 147.244 33.776Z" fill="white"/>
<path d="M139.369 41.0019C139.495 40.9017 139.552 40.8553 139.541 40.8627C139.903 40.562 140.187 40.3151 140.394 40.1221C140.605 39.929 140.782 39.7267 140.926 39.5151C141.07 39.3035 141.142 39.0974 141.142 38.897C141.142 38.7448 141.107 38.626 141.037 38.5406C140.966 38.4552 140.861 38.4125 140.721 38.4125C140.581 38.4125 140.47 38.4663 140.389 38.574C140.311 38.6779 140.272 38.8264 140.272 39.0195H139.358C139.366 38.7039 139.432 38.4403 139.558 38.2287C139.687 38.0171 139.855 37.8612 140.062 37.761C140.272 37.6607 140.505 37.6106 140.76 37.6106C141.199 37.6106 141.529 37.7238 141.751 37.9503C141.976 38.1768 142.089 38.4719 142.089 38.8357C142.089 39.2329 141.954 39.6023 141.685 39.9439C141.415 40.2817 141.072 40.6121 140.654 40.9351H142.15V41.7091H139.369V41.0019Z" fill="white"/>
<path d="M142.589 41.0409V40.2724L144.339 37.7554H145.397V40.2167H145.851V41.0409H145.397V41.7648H144.45V41.0409H142.589ZM144.516 38.8023L143.586 40.2167H144.516V38.8023Z" fill="white"/>
<path d="M148.519 36.4746L147.035 42.8061H146.121L147.605 36.4746H148.519Z" fill="white"/>
<path d="M151.405 38.4125L150.015 41.7648H149.046L150.453 38.5183H148.73V37.7053H151.405V38.4125Z" fill="white"/>
<g style="mix-blend-mode:multiply">
<g style="mix-blend-mode:multiply">
<path d="M11.0036 124.868C11.0036 125.004 10.9634 125.138 10.8882 125.251C10.8129 125.364 10.706 125.452 10.581 125.504C10.456 125.556 10.3184 125.57 10.1858 125.543C10.0532 125.516 9.93156 125.45 9.83622 125.353C9.74088 125.257 9.67618 125.133 9.6503 125C9.62443 124.866 9.63857 124.727 9.69091 124.602C9.74325 124.476 9.83144 124.369 9.94431 124.294C10.0572 124.218 10.1896 124.179 10.3249 124.18C10.4144 124.18 10.503 124.198 10.5856 124.232C10.6682 124.267 10.7432 124.318 10.8063 124.382C10.8694 124.446 10.9193 124.521 10.9531 124.605C10.987 124.688 11.0041 124.778 11.0036 124.868Z" fill="#E0E8FF"/>
</g>
<g style="mix-blend-mode:multiply">
<path d="M14.3321 36.7036C14.3373 36.3896 14.0891 36.1308 13.7775 36.1254C13.466 36.1201 13.2092 36.3704 13.2039 36.6844C13.1986 36.9984 13.4469 37.2572 13.7584 37.2626C14.07 37.2679 14.3268 37.0176 14.3321 36.7036Z" fill="#E0E8FF"/>
</g>
<g style="mix-blend-mode:multiply">
<path d="M84.9524 4.61261C84.9524 4.83923 84.8857 5.06077 84.7608 5.24919C84.6359 5.43762 84.4583 5.58448 84.2506 5.67121C84.0429 5.75793 83.8143 5.78062 83.5938 5.73641C83.3732 5.6922 83.1707 5.58307 83.0117 5.42283C82.8527 5.26258 82.7444 5.05842 82.7006 4.83615C82.6567 4.61388 82.6792 4.3835 82.7652 4.17413C82.8513 3.96476 82.997 3.78581 83.184 3.6599C83.3709 3.534 83.5907 3.4668 83.8155 3.4668C84.117 3.4668 84.4062 3.58752 84.6194 3.8024C84.8326 4.01728 84.9524 4.30872 84.9524 4.61261Z" fill="#E0E8FF"/>
</g>
<g style="mix-blend-mode:multiply">
<path d="M92.1377 15.6817C92.1377 15.9415 92.0612 16.1954 91.918 16.4114C91.7747 16.6273 91.571 16.7955 91.3328 16.8948C91.0946 16.994 90.8326 17.0197 90.5798 16.9687C90.3271 16.9177 90.0951 16.7923 89.9131 16.6083C89.7312 16.4243 89.6075 16.19 89.5577 15.9351C89.5079 15.6802 89.5343 15.4162 89.6336 15.1764C89.7328 14.9367 89.9003 14.732 90.1151 14.5883C90.3298 14.4446 90.582 14.3683 90.8397 14.3691C91.0105 14.3691 91.1797 14.4031 91.3374 14.4691C91.4952 14.5352 91.6385 14.6319 91.7591 14.7538C91.8796 14.8758 91.9752 15.0205 92.0401 15.1797C92.1051 15.339 92.1383 15.5095 92.1377 15.6817Z" fill="#E0E8FF"/>
</g>
</g>
<path d="M45.1334 20.7959H22.6387C18.6373 20.7959 15.3936 24.0653 15.3936 28.0983V39.9969C15.3936 44.0299 18.6373 47.2993 22.6387 47.2993H45.1334C49.1348 47.2993 52.3785 44.0299 52.3785 39.9969V28.0983C52.3785 24.0653 49.1348 20.7959 45.1334 20.7959Z" fill="#FD3E72"/>
<path d="M25.8592 30.6661C26.5995 29.1227 25.9582 27.2667 24.4269 26.5206C22.8957 25.7745 21.0542 26.4208 20.314 27.9642C19.5737 29.5076 20.215 31.3636 21.7463 32.1097C23.2775 32.8558 25.119 32.2095 25.8592 30.6661Z" fill="white"/>
<path d="M45.0365 28.1201H29.4518C29.3276 28.1201 29.2046 28.0954 29.0898 28.0475C28.975 27.9996 28.8708 27.9294 28.7829 27.8409C28.6951 27.7523 28.6254 27.6472 28.5779 27.5315C28.5303 27.4159 28.5059 27.2919 28.5059 27.1667C28.5053 27.0411 28.5294 26.9167 28.5767 26.8005C28.6239 26.6843 28.6935 26.5787 28.7814 26.4897C28.8693 26.4008 28.9738 26.3301 29.0888 26.282C29.2039 26.2338 29.3272 26.209 29.4518 26.209H45.0365C45.1611 26.209 45.2844 26.2338 45.3995 26.282C45.5145 26.3301 45.619 26.4008 45.7069 26.4897C45.7948 26.5787 45.8644 26.6843 45.9116 26.8005C45.9589 26.9167 45.983 27.0411 45.9824 27.1667C45.9824 27.2919 45.958 27.4159 45.9104 27.5315C45.8629 27.6472 45.7932 27.7523 45.7054 27.8409C45.6175 27.9294 45.5133 27.9996 45.3985 28.0475C45.2837 28.0954 45.1607 28.1201 45.0365 28.1201Z" fill="white"/>
<path d="M45.0365 32.459H29.4518C29.3276 32.459 29.2046 32.4343 29.0898 32.3864C28.975 32.3385 28.8708 32.2683 28.7829 32.1797C28.6951 32.0912 28.6254 31.9861 28.5779 31.8704C28.5303 31.7547 28.5059 31.6308 28.5059 31.5056C28.5053 31.38 28.5294 31.2555 28.5767 31.1394C28.6239 31.0232 28.6935 30.9176 28.7814 30.8286C28.8693 30.7396 28.9738 30.669 29.0888 30.6208C29.2039 30.5727 29.3272 30.5479 29.4518 30.5479H45.0365C45.1611 30.5479 45.2844 30.5727 45.3995 30.6208C45.5145 30.669 45.619 30.7396 45.7069 30.8286C45.7948 30.9176 45.8644 31.0232 45.9116 31.1394C45.9589 31.2555 45.983 31.38 45.9824 31.5056C45.9824 31.6308 45.958 31.7547 45.9104 31.8704C45.8629 31.9861 45.7932 32.0912 45.7054 32.1797C45.6175 32.2683 45.5133 32.3385 45.3985 32.3864C45.2837 32.4343 45.1607 32.459 45.0365 32.459Z" fill="white"/>
<path d="M25.985 39.7952C26.5617 38.1824 25.7321 36.4039 24.132 35.8226C22.532 35.2414 20.7674 36.0775 20.1907 37.6903C19.614 39.303 20.4436 41.0815 22.0437 41.6628C23.6437 42.2441 25.4083 41.4079 25.985 39.7952Z" fill="white"/>
<path d="M45.0355 37.5426H29.4508C29.3266 37.5426 29.2036 37.5179 29.0888 37.47C28.9741 37.4221 28.8698 37.3519 28.7819 37.2633C28.6941 37.1748 28.6244 37.0697 28.5769 36.954C28.5294 36.8383 28.5049 36.7144 28.5049 36.5892C28.5049 36.464 28.5294 36.34 28.5769 36.2243C28.6244 36.1086 28.6941 36.0035 28.7819 35.915C28.8698 35.8265 28.9741 35.7562 29.0888 35.7083C29.2036 35.6604 29.3266 35.6357 29.4508 35.6357H45.0355C45.2864 35.6357 45.527 35.7362 45.7044 35.915C45.8818 36.0938 45.9814 36.3363 45.9814 36.5892C45.9814 36.7144 45.957 36.8383 45.9094 36.954C45.8619 37.0697 45.7922 37.1748 45.7044 37.2633C45.6165 37.3519 45.5123 37.4221 45.3975 37.47C45.2827 37.5179 45.1597 37.5426 45.0355 37.5426Z" fill="white"/>
<path d="M45.0365 41.8994H29.4518C29.3272 41.8994 29.2039 41.8746 29.0888 41.8264C28.9738 41.7782 28.8693 41.7076 28.7814 41.6186C28.6935 41.5296 28.6239 41.424 28.5767 41.3079C28.5294 41.1917 28.5053 41.0673 28.5059 40.9417C28.5059 40.8165 28.5303 40.6925 28.5779 40.5768C28.6254 40.4612 28.6951 40.3561 28.7829 40.2675C28.8708 40.179 28.975 40.1088 29.0898 40.0609C29.2046 40.0129 29.3276 39.9883 29.4518 39.9883H45.0365C45.2874 39.9883 45.528 40.0887 45.7054 40.2675C45.8828 40.4463 45.9824 40.6888 45.9824 40.9417C45.983 41.0673 45.9589 41.1917 45.9116 41.3079C45.8644 41.424 45.7948 41.5296 45.7069 41.6186C45.619 41.7076 45.5145 41.7782 45.3995 41.8264C45.2844 41.8746 45.1611 41.8994 45.0365 41.8994Z" fill="white"/>
<path d="M27.8737 85.7783H16.8703C13.1406 85.7783 10.1172 88.8257 10.1172 92.5848V103.675C10.1172 107.434 13.1406 110.482 16.8703 110.482H27.8737C31.6033 110.482 34.6268 107.434 34.6268 103.675V92.5848C34.6268 88.8257 31.6033 85.7783 27.8737 85.7783Z" fill="#FD3E72"/>
<path d="M22.6663 91.6406C23.9009 91.6406 24.8874 91.9655 25.6259 92.6151C26.3759 93.2648 26.7509 94.1813 26.7509 95.3646C26.7509 96.4552 26.3932 97.3079 25.6778 97.9227C24.974 98.526 24.0393 98.8334 22.874 98.845L22.7874 100.15H20.1913L20.1047 96.9134H21.1432C22.0317 96.9134 22.7067 96.8032 23.1682 96.5828C23.6413 96.3624 23.8778 95.9621 23.8778 95.382C23.8778 94.976 23.7682 94.657 23.549 94.4249C23.3297 94.1929 23.024 94.0769 22.6317 94.0769C22.2163 94.0769 21.8932 94.1987 21.6624 94.4423C21.4317 94.6744 21.3163 94.9934 21.3163 95.3994H18.5297C18.5067 94.6918 18.6509 94.0537 18.9624 93.4852C19.2855 92.9168 19.7586 92.4701 20.3817 92.1453C21.0163 91.8088 21.7778 91.6406 22.6663 91.6406ZM21.524 104.675C21.0047 104.675 20.5778 104.524 20.2432 104.222C19.9201 103.909 19.7586 103.526 19.7586 103.074C19.7586 102.61 19.9201 102.221 20.2432 101.908C20.5778 101.595 21.0047 101.438 21.524 101.438C22.0317 101.438 22.447 101.595 22.7701 101.908C23.1047 102.221 23.272 102.61 23.272 103.074C23.272 103.526 23.1047 103.909 22.7701 104.222C22.447 104.524 22.0317 104.675 21.524 104.675Z" fill="white"/>
<path d="M89.0628 0H75.0137C70.2486 0 66.3857 3.89344 66.3857 8.69623V14.3056C66.3857 19.1084 70.2486 23.0018 75.0137 23.0018H89.0628C93.8279 23.0018 97.6908 19.1084 97.6908 14.3056V8.69623C97.6908 3.89344 93.8279 0 89.0628 0Z" fill="#FD3E72"/>
<path d="M90.6574 11.5011C90.6574 11.9577 90.5231 12.4041 90.2714 12.7838C90.0197 13.1634 89.6619 13.4594 89.2434 13.6341C88.8248 13.8089 88.3643 13.8546 87.9199 13.7655C87.4756 13.6764 87.0674 13.4565 86.7471 13.1336C86.4267 12.8108 86.2086 12.3994 86.1202 11.9515C86.0318 11.5037 86.0772 11.0395 86.2505 10.6176C86.4239 10.1957 86.7175 9.83516 87.0942 9.58147C87.4709 9.32779 87.9138 9.19238 88.3668 9.19238C88.9743 9.19238 89.5569 9.43562 89.9865 9.8686C90.4161 10.3016 90.6574 10.8888 90.6574 11.5011Z" fill="white"/>
<path d="M82.0377 13.8099C83.3028 13.8099 84.3283 12.7762 84.3283 11.5011C84.3283 10.226 83.3028 9.19238 82.0377 9.19238C80.7726 9.19238 79.7471 10.226 79.7471 11.5011C79.7471 12.7762 80.7726 13.8099 82.0377 13.8099Z" fill="white"/>
<path d="M75.7096 13.8099C76.9746 13.8099 78.0002 12.7762 78.0002 11.5011C78.0002 10.226 76.9746 9.19238 75.7096 9.19238C74.4445 9.19238 73.4189 10.226 73.4189 11.5011C73.4189 12.7762 74.4445 13.8099 75.7096 13.8099Z" fill="white"/>
</svg>
