<?xml version="1.0" encoding="utf-8"?>
<!-- Generator: Adobe Illustrator 16.0.0, SVG Export Plug-In . SVG Version: 6.00 Build 0)  -->
<!DOCTYPE svg PUBLIC "-//W3C//DTD SVG 1.1//EN" "http://www.w3.org/Graphics/SVG/1.1/DTD/svg11.dtd">
<svg version="1.1" id="Layer_1" xmlns="http://www.w3.org/2000/svg" xmlns:xlink="http://www.w3.org/1999/xlink" x="0px" y="0px"
	 width="24px" height="23px" viewBox="0 0 24 23" enable-background="new 0 0 24 23" xml:space="preserve">
<g>
	<path fill="none" stroke="#FD3E72" d="M19.71,8.23c0,2.08-0.82,3.97-2.15,5.36c-1.05,1.09-2.399,1.87-3.93,2.2
		c-0.52,0.11-1.07,0.17-1.63,0.17c-0.43,0-0.85-0.03-1.26-0.1c-1.47-0.24-2.8-0.9-3.86-1.851c-0.06-0.05-0.12-0.1-0.17-0.16
		c-0.2-0.18-0.39-0.38-0.57-0.59c-0.17-0.2-0.33-0.41-0.48-0.63c-0.45-0.65-0.8-1.38-1.04-2.15C4.41,9.77,4.29,9.01,4.29,8.23
		C4.29,3.96,7.74,0.5,12,0.5c0.78,0,1.53,0.12,2.24,0.33c0.77,0.24,1.49,0.59,2.14,1.04C16.6,2.02,16.81,2.18,17,2.35l0.01,0.01
		c0.26,0.22,0.51,0.47,0.75,0.73C18.97,4.46,19.71,6.26,19.71,8.23z"/>
</g>
<path fill="#FD3E72" d="M12,2.336c-3.247,0-5.878,2.64-5.878,5.896S8.753,14.129,12,14.129s5.878-2.64,5.878-5.896
	S15.246,2.336,12,2.336z M12,13.448c-2.868,0-5.2-2.34-5.2-5.216c0-2.876,2.333-5.216,5.2-5.216s5.2,2.339,5.2,5.216
	C17.199,11.108,14.867,13.448,12,13.448z"/>
<path fill="#FD3E72" d="M12.2,4.972l0.808,1.649c0.033,0.067,0.097,0.114,0.171,0.125l1.815,0.261
	c0.186,0.027,0.26,0.255,0.125,0.386l-1.316,1.282c-0.053,0.052-0.078,0.127-0.064,0.201l0.312,1.812
	c0.033,0.186-0.162,0.327-0.328,0.238l-1.62-0.858c-0.066-0.035-0.146-0.035-0.211,0l-1.62,0.858
	c-0.166,0.088-0.36-0.053-0.329-0.238l0.314-1.812c0.013-0.074-0.012-0.149-0.065-0.201L8.875,7.392
	C8.741,7.261,8.815,7.033,9.001,7.006l1.815-0.261c0.074-0.011,0.138-0.057,0.171-0.125l0.807-1.649
	C11.877,4.803,12.118,4.803,12.2,4.972z"/>
<path fill="none" stroke="#FD3E72" stroke-width="0.8" d="M18.943,21.905l-3.347-4.861c1.335-0.636,2.222-1.251,3.454-2.39
	l3.352,4.869l-2.081-0.5c-0.521-0.125-1.034,0.229-1.103,0.759L18.943,21.905z"/>
<path fill="none" stroke="#FD3E72" stroke-width="0.8" d="M1.595,19.477l3.345-4.859c1.071,1.021,1.962,1.63,3.465,2.374
	l-3.35,4.867l-0.276-2.122c-0.069-0.531-0.583-0.885-1.103-0.76L1.595,19.477z"/>
</svg>
