<svg width="81" height="61" viewBox="0 0 81 61" fill="none" xmlns="http://www.w3.org/2000/svg">
<path d="M10.1 6.73333H70.7V43.7667H74.0667V6.73333C74.0667 4.94754 73.3573 3.23489 72.0945 1.97215C70.8318 0.709403 69.1191 0 67.3333 0H13.4667C11.6809 0 9.96823 0.709403 8.70548 1.97215C7.44274 3.23489 6.73333 4.94754 6.73333 6.73333V43.7667H10.1V6.73333ZM52.1833 47.1333V52.1833H28.6167V47.1333H0C0 48.9018 0.348325 50.653 1.02509 52.2868C1.70185 53.9207 2.6938 55.4052 3.9443 56.6557C6.46979 59.1812 9.89508 60.6 13.4667 60.6H67.3333C70.9049 60.6 74.3302 59.1812 76.8557 56.6557C79.3812 54.1302 80.8 50.7049 80.8 47.1333H52.1833Z" fill="#5B5863"/>
<path d="M38.0156 32.3735H41.7198L41.8288 31.0195C41.8288 30.8327 41.8755 30.6459 41.9689 30.4591C42.0467 30.2724 42.1401 30.1012 42.2335 29.9455C42.3268 29.7899 42.4825 29.6031 42.7004 29.3852C42.9027 29.1673 43.0739 28.9961 43.214 28.8716C43.3385 28.7471 43.5564 28.5603 43.8366 28.2957C44.1167 28.0467 44.3191 27.8444 44.4591 27.7198C44.8638 27.3307 45.2218 26.9572 45.5175 26.6148C45.7977 26.2724 46.0934 25.8833 46.3891 25.4163C46.6693 24.9494 46.8872 24.4514 47.0428 23.9066C47.1984 23.3774 47.2763 22.8016 47.2763 22.2101C47.2763 21.1984 47.0895 20.2957 46.7315 19.4864C46.358 18.677 45.8599 18.0233 45.2374 17.5253C44.6148 17.0272 43.8988 16.6537 43.1051 16.3891C42.2957 16.1401 41.4397 16 40.537 16C39.214 16 37.9689 16.2646 36.8171 16.7938C35.6654 17.323 34.716 18.0233 34 18.9261L36.9728 21.6809C37.3619 21.1518 37.8444 20.7471 38.4202 20.4358C38.9961 20.1245 39.5875 19.9689 40.1946 19.9689C40.9572 19.9689 41.5798 20.1868 42.0467 20.6226C42.5136 21.0584 42.7471 21.6654 42.7471 22.4436C42.7471 22.786 42.6848 23.1284 42.5914 23.4553C42.4825 23.7977 42.3113 24.1245 42.0934 24.4358C41.8755 24.7626 41.6576 25.0428 41.4708 25.2607C41.2685 25.4942 41.0195 25.7743 40.7082 26.1012C40.6304 26.1946 40.4747 26.3658 40.2257 26.6148C39.9767 26.8638 39.821 27.0506 39.7276 27.144C39.6342 27.2529 39.4786 27.4241 39.2763 27.6576C39.0739 27.9066 38.9339 28.0934 38.8405 28.2179C38.7471 28.358 38.6381 28.5447 38.5136 28.7782C38.3735 29.0272 38.2802 29.2296 38.2179 29.4163C38.1556 29.6031 38.1089 29.821 38.0623 30.0545C38.0156 30.3035 38 30.537 38 30.786L38.0156 32.3735ZM39.9455 40C40.6459 40 41.2529 39.751 41.751 39.2529C42.249 38.7549 42.5136 38.1634 42.5136 37.463C42.5136 37.0117 42.3891 36.5914 42.1556 36.1868C41.9222 35.7977 41.6109 35.4864 41.2218 35.2529C40.8171 35.035 40.3969 34.9105 39.9455 34.9105C39.214 34.9105 38.5914 35.1595 38.0934 35.6576C37.5953 36.1556 37.3463 36.7626 37.3463 37.463C37.3463 38.179 37.5953 38.7704 38.0934 39.2685C38.5914 39.7665 39.214 40 39.9455 40Z" fill="#A7A7A7"/>
</svg>
