<svg width="304" height="265" viewBox="0 0 304 265" fill="none" xmlns="http://www.w3.org/2000/svg">
<path d="M0.827148 262.115C121.807 264.183 188.339 264.36 303.672 262.115H0.827148Z" fill="#5B5863" stroke="#5B5863"/>
<path d="M149.844 154.583L158.993 187.919L192.481 142.995L184.618 260.791H136.838L122.92 261.458C122.92 261.458 124.983 242.897 125.827 232.416C126.359 224.062 127.783 215.788 130.073 207.734C137.186 184.572 149.844 154.583 149.844 154.583Z" fill="#FAFAFA"/>
<path d="M160.614 206.679C160.734 206.839 155.35 211.16 148.558 216.334C141.767 221.507 136.208 225.668 136.088 225.441C135.967 225.214 141.365 220.974 148.143 215.787C154.921 210.6 160.507 206.559 160.614 206.679Z" fill="#EAEDEE"/>
<path d="M243.676 138.341L217.69 125.886L207.51 113.832L193.084 128.753L154.868 260.444H220.409L228.821 237.856L243.676 150.595V138.341Z" fill="#FD3E72"/>
<path d="M126.738 262.349L124.983 234.347L204.175 221.013C204.175 221.013 217.703 156.007 226.035 145.34C233.724 135.499 243.757 138.913 243.757 138.913C243.757 138.913 252.785 145.073 250.628 168.675C249.503 181.023 244.962 223.853 243.315 239.347C242.926 243.055 241.694 246.626 239.711 249.788C237.485 253.355 234.382 256.297 230.695 258.336C227.008 260.375 222.859 261.444 218.641 261.443L126.738 262.349Z" fill="#F73A6D"/>
<path d="M217.101 237.349C216.993 237.349 216.873 236.109 216.297 234.202C215.565 231.709 214.318 229.395 212.637 227.409C210.955 225.423 208.876 223.808 206.532 222.667C204.737 221.787 203.518 221.467 203.545 221.334C204.66 221.402 205.75 221.697 206.746 222.201C209.232 223.257 211.434 224.878 213.176 226.934C214.919 228.991 216.153 231.425 216.779 234.042C217.111 235.111 217.221 236.236 217.101 237.349V237.349Z" fill="#EB2F63"/>
<g opacity="0.2">
<path opacity="0.2" d="M215.654 127.793C214.903 136.024 213.323 144.158 210.939 152.075L204.978 150.328C206.109 152.138 206.851 154.16 207.158 156.27C207.465 158.379 207.329 160.528 206.76 162.582C205.601 166.679 203.869 170.593 201.616 174.21L172.053 227.068L201.857 159.729L201.08 147.288L206.813 146.061L215.654 127.793Z" fill="black"/>
</g>
<g opacity="0.2">
<path opacity="0.2" d="M203.907 220.268C207.545 220.057 211.145 221.102 214.098 223.228C217.051 225.354 219.176 228.43 220.114 231.936C220.382 232.759 220.382 233.646 220.114 234.469C219.974 234.876 219.68 235.212 219.296 235.409C218.911 235.605 218.466 235.646 218.052 235.523C217.488 235.177 217.073 234.635 216.886 234.002C215.573 231.06 213.676 228.412 211.31 226.217C208.944 224.022 206.157 222.325 203.116 221.228" fill="black"/>
</g>
<path d="M172.281 226.428C172.375 226.055 172.51 225.692 172.683 225.348C172.991 224.601 173.419 223.574 174.022 222.308L178.844 211.16C182.997 201.719 188.69 188.785 194.985 174.504L201.616 159.596V159.756C201.348 155.329 201.093 151.155 200.866 147.302V147.048H201.12L206.867 145.848L206.666 145.995L213.819 131.607C214.662 129.953 215.319 128.633 215.814 127.607L216.35 126.593C216.484 126.366 216.551 126.246 216.565 126.26C216.532 126.388 216.487 126.513 216.431 126.633L215.962 127.687L214.086 131.687C212.412 135.194 210.068 140.141 207.161 146.168V146.288H207.027L201.294 147.528L201.535 147.222C201.79 151.075 202.058 155.222 202.352 159.663V159.743V159.823C200.276 164.53 198.053 169.543 195.762 174.744C189.4 188.998 183.626 201.906 179.434 211.32C177.331 215.947 175.616 219.707 174.411 222.374L173.071 225.361C172.836 225.737 172.572 226.094 172.281 226.428V226.428Z" fill="#D22A58"/>
<path d="M126.685 261.43C126.641 261.278 126.618 261.121 126.618 260.963C126.618 260.634 126.577 260.19 126.497 259.63C126.403 258.376 126.283 256.616 126.109 254.376C125.814 249.762 125.372 243.175 124.769 235.041V234.814H124.997L182.274 224.347L203.398 220.533L203.13 220.773L214.69 177.076C216.15 171.743 217.369 167.369 218.119 164.355L219.07 160.955C219.177 160.608 219.257 160.315 219.324 160.088C219.348 159.987 219.384 159.888 219.431 159.795C219.443 159.897 219.443 160 219.431 160.102L219.23 160.995C219.03 161.808 218.748 162.955 218.4 164.422C217.623 167.436 216.525 171.769 215.158 177.183C212.332 188.091 208.461 203.358 203.84 220.947V221.147H203.625L182.515 224.987L125.198 235.268L125.399 235.014C125.841 243.148 126.202 249.749 126.457 254.363C126.564 256.603 126.658 258.363 126.711 259.616C126.711 260.19 126.711 260.643 126.711 260.95C126.718 261.11 126.709 261.271 126.685 261.43V261.43Z" fill="#EB2F63"/>
<path d="M239.684 136.153C239.684 136.273 238.345 136.473 236.336 137.22C233.712 138.221 231.306 139.715 229.25 141.62C227.202 143.537 225.55 145.834 224.387 148.381C223.503 150.341 223.209 151.661 223.048 151.635C223.023 151.315 223.06 150.994 223.155 150.688C223.314 149.829 223.561 148.989 223.892 148.181C224.973 145.487 226.641 143.065 228.777 141.091C230.913 139.117 233.463 137.64 236.242 136.767C237.073 136.488 237.93 136.296 238.8 136.193C239.35 136.127 239.684 136.1 239.684 136.153Z" fill="#EB2F63"/>
<path d="M89.9824 106.524C92.3265 102.217 91.3219 84.8292 94.9117 85.4426C99.5196 86.2293 95.26 104.497 94.9117 106.164C94.5634 107.831 97.0415 108.244 97.229 106.724C97.4835 104.551 100.176 83.2824 104.717 84.4825C107.235 85.1492 106.056 89.7229 106.056 89.7229C106.056 89.7229 102.292 110.338 104.382 110.831C106.472 111.325 108.213 99.4304 109.177 95.11C110.142 90.7897 112.807 89.1762 113.839 91.3631C115.352 94.5767 112.499 104.951 111.588 109.111C110.678 113.272 108.575 125.339 114.442 120.632C120.309 115.925 126.577 114.445 128.52 115.192C130.462 115.938 130.047 118.925 127.783 119.512C125.4 120.4 123.147 121.602 121.085 123.086C119.455 124.307 117.964 125.702 116.638 127.246C114.889 129.174 113.472 131.378 112.446 133.767C111.611 135.654 110.383 137.344 108.843 138.723C107.303 140.103 105.485 141.14 103.511 141.767V141.767L100.082 158.009L77.8733 153.275L82.8294 136.007C84.6244 124.726 83.6331 109.551 83.6465 102.671C83.6465 91.6697 85.12 91.5764 86.3925 91.8698C89.2054 92.5098 87.6918 110.671 89.9824 106.524Z" fill="#FFA68A"/>
<path d="M59 78.75C77.6396 78.75 92.75 63.6396 92.75 45C92.75 26.3604 77.6396 11.25 59 11.25C40.3604 11.25 25.25 26.3604 25.25 45C25.25 63.6396 40.3604 78.75 59 78.75Z" stroke="#08AE7E" stroke-width="5" stroke-linecap="round" stroke-linejoin="round"/>
<path d="M47.75 45L55.25 52.5L70.25 37.5" stroke="#08AE7E" stroke-width="5" stroke-linecap="round" stroke-linejoin="round"/>
<path d="M89.366 121.34C90.3795 121.713 91.3644 122.158 92.3129 122.673C94.5665 124.062 96.3204 126.125 97.3226 128.567C97.624 129.321 97.8484 130.103 97.9923 130.901L98.0727 131.274L98.3808 131.087C100.163 130.046 102.111 129.315 104.141 128.927C105.654 128.621 106.592 128.594 106.592 128.514C105.759 128.37 104.907 128.37 104.074 128.514C101.968 128.837 99.9465 129.571 98.1263 130.674L98.5147 130.861C98.3698 130.025 98.1363 129.207 97.8182 128.421C97.249 127.014 96.4223 125.726 95.3803 124.62C94.5425 123.733 93.5708 122.982 92.5004 122.393C91.7874 121.98 91.0274 121.654 90.2366 121.42C89.9538 121.34 89.6587 121.313 89.366 121.34V121.34Z" fill="#F3997D"/>
<path d="M86.4058 136.754C87.9535 137.906 89.7086 138.752 91.5762 139.247C93.3992 139.903 95.3322 140.202 97.2691 140.127C97.2691 139.967 94.7374 139.674 91.737 138.794C88.7365 137.914 86.4861 136.62 86.4058 136.754Z" fill="#F3997D"/>
<path d="M166.816 120.752L149.844 154.581L158.993 187.891L183.359 162.262L207.376 117.858L166.816 120.752Z" fill="#FFA68A"/>
<path d="M150.836 123.925C150.836 123.925 126.725 132.459 126.725 134.046C122.465 137.38 108.28 171.516 103.766 177.97L90.8663 196.891L101.689 154.848L77.8732 147.874C77.8732 147.874 57.553 196.798 55.0749 207.665C53.5674 214.096 53.6825 220.798 55.4098 227.174L55.5438 227.067C57.0588 231.958 60.2001 236.19 64.4514 239.068C74.5512 245.509 83.9679 246.722 93.6123 239.628C99.0909 235.628 105.32 230.761 111.026 226.294L112.526 261.59H125.68C125.68 259.603 125.278 235.414 125.278 235.414C126.999 229.694 128.341 223.868 129.297 217.973C130.489 209.639 150.086 154.994 150.086 154.994L165.316 125.725L165.664 114.951L150.836 123.925Z" fill="#FD3E72"/>
<path d="M112.338 261.177C112.265 260.812 112.225 260.442 112.218 260.07C112.218 259.296 112.111 258.243 112.03 256.91C111.883 254.096 111.669 250.109 111.414 245.202C110.972 235.228 110.343 221.467 109.646 206.065V205.972C109.927 204.519 110.222 202.958 110.53 201.385L118.701 159.862L121.259 147.287C121.568 145.86 121.809 144.714 121.996 143.874L122.197 142.994C122.214 142.892 122.246 142.793 122.291 142.7C122.306 142.802 122.306 142.905 122.291 143.007L122.157 143.914L121.554 147.341C120.992 150.381 120.215 154.675 119.21 159.955L111.24 201.532C110.932 203.105 110.637 204.665 110.343 206.119V206.025C110.959 221.44 111.494 235.201 111.896 245.175C112.057 250.096 112.191 254.083 112.285 256.896C112.285 258.23 112.285 259.283 112.285 260.07C112.326 260.437 112.344 260.807 112.338 261.177V261.177Z" fill="#E93667"/>
<path d="M125.814 229.842C125.826 229.47 125.866 229.1 125.935 228.735L126.417 225.575L128.305 214.014C129.993 204.2 132.324 190.745 134.815 175.891C136.53 166.17 138.124 157.036 139.477 149.222C142.812 141.675 145.612 135.354 147.608 130.86L149.925 125.74C150.193 125.193 150.394 124.74 150.568 124.407C150.633 124.248 150.714 124.096 150.809 123.953C150.776 124.123 150.722 124.289 150.648 124.447C150.514 124.807 150.327 125.26 150.099 125.78C149.577 127.113 148.84 128.794 147.929 130.98C146 135.501 143.281 141.848 140.026 149.435C138.687 157.196 137.119 166.33 135.458 176.104C132.779 190.945 130.475 204.386 128.761 214.187L126.644 225.721C126.39 227.055 126.189 228.068 126.042 228.855C125.994 229.19 125.918 229.52 125.814 229.842V229.842Z" fill="#E93667"/>
<path d="M246.958 42.0262C246.958 42.0262 246.838 42.3729 246.463 42.9329C245.927 43.714 245.321 44.4459 244.654 45.1197C242.459 47.3842 239.756 49.0979 236.766 50.1202C233.776 51.1424 230.585 51.444 227.455 51.0002C226.519 50.8716 225.596 50.6619 224.696 50.3735C224.352 50.296 224.025 50.1559 223.731 49.9601C223.731 49.8535 225.178 50.2935 227.522 50.5069C230.572 50.7877 233.646 50.4335 236.55 49.4668C239.427 48.4548 242.059 46.8561 244.279 44.7731C246.061 43.1729 246.958 41.9462 246.958 42.0262Z" fill="#455A64"/>
<path d="M249.972 49.8662C249.972 49.8662 249.731 50.1462 249.208 50.5863C248.686 51.0263 247.869 51.5864 246.878 52.2531C244.211 53.9836 241.252 55.2213 238.144 55.9067C236.422 56.2545 234.663 56.3933 232.907 56.3201C231.475 56.2425 230.055 56.01 228.674 55.6267C227.754 55.3689 226.858 55.0343 225.995 54.6266C225.379 54.3199 225.057 54.1466 225.084 54.0932C225.111 54.0399 226.491 54.5999 228.808 55.1466C230.167 55.455 231.553 55.6336 232.947 55.68C234.646 55.7124 236.344 55.5604 238.01 55.2266C241.044 54.546 243.953 53.4036 246.637 51.8397C247.711 51.1215 248.825 50.4627 249.972 49.8662V49.8662Z" fill="#455A64"/>
<path d="M79.6146 225.922C79.5208 225.855 80.5522 224.375 81.9989 221.921C83.8639 218.65 85.4802 215.245 86.8345 211.734C88.1751 208.218 89.2847 204.619 90.1564 200.96C90.8262 198.146 91.1342 196.372 91.2414 196.386C91.2698 196.809 91.2473 197.234 91.1744 197.653C91.0941 198.466 90.9065 199.626 90.6386 201.053C89.8998 204.781 88.8422 208.439 87.4774 211.987C86.1299 215.54 84.4339 218.953 82.4141 222.175C81.8066 223.15 81.1494 224.093 80.445 225.002C80.2068 225.341 79.9279 225.65 79.6146 225.922V225.922Z" fill="#EB2F63"/>
<g opacity="0.2">
<path opacity="0.2" d="M81.4228 224.014C81.2067 224.063 81.0043 224.16 80.8305 224.297C80.6567 224.434 80.5158 224.607 80.4182 224.806C80.3206 225.004 80.2688 225.221 80.2664 225.442C80.2641 225.662 80.3114 225.881 80.4048 226.081C80.6324 226.472 80.9761 226.783 81.3887 226.972C81.8013 227.161 82.2624 227.217 82.7088 227.134C83.6069 226.934 84.4238 226.47 85.0529 225.801C87.0218 223.826 88.4352 221.37 89.1517 218.68C91.1878 212.266 91.2815 205.413 91.3619 198.679C89.4643 207.464 86.1292 215.879 81.4898 223.587" fill="black"/>
</g>
<g opacity="0.2">
<path opacity="0.2" d="M110.718 227.109C106.815 220.607 105.111 213.031 105.855 205.494C106.579 195.24 111.588 185.852 115.326 176.265C113.169 186.345 111.95 196.346 109.968 206.054C109.968 206.054 111.012 220.455 111.039 226.855" fill="black"/>
</g>
<g opacity="0.2">
<path opacity="0.2" d="M127.354 220.666C128.399 205.318 129.444 189.917 132.177 174.769C134.928 159.263 140.175 144.301 147.715 130.459C145.773 136.539 139.798 149.341 139.798 149.341C139.798 149.341 131.145 194.678 127.395 217.546" fill="black"/>
</g>
<path d="M125.399 238.322L127.569 262.138H116.263L106.311 261.938C102.504 262.352 98.6687 262.455 94.8447 262.244C94.6597 262.242 94.4773 262.201 94.3089 262.124C93.7171 262.039 93.1342 261.901 92.5676 261.711V261.711C91.5495 261.338 90.4913 260.684 90.6521 259.564C91.1477 256.151 93.1837 255.884 93.1837 255.884L94.2151 255.804L94.2955 255.511C92.7417 255.511 91.4424 255.511 90.7458 255.404C90.4244 255.404 90.2368 255.324 90.2234 255.284C90.21 255.244 86.2049 254.804 86.513 252.697C87.0086 249.283 89.0581 249.017 89.0581 249.017L92.3532 248.79C90.7458 248.79 89.3929 248.79 88.683 248.683C88.498 248.681 88.3156 248.64 88.1472 248.563C88.1472 248.563 84.1287 248.083 84.4502 245.976C84.9458 242.563 86.9818 242.296 86.9818 242.296L89.6608 242.109C88.3213 242.109 87.2899 242.109 86.6872 242.003C86.5021 242 86.3197 241.959 86.1514 241.883C86.1514 241.883 82.1329 241.403 82.4543 239.296C82.95 235.882 84.9994 235.602 84.9994 235.602C84.9994 235.602 91.295 235.162 95.6216 234.976C95.6216 234.976 100.524 230.575 102.466 230.775C105.346 231.082 122.157 237.256 122.157 237.256L125.399 238.322Z" fill="#FFA68A"/>
<path d="M104.208 255.15C102.372 255.563 100.49 255.743 98.6088 255.683C96.7607 255.869 94.896 255.811 93.0632 255.51C94.8997 255.099 96.7809 254.919 98.6623 254.976C100.51 254.79 102.375 254.849 104.208 255.15Z" fill="#F09578"/>
<path d="M104.248 248.402C101.62 248.85 98.9574 249.064 96.2914 249.042C93.6156 249.261 90.9252 249.234 88.2544 248.962C90.8867 248.514 93.5539 248.299 96.2244 248.322C98.8957 248.103 101.582 248.13 104.248 248.402Z" fill="#F09578"/>
<g opacity="0.78">
<path opacity="0.78" d="M103.632 241.535C101.005 241.993 98.3416 242.207 95.6752 242.175C92.9994 242.387 90.31 242.365 87.6382 242.108C90.2649 241.65 92.9281 241.431 95.5948 241.455C98.2708 241.243 100.961 241.269 103.632 241.535V241.535Z" fill="#F09578"/>
</g>
<path d="M93.7866 235.094C94.626 235.246 95.4787 235.313 96.3317 235.294L102.453 235.481L108.561 235.707C109.407 235.802 110.261 235.802 111.106 235.707C110.286 235.478 109.44 235.348 108.588 235.321C107.034 235.161 104.864 235.014 102.467 234.934C100.069 234.854 97.8989 234.854 96.3317 234.934C95.4799 234.883 94.6252 234.937 93.7866 235.094V235.094Z" fill="#F09578"/>
<path d="M218.467 41.107C221.306 34.2398 230.294 31.1062 237.3 33.6664C244.306 36.2266 248.994 43.3872 249.838 50.7611C250.411 54.4061 249.65 58.1347 247.694 61.2686C246.519 62.8009 245.042 64.0784 243.354 65.023C241.666 65.9677 239.802 66.5595 237.876 66.7624C234.444 67.2015 230.955 66.7439 227.754 65.4347C224.553 64.1254 221.75 62.0096 219.619 59.2951C217.554 56.5296 216.247 53.277 215.827 49.8568C215.407 46.4366 215.887 42.9664 217.221 39.7869" fill="#5B5863"/>
<path d="M146.04 61.6277C129.457 25.3314 168.892 7.08989 190.418 13.1437C210.644 18.8242 219.271 28.8517 222.566 42.3194C225.861 55.7872 225.74 70.3217 220.436 83.2028C217.757 89.5366 213.109 95.9638 206.291 96.7506" fill="#5B5863"/>
<path d="M165.838 151.355C165.557 134.02 165.356 110.192 165.342 110.285C165.329 110.378 150.367 107.805 147.259 88.3632C145.719 78.6824 146.214 62.8144 147.031 49.8534C147.835 38.1857 155.537 23.8646 167.218 25.0913L203.692 34.2787C205.404 34.4557 206.986 35.267 208.125 36.5514C209.264 37.8359 209.877 39.4997 209.84 41.2127L207.469 116.312" fill="#FFA68A"/>
<path d="M165.316 110.364C174.518 110.501 183.577 108.096 191.489 103.417C191.489 103.417 184.872 116.951 165.316 115.125V110.364Z" fill="#FA9E81"/>
<path d="M206.116 65.76C206.398 65.6133 216.578 61.133 216.698 72.7873C216.819 84.4415 205.045 82.1214 205.018 81.8147C204.991 81.508 206.116 65.76 206.116 65.76Z" fill="#FFA68A"/>
<path d="M208.541 77.3354C208.541 77.3354 208.756 77.4821 209.104 77.6288C209.589 77.828 210.133 77.828 210.618 77.6288C211.85 77.162 212.868 75.1885 212.908 73.095C212.927 72.0978 212.721 71.109 212.305 70.2015C212.189 69.8517 211.991 69.5342 211.728 69.2748C211.465 69.0153 211.144 68.8211 210.792 68.708C210.555 68.6484 210.305 68.6731 210.085 68.7778C209.865 68.8825 209.688 69.0607 209.586 69.2814C209.439 69.6014 209.586 69.8281 209.452 69.8548C209.318 69.8814 209.198 69.6681 209.292 69.1747C209.354 68.8886 209.509 68.6309 209.734 68.4413C210.056 68.2 210.458 68.0903 210.859 68.1346C211.341 68.2259 211.792 68.4378 212.169 68.7504C212.546 69.063 212.838 69.466 213.015 69.9215C213.522 70.9258 213.775 72.038 213.752 73.1617C213.752 75.5086 212.52 77.7221 210.832 78.2155C210.518 78.3102 210.187 78.3343 209.863 78.2858C209.538 78.2374 209.229 78.1177 208.957 77.9354C208.568 77.6421 208.501 77.3354 208.541 77.3354Z" fill="#CC8F75"/>
<path d="M219.231 57.7866C218.038 57.6932 208.367 58.9467 209.131 76.8281C209.841 93.5228 221.615 89.8425 225.365 83.562C228.929 77.6015 230.978 58.6667 219.231 57.7866Z" fill="#FD3E72"/>
<path d="M225.205 59.8939C225.188 59.7388 225.188 59.5823 225.205 59.4272C225.205 59.0805 225.205 58.6272 225.205 58.0938C225.205 56.8537 225.111 55.1335 225.058 53C224.964 48.5997 224.843 42.5058 224.709 35.4653L224.924 35.6786H219.941L220.168 35.4519C220.168 36.7854 220.168 38.1855 220.276 39.6123C220.436 46.2795 220.597 52.5733 220.731 57.8004V57.9604H220.584C218.542 58.4341 216.729 59.5981 215.453 61.254C214.488 62.5389 213.791 64.0034 213.404 65.5611C213.137 66.5616 212.958 67.5833 212.868 68.6146C212.868 68.9747 212.868 69.2547 212.868 69.4414C212.878 69.5345 212.878 69.6283 212.868 69.7214C212.849 69.629 212.849 69.5338 212.868 69.4414C212.868 69.2547 212.868 68.9747 212.868 68.6146C212.904 67.5672 213.048 66.5261 213.297 65.5077C213.659 63.9054 214.347 62.3941 215.319 61.0674C216.618 59.3333 218.485 58.1067 220.597 57.6004L220.463 57.7871C220.302 52.56 220.128 46.3062 219.927 39.5989C219.927 38.1722 219.927 36.772 219.82 35.4386V35.2119H225.178V35.4253C225.258 42.4792 225.325 48.573 225.366 52.9734C225.366 55.1069 225.366 56.827 225.366 58.0671V59.4006C225.336 59.5719 225.282 59.7381 225.205 59.8939V59.8939Z" fill="#FD3E72"/>
<path d="M219.23 35.426C215.615 27.8657 209.612 21.6927 202.138 17.8512C197.537 15.5642 192.7 13.7803 187.712 12.5307C187.712 12.5307 194.717 10.8639 206.103 15.9044C211.274 18.1845 216.471 21.2381 219.913 25.6252C222.097 28.4654 224.829 34.0125 224.829 35.426H219.23Z" fill="#FD3E72"/>
<path d="M217.945 88.5503C217.945 88.5503 217.824 88.5503 217.61 88.4569C217.295 88.3326 216.994 88.1762 216.712 87.9902C215.665 87.3171 214.797 86.4022 214.181 85.3233C213.291 83.7077 212.761 81.9205 212.627 80.0829C212.434 77.8647 212.434 75.6339 212.627 73.4157C212.817 71.1936 213.189 68.9906 213.739 66.8285C214.136 65.0441 214.786 63.3247 215.668 61.7214C216.296 60.6429 217.173 59.7288 218.226 59.0545C218.511 58.877 218.811 58.7253 219.123 58.6012C219.228 58.5495 219.342 58.5179 219.458 58.5078C219.458 58.5078 219.016 58.7078 218.32 59.2012C217.344 59.9081 216.535 60.8182 215.949 61.8681C215.117 63.4625 214.509 65.1629 214.14 66.9218C213.622 69.0655 213.269 71.2453 213.082 73.4424C212.902 75.6389 212.902 77.8464 213.082 80.0429C213.192 81.8339 213.675 83.5824 214.502 85.1767C215.078 86.2258 215.878 87.1362 216.846 87.8435C217.489 88.3502 217.971 88.5103 217.945 88.5503Z" fill="#E63868"/>
<path d="M179.205 85.8432L169.951 87.6505C168.717 87.8915 167.913 89.0828 168.155 90.3114L168.292 91.0049C168.534 92.2334 169.731 93.0339 170.965 92.7929L180.218 90.9856C181.453 90.7446 182.257 89.5533 182.015 88.3247L181.878 87.6312C181.636 86.4027 180.439 85.6022 179.205 85.8432Z" fill="#FD3E72"/>
<path d="M180.72 87.2164L221.789 74.3887C222.277 74.2377 222.806 74.2847 223.26 74.5194C223.714 74.754 224.056 75.1575 224.213 75.6421V75.6421C224.293 75.8898 224.321 76.151 224.296 76.4098C224.271 76.6686 224.194 76.9198 224.069 77.1479C223.943 77.3761 223.773 77.5766 223.568 77.7372C223.362 77.8978 223.126 78.0152 222.874 78.0823L180.88 89.3366L180.72 87.2164Z" fill="#FD3E72"/>
<path d="M211.073 81.5765C211.505 81.3796 211.954 81.2191 212.413 81.0964L216.15 80.003C217.717 79.5096 219.659 79.0029 221.695 78.3362C222.197 78.1616 222.655 77.8794 223.035 77.5095C223.22 77.3232 223.366 77.1025 223.465 76.8599C223.563 76.6174 223.613 76.3578 223.611 76.096C223.613 75.8367 223.532 75.5835 223.381 75.3727C223.229 75.1619 223.014 75.0043 222.767 74.9226C222.207 74.7632 221.613 74.7632 221.052 74.9226L208.729 78.8562L204.992 80.0163C204.556 80.1733 204.108 80.2937 203.652 80.3764C204.086 80.169 204.534 79.9908 204.992 79.843L208.702 78.5095C211.85 77.4428 216.163 75.976 220.999 74.4292C221.647 74.2489 222.333 74.2489 222.981 74.4292C223.312 74.5446 223.599 74.759 223.803 75.0431C224.007 75.3271 224.118 75.6669 224.12 76.016C224.12 76.664 223.865 77.2862 223.41 77.7495C222.98 78.1537 222.468 78.4627 221.91 78.6562C219.78 79.3229 217.891 79.7896 216.284 80.243L212.493 81.2431C212.03 81.3923 211.555 81.5038 211.073 81.5765V81.5765Z" fill="#E73062"/>
<path d="M194.571 24.1714C192.299 27.2332 190.493 30.6121 189.213 34.1989C188.588 36.0009 188.368 37.9172 188.567 39.8131C188.766 41.709 189.379 43.5386 190.365 45.1731C192.414 48.1867 195.95 49.7602 199.165 51.507C202.38 53.2538 205.662 55.654 206.452 59.2009C206.706 60.321 206.224 64.2013 207.068 64.9747C208.22 66.0415 210.243 65.3881 211.087 64.0813C211.931 62.7746 212.533 58.5209 212.547 56.9608L212.748 42.4129C212.748 38.3059 212.748 34.0522 210.966 30.4119C208.475 25.2382 203.291 23.5847 195.736 23.9447" fill="#5B5863"/>
<path d="M146.589 53.3339C147.161 48.3906 149.079 43.6968 152.135 39.7594C155.223 35.8117 159.679 33.1536 164.632 32.3055C169.562 31.5588 174.545 32.9189 179.514 33.2122C184.484 33.5056 190.163 32.2788 192.762 28.0385C193.566 26.705 193.954 24.8782 192.909 23.7181C192.493 23.3027 191.996 22.9761 191.449 22.758C184.84 19.5639 177.435 18.3722 170.151 19.3311C162.845 20.3465 156.186 24.0531 151.492 29.7186C149.203 32.5618 147.589 35.883 146.77 39.4341C145.952 42.9853 145.949 46.6748 146.764 50.227" fill="#5B5863"/>
<path d="M172.067 175.17L172.308 174.97C172.482 174.836 172.736 174.65 173.058 174.383C173.998 173.613 174.892 172.789 175.737 171.916C177.113 170.52 178.397 169.037 179.581 167.476C181.001 165.649 182.501 163.476 184.149 161.049C187.444 156.182 191.302 150.274 195.401 143.447C197.446 140.034 199.54 136.407 201.683 132.566L203.29 129.646C203.816 128.626 204.43 127.653 205.125 126.739C205.866 125.81 206.848 125.1 207.965 124.686C208.542 124.469 209.165 124.405 209.774 124.499C210.103 124.568 210.405 124.73 210.644 124.966C210.865 125.213 211.022 125.511 211.1 125.832C210.962 126.233 210.748 126.605 210.47 126.926C210.163 127.254 209.741 127.455 209.291 127.486C208.446 127.486 207.626 127.205 206.961 126.686C206.24 126.2 205.703 125.49 205.433 124.666C205.164 123.843 205.178 122.953 205.474 122.139C205.778 121.305 206.385 120.615 207.175 120.205C207.959 119.806 208.857 119.684 209.72 119.859C210.171 119.926 210.597 120.108 210.958 120.385C211.319 120.663 211.603 121.028 211.783 121.445C211.873 121.686 211.893 121.947 211.838 122.197C211.783 122.448 211.657 122.678 211.475 122.859C211.15 123.189 210.736 123.416 210.283 123.512C209.52 123.686 208.721 123.605 208.01 123.282C207.298 122.959 206.713 122.412 206.344 121.725C205.99 121.019 205.909 120.207 206.117 119.445C206.304 118.694 206.72 118.018 207.309 117.512C207.879 116.991 208.624 116.701 209.398 116.698C209.786 116.703 210.167 116.8 210.509 116.981C210.852 117.162 211.146 117.422 211.368 117.738C211.598 118.084 211.689 118.503 211.622 118.912C211.585 119.114 211.508 119.306 211.396 119.478C211.283 119.65 211.137 119.797 210.966 119.912C210.651 120.129 210.288 120.267 209.908 120.316C209.528 120.365 209.142 120.322 208.782 120.192C208.456 120.046 208.162 119.836 207.918 119.575C207.674 119.314 207.485 119.007 207.362 118.672C207.121 117.996 207.007 117.282 207.028 116.565C207.003 115.16 207.369 113.775 208.086 112.565C208.481 111.967 209.073 111.524 209.76 111.311C210.104 111.236 210.46 111.229 210.808 111.291C211.155 111.352 211.486 111.482 211.783 111.671C212.104 111.847 212.369 112.109 212.549 112.427C212.729 112.745 212.816 113.107 212.801 113.471C212.762 113.836 212.613 114.18 212.374 114.458C212.135 114.737 211.817 114.937 211.461 115.032C211.122 115.14 210.762 115.164 210.411 115.101C210.061 115.039 209.732 114.891 209.452 114.672C208.92 114.239 208.567 113.627 208.461 112.951C208.345 112.304 208.4 111.638 208.622 111.018C208.785 110.415 209.009 109.829 209.291 109.271C209.575 108.716 210.012 108.254 210.55 107.938C211.081 107.619 211.675 107.418 212.292 107.351C212.611 107.31 212.935 107.356 213.229 107.484C213.513 107.634 213.756 107.849 213.939 108.111C214.122 108.363 214.254 108.649 214.328 108.951C214.417 109.277 214.379 109.625 214.221 109.924C214.042 110.186 213.787 110.388 213.49 110.502C213.194 110.617 212.869 110.638 212.56 110.565C211.98 110.468 211.446 110.193 211.033 109.778C210.221 108.982 209.742 107.91 209.693 106.778C209.604 105.692 209.893 104.609 210.51 103.711C210.804 103.274 211.193 102.909 211.649 102.644C212.098 102.4 212.598 102.263 213.109 102.244C213.617 102.222 214.117 102.373 214.529 102.671C214.73 102.828 214.89 103.031 214.995 103.263C215.1 103.496 215.147 103.75 215.132 104.004C215.061 104.48 214.836 104.919 214.489 105.254C214.143 105.589 213.696 105.801 213.216 105.857C212.77 105.884 212.326 105.782 211.937 105.565C211.547 105.347 211.229 105.023 211.019 104.631C210.586 103.918 210.393 103.086 210.47 102.257C210.752 100.86 211.239 99.512 211.917 98.2568C212.453 97.0567 212.948 95.95 213.377 94.9499C214.261 92.9897 214.944 91.4563 215.413 90.3895C215.654 89.8828 215.828 89.4828 215.962 89.2028C216.022 89.066 216.089 88.9325 216.163 88.8027L216.002 89.2294L215.507 90.4295L213.538 95.0299L212.118 98.3502C211.473 99.6098 211.022 100.958 210.778 102.351C210.716 103.122 210.904 103.893 211.314 104.551C211.5 104.895 211.779 105.18 212.12 105.373C212.462 105.567 212.851 105.661 213.243 105.644C213.655 105.59 214.039 105.405 214.338 105.117C214.637 104.829 214.836 104.453 214.904 104.044C214.911 103.838 214.869 103.633 214.783 103.446C214.697 103.259 214.569 103.094 214.408 102.964C214.051 102.708 213.615 102.585 213.176 102.617C212.706 102.623 212.245 102.747 211.836 102.977C211.425 103.222 211.073 103.555 210.805 103.951C210.245 104.788 209.986 105.789 210.068 106.791C210.115 107.827 210.544 108.81 211.274 109.551C211.641 109.908 212.108 110.145 212.613 110.231C212.846 110.299 213.095 110.291 213.323 110.21C213.552 110.128 213.749 109.977 213.886 109.778C213.98 109.544 214.007 109.289 213.962 109.041C213.917 108.793 213.802 108.563 213.631 108.378C213.483 108.165 213.286 107.991 213.055 107.871C212.822 107.776 212.567 107.748 212.319 107.791C211.757 107.833 211.215 108.018 210.746 108.328C210.277 108.639 209.896 109.065 209.64 109.564C209.367 110.099 209.155 110.663 209.01 111.245C208.811 111.8 208.756 112.396 208.849 112.978C208.941 113.553 209.242 114.075 209.693 114.445C209.923 114.608 210.189 114.715 210.468 114.756C210.747 114.798 211.033 114.774 211.301 114.685C211.574 114.622 211.821 114.474 212.007 114.264C212.192 114.053 212.305 113.79 212.332 113.511C212.324 113.238 212.245 112.971 212.101 112.737C211.958 112.503 211.756 112.31 211.515 112.178C211.011 111.856 210.399 111.745 209.814 111.871C209.225 112.056 208.719 112.438 208.38 112.951C207.712 114.095 207.378 115.402 207.416 116.725C207.396 117.383 207.501 118.039 207.724 118.659C207.821 118.952 207.978 119.222 208.186 119.451C208.394 119.681 208.647 119.865 208.93 119.992C209.22 120.097 209.532 120.133 209.839 120.096C210.147 120.059 210.441 119.95 210.698 119.779C210.942 119.609 211.11 119.35 211.165 119.058C211.22 118.767 211.158 118.465 210.992 118.218C210.819 117.965 210.591 117.755 210.324 117.602C210.057 117.45 209.759 117.36 209.452 117.338C208.791 117.347 208.156 117.599 207.671 118.045C207.123 118.461 206.737 119.053 206.579 119.72C206.421 120.387 206.5 121.089 206.804 121.704C207.108 122.32 207.616 122.811 208.243 123.095C208.871 123.378 209.577 123.436 210.242 123.259C210.612 123.176 210.951 122.992 211.22 122.726C211.342 122.607 211.426 122.455 211.461 122.289C211.497 122.123 211.483 121.95 211.421 121.792C211.269 121.443 211.03 121.138 210.728 120.905C210.426 120.672 210.07 120.519 209.693 120.459C208.936 120.292 208.145 120.401 207.461 120.765C206.778 121.13 206.249 121.726 205.969 122.445C205.806 122.98 205.767 123.545 205.855 124.098C205.944 124.65 206.158 125.174 206.481 125.632C206.803 126.09 207.227 126.468 207.718 126.738C208.21 127.009 208.757 127.164 209.318 127.193C210.041 127.193 210.51 126.526 210.751 125.859V125.992C210.701 125.746 210.58 125.518 210.405 125.336C210.23 125.155 210.006 125.026 209.76 124.966C209.23 124.89 208.69 124.954 208.193 125.152C207.139 125.527 206.211 126.187 205.514 127.059C204.827 127.948 204.226 128.899 203.719 129.899L202.098 132.806C199.955 136.647 197.839 140.287 195.776 143.687C191.65 150.501 187.739 156.408 184.43 161.249C182.769 163.676 181.242 165.836 179.809 167.649C178.599 169.187 177.288 170.644 175.884 172.01C174.731 173.198 173.451 174.257 172.067 175.17V175.17Z" fill="#263238"/>
</svg>
