<svg width="330" height="229" viewBox="0 0 330 229" fill="none" xmlns="http://www.w3.org/2000/svg">
<g clip-path="url(#clip0)">
<path d="M240.688 39.6045H104.735C104.122 39.6045 103.625 40.1012 103.625 40.7139V117.817C103.625 118.43 104.122 118.927 104.735 118.927H240.688C241.301 118.927 241.797 118.43 241.797 117.817V40.7139C241.797 40.1012 241.301 39.6045 240.688 39.6045Z" fill="#5B5863"/>
<path d="M238.082 43.1045H107.345V113.341H238.082V43.1045Z" fill="white"/>
<path d="M234.35 47.4902H110.51V109.84H234.35V47.4902Z" fill="#FFD1DE"/>
<path d="M184.99 140.637C176.278 138.736 181.507 171.575 184.719 179.337C187.931 187.098 188.641 177.686 188.589 163.65C188.538 149.615 188.417 141.385 184.99 140.637Z" fill="#FBC4B2"/>
<path d="M183.726 176.559C183.726 176.559 180.286 182.97 179.899 183.929C179.512 184.888 181.365 187.025 182.715 187.64C184.065 188.255 187.325 185.49 187.609 185.163C187.892 184.836 188.288 176.782 188.288 176.782L183.726 176.559Z" fill="#FBC4B2"/>
<path d="M187.604 185.164C187.325 185.499 184.061 188.26 182.711 187.641C181.361 187.021 179.559 184.906 179.894 183.93C180.707 181.586 181.305 181.573 181.937 179.862C181.58 180.821 180.926 183.276 181.713 183.427C182.5 183.577 185.652 183.728 186.138 183.427C186.624 183.126 188.15 179.157 188.15 179.152C188.017 181.547 187.785 184.949 187.604 185.164Z" fill="#36366B"/>
<path d="M197.434 140.637C206.146 138.736 200.917 171.575 197.705 179.337C194.493 187.098 193.783 177.686 193.835 163.65C193.887 149.615 194.007 141.385 197.434 140.637Z" fill="#FBC4B2"/>
<path d="M198.699 176.559C198.699 176.559 202.138 182.97 202.525 183.929C202.912 184.888 201.059 187.025 199.709 187.64C198.359 188.255 195.099 185.49 194.816 185.163C194.532 184.836 194.136 176.782 194.136 176.782L198.699 176.559Z" fill="#FBC4B2"/>
<path d="M194.816 185.164C195.095 185.499 198.359 188.26 199.709 187.641C201.059 187.021 202.861 184.906 202.525 183.93C201.713 181.586 201.115 181.573 200.483 179.862C200.84 180.821 201.493 183.276 200.707 183.427C199.92 183.577 196.768 183.728 196.282 183.427C195.796 183.126 194.27 179.157 194.27 179.152C194.407 181.547 194.635 184.949 194.816 185.164Z" fill="#36366B"/>
<path d="M235.558 117.37C236.111 117.37 236.56 116.921 236.56 116.368C236.56 115.815 236.111 115.366 235.558 115.366C235.005 115.366 234.556 115.815 234.556 116.368C234.556 116.921 235.005 117.37 235.558 117.37Z" fill="#F4817F"/>
<path d="M322.642 230.692H22.3813C20.7101 230.687 19.1089 230.02 17.9271 228.838C16.7453 227.657 16.0789 226.056 16.0732 224.384C16.0789 222.713 16.7453 221.112 17.9271 219.93C19.1089 218.748 20.7101 218.082 22.3813 218.076H322.642C324.313 218.082 325.914 218.748 327.096 219.93C328.278 221.112 328.944 222.713 328.95 224.384C328.944 226.056 328.278 227.657 327.096 228.838C325.914 230.02 324.313 230.687 322.642 230.692Z" fill="#EF3D6D"/>
<path d="M196.733 200.944H31.2822V207.854H196.733V200.944Z" fill="#8E7D4E"/>
<path d="M201.326 148.885H26.686C25.3609 148.885 24.2866 149.959 24.2866 151.284V201.177C24.2866 202.502 25.3609 203.576 26.686 203.576H201.326C202.651 203.576 203.726 202.502 203.726 201.177V151.284C203.726 149.959 202.651 148.885 201.326 148.885Z" fill="#9E906A"/>
<path d="M199.369 197.504V154.956C199.369 154.008 198.601 153.24 197.653 153.24H30.3577C29.4101 153.24 28.642 154.008 28.642 154.956V197.504C28.642 198.452 29.4101 199.22 30.3577 199.22H197.653C198.601 199.22 199.369 198.452 199.369 197.504Z" fill="#B7AF98" stroke="#746437" stroke-miterlimit="10"/>
<path d="M36.2788 223.881H31.2822V203.576H39.9123L36.2788 223.881Z" fill="#8E7D4E"/>
<path d="M64.272 153.24V199.22" stroke="#746437" stroke-miterlimit="10"/>
<path d="M69.3888 143.961H92.0885V148.902H69.3888C69.001 148.902 68.6291 148.748 68.355 148.473C68.0808 148.199 67.9268 147.827 67.9268 147.44V145.423C67.9268 145.035 68.0808 144.663 68.355 144.389C68.6291 144.115 69.001 143.961 69.3888 143.961Z" fill="#FD3E72"/>
<path d="M97.0121 148.368V144.498H97.5496V143.961H73.4696C72.8138 143.961 72.1849 144.221 71.7212 144.685C71.2576 145.149 70.9971 145.778 70.9971 146.433C70.9971 147.089 71.2576 147.718 71.7212 148.182C72.1849 148.645 72.8138 148.906 73.4696 148.906H97.5496V148.368H97.0121Z" fill="#D82E5C"/>
<path d="M73.4824 148.369C72.9692 148.369 72.477 148.165 72.1141 147.802C71.7512 147.439 71.5474 146.947 71.5474 146.434C71.5474 145.921 71.7512 145.429 72.1141 145.066C72.477 144.703 72.9692 144.499 73.4824 144.499H97.012V148.369H73.4824Z" fill="#F9FCFD"/>
<path d="M97.0122 145.371H72.4463V145.616H97.0122V145.371Z" fill="#E0E7EA"/>
<path d="M97.0123 145.999H72.1196V146.244H97.0123V145.999Z" fill="#E0E7EA"/>
<path d="M97.0123 146.623H72.1196V146.868H97.0123V146.623Z" fill="#E0E7EA"/>
<path d="M97.0122 147.251H72.4463V147.496H97.0122V147.251Z" fill="#E0E7EA"/>
<path d="M88.6141 143.962H73.1341C72.4784 143.962 71.8495 143.701 71.3858 143.237C70.9221 142.774 70.6616 142.145 70.6616 141.489C70.6616 140.833 70.9221 140.204 71.3858 139.741C71.8495 139.277 72.4784 139.017 73.1341 139.017H88.6141V143.962Z" fill="#FD3E72"/>
<path d="M96.3716 143.424V139.554H96.9091V139.017H76.2347C75.579 139.017 74.9501 139.277 74.4864 139.741C74.0227 140.204 73.7622 140.833 73.7622 141.489C73.7622 142.145 74.0227 142.774 74.4864 143.237C74.9501 143.701 75.579 143.962 76.2347 143.962H96.9091V143.424H96.3716Z" fill="#D82E5C"/>
<path d="M76.2348 143.424C75.7216 143.424 75.2294 143.22 74.8666 142.857C74.5037 142.494 74.2998 142.002 74.2998 141.489C74.2998 140.976 74.5037 140.483 74.8666 140.12C75.2294 139.758 75.7216 139.554 76.2348 139.554H96.376V143.424H76.2348Z" fill="#F9FCFD"/>
<path d="M96.3757 140.427H75.1982V140.672H96.3757V140.427Z" fill="#E0E7EA"/>
<path d="M96.3759 141.055H74.8716V141.3H96.3759V141.055Z" fill="#E0E7EA"/>
<path d="M96.3759 141.683H74.8716V141.928H96.3759V141.683Z" fill="#E0E7EA"/>
<path d="M96.3757 142.306H75.1982V142.551H96.3757V142.306Z" fill="#E0E7EA"/>
<path d="M78.9692 139.02H94.4493C95.105 139.02 95.7339 138.76 96.1976 138.296C96.6613 137.832 96.9218 137.203 96.9218 136.548C96.9218 135.892 96.6613 135.263 96.1976 134.799C95.7339 134.336 95.105 134.075 94.4493 134.075H78.9692V139.02Z" fill="#FD3E72"/>
<path d="M71.2118 138.483V134.613H70.6743V134.075H91.3487C92.0045 134.075 92.6333 134.336 93.097 134.799C93.5607 135.263 93.8212 135.892 93.8212 136.548C93.8212 137.203 93.5607 137.832 93.097 138.296C92.6333 138.76 92.0045 139.02 91.3487 139.02H70.6743V138.483H71.2118Z" fill="#D82E5C"/>
<path d="M91.3488 138.483C91.862 138.483 92.3542 138.279 92.7171 137.917C93.08 137.554 93.2838 137.061 93.2838 136.548C93.2838 136.035 93.08 135.543 92.7171 135.18C92.3542 134.817 91.862 134.613 91.3488 134.613H71.2119V138.483H91.3488Z" fill="#F9FCFD"/>
<path d="M92.3855 135.486H71.208V135.731H92.3855V135.486Z" fill="#E0E7EA"/>
<path d="M92.7123 136.113H71.208V136.358H92.7123V136.113Z" fill="#E0E7EA"/>
<path d="M92.7123 136.737H71.208V136.982H92.7123V136.737Z" fill="#E0E7EA"/>
<path d="M92.3855 137.365H71.208V137.61H92.3855V137.365Z" fill="#E0E7EA"/>
<path d="M51.9311 139.941C51.9311 139.941 51.9311 139.571 51.9311 138.93C51.9311 138.599 51.9311 138.229 51.8838 137.817C51.8622 137.342 51.8163 136.868 51.7462 136.398C51.6903 135.869 51.5871 135.305 51.4667 134.703C51.3463 134.101 51.1743 133.482 51.0109 132.833C50.8475 132.184 50.611 131.543 50.3401 130.876C50.0692 130.21 49.7854 129.586 49.4801 128.907C49.1748 128.228 48.8265 127.617 48.4395 127.024C48.0525 126.43 47.6741 125.837 47.2871 125.274C46.9001 124.71 46.4873 124.199 46.0659 123.738C45.6445 123.278 45.2618 122.823 44.8662 122.448C44.5195 122.088 44.155 121.745 43.774 121.421C43.4429 121.12 43.1462 120.866 42.8882 120.677L42.0884 120.058L42.9484 120.599C43.2279 120.767 43.5461 120.991 43.9073 121.262C44.2685 121.533 44.6856 121.825 45.1027 122.19C45.5198 122.556 45.9627 122.947 46.4443 123.386C46.9259 123.824 47.3602 124.328 47.8418 124.835C48.3234 125.342 48.7706 125.919 49.1963 126.521C49.622 127.122 50.0563 127.742 50.4605 128.369C50.8647 128.997 51.2302 129.659 51.5441 130.339C51.858 131.018 52.1633 131.68 52.4471 132.334C52.7309 132.988 52.9502 133.624 53.1222 134.273C53.2942 134.923 53.4834 135.499 53.5952 136.062C53.7216 136.576 53.822 137.095 53.8962 137.619C53.9779 138.096 54.0381 138.505 54.0596 138.818L54.1585 139.825L51.9311 139.941Z" fill="#87BD43"/>
<path d="M51.5695 141.557V141.355C51.5695 141.23 51.6125 141.002 51.6082 140.826C51.6222 140.577 51.6222 140.327 51.6082 140.078C51.5794 139.737 51.5306 139.398 51.462 139.063C51.2677 138.198 50.9521 137.364 50.5246 136.586C50.0193 135.668 49.3963 134.819 48.6713 134.062C48.2671 133.632 47.8887 133.297 47.4673 132.936C47.0459 132.574 46.6073 132.256 46.1988 131.951C45.3388 131.34 44.5089 130.824 43.7779 130.394C42.3159 129.534 41.314 129.01 41.314 129.01C41.314 129.01 42.3718 129.414 43.9413 130.08C44.7239 130.42 45.6312 130.833 46.5815 131.349C47.0545 131.607 47.5361 131.891 48.0177 132.209C48.4993 132.527 48.9852 132.88 49.4195 133.224C50.332 133.963 51.1431 134.818 51.8318 135.769C52.4476 136.622 52.9398 137.557 53.2938 138.547C53.4321 138.956 53.5455 139.372 53.6335 139.794C53.6994 140.134 53.7454 140.477 53.7711 140.822C53.8012 141.144 53.7926 141.299 53.8012 141.441V141.66L51.5695 141.557Z" fill="#87BD43"/>
<path d="M51.9526 142.448L52.1934 141.541C52.2579 141.261 52.374 140.891 52.5245 140.461C52.6711 139.989 52.8433 139.526 53.0405 139.073C53.234 138.574 53.4705 138.053 53.7629 137.507C54.0553 136.961 54.3735 136.411 54.7046 135.839C55.0357 135.267 55.4399 134.708 55.8742 134.171C56.3085 133.633 56.76 133.091 57.2115 132.562C57.663 132.033 58.179 131.552 58.7036 131.109C59.2282 130.666 59.7442 130.249 60.2559 129.819C60.7676 129.389 61.2922 129.071 61.8082 128.774C62.2802 128.479 62.7667 128.208 63.2659 127.961C63.6848 127.74 64.1154 127.542 64.5559 127.368C64.8841 127.218 65.22 127.086 65.5621 126.972L66.4479 126.667L65.5879 127.063C65.2627 127.211 64.9455 127.376 64.6376 127.557C64.228 127.772 63.8304 128.009 63.4465 128.267C62.9852 128.558 62.5389 128.872 62.1092 129.208C61.6405 129.544 61.1933 129.965 60.7117 130.369C60.2301 130.774 59.7829 131.229 59.3529 131.745C58.9229 132.261 58.4929 132.756 58.0629 133.272C57.6329 133.788 57.2846 134.347 56.9621 134.914C56.6396 135.482 56.3257 136.037 56.0376 136.579C55.7495 137.12 55.5173 137.671 55.3324 138.204C55.138 138.694 54.9687 139.193 54.825 139.7C54.691 140.117 54.5805 140.54 54.4939 140.969C54.4105 141.301 54.3445 141.636 54.2961 141.975L54.1499 142.904L51.9526 142.448Z" fill="#87BD43"/>
<path d="M52.6533 141.566L52.6963 140.581C52.7264 139.945 52.7737 139.046 52.8683 137.963C53.069 135.299 53.5829 132.668 54.3991 130.124C54.8564 128.78 55.444 127.484 56.1535 126.254C56.7657 125.18 57.4862 124.171 58.3035 123.244C58.8827 122.599 59.5188 122.007 60.2041 121.477C60.6986 121.094 60.9953 120.9 60.9953 120.9C60.9953 120.9 60.7158 121.124 60.2686 121.55C59.6489 122.137 59.0833 122.779 58.5787 123.467C57.8729 124.437 57.2677 125.476 56.7727 126.568C56.2172 127.812 55.7851 129.109 55.4827 130.438C54.9471 132.935 54.7075 135.487 54.7689 138.04C54.7689 139.085 54.8205 139.967 54.8549 140.573L54.9108 141.545L52.6533 141.566Z" fill="#87BD43"/>
<path d="M52.6063 142.297L52.5762 138.126C52.5762 135.619 52.5977 132.265 52.8299 128.92C53.0281 125.854 53.4594 122.808 54.1199 119.808C54.3908 118.582 54.6703 117.581 54.8853 116.88L55.2207 115.783L54.9799 116.901C54.8294 117.611 54.6316 118.621 54.4682 119.868C54.0688 122.878 53.8992 125.914 53.9608 128.95C54.0124 132.257 54.2618 135.559 54.4811 138.04L54.8638 142.177L52.6063 142.297Z" fill="#87BD43"/>
<path d="M59.7271 139.257C59.7271 138.861 59.7056 138.496 59.6712 138.147H46.2165C46.1821 138.496 46.1606 138.861 46.1606 139.257C46.2321 142.658 47.1864 145.981 48.9298 148.902H56.9622C58.7042 145.981 59.657 142.657 59.7271 139.257Z" fill="#FD3E72"/>
<path d="M60.6985 136.771H45.1841V138.152H60.6985V136.771Z" fill="#FD3E72"/>
<g style="mix-blend-mode:multiply">
<path d="M59.7182 139.055C59.7182 138.741 59.7182 138.436 59.6709 138.147H46.2162C46.1904 138.431 46.1775 138.741 46.1689 139.055H59.7182Z" fill="#F2F3F3"/>
</g>
<path d="M311.487 125.583V212.366H252.814V125.583H311.487ZM307.824 203.353V181.896H256.478V203.353H307.824ZM307.824 177.768V156.311H256.478V177.781L307.824 177.768ZM307.824 152.183V130.722H256.478V152.187L307.824 152.183Z" fill="#9E906A"/>
<path d="M311.333 212.365L309.703 222.393H305.945L304.311 212.365H311.333Z" fill="#8E7D4E"/>
<path d="M307.828 181.896H256.478V203.353H307.828V181.896Z" fill="#B7AF98"/>
<path d="M307.828 156.311H256.478V177.768H307.828V156.311Z" fill="#B7AF98"/>
<path d="M307.828 130.722H256.478V152.187H307.828V130.722Z" fill="#B7AF98"/>
<path d="M259.84 212.365L258.206 222.393H254.452L252.814 212.365H259.84Z" fill="#565490"/>
<path d="M282.149 143.802C283.445 143.802 284.496 142.751 284.496 141.454C284.496 140.158 283.445 139.106 282.149 139.106C280.852 139.106 279.801 140.158 279.801 141.454C279.801 142.751 280.852 143.802 282.149 143.802Z" fill="#F02A60"/>
<path d="M282.149 169.387C283.445 169.387 284.496 168.336 284.496 167.039C284.496 165.743 283.445 164.691 282.149 164.691C280.852 164.691 279.801 165.743 279.801 167.039C279.801 168.336 280.852 169.387 282.149 169.387Z" fill="#F02A60"/>
<path d="M282.149 194.977C283.445 194.977 284.496 193.926 284.496 192.629C284.496 191.332 283.445 190.281 282.149 190.281C280.852 190.281 279.801 191.332 279.801 192.629C279.801 193.926 280.852 194.977 282.149 194.977Z" fill="#565490"/>
<path d="M269.201 94.9072H268.621V109.828H269.201V94.9072Z" fill="#5B5863"/>
<path d="M269.012 114.872C268.818 114.872 268.627 114.831 268.45 114.751C268.273 114.672 268.115 114.556 267.987 114.41C267.858 114.265 267.762 114.094 267.704 113.909C267.647 113.724 267.63 113.529 267.653 113.336L268.083 109.823H269.937L270.367 113.336C270.39 113.528 270.373 113.723 270.316 113.908C270.259 114.093 270.163 114.264 270.035 114.409C269.907 114.554 269.75 114.67 269.573 114.75C269.397 114.83 269.206 114.871 269.012 114.872Z" fill="#F1C1CF"/>
<path d="M300.256 101.224H264.045L270.216 76.3223H294.085L300.256 101.224Z" fill="#FFCCDA"/>
<path d="M283.021 101.224H281.28V123.356H283.021V101.224Z" fill="#8E7D4E"/>
<path d="M272.087 122.194H292.211C292.638 122.194 293.048 122.364 293.351 122.667C293.653 122.969 293.823 123.379 293.823 123.807V125.583H270.47V123.807C270.47 123.595 270.512 123.385 270.593 123.189C270.674 122.993 270.793 122.815 270.944 122.665C271.094 122.515 271.272 122.397 271.468 122.316C271.664 122.235 271.874 122.194 272.087 122.194Z" fill="#827759"/>
<path d="M72.9624 248.408V260.629H55.2378C53.6412 260.629 52.11 259.995 50.981 258.866C49.852 257.737 49.2178 256.205 49.2178 254.609V210.461C49.2178 206.241 50.894 202.194 53.8777 199.211C56.8614 196.227 60.9082 194.551 65.1278 194.551H72.9409V248.408H72.9624Z" fill="#9E906A"/>
<path d="M272.465 251.415V260.629H72.9453V191.447C72.9453 190.129 73.2053 188.824 73.7104 187.607C74.2155 186.389 74.9558 185.284 75.8889 184.353C76.822 183.422 77.9295 182.685 79.1481 182.183C80.3666 181.681 81.6722 181.424 82.9901 181.428H262.451C265.107 181.429 267.654 182.485 269.532 184.364C271.41 186.243 272.465 188.79 272.465 191.447V251.415Z" fill="#8E7D4E"/>
<path d="M296.201 249.81V254.618C296.201 256.214 295.567 257.746 294.438 258.875C293.309 260.004 291.778 260.638 290.181 260.638H272.465V194.525H280.278C284.498 194.525 288.545 196.202 291.529 199.185C294.512 202.169 296.188 206.216 296.188 210.435L296.201 249.81Z" fill="#9E906A"/>
<path d="M272.465 187.314V191.446C272.465 188.79 271.41 186.242 269.532 184.363C267.654 182.485 265.107 181.429 262.45 181.427H82.9898C80.3333 181.429 77.7861 182.485 75.9081 184.363C74.0301 186.242 72.9751 188.79 72.9751 191.446V187.314C72.9762 184.659 74.0319 182.113 75.9099 180.235C77.7878 178.358 80.3345 177.304 82.9898 177.304H262.45C265.106 177.304 267.652 178.358 269.53 180.235C271.408 182.113 272.464 184.659 272.465 187.314Z" fill="#9E906A"/>
<path d="M296.201 205.641V210.461C296.201 206.241 294.525 202.195 291.541 199.211C288.558 196.227 284.511 194.551 280.291 194.551H272.465V189.718H280.278C282.37 189.716 284.441 190.127 286.374 190.926C288.307 191.726 290.063 192.899 291.541 194.378C293.02 195.857 294.193 197.613 294.993 199.545C295.792 201.478 296.203 203.549 296.201 205.641Z" fill="#CAC4B3"/>
<path d="M72.9624 191.446V194.525H65.1493C60.9297 194.525 56.8829 196.201 53.8992 199.185C50.9155 202.169 49.2393 206.215 49.2393 210.435V205.64C49.2393 201.421 50.9155 197.374 53.8992 194.39C56.8829 191.407 60.9297 189.73 65.1493 189.73H72.9624V191.446Z" fill="#CAC4B3"/>
<path d="M272.465 174.698V187.318C272.465 184.662 271.41 182.115 269.532 180.237C267.654 178.359 265.106 177.304 262.45 177.304H82.9898C80.3337 177.304 77.7865 178.359 75.9083 180.237C74.0302 182.115 72.9751 184.662 72.9751 187.318V174.698C72.9745 172.357 73.4353 170.038 74.331 167.875C75.2267 165.712 76.5399 163.746 78.1955 162.091C79.8511 160.435 81.8166 159.122 83.9798 158.226C86.143 157.33 88.4616 156.87 90.8029 156.87H254.637C256.979 156.87 259.297 157.33 261.46 158.226C263.623 159.122 265.589 160.435 267.245 162.091C268.9 163.746 270.213 165.712 271.109 167.875C272.005 170.038 272.466 172.357 272.465 174.698Z" fill="#827759"/>
<path d="M212.046 151.374C214.789 152.514 216.432 153.227 216.432 153.227C216.432 153.227 219.584 153.025 224.086 152.75C230.875 152.342 240.727 151.791 247.409 151.581C250.458 151.495 252.853 151.473 253.988 151.581C259.247 152.011 261.835 158.405 261.835 158.405C260 157.588 258.038 157.094 256.035 156.947C253.201 157.725 221.536 166.6 214.028 166.6C210.36 166.6 199.941 163.745 191.156 161.131C193.521 155.584 196.6 145.315 196.6 145.315C202.839 147.62 208.408 149.869 212.046 151.374Z" fill="#FFA68A"/>
<path d="M228.283 140.517C229.401 140.654 230.506 140.813 231.606 140.994C237.583 142.215 244.988 144.834 247.405 151.572C240.722 151.783 230.871 152.333 224.081 152.742C224.103 152.363 224.653 142.207 220.147 140.117V139.94C222.826 139.988 225.501 140.172 228.162 140.491L228.283 140.517Z" fill="#D12352"/>
<path d="M232.415 122.814C232.595 123.876 231.447 128.666 230.789 128.971C230.132 129.277 229.409 128.541 229.409 128.541C229.585 128.141 229.745 127.72 229.895 127.286C229.907 127.267 229.917 127.246 229.925 127.226C230.062 126.901 230.171 126.566 230.252 126.224C230.672 124.858 230.96 123.456 231.112 122.035C231.112 122.035 232.23 121.747 232.415 122.814Z" fill="#FFA68A"/>
<path d="M231.155 118.174C231.208 118.674 231.235 119.176 231.237 119.679C231.239 120.469 231.196 121.259 231.108 122.044C230.956 123.465 230.668 124.867 230.248 126.232C230.145 126.572 230.029 126.907 229.921 127.234C229.913 127.255 229.903 127.275 229.891 127.294C228.455 130.782 223.669 136.458 220.147 137.141H216.015C212.493 136.458 207.707 130.782 206.262 127.294C206.251 127.275 206.241 127.255 206.232 127.234C206.125 126.907 206.009 126.572 205.906 126.232C205.485 124.867 205.197 123.465 205.046 122.044C204.958 121.259 204.915 120.469 204.917 119.679C204.921 116.79 205.873 113.982 207.626 111.685C208.815 110.142 210.35 108.899 212.106 108.056C213.003 107.627 213.949 107.309 214.923 107.11C215.903 106.912 217.073 106.68 218.032 107.11C218.282 107.348 218.499 107.618 218.677 107.914C218.731 107.737 218.809 107.568 218.909 107.411C219.075 107.233 219.291 107.107 219.528 107.05C221.102 106.564 223.196 107.48 224.559 108.232C226.258 109.19 227.722 110.513 228.845 112.107C229.968 113.701 230.722 115.526 231.052 117.447C231.091 117.697 231.129 117.938 231.155 118.174Z" fill="#3B4048"/>
<path d="M229.895 127.294C229.744 127.724 229.581 128.154 229.409 128.55C228.468 130.848 227.161 132.978 225.539 134.858V138.465C223.749 138.227 221.948 138.084 220.143 138.035V137.15C223.669 136.457 228.454 130.781 229.895 127.294Z" fill="#FFA68A"/>
<path d="M225.543 138.47C226.764 138.638 227.431 138.784 227.431 138.784L228.291 140.504H228.175C225.514 140.181 222.839 139.993 220.16 139.941V138.019C221.961 138.075 223.758 138.225 225.543 138.47Z" fill="#B31F47"/>
<path d="M220.16 140.117C224.67 142.206 224.116 152.367 224.094 152.741C219.592 153.017 216.44 153.219 216.44 153.219C216.44 153.219 214.798 152.509 212.054 151.365C212.054 148.454 212.463 141.759 216.027 140.112H220.16V140.117Z" fill="#3B4048"/>
<path d="M220.147 139.953V140.116H218.079H216.019V139.953V138.026V137.141H218.079H220.147V138.026V139.953Z" fill="#263238"/>
<path d="M207.819 140.474C210.541 140.199 213.28 140.018 216.015 139.949V140.117C212.45 141.764 212.041 148.459 212.041 151.37C208.404 149.865 202.835 147.616 196.596 145.298C195.491 144.868 194.36 144.469 193.22 144.064C195.788 142.776 198.524 141.854 201.347 141.325C202.095 141.179 202.852 141.059 203.605 140.955C205.011 140.771 206.4 140.607 207.819 140.474Z" fill="#D12352"/>
<path d="M210.614 138.47C212.405 138.233 214.208 138.089 216.015 138.04V139.941C213.276 140.005 210.541 140.186 207.819 140.465L208.726 138.775C208.726 138.775 209.41 138.651 210.614 138.47Z" fill="#B31F47"/>
<path d="M216.019 137.141V138.027C214.212 138.076 212.41 138.219 210.618 138.457V134.849C208.996 132.969 207.689 130.839 206.748 128.541C206.572 128.141 206.413 127.719 206.262 127.285C207.69 130.781 212.497 136.457 216.019 137.141Z" fill="#FFA68A"/>
<path d="M206.267 127.294C206.417 127.724 206.581 128.154 206.753 128.55C206.753 128.55 206.043 129.285 205.381 128.98C204.719 128.675 203.566 123.884 203.747 122.822C203.928 121.76 205.037 122.052 205.037 122.052C205.189 123.473 205.477 124.875 205.897 126.241C205.981 126.582 206.091 126.917 206.224 127.243C206.237 127.261 206.251 127.278 206.267 127.294Z" fill="#FFA68A"/>
<path d="M177.482 156.87H101.721L106.305 145.5C107.157 143.394 108.618 141.59 110.502 140.32C112.386 139.05 114.606 138.371 116.878 138.371L128.346 137.79L151.321 136.621L160.695 136.144C167.425 135.55 181.107 139.717 193.225 144.081C194.364 144.49 195.499 144.903 196.6 145.315C196.6 145.315 193.521 155.584 191.156 161.131C190.98 161.561 190.808 161.935 190.64 162.292L177.482 156.87Z" fill="#FFE1E1"/>
<path d="M155.815 116.29C155.995 117.356 154.847 122.151 154.189 122.456C153.652 122.701 153.08 122.267 152.899 122.095C153.195 121.269 153.447 120.427 153.656 119.575C153.986 118.248 154.198 116.894 154.288 115.529C154.4 115.494 155.66 115.284 155.815 116.29Z" fill="#FFA68A"/>
<path d="M126.127 115.525C125.712 113.496 125.568 111.421 125.697 109.354C125.708 108.449 125.906 107.556 126.278 106.731C126.751 105.934 127.39 105.247 128.153 104.719C130.221 103.13 132.549 101.909 135.033 101.111C137.451 100.258 140.068 100.142 142.553 100.776C143.641 101.038 145.34 101.438 146.178 102.191C146.381 102.44 146.647 102.63 146.948 102.741C147.186 102.767 147.426 102.742 147.653 102.668C148.563 102.469 149.51 102.534 150.384 102.857C152.353 103.597 153.66 105.558 154.159 107.587C154.658 109.617 154.494 111.771 154.327 113.869H154.37C154.37 114.42 154.348 114.975 154.31 115.503C154.219 116.868 154.008 118.222 153.677 119.55C152.706 122.641 149.175 128.438 148.255 129.113C147.335 129.788 142.528 130.725 140.21 131.031C137.901 130.725 133.145 129.788 132.225 129.113C131.305 128.438 128.144 123.342 126.962 120.152V120.117C126.556 118.626 126.296 117.1 126.183 115.559L126.127 115.525Z" fill="#3B4048"/>
<path d="M152.882 122.096C151.845 125.064 150.261 127.812 148.212 130.197V134.11C145.549 133.756 142.866 133.564 140.18 133.534C137.499 133.566 134.822 133.76 132.165 134.114V130.201C130.114 127.814 128.53 125.063 127.495 122.091C127.275 121.481 127.065 120.849 126.901 120.182C128.084 123.368 131.296 128.511 132.165 129.143C133.033 129.775 137.841 130.756 140.15 131.061C142.467 130.756 147.266 129.818 148.195 129.143C149.124 128.468 152.645 122.693 153.617 119.58C153.415 120.431 153.17 121.27 152.882 122.096Z" fill="#FFA68A"/>
<path d="M148.212 134.114C149.455 134.273 150.237 134.406 150.237 134.406L151.321 136.612L128.346 137.79L130.148 134.415C130.148 134.415 130.939 134.286 132.182 134.122C134.834 133.766 137.504 133.569 140.18 133.533C142.866 133.565 145.549 133.759 148.212 134.114Z" fill="#FFD8E2"/>
<path d="M126.901 120.16V120.195C127.078 120.861 127.28 121.485 127.495 122.104C127.306 122.28 126.734 122.723 126.205 122.474C125.543 122.168 124.39 117.378 124.571 116.307C124.738 115.305 125.96 115.508 126.11 115.538C126.11 115.559 126.11 115.572 126.11 115.598C126.227 117.14 126.492 118.668 126.901 120.16Z" fill="#FFA68A"/>
<path d="M182.43 79.0956C182.43 84.4997 178.049 88.8806 172.645 88.8806C167.241 88.8806 162.86 84.4997 162.86 79.0956C162.86 73.6915 167.241 69.3105 172.645 69.3105C178.049 69.3105 182.43 73.6915 182.43 79.0956Z" stroke="#FD3E72" stroke-width="1.5"/>
<path d="M170.242 75.2148V83.3471L177.266 79.281L170.242 75.2148Z" stroke="#FD3E72" stroke-width="1.5" stroke-linecap="round" stroke-linejoin="round"/>
</g>
<g filter="url(#filter0_d)">
<rect x="34.7061" y="22.4492" width="82.9213" height="50.271" rx="10" fill="white"/>
</g>
<path d="M73.6393 53.184C73.6697 53.1882 73.6763 53.1894 73.7059 53.1933C74.2006 53.261 74.6868 53.3508 75.0589 53.5183C75.4038 53.6717 75.606 53.8657 75.7906 54.2117C76.0712 54.7362 76.0895 55.4711 75.8359 56.0274C75.6464 56.4412 75.2305 56.7883 74.8508 56.9722C74.4564 57.1647 74.0679 57.2564 73.6224 57.3076C72.8431 57.3941 72.0014 57.2315 71.3001 56.8899C70.8853 56.6859 70.3787 56.3345 70.1231 55.8819C69.9352 55.5503 69.9411 55.1188 70.1698 54.8036C70.5342 54.3013 71.3148 54.1907 71.9027 54.2117C72.3509 54.2291 73.158 54.3687 73.5836 54.5211C73.7015 54.5641 74.1366 54.7347 74.2125 54.813C74.2659 54.8675 74.3006 54.9466 74.2766 55.0197C74.1794 55.3192 73.4566 55.4771 73.2479 55.5088C72.6892 55.595 72.3993 55.3821 71.7642 55.1295C71.6065 55.0673 71.3964 54.9984 71.2359 54.9834C70.9475 54.9558 70.5992 55.0371 70.5442 55.3541C70.5168 55.5175 70.7071 55.6703 70.8521 55.7345C71.1929 55.8819 71.4698 55.9349 71.8052 55.9394C72.7958 55.9558 73.909 55.7916 74.7193 55.2135C74.8302 55.1337 74.9391 55.0171 74.9403 54.87C74.9438 54.5729 74.4267 54.3913 74.4267 54.3913C73.8809 54.1622 72.8724 54.0506 72.3529 54.0075C71.8077 53.96 70.9499 53.8889 70.744 53.8584C70.5319 53.8279 70.3016 53.7848 70.1179 53.7019C69.9335 53.618 69.753 53.4302 69.6994 53.2224C69.6045 52.8478 69.7256 52.3882 69.9322 52.0889C70.4736 51.3051 71.7418 51.0074 72.6892 50.8892C73.6062 50.7743 75.0886 50.7755 75.9893 51.2574C76.1283 51.3325 76.1993 51.4023 76.1703 51.552C76.1116 51.8331 75.9019 52.0142 75.6476 52.0936C75.3809 52.1791 74.8292 52.2124 74.5869 52.2277C73.501 52.289 72.1888 52.2569 71.1546 52.5409C71.0735 52.5642 70.9336 52.6022 70.8881 52.6534C70.7262 52.8304 71.1886 52.8809 71.2876 52.9012C71.3171 52.9083 71.3228 52.9093 71.3535 52.9126L73.6393 53.184ZM67.1795 48.308C67.1795 48.308 67.3561 48.0412 67.5041 47.8389C67.7736 47.4703 68.2612 46.9592 68.6285 46.6427C68.7408 46.5461 68.8733 46.4366 68.8733 46.4366C68.8733 46.4366 68.6661 46.4582 68.5487 46.4824C68.2701 46.537 67.8615 46.8104 67.6574 46.9871C67.3205 47.2775 66.9501 47.7496 67.1177 48.169C67.142 48.2283 67.1795 48.308 67.1795 48.308ZM69.0521 48.8127C69.5843 48.7757 70.0828 48.6214 70.5469 48.3622C71.002 48.1057 71.6714 47.6056 71.602 47.0177C71.5809 46.8273 71.4572 46.6837 71.301 46.6166C71.098 46.5281 70.9922 46.5423 70.7329 46.6199C70.5445 46.6754 70.4596 46.7091 70.2817 46.8116C69.7597 47.1171 69.0195 47.7708 68.6176 48.2925C68.5249 48.4155 68.431 48.5531 68.3575 48.6474C68.3111 48.7056 68.2751 48.7589 68.2796 48.7732C68.2956 48.8323 68.8443 48.8269 69.0521 48.8127ZM67.6972 49.8149C67.6423 49.8734 67.5843 50.0143 67.524 50.1164C67.4919 50.171 67.4323 50.2413 67.3928 50.2695C67.2543 50.3721 67.137 50.3769 67.0033 50.2584C66.8158 50.0913 66.7073 49.833 66.6996 49.5818C66.6956 49.4721 66.7143 49.3508 66.6937 49.2583C66.6596 49.1023 66.5045 48.9415 66.4209 48.7923C66.3227 48.6165 66.2433 48.3101 66.2334 48.1122C66.1997 47.4951 66.5227 46.9268 66.9422 46.4785C67.3647 46.0252 67.9175 45.6484 68.5187 45.3919C69.0869 45.1509 69.9196 44.9866 70.5436 45.2042C70.7468 45.2743 71.0298 45.4484 71.172 45.6308C71.2022 45.6687 71.2269 45.7096 71.2578 45.7296C71.2856 45.7474 71.3582 45.7545 71.4159 45.7651C71.6149 45.7999 71.9015 45.9516 72.0185 46.0527C72.2537 46.257 72.3825 46.4523 72.4421 46.7357C72.5617 47.306 72.2356 47.9316 71.8642 48.3124C71.2282 48.9678 70.6001 49.4286 69.7865 49.7493C69.4292 49.8899 68.8726 50.0212 68.4672 49.9845C68.3413 49.974 68.2119 49.9406 68.0893 49.9324C68.0268 49.927 67.798 49.8676 67.7736 49.8508C67.7432 49.8273 67.7041 49.8069 67.6972 49.8149ZM68.4238 51.0792C68.4486 51.0834 68.4868 51.0946 68.5196 51.1073C68.8049 51.2166 68.9222 51.4824 68.9925 51.7744C69.1553 52.4525 69.2248 53.9525 69.2519 54.5396C69.2718 54.9803 69.2827 55.4139 69.301 55.8495C69.3166 56.2184 69.3458 56.7088 69.2695 57.0544C69.2417 57.1787 69.1591 57.3233 69.0409 57.3973C68.9055 57.4846 68.5973 57.4913 68.4278 57.4561C68.0102 57.3691 67.8745 57.0987 67.8149 56.6828C67.6733 55.6903 67.7415 53.7426 67.8251 52.9207C67.8529 52.6492 67.9544 51.7795 68.0952 51.4148C68.1432 51.2918 68.2456 51.0441 68.4238 51.0792ZM55.7193 52.7305C55.7193 52.7305 55.0977 52.7748 54.6699 52.8226C54.1257 52.8816 53.1031 53.0594 52.5128 53.2717C52.3357 53.3355 51.9761 53.4871 51.9448 53.6704C51.912 53.8605 52.0291 54.0091 52.1593 54.1628C52.2347 54.2521 52.661 54.6651 52.7805 54.7655C53.2816 55.1867 54.2976 55.8364 55.0459 56.152C55.303 56.2591 55.7283 56.4124 55.7283 56.4124C55.7283 56.4124 55.6967 55.1929 55.7024 53.9916C55.7057 53.3579 55.7193 52.7305 55.7193 52.7305ZM67.1158 53.2158C67.1514 53.5434 67.0678 54.1629 67.0533 54.2446C67.0268 54.4329 66.8858 54.8673 66.8624 54.9203C66.7486 55.1843 66.6363 55.4006 66.5174 55.6164C66.3136 55.9858 65.829 56.5714 65.5413 56.822C64.4714 57.7532 62.8152 58.2834 61.3944 58.4581C60.4302 58.5754 59.3224 58.5582 58.3008 58.3678C57.9493 58.3034 57.4261 58.182 57.4261 58.182C57.4261 58.182 57.4278 58.3926 57.411 58.5408C57.4029 58.6084 57.3523 58.7863 57.324 58.844C57.2497 58.9985 57.1278 59.0782 56.9504 59.1125C56.7364 59.1525 56.5094 59.1658 56.3116 59.0807C55.9869 58.9431 55.8703 58.6372 55.8138 58.2843C55.768 58.0021 55.7201 57.5116 55.7201 57.5116C55.7201 57.5116 55.4772 57.3957 55.2746 57.2939C54.6525 56.9852 54.0616 56.6112 53.5446 56.2265C53.4014 56.1189 52.7862 55.5999 52.6504 55.4711C52.2695 55.107 51.927 54.7448 51.6664 54.28C51.4638 53.917 51.4054 53.5947 51.5595 53.21C51.772 52.6737 52.5354 52.27 53.0579 52.0399C53.4414 51.8694 54.6339 51.4773 55.1293 51.4046C55.3632 51.3709 55.7261 51.3055 55.7484 51.2908C55.7576 51.2838 55.7639 51.2778 55.7705 51.2703C55.7819 51.2541 55.8012 50.7232 55.7974 50.5291C55.7926 50.3381 55.9377 49.0842 55.9844 48.819C56.0087 48.6756 56.1166 48.1236 56.2266 47.9787C56.2987 47.8808 56.426 47.8887 56.5298 47.953C57.098 48.3088 57.2706 49.5426 57.3128 50.1704C57.3381 50.5529 57.3507 51.1283 57.3507 51.1283C57.3507 51.1283 58.0024 51.1089 58.4034 51.1203C58.793 51.1295 59.2224 51.1914 59.6268 51.2563C60.1445 51.3399 61.1536 51.5615 61.7323 51.857C62.2089 52.1003 62.655 52.5103 62.7995 52.9441C62.9338 53.3418 62.9137 53.6171 62.7091 53.976C62.4792 54.3813 62.0442 54.6825 61.6032 54.7077C61.4719 54.7153 60.978 54.6492 60.8259 54.5307C60.7663 54.4835 60.7694 54.3982 60.8124 54.3404C60.8287 54.3201 61.0596 54.1965 61.1959 54.1243C61.2643 54.0869 61.3208 54.0466 61.3741 53.9976C61.4874 53.8972 61.5893 53.7867 61.5779 53.6571C61.5622 53.4889 61.3855 53.3852 61.2171 53.3185C60.4268 53.0023 58.8489 52.7399 58.0864 52.6944C57.7879 52.6768 57.3634 52.6617 57.3634 52.6617L57.4531 56.902C57.4531 56.902 57.8041 56.9693 58.0807 57.0144C58.2394 57.0387 58.9119 57.0996 59.0906 57.1041C60.4512 57.1402 61.9699 57.0175 63.2185 56.4241C63.7667 56.1643 64.2697 55.8409 64.6504 55.403C65.1523 54.8236 65.4151 54.0307 65.3455 53.2024C65.2693 52.2979 64.6371 51.2241 64.1323 50.5703C62.7986 48.843 60.5123 47.4221 58.5009 46.589C56.4474 45.7391 54.4179 45.2501 52.2386 45.1683C51.6767 45.1473 50.4517 45.1758 49.8325 45.3483C49.7441 45.3735 49.6549 45.4034 49.5728 45.422C49.5079 45.438 49.4057 45.4813 49.3776 45.5041C49.362 45.5168 49.3467 45.5343 49.3467 45.5343C49.3467 45.5343 49.3848 45.5556 49.4213 45.5711C49.4869 45.6 49.763 45.6172 49.9059 45.6435C50.0337 45.6678 50.1668 45.7354 50.2195 45.8297C50.2696 45.9194 50.2758 45.9901 50.216 46.0649C50.0757 46.2367 49.5476 46.2077 49.3151 46.1707C49.0734 46.1319 48.7725 46.0574 48.7173 45.8455C48.6531 45.596 48.7709 45.3513 48.8981 45.1252C49.1536 44.6727 49.5195 44.4373 50.0555 44.29C50.8167 44.079 51.7779 43.9315 52.4968 43.9039C54.1237 43.842 55.6636 44.1285 57.2399 44.6105C58.1421 44.8852 59.3233 45.3462 60.188 45.7655C60.8085 46.0668 61.7862 46.6208 62.3353 46.9829C62.5086 47.098 63.5222 47.8481 63.6796 47.9799C64.0081 48.2503 64.4377 48.639 64.7488 48.9499C65.3506 49.5505 66.0992 50.4712 66.4629 51.2019C66.5504 51.3769 66.6182 51.5491 66.7311 51.7519C66.77 51.8214 66.9361 52.237 66.9637 52.357C66.9911 52.4758 67.0312 52.6504 67.0368 52.6573C67.0448 52.7211 67.1219 53.0782 67.1158 53.2158ZM87.5695 52.2782C86.8076 52.4552 84.8041 52.5534 84.8041 52.5534L84.5514 53.3504C84.5514 53.3504 85.5527 53.2643 86.2811 53.3409C86.2811 53.3409 86.5171 53.3133 86.5448 53.6108C86.5542 53.8881 86.5214 54.1858 86.5214 54.1858C86.5214 54.1858 86.5063 54.3659 86.2529 54.4117C85.9783 54.4577 84.0948 54.5311 84.0948 54.5311L83.7898 55.57C83.7898 55.57 83.6765 55.8101 83.9305 55.7416C84.1665 55.6779 86.14 55.305 86.397 55.3587C86.6725 55.4276 86.9773 55.7974 86.8892 56.1344C86.7842 56.5522 84.8145 57.8172 83.6149 57.7289C83.6149 57.7289 82.9846 57.7699 82.4519 56.9132C81.9557 56.0968 82.6399 54.5511 82.6399 54.5511C82.6399 54.5511 82.3263 53.8296 82.5535 53.585C82.5535 53.585 82.6888 53.4614 83.0831 53.4334L83.5658 52.4276C83.5658 52.4276 83.0159 52.4657 82.6888 52.0583C82.3841 51.6719 82.3585 51.4942 82.5922 51.3875C82.842 51.2632 85.132 50.8423 86.7079 50.8957C86.7079 50.8957 87.2555 50.8416 87.7305 51.7982C87.7306 51.7983 87.9607 52.1851 87.5695 52.2782ZM81.6425 56.1456C81.4405 56.624 80.9071 57.1345 80.2443 56.8172C79.5901 56.4992 78.548 54.3514 78.548 54.3514C78.548 54.3514 78.1525 53.5505 78.0764 53.5711C78.0764 53.5711 77.9909 53.4147 77.9385 54.2899C77.884 55.1614 77.949 56.8607 77.6038 57.1282C77.2767 57.3964 76.8807 57.2897 76.6754 56.9763C76.4887 56.6676 76.4111 55.9341 76.5129 54.6458C76.6326 53.355 76.9304 51.9817 77.3108 51.554C77.6907 51.1292 77.9957 51.4376 78.1145 51.5495C78.1145 51.5495 78.6227 52.0133 79.4607 53.3753L79.6086 53.6272C79.6086 53.6272 80.3701 54.914 80.4496 54.911C80.4496 54.911 80.5119 54.9701 80.5674 54.9277C80.6473 54.9046 80.615 54.492 80.615 54.492C80.615 54.492 80.457 53.0897 79.7623 50.7162C79.7623 50.7162 79.6573 50.4202 79.7283 50.1428C79.7989 49.8626 80.0778 49.9941 80.0778 49.9941C80.0778 49.9941 81.1546 50.5393 81.6772 52.3047C82.1964 54.0707 81.8475 55.6637 81.6425 56.1456ZM93.2308 55.0883C92.7407 55.9495 91.357 57.7528 89.5181 57.3271C88.9108 58.81 88.4007 60.3102 88.109 62.555C88.109 62.555 88.0449 62.9912 87.6849 62.8397C87.3281 62.714 86.7405 62.1166 86.6216 61.2903C86.4937 60.2048 86.9736 58.3698 87.9543 56.2657C87.6683 55.7974 87.4733 55.1283 87.6402 54.1756C87.6402 54.1756 87.8866 52.4064 89.6509 50.8119C89.6509 50.8119 89.8624 50.6279 89.985 50.6846C90.1201 50.7416 90.0575 51.3173 89.9504 51.5972C89.839 51.8756 89.0535 53.245 89.0535 53.245C89.0535 53.245 88.5636 54.1701 88.7015 54.8998C89.6268 53.4671 91.7303 50.5781 93.034 51.4891C93.472 51.8047 93.6739 52.4911 93.6739 53.2307C93.6742 53.8803 93.5186 54.5708 93.2308 55.0883ZM92.8503 52.8193C92.8503 52.8193 92.7778 52.2497 92.2248 52.8772C91.7492 53.4068 90.8913 54.3989 90.2007 55.7465C90.9253 55.6646 91.6242 55.2687 91.8355 55.0671C92.1791 54.7601 92.9794 53.9272 92.8503 52.8193ZM103.361 52.6896H99.9908C99.9236 51.5361 99.7853 50.4124 99.568 49.2552C99.5457 49.1354 99.4422 49.0486 99.3217 49.0486H98.5447C98.4771 49.0486 98.4131 49.0792 98.3693 49.1325C98.3253 49.1868 98.3081 49.2559 98.321 49.3235C98.5418 50.4433 98.6816 51.5455 98.7506 52.6907H95.5083C95.3572 52.6907 95.2345 52.8139 95.2345 52.9655V53.6712C95.2345 53.823 95.3572 53.9471 95.5083 53.9471H98.797C98.7991 54.1213 98.8008 54.2772 98.8008 54.4236C98.8008 55.4406 98.7573 56.2784 98.6555 57.2239C98.6475 57.297 98.6712 57.3697 98.7204 57.4233C98.768 57.4774 98.8368 57.5082 98.9081 57.5082H99.6287C99.7693 57.5082 99.8858 57.4016 99.8999 57.2606C99.9984 56.3087 100.041 55.4605 100.041 54.4235C100.041 54.2777 100.039 54.1212 100.037 53.9471H103.361C103.512 53.9471 103.635 53.823 103.635 53.6711V52.9654C103.635 52.8132 103.512 52.6896 103.361 52.6896Z" fill="#101C50"/>
<path d="M58.2969 43.2339C58.2492 43.3054 58.2377 43.3931 58.2651 43.4754C58.2937 43.5577 58.3559 43.6202 58.4364 43.6486L59.0405 43.8533C59.077 43.8648 59.1133 43.8708 59.1489 43.8708C59.2609 43.8708 59.366 43.815 59.4282 43.7213C61.4071 40.7937 64.0853 38.3561 67.1738 36.6721C70.3622 34.9333 73.9747 34.0135 77.6218 34.0135C82.027 34.0135 86.2773 35.3221 89.9137 37.7976C93.4618 40.2122 96.2173 43.5811 97.8825 47.54C97.9322 47.6585 98.0471 47.7349 98.1745 47.7349H98.896C98.9791 47.7349 99.0573 47.6928 99.1043 47.6228C99.1516 47.553 99.1604 47.4643 99.1291 47.3858C97.412 43.1291 94.5084 39.5004 90.7311 36.8934C86.8644 34.2245 82.3312 32.8135 77.6218 32.8135C69.8363 32.8135 62.6118 36.7091 58.2969 43.2339Z" fill="url(#paint0_linear)"/>
<g filter="url(#filter1_d)">
<rect x="229.163" y="56.6445" width="68.9021" height="34.7823" rx="10" fill="white"/>
</g>
<g clip-path="url(#clip1)">
<path d="M246.082 79.6626C245.355 79.7889 244.614 79.8267 243.849 79.9276L241.513 73.1652V80.2178C240.785 80.2935 240.121 80.3944 239.432 80.4953V67.5762H241.372L244.027 74.9064V67.5762H246.082V79.6626ZM250.103 72.3073C250.895 72.3073 252.107 72.2694 252.835 72.2694V74.288C251.928 74.288 250.869 74.288 250.103 74.3259V77.3286C251.303 77.2529 252.503 77.1519 253.715 77.1141V79.0569L248.061 79.4985V67.5762H253.715V69.5948H250.103V72.3073ZM261.31 69.5948H259.191V78.8805C258.502 78.8805 257.813 78.8805 257.149 78.9056V69.5948H255.03V67.5762H261.31L261.31 69.5948ZM264.629 72.1686H267.424V74.1871H264.629V78.7669H262.625V67.5762H268.331V69.5948H264.629V72.1686ZM271.649 77.0006C272.811 77.0257 273.985 77.1142 275.121 77.1772V79.1706C273.296 79.057 271.471 78.9436 269.607 78.9056V67.5762H271.649V77.0006ZM276.844 79.3094C277.495 79.3473 278.185 79.3851 278.848 79.4607V67.5762H276.844V79.3094ZM287.796 67.5762L285.205 73.7204L287.796 80.4953C287.03 80.3944 286.264 80.2556 285.498 80.1294L284.031 76.3951L282.537 79.8267C281.797 79.7004 281.082 79.6626 280.342 79.5617L282.971 73.6446L280.597 67.5762H282.792L284.133 70.97L285.562 67.5762H287.796V67.5762Z" fill="#D81F26"/>
</g>
<g filter="url(#filter2_d)">
<rect x="170.47" y="9.17773" width="52.0593" height="26.28" rx="10" fill="white"/>
</g>
<g clip-path="url(#clip2)">
<path d="M200.04 27.6881H202.674V16.8906H200.04V27.6881ZM195.398 24.6163C195.398 25.0017 195.082 25.3139 194.693 25.3139H193.161C192.77 25.3139 192.454 25.0017 192.454 24.6163C192.454 24.4712 192.454 20.2598 192.454 20.2598H189.82V24.8336C189.82 26.703 191.03 27.6881 192.819 27.6881H195.398V27.6745C197.046 27.6745 198.032 26.5157 198.032 24.8336V20.2598H195.398C195.398 20.2598 195.398 24.4712 195.398 24.6163ZM210.256 20.2598C210.256 20.2598 210.256 24.4712 210.256 24.6163C210.256 25.0017 209.94 25.3139 209.551 25.3139H208.018C207.628 25.3139 207.313 25.0017 207.313 24.6163C207.313 24.4712 207.313 20.2598 207.313 20.2598H204.678V24.8336C204.678 26.703 205.888 27.6881 207.677 27.6881H210.256V27.6745C211.904 27.6745 212.89 26.5157 212.89 24.8336V20.2598H210.256ZM184.939 20.2598C184.939 20.2598 183.567 20.2598 183.25 20.2598C182.657 20.2598 182.36 20.4178 182.36 20.4178V16.8906H179.726V27.6881H182.36V23.331C182.36 22.9457 182.676 22.6335 183.066 22.6335H184.598C184.988 22.6335 185.304 22.9457 185.304 23.331V27.6881H187.938V22.9937C187.938 21.0196 186.606 20.2598 184.939 20.2598Z" fill="url(#paint1_linear)"/>
</g>
<g filter="url(#filter3_d)">
<rect x="9.69775" y="109.724" width="78.9618" height="41.3412" rx="10" fill="white"/>
</g>
<g clip-path="url(#clip3)">
<path d="M49.1357 138.662V138.635C49.1626 138.601 49.2096 138.581 49.2499 138.588C49.4446 138.581 49.6326 138.581 49.8273 138.588C49.8676 138.588 49.9146 138.601 49.9414 138.635V138.662H49.1357Z" fill="#D1EFFA"/>
<path d="M49.9412 138.635C49.6726 138.628 49.404 138.628 49.1355 138.635C48.7662 138.615 48.3969 138.601 48.0277 138.574C47.0474 138.5 46.0739 138.353 45.1205 138.131C41.824 137.366 38.9303 135.828 36.4058 133.593C36.1708 133.384 35.9493 133.17 35.721 132.955C35.6673 132.908 35.6203 132.841 35.5934 132.773C35.5531 132.679 35.5733 132.579 35.6404 132.505C35.7076 132.431 35.815 132.404 35.909 132.444C35.9694 132.471 36.0298 132.498 36.0835 132.532C38.4939 134.022 41.1257 135.11 43.8852 135.754C44.8117 135.969 45.7449 136.137 46.6849 136.258C48.0344 136.426 49.3973 136.486 50.7535 136.439C51.4854 136.419 52.2105 136.352 52.9356 136.258C54.6275 136.043 56.2993 135.66 57.9173 135.123C58.77 134.841 59.6025 134.519 60.4149 134.143C60.5358 134.076 60.6835 134.056 60.8178 134.089C61.0393 134.143 61.1736 134.371 61.1199 134.593C61.1132 134.62 61.0998 134.653 61.0863 134.68C61.0326 134.781 60.9588 134.868 60.8648 134.935C60.0927 135.54 59.2601 136.07 58.3806 136.513C56.7223 137.352 54.9498 137.95 53.1236 138.292C52.0695 138.48 51.0087 138.594 49.9412 138.635Z" fill="#00A8E1"/>
<path d="M39.9974 125.026C40.1652 124.926 40.3398 124.818 40.5211 124.724C40.991 124.482 41.5147 124.362 42.0451 124.388C42.4278 124.409 42.777 124.516 43.0455 124.798C43.3007 125.06 43.3946 125.382 43.4215 125.731C43.4282 125.805 43.4282 125.879 43.4282 125.96V129.437C43.4282 129.739 43.3879 129.78 43.0858 129.78H42.2667C42.213 129.78 42.1593 129.78 42.1056 129.773C42.025 129.766 41.9579 129.699 41.9444 129.619C41.931 129.545 41.931 129.471 41.931 129.397V126.289C41.9377 126.161 41.9243 126.04 41.8907 125.919C41.837 125.711 41.649 125.563 41.4342 125.55C41.038 125.523 40.6419 125.604 40.2794 125.772C40.2257 125.785 40.1921 125.839 40.1988 125.892V129.424C40.1988 129.491 40.1988 129.551 40.1854 129.619C40.1854 129.713 40.1115 129.78 40.0175 129.78C39.9168 129.786 39.8161 129.786 39.7087 129.786H38.997C38.7486 129.786 38.6949 129.726 38.6949 129.478V126.302C38.6949 126.188 38.6882 126.067 38.6613 125.953C38.6143 125.725 38.4196 125.563 38.1913 125.55C37.7885 125.523 37.3789 125.604 37.0164 125.778C36.9627 125.792 36.9291 125.852 36.9425 125.906V129.484C36.9425 129.733 36.8888 129.786 36.6404 129.786H35.7407C35.5057 129.786 35.4453 129.719 35.4453 129.491V124.832C35.4453 124.778 35.452 124.724 35.4655 124.67C35.4923 124.59 35.5729 124.543 35.6534 124.543H36.4927C36.6135 124.543 36.6874 124.617 36.7277 124.731C36.7612 124.825 36.7814 124.912 36.815 125.013C36.8821 125.013 36.9224 124.966 36.9694 124.939C37.3387 124.711 37.7281 124.516 38.1645 124.435C38.5002 124.368 38.8359 124.368 39.1716 124.435C39.4871 124.503 39.7691 124.691 39.9504 124.959C39.9638 124.979 39.9772 124.993 39.9907 125.006C39.984 125.013 39.9907 125.013 39.9974 125.026Z" fill="#00A8E1"/>
<path d="M53.916 128.37C53.9563 128.236 53.9966 128.108 54.0368 127.974C54.3457 126.933 54.6545 125.899 54.9634 124.858L55.0036 124.738C55.0372 124.617 55.1514 124.543 55.2722 124.543H56.2927C56.5479 124.543 56.6016 124.617 56.5143 124.858L56.1114 125.926C55.6616 127.094 55.2118 128.269 54.7619 129.437C54.7485 129.478 54.7284 129.518 54.7149 129.558C54.668 129.699 54.527 129.793 54.3793 129.78C54.0838 129.773 53.7884 129.773 53.493 129.78C53.2849 129.787 53.164 129.693 53.0902 129.505C52.9223 129.061 52.7478 128.612 52.5799 128.168C52.1771 127.114 51.7675 126.06 51.3647 124.999C51.3244 124.919 51.2976 124.825 51.2774 124.738C51.2573 124.603 51.3043 124.536 51.4385 124.536C51.8212 124.529 52.2039 124.536 52.5799 124.536C52.7411 124.536 52.8149 124.644 52.8552 124.785C52.929 125.04 53.0029 125.302 53.0835 125.557C53.3587 126.49 53.6273 127.43 53.9026 128.363C53.8958 128.37 53.9026 128.37 53.916 128.37Z" fill="#232F3E"/>
<path d="M30.0744 125.282C30.1214 125.268 30.1616 125.241 30.1885 125.201C30.3094 125.08 30.4369 124.966 30.5712 124.859C30.9203 124.59 31.3567 124.456 31.7931 124.489C31.9677 124.496 32.0281 124.55 32.0416 124.718C32.055 124.946 32.0483 125.181 32.0483 125.409C32.055 125.503 32.0483 125.591 32.0348 125.685C32.008 125.805 31.961 125.852 31.8401 125.866C31.7461 125.873 31.6589 125.866 31.5649 125.859C31.115 125.819 30.6786 125.906 30.2556 126.047C30.1616 126.081 30.1616 126.148 30.1616 126.222V129.444C30.1616 129.505 30.1616 129.558 30.1549 129.619C30.1482 129.706 30.0811 129.773 29.9938 129.773C29.9468 129.78 29.8931 129.78 29.8461 129.78H28.9733C28.9263 129.78 28.8726 129.78 28.8256 129.773C28.7383 129.767 28.6711 129.693 28.6644 129.605C28.6577 129.552 28.6577 129.498 28.6577 129.444V124.879C28.6577 124.57 28.6913 124.536 29.0001 124.536H29.6447C29.8192 124.536 29.8998 124.597 29.9468 124.765C29.9938 124.933 30.0341 125.1 30.0744 125.282Z" fill="#00A8E1"/>
<path d="M61.4827 132.089C61.9259 132.102 62.3623 132.129 62.792 132.243C62.9128 132.277 63.027 132.317 63.1411 132.371C63.2955 132.431 63.3962 132.579 63.4164 132.74C63.4432 132.928 63.4499 133.123 63.4365 133.318C63.3492 134.466 62.9934 135.573 62.4026 136.56C62.1877 136.916 61.9259 137.238 61.6237 137.52C61.5633 137.581 61.4895 137.628 61.4089 137.655C61.2813 137.688 61.2007 137.621 61.194 137.494C61.2007 137.426 61.2142 137.359 61.241 137.292C61.476 136.661 61.7043 136.037 61.8856 135.385C61.993 135.03 62.0669 134.667 62.1139 134.298C62.1273 134.163 62.134 134.029 62.1206 133.895C62.1139 133.667 61.9661 133.472 61.7446 133.405C61.5364 133.338 61.3216 133.297 61.1 133.284C60.4824 133.257 59.8647 133.284 59.2537 133.365L58.4413 133.465C58.354 133.472 58.2735 133.465 58.2265 133.385C58.1795 133.304 58.1996 133.224 58.2466 133.143C58.3003 133.069 58.3674 133.002 58.448 132.955C58.9449 132.599 59.5021 132.384 60.0929 132.243C60.5495 132.149 61.0128 132.102 61.4827 132.089Z" fill="#00A8E1"/>
<path d="M58.6695 127.161V129.578C58.656 129.713 58.5956 129.773 58.4613 129.78C58.0988 129.787 57.7429 129.787 57.3804 129.78C57.2461 129.78 57.1857 129.713 57.1722 129.585C57.1655 129.545 57.1655 129.498 57.1655 129.458V124.812C57.1722 124.603 57.226 124.543 57.4341 124.543H58.4009C58.609 124.543 58.6695 124.603 58.6695 124.812V127.161Z" fill="#232F3E"/>
<path d="M32.6932 127.148V124.765C32.7 124.603 32.7604 124.543 32.9215 124.536C33.2706 124.53 33.6198 124.53 33.9689 124.536C34.1233 124.536 34.1703 124.583 34.1837 124.738C34.1905 124.798 34.1905 124.852 34.1905 124.912V129.384C34.1905 129.458 34.1837 129.531 34.177 129.605C34.1703 129.693 34.1032 129.753 34.0159 129.76C33.9756 129.766 33.942 129.766 33.9018 129.766H32.9685C32.9349 129.766 32.9081 129.766 32.8745 129.76C32.7805 129.753 32.7 129.679 32.6932 129.585C32.6865 129.531 32.6865 129.478 32.6865 129.424C32.6932 128.679 32.6932 127.913 32.6932 127.148Z" fill="#00A8E1"/>
<path d="M33.4719 122.132C33.5793 122.125 33.6867 122.146 33.7874 122.179C34.15 122.3 34.338 122.616 34.3044 123.025C34.2776 123.374 34.0157 123.656 33.6666 123.71C33.5189 123.737 33.3645 123.737 33.2167 123.71C32.834 123.636 32.5521 123.354 32.5789 122.871C32.6192 122.394 32.9348 122.132 33.4719 122.132Z" fill="#00A8E1"/>
<path d="M57.9243 122.132C58.0585 122.119 58.1928 122.146 58.3204 122.199C58.5822 122.3 58.7635 122.542 58.7769 122.824C58.8306 123.435 58.4211 123.744 57.8773 123.73C57.8034 123.73 57.7295 123.717 57.6557 123.703C57.2394 123.603 57.0246 123.28 57.0649 122.817C57.0984 122.448 57.3871 122.173 57.7833 122.139C57.8303 122.132 57.8773 122.126 57.9243 122.132Z" fill="#232F3E"/>
<path d="M27.6643 126.597C27.6374 126.248 27.5434 125.905 27.4024 125.59C27.1271 125.013 26.7042 124.59 26.0596 124.442C25.3211 124.281 24.6564 124.442 24.0521 124.892C24.0119 124.932 23.9649 124.966 23.9112 124.992C23.8977 124.986 23.8843 124.979 23.8843 124.972C23.8642 124.905 23.8507 124.838 23.8306 124.771C23.7769 124.603 23.7097 124.543 23.5285 124.543C23.327 124.543 23.1189 124.549 22.9175 124.543C22.7631 124.536 22.6221 124.556 22.5146 124.677C22.5146 127.027 22.5146 129.383 22.5214 131.726C22.6086 131.867 22.7429 131.894 22.8973 131.888C23.139 131.881 23.3807 131.888 23.6225 131.888C24.0454 131.888 24.0454 131.888 24.0454 131.471V129.558C24.0454 129.511 24.0253 129.457 24.0723 129.417C24.408 129.679 24.8175 129.84 25.2405 129.88C25.8313 129.941 26.3685 129.793 26.8183 129.39C27.1473 129.088 27.389 128.698 27.5166 128.269C27.6978 127.718 27.7113 127.161 27.6643 126.597ZM26.0596 127.987C26.0126 128.195 25.9052 128.383 25.7508 128.524C25.5762 128.672 25.3614 128.759 25.1331 128.759C24.7907 128.779 24.455 128.705 24.1529 128.544C24.079 128.51 24.032 128.437 24.0387 128.356V127.141C24.0387 126.738 24.0454 126.335 24.0387 125.932C24.032 125.838 24.0857 125.758 24.173 125.724C24.5423 125.55 24.925 125.469 25.3278 125.55C25.6098 125.59 25.8515 125.771 25.9656 126.033C26.0663 126.248 26.1268 126.483 26.1402 126.718C26.1805 127.148 26.1805 127.577 26.0596 127.987Z" fill="#00A8E1"/>
<path d="M76.2397 126.745V126.772C76.2129 126.745 76.1994 126.705 76.2129 126.671V126.618C76.2129 126.618 76.2129 126.611 76.2196 126.611H76.2129V126.544H76.2263C76.2263 126.537 76.2196 126.537 76.2196 126.53C76.2062 126.403 76.1793 126.275 76.1457 126.154C75.8973 125.268 75.3401 124.684 74.4337 124.456C74.0107 124.355 73.581 124.342 73.1513 124.409C72.2449 124.543 71.5937 125.026 71.2781 125.886C70.9693 126.705 70.976 127.605 71.2848 128.424C71.5534 129.169 72.0905 129.639 72.8626 129.834C73.2722 129.934 73.7018 129.961 74.1248 129.901C75.5348 129.733 76.1189 128.665 76.2129 127.739H76.2062V127.645C76.1994 127.605 76.1927 127.571 76.233 127.544V127.558C76.233 127.551 76.2397 127.537 76.2464 127.531V126.759C76.2464 126.752 76.2397 126.752 76.2397 126.745ZM74.6284 128.021C74.5881 128.162 74.5277 128.289 74.4404 128.41C74.2927 128.618 74.0577 128.753 73.8026 128.773C73.675 128.786 73.5474 128.786 73.4199 128.759C73.1379 128.706 72.9029 128.518 72.7887 128.256C72.688 128.048 72.6276 127.819 72.6075 127.591C72.5739 127.195 72.5672 126.799 72.6612 126.409C72.6948 126.255 72.7619 126.101 72.8425 125.966C72.9902 125.725 73.2453 125.57 73.5273 125.55C73.6548 125.537 73.7824 125.537 73.91 125.563C74.1785 125.617 74.4001 125.792 74.521 126.04C74.6351 126.275 74.7022 126.537 74.7157 126.799C74.7224 126.92 74.7291 127.041 74.7224 127.161C74.7425 127.457 74.7089 127.746 74.6284 128.021Z" fill="#232F3E"/>
<path d="M64.4703 122.18H63.5371C63.282 122.18 63.235 122.227 63.235 122.482V124.657C63.235 124.704 63.2551 124.751 63.2215 124.798C63.1611 124.791 63.1275 124.751 63.0806 124.724C62.3823 124.315 61.6505 124.241 60.9119 124.583C60.395 124.825 60.0727 125.261 59.8646 125.778C59.6631 126.275 59.6161 126.799 59.6296 127.329C59.6296 127.826 59.7437 128.316 59.9653 128.759C60.2204 129.249 60.5897 129.625 61.1268 129.787C61.8586 130.015 62.5434 129.901 63.1678 129.437C63.2148 129.411 63.2417 129.364 63.3021 129.35C63.3357 129.424 63.3625 129.505 63.376 129.585C63.4028 129.693 63.4968 129.766 63.611 129.766H63.7721C64.0138 129.766 64.2488 129.773 64.4838 129.766C64.6718 129.766 64.7255 129.706 64.7322 129.511V122.435C64.7255 122.227 64.6718 122.18 64.4703 122.18ZM63.2417 127.121V128.343C63.2551 128.424 63.2081 128.498 63.1343 128.531C62.812 128.712 62.4427 128.786 62.0802 128.733C61.7713 128.699 61.5028 128.511 61.3618 128.236C61.2543 128.021 61.1939 127.793 61.1738 127.558C61.1201 127.135 61.1536 126.705 61.2543 126.295C61.2879 126.181 61.3282 126.074 61.3886 125.966C61.5296 125.705 61.7982 125.537 62.0936 125.517C62.4494 125.483 62.8053 125.55 63.1276 125.698C63.2081 125.725 63.2551 125.805 63.2484 125.893C63.235 126.309 63.2417 126.712 63.2417 127.121Z" fill="#232F3E"/>
<path d="M45.8789 127.584C46.3825 127.678 46.8994 127.685 47.403 127.604C47.6984 127.564 47.9804 127.477 48.2422 127.336C48.5444 127.161 48.7659 126.919 48.8599 126.584C49.0949 125.738 48.7323 124.885 47.8528 124.569C47.4231 124.428 46.9666 124.381 46.5167 124.442C45.4559 124.563 44.7644 125.147 44.4488 126.161C44.2273 126.852 44.2541 127.557 44.4354 128.255C44.6704 129.148 45.2612 129.679 46.1542 129.867C46.6644 129.981 47.1814 129.961 47.6917 129.88C47.9602 129.833 48.2288 129.766 48.4839 129.665C48.6383 129.605 48.7189 129.511 48.7122 129.336C48.7055 129.175 48.7122 129.007 48.7122 128.839C48.7122 128.638 48.6316 128.578 48.4369 128.625C48.2422 128.672 48.0542 128.712 47.8595 128.752C47.4433 128.839 47.0136 128.839 46.5973 128.766C46.0266 128.651 45.6573 128.161 45.6909 127.557C45.7513 127.564 45.8185 127.571 45.8789 127.584ZM45.7111 126.557C45.7312 126.396 45.7782 126.241 45.8386 126.093C46.04 125.603 46.463 125.435 46.8927 125.462C47.0136 125.469 47.1344 125.496 47.2486 125.543C47.4231 125.617 47.5373 125.778 47.5574 125.966C47.5775 126.08 47.5708 126.201 47.5373 126.315C47.4567 126.557 47.262 126.657 47.027 126.704C46.886 126.738 46.7383 126.751 46.5906 126.738C46.3287 126.738 46.0602 126.718 45.7983 126.678C45.6976 126.664 45.6976 126.664 45.7111 126.557Z" fill="#00A8E1"/>
<path d="M68.5257 127.651C68.9151 127.624 69.3045 127.55 69.6536 127.362C70.0095 127.188 70.2579 126.859 70.3317 126.469C70.3787 126.228 70.3787 125.972 70.325 125.731C70.184 125.127 69.8013 124.751 69.2239 124.556C68.9017 124.455 68.5593 124.415 68.2236 124.428C67.0956 124.455 66.2362 125.026 65.8871 126.154C65.6521 126.899 65.6857 127.658 65.914 128.403C66.149 129.168 66.6861 129.632 67.4515 129.84C67.7804 129.92 68.1229 129.954 68.4585 129.94C68.9487 129.934 69.4388 129.84 69.902 129.665C70.0968 129.591 70.1438 129.524 70.1438 129.316V128.833C70.137 128.638 70.0565 128.571 69.8618 128.618C69.7141 128.658 69.5731 128.692 69.4254 128.725C68.9755 128.833 68.5055 128.853 68.049 128.772C67.5924 128.685 67.2836 128.423 67.1628 127.967C67.1292 127.832 67.1023 127.698 67.0889 127.557C67.1225 127.557 67.156 127.557 67.1829 127.57C67.626 127.651 68.0759 127.685 68.5257 127.651ZM67.1225 126.577C67.1695 126.315 67.2299 126.06 67.391 125.845C67.6394 125.516 67.9819 125.422 68.3713 125.462C68.4048 125.462 68.4317 125.476 68.4653 125.476C68.9352 125.55 69.0494 125.926 68.9621 126.288C68.895 126.557 68.6734 126.657 68.425 126.704C68.2907 126.731 68.1497 126.745 68.0087 126.738C67.7334 126.731 67.4649 126.711 67.1963 126.671C67.1359 126.664 67.109 126.637 67.1225 126.577Z" fill="#232F3E"/>
</g>
<defs>
<filter id="filter0_d" x="5.70605" y="13.4492" width="140.921" height="108.271" filterUnits="userSpaceOnUse" color-interpolation-filters="sRGB">
<feFlood flood-opacity="0" result="BackgroundImageFix"/>
<feColorMatrix in="SourceAlpha" type="matrix" values="0 0 0 0 0 0 0 0 0 0 0 0 0 0 0 0 0 0 127 0"/>
<feOffset dy="20"/>
<feGaussianBlur stdDeviation="14.5"/>
<feColorMatrix type="matrix" values="0 0 0 0 0.1375 0 0 0 0 0.1375 0 0 0 0 0.1375 0 0 0 0.07 0"/>
<feBlend mode="normal" in2="BackgroundImageFix" result="effect1_dropShadow"/>
<feBlend mode="normal" in="SourceGraphic" in2="effect1_dropShadow" result="shape"/>
</filter>
<filter id="filter1_d" x="200.163" y="47.6445" width="126.902" height="92.7823" filterUnits="userSpaceOnUse" color-interpolation-filters="sRGB">
<feFlood flood-opacity="0" result="BackgroundImageFix"/>
<feColorMatrix in="SourceAlpha" type="matrix" values="0 0 0 0 0 0 0 0 0 0 0 0 0 0 0 0 0 0 127 0"/>
<feOffset dy="20"/>
<feGaussianBlur stdDeviation="14.5"/>
<feColorMatrix type="matrix" values="0 0 0 0 0.1375 0 0 0 0 0.1375 0 0 0 0 0.1375 0 0 0 0.07 0"/>
<feBlend mode="normal" in2="BackgroundImageFix" result="effect1_dropShadow"/>
<feBlend mode="normal" in="SourceGraphic" in2="effect1_dropShadow" result="shape"/>
</filter>
<filter id="filter2_d" x="141.47" y="0.177734" width="110.059" height="84.28" filterUnits="userSpaceOnUse" color-interpolation-filters="sRGB">
<feFlood flood-opacity="0" result="BackgroundImageFix"/>
<feColorMatrix in="SourceAlpha" type="matrix" values="0 0 0 0 0 0 0 0 0 0 0 0 0 0 0 0 0 0 127 0"/>
<feOffset dy="20"/>
<feGaussianBlur stdDeviation="14.5"/>
<feColorMatrix type="matrix" values="0 0 0 0 0.1375 0 0 0 0 0.1375 0 0 0 0 0.1375 0 0 0 0.07 0"/>
<feBlend mode="normal" in2="BackgroundImageFix" result="effect1_dropShadow"/>
<feBlend mode="normal" in="SourceGraphic" in2="effect1_dropShadow" result="shape"/>
</filter>
<filter id="filter3_d" x="-19.3022" y="100.724" width="136.962" height="99.3412" filterUnits="userSpaceOnUse" color-interpolation-filters="sRGB">
<feFlood flood-opacity="0" result="BackgroundImageFix"/>
<feColorMatrix in="SourceAlpha" type="matrix" values="0 0 0 0 0 0 0 0 0 0 0 0 0 0 0 0 0 0 127 0"/>
<feOffset dy="20"/>
<feGaussianBlur stdDeviation="14.5"/>
<feColorMatrix type="matrix" values="0 0 0 0 0.1375 0 0 0 0 0.1375 0 0 0 0 0.1375 0 0 0 0.07 0"/>
<feBlend mode="normal" in2="BackgroundImageFix" result="effect1_dropShadow"/>
<feBlend mode="normal" in="SourceGraphic" in2="effect1_dropShadow" result="shape"/>
</filter>
<linearGradient id="paint0_linear" x1="99.8165" y1="42.5153" x2="59.0989" y2="37.0487" gradientUnits="userSpaceOnUse">
<stop stop-color="#101C50"/>
<stop offset="0.236" stop-color="#0D267A"/>
<stop offset="0.4973" stop-color="#085AA4"/>
<stop offset="0.6549" stop-color="#058BBF"/>
<stop offset="1" stop-color="#B1FFFF"/>
</linearGradient>
<linearGradient id="paint1_linear" x1="196.308" y1="16.8906" x2="196.308" y2="27.6881" gradientUnits="userSpaceOnUse">
<stop stop-color="#A5CD39"/>
<stop offset="0.2478" stop-color="#A1CA3A"/>
<stop offset="0.5044" stop-color="#95C33D"/>
<stop offset="0.7643" stop-color="#81B941"/>
<stop offset="1" stop-color="#66AE45"/>
</linearGradient>
<clipPath id="clip0">
<rect width="321" height="220" fill="white" transform="translate(9 9)"/>
</clipPath>
<clipPath id="clip1">
<rect width="48.364" height="12.9191" fill="white" transform="translate(239.432 67.5762)"/>
</clipPath>
<clipPath id="clip2">
<rect width="33.1637" height="10.7975" fill="white" transform="translate(179.726 16.8906)"/>
</clipPath>
<clipPath id="clip3">
<rect width="53.7319" height="16.5365" fill="white" transform="translate(22.5146 122.126)"/>
</clipPath>
</defs>
</svg>
