<svg width="222" height="206" viewBox="0 0 222 206" fill="none" xmlns="http://www.w3.org/2000/svg">
<path d="M217 103C217 159.885 171.109 206 114.5 206C57.8908 206 12 159.885 12 103C12 46.1147 57.8908 0 114.5 0C171.109 0 217 46.1147 217 103Z" fill="#FFF2F6"/>
<path d="M196 102.5C196 147.511 159.735 184 115 184C70.2649 184 34 147.511 34 102.5C34 57.4888 70.2649 21 115 21C159.735 21 196 57.4888 196 102.5Z" fill="#FFE0E9"/>
<path d="M155 102.5C155 124.868 137.091 143 115 143C92.9086 143 75 124.868 75 102.5C75 80.1325 92.9086 62 115 62C137.091 62 155 80.1325 155 102.5Z" fill="#FFC3D4"/>
<g filter="url(#filter0_d)">
<path d="M7.00112 35.8081C7.00112 35.8081 14.0933 91.05 25.7461 103.48C39.7566 118.391 49.9021 116.21 55.5352 123.901C61.1829 116.201 71.338 118.391 85.3388 103.47C96.9917 91.0406 104.069 35.7987 104.069 35.7987C81.9986 13.3754 55.5352 5.03516 55.5352 5.03516C55.0038 5.55697 29.2861 14.2094 7.00112 35.8081Z" fill="#E62258"/>
</g>
<mask id="mask0" mask-type="alpha" maskUnits="userSpaceOnUse" x="7" y="4" width="49" height="121">
<rect width="48.6413" height="120.308" transform="matrix(-1 0 0 1 55.6416 4)" fill="#C4C4C4"/>
</mask>
<g mask="url(#mask0)">
<path d="M6.99819 35.8062C6.99819 35.8062 14.0904 91.048 25.7432 103.478C39.7536 118.389 49.8991 116.208 55.5323 123.899C61.18 116.199 71.3351 118.389 85.3359 103.468C96.9887 91.0387 104.066 35.7968 104.066 35.7968C81.9957 13.3734 55.5323 5.0332 55.5323 5.0332C55.0009 5.55502 29.2832 14.2075 6.99819 35.8062Z" fill="#FD3E72"/>
</g>
<path d="M14.5405 40.2715C14.5405 40.2715 20.5312 86.934 30.3723 97.4408C42.1991 110.054 50.7841 108.201 55.5573 114.698C60.3305 108.201 68.9107 110.054 80.7423 97.4408C90.5834 86.934 96.5596 40.2715 96.5596 40.2715C75.148 18.494 55.5573 14.2842 55.5573 14.2842C55.5573 14.2842 33.578 20.5791 14.5405 40.2715Z" fill="#FFCEDB"/>
<mask id="mask1" mask-type="alpha" maskUnits="userSpaceOnUse" x="14" y="12" width="42" height="108">
<rect width="41.1415" height="107.381" transform="matrix(-1 0 0 1 55.6416 12.543)" fill="#C4C4C4"/>
</mask>
<g mask="url(#mask1)">
<path d="M14.5317 40.2656C14.5317 40.2656 20.5224 86.9281 30.3635 97.4349C42.1903 110.048 50.7753 108.196 55.5485 114.692C60.3217 108.196 68.9019 110.048 80.7335 97.4349C90.5746 86.9281 96.5508 40.2656 96.5508 40.2656C75.1392 18.4881 55.5485 14.2783 55.5485 14.2783C55.5485 14.2783 33.5692 20.5732 14.5317 40.2656Z" fill="#FFE1E9"/>
</g>
<rect width="47.7236" height="47.1635" rx="23.5818" transform="matrix(-1 0 0 1 79.1582 40.8164)" fill="#FD3E72"/>
<path d="M54.0208 65.3138H49.9934C49.8104 65.3138 49.6717 65.4702 49.705 65.6427C49.7105 65.6804 49.7161 65.7182 49.7216 65.7559C49.7493 65.9068 49.7937 66.0524 49.8547 66.198C49.949 66.419 50.0988 66.6131 50.3041 66.7856C50.5038 66.9581 50.7867 67.039 51.1473 67.039C51.5079 67.039 51.7852 66.9527 51.9905 66.7856C52.1514 66.6508 52.2734 66.4999 52.3677 66.3381C52.4176 66.2519 52.5175 66.198 52.6173 66.198H53.7435C53.9487 66.198 54.0874 66.3974 54.0208 66.5807C53.9709 66.7209 53.9099 66.8557 53.8378 66.9743C53.7102 67.1953 53.5715 67.3894 53.4162 67.5512C53.2608 67.7129 53.1 67.8477 52.9224 67.9555C52.7449 68.0633 52.5785 68.1496 52.4121 68.2197C52.0071 68.3706 51.5855 68.4515 51.1362 68.4515C50.5482 68.4407 50.0267 68.3221 49.5718 68.0957C49.3777 67.9932 49.1891 67.8638 49.0004 67.7075C48.8118 67.5512 48.6454 67.3517 48.5012 67.1145C48.3569 66.8773 48.2404 66.5915 48.1517 66.2573C48.0629 65.923 48.0186 65.5402 48.0186 65.0928C48.0186 64.6507 48.0629 64.2625 48.1517 63.9283C48.2404 63.594 48.3569 63.3083 48.5012 63.0657C48.6454 62.8231 48.8118 62.6236 49.0004 62.4619C49.1891 62.3001 49.3777 62.1708 49.5718 62.0683C50.0212 61.8311 50.5371 61.7071 51.1195 61.6855C51.1306 61.6855 51.1417 61.6855 51.1528 61.6855C51.6299 61.7071 52.0737 61.8042 52.4897 61.9767C52.6673 62.0521 52.8448 62.1546 53.0223 62.2786C53.1998 62.4026 53.3662 62.5535 53.5216 62.7368C53.6769 62.9201 53.81 63.1358 53.9265 63.3892C54.043 63.6425 54.1318 63.9337 54.1817 64.2625C54.1983 64.3919 54.215 64.5213 54.2261 64.6561C54.2372 64.7909 54.2483 64.9364 54.2483 65.0928C54.2538 65.082 54.2871 65.3138 54.0208 65.3138ZM52.1014 64.2517C52.3122 64.2517 52.462 64.0361 52.3677 63.8528C52.3677 63.8528 52.3677 63.8474 52.3622 63.8474C52.2956 63.7126 52.2068 63.5886 52.0903 63.4754C51.9738 63.3676 51.8407 63.2759 51.6854 63.2113C51.53 63.1466 51.3414 63.1142 51.1362 63.1142C50.9254 63.1142 50.7423 63.1466 50.587 63.2113C50.4317 63.2759 50.293 63.3622 50.182 63.4754C50.0655 63.5886 49.9768 63.7072 49.9047 63.8474V63.8528C49.8104 64.0415 49.9601 64.2571 50.1709 64.2571H52.1014V64.2517Z" fill="white"/>
<path d="M47.1994 58.9629C46.3118 58.9629 45.5962 59.6584 45.5962 60.5209V65.0334C45.5962 65.2221 45.5851 65.4107 45.5629 65.6102C45.5408 65.8043 45.4853 65.9822 45.3965 66.1439C45.3078 66.3057 45.1746 66.4405 44.9971 66.5483C44.8196 66.6561 44.5644 66.71 44.2427 66.71C43.9209 66.71 43.6657 66.6561 43.4882 66.5483C43.3107 66.4405 43.1776 66.3057 43.0888 66.1439C43 65.9822 42.9446 65.8043 42.9224 65.6102C42.9002 65.4161 42.8891 65.2221 42.8891 65.0334V60.3808C42.0015 60.3808 41.2859 61.0762 41.2859 61.9388V65.028C41.2859 65.2167 41.2748 65.4054 41.2526 65.6048C41.2304 65.7989 41.175 65.9768 41.0862 66.1386C40.9974 66.3003 40.8643 66.4351 40.6868 66.5429C40.5093 66.6507 40.2541 66.7046 39.9323 66.7046C39.6106 66.7046 39.3554 66.6507 39.1779 66.5429C39.0004 66.4351 38.8672 66.3003 38.7785 66.1386C38.6897 65.9768 38.6343 65.7989 38.6121 65.6048C38.5899 65.4107 38.5788 65.2167 38.5788 65.028V61.7987C37.6912 61.7987 36.9756 62.4995 36.9756 63.3567V65.028C36.9756 65.47 37.02 65.8582 37.1087 66.1925C37.1975 66.5267 37.3084 66.8125 37.4416 67.0551C37.5803 67.2977 37.7356 67.4971 37.9131 67.6589C38.0906 67.8206 38.2737 67.95 38.4567 68.0524C38.8839 68.2896 39.3776 68.419 39.9268 68.4352C40.4871 68.419 40.9808 68.2896 41.4135 68.0524C41.5966 67.95 41.7796 67.8206 41.9516 67.6589C41.996 67.6157 42.0403 67.5726 42.0847 67.5241C42.1291 67.5726 42.1735 67.6157 42.2179 67.6589C42.3954 67.8206 42.5784 67.95 42.7615 68.0524C43.1887 68.2896 43.6824 68.419 44.2316 68.4352C44.7919 68.419 45.2856 68.2896 45.7183 68.0524C45.9013 67.95 46.0844 67.8206 46.2564 67.6589C46.4339 67.4971 46.5892 67.2977 46.7279 67.0551C46.8666 66.8125 46.9775 66.5267 47.0607 66.1925C47.1439 65.8582 47.1828 65.4754 47.1828 65.028L47.1994 58.9629Z" fill="white"/>
<path d="M59.0937 68.0374C59.0493 68.1614 58.9328 68.2477 58.7941 68.2477H57.9509H57.1077C56.9746 68.2477 56.8525 68.1614 56.8082 68.0374L54.8499 62.1988C54.7834 61.9993 54.9332 61.7999 55.1495 61.7999H56.0981C56.2312 61.7999 56.3533 61.8861 56.3977 62.0101L57.6514 65.7354C57.7457 66.0158 58.1506 66.0158 58.2449 65.7354L58.9661 63.5897L60.1754 59.9884C60.4417 59.2067 61.3071 58.7754 62.1115 59.0342L59.0937 68.0374Z" fill="white"/>
<path d="M66.8303 63.0178C66.686 62.7752 66.5196 62.5758 66.331 62.414C66.1424 62.2523 65.9538 62.1229 65.7596 62.0205C65.3047 61.7833 64.7888 61.6539 64.2174 61.6377C63.6682 61.6377 63.2023 61.7186 62.8195 61.8749C62.4367 62.0313 62.1205 62.2577 61.8709 62.5488C61.6213 62.8399 61.4437 63.1957 61.3272 63.6163C61.2163 64.0368 61.1553 64.5112 61.1553 65.0449V70.0048C61.1553 70.2151 61.3272 70.3822 61.5436 70.3822H62.3202C62.5366 70.3822 62.7085 70.2151 62.7085 70.0048V67.5087C62.7918 67.6219 62.8861 67.7189 62.9859 67.8052C63.2134 67.9939 63.4353 68.1287 63.6516 68.2095C63.8957 68.3012 64.1453 68.3551 64.406 68.3713C64.4282 68.3713 64.4449 68.3713 64.4671 68.3713C64.9941 68.3605 65.4656 68.2419 65.8761 68.0155C66.0592 67.913 66.2367 67.7836 66.4087 67.6273C66.5806 67.471 66.7304 67.2715 66.8691 67.0343C67.0022 66.7971 67.1132 66.5113 67.1964 66.1825C67.2796 65.8536 67.3184 65.4654 67.3184 65.0234C67.3184 64.5813 67.274 64.1985 67.1797 63.8643C67.091 63.5408 66.9745 63.255 66.8303 63.0178ZM65.6598 65.6433C65.6265 65.8644 65.5544 66.0692 65.449 66.2579C65.3436 66.4466 65.1938 66.6084 64.9996 66.7324C64.8055 66.8618 64.5447 66.9211 64.223 66.9211C63.9012 66.9211 63.6405 66.8564 63.4463 66.7324C63.2522 66.603 63.0969 66.4466 62.9859 66.2579C62.875 66.0692 62.8028 65.8644 62.7696 65.6433C62.7363 65.4223 62.7196 65.2174 62.7196 65.0341C62.7196 64.8077 62.7363 64.5813 62.764 64.3549C62.7973 64.1284 62.8583 63.9289 62.9582 63.7456C63.058 63.5623 63.2078 63.4168 63.4075 63.309C63.6072 63.2011 63.879 63.1418 64.2174 63.1418C64.5392 63.1418 64.7999 63.2065 64.9941 63.3305C65.1882 63.4599 65.3436 63.6163 65.4434 63.805C65.5488 63.9936 65.6154 64.2039 65.6542 64.4195C65.6875 64.6406 65.7041 64.8454 65.7041 65.0287C65.7097 65.2174 65.693 65.4223 65.6598 65.6433Z" fill="white"/>
<path d="M73.4084 63.5996C73.2753 63.2114 73.1033 62.8933 72.8925 62.6399C72.6817 62.3866 72.4543 62.1925 72.2102 62.0577C71.9661 61.9229 71.7331 61.8205 71.5168 61.7612C71.3004 61.6965 71.1063 61.6641 70.9454 61.6534C70.7845 61.6426 70.6902 61.6426 70.6625 61.6426C70.6292 61.6426 70.5293 61.648 70.374 61.6534C70.2187 61.6641 70.0301 61.6965 69.8137 61.7612C69.5974 61.8259 69.3644 61.9229 69.1203 62.0577C68.8762 62.1925 68.6488 62.3866 68.438 62.6399C68.2272 62.8933 68.0552 63.2168 67.9221 63.5996C67.7889 63.9877 67.7168 64.4622 67.7168 65.0282V67.9071C67.7168 68.0958 67.8721 68.2468 68.0663 68.2468H68.9594C69.1536 68.2468 69.3089 68.0958 69.3089 67.9071V65.0336C69.3089 64.8449 69.3255 64.6562 69.3588 64.4622C69.3921 64.2681 69.4587 64.0902 69.553 63.9284C69.6473 63.7667 69.786 63.6319 69.9579 63.5295C70.1299 63.4217 70.3629 63.3731 70.6514 63.3731C70.9398 63.3731 71.1728 63.4271 71.3448 63.5295C71.5168 63.6373 71.6554 63.7667 71.7497 63.9284C71.8441 64.0902 71.9106 64.2681 71.9439 64.4622C71.9772 64.6562 71.9938 64.8503 71.9938 65.0336V67.9071C71.9938 68.0958 72.1492 68.2468 72.3433 68.2468H73.2586C73.4528 68.2468 73.6081 68.0958 73.6081 67.9071V65.0336C73.6081 64.4622 73.5416 63.9877 73.4084 63.5996Z" fill="white"/>
<path d="M155.325 106.531L149.677 104.446L128.076 103.808L123.062 105.172L123.714 117.366L135.053 124.582L146.05 124.36L152.963 118.074L154.502 111.844L155.325 106.531Z" fill="#FFA68A"/>
<path d="M91.2473 125.207C92.5828 122.425 94.0926 119.73 95.7677 117.138C98.4146 112.99 102.597 110.053 107.404 108.969L125.536 104.041C125.536 104.041 126.765 116.241 139.231 116.241C151.697 116.241 151.95 104.945 151.95 104.945L174.773 113.265C175.495 113.55 180.357 115.224 186.017 127.342C191.411 138.879 193.773 144.78 193.773 144.78L172.247 150.555L170.835 170.425L171.291 181.501L105.708 181.356L106.075 168.719L105.777 147.781L104.359 150.34L83.8779 142.127C83.8779 142.127 85.9355 136.112 91.2473 125.207Z" fill="#FD3E72"/>
<path d="M105.441 136.927C105.347 136.927 105.403 143.94 105.568 152.589C105.733 161.239 105.954 168.246 106.049 168.246C106.144 168.246 106.087 161.232 105.916 152.583C105.745 143.934 105.536 136.927 105.441 136.927Z" fill="#E02D5E"/>
<g opacity="0.3">
<path opacity="0.3" d="M169.335 138.967C168.316 137.855 166.733 137.482 165.252 137.179C148.373 133.736 130.95 135.183 113.856 137.312C111.735 137.577 109.424 138.026 108.113 139.732C107.189 140.995 107.784 142.606 107.696 144.154C107.246 152.065 108.278 160.487 109.848 168.252L168.094 167.317C170.088 161.295 170.57 151.079 170.627 144.135C170.62 142.316 170.563 140.313 169.335 138.967Z" fill="black"/>
</g>
<path d="M173.128 129.845C173.137 129.943 173.137 130.043 173.128 130.142C173.128 130.363 173.128 130.647 173.128 130.995C173.128 131.734 173.128 132.802 173.071 134.154C173.007 136.795 172.868 140.472 172.64 144.477C172.412 148.483 172.159 152.154 171.944 154.789C171.836 156.084 171.741 157.139 171.678 157.91C171.64 158.257 171.614 158.542 171.589 158.756C171.586 158.857 171.569 158.957 171.539 159.053C171.53 158.955 171.53 158.855 171.539 158.756C171.539 158.537 171.551 158.253 171.576 157.903C171.627 157.133 171.69 156.071 171.766 154.744C171.931 152.078 172.146 148.426 172.4 144.433C172.653 140.44 172.792 136.757 172.9 134.116C172.957 132.821 173.001 131.759 173.033 130.957L173.077 130.104C173.085 130.016 173.102 129.929 173.128 129.845Z" fill="#E02D5E"/>
<path d="M116.052 78.5224C116.052 78.5224 114.609 80.5063 114.634 84.0886C114.634 85.984 115.951 89.895 119.363 90.0845C118.458 95.5686 121.972 99.6185 127.828 99.6185C133.684 99.6185 140.389 89.6043 145.815 87.3993L161.56 83.2483C162.947 82.9261 163.516 81.2455 163.491 79.8302C163.466 78.415 163.099 76.9365 163.599 75.6097C164.289 73.7964 166.397 72.8234 167.119 71.0165C167.936 68.9631 166.669 66.6822 165.22 65.0269C163.77 63.3716 161.972 61.7857 161.51 59.6312C161.085 57.641 161.845 55.4044 160.876 53.629C159.654 51.4493 156.445 51.1776 154.963 49.1685C154.241 48.1955 154.02 46.9255 153.304 45.9462C152.095 44.2719 149.759 43.836 147.701 44.0508C145.644 44.2656 143.612 45.0427 141.573 45.1881C138.743 45.3966 135.824 44.4804 133.108 45.3018C130.114 46.199 128.29 48.8526 126.347 51.4177L123.814 54.3999C123.298 54.9116 122.731 55.3709 122.124 55.7709C121.06 56.4659 119.838 56.946 118.92 57.8306C118.457 58.3197 118.098 58.8971 117.864 59.5281C117.631 60.1591 117.527 60.8307 117.559 61.5027C117.592 62.1747 117.76 62.8332 118.054 63.4388C118.347 64.0444 118.761 64.5845 119.268 65.0269C118.184 65.4014 117.249 66.114 116.602 67.0594C115.954 68.0048 115.628 69.1329 115.672 70.2772C115.672 70.2772 115.394 72.8803 117.046 74.0365C116.382 74.551 115.919 75.2811 115.738 76.1003C115.556 76.9196 115.667 77.7764 116.052 78.5224Z" fill="#5B5863"/>
<path d="M126.606 83.8237C125.34 79.8369 124.023 75.8249 123.441 71.6739C122.858 67.523 122.972 63.1951 124.441 59.2652C124.663 58.6713 126.549 54.6719 127.189 54.7351C127.638 54.7793 126.473 58.526 126.701 58.8987C128.886 62.6454 129.481 67.1502 129.133 71.4718C128.752 75.6704 127.903 79.8134 126.6 83.8237" fill="#5B5863"/>
<path d="M137.99 115.143C131.481 115.004 126.752 104.345 126.752 104.345L126.328 67.8516C125.986 57.3446 131.829 48.3855 142.345 48.335L143.32 48.3855C148.046 48.6378 152.504 50.6565 155.807 54.0399C159.109 57.4233 161.014 61.9234 161.142 66.6448C161.389 75.7555 161.541 85.8266 161.225 90.6852C160.554 100.756 150.373 101.78 150.373 101.78C150.373 101.78 150.316 104.117 150.291 107.081C150.221 113.727 140.579 115.37 137.971 115.143H137.99Z" fill="#FFA68A"/>
<path d="M150.26 101.78C145.598 101.519 141.109 99.929 137.325 97.1992C137.325 97.1992 140.136 104.674 150.253 104.332L150.26 101.78Z" fill="#D37A57"/>
<path d="M126.619 75.3573C126.448 75.2689 119.788 72.9375 119.655 79.8369C119.522 86.7362 126.474 85.46 126.493 85.2641C126.512 85.0683 126.619 75.3573 126.619 75.3573Z" fill="#FFA68A"/>
<path d="M124.422 82.6038C124.422 82.6038 124.302 82.686 124.1 82.7744C123.809 82.8901 123.485 82.8901 123.194 82.7744C122.472 82.4901 121.884 81.3213 121.877 80.0766C121.87 79.485 121.998 78.8994 122.251 78.3644C122.319 78.1499 122.439 77.9554 122.6 77.7979C122.762 77.6404 122.959 77.5247 123.175 77.4609C123.314 77.4311 123.458 77.4485 123.586 77.5104C123.713 77.5722 123.816 77.6749 123.878 77.8021C123.967 77.9979 123.922 78.1369 123.954 78.1496C123.986 78.1622 124.106 78.0359 124.055 77.7515C124.021 77.5791 123.93 77.4232 123.796 77.3093C123.615 77.1704 123.39 77.1029 123.163 77.1197C122.88 77.1724 122.616 77.2957 122.395 77.478C122.173 77.6603 122.002 77.8957 121.896 78.1622C121.593 78.748 121.437 79.3984 121.44 80.0576C121.44 81.4476 122.137 82.7681 123.131 83.0777C123.315 83.1359 123.51 83.1514 123.701 83.1229C123.892 83.0945 124.074 83.0228 124.232 82.9134C124.41 82.7681 124.448 82.6165 124.422 82.6038Z" fill="#D37A57"/>
<path d="M156.698 55.1576C157.825 54.5574 154.514 50.8992 151.779 49.6166C147.651 47.6833 141.32 46.4576 137.47 47.4748C132.842 48.7384 128.98 50.9687 126.606 55.126C124.314 59.3627 123.191 64.1314 123.352 68.9437C123.277 70.409 123.594 71.8679 124.27 73.1705C125.22 74.7121 127.062 75.6977 126.948 77.7954C126.918 78.1766 126.964 78.5601 127.083 78.9235C127.203 79.2869 127.394 79.6229 127.645 79.9119C128.911 81.2703 130.456 80.032 131.184 78.7747C132.735 76.0895 132.944 72.8672 133.121 69.7714C133.241 67.5727 133.362 65.3487 132.766 63.2069C132.444 62.0506 131.912 60.9576 131.652 59.7888C131.488 59.21 131.451 58.6027 131.544 58.0084C131.637 57.4141 131.857 56.8468 132.19 56.3454C132.363 56.1432 132.554 55.957 132.76 55.7894C133.735 54.9629 134.912 54.4102 136.172 54.1882C137.431 53.9661 138.727 54.0826 139.927 54.5258C143.808 55.9537 150.43 58.0892 152.184 56.794C154.716 54.9301 155.318 53.6981 155.318 53.6981L156.698 55.1576Z" fill="#5B5863"/>
<path d="M137.844 46.5469C141.643 45.3275 145.986 45.4476 149.519 47.3367C151.418 48.3349 153.077 49.9208 153.628 51.9679C154.179 54.0149 153.267 56.5232 151.292 57.3003L151.152 57.3825C148.189 58.3365 146.277 57.9195 143.352 56.8644C140.89 55.9735 138.705 54.4256 136.236 53.5474C133.589 52.6155 130.722 52.4967 128.006 53.2062C130.64 50.1601 134.034 47.8628 137.844 46.5469Z" fill="#5B5863"/>
<path d="M124.694 53.3697C124.758 53.4202 125.327 52.7379 126.435 51.9797C127.088 51.5268 127.791 51.1515 128.531 50.8614C129.422 50.4994 130.382 50.3397 131.342 50.3939C133.105 50.589 134.777 51.2767 136.166 52.3777C137.236 53.2244 137.73 53.932 137.793 53.8815C137.857 53.8309 137.724 53.673 137.496 53.3507C137.168 52.9031 136.792 52.4921 136.375 52.125C134.98 50.8929 133.233 50.1264 131.38 49.9326C130.349 49.8737 129.319 50.0576 128.373 50.4697C127.607 50.7925 126.89 51.2176 126.239 51.7333C125.61 52.1592 125.083 52.7178 124.694 53.3697Z" fill="#6F6C78"/>
<path d="M145.765 45.915C146.362 46.1777 146.972 46.4076 147.594 46.6037C149.041 47.1841 150.39 47.9809 151.596 48.9667C152.799 49.9584 153.842 51.1307 154.685 52.4416C154.999 53.0216 155.344 53.5847 155.717 54.1286C155.58 53.478 155.327 52.8573 154.97 52.2963C153.373 49.4785 150.785 47.3513 147.708 46.3257C147.09 46.0763 146.432 45.9373 145.765 45.915Z" fill="#6F6C78"/>
<path d="M117.078 70.859C117.078 70.859 117.312 70.96 117.749 71.0864C118.367 71.254 119.013 71.297 119.648 71.2128C120.59 71.0843 121.501 70.7822 122.332 70.3219C123.295 69.8291 124.276 69.1468 125.371 68.5149C126.384 67.881 127.511 67.4516 128.689 67.2513C129.669 67.095 130.673 67.2802 131.532 67.7757C132.118 68.1023 132.592 68.5977 132.893 69.1973C132.976 69.3593 133.037 69.5313 133.076 69.7091C133.076 69.8354 133.114 69.8986 133.076 69.8986C133.038 69.8986 133.007 69.6459 132.785 69.2668C132.462 68.7117 131.991 68.2568 131.424 67.9526C130.591 67.5008 129.629 67.3427 128.695 67.504C127.549 67.7177 126.453 68.1465 125.466 68.7677C124.384 69.3995 123.39 70.0755 122.408 70.5683C121.549 71.0273 120.61 71.319 119.642 71.4276C118.99 71.4851 118.334 71.4032 117.717 71.1875C117.548 71.1293 117.385 71.0552 117.23 70.9664C117.122 70.9032 117.071 70.8653 117.078 70.859Z" fill="#6F6C78"/>
<path d="M117.508 73.9294C118.26 74.098 119.033 74.147 119.8 74.0747C120.632 73.971 121.449 73.776 122.238 73.4934C123.13 73.1902 124.093 72.7669 125.137 72.3941C126.114 72.016 127.143 71.7901 128.189 71.7244C129.059 71.6893 129.925 71.8535 130.721 72.2045C131.254 72.4448 131.727 72.7984 132.108 73.2407C132.209 73.3627 132.298 73.4939 132.374 73.6324C132.407 73.6784 132.433 73.7297 132.45 73.7841C132.45 73.7841 132.31 73.6008 132.038 73.3102C131.647 72.9035 131.174 72.5829 130.652 72.3688C129.882 72.0529 129.051 71.9125 128.221 71.9581C127.201 72.0331 126.198 72.2588 125.245 72.6279C124.213 73.0006 123.244 73.4113 122.333 73.7146C121.527 73.9886 120.692 74.1688 119.845 74.2516C119.27 74.299 118.692 74.2607 118.129 74.1379C117.976 74.1024 117.826 74.0559 117.679 73.9989C117.553 73.961 117.502 73.942 117.508 73.9294Z" fill="#6F6C78"/>
<path d="M164.504 67.7119C164.491 67.94 164.412 68.1594 164.276 68.3437C164 68.7918 163.628 69.1736 163.187 69.462C162.747 69.7501 162.247 69.9357 161.725 70.0054C161.517 70.0606 161.299 70.0606 161.092 70.0054C161.786 69.8723 162.453 69.6269 163.067 69.2788C163.635 68.8452 164.122 68.3148 164.504 67.7119Z" fill="#455A64"/>
<path d="M166.125 71.3324C166.084 71.6531 165.969 71.96 165.79 72.2295C165.397 72.9051 164.848 73.477 164.188 73.8975C163.531 74.3179 162.781 74.5736 162.004 74.6431C161.684 74.6919 161.357 74.6681 161.048 74.5736C161.048 74.5293 161.415 74.5736 161.985 74.4662C162.719 74.3591 163.424 74.1032 164.055 73.7143C164.685 73.3141 165.224 72.7868 165.638 72.1664C165.954 71.6546 166.087 71.3197 166.125 71.3324Z" fill="#455A64"/>
<path d="M191.899 145.343L200.693 162.951C201.669 164.91 202.126 167.085 202.022 169.269C201.869 172.563 200.451 175.671 198.063 177.948C195.674 180.226 192.499 181.498 189.195 181.501L163.991 180.048L162.89 168.568L182.067 163.956L174.634 149.942L191.899 145.343Z" fill="#FFA68A"/>
<path d="M182.054 163.956C182.054 164.038 182.928 163.893 184.32 163.899C186.129 163.937 187.92 164.252 189.632 164.834C191.35 165.404 192.96 166.258 194.393 167.361C195.482 168.214 195.995 168.922 196.058 168.878C196.122 168.833 195.97 168.675 195.742 168.347C195.399 167.901 195.013 167.491 194.589 167.121C193.173 165.92 191.537 165.004 189.771 164.423C188.018 163.817 186.169 163.537 184.314 163.596C183.755 163.616 183.198 163.682 182.649 163.791C182.263 163.867 182.048 163.924 182.054 163.956Z" fill="#D37A57"/>
<path d="M84.2453 142.316C84.2453 142.316 79.5097 155.515 73.5648 170.211C73.4441 170.508 73.3488 170.814 73.2799 171.127C72.3809 175.095 75.4135 181.754 79.4907 181.754L113.615 181.419V170.299L93.9382 165.997L101.536 149.235L84.2453 142.316Z" fill="#FFA68A"/>
<path d="M78.6354 169.041C78.686 169.098 79.3571 168.568 80.5347 167.892C83.6408 166.104 87.2162 165.295 90.7911 165.573C92.1586 165.674 92.9943 165.863 93.007 165.794C93.0196 165.724 92.817 165.693 92.4372 165.585C91.908 165.437 91.3683 165.33 90.8227 165.263C89.0098 165.043 87.1724 165.135 85.3907 165.535C83.6082 165.936 81.9093 166.644 80.3701 167.626C79.9 167.92 79.4534 168.249 79.0342 168.612C78.7683 168.865 78.6164 169.016 78.6354 169.041Z" fill="#6F4C47"/>
<path d="M167.809 167.904H162.877C162.877 167.904 151.747 163.892 149.455 164.271C147.397 164.619 139.844 169.623 138.369 170.589C138.203 170.698 138.076 170.858 138.008 171.044C137.863 171.436 137.876 171.869 138.044 172.252C138.211 172.634 138.521 172.938 138.907 173.098L139.066 173.161L138.996 173.382C138.909 173.675 138.871 173.98 138.882 174.286C138.899 174.517 138.99 174.736 139.141 174.912C139.293 175.088 139.496 175.211 139.723 175.263C139.949 175.316 140.186 175.294 140.399 175.202C140.612 175.111 140.791 174.953 140.908 174.753L140.623 175.259C140.508 175.465 140.453 175.699 140.465 175.935V176.389C140.478 176.639 140.566 176.878 140.719 177.076C140.872 177.273 141.081 177.42 141.319 177.495C141.541 177.564 141.777 177.569 142.001 177.51C142.225 177.451 142.428 177.33 142.586 177.16C143.548 176.105 145.612 174.001 147.017 173.767C148.534 173.584 150.061 173.508 151.589 173.54C151.899 173.542 152.203 173.636 152.459 173.812C152.715 173.988 152.913 174.237 153.026 174.526C152.196 174.589 146.41 177.596 144.365 178.677C144.048 178.834 143.774 179.065 143.567 179.352C143.359 179.638 143.225 179.97 143.174 180.319C143.099 180.951 143.421 181.627 144.688 181.33C147.41 180.698 152.285 178.456 152.285 178.456C152.285 178.456 154.817 177.735 156.444 178.885C158.743 180.503 159.8 181.096 161.775 180.446C162.975 180.045 164.126 179.511 165.207 178.854L169.1 178.468C169.1 178.468 172.842 169.313 167.809 167.904Z" fill="#936760"/>
<path d="M153.109 169.781C153.109 169.825 152.324 169.572 151.02 169.49C149.323 169.375 147.623 169.662 146.059 170.329C144.496 170.995 143.112 172.022 142.023 173.325C141.181 174.317 140.82 175.05 140.757 175.031C140.822 174.851 140.904 174.677 141.004 174.513C141.263 174.069 141.557 173.647 141.884 173.25C142.964 171.899 144.363 170.838 145.955 170.16C147.547 169.481 149.283 169.208 151.007 169.364C151.526 169.406 152.041 169.493 152.545 169.623C152.739 169.652 152.928 169.705 153.109 169.781Z" fill="#6F4C47"/>
<path d="M151.931 167.084C151.223 166.87 150.491 166.743 149.753 166.705C147.963 166.695 146.208 167.19 144.688 168.133C143.18 169.098 141.807 170.258 140.604 171.582L139.484 172.764C139.357 172.919 139.215 173.061 139.06 173.187C139.166 173.017 139.289 172.858 139.427 172.713C139.674 172.416 140.06 171.993 140.497 171.481C141.677 170.115 143.051 168.927 144.574 167.956C146.126 166.993 147.926 166.505 149.753 166.553C150.304 166.581 150.849 166.681 151.374 166.85C151.557 166.907 151.69 166.976 151.785 167.008C151.88 167.04 151.937 167.077 151.931 167.084Z" fill="#6F4C47"/>
<path d="M106.391 168.252H111.323C111.323 168.252 122.453 164.24 124.745 164.619C126.802 164.967 134.355 169.97 135.831 170.937C135.997 171.046 136.124 171.205 136.191 171.392C136.336 171.784 136.323 172.216 136.156 172.599C135.988 172.982 135.679 173.285 135.292 173.445L135.134 173.509L135.204 173.73C135.29 174.023 135.329 174.328 135.318 174.633C135.3 174.864 135.209 175.084 135.058 175.26C134.907 175.436 134.703 175.559 134.477 175.611C134.251 175.663 134.014 175.642 133.801 175.55C133.587 175.458 133.409 175.301 133.292 175.101L133.577 175.606C133.692 175.812 133.746 176.047 133.735 176.282V176.737C133.722 176.986 133.634 177.226 133.481 177.423C133.328 177.621 133.119 177.767 132.88 177.843C132.659 177.912 132.423 177.917 132.199 177.858C131.975 177.799 131.772 177.677 131.614 177.508C130.652 176.453 128.588 174.349 127.182 174.115C125.666 173.932 124.138 173.856 122.611 173.888C122.3 173.888 121.996 173.983 121.74 174.159C121.483 174.335 121.286 174.584 121.174 174.873C122.003 174.936 127.79 177.944 129.835 179.024C130.152 179.181 130.426 179.413 130.633 179.699C130.84 179.985 130.975 180.317 131.025 180.667C131.101 181.299 130.778 181.975 129.512 181.678C126.79 181.046 121.915 178.803 121.915 178.803C121.915 178.803 119.382 178.083 117.755 179.233C115.457 180.85 114.4 181.444 112.424 180.793C111.204 180.405 110.031 179.879 108.93 179.226L105.036 178.841C105.036 178.841 101.358 169.661 106.391 168.252Z" fill="#FFA68A"/>
<path d="M121.092 170.129C121.092 170.173 121.877 169.92 123.181 169.838C124.878 169.722 126.577 170.01 128.141 170.676C129.705 171.343 131.088 172.37 132.178 173.673C133.02 174.665 133.38 175.398 133.444 175.379C133.379 175.198 133.296 175.025 133.197 174.861C132.938 174.417 132.644 173.994 132.317 173.597C131.237 172.247 129.838 171.185 128.246 170.507C126.654 169.829 124.918 169.556 123.194 169.712C122.674 169.754 122.16 169.84 121.655 169.971C121.462 170 121.272 170.053 121.092 170.129Z" fill="#6F4C47"/>
<path d="M122.269 167.431C122.977 167.217 123.708 167.09 124.447 167.052C126.236 167.042 127.992 167.537 129.512 168.48C131.019 169.445 132.392 170.605 133.595 171.929L134.716 173.111C134.843 173.266 134.985 173.408 135.14 173.534C135.034 173.364 134.911 173.206 134.773 173.06C134.526 172.763 134.14 172.34 133.703 171.797C132.521 170.429 131.146 169.241 129.619 168.271C128.07 167.308 126.272 166.82 124.447 166.869C123.896 166.897 123.351 166.996 122.826 167.166C122.643 167.222 122.51 167.292 122.415 167.323C122.32 167.355 122.263 167.425 122.269 167.431Z" fill="#6F4C47"/>
<path d="M114.204 181.805H170.836C171.611 181.805 172.356 181.507 172.916 180.973C173.477 180.439 173.809 179.709 173.843 178.936L175.533 140.055C175.556 139.648 175.495 139.241 175.354 138.858C175.213 138.475 174.996 138.126 174.715 137.83C174.434 137.534 174.095 137.299 173.72 137.138C173.345 136.977 172.941 136.895 172.532 136.896H112.59C112.183 136.898 111.782 136.983 111.409 137.146C111.036 137.308 110.701 137.543 110.422 137.839C110.143 138.134 109.927 138.483 109.787 138.863C109.647 139.244 109.586 139.649 109.608 140.055L111.197 178.955C111.237 179.724 111.572 180.448 112.131 180.978C112.691 181.508 113.433 181.804 114.204 181.805Z" fill="#E0E0E0"/>
<path d="M114.204 181.804H114.064C113.926 181.807 113.788 181.794 113.653 181.766C113.113 181.676 112.609 181.437 112.197 181.078C111.862 180.785 111.595 180.423 111.414 180.017C111.232 179.612 111.141 179.172 111.146 178.727C111.102 177.691 111.051 176.497 110.988 175.151C110.76 169.762 110.424 161.972 110.013 152.349C109.911 149.942 109.81 147.415 109.696 144.768C109.645 143.46 109.588 142.114 109.531 140.749C109.531 140.408 109.487 140.073 109.531 139.713C109.556 139.353 109.64 138.998 109.778 138.664C109.997 138.154 110.346 137.711 110.79 137.378C111.235 137.045 111.759 136.835 112.311 136.769C112.691 136.737 113.039 136.769 113.4 136.769H129.386H170.924H172.304C172.78 136.747 173.256 136.82 173.703 136.984C174.154 137.155 174.559 137.427 174.888 137.778C175.217 138.13 175.462 138.552 175.603 139.012C175.728 139.464 175.767 139.935 175.717 140.402L175.66 141.754C175.622 142.657 175.577 143.555 175.539 144.445C175.383 148.03 175.229 151.553 175.077 155.016C174.773 161.966 174.476 168.625 174.197 174.987C174.159 175.783 174.128 176.579 174.09 177.363C174.09 177.754 174.09 178.146 174.039 178.538C174.042 178.937 173.989 179.335 173.881 179.719C173.7 180.294 173.358 180.805 172.896 181.192C172.434 181.58 171.871 181.827 171.272 181.905C170.867 181.943 170.5 181.905 170.12 181.905H161.32H145.492L122.618 181.861H116.401H114.786H114.235H114.786L116.388 181.754H122.605L145.479 181.71H161.307H170.107C170.481 181.71 170.873 181.71 171.228 181.71C171.592 181.666 171.945 181.552 172.266 181.375C172.923 181.012 173.413 180.41 173.634 179.694C173.734 179.328 173.783 178.949 173.779 178.569C173.779 178.178 173.811 177.786 173.83 177.394C173.83 176.611 173.9 175.821 173.931 175.025C174.21 168.656 174.495 161.972 174.799 155.047C174.944 151.585 175.103 148.059 175.254 144.477C175.292 143.586 175.337 142.689 175.375 141.785L175.432 140.433C175.482 139.997 175.447 139.555 175.33 139.132C175.204 138.714 174.984 138.331 174.687 138.011C174.389 137.691 174.023 137.444 173.615 137.287C173.201 137.132 172.758 137.065 172.317 137.091H170.937H129.398H113.362C113.007 137.091 112.634 137.091 112.298 137.091C111.956 137.13 111.624 137.228 111.317 137.382C110.712 137.678 110.23 138.176 109.956 138.791C109.824 139.1 109.745 139.429 109.721 139.764C109.721 140.086 109.721 140.44 109.721 140.781C109.778 142.146 109.829 143.485 109.886 144.799C109.987 147.428 110.086 149.955 110.184 152.381C110.557 162.01 110.861 169.8 111.07 175.189C111.121 176.535 111.165 177.717 111.203 178.772C111.194 179.206 111.28 179.637 111.454 180.035C111.627 180.433 111.885 180.788 112.209 181.078C112.62 181.431 113.119 181.664 113.653 181.754C113.835 181.781 114.019 181.798 114.204 181.804Z" fill="#263238"/>
<path d="M139.478 160.045C139.478 160.658 139.66 161.256 140.001 161.766C140.342 162.275 140.827 162.672 141.394 162.906C141.961 163.14 142.585 163.201 143.187 163.081C143.789 162.961 144.342 162.666 144.776 162.232C145.209 161.798 145.504 161.246 145.623 160.645C145.742 160.044 145.68 159.422 145.444 158.856C145.208 158.29 144.81 157.807 144.299 157.468C143.788 157.128 143.187 156.948 142.573 156.949C141.752 156.951 140.964 157.278 140.384 157.858C139.804 158.439 139.478 159.225 139.478 160.045Z" fill="white"/>
<path d="M90.9687 167.052C89.4809 165.788 87.4423 165.636 86.1888 165.681C86.1888 164.758 86.1508 164.189 86.1508 164.189H60.0414C60.0414 164.189 59.2183 181.387 72.4123 182C78.3192 182.266 81.7 179.625 83.6373 176.314C84.6057 176.547 85.5978 176.668 86.594 176.674C88.0522 176.737 89.4922 176.331 90.7028 175.518C91.6019 174.848 92.6655 173.54 92.6655 171.095C92.705 170.337 92.573 169.58 92.2793 168.88C91.9855 168.18 91.5376 167.555 90.9687 167.052ZM89.1644 173.445C88.0501 174.279 86.0558 174.147 84.7326 173.913C85.3982 172.08 85.8238 170.169 85.9988 168.227C86.8915 168.176 88.3983 168.227 89.2657 168.985C89.5488 169.248 89.7679 169.572 89.9062 169.932C90.0445 170.292 90.0983 170.679 90.0634 171.064C90.1182 171.504 90.065 171.95 89.9084 172.365C89.7518 172.78 89.4964 173.151 89.1644 173.445Z" fill="#5B5863"/>
<path d="M65.8719 176.119C64.9717 175.113 64.2694 173.947 63.8017 172.681C63.2405 171.453 62.9121 170.131 62.833 168.783C62.9343 168.783 63.2572 170.527 64.0992 172.574C64.9413 174.621 65.9606 176.068 65.8719 176.119Z" fill="#FAFAFA"/>
<path d="M67.9495 176.389C67.5298 175.212 67.2142 174.001 67.0062 172.769C66.6853 171.56 66.4734 170.325 66.373 169.079C66.7995 170.256 67.1236 171.467 67.3417 172.699C67.6514 173.909 67.8547 175.144 67.9495 176.389Z" fill="#FAFAFA"/>
<path d="M71.0769 176.105C70.6661 174.96 70.4043 173.766 70.2982 172.554C70.0989 171.356 70.0563 170.137 70.1715 168.928C70.3953 170.115 70.558 171.313 70.659 172.516C70.8637 173.704 71.0032 174.902 71.0769 176.105Z" fill="#FAFAFA"/>
<path d="M73.6529 169.295C73.8883 170.397 73.946 171.53 73.8239 172.65C73.8105 173.774 73.6204 174.889 73.2604 175.954C73.1654 175.954 73.387 174.463 73.4947 172.631C73.6023 170.799 73.558 169.301 73.6529 169.295Z" fill="#FAFAFA"/>
<path d="M77.7179 168.271C77.9123 169.533 77.8564 170.821 77.5532 172.061C77.3505 173.327 76.8986 174.54 76.2237 175.631C76.1287 175.593 76.8188 174.039 77.2304 171.998C77.6419 169.957 77.6166 168.277 77.7179 168.271Z" fill="#FAFAFA"/>
<path d="M82.0038 169.875C81.9663 170.983 81.6945 172.07 81.2061 173.066C80.8152 174.103 80.2064 175.044 79.4207 175.827C79.3448 175.77 80.1995 174.563 80.9022 172.933C81.605 171.303 81.9025 169.856 82.0038 169.875Z" fill="#FAFAFA"/>
<path d="M69.2278 136.896C68.9757 137.137 68.7468 137.401 68.544 137.685C68.045 138.494 67.8228 139.443 67.9109 140.389C68.0807 141.791 68.5843 143.132 69.3797 144.3C70.1901 145.671 71.279 147.162 71.6652 149.052C71.8724 149.969 71.8154 150.926 71.5006 151.813C71.1921 152.611 70.7652 153.358 70.2344 154.03C69.2278 155.294 68.2654 156.393 67.8349 157.518C67.4578 158.39 67.4128 159.37 67.7083 160.272C67.8412 160.594 68.0112 160.9 68.2148 161.182C68.2148 161.182 68.1388 161.132 68.0122 160.999C67.8365 160.795 67.6935 160.565 67.588 160.317C67.2194 159.392 67.2194 158.361 67.588 157.436C68.0059 156.248 68.9872 155.111 69.9558 153.847C70.4855 153.202 70.9125 152.48 71.2221 151.705C71.5118 150.872 71.5622 149.975 71.3677 149.115C70.9878 147.32 69.9495 145.848 69.1455 144.452C68.336 143.242 67.8401 141.85 67.702 140.402C67.6343 139.413 67.9018 138.429 68.4617 137.609C68.6584 137.316 68.9206 137.071 69.2278 136.896Z" fill="#263238"/>
<path d="M72.1845 139.05C72.0337 139.322 71.9045 139.605 71.7983 139.897C71.5733 140.717 71.5953 141.585 71.8616 142.393C72.3056 143.578 72.9221 144.691 73.6913 145.697C74.129 146.326 74.5023 146.997 74.8056 147.7C75.112 148.467 75.3081 149.273 75.388 150.094C75.5386 151.691 75.2358 153.299 74.5143 154.732C73.8242 156.027 72.9759 157.032 72.6593 158.055C72.5172 158.45 72.4552 158.869 72.4769 159.287C72.4987 159.706 72.6037 160.116 72.7859 160.494C72.9468 160.759 73.1451 161 73.3747 161.208C73.2975 161.179 73.225 161.138 73.1595 161.088C72.9639 160.944 72.7982 160.764 72.672 160.557C72.4574 160.168 72.3258 159.738 72.2855 159.296C72.2452 158.853 72.297 158.407 72.4377 157.986C72.748 156.899 73.5963 155.85 74.2421 154.593C74.9218 153.208 75.2045 151.662 75.0588 150.126C74.9834 149.336 74.798 148.559 74.508 147.82C74.2127 147.136 73.8545 146.48 73.4381 145.861C72.6644 144.827 72.0577 143.678 71.64 142.456C71.3771 141.608 71.3904 140.699 71.678 139.859C71.7609 139.634 71.8737 139.422 72.0136 139.227C72.1149 139.101 72.1718 139.038 72.1845 139.05Z" fill="#263238"/>
<path d="M221.084 181.581C221.084 181.639 180.99 181.682 131.546 181.682C82.1017 181.682 41.999 181.639 41.999 181.581C41.999 181.522 82.0821 181.479 131.546 181.479C181.009 181.479 221.084 181.526 221.084 181.581Z" fill="#263238"/>
<defs>
<filter id="filter0_d" x="0.000976562" y="4.03516" width="111.068" height="132.866" filterUnits="userSpaceOnUse" color-interpolation-filters="sRGB">
<feFlood flood-opacity="0" result="BackgroundImageFix"/>
<feColorMatrix in="SourceAlpha" type="matrix" values="0 0 0 0 0 0 0 0 0 0 0 0 0 0 0 0 0 0 127 0"/>
<feOffset dy="6"/>
<feGaussianBlur stdDeviation="3.5"/>
<feColorMatrix type="matrix" values="0 0 0 0 0 0 0 0 0 0 0 0 0 0 0 0 0 0 0.15 0"/>
<feBlend mode="normal" in2="BackgroundImageFix" result="effect1_dropShadow"/>
<feBlend mode="normal" in="SourceGraphic" in2="effect1_dropShadow" result="shape"/>
</filter>
</defs>
</svg>
