<svg width="28" height="28" viewBox="0 0 28 28" fill="none" xmlns="http://www.w3.org/2000/svg">
<g clip-path="url(#clip0)">
<path d="M6.23638 2.37491L6.1982 2.40927C6.2802 2.32591 6.37062 2.25127 6.46801 2.18655C8.65965 0.761091 11.1924 0 14.0026 0C16.6295 0 19.0909 0.725455 21.1935 1.988C21.3462 2.07836 21.7611 2.36345 21.9749 2.62182V2.62309C19.9475 0.388182 13.9886 5.18382 13.9886 5.18382C11.9267 3.59545 10.0317 2.51236 8.6202 2.12673C7.44038 1.80473 6.62456 2.07455 6.23638 2.37491ZM24.2709 4.48764C24.2098 4.42018 24.1424 4.35527 24.08 4.284C23.5671 3.72273 22.9371 3.58655 22.3695 3.62345C21.8527 3.78509 19.4638 4.64673 16.52 7.42509C16.52 7.42509 19.8342 10.6476 21.8629 13.9415C23.8904 17.2353 25.1033 19.824 24.3575 23.4169C26.7056 20.8428 28.005 17.4829 28 13.9987C28 10.3269 26.5873 6.986 24.2709 4.48891V4.48764ZM19.2131 15.3478C17.9212 13.9048 16.5863 12.5008 15.2104 11.1376C14.8059 10.7352 14.3986 10.3355 13.9886 9.93873C13.9886 9.93873 13.342 10.584 12.502 11.4329C11.4266 12.5185 10.0329 13.9351 9.25911 14.7611C7.88074 16.2311 3.93401 20.8485 3.71256 23.4373C3.71256 23.4373 2.83438 21.3844 4.76129 16.6485C6.02129 13.5533 9.82547 8.904 11.4138 7.38946C11.4138 7.38946 9.96292 5.79218 8.14038 4.68873L8.12892 4.68491L8.07547 4.648C7.19983 4.12618 6.24274 3.724 5.32256 3.67055C4.38201 3.73673 3.78765 4.424 3.78765 4.424C1.34995 7.01607 -0.00501939 10.4417 1.39731e-05 14C1.39731e-05 21.7318 6.2682 28 14.0013 28C15.9521 28.0016 17.8816 27.5948 19.6657 26.8056C21.4497 26.0165 23.0488 24.8626 24.36 23.4182C24.3587 23.4131 24.0647 21.5676 22.1811 18.9204C21.7382 18.3005 20.1193 16.3647 19.2131 15.3478Z" fill="#7EB900"/>
</g>
<defs>
<clipPath id="clip0">
<rect width="28" height="28" fill="white"/>
</clipPath>
</defs>
</svg>
